{"title":"Mazeppa","artist":"Liszt","durationMs":375171,"midiSha256":"a816cbdf388778a366f5b361b1debb707ace858f59f1029e08f889d81755651d","midiObject":[{"NoteNumber":61,"Velocity":56,"Duration":300000,"SoundDuration":300000,"Delta":0},{"NoteNumber":67,"Velocity":58,"Duration":299999,"SoundDuration":299999,"Delta":37501},{"NoteNumber":70,"Velocity":60,"Duration":300000,"SoundDuration":300000,"Delta":75001},{"NoteNumber":76,"Velocity":62,"Duration":300000,"SoundDuration":300000,"Delta":112500},{"NoteNumber":79,"Velocity":72,"Duration":300000,"SoundDuration":300000,"Delta":150001},{"NoteNumber":85,"Velocity":72,"Duration":299999,"SoundDuration":299999,"Delta":187501},{"NoteNumber":88,"Velocity":77,"Duration":299999,"SoundDuration":299999,"Delta":225001},{"NoteNumber":94,"Velocity":79,"Duration":299999,"SoundDuration":299999,"Delta":262501},{"NoteNumber":56,"Velocity":54,"Duration":300000,"SoundDuration":300000,"Delta":1200000},{"NoteNumber":62,"Velocity":55,"Duration":300000,"SoundDuration":300000,"Delta":1237501},{"NoteNumber":65,"Velocity":58,"Duration":299999,"SoundDuration":299999,"Delta":1275001},{"NoteNumber":71,"Velocity":61,"Duration":300000,"SoundDuration":300000,"Delta":1312501},{"NoteNumber":74,"Velocity":68,"Duration":299999,"SoundDuration":299999,"Delta":1350001},{"NoteNumber":80,"Velocity":69,"Duration":300000,"SoundDuration":300000,"Delta":1387500},{"NoteNumber":83,"Velocity":71,"Duration":300000,"SoundDuration":300000,"Delta":1425001},{"NoteNumber":89,"Velocity":73,"Duration":300000,"SoundDuration":300000,"Delta":1462500},{"NoteNumber":51,"Velocity":44,"Duration":248678,"SoundDuration":248678,"Delta":2459747},{"NoteNumber":57,"Velocity":45,"Duration":247983,"SoundDuration":247983,"Delta":2475636},{"NoteNumber":60,"Velocity":47,"Duration":247287,"SoundDuration":247287,"Delta":2491526},{"NoteNumber":66,"Velocity":48,"Duration":246563,"SoundDuration":246563,"Delta":2507416},{"NoteNumber":69,"Velocity":59,"Duration":245807,"SoundDuration":245807,"Delta":2523306},{"NoteNumber":75,"Velocity":61,"Duration":245050,"SoundDuration":245050,"Delta":2539196},{"NoteNumber":78,"Velocity":64,"Duration":244293,"SoundDuration":244293,"Delta":2555086},{"NoteNumber":84,"Velocity":66,"Duration":243537,"SoundDuration":243537,"Delta":2570976},{"NoteNumber":46,"Velocity":42,"Duration":238430,"SoundDuration":238430,"Delta":2950007},{"NoteNumber":52,"Velocity":43,"Duration":238193,"SoundDuration":238193,"Delta":2965019},{"NoteNumber":55,"Velocity":45,"Duration":237965,"SoundDuration":237965,"Delta":2980023},{"NoteNumber":61,"Velocity":47,"Duration":237788,"SoundDuration":237788,"Delta":2994975},{"NoteNumber":64,"Velocity":59,"Duration":237611,"SoundDuration":237611,"Delta":3009928},{"NoteNumber":70,"Velocity":60,"Duration":237434,"SoundDuration":237434,"Delta":3024880},{"NoteNumber":73,"Velocity":63,"Duration":237219,"SoundDuration":237219,"Delta":3039816},{"NoteNumber":79,"Velocity":64,"Duration":237044,"SoundDuration":237044,"Delta":3054709},{"NoteNumber":41,"Velocity":44,"Duration":232336,"SoundDuration":232336,"Delta":3423766},{"NoteNumber":47,"Velocity":46,"Duration":232167,"SoundDuration":232167,"Delta":3438369},{"NoteNumber":50,"Velocity":49,"Duration":231999,"SoundDuration":231999,"Delta":3452972},{"NoteNumber":56,"Velocity":51,"Duration":231804,"SoundDuration":231804,"Delta":3467575},{"NoteNumber":59,"Velocity":59,"Duration":231629,"SoundDuration":231629,"Delta":3482128},{"NoteNumber":65,"Velocity":62,"Duration":231462,"SoundDuration":231462,"Delta":3496674},{"NoteNumber":68,"Velocity":65,"Duration":231295,"SoundDuration":231295,"Delta":3511221},{"NoteNumber":74,"Velocity":68,"Duration":231091,"SoundDuration":231091,"Delta":3525767},{"NoteNumber":36,"Velocity":46,"Duration":226582,"SoundDuration":226582,"Delta":3885526},{"NoteNumber":42,"Velocity":48,"Duration":226389,"SoundDuration":226389,"Delta":3899774},{"NoteNumber":45,"Velocity":51,"Duration":226230,"SoundDuration":226230,"Delta":3913989},{"NoteNumber":51,"Velocity":53,"Duration":226070,"SoundDuration":226070,"Delta":3928205},{"NoteNumber":54,"Velocity":62,"Duration":225899,"SoundDuration":225899,"Delta":3942420},{"NoteNumber":60,"Velocity":65,"Duration":225687,"SoundDuration":225687,"Delta":3956635},{"NoteNumber":63,"Velocity":68,"Duration":225489,"SoundDuration":225489,"Delta":3970836},{"NoteNumber":69,"Velocity":71,"Duration":225330,"SoundDuration":225330,"Delta":3984998},{"NoteNumber":37,"Velocity":47,"Duration":222387,"SoundDuration":222387,"Delta":4335888},{"NoteNumber":43,"Velocity":49,"Duration":222387,"SoundDuration":222387,"Delta":4349787},{"NoteNumber":46,"Velocity":51,"Duration":222387,"SoundDuration":222387,"Delta":4363686},{"NoteNumber":52,"Velocity":53,"Duration":222386,"SoundDuration":222386,"Delta":4377585},{"NoteNumber":55,"Velocity":65,"Duration":222386,"SoundDuration":222386,"Delta":4391484},{"NoteNumber":61,"Velocity":67,"Duration":222387,"SoundDuration":222387,"Delta":4405384},{"NoteNumber":64,"Velocity":69,"Duration":222387,"SoundDuration":222387,"Delta":4419283},{"NoteNumber":70,"Velocity":71,"Duration":222387,"SoundDuration":222387,"Delta":4433182},{"NoteNumber":38,"Velocity":49,"Duration":222387,"SoundDuration":222387,"Delta":4794561},{"NoteNumber":44,"Velocity":51,"Duration":222386,"SoundDuration":222386,"Delta":4808460},{"NoteNumber":47,"Velocity":54,"Duration":222386,"SoundDuration":222386,"Delta":4822359},{"NoteNumber":53,"Velocity":56,"Duration":222387,"SoundDuration":222387,"Delta":4836258},{"NoteNumber":56,"Velocity":69,"Duration":222387,"SoundDuration":222387,"Delta":4850158},{"NoteNumber":59,"Velocity":73,"Duration":222387,"SoundDuration":222387,"Delta":4864057},{"NoteNumber":65,"Velocity":77,"Duration":222386,"SoundDuration":222386,"Delta":4877956},{"NoteNumber":34,"Velocity":50,"Duration":222386,"SoundDuration":222386,"Delta":5239335},{"NoteNumber":41,"Velocity":52,"Duration":222387,"SoundDuration":222387,"Delta":5253234},{"NoteNumber":44,"Velocity":54,"Duration":222387,"SoundDuration":222387,"Delta":5267133},{"NoteNumber":50,"Velocity":56,"Duration":222387,"SoundDuration":222387,"Delta":5281032},{"NoteNumber":53,"Velocity":70,"Duration":222387,"SoundDuration":222387,"Delta":5294932},{"NoteNumber":56,"Velocity":73,"Duration":222386,"SoundDuration":222386,"Delta":5308831},{"NoteNumber":62,"Velocity":76,"Duration":222387,"SoundDuration":222387,"Delta":5322730},{"NoteNumber":33,"Velocity":53,"Duration":225232,"SoundDuration":225232,"Delta":5670210},{"NoteNumber":38,"Velocity":54,"Duration":225548,"SoundDuration":225548,"Delta":5684109},{"NoteNumber":41,"Velocity":57,"Duration":225864,"SoundDuration":225864,"Delta":5698008},{"NoteNumber":45,"Velocity":59,"Duration":226180,"SoundDuration":226180,"Delta":5711907},{"NoteNumber":57,"Velocity":70,"Duration":226496,"SoundDuration":226496,"Delta":5725806},{"NoteNumber":62,"Velocity":74,"Duration":226812,"SoundDuration":226812,"Delta":5739706},{"NoteNumber":65,"Velocity":77,"Duration":227128,"SoundDuration":227128,"Delta":5753605},{"NoteNumber":69,"Velocity":78,"Duration":227445,"SoundDuration":227445,"Delta":5767504},{"NoteNumber":81,"Velocity":84,"Duration":241157,"SoundDuration":241157,"Delta":6677284},{"NoteNumber":69,"Velocity":71,"Duration":241157,"SoundDuration":241157,"Delta":6677284},{"NoteNumber":77,"Velocity":71,"Duration":241157,"SoundDuration":241157,"Delta":6677284},{"NoteNumber":74,"Velocity":71,"Duration":241157,"SoundDuration":241157,"Delta":6677284},{"NoteNumber":45,"Velocity":53,"Duration":241157,"SoundDuration":241157,"Delta":6677284},{"NoteNumber":50,"Velocity":53,"Duration":241157,"SoundDuration":241157,"Delta":6677284},{"NoteNumber":57,"Velocity":63,"Duration":241157,"SoundDuration":241157,"Delta":6677284},{"NoteNumber":53,"Velocity":53,"Duration":241157,"SoundDuration":241157,"Delta":6677284},{"NoteNumber":79,"Velocity":71,"Duration":240192,"SoundDuration":240192,"Delta":7641914},{"NoteNumber":93,"Velocity":84,"Duration":240192,"SoundDuration":240192,"Delta":7641914},{"NoteNumber":85,"Velocity":71,"Duration":240192,"SoundDuration":240192,"Delta":7641914},{"NoteNumber":88,"Velocity":71,"Duration":240192,"SoundDuration":240192,"Delta":7641914},{"NoteNumber":81,"Velocity":71,"Duration":240192,"SoundDuration":240192,"Delta":7641914},{"NoteNumber":61,"Velocity":53,"Duration":240192,"SoundDuration":240192,"Delta":7641914},{"NoteNumber":69,"Velocity":63,"Duration":240192,"SoundDuration":240192,"Delta":7641914},{"NoteNumber":57,"Velocity":53,"Duration":240192,"SoundDuration":240192,"Delta":7641914},{"NoteNumber":64,"Velocity":53,"Duration":240192,"SoundDuration":240192,"Delta":7641914},{"NoteNumber":45,"Velocity":39,"Duration":167211,"SoundDuration":167211,"Delta":9688035},{"NoteNumber":33,"Velocity":29,"Duration":167211,"SoundDuration":167211,"Delta":9690822},{"NoteNumber":46,"Velocity":42,"Duration":171987,"SoundDuration":171987,"Delta":9799509},{"NoteNumber":34,"Velocity":31,"Duration":172146,"SoundDuration":172146,"Delta":9801367},{"NoteNumber":49,"Velocity":43,"Duration":178186,"SoundDuration":178186,"Delta":9910984},{"NoteNumber":37,"Velocity":32,"Duration":178074,"SoundDuration":178074,"Delta":9913001},{"NoteNumber":41,"Velocity":34,"Duration":137240,"SoundDuration":137240,"Delta":10031001},{"NoteNumber":53,"Velocity":46,"Duration":137184,"SoundDuration":137184,"Delta":10032010},{"NoteNumber":52,"Velocity":45,"Duration":137184,"SoundDuration":137184,"Delta":10123466},{"NoteNumber":40,"Velocity":34,"Duration":137184,"SoundDuration":137184,"Delta":10124419},{"NoteNumber":50,"Velocity":44,"Duration":137184,"SoundDuration":137184,"Delta":10214923},{"NoteNumber":38,"Velocity":33,"Duration":137184,"SoundDuration":137184,"Delta":10214923},{"NoteNumber":37,"Velocity":32,"Duration":137184,"SoundDuration":137184,"Delta":10304474},{"NoteNumber":49,"Velocity":43,"Duration":137184,"SoundDuration":137184,"Delta":10306379},{"NoteNumber":34,"Velocity":30,"Duration":144350,"SoundDuration":144350,"Delta":10395930},{"NoteNumber":46,"Velocity":41,"Duration":144661,"SoundDuration":144661,"Delta":10397836},{"NoteNumber":45,"Velocity":43,"Duration":134122,"SoundDuration":134122,"Delta":10489292},{"NoteNumber":33,"Velocity":32,"Duration":134122,"SoundDuration":134122,"Delta":10492617},{"NoteNumber":34,"Velocity":32,"Duration":133014,"SoundDuration":133014,"Delta":10576860},{"NoteNumber":46,"Velocity":43,"Duration":133014,"SoundDuration":133014,"Delta":10577968},{"NoteNumber":37,"Velocity":32,"Duration":133013,"SoundDuration":133013,"Delta":10664427},{"NoteNumber":49,"Velocity":44,"Duration":133013,"SoundDuration":133013,"Delta":10666644},{"NoteNumber":38,"Velocity":34,"Duration":133013,"SoundDuration":133013,"Delta":10755320},{"NoteNumber":50,"Velocity":45,"Duration":133013,"SoundDuration":133013,"Delta":10755320},{"NoteNumber":40,"Velocity":35,"Duration":141699,"SoundDuration":141699,"Delta":10843996},{"NoteNumber":52,"Velocity":47,"Duration":141699,"SoundDuration":141699,"Delta":10843996},{"NoteNumber":41,"Velocity":36,"Duration":142126,"SoundDuration":142126,"Delta":10934581},{"NoteNumber":53,"Velocity":48,"Duration":141920,"SoundDuration":141920,"Delta":10937015},{"NoteNumber":58,"Velocity":50,"Duration":133677,"SoundDuration":133677,"Delta":11034376},{"NoteNumber":46,"Velocity":37,"Duration":133677,"SoundDuration":133677,"Delta":11035490},{"NoteNumber":57,"Velocity":49,"Duration":133678,"SoundDuration":133678,"Delta":11123495},{"NoteNumber":45,"Velocity":36,"Duration":133677,"SoundDuration":133677,"Delta":11124609},{"NoteNumber":55,"Velocity":48,"Duration":133677,"SoundDuration":133677,"Delta":11212614},{"NoteNumber":43,"Velocity":36,"Duration":133677,"SoundDuration":133677,"Delta":11213728},{"NoteNumber":53,"Velocity":47,"Duration":133677,"SoundDuration":133677,"Delta":11301732},{"NoteNumber":41,"Velocity":34,"Duration":133678,"SoundDuration":133678,"Delta":11303960},{"NoteNumber":52,"Velocity":45,"Duration":133677,"SoundDuration":133677,"Delta":11390851},{"NoteNumber":40,"Velocity":34,"Duration":133677,"SoundDuration":133677,"Delta":11393079},{"NoteNumber":50,"Velocity":44,"Duration":138559,"SoundDuration":138559,"Delta":11479970},{"NoteNumber":38,"Velocity":32,"Duration":138629,"SoundDuration":138629,"Delta":11481084},{"NoteNumber":49,"Velocity":45,"Duration":106694,"SoundDuration":106694,"Delta":11570919},{"NoteNumber":37,"Velocity":33,"Duration":106656,"SoundDuration":106656,"Delta":11574489},{"NoteNumber":50,"Velocity":44,"Duration":105980,"SoundDuration":105980,"Delta":11642207},{"NoteNumber":38,"Velocity":33,"Duration":105955,"SoundDuration":105955,"Delta":11644575},{"NoteNumber":40,"Velocity":33,"Duration":105254,"SoundDuration":105254,"Delta":11710588},{"NoteNumber":52,"Velocity":45,"Duration":105218,"SoundDuration":105218,"Delta":11712944},{"NoteNumber":53,"Velocity":46,"Duration":104433,"SoundDuration":104433,"Delta":11783260},{"NoteNumber":41,"Velocity":34,"Duration":104409,"SoundDuration":104409,"Delta":11785590},{"NoteNumber":43,"Velocity":35,"Duration":103777,"SoundDuration":103777,"Delta":11850627},{"NoteNumber":55,"Velocity":48,"Duration":103753,"SoundDuration":103753,"Delta":11852945},{"NoteNumber":45,"Velocity":35,"Duration":103107,"SoundDuration":103107,"Delta":11921125},{"NoteNumber":57,"Velocity":48,"Duration":103101,"SoundDuration":103101,"Delta":11922273},{"NoteNumber":58,"Velocity":49,"Duration":102262,"SoundDuration":102262,"Delta":11991124},{"NoteNumber":46,"Velocity":36,"Duration":102239,"SoundDuration":102239,"Delta":11993408},{"NoteNumber":61,"Velocity":49,"Duration":96654,"SoundDuration":96654,"Delta":12059461},{"NoteNumber":49,"Velocity":37,"Duration":96479,"SoundDuration":96479,"Delta":12060597},{"NoteNumber":65,"Velocity":51,"Duration":138365,"SoundDuration":138365,"Delta":12127290},{"NoteNumber":53,"Velocity":38,"Duration":138365,"SoundDuration":138365,"Delta":12129212},{"NoteNumber":52,"Velocity":37,"Duration":138365,"SoundDuration":138365,"Delta":12217612},{"NoteNumber":64,"Velocity":51,"Duration":138365,"SoundDuration":138365,"Delta":12219534},{"NoteNumber":50,"Velocity":37,"Duration":138365,"SoundDuration":138365,"Delta":12310817},{"NoteNumber":62,"Velocity":50,"Duration":138365,"SoundDuration":138365,"Delta":12311777},{"NoteNumber":61,"Velocity":50,"Duration":138365,"SoundDuration":138365,"Delta":12404021},{"NoteNumber":49,"Velocity":37,"Duration":138365,"SoundDuration":138365,"Delta":12405943},{"NoteNumber":58,"Velocity":50,"Duration":145449,"SoundDuration":145449,"Delta":12496265},{"NoteNumber":46,"Velocity":37,"Duration":145892,"SoundDuration":145892,"Delta":12499148},{"NoteNumber":45,"Velocity":38,"Duration":133013,"SoundDuration":133013,"Delta":12588509},{"NoteNumber":57,"Velocity":50,"Duration":133013,"SoundDuration":133013,"Delta":12588509},{"NoteNumber":58,"Velocity":51,"Duration":133014,"SoundDuration":133014,"Delta":12677185},{"NoteNumber":46,"Velocity":39,"Duration":133013,"SoundDuration":133013,"Delta":12679402},{"NoteNumber":61,"Velocity":52,"Duration":133013,"SoundDuration":133013,"Delta":12765861},{"NoteNumber":49,"Velocity":40,"Duration":133014,"SoundDuration":133014,"Delta":12766969},{"NoteNumber":50,"Velocity":41,"Duration":133013,"SoundDuration":133013,"Delta":12852320},{"NoteNumber":62,"Velocity":53,"Duration":133013,"SoundDuration":133013,"Delta":12854537},{"NoteNumber":64,"Velocity":54,"Duration":136207,"SoundDuration":136207,"Delta":12943213},{"NoteNumber":52,"Velocity":41,"Duration":136207,"SoundDuration":136207,"Delta":12943213},{"NoteNumber":65,"Velocity":56,"Duration":136207,"SoundDuration":136207,"Delta":13033486},{"NoteNumber":53,"Velocity":42,"Duration":136127,"SoundDuration":136127,"Delta":13035782},{"NoteNumber":58,"Velocity":43,"Duration":133093,"SoundDuration":133093,"Delta":13123058},{"NoteNumber":70,"Velocity":57,"Duration":133013,"SoundDuration":133013,"Delta":13125355},{"NoteNumber":69,"Velocity":57,"Duration":133014,"SoundDuration":133014,"Delta":13214031},{"NoteNumber":57,"Velocity":43,"Duration":133014,"SoundDuration":133014,"Delta":13215140},{"NoteNumber":67,"Velocity":56,"Duration":133013,"SoundDuration":133013,"Delta":13302707},{"NoteNumber":55,"Velocity":43,"Duration":133014,"SoundDuration":133014,"Delta":13304924},{"NoteNumber":53,"Velocity":42,"Duration":133013,"SoundDuration":133013,"Delta":13389166},{"NoteNumber":65,"Velocity":54,"Duration":133013,"SoundDuration":133013,"Delta":13391383},{"NoteNumber":64,"Velocity":53,"Duration":133013,"SoundDuration":133013,"Delta":13480059},{"NoteNumber":52,"Velocity":42,"Duration":133013,"SoundDuration":133013,"Delta":13483384},{"NoteNumber":62,"Velocity":52,"Duration":141635,"SoundDuration":141635,"Delta":13568735},{"NoteNumber":50,"Velocity":40,"Duration":142019,"SoundDuration":142019,"Delta":13572060},{"NoteNumber":61,"Velocity":53,"Duration":111540,"SoundDuration":111540,"Delta":13660644},{"NoteNumber":49,"Velocity":40,"Duration":111526,"SoundDuration":111526,"Delta":13663131},{"NoteNumber":62,"Velocity":54,"Duration":110857,"SoundDuration":110857,"Delta":13735096},{"NoteNumber":50,"Velocity":40,"Duration":110816,"SoundDuration":110816,"Delta":13738805},{"NoteNumber":52,"Velocity":41,"Duration":110114,"SoundDuration":110114,"Delta":13806705},{"NoteNumber":64,"Velocity":56,"Duration":110088,"SoundDuration":110088,"Delta":13809164},{"NoteNumber":65,"Velocity":56,"Duration":110092,"SoundDuration":110092,"Delta":13882636},{"NoteNumber":53,"Velocity":42,"Duration":110112,"SoundDuration":110112,"Delta":13886304},{"NoteNumber":55,"Velocity":43,"Duration":110652,"SoundDuration":110652,"Delta":13953385},{"NoteNumber":67,"Velocity":57,"Duration":110652,"SoundDuration":110652,"Delta":13955844},{"NoteNumber":57,"Velocity":43,"Duration":110532,"SoundDuration":110532,"Delta":14027153},{"NoteNumber":69,"Velocity":57,"Duration":110559,"SoundDuration":110559,"Delta":14029612},{"NoteNumber":70,"Velocity":59,"Duration":115437,"SoundDuration":115437,"Delta":14103259},{"NoteNumber":58,"Velocity":43,"Duration":115562,"SoundDuration":115562,"Delta":14104482},{"NoteNumber":73,"Velocity":60,"Duration":108896,"SoundDuration":108896,"Delta":14178630},{"NoteNumber":61,"Velocity":44,"Duration":108136,"SoundDuration":108136,"Delta":14181248},{"NoteNumber":65,"Velocity":45,"Duration":134213,"SoundDuration":134213,"Delta":14258285},{"NoteNumber":77,"Velocity":61,"Duration":133769,"SoundDuration":133769,"Delta":14259658},{"NoteNumber":64,"Velocity":45,"Duration":133769,"SoundDuration":133769,"Delta":14346980},{"NoteNumber":76,"Velocity":61,"Duration":133769,"SoundDuration":133769,"Delta":14348838},{"NoteNumber":74,"Velocity":60,"Duration":133769,"SoundDuration":133769,"Delta":14438017},{"NoteNumber":62,"Velocity":45,"Duration":133769,"SoundDuration":133769,"Delta":14440804},{"NoteNumber":73,"Velocity":59,"Duration":133769,"SoundDuration":133769,"Delta":14527197},{"NoteNumber":61,"Velocity":44,"Duration":133769,"SoundDuration":133769,"Delta":14528126},{"NoteNumber":70,"Velocity":58,"Duration":142385,"SoundDuration":142385,"Delta":14616376},{"NoteNumber":58,"Velocity":44,"Duration":142744,"SoundDuration":142744,"Delta":14618234},{"NoteNumber":69,"Velocity":58,"Duration":133013,"SoundDuration":133013,"Delta":14705556},{"NoteNumber":57,"Velocity":44,"Duration":133013,"SoundDuration":133013,"Delta":14707773},{"NoteNumber":70,"Velocity":58,"Duration":133014,"SoundDuration":133014,"Delta":14794232},{"NoteNumber":58,"Velocity":44,"Duration":133013,"SoundDuration":133013,"Delta":14796449},{"NoteNumber":61,"Velocity":46,"Duration":133013,"SoundDuration":133013,"Delta":14881800},{"NoteNumber":73,"Velocity":60,"Duration":133013,"SoundDuration":133013,"Delta":14882908},{"NoteNumber":74,"Velocity":61,"Duration":133013,"SoundDuration":133013,"Delta":14971584},{"NoteNumber":62,"Velocity":47,"Duration":133013,"SoundDuration":133013,"Delta":14971584},{"NoteNumber":76,"Velocity":62,"Duration":133013,"SoundDuration":133013,"Delta":15060260},{"NoteNumber":64,"Velocity":48,"Duration":133013,"SoundDuration":133013,"Delta":15063585},{"NoteNumber":77,"Velocity":63,"Duration":133014,"SoundDuration":133014,"Delta":15148936},{"NoteNumber":65,"Velocity":48,"Duration":133014,"SoundDuration":133014,"Delta":15148936},{"NoteNumber":70,"Velocity":48,"Duration":133013,"SoundDuration":133013,"Delta":15236504},{"NoteNumber":82,"Velocity":63,"Duration":133013,"SoundDuration":133013,"Delta":15237612},{"NoteNumber":69,"Velocity":47,"Duration":133013,"SoundDuration":133013,"Delta":15326288},{"NoteNumber":81,"Velocity":63,"Duration":133013,"SoundDuration":133013,"Delta":15326288},{"NoteNumber":79,"Velocity":62,"Duration":133013,"SoundDuration":133013,"Delta":15414964},{"NoteNumber":67,"Velocity":46,"Duration":133013,"SoundDuration":133013,"Delta":15417181},{"NoteNumber":77,"Velocity":61,"Duration":133014,"SoundDuration":133014,"Delta":15503640},{"NoteNumber":65,"Velocity":46,"Duration":133013,"SoundDuration":133013,"Delta":15506965},{"NoteNumber":76,"Velocity":60,"Duration":133013,"SoundDuration":133013,"Delta":15592316},{"NoteNumber":64,"Velocity":44,"Duration":133014,"SoundDuration":133014,"Delta":15594533},{"NoteNumber":62,"Velocity":43,"Duration":147611,"SoundDuration":147611,"Delta":15679884},{"NoteNumber":74,"Velocity":59,"Duration":147834,"SoundDuration":147834,"Delta":15680992},{"NoteNumber":73,"Velocity":58,"Duration":118771,"SoundDuration":118771,"Delta":15775417},{"NoteNumber":61,"Velocity":43,"Duration":118771,"SoundDuration":118771,"Delta":15775417},{"NoteNumber":74,"Velocity":58,"Duration":115753,"SoundDuration":115753,"Delta":15855154},{"NoteNumber":62,"Velocity":44,"Duration":115678,"SoundDuration":115678,"Delta":15857786},{"NoteNumber":64,"Velocity":45,"Duration":115034,"SoundDuration":115034,"Delta":15929991},{"NoteNumber":76,"Velocity":59,"Duration":115020,"SoundDuration":115020,"Delta":15932548},{"NoteNumber":65,"Velocity":46,"Duration":114598,"SoundDuration":114598,"Delta":16007988},{"NoteNumber":77,"Velocity":60,"Duration":114591,"SoundDuration":114591,"Delta":16009267},{"NoteNumber":67,"Velocity":47,"Duration":114232,"SoundDuration":114232,"Delta":16085713},{"NoteNumber":79,"Velocity":62,"Duration":114232,"SoundDuration":114232,"Delta":16085713},{"NoteNumber":69,"Velocity":48,"Duration":113814,"SoundDuration":113814,"Delta":16159460},{"NoteNumber":81,"Velocity":63,"Duration":113800,"SoundDuration":113800,"Delta":16162003},{"NoteNumber":82,"Velocity":64,"Duration":117303,"SoundDuration":117303,"Delta":16237874},{"NoteNumber":70,"Velocity":49,"Duration":117380,"SoundDuration":117380,"Delta":16239138},{"NoteNumber":73,"Velocity":51,"Duration":108218,"SoundDuration":108218,"Delta":16315107},{"NoteNumber":85,"Velocity":65,"Duration":108218,"SoundDuration":108218,"Delta":16315107},{"NoteNumber":89,"Velocity":66,"Duration":133214,"SoundDuration":133214,"Delta":16395572},{"NoteNumber":77,"Velocity":52,"Duration":133214,"SoundDuration":133214,"Delta":16396497},{"NoteNumber":88,"Velocity":66,"Duration":133214,"SoundDuration":133214,"Delta":16484382},{"NoteNumber":76,"Velocity":52,"Duration":133214,"SoundDuration":133214,"Delta":16485307},{"NoteNumber":74,"Velocity":50,"Duration":133214,"SoundDuration":133214,"Delta":16572267},{"NoteNumber":86,"Velocity":65,"Duration":133214,"SoundDuration":133214,"Delta":16573192},{"NoteNumber":73,"Velocity":51,"Duration":133214,"SoundDuration":133214,"Delta":16662002},{"NoteNumber":85,"Velocity":65,"Duration":133214,"SoundDuration":133214,"Delta":16662002},{"NoteNumber":70,"Velocity":49,"Duration":133214,"SoundDuration":133214,"Delta":16749887},{"NoteNumber":82,"Velocity":64,"Duration":133214,"SoundDuration":133214,"Delta":16750812},{"NoteNumber":81,"Velocity":65,"Duration":133214,"SoundDuration":133214,"Delta":16839622},{"NoteNumber":69,"Velocity":48,"Duration":133214,"SoundDuration":133214,"Delta":16840547},{"NoteNumber":82,"Velocity":68,"Duration":133214,"SoundDuration":133214,"Delta":16928432},{"NoteNumber":70,"Velocity":50,"Duration":133214,"SoundDuration":133214,"Delta":16929357},{"NoteNumber":73,"Velocity":51,"Duration":133214,"SoundDuration":133214,"Delta":17017242},{"NoteNumber":85,"Velocity":70,"Duration":133214,"SoundDuration":133214,"Delta":17017242},{"NoteNumber":86,"Velocity":71,"Duration":133214,"SoundDuration":133214,"Delta":17106052},{"NoteNumber":74,"Velocity":53,"Duration":133214,"SoundDuration":133214,"Delta":17108827},{"NoteNumber":76,"Velocity":54,"Duration":133214,"SoundDuration":133214,"Delta":17193937},{"NoteNumber":88,"Velocity":72,"Duration":133214,"SoundDuration":133214,"Delta":17194862},{"NoteNumber":89,"Velocity":74,"Duration":133214,"SoundDuration":133214,"Delta":17283672},{"NoteNumber":77,"Velocity":55,"Duration":133214,"SoundDuration":133214,"Delta":17285522},{"NoteNumber":79,"Velocity":56,"Duration":133214,"SoundDuration":133214,"Delta":17371557},{"NoteNumber":91,"Velocity":76,"Duration":133214,"SoundDuration":133214,"Delta":17372482},{"NoteNumber":93,"Velocity":78,"Duration":133214,"SoundDuration":133214,"Delta":17461292},{"NoteNumber":81,"Velocity":58,"Duration":133214,"SoundDuration":133214,"Delta":17463142},{"NoteNumber":94,"Velocity":80,"Duration":133214,"SoundDuration":133214,"Delta":17550102},{"NoteNumber":82,"Velocity":59,"Duration":133214,"SoundDuration":133214,"Delta":17551952},{"NoteNumber":85,"Velocity":60,"Duration":169380,"SoundDuration":169380,"Delta":17637062},{"NoteNumber":97,"Velocity":81,"Duration":170309,"SoundDuration":170309,"Delta":17638912},{"NoteNumber":89,"Velocity":63,"Duration":83379,"SoundDuration":83379,"Delta":17739739},{"NoteNumber":101,"Velocity":85,"Duration":83379,"SoundDuration":83379,"Delta":17742518},{"NoteNumber":88,"Velocity":63,"Duration":83379,"SoundDuration":83379,"Delta":17821728},{"NoteNumber":100,"Velocity":85,"Duration":83379,"SoundDuration":83379,"Delta":17825897},{"NoteNumber":98,"Velocity":84,"Duration":83379,"SoundDuration":83379,"Delta":17909277},{"NoteNumber":86,"Velocity":63,"Duration":83379,"SoundDuration":83379,"Delta":17910667},{"NoteNumber":85,"Velocity":63,"Duration":83379,"SoundDuration":83379,"Delta":17988488},{"NoteNumber":97,"Velocity":84,"Duration":83379,"SoundDuration":83379,"Delta":17992657},{"NoteNumber":82,"Velocity":62,"Duration":87344,"SoundDuration":87344,"Delta":18076036},{"NoteNumber":94,"Velocity":83,"Duration":87344,"SoundDuration":87344,"Delta":18076036},{"NoteNumber":81,"Velocity":62,"Duration":91475,"SoundDuration":91475,"Delta":18155716},{"NoteNumber":93,"Velocity":83,"Duration":91386,"SoundDuration":91386,"Delta":18163380},{"NoteNumber":91,"Velocity":83,"Duration":90101,"SoundDuration":90101,"Delta":18254767},{"NoteNumber":79,"Velocity":62,"Duration":90071,"SoundDuration":90071,"Delta":18256282},{"NoteNumber":89,"Velocity":82,"Duration":88766,"SoundDuration":88766,"Delta":18344868},{"NoteNumber":77,"Velocity":61,"Duration":88738,"SoundDuration":88738,"Delta":18347840},{"NoteNumber":76,"Velocity":61,"Duration":87652,"SoundDuration":87652,"Delta":18427748},{"NoteNumber":88,"Velocity":82,"Duration":87549,"SoundDuration":87549,"Delta":18433635},{"NoteNumber":86,"Velocity":81,"Duration":86284,"SoundDuration":86284,"Delta":18521184},{"NoteNumber":74,"Velocity":60,"Duration":86216,"SoundDuration":86216,"Delta":18528406},{"NoteNumber":73,"Velocity":60,"Duration":85005,"SoundDuration":85005,"Delta":18606038},{"NoteNumber":85,"Velocity":81,"Duration":84979,"SoundDuration":84979,"Delta":18607469},{"NoteNumber":70,"Velocity":60,"Duration":83995,"SoundDuration":83995,"Delta":18686823},{"NoteNumber":82,"Velocity":80,"Duration":83938,"SoundDuration":83938,"Delta":18692448},{"NoteNumber":81,"Velocity":80,"Duration":82698,"SoundDuration":82698,"Delta":18776386},{"NoteNumber":69,"Velocity":60,"Duration":82575,"SoundDuration":82575,"Delta":18783346},{"NoteNumber":79,"Velocity":80,"Duration":81715,"SoundDuration":81715,"Delta":18859085},{"NoteNumber":67,"Velocity":60,"Duration":81667,"SoundDuration":81667,"Delta":18864554},{"NoteNumber":77,"Velocity":79,"Duration":80543,"SoundDuration":80543,"Delta":18940801},{"NoteNumber":65,"Velocity":59,"Duration":80450,"SoundDuration":80450,"Delta":18946222},{"NoteNumber":64,"Velocity":59,"Duration":79522,"SoundDuration":79522,"Delta":19021344},{"NoteNumber":76,"Velocity":79,"Duration":79522,"SoundDuration":79522,"Delta":19021344},{"NoteNumber":74,"Velocity":79,"Duration":78872,"SoundDuration":78872,"Delta":19100867},{"NoteNumber":62,"Velocity":59,"Duration":78861,"SoundDuration":78861,"Delta":19103497},{"NoteNumber":73,"Velocity":79,"Duration":78558,"SoundDuration":78558,"Delta":19179740},{"NoteNumber":61,"Velocity":59,"Duration":78558,"SoundDuration":78558,"Delta":19183668},{"NoteNumber":70,"Velocity":78,"Duration":78280,"SoundDuration":78280,"Delta":19258299},{"NoteNumber":58,"Velocity":58,"Duration":78274,"SoundDuration":78274,"Delta":19259608},{"NoteNumber":69,"Velocity":78,"Duration":78019,"SoundDuration":78019,"Delta":19336579},{"NoteNumber":57,"Velocity":58,"Duration":78003,"SoundDuration":78003,"Delta":19340490},{"NoteNumber":55,"Velocity":58,"Duration":77905,"SoundDuration":77905,"Delta":19409405},{"NoteNumber":67,"Velocity":78,"Duration":77888,"SoundDuration":77888,"Delta":19414598},{"NoteNumber":65,"Velocity":77,"Duration":77567,"SoundDuration":77567,"Delta":19492487},{"NoteNumber":53,"Velocity":58,"Duration":77567,"SoundDuration":77567,"Delta":19497659},{"NoteNumber":64,"Velocity":77,"Duration":77295,"SoundDuration":77295,"Delta":19570055},{"NoteNumber":52,"Velocity":58,"Duration":77274,"SoundDuration":77274,"Delta":19575226},{"NoteNumber":50,"Velocity":57,"Duration":77057,"SoundDuration":77057,"Delta":19643488},{"NoteNumber":62,"Velocity":77,"Duration":77041,"SoundDuration":77041,"Delta":19647351},{"NoteNumber":49,"Velocity":58,"Duration":76925,"SoundDuration":76925,"Delta":19721828},{"NoteNumber":61,"Velocity":78,"Duration":76914,"SoundDuration":76914,"Delta":19724393},{"NoteNumber":46,"Velocity":58,"Duration":76608,"SoundDuration":76608,"Delta":19801308},{"NoteNumber":58,"Velocity":78,"Duration":76608,"SoundDuration":76608,"Delta":19801308},{"NoteNumber":45,"Velocity":58,"Duration":76348,"SoundDuration":76348,"Delta":19876639},{"NoteNumber":57,"Velocity":79,"Duration":76343,"SoundDuration":76343,"Delta":19877916},{"NoteNumber":43,"Velocity":59,"Duration":76096,"SoundDuration":76096,"Delta":19952988},{"NoteNumber":55,"Velocity":80,"Duration":76091,"SoundDuration":76091,"Delta":19954260},{"NoteNumber":53,"Velocity":81,"Duration":75964,"SoundDuration":75964,"Delta":20030351},{"NoteNumber":41,"Velocity":60,"Duration":75953,"SoundDuration":75953,"Delta":20032884},{"NoteNumber":40,"Velocity":61,"Duration":75665,"SoundDuration":75665,"Delta":20102532},{"NoteNumber":52,"Velocity":82,"Duration":75665,"SoundDuration":75665,"Delta":20106316},{"NoteNumber":38,"Velocity":61,"Duration":75432,"SoundDuration":75432,"Delta":20175676},{"NoteNumber":50,"Velocity":82,"Duration":75407,"SoundDuration":75407,"Delta":20181981},{"NoteNumber":49,"Velocity":82,"Duration":75165,"SoundDuration":75165,"Delta":20257389},{"NoteNumber":37,"Velocity":62,"Duration":75155,"SoundDuration":75155,"Delta":20259901},{"NoteNumber":34,"Velocity":63,"Duration":60048,"SoundDuration":60048,"Delta":20327550},{"NoteNumber":46,"Velocity":80,"Duration":60048,"SoundDuration":60048,"Delta":20332554},{"NoteNumber":45,"Velocity":80,"Duration":59853,"SoundDuration":59853,"Delta":20392602},{"NoteNumber":33,"Velocity":63,"Duration":238702,"SoundDuration":238702,"Delta":20392602},{"NoteNumber":43,"Velocity":82,"Duration":59730,"SoundDuration":59730,"Delta":20452456},{"NoteNumber":41,"Velocity":83,"Duration":59559,"SoundDuration":59559,"Delta":20512187},{"NoteNumber":40,"Velocity":84,"Duration":59559,"SoundDuration":59559,"Delta":20571746},{"NoteNumber":86,"Velocity":97,"Duration":985500,"SoundDuration":985500,"Delta":20631305},{"NoteNumber":77,"Velocity":76,"Duration":985500,"SoundDuration":985500,"Delta":20631305},{"NoteNumber":74,"Velocity":76,"Duration":985500,"SoundDuration":985500,"Delta":20631305},{"NoteNumber":50,"Velocity":74,"Duration":985500,"SoundDuration":985500,"Delta":20631305},{"NoteNumber":45,"Velocity":59,"Duration":985500,"SoundDuration":985500,"Delta":20631305},{"NoteNumber":38,"Velocity":59,"Duration":985500,"SoundDuration":985500,"Delta":20631305},{"NoteNumber":52,"Velocity":48,"Duration":118017,"SoundDuration":118017,"Delta":20916824},{"NoteNumber":56,"Velocity":60,"Duration":118017,"SoundDuration":118017,"Delta":20916824},{"NoteNumber":57,"Velocity":63,"Duration":117463,"SoundDuration":117463,"Delta":21034841},{"NoteNumber":53,"Velocity":50,"Duration":117463,"SoundDuration":117463,"Delta":21034841},{"NoteNumber":64,"Velocity":65,"Duration":116913,"SoundDuration":116913,"Delta":21152305},{"NoteNumber":61,"Velocity":51,"Duration":116913,"SoundDuration":116913,"Delta":21152305},{"NoteNumber":62,"Velocity":54,"Duration":116459,"SoundDuration":116459,"Delta":21269218},{"NoteNumber":65,"Velocity":67,"Duration":116459,"SoundDuration":116459,"Delta":21269218},{"NoteNumber":64,"Velocity":55,"Duration":115830,"SoundDuration":115830,"Delta":21385678},{"NoteNumber":68,"Velocity":69,"Duration":115830,"SoundDuration":115830,"Delta":21385678},{"NoteNumber":65,"Velocity":56,"Duration":115296,"SoundDuration":115296,"Delta":21501509},{"NoteNumber":69,"Velocity":71,"Duration":115296,"SoundDuration":115296,"Delta":21501509},{"NoteNumber":77,"Velocity":79,"Duration":476882,"SoundDuration":476882,"Delta":21616805},{"NoteNumber":74,"Velocity":75,"Duration":476882,"SoundDuration":476882,"Delta":21616805},{"NoteNumber":86,"Velocity":101,"Duration":476882,"SoundDuration":476882,"Delta":21616805},{"NoteNumber":45,"Velocity":62,"Duration":476882,"SoundDuration":476882,"Delta":21616805},{"NoteNumber":50,"Velocity":78,"Duration":476882,"SoundDuration":476882,"Delta":21616805},{"NoteNumber":38,"Velocity":62,"Duration":476882,"SoundDuration":476882,"Delta":21616805},{"NoteNumber":52,"Velocity":48,"Duration":119048,"SoundDuration":119048,"Delta":21856806},{"NoteNumber":56,"Velocity":60,"Duration":119048,"SoundDuration":119048,"Delta":21856806},{"NoteNumber":53,"Velocity":50,"Duration":117832,"SoundDuration":117832,"Delta":21975854},{"NoteNumber":57,"Velocity":63,"Duration":117832,"SoundDuration":117832,"Delta":21975854},{"NoteNumber":61,"Velocity":51,"Duration":116914,"SoundDuration":116914,"Delta":22093687},{"NoteNumber":64,"Velocity":65,"Duration":116914,"SoundDuration":116914,"Delta":22093687},{"NoteNumber":62,"Velocity":54,"Duration":115831,"SoundDuration":115831,"Delta":22210602},{"NoteNumber":65,"Velocity":67,"Duration":115831,"SoundDuration":115831,"Delta":22210602},{"NoteNumber":64,"Velocity":69,"Duration":142993,"SoundDuration":142993,"Delta":22326433},{"NoteNumber":68,"Velocity":69,"Duration":142993,"SoundDuration":142993,"Delta":22326433},{"NoteNumber":65,"Velocity":56,"Duration":142993,"SoundDuration":142993,"Delta":22469426},{"NoteNumber":69,"Velocity":71,"Duration":142993,"SoundDuration":142993,"Delta":22469426},{"NoteNumber":84,"Velocity":89,"Duration":71496,"SoundDuration":71496,"Delta":22540923},{"NoteNumber":72,"Velocity":70,"Duration":71496,"SoundDuration":71496,"Delta":22540923},{"NoteNumber":70,"Velocity":75,"Duration":940188,"SoundDuration":940188,"Delta":22612419},{"NoteNumber":76,"Velocity":77,"Duration":940188,"SoundDuration":940188,"Delta":22612419},{"NoteNumber":82,"Velocity":100,"Duration":940188,"SoundDuration":940188,"Delta":22612419},{"NoteNumber":50,"Velocity":79,"Duration":940188,"SoundDuration":940188,"Delta":22612419},{"NoteNumber":38,"Velocity":63,"Duration":940188,"SoundDuration":940188,"Delta":22612419},{"NoteNumber":43,"Velocity":63,"Duration":940188,"SoundDuration":940188,"Delta":22612419},{"NoteNumber":54,"Velocity":48,"Duration":118017,"SoundDuration":118017,"Delta":22852627},{"NoteNumber":57,"Velocity":60,"Duration":118017,"SoundDuration":118017,"Delta":22852627},{"NoteNumber":58,"Velocity":63,"Duration":117463,"SoundDuration":117463,"Delta":22970645},{"NoteNumber":55,"Velocity":50,"Duration":117463,"SoundDuration":117463,"Delta":22970645},{"NoteNumber":63,"Velocity":51,"Duration":116913,"SoundDuration":116913,"Delta":23088108},{"NoteNumber":66,"Velocity":65,"Duration":116913,"SoundDuration":116913,"Delta":23088108},{"NoteNumber":64,"Velocity":54,"Duration":116459,"SoundDuration":116459,"Delta":23205022},{"NoteNumber":67,"Velocity":67,"Duration":116459,"SoundDuration":116459,"Delta":23205022},{"NoteNumber":69,"Velocity":69,"Duration":115830,"SoundDuration":115830,"Delta":23321481},{"NoteNumber":66,"Velocity":55,"Duration":115830,"SoundDuration":115830,"Delta":23321481},{"NoteNumber":70,"Velocity":71,"Duration":115296,"SoundDuration":115296,"Delta":23437312},{"NoteNumber":67,"Velocity":56,"Duration":115296,"SoundDuration":115296,"Delta":23437312},{"NoteNumber":76,"Velocity":72,"Duration":476882,"SoundDuration":476882,"Delta":23552608},{"NoteNumber":82,"Velocity":92,"Duration":476882,"SoundDuration":476882,"Delta":23552608},{"NoteNumber":70,"Velocity":72,"Duration":476882,"SoundDuration":476882,"Delta":23552608},{"NoteNumber":38,"Velocity":59,"Duration":476882,"SoundDuration":476882,"Delta":23552608},{"NoteNumber":50,"Velocity":75,"Duration":476882,"SoundDuration":476882,"Delta":23552608},{"NoteNumber":43,"Velocity":59,"Duration":476882,"SoundDuration":476882,"Delta":23552608},{"NoteNumber":57,"Velocity":60,"Duration":119048,"SoundDuration":119048,"Delta":23792609},{"NoteNumber":54,"Velocity":48,"Duration":119048,"SoundDuration":119048,"Delta":23792609},{"NoteNumber":58,"Velocity":63,"Duration":117832,"SoundDuration":117832,"Delta":23911658},{"NoteNumber":55,"Velocity":50,"Duration":117832,"SoundDuration":117832,"Delta":23911658},{"NoteNumber":63,"Velocity":51,"Duration":116914,"SoundDuration":116914,"Delta":24029490},{"NoteNumber":66,"Velocity":65,"Duration":116914,"SoundDuration":116914,"Delta":24029490},{"NoteNumber":67,"Velocity":67,"Duration":115831,"SoundDuration":115831,"Delta":24146405},{"NoteNumber":64,"Velocity":54,"Duration":115831,"SoundDuration":115831,"Delta":24146405},{"NoteNumber":69,"Velocity":69,"Duration":125104,"SoundDuration":125104,"Delta":24262236},{"NoteNumber":66,"Velocity":69,"Duration":125104,"SoundDuration":125104,"Delta":24262236},{"NoteNumber":70,"Velocity":71,"Duration":70488,"SoundDuration":70488,"Delta":24387340},{"NoteNumber":67,"Velocity":56,"Duration":70488,"SoundDuration":70488,"Delta":24387340},{"NoteNumber":70,"Velocity":70,"Duration":70488,"SoundDuration":70488,"Delta":24457829},{"NoteNumber":82,"Velocity":89,"Duration":70488,"SoundDuration":70488,"Delta":24457829},{"NoteNumber":81,"Velocity":95,"Duration":476882,"SoundDuration":476882,"Delta":24528318},{"NoteNumber":76,"Velocity":75,"Duration":476882,"SoundDuration":476882,"Delta":24528318},{"NoteNumber":69,"Velocity":75,"Duration":476882,"SoundDuration":476882,"Delta":24528318},{"NoteNumber":37,"Velocity":59,"Duration":476882,"SoundDuration":476882,"Delta":24528318},{"NoteNumber":49,"Velocity":75,"Duration":476882,"SoundDuration":476882,"Delta":24528318},{"NoteNumber":51,"Velocity":48,"Duration":119048,"SoundDuration":119048,"Delta":24768318},{"NoteNumber":54,"Velocity":60,"Duration":119048,"SoundDuration":119048,"Delta":24768318},{"NoteNumber":52,"Velocity":50,"Duration":117832,"SoundDuration":117832,"Delta":24887367},{"NoteNumber":55,"Velocity":63,"Duration":117832,"SoundDuration":117832,"Delta":24887367},{"NoteNumber":60,"Velocity":51,"Duration":116914,"SoundDuration":116914,"Delta":25005200},{"NoteNumber":63,"Velocity":65,"Duration":116914,"SoundDuration":116914,"Delta":25005200},{"NoteNumber":61,"Velocity":54,"Duration":115831,"SoundDuration":115831,"Delta":25122114},{"NoteNumber":64,"Velocity":67,"Duration":115831,"SoundDuration":115831,"Delta":25122114},{"NoteNumber":66,"Velocity":69,"Duration":125104,"SoundDuration":125104,"Delta":25237946},{"NoteNumber":63,"Velocity":69,"Duration":125104,"SoundDuration":125104,"Delta":25237946},{"NoteNumber":64,"Velocity":56,"Duration":136487,"SoundDuration":136487,"Delta":25363050},{"NoteNumber":67,"Velocity":71,"Duration":136487,"SoundDuration":136487,"Delta":25363050},{"NoteNumber":69,"Velocity":70,"Duration":68243,"SoundDuration":68243,"Delta":25431294},{"NoteNumber":81,"Velocity":89,"Duration":68243,"SoundDuration":68243,"Delta":25431294},{"NoteNumber":79,"Velocity":75,"Duration":476882,"SoundDuration":476882,"Delta":25499538},{"NoteNumber":88,"Velocity":95,"Duration":476882,"SoundDuration":476882,"Delta":25499538},{"NoteNumber":76,"Velocity":75,"Duration":476882,"SoundDuration":476882,"Delta":25499538},{"NoteNumber":33,"Velocity":59,"Duration":476882,"SoundDuration":476882,"Delta":25499538},{"NoteNumber":45,"Velocity":75,"Duration":476882,"SoundDuration":476882,"Delta":25499538},{"NoteNumber":51,"Velocity":48,"Duration":119048,"SoundDuration":119048,"Delta":25739538},{"NoteNumber":54,"Velocity":60,"Duration":119048,"SoundDuration":119048,"Delta":25739538},{"NoteNumber":52,"Velocity":50,"Duration":117832,"SoundDuration":117832,"Delta":25858587},{"NoteNumber":55,"Velocity":63,"Duration":117832,"SoundDuration":117832,"Delta":25858587},{"NoteNumber":60,"Velocity":51,"Duration":116914,"SoundDuration":116914,"Delta":25976420},{"NoteNumber":63,"Velocity":65,"Duration":116914,"SoundDuration":116914,"Delta":25976420},{"NoteNumber":64,"Velocity":67,"Duration":115831,"SoundDuration":115831,"Delta":26093334},{"NoteNumber":61,"Velocity":54,"Duration":115831,"SoundDuration":115831,"Delta":26093334},{"NoteNumber":66,"Velocity":69,"Duration":124069,"SoundDuration":124069,"Delta":26209165},{"NoteNumber":63,"Velocity":69,"Duration":124069,"SoundDuration":124069,"Delta":26209165},{"NoteNumber":67,"Velocity":71,"Duration":62034,"SoundDuration":62034,"Delta":26333235},{"NoteNumber":64,"Velocity":56,"Duration":62034,"SoundDuration":62034,"Delta":26333235},{"NoteNumber":79,"Velocity":80,"Duration":62034,"SoundDuration":62034,"Delta":26395270},{"NoteNumber":67,"Velocity":62,"Duration":62034,"SoundDuration":62034,"Delta":26395270},{"NoteNumber":65,"Velocity":67,"Duration":476882,"SoundDuration":476882,"Delta":26457304},{"NoteNumber":69,"Velocity":67,"Duration":476882,"SoundDuration":476882,"Delta":26457304},{"NoteNumber":77,"Velocity":85,"Duration":476882,"SoundDuration":476882,"Delta":26457304},{"NoteNumber":50,"Velocity":75,"Duration":476882,"SoundDuration":476882,"Delta":26457304},{"NoteNumber":38,"Velocity":59,"Duration":476882,"SoundDuration":476882,"Delta":26457304},{"NoteNumber":56,"Velocity":50,"Duration":119048,"SoundDuration":119048,"Delta":26697305},{"NoteNumber":52,"Velocity":38,"Duration":119048,"SoundDuration":119048,"Delta":26697305},{"NoteNumber":53,"Velocity":41,"Duration":117832,"SoundDuration":117832,"Delta":26816354},{"NoteNumber":57,"Velocity":51,"Duration":117832,"SoundDuration":117832,"Delta":26816354},{"NoteNumber":64,"Velocity":53,"Duration":116914,"SoundDuration":116914,"Delta":26934186},{"NoteNumber":61,"Velocity":41,"Duration":116914,"SoundDuration":116914,"Delta":26934186},{"NoteNumber":62,"Velocity":43,"Duration":115831,"SoundDuration":115831,"Delta":27051101},{"NoteNumber":65,"Velocity":54,"Duration":115831,"SoundDuration":115831,"Delta":27051101},{"NoteNumber":68,"Velocity":55,"Duration":122548,"SoundDuration":122548,"Delta":27166932},{"NoteNumber":64,"Velocity":55,"Duration":122548,"SoundDuration":122548,"Delta":27166932},{"NoteNumber":69,"Velocity":56,"Duration":61274,"SoundDuration":61274,"Delta":27289481},{"NoteNumber":65,"Velocity":44,"Duration":61274,"SoundDuration":61274,"Delta":27289481},{"NoteNumber":69,"Velocity":64,"Duration":61274,"SoundDuration":61274,"Delta":27350756},{"NoteNumber":81,"Velocity":82,"Duration":61274,"SoundDuration":61274,"Delta":27350756},{"NoteNumber":62,"Velocity":70,"Duration":476882,"SoundDuration":476882,"Delta":27412030},{"NoteNumber":74,"Velocity":88,"Duration":476882,"SoundDuration":476882,"Delta":27412030},{"NoteNumber":65,"Velocity":70,"Duration":476882,"SoundDuration":476882,"Delta":27412030},{"NoteNumber":38,"Velocity":55,"Duration":476882,"SoundDuration":476882,"Delta":27412030},{"NoteNumber":45,"Velocity":55,"Duration":476882,"SoundDuration":476882,"Delta":27412030},{"NoteNumber":50,"Velocity":70,"Duration":476882,"SoundDuration":476882,"Delta":27412030},{"NoteNumber":56,"Velocity":49,"Duration":119048,"SoundDuration":119048,"Delta":27652031},{"NoteNumber":52,"Velocity":38,"Duration":119048,"SoundDuration":119048,"Delta":27652031},{"NoteNumber":57,"Velocity":50,"Duration":117832,"SoundDuration":117832,"Delta":27771079},{"NoteNumber":53,"Velocity":39,"Duration":117832,"SoundDuration":117832,"Delta":27771079},{"NoteNumber":61,"Velocity":41,"Duration":116914,"SoundDuration":116914,"Delta":27888912},{"NoteNumber":64,"Velocity":51,"Duration":116914,"SoundDuration":116914,"Delta":27888912},{"NoteNumber":65,"Velocity":52,"Duration":116009,"SoundDuration":116009,"Delta":28005827},{"NoteNumber":62,"Velocity":42,"Duration":116009,"SoundDuration":116009,"Delta":28005827},{"NoteNumber":68,"Velocity":53,"Duration":119142,"SoundDuration":119142,"Delta":28121836},{"NoteNumber":64,"Velocity":53,"Duration":119142,"SoundDuration":119142,"Delta":28121836},{"NoteNumber":69,"Velocity":54,"Duration":143678,"SoundDuration":143678,"Delta":28240979},{"NoteNumber":65,"Velocity":43,"Duration":143678,"SoundDuration":143678,"Delta":28240979},{"NoteNumber":72,"Velocity":65,"Duration":709061,"SoundDuration":709061,"Delta":28384657},{"NoteNumber":76,"Velocity":65,"Duration":709061,"SoundDuration":709061,"Delta":28384657},{"NoteNumber":84,"Velocity":83,"Duration":709061,"SoundDuration":709061,"Delta":28384657},{"NoteNumber":48,"Velocity":66,"Duration":940188,"SoundDuration":940188,"Delta":28384657},{"NoteNumber":36,"Velocity":52,"Duration":940188,"SoundDuration":940188,"Delta":28384657},{"NoteNumber":59,"Velocity":51,"Duration":118017,"SoundDuration":118017,"Delta":28624864},{"NoteNumber":54,"Velocity":40,"Duration":118017,"SoundDuration":118017,"Delta":28624864},{"NoteNumber":55,"Velocity":42,"Duration":117463,"SoundDuration":117463,"Delta":28742882},{"NoteNumber":60,"Velocity":52,"Duration":117463,"SoundDuration":117463,"Delta":28742882},{"NoteNumber":63,"Velocity":55,"Duration":116913,"SoundDuration":116913,"Delta":28860345},{"NoteNumber":59,"Velocity":43,"Duration":116913,"SoundDuration":116913,"Delta":28860345},{"NoteNumber":64,"Velocity":57,"Duration":116459,"SoundDuration":116459,"Delta":28977259},{"NoteNumber":60,"Velocity":44,"Duration":116459,"SoundDuration":116459,"Delta":28977259},{"NoteNumber":66,"Velocity":46,"Duration":115830,"SoundDuration":115830,"Delta":29093719},{"NoteNumber":71,"Velocity":58,"Duration":115830,"SoundDuration":115830,"Delta":29093719},{"NoteNumber":67,"Velocity":47,"Duration":115296,"SoundDuration":115296,"Delta":29209549},{"NoteNumber":72,"Velocity":59,"Duration":115296,"SoundDuration":115296,"Delta":29209549},{"NoteNumber":79,"Velocity":58,"Duration":476882,"SoundDuration":476882,"Delta":29324846},{"NoteNumber":72,"Velocity":58,"Duration":476882,"SoundDuration":476882,"Delta":29324846},{"NoteNumber":84,"Velocity":73,"Duration":476882,"SoundDuration":476882,"Delta":29324846},{"NoteNumber":40,"Velocity":50,"Duration":476882,"SoundDuration":476882,"Delta":29324846},{"NoteNumber":52,"Velocity":64,"Duration":476882,"SoundDuration":476882,"Delta":29324846},{"NoteNumber":54,"Velocity":40,"Duration":119048,"SoundDuration":119048,"Delta":29564846},{"NoteNumber":59,"Velocity":51,"Duration":119048,"SoundDuration":119048,"Delta":29564846},{"NoteNumber":60,"Velocity":52,"Duration":117832,"SoundDuration":117832,"Delta":29683895},{"NoteNumber":55,"Velocity":42,"Duration":117832,"SoundDuration":117832,"Delta":29683895},{"NoteNumber":59,"Velocity":43,"Duration":116914,"SoundDuration":116914,"Delta":29801728},{"NoteNumber":63,"Velocity":55,"Duration":116914,"SoundDuration":116914,"Delta":29801728},{"NoteNumber":60,"Velocity":44,"Duration":115831,"SoundDuration":115831,"Delta":29918642},{"NoteNumber":64,"Velocity":57,"Duration":115831,"SoundDuration":115831,"Delta":29918642},{"NoteNumber":66,"Velocity":58,"Duration":132860,"SoundDuration":132860,"Delta":30034473},{"NoteNumber":63,"Velocity":58,"Duration":132860,"SoundDuration":132860,"Delta":30034473},{"NoteNumber":64,"Velocity":47,"Duration":132861,"SoundDuration":132861,"Delta":30167334},{"NoteNumber":67,"Velocity":59,"Duration":132861,"SoundDuration":132861,"Delta":30167334},{"NoteNumber":70,"Velocity":54,"Duration":66430,"SoundDuration":66430,"Delta":30233765},{"NoteNumber":82,"Velocity":69,"Duration":66430,"SoundDuration":66430,"Delta":30233765},{"NoteNumber":77,"Velocity":58,"Duration":476882,"SoundDuration":476882,"Delta":30300195},{"NoteNumber":81,"Velocity":73,"Duration":476882,"SoundDuration":476882,"Delta":30300195},{"NoteNumber":69,"Velocity":58,"Duration":476882,"SoundDuration":476882,"Delta":30300195},{"NoteNumber":41,"Velocity":50,"Duration":476882,"SoundDuration":476882,"Delta":30300195},{"NoteNumber":53,"Velocity":64,"Duration":476882,"SoundDuration":476882,"Delta":30300195},{"NoteNumber":56,"Velocity":40,"Duration":119048,"SoundDuration":119048,"Delta":30540196},{"NoteNumber":59,"Velocity":51,"Duration":119048,"SoundDuration":119048,"Delta":30540196},{"NoteNumber":60,"Velocity":52,"Duration":117832,"SoundDuration":117832,"Delta":30659245},{"NoteNumber":57,"Velocity":42,"Duration":117832,"SoundDuration":117832,"Delta":30659245},{"NoteNumber":59,"Velocity":43,"Duration":116914,"SoundDuration":116914,"Delta":30777078},{"NoteNumber":64,"Velocity":55,"Duration":116914,"SoundDuration":116914,"Delta":30777078},{"NoteNumber":60,"Velocity":44,"Duration":115831,"SoundDuration":115831,"Delta":30893992},{"NoteNumber":65,"Velocity":57,"Duration":115831,"SoundDuration":115831,"Delta":30893992},{"NoteNumber":71,"Velocity":58,"Duration":122548,"SoundDuration":122548,"Delta":31009823},{"NoteNumber":68,"Velocity":58,"Duration":122548,"SoundDuration":122548,"Delta":31009823},{"NoteNumber":69,"Velocity":47,"Duration":129982,"SoundDuration":129982,"Delta":31132372},{"NoteNumber":72,"Velocity":59,"Duration":129982,"SoundDuration":129982,"Delta":31132372},{"NoteNumber":72,"Velocity":54,"Duration":64991,"SoundDuration":64991,"Delta":31197364},{"NoteNumber":84,"Velocity":69,"Duration":64991,"SoundDuration":64991,"Delta":31197364},{"NoteNumber":77,"Velocity":73,"Duration":476882,"SoundDuration":476882,"Delta":31262355},{"NoteNumber":69,"Velocity":58,"Duration":476882,"SoundDuration":476882,"Delta":31262355},{"NoteNumber":65,"Velocity":58,"Duration":476882,"SoundDuration":476882,"Delta":31262355},{"NoteNumber":41,"Velocity":50,"Duration":476882,"SoundDuration":476882,"Delta":31262355},{"NoteNumber":53,"Velocity":64,"Duration":476882,"SoundDuration":476882,"Delta":31262355},{"NoteNumber":59,"Velocity":51,"Duration":119048,"SoundDuration":119048,"Delta":31502355},{"NoteNumber":56,"Velocity":40,"Duration":119048,"SoundDuration":119048,"Delta":31502355},{"NoteNumber":60,"Velocity":52,"Duration":117832,"SoundDuration":117832,"Delta":31621404},{"NoteNumber":57,"Velocity":42,"Duration":117832,"SoundDuration":117832,"Delta":31621404},{"NoteNumber":64,"Velocity":55,"Duration":116914,"SoundDuration":116914,"Delta":31739237},{"NoteNumber":59,"Velocity":43,"Duration":116914,"SoundDuration":116914,"Delta":31739237},{"NoteNumber":60,"Velocity":44,"Duration":116009,"SoundDuration":116009,"Delta":31856152},{"NoteNumber":65,"Velocity":57,"Duration":116009,"SoundDuration":116009,"Delta":31856152},{"NoteNumber":68,"Velocity":58,"Duration":133451,"SoundDuration":133451,"Delta":31972161},{"NoteNumber":64,"Velocity":58,"Duration":133451,"SoundDuration":133451,"Delta":31972161},{"NoteNumber":69,"Velocity":59,"Duration":133451,"SoundDuration":133451,"Delta":32105613},{"NoteNumber":65,"Velocity":47,"Duration":133451,"SoundDuration":133451,"Delta":32105613},{"NoteNumber":76,"Velocity":65,"Duration":940188,"SoundDuration":940188,"Delta":32239065},{"NoteNumber":88,"Velocity":90,"Duration":940188,"SoundDuration":940188,"Delta":32239065},{"NoteNumber":80,"Velocity":69,"Duration":940188,"SoundDuration":940188,"Delta":32239065},{"NoteNumber":52,"Velocity":66,"Duration":940188,"SoundDuration":940188,"Delta":32239065},{"NoteNumber":40,"Velocity":52,"Duration":940188,"SoundDuration":940188,"Delta":32239065},{"NoteNumber":58,"Velocity":48,"Duration":118017,"SoundDuration":118017,"Delta":32479272},{"NoteNumber":55,"Velocity":37,"Duration":118017,"SoundDuration":118017,"Delta":32479272},{"NoteNumber":59,"Velocity":50,"Duration":117463,"SoundDuration":117463,"Delta":32597290},{"NoteNumber":56,"Velocity":40,"Duration":117463,"SoundDuration":117463,"Delta":32597290},{"NoteNumber":63,"Velocity":41,"Duration":116913,"SoundDuration":116913,"Delta":32714753},{"NoteNumber":67,"Velocity":52,"Duration":116913,"SoundDuration":116913,"Delta":32714753},{"NoteNumber":68,"Velocity":55,"Duration":116459,"SoundDuration":116459,"Delta":32831667},{"NoteNumber":64,"Velocity":43,"Duration":116459,"SoundDuration":116459,"Delta":32831667},{"NoteNumber":67,"Velocity":43,"Duration":115830,"SoundDuration":115830,"Delta":32948127},{"NoteNumber":70,"Velocity":56,"Duration":115830,"SoundDuration":115830,"Delta":32948127},{"NoteNumber":71,"Velocity":58,"Duration":115296,"SoundDuration":115296,"Delta":33063958},{"NoteNumber":68,"Velocity":46,"Duration":115296,"SoundDuration":115296,"Delta":33063958},{"NoteNumber":83,"Velocity":65,"Duration":476882,"SoundDuration":476882,"Delta":33179254},{"NoteNumber":76,"Velocity":65,"Duration":476882,"SoundDuration":476882,"Delta":33179254},{"NoteNumber":88,"Velocity":82,"Duration":476882,"SoundDuration":476882,"Delta":33179254},{"NoteNumber":44,"Velocity":51,"Duration":476882,"SoundDuration":476882,"Delta":33179254},{"NoteNumber":56,"Velocity":66,"Duration":476882,"SoundDuration":476882,"Delta":33179254},{"NoteNumber":55,"Velocity":40,"Duration":119048,"SoundDuration":119048,"Delta":33419255},{"NoteNumber":58,"Velocity":50,"Duration":119048,"SoundDuration":119048,"Delta":33419255},{"NoteNumber":59,"Velocity":52,"Duration":117832,"SoundDuration":117832,"Delta":33538303},{"NoteNumber":56,"Velocity":42,"Duration":117832,"SoundDuration":117832,"Delta":33538303},{"NoteNumber":67,"Velocity":55,"Duration":116914,"SoundDuration":116914,"Delta":33656136},{"NoteNumber":63,"Velocity":43,"Duration":116914,"SoundDuration":116914,"Delta":33656136},{"NoteNumber":68,"Velocity":57,"Duration":115831,"SoundDuration":115831,"Delta":33773051},{"NoteNumber":64,"Velocity":44,"Duration":115831,"SoundDuration":115831,"Delta":33773051},{"NoteNumber":67,"Velocity":58,"Duration":127768,"SoundDuration":127768,"Delta":33888882},{"NoteNumber":70,"Velocity":58,"Duration":127768,"SoundDuration":127768,"Delta":33888882},{"NoteNumber":68,"Velocity":51,"Duration":134650,"SoundDuration":134650,"Delta":34016650},{"NoteNumber":71,"Velocity":65,"Duration":134650,"SoundDuration":134650,"Delta":34016650},{"NoteNumber":86,"Velocity":74,"Duration":67325,"SoundDuration":67325,"Delta":34083975},{"NoteNumber":74,"Velocity":58,"Duration":67325,"SoundDuration":67325,"Delta":34083975},{"NoteNumber":73,"Velocity":63,"Duration":476882,"SoundDuration":476882,"Delta":34151300},{"NoteNumber":81,"Velocity":63,"Duration":476882,"SoundDuration":476882,"Delta":34151300},{"NoteNumber":85,"Velocity":79,"Duration":476882,"SoundDuration":476882,"Delta":34151300},{"NoteNumber":57,"Velocity":69,"Duration":476882,"SoundDuration":476882,"Delta":34151300},{"NoteNumber":52,"Velocity":54,"Duration":476882,"SoundDuration":476882,"Delta":34151300},{"NoteNumber":45,"Velocity":54,"Duration":476882,"SoundDuration":476882,"Delta":34151300},{"NoteNumber":60,"Velocity":42,"Duration":119048,"SoundDuration":119048,"Delta":34391301},{"NoteNumber":63,"Velocity":52,"Duration":119048,"SoundDuration":119048,"Delta":34391301},{"NoteNumber":64,"Velocity":55,"Duration":117832,"SoundDuration":117832,"Delta":34510349},{"NoteNumber":61,"Velocity":43,"Duration":117832,"SoundDuration":117832,"Delta":34510349},{"NoteNumber":68,"Velocity":44,"Duration":116914,"SoundDuration":116914,"Delta":34628182},{"NoteNumber":72,"Velocity":57,"Duration":116914,"SoundDuration":116914,"Delta":34628182},{"NoteNumber":69,"Velocity":47,"Duration":115831,"SoundDuration":115831,"Delta":34745097},{"NoteNumber":73,"Velocity":59,"Duration":115831,"SoundDuration":115831,"Delta":34745097},{"NoteNumber":72,"Velocity":62,"Duration":125104,"SoundDuration":125104,"Delta":34860928},{"NoteNumber":75,"Velocity":62,"Duration":125104,"SoundDuration":125104,"Delta":34860928},{"NoteNumber":73,"Velocity":52,"Duration":62552,"SoundDuration":62552,"Delta":34986032},{"NoteNumber":76,"Velocity":66,"Duration":62552,"SoundDuration":62552,"Delta":34986032},{"NoteNumber":88,"Velocity":78,"Duration":62552,"SoundDuration":62552,"Delta":35048584},{"NoteNumber":76,"Velocity":60,"Duration":62552,"SoundDuration":62552,"Delta":35048584},{"NoteNumber":73,"Velocity":65,"Duration":476882,"SoundDuration":476882,"Delta":35111136},{"NoteNumber":69,"Velocity":65,"Duration":476882,"SoundDuration":476882,"Delta":35111136},{"NoteNumber":81,"Velocity":82,"Duration":476882,"SoundDuration":476882,"Delta":35111136},{"NoteNumber":45,"Velocity":56,"Duration":476882,"SoundDuration":476882,"Delta":35111136},{"NoteNumber":52,"Velocity":56,"Duration":476882,"SoundDuration":476882,"Delta":35111136},{"NoteNumber":57,"Velocity":72,"Duration":476882,"SoundDuration":476882,"Delta":35111136},{"NoteNumber":60,"Velocity":46,"Duration":119048,"SoundDuration":119048,"Delta":35351137},{"NoteNumber":63,"Velocity":58,"Duration":119048,"SoundDuration":119048,"Delta":35351137},{"NoteNumber":61,"Velocity":48,"Duration":117832,"SoundDuration":117832,"Delta":35470186},{"NoteNumber":64,"Velocity":60,"Duration":117832,"SoundDuration":117832,"Delta":35470186},{"NoteNumber":68,"Velocity":50,"Duration":116914,"SoundDuration":116914,"Delta":35588018},{"NoteNumber":72,"Velocity":63,"Duration":116914,"SoundDuration":116914,"Delta":35588018},{"NoteNumber":69,"Velocity":52,"Duration":115831,"SoundDuration":115831,"Delta":35704933},{"NoteNumber":73,"Velocity":65,"Duration":115831,"SoundDuration":115831,"Delta":35704933},{"NoteNumber":72,"Velocity":67,"Duration":124069,"SoundDuration":124069,"Delta":35820764},{"NoteNumber":75,"Velocity":67,"Duration":124069,"SoundDuration":124069,"Delta":35820764},{"NoteNumber":76,"Velocity":70,"Duration":132275,"SoundDuration":132275,"Delta":35944834},{"NoteNumber":73,"Velocity":55,"Duration":132275,"SoundDuration":132275,"Delta":35944834},{"NoteNumber":69,"Velocity":63,"Duration":66137,"SoundDuration":66137,"Delta":36010971},{"NoteNumber":81,"Velocity":80,"Duration":66137,"SoundDuration":66137,"Delta":36010971},{"NoteNumber":85,"Velocity":78,"Duration":709061,"SoundDuration":709061,"Delta":36077109},{"NoteNumber":79,"Velocity":78,"Duration":709061,"SoundDuration":709061,"Delta":36077109},{"NoteNumber":91,"Velocity":98,"Duration":709061,"SoundDuration":709061,"Delta":36077109},{"NoteNumber":58,"Velocity":82,"Duration":940188,"SoundDuration":940188,"Delta":36077109},{"NoteNumber":46,"Velocity":65,"Duration":940188,"SoundDuration":940188,"Delta":36077109},{"NoteNumber":52,"Velocity":65,"Duration":940188,"SoundDuration":940188,"Delta":36077109},{"NoteNumber":63,"Velocity":48,"Duration":118017,"SoundDuration":118017,"Delta":36317316},{"NoteNumber":66,"Velocity":60,"Duration":118017,"SoundDuration":118017,"Delta":36317316},{"NoteNumber":67,"Velocity":63,"Duration":117463,"SoundDuration":117463,"Delta":36435334},{"NoteNumber":64,"Velocity":50,"Duration":117463,"SoundDuration":117463,"Delta":36435334},{"NoteNumber":72,"Velocity":51,"Duration":116913,"SoundDuration":116913,"Delta":36552797},{"NoteNumber":75,"Velocity":65,"Duration":116913,"SoundDuration":116913,"Delta":36552797},{"NoteNumber":73,"Velocity":54,"Duration":116459,"SoundDuration":116459,"Delta":36669711},{"NoteNumber":76,"Velocity":67,"Duration":116459,"SoundDuration":116459,"Delta":36669711},{"NoteNumber":78,"Velocity":69,"Duration":115830,"SoundDuration":115830,"Delta":36786171},{"NoteNumber":75,"Velocity":55,"Duration":115830,"SoundDuration":115830,"Delta":36786171},{"NoteNumber":76,"Velocity":56,"Duration":115296,"SoundDuration":115296,"Delta":36902001},{"NoteNumber":79,"Velocity":71,"Duration":115296,"SoundDuration":115296,"Delta":36902001},{"NoteNumber":69,"Velocity":69,"Duration":476882,"SoundDuration":476882,"Delta":37017298},{"NoteNumber":81,"Velocity":87,"Duration":476882,"SoundDuration":476882,"Delta":37017298},{"NoteNumber":45,"Velocity":62,"Duration":476882,"SoundDuration":476882,"Delta":37017298},{"NoteNumber":57,"Velocity":78,"Duration":476882,"SoundDuration":476882,"Delta":37017298},{"NoteNumber":63,"Velocity":48,"Duration":119048,"SoundDuration":119048,"Delta":37257298},{"NoteNumber":66,"Velocity":60,"Duration":119048,"SoundDuration":119048,"Delta":37257298},{"NoteNumber":64,"Velocity":50,"Duration":117832,"SoundDuration":117832,"Delta":37376347},{"NoteNumber":67,"Velocity":63,"Duration":117832,"SoundDuration":117832,"Delta":37376347},{"NoteNumber":75,"Velocity":65,"Duration":116914,"SoundDuration":116914,"Delta":37494180},{"NoteNumber":72,"Velocity":51,"Duration":116914,"SoundDuration":116914,"Delta":37494180},{"NoteNumber":73,"Velocity":54,"Duration":115831,"SoundDuration":115831,"Delta":37611094},{"NoteNumber":76,"Velocity":67,"Duration":115831,"SoundDuration":115831,"Delta":37611094},{"NoteNumber":78,"Velocity":69,"Duration":125628,"SoundDuration":125628,"Delta":37726925},{"NoteNumber":75,"Velocity":69,"Duration":125628,"SoundDuration":125628,"Delta":37726925},{"NoteNumber":76,"Velocity":56,"Duration":135257,"SoundDuration":135257,"Delta":37852554},{"NoteNumber":79,"Velocity":71,"Duration":135257,"SoundDuration":135257,"Delta":37852554},{"NoteNumber":81,"Velocity":81,"Duration":67628,"SoundDuration":67628,"Delta":37920182},{"NoteNumber":69,"Velocity":64,"Duration":67628,"SoundDuration":67628,"Delta":37920182},{"NoteNumber":78,"Velocity":78,"Duration":709061,"SoundDuration":709061,"Delta":37987811},{"NoteNumber":84,"Velocity":78,"Duration":709061,"SoundDuration":709061,"Delta":37987811},{"NoteNumber":90,"Velocity":98,"Duration":709061,"SoundDuration":709061,"Delta":37987811},{"NoteNumber":51,"Velocity":63,"Duration":940188,"SoundDuration":940188,"Delta":37987811},{"NoteNumber":46,"Velocity":63,"Duration":940188,"SoundDuration":940188,"Delta":37987811},{"NoteNumber":58,"Velocity":79,"Duration":940188,"SoundDuration":940188,"Delta":37987811},{"NoteNumber":62,"Velocity":48,"Duration":118017,"SoundDuration":118017,"Delta":38228018},{"NoteNumber":65,"Velocity":60,"Duration":118017,"SoundDuration":118017,"Delta":38228018},{"NoteNumber":63,"Velocity":50,"Duration":117463,"SoundDuration":117463,"Delta":38346036},{"NoteNumber":66,"Velocity":63,"Duration":117463,"SoundDuration":117463,"Delta":38346036},{"NoteNumber":71,"Velocity":51,"Duration":116913,"SoundDuration":116913,"Delta":38463499},{"NoteNumber":74,"Velocity":65,"Duration":116913,"SoundDuration":116913,"Delta":38463499},{"NoteNumber":72,"Velocity":54,"Duration":116459,"SoundDuration":116459,"Delta":38580413},{"NoteNumber":75,"Velocity":67,"Duration":116459,"SoundDuration":116459,"Delta":38580413},{"NoteNumber":77,"Velocity":69,"Duration":115830,"SoundDuration":115830,"Delta":38696873},{"NoteNumber":74,"Velocity":55,"Duration":115830,"SoundDuration":115830,"Delta":38696873},{"NoteNumber":78,"Velocity":71,"Duration":115296,"SoundDuration":115296,"Delta":38812703},{"NoteNumber":75,"Velocity":56,"Duration":115296,"SoundDuration":115296,"Delta":38812703},{"NoteNumber":69,"Velocity":69,"Duration":476882,"SoundDuration":476882,"Delta":38927999},{"NoteNumber":81,"Velocity":87,"Duration":476882,"SoundDuration":476882,"Delta":38927999},{"NoteNumber":57,"Velocity":75,"Duration":476882,"SoundDuration":476882,"Delta":38927999},{"NoteNumber":45,"Velocity":59,"Duration":476882,"SoundDuration":476882,"Delta":38927999},{"NoteNumber":62,"Velocity":48,"Duration":119048,"SoundDuration":119048,"Delta":39168000},{"NoteNumber":65,"Velocity":60,"Duration":119048,"SoundDuration":119048,"Delta":39168000},{"NoteNumber":63,"Velocity":50,"Duration":117832,"SoundDuration":117832,"Delta":39287049},{"NoteNumber":66,"Velocity":63,"Duration":117832,"SoundDuration":117832,"Delta":39287049},{"NoteNumber":74,"Velocity":65,"Duration":116914,"SoundDuration":116914,"Delta":39404882},{"NoteNumber":71,"Velocity":51,"Duration":116914,"SoundDuration":116914,"Delta":39404882},{"NoteNumber":72,"Velocity":54,"Duration":115831,"SoundDuration":115831,"Delta":39521796},{"NoteNumber":75,"Velocity":67,"Duration":115831,"SoundDuration":115831,"Delta":39521796},{"NoteNumber":77,"Velocity":69,"Duration":123558,"SoundDuration":123558,"Delta":39637627},{"NoteNumber":74,"Velocity":69,"Duration":123558,"SoundDuration":123558,"Delta":39637627},{"NoteNumber":75,"Velocity":56,"Duration":132275,"SoundDuration":132275,"Delta":39761186},{"NoteNumber":78,"Velocity":71,"Duration":132275,"SoundDuration":132275,"Delta":39761186},{"NoteNumber":69,"Velocity":64,"Duration":66137,"SoundDuration":66137,"Delta":39827323},{"NoteNumber":81,"Velocity":81,"Duration":66137,"SoundDuration":66137,"Delta":39827323},{"NoteNumber":80,"Velocity":69,"Duration":476882,"SoundDuration":476882,"Delta":39893461},{"NoteNumber":77,"Velocity":69,"Duration":476882,"SoundDuration":476882,"Delta":39893461},{"NoteNumber":89,"Velocity":87,"Duration":476882,"SoundDuration":476882,"Delta":39893461},{"NoteNumber":50,"Velocity":59,"Duration":476882,"SoundDuration":476882,"Delta":39893461},{"NoteNumber":47,"Velocity":59,"Duration":476882,"SoundDuration":476882,"Delta":39893461},{"NoteNumber":59,"Velocity":75,"Duration":476882,"SoundDuration":476882,"Delta":39893461},{"NoteNumber":64,"Velocity":60,"Duration":119048,"SoundDuration":119048,"Delta":40133461},{"NoteNumber":61,"Velocity":48,"Duration":119048,"SoundDuration":119048,"Delta":40133461},{"NoteNumber":65,"Velocity":63,"Duration":117832,"SoundDuration":117832,"Delta":40252510},{"NoteNumber":62,"Velocity":50,"Duration":117832,"SoundDuration":117832,"Delta":40252510},{"NoteNumber":70,"Velocity":65,"Duration":116914,"SoundDuration":116914,"Delta":40370343},{"NoteNumber":67,"Velocity":51,"Duration":116914,"SoundDuration":116914,"Delta":40370343},{"NoteNumber":68,"Velocity":54,"Duration":115831,"SoundDuration":115831,"Delta":40487258},{"NoteNumber":71,"Velocity":67,"Duration":115831,"SoundDuration":115831,"Delta":40487258},{"NoteNumber":76,"Velocity":69,"Duration":125104,"SoundDuration":125104,"Delta":40603089},{"NoteNumber":73,"Velocity":69,"Duration":125104,"SoundDuration":125104,"Delta":40603089},{"NoteNumber":74,"Velocity":56,"Duration":137111,"SoundDuration":137111,"Delta":40728193},{"NoteNumber":77,"Velocity":71,"Duration":137111,"SoundDuration":137111,"Delta":40728193},{"NoteNumber":89,"Velocity":81,"Duration":68555,"SoundDuration":68555,"Delta":40796749},{"NoteNumber":77,"Velocity":64,"Duration":68555,"SoundDuration":68555,"Delta":40796749},{"NoteNumber":76,"Velocity":69,"Duration":476882,"SoundDuration":476882,"Delta":40865304},{"NoteNumber":80,"Velocity":69,"Duration":476882,"SoundDuration":476882,"Delta":40865304},{"NoteNumber":88,"Velocity":87,"Duration":476882,"SoundDuration":476882,"Delta":40865304},{"NoteNumber":52,"Velocity":75,"Duration":476882,"SoundDuration":476882,"Delta":40865304},{"NoteNumber":40,"Velocity":59,"Duration":476882,"SoundDuration":476882,"Delta":40865304},{"NoteNumber":47,"Velocity":59,"Duration":476882,"SoundDuration":476882,"Delta":40865304},{"NoteNumber":58,"Velocity":60,"Duration":119048,"SoundDuration":119048,"Delta":41105305},{"NoteNumber":55,"Velocity":48,"Duration":119048,"SoundDuration":119048,"Delta":41105305},{"NoteNumber":56,"Velocity":50,"Duration":117832,"SoundDuration":117832,"Delta":41224354},{"NoteNumber":59,"Velocity":63,"Duration":117832,"SoundDuration":117832,"Delta":41224354},{"NoteNumber":63,"Velocity":51,"Duration":116914,"SoundDuration":116914,"Delta":41342187},{"NoteNumber":67,"Velocity":65,"Duration":116914,"SoundDuration":116914,"Delta":41342187},{"NoteNumber":68,"Velocity":54,"Duration":115831,"SoundDuration":115831,"Delta":41459101},{"NoteNumber":64,"Velocity":67,"Duration":115831,"SoundDuration":115831,"Delta":41459101},{"NoteNumber":70,"Velocity":69,"Duration":124069,"SoundDuration":124069,"Delta":41574932},{"NoteNumber":67,"Velocity":69,"Duration":124069,"SoundDuration":124069,"Delta":41574932},{"NoteNumber":68,"Velocity":56,"Duration":137111,"SoundDuration":137111,"Delta":41699002},{"NoteNumber":71,"Velocity":71,"Duration":137111,"SoundDuration":137111,"Delta":41699002},{"NoteNumber":74,"Velocity":64,"Duration":68555,"SoundDuration":68555,"Delta":41767557},{"NoteNumber":86,"Velocity":81,"Duration":68555,"SoundDuration":68555,"Delta":41767557},{"NoteNumber":81,"Velocity":69,"Duration":476882,"SoundDuration":476882,"Delta":41836113},{"NoteNumber":85,"Velocity":87,"Duration":476882,"SoundDuration":476882,"Delta":41836113},{"NoteNumber":73,"Velocity":69,"Duration":476882,"SoundDuration":476882,"Delta":41836113},{"NoteNumber":57,"Velocity":75,"Duration":476882,"SoundDuration":476882,"Delta":41836113},{"NoteNumber":45,"Velocity":59,"Duration":476882,"SoundDuration":476882,"Delta":41836113},{"NoteNumber":52,"Velocity":59,"Duration":476882,"SoundDuration":476882,"Delta":41836113},{"NoteNumber":60,"Velocity":48,"Duration":119048,"SoundDuration":119048,"Delta":42076114},{"NoteNumber":63,"Velocity":60,"Duration":119048,"SoundDuration":119048,"Delta":42076114},{"NoteNumber":64,"Velocity":63,"Duration":117832,"SoundDuration":117832,"Delta":42195162},{"NoteNumber":61,"Velocity":50,"Duration":117832,"SoundDuration":117832,"Delta":42195162},{"NoteNumber":72,"Velocity":65,"Duration":116914,"SoundDuration":116914,"Delta":42312995},{"NoteNumber":68,"Velocity":51,"Duration":116914,"SoundDuration":116914,"Delta":42312995},{"NoteNumber":69,"Velocity":54,"Duration":115831,"SoundDuration":115831,"Delta":42429910},{"NoteNumber":73,"Velocity":67,"Duration":115831,"SoundDuration":115831,"Delta":42429910},{"NoteNumber":75,"Velocity":69,"Duration":122548,"SoundDuration":122548,"Delta":42545741},{"NoteNumber":72,"Velocity":69,"Duration":122548,"SoundDuration":122548,"Delta":42545741},{"NoteNumber":73,"Velocity":56,"Duration":66726,"SoundDuration":66726,"Delta":42668290},{"NoteNumber":76,"Velocity":71,"Duration":66726,"SoundDuration":66726,"Delta":42668290},{"NoteNumber":88,"Velocity":81,"Duration":66725,"SoundDuration":66725,"Delta":42735016},{"NoteNumber":76,"Velocity":64,"Duration":66725,"SoundDuration":66725,"Delta":42735016},{"NoteNumber":73,"Velocity":69,"Duration":476882,"SoundDuration":476882,"Delta":42801742},{"NoteNumber":81,"Velocity":87,"Duration":476882,"SoundDuration":476882,"Delta":42801742},{"NoteNumber":69,"Velocity":69,"Duration":476882,"SoundDuration":476882,"Delta":42801742},{"NoteNumber":57,"Velocity":75,"Duration":476882,"SoundDuration":476882,"Delta":42801742},{"NoteNumber":45,"Velocity":59,"Duration":476882,"SoundDuration":476882,"Delta":42801742},{"NoteNumber":52,"Velocity":59,"Duration":476882,"SoundDuration":476882,"Delta":42801742},{"NoteNumber":56,"Velocity":48,"Duration":119048,"SoundDuration":119048,"Delta":43041742},{"NoteNumber":60,"Velocity":60,"Duration":119048,"SoundDuration":119048,"Delta":43041742},{"NoteNumber":61,"Velocity":63,"Duration":117832,"SoundDuration":117832,"Delta":43160791},{"NoteNumber":57,"Velocity":50,"Duration":117832,"SoundDuration":117832,"Delta":43160791},{"NoteNumber":60,"Velocity":51,"Duration":116914,"SoundDuration":116914,"Delta":43278624},{"NoteNumber":63,"Velocity":65,"Duration":116914,"SoundDuration":116914,"Delta":43278624},{"NoteNumber":61,"Velocity":54,"Duration":116009,"SoundDuration":116009,"Delta":43395539},{"NoteNumber":64,"Velocity":67,"Duration":116009,"SoundDuration":116009,"Delta":43395539},{"NoteNumber":68,"Velocity":69,"Duration":119142,"SoundDuration":119142,"Delta":43511548},{"NoteNumber":63,"Velocity":69,"Duration":119142,"SoundDuration":119142,"Delta":43511548},{"NoteNumber":64,"Velocity":56,"Duration":119142,"SoundDuration":119142,"Delta":43630690},{"NoteNumber":69,"Velocity":71,"Duration":119142,"SoundDuration":119142,"Delta":43630690},{"NoteNumber":79,"Velocity":88,"Duration":709061,"SoundDuration":709061,"Delta":43749833},{"NoteNumber":73,"Velocity":70,"Duration":709061,"SoundDuration":709061,"Delta":43749833},{"NoteNumber":67,"Velocity":70,"Duration":709061,"SoundDuration":709061,"Delta":43749833},{"NoteNumber":34,"Velocity":58,"Duration":940188,"SoundDuration":940188,"Delta":43749833},{"NoteNumber":40,"Velocity":58,"Duration":940188,"SoundDuration":940188,"Delta":43749833},{"NoteNumber":46,"Velocity":73,"Duration":940188,"SoundDuration":940188,"Delta":43749833},{"NoteNumber":51,"Velocity":42,"Duration":118017,"SoundDuration":118017,"Delta":43990040},{"NoteNumber":54,"Velocity":54,"Duration":118017,"SoundDuration":118017,"Delta":43990040},{"NoteNumber":52,"Velocity":44,"Duration":117463,"SoundDuration":117463,"Delta":44108058},{"NoteNumber":55,"Velocity":56,"Duration":117463,"SoundDuration":117463,"Delta":44108058},{"NoteNumber":60,"Velocity":46,"Duration":116913,"SoundDuration":116913,"Delta":44225521},{"NoteNumber":63,"Velocity":58,"Duration":116913,"SoundDuration":116913,"Delta":44225521},{"NoteNumber":61,"Velocity":48,"Duration":116459,"SoundDuration":116459,"Delta":44342435},{"NoteNumber":64,"Velocity":60,"Duration":116459,"SoundDuration":116459,"Delta":44342435},{"NoteNumber":63,"Velocity":49,"Duration":115830,"SoundDuration":115830,"Delta":44458895},{"NoteNumber":66,"Velocity":62,"Duration":115830,"SoundDuration":115830,"Delta":44458895},{"NoteNumber":67,"Velocity":63,"Duration":115296,"SoundDuration":115296,"Delta":44574725},{"NoteNumber":64,"Velocity":50,"Duration":115296,"SoundDuration":115296,"Delta":44574725},{"NoteNumber":69,"Velocity":78,"Duration":476882,"SoundDuration":476882,"Delta":44690022},{"NoteNumber":57,"Velocity":62,"Duration":476882,"SoundDuration":476882,"Delta":44690022},{"NoteNumber":33,"Velocity":55,"Duration":476882,"SoundDuration":476882,"Delta":44690022},{"NoteNumber":45,"Velocity":70,"Duration":476882,"SoundDuration":476882,"Delta":44690022},{"NoteNumber":51,"Velocity":42,"Duration":119048,"SoundDuration":119048,"Delta":44930022},{"NoteNumber":54,"Velocity":54,"Duration":119048,"SoundDuration":119048,"Delta":44930022},{"NoteNumber":52,"Velocity":44,"Duration":117832,"SoundDuration":117832,"Delta":45049071},{"NoteNumber":55,"Velocity":56,"Duration":117832,"SoundDuration":117832,"Delta":45049071},{"NoteNumber":63,"Velocity":58,"Duration":116914,"SoundDuration":116914,"Delta":45166904},{"NoteNumber":60,"Velocity":46,"Duration":116914,"SoundDuration":116914,"Delta":45166904},{"NoteNumber":64,"Velocity":60,"Duration":115831,"SoundDuration":115831,"Delta":45283818},{"NoteNumber":61,"Velocity":48,"Duration":115831,"SoundDuration":115831,"Delta":45283818},{"NoteNumber":63,"Velocity":62,"Duration":124069,"SoundDuration":124069,"Delta":45399649},{"NoteNumber":66,"Velocity":62,"Duration":124069,"SoundDuration":124069,"Delta":45399649},{"NoteNumber":64,"Velocity":50,"Duration":143678,"SoundDuration":143678,"Delta":45523719},{"NoteNumber":67,"Velocity":63,"Duration":143678,"SoundDuration":143678,"Delta":45523719},{"NoteNumber":69,"Velocity":72,"Duration":71839,"SoundDuration":71839,"Delta":45595558},{"NoteNumber":57,"Velocity":57,"Duration":71839,"SoundDuration":71839,"Delta":45595558},{"NoteNumber":78,"Velocity":88,"Duration":709061,"SoundDuration":709061,"Delta":45667397},{"NoteNumber":72,"Velocity":70,"Duration":709061,"SoundDuration":709061,"Delta":45667397},{"NoteNumber":66,"Velocity":70,"Duration":709061,"SoundDuration":709061,"Delta":45667397},{"NoteNumber":34,"Velocity":56,"Duration":940188,"SoundDuration":940188,"Delta":45667397},{"NoteNumber":39,"Velocity":56,"Duration":940188,"SoundDuration":940188,"Delta":45667397},{"NoteNumber":46,"Velocity":71,"Duration":940188,"SoundDuration":940188,"Delta":45667397},{"NoteNumber":53,"Velocity":54,"Duration":118017,"SoundDuration":118017,"Delta":45907604},{"NoteNumber":50,"Velocity":42,"Duration":118017,"SoundDuration":118017,"Delta":45907604},{"NoteNumber":51,"Velocity":44,"Duration":117463,"SoundDuration":117463,"Delta":46025622},{"NoteNumber":54,"Velocity":56,"Duration":117463,"SoundDuration":117463,"Delta":46025622},{"NoteNumber":62,"Velocity":58,"Duration":116913,"SoundDuration":116913,"Delta":46143085},{"NoteNumber":59,"Velocity":46,"Duration":116913,"SoundDuration":116913,"Delta":46143085},{"NoteNumber":63,"Velocity":60,"Duration":116459,"SoundDuration":116459,"Delta":46259999},{"NoteNumber":60,"Velocity":48,"Duration":116459,"SoundDuration":116459,"Delta":46259999},{"NoteNumber":65,"Velocity":62,"Duration":115830,"SoundDuration":115830,"Delta":46376459},{"NoteNumber":62,"Velocity":49,"Duration":115830,"SoundDuration":115830,"Delta":46376459},{"NoteNumber":63,"Velocity":50,"Duration":115296,"SoundDuration":115296,"Delta":46492290},{"NoteNumber":66,"Velocity":63,"Duration":115296,"SoundDuration":115296,"Delta":46492290},{"NoteNumber":57,"Velocity":62,"Duration":476882,"SoundDuration":476882,"Delta":46607586},{"NoteNumber":69,"Velocity":78,"Duration":476882,"SoundDuration":476882,"Delta":46607586},{"NoteNumber":45,"Velocity":67,"Duration":476882,"SoundDuration":476882,"Delta":46607586},{"NoteNumber":33,"Velocity":52,"Duration":476882,"SoundDuration":476882,"Delta":46607586},{"NoteNumber":53,"Velocity":54,"Duration":119048,"SoundDuration":119048,"Delta":46847586},{"NoteNumber":50,"Velocity":42,"Duration":119048,"SoundDuration":119048,"Delta":46847586},{"NoteNumber":51,"Velocity":44,"Duration":117832,"SoundDuration":117832,"Delta":46966635},{"NoteNumber":54,"Velocity":56,"Duration":117832,"SoundDuration":117832,"Delta":46966635},{"NoteNumber":59,"Velocity":46,"Duration":116914,"SoundDuration":116914,"Delta":47084468},{"NoteNumber":62,"Velocity":58,"Duration":116914,"SoundDuration":116914,"Delta":47084468},{"NoteNumber":63,"Velocity":60,"Duration":115831,"SoundDuration":115831,"Delta":47201383},{"NoteNumber":60,"Velocity":48,"Duration":115831,"SoundDuration":115831,"Delta":47201383},{"NoteNumber":62,"Velocity":62,"Duration":122548,"SoundDuration":122548,"Delta":47317214},{"NoteNumber":65,"Velocity":62,"Duration":122548,"SoundDuration":122548,"Delta":47317214},{"NoteNumber":66,"Velocity":63,"Duration":140977,"SoundDuration":140977,"Delta":47439763},{"NoteNumber":63,"Velocity":50,"Duration":140977,"SoundDuration":140977,"Delta":47439763},{"NoteNumber":57,"Velocity":57,"Duration":70488,"SoundDuration":70488,"Delta":47510251},{"NoteNumber":69,"Velocity":72,"Duration":70488,"SoundDuration":70488,"Delta":47510251},{"NoteNumber":65,"Velocity":62,"Duration":476882,"SoundDuration":476882,"Delta":47580740},{"NoteNumber":68,"Velocity":62,"Duration":476882,"SoundDuration":476882,"Delta":47580740},{"NoteNumber":77,"Velocity":78,"Duration":476882,"SoundDuration":476882,"Delta":47580740},{"NoteNumber":38,"Velocity":52,"Duration":476882,"SoundDuration":476882,"Delta":47580740},{"NoteNumber":35,"Velocity":52,"Duration":476882,"SoundDuration":476882,"Delta":47580740},{"NoteNumber":47,"Velocity":67,"Duration":476882,"SoundDuration":476882,"Delta":47580740},{"NoteNumber":52,"Velocity":54,"Duration":119048,"SoundDuration":119048,"Delta":47820741},{"NoteNumber":49,"Velocity":42,"Duration":119048,"SoundDuration":119048,"Delta":47820741},{"NoteNumber":53,"Velocity":56,"Duration":117832,"SoundDuration":117832,"Delta":47939789},{"NoteNumber":50,"Velocity":44,"Duration":117832,"SoundDuration":117832,"Delta":47939789},{"NoteNumber":55,"Velocity":46,"Duration":116914,"SoundDuration":116914,"Delta":48057622},{"NoteNumber":58,"Velocity":58,"Duration":116914,"SoundDuration":116914,"Delta":48057622},{"NoteNumber":59,"Velocity":60,"Duration":115831,"SoundDuration":115831,"Delta":48174537},{"NoteNumber":56,"Velocity":48,"Duration":115831,"SoundDuration":115831,"Delta":48174537},{"NoteNumber":64,"Velocity":62,"Duration":125104,"SoundDuration":125104,"Delta":48290368},{"NoteNumber":61,"Velocity":62,"Duration":125104,"SoundDuration":125104,"Delta":48290368},{"NoteNumber":65,"Velocity":63,"Duration":62552,"SoundDuration":62552,"Delta":48415472},{"NoteNumber":62,"Velocity":50,"Duration":62552,"SoundDuration":62552,"Delta":48415472},{"NoteNumber":77,"Velocity":72,"Duration":62552,"SoundDuration":62552,"Delta":48478024},{"NoteNumber":65,"Velocity":57,"Duration":62552,"SoundDuration":62552,"Delta":48478024},{"NoteNumber":76,"Velocity":78,"Duration":476882,"SoundDuration":476882,"Delta":48540576},{"NoteNumber":68,"Velocity":62,"Duration":476882,"SoundDuration":476882,"Delta":48540576},{"NoteNumber":64,"Velocity":62,"Duration":476882,"SoundDuration":476882,"Delta":48540576},{"NoteNumber":46,"Velocity":67,"Duration":476882,"SoundDuration":476882,"Delta":48540576},{"NoteNumber":38,"Velocity":52,"Duration":476882,"SoundDuration":476882,"Delta":48540576},{"NoteNumber":34,"Velocity":52,"Duration":476882,"SoundDuration":476882,"Delta":48540576},{"NoteNumber":49,"Velocity":42,"Duration":119048,"SoundDuration":119048,"Delta":48780577},{"NoteNumber":52,"Velocity":54,"Duration":119048,"SoundDuration":119048,"Delta":48780577},{"NoteNumber":53,"Velocity":56,"Duration":117832,"SoundDuration":117832,"Delta":48899626},{"NoteNumber":50,"Velocity":44,"Duration":117832,"SoundDuration":117832,"Delta":48899626},{"NoteNumber":57,"Velocity":46,"Duration":116914,"SoundDuration":116914,"Delta":49017459},{"NoteNumber":61,"Velocity":58,"Duration":116914,"SoundDuration":116914,"Delta":49017459},{"NoteNumber":58,"Velocity":60,"Duration":115831,"SoundDuration":115831,"Delta":49134373},{"NoteNumber":62,"Velocity":48,"Duration":115831,"SoundDuration":115831,"Delta":49134373},{"NoteNumber":55,"Velocity":62,"Duration":124069,"SoundDuration":124069,"Delta":49250204},{"NoteNumber":63,"Velocity":62,"Duration":124069,"SoundDuration":124069,"Delta":49250204},{"NoteNumber":64,"Velocity":63,"Duration":124069,"SoundDuration":124069,"Delta":49374274},{"NoteNumber":56,"Velocity":50,"Duration":124069,"SoundDuration":124069,"Delta":49374274},{"NoteNumber":74,"Velocity":72,"Duration":62034,"SoundDuration":62034,"Delta":49436308},{"NoteNumber":62,"Velocity":57,"Duration":62034,"SoundDuration":62034,"Delta":49436308},{"NoteNumber":69,"Velocity":78,"Duration":160428,"SoundDuration":160428,"Delta":49498343},{"NoteNumber":61,"Velocity":62,"Duration":160428,"SoundDuration":160428,"Delta":49498343},{"NoteNumber":57,"Velocity":62,"Duration":160428,"SoundDuration":160428,"Delta":49498343},{"NoteNumber":45,"Velocity":67,"Duration":160428,"SoundDuration":160428,"Delta":49498343},{"NoteNumber":33,"Velocity":52,"Duration":160428,"SoundDuration":160428,"Delta":49498343},{"NoteNumber":40,"Velocity":52,"Duration":160428,"SoundDuration":160428,"Delta":49498343},{"NoteNumber":64,"Velocity":46,"Duration":99502,"SoundDuration":99502,"Delta":49818501},{"NoteNumber":73,"Velocity":70,"Duration":298044,"SoundDuration":298044,"Delta":49818501},{"NoteNumber":55,"Velocity":39,"Duration":99502,"SoundDuration":99502,"Delta":49818501},{"NoteNumber":46,"Velocity":56,"Duration":298044,"SoundDuration":298044,"Delta":49818501},{"NoteNumber":65,"Velocity":46,"Duration":99355,"SoundDuration":99355,"Delta":49918003},{"NoteNumber":56,"Velocity":39,"Duration":99355,"SoundDuration":99355,"Delta":49918003},{"NoteNumber":66,"Velocity":47,"Duration":99186,"SoundDuration":99186,"Delta":50017359},{"NoteNumber":57,"Velocity":39,"Duration":99186,"SoundDuration":99186,"Delta":50017359},{"NoteNumber":76,"Velocity":73,"Duration":296388,"SoundDuration":296388,"Delta":50116546},{"NoteNumber":67,"Velocity":48,"Duration":99009,"SoundDuration":99009,"Delta":50116546},{"NoteNumber":49,"Velocity":59,"Duration":296388,"SoundDuration":296388,"Delta":50116546},{"NoteNumber":58,"Velocity":40,"Duration":99009,"SoundDuration":99009,"Delta":50116546},{"NoteNumber":68,"Velocity":48,"Duration":98772,"SoundDuration":98772,"Delta":50215556},{"NoteNumber":59,"Velocity":41,"Duration":98772,"SoundDuration":98772,"Delta":50215556},{"NoteNumber":69,"Velocity":49,"Duration":98605,"SoundDuration":98605,"Delta":50314329},{"NoteNumber":60,"Velocity":41,"Duration":98605,"SoundDuration":98605,"Delta":50314329},{"NoteNumber":79,"Velocity":77,"Duration":294750,"SoundDuration":294750,"Delta":50412934},{"NoteNumber":70,"Velocity":50,"Duration":98439,"SoundDuration":98439,"Delta":50412934},{"NoteNumber":61,"Velocity":41,"Duration":98439,"SoundDuration":98439,"Delta":50412934},{"NoteNumber":52,"Velocity":62,"Duration":294750,"SoundDuration":294750,"Delta":50412934},{"NoteNumber":71,"Velocity":50,"Duration":98272,"SoundDuration":98272,"Delta":50511373},{"NoteNumber":62,"Velocity":42,"Duration":98272,"SoundDuration":98272,"Delta":50511373},{"NoteNumber":72,"Velocity":51,"Duration":98039,"SoundDuration":98039,"Delta":50609646},{"NoteNumber":63,"Velocity":43,"Duration":98039,"SoundDuration":98039,"Delta":50609646},{"NoteNumber":82,"Velocity":80,"Duration":293108,"SoundDuration":293108,"Delta":50707685},{"NoteNumber":73,"Velocity":51,"Duration":97867,"SoundDuration":97867,"Delta":50707685},{"NoteNumber":55,"Velocity":65,"Duration":293108,"SoundDuration":293108,"Delta":50707685},{"NoteNumber":64,"Velocity":43,"Duration":97867,"SoundDuration":97867,"Delta":50707685},{"NoteNumber":74,"Velocity":52,"Duration":97702,"SoundDuration":97702,"Delta":50805552},{"NoteNumber":62,"Velocity":43,"Duration":97702,"SoundDuration":97702,"Delta":50805552},{"NoteNumber":76,"Velocity":52,"Duration":97538,"SoundDuration":97538,"Delta":50903255},{"NoteNumber":61,"Velocity":44,"Duration":97538,"SoundDuration":97538,"Delta":50903255},{"NoteNumber":71,"Velocity":43,"Duration":99750,"SoundDuration":99750,"Delta":51000794},{"NoteNumber":83,"Velocity":77,"Duration":299252,"SoundDuration":299252,"Delta":51000794},{"NoteNumber":59,"Velocity":36,"Duration":299252,"SoundDuration":299252,"Delta":51000794},{"NoteNumber":65,"Velocity":36,"Duration":299252,"SoundDuration":299252,"Delta":51000794},{"NoteNumber":50,"Velocity":31,"Duration":299252,"SoundDuration":299252,"Delta":51000794},{"NoteNumber":56,"Velocity":51,"Duration":299252,"SoundDuration":299252,"Delta":51000794},{"NoteNumber":77,"Velocity":55,"Duration":99750,"SoundDuration":99750,"Delta":51100544},{"NoteNumber":80,"Velocity":55,"Duration":99750,"SoundDuration":99750,"Delta":51200295},{"NoteNumber":76,"Velocity":62,"Duration":152672,"SoundDuration":152672,"Delta":51300046},{"NoteNumber":85,"Velocity":62,"Duration":152672,"SoundDuration":152672,"Delta":51300046},{"NoteNumber":81,"Velocity":62,"Duration":152672,"SoundDuration":152672,"Delta":51300046},{"NoteNumber":88,"Velocity":78,"Duration":152672,"SoundDuration":152672,"Delta":51300046},{"NoteNumber":45,"Velocity":52,"Duration":152672,"SoundDuration":152672,"Delta":51300046},{"NoteNumber":57,"Velocity":67,"Duration":152672,"SoundDuration":152672,"Delta":51300046},{"NoteNumber":52,"Velocity":52,"Duration":152672,"SoundDuration":152672,"Delta":51300046},{"NoteNumber":85,"Velocity":70,"Duration":295886,"SoundDuration":295886,"Delta":51604541},{"NoteNumber":76,"Velocity":46,"Duration":98765,"SoundDuration":98765,"Delta":51604541},{"NoteNumber":58,"Velocity":56,"Duration":295886,"SoundDuration":295886,"Delta":51604541},{"NoteNumber":67,"Velocity":39,"Duration":98765,"SoundDuration":98765,"Delta":51604541},{"NoteNumber":77,"Velocity":46,"Duration":98621,"SoundDuration":98621,"Delta":51703307},{"NoteNumber":68,"Velocity":39,"Duration":98621,"SoundDuration":98621,"Delta":51703307},{"NoteNumber":78,"Velocity":47,"Duration":98499,"SoundDuration":98499,"Delta":51801928},{"NoteNumber":69,"Velocity":39,"Duration":98499,"SoundDuration":98499,"Delta":51801928},{"NoteNumber":79,"Velocity":48,"Duration":98280,"SoundDuration":98280,"Delta":51900427},{"NoteNumber":88,"Velocity":73,"Duration":294433,"SoundDuration":294433,"Delta":51900427},{"NoteNumber":61,"Velocity":59,"Duration":294433,"SoundDuration":294433,"Delta":51900427},{"NoteNumber":70,"Velocity":40,"Duration":98280,"SoundDuration":98280,"Delta":51900427},{"NoteNumber":80,"Velocity":48,"Duration":98137,"SoundDuration":98137,"Delta":51998707},{"NoteNumber":71,"Velocity":41,"Duration":98137,"SoundDuration":98137,"Delta":51998707},{"NoteNumber":81,"Velocity":49,"Duration":98016,"SoundDuration":98016,"Delta":52096845},{"NoteNumber":72,"Velocity":41,"Duration":98016,"SoundDuration":98016,"Delta":52096845},{"NoteNumber":82,"Velocity":50,"Duration":97799,"SoundDuration":97799,"Delta":52194861},{"NoteNumber":91,"Velocity":77,"Duration":293063,"SoundDuration":293063,"Delta":52194861},{"NoteNumber":64,"Velocity":62,"Duration":293063,"SoundDuration":293063,"Delta":52194861},{"NoteNumber":73,"Velocity":41,"Duration":97799,"SoundDuration":97799,"Delta":52194861},{"NoteNumber":83,"Velocity":50,"Duration":97702,"SoundDuration":97702,"Delta":52292661},{"NoteNumber":74,"Velocity":42,"Duration":97702,"SoundDuration":97702,"Delta":52292661},{"NoteNumber":84,"Velocity":51,"Duration":97560,"SoundDuration":97560,"Delta":52390364},{"NoteNumber":75,"Velocity":43,"Duration":97560,"SoundDuration":97560,"Delta":52390364},{"NoteNumber":94,"Velocity":80,"Duration":291660,"SoundDuration":291660,"Delta":52487925},{"NoteNumber":85,"Velocity":51,"Duration":97345,"SoundDuration":97345,"Delta":52487925},{"NoteNumber":76,"Velocity":43,"Duration":97345,"SoundDuration":97345,"Delta":52487925},{"NoteNumber":67,"Velocity":65,"Duration":291660,"SoundDuration":291660,"Delta":52487925},{"NoteNumber":86,"Velocity":52,"Duration":97227,"SoundDuration":97227,"Delta":52585271},{"NoteNumber":74,"Velocity":43,"Duration":97227,"SoundDuration":97227,"Delta":52585271},{"NoteNumber":88,"Velocity":52,"Duration":97087,"SoundDuration":97087,"Delta":52682498},{"NoteNumber":73,"Velocity":44,"Duration":97087,"SoundDuration":97087,"Delta":52682498},{"NoteNumber":95,"Velocity":77,"Duration":297029,"SoundDuration":297029,"Delta":52779586},{"NoteNumber":83,"Velocity":50,"Duration":99009,"SoundDuration":99009,"Delta":52779586},{"NoteNumber":71,"Velocity":36,"Duration":148515,"SoundDuration":148515,"Delta":52779586},{"NoteNumber":62,"Velocity":31,"Duration":148515,"SoundDuration":148515,"Delta":52779586},{"NoteNumber":68,"Velocity":51,"Duration":148515,"SoundDuration":148515,"Delta":52779586},{"NoteNumber":77,"Velocity":36,"Duration":148515,"SoundDuration":148515,"Delta":52779586},{"NoteNumber":89,"Velocity":55,"Duration":99009,"SoundDuration":99009,"Delta":52878596},{"NoteNumber":92,"Velocity":55,"Duration":99009,"SoundDuration":99009,"Delta":52977606},{"NoteNumber":93,"Velocity":67,"Duration":144927,"SoundDuration":144927,"Delta":53076616},{"NoteNumber":97,"Velocity":67,"Duration":144927,"SoundDuration":144927,"Delta":53076616},{"NoteNumber":88,"Velocity":67,"Duration":144927,"SoundDuration":144927,"Delta":53076616},{"NoteNumber":100,"Velocity":85,"Duration":144927,"SoundDuration":144927,"Delta":53076616},{"NoteNumber":69,"Velocity":67,"Duration":144927,"SoundDuration":144927,"Delta":53076616},{"NoteNumber":57,"Velocity":52,"Duration":144927,"SoundDuration":144927,"Delta":53076616},{"NoteNumber":64,"Velocity":52,"Duration":144927,"SoundDuration":144927,"Delta":53076616},{"NoteNumber":61,"Velocity":52,"Duration":144927,"SoundDuration":144927,"Delta":53076616},{"NoteNumber":83,"Velocity":55,"Duration":99255,"SoundDuration":99255,"Delta":53366471},{"NoteNumber":95,"Velocity":67,"Duration":297767,"SoundDuration":297767,"Delta":53366471},{"NoteNumber":50,"Velocity":51,"Duration":148883,"SoundDuration":148883,"Delta":53366471},{"NoteNumber":62,"Velocity":51,"Duration":148883,"SoundDuration":148883,"Delta":53366471},{"NoteNumber":56,"Velocity":51,"Duration":148883,"SoundDuration":148883,"Delta":53366471},{"NoteNumber":53,"Velocity":51,"Duration":148883,"SoundDuration":148883,"Delta":53366471},{"NoteNumber":89,"Velocity":55,"Duration":99255,"SoundDuration":99255,"Delta":53465726},{"NoteNumber":92,"Velocity":55,"Duration":99255,"SoundDuration":99255,"Delta":53564982},{"NoteNumber":100,"Velocity":85,"Duration":144578,"SoundDuration":144578,"Delta":53664238},{"NoteNumber":93,"Velocity":67,"Duration":144578,"SoundDuration":144578,"Delta":53664238},{"NoteNumber":88,"Velocity":67,"Duration":144578,"SoundDuration":144578,"Delta":53664238},{"NoteNumber":97,"Velocity":67,"Duration":144578,"SoundDuration":144578,"Delta":53664238},{"NoteNumber":45,"Velocity":51,"Duration":144578,"SoundDuration":144578,"Delta":53664238},{"NoteNumber":52,"Velocity":51,"Duration":144578,"SoundDuration":144578,"Delta":53664238},{"NoteNumber":57,"Velocity":51,"Duration":144578,"SoundDuration":144578,"Delta":53664238},{"NoteNumber":49,"Velocity":51,"Duration":144578,"SoundDuration":144578,"Delta":53664238},{"NoteNumber":83,"Velocity":55,"Duration":98280,"SoundDuration":98280,"Delta":53953395},{"NoteNumber":95,"Velocity":67,"Duration":294840,"SoundDuration":294840,"Delta":53953395},{"NoteNumber":50,"Velocity":51,"Duration":147419,"SoundDuration":147419,"Delta":53953395},{"NoteNumber":41,"Velocity":51,"Duration":147419,"SoundDuration":147419,"Delta":53953395},{"NoteNumber":38,"Velocity":51,"Duration":147419,"SoundDuration":147419,"Delta":53953395},{"NoteNumber":44,"Velocity":51,"Duration":147419,"SoundDuration":147419,"Delta":53953395},{"NoteNumber":89,"Velocity":55,"Duration":98279,"SoundDuration":98279,"Delta":54051675},{"NoteNumber":92,"Velocity":55,"Duration":98280,"SoundDuration":98280,"Delta":54149955},{"NoteNumber":97,"Velocity":67,"Duration":144927,"SoundDuration":144927,"Delta":54248235},{"NoteNumber":88,"Velocity":67,"Duration":144927,"SoundDuration":144927,"Delta":54248235},{"NoteNumber":100,"Velocity":85,"Duration":144927,"SoundDuration":144927,"Delta":54248235},{"NoteNumber":93,"Velocity":67,"Duration":144927,"SoundDuration":144927,"Delta":54248235},{"NoteNumber":33,"Velocity":51,"Duration":144927,"SoundDuration":144927,"Delta":54248235},{"NoteNumber":40,"Velocity":51,"Duration":144927,"SoundDuration":144927,"Delta":54248235},{"NoteNumber":37,"Velocity":51,"Duration":144927,"SoundDuration":144927,"Delta":54248235},{"NoteNumber":45,"Velocity":51,"Duration":144927,"SoundDuration":144927,"Delta":54248235},{"NoteNumber":95,"Velocity":67,"Duration":293399,"SoundDuration":293399,"Delta":54538090},{"NoteNumber":83,"Velocity":55,"Duration":97799,"SoundDuration":97799,"Delta":54538090},{"NoteNumber":50,"Velocity":51,"Duration":146699,"SoundDuration":146699,"Delta":54538090},{"NoteNumber":44,"Velocity":51,"Duration":146699,"SoundDuration":146699,"Delta":54538090},{"NoteNumber":41,"Velocity":51,"Duration":146699,"SoundDuration":146699,"Delta":54538090},{"NoteNumber":38,"Velocity":51,"Duration":146699,"SoundDuration":146699,"Delta":54538090},{"NoteNumber":89,"Velocity":55,"Duration":97799,"SoundDuration":97799,"Delta":54635889},{"NoteNumber":92,"Velocity":55,"Duration":97799,"SoundDuration":97799,"Delta":54733689},{"NoteNumber":93,"Velocity":67,"Duration":295566,"SoundDuration":295566,"Delta":54831489},{"NoteNumber":88,"Velocity":67,"Duration":295566,"SoundDuration":295566,"Delta":54831489},{"NoteNumber":100,"Velocity":85,"Duration":295566,"SoundDuration":295566,"Delta":54831489},{"NoteNumber":97,"Velocity":67,"Duration":295566,"SoundDuration":295566,"Delta":54831489},{"NoteNumber":37,"Velocity":52,"Duration":295566,"SoundDuration":295566,"Delta":54831489},{"NoteNumber":33,"Velocity":52,"Duration":295566,"SoundDuration":295566,"Delta":54831489},{"NoteNumber":45,"Velocity":67,"Duration":295566,"SoundDuration":295566,"Delta":54831489},{"NoteNumber":40,"Velocity":52,"Duration":295566,"SoundDuration":295566,"Delta":54831489},{"NoteNumber":46,"Velocity":46,"Duration":274723,"SoundDuration":274723,"Delta":55420159},{"NoteNumber":82,"Velocity":73,"Duration":273972,"SoundDuration":273972,"Delta":55422622},{"NoteNumber":70,"Velocity":62,"Duration":273972,"SoundDuration":273972,"Delta":55422622},{"NoteNumber":58,"Velocity":54,"Duration":273972,"SoundDuration":273972,"Delta":55423478},{"NoteNumber":45,"Velocity":42,"Duration":136356,"SoundDuration":136356,"Delta":55695738},{"NoteNumber":57,"Velocity":50,"Duration":136356,"SoundDuration":136356,"Delta":55695738},{"NoteNumber":69,"Velocity":56,"Duration":136286,"SoundDuration":136286,"Delta":55696594},{"NoteNumber":81,"Velocity":67,"Duration":136286,"SoundDuration":136286,"Delta":55696594},{"NoteNumber":55,"Velocity":55,"Duration":125500,"SoundDuration":125500,"Delta":55831308},{"NoteNumber":43,"Velocity":46,"Duration":125490,"SoundDuration":125490,"Delta":55832881},{"NoteNumber":67,"Velocity":62,"Duration":125490,"SoundDuration":125490,"Delta":55832881},{"NoteNumber":79,"Velocity":74,"Duration":125490,"SoundDuration":125490,"Delta":55832881},{"NoteNumber":53,"Velocity":52,"Duration":124497,"SoundDuration":124497,"Delta":55957590},{"NoteNumber":41,"Velocity":44,"Duration":124490,"SoundDuration":124490,"Delta":55958372},{"NoteNumber":77,"Velocity":70,"Duration":124490,"SoundDuration":124490,"Delta":55958372},{"NoteNumber":65,"Velocity":59,"Duration":124490,"SoundDuration":124490,"Delta":55958372},{"NoteNumber":76,"Velocity":70,"Duration":123552,"SoundDuration":123552,"Delta":56082862},{"NoteNumber":64,"Velocity":59,"Duration":123552,"SoundDuration":123552,"Delta":56082862},{"NoteNumber":52,"Velocity":52,"Duration":123547,"SoundDuration":123547,"Delta":56083636},{"NoteNumber":40,"Velocity":44,"Duration":123543,"SoundDuration":123543,"Delta":56084410},{"NoteNumber":50,"Velocity":48,"Duration":122582,"SoundDuration":122582,"Delta":56206415},{"NoteNumber":74,"Velocity":64,"Duration":122582,"SoundDuration":122582,"Delta":56206415},{"NoteNumber":62,"Velocity":54,"Duration":122582,"SoundDuration":122582,"Delta":56206415},{"NoteNumber":38,"Velocity":40,"Duration":122561,"SoundDuration":122561,"Delta":56208722},{"NoteNumber":49,"Velocity":53,"Duration":121631,"SoundDuration":121631,"Delta":56328235},{"NoteNumber":61,"Velocity":60,"Duration":121627,"SoundDuration":121627,"Delta":56328997},{"NoteNumber":73,"Velocity":71,"Duration":121627,"SoundDuration":121627,"Delta":56328997},{"NoteNumber":37,"Velocity":45,"Duration":121627,"SoundDuration":121627,"Delta":56328997},{"NoteNumber":40,"Velocity":42,"Duration":120739,"SoundDuration":120739,"Delta":56449867},{"NoteNumber":64,"Velocity":56,"Duration":120732,"SoundDuration":120732,"Delta":56450625},{"NoteNumber":76,"Velocity":67,"Duration":120732,"SoundDuration":120732,"Delta":56450625},{"NoteNumber":52,"Velocity":50,"Duration":120725,"SoundDuration":120725,"Delta":56451382},{"NoteNumber":48,"Velocity":54,"Duration":119770,"SoundDuration":119770,"Delta":56569856},{"NoteNumber":36,"Velocity":46,"Duration":119765,"SoundDuration":119765,"Delta":56570607},{"NoteNumber":60,"Velocity":62,"Duration":119761,"SoundDuration":119761,"Delta":56571357},{"NoteNumber":72,"Velocity":73,"Duration":119761,"SoundDuration":119761,"Delta":56571357},{"NoteNumber":76,"Velocity":69,"Duration":118937,"SoundDuration":118937,"Delta":56691118},{"NoteNumber":64,"Velocity":58,"Duration":118937,"SoundDuration":118937,"Delta":56691118},{"NoteNumber":52,"Velocity":51,"Duration":118924,"SoundDuration":118924,"Delta":56692611},{"NoteNumber":40,"Velocity":43,"Duration":118924,"SoundDuration":118924,"Delta":56692611},{"NoteNumber":71,"Velocity":73,"Duration":118190,"SoundDuration":118190,"Delta":56810056},{"NoteNumber":59,"Velocity":62,"Duration":118190,"SoundDuration":118190,"Delta":56810056},{"NoteNumber":47,"Velocity":54,"Duration":118202,"SoundDuration":118202,"Delta":56810796},{"NoteNumber":35,"Velocity":46,"Duration":118225,"SoundDuration":118225,"Delta":56812275},{"NoteNumber":40,"Velocity":42,"Duration":121241,"SoundDuration":121241,"Delta":56926763},{"NoteNumber":76,"Velocity":67,"Duration":121316,"SoundDuration":121316,"Delta":56928247},{"NoteNumber":64,"Velocity":56,"Duration":121316,"SoundDuration":121316,"Delta":56928247},{"NoteNumber":52,"Velocity":50,"Duration":121400,"SoundDuration":121400,"Delta":56930501},{"NoteNumber":46,"Velocity":57,"Duration":125611,"SoundDuration":125611,"Delta":57048784},{"NoteNumber":34,"Velocity":48,"Duration":125659,"SoundDuration":125659,"Delta":57049563},{"NoteNumber":70,"Velocity":76,"Duration":125659,"SoundDuration":125659,"Delta":57049563},{"NoteNumber":58,"Velocity":64,"Duration":125659,"SoundDuration":125659,"Delta":57049563},{"NoteNumber":76,"Velocity":70,"Duration":132459,"SoundDuration":132459,"Delta":57175223},{"NoteNumber":64,"Velocity":59,"Duration":132459,"SoundDuration":132459,"Delta":57175223},{"NoteNumber":40,"Velocity":44,"Duration":132459,"SoundDuration":132459,"Delta":57175223},{"NoteNumber":52,"Velocity":52,"Duration":132644,"SoundDuration":132644,"Delta":57177707},{"NoteNumber":33,"Velocity":51,"Duration":213523,"SoundDuration":213523,"Delta":57307682},{"NoteNumber":69,"Velocity":81,"Duration":213523,"SoundDuration":213523,"Delta":57307682},{"NoteNumber":57,"Velocity":68,"Duration":213523,"SoundDuration":213523,"Delta":57307682},{"NoteNumber":45,"Velocity":60,"Duration":213523,"SoundDuration":213523,"Delta":57307682},{"NoteNumber":85,"Velocity":76,"Duration":274914,"SoundDuration":274914,"Delta":57734728},{"NoteNumber":73,"Velocity":76,"Duration":274914,"SoundDuration":274914,"Delta":57734728},{"NoteNumber":61,"Velocity":56,"Duration":274914,"SoundDuration":274914,"Delta":57735587},{"NoteNumber":49,"Velocity":47,"Duration":274914,"SoundDuration":274914,"Delta":57737305},{"NoteNumber":46,"Velocity":45,"Duration":137456,"SoundDuration":137456,"Delta":58007924},{"NoteNumber":58,"Velocity":53,"Duration":137457,"SoundDuration":137457,"Delta":58008783},{"NoteNumber":70,"Velocity":57,"Duration":137456,"SoundDuration":137456,"Delta":58009642},{"NoteNumber":82,"Velocity":68,"Duration":137456,"SoundDuration":137456,"Delta":58009642},{"NoteNumber":81,"Velocity":73,"Duration":125852,"SoundDuration":125852,"Delta":58147099},{"NoteNumber":69,"Velocity":62,"Duration":125852,"SoundDuration":125852,"Delta":58147099},{"NoteNumber":45,"Velocity":48,"Duration":125691,"SoundDuration":125691,"Delta":58148817},{"NoteNumber":57,"Velocity":57,"Duration":125611,"SoundDuration":125611,"Delta":58149676},{"NoteNumber":43,"Velocity":43,"Duration":124111,"SoundDuration":124111,"Delta":58272173},{"NoteNumber":55,"Velocity":51,"Duration":124111,"SoundDuration":124111,"Delta":58272173},{"NoteNumber":67,"Velocity":59,"Duration":124104,"SoundDuration":124104,"Delta":58272952},{"NoteNumber":79,"Velocity":70,"Duration":124104,"SoundDuration":124104,"Delta":58272952},{"NoteNumber":53,"Velocity":51,"Duration":123077,"SoundDuration":123077,"Delta":58397056},{"NoteNumber":77,"Velocity":68,"Duration":123077,"SoundDuration":123077,"Delta":58397056},{"NoteNumber":65,"Velocity":57,"Duration":123077,"SoundDuration":123077,"Delta":58397056},{"NoteNumber":41,"Velocity":43,"Duration":123072,"SoundDuration":123072,"Delta":58397827},{"NoteNumber":52,"Velocity":56,"Duration":122075,"SoundDuration":122075,"Delta":58519367},{"NoteNumber":76,"Velocity":72,"Duration":122068,"SoundDuration":122068,"Delta":58520133},{"NoteNumber":64,"Velocity":61,"Duration":122068,"SoundDuration":122068,"Delta":58520133},{"NoteNumber":40,"Velocity":47,"Duration":122061,"SoundDuration":122061,"Delta":58520900},{"NoteNumber":55,"Velocity":50,"Duration":121013,"SoundDuration":121013,"Delta":58641442},{"NoteNumber":79,"Velocity":64,"Duration":121006,"SoundDuration":121006,"Delta":58642202},{"NoteNumber":67,"Velocity":54,"Duration":121006,"SoundDuration":121006,"Delta":58642202},{"NoteNumber":43,"Velocity":42,"Duration":121000,"SoundDuration":121000,"Delta":58642962},{"NoteNumber":75,"Velocity":72,"Duration":120008,"SoundDuration":120008,"Delta":58763209},{"NoteNumber":63,"Velocity":61,"Duration":120008,"SoundDuration":120008,"Delta":58763209},{"NoteNumber":51,"Velocity":56,"Duration":120001,"SoundDuration":120001,"Delta":58763962},{"NoteNumber":39,"Velocity":47,"Duration":119994,"SoundDuration":119994,"Delta":58764715},{"NoteNumber":55,"Velocity":49,"Duration":119057,"SoundDuration":119057,"Delta":58881724},{"NoteNumber":79,"Velocity":66,"Duration":119048,"SoundDuration":119048,"Delta":58883217},{"NoteNumber":67,"Velocity":56,"Duration":119048,"SoundDuration":119048,"Delta":58883217},{"NoteNumber":43,"Velocity":41,"Duration":119043,"SoundDuration":119043,"Delta":58883963},{"NoteNumber":62,"Velocity":62,"Duration":118103,"SoundDuration":118103,"Delta":59002265},{"NoteNumber":74,"Velocity":73,"Duration":118103,"SoundDuration":118103,"Delta":59002265},{"NoteNumber":38,"Velocity":48,"Duration":118097,"SoundDuration":118097,"Delta":59003007},{"NoteNumber":50,"Velocity":57,"Duration":118097,"SoundDuration":118097,"Delta":59003007},{"NoteNumber":43,"Velocity":42,"Duration":117016,"SoundDuration":117016,"Delta":59120369},{"NoteNumber":79,"Velocity":66,"Duration":117016,"SoundDuration":117016,"Delta":59120369},{"NoteNumber":67,"Velocity":56,"Duration":117016,"SoundDuration":117016,"Delta":59120369},{"NoteNumber":55,"Velocity":50,"Duration":117014,"SoundDuration":117014,"Delta":59121104},{"NoteNumber":37,"Velocity":48,"Duration":118559,"SoundDuration":118559,"Delta":59235923},{"NoteNumber":73,"Velocity":74,"Duration":118594,"SoundDuration":118594,"Delta":59237385},{"NoteNumber":61,"Velocity":62,"Duration":118594,"SoundDuration":118594,"Delta":59237385},{"NoteNumber":49,"Velocity":57,"Duration":118611,"SoundDuration":118611,"Delta":59238119},{"NoteNumber":43,"Velocity":42,"Duration":122188,"SoundDuration":122188,"Delta":59355231},{"NoteNumber":79,"Velocity":67,"Duration":122209,"SoundDuration":122209,"Delta":59355980},{"NoteNumber":67,"Velocity":56,"Duration":122209,"SoundDuration":122209,"Delta":59355980},{"NoteNumber":55,"Velocity":50,"Duration":122245,"SoundDuration":122245,"Delta":59357482},{"NoteNumber":34,"Velocity":51,"Duration":141063,"SoundDuration":141063,"Delta":59478189},{"NoteNumber":58,"Velocity":63,"Duration":141063,"SoundDuration":141063,"Delta":59478189},{"NoteNumber":70,"Velocity":75,"Duration":141063,"SoundDuration":141063,"Delta":59478189},{"NoteNumber":46,"Velocity":60,"Duration":141080,"SoundDuration":141080,"Delta":59478958},{"NoteNumber":55,"Velocity":61,"Duration":94472,"SoundDuration":94472,"Delta":59618333},{"NoteNumber":43,"Velocity":49,"Duration":94339,"SoundDuration":94339,"Delta":59619252},{"NoteNumber":67,"Velocity":69,"Duration":94339,"SoundDuration":94339,"Delta":59619252},{"NoteNumber":79,"Velocity":86,"Duration":94339,"SoundDuration":94339,"Delta":59619252},{"NoteNumber":57,"Velocity":63,"Duration":128205,"SoundDuration":128205,"Delta":59807931},{"NoteNumber":69,"Velocity":74,"Duration":128205,"SoundDuration":128205,"Delta":59807931},{"NoteNumber":33,"Velocity":45,"Duration":128205,"SoundDuration":128205,"Delta":59807931},{"NoteNumber":45,"Velocity":54,"Duration":128205,"SoundDuration":128205,"Delta":59807931},{"NoteNumber":52,"Velocity":44,"Duration":275332,"SoundDuration":275332,"Delta":60062205},{"NoteNumber":64,"Velocity":52,"Duration":275123,"SoundDuration":275123,"Delta":60063273},{"NoteNumber":88,"Velocity":74,"Duration":274914,"SoundDuration":274914,"Delta":60064342},{"NoteNumber":76,"Velocity":63,"Duration":274914,"SoundDuration":274914,"Delta":60064342},{"NoteNumber":62,"Velocity":45,"Duration":135369,"SoundDuration":135369,"Delta":60338397},{"NoteNumber":74,"Velocity":54,"Duration":135324,"SoundDuration":135324,"Delta":60339256},{"NoteNumber":86,"Velocity":64,"Duration":135324,"SoundDuration":135324,"Delta":60339256},{"NoteNumber":50,"Velocity":37,"Duration":135235,"SoundDuration":135235,"Delta":60340974},{"NoteNumber":61,"Velocity":49,"Duration":129577,"SoundDuration":129577,"Delta":60472952},{"NoteNumber":49,"Velocity":41,"Duration":129577,"SoundDuration":129577,"Delta":60472952},{"NoteNumber":85,"Velocity":71,"Duration":129556,"SoundDuration":129556,"Delta":60474581},{"NoteNumber":73,"Velocity":60,"Duration":129556,"SoundDuration":129556,"Delta":60474581},{"NoteNumber":58,"Velocity":41,"Duration":127920,"SoundDuration":127920,"Delta":60602529},{"NoteNumber":82,"Velocity":60,"Duration":127899,"SoundDuration":127899,"Delta":60604137},{"NoteNumber":70,"Velocity":50,"Duration":127899,"SoundDuration":127899,"Delta":60604137},{"NoteNumber":46,"Velocity":35,"Duration":127899,"SoundDuration":127899,"Delta":60604137},{"NoteNumber":57,"Velocity":41,"Duration":135631,"SoundDuration":135631,"Delta":60730449},{"NoteNumber":81,"Velocity":60,"Duration":135667,"SoundDuration":135667,"Delta":60732037},{"NoteNumber":69,"Velocity":50,"Duration":135667,"SoundDuration":135667,"Delta":60732037},{"NoteNumber":45,"Velocity":35,"Duration":135590,"SoundDuration":135590,"Delta":60733737},{"NoteNumber":55,"Velocity":41,"Duration":129870,"SoundDuration":129870,"Delta":60866081},{"NoteNumber":67,"Velocity":49,"Duration":129870,"SoundDuration":129870,"Delta":60866081},{"NoteNumber":91,"Velocity":71,"Duration":129870,"SoundDuration":129870,"Delta":60867705},{"NoteNumber":79,"Velocity":60,"Duration":129870,"SoundDuration":129870,"Delta":60867705},{"NoteNumber":53,"Velocity":41,"Duration":129869,"SoundDuration":129869,"Delta":60997575},{"NoteNumber":89,"Velocity":70,"Duration":129869,"SoundDuration":129869,"Delta":60997575},{"NoteNumber":77,"Velocity":59,"Duration":129869,"SoundDuration":129869,"Delta":60997575},{"NoteNumber":65,"Velocity":48,"Duration":129869,"SoundDuration":129869,"Delta":61000010},{"NoteNumber":88,"Velocity":68,"Duration":129869,"SoundDuration":129869,"Delta":61127445},{"NoteNumber":76,"Velocity":57,"Duration":129869,"SoundDuration":129869,"Delta":61127445},{"NoteNumber":52,"Velocity":39,"Duration":129870,"SoundDuration":129870,"Delta":61128256},{"NoteNumber":64,"Velocity":47,"Duration":129870,"SoundDuration":129870,"Delta":61128256},{"NoteNumber":50,"Velocity":38,"Duration":129870,"SoundDuration":129870,"Delta":61256503},{"NoteNumber":86,"Velocity":66,"Duration":129870,"SoundDuration":129870,"Delta":61257315},{"NoteNumber":74,"Velocity":55,"Duration":129870,"SoundDuration":129870,"Delta":61257315},{"NoteNumber":62,"Velocity":45,"Duration":129870,"SoundDuration":129870,"Delta":61258938},{"NoteNumber":49,"Velocity":38,"Duration":129869,"SoundDuration":129869,"Delta":61387185},{"NoteNumber":85,"Velocity":65,"Duration":129869,"SoundDuration":129869,"Delta":61387185},{"NoteNumber":73,"Velocity":55,"Duration":129869,"SoundDuration":129869,"Delta":61387185},{"NoteNumber":61,"Velocity":45,"Duration":129958,"SoundDuration":129958,"Delta":61388808},{"NoteNumber":70,"Velocity":46,"Duration":136986,"SoundDuration":136986,"Delta":61517055},{"NoteNumber":82,"Velocity":57,"Duration":136986,"SoundDuration":136986,"Delta":61517055},{"NoteNumber":94,"Velocity":67,"Duration":136986,"SoundDuration":136986,"Delta":61517055},{"NoteNumber":58,"Velocity":39,"Duration":136837,"SoundDuration":136837,"Delta":61519623},{"NoteNumber":69,"Velocity":53,"Duration":129082,"SoundDuration":129082,"Delta":61653185},{"NoteNumber":57,"Velocity":44,"Duration":129032,"SoundDuration":129032,"Delta":61654041},{"NoteNumber":81,"Velocity":64,"Duration":129032,"SoundDuration":129032,"Delta":61654041},{"NoteNumber":93,"Velocity":76,"Duration":129032,"SoundDuration":129032,"Delta":61654041},{"NoteNumber":55,"Velocity":43,"Duration":129032,"SoundDuration":129032,"Delta":61782267},{"NoteNumber":79,"Velocity":62,"Duration":129032,"SoundDuration":129032,"Delta":61783073},{"NoteNumber":91,"Velocity":74,"Duration":129032,"SoundDuration":129032,"Delta":61783073},{"NoteNumber":67,"Velocity":51,"Duration":129032,"SoundDuration":129032,"Delta":61784686},{"NoteNumber":65,"Velocity":48,"Duration":129032,"SoundDuration":129032,"Delta":61911299},{"NoteNumber":53,"Velocity":40,"Duration":129032,"SoundDuration":129032,"Delta":61911299},{"NoteNumber":77,"Velocity":58,"Duration":129032,"SoundDuration":129032,"Delta":61912106},{"NoteNumber":89,"Velocity":69,"Duration":129032,"SoundDuration":129032,"Delta":61912106},{"NoteNumber":76,"Velocity":55,"Duration":129032,"SoundDuration":129032,"Delta":62041138},{"NoteNumber":88,"Velocity":65,"Duration":129032,"SoundDuration":129032,"Delta":62041138},{"NoteNumber":52,"Velocity":38,"Duration":129032,"SoundDuration":129032,"Delta":62041138},{"NoteNumber":64,"Velocity":45,"Duration":129067,"SoundDuration":129067,"Delta":62041944},{"NoteNumber":88,"Velocity":69,"Duration":134679,"SoundDuration":134679,"Delta":62170170},{"NoteNumber":100,"Velocity":82,"Duration":134679,"SoundDuration":134679,"Delta":62170170},{"NoteNumber":76,"Velocity":57,"Duration":134642,"SoundDuration":134642,"Delta":62171012},{"NoteNumber":64,"Velocity":48,"Duration":134566,"SoundDuration":134566,"Delta":62172695},{"NoteNumber":62,"Velocity":47,"Duration":128655,"SoundDuration":128655,"Delta":62304008},{"NoteNumber":98,"Velocity":81,"Duration":128617,"SoundDuration":128617,"Delta":62304850},{"NoteNumber":86,"Velocity":68,"Duration":128617,"SoundDuration":128617,"Delta":62304850},{"NoteNumber":74,"Velocity":56,"Duration":128617,"SoundDuration":128617,"Delta":62304850},{"NoteNumber":97,"Velocity":79,"Duration":128617,"SoundDuration":128617,"Delta":62433468},{"NoteNumber":85,"Velocity":67,"Duration":128617,"SoundDuration":128617,"Delta":62433468},{"NoteNumber":61,"Velocity":46,"Duration":128617,"SoundDuration":128617,"Delta":62434271},{"NoteNumber":73,"Velocity":55,"Duration":128617,"SoundDuration":128617,"Delta":62434271},{"NoteNumber":70,"Velocity":51,"Duration":128617,"SoundDuration":128617,"Delta":62561281},{"NoteNumber":82,"Velocity":62,"Duration":128617,"SoundDuration":128617,"Delta":62562085},{"NoteNumber":94,"Velocity":74,"Duration":128617,"SoundDuration":128617,"Delta":62562085},{"NoteNumber":58,"Velocity":43,"Duration":128617,"SoundDuration":128617,"Delta":62563693},{"NoteNumber":69,"Velocity":56,"Duration":128596,"SoundDuration":128596,"Delta":62689095},{"NoteNumber":93,"Velocity":80,"Duration":128591,"SoundDuration":128591,"Delta":62690702},{"NoteNumber":81,"Velocity":68,"Duration":128591,"SoundDuration":128591,"Delta":62690702},{"NoteNumber":57,"Velocity":47,"Duration":128583,"SoundDuration":128583,"Delta":62693114},{"NoteNumber":70,"Velocity":50,"Duration":128184,"SoundDuration":128184,"Delta":62817691},{"NoteNumber":58,"Velocity":42,"Duration":128181,"SoundDuration":128181,"Delta":62818493},{"NoteNumber":94,"Velocity":72,"Duration":128179,"SoundDuration":128179,"Delta":62819294},{"NoteNumber":82,"Velocity":61,"Duration":128179,"SoundDuration":128179,"Delta":62819294},{"NoteNumber":91,"Velocity":81,"Duration":127719,"SoundDuration":127719,"Delta":62947473},{"NoteNumber":79,"Velocity":68,"Duration":127719,"SoundDuration":127719,"Delta":62947473},{"NoteNumber":67,"Velocity":56,"Duration":127719,"SoundDuration":127719,"Delta":62947473},{"NoteNumber":55,"Velocity":47,"Duration":127716,"SoundDuration":127716,"Delta":62948272},{"NoteNumber":58,"Velocity":42,"Duration":127264,"SoundDuration":127264,"Delta":63074396},{"NoteNumber":82,"Velocity":60,"Duration":127262,"SoundDuration":127262,"Delta":63075193},{"NoteNumber":94,"Velocity":71,"Duration":127262,"SoundDuration":127262,"Delta":63075193},{"NoteNumber":70,"Velocity":49,"Duration":127262,"SoundDuration":127262,"Delta":63075193},{"NoteNumber":53,"Velocity":47,"Duration":126863,"SoundDuration":126863,"Delta":63200867},{"NoteNumber":89,"Velocity":80,"Duration":126858,"SoundDuration":126858,"Delta":63202455},{"NoteNumber":77,"Velocity":68,"Duration":126858,"SoundDuration":126858,"Delta":63202455},{"NoteNumber":65,"Velocity":56,"Duration":126855,"SoundDuration":126855,"Delta":63203248},{"NoteNumber":67,"Velocity":50,"Duration":126407,"SoundDuration":126407,"Delta":63329313},{"NoteNumber":91,"Velocity":72,"Duration":126407,"SoundDuration":126407,"Delta":63329313},{"NoteNumber":79,"Velocity":61,"Duration":126407,"SoundDuration":126407,"Delta":63329313},{"NoteNumber":55,"Velocity":42,"Duration":126407,"SoundDuration":126407,"Delta":63329313},{"NoteNumber":64,"Velocity":56,"Duration":125964,"SoundDuration":125964,"Delta":63454144},{"NoteNumber":88,"Velocity":81,"Duration":125959,"SoundDuration":125959,"Delta":63455721},{"NoteNumber":76,"Velocity":68,"Duration":125959,"SoundDuration":125959,"Delta":63455721},{"NoteNumber":52,"Velocity":47,"Duration":125959,"SoundDuration":125959,"Delta":63455721},{"NoteNumber":67,"Velocity":50,"Duration":125569,"SoundDuration":125569,"Delta":63580108},{"NoteNumber":55,"Velocity":42,"Duration":125569,"SoundDuration":125569,"Delta":63580108},{"NoteNumber":79,"Velocity":61,"Duration":125564,"SoundDuration":125564,"Delta":63581681},{"NoteNumber":91,"Velocity":72,"Duration":125564,"SoundDuration":125564,"Delta":63581681},{"NoteNumber":50,"Velocity":48,"Duration":125124,"SoundDuration":125124,"Delta":63706461},{"NoteNumber":74,"Velocity":69,"Duration":125122,"SoundDuration":125122,"Delta":63707245},{"NoteNumber":86,"Velocity":82,"Duration":125122,"SoundDuration":125122,"Delta":63707245},{"NoteNumber":62,"Velocity":57,"Duration":125117,"SoundDuration":125117,"Delta":63708812},{"NoteNumber":76,"Velocity":62,"Duration":124683,"SoundDuration":124683,"Delta":63832367},{"NoteNumber":88,"Velocity":74,"Duration":124683,"SoundDuration":124683,"Delta":63832367},{"NoteNumber":52,"Velocity":43,"Duration":124676,"SoundDuration":124676,"Delta":63834711},{"NoteNumber":64,"Velocity":51,"Duration":124676,"SoundDuration":124676,"Delta":63834711},{"NoteNumber":49,"Velocity":47,"Duration":124296,"SoundDuration":124296,"Delta":63957051},{"NoteNumber":73,"Velocity":68,"Duration":124296,"SoundDuration":124296,"Delta":63957051},{"NoteNumber":85,"Velocity":81,"Duration":124296,"SoundDuration":124296,"Delta":63957051},{"NoteNumber":61,"Velocity":56,"Duration":124288,"SoundDuration":124288,"Delta":63959388},{"NoteNumber":52,"Velocity":42,"Duration":123839,"SoundDuration":123839,"Delta":64081347},{"NoteNumber":76,"Velocity":61,"Duration":123839,"SoundDuration":123839,"Delta":64081347},{"NoteNumber":88,"Velocity":72,"Duration":123839,"SoundDuration":123839,"Delta":64081347},{"NoteNumber":64,"Velocity":50,"Duration":123839,"SoundDuration":123839,"Delta":64081347},{"NoteNumber":46,"Velocity":46,"Duration":123387,"SoundDuration":123387,"Delta":64204415},{"NoteNumber":58,"Velocity":55,"Duration":123385,"SoundDuration":123385,"Delta":64205186},{"NoteNumber":82,"Velocity":79,"Duration":123385,"SoundDuration":123385,"Delta":64205186},{"NoteNumber":70,"Velocity":67,"Duration":123385,"SoundDuration":123385,"Delta":64205186},{"NoteNumber":49,"Velocity":41,"Duration":123076,"SoundDuration":123076,"Delta":64327803},{"NoteNumber":61,"Velocity":49,"Duration":123077,"SoundDuration":123077,"Delta":64328572},{"NoteNumber":85,"Velocity":70,"Duration":123077,"SoundDuration":123077,"Delta":64328572},{"NoteNumber":73,"Velocity":59,"Duration":123077,"SoundDuration":123077,"Delta":64328572},{"NoteNumber":45,"Velocity":45,"Duration":123076,"SoundDuration":123076,"Delta":64451649},{"NoteNumber":57,"Velocity":53,"Duration":123076,"SoundDuration":123076,"Delta":64451649},{"NoteNumber":69,"Velocity":65,"Duration":123076,"SoundDuration":123076,"Delta":64451649},{"NoteNumber":81,"Velocity":77,"Duration":123076,"SoundDuration":123076,"Delta":64451649},{"NoteNumber":46,"Velocity":39,"Duration":123077,"SoundDuration":123077,"Delta":64573957},{"NoteNumber":70,"Velocity":57,"Duration":123077,"SoundDuration":123077,"Delta":64574726},{"NoteNumber":82,"Velocity":68,"Duration":123077,"SoundDuration":123077,"Delta":64574726},{"NoteNumber":58,"Velocity":47,"Duration":123076,"SoundDuration":123076,"Delta":64576264},{"NoteNumber":55,"Velocity":51,"Duration":123076,"SoundDuration":123076,"Delta":64696264},{"NoteNumber":79,"Velocity":74,"Duration":123076,"SoundDuration":123076,"Delta":64697803},{"NoteNumber":67,"Velocity":62,"Duration":123076,"SoundDuration":123076,"Delta":64697803},{"NoteNumber":43,"Velocity":43,"Duration":123076,"SoundDuration":123076,"Delta":64700111},{"NoteNumber":46,"Velocity":39,"Duration":123077,"SoundDuration":123077,"Delta":64819341},{"NoteNumber":58,"Velocity":46,"Duration":123077,"SoundDuration":123077,"Delta":64819341},{"NoteNumber":70,"Velocity":56,"Duration":123076,"SoundDuration":123076,"Delta":64820880},{"NoteNumber":82,"Velocity":67,"Duration":123076,"SoundDuration":123076,"Delta":64820880},{"NoteNumber":53,"Velocity":54,"Duration":123055,"SoundDuration":123055,"Delta":64943188},{"NoteNumber":77,"Velocity":78,"Duration":123053,"SoundDuration":123053,"Delta":64943957},{"NoteNumber":65,"Velocity":66,"Duration":123053,"SoundDuration":123053,"Delta":64943957},{"NoteNumber":41,"Velocity":46,"Duration":123051,"SoundDuration":123051,"Delta":64944726},{"NoteNumber":43,"Velocity":40,"Duration":122699,"SoundDuration":122699,"Delta":65066243},{"NoteNumber":55,"Velocity":48,"Duration":122699,"SoundDuration":122699,"Delta":65066243},{"NoteNumber":67,"Velocity":58,"Duration":122699,"SoundDuration":122699,"Delta":65067010},{"NoteNumber":79,"Velocity":69,"Duration":122699,"SoundDuration":122699,"Delta":65067010},{"NoteNumber":64,"Velocity":63,"Duration":122751,"SoundDuration":122751,"Delta":65189710},{"NoteNumber":76,"Velocity":75,"Duration":122751,"SoundDuration":122751,"Delta":65189710},{"NoteNumber":52,"Velocity":52,"Duration":122755,"SoundDuration":122755,"Delta":65191243},{"NoteNumber":40,"Velocity":44,"Duration":122755,"SoundDuration":122755,"Delta":65191243},{"NoteNumber":43,"Velocity":40,"Duration":123076,"SoundDuration":123076,"Delta":65311692},{"NoteNumber":67,"Velocity":58,"Duration":123076,"SoundDuration":123076,"Delta":65312461},{"NoteNumber":79,"Velocity":69,"Duration":123076,"SoundDuration":123076,"Delta":65312461},{"NoteNumber":55,"Velocity":48,"Duration":123076,"SoundDuration":123076,"Delta":65314769},{"NoteNumber":38,"Velocity":44,"Duration":123224,"SoundDuration":123224,"Delta":65435538},{"NoteNumber":74,"Velocity":76,"Duration":123224,"SoundDuration":123224,"Delta":65435538},{"NoteNumber":62,"Velocity":64,"Duration":123224,"SoundDuration":123224,"Delta":65435538},{"NoteNumber":50,"Velocity":53,"Duration":123226,"SoundDuration":123226,"Delta":65436307},{"NoteNumber":52,"Velocity":49,"Duration":123456,"SoundDuration":123456,"Delta":65557219},{"NoteNumber":40,"Velocity":41,"Duration":123456,"SoundDuration":123456,"Delta":65557990},{"NoteNumber":76,"Velocity":70,"Duration":123456,"SoundDuration":123456,"Delta":65558762},{"NoteNumber":64,"Velocity":59,"Duration":123456,"SoundDuration":123456,"Delta":65558762},{"NoteNumber":37,"Velocity":44,"Duration":123748,"SoundDuration":123748,"Delta":65682219},{"NoteNumber":73,"Velocity":76,"Duration":123748,"SoundDuration":123748,"Delta":65682219},{"NoteNumber":61,"Velocity":64,"Duration":123748,"SoundDuration":123748,"Delta":65682219},{"NoteNumber":49,"Velocity":53,"Duration":123752,"SoundDuration":123752,"Delta":65683762},{"NoteNumber":52,"Velocity":48,"Duration":123839,"SoundDuration":123839,"Delta":65804419},{"NoteNumber":64,"Velocity":58,"Duration":123843,"SoundDuration":123843,"Delta":65805967},{"NoteNumber":76,"Velocity":69,"Duration":123843,"SoundDuration":123843,"Delta":65805967},{"NoteNumber":40,"Velocity":40,"Duration":123846,"SoundDuration":123846,"Delta":65806741},{"NoteNumber":34,"Velocity":45,"Duration":124223,"SoundDuration":124223,"Delta":65928258},{"NoteNumber":70,"Velocity":77,"Duration":124223,"SoundDuration":124223,"Delta":65929811},{"NoteNumber":58,"Velocity":65,"Duration":124223,"SoundDuration":124223,"Delta":65929811},{"NoteNumber":46,"Velocity":53,"Duration":124223,"SoundDuration":124223,"Delta":65929811},{"NoteNumber":37,"Velocity":42,"Duration":124368,"SoundDuration":124368,"Delta":66052482},{"NoteNumber":49,"Velocity":49,"Duration":124373,"SoundDuration":124373,"Delta":66054034},{"NoteNumber":73,"Velocity":71,"Duration":124373,"SoundDuration":124373,"Delta":66054034},{"NoteNumber":61,"Velocity":60,"Duration":124373,"SoundDuration":124373,"Delta":66054034},{"NoteNumber":69,"Velocity":78,"Duration":124610,"SoundDuration":124610,"Delta":66178408},{"NoteNumber":57,"Velocity":66,"Duration":124610,"SoundDuration":124610,"Delta":66178408},{"NoteNumber":33,"Velocity":46,"Duration":124610,"SoundDuration":124610,"Delta":66178408},{"NoteNumber":45,"Velocity":54,"Duration":124610,"SoundDuration":124610,"Delta":66179966},{"NoteNumber":34,"Velocity":42,"Duration":124856,"SoundDuration":124856,"Delta":66302240},{"NoteNumber":70,"Velocity":72,"Duration":124858,"SoundDuration":124858,"Delta":66303019},{"NoteNumber":58,"Velocity":61,"Duration":124858,"SoundDuration":124858,"Delta":66303019},{"NoteNumber":46,"Velocity":50,"Duration":124866,"SoundDuration":124866,"Delta":66305355},{"NoteNumber":44,"Velocity":55,"Duration":125002,"SoundDuration":125002,"Delta":66427096},{"NoteNumber":56,"Velocity":67,"Duration":125004,"SoundDuration":125004,"Delta":66427878},{"NoteNumber":68,"Velocity":79,"Duration":125004,"SoundDuration":125004,"Delta":66427878},{"NoteNumber":32,"Velocity":46,"Duration":125004,"SoundDuration":125004,"Delta":66427878},{"NoteNumber":33,"Velocity":42,"Duration":125392,"SoundDuration":125392,"Delta":66552882},{"NoteNumber":57,"Velocity":60,"Duration":125392,"SoundDuration":125392,"Delta":66552882},{"NoteNumber":69,"Velocity":71,"Duration":125392,"SoundDuration":125392,"Delta":66552882},{"NoteNumber":45,"Velocity":49,"Duration":125392,"SoundDuration":125392,"Delta":66554450},{"NoteNumber":43,"Velocity":55,"Duration":125391,"SoundDuration":125391,"Delta":66677491},{"NoteNumber":55,"Velocity":67,"Duration":125391,"SoundDuration":125391,"Delta":66678274},{"NoteNumber":67,"Velocity":79,"Duration":125391,"SoundDuration":125391,"Delta":66678274},{"NoteNumber":31,"Velocity":46,"Duration":125391,"SoundDuration":125391,"Delta":66678274},{"NoteNumber":69,"Velocity":72,"Duration":125392,"SoundDuration":125392,"Delta":66803666},{"NoteNumber":57,"Velocity":61,"Duration":125392,"SoundDuration":125392,"Delta":66803666},{"NoteNumber":45,"Velocity":50,"Duration":125392,"SoundDuration":125392,"Delta":66805234},{"NoteNumber":33,"Velocity":42,"Duration":125392,"SoundDuration":125392,"Delta":66806018},{"NoteNumber":30,"Velocity":46,"Duration":125392,"SoundDuration":125392,"Delta":66927491},{"NoteNumber":54,"Velocity":67,"Duration":125392,"SoundDuration":125392,"Delta":66929058},{"NoteNumber":66,"Velocity":79,"Duration":125392,"SoundDuration":125392,"Delta":66929058},{"NoteNumber":42,"Velocity":55,"Duration":125392,"SoundDuration":125392,"Delta":66931410},{"NoteNumber":57,"Velocity":62,"Duration":125391,"SoundDuration":125391,"Delta":67054450},{"NoteNumber":69,"Velocity":73,"Duration":125391,"SoundDuration":125391,"Delta":67054450},{"NoteNumber":33,"Velocity":43,"Duration":125391,"SoundDuration":125391,"Delta":67054450},{"NoteNumber":45,"Velocity":51,"Duration":125391,"SoundDuration":125391,"Delta":67054450},{"NoteNumber":29,"Velocity":47,"Duration":125392,"SoundDuration":125392,"Delta":67179842},{"NoteNumber":41,"Velocity":56,"Duration":125392,"SoundDuration":125392,"Delta":67179842},{"NoteNumber":65,"Velocity":80,"Duration":125392,"SoundDuration":125392,"Delta":67179842},{"NoteNumber":53,"Velocity":68,"Duration":125392,"SoundDuration":125392,"Delta":67179842},{"NoteNumber":45,"Velocity":50,"Duration":125441,"SoundDuration":125441,"Delta":67303667},{"NoteNumber":33,"Velocity":42,"Duration":125443,"SoundDuration":125443,"Delta":67304451},{"NoteNumber":57,"Velocity":61,"Duration":125446,"SoundDuration":125446,"Delta":67305234},{"NoteNumber":69,"Velocity":72,"Duration":125446,"SoundDuration":125446,"Delta":67305234},{"NoteNumber":28,"Velocity":47,"Duration":125887,"SoundDuration":125887,"Delta":67429894},{"NoteNumber":64,"Velocity":81,"Duration":125890,"SoundDuration":125890,"Delta":67430681},{"NoteNumber":52,"Velocity":68,"Duration":125890,"SoundDuration":125890,"Delta":67430681},{"NoteNumber":40,"Velocity":56,"Duration":125895,"SoundDuration":125895,"Delta":67432253},{"NoteNumber":45,"Velocity":51,"Duration":123542,"SoundDuration":123542,"Delta":67554994},{"NoteNumber":33,"Velocity":43,"Duration":123237,"SoundDuration":123237,"Delta":67556571},{"NoteNumber":69,"Velocity":74,"Duration":123237,"SoundDuration":123237,"Delta":67556571},{"NoteNumber":57,"Velocity":62,"Duration":123237,"SoundDuration":123237,"Delta":67556571},{"NoteNumber":63,"Velocity":81,"Duration":153225,"SoundDuration":153225,"Delta":67679808},{"NoteNumber":51,"Velocity":68,"Duration":153225,"SoundDuration":153225,"Delta":67679808},{"NoteNumber":27,"Velocity":47,"Duration":153235,"SoundDuration":153235,"Delta":67681081},{"NoteNumber":39,"Velocity":56,"Duration":153239,"SoundDuration":153239,"Delta":67681717},{"NoteNumber":45,"Velocity":49,"Duration":154657,"SoundDuration":154657,"Delta":67831752},{"NoteNumber":33,"Velocity":42,"Duration":154674,"SoundDuration":154674,"Delta":67833034},{"NoteNumber":57,"Velocity":60,"Duration":154674,"SoundDuration":154674,"Delta":67833034},{"NoteNumber":69,"Velocity":71,"Duration":154674,"SoundDuration":154674,"Delta":67833034},{"NoteNumber":24,"Velocity":48,"Duration":157050,"SoundDuration":157050,"Delta":67986409},{"NoteNumber":36,"Velocity":57,"Duration":157061,"SoundDuration":157061,"Delta":67987059},{"NoteNumber":60,"Velocity":82,"Duration":157071,"SoundDuration":157071,"Delta":67987708},{"NoteNumber":48,"Velocity":69,"Duration":157071,"SoundDuration":157071,"Delta":67987708},{"NoteNumber":45,"Velocity":52,"Duration":159898,"SoundDuration":159898,"Delta":68144779},{"NoteNumber":57,"Velocity":63,"Duration":159898,"SoundDuration":159898,"Delta":68144779},{"NoteNumber":69,"Velocity":75,"Duration":159898,"SoundDuration":159898,"Delta":68144779},{"NoteNumber":33,"Velocity":44,"Duration":159923,"SoundDuration":159923,"Delta":68146099},{"NoteNumber":25,"Velocity":49,"Duration":162742,"SoundDuration":162742,"Delta":68304006},{"NoteNumber":49,"Velocity":70,"Duration":162753,"SoundDuration":162753,"Delta":68304678},{"NoteNumber":61,"Velocity":83,"Duration":162753,"SoundDuration":162753,"Delta":68304678},{"NoteNumber":37,"Velocity":58,"Duration":163065,"SoundDuration":163065,"Delta":68306022},{"NoteNumber":57,"Velocity":65,"Duration":198688,"SoundDuration":198688,"Delta":68467432},{"NoteNumber":69,"Velocity":77,"Duration":198688,"SoundDuration":198688,"Delta":68467432},{"NoteNumber":33,"Velocity":45,"Duration":198929,"SoundDuration":198929,"Delta":68468260},{"NoteNumber":45,"Velocity":53,"Duration":199170,"SoundDuration":199170,"Delta":68469088},{"NoteNumber":86,"Velocity":97,"Duration":860223,"SoundDuration":860223,"Delta":68666120},{"NoteNumber":74,"Velocity":76,"Duration":860223,"SoundDuration":860223,"Delta":68666120},{"NoteNumber":77,"Velocity":76,"Duration":860223,"SoundDuration":860223,"Delta":68666120},{"NoteNumber":45,"Velocity":59,"Duration":171028,"SoundDuration":171028,"Delta":68666120},{"NoteNumber":50,"Velocity":74,"Duration":171028,"SoundDuration":171028,"Delta":68666120},{"NoteNumber":38,"Velocity":59,"Duration":171028,"SoundDuration":171028,"Delta":68666120},{"NoteNumber":52,"Velocity":48,"Duration":144414,"SoundDuration":144414,"Delta":68837148},{"NoteNumber":56,"Velocity":60,"Duration":144414,"SoundDuration":144414,"Delta":68837148},{"NoteNumber":57,"Velocity":63,"Duration":137451,"SoundDuration":137451,"Delta":68981563},{"NoteNumber":53,"Velocity":50,"Duration":137451,"SoundDuration":137451,"Delta":68981563},{"NoteNumber":64,"Velocity":65,"Duration":136700,"SoundDuration":136700,"Delta":69119015},{"NoteNumber":61,"Velocity":51,"Duration":136700,"SoundDuration":136700,"Delta":69119015},{"NoteNumber":62,"Velocity":54,"Duration":135913,"SoundDuration":135913,"Delta":69255715},{"NoteNumber":65,"Velocity":67,"Duration":135913,"SoundDuration":135913,"Delta":69255715},{"NoteNumber":38,"Velocity":75,"Duration":273700,"SoundDuration":273700,"Delta":69391628},{"NoteNumber":86,"Velocity":101,"Duration":416085,"SoundDuration":416085,"Delta":69526343},{"NoteNumber":77,"Velocity":79,"Duration":416085,"SoundDuration":416085,"Delta":69526343},{"NoteNumber":74,"Velocity":75,"Duration":416085,"SoundDuration":416085,"Delta":69526343},{"NoteNumber":45,"Velocity":62,"Duration":138985,"SoundDuration":138985,"Delta":69526343},{"NoteNumber":50,"Velocity":78,"Duration":138985,"SoundDuration":138985,"Delta":69526343},{"NoteNumber":56,"Velocity":60,"Duration":138837,"SoundDuration":138837,"Delta":69665329},{"NoteNumber":52,"Velocity":48,"Duration":138837,"SoundDuration":138837,"Delta":69665329},{"NoteNumber":57,"Velocity":63,"Duration":138262,"SoundDuration":138262,"Delta":69804167},{"NoteNumber":53,"Velocity":50,"Duration":138262,"SoundDuration":138262,"Delta":69804167},{"NoteNumber":64,"Velocity":65,"Duration":137786,"SoundDuration":137786,"Delta":69942429},{"NoteNumber":61,"Velocity":51,"Duration":137786,"SoundDuration":137786,"Delta":69942429},{"NoteNumber":62,"Velocity":54,"Duration":147792,"SoundDuration":147792,"Delta":70080215},{"NoteNumber":65,"Velocity":67,"Duration":147792,"SoundDuration":147792,"Delta":70080215},{"NoteNumber":38,"Velocity":75,"Duration":294684,"SoundDuration":294684,"Delta":70228008},{"NoteNumber":72,"Velocity":70,"Duration":116626,"SoundDuration":116626,"Delta":70267565},{"NoteNumber":84,"Velocity":89,"Duration":116626,"SoundDuration":116626,"Delta":70267565},{"NoteNumber":82,"Velocity":100,"Duration":413929,"SoundDuration":413929,"Delta":70384191},{"NoteNumber":76,"Velocity":77,"Duration":413929,"SoundDuration":413929,"Delta":70384191},{"NoteNumber":70,"Velocity":75,"Duration":413929,"SoundDuration":413929,"Delta":70384191},{"NoteNumber":43,"Velocity":63,"Duration":138501,"SoundDuration":138501,"Delta":70384191},{"NoteNumber":50,"Velocity":79,"Duration":138501,"SoundDuration":138501,"Delta":70384191},{"NoteNumber":54,"Velocity":48,"Duration":138020,"SoundDuration":138020,"Delta":70522692},{"NoteNumber":57,"Velocity":60,"Duration":138020,"SoundDuration":138020,"Delta":70522692},{"NoteNumber":55,"Velocity":50,"Duration":137407,"SoundDuration":137407,"Delta":70660713},{"NoteNumber":58,"Velocity":63,"Duration":137407,"SoundDuration":137407,"Delta":70660713},{"NoteNumber":63,"Velocity":51,"Duration":136749,"SoundDuration":136749,"Delta":70798120},{"NoteNumber":66,"Velocity":65,"Duration":136749,"SoundDuration":136749,"Delta":70798120},{"NoteNumber":64,"Velocity":54,"Duration":136141,"SoundDuration":136141,"Delta":70934870},{"NoteNumber":67,"Velocity":67,"Duration":136141,"SoundDuration":136141,"Delta":70934870},{"NoteNumber":38,"Velocity":75,"Duration":273890,"SoundDuration":273890,"Delta":71071011},{"NoteNumber":70,"Velocity":72,"Duration":415081,"SoundDuration":415081,"Delta":71205534},{"NoteNumber":76,"Velocity":72,"Duration":415081,"SoundDuration":415081,"Delta":71205534},{"NoteNumber":82,"Velocity":92,"Duration":415081,"SoundDuration":415081,"Delta":71205534},{"NoteNumber":50,"Velocity":75,"Duration":139367,"SoundDuration":139367,"Delta":71205534},{"NoteNumber":43,"Velocity":59,"Duration":139367,"SoundDuration":139367,"Delta":71205534},{"NoteNumber":54,"Velocity":48,"Duration":138262,"SoundDuration":138262,"Delta":71344902},{"NoteNumber":57,"Velocity":60,"Duration":138262,"SoundDuration":138262,"Delta":71344902},{"NoteNumber":58,"Velocity":63,"Duration":137451,"SoundDuration":137451,"Delta":71483164},{"NoteNumber":55,"Velocity":50,"Duration":137451,"SoundDuration":137451,"Delta":71483164},{"NoteNumber":63,"Velocity":51,"Duration":136700,"SoundDuration":136700,"Delta":71620616},{"NoteNumber":66,"Velocity":65,"Duration":136700,"SoundDuration":136700,"Delta":71620616},{"NoteNumber":64,"Velocity":54,"Duration":139827,"SoundDuration":139827,"Delta":71757316},{"NoteNumber":67,"Velocity":67,"Duration":139827,"SoundDuration":139827,"Delta":71757316},{"NoteNumber":37,"Velocity":75,"Duration":292713,"SoundDuration":292713,"Delta":71897144},{"NoteNumber":70,"Velocity":70,"Duration":118907,"SoundDuration":118907,"Delta":71933068},{"NoteNumber":82,"Velocity":89,"Duration":118907,"SoundDuration":118907,"Delta":71933068},{"NoteNumber":69,"Velocity":75,"Duration":411800,"SoundDuration":411800,"Delta":72051976},{"NoteNumber":76,"Velocity":75,"Duration":411800,"SoundDuration":411800,"Delta":72051976},{"NoteNumber":81,"Velocity":95,"Duration":411800,"SoundDuration":411800,"Delta":72051976},{"NoteNumber":45,"Velocity":59,"Duration":137880,"SoundDuration":137880,"Delta":72051976},{"NoteNumber":49,"Velocity":75,"Duration":137880,"SoundDuration":137880,"Delta":72051976},{"NoteNumber":54,"Velocity":60,"Duration":137313,"SoundDuration":137313,"Delta":72189857},{"NoteNumber":51,"Velocity":48,"Duration":137313,"SoundDuration":137313,"Delta":72189857},{"NoteNumber":55,"Velocity":63,"Duration":136606,"SoundDuration":136606,"Delta":72327170},{"NoteNumber":52,"Velocity":50,"Duration":136606,"SoundDuration":136606,"Delta":72327170},{"NoteNumber":63,"Velocity":65,"Duration":136005,"SoundDuration":136005,"Delta":72463777},{"NoteNumber":60,"Velocity":51,"Duration":136005,"SoundDuration":136005,"Delta":72463777},{"NoteNumber":61,"Velocity":54,"Duration":139597,"SoundDuration":139597,"Delta":72599782},{"NoteNumber":64,"Velocity":67,"Duration":139597,"SoundDuration":139597,"Delta":72599782},{"NoteNumber":33,"Velocity":75,"Duration":153497,"SoundDuration":153497,"Delta":72739380},{"NoteNumber":69,"Velocity":70,"Duration":117573,"SoundDuration":117573,"Delta":72775304},{"NoteNumber":81,"Velocity":89,"Duration":117573,"SoundDuration":117573,"Delta":72775304},{"NoteNumber":88,"Velocity":95,"Duration":411569,"SoundDuration":411569,"Delta":72892878},{"NoteNumber":79,"Velocity":75,"Duration":411569,"SoundDuration":411569,"Delta":72892878},{"NoteNumber":76,"Velocity":75,"Duration":411569,"SoundDuration":411569,"Delta":72892878},{"NoteNumber":37,"Velocity":68,"Duration":137743,"SoundDuration":137743,"Delta":72892878},{"NoteNumber":45,"Velocity":75,"Duration":137743,"SoundDuration":137743,"Delta":72892878},{"NoteNumber":51,"Velocity":47,"Duration":137218,"SoundDuration":137218,"Delta":73030621},{"NoteNumber":54,"Velocity":59,"Duration":137218,"SoundDuration":137218,"Delta":73030621},{"NoteNumber":55,"Velocity":61,"Duration":136606,"SoundDuration":136606,"Delta":73167840},{"NoteNumber":52,"Velocity":49,"Duration":136606,"SoundDuration":136606,"Delta":73167840},{"NoteNumber":60,"Velocity":48,"Duration":136005,"SoundDuration":136005,"Delta":73304447},{"NoteNumber":63,"Velocity":62,"Duration":136005,"SoundDuration":136005,"Delta":73304447},{"NoteNumber":61,"Velocity":51,"Duration":138998,"SoundDuration":138998,"Delta":73440452},{"NoteNumber":64,"Velocity":63,"Duration":138998,"SoundDuration":138998,"Delta":73440452},{"NoteNumber":38,"Velocity":70,"Duration":280400,"SoundDuration":280400,"Delta":73579451},{"NoteNumber":67,"Velocity":57,"Duration":106875,"SoundDuration":106875,"Delta":73615076},{"NoteNumber":79,"Velocity":74,"Duration":106875,"SoundDuration":106875,"Delta":73615076},{"NoteNumber":65,"Velocity":61,"Duration":411725,"SoundDuration":411725,"Delta":73721952},{"NoteNumber":69,"Velocity":61,"Duration":411725,"SoundDuration":411725,"Delta":73721952},{"NoteNumber":77,"Velocity":78,"Duration":411725,"SoundDuration":411725,"Delta":73721952},{"NoteNumber":50,"Velocity":69,"Duration":137899,"SoundDuration":137899,"Delta":73721952},{"NoteNumber":45,"Velocity":59,"Duration":137889,"SoundDuration":137889,"Delta":73725400},{"NoteNumber":56,"Velocity":50,"Duration":137313,"SoundDuration":137313,"Delta":73859851},{"NoteNumber":52,"Velocity":39,"Duration":137313,"SoundDuration":137313,"Delta":73859851},{"NoteNumber":57,"Velocity":50,"Duration":136513,"SoundDuration":136513,"Delta":73997164},{"NoteNumber":53,"Velocity":40,"Duration":136513,"SoundDuration":136513,"Delta":73997164},{"NoteNumber":64,"Velocity":51,"Duration":135772,"SoundDuration":135772,"Delta":74133678},{"NoteNumber":61,"Velocity":40,"Duration":135772,"SoundDuration":135772,"Delta":74133678},{"NoteNumber":62,"Velocity":41,"Duration":137988,"SoundDuration":137988,"Delta":74269450},{"NoteNumber":65,"Velocity":52,"Duration":137988,"SoundDuration":137988,"Delta":74269450},{"NoteNumber":38,"Velocity":63,"Duration":278262,"SoundDuration":278262,"Delta":74407438},{"NoteNumber":69,"Velocity":53,"Duration":104670,"SoundDuration":104670,"Delta":74442627},{"NoteNumber":81,"Velocity":69,"Duration":104670,"SoundDuration":104670,"Delta":74442627},{"NoteNumber":65,"Velocity":58,"Duration":412887,"SoundDuration":412887,"Delta":74547298},{"NoteNumber":74,"Velocity":73,"Duration":412887,"SoundDuration":412887,"Delta":74547298},{"NoteNumber":62,"Velocity":58,"Duration":412887,"SoundDuration":412887,"Delta":74547298},{"NoteNumber":50,"Velocity":58,"Duration":138402,"SoundDuration":138402,"Delta":74547298},{"NoteNumber":45,"Velocity":46,"Duration":138402,"SoundDuration":138402,"Delta":74547298},{"NoteNumber":52,"Velocity":35,"Duration":137641,"SoundDuration":137641,"Delta":74685701},{"NoteNumber":56,"Velocity":45,"Duration":137641,"SoundDuration":137641,"Delta":74685701},{"NoteNumber":53,"Velocity":35,"Duration":136843,"SoundDuration":136843,"Delta":74823342},{"NoteNumber":57,"Velocity":45,"Duration":136843,"SoundDuration":136843,"Delta":74823342},{"NoteNumber":64,"Velocity":45,"Duration":136049,"SoundDuration":136049,"Delta":74960185},{"NoteNumber":61,"Velocity":36,"Duration":136049,"SoundDuration":136049,"Delta":74960185},{"NoteNumber":62,"Velocity":36,"Duration":136170,"SoundDuration":136170,"Delta":75096234},{"NoteNumber":65,"Velocity":45,"Duration":136170,"SoundDuration":136170,"Delta":75096234},{"NoteNumber":36,"Velocity":57,"Duration":295924,"SoundDuration":295924,"Delta":75232405},{"NoteNumber":76,"Velocity":57,"Duration":410807,"SoundDuration":410807,"Delta":75390389},{"NoteNumber":84,"Velocity":73,"Duration":410807,"SoundDuration":410807,"Delta":75390389},{"NoteNumber":72,"Velocity":57,"Duration":410807,"SoundDuration":410807,"Delta":75390389},{"NoteNumber":48,"Velocity":57,"Duration":137940,"SoundDuration":137940,"Delta":75390389},{"NoteNumber":43,"Velocity":45,"Duration":137940,"SoundDuration":137940,"Delta":75390389},{"NoteNumber":51,"Velocity":37,"Duration":137283,"SoundDuration":137283,"Delta":75528330},{"NoteNumber":54,"Velocity":46,"Duration":137283,"SoundDuration":137283,"Delta":75528330},{"NoteNumber":55,"Velocity":48,"Duration":135583,"SoundDuration":135583,"Delta":75665613},{"NoteNumber":52,"Velocity":38,"Duration":135583,"SoundDuration":135583,"Delta":75665613},{"NoteNumber":63,"Velocity":50,"Duration":134080,"SoundDuration":134080,"Delta":75801196},{"NoteNumber":59,"Velocity":39,"Duration":134080,"SoundDuration":134080,"Delta":75801196},{"NoteNumber":60,"Velocity":42,"Duration":138269,"SoundDuration":138269,"Delta":75935277},{"NoteNumber":64,"Velocity":51,"Duration":138269,"SoundDuration":138269,"Delta":75935277},{"NoteNumber":40,"Velocity":57,"Duration":291438,"SoundDuration":291438,"Delta":76073546},{"NoteNumber":79,"Velocity":57,"Duration":410807,"SoundDuration":410807,"Delta":76227044},{"NoteNumber":72,"Velocity":57,"Duration":410807,"SoundDuration":410807,"Delta":76227044},{"NoteNumber":84,"Velocity":73,"Duration":410807,"SoundDuration":410807,"Delta":76227044},{"NoteNumber":52,"Velocity":57,"Duration":137940,"SoundDuration":137940,"Delta":76227044},{"NoteNumber":48,"Velocity":55,"Duration":137940,"SoundDuration":137940,"Delta":76227044},{"NoteNumber":59,"Velocity":46,"Duration":137283,"SoundDuration":137283,"Delta":76364985},{"NoteNumber":54,"Velocity":37,"Duration":137283,"SoundDuration":137283,"Delta":76364985},{"NoteNumber":60,"Velocity":48,"Duration":135583,"SoundDuration":135583,"Delta":76502268},{"NoteNumber":55,"Velocity":38,"Duration":135583,"SoundDuration":135583,"Delta":76502268},{"NoteNumber":66,"Velocity":50,"Duration":134080,"SoundDuration":134080,"Delta":76637851},{"NoteNumber":63,"Velocity":39,"Duration":134080,"SoundDuration":134080,"Delta":76637851},{"NoteNumber":64,"Velocity":42,"Duration":137670,"SoundDuration":137670,"Delta":76771932},{"NoteNumber":67,"Velocity":51,"Duration":137670,"SoundDuration":137670,"Delta":76771932},{"NoteNumber":41,"Velocity":57,"Duration":280441,"SoundDuration":280441,"Delta":76909602},{"NoteNumber":70,"Velocity":48,"Duration":106875,"SoundDuration":106875,"Delta":76945227},{"NoteNumber":82,"Velocity":62,"Duration":106875,"SoundDuration":106875,"Delta":76945227},{"NoteNumber":68,"Velocity":51,"Duration":410807,"SoundDuration":410807,"Delta":77052103},{"NoteNumber":80,"Velocity":66,"Duration":410807,"SoundDuration":410807,"Delta":77052103},{"NoteNumber":72,"Velocity":51,"Duration":410807,"SoundDuration":410807,"Delta":77052103},{"NoteNumber":53,"Velocity":57,"Duration":137940,"SoundDuration":137940,"Delta":77052103},{"NoteNumber":48,"Velocity":55,"Duration":137940,"SoundDuration":137940,"Delta":77052103},{"NoteNumber":59,"Velocity":43,"Duration":137283,"SoundDuration":137283,"Delta":77190044},{"NoteNumber":55,"Velocity":32,"Duration":137283,"SoundDuration":137283,"Delta":77190044},{"NoteNumber":56,"Velocity":34,"Duration":135583,"SoundDuration":135583,"Delta":77327327},{"NoteNumber":60,"Velocity":44,"Duration":135583,"SoundDuration":135583,"Delta":77327327},{"NoteNumber":64,"Velocity":34,"Duration":134080,"SoundDuration":134080,"Delta":77462910},{"NoteNumber":67,"Velocity":45,"Duration":134080,"SoundDuration":134080,"Delta":77462910},{"NoteNumber":68,"Velocity":46,"Duration":136797,"SoundDuration":136797,"Delta":77596991},{"NoteNumber":65,"Velocity":37,"Duration":136797,"SoundDuration":136797,"Delta":77596991},{"NoteNumber":41,"Velocity":57,"Duration":278696,"SoundDuration":278696,"Delta":77733789},{"NoteNumber":72,"Velocity":49,"Duration":105567,"SoundDuration":105567,"Delta":77768978},{"NoteNumber":84,"Velocity":63,"Duration":105567,"SoundDuration":105567,"Delta":77768978},{"NoteNumber":65,"Velocity":54,"Duration":410807,"SoundDuration":410807,"Delta":77874545},{"NoteNumber":68,"Velocity":54,"Duration":410807,"SoundDuration":410807,"Delta":77874545},{"NoteNumber":77,"Velocity":68,"Duration":410807,"SoundDuration":410807,"Delta":77874545},{"NoteNumber":53,"Velocity":54,"Duration":137940,"SoundDuration":137940,"Delta":77874545},{"NoteNumber":48,"Velocity":42,"Duration":137940,"SoundDuration":137940,"Delta":77874545},{"NoteNumber":59,"Velocity":42,"Duration":137283,"SoundDuration":137283,"Delta":78012485},{"NoteNumber":55,"Velocity":32,"Duration":137283,"SoundDuration":137283,"Delta":78012485},{"NoteNumber":60,"Velocity":43,"Duration":135583,"SoundDuration":135583,"Delta":78149768},{"NoteNumber":56,"Velocity":33,"Duration":135583,"SoundDuration":135583,"Delta":78149768},{"NoteNumber":67,"Velocity":44,"Duration":134080,"SoundDuration":134080,"Delta":78285352},{"NoteNumber":64,"Velocity":34,"Duration":134080,"SoundDuration":134080,"Delta":78285352},{"NoteNumber":68,"Velocity":44,"Duration":134996,"SoundDuration":134996,"Delta":78419432},{"NoteNumber":65,"Velocity":36,"Duration":134996,"SoundDuration":134996,"Delta":78419432},{"NoteNumber":39,"Velocity":57,"Duration":295924,"SoundDuration":295924,"Delta":78554429},{"NoteNumber":87,"Velocity":79,"Duration":410807,"SoundDuration":410807,"Delta":78712413},{"NoteNumber":79,"Velocity":60,"Duration":410807,"SoundDuration":410807,"Delta":78712413},{"NoteNumber":75,"Velocity":60,"Duration":410807,"SoundDuration":410807,"Delta":78712413},{"NoteNumber":51,"Velocity":60,"Duration":137940,"SoundDuration":137940,"Delta":78712413},{"NoteNumber":46,"Velocity":48,"Duration":137940,"SoundDuration":137940,"Delta":78712413},{"NoteNumber":54,"Velocity":35,"Duration":137283,"SoundDuration":137283,"Delta":78850353},{"NoteNumber":57,"Velocity":44,"Duration":137283,"SoundDuration":137283,"Delta":78850353},{"NoteNumber":58,"Velocity":45,"Duration":135583,"SoundDuration":135583,"Delta":78987636},{"NoteNumber":55,"Velocity":36,"Duration":135583,"SoundDuration":135583,"Delta":78987636},{"NoteNumber":66,"Velocity":48,"Duration":134080,"SoundDuration":134080,"Delta":79123220},{"NoteNumber":62,"Velocity":37,"Duration":134080,"SoundDuration":134080,"Delta":79123220},{"NoteNumber":67,"Velocity":49,"Duration":138269,"SoundDuration":138269,"Delta":79257300},{"NoteNumber":63,"Velocity":39,"Duration":138269,"SoundDuration":138269,"Delta":79257300},{"NoteNumber":43,"Velocity":61,"Duration":291438,"SoundDuration":291438,"Delta":79395569},{"NoteNumber":75,"Velocity":61,"Duration":410807,"SoundDuration":410807,"Delta":79549067},{"NoteNumber":87,"Velocity":79,"Duration":410807,"SoundDuration":410807,"Delta":79549067},{"NoteNumber":82,"Velocity":61,"Duration":410807,"SoundDuration":410807,"Delta":79549067},{"NoteNumber":51,"Velocity":59,"Duration":137940,"SoundDuration":137940,"Delta":79549067},{"NoteNumber":55,"Velocity":61,"Duration":137940,"SoundDuration":137940,"Delta":79549067},{"NoteNumber":62,"Velocity":44,"Duration":137283,"SoundDuration":137283,"Delta":79687008},{"NoteNumber":57,"Velocity":34,"Duration":137283,"SoundDuration":137283,"Delta":79687008},{"NoteNumber":63,"Velocity":46,"Duration":135583,"SoundDuration":135583,"Delta":79824291},{"NoteNumber":58,"Velocity":37,"Duration":135583,"SoundDuration":135583,"Delta":79824291},{"NoteNumber":66,"Velocity":38,"Duration":134080,"SoundDuration":134080,"Delta":79959874},{"NoteNumber":69,"Velocity":48,"Duration":134080,"SoundDuration":134080,"Delta":79959874},{"NoteNumber":70,"Velocity":49,"Duration":137670,"SoundDuration":137670,"Delta":80093955},{"NoteNumber":67,"Velocity":39,"Duration":137670,"SoundDuration":137670,"Delta":80093955},{"NoteNumber":44,"Velocity":61,"Duration":280441,"SoundDuration":280441,"Delta":80231625},{"NoteNumber":73,"Velocity":52,"Duration":106875,"SoundDuration":106875,"Delta":80267251},{"NoteNumber":85,"Velocity":68,"Duration":106875,"SoundDuration":106875,"Delta":80267251},{"NoteNumber":80,"Velocity":55,"Duration":410807,"SoundDuration":410807,"Delta":80374126},{"NoteNumber":72,"Velocity":55,"Duration":410807,"SoundDuration":410807,"Delta":80374126},{"NoteNumber":84,"Velocity":72,"Duration":410807,"SoundDuration":410807,"Delta":80374126},{"NoteNumber":51,"Velocity":59,"Duration":137940,"SoundDuration":137940,"Delta":80374126},{"NoteNumber":56,"Velocity":64,"Duration":137940,"SoundDuration":137940,"Delta":80374126},{"NoteNumber":59,"Velocity":35,"Duration":137283,"SoundDuration":137283,"Delta":80512067},{"NoteNumber":62,"Velocity":47,"Duration":137283,"SoundDuration":137283,"Delta":80512067},{"NoteNumber":63,"Velocity":48,"Duration":135583,"SoundDuration":135583,"Delta":80649350},{"NoteNumber":60,"Velocity":37,"Duration":135583,"SoundDuration":135583,"Delta":80649350},{"NoteNumber":71,"Velocity":49,"Duration":134080,"SoundDuration":134080,"Delta":80784934},{"NoteNumber":67,"Velocity":36,"Duration":134080,"SoundDuration":134080,"Delta":80784934},{"NoteNumber":68,"Velocity":39,"Duration":136797,"SoundDuration":136797,"Delta":80919014},{"NoteNumber":72,"Velocity":51,"Duration":136797,"SoundDuration":136797,"Delta":80919014},{"NoteNumber":44,"Velocity":64,"Duration":278696,"SoundDuration":278696,"Delta":81055812},{"NoteNumber":75,"Velocity":53,"Duration":105567,"SoundDuration":105567,"Delta":81091001},{"NoteNumber":87,"Velocity":71,"Duration":105567,"SoundDuration":105567,"Delta":81091001},{"NoteNumber":80,"Velocity":75,"Duration":410807,"SoundDuration":410807,"Delta":81196568},{"NoteNumber":68,"Velocity":59,"Duration":410807,"SoundDuration":410807,"Delta":81196568},{"NoteNumber":72,"Velocity":59,"Duration":410807,"SoundDuration":410807,"Delta":81196568},{"NoteNumber":56,"Velocity":59,"Duration":137940,"SoundDuration":137940,"Delta":81196568},{"NoteNumber":51,"Velocity":46,"Duration":137940,"SoundDuration":137940,"Delta":81196568},{"NoteNumber":59,"Velocity":35,"Duration":137283,"SoundDuration":137283,"Delta":81334509},{"NoteNumber":62,"Velocity":46,"Duration":137283,"SoundDuration":137283,"Delta":81334509},{"NoteNumber":63,"Velocity":47,"Duration":135583,"SoundDuration":135583,"Delta":81471792},{"NoteNumber":60,"Velocity":36,"Duration":135583,"SoundDuration":135583,"Delta":81471792},{"NoteNumber":71,"Velocity":48,"Duration":134080,"SoundDuration":134080,"Delta":81607375},{"NoteNumber":67,"Velocity":37,"Duration":134080,"SoundDuration":134080,"Delta":81607375},{"NoteNumber":68,"Velocity":39,"Duration":134996,"SoundDuration":134996,"Delta":81741456},{"NoteNumber":72,"Velocity":49,"Duration":134996,"SoundDuration":134996,"Delta":81741456},{"NoteNumber":44,"Velocity":64,"Duration":290087,"SoundDuration":290087,"Delta":81876452},{"NoteNumber":77,"Velocity":59,"Duration":402281,"SoundDuration":402281,"Delta":82031318},{"NoteNumber":89,"Velocity":76,"Duration":402281,"SoundDuration":402281,"Delta":82031318},{"NoteNumber":83,"Velocity":59,"Duration":402281,"SoundDuration":402281,"Delta":82031318},{"NoteNumber":50,"Velocity":47,"Duration":135221,"SoundDuration":135221,"Delta":82031318},{"NoteNumber":56,"Velocity":59,"Duration":135221,"SoundDuration":135221,"Delta":82031318},{"NoteNumber":64,"Velocity":48,"Duration":134085,"SoundDuration":134085,"Delta":82166540},{"NoteNumber":61,"Velocity":38,"Duration":134085,"SoundDuration":134085,"Delta":82166540},{"NoteNumber":65,"Velocity":50,"Duration":132974,"SoundDuration":132974,"Delta":82300626},{"NoteNumber":62,"Velocity":39,"Duration":132974,"SoundDuration":132974,"Delta":82300626},{"NoteNumber":73,"Velocity":52,"Duration":131875,"SoundDuration":131875,"Delta":82433600},{"NoteNumber":70,"Velocity":40,"Duration":131875,"SoundDuration":131875,"Delta":82433600},{"NoteNumber":74,"Velocity":53,"Duration":137377,"SoundDuration":137377,"Delta":82565475},{"NoteNumber":71,"Velocity":44,"Duration":137377,"SoundDuration":137377,"Delta":82565475},{"NoteNumber":44,"Velocity":59,"Duration":289362,"SoundDuration":289362,"Delta":82702853},{"NoteNumber":89,"Velocity":76,"Duration":403280,"SoundDuration":403280,"Delta":82856351},{"NoteNumber":77,"Velocity":59,"Duration":403280,"SoundDuration":403280,"Delta":82856351},{"NoteNumber":83,"Velocity":59,"Duration":403280,"SoundDuration":403280,"Delta":82856351},{"NoteNumber":56,"Velocity":59,"Duration":135864,"SoundDuration":135864,"Delta":82856351},{"NoteNumber":50,"Velocity":57,"Duration":135864,"SoundDuration":135864,"Delta":82856351},{"NoteNumber":61,"Velocity":39,"Duration":134446,"SoundDuration":134446,"Delta":82992215},{"NoteNumber":64,"Velocity":48,"Duration":134446,"SoundDuration":134446,"Delta":82992215},{"NoteNumber":65,"Velocity":50,"Duration":132969,"SoundDuration":132969,"Delta":83126662},{"NoteNumber":62,"Velocity":40,"Duration":132969,"SoundDuration":132969,"Delta":83126662},{"NoteNumber":73,"Velocity":53,"Duration":131677,"SoundDuration":131677,"Delta":83259631},{"NoteNumber":70,"Velocity":41,"Duration":131677,"SoundDuration":131677,"Delta":83259631},{"NoteNumber":74,"Velocity":54,"Duration":136398,"SoundDuration":136398,"Delta":83391309},{"NoteNumber":71,"Velocity":44,"Duration":136398,"SoundDuration":136398,"Delta":83391309},{"NoteNumber":44,"Velocity":60,"Duration":275700,"SoundDuration":275700,"Delta":83527708},{"NoteNumber":77,"Velocity":50,"Duration":104563,"SoundDuration":104563,"Delta":83562697},{"NoteNumber":89,"Velocity":65,"Duration":104563,"SoundDuration":104563,"Delta":83562697},{"NoteNumber":92,"Velocity":79,"Duration":405184,"SoundDuration":405184,"Delta":83667261},{"NoteNumber":80,"Velocity":67,"Duration":405184,"SoundDuration":405184,"Delta":83667261},{"NoteNumber":84,"Velocity":67,"Duration":405184,"SoundDuration":405184,"Delta":83667261},{"NoteNumber":56,"Velocity":60,"Duration":136147,"SoundDuration":136147,"Delta":83667261},{"NoteNumber":51,"Velocity":58,"Duration":136147,"SoundDuration":136147,"Delta":83667261},{"NoteNumber":62,"Velocity":46,"Duration":135309,"SoundDuration":135309,"Delta":83803408},{"NoteNumber":59,"Velocity":34,"Duration":135309,"SoundDuration":135309,"Delta":83803408},{"NoteNumber":63,"Velocity":47,"Duration":133727,"SoundDuration":133727,"Delta":83938718},{"NoteNumber":60,"Velocity":36,"Duration":133727,"SoundDuration":133727,"Delta":83938718},{"NoteNumber":67,"Velocity":46,"Duration":132224,"SoundDuration":132224,"Delta":84072445},{"NoteNumber":71,"Velocity":55,"Duration":132224,"SoundDuration":132224,"Delta":84072445},{"NoteNumber":72,"Velocity":55,"Duration":135061,"SoundDuration":135061,"Delta":84204670},{"NoteNumber":68,"Velocity":46,"Duration":135061,"SoundDuration":135061,"Delta":84204670},{"NoteNumber":44,"Velocity":60,"Duration":272760,"SoundDuration":272760,"Delta":84339731},{"NoteNumber":80,"Velocity":62,"Duration":399999,"SoundDuration":399999,"Delta":84478221},{"NoteNumber":87,"Velocity":72,"Duration":399999,"SoundDuration":399999,"Delta":84478221},{"NoteNumber":75,"Velocity":56,"Duration":399999,"SoundDuration":399999,"Delta":84478221},{"NoteNumber":48,"Velocity":44,"Duration":134270,"SoundDuration":134270,"Delta":84478221},{"NoteNumber":56,"Velocity":57,"Duration":134270,"SoundDuration":134270,"Delta":84478221},{"NoteNumber":59,"Velocity":34,"Duration":133417,"SoundDuration":133417,"Delta":84612492},{"NoteNumber":62,"Velocity":44,"Duration":133417,"SoundDuration":133417,"Delta":84612492},{"NoteNumber":63,"Velocity":46,"Duration":132311,"SoundDuration":132311,"Delta":84745909},{"NoteNumber":60,"Velocity":35,"Duration":132311,"SoundDuration":132311,"Delta":84745909},{"NoteNumber":71,"Velocity":53,"Duration":131229,"SoundDuration":131229,"Delta":84878221},{"NoteNumber":67,"Velocity":45,"Duration":131229,"SoundDuration":131229,"Delta":84878221},{"NoteNumber":68,"Velocity":45,"Duration":133651,"SoundDuration":133651,"Delta":85009450},{"NoteNumber":72,"Velocity":53,"Duration":133651,"SoundDuration":133651,"Delta":85009450},{"NoteNumber":44,"Velocity":61,"Duration":270981,"SoundDuration":270981,"Delta":85143102},{"NoteNumber":89,"Velocity":78,"Duration":402818,"SoundDuration":402818,"Delta":85279312},{"NoteNumber":83,"Velocity":61,"Duration":402818,"SoundDuration":402818,"Delta":85279312},{"NoteNumber":77,"Velocity":61,"Duration":402818,"SoundDuration":402818,"Delta":85279312},{"NoteNumber":56,"Velocity":61,"Duration":134771,"SoundDuration":134771,"Delta":85279312},{"NoteNumber":50,"Velocity":48,"Duration":134771,"SoundDuration":134771,"Delta":85279312},{"NoteNumber":64,"Velocity":49,"Duration":134722,"SoundDuration":134722,"Delta":85414083},{"NoteNumber":61,"Velocity":39,"Duration":134722,"SoundDuration":134722,"Delta":85414083},{"NoteNumber":65,"Velocity":52,"Duration":133324,"SoundDuration":133324,"Delta":85548806},{"NoteNumber":62,"Velocity":41,"Duration":133324,"SoundDuration":133324,"Delta":85548806},{"NoteNumber":70,"Velocity":42,"Duration":131570,"SoundDuration":131570,"Delta":85682130},{"NoteNumber":73,"Velocity":54,"Duration":131570,"SoundDuration":131570,"Delta":85682130},{"NoteNumber":74,"Velocity":55,"Duration":134634,"SoundDuration":134634,"Delta":85813700},{"NoteNumber":71,"Velocity":45,"Duration":134634,"SoundDuration":134634,"Delta":85813700},{"NoteNumber":44,"Velocity":62,"Duration":270703,"SoundDuration":270703,"Delta":85948334},{"NoteNumber":77,"Velocity":62,"Duration":398799,"SoundDuration":398799,"Delta":86085616},{"NoteNumber":83,"Velocity":62,"Duration":398799,"SoundDuration":398799,"Delta":86085616},{"NoteNumber":89,"Velocity":79,"Duration":398799,"SoundDuration":398799,"Delta":86085616},{"NoteNumber":56,"Velocity":62,"Duration":133422,"SoundDuration":133422,"Delta":86085616},{"NoteNumber":50,"Velocity":59,"Duration":133422,"SoundDuration":133422,"Delta":86085616},{"NoteNumber":61,"Velocity":40,"Duration":133286,"SoundDuration":133286,"Delta":86219038},{"NoteNumber":64,"Velocity":50,"Duration":133286,"SoundDuration":133286,"Delta":86219038},{"NoteNumber":62,"Velocity":41,"Duration":132091,"SoundDuration":132091,"Delta":86352325},{"NoteNumber":65,"Velocity":52,"Duration":132091,"SoundDuration":132091,"Delta":86352325},{"NoteNumber":70,"Velocity":42,"Duration":130754,"SoundDuration":130754,"Delta":86484416},{"NoteNumber":73,"Velocity":55,"Duration":130754,"SoundDuration":130754,"Delta":86484416},{"NoteNumber":71,"Velocity":46,"Duration":136138,"SoundDuration":136138,"Delta":86615171},{"NoteNumber":74,"Velocity":56,"Duration":136138,"SoundDuration":136138,"Delta":86615171},{"NoteNumber":44,"Velocity":62,"Duration":274958,"SoundDuration":274958,"Delta":86751309},{"NoteNumber":77,"Velocity":52,"Duration":105911,"SoundDuration":105911,"Delta":86786934},{"NoteNumber":89,"Velocity":68,"Duration":105911,"SoundDuration":105911,"Delta":86786934},{"NoteNumber":92,"Velocity":80,"Duration":399153,"SoundDuration":399153,"Delta":86892846},{"NoteNumber":80,"Velocity":62,"Duration":399153,"SoundDuration":399153,"Delta":86892846},{"NoteNumber":84,"Velocity":62,"Duration":399153,"SoundDuration":399153,"Delta":86892846},{"NoteNumber":56,"Velocity":62,"Duration":133422,"SoundDuration":133422,"Delta":86892846},{"NoteNumber":51,"Velocity":49,"Duration":133422,"SoundDuration":133422,"Delta":86892846},{"NoteNumber":59,"Velocity":40,"Duration":133422,"SoundDuration":133422,"Delta":87026268},{"NoteNumber":62,"Velocity":50,"Duration":133422,"SoundDuration":133422,"Delta":87026268},{"NoteNumber":60,"Velocity":41,"Duration":132308,"SoundDuration":132308,"Delta":87159690},{"NoteNumber":63,"Velocity":52,"Duration":132308,"SoundDuration":132308,"Delta":87159690},{"NoteNumber":71,"Velocity":55,"Duration":130403,"SoundDuration":130403,"Delta":87291999},{"NoteNumber":67,"Velocity":43,"Duration":130403,"SoundDuration":130403,"Delta":87291999},{"NoteNumber":72,"Velocity":56,"Duration":133125,"SoundDuration":133125,"Delta":87422402},{"NoteNumber":68,"Velocity":46,"Duration":133125,"SoundDuration":133125,"Delta":87422402},{"NoteNumber":44,"Velocity":63,"Duration":268760,"SoundDuration":268760,"Delta":87555528},{"NoteNumber":92,"Velocity":81,"Duration":399188,"SoundDuration":399188,"Delta":87690279},{"NoteNumber":80,"Velocity":63,"Duration":399188,"SoundDuration":399188,"Delta":87690279},{"NoteNumber":56,"Velocity":63,"Duration":134009,"SoundDuration":134009,"Delta":87690279},{"NoteNumber":61,"Velocity":41,"Duration":133029,"SoundDuration":133029,"Delta":87824288},{"NoteNumber":64,"Velocity":51,"Duration":133029,"SoundDuration":133029,"Delta":87824288},{"NoteNumber":65,"Velocity":53,"Duration":132150,"SoundDuration":132150,"Delta":87957318},{"NoteNumber":62,"Velocity":42,"Duration":132150,"SoundDuration":132150,"Delta":87957318},{"NoteNumber":70,"Velocity":43,"Duration":131282,"SoundDuration":131282,"Delta":88089468},{"NoteNumber":73,"Velocity":56,"Duration":131282,"SoundDuration":131282,"Delta":88089468},{"NoteNumber":74,"Velocity":57,"Duration":137183,"SoundDuration":137183,"Delta":88220751},{"NoteNumber":71,"Velocity":47,"Duration":137183,"SoundDuration":137183,"Delta":88220751},{"NoteNumber":80,"Velocity":53,"Duration":130955,"SoundDuration":130955,"Delta":88393559},{"NoteNumber":92,"Velocity":69,"Duration":130955,"SoundDuration":130955,"Delta":88393559},{"NoteNumber":44,"Velocity":63,"Duration":130955,"SoundDuration":130955,"Delta":88393559},{"NoteNumber":56,"Velocity":63,"Duration":130955,"SoundDuration":130955,"Delta":88393559},{"NoteNumber":81,"Velocity":73,"Duration":378346,"SoundDuration":378346,"Delta":88524514},{"NoteNumber":93,"Velocity":87,"Duration":378346,"SoundDuration":378346,"Delta":88524514},{"NoteNumber":57,"Velocity":63,"Duration":378346,"SoundDuration":378346,"Delta":88524514},{"NoteNumber":45,"Velocity":63,"Duration":378346,"SoundDuration":378346,"Delta":88524514},{"NoteNumber":64,"Velocity":41,"Duration":126131,"SoundDuration":126131,"Delta":88651550},{"NoteNumber":68,"Velocity":51,"Duration":126131,"SoundDuration":126131,"Delta":88651550},{"NoteNumber":65,"Velocity":42,"Duration":125179,"SoundDuration":125179,"Delta":88777681},{"NoteNumber":69,"Velocity":53,"Duration":125179,"SoundDuration":125179,"Delta":88777681},{"NoteNumber":73,"Velocity":43,"Duration":124272,"SoundDuration":124272,"Delta":88902861},{"NoteNumber":76,"Velocity":56,"Duration":124272,"SoundDuration":124272,"Delta":88902861},{"NoteNumber":74,"Velocity":47,"Duration":123407,"SoundDuration":123407,"Delta":89027133},{"NoteNumber":77,"Velocity":57,"Duration":123407,"SoundDuration":123407,"Delta":89027133},{"NoteNumber":41,"Velocity":64,"Duration":244130,"SoundDuration":244130,"Delta":89150541},{"NoteNumber":89,"Velocity":82,"Duration":364742,"SoundDuration":364742,"Delta":89273090},{"NoteNumber":77,"Velocity":69,"Duration":364742,"SoundDuration":364742,"Delta":89273090},{"NoteNumber":53,"Velocity":64,"Duration":121580,"SoundDuration":121580,"Delta":89273090},{"NoteNumber":61,"Velocity":41,"Duration":121580,"SoundDuration":121580,"Delta":89394671},{"NoteNumber":64,"Velocity":51,"Duration":121580,"SoundDuration":121580,"Delta":89394671},{"NoteNumber":62,"Velocity":42,"Duration":121580,"SoundDuration":121580,"Delta":89516251},{"NoteNumber":65,"Velocity":54,"Duration":121580,"SoundDuration":121580,"Delta":89516251},{"NoteNumber":73,"Velocity":56,"Duration":121580,"SoundDuration":121580,"Delta":89637832},{"NoteNumber":68,"Velocity":44,"Duration":121580,"SoundDuration":121580,"Delta":89637832},{"NoteNumber":69,"Velocity":47,"Duration":121580,"SoundDuration":121580,"Delta":89759413},{"NoteNumber":74,"Velocity":58,"Duration":121580,"SoundDuration":121580,"Delta":89759413},{"NoteNumber":38,"Velocity":64,"Duration":240169,"SoundDuration":240169,"Delta":89880993},{"NoteNumber":74,"Velocity":72,"Duration":357142,"SoundDuration":357142,"Delta":90002115},{"NoteNumber":86,"Velocity":85,"Duration":357142,"SoundDuration":357142,"Delta":90002115},{"NoteNumber":50,"Velocity":64,"Duration":119047,"SoundDuration":119047,"Delta":90002115},{"NoteNumber":61,"Velocity":52,"Duration":119047,"SoundDuration":119047,"Delta":90121163},{"NoteNumber":56,"Velocity":42,"Duration":119047,"SoundDuration":119047,"Delta":90121163},{"NoteNumber":62,"Velocity":54,"Duration":119047,"SoundDuration":119047,"Delta":90240210},{"NoteNumber":57,"Velocity":43,"Duration":119047,"SoundDuration":119047,"Delta":90240210},{"NoteNumber":64,"Velocity":44,"Duration":119047,"SoundDuration":119047,"Delta":90359258},{"NoteNumber":68,"Velocity":57,"Duration":119047,"SoundDuration":119047,"Delta":90359258},{"NoteNumber":69,"Velocity":58,"Duration":119047,"SoundDuration":119047,"Delta":90478306},{"NoteNumber":65,"Velocity":48,"Duration":119047,"SoundDuration":119047,"Delta":90478306},{"NoteNumber":33,"Velocity":65,"Duration":238095,"SoundDuration":238095,"Delta":90597353},{"NoteNumber":81,"Velocity":83,"Duration":357142,"SoundDuration":357142,"Delta":90716401},{"NoteNumber":69,"Velocity":55,"Duration":357142,"SoundDuration":357142,"Delta":90716401},{"NoteNumber":45,"Velocity":65,"Duration":119047,"SoundDuration":119047,"Delta":90716401},{"NoteNumber":56,"Velocity":52,"Duration":119047,"SoundDuration":119047,"Delta":90835449},{"NoteNumber":52,"Velocity":42,"Duration":119047,"SoundDuration":119047,"Delta":90835449},{"NoteNumber":53,"Velocity":43,"Duration":119047,"SoundDuration":119047,"Delta":90954496},{"NoteNumber":57,"Velocity":55,"Duration":119047,"SoundDuration":119047,"Delta":90954496},{"NoteNumber":64,"Velocity":57,"Duration":120846,"SoundDuration":120846,"Delta":91073544},{"NoteNumber":61,"Velocity":44,"Duration":120846,"SoundDuration":120846,"Delta":91073544},{"NoteNumber":65,"Velocity":58,"Duration":120846,"SoundDuration":120846,"Delta":91194390},{"NoteNumber":62,"Velocity":48,"Duration":120846,"SoundDuration":120846,"Delta":91194390},{"NoteNumber":34,"Velocity":66,"Duration":237464,"SoundDuration":237464,"Delta":91315236},{"NoteNumber":70,"Velocity":74,"Duration":349853,"SoundDuration":349853,"Delta":91436082},{"NoteNumber":82,"Velocity":88,"Duration":349853,"SoundDuration":349853,"Delta":91436082},{"NoteNumber":46,"Velocity":66,"Duration":116618,"SoundDuration":116618,"Delta":91436082},{"NoteNumber":57,"Velocity":53,"Duration":116618,"SoundDuration":116618,"Delta":91552700},{"NoteNumber":54,"Velocity":42,"Duration":116618,"SoundDuration":116618,"Delta":91552700},{"NoteNumber":58,"Velocity":55,"Duration":116617,"SoundDuration":116617,"Delta":91669318},{"NoteNumber":55,"Velocity":44,"Duration":116617,"SoundDuration":116617,"Delta":91669318},{"NoteNumber":66,"Velocity":58,"Duration":116618,"SoundDuration":116618,"Delta":91785936},{"NoteNumber":62,"Velocity":45,"Duration":116618,"SoundDuration":116618,"Delta":91785936},{"NoteNumber":63,"Velocity":48,"Duration":116618,"SoundDuration":116618,"Delta":91902554},{"NoteNumber":67,"Velocity":59,"Duration":116618,"SoundDuration":116618,"Delta":91902554},{"NoteNumber":31,"Velocity":66,"Duration":237099,"SoundDuration":237099,"Delta":92019172},{"NoteNumber":79,"Velocity":85,"Duration":361446,"SoundDuration":361446,"Delta":92135790},{"NoteNumber":67,"Velocity":72,"Duration":361446,"SoundDuration":361446,"Delta":92135790},{"NoteNumber":43,"Velocity":66,"Duration":120481,"SoundDuration":120481,"Delta":92135790},{"NoteNumber":50,"Velocity":43,"Duration":120482,"SoundDuration":120482,"Delta":92256272},{"NoteNumber":54,"Velocity":53,"Duration":120482,"SoundDuration":120482,"Delta":92256272},{"NoteNumber":55,"Velocity":56,"Duration":120481,"SoundDuration":120481,"Delta":92376754},{"NoteNumber":51,"Velocity":44,"Duration":120481,"SoundDuration":120481,"Delta":92376754},{"NoteNumber":57,"Velocity":45,"Duration":120481,"SoundDuration":120481,"Delta":92497236},{"NoteNumber":62,"Velocity":58,"Duration":120481,"SoundDuration":120481,"Delta":92497236},{"NoteNumber":58,"Velocity":49,"Duration":120482,"SoundDuration":120482,"Delta":92617718},{"NoteNumber":63,"Velocity":59,"Duration":120482,"SoundDuration":120482,"Delta":92617718},{"NoteNumber":28,"Velocity":66,"Duration":238825,"SoundDuration":238825,"Delta":92738200},{"NoteNumber":76,"Velocity":86,"Duration":355029,"SoundDuration":355029,"Delta":92858682},{"NoteNumber":64,"Velocity":73,"Duration":355029,"SoundDuration":355029,"Delta":92858682},{"NoteNumber":40,"Velocity":67,"Duration":118343,"SoundDuration":118343,"Delta":92858682},{"NoteNumber":45,"Velocity":43,"Duration":118343,"SoundDuration":118343,"Delta":92977025},{"NoteNumber":49,"Velocity":54,"Duration":118343,"SoundDuration":118343,"Delta":92977025},{"NoteNumber":46,"Velocity":44,"Duration":118343,"SoundDuration":118343,"Delta":93095369},{"NoteNumber":50,"Velocity":56,"Duration":118343,"SoundDuration":118343,"Delta":93095369},{"NoteNumber":57,"Velocity":59,"Duration":118343,"SoundDuration":118343,"Delta":93213712},{"NoteNumber":54,"Velocity":46,"Duration":118343,"SoundDuration":118343,"Delta":93213712},{"NoteNumber":55,"Velocity":49,"Duration":118343,"SoundDuration":118343,"Delta":93332055},{"NoteNumber":58,"Velocity":60,"Duration":118343,"SoundDuration":118343,"Delta":93332055},{"NoteNumber":33,"Velocity":67,"Duration":237390,"SoundDuration":237390,"Delta":93450399},{"NoteNumber":69,"Velocity":72,"Duration":357142,"SoundDuration":357142,"Delta":93568742},{"NoteNumber":81,"Velocity":85,"Duration":357142,"SoundDuration":357142,"Delta":93568742},{"NoteNumber":45,"Velocity":67,"Duration":119047,"SoundDuration":119047,"Delta":93568742},{"NoteNumber":54,"Velocity":54,"Duration":119047,"SoundDuration":119047,"Delta":93687790},{"NoteNumber":51,"Velocity":44,"Duration":119047,"SoundDuration":119047,"Delta":93687790},{"NoteNumber":52,"Velocity":45,"Duration":119047,"SoundDuration":119047,"Delta":93806837},{"NoteNumber":55,"Velocity":57,"Duration":119047,"SoundDuration":119047,"Delta":93806837},{"NoteNumber":63,"Velocity":59,"Duration":119047,"SoundDuration":119047,"Delta":93925885},{"NoteNumber":60,"Velocity":46,"Duration":119047,"SoundDuration":119047,"Delta":93925885},{"NoteNumber":61,"Velocity":49,"Duration":119047,"SoundDuration":119047,"Delta":94044933},{"NoteNumber":64,"Velocity":60,"Duration":119047,"SoundDuration":119047,"Delta":94044933},{"NoteNumber":57,"Velocity":52,"Duration":111110,"SoundDuration":111110,"Delta":94193742},{"NoteNumber":69,"Velocity":73,"Duration":111110,"SoundDuration":111110,"Delta":94193742},{"NoteNumber":33,"Velocity":64,"Duration":111110,"SoundDuration":111110,"Delta":94193742},{"NoteNumber":45,"Velocity":64,"Duration":111110,"SoundDuration":111110,"Delta":94193742},{"NoteNumber":62,"Velocity":62,"Duration":356123,"SoundDuration":356123,"Delta":94304853},{"NoteNumber":74,"Velocity":86,"Duration":356123,"SoundDuration":356123,"Delta":94304853},{"NoteNumber":38,"Velocity":62,"Duration":356123,"SoundDuration":356123,"Delta":94304853},{"NoteNumber":50,"Velocity":74,"Duration":356123,"SoundDuration":356123,"Delta":94304853},{"NoteNumber":56,"Velocity":56,"Duration":118523,"SoundDuration":118523,"Delta":94542454},{"NoteNumber":52,"Velocity":37,"Duration":118523,"SoundDuration":118523,"Delta":94542454},{"NoteNumber":57,"Velocity":54,"Duration":117933,"SoundDuration":117933,"Delta":94660977},{"NoteNumber":54,"Velocity":45,"Duration":117933,"SoundDuration":117933,"Delta":94660977},{"NoteNumber":64,"Velocity":51,"Duration":117379,"SoundDuration":117379,"Delta":94778911},{"NoteNumber":68,"Velocity":61,"Duration":117379,"SoundDuration":117379,"Delta":94778911},{"NoteNumber":69,"Velocity":64,"Duration":116792,"SoundDuration":116792,"Delta":94896290},{"NoteNumber":65,"Velocity":54,"Duration":116792,"SoundDuration":116792,"Delta":94896290},{"NoteNumber":80,"Velocity":67,"Duration":116220,"SoundDuration":116220,"Delta":95013083},{"NoteNumber":76,"Velocity":56,"Duration":116220,"SoundDuration":116220,"Delta":95013083},{"NoteNumber":81,"Velocity":70,"Duration":115682,"SoundDuration":115682,"Delta":95129303},{"NoteNumber":77,"Velocity":59,"Duration":115682,"SoundDuration":115682,"Delta":95129303},{"NoteNumber":92,"Velocity":73,"Duration":115112,"SoundDuration":115112,"Delta":95244986},{"NoteNumber":88,"Velocity":62,"Duration":115112,"SoundDuration":115112,"Delta":95244986},{"NoteNumber":93,"Velocity":83,"Duration":248962,"SoundDuration":248962,"Delta":95360098},{"NoteNumber":89,"Velocity":70,"Duration":248962,"SoundDuration":248962,"Delta":95360098},{"NoteNumber":62,"Velocity":66,"Duration":118110,"SoundDuration":118110,"Delta":95733542},{"NoteNumber":74,"Velocity":78,"Duration":118110,"SoundDuration":118110,"Delta":95733542},{"NoteNumber":50,"Velocity":71,"Duration":118110,"SoundDuration":118110,"Delta":95733542},{"NoteNumber":38,"Velocity":60,"Duration":118110,"SoundDuration":118110,"Delta":95733542},{"NoteNumber":72,"Velocity":62,"Duration":708229,"SoundDuration":708229,"Delta":95851652},{"NoteNumber":84,"Velocity":86,"Duration":708229,"SoundDuration":708229,"Delta":95851652},{"NoteNumber":78,"Velocity":62,"Duration":708229,"SoundDuration":708229,"Delta":95851652},{"NoteNumber":45,"Velocity":62,"Duration":708229,"SoundDuration":708229,"Delta":95851652},{"NoteNumber":38,"Velocity":62,"Duration":708229,"SoundDuration":708229,"Delta":95851652},{"NoteNumber":50,"Velocity":74,"Duration":708229,"SoundDuration":708229,"Delta":95851652},{"NoteNumber":56,"Velocity":37,"Duration":118523,"SoundDuration":118523,"Delta":96089253},{"NoteNumber":59,"Velocity":56,"Duration":118523,"SoundDuration":118523,"Delta":96089253},{"NoteNumber":57,"Velocity":45,"Duration":117933,"SoundDuration":117933,"Delta":96207776},{"NoteNumber":60,"Velocity":54,"Duration":117933,"SoundDuration":117933,"Delta":96207776},{"NoteNumber":68,"Velocity":51,"Duration":117379,"SoundDuration":117379,"Delta":96325710},{"NoteNumber":71,"Velocity":61,"Duration":117379,"SoundDuration":117379,"Delta":96325710},{"NoteNumber":69,"Velocity":54,"Duration":116792,"SoundDuration":116792,"Delta":96443089},{"NoteNumber":72,"Velocity":64,"Duration":116792,"SoundDuration":116792,"Delta":96443089},{"NoteNumber":83,"Velocity":67,"Duration":116220,"SoundDuration":116220,"Delta":96559882},{"NoteNumber":80,"Velocity":56,"Duration":116220,"SoundDuration":116220,"Delta":96559882},{"NoteNumber":81,"Velocity":59,"Duration":115682,"SoundDuration":115682,"Delta":96676102},{"NoteNumber":84,"Velocity":70,"Duration":115682,"SoundDuration":115682,"Delta":96676102},{"NoteNumber":92,"Velocity":62,"Duration":115112,"SoundDuration":115112,"Delta":96791785},{"NoteNumber":95,"Velocity":73,"Duration":115112,"SoundDuration":115112,"Delta":96791785},{"NoteNumber":93,"Velocity":70,"Duration":251046,"SoundDuration":251046,"Delta":96906897},{"NoteNumber":96,"Velocity":83,"Duration":251046,"SoundDuration":251046,"Delta":96906897},{"NoteNumber":74,"Velocity":78,"Duration":117647,"SoundDuration":117647,"Delta":97283466},{"NoteNumber":62,"Velocity":66,"Duration":117647,"SoundDuration":117647,"Delta":97283466},{"NoteNumber":38,"Velocity":60,"Duration":117647,"SoundDuration":117647,"Delta":97283466},{"NoteNumber":50,"Velocity":71,"Duration":117647,"SoundDuration":117647,"Delta":97283466},{"NoteNumber":83,"Velocity":86,"Duration":708229,"SoundDuration":708229,"Delta":97401113},{"NoteNumber":71,"Velocity":62,"Duration":708229,"SoundDuration":708229,"Delta":97401113},{"NoteNumber":77,"Velocity":62,"Duration":708229,"SoundDuration":708229,"Delta":97401113},{"NoteNumber":38,"Velocity":62,"Duration":708229,"SoundDuration":708229,"Delta":97401113},{"NoteNumber":50,"Velocity":74,"Duration":708229,"SoundDuration":708229,"Delta":97401113},{"NoteNumber":44,"Velocity":62,"Duration":708229,"SoundDuration":708229,"Delta":97401113},{"NoteNumber":55,"Velocity":37,"Duration":118523,"SoundDuration":118523,"Delta":97638714},{"NoteNumber":58,"Velocity":56,"Duration":118523,"SoundDuration":118523,"Delta":97638714},{"NoteNumber":59,"Velocity":54,"Duration":117933,"SoundDuration":117933,"Delta":97757237},{"NoteNumber":56,"Velocity":45,"Duration":117933,"SoundDuration":117933,"Delta":97757237},{"NoteNumber":67,"Velocity":51,"Duration":117379,"SoundDuration":117379,"Delta":97875171},{"NoteNumber":70,"Velocity":61,"Duration":117379,"SoundDuration":117379,"Delta":97875171},{"NoteNumber":71,"Velocity":64,"Duration":116792,"SoundDuration":116792,"Delta":97992550},{"NoteNumber":68,"Velocity":54,"Duration":116792,"SoundDuration":116792,"Delta":97992550},{"NoteNumber":82,"Velocity":67,"Duration":116220,"SoundDuration":116220,"Delta":98109343},{"NoteNumber":79,"Velocity":56,"Duration":116220,"SoundDuration":116220,"Delta":98109343},{"NoteNumber":80,"Velocity":59,"Duration":115682,"SoundDuration":115682,"Delta":98225563},{"NoteNumber":83,"Velocity":70,"Duration":115682,"SoundDuration":115682,"Delta":98225563},{"NoteNumber":94,"Velocity":73,"Duration":115112,"SoundDuration":115112,"Delta":98341246},{"NoteNumber":91,"Velocity":62,"Duration":115112,"SoundDuration":115112,"Delta":98341246},{"NoteNumber":92,"Velocity":70,"Duration":232557,"SoundDuration":232557,"Delta":98456358},{"NoteNumber":95,"Velocity":83,"Duration":232557,"SoundDuration":232557,"Delta":98456358},{"NoteNumber":62,"Velocity":66,"Duration":116278,"SoundDuration":116278,"Delta":98805195},{"NoteNumber":74,"Velocity":78,"Duration":116278,"SoundDuration":116278,"Delta":98805195},{"NoteNumber":50,"Velocity":71,"Duration":116278,"SoundDuration":116278,"Delta":98805195},{"NoteNumber":38,"Velocity":60,"Duration":116278,"SoundDuration":116278,"Delta":98805195},{"NoteNumber":82,"Velocity":86,"Duration":358423,"SoundDuration":358423,"Delta":98921474},{"NoteNumber":70,"Velocity":73,"Duration":358423,"SoundDuration":358423,"Delta":98921474},{"NoteNumber":34,"Velocity":67,"Duration":358423,"SoundDuration":358423,"Delta":98921474},{"NoteNumber":46,"Velocity":67,"Duration":358423,"SoundDuration":358423,"Delta":98921474},{"NoteNumber":51,"Velocity":43,"Duration":119474,"SoundDuration":119474,"Delta":99040949},{"NoteNumber":54,"Velocity":54,"Duration":119474,"SoundDuration":119474,"Delta":99040949},{"NoteNumber":55,"Velocity":56,"Duration":119474,"SoundDuration":119474,"Delta":99160423},{"NoteNumber":52,"Velocity":44,"Duration":119474,"SoundDuration":119474,"Delta":99160423},{"NoteNumber":60,"Velocity":46,"Duration":119474,"SoundDuration":119474,"Delta":99279897},{"NoteNumber":63,"Velocity":59,"Duration":119474,"SoundDuration":119474,"Delta":99279897},{"NoteNumber":64,"Velocity":60,"Duration":119474,"SoundDuration":119474,"Delta":99399372},{"NoteNumber":61,"Velocity":49,"Duration":119474,"SoundDuration":119474,"Delta":99399372},{"NoteNumber":70,"Velocity":73,"Duration":89605,"SoundDuration":89605,"Delta":99548715},{"NoteNumber":82,"Velocity":73,"Duration":89605,"SoundDuration":89605,"Delta":99548715},{"NoteNumber":34,"Velocity":67,"Duration":89605,"SoundDuration":89605,"Delta":99548715},{"NoteNumber":46,"Velocity":67,"Duration":89605,"SoundDuration":89605,"Delta":99548715},{"NoteNumber":69,"Velocity":72,"Duration":358423,"SoundDuration":358423,"Delta":99638320},{"NoteNumber":81,"Velocity":85,"Duration":358423,"SoundDuration":358423,"Delta":99638320},{"NoteNumber":45,"Velocity":67,"Duration":358423,"SoundDuration":358423,"Delta":99638320},{"NoteNumber":33,"Velocity":67,"Duration":358423,"SoundDuration":358423,"Delta":99638320},{"NoteNumber":54,"Velocity":54,"Duration":119474,"SoundDuration":119474,"Delta":99757795},{"NoteNumber":51,"Velocity":44,"Duration":119474,"SoundDuration":119474,"Delta":99757795},{"NoteNumber":55,"Velocity":57,"Duration":119474,"SoundDuration":119474,"Delta":99877269},{"NoteNumber":52,"Velocity":45,"Duration":119474,"SoundDuration":119474,"Delta":99877269},{"NoteNumber":60,"Velocity":46,"Duration":119474,"SoundDuration":119474,"Delta":99996743},{"NoteNumber":63,"Velocity":59,"Duration":119474,"SoundDuration":119474,"Delta":99996743},{"NoteNumber":61,"Velocity":49,"Duration":119474,"SoundDuration":119474,"Delta":100116218},{"NoteNumber":64,"Velocity":60,"Duration":119474,"SoundDuration":119474,"Delta":100116218},{"NoteNumber":67,"Velocity":52,"Duration":111110,"SoundDuration":111110,"Delta":100265561},{"NoteNumber":79,"Velocity":73,"Duration":111110,"SoundDuration":111110,"Delta":100265561},{"NoteNumber":31,"Velocity":64,"Duration":111110,"SoundDuration":111110,"Delta":100265561},{"NoteNumber":43,"Velocity":64,"Duration":111110,"SoundDuration":111110,"Delta":100265561},{"NoteNumber":74,"Velocity":86,"Duration":356123,"SoundDuration":356123,"Delta":100376672},{"NoteNumber":66,"Velocity":62,"Duration":356123,"SoundDuration":356123,"Delta":100376672},{"NoteNumber":62,"Velocity":62,"Duration":356123,"SoundDuration":356123,"Delta":100376672},{"NoteNumber":45,"Velocity":62,"Duration":356123,"SoundDuration":356123,"Delta":100376672},{"NoteNumber":38,"Velocity":62,"Duration":356123,"SoundDuration":356123,"Delta":100376672},{"NoteNumber":50,"Velocity":74,"Duration":356123,"SoundDuration":356123,"Delta":100376672},{"NoteNumber":56,"Velocity":56,"Duration":118523,"SoundDuration":118523,"Delta":100614272},{"NoteNumber":52,"Velocity":37,"Duration":118523,"SoundDuration":118523,"Delta":100614272},{"NoteNumber":54,"Velocity":45,"Duration":117933,"SoundDuration":117933,"Delta":100732795},{"NoteNumber":57,"Velocity":54,"Duration":117933,"SoundDuration":117933,"Delta":100732795},{"NoteNumber":65,"Velocity":51,"Duration":117379,"SoundDuration":117379,"Delta":100850729},{"NoteNumber":68,"Velocity":61,"Duration":117379,"SoundDuration":117379,"Delta":100850729},{"NoteNumber":69,"Velocity":64,"Duration":116792,"SoundDuration":116792,"Delta":100968109},{"NoteNumber":66,"Velocity":54,"Duration":116792,"SoundDuration":116792,"Delta":100968109},{"NoteNumber":80,"Velocity":67,"Duration":116220,"SoundDuration":116220,"Delta":101084902},{"NoteNumber":77,"Velocity":56,"Duration":116220,"SoundDuration":116220,"Delta":101084902},{"NoteNumber":78,"Velocity":59,"Duration":115682,"SoundDuration":115682,"Delta":101201122},{"NoteNumber":81,"Velocity":70,"Duration":115682,"SoundDuration":115682,"Delta":101201122},{"NoteNumber":89,"Velocity":62,"Duration":115112,"SoundDuration":115112,"Delta":101316804},{"NoteNumber":92,"Velocity":73,"Duration":115112,"SoundDuration":115112,"Delta":101316804},{"NoteNumber":90,"Velocity":70,"Duration":275229,"SoundDuration":275229,"Delta":101431917},{"NoteNumber":93,"Velocity":83,"Duration":275229,"SoundDuration":275229,"Delta":101431917},{"NoteNumber":74,"Velocity":78,"Duration":127118,"SoundDuration":127118,"Delta":101844761},{"NoteNumber":62,"Velocity":66,"Duration":127118,"SoundDuration":127118,"Delta":101844761},{"NoteNumber":50,"Velocity":71,"Duration":127118,"SoundDuration":127118,"Delta":101844761},{"NoteNumber":38,"Velocity":60,"Duration":127118,"SoundDuration":127118,"Delta":101844761},{"NoteNumber":72,"Velocity":62,"Duration":708229,"SoundDuration":708229,"Delta":101971880},{"NoteNumber":78,"Velocity":62,"Duration":708229,"SoundDuration":708229,"Delta":101971880},{"NoteNumber":84,"Velocity":86,"Duration":708229,"SoundDuration":708229,"Delta":101971880},{"NoteNumber":45,"Velocity":62,"Duration":708229,"SoundDuration":708229,"Delta":101971880},{"NoteNumber":39,"Velocity":62,"Duration":708229,"SoundDuration":708229,"Delta":101971880},{"NoteNumber":51,"Velocity":74,"Duration":708229,"SoundDuration":708229,"Delta":101971880},{"NoteNumber":59,"Velocity":56,"Duration":118523,"SoundDuration":118523,"Delta":102209480},{"NoteNumber":56,"Velocity":37,"Duration":118523,"SoundDuration":118523,"Delta":102209480},{"NoteNumber":57,"Velocity":45,"Duration":117933,"SoundDuration":117933,"Delta":102328003},{"NoteNumber":60,"Velocity":54,"Duration":117933,"SoundDuration":117933,"Delta":102328003},{"NoteNumber":68,"Velocity":51,"Duration":117379,"SoundDuration":117379,"Delta":102445937},{"NoteNumber":71,"Velocity":61,"Duration":117379,"SoundDuration":117379,"Delta":102445937},{"NoteNumber":72,"Velocity":64,"Duration":116792,"SoundDuration":116792,"Delta":102563317},{"NoteNumber":69,"Velocity":54,"Duration":116792,"SoundDuration":116792,"Delta":102563317},{"NoteNumber":80,"Velocity":56,"Duration":116220,"SoundDuration":116220,"Delta":102680110},{"NoteNumber":83,"Velocity":67,"Duration":116220,"SoundDuration":116220,"Delta":102680110},{"NoteNumber":81,"Velocity":59,"Duration":115682,"SoundDuration":115682,"Delta":102796330},{"NoteNumber":84,"Velocity":70,"Duration":115682,"SoundDuration":115682,"Delta":102796330},{"NoteNumber":95,"Velocity":73,"Duration":115112,"SoundDuration":115112,"Delta":102912012},{"NoteNumber":92,"Velocity":62,"Duration":115112,"SoundDuration":115112,"Delta":102912012},{"NoteNumber":96,"Velocity":83,"Duration":248962,"SoundDuration":248962,"Delta":103027125},{"NoteNumber":93,"Velocity":70,"Duration":248962,"SoundDuration":248962,"Delta":103027125},{"NoteNumber":74,"Velocity":78,"Duration":118110,"SoundDuration":118110,"Delta":103400568},{"NoteNumber":62,"Velocity":66,"Duration":118110,"SoundDuration":118110,"Delta":103400568},{"NoteNumber":38,"Velocity":60,"Duration":118110,"SoundDuration":118110,"Delta":103400568},{"NoteNumber":50,"Velocity":71,"Duration":118110,"SoundDuration":118110,"Delta":103400568},{"NoteNumber":71,"Velocity":62,"Duration":708229,"SoundDuration":708229,"Delta":103518679},{"NoteNumber":77,"Velocity":62,"Duration":708229,"SoundDuration":708229,"Delta":103518679},{"NoteNumber":83,"Velocity":86,"Duration":708229,"SoundDuration":708229,"Delta":103518679},{"NoteNumber":44,"Velocity":62,"Duration":708229,"SoundDuration":708229,"Delta":103518679},{"NoteNumber":39,"Velocity":62,"Duration":708229,"SoundDuration":708229,"Delta":103518679},{"NoteNumber":51,"Velocity":74,"Duration":708229,"SoundDuration":708229,"Delta":103518679},{"NoteNumber":58,"Velocity":56,"Duration":118523,"SoundDuration":118523,"Delta":103756279},{"NoteNumber":55,"Velocity":37,"Duration":118523,"SoundDuration":118523,"Delta":103756279},{"NoteNumber":56,"Velocity":45,"Duration":117933,"SoundDuration":117933,"Delta":103874803},{"NoteNumber":59,"Velocity":54,"Duration":117933,"SoundDuration":117933,"Delta":103874803},{"NoteNumber":67,"Velocity":51,"Duration":117379,"SoundDuration":117379,"Delta":103992736},{"NoteNumber":70,"Velocity":61,"Duration":117379,"SoundDuration":117379,"Delta":103992736},{"NoteNumber":68,"Velocity":54,"Duration":116792,"SoundDuration":116792,"Delta":104110116},{"NoteNumber":71,"Velocity":64,"Duration":116792,"SoundDuration":116792,"Delta":104110116},{"NoteNumber":79,"Velocity":56,"Duration":116220,"SoundDuration":116220,"Delta":104226909},{"NoteNumber":82,"Velocity":67,"Duration":116220,"SoundDuration":116220,"Delta":104226909},{"NoteNumber":80,"Velocity":59,"Duration":115682,"SoundDuration":115682,"Delta":104343129},{"NoteNumber":83,"Velocity":70,"Duration":115682,"SoundDuration":115682,"Delta":104343129},{"NoteNumber":91,"Velocity":62,"Duration":115112,"SoundDuration":115112,"Delta":104458811},{"NoteNumber":94,"Velocity":73,"Duration":115112,"SoundDuration":115112,"Delta":104458811},{"NoteNumber":95,"Velocity":83,"Duration":237154,"SoundDuration":237154,"Delta":104573924},{"NoteNumber":92,"Velocity":70,"Duration":237154,"SoundDuration":237154,"Delta":104573924},{"NoteNumber":74,"Velocity":78,"Duration":113207,"SoundDuration":113207,"Delta":104929655},{"NoteNumber":62,"Velocity":66,"Duration":113207,"SoundDuration":113207,"Delta":104929655},{"NoteNumber":38,"Velocity":60,"Duration":113207,"SoundDuration":113207,"Delta":104929655},{"NoteNumber":50,"Velocity":71,"Duration":113207,"SoundDuration":113207,"Delta":104929655},{"NoteNumber":82,"Velocity":86,"Duration":358423,"SoundDuration":358423,"Delta":105042862},{"NoteNumber":70,"Velocity":73,"Duration":358423,"SoundDuration":358423,"Delta":105042862},{"NoteNumber":34,"Velocity":67,"Duration":358423,"SoundDuration":358423,"Delta":105042862},{"NoteNumber":46,"Velocity":67,"Duration":358423,"SoundDuration":358423,"Delta":105042862},{"NoteNumber":51,"Velocity":43,"Duration":119474,"SoundDuration":119474,"Delta":105162337},{"NoteNumber":54,"Velocity":54,"Duration":119474,"SoundDuration":119474,"Delta":105162337},{"NoteNumber":52,"Velocity":44,"Duration":119474,"SoundDuration":119474,"Delta":105281811},{"NoteNumber":55,"Velocity":56,"Duration":119474,"SoundDuration":119474,"Delta":105281811},{"NoteNumber":63,"Velocity":59,"Duration":119474,"SoundDuration":119474,"Delta":105401285},{"NoteNumber":60,"Velocity":46,"Duration":119474,"SoundDuration":119474,"Delta":105401285},{"NoteNumber":64,"Velocity":60,"Duration":119474,"SoundDuration":119474,"Delta":105520760},{"NoteNumber":61,"Velocity":49,"Duration":119474,"SoundDuration":119474,"Delta":105520760},{"NoteNumber":70,"Velocity":73,"Duration":89605,"SoundDuration":89605,"Delta":105670102},{"NoteNumber":82,"Velocity":73,"Duration":89605,"SoundDuration":89605,"Delta":105670102},{"NoteNumber":34,"Velocity":67,"Duration":89605,"SoundDuration":89605,"Delta":105670102},{"NoteNumber":46,"Velocity":67,"Duration":89605,"SoundDuration":89605,"Delta":105670102},{"NoteNumber":69,"Velocity":72,"Duration":358423,"SoundDuration":358423,"Delta":105759708},{"NoteNumber":81,"Velocity":85,"Duration":358423,"SoundDuration":358423,"Delta":105759708},{"NoteNumber":33,"Velocity":67,"Duration":358423,"SoundDuration":358423,"Delta":105759708},{"NoteNumber":45,"Velocity":67,"Duration":358423,"SoundDuration":358423,"Delta":105759708},{"NoteNumber":54,"Velocity":54,"Duration":119474,"SoundDuration":119474,"Delta":105879183},{"NoteNumber":51,"Velocity":44,"Duration":119474,"SoundDuration":119474,"Delta":105879183},{"NoteNumber":55,"Velocity":57,"Duration":119474,"SoundDuration":119474,"Delta":105998657},{"NoteNumber":52,"Velocity":45,"Duration":119474,"SoundDuration":119474,"Delta":105998657},{"NoteNumber":60,"Velocity":46,"Duration":119474,"SoundDuration":119474,"Delta":106118131},{"NoteNumber":63,"Velocity":59,"Duration":119474,"SoundDuration":119474,"Delta":106118131},{"NoteNumber":61,"Velocity":49,"Duration":119474,"SoundDuration":119474,"Delta":106237606},{"NoteNumber":64,"Velocity":60,"Duration":119474,"SoundDuration":119474,"Delta":106237606},{"NoteNumber":67,"Velocity":52,"Duration":111110,"SoundDuration":111110,"Delta":106386948},{"NoteNumber":79,"Velocity":73,"Duration":111110,"SoundDuration":111110,"Delta":106386948},{"NoteNumber":31,"Velocity":64,"Duration":111110,"SoundDuration":111110,"Delta":106386948},{"NoteNumber":43,"Velocity":64,"Duration":111110,"SoundDuration":111110,"Delta":106386948},{"NoteNumber":66,"Velocity":62,"Duration":160427,"SoundDuration":160427,"Delta":106498059},{"NoteNumber":74,"Velocity":78,"Duration":160427,"SoundDuration":160427,"Delta":106498059},{"NoteNumber":62,"Velocity":62,"Duration":160427,"SoundDuration":160427,"Delta":106498059},{"NoteNumber":38,"Velocity":52,"Duration":160427,"SoundDuration":160427,"Delta":106498059},{"NoteNumber":45,"Velocity":52,"Duration":160427,"SoundDuration":160427,"Delta":106498059},{"NoteNumber":50,"Velocity":67,"Duration":160427,"SoundDuration":160427,"Delta":106498059},{"NoteNumber":94,"Velocity":70,"Duration":285660,"SoundDuration":285660,"Delta":106817889},{"NoteNumber":85,"Velocity":46,"Duration":95446,"SoundDuration":95446,"Delta":106817889},{"NoteNumber":76,"Velocity":39,"Duration":95446,"SoundDuration":95446,"Delta":106817889},{"NoteNumber":67,"Velocity":56,"Duration":285660,"SoundDuration":285660,"Delta":106817889},{"NoteNumber":84,"Velocity":46,"Duration":95219,"SoundDuration":95219,"Delta":106913336},{"NoteNumber":75,"Velocity":39,"Duration":95219,"SoundDuration":95219,"Delta":106913336},{"NoteNumber":83,"Velocity":47,"Duration":94993,"SoundDuration":94993,"Delta":107008556},{"NoteNumber":74,"Velocity":39,"Duration":94993,"SoundDuration":94993,"Delta":107008556},{"NoteNumber":82,"Velocity":48,"Duration":94768,"SoundDuration":94768,"Delta":107103549},{"NoteNumber":91,"Velocity":73,"Duration":283634,"SoundDuration":283634,"Delta":107103549},{"NoteNumber":73,"Velocity":40,"Duration":94768,"SoundDuration":94768,"Delta":107103549},{"NoteNumber":64,"Velocity":59,"Duration":283634,"SoundDuration":283634,"Delta":107103549},{"NoteNumber":81,"Velocity":48,"Duration":94544,"SoundDuration":94544,"Delta":107198318},{"NoteNumber":72,"Velocity":41,"Duration":94544,"SoundDuration":94544,"Delta":107198318},{"NoteNumber":80,"Velocity":49,"Duration":94321,"SoundDuration":94321,"Delta":107292862},{"NoteNumber":71,"Velocity":41,"Duration":94321,"SoundDuration":94321,"Delta":107292862},{"NoteNumber":79,"Velocity":50,"Duration":94099,"SoundDuration":94099,"Delta":107387184},{"NoteNumber":88,"Velocity":77,"Duration":281637,"SoundDuration":281637,"Delta":107387184},{"NoteNumber":61,"Velocity":62,"Duration":281637,"SoundDuration":281637,"Delta":107387184},{"NoteNumber":70,"Velocity":41,"Duration":94099,"SoundDuration":94099,"Delta":107387184},{"NoteNumber":78,"Velocity":50,"Duration":93878,"SoundDuration":93878,"Delta":107481284},{"NoteNumber":69,"Velocity":42,"Duration":93878,"SoundDuration":93878,"Delta":107481284},{"NoteNumber":77,"Velocity":51,"Duration":93658,"SoundDuration":93658,"Delta":107575162},{"NoteNumber":68,"Velocity":43,"Duration":93658,"SoundDuration":93658,"Delta":107575162},{"NoteNumber":85,"Velocity":80,"Duration":140060,"SoundDuration":140060,"Delta":107668821},{"NoteNumber":76,"Velocity":51,"Duration":140060,"SoundDuration":140060,"Delta":107668821},{"NoteNumber":58,"Velocity":65,"Duration":140060,"SoundDuration":140060,"Delta":107668821},{"NoteNumber":67,"Velocity":43,"Duration":140060,"SoundDuration":140060,"Delta":107668821},{"NoteNumber":70,"Velocity":47,"Duration":96618,"SoundDuration":96618,"Delta":107948507},{"NoteNumber":82,"Velocity":84,"Duration":289855,"SoundDuration":289855,"Delta":107948507},{"NoteNumber":49,"Velocity":56,"Duration":144927,"SoundDuration":144927,"Delta":107948507},{"NoteNumber":55,"Velocity":39,"Duration":144927,"SoundDuration":144927,"Delta":107948507},{"NoteNumber":43,"Velocity":34,"Duration":144927,"SoundDuration":144927,"Delta":107948507},{"NoteNumber":52,"Velocity":39,"Duration":144927,"SoundDuration":144927,"Delta":107948507},{"NoteNumber":73,"Velocity":60,"Duration":96618,"SoundDuration":96618,"Delta":108045126},{"NoteNumber":76,"Velocity":60,"Duration":96618,"SoundDuration":96618,"Delta":108141744},{"NoteNumber":74,"Velocity":68,"Duration":157480,"SoundDuration":157480,"Delta":108238362},{"NoteNumber":86,"Velocity":85,"Duration":157480,"SoundDuration":157480,"Delta":108238362},{"NoteNumber":78,"Velocity":68,"Duration":157480,"SoundDuration":157480,"Delta":108238362},{"NoteNumber":62,"Velocity":73,"Duration":157480,"SoundDuration":157480,"Delta":108238362},{"NoteNumber":54,"Velocity":57,"Duration":157480,"SoundDuration":157480,"Delta":108238362},{"NoteNumber":50,"Velocity":57,"Duration":157480,"SoundDuration":157480,"Delta":108238362},{"NoteNumber":57,"Velocity":57,"Duration":157480,"SoundDuration":157480,"Delta":108238362},{"NoteNumber":82,"Velocity":70,"Duration":288823,"SoundDuration":288823,"Delta":108552575},{"NoteNumber":73,"Velocity":46,"Duration":96552,"SoundDuration":96552,"Delta":108552575},{"NoteNumber":64,"Velocity":39,"Duration":96552,"SoundDuration":96552,"Delta":108552575},{"NoteNumber":55,"Velocity":56,"Duration":288823,"SoundDuration":288823,"Delta":108552575},{"NoteNumber":72,"Velocity":46,"Duration":96274,"SoundDuration":96274,"Delta":108649128},{"NoteNumber":63,"Velocity":39,"Duration":96274,"SoundDuration":96274,"Delta":108649128},{"NoteNumber":71,"Velocity":47,"Duration":95996,"SoundDuration":95996,"Delta":108745402},{"NoteNumber":62,"Velocity":39,"Duration":95996,"SoundDuration":95996,"Delta":108745402},{"NoteNumber":79,"Velocity":73,"Duration":286233,"SoundDuration":286233,"Delta":108841399},{"NoteNumber":70,"Velocity":48,"Duration":95702,"SoundDuration":95702,"Delta":108841399},{"NoteNumber":61,"Velocity":40,"Duration":95702,"SoundDuration":95702,"Delta":108841399},{"NoteNumber":52,"Velocity":59,"Duration":286233,"SoundDuration":286233,"Delta":108841399},{"NoteNumber":69,"Velocity":48,"Duration":95401,"SoundDuration":95401,"Delta":108937101},{"NoteNumber":60,"Velocity":41,"Duration":95401,"SoundDuration":95401,"Delta":108937101},{"NoteNumber":68,"Velocity":49,"Duration":95129,"SoundDuration":95129,"Delta":109032503},{"NoteNumber":59,"Velocity":41,"Duration":95129,"SoundDuration":95129,"Delta":109032503},{"NoteNumber":76,"Velocity":77,"Duration":283706,"SoundDuration":283706,"Delta":109127632},{"NoteNumber":67,"Velocity":50,"Duration":94858,"SoundDuration":94858,"Delta":109127632},{"NoteNumber":58,"Velocity":41,"Duration":94858,"SoundDuration":94858,"Delta":109127632},{"NoteNumber":49,"Velocity":62,"Duration":283706,"SoundDuration":283706,"Delta":109127632},{"NoteNumber":66,"Velocity":50,"Duration":94571,"SoundDuration":94571,"Delta":109222490},{"NoteNumber":57,"Velocity":42,"Duration":94571,"SoundDuration":94571,"Delta":109222490},{"NoteNumber":65,"Velocity":51,"Duration":94277,"SoundDuration":94277,"Delta":109317061},{"NoteNumber":56,"Velocity":43,"Duration":94277,"SoundDuration":94277,"Delta":109317061},{"NoteNumber":64,"Velocity":51,"Duration":140919,"SoundDuration":140919,"Delta":109411339},{"NoteNumber":73,"Velocity":80,"Duration":140919,"SoundDuration":140919,"Delta":109411339},{"NoteNumber":55,"Velocity":43,"Duration":140919,"SoundDuration":140919,"Delta":109411339},{"NoteNumber":46,"Velocity":65,"Duration":140919,"SoundDuration":140919,"Delta":109411339},{"NoteNumber":70,"Velocity":84,"Duration":299251,"SoundDuration":299251,"Delta":109692563},{"NoteNumber":58,"Velocity":47,"Duration":99750,"SoundDuration":99750,"Delta":109692563},{"NoteNumber":49,"Velocity":56,"Duration":149625,"SoundDuration":149625,"Delta":109692563},{"NoteNumber":52,"Velocity":39,"Duration":149625,"SoundDuration":149625,"Delta":109692563},{"NoteNumber":55,"Velocity":39,"Duration":149625,"SoundDuration":149625,"Delta":109692563},{"NoteNumber":43,"Velocity":34,"Duration":149625,"SoundDuration":149625,"Delta":109692563},{"NoteNumber":61,"Velocity":60,"Duration":99750,"SoundDuration":99750,"Delta":109792314},{"NoteNumber":64,"Velocity":60,"Duration":99750,"SoundDuration":99750,"Delta":109892064},{"NoteNumber":66,"Velocity":73,"Duration":144231,"SoundDuration":144231,"Delta":109991815},{"NoteNumber":74,"Velocity":93,"Duration":144231,"SoundDuration":144231,"Delta":109991815},{"NoteNumber":62,"Velocity":73,"Duration":144231,"SoundDuration":144231,"Delta":109991815},{"NoteNumber":50,"Velocity":73,"Duration":144231,"SoundDuration":144231,"Delta":109991815},{"NoteNumber":42,"Velocity":57,"Duration":144231,"SoundDuration":144231,"Delta":109991815},{"NoteNumber":38,"Velocity":57,"Duration":144231,"SoundDuration":144231,"Delta":109991815},{"NoteNumber":45,"Velocity":57,"Duration":144231,"SoundDuration":144231,"Delta":109991815},{"NoteNumber":76,"Velocity":70,"Duration":294117,"SoundDuration":294117,"Delta":110280277},{"NoteNumber":64,"Velocity":57,"Duration":98039,"SoundDuration":98039,"Delta":110280277},{"NoteNumber":46,"Velocity":53,"Duration":147058,"SoundDuration":147058,"Delta":110280277},{"NoteNumber":49,"Velocity":53,"Duration":147058,"SoundDuration":147058,"Delta":110280277},{"NoteNumber":43,"Velocity":53,"Duration":147058,"SoundDuration":147058,"Delta":110280277},{"NoteNumber":55,"Velocity":53,"Duration":147058,"SoundDuration":147058,"Delta":110280277},{"NoteNumber":70,"Velocity":57,"Duration":98039,"SoundDuration":98039,"Delta":110378316},{"NoteNumber":73,"Velocity":57,"Duration":98039,"SoundDuration":98039,"Delta":110476356},{"NoteNumber":69,"Velocity":71,"Duration":143884,"SoundDuration":143884,"Delta":110574395},{"NoteNumber":78,"Velocity":90,"Duration":143884,"SoundDuration":143884,"Delta":110574395},{"NoteNumber":66,"Velocity":71,"Duration":143884,"SoundDuration":143884,"Delta":110574395},{"NoteNumber":62,"Velocity":54,"Duration":143884,"SoundDuration":143884,"Delta":110574395},{"NoteNumber":57,"Velocity":54,"Duration":143884,"SoundDuration":143884,"Delta":110574395},{"NoteNumber":54,"Velocity":54,"Duration":143884,"SoundDuration":143884,"Delta":110574395},{"NoteNumber":50,"Velocity":54,"Duration":143884,"SoundDuration":143884,"Delta":110574395},{"NoteNumber":82,"Velocity":71,"Duration":291971,"SoundDuration":291971,"Delta":110862165},{"NoteNumber":70,"Velocity":58,"Duration":97323,"SoundDuration":97323,"Delta":110862165},{"NoteNumber":43,"Velocity":54,"Duration":145985,"SoundDuration":145985,"Delta":110862165},{"NoteNumber":49,"Velocity":54,"Duration":145985,"SoundDuration":145985,"Delta":110862165},{"NoteNumber":46,"Velocity":54,"Duration":145985,"SoundDuration":145985,"Delta":110862165},{"NoteNumber":55,"Velocity":54,"Duration":145985,"SoundDuration":145985,"Delta":110862165},{"NoteNumber":73,"Velocity":58,"Duration":97323,"SoundDuration":97323,"Delta":110959489},{"NoteNumber":76,"Velocity":59,"Duration":97323,"SoundDuration":97323,"Delta":111056812},{"NoteNumber":78,"Velocity":72,"Duration":143197,"SoundDuration":143197,"Delta":111154136},{"NoteNumber":74,"Velocity":72,"Duration":143197,"SoundDuration":143197,"Delta":111154136},{"NoteNumber":86,"Velocity":91,"Duration":143197,"SoundDuration":143197,"Delta":111154136},{"NoteNumber":42,"Velocity":55,"Duration":143197,"SoundDuration":143197,"Delta":111154136},{"NoteNumber":38,"Velocity":55,"Duration":143197,"SoundDuration":143197,"Delta":111154136},{"NoteNumber":45,"Velocity":55,"Duration":143197,"SoundDuration":143197,"Delta":111154136},{"NoteNumber":50,"Velocity":55,"Duration":143197,"SoundDuration":143197,"Delta":111154136},{"NoteNumber":88,"Velocity":73,"Duration":293398,"SoundDuration":293398,"Delta":111440532},{"NoteNumber":76,"Velocity":60,"Duration":97799,"SoundDuration":97799,"Delta":111440532},{"NoteNumber":34,"Velocity":56,"Duration":146699,"SoundDuration":146699,"Delta":111440532},{"NoteNumber":31,"Velocity":56,"Duration":146699,"SoundDuration":146699,"Delta":111440532},{"NoteNumber":37,"Velocity":56,"Duration":146699,"SoundDuration":146699,"Delta":111440532},{"NoteNumber":43,"Velocity":56,"Duration":146699,"SoundDuration":146699,"Delta":111440532},{"NoteNumber":82,"Velocity":60,"Duration":97799,"SoundDuration":97799,"Delta":111538332},{"NoteNumber":85,"Velocity":60,"Duration":97799,"SoundDuration":97799,"Delta":111636131},{"NoteNumber":90,"Velocity":94,"Duration":143884,"SoundDuration":143884,"Delta":111733931},{"NoteNumber":81,"Velocity":74,"Duration":143884,"SoundDuration":143884,"Delta":111733931},{"NoteNumber":78,"Velocity":74,"Duration":143884,"SoundDuration":143884,"Delta":111733931},{"NoteNumber":50,"Velocity":74,"Duration":143884,"SoundDuration":143884,"Delta":111733931},{"NoteNumber":42,"Velocity":57,"Duration":143884,"SoundDuration":143884,"Delta":111733931},{"NoteNumber":38,"Velocity":57,"Duration":143884,"SoundDuration":143884,"Delta":111733931},{"NoteNumber":45,"Velocity":57,"Duration":143884,"SoundDuration":143884,"Delta":111733931},{"NoteNumber":82,"Velocity":61,"Duration":98039,"SoundDuration":98039,"Delta":112021701},{"NoteNumber":94,"Velocity":75,"Duration":294117,"SoundDuration":294117,"Delta":112021701},{"NoteNumber":34,"Velocity":57,"Duration":147058,"SoundDuration":147058,"Delta":112021701},{"NoteNumber":43,"Velocity":57,"Duration":147058,"SoundDuration":147058,"Delta":112021701},{"NoteNumber":31,"Velocity":57,"Duration":147058,"SoundDuration":147058,"Delta":112021701},{"NoteNumber":37,"Velocity":57,"Duration":147058,"SoundDuration":147058,"Delta":112021701},{"NoteNumber":85,"Velocity":61,"Duration":98039,"SoundDuration":98039,"Delta":112119740},{"NoteNumber":88,"Velocity":62,"Duration":98039,"SoundDuration":98039,"Delta":112217780},{"NoteNumber":90,"Velocity":75,"Duration":143884,"SoundDuration":143884,"Delta":112315819},{"NoteNumber":86,"Velocity":75,"Duration":143884,"SoundDuration":143884,"Delta":112315819},{"NoteNumber":98,"Velocity":96,"Duration":143884,"SoundDuration":143884,"Delta":112315819},{"NoteNumber":38,"Velocity":57,"Duration":143884,"SoundDuration":143884,"Delta":112315819},{"NoteNumber":45,"Velocity":57,"Duration":143884,"SoundDuration":143884,"Delta":112315819},{"NoteNumber":50,"Velocity":57,"Duration":143884,"SoundDuration":143884,"Delta":112315819},{"NoteNumber":42,"Velocity":57,"Duration":143884,"SoundDuration":143884,"Delta":112315819},{"NoteNumber":94,"Velocity":77,"Duration":294839,"SoundDuration":294839,"Delta":112603589},{"NoteNumber":82,"Velocity":63,"Duration":98280,"SoundDuration":98280,"Delta":112603589},{"NoteNumber":37,"Velocity":58,"Duration":147419,"SoundDuration":147419,"Delta":112603589},{"NoteNumber":34,"Velocity":58,"Duration":147419,"SoundDuration":147419,"Delta":112603589},{"NoteNumber":31,"Velocity":58,"Duration":147419,"SoundDuration":147419,"Delta":112603589},{"NoteNumber":43,"Velocity":58,"Duration":147419,"SoundDuration":147419,"Delta":112603589},{"NoteNumber":85,"Velocity":63,"Duration":98280,"SoundDuration":98280,"Delta":112701869},{"NoteNumber":88,"Velocity":63,"Duration":98279,"SoundDuration":98279,"Delta":112800149},{"NoteNumber":86,"Velocity":77,"Duration":143540,"SoundDuration":143540,"Delta":112898429},{"NoteNumber":90,"Velocity":77,"Duration":143540,"SoundDuration":143540,"Delta":112898429},{"NoteNumber":98,"Velocity":98,"Duration":143540,"SoundDuration":143540,"Delta":112898429},{"NoteNumber":38,"Velocity":59,"Duration":143540,"SoundDuration":143540,"Delta":112898429},{"NoteNumber":50,"Velocity":59,"Duration":143540,"SoundDuration":143540,"Delta":112898429},{"NoteNumber":42,"Velocity":59,"Duration":143540,"SoundDuration":143540,"Delta":112898429},{"NoteNumber":45,"Velocity":59,"Duration":143540,"SoundDuration":143540,"Delta":112898429},{"NoteNumber":94,"Velocity":78,"Duration":293457,"SoundDuration":293457,"Delta":113185510},{"NoteNumber":82,"Velocity":64,"Duration":97799,"SoundDuration":97799,"Delta":113185510},{"NoteNumber":43,"Velocity":59,"Duration":146699,"SoundDuration":146699,"Delta":113185510},{"NoteNumber":31,"Velocity":59,"Duration":146699,"SoundDuration":146699,"Delta":113185510},{"NoteNumber":34,"Velocity":59,"Duration":146699,"SoundDuration":146699,"Delta":113185510},{"NoteNumber":37,"Velocity":59,"Duration":146699,"SoundDuration":146699,"Delta":113185510},{"NoteNumber":85,"Velocity":64,"Duration":97799,"SoundDuration":97799,"Delta":113283310},{"NoteNumber":88,"Velocity":64,"Duration":97858,"SoundDuration":97858,"Delta":113381109},{"NoteNumber":98,"Velocity":78,"Duration":146880,"SoundDuration":146880,"Delta":113478967},{"NoteNumber":86,"Velocity":66,"Duration":146880,"SoundDuration":146880,"Delta":113478967},{"NoteNumber":90,"Velocity":78,"Duration":146880,"SoundDuration":146880,"Delta":113478967},{"NoteNumber":38,"Velocity":59,"Duration":146880,"SoundDuration":146880,"Delta":113478967},{"NoteNumber":42,"Velocity":59,"Duration":146880,"SoundDuration":146880,"Delta":113478967},{"NoteNumber":45,"Velocity":59,"Duration":146880,"SoundDuration":146880,"Delta":113478967},{"NoteNumber":50,"Velocity":59,"Duration":146880,"SoundDuration":146880,"Delta":113478967},{"NoteNumber":94,"Velocity":75,"Duration":146202,"SoundDuration":146202,"Delta":113625848},{"NoteNumber":82,"Velocity":63,"Duration":146202,"SoundDuration":146202,"Delta":113625848},{"NoteNumber":81,"Velocity":66,"Duration":145540,"SoundDuration":145540,"Delta":113772050},{"NoteNumber":69,"Velocity":56,"Duration":145540,"SoundDuration":145540,"Delta":113772050},{"NoteNumber":66,"Velocity":56,"Duration":144884,"SoundDuration":144884,"Delta":113917590},{"NoteNumber":78,"Velocity":66,"Duration":144884,"SoundDuration":144884,"Delta":113917590},{"NoteNumber":74,"Velocity":62,"Duration":144234,"SoundDuration":144234,"Delta":114062475},{"NoteNumber":86,"Velocity":74,"Duration":144234,"SoundDuration":144234,"Delta":114062475},{"NoteNumber":70,"Velocity":62,"Duration":143884,"SoundDuration":143884,"Delta":114206709},{"NoteNumber":82,"Velocity":74,"Duration":143884,"SoundDuration":143884,"Delta":114206709},{"NoteNumber":57,"Velocity":51,"Duration":143884,"SoundDuration":143884,"Delta":114350594},{"NoteNumber":69,"Velocity":61,"Duration":143884,"SoundDuration":143884,"Delta":114350594},{"NoteNumber":66,"Velocity":61,"Duration":143884,"SoundDuration":143884,"Delta":114494479},{"NoteNumber":54,"Velocity":51,"Duration":143884,"SoundDuration":143884,"Delta":114494479},{"NoteNumber":74,"Velocity":73,"Duration":143884,"SoundDuration":143884,"Delta":114638364},{"NoteNumber":62,"Velocity":62,"Duration":143884,"SoundDuration":143884,"Delta":114638364},{"NoteNumber":58,"Velocity":62,"Duration":143885,"SoundDuration":143885,"Delta":114782249},{"NoteNumber":70,"Velocity":73,"Duration":143885,"SoundDuration":143885,"Delta":114782249},{"NoteNumber":57,"Velocity":62,"Duration":143884,"SoundDuration":143884,"Delta":114926134},{"NoteNumber":45,"Velocity":52,"Duration":143884,"SoundDuration":143884,"Delta":114926134},{"NoteNumber":54,"Velocity":62,"Duration":143884,"SoundDuration":143884,"Delta":115070019},{"NoteNumber":42,"Velocity":52,"Duration":143884,"SoundDuration":143884,"Delta":115070019},{"NoteNumber":50,"Velocity":61,"Duration":144194,"SoundDuration":144194,"Delta":115213904},{"NoteNumber":62,"Velocity":72,"Duration":144194,"SoundDuration":144194,"Delta":115213904},{"NoteNumber":48,"Velocity":56,"Duration":144287,"SoundDuration":144287,"Delta":115358099},{"NoteNumber":36,"Velocity":47,"Duration":144287,"SoundDuration":144287,"Delta":115358099},{"NoteNumber":62,"Velocity":71,"Duration":144578,"SoundDuration":144578,"Delta":115502386},{"NoteNumber":50,"Velocity":60,"Duration":144578,"SoundDuration":144578,"Delta":115502386},{"NoteNumber":35,"Velocity":45,"Duration":144728,"SoundDuration":144728,"Delta":115646965},{"NoteNumber":47,"Velocity":54,"Duration":144728,"SoundDuration":144728,"Delta":115646965},{"NoteNumber":62,"Velocity":70,"Duration":144927,"SoundDuration":144927,"Delta":115791693},{"NoteNumber":50,"Velocity":59,"Duration":144927,"SoundDuration":144927,"Delta":115791693},{"NoteNumber":34,"Velocity":45,"Duration":145171,"SoundDuration":145171,"Delta":115936621},{"NoteNumber":46,"Velocity":53,"Duration":145171,"SoundDuration":145171,"Delta":115936621},{"NoteNumber":62,"Velocity":69,"Duration":145702,"SoundDuration":145702,"Delta":116081792},{"NoteNumber":50,"Velocity":58,"Duration":145702,"SoundDuration":145702,"Delta":116081792},{"NoteNumber":31,"Velocity":43,"Duration":147012,"SoundDuration":147012,"Delta":116227495},{"NoteNumber":43,"Velocity":51,"Duration":147012,"SoundDuration":147012,"Delta":116227495},{"NoteNumber":62,"Velocity":68,"Duration":148369,"SoundDuration":148369,"Delta":116374507},{"NoteNumber":50,"Velocity":57,"Duration":148369,"SoundDuration":148369,"Delta":116374507},{"NoteNumber":44,"Velocity":49,"Duration":149626,"SoundDuration":149626,"Delta":116522876},{"NoteNumber":32,"Velocity":41,"Duration":149626,"SoundDuration":149626,"Delta":116522876},{"NoteNumber":62,"Velocity":67,"Duration":150982,"SoundDuration":150982,"Delta":116672503},{"NoteNumber":50,"Velocity":56,"Duration":150982,"SoundDuration":150982,"Delta":116672503},{"NoteNumber":33,"Velocity":39,"Duration":153151,"SoundDuration":153151,"Delta":116823486},{"NoteNumber":45,"Velocity":47,"Duration":153151,"SoundDuration":153151,"Delta":116823486},{"NoteNumber":26,"Velocity":46,"Duration":77519,"SoundDuration":77519,"Delta":116976637},{"NoteNumber":38,"Velocity":56,"Duration":77519,"SoundDuration":77519,"Delta":116976637},{"NoteNumber":39,"Velocity":50,"Duration":77466,"SoundDuration":77466,"Delta":117054156},{"NoteNumber":51,"Velocity":61,"Duration":77466,"SoundDuration":77466,"Delta":117054156},{"NoteNumber":28,"Velocity":46,"Duration":77319,"SoundDuration":77319,"Delta":117131623},{"NoteNumber":40,"Velocity":56,"Duration":77319,"SoundDuration":77319,"Delta":117131623},{"NoteNumber":53,"Velocity":61,"Duration":77319,"SoundDuration":77319,"Delta":117208942},{"NoteNumber":41,"Velocity":50,"Duration":77319,"SoundDuration":77319,"Delta":117208942},{"NoteNumber":42,"Velocity":56,"Duration":77147,"SoundDuration":77147,"Delta":117286262},{"NoteNumber":30,"Velocity":46,"Duration":77147,"SoundDuration":77147,"Delta":117286262},{"NoteNumber":55,"Velocity":61,"Duration":77120,"SoundDuration":77120,"Delta":117363409},{"NoteNumber":43,"Velocity":50,"Duration":77120,"SoundDuration":77120,"Delta":117363409},{"NoteNumber":44,"Velocity":56,"Duration":76975,"SoundDuration":76975,"Delta":117440530},{"NoteNumber":32,"Velocity":46,"Duration":76975,"SoundDuration":76975,"Delta":117440530},{"NoteNumber":45,"Velocity":50,"Duration":76922,"SoundDuration":76922,"Delta":117517505},{"NoteNumber":57,"Velocity":61,"Duration":76922,"SoundDuration":76922,"Delta":117517505},{"NoteNumber":46,"Velocity":56,"Duration":76857,"SoundDuration":76857,"Delta":117594428},{"NoteNumber":34,"Velocity":46,"Duration":76857,"SoundDuration":76857,"Delta":117594428},{"NoteNumber":47,"Velocity":50,"Duration":76726,"SoundDuration":76726,"Delta":117671286},{"NoteNumber":59,"Velocity":61,"Duration":76726,"SoundDuration":76726,"Delta":117671286},{"NoteNumber":36,"Velocity":46,"Duration":76687,"SoundDuration":76687,"Delta":117748012},{"NoteNumber":48,"Velocity":56,"Duration":76687,"SoundDuration":76687,"Delta":117748012},{"NoteNumber":49,"Velocity":50,"Duration":76530,"SoundDuration":76530,"Delta":117824699},{"NoteNumber":61,"Velocity":61,"Duration":76530,"SoundDuration":76530,"Delta":117824699},{"NoteNumber":38,"Velocity":46,"Duration":76530,"SoundDuration":76530,"Delta":117901230},{"NoteNumber":50,"Velocity":56,"Duration":76530,"SoundDuration":76530,"Delta":117901230},{"NoteNumber":63,"Velocity":61,"Duration":76374,"SoundDuration":76374,"Delta":117977760},{"NoteNumber":51,"Velocity":50,"Duration":76374,"SoundDuration":76374,"Delta":117977760},{"NoteNumber":52,"Velocity":56,"Duration":76335,"SoundDuration":76335,"Delta":118054135},{"NoteNumber":40,"Velocity":46,"Duration":76335,"SoundDuration":76335,"Delta":118054135},{"NoteNumber":53,"Velocity":50,"Duration":76206,"SoundDuration":76206,"Delta":118130471},{"NoteNumber":65,"Velocity":61,"Duration":76206,"SoundDuration":76206,"Delta":118130471},{"NoteNumber":54,"Velocity":56,"Duration":76142,"SoundDuration":76142,"Delta":118206678},{"NoteNumber":42,"Velocity":46,"Duration":76142,"SoundDuration":76142,"Delta":118206678},{"NoteNumber":55,"Velocity":52,"Duration":76090,"SoundDuration":76090,"Delta":118282820},{"NoteNumber":67,"Velocity":62,"Duration":76090,"SoundDuration":76090,"Delta":118282820},{"NoteNumber":56,"Velocity":57,"Duration":75949,"SoundDuration":75949,"Delta":118358911},{"NoteNumber":44,"Velocity":48,"Duration":75949,"SoundDuration":75949,"Delta":118358911},{"NoteNumber":69,"Velocity":63,"Duration":75949,"SoundDuration":75949,"Delta":118434860},{"NoteNumber":57,"Velocity":54,"Duration":75949,"SoundDuration":75949,"Delta":118434860},{"NoteNumber":58,"Velocity":58,"Duration":75783,"SoundDuration":75783,"Delta":118510809},{"NoteNumber":46,"Velocity":49,"Duration":75783,"SoundDuration":75783,"Delta":118510809},{"NoteNumber":71,"Velocity":66,"Duration":75757,"SoundDuration":75757,"Delta":118586592},{"NoteNumber":59,"Velocity":55,"Duration":75757,"SoundDuration":75757,"Delta":118586592},{"NoteNumber":48,"Velocity":51,"Duration":75617,"SoundDuration":75617,"Delta":118662350},{"NoteNumber":60,"Velocity":61,"Duration":75617,"SoundDuration":75617,"Delta":118662350},{"NoteNumber":73,"Velocity":67,"Duration":75566,"SoundDuration":75566,"Delta":118737968},{"NoteNumber":61,"Velocity":56,"Duration":75566,"SoundDuration":75566,"Delta":118737968},{"NoteNumber":62,"Velocity":62,"Duration":75503,"SoundDuration":75503,"Delta":118813534},{"NoteNumber":50,"Velocity":52,"Duration":75503,"SoundDuration":75503,"Delta":118813534},{"NoteNumber":75,"Velocity":68,"Duration":75377,"SoundDuration":75377,"Delta":118889038},{"NoteNumber":63,"Velocity":57,"Duration":75377,"SoundDuration":75377,"Delta":118889038},{"NoteNumber":52,"Velocity":54,"Duration":75339,"SoundDuration":75339,"Delta":118964415},{"NoteNumber":64,"Velocity":63,"Duration":75339,"SoundDuration":75339,"Delta":118964415},{"NoteNumber":77,"Velocity":69,"Duration":75187,"SoundDuration":75187,"Delta":119039754},{"NoteNumber":65,"Velocity":58,"Duration":75187,"SoundDuration":75187,"Delta":119039754},{"NoteNumber":54,"Velocity":54,"Duration":75187,"SoundDuration":75187,"Delta":119114942},{"NoteNumber":66,"Velocity":64,"Duration":75187,"SoundDuration":75187,"Delta":119114942},{"NoteNumber":79,"Velocity":70,"Duration":75037,"SoundDuration":75037,"Delta":119190130},{"NoteNumber":67,"Velocity":58,"Duration":75037,"SoundDuration":75037,"Delta":119190130},{"NoteNumber":56,"Velocity":55,"Duration":75000,"SoundDuration":75000,"Delta":119265168},{"NoteNumber":68,"Velocity":66,"Duration":75000,"SoundDuration":75000,"Delta":119265168},{"NoteNumber":81,"Velocity":72,"Duration":75025,"SoundDuration":75025,"Delta":119340168},{"NoteNumber":69,"Velocity":60,"Duration":75025,"SoundDuration":75025,"Delta":119340168},{"NoteNumber":70,"Velocity":67,"Duration":75062,"SoundDuration":75062,"Delta":119415193},{"NoteNumber":58,"Velocity":56,"Duration":75062,"SoundDuration":75062,"Delta":119415193},{"NoteNumber":71,"Velocity":61,"Duration":74713,"SoundDuration":74713,"Delta":119490256},{"NoteNumber":83,"Velocity":73,"Duration":74713,"SoundDuration":74713,"Delta":119490256},{"NoteNumber":60,"Velocity":57,"Duration":74454,"SoundDuration":74454,"Delta":119564969},{"NoteNumber":72,"Velocity":68,"Duration":74454,"SoundDuration":74454,"Delta":119564969},{"NoteNumber":73,"Velocity":74,"Duration":74208,"SoundDuration":74208,"Delta":119639424},{"NoteNumber":85,"Velocity":74,"Duration":74208,"SoundDuration":74208,"Delta":119639424},{"NoteNumber":74,"Velocity":69,"Duration":74257,"SoundDuration":74257,"Delta":119713632},{"NoteNumber":62,"Velocity":58,"Duration":74257,"SoundDuration":74257,"Delta":119713632},{"NoteNumber":85,"Velocity":75,"Duration":74257,"SoundDuration":74257,"Delta":119787890},{"NoteNumber":73,"Velocity":63,"Duration":74257,"SoundDuration":74257,"Delta":119787890},{"NoteNumber":72,"Velocity":68,"Duration":74257,"SoundDuration":74257,"Delta":119862147},{"NoteNumber":60,"Velocity":57,"Duration":74257,"SoundDuration":74257,"Delta":119862147},{"NoteNumber":71,"Velocity":62,"Duration":74257,"SoundDuration":74257,"Delta":119936405},{"NoteNumber":83,"Velocity":74,"Duration":74257,"SoundDuration":74257,"Delta":119936405},{"NoteNumber":58,"Velocity":56,"Duration":74257,"SoundDuration":74257,"Delta":120010662},{"NoteNumber":70,"Velocity":67,"Duration":74257,"SoundDuration":74257,"Delta":120010662},{"NoteNumber":69,"Velocity":61,"Duration":74404,"SoundDuration":74404,"Delta":120084920},{"NoteNumber":81,"Velocity":73,"Duration":74404,"SoundDuration":74404,"Delta":120084920},{"NoteNumber":56,"Velocity":55,"Duration":74441,"SoundDuration":74441,"Delta":120159325},{"NoteNumber":68,"Velocity":66,"Duration":74441,"SoundDuration":74441,"Delta":120159325},{"NoteNumber":79,"Velocity":72,"Duration":74441,"SoundDuration":74441,"Delta":120233766},{"NoteNumber":67,"Velocity":60,"Duration":74441,"SoundDuration":74441,"Delta":120233766},{"NoteNumber":54,"Velocity":54,"Duration":74441,"SoundDuration":74441,"Delta":120308208},{"NoteNumber":66,"Velocity":64,"Duration":74441,"SoundDuration":74441,"Delta":120308208},{"NoteNumber":77,"Velocity":70,"Duration":74441,"SoundDuration":74441,"Delta":120382650},{"NoteNumber":65,"Velocity":58,"Duration":74441,"SoundDuration":74441,"Delta":120382650},{"NoteNumber":64,"Velocity":63,"Duration":74478,"SoundDuration":74478,"Delta":120457092},{"NoteNumber":52,"Velocity":54,"Duration":74478,"SoundDuration":74478,"Delta":120457092},{"NoteNumber":63,"Velocity":58,"Duration":74626,"SoundDuration":74626,"Delta":120531570},{"NoteNumber":75,"Velocity":69,"Duration":74626,"SoundDuration":74626,"Delta":120531570},{"NoteNumber":50,"Velocity":52,"Duration":74626,"SoundDuration":74626,"Delta":120606197},{"NoteNumber":62,"Velocity":62,"Duration":74626,"SoundDuration":74626,"Delta":120606197},{"NoteNumber":73,"Velocity":68,"Duration":74626,"SoundDuration":74626,"Delta":120680824},{"NoteNumber":61,"Velocity":57,"Duration":74626,"SoundDuration":74626,"Delta":120680824},{"NoteNumber":60,"Velocity":61,"Duration":74626,"SoundDuration":74626,"Delta":120755451},{"NoteNumber":48,"Velocity":51,"Duration":74626,"SoundDuration":74626,"Delta":120755451},{"NoteNumber":59,"Velocity":56,"Duration":74626,"SoundDuration":74626,"Delta":120830077},{"NoteNumber":71,"Velocity":67,"Duration":74626,"SoundDuration":74626,"Delta":120830077},{"NoteNumber":46,"Velocity":50,"Duration":74950,"SoundDuration":74950,"Delta":120904704},{"NoteNumber":58,"Velocity":60,"Duration":74950,"SoundDuration":74950,"Delta":120904704},{"NoteNumber":69,"Velocity":66,"Duration":75150,"SoundDuration":75150,"Delta":120979654},{"NoteNumber":57,"Velocity":55,"Duration":75150,"SoundDuration":75150,"Delta":120979654},{"NoteNumber":56,"Velocity":58,"Duration":75326,"SoundDuration":75326,"Delta":121054805},{"NoteNumber":44,"Velocity":49,"Duration":75326,"SoundDuration":75326,"Delta":121054805},{"NoteNumber":67,"Velocity":62,"Duration":75554,"SoundDuration":75554,"Delta":121130131},{"NoteNumber":55,"Velocity":52,"Duration":75554,"SoundDuration":75554,"Delta":121130131},{"NoteNumber":42,"Velocity":48,"Duration":75744,"SoundDuration":75744,"Delta":121205685},{"NoteNumber":54,"Velocity":57,"Duration":75744,"SoundDuration":75744,"Delta":121205685},{"NoteNumber":65,"Velocity":61,"Duration":75949,"SoundDuration":75949,"Delta":121281430},{"NoteNumber":53,"Velocity":50,"Duration":75949,"SoundDuration":75949,"Delta":121281430},{"NoteNumber":52,"Velocity":56,"Duration":76180,"SoundDuration":76180,"Delta":121357379},{"NoteNumber":40,"Velocity":46,"Duration":76180,"SoundDuration":76180,"Delta":121357379},{"NoteNumber":63,"Velocity":61,"Duration":76361,"SoundDuration":76361,"Delta":121433560},{"NoteNumber":51,"Velocity":50,"Duration":76361,"SoundDuration":76361,"Delta":121433560},{"NoteNumber":38,"Velocity":46,"Duration":76595,"SoundDuration":76595,"Delta":121509922},{"NoteNumber":50,"Velocity":55,"Duration":76595,"SoundDuration":76595,"Delta":121509922},{"NoteNumber":49,"Velocity":50,"Duration":76778,"SoundDuration":76778,"Delta":121586518},{"NoteNumber":61,"Velocity":60,"Duration":76778,"SoundDuration":76778,"Delta":121586518},{"NoteNumber":48,"Velocity":54,"Duration":77015,"SoundDuration":77015,"Delta":121663297},{"NoteNumber":36,"Velocity":45,"Duration":77015,"SoundDuration":77015,"Delta":121663297},{"NoteNumber":59,"Velocity":57,"Duration":77200,"SoundDuration":77200,"Delta":121740312},{"NoteNumber":47,"Velocity":48,"Duration":77200,"SoundDuration":77200,"Delta":121740312},{"NoteNumber":34,"Velocity":44,"Duration":77519,"SoundDuration":77519,"Delta":121817512},{"NoteNumber":46,"Velocity":52,"Duration":77519,"SoundDuration":77519,"Delta":121817512},{"NoteNumber":57,"Velocity":56,"Duration":78247,"SoundDuration":78247,"Delta":121895032},{"NoteNumber":45,"Velocity":46,"Duration":78247,"SoundDuration":78247,"Delta":121895032},{"NoteNumber":32,"Velocity":43,"Duration":79031,"SoundDuration":79031,"Delta":121973280},{"NoteNumber":44,"Velocity":51,"Duration":79031,"SoundDuration":79031,"Delta":121973280},{"NoteNumber":43,"Velocity":45,"Duration":79816,"SoundDuration":79816,"Delta":122052311},{"NoteNumber":55,"Velocity":55,"Duration":79816,"SoundDuration":79816,"Delta":122052311},{"NoteNumber":30,"Velocity":42,"Duration":80617,"SoundDuration":80617,"Delta":122132128},{"NoteNumber":42,"Velocity":50,"Duration":80617,"SoundDuration":80617,"Delta":122132128},{"NoteNumber":41,"Velocity":44,"Duration":81433,"SoundDuration":81433,"Delta":122212745},{"NoteNumber":53,"Velocity":54,"Duration":81433,"SoundDuration":81433,"Delta":122212745},{"NoteNumber":28,"Velocity":40,"Duration":82282,"SoundDuration":82282,"Delta":122294179},{"NoteNumber":40,"Velocity":49,"Duration":82282,"SoundDuration":82282,"Delta":122294179},{"NoteNumber":39,"Velocity":44,"Duration":83165,"SoundDuration":83165,"Delta":122376461},{"NoteNumber":51,"Velocity":52,"Duration":83165,"SoundDuration":83165,"Delta":122376461},{"NoteNumber":26,"Velocity":49,"Duration":794702,"SoundDuration":794702,"Delta":122459626},{"NoteNumber":38,"Velocity":49,"Duration":794702,"SoundDuration":794702,"Delta":122459626},{"NoteNumber":50,"Velocity":42,"Duration":500000,"SoundDuration":500000,"Delta":123254328},{"NoteNumber":38,"Velocity":42,"Duration":500000,"SoundDuration":500000,"Delta":123254328},{"NoteNumber":62,"Velocity":43,"Duration":592745,"SoundDuration":592745,"Delta":123754328},{"NoteNumber":50,"Velocity":43,"Duration":592745,"SoundDuration":592745,"Delta":123754328},{"NoteNumber":46,"Velocity":23,"Duration":273520,"SoundDuration":273520,"Delta":124414966},{"NoteNumber":53,"Velocity":28,"Duration":275474,"SoundDuration":275474,"Delta":124482858},{"NoteNumber":58,"Velocity":32,"Duration":277427,"SoundDuration":277427,"Delta":124550749},{"NoteNumber":62,"Velocity":41,"Duration":174613,"SoundDuration":174613,"Delta":124618641},{"NoteNumber":65,"Velocity":24,"Duration":157267,"SoundDuration":157267,"Delta":124804895},{"NoteNumber":62,"Velocity":20,"Duration":455824,"SoundDuration":455824,"Delta":124804895},{"NoteNumber":70,"Velocity":20,"Duration":149684,"SoundDuration":149684,"Delta":124962162},{"NoteNumber":74,"Velocity":24,"Duration":149684,"SoundDuration":149684,"Delta":124962162},{"NoteNumber":74,"Velocity":21,"Duration":148872,"SoundDuration":148872,"Delta":125111847},{"NoteNumber":77,"Velocity":25,"Duration":148872,"SoundDuration":148872,"Delta":125111847},{"NoteNumber":86,"Velocity":26,"Duration":148013,"SoundDuration":148013,"Delta":125260720},{"NoteNumber":82,"Velocity":22,"Duration":148013,"SoundDuration":148013,"Delta":125260720},{"NoteNumber":34,"Velocity":23,"Duration":220589,"SoundDuration":220589,"Delta":125334851},{"NoteNumber":46,"Velocity":25,"Duration":221935,"SoundDuration":221935,"Delta":125390263},{"NoteNumber":86,"Velocity":22,"Duration":146706,"SoundDuration":146706,"Delta":125408733},{"NoteNumber":89,"Velocity":27,"Duration":146706,"SoundDuration":146706,"Delta":125408733},{"NoteNumber":53,"Velocity":28,"Duration":223359,"SoundDuration":223359,"Delta":125445597},{"NoteNumber":58,"Velocity":30,"Duration":224893,"SoundDuration":224893,"Delta":125500821},{"NoteNumber":94,"Velocity":23,"Duration":151354,"SoundDuration":151354,"Delta":125555440},{"NoteNumber":98,"Velocity":28,"Duration":151354,"SoundDuration":151354,"Delta":125555440},{"NoteNumber":62,"Velocity":39,"Duration":677951,"SoundDuration":677951,"Delta":125555440},{"NoteNumber":86,"Velocity":24,"Duration":151193,"SoundDuration":151193,"Delta":125706795},{"NoteNumber":89,"Velocity":29,"Duration":151193,"SoundDuration":151193,"Delta":125706795},{"NoteNumber":86,"Velocity":28,"Duration":150565,"SoundDuration":150565,"Delta":125857989},{"NoteNumber":82,"Velocity":23,"Duration":150565,"SoundDuration":150565,"Delta":125857989},{"NoteNumber":77,"Velocity":27,"Duration":150045,"SoundDuration":150045,"Delta":126008554},{"NoteNumber":74,"Velocity":22,"Duration":150045,"SoundDuration":150045,"Delta":126008554},{"NoteNumber":74,"Velocity":25,"Duration":160946,"SoundDuration":160946,"Delta":126158600},{"NoteNumber":70,"Velocity":21,"Duration":160946,"SoundDuration":160946,"Delta":126158600},{"NoteNumber":60,"Velocity":36,"Duration":161540,"SoundDuration":161540,"Delta":126233392},{"NoteNumber":65,"Velocity":24,"Duration":64616,"SoundDuration":64616,"Delta":126319547},{"NoteNumber":62,"Velocity":20,"Duration":64616,"SoundDuration":64616,"Delta":126319547},{"NoteNumber":46,"Velocity":28,"Duration":271537,"SoundDuration":271537,"Delta":126394932},{"NoteNumber":50,"Velocity":30,"Duration":274152,"SoundDuration":274152,"Delta":126427240},{"NoteNumber":53,"Velocity":33,"Duration":272492,"SoundDuration":272492,"Delta":126459548},{"NoteNumber":58,"Velocity":41,"Duration":174613,"SoundDuration":174613,"Delta":126491856},{"NoteNumber":62,"Velocity":20,"Duration":455824,"SoundDuration":455824,"Delta":126678111},{"NoteNumber":65,"Velocity":24,"Duration":157267,"SoundDuration":157267,"Delta":126678111},{"NoteNumber":74,"Velocity":24,"Duration":149684,"SoundDuration":149684,"Delta":126835378},{"NoteNumber":70,"Velocity":20,"Duration":149684,"SoundDuration":149684,"Delta":126835378},{"NoteNumber":77,"Velocity":25,"Duration":148872,"SoundDuration":148872,"Delta":126985062},{"NoteNumber":74,"Velocity":21,"Duration":148872,"SoundDuration":148872,"Delta":126985062},{"NoteNumber":86,"Velocity":26,"Duration":148013,"SoundDuration":148013,"Delta":127133935},{"NoteNumber":82,"Velocity":22,"Duration":148013,"SoundDuration":148013,"Delta":127133935},{"NoteNumber":34,"Velocity":26,"Duration":220589,"SoundDuration":220589,"Delta":127208066},{"NoteNumber":46,"Velocity":28,"Duration":221935,"SoundDuration":221935,"Delta":127263478},{"NoteNumber":86,"Velocity":22,"Duration":146706,"SoundDuration":146706,"Delta":127281949},{"NoteNumber":89,"Velocity":27,"Duration":146706,"SoundDuration":146706,"Delta":127281949},{"NoteNumber":50,"Velocity":32,"Duration":223359,"SoundDuration":223359,"Delta":127318812},{"NoteNumber":53,"Velocity":35,"Duration":224893,"SoundDuration":224893,"Delta":127374036},{"NoteNumber":94,"Velocity":23,"Duration":151354,"SoundDuration":151354,"Delta":127428655},{"NoteNumber":98,"Velocity":28,"Duration":151354,"SoundDuration":151354,"Delta":127428655},{"NoteNumber":58,"Velocity":38,"Duration":677951,"SoundDuration":677951,"Delta":127428655},{"NoteNumber":89,"Velocity":29,"Duration":151193,"SoundDuration":151193,"Delta":127580010},{"NoteNumber":86,"Velocity":24,"Duration":151193,"SoundDuration":151193,"Delta":127580010},{"NoteNumber":86,"Velocity":28,"Duration":150565,"SoundDuration":150565,"Delta":127731204},{"NoteNumber":82,"Velocity":23,"Duration":150565,"SoundDuration":150565,"Delta":127731204},{"NoteNumber":74,"Velocity":22,"Duration":150045,"SoundDuration":150045,"Delta":127881770},{"NoteNumber":77,"Velocity":27,"Duration":150045,"SoundDuration":150045,"Delta":127881770},{"NoteNumber":74,"Velocity":25,"Duration":160946,"SoundDuration":160946,"Delta":128031815},{"NoteNumber":70,"Velocity":21,"Duration":160946,"SoundDuration":160946,"Delta":128031815},{"NoteNumber":58,"Velocity":39,"Duration":161540,"SoundDuration":161540,"Delta":128106607},{"NoteNumber":65,"Velocity":24,"Duration":64616,"SoundDuration":64616,"Delta":128192762},{"NoteNumber":62,"Velocity":20,"Duration":64616,"SoundDuration":64616,"Delta":128192762},{"NoteNumber":46,"Velocity":28,"Duration":271537,"SoundDuration":271537,"Delta":128268147},{"NoteNumber":51,"Velocity":31,"Duration":274152,"SoundDuration":274152,"Delta":128300455},{"NoteNumber":54,"Velocity":33,"Duration":272492,"SoundDuration":272492,"Delta":128332763},{"NoteNumber":57,"Velocity":41,"Duration":716209,"SoundDuration":716209,"Delta":128365071},{"NoteNumber":63,"Velocity":20,"Duration":157267,"SoundDuration":157267,"Delta":128551326},{"NoteNumber":66,"Velocity":24,"Duration":157267,"SoundDuration":157267,"Delta":128551326},{"NoteNumber":75,"Velocity":24,"Duration":149684,"SoundDuration":149684,"Delta":128708593},{"NoteNumber":72,"Velocity":20,"Duration":149684,"SoundDuration":149684,"Delta":128708593},{"NoteNumber":78,"Velocity":25,"Duration":148872,"SoundDuration":148872,"Delta":128858277},{"NoteNumber":75,"Velocity":21,"Duration":148872,"SoundDuration":148872,"Delta":128858277},{"NoteNumber":84,"Velocity":22,"Duration":148013,"SoundDuration":148013,"Delta":129007150},{"NoteNumber":87,"Velocity":26,"Duration":148013,"SoundDuration":148013,"Delta":129007150},{"NoteNumber":57,"Velocity":44,"Duration":144002,"SoundDuration":144002,"Delta":129081281},{"NoteNumber":87,"Velocity":22,"Duration":166743,"SoundDuration":166743,"Delta":129155164},{"NoteNumber":90,"Velocity":27,"Duration":166743,"SoundDuration":166743,"Delta":129155164},{"NoteNumber":54,"Velocity":35,"Duration":233641,"SoundDuration":233641,"Delta":129258540},{"NoteNumber":57,"Velocity":42,"Duration":228764,"SoundDuration":228764,"Delta":129291796},{"NoteNumber":99,"Velocity":28,"Duration":151354,"SoundDuration":151354,"Delta":129321907},{"NoteNumber":96,"Velocity":23,"Duration":151354,"SoundDuration":151354,"Delta":129321907},{"NoteNumber":66,"Velocity":55,"Duration":677951,"SoundDuration":677951,"Delta":129321907},{"NoteNumber":87,"Velocity":24,"Duration":151193,"SoundDuration":151193,"Delta":129473262},{"NoteNumber":90,"Velocity":29,"Duration":151193,"SoundDuration":151193,"Delta":129473262},{"NoteNumber":87,"Velocity":28,"Duration":150565,"SoundDuration":150565,"Delta":129624456},{"NoteNumber":84,"Velocity":23,"Duration":150565,"SoundDuration":150565,"Delta":129624456},{"NoteNumber":75,"Velocity":22,"Duration":150045,"SoundDuration":150045,"Delta":129775022},{"NoteNumber":78,"Velocity":27,"Duration":150045,"SoundDuration":150045,"Delta":129775022},{"NoteNumber":75,"Velocity":25,"Duration":160946,"SoundDuration":160946,"Delta":129925068},{"NoteNumber":72,"Velocity":21,"Duration":160946,"SoundDuration":160946,"Delta":129925068},{"NoteNumber":57,"Velocity":39,"Duration":193848,"SoundDuration":193848,"Delta":129999859},{"NoteNumber":66,"Velocity":24,"Duration":64616,"SoundDuration":64616,"Delta":130086014},{"NoteNumber":63,"Velocity":20,"Duration":64616,"SoundDuration":64616,"Delta":130086014},{"NoteNumber":46,"Velocity":29,"Duration":274152,"SoundDuration":274152,"Delta":130193707},{"NoteNumber":53,"Velocity":35,"Duration":272492,"SoundDuration":272492,"Delta":130226015},{"NoteNumber":60,"Velocity":44,"Duration":936523,"SoundDuration":936523,"Delta":130258323},{"NoteNumber":65,"Velocity":24,"Duration":157267,"SoundDuration":157267,"Delta":130444578},{"NoteNumber":62,"Velocity":20,"Duration":157267,"SoundDuration":157267,"Delta":130444578},{"NoteNumber":70,"Velocity":20,"Duration":149684,"SoundDuration":149684,"Delta":130601845},{"NoteNumber":74,"Velocity":24,"Duration":149684,"SoundDuration":149684,"Delta":130601845},{"NoteNumber":77,"Velocity":25,"Duration":148872,"SoundDuration":148872,"Delta":130751529},{"NoteNumber":74,"Velocity":21,"Duration":148872,"SoundDuration":148872,"Delta":130751529},{"NoteNumber":86,"Velocity":26,"Duration":148013,"SoundDuration":148013,"Delta":130900402},{"NoteNumber":82,"Velocity":22,"Duration":148013,"SoundDuration":148013,"Delta":130900402},{"NoteNumber":86,"Velocity":22,"Duration":146431,"SoundDuration":146431,"Delta":131048416},{"NoteNumber":89,"Velocity":27,"Duration":146431,"SoundDuration":146431,"Delta":131048416},{"NoteNumber":98,"Velocity":28,"Duration":145333,"SoundDuration":145333,"Delta":131194847},{"NoteNumber":94,"Velocity":23,"Duration":145333,"SoundDuration":145333,"Delta":131194847},{"NoteNumber":58,"Velocity":40,"Duration":218334,"SoundDuration":218334,"Delta":131194847},{"NoteNumber":86,"Velocity":24,"Duration":146185,"SoundDuration":146185,"Delta":131340180},{"NoteNumber":89,"Velocity":29,"Duration":146185,"SoundDuration":146185,"Delta":131340180},{"NoteNumber":82,"Velocity":23,"Duration":147051,"SoundDuration":147051,"Delta":131486366},{"NoteNumber":86,"Velocity":28,"Duration":147051,"SoundDuration":147051,"Delta":131486366},{"NoteNumber":74,"Velocity":22,"Duration":147926,"SoundDuration":147926,"Delta":131633417},{"NoteNumber":77,"Velocity":27,"Duration":147926,"SoundDuration":147926,"Delta":131633417},{"NoteNumber":74,"Velocity":25,"Duration":161642,"SoundDuration":161642,"Delta":131781344},{"NoteNumber":70,"Velocity":21,"Duration":161642,"SoundDuration":161642,"Delta":131781344},{"NoteNumber":62,"Velocity":20,"Duration":67891,"SoundDuration":67891,"Delta":131942987},{"NoteNumber":65,"Velocity":24,"Duration":67891,"SoundDuration":67891,"Delta":131942987},{"NoteNumber":50,"Velocity":23,"Duration":276451,"SoundDuration":276451,"Delta":132022194},{"NoteNumber":55,"Velocity":28,"Duration":277427,"SoundDuration":277427,"Delta":132056140},{"NoteNumber":58,"Velocity":32,"Duration":274130,"SoundDuration":274130,"Delta":132090086},{"NoteNumber":62,"Velocity":45,"Duration":174613,"SoundDuration":174613,"Delta":132124031},{"NoteNumber":62,"Velocity":20,"Duration":455824,"SoundDuration":455824,"Delta":132310286},{"NoteNumber":67,"Velocity":24,"Duration":157267,"SoundDuration":157267,"Delta":132310286},{"NoteNumber":74,"Velocity":24,"Duration":149684,"SoundDuration":149684,"Delta":132467553},{"NoteNumber":70,"Velocity":20,"Duration":149684,"SoundDuration":149684,"Delta":132467553},{"NoteNumber":74,"Velocity":21,"Duration":148872,"SoundDuration":148872,"Delta":132617238},{"NoteNumber":79,"Velocity":25,"Duration":148872,"SoundDuration":148872,"Delta":132617238},{"NoteNumber":82,"Velocity":22,"Duration":148013,"SoundDuration":148013,"Delta":132766110},{"NoteNumber":86,"Velocity":26,"Duration":148013,"SoundDuration":148013,"Delta":132766110},{"NoteNumber":31,"Velocity":23,"Duration":220589,"SoundDuration":220589,"Delta":132840241},{"NoteNumber":43,"Velocity":23,"Duration":221262,"SoundDuration":221262,"Delta":132867947},{"NoteNumber":50,"Velocity":25,"Duration":221935,"SoundDuration":221935,"Delta":132895653},{"NoteNumber":91,"Velocity":27,"Duration":146706,"SoundDuration":146706,"Delta":132914124},{"NoteNumber":86,"Velocity":22,"Duration":146706,"SoundDuration":146706,"Delta":132914124},{"NoteNumber":55,"Velocity":28,"Duration":223359,"SoundDuration":223359,"Delta":132950987},{"NoteNumber":58,"Velocity":30,"Duration":224893,"SoundDuration":224893,"Delta":133006211},{"NoteNumber":94,"Velocity":23,"Duration":151354,"SoundDuration":151354,"Delta":133060831},{"NoteNumber":98,"Velocity":28,"Duration":151354,"SoundDuration":151354,"Delta":133060831},{"NoteNumber":62,"Velocity":39,"Duration":677951,"SoundDuration":677951,"Delta":133060831},{"NoteNumber":86,"Velocity":24,"Duration":151193,"SoundDuration":151193,"Delta":133212185},{"NoteNumber":91,"Velocity":29,"Duration":151193,"SoundDuration":151193,"Delta":133212185},{"NoteNumber":82,"Velocity":23,"Duration":150565,"SoundDuration":150565,"Delta":133363379},{"NoteNumber":86,"Velocity":28,"Duration":150565,"SoundDuration":150565,"Delta":133363379},{"NoteNumber":79,"Velocity":27,"Duration":150045,"SoundDuration":150045,"Delta":133513945},{"NoteNumber":74,"Velocity":22,"Duration":150045,"SoundDuration":150045,"Delta":133513945},{"NoteNumber":74,"Velocity":25,"Duration":160946,"SoundDuration":160946,"Delta":133663991},{"NoteNumber":70,"Velocity":21,"Duration":160946,"SoundDuration":160946,"Delta":133663991},{"NoteNumber":60,"Velocity":36,"Duration":161540,"SoundDuration":161540,"Delta":133738782},{"NoteNumber":67,"Velocity":24,"Duration":172309,"SoundDuration":172309,"Delta":133824937},{"NoteNumber":62,"Velocity":20,"Duration":172309,"SoundDuration":172309,"Delta":133824937},{"NoteNumber":43,"Velocity":28,"Duration":274152,"SoundDuration":274152,"Delta":133932630},{"NoteNumber":50,"Velocity":30,"Duration":272492,"SoundDuration":272492,"Delta":133964938},{"NoteNumber":58,"Velocity":41,"Duration":716209,"SoundDuration":716209,"Delta":133997247},{"NoteNumber":62,"Velocity":20,"Duration":157267,"SoundDuration":157267,"Delta":134183501},{"NoteNumber":67,"Velocity":24,"Duration":157267,"SoundDuration":157267,"Delta":134183501},{"NoteNumber":70,"Velocity":20,"Duration":149684,"SoundDuration":149684,"Delta":134340768},{"NoteNumber":74,"Velocity":24,"Duration":149684,"SoundDuration":149684,"Delta":134340768},{"NoteNumber":74,"Velocity":21,"Duration":148872,"SoundDuration":148872,"Delta":134490453},{"NoteNumber":79,"Velocity":25,"Duration":148872,"SoundDuration":148872,"Delta":134490453},{"NoteNumber":86,"Velocity":26,"Duration":148013,"SoundDuration":148013,"Delta":134639325},{"NoteNumber":82,"Velocity":22,"Duration":148013,"SoundDuration":148013,"Delta":134639325},{"NoteNumber":31,"Velocity":26,"Duration":220589,"SoundDuration":220589,"Delta":134713456},{"NoteNumber":43,"Velocity":28,"Duration":221935,"SoundDuration":221935,"Delta":134768868},{"NoteNumber":86,"Velocity":22,"Duration":146706,"SoundDuration":146706,"Delta":134787339},{"NoteNumber":91,"Velocity":27,"Duration":146706,"SoundDuration":146706,"Delta":134787339},{"NoteNumber":50,"Velocity":32,"Duration":223359,"SoundDuration":223359,"Delta":134824202},{"NoteNumber":55,"Velocity":35,"Duration":224893,"SoundDuration":224893,"Delta":134879426},{"NoteNumber":94,"Velocity":23,"Duration":151354,"SoundDuration":151354,"Delta":134934046},{"NoteNumber":98,"Velocity":28,"Duration":151354,"SoundDuration":151354,"Delta":134934046},{"NoteNumber":58,"Velocity":38,"Duration":677951,"SoundDuration":677951,"Delta":134934046},{"NoteNumber":91,"Velocity":29,"Duration":151193,"SoundDuration":151193,"Delta":135085400},{"NoteNumber":86,"Velocity":24,"Duration":151193,"SoundDuration":151193,"Delta":135085400},{"NoteNumber":82,"Velocity":23,"Duration":150565,"SoundDuration":150565,"Delta":135236594},{"NoteNumber":86,"Velocity":28,"Duration":150565,"SoundDuration":150565,"Delta":135236594},{"NoteNumber":79,"Velocity":27,"Duration":150045,"SoundDuration":150045,"Delta":135387160},{"NoteNumber":74,"Velocity":22,"Duration":150045,"SoundDuration":150045,"Delta":135387160},{"NoteNumber":74,"Velocity":25,"Duration":160946,"SoundDuration":160946,"Delta":135537206},{"NoteNumber":70,"Velocity":21,"Duration":160946,"SoundDuration":160946,"Delta":135537206},{"NoteNumber":58,"Velocity":39,"Duration":161540,"SoundDuration":161540,"Delta":135611997},{"NoteNumber":67,"Velocity":24,"Duration":172309,"SoundDuration":172309,"Delta":135698152},{"NoteNumber":62,"Velocity":20,"Duration":172309,"SoundDuration":172309,"Delta":135698152},{"NoteNumber":48,"Velocity":28,"Duration":271537,"SoundDuration":271537,"Delta":135773537},{"NoteNumber":52,"Velocity":31,"Duration":274152,"SoundDuration":274152,"Delta":135805846},{"NoteNumber":58,"Velocity":33,"Duration":272492,"SoundDuration":272492,"Delta":135838154},{"NoteNumber":61,"Velocity":41,"Duration":716209,"SoundDuration":716209,"Delta":135870462},{"NoteNumber":67,"Velocity":24,"Duration":157267,"SoundDuration":157267,"Delta":136056716},{"NoteNumber":64,"Velocity":20,"Duration":157267,"SoundDuration":157267,"Delta":136056716},{"NoteNumber":76,"Velocity":24,"Duration":149684,"SoundDuration":149684,"Delta":136213983},{"NoteNumber":70,"Velocity":20,"Duration":149684,"SoundDuration":149684,"Delta":136213983},{"NoteNumber":76,"Velocity":21,"Duration":148872,"SoundDuration":148872,"Delta":136363668},{"NoteNumber":79,"Velocity":25,"Duration":148872,"SoundDuration":148872,"Delta":136363668},{"NoteNumber":88,"Velocity":26,"Duration":148013,"SoundDuration":148013,"Delta":136512540},{"NoteNumber":82,"Velocity":22,"Duration":148013,"SoundDuration":148013,"Delta":136512540},{"NoteNumber":60,"Velocity":44,"Duration":144002,"SoundDuration":144002,"Delta":136586672},{"NoteNumber":91,"Velocity":27,"Duration":166743,"SoundDuration":166743,"Delta":136660554},{"NoteNumber":88,"Velocity":22,"Duration":166743,"SoundDuration":166743,"Delta":136660554},{"NoteNumber":55,"Velocity":32,"Duration":233641,"SoundDuration":233641,"Delta":136763930},{"NoteNumber":60,"Velocity":34,"Duration":228764,"SoundDuration":228764,"Delta":136797187},{"NoteNumber":94,"Velocity":23,"Duration":151354,"SoundDuration":151354,"Delta":136827298},{"NoteNumber":100,"Velocity":28,"Duration":151354,"SoundDuration":151354,"Delta":136827298},{"NoteNumber":70,"Velocity":48,"Duration":677951,"SoundDuration":677951,"Delta":136827298},{"NoteNumber":88,"Velocity":24,"Duration":151193,"SoundDuration":151193,"Delta":136978652},{"NoteNumber":91,"Velocity":29,"Duration":151193,"SoundDuration":151193,"Delta":136978652},{"NoteNumber":82,"Velocity":23,"Duration":150565,"SoundDuration":150565,"Delta":137129846},{"NoteNumber":88,"Velocity":28,"Duration":150565,"SoundDuration":150565,"Delta":137129846},{"NoteNumber":79,"Velocity":27,"Duration":150045,"SoundDuration":150045,"Delta":137280412},{"NoteNumber":76,"Velocity":22,"Duration":150045,"SoundDuration":150045,"Delta":137280412},{"NoteNumber":76,"Velocity":25,"Duration":160946,"SoundDuration":160946,"Delta":137430458},{"NoteNumber":70,"Velocity":21,"Duration":160946,"SoundDuration":160946,"Delta":137430458},{"NoteNumber":64,"Velocity":39,"Duration":193848,"SoundDuration":193848,"Delta":137505249},{"NoteNumber":67,"Velocity":24,"Duration":172309,"SoundDuration":172309,"Delta":137591404},{"NoteNumber":41,"Velocity":29,"Duration":271537,"SoundDuration":271537,"Delta":137666790},{"NoteNumber":48,"Velocity":29,"Duration":274152,"SoundDuration":274152,"Delta":137699098},{"NoteNumber":57,"Velocity":35,"Duration":272492,"SoundDuration":272492,"Delta":137731406},{"NoteNumber":65,"Velocity":44,"Duration":174613,"SoundDuration":174613,"Delta":137763714},{"NoteNumber":65,"Velocity":20,"Duration":895602,"SoundDuration":895602,"Delta":137949968},{"NoteNumber":69,"Velocity":24,"Duration":157267,"SoundDuration":157267,"Delta":137949968},{"NoteNumber":72,"Velocity":20,"Duration":149684,"SoundDuration":149684,"Delta":138107235},{"NoteNumber":77,"Velocity":24,"Duration":149684,"SoundDuration":149684,"Delta":138107235},{"NoteNumber":81,"Velocity":25,"Duration":148872,"SoundDuration":148872,"Delta":138256920},{"NoteNumber":77,"Velocity":21,"Duration":148872,"SoundDuration":148872,"Delta":138256920},{"NoteNumber":89,"Velocity":26,"Duration":148013,"SoundDuration":148013,"Delta":138405792},{"NoteNumber":84,"Velocity":22,"Duration":148013,"SoundDuration":148013,"Delta":138405792},{"NoteNumber":89,"Velocity":22,"Duration":146431,"SoundDuration":146431,"Delta":138553806},{"NoteNumber":93,"Velocity":27,"Duration":146431,"SoundDuration":146431,"Delta":138553806},{"NoteNumber":96,"Velocity":23,"Duration":145333,"SoundDuration":145333,"Delta":138700237},{"NoteNumber":101,"Velocity":28,"Duration":145333,"SoundDuration":145333,"Delta":138700237},{"NoteNumber":89,"Velocity":24,"Duration":146185,"SoundDuration":146185,"Delta":138845571},{"NoteNumber":93,"Velocity":29,"Duration":146185,"SoundDuration":146185,"Delta":138845571},{"NoteNumber":84,"Velocity":23,"Duration":147051,"SoundDuration":147051,"Delta":138991757},{"NoteNumber":89,"Velocity":28,"Duration":147051,"SoundDuration":147051,"Delta":138991757},{"NoteNumber":81,"Velocity":27,"Duration":147926,"SoundDuration":147926,"Delta":139138808},{"NoteNumber":77,"Velocity":22,"Duration":147926,"SoundDuration":147926,"Delta":139138808},{"NoteNumber":77,"Velocity":25,"Duration":161642,"SoundDuration":161642,"Delta":139286735},{"NoteNumber":72,"Velocity":21,"Duration":161642,"SoundDuration":161642,"Delta":139286735},{"NoteNumber":65,"Velocity":21,"Duration":181044,"SoundDuration":181044,"Delta":139448377},{"NoteNumber":69,"Velocity":24,"Duration":181044,"SoundDuration":181044,"Delta":139448377},{"NoteNumber":49,"Velocity":23,"Duration":276451,"SoundDuration":276451,"Delta":139527584},{"NoteNumber":56,"Velocity":28,"Duration":277427,"SoundDuration":277427,"Delta":139561530},{"NoteNumber":61,"Velocity":32,"Duration":274130,"SoundDuration":274130,"Delta":139595476},{"NoteNumber":65,"Velocity":41,"Duration":174613,"SoundDuration":174613,"Delta":139629422},{"NoteNumber":65,"Velocity":20,"Duration":455824,"SoundDuration":455824,"Delta":139815676},{"NoteNumber":68,"Velocity":24,"Duration":157267,"SoundDuration":157267,"Delta":139815676},{"NoteNumber":73,"Velocity":20,"Duration":149684,"SoundDuration":149684,"Delta":139972943},{"NoteNumber":77,"Velocity":24,"Duration":149684,"SoundDuration":149684,"Delta":139972943},{"NoteNumber":80,"Velocity":25,"Duration":148872,"SoundDuration":148872,"Delta":140122628},{"NoteNumber":77,"Velocity":21,"Duration":148872,"SoundDuration":148872,"Delta":140122628},{"NoteNumber":85,"Velocity":22,"Duration":148013,"SoundDuration":148013,"Delta":140271500},{"NoteNumber":89,"Velocity":26,"Duration":148013,"SoundDuration":148013,"Delta":140271500},{"NoteNumber":37,"Velocity":23,"Duration":220589,"SoundDuration":220589,"Delta":140345632},{"NoteNumber":49,"Velocity":25,"Duration":221935,"SoundDuration":221935,"Delta":140401044},{"NoteNumber":89,"Velocity":22,"Duration":146706,"SoundDuration":146706,"Delta":140419514},{"NoteNumber":92,"Velocity":27,"Duration":146706,"SoundDuration":146706,"Delta":140419514},{"NoteNumber":56,"Velocity":28,"Duration":223359,"SoundDuration":223359,"Delta":140456377},{"NoteNumber":61,"Velocity":30,"Duration":224893,"SoundDuration":224893,"Delta":140511601},{"NoteNumber":97,"Velocity":23,"Duration":151354,"SoundDuration":151354,"Delta":140566221},{"NoteNumber":101,"Velocity":28,"Duration":151354,"SoundDuration":151354,"Delta":140566221},{"NoteNumber":65,"Velocity":39,"Duration":677951,"SoundDuration":677951,"Delta":140566221},{"NoteNumber":92,"Velocity":29,"Duration":151193,"SoundDuration":151193,"Delta":140717576},{"NoteNumber":89,"Velocity":24,"Duration":151193,"SoundDuration":151193,"Delta":140717576},{"NoteNumber":89,"Velocity":28,"Duration":150565,"SoundDuration":150565,"Delta":140868770},{"NoteNumber":85,"Velocity":23,"Duration":150565,"SoundDuration":150565,"Delta":140868770},{"NoteNumber":80,"Velocity":27,"Duration":150045,"SoundDuration":150045,"Delta":141019335},{"NoteNumber":77,"Velocity":22,"Duration":150045,"SoundDuration":150045,"Delta":141019335},{"NoteNumber":77,"Velocity":25,"Duration":160946,"SoundDuration":160946,"Delta":141169381},{"NoteNumber":73,"Velocity":21,"Duration":160946,"SoundDuration":160946,"Delta":141169381},{"NoteNumber":65,"Velocity":36,"Duration":161540,"SoundDuration":161540,"Delta":141244172},{"NoteNumber":68,"Velocity":24,"Duration":64616,"SoundDuration":64616,"Delta":141330327},{"NoteNumber":56,"Velocity":28,"Duration":271537,"SoundDuration":271537,"Delta":141405713},{"NoteNumber":61,"Velocity":30,"Duration":274152,"SoundDuration":274152,"Delta":141438021},{"NoteNumber":63,"Velocity":33,"Duration":206921,"SoundDuration":206921,"Delta":141470329},{"NoteNumber":68,"Velocity":48,"Duration":174613,"SoundDuration":174613,"Delta":141502637},{"NoteNumber":68,"Velocity":24,"Duration":455824,"SoundDuration":455824,"Delta":141688891},{"NoteNumber":63,"Velocity":20,"Duration":157267,"SoundDuration":157267,"Delta":141688891},{"NoteNumber":73,"Velocity":20,"Duration":149684,"SoundDuration":149684,"Delta":141846158},{"NoteNumber":75,"Velocity":24,"Duration":149684,"SoundDuration":149684,"Delta":141846158},{"NoteNumber":75,"Velocity":21,"Duration":148872,"SoundDuration":148872,"Delta":141995843},{"NoteNumber":80,"Velocity":25,"Duration":148872,"SoundDuration":148872,"Delta":141995843},{"NoteNumber":85,"Velocity":22,"Duration":148013,"SoundDuration":148013,"Delta":142144715},{"NoteNumber":87,"Velocity":26,"Duration":148013,"SoundDuration":148013,"Delta":142144715},{"NoteNumber":44,"Velocity":26,"Duration":220589,"SoundDuration":220589,"Delta":142218847},{"NoteNumber":51,"Velocity":28,"Duration":221935,"SoundDuration":221935,"Delta":142274259},{"NoteNumber":87,"Velocity":22,"Duration":146706,"SoundDuration":146706,"Delta":142292729},{"NoteNumber":92,"Velocity":27,"Duration":146706,"SoundDuration":146706,"Delta":142292729},{"NoteNumber":56,"Velocity":32,"Duration":223359,"SoundDuration":223359,"Delta":142329592},{"NoteNumber":60,"Velocity":35,"Duration":224893,"SoundDuration":224893,"Delta":142384817},{"NoteNumber":96,"Velocity":23,"Duration":151354,"SoundDuration":151354,"Delta":142439436},{"NoteNumber":99,"Velocity":28,"Duration":151354,"SoundDuration":151354,"Delta":142439436},{"NoteNumber":63,"Velocity":38,"Duration":677951,"SoundDuration":677951,"Delta":142439436},{"NoteNumber":92,"Velocity":29,"Duration":151193,"SoundDuration":151193,"Delta":142590791},{"NoteNumber":87,"Velocity":24,"Duration":151193,"SoundDuration":151193,"Delta":142590791},{"NoteNumber":87,"Velocity":28,"Duration":150565,"SoundDuration":150565,"Delta":142741985},{"NoteNumber":84,"Velocity":23,"Duration":150565,"SoundDuration":150565,"Delta":142741985},{"NoteNumber":75,"Velocity":22,"Duration":150045,"SoundDuration":150045,"Delta":142892550},{"NoteNumber":80,"Velocity":27,"Duration":150045,"SoundDuration":150045,"Delta":142892550},{"NoteNumber":72,"Velocity":21,"Duration":162038,"SoundDuration":162038,"Delta":143042596},{"NoteNumber":75,"Velocity":25,"Duration":162038,"SoundDuration":162038,"Delta":143042596},{"NoteNumber":63,"Velocity":22,"Duration":67891,"SoundDuration":67891,"Delta":143204634},{"NoteNumber":68,"Velocity":24,"Duration":67891,"SoundDuration":67891,"Delta":143204634},{"NoteNumber":48,"Velocity":23,"Duration":276451,"SoundDuration":276451,"Delta":143283841},{"NoteNumber":55,"Velocity":28,"Duration":277427,"SoundDuration":277427,"Delta":143317787},{"NoteNumber":60,"Velocity":32,"Duration":274130,"SoundDuration":274130,"Delta":143351733},{"NoteNumber":63,"Velocity":41,"Duration":174613,"SoundDuration":174613,"Delta":143385679},{"NoteNumber":63,"Velocity":20,"Duration":455824,"SoundDuration":455824,"Delta":143571933},{"NoteNumber":67,"Velocity":24,"Duration":157267,"SoundDuration":157267,"Delta":143571933},{"NoteNumber":75,"Velocity":24,"Duration":149684,"SoundDuration":149684,"Delta":143729200},{"NoteNumber":72,"Velocity":20,"Duration":149684,"SoundDuration":149684,"Delta":143729200},{"NoteNumber":75,"Velocity":21,"Duration":148872,"SoundDuration":148872,"Delta":143878885},{"NoteNumber":79,"Velocity":25,"Duration":148872,"SoundDuration":148872,"Delta":143878885},{"NoteNumber":87,"Velocity":26,"Duration":148013,"SoundDuration":148013,"Delta":144027757},{"NoteNumber":84,"Velocity":22,"Duration":148013,"SoundDuration":148013,"Delta":144027757},{"NoteNumber":36,"Velocity":23,"Duration":220589,"SoundDuration":220589,"Delta":144101889},{"NoteNumber":48,"Velocity":25,"Duration":221935,"SoundDuration":221935,"Delta":144157301},{"NoteNumber":87,"Velocity":22,"Duration":146706,"SoundDuration":146706,"Delta":144175771},{"NoteNumber":91,"Velocity":27,"Duration":146706,"SoundDuration":146706,"Delta":144175771},{"NoteNumber":55,"Velocity":28,"Duration":223359,"SoundDuration":223359,"Delta":144212634},{"NoteNumber":60,"Velocity":30,"Duration":224893,"SoundDuration":224893,"Delta":144267859},{"NoteNumber":96,"Velocity":23,"Duration":151354,"SoundDuration":151354,"Delta":144322478},{"NoteNumber":99,"Velocity":28,"Duration":151354,"SoundDuration":151354,"Delta":144322478},{"NoteNumber":63,"Velocity":39,"Duration":677951,"SoundDuration":677951,"Delta":144322478},{"NoteNumber":91,"Velocity":29,"Duration":151193,"SoundDuration":151193,"Delta":144473833},{"NoteNumber":87,"Velocity":24,"Duration":151193,"SoundDuration":151193,"Delta":144473833},{"NoteNumber":87,"Velocity":28,"Duration":150565,"SoundDuration":150565,"Delta":144625027},{"NoteNumber":84,"Velocity":23,"Duration":150565,"SoundDuration":150565,"Delta":144625027},{"NoteNumber":79,"Velocity":27,"Duration":150045,"SoundDuration":150045,"Delta":144775592},{"NoteNumber":75,"Velocity":22,"Duration":150045,"SoundDuration":150045,"Delta":144775592},{"NoteNumber":75,"Velocity":25,"Duration":160946,"SoundDuration":160946,"Delta":144925638},{"NoteNumber":72,"Velocity":21,"Duration":160946,"SoundDuration":160946,"Delta":144925638},{"NoteNumber":63,"Velocity":36,"Duration":161540,"SoundDuration":161540,"Delta":145000430},{"NoteNumber":67,"Velocity":24,"Duration":86154,"SoundDuration":86154,"Delta":145086584},{"NoteNumber":55,"Velocity":28,"Duration":271537,"SoundDuration":271537,"Delta":145161970},{"NoteNumber":60,"Velocity":30,"Duration":274152,"SoundDuration":274152,"Delta":145194278},{"NoteNumber":62,"Velocity":33,"Duration":206921,"SoundDuration":206921,"Delta":145226586},{"NoteNumber":67,"Velocity":41,"Duration":174613,"SoundDuration":174613,"Delta":145258894},{"NoteNumber":67,"Velocity":24,"Duration":455824,"SoundDuration":455824,"Delta":145445148},{"NoteNumber":62,"Velocity":20,"Duration":157267,"SoundDuration":157267,"Delta":145445148},{"NoteNumber":74,"Velocity":24,"Duration":149684,"SoundDuration":149684,"Delta":145602415},{"NoteNumber":72,"Velocity":20,"Duration":149684,"SoundDuration":149684,"Delta":145602415},{"NoteNumber":79,"Velocity":25,"Duration":148872,"SoundDuration":148872,"Delta":145752100},{"NoteNumber":74,"Velocity":21,"Duration":148872,"SoundDuration":148872,"Delta":145752100},{"NoteNumber":84,"Velocity":22,"Duration":148013,"SoundDuration":148013,"Delta":145900973},{"NoteNumber":86,"Velocity":26,"Duration":148013,"SoundDuration":148013,"Delta":145900973},{"NoteNumber":43,"Velocity":26,"Duration":220589,"SoundDuration":220589,"Delta":145975104},{"NoteNumber":50,"Velocity":28,"Duration":221935,"SoundDuration":221935,"Delta":146030516},{"NoteNumber":91,"Velocity":27,"Duration":146706,"SoundDuration":146706,"Delta":146048986},{"NoteNumber":86,"Velocity":22,"Duration":146706,"SoundDuration":146706,"Delta":146048986},{"NoteNumber":55,"Velocity":32,"Duration":223359,"SoundDuration":223359,"Delta":146085849},{"NoteNumber":59,"Velocity":35,"Duration":224893,"SoundDuration":224893,"Delta":146141074},{"NoteNumber":95,"Velocity":23,"Duration":151354,"SoundDuration":151354,"Delta":146195693},{"NoteNumber":98,"Velocity":28,"Duration":151354,"SoundDuration":151354,"Delta":146195693},{"NoteNumber":62,"Velocity":38,"Duration":677951,"SoundDuration":677951,"Delta":146195693},{"NoteNumber":91,"Velocity":29,"Duration":151193,"SoundDuration":151193,"Delta":146347048},{"NoteNumber":86,"Velocity":24,"Duration":151193,"SoundDuration":151193,"Delta":146347048},{"NoteNumber":83,"Velocity":23,"Duration":150565,"SoundDuration":150565,"Delta":146498242},{"NoteNumber":86,"Velocity":28,"Duration":150565,"SoundDuration":150565,"Delta":146498242},{"NoteNumber":74,"Velocity":22,"Duration":150045,"SoundDuration":150045,"Delta":146648807},{"NoteNumber":79,"Velocity":27,"Duration":150045,"SoundDuration":150045,"Delta":146648807},{"NoteNumber":74,"Velocity":25,"Duration":162038,"SoundDuration":162038,"Delta":146798853},{"NoteNumber":71,"Velocity":21,"Duration":162038,"SoundDuration":162038,"Delta":146798853},{"NoteNumber":62,"Velocity":20,"Duration":67891,"SoundDuration":67891,"Delta":146960891},{"NoteNumber":67,"Velocity":24,"Duration":67891,"SoundDuration":67891,"Delta":146960891},{"NoteNumber":46,"Velocity":23,"Duration":276451,"SoundDuration":276451,"Delta":147040098},{"NoteNumber":53,"Velocity":28,"Duration":277427,"SoundDuration":277427,"Delta":147074044},{"NoteNumber":58,"Velocity":32,"Duration":274130,"SoundDuration":274130,"Delta":147107990},{"NoteNumber":62,"Velocity":41,"Duration":174613,"SoundDuration":174613,"Delta":147141936},{"NoteNumber":62,"Velocity":20,"Duration":455824,"SoundDuration":455824,"Delta":147328190},{"NoteNumber":65,"Velocity":24,"Duration":157267,"SoundDuration":157267,"Delta":147328190},{"NoteNumber":70,"Velocity":20,"Duration":149684,"SoundDuration":149684,"Delta":147485457},{"NoteNumber":74,"Velocity":24,"Duration":149684,"SoundDuration":149684,"Delta":147485457},{"NoteNumber":77,"Velocity":25,"Duration":148872,"SoundDuration":148872,"Delta":147635142},{"NoteNumber":74,"Velocity":21,"Duration":148872,"SoundDuration":148872,"Delta":147635142},{"NoteNumber":82,"Velocity":22,"Duration":148013,"SoundDuration":148013,"Delta":147784015},{"NoteNumber":86,"Velocity":26,"Duration":148013,"SoundDuration":148013,"Delta":147784015},{"NoteNumber":34,"Velocity":23,"Duration":220589,"SoundDuration":220589,"Delta":147858146},{"NoteNumber":46,"Velocity":25,"Duration":221935,"SoundDuration":221935,"Delta":147913558},{"NoteNumber":86,"Velocity":22,"Duration":146706,"SoundDuration":146706,"Delta":147932028},{"NoteNumber":89,"Velocity":27,"Duration":146706,"SoundDuration":146706,"Delta":147932028},{"NoteNumber":53,"Velocity":28,"Duration":223359,"SoundDuration":223359,"Delta":147968891},{"NoteNumber":58,"Velocity":30,"Duration":224893,"SoundDuration":224893,"Delta":148024116},{"NoteNumber":94,"Velocity":23,"Duration":151354,"SoundDuration":151354,"Delta":148078735},{"NoteNumber":98,"Velocity":28,"Duration":151354,"SoundDuration":151354,"Delta":148078735},{"NoteNumber":62,"Velocity":39,"Duration":677951,"SoundDuration":677951,"Delta":148078735},{"NoteNumber":86,"Velocity":24,"Duration":151193,"SoundDuration":151193,"Delta":148230090},{"NoteNumber":89,"Velocity":29,"Duration":151193,"SoundDuration":151193,"Delta":148230090},{"NoteNumber":82,"Velocity":23,"Duration":150565,"SoundDuration":150565,"Delta":148381284},{"NoteNumber":86,"Velocity":28,"Duration":150565,"SoundDuration":150565,"Delta":148381284},{"NoteNumber":77,"Velocity":27,"Duration":150045,"SoundDuration":150045,"Delta":148531849},{"NoteNumber":74,"Velocity":22,"Duration":150045,"SoundDuration":150045,"Delta":148531849},{"NoteNumber":74,"Velocity":25,"Duration":160946,"SoundDuration":160946,"Delta":148681895},{"NoteNumber":70,"Velocity":21,"Duration":160946,"SoundDuration":160946,"Delta":148681895},{"NoteNumber":60,"Velocity":36,"Duration":161540,"SoundDuration":161540,"Delta":148756687},{"NoteNumber":62,"Velocity":21,"Duration":64616,"SoundDuration":64616,"Delta":148842841},{"NoteNumber":65,"Velocity":24,"Duration":86154,"SoundDuration":86154,"Delta":148842841},{"NoteNumber":43,"Velocity":30,"Duration":274152,"SoundDuration":274152,"Delta":148950535},{"NoteNumber":50,"Velocity":33,"Duration":272492,"SoundDuration":272492,"Delta":148982843},{"NoteNumber":58,"Velocity":41,"Duration":716209,"SoundDuration":716209,"Delta":149015151},{"NoteNumber":62,"Velocity":20,"Duration":157267,"SoundDuration":157267,"Delta":149201405},{"NoteNumber":67,"Velocity":24,"Duration":157267,"SoundDuration":157267,"Delta":149201405},{"NoteNumber":70,"Velocity":20,"Duration":149684,"SoundDuration":149684,"Delta":149358672},{"NoteNumber":74,"Velocity":24,"Duration":149684,"SoundDuration":149684,"Delta":149358672},{"NoteNumber":79,"Velocity":25,"Duration":148872,"SoundDuration":148872,"Delta":149508357},{"NoteNumber":74,"Velocity":21,"Duration":148872,"SoundDuration":148872,"Delta":149508357},{"NoteNumber":82,"Velocity":22,"Duration":148013,"SoundDuration":148013,"Delta":149657230},{"NoteNumber":86,"Velocity":26,"Duration":148013,"SoundDuration":148013,"Delta":149657230},{"NoteNumber":31,"Velocity":26,"Duration":220589,"SoundDuration":220589,"Delta":149731361},{"NoteNumber":43,"Velocity":28,"Duration":221935,"SoundDuration":221935,"Delta":149786773},{"NoteNumber":86,"Velocity":22,"Duration":146706,"SoundDuration":146706,"Delta":149805243},{"NoteNumber":91,"Velocity":27,"Duration":146706,"SoundDuration":146706,"Delta":149805243},{"NoteNumber":50,"Velocity":32,"Duration":223359,"SoundDuration":223359,"Delta":149842107},{"NoteNumber":55,"Velocity":35,"Duration":224893,"SoundDuration":224893,"Delta":149897331},{"NoteNumber":98,"Velocity":28,"Duration":151354,"SoundDuration":151354,"Delta":149951950},{"NoteNumber":94,"Velocity":23,"Duration":151354,"SoundDuration":151354,"Delta":149951950},{"NoteNumber":58,"Velocity":38,"Duration":677951,"SoundDuration":677951,"Delta":149951950},{"NoteNumber":86,"Velocity":24,"Duration":151193,"SoundDuration":151193,"Delta":150103305},{"NoteNumber":91,"Velocity":29,"Duration":151193,"SoundDuration":151193,"Delta":150103305},{"NoteNumber":82,"Velocity":23,"Duration":150565,"SoundDuration":150565,"Delta":150254499},{"NoteNumber":86,"Velocity":28,"Duration":150565,"SoundDuration":150565,"Delta":150254499},{"NoteNumber":74,"Velocity":22,"Duration":150045,"SoundDuration":150045,"Delta":150405064},{"NoteNumber":79,"Velocity":27,"Duration":150045,"SoundDuration":150045,"Delta":150405064},{"NoteNumber":74,"Velocity":25,"Duration":160946,"SoundDuration":160946,"Delta":150555110},{"NoteNumber":70,"Velocity":21,"Duration":160946,"SoundDuration":160946,"Delta":150555110},{"NoteNumber":58,"Velocity":36,"Duration":258464,"SoundDuration":258464,"Delta":150629902},{"NoteNumber":67,"Velocity":24,"Duration":172309,"SoundDuration":172309,"Delta":150716057},{"NoteNumber":62,"Velocity":20,"Duration":172309,"SoundDuration":172309,"Delta":150716057},{"NoteNumber":51,"Velocity":32,"Duration":227824,"SoundDuration":227824,"Delta":150888366},{"NoteNumber":62,"Velocity":40,"Duration":455649,"SoundDuration":455649,"Delta":150888366},{"NoteNumber":55,"Velocity":32,"Duration":227824,"SoundDuration":227824,"Delta":150888366},{"NoteNumber":67,"Velocity":25,"Duration":151883,"SoundDuration":151883,"Delta":151040250},{"NoteNumber":63,"Velocity":25,"Duration":151883,"SoundDuration":151883,"Delta":151040250},{"NoteNumber":74,"Velocity":25,"Duration":151883,"SoundDuration":151883,"Delta":151192133},{"NoteNumber":60,"Velocity":38,"Duration":458855,"SoundDuration":458855,"Delta":151344016},{"NoteNumber":39,"Velocity":30,"Duration":229428,"SoundDuration":229428,"Delta":151344016},{"NoteNumber":72,"Velocity":27,"Duration":152951,"SoundDuration":152951,"Delta":151496968},{"NoteNumber":75,"Velocity":27,"Duration":152951,"SoundDuration":152951,"Delta":151496968},{"NoteNumber":84,"Velocity":27,"Duration":152951,"SoundDuration":152951,"Delta":151649920},{"NoteNumber":79,"Velocity":27,"Duration":152951,"SoundDuration":152951,"Delta":151649920},{"NoteNumber":58,"Velocity":38,"Duration":455649,"SoundDuration":455649,"Delta":151802872},{"NoteNumber":51,"Velocity":30,"Duration":227824,"SoundDuration":227824,"Delta":151802872},{"NoteNumber":55,"Velocity":30,"Duration":227824,"SoundDuration":227824,"Delta":151802872},{"NoteNumber":87,"Velocity":27,"Duration":151883,"SoundDuration":151883,"Delta":151954756},{"NoteNumber":82,"Velocity":27,"Duration":151883,"SoundDuration":151883,"Delta":151954756},{"NoteNumber":94,"Velocity":27,"Duration":151883,"SoundDuration":151883,"Delta":152106639},{"NoteNumber":91,"Velocity":27,"Duration":151883,"SoundDuration":151883,"Delta":152106639},{"NoteNumber":39,"Velocity":29,"Duration":236910,"SoundDuration":236910,"Delta":152258522},{"NoteNumber":60,"Velocity":37,"Duration":473820,"SoundDuration":473820,"Delta":152258522},{"NoteNumber":84,"Velocity":25,"Duration":157940,"SoundDuration":157940,"Delta":152416463},{"NoteNumber":87,"Velocity":25,"Duration":157940,"SoundDuration":157940,"Delta":152416463},{"NoteNumber":96,"Velocity":25,"Duration":157940,"SoundDuration":157940,"Delta":152574403},{"NoteNumber":91,"Velocity":25,"Duration":157940,"SoundDuration":157940,"Delta":152574403},{"NoteNumber":38,"Velocity":29,"Duration":235842,"SoundDuration":235842,"Delta":152643502},{"NoteNumber":45,"Velocity":32,"Duration":239310,"SoundDuration":239310,"Delta":152673116},{"NoteNumber":54,"Velocity":35,"Duration":240345,"SoundDuration":240345,"Delta":152702729},{"NoteNumber":62,"Velocity":37,"Duration":147001,"SoundDuration":147001,"Delta":152732343},{"NoteNumber":62,"Velocity":20,"Duration":1600805,"SoundDuration":1600805,"Delta":152889145},{"NoteNumber":66,"Velocity":24,"Duration":157267,"SoundDuration":157267,"Delta":152889145},{"NoteNumber":74,"Velocity":24,"Duration":149684,"SoundDuration":149684,"Delta":153046412},{"NoteNumber":69,"Velocity":20,"Duration":149684,"SoundDuration":149684,"Delta":153046412},{"NoteNumber":74,"Velocity":21,"Duration":148872,"SoundDuration":148872,"Delta":153196096},{"NoteNumber":78,"Velocity":25,"Duration":148872,"SoundDuration":148872,"Delta":153196096},{"NoteNumber":81,"Velocity":22,"Duration":148013,"SoundDuration":148013,"Delta":153344969},{"NoteNumber":86,"Velocity":26,"Duration":148013,"SoundDuration":148013,"Delta":153344969},{"NoteNumber":90,"Velocity":27,"Duration":146706,"SoundDuration":146706,"Delta":153492983},{"NoteNumber":86,"Velocity":22,"Duration":146706,"SoundDuration":146706,"Delta":153492983},{"NoteNumber":98,"Velocity":28,"Duration":151354,"SoundDuration":151354,"Delta":153639689},{"NoteNumber":93,"Velocity":23,"Duration":151354,"SoundDuration":151354,"Delta":153639689},{"NoteNumber":90,"Velocity":29,"Duration":151193,"SoundDuration":151193,"Delta":153791044},{"NoteNumber":86,"Velocity":24,"Duration":151193,"SoundDuration":151193,"Delta":153791044},{"NoteNumber":81,"Velocity":23,"Duration":150565,"SoundDuration":150565,"Delta":153942238},{"NoteNumber":86,"Velocity":28,"Duration":150565,"SoundDuration":150565,"Delta":153942238},{"NoteNumber":74,"Velocity":22,"Duration":150045,"SoundDuration":150045,"Delta":154092804},{"NoteNumber":78,"Velocity":27,"Duration":150045,"SoundDuration":150045,"Delta":154092804},{"NoteNumber":86,"Velocity":25,"Duration":160946,"SoundDuration":160946,"Delta":154242849},{"NoteNumber":81,"Velocity":21,"Duration":160946,"SoundDuration":160946,"Delta":154242849},{"NoteNumber":74,"Velocity":20,"Duration":172309,"SoundDuration":172309,"Delta":154403796},{"NoteNumber":78,"Velocity":24,"Duration":172309,"SoundDuration":172309,"Delta":154403796},{"NoteNumber":69,"Velocity":22,"Duration":159680,"SoundDuration":159680,"Delta":154576105},{"NoteNumber":74,"Velocity":26,"Duration":159680,"SoundDuration":159680,"Delta":154576105},{"NoteNumber":62,"Velocity":20,"Duration":159680,"SoundDuration":159680,"Delta":154735786},{"NoteNumber":66,"Velocity":24,"Duration":159680,"SoundDuration":159680,"Delta":154735786},{"NoteNumber":74,"Velocity":27,"Duration":159680,"SoundDuration":159680,"Delta":154895467},{"NoteNumber":69,"Velocity":22,"Duration":159680,"SoundDuration":159680,"Delta":154895467},{"NoteNumber":66,"Velocity":24,"Duration":159680,"SoundDuration":159680,"Delta":155055147},{"NoteNumber":62,"Velocity":20,"Duration":159680,"SoundDuration":159680,"Delta":155055147},{"NoteNumber":57,"Velocity":22,"Duration":159680,"SoundDuration":159680,"Delta":155214828},{"NoteNumber":62,"Velocity":27,"Duration":159680,"SoundDuration":159680,"Delta":155214828},{"NoteNumber":54,"Velocity":23,"Duration":159680,"SoundDuration":159680,"Delta":155374509},{"NoteNumber":50,"Velocity":19,"Duration":159680,"SoundDuration":159680,"Delta":155374509},{"NoteNumber":57,"Velocity":22,"Duration":159680,"SoundDuration":159680,"Delta":155534189},{"NoteNumber":62,"Velocity":26,"Duration":159680,"SoundDuration":159680,"Delta":155534189},{"NoteNumber":50,"Velocity":20,"Duration":159680,"SoundDuration":159680,"Delta":155693870},{"NoteNumber":54,"Velocity":24,"Duration":159680,"SoundDuration":159680,"Delta":155693870},{"NoteNumber":26,"Velocity":29,"Duration":159901,"SoundDuration":159901,"Delta":155853551},{"NoteNumber":38,"Velocity":24,"Duration":243776,"SoundDuration":243776,"Delta":156013452},{"NoteNumber":50,"Velocity":29,"Duration":249677,"SoundDuration":249677,"Delta":156257229},{"NoteNumber":62,"Velocity":28,"Duration":255911,"SoundDuration":255911,"Delta":156506907},{"NoteNumber":74,"Velocity":33,"Duration":285435,"SoundDuration":285435,"Delta":156762818},{"NoteNumber":86,"Velocity":30,"Duration":385108,"SoundDuration":385108,"Delta":157048254},{"NoteNumber":98,"Velocity":37,"Duration":912912,"SoundDuration":912912,"Delta":157433363},{"NoteNumber":74,"Velocity":24,"Duration":157215,"SoundDuration":157215,"Delta":158527200},{"NoteNumber":86,"Velocity":29,"Duration":157215,"SoundDuration":157215,"Delta":158527200},{"NoteNumber":74,"Velocity":26,"Duration":152216,"SoundDuration":152216,"Delta":158701672},{"NoteNumber":86,"Velocity":31,"Duration":152216,"SoundDuration":152216,"Delta":158701672},{"NoteNumber":74,"Velocity":28,"Duration":147502,"SoundDuration":147502,"Delta":158870569},{"NoteNumber":86,"Velocity":34,"Duration":147502,"SoundDuration":147502,"Delta":158870569},{"NoteNumber":86,"Velocity":36,"Duration":143075,"SoundDuration":143075,"Delta":159034214},{"NoteNumber":74,"Velocity":29,"Duration":143075,"SoundDuration":143075,"Delta":159034214},{"NoteNumber":86,"Velocity":39,"Duration":138407,"SoundDuration":138407,"Delta":159192926},{"NoteNumber":74,"Velocity":32,"Duration":138407,"SoundDuration":138407,"Delta":159192926},{"NoteNumber":86,"Velocity":52,"Duration":921971,"SoundDuration":921971,"Delta":159345899},{"NoteNumber":74,"Velocity":44,"Duration":921971,"SoundDuration":921971,"Delta":159345899},{"NoteNumber":46,"Velocity":41,"Duration":157697,"SoundDuration":157697,"Delta":159345899},{"NoteNumber":53,"Velocity":18,"Duration":138568,"SoundDuration":138568,"Delta":159503597},{"NoteNumber":62,"Velocity":22,"Duration":138568,"SoundDuration":138568,"Delta":159503597},{"NoteNumber":65,"Velocity":22,"Duration":138568,"SoundDuration":138568,"Delta":159503597},{"NoteNumber":82,"Velocity":26,"Duration":138568,"SoundDuration":138568,"Delta":159503597},{"NoteNumber":77,"Velocity":26,"Duration":138568,"SoundDuration":138568,"Delta":159503597},{"NoteNumber":62,"Velocity":23,"Duration":138237,"SoundDuration":138237,"Delta":159657561},{"NoteNumber":54,"Velocity":19,"Duration":138237,"SoundDuration":138237,"Delta":159657561},{"NoteNumber":65,"Velocity":23,"Duration":138237,"SoundDuration":138237,"Delta":159657561},{"NoteNumber":82,"Velocity":28,"Duration":138237,"SoundDuration":138237,"Delta":159657561},{"NoteNumber":77,"Velocity":28,"Duration":138237,"SoundDuration":138237,"Delta":159657561},{"NoteNumber":65,"Velocity":24,"Duration":137509,"SoundDuration":137509,"Delta":159811077},{"NoteNumber":62,"Velocity":24,"Duration":137509,"SoundDuration":137509,"Delta":159811077},{"NoteNumber":82,"Velocity":29,"Duration":137509,"SoundDuration":137509,"Delta":159811077},{"NoteNumber":77,"Velocity":29,"Duration":137509,"SoundDuration":137509,"Delta":159811077},{"NoteNumber":55,"Velocity":20,"Duration":137509,"SoundDuration":137509,"Delta":159811077},{"NoteNumber":77,"Velocity":31,"Duration":137509,"SoundDuration":137509,"Delta":159963866},{"NoteNumber":82,"Velocity":31,"Duration":137509,"SoundDuration":137509,"Delta":159963866},{"NoteNumber":62,"Velocity":26,"Duration":137509,"SoundDuration":137509,"Delta":159963866},{"NoteNumber":65,"Velocity":26,"Duration":137509,"SoundDuration":137509,"Delta":159963866},{"NoteNumber":56,"Velocity":22,"Duration":137509,"SoundDuration":137509,"Delta":159963866},{"NoteNumber":62,"Velocity":27,"Duration":136167,"SoundDuration":136167,"Delta":160116654},{"NoteNumber":65,"Velocity":27,"Duration":136167,"SoundDuration":136167,"Delta":160116654},{"NoteNumber":77,"Velocity":32,"Duration":136167,"SoundDuration":136167,"Delta":160116654},{"NoteNumber":82,"Velocity":32,"Duration":136167,"SoundDuration":136167,"Delta":160116654},{"NoteNumber":57,"Velocity":22,"Duration":136167,"SoundDuration":136167,"Delta":160116654},{"NoteNumber":86,"Velocity":49,"Duration":655949,"SoundDuration":655949,"Delta":160267871},{"NoteNumber":74,"Velocity":41,"Duration":655949,"SoundDuration":655949,"Delta":160267871},{"NoteNumber":65,"Velocity":28,"Duration":134584,"SoundDuration":134584,"Delta":160267871},{"NoteNumber":62,"Velocity":28,"Duration":134584,"SoundDuration":134584,"Delta":160267871},{"NoteNumber":58,"Velocity":23,"Duration":134584,"SoundDuration":134584,"Delta":160267871},{"NoteNumber":77,"Velocity":35,"Duration":132819,"SoundDuration":132819,"Delta":160417281},{"NoteNumber":82,"Velocity":35,"Duration":132819,"SoundDuration":132819,"Delta":160417281},{"NoteNumber":59,"Velocity":24,"Duration":132819,"SoundDuration":132819,"Delta":160417281},{"NoteNumber":62,"Velocity":29,"Duration":132819,"SoundDuration":132819,"Delta":160417281},{"NoteNumber":65,"Velocity":29,"Duration":132819,"SoundDuration":132819,"Delta":160417281},{"NoteNumber":77,"Velocity":36,"Duration":130972,"SoundDuration":130972,"Delta":160564710},{"NoteNumber":62,"Velocity":30,"Duration":130972,"SoundDuration":130972,"Delta":160564710},{"NoteNumber":65,"Velocity":30,"Duration":130972,"SoundDuration":130972,"Delta":160564710},{"NoteNumber":82,"Velocity":36,"Duration":130972,"SoundDuration":130972,"Delta":160564710},{"NoteNumber":60,"Velocity":25,"Duration":130972,"SoundDuration":130972,"Delta":160564710},{"NoteNumber":77,"Velocity":38,"Duration":129319,"SoundDuration":129319,"Delta":160710186},{"NoteNumber":65,"Velocity":32,"Duration":129319,"SoundDuration":129319,"Delta":160710186},{"NoteNumber":61,"Velocity":27,"Duration":129319,"SoundDuration":129319,"Delta":160710186},{"NoteNumber":82,"Velocity":38,"Duration":129319,"SoundDuration":129319,"Delta":160710186},{"NoteNumber":62,"Velocity":32,"Duration":129319,"SoundDuration":129319,"Delta":160710186},{"NoteNumber":82,"Velocity":39,"Duration":133309,"SoundDuration":133309,"Delta":160853802},{"NoteNumber":62,"Velocity":33,"Duration":133309,"SoundDuration":133309,"Delta":160853802},{"NoteNumber":65,"Velocity":33,"Duration":133309,"SoundDuration":133309,"Delta":160853802},{"NoteNumber":77,"Velocity":39,"Duration":133309,"SoundDuration":133309,"Delta":160853802},{"NoteNumber":72,"Velocity":35,"Duration":158228,"SoundDuration":158228,"Delta":161002934},{"NoteNumber":84,"Velocity":41,"Duration":158228,"SoundDuration":158228,"Delta":161002934},{"NoteNumber":82,"Velocity":55,"Duration":879461,"SoundDuration":879461,"Delta":161161162},{"NoteNumber":70,"Velocity":46,"Duration":879461,"SoundDuration":879461,"Delta":161161162},{"NoteNumber":46,"Velocity":41,"Duration":166108,"SoundDuration":166108,"Delta":161161162},{"NoteNumber":53,"Velocity":18,"Duration":129454,"SoundDuration":129454,"Delta":161327271},{"NoteNumber":62,"Velocity":22,"Duration":129454,"SoundDuration":129454,"Delta":161327271},{"NoteNumber":65,"Velocity":22,"Duration":129454,"SoundDuration":129454,"Delta":161327271},{"NoteNumber":77,"Velocity":26,"Duration":129454,"SoundDuration":129454,"Delta":161327271},{"NoteNumber":74,"Velocity":26,"Duration":129454,"SoundDuration":129454,"Delta":161327271},{"NoteNumber":77,"Velocity":28,"Duration":128888,"SoundDuration":128888,"Delta":161471062},{"NoteNumber":65,"Velocity":23,"Duration":128888,"SoundDuration":128888,"Delta":161471062},{"NoteNumber":74,"Velocity":28,"Duration":128888,"SoundDuration":128888,"Delta":161471062},{"NoteNumber":62,"Velocity":23,"Duration":128888,"SoundDuration":128888,"Delta":161471062},{"NoteNumber":54,"Velocity":19,"Duration":128888,"SoundDuration":128888,"Delta":161471062},{"NoteNumber":65,"Velocity":24,"Duration":128428,"SoundDuration":128428,"Delta":161614236},{"NoteNumber":62,"Velocity":24,"Duration":128428,"SoundDuration":128428,"Delta":161614236},{"NoteNumber":77,"Velocity":29,"Duration":128428,"SoundDuration":128428,"Delta":161614236},{"NoteNumber":55,"Velocity":20,"Duration":128428,"SoundDuration":128428,"Delta":161614236},{"NoteNumber":74,"Velocity":29,"Duration":128428,"SoundDuration":128428,"Delta":161614236},{"NoteNumber":62,"Velocity":26,"Duration":127870,"SoundDuration":127870,"Delta":161756900},{"NoteNumber":56,"Velocity":22,"Duration":127870,"SoundDuration":127870,"Delta":161756900},{"NoteNumber":77,"Velocity":31,"Duration":127870,"SoundDuration":127870,"Delta":161756900},{"NoteNumber":74,"Velocity":31,"Duration":127870,"SoundDuration":127870,"Delta":161756900},{"NoteNumber":65,"Velocity":26,"Duration":127870,"SoundDuration":127870,"Delta":161756900},{"NoteNumber":74,"Velocity":32,"Duration":127459,"SoundDuration":127459,"Delta":161898955},{"NoteNumber":77,"Velocity":32,"Duration":127459,"SoundDuration":127459,"Delta":161898955},{"NoteNumber":57,"Velocity":22,"Duration":127459,"SoundDuration":127459,"Delta":161898955},{"NoteNumber":65,"Velocity":27,"Duration":127459,"SoundDuration":127459,"Delta":161898955},{"NoteNumber":62,"Velocity":27,"Duration":127459,"SoundDuration":127459,"Delta":161898955},{"NoteNumber":70,"Velocity":45,"Duration":632735,"SoundDuration":632735,"Delta":162040624},{"NoteNumber":82,"Velocity":54,"Duration":632735,"SoundDuration":632735,"Delta":162040624},{"NoteNumber":58,"Velocity":23,"Duration":127937,"SoundDuration":127937,"Delta":162040624},{"NoteNumber":62,"Velocity":28,"Duration":127937,"SoundDuration":127937,"Delta":162040624},{"NoteNumber":65,"Velocity":28,"Duration":127937,"SoundDuration":127937,"Delta":162040624},{"NoteNumber":65,"Velocity":29,"Duration":127208,"SoundDuration":127208,"Delta":162182745},{"NoteNumber":77,"Velocity":35,"Duration":127208,"SoundDuration":127208,"Delta":162182745},{"NoteNumber":74,"Velocity":35,"Duration":127208,"SoundDuration":127208,"Delta":162182745},{"NoteNumber":59,"Velocity":24,"Duration":127208,"SoundDuration":127208,"Delta":162182745},{"NoteNumber":62,"Velocity":29,"Duration":127208,"SoundDuration":127208,"Delta":162182745},{"NoteNumber":77,"Velocity":36,"Duration":126488,"SoundDuration":126488,"Delta":162324039},{"NoteNumber":60,"Velocity":25,"Duration":126488,"SoundDuration":126488,"Delta":162324039},{"NoteNumber":74,"Velocity":36,"Duration":126488,"SoundDuration":126488,"Delta":162324039},{"NoteNumber":62,"Velocity":30,"Duration":126488,"SoundDuration":126488,"Delta":162324039},{"NoteNumber":65,"Velocity":30,"Duration":126488,"SoundDuration":126488,"Delta":162324039},{"NoteNumber":74,"Velocity":38,"Duration":125703,"SoundDuration":125703,"Delta":162464538},{"NoteNumber":62,"Velocity":32,"Duration":125703,"SoundDuration":125703,"Delta":162464538},{"NoteNumber":61,"Velocity":27,"Duration":125703,"SoundDuration":125703,"Delta":162464538},{"NoteNumber":65,"Velocity":32,"Duration":125703,"SoundDuration":125703,"Delta":162464538},{"NoteNumber":77,"Velocity":38,"Duration":125703,"SoundDuration":125703,"Delta":162464538},{"NoteNumber":77,"Velocity":39,"Duration":132471,"SoundDuration":132471,"Delta":162604179},{"NoteNumber":74,"Velocity":39,"Duration":132471,"SoundDuration":132471,"Delta":162604179},{"NoteNumber":62,"Velocity":33,"Duration":132471,"SoundDuration":132471,"Delta":162604179},{"NoteNumber":65,"Velocity":33,"Duration":132471,"SoundDuration":132471,"Delta":162604179},{"NoteNumber":70,"Velocity":48,"Duration":158228,"SoundDuration":158228,"Delta":162752473},{"NoteNumber":82,"Velocity":57,"Duration":158228,"SoundDuration":158228,"Delta":162752473},{"NoteNumber":81,"Velocity":62,"Duration":673609,"SoundDuration":673609,"Delta":162910701},{"NoteNumber":69,"Velocity":52,"Duration":673609,"SoundDuration":673609,"Delta":162910701},{"NoteNumber":46,"Velocity":41,"Duration":171028,"SoundDuration":171028,"Delta":162910701},{"NoteNumber":72,"Velocity":28,"Duration":130005,"SoundDuration":130005,"Delta":163081729},{"NoteNumber":75,"Velocity":28,"Duration":130005,"SoundDuration":130005,"Delta":163081729},{"NoteNumber":63,"Velocity":24,"Duration":130005,"SoundDuration":130005,"Delta":163081729},{"NoteNumber":66,"Velocity":24,"Duration":130005,"SoundDuration":130005,"Delta":163081729},{"NoteNumber":54,"Velocity":19,"Duration":130005,"SoundDuration":130005,"Delta":163081729},{"NoteNumber":75,"Velocity":30,"Duration":129248,"SoundDuration":129248,"Delta":163226123},{"NoteNumber":66,"Velocity":25,"Duration":129248,"SoundDuration":129248,"Delta":163226123},{"NoteNumber":63,"Velocity":25,"Duration":129248,"SoundDuration":129248,"Delta":163226123},{"NoteNumber":72,"Velocity":30,"Duration":129248,"SoundDuration":129248,"Delta":163226123},{"NoteNumber":55,"Velocity":20,"Duration":129248,"SoundDuration":129248,"Delta":163226123},{"NoteNumber":75,"Velocity":31,"Duration":128888,"SoundDuration":128888,"Delta":163369708},{"NoteNumber":72,"Velocity":31,"Duration":128888,"SoundDuration":128888,"Delta":163369708},{"NoteNumber":66,"Velocity":26,"Duration":128888,"SoundDuration":128888,"Delta":163369708},{"NoteNumber":63,"Velocity":26,"Duration":128888,"SoundDuration":128888,"Delta":163369708},{"NoteNumber":56,"Velocity":22,"Duration":128888,"SoundDuration":128888,"Delta":163369708},{"NoteNumber":72,"Velocity":34,"Duration":128529,"SoundDuration":128529,"Delta":163512882},{"NoteNumber":63,"Velocity":28,"Duration":128529,"SoundDuration":128529,"Delta":163512882},{"NoteNumber":66,"Velocity":28,"Duration":128529,"SoundDuration":128529,"Delta":163512882},{"NoteNumber":75,"Velocity":34,"Duration":128529,"SoundDuration":128529,"Delta":163512882},{"NoteNumber":57,"Velocity":24,"Duration":128529,"SoundDuration":128529,"Delta":163512882},{"NoteNumber":81,"Velocity":63,"Duration":153054,"SoundDuration":153054,"Delta":163655647},{"NoteNumber":69,"Velocity":63,"Duration":153054,"SoundDuration":153054,"Delta":163655647},{"NoteNumber":63,"Velocity":29,"Duration":138614,"SoundDuration":138614,"Delta":163655647},{"NoteNumber":58,"Velocity":24,"Duration":138614,"SoundDuration":138614,"Delta":163655647},{"NoteNumber":66,"Velocity":29,"Duration":138614,"SoundDuration":138614,"Delta":163655647},{"NoteNumber":90,"Velocity":69,"Duration":646281,"SoundDuration":646281,"Delta":163808702},{"NoteNumber":78,"Velocity":69,"Duration":646281,"SoundDuration":646281,"Delta":163808702},{"NoteNumber":63,"Velocity":30,"Duration":129963,"SoundDuration":129963,"Delta":163808702},{"NoteNumber":59,"Velocity":25,"Duration":129963,"SoundDuration":129963,"Delta":163808702},{"NoteNumber":66,"Velocity":30,"Duration":129963,"SoundDuration":129963,"Delta":163808702},{"NoteNumber":81,"Velocity":38,"Duration":129506,"SoundDuration":129506,"Delta":163953106},{"NoteNumber":66,"Velocity":31,"Duration":129506,"SoundDuration":129506,"Delta":163953106},{"NoteNumber":84,"Velocity":38,"Duration":129506,"SoundDuration":129506,"Delta":163953106},{"NoteNumber":60,"Velocity":26,"Duration":129506,"SoundDuration":129506,"Delta":163953106},{"NoteNumber":63,"Velocity":31,"Duration":129506,"SoundDuration":129506,"Delta":163953106},{"NoteNumber":61,"Velocity":27,"Duration":129145,"SoundDuration":129145,"Delta":164097001},{"NoteNumber":63,"Velocity":33,"Duration":129145,"SoundDuration":129145,"Delta":164097001},{"NoteNumber":66,"Velocity":33,"Duration":129145,"SoundDuration":129145,"Delta":164097001},{"NoteNumber":81,"Velocity":39,"Duration":129145,"SoundDuration":129145,"Delta":164097001},{"NoteNumber":84,"Velocity":39,"Duration":129145,"SoundDuration":129145,"Delta":164097001},{"NoteNumber":63,"Velocity":35,"Duration":128785,"SoundDuration":128785,"Delta":164240483},{"NoteNumber":66,"Velocity":35,"Duration":128785,"SoundDuration":128785,"Delta":164240483},{"NoteNumber":84,"Velocity":41,"Duration":128785,"SoundDuration":128785,"Delta":164240483},{"NoteNumber":81,"Velocity":41,"Duration":128785,"SoundDuration":128785,"Delta":164240483},{"NoteNumber":62,"Velocity":29,"Duration":128785,"SoundDuration":128785,"Delta":164240483},{"NoteNumber":84,"Velocity":42,"Duration":139282,"SoundDuration":139282,"Delta":164383554},{"NoteNumber":66,"Velocity":36,"Duration":139282,"SoundDuration":139282,"Delta":164383554},{"NoteNumber":81,"Velocity":42,"Duration":139282,"SoundDuration":139282,"Delta":164383554},{"NoteNumber":63,"Velocity":36,"Duration":139282,"SoundDuration":139282,"Delta":164383554},{"NoteNumber":69,"Velocity":49,"Duration":169635,"SoundDuration":169635,"Delta":164539801},{"NoteNumber":81,"Velocity":58,"Duration":169635,"SoundDuration":169635,"Delta":164539801},{"NoteNumber":72,"Velocity":55,"Duration":904860,"SoundDuration":904860,"Delta":164709436},{"NoteNumber":84,"Velocity":66,"Duration":904860,"SoundDuration":904860,"Delta":164709436},{"NoteNumber":46,"Velocity":41,"Duration":169967,"SoundDuration":169967,"Delta":164709436},{"NoteNumber":77,"Velocity":28,"Duration":134635,"SoundDuration":134635,"Delta":164879403},{"NoteNumber":53,"Velocity":19,"Duration":134635,"SoundDuration":134635,"Delta":164879403},{"NoteNumber":65,"Velocity":24,"Duration":134635,"SoundDuration":134635,"Delta":164879403},{"NoteNumber":62,"Velocity":24,"Duration":134635,"SoundDuration":134635,"Delta":164879403},{"NoteNumber":74,"Velocity":28,"Duration":134635,"SoundDuration":134635,"Delta":164879403},{"NoteNumber":74,"Velocity":30,"Duration":133444,"SoundDuration":133444,"Delta":165028937},{"NoteNumber":62,"Velocity":25,"Duration":133444,"SoundDuration":133444,"Delta":165028937},{"NoteNumber":65,"Velocity":25,"Duration":133444,"SoundDuration":133444,"Delta":165028937},{"NoteNumber":77,"Velocity":30,"Duration":133444,"SoundDuration":133444,"Delta":165028937},{"NoteNumber":54,"Velocity":20,"Duration":133444,"SoundDuration":133444,"Delta":165028937},{"NoteNumber":74,"Velocity":31,"Duration":132245,"SoundDuration":132245,"Delta":165177141},{"NoteNumber":55,"Velocity":22,"Duration":132245,"SoundDuration":132245,"Delta":165177141},{"NoteNumber":65,"Velocity":26,"Duration":132245,"SoundDuration":132245,"Delta":165177141},{"NoteNumber":77,"Velocity":31,"Duration":132245,"SoundDuration":132245,"Delta":165177141},{"NoteNumber":62,"Velocity":26,"Duration":132245,"SoundDuration":132245,"Delta":165177141},{"NoteNumber":56,"Velocity":24,"Duration":131281,"SoundDuration":131281,"Delta":165324038},{"NoteNumber":74,"Velocity":34,"Duration":131281,"SoundDuration":131281,"Delta":165324038},{"NoteNumber":62,"Velocity":28,"Duration":131281,"SoundDuration":131281,"Delta":165324038},{"NoteNumber":77,"Velocity":34,"Duration":131281,"SoundDuration":131281,"Delta":165324038},{"NoteNumber":65,"Velocity":28,"Duration":131281,"SoundDuration":131281,"Delta":165324038},{"NoteNumber":65,"Velocity":29,"Duration":130069,"SoundDuration":130069,"Delta":165469839},{"NoteNumber":74,"Velocity":35,"Duration":130069,"SoundDuration":130069,"Delta":165469839},{"NoteNumber":57,"Velocity":24,"Duration":130069,"SoundDuration":130069,"Delta":165469839},{"NoteNumber":62,"Velocity":29,"Duration":130069,"SoundDuration":130069,"Delta":165469839},{"NoteNumber":77,"Velocity":35,"Duration":130069,"SoundDuration":130069,"Delta":165469839},{"NoteNumber":82,"Velocity":60,"Duration":428853,"SoundDuration":428853,"Delta":165614296},{"NoteNumber":70,"Velocity":50,"Duration":428853,"SoundDuration":428853,"Delta":165614296},{"NoteNumber":62,"Velocity":30,"Duration":128566,"SoundDuration":128566,"Delta":165614296},{"NoteNumber":58,"Velocity":25,"Duration":128566,"SoundDuration":128566,"Delta":165614296},{"NoteNumber":65,"Velocity":30,"Duration":128566,"SoundDuration":128566,"Delta":165614296},{"NoteNumber":59,"Velocity":26,"Duration":128980,"SoundDuration":128980,"Delta":165757210},{"NoteNumber":74,"Velocity":38,"Duration":128980,"SoundDuration":128980,"Delta":165757210},{"NoteNumber":62,"Velocity":31,"Duration":128980,"SoundDuration":128980,"Delta":165757210},{"NoteNumber":65,"Velocity":31,"Duration":128980,"SoundDuration":128980,"Delta":165757210},{"NoteNumber":77,"Velocity":38,"Duration":128980,"SoundDuration":128980,"Delta":165757210},{"NoteNumber":65,"Velocity":33,"Duration":128418,"SoundDuration":128418,"Delta":165900487},{"NoteNumber":60,"Velocity":27,"Duration":128418,"SoundDuration":128418,"Delta":165900487},{"NoteNumber":74,"Velocity":39,"Duration":128418,"SoundDuration":128418,"Delta":165900487},{"NoteNumber":77,"Velocity":39,"Duration":128418,"SoundDuration":128418,"Delta":165900487},{"NoteNumber":62,"Velocity":33,"Duration":128418,"SoundDuration":128418,"Delta":165900487},{"NoteNumber":61,"Velocity":29,"Duration":127860,"SoundDuration":127860,"Delta":166043150},{"NoteNumber":77,"Velocity":41,"Duration":127860,"SoundDuration":127860,"Delta":166043150},{"NoteNumber":74,"Velocity":41,"Duration":127860,"SoundDuration":127860,"Delta":166043150},{"NoteNumber":65,"Velocity":35,"Duration":127860,"SoundDuration":127860,"Delta":166043150},{"NoteNumber":62,"Velocity":35,"Duration":127860,"SoundDuration":127860,"Delta":166043150},{"NoteNumber":62,"Velocity":36,"Duration":127307,"SoundDuration":127307,"Delta":166185205},{"NoteNumber":65,"Velocity":36,"Duration":127307,"SoundDuration":127307,"Delta":166185205},{"NoteNumber":74,"Velocity":43,"Duration":127307,"SoundDuration":127307,"Delta":166185205},{"NoteNumber":77,"Velocity":43,"Duration":127307,"SoundDuration":127307,"Delta":166185205},{"NoteNumber":74,"Velocity":44,"Duration":153846,"SoundDuration":153846,"Delta":166326657},{"NoteNumber":77,"Velocity":44,"Duration":153846,"SoundDuration":153846,"Delta":166326657},{"NoteNumber":74,"Velocity":57,"Duration":918929,"SoundDuration":918929,"Delta":166497598},{"NoteNumber":86,"Velocity":68,"Duration":918929,"SoundDuration":918929,"Delta":166497598},{"NoteNumber":43,"Velocity":45,"Duration":161849,"SoundDuration":161849,"Delta":166497598},{"NoteNumber":58,"Velocity":19,"Duration":137288,"SoundDuration":137288,"Delta":166659447},{"NoteNumber":67,"Velocity":24,"Duration":137288,"SoundDuration":137288,"Delta":166659447},{"NoteNumber":79,"Velocity":28,"Duration":137288,"SoundDuration":137288,"Delta":166659447},{"NoteNumber":70,"Velocity":24,"Duration":137288,"SoundDuration":137288,"Delta":166659447},{"NoteNumber":82,"Velocity":28,"Duration":137288,"SoundDuration":137288,"Delta":166659447},{"NoteNumber":67,"Velocity":25,"Duration":136766,"SoundDuration":136766,"Delta":166811945},{"NoteNumber":79,"Velocity":30,"Duration":136766,"SoundDuration":136766,"Delta":166811945},{"NoteNumber":59,"Velocity":20,"Duration":136766,"SoundDuration":136766,"Delta":166811945},{"NoteNumber":82,"Velocity":30,"Duration":136766,"SoundDuration":136766,"Delta":166811945},{"NoteNumber":70,"Velocity":25,"Duration":136766,"SoundDuration":136766,"Delta":166811945},{"NoteNumber":60,"Velocity":22,"Duration":136363,"SoundDuration":136363,"Delta":166963863},{"NoteNumber":82,"Velocity":31,"Duration":136363,"SoundDuration":136363,"Delta":166963863},{"NoteNumber":70,"Velocity":26,"Duration":136363,"SoundDuration":136363,"Delta":166963863},{"NoteNumber":67,"Velocity":26,"Duration":136363,"SoundDuration":136363,"Delta":166963863},{"NoteNumber":79,"Velocity":31,"Duration":136363,"SoundDuration":136363,"Delta":166963863},{"NoteNumber":82,"Velocity":34,"Duration":135848,"SoundDuration":135848,"Delta":167115321},{"NoteNumber":61,"Velocity":24,"Duration":135848,"SoundDuration":135848,"Delta":167115321},{"NoteNumber":79,"Velocity":34,"Duration":135848,"SoundDuration":135848,"Delta":167115321},{"NoteNumber":67,"Velocity":28,"Duration":135848,"SoundDuration":135848,"Delta":167115321},{"NoteNumber":70,"Velocity":28,"Duration":135848,"SoundDuration":135848,"Delta":167115321},{"NoteNumber":82,"Velocity":35,"Duration":135338,"SoundDuration":135338,"Delta":167266208},{"NoteNumber":62,"Velocity":24,"Duration":135338,"SoundDuration":135338,"Delta":167266208},{"NoteNumber":79,"Velocity":35,"Duration":135338,"SoundDuration":135338,"Delta":167266208},{"NoteNumber":67,"Velocity":29,"Duration":135338,"SoundDuration":135338,"Delta":167266208},{"NoteNumber":70,"Velocity":29,"Duration":135338,"SoundDuration":135338,"Delta":167266208},{"NoteNumber":74,"Velocity":53,"Duration":646707,"SoundDuration":646707,"Delta":167416528},{"NoteNumber":86,"Velocity":63,"Duration":646707,"SoundDuration":646707,"Delta":167416528},{"NoteNumber":67,"Velocity":30,"Duration":133179,"SoundDuration":133179,"Delta":167416528},{"NoteNumber":70,"Velocity":30,"Duration":133179,"SoundDuration":133179,"Delta":167416528},{"NoteNumber":63,"Velocity":25,"Duration":133179,"SoundDuration":133179,"Delta":167416528},{"NoteNumber":70,"Velocity":31,"Duration":131283,"SoundDuration":131283,"Delta":167564413},{"NoteNumber":67,"Velocity":31,"Duration":131283,"SoundDuration":131283,"Delta":167564413},{"NoteNumber":64,"Velocity":26,"Duration":131283,"SoundDuration":131283,"Delta":167564413},{"NoteNumber":82,"Velocity":38,"Duration":131283,"SoundDuration":131283,"Delta":167564413},{"NoteNumber":79,"Velocity":38,"Duration":131283,"SoundDuration":131283,"Delta":167564413},{"NoteNumber":82,"Velocity":39,"Duration":128932,"SoundDuration":128932,"Delta":167710137},{"NoteNumber":67,"Velocity":33,"Duration":128932,"SoundDuration":128932,"Delta":167710137},{"NoteNumber":65,"Velocity":27,"Duration":128932,"SoundDuration":128932,"Delta":167710137},{"NoteNumber":70,"Velocity":33,"Duration":128932,"SoundDuration":128932,"Delta":167710137},{"NoteNumber":79,"Velocity":39,"Duration":128932,"SoundDuration":128932,"Delta":167710137},{"NoteNumber":70,"Velocity":35,"Duration":126664,"SoundDuration":126664,"Delta":167853254},{"NoteNumber":67,"Velocity":35,"Duration":126664,"SoundDuration":126664,"Delta":167853254},{"NoteNumber":66,"Velocity":29,"Duration":126664,"SoundDuration":126664,"Delta":167853254},{"NoteNumber":82,"Velocity":41,"Duration":126664,"SoundDuration":126664,"Delta":167853254},{"NoteNumber":79,"Velocity":41,"Duration":126664,"SoundDuration":126664,"Delta":167853254},{"NoteNumber":70,"Velocity":36,"Duration":132670,"SoundDuration":132670,"Delta":167993855},{"NoteNumber":67,"Velocity":36,"Duration":132670,"SoundDuration":132670,"Delta":167993855},{"NoteNumber":79,"Velocity":42,"Duration":132670,"SoundDuration":132670,"Delta":167993855},{"NoteNumber":82,"Velocity":42,"Duration":132670,"SoundDuration":132670,"Delta":167993855},{"NoteNumber":72,"Velocity":50,"Duration":158228,"SoundDuration":158228,"Delta":168142349},{"NoteNumber":84,"Velocity":60,"Duration":158228,"SoundDuration":158228,"Delta":168142349},{"NoteNumber":70,"Velocity":57,"Duration":879435,"SoundDuration":879435,"Delta":168300577},{"NoteNumber":82,"Velocity":68,"Duration":879435,"SoundDuration":879435,"Delta":168300577},{"NoteNumber":43,"Velocity":45,"Duration":166108,"SoundDuration":166108,"Delta":168300577},{"NoteNumber":62,"Velocity":24,"Duration":129454,"SoundDuration":129454,"Delta":168466685},{"NoteNumber":74,"Velocity":28,"Duration":129454,"SoundDuration":129454,"Delta":168466685},{"NoteNumber":79,"Velocity":28,"Duration":129454,"SoundDuration":129454,"Delta":168466685},{"NoteNumber":55,"Velocity":19,"Duration":129454,"SoundDuration":129454,"Delta":168466685},{"NoteNumber":67,"Velocity":24,"Duration":129454,"SoundDuration":129454,"Delta":168466685},{"NoteNumber":79,"Velocity":30,"Duration":128888,"SoundDuration":128888,"Delta":168610476},{"NoteNumber":56,"Velocity":20,"Duration":128888,"SoundDuration":128888,"Delta":168610476},{"NoteNumber":62,"Velocity":25,"Duration":128888,"SoundDuration":128888,"Delta":168610476},{"NoteNumber":74,"Velocity":30,"Duration":128888,"SoundDuration":128888,"Delta":168610476},{"NoteNumber":67,"Velocity":25,"Duration":128888,"SoundDuration":128888,"Delta":168610476},{"NoteNumber":79,"Velocity":31,"Duration":128428,"SoundDuration":128428,"Delta":168753650},{"NoteNumber":74,"Velocity":31,"Duration":128428,"SoundDuration":128428,"Delta":168753650},{"NoteNumber":57,"Velocity":22,"Duration":128428,"SoundDuration":128428,"Delta":168753650},{"NoteNumber":67,"Velocity":26,"Duration":128428,"SoundDuration":128428,"Delta":168753650},{"NoteNumber":62,"Velocity":26,"Duration":128428,"SoundDuration":128428,"Delta":168753650},{"NoteNumber":79,"Velocity":34,"Duration":127870,"SoundDuration":127870,"Delta":168896314},{"NoteNumber":74,"Velocity":34,"Duration":127870,"SoundDuration":127870,"Delta":168896314},{"NoteNumber":62,"Velocity":28,"Duration":127870,"SoundDuration":127870,"Delta":168896314},{"NoteNumber":58,"Velocity":24,"Duration":127870,"SoundDuration":127870,"Delta":168896314},{"NoteNumber":67,"Velocity":28,"Duration":127870,"SoundDuration":127870,"Delta":168896314},{"NoteNumber":59,"Velocity":24,"Duration":127459,"SoundDuration":127459,"Delta":169038369},{"NoteNumber":74,"Velocity":35,"Duration":127459,"SoundDuration":127459,"Delta":169038369},{"NoteNumber":67,"Velocity":29,"Duration":127459,"SoundDuration":127459,"Delta":169038369},{"NoteNumber":79,"Velocity":35,"Duration":127459,"SoundDuration":127459,"Delta":169038369},{"NoteNumber":62,"Velocity":29,"Duration":127459,"SoundDuration":127459,"Delta":169038369},{"NoteNumber":74,"Velocity":34,"Duration":127518,"SoundDuration":127518,"Delta":169180012},{"NoteNumber":79,"Velocity":34,"Duration":127518,"SoundDuration":127518,"Delta":169180012},{"NoteNumber":67,"Velocity":30,"Duration":127518,"SoundDuration":127518,"Delta":169180012},{"NoteNumber":62,"Velocity":30,"Duration":127518,"SoundDuration":127518,"Delta":169180012},{"NoteNumber":60,"Velocity":25,"Duration":127518,"SoundDuration":127518,"Delta":169180012},{"NoteNumber":79,"Velocity":38,"Duration":127068,"SoundDuration":127068,"Delta":169321665},{"NoteNumber":67,"Velocity":31,"Duration":127068,"SoundDuration":127068,"Delta":169321665},{"NoteNumber":74,"Velocity":38,"Duration":127068,"SoundDuration":127068,"Delta":169321665},{"NoteNumber":61,"Velocity":31,"Duration":127068,"SoundDuration":127068,"Delta":169321665},{"NoteNumber":62,"Velocity":33,"Duration":126522,"SoundDuration":126522,"Delta":169462818},{"NoteNumber":79,"Velocity":39,"Duration":126522,"SoundDuration":126522,"Delta":169462818},{"NoteNumber":67,"Velocity":33,"Duration":126522,"SoundDuration":126522,"Delta":169462818},{"NoteNumber":74,"Velocity":39,"Duration":126522,"SoundDuration":126522,"Delta":169462818},{"NoteNumber":74,"Velocity":41,"Duration":126079,"SoundDuration":126079,"Delta":169603376},{"NoteNumber":67,"Velocity":35,"Duration":126079,"SoundDuration":126079,"Delta":169603376},{"NoteNumber":79,"Velocity":41,"Duration":126079,"SoundDuration":126079,"Delta":169603376},{"NoteNumber":58,"Velocity":29,"Duration":126079,"SoundDuration":126079,"Delta":169603376},{"NoteNumber":74,"Velocity":41,"Duration":132611,"SoundDuration":132611,"Delta":169743442},{"NoteNumber":79,"Velocity":41,"Duration":132611,"SoundDuration":132611,"Delta":169743442},{"NoteNumber":70,"Velocity":53,"Duration":158228,"SoundDuration":158228,"Delta":169891876},{"NoteNumber":82,"Velocity":63,"Duration":158228,"SoundDuration":158228,"Delta":169891876},{"NoteNumber":85,"Velocity":68,"Duration":673609,"SoundDuration":673609,"Delta":170050104},{"NoteNumber":73,"Velocity":57,"Duration":673609,"SoundDuration":673609,"Delta":170050104},{"NoteNumber":48,"Velocity":45,"Duration":171028,"SoundDuration":171028,"Delta":170050104},{"NoteNumber":36,"Velocity":45,"Duration":171028,"SoundDuration":171028,"Delta":170050104},{"NoteNumber":76,"Velocity":28,"Duration":130005,"SoundDuration":130005,"Delta":170221132},{"NoteNumber":67,"Velocity":24,"Duration":130005,"SoundDuration":130005,"Delta":170221132},{"NoteNumber":82,"Velocity":28,"Duration":130005,"SoundDuration":130005,"Delta":170221132},{"NoteNumber":70,"Velocity":24,"Duration":130005,"SoundDuration":130005,"Delta":170221132},{"NoteNumber":58,"Velocity":19,"Duration":130005,"SoundDuration":130005,"Delta":170221132},{"NoteNumber":67,"Velocity":25,"Duration":129248,"SoundDuration":129248,"Delta":170365526},{"NoteNumber":76,"Velocity":30,"Duration":129248,"SoundDuration":129248,"Delta":170365526},{"NoteNumber":70,"Velocity":25,"Duration":129248,"SoundDuration":129248,"Delta":170365526},{"NoteNumber":59,"Velocity":20,"Duration":129248,"SoundDuration":129248,"Delta":170365526},{"NoteNumber":82,"Velocity":30,"Duration":129248,"SoundDuration":129248,"Delta":170365526},{"NoteNumber":60,"Velocity":22,"Duration":128888,"SoundDuration":128888,"Delta":170509111},{"NoteNumber":70,"Velocity":26,"Duration":128888,"SoundDuration":128888,"Delta":170509111},{"NoteNumber":82,"Velocity":31,"Duration":128888,"SoundDuration":128888,"Delta":170509111},{"NoteNumber":67,"Velocity":26,"Duration":128888,"SoundDuration":128888,"Delta":170509111},{"NoteNumber":76,"Velocity":31,"Duration":128888,"SoundDuration":128888,"Delta":170509111},{"NoteNumber":61,"Velocity":24,"Duration":128529,"SoundDuration":128529,"Delta":170652285},{"NoteNumber":76,"Velocity":34,"Duration":128529,"SoundDuration":128529,"Delta":170652285},{"NoteNumber":67,"Velocity":28,"Duration":128529,"SoundDuration":128529,"Delta":170652285},{"NoteNumber":82,"Velocity":34,"Duration":128529,"SoundDuration":128529,"Delta":170652285},{"NoteNumber":70,"Velocity":28,"Duration":128529,"SoundDuration":128529,"Delta":170652285},{"NoteNumber":72,"Velocity":61,"Duration":162534,"SoundDuration":162534,"Delta":170795050},{"NoteNumber":84,"Velocity":73,"Duration":162534,"SoundDuration":162534,"Delta":170795050},{"NoteNumber":70,"Velocity":29,"Duration":148093,"SoundDuration":148093,"Delta":170795050},{"NoteNumber":62,"Velocity":24,"Duration":148093,"SoundDuration":148093,"Delta":170795050},{"NoteNumber":67,"Velocity":29,"Duration":148093,"SoundDuration":148093,"Delta":170795050},{"NoteNumber":82,"Velocity":66,"Duration":646281,"SoundDuration":646281,"Delta":170957584},{"NoteNumber":94,"Velocity":79,"Duration":646281,"SoundDuration":646281,"Delta":170957584},{"NoteNumber":70,"Velocity":30,"Duration":129963,"SoundDuration":129963,"Delta":170957584},{"NoteNumber":67,"Velocity":30,"Duration":129963,"SoundDuration":129963,"Delta":170957584},{"NoteNumber":63,"Velocity":25,"Duration":129963,"SoundDuration":129963,"Delta":170957584},{"NoteNumber":64,"Velocity":26,"Duration":129506,"SoundDuration":129506,"Delta":171101988},{"NoteNumber":88,"Velocity":38,"Duration":129506,"SoundDuration":129506,"Delta":171101988},{"NoteNumber":85,"Velocity":38,"Duration":129506,"SoundDuration":129506,"Delta":171101988},{"NoteNumber":70,"Velocity":31,"Duration":129506,"SoundDuration":129506,"Delta":171101988},{"NoteNumber":67,"Velocity":31,"Duration":129506,"SoundDuration":129506,"Delta":171101988},{"NoteNumber":85,"Velocity":39,"Duration":129145,"SoundDuration":129145,"Delta":171245883},{"NoteNumber":67,"Velocity":33,"Duration":129145,"SoundDuration":129145,"Delta":171245883},{"NoteNumber":65,"Velocity":27,"Duration":129145,"SoundDuration":129145,"Delta":171245883},{"NoteNumber":88,"Velocity":39,"Duration":129145,"SoundDuration":129145,"Delta":171245883},{"NoteNumber":70,"Velocity":33,"Duration":129145,"SoundDuration":129145,"Delta":171245883},{"NoteNumber":66,"Velocity":29,"Duration":128785,"SoundDuration":128785,"Delta":171389365},{"NoteNumber":67,"Velocity":35,"Duration":128785,"SoundDuration":128785,"Delta":171389365},{"NoteNumber":70,"Velocity":35,"Duration":128785,"SoundDuration":128785,"Delta":171389365},{"NoteNumber":88,"Velocity":41,"Duration":128785,"SoundDuration":128785,"Delta":171389365},{"NoteNumber":85,"Velocity":41,"Duration":128785,"SoundDuration":128785,"Delta":171389365},{"NoteNumber":67,"Velocity":36,"Duration":139571,"SoundDuration":139571,"Delta":171532437},{"NoteNumber":88,"Velocity":42,"Duration":139571,"SoundDuration":139571,"Delta":171532437},{"NoteNumber":85,"Velocity":42,"Duration":139571,"SoundDuration":139571,"Delta":171532437},{"NoteNumber":70,"Velocity":36,"Duration":139571,"SoundDuration":139571,"Delta":171532437},{"NoteNumber":76,"Velocity":53,"Duration":170357,"SoundDuration":170357,"Delta":171689044},{"NoteNumber":88,"Velocity":63,"Duration":170357,"SoundDuration":170357,"Delta":171689044},{"NoteNumber":89,"Velocity":72,"Duration":914484,"SoundDuration":914484,"Delta":171859402},{"NoteNumber":77,"Velocity":60,"Duration":914484,"SoundDuration":914484,"Delta":171859402},{"NoteNumber":41,"Velocity":45,"Duration":162437,"SoundDuration":162437,"Delta":171859402},{"NoteNumber":81,"Velocity":32,"Duration":137755,"SoundDuration":137755,"Delta":172021839},{"NoteNumber":84,"Velocity":32,"Duration":137755,"SoundDuration":137755,"Delta":172021839},{"NoteNumber":65,"Velocity":27,"Duration":137755,"SoundDuration":137755,"Delta":172021839},{"NoteNumber":57,"Velocity":21,"Duration":137755,"SoundDuration":137755,"Delta":172021839},{"NoteNumber":69,"Velocity":27,"Duration":137755,"SoundDuration":137755,"Delta":172021839},{"NoteNumber":65,"Velocity":28,"Duration":136536,"SoundDuration":136536,"Delta":172174804},{"NoteNumber":81,"Velocity":34,"Duration":136536,"SoundDuration":136536,"Delta":172174804},{"NoteNumber":58,"Velocity":23,"Duration":136536,"SoundDuration":136536,"Delta":172174804},{"NoteNumber":84,"Velocity":34,"Duration":136536,"SoundDuration":136536,"Delta":172174804},{"NoteNumber":69,"Velocity":28,"Duration":136536,"SoundDuration":136536,"Delta":172174804},{"NoteNumber":69,"Velocity":29,"Duration":135395,"SoundDuration":135395,"Delta":172326434},{"NoteNumber":81,"Velocity":35,"Duration":135395,"SoundDuration":135395,"Delta":172326434},{"NoteNumber":65,"Velocity":29,"Duration":135395,"SoundDuration":135395,"Delta":172326434},{"NoteNumber":59,"Velocity":25,"Duration":135395,"SoundDuration":135395,"Delta":172326434},{"NoteNumber":84,"Velocity":35,"Duration":135395,"SoundDuration":135395,"Delta":172326434},{"NoteNumber":65,"Velocity":32,"Duration":134273,"SoundDuration":134273,"Delta":172476812},{"NoteNumber":60,"Velocity":27,"Duration":134273,"SoundDuration":134273,"Delta":172476812},{"NoteNumber":84,"Velocity":39,"Duration":134273,"SoundDuration":134273,"Delta":172476812},{"NoteNumber":81,"Velocity":39,"Duration":134273,"SoundDuration":134273,"Delta":172476812},{"NoteNumber":69,"Velocity":32,"Duration":134273,"SoundDuration":134273,"Delta":172476812},{"NoteNumber":81,"Velocity":41,"Duration":133278,"SoundDuration":133278,"Delta":172625955},{"NoteNumber":65,"Velocity":33,"Duration":133278,"SoundDuration":133278,"Delta":172625955},{"NoteNumber":84,"Velocity":41,"Duration":133278,"SoundDuration":133278,"Delta":172625955},{"NoteNumber":61,"Velocity":27,"Duration":133278,"SoundDuration":133278,"Delta":172625955},{"NoteNumber":69,"Velocity":33,"Duration":133278,"SoundDuration":133278,"Delta":172625955},{"NoteNumber":81,"Velocity":36,"Duration":130285,"SoundDuration":130285,"Delta":172773886},{"NoteNumber":62,"Velocity":29,"Duration":130285,"SoundDuration":130285,"Delta":172773886},{"NoteNumber":84,"Velocity":36,"Duration":130285,"SoundDuration":130285,"Delta":172773886},{"NoteNumber":69,"Velocity":35,"Duration":130285,"SoundDuration":130285,"Delta":172773886},{"NoteNumber":65,"Velocity":35,"Duration":130285,"SoundDuration":130285,"Delta":172773886},{"NoteNumber":84,"Velocity":45,"Duration":126961,"SoundDuration":126961,"Delta":172918406},{"NoteNumber":81,"Velocity":45,"Duration":126961,"SoundDuration":126961,"Delta":172918406},{"NoteNumber":69,"Velocity":36,"Duration":126961,"SoundDuration":126961,"Delta":172918406},{"NoteNumber":65,"Velocity":36,"Duration":126961,"SoundDuration":126961,"Delta":172918406},{"NoteNumber":63,"Velocity":31,"Duration":126961,"SoundDuration":126961,"Delta":172918406},{"NoteNumber":64,"Velocity":32,"Duration":125436,"SoundDuration":125436,"Delta":173059379},{"NoteNumber":84,"Velocity":49,"Duration":125436,"SoundDuration":125436,"Delta":173059379},{"NoteNumber":81,"Velocity":49,"Duration":125436,"SoundDuration":125436,"Delta":173059379},{"NoteNumber":65,"Velocity":39,"Duration":125436,"SoundDuration":125436,"Delta":173059379},{"NoteNumber":69,"Velocity":39,"Duration":125436,"SoundDuration":125436,"Delta":173059379},{"NoteNumber":69,"Velocity":42,"Duration":124139,"SoundDuration":124139,"Delta":173198680},{"NoteNumber":65,"Velocity":42,"Duration":124139,"SoundDuration":124139,"Delta":173198680},{"NoteNumber":81,"Velocity":53,"Duration":124139,"SoundDuration":124139,"Delta":173198680},{"NoteNumber":84,"Velocity":53,"Duration":124139,"SoundDuration":124139,"Delta":173198680},{"NoteNumber":81,"Velocity":57,"Duration":123030,"SoundDuration":123030,"Delta":173336541},{"NoteNumber":84,"Velocity":57,"Duration":123030,"SoundDuration":123030,"Delta":173336541},{"NoteNumber":84,"Velocity":59,"Duration":168492,"SoundDuration":168492,"Delta":173468957},{"NoteNumber":81,"Velocity":59,"Duration":149663,"SoundDuration":149663,"Delta":173468957},{"NoteNumber":77,"Velocity":64,"Duration":898907,"SoundDuration":898907,"Delta":173640588},{"NoteNumber":89,"Velocity":78,"Duration":898907,"SoundDuration":898907,"Delta":173640588},{"NoteNumber":37,"Velocity":51,"Duration":166781,"SoundDuration":166781,"Delta":173640588},{"NoteNumber":49,"Velocity":51,"Duration":166781,"SoundDuration":166781,"Delta":173640588},{"NoteNumber":53,"Velocity":23,"Duration":132797,"SoundDuration":132797,"Delta":173807370},{"NoteNumber":80,"Velocity":36,"Duration":132797,"SoundDuration":132797,"Delta":173807370},{"NoteNumber":65,"Velocity":30,"Duration":132797,"SoundDuration":132797,"Delta":173807370},{"NoteNumber":61,"Velocity":30,"Duration":132797,"SoundDuration":132797,"Delta":173807370},{"NoteNumber":85,"Velocity":36,"Duration":132797,"SoundDuration":132797,"Delta":173807370},{"NoteNumber":61,"Velocity":31,"Duration":132309,"SoundDuration":132309,"Delta":173954873},{"NoteNumber":80,"Velocity":38,"Duration":132309,"SoundDuration":132309,"Delta":173954873},{"NoteNumber":65,"Velocity":31,"Duration":132309,"SoundDuration":132309,"Delta":173954873},{"NoteNumber":54,"Velocity":26,"Duration":132309,"SoundDuration":132309,"Delta":173954873},{"NoteNumber":85,"Velocity":38,"Duration":132309,"SoundDuration":132309,"Delta":173954873},{"NoteNumber":80,"Velocity":39,"Duration":131824,"SoundDuration":131824,"Delta":174101834},{"NoteNumber":85,"Velocity":39,"Duration":131824,"SoundDuration":131824,"Delta":174101834},{"NoteNumber":65,"Velocity":34,"Duration":131824,"SoundDuration":131824,"Delta":174101834},{"NoteNumber":55,"Velocity":28,"Duration":131824,"SoundDuration":131824,"Delta":174101834},{"NoteNumber":61,"Velocity":34,"Duration":131824,"SoundDuration":131824,"Delta":174101834},{"NoteNumber":65,"Velocity":36,"Duration":131343,"SoundDuration":131343,"Delta":174248257},{"NoteNumber":80,"Velocity":45,"Duration":131343,"SoundDuration":131343,"Delta":174248257},{"NoteNumber":85,"Velocity":45,"Duration":131343,"SoundDuration":131343,"Delta":174248257},{"NoteNumber":56,"Velocity":30,"Duration":131343,"SoundDuration":131343,"Delta":174248257},{"NoteNumber":61,"Velocity":36,"Duration":131343,"SoundDuration":131343,"Delta":174248257},{"NoteNumber":57,"Velocity":30,"Duration":130803,"SoundDuration":130803,"Delta":174394146},{"NoteNumber":80,"Velocity":46,"Duration":130803,"SoundDuration":130803,"Delta":174394146},{"NoteNumber":85,"Velocity":46,"Duration":130803,"SoundDuration":130803,"Delta":174394146},{"NoteNumber":61,"Velocity":38,"Duration":130803,"SoundDuration":130803,"Delta":174394146},{"NoteNumber":65,"Velocity":38,"Duration":130803,"SoundDuration":130803,"Delta":174394146},{"NoteNumber":77,"Velocity":62,"Duration":647051,"SoundDuration":647051,"Delta":174539495},{"NoteNumber":89,"Velocity":74,"Duration":647051,"SoundDuration":647051,"Delta":174539495},{"NoteNumber":58,"Velocity":34,"Duration":130760,"SoundDuration":130760,"Delta":174539495},{"NoteNumber":65,"Velocity":39,"Duration":130760,"SoundDuration":130760,"Delta":174539495},{"NoteNumber":61,"Velocity":39,"Duration":130760,"SoundDuration":130760,"Delta":174539495},{"NoteNumber":80,"Velocity":51,"Duration":130183,"SoundDuration":130183,"Delta":174684749},{"NoteNumber":61,"Velocity":40,"Duration":130183,"SoundDuration":130183,"Delta":174684749},{"NoteNumber":59,"Velocity":35,"Duration":130183,"SoundDuration":130183,"Delta":174684749},{"NoteNumber":65,"Velocity":40,"Duration":130183,"SoundDuration":130183,"Delta":174684749},{"NoteNumber":85,"Velocity":51,"Duration":130183,"SoundDuration":130183,"Delta":174684749},{"NoteNumber":60,"Velocity":36,"Duration":129464,"SoundDuration":129464,"Delta":174829372},{"NoteNumber":65,"Velocity":45,"Duration":129464,"SoundDuration":129464,"Delta":174829372},{"NoteNumber":80,"Velocity":52,"Duration":129464,"SoundDuration":129464,"Delta":174829372},{"NoteNumber":85,"Velocity":52,"Duration":129464,"SoundDuration":129464,"Delta":174829372},{"NoteNumber":61,"Velocity":45,"Duration":129464,"SoundDuration":129464,"Delta":174829372},{"NoteNumber":61,"Velocity":47,"Duration":128888,"SoundDuration":128888,"Delta":174973174},{"NoteNumber":65,"Velocity":47,"Duration":128888,"SoundDuration":128888,"Delta":174973174},{"NoteNumber":85,"Velocity":56,"Duration":128888,"SoundDuration":128888,"Delta":174973174},{"NoteNumber":80,"Velocity":56,"Duration":128888,"SoundDuration":128888,"Delta":174973174},{"NoteNumber":80,"Velocity":57,"Duration":133490,"SoundDuration":133490,"Delta":175116348},{"NoteNumber":85,"Velocity":57,"Duration":133490,"SoundDuration":133490,"Delta":175116348},{"NoteNumber":77,"Velocity":60,"Duration":158228,"SoundDuration":158228,"Delta":175265661},{"NoteNumber":89,"Velocity":72,"Duration":158228,"SoundDuration":158228,"Delta":175265661},{"NoteNumber":80,"Velocity":69,"Duration":879435,"SoundDuration":879435,"Delta":175423889},{"NoteNumber":92,"Velocity":83,"Duration":879435,"SoundDuration":879435,"Delta":175423889},{"NoteNumber":32,"Velocity":55,"Duration":166108,"SoundDuration":166108,"Delta":175423889},{"NoteNumber":44,"Velocity":55,"Duration":166108,"SoundDuration":166108,"Delta":175423889},{"NoteNumber":87,"Velocity":38,"Duration":129454,"SoundDuration":129454,"Delta":175589997},{"NoteNumber":56,"Velocity":26,"Duration":129454,"SoundDuration":129454,"Delta":175589997},{"NoteNumber":68,"Velocity":34,"Duration":129454,"SoundDuration":129454,"Delta":175589997},{"NoteNumber":85,"Velocity":38,"Duration":129454,"SoundDuration":129454,"Delta":175589997},{"NoteNumber":63,"Velocity":34,"Duration":129454,"SoundDuration":129454,"Delta":175589997},{"NoteNumber":85,"Velocity":40,"Duration":128888,"SoundDuration":128888,"Delta":175733788},{"NoteNumber":87,"Velocity":40,"Duration":128888,"SoundDuration":128888,"Delta":175733788},{"NoteNumber":57,"Velocity":27,"Duration":128888,"SoundDuration":128888,"Delta":175733788},{"NoteNumber":68,"Velocity":35,"Duration":128888,"SoundDuration":128888,"Delta":175733788},{"NoteNumber":63,"Velocity":35,"Duration":128888,"SoundDuration":128888,"Delta":175733788},{"NoteNumber":85,"Velocity":44,"Duration":128428,"SoundDuration":128428,"Delta":175876962},{"NoteNumber":63,"Velocity":36,"Duration":128428,"SoundDuration":128428,"Delta":175876962},{"NoteNumber":58,"Velocity":30,"Duration":128428,"SoundDuration":128428,"Delta":175876962},{"NoteNumber":87,"Velocity":44,"Duration":128428,"SoundDuration":128428,"Delta":175876962},{"NoteNumber":68,"Velocity":36,"Duration":128428,"SoundDuration":128428,"Delta":175876962},{"NoteNumber":68,"Velocity":39,"Duration":127870,"SoundDuration":127870,"Delta":176019626},{"NoteNumber":85,"Velocity":48,"Duration":127870,"SoundDuration":127870,"Delta":176019626},{"NoteNumber":87,"Velocity":48,"Duration":127870,"SoundDuration":127870,"Delta":176019626},{"NoteNumber":59,"Velocity":34,"Duration":127870,"SoundDuration":127870,"Delta":176019626},{"NoteNumber":63,"Velocity":39,"Duration":127870,"SoundDuration":127870,"Delta":176019626},{"NoteNumber":87,"Velocity":50,"Duration":127459,"SoundDuration":127459,"Delta":176161681},{"NoteNumber":60,"Velocity":34,"Duration":127459,"SoundDuration":127459,"Delta":176161681},{"NoteNumber":85,"Velocity":50,"Duration":127459,"SoundDuration":127459,"Delta":176161681},{"NoteNumber":63,"Velocity":40,"Duration":127459,"SoundDuration":127459,"Delta":176161681},{"NoteNumber":68,"Velocity":40,"Duration":127459,"SoundDuration":127459,"Delta":176161681},{"NoteNumber":75,"Velocity":67,"Duration":423363,"SoundDuration":423363,"Delta":176303324},{"NoteNumber":87,"Velocity":80,"Duration":423363,"SoundDuration":423363,"Delta":176303324},{"NoteNumber":80,"Velocity":55,"Duration":127068,"SoundDuration":127068,"Delta":176444977},{"NoteNumber":84,"Velocity":55,"Duration":127068,"SoundDuration":127068,"Delta":176444977},{"NoteNumber":59,"Velocity":44,"Duration":127068,"SoundDuration":127068,"Delta":176444977},{"NoteNumber":63,"Velocity":44,"Duration":127068,"SoundDuration":127068,"Delta":176444977},{"NoteNumber":68,"Velocity":44,"Duration":127068,"SoundDuration":127068,"Delta":176444977},{"NoteNumber":80,"Velocity":56,"Duration":126522,"SoundDuration":126522,"Delta":176586130},{"NoteNumber":60,"Velocity":45,"Duration":126522,"SoundDuration":126522,"Delta":176586130},{"NoteNumber":68,"Velocity":47,"Duration":126522,"SoundDuration":126522,"Delta":176586130},{"NoteNumber":84,"Velocity":56,"Duration":126522,"SoundDuration":126522,"Delta":176586130},{"NoteNumber":63,"Velocity":47,"Duration":126522,"SoundDuration":126522,"Delta":176586130},{"NoteNumber":63,"Velocity":42,"Duration":126079,"SoundDuration":126079,"Delta":176726688},{"NoteNumber":68,"Velocity":51,"Duration":126079,"SoundDuration":126079,"Delta":176726688},{"NoteNumber":84,"Velocity":60,"Duration":126079,"SoundDuration":126079,"Delta":176726688},{"NoteNumber":61,"Velocity":45,"Duration":126079,"SoundDuration":126079,"Delta":176726688},{"NoteNumber":80,"Velocity":60,"Duration":126079,"SoundDuration":126079,"Delta":176726688},{"NoteNumber":68,"Velocity":51,"Duration":132611,"SoundDuration":132611,"Delta":176866754},{"NoteNumber":62,"Velocity":42,"Duration":132611,"SoundDuration":132611,"Delta":176866754},{"NoteNumber":84,"Velocity":60,"Duration":132611,"SoundDuration":132611,"Delta":176866754},{"NoteNumber":80,"Velocity":60,"Duration":132611,"SoundDuration":132611,"Delta":176866754},{"NoteNumber":63,"Velocity":42,"Duration":142405,"SoundDuration":142405,"Delta":177015188},{"NoteNumber":68,"Velocity":51,"Duration":142405,"SoundDuration":142405,"Delta":177015188},{"NoteNumber":80,"Velocity":60,"Duration":142405,"SoundDuration":142405,"Delta":177015188},{"NoteNumber":84,"Velocity":60,"Duration":142405,"SoundDuration":142405,"Delta":177015188},{"NoteNumber":92,"Velocity":89,"Duration":898907,"SoundDuration":898907,"Delta":177173416},{"NoteNumber":80,"Velocity":74,"Duration":898907,"SoundDuration":898907,"Delta":177173416},{"NoteNumber":52,"Velocity":59,"Duration":166781,"SoundDuration":166781,"Delta":177173416},{"NoteNumber":40,"Velocity":59,"Duration":166781,"SoundDuration":166781,"Delta":177173416},{"NoteNumber":56,"Velocity":27,"Duration":132797,"SoundDuration":132797,"Delta":177340198},{"NoteNumber":83,"Velocity":40,"Duration":132797,"SoundDuration":132797,"Delta":177340198},{"NoteNumber":64,"Velocity":35,"Duration":132797,"SoundDuration":132797,"Delta":177340198},{"NoteNumber":68,"Velocity":35,"Duration":132797,"SoundDuration":132797,"Delta":177340198},{"NoteNumber":88,"Velocity":40,"Duration":132797,"SoundDuration":132797,"Delta":177340198},{"NoteNumber":83,"Velocity":45,"Duration":132309,"SoundDuration":132309,"Delta":177487701},{"NoteNumber":88,"Velocity":45,"Duration":132309,"SoundDuration":132309,"Delta":177487701},{"NoteNumber":68,"Velocity":37,"Duration":132309,"SoundDuration":132309,"Delta":177487701},{"NoteNumber":57,"Velocity":29,"Duration":132309,"SoundDuration":132309,"Delta":177487701},{"NoteNumber":64,"Velocity":37,"Duration":132309,"SoundDuration":132309,"Delta":177487701},{"NoteNumber":83,"Velocity":46,"Duration":131824,"SoundDuration":131824,"Delta":177634662},{"NoteNumber":64,"Velocity":38,"Duration":131824,"SoundDuration":131824,"Delta":177634662},{"NoteNumber":88,"Velocity":46,"Duration":131824,"SoundDuration":131824,"Delta":177634662},{"NoteNumber":58,"Velocity":31,"Duration":131824,"SoundDuration":131824,"Delta":177634662},{"NoteNumber":68,"Velocity":38,"Duration":131824,"SoundDuration":131824,"Delta":177634662},{"NoteNumber":88,"Velocity":51,"Duration":131343,"SoundDuration":131343,"Delta":177781085},{"NoteNumber":68,"Velocity":42,"Duration":131343,"SoundDuration":131343,"Delta":177781085},{"NoteNumber":59,"Velocity":36,"Duration":131343,"SoundDuration":131343,"Delta":177781085},{"NoteNumber":64,"Velocity":42,"Duration":131343,"SoundDuration":131343,"Delta":177781085},{"NoteNumber":83,"Velocity":51,"Duration":131343,"SoundDuration":131343,"Delta":177781085},{"NoteNumber":83,"Velocity":53,"Duration":130803,"SoundDuration":130803,"Delta":177926974},{"NoteNumber":60,"Velocity":36,"Duration":130803,"SoundDuration":130803,"Delta":177926974},{"NoteNumber":68,"Velocity":44,"Duration":130803,"SoundDuration":130803,"Delta":177926974},{"NoteNumber":88,"Velocity":53,"Duration":130803,"SoundDuration":130803,"Delta":177926974},{"NoteNumber":64,"Velocity":44,"Duration":130803,"SoundDuration":130803,"Delta":177926974},{"NoteNumber":80,"Velocity":71,"Duration":647051,"SoundDuration":647051,"Delta":178072323},{"NoteNumber":92,"Velocity":84,"Duration":647051,"SoundDuration":647051,"Delta":178072323},{"NoteNumber":68,"Velocity":45,"Duration":130760,"SoundDuration":130760,"Delta":178072323},{"NoteNumber":61,"Velocity":37,"Duration":130760,"SoundDuration":130760,"Delta":178072323},{"NoteNumber":64,"Velocity":45,"Duration":130760,"SoundDuration":130760,"Delta":178072323},{"NoteNumber":62,"Velocity":39,"Duration":130183,"SoundDuration":130183,"Delta":178217577},{"NoteNumber":68,"Velocity":47,"Duration":130183,"SoundDuration":130183,"Delta":178217577},{"NoteNumber":88,"Velocity":59,"Duration":130183,"SoundDuration":130183,"Delta":178217577},{"NoteNumber":83,"Velocity":59,"Duration":130183,"SoundDuration":130183,"Delta":178217577},{"NoteNumber":64,"Velocity":47,"Duration":130183,"SoundDuration":130183,"Delta":178217577},{"NoteNumber":64,"Velocity":51,"Duration":129464,"SoundDuration":129464,"Delta":178362201},{"NoteNumber":63,"Velocity":40,"Duration":129464,"SoundDuration":129464,"Delta":178362201},{"NoteNumber":88,"Velocity":60,"Duration":129464,"SoundDuration":129464,"Delta":178362201},{"NoteNumber":83,"Velocity":60,"Duration":129464,"SoundDuration":129464,"Delta":178362201},{"NoteNumber":68,"Velocity":51,"Duration":129464,"SoundDuration":129464,"Delta":178362201},{"NoteNumber":64,"Velocity":53,"Duration":128888,"SoundDuration":128888,"Delta":178506002},{"NoteNumber":88,"Velocity":63,"Duration":128888,"SoundDuration":128888,"Delta":178506002},{"NoteNumber":68,"Velocity":53,"Duration":128888,"SoundDuration":128888,"Delta":178506002},{"NoteNumber":83,"Velocity":63,"Duration":128888,"SoundDuration":128888,"Delta":178506002},{"NoteNumber":88,"Velocity":64,"Duration":133490,"SoundDuration":133490,"Delta":178649176},{"NoteNumber":83,"Velocity":64,"Duration":133490,"SoundDuration":133490,"Delta":178649176},{"NoteNumber":80,"Velocity":69,"Duration":158228,"SoundDuration":158228,"Delta":178798489},{"NoteNumber":92,"Velocity":82,"Duration":158228,"SoundDuration":158228,"Delta":178798489},{"NoteNumber":95,"Velocity":94,"Duration":879435,"SoundDuration":879435,"Delta":178956717},{"NoteNumber":83,"Velocity":79,"Duration":879435,"SoundDuration":879435,"Delta":178956717},{"NoteNumber":47,"Velocity":62,"Duration":166108,"SoundDuration":166108,"Delta":178956717},{"NoteNumber":35,"Velocity":62,"Duration":166108,"SoundDuration":166108,"Delta":178956717},{"NoteNumber":90,"Velocity":44,"Duration":129454,"SoundDuration":129454,"Delta":179122825},{"NoteNumber":88,"Velocity":44,"Duration":129454,"SoundDuration":129454,"Delta":179122825},{"NoteNumber":59,"Velocity":29,"Duration":129454,"SoundDuration":129454,"Delta":179122825},{"NoteNumber":71,"Velocity":37,"Duration":129454,"SoundDuration":129454,"Delta":179122825},{"NoteNumber":66,"Velocity":37,"Duration":129454,"SoundDuration":129454,"Delta":179122825},{"NoteNumber":60,"Velocity":30,"Duration":128888,"SoundDuration":128888,"Delta":179266617},{"NoteNumber":71,"Velocity":39,"Duration":128888,"SoundDuration":128888,"Delta":179266617},{"NoteNumber":90,"Velocity":47,"Duration":128888,"SoundDuration":128888,"Delta":179266617},{"NoteNumber":88,"Velocity":47,"Duration":128888,"SoundDuration":128888,"Delta":179266617},{"NoteNumber":66,"Velocity":39,"Duration":128888,"SoundDuration":128888,"Delta":179266617},{"NoteNumber":90,"Velocity":48,"Duration":128428,"SoundDuration":128428,"Delta":179409791},{"NoteNumber":61,"Velocity":35,"Duration":128428,"SoundDuration":128428,"Delta":179409791},{"NoteNumber":66,"Velocity":40,"Duration":128428,"SoundDuration":128428,"Delta":179409791},{"NoteNumber":71,"Velocity":40,"Duration":128428,"SoundDuration":128428,"Delta":179409791},{"NoteNumber":88,"Velocity":48,"Duration":128428,"SoundDuration":128428,"Delta":179409791},{"NoteNumber":62,"Velocity":38,"Duration":127870,"SoundDuration":127870,"Delta":179552454},{"NoteNumber":90,"Velocity":55,"Duration":127870,"SoundDuration":127870,"Delta":179552454},{"NoteNumber":88,"Velocity":55,"Duration":127870,"SoundDuration":127870,"Delta":179552454},{"NoteNumber":71,"Velocity":45,"Duration":127870,"SoundDuration":127870,"Delta":179552454},{"NoteNumber":66,"Velocity":45,"Duration":127870,"SoundDuration":127870,"Delta":179552454},{"NoteNumber":88,"Velocity":56,"Duration":127459,"SoundDuration":127459,"Delta":179694509},{"NoteNumber":63,"Velocity":38,"Duration":127459,"SoundDuration":127459,"Delta":179694509},{"NoteNumber":90,"Velocity":56,"Duration":127459,"SoundDuration":127459,"Delta":179694509},{"NoteNumber":66,"Velocity":46,"Duration":127459,"SoundDuration":127459,"Delta":179694509},{"NoteNumber":71,"Velocity":46,"Duration":127459,"SoundDuration":127459,"Delta":179694509},{"NoteNumber":90,"Velocity":90,"Duration":423363,"SoundDuration":423363,"Delta":179836153},{"NoteNumber":78,"Velocity":75,"Duration":423363,"SoundDuration":423363,"Delta":179836153},{"NoteNumber":62,"Velocity":50,"Duration":127068,"SoundDuration":127068,"Delta":179977805},{"NoteNumber":66,"Velocity":50,"Duration":127068,"SoundDuration":127068,"Delta":179977805},{"NoteNumber":87,"Velocity":61,"Duration":127068,"SoundDuration":127068,"Delta":179977805},{"NoteNumber":83,"Velocity":61,"Duration":127068,"SoundDuration":127068,"Delta":179977805},{"NoteNumber":71,"Velocity":50,"Duration":127068,"SoundDuration":127068,"Delta":179977805},{"NoteNumber":66,"Velocity":53,"Duration":126522,"SoundDuration":126522,"Delta":180118958},{"NoteNumber":71,"Velocity":53,"Duration":126522,"SoundDuration":126522,"Delta":180118958},{"NoteNumber":83,"Velocity":63,"Duration":126522,"SoundDuration":126522,"Delta":180118958},{"NoteNumber":87,"Velocity":63,"Duration":126522,"SoundDuration":126522,"Delta":180118958},{"NoteNumber":63,"Velocity":50,"Duration":126522,"SoundDuration":126522,"Delta":180118958},{"NoteNumber":64,"Velocity":51,"Duration":126079,"SoundDuration":126079,"Delta":180259516},{"NoteNumber":87,"Velocity":68,"Duration":126079,"SoundDuration":126079,"Delta":180259516},{"NoteNumber":71,"Velocity":57,"Duration":126079,"SoundDuration":126079,"Delta":180259516},{"NoteNumber":83,"Velocity":68,"Duration":126079,"SoundDuration":126079,"Delta":180259516},{"NoteNumber":66,"Velocity":47,"Duration":126079,"SoundDuration":126079,"Delta":180259516},{"NoteNumber":65,"Velocity":47,"Duration":132611,"SoundDuration":132611,"Delta":180399582},{"NoteNumber":87,"Velocity":68,"Duration":132611,"SoundDuration":132611,"Delta":180399582},{"NoteNumber":71,"Velocity":57,"Duration":132611,"SoundDuration":132611,"Delta":180399582},{"NoteNumber":83,"Velocity":68,"Duration":132611,"SoundDuration":132611,"Delta":180399582},{"NoteNumber":87,"Velocity":68,"Duration":106803,"SoundDuration":106803,"Delta":180548016},{"NoteNumber":83,"Velocity":68,"Duration":106803,"SoundDuration":106803,"Delta":180548016},{"NoteNumber":71,"Velocity":57,"Duration":106803,"SoundDuration":106803,"Delta":180548016},{"NoteNumber":66,"Velocity":47,"Duration":106803,"SoundDuration":106803,"Delta":180548016},{"NoteNumber":56,"Velocity":46,"Duration":237341,"SoundDuration":237341,"Delta":180661742},{"NoteNumber":62,"Velocity":52,"Duration":237342,"SoundDuration":237342,"Delta":180676576},{"NoteNumber":65,"Velocity":59,"Duration":237342,"SoundDuration":237342,"Delta":180691410},{"NoteNumber":71,"Velocity":79,"Duration":458861,"SoundDuration":458861,"Delta":180706244},{"NoteNumber":61,"Velocity":34,"Duration":142405,"SoundDuration":142405,"Delta":181022700},{"NoteNumber":71,"Velocity":40,"Duration":290678,"SoundDuration":290678,"Delta":181022700},{"NoteNumber":71,"Velocity":40,"Duration":279617,"SoundDuration":279617,"Delta":181180928},{"NoteNumber":62,"Velocity":34,"Duration":132450,"SoundDuration":132450,"Delta":181180928},{"NoteNumber":71,"Velocity":40,"Duration":279617,"SoundDuration":279617,"Delta":181328095},{"NoteNumber":63,"Velocity":34,"Duration":132450,"SoundDuration":132450,"Delta":181328095},{"NoteNumber":71,"Velocity":40,"Duration":147166,"SoundDuration":147166,"Delta":181475262},{"NoteNumber":64,"Velocity":34,"Duration":132450,"SoundDuration":132450,"Delta":181475262},{"NoteNumber":44,"Velocity":45,"Duration":220750,"SoundDuration":220750,"Delta":181539648},{"NoteNumber":50,"Velocity":49,"Duration":220750,"SoundDuration":220750,"Delta":181567241},{"NoteNumber":53,"Velocity":53,"Duration":220750,"SoundDuration":220750,"Delta":181594835},{"NoteNumber":65,"Velocity":34,"Duration":132450,"SoundDuration":132450,"Delta":181622429},{"NoteNumber":71,"Velocity":40,"Duration":132450,"SoundDuration":132450,"Delta":181622429},{"NoteNumber":59,"Velocity":73,"Duration":662251,"SoundDuration":662251,"Delta":181622429},{"NoteNumber":71,"Velocity":40,"Duration":132450,"SoundDuration":132450,"Delta":181769596},{"NoteNumber":66,"Velocity":34,"Duration":132450,"SoundDuration":132450,"Delta":181769596},{"NoteNumber":71,"Velocity":40,"Duration":132450,"SoundDuration":132450,"Delta":181916763},{"NoteNumber":67,"Velocity":34,"Duration":132450,"SoundDuration":132450,"Delta":181916763},{"NoteNumber":71,"Velocity":40,"Duration":132450,"SoundDuration":132450,"Delta":182063930},{"NoteNumber":68,"Velocity":34,"Duration":132450,"SoundDuration":132450,"Delta":182063930},{"NoteNumber":71,"Velocity":40,"Duration":132450,"SoundDuration":132450,"Delta":182211097},{"NoteNumber":69,"Velocity":34,"Duration":132450,"SoundDuration":132450,"Delta":182211097},{"NoteNumber":59,"Velocity":71,"Duration":220750,"SoundDuration":220750,"Delta":182284681},{"NoteNumber":71,"Velocity":40,"Duration":132450,"SoundDuration":132450,"Delta":182358264},{"NoteNumber":70,"Velocity":34,"Duration":132450,"SoundDuration":132450,"Delta":182358264},{"NoteNumber":44,"Velocity":40,"Duration":220304,"SoundDuration":220304,"Delta":182450243},{"NoteNumber":51,"Velocity":40,"Duration":220183,"SoundDuration":220183,"Delta":182477837},{"NoteNumber":71,"Velocity":40,"Duration":132150,"SoundDuration":132150,"Delta":182505431},{"NoteNumber":59,"Velocity":75,"Duration":438881,"SoundDuration":438881,"Delta":182505431},{"NoteNumber":71,"Velocity":35,"Duration":131761,"SoundDuration":131761,"Delta":182652233},{"NoteNumber":72,"Velocity":41,"Duration":131761,"SoundDuration":131761,"Delta":182652233},{"NoteNumber":71,"Velocity":36,"Duration":131174,"SoundDuration":131174,"Delta":182798593},{"NoteNumber":73,"Velocity":42,"Duration":131174,"SoundDuration":131174,"Delta":182798593},{"NoteNumber":74,"Velocity":44,"Duration":130593,"SoundDuration":130593,"Delta":182944313},{"NoteNumber":71,"Velocity":37,"Duration":130593,"SoundDuration":130593,"Delta":182944313},{"NoteNumber":75,"Velocity":45,"Duration":130016,"SoundDuration":130016,"Delta":183089399},{"NoteNumber":71,"Velocity":37,"Duration":130016,"SoundDuration":130016,"Delta":183089399},{"NoteNumber":71,"Velocity":38,"Duration":129393,"SoundDuration":129393,"Delta":183233803},{"NoteNumber":76,"Velocity":46,"Duration":129393,"SoundDuration":129393,"Delta":183233803},{"NoteNumber":32,"Velocity":52,"Duration":107862,"SoundDuration":107862,"Delta":183269775},{"NoteNumber":39,"Velocity":52,"Duration":107862,"SoundDuration":107862,"Delta":183269775},{"NoteNumber":77,"Velocity":47,"Duration":129963,"SoundDuration":129963,"Delta":183377637},{"NoteNumber":71,"Velocity":39,"Duration":129963,"SoundDuration":129963,"Delta":183377637},{"NoteNumber":39,"Velocity":61,"Duration":216502,"SoundDuration":216502,"Delta":183377637},{"NoteNumber":32,"Velocity":61,"Duration":216502,"SoundDuration":216502,"Delta":183377637},{"NoteNumber":78,"Velocity":48,"Duration":129652,"SoundDuration":129652,"Delta":183522041},{"NoteNumber":71,"Velocity":40,"Duration":129652,"SoundDuration":129652,"Delta":183522041},{"NoteNumber":79,"Velocity":50,"Duration":129916,"SoundDuration":129916,"Delta":183666082},{"NoteNumber":71,"Velocity":42,"Duration":129916,"SoundDuration":129916,"Delta":183666082},{"NoteNumber":71,"Velocity":42,"Duration":131386,"SoundDuration":131386,"Delta":183810597},{"NoteNumber":80,"Velocity":51,"Duration":131386,"SoundDuration":131386,"Delta":183810597},{"NoteNumber":81,"Velocity":52,"Duration":131386,"SoundDuration":131386,"Delta":183956583},{"NoteNumber":71,"Velocity":44,"Duration":131386,"SoundDuration":131386,"Delta":183956583},{"NoteNumber":82,"Velocity":53,"Duration":133605,"SoundDuration":133605,"Delta":184102568},{"NoteNumber":71,"Velocity":45,"Duration":133605,"SoundDuration":133605,"Delta":184102568},{"NoteNumber":56,"Velocity":46,"Duration":237342,"SoundDuration":237342,"Delta":184207495},{"NoteNumber":62,"Velocity":52,"Duration":237342,"SoundDuration":237342,"Delta":184222329},{"NoteNumber":65,"Velocity":59,"Duration":237342,"SoundDuration":237342,"Delta":184237163},{"NoteNumber":83,"Velocity":51,"Duration":142405,"SoundDuration":142405,"Delta":184251997},{"NoteNumber":71,"Velocity":79,"Duration":916184,"SoundDuration":916184,"Delta":184251997},{"NoteNumber":83,"Velocity":44,"Duration":142405,"SoundDuration":142405,"Delta":184410225},{"NoteNumber":72,"Velocity":52,"Duration":142405,"SoundDuration":142405,"Delta":184410225},{"NoteNumber":83,"Velocity":44,"Duration":142405,"SoundDuration":142405,"Delta":184568453},{"NoteNumber":73,"Velocity":52,"Duration":142405,"SoundDuration":142405,"Delta":184568453},{"NoteNumber":83,"Velocity":45,"Duration":132450,"SoundDuration":132450,"Delta":184726681},{"NoteNumber":74,"Velocity":53,"Duration":132450,"SoundDuration":132450,"Delta":184726681},{"NoteNumber":83,"Velocity":46,"Duration":132450,"SoundDuration":132450,"Delta":184873848},{"NoteNumber":75,"Velocity":55,"Duration":132450,"SoundDuration":132450,"Delta":184873848},{"NoteNumber":76,"Velocity":56,"Duration":132450,"SoundDuration":132450,"Delta":185021015},{"NoteNumber":83,"Velocity":47,"Duration":132450,"SoundDuration":132450,"Delta":185021015},{"NoteNumber":44,"Velocity":45,"Duration":219742,"SoundDuration":219742,"Delta":185085400},{"NoteNumber":50,"Velocity":49,"Duration":219541,"SoundDuration":219541,"Delta":185112994},{"NoteNumber":53,"Velocity":53,"Duration":219339,"SoundDuration":219339,"Delta":185140588},{"NoteNumber":77,"Velocity":57,"Duration":131482,"SoundDuration":131482,"Delta":185168182},{"NoteNumber":83,"Velocity":48,"Duration":131482,"SoundDuration":131482,"Delta":185168182},{"NoteNumber":59,"Velocity":73,"Duration":657413,"SoundDuration":657413,"Delta":185168182},{"NoteNumber":83,"Velocity":49,"Duration":131482,"SoundDuration":131482,"Delta":185314274},{"NoteNumber":78,"Velocity":58,"Duration":131482,"SoundDuration":131482,"Delta":185314274},{"NoteNumber":79,"Velocity":59,"Duration":131482,"SoundDuration":131482,"Delta":185460366},{"NoteNumber":83,"Velocity":49,"Duration":131482,"SoundDuration":131482,"Delta":185460366},{"NoteNumber":80,"Velocity":60,"Duration":131482,"SoundDuration":131482,"Delta":185606458},{"NoteNumber":83,"Velocity":50,"Duration":131482,"SoundDuration":131482,"Delta":185606458},{"NoteNumber":81,"Velocity":60,"Duration":131482,"SoundDuration":131482,"Delta":185752550},{"NoteNumber":83,"Velocity":50,"Duration":131482,"SoundDuration":131482,"Delta":185752550},{"NoteNumber":59,"Velocity":71,"Duration":219138,"SoundDuration":219138,"Delta":185825596},{"NoteNumber":83,"Velocity":51,"Duration":131482,"SoundDuration":131482,"Delta":185898642},{"NoteNumber":82,"Velocity":61,"Duration":131482,"SoundDuration":131482,"Delta":185898642},{"NoteNumber":44,"Velocity":40,"Duration":218050,"SoundDuration":218050,"Delta":185989949},{"NoteNumber":51,"Velocity":40,"Duration":217825,"SoundDuration":217825,"Delta":186017341},{"NoteNumber":83,"Velocity":62,"Duration":130657,"SoundDuration":130657,"Delta":186044734},{"NoteNumber":59,"Velocity":75,"Duration":433286,"SoundDuration":433286,"Delta":186044734},{"NoteNumber":84,"Velocity":63,"Duration":130120,"SoundDuration":130120,"Delta":186189884},{"NoteNumber":83,"Velocity":53,"Duration":130120,"SoundDuration":130120,"Delta":186189884},{"NoteNumber":83,"Velocity":55,"Duration":129290,"SoundDuration":129290,"Delta":186334393},{"NoteNumber":85,"Velocity":64,"Duration":129290,"SoundDuration":129290,"Delta":186334393},{"NoteNumber":83,"Velocity":55,"Duration":128520,"SoundDuration":128520,"Delta":186478020},{"NoteNumber":86,"Velocity":64,"Duration":128520,"SoundDuration":128520,"Delta":186478020},{"NoteNumber":83,"Velocity":56,"Duration":127810,"SoundDuration":127810,"Delta":186620776},{"NoteNumber":87,"Velocity":66,"Duration":127810,"SoundDuration":127810,"Delta":186620776},{"NoteNumber":88,"Velocity":67,"Duration":127009,"SoundDuration":127009,"Delta":186762721},{"NoteNumber":83,"Velocity":56,"Duration":127009,"SoundDuration":127009,"Delta":186762721},{"NoteNumber":39,"Velocity":52,"Duration":105807,"SoundDuration":105807,"Delta":186798057},{"NoteNumber":32,"Velocity":52,"Duration":105807,"SoundDuration":105807,"Delta":186798057},{"NoteNumber":89,"Velocity":68,"Duration":127610,"SoundDuration":127610,"Delta":186903865},{"NoteNumber":83,"Velocity":57,"Duration":127610,"SoundDuration":127610,"Delta":186903865},{"NoteNumber":39,"Velocity":62,"Duration":213222,"SoundDuration":213222,"Delta":186903865},{"NoteNumber":32,"Velocity":62,"Duration":213222,"SoundDuration":213222,"Delta":186903865},{"NoteNumber":83,"Velocity":58,"Duration":128725,"SoundDuration":128725,"Delta":187045710},{"NoteNumber":90,"Velocity":69,"Duration":128725,"SoundDuration":128725,"Delta":187045710},{"NoteNumber":91,"Velocity":70,"Duration":129652,"SoundDuration":129652,"Delta":187188772},{"NoteNumber":83,"Velocity":59,"Duration":129652,"SoundDuration":129652,"Delta":187188772},{"NoteNumber":83,"Velocity":59,"Duration":130751,"SoundDuration":130751,"Delta":187332917},{"NoteNumber":92,"Velocity":70,"Duration":130751,"SoundDuration":130751,"Delta":187332917},{"NoteNumber":83,"Velocity":60,"Duration":130909,"SoundDuration":130909,"Delta":187478214},{"NoteNumber":93,"Velocity":71,"Duration":130909,"SoundDuration":130909,"Delta":187478214},{"NoteNumber":83,"Velocity":61,"Duration":130909,"SoundDuration":130909,"Delta":187623669},{"NoteNumber":94,"Velocity":72,"Duration":130909,"SoundDuration":130909,"Delta":187623669},{"NoteNumber":56,"Velocity":48,"Duration":224317,"SoundDuration":224317,"Delta":187728214},{"NoteNumber":62,"Velocity":55,"Duration":224789,"SoundDuration":224789,"Delta":187741851},{"NoteNumber":65,"Velocity":62,"Duration":225261,"SoundDuration":225261,"Delta":187755487},{"NoteNumber":83,"Velocity":72,"Duration":135440,"SoundDuration":135440,"Delta":187769123},{"NoteNumber":95,"Velocity":61,"Duration":135440,"SoundDuration":135440,"Delta":187769123},{"NoteNumber":71,"Velocity":84,"Duration":878948,"SoundDuration":878948,"Delta":187769123},{"NoteNumber":95,"Velocity":61,"Duration":135440,"SoundDuration":135440,"Delta":187919612},{"NoteNumber":84,"Velocity":73,"Duration":135440,"SoundDuration":135440,"Delta":187919612},{"NoteNumber":85,"Velocity":74,"Duration":135440,"SoundDuration":135440,"Delta":188070101},{"NoteNumber":95,"Velocity":62,"Duration":135440,"SoundDuration":135440,"Delta":188070101},{"NoteNumber":95,"Velocity":62,"Duration":129549,"SoundDuration":129549,"Delta":188219982},{"NoteNumber":86,"Velocity":74,"Duration":129549,"SoundDuration":129549,"Delta":188219982},{"NoteNumber":95,"Velocity":63,"Duration":128419,"SoundDuration":128419,"Delta":188363868},{"NoteNumber":87,"Velocity":75,"Duration":128419,"SoundDuration":128419,"Delta":188363868},{"NoteNumber":88,"Velocity":77,"Duration":127159,"SoundDuration":127159,"Delta":188506472},{"NoteNumber":95,"Velocity":64,"Duration":127159,"SoundDuration":127159,"Delta":188506472},{"NoteNumber":44,"Velocity":49,"Duration":214991,"SoundDuration":214991,"Delta":188568459},{"NoteNumber":50,"Velocity":53,"Duration":215627,"SoundDuration":215627,"Delta":188594899},{"NoteNumber":53,"Velocity":58,"Duration":216295,"SoundDuration":216295,"Delta":188621307},{"NoteNumber":59,"Velocity":80,"Duration":649819,"SoundDuration":649819,"Delta":188648072},{"NoteNumber":88,"Velocity":79,"Duration":129963,"SoundDuration":129963,"Delta":188792476},{"NoteNumber":95,"Velocity":67,"Duration":129963,"SoundDuration":129963,"Delta":188792476},{"NoteNumber":86,"Velocity":79,"Duration":129963,"SoundDuration":129963,"Delta":188792476},{"NoteNumber":89,"Velocity":80,"Duration":129963,"SoundDuration":129963,"Delta":188936880},{"NoteNumber":86,"Velocity":68,"Duration":129963,"SoundDuration":129963,"Delta":188936880},{"NoteNumber":95,"Velocity":68,"Duration":129963,"SoundDuration":129963,"Delta":188936880},{"NoteNumber":86,"Velocity":68,"Duration":129963,"SoundDuration":129963,"Delta":189081285},{"NoteNumber":90,"Velocity":81,"Duration":129963,"SoundDuration":129963,"Delta":189081285},{"NoteNumber":95,"Velocity":68,"Duration":129963,"SoundDuration":129963,"Delta":189081285},{"NoteNumber":91,"Velocity":82,"Duration":134507,"SoundDuration":134507,"Delta":189225689},{"NoteNumber":95,"Velocity":69,"Duration":134507,"SoundDuration":134507,"Delta":189225689},{"NoteNumber":86,"Velocity":69,"Duration":134507,"SoundDuration":134507,"Delta":189225689},{"NoteNumber":59,"Velocity":80,"Duration":233644,"SoundDuration":233644,"Delta":189297891},{"NoteNumber":95,"Velocity":70,"Duration":87616,"SoundDuration":87616,"Delta":189375773},{"NoteNumber":86,"Velocity":70,"Duration":87616,"SoundDuration":87616,"Delta":189375773},{"NoteNumber":92,"Velocity":83,"Duration":87616,"SoundDuration":87616,"Delta":189375773},{"NoteNumber":43,"Velocity":51,"Duration":225203,"SoundDuration":225203,"Delta":189414714},{"NoteNumber":52,"Velocity":64,"Duration":220983,"SoundDuration":220983,"Delta":189473125},{"NoteNumber":55,"Velocity":69,"Duration":218873,"SoundDuration":218873,"Delta":189502331},{"NoteNumber":60,"Velocity":85,"Duration":859640,"SoundDuration":859640,"Delta":189531536},{"NoteNumber":64,"Velocity":85,"Duration":859640,"SoundDuration":859640,"Delta":189531536},{"NoteNumber":91,"Velocity":73,"Duration":142479,"SoundDuration":142479,"Delta":189676045},{"NoteNumber":100,"Velocity":86,"Duration":142479,"SoundDuration":142479,"Delta":189676045},{"NoteNumber":96,"Velocity":73,"Duration":142479,"SoundDuration":142479,"Delta":189676045},{"NoteNumber":99,"Velocity":86,"Duration":141343,"SoundDuration":141343,"Delta":189818524},{"NoteNumber":90,"Velocity":73,"Duration":141343,"SoundDuration":141343,"Delta":189818524},{"NoteNumber":95,"Velocity":73,"Duration":141343,"SoundDuration":141343,"Delta":189818524},{"NoteNumber":89,"Velocity":72,"Duration":142603,"SoundDuration":142603,"Delta":189959868},{"NoteNumber":94,"Velocity":72,"Duration":142603,"SoundDuration":142603,"Delta":189959868},{"NoteNumber":98,"Velocity":85,"Duration":142603,"SoundDuration":142603,"Delta":189959868},{"NoteNumber":97,"Velocity":84,"Duration":144300,"SoundDuration":144300,"Delta":190102472},{"NoteNumber":93,"Velocity":71,"Duration":144300,"SoundDuration":144300,"Delta":190102472},{"NoteNumber":88,"Velocity":71,"Duration":144300,"SoundDuration":144300,"Delta":190102472},{"NoteNumber":96,"Velocity":84,"Duration":144404,"SoundDuration":144404,"Delta":190246772},{"NoteNumber":87,"Velocity":71,"Duration":144404,"SoundDuration":144404,"Delta":190246772},{"NoteNumber":92,"Velocity":71,"Duration":144404,"SoundDuration":144404,"Delta":190246772},{"NoteNumber":95,"Velocity":83,"Duration":144404,"SoundDuration":144404,"Delta":190391177},{"NoteNumber":86,"Velocity":70,"Duration":144404,"SoundDuration":144404,"Delta":190391177},{"NoteNumber":91,"Velocity":70,"Duration":144404,"SoundDuration":144404,"Delta":190391177},{"NoteNumber":43,"Velocity":78,"Duration":216606,"SoundDuration":216606,"Delta":190391177},{"NoteNumber":31,"Velocity":78,"Duration":216606,"SoundDuration":216606,"Delta":190391177},{"NoteNumber":94,"Velocity":83,"Duration":144404,"SoundDuration":144404,"Delta":190535581},{"NoteNumber":85,"Velocity":70,"Duration":144404,"SoundDuration":144404,"Delta":190535581},{"NoteNumber":90,"Velocity":83,"Duration":144404,"SoundDuration":144404,"Delta":190535581},{"NoteNumber":89,"Velocity":69,"Duration":144404,"SoundDuration":144404,"Delta":190679985},{"NoteNumber":84,"Velocity":69,"Duration":144404,"SoundDuration":144404,"Delta":190679985},{"NoteNumber":93,"Velocity":82,"Duration":144404,"SoundDuration":144404,"Delta":190679985},{"NoteNumber":83,"Velocity":68,"Duration":149924,"SoundDuration":149924,"Delta":190824390},{"NoteNumber":88,"Velocity":68,"Duration":149924,"SoundDuration":149924,"Delta":190824390},{"NoteNumber":92,"Velocity":81,"Duration":149924,"SoundDuration":149924,"Delta":190824390},{"NoteNumber":60,"Velocity":69,"Duration":449774,"SoundDuration":449774,"Delta":190824390},{"NoteNumber":55,"Velocity":69,"Duration":449774,"SoundDuration":449774,"Delta":190824390},{"NoteNumber":64,"Velocity":82,"Duration":449774,"SoundDuration":449774,"Delta":190824390},{"NoteNumber":87,"Velocity":68,"Duration":149924,"SoundDuration":149924,"Delta":190974315},{"NoteNumber":91,"Velocity":81,"Duration":149924,"SoundDuration":149924,"Delta":190974315},{"NoteNumber":82,"Velocity":68,"Duration":149924,"SoundDuration":149924,"Delta":190974315},{"NoteNumber":90,"Velocity":80,"Duration":149924,"SoundDuration":149924,"Delta":191124240},{"NoteNumber":86,"Velocity":68,"Duration":149924,"SoundDuration":149924,"Delta":191124240},{"NoteNumber":81,"Velocity":68,"Duration":149924,"SoundDuration":149924,"Delta":191124240},{"NoteNumber":85,"Velocity":56,"Duration":145560,"SoundDuration":145560,"Delta":191274165},{"NoteNumber":80,"Velocity":56,"Duration":145560,"SoundDuration":145560,"Delta":191274165},{"NoteNumber":89,"Velocity":79,"Duration":145560,"SoundDuration":145560,"Delta":191274165},{"NoteNumber":56,"Velocity":72,"Duration":785640,"SoundDuration":785640,"Delta":191274165},{"NoteNumber":65,"Velocity":85,"Duration":785640,"SoundDuration":785640,"Delta":191274165},{"NoteNumber":61,"Velocity":72,"Duration":785640,"SoundDuration":785640,"Delta":191274165},{"NoteNumber":79,"Velocity":56,"Duration":143752,"SoundDuration":143752,"Delta":191419725},{"NoteNumber":88,"Velocity":79,"Duration":143752,"SoundDuration":143752,"Delta":191419725},{"NoteNumber":84,"Velocity":56,"Duration":143752,"SoundDuration":143752,"Delta":191419725},{"NoteNumber":78,"Velocity":56,"Duration":142858,"SoundDuration":142858,"Delta":191563478},{"NoteNumber":87,"Velocity":78,"Duration":142858,"SoundDuration":142858,"Delta":191563478},{"NoteNumber":83,"Velocity":78,"Duration":142858,"SoundDuration":142858,"Delta":191563478},{"NoteNumber":77,"Velocity":55,"Duration":144145,"SoundDuration":144145,"Delta":191706336},{"NoteNumber":82,"Velocity":55,"Duration":144145,"SoundDuration":144145,"Delta":191706336},{"NoteNumber":86,"Velocity":77,"Duration":144145,"SoundDuration":144145,"Delta":191706336},{"NoteNumber":85,"Velocity":77,"Duration":145455,"SoundDuration":145455,"Delta":191850481},{"NoteNumber":76,"Velocity":55,"Duration":145455,"SoundDuration":145455,"Delta":191850481},{"NoteNumber":81,"Velocity":55,"Duration":145455,"SoundDuration":145455,"Delta":191850481},{"NoteNumber":75,"Velocity":53,"Duration":145985,"SoundDuration":145985,"Delta":191995937},{"NoteNumber":84,"Velocity":75,"Duration":145985,"SoundDuration":145985,"Delta":191995937},{"NoteNumber":80,"Velocity":53,"Duration":145985,"SoundDuration":145985,"Delta":191995937},{"NoteNumber":43,"Velocity":49,"Duration":218977,"SoundDuration":218977,"Delta":192059806},{"NoteNumber":50,"Velocity":53,"Duration":218977,"SoundDuration":218977,"Delta":192087178},{"NoteNumber":53,"Velocity":58,"Duration":218978,"SoundDuration":218978,"Delta":192114550},{"NoteNumber":59,"Velocity":80,"Duration":662843,"SoundDuration":662843,"Delta":192141922},{"NoteNumber":79,"Velocity":62,"Duration":145985,"SoundDuration":145985,"Delta":192287908},{"NoteNumber":83,"Velocity":74,"Duration":145985,"SoundDuration":145985,"Delta":192287908},{"NoteNumber":74,"Velocity":62,"Duration":145985,"SoundDuration":145985,"Delta":192287908},{"NoteNumber":82,"Velocity":74,"Duration":145985,"SoundDuration":145985,"Delta":192433893},{"NoteNumber":78,"Velocity":62,"Duration":145985,"SoundDuration":145985,"Delta":192433893},{"NoteNumber":73,"Velocity":62,"Duration":145985,"SoundDuration":145985,"Delta":192433893},{"NoteNumber":72,"Velocity":61,"Duration":149924,"SoundDuration":149924,"Delta":192579878},{"NoteNumber":77,"Velocity":73,"Duration":149924,"SoundDuration":149924,"Delta":192579878},{"NoteNumber":81,"Velocity":73,"Duration":149924,"SoundDuration":149924,"Delta":192579878},{"NoteNumber":80,"Velocity":72,"Duration":149924,"SoundDuration":149924,"Delta":192729803},{"NoteNumber":74,"Velocity":61,"Duration":149924,"SoundDuration":149924,"Delta":192729803},{"NoteNumber":71,"Velocity":61,"Duration":149924,"SoundDuration":149924,"Delta":192729803},{"NoteNumber":53,"Velocity":62,"Duration":224887,"SoundDuration":224887,"Delta":192804766},{"NoteNumber":50,"Velocity":62,"Duration":224887,"SoundDuration":224887,"Delta":192804766},{"NoteNumber":59,"Velocity":80,"Duration":224887,"SoundDuration":224887,"Delta":192804766},{"NoteNumber":74,"Velocity":61,"Duration":149924,"SoundDuration":149924,"Delta":192879728},{"NoteNumber":79,"Velocity":72,"Duration":149924,"SoundDuration":149924,"Delta":192879728},{"NoteNumber":71,"Velocity":61,"Duration":149924,"SoundDuration":149924,"Delta":192879728},{"NoteNumber":60,"Velocity":72,"Duration":870703,"SoundDuration":870703,"Delta":193029653},{"NoteNumber":55,"Velocity":72,"Duration":870703,"SoundDuration":870703,"Delta":193029653},{"NoteNumber":64,"Velocity":85,"Duration":870703,"SoundDuration":870703,"Delta":193029653},{"NoteNumber":88,"Velocity":73,"Duration":143878,"SoundDuration":143878,"Delta":193175745},{"NoteNumber":79,"Velocity":61,"Duration":143878,"SoundDuration":143878,"Delta":193175745},{"NoteNumber":84,"Velocity":61,"Duration":143878,"SoundDuration":143878,"Delta":193175745},{"NoteNumber":83,"Velocity":61,"Duration":143886,"SoundDuration":143886,"Delta":193319624},{"NoteNumber":78,"Velocity":61,"Duration":143886,"SoundDuration":143886,"Delta":193319624},{"NoteNumber":87,"Velocity":73,"Duration":143886,"SoundDuration":143886,"Delta":193319624},{"NoteNumber":86,"Velocity":71,"Duration":144928,"SoundDuration":144928,"Delta":193463510},{"NoteNumber":82,"Velocity":61,"Duration":144928,"SoundDuration":144928,"Delta":193463510},{"NoteNumber":77,"Velocity":61,"Duration":144928,"SoundDuration":144928,"Delta":193463510},{"NoteNumber":81,"Velocity":59,"Duration":145932,"SoundDuration":145932,"Delta":193608439},{"NoteNumber":85,"Velocity":70,"Duration":145932,"SoundDuration":145932,"Delta":193608439},{"NoteNumber":76,"Velocity":59,"Duration":145932,"SoundDuration":145932,"Delta":193608439},{"NoteNumber":80,"Velocity":59,"Duration":145985,"SoundDuration":145985,"Delta":193754371},{"NoteNumber":75,"Velocity":59,"Duration":145985,"SoundDuration":145985,"Delta":193754371},{"NoteNumber":84,"Velocity":70,"Duration":145985,"SoundDuration":145985,"Delta":193754371},{"NoteNumber":83,"Velocity":69,"Duration":145985,"SoundDuration":145985,"Delta":193900357},{"NoteNumber":74,"Velocity":58,"Duration":145985,"SoundDuration":145985,"Delta":193900357},{"NoteNumber":79,"Velocity":58,"Duration":145985,"SoundDuration":145985,"Delta":193900357},{"NoteNumber":43,"Velocity":76,"Duration":218978,"SoundDuration":218978,"Delta":193900357},{"NoteNumber":31,"Velocity":64,"Duration":218978,"SoundDuration":218978,"Delta":193900357},{"NoteNumber":82,"Velocity":69,"Duration":145985,"SoundDuration":145985,"Delta":194046342},{"NoteNumber":73,"Velocity":58,"Duration":145985,"SoundDuration":145985,"Delta":194046342},{"NoteNumber":78,"Velocity":58,"Duration":145985,"SoundDuration":145985,"Delta":194046342},{"NoteNumber":81,"Velocity":67,"Duration":145985,"SoundDuration":145985,"Delta":194192327},{"NoteNumber":72,"Velocity":56,"Duration":145985,"SoundDuration":145985,"Delta":194192327},{"NoteNumber":77,"Velocity":56,"Duration":145985,"SoundDuration":145985,"Delta":194192327},{"NoteNumber":76,"Velocity":55,"Duration":149924,"SoundDuration":149924,"Delta":194338313},{"NoteNumber":71,"Velocity":55,"Duration":149924,"SoundDuration":149924,"Delta":194338313},{"NoteNumber":80,"Velocity":66,"Duration":149924,"SoundDuration":149924,"Delta":194338313},{"NoteNumber":55,"Velocity":67,"Duration":449774,"SoundDuration":449774,"Delta":194338313},{"NoteNumber":60,"Velocity":67,"Duration":449774,"SoundDuration":449774,"Delta":194338313},{"NoteNumber":64,"Velocity":80,"Duration":449774,"SoundDuration":449774,"Delta":194338313},{"NoteNumber":79,"Velocity":65,"Duration":149924,"SoundDuration":149924,"Delta":194488238},{"NoteNumber":70,"Velocity":55,"Duration":149924,"SoundDuration":149924,"Delta":194488238},{"NoteNumber":75,"Velocity":55,"Duration":149924,"SoundDuration":149924,"Delta":194488238},{"NoteNumber":74,"Velocity":55,"Duration":149924,"SoundDuration":149924,"Delta":194638163},{"NoteNumber":78,"Velocity":65,"Duration":149924,"SoundDuration":149924,"Delta":194638163},{"NoteNumber":69,"Velocity":55,"Duration":149924,"SoundDuration":149924,"Delta":194638163},{"NoteNumber":68,"Velocity":53,"Duration":147166,"SoundDuration":147166,"Delta":194788088},{"NoteNumber":73,"Velocity":53,"Duration":147166,"SoundDuration":147166,"Delta":194788088},{"NoteNumber":77,"Velocity":64,"Duration":147166,"SoundDuration":147166,"Delta":194788088},{"NoteNumber":65,"Velocity":81,"Duration":1324502,"SoundDuration":1324502,"Delta":194788088},{"NoteNumber":61,"Velocity":69,"Duration":441500,"SoundDuration":441500,"Delta":194788088},{"NoteNumber":56,"Velocity":69,"Duration":441500,"SoundDuration":441500,"Delta":194788088},{"NoteNumber":76,"Velocity":65,"Duration":147166,"SoundDuration":147166,"Delta":194935255},{"NoteNumber":72,"Velocity":54,"Duration":147166,"SoundDuration":147166,"Delta":194935255},{"NoteNumber":75,"Velocity":64,"Duration":147166,"SoundDuration":147166,"Delta":195082422},{"NoteNumber":71,"Velocity":53,"Duration":147166,"SoundDuration":147166,"Delta":195082422},{"NoteNumber":70,"Velocity":52,"Duration":147167,"SoundDuration":147167,"Delta":195229589},{"NoteNumber":74,"Velocity":62,"Duration":147167,"SoundDuration":147167,"Delta":195229589},{"NoteNumber":64,"Velocity":50,"Duration":147166,"SoundDuration":147166,"Delta":195376756},{"NoteNumber":69,"Velocity":50,"Duration":147166,"SoundDuration":147166,"Delta":195376756},{"NoteNumber":73,"Velocity":61,"Duration":147166,"SoundDuration":147166,"Delta":195376756},{"NoteNumber":63,"Velocity":50,"Duration":147166,"SoundDuration":147166,"Delta":195523923},{"NoteNumber":72,"Velocity":60,"Duration":147166,"SoundDuration":147166,"Delta":195523923},{"NoteNumber":68,"Velocity":50,"Duration":147166,"SoundDuration":147166,"Delta":195523923},{"NoteNumber":67,"Velocity":50,"Duration":147166,"SoundDuration":147166,"Delta":195671090},{"NoteNumber":71,"Velocity":59,"Duration":147166,"SoundDuration":147166,"Delta":195671090},{"NoteNumber":62,"Velocity":50,"Duration":147166,"SoundDuration":147166,"Delta":195671090},{"NoteNumber":70,"Velocity":59,"Duration":147166,"SoundDuration":147166,"Delta":195818257},{"NoteNumber":66,"Velocity":50,"Duration":147166,"SoundDuration":147166,"Delta":195818257},{"NoteNumber":61,"Velocity":50,"Duration":147166,"SoundDuration":147166,"Delta":195818257},{"NoteNumber":60,"Velocity":48,"Duration":147166,"SoundDuration":147166,"Delta":195965424},{"NoteNumber":69,"Velocity":58,"Duration":147166,"SoundDuration":147166,"Delta":195965424},{"NoteNumber":65,"Velocity":48,"Duration":147166,"SoundDuration":147166,"Delta":195965424},{"NoteNumber":64,"Velocity":47,"Duration":147166,"SoundDuration":147166,"Delta":196112591},{"NoteNumber":59,"Velocity":47,"Duration":147166,"SoundDuration":147166,"Delta":196112591},{"NoteNumber":68,"Velocity":57,"Duration":147166,"SoundDuration":147166,"Delta":196112591},{"NoteNumber":58,"Velocity":47,"Duration":147167,"SoundDuration":147167,"Delta":196259758},{"NoteNumber":63,"Velocity":47,"Duration":147167,"SoundDuration":147167,"Delta":196259758},{"NoteNumber":67,"Velocity":56,"Duration":147167,"SoundDuration":147167,"Delta":196259758},{"NoteNumber":57,"Velocity":46,"Duration":146844,"SoundDuration":146844,"Delta":196406925},{"NoteNumber":66,"Velocity":54,"Duration":146844,"SoundDuration":146844,"Delta":196406925},{"NoteNumber":62,"Velocity":46,"Duration":146844,"SoundDuration":146844,"Delta":196406925},{"NoteNumber":61,"Velocity":54,"Duration":146038,"SoundDuration":146038,"Delta":196553769},{"NoteNumber":65,"Velocity":54,"Duration":146038,"SoundDuration":146038,"Delta":196553769},{"NoteNumber":56,"Velocity":46,"Duration":146038,"SoundDuration":146038,"Delta":196553769},{"NoteNumber":64,"Velocity":53,"Duration":145560,"SoundDuration":145560,"Delta":196699808},{"NoteNumber":60,"Velocity":45,"Duration":145560,"SoundDuration":145560,"Delta":196699808},{"NoteNumber":55,"Velocity":45,"Duration":145560,"SoundDuration":145560,"Delta":196699808},{"NoteNumber":54,"Velocity":43,"Duration":145085,"SoundDuration":145085,"Delta":196845368},{"NoteNumber":59,"Velocity":43,"Duration":145085,"SoundDuration":145085,"Delta":196845368},{"NoteNumber":63,"Velocity":52,"Duration":145085,"SoundDuration":145085,"Delta":196845368},{"NoteNumber":62,"Velocity":50,"Duration":144561,"SoundDuration":144561,"Delta":196990454},{"NoteNumber":53,"Velocity":43,"Duration":144561,"SoundDuration":144561,"Delta":196990454},{"NoteNumber":58,"Velocity":43,"Duration":144561,"SoundDuration":144561,"Delta":196990454},{"NoteNumber":52,"Velocity":42,"Duration":144144,"SoundDuration":144144,"Delta":197135015},{"NoteNumber":57,"Velocity":42,"Duration":144144,"SoundDuration":144144,"Delta":197135015},{"NoteNumber":61,"Velocity":50,"Duration":144144,"SoundDuration":144144,"Delta":197135015},{"NoteNumber":51,"Velocity":40,"Duration":143730,"SoundDuration":143730,"Delta":197279159},{"NoteNumber":60,"Velocity":48,"Duration":143730,"SoundDuration":143730,"Delta":197279159},{"NoteNumber":56,"Velocity":40,"Duration":143730,"SoundDuration":143730,"Delta":197279159},{"NoteNumber":50,"Velocity":39,"Duration":142552,"SoundDuration":142552,"Delta":197422889},{"NoteNumber":55,"Velocity":39,"Duration":142552,"SoundDuration":142552,"Delta":197422889},{"NoteNumber":59,"Velocity":47,"Duration":142552,"SoundDuration":142552,"Delta":197422889},{"NoteNumber":54,"Velocity":38,"Duration":142096,"SoundDuration":142096,"Delta":197565442},{"NoteNumber":58,"Velocity":46,"Duration":142096,"SoundDuration":142096,"Delta":197565442},{"NoteNumber":49,"Velocity":38,"Duration":142096,"SoundDuration":142096,"Delta":197565442},{"NoteNumber":53,"Velocity":37,"Duration":141593,"SoundDuration":141593,"Delta":197707538},{"NoteNumber":57,"Velocity":45,"Duration":141593,"SoundDuration":141593,"Delta":197707538},{"NoteNumber":48,"Velocity":37,"Duration":141593,"SoundDuration":141593,"Delta":197707538},{"NoteNumber":56,"Velocity":44,"Duration":141093,"SoundDuration":141093,"Delta":197849131},{"NoteNumber":52,"Velocity":37,"Duration":141093,"SoundDuration":141093,"Delta":197849131},{"NoteNumber":47,"Velocity":37,"Duration":141093,"SoundDuration":141093,"Delta":197849131},{"NoteNumber":55,"Velocity":43,"Duration":140597,"SoundDuration":140597,"Delta":197990225},{"NoteNumber":51,"Velocity":35,"Duration":140597,"SoundDuration":140597,"Delta":197990225},{"NoteNumber":46,"Velocity":35,"Duration":140597,"SoundDuration":140597,"Delta":197990225},{"NoteNumber":50,"Velocity":35,"Duration":140105,"SoundDuration":140105,"Delta":198130823},{"NoteNumber":45,"Velocity":35,"Duration":140105,"SoundDuration":140105,"Delta":198130823},{"NoteNumber":54,"Velocity":42,"Duration":140105,"SoundDuration":140105,"Delta":198130823},{"NoteNumber":44,"Velocity":35,"Duration":139616,"SoundDuration":139616,"Delta":198270928},{"NoteNumber":53,"Velocity":41,"Duration":139616,"SoundDuration":139616,"Delta":198270928},{"NoteNumber":49,"Velocity":35,"Duration":139616,"SoundDuration":139616,"Delta":198270928},{"NoteNumber":48,"Velocity":35,"Duration":139469,"SoundDuration":139469,"Delta":198410545},{"NoteNumber":43,"Velocity":35,"Duration":139469,"SoundDuration":139469,"Delta":198410545},{"NoteNumber":52,"Velocity":41,"Duration":139469,"SoundDuration":139469,"Delta":198410545},{"NoteNumber":51,"Velocity":40,"Duration":139469,"SoundDuration":139469,"Delta":198550015},{"NoteNumber":42,"Velocity":33,"Duration":139469,"SoundDuration":139469,"Delta":198550015},{"NoteNumber":47,"Velocity":33,"Duration":139469,"SoundDuration":139469,"Delta":198550015},{"NoteNumber":41,"Velocity":32,"Duration":139470,"SoundDuration":139470,"Delta":198689485},{"NoteNumber":50,"Velocity":38,"Duration":139470,"SoundDuration":139470,"Delta":198689485},{"NoteNumber":46,"Velocity":38,"Duration":139470,"SoundDuration":139470,"Delta":198689485},{"NoteNumber":45,"Velocity":32,"Duration":139469,"SoundDuration":139469,"Delta":198828955},{"NoteNumber":40,"Velocity":32,"Duration":139469,"SoundDuration":139469,"Delta":198828955},{"NoteNumber":49,"Velocity":38,"Duration":139469,"SoundDuration":139469,"Delta":198828955},{"NoteNumber":48,"Velocity":36,"Duration":139373,"SoundDuration":139373,"Delta":198968425},{"NoteNumber":39,"Velocity":30,"Duration":139373,"SoundDuration":139373,"Delta":198968425},{"NoteNumber":44,"Velocity":30,"Duration":139373,"SoundDuration":139373,"Delta":198968425},{"NoteNumber":38,"Velocity":30,"Duration":138648,"SoundDuration":138648,"Delta":199107798},{"NoteNumber":47,"Velocity":35,"Duration":138648,"SoundDuration":138648,"Delta":199107798},{"NoteNumber":43,"Velocity":30,"Duration":138648,"SoundDuration":138648,"Delta":199107798},{"NoteNumber":46,"Velocity":35,"Duration":139227,"SoundDuration":139227,"Delta":199246446},{"NoteNumber":37,"Velocity":29,"Duration":139227,"SoundDuration":139227,"Delta":199246446},{"NoteNumber":42,"Velocity":29,"Duration":139227,"SoundDuration":139227,"Delta":199246446},{"NoteNumber":36,"Velocity":28,"Duration":139860,"SoundDuration":139860,"Delta":199385674},{"NoteNumber":45,"Velocity":34,"Duration":139860,"SoundDuration":139860,"Delta":199385674},{"NoteNumber":41,"Velocity":28,"Duration":139860,"SoundDuration":139860,"Delta":199385674},{"NoteNumber":35,"Velocity":28,"Duration":140597,"SoundDuration":140597,"Delta":199525535},{"NoteNumber":40,"Velocity":28,"Duration":140597,"SoundDuration":140597,"Delta":199525535},{"NoteNumber":44,"Velocity":34,"Duration":140597,"SoundDuration":140597,"Delta":199525535},{"NoteNumber":43,"Velocity":33,"Duration":141193,"SoundDuration":141193,"Delta":199666133},{"NoteNumber":39,"Velocity":27,"Duration":141193,"SoundDuration":141193,"Delta":199666133},{"NoteNumber":34,"Velocity":27,"Duration":141193,"SoundDuration":141193,"Delta":199666133},{"NoteNumber":42,"Velocity":31,"Duration":141945,"SoundDuration":141945,"Delta":199807326},{"NoteNumber":33,"Velocity":26,"Duration":141945,"SoundDuration":141945,"Delta":199807326},{"NoteNumber":38,"Velocity":26,"Duration":141945,"SoundDuration":141945,"Delta":199807326},{"NoteNumber":37,"Velocity":24,"Duration":142197,"SoundDuration":142197,"Delta":199949272},{"NoteNumber":41,"Velocity":28,"Duration":142197,"SoundDuration":142197,"Delta":199949272},{"NoteNumber":32,"Velocity":24,"Duration":142197,"SoundDuration":142197,"Delta":199949272},{"NoteNumber":33,"Velocity":25,"Duration":141443,"SoundDuration":141443,"Delta":200091469},{"NoteNumber":42,"Velocity":30,"Duration":141443,"SoundDuration":141443,"Delta":200091469},{"NoteNumber":38,"Velocity":25,"Duration":141443,"SoundDuration":141443,"Delta":200091469},{"NoteNumber":39,"Velocity":28,"Duration":140696,"SoundDuration":140696,"Delta":200232912},{"NoteNumber":43,"Velocity":34,"Duration":140696,"SoundDuration":140696,"Delta":200232912},{"NoteNumber":34,"Velocity":28,"Duration":140696,"SoundDuration":140696,"Delta":200232912},{"NoteNumber":40,"Velocity":29,"Duration":141144,"SoundDuration":141144,"Delta":200373609},{"NoteNumber":35,"Velocity":29,"Duration":141144,"SoundDuration":141144,"Delta":200373609},{"NoteNumber":44,"Velocity":35,"Duration":141144,"SoundDuration":141144,"Delta":200373609},{"NoteNumber":39,"Velocity":28,"Duration":142147,"SoundDuration":142147,"Delta":200514753},{"NoteNumber":43,"Velocity":33,"Duration":142147,"SoundDuration":142147,"Delta":200514753},{"NoteNumber":34,"Velocity":28,"Duration":142147,"SoundDuration":142147,"Delta":200514753},{"NoteNumber":38,"Velocity":28,"Duration":143062,"SoundDuration":143062,"Delta":200656900},{"NoteNumber":33,"Velocity":28,"Duration":143062,"SoundDuration":143062,"Delta":200656900},{"NoteNumber":42,"Velocity":32,"Duration":143062,"SoundDuration":143062,"Delta":200656900},{"NoteNumber":32,"Velocity":26,"Duration":142298,"SoundDuration":142298,"Delta":200799963},{"NoteNumber":37,"Velocity":26,"Duration":142298,"SoundDuration":142298,"Delta":200799963},{"NoteNumber":41,"Velocity":32,"Duration":142298,"SoundDuration":142298,"Delta":200799963},{"NoteNumber":42,"Velocity":33,"Duration":141593,"SoundDuration":141593,"Delta":200942261},{"NoteNumber":38,"Velocity":28,"Duration":141593,"SoundDuration":141593,"Delta":200942261},{"NoteNumber":33,"Velocity":28,"Duration":141593,"SoundDuration":141593,"Delta":200942261},{"NoteNumber":39,"Velocity":28,"Duration":140845,"SoundDuration":140845,"Delta":201083854},{"NoteNumber":43,"Velocity":35,"Duration":140845,"SoundDuration":140845,"Delta":201083854},{"NoteNumber":34,"Velocity":28,"Duration":140845,"SoundDuration":140845,"Delta":201083854},{"NoteNumber":44,"Velocity":36,"Duration":139861,"SoundDuration":139861,"Delta":201224700},{"NoteNumber":35,"Velocity":31,"Duration":139861,"SoundDuration":139861,"Delta":201224700},{"NoteNumber":40,"Velocity":31,"Duration":139861,"SoundDuration":139861,"Delta":201224700},{"NoteNumber":34,"Velocity":29,"Duration":140945,"SoundDuration":140945,"Delta":201364561},{"NoteNumber":43,"Velocity":35,"Duration":140945,"SoundDuration":140945,"Delta":201364561},{"NoteNumber":39,"Velocity":29,"Duration":140945,"SoundDuration":140945,"Delta":201364561},{"NoteNumber":33,"Velocity":28,"Duration":141894,"SoundDuration":141894,"Delta":201505506},{"NoteNumber":38,"Velocity":28,"Duration":141894,"SoundDuration":141894,"Delta":201505506},{"NoteNumber":42,"Velocity":34,"Duration":141894,"SoundDuration":141894,"Delta":201505506},{"NoteNumber":41,"Velocity":37,"Duration":151630,"SoundDuration":151630,"Delta":201647401},{"NoteNumber":37,"Velocity":32,"Duration":151630,"SoundDuration":151630,"Delta":201647401},{"NoteNumber":32,"Velocity":32,"Duration":151630,"SoundDuration":151630,"Delta":201647401},{"NoteNumber":38,"Velocity":30,"Duration":151629,"SoundDuration":151629,"Delta":201799031},{"NoteNumber":33,"Velocity":30,"Duration":151629,"SoundDuration":151629,"Delta":201799031},{"NoteNumber":42,"Velocity":36,"Duration":151629,"SoundDuration":151629,"Delta":201799031},{"NoteNumber":39,"Velocity":32,"Duration":151630,"SoundDuration":151630,"Delta":201950661},{"NoteNumber":34,"Velocity":32,"Duration":151630,"SoundDuration":151630,"Delta":201950661},{"NoteNumber":43,"Velocity":37,"Duration":151630,"SoundDuration":151630,"Delta":201950661},{"NoteNumber":40,"Velocity":32,"Duration":151629,"SoundDuration":151629,"Delta":202102291},{"NoteNumber":44,"Velocity":38,"Duration":151629,"SoundDuration":151629,"Delta":202102291},{"NoteNumber":35,"Velocity":32,"Duration":151629,"SoundDuration":151629,"Delta":202102291},{"NoteNumber":34,"Velocity":33,"Duration":151630,"SoundDuration":151630,"Delta":202253921},{"NoteNumber":39,"Velocity":33,"Duration":151630,"SoundDuration":151630,"Delta":202253921},{"NoteNumber":43,"Velocity":40,"Duration":151630,"SoundDuration":151630,"Delta":202253921},{"NoteNumber":33,"Velocity":35,"Duration":158920,"SoundDuration":158920,"Delta":202405551},{"NoteNumber":38,"Velocity":35,"Duration":158920,"SoundDuration":158920,"Delta":202405551},{"NoteNumber":42,"Velocity":41,"Duration":158920,"SoundDuration":158920,"Delta":202405551},{"NoteNumber":37,"Velocity":32,"Duration":174392,"SoundDuration":174392,"Delta":202564471},{"NoteNumber":32,"Velocity":32,"Duration":174392,"SoundDuration":174392,"Delta":202564471},{"NoteNumber":41,"Velocity":38,"Duration":174392,"SoundDuration":174392,"Delta":202564471},{"NoteNumber":42,"Velocity":38,"Duration":178166,"SoundDuration":178166,"Delta":202738864},{"NoteNumber":38,"Velocity":32,"Duration":178166,"SoundDuration":178166,"Delta":202738864},{"NoteNumber":33,"Velocity":32,"Duration":178166,"SoundDuration":178166,"Delta":202738864},{"NoteNumber":34,"Velocity":31,"Duration":182225,"SoundDuration":182225,"Delta":202917030},{"NoteNumber":43,"Velocity":36,"Duration":182225,"SoundDuration":182225,"Delta":202917030},{"NoteNumber":39,"Velocity":31,"Duration":182225,"SoundDuration":182225,"Delta":202917030},{"NoteNumber":40,"Velocity":38,"Duration":186472,"SoundDuration":186472,"Delta":203099255},{"NoteNumber":35,"Velocity":32,"Duration":377396,"SoundDuration":377396,"Delta":203099255},{"NoteNumber":44,"Velocity":38,"Duration":377396,"SoundDuration":377396,"Delta":203099255},{"NoteNumber":41,"Velocity":37,"Duration":190923,"SoundDuration":190923,"Delta":203285728},{"NoteNumber":25,"Velocity":31,"Duration":386514,"SoundDuration":386514,"Delta":203285728},{"NoteNumber":43,"Velocity":37,"Duration":787920,"SoundDuration":787920,"Delta":203476651},{"NoteNumber":36,"Velocity":38,"Duration":592328,"SoundDuration":592328,"Delta":203672243},{"NoteNumber":24,"Velocity":38,"Duration":592328,"SoundDuration":592328,"Delta":203672243},{"NoteNumber":40,"Velocity":38,"Duration":592328,"SoundDuration":592328,"Delta":203672243},{"NoteNumber":60,"Velocity":48,"Duration":445929,"SoundDuration":445929,"Delta":204264572},{"NoteNumber":48,"Velocity":38,"Duration":280496,"SoundDuration":280496,"Delta":204264572},{"NoteNumber":55,"Velocity":32,"Duration":148307,"SoundDuration":148307,"Delta":204415225},{"NoteNumber":52,"Velocity":27,"Duration":148307,"SoundDuration":148307,"Delta":204415225},{"NoteNumber":36,"Velocity":27,"Duration":146968,"SoundDuration":146968,"Delta":204563532},{"NoteNumber":48,"Velocity":32,"Duration":146968,"SoundDuration":146968,"Delta":204563532},{"NoteNumber":61,"Velocity":49,"Duration":432930,"SoundDuration":432930,"Delta":204710501},{"NoteNumber":49,"Velocity":40,"Duration":432930,"SoundDuration":432930,"Delta":204710501},{"NoteNumber":53,"Velocity":29,"Duration":144317,"SoundDuration":144317,"Delta":204856109},{"NoteNumber":56,"Velocity":35,"Duration":144317,"SoundDuration":144317,"Delta":204856109},{"NoteNumber":35,"Velocity":29,"Duration":143005,"SoundDuration":143005,"Delta":205000427},{"NoteNumber":47,"Velocity":35,"Duration":143005,"SoundDuration":143005,"Delta":205000427},{"NoteNumber":62,"Velocity":52,"Duration":422863,"SoundDuration":422863,"Delta":205143432},{"NoteNumber":50,"Velocity":41,"Duration":422863,"SoundDuration":422863,"Delta":205143432},{"NoteNumber":56,"Velocity":34,"Duration":141442,"SoundDuration":141442,"Delta":205285120},{"NoteNumber":53,"Velocity":29,"Duration":141442,"SoundDuration":141442,"Delta":205285120},{"NoteNumber":46,"Velocity":34,"Duration":139733,"SoundDuration":139733,"Delta":205426562},{"NoteNumber":34,"Velocity":29,"Duration":139733,"SoundDuration":139733,"Delta":205426562},{"NoteNumber":63,"Velocity":53,"Duration":403925,"SoundDuration":403925,"Delta":205566295},{"NoteNumber":51,"Velocity":45,"Duration":403925,"SoundDuration":403925,"Delta":205566295},{"NoteNumber":58,"Velocity":38,"Duration":134771,"SoundDuration":134771,"Delta":205701066},{"NoteNumber":55,"Velocity":32,"Duration":134771,"SoundDuration":134771,"Delta":205701066},{"NoteNumber":39,"Velocity":39,"Duration":134383,"SoundDuration":134383,"Delta":205835837},{"NoteNumber":27,"Velocity":32,"Duration":134383,"SoundDuration":134383,"Delta":205835837},{"NoteNumber":64,"Velocity":57,"Duration":402210,"SoundDuration":402210,"Delta":205970221},{"NoteNumber":52,"Velocity":46,"Duration":402210,"SoundDuration":402210,"Delta":205970221},{"NoteNumber":59,"Velocity":39,"Duration":134023,"SoundDuration":134023,"Delta":206104539},{"NoteNumber":56,"Velocity":32,"Duration":134023,"SoundDuration":134023,"Delta":206104539},{"NoteNumber":38,"Velocity":32,"Duration":133868,"SoundDuration":133868,"Delta":206238562},{"NoteNumber":50,"Velocity":39,"Duration":133868,"SoundDuration":133868,"Delta":206238562},{"NoteNumber":65,"Velocity":58,"Duration":400574,"SoundDuration":400574,"Delta":206372431},{"NoteNumber":53,"Velocity":46,"Duration":400574,"SoundDuration":400574,"Delta":206372431},{"NoteNumber":59,"Velocity":41,"Duration":133422,"SoundDuration":133422,"Delta":206506185},{"NoteNumber":56,"Velocity":34,"Duration":133422,"SoundDuration":133422,"Delta":206506185},{"NoteNumber":49,"Velocity":43,"Duration":133397,"SoundDuration":133397,"Delta":206639608},{"NoteNumber":37,"Velocity":36,"Duration":133397,"SoundDuration":133397,"Delta":206639608},{"NoteNumber":66,"Velocity":61,"Duration":398558,"SoundDuration":398558,"Delta":206773005},{"NoteNumber":54,"Velocity":49,"Duration":398558,"SoundDuration":398558,"Delta":206773005},{"NoteNumber":61,"Velocity":43,"Duration":132978,"SoundDuration":132978,"Delta":206905984},{"NoteNumber":58,"Velocity":36,"Duration":132978,"SoundDuration":132978,"Delta":206905984},{"NoteNumber":30,"Velocity":36,"Duration":132601,"SoundDuration":132601,"Delta":207038962},{"NoteNumber":42,"Velocity":44,"Duration":132601,"SoundDuration":132601,"Delta":207038962},{"NoteNumber":67,"Velocity":65,"Duration":397613,"SoundDuration":397613,"Delta":207171564},{"NoteNumber":55,"Velocity":52,"Duration":397613,"SoundDuration":397613,"Delta":207171564},{"NoteNumber":62,"Velocity":46,"Duration":132538,"SoundDuration":132538,"Delta":207304102},{"NoteNumber":59,"Velocity":39,"Duration":132538,"SoundDuration":132538,"Delta":207304102},{"NoteNumber":29,"Velocity":39,"Duration":132537,"SoundDuration":132537,"Delta":207436640},{"NoteNumber":41,"Velocity":46,"Duration":132537,"SoundDuration":132537,"Delta":207436640},{"NoteNumber":68,"Velocity":66,"Duration":397390,"SoundDuration":397390,"Delta":207569178},{"NoteNumber":56,"Velocity":53,"Duration":397390,"SoundDuration":397390,"Delta":207569178},{"NoteNumber":59,"Velocity":38,"Duration":132538,"SoundDuration":132538,"Delta":207701716},{"NoteNumber":62,"Velocity":46,"Duration":132538,"SoundDuration":132538,"Delta":207701716},{"NoteNumber":28,"Velocity":39,"Duration":132314,"SoundDuration":132314,"Delta":207834254},{"NoteNumber":40,"Velocity":46,"Duration":132314,"SoundDuration":132314,"Delta":207834254},{"NoteNumber":69,"Velocity":69,"Duration":394996,"SoundDuration":394996,"Delta":207966568},{"NoteNumber":57,"Velocity":55,"Duration":394996,"SoundDuration":394996,"Delta":207966568},{"NoteNumber":61,"Velocity":39,"Duration":131665,"SoundDuration":131665,"Delta":208098234},{"NoteNumber":64,"Velocity":47,"Duration":131665,"SoundDuration":131665,"Delta":208098234},{"NoteNumber":33,"Velocity":40,"Duration":131665,"SoundDuration":131665,"Delta":208229899},{"NoteNumber":45,"Velocity":48,"Duration":131665,"SoundDuration":131665,"Delta":208229899},{"NoteNumber":70,"Velocity":71,"Duration":394997,"SoundDuration":394997,"Delta":208361565},{"NoteNumber":58,"Velocity":56,"Duration":394997,"SoundDuration":394997,"Delta":208361565},{"NoteNumber":65,"Velocity":51,"Duration":131665,"SoundDuration":131665,"Delta":208493231},{"NoteNumber":62,"Velocity":43,"Duration":131665,"SoundDuration":131665,"Delta":208493231},{"NoteNumber":33,"Velocity":44,"Duration":131665,"SoundDuration":131665,"Delta":208624896},{"NoteNumber":45,"Velocity":52,"Duration":131665,"SoundDuration":131665,"Delta":208624896},{"NoteNumber":71,"Velocity":75,"Duration":397836,"SoundDuration":397836,"Delta":208756562},{"NoteNumber":59,"Velocity":59,"Duration":397836,"SoundDuration":397836,"Delta":208756562},{"NoteNumber":63,"Velocity":44,"Duration":132588,"SoundDuration":132588,"Delta":208888426},{"NoteNumber":66,"Velocity":53,"Duration":132588,"SoundDuration":132588,"Delta":208888426},{"NoteNumber":45,"Velocity":53,"Duration":133384,"SoundDuration":133384,"Delta":209021014},{"NoteNumber":33,"Velocity":45,"Duration":133384,"SoundDuration":133384,"Delta":209021014},{"NoteNumber":72,"Velocity":78,"Duration":404998,"SoundDuration":404998,"Delta":209154398},{"NoteNumber":60,"Velocity":61,"Duration":404998,"SoundDuration":404998,"Delta":209154398},{"NoteNumber":67,"Velocity":54,"Duration":134978,"SoundDuration":134978,"Delta":209288588},{"NoteNumber":64,"Velocity":46,"Duration":134978,"SoundDuration":134978,"Delta":209288588},{"NoteNumber":45,"Velocity":55,"Duration":135830,"SoundDuration":135830,"Delta":209423566},{"NoteNumber":33,"Velocity":46,"Duration":135830,"SoundDuration":135830,"Delta":209423566},{"NoteNumber":61,"Velocity":70,"Duration":219779,"SoundDuration":219779,"Delta":209559397},{"NoteNumber":73,"Velocity":80,"Duration":219779,"SoundDuration":219779,"Delta":209559397},{"NoteNumber":45,"Velocity":54,"Duration":219779,"SoundDuration":219779,"Delta":209559397},{"NoteNumber":55,"Velocity":64,"Duration":219779,"SoundDuration":219779,"Delta":209559397},{"NoteNumber":52,"Velocity":54,"Duration":219779,"SoundDuration":219779,"Delta":209559397},{"NoteNumber":58,"Velocity":68,"Duration":786051,"SoundDuration":786051,"Delta":209996209},{"NoteNumber":70,"Velocity":75,"Duration":785648,"SoundDuration":785648,"Delta":209998957},{"NoteNumber":82,"Velocity":90,"Duration":785648,"SoundDuration":785648,"Delta":209998957},{"NoteNumber":46,"Velocity":57,"Duration":785573,"SoundDuration":785573,"Delta":209999813},{"NoteNumber":69,"Velocity":55,"Duration":125213,"SoundDuration":125213,"Delta":210659392},{"NoteNumber":81,"Velocity":66,"Duration":125213,"SoundDuration":125213,"Delta":210659392},{"NoteNumber":57,"Velocity":50,"Duration":125210,"SoundDuration":125210,"Delta":210660175},{"NoteNumber":45,"Velocity":40,"Duration":125208,"SoundDuration":125208,"Delta":210660959},{"NoteNumber":43,"Velocity":40,"Duration":124586,"SoundDuration":124586,"Delta":210781480},{"NoteNumber":55,"Velocity":48,"Duration":124586,"SoundDuration":124586,"Delta":210781480},{"NoteNumber":67,"Velocity":53,"Duration":124567,"SoundDuration":124567,"Delta":210784605},{"NoteNumber":79,"Velocity":63,"Duration":124567,"SoundDuration":124567,"Delta":210784605},{"NoteNumber":41,"Velocity":40,"Duration":123976,"SoundDuration":123976,"Delta":210907620},{"NoteNumber":65,"Velocity":53,"Duration":123973,"SoundDuration":123973,"Delta":210908396},{"NoteNumber":77,"Velocity":63,"Duration":123971,"SoundDuration":123971,"Delta":210909172},{"NoteNumber":53,"Velocity":48,"Duration":123959,"SoundDuration":123959,"Delta":210913054},{"NoteNumber":40,"Velocity":44,"Duration":123433,"SoundDuration":123433,"Delta":211030048},{"NoteNumber":76,"Velocity":70,"Duration":123414,"SoundDuration":123414,"Delta":211033144},{"NoteNumber":64,"Velocity":59,"Duration":123414,"SoundDuration":123414,"Delta":211033144},{"NoteNumber":52,"Velocity":52,"Duration":123390,"SoundDuration":123390,"Delta":211037014},{"NoteNumber":62,"Velocity":55,"Duration":122836,"SoundDuration":122836,"Delta":211154250},{"NoteNumber":38,"Velocity":40,"Duration":122829,"SoundDuration":122829,"Delta":211156558},{"NoteNumber":74,"Velocity":65,"Duration":122829,"SoundDuration":122829,"Delta":211156558},{"NoteNumber":50,"Velocity":50,"Duration":122826,"SoundDuration":122826,"Delta":211157327},{"NoteNumber":37,"Velocity":46,"Duration":122296,"SoundDuration":122296,"Delta":211277086},{"NoteNumber":73,"Velocity":73,"Duration":122282,"SoundDuration":122282,"Delta":211279387},{"NoteNumber":61,"Velocity":62,"Duration":122282,"SoundDuration":122282,"Delta":211279387},{"NoteNumber":49,"Velocity":55,"Duration":122268,"SoundDuration":122268,"Delta":211281688},{"NoteNumber":76,"Velocity":65,"Duration":121687,"SoundDuration":121687,"Delta":211401670},{"NoteNumber":64,"Velocity":55,"Duration":121687,"SoundDuration":121687,"Delta":211401670},{"NoteNumber":40,"Velocity":40,"Duration":121654,"SoundDuration":121654,"Delta":211403956},{"NoteNumber":52,"Velocity":50,"Duration":121654,"SoundDuration":121654,"Delta":211403956},{"NoteNumber":48,"Velocity":52,"Duration":121251,"SoundDuration":121251,"Delta":211521084},{"NoteNumber":36,"Velocity":44,"Duration":121294,"SoundDuration":121294,"Delta":211522599},{"NoteNumber":72,"Velocity":72,"Duration":121316,"SoundDuration":121316,"Delta":211523357},{"NoteNumber":60,"Velocity":60,"Duration":121316,"SoundDuration":121316,"Delta":211523357},{"NoteNumber":76,"Velocity":65,"Duration":127877,"SoundDuration":127877,"Delta":211644673},{"NoteNumber":64,"Velocity":55,"Duration":127877,"SoundDuration":127877,"Delta":211644673},{"NoteNumber":52,"Velocity":50,"Duration":127877,"SoundDuration":127877,"Delta":211644673},{"NoteNumber":40,"Velocity":40,"Duration":127926,"SoundDuration":127926,"Delta":211645453},{"NoteNumber":47,"Velocity":52,"Duration":132538,"SoundDuration":132538,"Delta":211770894},{"NoteNumber":59,"Velocity":60,"Duration":132538,"SoundDuration":132538,"Delta":211772550},{"NoteNumber":71,"Velocity":72,"Duration":132538,"SoundDuration":132538,"Delta":211772550},{"NoteNumber":35,"Velocity":44,"Duration":132538,"SoundDuration":132538,"Delta":211772550},{"NoteNumber":52,"Velocity":50,"Duration":124275,"SoundDuration":124275,"Delta":211904260},{"NoteNumber":76,"Velocity":65,"Duration":124223,"SoundDuration":124223,"Delta":211905088},{"NoteNumber":64,"Velocity":55,"Duration":124223,"SoundDuration":124223,"Delta":211905088},{"NoteNumber":40,"Velocity":40,"Duration":124223,"SoundDuration":124223,"Delta":211906641},{"NoteNumber":34,"Velocity":44,"Duration":124223,"SoundDuration":124223,"Delta":212028536},{"NoteNumber":58,"Velocity":60,"Duration":124223,"SoundDuration":124223,"Delta":212029312},{"NoteNumber":70,"Velocity":72,"Duration":124223,"SoundDuration":124223,"Delta":212029312},{"NoteNumber":46,"Velocity":52,"Duration":124480,"SoundDuration":124480,"Delta":212033194},{"NoteNumber":76,"Velocity":66,"Duration":132450,"SoundDuration":132450,"Delta":212153536},{"NoteNumber":64,"Velocity":55,"Duration":132450,"SoundDuration":132450,"Delta":212153536},{"NoteNumber":40,"Velocity":40,"Duration":132843,"SoundDuration":132843,"Delta":212157675},{"NoteNumber":52,"Velocity":50,"Duration":132843,"SoundDuration":132843,"Delta":212157675},{"NoteNumber":45,"Velocity":52,"Duration":217391,"SoundDuration":217391,"Delta":212284330},{"NoteNumber":57,"Velocity":60,"Duration":217548,"SoundDuration":217548,"Delta":212285986},{"NoteNumber":69,"Velocity":72,"Duration":217548,"SoundDuration":217548,"Delta":212285986},{"NoteNumber":33,"Velocity":44,"Duration":217549,"SoundDuration":217549,"Delta":212288705},{"NoteNumber":73,"Velocity":75,"Duration":251576,"SoundDuration":251576,"Delta":212721084},{"NoteNumber":85,"Velocity":90,"Duration":251576,"SoundDuration":251576,"Delta":212721084},{"NoteNumber":49,"Velocity":57,"Duration":251320,"SoundDuration":251320,"Delta":212722897},{"NoteNumber":61,"Velocity":68,"Duration":250937,"SoundDuration":250937,"Delta":212725616},{"NoteNumber":46,"Velocity":40,"Duration":124441,"SoundDuration":124441,"Delta":212970324},{"NoteNumber":82,"Velocity":66,"Duration":124434,"SoundDuration":124434,"Delta":212972660},{"NoteNumber":70,"Velocity":55,"Duration":124434,"SoundDuration":124434,"Delta":212972660},{"NoteNumber":58,"Velocity":50,"Duration":124429,"SoundDuration":124429,"Delta":212974218},{"NoteNumber":57,"Velocity":48,"Duration":123815,"SoundDuration":123815,"Delta":213093989},{"NoteNumber":81,"Velocity":63,"Duration":123796,"SoundDuration":123796,"Delta":213097094},{"NoteNumber":69,"Velocity":53,"Duration":123796,"SoundDuration":123796,"Delta":213097094},{"NoteNumber":45,"Velocity":40,"Duration":123796,"SoundDuration":123796,"Delta":213097094},{"NoteNumber":55,"Velocity":48,"Duration":123292,"SoundDuration":123292,"Delta":213217804},{"NoteNumber":79,"Velocity":63,"Duration":123283,"SoundDuration":123283,"Delta":213220891},{"NoteNumber":67,"Velocity":53,"Duration":123283,"SoundDuration":123283,"Delta":213220891},{"NoteNumber":43,"Velocity":40,"Duration":123271,"SoundDuration":123271,"Delta":213224749},{"NoteNumber":41,"Velocity":44,"Duration":122732,"SoundDuration":122732,"Delta":213344174},{"NoteNumber":65,"Velocity":59,"Duration":122732,"SoundDuration":122732,"Delta":213344174},{"NoteNumber":77,"Velocity":70,"Duration":122732,"SoundDuration":122732,"Delta":213344174},{"NoteNumber":53,"Velocity":52,"Duration":122713,"SoundDuration":122713,"Delta":213347251},{"NoteNumber":76,"Velocity":72,"Duration":122153,"SoundDuration":122153,"Delta":213466907},{"NoteNumber":64,"Velocity":60,"Duration":122153,"SoundDuration":122153,"Delta":213466907},{"NoteNumber":40,"Velocity":46,"Duration":122144,"SoundDuration":122144,"Delta":213469965},{"NoteNumber":52,"Velocity":55,"Duration":122144,"SoundDuration":122144,"Delta":213469965},{"NoteNumber":43,"Velocity":38,"Duration":121617,"SoundDuration":121617,"Delta":213588298},{"NoteNumber":55,"Velocity":46,"Duration":121613,"SoundDuration":121613,"Delta":213589061},{"NoteNumber":79,"Velocity":65,"Duration":121613,"SoundDuration":121613,"Delta":213589061},{"NoteNumber":67,"Velocity":55,"Duration":121613,"SoundDuration":121613,"Delta":213589061},{"NoteNumber":39,"Velocity":48,"Duration":121054,"SoundDuration":121054,"Delta":213707644},{"NoteNumber":63,"Velocity":60,"Duration":121045,"SoundDuration":121045,"Delta":213710674},{"NoteNumber":75,"Velocity":72,"Duration":121045,"SoundDuration":121045,"Delta":213710674},{"NoteNumber":51,"Velocity":57,"Duration":121033,"SoundDuration":121033,"Delta":213714462},{"NoteNumber":55,"Velocity":52,"Duration":119412,"SoundDuration":119412,"Delta":213827942},{"NoteNumber":43,"Velocity":36,"Duration":119387,"SoundDuration":119387,"Delta":213830964},{"NoteNumber":67,"Velocity":52,"Duration":119381,"SoundDuration":119381,"Delta":213831719},{"NoteNumber":79,"Velocity":62,"Duration":119381,"SoundDuration":119381,"Delta":213831719},{"NoteNumber":50,"Velocity":58,"Duration":122107,"SoundDuration":122107,"Delta":213947355},{"NoteNumber":74,"Velocity":73,"Duration":122209,"SoundDuration":122209,"Delta":213951100},{"NoteNumber":62,"Velocity":62,"Duration":122209,"SoundDuration":122209,"Delta":213951100},{"NoteNumber":38,"Velocity":50,"Duration":122245,"SoundDuration":122245,"Delta":213952602},{"NoteNumber":43,"Velocity":38,"Duration":123076,"SoundDuration":123076,"Delta":214071771},{"NoteNumber":55,"Velocity":48,"Duration":123076,"SoundDuration":123076,"Delta":214072540},{"NoteNumber":67,"Velocity":52,"Duration":123076,"SoundDuration":123076,"Delta":214073309},{"NoteNumber":79,"Velocity":62,"Duration":123076,"SoundDuration":123076,"Delta":214073309},{"NoteNumber":61,"Velocity":60,"Duration":119760,"SoundDuration":119760,"Delta":214196386},{"NoteNumber":73,"Velocity":72,"Duration":119760,"SoundDuration":119760,"Delta":214196386},{"NoteNumber":37,"Velocity":50,"Duration":119760,"SoundDuration":119760,"Delta":214198632},{"NoteNumber":49,"Velocity":58,"Duration":119760,"SoundDuration":119760,"Delta":214199380},{"NoteNumber":67,"Velocity":53,"Duration":124396,"SoundDuration":124396,"Delta":214316147},{"NoteNumber":79,"Velocity":63,"Duration":124396,"SoundDuration":124396,"Delta":214316147},{"NoteNumber":55,"Velocity":48,"Duration":124672,"SoundDuration":124672,"Delta":214317644},{"NoteNumber":43,"Velocity":38,"Duration":124948,"SoundDuration":124948,"Delta":214319141},{"NoteNumber":34,"Velocity":50,"Duration":141523,"SoundDuration":141523,"Delta":214437317},{"NoteNumber":70,"Velocity":64,"Duration":141843,"SoundDuration":141843,"Delta":214440543},{"NoteNumber":58,"Velocity":48,"Duration":141843,"SoundDuration":141843,"Delta":214440543},{"NoteNumber":46,"Velocity":58,"Duration":142222,"SoundDuration":142222,"Delta":214444976},{"NoteNumber":79,"Velocity":73,"Duration":115473,"SoundDuration":115473,"Delta":214582387},{"NoteNumber":67,"Velocity":58,"Duration":115473,"SoundDuration":115473,"Delta":214582387},{"NoteNumber":43,"Velocity":36,"Duration":115473,"SoundDuration":115473,"Delta":214584312},{"NoteNumber":55,"Velocity":45,"Duration":115473,"SoundDuration":115473,"Delta":214586236},{"NoteNumber":57,"Velocity":63,"Duration":107991,"SoundDuration":107991,"Delta":214813334},{"NoteNumber":69,"Velocity":75,"Duration":107991,"SoundDuration":107991,"Delta":214813334},{"NoteNumber":45,"Velocity":55,"Duration":107991,"SoundDuration":107991,"Delta":214814234},{"NoteNumber":33,"Velocity":46,"Duration":107991,"SoundDuration":107991,"Delta":214816934},{"NoteNumber":52,"Velocity":57,"Duration":257438,"SoundDuration":257438,"Delta":215022700},{"NoteNumber":76,"Velocity":75,"Duration":257376,"SoundDuration":257376,"Delta":215025143},{"NoteNumber":88,"Velocity":90,"Duration":257376,"SoundDuration":257376,"Delta":215025143},{"NoteNumber":64,"Velocity":68,"Duration":257570,"SoundDuration":257570,"Delta":215029202},{"NoteNumber":50,"Velocity":40,"Duration":135577,"SoundDuration":135577,"Delta":215278552},{"NoteNumber":74,"Velocity":55,"Duration":135667,"SoundDuration":135667,"Delta":215282520},{"NoteNumber":86,"Velocity":66,"Duration":135667,"SoundDuration":135667,"Delta":215282520},{"NoteNumber":62,"Velocity":50,"Duration":135513,"SoundDuration":135513,"Delta":215285921},{"NoteNumber":85,"Velocity":63,"Duration":129869,"SoundDuration":129869,"Delta":215418188},{"NoteNumber":73,"Velocity":53,"Duration":129869,"SoundDuration":129869,"Delta":215418188},{"NoteNumber":49,"Velocity":40,"Duration":129870,"SoundDuration":129870,"Delta":215420623},{"NoteNumber":61,"Velocity":48,"Duration":129869,"SoundDuration":129869,"Delta":215422246},{"NoteNumber":46,"Velocity":40,"Duration":129869,"SoundDuration":129869,"Delta":215545623},{"NoteNumber":58,"Velocity":48,"Duration":129870,"SoundDuration":129870,"Delta":215546435},{"NoteNumber":82,"Velocity":63,"Duration":129870,"SoundDuration":129870,"Delta":215548058},{"NoteNumber":70,"Velocity":53,"Duration":129870,"SoundDuration":129870,"Delta":215548058},{"NoteNumber":81,"Velocity":70,"Duration":129869,"SoundDuration":129869,"Delta":215677928},{"NoteNumber":69,"Velocity":59,"Duration":129869,"SoundDuration":129869,"Delta":215677928},{"NoteNumber":45,"Velocity":44,"Duration":129869,"SoundDuration":129869,"Delta":215677928},{"NoteNumber":57,"Velocity":52,"Duration":129870,"SoundDuration":129870,"Delta":215681986},{"NoteNumber":55,"Velocity":49,"Duration":129870,"SoundDuration":129870,"Delta":215804551},{"NoteNumber":67,"Velocity":58,"Duration":129869,"SoundDuration":129869,"Delta":215806175},{"NoteNumber":79,"Velocity":64,"Duration":129870,"SoundDuration":129870,"Delta":215807798},{"NoteNumber":91,"Velocity":77,"Duration":129870,"SoundDuration":129870,"Delta":215807798},{"NoteNumber":65,"Velocity":53,"Duration":129870,"SoundDuration":129870,"Delta":215936856},{"NoteNumber":89,"Velocity":72,"Duration":129870,"SoundDuration":129870,"Delta":215937668},{"NoteNumber":77,"Velocity":61,"Duration":129870,"SoundDuration":129870,"Delta":215937668},{"NoteNumber":53,"Velocity":46,"Duration":129958,"SoundDuration":129958,"Delta":215939291},{"NoteNumber":64,"Velocity":53,"Duration":136763,"SoundDuration":136763,"Delta":216063479},{"NoteNumber":52,"Velocity":45,"Duration":136986,"SoundDuration":136986,"Delta":216067538},{"NoteNumber":88,"Velocity":71,"Duration":136986,"SoundDuration":136986,"Delta":216067538},{"NoteNumber":76,"Velocity":60,"Duration":136986,"SoundDuration":136986,"Delta":216067538},{"NoteNumber":50,"Velocity":44,"Duration":129181,"SoundDuration":129181,"Delta":216201956},{"NoteNumber":62,"Velocity":51,"Duration":129082,"SoundDuration":129082,"Delta":216203668},{"NoteNumber":86,"Velocity":68,"Duration":129032,"SoundDuration":129032,"Delta":216204524},{"NoteNumber":74,"Velocity":57,"Duration":129032,"SoundDuration":129032,"Delta":216204524},{"NoteNumber":61,"Velocity":51,"Duration":129032,"SoundDuration":129032,"Delta":216330331},{"NoteNumber":49,"Velocity":44,"Duration":129032,"SoundDuration":129032,"Delta":216332750},{"NoteNumber":73,"Velocity":57,"Duration":129032,"SoundDuration":129032,"Delta":216333557},{"NoteNumber":85,"Velocity":68,"Duration":129032,"SoundDuration":129032,"Delta":216333557},{"NoteNumber":70,"Velocity":57,"Duration":129032,"SoundDuration":129032,"Delta":216461782},{"NoteNumber":94,"Velocity":75,"Duration":129032,"SoundDuration":129032,"Delta":216462589},{"NoteNumber":82,"Velocity":63,"Duration":129032,"SoundDuration":129032,"Delta":216462589},{"NoteNumber":58,"Velocity":48,"Duration":129032,"SoundDuration":129032,"Delta":216466621},{"NoteNumber":93,"Velocity":77,"Duration":129032,"SoundDuration":129032,"Delta":216591621},{"NoteNumber":81,"Velocity":64,"Duration":129032,"SoundDuration":129032,"Delta":216591621},{"NoteNumber":69,"Velocity":58,"Duration":129102,"SoundDuration":129102,"Delta":216593234},{"NoteNumber":57,"Velocity":49,"Duration":129138,"SoundDuration":129138,"Delta":216594041},{"NoteNumber":67,"Velocity":57,"Duration":134538,"SoundDuration":134538,"Delta":216717428},{"NoteNumber":91,"Velocity":75,"Duration":134680,"SoundDuration":134680,"Delta":216720654},{"NoteNumber":79,"Velocity":63,"Duration":134680,"SoundDuration":134680,"Delta":216720654},{"NoteNumber":55,"Velocity":48,"Duration":134490,"SoundDuration":134490,"Delta":216724862},{"NoteNumber":65,"Velocity":55,"Duration":128655,"SoundDuration":128655,"Delta":216854492},{"NoteNumber":77,"Velocity":62,"Duration":128617,"SoundDuration":128617,"Delta":216855334},{"NoteNumber":89,"Velocity":73,"Duration":128617,"SoundDuration":128617,"Delta":216855334},{"NoteNumber":53,"Velocity":47,"Duration":128617,"SoundDuration":128617,"Delta":216856137},{"NoteNumber":88,"Velocity":72,"Duration":128617,"SoundDuration":128617,"Delta":216983951},{"NoteNumber":76,"Velocity":61,"Duration":128617,"SoundDuration":128617,"Delta":216983951},{"NoteNumber":64,"Velocity":53,"Duration":128617,"SoundDuration":128617,"Delta":216983951},{"NoteNumber":52,"Velocity":46,"Duration":128617,"SoundDuration":128617,"Delta":216983951},{"NoteNumber":100,"Velocity":84,"Duration":128617,"SoundDuration":128617,"Delta":217112568},{"NoteNumber":88,"Velocity":71,"Duration":128617,"SoundDuration":128617,"Delta":217112568},{"NoteNumber":64,"Velocity":53,"Duration":128617,"SoundDuration":128617,"Delta":217113372},{"NoteNumber":76,"Velocity":64,"Duration":128617,"SoundDuration":128617,"Delta":217113372},{"NoteNumber":74,"Velocity":62,"Duration":128594,"SoundDuration":128594,"Delta":217240382},{"NoteNumber":86,"Velocity":69,"Duration":128591,"SoundDuration":128591,"Delta":217241186},{"NoteNumber":98,"Velocity":82,"Duration":128591,"SoundDuration":128591,"Delta":217241186},{"NoteNumber":62,"Velocity":51,"Duration":128583,"SoundDuration":128583,"Delta":217243597},{"NoteNumber":73,"Velocity":59,"Duration":128187,"SoundDuration":128187,"Delta":217367373},{"NoteNumber":97,"Velocity":78,"Duration":128179,"SoundDuration":128179,"Delta":217369777},{"NoteNumber":85,"Velocity":65,"Duration":128179,"SoundDuration":128179,"Delta":217369777},{"NoteNumber":61,"Velocity":50,"Duration":128179,"SoundDuration":128179,"Delta":217369777},{"NoteNumber":82,"Velocity":67,"Duration":127719,"SoundDuration":127719,"Delta":217497957},{"NoteNumber":94,"Velocity":79,"Duration":127719,"SoundDuration":127719,"Delta":217497957},{"NoteNumber":70,"Velocity":60,"Duration":127709,"SoundDuration":127709,"Delta":217501151},{"NoteNumber":58,"Velocity":51,"Duration":127706,"SoundDuration":127706,"Delta":217501950},{"NoteNumber":69,"Velocity":59,"Duration":127272,"SoundDuration":127272,"Delta":217622491},{"NoteNumber":93,"Velocity":78,"Duration":127262,"SoundDuration":127262,"Delta":217625676},{"NoteNumber":81,"Velocity":66,"Duration":127262,"SoundDuration":127262,"Delta":217625676},{"NoteNumber":57,"Velocity":50,"Duration":127249,"SoundDuration":127249,"Delta":217629657},{"NoteNumber":70,"Velocity":53,"Duration":126860,"SoundDuration":126860,"Delta":217752144},{"NoteNumber":82,"Velocity":61,"Duration":126858,"SoundDuration":126858,"Delta":217752938},{"NoteNumber":94,"Velocity":72,"Duration":126858,"SoundDuration":126858,"Delta":217752938},{"NoteNumber":58,"Velocity":46,"Duration":126848,"SoundDuration":126848,"Delta":217756113},{"NoteNumber":79,"Velocity":63,"Duration":126407,"SoundDuration":126407,"Delta":217879797},{"NoteNumber":91,"Velocity":76,"Duration":126407,"SoundDuration":126407,"Delta":217879797},{"NoteNumber":55,"Velocity":48,"Duration":126405,"SoundDuration":126405,"Delta":217880588},{"NoteNumber":67,"Velocity":57,"Duration":126402,"SoundDuration":126402,"Delta":217881379},{"NoteNumber":70,"Velocity":52,"Duration":125959,"SoundDuration":125959,"Delta":218006204},{"NoteNumber":94,"Velocity":70,"Duration":125959,"SoundDuration":125959,"Delta":218006204},{"NoteNumber":82,"Velocity":59,"Duration":125959,"SoundDuration":125959,"Delta":218006204},{"NoteNumber":58,"Velocity":45,"Duration":125957,"SoundDuration":125957,"Delta":218006993},{"NoteNumber":53,"Velocity":48,"Duration":125576,"SoundDuration":125576,"Delta":218128233},{"NoteNumber":77,"Velocity":63,"Duration":125564,"SoundDuration":125564,"Delta":218132164},{"NoteNumber":89,"Velocity":76,"Duration":125564,"SoundDuration":125564,"Delta":218132164},{"NoteNumber":65,"Velocity":57,"Duration":125559,"SoundDuration":125559,"Delta":218133736},{"NoteNumber":91,"Velocity":70,"Duration":125122,"SoundDuration":125122,"Delta":218257728},{"NoteNumber":79,"Velocity":70,"Duration":125122,"SoundDuration":125122,"Delta":218257728},{"NoteNumber":55,"Velocity":52,"Duration":125115,"SoundDuration":125115,"Delta":218260079},{"NoteNumber":67,"Velocity":52,"Duration":125112,"SoundDuration":125112,"Delta":218260863},{"NoteNumber":64,"Velocity":57,"Duration":124693,"SoundDuration":124693,"Delta":218379726},{"NoteNumber":76,"Velocity":63,"Duration":124683,"SoundDuration":124683,"Delta":218382851},{"NoteNumber":88,"Velocity":76,"Duration":124683,"SoundDuration":124683,"Delta":218382851},{"NoteNumber":52,"Velocity":48,"Duration":124673,"SoundDuration":124673,"Delta":218385976},{"NoteNumber":55,"Velocity":52,"Duration":124303,"SoundDuration":124303,"Delta":218505198},{"NoteNumber":67,"Velocity":52,"Duration":124301,"SoundDuration":124301,"Delta":218505977},{"NoteNumber":91,"Velocity":70,"Duration":124296,"SoundDuration":124296,"Delta":218507534},{"NoteNumber":79,"Velocity":70,"Duration":124296,"SoundDuration":124296,"Delta":218507534},{"NoteNumber":50,"Velocity":48,"Duration":123843,"SoundDuration":123843,"Delta":218631054},{"NoteNumber":62,"Velocity":57,"Duration":123843,"SoundDuration":123843,"Delta":218631054},{"NoteNumber":86,"Velocity":76,"Duration":123839,"SoundDuration":123839,"Delta":218631831},{"NoteNumber":74,"Velocity":63,"Duration":123839,"SoundDuration":123839,"Delta":218631831},{"NoteNumber":52,"Velocity":45,"Duration":123392,"SoundDuration":123392,"Delta":218753355},{"NoteNumber":76,"Velocity":60,"Duration":123385,"SoundDuration":123385,"Delta":218755670},{"NoteNumber":88,"Velocity":71,"Duration":123385,"SoundDuration":123385,"Delta":218755670},{"NoteNumber":64,"Velocity":52,"Duration":123375,"SoundDuration":123375,"Delta":218758756},{"NoteNumber":85,"Velocity":77,"Duration":123076,"SoundDuration":123076,"Delta":218879055},{"NoteNumber":73,"Velocity":64,"Duration":123076,"SoundDuration":123076,"Delta":218879055},{"NoteNumber":49,"Velocity":48,"Duration":123076,"SoundDuration":123076,"Delta":218879825},{"NoteNumber":61,"Velocity":58,"Duration":123076,"SoundDuration":123076,"Delta":218882901},{"NoteNumber":52,"Velocity":46,"Duration":123076,"SoundDuration":123076,"Delta":219000594},{"NoteNumber":88,"Velocity":73,"Duration":123076,"SoundDuration":123076,"Delta":219002132},{"NoteNumber":76,"Velocity":61,"Duration":123076,"SoundDuration":123076,"Delta":219002132},{"NoteNumber":64,"Velocity":55,"Duration":123076,"SoundDuration":123076,"Delta":219002132},{"NoteNumber":46,"Velocity":49,"Duration":123076,"SoundDuration":123076,"Delta":219122902},{"NoteNumber":70,"Velocity":64,"Duration":123076,"SoundDuration":123076,"Delta":219125209},{"NoteNumber":82,"Velocity":78,"Duration":123076,"SoundDuration":123076,"Delta":219125209},{"NoteNumber":58,"Velocity":58,"Duration":123076,"SoundDuration":123076,"Delta":219129055},{"NoteNumber":61,"Velocity":51,"Duration":123076,"SoundDuration":123076,"Delta":219245209},{"NoteNumber":49,"Velocity":42,"Duration":123076,"SoundDuration":123076,"Delta":219245979},{"NoteNumber":73,"Velocity":59,"Duration":123076,"SoundDuration":123076,"Delta":219248286},{"NoteNumber":85,"Velocity":69,"Duration":123076,"SoundDuration":123076,"Delta":219248286},{"NoteNumber":45,"Velocity":49,"Duration":123076,"SoundDuration":123076,"Delta":219368286},{"NoteNumber":81,"Velocity":79,"Duration":123077,"SoundDuration":123077,"Delta":219371363},{"NoteNumber":69,"Velocity":66,"Duration":123077,"SoundDuration":123077,"Delta":219371363},{"NoteNumber":57,"Velocity":60,"Duration":123076,"SoundDuration":123076,"Delta":219373671},{"NoteNumber":46,"Velocity":45,"Duration":123055,"SoundDuration":123055,"Delta":219493671},{"NoteNumber":58,"Velocity":52,"Duration":123055,"SoundDuration":123055,"Delta":219493671},{"NoteNumber":70,"Velocity":61,"Duration":123053,"SoundDuration":123053,"Delta":219494440},{"NoteNumber":82,"Velocity":72,"Duration":123053,"SoundDuration":123053,"Delta":219494440},{"NoteNumber":79,"Velocity":79,"Duration":122699,"SoundDuration":122699,"Delta":219617494},{"NoteNumber":67,"Velocity":67,"Duration":122699,"SoundDuration":122699,"Delta":219617494},{"NoteNumber":43,"Velocity":50,"Duration":122699,"SoundDuration":122699,"Delta":219619027},{"NoteNumber":55,"Velocity":60,"Duration":122699,"SoundDuration":122699,"Delta":219621328},{"NoteNumber":46,"Velocity":46,"Duration":122746,"SoundDuration":122746,"Delta":219738659},{"NoteNumber":58,"Velocity":53,"Duration":122748,"SoundDuration":122748,"Delta":219739426},{"NoteNumber":82,"Velocity":73,"Duration":122751,"SoundDuration":122751,"Delta":219740193},{"NoteNumber":70,"Velocity":61,"Duration":122751,"SoundDuration":122751,"Delta":219740193},{"NoteNumber":41,"Velocity":51,"Duration":123076,"SoundDuration":123076,"Delta":219859098},{"NoteNumber":53,"Velocity":61,"Duration":123076,"SoundDuration":123076,"Delta":219861406},{"NoteNumber":77,"Velocity":81,"Duration":123076,"SoundDuration":123076,"Delta":219862944},{"NoteNumber":65,"Velocity":67,"Duration":123076,"SoundDuration":123076,"Delta":219862944},{"NoteNumber":43,"Velocity":47,"Duration":123214,"SoundDuration":123214,"Delta":219982944},{"NoteNumber":79,"Velocity":74,"Duration":123224,"SoundDuration":123224,"Delta":219986021},{"NoteNumber":67,"Velocity":62,"Duration":123224,"SoundDuration":123224,"Delta":219986021},{"NoteNumber":55,"Velocity":55,"Duration":123235,"SoundDuration":123235,"Delta":219989867},{"NoteNumber":52,"Velocity":61,"Duration":123456,"SoundDuration":123456,"Delta":220109245},{"NoteNumber":76,"Velocity":82,"Duration":123456,"SoundDuration":123456,"Delta":220109245},{"NoteNumber":64,"Velocity":69,"Duration":123456,"SoundDuration":123456,"Delta":220109245},{"NoteNumber":40,"Velocity":52,"Duration":123456,"SoundDuration":123456,"Delta":220113103},{"NoteNumber":55,"Velocity":56,"Duration":123745,"SoundDuration":123745,"Delta":220231930},{"NoteNumber":43,"Velocity":47,"Duration":123745,"SoundDuration":123745,"Delta":220231930},{"NoteNumber":67,"Velocity":63,"Duration":123748,"SoundDuration":123748,"Delta":220232702},{"NoteNumber":79,"Velocity":74,"Duration":123748,"SoundDuration":123748,"Delta":220232702},{"NoteNumber":74,"Velocity":84,"Duration":123843,"SoundDuration":123843,"Delta":220356450},{"NoteNumber":62,"Velocity":70,"Duration":123843,"SoundDuration":123843,"Delta":220356450},{"NoteNumber":50,"Velocity":63,"Duration":123848,"SoundDuration":123848,"Delta":220357998},{"NoteNumber":38,"Velocity":52,"Duration":123851,"SoundDuration":123851,"Delta":220358772},{"NoteNumber":40,"Velocity":48,"Duration":124223,"SoundDuration":124223,"Delta":220480294},{"NoteNumber":64,"Velocity":64,"Duration":124223,"SoundDuration":124223,"Delta":220480294},{"NoteNumber":76,"Velocity":75,"Duration":124223,"SoundDuration":124223,"Delta":220480294},{"NoteNumber":52,"Velocity":57,"Duration":124223,"SoundDuration":124223,"Delta":220483400},{"NoteNumber":73,"Velocity":82,"Duration":124373,"SoundDuration":124373,"Delta":220604518},{"NoteNumber":61,"Velocity":68,"Duration":124373,"SoundDuration":124373,"Delta":220604518},{"NoteNumber":37,"Velocity":51,"Duration":124376,"SoundDuration":124376,"Delta":220605294},{"NoteNumber":49,"Velocity":62,"Duration":124380,"SoundDuration":124380,"Delta":220606847},{"NoteNumber":52,"Velocity":57,"Duration":124610,"SoundDuration":124610,"Delta":220724997},{"NoteNumber":40,"Velocity":47,"Duration":124610,"SoundDuration":124610,"Delta":220728113},{"NoteNumber":76,"Velocity":73,"Duration":124610,"SoundDuration":124610,"Delta":220728891},{"NoteNumber":64,"Velocity":63,"Duration":124610,"SoundDuration":124610,"Delta":220728891},{"NoteNumber":34,"Velocity":51,"Duration":124846,"SoundDuration":124846,"Delta":220849608},{"NoteNumber":58,"Velocity":69,"Duration":124858,"SoundDuration":124858,"Delta":220853502},{"NoteNumber":70,"Velocity":83,"Duration":124858,"SoundDuration":124858,"Delta":220853502},{"NoteNumber":46,"Velocity":62,"Duration":124868,"SoundDuration":124868,"Delta":220856617},{"NoteNumber":37,"Velocity":48,"Duration":125000,"SoundDuration":125000,"Delta":220975236},{"NoteNumber":61,"Velocity":64,"Duration":125004,"SoundDuration":125004,"Delta":220978361},{"NoteNumber":73,"Velocity":75,"Duration":125004,"SoundDuration":125004,"Delta":220978361},{"NoteNumber":49,"Velocity":57,"Duration":125004,"SoundDuration":125004,"Delta":220978361},{"NoteNumber":33,"Velocity":53,"Duration":125392,"SoundDuration":125392,"Delta":221101798},{"NoteNumber":57,"Velocity":71,"Duration":125392,"SoundDuration":125392,"Delta":221103366},{"NoteNumber":69,"Velocity":85,"Duration":125392,"SoundDuration":125392,"Delta":221103366},{"NoteNumber":45,"Velocity":63,"Duration":125392,"SoundDuration":125392,"Delta":221103366},{"NoteNumber":46,"Velocity":58,"Duration":125392,"SoundDuration":125392,"Delta":221226407},{"NoteNumber":34,"Velocity":49,"Duration":125392,"SoundDuration":125392,"Delta":221227974},{"NoteNumber":58,"Velocity":65,"Duration":125392,"SoundDuration":125392,"Delta":221228758},{"NoteNumber":70,"Velocity":76,"Duration":125392,"SoundDuration":125392,"Delta":221228758},{"NoteNumber":32,"Velocity":53,"Duration":125391,"SoundDuration":125391,"Delta":221350231},{"NoteNumber":44,"Velocity":63,"Duration":125391,"SoundDuration":125391,"Delta":221352582},{"NoteNumber":68,"Velocity":86,"Duration":125392,"SoundDuration":125392,"Delta":221354150},{"NoteNumber":56,"Velocity":71,"Duration":125392,"SoundDuration":125392,"Delta":221354150},{"NoteNumber":69,"Velocity":79,"Duration":125391,"SoundDuration":125391,"Delta":221479542},{"NoteNumber":57,"Velocity":66,"Duration":125391,"SoundDuration":125391,"Delta":221479542},{"NoteNumber":45,"Velocity":60,"Duration":125391,"SoundDuration":125391,"Delta":221482677},{"NoteNumber":33,"Velocity":49,"Duration":125391,"SoundDuration":125391,"Delta":221483460},{"NoteNumber":31,"Velocity":55,"Duration":125392,"SoundDuration":125392,"Delta":221601015},{"NoteNumber":43,"Velocity":66,"Duration":125392,"SoundDuration":125392,"Delta":221601799},{"NoteNumber":55,"Velocity":73,"Duration":125392,"SoundDuration":125392,"Delta":221604934},{"NoteNumber":67,"Velocity":86,"Duration":125392,"SoundDuration":125392,"Delta":221604934},{"NoteNumber":57,"Velocity":66,"Duration":125392,"SoundDuration":125392,"Delta":221730326},{"NoteNumber":69,"Velocity":79,"Duration":125392,"SoundDuration":125392,"Delta":221730326},{"NoteNumber":45,"Velocity":60,"Duration":125392,"SoundDuration":125392,"Delta":221731109},{"NoteNumber":33,"Velocity":49,"Duration":125392,"SoundDuration":125392,"Delta":221732677},{"NoteNumber":42,"Velocity":64,"Duration":125443,"SoundDuration":125443,"Delta":221854934},{"NoteNumber":66,"Velocity":86,"Duration":125446,"SoundDuration":125446,"Delta":221855718},{"NoteNumber":54,"Velocity":74,"Duration":125446,"SoundDuration":125446,"Delta":221855718},{"NoteNumber":30,"Velocity":55,"Duration":125453,"SoundDuration":125453,"Delta":221858069},{"NoteNumber":45,"Velocity":59,"Duration":125887,"SoundDuration":125887,"Delta":221980378},{"NoteNumber":69,"Velocity":77,"Duration":125890,"SoundDuration":125890,"Delta":221981164},{"NoteNumber":57,"Velocity":65,"Duration":125890,"SoundDuration":125890,"Delta":221981164},{"NoteNumber":33,"Velocity":48,"Duration":125895,"SoundDuration":125895,"Delta":221982736},{"NoteNumber":29,"Velocity":57,"Duration":125707,"SoundDuration":125707,"Delta":222106266},{"NoteNumber":65,"Velocity":88,"Duration":125707,"SoundDuration":125707,"Delta":222107054},{"NoteNumber":53,"Velocity":74,"Duration":125707,"SoundDuration":125707,"Delta":222107054},{"NoteNumber":41,"Velocity":66,"Duration":125707,"SoundDuration":125707,"Delta":222108631},{"NoteNumber":45,"Velocity":60,"Duration":126563,"SoundDuration":126563,"Delta":222229607},{"NoteNumber":57,"Velocity":67,"Duration":126583,"SoundDuration":126583,"Delta":222232762},{"NoteNumber":69,"Velocity":80,"Duration":126583,"SoundDuration":126583,"Delta":222232762},{"NoteNumber":33,"Velocity":51,"Duration":126593,"SoundDuration":126593,"Delta":222234339},{"NoteNumber":40,"Velocity":66,"Duration":127569,"SoundDuration":127569,"Delta":222356964},{"NoteNumber":64,"Velocity":88,"Duration":127592,"SoundDuration":127592,"Delta":222359345},{"NoteNumber":52,"Velocity":75,"Duration":127592,"SoundDuration":127592,"Delta":222359345},{"NoteNumber":28,"Velocity":57,"Duration":127630,"SoundDuration":127630,"Delta":222363313},{"NoteNumber":33,"Velocity":51,"Duration":127898,"SoundDuration":127898,"Delta":222483733},{"NoteNumber":45,"Velocity":60,"Duration":127360,"SoundDuration":127360,"Delta":222486938},{"NoteNumber":69,"Velocity":80,"Duration":127360,"SoundDuration":127360,"Delta":222486938},{"NoteNumber":57,"Velocity":68,"Duration":127360,"SoundDuration":127360,"Delta":222486938},{"NoteNumber":63,"Velocity":90,"Duration":157743,"SoundDuration":157743,"Delta":222614298},{"NoteNumber":51,"Velocity":76,"Duration":157743,"SoundDuration":157743,"Delta":222614298},{"NoteNumber":27,"Velocity":57,"Duration":157743,"SoundDuration":157743,"Delta":222614298},{"NoteNumber":39,"Velocity":68,"Duration":157743,"SoundDuration":157743,"Delta":222614298},{"NoteNumber":69,"Velocity":83,"Duration":159957,"SoundDuration":159957,"Delta":222772041},{"NoteNumber":57,"Velocity":71,"Duration":159957,"SoundDuration":159957,"Delta":222772041},{"NoteNumber":45,"Velocity":63,"Duration":159957,"SoundDuration":159957,"Delta":222772041},{"NoteNumber":33,"Velocity":52,"Duration":159957,"SoundDuration":159957,"Delta":222772041},{"NoteNumber":48,"Velocity":77,"Duration":162675,"SoundDuration":162675,"Delta":222931999},{"NoteNumber":60,"Velocity":91,"Duration":162675,"SoundDuration":162675,"Delta":222931999},{"NoteNumber":36,"Velocity":68,"Duration":162675,"SoundDuration":162675,"Delta":222931999},{"NoteNumber":24,"Velocity":59,"Duration":162675,"SoundDuration":162675,"Delta":222931999},{"NoteNumber":69,"Velocity":83,"Duration":165486,"SoundDuration":165486,"Delta":223094675},{"NoteNumber":57,"Velocity":71,"Duration":165486,"SoundDuration":165486,"Delta":223094675},{"NoteNumber":33,"Velocity":55,"Duration":165486,"SoundDuration":165486,"Delta":223094675},{"NoteNumber":45,"Velocity":63,"Duration":165486,"SoundDuration":165486,"Delta":223094675},{"NoteNumber":49,"Velocity":77,"Duration":179856,"SoundDuration":179856,"Delta":223260161},{"NoteNumber":61,"Velocity":91,"Duration":179856,"SoundDuration":179856,"Delta":223260161},{"NoteNumber":37,"Velocity":68,"Duration":179856,"SoundDuration":179856,"Delta":223260161},{"NoteNumber":25,"Velocity":58,"Duration":179856,"SoundDuration":179856,"Delta":223260161},{"NoteNumber":57,"Velocity":70,"Duration":331369,"SoundDuration":331369,"Delta":223440017},{"NoteNumber":69,"Velocity":83,"Duration":331369,"SoundDuration":331369,"Delta":223440017},{"NoteNumber":33,"Velocity":53,"Duration":331369,"SoundDuration":331369,"Delta":223440017},{"NoteNumber":45,"Velocity":63,"Duration":331369,"SoundDuration":331369,"Delta":223440017},{"NoteNumber":86,"Velocity":59,"Duration":523957,"SoundDuration":523957,"Delta":223881843},{"NoteNumber":77,"Velocity":50,"Duration":523957,"SoundDuration":523957,"Delta":223881843},{"NoteNumber":74,"Velocity":50,"Duration":523957,"SoundDuration":523957,"Delta":223881843},{"NoteNumber":45,"Velocity":35,"Duration":523957,"SoundDuration":523957,"Delta":223881843},{"NoteNumber":38,"Velocity":35,"Duration":523957,"SoundDuration":523957,"Delta":223881843},{"NoteNumber":50,"Velocity":42,"Duration":523957,"SoundDuration":523957,"Delta":223881843},{"NoteNumber":52,"Velocity":27,"Duration":64655,"SoundDuration":64655,"Delta":224091146},{"NoteNumber":56,"Velocity":32,"Duration":64655,"SoundDuration":64655,"Delta":224091146},{"NoteNumber":57,"Velocity":40,"Duration":31250,"SoundDuration":31250,"Delta":224155801},{"NoteNumber":53,"Velocity":34,"Duration":31250,"SoundDuration":31250,"Delta":224155801},{"NoteNumber":64,"Velocity":26,"Duration":62500,"SoundDuration":62500,"Delta":224343301},{"NoteNumber":61,"Velocity":31,"Duration":62500,"SoundDuration":62500,"Delta":224343301},{"NoteNumber":62,"Velocity":35,"Duration":32467,"SoundDuration":32467,"Delta":224405801},{"NoteNumber":65,"Velocity":35,"Duration":32467,"SoundDuration":32467,"Delta":224405801},{"NoteNumber":74,"Velocity":50,"Duration":505103,"SoundDuration":505103,"Delta":224665542},{"NoteNumber":77,"Velocity":50,"Duration":505103,"SoundDuration":505103,"Delta":224665542},{"NoteNumber":86,"Velocity":59,"Duration":505103,"SoundDuration":505103,"Delta":224665542},{"NoteNumber":50,"Velocity":42,"Duration":505103,"SoundDuration":505103,"Delta":224665542},{"NoteNumber":45,"Velocity":35,"Duration":505103,"SoundDuration":505103,"Delta":224665542},{"NoteNumber":38,"Velocity":35,"Duration":505103,"SoundDuration":505103,"Delta":224665542},{"NoteNumber":61,"Velocity":32,"Duration":65502,"SoundDuration":65502,"Delta":224853042},{"NoteNumber":56,"Velocity":27,"Duration":65502,"SoundDuration":65502,"Delta":224853042},{"NoteNumber":62,"Velocity":40,"Duration":31512,"SoundDuration":31512,"Delta":224918544},{"NoteNumber":57,"Velocity":34,"Duration":31512,"SoundDuration":31512,"Delta":224918544},{"NoteNumber":64,"Velocity":26,"Duration":63025,"SoundDuration":63025,"Delta":225107619},{"NoteNumber":68,"Velocity":31,"Duration":63025,"SoundDuration":63025,"Delta":225107619},{"NoteNumber":65,"Velocity":29,"Duration":31512,"SoundDuration":31512,"Delta":225170645},{"NoteNumber":69,"Velocity":35,"Duration":31512,"SoundDuration":31512,"Delta":225170645},{"NoteNumber":72,"Velocity":45,"Duration":126050,"SoundDuration":126050,"Delta":225296695},{"NoteNumber":84,"Velocity":54,"Duration":126050,"SoundDuration":126050,"Delta":225296695},{"NoteNumber":82,"Velocity":59,"Duration":518554,"SoundDuration":518554,"Delta":225422746},{"NoteNumber":76,"Velocity":50,"Duration":518554,"SoundDuration":518554,"Delta":225422746},{"NoteNumber":70,"Velocity":50,"Duration":518554,"SoundDuration":518554,"Delta":225422746},{"NoteNumber":43,"Velocity":35,"Duration":518554,"SoundDuration":518554,"Delta":225422746},{"NoteNumber":50,"Velocity":42,"Duration":518554,"SoundDuration":518554,"Delta":225422746},{"NoteNumber":38,"Velocity":35,"Duration":518554,"SoundDuration":518554,"Delta":225422746},{"NoteNumber":57,"Velocity":32,"Duration":64935,"SoundDuration":64935,"Delta":225626365},{"NoteNumber":54,"Velocity":27,"Duration":64935,"SoundDuration":64935,"Delta":225626365},{"NoteNumber":58,"Velocity":42,"Duration":31250,"SoundDuration":31250,"Delta":225691301},{"NoteNumber":55,"Velocity":35,"Duration":31250,"SoundDuration":31250,"Delta":225691301},{"NoteNumber":66,"Velocity":32,"Duration":62500,"SoundDuration":62500,"Delta":225878801},{"NoteNumber":63,"Velocity":27,"Duration":62500,"SoundDuration":62500,"Delta":225878801},{"NoteNumber":67,"Velocity":35,"Duration":31645,"SoundDuration":31645,"Delta":225941301},{"NoteNumber":64,"Velocity":29,"Duration":31645,"SoundDuration":31645,"Delta":225941301},{"NoteNumber":70,"Velocity":50,"Duration":500215,"SoundDuration":500215,"Delta":226194465},{"NoteNumber":82,"Velocity":59,"Duration":500215,"SoundDuration":500215,"Delta":226194465},{"NoteNumber":76,"Velocity":50,"Duration":500215,"SoundDuration":500215,"Delta":226194465},{"NoteNumber":43,"Velocity":35,"Duration":500215,"SoundDuration":500215,"Delta":226194465},{"NoteNumber":38,"Velocity":35,"Duration":500215,"SoundDuration":500215,"Delta":226194465},{"NoteNumber":50,"Velocity":42,"Duration":500215,"SoundDuration":500215,"Delta":226194465},{"NoteNumber":57,"Velocity":32,"Duration":65789,"SoundDuration":65789,"Delta":226378891},{"NoteNumber":54,"Velocity":27,"Duration":65789,"SoundDuration":65789,"Delta":226378891},{"NoteNumber":55,"Velocity":34,"Duration":31250,"SoundDuration":31250,"Delta":226444681},{"NoteNumber":58,"Velocity":41,"Duration":31250,"SoundDuration":31250,"Delta":226444681},{"NoteNumber":66,"Velocity":31,"Duration":62500,"SoundDuration":62500,"Delta":226632181},{"NoteNumber":63,"Velocity":26,"Duration":62500,"SoundDuration":62500,"Delta":226632181},{"NoteNumber":64,"Velocity":29,"Duration":32327,"SoundDuration":32327,"Delta":226694681},{"NoteNumber":67,"Velocity":35,"Duration":32327,"SoundDuration":32327,"Delta":226694681},{"NoteNumber":82,"Velocity":56,"Duration":129310,"SoundDuration":129310,"Delta":226823991},{"NoteNumber":70,"Velocity":47,"Duration":129310,"SoundDuration":129310,"Delta":226823991},{"NoteNumber":69,"Velocity":52,"Duration":513769,"SoundDuration":513769,"Delta":226953301},{"NoteNumber":81,"Velocity":62,"Duration":513769,"SoundDuration":513769,"Delta":226953301},{"NoteNumber":76,"Velocity":52,"Duration":513769,"SoundDuration":513769,"Delta":226953301},{"NoteNumber":37,"Velocity":34,"Duration":513769,"SoundDuration":513769,"Delta":226953301},{"NoteNumber":49,"Velocity":41,"Duration":513769,"SoundDuration":513769,"Delta":226953301},{"NoteNumber":51,"Velocity":28,"Duration":64655,"SoundDuration":64655,"Delta":227152416},{"NoteNumber":54,"Velocity":33,"Duration":64655,"SoundDuration":64655,"Delta":227152416},{"NoteNumber":55,"Velocity":42,"Duration":31250,"SoundDuration":31250,"Delta":227217071},{"NoteNumber":52,"Velocity":35,"Duration":31250,"SoundDuration":31250,"Delta":227217071},{"NoteNumber":63,"Velocity":33,"Duration":62500,"SoundDuration":62500,"Delta":227404571},{"NoteNumber":60,"Velocity":28,"Duration":62500,"SoundDuration":62500,"Delta":227404571},{"NoteNumber":61,"Velocity":35,"Duration":31914,"SoundDuration":31914,"Delta":227467071},{"NoteNumber":64,"Velocity":42,"Duration":31914,"SoundDuration":31914,"Delta":227467071},{"NoteNumber":81,"Velocity":61,"Duration":127659,"SoundDuration":127659,"Delta":227594731},{"NoteNumber":69,"Velocity":51,"Duration":127659,"SoundDuration":127659,"Delta":227594731},{"NoteNumber":79,"Velocity":54,"Duration":505702,"SoundDuration":505702,"Delta":227722390},{"NoteNumber":88,"Velocity":64,"Duration":505702,"SoundDuration":505702,"Delta":227722390},{"NoteNumber":76,"Velocity":54,"Duration":505702,"SoundDuration":505702,"Delta":227722390},{"NoteNumber":33,"Velocity":34,"Duration":505702,"SoundDuration":505702,"Delta":227722390},{"NoteNumber":45,"Velocity":41,"Duration":505702,"SoundDuration":505702,"Delta":227722390},{"NoteNumber":54,"Velocity":32,"Duration":66371,"SoundDuration":66371,"Delta":227910675},{"NoteNumber":51,"Velocity":27,"Duration":66371,"SoundDuration":66371,"Delta":227910675},{"NoteNumber":55,"Velocity":41,"Duration":31380,"SoundDuration":31380,"Delta":227977046},{"NoteNumber":52,"Velocity":34,"Duration":31380,"SoundDuration":31380,"Delta":227977046},{"NoteNumber":60,"Velocity":27,"Duration":62761,"SoundDuration":62761,"Delta":228165331},{"NoteNumber":63,"Velocity":32,"Duration":62761,"SoundDuration":62761,"Delta":228165331},{"NoteNumber":64,"Velocity":35,"Duration":32188,"SoundDuration":32188,"Delta":228228092},{"NoteNumber":61,"Velocity":42,"Duration":32188,"SoundDuration":32188,"Delta":228228092},{"NoteNumber":79,"Velocity":62,"Duration":128755,"SoundDuration":128755,"Delta":228356848},{"NoteNumber":67,"Velocity":52,"Duration":128755,"SoundDuration":128755,"Delta":228356848},{"NoteNumber":77,"Velocity":65,"Duration":519739,"SoundDuration":519739,"Delta":228485603},{"NoteNumber":65,"Velocity":55,"Duration":519739,"SoundDuration":519739,"Delta":228485603},{"NoteNumber":69,"Velocity":55,"Duration":519739,"SoundDuration":519739,"Delta":228485603},{"NoteNumber":38,"Velocity":41,"Duration":519739,"SoundDuration":519739,"Delta":228485603},{"NoteNumber":50,"Velocity":41,"Duration":519739,"SoundDuration":519739,"Delta":228485603},{"NoteNumber":56,"Velocity":31,"Duration":65502,"SoundDuration":65502,"Delta":228685603},{"NoteNumber":52,"Velocity":26,"Duration":65502,"SoundDuration":65502,"Delta":228685603},{"NoteNumber":53,"Velocity":29,"Duration":31779,"SoundDuration":31779,"Delta":228751105},{"NoteNumber":57,"Velocity":35,"Duration":31779,"SoundDuration":31779,"Delta":228751105},{"NoteNumber":64,"Velocity":32,"Duration":63559,"SoundDuration":63559,"Delta":228941783},{"NoteNumber":61,"Velocity":27,"Duration":63559,"SoundDuration":63559,"Delta":228941783},{"NoteNumber":62,"Velocity":29,"Duration":31779,"SoundDuration":31779,"Delta":229005342},{"NoteNumber":65,"Velocity":35,"Duration":31779,"SoundDuration":31779,"Delta":229005342},{"NoteNumber":69,"Velocity":49,"Duration":129638,"SoundDuration":129638,"Delta":229132461},{"NoteNumber":81,"Velocity":58,"Duration":129638,"SoundDuration":129638,"Delta":229132461},{"NoteNumber":62,"Velocity":52,"Duration":512821,"SoundDuration":512821,"Delta":229262100},{"NoteNumber":74,"Velocity":62,"Duration":512821,"SoundDuration":512821,"Delta":229262100},{"NoteNumber":65,"Velocity":52,"Duration":512821,"SoundDuration":512821,"Delta":229262100},{"NoteNumber":50,"Velocity":41,"Duration":512821,"SoundDuration":512821,"Delta":229262100},{"NoteNumber":45,"Velocity":34,"Duration":512821,"SoundDuration":512821,"Delta":229262100},{"NoteNumber":38,"Velocity":34,"Duration":512821,"SoundDuration":512821,"Delta":229262100},{"NoteNumber":52,"Velocity":27,"Duration":64102,"SoundDuration":64102,"Delta":229454408},{"NoteNumber":56,"Velocity":32,"Duration":64102,"SoundDuration":64102,"Delta":229454408},{"NoteNumber":53,"Velocity":29,"Duration":32051,"SoundDuration":32051,"Delta":229518510},{"NoteNumber":57,"Velocity":35,"Duration":32051,"SoundDuration":32051,"Delta":229518510},{"NoteNumber":64,"Velocity":33,"Duration":64102,"SoundDuration":64102,"Delta":229710818},{"NoteNumber":61,"Velocity":28,"Duration":64102,"SoundDuration":64102,"Delta":229710818},{"NoteNumber":65,"Velocity":35,"Duration":32051,"SoundDuration":32051,"Delta":229774921},{"NoteNumber":62,"Velocity":29,"Duration":32051,"SoundDuration":32051,"Delta":229774921},{"NoteNumber":72,"Velocity":50,"Duration":523957,"SoundDuration":523957,"Delta":230031331},{"NoteNumber":84,"Velocity":59,"Duration":523957,"SoundDuration":523957,"Delta":230031331},{"NoteNumber":76,"Velocity":50,"Duration":523957,"SoundDuration":523957,"Delta":230031331},{"NoteNumber":48,"Velocity":42,"Duration":523957,"SoundDuration":523957,"Delta":230031331},{"NoteNumber":36,"Velocity":35,"Duration":523957,"SoundDuration":523957,"Delta":230031331},{"NoteNumber":51,"Velocity":27,"Duration":64655,"SoundDuration":64655,"Delta":230240634},{"NoteNumber":54,"Velocity":32,"Duration":64655,"SoundDuration":64655,"Delta":230240634},{"NoteNumber":55,"Velocity":40,"Duration":31250,"SoundDuration":31250,"Delta":230305289},{"NoteNumber":52,"Velocity":34,"Duration":31250,"SoundDuration":31250,"Delta":230305289},{"NoteNumber":59,"Velocity":31,"Duration":62500,"SoundDuration":62500,"Delta":230492789},{"NoteNumber":63,"Velocity":26,"Duration":62500,"SoundDuration":62500,"Delta":230492789},{"NoteNumber":60,"Velocity":35,"Duration":32467,"SoundDuration":32467,"Delta":230555289},{"NoteNumber":64,"Velocity":35,"Duration":32467,"SoundDuration":32467,"Delta":230555289},{"NoteNumber":79,"Velocity":51,"Duration":505103,"SoundDuration":505103,"Delta":230815029},{"NoteNumber":72,"Velocity":51,"Duration":505103,"SoundDuration":505103,"Delta":230815029},{"NoteNumber":84,"Velocity":60,"Duration":505103,"SoundDuration":505103,"Delta":230815029},{"NoteNumber":40,"Velocity":36,"Duration":505103,"SoundDuration":505103,"Delta":230815029},{"NoteNumber":52,"Velocity":43,"Duration":505103,"SoundDuration":505103,"Delta":230815029},{"NoteNumber":54,"Velocity":27,"Duration":65502,"SoundDuration":65502,"Delta":231002529},{"NoteNumber":59,"Velocity":32,"Duration":65502,"SoundDuration":65502,"Delta":231002529},{"NoteNumber":60,"Velocity":41,"Duration":31512,"SoundDuration":31512,"Delta":231068031},{"NoteNumber":55,"Velocity":35,"Duration":31512,"SoundDuration":31512,"Delta":231068031},{"NoteNumber":66,"Velocity":32,"Duration":63025,"SoundDuration":63025,"Delta":231257107},{"NoteNumber":63,"Velocity":27,"Duration":63025,"SoundDuration":63025,"Delta":231257107},{"NoteNumber":67,"Velocity":36,"Duration":31512,"SoundDuration":31512,"Delta":231320132},{"NoteNumber":64,"Velocity":30,"Duration":31512,"SoundDuration":31512,"Delta":231320132},{"NoteNumber":70,"Velocity":47,"Duration":126050,"SoundDuration":126050,"Delta":231446183},{"NoteNumber":82,"Velocity":56,"Duration":126050,"SoundDuration":126050,"Delta":231446183},{"NoteNumber":77,"Velocity":53,"Duration":518554,"SoundDuration":518554,"Delta":231572233},{"NoteNumber":81,"Velocity":62,"Duration":518554,"SoundDuration":518554,"Delta":231572233},{"NoteNumber":69,"Velocity":53,"Duration":518554,"SoundDuration":518554,"Delta":231572233},{"NoteNumber":48,"Velocity":37,"Duration":518554,"SoundDuration":518554,"Delta":231572233},{"NoteNumber":53,"Velocity":44,"Duration":518554,"SoundDuration":518554,"Delta":231572233},{"NoteNumber":41,"Velocity":37,"Duration":518554,"SoundDuration":518554,"Delta":231572233},{"NoteNumber":59,"Velocity":34,"Duration":64935,"SoundDuration":64935,"Delta":231775853},{"NoteNumber":56,"Velocity":28,"Duration":64935,"SoundDuration":64935,"Delta":231775853},{"NoteNumber":57,"Velocity":37,"Duration":31250,"SoundDuration":31250,"Delta":231840788},{"NoteNumber":60,"Velocity":44,"Duration":31250,"SoundDuration":31250,"Delta":231840788},{"NoteNumber":68,"Velocity":34,"Duration":62500,"SoundDuration":62500,"Delta":232028288},{"NoteNumber":64,"Velocity":29,"Duration":62500,"SoundDuration":62500,"Delta":232028288},{"NoteNumber":65,"Velocity":31,"Duration":31645,"SoundDuration":31645,"Delta":232090788},{"NoteNumber":69,"Velocity":37,"Duration":31645,"SoundDuration":31645,"Delta":232090788},{"NoteNumber":72,"Velocity":50,"Duration":126582,"SoundDuration":126582,"Delta":232217371},{"NoteNumber":84,"Velocity":60,"Duration":126582,"SoundDuration":126582,"Delta":232217371},{"NoteNumber":77,"Velocity":64,"Duration":500215,"SoundDuration":500215,"Delta":232343953},{"NoteNumber":69,"Velocity":54,"Duration":500215,"SoundDuration":500215,"Delta":232343953},{"NoteNumber":65,"Velocity":54,"Duration":500215,"SoundDuration":500215,"Delta":232343953},{"NoteNumber":53,"Velocity":45,"Duration":500215,"SoundDuration":500215,"Delta":232343953},{"NoteNumber":41,"Velocity":38,"Duration":500215,"SoundDuration":500215,"Delta":232343953},{"NoteNumber":56,"Velocity":29,"Duration":65789,"SoundDuration":65789,"Delta":232528379},{"NoteNumber":59,"Velocity":35,"Duration":65789,"SoundDuration":65789,"Delta":232528379},{"NoteNumber":60,"Velocity":45,"Duration":31250,"SoundDuration":31250,"Delta":232594168},{"NoteNumber":57,"Velocity":37,"Duration":31250,"SoundDuration":31250,"Delta":232594168},{"NoteNumber":64,"Velocity":28,"Duration":62500,"SoundDuration":62500,"Delta":232781668},{"NoteNumber":68,"Velocity":34,"Duration":62500,"SoundDuration":62500,"Delta":232781668},{"NoteNumber":65,"Velocity":32,"Duration":32327,"SoundDuration":32327,"Delta":232844168},{"NoteNumber":69,"Velocity":38,"Duration":32327,"SoundDuration":32327,"Delta":232844168},{"NoteNumber":88,"Velocity":66,"Duration":523957,"SoundDuration":523957,"Delta":233102789},{"NoteNumber":80,"Velocity":56,"Duration":523957,"SoundDuration":523957,"Delta":233102789},{"NoteNumber":76,"Velocity":56,"Duration":523957,"SoundDuration":523957,"Delta":233102789},{"NoteNumber":52,"Velocity":47,"Duration":523957,"SoundDuration":523957,"Delta":233102789},{"NoteNumber":40,"Velocity":39,"Duration":523957,"SoundDuration":523957,"Delta":233102789},{"NoteNumber":55,"Velocity":30,"Duration":64655,"SoundDuration":64655,"Delta":233312091},{"NoteNumber":58,"Velocity":36,"Duration":64655,"SoundDuration":64655,"Delta":233312091},{"NoteNumber":59,"Velocity":45,"Duration":31250,"SoundDuration":31250,"Delta":233376747},{"NoteNumber":56,"Velocity":38,"Duration":31250,"SoundDuration":31250,"Delta":233376747},{"NoteNumber":67,"Velocity":29,"Duration":62500,"SoundDuration":62500,"Delta":233564247},{"NoteNumber":63,"Velocity":35,"Duration":62500,"SoundDuration":62500,"Delta":233564247},{"NoteNumber":64,"Velocity":39,"Duration":32467,"SoundDuration":32467,"Delta":233626747},{"NoteNumber":68,"Velocity":39,"Duration":32467,"SoundDuration":32467,"Delta":233626747},{"NoteNumber":76,"Velocity":57,"Duration":505103,"SoundDuration":505103,"Delta":233886487},{"NoteNumber":83,"Velocity":57,"Duration":505103,"SoundDuration":505103,"Delta":233886487},{"NoteNumber":88,"Velocity":67,"Duration":505103,"SoundDuration":505103,"Delta":233886487},{"NoteNumber":44,"Velocity":40,"Duration":505103,"SoundDuration":505103,"Delta":233886487},{"NoteNumber":56,"Velocity":48,"Duration":505103,"SoundDuration":505103,"Delta":233886487},{"NoteNumber":58,"Velocity":31,"Duration":65502,"SoundDuration":65502,"Delta":234073987},{"NoteNumber":63,"Velocity":37,"Duration":65502,"SoundDuration":65502,"Delta":234073987},{"NoteNumber":59,"Velocity":39,"Duration":31512,"SoundDuration":31512,"Delta":234139489},{"NoteNumber":64,"Velocity":46,"Duration":31512,"SoundDuration":31512,"Delta":234139489},{"NoteNumber":67,"Velocity":30,"Duration":63025,"SoundDuration":63025,"Delta":234328565},{"NoteNumber":70,"Velocity":36,"Duration":63025,"SoundDuration":63025,"Delta":234328565},{"NoteNumber":71,"Velocity":40,"Duration":31512,"SoundDuration":31512,"Delta":234391590},{"NoteNumber":68,"Velocity":33,"Duration":31512,"SoundDuration":31512,"Delta":234391590},{"NoteNumber":74,"Velocity":53,"Duration":126050,"SoundDuration":126050,"Delta":234517641},{"NoteNumber":86,"Velocity":63,"Duration":126050,"SoundDuration":126050,"Delta":234517641},{"NoteNumber":81,"Velocity":59,"Duration":518554,"SoundDuration":518554,"Delta":234643691},{"NoteNumber":73,"Velocity":59,"Duration":518554,"SoundDuration":518554,"Delta":234643691},{"NoteNumber":85,"Velocity":69,"Duration":518554,"SoundDuration":518554,"Delta":234643691},{"NoteNumber":45,"Velocity":41,"Duration":518554,"SoundDuration":518554,"Delta":234643691},{"NoteNumber":57,"Velocity":49,"Duration":518554,"SoundDuration":518554,"Delta":234643691},{"NoteNumber":52,"Velocity":41,"Duration":518554,"SoundDuration":518554,"Delta":234643691},{"NoteNumber":63,"Velocity":38,"Duration":64935,"SoundDuration":64935,"Delta":234847311},{"NoteNumber":60,"Velocity":32,"Duration":64935,"SoundDuration":64935,"Delta":234847311},{"NoteNumber":64,"Velocity":49,"Duration":31250,"SoundDuration":31250,"Delta":234912246},{"NoteNumber":61,"Velocity":41,"Duration":31250,"SoundDuration":31250,"Delta":234912246},{"NoteNumber":72,"Velocity":38,"Duration":62500,"SoundDuration":62500,"Delta":235099746},{"NoteNumber":68,"Velocity":32,"Duration":62500,"SoundDuration":62500,"Delta":235099746},{"NoteNumber":73,"Velocity":42,"Duration":31645,"SoundDuration":31645,"Delta":235162246},{"NoteNumber":69,"Velocity":34,"Duration":31645,"SoundDuration":31645,"Delta":235162246},{"NoteNumber":76,"Velocity":56,"Duration":126582,"SoundDuration":126582,"Delta":235288828},{"NoteNumber":88,"Velocity":67,"Duration":126582,"SoundDuration":126582,"Delta":235288828},{"NoteNumber":81,"Velocity":71,"Duration":500215,"SoundDuration":500215,"Delta":235415411},{"NoteNumber":69,"Velocity":60,"Duration":500215,"SoundDuration":500215,"Delta":235415411},{"NoteNumber":73,"Velocity":60,"Duration":500215,"SoundDuration":500215,"Delta":235415411},{"NoteNumber":52,"Velocity":42,"Duration":500215,"SoundDuration":500215,"Delta":235415411},{"NoteNumber":45,"Velocity":42,"Duration":500215,"SoundDuration":500215,"Delta":235415411},{"NoteNumber":57,"Velocity":50,"Duration":500215,"SoundDuration":500215,"Delta":235415411},{"NoteNumber":63,"Velocity":39,"Duration":65789,"SoundDuration":65789,"Delta":235599837},{"NoteNumber":60,"Velocity":32,"Duration":65789,"SoundDuration":65789,"Delta":235599837},{"NoteNumber":64,"Velocity":50,"Duration":31250,"SoundDuration":31250,"Delta":235665626},{"NoteNumber":61,"Velocity":41,"Duration":31250,"SoundDuration":31250,"Delta":235665626},{"NoteNumber":72,"Velocity":38,"Duration":62500,"SoundDuration":62500,"Delta":235853126},{"NoteNumber":68,"Velocity":31,"Duration":62500,"SoundDuration":62500,"Delta":235853126},{"NoteNumber":69,"Velocity":35,"Duration":32327,"SoundDuration":32327,"Delta":235915626},{"NoteNumber":73,"Velocity":43,"Duration":32327,"SoundDuration":32327,"Delta":235915626},{"NoteNumber":81,"Velocity":69,"Duration":129310,"SoundDuration":129310,"Delta":236044936},{"NoteNumber":69,"Velocity":58,"Duration":129310,"SoundDuration":129310,"Delta":236044936},{"NoteNumber":45,"Velocity":47,"Duration":129310,"SoundDuration":129310,"Delta":236044936},{"NoteNumber":57,"Velocity":54,"Duration":129310,"SoundDuration":129310,"Delta":236044936},{"NoteNumber":91,"Velocity":73,"Duration":523957,"SoundDuration":523957,"Delta":236174247},{"NoteNumber":85,"Velocity":62,"Duration":523957,"SoundDuration":523957,"Delta":236174247},{"NoteNumber":79,"Velocity":62,"Duration":523957,"SoundDuration":523957,"Delta":236174247},{"NoteNumber":58,"Velocity":52,"Duration":523957,"SoundDuration":523957,"Delta":236174247},{"NoteNumber":52,"Velocity":43,"Duration":523957,"SoundDuration":523957,"Delta":236174247},{"NoteNumber":46,"Velocity":43,"Duration":523957,"SoundDuration":523957,"Delta":236174247},{"NoteNumber":66,"Velocity":40,"Duration":64655,"SoundDuration":64655,"Delta":236383549},{"NoteNumber":63,"Velocity":33,"Duration":64655,"SoundDuration":64655,"Delta":236383549},{"NoteNumber":64,"Velocity":42,"Duration":31250,"SoundDuration":31250,"Delta":236448204},{"NoteNumber":67,"Velocity":50,"Duration":31250,"SoundDuration":31250,"Delta":236448204},{"NoteNumber":75,"Velocity":32,"Duration":62500,"SoundDuration":62500,"Delta":236635704},{"NoteNumber":72,"Velocity":38,"Duration":62500,"SoundDuration":62500,"Delta":236635704},{"NoteNumber":73,"Velocity":43,"Duration":32467,"SoundDuration":32467,"Delta":236698204},{"NoteNumber":76,"Velocity":43,"Duration":32467,"SoundDuration":32467,"Delta":236698204},{"NoteNumber":81,"Velocity":73,"Duration":505103,"SoundDuration":505103,"Delta":236957945},{"NoteNumber":69,"Velocity":62,"Duration":505103,"SoundDuration":505103,"Delta":236957945},{"NoteNumber":57,"Velocity":52,"Duration":505103,"SoundDuration":505103,"Delta":236957945},{"NoteNumber":45,"Velocity":43,"Duration":505103,"SoundDuration":505103,"Delta":236957945},{"NoteNumber":66,"Velocity":40,"Duration":65502,"SoundDuration":65502,"Delta":237145445},{"NoteNumber":63,"Velocity":33,"Duration":65502,"SoundDuration":65502,"Delta":237145445},{"NoteNumber":64,"Velocity":42,"Duration":31512,"SoundDuration":31512,"Delta":237210947},{"NoteNumber":67,"Velocity":50,"Duration":31512,"SoundDuration":31512,"Delta":237210947},{"NoteNumber":75,"Velocity":38,"Duration":63025,"SoundDuration":63025,"Delta":237400023},{"NoteNumber":72,"Velocity":32,"Duration":63025,"SoundDuration":63025,"Delta":237400023},{"NoteNumber":76,"Velocity":43,"Duration":31512,"SoundDuration":31512,"Delta":237463048},{"NoteNumber":73,"Velocity":36,"Duration":31512,"SoundDuration":31512,"Delta":237463048},{"NoteNumber":81,"Velocity":67,"Duration":126050,"SoundDuration":126050,"Delta":237589098},{"NoteNumber":69,"Velocity":56,"Duration":126050,"SoundDuration":126050,"Delta":237589098},{"NoteNumber":45,"Velocity":38,"Duration":126050,"SoundDuration":126050,"Delta":237589098},{"NoteNumber":57,"Velocity":47,"Duration":126050,"SoundDuration":126050,"Delta":237589098},{"NoteNumber":84,"Velocity":62,"Duration":518554,"SoundDuration":518554,"Delta":237715149},{"NoteNumber":78,"Velocity":62,"Duration":518554,"SoundDuration":518554,"Delta":237715149},{"NoteNumber":90,"Velocity":73,"Duration":518554,"SoundDuration":518554,"Delta":237715149},{"NoteNumber":46,"Velocity":43,"Duration":518554,"SoundDuration":518554,"Delta":237715149},{"NoteNumber":58,"Velocity":52,"Duration":518554,"SoundDuration":518554,"Delta":237715149},{"NoteNumber":51,"Velocity":43,"Duration":518554,"SoundDuration":518554,"Delta":237715149},{"NoteNumber":62,"Velocity":33,"Duration":64935,"SoundDuration":64935,"Delta":237918769},{"NoteNumber":65,"Velocity":40,"Duration":64935,"SoundDuration":64935,"Delta":237918769},{"NoteNumber":63,"Velocity":43,"Duration":31250,"SoundDuration":31250,"Delta":237983704},{"NoteNumber":66,"Velocity":52,"Duration":31250,"SoundDuration":31250,"Delta":237983704},{"NoteNumber":74,"Velocity":40,"Duration":62500,"SoundDuration":62500,"Delta":238171204},{"NoteNumber":71,"Velocity":33,"Duration":62500,"SoundDuration":62500,"Delta":238171204},{"NoteNumber":75,"Velocity":43,"Duration":31645,"SoundDuration":31645,"Delta":238233704},{"NoteNumber":72,"Velocity":36,"Duration":31645,"SoundDuration":31645,"Delta":238233704},{"NoteNumber":69,"Velocity":62,"Duration":500215,"SoundDuration":500215,"Delta":238486868},{"NoteNumber":81,"Velocity":73,"Duration":500215,"SoundDuration":500215,"Delta":238486868},{"NoteNumber":45,"Velocity":43,"Duration":500215,"SoundDuration":500215,"Delta":238486868},{"NoteNumber":57,"Velocity":52,"Duration":500215,"SoundDuration":500215,"Delta":238486868},{"NoteNumber":65,"Velocity":40,"Duration":65789,"SoundDuration":65789,"Delta":238671294},{"NoteNumber":62,"Velocity":33,"Duration":65789,"SoundDuration":65789,"Delta":238671294},{"NoteNumber":63,"Velocity":42,"Duration":31250,"SoundDuration":31250,"Delta":238737084},{"NoteNumber":66,"Velocity":51,"Duration":31250,"SoundDuration":31250,"Delta":238737084},{"NoteNumber":74,"Velocity":38,"Duration":62500,"SoundDuration":62500,"Delta":238924584},{"NoteNumber":71,"Velocity":32,"Duration":62500,"SoundDuration":62500,"Delta":238924584},{"NoteNumber":75,"Velocity":43,"Duration":32327,"SoundDuration":32327,"Delta":238987084},{"NoteNumber":72,"Velocity":36,"Duration":32327,"SoundDuration":32327,"Delta":238987084},{"NoteNumber":81,"Velocity":70,"Duration":129310,"SoundDuration":129310,"Delta":239116394},{"NoteNumber":69,"Velocity":58,"Duration":129310,"SoundDuration":129310,"Delta":239116394},{"NoteNumber":45,"Velocity":33,"Duration":129310,"SoundDuration":129310,"Delta":239116394},{"NoteNumber":57,"Velocity":47,"Duration":129310,"SoundDuration":129310,"Delta":239116394},{"NoteNumber":77,"Velocity":65,"Duration":513769,"SoundDuration":513769,"Delta":239245704},{"NoteNumber":89,"Velocity":77,"Duration":513769,"SoundDuration":513769,"Delta":239245704},{"NoteNumber":80,"Velocity":65,"Duration":513769,"SoundDuration":513769,"Delta":239245704},{"NoteNumber":59,"Velocity":51,"Duration":513769,"SoundDuration":513769,"Delta":239245704},{"NoteNumber":50,"Velocity":42,"Duration":513769,"SoundDuration":513769,"Delta":239245704},{"NoteNumber":47,"Velocity":42,"Duration":513769,"SoundDuration":513769,"Delta":239245704},{"NoteNumber":64,"Velocity":41,"Duration":64655,"SoundDuration":64655,"Delta":239444819},{"NoteNumber":61,"Velocity":35,"Duration":64655,"SoundDuration":64655,"Delta":239444819},{"NoteNumber":62,"Velocity":43,"Duration":31250,"SoundDuration":31250,"Delta":239509474},{"NoteNumber":65,"Velocity":52,"Duration":31250,"SoundDuration":31250,"Delta":239509474},{"NoteNumber":70,"Velocity":41,"Duration":62500,"SoundDuration":62500,"Delta":239696974},{"NoteNumber":67,"Velocity":35,"Duration":62500,"SoundDuration":62500,"Delta":239696974},{"NoteNumber":68,"Velocity":43,"Duration":31914,"SoundDuration":31914,"Delta":239759474},{"NoteNumber":71,"Velocity":52,"Duration":31914,"SoundDuration":31914,"Delta":239759474},{"NoteNumber":89,"Velocity":76,"Duration":127659,"SoundDuration":127659,"Delta":239887134},{"NoteNumber":77,"Velocity":63,"Duration":127659,"SoundDuration":127659,"Delta":239887134},{"NoteNumber":76,"Velocity":67,"Duration":505702,"SoundDuration":505702,"Delta":240014793},{"NoteNumber":80,"Velocity":67,"Duration":505702,"SoundDuration":505702,"Delta":240014793},{"NoteNumber":88,"Velocity":80,"Duration":505702,"SoundDuration":505702,"Delta":240014793},{"NoteNumber":40,"Velocity":42,"Duration":505702,"SoundDuration":505702,"Delta":240014793},{"NoteNumber":52,"Velocity":51,"Duration":505702,"SoundDuration":505702,"Delta":240014793},{"NoteNumber":47,"Velocity":42,"Duration":505702,"SoundDuration":505702,"Delta":240014793},{"NoteNumber":58,"Velocity":40,"Duration":66371,"SoundDuration":66371,"Delta":240203078},{"NoteNumber":55,"Velocity":33,"Duration":66371,"SoundDuration":66371,"Delta":240203078},{"NoteNumber":56,"Velocity":42,"Duration":31380,"SoundDuration":31380,"Delta":240269450},{"NoteNumber":59,"Velocity":51,"Duration":31380,"SoundDuration":31380,"Delta":240269450},{"NoteNumber":67,"Velocity":40,"Duration":62761,"SoundDuration":62761,"Delta":240457734},{"NoteNumber":63,"Velocity":33,"Duration":62761,"SoundDuration":62761,"Delta":240457734},{"NoteNumber":64,"Velocity":52,"Duration":32188,"SoundDuration":32188,"Delta":240520496},{"NoteNumber":68,"Velocity":43,"Duration":32188,"SoundDuration":32188,"Delta":240520496},{"NoteNumber":74,"Velocity":65,"Duration":128755,"SoundDuration":128755,"Delta":240649251},{"NoteNumber":86,"Velocity":77,"Duration":128755,"SoundDuration":128755,"Delta":240649251},{"NoteNumber":85,"Velocity":81,"Duration":519739,"SoundDuration":519739,"Delta":240778006},{"NoteNumber":73,"Velocity":68,"Duration":519739,"SoundDuration":519739,"Delta":240778006},{"NoteNumber":81,"Velocity":68,"Duration":519739,"SoundDuration":519739,"Delta":240778006},{"NoteNumber":45,"Velocity":51,"Duration":519739,"SoundDuration":519739,"Delta":240778006},{"NoteNumber":52,"Velocity":51,"Duration":519739,"SoundDuration":519739,"Delta":240778006},{"NoteNumber":57,"Velocity":51,"Duration":519739,"SoundDuration":519739,"Delta":240778006},{"NoteNumber":63,"Velocity":38,"Duration":65502,"SoundDuration":65502,"Delta":240978006},{"NoteNumber":60,"Velocity":32,"Duration":65502,"SoundDuration":65502,"Delta":240978006},{"NoteNumber":61,"Velocity":36,"Duration":31779,"SoundDuration":31779,"Delta":241043508},{"NoteNumber":64,"Velocity":43,"Duration":31779,"SoundDuration":31779,"Delta":241043508},{"NoteNumber":72,"Velocity":40,"Duration":63559,"SoundDuration":63559,"Delta":241234186},{"NoteNumber":68,"Velocity":33,"Duration":63559,"SoundDuration":63559,"Delta":241234186},{"NoteNumber":69,"Velocity":36,"Duration":31779,"SoundDuration":31779,"Delta":241297746},{"NoteNumber":73,"Velocity":43,"Duration":31779,"SoundDuration":31779,"Delta":241297746},{"NoteNumber":88,"Velocity":72,"Duration":129638,"SoundDuration":129638,"Delta":241424864},{"NoteNumber":76,"Velocity":61,"Duration":129638,"SoundDuration":129638,"Delta":241424864},{"NoteNumber":81,"Velocity":77,"Duration":512821,"SoundDuration":512821,"Delta":241554503},{"NoteNumber":73,"Velocity":65,"Duration":512821,"SoundDuration":512821,"Delta":241554503},{"NoteNumber":69,"Velocity":65,"Duration":512821,"SoundDuration":512821,"Delta":241554503},{"NoteNumber":45,"Velocity":42,"Duration":512821,"SoundDuration":512821,"Delta":241554503},{"NoteNumber":57,"Velocity":51,"Duration":512821,"SoundDuration":512821,"Delta":241554503},{"NoteNumber":52,"Velocity":42,"Duration":512821,"SoundDuration":512821,"Delta":241554503},{"NoteNumber":63,"Velocity":40,"Duration":64102,"SoundDuration":64102,"Delta":241746811},{"NoteNumber":60,"Velocity":33,"Duration":64102,"SoundDuration":64102,"Delta":241746811},{"NoteNumber":61,"Velocity":36,"Duration":32051,"SoundDuration":32051,"Delta":241810913},{"NoteNumber":64,"Velocity":43,"Duration":32051,"SoundDuration":32051,"Delta":241810913},{"NoteNumber":68,"Velocity":35,"Duration":64102,"SoundDuration":64102,"Delta":242003221},{"NoteNumber":72,"Velocity":41,"Duration":64102,"SoundDuration":64102,"Delta":242003221},{"NoteNumber":73,"Velocity":43,"Duration":32051,"SoundDuration":32051,"Delta":242067324},{"NoteNumber":69,"Velocity":36,"Duration":32051,"SoundDuration":32051,"Delta":242067324},{"NoteNumber":57,"Velocity":61,"Duration":128205,"SoundDuration":128205,"Delta":242195529},{"NoteNumber":69,"Velocity":72,"Duration":128205,"SoundDuration":128205,"Delta":242195529},{"NoteNumber":45,"Velocity":47,"Duration":128205,"SoundDuration":128205,"Delta":242195529},{"NoteNumber":33,"Velocity":41,"Duration":128205,"SoundDuration":128205,"Delta":242195529},{"NoteNumber":73,"Velocity":57,"Duration":523957,"SoundDuration":523957,"Delta":242323734},{"NoteNumber":79,"Velocity":67,"Duration":523957,"SoundDuration":523957,"Delta":242323734},{"NoteNumber":67,"Velocity":57,"Duration":523957,"SoundDuration":523957,"Delta":242323734},{"NoteNumber":46,"Velocity":48,"Duration":523957,"SoundDuration":523957,"Delta":242323734},{"NoteNumber":34,"Velocity":40,"Duration":523957,"SoundDuration":523957,"Delta":242323734},{"NoteNumber":40,"Velocity":40,"Duration":523957,"SoundDuration":523957,"Delta":242323734},{"NoteNumber":51,"Velocity":31,"Duration":64655,"SoundDuration":64655,"Delta":242533037},{"NoteNumber":54,"Velocity":36,"Duration":64655,"SoundDuration":64655,"Delta":242533037},{"NoteNumber":55,"Velocity":46,"Duration":31250,"SoundDuration":31250,"Delta":242597692},{"NoteNumber":52,"Velocity":39,"Duration":31250,"SoundDuration":31250,"Delta":242597692},{"NoteNumber":63,"Velocity":29,"Duration":62500,"SoundDuration":62500,"Delta":242785192},{"NoteNumber":60,"Velocity":35,"Duration":62500,"SoundDuration":62500,"Delta":242785192},{"NoteNumber":64,"Velocity":40,"Duration":32467,"SoundDuration":32467,"Delta":242847692},{"NoteNumber":61,"Velocity":40,"Duration":32467,"SoundDuration":32467,"Delta":242847692},{"NoteNumber":57,"Velocity":57,"Duration":505103,"SoundDuration":505103,"Delta":243107433},{"NoteNumber":69,"Velocity":67,"Duration":505103,"SoundDuration":505103,"Delta":243107433},{"NoteNumber":45,"Velocity":48,"Duration":505103,"SoundDuration":505103,"Delta":243107433},{"NoteNumber":33,"Velocity":40,"Duration":505103,"SoundDuration":505103,"Delta":243107433},{"NoteNumber":51,"Velocity":31,"Duration":65502,"SoundDuration":65502,"Delta":243294933},{"NoteNumber":54,"Velocity":36,"Duration":65502,"SoundDuration":65502,"Delta":243294933},{"NoteNumber":52,"Velocity":39,"Duration":31512,"SoundDuration":31512,"Delta":243360435},{"NoteNumber":55,"Velocity":46,"Duration":31512,"SoundDuration":31512,"Delta":243360435},{"NoteNumber":60,"Velocity":29,"Duration":63025,"SoundDuration":63025,"Delta":243549510},{"NoteNumber":63,"Velocity":35,"Duration":63025,"SoundDuration":63025,"Delta":243549510},{"NoteNumber":61,"Velocity":33,"Duration":31512,"SoundDuration":31512,"Delta":243612536},{"NoteNumber":64,"Velocity":40,"Duration":31512,"SoundDuration":31512,"Delta":243612536},{"NoteNumber":57,"Velocity":51,"Duration":126050,"SoundDuration":126050,"Delta":243738586},{"NoteNumber":69,"Velocity":62,"Duration":126050,"SoundDuration":126050,"Delta":243738586},{"NoteNumber":33,"Velocity":35,"Duration":126050,"SoundDuration":126050,"Delta":243738586},{"NoteNumber":45,"Velocity":43,"Duration":126050,"SoundDuration":126050,"Delta":243738586},{"NoteNumber":72,"Velocity":57,"Duration":518554,"SoundDuration":518554,"Delta":243864637},{"NoteNumber":66,"Velocity":57,"Duration":518554,"SoundDuration":518554,"Delta":243864637},{"NoteNumber":78,"Velocity":67,"Duration":518554,"SoundDuration":518554,"Delta":243864637},{"NoteNumber":46,"Velocity":48,"Duration":518554,"SoundDuration":518554,"Delta":243864637},{"NoteNumber":34,"Velocity":40,"Duration":518554,"SoundDuration":518554,"Delta":243864637},{"NoteNumber":39,"Velocity":40,"Duration":518554,"SoundDuration":518554,"Delta":243864637},{"NoteNumber":50,"Velocity":31,"Duration":64935,"SoundDuration":64935,"Delta":244068256},{"NoteNumber":53,"Velocity":36,"Duration":64935,"SoundDuration":64935,"Delta":244068256},{"NoteNumber":51,"Velocity":40,"Duration":31250,"SoundDuration":31250,"Delta":244133192},{"NoteNumber":54,"Velocity":48,"Duration":31250,"SoundDuration":31250,"Delta":244133192},{"NoteNumber":62,"Velocity":36,"Duration":62500,"SoundDuration":62500,"Delta":244320692},{"NoteNumber":59,"Velocity":31,"Duration":62500,"SoundDuration":62500,"Delta":244320692},{"NoteNumber":63,"Velocity":40,"Duration":31645,"SoundDuration":31645,"Delta":244383192},{"NoteNumber":60,"Velocity":33,"Duration":31645,"SoundDuration":31645,"Delta":244383192},{"NoteNumber":57,"Velocity":57,"Duration":500215,"SoundDuration":500215,"Delta":244636356},{"NoteNumber":69,"Velocity":67,"Duration":500215,"SoundDuration":500215,"Delta":244636356},{"NoteNumber":45,"Velocity":48,"Duration":500215,"SoundDuration":500215,"Delta":244636356},{"NoteNumber":33,"Velocity":40,"Duration":500215,"SoundDuration":500215,"Delta":244636356},{"NoteNumber":53,"Velocity":36,"Duration":65789,"SoundDuration":65789,"Delta":244820782},{"NoteNumber":50,"Velocity":31,"Duration":65789,"SoundDuration":65789,"Delta":244820782},{"NoteNumber":54,"Velocity":47,"Duration":31250,"SoundDuration":31250,"Delta":244886572},{"NoteNumber":51,"Velocity":39,"Duration":31250,"SoundDuration":31250,"Delta":244886572},{"NoteNumber":62,"Velocity":35,"Duration":62500,"SoundDuration":62500,"Delta":245074072},{"NoteNumber":59,"Velocity":29,"Duration":62500,"SoundDuration":62500,"Delta":245074072},{"NoteNumber":60,"Velocity":33,"Duration":32327,"SoundDuration":32327,"Delta":245136572},{"NoteNumber":63,"Velocity":40,"Duration":32327,"SoundDuration":32327,"Delta":245136572},{"NoteNumber":69,"Velocity":64,"Duration":129310,"SoundDuration":129310,"Delta":245265882},{"NoteNumber":57,"Velocity":54,"Duration":129310,"SoundDuration":129310,"Delta":245265882},{"NoteNumber":33,"Velocity":31,"Duration":129310,"SoundDuration":129310,"Delta":245265882},{"NoteNumber":45,"Velocity":43,"Duration":129310,"SoundDuration":129310,"Delta":245265882},{"NoteNumber":65,"Velocity":59,"Duration":513769,"SoundDuration":513769,"Delta":245395192},{"NoteNumber":68,"Velocity":59,"Duration":513769,"SoundDuration":513769,"Delta":245395192},{"NoteNumber":77,"Velocity":71,"Duration":513769,"SoundDuration":513769,"Delta":245395192},{"NoteNumber":47,"Velocity":47,"Duration":513769,"SoundDuration":513769,"Delta":245395192},{"NoteNumber":35,"Velocity":39,"Duration":513769,"SoundDuration":513769,"Delta":245395192},{"NoteNumber":38,"Velocity":39,"Duration":513769,"SoundDuration":513769,"Delta":245395192},{"NoteNumber":55,"Velocity":37,"Duration":64655,"SoundDuration":64655,"Delta":245594307},{"NoteNumber":52,"Velocity":32,"Duration":64655,"SoundDuration":64655,"Delta":245594307},{"NoteNumber":56,"Velocity":48,"Duration":31250,"SoundDuration":31250,"Delta":245658962},{"NoteNumber":53,"Velocity":40,"Duration":31250,"SoundDuration":31250,"Delta":245658962},{"NoteNumber":61,"Velocity":32,"Duration":62500,"SoundDuration":62500,"Delta":245846462},{"NoteNumber":64,"Velocity":37,"Duration":62500,"SoundDuration":62500,"Delta":245846462},{"NoteNumber":65,"Velocity":48,"Duration":31914,"SoundDuration":31914,"Delta":245908962},{"NoteNumber":62,"Velocity":40,"Duration":31914,"SoundDuration":31914,"Delta":245908962},{"NoteNumber":65,"Velocity":58,"Duration":127659,"SoundDuration":127659,"Delta":246036622},{"NoteNumber":77,"Velocity":70,"Duration":127659,"SoundDuration":127659,"Delta":246036622},{"NoteNumber":68,"Velocity":62,"Duration":505702,"SoundDuration":505702,"Delta":246164281},{"NoteNumber":76,"Velocity":73,"Duration":505702,"SoundDuration":505702,"Delta":246164281},{"NoteNumber":64,"Velocity":62,"Duration":505702,"SoundDuration":505702,"Delta":246164281},{"NoteNumber":34,"Velocity":39,"Duration":505702,"SoundDuration":505702,"Delta":246164281},{"NoteNumber":38,"Velocity":39,"Duration":505702,"SoundDuration":505702,"Delta":246164281},{"NoteNumber":46,"Velocity":47,"Duration":505702,"SoundDuration":505702,"Delta":246164281},{"NoteNumber":51,"Velocity":36,"Duration":66371,"SoundDuration":66371,"Delta":246352566},{"NoteNumber":52,"Velocity":47,"Duration":31380,"SoundDuration":31380,"Delta":246418937},{"NoteNumber":55,"Velocity":36,"Duration":62761,"SoundDuration":62761,"Delta":246607222},{"NoteNumber":56,"Velocity":40,"Duration":32188,"SoundDuration":32188,"Delta":246669983},{"NoteNumber":74,"Velocity":71,"Duration":128755,"SoundDuration":128755,"Delta":246798739},{"NoteNumber":62,"Velocity":59,"Duration":128755,"SoundDuration":128755,"Delta":246798739},{"NoteNumber":69,"Velocity":63,"Duration":264765,"SoundDuration":264765,"Delta":246927494},{"NoteNumber":61,"Velocity":63,"Duration":264765,"SoundDuration":264765,"Delta":246927494},{"NoteNumber":73,"Velocity":74,"Duration":264765,"SoundDuration":264765,"Delta":246927494},{"NoteNumber":33,"Velocity":47,"Duration":264765,"SoundDuration":264765,"Delta":246927494},{"NoteNumber":45,"Velocity":47,"Duration":264765,"SoundDuration":264765,"Delta":246927494},{"NoteNumber":40,"Velocity":47,"Duration":264765,"SoundDuration":264765,"Delta":246927494},{"NoteNumber":46,"Velocity":43,"Duration":125788,"SoundDuration":125788,"Delta":247192259},{"NoteNumber":55,"Velocity":51,"Duration":125788,"SoundDuration":125788,"Delta":247192259},{"NoteNumber":64,"Velocity":49,"Duration":124225,"SoundDuration":124225,"Delta":247318047},{"NoteNumber":73,"Velocity":58,"Duration":124225,"SoundDuration":124225,"Delta":247318047},{"NoteNumber":49,"Velocity":44,"Duration":122701,"SoundDuration":122701,"Delta":247442273},{"NoteNumber":58,"Velocity":53,"Duration":122701,"SoundDuration":122701,"Delta":247442273},{"NoteNumber":67,"Velocity":51,"Duration":121213,"SoundDuration":121213,"Delta":247564974},{"NoteNumber":76,"Velocity":60,"Duration":121213,"SoundDuration":121213,"Delta":247564974},{"NoteNumber":61,"Velocity":55,"Duration":121050,"SoundDuration":121050,"Delta":247686188},{"NoteNumber":52,"Velocity":47,"Duration":121050,"SoundDuration":121050,"Delta":247686188},{"NoteNumber":70,"Velocity":63,"Duration":122450,"SoundDuration":122450,"Delta":247807238},{"NoteNumber":79,"Velocity":63,"Duration":122450,"SoundDuration":122450,"Delta":247807238},{"NoteNumber":64,"Velocity":58,"Duration":123797,"SoundDuration":123797,"Delta":247929688},{"NoteNumber":55,"Velocity":49,"Duration":123797,"SoundDuration":123797,"Delta":247929688},{"NoteNumber":82,"Velocity":65,"Duration":125262,"SoundDuration":125262,"Delta":248053486},{"NoteNumber":73,"Velocity":54,"Duration":125262,"SoundDuration":125262,"Delta":248053486},{"NoteNumber":83,"Velocity":80,"Duration":137614,"SoundDuration":137614,"Delta":248178749},{"NoteNumber":80,"Velocity":67,"Duration":137614,"SoundDuration":137614,"Delta":248178749},{"NoteNumber":71,"Velocity":67,"Duration":137614,"SoundDuration":137614,"Delta":248178749},{"NoteNumber":77,"Velocity":67,"Duration":137614,"SoundDuration":137614,"Delta":248178749},{"NoteNumber":50,"Velocity":59,"Duration":137614,"SoundDuration":137614,"Delta":248178749},{"NoteNumber":62,"Velocity":72,"Duration":137614,"SoundDuration":137614,"Delta":248178749},{"NoteNumber":76,"Velocity":71,"Duration":131578,"SoundDuration":131578,"Delta":248453978},{"NoteNumber":88,"Velocity":84,"Duration":131578,"SoundDuration":131578,"Delta":248453978},{"NoteNumber":85,"Velocity":71,"Duration":131578,"SoundDuration":131578,"Delta":248453978},{"NoteNumber":81,"Velocity":71,"Duration":131578,"SoundDuration":131578,"Delta":248453978},{"NoteNumber":57,"Velocity":75,"Duration":131578,"SoundDuration":131578,"Delta":248453978},{"NoteNumber":45,"Velocity":63,"Duration":131578,"SoundDuration":131578,"Delta":248453978},{"NoteNumber":67,"Velocity":66,"Duration":124224,"SoundDuration":124224,"Delta":248717136},{"NoteNumber":58,"Velocity":55,"Duration":124224,"SoundDuration":124224,"Delta":248717136},{"NoteNumber":85,"Velocity":64,"Duration":123035,"SoundDuration":123035,"Delta":248841360},{"NoteNumber":76,"Velocity":53,"Duration":123035,"SoundDuration":123035,"Delta":248841360},{"NoteNumber":61,"Velocity":57,"Duration":121869,"SoundDuration":121869,"Delta":248964396},{"NoteNumber":70,"Velocity":69,"Duration":121869,"SoundDuration":121869,"Delta":248964396},{"NoteNumber":79,"Velocity":55,"Duration":120564,"SoundDuration":120564,"Delta":249086266},{"NoteNumber":88,"Velocity":66,"Duration":120564,"SoundDuration":120564,"Delta":249086266},{"NoteNumber":73,"Velocity":69,"Duration":121133,"SoundDuration":121133,"Delta":249206830},{"NoteNumber":64,"Velocity":60,"Duration":121133,"SoundDuration":121133,"Delta":249206830},{"NoteNumber":91,"Velocity":69,"Duration":122869,"SoundDuration":122869,"Delta":249327963},{"NoteNumber":82,"Velocity":69,"Duration":122869,"SoundDuration":122869,"Delta":249327963},{"NoteNumber":67,"Velocity":64,"Duration":124742,"SoundDuration":124742,"Delta":249450832},{"NoteNumber":76,"Velocity":75,"Duration":124742,"SoundDuration":124742,"Delta":249450832},{"NoteNumber":94,"Velocity":71,"Duration":126673,"SoundDuration":126673,"Delta":249575574},{"NoteNumber":85,"Velocity":59,"Duration":126673,"SoundDuration":126673,"Delta":249575574},{"NoteNumber":89,"Velocity":64,"Duration":138889,"SoundDuration":138889,"Delta":249702248},{"NoteNumber":83,"Velocity":64,"Duration":138889,"SoundDuration":138889,"Delta":249702248},{"NoteNumber":92,"Velocity":64,"Duration":138889,"SoundDuration":138889,"Delta":249702248},{"NoteNumber":95,"Velocity":77,"Duration":138889,"SoundDuration":138889,"Delta":249702248},{"NoteNumber":62,"Velocity":72,"Duration":138889,"SoundDuration":138889,"Delta":249702248},{"NoteNumber":74,"Velocity":86,"Duration":138889,"SoundDuration":138889,"Delta":249702248},{"NoteNumber":97,"Velocity":67,"Duration":129310,"SoundDuration":129310,"Delta":249980026},{"NoteNumber":88,"Velocity":67,"Duration":129310,"SoundDuration":129310,"Delta":249980026},{"NoteNumber":93,"Velocity":67,"Duration":129310,"SoundDuration":129310,"Delta":249980026},{"NoteNumber":100,"Velocity":79,"Duration":129310,"SoundDuration":129310,"Delta":249980026},{"NoteNumber":69,"Velocity":71,"Duration":129310,"SoundDuration":129310,"Delta":249980026},{"NoteNumber":57,"Velocity":59,"Duration":129310,"SoundDuration":129310,"Delta":249980026},{"NoteNumber":92,"Velocity":57,"Duration":137614,"SoundDuration":137614,"Delta":250367957},{"NoteNumber":95,"Velocity":69,"Duration":137614,"SoundDuration":137614,"Delta":250367957},{"NoteNumber":83,"Velocity":57,"Duration":137614,"SoundDuration":137614,"Delta":250367957},{"NoteNumber":89,"Velocity":57,"Duration":137614,"SoundDuration":137614,"Delta":250367957},{"NoteNumber":62,"Velocity":86,"Duration":137614,"SoundDuration":137614,"Delta":250367957},{"NoteNumber":50,"Velocity":72,"Duration":137614,"SoundDuration":137614,"Delta":250367957},{"NoteNumber":97,"Velocity":59,"Duration":125522,"SoundDuration":125522,"Delta":250505572},{"NoteNumber":100,"Velocity":71,"Duration":125522,"SoundDuration":125522,"Delta":250505572},{"NoteNumber":93,"Velocity":59,"Duration":125522,"SoundDuration":125522,"Delta":250505572},{"NoteNumber":88,"Velocity":59,"Duration":125522,"SoundDuration":125522,"Delta":250505572},{"NoteNumber":57,"Velocity":64,"Duration":125522,"SoundDuration":125522,"Delta":250505572},{"NoteNumber":45,"Velocity":53,"Duration":125522,"SoundDuration":125522,"Delta":250505572},{"NoteNumber":92,"Velocity":57,"Duration":133928,"SoundDuration":133928,"Delta":250756618},{"NoteNumber":83,"Velocity":57,"Duration":133928,"SoundDuration":133928,"Delta":250756618},{"NoteNumber":95,"Velocity":70,"Duration":133928,"SoundDuration":133928,"Delta":250756618},{"NoteNumber":89,"Velocity":57,"Duration":133928,"SoundDuration":133928,"Delta":250756618},{"NoteNumber":38,"Velocity":72,"Duration":133928,"SoundDuration":133928,"Delta":250756618},{"NoteNumber":50,"Velocity":86,"Duration":133928,"SoundDuration":133928,"Delta":250756618},{"NoteNumber":93,"Velocity":61,"Duration":127118,"SoundDuration":127118,"Delta":251024475},{"NoteNumber":97,"Velocity":61,"Duration":127118,"SoundDuration":127118,"Delta":251024475},{"NoteNumber":100,"Velocity":73,"Duration":127118,"SoundDuration":127118,"Delta":251024475},{"NoteNumber":88,"Velocity":61,"Duration":127118,"SoundDuration":127118,"Delta":251024475},{"NoteNumber":45,"Velocity":65,"Duration":127118,"SoundDuration":127118,"Delta":251024475},{"NoteNumber":33,"Velocity":55,"Duration":127118,"SoundDuration":127118,"Delta":251024475},{"NoteNumber":83,"Velocity":59,"Duration":134529,"SoundDuration":134529,"Delta":251278712},{"NoteNumber":92,"Velocity":59,"Duration":134529,"SoundDuration":134529,"Delta":251278712},{"NoteNumber":89,"Velocity":59,"Duration":134529,"SoundDuration":134529,"Delta":251278712},{"NoteNumber":95,"Velocity":71,"Duration":134529,"SoundDuration":134529,"Delta":251278712},{"NoteNumber":50,"Velocity":86,"Duration":134529,"SoundDuration":134529,"Delta":251278712},{"NoteNumber":38,"Velocity":72,"Duration":134529,"SoundDuration":134529,"Delta":251278712},{"NoteNumber":93,"Velocity":61,"Duration":125522,"SoundDuration":125522,"Delta":251547771},{"NoteNumber":97,"Velocity":61,"Duration":125522,"SoundDuration":125522,"Delta":251547771},{"NoteNumber":100,"Velocity":74,"Duration":125522,"SoundDuration":125522,"Delta":251547771},{"NoteNumber":88,"Velocity":61,"Duration":125522,"SoundDuration":125522,"Delta":251547771},{"NoteNumber":45,"Velocity":66,"Duration":125522,"SoundDuration":125522,"Delta":251547771},{"NoteNumber":33,"Velocity":55,"Duration":125522,"SoundDuration":125522,"Delta":251547771},{"NoteNumber":89,"Velocity":60,"Duration":138248,"SoundDuration":138248,"Delta":251930396},{"NoteNumber":95,"Velocity":73,"Duration":138248,"SoundDuration":138248,"Delta":251930396},{"NoteNumber":92,"Velocity":60,"Duration":138248,"SoundDuration":138248,"Delta":251930396},{"NoteNumber":83,"Velocity":60,"Duration":138248,"SoundDuration":138248,"Delta":251930396},{"NoteNumber":62,"Velocity":86,"Duration":138248,"SoundDuration":138248,"Delta":251930396},{"NoteNumber":50,"Velocity":72,"Duration":138248,"SoundDuration":138248,"Delta":251930396},{"NoteNumber":88,"Velocity":64,"Duration":126582,"SoundDuration":126582,"Delta":252068644},{"NoteNumber":93,"Velocity":64,"Duration":126582,"SoundDuration":126582,"Delta":252068644},{"NoteNumber":100,"Velocity":75,"Duration":126582,"SoundDuration":126582,"Delta":252068644},{"NoteNumber":97,"Velocity":64,"Duration":126582,"SoundDuration":126582,"Delta":252068644},{"NoteNumber":45,"Velocity":56,"Duration":126582,"SoundDuration":126582,"Delta":252068644},{"NoteNumber":57,"Velocity":67,"Duration":126582,"SoundDuration":126582,"Delta":252068644},{"NoteNumber":89,"Velocity":61,"Duration":132743,"SoundDuration":132743,"Delta":252321809},{"NoteNumber":92,"Velocity":61,"Duration":132743,"SoundDuration":132743,"Delta":252321809},{"NoteNumber":95,"Velocity":73,"Duration":132743,"SoundDuration":132743,"Delta":252321809},{"NoteNumber":83,"Velocity":61,"Duration":132743,"SoundDuration":132743,"Delta":252321809},{"NoteNumber":50,"Velocity":86,"Duration":132743,"SoundDuration":132743,"Delta":252321809},{"NoteNumber":38,"Velocity":72,"Duration":132743,"SoundDuration":132743,"Delta":252321809},{"NoteNumber":88,"Velocity":64,"Duration":127659,"SoundDuration":127659,"Delta":252587295},{"NoteNumber":97,"Velocity":64,"Duration":127659,"SoundDuration":127659,"Delta":252587295},{"NoteNumber":93,"Velocity":64,"Duration":127659,"SoundDuration":127659,"Delta":252587295},{"NoteNumber":100,"Velocity":76,"Duration":127659,"SoundDuration":127659,"Delta":252587295},{"NoteNumber":45,"Velocity":68,"Duration":127659,"SoundDuration":127659,"Delta":252587295},{"NoteNumber":33,"Velocity":57,"Duration":127659,"SoundDuration":127659,"Delta":252587295},{"NoteNumber":92,"Velocity":61,"Duration":135746,"SoundDuration":135746,"Delta":252842614},{"NoteNumber":89,"Velocity":61,"Duration":135746,"SoundDuration":135746,"Delta":252842614},{"NoteNumber":95,"Velocity":74,"Duration":135746,"SoundDuration":135746,"Delta":252842614},{"NoteNumber":83,"Velocity":61,"Duration":135746,"SoundDuration":135746,"Delta":252842614},{"NoteNumber":50,"Velocity":86,"Duration":135746,"SoundDuration":135746,"Delta":252842614},{"NoteNumber":38,"Velocity":72,"Duration":135746,"SoundDuration":135746,"Delta":252842614},{"NoteNumber":97,"Velocity":66,"Duration":135135,"SoundDuration":135135,"Delta":253114107},{"NoteNumber":88,"Velocity":66,"Duration":135135,"SoundDuration":135135,"Delta":253114107},{"NoteNumber":100,"Velocity":78,"Duration":135135,"SoundDuration":135135,"Delta":253114107},{"NoteNumber":93,"Velocity":66,"Duration":135135,"SoundDuration":135135,"Delta":253114107},{"NoteNumber":33,"Velocity":58,"Duration":135135,"SoundDuration":135135,"Delta":253114107},{"NoteNumber":45,"Velocity":69,"Duration":135135,"SoundDuration":135135,"Delta":253114107},{"NoteNumber":80,"Velocity":55,"Duration":126582,"SoundDuration":126582,"Delta":253384378},{"NoteNumber":68,"Velocity":47,"Duration":126582,"SoundDuration":126582,"Delta":253384378},{"NoteNumber":56,"Velocity":40,"Duration":126582,"SoundDuration":126582,"Delta":253384378},{"NoteNumber":44,"Velocity":34,"Duration":126582,"SoundDuration":126582,"Delta":253384378},{"NoteNumber":69,"Velocity":47,"Duration":126582,"SoundDuration":126582,"Delta":253510960},{"NoteNumber":81,"Velocity":55,"Duration":126582,"SoundDuration":126582,"Delta":253510960},{"NoteNumber":45,"Velocity":34,"Duration":126582,"SoundDuration":126582,"Delta":253510960},{"NoteNumber":57,"Velocity":40,"Duration":126582,"SoundDuration":126582,"Delta":253510960},{"NoteNumber":82,"Velocity":59,"Duration":131578,"SoundDuration":131578,"Delta":253637542},{"NoteNumber":70,"Velocity":50,"Duration":131578,"SoundDuration":131578,"Delta":253637542},{"NoteNumber":46,"Velocity":36,"Duration":131578,"SoundDuration":131578,"Delta":253637542},{"NoteNumber":58,"Velocity":45,"Duration":131578,"SoundDuration":131578,"Delta":253637542},{"NoteNumber":81,"Velocity":57,"Duration":127118,"SoundDuration":127118,"Delta":253900700},{"NoteNumber":69,"Velocity":49,"Duration":127118,"SoundDuration":127118,"Delta":253900700},{"NoteNumber":45,"Velocity":35,"Duration":127118,"SoundDuration":127118,"Delta":253900700},{"NoteNumber":57,"Velocity":42,"Duration":127118,"SoundDuration":127118,"Delta":253900700},{"NoteNumber":82,"Velocity":58,"Duration":127118,"SoundDuration":127118,"Delta":254027819},{"NoteNumber":70,"Velocity":49,"Duration":127118,"SoundDuration":127118,"Delta":254027819},{"NoteNumber":46,"Velocity":35,"Duration":127118,"SoundDuration":127118,"Delta":254027819},{"NoteNumber":58,"Velocity":44,"Duration":127118,"SoundDuration":127118,"Delta":254027819},{"NoteNumber":83,"Velocity":63,"Duration":131004,"SoundDuration":131004,"Delta":254154938},{"NoteNumber":71,"Velocity":53,"Duration":131004,"SoundDuration":131004,"Delta":254154938},{"NoteNumber":59,"Velocity":47,"Duration":131004,"SoundDuration":131004,"Delta":254154938},{"NoteNumber":47,"Velocity":38,"Duration":131004,"SoundDuration":131004,"Delta":254154938},{"NoteNumber":82,"Velocity":60,"Duration":127118,"SoundDuration":127118,"Delta":254416946},{"NoteNumber":70,"Velocity":51,"Duration":127118,"SoundDuration":127118,"Delta":254416946},{"NoteNumber":46,"Velocity":37,"Duration":127118,"SoundDuration":127118,"Delta":254416946},{"NoteNumber":58,"Velocity":46,"Duration":127118,"SoundDuration":127118,"Delta":254416946},{"NoteNumber":71,"Velocity":52,"Duration":127118,"SoundDuration":127118,"Delta":254544065},{"NoteNumber":83,"Velocity":61,"Duration":127118,"SoundDuration":127118,"Delta":254544065},{"NoteNumber":47,"Velocity":38,"Duration":127118,"SoundDuration":127118,"Delta":254544065},{"NoteNumber":59,"Velocity":46,"Duration":127118,"SoundDuration":127118,"Delta":254544065},{"NoteNumber":84,"Velocity":67,"Duration":131004,"SoundDuration":131004,"Delta":254671184},{"NoteNumber":72,"Velocity":55,"Duration":131004,"SoundDuration":131004,"Delta":254671184},{"NoteNumber":48,"Velocity":40,"Duration":131004,"SoundDuration":131004,"Delta":254671184},{"NoteNumber":60,"Velocity":49,"Duration":131004,"SoundDuration":131004,"Delta":254671184},{"NoteNumber":81,"Velocity":60,"Duration":129310,"SoundDuration":129310,"Delta":254933192},{"NoteNumber":69,"Velocity":51,"Duration":129310,"SoundDuration":129310,"Delta":254933192},{"NoteNumber":45,"Velocity":37,"Duration":129310,"SoundDuration":129310,"Delta":254933192},{"NoteNumber":57,"Velocity":46,"Duration":129310,"SoundDuration":129310,"Delta":254933192},{"NoteNumber":82,"Velocity":60,"Duration":129310,"SoundDuration":129310,"Delta":255062503},{"NoteNumber":70,"Velocity":51,"Duration":129310,"SoundDuration":129310,"Delta":255062503},{"NoteNumber":58,"Velocity":46,"Duration":129310,"SoundDuration":129310,"Delta":255062503},{"NoteNumber":46,"Velocity":37,"Duration":129310,"SoundDuration":129310,"Delta":255062503},{"NoteNumber":71,"Velocity":54,"Duration":131578,"SoundDuration":131578,"Delta":255191813},{"NoteNumber":83,"Velocity":64,"Duration":131578,"SoundDuration":131578,"Delta":255191813},{"NoteNumber":59,"Velocity":48,"Duration":131578,"SoundDuration":131578,"Delta":255191813},{"NoteNumber":47,"Velocity":39,"Duration":131578,"SoundDuration":131578,"Delta":255191813},{"NoteNumber":70,"Velocity":52,"Duration":128755,"SoundDuration":128755,"Delta":255454971},{"NoteNumber":82,"Velocity":61,"Duration":128755,"SoundDuration":128755,"Delta":255454971},{"NoteNumber":46,"Velocity":38,"Duration":128755,"SoundDuration":128755,"Delta":255454971},{"NoteNumber":58,"Velocity":46,"Duration":128755,"SoundDuration":128755,"Delta":255454971},{"NoteNumber":83,"Velocity":63,"Duration":128755,"SoundDuration":128755,"Delta":255583726},{"NoteNumber":71,"Velocity":53,"Duration":128755,"SoundDuration":128755,"Delta":255583726},{"NoteNumber":59,"Velocity":47,"Duration":128755,"SoundDuration":128755,"Delta":255583726},{"NoteNumber":47,"Velocity":38,"Duration":128755,"SoundDuration":128755,"Delta":255583726},{"NoteNumber":84,"Velocity":68,"Duration":132743,"SoundDuration":132743,"Delta":255712481},{"NoteNumber":72,"Velocity":57,"Duration":132743,"SoundDuration":132743,"Delta":255712481},{"NoteNumber":60,"Velocity":50,"Duration":132743,"SoundDuration":132743,"Delta":255712481},{"NoteNumber":48,"Velocity":42,"Duration":132743,"SoundDuration":132743,"Delta":255712481},{"NoteNumber":83,"Velocity":66,"Duration":128205,"SoundDuration":128205,"Delta":255977968},{"NoteNumber":71,"Velocity":55,"Duration":128205,"SoundDuration":128205,"Delta":255977968},{"NoteNumber":47,"Velocity":40,"Duration":128205,"SoundDuration":128205,"Delta":255977968},{"NoteNumber":59,"Velocity":49,"Duration":128205,"SoundDuration":128205,"Delta":255977968},{"NoteNumber":72,"Velocity":56,"Duration":128205,"SoundDuration":128205,"Delta":256106173},{"NoteNumber":84,"Velocity":67,"Duration":128205,"SoundDuration":128205,"Delta":256106173},{"NoteNumber":48,"Velocity":42,"Duration":128205,"SoundDuration":128205,"Delta":256106173},{"NoteNumber":60,"Velocity":49,"Duration":128205,"SoundDuration":128205,"Delta":256106173},{"NoteNumber":85,"Velocity":72,"Duration":131578,"SoundDuration":131578,"Delta":256234378},{"NoteNumber":73,"Velocity":60,"Duration":131578,"SoundDuration":131578,"Delta":256234378},{"NoteNumber":49,"Velocity":46,"Duration":131578,"SoundDuration":131578,"Delta":256234378},{"NoteNumber":61,"Velocity":53,"Duration":131578,"SoundDuration":131578,"Delta":256234378},{"NoteNumber":70,"Velocity":57,"Duration":128205,"SoundDuration":128205,"Delta":256497536},{"NoteNumber":82,"Velocity":69,"Duration":128205,"SoundDuration":128205,"Delta":256497536},{"NoteNumber":58,"Velocity":51,"Duration":128205,"SoundDuration":128205,"Delta":256497536},{"NoteNumber":46,"Velocity":42,"Duration":128205,"SoundDuration":128205,"Delta":256497536},{"NoteNumber":83,"Velocity":69,"Duration":128205,"SoundDuration":128205,"Delta":256625742},{"NoteNumber":71,"Velocity":57,"Duration":128205,"SoundDuration":128205,"Delta":256625742},{"NoteNumber":59,"Velocity":51,"Duration":128205,"SoundDuration":128205,"Delta":256625742},{"NoteNumber":47,"Velocity":42,"Duration":128205,"SoundDuration":128205,"Delta":256625742},{"NoteNumber":84,"Velocity":74,"Duration":132158,"SoundDuration":132158,"Delta":256753947},{"NoteNumber":72,"Velocity":61,"Duration":132158,"SoundDuration":132158,"Delta":256753947},{"NoteNumber":48,"Velocity":46,"Duration":132158,"SoundDuration":132158,"Delta":256753947},{"NoteNumber":60,"Velocity":55,"Duration":132158,"SoundDuration":132158,"Delta":256753947},{"NoteNumber":71,"Velocity":59,"Duration":128755,"SoundDuration":128755,"Delta":257018264},{"NoteNumber":83,"Velocity":71,"Duration":128755,"SoundDuration":128755,"Delta":257018264},{"NoteNumber":59,"Velocity":52,"Duration":128755,"SoundDuration":128755,"Delta":257018264},{"NoteNumber":47,"Velocity":45,"Duration":128755,"SoundDuration":128755,"Delta":257018264},{"NoteNumber":84,"Velocity":72,"Duration":128755,"SoundDuration":128755,"Delta":257147019},{"NoteNumber":72,"Velocity":60,"Duration":128755,"SoundDuration":128755,"Delta":257147019},{"NoteNumber":48,"Velocity":46,"Duration":128755,"SoundDuration":128755,"Delta":257147019},{"NoteNumber":60,"Velocity":53,"Duration":128755,"SoundDuration":128755,"Delta":257147019},{"NoteNumber":85,"Velocity":77,"Duration":133333,"SoundDuration":133333,"Delta":257275774},{"NoteNumber":73,"Velocity":64,"Duration":133333,"SoundDuration":133333,"Delta":257275774},{"NoteNumber":61,"Velocity":57,"Duration":133333,"SoundDuration":133333,"Delta":257275774},{"NoteNumber":49,"Velocity":48,"Duration":133333,"SoundDuration":133333,"Delta":257275774},{"NoteNumber":72,"Velocity":61,"Duration":130434,"SoundDuration":130434,"Delta":257542441},{"NoteNumber":84,"Velocity":74,"Duration":130434,"SoundDuration":130434,"Delta":257542441},{"NoteNumber":48,"Velocity":46,"Duration":130434,"SoundDuration":130434,"Delta":257542441},{"NoteNumber":60,"Velocity":55,"Duration":130434,"SoundDuration":130434,"Delta":257542441},{"NoteNumber":73,"Velocity":61,"Duration":179640,"SoundDuration":179640,"Delta":257672876},{"NoteNumber":85,"Velocity":74,"Duration":179640,"SoundDuration":179640,"Delta":257672876},{"NoteNumber":49,"Velocity":46,"Duration":179640,"SoundDuration":179640,"Delta":257672876},{"NoteNumber":61,"Velocity":55,"Duration":179640,"SoundDuration":179640,"Delta":257672876},{"NoteNumber":86,"Velocity":83,"Duration":209228,"SoundDuration":209228,"Delta":257852516},{"NoteNumber":74,"Velocity":70,"Duration":209228,"SoundDuration":209228,"Delta":257852516},{"NoteNumber":38,"Velocity":49,"Duration":209228,"SoundDuration":209228,"Delta":257852516},{"NoteNumber":50,"Velocity":58,"Duration":209228,"SoundDuration":209228,"Delta":257852516},{"NoteNumber":68,"Velocity":50,"Duration":66371,"SoundDuration":66371,"Delta":258061745},{"NoteNumber":65,"Velocity":42,"Duration":66371,"SoundDuration":66371,"Delta":258061745},{"NoteNumber":62,"Velocity":29,"Duration":66371,"SoundDuration":66371,"Delta":258061745},{"NoteNumber":53,"Velocity":29,"Duration":66371,"SoundDuration":66371,"Delta":258061745},{"NoteNumber":56,"Velocity":35,"Duration":66371,"SoundDuration":66371,"Delta":258061745},{"NoteNumber":69,"Velocity":60,"Duration":198822,"SoundDuration":198822,"Delta":258128117},{"NoteNumber":66,"Velocity":51,"Duration":198822,"SoundDuration":198822,"Delta":258128117},{"NoteNumber":57,"Velocity":42,"Duration":198822,"SoundDuration":198822,"Delta":258128117},{"NoteNumber":54,"Velocity":35,"Duration":198822,"SoundDuration":198822,"Delta":258128117},{"NoteNumber":86,"Velocity":83,"Duration":198237,"SoundDuration":198237,"Delta":258393019},{"NoteNumber":74,"Velocity":70,"Duration":198237,"SoundDuration":198237,"Delta":258393019},{"NoteNumber":50,"Velocity":49,"Duration":198237,"SoundDuration":198237,"Delta":258393019},{"NoteNumber":38,"Velocity":49,"Duration":198237,"SoundDuration":198237,"Delta":258393019},{"NoteNumber":68,"Velocity":50,"Duration":66079,"SoundDuration":66079,"Delta":258591256},{"NoteNumber":65,"Velocity":42,"Duration":66079,"SoundDuration":66079,"Delta":258591256},{"NoteNumber":56,"Velocity":35,"Duration":66079,"SoundDuration":66079,"Delta":258591256},{"NoteNumber":62,"Velocity":29,"Duration":66079,"SoundDuration":66079,"Delta":258591256},{"NoteNumber":53,"Velocity":29,"Duration":66079,"SoundDuration":66079,"Delta":258591256},{"NoteNumber":69,"Velocity":60,"Duration":203248,"SoundDuration":203248,"Delta":258657336},{"NoteNumber":66,"Velocity":51,"Duration":203248,"SoundDuration":203248,"Delta":258657336},{"NoteNumber":54,"Velocity":35,"Duration":203248,"SoundDuration":203248,"Delta":258657336},{"NoteNumber":57,"Velocity":42,"Duration":203248,"SoundDuration":203248,"Delta":258657336},{"NoteNumber":84,"Velocity":68,"Duration":142179,"SoundDuration":142179,"Delta":258789494},{"NoteNumber":72,"Velocity":57,"Duration":142179,"SoundDuration":142179,"Delta":258789494},{"NoteNumber":82,"Velocity":83,"Duration":198237,"SoundDuration":198237,"Delta":258931674},{"NoteNumber":70,"Velocity":70,"Duration":198237,"SoundDuration":198237,"Delta":258931674},{"NoteNumber":38,"Velocity":49,"Duration":198237,"SoundDuration":198237,"Delta":258931674},{"NoteNumber":50,"Velocity":58,"Duration":198237,"SoundDuration":198237,"Delta":258931674},{"NoteNumber":66,"Velocity":50,"Duration":66079,"SoundDuration":66079,"Delta":259129912},{"NoteNumber":63,"Velocity":42,"Duration":66079,"SoundDuration":66079,"Delta":259129912},{"NoteNumber":57,"Velocity":35,"Duration":66079,"SoundDuration":66079,"Delta":259129912},{"NoteNumber":54,"Velocity":29,"Duration":66079,"SoundDuration":66079,"Delta":259129912},{"NoteNumber":64,"Velocity":51,"Duration":202251,"SoundDuration":202251,"Delta":259195991},{"NoteNumber":67,"Velocity":60,"Duration":202251,"SoundDuration":202251,"Delta":259195991},{"NoteNumber":55,"Velocity":35,"Duration":202251,"SoundDuration":202251,"Delta":259195991},{"NoteNumber":58,"Velocity":42,"Duration":202251,"SoundDuration":202251,"Delta":259195991},{"NoteNumber":82,"Velocity":84,"Duration":199999,"SoundDuration":199999,"Delta":259468337},{"NoteNumber":70,"Velocity":71,"Duration":199999,"SoundDuration":199999,"Delta":259468337},{"NoteNumber":50,"Velocity":58,"Duration":199999,"SoundDuration":199999,"Delta":259468337},{"NoteNumber":38,"Velocity":49,"Duration":199999,"SoundDuration":199999,"Delta":259468337},{"NoteNumber":63,"Velocity":42,"Duration":66666,"SoundDuration":66666,"Delta":259668337},{"NoteNumber":66,"Velocity":50,"Duration":66666,"SoundDuration":66666,"Delta":259668337},{"NoteNumber":57,"Velocity":35,"Duration":66666,"SoundDuration":66666,"Delta":259668337},{"NoteNumber":54,"Velocity":29,"Duration":66666,"SoundDuration":66666,"Delta":259668337},{"NoteNumber":67,"Velocity":60,"Duration":205103,"SoundDuration":205103,"Delta":259735003},{"NoteNumber":64,"Velocity":51,"Duration":205103,"SoundDuration":205103,"Delta":259735003},{"NoteNumber":55,"Velocity":35,"Duration":205103,"SoundDuration":205103,"Delta":259735003},{"NoteNumber":58,"Velocity":42,"Duration":205103,"SoundDuration":205103,"Delta":259735003},{"NoteNumber":82,"Velocity":68,"Duration":143540,"SoundDuration":143540,"Delta":259868336},{"NoteNumber":70,"Velocity":57,"Duration":143540,"SoundDuration":143540,"Delta":259868336},{"NoteNumber":81,"Velocity":82,"Duration":200892,"SoundDuration":200892,"Delta":260011877},{"NoteNumber":69,"Velocity":69,"Duration":200892,"SoundDuration":200892,"Delta":260011877},{"NoteNumber":49,"Velocity":57,"Duration":200892,"SoundDuration":200892,"Delta":260011877},{"NoteNumber":37,"Velocity":48,"Duration":200892,"SoundDuration":200892,"Delta":260011877},{"NoteNumber":63,"Velocity":50,"Duration":66964,"SoundDuration":66964,"Delta":260212770},{"NoteNumber":60,"Velocity":42,"Duration":66964,"SoundDuration":66964,"Delta":260212770},{"NoteNumber":51,"Velocity":29,"Duration":66964,"SoundDuration":66964,"Delta":260212770},{"NoteNumber":54,"Velocity":35,"Duration":66964,"SoundDuration":66964,"Delta":260212770},{"NoteNumber":61,"Velocity":51,"Duration":226048,"SoundDuration":226048,"Delta":260279734},{"NoteNumber":64,"Velocity":60,"Duration":226048,"SoundDuration":226048,"Delta":260279734},{"NoteNumber":55,"Velocity":42,"Duration":226048,"SoundDuration":226048,"Delta":260279734},{"NoteNumber":52,"Velocity":35,"Duration":226048,"SoundDuration":226048,"Delta":260279734},{"NoteNumber":81,"Velocity":75,"Duration":165016,"SoundDuration":165016,"Delta":260423275},{"NoteNumber":69,"Velocity":63,"Duration":165016,"SoundDuration":165016,"Delta":260423275},{"NoteNumber":76,"Velocity":68,"Duration":205479,"SoundDuration":205479,"Delta":260588291},{"NoteNumber":88,"Velocity":83,"Duration":205479,"SoundDuration":205479,"Delta":260588291},{"NoteNumber":33,"Velocity":47,"Duration":205479,"SoundDuration":205479,"Delta":260588291},{"NoteNumber":45,"Velocity":56,"Duration":205479,"SoundDuration":205479,"Delta":260588291},{"NoteNumber":63,"Velocity":50,"Duration":68493,"SoundDuration":68493,"Delta":260793771},{"NoteNumber":60,"Velocity":42,"Duration":68493,"SoundDuration":68493,"Delta":260793771},{"NoteNumber":54,"Velocity":35,"Duration":68493,"SoundDuration":68493,"Delta":260793771},{"NoteNumber":51,"Velocity":29,"Duration":68493,"SoundDuration":68493,"Delta":260793771},{"NoteNumber":61,"Velocity":51,"Duration":209101,"SoundDuration":209101,"Delta":260862264},{"NoteNumber":64,"Velocity":60,"Duration":209101,"SoundDuration":209101,"Delta":260862264},{"NoteNumber":52,"Velocity":35,"Duration":209101,"SoundDuration":209101,"Delta":260862264},{"NoteNumber":55,"Velocity":42,"Duration":209101,"SoundDuration":209101,"Delta":260862264},{"NoteNumber":67,"Velocity":57,"Duration":144230,"SoundDuration":144230,"Delta":260999250},{"NoteNumber":79,"Velocity":68,"Duration":144230,"SoundDuration":144230,"Delta":260999250},{"NoteNumber":66,"Velocity":69,"Duration":203619,"SoundDuration":203619,"Delta":261143481},{"NoteNumber":78,"Velocity":82,"Duration":203619,"SoundDuration":203619,"Delta":261143481},{"NoteNumber":50,"Velocity":57,"Duration":203619,"SoundDuration":203619,"Delta":261143481},{"NoteNumber":38,"Velocity":48,"Duration":203619,"SoundDuration":203619,"Delta":261143481},{"NoteNumber":65,"Velocity":42,"Duration":67873,"SoundDuration":67873,"Delta":261347101},{"NoteNumber":68,"Velocity":50,"Duration":67873,"SoundDuration":67873,"Delta":261347101},{"NoteNumber":53,"Velocity":29,"Duration":67873,"SoundDuration":67873,"Delta":261347101},{"NoteNumber":62,"Velocity":29,"Duration":67873,"SoundDuration":67873,"Delta":261347101},{"NoteNumber":56,"Velocity":35,"Duration":67873,"SoundDuration":67873,"Delta":261347101},{"NoteNumber":66,"Velocity":51,"Duration":203619,"SoundDuration":203619,"Delta":261414974},{"NoteNumber":69,"Velocity":60,"Duration":203619,"SoundDuration":203619,"Delta":261414974},{"NoteNumber":57,"Velocity":42,"Duration":203619,"SoundDuration":203619,"Delta":261414974},{"NoteNumber":54,"Velocity":35,"Duration":203619,"SoundDuration":203619,"Delta":261414974},{"NoteNumber":69,"Velocity":55,"Duration":135746,"SoundDuration":135746,"Delta":261550720},{"NoteNumber":81,"Velocity":65,"Duration":135746,"SoundDuration":135746,"Delta":261550720},{"NoteNumber":74,"Velocity":79,"Duration":208333,"SoundDuration":208333,"Delta":261686467},{"NoteNumber":62,"Velocity":67,"Duration":208333,"SoundDuration":208333,"Delta":261686467},{"NoteNumber":38,"Velocity":46,"Duration":208333,"SoundDuration":208333,"Delta":261686467},{"NoteNumber":50,"Velocity":55,"Duration":208333,"SoundDuration":208333,"Delta":261686467},{"NoteNumber":65,"Velocity":50,"Duration":69444,"SoundDuration":69444,"Delta":261894800},{"NoteNumber":61,"Velocity":42,"Duration":69444,"SoundDuration":69444,"Delta":261894800},{"NoteNumber":56,"Velocity":35,"Duration":69444,"SoundDuration":69444,"Delta":261894800},{"NoteNumber":53,"Velocity":29,"Duration":69444,"SoundDuration":69444,"Delta":261894800},{"NoteNumber":66,"Velocity":60,"Duration":219534,"SoundDuration":219534,"Delta":261964245},{"NoteNumber":62,"Velocity":51,"Duration":219534,"SoundDuration":219534,"Delta":261964245},{"NoteNumber":57,"Velocity":42,"Duration":219534,"SoundDuration":219534,"Delta":261964245},{"NoteNumber":54,"Velocity":35,"Duration":219534,"SoundDuration":219534,"Delta":261964245},{"NoteNumber":73,"Velocity":70,"Duration":209228,"SoundDuration":209228,"Delta":262264424},{"NoteNumber":85,"Velocity":83,"Duration":209228,"SoundDuration":209228,"Delta":262264424},{"NoteNumber":37,"Velocity":49,"Duration":209228,"SoundDuration":209228,"Delta":262264424},{"NoteNumber":49,"Velocity":58,"Duration":209228,"SoundDuration":209228,"Delta":262264424},{"NoteNumber":64,"Velocity":42,"Duration":66371,"SoundDuration":66371,"Delta":262473653},{"NoteNumber":67,"Velocity":50,"Duration":66371,"SoundDuration":66371,"Delta":262473653},{"NoteNumber":61,"Velocity":29,"Duration":66371,"SoundDuration":66371,"Delta":262473653},{"NoteNumber":55,"Velocity":35,"Duration":66371,"SoundDuration":66371,"Delta":262473653},{"NoteNumber":52,"Velocity":29,"Duration":66371,"SoundDuration":66371,"Delta":262473653},{"NoteNumber":68,"Velocity":60,"Duration":198822,"SoundDuration":198822,"Delta":262540025},{"NoteNumber":65,"Velocity":51,"Duration":198822,"SoundDuration":198822,"Delta":262540025},{"NoteNumber":53,"Velocity":35,"Duration":198822,"SoundDuration":198822,"Delta":262540025},{"NoteNumber":56,"Velocity":42,"Duration":198822,"SoundDuration":198822,"Delta":262540025},{"NoteNumber":73,"Velocity":70,"Duration":198237,"SoundDuration":198237,"Delta":262804926},{"NoteNumber":85,"Velocity":83,"Duration":198237,"SoundDuration":198237,"Delta":262804926},{"NoteNumber":41,"Velocity":49,"Duration":198237,"SoundDuration":198237,"Delta":262804926},{"NoteNumber":53,"Velocity":49,"Duration":198237,"SoundDuration":198237,"Delta":262804926},{"NoteNumber":64,"Velocity":42,"Duration":66079,"SoundDuration":66079,"Delta":263003164},{"NoteNumber":67,"Velocity":50,"Duration":66079,"SoundDuration":66079,"Delta":263003164},{"NoteNumber":61,"Velocity":29,"Duration":66079,"SoundDuration":66079,"Delta":263003164},{"NoteNumber":55,"Velocity":35,"Duration":66079,"SoundDuration":66079,"Delta":263003164},{"NoteNumber":68,"Velocity":60,"Duration":203248,"SoundDuration":203248,"Delta":263069243},{"NoteNumber":65,"Velocity":51,"Duration":203248,"SoundDuration":203248,"Delta":263069243},{"NoteNumber":56,"Velocity":42,"Duration":203248,"SoundDuration":203248,"Delta":263069243},{"NoteNumber":71,"Velocity":57,"Duration":142179,"SoundDuration":142179,"Delta":263201402},{"NoteNumber":83,"Velocity":68,"Duration":142179,"SoundDuration":142179,"Delta":263201402},{"NoteNumber":69,"Velocity":70,"Duration":198237,"SoundDuration":198237,"Delta":263343582},{"NoteNumber":81,"Velocity":83,"Duration":198237,"SoundDuration":198237,"Delta":263343582},{"NoteNumber":54,"Velocity":58,"Duration":198237,"SoundDuration":198237,"Delta":263343582},{"NoteNumber":42,"Velocity":49,"Duration":198237,"SoundDuration":198237,"Delta":263343582},{"NoteNumber":65,"Velocity":42,"Duration":66079,"SoundDuration":66079,"Delta":263541820},{"NoteNumber":68,"Velocity":50,"Duration":66079,"SoundDuration":66079,"Delta":263541820},{"NoteNumber":56,"Velocity":29,"Duration":66079,"SoundDuration":66079,"Delta":263541820},{"NoteNumber":61,"Velocity":35,"Duration":66079,"SoundDuration":66079,"Delta":263541820},{"NoteNumber":66,"Velocity":51,"Duration":202251,"SoundDuration":202251,"Delta":263607899},{"NoteNumber":69,"Velocity":60,"Duration":202251,"SoundDuration":202251,"Delta":263607899},{"NoteNumber":57,"Velocity":42,"Duration":202251,"SoundDuration":202251,"Delta":263607899},{"NoteNumber":66,"Velocity":71,"Duration":199999,"SoundDuration":199999,"Delta":263880244},{"NoteNumber":78,"Velocity":84,"Duration":199999,"SoundDuration":199999,"Delta":263880244},{"NoteNumber":57,"Velocity":58,"Duration":199999,"SoundDuration":199999,"Delta":263880244},{"NoteNumber":45,"Velocity":49,"Duration":199999,"SoundDuration":199999,"Delta":263880244},{"NoteNumber":65,"Velocity":42,"Duration":66666,"SoundDuration":66666,"Delta":264080244},{"NoteNumber":68,"Velocity":50,"Duration":66666,"SoundDuration":66666,"Delta":264080244},{"NoteNumber":61,"Velocity":35,"Duration":66666,"SoundDuration":66666,"Delta":264080244},{"NoteNumber":56,"Velocity":29,"Duration":66666,"SoundDuration":66666,"Delta":264080244},{"NoteNumber":66,"Velocity":51,"Duration":205103,"SoundDuration":205103,"Delta":264146911},{"NoteNumber":69,"Velocity":60,"Duration":205103,"SoundDuration":205103,"Delta":264146911},{"NoteNumber":57,"Velocity":42,"Duration":205103,"SoundDuration":205103,"Delta":264146911},{"NoteNumber":81,"Velocity":68,"Duration":143540,"SoundDuration":143540,"Delta":264280244},{"NoteNumber":69,"Velocity":57,"Duration":143540,"SoundDuration":143540,"Delta":264280244},{"NoteNumber":76,"Velocity":70,"Duration":209228,"SoundDuration":209228,"Delta":264423785},{"NoteNumber":88,"Velocity":83,"Duration":209228,"SoundDuration":209228,"Delta":264423785},{"NoteNumber":40,"Velocity":49,"Duration":209228,"SoundDuration":209228,"Delta":264423785},{"NoteNumber":52,"Velocity":58,"Duration":209228,"SoundDuration":209228,"Delta":264423785},{"NoteNumber":70,"Velocity":50,"Duration":66371,"SoundDuration":66371,"Delta":264633014},{"NoteNumber":67,"Velocity":42,"Duration":66371,"SoundDuration":66371,"Delta":264633014},{"NoteNumber":64,"Velocity":29,"Duration":66371,"SoundDuration":66371,"Delta":264633014},{"NoteNumber":55,"Velocity":29,"Duration":66371,"SoundDuration":66371,"Delta":264633014},{"NoteNumber":58,"Velocity":35,"Duration":66371,"SoundDuration":66371,"Delta":264633014},{"NoteNumber":71,"Velocity":60,"Duration":198822,"SoundDuration":198822,"Delta":264699385},{"NoteNumber":68,"Velocity":51,"Duration":198822,"SoundDuration":198822,"Delta":264699385},{"NoteNumber":59,"Velocity":42,"Duration":198822,"SoundDuration":198822,"Delta":264699385},{"NoteNumber":56,"Velocity":35,"Duration":198822,"SoundDuration":198822,"Delta":264699385},{"NoteNumber":88,"Velocity":83,"Duration":198237,"SoundDuration":198237,"Delta":264964287},{"NoteNumber":76,"Velocity":70,"Duration":198237,"SoundDuration":198237,"Delta":264964287},{"NoteNumber":44,"Velocity":49,"Duration":198237,"SoundDuration":198237,"Delta":264964287},{"NoteNumber":56,"Velocity":49,"Duration":198237,"SoundDuration":198237,"Delta":264964287},{"NoteNumber":70,"Velocity":50,"Duration":66079,"SoundDuration":66079,"Delta":265162525},{"NoteNumber":67,"Velocity":42,"Duration":66079,"SoundDuration":66079,"Delta":265162525},{"NoteNumber":58,"Velocity":35,"Duration":66079,"SoundDuration":66079,"Delta":265162525},{"NoteNumber":64,"Velocity":29,"Duration":66079,"SoundDuration":66079,"Delta":265162525},{"NoteNumber":68,"Velocity":51,"Duration":203248,"SoundDuration":203248,"Delta":265228604},{"NoteNumber":71,"Velocity":60,"Duration":203248,"SoundDuration":203248,"Delta":265228604},{"NoteNumber":59,"Velocity":42,"Duration":203248,"SoundDuration":203248,"Delta":265228604},{"NoteNumber":86,"Velocity":68,"Duration":142179,"SoundDuration":142179,"Delta":265360763},{"NoteNumber":74,"Velocity":57,"Duration":142179,"SoundDuration":142179,"Delta":265360763},{"NoteNumber":85,"Velocity":83,"Duration":198237,"SoundDuration":198237,"Delta":265502943},{"NoteNumber":73,"Velocity":70,"Duration":198237,"SoundDuration":198237,"Delta":265502943},{"NoteNumber":57,"Velocity":58,"Duration":198237,"SoundDuration":198237,"Delta":265502943},{"NoteNumber":45,"Velocity":49,"Duration":198237,"SoundDuration":198237,"Delta":265502943},{"NoteNumber":72,"Velocity":50,"Duration":66079,"SoundDuration":66079,"Delta":265701180},{"NoteNumber":68,"Velocity":42,"Duration":66079,"SoundDuration":66079,"Delta":265701180},{"NoteNumber":64,"Velocity":35,"Duration":66079,"SoundDuration":66079,"Delta":265701180},{"NoteNumber":60,"Velocity":29,"Duration":66079,"SoundDuration":66079,"Delta":265701180},{"NoteNumber":73,"Velocity":60,"Duration":202251,"SoundDuration":202251,"Delta":265767260},{"NoteNumber":69,"Velocity":51,"Duration":202251,"SoundDuration":202251,"Delta":265767260},{"NoteNumber":61,"Velocity":42,"Duration":202251,"SoundDuration":202251,"Delta":265767260},{"NoteNumber":69,"Velocity":71,"Duration":199999,"SoundDuration":199999,"Delta":266039605},{"NoteNumber":81,"Velocity":84,"Duration":199999,"SoundDuration":199999,"Delta":266039605},{"NoteNumber":61,"Velocity":58,"Duration":199999,"SoundDuration":199999,"Delta":266039605},{"NoteNumber":49,"Velocity":49,"Duration":199999,"SoundDuration":199999,"Delta":266039605},{"NoteNumber":72,"Velocity":50,"Duration":66666,"SoundDuration":66666,"Delta":266239605},{"NoteNumber":68,"Velocity":42,"Duration":66666,"SoundDuration":66666,"Delta":266239605},{"NoteNumber":64,"Velocity":35,"Duration":66666,"SoundDuration":66666,"Delta":266239605},{"NoteNumber":60,"Velocity":29,"Duration":66666,"SoundDuration":66666,"Delta":266239605},{"NoteNumber":73,"Velocity":60,"Duration":205103,"SoundDuration":205103,"Delta":266306272},{"NoteNumber":69,"Velocity":51,"Duration":205103,"SoundDuration":205103,"Delta":266306272},{"NoteNumber":61,"Velocity":42,"Duration":205103,"SoundDuration":205103,"Delta":266306272},{"NoteNumber":69,"Velocity":57,"Duration":143540,"SoundDuration":143540,"Delta":266439605},{"NoteNumber":81,"Velocity":68,"Duration":143540,"SoundDuration":143540,"Delta":266439605},{"NoteNumber":57,"Velocity":54,"Duration":143540,"SoundDuration":143540,"Delta":266439605},{"NoteNumber":45,"Velocity":42,"Duration":143540,"SoundDuration":143540,"Delta":266439605},{"NoteNumber":84,"Velocity":56,"Duration":209228,"SoundDuration":209228,"Delta":266583146},{"NoteNumber":90,"Velocity":66,"Duration":209228,"SoundDuration":209228,"Delta":266583146},{"NoteNumber":78,"Velocity":56,"Duration":209228,"SoundDuration":209228,"Delta":266583146},{"NoteNumber":57,"Velocity":46,"Duration":209228,"SoundDuration":209228,"Delta":266583146},{"NoteNumber":51,"Velocity":39,"Duration":209228,"SoundDuration":209228,"Delta":266583146},{"NoteNumber":45,"Velocity":39,"Duration":209228,"SoundDuration":209228,"Delta":266583146},{"NoteNumber":74,"Velocity":40,"Duration":66371,"SoundDuration":66371,"Delta":266792375},{"NoteNumber":71,"Velocity":33,"Duration":66371,"SoundDuration":66371,"Delta":266792375},{"NoteNumber":65,"Velocity":28,"Duration":66371,"SoundDuration":66371,"Delta":266792375},{"NoteNumber":62,"Velocity":23,"Duration":66371,"SoundDuration":66371,"Delta":266792375},{"NoteNumber":72,"Velocity":40,"Duration":198822,"SoundDuration":198822,"Delta":266858746},{"NoteNumber":75,"Velocity":48,"Duration":198822,"SoundDuration":198822,"Delta":266858746},{"NoteNumber":66,"Velocity":33,"Duration":198822,"SoundDuration":198822,"Delta":266858746},{"NoteNumber":63,"Velocity":28,"Duration":198822,"SoundDuration":198822,"Delta":266858746},{"NoteNumber":90,"Velocity":66,"Duration":198237,"SoundDuration":198237,"Delta":267123648},{"NoteNumber":78,"Velocity":56,"Duration":198237,"SoundDuration":198237,"Delta":267123648},{"NoteNumber":84,"Velocity":56,"Duration":198237,"SoundDuration":198237,"Delta":267123648},{"NoteNumber":51,"Velocity":39,"Duration":198237,"SoundDuration":198237,"Delta":267123648},{"NoteNumber":57,"Velocity":39,"Duration":198237,"SoundDuration":198237,"Delta":267123648},{"NoteNumber":45,"Velocity":39,"Duration":198237,"SoundDuration":198237,"Delta":267123648},{"NoteNumber":71,"Velocity":33,"Duration":66079,"SoundDuration":66079,"Delta":267321886},{"NoteNumber":74,"Velocity":40,"Duration":66079,"SoundDuration":66079,"Delta":267321886},{"NoteNumber":65,"Velocity":23,"Duration":66079,"SoundDuration":66079,"Delta":267321886},{"NoteNumber":62,"Velocity":28,"Duration":66079,"SoundDuration":66079,"Delta":267321886},{"NoteNumber":72,"Velocity":40,"Duration":203248,"SoundDuration":203248,"Delta":267387965},{"NoteNumber":75,"Velocity":48,"Duration":203248,"SoundDuration":203248,"Delta":267387965},{"NoteNumber":66,"Velocity":33,"Duration":203248,"SoundDuration":203248,"Delta":267387965},{"NoteNumber":63,"Velocity":28,"Duration":203248,"SoundDuration":203248,"Delta":267387965},{"NoteNumber":84,"Velocity":45,"Duration":142179,"SoundDuration":142179,"Delta":267520123},{"NoteNumber":78,"Velocity":45,"Duration":142179,"SoundDuration":142179,"Delta":267520123},{"NoteNumber":90,"Velocity":54,"Duration":142179,"SoundDuration":142179,"Delta":267520123},{"NoteNumber":57,"Velocity":40,"Duration":142179,"SoundDuration":142179,"Delta":267520123},{"NoteNumber":51,"Velocity":35,"Duration":142179,"SoundDuration":142179,"Delta":267520123},{"NoteNumber":45,"Velocity":35,"Duration":142179,"SoundDuration":142179,"Delta":267520123},{"NoteNumber":81,"Velocity":56,"Duration":198237,"SoundDuration":198237,"Delta":267662303},{"NoteNumber":85,"Velocity":56,"Duration":198237,"SoundDuration":198237,"Delta":267662303},{"NoteNumber":93,"Velocity":66,"Duration":198237,"SoundDuration":198237,"Delta":267662303},{"NoteNumber":45,"Velocity":39,"Duration":198237,"SoundDuration":198237,"Delta":267662303},{"NoteNumber":52,"Velocity":39,"Duration":198237,"SoundDuration":198237,"Delta":267662303},{"NoteNumber":57,"Velocity":46,"Duration":198237,"SoundDuration":198237,"Delta":267662303},{"NoteNumber":75,"Velocity":40,"Duration":66079,"SoundDuration":66079,"Delta":267860541},{"NoteNumber":72,"Velocity":33,"Duration":66079,"SoundDuration":66079,"Delta":267860541},{"NoteNumber":63,"Velocity":28,"Duration":66079,"SoundDuration":66079,"Delta":267860541},{"NoteNumber":60,"Velocity":23,"Duration":66079,"SoundDuration":66079,"Delta":267860541},{"NoteNumber":73,"Velocity":40,"Duration":202251,"SoundDuration":202251,"Delta":267926620},{"NoteNumber":76,"Velocity":48,"Duration":202251,"SoundDuration":202251,"Delta":267926620},{"NoteNumber":64,"Velocity":33,"Duration":202251,"SoundDuration":202251,"Delta":267926620},{"NoteNumber":61,"Velocity":28,"Duration":202251,"SoundDuration":202251,"Delta":267926620},{"NoteNumber":88,"Velocity":67,"Duration":199999,"SoundDuration":199999,"Delta":268198966},{"NoteNumber":76,"Velocity":56,"Duration":199999,"SoundDuration":199999,"Delta":268198966},{"NoteNumber":81,"Velocity":56,"Duration":199999,"SoundDuration":199999,"Delta":268198966},{"NoteNumber":45,"Velocity":39,"Duration":199999,"SoundDuration":199999,"Delta":268198966},{"NoteNumber":49,"Velocity":39,"Duration":199999,"SoundDuration":199999,"Delta":268198966},{"NoteNumber":57,"Velocity":46,"Duration":199999,"SoundDuration":199999,"Delta":268198966},{"NoteNumber":72,"Velocity":40,"Duration":66666,"SoundDuration":66666,"Delta":268398966},{"NoteNumber":68,"Velocity":33,"Duration":66666,"SoundDuration":66666,"Delta":268398966},{"NoteNumber":63,"Velocity":28,"Duration":66666,"SoundDuration":66666,"Delta":268398966},{"NoteNumber":60,"Velocity":23,"Duration":66666,"SoundDuration":66666,"Delta":268398966},{"NoteNumber":69,"Velocity":40,"Duration":205103,"SoundDuration":205103,"Delta":268465632},{"NoteNumber":73,"Velocity":48,"Duration":205103,"SoundDuration":205103,"Delta":268465632},{"NoteNumber":64,"Velocity":33,"Duration":205103,"SoundDuration":205103,"Delta":268465632},{"NoteNumber":61,"Velocity":28,"Duration":205103,"SoundDuration":205103,"Delta":268465632},{"NoteNumber":84,"Velocity":58,"Duration":209228,"SoundDuration":209228,"Delta":268742506},{"NoteNumber":78,"Velocity":58,"Duration":209228,"SoundDuration":209228,"Delta":268742506},{"NoteNumber":90,"Velocity":69,"Duration":209228,"SoundDuration":209228,"Delta":268742506},{"NoteNumber":45,"Velocity":40,"Duration":209228,"SoundDuration":209228,"Delta":268742506},{"NoteNumber":51,"Velocity":40,"Duration":209228,"SoundDuration":209228,"Delta":268742506},{"NoteNumber":57,"Velocity":48,"Duration":209228,"SoundDuration":209228,"Delta":268742506},{"NoteNumber":71,"Velocity":34,"Duration":66371,"SoundDuration":66371,"Delta":268951735},{"NoteNumber":74,"Velocity":42,"Duration":66371,"SoundDuration":66371,"Delta":268951735},{"NoteNumber":62,"Velocity":24,"Duration":66371,"SoundDuration":66371,"Delta":268951735},{"NoteNumber":65,"Velocity":29,"Duration":66371,"SoundDuration":66371,"Delta":268951735},{"NoteNumber":72,"Velocity":42,"Duration":198822,"SoundDuration":198822,"Delta":269018107},{"NoteNumber":75,"Velocity":50,"Duration":198822,"SoundDuration":198822,"Delta":269018107},{"NoteNumber":66,"Velocity":34,"Duration":198822,"SoundDuration":198822,"Delta":269018107},{"NoteNumber":63,"Velocity":29,"Duration":198822,"SoundDuration":198822,"Delta":269018107},{"NoteNumber":78,"Velocity":58,"Duration":198237,"SoundDuration":198237,"Delta":269283009},{"NoteNumber":84,"Velocity":58,"Duration":198237,"SoundDuration":198237,"Delta":269283009},{"NoteNumber":90,"Velocity":69,"Duration":198237,"SoundDuration":198237,"Delta":269283009},{"NoteNumber":45,"Velocity":40,"Duration":198237,"SoundDuration":198237,"Delta":269283009},{"NoteNumber":51,"Velocity":40,"Duration":198237,"SoundDuration":198237,"Delta":269283009},{"NoteNumber":57,"Velocity":40,"Duration":198237,"SoundDuration":198237,"Delta":269283009},{"NoteNumber":71,"Velocity":34,"Duration":66079,"SoundDuration":66079,"Delta":269481246},{"NoteNumber":74,"Velocity":42,"Duration":66079,"SoundDuration":66079,"Delta":269481246},{"NoteNumber":65,"Velocity":24,"Duration":66079,"SoundDuration":66079,"Delta":269481246},{"NoteNumber":62,"Velocity":29,"Duration":66079,"SoundDuration":66079,"Delta":269481246},{"NoteNumber":72,"Velocity":42,"Duration":203248,"SoundDuration":203248,"Delta":269547326},{"NoteNumber":75,"Velocity":50,"Duration":203248,"SoundDuration":203248,"Delta":269547326},{"NoteNumber":66,"Velocity":34,"Duration":203248,"SoundDuration":203248,"Delta":269547326},{"NoteNumber":63,"Velocity":29,"Duration":203248,"SoundDuration":203248,"Delta":269547326},{"NoteNumber":84,"Velocity":47,"Duration":142179,"SoundDuration":142179,"Delta":269679484},{"NoteNumber":78,"Velocity":47,"Duration":142179,"SoundDuration":142179,"Delta":269679484},{"NoteNumber":90,"Velocity":56,"Duration":142179,"SoundDuration":142179,"Delta":269679484},{"NoteNumber":45,"Velocity":36,"Duration":142179,"SoundDuration":142179,"Delta":269679484},{"NoteNumber":51,"Velocity":36,"Duration":142179,"SoundDuration":142179,"Delta":269679484},{"NoteNumber":57,"Velocity":42,"Duration":142179,"SoundDuration":142179,"Delta":269679484},{"NoteNumber":86,"Velocity":58,"Duration":198237,"SoundDuration":198237,"Delta":269821664},{"NoteNumber":94,"Velocity":69,"Duration":198237,"SoundDuration":198237,"Delta":269821664},{"NoteNumber":82,"Velocity":58,"Duration":198237,"SoundDuration":198237,"Delta":269821664},{"NoteNumber":46,"Velocity":40,"Duration":198237,"SoundDuration":198237,"Delta":269821664},{"NoteNumber":53,"Velocity":40,"Duration":198237,"SoundDuration":198237,"Delta":269821664},{"NoteNumber":58,"Velocity":48,"Duration":198237,"SoundDuration":198237,"Delta":269821664},{"NoteNumber":76,"Velocity":42,"Duration":66079,"SoundDuration":66079,"Delta":270019902},{"NoteNumber":73,"Velocity":34,"Duration":66079,"SoundDuration":66079,"Delta":270019902},{"NoteNumber":61,"Velocity":24,"Duration":66079,"SoundDuration":66079,"Delta":270019902},{"NoteNumber":64,"Velocity":29,"Duration":66079,"SoundDuration":66079,"Delta":270019902},{"NoteNumber":77,"Velocity":50,"Duration":202251,"SoundDuration":202251,"Delta":270085981},{"NoteNumber":74,"Velocity":42,"Duration":202251,"SoundDuration":202251,"Delta":270085981},{"NoteNumber":65,"Velocity":34,"Duration":202251,"SoundDuration":202251,"Delta":270085981},{"NoteNumber":62,"Velocity":29,"Duration":202251,"SoundDuration":202251,"Delta":270085981},{"NoteNumber":77,"Velocity":58,"Duration":199999,"SoundDuration":199999,"Delta":270358327},{"NoteNumber":89,"Velocity":70,"Duration":199999,"SoundDuration":199999,"Delta":270358327},{"NoteNumber":82,"Velocity":58,"Duration":199999,"SoundDuration":199999,"Delta":270358327},{"NoteNumber":58,"Velocity":48,"Duration":199999,"SoundDuration":199999,"Delta":270358327},{"NoteNumber":50,"Velocity":40,"Duration":199999,"SoundDuration":199999,"Delta":270358327},{"NoteNumber":46,"Velocity":40,"Duration":199999,"SoundDuration":199999,"Delta":270358327},{"NoteNumber":73,"Velocity":42,"Duration":66666,"SoundDuration":66666,"Delta":270558327},{"NoteNumber":69,"Velocity":34,"Duration":66666,"SoundDuration":66666,"Delta":270558327},{"NoteNumber":61,"Velocity":24,"Duration":66666,"SoundDuration":66666,"Delta":270558327},{"NoteNumber":64,"Velocity":29,"Duration":66666,"SoundDuration":66666,"Delta":270558327},{"NoteNumber":70,"Velocity":42,"Duration":205103,"SoundDuration":205103,"Delta":270624993},{"NoteNumber":74,"Velocity":50,"Duration":205103,"SoundDuration":205103,"Delta":270624993},{"NoteNumber":62,"Velocity":29,"Duration":205103,"SoundDuration":205103,"Delta":270624993},{"NoteNumber":65,"Velocity":34,"Duration":205103,"SoundDuration":205103,"Delta":270624993},{"NoteNumber":91,"Velocity":72,"Duration":209228,"SoundDuration":209228,"Delta":270901867},{"NoteNumber":79,"Velocity":60,"Duration":209228,"SoundDuration":209228,"Delta":270901867},{"NoteNumber":85,"Velocity":60,"Duration":209228,"SoundDuration":209228,"Delta":270901867},{"NoteNumber":52,"Velocity":42,"Duration":209228,"SoundDuration":209228,"Delta":270901867},{"NoteNumber":58,"Velocity":50,"Duration":209228,"SoundDuration":209228,"Delta":270901867},{"NoteNumber":46,"Velocity":42,"Duration":209228,"SoundDuration":209228,"Delta":270901867},{"NoteNumber":75,"Velocity":44,"Duration":66371,"SoundDuration":66371,"Delta":271111096},{"NoteNumber":72,"Velocity":36,"Duration":66371,"SoundDuration":66371,"Delta":271111096},{"NoteNumber":63,"Velocity":25,"Duration":66371,"SoundDuration":66371,"Delta":271111096},{"NoteNumber":66,"Velocity":30,"Duration":66371,"SoundDuration":66371,"Delta":271111096},{"NoteNumber":76,"Velocity":53,"Duration":198822,"SoundDuration":198822,"Delta":271177468},{"NoteNumber":73,"Velocity":44,"Duration":198822,"SoundDuration":198822,"Delta":271177468},{"NoteNumber":67,"Velocity":36,"Duration":198822,"SoundDuration":198822,"Delta":271177468},{"NoteNumber":64,"Velocity":30,"Duration":198822,"SoundDuration":198822,"Delta":271177468},{"NoteNumber":91,"Velocity":74,"Duration":198237,"SoundDuration":198237,"Delta":271442369},{"NoteNumber":85,"Velocity":62,"Duration":198237,"SoundDuration":198237,"Delta":271442369},{"NoteNumber":79,"Velocity":62,"Duration":198237,"SoundDuration":198237,"Delta":271442369},{"NoteNumber":52,"Velocity":43,"Duration":198237,"SoundDuration":198237,"Delta":271442369},{"NoteNumber":58,"Velocity":43,"Duration":198237,"SoundDuration":198237,"Delta":271442369},{"NoteNumber":46,"Velocity":43,"Duration":198237,"SoundDuration":198237,"Delta":271442369},{"NoteNumber":75,"Velocity":45,"Duration":66079,"SoundDuration":66079,"Delta":271640607},{"NoteNumber":72,"Velocity":37,"Duration":66079,"SoundDuration":66079,"Delta":271640607},{"NoteNumber":66,"Velocity":26,"Duration":66079,"SoundDuration":66079,"Delta":271640607},{"NoteNumber":63,"Velocity":31,"Duration":66079,"SoundDuration":66079,"Delta":271640607},{"NoteNumber":76,"Velocity":55,"Duration":203248,"SoundDuration":203248,"Delta":271706686},{"NoteNumber":73,"Velocity":46,"Duration":203248,"SoundDuration":203248,"Delta":271706686},{"NoteNumber":64,"Velocity":31,"Duration":203248,"SoundDuration":203248,"Delta":271706686},{"NoteNumber":67,"Velocity":37,"Duration":203248,"SoundDuration":203248,"Delta":271706686},{"NoteNumber":91,"Velocity":61,"Duration":142179,"SoundDuration":142179,"Delta":271838845},{"NoteNumber":85,"Velocity":51,"Duration":142179,"SoundDuration":142179,"Delta":271838845},{"NoteNumber":79,"Velocity":51,"Duration":142179,"SoundDuration":142179,"Delta":271838845},{"NoteNumber":46,"Velocity":39,"Duration":142179,"SoundDuration":142179,"Delta":271838845},{"NoteNumber":58,"Velocity":46,"Duration":142179,"SoundDuration":142179,"Delta":271838845},{"NoteNumber":52,"Velocity":39,"Duration":142179,"SoundDuration":142179,"Delta":271838845},{"NoteNumber":95,"Velocity":76,"Duration":209228,"SoundDuration":209228,"Delta":271981025},{"NoteNumber":87,"Velocity":64,"Duration":209228,"SoundDuration":209228,"Delta":271981025},{"NoteNumber":83,"Velocity":64,"Duration":209228,"SoundDuration":209228,"Delta":271981025},{"NoteNumber":59,"Velocity":53,"Duration":209228,"SoundDuration":209228,"Delta":271981025},{"NoteNumber":47,"Velocity":44,"Duration":209228,"SoundDuration":209228,"Delta":271981025},{"NoteNumber":54,"Velocity":44,"Duration":209228,"SoundDuration":209228,"Delta":271981025},{"NoteNumber":74,"Velocity":47,"Duration":66371,"SoundDuration":66371,"Delta":272190254},{"NoteNumber":70,"Velocity":38,"Duration":66371,"SoundDuration":66371,"Delta":272190254},{"NoteNumber":62,"Velocity":26,"Duration":66371,"SoundDuration":66371,"Delta":272190254},{"NoteNumber":65,"Velocity":32,"Duration":66371,"SoundDuration":66371,"Delta":272190254},{"NoteNumber":75,"Velocity":56,"Duration":198822,"SoundDuration":198822,"Delta":272256625},{"NoteNumber":71,"Velocity":47,"Duration":198822,"SoundDuration":198822,"Delta":272256625},{"NoteNumber":63,"Velocity":32,"Duration":198822,"SoundDuration":198822,"Delta":272256625},{"NoteNumber":66,"Velocity":38,"Duration":198822,"SoundDuration":198822,"Delta":272256625},{"NoteNumber":83,"Velocity":66,"Duration":198237,"SoundDuration":198237,"Delta":272521527},{"NoteNumber":95,"Velocity":79,"Duration":198237,"SoundDuration":198237,"Delta":272521527},{"NoteNumber":59,"Velocity":46,"Duration":198237,"SoundDuration":198237,"Delta":272521527},{"NoteNumber":47,"Velocity":46,"Duration":198237,"SoundDuration":198237,"Delta":272521527},{"NoteNumber":73,"Velocity":39,"Duration":66079,"SoundDuration":66079,"Delta":272719765},{"NoteNumber":76,"Velocity":48,"Duration":66079,"SoundDuration":66079,"Delta":272719765},{"NoteNumber":64,"Velocity":33,"Duration":66079,"SoundDuration":66079,"Delta":272719765},{"NoteNumber":67,"Velocity":27,"Duration":66079,"SoundDuration":66079,"Delta":272719765},{"NoteNumber":74,"Velocity":48,"Duration":203248,"SoundDuration":203248,"Delta":272785844},{"NoteNumber":77,"Velocity":58,"Duration":203248,"SoundDuration":203248,"Delta":272785844},{"NoteNumber":65,"Velocity":33,"Duration":203248,"SoundDuration":203248,"Delta":272785844},{"NoteNumber":68,"Velocity":39,"Duration":203248,"SoundDuration":203248,"Delta":272785844},{"NoteNumber":83,"Velocity":54,"Duration":142179,"SoundDuration":142179,"Delta":272918003},{"NoteNumber":95,"Velocity":65,"Duration":142179,"SoundDuration":142179,"Delta":272918003},{"NoteNumber":59,"Velocity":49,"Duration":142179,"SoundDuration":142179,"Delta":272918003},{"NoteNumber":47,"Velocity":42,"Duration":142179,"SoundDuration":142179,"Delta":272918003},{"NoteNumber":84,"Velocity":68,"Duration":209228,"SoundDuration":209228,"Delta":273060183},{"NoteNumber":96,"Velocity":81,"Duration":209228,"SoundDuration":209228,"Delta":273060183},{"NoteNumber":48,"Velocity":47,"Duration":209228,"SoundDuration":209228,"Delta":273060183},{"NoteNumber":60,"Velocity":56,"Duration":209228,"SoundDuration":209228,"Delta":273060183},{"NoteNumber":71,"Velocity":40,"Duration":66371,"SoundDuration":66371,"Delta":273269412},{"NoteNumber":75,"Velocity":49,"Duration":66371,"SoundDuration":66371,"Delta":273269412},{"NoteNumber":63,"Velocity":28,"Duration":66371,"SoundDuration":66371,"Delta":273269412},{"NoteNumber":66,"Velocity":34,"Duration":66371,"SoundDuration":66371,"Delta":273269412},{"NoteNumber":76,"Velocity":60,"Duration":198822,"SoundDuration":198822,"Delta":273335783},{"NoteNumber":72,"Velocity":50,"Duration":198822,"SoundDuration":198822,"Delta":273335783},{"NoteNumber":67,"Velocity":40,"Duration":198822,"SoundDuration":198822,"Delta":273335783},{"NoteNumber":64,"Velocity":34,"Duration":198822,"SoundDuration":198822,"Delta":273335783},{"NoteNumber":85,"Velocity":70,"Duration":198237,"SoundDuration":198237,"Delta":273600685},{"NoteNumber":97,"Velocity":83,"Duration":198237,"SoundDuration":198237,"Delta":273600685},{"NoteNumber":61,"Velocity":48,"Duration":198237,"SoundDuration":198237,"Delta":273600685},{"NoteNumber":49,"Velocity":48,"Duration":198237,"SoundDuration":198237,"Delta":273600685},{"NoteNumber":78,"Velocity":51,"Duration":66079,"SoundDuration":66079,"Delta":273798923},{"NoteNumber":75,"Velocity":41,"Duration":66079,"SoundDuration":66079,"Delta":273798923},{"NoteNumber":69,"Velocity":29,"Duration":66079,"SoundDuration":66079,"Delta":273798923},{"NoteNumber":66,"Velocity":35,"Duration":66079,"SoundDuration":66079,"Delta":273798923},{"NoteNumber":79,"Velocity":61,"Duration":209478,"SoundDuration":209478,"Delta":273865002},{"NoteNumber":76,"Velocity":51,"Duration":209478,"SoundDuration":209478,"Delta":273865002},{"NoteNumber":70,"Velocity":41,"Duration":209478,"SoundDuration":209478,"Delta":273865002},{"NoteNumber":67,"Velocity":35,"Duration":209478,"SoundDuration":209478,"Delta":273865002},{"NoteNumber":85,"Velocity":58,"Duration":154639,"SoundDuration":154639,"Delta":273997160},{"NoteNumber":97,"Velocity":69,"Duration":154639,"SoundDuration":154639,"Delta":273997160},{"NoteNumber":49,"Velocity":44,"Duration":154639,"SoundDuration":154639,"Delta":273997160},{"NoteNumber":61,"Velocity":52,"Duration":154639,"SoundDuration":154639,"Delta":273997160},{"NoteNumber":86,"Velocity":72,"Duration":195652,"SoundDuration":195652,"Delta":274151800},{"NoteNumber":98,"Velocity":85,"Duration":195652,"SoundDuration":195652,"Delta":274151800},{"NoteNumber":62,"Velocity":59,"Duration":195652,"SoundDuration":195652,"Delta":274151800},{"NoteNumber":50,"Velocity":50,"Duration":195652,"SoundDuration":195652,"Delta":274151800},{"NoteNumber":76,"Velocity":45,"Duration":65217,"SoundDuration":65217,"Delta":274347452},{"NoteNumber":80,"Velocity":53,"Duration":65217,"SoundDuration":65217,"Delta":274347452},{"NoteNumber":68,"Velocity":38,"Duration":65217,"SoundDuration":65217,"Delta":274347452},{"NoteNumber":64,"Velocity":32,"Duration":65217,"SoundDuration":65217,"Delta":274347452},{"NoteNumber":81,"Velocity":62,"Duration":200528,"SoundDuration":200528,"Delta":274412669},{"NoteNumber":77,"Velocity":52,"Duration":200528,"SoundDuration":200528,"Delta":274412669},{"NoteNumber":69,"Velocity":45,"Duration":200528,"SoundDuration":200528,"Delta":274412669},{"NoteNumber":65,"Velocity":38,"Duration":200528,"SoundDuration":200528,"Delta":274412669},{"NoteNumber":81,"Velocity":66,"Duration":195652,"SoundDuration":195652,"Delta":274683291},{"NoteNumber":93,"Velocity":78,"Duration":195652,"SoundDuration":195652,"Delta":274683291},{"NoteNumber":57,"Velocity":53,"Duration":195652,"SoundDuration":195652,"Delta":274683291},{"NoteNumber":45,"Velocity":45,"Duration":195652,"SoundDuration":195652,"Delta":274683291},{"NoteNumber":73,"Velocity":45,"Duration":65217,"SoundDuration":65217,"Delta":274878943},{"NoteNumber":76,"Velocity":53,"Duration":65217,"SoundDuration":65217,"Delta":274878943},{"NoteNumber":61,"Velocity":33,"Duration":65217,"SoundDuration":65217,"Delta":274878943},{"NoteNumber":64,"Velocity":39,"Duration":65217,"SoundDuration":65217,"Delta":274878943},{"NoteNumber":77,"Velocity":60,"Duration":200202,"SoundDuration":200202,"Delta":274944160},{"NoteNumber":74,"Velocity":51,"Duration":200202,"SoundDuration":200202,"Delta":274944160},{"NoteNumber":62,"Velocity":39,"Duration":200202,"SoundDuration":200202,"Delta":274944160},{"NoteNumber":65,"Velocity":47,"Duration":200202,"SoundDuration":200202,"Delta":274944160},{"NoteNumber":77,"Velocity":72,"Duration":195652,"SoundDuration":195652,"Delta":275214130},{"NoteNumber":89,"Velocity":85,"Duration":195652,"SoundDuration":195652,"Delta":275214130},{"NoteNumber":53,"Velocity":59,"Duration":195652,"SoundDuration":195652,"Delta":275214130},{"NoteNumber":41,"Velocity":50,"Duration":195652,"SoundDuration":195652,"Delta":275214130},{"NoteNumber":68,"Velocity":45,"Duration":65217,"SoundDuration":65217,"Delta":275409782},{"NoteNumber":73,"Velocity":53,"Duration":65217,"SoundDuration":65217,"Delta":275409782},{"NoteNumber":61,"Velocity":38,"Duration":65217,"SoundDuration":65217,"Delta":275409782},{"NoteNumber":56,"Velocity":32,"Duration":65217,"SoundDuration":65217,"Delta":275409782},{"NoteNumber":74,"Velocity":62,"Duration":200528,"SoundDuration":200528,"Delta":275475000},{"NoteNumber":69,"Velocity":52,"Duration":200528,"SoundDuration":200528,"Delta":275475000},{"NoteNumber":57,"Velocity":38,"Duration":200528,"SoundDuration":200528,"Delta":275475000},{"NoteNumber":62,"Velocity":45,"Duration":200528,"SoundDuration":200528,"Delta":275475000},{"NoteNumber":86,"Velocity":78,"Duration":197368,"SoundDuration":197368,"Delta":275745621},{"NoteNumber":74,"Velocity":66,"Duration":197368,"SoundDuration":197368,"Delta":275745621},{"NoteNumber":38,"Velocity":45,"Duration":197368,"SoundDuration":197368,"Delta":275745621},{"NoteNumber":50,"Velocity":53,"Duration":197368,"SoundDuration":197368,"Delta":275745621},{"NoteNumber":64,"Velocity":45,"Duration":65789,"SoundDuration":65789,"Delta":275942990},{"NoteNumber":68,"Velocity":53,"Duration":65789,"SoundDuration":65789,"Delta":275942990},{"NoteNumber":52,"Velocity":33,"Duration":65789,"SoundDuration":65789,"Delta":275942990},{"NoteNumber":56,"Velocity":39,"Duration":65789,"SoundDuration":65789,"Delta":275942990},{"NoteNumber":65,"Velocity":51,"Duration":201023,"SoundDuration":201023,"Delta":276008779},{"NoteNumber":69,"Velocity":60,"Duration":201023,"SoundDuration":201023,"Delta":276008779},{"NoteNumber":53,"Velocity":39,"Duration":201023,"SoundDuration":201023,"Delta":276008779},{"NoteNumber":57,"Velocity":47,"Duration":201023,"SoundDuration":201023,"Delta":276008779},{"NoteNumber":82,"Velocity":72,"Duration":193132,"SoundDuration":193132,"Delta":276279247},{"NoteNumber":94,"Velocity":85,"Duration":193132,"SoundDuration":193132,"Delta":276279247},{"NoteNumber":46,"Velocity":50,"Duration":193132,"SoundDuration":193132,"Delta":276279247},{"NoteNumber":58,"Velocity":59,"Duration":193132,"SoundDuration":193132,"Delta":276279247},{"NoteNumber":73,"Velocity":45,"Duration":64377,"SoundDuration":64377,"Delta":276472380},{"NoteNumber":76,"Velocity":53,"Duration":64377,"SoundDuration":64377,"Delta":276472380},{"NoteNumber":64,"Velocity":38,"Duration":64377,"SoundDuration":64377,"Delta":276472380},{"NoteNumber":61,"Velocity":32,"Duration":64377,"SoundDuration":64377,"Delta":276472380},{"NoteNumber":74,"Velocity":52,"Duration":197248,"SoundDuration":197248,"Delta":276536758},{"NoteNumber":77,"Velocity":62,"Duration":197248,"SoundDuration":197248,"Delta":276536758},{"NoteNumber":65,"Velocity":45,"Duration":197248,"SoundDuration":197248,"Delta":276536758},{"NoteNumber":62,"Velocity":38,"Duration":197248,"SoundDuration":197248,"Delta":276536758},{"NoteNumber":77,"Velocity":66,"Duration":195652,"SoundDuration":195652,"Delta":276802499},{"NoteNumber":89,"Velocity":78,"Duration":195652,"SoundDuration":195652,"Delta":276802499},{"NoteNumber":53,"Velocity":53,"Duration":195652,"SoundDuration":195652,"Delta":276802499},{"NoteNumber":41,"Velocity":45,"Duration":195652,"SoundDuration":195652,"Delta":276802499},{"NoteNumber":69,"Velocity":45,"Duration":65217,"SoundDuration":65217,"Delta":276998152},{"NoteNumber":73,"Velocity":53,"Duration":65217,"SoundDuration":65217,"Delta":276998152},{"NoteNumber":57,"Velocity":33,"Duration":65217,"SoundDuration":65217,"Delta":276998152},{"NoteNumber":61,"Velocity":39,"Duration":65217,"SoundDuration":65217,"Delta":276998152},{"NoteNumber":70,"Velocity":51,"Duration":199559,"SoundDuration":199559,"Delta":277063369},{"NoteNumber":74,"Velocity":60,"Duration":199559,"SoundDuration":199559,"Delta":277063369},{"NoteNumber":62,"Velocity":47,"Duration":199559,"SoundDuration":199559,"Delta":277063369},{"NoteNumber":58,"Velocity":39,"Duration":199559,"SoundDuration":199559,"Delta":277063369},{"NoteNumber":74,"Velocity":72,"Duration":195652,"SoundDuration":195652,"Delta":277332052},{"NoteNumber":86,"Velocity":85,"Duration":195652,"SoundDuration":195652,"Delta":277332052},{"NoteNumber":50,"Velocity":59,"Duration":195652,"SoundDuration":195652,"Delta":277332052},{"NoteNumber":38,"Velocity":50,"Duration":195652,"SoundDuration":195652,"Delta":277332052},{"NoteNumber":69,"Velocity":53,"Duration":65217,"SoundDuration":65217,"Delta":277527705},{"NoteNumber":64,"Velocity":45,"Duration":65217,"SoundDuration":65217,"Delta":277527705},{"NoteNumber":57,"Velocity":38,"Duration":65217,"SoundDuration":65217,"Delta":277527705},{"NoteNumber":52,"Velocity":32,"Duration":65217,"SoundDuration":65217,"Delta":277527705},{"NoteNumber":70,"Velocity":62,"Duration":200528,"SoundDuration":200528,"Delta":277592922},{"NoteNumber":65,"Velocity":52,"Duration":200528,"SoundDuration":200528,"Delta":277592922},{"NoteNumber":53,"Velocity":38,"Duration":200528,"SoundDuration":200528,"Delta":277592922},{"NoteNumber":58,"Velocity":45,"Duration":200528,"SoundDuration":200528,"Delta":277592922},{"NoteNumber":82,"Velocity":78,"Duration":195652,"SoundDuration":195652,"Delta":277863544},{"NoteNumber":70,"Velocity":66,"Duration":195652,"SoundDuration":195652,"Delta":277863544},{"NoteNumber":34,"Velocity":45,"Duration":195652,"SoundDuration":195652,"Delta":277863544},{"NoteNumber":46,"Velocity":53,"Duration":195652,"SoundDuration":195652,"Delta":277863544},{"NoteNumber":64,"Velocity":53,"Duration":65217,"SoundDuration":65217,"Delta":278059196},{"NoteNumber":61,"Velocity":45,"Duration":65217,"SoundDuration":65217,"Delta":278059196},{"NoteNumber":49,"Velocity":33,"Duration":65217,"SoundDuration":65217,"Delta":278059196},{"NoteNumber":52,"Velocity":39,"Duration":65217,"SoundDuration":65217,"Delta":278059196},{"NoteNumber":62,"Velocity":51,"Duration":200528,"SoundDuration":200528,"Delta":278124413},{"NoteNumber":65,"Velocity":60,"Duration":200528,"SoundDuration":200528,"Delta":278124413},{"NoteNumber":50,"Velocity":39,"Duration":200528,"SoundDuration":200528,"Delta":278124413},{"NoteNumber":53,"Velocity":47,"Duration":200528,"SoundDuration":200528,"Delta":278124413},{"NoteNumber":87,"Velocity":85,"Duration":193965,"SoundDuration":193965,"Delta":278395035},{"NoteNumber":75,"Velocity":72,"Duration":193965,"SoundDuration":193965,"Delta":278395035},{"NoteNumber":51,"Velocity":59,"Duration":193965,"SoundDuration":193965,"Delta":278395035},{"NoteNumber":39,"Velocity":50,"Duration":193965,"SoundDuration":193965,"Delta":278395035},{"NoteNumber":66,"Velocity":47,"Duration":64655,"SoundDuration":64655,"Delta":278589000},{"NoteNumber":62,"Velocity":40,"Duration":64655,"SoundDuration":64655,"Delta":278589000},{"NoteNumber":54,"Velocity":28,"Duration":64655,"SoundDuration":64655,"Delta":278589000},{"NoteNumber":57,"Velocity":34,"Duration":64655,"SoundDuration":64655,"Delta":278589000},{"NoteNumber":63,"Velocity":46,"Duration":199403,"SoundDuration":199403,"Delta":278653655},{"NoteNumber":67,"Velocity":55,"Duration":199403,"SoundDuration":199403,"Delta":278653655},{"NoteNumber":55,"Velocity":34,"Duration":199403,"SoundDuration":199403,"Delta":278653655},{"NoteNumber":58,"Velocity":40,"Duration":199403,"SoundDuration":199403,"Delta":278653655},{"NoteNumber":82,"Velocity":78,"Duration":194805,"SoundDuration":194805,"Delta":278923153},{"NoteNumber":70,"Velocity":66,"Duration":194805,"SoundDuration":194805,"Delta":278923153},{"NoteNumber":46,"Velocity":53,"Duration":194805,"SoundDuration":194805,"Delta":278923153},{"NoteNumber":34,"Velocity":45,"Duration":194805,"SoundDuration":194805,"Delta":278923153},{"NoteNumber":66,"Velocity":47,"Duration":64935,"SoundDuration":64935,"Delta":279117958},{"NoteNumber":62,"Velocity":40,"Duration":64935,"SoundDuration":64935,"Delta":279117958},{"NoteNumber":57,"Velocity":35,"Duration":64935,"SoundDuration":64935,"Delta":279117958},{"NoteNumber":54,"Velocity":29,"Duration":64935,"SoundDuration":64935,"Delta":279117958},{"NoteNumber":67,"Velocity":54,"Duration":201640,"SoundDuration":201640,"Delta":279182893},{"NoteNumber":63,"Velocity":45,"Duration":201640,"SoundDuration":201640,"Delta":279182893},{"NoteNumber":58,"Velocity":42,"Duration":201640,"SoundDuration":201640,"Delta":279182893},{"NoteNumber":55,"Velocity":35,"Duration":201640,"SoundDuration":201640,"Delta":279182893},{"NoteNumber":75,"Velocity":72,"Duration":195652,"SoundDuration":195652,"Delta":279456304},{"NoteNumber":87,"Velocity":85,"Duration":195652,"SoundDuration":195652,"Delta":279456304},{"NoteNumber":39,"Velocity":50,"Duration":195652,"SoundDuration":195652,"Delta":279456304},{"NoteNumber":51,"Velocity":59,"Duration":195652,"SoundDuration":195652,"Delta":279456304},{"NoteNumber":66,"Velocity":47,"Duration":65217,"SoundDuration":65217,"Delta":279651956},{"NoteNumber":62,"Velocity":40,"Duration":65217,"SoundDuration":65217,"Delta":279651956},{"NoteNumber":57,"Velocity":34,"Duration":65217,"SoundDuration":65217,"Delta":279651956},{"NoteNumber":54,"Velocity":28,"Duration":65217,"SoundDuration":65217,"Delta":279651956},{"NoteNumber":67,"Velocity":55,"Duration":200528,"SoundDuration":200528,"Delta":279717174},{"NoteNumber":63,"Velocity":46,"Duration":200528,"SoundDuration":200528,"Delta":279717174},{"NoteNumber":58,"Velocity":40,"Duration":200528,"SoundDuration":200528,"Delta":279717174},{"NoteNumber":55,"Velocity":34,"Duration":200528,"SoundDuration":200528,"Delta":279717174},{"NoteNumber":82,"Velocity":78,"Duration":197368,"SoundDuration":197368,"Delta":279987795},{"NoteNumber":70,"Velocity":66,"Duration":197368,"SoundDuration":197368,"Delta":279987795},{"NoteNumber":46,"Velocity":53,"Duration":197368,"SoundDuration":197368,"Delta":279987795},{"NoteNumber":34,"Velocity":45,"Duration":197368,"SoundDuration":197368,"Delta":279987795},{"NoteNumber":66,"Velocity":47,"Duration":65789,"SoundDuration":65789,"Delta":280185164},{"NoteNumber":62,"Velocity":40,"Duration":65789,"SoundDuration":65789,"Delta":280185164},{"NoteNumber":57,"Velocity":35,"Duration":65789,"SoundDuration":65789,"Delta":280185164},{"NoteNumber":54,"Velocity":29,"Duration":65789,"SoundDuration":65789,"Delta":280185164},{"NoteNumber":63,"Velocity":45,"Duration":203349,"SoundDuration":203349,"Delta":280250953},{"NoteNumber":67,"Velocity":54,"Duration":203349,"SoundDuration":203349,"Delta":280250953},{"NoteNumber":58,"Velocity":42,"Duration":203349,"SoundDuration":203349,"Delta":280250953},{"NoteNumber":55,"Velocity":35,"Duration":203349,"SoundDuration":203349,"Delta":280250953},{"NoteNumber":69,"Velocity":72,"Duration":199114,"SoundDuration":199114,"Delta":280526073},{"NoteNumber":81,"Velocity":85,"Duration":199114,"SoundDuration":199114,"Delta":280526073},{"NoteNumber":45,"Velocity":59,"Duration":199114,"SoundDuration":199114,"Delta":280526073},{"NoteNumber":33,"Velocity":50,"Duration":199114,"SoundDuration":199114,"Delta":280526073},{"NoteNumber":64,"Velocity":53,"Duration":66371,"SoundDuration":66371,"Delta":280725188},{"NoteNumber":61,"Velocity":45,"Duration":66371,"SoundDuration":66371,"Delta":280725188},{"NoteNumber":56,"Velocity":38,"Duration":66371,"SoundDuration":66371,"Delta":280725188},{"NoteNumber":52,"Velocity":32,"Duration":66371,"SoundDuration":66371,"Delta":280725188},{"NoteNumber":62,"Velocity":52,"Duration":205558,"SoundDuration":205558,"Delta":280791560},{"NoteNumber":65,"Velocity":62,"Duration":205558,"SoundDuration":205558,"Delta":280791560},{"NoteNumber":53,"Velocity":38,"Duration":205558,"SoundDuration":205558,"Delta":280791560},{"NoteNumber":57,"Velocity":45,"Duration":205558,"SoundDuration":205558,"Delta":280791560},{"NoteNumber":77,"Velocity":78,"Duration":200892,"SoundDuration":200892,"Delta":281069934},{"NoteNumber":65,"Velocity":66,"Duration":200892,"SoundDuration":200892,"Delta":281069934},{"NoteNumber":29,"Velocity":45,"Duration":200892,"SoundDuration":200892,"Delta":281069934},{"NoteNumber":41,"Velocity":53,"Duration":200892,"SoundDuration":200892,"Delta":281069934},{"NoteNumber":56,"Velocity":45,"Duration":66964,"SoundDuration":66964,"Delta":281270827},{"NoteNumber":61,"Velocity":53,"Duration":66964,"SoundDuration":66964,"Delta":281270827},{"NoteNumber":52,"Velocity":39,"Duration":66964,"SoundDuration":66964,"Delta":281270827},{"NoteNumber":57,"Velocity":51,"Duration":205698,"SoundDuration":205698,"Delta":281337791},{"NoteNumber":62,"Velocity":60,"Duration":205698,"SoundDuration":205698,"Delta":281337791},{"NoteNumber":53,"Velocity":47,"Duration":205698,"SoundDuration":205698,"Delta":281337791},{"NoteNumber":64,"Velocity":72,"Duration":202702,"SoundDuration":202702,"Delta":281615260},{"NoteNumber":76,"Velocity":85,"Duration":202702,"SoundDuration":202702,"Delta":281615260},{"NoteNumber":28,"Velocity":50,"Duration":202702,"SoundDuration":202702,"Delta":281615260},{"NoteNumber":40,"Velocity":59,"Duration":202702,"SoundDuration":202702,"Delta":281615260},{"NoteNumber":55,"Velocity":52,"Duration":210892,"SoundDuration":210892,"Delta":281885531},{"NoteNumber":58,"Velocity":52,"Duration":210892,"SoundDuration":210892,"Delta":281885531},{"NoteNumber":62,"Velocity":62,"Duration":210892,"SoundDuration":210892,"Delta":281885531},{"NoteNumber":52,"Velocity":45,"Duration":210892,"SoundDuration":210892,"Delta":281885531},{"NoteNumber":50,"Velocity":38,"Duration":210892,"SoundDuration":210892,"Delta":281885531},{"NoteNumber":46,"Velocity":38,"Duration":210892,"SoundDuration":210892,"Delta":281885531},{"NoteNumber":69,"Velocity":66,"Duration":209302,"SoundDuration":209302,"Delta":282172181},{"NoteNumber":81,"Velocity":78,"Duration":209302,"SoundDuration":209302,"Delta":282172181},{"NoteNumber":33,"Velocity":45,"Duration":209302,"SoundDuration":209302,"Delta":282172181},{"NoteNumber":45,"Velocity":53,"Duration":209302,"SoundDuration":209302,"Delta":282172181},{"NoteNumber":69,"Velocity":60,"Duration":240641,"SoundDuration":240641,"Delta":282451251},{"NoteNumber":61,"Velocity":51,"Duration":240641,"SoundDuration":240641,"Delta":282451251},{"NoteNumber":57,"Velocity":51,"Duration":240641,"SoundDuration":240641,"Delta":282451251},{"NoteNumber":64,"Velocity":51,"Duration":240641,"SoundDuration":240641,"Delta":282451251},{"NoteNumber":55,"Velocity":47,"Duration":240641,"SoundDuration":240641,"Delta":282451251},{"NoteNumber":45,"Velocity":38,"Duration":240641,"SoundDuration":240641,"Delta":282451251},{"NoteNumber":49,"Velocity":38,"Duration":240641,"SoundDuration":240641,"Delta":282451251},{"NoteNumber":52,"Velocity":38,"Duration":240641,"SoundDuration":240641,"Delta":282451251},{"NoteNumber":62,"Velocity":70,"Duration":93406,"SoundDuration":93406,"Delta":282772107},{"NoteNumber":53,"Velocity":67,"Duration":164835,"SoundDuration":164835,"Delta":282772107},{"NoteNumber":50,"Velocity":56,"Duration":329670,"SoundDuration":329670,"Delta":282772107},{"NoteNumber":38,"Velocity":56,"Duration":329670,"SoundDuration":329670,"Delta":282772107},{"NoteNumber":45,"Velocity":56,"Duration":329670,"SoundDuration":329670,"Delta":282772107},{"NoteNumber":57,"Velocity":67,"Duration":164835,"SoundDuration":164835,"Delta":282772107},{"NoteNumber":62,"Velocity":53,"Duration":93406,"SoundDuration":93406,"Delta":282881997},{"NoteNumber":74,"Velocity":54,"Duration":93406,"SoundDuration":93406,"Delta":282991887},{"NoteNumber":74,"Velocity":54,"Duration":89947,"SoundDuration":89947,"Delta":283101777},{"NoteNumber":86,"Velocity":54,"Duration":89947,"SoundDuration":89947,"Delta":283207597},{"NoteNumber":86,"Velocity":58,"Duration":89947,"SoundDuration":89947,"Delta":283313418},{"NoteNumber":98,"Velocity":62,"Duration":89947,"SoundDuration":89947,"Delta":283419238},{"NoteNumber":86,"Velocity":54,"Duration":89947,"SoundDuration":89947,"Delta":283525058},{"NoteNumber":86,"Velocity":58,"Duration":89947,"SoundDuration":89947,"Delta":283630878},{"NoteNumber":74,"Velocity":54,"Duration":89947,"SoundDuration":89947,"Delta":283736698},{"NoteNumber":74,"Velocity":58,"Duration":96935,"SoundDuration":96935,"Delta":283842518},{"NoteNumber":38,"Velocity":58,"Duration":141509,"SoundDuration":141509,"Delta":283895428},{"NoteNumber":50,"Velocity":69,"Duration":141509,"SoundDuration":141509,"Delta":283895428},{"NoteNumber":62,"Velocity":54,"Duration":106918,"SoundDuration":106918,"Delta":283958322},{"NoteNumber":39,"Velocity":66,"Duration":1128661,"SoundDuration":1128661,"Delta":284036938},{"NoteNumber":42,"Velocity":66,"Duration":1126096,"SoundDuration":1126096,"Delta":284052661},{"NoteNumber":45,"Velocity":66,"Duration":1123530,"SoundDuration":1123530,"Delta":284068384},{"NoteNumber":51,"Velocity":78,"Duration":1120965,"SoundDuration":1120965,"Delta":284084108},{"NoteNumber":62,"Velocity":45,"Duration":93922,"SoundDuration":93922,"Delta":284194605},{"NoteNumber":66,"Velocity":54,"Duration":93922,"SoundDuration":93922,"Delta":284194605},{"NoteNumber":72,"Velocity":45,"Duration":93922,"SoundDuration":93922,"Delta":284305102},{"NoteNumber":74,"Velocity":54,"Duration":93922,"SoundDuration":93922,"Delta":284305102},{"NoteNumber":74,"Velocity":46,"Duration":89473,"SoundDuration":89473,"Delta":284415599},{"NoteNumber":78,"Velocity":55,"Duration":89473,"SoundDuration":89473,"Delta":284415599},{"NoteNumber":84,"Velocity":49,"Duration":89473,"SoundDuration":89473,"Delta":284520862},{"NoteNumber":86,"Velocity":58,"Duration":89473,"SoundDuration":89473,"Delta":284520862},{"NoteNumber":90,"Velocity":55,"Duration":89473,"SoundDuration":89473,"Delta":284626126},{"NoteNumber":86,"Velocity":46,"Duration":89473,"SoundDuration":89473,"Delta":284626126},{"NoteNumber":96,"Velocity":53,"Duration":89473,"SoundDuration":89473,"Delta":284731389},{"NoteNumber":98,"Velocity":63,"Duration":89473,"SoundDuration":89473,"Delta":284731389},{"NoteNumber":90,"Velocity":55,"Duration":89473,"SoundDuration":89473,"Delta":284836652},{"NoteNumber":86,"Velocity":46,"Duration":89473,"SoundDuration":89473,"Delta":284836652},{"NoteNumber":86,"Velocity":60,"Duration":89473,"SoundDuration":89473,"Delta":284941915},{"NoteNumber":84,"Velocity":51,"Duration":89473,"SoundDuration":89473,"Delta":284941915},{"NoteNumber":78,"Velocity":55,"Duration":89473,"SoundDuration":89473,"Delta":285047178},{"NoteNumber":74,"Velocity":46,"Duration":89473,"SoundDuration":89473,"Delta":285047178},{"NoteNumber":72,"Velocity":49,"Duration":95841,"SoundDuration":95841,"Delta":285152441},{"NoteNumber":74,"Velocity":58,"Duration":95841,"SoundDuration":95841,"Delta":285152441},{"NoteNumber":50,"Velocity":68,"Duration":138888,"SoundDuration":138888,"Delta":285205073},{"NoteNumber":38,"Velocity":57,"Duration":138888,"SoundDuration":138888,"Delta":285205073},{"NoteNumber":66,"Velocity":54,"Duration":104938,"SoundDuration":104938,"Delta":285266801},{"NoteNumber":62,"Velocity":45,"Duration":104938,"SoundDuration":104938,"Delta":285266801},{"NoteNumber":41,"Velocity":65,"Duration":1141661,"SoundDuration":1141661,"Delta":285343962},{"NoteNumber":44,"Velocity":65,"Duration":1139598,"SoundDuration":1139598,"Delta":285359394},{"NoteNumber":47,"Velocity":65,"Duration":1137535,"SoundDuration":1137535,"Delta":285374826},{"NoteNumber":53,"Velocity":77,"Duration":1135472,"SoundDuration":1135472,"Delta":285390258},{"NoteNumber":65,"Velocity":53,"Duration":94444,"SoundDuration":94444,"Delta":285501369},{"NoteNumber":62,"Velocity":45,"Duration":94444,"SoundDuration":94444,"Delta":285501369},{"NoteNumber":74,"Velocity":53,"Duration":94444,"SoundDuration":94444,"Delta":285612481},{"NoteNumber":71,"Velocity":45,"Duration":94444,"SoundDuration":94444,"Delta":285612481},{"NoteNumber":77,"Velocity":53,"Duration":90909,"SoundDuration":90909,"Delta":285723592},{"NoteNumber":74,"Velocity":45,"Duration":90909,"SoundDuration":90909,"Delta":285723592},{"NoteNumber":86,"Velocity":56,"Duration":90909,"SoundDuration":90909,"Delta":285830544},{"NoteNumber":83,"Velocity":47,"Duration":90909,"SoundDuration":90909,"Delta":285830544},{"NoteNumber":89,"Velocity":53,"Duration":90909,"SoundDuration":90909,"Delta":285937495},{"NoteNumber":86,"Velocity":45,"Duration":90909,"SoundDuration":90909,"Delta":285937495},{"NoteNumber":98,"Velocity":60,"Duration":90909,"SoundDuration":90909,"Delta":286044447},{"NoteNumber":95,"Velocity":51,"Duration":90909,"SoundDuration":90909,"Delta":286044447},{"NoteNumber":86,"Velocity":45,"Duration":90909,"SoundDuration":90909,"Delta":286151399},{"NoteNumber":89,"Velocity":53,"Duration":90909,"SoundDuration":90909,"Delta":286151399},{"NoteNumber":83,"Velocity":47,"Duration":90909,"SoundDuration":90909,"Delta":286258351},{"NoteNumber":86,"Velocity":56,"Duration":90909,"SoundDuration":90909,"Delta":286258351},{"NoteNumber":77,"Velocity":53,"Duration":90909,"SoundDuration":90909,"Delta":286365303},{"NoteNumber":74,"Velocity":45,"Duration":90909,"SoundDuration":90909,"Delta":286365303},{"NoteNumber":71,"Velocity":48,"Duration":94652,"SoundDuration":94652,"Delta":286472255},{"NoteNumber":74,"Velocity":57,"Duration":94652,"SoundDuration":94652,"Delta":286472255},{"NoteNumber":50,"Velocity":67,"Duration":132352,"SoundDuration":132352,"Delta":286525730},{"NoteNumber":38,"Velocity":56,"Duration":132352,"SoundDuration":132352,"Delta":286525730},{"NoteNumber":62,"Velocity":45,"Duration":99999,"SoundDuration":99999,"Delta":286584554},{"NoteNumber":65,"Velocity":53,"Duration":99999,"SoundDuration":99999,"Delta":286584554},{"NoteNumber":46,"Velocity":65,"Duration":332579,"SoundDuration":332579,"Delta":286658083},{"NoteNumber":50,"Velocity":65,"Duration":331609,"SoundDuration":331609,"Delta":286672789},{"NoteNumber":55,"Velocity":65,"Duration":330640,"SoundDuration":330640,"Delta":286687495},{"NoteNumber":58,"Velocity":77,"Duration":329670,"SoundDuration":329670,"Delta":286702201},{"NoteNumber":62,"Velocity":45,"Duration":93406,"SoundDuration":93406,"Delta":286812091},{"NoteNumber":64,"Velocity":53,"Duration":93406,"SoundDuration":93406,"Delta":286812091},{"NoteNumber":70,"Velocity":45,"Duration":93406,"SoundDuration":93406,"Delta":286921981},{"NoteNumber":74,"Velocity":53,"Duration":93406,"SoundDuration":93406,"Delta":286921981},{"NoteNumber":76,"Velocity":53,"Duration":89947,"SoundDuration":89947,"Delta":287031871},{"NoteNumber":74,"Velocity":45,"Duration":89947,"SoundDuration":89947,"Delta":287031871},{"NoteNumber":82,"Velocity":47,"Duration":89947,"SoundDuration":89947,"Delta":287137692},{"NoteNumber":86,"Velocity":56,"Duration":89947,"SoundDuration":89947,"Delta":287137692},{"NoteNumber":58,"Velocity":67,"Duration":158730,"SoundDuration":158730,"Delta":287190602},{"NoteNumber":46,"Velocity":56,"Duration":158730,"SoundDuration":158730,"Delta":287190602},{"NoteNumber":86,"Velocity":45,"Duration":89947,"SoundDuration":89947,"Delta":287243512},{"NoteNumber":88,"Velocity":53,"Duration":89947,"SoundDuration":89947,"Delta":287243512},{"NoteNumber":98,"Velocity":60,"Duration":89947,"SoundDuration":89947,"Delta":287349332},{"NoteNumber":94,"Velocity":51,"Duration":89947,"SoundDuration":89947,"Delta":287349332},{"NoteNumber":57,"Velocity":77,"Duration":323565,"SoundDuration":323565,"Delta":287349332},{"NoteNumber":45,"Velocity":65,"Duration":323565,"SoundDuration":323565,"Delta":287349332},{"NoteNumber":86,"Velocity":45,"Duration":91371,"SoundDuration":91371,"Delta":287455152},{"NoteNumber":88,"Velocity":53,"Duration":91371,"SoundDuration":91371,"Delta":287455152},{"NoteNumber":82,"Velocity":47,"Duration":93406,"SoundDuration":93406,"Delta":287563007},{"NoteNumber":86,"Velocity":56,"Duration":93406,"SoundDuration":93406,"Delta":287563007},{"NoteNumber":74,"Velocity":45,"Duration":93406,"SoundDuration":93406,"Delta":287672897},{"NoteNumber":76,"Velocity":53,"Duration":93406,"SoundDuration":93406,"Delta":287672897},{"NoteNumber":70,"Velocity":48,"Duration":111855,"SoundDuration":111855,"Delta":287782788},{"NoteNumber":74,"Velocity":57,"Duration":111855,"SoundDuration":111855,"Delta":287782788},{"NoteNumber":55,"Velocity":67,"Duration":182926,"SoundDuration":182926,"Delta":287837733},{"NoteNumber":43,"Velocity":56,"Duration":182926,"SoundDuration":182926,"Delta":287837733},{"NoteNumber":62,"Velocity":45,"Duration":138211,"SoundDuration":138211,"Delta":287919034},{"NoteNumber":64,"Velocity":53,"Duration":138211,"SoundDuration":138211,"Delta":287919034},{"NoteNumber":38,"Velocity":66,"Duration":988276,"SoundDuration":988276,"Delta":288020660},{"NoteNumber":42,"Velocity":66,"Duration":981109,"SoundDuration":981109,"Delta":288040985},{"NoteNumber":45,"Velocity":66,"Duration":973941,"SoundDuration":973941,"Delta":288061310},{"NoteNumber":50,"Velocity":78,"Duration":966774,"SoundDuration":966774,"Delta":288081635},{"NoteNumber":66,"Velocity":54,"Duration":94972,"SoundDuration":94972,"Delta":288193367},{"NoteNumber":62,"Velocity":45,"Duration":94972,"SoundDuration":94972,"Delta":288193367},{"NoteNumber":69,"Velocity":45,"Duration":94972,"SoundDuration":94972,"Delta":288305099},{"NoteNumber":74,"Velocity":54,"Duration":94972,"SoundDuration":94972,"Delta":288305099},{"NoteNumber":74,"Velocity":46,"Duration":89473,"SoundDuration":89473,"Delta":288416831},{"NoteNumber":78,"Velocity":55,"Duration":89473,"SoundDuration":89473,"Delta":288416831},{"NoteNumber":81,"Velocity":49,"Duration":89473,"SoundDuration":89473,"Delta":288522094},{"NoteNumber":86,"Velocity":58,"Duration":89473,"SoundDuration":89473,"Delta":288522094},{"NoteNumber":86,"Velocity":46,"Duration":89473,"SoundDuration":89473,"Delta":288627357},{"NoteNumber":90,"Velocity":55,"Duration":89473,"SoundDuration":89473,"Delta":288627357},{"NoteNumber":93,"Velocity":53,"Duration":89473,"SoundDuration":89473,"Delta":288732620},{"NoteNumber":98,"Velocity":63,"Duration":89473,"SoundDuration":89473,"Delta":288732620},{"NoteNumber":90,"Velocity":55,"Duration":89473,"SoundDuration":89473,"Delta":288837883},{"NoteNumber":86,"Velocity":46,"Duration":89473,"SoundDuration":89473,"Delta":288837883},{"NoteNumber":86,"Velocity":60,"Duration":89473,"SoundDuration":89473,"Delta":288943147},{"NoteNumber":81,"Velocity":51,"Duration":89473,"SoundDuration":89473,"Delta":288943147},{"NoteNumber":78,"Velocity":55,"Duration":89473,"SoundDuration":89473,"Delta":289048410},{"NoteNumber":74,"Velocity":46,"Duration":89473,"SoundDuration":89473,"Delta":289048410},{"NoteNumber":69,"Velocity":49,"Duration":93808,"SoundDuration":93808,"Delta":289153673},{"NoteNumber":74,"Velocity":58,"Duration":93808,"SoundDuration":93808,"Delta":289153673},{"NoteNumber":50,"Velocity":68,"Duration":132352,"SoundDuration":132352,"Delta":289206304},{"NoteNumber":38,"Velocity":57,"Duration":132352,"SoundDuration":132352,"Delta":289206304},{"NoteNumber":66,"Velocity":54,"Duration":99999,"SoundDuration":99999,"Delta":289265128},{"NoteNumber":62,"Velocity":45,"Duration":99999,"SoundDuration":99999,"Delta":289265128},{"NoteNumber":39,"Velocity":66,"Duration":1137292,"SoundDuration":1137292,"Delta":289338657},{"NoteNumber":42,"Velocity":66,"Duration":1135884,"SoundDuration":1135884,"Delta":289353363},{"NoteNumber":45,"Velocity":66,"Duration":1134476,"SoundDuration":1134476,"Delta":289368069},{"NoteNumber":51,"Velocity":78,"Duration":1133067,"SoundDuration":1133067,"Delta":289382775},{"NoteNumber":63,"Velocity":54,"Duration":94972,"SoundDuration":94972,"Delta":289494507},{"NoteNumber":60,"Velocity":45,"Duration":94972,"SoundDuration":94972,"Delta":289494507},{"NoteNumber":66,"Velocity":45,"Duration":94972,"SoundDuration":94972,"Delta":289606239},{"NoteNumber":72,"Velocity":54,"Duration":94972,"SoundDuration":94972,"Delta":289606239},{"NoteNumber":75,"Velocity":55,"Duration":90425,"SoundDuration":90425,"Delta":289717970},{"NoteNumber":72,"Velocity":46,"Duration":90425,"SoundDuration":90425,"Delta":289717970},{"NoteNumber":78,"Velocity":49,"Duration":90425,"SoundDuration":90425,"Delta":289824353},{"NoteNumber":84,"Velocity":58,"Duration":90425,"SoundDuration":90425,"Delta":289824353},{"NoteNumber":84,"Velocity":46,"Duration":90425,"SoundDuration":90425,"Delta":289930736},{"NoteNumber":87,"Velocity":55,"Duration":90425,"SoundDuration":90425,"Delta":289930736},{"NoteNumber":96,"Velocity":63,"Duration":90425,"SoundDuration":90425,"Delta":290037119},{"NoteNumber":90,"Velocity":53,"Duration":90425,"SoundDuration":90425,"Delta":290037119},{"NoteNumber":87,"Velocity":55,"Duration":90425,"SoundDuration":90425,"Delta":290143502},{"NoteNumber":84,"Velocity":46,"Duration":90425,"SoundDuration":90425,"Delta":290143502},{"NoteNumber":84,"Velocity":60,"Duration":90425,"SoundDuration":90425,"Delta":290249885},{"NoteNumber":78,"Velocity":51,"Duration":90425,"SoundDuration":90425,"Delta":290249885},{"NoteNumber":72,"Velocity":46,"Duration":90425,"SoundDuration":90425,"Delta":290356268},{"NoteNumber":75,"Velocity":55,"Duration":90425,"SoundDuration":90425,"Delta":290356268},{"NoteNumber":72,"Velocity":58,"Duration":94611,"SoundDuration":94611,"Delta":290462651},{"NoteNumber":66,"Velocity":49,"Duration":94611,"SoundDuration":94611,"Delta":290462651},{"NoteNumber":50,"Velocity":68,"Duration":133136,"SoundDuration":133136,"Delta":290515843},{"NoteNumber":38,"Velocity":57,"Duration":133136,"SoundDuration":133136,"Delta":290515843},{"NoteNumber":60,"Velocity":45,"Duration":100591,"SoundDuration":100591,"Delta":290575015},{"NoteNumber":63,"Velocity":54,"Duration":100591,"SoundDuration":100591,"Delta":290575015},{"NoteNumber":35,"Velocity":65,"Duration":1135691,"SoundDuration":1135691,"Delta":290648979},{"NoteNumber":41,"Velocity":65,"Duration":1134196,"SoundDuration":1134196,"Delta":290663772},{"NoteNumber":44,"Velocity":65,"Duration":1132701,"SoundDuration":1132701,"Delta":290678565},{"NoteNumber":47,"Velocity":77,"Duration":1131205,"SoundDuration":1131205,"Delta":290693358},{"NoteNumber":62,"Velocity":53,"Duration":94444,"SoundDuration":94444,"Delta":290804469},{"NoteNumber":59,"Velocity":45,"Duration":94444,"SoundDuration":94444,"Delta":290804469},{"NoteNumber":71,"Velocity":53,"Duration":94444,"SoundDuration":94444,"Delta":290915580},{"NoteNumber":65,"Velocity":45,"Duration":94444,"SoundDuration":94444,"Delta":290915580},{"NoteNumber":74,"Velocity":53,"Duration":90425,"SoundDuration":90425,"Delta":291026691},{"NoteNumber":71,"Velocity":45,"Duration":90425,"SoundDuration":90425,"Delta":291026691},{"NoteNumber":83,"Velocity":56,"Duration":90425,"SoundDuration":90425,"Delta":291133074},{"NoteNumber":77,"Velocity":47,"Duration":90425,"SoundDuration":90425,"Delta":291133074},{"NoteNumber":86,"Velocity":53,"Duration":90425,"SoundDuration":90425,"Delta":291239457},{"NoteNumber":83,"Velocity":45,"Duration":90425,"SoundDuration":90425,"Delta":291239457},{"NoteNumber":95,"Velocity":60,"Duration":90425,"SoundDuration":90425,"Delta":291345840},{"NoteNumber":89,"Velocity":51,"Duration":90425,"SoundDuration":90425,"Delta":291345840},{"NoteNumber":83,"Velocity":45,"Duration":90425,"SoundDuration":90425,"Delta":291452223},{"NoteNumber":86,"Velocity":53,"Duration":90425,"SoundDuration":90425,"Delta":291452223},{"NoteNumber":77,"Velocity":47,"Duration":90425,"SoundDuration":90425,"Delta":291558606},{"NoteNumber":83,"Velocity":56,"Duration":90425,"SoundDuration":90425,"Delta":291558606},{"NoteNumber":74,"Velocity":53,"Duration":90425,"SoundDuration":90425,"Delta":291664989},{"NoteNumber":71,"Velocity":45,"Duration":90425,"SoundDuration":90425,"Delta":291664989},{"NoteNumber":71,"Velocity":57,"Duration":94611,"SoundDuration":94611,"Delta":291771372},{"NoteNumber":65,"Velocity":48,"Duration":94611,"SoundDuration":94611,"Delta":291771372},{"NoteNumber":38,"Velocity":56,"Duration":177514,"SoundDuration":177514,"Delta":291824564},{"NoteNumber":50,"Velocity":67,"Duration":177514,"SoundDuration":177514,"Delta":291824564},{"NoteNumber":59,"Velocity":45,"Duration":100591,"SoundDuration":100591,"Delta":291883735},{"NoteNumber":62,"Velocity":53,"Duration":100591,"SoundDuration":100591,"Delta":291883735},{"NoteNumber":58,"Velocity":45,"Duration":94972,"SoundDuration":94972,"Delta":292002078},{"NoteNumber":61,"Velocity":53,"Duration":94972,"SoundDuration":94972,"Delta":292002078},{"NoteNumber":40,"Velocity":65,"Duration":335195,"SoundDuration":335195,"Delta":292002078},{"NoteNumber":34,"Velocity":65,"Duration":335195,"SoundDuration":335195,"Delta":292002078},{"NoteNumber":46,"Velocity":77,"Duration":335195,"SoundDuration":335195,"Delta":292002078},{"NoteNumber":37,"Velocity":65,"Duration":335195,"SoundDuration":335195,"Delta":292002078},{"NoteNumber":64,"Velocity":45,"Duration":94972,"SoundDuration":94972,"Delta":292113810},{"NoteNumber":70,"Velocity":53,"Duration":94972,"SoundDuration":94972,"Delta":292113810},{"NoteNumber":70,"Velocity":45,"Duration":94972,"SoundDuration":94972,"Delta":292225542},{"NoteNumber":73,"Velocity":53,"Duration":94972,"SoundDuration":94972,"Delta":292225542},{"NoteNumber":82,"Velocity":56,"Duration":89947,"SoundDuration":89947,"Delta":292337274},{"NoteNumber":76,"Velocity":47,"Duration":89947,"SoundDuration":89947,"Delta":292337274},{"NoteNumber":82,"Velocity":45,"Duration":89947,"SoundDuration":89947,"Delta":292443094},{"NoteNumber":85,"Velocity":53,"Duration":89947,"SoundDuration":89947,"Delta":292443094},{"NoteNumber":46,"Velocity":67,"Duration":158730,"SoundDuration":158730,"Delta":292496004},{"NoteNumber":34,"Velocity":56,"Duration":158730,"SoundDuration":158730,"Delta":292496004},{"NoteNumber":94,"Velocity":60,"Duration":89947,"SoundDuration":89947,"Delta":292548914},{"NoteNumber":88,"Velocity":51,"Duration":89947,"SoundDuration":89947,"Delta":292548914},{"NoteNumber":58,"Velocity":53,"Duration":89947,"SoundDuration":89947,"Delta":292654734},{"NoteNumber":55,"Velocity":45,"Duration":89947,"SoundDuration":89947,"Delta":292654734},{"NoteNumber":31,"Velocity":65,"Duration":317460,"SoundDuration":317460,"Delta":292654734},{"NoteNumber":43,"Velocity":77,"Duration":317460,"SoundDuration":317460,"Delta":292654734},{"NoteNumber":40,"Velocity":65,"Duration":317460,"SoundDuration":317460,"Delta":292654734},{"NoteNumber":37,"Velocity":65,"Duration":317460,"SoundDuration":317460,"Delta":292654734},{"NoteNumber":67,"Velocity":53,"Duration":89947,"SoundDuration":89947,"Delta":292760555},{"NoteNumber":61,"Velocity":45,"Duration":89947,"SoundDuration":89947,"Delta":292760555},{"NoteNumber":67,"Velocity":45,"Duration":89947,"SoundDuration":89947,"Delta":292866375},{"NoteNumber":70,"Velocity":53,"Duration":89947,"SoundDuration":89947,"Delta":292866375},{"NoteNumber":79,"Velocity":56,"Duration":89947,"SoundDuration":89947,"Delta":292972195},{"NoteNumber":73,"Velocity":47,"Duration":89947,"SoundDuration":89947,"Delta":292972195},{"NoteNumber":82,"Velocity":53,"Duration":94826,"SoundDuration":94826,"Delta":293078015},{"NoteNumber":79,"Velocity":45,"Duration":94826,"SoundDuration":94826,"Delta":293078015},{"NoteNumber":43,"Velocity":67,"Duration":179640,"SoundDuration":179640,"Delta":293130925},{"NoteNumber":31,"Velocity":56,"Duration":179640,"SoundDuration":179640,"Delta":293130925},{"NoteNumber":91,"Velocity":60,"Duration":101796,"SoundDuration":101796,"Delta":293190805},{"NoteNumber":85,"Velocity":51,"Duration":101796,"SoundDuration":101796,"Delta":293190805},{"NoteNumber":62,"Velocity":70,"Duration":179640,"SoundDuration":179640,"Delta":293310566},{"NoteNumber":57,"Velocity":67,"Duration":179640,"SoundDuration":179640,"Delta":293310566},{"NoteNumber":53,"Velocity":67,"Duration":179640,"SoundDuration":179640,"Delta":293310566},{"NoteNumber":38,"Velocity":56,"Duration":179640,"SoundDuration":179640,"Delta":293310566},{"NoteNumber":45,"Velocity":56,"Duration":179640,"SoundDuration":179640,"Delta":293310566},{"NoteNumber":50,"Velocity":56,"Duration":179640,"SoundDuration":179640,"Delta":293310566},{"NoteNumber":85,"Velocity":60,"Duration":99009,"SoundDuration":99009,"Delta":293669847},{"NoteNumber":94,"Velocity":70,"Duration":297029,"SoundDuration":297029,"Delta":293669847},{"NoteNumber":76,"Velocity":60,"Duration":99009,"SoundDuration":99009,"Delta":293669847},{"NoteNumber":67,"Velocity":59,"Duration":297029,"SoundDuration":297029,"Delta":293669847},{"NoteNumber":84,"Velocity":60,"Duration":99009,"SoundDuration":99009,"Delta":293768857},{"NoteNumber":75,"Velocity":60,"Duration":99009,"SoundDuration":99009,"Delta":293768857},{"NoteNumber":83,"Velocity":60,"Duration":99009,"SoundDuration":99009,"Delta":293867867},{"NoteNumber":74,"Velocity":60,"Duration":99009,"SoundDuration":99009,"Delta":293867867},{"NoteNumber":82,"Velocity":60,"Duration":99009,"SoundDuration":99009,"Delta":293966877},{"NoteNumber":91,"Velocity":76,"Duration":297029,"SoundDuration":297029,"Delta":293966877},{"NoteNumber":73,"Velocity":60,"Duration":99009,"SoundDuration":99009,"Delta":293966877},{"NoteNumber":64,"Velocity":63,"Duration":297029,"SoundDuration":297029,"Delta":293966877},{"NoteNumber":81,"Velocity":60,"Duration":99009,"SoundDuration":99009,"Delta":294065887},{"NoteNumber":72,"Velocity":60,"Duration":99009,"SoundDuration":99009,"Delta":294065887},{"NoteNumber":80,"Velocity":60,"Duration":99009,"SoundDuration":99009,"Delta":294164897},{"NoteNumber":71,"Velocity":60,"Duration":99009,"SoundDuration":99009,"Delta":294164897},{"NoteNumber":88,"Velocity":70,"Duration":315789,"SoundDuration":315789,"Delta":294263906},{"NoteNumber":79,"Velocity":60,"Duration":105263,"SoundDuration":105263,"Delta":294263906},{"NoteNumber":70,"Velocity":60,"Duration":105263,"SoundDuration":105263,"Delta":294263906},{"NoteNumber":61,"Velocity":58,"Duration":315789,"SoundDuration":315789,"Delta":294263906},{"NoteNumber":78,"Velocity":60,"Duration":105263,"SoundDuration":105263,"Delta":294369170},{"NoteNumber":69,"Velocity":60,"Duration":105263,"SoundDuration":105263,"Delta":294369170},{"NoteNumber":77,"Velocity":60,"Duration":105263,"SoundDuration":105263,"Delta":294474433},{"NoteNumber":68,"Velocity":60,"Duration":105263,"SoundDuration":105263,"Delta":294474433},{"NoteNumber":85,"Velocity":76,"Duration":157894,"SoundDuration":157894,"Delta":294579696},{"NoteNumber":76,"Velocity":64,"Duration":157894,"SoundDuration":157894,"Delta":294579696},{"NoteNumber":67,"Velocity":63,"Duration":157894,"SoundDuration":157894,"Delta":294579696},{"NoteNumber":58,"Velocity":53,"Duration":157894,"SoundDuration":157894,"Delta":294579696},{"NoteNumber":70,"Velocity":59,"Duration":155440,"SoundDuration":155440,"Delta":294895485},{"NoteNumber":82,"Velocity":70,"Duration":155440,"SoundDuration":155440,"Delta":294895485},{"NoteNumber":55,"Velocity":63,"Duration":155440,"SoundDuration":155440,"Delta":294895485},{"NoteNumber":43,"Velocity":53,"Duration":155440,"SoundDuration":155440,"Delta":294895485},{"NoteNumber":73,"Velocity":52,"Duration":155440,"SoundDuration":155440,"Delta":295050926},{"NoteNumber":76,"Velocity":62,"Duration":155440,"SoundDuration":155440,"Delta":295050926},{"NoteNumber":52,"Velocity":57,"Duration":155440,"SoundDuration":155440,"Delta":295050926},{"NoteNumber":49,"Velocity":48,"Duration":155440,"SoundDuration":155440,"Delta":295050926},{"NoteNumber":69,"Velocity":59,"Duration":155440,"SoundDuration":155440,"Delta":295206366},{"NoteNumber":81,"Velocity":70,"Duration":155440,"SoundDuration":155440,"Delta":295206366},{"NoteNumber":57,"Velocity":63,"Duration":155440,"SoundDuration":155440,"Delta":295206366},{"NoteNumber":45,"Velocity":53,"Duration":155440,"SoundDuration":155440,"Delta":295206366},{"NoteNumber":76,"Velocity":62,"Duration":155440,"SoundDuration":155440,"Delta":295361807},{"NoteNumber":73,"Velocity":52,"Duration":155440,"SoundDuration":155440,"Delta":295361807},{"NoteNumber":49,"Velocity":49,"Duration":155440,"SoundDuration":155440,"Delta":295361807},{"NoteNumber":52,"Velocity":58,"Duration":155440,"SoundDuration":155440,"Delta":295361807},{"NoteNumber":67,"Velocity":59,"Duration":165745,"SoundDuration":165745,"Delta":295517247},{"NoteNumber":79,"Velocity":70,"Duration":165745,"SoundDuration":165745,"Delta":295517247},{"NoteNumber":46,"Velocity":53,"Duration":165745,"SoundDuration":165745,"Delta":295517247},{"NoteNumber":58,"Velocity":63,"Duration":165745,"SoundDuration":165745,"Delta":295517247},{"NoteNumber":70,"Velocity":53,"Duration":165745,"SoundDuration":165745,"Delta":295682993},{"NoteNumber":73,"Velocity":63,"Duration":165745,"SoundDuration":165745,"Delta":295682993},{"NoteNumber":52,"Velocity":48,"Duration":165745,"SoundDuration":165745,"Delta":295682993},{"NoteNumber":55,"Velocity":57,"Duration":165745,"SoundDuration":165745,"Delta":295682993},{"NoteNumber":74,"Velocity":60,"Duration":153061,"SoundDuration":153061,"Delta":295848739},{"NoteNumber":86,"Velocity":72,"Duration":153061,"SoundDuration":153061,"Delta":295848739},{"NoteNumber":78,"Velocity":60,"Duration":153061,"SoundDuration":153061,"Delta":295848739},{"NoteNumber":57,"Velocity":64,"Duration":153061,"SoundDuration":153061,"Delta":295848739},{"NoteNumber":54,"Velocity":64,"Duration":153061,"SoundDuration":153061,"Delta":295848739},{"NoteNumber":62,"Velocity":64,"Duration":153061,"SoundDuration":153061,"Delta":295848739},{"NoteNumber":50,"Velocity":64,"Duration":153061,"SoundDuration":153061,"Delta":295848739},{"NoteNumber":82,"Velocity":63,"Duration":298507,"SoundDuration":298507,"Delta":296154861},{"NoteNumber":73,"Velocity":54,"Duration":99502,"SoundDuration":99502,"Delta":296154861},{"NoteNumber":64,"Velocity":54,"Duration":99502,"SoundDuration":99502,"Delta":296154861},{"NoteNumber":55,"Velocity":53,"Duration":298507,"SoundDuration":298507,"Delta":296154861},{"NoteNumber":72,"Velocity":54,"Duration":99502,"SoundDuration":99502,"Delta":296254364},{"NoteNumber":63,"Velocity":54,"Duration":99502,"SoundDuration":99502,"Delta":296254364},{"NoteNumber":71,"Velocity":54,"Duration":99502,"SoundDuration":99502,"Delta":296353866},{"NoteNumber":62,"Velocity":54,"Duration":99502,"SoundDuration":99502,"Delta":296353866},{"NoteNumber":79,"Velocity":68,"Duration":298507,"SoundDuration":298507,"Delta":296453369},{"NoteNumber":70,"Velocity":54,"Duration":99502,"SoundDuration":99502,"Delta":296453369},{"NoteNumber":52,"Velocity":56,"Duration":298507,"SoundDuration":298507,"Delta":296453369},{"NoteNumber":61,"Velocity":54,"Duration":99502,"SoundDuration":99502,"Delta":296453369},{"NoteNumber":69,"Velocity":54,"Duration":99502,"SoundDuration":99502,"Delta":296552871},{"NoteNumber":60,"Velocity":54,"Duration":99502,"SoundDuration":99502,"Delta":296552871},{"NoteNumber":68,"Velocity":54,"Duration":99502,"SoundDuration":99502,"Delta":296652374},{"NoteNumber":59,"Velocity":54,"Duration":99502,"SoundDuration":99502,"Delta":296652374},{"NoteNumber":76,"Velocity":63,"Duration":324324,"SoundDuration":324324,"Delta":296751876},{"NoteNumber":67,"Velocity":54,"Duration":108108,"SoundDuration":108108,"Delta":296751876},{"NoteNumber":49,"Velocity":52,"Duration":324324,"SoundDuration":324324,"Delta":296751876},{"NoteNumber":58,"Velocity":54,"Duration":108108,"SoundDuration":108108,"Delta":296751876},{"NoteNumber":66,"Velocity":54,"Duration":108108,"SoundDuration":108108,"Delta":296859985},{"NoteNumber":57,"Velocity":54,"Duration":108108,"SoundDuration":108108,"Delta":296859985},{"NoteNumber":65,"Velocity":54,"Duration":108108,"SoundDuration":108108,"Delta":296968093},{"NoteNumber":56,"Velocity":54,"Duration":108108,"SoundDuration":108108,"Delta":296968093},{"NoteNumber":64,"Velocity":57,"Duration":155440,"SoundDuration":155440,"Delta":297076201},{"NoteNumber":73,"Velocity":68,"Duration":155440,"SoundDuration":155440,"Delta":297076201},{"NoteNumber":55,"Velocity":56,"Duration":155440,"SoundDuration":155440,"Delta":297076201},{"NoteNumber":46,"Velocity":47,"Duration":155440,"SoundDuration":155440,"Delta":297076201},{"NoteNumber":58,"Velocity":58,"Duration":155440,"SoundDuration":155440,"Delta":297387082},{"NoteNumber":70,"Velocity":69,"Duration":155440,"SoundDuration":155440,"Delta":297387082},{"NoteNumber":43,"Velocity":61,"Duration":155440,"SoundDuration":155440,"Delta":297387082},{"NoteNumber":31,"Velocity":51,"Duration":155440,"SoundDuration":155440,"Delta":297387082},{"NoteNumber":64,"Velocity":60,"Duration":155440,"SoundDuration":155440,"Delta":297542522},{"NoteNumber":61,"Velocity":50,"Duration":155440,"SoundDuration":155440,"Delta":297542522},{"NoteNumber":40,"Velocity":56,"Duration":155440,"SoundDuration":155440,"Delta":297542522},{"NoteNumber":37,"Velocity":47,"Duration":155440,"SoundDuration":155440,"Delta":297542522},{"NoteNumber":69,"Velocity":69,"Duration":155440,"SoundDuration":155440,"Delta":297697963},{"NoteNumber":57,"Velocity":58,"Duration":155440,"SoundDuration":155440,"Delta":297697963},{"NoteNumber":33,"Velocity":51,"Duration":155440,"SoundDuration":155440,"Delta":297697963},{"NoteNumber":45,"Velocity":61,"Duration":155440,"SoundDuration":155440,"Delta":297697963},{"NoteNumber":61,"Velocity":50,"Duration":155440,"SoundDuration":155440,"Delta":297853403},{"NoteNumber":64,"Velocity":60,"Duration":155440,"SoundDuration":155440,"Delta":297853403},{"NoteNumber":37,"Velocity":48,"Duration":155440,"SoundDuration":155440,"Delta":297853403},{"NoteNumber":40,"Velocity":57,"Duration":155440,"SoundDuration":155440,"Delta":297853403},{"NoteNumber":67,"Velocity":69,"Duration":161290,"SoundDuration":161290,"Delta":298008844},{"NoteNumber":55,"Velocity":58,"Duration":161290,"SoundDuration":161290,"Delta":298008844},{"NoteNumber":46,"Velocity":61,"Duration":161290,"SoundDuration":161290,"Delta":298008844},{"NoteNumber":34,"Velocity":51,"Duration":161290,"SoundDuration":161290,"Delta":298008844},{"NoteNumber":58,"Velocity":51,"Duration":161290,"SoundDuration":161290,"Delta":298170134},{"NoteNumber":61,"Velocity":61,"Duration":161290,"SoundDuration":161290,"Delta":298170134},{"NoteNumber":40,"Velocity":47,"Duration":161290,"SoundDuration":161290,"Delta":298170134},{"NoteNumber":43,"Velocity":56,"Duration":161290,"SoundDuration":161290,"Delta":298170134},{"NoteNumber":62,"Velocity":59,"Duration":157894,"SoundDuration":157894,"Delta":298331424},{"NoteNumber":66,"Velocity":59,"Duration":157894,"SoundDuration":157894,"Delta":298331424},{"NoteNumber":74,"Velocity":70,"Duration":157894,"SoundDuration":157894,"Delta":298331424},{"NoteNumber":38,"Velocity":62,"Duration":157894,"SoundDuration":157894,"Delta":298331424},{"NoteNumber":50,"Velocity":62,"Duration":157894,"SoundDuration":157894,"Delta":298331424},{"NoteNumber":42,"Velocity":62,"Duration":157894,"SoundDuration":157894,"Delta":298331424},{"NoteNumber":45,"Velocity":62,"Duration":157894,"SoundDuration":157894,"Delta":298331424},{"NoteNumber":64,"Velocity":58,"Duration":111940,"SoundDuration":111940,"Delta":298647214},{"NoteNumber":70,"Velocity":58,"Duration":111940,"SoundDuration":111940,"Delta":298647214},{"NoteNumber":73,"Velocity":58,"Duration":111940,"SoundDuration":111940,"Delta":298647214},{"NoteNumber":76,"Velocity":69,"Duration":111940,"SoundDuration":111940,"Delta":298647214},{"NoteNumber":49,"Velocity":46,"Duration":111940,"SoundDuration":111940,"Delta":298647214},{"NoteNumber":55,"Velocity":55,"Duration":111940,"SoundDuration":111940,"Delta":298647214},{"NoteNumber":46,"Velocity":46,"Duration":111940,"SoundDuration":111940,"Delta":298647214},{"NoteNumber":43,"Velocity":46,"Duration":111940,"SoundDuration":111940,"Delta":298647214},{"NoteNumber":73,"Velocity":58,"Duration":111940,"SoundDuration":111940,"Delta":298796468},{"NoteNumber":64,"Velocity":58,"Duration":111940,"SoundDuration":111940,"Delta":298796468},{"NoteNumber":70,"Velocity":58,"Duration":111940,"SoundDuration":111940,"Delta":298796468},{"NoteNumber":76,"Velocity":69,"Duration":111940,"SoundDuration":111940,"Delta":298796468},{"NoteNumber":46,"Velocity":46,"Duration":111940,"SoundDuration":111940,"Delta":298796468},{"NoteNumber":43,"Velocity":46,"Duration":111940,"SoundDuration":111940,"Delta":298796468},{"NoteNumber":49,"Velocity":46,"Duration":111940,"SoundDuration":111940,"Delta":298796468},{"NoteNumber":55,"Velocity":55,"Duration":111940,"SoundDuration":111940,"Delta":298796468},{"NoteNumber":74,"Velocity":65,"Duration":154639,"SoundDuration":154639,"Delta":298945721},{"NoteNumber":78,"Velocity":77,"Duration":154639,"SoundDuration":154639,"Delta":298945721},{"NoteNumber":66,"Velocity":65,"Duration":154639,"SoundDuration":154639,"Delta":298945721},{"NoteNumber":69,"Velocity":65,"Duration":154639,"SoundDuration":154639,"Delta":298945721},{"NoteNumber":50,"Velocity":54,"Duration":154639,"SoundDuration":154639,"Delta":298945721},{"NoteNumber":62,"Velocity":64,"Duration":154639,"SoundDuration":154639,"Delta":298945721},{"NoteNumber":54,"Velocity":54,"Duration":154639,"SoundDuration":154639,"Delta":298945721},{"NoteNumber":57,"Velocity":54,"Duration":154639,"SoundDuration":154639,"Delta":298945721},{"NoteNumber":82,"Velocity":73,"Duration":108695,"SoundDuration":108695,"Delta":299255000},{"NoteNumber":76,"Velocity":61,"Duration":108695,"SoundDuration":108695,"Delta":299255000},{"NoteNumber":73,"Velocity":61,"Duration":108695,"SoundDuration":108695,"Delta":299255000},{"NoteNumber":70,"Velocity":61,"Duration":108695,"SoundDuration":108695,"Delta":299255000},{"NoteNumber":49,"Velocity":49,"Duration":108695,"SoundDuration":108695,"Delta":299255000},{"NoteNumber":55,"Velocity":58,"Duration":108695,"SoundDuration":108695,"Delta":299255000},{"NoteNumber":46,"Velocity":49,"Duration":108695,"SoundDuration":108695,"Delta":299255000},{"NoteNumber":43,"Velocity":49,"Duration":108695,"SoundDuration":108695,"Delta":299255000},{"NoteNumber":70,"Velocity":61,"Duration":108695,"SoundDuration":108695,"Delta":299399927},{"NoteNumber":82,"Velocity":73,"Duration":108695,"SoundDuration":108695,"Delta":299399927},{"NoteNumber":76,"Velocity":61,"Duration":108695,"SoundDuration":108695,"Delta":299399927},{"NoteNumber":73,"Velocity":61,"Duration":108695,"SoundDuration":108695,"Delta":299399927},{"NoteNumber":46,"Velocity":49,"Duration":108695,"SoundDuration":108695,"Delta":299399927},{"NoteNumber":43,"Velocity":49,"Duration":108695,"SoundDuration":108695,"Delta":299399927},{"NoteNumber":49,"Velocity":49,"Duration":108695,"SoundDuration":108695,"Delta":299399927},{"NoteNumber":55,"Velocity":58,"Duration":108695,"SoundDuration":108695,"Delta":299399927},{"NoteNumber":78,"Velocity":58,"Duration":155440,"SoundDuration":155440,"Delta":299544855},{"NoteNumber":74,"Velocity":58,"Duration":155440,"SoundDuration":155440,"Delta":299544855},{"NoteNumber":86,"Velocity":85,"Duration":155440,"SoundDuration":155440,"Delta":299544855},{"NoteNumber":81,"Velocity":65,"Duration":155440,"SoundDuration":155440,"Delta":299544855},{"NoteNumber":38,"Velocity":57,"Duration":155440,"SoundDuration":155440,"Delta":299544855},{"NoteNumber":50,"Velocity":68,"Duration":155440,"SoundDuration":155440,"Delta":299544855},{"NoteNumber":42,"Velocity":57,"Duration":155440,"SoundDuration":155440,"Delta":299544855},{"NoteNumber":45,"Velocity":57,"Duration":155440,"SoundDuration":155440,"Delta":299544855},{"NoteNumber":76,"Velocity":61,"Duration":110294,"SoundDuration":110294,"Delta":299855736},{"NoteNumber":88,"Velocity":72,"Duration":110294,"SoundDuration":110294,"Delta":299855736},{"NoteNumber":82,"Velocity":61,"Duration":110294,"SoundDuration":110294,"Delta":299855736},{"NoteNumber":85,"Velocity":61,"Duration":110294,"SoundDuration":110294,"Delta":299855736},{"NoteNumber":55,"Velocity":60,"Duration":110294,"SoundDuration":110294,"Delta":299855736},{"NoteNumber":43,"Velocity":51,"Duration":110294,"SoundDuration":110294,"Delta":299855736},{"NoteNumber":49,"Velocity":51,"Duration":110294,"SoundDuration":110294,"Delta":299855736},{"NoteNumber":46,"Velocity":51,"Duration":110294,"SoundDuration":110294,"Delta":299855736},{"NoteNumber":76,"Velocity":61,"Duration":110294,"SoundDuration":110294,"Delta":300002795},{"NoteNumber":88,"Velocity":72,"Duration":110294,"SoundDuration":110294,"Delta":300002795},{"NoteNumber":82,"Velocity":61,"Duration":110294,"SoundDuration":110294,"Delta":300002795},{"NoteNumber":85,"Velocity":61,"Duration":110294,"SoundDuration":110294,"Delta":300002795},{"NoteNumber":43,"Velocity":49,"Duration":110294,"SoundDuration":110294,"Delta":300002795},{"NoteNumber":55,"Velocity":58,"Duration":110294,"SoundDuration":110294,"Delta":300002795},{"NoteNumber":46,"Velocity":49,"Duration":110294,"SoundDuration":110294,"Delta":300002795},{"NoteNumber":49,"Velocity":49,"Duration":110294,"SoundDuration":110294,"Delta":300002795},{"NoteNumber":78,"Velocity":69,"Duration":154639,"SoundDuration":154639,"Delta":300149853},{"NoteNumber":81,"Velocity":69,"Duration":154639,"SoundDuration":154639,"Delta":300149853},{"NoteNumber":86,"Velocity":69,"Duration":154639,"SoundDuration":154639,"Delta":300149853},{"NoteNumber":90,"Velocity":82,"Duration":154639,"SoundDuration":154639,"Delta":300149853},{"NoteNumber":50,"Velocity":56,"Duration":154639,"SoundDuration":154639,"Delta":300149853},{"NoteNumber":54,"Velocity":56,"Duration":154639,"SoundDuration":154639,"Delta":300149853},{"NoteNumber":62,"Velocity":66,"Duration":154639,"SoundDuration":154639,"Delta":300149853},{"NoteNumber":57,"Velocity":56,"Duration":154639,"SoundDuration":154639,"Delta":300149853},{"NoteNumber":82,"Velocity":65,"Duration":111940,"SoundDuration":111940,"Delta":300459132},{"NoteNumber":85,"Velocity":65,"Duration":111940,"SoundDuration":111940,"Delta":300459132},{"NoteNumber":88,"Velocity":65,"Duration":111940,"SoundDuration":111940,"Delta":300459132},{"NoteNumber":94,"Velocity":77,"Duration":111940,"SoundDuration":111940,"Delta":300459132},{"NoteNumber":46,"Velocity":50,"Duration":111940,"SoundDuration":111940,"Delta":300459132},{"NoteNumber":49,"Velocity":50,"Duration":111940,"SoundDuration":111940,"Delta":300459132},{"NoteNumber":55,"Velocity":59,"Duration":111940,"SoundDuration":111940,"Delta":300459132},{"NoteNumber":43,"Velocity":50,"Duration":111940,"SoundDuration":111940,"Delta":300459132},{"NoteNumber":82,"Velocity":65,"Duration":111940,"SoundDuration":111940,"Delta":300608386},{"NoteNumber":85,"Velocity":65,"Duration":111940,"SoundDuration":111940,"Delta":300608386},{"NoteNumber":88,"Velocity":65,"Duration":111940,"SoundDuration":111940,"Delta":300608386},{"NoteNumber":94,"Velocity":77,"Duration":111940,"SoundDuration":111940,"Delta":300608386},{"NoteNumber":49,"Velocity":50,"Duration":111940,"SoundDuration":111940,"Delta":300608386},{"NoteNumber":55,"Velocity":59,"Duration":111940,"SoundDuration":111940,"Delta":300608386},{"NoteNumber":46,"Velocity":50,"Duration":111940,"SoundDuration":111940,"Delta":300608386},{"NoteNumber":43,"Velocity":50,"Duration":111940,"SoundDuration":111940,"Delta":300608386},{"NoteNumber":98,"Velocity":87,"Duration":155440,"SoundDuration":155440,"Delta":300757639},{"NoteNumber":90,"Velocity":73,"Duration":155440,"SoundDuration":155440,"Delta":300757639},{"NoteNumber":86,"Velocity":73,"Duration":155440,"SoundDuration":155440,"Delta":300757639},{"NoteNumber":38,"Velocity":57,"Duration":155440,"SoundDuration":155440,"Delta":300757639},{"NoteNumber":50,"Velocity":68,"Duration":155440,"SoundDuration":155440,"Delta":300757639},{"NoteNumber":42,"Velocity":57,"Duration":155440,"SoundDuration":155440,"Delta":300757639},{"NoteNumber":45,"Velocity":57,"Duration":155440,"SoundDuration":155440,"Delta":300757639},{"NoteNumber":88,"Velocity":66,"Duration":112500,"SoundDuration":112500,"Delta":301068520},{"NoteNumber":94,"Velocity":78,"Duration":112500,"SoundDuration":112500,"Delta":301068520},{"NoteNumber":85,"Velocity":66,"Duration":112500,"SoundDuration":112500,"Delta":301068520},{"NoteNumber":82,"Velocity":66,"Duration":112500,"SoundDuration":112500,"Delta":301068520},{"NoteNumber":40,"Velocity":60,"Duration":112500,"SoundDuration":112500,"Delta":301068520},{"NoteNumber":31,"Velocity":51,"Duration":112500,"SoundDuration":112500,"Delta":301068520},{"NoteNumber":37,"Velocity":51,"Duration":112500,"SoundDuration":112500,"Delta":301068520},{"NoteNumber":43,"Velocity":60,"Duration":112500,"SoundDuration":112500,"Delta":301068520},{"NoteNumber":85,"Velocity":66,"Duration":112500,"SoundDuration":112500,"Delta":301218520},{"NoteNumber":82,"Velocity":66,"Duration":112500,"SoundDuration":112500,"Delta":301218520},{"NoteNumber":88,"Velocity":66,"Duration":112500,"SoundDuration":112500,"Delta":301218520},{"NoteNumber":94,"Velocity":78,"Duration":112500,"SoundDuration":112500,"Delta":301218520},{"NoteNumber":40,"Velocity":60,"Duration":112500,"SoundDuration":112500,"Delta":301218520},{"NoteNumber":43,"Velocity":60,"Duration":112500,"SoundDuration":112500,"Delta":301218520},{"NoteNumber":37,"Velocity":51,"Duration":112500,"SoundDuration":112500,"Delta":301218520},{"NoteNumber":31,"Velocity":51,"Duration":112500,"SoundDuration":112500,"Delta":301218520},{"NoteNumber":86,"Velocity":76,"Duration":155440,"SoundDuration":155440,"Delta":301368520},{"NoteNumber":98,"Velocity":91,"Duration":155440,"SoundDuration":155440,"Delta":301368520},{"NoteNumber":90,"Velocity":76,"Duration":155440,"SoundDuration":155440,"Delta":301368520},{"NoteNumber":38,"Velocity":59,"Duration":155440,"SoundDuration":155440,"Delta":301368520},{"NoteNumber":42,"Velocity":59,"Duration":155440,"SoundDuration":155440,"Delta":301368520},{"NoteNumber":45,"Velocity":59,"Duration":155440,"SoundDuration":155440,"Delta":301368520},{"NoteNumber":50,"Velocity":71,"Duration":155440,"SoundDuration":155440,"Delta":301368520},{"NoteNumber":85,"Velocity":72,"Duration":113065,"SoundDuration":113065,"Delta":301679401},{"NoteNumber":88,"Velocity":72,"Duration":113065,"SoundDuration":113065,"Delta":301679401},{"NoteNumber":94,"Velocity":85,"Duration":113065,"SoundDuration":113065,"Delta":301679401},{"NoteNumber":82,"Velocity":72,"Duration":113065,"SoundDuration":113065,"Delta":301679401},{"NoteNumber":31,"Velocity":52,"Duration":113065,"SoundDuration":113065,"Delta":301679401},{"NoteNumber":37,"Velocity":52,"Duration":113065,"SoundDuration":113065,"Delta":301679401},{"NoteNumber":40,"Velocity":52,"Duration":113065,"SoundDuration":113065,"Delta":301679401},{"NoteNumber":43,"Velocity":62,"Duration":113065,"SoundDuration":113065,"Delta":301679401},{"NoteNumber":85,"Velocity":72,"Duration":113065,"SoundDuration":113065,"Delta":301830155},{"NoteNumber":82,"Velocity":72,"Duration":113065,"SoundDuration":113065,"Delta":301830155},{"NoteNumber":88,"Velocity":72,"Duration":113065,"SoundDuration":113065,"Delta":301830155},{"NoteNumber":94,"Velocity":85,"Duration":113065,"SoundDuration":113065,"Delta":301830155},{"NoteNumber":31,"Velocity":52,"Duration":113065,"SoundDuration":113065,"Delta":301830155},{"NoteNumber":43,"Velocity":62,"Duration":113065,"SoundDuration":113065,"Delta":301830155},{"NoteNumber":40,"Velocity":52,"Duration":113065,"SoundDuration":113065,"Delta":301830155},{"NoteNumber":37,"Velocity":52,"Duration":113065,"SoundDuration":113065,"Delta":301830155},{"NoteNumber":86,"Velocity":79,"Duration":310880,"SoundDuration":310880,"Delta":301980909},{"NoteNumber":98,"Velocity":93,"Duration":310880,"SoundDuration":310880,"Delta":301980909},{"NoteNumber":90,"Velocity":79,"Duration":310880,"SoundDuration":310880,"Delta":301980909},{"NoteNumber":45,"Velocity":62,"Duration":310880,"SoundDuration":310880,"Delta":301980909},{"NoteNumber":38,"Velocity":62,"Duration":310880,"SoundDuration":310880,"Delta":301980909},{"NoteNumber":50,"Velocity":74,"Duration":310880,"SoundDuration":310880,"Delta":301980909},{"NoteNumber":42,"Velocity":62,"Duration":310880,"SoundDuration":310880,"Delta":301980909},{"NoteNumber":94,"Velocity":86,"Duration":311673,"SoundDuration":311673,"Delta":302291790},{"NoteNumber":82,"Velocity":73,"Duration":311673,"SoundDuration":311673,"Delta":302291790},{"NoteNumber":88,"Velocity":73,"Duration":311673,"SoundDuration":311673,"Delta":302291790},{"NoteNumber":85,"Velocity":73,"Duration":311673,"SoundDuration":311673,"Delta":302291790},{"NoteNumber":40,"Velocity":53,"Duration":311673,"SoundDuration":311673,"Delta":302291790},{"NoteNumber":37,"Velocity":53,"Duration":311673,"SoundDuration":311673,"Delta":302291790},{"NoteNumber":43,"Velocity":63,"Duration":311673,"SoundDuration":311673,"Delta":302291790},{"NoteNumber":31,"Velocity":53,"Duration":311673,"SoundDuration":311673,"Delta":302291790},{"NoteNumber":94,"Velocity":86,"Duration":314232,"SoundDuration":314232,"Delta":302917787},{"NoteNumber":82,"Velocity":73,"Duration":314232,"SoundDuration":314232,"Delta":302917787},{"NoteNumber":88,"Velocity":73,"Duration":314232,"SoundDuration":314232,"Delta":302917787},{"NoteNumber":85,"Velocity":73,"Duration":314232,"SoundDuration":314232,"Delta":302917787},{"NoteNumber":31,"Velocity":53,"Duration":314232,"SoundDuration":314232,"Delta":302917787},{"NoteNumber":40,"Velocity":53,"Duration":314232,"SoundDuration":314232,"Delta":302917787},{"NoteNumber":37,"Velocity":53,"Duration":314232,"SoundDuration":314232,"Delta":302917787},{"NoteNumber":43,"Velocity":63,"Duration":314232,"SoundDuration":314232,"Delta":302917787},{"NoteNumber":82,"Velocity":70,"Duration":324434,"SoundDuration":324434,"Delta":303581916},{"NoteNumber":94,"Velocity":83,"Duration":324434,"SoundDuration":324434,"Delta":303581916},{"NoteNumber":85,"Velocity":70,"Duration":324434,"SoundDuration":324434,"Delta":303581916},{"NoteNumber":88,"Velocity":70,"Duration":324434,"SoundDuration":324434,"Delta":303581916},{"NoteNumber":31,"Velocity":53,"Duration":324434,"SoundDuration":324434,"Delta":303581916},{"NoteNumber":43,"Velocity":63,"Duration":324434,"SoundDuration":324434,"Delta":303581916},{"NoteNumber":37,"Velocity":53,"Duration":324434,"SoundDuration":324434,"Delta":303581916},{"NoteNumber":40,"Velocity":53,"Duration":324434,"SoundDuration":324434,"Delta":303581916},{"NoteNumber":77,"Velocity":70,"Duration":328401,"SoundDuration":328401,"Delta":303906350},{"NoteNumber":83,"Velocity":83,"Duration":328401,"SoundDuration":328401,"Delta":303906350},{"NoteNumber":89,"Velocity":83,"Duration":328401,"SoundDuration":328401,"Delta":303906350},{"NoteNumber":80,"Velocity":70,"Duration":328401,"SoundDuration":328401,"Delta":303906350},{"NoteNumber":41,"Velocity":52,"Duration":328401,"SoundDuration":328401,"Delta":303906350},{"NoteNumber":38,"Velocity":52,"Duration":328401,"SoundDuration":328401,"Delta":303906350},{"NoteNumber":50,"Velocity":62,"Duration":328401,"SoundDuration":328401,"Delta":303906350},{"NoteNumber":44,"Velocity":52,"Duration":328401,"SoundDuration":328401,"Delta":303906350},{"NoteNumber":72,"Velocity":70,"Duration":334178,"SoundDuration":334178,"Delta":304234752},{"NoteNumber":75,"Velocity":70,"Duration":334178,"SoundDuration":334178,"Delta":304234752},{"NoteNumber":78,"Velocity":70,"Duration":334178,"SoundDuration":334178,"Delta":304234752},{"NoteNumber":84,"Velocity":83,"Duration":334178,"SoundDuration":334178,"Delta":304234752},{"NoteNumber":42,"Velocity":52,"Duration":334178,"SoundDuration":334178,"Delta":304234752},{"NoteNumber":38,"Velocity":52,"Duration":334178,"SoundDuration":334178,"Delta":304234752},{"NoteNumber":51,"Velocity":62,"Duration":334178,"SoundDuration":334178,"Delta":304234752},{"NoteNumber":45,"Velocity":52,"Duration":334178,"SoundDuration":334178,"Delta":304234752},{"NoteNumber":67,"Velocity":70,"Duration":340162,"SoundDuration":340162,"Delta":304568931},{"NoteNumber":70,"Velocity":70,"Duration":340162,"SoundDuration":340162,"Delta":304568931},{"NoteNumber":79,"Velocity":83,"Duration":340162,"SoundDuration":340162,"Delta":304568931},{"NoteNumber":73,"Velocity":70,"Duration":340162,"SoundDuration":340162,"Delta":304568931},{"NoteNumber":46,"Velocity":51,"Duration":340162,"SoundDuration":340162,"Delta":304568931},{"NoteNumber":38,"Velocity":51,"Duration":340162,"SoundDuration":340162,"Delta":304568931},{"NoteNumber":52,"Velocity":61,"Duration":340162,"SoundDuration":340162,"Delta":304568931},{"NoteNumber":43,"Velocity":51,"Duration":340162,"SoundDuration":340162,"Delta":304568931},{"NoteNumber":74,"Velocity":83,"Duration":348465,"SoundDuration":348465,"Delta":304909094},{"NoteNumber":62,"Velocity":70,"Duration":348465,"SoundDuration":348465,"Delta":304909094},{"NoteNumber":65,"Velocity":70,"Duration":348465,"SoundDuration":348465,"Delta":304909094},{"NoteNumber":68,"Velocity":70,"Duration":348465,"SoundDuration":348465,"Delta":304909094},{"NoteNumber":47,"Velocity":51,"Duration":348465,"SoundDuration":348465,"Delta":304909094},{"NoteNumber":38,"Velocity":51,"Duration":348465,"SoundDuration":348465,"Delta":304909094},{"NoteNumber":44,"Velocity":51,"Duration":348465,"SoundDuration":348465,"Delta":304909094},{"NoteNumber":53,"Velocity":61,"Duration":348465,"SoundDuration":348465,"Delta":304909094},{"NoteNumber":60,"Velocity":70,"Duration":361446,"SoundDuration":361446,"Delta":305257560},{"NoteNumber":69,"Velocity":83,"Duration":361446,"SoundDuration":361446,"Delta":305257560},{"NoteNumber":63,"Velocity":70,"Duration":361446,"SoundDuration":361446,"Delta":305257560},{"NoteNumber":57,"Velocity":70,"Duration":361446,"SoundDuration":361446,"Delta":305257560},{"NoteNumber":54,"Velocity":61,"Duration":361446,"SoundDuration":361446,"Delta":305257560},{"NoteNumber":48,"Velocity":51,"Duration":361446,"SoundDuration":361446,"Delta":305257560},{"NoteNumber":38,"Velocity":51,"Duration":361446,"SoundDuration":361446,"Delta":305257560},{"NoteNumber":45,"Velocity":51,"Duration":361446,"SoundDuration":361446,"Delta":305257560},{"NoteNumber":70,"Velocity":83,"Duration":358057,"SoundDuration":358057,"Delta":305619006},{"NoteNumber":58,"Velocity":70,"Duration":358057,"SoundDuration":358057,"Delta":305619006},{"NoteNumber":61,"Velocity":70,"Duration":358057,"SoundDuration":358057,"Delta":305619006},{"NoteNumber":64,"Velocity":70,"Duration":358057,"SoundDuration":358057,"Delta":305619006},{"NoteNumber":38,"Velocity":51,"Duration":358057,"SoundDuration":358057,"Delta":305619006},{"NoteNumber":46,"Velocity":51,"Duration":358057,"SoundDuration":358057,"Delta":305619006},{"NoteNumber":55,"Velocity":61,"Duration":358057,"SoundDuration":358057,"Delta":305619006},{"NoteNumber":49,"Velocity":51,"Duration":358057,"SoundDuration":358057,"Delta":305619006},{"NoteNumber":53,"Velocity":68,"Duration":827585,"SoundDuration":827585,"Delta":306670705},{"NoteNumber":59,"Velocity":68,"Duration":827585,"SoundDuration":827585,"Delta":306670705},{"NoteNumber":65,"Velocity":81,"Duration":1174406,"SoundDuration":1174406,"Delta":306670705},{"NoteNumber":38,"Velocity":47,"Duration":827585,"SoundDuration":827585,"Delta":306670705},{"NoteNumber":47,"Velocity":47,"Duration":827585,"SoundDuration":827585,"Delta":306670705},{"NoteNumber":56,"Velocity":56,"Duration":827585,"SoundDuration":827585,"Delta":306670705},{"NoteNumber":61,"Velocity":72,"Duration":346821,"SoundDuration":346821,"Delta":307845112},{"NoteNumber":62,"Velocity":72,"Duration":520231,"SoundDuration":520231,"Delta":308191933},{"NoteNumber":64,"Velocity":72,"Duration":127840,"SoundDuration":127840,"Delta":308712164},{"NoteNumber":64,"Velocity":72,"Duration":127840,"SoundDuration":127840,"Delta":308882619},{"NoteNumber":67,"Velocity":81,"Duration":1190476,"SoundDuration":1190476,"Delta":309053073},{"NoteNumber":65,"Velocity":77,"Duration":333333,"SoundDuration":333333,"Delta":310243550},{"NoteNumber":64,"Velocity":79,"Duration":386473,"SoundDuration":386473,"Delta":310576883},{"NoteNumber":62,"Velocity":75,"Duration":386473,"SoundDuration":386473,"Delta":310963357},{"NoteNumber":61,"Velocity":75,"Duration":386473,"SoundDuration":386473,"Delta":311349830},{"NoteNumber":60,"Velocity":80,"Duration":386473,"SoundDuration":386473,"Delta":311736303},{"NoteNumber":59,"Velocity":76,"Duration":386473,"SoundDuration":386473,"Delta":312122777},{"NoteNumber":53,"Velocity":57,"Duration":451647,"SoundDuration":451647,"Delta":312509250},{"NoteNumber":56,"Velocity":57,"Duration":451647,"SoundDuration":451647,"Delta":312509250},{"NoteNumber":58,"Velocity":68,"Duration":451647,"SoundDuration":451647,"Delta":312509250},{"NoteNumber":38,"Velocity":42,"Duration":451647,"SoundDuration":451647,"Delta":312509250},{"NoteNumber":46,"Velocity":48,"Duration":451647,"SoundDuration":451647,"Delta":312509250},{"NoteNumber":58,"Velocity":69,"Duration":1304348,"SoundDuration":1304348,"Delta":312960898},{"NoteNumber":54,"Velocity":58,"Duration":1304348,"SoundDuration":1304348,"Delta":312960898},{"NoteNumber":39,"Velocity":54,"Duration":1304348,"SoundDuration":1304348,"Delta":312960898},{"NoteNumber":46,"Velocity":64,"Duration":1304348,"SoundDuration":1304348,"Delta":312960898},{"NoteNumber":53,"Velocity":58,"Duration":1332387,"SoundDuration":1332387,"Delta":314265246},{"NoteNumber":58,"Velocity":69,"Duration":1332387,"SoundDuration":1332387,"Delta":314265246},{"NoteNumber":46,"Velocity":64,"Duration":1141304,"SoundDuration":1141304,"Delta":314265246},{"NoteNumber":37,"Velocity":54,"Duration":1332387,"SoundDuration":1332387,"Delta":314265246},{"NoteNumber":46,"Velocity":67,"Duration":191082,"SoundDuration":191082,"Delta":315406550},{"NoteNumber":58,"Velocity":58,"Duration":1304348,"SoundDuration":1304348,"Delta":315597633},{"NoteNumber":63,"Velocity":69,"Duration":1304348,"SoundDuration":1304348,"Delta":315597633},{"NoteNumber":51,"Velocity":58,"Duration":1304348,"SoundDuration":1304348,"Delta":315597633},{"NoteNumber":35,"Velocity":58,"Duration":1304348,"SoundDuration":1304348,"Delta":315597633},{"NoteNumber":46,"Velocity":69,"Duration":1304348,"SoundDuration":1304348,"Delta":315597633},{"NoteNumber":63,"Velocity":75,"Duration":1213873,"SoundDuration":1213873,"Delta":316901981},{"NoteNumber":51,"Velocity":63,"Duration":1213873,"SoundDuration":1213873,"Delta":316901981},{"NoteNumber":56,"Velocity":63,"Duration":1213873,"SoundDuration":1213873,"Delta":316901981},{"NoteNumber":44,"Velocity":65,"Duration":1213873,"SoundDuration":1213873,"Delta":316901981},{"NoteNumber":35,"Velocity":55,"Duration":1213873,"SoundDuration":1213873,"Delta":316901981},{"NoteNumber":53,"Velocity":62,"Duration":164233,"SoundDuration":164233,"Delta":318115855},{"NoteNumber":62,"Velocity":62,"Duration":164233,"SoundDuration":164233,"Delta":318115855},{"NoteNumber":65,"Velocity":74,"Duration":164233,"SoundDuration":164233,"Delta":318115855},{"NoteNumber":56,"Velocity":62,"Duration":164233,"SoundDuration":164233,"Delta":318115855},{"NoteNumber":44,"Velocity":59,"Duration":164233,"SoundDuration":164233,"Delta":318115855},{"NoteNumber":35,"Velocity":50,"Duration":164233,"SoundDuration":164233,"Delta":318115855},{"NoteNumber":56,"Velocity":68,"Duration":437955,"SoundDuration":437955,"Delta":318334833},{"NoteNumber":53,"Velocity":68,"Duration":437955,"SoundDuration":437955,"Delta":318334833},{"NoteNumber":62,"Velocity":68,"Duration":437955,"SoundDuration":437955,"Delta":318334833},{"NoteNumber":65,"Velocity":80,"Duration":437955,"SoundDuration":437955,"Delta":318334833},{"NoteNumber":35,"Velocity":57,"Duration":437955,"SoundDuration":437955,"Delta":318334833},{"NoteNumber":44,"Velocity":68,"Duration":437955,"SoundDuration":437955,"Delta":318334833},{"NoteNumber":53,"Velocity":48,"Duration":437955,"SoundDuration":437955,"Delta":319648701},{"NoteNumber":62,"Velocity":54,"Duration":1313868,"SoundDuration":1313868,"Delta":320086657},{"NoteNumber":53,"Velocity":51,"Duration":437955,"SoundDuration":437955,"Delta":321400525},{"NoteNumber":61,"Velocity":54,"Duration":437955,"SoundDuration":437955,"Delta":323590305},{"NoteNumber":65,"Velocity":54,"Duration":437955,"SoundDuration":437955,"Delta":323590305},{"NoteNumber":53,"Velocity":44,"Duration":437955,"SoundDuration":437955,"Delta":323590305},{"NoteNumber":34,"Velocity":44,"Duration":437955,"SoundDuration":437955,"Delta":323590305},{"NoteNumber":44,"Velocity":44,"Duration":437955,"SoundDuration":437955,"Delta":323590305},{"NoteNumber":56,"Velocity":44,"Duration":437955,"SoundDuration":437955,"Delta":323590305},{"NoteNumber":65,"Velocity":49,"Duration":179999,"SoundDuration":179999,"Delta":325186217},{"NoteNumber":62,"Velocity":49,"Duration":179999,"SoundDuration":179999,"Delta":325186217},{"NoteNumber":53,"Velocity":39,"Duration":179999,"SoundDuration":179999,"Delta":325186217},{"NoteNumber":44,"Velocity":39,"Duration":179999,"SoundDuration":179999,"Delta":325186217},{"NoteNumber":56,"Velocity":39,"Duration":179999,"SoundDuration":179999,"Delta":325186217},{"NoteNumber":35,"Velocity":39,"Duration":179999,"SoundDuration":179999,"Delta":325186217},{"NoteNumber":65,"Velocity":54,"Duration":218977,"SoundDuration":218977,"Delta":325426217},{"NoteNumber":62,"Velocity":54,"Duration":218977,"SoundDuration":218977,"Delta":325426217},{"NoteNumber":56,"Velocity":44,"Duration":218977,"SoundDuration":218977,"Delta":325426217},{"NoteNumber":35,"Velocity":44,"Duration":218977,"SoundDuration":218977,"Delta":325426217},{"NoteNumber":44,"Velocity":44,"Duration":218977,"SoundDuration":218977,"Delta":325426217},{"NoteNumber":53,"Velocity":44,"Duration":218977,"SoundDuration":218977,"Delta":325426217},{"NoteNumber":53,"Velocity":48,"Duration":437955,"SoundDuration":437955,"Delta":326740085},{"NoteNumber":62,"Velocity":54,"Duration":1313868,"SoundDuration":1313868,"Delta":327178041},{"NoteNumber":53,"Velocity":51,"Duration":437955,"SoundDuration":437955,"Delta":328491909},{"NoteNumber":61,"Velocity":54,"Duration":437956,"SoundDuration":437956,"Delta":330681689},{"NoteNumber":65,"Velocity":54,"Duration":437956,"SoundDuration":437956,"Delta":330681689},{"NoteNumber":34,"Velocity":44,"Duration":437956,"SoundDuration":437956,"Delta":330681689},{"NoteNumber":56,"Velocity":44,"Duration":437956,"SoundDuration":437956,"Delta":330681689},{"NoteNumber":53,"Velocity":44,"Duration":437956,"SoundDuration":437956,"Delta":330681689},{"NoteNumber":44,"Velocity":44,"Duration":437956,"SoundDuration":437956,"Delta":330681689},{"NoteNumber":62,"Velocity":49,"Duration":179999,"SoundDuration":179999,"Delta":332277601},{"NoteNumber":65,"Velocity":49,"Duration":179999,"SoundDuration":179999,"Delta":332277601},{"NoteNumber":35,"Velocity":39,"Duration":179999,"SoundDuration":179999,"Delta":332277601},{"NoteNumber":44,"Velocity":39,"Duration":179999,"SoundDuration":179999,"Delta":332277601},{"NoteNumber":56,"Velocity":39,"Duration":179999,"SoundDuration":179999,"Delta":332277601},{"NoteNumber":53,"Velocity":39,"Duration":179999,"SoundDuration":179999,"Delta":332277601},{"NoteNumber":65,"Velocity":54,"Duration":218977,"SoundDuration":218977,"Delta":332517601},{"NoteNumber":62,"Velocity":54,"Duration":218977,"SoundDuration":218977,"Delta":332517601},{"NoteNumber":53,"Velocity":44,"Duration":218977,"SoundDuration":218977,"Delta":332517601},{"NoteNumber":44,"Velocity":44,"Duration":218977,"SoundDuration":218977,"Delta":332517601},{"NoteNumber":56,"Velocity":44,"Duration":218977,"SoundDuration":218977,"Delta":332517601},{"NoteNumber":35,"Velocity":44,"Duration":218977,"SoundDuration":218977,"Delta":332517601},{"NoteNumber":62,"Velocity":48,"Duration":437955,"SoundDuration":437955,"Delta":333831469},{"NoteNumber":71,"Velocity":54,"Duration":1313868,"SoundDuration":1313868,"Delta":334269425},{"NoteNumber":62,"Velocity":51,"Duration":437955,"SoundDuration":437955,"Delta":335583293},{"NoteNumber":56,"Velocity":43,"Duration":437955,"SoundDuration":437955,"Delta":337335117},{"NoteNumber":65,"Velocity":51,"Duration":1313868,"SoundDuration":1313868,"Delta":337773073},{"NoteNumber":56,"Velocity":46,"Duration":437955,"SoundDuration":437955,"Delta":339086941},{"NoteNumber":50,"Velocity":38,"Duration":472441,"SoundDuration":472441,"Delta":340873250},{"NoteNumber":59,"Velocity":44,"Duration":1417323,"SoundDuration":1417323,"Delta":341345691},{"NoteNumber":44,"Velocity":37,"Duration":714285,"SoundDuration":714285,"Delta":342763014},{"NoteNumber":53,"Velocity":37,"Duration":5714283,"SoundDuration":5714283,"Delta":343477299},{"NoteNumber":65,"Velocity":55,"Duration":265999,"SoundDuration":265999,"Delta":351309878},{"NoteNumber":41,"Velocity":39,"Duration":265999,"SoundDuration":265999,"Delta":351309878},{"NoteNumber":53,"Velocity":46,"Duration":265999,"SoundDuration":265999,"Delta":351309878},{"NoteNumber":64,"Velocity":57,"Duration":260953,"SoundDuration":260953,"Delta":351551957},{"NoteNumber":52,"Velocity":49,"Duration":260953,"SoundDuration":260953,"Delta":351551957},{"NoteNumber":40,"Velocity":41,"Duration":260953,"SoundDuration":260953,"Delta":351551957},{"NoteNumber":62,"Velocity":59,"Duration":256829,"SoundDuration":256829,"Delta":351789288},{"NoteNumber":38,"Velocity":43,"Duration":256829,"SoundDuration":256829,"Delta":351789288},{"NoteNumber":50,"Velocity":51,"Duration":256829,"SoundDuration":256829,"Delta":351789288},{"NoteNumber":61,"Velocity":61,"Duration":251316,"SoundDuration":251316,"Delta":352023041},{"NoteNumber":37,"Velocity":45,"Duration":251316,"SoundDuration":251316,"Delta":352023041},{"NoteNumber":49,"Velocity":54,"Duration":251316,"SoundDuration":251316,"Delta":352023041},{"NoteNumber":60,"Velocity":63,"Duration":246033,"SoundDuration":246033,"Delta":352251800},{"NoteNumber":48,"Velocity":56,"Duration":246033,"SoundDuration":246033,"Delta":352251800},{"NoteNumber":36,"Velocity":47,"Duration":246033,"SoundDuration":246033,"Delta":352251800},{"NoteNumber":59,"Velocity":65,"Duration":240968,"SoundDuration":240968,"Delta":352475776},{"NoteNumber":35,"Velocity":50,"Duration":240968,"SoundDuration":240968,"Delta":352475776},{"NoteNumber":47,"Velocity":59,"Duration":240968,"SoundDuration":240968,"Delta":352475776},{"NoteNumber":58,"Velocity":67,"Duration":234748,"SoundDuration":234748,"Delta":352695135},{"NoteNumber":34,"Velocity":51,"Duration":234748,"SoundDuration":234748,"Delta":352695135},{"NoteNumber":46,"Velocity":61,"Duration":234748,"SoundDuration":234748,"Delta":352695135},{"NoteNumber":57,"Velocity":76,"Duration":1199999,"SoundDuration":1199999,"Delta":352909884},{"NoteNumber":33,"Velocity":56,"Duration":2397676,"SoundDuration":2397676,"Delta":352909884},{"NoteNumber":45,"Velocity":66,"Duration":2397676,"SoundDuration":2397676,"Delta":352909884},{"NoteNumber":69,"Velocity":54,"Duration":72115,"SoundDuration":72115,"Delta":354309884},{"NoteNumber":74,"Velocity":54,"Duration":72115,"SoundDuration":72115,"Delta":354309884},{"NoteNumber":78,"Velocity":54,"Duration":72115,"SoundDuration":72115,"Delta":354309884},{"NoteNumber":81,"Velocity":64,"Duration":72115,"SoundDuration":72115,"Delta":354309884},{"NoteNumber":66,"Velocity":56,"Duration":72115,"SoundDuration":72115,"Delta":354309884},{"NoteNumber":62,"Velocity":47,"Duration":72115,"SoundDuration":72115,"Delta":354309884},{"NoteNumber":57,"Velocity":47,"Duration":72115,"SoundDuration":72115,"Delta":354309884},{"NoteNumber":69,"Velocity":54,"Duration":72115,"SoundDuration":72115,"Delta":354406038},{"NoteNumber":74,"Velocity":54,"Duration":72115,"SoundDuration":72115,"Delta":354406038},{"NoteNumber":78,"Velocity":54,"Duration":72115,"SoundDuration":72115,"Delta":354406038},{"NoteNumber":81,"Velocity":64,"Duration":72115,"SoundDuration":72115,"Delta":354406038},{"NoteNumber":66,"Velocity":56,"Duration":72115,"SoundDuration":72115,"Delta":354406038},{"NoteNumber":62,"Velocity":47,"Duration":72115,"SoundDuration":72115,"Delta":354406038},{"NoteNumber":57,"Velocity":47,"Duration":72115,"SoundDuration":72115,"Delta":354406038},{"NoteNumber":69,"Velocity":61,"Duration":1208053,"SoundDuration":1208053,"Delta":354502191},{"NoteNumber":74,"Velocity":61,"Duration":1208053,"SoundDuration":1208053,"Delta":354502191},{"NoteNumber":78,"Velocity":61,"Duration":1208053,"SoundDuration":1208053,"Delta":354502191},{"NoteNumber":81,"Velocity":72,"Duration":1208053,"SoundDuration":1208053,"Delta":354502191},{"NoteNumber":66,"Velocity":63,"Duration":1208053,"SoundDuration":1208053,"Delta":354502191},{"NoteNumber":62,"Velocity":53,"Duration":1208053,"SoundDuration":1208053,"Delta":354502191},{"NoteNumber":57,"Velocity":53,"Duration":1208053,"SoundDuration":1208053,"Delta":354502191},{"NoteNumber":57,"Velocity":74,"Duration":201342,"SoundDuration":201342,"Delta":355911587},{"NoteNumber":33,"Velocity":59,"Duration":201342,"SoundDuration":201342,"Delta":355911587},{"NoteNumber":45,"Velocity":59,"Duration":201342,"SoundDuration":201342,"Delta":355911587},{"NoteNumber":59,"Velocity":78,"Duration":1176470,"SoundDuration":1176470,"Delta":356112929},{"NoteNumber":35,"Velocity":54,"Duration":2361967,"SoundDuration":2361967,"Delta":356112929},{"NoteNumber":47,"Velocity":64,"Duration":2361967,"SoundDuration":2361967,"Delta":356112929},{"NoteNumber":86,"Velocity":64,"Duration":69018,"SoundDuration":69018,"Delta":357485479},{"NoteNumber":83,"Velocity":54,"Duration":69018,"SoundDuration":69018,"Delta":357485479},{"NoteNumber":78,"Velocity":54,"Duration":69018,"SoundDuration":69018,"Delta":357485479},{"NoteNumber":74,"Velocity":54,"Duration":69018,"SoundDuration":69018,"Delta":357485479},{"NoteNumber":66,"Velocity":54,"Duration":69018,"SoundDuration":69018,"Delta":357485479},{"NoteNumber":62,"Velocity":45,"Duration":69018,"SoundDuration":69018,"Delta":357485479},{"NoteNumber":59,"Velocity":45,"Duration":69018,"SoundDuration":69018,"Delta":357485479},{"NoteNumber":54,"Velocity":45,"Duration":69018,"SoundDuration":69018,"Delta":357485479},{"NoteNumber":86,"Velocity":64,"Duration":69018,"SoundDuration":69018,"Delta":357577503},{"NoteNumber":83,"Velocity":54,"Duration":69018,"SoundDuration":69018,"Delta":357577503},{"NoteNumber":78,"Velocity":54,"Duration":69018,"SoundDuration":69018,"Delta":357577503},{"NoteNumber":74,"Velocity":54,"Duration":69018,"SoundDuration":69018,"Delta":357577503},{"NoteNumber":66,"Velocity":54,"Duration":69018,"SoundDuration":69018,"Delta":357577503},{"NoteNumber":62,"Velocity":45,"Duration":69018,"SoundDuration":69018,"Delta":357577503},{"NoteNumber":59,"Velocity":45,"Duration":69018,"SoundDuration":69018,"Delta":357577503},{"NoteNumber":54,"Velocity":45,"Duration":69018,"SoundDuration":69018,"Delta":357577503},{"NoteNumber":86,"Velocity":69,"Duration":1194979,"SoundDuration":1194979,"Delta":357669528},{"NoteNumber":83,"Velocity":58,"Duration":1194979,"SoundDuration":1194979,"Delta":357669528},{"NoteNumber":78,"Velocity":58,"Duration":1194979,"SoundDuration":1194979,"Delta":357669528},{"NoteNumber":74,"Velocity":58,"Duration":1194979,"SoundDuration":1194979,"Delta":357669528},{"NoteNumber":66,"Velocity":61,"Duration":1194979,"SoundDuration":1194979,"Delta":357669528},{"NoteNumber":62,"Velocity":51,"Duration":1194979,"SoundDuration":1194979,"Delta":357669528},{"NoteNumber":59,"Velocity":51,"Duration":1194979,"SoundDuration":1194979,"Delta":357669528},{"NoteNumber":54,"Velocity":51,"Duration":1194979,"SoundDuration":1194979,"Delta":357669528},{"NoteNumber":59,"Velocity":75,"Duration":194805,"SoundDuration":194805,"Delta":359059313},{"NoteNumber":35,"Velocity":62,"Duration":194805,"SoundDuration":194805,"Delta":359059313},{"NoteNumber":47,"Velocity":62,"Duration":194805,"SoundDuration":194805,"Delta":359059313},{"NoteNumber":54,"Velocity":67,"Duration":651781,"SoundDuration":651781,"Delta":359254118},{"NoteNumber":66,"Velocity":79,"Duration":651781,"SoundDuration":651781,"Delta":359254118},{"NoteNumber":30,"Velocity":51,"Duration":1538250,"SoundDuration":1538250,"Delta":359254118},{"NoteNumber":42,"Velocity":60,"Duration":1538250,"SoundDuration":1538250,"Delta":359254118},{"NoteNumber":90,"Velocity":64,"Duration":67365,"SoundDuration":67365,"Delta":359838534},{"NoteNumber":85,"Velocity":54,"Duration":67365,"SoundDuration":67365,"Delta":359838534},{"NoteNumber":82,"Velocity":54,"Duration":67365,"SoundDuration":67365,"Delta":359838534},{"NoteNumber":78,"Velocity":54,"Duration":67365,"SoundDuration":67365,"Delta":359838534},{"NoteNumber":66,"Velocity":56,"Duration":157185,"SoundDuration":157185,"Delta":359838534},{"NoteNumber":61,"Velocity":47,"Duration":67365,"SoundDuration":67365,"Delta":359838534},{"NoteNumber":58,"Velocity":47,"Duration":67365,"SoundDuration":67365,"Delta":359838534},{"NoteNumber":54,"Velocity":47,"Duration":157185,"SoundDuration":157185,"Delta":359838534},{"NoteNumber":90,"Velocity":64,"Duration":67365,"SoundDuration":67365,"Delta":359928354},{"NoteNumber":85,"Velocity":54,"Duration":67365,"SoundDuration":67365,"Delta":359928354},{"NoteNumber":82,"Velocity":54,"Duration":67365,"SoundDuration":67365,"Delta":359928354},{"NoteNumber":78,"Velocity":54,"Duration":67365,"SoundDuration":67365,"Delta":359928354},{"NoteNumber":66,"Velocity":57,"Duration":476917,"SoundDuration":476917,"Delta":359928354},{"NoteNumber":61,"Velocity":48,"Duration":67365,"SoundDuration":67365,"Delta":359928354},{"NoteNumber":58,"Velocity":48,"Duration":67365,"SoundDuration":67365,"Delta":359928354},{"NoteNumber":54,"Velocity":48,"Duration":476917,"SoundDuration":476917,"Delta":359928354},{"NoteNumber":90,"Velocity":68,"Duration":387096,"SoundDuration":387096,"Delta":360018174},{"NoteNumber":85,"Velocity":57,"Duration":387096,"SoundDuration":387096,"Delta":360018174},{"NoteNumber":82,"Velocity":57,"Duration":387096,"SoundDuration":387096,"Delta":360018174},{"NoteNumber":78,"Velocity":57,"Duration":387096,"SoundDuration":387096,"Delta":360018174},{"NoteNumber":66,"Velocity":63,"Duration":387096,"SoundDuration":387096,"Delta":360018174},{"NoteNumber":61,"Velocity":53,"Duration":387096,"SoundDuration":387096,"Delta":360018174},{"NoteNumber":58,"Velocity":53,"Duration":387096,"SoundDuration":387096,"Delta":360018174},{"NoteNumber":54,"Velocity":53,"Duration":387096,"SoundDuration":387096,"Delta":360018174},{"NoteNumber":57,"Velocity":65,"Duration":647213,"SoundDuration":647213,"Delta":360792368},{"NoteNumber":69,"Velocity":77,"Duration":647213,"SoundDuration":647213,"Delta":360792368},{"NoteNumber":33,"Velocity":55,"Duration":1130831,"SoundDuration":1130831,"Delta":360792368},{"NoteNumber":45,"Velocity":66,"Duration":1130831,"SoundDuration":1130831,"Delta":360792368},{"NoteNumber":93,"Velocity":64,"Duration":66568,"SoundDuration":66568,"Delta":361373014},{"NoteNumber":88,"Velocity":54,"Duration":66568,"SoundDuration":66568,"Delta":361373014},{"NoteNumber":85,"Velocity":54,"Duration":66568,"SoundDuration":66568,"Delta":361373014},{"NoteNumber":81,"Velocity":54,"Duration":66568,"SoundDuration":66568,"Delta":361373014},{"NoteNumber":69,"Velocity":59,"Duration":155325,"SoundDuration":155325,"Delta":361373014},{"NoteNumber":64,"Velocity":50,"Duration":66568,"SoundDuration":66568,"Delta":361373014},{"NoteNumber":61,"Velocity":50,"Duration":66568,"SoundDuration":66568,"Delta":361373014},{"NoteNumber":57,"Velocity":50,"Duration":155325,"SoundDuration":155325,"Delta":361373014},{"NoteNumber":93,"Velocity":64,"Duration":66568,"SoundDuration":66568,"Delta":361461771},{"NoteNumber":88,"Velocity":54,"Duration":66568,"SoundDuration":66568,"Delta":361461771},{"NoteNumber":85,"Velocity":54,"Duration":66568,"SoundDuration":66568,"Delta":361461771},{"NoteNumber":81,"Velocity":54,"Duration":66568,"SoundDuration":66568,"Delta":361461771},{"NoteNumber":69,"Velocity":59,"Duration":461428,"SoundDuration":461428,"Delta":361461771},{"NoteNumber":64,"Velocity":50,"Duration":66568,"SoundDuration":66568,"Delta":361461771},{"NoteNumber":61,"Velocity":50,"Duration":66568,"SoundDuration":66568,"Delta":361461771},{"NoteNumber":57,"Velocity":50,"Duration":461428,"SoundDuration":461428,"Delta":361461771},{"NoteNumber":93,"Velocity":69,"Duration":372671,"SoundDuration":372671,"Delta":361550529},{"NoteNumber":88,"Velocity":58,"Duration":372671,"SoundDuration":372671,"Delta":361550529},{"NoteNumber":85,"Velocity":58,"Duration":372671,"SoundDuration":372671,"Delta":361550529},{"NoteNumber":81,"Velocity":58,"Duration":372671,"SoundDuration":372671,"Delta":361550529},{"NoteNumber":69,"Velocity":65,"Duration":372671,"SoundDuration":372671,"Delta":361550529},{"NoteNumber":64,"Velocity":55,"Duration":372671,"SoundDuration":372671,"Delta":361550529},{"NoteNumber":61,"Velocity":55,"Duration":372671,"SoundDuration":372671,"Delta":361550529},{"NoteNumber":57,"Velocity":55,"Duration":372671,"SoundDuration":372671,"Delta":361550529},{"NoteNumber":57,"Velocity":68,"Duration":139751,"SoundDuration":139751,"Delta":362109535},{"NoteNumber":62,"Velocity":68,"Duration":139751,"SoundDuration":139751,"Delta":362109535},{"NoteNumber":66,"Velocity":68,"Duration":139751,"SoundDuration":139751,"Delta":362109535},{"NoteNumber":69,"Velocity":81,"Duration":139751,"SoundDuration":139751,"Delta":362109535},{"NoteNumber":26,"Velocity":56,"Duration":139751,"SoundDuration":139751,"Delta":362109535},{"NoteNumber":33,"Velocity":56,"Duration":139751,"SoundDuration":139751,"Delta":362109535},{"NoteNumber":38,"Velocity":66,"Duration":139751,"SoundDuration":139751,"Delta":362109535},{"NoteNumber":57,"Velocity":57,"Duration":961169,"SoundDuration":961169,"Delta":362295871},{"NoteNumber":62,"Velocity":57,"Duration":961169,"SoundDuration":961169,"Delta":362295871},{"NoteNumber":66,"Velocity":57,"Duration":961169,"SoundDuration":961169,"Delta":362295871},{"NoteNumber":69,"Velocity":80,"Duration":961169,"SoundDuration":961169,"Delta":362295871},{"NoteNumber":26,"Velocity":51,"Duration":1906629,"SoundDuration":1906629,"Delta":362295871},{"NoteNumber":33,"Velocity":51,"Duration":1906629,"SoundDuration":1906629,"Delta":362295871},{"NoteNumber":38,"Velocity":73,"Duration":1906629,"SoundDuration":1906629,"Delta":362295871},{"NoteNumber":81,"Velocity":56,"Duration":80935,"SoundDuration":80935,"Delta":363364954},{"NoteNumber":86,"Velocity":56,"Duration":80935,"SoundDuration":80935,"Delta":363364954},{"NoteNumber":90,"Velocity":56,"Duration":80935,"SoundDuration":80935,"Delta":363364954},{"NoteNumber":93,"Velocity":67,"Duration":80935,"SoundDuration":80935,"Delta":363364954},{"NoteNumber":57,"Velocity":56,"Duration":80935,"SoundDuration":80935,"Delta":363364954},{"NoteNumber":62,"Velocity":56,"Duration":80935,"SoundDuration":80935,"Delta":363364954},{"NoteNumber":66,"Velocity":56,"Duration":80935,"SoundDuration":80935,"Delta":363364954},{"NoteNumber":69,"Velocity":67,"Duration":80935,"SoundDuration":80935,"Delta":363364954},{"NoteNumber":81,"Velocity":66,"Duration":183038,"SoundDuration":183038,"Delta":363472868},{"NoteNumber":86,"Velocity":66,"Duration":183038,"SoundDuration":183038,"Delta":363472868},{"NoteNumber":90,"Velocity":66,"Duration":183038,"SoundDuration":183038,"Delta":363472868},{"NoteNumber":93,"Velocity":78,"Duration":183038,"SoundDuration":183038,"Delta":363472868},{"NoteNumber":57,"Velocity":66,"Duration":183038,"SoundDuration":183038,"Delta":363472868},{"NoteNumber":62,"Velocity":66,"Duration":183038,"SoundDuration":183038,"Delta":363472868},{"NoteNumber":66,"Velocity":66,"Duration":183038,"SoundDuration":183038,"Delta":363472868},{"NoteNumber":69,"Velocity":78,"Duration":183038,"SoundDuration":183038,"Delta":363472868},{"NoteNumber":98,"Velocity":70,"Duration":68639,"SoundDuration":68639,"Delta":363747425},{"NoteNumber":93,"Velocity":59,"Duration":68639,"SoundDuration":68639,"Delta":363747425},{"NoteNumber":90,"Velocity":59,"Duration":68639,"SoundDuration":68639,"Delta":363747425},{"NoteNumber":86,"Velocity":59,"Duration":68639,"SoundDuration":68639,"Delta":363747425},{"NoteNumber":74,"Velocity":70,"Duration":68639,"SoundDuration":68639,"Delta":363747425},{"NoteNumber":69,"Velocity":59,"Duration":68639,"SoundDuration":68639,"Delta":363747425},{"NoteNumber":66,"Velocity":59,"Duration":68639,"SoundDuration":68639,"Delta":363747425},{"NoteNumber":62,"Velocity":59,"Duration":68639,"SoundDuration":68639,"Delta":363747425},{"NoteNumber":98,"Velocity":79,"Duration":182723,"SoundDuration":182723,"Delta":363838945},{"NoteNumber":93,"Velocity":67,"Duration":182723,"SoundDuration":182723,"Delta":363838945},{"NoteNumber":90,"Velocity":67,"Duration":182723,"SoundDuration":182723,"Delta":363838945},{"NoteNumber":86,"Velocity":67,"Duration":182723,"SoundDuration":182723,"Delta":363838945},{"NoteNumber":74,"Velocity":79,"Duration":182723,"SoundDuration":182723,"Delta":363838945},{"NoteNumber":69,"Velocity":67,"Duration":182723,"SoundDuration":182723,"Delta":363838945},{"NoteNumber":66,"Velocity":67,"Duration":182723,"SoundDuration":182723,"Delta":363838945},{"NoteNumber":62,"Velocity":67,"Duration":182723,"SoundDuration":182723,"Delta":363838945},{"NoteNumber":90,"Velocity":71,"Duration":67812,"SoundDuration":67812,"Delta":364112084},{"NoteNumber":86,"Velocity":60,"Duration":67812,"SoundDuration":67812,"Delta":364112084},{"NoteNumber":78,"Velocity":60,"Duration":67812,"SoundDuration":67812,"Delta":364112084},{"NoteNumber":66,"Velocity":71,"Duration":67812,"SoundDuration":67812,"Delta":364112084},{"NoteNumber":62,"Velocity":60,"Duration":67812,"SoundDuration":67812,"Delta":364112084},{"NoteNumber":54,"Velocity":60,"Duration":67812,"SoundDuration":67812,"Delta":364112084},{"NoteNumber":90,"Velocity":80,"Duration":178677,"SoundDuration":178677,"Delta":364202500},{"NoteNumber":86,"Velocity":68,"Duration":178677,"SoundDuration":178677,"Delta":364202500},{"NoteNumber":78,"Velocity":68,"Duration":178677,"SoundDuration":178677,"Delta":364202500},{"NoteNumber":66,"Velocity":80,"Duration":178677,"SoundDuration":178677,"Delta":364202500},{"NoteNumber":62,"Velocity":68,"Duration":178677,"SoundDuration":178677,"Delta":364202500},{"NoteNumber":54,"Velocity":68,"Duration":178677,"SoundDuration":178677,"Delta":364202500},{"NoteNumber":93,"Velocity":70,"Duration":67004,"SoundDuration":67004,"Delta":364470517},{"NoteNumber":90,"Velocity":59,"Duration":67004,"SoundDuration":67004,"Delta":364470517},{"NoteNumber":86,"Velocity":59,"Duration":67004,"SoundDuration":67004,"Delta":364470517},{"NoteNumber":81,"Velocity":59,"Duration":67004,"SoundDuration":67004,"Delta":364470517},{"NoteNumber":69,"Velocity":70,"Duration":67004,"SoundDuration":67004,"Delta":364470517},{"NoteNumber":66,"Velocity":59,"Duration":67004,"SoundDuration":67004,"Delta":364470517},{"NoteNumber":62,"Velocity":59,"Duration":67004,"SoundDuration":67004,"Delta":364470517},{"NoteNumber":57,"Velocity":59,"Duration":67004,"SoundDuration":67004,"Delta":364470517},{"NoteNumber":93,"Velocity":80,"Duration":178677,"SoundDuration":178677,"Delta":364559856},{"NoteNumber":90,"Velocity":68,"Duration":178677,"SoundDuration":178677,"Delta":364559856},{"NoteNumber":86,"Velocity":68,"Duration":178677,"SoundDuration":178677,"Delta":364559856},{"NoteNumber":81,"Velocity":68,"Duration":178677,"SoundDuration":178677,"Delta":364559856},{"NoteNumber":69,"Velocity":80,"Duration":178677,"SoundDuration":178677,"Delta":364559856},{"NoteNumber":66,"Velocity":68,"Duration":178677,"SoundDuration":178677,"Delta":364559856},{"NoteNumber":62,"Velocity":68,"Duration":178677,"SoundDuration":178677,"Delta":364559856},{"NoteNumber":57,"Velocity":68,"Duration":178677,"SoundDuration":178677,"Delta":364559856},{"NoteNumber":86,"Velocity":72,"Duration":67004,"SoundDuration":67004,"Delta":364827873},{"NoteNumber":81,"Velocity":61,"Duration":67004,"SoundDuration":67004,"Delta":364827873},{"NoteNumber":78,"Velocity":61,"Duration":67004,"SoundDuration":67004,"Delta":364827873},{"NoteNumber":74,"Velocity":61,"Duration":67004,"SoundDuration":67004,"Delta":364827873},{"NoteNumber":62,"Velocity":72,"Duration":67004,"SoundDuration":67004,"Delta":364827873},{"NoteNumber":57,"Velocity":61,"Duration":67004,"SoundDuration":67004,"Delta":364827873},{"NoteNumber":54,"Velocity":61,"Duration":67004,"SoundDuration":67004,"Delta":364827873},{"NoteNumber":50,"Velocity":61,"Duration":67004,"SoundDuration":67004,"Delta":364827873},{"NoteNumber":86,"Velocity":79,"Duration":176574,"SoundDuration":176574,"Delta":364917212},{"NoteNumber":81,"Velocity":67,"Duration":176574,"SoundDuration":176574,"Delta":364917212},{"NoteNumber":78,"Velocity":67,"Duration":176574,"SoundDuration":176574,"Delta":364917212},{"NoteNumber":74,"Velocity":67,"Duration":176574,"SoundDuration":176574,"Delta":364917212},{"NoteNumber":62,"Velocity":79,"Duration":176574,"SoundDuration":176574,"Delta":364917212},{"NoteNumber":57,"Velocity":67,"Duration":176574,"SoundDuration":176574,"Delta":364917212},{"NoteNumber":54,"Velocity":67,"Duration":176574,"SoundDuration":176574,"Delta":364917212},{"NoteNumber":50,"Velocity":67,"Duration":176574,"SoundDuration":176574,"Delta":364917212},{"NoteNumber":90,"Velocity":74,"Duration":66215,"SoundDuration":66215,"Delta":365182074},{"NoteNumber":86,"Velocity":62,"Duration":66215,"SoundDuration":66215,"Delta":365182074},{"NoteNumber":78,"Velocity":62,"Duration":66215,"SoundDuration":66215,"Delta":365182074},{"NoteNumber":66,"Velocity":62,"Duration":66215,"SoundDuration":66215,"Delta":365182074},{"NoteNumber":62,"Velocity":62,"Duration":66215,"SoundDuration":66215,"Delta":365182074},{"NoteNumber":54,"Velocity":62,"Duration":66215,"SoundDuration":66215,"Delta":365182074},{"NoteNumber":78,"Velocity":68,"Duration":176574,"SoundDuration":176574,"Delta":365270361},{"NoteNumber":86,"Velocity":68,"Duration":176574,"SoundDuration":176574,"Delta":365270361},{"NoteNumber":90,"Velocity":81,"Duration":176574,"SoundDuration":176574,"Delta":365270361},{"NoteNumber":54,"Velocity":68,"Duration":176574,"SoundDuration":176574,"Delta":365270361},{"NoteNumber":62,"Velocity":68,"Duration":176574,"SoundDuration":176574,"Delta":365270361},{"NoteNumber":66,"Velocity":68,"Duration":176574,"SoundDuration":176574,"Delta":365270361},{"NoteNumber":69,"Velocity":56,"Duration":66215,"SoundDuration":66215,"Delta":365535223},{"NoteNumber":74,"Velocity":56,"Duration":66215,"SoundDuration":66215,"Delta":365535223},{"NoteNumber":78,"Velocity":56,"Duration":66215,"SoundDuration":66215,"Delta":365535223},{"NoteNumber":81,"Velocity":67,"Duration":66215,"SoundDuration":66215,"Delta":365535223},{"NoteNumber":45,"Velocity":56,"Duration":66215,"SoundDuration":66215,"Delta":365535223},{"NoteNumber":50,"Velocity":56,"Duration":66215,"SoundDuration":66215,"Delta":365535223},{"NoteNumber":54,"Velocity":56,"Duration":66215,"SoundDuration":66215,"Delta":365535223},{"NoteNumber":57,"Velocity":67,"Duration":66215,"SoundDuration":66215,"Delta":365535223},{"NoteNumber":69,"Velocity":66,"Duration":174015,"SoundDuration":174015,"Delta":365623510},{"NoteNumber":74,"Velocity":66,"Duration":174015,"SoundDuration":174015,"Delta":365623510},{"NoteNumber":78,"Velocity":66,"Duration":174015,"SoundDuration":174015,"Delta":365623510},{"NoteNumber":81,"Velocity":78,"Duration":174015,"SoundDuration":174015,"Delta":365623510},{"NoteNumber":45,"Velocity":66,"Duration":174015,"SoundDuration":174015,"Delta":365623510},{"NoteNumber":50,"Velocity":66,"Duration":174015,"SoundDuration":174015,"Delta":365623510},{"NoteNumber":54,"Velocity":66,"Duration":174015,"SoundDuration":174015,"Delta":365623510},{"NoteNumber":57,"Velocity":78,"Duration":174015,"SoundDuration":174015,"Delta":365623510},{"NoteNumber":86,"Velocity":70,"Duration":65445,"SoundDuration":65445,"Delta":365884786},{"NoteNumber":81,"Velocity":59,"Duration":65445,"SoundDuration":65445,"Delta":365884786},{"NoteNumber":78,"Velocity":59,"Duration":65445,"SoundDuration":65445,"Delta":365884786},{"NoteNumber":74,"Velocity":59,"Duration":65445,"SoundDuration":65445,"Delta":365884786},{"NoteNumber":62,"Velocity":70,"Duration":65445,"SoundDuration":65445,"Delta":365884786},{"NoteNumber":57,"Velocity":59,"Duration":65445,"SoundDuration":65445,"Delta":365884786},{"NoteNumber":54,"Velocity":59,"Duration":65445,"SoundDuration":65445,"Delta":365884786},{"NoteNumber":50,"Velocity":59,"Duration":65445,"SoundDuration":65445,"Delta":365884786},{"NoteNumber":86,"Velocity":79,"Duration":174520,"SoundDuration":174520,"Delta":365972046},{"NoteNumber":81,"Velocity":67,"Duration":174520,"SoundDuration":174520,"Delta":365972046},{"NoteNumber":78,"Velocity":67,"Duration":174520,"SoundDuration":174520,"Delta":365972046},{"NoteNumber":74,"Velocity":67,"Duration":174520,"SoundDuration":174520,"Delta":365972046},{"NoteNumber":62,"Velocity":79,"Duration":174520,"SoundDuration":174520,"Delta":365972046},{"NoteNumber":57,"Velocity":67,"Duration":174520,"SoundDuration":174520,"Delta":365972046},{"NoteNumber":54,"Velocity":67,"Duration":174520,"SoundDuration":174520,"Delta":365972046},{"NoteNumber":50,"Velocity":67,"Duration":174520,"SoundDuration":174520,"Delta":365972046},{"NoteNumber":78,"Velocity":71,"Duration":65445,"SoundDuration":65445,"Delta":366233826},{"NoteNumber":74,"Velocity":60,"Duration":65445,"SoundDuration":65445,"Delta":366233826},{"NoteNumber":66,"Velocity":60,"Duration":65445,"SoundDuration":65445,"Delta":366233826},{"NoteNumber":54,"Velocity":71,"Duration":65445,"SoundDuration":65445,"Delta":366233826},{"NoteNumber":50,"Velocity":60,"Duration":65445,"SoundDuration":65445,"Delta":366233826},{"NoteNumber":42,"Velocity":60,"Duration":65445,"SoundDuration":65445,"Delta":366233826},{"NoteNumber":78,"Velocity":80,"Duration":172512,"SoundDuration":172512,"Delta":366321086},{"NoteNumber":74,"Velocity":68,"Duration":172512,"SoundDuration":172512,"Delta":366321086},{"NoteNumber":66,"Velocity":68,"Duration":172512,"SoundDuration":172512,"Delta":366321086},{"NoteNumber":54,"Velocity":80,"Duration":172512,"SoundDuration":172512,"Delta":366321086},{"NoteNumber":50,"Velocity":68,"Duration":172512,"SoundDuration":172512,"Delta":366321086},{"NoteNumber":42,"Velocity":68,"Duration":172512,"SoundDuration":172512,"Delta":366321086},{"NoteNumber":81,"Velocity":70,"Duration":64692,"SoundDuration":64692,"Delta":366579855},{"NoteNumber":78,"Velocity":59,"Duration":64692,"SoundDuration":64692,"Delta":366579855},{"NoteNumber":74,"Velocity":59,"Duration":64692,"SoundDuration":64692,"Delta":366579855},{"NoteNumber":69,"Velocity":59,"Duration":64692,"SoundDuration":64692,"Delta":366579855},{"NoteNumber":57,"Velocity":70,"Duration":64692,"SoundDuration":64692,"Delta":366579855},{"NoteNumber":54,"Velocity":59,"Duration":64692,"SoundDuration":64692,"Delta":366579855},{"NoteNumber":50,"Velocity":59,"Duration":64692,"SoundDuration":64692,"Delta":366579855},{"NoteNumber":45,"Velocity":59,"Duration":64692,"SoundDuration":64692,"Delta":366579855},{"NoteNumber":81,"Velocity":80,"Duration":172512,"SoundDuration":172512,"Delta":366666112},{"NoteNumber":78,"Velocity":68,"Duration":172512,"SoundDuration":172512,"Delta":366666112},{"NoteNumber":74,"Velocity":68,"Duration":172512,"SoundDuration":172512,"Delta":366666112},{"NoteNumber":69,"Velocity":68,"Duration":172512,"SoundDuration":172512,"Delta":366666112},{"NoteNumber":57,"Velocity":80,"Duration":172512,"SoundDuration":172512,"Delta":366666112},{"NoteNumber":54,"Velocity":68,"Duration":172512,"SoundDuration":172512,"Delta":366666112},{"NoteNumber":50,"Velocity":68,"Duration":172512,"SoundDuration":172512,"Delta":366666112},{"NoteNumber":45,"Velocity":68,"Duration":172512,"SoundDuration":172512,"Delta":366666112},{"NoteNumber":74,"Velocity":72,"Duration":64692,"SoundDuration":64692,"Delta":366924881},{"NoteNumber":69,"Velocity":61,"Duration":64692,"SoundDuration":64692,"Delta":366924881},{"NoteNumber":66,"Velocity":61,"Duration":64692,"SoundDuration":64692,"Delta":366924881},{"NoteNumber":62,"Velocity":61,"Duration":64692,"SoundDuration":64692,"Delta":366924881},{"NoteNumber":50,"Velocity":72,"Duration":64692,"SoundDuration":64692,"Delta":366924881},{"NoteNumber":45,"Velocity":61,"Duration":64692,"SoundDuration":64692,"Delta":366924881},{"NoteNumber":42,"Velocity":61,"Duration":64692,"SoundDuration":64692,"Delta":366924881},{"NoteNumber":38,"Velocity":61,"Duration":64692,"SoundDuration":64692,"Delta":366924881},{"NoteNumber":74,"Velocity":79,"Duration":170551,"SoundDuration":170551,"Delta":367011138},{"NoteNumber":69,"Velocity":67,"Duration":170551,"SoundDuration":170551,"Delta":367011138},{"NoteNumber":66,"Velocity":67,"Duration":170551,"SoundDuration":170551,"Delta":367011138},{"NoteNumber":62,"Velocity":67,"Duration":170551,"SoundDuration":170551,"Delta":367011138},{"NoteNumber":50,"Velocity":79,"Duration":170551,"SoundDuration":170551,"Delta":367011138},{"NoteNumber":45,"Velocity":67,"Duration":170551,"SoundDuration":170551,"Delta":367011138},{"NoteNumber":42,"Velocity":67,"Duration":170551,"SoundDuration":170551,"Delta":367011138},{"NoteNumber":38,"Velocity":67,"Duration":170551,"SoundDuration":170551,"Delta":367011138},{"NoteNumber":78,"Velocity":74,"Duration":63956,"SoundDuration":63956,"Delta":367266965},{"NoteNumber":74,"Velocity":62,"Duration":63956,"SoundDuration":63956,"Delta":367266965},{"NoteNumber":66,"Velocity":62,"Duration":63956,"SoundDuration":63956,"Delta":367266965},{"NoteNumber":54,"Velocity":74,"Duration":63956,"SoundDuration":63956,"Delta":367266965},{"NoteNumber":50,"Velocity":62,"Duration":63956,"SoundDuration":63956,"Delta":367266965},{"NoteNumber":42,"Velocity":62,"Duration":63956,"SoundDuration":63956,"Delta":367266965},{"NoteNumber":66,"Velocity":68,"Duration":170551,"SoundDuration":170551,"Delta":367352241},{"NoteNumber":74,"Velocity":68,"Duration":170551,"SoundDuration":170551,"Delta":367352241},{"NoteNumber":78,"Velocity":81,"Duration":170551,"SoundDuration":170551,"Delta":367352241},{"NoteNumber":42,"Velocity":68,"Duration":170551,"SoundDuration":170551,"Delta":367352241},{"NoteNumber":50,"Velocity":68,"Duration":170551,"SoundDuration":170551,"Delta":367352241},{"NoteNumber":54,"Velocity":81,"Duration":170551,"SoundDuration":170551,"Delta":367352241},{"NoteNumber":57,"Velocity":56,"Duration":63956,"SoundDuration":63956,"Delta":367608068},{"NoteNumber":62,"Velocity":56,"Duration":63956,"SoundDuration":63956,"Delta":367608068},{"NoteNumber":66,"Velocity":56,"Duration":63956,"SoundDuration":63956,"Delta":367608068},{"NoteNumber":69,"Velocity":67,"Duration":63956,"SoundDuration":63956,"Delta":367608068},{"NoteNumber":33,"Velocity":56,"Duration":63956,"SoundDuration":63956,"Delta":367608068},{"NoteNumber":38,"Velocity":56,"Duration":63956,"SoundDuration":63956,"Delta":367608068},{"NoteNumber":42,"Velocity":56,"Duration":63956,"SoundDuration":63956,"Delta":367608068},{"NoteNumber":45,"Velocity":67,"Duration":63956,"SoundDuration":63956,"Delta":367608068},{"NoteNumber":57,"Velocity":66,"Duration":170551,"SoundDuration":170551,"Delta":367693344},{"NoteNumber":62,"Velocity":66,"Duration":170551,"SoundDuration":170551,"Delta":367693344},{"NoteNumber":66,"Velocity":66,"Duration":170551,"SoundDuration":170551,"Delta":367693344},{"NoteNumber":69,"Velocity":78,"Duration":170551,"SoundDuration":170551,"Delta":367693344},{"NoteNumber":33,"Velocity":66,"Duration":170551,"SoundDuration":170551,"Delta":367693344},{"NoteNumber":38,"Velocity":66,"Duration":170551,"SoundDuration":170551,"Delta":367693344},{"NoteNumber":42,"Velocity":66,"Duration":170551,"SoundDuration":170551,"Delta":367693344},{"NoteNumber":45,"Velocity":78,"Duration":170551,"SoundDuration":170551,"Delta":367693344},{"NoteNumber":74,"Velocity":70,"Duration":63956,"SoundDuration":63956,"Delta":367949171},{"NoteNumber":69,"Velocity":59,"Duration":63956,"SoundDuration":63956,"Delta":367949171},{"NoteNumber":66,"Velocity":59,"Duration":63956,"SoundDuration":63956,"Delta":367949171},{"NoteNumber":62,"Velocity":59,"Duration":63956,"SoundDuration":63956,"Delta":367949171},{"NoteNumber":50,"Velocity":70,"Duration":63956,"SoundDuration":63956,"Delta":367949171},{"NoteNumber":45,"Velocity":59,"Duration":63956,"SoundDuration":63956,"Delta":367949171},{"NoteNumber":42,"Velocity":59,"Duration":63956,"SoundDuration":63956,"Delta":367949171},{"NoteNumber":38,"Velocity":59,"Duration":63956,"SoundDuration":63956,"Delta":367949171},{"NoteNumber":74,"Velocity":79,"Duration":170551,"SoundDuration":170551,"Delta":368034447},{"NoteNumber":69,"Velocity":67,"Duration":170551,"SoundDuration":170551,"Delta":368034447},{"NoteNumber":66,"Velocity":67,"Duration":170551,"SoundDuration":170551,"Delta":368034447},{"NoteNumber":62,"Velocity":67,"Duration":170551,"SoundDuration":170551,"Delta":368034447},{"NoteNumber":50,"Velocity":79,"Duration":170551,"SoundDuration":170551,"Delta":368034447},{"NoteNumber":45,"Velocity":67,"Duration":170551,"SoundDuration":170551,"Delta":368034447},{"NoteNumber":42,"Velocity":67,"Duration":170551,"SoundDuration":170551,"Delta":368034447},{"NoteNumber":38,"Velocity":67,"Duration":170551,"SoundDuration":170551,"Delta":368034447},{"NoteNumber":66,"Velocity":71,"Duration":63956,"SoundDuration":63956,"Delta":368290274},{"NoteNumber":62,"Velocity":60,"Duration":63956,"SoundDuration":63956,"Delta":368290274},{"NoteNumber":54,"Velocity":60,"Duration":63956,"SoundDuration":63956,"Delta":368290274},{"NoteNumber":42,"Velocity":71,"Duration":63956,"SoundDuration":63956,"Delta":368290274},{"NoteNumber":38,"Velocity":60,"Duration":63956,"SoundDuration":63956,"Delta":368290274},{"NoteNumber":30,"Velocity":60,"Duration":63956,"SoundDuration":63956,"Delta":368290274},{"NoteNumber":66,"Velocity":80,"Duration":169587,"SoundDuration":169587,"Delta":368375550},{"NoteNumber":62,"Velocity":68,"Duration":169587,"SoundDuration":169587,"Delta":368375550},{"NoteNumber":54,"Velocity":68,"Duration":169587,"SoundDuration":169587,"Delta":368375550},{"NoteNumber":42,"Velocity":80,"Duration":169587,"SoundDuration":169587,"Delta":368375550},{"NoteNumber":38,"Velocity":68,"Duration":169587,"SoundDuration":169587,"Delta":368375550},{"NoteNumber":30,"Velocity":68,"Duration":169587,"SoundDuration":169587,"Delta":368375550},{"NoteNumber":69,"Velocity":70,"Duration":63595,"SoundDuration":63595,"Delta":368629931},{"NoteNumber":66,"Velocity":59,"Duration":63595,"SoundDuration":63595,"Delta":368629931},{"NoteNumber":62,"Velocity":59,"Duration":63595,"SoundDuration":63595,"Delta":368629931},{"NoteNumber":57,"Velocity":59,"Duration":63595,"SoundDuration":63595,"Delta":368629931},{"NoteNumber":45,"Velocity":70,"Duration":63595,"SoundDuration":63595,"Delta":368629931},{"NoteNumber":42,"Velocity":59,"Duration":63595,"SoundDuration":63595,"Delta":368629931},{"NoteNumber":38,"Velocity":59,"Duration":63595,"SoundDuration":63595,"Delta":368629931},{"NoteNumber":33,"Velocity":59,"Duration":63595,"SoundDuration":63595,"Delta":368629931},{"NoteNumber":69,"Velocity":80,"Duration":169587,"SoundDuration":169587,"Delta":368714725},{"NoteNumber":66,"Velocity":68,"Duration":169587,"SoundDuration":169587,"Delta":368714725},{"NoteNumber":62,"Velocity":68,"Duration":169587,"SoundDuration":169587,"Delta":368714725},{"NoteNumber":57,"Velocity":68,"Duration":169587,"SoundDuration":169587,"Delta":368714725},{"NoteNumber":45,"Velocity":80,"Duration":169587,"SoundDuration":169587,"Delta":368714725},{"NoteNumber":42,"Velocity":68,"Duration":169587,"SoundDuration":169587,"Delta":368714725},{"NoteNumber":38,"Velocity":68,"Duration":169587,"SoundDuration":169587,"Delta":368714725},{"NoteNumber":33,"Velocity":68,"Duration":169587,"SoundDuration":169587,"Delta":368714725},{"NoteNumber":62,"Velocity":70,"Duration":63595,"SoundDuration":63595,"Delta":368969106},{"NoteNumber":57,"Velocity":59,"Duration":63595,"SoundDuration":63595,"Delta":368969106},{"NoteNumber":54,"Velocity":59,"Duration":63595,"SoundDuration":63595,"Delta":368969106},{"NoteNumber":50,"Velocity":59,"Duration":63595,"SoundDuration":63595,"Delta":368969106},{"NoteNumber":26,"Velocity":51,"Duration":63595,"SoundDuration":63595,"Delta":368969106},{"NoteNumber":33,"Velocity":51,"Duration":63595,"SoundDuration":63595,"Delta":368969106},{"NoteNumber":38,"Velocity":61,"Duration":63595,"SoundDuration":63595,"Delta":368969106},{"NoteNumber":50,"Velocity":65,"Duration":147342,"SoundDuration":147342,"Delta":369053900},{"NoteNumber":54,"Velocity":65,"Duration":147342,"SoundDuration":147342,"Delta":369053900},{"NoteNumber":57,"Velocity":65,"Duration":147342,"SoundDuration":147342,"Delta":369053900},{"NoteNumber":62,"Velocity":77,"Duration":147342,"SoundDuration":147342,"Delta":369053900},{"NoteNumber":26,"Velocity":56,"Duration":147342,"SoundDuration":147342,"Delta":369053900},{"NoteNumber":33,"Velocity":56,"Duration":147342,"SoundDuration":147342,"Delta":369053900},{"NoteNumber":38,"Velocity":67,"Duration":147342,"SoundDuration":147342,"Delta":369053900},{"NoteNumber":62,"Velocity":70,"Duration":148450,"SoundDuration":148450,"Delta":369217578},{"NoteNumber":58,"Velocity":59,"Duration":148450,"SoundDuration":148450,"Delta":369217578},{"NoteNumber":55,"Velocity":59,"Duration":148450,"SoundDuration":148450,"Delta":369217578},{"NoteNumber":50,"Velocity":59,"Duration":148450,"SoundDuration":148450,"Delta":369217578},{"NoteNumber":26,"Velocity":51,"Duration":148450,"SoundDuration":148450,"Delta":369217578},{"NoteNumber":34,"Velocity":51,"Duration":148450,"SoundDuration":148450,"Delta":369217578},{"NoteNumber":38,"Velocity":61,"Duration":148450,"SoundDuration":148450,"Delta":369217578},{"NoteNumber":50,"Velocity":65,"Duration":150777,"SoundDuration":150777,"Delta":369382613},{"NoteNumber":54,"Velocity":65,"Duration":150777,"SoundDuration":150777,"Delta":369382613},{"NoteNumber":57,"Velocity":65,"Duration":150777,"SoundDuration":150777,"Delta":369382613},{"NoteNumber":62,"Velocity":77,"Duration":150777,"SoundDuration":150777,"Delta":369382613},{"NoteNumber":26,"Velocity":56,"Duration":150777,"SoundDuration":150777,"Delta":369382613},{"NoteNumber":33,"Velocity":56,"Duration":150777,"SoundDuration":150777,"Delta":369382613},{"NoteNumber":38,"Velocity":67,"Duration":150777,"SoundDuration":150777,"Delta":369382613},{"NoteNumber":50,"Velocity":59,"Duration":153153,"SoundDuration":153153,"Delta":369550253},{"NoteNumber":55,"Velocity":59,"Duration":153153,"SoundDuration":153153,"Delta":369550253},{"NoteNumber":58,"Velocity":59,"Duration":153153,"SoundDuration":153153,"Delta":369550253},{"NoteNumber":62,"Velocity":70,"Duration":153153,"SoundDuration":153153,"Delta":369550253},{"NoteNumber":26,"Velocity":51,"Duration":153153,"SoundDuration":153153,"Delta":369550253},{"NoteNumber":34,"Velocity":51,"Duration":153153,"SoundDuration":153153,"Delta":369550253},{"NoteNumber":38,"Velocity":61,"Duration":153153,"SoundDuration":153153,"Delta":369550253},{"NoteNumber":50,"Velocity":65,"Duration":157987,"SoundDuration":157987,"Delta":369720559},{"NoteNumber":54,"Velocity":65,"Duration":157987,"SoundDuration":157987,"Delta":369720559},{"NoteNumber":57,"Velocity":65,"Duration":157987,"SoundDuration":157987,"Delta":369720559},{"NoteNumber":62,"Velocity":77,"Duration":157987,"SoundDuration":157987,"Delta":369720559},{"NoteNumber":26,"Velocity":56,"Duration":157987,"SoundDuration":157987,"Delta":369720559},{"NoteNumber":33,"Velocity":56,"Duration":157987,"SoundDuration":157987,"Delta":369720559},{"NoteNumber":38,"Velocity":67,"Duration":157987,"SoundDuration":157987,"Delta":369720559},{"NoteNumber":62,"Velocity":70,"Duration":157987,"SoundDuration":157987,"Delta":369896101},{"NoteNumber":58,"Velocity":59,"Duration":157987,"SoundDuration":157987,"Delta":369896101},{"NoteNumber":55,"Velocity":59,"Duration":157987,"SoundDuration":157987,"Delta":369896101},{"NoteNumber":50,"Velocity":59,"Duration":157987,"SoundDuration":157987,"Delta":369896101},{"NoteNumber":26,"Velocity":51,"Duration":157987,"SoundDuration":157987,"Delta":369896101},{"NoteNumber":34,"Velocity":51,"Duration":157987,"SoundDuration":157987,"Delta":369896101},{"NoteNumber":38,"Velocity":61,"Duration":157987,"SoundDuration":157987,"Delta":369896101},{"NoteNumber":50,"Velocity":65,"Duration":157987,"SoundDuration":157987,"Delta":370071642},{"NoteNumber":54,"Velocity":65,"Duration":157987,"SoundDuration":157987,"Delta":370071642},{"NoteNumber":57,"Velocity":65,"Duration":157987,"SoundDuration":157987,"Delta":370071642},{"NoteNumber":62,"Velocity":77,"Duration":157987,"SoundDuration":157987,"Delta":370071642},{"NoteNumber":26,"Velocity":56,"Duration":157987,"SoundDuration":157987,"Delta":370071642},{"NoteNumber":33,"Velocity":56,"Duration":157987,"SoundDuration":157987,"Delta":370071642},{"NoteNumber":38,"Velocity":67,"Duration":157987,"SoundDuration":157987,"Delta":370071642},{"NoteNumber":50,"Velocity":59,"Duration":157987,"SoundDuration":157987,"Delta":370247184},{"NoteNumber":55,"Velocity":59,"Duration":157987,"SoundDuration":157987,"Delta":370247184},{"NoteNumber":58,"Velocity":59,"Duration":157987,"SoundDuration":157987,"Delta":370247184},{"NoteNumber":62,"Velocity":70,"Duration":157987,"SoundDuration":157987,"Delta":370247184},{"NoteNumber":26,"Velocity":51,"Duration":157987,"SoundDuration":157987,"Delta":370247184},{"NoteNumber":34,"Velocity":51,"Duration":157987,"SoundDuration":157987,"Delta":370247184},{"NoteNumber":38,"Velocity":61,"Duration":157987,"SoundDuration":157987,"Delta":370247184},{"NoteNumber":50,"Velocity":65,"Duration":131656,"SoundDuration":131656,"Delta":370422725},{"NoteNumber":54,"Velocity":65,"Duration":131656,"SoundDuration":131656,"Delta":370422725},{"NoteNumber":57,"Velocity":65,"Duration":131656,"SoundDuration":131656,"Delta":370422725},{"NoteNumber":62,"Velocity":77,"Duration":131656,"SoundDuration":131656,"Delta":370422725},{"NoteNumber":26,"Velocity":56,"Duration":131656,"SoundDuration":131656,"Delta":370422725},{"NoteNumber":33,"Velocity":56,"Duration":131656,"SoundDuration":131656,"Delta":370422725},{"NoteNumber":38,"Velocity":67,"Duration":131656,"SoundDuration":131656,"Delta":370422725},{"NoteNumber":62,"Velocity":70,"Duration":131656,"SoundDuration":131656,"Delta":370598267},{"NoteNumber":58,"Velocity":59,"Duration":131656,"SoundDuration":131656,"Delta":370598267},{"NoteNumber":55,"Velocity":59,"Duration":131656,"SoundDuration":131656,"Delta":370598267},{"NoteNumber":50,"Velocity":59,"Duration":131656,"SoundDuration":131656,"Delta":370598267},{"NoteNumber":26,"Velocity":51,"Duration":131656,"SoundDuration":131656,"Delta":370598267},{"NoteNumber":34,"Velocity":51,"Duration":131656,"SoundDuration":131656,"Delta":370598267},{"NoteNumber":38,"Velocity":61,"Duration":131656,"SoundDuration":131656,"Delta":370598267},{"NoteNumber":50,"Velocity":65,"Duration":136446,"SoundDuration":136446,"Delta":370773808},{"NoteNumber":54,"Velocity":65,"Duration":136446,"SoundDuration":136446,"Delta":370773808},{"NoteNumber":57,"Velocity":65,"Duration":136446,"SoundDuration":136446,"Delta":370773808},{"NoteNumber":62,"Velocity":77,"Duration":136446,"SoundDuration":136446,"Delta":370773808},{"NoteNumber":26,"Velocity":56,"Duration":136446,"SoundDuration":136446,"Delta":370773808},{"NoteNumber":33,"Velocity":56,"Duration":136446,"SoundDuration":136446,"Delta":370773808},{"NoteNumber":38,"Velocity":67,"Duration":136446,"SoundDuration":136446,"Delta":370773808},{"NoteNumber":50,"Velocity":59,"Duration":136446,"SoundDuration":136446,"Delta":370955737},{"NoteNumber":55,"Velocity":59,"Duration":136446,"SoundDuration":136446,"Delta":370955737},{"NoteNumber":58,"Velocity":59,"Duration":136446,"SoundDuration":136446,"Delta":370955737},{"NoteNumber":62,"Velocity":70,"Duration":136446,"SoundDuration":136446,"Delta":370955737},{"NoteNumber":26,"Velocity":51,"Duration":136446,"SoundDuration":136446,"Delta":370955737},{"NoteNumber":34,"Velocity":51,"Duration":136446,"SoundDuration":136446,"Delta":370955737},{"NoteNumber":38,"Velocity":61,"Duration":136446,"SoundDuration":136446,"Delta":370955737},{"NoteNumber":50,"Velocity":67,"Duration":400266,"SoundDuration":400266,"Delta":371137665},{"NoteNumber":54,"Velocity":67,"Duration":400266,"SoundDuration":400266,"Delta":371137665},{"NoteNumber":57,"Velocity":67,"Duration":400266,"SoundDuration":400266,"Delta":371137665},{"NoteNumber":62,"Velocity":79,"Duration":400266,"SoundDuration":400266,"Delta":371137665},{"NoteNumber":26,"Velocity":53,"Duration":400266,"SoundDuration":400266,"Delta":371137665},{"NoteNumber":33,"Velocity":53,"Duration":400266,"SoundDuration":400266,"Delta":371137665},{"NoteNumber":38,"Velocity":63,"Duration":400266,"SoundDuration":400266,"Delta":371137665},{"NoteNumber":62,"Velocity":73,"Duration":400267,"SoundDuration":400267,"Delta":371537932},{"NoteNumber":66,"Velocity":73,"Duration":400267,"SoundDuration":400267,"Delta":371537932},{"NoteNumber":69,"Velocity":73,"Duration":400267,"SoundDuration":400267,"Delta":371537932},{"NoteNumber":74,"Velocity":86,"Duration":400267,"SoundDuration":400267,"Delta":371537932},{"NoteNumber":42,"Velocity":60,"Duration":400267,"SoundDuration":400267,"Delta":371537932},{"NoteNumber":38,"Velocity":60,"Duration":400267,"SoundDuration":400267,"Delta":371537932},{"NoteNumber":45,"Velocity":60,"Duration":400267,"SoundDuration":400267,"Delta":371537932},{"NoteNumber":50,"Velocity":71,"Duration":400267,"SoundDuration":400267,"Delta":371537932},{"NoteNumber":74,"Velocity":78,"Duration":400266,"SoundDuration":400266,"Delta":371938199},{"NoteNumber":78,"Velocity":78,"Duration":400266,"SoundDuration":400266,"Delta":371938199},{"NoteNumber":81,"Velocity":78,"Duration":400266,"SoundDuration":400266,"Delta":371938199},{"NoteNumber":86,"Velocity":92,"Duration":400266,"SoundDuration":400266,"Delta":371938199},{"NoteNumber":54,"Velocity":62,"Duration":400266,"SoundDuration":400266,"Delta":371938199},{"NoteNumber":50,"Velocity":62,"Duration":400266,"SoundDuration":400266,"Delta":371938199},{"NoteNumber":57,"Velocity":62,"Duration":400266,"SoundDuration":400266,"Delta":371938199},{"NoteNumber":62,"Velocity":74,"Duration":400266,"SoundDuration":400266,"Delta":371938199},{"NoteNumber":86,"Velocity":82,"Duration":566572,"SoundDuration":566572,"Delta":372338466},{"NoteNumber":90,"Velocity":82,"Duration":566572,"SoundDuration":566572,"Delta":372338466},{"NoteNumber":93,"Velocity":82,"Duration":566572,"SoundDuration":566572,"Delta":372338466},{"NoteNumber":98,"Velocity":97,"Duration":566572,"SoundDuration":566572,"Delta":372338466},{"NoteNumber":66,"Velocity":64,"Duration":566572,"SoundDuration":566572,"Delta":372338466},{"NoteNumber":62,"Velocity":64,"Duration":566572,"SoundDuration":566572,"Delta":372338466},{"NoteNumber":69,"Velocity":64,"Duration":566572,"SoundDuration":566572,"Delta":372338466},{"NoteNumber":74,"Velocity":77,"Duration":566572,"SoundDuration":566572,"Delta":372338466},{"NoteNumber":62,"Velocity":113,"Duration":2266287,"SoundDuration":2266287,"Delta":372905038},{"NoteNumber":26,"Velocity":81,"Duration":2266287,"SoundDuration":2266287,"Delta":372905038},{"NoteNumber":38,"Velocity":81,"Duration":2266287,"SoundDuration":2266287,"Delta":372905038},{"NoteNumber":50,"Velocity":96,"Duration":2266287,"SoundDuration":2266287,"Delta":372905038}],"license":{"name":"Creative Commons Attribution-ShareAlike 3.0 Germany","url":"http://creativecommons.org/licenses/by-sa/3.0/de/deed.en","text":"The MIDI, audio (MP3, OGG) and video files of Bernd Krueger are licensed under the cc-by-sa Germany License. This means that you can use and adapt the files, as long as you attribute the copyright holder.\n\nName: Bernd Krueger\nSource: http://www.piano-midi.de\n\nThe distribution or public playback of the files is only allowed under identical license conditions.\n\nThe scores are open source.","attribution":"MIDI files by Bernd Krueger (piano-midi.de)","attributionUrl":"http://www.piano-midi.de"}}