{"title":"Rhapsodie Nr. 10","artist":"Liszt","durationMs":278748,"midiSha256":"206f607b970742ca80a0cf8655b22029921b2fc051852395377affff8b8056a7","midiObject":[{"NoteNumber":47,"Velocity":77,"Duration":98511,"SoundDuration":98511,"Delta":0},{"NoteNumber":35,"Velocity":61,"Duration":98511,"SoundDuration":98511,"Delta":0},{"NoteNumber":47,"Velocity":92,"Duration":850402,"SoundDuration":850402,"Delta":131348},{"NoteNumber":35,"Velocity":73,"Duration":850402,"SoundDuration":850402,"Delta":131348},{"NoteNumber":49,"Velocity":48,"Duration":98220,"SoundDuration":98220,"Delta":981751},{"NoteNumber":37,"Velocity":38,"Duration":98220,"SoundDuration":98220,"Delta":981751},{"NoteNumber":51,"Velocity":50,"Duration":87507,"SoundDuration":87507,"Delta":1079971},{"NoteNumber":39,"Velocity":39,"Duration":87507,"SoundDuration":87507,"Delta":1079971},{"NoteNumber":52,"Velocity":51,"Duration":78829,"SoundDuration":78829,"Delta":1167479},{"NoteNumber":40,"Velocity":40,"Duration":78829,"SoundDuration":78829,"Delta":1167479},{"NoteNumber":54,"Velocity":52,"Duration":74739,"SoundDuration":74739,"Delta":1246308},{"NoteNumber":42,"Velocity":41,"Duration":74739,"SoundDuration":74739,"Delta":1246308},{"NoteNumber":56,"Velocity":53,"Duration":74277,"SoundDuration":74277,"Delta":1321047},{"NoteNumber":44,"Velocity":42,"Duration":74277,"SoundDuration":74277,"Delta":1321047},{"NoteNumber":57,"Velocity":54,"Duration":73620,"SoundDuration":73620,"Delta":1395325},{"NoteNumber":45,"Velocity":43,"Duration":73620,"SoundDuration":73620,"Delta":1395325},{"NoteNumber":59,"Velocity":55,"Duration":72887,"SoundDuration":72887,"Delta":1468945},{"NoteNumber":47,"Velocity":44,"Duration":72887,"SoundDuration":72887,"Delta":1468945},{"NoteNumber":61,"Velocity":56,"Duration":72167,"SoundDuration":72167,"Delta":1541832},{"NoteNumber":49,"Velocity":45,"Duration":72167,"SoundDuration":72167,"Delta":1541832},{"NoteNumber":63,"Velocity":57,"Duration":71446,"SoundDuration":71446,"Delta":1614000},{"NoteNumber":51,"Velocity":45,"Duration":71446,"SoundDuration":71446,"Delta":1614000},{"NoteNumber":64,"Velocity":58,"Duration":70763,"SoundDuration":70763,"Delta":1685446},{"NoteNumber":52,"Velocity":46,"Duration":70763,"SoundDuration":70763,"Delta":1685446},{"NoteNumber":66,"Velocity":59,"Duration":70184,"SoundDuration":70184,"Delta":1756210},{"NoteNumber":54,"Velocity":46,"Duration":70184,"SoundDuration":70184,"Delta":1756210},{"NoteNumber":68,"Velocity":61,"Duration":69557,"SoundDuration":69557,"Delta":1826395},{"NoteNumber":56,"Velocity":48,"Duration":69557,"SoundDuration":69557,"Delta":1826395},{"NoteNumber":69,"Velocity":62,"Duration":68910,"SoundDuration":68910,"Delta":1895953},{"NoteNumber":57,"Velocity":49,"Duration":68910,"SoundDuration":68910,"Delta":1895953},{"NoteNumber":71,"Velocity":63,"Duration":68267,"SoundDuration":68267,"Delta":1964864},{"NoteNumber":59,"Velocity":50,"Duration":68267,"SoundDuration":68267,"Delta":1964864},{"NoteNumber":73,"Velocity":63,"Duration":67659,"SoundDuration":67659,"Delta":2033131},{"NoteNumber":61,"Velocity":50,"Duration":67659,"SoundDuration":67659,"Delta":2033131},{"NoteNumber":75,"Velocity":64,"Duration":67009,"SoundDuration":67009,"Delta":2100791},{"NoteNumber":63,"Velocity":51,"Duration":67009,"SoundDuration":67009,"Delta":2100791},{"NoteNumber":76,"Velocity":66,"Duration":66526,"SoundDuration":66526,"Delta":2167801},{"NoteNumber":64,"Velocity":53,"Duration":66526,"SoundDuration":66526,"Delta":2167801},{"NoteNumber":78,"Velocity":67,"Duration":65926,"SoundDuration":65926,"Delta":2234328},{"NoteNumber":66,"Velocity":54,"Duration":65926,"SoundDuration":65926,"Delta":2234328},{"NoteNumber":80,"Velocity":68,"Duration":65345,"SoundDuration":65345,"Delta":2300255},{"NoteNumber":68,"Velocity":54,"Duration":65345,"SoundDuration":65345,"Delta":2300255},{"NoteNumber":81,"Velocity":69,"Duration":64767,"SoundDuration":64767,"Delta":2365601},{"NoteNumber":69,"Velocity":54,"Duration":64767,"SoundDuration":64767,"Delta":2365601},{"NoteNumber":83,"Velocity":70,"Duration":64254,"SoundDuration":64254,"Delta":2430368},{"NoteNumber":71,"Velocity":55,"Duration":64254,"SoundDuration":64254,"Delta":2430368},{"NoteNumber":85,"Velocity":72,"Duration":63627,"SoundDuration":63627,"Delta":2494622},{"NoteNumber":73,"Velocity":57,"Duration":63627,"SoundDuration":63627,"Delta":2494622},{"NoteNumber":87,"Velocity":72,"Duration":63211,"SoundDuration":63211,"Delta":2558250},{"NoteNumber":75,"Velocity":57,"Duration":63211,"SoundDuration":63211,"Delta":2558250},{"NoteNumber":88,"Velocity":73,"Duration":62669,"SoundDuration":62669,"Delta":2621462},{"NoteNumber":76,"Velocity":58,"Duration":62669,"SoundDuration":62669,"Delta":2621462},{"NoteNumber":90,"Velocity":74,"Duration":62656,"SoundDuration":62656,"Delta":2684131},{"NoteNumber":78,"Velocity":59,"Duration":62656,"SoundDuration":62656,"Delta":2684131},{"NoteNumber":92,"Velocity":75,"Duration":62656,"SoundDuration":62656,"Delta":2746788},{"NoteNumber":80,"Velocity":60,"Duration":62656,"SoundDuration":62656,"Delta":2746788},{"NoteNumber":93,"Velocity":77,"Duration":62656,"SoundDuration":62656,"Delta":2809445},{"NoteNumber":81,"Velocity":61,"Duration":62656,"SoundDuration":62656,"Delta":2809445},{"NoteNumber":95,"Velocity":98,"Duration":187969,"SoundDuration":187969,"Delta":2872101},{"NoteNumber":83,"Velocity":78,"Duration":187969,"SoundDuration":187969,"Delta":2872101},{"NoteNumber":49,"Velocity":77,"Duration":98511,"SoundDuration":98511,"Delta":4726738},{"NoteNumber":47,"Velocity":64,"Duration":98511,"SoundDuration":98511,"Delta":4726738},{"NoteNumber":40,"Velocity":61,"Duration":98511,"SoundDuration":98511,"Delta":4726738},{"NoteNumber":35,"Velocity":51,"Duration":98511,"SoundDuration":98511,"Delta":4726738},{"NoteNumber":49,"Velocity":92,"Duration":826445,"SoundDuration":826445,"Delta":4858086},{"NoteNumber":47,"Velocity":78,"Duration":826445,"SoundDuration":826445,"Delta":4858086},{"NoteNumber":40,"Velocity":73,"Duration":826445,"SoundDuration":826445,"Delta":4858086},{"NoteNumber":35,"Velocity":61,"Duration":826445,"SoundDuration":826445,"Delta":4858086},{"NoteNumber":51,"Velocity":48,"Duration":84035,"SoundDuration":84035,"Delta":5684532},{"NoteNumber":42,"Velocity":38,"Duration":84035,"SoundDuration":84035,"Delta":5684532},{"NoteNumber":52,"Velocity":50,"Duration":82106,"SoundDuration":82106,"Delta":5768568},{"NoteNumber":44,"Velocity":40,"Duration":82106,"SoundDuration":82106,"Delta":5768568},{"NoteNumber":54,"Velocity":51,"Duration":80058,"SoundDuration":80058,"Delta":5850675},{"NoteNumber":45,"Velocity":40,"Duration":80058,"SoundDuration":80058,"Delta":5850675},{"NoteNumber":56,"Velocity":52,"Duration":78099,"SoundDuration":78099,"Delta":5930733},{"NoteNumber":47,"Velocity":41,"Duration":78099,"SoundDuration":78099,"Delta":5930733},{"NoteNumber":57,"Velocity":53,"Duration":76252,"SoundDuration":76252,"Delta":6008832},{"NoteNumber":49,"Velocity":42,"Duration":76252,"SoundDuration":76252,"Delta":6008832},{"NoteNumber":59,"Velocity":54,"Duration":74473,"SoundDuration":74473,"Delta":6085085},{"NoteNumber":51,"Velocity":43,"Duration":74473,"SoundDuration":74473,"Delta":6085085},{"NoteNumber":61,"Velocity":55,"Duration":72783,"SoundDuration":72783,"Delta":6159558},{"NoteNumber":52,"Velocity":44,"Duration":72783,"SoundDuration":72783,"Delta":6159558},{"NoteNumber":63,"Velocity":56,"Duration":71168,"SoundDuration":71168,"Delta":6232342},{"NoteNumber":54,"Velocity":44,"Duration":71168,"SoundDuration":71168,"Delta":6232342},{"NoteNumber":64,"Velocity":57,"Duration":70439,"SoundDuration":70439,"Delta":6303510},{"NoteNumber":56,"Velocity":45,"Duration":70439,"SoundDuration":70439,"Delta":6303510},{"NoteNumber":66,"Velocity":58,"Duration":69930,"SoundDuration":69930,"Delta":6373950},{"NoteNumber":57,"Velocity":46,"Duration":69930,"SoundDuration":69930,"Delta":6373950},{"NoteNumber":68,"Velocity":59,"Duration":69429,"SoundDuration":69429,"Delta":6443881},{"NoteNumber":59,"Velocity":47,"Duration":69429,"SoundDuration":69429,"Delta":6443881},{"NoteNumber":69,"Velocity":61,"Duration":68776,"SoundDuration":68776,"Delta":6513310},{"NoteNumber":61,"Velocity":48,"Duration":68776,"SoundDuration":68776,"Delta":6513310},{"NoteNumber":71,"Velocity":62,"Duration":68290,"SoundDuration":68290,"Delta":6582087},{"NoteNumber":63,"Velocity":49,"Duration":68290,"SoundDuration":68290,"Delta":6582087},{"NoteNumber":73,"Velocity":63,"Duration":67804,"SoundDuration":67804,"Delta":6650378},{"NoteNumber":64,"Velocity":50,"Duration":67804,"SoundDuration":67804,"Delta":6650378},{"NoteNumber":75,"Velocity":63,"Duration":67205,"SoundDuration":67205,"Delta":6718182},{"NoteNumber":66,"Velocity":50,"Duration":67205,"SoundDuration":67205,"Delta":6718182},{"NoteNumber":76,"Velocity":64,"Duration":66704,"SoundDuration":66704,"Delta":6785387},{"NoteNumber":68,"Velocity":51,"Duration":66704,"SoundDuration":66704,"Delta":6785387},{"NoteNumber":78,"Velocity":66,"Duration":66240,"SoundDuration":66240,"Delta":6852092},{"NoteNumber":69,"Velocity":52,"Duration":66240,"SoundDuration":66240,"Delta":6852092},{"NoteNumber":80,"Velocity":67,"Duration":65790,"SoundDuration":65790,"Delta":6918332},{"NoteNumber":71,"Velocity":53,"Duration":65790,"SoundDuration":65790,"Delta":6918332},{"NoteNumber":81,"Velocity":68,"Duration":65203,"SoundDuration":65203,"Delta":6984122},{"NoteNumber":73,"Velocity":54,"Duration":65203,"SoundDuration":65203,"Delta":6984122},{"NoteNumber":83,"Velocity":69,"Duration":64767,"SoundDuration":64767,"Delta":7049326},{"NoteNumber":75,"Velocity":55,"Duration":64767,"SoundDuration":64767,"Delta":7049326},{"NoteNumber":85,"Velocity":70,"Duration":64336,"SoundDuration":64336,"Delta":7114093},{"NoteNumber":76,"Velocity":56,"Duration":64336,"SoundDuration":64336,"Delta":7114093},{"NoteNumber":87,"Velocity":72,"Duration":63810,"SoundDuration":63810,"Delta":7178430},{"NoteNumber":78,"Velocity":57,"Duration":63810,"SoundDuration":63810,"Delta":7178430},{"NoteNumber":88,"Velocity":72,"Duration":63338,"SoundDuration":63338,"Delta":7242240},{"NoteNumber":80,"Velocity":57,"Duration":63338,"SoundDuration":63338,"Delta":7242240},{"NoteNumber":90,"Velocity":73,"Duration":62926,"SoundDuration":62926,"Delta":7305579},{"NoteNumber":81,"Velocity":58,"Duration":62926,"SoundDuration":62926,"Delta":7305579},{"NoteNumber":92,"Velocity":74,"Duration":62390,"SoundDuration":62390,"Delta":7368505},{"NoteNumber":83,"Velocity":59,"Duration":62390,"SoundDuration":62390,"Delta":7368505},{"NoteNumber":93,"Velocity":75,"Duration":62266,"SoundDuration":62266,"Delta":7430895},{"NoteNumber":85,"Velocity":60,"Duration":62266,"SoundDuration":62266,"Delta":7430895},{"NoteNumber":95,"Velocity":77,"Duration":62266,"SoundDuration":62266,"Delta":7493162},{"NoteNumber":87,"Velocity":61,"Duration":62266,"SoundDuration":62266,"Delta":7493162},{"NoteNumber":97,"Velocity":98,"Duration":186799,"SoundDuration":186799,"Delta":7555428},{"NoteNumber":88,"Velocity":78,"Duration":186799,"SoundDuration":186799,"Delta":7555428},{"NoteNumber":54,"Velocity":77,"Duration":98511,"SoundDuration":98511,"Delta":9408894},{"NoteNumber":52,"Velocity":64,"Duration":98511,"SoundDuration":98511,"Delta":9408894},{"NoteNumber":45,"Velocity":61,"Duration":98511,"SoundDuration":98511,"Delta":9408894},{"NoteNumber":35,"Velocity":51,"Duration":98511,"SoundDuration":98511,"Delta":9408894},{"NoteNumber":54,"Velocity":92,"Duration":849857,"SoundDuration":849857,"Delta":9540243},{"NoteNumber":52,"Velocity":78,"Duration":849857,"SoundDuration":849857,"Delta":9540243},{"NoteNumber":45,"Velocity":73,"Duration":849857,"SoundDuration":849857,"Delta":9540243},{"NoteNumber":35,"Velocity":61,"Duration":849857,"SoundDuration":849857,"Delta":9540243},{"NoteNumber":56,"Velocity":52,"Duration":98007,"SoundDuration":98007,"Delta":10390101},{"NoteNumber":47,"Velocity":39,"Duration":98007,"SoundDuration":98007,"Delta":10390101},{"NoteNumber":57,"Velocity":53,"Duration":93826,"SoundDuration":93826,"Delta":10488109},{"NoteNumber":49,"Velocity":40,"Duration":93826,"SoundDuration":93826,"Delta":10488109},{"NoteNumber":59,"Velocity":55,"Duration":89821,"SoundDuration":89821,"Delta":10581935},{"NoteNumber":51,"Velocity":41,"Duration":89821,"SoundDuration":89821,"Delta":10581935},{"NoteNumber":61,"Velocity":56,"Duration":86210,"SoundDuration":86210,"Delta":10671757},{"NoteNumber":52,"Velocity":42,"Duration":86210,"SoundDuration":86210,"Delta":10671757},{"NoteNumber":63,"Velocity":57,"Duration":82884,"SoundDuration":82884,"Delta":10757967},{"NoteNumber":54,"Velocity":43,"Duration":82884,"SoundDuration":82884,"Delta":10757967},{"NoteNumber":64,"Velocity":59,"Duration":79756,"SoundDuration":79756,"Delta":10840852},{"NoteNumber":56,"Velocity":44,"Duration":79756,"SoundDuration":79756,"Delta":10840852},{"NoteNumber":66,"Velocity":60,"Duration":76931,"SoundDuration":76931,"Delta":10920608},{"NoteNumber":57,"Velocity":46,"Duration":76931,"SoundDuration":76931,"Delta":10920608},{"NoteNumber":68,"Velocity":61,"Duration":74191,"SoundDuration":74191,"Delta":10997540},{"NoteNumber":59,"Velocity":47,"Duration":74191,"SoundDuration":74191,"Delta":10997540},{"NoteNumber":69,"Velocity":62,"Duration":71945,"SoundDuration":71945,"Delta":11071731},{"NoteNumber":61,"Velocity":48,"Duration":71945,"SoundDuration":71945,"Delta":11071731},{"NoteNumber":71,"Velocity":64,"Duration":70722,"SoundDuration":70722,"Delta":11143677},{"NoteNumber":63,"Velocity":49,"Duration":70722,"SoundDuration":70722,"Delta":11143677},{"NoteNumber":73,"Velocity":65,"Duration":69695,"SoundDuration":69695,"Delta":11214400},{"NoteNumber":64,"Velocity":50,"Duration":69695,"SoundDuration":69695,"Delta":11214400},{"NoteNumber":75,"Velocity":66,"Duration":68549,"SoundDuration":68549,"Delta":11284096},{"NoteNumber":63,"Velocity":51,"Duration":68549,"SoundDuration":68549,"Delta":11284096},{"NoteNumber":76,"Velocity":68,"Duration":67592,"SoundDuration":67592,"Delta":11352645},{"NoteNumber":61,"Velocity":52,"Duration":67592,"SoundDuration":67592,"Delta":11352645},{"NoteNumber":78,"Velocity":69,"Duration":66543,"SoundDuration":66543,"Delta":11420238},{"NoteNumber":59,"Velocity":53,"Duration":66543,"SoundDuration":66543,"Delta":11420238},{"NoteNumber":80,"Velocity":70,"Duration":65582,"SoundDuration":65582,"Delta":11486781},{"NoteNumber":57,"Velocity":54,"Duration":65582,"SoundDuration":65582,"Delta":11486781},{"NoteNumber":81,"Velocity":72,"Duration":64705,"SoundDuration":64705,"Delta":11552364},{"NoteNumber":56,"Velocity":55,"Duration":64705,"SoundDuration":64705,"Delta":11552364},{"NoteNumber":83,"Velocity":73,"Duration":63857,"SoundDuration":63857,"Delta":11617070},{"NoteNumber":54,"Velocity":56,"Duration":63857,"SoundDuration":63857,"Delta":11617070},{"NoteNumber":85,"Velocity":74,"Duration":63856,"SoundDuration":63856,"Delta":11680927},{"NoteNumber":52,"Velocity":58,"Duration":63856,"SoundDuration":63856,"Delta":11680927},{"NoteNumber":87,"Velocity":76,"Duration":63546,"SoundDuration":63546,"Delta":11744784},{"NoteNumber":51,"Velocity":59,"Duration":63546,"SoundDuration":63546,"Delta":11744784},{"NoteNumber":88,"Velocity":77,"Duration":63451,"SoundDuration":63451,"Delta":11808330},{"NoteNumber":49,"Velocity":60,"Duration":63451,"SoundDuration":63451,"Delta":11808330},{"NoteNumber":90,"Velocity":78,"Duration":63118,"SoundDuration":63118,"Delta":11871782},{"NoteNumber":47,"Velocity":61,"Duration":63118,"SoundDuration":63118,"Delta":11871782},{"NoteNumber":92,"Velocity":80,"Duration":63051,"SoundDuration":63051,"Delta":11934900},{"NoteNumber":45,"Velocity":62,"Duration":63051,"SoundDuration":63051,"Delta":11934900},{"NoteNumber":93,"Velocity":81,"Duration":62689,"SoundDuration":62689,"Delta":11997952},{"NoteNumber":44,"Velocity":63,"Duration":62689,"SoundDuration":62689,"Delta":11997952},{"NoteNumber":95,"Velocity":82,"Duration":62656,"SoundDuration":62656,"Delta":12060642},{"NoteNumber":42,"Velocity":64,"Duration":62656,"SoundDuration":62656,"Delta":12060642},{"NoteNumber":97,"Velocity":83,"Duration":62266,"SoundDuration":62266,"Delta":12123298},{"NoteNumber":40,"Velocity":65,"Duration":62266,"SoundDuration":62266,"Delta":12123298},{"NoteNumber":99,"Velocity":85,"Duration":62266,"SoundDuration":62266,"Delta":12185565},{"NoteNumber":39,"Velocity":66,"Duration":62266,"SoundDuration":62266,"Delta":12185565},{"NoteNumber":100,"Velocity":86,"Duration":62266,"SoundDuration":62266,"Delta":12247831},{"NoteNumber":37,"Velocity":67,"Duration":62266,"SoundDuration":62266,"Delta":12247831},{"NoteNumber":102,"Velocity":98,"Duration":502537,"SoundDuration":502537,"Delta":12310098},{"NoteNumber":35,"Velocity":83,"Duration":502537,"SoundDuration":502537,"Delta":12310098},{"NoteNumber":47,"Velocity":54,"Duration":630400,"SoundDuration":630400,"Delta":13310357},{"NoteNumber":52,"Velocity":56,"Duration":607337,"SoundDuration":607337,"Delta":13333420},{"NoteNumber":54,"Velocity":57,"Duration":584274,"SoundDuration":584274,"Delta":13356483},{"NoteNumber":61,"Velocity":59,"Duration":561211,"SoundDuration":561211,"Delta":13379546},{"NoteNumber":64,"Velocity":66,"Duration":538149,"SoundDuration":538149,"Delta":13402608},{"NoteNumber":69,"Velocity":68,"Duration":515086,"SoundDuration":515086,"Delta":13425671},{"NoteNumber":73,"Velocity":70,"Duration":492023,"SoundDuration":492023,"Delta":13448734},{"NoteNumber":78,"Velocity":72,"Duration":468961,"SoundDuration":468961,"Delta":13471796},{"NoteNumber":47,"Velocity":57,"Duration":733129,"SoundDuration":733129,"Delta":13940758},{"NoteNumber":52,"Velocity":59,"Duration":708228,"SoundDuration":708228,"Delta":13965658},{"NoteNumber":54,"Velocity":61,"Duration":683328,"SoundDuration":683328,"Delta":13990558},{"NoteNumber":60,"Velocity":62,"Duration":658428,"SoundDuration":658428,"Delta":14015459},{"NoteNumber":76,"Velocity":70,"Duration":633527,"SoundDuration":633527,"Delta":14040359},{"NoteNumber":81,"Velocity":72,"Duration":608627,"SoundDuration":608627,"Delta":14065260},{"NoteNumber":84,"Velocity":73,"Duration":583727,"SoundDuration":583727,"Delta":14090160},{"NoteNumber":90,"Velocity":75,"Duration":558826,"SoundDuration":558826,"Delta":14115060},{"NoteNumber":35,"Velocity":59,"Duration":395149,"SoundDuration":395149,"Delta":14673887},{"NoteNumber":42,"Velocity":67,"Duration":342250,"SoundDuration":342250,"Delta":14726786},{"NoteNumber":71,"Velocity":76,"Duration":289351,"SoundDuration":289351,"Delta":14779685},{"NoteNumber":57,"Velocity":64,"Duration":289351,"SoundDuration":289351,"Delta":14779685},{"NoteNumber":63,"Velocity":64,"Duration":289351,"SoundDuration":289351,"Delta":14779685},{"NoteNumber":51,"Velocity":76,"Duration":289351,"SoundDuration":289351,"Delta":14779685},{"NoteNumber":47,"Velocity":66,"Duration":425290,"SoundDuration":425290,"Delta":15069037},{"NoteNumber":54,"Velocity":70,"Duration":382482,"SoundDuration":382482,"Delta":15111845},{"NoteNumber":83,"Velocity":79,"Duration":339673,"SoundDuration":339673,"Delta":15154653},{"NoteNumber":75,"Velocity":67,"Duration":339673,"SoundDuration":339673,"Delta":15154653},{"NoteNumber":69,"Velocity":67,"Duration":339673,"SoundDuration":339673,"Delta":15154653},{"NoteNumber":63,"Velocity":73,"Duration":339673,"SoundDuration":339673,"Delta":15154653},{"NoteNumber":59,"Velocity":69,"Duration":501867,"SoundDuration":501867,"Delta":15494327},{"NoteNumber":66,"Velocity":75,"Duration":449346,"SoundDuration":449346,"Delta":15546848},{"NoteNumber":95,"Velocity":95,"Duration":396825,"SoundDuration":396825,"Delta":15599369},{"NoteNumber":87,"Velocity":80,"Duration":396825,"SoundDuration":396825,"Delta":15599369},{"NoteNumber":81,"Velocity":80,"Duration":396825,"SoundDuration":396825,"Delta":15599369},{"NoteNumber":75,"Velocity":82,"Duration":396825,"SoundDuration":396825,"Delta":15599369},{"NoteNumber":71,"Velocity":77,"Duration":145348,"SoundDuration":145348,"Delta":17902608},{"NoteNumber":59,"Velocity":65,"Duration":145348,"SoundDuration":145348,"Delta":17902608},{"NoteNumber":40,"Velocity":71,"Duration":771221,"SoundDuration":771221,"Delta":17999507},{"NoteNumber":47,"Velocity":71,"Duration":722771,"SoundDuration":722771,"Delta":18047957},{"NoteNumber":71,"Velocity":77,"Duration":355976,"SoundDuration":355976,"Delta":18096406},{"NoteNumber":59,"Velocity":65,"Duration":355976,"SoundDuration":355976,"Delta":18096406},{"NoteNumber":64,"Velocity":65,"Duration":355976,"SoundDuration":355976,"Delta":18096406},{"NoteNumber":56,"Velocity":77,"Duration":355976,"SoundDuration":355976,"Delta":18096406},{"NoteNumber":73,"Velocity":61,"Duration":79617,"SoundDuration":79617,"Delta":18452383},{"NoteNumber":61,"Velocity":52,"Duration":79617,"SoundDuration":79617,"Delta":18452383},{"NoteNumber":57,"Velocity":59,"Duration":79617,"SoundDuration":79617,"Delta":18452383},{"NoteNumber":75,"Velocity":63,"Duration":79617,"SoundDuration":79617,"Delta":18611618},{"NoteNumber":63,"Velocity":53,"Duration":79617,"SoundDuration":79617,"Delta":18611618},{"NoteNumber":59,"Velocity":61,"Duration":159109,"SoundDuration":159109,"Delta":18611618},{"NoteNumber":76,"Velocity":65,"Duration":78149,"SoundDuration":78149,"Delta":18770728},{"NoteNumber":64,"Velocity":55,"Duration":78149,"SoundDuration":78149,"Delta":18770728},{"NoteNumber":61,"Velocity":62,"Duration":78149,"SoundDuration":78149,"Delta":18770728},{"NoteNumber":78,"Velocity":67,"Duration":77500,"SoundDuration":77500,"Delta":18926638},{"NoteNumber":66,"Velocity":57,"Duration":77500,"SoundDuration":77500,"Delta":18926638},{"NoteNumber":63,"Velocity":64,"Duration":77500,"SoundDuration":77500,"Delta":18926638},{"NoteNumber":80,"Velocity":69,"Duration":76855,"SoundDuration":76855,"Delta":19081299},{"NoteNumber":68,"Velocity":58,"Duration":76855,"SoundDuration":76855,"Delta":19081299},{"NoteNumber":64,"Velocity":65,"Duration":76855,"SoundDuration":76855,"Delta":19081299},{"NoteNumber":69,"Velocity":71,"Duration":76220,"SoundDuration":76220,"Delta":19234724},{"NoteNumber":81,"Velocity":71,"Duration":76220,"SoundDuration":76220,"Delta":19234724},{"NoteNumber":66,"Velocity":67,"Duration":76220,"SoundDuration":76220,"Delta":19234724},{"NoteNumber":83,"Velocity":73,"Duration":178147,"SoundDuration":178147,"Delta":19388405},{"NoteNumber":71,"Velocity":61,"Duration":178147,"SoundDuration":178147,"Delta":19388405},{"NoteNumber":68,"Velocity":68,"Duration":178147,"SoundDuration":178147,"Delta":19388405},{"NoteNumber":47,"Velocity":64,"Duration":81344,"SoundDuration":81344,"Delta":19729242},{"NoteNumber":35,"Velocity":54,"Duration":81344,"SoundDuration":81344,"Delta":19729242},{"NoteNumber":78,"Velocity":65,"Duration":78369,"SoundDuration":78369,"Delta":19888957},{"NoteNumber":81,"Velocity":65,"Duration":78369,"SoundDuration":78369,"Delta":19888957},{"NoteNumber":69,"Velocity":55,"Duration":78369,"SoundDuration":78369,"Delta":19888957},{"NoteNumber":48,"Velocity":59,"Duration":78369,"SoundDuration":78369,"Delta":19888957},{"NoteNumber":36,"Velocity":50,"Duration":78369,"SoundDuration":78369,"Delta":19888957},{"NoteNumber":80,"Velocity":71,"Duration":113122,"SoundDuration":113122,"Delta":20045697},{"NoteNumber":68,"Velocity":59,"Duration":113122,"SoundDuration":113122,"Delta":20045697},{"NoteNumber":76,"Velocity":59,"Duration":113122,"SoundDuration":113122,"Delta":20045697},{"NoteNumber":49,"Velocity":64,"Duration":113122,"SoundDuration":113122,"Delta":20045697},{"NoteNumber":37,"Velocity":54,"Duration":113122,"SoundDuration":113122,"Delta":20045697},{"NoteNumber":78,"Velocity":65,"Duration":122017,"SoundDuration":122017,"Delta":20368544},{"NoteNumber":66,"Velocity":55,"Duration":122017,"SoundDuration":122017,"Delta":20368544},{"NoteNumber":71,"Velocity":55,"Duration":122017,"SoundDuration":122017,"Delta":20368544},{"NoteNumber":51,"Velocity":61,"Duration":122017,"SoundDuration":122017,"Delta":20368544},{"NoteNumber":39,"Velocity":52,"Duration":122017,"SoundDuration":122017,"Delta":20368544},{"NoteNumber":40,"Velocity":54,"Duration":397300,"SoundDuration":397300,"Delta":20612579},{"NoteNumber":47,"Velocity":54,"Duration":356628,"SoundDuration":356628,"Delta":20653252},{"NoteNumber":71,"Velocity":73,"Duration":635340,"SoundDuration":635340,"Delta":20693924},{"NoteNumber":78,"Velocity":73,"Duration":315955,"SoundDuration":315955,"Delta":20693924},{"NoteNumber":66,"Velocity":61,"Duration":315955,"SoundDuration":315955,"Delta":20693924},{"NoteNumber":56,"Velocity":64,"Duration":315955,"SoundDuration":315955,"Delta":20693924},{"NoteNumber":76,"Velocity":66,"Duration":246710,"SoundDuration":246710,"Delta":21009880},{"NoteNumber":64,"Velocity":56,"Duration":246710,"SoundDuration":246710,"Delta":21009880},{"NoteNumber":78,"Velocity":65,"Duration":72674,"SoundDuration":72674,"Delta":21256591},{"NoteNumber":71,"Velocity":73,"Duration":128644,"SoundDuration":128644,"Delta":21329265},{"NoteNumber":76,"Velocity":73,"Duration":128644,"SoundDuration":128644,"Delta":21329265},{"NoteNumber":64,"Velocity":61,"Duration":128644,"SoundDuration":128644,"Delta":21329265},{"NoteNumber":59,"Velocity":59,"Duration":128644,"SoundDuration":128644,"Delta":21329265},{"NoteNumber":47,"Velocity":50,"Duration":128644,"SoundDuration":128644,"Delta":21329265},{"NoteNumber":54,"Velocity":50,"Duration":128644,"SoundDuration":128644,"Delta":21329265},{"NoteNumber":57,"Velocity":50,"Duration":128644,"SoundDuration":128644,"Delta":21329265},{"NoteNumber":75,"Velocity":62,"Duration":129757,"SoundDuration":129757,"Delta":21672318},{"NoteNumber":63,"Velocity":53,"Duration":129757,"SoundDuration":129757,"Delta":21672318},{"NoteNumber":76,"Velocity":68,"Duration":336323,"SoundDuration":336323,"Delta":22018339},{"NoteNumber":64,"Velocity":57,"Duration":336323,"SoundDuration":336323,"Delta":22018339},{"NoteNumber":71,"Velocity":57,"Duration":336323,"SoundDuration":336323,"Delta":22018339},{"NoteNumber":59,"Velocity":59,"Duration":336323,"SoundDuration":336323,"Delta":22018339},{"NoteNumber":52,"Velocity":50,"Duration":336323,"SoundDuration":336323,"Delta":22018339},{"NoteNumber":56,"Velocity":50,"Duration":336323,"SoundDuration":336323,"Delta":22018339},{"NoteNumber":68,"Velocity":65,"Duration":190447,"SoundDuration":190447,"Delta":23209790},{"NoteNumber":72,"Velocity":77,"Duration":190447,"SoundDuration":190447,"Delta":23209790},{"NoteNumber":60,"Velocity":65,"Duration":190447,"SoundDuration":190447,"Delta":23209790},{"NoteNumber":52,"Velocity":52,"Duration":190447,"SoundDuration":190447,"Delta":23209790},{"NoteNumber":56,"Velocity":56,"Duration":190447,"SoundDuration":190447,"Delta":23209790},{"NoteNumber":73,"Velocity":77,"Duration":346835,"SoundDuration":346835,"Delta":23400237},{"NoteNumber":61,"Velocity":65,"Duration":346835,"SoundDuration":346835,"Delta":23400237},{"NoteNumber":69,"Velocity":65,"Duration":346835,"SoundDuration":346835,"Delta":23400237},{"NoteNumber":45,"Velocity":63,"Duration":1302201,"SoundDuration":1302201,"Delta":23400237},{"NoteNumber":52,"Velocity":71,"Duration":1302201,"SoundDuration":1302201,"Delta":23400237},{"NoteNumber":57,"Velocity":77,"Duration":346835,"SoundDuration":346835,"Delta":23400237},{"NoteNumber":71,"Velocity":52,"Duration":78988,"SoundDuration":78988,"Delta":23747073},{"NoteNumber":75,"Velocity":61,"Duration":78988,"SoundDuration":78988,"Delta":23747073},{"NoteNumber":63,"Velocity":52,"Duration":78988,"SoundDuration":78988,"Delta":23747073},{"NoteNumber":59,"Velocity":59,"Duration":78988,"SoundDuration":78988,"Delta":23747073},{"NoteNumber":73,"Velocity":53,"Duration":78988,"SoundDuration":78988,"Delta":23905051},{"NoteNumber":76,"Velocity":63,"Duration":78988,"SoundDuration":78988,"Delta":23905051},{"NoteNumber":64,"Velocity":53,"Duration":78988,"SoundDuration":78988,"Delta":23905051},{"NoteNumber":61,"Velocity":61,"Duration":158235,"SoundDuration":158235,"Delta":23905051},{"NoteNumber":75,"Velocity":55,"Duration":77760,"SoundDuration":77760,"Delta":24063286},{"NoteNumber":78,"Velocity":65,"Duration":77760,"SoundDuration":77760,"Delta":24063286},{"NoteNumber":66,"Velocity":55,"Duration":77760,"SoundDuration":77760,"Delta":24063286},{"NoteNumber":63,"Velocity":62,"Duration":77760,"SoundDuration":77760,"Delta":24063286},{"NoteNumber":76,"Velocity":57,"Duration":77160,"SoundDuration":77160,"Delta":24218687},{"NoteNumber":80,"Velocity":67,"Duration":77160,"SoundDuration":77160,"Delta":24218687},{"NoteNumber":68,"Velocity":57,"Duration":77160,"SoundDuration":77160,"Delta":24218687},{"NoteNumber":64,"Velocity":64,"Duration":77160,"SoundDuration":77160,"Delta":24218687},{"NoteNumber":78,"Velocity":58,"Duration":76569,"SoundDuration":76569,"Delta":24372654},{"NoteNumber":81,"Velocity":69,"Duration":76569,"SoundDuration":76569,"Delta":24372654},{"NoteNumber":69,"Velocity":58,"Duration":76569,"SoundDuration":76569,"Delta":24372654},{"NoteNumber":66,"Velocity":65,"Duration":76569,"SoundDuration":76569,"Delta":24372654},{"NoteNumber":80,"Velocity":71,"Duration":87006,"SoundDuration":87006,"Delta":24528425},{"NoteNumber":71,"Velocity":71,"Duration":87006,"SoundDuration":87006,"Delta":24528425},{"NoteNumber":83,"Velocity":71,"Duration":87006,"SoundDuration":87006,"Delta":24528425},{"NoteNumber":68,"Velocity":67,"Duration":87006,"SoundDuration":87006,"Delta":24528425},{"NoteNumber":81,"Velocity":61,"Duration":168161,"SoundDuration":168161,"Delta":24702439},{"NoteNumber":85,"Velocity":73,"Duration":168161,"SoundDuration":168161,"Delta":24702439},{"NoteNumber":73,"Velocity":61,"Duration":168161,"SoundDuration":168161,"Delta":24702439},{"NoteNumber":69,"Velocity":68,"Duration":168161,"SoundDuration":168161,"Delta":24702439},{"NoteNumber":42,"Velocity":64,"Duration":80256,"SoundDuration":80256,"Delta":25038762},{"NoteNumber":30,"Velocity":54,"Duration":80256,"SoundDuration":80256,"Delta":25038762},{"NoteNumber":80,"Velocity":65,"Duration":80256,"SoundDuration":80256,"Delta":25199275},{"NoteNumber":83,"Velocity":65,"Duration":80256,"SoundDuration":80256,"Delta":25199275},{"NoteNumber":71,"Velocity":55,"Duration":80256,"SoundDuration":80256,"Delta":25199275},{"NoteNumber":44,"Velocity":59,"Duration":80256,"SoundDuration":80256,"Delta":25199275},{"NoteNumber":32,"Velocity":50,"Duration":80256,"SoundDuration":80256,"Delta":25199275},{"NoteNumber":81,"Velocity":71,"Duration":112275,"SoundDuration":112275,"Delta":25359789},{"NoteNumber":69,"Velocity":59,"Duration":112275,"SoundDuration":112275,"Delta":25359789},{"NoteNumber":78,"Velocity":59,"Duration":112275,"SoundDuration":112275,"Delta":25359789},{"NoteNumber":45,"Velocity":64,"Duration":112275,"SoundDuration":112275,"Delta":25359789},{"NoteNumber":33,"Velocity":54,"Duration":112275,"SoundDuration":112275,"Delta":25359789},{"NoteNumber":80,"Velocity":65,"Duration":126121,"SoundDuration":126121,"Delta":25670003},{"NoteNumber":68,"Velocity":55,"Duration":126121,"SoundDuration":126121,"Delta":25670003},{"NoteNumber":76,"Velocity":55,"Duration":126121,"SoundDuration":126121,"Delta":25670003},{"NoteNumber":46,"Velocity":61,"Duration":126121,"SoundDuration":126121,"Delta":25670003},{"NoteNumber":34,"Velocity":52,"Duration":126121,"SoundDuration":126121,"Delta":25670003},{"NoteNumber":76,"Velocity":61,"Duration":315955,"SoundDuration":315955,"Delta":26006326},{"NoteNumber":80,"Velocity":73,"Duration":315955,"SoundDuration":315955,"Delta":26006326},{"NoteNumber":68,"Velocity":61,"Duration":315955,"SoundDuration":315955,"Delta":26006326},{"NoteNumber":35,"Velocity":54,"Duration":315955,"SoundDuration":315955,"Delta":26006326},{"NoteNumber":47,"Velocity":64,"Duration":315955,"SoundDuration":315955,"Delta":26006326},{"NoteNumber":75,"Velocity":56,"Duration":248756,"SoundDuration":248756,"Delta":26322282},{"NoteNumber":78,"Velocity":66,"Duration":248756,"SoundDuration":248756,"Delta":26322282},{"NoteNumber":66,"Velocity":56,"Duration":248756,"SoundDuration":248756,"Delta":26322282},{"NoteNumber":80,"Velocity":65,"Duration":73206,"SoundDuration":73206,"Delta":26571039},{"NoteNumber":75,"Velocity":61,"Duration":127551,"SoundDuration":127551,"Delta":26644245},{"NoteNumber":78,"Velocity":73,"Duration":127551,"SoundDuration":127551,"Delta":26644245},{"NoteNumber":66,"Velocity":61,"Duration":127551,"SoundDuration":127551,"Delta":26644245},{"NoteNumber":59,"Velocity":59,"Duration":127551,"SoundDuration":127551,"Delta":26644245},{"NoteNumber":47,"Velocity":50,"Duration":127551,"SoundDuration":127551,"Delta":26644245},{"NoteNumber":56,"Velocity":50,"Duration":127551,"SoundDuration":127551,"Delta":26644245},{"NoteNumber":74,"Velocity":53,"Duration":129757,"SoundDuration":129757,"Delta":26984381},{"NoteNumber":77,"Velocity":62,"Duration":129757,"SoundDuration":129757,"Delta":26984381},{"NoteNumber":65,"Velocity":53,"Duration":129757,"SoundDuration":129757,"Delta":26984381},{"NoteNumber":78,"Velocity":68,"Duration":336323,"SoundDuration":336323,"Delta":27330402},{"NoteNumber":66,"Velocity":57,"Duration":336323,"SoundDuration":336323,"Delta":27330402},{"NoteNumber":75,"Velocity":57,"Duration":336323,"SoundDuration":336323,"Delta":27330402},{"NoteNumber":63,"Velocity":59,"Duration":336323,"SoundDuration":336323,"Delta":27330402},{"NoteNumber":47,"Velocity":50,"Duration":336323,"SoundDuration":336323,"Delta":27330402},{"NoteNumber":54,"Velocity":50,"Duration":336323,"SoundDuration":336323,"Delta":27330402},{"NoteNumber":79,"Velocity":62,"Duration":169117,"SoundDuration":169117,"Delta":28507533},{"NoteNumber":70,"Velocity":52,"Duration":169117,"SoundDuration":169117,"Delta":28507533},{"NoteNumber":67,"Velocity":52,"Duration":169117,"SoundDuration":169117,"Delta":28507533},{"NoteNumber":80,"Velocity":62,"Duration":346052,"SoundDuration":346052,"Delta":28676651},{"NoteNumber":68,"Velocity":52,"Duration":346052,"SoundDuration":346052,"Delta":28676651},{"NoteNumber":71,"Velocity":52,"Duration":346052,"SoundDuration":346052,"Delta":28676651},{"NoteNumber":52,"Velocity":49,"Duration":1301323,"SoundDuration":1301323,"Delta":28676651},{"NoteNumber":40,"Velocity":41,"Duration":1301323,"SoundDuration":1301323,"Delta":28676651},{"NoteNumber":81,"Velocity":57,"Duration":81344,"SoundDuration":81344,"Delta":29022704},{"NoteNumber":73,"Velocity":48,"Duration":81344,"SoundDuration":81344,"Delta":29022704},{"NoteNumber":69,"Velocity":48,"Duration":81344,"SoundDuration":81344,"Delta":29022704},{"NoteNumber":75,"Velocity":49,"Duration":81344,"SoundDuration":81344,"Delta":29185393},{"NoteNumber":83,"Velocity":58,"Duration":81344,"SoundDuration":81344,"Delta":29185393},{"NoteNumber":71,"Velocity":49,"Duration":81344,"SoundDuration":81344,"Delta":29185393},{"NoteNumber":85,"Velocity":60,"Duration":78988,"SoundDuration":78988,"Delta":29348083},{"NoteNumber":76,"Velocity":51,"Duration":78988,"SoundDuration":78988,"Delta":29348083},{"NoteNumber":73,"Velocity":51,"Duration":78988,"SoundDuration":78988,"Delta":29348083},{"NoteNumber":68,"Velocity":41,"Duration":629890,"SoundDuration":629890,"Delta":29348083},{"NoteNumber":56,"Velocity":34,"Duration":629890,"SoundDuration":629890,"Delta":29348083},{"NoteNumber":59,"Velocity":34,"Duration":629890,"SoundDuration":629890,"Delta":29348083},{"NoteNumber":64,"Velocity":34,"Duration":629890,"SoundDuration":629890,"Delta":29348083},{"NoteNumber":87,"Velocity":61,"Duration":78988,"SoundDuration":78988,"Delta":29506061},{"NoteNumber":78,"Velocity":51,"Duration":78988,"SoundDuration":78988,"Delta":29506061},{"NoteNumber":75,"Velocity":51,"Duration":78988,"SoundDuration":78988,"Delta":29506061},{"NoteNumber":88,"Velocity":62,"Duration":78988,"SoundDuration":78988,"Delta":29664039},{"NoteNumber":80,"Velocity":52,"Duration":78988,"SoundDuration":78988,"Delta":29664039},{"NoteNumber":76,"Velocity":52,"Duration":78988,"SoundDuration":78988,"Delta":29664039},{"NoteNumber":90,"Velocity":63,"Duration":78442,"SoundDuration":78442,"Delta":29821771},{"NoteNumber":81,"Velocity":53,"Duration":78442,"SoundDuration":78442,"Delta":29821771},{"NoteNumber":78,"Velocity":53,"Duration":78442,"SoundDuration":78442,"Delta":29821771},{"NoteNumber":92,"Velocity":65,"Duration":162337,"SoundDuration":162337,"Delta":29977974},{"NoteNumber":84,"Velocity":55,"Duration":162337,"SoundDuration":162337,"Delta":29977974},{"NoteNumber":80,"Velocity":55,"Duration":162337,"SoundDuration":162337,"Delta":29977974},{"NoteNumber":51,"Velocity":49,"Duration":1300937,"SoundDuration":1300937,"Delta":29977974},{"NoteNumber":39,"Velocity":41,"Duration":1300937,"SoundDuration":1300937,"Delta":29977974},{"NoteNumber":90,"Velocity":59,"Duration":60277,"SoundDuration":60277,"Delta":30451515},{"NoteNumber":81,"Velocity":50,"Duration":60277,"SoundDuration":60277,"Delta":30451515},{"NoteNumber":78,"Velocity":50,"Duration":60277,"SoundDuration":60277,"Delta":30451515},{"NoteNumber":90,"Velocity":53,"Duration":77760,"SoundDuration":77760,"Delta":30541931},{"NoteNumber":78,"Velocity":45,"Duration":77760,"SoundDuration":77760,"Delta":30541931},{"NoteNumber":81,"Velocity":45,"Duration":77760,"SoundDuration":77760,"Delta":30541931},{"NoteNumber":88,"Velocity":62,"Duration":164473,"SoundDuration":164473,"Delta":30619692},{"NoteNumber":76,"Velocity":52,"Duration":164473,"SoundDuration":164473,"Delta":30619692},{"NoteNumber":80,"Velocity":52,"Duration":164473,"SoundDuration":164473,"Delta":30619692},{"NoteNumber":68,"Velocity":42,"Duration":659220,"SoundDuration":659220,"Delta":30619692},{"NoteNumber":56,"Velocity":35,"Duration":659220,"SoundDuration":659220,"Delta":30619692},{"NoteNumber":60,"Velocity":35,"Duration":659220,"SoundDuration":659220,"Delta":30619692},{"NoteNumber":66,"Velocity":35,"Duration":659220,"SoundDuration":659220,"Delta":30619692},{"NoteNumber":87,"Velocity":62,"Duration":164473,"SoundDuration":164473,"Delta":30948639},{"NoteNumber":75,"Velocity":52,"Duration":164473,"SoundDuration":164473,"Delta":30948639},{"NoteNumber":78,"Velocity":52,"Duration":164473,"SoundDuration":164473,"Delta":30948639},{"NoteNumber":88,"Velocity":58,"Duration":176056,"SoundDuration":176056,"Delta":31278912},{"NoteNumber":76,"Velocity":49,"Duration":176056,"SoundDuration":176056,"Delta":31278912},{"NoteNumber":80,"Velocity":49,"Duration":176056,"SoundDuration":176056,"Delta":31278912},{"NoteNumber":49,"Velocity":49,"Duration":1281246,"SoundDuration":1281246,"Delta":31278912},{"NoteNumber":37,"Velocity":41,"Duration":1281246,"SoundDuration":1281246,"Delta":31278912},{"NoteNumber":84,"Velocity":56,"Duration":159235,"SoundDuration":159235,"Delta":31614728},{"NoteNumber":72,"Velocity":47,"Duration":159235,"SoundDuration":159235,"Delta":31614728},{"NoteNumber":75,"Velocity":47,"Duration":159235,"SoundDuration":159235,"Delta":31614728},{"NoteNumber":85,"Velocity":58,"Duration":156739,"SoundDuration":156739,"Delta":31933199},{"NoteNumber":73,"Velocity":49,"Duration":156739,"SoundDuration":156739,"Delta":31933199},{"NoteNumber":76,"Velocity":49,"Duration":156739,"SoundDuration":156739,"Delta":31933199},{"NoteNumber":68,"Velocity":43,"Duration":626958,"SoundDuration":626958,"Delta":31933199},{"NoteNumber":56,"Velocity":36,"Duration":626958,"SoundDuration":626958,"Delta":31933199},{"NoteNumber":61,"Velocity":36,"Duration":626958,"SoundDuration":626958,"Delta":31933199},{"NoteNumber":64,"Velocity":36,"Duration":626958,"SoundDuration":626958,"Delta":31933199},{"NoteNumber":87,"Velocity":60,"Duration":156739,"SoundDuration":156739,"Delta":32246679},{"NoteNumber":75,"Velocity":51,"Duration":156739,"SoundDuration":156739,"Delta":32246679},{"NoteNumber":78,"Velocity":51,"Duration":156739,"SoundDuration":156739,"Delta":32246679},{"NoteNumber":88,"Velocity":62,"Duration":156739,"SoundDuration":156739,"Delta":32560158},{"NoteNumber":76,"Velocity":52,"Duration":156739,"SoundDuration":156739,"Delta":32560158},{"NoteNumber":80,"Velocity":52,"Duration":156739,"SoundDuration":156739,"Delta":32560158},{"NoteNumber":48,"Velocity":48,"Duration":1284183,"SoundDuration":1284183,"Delta":32560158},{"NoteNumber":36,"Velocity":40,"Duration":1284183,"SoundDuration":1284183,"Delta":32560158},{"NoteNumber":90,"Velocity":63,"Duration":156739,"SoundDuration":156739,"Delta":32873638},{"NoteNumber":78,"Velocity":53,"Duration":156739,"SoundDuration":156739,"Delta":32873638},{"NoteNumber":81,"Velocity":53,"Duration":156739,"SoundDuration":156739,"Delta":32873638},{"NoteNumber":92,"Velocity":65,"Duration":164473,"SoundDuration":164473,"Delta":33187117},{"NoteNumber":80,"Velocity":55,"Duration":164473,"SoundDuration":164473,"Delta":33187117},{"NoteNumber":83,"Velocity":55,"Duration":164473,"SoundDuration":164473,"Delta":33187117},{"NoteNumber":69,"Velocity":44,"Duration":657224,"SoundDuration":657224,"Delta":33187117},{"NoteNumber":57,"Velocity":37,"Duration":657224,"SoundDuration":657224,"Delta":33187117},{"NoteNumber":60,"Velocity":37,"Duration":657224,"SoundDuration":657224,"Delta":33187117},{"NoteNumber":64,"Velocity":37,"Duration":657224,"SoundDuration":657224,"Delta":33187117},{"NoteNumber":93,"Velocity":67,"Duration":164473,"SoundDuration":164473,"Delta":33516065},{"NoteNumber":81,"Velocity":56,"Duration":164473,"SoundDuration":164473,"Delta":33516065},{"NoteNumber":84,"Velocity":56,"Duration":164473,"SoundDuration":164473,"Delta":33516065},{"NoteNumber":80,"Velocity":65,"Duration":244698,"SoundDuration":244698,"Delta":33762775},{"NoteNumber":88,"Velocity":68,"Duration":203915,"SoundDuration":203915,"Delta":33803558},{"NoteNumber":95,"Velocity":72,"Duration":163132,"SoundDuration":163132,"Delta":33844341},{"NoteNumber":47,"Velocity":49,"Duration":1268434,"SoundDuration":1268434,"Delta":33844341},{"NoteNumber":35,"Velocity":41,"Duration":1268434,"SoundDuration":1268434,"Delta":33844341},{"NoteNumber":88,"Velocity":63,"Duration":146771,"SoundDuration":146771,"Delta":34333738},{"NoteNumber":80,"Velocity":53,"Duration":146771,"SoundDuration":146771,"Delta":34333738},{"NoteNumber":76,"Velocity":53,"Duration":146771,"SoundDuration":146771,"Delta":34333738},{"NoteNumber":90,"Velocity":65,"Duration":115740,"SoundDuration":115740,"Delta":34480509},{"NoteNumber":81,"Velocity":55,"Duration":115740,"SoundDuration":115740,"Delta":34480509},{"NoteNumber":78,"Velocity":55,"Duration":115740,"SoundDuration":115740,"Delta":34480509},{"NoteNumber":71,"Velocity":43,"Duration":632266,"SoundDuration":632266,"Delta":34480509},{"NoteNumber":59,"Velocity":36,"Duration":632266,"SoundDuration":632266,"Delta":34480509},{"NoteNumber":64,"Velocity":36,"Duration":632266,"SoundDuration":632266,"Delta":34480509},{"NoteNumber":68,"Velocity":36,"Duration":632266,"SoundDuration":632266,"Delta":34480509},{"NoteNumber":92,"Velocity":68,"Duration":121359,"SoundDuration":121359,"Delta":34789151},{"NoteNumber":83,"Velocity":57,"Duration":121359,"SoundDuration":121359,"Delta":34789151},{"NoteNumber":80,"Velocity":57,"Duration":121359,"SoundDuration":121359,"Delta":34789151},{"NoteNumber":93,"Velocity":71,"Duration":161812,"SoundDuration":161812,"Delta":35112776},{"NoteNumber":85,"Velocity":60,"Duration":161812,"SoundDuration":161812,"Delta":35112776},{"NoteNumber":81,"Velocity":60,"Duration":161812,"SoundDuration":161812,"Delta":35112776},{"NoteNumber":47,"Velocity":48,"Duration":1276075,"SoundDuration":1276075,"Delta":35112776},{"NoteNumber":35,"Velocity":40,"Duration":1276075,"SoundDuration":1276075,"Delta":35112776},{"NoteNumber":83,"Velocity":63,"Duration":142585,"SoundDuration":142585,"Delta":35598212},{"NoteNumber":75,"Velocity":53,"Duration":142585,"SoundDuration":142585,"Delta":35598212},{"NoteNumber":71,"Velocity":53,"Duration":142585,"SoundDuration":142585,"Delta":35598212},{"NoteNumber":85,"Velocity":65,"Duration":116640,"SoundDuration":116640,"Delta":35740798},{"NoteNumber":76,"Velocity":55,"Duration":116640,"SoundDuration":116640,"Delta":35740798},{"NoteNumber":73,"Velocity":55,"Duration":116640,"SoundDuration":116640,"Delta":35740798},{"NoteNumber":69,"Velocity":44,"Duration":648053,"SoundDuration":648053,"Delta":35740798},{"NoteNumber":59,"Velocity":37,"Duration":648053,"SoundDuration":648053,"Delta":35740798},{"NoteNumber":66,"Velocity":37,"Duration":648053,"SoundDuration":648053,"Delta":35740798},{"NoteNumber":87,"Velocity":68,"Duration":129757,"SoundDuration":129757,"Delta":36051840},{"NoteNumber":78,"Velocity":57,"Duration":129757,"SoundDuration":129757,"Delta":36051840},{"NoteNumber":75,"Velocity":57,"Duration":129757,"SoundDuration":129757,"Delta":36051840},{"NoteNumber":90,"Velocity":73,"Duration":320512,"SoundDuration":320512,"Delta":36388851},{"NoteNumber":81,"Velocity":62,"Duration":320512,"SoundDuration":320512,"Delta":36388851},{"NoteNumber":78,"Velocity":62,"Duration":320512,"SoundDuration":320512,"Delta":36388851},{"NoteNumber":52,"Velocity":45,"Duration":160256,"SoundDuration":160256,"Delta":36388851},{"NoteNumber":88,"Velocity":66,"Duration":246710,"SoundDuration":246710,"Delta":36709364},{"NoteNumber":80,"Velocity":56,"Duration":246710,"SoundDuration":246710,"Delta":36709364},{"NoteNumber":76,"Velocity":56,"Duration":246710,"SoundDuration":246710,"Delta":36709364},{"NoteNumber":68,"Velocity":39,"Duration":164473,"SoundDuration":164473,"Delta":36709364},{"NoteNumber":64,"Velocity":33,"Duration":164473,"SoundDuration":164473,"Delta":36709364},{"NoteNumber":59,"Velocity":33,"Duration":164473,"SoundDuration":164473,"Delta":36709364},{"NoteNumber":90,"Velocity":60,"Duration":82236,"SoundDuration":82236,"Delta":36956075},{"NoteNumber":78,"Velocity":51,"Duration":82236,"SoundDuration":82236,"Delta":36956075},{"NoteNumber":81,"Velocity":51,"Duration":82236,"SoundDuration":82236,"Delta":36956075},{"NoteNumber":88,"Velocity":67,"Duration":121359,"SoundDuration":121359,"Delta":37038311},{"NoteNumber":80,"Velocity":56,"Duration":121359,"SoundDuration":121359,"Delta":37038311},{"NoteNumber":76,"Velocity":56,"Duration":121359,"SoundDuration":121359,"Delta":37038311},{"NoteNumber":47,"Velocity":46,"Duration":121359,"SoundDuration":121359,"Delta":37038311},{"NoteNumber":87,"Velocity":62,"Duration":130890,"SoundDuration":130890,"Delta":37361936},{"NoteNumber":78,"Velocity":52,"Duration":130890,"SoundDuration":130890,"Delta":37361936},{"NoteNumber":75,"Velocity":52,"Duration":130890,"SoundDuration":130890,"Delta":37361936},{"NoteNumber":71,"Velocity":40,"Duration":130890,"SoundDuration":130890,"Delta":37361936},{"NoteNumber":66,"Velocity":34,"Duration":130890,"SoundDuration":130890,"Delta":37361936},{"NoteNumber":57,"Velocity":34,"Duration":130890,"SoundDuration":130890,"Delta":37361936},{"NoteNumber":88,"Velocity":66,"Duration":320512,"SoundDuration":320512,"Delta":37710976},{"NoteNumber":76,"Velocity":56,"Duration":320512,"SoundDuration":320512,"Delta":37710976},{"NoteNumber":80,"Velocity":56,"Duration":320512,"SoundDuration":320512,"Delta":37710976},{"NoteNumber":40,"Velocity":47,"Duration":320512,"SoundDuration":320512,"Delta":37710976},{"NoteNumber":56,"Velocity":49,"Duration":317223,"SoundDuration":317223,"Delta":38195963},{"NoteNumber":64,"Velocity":52,"Duration":234986,"SoundDuration":234986,"Delta":38278200},{"NoteNumber":71,"Velocity":55,"Duration":152749,"SoundDuration":152749,"Delta":38360436},{"NoteNumber":59,"Velocity":80,"Duration":130510,"SoundDuration":130510,"Delta":38818685},{"NoteNumber":56,"Velocity":80,"Duration":130510,"SoundDuration":130510,"Delta":38818685},{"NoteNumber":40,"Velocity":67,"Duration":130510,"SoundDuration":130510,"Delta":38818685},{"NoteNumber":47,"Velocity":67,"Duration":130510,"SoundDuration":130510,"Delta":38818685},{"NoteNumber":59,"Velocity":86,"Duration":348897,"SoundDuration":348897,"Delta":38992699},{"NoteNumber":56,"Velocity":72,"Duration":348897,"SoundDuration":348897,"Delta":38992699},{"NoteNumber":47,"Velocity":71,"Duration":348897,"SoundDuration":348897,"Delta":38992699},{"NoteNumber":40,"Velocity":71,"Duration":348897,"SoundDuration":348897,"Delta":38992699},{"NoteNumber":61,"Velocity":73,"Duration":158198,"SoundDuration":158198,"Delta":39341596},{"NoteNumber":57,"Velocity":61,"Duration":158198,"SoundDuration":158198,"Delta":39341596},{"NoteNumber":63,"Velocity":76,"Duration":77760,"SoundDuration":77760,"Delta":39499795},{"NoteNumber":59,"Velocity":65,"Duration":77760,"SoundDuration":77760,"Delta":39499795},{"NoteNumber":64,"Velocity":79,"Duration":76569,"SoundDuration":76569,"Delta":39655077},{"NoteNumber":61,"Velocity":67,"Duration":76569,"SoundDuration":76569,"Delta":39655077},{"NoteNumber":66,"Velocity":79,"Duration":75433,"SoundDuration":75433,"Delta":39807683},{"NoteNumber":63,"Velocity":67,"Duration":75433,"SoundDuration":75433,"Delta":39807683},{"NoteNumber":68,"Velocity":82,"Duration":74451,"SoundDuration":74451,"Delta":39958146},{"NoteNumber":64,"Velocity":70,"Duration":74451,"SoundDuration":74451,"Delta":39958146},{"NoteNumber":69,"Velocity":86,"Duration":82236,"SoundDuration":82236,"Delta":40108595},{"NoteNumber":66,"Velocity":72,"Duration":82236,"SoundDuration":82236,"Delta":40108595},{"NoteNumber":71,"Velocity":89,"Duration":178147,"SoundDuration":178147,"Delta":40273068},{"NoteNumber":68,"Velocity":75,"Duration":178147,"SoundDuration":178147,"Delta":40273068},{"NoteNumber":73,"Velocity":66,"Duration":81344,"SoundDuration":81344,"Delta":40451216},{"NoteNumber":75,"Velocity":66,"Duration":81344,"SoundDuration":81344,"Delta":40532561},{"NoteNumber":76,"Velocity":67,"Duration":77760,"SoundDuration":77760,"Delta":40613905},{"NoteNumber":78,"Velocity":68,"Duration":77760,"SoundDuration":77760,"Delta":40691666},{"NoteNumber":80,"Velocity":69,"Duration":77760,"SoundDuration":77760,"Delta":40769426},{"NoteNumber":69,"Velocity":79,"Duration":77760,"SoundDuration":77760,"Delta":40769426},{"NoteNumber":66,"Velocity":67,"Duration":77760,"SoundDuration":77760,"Delta":40769426},{"NoteNumber":81,"Velocity":69,"Duration":77760,"SoundDuration":77760,"Delta":40847187},{"NoteNumber":83,"Velocity":70,"Duration":77760,"SoundDuration":77760,"Delta":40924947},{"NoteNumber":68,"Velocity":86,"Duration":155521,"SoundDuration":155521,"Delta":40924947},{"NoteNumber":64,"Velocity":72,"Duration":155521,"SoundDuration":155521,"Delta":40924947},{"NoteNumber":85,"Velocity":71,"Duration":77760,"SoundDuration":77760,"Delta":41002708},{"NoteNumber":87,"Velocity":72,"Duration":86009,"SoundDuration":86009,"Delta":41080468},{"NoteNumber":88,"Velocity":72,"Duration":86009,"SoundDuration":86009,"Delta":41166478},{"NoteNumber":90,"Velocity":73,"Duration":78988,"SoundDuration":78988,"Delta":41252487},{"NoteNumber":66,"Velocity":74,"Duration":157977,"SoundDuration":157977,"Delta":41252487},{"NoteNumber":59,"Velocity":63,"Duration":157977,"SoundDuration":157977,"Delta":41252487},{"NoteNumber":92,"Velocity":74,"Duration":78988,"SoundDuration":78988,"Delta":41331476},{"NoteNumber":93,"Velocity":75,"Duration":78988,"SoundDuration":78988,"Delta":41410465},{"NoteNumber":94,"Velocity":75,"Duration":78988,"SoundDuration":78988,"Delta":41489454},{"NoteNumber":95,"Velocity":75,"Duration":79617,"SoundDuration":79617,"Delta":41568443},{"NoteNumber":66,"Velocity":82,"Duration":318471,"SoundDuration":318471,"Delta":41568443},{"NoteNumber":59,"Velocity":70,"Duration":318471,"SoundDuration":318471,"Delta":41568443},{"NoteNumber":97,"Velocity":69,"Duration":79617,"SoundDuration":79617,"Delta":41648061},{"NoteNumber":95,"Velocity":72,"Duration":79617,"SoundDuration":79617,"Delta":41727678},{"NoteNumber":97,"Velocity":69,"Duration":159235,"SoundDuration":159235,"Delta":41807296},{"NoteNumber":95,"Velocity":72,"Duration":79617,"SoundDuration":79617,"Delta":41886914},{"NoteNumber":64,"Velocity":76,"Duration":238853,"SoundDuration":238853,"Delta":41886914},{"NoteNumber":56,"Velocity":65,"Duration":238853,"SoundDuration":238853,"Delta":41886914},{"NoteNumber":97,"Velocity":68,"Duration":79617,"SoundDuration":79617,"Delta":41966532},{"NoteNumber":95,"Velocity":72,"Duration":79617,"SoundDuration":79617,"Delta":42046150},{"NoteNumber":97,"Velocity":69,"Duration":79617,"SoundDuration":79617,"Delta":42125768},{"NoteNumber":66,"Velocity":75,"Duration":79617,"SoundDuration":79617,"Delta":42125768},{"NoteNumber":95,"Velocity":72,"Duration":83148,"SoundDuration":83148,"Delta":42205386},{"NoteNumber":64,"Velocity":85,"Duration":166297,"SoundDuration":166297,"Delta":42205386},{"NoteNumber":56,"Velocity":71,"Duration":166297,"SoundDuration":166297,"Delta":42205386},{"NoteNumber":97,"Velocity":70,"Duration":83148,"SoundDuration":83148,"Delta":42288534},{"NoteNumber":95,"Velocity":72,"Duration":83148,"SoundDuration":83148,"Delta":42371683},{"NoteNumber":97,"Velocity":70,"Duration":166067,"SoundDuration":166067,"Delta":42454831},{"NoteNumber":95,"Velocity":72,"Duration":110558,"SoundDuration":110558,"Delta":42537980},{"NoteNumber":63,"Velocity":73,"Duration":165837,"SoundDuration":165837,"Delta":42537980},{"NoteNumber":54,"Velocity":61,"Duration":165837,"SoundDuration":165837,"Delta":42537980},{"NoteNumber":94,"Velocity":70,"Duration":110558,"SoundDuration":110558,"Delta":42648538},{"NoteNumber":95,"Velocity":71,"Duration":110558,"SoundDuration":110558,"Delta":42759096},{"NoteNumber":88,"Velocity":73,"Duration":195801,"SoundDuration":195801,"Delta":42842015},{"NoteNumber":92,"Velocity":76,"Duration":181981,"SoundDuration":181981,"Delta":42855835},{"NoteNumber":100,"Velocity":80,"Duration":168161,"SoundDuration":168161,"Delta":42869655},{"NoteNumber":64,"Velocity":77,"Duration":336323,"SoundDuration":336323,"Delta":42869655},{"NoteNumber":56,"Velocity":65,"Duration":336323,"SoundDuration":336323,"Delta":42869655},{"NoteNumber":60,"Velocity":80,"Duration":174013,"SoundDuration":174013,"Delta":44046785},{"NoteNumber":56,"Velocity":80,"Duration":174013,"SoundDuration":174013,"Delta":44046785},{"NoteNumber":52,"Velocity":67,"Duration":130510,"SoundDuration":130510,"Delta":44046785},{"NoteNumber":61,"Velocity":86,"Duration":348897,"SoundDuration":348897,"Delta":44220799},{"NoteNumber":57,"Velocity":72,"Duration":348897,"SoundDuration":348897,"Delta":44220799},{"NoteNumber":52,"Velocity":71,"Duration":348897,"SoundDuration":348897,"Delta":44220799},{"NoteNumber":45,"Velocity":71,"Duration":348897,"SoundDuration":348897,"Delta":44220799},{"NoteNumber":63,"Velocity":73,"Duration":160513,"SoundDuration":160513,"Delta":44569696},{"NoteNumber":59,"Velocity":61,"Duration":160513,"SoundDuration":160513,"Delta":44569696},{"NoteNumber":64,"Velocity":76,"Duration":80256,"SoundDuration":80256,"Delta":44730210},{"NoteNumber":61,"Velocity":65,"Duration":80256,"SoundDuration":80256,"Delta":44730210},{"NoteNumber":66,"Velocity":79,"Duration":77620,"SoundDuration":77620,"Delta":44890253},{"NoteNumber":63,"Velocity":67,"Duration":77620,"SoundDuration":77620,"Delta":44890253},{"NoteNumber":68,"Velocity":79,"Duration":76201,"SoundDuration":76201,"Delta":45044867},{"NoteNumber":64,"Velocity":67,"Duration":76201,"SoundDuration":76201,"Delta":45044867},{"NoteNumber":69,"Velocity":82,"Duration":74963,"SoundDuration":74963,"Delta":45196664},{"NoteNumber":66,"Velocity":70,"Duration":74963,"SoundDuration":74963,"Delta":45196664},{"NoteNumber":71,"Velocity":86,"Duration":82236,"SoundDuration":82236,"Delta":45348007},{"NoteNumber":68,"Velocity":72,"Duration":82236,"SoundDuration":82236,"Delta":45348007},{"NoteNumber":73,"Velocity":89,"Duration":178147,"SoundDuration":178147,"Delta":45512481},{"NoteNumber":69,"Velocity":75,"Duration":178147,"SoundDuration":178147,"Delta":45512481},{"NoteNumber":75,"Velocity":66,"Duration":78369,"SoundDuration":78369,"Delta":45690628},{"NoteNumber":76,"Velocity":66,"Duration":78369,"SoundDuration":78369,"Delta":45768998},{"NoteNumber":78,"Velocity":67,"Duration":78369,"SoundDuration":78369,"Delta":45847368},{"NoteNumber":80,"Velocity":68,"Duration":78369,"SoundDuration":78369,"Delta":45925738},{"NoteNumber":81,"Velocity":69,"Duration":78369,"SoundDuration":78369,"Delta":46004107},{"NoteNumber":71,"Velocity":79,"Duration":78369,"SoundDuration":78369,"Delta":46004107},{"NoteNumber":68,"Velocity":67,"Duration":78369,"SoundDuration":78369,"Delta":46004107},{"NoteNumber":83,"Velocity":69,"Duration":78369,"SoundDuration":78369,"Delta":46082477},{"NoteNumber":85,"Velocity":70,"Duration":78369,"SoundDuration":78369,"Delta":46160847},{"NoteNumber":57,"Velocity":72,"Duration":156739,"SoundDuration":156739,"Delta":46160847},{"NoteNumber":69,"Velocity":86,"Duration":156739,"SoundDuration":156739,"Delta":46160847},{"NoteNumber":66,"Velocity":72,"Duration":156739,"SoundDuration":156739,"Delta":46160847},{"NoteNumber":87,"Velocity":71,"Duration":78369,"SoundDuration":78369,"Delta":46239217},{"NoteNumber":88,"Velocity":72,"Duration":86009,"SoundDuration":86009,"Delta":46317587},{"NoteNumber":90,"Velocity":72,"Duration":86009,"SoundDuration":86009,"Delta":46403596},{"NoteNumber":92,"Velocity":73,"Duration":78988,"SoundDuration":78988,"Delta":46489605},{"NoteNumber":58,"Velocity":63,"Duration":157977,"SoundDuration":157977,"Delta":46489605},{"NoteNumber":68,"Velocity":74,"Duration":157977,"SoundDuration":157977,"Delta":46489605},{"NoteNumber":64,"Velocity":63,"Duration":157977,"SoundDuration":157977,"Delta":46489605},{"NoteNumber":94,"Velocity":74,"Duration":78988,"SoundDuration":78988,"Delta":46568594},{"NoteNumber":95,"Velocity":75,"Duration":78988,"SoundDuration":78988,"Delta":46647583},{"NoteNumber":96,"Velocity":75,"Duration":78988,"SoundDuration":78988,"Delta":46726572},{"NoteNumber":97,"Velocity":75,"Duration":78988,"SoundDuration":78988,"Delta":46805561},{"NoteNumber":59,"Velocity":70,"Duration":315955,"SoundDuration":315955,"Delta":46805561},{"NoteNumber":68,"Velocity":82,"Duration":315955,"SoundDuration":315955,"Delta":46805561},{"NoteNumber":64,"Velocity":70,"Duration":315955,"SoundDuration":315955,"Delta":46805561},{"NoteNumber":99,"Velocity":69,"Duration":78988,"SoundDuration":78988,"Delta":46884550},{"NoteNumber":97,"Velocity":72,"Duration":78988,"SoundDuration":78988,"Delta":46963539},{"NoteNumber":99,"Velocity":69,"Duration":157977,"SoundDuration":157977,"Delta":47042528},{"NoteNumber":97,"Velocity":72,"Duration":78988,"SoundDuration":78988,"Delta":47121517},{"NoteNumber":66,"Velocity":76,"Duration":236966,"SoundDuration":236966,"Delta":47121517},{"NoteNumber":63,"Velocity":65,"Duration":236966,"SoundDuration":236966,"Delta":47121517},{"NoteNumber":99,"Velocity":68,"Duration":78988,"SoundDuration":78988,"Delta":47200506},{"NoteNumber":97,"Velocity":72,"Duration":78988,"SoundDuration":78988,"Delta":47279495},{"NoteNumber":99,"Velocity":69,"Duration":78988,"SoundDuration":78988,"Delta":47358484},{"NoteNumber":64,"Velocity":75,"Duration":78988,"SoundDuration":78988,"Delta":47358484},{"NoteNumber":68,"Velocity":75,"Duration":78988,"SoundDuration":78988,"Delta":47358484},{"NoteNumber":97,"Velocity":72,"Duration":80256,"SoundDuration":80256,"Delta":47437473},{"NoteNumber":66,"Velocity":85,"Duration":160513,"SoundDuration":160513,"Delta":47437473},{"NoteNumber":63,"Velocity":71,"Duration":160513,"SoundDuration":160513,"Delta":47437473},{"NoteNumber":99,"Velocity":70,"Duration":80256,"SoundDuration":80256,"Delta":47517730},{"NoteNumber":97,"Velocity":72,"Duration":80256,"SoundDuration":80256,"Delta":47597987},{"NoteNumber":99,"Velocity":70,"Duration":80256,"SoundDuration":80256,"Delta":47678244},{"NoteNumber":97,"Velocity":72,"Duration":88028,"SoundDuration":88028,"Delta":47758501},{"NoteNumber":65,"Velocity":73,"Duration":176056,"SoundDuration":176056,"Delta":47758501},{"NoteNumber":62,"Velocity":61,"Duration":176056,"SoundDuration":176056,"Delta":47758501},{"NoteNumber":96,"Velocity":70,"Duration":88028,"SoundDuration":88028,"Delta":47846529},{"NoteNumber":97,"Velocity":70,"Duration":88028,"SoundDuration":88028,"Delta":47934557},{"NoteNumber":102,"Velocity":71,"Duration":88028,"SoundDuration":88028,"Delta":48022585},{"NoteNumber":95,"Velocity":80,"Duration":168161,"SoundDuration":168161,"Delta":48110613},{"NoteNumber":90,"Velocity":73,"Duration":196188,"SoundDuration":196188,"Delta":48110613},{"NoteNumber":66,"Velocity":77,"Duration":336323,"SoundDuration":336323,"Delta":48110613},{"NoteNumber":63,"Velocity":65,"Duration":336323,"SoundDuration":336323,"Delta":48110613},{"NoteNumber":79,"Velocity":60,"Duration":169117,"SoundDuration":169117,"Delta":49287744},{"NoteNumber":70,"Velocity":46,"Duration":169117,"SoundDuration":169117,"Delta":49287744},{"NoteNumber":80,"Velocity":60,"Duration":346052,"SoundDuration":346052,"Delta":49456862},{"NoteNumber":71,"Velocity":46,"Duration":346052,"SoundDuration":346052,"Delta":49456862},{"NoteNumber":52,"Velocity":44,"Duration":671432,"SoundDuration":671432,"Delta":49456862},{"NoteNumber":40,"Velocity":36,"Duration":671432,"SoundDuration":671432,"Delta":49456862},{"NoteNumber":81,"Velocity":56,"Duration":162689,"SoundDuration":162689,"Delta":49802915},{"NoteNumber":73,"Velocity":43,"Duration":162689,"SoundDuration":162689,"Delta":49802915},{"NoteNumber":75,"Velocity":44,"Duration":162689,"SoundDuration":162689,"Delta":49965604},{"NoteNumber":83,"Velocity":57,"Duration":162689,"SoundDuration":162689,"Delta":49965604},{"NoteNumber":56,"Velocity":28,"Duration":162689,"SoundDuration":162689,"Delta":49965604},{"NoteNumber":64,"Velocity":34,"Duration":162689,"SoundDuration":162689,"Delta":49965604},{"NoteNumber":85,"Velocity":59,"Duration":162689,"SoundDuration":162689,"Delta":50128294},{"NoteNumber":76,"Velocity":45,"Duration":162689,"SoundDuration":162689,"Delta":50128294},{"NoteNumber":68,"Velocity":36,"Duration":162689,"SoundDuration":162689,"Delta":50128294},{"NoteNumber":59,"Velocity":30,"Duration":162689,"SoundDuration":162689,"Delta":50128294},{"NoteNumber":87,"Velocity":59,"Duration":162689,"SoundDuration":162689,"Delta":50290984},{"NoteNumber":78,"Velocity":45,"Duration":162689,"SoundDuration":162689,"Delta":50290984},{"NoteNumber":88,"Velocity":60,"Duration":162654,"SoundDuration":162654,"Delta":50453674},{"NoteNumber":80,"Velocity":46,"Duration":162654,"SoundDuration":162654,"Delta":50453674},{"NoteNumber":90,"Velocity":61,"Duration":162337,"SoundDuration":162337,"Delta":50616328},{"NoteNumber":81,"Velocity":47,"Duration":162337,"SoundDuration":162337,"Delta":50616328},{"NoteNumber":92,"Velocity":63,"Duration":162337,"SoundDuration":162337,"Delta":50778666},{"NoteNumber":84,"Velocity":49,"Duration":162337,"SoundDuration":162337,"Delta":50778666},{"NoteNumber":51,"Velocity":44,"Duration":629142,"SoundDuration":629142,"Delta":50778666},{"NoteNumber":39,"Velocity":36,"Duration":629142,"SoundDuration":629142,"Delta":50778666},{"NoteNumber":81,"Velocity":47,"Duration":233402,"SoundDuration":233402,"Delta":50941004},{"NoteNumber":90,"Velocity":47,"Duration":77800,"SoundDuration":77800,"Delta":50941004},{"NoteNumber":92,"Velocity":47,"Duration":77800,"SoundDuration":77800,"Delta":51018804},{"NoteNumber":90,"Velocity":53,"Duration":77800,"SoundDuration":77800,"Delta":51096605},{"NoteNumber":80,"Velocity":52,"Duration":235858,"SoundDuration":235858,"Delta":51252207},{"NoteNumber":88,"Velocity":57,"Duration":77800,"SoundDuration":77800,"Delta":51252207},{"NoteNumber":56,"Velocity":28,"Duration":155601,"SoundDuration":155601,"Delta":51252207},{"NoteNumber":66,"Velocity":34,"Duration":155601,"SoundDuration":155601,"Delta":51252207},{"NoteNumber":90,"Velocity":52,"Duration":77800,"SoundDuration":77800,"Delta":51330008},{"NoteNumber":88,"Velocity":55,"Duration":160513,"SoundDuration":160513,"Delta":51407809},{"NoteNumber":68,"Velocity":37,"Duration":160513,"SoundDuration":160513,"Delta":51407809},{"NoteNumber":60,"Velocity":31,"Duration":160513,"SoundDuration":160513,"Delta":51407809},{"NoteNumber":78,"Velocity":51,"Duration":240770,"SoundDuration":240770,"Delta":51568323},{"NoteNumber":87,"Velocity":56,"Duration":80256,"SoundDuration":80256,"Delta":51568323},{"NoteNumber":86,"Velocity":51,"Duration":80256,"SoundDuration":80256,"Delta":51648579},{"NoteNumber":87,"Velocity":60,"Duration":160513,"SoundDuration":160513,"Delta":51728836},{"NoteNumber":80,"Velocity":49,"Duration":250263,"SoundDuration":250263,"Delta":51889350},{"NoteNumber":87,"Velocity":49,"Duration":80256,"SoundDuration":80256,"Delta":51889350},{"NoteNumber":88,"Velocity":49,"Duration":81977,"SoundDuration":81977,"Delta":51969607},{"NoteNumber":88,"Velocity":57,"Duration":176056,"SoundDuration":176056,"Delta":52051585},{"NoteNumber":49,"Velocity":44,"Duration":669477,"SoundDuration":669477,"Delta":52051585},{"NoteNumber":37,"Velocity":36,"Duration":669477,"SoundDuration":669477,"Delta":52051585},{"NoteNumber":75,"Velocity":47,"Duration":246710,"SoundDuration":246710,"Delta":52227641},{"NoteNumber":84,"Velocity":47,"Duration":82236,"SoundDuration":82236,"Delta":52227641},{"NoteNumber":83,"Velocity":47,"Duration":82236,"SoundDuration":82236,"Delta":52309878},{"NoteNumber":84,"Velocity":55,"Duration":164473,"SoundDuration":164473,"Delta":52392115},{"NoteNumber":76,"Velocity":48,"Duration":244945,"SoundDuration":244945,"Delta":52556589},{"NoteNumber":85,"Velocity":48,"Duration":82236,"SoundDuration":82236,"Delta":52556589},{"NoteNumber":56,"Velocity":28,"Duration":164473,"SoundDuration":164473,"Delta":52556589},{"NoteNumber":64,"Velocity":34,"Duration":164473,"SoundDuration":164473,"Delta":52556589},{"NoteNumber":84,"Velocity":48,"Duration":82236,"SoundDuration":82236,"Delta":52638826},{"NoteNumber":85,"Velocity":57,"Duration":160944,"SoundDuration":160944,"Delta":52721062},{"NoteNumber":68,"Velocity":38,"Duration":160944,"SoundDuration":160944,"Delta":52721062},{"NoteNumber":61,"Velocity":32,"Duration":160944,"SoundDuration":160944,"Delta":52721062},{"NoteNumber":78,"Velocity":51,"Duration":241416,"SoundDuration":241416,"Delta":52882007},{"NoteNumber":87,"Velocity":51,"Duration":80472,"SoundDuration":80472,"Delta":52882007},{"NoteNumber":85,"Velocity":51,"Duration":80472,"SoundDuration":80472,"Delta":52962479},{"NoteNumber":87,"Velocity":59,"Duration":160944,"SoundDuration":160944,"Delta":53042951},{"NoteNumber":80,"Velocity":50,"Duration":241416,"SoundDuration":241416,"Delta":53203895},{"NoteNumber":88,"Velocity":50,"Duration":80472,"SoundDuration":80472,"Delta":53203895},{"NoteNumber":87,"Velocity":50,"Duration":80472,"SoundDuration":80472,"Delta":53284367},{"NoteNumber":88,"Velocity":60,"Duration":160944,"SoundDuration":160944,"Delta":53364839},{"NoteNumber":48,"Velocity":43,"Duration":643777,"SoundDuration":643777,"Delta":53364839},{"NoteNumber":36,"Velocity":36,"Duration":643777,"SoundDuration":643777,"Delta":53364839},{"NoteNumber":81,"Velocity":53,"Duration":241416,"SoundDuration":241416,"Delta":53525784},{"NoteNumber":90,"Velocity":53,"Duration":80472,"SoundDuration":80472,"Delta":53525784},{"NoteNumber":88,"Velocity":53,"Duration":80472,"SoundDuration":80472,"Delta":53606256},{"NoteNumber":90,"Velocity":61,"Duration":160944,"SoundDuration":160944,"Delta":53686728},{"NoteNumber":83,"Velocity":53,"Duration":243181,"SoundDuration":243181,"Delta":53847672},{"NoteNumber":92,"Velocity":53,"Duration":80472,"SoundDuration":80472,"Delta":53847672},{"NoteNumber":57,"Velocity":28,"Duration":160944,"SoundDuration":160944,"Delta":53847672},{"NoteNumber":64,"Velocity":34,"Duration":160944,"SoundDuration":160944,"Delta":53847672},{"NoteNumber":90,"Velocity":53,"Duration":80472,"SoundDuration":80472,"Delta":53928144},{"NoteNumber":92,"Velocity":63,"Duration":164473,"SoundDuration":164473,"Delta":54008616},{"NoteNumber":69,"Velocity":39,"Duration":164473,"SoundDuration":164473,"Delta":54008616},{"NoteNumber":60,"Velocity":33,"Duration":164473,"SoundDuration":164473,"Delta":54008616},{"NoteNumber":84,"Velocity":52,"Duration":246710,"SoundDuration":246710,"Delta":54173090},{"NoteNumber":93,"Velocity":57,"Duration":82236,"SoundDuration":82236,"Delta":54173090},{"NoteNumber":92,"Velocity":52,"Duration":82236,"SoundDuration":82236,"Delta":54255327},{"NoteNumber":93,"Velocity":60,"Duration":164473,"SoundDuration":164473,"Delta":54337564},{"NoteNumber":80,"Velocity":58,"Duration":381790,"SoundDuration":381790,"Delta":54584275},{"NoteNumber":88,"Velocity":61,"Duration":340671,"SoundDuration":340671,"Delta":54625393},{"NoteNumber":95,"Velocity":70,"Duration":299553,"SoundDuration":299553,"Delta":54666511},{"NoteNumber":47,"Velocity":44,"Duration":299553,"SoundDuration":299553,"Delta":54666511},{"NoteNumber":35,"Velocity":36,"Duration":299553,"SoundDuration":299553,"Delta":54666511},{"NoteNumber":70,"Velocity":41,"Duration":57226,"SoundDuration":57226,"Delta":54908838},{"NoteNumber":71,"Velocity":41,"Duration":55271,"SoundDuration":55271,"Delta":54966065},{"NoteNumber":73,"Velocity":42,"Duration":53174,"SoundDuration":53174,"Delta":55021336},{"NoteNumber":75,"Velocity":43,"Duration":51200,"SoundDuration":51200,"Delta":55074510},{"NoteNumber":76,"Velocity":44,"Duration":49368,"SoundDuration":49368,"Delta":55125711},{"NoteNumber":78,"Velocity":45,"Duration":73385,"SoundDuration":73385,"Delta":55175079},{"NoteNumber":64,"Velocity":45,"Duration":146771,"SoundDuration":146771,"Delta":55175079},{"NoteNumber":56,"Velocity":37,"Duration":146771,"SoundDuration":146771,"Delta":55175079},{"NoteNumber":80,"Velocity":45,"Duration":73385,"SoundDuration":73385,"Delta":55248465},{"NoteNumber":81,"Velocity":45,"Duration":81344,"SoundDuration":81344,"Delta":55321850},{"NoteNumber":59,"Velocity":39,"Duration":122017,"SoundDuration":122017,"Delta":55321850},{"NoteNumber":66,"Velocity":45,"Duration":122017,"SoundDuration":122017,"Delta":55321850},{"NoteNumber":83,"Velocity":45,"Duration":81344,"SoundDuration":81344,"Delta":55403195},{"NoteNumber":85,"Velocity":46,"Duration":81344,"SoundDuration":81344,"Delta":55484540},{"NoteNumber":87,"Velocity":47,"Duration":81344,"SoundDuration":81344,"Delta":55565885},{"NoteNumber":88,"Velocity":47,"Duration":81344,"SoundDuration":81344,"Delta":55647230},{"NoteNumber":68,"Velocity":48,"Duration":122017,"SoundDuration":122017,"Delta":55647230},{"NoteNumber":64,"Velocity":40,"Duration":122017,"SoundDuration":122017,"Delta":55647230},{"NoteNumber":90,"Velocity":48,"Duration":81344,"SoundDuration":81344,"Delta":55728575},{"NoteNumber":92,"Velocity":49,"Duration":81344,"SoundDuration":81344,"Delta":55809919},{"NoteNumber":95,"Velocity":52,"Duration":81344,"SoundDuration":81344,"Delta":55891264},{"NoteNumber":93,"Velocity":42,"Duration":321115,"SoundDuration":321115,"Delta":55972609},{"NoteNumber":66,"Velocity":42,"Duration":321115,"SoundDuration":321115,"Delta":55972609},{"NoteNumber":69,"Velocity":50,"Duration":321115,"SoundDuration":321115,"Delta":55972609},{"NoteNumber":70,"Velocity":42,"Duration":46896,"SoundDuration":46896,"Delta":56270093},{"NoteNumber":71,"Velocity":43,"Duration":45519,"SoundDuration":45519,"Delta":56316990},{"NoteNumber":73,"Velocity":44,"Duration":44176,"SoundDuration":44176,"Delta":56362509},{"NoteNumber":75,"Velocity":45,"Duration":42875,"SoundDuration":42875,"Delta":56406686},{"NoteNumber":76,"Velocity":45,"Duration":41720,"SoundDuration":41720,"Delta":56449561},{"NoteNumber":78,"Velocity":45,"Duration":48897,"SoundDuration":48897,"Delta":56491282},{"NoteNumber":59,"Velocity":45,"Duration":142585,"SoundDuration":142585,"Delta":56511663},{"NoteNumber":51,"Velocity":37,"Duration":142585,"SoundDuration":142585,"Delta":56511663},{"NoteNumber":80,"Velocity":45,"Duration":71292,"SoundDuration":71292,"Delta":56540180},{"NoteNumber":81,"Velocity":45,"Duration":57034,"SoundDuration":57034,"Delta":56597214},{"NoteNumber":83,"Velocity":46,"Duration":65075,"SoundDuration":65075,"Delta":56654248},{"NoteNumber":47,"Velocity":35,"Duration":669623,"SoundDuration":669623,"Delta":56654248},{"NoteNumber":61,"Velocity":45,"Duration":122017,"SoundDuration":122017,"Delta":56654248},{"NoteNumber":52,"Velocity":39,"Duration":122017,"SoundDuration":122017,"Delta":56654248},{"NoteNumber":85,"Velocity":47,"Duration":65075,"SoundDuration":65075,"Delta":56719324},{"NoteNumber":87,"Velocity":48,"Duration":65075,"SoundDuration":65075,"Delta":56784400},{"NoteNumber":88,"Velocity":48,"Duration":65075,"SoundDuration":65075,"Delta":56849476},{"NoteNumber":90,"Velocity":49,"Duration":65075,"SoundDuration":65075,"Delta":56914552},{"NoteNumber":92,"Velocity":50,"Duration":65075,"SoundDuration":65075,"Delta":56979628},{"NoteNumber":63,"Velocity":48,"Duration":125358,"SoundDuration":125358,"Delta":56979628},{"NoteNumber":54,"Velocity":40,"Duration":125358,"SoundDuration":125358,"Delta":56979628},{"NoteNumber":93,"Velocity":50,"Duration":69085,"SoundDuration":69085,"Delta":57044704},{"NoteNumber":95,"Velocity":50,"Duration":70422,"SoundDuration":70422,"Delta":57113790},{"NoteNumber":97,"Velocity":51,"Duration":70422,"SoundDuration":70422,"Delta":57184212},{"NoteNumber":99,"Velocity":51,"Duration":69237,"SoundDuration":69237,"Delta":57254635},{"NoteNumber":52,"Velocity":29,"Duration":714718,"SoundDuration":714718,"Delta":57295714},{"NoteNumber":56,"Velocity":29,"Duration":700046,"SoundDuration":700046,"Delta":57310386},{"NoteNumber":102,"Velocity":64,"Duration":334448,"SoundDuration":334448,"Delta":57323872},{"NoteNumber":95,"Velocity":50,"Duration":334448,"SoundDuration":334448,"Delta":57323872},{"NoteNumber":90,"Velocity":50,"Duration":334448,"SoundDuration":334448,"Delta":57323872},{"NoteNumber":66,"Velocity":41,"Duration":334448,"SoundDuration":334448,"Delta":57323872},{"NoteNumber":59,"Velocity":35,"Duration":686560,"SoundDuration":686560,"Delta":57323872},{"NoteNumber":100,"Velocity":55,"Duration":352112,"SoundDuration":352112,"Delta":57658320},{"NoteNumber":88,"Velocity":42,"Duration":352112,"SoundDuration":352112,"Delta":57658320},{"NoteNumber":64,"Velocity":36,"Duration":352112,"SoundDuration":352112,"Delta":57658320},{"NoteNumber":102,"Velocity":50,"Duration":88028,"SoundDuration":88028,"Delta":57922404},{"NoteNumber":47,"Velocity":29,"Duration":205398,"SoundDuration":205398,"Delta":57981090},{"NoteNumber":54,"Velocity":29,"Duration":190727,"SoundDuration":190727,"Delta":57995761},{"NoteNumber":100,"Velocity":60,"Duration":176056,"SoundDuration":176056,"Delta":58010433},{"NoteNumber":95,"Velocity":46,"Duration":176056,"SoundDuration":176056,"Delta":58010433},{"NoteNumber":88,"Velocity":46,"Duration":176056,"SoundDuration":176056,"Delta":58010433},{"NoteNumber":64,"Velocity":42,"Duration":176056,"SoundDuration":176056,"Delta":58010433},{"NoteNumber":57,"Velocity":35,"Duration":176056,"SoundDuration":176056,"Delta":58010433},{"NoteNumber":99,"Velocity":57,"Duration":184162,"SoundDuration":184162,"Delta":58362545},{"NoteNumber":87,"Velocity":44,"Duration":184162,"SoundDuration":184162,"Delta":58362545},{"NoteNumber":63,"Velocity":34,"Duration":184162,"SoundDuration":184162,"Delta":58362545},{"NoteNumber":100,"Velocity":60,"Duration":334448,"SoundDuration":334448,"Delta":58730869},{"NoteNumber":88,"Velocity":46,"Duration":334448,"SoundDuration":334448,"Delta":58730869},{"NoteNumber":95,"Velocity":46,"Duration":334448,"SoundDuration":334448,"Delta":58730869},{"NoteNumber":64,"Velocity":43,"Duration":334448,"SoundDuration":334448,"Delta":58730869},{"NoteNumber":56,"Velocity":36,"Duration":334448,"SoundDuration":334448,"Delta":58730869},{"NoteNumber":52,"Velocity":30,"Duration":334448,"SoundDuration":334448,"Delta":58730869},{"NoteNumber":80,"Velocity":55,"Duration":631911,"SoundDuration":631911,"Delta":59394265},{"NoteNumber":40,"Velocity":44,"Duration":368324,"SoundDuration":368324,"Delta":60026177},{"NoteNumber":78,"Velocity":53,"Duration":352795,"SoundDuration":352795,"Delta":60210339},{"NoteNumber":66,"Velocity":45,"Duration":835953,"SoundDuration":835953,"Delta":60210339},{"NoteNumber":61,"Velocity":35,"Duration":333949,"SoundDuration":333949,"Delta":60394501},{"NoteNumber":54,"Velocity":30,"Duration":333949,"SoundDuration":333949,"Delta":60394501},{"NoteNumber":70,"Velocity":52,"Duration":324551,"SoundDuration":324551,"Delta":60563135},{"NoteNumber":66,"Velocity":35,"Duration":475696,"SoundDuration":475696,"Delta":60728450},{"NoteNumber":58,"Velocity":30,"Duration":317842,"SoundDuration":317842,"Delta":60728450},{"NoteNumber":73,"Velocity":53,"Duration":316461,"SoundDuration":316461,"Delta":60887686},{"NoteNumber":61,"Velocity":36,"Duration":314593,"SoundDuration":314593,"Delta":61046292},{"NoteNumber":54,"Velocity":31,"Duration":314593,"SoundDuration":314593,"Delta":61046292},{"NoteNumber":80,"Velocity":54,"Duration":312626,"SoundDuration":312626,"Delta":61204147},{"NoteNumber":68,"Velocity":45,"Duration":312626,"SoundDuration":312626,"Delta":61204147},{"NoteNumber":39,"Velocity":45,"Duration":311047,"SoundDuration":311047,"Delta":61360886},{"NoteNumber":78,"Velocity":56,"Duration":309481,"SoundDuration":309481,"Delta":61516773},{"NoteNumber":66,"Velocity":48,"Duration":309481,"SoundDuration":309481,"Delta":61516773},{"NoteNumber":63,"Velocity":34,"Duration":307814,"SoundDuration":307814,"Delta":61671934},{"NoteNumber":54,"Velocity":29,"Duration":307814,"SoundDuration":307814,"Delta":61671934},{"NoteNumber":80,"Velocity":56,"Duration":306283,"SoundDuration":306283,"Delta":61826255},{"NoteNumber":68,"Velocity":48,"Duration":306283,"SoundDuration":306283,"Delta":61826255},{"NoteNumber":66,"Velocity":35,"Duration":304765,"SoundDuration":304765,"Delta":61979749},{"NoteNumber":59,"Velocity":29,"Duration":304765,"SoundDuration":304765,"Delta":61979749},{"NoteNumber":82,"Velocity":61,"Duration":302919,"SoundDuration":302919,"Delta":62132539},{"NoteNumber":70,"Velocity":51,"Duration":302919,"SoundDuration":302919,"Delta":62132539},{"NoteNumber":63,"Velocity":36,"Duration":315417,"SoundDuration":315417,"Delta":62284515},{"NoteNumber":54,"Velocity":30,"Duration":315417,"SoundDuration":315417,"Delta":62284515},{"NoteNumber":83,"Velocity":66,"Duration":164473,"SoundDuration":164473,"Delta":62435459},{"NoteNumber":71,"Velocity":56,"Duration":164473,"SoundDuration":164473,"Delta":62435459},{"NoteNumber":37,"Velocity":56,"Duration":308641,"SoundDuration":308641,"Delta":62599933},{"NoteNumber":87,"Velocity":69,"Duration":308641,"SoundDuration":308641,"Delta":62754254},{"NoteNumber":75,"Velocity":58,"Duration":308641,"SoundDuration":308641,"Delta":62754254},{"NoteNumber":64,"Velocity":39,"Duration":308641,"SoundDuration":308641,"Delta":62908575},{"NoteNumber":54,"Velocity":33,"Duration":308641,"SoundDuration":308641,"Delta":62908575},{"NoteNumber":85,"Velocity":66,"Duration":308641,"SoundDuration":308641,"Delta":63062896},{"NoteNumber":73,"Velocity":56,"Duration":308641,"SoundDuration":308641,"Delta":63062896},{"NoteNumber":66,"Velocity":39,"Duration":311099,"SoundDuration":311099,"Delta":63217217},{"NoteNumber":58,"Velocity":33,"Duration":311099,"SoundDuration":311099,"Delta":63217217},{"NoteNumber":80,"Velocity":61,"Duration":316014,"SoundDuration":316014,"Delta":63371538},{"NoteNumber":68,"Velocity":51,"Duration":316014,"SoundDuration":316014,"Delta":63371538},{"NoteNumber":64,"Velocity":39,"Duration":318471,"SoundDuration":318471,"Delta":63528316},{"NoteNumber":54,"Velocity":33,"Duration":318471,"SoundDuration":318471,"Delta":63528316},{"NoteNumber":82,"Velocity":61,"Duration":235805,"SoundDuration":235805,"Delta":63687552},{"NoteNumber":70,"Velocity":51,"Duration":312375,"SoundDuration":312375,"Delta":63687552},{"NoteNumber":35,"Velocity":53,"Duration":306278,"SoundDuration":306278,"Delta":63846787},{"NoteNumber":85,"Velocity":60,"Duration":76569,"SoundDuration":76569,"Delta":63923357},{"NoteNumber":83,"Velocity":64,"Duration":306278,"SoundDuration":306278,"Delta":63999927},{"NoteNumber":71,"Velocity":54,"Duration":306278,"SoundDuration":306278,"Delta":63999927},{"NoteNumber":63,"Velocity":36,"Duration":306278,"SoundDuration":306278,"Delta":64153066},{"NoteNumber":54,"Velocity":30,"Duration":306278,"SoundDuration":306278,"Delta":64153066},{"NoteNumber":82,"Velocity":60,"Duration":306278,"SoundDuration":306278,"Delta":64306205},{"NoteNumber":70,"Velocity":51,"Duration":306278,"SoundDuration":306278,"Delta":64306205},{"NoteNumber":66,"Velocity":37,"Duration":306278,"SoundDuration":306278,"Delta":64459344},{"NoteNumber":59,"Velocity":30,"Duration":306278,"SoundDuration":306278,"Delta":64459344},{"NoteNumber":83,"Velocity":68,"Duration":312627,"SoundDuration":312627,"Delta":64612484},{"NoteNumber":71,"Velocity":57,"Duration":312627,"SoundDuration":312627,"Delta":64612484},{"NoteNumber":63,"Velocity":38,"Duration":288354,"SoundDuration":288354,"Delta":64765623},{"NoteNumber":54,"Velocity":32,"Duration":288354,"SoundDuration":288354,"Delta":64765623},{"NoteNumber":84,"Velocity":69,"Duration":257732,"SoundDuration":257732,"Delta":64925111},{"NoteNumber":72,"Velocity":60,"Duration":257732,"SoundDuration":257732,"Delta":64925111},{"NoteNumber":42,"Velocity":56,"Duration":736768,"SoundDuration":736768,"Delta":65053977},{"NoteNumber":85,"Velocity":72,"Duration":151975,"SoundDuration":151975,"Delta":65182843},{"NoteNumber":73,"Velocity":53,"Duration":151975,"SoundDuration":151975,"Delta":65182843},{"NoteNumber":82,"Velocity":55,"Duration":151975,"SoundDuration":151975,"Delta":65182843},{"NoteNumber":61,"Velocity":44,"Duration":151975,"SoundDuration":151975,"Delta":65182843},{"NoteNumber":84,"Velocity":61,"Duration":56990,"SoundDuration":56990,"Delta":65410807},{"NoteNumber":81,"Velocity":51,"Duration":56990,"SoundDuration":56990,"Delta":65410807},{"NoteNumber":81,"Velocity":70,"Duration":151975,"SoundDuration":151975,"Delta":65486795},{"NoteNumber":84,"Velocity":70,"Duration":151975,"SoundDuration":151975,"Delta":65486795},{"NoteNumber":63,"Velocity":43,"Duration":151975,"SoundDuration":151975,"Delta":65486795},{"NoteNumber":83,"Velocity":60,"Duration":56990,"SoundDuration":56990,"Delta":65714759},{"NoteNumber":80,"Velocity":51,"Duration":56990,"SoundDuration":56990,"Delta":65714759},{"NoteNumber":83,"Velocity":70,"Duration":151975,"SoundDuration":151975,"Delta":65790746},{"NoteNumber":80,"Velocity":59,"Duration":151975,"SoundDuration":151975,"Delta":65790746},{"NoteNumber":65,"Velocity":46,"Duration":151975,"SoundDuration":151975,"Delta":65790746},{"NoteNumber":82,"Velocity":62,"Duration":56990,"SoundDuration":56990,"Delta":66018710},{"NoteNumber":73,"Velocity":52,"Duration":56990,"SoundDuration":56990,"Delta":66018710},{"NoteNumber":82,"Velocity":69,"Duration":160513,"SoundDuration":160513,"Delta":66094698},{"NoteNumber":73,"Velocity":58,"Duration":160513,"SoundDuration":160513,"Delta":66094698},{"NoteNumber":66,"Velocity":49,"Duration":160513,"SoundDuration":160513,"Delta":66094698},{"NoteNumber":80,"Velocity":61,"Duration":60192,"SoundDuration":60192,"Delta":66335469},{"NoteNumber":71,"Velocity":51,"Duration":60192,"SoundDuration":60192,"Delta":66335469},{"NoteNumber":49,"Velocity":49,"Duration":688159,"SoundDuration":688159,"Delta":66335469},{"NoteNumber":80,"Velocity":68,"Duration":151975,"SoundDuration":151975,"Delta":66415725},{"NoteNumber":71,"Velocity":57,"Duration":151975,"SoundDuration":151975,"Delta":66415725},{"NoteNumber":65,"Velocity":50,"Duration":151975,"SoundDuration":151975,"Delta":66415725},{"NoteNumber":83,"Velocity":60,"Duration":75987,"SoundDuration":75987,"Delta":66643689},{"NoteNumber":75,"Velocity":51,"Duration":75987,"SoundDuration":75987,"Delta":66643689},{"NoteNumber":83,"Velocity":68,"Duration":151975,"SoundDuration":151975,"Delta":66719677},{"NoteNumber":75,"Velocity":57,"Duration":151975,"SoundDuration":151975,"Delta":66719677},{"NoteNumber":68,"Velocity":44,"Duration":151975,"SoundDuration":151975,"Delta":66719677},{"NoteNumber":75,"Velocity":59,"Duration":56990,"SoundDuration":56990,"Delta":66947641},{"NoteNumber":66,"Velocity":50,"Duration":56990,"SoundDuration":56990,"Delta":66947641},{"NoteNumber":75,"Velocity":65,"Duration":151975,"SoundDuration":151975,"Delta":67023628},{"NoteNumber":66,"Velocity":55,"Duration":151975,"SoundDuration":151975,"Delta":67023628},{"NoteNumber":71,"Velocity":52,"Duration":151975,"SoundDuration":151975,"Delta":67023628},{"NoteNumber":77,"Velocity":61,"Duration":56990,"SoundDuration":56990,"Delta":67251592},{"NoteNumber":68,"Velocity":51,"Duration":56990,"SoundDuration":56990,"Delta":67251592},{"NoteNumber":77,"Velocity":67,"Duration":156244,"SoundDuration":156244,"Delta":67327580},{"NoteNumber":68,"Velocity":56,"Duration":156244,"SoundDuration":156244,"Delta":67327580},{"NoteNumber":61,"Velocity":46,"Duration":156244,"SoundDuration":156244,"Delta":67327580},{"NoteNumber":80,"Velocity":57,"Duration":69060,"SoundDuration":69060,"Delta":67575906},{"NoteNumber":71,"Velocity":48,"Duration":69060,"SoundDuration":69060,"Delta":67575906},{"NoteNumber":80,"Velocity":62,"Duration":159235,"SoundDuration":159235,"Delta":67667987},{"NoteNumber":71,"Velocity":52,"Duration":159235,"SoundDuration":159235,"Delta":67667987},{"NoteNumber":61,"Velocity":48,"Duration":318471,"SoundDuration":318471,"Delta":67667987},{"NoteNumber":54,"Velocity":48,"Duration":642095,"SoundDuration":642095,"Delta":67667987},{"NoteNumber":78,"Velocity":52,"Duration":119426,"SoundDuration":119426,"Delta":67827222},{"NoteNumber":70,"Velocity":44,"Duration":119426,"SoundDuration":119426,"Delta":67827222},{"NoteNumber":78,"Velocity":53,"Duration":80906,"SoundDuration":80906,"Delta":67986458},{"NoteNumber":70,"Velocity":45,"Duration":80906,"SoundDuration":80906,"Delta":67986458},{"NoteNumber":61,"Velocity":32,"Duration":80906,"SoundDuration":80906,"Delta":67986458},{"NoteNumber":77,"Velocity":53,"Duration":80906,"SoundDuration":80906,"Delta":68148270},{"NoteNumber":71,"Velocity":45,"Duration":80906,"SoundDuration":80906,"Delta":68148270},{"NoteNumber":62,"Velocity":32,"Duration":80906,"SoundDuration":80906,"Delta":68148270},{"NoteNumber":80,"Velocity":59,"Duration":170068,"SoundDuration":170068,"Delta":68310083},{"NoteNumber":71,"Velocity":50,"Duration":170068,"SoundDuration":170068,"Delta":68310083},{"NoteNumber":61,"Velocity":32,"Duration":340136,"SoundDuration":340136,"Delta":68310083},{"NoteNumber":54,"Velocity":39,"Duration":738506,"SoundDuration":738506,"Delta":68310083},{"NoteNumber":78,"Velocity":53,"Duration":127550,"SoundDuration":127550,"Delta":68480151},{"NoteNumber":70,"Velocity":45,"Duration":127550,"SoundDuration":127550,"Delta":68480151},{"NoteNumber":78,"Velocity":53,"Duration":88809,"SoundDuration":88809,"Delta":68650219},{"NoteNumber":70,"Velocity":45,"Duration":88809,"SoundDuration":88809,"Delta":68650219},{"NoteNumber":61,"Velocity":32,"Duration":88809,"SoundDuration":88809,"Delta":68650219},{"NoteNumber":77,"Velocity":53,"Duration":110375,"SoundDuration":110375,"Delta":68827839},{"NoteNumber":71,"Velocity":45,"Duration":110375,"SoundDuration":110375,"Delta":68827839},{"NoteNumber":62,"Velocity":32,"Duration":110375,"SoundDuration":110375,"Delta":68827839},{"NoteNumber":78,"Velocity":62,"Duration":352112,"SoundDuration":352112,"Delta":69048589},{"NoteNumber":70,"Velocity":52,"Duration":352112,"SoundDuration":352112,"Delta":69048589},{"NoteNumber":61,"Velocity":39,"Duration":352112,"SoundDuration":352112,"Delta":69048589},{"NoteNumber":54,"Velocity":34,"Duration":352112,"SoundDuration":352112,"Delta":69048589},{"NoteNumber":66,"Velocity":67,"Duration":361663,"SoundDuration":361663,"Delta":69752814},{"NoteNumber":67,"Velocity":67,"Duration":361663,"SoundDuration":361663,"Delta":70114478},{"NoteNumber":68,"Velocity":70,"Duration":497512,"SoundDuration":497512,"Delta":70476141},{"NoteNumber":60,"Velocity":50,"Duration":165837,"SoundDuration":165837,"Delta":70641979},{"NoteNumber":42,"Velocity":48,"Duration":248756,"SoundDuration":248756,"Delta":70724897},{"NoteNumber":63,"Velocity":50,"Duration":165837,"SoundDuration":165837,"Delta":70807816},{"NoteNumber":56,"Velocity":52,"Duration":165837,"SoundDuration":165837,"Delta":70807816},{"NoteNumber":69,"Velocity":67,"Duration":151975,"SoundDuration":151975,"Delta":70973654},{"NoteNumber":68,"Velocity":69,"Duration":651098,"SoundDuration":651098,"Delta":71125629},{"NoteNumber":72,"Velocity":46,"Duration":146412,"SoundDuration":146412,"Delta":71298640},{"NoteNumber":81,"Velocity":50,"Duration":146412,"SoundDuration":146412,"Delta":71298640},{"NoteNumber":75,"Velocity":46,"Duration":331675,"SoundDuration":331675,"Delta":71445053},{"NoteNumber":80,"Velocity":46,"Duration":331675,"SoundDuration":331675,"Delta":71445053},{"NoteNumber":68,"Velocity":69,"Duration":489396,"SoundDuration":489396,"Delta":71776728},{"NoteNumber":61,"Velocity":50,"Duration":163132,"SoundDuration":163132,"Delta":71939860},{"NoteNumber":40,"Velocity":46,"Duration":244698,"SoundDuration":244698,"Delta":72021426},{"NoteNumber":64,"Velocity":50,"Duration":163132,"SoundDuration":163132,"Delta":72102992},{"NoteNumber":56,"Velocity":50,"Duration":163132,"SoundDuration":163132,"Delta":72102992},{"NoteNumber":73,"Velocity":62,"Duration":151975,"SoundDuration":151975,"Delta":72266125},{"NoteNumber":68,"Velocity":66,"Duration":601540,"SoundDuration":601540,"Delta":72418100},{"NoteNumber":76,"Velocity":46,"Duration":148588,"SoundDuration":148588,"Delta":72589627},{"NoteNumber":85,"Velocity":50,"Duration":148588,"SoundDuration":148588,"Delta":72589627},{"NoteNumber":73,"Velocity":45,"Duration":375234,"SoundDuration":375234,"Delta":72738215},{"NoteNumber":80,"Velocity":45,"Duration":375234,"SoundDuration":375234,"Delta":72738215},{"NoteNumber":67,"Velocity":53,"Duration":93808,"SoundDuration":93808,"Delta":73019641},{"NoteNumber":68,"Velocity":60,"Duration":119474,"SoundDuration":119474,"Delta":73113450},{"NoteNumber":60,"Velocity":50,"Duration":119474,"SoundDuration":119474,"Delta":73232924},{"NoteNumber":66,"Velocity":50,"Duration":117645,"SoundDuration":117645,"Delta":73352399},{"NoteNumber":75,"Velocity":56,"Duration":112333,"SoundDuration":112333,"Delta":73470044},{"NoteNumber":69,"Velocity":61,"Duration":330678,"SoundDuration":330678,"Delta":73470044},{"NoteNumber":72,"Velocity":50,"Duration":110288,"SoundDuration":110288,"Delta":73582378},{"NoteNumber":78,"Velocity":50,"Duration":108056,"SoundDuration":108056,"Delta":73692666},{"NoteNumber":87,"Velocity":56,"Duration":108754,"SoundDuration":108754,"Delta":73800723},{"NoteNumber":68,"Velocity":65,"Duration":326264,"SoundDuration":326264,"Delta":73800723},{"NoteNumber":60,"Velocity":52,"Duration":652529,"SoundDuration":652529,"Delta":73800723},{"NoteNumber":63,"Velocity":52,"Duration":652529,"SoundDuration":652529,"Delta":73800723},{"NoteNumber":84,"Velocity":49,"Duration":108754,"SoundDuration":108754,"Delta":73909478},{"NoteNumber":90,"Velocity":49,"Duration":108754,"SoundDuration":108754,"Delta":74018232},{"NoteNumber":99,"Velocity":56,"Duration":108754,"SoundDuration":108754,"Delta":74126987},{"NoteNumber":66,"Velocity":62,"Duration":326264,"SoundDuration":326264,"Delta":74126987},{"NoteNumber":92,"Velocity":50,"Duration":108754,"SoundDuration":108754,"Delta":74235742},{"NoteNumber":90,"Velocity":50,"Duration":108754,"SoundDuration":108754,"Delta":74344497},{"NoteNumber":88,"Velocity":56,"Duration":81170,"SoundDuration":81170,"Delta":74453252},{"NoteNumber":64,"Velocity":66,"Duration":326277,"SoundDuration":326277,"Delta":74453252},{"NoteNumber":61,"Velocity":52,"Duration":661023,"SoundDuration":661023,"Delta":74453252},{"NoteNumber":92,"Velocity":47,"Duration":81170,"SoundDuration":81170,"Delta":74534422},{"NoteNumber":100,"Velocity":47,"Duration":81700,"SoundDuration":81700,"Delta":74615592},{"NoteNumber":99,"Velocity":47,"Duration":82236,"SoundDuration":82236,"Delta":74697292},{"NoteNumber":92,"Velocity":57,"Duration":82918,"SoundDuration":82918,"Delta":74779529},{"NoteNumber":63,"Velocity":62,"Duration":334746,"SoundDuration":334746,"Delta":74779529},{"NoteNumber":88,"Velocity":50,"Duration":83473,"SoundDuration":83473,"Delta":74862448},{"NoteNumber":100,"Velocity":50,"Duration":84035,"SoundDuration":84035,"Delta":74945921},{"NoteNumber":99,"Velocity":50,"Duration":84319,"SoundDuration":84319,"Delta":75029956},{"NoteNumber":93,"Velocity":59,"Duration":83894,"SoundDuration":83894,"Delta":75114276},{"NoteNumber":64,"Velocity":62,"Duration":345899,"SoundDuration":345899,"Delta":75114276},{"NoteNumber":60,"Velocity":52,"Duration":754731,"SoundDuration":754731,"Delta":75114276},{"NoteNumber":88,"Velocity":52,"Duration":85619,"SoundDuration":85619,"Delta":75198170},{"NoteNumber":100,"Velocity":52,"Duration":87416,"SoundDuration":87416,"Delta":75283790},{"NoteNumber":99,"Velocity":52,"Duration":88969,"SoundDuration":88969,"Delta":75371206},{"NoteNumber":94,"Velocity":59,"Duration":90583,"SoundDuration":90583,"Delta":75460175},{"NoteNumber":66,"Velocity":62,"Duration":349730,"SoundDuration":349730,"Delta":75460175},{"NoteNumber":88,"Velocity":53,"Duration":96590,"SoundDuration":96590,"Delta":75550759},{"NoteNumber":100,"Velocity":53,"Duration":105589,"SoundDuration":105589,"Delta":75647349},{"NoteNumber":99,"Velocity":53,"Duration":116068,"SoundDuration":116068,"Delta":75752939},{"NoteNumber":59,"Velocity":55,"Duration":437889,"SoundDuration":437889,"Delta":75809906},{"NoteNumber":64,"Velocity":55,"Duration":408338,"SoundDuration":408338,"Delta":75839456},{"NoteNumber":88,"Velocity":54,"Duration":189393,"SoundDuration":189393,"Delta":75869007},{"NoteNumber":95,"Velocity":65,"Duration":189393,"SoundDuration":189393,"Delta":75869007},{"NoteNumber":68,"Velocity":69,"Duration":378788,"SoundDuration":378788,"Delta":75869007},{"NoteNumber":63,"Velocity":46,"Duration":352112,"SoundDuration":352112,"Delta":76247795},{"NoteNumber":66,"Velocity":51,"Duration":352112,"SoundDuration":352112,"Delta":76423851},{"NoteNumber":64,"Velocity":43,"Duration":352112,"SoundDuration":352112,"Delta":76423851},{"NoteNumber":62,"Velocity":47,"Duration":352112,"SoundDuration":352112,"Delta":76599908},{"NoteNumber":68,"Velocity":53,"Duration":352112,"SoundDuration":352112,"Delta":76775964},{"NoteNumber":64,"Velocity":45,"Duration":352112,"SoundDuration":352112,"Delta":76775964},{"NoteNumber":61,"Velocity":49,"Duration":351958,"SoundDuration":351958,"Delta":76952020},{"NoteNumber":69,"Velocity":55,"Duration":350576,"SoundDuration":350576,"Delta":77128076},{"NoteNumber":64,"Velocity":46,"Duration":350576,"SoundDuration":350576,"Delta":77128076},{"NoteNumber":56,"Velocity":51,"Duration":351198,"SoundDuration":351198,"Delta":77303979},{"NoteNumber":59,"Velocity":51,"Duration":351198,"SoundDuration":351198,"Delta":77303979},{"NoteNumber":71,"Velocity":56,"Duration":354941,"SoundDuration":354941,"Delta":77478653},{"NoteNumber":64,"Velocity":47,"Duration":354941,"SoundDuration":354941,"Delta":77478653},{"NoteNumber":58,"Velocity":52,"Duration":724418,"SoundDuration":724418,"Delta":77655178},{"NoteNumber":55,"Velocity":44,"Duration":358437,"SoundDuration":358437,"Delta":77655178},{"NoteNumber":72,"Velocity":58,"Duration":362008,"SoundDuration":362008,"Delta":77833594},{"NoteNumber":64,"Velocity":49,"Duration":362008,"SoundDuration":362008,"Delta":77833594},{"NoteNumber":54,"Velocity":54,"Duration":365980,"SoundDuration":365980,"Delta":78013615},{"NoteNumber":73,"Velocity":60,"Duration":369870,"SoundDuration":369870,"Delta":78195602},{"NoteNumber":64,"Velocity":51,"Duration":369870,"SoundDuration":369870,"Delta":78195602},{"NoteNumber":57,"Velocity":56,"Duration":374026,"SoundDuration":374026,"Delta":78379596},{"NoteNumber":47,"Velocity":47,"Duration":374026,"SoundDuration":374026,"Delta":78379596},{"NoteNumber":54,"Velocity":47,"Duration":374026,"SoundDuration":374026,"Delta":78379596},{"NoteNumber":75,"Velocity":62,"Duration":188150,"SoundDuration":188150,"Delta":78565473},{"NoteNumber":64,"Velocity":52,"Duration":188150,"SoundDuration":188150,"Delta":78565473},{"NoteNumber":71,"Velocity":52,"Duration":188150,"SoundDuration":188150,"Delta":78565473},{"NoteNumber":56,"Velocity":58,"Duration":189394,"SoundDuration":189394,"Delta":78753623},{"NoteNumber":52,"Velocity":49,"Duration":757576,"SoundDuration":757576,"Delta":78753623},{"NoteNumber":78,"Velocity":68,"Duration":378788,"SoundDuration":378788,"Delta":78943017},{"NoteNumber":66,"Velocity":51,"Duration":378788,"SoundDuration":378788,"Delta":78943017},{"NoteNumber":71,"Velocity":55,"Duration":378788,"SoundDuration":378788,"Delta":78943017},{"NoteNumber":59,"Velocity":52,"Duration":189394,"SoundDuration":189394,"Delta":79132411},{"NoteNumber":76,"Velocity":59,"Duration":284091,"SoundDuration":284091,"Delta":79321805},{"NoteNumber":64,"Velocity":50,"Duration":284091,"SoundDuration":284091,"Delta":79321805},{"NoteNumber":54,"Velocity":53,"Duration":189394,"SoundDuration":189394,"Delta":79511199},{"NoteNumber":47,"Velocity":44,"Duration":1100097,"SoundDuration":1100097,"Delta":79511199},{"NoteNumber":78,"Velocity":52,"Duration":94696,"SoundDuration":94696,"Delta":79605896},{"NoteNumber":71,"Velocity":56,"Duration":378788,"SoundDuration":378788,"Delta":79700593},{"NoteNumber":76,"Velocity":66,"Duration":378788,"SoundDuration":378788,"Delta":79700593},{"NoteNumber":64,"Velocity":56,"Duration":378788,"SoundDuration":378788,"Delta":79700593},{"NoteNumber":57,"Velocity":50,"Duration":189394,"SoundDuration":189394,"Delta":79889987},{"NoteNumber":75,"Velocity":60,"Duration":531914,"SoundDuration":531914,"Delta":80079381},{"NoteNumber":63,"Velocity":51,"Duration":531914,"SoundDuration":531914,"Delta":80079381},{"NoteNumber":40,"Velocity":47,"Duration":824616,"SoundDuration":824616,"Delta":80345339},{"NoteNumber":56,"Velocity":56,"Duration":758127,"SoundDuration":758127,"Delta":80411828},{"NoteNumber":64,"Velocity":55,"Duration":551972,"SoundDuration":551972,"Delta":80478317},{"NoteNumber":71,"Velocity":55,"Duration":625148,"SoundDuration":625148,"Delta":80544807},{"NoteNumber":76,"Velocity":65,"Duration":558659,"SoundDuration":558659,"Delta":80611296},{"NoteNumber":79,"Velocity":56,"Duration":81014,"SoundDuration":81014,"Delta":81426007},{"NoteNumber":80,"Velocity":55,"Duration":75874,"SoundDuration":75874,"Delta":81526267},{"NoteNumber":82,"Velocity":55,"Duration":54556,"SoundDuration":54556,"Delta":81602141},{"NoteNumber":80,"Velocity":59,"Duration":80175,"SoundDuration":80175,"Delta":81656698},{"NoteNumber":82,"Velocity":55,"Duration":77703,"SoundDuration":77703,"Delta":81736874},{"NoteNumber":80,"Velocity":59,"Duration":75745,"SoundDuration":75745,"Delta":81814577},{"NoteNumber":82,"Velocity":54,"Duration":74646,"SoundDuration":74646,"Delta":81890323},{"NoteNumber":80,"Velocity":59,"Duration":74093,"SoundDuration":74093,"Delta":81964969},{"NoteNumber":82,"Velocity":60,"Duration":73746,"SoundDuration":73746,"Delta":82039063},{"NoteNumber":80,"Velocity":63,"Duration":73675,"SoundDuration":73675,"Delta":82112809},{"NoteNumber":82,"Velocity":68,"Duration":73012,"SoundDuration":73012,"Delta":82186485},{"NoteNumber":80,"Velocity":59,"Duration":77620,"SoundDuration":77620,"Delta":82259497},{"NoteNumber":79,"Velocity":60,"Duration":88131,"SoundDuration":88131,"Delta":82337118},{"NoteNumber":80,"Velocity":63,"Duration":115569,"SoundDuration":115569,"Delta":82425249},{"NoteNumber":92,"Velocity":68,"Duration":180940,"SoundDuration":180940,"Delta":82540819},{"NoteNumber":78,"Velocity":59,"Duration":328947,"SoundDuration":328947,"Delta":82721760},{"NoteNumber":40,"Velocity":49,"Duration":328947,"SoundDuration":328947,"Delta":82721760},{"NoteNumber":90,"Velocity":56,"Duration":164473,"SoundDuration":164473,"Delta":82886233},{"NoteNumber":70,"Velocity":57,"Duration":333867,"SoundDuration":333867,"Delta":83050707},{"NoteNumber":68,"Velocity":39,"Duration":333867,"SoundDuration":333867,"Delta":83050707},{"NoteNumber":61,"Velocity":33,"Duration":333867,"SoundDuration":333867,"Delta":83050707},{"NoteNumber":82,"Velocity":55,"Duration":165233,"SoundDuration":165233,"Delta":83219341},{"NoteNumber":73,"Velocity":58,"Duration":308031,"SoundDuration":308031,"Delta":83384575},{"NoteNumber":66,"Velocity":39,"Duration":308031,"SoundDuration":308031,"Delta":83384575},{"NoteNumber":58,"Velocity":33,"Duration":308031,"SoundDuration":308031,"Delta":83384575},{"NoteNumber":85,"Velocity":50,"Duration":153710,"SoundDuration":153710,"Delta":83538896},{"NoteNumber":80,"Velocity":58,"Duration":305095,"SoundDuration":305095,"Delta":83692606},{"NoteNumber":61,"Velocity":39,"Duration":305095,"SoundDuration":305095,"Delta":83692606},{"NoteNumber":54,"Velocity":33,"Duration":305095,"SoundDuration":305095,"Delta":83692606},{"NoteNumber":92,"Velocity":55,"Duration":151975,"SoundDuration":151975,"Delta":83845726},{"NoteNumber":78,"Velocity":59,"Duration":302194,"SoundDuration":302194,"Delta":83997702},{"NoteNumber":39,"Velocity":48,"Duration":302194,"SoundDuration":302194,"Delta":83997702},{"NoteNumber":90,"Velocity":52,"Duration":150810,"SoundDuration":150810,"Delta":84149085},{"NoteNumber":80,"Velocity":59,"Duration":298826,"SoundDuration":298826,"Delta":84299896},{"NoteNumber":68,"Velocity":36,"Duration":298826,"SoundDuration":298826,"Delta":84299896},{"NoteNumber":63,"Velocity":30,"Duration":298826,"SoundDuration":298826,"Delta":84299896},{"NoteNumber":92,"Velocity":54,"Duration":149125,"SoundDuration":149125,"Delta":84449596},{"NoteNumber":82,"Velocity":62,"Duration":296062,"SoundDuration":296062,"Delta":84598722},{"NoteNumber":66,"Velocity":36,"Duration":296062,"SoundDuration":296062,"Delta":84598722},{"NoteNumber":59,"Velocity":30,"Duration":296062,"SoundDuration":296062,"Delta":84598722},{"NoteNumber":94,"Velocity":57,"Duration":147492,"SoundDuration":147492,"Delta":84747293},{"NoteNumber":83,"Velocity":66,"Duration":293244,"SoundDuration":293244,"Delta":84894785},{"NoteNumber":63,"Velocity":36,"Duration":293244,"SoundDuration":293244,"Delta":84894785},{"NoteNumber":54,"Velocity":30,"Duration":293244,"SoundDuration":293244,"Delta":84894785},{"NoteNumber":95,"Velocity":59,"Duration":146309,"SoundDuration":146309,"Delta":85041720},{"NoteNumber":87,"Velocity":69,"Duration":298036,"SoundDuration":298036,"Delta":85188029},{"NoteNumber":37,"Velocity":56,"Duration":298036,"SoundDuration":298036,"Delta":85188029},{"NoteNumber":99,"Velocity":63,"Duration":148588,"SoundDuration":148588,"Delta":85337478},{"NoteNumber":85,"Velocity":66,"Duration":297177,"SoundDuration":297177,"Delta":85486066},{"NoteNumber":68,"Velocity":39,"Duration":297177,"SoundDuration":297177,"Delta":85486066},{"NoteNumber":64,"Velocity":33,"Duration":297177,"SoundDuration":297177,"Delta":85486066},{"NoteNumber":97,"Velocity":59,"Duration":148588,"SoundDuration":148588,"Delta":85634655},{"NoteNumber":80,"Velocity":61,"Duration":305966,"SoundDuration":305966,"Delta":85783243},{"NoteNumber":66,"Velocity":39,"Duration":305966,"SoundDuration":305966,"Delta":85783243},{"NoteNumber":58,"Velocity":33,"Duration":305966,"SoundDuration":305966,"Delta":85783243},{"NoteNumber":92,"Velocity":56,"Duration":157378,"SoundDuration":157378,"Delta":85931832},{"NoteNumber":82,"Velocity":61,"Duration":308642,"SoundDuration":308642,"Delta":86089210},{"NoteNumber":64,"Velocity":39,"Duration":308642,"SoundDuration":308642,"Delta":86089210},{"NoteNumber":54,"Velocity":33,"Duration":308642,"SoundDuration":308642,"Delta":86089210},{"NoteNumber":94,"Velocity":54,"Duration":154321,"SoundDuration":154321,"Delta":86243531},{"NoteNumber":83,"Velocity":64,"Duration":306278,"SoundDuration":306278,"Delta":86397852},{"NoteNumber":35,"Velocity":53,"Duration":306278,"SoundDuration":306278,"Delta":86397852},{"NoteNumber":95,"Velocity":59,"Duration":153139,"SoundDuration":153139,"Delta":86550991},{"NoteNumber":87,"Velocity":59,"Duration":153139,"SoundDuration":153139,"Delta":86550991},{"NoteNumber":82,"Velocity":60,"Duration":306055,"SoundDuration":306055,"Delta":86704131},{"NoteNumber":68,"Velocity":36,"Duration":306055,"SoundDuration":306055,"Delta":86704131},{"NoteNumber":63,"Velocity":30,"Duration":306055,"SoundDuration":306055,"Delta":86704131},{"NoteNumber":90,"Velocity":56,"Duration":152916,"SoundDuration":152916,"Delta":86857270},{"NoteNumber":94,"Velocity":56,"Duration":152916,"SoundDuration":152916,"Delta":86857270},{"NoteNumber":83,"Velocity":68,"Duration":317782,"SoundDuration":317782,"Delta":87010186},{"NoteNumber":66,"Velocity":37,"Duration":317782,"SoundDuration":317782,"Delta":87010186},{"NoteNumber":59,"Velocity":30,"Duration":317782,"SoundDuration":317782,"Delta":87010186},{"NoteNumber":87,"Velocity":59,"Duration":161829,"SoundDuration":161829,"Delta":87166138},{"NoteNumber":95,"Velocity":59,"Duration":161829,"SoundDuration":161829,"Delta":87166138},{"NoteNumber":84,"Velocity":69,"Duration":354859,"SoundDuration":354859,"Delta":87327968},{"NoteNumber":54,"Velocity":33,"Duration":354859,"SoundDuration":354859,"Delta":87327968},{"NoteNumber":63,"Velocity":38,"Duration":354859,"SoundDuration":354859,"Delta":87327968},{"NoteNumber":96,"Velocity":61,"Duration":186914,"SoundDuration":186914,"Delta":87495913},{"NoteNumber":85,"Velocity":53,"Duration":87260,"SoundDuration":87260,"Delta":87682828},{"NoteNumber":42,"Velocity":56,"Duration":174520,"SoundDuration":174520,"Delta":87682828},{"NoteNumber":85,"Velocity":51,"Duration":87008,"SoundDuration":87008,"Delta":87799175},{"NoteNumber":61,"Velocity":44,"Duration":173010,"SoundDuration":173010,"Delta":87857348},{"NoteNumber":94,"Velocity":50,"Duration":86505,"SoundDuration":86505,"Delta":87915018},{"NoteNumber":97,"Velocity":50,"Duration":86505,"SoundDuration":86505,"Delta":87915018},{"NoteNumber":84,"Velocity":53,"Duration":85763,"SoundDuration":85763,"Delta":88030359},{"NoteNumber":84,"Velocity":49,"Duration":85520,"SoundDuration":85520,"Delta":88144710},{"NoteNumber":63,"Velocity":43,"Duration":170068,"SoundDuration":170068,"Delta":88201885},{"NoteNumber":96,"Velocity":49,"Duration":85033,"SoundDuration":85033,"Delta":88258575},{"NoteNumber":93,"Velocity":49,"Duration":85033,"SoundDuration":85033,"Delta":88258575},{"NoteNumber":83,"Velocity":54,"Duration":84316,"SoundDuration":84316,"Delta":88371953},{"NoteNumber":83,"Velocity":49,"Duration":84082,"SoundDuration":84082,"Delta":88484376},{"NoteNumber":65,"Velocity":46,"Duration":167224,"SoundDuration":167224,"Delta":88540587},{"NoteNumber":95,"Velocity":49,"Duration":83612,"SoundDuration":83612,"Delta":88596329},{"NoteNumber":92,"Velocity":49,"Duration":83612,"SoundDuration":83612,"Delta":88596329},{"NoteNumber":82,"Velocity":55,"Duration":82918,"SoundDuration":82918,"Delta":88707811},{"NoteNumber":82,"Velocity":51,"Duration":86548,"SoundDuration":86548,"Delta":88818370},{"NoteNumber":66,"Velocity":49,"Duration":184453,"SoundDuration":184453,"Delta":88873649},{"NoteNumber":94,"Velocity":51,"Duration":93808,"SoundDuration":93808,"Delta":88936188},{"NoteNumber":90,"Velocity":51,"Duration":93808,"SoundDuration":93808,"Delta":88936188},{"NoteNumber":80,"Velocity":58,"Duration":87260,"SoundDuration":87260,"Delta":89058102},{"NoteNumber":49,"Velocity":50,"Duration":174520,"SoundDuration":174520,"Delta":89058102},{"NoteNumber":80,"Velocity":53,"Duration":87260,"SoundDuration":87260,"Delta":89174449},{"NoteNumber":65,"Velocity":50,"Duration":174520,"SoundDuration":174520,"Delta":89232622},{"NoteNumber":92,"Velocity":53,"Duration":87260,"SoundDuration":87260,"Delta":89290795},{"NoteNumber":83,"Velocity":53,"Duration":87260,"SoundDuration":87260,"Delta":89290795},{"NoteNumber":83,"Velocity":59,"Duration":87260,"SoundDuration":87260,"Delta":89407142},{"NoteNumber":83,"Velocity":51,"Duration":87260,"SoundDuration":87260,"Delta":89523489},{"NoteNumber":68,"Velocity":44,"Duration":174016,"SoundDuration":174016,"Delta":89581662},{"NoteNumber":95,"Velocity":51,"Duration":87008,"SoundDuration":87008,"Delta":89639835},{"NoteNumber":87,"Velocity":51,"Duration":87008,"SoundDuration":87008,"Delta":89639835},{"NoteNumber":75,"Velocity":56,"Duration":86505,"SoundDuration":86505,"Delta":89755679},{"NoteNumber":75,"Velocity":50,"Duration":86505,"SoundDuration":86505,"Delta":89871019},{"NoteNumber":71,"Velocity":52,"Duration":174268,"SoundDuration":174268,"Delta":89928689},{"NoteNumber":87,"Velocity":50,"Duration":87260,"SoundDuration":87260,"Delta":89986611},{"NoteNumber":78,"Velocity":50,"Duration":87260,"SoundDuration":87260,"Delta":89986611},{"NoteNumber":77,"Velocity":57,"Duration":87260,"SoundDuration":87260,"Delta":90102958},{"NoteNumber":77,"Velocity":51,"Duration":91121,"SoundDuration":91121,"Delta":90219305},{"NoteNumber":61,"Velocity":46,"Duration":189954,"SoundDuration":189954,"Delta":90278251},{"NoteNumber":80,"Velocity":51,"Duration":96525,"SoundDuration":96525,"Delta":90342601},{"NoteNumber":89,"Velocity":51,"Duration":96525,"SoundDuration":96525,"Delta":90342601},{"NoteNumber":92,"Velocity":62,"Duration":164473,"SoundDuration":164473,"Delta":90468205},{"NoteNumber":83,"Velocity":52,"Duration":164473,"SoundDuration":164473,"Delta":90468205},{"NoteNumber":80,"Velocity":52,"Duration":164473,"SoundDuration":164473,"Delta":90468205},{"NoteNumber":66,"Velocity":48,"Duration":164473,"SoundDuration":164473,"Delta":90468205},{"NoteNumber":90,"Velocity":52,"Duration":93201,"SoundDuration":93201,"Delta":90632679},{"NoteNumber":82,"Velocity":44,"Duration":93201,"SoundDuration":93201,"Delta":90632679},{"NoteNumber":78,"Velocity":44,"Duration":93201,"SoundDuration":93201,"Delta":90632679},{"NoteNumber":82,"Velocity":45,"Duration":81283,"SoundDuration":81283,"Delta":90797153},{"NoteNumber":90,"Velocity":53,"Duration":81283,"SoundDuration":81283,"Delta":90797153},{"NoteNumber":85,"Velocity":45,"Duration":81283,"SoundDuration":81283,"Delta":90797153},{"NoteNumber":83,"Velocity":45,"Duration":81711,"SoundDuration":81711,"Delta":90959485},{"NoteNumber":86,"Velocity":45,"Duration":81711,"SoundDuration":81711,"Delta":90959485},{"NoteNumber":89,"Velocity":53,"Duration":81711,"SoundDuration":81711,"Delta":90959485},{"NoteNumber":83,"Velocity":50,"Duration":166833,"SoundDuration":166833,"Delta":91123581},{"NoteNumber":92,"Velocity":59,"Duration":166833,"SoundDuration":166833,"Delta":91123581},{"NoteNumber":80,"Velocity":50,"Duration":166833,"SoundDuration":166833,"Delta":91123581},{"NoteNumber":82,"Velocity":45,"Duration":95810,"SoundDuration":95810,"Delta":91290415},{"NoteNumber":78,"Velocity":45,"Duration":95810,"SoundDuration":95810,"Delta":91290415},{"NoteNumber":90,"Velocity":53,"Duration":95810,"SoundDuration":95810,"Delta":91290415},{"NoteNumber":90,"Velocity":53,"Duration":88809,"SoundDuration":88809,"Delta":91459766},{"NoteNumber":85,"Velocity":45,"Duration":88809,"SoundDuration":88809,"Delta":91459766},{"NoteNumber":82,"Velocity":45,"Duration":88809,"SoundDuration":88809,"Delta":91459766},{"NoteNumber":89,"Velocity":53,"Duration":86050,"SoundDuration":86050,"Delta":91637386},{"NoteNumber":83,"Velocity":45,"Duration":86050,"SoundDuration":86050,"Delta":91637386},{"NoteNumber":86,"Velocity":45,"Duration":83786,"SoundDuration":83786,"Delta":91637386},{"NoteNumber":78,"Velocity":52,"Duration":444955,"SoundDuration":444955,"Delta":91807223},{"NoteNumber":82,"Velocity":52,"Duration":410987,"SoundDuration":410987,"Delta":91841190},{"NoteNumber":85,"Velocity":52,"Duration":377020,"SoundDuration":377020,"Delta":91875157},{"NoteNumber":90,"Velocity":62,"Duration":343052,"SoundDuration":343052,"Delta":91909125},{"NoteNumber":66,"Velocity":67,"Duration":361663,"SoundDuration":361663,"Delta":92595231},{"NoteNumber":67,"Velocity":67,"Duration":360497,"SoundDuration":360497,"Delta":92956894},{"NoteNumber":68,"Velocity":70,"Duration":253718,"SoundDuration":253718,"Delta":93317392},{"NoteNumber":42,"Velocity":50,"Duration":337180,"SoundDuration":337180,"Delta":93317392},{"NoteNumber":60,"Velocity":39,"Duration":84520,"SoundDuration":84520,"Delta":93402426},{"NoteNumber":63,"Velocity":40,"Duration":84164,"SoundDuration":84164,"Delta":93486946},{"NoteNumber":69,"Velocity":40,"Duration":83461,"SoundDuration":83461,"Delta":93571110},{"NoteNumber":68,"Velocity":41,"Duration":66335,"SoundDuration":66335,"Delta":93654572},{"NoteNumber":69,"Velocity":42,"Duration":65127,"SoundDuration":65127,"Delta":93720907},{"NoteNumber":70,"Velocity":43,"Duration":64988,"SoundDuration":64988,"Delta":93786034},{"NoteNumber":71,"Velocity":43,"Duration":68060,"SoundDuration":68060,"Delta":93851023},{"NoteNumber":69,"Velocity":57,"Duration":93004,"SoundDuration":93004,"Delta":93899963},{"NoteNumber":63,"Velocity":48,"Duration":93004,"SoundDuration":93004,"Delta":93899963},{"NoteNumber":72,"Velocity":44,"Duration":73883,"SoundDuration":73883,"Delta":93919083},{"NoteNumber":73,"Velocity":45,"Duration":68001,"SoundDuration":68001,"Delta":93992967},{"NoteNumber":68,"Velocity":61,"Duration":338726,"SoundDuration":338726,"Delta":93992967},{"NoteNumber":60,"Velocity":51,"Duration":338726,"SoundDuration":338726,"Delta":93992967},{"NoteNumber":74,"Velocity":45,"Duration":68379,"SoundDuration":68379,"Delta":94060968},{"NoteNumber":75,"Velocity":46,"Duration":67943,"SoundDuration":67943,"Delta":94129348},{"NoteNumber":76,"Velocity":46,"Duration":67453,"SoundDuration":67453,"Delta":94197292},{"NoteNumber":77,"Velocity":47,"Duration":66948,"SoundDuration":66948,"Delta":94264745},{"NoteNumber":78,"Velocity":48,"Duration":66531,"SoundDuration":66531,"Delta":94331694},{"NoteNumber":79,"Velocity":48,"Duration":82566,"SoundDuration":82566,"Delta":94398225},{"NoteNumber":80,"Velocity":48,"Duration":65711,"SoundDuration":65711,"Delta":94464344},{"NoteNumber":83,"Velocity":49,"Duration":65252,"SoundDuration":65252,"Delta":94530055},{"NoteNumber":81,"Velocity":49,"Duration":65252,"SoundDuration":65252,"Delta":94595308},{"NoteNumber":80,"Velocity":70,"Duration":245514,"SoundDuration":245514,"Delta":94660561},{"NoteNumber":40,"Velocity":52,"Duration":669704,"SoundDuration":669704,"Delta":94660561},{"NoteNumber":73,"Velocity":48,"Duration":81711,"SoundDuration":81711,"Delta":94742127},{"NoteNumber":76,"Velocity":48,"Duration":82236,"SoundDuration":82236,"Delta":94823839},{"NoteNumber":85,"Velocity":49,"Duration":82236,"SoundDuration":82236,"Delta":94906076},{"NoteNumber":80,"Velocity":49,"Duration":82725,"SoundDuration":82725,"Delta":94988312},{"NoteNumber":79,"Velocity":50,"Duration":55279,"SoundDuration":55279,"Delta":95071038},{"NoteNumber":80,"Velocity":50,"Duration":55313,"SoundDuration":55313,"Delta":95126317},{"NoteNumber":81,"Velocity":51,"Duration":53937,"SoundDuration":53937,"Delta":95181631},{"NoteNumber":64,"Velocity":48,"Duration":94696,"SoundDuration":94696,"Delta":95235568},{"NoteNumber":73,"Velocity":57,"Duration":94696,"SoundDuration":94696,"Delta":95235568},{"NoteNumber":82,"Velocity":51,"Duration":63131,"SoundDuration":63131,"Delta":95267134},{"NoteNumber":83,"Velocity":52,"Duration":54190,"SoundDuration":54190,"Delta":95330265},{"NoteNumber":61,"Velocity":51,"Duration":326077,"SoundDuration":326077,"Delta":95330265},{"NoteNumber":68,"Velocity":61,"Duration":326077,"SoundDuration":326077,"Delta":95330265},{"NoteNumber":84,"Velocity":52,"Duration":54377,"SoundDuration":54377,"Delta":95384456},{"NoteNumber":85,"Velocity":53,"Duration":54377,"SoundDuration":54377,"Delta":95438833},{"NoteNumber":86,"Velocity":53,"Duration":54377,"SoundDuration":54377,"Delta":95493211},{"NoteNumber":87,"Velocity":53,"Duration":54377,"SoundDuration":54377,"Delta":95547588},{"NoteNumber":88,"Velocity":54,"Duration":54377,"SoundDuration":54377,"Delta":95601966},{"NoteNumber":89,"Velocity":54,"Duration":82918,"SoundDuration":82918,"Delta":95656343},{"NoteNumber":90,"Velocity":55,"Duration":55279,"SoundDuration":55279,"Delta":95711622},{"NoteNumber":91,"Velocity":55,"Duration":82918,"SoundDuration":82918,"Delta":95766901},{"NoteNumber":92,"Velocity":55,"Duration":55279,"SoundDuration":55279,"Delta":95822180},{"NoteNumber":95,"Velocity":56,"Duration":55279,"SoundDuration":55279,"Delta":95877460},{"NoteNumber":93,"Velocity":56,"Duration":82918,"SoundDuration":82918,"Delta":95932739},{"NoteNumber":92,"Velocity":56,"Duration":82918,"SoundDuration":82918,"Delta":95988018},{"NoteNumber":39,"Velocity":52,"Duration":332521,"SoundDuration":332521,"Delta":95988018},{"NoteNumber":84,"Velocity":47,"Duration":82918,"SoundDuration":82918,"Delta":96070937},{"NoteNumber":90,"Velocity":47,"Duration":82918,"SoundDuration":82918,"Delta":96153855},{"NoteNumber":93,"Velocity":47,"Duration":83764,"SoundDuration":83764,"Delta":96236774},{"NoteNumber":92,"Velocity":57,"Duration":84462,"SoundDuration":84462,"Delta":96320539},{"NoteNumber":66,"Velocity":55,"Duration":330678,"SoundDuration":330678,"Delta":96320539},{"NoteNumber":75,"Velocity":61,"Duration":330678,"SoundDuration":330678,"Delta":96320539},{"NoteNumber":84,"Velocity":50,"Duration":83334,"SoundDuration":83334,"Delta":96405002},{"NoteNumber":90,"Velocity":50,"Duration":82102,"SoundDuration":82102,"Delta":96488337},{"NoteNumber":99,"Velocity":50,"Duration":80778,"SoundDuration":80778,"Delta":96570439},{"NoteNumber":92,"Velocity":59,"Duration":81566,"SoundDuration":81566,"Delta":96651218},{"NoteNumber":60,"Velocity":52,"Duration":338499,"SoundDuration":338499,"Delta":96651218},{"NoteNumber":68,"Velocity":65,"Duration":326264,"SoundDuration":326264,"Delta":96651218},{"NoteNumber":84,"Velocity":52,"Duration":81566,"SoundDuration":81566,"Delta":96732784},{"NoteNumber":90,"Velocity":52,"Duration":81566,"SoundDuration":81566,"Delta":96814350},{"NoteNumber":93,"Velocity":52,"Duration":81566,"SoundDuration":81566,"Delta":96895916},{"NoteNumber":92,"Velocity":59,"Duration":81566,"SoundDuration":81566,"Delta":96977482},{"NoteNumber":56,"Velocity":52,"Duration":326264,"SoundDuration":326264,"Delta":96977482},{"NoteNumber":66,"Velocity":62,"Duration":326264,"SoundDuration":326264,"Delta":96977482},{"NoteNumber":84,"Velocity":53,"Duration":81566,"SoundDuration":81566,"Delta":97059048},{"NoteNumber":90,"Velocity":53,"Duration":81566,"SoundDuration":81566,"Delta":97140614},{"NoteNumber":99,"Velocity":53,"Duration":81566,"SoundDuration":81566,"Delta":97222181},{"NoteNumber":92,"Velocity":56,"Duration":81170,"SoundDuration":81170,"Delta":97303747},{"NoteNumber":64,"Velocity":66,"Duration":326277,"SoundDuration":326277,"Delta":97303747},{"NoteNumber":49,"Velocity":52,"Duration":661023,"SoundDuration":661023,"Delta":97303747},{"NoteNumber":85,"Velocity":47,"Duration":81170,"SoundDuration":81170,"Delta":97384917},{"NoteNumber":92,"Velocity":47,"Duration":81700,"SoundDuration":81700,"Delta":97466087},{"NoteNumber":93,"Velocity":47,"Duration":82236,"SoundDuration":82236,"Delta":97547787},{"NoteNumber":92,"Velocity":57,"Duration":82918,"SoundDuration":82918,"Delta":97630024},{"NoteNumber":63,"Velocity":62,"Duration":334746,"SoundDuration":334746,"Delta":97630024},{"NoteNumber":85,"Velocity":50,"Duration":83473,"SoundDuration":83473,"Delta":97712943},{"NoteNumber":92,"Velocity":50,"Duration":84035,"SoundDuration":84035,"Delta":97796416},{"NoteNumber":100,"Velocity":50,"Duration":84319,"SoundDuration":84319,"Delta":97880451},{"NoteNumber":94,"Velocity":59,"Duration":83894,"SoundDuration":83894,"Delta":97964771},{"NoteNumber":64,"Velocity":62,"Duration":345899,"SoundDuration":345899,"Delta":97964771},{"NoteNumber":48,"Velocity":52,"Duration":754731,"SoundDuration":754731,"Delta":97964771},{"NoteNumber":88,"Velocity":52,"Duration":85619,"SoundDuration":85619,"Delta":98048665},{"NoteNumber":94,"Velocity":52,"Duration":87416,"SoundDuration":87416,"Delta":98134285},{"NoteNumber":95,"Velocity":52,"Duration":88969,"SoundDuration":88969,"Delta":98221701},{"NoteNumber":94,"Velocity":59,"Duration":90583,"SoundDuration":90583,"Delta":98310670},{"NoteNumber":66,"Velocity":62,"Duration":408832,"SoundDuration":408832,"Delta":98310670},{"NoteNumber":88,"Velocity":53,"Duration":96590,"SoundDuration":96590,"Delta":98401254},{"NoteNumber":94,"Velocity":53,"Duration":105589,"SoundDuration":105589,"Delta":98497844},{"NoteNumber":100,"Velocity":53,"Duration":116068,"SoundDuration":116068,"Delta":98603433},{"NoteNumber":95,"Velocity":56,"Duration":186237,"SoundDuration":186237,"Delta":98719502},{"NoteNumber":68,"Velocity":69,"Duration":378788,"SoundDuration":378788,"Delta":98719502},{"NoteNumber":47,"Velocity":55,"Duration":378788,"SoundDuration":378788,"Delta":98719502},{"NoteNumber":88,"Velocity":46,"Duration":94696,"SoundDuration":94696,"Delta":98814199},{"NoteNumber":95,"Velocity":47,"Duration":189394,"SoundDuration":189394,"Delta":98908896},{"NoteNumber":100,"Velocity":47,"Duration":94696,"SoundDuration":94696,"Delta":99003593},{"NoteNumber":90,"Velocity":57,"Duration":173121,"SoundDuration":173121,"Delta":99098290},{"NoteNumber":75,"Velocity":57,"Duration":352112,"SoundDuration":352112,"Delta":99098290},{"NoteNumber":78,"Velocity":57,"Duration":352112,"SoundDuration":352112,"Delta":99098290},{"NoteNumber":88,"Velocity":48,"Duration":88028,"SoundDuration":88028,"Delta":99186318},{"NoteNumber":90,"Velocity":49,"Duration":176056,"SoundDuration":176056,"Delta":99274346},{"NoteNumber":100,"Velocity":50,"Duration":88028,"SoundDuration":88028,"Delta":99362374},{"NoteNumber":92,"Velocity":59,"Duration":173121,"SoundDuration":173121,"Delta":99450403},{"NoteNumber":74,"Velocity":60,"Duration":352112,"SoundDuration":352112,"Delta":99450403},{"NoteNumber":80,"Velocity":60,"Duration":352112,"SoundDuration":352112,"Delta":99450403},{"NoteNumber":88,"Velocity":50,"Duration":88028,"SoundDuration":88028,"Delta":99538431},{"NoteNumber":92,"Velocity":50,"Duration":176056,"SoundDuration":176056,"Delta":99626459},{"NoteNumber":100,"Velocity":51,"Duration":88028,"SoundDuration":88028,"Delta":99714487},{"NoteNumber":93,"Velocity":59,"Duration":173121,"SoundDuration":173121,"Delta":99802515},{"NoteNumber":73,"Velocity":62,"Duration":343466,"SoundDuration":343466,"Delta":99802515},{"NoteNumber":76,"Velocity":62,"Duration":343466,"SoundDuration":343466,"Delta":99802515},{"NoteNumber":81,"Velocity":62,"Duration":343466,"SoundDuration":343466,"Delta":99802515},{"NoteNumber":88,"Velocity":52,"Duration":88028,"SoundDuration":88028,"Delta":99890543},{"NoteNumber":93,"Velocity":52,"Duration":218344,"SoundDuration":218344,"Delta":99978571},{"NoteNumber":100,"Velocity":52,"Duration":106737,"SoundDuration":106737,"Delta":100090178},{"NoteNumber":71,"Velocity":58,"Duration":359110,"SoundDuration":359110,"Delta":100145982},{"NoteNumber":76,"Velocity":61,"Duration":340509,"SoundDuration":340509,"Delta":100164583},{"NoteNumber":80,"Velocity":66,"Duration":322719,"SoundDuration":322719,"Delta":100182373},{"NoteNumber":95,"Velocity":62,"Duration":173121,"SoundDuration":173121,"Delta":100196916},{"NoteNumber":83,"Velocity":63,"Duration":308176,"SoundDuration":308176,"Delta":100196916},{"NoteNumber":88,"Velocity":53,"Duration":88028,"SoundDuration":88028,"Delta":100284944},{"NoteNumber":95,"Velocity":54,"Duration":176525,"SoundDuration":176525,"Delta":100372972},{"NoteNumber":100,"Velocity":55,"Duration":88497,"SoundDuration":88497,"Delta":100461001},{"NoteNumber":70,"Velocity":63,"Duration":357634,"SoundDuration":357634,"Delta":100505093},{"NoteNumber":76,"Velocity":65,"Duration":342832,"SoundDuration":342832,"Delta":100519894},{"NoteNumber":79,"Velocity":68,"Duration":328031,"SoundDuration":328031,"Delta":100534696},{"NoteNumber":96,"Velocity":62,"Duration":175428,"SoundDuration":175428,"Delta":100549498},{"NoteNumber":84,"Velocity":70,"Duration":313229,"SoundDuration":313229,"Delta":100549498},{"NoteNumber":88,"Velocity":56,"Duration":89605,"SoundDuration":89605,"Delta":100638308},{"NoteNumber":96,"Velocity":56,"Duration":180021,"SoundDuration":180021,"Delta":100727914},{"NoteNumber":100,"Velocity":56,"Duration":90415,"SoundDuration":90415,"Delta":100817519},{"NoteNumber":70,"Velocity":63,"Duration":365148,"SoundDuration":365148,"Delta":100862727},{"NoteNumber":76,"Velocity":65,"Duration":350078,"SoundDuration":350078,"Delta":100877797},{"NoteNumber":79,"Velocity":67,"Duration":335009,"SoundDuration":335009,"Delta":100892866},{"NoteNumber":97,"Velocity":63,"Duration":178945,"SoundDuration":178945,"Delta":100907935},{"NoteNumber":85,"Velocity":69,"Duration":319940,"SoundDuration":319940,"Delta":100907935},{"NoteNumber":88,"Velocity":55,"Duration":91240,"SoundDuration":91240,"Delta":100998681},{"NoteNumber":97,"Velocity":55,"Duration":183993,"SoundDuration":183993,"Delta":101089922},{"NoteNumber":100,"Velocity":55,"Duration":92080,"SoundDuration":92080,"Delta":101181835},{"NoteNumber":71,"Velocity":64,"Duration":420067,"SoundDuration":420067,"Delta":101227875},{"NoteNumber":78,"Velocity":66,"Duration":404720,"SoundDuration":404720,"Delta":101243222},{"NoteNumber":81,"Velocity":69,"Duration":389373,"SoundDuration":389373,"Delta":101258569},{"NoteNumber":99,"Velocity":61,"Duration":182749,"SoundDuration":182749,"Delta":101273916},{"NoteNumber":87,"Velocity":71,"Duration":374026,"SoundDuration":374026,"Delta":101273916},{"NoteNumber":90,"Velocity":55,"Duration":93111,"SoundDuration":93111,"Delta":101366681},{"NoteNumber":99,"Velocity":55,"Duration":188150,"SoundDuration":188150,"Delta":101459793},{"NoteNumber":102,"Velocity":55,"Duration":94341,"SoundDuration":94341,"Delta":101553601},{"NoteNumber":95,"Velocity":67,"Duration":89073,"SoundDuration":89073,"Delta":101647943},{"NoteNumber":80,"Velocity":69,"Duration":356294,"SoundDuration":356294,"Delta":101647943},{"NoteNumber":76,"Velocity":58,"Duration":720040,"SoundDuration":720040,"Delta":101647943},{"NoteNumber":90,"Velocity":54,"Duration":89073,"SoundDuration":89073,"Delta":101737017},{"NoteNumber":95,"Velocity":54,"Duration":89073,"SoundDuration":89073,"Delta":101826090},{"NoteNumber":102,"Velocity":54,"Duration":89073,"SoundDuration":89073,"Delta":101915164},{"NoteNumber":95,"Velocity":66,"Duration":89073,"SoundDuration":89073,"Delta":102004237},{"NoteNumber":83,"Velocity":63,"Duration":363745,"SoundDuration":363745,"Delta":102004237},{"NoteNumber":88,"Velocity":55,"Duration":89073,"SoundDuration":89073,"Delta":102093311},{"NoteNumber":95,"Velocity":55,"Duration":89073,"SoundDuration":89073,"Delta":102182385},{"NoteNumber":100,"Velocity":55,"Duration":96525,"SoundDuration":96525,"Delta":102271458},{"NoteNumber":95,"Velocity":66,"Duration":88809,"SoundDuration":88809,"Delta":102367983},{"NoteNumber":81,"Velocity":68,"Duration":177620,"SoundDuration":177620,"Delta":102367983},{"NoteNumber":71,"Velocity":57,"Duration":732045,"SoundDuration":732045,"Delta":102367983},{"NoteNumber":78,"Velocity":57,"Duration":732045,"SoundDuration":732045,"Delta":102367983},{"NoteNumber":88,"Velocity":56,"Duration":88810,"SoundDuration":88810,"Delta":102456793},{"NoteNumber":95,"Velocity":56,"Duration":88809,"SoundDuration":88809,"Delta":102545603},{"NoteNumber":100,"Velocity":56,"Duration":88809,"SoundDuration":88809,"Delta":102634413},{"NoteNumber":95,"Velocity":67,"Duration":88810,"SoundDuration":88810,"Delta":102723223},{"NoteNumber":83,"Velocity":60,"Duration":177620,"SoundDuration":177620,"Delta":102723223},{"NoteNumber":87,"Velocity":57,"Duration":88809,"SoundDuration":88809,"Delta":102812033},{"NoteNumber":95,"Velocity":57,"Duration":88809,"SoundDuration":88809,"Delta":102900843},{"NoteNumber":99,"Velocity":57,"Duration":110375,"SoundDuration":110375,"Delta":102989653},{"NoteNumber":95,"Velocity":67,"Duration":89073,"SoundDuration":89073,"Delta":103100029},{"NoteNumber":80,"Velocity":68,"Duration":356294,"SoundDuration":356294,"Delta":103100029},{"NoteNumber":76,"Velocity":57,"Duration":721940,"SoundDuration":721940,"Delta":103100029},{"NoteNumber":90,"Velocity":54,"Duration":89073,"SoundDuration":89073,"Delta":103189102},{"NoteNumber":95,"Velocity":54,"Duration":89073,"SoundDuration":89073,"Delta":103278176},{"NoteNumber":102,"Velocity":54,"Duration":89073,"SoundDuration":89073,"Delta":103367250},{"NoteNumber":95,"Velocity":66,"Duration":89073,"SoundDuration":89073,"Delta":103456323},{"NoteNumber":83,"Velocity":60,"Duration":365646,"SoundDuration":365646,"Delta":103456323},{"NoteNumber":88,"Velocity":55,"Duration":89073,"SoundDuration":89073,"Delta":103545397},{"NoteNumber":95,"Velocity":55,"Duration":89073,"SoundDuration":89073,"Delta":103634470},{"NoteNumber":100,"Velocity":55,"Duration":98425,"SoundDuration":98425,"Delta":103723544},{"NoteNumber":95,"Velocity":66,"Duration":88809,"SoundDuration":88809,"Delta":103821969},{"NoteNumber":81,"Velocity":67,"Duration":177620,"SoundDuration":177620,"Delta":103821969},{"NoteNumber":71,"Velocity":56,"Duration":728953,"SoundDuration":728953,"Delta":103821969},{"NoteNumber":78,"Velocity":56,"Duration":728953,"SoundDuration":728953,"Delta":103821969},{"NoteNumber":88,"Velocity":56,"Duration":88810,"SoundDuration":88810,"Delta":103910779},{"NoteNumber":95,"Velocity":56,"Duration":88809,"SoundDuration":88809,"Delta":103999589},{"NoteNumber":100,"Velocity":56,"Duration":88809,"SoundDuration":88809,"Delta":104088399},{"NoteNumber":95,"Velocity":67,"Duration":88810,"SoundDuration":88810,"Delta":104177209},{"NoteNumber":83,"Velocity":61,"Duration":177620,"SoundDuration":177620,"Delta":104177209},{"NoteNumber":87,"Velocity":57,"Duration":88809,"SoundDuration":88809,"Delta":104266019},{"NoteNumber":95,"Velocity":57,"Duration":88809,"SoundDuration":88809,"Delta":104354829},{"NoteNumber":99,"Velocity":57,"Duration":107283,"SoundDuration":107283,"Delta":104443639},{"NoteNumber":95,"Velocity":63,"Duration":86755,"SoundDuration":86755,"Delta":104550923},{"NoteNumber":90,"Velocity":65,"Duration":173611,"SoundDuration":173611,"Delta":104550923},{"NoteNumber":80,"Velocity":65,"Duration":173611,"SoundDuration":173611,"Delta":104550923},{"NoteNumber":76,"Velocity":55,"Duration":704522,"SoundDuration":704522,"Delta":104550923},{"NoteNumber":102,"Velocity":51,"Duration":86856,"SoundDuration":86856,"Delta":104637678},{"NoteNumber":95,"Velocity":50,"Duration":87514,"SoundDuration":87514,"Delta":104724535},{"NoteNumber":102,"Velocity":49,"Duration":87707,"SoundDuration":87707,"Delta":104812049},{"NoteNumber":88,"Velocity":63,"Duration":177007,"SoundDuration":177007,"Delta":104899757},{"NoteNumber":95,"Velocity":60,"Duration":88287,"SoundDuration":88287,"Delta":104899757},{"NoteNumber":83,"Velocity":57,"Duration":177007,"SoundDuration":177007,"Delta":104899757},{"NoteNumber":100,"Velocity":50,"Duration":88719,"SoundDuration":88719,"Delta":104988044},{"NoteNumber":95,"Velocity":49,"Duration":89073,"SoundDuration":89073,"Delta":105076764},{"NoteNumber":100,"Velocity":49,"Duration":89607,"SoundDuration":89607,"Delta":105165838},{"NoteNumber":88,"Velocity":61,"Duration":180373,"SoundDuration":180373,"Delta":105255445},{"NoteNumber":95,"Velocity":58,"Duration":89874,"SoundDuration":89874,"Delta":105255445},{"NoteNumber":81,"Velocity":60,"Duration":180373,"SoundDuration":180373,"Delta":105255445},{"NoteNumber":71,"Velocity":51,"Duration":752156,"SoundDuration":752156,"Delta":105255445},{"NoteNumber":78,"Velocity":51,"Duration":752156,"SoundDuration":752156,"Delta":105255445},{"NoteNumber":100,"Velocity":49,"Duration":90499,"SoundDuration":90499,"Delta":105345319},{"NoteNumber":95,"Velocity":49,"Duration":90758,"SoundDuration":90758,"Delta":105435818},{"NoteNumber":100,"Velocity":49,"Duration":91519,"SoundDuration":91519,"Delta":105526577},{"NoteNumber":87,"Velocity":59,"Duration":184038,"SoundDuration":184038,"Delta":105618096},{"NoteNumber":95,"Velocity":57,"Duration":91674,"SoundDuration":91674,"Delta":105618096},{"NoteNumber":83,"Velocity":52,"Duration":184038,"SoundDuration":184038,"Delta":105618096},{"NoteNumber":99,"Velocity":49,"Duration":92364,"SoundDuration":92364,"Delta":105709770},{"NoteNumber":95,"Velocity":48,"Duration":93680,"SoundDuration":93680,"Delta":105802135},{"NoteNumber":99,"Velocity":48,"Duration":111786,"SoundDuration":111786,"Delta":105895815},{"NoteNumber":90,"Velocity":58,"Duration":183503,"SoundDuration":183503,"Delta":106007602},{"NoteNumber":95,"Velocity":57,"Duration":91519,"SoundDuration":91519,"Delta":106007602},{"NoteNumber":80,"Velocity":57,"Duration":183503,"SoundDuration":183503,"Delta":106007602},{"NoteNumber":76,"Velocity":48,"Duration":749287,"SoundDuration":749287,"Delta":106007602},{"NoteNumber":102,"Velocity":45,"Duration":91984,"SoundDuration":91984,"Delta":106099121},{"NoteNumber":95,"Velocity":44,"Duration":92622,"SoundDuration":92622,"Delta":106191105},{"NoteNumber":102,"Velocity":44,"Duration":93254,"SoundDuration":93254,"Delta":106283728},{"NoteNumber":95,"Velocity":54,"Duration":94102,"SoundDuration":94102,"Delta":106376983},{"NoteNumber":88,"Velocity":57,"Duration":188697,"SoundDuration":188697,"Delta":106376983},{"NoteNumber":83,"Velocity":49,"Duration":188697,"SoundDuration":188697,"Delta":106376983},{"NoteNumber":100,"Velocity":44,"Duration":94594,"SoundDuration":94594,"Delta":106471086},{"NoteNumber":95,"Velocity":44,"Duration":95270,"SoundDuration":95270,"Delta":106565680},{"NoteNumber":100,"Velocity":43,"Duration":95938,"SoundDuration":95938,"Delta":106660950},{"NoteNumber":88,"Velocity":54,"Duration":194956,"SoundDuration":194956,"Delta":106756889},{"NoteNumber":95,"Velocity":52,"Duration":96836,"SoundDuration":96836,"Delta":106756889},{"NoteNumber":81,"Velocity":53,"Duration":194956,"SoundDuration":194956,"Delta":106756889},{"NoteNumber":71,"Velocity":44,"Duration":802358,"SoundDuration":802358,"Delta":106756889},{"NoteNumber":78,"Velocity":44,"Duration":802358,"SoundDuration":802358,"Delta":106756889},{"NoteNumber":100,"Velocity":44,"Duration":98120,"SoundDuration":98120,"Delta":106853726},{"NoteNumber":95,"Velocity":43,"Duration":99569,"SoundDuration":99569,"Delta":106951846},{"NoteNumber":100,"Velocity":42,"Duration":100401,"SoundDuration":100401,"Delta":107051416},{"NoteNumber":87,"Velocity":53,"Duration":202330,"SoundDuration":202330,"Delta":107151818},{"NoteNumber":95,"Velocity":51,"Duration":100910,"SoundDuration":100910,"Delta":107151818},{"NoteNumber":83,"Velocity":47,"Duration":202330,"SoundDuration":202330,"Delta":107151818},{"NoteNumber":99,"Velocity":43,"Duration":101419,"SoundDuration":101419,"Delta":107252728},{"NoteNumber":95,"Velocity":42,"Duration":102285,"SoundDuration":102285,"Delta":107354148},{"NoteNumber":99,"Velocity":38,"Duration":102813,"SoundDuration":102813,"Delta":107456434},{"NoteNumber":76,"Velocity":49,"Duration":101490,"SoundDuration":101490,"Delta":107559248},{"NoteNumber":80,"Velocity":49,"Duration":100320,"SoundDuration":100320,"Delta":107660738},{"NoteNumber":88,"Velocity":49,"Duration":99159,"SoundDuration":99159,"Delta":107761058},{"NoteNumber":95,"Velocity":49,"Duration":97741,"SoundDuration":97741,"Delta":107860218},{"NoteNumber":102,"Velocity":49,"Duration":96387,"SoundDuration":96387,"Delta":107957959},{"NoteNumber":100,"Velocity":49,"Duration":95330,"SoundDuration":95330,"Delta":108054347},{"NoteNumber":95,"Velocity":49,"Duration":93974,"SoundDuration":93974,"Delta":108149678},{"NoteNumber":94,"Velocity":49,"Duration":92681,"SoundDuration":92681,"Delta":108243653},{"NoteNumber":97,"Velocity":50,"Duration":91519,"SoundDuration":91519,"Delta":108336334},{"NoteNumber":95,"Velocity":50,"Duration":91173,"SoundDuration":91173,"Delta":108427854},{"NoteNumber":92,"Velocity":50,"Duration":90689,"SoundDuration":90689,"Delta":108519027},{"NoteNumber":91,"Velocity":50,"Duration":90091,"SoundDuration":90091,"Delta":108609716},{"NoteNumber":93,"Velocity":51,"Duration":89834,"SoundDuration":89834,"Delta":108699808},{"NoteNumber":92,"Velocity":51,"Duration":89073,"SoundDuration":89073,"Delta":108789642},{"NoteNumber":88,"Velocity":51,"Duration":88785,"SoundDuration":88785,"Delta":108878716},{"NoteNumber":87,"Velocity":51,"Duration":88287,"SoundDuration":88287,"Delta":108967501},{"NoteNumber":90,"Velocity":52,"Duration":87759,"SoundDuration":87759,"Delta":109055788},{"NoteNumber":88,"Velocity":52,"Duration":87514,"SoundDuration":87514,"Delta":109143547},{"NoteNumber":83,"Velocity":52,"Duration":86755,"SoundDuration":86755,"Delta":109231062},{"NoteNumber":82,"Velocity":53,"Duration":86519,"SoundDuration":86519,"Delta":109317817},{"NoteNumber":85,"Velocity":53,"Duration":86009,"SoundDuration":86009,"Delta":109404336},{"NoteNumber":83,"Velocity":53,"Duration":85234,"SoundDuration":85234,"Delta":109490346},{"NoteNumber":80,"Velocity":53,"Duration":83845,"SoundDuration":83845,"Delta":109575580},{"NoteNumber":79,"Velocity":54,"Duration":83845,"SoundDuration":83845,"Delta":109659426},{"NoteNumber":81,"Velocity":54,"Duration":83845,"SoundDuration":83845,"Delta":109743272},{"NoteNumber":80,"Velocity":54,"Duration":83845,"SoundDuration":83845,"Delta":109827118},{"NoteNumber":76,"Velocity":54,"Duration":83845,"SoundDuration":83845,"Delta":109910963},{"NoteNumber":75,"Velocity":55,"Duration":83845,"SoundDuration":83845,"Delta":109994809},{"NoteNumber":78,"Velocity":55,"Duration":83845,"SoundDuration":83845,"Delta":110078655},{"NoteNumber":76,"Velocity":55,"Duration":83845,"SoundDuration":83845,"Delta":110162501},{"NoteNumber":71,"Velocity":55,"Duration":83845,"SoundDuration":83845,"Delta":110246346},{"NoteNumber":70,"Velocity":56,"Duration":83508,"SoundDuration":83508,"Delta":110330192},{"NoteNumber":73,"Velocity":56,"Duration":80472,"SoundDuration":80472,"Delta":110413701},{"NoteNumber":71,"Velocity":56,"Duration":80472,"SoundDuration":80472,"Delta":110494173},{"NoteNumber":68,"Velocity":57,"Duration":80852,"SoundDuration":80852,"Delta":110574645},{"NoteNumber":67,"Velocity":57,"Duration":81124,"SoundDuration":81124,"Delta":110655498},{"NoteNumber":69,"Velocity":57,"Duration":81445,"SoundDuration":81445,"Delta":110736623},{"NoteNumber":68,"Velocity":58,"Duration":81788,"SoundDuration":81788,"Delta":110818068},{"NoteNumber":64,"Velocity":59,"Duration":82035,"SoundDuration":82035,"Delta":110899857},{"NoteNumber":63,"Velocity":60,"Duration":82462,"SoundDuration":82462,"Delta":110981892},{"NoteNumber":66,"Velocity":60,"Duration":99275,"SoundDuration":99275,"Delta":111064355},{"NoteNumber":64,"Velocity":60,"Duration":99778,"SoundDuration":99778,"Delta":111147001},{"NoteNumber":59,"Velocity":60,"Duration":100033,"SoundDuration":100033,"Delta":111230150},{"NoteNumber":58,"Velocity":61,"Duration":100614,"SoundDuration":100614,"Delta":111313414},{"NoteNumber":61,"Velocity":61,"Duration":100614,"SoundDuration":100614,"Delta":111397260},{"NoteNumber":59,"Velocity":61,"Duration":101205,"SoundDuration":101205,"Delta":111481106},{"NoteNumber":56,"Velocity":62,"Duration":101465,"SoundDuration":101465,"Delta":111565400},{"NoteNumber":55,"Velocity":62,"Duration":101994,"SoundDuration":101994,"Delta":111649955},{"NoteNumber":57,"Velocity":62,"Duration":85275,"SoundDuration":85275,"Delta":111734894},{"NoteNumber":56,"Velocity":63,"Duration":85581,"SoundDuration":85581,"Delta":111820170},{"NoteNumber":52,"Velocity":66,"Duration":86009,"SoundDuration":86009,"Delta":111905751},{"NoteNumber":51,"Velocity":64,"Duration":86245,"SoundDuration":86245,"Delta":111991761},{"NoteNumber":54,"Velocity":62,"Duration":86755,"SoundDuration":86755,"Delta":112078006},{"NoteNumber":52,"Velocity":60,"Duration":86919,"SoundDuration":86919,"Delta":112164761},{"NoteNumber":47,"Velocity":58,"Duration":87797,"SoundDuration":87797,"Delta":112251681},{"NoteNumber":46,"Velocity":56,"Duration":88706,"SoundDuration":88706,"Delta":112339479},{"NoteNumber":49,"Velocity":54,"Duration":89838,"SoundDuration":89838,"Delta":112428186},{"NoteNumber":47,"Velocity":52,"Duration":91746,"SoundDuration":91746,"Delta":112518024},{"NoteNumber":44,"Velocity":50,"Duration":98067,"SoundDuration":98067,"Delta":112609770},{"NoteNumber":39,"Velocity":49,"Duration":101772,"SoundDuration":101772,"Delta":112707838},{"NoteNumber":40,"Velocity":44,"Duration":108440,"SoundDuration":108440,"Delta":112809610},{"NoteNumber":47,"Velocity":46,"Duration":103143,"SoundDuration":103143,"Delta":112918051},{"NoteNumber":52,"Velocity":49,"Duration":97539,"SoundDuration":97539,"Delta":113022679},{"NoteNumber":56,"Velocity":51,"Duration":93095,"SoundDuration":93095,"Delta":113120218},{"NoteNumber":59,"Velocity":49,"Duration":91330,"SoundDuration":91330,"Delta":113213314},{"NoteNumber":64,"Velocity":50,"Duration":90788,"SoundDuration":90788,"Delta":113304645},{"NoteNumber":68,"Velocity":51,"Duration":90426,"SoundDuration":90426,"Delta":113395433},{"NoteNumber":71,"Velocity":52,"Duration":89860,"SoundDuration":89860,"Delta":113487201},{"NoteNumber":76,"Velocity":53,"Duration":89335,"SoundDuration":89335,"Delta":113577061},{"NoteNumber":80,"Velocity":54,"Duration":88985,"SoundDuration":88985,"Delta":113666397},{"NoteNumber":83,"Velocity":56,"Duration":88313,"SoundDuration":88313,"Delta":113755382},{"NoteNumber":88,"Velocity":57,"Duration":87058,"SoundDuration":87058,"Delta":113843696},{"NoteNumber":95,"Velocity":58,"Duration":87877,"SoundDuration":87877,"Delta":113932054},{"NoteNumber":92,"Velocity":59,"Duration":88500,"SoundDuration":88500,"Delta":114019931},{"NoteNumber":88,"Velocity":59,"Duration":89389,"SoundDuration":89389,"Delta":114108431},{"NoteNumber":83,"Velocity":58,"Duration":90284,"SoundDuration":90284,"Delta":114197821},{"NoteNumber":80,"Velocity":57,"Duration":90921,"SoundDuration":90921,"Delta":114288106},{"NoteNumber":76,"Velocity":56,"Duration":91869,"SoundDuration":91869,"Delta":114380390},{"NoteNumber":71,"Velocity":55,"Duration":92691,"SoundDuration":92691,"Delta":114472260},{"NoteNumber":68,"Velocity":54,"Duration":94699,"SoundDuration":94699,"Delta":114564952},{"NoteNumber":64,"Velocity":52,"Duration":96893,"SoundDuration":96893,"Delta":114659651},{"NoteNumber":59,"Velocity":51,"Duration":99207,"SoundDuration":99207,"Delta":114756545},{"NoteNumber":56,"Velocity":42,"Duration":101592,"SoundDuration":101592,"Delta":114857250},{"NoteNumber":52,"Velocity":42,"Duration":104107,"SoundDuration":104107,"Delta":114958842},{"NoteNumber":47,"Velocity":42,"Duration":106597,"SoundDuration":106597,"Delta":115062950},{"NoteNumber":40,"Velocity":72,"Duration":83658,"SoundDuration":83658,"Delta":115169547},{"NoteNumber":42,"Velocity":43,"Duration":83658,"SoundDuration":83658,"Delta":115336864},{"NoteNumber":44,"Velocity":43,"Duration":79660,"SoundDuration":79660,"Delta":115500183},{"NoteNumber":45,"Velocity":43,"Duration":92994,"SoundDuration":92994,"Delta":115659503},{"NoteNumber":49,"Velocity":44,"Duration":80949,"SoundDuration":80949,"Delta":115752498},{"NoteNumber":47,"Velocity":47,"Duration":80949,"SoundDuration":80949,"Delta":115833448},{"NoteNumber":46,"Velocity":40,"Duration":80949,"SoundDuration":80949,"Delta":115995347},{"NoteNumber":47,"Velocity":40,"Duration":80949,"SoundDuration":80949,"Delta":116157247},{"NoteNumber":50,"Velocity":40,"Duration":86555,"SoundDuration":86555,"Delta":116324751},{"NoteNumber":50,"Velocity":48,"Duration":144880,"SoundDuration":144880,"Delta":116497862},{"NoteNumber":48,"Velocity":47,"Duration":883651,"SoundDuration":883651,"Delta":116884211},{"NoteNumber":52,"Velocity":29,"Duration":883651,"SoundDuration":883651,"Delta":117326037},{"NoteNumber":56,"Velocity":29,"Duration":883651,"SoundDuration":883651,"Delta":117326037},{"NoteNumber":62,"Velocity":29,"Duration":883651,"SoundDuration":883651,"Delta":117326037},{"NoteNumber":64,"Velocity":36,"Duration":883651,"SoundDuration":883651,"Delta":117326037},{"NoteNumber":47,"Velocity":43,"Duration":441826,"SoundDuration":441826,"Delta":117767863},{"NoteNumber":40,"Velocity":43,"Duration":88862,"SoundDuration":88862,"Delta":118551502},{"NoteNumber":42,"Velocity":43,"Duration":81610,"SoundDuration":81610,"Delta":118721975},{"NoteNumber":44,"Velocity":43,"Duration":92994,"SoundDuration":92994,"Delta":118885196},{"NoteNumber":47,"Velocity":44,"Duration":80949,"SoundDuration":80949,"Delta":118978191},{"NoteNumber":45,"Velocity":50,"Duration":80949,"SoundDuration":80949,"Delta":119059140},{"NoteNumber":44,"Velocity":40,"Duration":80949,"SoundDuration":80949,"Delta":119221040},{"NoteNumber":45,"Velocity":40,"Duration":80949,"SoundDuration":80949,"Delta":119382939},{"NoteNumber":48,"Velocity":40,"Duration":86555,"SoundDuration":86555,"Delta":119550444},{"NoteNumber":47,"Velocity":48,"Duration":140801,"SoundDuration":140801,"Delta":119723555},{"NoteNumber":45,"Velocity":47,"Duration":870508,"SoundDuration":870508,"Delta":120099024},{"NoteNumber":52,"Velocity":29,"Duration":1247611,"SoundDuration":1247611,"Delta":120517726},{"NoteNumber":57,"Velocity":29,"Duration":1247611,"SoundDuration":1247611,"Delta":120517726},{"NoteNumber":60,"Velocity":29,"Duration":1247611,"SoundDuration":1247611,"Delta":120517726},{"NoteNumber":64,"Velocity":36,"Duration":1247611,"SoundDuration":1247611,"Delta":120517726},{"NoteNumber":45,"Velocity":43,"Duration":795804,"SoundDuration":795804,"Delta":120969533},{"NoteNumber":35,"Velocity":54,"Duration":93516,"SoundDuration":93516,"Delta":121765338},{"NoteNumber":36,"Velocity":44,"Duration":93516,"SoundDuration":93516,"Delta":121952370},{"NoteNumber":39,"Velocity":44,"Duration":87770,"SoundDuration":87770,"Delta":122133657},{"NoteNumber":40,"Velocity":45,"Duration":102529,"SoundDuration":102529,"Delta":122309198},{"NoteNumber":45,"Velocity":46,"Duration":86256,"SoundDuration":86256,"Delta":122411727},{"NoteNumber":43,"Velocity":54,"Duration":86256,"SoundDuration":86256,"Delta":122497984},{"NoteNumber":42,"Velocity":43,"Duration":86256,"SoundDuration":86256,"Delta":122670497},{"NoteNumber":43,"Velocity":43,"Duration":86256,"SoundDuration":86256,"Delta":122843010},{"NoteNumber":45,"Velocity":43,"Duration":91799,"SoundDuration":91799,"Delta":123021066},{"NoteNumber":43,"Velocity":51,"Duration":148612,"SoundDuration":148612,"Delta":123204664},{"NoteNumber":42,"Velocity":49,"Duration":957733,"SoundDuration":957733,"Delta":123600965},{"NoteNumber":54,"Velocity":29,"Duration":1416437,"SoundDuration":1416437,"Delta":124042791},{"NoteNumber":58,"Velocity":29,"Duration":1416437,"SoundDuration":1416437,"Delta":124042791},{"NoteNumber":64,"Velocity":29,"Duration":1416437,"SoundDuration":1416437,"Delta":124042791},{"NoteNumber":66,"Velocity":36,"Duration":1416437,"SoundDuration":1416437,"Delta":124042791},{"NoteNumber":42,"Velocity":46,"Duration":900530,"SoundDuration":900530,"Delta":124558698},{"NoteNumber":35,"Velocity":49,"Duration":107603,"SoundDuration":107603,"Delta":125459229},{"NoteNumber":37,"Velocity":43,"Duration":107603,"SoundDuration":107603,"Delta":125674437},{"NoteNumber":39,"Velocity":43,"Duration":96215,"SoundDuration":96215,"Delta":125878256},{"NoteNumber":40,"Velocity":43,"Duration":106913,"SoundDuration":106913,"Delta":126070687},{"NoteNumber":43,"Velocity":44,"Duration":96215,"SoundDuration":96215,"Delta":126177601},{"NoteNumber":42,"Velocity":50,"Duration":100468,"SoundDuration":100468,"Delta":126273817},{"NoteNumber":40,"Velocity":40,"Duration":100468,"SoundDuration":100468,"Delta":126474754},{"NoteNumber":42,"Velocity":40,"Duration":100468,"SoundDuration":100468,"Delta":126675692},{"NoteNumber":47,"Velocity":40,"Duration":111193,"SoundDuration":111193,"Delta":126887354},{"NoteNumber":57,"Velocity":28,"Duration":253378,"SoundDuration":253378,"Delta":127196437},{"NoteNumber":63,"Velocity":30,"Duration":253378,"SoundDuration":253378,"Delta":127196437},{"NoteNumber":71,"Velocity":36,"Duration":253378,"SoundDuration":253378,"Delta":127196437},{"NoteNumber":76,"Velocity":57,"Duration":80429,"SoundDuration":80429,"Delta":129223465},{"NoteNumber":88,"Velocity":65,"Duration":80429,"SoundDuration":80429,"Delta":129223465},{"NoteNumber":40,"Velocity":43,"Duration":160857,"SoundDuration":160857,"Delta":129223465},{"NoteNumber":52,"Velocity":43,"Duration":160857,"SoundDuration":160857,"Delta":129223465},{"NoteNumber":78,"Velocity":49,"Duration":80429,"SoundDuration":80429,"Delta":129384323},{"NoteNumber":90,"Velocity":56,"Duration":80429,"SoundDuration":80429,"Delta":129384323},{"NoteNumber":80,"Velocity":49,"Duration":75566,"SoundDuration":75566,"Delta":129540319},{"NoteNumber":92,"Velocity":56,"Duration":75566,"SoundDuration":75566,"Delta":129540319},{"NoteNumber":64,"Velocity":33,"Duration":151133,"SoundDuration":151133,"Delta":129540319},{"NoteNumber":62,"Velocity":33,"Duration":151133,"SoundDuration":151133,"Delta":129540319},{"NoteNumber":81,"Velocity":49,"Duration":92994,"SoundDuration":92994,"Delta":129691452},{"NoteNumber":93,"Velocity":56,"Duration":92994,"SoundDuration":92994,"Delta":129691452},{"NoteNumber":85,"Velocity":57,"Duration":80949,"SoundDuration":80949,"Delta":129784447},{"NoteNumber":83,"Velocity":54,"Duration":75452,"SoundDuration":75452,"Delta":129865396},{"NoteNumber":95,"Velocity":62,"Duration":75452,"SoundDuration":75452,"Delta":129865396},{"NoteNumber":56,"Velocity":40,"Duration":150905,"SoundDuration":150905,"Delta":129865396},{"NoteNumber":82,"Velocity":46,"Duration":75452,"SoundDuration":75452,"Delta":130016302},{"NoteNumber":94,"Velocity":52,"Duration":75452,"SoundDuration":75452,"Delta":130016302},{"NoteNumber":83,"Velocity":46,"Duration":75452,"SoundDuration":75452,"Delta":130167207},{"NoteNumber":95,"Velocity":52,"Duration":75452,"SoundDuration":75452,"Delta":130167207},{"NoteNumber":64,"Velocity":32,"Duration":157196,"SoundDuration":157196,"Delta":130167207},{"NoteNumber":62,"Velocity":32,"Duration":157196,"SoundDuration":157196,"Delta":130167207},{"NoteNumber":86,"Velocity":46,"Duration":81743,"SoundDuration":81743,"Delta":130324404},{"NoteNumber":98,"Velocity":52,"Duration":81743,"SoundDuration":81743,"Delta":130324404},{"NoteNumber":86,"Velocity":55,"Duration":176159,"SoundDuration":176159,"Delta":130487892},{"NoteNumber":98,"Velocity":63,"Duration":176159,"SoundDuration":176159,"Delta":130487892},{"NoteNumber":52,"Velocity":43,"Duration":176159,"SoundDuration":176159,"Delta":130487892},{"NoteNumber":85,"Velocity":59,"Duration":670782,"SoundDuration":670782,"Delta":130840211},{"NoteNumber":97,"Velocity":67,"Duration":670782,"SoundDuration":670782,"Delta":130840211},{"NoteNumber":64,"Velocity":34,"Duration":174013,"SoundDuration":174013,"Delta":130840211},{"NoteNumber":62,"Velocity":34,"Duration":174013,"SoundDuration":174013,"Delta":130840211},{"NoteNumber":56,"Velocity":43,"Duration":161376,"SoundDuration":161376,"Delta":131188239},{"NoteNumber":83,"Velocity":49,"Duration":483611,"SoundDuration":483611,"Delta":131510993},{"NoteNumber":95,"Velocity":56,"Duration":483611,"SoundDuration":483611,"Delta":131510993},{"NoteNumber":64,"Velocity":36,"Duration":161376,"SoundDuration":161376,"Delta":131510993},{"NoteNumber":62,"Velocity":36,"Duration":161376,"SoundDuration":161376,"Delta":131510993},{"NoteNumber":45,"Velocity":43,"Duration":160857,"SoundDuration":160857,"Delta":131833747},{"NoteNumber":76,"Velocity":49,"Duration":80429,"SoundDuration":80429,"Delta":131994605},{"NoteNumber":88,"Velocity":56,"Duration":80429,"SoundDuration":80429,"Delta":131994605},{"NoteNumber":78,"Velocity":49,"Duration":75566,"SoundDuration":75566,"Delta":132150601},{"NoteNumber":90,"Velocity":56,"Duration":75566,"SoundDuration":75566,"Delta":132150601},{"NoteNumber":64,"Velocity":33,"Duration":151133,"SoundDuration":151133,"Delta":132150601},{"NoteNumber":60,"Velocity":33,"Duration":151133,"SoundDuration":151133,"Delta":132150601},{"NoteNumber":80,"Velocity":49,"Duration":92994,"SoundDuration":92994,"Delta":132301735},{"NoteNumber":92,"Velocity":56,"Duration":92994,"SoundDuration":92994,"Delta":132301735},{"NoteNumber":83,"Velocity":57,"Duration":80949,"SoundDuration":80949,"Delta":132394729},{"NoteNumber":81,"Velocity":54,"Duration":75452,"SoundDuration":75452,"Delta":132475679},{"NoteNumber":93,"Velocity":62,"Duration":75452,"SoundDuration":75452,"Delta":132475679},{"NoteNumber":57,"Velocity":40,"Duration":150905,"SoundDuration":150905,"Delta":132475679},{"NoteNumber":80,"Velocity":46,"Duration":75452,"SoundDuration":75452,"Delta":132626584},{"NoteNumber":92,"Velocity":52,"Duration":75452,"SoundDuration":75452,"Delta":132626584},{"NoteNumber":81,"Velocity":46,"Duration":75452,"SoundDuration":75452,"Delta":132777490},{"NoteNumber":93,"Velocity":52,"Duration":75452,"SoundDuration":75452,"Delta":132777490},{"NoteNumber":64,"Velocity":32,"Duration":157196,"SoundDuration":157196,"Delta":132777490},{"NoteNumber":60,"Velocity":32,"Duration":157196,"SoundDuration":157196,"Delta":132777490},{"NoteNumber":84,"Velocity":46,"Duration":81743,"SoundDuration":81743,"Delta":132934686},{"NoteNumber":96,"Velocity":52,"Duration":81743,"SoundDuration":81743,"Delta":132934686},{"NoteNumber":83,"Velocity":55,"Duration":177725,"SoundDuration":177725,"Delta":133098174},{"NoteNumber":95,"Velocity":63,"Duration":177725,"SoundDuration":177725,"Delta":133098174},{"NoteNumber":52,"Velocity":43,"Duration":177725,"SoundDuration":177725,"Delta":133098174},{"NoteNumber":81,"Velocity":59,"Duration":670405,"SoundDuration":670405,"Delta":133453624},{"NoteNumber":93,"Velocity":67,"Duration":670405,"SoundDuration":670405,"Delta":133453624},{"NoteNumber":64,"Velocity":34,"Duration":172513,"SoundDuration":172513,"Delta":133453624},{"NoteNumber":60,"Velocity":34,"Duration":172513,"SoundDuration":172513,"Delta":133453624},{"NoteNumber":57,"Velocity":43,"Duration":162689,"SoundDuration":162689,"Delta":133798650},{"NoteNumber":81,"Velocity":49,"Duration":325379,"SoundDuration":325379,"Delta":134124030},{"NoteNumber":93,"Velocity":56,"Duration":325379,"SoundDuration":325379,"Delta":134124030},{"NoteNumber":64,"Velocity":36,"Duration":162689,"SoundDuration":162689,"Delta":134124030},{"NoteNumber":60,"Velocity":36,"Duration":162689,"SoundDuration":162689,"Delta":134124030},{"NoteNumber":71,"Velocity":57,"Duration":80429,"SoundDuration":80429,"Delta":134449409},{"NoteNumber":83,"Velocity":65,"Duration":80429,"SoundDuration":80429,"Delta":134449409},{"NoteNumber":47,"Velocity":43,"Duration":160857,"SoundDuration":160857,"Delta":134449409},{"NoteNumber":72,"Velocity":49,"Duration":80429,"SoundDuration":80429,"Delta":134610267},{"NoteNumber":84,"Velocity":56,"Duration":80429,"SoundDuration":80429,"Delta":134610267},{"NoteNumber":75,"Velocity":49,"Duration":75566,"SoundDuration":75566,"Delta":134766263},{"NoteNumber":87,"Velocity":56,"Duration":75566,"SoundDuration":75566,"Delta":134766263},{"NoteNumber":64,"Velocity":33,"Duration":151133,"SoundDuration":151133,"Delta":134766263},{"NoteNumber":59,"Velocity":33,"Duration":151133,"SoundDuration":151133,"Delta":134766263},{"NoteNumber":76,"Velocity":49,"Duration":92994,"SoundDuration":92994,"Delta":134917396},{"NoteNumber":88,"Velocity":56,"Duration":92994,"SoundDuration":92994,"Delta":134917396},{"NoteNumber":81,"Velocity":57,"Duration":80949,"SoundDuration":80949,"Delta":135010391},{"NoteNumber":79,"Velocity":54,"Duration":75452,"SoundDuration":75452,"Delta":135091340},{"NoteNumber":91,"Velocity":62,"Duration":75452,"SoundDuration":75452,"Delta":135091340},{"NoteNumber":55,"Velocity":40,"Duration":150905,"SoundDuration":150905,"Delta":135091340},{"NoteNumber":78,"Velocity":46,"Duration":75452,"SoundDuration":75452,"Delta":135242246},{"NoteNumber":90,"Velocity":52,"Duration":75452,"SoundDuration":75452,"Delta":135242246},{"NoteNumber":79,"Velocity":46,"Duration":75452,"SoundDuration":75452,"Delta":135393151},{"NoteNumber":91,"Velocity":52,"Duration":75452,"SoundDuration":75452,"Delta":135393151},{"NoteNumber":64,"Velocity":32,"Duration":157196,"SoundDuration":157196,"Delta":135393151},{"NoteNumber":59,"Velocity":32,"Duration":157196,"SoundDuration":157196,"Delta":135393151},{"NoteNumber":81,"Velocity":46,"Duration":81743,"SoundDuration":81743,"Delta":135550348},{"NoteNumber":93,"Velocity":52,"Duration":81743,"SoundDuration":81743,"Delta":135550348},{"NoteNumber":79,"Velocity":55,"Duration":180940,"SoundDuration":180940,"Delta":135713836},{"NoteNumber":91,"Velocity":63,"Duration":180940,"SoundDuration":180940,"Delta":135713836},{"NoteNumber":49,"Velocity":43,"Duration":180940,"SoundDuration":180940,"Delta":135713836},{"NoteNumber":78,"Velocity":59,"Duration":673407,"SoundDuration":673407,"Delta":136075718},{"NoteNumber":90,"Velocity":67,"Duration":673407,"SoundDuration":673407,"Delta":136075718},{"NoteNumber":64,"Velocity":34,"Duration":174013,"SoundDuration":174013,"Delta":136075718},{"NoteNumber":58,"Velocity":34,"Duration":174013,"SoundDuration":174013,"Delta":136075718},{"NoteNumber":48,"Velocity":43,"Duration":162689,"SoundDuration":162689,"Delta":136423746},{"NoteNumber":78,"Velocity":49,"Duration":325379,"SoundDuration":325379,"Delta":136749125},{"NoteNumber":90,"Velocity":56,"Duration":325379,"SoundDuration":325379,"Delta":136749125},{"NoteNumber":64,"Velocity":36,"Duration":162689,"SoundDuration":162689,"Delta":136749125},{"NoteNumber":58,"Velocity":36,"Duration":162689,"SoundDuration":162689,"Delta":136749125},{"NoteNumber":71,"Velocity":57,"Duration":80429,"SoundDuration":80429,"Delta":137074505},{"NoteNumber":83,"Velocity":65,"Duration":80429,"SoundDuration":80429,"Delta":137074505},{"NoteNumber":47,"Velocity":43,"Duration":160857,"SoundDuration":160857,"Delta":137074505},{"NoteNumber":72,"Velocity":49,"Duration":80429,"SoundDuration":80429,"Delta":137235363},{"NoteNumber":84,"Velocity":56,"Duration":80429,"SoundDuration":80429,"Delta":137235363},{"NoteNumber":75,"Velocity":49,"Duration":75566,"SoundDuration":75566,"Delta":137391359},{"NoteNumber":87,"Velocity":56,"Duration":75566,"SoundDuration":75566,"Delta":137391359},{"NoteNumber":63,"Velocity":33,"Duration":151133,"SoundDuration":151133,"Delta":137391359},{"NoteNumber":59,"Velocity":33,"Duration":151133,"SoundDuration":151133,"Delta":137391359},{"NoteNumber":76,"Velocity":49,"Duration":75566,"SoundDuration":75566,"Delta":137542492},{"NoteNumber":88,"Velocity":56,"Duration":75566,"SoundDuration":75566,"Delta":137542492},{"NoteNumber":78,"Velocity":54,"Duration":77319,"SoundDuration":77319,"Delta":137693626},{"NoteNumber":90,"Velocity":62,"Duration":77319,"SoundDuration":77319,"Delta":137693626},{"NoteNumber":57,"Velocity":40,"Duration":154639,"SoundDuration":154639,"Delta":137693626},{"NoteNumber":88,"Velocity":52,"Duration":77319,"SoundDuration":77319,"Delta":137848265},{"NoteNumber":76,"Velocity":39,"Duration":77319,"SoundDuration":77319,"Delta":137848265},{"NoteNumber":91,"Velocity":60,"Duration":77319,"SoundDuration":77319,"Delta":138002904},{"NoteNumber":79,"Velocity":51,"Duration":77319,"SoundDuration":77319,"Delta":138002904},{"NoteNumber":63,"Velocity":32,"Duration":159063,"SoundDuration":159063,"Delta":138002904},{"NoteNumber":59,"Velocity":32,"Duration":159063,"SoundDuration":159063,"Delta":138002904},{"NoteNumber":90,"Velocity":56,"Duration":88079,"SoundDuration":88079,"Delta":138161968},{"NoteNumber":78,"Velocity":47,"Duration":88079,"SoundDuration":88079,"Delta":138161968},{"NoteNumber":88,"Velocity":64,"Duration":77319,"SoundDuration":77319,"Delta":138338127},{"NoteNumber":76,"Velocity":54,"Duration":77319,"SoundDuration":77319,"Delta":138338127},{"NoteNumber":52,"Velocity":33,"Duration":154639,"SoundDuration":154639,"Delta":138338127},{"NoteNumber":55,"Velocity":34,"Duration":154639,"SoundDuration":154639,"Delta":138338127},{"NoteNumber":64,"Velocity":40,"Duration":154639,"SoundDuration":154639,"Delta":138338127},{"NoteNumber":87,"Velocity":55,"Duration":77319,"SoundDuration":77319,"Delta":138492767},{"NoteNumber":75,"Velocity":46,"Duration":77319,"SoundDuration":77319,"Delta":138492767},{"NoteNumber":91,"Velocity":60,"Duration":77319,"SoundDuration":77319,"Delta":138647406},{"NoteNumber":79,"Velocity":51,"Duration":77319,"SoundDuration":77319,"Delta":138647406},{"NoteNumber":63,"Velocity":32,"Duration":159063,"SoundDuration":159063,"Delta":138647406},{"NoteNumber":69,"Velocity":32,"Duration":159063,"SoundDuration":159063,"Delta":138647406},{"NoteNumber":59,"Velocity":32,"Duration":159063,"SoundDuration":159063,"Delta":138647406},{"NoteNumber":90,"Velocity":55,"Duration":81743,"SoundDuration":81743,"Delta":138806469},{"NoteNumber":78,"Velocity":46,"Duration":81743,"SoundDuration":81743,"Delta":138806469},{"NoteNumber":88,"Velocity":59,"Duration":81743,"SoundDuration":81743,"Delta":138969957},{"NoteNumber":76,"Velocity":50,"Duration":81743,"SoundDuration":81743,"Delta":138969957},{"NoteNumber":64,"Velocity":32,"Duration":163487,"SoundDuration":163487,"Delta":138969957},{"NoteNumber":67,"Velocity":32,"Duration":163487,"SoundDuration":163487,"Delta":138969957},{"NoteNumber":64,"Velocity":57,"Duration":54495,"SoundDuration":54495,"Delta":139542164},{"NoteNumber":64,"Velocity":65,"Duration":80429,"SoundDuration":80429,"Delta":139623908},{"NoteNumber":40,"Velocity":43,"Duration":160857,"SoundDuration":160857,"Delta":139623908},{"NoteNumber":66,"Velocity":56,"Duration":80429,"SoundDuration":80429,"Delta":139784766},{"NoteNumber":68,"Velocity":56,"Duration":75566,"SoundDuration":75566,"Delta":139940762},{"NoteNumber":62,"Velocity":33,"Duration":151133,"SoundDuration":151133,"Delta":139940762},{"NoteNumber":56,"Velocity":33,"Duration":151133,"SoundDuration":151133,"Delta":139940762},{"NoteNumber":69,"Velocity":56,"Duration":92994,"SoundDuration":92994,"Delta":140091895},{"NoteNumber":73,"Velocity":57,"Duration":80949,"SoundDuration":80949,"Delta":140184890},{"NoteNumber":71,"Velocity":62,"Duration":77319,"SoundDuration":77319,"Delta":140265839},{"NoteNumber":52,"Velocity":40,"Duration":154639,"SoundDuration":154639,"Delta":140265839},{"NoteNumber":70,"Velocity":52,"Duration":77319,"SoundDuration":77319,"Delta":140420479},{"NoteNumber":71,"Velocity":52,"Duration":77319,"SoundDuration":77319,"Delta":140575118},{"NoteNumber":62,"Velocity":32,"Duration":156101,"SoundDuration":156101,"Delta":140575118},{"NoteNumber":56,"Velocity":32,"Duration":156101,"SoundDuration":156101,"Delta":140575118},{"NoteNumber":74,"Velocity":52,"Duration":78781,"SoundDuration":78781,"Delta":140731219},{"NoteNumber":74,"Velocity":65,"Duration":163220,"SoundDuration":163220,"Delta":140888782},{"NoteNumber":76,"Velocity":65,"Duration":81610,"SoundDuration":81610,"Delta":140888782},{"NoteNumber":78,"Velocity":56,"Duration":81610,"SoundDuration":81610,"Delta":141052003},{"NoteNumber":80,"Velocity":56,"Duration":75566,"SoundDuration":75566,"Delta":141209180},{"NoteNumber":62,"Velocity":48,"Duration":634356,"SoundDuration":634356,"Delta":141209180},{"NoteNumber":64,"Velocity":48,"Duration":634356,"SoundDuration":634356,"Delta":141209180},{"NoteNumber":68,"Velocity":48,"Duration":634356,"SoundDuration":634356,"Delta":141209180},{"NoteNumber":73,"Velocity":58,"Duration":634356,"SoundDuration":634356,"Delta":141209180},{"NoteNumber":81,"Velocity":56,"Duration":92994,"SoundDuration":92994,"Delta":141360314},{"NoteNumber":85,"Velocity":57,"Duration":80949,"SoundDuration":80949,"Delta":141453308},{"NoteNumber":83,"Velocity":66,"Duration":77319,"SoundDuration":77319,"Delta":141534258},{"NoteNumber":82,"Velocity":58,"Duration":77319,"SoundDuration":77319,"Delta":141688897},{"NoteNumber":83,"Velocity":57,"Duration":77319,"SoundDuration":77319,"Delta":141843536},{"NoteNumber":62,"Velocity":44,"Duration":322551,"SoundDuration":322551,"Delta":141843536},{"NoteNumber":64,"Velocity":44,"Duration":322551,"SoundDuration":322551,"Delta":141843536},{"NoteNumber":68,"Velocity":44,"Duration":322551,"SoundDuration":322551,"Delta":141843536},{"NoteNumber":71,"Velocity":50,"Duration":322551,"SoundDuration":322551,"Delta":141843536},{"NoteNumber":88,"Velocity":57,"Duration":81743,"SoundDuration":81743,"Delta":142002600},{"NoteNumber":45,"Velocity":43,"Duration":160857,"SoundDuration":160857,"Delta":142166088},{"NoteNumber":64,"Velocity":56,"Duration":80429,"SoundDuration":80429,"Delta":142326946},{"NoteNumber":66,"Velocity":56,"Duration":75566,"SoundDuration":75566,"Delta":142482941},{"NoteNumber":60,"Velocity":33,"Duration":151133,"SoundDuration":151133,"Delta":142482941},{"NoteNumber":57,"Velocity":33,"Duration":151133,"SoundDuration":151133,"Delta":142482941},{"NoteNumber":68,"Velocity":56,"Duration":92994,"SoundDuration":92994,"Delta":142634075},{"NoteNumber":71,"Velocity":57,"Duration":80949,"SoundDuration":80949,"Delta":142727069},{"NoteNumber":69,"Velocity":62,"Duration":77319,"SoundDuration":77319,"Delta":142808019},{"NoteNumber":52,"Velocity":40,"Duration":154639,"SoundDuration":154639,"Delta":142808019},{"NoteNumber":68,"Velocity":52,"Duration":77319,"SoundDuration":77319,"Delta":142962658},{"NoteNumber":69,"Velocity":52,"Duration":77319,"SoundDuration":77319,"Delta":143117298},{"NoteNumber":60,"Velocity":32,"Duration":156101,"SoundDuration":156101,"Delta":143117298},{"NoteNumber":57,"Velocity":32,"Duration":156101,"SoundDuration":156101,"Delta":143117298},{"NoteNumber":72,"Velocity":52,"Duration":78781,"SoundDuration":78781,"Delta":143273399},{"NoteNumber":71,"Velocity":65,"Duration":161899,"SoundDuration":161899,"Delta":143430962},{"NoteNumber":76,"Velocity":56,"Duration":80949,"SoundDuration":80949,"Delta":143592861},{"NoteNumber":78,"Velocity":56,"Duration":75566,"SoundDuration":75566,"Delta":143749378},{"NoteNumber":60,"Velocity":48,"Duration":634356,"SoundDuration":634356,"Delta":143749378},{"NoteNumber":64,"Velocity":48,"Duration":634356,"SoundDuration":634356,"Delta":143749378},{"NoteNumber":69,"Velocity":59,"Duration":634356,"SoundDuration":634356,"Delta":143749378},{"NoteNumber":80,"Velocity":56,"Duration":92994,"SoundDuration":92994,"Delta":143900511},{"NoteNumber":83,"Velocity":57,"Duration":80949,"SoundDuration":80949,"Delta":143993506},{"NoteNumber":81,"Velocity":66,"Duration":77319,"SoundDuration":77319,"Delta":144074455},{"NoteNumber":80,"Velocity":56,"Duration":77319,"SoundDuration":77319,"Delta":144229095},{"NoteNumber":81,"Velocity":56,"Duration":77319,"SoundDuration":77319,"Delta":144383734},{"NoteNumber":60,"Velocity":44,"Duration":322551,"SoundDuration":322551,"Delta":144383734},{"NoteNumber":64,"Velocity":44,"Duration":322551,"SoundDuration":322551,"Delta":144383734},{"NoteNumber":69,"Velocity":50,"Duration":322551,"SoundDuration":322551,"Delta":144383734},{"NoteNumber":88,"Velocity":56,"Duration":81743,"SoundDuration":81743,"Delta":144542797},{"NoteNumber":59,"Velocity":65,"Duration":80429,"SoundDuration":80429,"Delta":144706285},{"NoteNumber":47,"Velocity":43,"Duration":160857,"SoundDuration":160857,"Delta":144706285},{"NoteNumber":60,"Velocity":56,"Duration":80429,"SoundDuration":80429,"Delta":144867143},{"NoteNumber":63,"Velocity":56,"Duration":75566,"SoundDuration":75566,"Delta":145023139},{"NoteNumber":59,"Velocity":33,"Duration":151133,"SoundDuration":151133,"Delta":145023139},{"NoteNumber":55,"Velocity":33,"Duration":151133,"SoundDuration":151133,"Delta":145023139},{"NoteNumber":64,"Velocity":56,"Duration":92994,"SoundDuration":92994,"Delta":145174272},{"NoteNumber":67,"Velocity":57,"Duration":40474,"SoundDuration":40474,"Delta":145267267},{"NoteNumber":69,"Velocity":57,"Duration":40474,"SoundDuration":40474,"Delta":145307742},{"NoteNumber":67,"Velocity":62,"Duration":77319,"SoundDuration":77319,"Delta":145348216},{"NoteNumber":52,"Velocity":40,"Duration":154639,"SoundDuration":154639,"Delta":145348216},{"NoteNumber":66,"Velocity":52,"Duration":77319,"SoundDuration":77319,"Delta":145502856},{"NoteNumber":67,"Velocity":52,"Duration":77319,"SoundDuration":77319,"Delta":145657495},{"NoteNumber":59,"Velocity":32,"Duration":156101,"SoundDuration":156101,"Delta":145657495},{"NoteNumber":55,"Velocity":32,"Duration":156101,"SoundDuration":156101,"Delta":145657495},{"NoteNumber":69,"Velocity":52,"Duration":78781,"SoundDuration":78781,"Delta":145813596},{"NoteNumber":67,"Velocity":65,"Duration":163220,"SoundDuration":163220,"Delta":145971159},{"NoteNumber":49,"Velocity":43,"Duration":163220,"SoundDuration":163220,"Delta":145971159},{"NoteNumber":70,"Velocity":56,"Duration":81610,"SoundDuration":81610,"Delta":146134380},{"NoteNumber":76,"Velocity":56,"Duration":75566,"SoundDuration":75566,"Delta":146291557},{"NoteNumber":58,"Velocity":48,"Duration":634356,"SoundDuration":634356,"Delta":146291557},{"NoteNumber":64,"Velocity":48,"Duration":634356,"SoundDuration":634356,"Delta":146291557},{"NoteNumber":66,"Velocity":58,"Duration":634356,"SoundDuration":634356,"Delta":146291557},{"NoteNumber":77,"Velocity":56,"Duration":92994,"SoundDuration":92994,"Delta":146442691},{"NoteNumber":78,"Velocity":57,"Duration":40474,"SoundDuration":40474,"Delta":146535685},{"NoteNumber":79,"Velocity":57,"Duration":40474,"SoundDuration":40474,"Delta":146576160},{"NoteNumber":78,"Velocity":66,"Duration":77319,"SoundDuration":77319,"Delta":146616635},{"NoteNumber":48,"Velocity":43,"Duration":154639,"SoundDuration":154639,"Delta":146616635},{"NoteNumber":77,"Velocity":53,"Duration":77319,"SoundDuration":77319,"Delta":146771274},{"NoteNumber":78,"Velocity":53,"Duration":77319,"SoundDuration":77319,"Delta":146925913},{"NoteNumber":58,"Velocity":44,"Duration":322551,"SoundDuration":322551,"Delta":146925913},{"NoteNumber":64,"Velocity":44,"Duration":322551,"SoundDuration":322551,"Delta":146925913},{"NoteNumber":66,"Velocity":50,"Duration":322551,"SoundDuration":322551,"Delta":146925913},{"NoteNumber":90,"Velocity":59,"Duration":81743,"SoundDuration":81743,"Delta":147084977},{"NoteNumber":83,"Velocity":57,"Duration":85518,"SoundDuration":85518,"Delta":147248465},{"NoteNumber":95,"Velocity":65,"Duration":85518,"SoundDuration":85518,"Delta":147248465},{"NoteNumber":47,"Velocity":43,"Duration":171037,"SoundDuration":171037,"Delta":147248465},{"NoteNumber":84,"Velocity":49,"Duration":85518,"SoundDuration":85518,"Delta":147419502},{"NoteNumber":96,"Velocity":56,"Duration":85518,"SoundDuration":85518,"Delta":147419502},{"NoteNumber":87,"Velocity":49,"Duration":77559,"SoundDuration":77559,"Delta":147582581},{"NoteNumber":99,"Velocity":56,"Duration":77559,"SoundDuration":77559,"Delta":147582581},{"NoteNumber":54,"Velocity":33,"Duration":155118,"SoundDuration":155118,"Delta":147582581},{"NoteNumber":63,"Velocity":33,"Duration":155118,"SoundDuration":155118,"Delta":147582581},{"NoteNumber":57,"Velocity":33,"Duration":155118,"SoundDuration":155118,"Delta":147582581},{"NoteNumber":88,"Velocity":49,"Duration":77559,"SoundDuration":77559,"Delta":147737700},{"NoteNumber":100,"Velocity":56,"Duration":77559,"SoundDuration":77559,"Delta":147737700},{"NoteNumber":90,"Velocity":54,"Duration":80042,"SoundDuration":80042,"Delta":147892819},{"NoteNumber":102,"Velocity":62,"Duration":80042,"SoundDuration":80042,"Delta":147892819},{"NoteNumber":47,"Velocity":40,"Duration":160085,"SoundDuration":160085,"Delta":147892819},{"NoteNumber":100,"Velocity":52,"Duration":80042,"SoundDuration":80042,"Delta":148052904},{"NoteNumber":88,"Velocity":39,"Duration":80042,"SoundDuration":80042,"Delta":148052904},{"NoteNumber":103,"Velocity":60,"Duration":80042,"SoundDuration":80042,"Delta":148212990},{"NoteNumber":91,"Velocity":51,"Duration":80042,"SoundDuration":80042,"Delta":148212990},{"NoteNumber":54,"Velocity":32,"Duration":171842,"SoundDuration":171842,"Delta":148212990},{"NoteNumber":63,"Velocity":32,"Duration":171842,"SoundDuration":171842,"Delta":148212990},{"NoteNumber":57,"Velocity":32,"Duration":171842,"SoundDuration":171842,"Delta":148212990},{"NoteNumber":102,"Velocity":56,"Duration":105337,"SoundDuration":105337,"Delta":148384832},{"NoteNumber":90,"Velocity":47,"Duration":105337,"SoundDuration":105337,"Delta":148384832},{"NoteNumber":100,"Velocity":64,"Duration":92649,"SoundDuration":92649,"Delta":148595506},{"NoteNumber":88,"Velocity":54,"Duration":92649,"SoundDuration":92649,"Delta":148595506},{"NoteNumber":52,"Velocity":33,"Duration":185299,"SoundDuration":185299,"Delta":148595506},{"NoteNumber":55,"Velocity":34,"Duration":185299,"SoundDuration":185299,"Delta":148595506},{"NoteNumber":64,"Velocity":40,"Duration":185299,"SoundDuration":185299,"Delta":148595506},{"NoteNumber":99,"Velocity":55,"Duration":92649,"SoundDuration":92649,"Delta":148780806},{"NoteNumber":87,"Velocity":46,"Duration":92649,"SoundDuration":92649,"Delta":148780806},{"NoteNumber":103,"Velocity":60,"Duration":105337,"SoundDuration":105337,"Delta":148978792},{"NoteNumber":91,"Velocity":51,"Duration":105337,"SoundDuration":105337,"Delta":148978792},{"NoteNumber":63,"Velocity":32,"Duration":219059,"SoundDuration":219059,"Delta":148978792},{"NoteNumber":69,"Velocity":32,"Duration":219059,"SoundDuration":219059,"Delta":148978792},{"NoteNumber":59,"Velocity":32,"Duration":219059,"SoundDuration":219059,"Delta":148978792},{"NoteNumber":102,"Velocity":55,"Duration":113722,"SoundDuration":113722,"Delta":149197852},{"NoteNumber":90,"Velocity":46,"Duration":113722,"SoundDuration":113722,"Delta":149197852},{"NoteNumber":100,"Velocity":59,"Duration":123558,"SoundDuration":123558,"Delta":149435133},{"NoteNumber":88,"Velocity":50,"Duration":123558,"SoundDuration":123558,"Delta":149435133},{"NoteNumber":64,"Velocity":32,"Duration":247117,"SoundDuration":247117,"Delta":149435133},{"NoteNumber":67,"Velocity":32,"Duration":247117,"SoundDuration":247117,"Delta":149435133},{"NoteNumber":76,"Velocity":63,"Duration":82372,"SoundDuration":82372,"Delta":150300043},{"NoteNumber":76,"Velocity":70,"Duration":153924,"SoundDuration":153924,"Delta":150423601},{"NoteNumber":72,"Velocity":59,"Duration":306454,"SoundDuration":306454,"Delta":150423601},{"NoteNumber":57,"Velocity":43,"Duration":306454,"SoundDuration":306454,"Delta":150423601},{"NoteNumber":81,"Velocity":61,"Duration":76962,"SoundDuration":76962,"Delta":150577526},{"NoteNumber":69,"Velocity":33,"Duration":76962,"SoundDuration":76962,"Delta":150577526},{"NoteNumber":81,"Velocity":61,"Duration":151133,"SoundDuration":151133,"Delta":150730055},{"NoteNumber":72,"Velocity":51,"Duration":313823,"SoundDuration":313823,"Delta":150730055},{"NoteNumber":64,"Velocity":38,"Duration":75566,"SoundDuration":75566,"Delta":150730055},{"NoteNumber":84,"Velocity":61,"Duration":81344,"SoundDuration":81344,"Delta":150881189},{"NoteNumber":69,"Velocity":33,"Duration":81344,"SoundDuration":81344,"Delta":150881189},{"NoteNumber":84,"Velocity":68,"Duration":156331,"SoundDuration":156331,"Delta":151043879},{"NoteNumber":74,"Velocity":57,"Duration":312662,"SoundDuration":312662,"Delta":151043879},{"NoteNumber":52,"Velocity":44,"Duration":312662,"SoundDuration":312662,"Delta":151043879},{"NoteNumber":83,"Velocity":59,"Duration":78165,"SoundDuration":78165,"Delta":151200210},{"NoteNumber":68,"Velocity":33,"Duration":78165,"SoundDuration":78165,"Delta":151200210},{"NoteNumber":83,"Velocity":59,"Duration":150451,"SoundDuration":150451,"Delta":151356542},{"NoteNumber":74,"Velocity":50,"Duration":300902,"SoundDuration":300902,"Delta":151356542},{"NoteNumber":64,"Velocity":37,"Duration":75225,"SoundDuration":75225,"Delta":151356542},{"NoteNumber":76,"Velocity":59,"Duration":68956,"SoundDuration":68956,"Delta":151506993},{"NoteNumber":68,"Velocity":33,"Duration":75225,"SoundDuration":75225,"Delta":151506993},{"NoteNumber":72,"Velocity":45,"Duration":75225,"SoundDuration":75225,"Delta":151582218},{"NoteNumber":76,"Velocity":45,"Duration":75225,"SoundDuration":75225,"Delta":151582218},{"NoteNumber":83,"Velocity":56,"Duration":75225,"SoundDuration":75225,"Delta":151582218},{"NoteNumber":81,"Velocity":68,"Duration":78165,"SoundDuration":78165,"Delta":151657444},{"NoteNumber":57,"Velocity":43,"Duration":312662,"SoundDuration":312662,"Delta":151657444},{"NoteNumber":69,"Velocity":33,"Duration":78165,"SoundDuration":78165,"Delta":151813776},{"NoteNumber":81,"Velocity":64,"Duration":613565,"SoundDuration":613565,"Delta":151970107},{"NoteNumber":72,"Velocity":54,"Duration":613565,"SoundDuration":613565,"Delta":151970107},{"NoteNumber":76,"Velocity":54,"Duration":613565,"SoundDuration":613565,"Delta":151970107},{"NoteNumber":64,"Velocity":38,"Duration":75225,"SoundDuration":75225,"Delta":151970107},{"NoteNumber":69,"Velocity":33,"Duration":75225,"SoundDuration":75225,"Delta":152120558},{"NoteNumber":57,"Velocity":44,"Duration":312662,"SoundDuration":312662,"Delta":152271010},{"NoteNumber":69,"Velocity":33,"Duration":78165,"SoundDuration":78165,"Delta":152427341},{"NoteNumber":81,"Velocity":66,"Duration":150451,"SoundDuration":150451,"Delta":152583673},{"NoteNumber":72,"Velocity":56,"Duration":300902,"SoundDuration":300902,"Delta":152583673},{"NoteNumber":64,"Velocity":37,"Duration":75225,"SoundDuration":75225,"Delta":152583673},{"NoteNumber":84,"Velocity":64,"Duration":75225,"SoundDuration":75225,"Delta":152734124},{"NoteNumber":69,"Velocity":33,"Duration":75225,"SoundDuration":75225,"Delta":152734124},{"NoteNumber":76,"Velocity":70,"Duration":153924,"SoundDuration":153924,"Delta":152884575},{"NoteNumber":84,"Velocity":70,"Duration":153924,"SoundDuration":153924,"Delta":152884575},{"NoteNumber":72,"Velocity":59,"Duration":306454,"SoundDuration":306454,"Delta":152884575},{"NoteNumber":55,"Velocity":43,"Duration":306454,"SoundDuration":306454,"Delta":152884575},{"NoteNumber":79,"Velocity":61,"Duration":76962,"SoundDuration":76962,"Delta":153038500},{"NoteNumber":67,"Velocity":33,"Duration":76962,"SoundDuration":76962,"Delta":153038500},{"NoteNumber":76,"Velocity":51,"Duration":151133,"SoundDuration":151133,"Delta":153191029},{"NoteNumber":79,"Velocity":61,"Duration":151133,"SoundDuration":151133,"Delta":153191029},{"NoteNumber":64,"Velocity":38,"Duration":75566,"SoundDuration":75566,"Delta":153191029},{"NoteNumber":60,"Velocity":32,"Duration":75566,"SoundDuration":75566,"Delta":153191029},{"NoteNumber":81,"Velocity":61,"Duration":81344,"SoundDuration":81344,"Delta":153342163},{"NoteNumber":77,"Velocity":51,"Duration":81344,"SoundDuration":81344,"Delta":153342163},{"NoteNumber":67,"Velocity":33,"Duration":81344,"SoundDuration":81344,"Delta":153342163},{"NoteNumber":77,"Velocity":57,"Duration":156331,"SoundDuration":156331,"Delta":153504853},{"NoteNumber":81,"Velocity":68,"Duration":156331,"SoundDuration":156331,"Delta":153504853},{"NoteNumber":71,"Velocity":57,"Duration":312662,"SoundDuration":312662,"Delta":153504853},{"NoteNumber":55,"Velocity":44,"Duration":312662,"SoundDuration":312662,"Delta":153504853},{"NoteNumber":74,"Velocity":59,"Duration":78165,"SoundDuration":78165,"Delta":153661184},{"NoteNumber":67,"Velocity":33,"Duration":78165,"SoundDuration":78165,"Delta":153661184},{"NoteNumber":77,"Velocity":59,"Duration":150451,"SoundDuration":150451,"Delta":153817516},{"NoteNumber":74,"Velocity":50,"Duration":150451,"SoundDuration":150451,"Delta":153817516},{"NoteNumber":65,"Velocity":37,"Duration":75225,"SoundDuration":75225,"Delta":153817516},{"NoteNumber":59,"Velocity":31,"Duration":75225,"SoundDuration":75225,"Delta":153817516},{"NoteNumber":79,"Velocity":59,"Duration":85969,"SoundDuration":85969,"Delta":153967967},{"NoteNumber":67,"Velocity":33,"Duration":103163,"SoundDuration":103163,"Delta":153967967},{"NoteNumber":79,"Velocity":56,"Duration":78781,"SoundDuration":78781,"Delta":154071130},{"NoteNumber":76,"Velocity":68,"Duration":82964,"SoundDuration":82964,"Delta":154149912},{"NoteNumber":72,"Velocity":57,"Duration":82964,"SoundDuration":82964,"Delta":154149912},{"NoteNumber":60,"Velocity":43,"Duration":331858,"SoundDuration":331858,"Delta":154149912},{"NoteNumber":67,"Velocity":33,"Duration":82964,"SoundDuration":82964,"Delta":154315841},{"NoteNumber":75,"Velocity":56,"Duration":82964,"SoundDuration":82964,"Delta":154398806},{"NoteNumber":71,"Velocity":47,"Duration":82964,"SoundDuration":82964,"Delta":154398806},{"NoteNumber":76,"Velocity":64,"Duration":613565,"SoundDuration":613565,"Delta":154481770},{"NoteNumber":72,"Velocity":54,"Duration":613565,"SoundDuration":613565,"Delta":154481770},{"NoteNumber":64,"Velocity":38,"Duration":75225,"SoundDuration":75225,"Delta":154481770},{"NoteNumber":67,"Velocity":33,"Duration":75225,"SoundDuration":75225,"Delta":154632222},{"NoteNumber":60,"Velocity":44,"Duration":312662,"SoundDuration":312662,"Delta":154782673},{"NoteNumber":67,"Velocity":33,"Duration":78165,"SoundDuration":78165,"Delta":154939004},{"NoteNumber":72,"Velocity":56,"Duration":75225,"SoundDuration":75225,"Delta":155095336},{"NoteNumber":76,"Velocity":62,"Duration":75225,"SoundDuration":75225,"Delta":155095336},{"NoteNumber":64,"Velocity":37,"Duration":75225,"SoundDuration":75225,"Delta":155095336},{"NoteNumber":79,"Velocity":61,"Duration":75225,"SoundDuration":75225,"Delta":155170562},{"NoteNumber":67,"Velocity":33,"Duration":75225,"SoundDuration":75225,"Delta":155245787},{"NoteNumber":76,"Velocity":70,"Duration":153924,"SoundDuration":153924,"Delta":155396238},{"NoteNumber":72,"Velocity":59,"Duration":306454,"SoundDuration":306454,"Delta":155396238},{"NoteNumber":60,"Velocity":43,"Duration":306454,"SoundDuration":306454,"Delta":155396238},{"NoteNumber":79,"Velocity":61,"Duration":76962,"SoundDuration":76962,"Delta":155550163},{"NoteNumber":70,"Velocity":33,"Duration":76962,"SoundDuration":76962,"Delta":155550163},{"NoteNumber":79,"Velocity":61,"Duration":151133,"SoundDuration":151133,"Delta":155702693},{"NoteNumber":72,"Velocity":51,"Duration":313823,"SoundDuration":313823,"Delta":155702693},{"NoteNumber":64,"Velocity":38,"Duration":75566,"SoundDuration":75566,"Delta":155702693},{"NoteNumber":67,"Velocity":38,"Duration":75566,"SoundDuration":75566,"Delta":155702693},{"NoteNumber":84,"Velocity":61,"Duration":81344,"SoundDuration":81344,"Delta":155853826},{"NoteNumber":70,"Velocity":33,"Duration":81344,"SoundDuration":81344,"Delta":155853826},{"NoteNumber":84,"Velocity":68,"Duration":156331,"SoundDuration":156331,"Delta":156016516},{"NoteNumber":76,"Velocity":57,"Duration":156331,"SoundDuration":156331,"Delta":156016516},{"NoteNumber":60,"Velocity":44,"Duration":312662,"SoundDuration":312662,"Delta":156016516},{"NoteNumber":83,"Velocity":59,"Duration":78165,"SoundDuration":78165,"Delta":156172847},{"NoteNumber":79,"Velocity":50,"Duration":78165,"SoundDuration":78165,"Delta":156172847},{"NoteNumber":70,"Velocity":33,"Duration":78165,"SoundDuration":78165,"Delta":156172847},{"NoteNumber":84,"Velocity":59,"Duration":150451,"SoundDuration":150451,"Delta":156329179},{"NoteNumber":76,"Velocity":50,"Duration":150451,"SoundDuration":150451,"Delta":156329179},{"NoteNumber":64,"Velocity":37,"Duration":75225,"SoundDuration":75225,"Delta":156329179},{"NoteNumber":67,"Velocity":37,"Duration":75225,"SoundDuration":75225,"Delta":156329179},{"NoteNumber":82,"Velocity":59,"Duration":62688,"SoundDuration":62688,"Delta":156479630},{"NoteNumber":79,"Velocity":50,"Duration":75225,"SoundDuration":75225,"Delta":156479630},{"NoteNumber":70,"Velocity":33,"Duration":75225,"SoundDuration":75225,"Delta":156479630},{"NoteNumber":82,"Velocity":56,"Duration":75225,"SoundDuration":75225,"Delta":156554856},{"NoteNumber":77,"Velocity":59,"Duration":80949,"SoundDuration":80949,"Delta":156630081},{"NoteNumber":81,"Velocity":68,"Duration":80949,"SoundDuration":80949,"Delta":156630081},{"NoteNumber":57,"Velocity":43,"Duration":323799,"SoundDuration":323799,"Delta":156630081},{"NoteNumber":69,"Velocity":33,"Duration":80949,"SoundDuration":80949,"Delta":156791981},{"NoteNumber":81,"Velocity":64,"Duration":613565,"SoundDuration":613565,"Delta":156953880},{"NoteNumber":72,"Velocity":54,"Duration":613565,"SoundDuration":613565,"Delta":156953880},{"NoteNumber":77,"Velocity":54,"Duration":613565,"SoundDuration":613565,"Delta":156953880},{"NoteNumber":60,"Velocity":30,"Duration":75225,"SoundDuration":75225,"Delta":156953880},{"NoteNumber":65,"Velocity":38,"Duration":75225,"SoundDuration":75225,"Delta":156953880},{"NoteNumber":69,"Velocity":33,"Duration":75225,"SoundDuration":75225,"Delta":157104332},{"NoteNumber":57,"Velocity":44,"Duration":78165,"SoundDuration":78165,"Delta":157254783},{"NoteNumber":69,"Velocity":33,"Duration":78165,"SoundDuration":78165,"Delta":157411114},{"NoteNumber":84,"Velocity":66,"Duration":150451,"SoundDuration":150451,"Delta":157567446},{"NoteNumber":72,"Velocity":56,"Duration":150451,"SoundDuration":150451,"Delta":157567446},{"NoteNumber":65,"Velocity":37,"Duration":75225,"SoundDuration":75225,"Delta":157567446},{"NoteNumber":69,"Velocity":33,"Duration":75225,"SoundDuration":75225,"Delta":157717897},{"NoteNumber":83,"Velocity":70,"Duration":153924,"SoundDuration":153924,"Delta":157868348},{"NoteNumber":71,"Velocity":59,"Duration":306454,"SoundDuration":306454,"Delta":157868348},{"NoteNumber":59,"Velocity":43,"Duration":306454,"SoundDuration":306454,"Delta":157868348},{"NoteNumber":76,"Velocity":61,"Duration":76962,"SoundDuration":76962,"Delta":158022273},{"NoteNumber":67,"Velocity":33,"Duration":76962,"SoundDuration":76962,"Delta":158022273},{"NoteNumber":76,"Velocity":51,"Duration":151133,"SoundDuration":151133,"Delta":158174803},{"NoteNumber":64,"Velocity":38,"Duration":75566,"SoundDuration":75566,"Delta":158174803},{"NoteNumber":75,"Velocity":61,"Duration":81344,"SoundDuration":81344,"Delta":158325936},{"NoteNumber":67,"Velocity":33,"Duration":81344,"SoundDuration":81344,"Delta":158325936},{"NoteNumber":75,"Velocity":68,"Duration":156331,"SoundDuration":156331,"Delta":158488626},{"NoteNumber":59,"Velocity":44,"Duration":312662,"SoundDuration":312662,"Delta":158488626},{"NoteNumber":83,"Velocity":59,"Duration":78165,"SoundDuration":78165,"Delta":158644957},{"NoteNumber":69,"Velocity":33,"Duration":78165,"SoundDuration":78165,"Delta":158644957},{"NoteNumber":83,"Velocity":59,"Duration":150451,"SoundDuration":150451,"Delta":158801289},{"NoteNumber":71,"Velocity":50,"Duration":150451,"SoundDuration":150451,"Delta":158801289},{"NoteNumber":66,"Velocity":37,"Duration":75225,"SoundDuration":75225,"Delta":158801289},{"NoteNumber":63,"Velocity":31,"Duration":75225,"SoundDuration":75225,"Delta":158801289},{"NoteNumber":75,"Velocity":59,"Duration":86256,"SoundDuration":86256,"Delta":158951740},{"NoteNumber":69,"Velocity":33,"Duration":86256,"SoundDuration":86256,"Delta":158951740},{"NoteNumber":78,"Velocity":68,"Duration":158814,"SoundDuration":158814,"Delta":159124253},{"NoteNumber":71,"Velocity":57,"Duration":158814,"SoundDuration":158814,"Delta":159124253},{"NoteNumber":64,"Velocity":43,"Duration":317628,"SoundDuration":317628,"Delta":159124253},{"NoteNumber":76,"Velocity":61,"Duration":79407,"SoundDuration":79407,"Delta":159283067},{"NoteNumber":67,"Velocity":33,"Duration":79407,"SoundDuration":79407,"Delta":159283067},{"NoteNumber":75,"Velocity":64,"Duration":153924,"SoundDuration":153924,"Delta":159441882},{"NoteNumber":71,"Velocity":54,"Duration":153924,"SoundDuration":153924,"Delta":159441882},{"NoteNumber":59,"Velocity":43,"Duration":307850,"SoundDuration":307850,"Delta":159441882},{"NoteNumber":66,"Velocity":38,"Duration":76962,"SoundDuration":76962,"Delta":159441882},{"NoteNumber":78,"Velocity":61,"Duration":76962,"SoundDuration":76962,"Delta":159595807},{"NoteNumber":69,"Velocity":33,"Duration":76962,"SoundDuration":76962,"Delta":159595807},{"NoteNumber":71,"Velocity":51,"Duration":158814,"SoundDuration":158814,"Delta":159749732},{"NoteNumber":76,"Velocity":55,"Duration":158814,"SoundDuration":158814,"Delta":159749732},{"NoteNumber":64,"Velocity":44,"Duration":158814,"SoundDuration":158814,"Delta":159749732},{"NoteNumber":67,"Velocity":47,"Duration":158814,"SoundDuration":158814,"Delta":159749732},{"NoteNumber":76,"Velocity":57,"Duration":123558,"SoundDuration":123558,"Delta":160293037},{"NoteNumber":88,"Velocity":63,"Duration":123558,"SoundDuration":123558,"Delta":160293037},{"NoteNumber":76,"Velocity":70,"Duration":153924,"SoundDuration":153924,"Delta":160416596},{"NoteNumber":88,"Velocity":59,"Duration":153924,"SoundDuration":153924,"Delta":160416596},{"NoteNumber":57,"Velocity":43,"Duration":306454,"SoundDuration":306454,"Delta":160416596},{"NoteNumber":81,"Velocity":61,"Duration":76962,"SoundDuration":76962,"Delta":160570521},{"NoteNumber":72,"Velocity":33,"Duration":76962,"SoundDuration":76962,"Delta":160570521},{"NoteNumber":81,"Velocity":61,"Duration":151133,"SoundDuration":151133,"Delta":160723050},{"NoteNumber":93,"Velocity":51,"Duration":151133,"SoundDuration":151133,"Delta":160723050},{"NoteNumber":69,"Velocity":38,"Duration":75566,"SoundDuration":75566,"Delta":160723050},{"NoteNumber":64,"Velocity":35,"Duration":75566,"SoundDuration":75566,"Delta":160723050},{"NoteNumber":84,"Velocity":61,"Duration":81344,"SoundDuration":81344,"Delta":160874183},{"NoteNumber":72,"Velocity":33,"Duration":81344,"SoundDuration":81344,"Delta":160874183},{"NoteNumber":96,"Velocity":68,"Duration":156331,"SoundDuration":156331,"Delta":161036873},{"NoteNumber":84,"Velocity":57,"Duration":312662,"SoundDuration":312662,"Delta":161036873},{"NoteNumber":52,"Velocity":44,"Duration":312662,"SoundDuration":312662,"Delta":161036873},{"NoteNumber":95,"Velocity":59,"Duration":78165,"SoundDuration":78165,"Delta":161193205},{"NoteNumber":68,"Velocity":33,"Duration":78165,"SoundDuration":78165,"Delta":161193205},{"NoteNumber":95,"Velocity":59,"Duration":150451,"SoundDuration":150451,"Delta":161349536},{"NoteNumber":83,"Velocity":50,"Duration":300902,"SoundDuration":300902,"Delta":161349536},{"NoteNumber":62,"Velocity":34,"Duration":75225,"SoundDuration":75225,"Delta":161349536},{"NoteNumber":64,"Velocity":37,"Duration":75225,"SoundDuration":75225,"Delta":161349536},{"NoteNumber":88,"Velocity":59,"Duration":75225,"SoundDuration":75225,"Delta":161499987},{"NoteNumber":68,"Velocity":33,"Duration":75225,"SoundDuration":75225,"Delta":161499987},{"NoteNumber":95,"Velocity":56,"Duration":75225,"SoundDuration":75225,"Delta":161575213},{"NoteNumber":81,"Velocity":62,"Duration":80299,"SoundDuration":80299,"Delta":161650439},{"NoteNumber":93,"Velocity":68,"Duration":80299,"SoundDuration":80299,"Delta":161650439},{"NoteNumber":57,"Velocity":43,"Duration":321199,"SoundDuration":321199,"Delta":161650439},{"NoteNumber":72,"Velocity":33,"Duration":80299,"SoundDuration":80299,"Delta":161811038},{"NoteNumber":93,"Velocity":64,"Duration":613565,"SoundDuration":613565,"Delta":161971638},{"NoteNumber":81,"Velocity":54,"Duration":613565,"SoundDuration":613565,"Delta":161971638},{"NoteNumber":84,"Velocity":54,"Duration":613565,"SoundDuration":613565,"Delta":161971638},{"NoteNumber":69,"Velocity":38,"Duration":75225,"SoundDuration":75225,"Delta":161971638},{"NoteNumber":64,"Velocity":33,"Duration":75225,"SoundDuration":75225,"Delta":161971638},{"NoteNumber":72,"Velocity":33,"Duration":75225,"SoundDuration":75225,"Delta":162122089},{"NoteNumber":57,"Velocity":44,"Duration":312662,"SoundDuration":312662,"Delta":162272540},{"NoteNumber":72,"Velocity":33,"Duration":78165,"SoundDuration":78165,"Delta":162428872},{"NoteNumber":93,"Velocity":66,"Duration":150451,"SoundDuration":150451,"Delta":162585203},{"NoteNumber":84,"Velocity":56,"Duration":150451,"SoundDuration":150451,"Delta":162585203},{"NoteNumber":69,"Velocity":37,"Duration":75225,"SoundDuration":75225,"Delta":162585203},{"NoteNumber":64,"Velocity":34,"Duration":75225,"SoundDuration":75225,"Delta":162585203},{"NoteNumber":88,"Velocity":60,"Duration":75225,"SoundDuration":75225,"Delta":162735654},{"NoteNumber":96,"Velocity":64,"Duration":75225,"SoundDuration":75225,"Delta":162735654},{"NoteNumber":72,"Velocity":33,"Duration":75225,"SoundDuration":75225,"Delta":162735654},{"NoteNumber":88,"Velocity":70,"Duration":153924,"SoundDuration":153924,"Delta":162886106},{"NoteNumber":96,"Velocity":70,"Duration":153924,"SoundDuration":153924,"Delta":162886106},{"NoteNumber":84,"Velocity":59,"Duration":306454,"SoundDuration":306454,"Delta":162886106},{"NoteNumber":55,"Velocity":43,"Duration":306454,"SoundDuration":306454,"Delta":162886106},{"NoteNumber":91,"Velocity":61,"Duration":76962,"SoundDuration":76962,"Delta":163040031},{"NoteNumber":72,"Velocity":33,"Duration":76962,"SoundDuration":76962,"Delta":163040031},{"NoteNumber":88,"Velocity":51,"Duration":151133,"SoundDuration":151133,"Delta":163192560},{"NoteNumber":79,"Velocity":59,"Duration":313823,"SoundDuration":313823,"Delta":163192560},{"NoteNumber":91,"Velocity":61,"Duration":151133,"SoundDuration":151133,"Delta":163192560},{"NoteNumber":67,"Velocity":38,"Duration":75566,"SoundDuration":75566,"Delta":163192560},{"NoteNumber":64,"Velocity":32,"Duration":75566,"SoundDuration":75566,"Delta":163192560},{"NoteNumber":93,"Velocity":61,"Duration":81344,"SoundDuration":81344,"Delta":163343693},{"NoteNumber":89,"Velocity":51,"Duration":81344,"SoundDuration":81344,"Delta":163343693},{"NoteNumber":72,"Velocity":33,"Duration":81344,"SoundDuration":81344,"Delta":163343693},{"NoteNumber":89,"Velocity":57,"Duration":156331,"SoundDuration":156331,"Delta":163506383},{"NoteNumber":93,"Velocity":68,"Duration":156331,"SoundDuration":156331,"Delta":163506383},{"NoteNumber":81,"Velocity":57,"Duration":312662,"SoundDuration":312662,"Delta":163506383},{"NoteNumber":55,"Velocity":44,"Duration":312662,"SoundDuration":312662,"Delta":163506383},{"NoteNumber":86,"Velocity":59,"Duration":78165,"SoundDuration":78165,"Delta":163662715},{"NoteNumber":71,"Velocity":33,"Duration":78165,"SoundDuration":78165,"Delta":163662715},{"NoteNumber":77,"Velocity":59,"Duration":332396,"SoundDuration":332396,"Delta":163819046},{"NoteNumber":89,"Velocity":59,"Duration":150451,"SoundDuration":150451,"Delta":163819046},{"NoteNumber":86,"Velocity":50,"Duration":150451,"SoundDuration":150451,"Delta":163819046},{"NoteNumber":65,"Velocity":37,"Duration":75225,"SoundDuration":75225,"Delta":163819046},{"NoteNumber":62,"Velocity":31,"Duration":75225,"SoundDuration":75225,"Delta":163819046},{"NoteNumber":91,"Velocity":59,"Duration":85969,"SoundDuration":85969,"Delta":163969497},{"NoteNumber":71,"Velocity":33,"Duration":103163,"SoundDuration":103163,"Delta":163969497},{"NoteNumber":91,"Velocity":56,"Duration":78781,"SoundDuration":78781,"Delta":164072661},{"NoteNumber":76,"Velocity":57,"Duration":80949,"SoundDuration":80949,"Delta":164151442},{"NoteNumber":88,"Velocity":68,"Duration":80949,"SoundDuration":80949,"Delta":164151442},{"NoteNumber":84,"Velocity":57,"Duration":80949,"SoundDuration":80949,"Delta":164151442},{"NoteNumber":60,"Velocity":43,"Duration":323799,"SoundDuration":323799,"Delta":164151442},{"NoteNumber":72,"Velocity":33,"Duration":80949,"SoundDuration":80949,"Delta":164313342},{"NoteNumber":76,"Velocity":54,"Duration":613565,"SoundDuration":613565,"Delta":164475241},{"NoteNumber":88,"Velocity":64,"Duration":613565,"SoundDuration":613565,"Delta":164475241},{"NoteNumber":84,"Velocity":54,"Duration":613565,"SoundDuration":613565,"Delta":164475241},{"NoteNumber":67,"Velocity":38,"Duration":75225,"SoundDuration":75225,"Delta":164475241},{"NoteNumber":64,"Velocity":38,"Duration":75225,"SoundDuration":75225,"Delta":164475241},{"NoteNumber":72,"Velocity":33,"Duration":75225,"SoundDuration":75225,"Delta":164625693},{"NoteNumber":60,"Velocity":44,"Duration":312662,"SoundDuration":312662,"Delta":164776144},{"NoteNumber":72,"Velocity":33,"Duration":78165,"SoundDuration":78165,"Delta":164932475},{"NoteNumber":79,"Velocity":59,"Duration":300902,"SoundDuration":300902,"Delta":165088807},{"NoteNumber":88,"Velocity":67,"Duration":75225,"SoundDuration":75225,"Delta":165088807},{"NoteNumber":67,"Velocity":40,"Duration":75225,"SoundDuration":75225,"Delta":165088807},{"NoteNumber":64,"Velocity":40,"Duration":75225,"SoundDuration":75225,"Delta":165088807},{"NoteNumber":91,"Velocity":65,"Duration":75225,"SoundDuration":75225,"Delta":165164033},{"NoteNumber":72,"Velocity":36,"Duration":75225,"SoundDuration":75225,"Delta":165239258},{"NoteNumber":84,"Velocity":77,"Duration":153924,"SoundDuration":153924,"Delta":165389709},{"NoteNumber":76,"Velocity":64,"Duration":153924,"SoundDuration":153924,"Delta":165389709},{"NoteNumber":60,"Velocity":47,"Duration":306454,"SoundDuration":306454,"Delta":165389709},{"NoteNumber":79,"Velocity":55,"Duration":76962,"SoundDuration":76962,"Delta":165543634},{"NoteNumber":88,"Velocity":67,"Duration":76962,"SoundDuration":76962,"Delta":165543634},{"NoteNumber":70,"Velocity":36,"Duration":76962,"SoundDuration":76962,"Delta":165543634},{"NoteNumber":88,"Velocity":67,"Duration":151133,"SoundDuration":151133,"Delta":165696164},{"NoteNumber":79,"Velocity":56,"Duration":151133,"SoundDuration":151133,"Delta":165696164},{"NoteNumber":64,"Velocity":41,"Duration":75566,"SoundDuration":75566,"Delta":165696164},{"NoteNumber":67,"Velocity":41,"Duration":75566,"SoundDuration":75566,"Delta":165696164},{"NoteNumber":84,"Velocity":55,"Duration":81344,"SoundDuration":81344,"Delta":165847297},{"NoteNumber":91,"Velocity":67,"Duration":81344,"SoundDuration":81344,"Delta":165847297},{"NoteNumber":70,"Velocity":36,"Duration":81344,"SoundDuration":81344,"Delta":165847297},{"NoteNumber":91,"Velocity":74,"Duration":156331,"SoundDuration":156331,"Delta":166009987},{"NoteNumber":84,"Velocity":62,"Duration":156331,"SoundDuration":156331,"Delta":166009987},{"NoteNumber":60,"Velocity":48,"Duration":312662,"SoundDuration":312662,"Delta":166009987},{"NoteNumber":96,"Velocity":64,"Duration":78165,"SoundDuration":78165,"Delta":166166318},{"NoteNumber":88,"Velocity":55,"Duration":78165,"SoundDuration":78165,"Delta":166166318},{"NoteNumber":70,"Velocity":36,"Duration":78165,"SoundDuration":78165,"Delta":166166318},{"NoteNumber":96,"Velocity":64,"Duration":150451,"SoundDuration":150451,"Delta":166322650},{"NoteNumber":88,"Velocity":55,"Duration":150451,"SoundDuration":150451,"Delta":166322650},{"NoteNumber":64,"Velocity":40,"Duration":75225,"SoundDuration":75225,"Delta":166322650},{"NoteNumber":67,"Velocity":40,"Duration":75225,"SoundDuration":75225,"Delta":166322650},{"NoteNumber":94,"Velocity":64,"Duration":50150,"SoundDuration":50150,"Delta":166473101},{"NoteNumber":91,"Velocity":55,"Duration":50150,"SoundDuration":50150,"Delta":166473101},{"NoteNumber":70,"Velocity":36,"Duration":75225,"SoundDuration":75225,"Delta":166473101},{"NoteNumber":91,"Velocity":55,"Duration":75225,"SoundDuration":75225,"Delta":166548327},{"NoteNumber":94,"Velocity":61,"Duration":75225,"SoundDuration":75225,"Delta":166548327},{"NoteNumber":89,"Velocity":67,"Duration":78165,"SoundDuration":78165,"Delta":166623552},{"NoteNumber":93,"Velocity":74,"Duration":78165,"SoundDuration":78165,"Delta":166623552},{"NoteNumber":53,"Velocity":47,"Duration":312662,"SoundDuration":312662,"Delta":166623552},{"NoteNumber":69,"Velocity":36,"Duration":78165,"SoundDuration":78165,"Delta":166779884},{"NoteNumber":93,"Velocity":70,"Duration":613565,"SoundDuration":613565,"Delta":166936215},{"NoteNumber":81,"Velocity":59,"Duration":613565,"SoundDuration":613565,"Delta":166936215},{"NoteNumber":89,"Velocity":59,"Duration":613565,"SoundDuration":613565,"Delta":166936215},{"NoteNumber":60,"Velocity":33,"Duration":75225,"SoundDuration":75225,"Delta":166936215},{"NoteNumber":65,"Velocity":41,"Duration":75225,"SoundDuration":75225,"Delta":166936215},{"NoteNumber":69,"Velocity":36,"Duration":75225,"SoundDuration":75225,"Delta":167086667},{"NoteNumber":57,"Velocity":48,"Duration":78165,"SoundDuration":78165,"Delta":167237118},{"NoteNumber":72,"Velocity":36,"Duration":78165,"SoundDuration":78165,"Delta":167393449},{"NoteNumber":96,"Velocity":72,"Duration":150451,"SoundDuration":150451,"Delta":167549781},{"NoteNumber":84,"Velocity":61,"Duration":150451,"SoundDuration":150451,"Delta":167549781},{"NoteNumber":69,"Velocity":46,"Duration":75225,"SoundDuration":75225,"Delta":167549781},{"NoteNumber":65,"Velocity":41,"Duration":75225,"SoundDuration":75225,"Delta":167549781},{"NoteNumber":72,"Velocity":41,"Duration":75225,"SoundDuration":75225,"Delta":167700232},{"NoteNumber":95,"Velocity":69,"Duration":298722,"SoundDuration":298722,"Delta":167850683},{"NoteNumber":83,"Velocity":58,"Duration":298722,"SoundDuration":298722,"Delta":167850683},{"NoteNumber":59,"Velocity":48,"Duration":298722,"SoundDuration":298722,"Delta":167850683},{"NoteNumber":88,"Velocity":60,"Duration":73565,"SoundDuration":73565,"Delta":168002275},{"NoteNumber":71,"Velocity":36,"Duration":73565,"SoundDuration":73565,"Delta":168002275},{"NoteNumber":88,"Velocity":51,"Duration":147131,"SoundDuration":147131,"Delta":168149406},{"NoteNumber":83,"Velocity":55,"Duration":303462,"SoundDuration":303462,"Delta":168149406},{"NoteNumber":95,"Velocity":70,"Duration":303462,"SoundDuration":303462,"Delta":168149406},{"NoteNumber":64,"Velocity":43,"Duration":73565,"SoundDuration":73565,"Delta":168149406},{"NoteNumber":67,"Velocity":43,"Duration":73565,"SoundDuration":73565,"Delta":168149406},{"NoteNumber":87,"Velocity":61,"Duration":78165,"SoundDuration":78165,"Delta":168296537},{"NoteNumber":71,"Velocity":38,"Duration":78165,"SoundDuration":78165,"Delta":168296537},{"NoteNumber":87,"Velocity":69,"Duration":156331,"SoundDuration":156331,"Delta":168452869},{"NoteNumber":59,"Velocity":50,"Duration":303462,"SoundDuration":303462,"Delta":168452869},{"NoteNumber":83,"Velocity":56,"Duration":73565,"SoundDuration":73565,"Delta":168609200},{"NoteNumber":95,"Velocity":61,"Duration":73565,"SoundDuration":73565,"Delta":168609200},{"NoteNumber":71,"Velocity":38,"Duration":73565,"SoundDuration":73565,"Delta":168609200},{"NoteNumber":95,"Velocity":61,"Duration":305945,"SoundDuration":305945,"Delta":168756331},{"NoteNumber":83,"Velocity":52,"Duration":305945,"SoundDuration":305945,"Delta":168756331},{"NoteNumber":69,"Velocity":44,"Duration":73565,"SoundDuration":73565,"Delta":168756331},{"NoteNumber":66,"Velocity":36,"Duration":73565,"SoundDuration":73565,"Delta":168756331},{"NoteNumber":87,"Velocity":62,"Duration":79407,"SoundDuration":79407,"Delta":168903462},{"NoteNumber":71,"Velocity":39,"Duration":79407,"SoundDuration":79407,"Delta":168903462},{"NoteNumber":90,"Velocity":72,"Duration":148221,"SoundDuration":148221,"Delta":169062276},{"NoteNumber":95,"Velocity":71,"Duration":296442,"SoundDuration":296442,"Delta":169062276},{"NoteNumber":83,"Velocity":54,"Duration":296442,"SoundDuration":296442,"Delta":169062276},{"NoteNumber":59,"Velocity":52,"Duration":296442,"SoundDuration":296442,"Delta":169062276},{"NoteNumber":88,"Velocity":65,"Duration":74110,"SoundDuration":74110,"Delta":169210498},{"NoteNumber":71,"Velocity":40,"Duration":74110,"SoundDuration":74110,"Delta":169210498},{"NoteNumber":88,"Velocity":55,"Duration":144369,"SoundDuration":144369,"Delta":169358719},{"NoteNumber":83,"Velocity":60,"Duration":294820,"SoundDuration":294820,"Delta":169358719},{"NoteNumber":95,"Velocity":76,"Duration":294820,"SoundDuration":294820,"Delta":169358719},{"NoteNumber":64,"Velocity":47,"Duration":72184,"SoundDuration":72184,"Delta":169358719},{"NoteNumber":67,"Velocity":47,"Duration":72184,"SoundDuration":72184,"Delta":169358719},{"NoteNumber":87,"Velocity":67,"Duration":75225,"SoundDuration":75225,"Delta":169503088},{"NoteNumber":71,"Velocity":40,"Duration":75225,"SoundDuration":75225,"Delta":169503088},{"NoteNumber":87,"Velocity":76,"Duration":290466,"SoundDuration":290466,"Delta":169653540},{"NoteNumber":59,"Velocity":55,"Duration":290466,"SoundDuration":290466,"Delta":169653540},{"NoteNumber":83,"Velocity":60,"Duration":71667,"SoundDuration":71667,"Delta":169800671},{"NoteNumber":95,"Velocity":66,"Duration":71667,"SoundDuration":71667,"Delta":169800671},{"NoteNumber":71,"Velocity":41,"Duration":71667,"SoundDuration":71667,"Delta":169800671},{"NoteNumber":95,"Velocity":67,"Duration":292662,"SoundDuration":292662,"Delta":169944006},{"NoteNumber":83,"Velocity":56,"Duration":292662,"SoundDuration":292662,"Delta":169944006},{"NoteNumber":69,"Velocity":48,"Duration":71667,"SoundDuration":71667,"Delta":169944006},{"NoteNumber":66,"Velocity":39,"Duration":71667,"SoundDuration":71667,"Delta":169944006},{"NoteNumber":87,"Velocity":67,"Duration":74664,"SoundDuration":74664,"Delta":170087341},{"NoteNumber":71,"Velocity":42,"Duration":74664,"SoundDuration":74664,"Delta":170087341},{"NoteNumber":90,"Velocity":79,"Duration":142925,"SoundDuration":142925,"Delta":170236669},{"NoteNumber":95,"Velocity":78,"Duration":285240,"SoundDuration":285240,"Delta":170236669},{"NoteNumber":83,"Velocity":59,"Duration":285240,"SoundDuration":285240,"Delta":170236669},{"NoteNumber":67,"Velocity":49,"Duration":71462,"SoundDuration":71462,"Delta":170236669},{"NoteNumber":64,"Velocity":57,"Duration":285240,"SoundDuration":285240,"Delta":170236669},{"NoteNumber":88,"Velocity":70,"Duration":71157,"SoundDuration":71157,"Delta":170379594},{"NoteNumber":71,"Velocity":42,"Duration":71157,"SoundDuration":71157,"Delta":170379594},{"NoteNumber":87,"Velocity":60,"Duration":142314,"SoundDuration":142314,"Delta":170521909},{"NoteNumber":83,"Velocity":65,"Duration":291642,"SoundDuration":291642,"Delta":170521909},{"NoteNumber":95,"Velocity":83,"Duration":291642,"SoundDuration":291642,"Delta":170521909},{"NoteNumber":66,"Velocity":50,"Duration":71157,"SoundDuration":71157,"Delta":170521909},{"NoteNumber":69,"Velocity":50,"Duration":71157,"SoundDuration":71157,"Delta":170521909},{"NoteNumber":59,"Velocity":50,"Duration":291642,"SoundDuration":291642,"Delta":170521909},{"NoteNumber":90,"Velocity":72,"Duration":74664,"SoundDuration":74664,"Delta":170664224},{"NoteNumber":71,"Velocity":45,"Duration":74664,"SoundDuration":74664,"Delta":170664224},{"NoteNumber":95,"Velocity":82,"Duration":280635,"SoundDuration":280635,"Delta":170813552},{"NoteNumber":83,"Velocity":69,"Duration":280635,"SoundDuration":280635,"Delta":170813552},{"NoteNumber":90,"Velocity":69,"Duration":280635,"SoundDuration":280635,"Delta":170813552},{"NoteNumber":67,"Velocity":51,"Duration":70158,"SoundDuration":70158,"Delta":170813552},{"NoteNumber":64,"Velocity":61,"Duration":280635,"SoundDuration":280635,"Delta":170813552},{"NoteNumber":88,"Velocity":72,"Duration":70158,"SoundDuration":70158,"Delta":170953870},{"NoteNumber":71,"Velocity":45,"Duration":70158,"SoundDuration":70158,"Delta":170953870},{"NoteNumber":87,"Velocity":69,"Duration":288539,"SoundDuration":288539,"Delta":171094188},{"NoteNumber":95,"Velocity":73,"Duration":288539,"SoundDuration":288539,"Delta":171094188},{"NoteNumber":83,"Velocity":62,"Duration":288539,"SoundDuration":288539,"Delta":171094188},{"NoteNumber":59,"Velocity":54,"Duration":288539,"SoundDuration":288539,"Delta":171094188},{"NoteNumber":69,"Velocity":51,"Duration":70159,"SoundDuration":70159,"Delta":171094188},{"NoteNumber":66,"Velocity":43,"Duration":70159,"SoundDuration":70159,"Delta":171094188},{"NoteNumber":90,"Velocity":73,"Duration":74110,"SoundDuration":74110,"Delta":171234506},{"NoteNumber":71,"Velocity":47,"Duration":74110,"SoundDuration":74110,"Delta":171234506},{"NoteNumber":83,"Velocity":63,"Duration":148221,"SoundDuration":148221,"Delta":171382727},{"NoteNumber":88,"Velocity":85,"Duration":148221,"SoundDuration":148221,"Delta":171382727},{"NoteNumber":95,"Velocity":83,"Duration":148221,"SoundDuration":148221,"Delta":171382727},{"NoteNumber":64,"Velocity":60,"Duration":148221,"SoundDuration":148221,"Delta":171382727},{"NoteNumber":67,"Velocity":54,"Duration":148221,"SoundDuration":148221,"Delta":171382727},{"NoteNumber":71,"Velocity":52,"Duration":214490,"SoundDuration":214490,"Delta":172272055},{"NoteNumber":45,"Velocity":48,"Duration":1493865,"SoundDuration":1493865,"Delta":172486545},{"NoteNumber":52,"Velocity":53,"Duration":1422368,"SoundDuration":1422368,"Delta":172558041},{"NoteNumber":57,"Velocity":57,"Duration":1350872,"SoundDuration":1350872,"Delta":172629538},{"NoteNumber":60,"Velocity":56,"Duration":1279375,"SoundDuration":1279375,"Delta":172701035},{"NoteNumber":64,"Velocity":63,"Duration":1207878,"SoundDuration":1207878,"Delta":172772531},{"NoteNumber":72,"Velocity":70,"Duration":1136382,"SoundDuration":1136382,"Delta":172844028},{"NoteNumber":71,"Velocity":45,"Duration":86010,"SoundDuration":86010,"Delta":173980410},{"NoteNumber":76,"Velocity":40,"Duration":84371,"SoundDuration":84371,"Delta":174066421},{"NoteNumber":72,"Velocity":40,"Duration":84371,"SoundDuration":84371,"Delta":174066421},{"NoteNumber":75,"Velocity":40,"Duration":81750,"SoundDuration":81750,"Delta":174150792},{"NoteNumber":72,"Velocity":40,"Duration":79329,"SoundDuration":79329,"Delta":174232543},{"NoteNumber":76,"Velocity":40,"Duration":79329,"SoundDuration":79329,"Delta":174232543},{"NoteNumber":71,"Velocity":45,"Duration":76855,"SoundDuration":76855,"Delta":174311872},{"NoteNumber":72,"Velocity":42,"Duration":74335,"SoundDuration":74335,"Delta":174388728},{"NoteNumber":76,"Velocity":42,"Duration":74335,"SoundDuration":74335,"Delta":174388728},{"NoteNumber":75,"Velocity":42,"Duration":72293,"SoundDuration":72293,"Delta":174463063},{"NoteNumber":72,"Velocity":43,"Duration":70394,"SoundDuration":70394,"Delta":174535357},{"NoteNumber":76,"Velocity":43,"Duration":70394,"SoundDuration":70394,"Delta":174535357},{"NoteNumber":71,"Velocity":47,"Duration":68497,"SoundDuration":68497,"Delta":174605751},{"NoteNumber":76,"Velocity":43,"Duration":68058,"SoundDuration":68058,"Delta":174674249},{"NoteNumber":72,"Velocity":43,"Duration":68058,"SoundDuration":68058,"Delta":174674249},{"NoteNumber":75,"Velocity":44,"Duration":68058,"SoundDuration":68058,"Delta":174742307},{"NoteNumber":72,"Velocity":44,"Duration":68058,"SoundDuration":68058,"Delta":174810365},{"NoteNumber":76,"Velocity":44,"Duration":68058,"SoundDuration":68058,"Delta":174810365},{"NoteNumber":71,"Velocity":49,"Duration":68058,"SoundDuration":68058,"Delta":174878423},{"NoteNumber":72,"Velocity":45,"Duration":68058,"SoundDuration":68058,"Delta":174946481},{"NoteNumber":76,"Velocity":45,"Duration":68058,"SoundDuration":68058,"Delta":174946481},{"NoteNumber":75,"Velocity":45,"Duration":68058,"SoundDuration":68058,"Delta":175014539},{"NoteNumber":72,"Velocity":45,"Duration":68058,"SoundDuration":68058,"Delta":175082597},{"NoteNumber":76,"Velocity":45,"Duration":68058,"SoundDuration":68058,"Delta":175082597},{"NoteNumber":71,"Velocity":50,"Duration":67904,"SoundDuration":67904,"Delta":175150656},{"NoteNumber":76,"Velocity":47,"Duration":68340,"SoundDuration":68340,"Delta":175218560},{"NoteNumber":72,"Velocity":47,"Duration":68340,"SoundDuration":68340,"Delta":175218560},{"NoteNumber":75,"Velocity":48,"Duration":69802,"SoundDuration":69802,"Delta":175286901},{"NoteNumber":72,"Velocity":48,"Duration":71328,"SoundDuration":71328,"Delta":175356703},{"NoteNumber":76,"Velocity":48,"Duration":71328,"SoundDuration":71328,"Delta":175356703},{"NoteNumber":71,"Velocity":52,"Duration":72962,"SoundDuration":72962,"Delta":175428032},{"NoteNumber":72,"Velocity":48,"Duration":74555,"SoundDuration":74555,"Delta":175500994},{"NoteNumber":76,"Velocity":48,"Duration":74555,"SoundDuration":74555,"Delta":175500994},{"NoteNumber":75,"Velocity":48,"Duration":76337,"SoundDuration":76337,"Delta":175575550},{"NoteNumber":72,"Velocity":49,"Duration":77519,"SoundDuration":77519,"Delta":175651888},{"NoteNumber":76,"Velocity":49,"Duration":77519,"SoundDuration":77519,"Delta":175651888},{"NoteNumber":84,"Velocity":69,"Duration":204359,"SoundDuration":204359,"Delta":175729408},{"NoteNumber":45,"Velocity":48,"Duration":1493865,"SoundDuration":1493865,"Delta":176853386},{"NoteNumber":54,"Velocity":53,"Duration":1422368,"SoundDuration":1422368,"Delta":176924882},{"NoteNumber":60,"Velocity":57,"Duration":1350872,"SoundDuration":1350872,"Delta":176996379},{"NoteNumber":63,"Velocity":56,"Duration":1279375,"SoundDuration":1279375,"Delta":177067876},{"NoteNumber":66,"Velocity":63,"Duration":1207878,"SoundDuration":1207878,"Delta":177139372},{"NoteNumber":75,"Velocity":70,"Duration":1136382,"SoundDuration":1136382,"Delta":177210869},{"NoteNumber":74,"Velocity":45,"Duration":86010,"SoundDuration":86010,"Delta":178347251},{"NoteNumber":78,"Velocity":40,"Duration":84371,"SoundDuration":84371,"Delta":178433262},{"NoteNumber":75,"Velocity":40,"Duration":84371,"SoundDuration":84371,"Delta":178433262},{"NoteNumber":77,"Velocity":40,"Duration":81750,"SoundDuration":81750,"Delta":178517633},{"NoteNumber":75,"Velocity":40,"Duration":79329,"SoundDuration":79329,"Delta":178599383},{"NoteNumber":78,"Velocity":40,"Duration":79329,"SoundDuration":79329,"Delta":178599383},{"NoteNumber":74,"Velocity":45,"Duration":76855,"SoundDuration":76855,"Delta":178678713},{"NoteNumber":75,"Velocity":42,"Duration":74335,"SoundDuration":74335,"Delta":178755568},{"NoteNumber":78,"Velocity":42,"Duration":74335,"SoundDuration":74335,"Delta":178755568},{"NoteNumber":77,"Velocity":42,"Duration":72293,"SoundDuration":72293,"Delta":178829904},{"NoteNumber":75,"Velocity":43,"Duration":70394,"SoundDuration":70394,"Delta":178902198},{"NoteNumber":78,"Velocity":43,"Duration":70394,"SoundDuration":70394,"Delta":178902198},{"NoteNumber":74,"Velocity":47,"Duration":68497,"SoundDuration":68497,"Delta":178972592},{"NoteNumber":78,"Velocity":43,"Duration":68058,"SoundDuration":68058,"Delta":179041090},{"NoteNumber":75,"Velocity":43,"Duration":68058,"SoundDuration":68058,"Delta":179041090},{"NoteNumber":77,"Velocity":44,"Duration":68058,"SoundDuration":68058,"Delta":179109148},{"NoteNumber":75,"Velocity":44,"Duration":68058,"SoundDuration":68058,"Delta":179177206},{"NoteNumber":78,"Velocity":44,"Duration":68058,"SoundDuration":68058,"Delta":179177206},{"NoteNumber":74,"Velocity":49,"Duration":68058,"SoundDuration":68058,"Delta":179245264},{"NoteNumber":75,"Velocity":45,"Duration":68058,"SoundDuration":68058,"Delta":179313322},{"NoteNumber":78,"Velocity":45,"Duration":68058,"SoundDuration":68058,"Delta":179313322},{"NoteNumber":77,"Velocity":45,"Duration":68058,"SoundDuration":68058,"Delta":179381380},{"NoteNumber":75,"Velocity":45,"Duration":68058,"SoundDuration":68058,"Delta":179449438},{"NoteNumber":78,"Velocity":45,"Duration":68058,"SoundDuration":68058,"Delta":179449438},{"NoteNumber":74,"Velocity":50,"Duration":67904,"SoundDuration":67904,"Delta":179517496},{"NoteNumber":78,"Velocity":47,"Duration":68340,"SoundDuration":68340,"Delta":179585401},{"NoteNumber":75,"Velocity":47,"Duration":68340,"SoundDuration":68340,"Delta":179585401},{"NoteNumber":77,"Velocity":48,"Duration":69802,"SoundDuration":69802,"Delta":179653742},{"NoteNumber":75,"Velocity":48,"Duration":71328,"SoundDuration":71328,"Delta":179723544},{"NoteNumber":78,"Velocity":48,"Duration":71328,"SoundDuration":71328,"Delta":179723544},{"NoteNumber":74,"Velocity":52,"Duration":72962,"SoundDuration":72962,"Delta":179794873},{"NoteNumber":75,"Velocity":48,"Duration":74555,"SoundDuration":74555,"Delta":179867835},{"NoteNumber":78,"Velocity":48,"Duration":74555,"SoundDuration":74555,"Delta":179867835},{"NoteNumber":77,"Velocity":48,"Duration":76337,"SoundDuration":76337,"Delta":179942391},{"NoteNumber":75,"Velocity":49,"Duration":77923,"SoundDuration":77923,"Delta":180018729},{"NoteNumber":78,"Velocity":49,"Duration":77923,"SoundDuration":77923,"Delta":180018729},{"NoteNumber":87,"Velocity":72,"Duration":204359,"SoundDuration":204359,"Delta":180096653},{"NoteNumber":40,"Velocity":65,"Duration":1422368,"SoundDuration":1422368,"Delta":181292127},{"NoteNumber":55,"Velocity":68,"Duration":1350872,"SoundDuration":1350872,"Delta":181363624},{"NoteNumber":64,"Velocity":72,"Duration":1279375,"SoundDuration":1279375,"Delta":181435121},{"NoteNumber":71,"Velocity":76,"Duration":1207878,"SoundDuration":1207878,"Delta":181506617},{"NoteNumber":76,"Velocity":84,"Duration":1136382,"SoundDuration":1136382,"Delta":181578114},{"NoteNumber":75,"Velocity":49,"Duration":86010,"SoundDuration":86010,"Delta":182714496},{"NoteNumber":83,"Velocity":44,"Duration":84371,"SoundDuration":84371,"Delta":182800507},{"NoteNumber":76,"Velocity":44,"Duration":84371,"SoundDuration":84371,"Delta":182800507},{"NoteNumber":82,"Velocity":44,"Duration":81750,"SoundDuration":81750,"Delta":182884878},{"NoteNumber":78,"Velocity":44,"Duration":81750,"SoundDuration":81750,"Delta":182884878},{"NoteNumber":79,"Velocity":44,"Duration":79329,"SoundDuration":79329,"Delta":182966628},{"NoteNumber":83,"Velocity":44,"Duration":79329,"SoundDuration":79329,"Delta":182966628},{"NoteNumber":75,"Velocity":54,"Duration":76855,"SoundDuration":76855,"Delta":183045958},{"NoteNumber":76,"Velocity":47,"Duration":74335,"SoundDuration":74335,"Delta":183122813},{"NoteNumber":83,"Velocity":47,"Duration":74335,"SoundDuration":74335,"Delta":183122813},{"NoteNumber":82,"Velocity":47,"Duration":72293,"SoundDuration":72293,"Delta":183197149},{"NoteNumber":78,"Velocity":47,"Duration":72293,"SoundDuration":72293,"Delta":183197149},{"NoteNumber":79,"Velocity":47,"Duration":70394,"SoundDuration":70394,"Delta":183269443},{"NoteNumber":83,"Velocity":47,"Duration":70394,"SoundDuration":70394,"Delta":183269443},{"NoteNumber":75,"Velocity":56,"Duration":68497,"SoundDuration":68497,"Delta":183339837},{"NoteNumber":83,"Velocity":47,"Duration":68058,"SoundDuration":68058,"Delta":183408334},{"NoteNumber":76,"Velocity":47,"Duration":68058,"SoundDuration":68058,"Delta":183408334},{"NoteNumber":82,"Velocity":49,"Duration":68058,"SoundDuration":68058,"Delta":183476393},{"NoteNumber":78,"Velocity":49,"Duration":68058,"SoundDuration":68058,"Delta":183476393},{"NoteNumber":79,"Velocity":49,"Duration":68058,"SoundDuration":68058,"Delta":183544451},{"NoteNumber":83,"Velocity":49,"Duration":68058,"SoundDuration":68058,"Delta":183544451},{"NoteNumber":75,"Velocity":58,"Duration":68058,"SoundDuration":68058,"Delta":183612509},{"NoteNumber":76,"Velocity":50,"Duration":68058,"SoundDuration":68058,"Delta":183680567},{"NoteNumber":83,"Velocity":50,"Duration":68058,"SoundDuration":68058,"Delta":183680567},{"NoteNumber":82,"Velocity":50,"Duration":68058,"SoundDuration":68058,"Delta":183748625},{"NoteNumber":78,"Velocity":50,"Duration":68058,"SoundDuration":68058,"Delta":183748625},{"NoteNumber":79,"Velocity":50,"Duration":68058,"SoundDuration":68058,"Delta":183816683},{"NoteNumber":83,"Velocity":50,"Duration":68058,"SoundDuration":68058,"Delta":183816683},{"NoteNumber":75,"Velocity":61,"Duration":67904,"SoundDuration":67904,"Delta":183884741},{"NoteNumber":83,"Velocity":53,"Duration":68340,"SoundDuration":68340,"Delta":183952646},{"NoteNumber":76,"Velocity":53,"Duration":68340,"SoundDuration":68340,"Delta":183952646},{"NoteNumber":82,"Velocity":53,"Duration":69802,"SoundDuration":69802,"Delta":184020987},{"NoteNumber":78,"Velocity":53,"Duration":69802,"SoundDuration":69802,"Delta":184020987},{"NoteNumber":79,"Velocity":53,"Duration":71328,"SoundDuration":71328,"Delta":184090789},{"NoteNumber":83,"Velocity":53,"Duration":71328,"SoundDuration":71328,"Delta":184090789},{"NoteNumber":78,"Velocity":66,"Duration":72962,"SoundDuration":72962,"Delta":184162118},{"NoteNumber":79,"Velocity":55,"Duration":74555,"SoundDuration":74555,"Delta":184235080},{"NoteNumber":88,"Velocity":55,"Duration":74555,"SoundDuration":74555,"Delta":184235080},{"NoteNumber":82,"Velocity":55,"Duration":76337,"SoundDuration":76337,"Delta":184309636},{"NoteNumber":87,"Velocity":55,"Duration":76337,"SoundDuration":76337,"Delta":184309636},{"NoteNumber":83,"Velocity":55,"Duration":76962,"SoundDuration":76962,"Delta":184385974},{"NoteNumber":88,"Velocity":55,"Duration":76962,"SoundDuration":76962,"Delta":184385974},{"NoteNumber":82,"Velocity":68,"Duration":76962,"SoundDuration":76962,"Delta":184462936},{"NoteNumber":83,"Velocity":59,"Duration":76962,"SoundDuration":76962,"Delta":184539899},{"NoteNumber":91,"Velocity":59,"Duration":76962,"SoundDuration":76962,"Delta":184539899},{"NoteNumber":87,"Velocity":60,"Duration":76962,"SoundDuration":76962,"Delta":184616861},{"NoteNumber":90,"Velocity":60,"Duration":76962,"SoundDuration":76962,"Delta":184616861},{"NoteNumber":88,"Velocity":61,"Duration":76962,"SoundDuration":76962,"Delta":184693824},{"NoteNumber":91,"Velocity":61,"Duration":76962,"SoundDuration":76962,"Delta":184693824},{"NoteNumber":87,"Velocity":73,"Duration":76962,"SoundDuration":76962,"Delta":184770786},{"NoteNumber":88,"Velocity":60,"Duration":76962,"SoundDuration":76962,"Delta":184847749},{"NoteNumber":95,"Velocity":60,"Duration":76962,"SoundDuration":76962,"Delta":184847749},{"NoteNumber":90,"Velocity":64,"Duration":76962,"SoundDuration":76962,"Delta":184924711},{"NoteNumber":94,"Velocity":64,"Duration":76962,"SoundDuration":76962,"Delta":184924711},{"NoteNumber":88,"Velocity":65,"Duration":76962,"SoundDuration":76962,"Delta":185001674},{"NoteNumber":95,"Velocity":65,"Duration":76962,"SoundDuration":76962,"Delta":185001674},{"NoteNumber":90,"Velocity":77,"Duration":76962,"SoundDuration":76962,"Delta":185078636},{"NoteNumber":91,"Velocity":68,"Duration":76962,"SoundDuration":76962,"Delta":185155599},{"NoteNumber":100,"Velocity":68,"Duration":76962,"SoundDuration":76962,"Delta":185155599},{"NoteNumber":94,"Velocity":69,"Duration":76962,"SoundDuration":76962,"Delta":185232561},{"NoteNumber":99,"Velocity":69,"Duration":76962,"SoundDuration":76962,"Delta":185232561},{"NoteNumber":95,"Velocity":71,"Duration":76962,"SoundDuration":76962,"Delta":185309524},{"NoteNumber":100,"Velocity":71,"Duration":76962,"SoundDuration":76962,"Delta":185309524},{"NoteNumber":71,"Velocity":45,"Duration":119189,"SoundDuration":119189,"Delta":186954318},{"NoteNumber":71,"Velocity":45,"Duration":178784,"SoundDuration":178784,"Delta":187133102},{"NoteNumber":72,"Velocity":49,"Duration":178784,"SoundDuration":178784,"Delta":187311886},{"NoteNumber":71,"Velocity":45,"Duration":178784,"SoundDuration":178784,"Delta":187490670},{"NoteNumber":70,"Velocity":45,"Duration":178784,"SoundDuration":178784,"Delta":187669455},{"NoteNumber":71,"Velocity":45,"Duration":178784,"SoundDuration":178784,"Delta":187848239},{"NoteNumber":76,"Velocity":48,"Duration":154417,"SoundDuration":154417,"Delta":188024043},{"NoteNumber":75,"Velocity":45,"Duration":144899,"SoundDuration":144899,"Delta":188232362},{"NoteNumber":74,"Velocity":45,"Duration":126689,"SoundDuration":126689,"Delta":188419491},{"NoteNumber":73,"Velocity":51,"Duration":117828,"SoundDuration":117828,"Delta":188588410},{"NoteNumber":72,"Velocity":44,"Duration":113722,"SoundDuration":113722,"Delta":188744146},{"NoteNumber":71,"Velocity":44,"Duration":112399,"SoundDuration":112399,"Delta":188895776},{"NoteNumber":70,"Velocity":50,"Duration":111717,"SoundDuration":111717,"Delta":189044044},{"NoteNumber":71,"Velocity":48,"Duration":224241,"SoundDuration":224241,"Delta":189193520},{"NoteNumber":64,"Velocity":38,"Duration":298370,"SoundDuration":298370,"Delta":189193520},{"NoteNumber":52,"Velocity":25,"Duration":298370,"SoundDuration":298370,"Delta":189193520},{"NoteNumber":55,"Velocity":32,"Duration":298370,"SoundDuration":298370,"Delta":189193520},{"NoteNumber":72,"Velocity":48,"Duration":186176,"SoundDuration":186176,"Delta":189417761},{"NoteNumber":45,"Velocity":48,"Duration":1531004,"SoundDuration":1531004,"Delta":189603938},{"NoteNumber":52,"Velocity":53,"Duration":1439034,"SoundDuration":1439034,"Delta":189695909},{"NoteNumber":57,"Velocity":57,"Duration":1336560,"SoundDuration":1336560,"Delta":189798383},{"NoteNumber":60,"Velocity":56,"Duration":1269834,"SoundDuration":1269834,"Delta":189865109},{"NoteNumber":64,"Velocity":63,"Duration":1203108,"SoundDuration":1203108,"Delta":189931835},{"NoteNumber":72,"Velocity":70,"Duration":1136382,"SoundDuration":1136382,"Delta":189998561},{"NoteNumber":71,"Velocity":45,"Duration":86010,"SoundDuration":86010,"Delta":191134943},{"NoteNumber":76,"Velocity":40,"Duration":84371,"SoundDuration":84371,"Delta":191220954},{"NoteNumber":72,"Velocity":40,"Duration":84371,"SoundDuration":84371,"Delta":191220954},{"NoteNumber":75,"Velocity":40,"Duration":81750,"SoundDuration":81750,"Delta":191305325},{"NoteNumber":72,"Velocity":40,"Duration":79329,"SoundDuration":79329,"Delta":191387075},{"NoteNumber":76,"Velocity":40,"Duration":79329,"SoundDuration":79329,"Delta":191387075},{"NoteNumber":71,"Velocity":45,"Duration":76855,"SoundDuration":76855,"Delta":191466405},{"NoteNumber":72,"Velocity":42,"Duration":74335,"SoundDuration":74335,"Delta":191543260},{"NoteNumber":76,"Velocity":42,"Duration":74335,"SoundDuration":74335,"Delta":191543260},{"NoteNumber":75,"Velocity":42,"Duration":72293,"SoundDuration":72293,"Delta":191617596},{"NoteNumber":72,"Velocity":43,"Duration":70394,"SoundDuration":70394,"Delta":191689890},{"NoteNumber":76,"Velocity":43,"Duration":70394,"SoundDuration":70394,"Delta":191689890},{"NoteNumber":71,"Velocity":47,"Duration":68497,"SoundDuration":68497,"Delta":191760284},{"NoteNumber":76,"Velocity":43,"Duration":68058,"SoundDuration":68058,"Delta":191828781},{"NoteNumber":72,"Velocity":43,"Duration":68058,"SoundDuration":68058,"Delta":191828781},{"NoteNumber":75,"Velocity":44,"Duration":68058,"SoundDuration":68058,"Delta":191896840},{"NoteNumber":72,"Velocity":44,"Duration":68058,"SoundDuration":68058,"Delta":191964898},{"NoteNumber":76,"Velocity":44,"Duration":68058,"SoundDuration":68058,"Delta":191964898},{"NoteNumber":71,"Velocity":49,"Duration":68058,"SoundDuration":68058,"Delta":192032956},{"NoteNumber":72,"Velocity":45,"Duration":68058,"SoundDuration":68058,"Delta":192101014},{"NoteNumber":76,"Velocity":45,"Duration":68058,"SoundDuration":68058,"Delta":192101014},{"NoteNumber":75,"Velocity":45,"Duration":68058,"SoundDuration":68058,"Delta":192169072},{"NoteNumber":72,"Velocity":45,"Duration":68058,"SoundDuration":68058,"Delta":192237130},{"NoteNumber":76,"Velocity":45,"Duration":68058,"SoundDuration":68058,"Delta":192237130},{"NoteNumber":71,"Velocity":50,"Duration":67904,"SoundDuration":67904,"Delta":192305188},{"NoteNumber":76,"Velocity":47,"Duration":67812,"SoundDuration":67812,"Delta":192373093},{"NoteNumber":72,"Velocity":47,"Duration":67812,"SoundDuration":67812,"Delta":192373093},{"NoteNumber":75,"Velocity":48,"Duration":68682,"SoundDuration":68682,"Delta":192440906},{"NoteNumber":72,"Velocity":48,"Duration":69574,"SoundDuration":69574,"Delta":192509588},{"NoteNumber":76,"Velocity":48,"Duration":69574,"SoundDuration":69574,"Delta":192509588},{"NoteNumber":71,"Velocity":52,"Duration":70490,"SoundDuration":70490,"Delta":192579163},{"NoteNumber":72,"Velocity":48,"Duration":71430,"SoundDuration":71430,"Delta":192649653},{"NoteNumber":76,"Velocity":48,"Duration":71430,"SoundDuration":71430,"Delta":192649653},{"NoteNumber":75,"Velocity":48,"Duration":72395,"SoundDuration":72395,"Delta":192721084},{"NoteNumber":72,"Velocity":49,"Duration":73386,"SoundDuration":73386,"Delta":192793479},{"NoteNumber":76,"Velocity":49,"Duration":73386,"SoundDuration":73386,"Delta":192793479},{"NoteNumber":72,"Velocity":56,"Duration":74405,"SoundDuration":74405,"Delta":192866866},{"NoteNumber":76,"Velocity":59,"Duration":75491,"SoundDuration":75491,"Delta":192941272},{"NoteNumber":84,"Velocity":64,"Duration":76571,"SoundDuration":76571,"Delta":193016763},{"NoteNumber":76,"Velocity":65,"Duration":77681,"SoundDuration":77681,"Delta":193093335},{"NoteNumber":72,"Velocity":56,"Duration":78825,"SoundDuration":78825,"Delta":193171017},{"NoteNumber":64,"Velocity":62,"Duration":80002,"SoundDuration":80002,"Delta":193249842},{"NoteNumber":72,"Velocity":57,"Duration":81215,"SoundDuration":81215,"Delta":193329844},{"NoteNumber":45,"Velocity":48,"Duration":1493865,"SoundDuration":1493865,"Delta":193952112},{"NoteNumber":54,"Velocity":53,"Duration":1422368,"SoundDuration":1422368,"Delta":194023609},{"NoteNumber":60,"Velocity":57,"Duration":1350872,"SoundDuration":1350872,"Delta":194095106},{"NoteNumber":63,"Velocity":56,"Duration":1279375,"SoundDuration":1279375,"Delta":194166602},{"NoteNumber":66,"Velocity":63,"Duration":1207878,"SoundDuration":1207878,"Delta":194238099},{"NoteNumber":75,"Velocity":70,"Duration":1136382,"SoundDuration":1136382,"Delta":194309596},{"NoteNumber":74,"Velocity":45,"Duration":86010,"SoundDuration":86010,"Delta":195445978},{"NoteNumber":78,"Velocity":40,"Duration":84371,"SoundDuration":84371,"Delta":195531988},{"NoteNumber":75,"Velocity":40,"Duration":84371,"SoundDuration":84371,"Delta":195531988},{"NoteNumber":77,"Velocity":40,"Duration":81750,"SoundDuration":81750,"Delta":195616360},{"NoteNumber":75,"Velocity":40,"Duration":79329,"SoundDuration":79329,"Delta":195698110},{"NoteNumber":78,"Velocity":40,"Duration":79329,"SoundDuration":79329,"Delta":195698110},{"NoteNumber":74,"Velocity":45,"Duration":76855,"SoundDuration":76855,"Delta":195777440},{"NoteNumber":75,"Velocity":42,"Duration":74335,"SoundDuration":74335,"Delta":195854295},{"NoteNumber":78,"Velocity":42,"Duration":74335,"SoundDuration":74335,"Delta":195854295},{"NoteNumber":77,"Velocity":42,"Duration":72293,"SoundDuration":72293,"Delta":195928631},{"NoteNumber":75,"Velocity":43,"Duration":70394,"SoundDuration":70394,"Delta":196000924},{"NoteNumber":78,"Velocity":43,"Duration":70394,"SoundDuration":70394,"Delta":196000924},{"NoteNumber":74,"Velocity":47,"Duration":68497,"SoundDuration":68497,"Delta":196071318},{"NoteNumber":78,"Velocity":43,"Duration":68058,"SoundDuration":68058,"Delta":196139816},{"NoteNumber":75,"Velocity":43,"Duration":68058,"SoundDuration":68058,"Delta":196139816},{"NoteNumber":77,"Velocity":44,"Duration":68058,"SoundDuration":68058,"Delta":196207874},{"NoteNumber":75,"Velocity":44,"Duration":68058,"SoundDuration":68058,"Delta":196275932},{"NoteNumber":78,"Velocity":44,"Duration":68058,"SoundDuration":68058,"Delta":196275932},{"NoteNumber":74,"Velocity":49,"Duration":68058,"SoundDuration":68058,"Delta":196343990},{"NoteNumber":75,"Velocity":45,"Duration":68058,"SoundDuration":68058,"Delta":196412049},{"NoteNumber":78,"Velocity":45,"Duration":68058,"SoundDuration":68058,"Delta":196412049},{"NoteNumber":77,"Velocity":45,"Duration":68058,"SoundDuration":68058,"Delta":196480107},{"NoteNumber":75,"Velocity":45,"Duration":68058,"SoundDuration":68058,"Delta":196548165},{"NoteNumber":78,"Velocity":45,"Duration":68058,"SoundDuration":68058,"Delta":196548165},{"NoteNumber":74,"Velocity":50,"Duration":67904,"SoundDuration":67904,"Delta":196616223},{"NoteNumber":78,"Velocity":47,"Duration":68340,"SoundDuration":68340,"Delta":196684128},{"NoteNumber":75,"Velocity":47,"Duration":68340,"SoundDuration":68340,"Delta":196684128},{"NoteNumber":77,"Velocity":48,"Duration":69802,"SoundDuration":69802,"Delta":196752469},{"NoteNumber":75,"Velocity":48,"Duration":71328,"SoundDuration":71328,"Delta":196822271},{"NoteNumber":78,"Velocity":48,"Duration":71328,"SoundDuration":71328,"Delta":196822271},{"NoteNumber":74,"Velocity":52,"Duration":72962,"SoundDuration":72962,"Delta":196893600},{"NoteNumber":75,"Velocity":48,"Duration":74555,"SoundDuration":74555,"Delta":196966562},{"NoteNumber":78,"Velocity":48,"Duration":74555,"SoundDuration":74555,"Delta":196966562},{"NoteNumber":77,"Velocity":48,"Duration":76337,"SoundDuration":76337,"Delta":197041117},{"NoteNumber":75,"Velocity":49,"Duration":77923,"SoundDuration":77923,"Delta":197117455},{"NoteNumber":78,"Velocity":49,"Duration":77923,"SoundDuration":77923,"Delta":197117455},{"NoteNumber":75,"Velocity":56,"Duration":74405,"SoundDuration":74405,"Delta":197195379},{"NoteNumber":78,"Velocity":59,"Duration":75491,"SoundDuration":75491,"Delta":197269785},{"NoteNumber":87,"Velocity":64,"Duration":76571,"SoundDuration":76571,"Delta":197345277},{"NoteNumber":78,"Velocity":61,"Duration":77681,"SoundDuration":77681,"Delta":197421848},{"NoteNumber":75,"Velocity":58,"Duration":78825,"SoundDuration":78825,"Delta":197499530},{"NoteNumber":66,"Velocity":64,"Duration":80002,"SoundDuration":80002,"Delta":197578355},{"NoteNumber":75,"Velocity":59,"Duration":81215,"SoundDuration":81215,"Delta":197658357},{"NoteNumber":76,"Velocity":80,"Duration":463082,"SoundDuration":463082,"Delta":198266811},{"NoteNumber":40,"Velocity":65,"Duration":1422368,"SoundDuration":1422368,"Delta":198443907},{"NoteNumber":55,"Velocity":68,"Duration":1350872,"SoundDuration":1350872,"Delta":198515404},{"NoteNumber":64,"Velocity":72,"Duration":1279375,"SoundDuration":1279375,"Delta":198586900},{"NoteNumber":71,"Velocity":76,"Duration":1207878,"SoundDuration":1207878,"Delta":198658397},{"NoteNumber":76,"Velocity":84,"Duration":1136382,"SoundDuration":1136382,"Delta":198729894},{"NoteNumber":75,"Velocity":49,"Duration":86010,"SoundDuration":86010,"Delta":199866276},{"NoteNumber":83,"Velocity":44,"Duration":84371,"SoundDuration":84371,"Delta":199952287},{"NoteNumber":76,"Velocity":44,"Duration":84371,"SoundDuration":84371,"Delta":199952287},{"NoteNumber":82,"Velocity":44,"Duration":81750,"SoundDuration":81750,"Delta":200036658},{"NoteNumber":78,"Velocity":44,"Duration":81750,"SoundDuration":81750,"Delta":200036658},{"NoteNumber":79,"Velocity":44,"Duration":79329,"SoundDuration":79329,"Delta":200118408},{"NoteNumber":83,"Velocity":44,"Duration":79329,"SoundDuration":79329,"Delta":200118408},{"NoteNumber":75,"Velocity":54,"Duration":76855,"SoundDuration":76855,"Delta":200197738},{"NoteNumber":76,"Velocity":47,"Duration":74335,"SoundDuration":74335,"Delta":200274593},{"NoteNumber":83,"Velocity":47,"Duration":74335,"SoundDuration":74335,"Delta":200274593},{"NoteNumber":82,"Velocity":47,"Duration":72293,"SoundDuration":72293,"Delta":200348929},{"NoteNumber":78,"Velocity":47,"Duration":72293,"SoundDuration":72293,"Delta":200348929},{"NoteNumber":79,"Velocity":47,"Duration":70394,"SoundDuration":70394,"Delta":200421223},{"NoteNumber":83,"Velocity":47,"Duration":70394,"SoundDuration":70394,"Delta":200421223},{"NoteNumber":75,"Velocity":56,"Duration":68497,"SoundDuration":68497,"Delta":200491617},{"NoteNumber":83,"Velocity":47,"Duration":68058,"SoundDuration":68058,"Delta":200560114},{"NoteNumber":76,"Velocity":47,"Duration":68058,"SoundDuration":68058,"Delta":200560114},{"NoteNumber":82,"Velocity":49,"Duration":68058,"SoundDuration":68058,"Delta":200628173},{"NoteNumber":78,"Velocity":49,"Duration":68058,"SoundDuration":68058,"Delta":200628173},{"NoteNumber":79,"Velocity":49,"Duration":68058,"SoundDuration":68058,"Delta":200696231},{"NoteNumber":83,"Velocity":49,"Duration":68058,"SoundDuration":68058,"Delta":200696231},{"NoteNumber":75,"Velocity":58,"Duration":68058,"SoundDuration":68058,"Delta":200764289},{"NoteNumber":76,"Velocity":50,"Duration":68058,"SoundDuration":68058,"Delta":200832347},{"NoteNumber":83,"Velocity":50,"Duration":68058,"SoundDuration":68058,"Delta":200832347},{"NoteNumber":82,"Velocity":50,"Duration":68058,"SoundDuration":68058,"Delta":200900405},{"NoteNumber":78,"Velocity":50,"Duration":68058,"SoundDuration":68058,"Delta":200900405},{"NoteNumber":79,"Velocity":50,"Duration":68058,"SoundDuration":68058,"Delta":200968463},{"NoteNumber":83,"Velocity":50,"Duration":68058,"SoundDuration":68058,"Delta":200968463},{"NoteNumber":75,"Velocity":61,"Duration":68462,"SoundDuration":68462,"Delta":201036521},{"NoteNumber":83,"Velocity":53,"Duration":68524,"SoundDuration":68524,"Delta":201104984},{"NoteNumber":76,"Velocity":53,"Duration":68524,"SoundDuration":68524,"Delta":201104984},{"NoteNumber":82,"Velocity":53,"Duration":68524,"SoundDuration":68524,"Delta":201173508},{"NoteNumber":78,"Velocity":53,"Duration":68524,"SoundDuration":68524,"Delta":201173508},{"NoteNumber":79,"Velocity":53,"Duration":68587,"SoundDuration":68587,"Delta":201242033},{"NoteNumber":83,"Velocity":53,"Duration":68587,"SoundDuration":68587,"Delta":201242033},{"NoteNumber":75,"Velocity":61,"Duration":67904,"SoundDuration":67904,"Delta":201310620},{"NoteNumber":83,"Velocity":53,"Duration":68340,"SoundDuration":68340,"Delta":201378525},{"NoteNumber":76,"Velocity":53,"Duration":68340,"SoundDuration":68340,"Delta":201378525},{"NoteNumber":82,"Velocity":53,"Duration":69802,"SoundDuration":69802,"Delta":201446866},{"NoteNumber":78,"Velocity":53,"Duration":69802,"SoundDuration":69802,"Delta":201446866},{"NoteNumber":79,"Velocity":53,"Duration":71886,"SoundDuration":71886,"Delta":201516668},{"NoteNumber":83,"Velocity":53,"Duration":71886,"SoundDuration":71886,"Delta":201516668},{"NoteNumber":78,"Velocity":66,"Duration":72992,"SoundDuration":72992,"Delta":201588554},{"NoteNumber":79,"Velocity":55,"Duration":72498,"SoundDuration":72498,"Delta":201661547},{"NoteNumber":88,"Velocity":55,"Duration":72498,"SoundDuration":72498,"Delta":201661547},{"NoteNumber":82,"Velocity":55,"Duration":72116,"SoundDuration":72116,"Delta":201734046},{"NoteNumber":87,"Velocity":55,"Duration":72116,"SoundDuration":72116,"Delta":201734046},{"NoteNumber":83,"Velocity":55,"Duration":71634,"SoundDuration":71634,"Delta":201806162},{"NoteNumber":88,"Velocity":55,"Duration":71634,"SoundDuration":71634,"Delta":201806162},{"NoteNumber":82,"Velocity":68,"Duration":71293,"SoundDuration":71293,"Delta":201877796},{"NoteNumber":83,"Velocity":59,"Duration":70955,"SoundDuration":70955,"Delta":201949090},{"NoteNumber":91,"Velocity":59,"Duration":70955,"SoundDuration":70955,"Delta":201949090},{"NoteNumber":87,"Velocity":60,"Duration":70455,"SoundDuration":70455,"Delta":202020045},{"NoteNumber":90,"Velocity":60,"Duration":70455,"SoundDuration":70455,"Delta":202020045},{"NoteNumber":88,"Velocity":61,"Duration":69995,"SoundDuration":69995,"Delta":202090501},{"NoteNumber":91,"Velocity":61,"Duration":69995,"SoundDuration":69995,"Delta":202090501},{"NoteNumber":87,"Velocity":73,"Duration":69671,"SoundDuration":69671,"Delta":202160496},{"NoteNumber":88,"Velocity":60,"Duration":69220,"SoundDuration":69220,"Delta":202230167},{"NoteNumber":95,"Velocity":60,"Duration":69220,"SoundDuration":69220,"Delta":202230167},{"NoteNumber":90,"Velocity":64,"Duration":68902,"SoundDuration":68902,"Delta":202299388},{"NoteNumber":94,"Velocity":64,"Duration":68902,"SoundDuration":68902,"Delta":202299388},{"NoteNumber":91,"Velocity":65,"Duration":68524,"SoundDuration":68524,"Delta":202368291},{"NoteNumber":95,"Velocity":65,"Duration":68524,"SoundDuration":68524,"Delta":202368291},{"NoteNumber":90,"Velocity":77,"Duration":68120,"SoundDuration":68120,"Delta":202436816},{"NoteNumber":91,"Velocity":68,"Duration":67690,"SoundDuration":67690,"Delta":202504936},{"NoteNumber":100,"Velocity":68,"Duration":67690,"SoundDuration":67690,"Delta":202504936},{"NoteNumber":94,"Velocity":69,"Duration":67386,"SoundDuration":67386,"Delta":202572626},{"NoteNumber":99,"Velocity":69,"Duration":67386,"SoundDuration":67386,"Delta":202572626},{"NoteNumber":91,"Velocity":71,"Duration":66845,"SoundDuration":66845,"Delta":202640012},{"NoteNumber":100,"Velocity":71,"Duration":66845,"SoundDuration":66845,"Delta":202640012},{"NoteNumber":87,"Velocity":77,"Duration":66964,"SoundDuration":66964,"Delta":202706858},{"NoteNumber":88,"Velocity":67,"Duration":67386,"SoundDuration":67386,"Delta":202773823},{"NoteNumber":95,"Velocity":67,"Duration":67386,"SoundDuration":67386,"Delta":202773823},{"NoteNumber":90,"Velocity":67,"Duration":67935,"SoundDuration":67935,"Delta":202841209},{"NoteNumber":94,"Velocity":67,"Duration":67935,"SoundDuration":67935,"Delta":202841209},{"NoteNumber":91,"Velocity":67,"Duration":68369,"SoundDuration":68369,"Delta":202909144},{"NoteNumber":95,"Velocity":67,"Duration":68369,"SoundDuration":68369,"Delta":202909144},{"NoteNumber":82,"Velocity":68,"Duration":68808,"SoundDuration":68808,"Delta":202977513},{"NoteNumber":83,"Velocity":60,"Duration":69380,"SoundDuration":69380,"Delta":203046321},{"NoteNumber":91,"Velocity":60,"Duration":69380,"SoundDuration":69380,"Delta":203046321},{"NoteNumber":87,"Velocity":60,"Duration":69833,"SoundDuration":69833,"Delta":203115702},{"NoteNumber":90,"Velocity":60,"Duration":69833,"SoundDuration":69833,"Delta":203115702},{"NoteNumber":88,"Velocity":60,"Duration":70422,"SoundDuration":70422,"Delta":203185535},{"NoteNumber":91,"Velocity":60,"Duration":70422,"SoundDuration":70422,"Delta":203185535},{"NoteNumber":87,"Velocity":73,"Duration":70455,"SoundDuration":70455,"Delta":203255958},{"NoteNumber":88,"Velocity":60,"Duration":70324,"SoundDuration":70324,"Delta":203326414},{"NoteNumber":95,"Velocity":60,"Duration":70324,"SoundDuration":70324,"Delta":203326414},{"NoteNumber":90,"Velocity":64,"Duration":69962,"SoundDuration":69962,"Delta":203396738},{"NoteNumber":94,"Velocity":64,"Duration":69962,"SoundDuration":69962,"Delta":203396738},{"NoteNumber":91,"Velocity":65,"Duration":69638,"SoundDuration":69638,"Delta":203466700},{"NoteNumber":95,"Velocity":65,"Duration":69638,"SoundDuration":69638,"Delta":203466700},{"NoteNumber":90,"Velocity":77,"Duration":69444,"SoundDuration":69444,"Delta":203536339},{"NoteNumber":91,"Velocity":68,"Duration":68997,"SoundDuration":68997,"Delta":203605784},{"NoteNumber":100,"Velocity":68,"Duration":68997,"SoundDuration":68997,"Delta":203605784},{"NoteNumber":94,"Velocity":69,"Duration":68776,"SoundDuration":68776,"Delta":203674781},{"NoteNumber":99,"Velocity":69,"Duration":68776,"SoundDuration":68776,"Delta":203674781},{"NoteNumber":95,"Velocity":71,"Duration":68524,"SoundDuration":68524,"Delta":203743558},{"NoteNumber":100,"Velocity":71,"Duration":68524,"SoundDuration":68524,"Delta":203743558},{"NoteNumber":87,"Velocity":73,"Duration":68151,"SoundDuration":68151,"Delta":203812082},{"NoteNumber":88,"Velocity":65,"Duration":68650,"SoundDuration":68650,"Delta":203880233},{"NoteNumber":95,"Velocity":65,"Duration":68650,"SoundDuration":68650,"Delta":203880233},{"NoteNumber":90,"Velocity":65,"Duration":69220,"SoundDuration":69220,"Delta":203948884},{"NoteNumber":94,"Velocity":65,"Duration":69220,"SoundDuration":69220,"Delta":203948884},{"NoteNumber":91,"Velocity":65,"Duration":69995,"SoundDuration":69995,"Delta":204018105},{"NoteNumber":95,"Velocity":65,"Duration":69995,"SoundDuration":69995,"Delta":204018105},{"NoteNumber":82,"Velocity":68,"Duration":70622,"SoundDuration":70622,"Delta":204088101},{"NoteNumber":83,"Velocity":59,"Duration":71361,"SoundDuration":71361,"Delta":204158723},{"NoteNumber":91,"Velocity":59,"Duration":71361,"SoundDuration":71361,"Delta":204158723},{"NoteNumber":87,"Velocity":60,"Duration":72081,"SoundDuration":72081,"Delta":204230084},{"NoteNumber":90,"Velocity":60,"Duration":72081,"SoundDuration":72081,"Delta":204230084},{"NoteNumber":88,"Velocity":61,"Duration":72923,"SoundDuration":72923,"Delta":204302166},{"NoteNumber":91,"Velocity":61,"Duration":72923,"SoundDuration":72923,"Delta":204302166},{"NoteNumber":87,"Velocity":73,"Duration":73529,"SoundDuration":73529,"Delta":204375089},{"NoteNumber":88,"Velocity":60,"Duration":72887,"SoundDuration":72887,"Delta":204448619},{"NoteNumber":95,"Velocity":60,"Duration":72887,"SoundDuration":72887,"Delta":204448619},{"NoteNumber":90,"Velocity":64,"Duration":72255,"SoundDuration":72255,"Delta":204521506},{"NoteNumber":94,"Velocity":64,"Duration":72255,"SoundDuration":72255,"Delta":204521506},{"NoteNumber":91,"Velocity":65,"Duration":71634,"SoundDuration":71634,"Delta":204593761},{"NoteNumber":95,"Velocity":65,"Duration":71634,"SoundDuration":71634,"Delta":204593761},{"NoteNumber":90,"Velocity":77,"Duration":71158,"SoundDuration":71158,"Delta":204665395},{"NoteNumber":91,"Velocity":68,"Duration":70555,"SoundDuration":70555,"Delta":204736554},{"NoteNumber":100,"Velocity":68,"Duration":70555,"SoundDuration":70555,"Delta":204736554},{"NoteNumber":94,"Velocity":69,"Duration":69865,"SoundDuration":69865,"Delta":204807109},{"NoteNumber":99,"Velocity":69,"Duration":69865,"SoundDuration":69865,"Delta":204807109},{"NoteNumber":95,"Velocity":71,"Duration":69284,"SoundDuration":69284,"Delta":204876975},{"NoteNumber":100,"Velocity":71,"Duration":69284,"SoundDuration":69284,"Delta":204876975},{"NoteNumber":87,"Velocity":73,"Duration":69157,"SoundDuration":69157,"Delta":204946259},{"NoteNumber":88,"Velocity":60,"Duration":69606,"SoundDuration":69606,"Delta":205015417},{"NoteNumber":95,"Velocity":60,"Duration":69606,"SoundDuration":69606,"Delta":205015417},{"NoteNumber":90,"Velocity":64,"Duration":70061,"SoundDuration":70061,"Delta":205085023},{"NoteNumber":94,"Velocity":64,"Duration":70061,"SoundDuration":70061,"Delta":205085023},{"NoteNumber":91,"Velocity":65,"Duration":70655,"SoundDuration":70655,"Delta":205155084},{"NoteNumber":95,"Velocity":65,"Duration":70655,"SoundDuration":70655,"Delta":205155084},{"NoteNumber":90,"Velocity":77,"Duration":71124,"SoundDuration":71124,"Delta":205225740},{"NoteNumber":91,"Velocity":68,"Duration":71599,"SoundDuration":71599,"Delta":205296864},{"NoteNumber":100,"Velocity":68,"Duration":71599,"SoundDuration":71599,"Delta":205296864},{"NoteNumber":94,"Velocity":69,"Duration":72220,"SoundDuration":72220,"Delta":205368464},{"NoteNumber":99,"Velocity":69,"Duration":72220,"SoundDuration":72220,"Delta":205368464},{"NoteNumber":95,"Velocity":71,"Duration":72710,"SoundDuration":72710,"Delta":205440684},{"NoteNumber":100,"Velocity":71,"Duration":72710,"SoundDuration":72710,"Delta":205440684},{"NoteNumber":87,"Velocity":73,"Duration":72710,"SoundDuration":72710,"Delta":205513395},{"NoteNumber":88,"Velocity":60,"Duration":72498,"SoundDuration":72498,"Delta":205586105},{"NoteNumber":95,"Velocity":60,"Duration":72498,"SoundDuration":72498,"Delta":205586105},{"NoteNumber":90,"Velocity":64,"Duration":72604,"SoundDuration":72604,"Delta":205658604},{"NoteNumber":94,"Velocity":64,"Duration":72604,"SoundDuration":72604,"Delta":205658604},{"NoteNumber":91,"Velocity":65,"Duration":73028,"SoundDuration":73028,"Delta":205731209},{"NoteNumber":95,"Velocity":65,"Duration":73028,"SoundDuration":73028,"Delta":205731209},{"NoteNumber":90,"Velocity":77,"Duration":73028,"SoundDuration":73028,"Delta":205804237},{"NoteNumber":91,"Velocity":68,"Duration":73458,"SoundDuration":73458,"Delta":205877265},{"NoteNumber":100,"Velocity":68,"Duration":73458,"SoundDuration":73458,"Delta":205877265},{"NoteNumber":94,"Velocity":69,"Duration":73565,"SoundDuration":73565,"Delta":205950723},{"NoteNumber":99,"Velocity":69,"Duration":73565,"SoundDuration":73565,"Delta":205950723},{"NoteNumber":95,"Velocity":71,"Duration":73928,"SoundDuration":73928,"Delta":206024289},{"NoteNumber":100,"Velocity":71,"Duration":73928,"SoundDuration":73928,"Delta":206024289},{"NoteNumber":87,"Velocity":73,"Duration":74110,"SoundDuration":74110,"Delta":206098218},{"NoteNumber":88,"Velocity":60,"Duration":74258,"SoundDuration":74258,"Delta":206172328},{"NoteNumber":95,"Velocity":60,"Duration":74258,"SoundDuration":74258,"Delta":206172328},{"NoteNumber":90,"Velocity":64,"Duration":74664,"SoundDuration":74664,"Delta":206246587},{"NoteNumber":94,"Velocity":64,"Duration":74664,"SoundDuration":74664,"Delta":206246587},{"NoteNumber":91,"Velocity":65,"Duration":74738,"SoundDuration":74738,"Delta":206321251},{"NoteNumber":95,"Velocity":65,"Duration":74738,"SoundDuration":74738,"Delta":206321251},{"NoteNumber":90,"Velocity":77,"Duration":75225,"SoundDuration":75225,"Delta":206395990},{"NoteNumber":91,"Velocity":68,"Duration":75225,"SoundDuration":75225,"Delta":206471215},{"NoteNumber":100,"Velocity":68,"Duration":75225,"SoundDuration":75225,"Delta":206471215},{"NoteNumber":94,"Velocity":69,"Duration":75795,"SoundDuration":75795,"Delta":206546441},{"NoteNumber":99,"Velocity":69,"Duration":75795,"SoundDuration":75795,"Delta":206546441},{"NoteNumber":95,"Velocity":71,"Duration":76027,"SoundDuration":76027,"Delta":206622237},{"NoteNumber":100,"Velocity":71,"Duration":76027,"SoundDuration":76027,"Delta":206622237},{"NoteNumber":90,"Velocity":77,"Duration":76374,"SoundDuration":76374,"Delta":206698264},{"NoteNumber":91,"Velocity":64,"Duration":76688,"SoundDuration":76688,"Delta":206774639},{"NoteNumber":100,"Velocity":64,"Duration":76688,"SoundDuration":76688,"Delta":206774639},{"NoteNumber":94,"Velocity":63,"Duration":76962,"SoundDuration":76962,"Delta":206851327},{"NoteNumber":99,"Velocity":63,"Duration":76962,"SoundDuration":76962,"Delta":206851327},{"NoteNumber":95,"Velocity":62,"Duration":77519,"SoundDuration":77519,"Delta":206928290},{"NoteNumber":100,"Velocity":62,"Duration":77519,"SoundDuration":77519,"Delta":206928290},{"NoteNumber":90,"Velocity":69,"Duration":77599,"SoundDuration":77599,"Delta":207005809},{"NoteNumber":91,"Velocity":60,"Duration":78165,"SoundDuration":78165,"Delta":207083409},{"NoteNumber":100,"Velocity":60,"Duration":78165,"SoundDuration":78165,"Delta":207083409},{"NoteNumber":94,"Velocity":59,"Duration":78453,"SoundDuration":78453,"Delta":207161575},{"NoteNumber":99,"Velocity":59,"Duration":78453,"SoundDuration":78453,"Delta":207161575},{"NoteNumber":95,"Velocity":59,"Duration":78781,"SoundDuration":78781,"Delta":207240028},{"NoteNumber":100,"Velocity":59,"Duration":78781,"SoundDuration":78781,"Delta":207240028},{"NoteNumber":90,"Velocity":64,"Duration":79156,"SoundDuration":79156,"Delta":207318810},{"NoteNumber":91,"Velocity":57,"Duration":79407,"SoundDuration":79407,"Delta":207397966},{"NoteNumber":100,"Velocity":57,"Duration":79407,"SoundDuration":79407,"Delta":207397966},{"NoteNumber":94,"Velocity":56,"Duration":80042,"SoundDuration":80042,"Delta":207477374},{"NoteNumber":99,"Velocity":56,"Duration":80042,"SoundDuration":80042,"Delta":207477374},{"NoteNumber":95,"Velocity":55,"Duration":80128,"SoundDuration":80128,"Delta":207557416},{"NoteNumber":100,"Velocity":55,"Duration":80128,"SoundDuration":80128,"Delta":207557416},{"NoteNumber":90,"Velocity":57,"Duration":80688,"SoundDuration":80688,"Delta":207637545},{"NoteNumber":91,"Velocity":46,"Duration":81038,"SoundDuration":81038,"Delta":207718234},{"NoteNumber":100,"Velocity":46,"Duration":81038,"SoundDuration":81038,"Delta":207718234},{"NoteNumber":94,"Velocity":46,"Duration":81344,"SoundDuration":81344,"Delta":207799272},{"NoteNumber":99,"Velocity":46,"Duration":81344,"SoundDuration":81344,"Delta":207799272},{"NoteNumber":95,"Velocity":45,"Duration":81789,"SoundDuration":81789,"Delta":207880617},{"NoteNumber":100,"Velocity":45,"Duration":81789,"SoundDuration":81789,"Delta":207880617},{"NoteNumber":90,"Velocity":52,"Duration":82057,"SoundDuration":82057,"Delta":207962407},{"NoteNumber":91,"Velocity":44,"Duration":82690,"SoundDuration":82690,"Delta":208044464},{"NoteNumber":100,"Velocity":44,"Duration":82690,"SoundDuration":82690,"Delta":208044464},{"NoteNumber":94,"Velocity":44,"Duration":82828,"SoundDuration":82828,"Delta":208127154},{"NoteNumber":99,"Velocity":44,"Duration":82828,"SoundDuration":82828,"Delta":208127154},{"NoteNumber":95,"Velocity":40,"Duration":83379,"SoundDuration":83379,"Delta":208209982},{"NoteNumber":100,"Velocity":44,"Duration":83379,"SoundDuration":83379,"Delta":208209982},{"NoteNumber":76,"Velocity":50,"Duration":323251,"SoundDuration":323251,"Delta":208970004},{"NoteNumber":71,"Velocity":50,"Duration":323251,"SoundDuration":323251,"Delta":208970004},{"NoteNumber":64,"Velocity":42,"Duration":323251,"SoundDuration":323251,"Delta":208970004},{"NoteNumber":67,"Velocity":42,"Duration":323251,"SoundDuration":323251,"Delta":208970004},{"NoteNumber":77,"Velocity":59,"Duration":332986,"SoundDuration":332986,"Delta":209293256},{"NoteNumber":71,"Velocity":43,"Duration":169016,"SoundDuration":169016,"Delta":209293256},{"NoteNumber":62,"Velocity":36,"Duration":169016,"SoundDuration":169016,"Delta":209293256},{"NoteNumber":69,"Velocity":36,"Duration":169016,"SoundDuration":169016,"Delta":209293256},{"NoteNumber":79,"Velocity":47,"Duration":37502,"SoundDuration":37502,"Delta":209336003},{"NoteNumber":81,"Velocity":49,"Duration":37216,"SoundDuration":37216,"Delta":209373505},{"NoteNumber":83,"Velocity":50,"Duration":36987,"SoundDuration":36987,"Delta":209410722},{"NoteNumber":84,"Velocity":52,"Duration":36702,"SoundDuration":36702,"Delta":209447709},{"NoteNumber":86,"Velocity":54,"Duration":36511,"SoundDuration":36511,"Delta":209483721},{"NoteNumber":88,"Velocity":55,"Duration":36245,"SoundDuration":36245,"Delta":209520232},{"NoteNumber":89,"Velocity":57,"Duration":36027,"SoundDuration":36027,"Delta":209556478},{"NoteNumber":91,"Velocity":59,"Duration":33736,"SoundDuration":33736,"Delta":209592505},{"NoteNumber":93,"Velocity":72,"Duration":393214,"SoundDuration":393214,"Delta":209626242},{"NoteNumber":71,"Velocity":54,"Duration":164025,"SoundDuration":164025,"Delta":209979206},{"NoteNumber":55,"Velocity":42,"Duration":164025,"SoundDuration":164025,"Delta":209979206},{"NoteNumber":65,"Velocity":42,"Duration":164025,"SoundDuration":164025,"Delta":209979206},{"NoteNumber":91,"Velocity":52,"Duration":40747,"SoundDuration":40747,"Delta":210019456},{"NoteNumber":89,"Velocity":50,"Duration":41280,"SoundDuration":41280,"Delta":210060204},{"NoteNumber":88,"Velocity":48,"Duration":41748,"SoundDuration":41748,"Delta":210101484},{"NoteNumber":86,"Velocity":47,"Duration":42191,"SoundDuration":42191,"Delta":210143232},{"NoteNumber":84,"Velocity":45,"Duration":42757,"SoundDuration":42757,"Delta":210185424},{"NoteNumber":83,"Velocity":43,"Duration":43331,"SoundDuration":43331,"Delta":210228181},{"NoteNumber":81,"Velocity":41,"Duration":44971,"SoundDuration":44971,"Delta":210271513},{"NoteNumber":79,"Velocity":40,"Duration":43415,"SoundDuration":43415,"Delta":210316484},{"NoteNumber":77,"Velocity":38,"Duration":43440,"SoundDuration":43440,"Delta":210359900},{"NoteNumber":76,"Velocity":36,"Duration":43604,"SoundDuration":43604,"Delta":210403340},{"NoteNumber":74,"Velocity":50,"Duration":43706,"SoundDuration":43706,"Delta":210446945},{"NoteNumber":72,"Velocity":57,"Duration":396874,"SoundDuration":396874,"Delta":210669537},{"NoteNumber":64,"Velocity":51,"Duration":202356,"SoundDuration":202356,"Delta":210669537},{"NoteNumber":60,"Velocity":43,"Duration":202356,"SoundDuration":202356,"Delta":210669537},{"NoteNumber":74,"Velocity":46,"Duration":25545,"SoundDuration":25545,"Delta":210695178},{"NoteNumber":76,"Velocity":47,"Duration":25453,"SoundDuration":25453,"Delta":210720723},{"NoteNumber":77,"Velocity":49,"Duration":25337,"SoundDuration":25337,"Delta":210746177},{"NoteNumber":79,"Velocity":50,"Duration":25231,"SoundDuration":25231,"Delta":210771515},{"NoteNumber":81,"Velocity":52,"Duration":25138,"SoundDuration":25138,"Delta":210796747},{"NoteNumber":83,"Velocity":53,"Duration":25050,"SoundDuration":25050,"Delta":210821885},{"NoteNumber":84,"Velocity":55,"Duration":24958,"SoundDuration":24958,"Delta":210846935},{"NoteNumber":86,"Velocity":57,"Duration":24834,"SoundDuration":24834,"Delta":210871894},{"NoteNumber":88,"Velocity":58,"Duration":24748,"SoundDuration":24748,"Delta":210896728},{"NoteNumber":89,"Velocity":60,"Duration":24659,"SoundDuration":24659,"Delta":210921477},{"NoteNumber":91,"Velocity":61,"Duration":24570,"SoundDuration":24570,"Delta":210946136},{"NoteNumber":93,"Velocity":63,"Duration":24469,"SoundDuration":24469,"Delta":210970706},{"NoteNumber":95,"Velocity":64,"Duration":24366,"SoundDuration":24366,"Delta":210995176},{"NoteNumber":96,"Velocity":66,"Duration":24279,"SoundDuration":24279,"Delta":211019542},{"NoteNumber":98,"Velocity":69,"Duration":22589,"SoundDuration":22589,"Delta":211043822},{"NoteNumber":100,"Velocity":76,"Duration":381940,"SoundDuration":381940,"Delta":211066411},{"NoteNumber":98,"Velocity":49,"Duration":20166,"SoundDuration":20166,"Delta":211448352},{"NoteNumber":96,"Velocity":48,"Duration":20217,"SoundDuration":20217,"Delta":211469326},{"NoteNumber":95,"Velocity":47,"Duration":20292,"SoundDuration":20292,"Delta":211489543},{"NoteNumber":93,"Velocity":46,"Duration":20292,"SoundDuration":20292,"Delta":211509836},{"NoteNumber":91,"Velocity":45,"Duration":20383,"SoundDuration":20383,"Delta":211530128},{"NoteNumber":89,"Velocity":45,"Duration":20431,"SoundDuration":20431,"Delta":211550511},{"NoteNumber":88,"Velocity":44,"Duration":20491,"SoundDuration":20491,"Delta":211571763},{"NoteNumber":86,"Velocity":43,"Duration":20503,"SoundDuration":20503,"Delta":211592254},{"NoteNumber":84,"Velocity":42,"Duration":20593,"SoundDuration":20593,"Delta":211612758},{"NoteNumber":83,"Velocity":41,"Duration":20654,"SoundDuration":20654,"Delta":211633352},{"NoteNumber":81,"Velocity":40,"Duration":20695,"SoundDuration":20695,"Delta":211654006},{"NoteNumber":79,"Velocity":40,"Duration":20728,"SoundDuration":20728,"Delta":211675529},{"NoteNumber":77,"Velocity":39,"Duration":20798,"SoundDuration":20798,"Delta":211696258},{"NoteNumber":76,"Velocity":38,"Duration":20882,"SoundDuration":20882,"Delta":211717056},{"NoteNumber":74,"Velocity":37,"Duration":20903,"SoundDuration":20903,"Delta":211737938},{"NoteNumber":72,"Velocity":36,"Duration":20953,"SoundDuration":20953,"Delta":211758841},{"NoteNumber":71,"Velocity":36,"Duration":21008,"SoundDuration":21008,"Delta":211780635},{"NoteNumber":69,"Velocity":35,"Duration":21114,"SoundDuration":21114,"Delta":211801644},{"NoteNumber":67,"Velocity":56,"Duration":18573,"SoundDuration":18573,"Delta":211823603},{"NoteNumber":60,"Velocity":50,"Duration":178305,"SoundDuration":178305,"Delta":211823603},{"NoteNumber":52,"Velocity":42,"Duration":178305,"SoundDuration":178305,"Delta":211823603},{"NoteNumber":55,"Velocity":42,"Duration":178305,"SoundDuration":178305,"Delta":211823603},{"NoteNumber":65,"Velocity":54,"Duration":417492,"SoundDuration":417492,"Delta":212184749},{"NoteNumber":60,"Velocity":54,"Duration":212010,"SoundDuration":212010,"Delta":212184749},{"NoteNumber":50,"Velocity":45,"Duration":212010,"SoundDuration":212010,"Delta":212184749},{"NoteNumber":57,"Velocity":45,"Duration":212010,"SoundDuration":212010,"Delta":212184749},{"NoteNumber":67,"Velocity":39,"Duration":20572,"SoundDuration":20572,"Delta":212205370},{"NoteNumber":69,"Velocity":40,"Duration":20472,"SoundDuration":20472,"Delta":212225942},{"NoteNumber":71,"Velocity":41,"Duration":20439,"SoundDuration":20439,"Delta":212246414},{"NoteNumber":72,"Velocity":43,"Duration":20353,"SoundDuration":20353,"Delta":212265968},{"NoteNumber":74,"Velocity":44,"Duration":20297,"SoundDuration":20297,"Delta":212286322},{"NoteNumber":76,"Velocity":45,"Duration":20246,"SoundDuration":20246,"Delta":212306620},{"NoteNumber":77,"Velocity":47,"Duration":20153,"SoundDuration":20153,"Delta":212326867},{"NoteNumber":79,"Velocity":48,"Duration":20121,"SoundDuration":20121,"Delta":212347021},{"NoteNumber":81,"Velocity":49,"Duration":20034,"SoundDuration":20034,"Delta":212366271},{"NoteNumber":83,"Velocity":51,"Duration":19985,"SoundDuration":19985,"Delta":212386306},{"NoteNumber":84,"Velocity":52,"Duration":19930,"SoundDuration":19930,"Delta":212406291},{"NoteNumber":86,"Velocity":53,"Duration":19849,"SoundDuration":19849,"Delta":212426222},{"NoteNumber":88,"Velocity":54,"Duration":19814,"SoundDuration":19814,"Delta":212446072},{"NoteNumber":89,"Velocity":56,"Duration":19725,"SoundDuration":19725,"Delta":212465029},{"NoteNumber":91,"Velocity":57,"Duration":19681,"SoundDuration":19681,"Delta":212484754},{"NoteNumber":93,"Velocity":58,"Duration":19624,"SoundDuration":19624,"Delta":212504436},{"NoteNumber":95,"Velocity":59,"Duration":19550,"SoundDuration":19550,"Delta":212524060},{"NoteNumber":96,"Velocity":60,"Duration":19516,"SoundDuration":19516,"Delta":212543611},{"NoteNumber":98,"Velocity":62,"Duration":19404,"SoundDuration":19404,"Delta":212562282},{"NoteNumber":100,"Velocity":63,"Duration":19698,"SoundDuration":19698,"Delta":212581687},{"NoteNumber":101,"Velocity":72,"Duration":195125,"SoundDuration":195125,"Delta":212602242},{"NoteNumber":59,"Velocity":50,"Duration":205001,"SoundDuration":205001,"Delta":212963420},{"NoteNumber":43,"Velocity":42,"Duration":205001,"SoundDuration":205001,"Delta":212963420},{"NoteNumber":53,"Velocity":42,"Duration":205001,"SoundDuration":205001,"Delta":212963420},{"NoteNumber":100,"Velocity":47,"Duration":17525,"SoundDuration":17525,"Delta":212980849},{"NoteNumber":98,"Velocity":46,"Duration":17621,"SoundDuration":17621,"Delta":212998374},{"NoteNumber":96,"Velocity":46,"Duration":17719,"SoundDuration":17719,"Delta":213015996},{"NoteNumber":95,"Velocity":45,"Duration":17813,"SoundDuration":17813,"Delta":213033716},{"NoteNumber":93,"Velocity":45,"Duration":17918,"SoundDuration":17918,"Delta":213051530},{"NoteNumber":91,"Velocity":44,"Duration":18023,"SoundDuration":18023,"Delta":213069448},{"NoteNumber":89,"Velocity":44,"Duration":18125,"SoundDuration":18125,"Delta":213087471},{"NoteNumber":88,"Velocity":43,"Duration":18224,"SoundDuration":18224,"Delta":213105597},{"NoteNumber":86,"Velocity":42,"Duration":18329,"SoundDuration":18329,"Delta":213123822},{"NoteNumber":84,"Velocity":42,"Duration":18388,"SoundDuration":18388,"Delta":213142151},{"NoteNumber":83,"Velocity":41,"Duration":18444,"SoundDuration":18444,"Delta":213160540},{"NoteNumber":81,"Velocity":41,"Duration":18551,"SoundDuration":18551,"Delta":213178984},{"NoteNumber":79,"Velocity":40,"Duration":18654,"SoundDuration":18654,"Delta":213197536},{"NoteNumber":77,"Velocity":39,"Duration":18764,"SoundDuration":18764,"Delta":213216191},{"NoteNumber":76,"Velocity":39,"Duration":18875,"SoundDuration":18875,"Delta":213234955},{"NoteNumber":74,"Velocity":38,"Duration":18997,"SoundDuration":18997,"Delta":213253830},{"NoteNumber":72,"Velocity":38,"Duration":19105,"SoundDuration":19105,"Delta":213272827},{"NoteNumber":71,"Velocity":37,"Duration":19220,"SoundDuration":19220,"Delta":213291933},{"NoteNumber":69,"Velocity":36,"Duration":19337,"SoundDuration":19337,"Delta":213311154},{"NoteNumber":67,"Velocity":36,"Duration":19454,"SoundDuration":19454,"Delta":213330491},{"NoteNumber":65,"Velocity":35,"Duration":19828,"SoundDuration":19828,"Delta":213349946},{"NoteNumber":64,"Velocity":35,"Duration":17584,"SoundDuration":17584,"Delta":213369774},{"NoteNumber":62,"Velocity":56,"Duration":45058,"SoundDuration":45058,"Delta":213387359},{"NoteNumber":60,"Velocity":57,"Duration":295927,"SoundDuration":295927,"Delta":213752195},{"NoteNumber":52,"Velocity":51,"Duration":889107,"SoundDuration":889107,"Delta":213752195},{"NoteNumber":48,"Velocity":43,"Duration":889107,"SoundDuration":889107,"Delta":213752195},{"NoteNumber":62,"Velocity":45,"Duration":37051,"SoundDuration":37051,"Delta":213790445},{"NoteNumber":64,"Velocity":46,"Duration":37805,"SoundDuration":37805,"Delta":213827496},{"NoteNumber":65,"Velocity":47,"Duration":37698,"SoundDuration":37698,"Delta":213864332},{"NoteNumber":67,"Velocity":47,"Duration":36517,"SoundDuration":36517,"Delta":213902031},{"NoteNumber":69,"Velocity":48,"Duration":37370,"SoundDuration":37370,"Delta":213938549},{"NoteNumber":71,"Velocity":49,"Duration":36204,"SoundDuration":36204,"Delta":213975920},{"NoteNumber":72,"Velocity":50,"Duration":36945,"SoundDuration":36945,"Delta":214012124},{"NoteNumber":74,"Velocity":51,"Duration":36844,"SoundDuration":36844,"Delta":214048122},{"NoteNumber":76,"Velocity":52,"Duration":35694,"SoundDuration":35694,"Delta":214084966},{"NoteNumber":77,"Velocity":53,"Duration":36530,"SoundDuration":36530,"Delta":214120661},{"NoteNumber":79,"Velocity":53,"Duration":35394,"SoundDuration":35394,"Delta":214157191},{"NoteNumber":81,"Velocity":54,"Duration":36119,"SoundDuration":36119,"Delta":214192586},{"NoteNumber":83,"Velocity":55,"Duration":35924,"SoundDuration":35924,"Delta":214227785},{"NoteNumber":84,"Velocity":56,"Duration":34907,"SoundDuration":34907,"Delta":214263709},{"NoteNumber":86,"Velocity":57,"Duration":35627,"SoundDuration":35627,"Delta":214298617},{"NoteNumber":88,"Velocity":58,"Duration":34621,"SoundDuration":34621,"Delta":214334244},{"NoteNumber":89,"Velocity":59,"Duration":35333,"SoundDuration":35333,"Delta":214368865},{"NoteNumber":91,"Velocity":60,"Duration":35147,"SoundDuration":35147,"Delta":214403298},{"NoteNumber":93,"Velocity":60,"Duration":34154,"SoundDuration":34154,"Delta":214438446},{"NoteNumber":95,"Velocity":61,"Duration":34862,"SoundDuration":34862,"Delta":214472600},{"NoteNumber":96,"Velocity":62,"Duration":33880,"SoundDuration":33880,"Delta":214507463},{"NoteNumber":98,"Velocity":63,"Duration":34582,"SoundDuration":34582,"Delta":214541343},{"NoteNumber":100,"Velocity":64,"Duration":34403,"SoundDuration":34403,"Delta":214575043},{"NoteNumber":101,"Velocity":65,"Duration":31854,"SoundDuration":31854,"Delta":214609447},{"NoteNumber":103,"Velocity":75,"Duration":45262,"SoundDuration":45262,"Delta":214641302},{"NoteNumber":64,"Velocity":50,"Duration":181049,"SoundDuration":181049,"Delta":215003402},{"NoteNumber":60,"Velocity":50,"Duration":181049,"SoundDuration":181049,"Delta":215003402},{"NoteNumber":52,"Velocity":42,"Duration":181049,"SoundDuration":181049,"Delta":215003402},{"NoteNumber":55,"Velocity":42,"Duration":181049,"SoundDuration":181049,"Delta":215003402},{"NoteNumber":65,"Velocity":57,"Duration":408270,"SoundDuration":408270,"Delta":215368287},{"NoteNumber":59,"Velocity":54,"Duration":208334,"SoundDuration":208334,"Delta":215368287},{"NoteNumber":50,"Velocity":45,"Duration":208334,"SoundDuration":208334,"Delta":215368287},{"NoteNumber":57,"Velocity":45,"Duration":208334,"SoundDuration":208334,"Delta":215368287},{"NoteNumber":67,"Velocity":45,"Duration":26408,"SoundDuration":26408,"Delta":215394822},{"NoteNumber":69,"Velocity":46,"Duration":26233,"SoundDuration":26233,"Delta":215421230},{"NoteNumber":71,"Velocity":47,"Duration":26127,"SoundDuration":26127,"Delta":215447463},{"NoteNumber":72,"Velocity":48,"Duration":25942,"SoundDuration":25942,"Delta":215473591},{"NoteNumber":74,"Velocity":50,"Duration":25848,"SoundDuration":25848,"Delta":215499534},{"NoteNumber":76,"Velocity":51,"Duration":25667,"SoundDuration":25667,"Delta":215525382},{"NoteNumber":77,"Velocity":52,"Duration":25571,"SoundDuration":25571,"Delta":215551050},{"NoteNumber":79,"Velocity":54,"Duration":25393,"SoundDuration":25393,"Delta":215576621},{"NoteNumber":81,"Velocity":55,"Duration":25303,"SoundDuration":25303,"Delta":215602015},{"NoteNumber":83,"Velocity":56,"Duration":25129,"SoundDuration":25129,"Delta":215627319},{"NoteNumber":84,"Velocity":57,"Duration":25037,"SoundDuration":25037,"Delta":215652449},{"NoteNumber":86,"Velocity":59,"Duration":24871,"SoundDuration":24871,"Delta":215677486},{"NoteNumber":88,"Velocity":60,"Duration":24781,"SoundDuration":24781,"Delta":215702358},{"NoteNumber":89,"Velocity":61,"Duration":25801,"SoundDuration":25801,"Delta":215727139},{"NoteNumber":91,"Velocity":62,"Duration":23616,"SoundDuration":23616,"Delta":215752941},{"NoteNumber":93,"Velocity":76,"Duration":382433,"SoundDuration":382433,"Delta":215776557},{"NoteNumber":59,"Velocity":50,"Duration":202394,"SoundDuration":202394,"Delta":216138266},{"NoteNumber":43,"Velocity":42,"Duration":202394,"SoundDuration":202394,"Delta":216138266},{"NoteNumber":53,"Velocity":42,"Duration":202394,"SoundDuration":202394,"Delta":216138266},{"NoteNumber":91,"Velocity":49,"Duration":22462,"SoundDuration":22462,"Delta":216158990},{"NoteNumber":89,"Velocity":48,"Duration":22571,"SoundDuration":22571,"Delta":216181453},{"NoteNumber":88,"Velocity":47,"Duration":21848,"SoundDuration":21848,"Delta":216204024},{"NoteNumber":86,"Velocity":46,"Duration":21925,"SoundDuration":21925,"Delta":216226713},{"NoteNumber":84,"Velocity":45,"Duration":22834,"SoundDuration":22834,"Delta":216248639},{"NoteNumber":83,"Velocity":45,"Duration":22981,"SoundDuration":22981,"Delta":216271473},{"NoteNumber":81,"Velocity":44,"Duration":22193,"SoundDuration":22193,"Delta":216294454},{"NoteNumber":79,"Velocity":43,"Duration":23156,"SoundDuration":23156,"Delta":216316647},{"NoteNumber":77,"Velocity":42,"Duration":23235,"SoundDuration":23235,"Delta":216339803},{"NoteNumber":76,"Velocity":41,"Duration":22521,"SoundDuration":22521,"Delta":216363039},{"NoteNumber":74,"Velocity":40,"Duration":22589,"SoundDuration":22589,"Delta":216386427},{"NoteNumber":72,"Velocity":40,"Duration":23528,"SoundDuration":23528,"Delta":216409016},{"NoteNumber":71,"Velocity":39,"Duration":22804,"SoundDuration":22804,"Delta":216432544},{"NoteNumber":69,"Velocity":38,"Duration":22887,"SoundDuration":22887,"Delta":216456229},{"NoteNumber":67,"Velocity":37,"Duration":23879,"SoundDuration":23879,"Delta":216479116},{"NoteNumber":65,"Velocity":36,"Duration":23955,"SoundDuration":23955,"Delta":216502996},{"NoteNumber":64,"Velocity":36,"Duration":23295,"SoundDuration":23295,"Delta":216526951},{"NoteNumber":62,"Velocity":56,"Duration":18740,"SoundDuration":18740,"Delta":216551159},{"NoteNumber":60,"Velocity":57,"Duration":287739,"SoundDuration":287739,"Delta":216910979},{"NoteNumber":52,"Velocity":51,"Duration":831218,"SoundDuration":831218,"Delta":216910979},{"NoteNumber":48,"Velocity":43,"Duration":831218,"SoundDuration":831218,"Delta":216910979},{"NoteNumber":62,"Velocity":48,"Duration":30734,"SoundDuration":30734,"Delta":216942464},{"NoteNumber":64,"Velocity":49,"Duration":37755,"SoundDuration":37755,"Delta":216973198},{"NoteNumber":65,"Velocity":50,"Duration":37532,"SoundDuration":37532,"Delta":217010954},{"NoteNumber":67,"Velocity":50,"Duration":38271,"SoundDuration":38271,"Delta":217048486},{"NoteNumber":69,"Velocity":51,"Duration":37188,"SoundDuration":37188,"Delta":217086758},{"NoteNumber":71,"Velocity":52,"Duration":37921,"SoundDuration":37921,"Delta":217123947},{"NoteNumber":72,"Velocity":53,"Duration":36851,"SoundDuration":36851,"Delta":217161868},{"NoteNumber":74,"Velocity":54,"Duration":37567,"SoundDuration":37567,"Delta":217198719},{"NoteNumber":76,"Velocity":55,"Duration":37380,"SoundDuration":37380,"Delta":217235392},{"NoteNumber":77,"Velocity":56,"Duration":36325,"SoundDuration":36325,"Delta":217272772},{"NoteNumber":79,"Velocity":56,"Duration":37046,"SoundDuration":37046,"Delta":217309098},{"NoteNumber":81,"Velocity":57,"Duration":36003,"SoundDuration":36003,"Delta":217346145},{"NoteNumber":83,"Velocity":58,"Duration":36718,"SoundDuration":36718,"Delta":217382148},{"NoteNumber":84,"Velocity":59,"Duration":35687,"SoundDuration":35687,"Delta":217418866},{"NoteNumber":86,"Velocity":60,"Duration":36395,"SoundDuration":36395,"Delta":217454553},{"NoteNumber":88,"Velocity":61,"Duration":35344,"SoundDuration":35344,"Delta":217490949},{"NoteNumber":89,"Velocity":62,"Duration":36051,"SoundDuration":36051,"Delta":217526293},{"NoteNumber":91,"Velocity":63,"Duration":35039,"SoundDuration":35039,"Delta":217562345},{"NoteNumber":93,"Velocity":63,"Duration":35740,"SoundDuration":35740,"Delta":217597385},{"NoteNumber":95,"Velocity":64,"Duration":34740,"SoundDuration":34740,"Delta":217633126},{"NoteNumber":96,"Velocity":65,"Duration":35434,"SoundDuration":35434,"Delta":217667866},{"NoteNumber":98,"Velocity":66,"Duration":34253,"SoundDuration":34253,"Delta":217703300},{"NoteNumber":100,"Velocity":79,"Duration":31389,"SoundDuration":31389,"Delta":217737554},{"NoteNumber":70,"Velocity":64,"Duration":161724,"SoundDuration":161724,"Delta":218098810},{"NoteNumber":60,"Velocity":54,"Duration":161724,"SoundDuration":161724,"Delta":218098810},{"NoteNumber":64,"Velocity":54,"Duration":161724,"SoundDuration":161724,"Delta":218098810},{"NoteNumber":58,"Velocity":59,"Duration":161724,"SoundDuration":161724,"Delta":218098810},{"NoteNumber":52,"Velocity":50,"Duration":161724,"SoundDuration":161724,"Delta":218098810},{"NoteNumber":55,"Velocity":50,"Duration":161724,"SoundDuration":161724,"Delta":218098810},{"NoteNumber":71,"Velocity":73,"Duration":169801,"SoundDuration":169801,"Delta":218422260},{"NoteNumber":64,"Velocity":62,"Duration":169801,"SoundDuration":169801,"Delta":218422260},{"NoteNumber":59,"Velocity":62,"Duration":169801,"SoundDuration":169801,"Delta":218422260},{"NoteNumber":56,"Velocity":61,"Duration":688518,"SoundDuration":688518,"Delta":218422260},{"NoteNumber":47,"Velocity":56,"Duration":688518,"SoundDuration":688518,"Delta":218422260},{"NoteNumber":60,"Velocity":47,"Duration":25850,"SoundDuration":25850,"Delta":218592062},{"NoteNumber":62,"Velocity":48,"Duration":26907,"SoundDuration":26907,"Delta":218618660},{"NoteNumber":64,"Velocity":50,"Duration":26793,"SoundDuration":26793,"Delta":218645567},{"NoteNumber":65,"Velocity":51,"Duration":26674,"SoundDuration":26674,"Delta":218672360},{"NoteNumber":67,"Velocity":53,"Duration":26566,"SoundDuration":26566,"Delta":218699035},{"NoteNumber":69,"Velocity":54,"Duration":26517,"SoundDuration":26517,"Delta":218725601},{"NoteNumber":71,"Velocity":56,"Duration":26410,"SoundDuration":26410,"Delta":218752119},{"NoteNumber":72,"Velocity":57,"Duration":26297,"SoundDuration":26297,"Delta":218779261},{"NoteNumber":74,"Velocity":59,"Duration":26189,"SoundDuration":26189,"Delta":218805559},{"NoteNumber":76,"Velocity":60,"Duration":26094,"SoundDuration":26094,"Delta":218831748},{"NoteNumber":77,"Velocity":62,"Duration":26031,"SoundDuration":26031,"Delta":218857843},{"NoteNumber":79,"Velocity":63,"Duration":25925,"SoundDuration":25925,"Delta":218883874},{"NoteNumber":81,"Velocity":64,"Duration":25823,"SoundDuration":25823,"Delta":218909800},{"NoteNumber":83,"Velocity":66,"Duration":25715,"SoundDuration":25715,"Delta":218936339},{"NoteNumber":84,"Velocity":67,"Duration":25648,"SoundDuration":25648,"Delta":218962054},{"NoteNumber":86,"Velocity":69,"Duration":25563,"SoundDuration":25563,"Delta":218987703},{"NoteNumber":88,"Velocity":70,"Duration":25460,"SoundDuration":25460,"Delta":219013266},{"NoteNumber":89,"Velocity":72,"Duration":25362,"SoundDuration":25362,"Delta":219038727},{"NoteNumber":91,"Velocity":73,"Duration":25261,"SoundDuration":25261,"Delta":219064089},{"NoteNumber":93,"Velocity":75,"Duration":23249,"SoundDuration":23249,"Delta":219090051},{"NoteNumber":83,"Velocity":81,"Duration":22698,"SoundDuration":22698,"Delta":219112671},{"NoteNumber":63,"Velocity":56,"Duration":156047,"SoundDuration":156047,"Delta":219413427},{"NoteNumber":59,"Velocity":56,"Duration":156047,"SoundDuration":156047,"Delta":219413427},{"NoteNumber":57,"Velocity":61,"Duration":156047,"SoundDuration":156047,"Delta":219413427},{"NoteNumber":54,"Velocity":51,"Duration":156047,"SoundDuration":156047,"Delta":219413427},{"NoteNumber":47,"Velocity":51,"Duration":156047,"SoundDuration":156047,"Delta":219413427},{"NoteNumber":71,"Velocity":67,"Duration":156047,"SoundDuration":156047,"Delta":219415378},{"NoteNumber":71,"Velocity":76,"Duration":163043,"SoundDuration":163043,"Delta":219725521},{"NoteNumber":64,"Velocity":64,"Duration":163043,"SoundDuration":163043,"Delta":219725521},{"NoteNumber":59,"Velocity":64,"Duration":163043,"SoundDuration":163043,"Delta":219725521},{"NoteNumber":56,"Velocity":64,"Duration":672614,"SoundDuration":672614,"Delta":219725521},{"NoteNumber":47,"Velocity":59,"Duration":672614,"SoundDuration":672614,"Delta":219725521},{"NoteNumber":60,"Velocity":53,"Duration":24456,"SoundDuration":24456,"Delta":219888564},{"NoteNumber":62,"Velocity":54,"Duration":25369,"SoundDuration":25369,"Delta":219913700},{"NoteNumber":64,"Velocity":55,"Duration":26208,"SoundDuration":26208,"Delta":219939070},{"NoteNumber":65,"Velocity":56,"Duration":26094,"SoundDuration":26094,"Delta":219965279},{"NoteNumber":67,"Velocity":57,"Duration":26050,"SoundDuration":26050,"Delta":219991373},{"NoteNumber":69,"Velocity":58,"Duration":25981,"SoundDuration":25981,"Delta":220017424},{"NoteNumber":71,"Velocity":60,"Duration":25891,"SoundDuration":25891,"Delta":220043405},{"NoteNumber":72,"Velocity":61,"Duration":25786,"SoundDuration":25786,"Delta":220070015},{"NoteNumber":74,"Velocity":62,"Duration":25740,"SoundDuration":25740,"Delta":220095802},{"NoteNumber":76,"Velocity":63,"Duration":25648,"SoundDuration":25648,"Delta":220121542},{"NoteNumber":77,"Velocity":64,"Duration":25587,"SoundDuration":25587,"Delta":220147190},{"NoteNumber":79,"Velocity":65,"Duration":25539,"SoundDuration":25539,"Delta":220172778},{"NoteNumber":81,"Velocity":67,"Duration":25436,"SoundDuration":25436,"Delta":220198317},{"NoteNumber":83,"Velocity":68,"Duration":25332,"SoundDuration":25332,"Delta":220224460},{"NoteNumber":84,"Velocity":69,"Duration":25291,"SoundDuration":25291,"Delta":220249793},{"NoteNumber":86,"Velocity":70,"Duration":25217,"SoundDuration":25217,"Delta":220275084},{"NoteNumber":88,"Velocity":71,"Duration":25140,"SoundDuration":25140,"Delta":220300301},{"NoteNumber":89,"Velocity":73,"Duration":25099,"SoundDuration":25099,"Delta":220325442},{"NoteNumber":91,"Velocity":74,"Duration":25001,"SoundDuration":25001,"Delta":220350542},{"NoteNumber":93,"Velocity":75,"Duration":24432,"SoundDuration":24432,"Delta":220376235},{"NoteNumber":95,"Velocity":85,"Duration":22784,"SoundDuration":22784,"Delta":220400034},{"NoteNumber":83,"Velocity":73,"Duration":156047,"SoundDuration":156047,"Delta":220701933},{"NoteNumber":78,"Velocity":73,"Duration":156047,"SoundDuration":156047,"Delta":220701933},{"NoteNumber":71,"Velocity":62,"Duration":156047,"SoundDuration":156047,"Delta":220701933},{"NoteNumber":75,"Velocity":62,"Duration":156047,"SoundDuration":156047,"Delta":220701933},{"NoteNumber":59,"Velocity":67,"Duration":156047,"SoundDuration":156047,"Delta":220701933},{"NoteNumber":54,"Velocity":67,"Duration":156047,"SoundDuration":156047,"Delta":220701933},{"NoteNumber":51,"Velocity":56,"Duration":156047,"SoundDuration":156047,"Delta":220701933},{"NoteNumber":47,"Velocity":56,"Duration":156047,"SoundDuration":156047,"Delta":220701933},{"NoteNumber":80,"Velocity":83,"Duration":161724,"SoundDuration":161724,"Delta":221014027},{"NoteNumber":83,"Velocity":83,"Duration":161724,"SoundDuration":161724,"Delta":221014027},{"NoteNumber":71,"Velocity":70,"Duration":161724,"SoundDuration":161724,"Delta":221014027},{"NoteNumber":76,"Velocity":70,"Duration":161724,"SoundDuration":161724,"Delta":221014027},{"NoteNumber":59,"Velocity":70,"Duration":161724,"SoundDuration":161724,"Delta":221014027},{"NoteNumber":56,"Velocity":70,"Duration":161724,"SoundDuration":161724,"Delta":221014027},{"NoteNumber":52,"Velocity":65,"Duration":161724,"SoundDuration":161724,"Delta":221014027},{"NoteNumber":47,"Velocity":65,"Duration":161724,"SoundDuration":161724,"Delta":221014027},{"NoteNumber":69,"Velocity":51,"Duration":25648,"SoundDuration":25648,"Delta":221353163},{"NoteNumber":72,"Velocity":58,"Duration":25648,"SoundDuration":25648,"Delta":221353876},{"NoteNumber":67,"Velocity":52,"Duration":25575,"SoundDuration":25575,"Delta":221378812},{"NoteNumber":74,"Velocity":60,"Duration":25572,"SoundDuration":25572,"Delta":221379524},{"NoteNumber":65,"Velocity":53,"Duration":25533,"SoundDuration":25533,"Delta":221404387},{"NoteNumber":76,"Velocity":61,"Duration":25530,"SoundDuration":25530,"Delta":221405097},{"NoteNumber":64,"Velocity":56,"Duration":25430,"SoundDuration":25430,"Delta":221429920},{"NoteNumber":77,"Velocity":63,"Duration":25427,"SoundDuration":25427,"Delta":221430627},{"NoteNumber":62,"Velocity":57,"Duration":25323,"SoundDuration":25323,"Delta":221455351},{"NoteNumber":79,"Velocity":64,"Duration":25323,"SoundDuration":25323,"Delta":221456055},{"NoteNumber":81,"Velocity":66,"Duration":25279,"SoundDuration":25279,"Delta":221481378},{"NoteNumber":60,"Velocity":58,"Duration":25279,"SoundDuration":25279,"Delta":221481378},{"NoteNumber":59,"Velocity":59,"Duration":25217,"SoundDuration":25217,"Delta":221506657},{"NoteNumber":83,"Velocity":67,"Duration":25217,"SoundDuration":25217,"Delta":221507358},{"NoteNumber":57,"Velocity":60,"Duration":25129,"SoundDuration":25129,"Delta":221531875},{"NoteNumber":84,"Velocity":69,"Duration":25126,"SoundDuration":25126,"Delta":221532575},{"NoteNumber":55,"Velocity":61,"Duration":25033,"SoundDuration":25033,"Delta":221557004},{"NoteNumber":86,"Velocity":70,"Duration":25030,"SoundDuration":25030,"Delta":221557701},{"NoteNumber":53,"Velocity":62,"Duration":24989,"SoundDuration":24989,"Delta":221582037},{"NoteNumber":88,"Velocity":71,"Duration":24986,"SoundDuration":24986,"Delta":221582732},{"NoteNumber":52,"Velocity":63,"Duration":24903,"SoundDuration":24903,"Delta":221607027},{"NoteNumber":89,"Velocity":73,"Duration":24903,"SoundDuration":24903,"Delta":221607718},{"NoteNumber":91,"Velocity":74,"Duration":24843,"SoundDuration":24843,"Delta":221632621},{"NoteNumber":50,"Velocity":64,"Duration":24843,"SoundDuration":24843,"Delta":221632621},{"NoteNumber":48,"Velocity":66,"Duration":24374,"SoundDuration":24374,"Delta":221657465},{"NoteNumber":93,"Velocity":76,"Duration":24318,"SoundDuration":24318,"Delta":221658153},{"NoteNumber":95,"Velocity":93,"Duration":22784,"SoundDuration":22784,"Delta":221681839},{"NoteNumber":47,"Velocity":88,"Duration":37974,"SoundDuration":37974,"Delta":221681839},{"NoteNumber":83,"Velocity":76,"Duration":157894,"SoundDuration":157894,"Delta":221983737},{"NoteNumber":78,"Velocity":76,"Duration":157894,"SoundDuration":157894,"Delta":221983737},{"NoteNumber":71,"Velocity":65,"Duration":157894,"SoundDuration":157894,"Delta":221983737},{"NoteNumber":75,"Velocity":65,"Duration":157894,"SoundDuration":157894,"Delta":221983737},{"NoteNumber":59,"Velocity":70,"Duration":157894,"SoundDuration":157894,"Delta":221983737},{"NoteNumber":54,"Velocity":70,"Duration":157894,"SoundDuration":157894,"Delta":221983737},{"NoteNumber":51,"Velocity":58,"Duration":157894,"SoundDuration":157894,"Delta":221983737},{"NoteNumber":47,"Velocity":58,"Duration":157894,"SoundDuration":157894,"Delta":221983737},{"NoteNumber":83,"Velocity":87,"Duration":161724,"SoundDuration":161724,"Delta":222299526},{"NoteNumber":88,"Velocity":87,"Duration":161724,"SoundDuration":161724,"Delta":222299526},{"NoteNumber":76,"Velocity":73,"Duration":161724,"SoundDuration":161724,"Delta":222299526},{"NoteNumber":80,"Velocity":73,"Duration":161724,"SoundDuration":161724,"Delta":222299526},{"NoteNumber":64,"Velocity":73,"Duration":161724,"SoundDuration":161724,"Delta":222299526},{"NoteNumber":59,"Velocity":73,"Duration":161724,"SoundDuration":161724,"Delta":222299526},{"NoteNumber":56,"Velocity":68,"Duration":161724,"SoundDuration":161724,"Delta":222299526},{"NoteNumber":52,"Velocity":68,"Duration":161724,"SoundDuration":161724,"Delta":222299526},{"NoteNumber":95,"Velocity":91,"Duration":190174,"SoundDuration":190174,"Delta":222950398},{"NoteNumber":100,"Velocity":91,"Duration":190174,"SoundDuration":190174,"Delta":222950398},{"NoteNumber":88,"Velocity":76,"Duration":190174,"SoundDuration":190174,"Delta":222950398},{"NoteNumber":92,"Velocity":76,"Duration":190174,"SoundDuration":190174,"Delta":222950398},{"NoteNumber":52,"Velocity":76,"Duration":190174,"SoundDuration":190174,"Delta":222950398},{"NoteNumber":47,"Velocity":76,"Duration":190174,"SoundDuration":190174,"Delta":222950398},{"NoteNumber":44,"Velocity":71,"Duration":190174,"SoundDuration":190174,"Delta":222950398},{"NoteNumber":40,"Velocity":71,"Duration":190174,"SoundDuration":190174,"Delta":222950398},{"NoteNumber":76,"Velocity":50,"Duration":181543,"SoundDuration":181543,"Delta":223330747},{"NoteNumber":64,"Velocity":42,"Duration":181543,"SoundDuration":181543,"Delta":223330747},{"NoteNumber":68,"Velocity":42,"Duration":181543,"SoundDuration":181543,"Delta":223330747},{"NoteNumber":71,"Velocity":50,"Duration":181543,"SoundDuration":181543,"Delta":223330747},{"NoteNumber":77,"Velocity":59,"Duration":343699,"SoundDuration":343699,"Delta":223694696},{"NoteNumber":71,"Velocity":43,"Duration":174945,"SoundDuration":174945,"Delta":223694696},{"NoteNumber":62,"Velocity":36,"Duration":174945,"SoundDuration":174945,"Delta":223694696},{"NoteNumber":69,"Velocity":36,"Duration":174945,"SoundDuration":174945,"Delta":223694696},{"NoteNumber":79,"Velocity":44,"Duration":38737,"SoundDuration":38737,"Delta":223739285},{"NoteNumber":81,"Velocity":46,"Duration":38432,"SoundDuration":38432,"Delta":223778023},{"NoteNumber":83,"Velocity":48,"Duration":38125,"SoundDuration":38125,"Delta":223816455},{"NoteNumber":84,"Velocity":50,"Duration":37875,"SoundDuration":37875,"Delta":223854581},{"NoteNumber":86,"Velocity":53,"Duration":37586,"SoundDuration":37586,"Delta":223891745},{"NoteNumber":88,"Velocity":55,"Duration":37308,"SoundDuration":37308,"Delta":223929332},{"NoteNumber":89,"Velocity":57,"Duration":37054,"SoundDuration":37054,"Delta":223966641},{"NoteNumber":91,"Velocity":59,"Duration":34700,"SoundDuration":34700,"Delta":224003695},{"NoteNumber":93,"Velocity":66,"Duration":391277,"SoundDuration":391277,"Delta":224038395},{"NoteNumber":71,"Velocity":54,"Duration":169918,"SoundDuration":169918,"Delta":224387620},{"NoteNumber":55,"Velocity":42,"Duration":169918,"SoundDuration":169918,"Delta":224387620},{"NoteNumber":65,"Velocity":42,"Duration":169918,"SoundDuration":169918,"Delta":224387620},{"NoteNumber":91,"Velocity":52,"Duration":42343,"SoundDuration":42343,"Delta":224429673},{"NoteNumber":89,"Velocity":50,"Duration":42604,"SoundDuration":42604,"Delta":224472016},{"NoteNumber":88,"Velocity":48,"Duration":42918,"SoundDuration":42918,"Delta":224514621},{"NoteNumber":86,"Velocity":47,"Duration":43299,"SoundDuration":43299,"Delta":224557539},{"NoteNumber":84,"Velocity":45,"Duration":43573,"SoundDuration":43573,"Delta":224600839},{"NoteNumber":83,"Velocity":43,"Duration":43885,"SoundDuration":43885,"Delta":224644412},{"NoteNumber":81,"Velocity":41,"Duration":44245,"SoundDuration":44245,"Delta":224688298},{"NoteNumber":79,"Velocity":40,"Duration":43415,"SoundDuration":43415,"Delta":224732543},{"NoteNumber":77,"Velocity":38,"Duration":43440,"SoundDuration":43440,"Delta":224775958},{"NoteNumber":76,"Velocity":36,"Duration":43604,"SoundDuration":43604,"Delta":224819399},{"NoteNumber":74,"Velocity":50,"Duration":43706,"SoundDuration":43706,"Delta":224863003},{"NoteNumber":72,"Velocity":57,"Duration":408270,"SoundDuration":408270,"Delta":225087484},{"NoteNumber":64,"Velocity":51,"Duration":208334,"SoundDuration":208334,"Delta":225087484},{"NoteNumber":60,"Velocity":43,"Duration":208334,"SoundDuration":208334,"Delta":225087484},{"NoteNumber":74,"Velocity":45,"Duration":26408,"SoundDuration":26408,"Delta":225114018},{"NoteNumber":76,"Velocity":46,"Duration":26233,"SoundDuration":26233,"Delta":225140427},{"NoteNumber":77,"Velocity":47,"Duration":26127,"SoundDuration":26127,"Delta":225166660},{"NoteNumber":79,"Velocity":48,"Duration":25942,"SoundDuration":25942,"Delta":225192788},{"NoteNumber":81,"Velocity":50,"Duration":25848,"SoundDuration":25848,"Delta":225218731},{"NoteNumber":83,"Velocity":51,"Duration":25667,"SoundDuration":25667,"Delta":225244579},{"NoteNumber":84,"Velocity":52,"Duration":25571,"SoundDuration":25571,"Delta":225270247},{"NoteNumber":86,"Velocity":54,"Duration":25393,"SoundDuration":25393,"Delta":225295818},{"NoteNumber":88,"Velocity":55,"Duration":25303,"SoundDuration":25303,"Delta":225321212},{"NoteNumber":89,"Velocity":56,"Duration":25129,"SoundDuration":25129,"Delta":225346515},{"NoteNumber":91,"Velocity":57,"Duration":25037,"SoundDuration":25037,"Delta":225371645},{"NoteNumber":93,"Velocity":59,"Duration":24871,"SoundDuration":24871,"Delta":225396683},{"NoteNumber":95,"Velocity":60,"Duration":24781,"SoundDuration":24781,"Delta":225421555},{"NoteNumber":96,"Velocity":61,"Duration":25801,"SoundDuration":25801,"Delta":225446336},{"NoteNumber":98,"Velocity":62,"Duration":23616,"SoundDuration":23616,"Delta":225472138},{"NoteNumber":100,"Velocity":76,"Duration":382433,"SoundDuration":382433,"Delta":225495754},{"NoteNumber":98,"Velocity":49,"Duration":20798,"SoundDuration":20798,"Delta":225878187},{"NoteNumber":96,"Velocity":48,"Duration":20882,"SoundDuration":20882,"Delta":225899818},{"NoteNumber":95,"Velocity":47,"Duration":21008,"SoundDuration":21008,"Delta":225920700},{"NoteNumber":93,"Velocity":46,"Duration":21059,"SoundDuration":21059,"Delta":225941708},{"NoteNumber":91,"Velocity":45,"Duration":21114,"SoundDuration":21114,"Delta":225962768},{"NoteNumber":89,"Velocity":45,"Duration":21235,"SoundDuration":21235,"Delta":225983883},{"NoteNumber":88,"Velocity":44,"Duration":21331,"SoundDuration":21331,"Delta":226005971},{"NoteNumber":86,"Velocity":43,"Duration":21405,"SoundDuration":21405,"Delta":226027303},{"NoteNumber":84,"Velocity":42,"Duration":21458,"SoundDuration":21458,"Delta":226048708},{"NoteNumber":83,"Velocity":41,"Duration":21592,"SoundDuration":21592,"Delta":226070167},{"NoteNumber":81,"Velocity":40,"Duration":21663,"SoundDuration":21663,"Delta":226091759},{"NoteNumber":79,"Velocity":40,"Duration":21763,"SoundDuration":21763,"Delta":226114289},{"NoteNumber":77,"Velocity":39,"Duration":21818,"SoundDuration":21818,"Delta":226136053},{"NoteNumber":76,"Velocity":38,"Duration":21956,"SoundDuration":21956,"Delta":226157871},{"NoteNumber":74,"Velocity":37,"Duration":22011,"SoundDuration":22011,"Delta":226179827},{"NoteNumber":72,"Velocity":36,"Duration":22123,"SoundDuration":22123,"Delta":226201839},{"NoteNumber":71,"Velocity":36,"Duration":22190,"SoundDuration":22190,"Delta":226224848},{"NoteNumber":69,"Velocity":35,"Duration":22405,"SoundDuration":22405,"Delta":226247038},{"NoteNumber":67,"Velocity":56,"Duration":18740,"SoundDuration":18740,"Delta":226270356},{"NoteNumber":60,"Velocity":50,"Duration":180614,"SoundDuration":180614,"Delta":226270356},{"NoteNumber":52,"Velocity":42,"Duration":180614,"SoundDuration":180614,"Delta":226270356},{"NoteNumber":55,"Velocity":42,"Duration":180614,"SoundDuration":180614,"Delta":226270356},{"NoteNumber":65,"Velocity":54,"Duration":425677,"SoundDuration":425677,"Delta":226637905},{"NoteNumber":60,"Velocity":54,"Duration":216774,"SoundDuration":216774,"Delta":226637905},{"NoteNumber":50,"Velocity":45,"Duration":216774,"SoundDuration":216774,"Delta":226637905},{"NoteNumber":57,"Velocity":45,"Duration":216774,"SoundDuration":216774,"Delta":226637905},{"NoteNumber":67,"Velocity":38,"Duration":21023,"SoundDuration":21023,"Delta":226659045},{"NoteNumber":69,"Velocity":39,"Duration":20983,"SoundDuration":20983,"Delta":226680069},{"NoteNumber":71,"Velocity":40,"Duration":20909,"SoundDuration":20909,"Delta":226701053},{"NoteNumber":72,"Velocity":41,"Duration":20840,"SoundDuration":20840,"Delta":226721053},{"NoteNumber":74,"Velocity":42,"Duration":20795,"SoundDuration":20795,"Delta":226741893},{"NoteNumber":76,"Velocity":43,"Duration":20673,"SoundDuration":20673,"Delta":226762688},{"NoteNumber":77,"Velocity":44,"Duration":20572,"SoundDuration":20572,"Delta":226783362},{"NoteNumber":79,"Velocity":45,"Duration":20524,"SoundDuration":20524,"Delta":226803935},{"NoteNumber":81,"Velocity":46,"Duration":20462,"SoundDuration":20462,"Delta":226823570},{"NoteNumber":83,"Velocity":47,"Duration":20382,"SoundDuration":20382,"Delta":226844032},{"NoteNumber":84,"Velocity":48,"Duration":20349,"SoundDuration":20349,"Delta":226864415},{"NoteNumber":86,"Velocity":49,"Duration":20246,"SoundDuration":20246,"Delta":226884764},{"NoteNumber":88,"Velocity":49,"Duration":20204,"SoundDuration":20204,"Delta":226905010},{"NoteNumber":89,"Velocity":50,"Duration":20085,"SoundDuration":20085,"Delta":226924340},{"NoteNumber":91,"Velocity":51,"Duration":20034,"SoundDuration":20034,"Delta":226944425},{"NoteNumber":93,"Velocity":52,"Duration":19948,"SoundDuration":19948,"Delta":226964459},{"NoteNumber":95,"Velocity":53,"Duration":19912,"SoundDuration":19912,"Delta":226984408},{"NoteNumber":96,"Velocity":54,"Duration":19827,"SoundDuration":19827,"Delta":227004321},{"NoteNumber":98,"Velocity":55,"Duration":19778,"SoundDuration":19778,"Delta":227023287},{"NoteNumber":100,"Velocity":56,"Duration":19664,"SoundDuration":19664,"Delta":227043065},{"NoteNumber":101,"Velocity":68,"Duration":195125,"SoundDuration":195125,"Delta":227063583},{"NoteNumber":59,"Velocity":50,"Duration":223296,"SoundDuration":223296,"Delta":227424071},{"NoteNumber":43,"Velocity":42,"Duration":223296,"SoundDuration":223296,"Delta":227424071},{"NoteNumber":53,"Velocity":42,"Duration":223296,"SoundDuration":223296,"Delta":227424071},{"NoteNumber":100,"Velocity":47,"Duration":18994,"SoundDuration":18994,"Delta":227442958},{"NoteNumber":98,"Velocity":46,"Duration":19107,"SoundDuration":19107,"Delta":227461952},{"NoteNumber":96,"Velocity":46,"Duration":19222,"SoundDuration":19222,"Delta":227481060},{"NoteNumber":95,"Velocity":45,"Duration":19344,"SoundDuration":19344,"Delta":227500283},{"NoteNumber":93,"Velocity":45,"Duration":19461,"SoundDuration":19461,"Delta":227519627},{"NoteNumber":91,"Velocity":44,"Duration":19602,"SoundDuration":19602,"Delta":227539089},{"NoteNumber":89,"Velocity":44,"Duration":19813,"SoundDuration":19813,"Delta":227558692},{"NoteNumber":88,"Velocity":43,"Duration":19937,"SoundDuration":19937,"Delta":227578505},{"NoteNumber":86,"Velocity":42,"Duration":20062,"SoundDuration":20062,"Delta":227598443},{"NoteNumber":84,"Velocity":42,"Duration":20183,"SoundDuration":20183,"Delta":227618505},{"NoteNumber":83,"Velocity":41,"Duration":20311,"SoundDuration":20311,"Delta":227638689},{"NoteNumber":81,"Velocity":41,"Duration":20441,"SoundDuration":20441,"Delta":227659001},{"NoteNumber":79,"Velocity":40,"Duration":20573,"SoundDuration":20573,"Delta":227679442},{"NoteNumber":77,"Velocity":39,"Duration":20818,"SoundDuration":20818,"Delta":227700016},{"NoteNumber":76,"Velocity":39,"Duration":20966,"SoundDuration":20966,"Delta":227720834},{"NoteNumber":74,"Velocity":38,"Duration":21111,"SoundDuration":21111,"Delta":227741801},{"NoteNumber":72,"Velocity":38,"Duration":21251,"SoundDuration":21251,"Delta":227762912},{"NoteNumber":71,"Velocity":37,"Duration":21393,"SoundDuration":21393,"Delta":227784163},{"NoteNumber":69,"Velocity":36,"Duration":21531,"SoundDuration":21531,"Delta":227805557},{"NoteNumber":67,"Velocity":36,"Duration":21677,"SoundDuration":21677,"Delta":227827089},{"NoteNumber":65,"Velocity":35,"Duration":21474,"SoundDuration":21474,"Delta":227848766},{"NoteNumber":64,"Velocity":35,"Duration":17584,"SoundDuration":17584,"Delta":227870241},{"NoteNumber":62,"Velocity":56,"Duration":44856,"SoundDuration":44856,"Delta":227887826},{"NoteNumber":60,"Velocity":57,"Duration":300822,"SoundDuration":300822,"Delta":228249436},{"NoteNumber":52,"Velocity":51,"Duration":898831,"SoundDuration":898831,"Delta":228249436},{"NoteNumber":48,"Velocity":43,"Duration":898831,"SoundDuration":898831,"Delta":228249436},{"NoteNumber":62,"Velocity":45,"Duration":37760,"SoundDuration":37760,"Delta":228288374},{"NoteNumber":64,"Velocity":46,"Duration":38523,"SoundDuration":38523,"Delta":228326135},{"NoteNumber":65,"Velocity":46,"Duration":38302,"SoundDuration":38302,"Delta":228363672},{"NoteNumber":67,"Velocity":47,"Duration":37097,"SoundDuration":37097,"Delta":228401975},{"NoteNumber":69,"Velocity":48,"Duration":37850,"SoundDuration":37850,"Delta":228439072},{"NoteNumber":71,"Velocity":49,"Duration":36774,"SoundDuration":36774,"Delta":228476923},{"NoteNumber":72,"Velocity":50,"Duration":37520,"SoundDuration":37520,"Delta":228513697},{"NoteNumber":74,"Velocity":51,"Duration":37310,"SoundDuration":37310,"Delta":228550259},{"NoteNumber":76,"Velocity":51,"Duration":36144,"SoundDuration":36144,"Delta":228587570},{"NoteNumber":77,"Velocity":52,"Duration":36886,"SoundDuration":36886,"Delta":228623714},{"NoteNumber":79,"Velocity":53,"Duration":35736,"SoundDuration":35736,"Delta":228660601},{"NoteNumber":81,"Velocity":54,"Duration":36530,"SoundDuration":36530,"Delta":228696338},{"NoteNumber":83,"Velocity":55,"Duration":36373,"SoundDuration":36373,"Delta":228731932},{"NoteNumber":84,"Velocity":56,"Duration":35239,"SoundDuration":35239,"Delta":228768305},{"NoteNumber":86,"Velocity":57,"Duration":35965,"SoundDuration":35965,"Delta":228803545},{"NoteNumber":88,"Velocity":57,"Duration":34851,"SoundDuration":34851,"Delta":228839511},{"NoteNumber":89,"Velocity":58,"Duration":35572,"SoundDuration":35572,"Delta":228874363},{"NoteNumber":91,"Velocity":59,"Duration":35477,"SoundDuration":35477,"Delta":228909024},{"NoteNumber":93,"Velocity":60,"Duration":34378,"SoundDuration":34378,"Delta":228944501},{"NoteNumber":95,"Velocity":61,"Duration":35094,"SoundDuration":35094,"Delta":228978880},{"NoteNumber":96,"Velocity":62,"Duration":34009,"SoundDuration":34009,"Delta":229013975},{"NoteNumber":98,"Velocity":62,"Duration":34714,"SoundDuration":34714,"Delta":229047984},{"NoteNumber":100,"Velocity":63,"Duration":34535,"SoundDuration":34535,"Delta":229081812},{"NoteNumber":101,"Velocity":64,"Duration":31919,"SoundDuration":31919,"Delta":229116347},{"NoteNumber":103,"Velocity":75,"Duration":45468,"SoundDuration":45468,"Delta":229148267},{"NoteNumber":64,"Velocity":50,"Duration":181049,"SoundDuration":181049,"Delta":229512014},{"NoteNumber":60,"Velocity":50,"Duration":181049,"SoundDuration":181049,"Delta":229512014},{"NoteNumber":52,"Velocity":42,"Duration":181049,"SoundDuration":181049,"Delta":229512014},{"NoteNumber":55,"Velocity":42,"Duration":181049,"SoundDuration":181049,"Delta":229512014},{"NoteNumber":65,"Velocity":57,"Duration":408270,"SoundDuration":408270,"Delta":229877138},{"NoteNumber":59,"Velocity":54,"Duration":208334,"SoundDuration":208334,"Delta":229877138},{"NoteNumber":50,"Velocity":45,"Duration":208334,"SoundDuration":208334,"Delta":229877138},{"NoteNumber":57,"Velocity":45,"Duration":208334,"SoundDuration":208334,"Delta":229877138},{"NoteNumber":67,"Velocity":45,"Duration":26408,"SoundDuration":26408,"Delta":229903673},{"NoteNumber":69,"Velocity":46,"Duration":26233,"SoundDuration":26233,"Delta":229930081},{"NoteNumber":71,"Velocity":47,"Duration":26127,"SoundDuration":26127,"Delta":229956314},{"NoteNumber":72,"Velocity":48,"Duration":25942,"SoundDuration":25942,"Delta":229982442},{"NoteNumber":74,"Velocity":50,"Duration":25848,"SoundDuration":25848,"Delta":230008385},{"NoteNumber":76,"Velocity":51,"Duration":25667,"SoundDuration":25667,"Delta":230034233},{"NoteNumber":77,"Velocity":52,"Duration":25571,"SoundDuration":25571,"Delta":230059901},{"NoteNumber":79,"Velocity":54,"Duration":25393,"SoundDuration":25393,"Delta":230085472},{"NoteNumber":81,"Velocity":55,"Duration":25303,"SoundDuration":25303,"Delta":230110866},{"NoteNumber":83,"Velocity":56,"Duration":25129,"SoundDuration":25129,"Delta":230136170},{"NoteNumber":84,"Velocity":57,"Duration":25037,"SoundDuration":25037,"Delta":230161300},{"NoteNumber":86,"Velocity":59,"Duration":24871,"SoundDuration":24871,"Delta":230186337},{"NoteNumber":88,"Velocity":60,"Duration":24781,"SoundDuration":24781,"Delta":230211209},{"NoteNumber":89,"Velocity":61,"Duration":25801,"SoundDuration":25801,"Delta":230235990},{"NoteNumber":91,"Velocity":62,"Duration":23616,"SoundDuration":23616,"Delta":230261792},{"NoteNumber":93,"Velocity":76,"Duration":382433,"SoundDuration":382433,"Delta":230285408},{"NoteNumber":59,"Velocity":50,"Duration":202394,"SoundDuration":202394,"Delta":230647117},{"NoteNumber":43,"Velocity":42,"Duration":202394,"SoundDuration":202394,"Delta":230647117},{"NoteNumber":53,"Velocity":42,"Duration":202394,"SoundDuration":202394,"Delta":230647117},{"NoteNumber":91,"Velocity":49,"Duration":22462,"SoundDuration":22462,"Delta":230667841},{"NoteNumber":89,"Velocity":48,"Duration":22571,"SoundDuration":22571,"Delta":230690304},{"NoteNumber":88,"Velocity":47,"Duration":21848,"SoundDuration":21848,"Delta":230712875},{"NoteNumber":86,"Velocity":46,"Duration":21925,"SoundDuration":21925,"Delta":230735564},{"NoteNumber":84,"Velocity":45,"Duration":22834,"SoundDuration":22834,"Delta":230757490},{"NoteNumber":83,"Velocity":45,"Duration":22981,"SoundDuration":22981,"Delta":230780324},{"NoteNumber":81,"Velocity":44,"Duration":22193,"SoundDuration":22193,"Delta":230803305},{"NoteNumber":79,"Velocity":43,"Duration":23156,"SoundDuration":23156,"Delta":230825498},{"NoteNumber":77,"Velocity":42,"Duration":23235,"SoundDuration":23235,"Delta":230848654},{"NoteNumber":76,"Velocity":41,"Duration":22521,"SoundDuration":22521,"Delta":230871890},{"NoteNumber":74,"Velocity":40,"Duration":22589,"SoundDuration":22589,"Delta":230895278},{"NoteNumber":72,"Velocity":40,"Duration":23528,"SoundDuration":23528,"Delta":230917867},{"NoteNumber":71,"Velocity":39,"Duration":22804,"SoundDuration":22804,"Delta":230941395},{"NoteNumber":69,"Velocity":38,"Duration":22887,"SoundDuration":22887,"Delta":230965080},{"NoteNumber":67,"Velocity":37,"Duration":23879,"SoundDuration":23879,"Delta":230987967},{"NoteNumber":65,"Velocity":36,"Duration":23955,"SoundDuration":23955,"Delta":231011847},{"NoteNumber":64,"Velocity":36,"Duration":23295,"SoundDuration":23295,"Delta":231035802},{"NoteNumber":62,"Velocity":56,"Duration":18740,"SoundDuration":18740,"Delta":231060010},{"NoteNumber":60,"Velocity":57,"Duration":303309,"SoundDuration":303309,"Delta":231419830},{"NoteNumber":52,"Velocity":51,"Duration":846788,"SoundDuration":846788,"Delta":231419830},{"NoteNumber":48,"Velocity":43,"Duration":846788,"SoundDuration":846788,"Delta":231419830},{"NoteNumber":62,"Velocity":46,"Duration":37892,"SoundDuration":37892,"Delta":231458854},{"NoteNumber":64,"Velocity":47,"Duration":38628,"SoundDuration":38628,"Delta":231496746},{"NoteNumber":65,"Velocity":47,"Duration":37532,"SoundDuration":37532,"Delta":231535375},{"NoteNumber":67,"Velocity":48,"Duration":38271,"SoundDuration":38271,"Delta":231572907},{"NoteNumber":69,"Velocity":49,"Duration":37188,"SoundDuration":37188,"Delta":231611179},{"NoteNumber":71,"Velocity":50,"Duration":37921,"SoundDuration":37921,"Delta":231648368},{"NoteNumber":72,"Velocity":51,"Duration":36851,"SoundDuration":36851,"Delta":231686289},{"NoteNumber":74,"Velocity":51,"Duration":37567,"SoundDuration":37567,"Delta":231723140},{"NoteNumber":76,"Velocity":52,"Duration":37380,"SoundDuration":37380,"Delta":231759813},{"NoteNumber":77,"Velocity":53,"Duration":36325,"SoundDuration":36325,"Delta":231797193},{"NoteNumber":79,"Velocity":54,"Duration":37046,"SoundDuration":37046,"Delta":231833519},{"NoteNumber":81,"Velocity":55,"Duration":36003,"SoundDuration":36003,"Delta":231870566},{"NoteNumber":83,"Velocity":56,"Duration":36718,"SoundDuration":36718,"Delta":231906569},{"NoteNumber":84,"Velocity":56,"Duration":35687,"SoundDuration":35687,"Delta":231943288},{"NoteNumber":86,"Velocity":57,"Duration":36395,"SoundDuration":36395,"Delta":231978975},{"NoteNumber":88,"Velocity":58,"Duration":35344,"SoundDuration":35344,"Delta":232015370},{"NoteNumber":89,"Velocity":59,"Duration":36051,"SoundDuration":36051,"Delta":232050715},{"NoteNumber":91,"Velocity":60,"Duration":35039,"SoundDuration":35039,"Delta":232086766},{"NoteNumber":93,"Velocity":61,"Duration":35740,"SoundDuration":35740,"Delta":232121806},{"NoteNumber":95,"Velocity":61,"Duration":34740,"SoundDuration":34740,"Delta":232157547},{"NoteNumber":96,"Velocity":62,"Duration":35434,"SoundDuration":35434,"Delta":232192287},{"NoteNumber":98,"Velocity":63,"Duration":34253,"SoundDuration":34253,"Delta":232227722},{"NoteNumber":100,"Velocity":74,"Duration":31389,"SoundDuration":31389,"Delta":232261975},{"NoteNumber":70,"Velocity":64,"Duration":161724,"SoundDuration":161724,"Delta":232623231},{"NoteNumber":60,"Velocity":54,"Duration":161724,"SoundDuration":161724,"Delta":232623231},{"NoteNumber":64,"Velocity":54,"Duration":161724,"SoundDuration":161724,"Delta":232623231},{"NoteNumber":58,"Velocity":59,"Duration":161724,"SoundDuration":161724,"Delta":232623231},{"NoteNumber":52,"Velocity":50,"Duration":161724,"SoundDuration":161724,"Delta":232623231},{"NoteNumber":55,"Velocity":50,"Duration":161724,"SoundDuration":161724,"Delta":232623231},{"NoteNumber":64,"Velocity":62,"Duration":165646,"SoundDuration":165646,"Delta":232946681},{"NoteNumber":71,"Velocity":73,"Duration":165646,"SoundDuration":165646,"Delta":232946681},{"NoteNumber":59,"Velocity":62,"Duration":165646,"SoundDuration":165646,"Delta":232946681},{"NoteNumber":56,"Velocity":61,"Duration":673671,"SoundDuration":673671,"Delta":232946681},{"NoteNumber":47,"Velocity":56,"Duration":673671,"SoundDuration":673671,"Delta":232946681},{"NoteNumber":60,"Velocity":44,"Duration":23968,"SoundDuration":23968,"Delta":233112328},{"NoteNumber":62,"Velocity":45,"Duration":25603,"SoundDuration":25603,"Delta":233136962},{"NoteNumber":64,"Velocity":46,"Duration":26313,"SoundDuration":26313,"Delta":233162565},{"NoteNumber":65,"Velocity":47,"Duration":26205,"SoundDuration":26205,"Delta":233188879},{"NoteNumber":67,"Velocity":48,"Duration":26094,"SoundDuration":26094,"Delta":233215085},{"NoteNumber":69,"Velocity":50,"Duration":26047,"SoundDuration":26047,"Delta":233241179},{"NoteNumber":71,"Velocity":51,"Duration":25941,"SoundDuration":25941,"Delta":233267227},{"NoteNumber":72,"Velocity":52,"Duration":25835,"SoundDuration":25835,"Delta":233293886},{"NoteNumber":74,"Velocity":53,"Duration":25758,"SoundDuration":25758,"Delta":233319722},{"NoteNumber":76,"Velocity":54,"Duration":25678,"SoundDuration":25678,"Delta":233345480},{"NoteNumber":77,"Velocity":56,"Duration":25578,"SoundDuration":25578,"Delta":233371159},{"NoteNumber":79,"Velocity":57,"Duration":25476,"SoundDuration":25476,"Delta":233396738},{"NoteNumber":81,"Velocity":58,"Duration":25430,"SoundDuration":25430,"Delta":233422214},{"NoteNumber":83,"Velocity":59,"Duration":25323,"SoundDuration":25323,"Delta":233448351},{"NoteNumber":84,"Velocity":60,"Duration":25223,"SoundDuration":25223,"Delta":233473675},{"NoteNumber":86,"Velocity":61,"Duration":25126,"SoundDuration":25126,"Delta":233498898},{"NoteNumber":88,"Velocity":63,"Duration":25082,"SoundDuration":25082,"Delta":233524024},{"NoteNumber":89,"Velocity":64,"Duration":24986,"SoundDuration":24986,"Delta":233549107},{"NoteNumber":91,"Velocity":65,"Duration":24888,"SoundDuration":24888,"Delta":233574093},{"NoteNumber":93,"Velocity":66,"Duration":23203,"SoundDuration":23203,"Delta":233599671},{"NoteNumber":95,"Velocity":81,"Duration":22698,"SoundDuration":22698,"Delta":233622244},{"NoteNumber":59,"Velocity":56,"Duration":156047,"SoundDuration":156047,"Delta":233923001},{"NoteNumber":63,"Velocity":56,"Duration":156047,"SoundDuration":156047,"Delta":233923001},{"NoteNumber":57,"Velocity":61,"Duration":156047,"SoundDuration":156047,"Delta":233923001},{"NoteNumber":54,"Velocity":51,"Duration":156047,"SoundDuration":156047,"Delta":233923001},{"NoteNumber":47,"Velocity":51,"Duration":156047,"SoundDuration":156047,"Delta":233923001},{"NoteNumber":71,"Velocity":67,"Duration":156047,"SoundDuration":156047,"Delta":233924951},{"NoteNumber":71,"Velocity":76,"Duration":162381,"SoundDuration":162381,"Delta":234235095},{"NoteNumber":59,"Velocity":64,"Duration":162381,"SoundDuration":162381,"Delta":234235095},{"NoteNumber":64,"Velocity":64,"Duration":162381,"SoundDuration":162381,"Delta":234235095},{"NoteNumber":56,"Velocity":64,"Duration":670624,"SoundDuration":670624,"Delta":234235095},{"NoteNumber":47,"Velocity":59,"Duration":670624,"SoundDuration":670624,"Delta":234235095},{"NoteNumber":60,"Velocity":48,"Duration":24739,"SoundDuration":24739,"Delta":234397476},{"NoteNumber":62,"Velocity":50,"Duration":26323,"SoundDuration":26323,"Delta":234422947},{"NoteNumber":64,"Velocity":51,"Duration":26253,"SoundDuration":26253,"Delta":234449270},{"NoteNumber":65,"Velocity":52,"Duration":26145,"SoundDuration":26145,"Delta":234475524},{"NoteNumber":67,"Velocity":53,"Duration":26041,"SoundDuration":26041,"Delta":234501669},{"NoteNumber":69,"Velocity":55,"Duration":25934,"SoundDuration":25934,"Delta":234527710},{"NoteNumber":71,"Velocity":56,"Duration":25829,"SoundDuration":25829,"Delta":234553645},{"NoteNumber":72,"Velocity":57,"Duration":25724,"SoundDuration":25724,"Delta":234580190},{"NoteNumber":74,"Velocity":59,"Duration":25621,"SoundDuration":25621,"Delta":234605914},{"NoteNumber":76,"Velocity":60,"Duration":25521,"SoundDuration":25521,"Delta":234631536},{"NoteNumber":77,"Velocity":61,"Duration":25430,"SoundDuration":25430,"Delta":234657057},{"NoteNumber":79,"Velocity":62,"Duration":25368,"SoundDuration":25368,"Delta":234682488},{"NoteNumber":81,"Velocity":64,"Duration":25270,"SoundDuration":25270,"Delta":234707856},{"NoteNumber":83,"Velocity":65,"Duration":25167,"SoundDuration":25167,"Delta":234733827},{"NoteNumber":84,"Velocity":66,"Duration":25067,"SoundDuration":25067,"Delta":234758994},{"NoteNumber":86,"Velocity":67,"Duration":24972,"SoundDuration":24972,"Delta":234784062},{"NoteNumber":88,"Velocity":69,"Duration":24874,"SoundDuration":24874,"Delta":234809034},{"NoteNumber":89,"Velocity":70,"Duration":24780,"SoundDuration":24780,"Delta":234833909},{"NoteNumber":91,"Velocity":71,"Duration":24684,"SoundDuration":24684,"Delta":234858689},{"NoteNumber":93,"Velocity":73,"Duration":24194,"SoundDuration":24194,"Delta":234884057},{"NoteNumber":95,"Velocity":85,"Duration":22784,"SoundDuration":22784,"Delta":234907618},{"NoteNumber":83,"Velocity":73,"Duration":156047,"SoundDuration":156047,"Delta":235209516},{"NoteNumber":78,"Velocity":73,"Duration":156047,"SoundDuration":156047,"Delta":235209516},{"NoteNumber":71,"Velocity":62,"Duration":156047,"SoundDuration":156047,"Delta":235209516},{"NoteNumber":75,"Velocity":62,"Duration":156047,"SoundDuration":156047,"Delta":235209516},{"NoteNumber":59,"Velocity":67,"Duration":156047,"SoundDuration":156047,"Delta":235209516},{"NoteNumber":54,"Velocity":67,"Duration":156047,"SoundDuration":156047,"Delta":235209516},{"NoteNumber":51,"Velocity":56,"Duration":156047,"SoundDuration":156047,"Delta":235209516},{"NoteNumber":47,"Velocity":56,"Duration":156047,"SoundDuration":156047,"Delta":235209516},{"NoteNumber":83,"Velocity":83,"Duration":161724,"SoundDuration":161724,"Delta":235521610},{"NoteNumber":76,"Velocity":70,"Duration":161724,"SoundDuration":161724,"Delta":235521610},{"NoteNumber":71,"Velocity":70,"Duration":161724,"SoundDuration":161724,"Delta":235521610},{"NoteNumber":80,"Velocity":83,"Duration":161724,"SoundDuration":161724,"Delta":235521610},{"NoteNumber":59,"Velocity":70,"Duration":161724,"SoundDuration":161724,"Delta":235521610},{"NoteNumber":56,"Velocity":70,"Duration":161724,"SoundDuration":161724,"Delta":235521610},{"NoteNumber":52,"Velocity":65,"Duration":161724,"SoundDuration":161724,"Delta":235521610},{"NoteNumber":47,"Velocity":65,"Duration":161724,"SoundDuration":161724,"Delta":235521610},{"NoteNumber":69,"Velocity":51,"Duration":25237,"SoundDuration":25237,"Delta":235861893},{"NoteNumber":72,"Velocity":60,"Duration":25234,"SoundDuration":25234,"Delta":235862596},{"NoteNumber":67,"Velocity":52,"Duration":25137,"SoundDuration":25137,"Delta":235887131},{"NoteNumber":74,"Velocity":61,"Duration":25135,"SoundDuration":25135,"Delta":235887831},{"NoteNumber":65,"Velocity":53,"Duration":25038,"SoundDuration":25038,"Delta":235912269},{"NoteNumber":76,"Velocity":63,"Duration":25036,"SoundDuration":25036,"Delta":235912966},{"NoteNumber":64,"Velocity":56,"Duration":24998,"SoundDuration":24998,"Delta":235937308},{"NoteNumber":77,"Velocity":64,"Duration":24995,"SoundDuration":24995,"Delta":235938002},{"NoteNumber":62,"Velocity":57,"Duration":24900,"SoundDuration":24900,"Delta":235962306},{"NoteNumber":79,"Velocity":65,"Duration":24897,"SoundDuration":24897,"Delta":235962998},{"NoteNumber":81,"Velocity":67,"Duration":24800,"SoundDuration":24800,"Delta":235987895},{"NoteNumber":60,"Velocity":58,"Duration":24800,"SoundDuration":24800,"Delta":235987895},{"NoteNumber":59,"Velocity":59,"Duration":24700,"SoundDuration":24700,"Delta":236012695},{"NoteNumber":83,"Velocity":68,"Duration":24698,"SoundDuration":24698,"Delta":236013384},{"NoteNumber":57,"Velocity":60,"Duration":24605,"SoundDuration":24605,"Delta":236037396},{"NoteNumber":84,"Velocity":69,"Duration":24602,"SoundDuration":24602,"Delta":236038082},{"NoteNumber":55,"Velocity":61,"Duration":24566,"SoundDuration":24566,"Delta":236062002},{"NoteNumber":86,"Velocity":71,"Duration":24563,"SoundDuration":24563,"Delta":236062685},{"NoteNumber":53,"Velocity":62,"Duration":24471,"SoundDuration":24471,"Delta":236086568},{"NoteNumber":88,"Velocity":72,"Duration":24468,"SoundDuration":24468,"Delta":236087248},{"NoteNumber":52,"Velocity":63,"Duration":24380,"SoundDuration":24380,"Delta":236111039},{"NoteNumber":89,"Velocity":73,"Duration":24377,"SoundDuration":24377,"Delta":236111717},{"NoteNumber":91,"Velocity":75,"Duration":24284,"SoundDuration":24284,"Delta":236136095},{"NoteNumber":50,"Velocity":64,"Duration":24284,"SoundDuration":24284,"Delta":236136095},{"NoteNumber":48,"Velocity":66,"Duration":23924,"SoundDuration":23924,"Delta":236160379},{"NoteNumber":93,"Velocity":76,"Duration":23885,"SoundDuration":23885,"Delta":236161051},{"NoteNumber":95,"Velocity":93,"Duration":22784,"SoundDuration":22784,"Delta":236184304},{"NoteNumber":47,"Velocity":88,"Duration":37974,"SoundDuration":37974,"Delta":236184304},{"NoteNumber":83,"Velocity":83,"Duration":157894,"SoundDuration":157894,"Delta":236486202},{"NoteNumber":78,"Velocity":83,"Duration":157894,"SoundDuration":157894,"Delta":236486202},{"NoteNumber":71,"Velocity":71,"Duration":157894,"SoundDuration":157894,"Delta":236486202},{"NoteNumber":75,"Velocity":71,"Duration":157894,"SoundDuration":157894,"Delta":236486202},{"NoteNumber":59,"Velocity":77,"Duration":157894,"SoundDuration":157894,"Delta":236486202},{"NoteNumber":54,"Velocity":77,"Duration":157894,"SoundDuration":157894,"Delta":236486202},{"NoteNumber":51,"Velocity":63,"Duration":157894,"SoundDuration":157894,"Delta":236486202},{"NoteNumber":47,"Velocity":63,"Duration":157894,"SoundDuration":157894,"Delta":236486202},{"NoteNumber":83,"Velocity":91,"Duration":156657,"SoundDuration":156657,"Delta":236801991},{"NoteNumber":76,"Velocity":77,"Duration":156657,"SoundDuration":156657,"Delta":236801991},{"NoteNumber":71,"Velocity":77,"Duration":156657,"SoundDuration":156657,"Delta":236801991},{"NoteNumber":80,"Velocity":91,"Duration":156657,"SoundDuration":156657,"Delta":236801991},{"NoteNumber":59,"Velocity":77,"Duration":156657,"SoundDuration":156657,"Delta":236801991},{"NoteNumber":56,"Velocity":77,"Duration":156657,"SoundDuration":156657,"Delta":236801991},{"NoteNumber":52,"Velocity":71,"Duration":156657,"SoundDuration":156657,"Delta":236801991},{"NoteNumber":47,"Velocity":71,"Duration":156657,"SoundDuration":156657,"Delta":236801991},{"NoteNumber":69,"Velocity":56,"Duration":25401,"SoundDuration":25401,"Delta":237135897},{"NoteNumber":72,"Velocity":63,"Duration":25398,"SoundDuration":25398,"Delta":237136604},{"NoteNumber":67,"Velocity":57,"Duration":25323,"SoundDuration":25323,"Delta":237161298},{"NoteNumber":74,"Velocity":65,"Duration":25323,"SoundDuration":25323,"Delta":237162002},{"NoteNumber":65,"Velocity":58,"Duration":25249,"SoundDuration":25249,"Delta":237186622},{"NoteNumber":76,"Velocity":67,"Duration":25246,"SoundDuration":25246,"Delta":237187325},{"NoteNumber":64,"Velocity":61,"Duration":25208,"SoundDuration":25208,"Delta":237211872},{"NoteNumber":77,"Velocity":69,"Duration":25205,"SoundDuration":25205,"Delta":237212572},{"NoteNumber":62,"Velocity":62,"Duration":25111,"SoundDuration":25111,"Delta":237237080},{"NoteNumber":79,"Velocity":70,"Duration":25111,"SoundDuration":25111,"Delta":237237777},{"NoteNumber":81,"Velocity":72,"Duration":25059,"SoundDuration":25059,"Delta":237262889},{"NoteNumber":60,"Velocity":63,"Duration":25059,"SoundDuration":25059,"Delta":237262889},{"NoteNumber":59,"Velocity":64,"Duration":25006,"SoundDuration":25006,"Delta":237287948},{"NoteNumber":83,"Velocity":74,"Duration":25006,"SoundDuration":25006,"Delta":237288643},{"NoteNumber":57,"Velocity":66,"Duration":24911,"SoundDuration":24911,"Delta":237312955},{"NoteNumber":84,"Velocity":76,"Duration":24908,"SoundDuration":24908,"Delta":237313650},{"NoteNumber":55,"Velocity":67,"Duration":24871,"SoundDuration":24871,"Delta":237337867},{"NoteNumber":86,"Velocity":77,"Duration":24868,"SoundDuration":24868,"Delta":237338559},{"NoteNumber":53,"Velocity":68,"Duration":24800,"SoundDuration":24800,"Delta":237362739},{"NoteNumber":88,"Velocity":79,"Duration":24800,"SoundDuration":24800,"Delta":237363428},{"NoteNumber":52,"Velocity":69,"Duration":24726,"SoundDuration":24726,"Delta":237387539},{"NoteNumber":89,"Velocity":81,"Duration":24723,"SoundDuration":24723,"Delta":237388228},{"NoteNumber":91,"Velocity":82,"Duration":24684,"SoundDuration":24684,"Delta":237412952},{"NoteNumber":50,"Velocity":70,"Duration":24684,"SoundDuration":24684,"Delta":237412952},{"NoteNumber":48,"Velocity":72,"Duration":24244,"SoundDuration":24244,"Delta":237437636},{"NoteNumber":93,"Velocity":84,"Duration":24194,"SoundDuration":24194,"Delta":237438319},{"NoteNumber":95,"Velocity":102,"Duration":22784,"SoundDuration":22784,"Delta":237461880},{"NoteNumber":47,"Velocity":96,"Duration":37974,"SoundDuration":37974,"Delta":237461880},{"NoteNumber":78,"Velocity":83,"Duration":157894,"SoundDuration":157894,"Delta":237763778},{"NoteNumber":75,"Velocity":71,"Duration":157894,"SoundDuration":157894,"Delta":237763778},{"NoteNumber":71,"Velocity":71,"Duration":157894,"SoundDuration":157894,"Delta":237763778},{"NoteNumber":83,"Velocity":83,"Duration":157894,"SoundDuration":157894,"Delta":237763778},{"NoteNumber":59,"Velocity":77,"Duration":157894,"SoundDuration":157894,"Delta":237763778},{"NoteNumber":54,"Velocity":77,"Duration":157894,"SoundDuration":157894,"Delta":237763778},{"NoteNumber":51,"Velocity":63,"Duration":157894,"SoundDuration":157894,"Delta":237763778},{"NoteNumber":47,"Velocity":63,"Duration":157894,"SoundDuration":157894,"Delta":237763778},{"NoteNumber":88,"Velocity":92,"Duration":71258,"SoundDuration":71258,"Delta":238079567},{"NoteNumber":76,"Velocity":81,"Duration":71258,"SoundDuration":71258,"Delta":238079567},{"NoteNumber":52,"Velocity":81,"Duration":142517,"SoundDuration":142517,"Delta":238079567},{"NoteNumber":40,"Velocity":68,"Duration":142517,"SoundDuration":142517,"Delta":238079567},{"NoteNumber":78,"Velocity":69,"Duration":71258,"SoundDuration":71258,"Delta":238222085},{"NoteNumber":90,"Velocity":79,"Duration":71258,"SoundDuration":71258,"Delta":238222085},{"NoteNumber":80,"Velocity":69,"Duration":68807,"SoundDuration":68807,"Delta":238362151},{"NoteNumber":92,"Velocity":79,"Duration":68807,"SoundDuration":68807,"Delta":238362151},{"NoteNumber":64,"Velocity":58,"Duration":137614,"SoundDuration":137614,"Delta":238362151},{"NoteNumber":56,"Velocity":49,"Duration":137614,"SoundDuration":137614,"Delta":238362151},{"NoteNumber":81,"Velocity":69,"Duration":68807,"SoundDuration":68807,"Delta":238499766},{"NoteNumber":93,"Velocity":79,"Duration":68807,"SoundDuration":68807,"Delta":238499766},{"NoteNumber":83,"Velocity":77,"Duration":69284,"SoundDuration":69284,"Delta":238637381},{"NoteNumber":95,"Velocity":88,"Duration":69284,"SoundDuration":69284,"Delta":238637381},{"NoteNumber":52,"Velocity":71,"Duration":138568,"SoundDuration":138568,"Delta":238637381},{"NoteNumber":40,"Velocity":60,"Duration":138568,"SoundDuration":138568,"Delta":238637381},{"NoteNumber":82,"Velocity":64,"Duration":69284,"SoundDuration":69284,"Delta":238775949},{"NoteNumber":94,"Velocity":73,"Duration":69284,"SoundDuration":69284,"Delta":238775949},{"NoteNumber":95,"Velocity":73,"Duration":69284,"SoundDuration":69284,"Delta":238914517},{"NoteNumber":83,"Velocity":64,"Duration":69284,"SoundDuration":69284,"Delta":238914517},{"NoteNumber":64,"Velocity":55,"Duration":141054,"SoundDuration":141054,"Delta":238914517},{"NoteNumber":56,"Velocity":46,"Duration":141054,"SoundDuration":141054,"Delta":238914517},{"NoteNumber":86,"Velocity":64,"Duration":71770,"SoundDuration":71770,"Delta":239055572},{"NoteNumber":98,"Velocity":73,"Duration":71770,"SoundDuration":71770,"Delta":239055572},{"NoteNumber":98,"Velocity":89,"Duration":151133,"SoundDuration":151133,"Delta":239199113},{"NoteNumber":86,"Velocity":78,"Duration":151133,"SoundDuration":151133,"Delta":239199113},{"NoteNumber":52,"Velocity":77,"Duration":151133,"SoundDuration":151133,"Delta":239199113},{"NoteNumber":40,"Velocity":64,"Duration":151133,"SoundDuration":151133,"Delta":239199113},{"NoteNumber":97,"Velocity":88,"Duration":585599,"SoundDuration":585599,"Delta":239499162},{"NoteNumber":85,"Velocity":77,"Duration":585599,"SoundDuration":585599,"Delta":239499162},{"NoteNumber":64,"Velocity":60,"Duration":152284,"SoundDuration":152284,"Delta":239499162},{"NoteNumber":56,"Velocity":50,"Duration":152284,"SoundDuration":152284,"Delta":239499162},{"NoteNumber":52,"Velocity":72,"Duration":140515,"SoundDuration":140515,"Delta":239803731},{"NoteNumber":40,"Velocity":61,"Duration":140515,"SoundDuration":140515,"Delta":239803731},{"NoteNumber":83,"Velocity":69,"Duration":426661,"SoundDuration":426661,"Delta":240084761},{"NoteNumber":95,"Velocity":79,"Duration":426661,"SoundDuration":426661,"Delta":240084761},{"NoteNumber":64,"Velocity":60,"Duration":140515,"SoundDuration":140515,"Delta":240084761},{"NoteNumber":56,"Velocity":50,"Duration":140515,"SoundDuration":140515,"Delta":240084761},{"NoteNumber":45,"Velocity":78,"Duration":145631,"SoundDuration":145631,"Delta":240365792},{"NoteNumber":33,"Velocity":66,"Duration":145631,"SoundDuration":145631,"Delta":240365792},{"NoteNumber":88,"Velocity":79,"Duration":72815,"SoundDuration":72815,"Delta":240511423},{"NoteNumber":76,"Velocity":69,"Duration":72815,"SoundDuration":72815,"Delta":240511423},{"NoteNumber":78,"Velocity":69,"Duration":69284,"SoundDuration":69284,"Delta":240653523},{"NoteNumber":90,"Velocity":79,"Duration":69284,"SoundDuration":69284,"Delta":240653523},{"NoteNumber":64,"Velocity":58,"Duration":138568,"SoundDuration":138568,"Delta":240653523},{"NoteNumber":52,"Velocity":49,"Duration":138568,"SoundDuration":138568,"Delta":240653523},{"NoteNumber":60,"Velocity":49,"Duration":138568,"SoundDuration":138568,"Delta":240653523},{"NoteNumber":80,"Velocity":69,"Duration":69284,"SoundDuration":69284,"Delta":240792091},{"NoteNumber":92,"Velocity":79,"Duration":69284,"SoundDuration":69284,"Delta":240792091},{"NoteNumber":81,"Velocity":77,"Duration":70257,"SoundDuration":70257,"Delta":240930659},{"NoteNumber":93,"Velocity":88,"Duration":70257,"SoundDuration":70257,"Delta":240930659},{"NoteNumber":45,"Velocity":71,"Duration":140515,"SoundDuration":140515,"Delta":240930659},{"NoteNumber":33,"Velocity":60,"Duration":140515,"SoundDuration":140515,"Delta":240930659},{"NoteNumber":92,"Velocity":73,"Duration":70257,"SoundDuration":70257,"Delta":241071174},{"NoteNumber":80,"Velocity":64,"Duration":70257,"SoundDuration":70257,"Delta":241071174},{"NoteNumber":93,"Velocity":73,"Duration":70257,"SoundDuration":70257,"Delta":241211690},{"NoteNumber":81,"Velocity":64,"Duration":70257,"SoundDuration":70257,"Delta":241211690},{"NoteNumber":64,"Velocity":58,"Duration":142546,"SoundDuration":142546,"Delta":241211690},{"NoteNumber":52,"Velocity":49,"Duration":142546,"SoundDuration":142546,"Delta":241211690},{"NoteNumber":60,"Velocity":49,"Duration":142546,"SoundDuration":142546,"Delta":241211690},{"NoteNumber":84,"Velocity":64,"Duration":72289,"SoundDuration":72289,"Delta":241354236},{"NoteNumber":96,"Velocity":73,"Duration":72289,"SoundDuration":72289,"Delta":241354236},{"NoteNumber":95,"Velocity":89,"Duration":152284,"SoundDuration":152284,"Delta":241498815},{"NoteNumber":83,"Velocity":78,"Duration":152284,"SoundDuration":152284,"Delta":241498815},{"NoteNumber":45,"Velocity":71,"Duration":152284,"SoundDuration":152284,"Delta":241498815},{"NoteNumber":33,"Velocity":60,"Duration":152284,"SoundDuration":152284,"Delta":241498815},{"NoteNumber":81,"Velocity":77,"Duration":591706,"SoundDuration":591706,"Delta":241801099},{"NoteNumber":93,"Velocity":88,"Duration":591706,"SoundDuration":591706,"Delta":241801099},{"NoteNumber":64,"Velocity":61,"Duration":148883,"SoundDuration":148883,"Delta":241801099},{"NoteNumber":52,"Velocity":51,"Duration":148883,"SoundDuration":148883,"Delta":241801099},{"NoteNumber":60,"Velocity":51,"Duration":148883,"SoundDuration":148883,"Delta":241801099},{"NoteNumber":48,"Velocity":73,"Duration":147241,"SoundDuration":147241,"Delta":242098865},{"NoteNumber":36,"Velocity":61,"Duration":147241,"SoundDuration":147241,"Delta":242098865},{"NoteNumber":81,"Velocity":69,"Duration":293398,"SoundDuration":293398,"Delta":242392806},{"NoteNumber":93,"Velocity":79,"Duration":293398,"SoundDuration":293398,"Delta":242392806},{"NoteNumber":64,"Velocity":62,"Duration":146699,"SoundDuration":146699,"Delta":242392806},{"NoteNumber":52,"Velocity":52,"Duration":146699,"SoundDuration":146699,"Delta":242392806},{"NoteNumber":57,"Velocity":52,"Duration":146699,"SoundDuration":146699,"Delta":242392806},{"NoteNumber":71,"Velocity":81,"Duration":72289,"SoundDuration":72289,"Delta":242686204},{"NoteNumber":83,"Velocity":92,"Duration":72289,"SoundDuration":72289,"Delta":242686204},{"NoteNumber":47,"Velocity":77,"Duration":144578,"SoundDuration":144578,"Delta":242686204},{"NoteNumber":35,"Velocity":64,"Duration":144578,"SoundDuration":144578,"Delta":242686204},{"NoteNumber":72,"Velocity":69,"Duration":72289,"SoundDuration":72289,"Delta":242830783},{"NoteNumber":84,"Velocity":79,"Duration":72289,"SoundDuration":72289,"Delta":242830783},{"NoteNumber":87,"Velocity":79,"Duration":69284,"SoundDuration":69284,"Delta":242972356},{"NoteNumber":75,"Velocity":69,"Duration":69284,"SoundDuration":69284,"Delta":242972356},{"NoteNumber":64,"Velocity":58,"Duration":138568,"SoundDuration":138568,"Delta":242972356},{"NoteNumber":55,"Velocity":49,"Duration":138568,"SoundDuration":138568,"Delta":242972356},{"NoteNumber":59,"Velocity":49,"Duration":138568,"SoundDuration":138568,"Delta":242972356},{"NoteNumber":76,"Velocity":69,"Duration":74441,"SoundDuration":74441,"Delta":243110924},{"NoteNumber":88,"Velocity":79,"Duration":74441,"SoundDuration":74441,"Delta":243110924},{"NoteNumber":91,"Velocity":88,"Duration":70257,"SoundDuration":70257,"Delta":243259807},{"NoteNumber":79,"Velocity":77,"Duration":70257,"SoundDuration":70257,"Delta":243259807},{"NoteNumber":47,"Velocity":69,"Duration":140515,"SoundDuration":140515,"Delta":243259807},{"NoteNumber":35,"Velocity":58,"Duration":140515,"SoundDuration":140515,"Delta":243259807},{"NoteNumber":90,"Velocity":73,"Duration":70257,"SoundDuration":70257,"Delta":243400323},{"NoteNumber":78,"Velocity":64,"Duration":70257,"SoundDuration":70257,"Delta":243400323},{"NoteNumber":79,"Velocity":64,"Duration":70257,"SoundDuration":70257,"Delta":243540838},{"NoteNumber":91,"Velocity":73,"Duration":70257,"SoundDuration":70257,"Delta":243540838},{"NoteNumber":64,"Velocity":55,"Duration":144699,"SoundDuration":144699,"Delta":243540838},{"NoteNumber":55,"Velocity":46,"Duration":144699,"SoundDuration":144699,"Delta":243540838},{"NoteNumber":59,"Velocity":46,"Duration":144699,"SoundDuration":144699,"Delta":243540838},{"NoteNumber":93,"Velocity":73,"Duration":74441,"SoundDuration":74441,"Delta":243685537},{"NoteNumber":81,"Velocity":64,"Duration":74441,"SoundDuration":74441,"Delta":243685537},{"NoteNumber":79,"Velocity":78,"Duration":147783,"SoundDuration":147783,"Delta":243834420},{"NoteNumber":91,"Velocity":89,"Duration":147783,"SoundDuration":147783,"Delta":243834420},{"NoteNumber":49,"Velocity":85,"Duration":147783,"SoundDuration":147783,"Delta":243834420},{"NoteNumber":37,"Velocity":72,"Duration":147783,"SoundDuration":147783,"Delta":243834420},{"NoteNumber":78,"Velocity":77,"Duration":591423,"SoundDuration":591423,"Delta":244129987},{"NoteNumber":90,"Velocity":88,"Duration":591423,"SoundDuration":591423,"Delta":244129987},{"NoteNumber":64,"Velocity":60,"Duration":151133,"SoundDuration":151133,"Delta":244129987},{"NoteNumber":54,"Velocity":50,"Duration":151133,"SoundDuration":151133,"Delta":244129987},{"NoteNumber":58,"Velocity":50,"Duration":151133,"SoundDuration":151133,"Delta":244129987},{"NoteNumber":48,"Velocity":75,"Duration":144578,"SoundDuration":144578,"Delta":244432254},{"NoteNumber":36,"Velocity":63,"Duration":144578,"SoundDuration":144578,"Delta":244432254},{"NoteNumber":78,"Velocity":69,"Duration":289156,"SoundDuration":289156,"Delta":244721410},{"NoteNumber":90,"Velocity":79,"Duration":289156,"SoundDuration":289156,"Delta":244721410},{"NoteNumber":64,"Velocity":62,"Duration":144578,"SoundDuration":144578,"Delta":244721410},{"NoteNumber":54,"Velocity":52,"Duration":144578,"SoundDuration":144578,"Delta":244721410},{"NoteNumber":58,"Velocity":52,"Duration":144578,"SoundDuration":144578,"Delta":244721410},{"NoteNumber":71,"Velocity":81,"Duration":75566,"SoundDuration":75566,"Delta":245010567},{"NoteNumber":83,"Velocity":92,"Duration":75566,"SoundDuration":75566,"Delta":245010567},{"NoteNumber":47,"Velocity":82,"Duration":151133,"SoundDuration":151133,"Delta":245010567},{"NoteNumber":35,"Velocity":69,"Duration":151133,"SoundDuration":151133,"Delta":245010567},{"NoteNumber":72,"Velocity":69,"Duration":75566,"SoundDuration":75566,"Delta":245161700},{"NoteNumber":84,"Velocity":79,"Duration":75566,"SoundDuration":75566,"Delta":245161700},{"NoteNumber":87,"Velocity":79,"Duration":69767,"SoundDuration":69767,"Delta":245307035},{"NoteNumber":75,"Velocity":69,"Duration":69767,"SoundDuration":69767,"Delta":245307035},{"NoteNumber":63,"Velocity":59,"Duration":139534,"SoundDuration":139534,"Delta":245307035},{"NoteNumber":54,"Velocity":49,"Duration":139534,"SoundDuration":139534,"Delta":245307035},{"NoteNumber":57,"Velocity":49,"Duration":139534,"SoundDuration":139534,"Delta":245307035},{"NoteNumber":76,"Velocity":69,"Duration":69767,"SoundDuration":69767,"Delta":245446570},{"NoteNumber":88,"Velocity":79,"Duration":69767,"SoundDuration":69767,"Delta":245446570},{"NoteNumber":90,"Velocity":88,"Duration":72289,"SoundDuration":72289,"Delta":245586105},{"NoteNumber":78,"Velocity":77,"Duration":72289,"SoundDuration":72289,"Delta":245586105},{"NoteNumber":47,"Velocity":73,"Duration":144578,"SoundDuration":144578,"Delta":245586105},{"NoteNumber":35,"Velocity":61,"Duration":144578,"SoundDuration":144578,"Delta":245586105},{"NoteNumber":88,"Velocity":73,"Duration":72289,"SoundDuration":72289,"Delta":245730683},{"NoteNumber":76,"Velocity":55,"Duration":72289,"SoundDuration":72289,"Delta":245730683},{"NoteNumber":79,"Velocity":72,"Duration":75566,"SoundDuration":75566,"Delta":245875261},{"NoteNumber":91,"Velocity":85,"Duration":75566,"SoundDuration":75566,"Delta":245875261},{"NoteNumber":63,"Velocity":57,"Duration":151133,"SoundDuration":151133,"Delta":245875261},{"NoteNumber":54,"Velocity":48,"Duration":151133,"SoundDuration":151133,"Delta":245875261},{"NoteNumber":57,"Velocity":48,"Duration":151133,"SoundDuration":151133,"Delta":245875261},{"NoteNumber":90,"Velocity":79,"Duration":75566,"SoundDuration":75566,"Delta":246026395},{"NoteNumber":78,"Velocity":67,"Duration":75566,"SoundDuration":75566,"Delta":246026395},{"NoteNumber":88,"Velocity":91,"Duration":72289,"SoundDuration":72289,"Delta":246177528},{"NoteNumber":76,"Velocity":77,"Duration":72289,"SoundDuration":72289,"Delta":246177528},{"NoteNumber":64,"Velocity":73,"Duration":144578,"SoundDuration":144578,"Delta":246177528},{"NoteNumber":52,"Velocity":61,"Duration":144578,"SoundDuration":144578,"Delta":246177528},{"NoteNumber":55,"Velocity":61,"Duration":144578,"SoundDuration":144578,"Delta":246177528},{"NoteNumber":75,"Velocity":64,"Duration":72289,"SoundDuration":72289,"Delta":246322106},{"NoteNumber":87,"Velocity":78,"Duration":72289,"SoundDuration":72289,"Delta":246322106},{"NoteNumber":47,"Velocity":47,"Duration":226322,"SoundDuration":226322,"Delta":246394395},{"NoteNumber":57,"Velocity":47,"Duration":190177,"SoundDuration":190177,"Delta":246430540},{"NoteNumber":91,"Velocity":85,"Duration":72289,"SoundDuration":72289,"Delta":246466685},{"NoteNumber":79,"Velocity":72,"Duration":72289,"SoundDuration":72289,"Delta":246466685},{"NoteNumber":63,"Velocity":56,"Duration":154032,"SoundDuration":154032,"Delta":246466685},{"NoteNumber":90,"Velocity":78,"Duration":81743,"SoundDuration":81743,"Delta":246620718},{"NoteNumber":78,"Velocity":64,"Duration":81743,"SoundDuration":81743,"Delta":246620718},{"NoteNumber":88,"Velocity":83,"Duration":81743,"SoundDuration":81743,"Delta":246784205},{"NoteNumber":76,"Velocity":71,"Duration":81743,"SoundDuration":81743,"Delta":246784205},{"NoteNumber":64,"Velocity":61,"Duration":163487,"SoundDuration":163487,"Delta":246784205},{"NoteNumber":52,"Velocity":51,"Duration":163487,"SoundDuration":163487,"Delta":246784205},{"NoteNumber":55,"Velocity":51,"Duration":163487,"SoundDuration":163487,"Delta":246784205},{"NoteNumber":40,"Velocity":81,"Duration":54495,"SoundDuration":54495,"Delta":247356412},{"NoteNumber":52,"Velocity":92,"Duration":54495,"SoundDuration":54495,"Delta":247356412},{"NoteNumber":40,"Velocity":81,"Duration":71258,"SoundDuration":71258,"Delta":247438156},{"NoteNumber":52,"Velocity":92,"Duration":71258,"SoundDuration":71258,"Delta":247438156},{"NoteNumber":42,"Velocity":69,"Duration":71258,"SoundDuration":71258,"Delta":247580674},{"NoteNumber":54,"Velocity":79,"Duration":71258,"SoundDuration":71258,"Delta":247580674},{"NoteNumber":44,"Velocity":69,"Duration":68807,"SoundDuration":68807,"Delta":247720740},{"NoteNumber":56,"Velocity":79,"Duration":68807,"SoundDuration":68807,"Delta":247720740},{"NoteNumber":45,"Velocity":69,"Duration":68807,"SoundDuration":68807,"Delta":247858355},{"NoteNumber":57,"Velocity":79,"Duration":68807,"SoundDuration":68807,"Delta":247858355},{"NoteNumber":47,"Velocity":77,"Duration":69284,"SoundDuration":69284,"Delta":247995970},{"NoteNumber":59,"Velocity":88,"Duration":69284,"SoundDuration":69284,"Delta":247995970},{"NoteNumber":46,"Velocity":64,"Duration":69284,"SoundDuration":69284,"Delta":248134538},{"NoteNumber":58,"Velocity":73,"Duration":69284,"SoundDuration":69284,"Delta":248134538},{"NoteNumber":47,"Velocity":64,"Duration":69284,"SoundDuration":69284,"Delta":248273106},{"NoteNumber":59,"Velocity":73,"Duration":69284,"SoundDuration":69284,"Delta":248273106},{"NoteNumber":50,"Velocity":64,"Duration":71770,"SoundDuration":71770,"Delta":248414161},{"NoteNumber":62,"Velocity":73,"Duration":71770,"SoundDuration":71770,"Delta":248414161},{"NoteNumber":64,"Velocity":81,"Duration":54495,"SoundDuration":54495,"Delta":248485931},{"NoteNumber":76,"Velocity":92,"Duration":54495,"SoundDuration":54495,"Delta":248485931},{"NoteNumber":64,"Velocity":81,"Duration":71258,"SoundDuration":71258,"Delta":248567675},{"NoteNumber":76,"Velocity":92,"Duration":71258,"SoundDuration":71258,"Delta":248567675},{"NoteNumber":50,"Velocity":78,"Duration":142517,"SoundDuration":142517,"Delta":248567675},{"NoteNumber":62,"Velocity":89,"Duration":142517,"SoundDuration":142517,"Delta":248567675},{"NoteNumber":66,"Velocity":69,"Duration":71258,"SoundDuration":71258,"Delta":248710193},{"NoteNumber":78,"Velocity":79,"Duration":71258,"SoundDuration":71258,"Delta":248710193},{"NoteNumber":68,"Velocity":69,"Duration":68807,"SoundDuration":68807,"Delta":248850259},{"NoteNumber":80,"Velocity":79,"Duration":68807,"SoundDuration":68807,"Delta":248850259},{"NoteNumber":52,"Velocity":77,"Duration":552366,"SoundDuration":552366,"Delta":248850259},{"NoteNumber":56,"Velocity":77,"Duration":552366,"SoundDuration":552366,"Delta":248850259},{"NoteNumber":48,"Velocity":77,"Duration":552366,"SoundDuration":552366,"Delta":248850259},{"NoteNumber":60,"Velocity":88,"Duration":552366,"SoundDuration":552366,"Delta":248850259},{"NoteNumber":69,"Velocity":69,"Duration":68807,"SoundDuration":68807,"Delta":248987874},{"NoteNumber":81,"Velocity":79,"Duration":68807,"SoundDuration":68807,"Delta":248987874},{"NoteNumber":71,"Velocity":77,"Duration":69284,"SoundDuration":69284,"Delta":249125489},{"NoteNumber":83,"Velocity":88,"Duration":69284,"SoundDuration":69284,"Delta":249125489},{"NoteNumber":70,"Velocity":64,"Duration":69284,"SoundDuration":69284,"Delta":249264057},{"NoteNumber":82,"Velocity":73,"Duration":69284,"SoundDuration":69284,"Delta":249264057},{"NoteNumber":71,"Velocity":64,"Duration":69284,"SoundDuration":69284,"Delta":249402625},{"NoteNumber":83,"Velocity":73,"Duration":69284,"SoundDuration":69284,"Delta":249402625},{"NoteNumber":52,"Velocity":69,"Duration":284595,"SoundDuration":284595,"Delta":249402625},{"NoteNumber":56,"Velocity":69,"Duration":284595,"SoundDuration":284595,"Delta":249402625},{"NoteNumber":47,"Velocity":69,"Duration":284595,"SoundDuration":284595,"Delta":249402625},{"NoteNumber":59,"Velocity":79,"Duration":284595,"SoundDuration":284595,"Delta":249402625},{"NoteNumber":74,"Velocity":64,"Duration":71770,"SoundDuration":71770,"Delta":249543680},{"NoteNumber":86,"Velocity":73,"Duration":71770,"SoundDuration":71770,"Delta":249543680},{"NoteNumber":80,"Velocity":78,"Duration":147783,"SoundDuration":147783,"Delta":249687220},{"NoteNumber":83,"Velocity":78,"Duration":147783,"SoundDuration":147783,"Delta":249687220},{"NoteNumber":74,"Velocity":78,"Duration":147783,"SoundDuration":147783,"Delta":249687220},{"NoteNumber":86,"Velocity":89,"Duration":147783,"SoundDuration":147783,"Delta":249687220},{"NoteNumber":40,"Velocity":69,"Duration":73891,"SoundDuration":73891,"Delta":249835004},{"NoteNumber":52,"Velocity":79,"Duration":73891,"SoundDuration":73891,"Delta":249835004},{"NoteNumber":81,"Velocity":77,"Duration":552366,"SoundDuration":552366,"Delta":249977703},{"NoteNumber":72,"Velocity":77,"Duration":552366,"SoundDuration":552366,"Delta":249977703},{"NoteNumber":84,"Velocity":88,"Duration":552366,"SoundDuration":552366,"Delta":249977703},{"NoteNumber":42,"Velocity":69,"Duration":68807,"SoundDuration":68807,"Delta":249977703},{"NoteNumber":54,"Velocity":79,"Duration":68807,"SoundDuration":68807,"Delta":249977703},{"NoteNumber":44,"Velocity":69,"Duration":68807,"SoundDuration":68807,"Delta":250115317},{"NoteNumber":56,"Velocity":79,"Duration":68807,"SoundDuration":68807,"Delta":250115317},{"NoteNumber":45,"Velocity":77,"Duration":69284,"SoundDuration":69284,"Delta":250252932},{"NoteNumber":57,"Velocity":88,"Duration":69284,"SoundDuration":69284,"Delta":250252932},{"NoteNumber":44,"Velocity":64,"Duration":69284,"SoundDuration":69284,"Delta":250391500},{"NoteNumber":56,"Velocity":73,"Duration":69284,"SoundDuration":69284,"Delta":250391500},{"NoteNumber":72,"Velocity":69,"Duration":294568,"SoundDuration":294568,"Delta":250530069},{"NoteNumber":76,"Velocity":69,"Duration":294568,"SoundDuration":294568,"Delta":250530069},{"NoteNumber":81,"Velocity":79,"Duration":294568,"SoundDuration":294568,"Delta":250530069},{"NoteNumber":69,"Velocity":69,"Duration":294568,"SoundDuration":294568,"Delta":250530069},{"NoteNumber":45,"Velocity":64,"Duration":69284,"SoundDuration":69284,"Delta":250530069},{"NoteNumber":57,"Velocity":73,"Duration":69284,"SoundDuration":69284,"Delta":250530069},{"NoteNumber":48,"Velocity":64,"Duration":71770,"SoundDuration":71770,"Delta":250671123},{"NoteNumber":60,"Velocity":73,"Duration":71770,"SoundDuration":71770,"Delta":250671123},{"NoteNumber":47,"Velocity":78,"Duration":142517,"SoundDuration":142517,"Delta":250824637},{"NoteNumber":59,"Velocity":89,"Duration":142517,"SoundDuration":142517,"Delta":250824637},{"NoteNumber":76,"Velocity":79,"Duration":71258,"SoundDuration":71258,"Delta":250967155},{"NoteNumber":64,"Velocity":69,"Duration":71258,"SoundDuration":71258,"Delta":250967155},{"NoteNumber":66,"Velocity":69,"Duration":68807,"SoundDuration":68807,"Delta":251107221},{"NoteNumber":78,"Velocity":79,"Duration":68807,"SoundDuration":68807,"Delta":251107221},{"NoteNumber":48,"Velocity":77,"Duration":552366,"SoundDuration":552366,"Delta":251107221},{"NoteNumber":52,"Velocity":77,"Duration":552366,"SoundDuration":552366,"Delta":251107221},{"NoteNumber":45,"Velocity":77,"Duration":552366,"SoundDuration":552366,"Delta":251107221},{"NoteNumber":57,"Velocity":88,"Duration":552366,"SoundDuration":552366,"Delta":251107221},{"NoteNumber":80,"Velocity":79,"Duration":68807,"SoundDuration":68807,"Delta":251244836},{"NoteNumber":68,"Velocity":69,"Duration":68807,"SoundDuration":68807,"Delta":251244836},{"NoteNumber":69,"Velocity":77,"Duration":69284,"SoundDuration":69284,"Delta":251382451},{"NoteNumber":81,"Velocity":88,"Duration":69284,"SoundDuration":69284,"Delta":251382451},{"NoteNumber":68,"Velocity":64,"Duration":69284,"SoundDuration":69284,"Delta":251521019},{"NoteNumber":80,"Velocity":73,"Duration":69284,"SoundDuration":69284,"Delta":251521019},{"NoteNumber":81,"Velocity":73,"Duration":69284,"SoundDuration":69284,"Delta":251659587},{"NoteNumber":69,"Velocity":64,"Duration":69284,"SoundDuration":69284,"Delta":251659587},{"NoteNumber":48,"Velocity":69,"Duration":284595,"SoundDuration":284595,"Delta":251659587},{"NoteNumber":52,"Velocity":69,"Duration":284595,"SoundDuration":284595,"Delta":251659587},{"NoteNumber":45,"Velocity":69,"Duration":284595,"SoundDuration":284595,"Delta":251659587},{"NoteNumber":57,"Velocity":79,"Duration":284595,"SoundDuration":284595,"Delta":251659587},{"NoteNumber":84,"Velocity":73,"Duration":71770,"SoundDuration":71770,"Delta":251800642},{"NoteNumber":72,"Velocity":64,"Duration":71770,"SoundDuration":71770,"Delta":251800642},{"NoteNumber":84,"Velocity":89,"Duration":148883,"SoundDuration":148883,"Delta":251944183},{"NoteNumber":72,"Velocity":78,"Duration":148883,"SoundDuration":148883,"Delta":251944183},{"NoteNumber":47,"Velocity":92,"Duration":74441,"SoundDuration":74441,"Delta":251944183},{"NoteNumber":35,"Velocity":81,"Duration":74441,"SoundDuration":74441,"Delta":251944183},{"NoteNumber":36,"Velocity":69,"Duration":74441,"SoundDuration":74441,"Delta":252093066},{"NoteNumber":48,"Velocity":79,"Duration":74441,"SoundDuration":74441,"Delta":252093066},{"NoteNumber":79,"Velocity":77,"Duration":552366,"SoundDuration":552366,"Delta":252236315},{"NoteNumber":76,"Velocity":77,"Duration":552366,"SoundDuration":552366,"Delta":252236315},{"NoteNumber":83,"Velocity":88,"Duration":552366,"SoundDuration":552366,"Delta":252236315},{"NoteNumber":71,"Velocity":77,"Duration":552366,"SoundDuration":552366,"Delta":252236315},{"NoteNumber":39,"Velocity":69,"Duration":68807,"SoundDuration":68807,"Delta":252236315},{"NoteNumber":51,"Velocity":79,"Duration":68807,"SoundDuration":68807,"Delta":252236315},{"NoteNumber":40,"Velocity":69,"Duration":68807,"SoundDuration":68807,"Delta":252373930},{"NoteNumber":52,"Velocity":79,"Duration":68807,"SoundDuration":68807,"Delta":252373930},{"NoteNumber":43,"Velocity":77,"Duration":69284,"SoundDuration":69284,"Delta":252511544},{"NoteNumber":55,"Velocity":88,"Duration":69284,"SoundDuration":69284,"Delta":252511544},{"NoteNumber":42,"Velocity":64,"Duration":69284,"SoundDuration":69284,"Delta":252650113},{"NoteNumber":54,"Velocity":73,"Duration":69284,"SoundDuration":69284,"Delta":252650113},{"NoteNumber":71,"Velocity":69,"Duration":294568,"SoundDuration":294568,"Delta":252788681},{"NoteNumber":76,"Velocity":69,"Duration":294568,"SoundDuration":294568,"Delta":252788681},{"NoteNumber":67,"Velocity":69,"Duration":294568,"SoundDuration":294568,"Delta":252788681},{"NoteNumber":79,"Velocity":79,"Duration":294568,"SoundDuration":294568,"Delta":252788681},{"NoteNumber":43,"Velocity":64,"Duration":69284,"SoundDuration":69284,"Delta":252788681},{"NoteNumber":55,"Velocity":73,"Duration":69284,"SoundDuration":69284,"Delta":252788681},{"NoteNumber":45,"Velocity":64,"Duration":71770,"SoundDuration":71770,"Delta":252929735},{"NoteNumber":57,"Velocity":73,"Duration":71770,"SoundDuration":71770,"Delta":252929735},{"NoteNumber":58,"Velocity":81,"Duration":71258,"SoundDuration":71258,"Delta":253083250},{"NoteNumber":70,"Velocity":92,"Duration":71258,"SoundDuration":71258,"Delta":253083250},{"NoteNumber":55,"Velocity":89,"Duration":142517,"SoundDuration":142517,"Delta":253083250},{"NoteNumber":43,"Velocity":78,"Duration":142517,"SoundDuration":142517,"Delta":253083250},{"NoteNumber":61,"Velocity":69,"Duration":71258,"SoundDuration":71258,"Delta":253225767},{"NoteNumber":73,"Velocity":79,"Duration":71258,"SoundDuration":71258,"Delta":253225767},{"NoteNumber":64,"Velocity":69,"Duration":68807,"SoundDuration":68807,"Delta":253365834},{"NoteNumber":76,"Velocity":79,"Duration":68807,"SoundDuration":68807,"Delta":253365834},{"NoteNumber":54,"Velocity":88,"Duration":552366,"SoundDuration":552366,"Delta":253365834},{"NoteNumber":42,"Velocity":77,"Duration":552366,"SoundDuration":552366,"Delta":253365834},{"NoteNumber":49,"Velocity":77,"Duration":552366,"SoundDuration":552366,"Delta":253365834},{"NoteNumber":46,"Velocity":77,"Duration":552366,"SoundDuration":552366,"Delta":253365834},{"NoteNumber":77,"Velocity":79,"Duration":68807,"SoundDuration":68807,"Delta":253503448},{"NoteNumber":65,"Velocity":69,"Duration":68807,"SoundDuration":68807,"Delta":253503448},{"NoteNumber":66,"Velocity":77,"Duration":69284,"SoundDuration":69284,"Delta":253641063},{"NoteNumber":78,"Velocity":88,"Duration":69284,"SoundDuration":69284,"Delta":253641063},{"NoteNumber":77,"Velocity":73,"Duration":69284,"SoundDuration":69284,"Delta":253779631},{"NoteNumber":65,"Velocity":64,"Duration":69284,"SoundDuration":69284,"Delta":253779631},{"NoteNumber":78,"Velocity":73,"Duration":69284,"SoundDuration":69284,"Delta":253918200},{"NoteNumber":66,"Velocity":64,"Duration":69284,"SoundDuration":69284,"Delta":253918200},{"NoteNumber":46,"Velocity":79,"Duration":284595,"SoundDuration":284595,"Delta":253918200},{"NoteNumber":34,"Velocity":69,"Duration":284595,"SoundDuration":284595,"Delta":253918200},{"NoteNumber":64,"Velocity":64,"Duration":71770,"SoundDuration":71770,"Delta":254059254},{"NoteNumber":76,"Velocity":73,"Duration":71770,"SoundDuration":71770,"Delta":254059254},{"NoteNumber":75,"Velocity":51,"Duration":110994,"SoundDuration":110994,"Delta":254202795},{"NoteNumber":63,"Velocity":51,"Duration":110994,"SoundDuration":110994,"Delta":254202795},{"NoteNumber":47,"Velocity":39,"Duration":110994,"SoundDuration":110994,"Delta":254202795},{"NoteNumber":35,"Velocity":33,"Duration":110994,"SoundDuration":110994,"Delta":254202795},{"NoteNumber":64,"Velocity":52,"Duration":110929,"SoundDuration":110929,"Delta":254351010},{"NoteNumber":76,"Velocity":52,"Duration":110929,"SoundDuration":110929,"Delta":254351010},{"NoteNumber":59,"Velocity":40,"Duration":110929,"SoundDuration":110929,"Delta":254351010},{"NoteNumber":47,"Velocity":34,"Duration":110929,"SoundDuration":110929,"Delta":254351010},{"NoteNumber":51,"Velocity":34,"Duration":110929,"SoundDuration":110929,"Delta":254351010},{"NoteNumber":54,"Velocity":34,"Duration":110929,"SoundDuration":110929,"Delta":254351010},{"NoteNumber":66,"Velocity":54,"Duration":110024,"SoundDuration":110024,"Delta":254498759},{"NoteNumber":78,"Velocity":54,"Duration":110024,"SoundDuration":110024,"Delta":254498759},{"NoteNumber":59,"Velocity":42,"Duration":110024,"SoundDuration":110024,"Delta":254498759},{"NoteNumber":47,"Velocity":35,"Duration":110024,"SoundDuration":110024,"Delta":254498759},{"NoteNumber":51,"Velocity":35,"Duration":110024,"SoundDuration":110024,"Delta":254498759},{"NoteNumber":54,"Velocity":35,"Duration":110024,"SoundDuration":110024,"Delta":254498759},{"NoteNumber":68,"Velocity":55,"Duration":109109,"SoundDuration":109109,"Delta":254645289},{"NoteNumber":80,"Velocity":55,"Duration":109109,"SoundDuration":109109,"Delta":254645289},{"NoteNumber":59,"Velocity":43,"Duration":109109,"SoundDuration":109109,"Delta":254645289},{"NoteNumber":47,"Velocity":36,"Duration":109109,"SoundDuration":109109,"Delta":254645289},{"NoteNumber":51,"Velocity":36,"Duration":109109,"SoundDuration":109109,"Delta":254645289},{"NoteNumber":54,"Velocity":36,"Duration":109109,"SoundDuration":109109,"Delta":254645289},{"NoteNumber":81,"Velocity":57,"Duration":108113,"SoundDuration":108113,"Delta":254790543},{"NoteNumber":69,"Velocity":57,"Duration":108113,"SoundDuration":108113,"Delta":254790543},{"NoteNumber":59,"Velocity":45,"Duration":108113,"SoundDuration":108113,"Delta":254790543},{"NoteNumber":47,"Velocity":38,"Duration":108113,"SoundDuration":108113,"Delta":254790543},{"NoteNumber":51,"Velocity":38,"Duration":108113,"SoundDuration":108113,"Delta":254790543},{"NoteNumber":54,"Velocity":38,"Duration":108113,"SoundDuration":108113,"Delta":254790543},{"NoteNumber":82,"Velocity":58,"Duration":107297,"SoundDuration":107297,"Delta":254934542},{"NoteNumber":70,"Velocity":58,"Duration":107297,"SoundDuration":107297,"Delta":254934542},{"NoteNumber":59,"Velocity":46,"Duration":107297,"SoundDuration":107297,"Delta":254934542},{"NoteNumber":47,"Velocity":39,"Duration":107297,"SoundDuration":107297,"Delta":254934542},{"NoteNumber":51,"Velocity":39,"Duration":107297,"SoundDuration":107297,"Delta":254934542},{"NoteNumber":54,"Velocity":39,"Duration":107297,"SoundDuration":107297,"Delta":254934542},{"NoteNumber":71,"Velocity":60,"Duration":106333,"SoundDuration":106333,"Delta":255077469},{"NoteNumber":83,"Velocity":60,"Duration":106333,"SoundDuration":106333,"Delta":255077469},{"NoteNumber":59,"Velocity":48,"Duration":106333,"SoundDuration":106333,"Delta":255077469},{"NoteNumber":47,"Velocity":40,"Duration":106333,"SoundDuration":106333,"Delta":255077469},{"NoteNumber":51,"Velocity":40,"Duration":106333,"SoundDuration":106333,"Delta":255077469},{"NoteNumber":54,"Velocity":40,"Duration":106333,"SoundDuration":106333,"Delta":255077469},{"NoteNumber":84,"Velocity":61,"Duration":105370,"SoundDuration":105370,"Delta":255219180},{"NoteNumber":72,"Velocity":61,"Duration":105370,"SoundDuration":105370,"Delta":255219180},{"NoteNumber":59,"Velocity":49,"Duration":105370,"SoundDuration":105370,"Delta":255219180},{"NoteNumber":47,"Velocity":41,"Duration":105370,"SoundDuration":105370,"Delta":255219180},{"NoteNumber":51,"Velocity":41,"Duration":105370,"SoundDuration":105370,"Delta":255219180},{"NoteNumber":54,"Velocity":41,"Duration":105370,"SoundDuration":105370,"Delta":255219180},{"NoteNumber":73,"Velocity":63,"Duration":103405,"SoundDuration":103405,"Delta":255359434},{"NoteNumber":85,"Velocity":63,"Duration":103405,"SoundDuration":103405,"Delta":255359434},{"NoteNumber":59,"Velocity":51,"Duration":103405,"SoundDuration":103405,"Delta":255359434},{"NoteNumber":47,"Velocity":43,"Duration":103405,"SoundDuration":103405,"Delta":255359434},{"NoteNumber":51,"Velocity":43,"Duration":103405,"SoundDuration":103405,"Delta":255359434},{"NoteNumber":54,"Velocity":43,"Duration":103405,"SoundDuration":103405,"Delta":255359434},{"NoteNumber":74,"Velocity":64,"Duration":100810,"SoundDuration":100810,"Delta":255496868},{"NoteNumber":86,"Velocity":64,"Duration":100810,"SoundDuration":100810,"Delta":255496868},{"NoteNumber":59,"Velocity":52,"Duration":100810,"SoundDuration":100810,"Delta":255496868},{"NoteNumber":47,"Velocity":44,"Duration":100810,"SoundDuration":100810,"Delta":255496868},{"NoteNumber":51,"Velocity":44,"Duration":100810,"SoundDuration":100810,"Delta":255496868},{"NoteNumber":54,"Velocity":44,"Duration":100810,"SoundDuration":100810,"Delta":255496868},{"NoteNumber":75,"Velocity":66,"Duration":98207,"SoundDuration":98207,"Delta":255630770},{"NoteNumber":87,"Velocity":66,"Duration":98207,"SoundDuration":98207,"Delta":255630770},{"NoteNumber":59,"Velocity":54,"Duration":98207,"SoundDuration":98207,"Delta":255630770},{"NoteNumber":47,"Velocity":45,"Duration":98207,"SoundDuration":98207,"Delta":255630770},{"NoteNumber":51,"Velocity":45,"Duration":98207,"SoundDuration":98207,"Delta":255630770},{"NoteNumber":54,"Velocity":45,"Duration":98207,"SoundDuration":98207,"Delta":255630770},{"NoteNumber":76,"Velocity":67,"Duration":95863,"SoundDuration":95863,"Delta":255761319},{"NoteNumber":88,"Velocity":67,"Duration":95863,"SoundDuration":95863,"Delta":255761319},{"NoteNumber":59,"Velocity":55,"Duration":95863,"SoundDuration":95863,"Delta":255761319},{"NoteNumber":47,"Velocity":46,"Duration":95863,"SoundDuration":95863,"Delta":255761319},{"NoteNumber":51,"Velocity":46,"Duration":95863,"SoundDuration":95863,"Delta":255761319},{"NoteNumber":54,"Velocity":46,"Duration":95863,"SoundDuration":95863,"Delta":255761319},{"NoteNumber":89,"Velocity":72,"Duration":96566,"SoundDuration":96566,"Delta":255888762},{"NoteNumber":77,"Velocity":72,"Duration":96566,"SoundDuration":96566,"Delta":255888762},{"NoteNumber":59,"Velocity":57,"Duration":257510,"SoundDuration":257510,"Delta":255888762},{"NoteNumber":47,"Velocity":48,"Duration":257510,"SoundDuration":257510,"Delta":255888762},{"NoteNumber":51,"Velocity":48,"Duration":257510,"SoundDuration":257510,"Delta":255888762},{"NoteNumber":54,"Velocity":48,"Duration":257510,"SoundDuration":257510,"Delta":255888762},{"NoteNumber":78,"Velocity":70,"Duration":96566,"SoundDuration":96566,"Delta":256017517},{"NoteNumber":90,"Velocity":70,"Duration":96566,"SoundDuration":96566,"Delta":256017517},{"NoteNumber":91,"Velocity":71,"Duration":96566,"SoundDuration":96566,"Delta":256146272},{"NoteNumber":79,"Velocity":71,"Duration":96566,"SoundDuration":96566,"Delta":256146272},{"NoteNumber":92,"Velocity":74,"Duration":96566,"SoundDuration":96566,"Delta":256275027},{"NoteNumber":80,"Velocity":74,"Duration":96566,"SoundDuration":96566,"Delta":256275027},{"NoteNumber":93,"Velocity":77,"Duration":244897,"SoundDuration":244897,"Delta":256403783},{"NoteNumber":81,"Velocity":65,"Duration":244897,"SoundDuration":244897,"Delta":256403783},{"NoteNumber":47,"Velocity":70,"Duration":122449,"SoundDuration":122449,"Delta":256403783},{"NoteNumber":63,"Velocity":61,"Duration":122448,"SoundDuration":122448,"Delta":256526232},{"NoteNumber":85,"Velocity":57,"Duration":126275,"SoundDuration":126275,"Delta":256648681},{"NoteNumber":97,"Velocity":68,"Duration":126275,"SoundDuration":126275,"Delta":256648681},{"NoteNumber":51,"Velocity":61,"Duration":126275,"SoundDuration":126275,"Delta":256648681},{"NoteNumber":66,"Velocity":61,"Duration":133928,"SoundDuration":133928,"Delta":256774956},{"NoteNumber":85,"Velocity":76,"Duration":244897,"SoundDuration":244897,"Delta":256908885},{"NoteNumber":73,"Velocity":64,"Duration":244897,"SoundDuration":244897,"Delta":256908885},{"NoteNumber":54,"Velocity":70,"Duration":122449,"SoundDuration":122449,"Delta":256908885},{"NoteNumber":69,"Velocity":63,"Duration":122448,"SoundDuration":122448,"Delta":257031334},{"NoteNumber":87,"Velocity":70,"Duration":122449,"SoundDuration":122449,"Delta":257153783},{"NoteNumber":75,"Velocity":59,"Duration":122449,"SoundDuration":122449,"Delta":257153783},{"NoteNumber":57,"Velocity":63,"Duration":122449,"SoundDuration":122449,"Delta":257153783},{"NoteNumber":73,"Velocity":63,"Duration":122449,"SoundDuration":122449,"Delta":257276232},{"NoteNumber":88,"Velocity":68,"Duration":58708,"SoundDuration":58708,"Delta":257398681},{"NoteNumber":76,"Velocity":57,"Duration":58708,"SoundDuration":58708,"Delta":257398681},{"NoteNumber":56,"Velocity":70,"Duration":117416,"SoundDuration":117416,"Delta":257398681},{"NoteNumber":90,"Velocity":70,"Duration":58708,"SoundDuration":58708,"Delta":257516097},{"NoteNumber":78,"Velocity":59,"Duration":58708,"SoundDuration":58708,"Delta":257516097},{"NoteNumber":71,"Velocity":59,"Duration":117416,"SoundDuration":117416,"Delta":257516097},{"NoteNumber":92,"Velocity":72,"Duration":58708,"SoundDuration":58708,"Delta":257633514},{"NoteNumber":80,"Velocity":61,"Duration":58708,"SoundDuration":58708,"Delta":257633514},{"NoteNumber":52,"Velocity":61,"Duration":123221,"SoundDuration":123221,"Delta":257633514},{"NoteNumber":81,"Velocity":62,"Duration":67415,"SoundDuration":67415,"Delta":257756736},{"NoteNumber":93,"Velocity":74,"Duration":67415,"SoundDuration":67415,"Delta":257756736},{"NoteNumber":68,"Velocity":63,"Duration":134831,"SoundDuration":134831,"Delta":257756736},{"NoteNumber":95,"Velocity":76,"Duration":121703,"SoundDuration":121703,"Delta":257891567},{"NoteNumber":83,"Velocity":64,"Duration":121703,"SoundDuration":121703,"Delta":257891567},{"NoteNumber":56,"Velocity":73,"Duration":121703,"SoundDuration":121703,"Delta":257891567},{"NoteNumber":71,"Velocity":62,"Duration":121703,"SoundDuration":121703,"Delta":258013271},{"NoteNumber":85,"Velocity":61,"Duration":124899,"SoundDuration":124899,"Delta":258134975},{"NoteNumber":97,"Velocity":72,"Duration":124899,"SoundDuration":124899,"Delta":258134975},{"NoteNumber":52,"Velocity":62,"Duration":124899,"SoundDuration":124899,"Delta":258134975},{"NoteNumber":68,"Velocity":62,"Duration":131290,"SoundDuration":131290,"Delta":258259874},{"NoteNumber":93,"Velocity":77,"Duration":244897,"SoundDuration":244897,"Delta":258391165},{"NoteNumber":81,"Velocity":65,"Duration":244897,"SoundDuration":244897,"Delta":258391165},{"NoteNumber":47,"Velocity":70,"Duration":122449,"SoundDuration":122449,"Delta":258391165},{"NoteNumber":63,"Velocity":61,"Duration":122448,"SoundDuration":122448,"Delta":258513614},{"NoteNumber":85,"Velocity":57,"Duration":126275,"SoundDuration":126275,"Delta":258636063},{"NoteNumber":97,"Velocity":68,"Duration":126275,"SoundDuration":126275,"Delta":258636063},{"NoteNumber":51,"Velocity":61,"Duration":126275,"SoundDuration":126275,"Delta":258636063},{"NoteNumber":66,"Velocity":61,"Duration":133928,"SoundDuration":133928,"Delta":258762339},{"NoteNumber":85,"Velocity":76,"Duration":241935,"SoundDuration":241935,"Delta":258896267},{"NoteNumber":73,"Velocity":64,"Duration":241935,"SoundDuration":241935,"Delta":258896267},{"NoteNumber":54,"Velocity":70,"Duration":120967,"SoundDuration":120967,"Delta":258896267},{"NoteNumber":69,"Velocity":63,"Duration":120967,"SoundDuration":120967,"Delta":259017235},{"NoteNumber":87,"Velocity":70,"Duration":120967,"SoundDuration":120967,"Delta":259138203},{"NoteNumber":75,"Velocity":59,"Duration":120967,"SoundDuration":120967,"Delta":259138203},{"NoteNumber":57,"Velocity":63,"Duration":120967,"SoundDuration":120967,"Delta":259138203},{"NoteNumber":73,"Velocity":63,"Duration":120967,"SoundDuration":120967,"Delta":259259170},{"NoteNumber":76,"Velocity":57,"Duration":59406,"SoundDuration":59406,"Delta":259380138},{"NoteNumber":88,"Velocity":68,"Duration":59406,"SoundDuration":59406,"Delta":259380138},{"NoteNumber":56,"Velocity":70,"Duration":118811,"SoundDuration":118811,"Delta":259380138},{"NoteNumber":78,"Velocity":59,"Duration":59406,"SoundDuration":59406,"Delta":259498950},{"NoteNumber":90,"Velocity":70,"Duration":59406,"SoundDuration":59406,"Delta":259498950},{"NoteNumber":71,"Velocity":59,"Duration":118811,"SoundDuration":118811,"Delta":259498950},{"NoteNumber":80,"Velocity":61,"Duration":59406,"SoundDuration":59406,"Delta":259617762},{"NoteNumber":92,"Velocity":72,"Duration":59406,"SoundDuration":59406,"Delta":259617762},{"NoteNumber":52,"Velocity":61,"Duration":124151,"SoundDuration":124151,"Delta":259617762},{"NoteNumber":93,"Velocity":74,"Duration":67415,"SoundDuration":67415,"Delta":259741914},{"NoteNumber":81,"Velocity":62,"Duration":67415,"SoundDuration":67415,"Delta":259741914},{"NoteNumber":68,"Velocity":63,"Duration":134831,"SoundDuration":134831,"Delta":259741914},{"NoteNumber":83,"Velocity":64,"Duration":121703,"SoundDuration":121703,"Delta":259876746},{"NoteNumber":95,"Velocity":76,"Duration":121703,"SoundDuration":121703,"Delta":259876746},{"NoteNumber":56,"Velocity":73,"Duration":121703,"SoundDuration":121703,"Delta":259876746},{"NoteNumber":71,"Velocity":62,"Duration":121703,"SoundDuration":121703,"Delta":259998449},{"NoteNumber":97,"Velocity":72,"Duration":121703,"SoundDuration":121703,"Delta":260120153},{"NoteNumber":85,"Velocity":61,"Duration":121703,"SoundDuration":121703,"Delta":260120153},{"NoteNumber":52,"Velocity":62,"Duration":121703,"SoundDuration":121703,"Delta":260120153},{"NoteNumber":68,"Velocity":62,"Duration":121703,"SoundDuration":121703,"Delta":260241857},{"NoteNumber":98,"Velocity":77,"Duration":247933,"SoundDuration":247933,"Delta":260363561},{"NoteNumber":86,"Velocity":65,"Duration":247933,"SoundDuration":247933,"Delta":260363561},{"NoteNumber":52,"Velocity":70,"Duration":123966,"SoundDuration":123966,"Delta":260363561},{"NoteNumber":68,"Velocity":61,"Duration":123966,"SoundDuration":123966,"Delta":260487528},{"NoteNumber":102,"Velocity":68,"Duration":127287,"SoundDuration":127287,"Delta":260611495},{"NoteNumber":90,"Velocity":57,"Duration":127287,"SoundDuration":127287,"Delta":260611495},{"NoteNumber":56,"Velocity":61,"Duration":127287,"SoundDuration":127287,"Delta":260611495},{"NoteNumber":71,"Velocity":61,"Duration":133928,"SoundDuration":133928,"Delta":260738782},{"NoteNumber":90,"Velocity":76,"Duration":244897,"SoundDuration":244897,"Delta":260872711},{"NoteNumber":78,"Velocity":64,"Duration":244897,"SoundDuration":244897,"Delta":260872711},{"NoteNumber":59,"Velocity":70,"Duration":122449,"SoundDuration":122449,"Delta":260872711},{"NoteNumber":74,"Velocity":63,"Duration":122448,"SoundDuration":122448,"Delta":260995160},{"NoteNumber":92,"Velocity":70,"Duration":122449,"SoundDuration":122449,"Delta":261117609},{"NoteNumber":80,"Velocity":59,"Duration":122449,"SoundDuration":122449,"Delta":261117609},{"NoteNumber":62,"Velocity":63,"Duration":122449,"SoundDuration":122449,"Delta":261117609},{"NoteNumber":78,"Velocity":63,"Duration":122449,"SoundDuration":122449,"Delta":261240058},{"NoteNumber":81,"Velocity":57,"Duration":61224,"SoundDuration":61224,"Delta":261362507},{"NoteNumber":93,"Velocity":68,"Duration":61224,"SoundDuration":61224,"Delta":261362507},{"NoteNumber":61,"Velocity":70,"Duration":122449,"SoundDuration":122449,"Delta":261362507},{"NoteNumber":95,"Velocity":70,"Duration":61224,"SoundDuration":61224,"Delta":261484956},{"NoteNumber":83,"Velocity":59,"Duration":61224,"SoundDuration":61224,"Delta":261484956},{"NoteNumber":76,"Velocity":59,"Duration":122448,"SoundDuration":122448,"Delta":261484956},{"NoteNumber":85,"Velocity":61,"Duration":61224,"SoundDuration":61224,"Delta":261607405},{"NoteNumber":97,"Velocity":72,"Duration":61224,"SoundDuration":61224,"Delta":261607405},{"NoteNumber":57,"Velocity":61,"Duration":126576,"SoundDuration":126576,"Delta":261607405},{"NoteNumber":87,"Velocity":62,"Duration":67415,"SoundDuration":67415,"Delta":261733981},{"NoteNumber":99,"Velocity":74,"Duration":67415,"SoundDuration":67415,"Delta":261733981},{"NoteNumber":73,"Velocity":63,"Duration":134831,"SoundDuration":134831,"Delta":261733981},{"NoteNumber":100,"Velocity":76,"Duration":121703,"SoundDuration":121703,"Delta":261868813},{"NoteNumber":88,"Velocity":64,"Duration":121703,"SoundDuration":121703,"Delta":261868813},{"NoteNumber":61,"Velocity":73,"Duration":121703,"SoundDuration":121703,"Delta":261868813},{"NoteNumber":76,"Velocity":62,"Duration":121703,"SoundDuration":121703,"Delta":261990516},{"NoteNumber":90,"Velocity":61,"Duration":121703,"SoundDuration":121703,"Delta":262112220},{"NoteNumber":102,"Velocity":72,"Duration":121703,"SoundDuration":121703,"Delta":262112220},{"NoteNumber":58,"Velocity":62,"Duration":121703,"SoundDuration":121703,"Delta":262112220},{"NoteNumber":73,"Velocity":62,"Duration":121703,"SoundDuration":121703,"Delta":262233924},{"NoteNumber":95,"Velocity":68,"Duration":61983,"SoundDuration":61983,"Delta":262355628},{"NoteNumber":83,"Velocity":57,"Duration":61983,"SoundDuration":61983,"Delta":262355628},{"NoteNumber":63,"Velocity":70,"Duration":123966,"SoundDuration":123966,"Delta":262355628},{"NoteNumber":97,"Velocity":70,"Duration":61983,"SoundDuration":61983,"Delta":262479595},{"NoteNumber":85,"Velocity":59,"Duration":61983,"SoundDuration":61983,"Delta":262479595},{"NoteNumber":78,"Velocity":59,"Duration":123966,"SoundDuration":123966,"Delta":262479595},{"NoteNumber":99,"Velocity":72,"Duration":61983,"SoundDuration":61983,"Delta":262603562},{"NoteNumber":87,"Velocity":61,"Duration":61983,"SoundDuration":61983,"Delta":262603562},{"NoteNumber":59,"Velocity":61,"Duration":127588,"SoundDuration":127588,"Delta":262603562},{"NoteNumber":88,"Velocity":62,"Duration":67415,"SoundDuration":67415,"Delta":262731150},{"NoteNumber":100,"Velocity":74,"Duration":67415,"SoundDuration":67415,"Delta":262731150},{"NoteNumber":75,"Velocity":63,"Duration":134831,"SoundDuration":134831,"Delta":262731150},{"NoteNumber":90,"Velocity":64,"Duration":128755,"SoundDuration":128755,"Delta":262865982},{"NoteNumber":102,"Velocity":76,"Duration":128755,"SoundDuration":128755,"Delta":262865982},{"NoteNumber":63,"Velocity":73,"Duration":128755,"SoundDuration":128755,"Delta":262865982},{"NoteNumber":71,"Velocity":62,"Duration":128755,"SoundDuration":128755,"Delta":262994737},{"NoteNumber":104,"Velocity":72,"Duration":129600,"SoundDuration":129600,"Delta":263123492},{"NoteNumber":92,"Velocity":61,"Duration":129600,"SoundDuration":129600,"Delta":263123492},{"NoteNumber":59,"Velocity":62,"Duration":129600,"SoundDuration":129600,"Delta":263123492},{"NoteNumber":69,"Velocity":62,"Duration":131290,"SoundDuration":131290,"Delta":263253093},{"NoteNumber":88,"Velocity":63,"Duration":129589,"SoundDuration":129589,"Delta":263384384},{"NoteNumber":100,"Velocity":75,"Duration":129589,"SoundDuration":129589,"Delta":263384384},{"NoteNumber":68,"Velocity":57,"Duration":129589,"SoundDuration":129589,"Delta":263384384},{"NoteNumber":64,"Velocity":48,"Duration":129589,"SoundDuration":129589,"Delta":263384384},{"NoteNumber":95,"Velocity":73,"Duration":129589,"SoundDuration":129589,"Delta":263643563},{"NoteNumber":87,"Velocity":62,"Duration":129589,"SoundDuration":129589,"Delta":263643563},{"NoteNumber":90,"Velocity":62,"Duration":129589,"SoundDuration":129589,"Delta":263643563},{"NoteNumber":83,"Velocity":62,"Duration":129589,"SoundDuration":129589,"Delta":263643563},{"NoteNumber":71,"Velocity":53,"Duration":129589,"SoundDuration":129589,"Delta":263643563},{"NoteNumber":59,"Velocity":45,"Duration":129589,"SoundDuration":129589,"Delta":263643563},{"NoteNumber":63,"Velocity":45,"Duration":129589,"SoundDuration":129589,"Delta":263643563},{"NoteNumber":66,"Velocity":45,"Duration":129589,"SoundDuration":129589,"Delta":263643563},{"NoteNumber":100,"Velocity":77,"Duration":129589,"SoundDuration":129589,"Delta":263902743},{"NoteNumber":92,"Velocity":65,"Duration":129589,"SoundDuration":129589,"Delta":263902743},{"NoteNumber":95,"Velocity":65,"Duration":129589,"SoundDuration":129589,"Delta":263902743},{"NoteNumber":88,"Velocity":65,"Duration":129589,"SoundDuration":129589,"Delta":263902743},{"NoteNumber":64,"Velocity":54,"Duration":129589,"SoundDuration":129589,"Delta":263902743},{"NoteNumber":59,"Velocity":45,"Duration":129589,"SoundDuration":129589,"Delta":263902743},{"NoteNumber":56,"Velocity":45,"Duration":129589,"SoundDuration":129589,"Delta":263902743},{"NoteNumber":52,"Velocity":45,"Duration":129589,"SoundDuration":129589,"Delta":263902743},{"NoteNumber":78,"Velocity":76,"Duration":129589,"SoundDuration":129589,"Delta":264161922},{"NoteNumber":66,"Velocity":66,"Duration":129589,"SoundDuration":129589,"Delta":264161922},{"NoteNumber":80,"Velocity":71,"Duration":129589,"SoundDuration":129589,"Delta":264291512},{"NoteNumber":68,"Velocity":63,"Duration":129589,"SoundDuration":129589,"Delta":264291512},{"NoteNumber":69,"Velocity":71,"Duration":244897,"SoundDuration":244897,"Delta":264421102},{"NoteNumber":81,"Velocity":84,"Duration":244897,"SoundDuration":244897,"Delta":264421102},{"NoteNumber":35,"Velocity":77,"Duration":122449,"SoundDuration":122449,"Delta":264421102},{"NoteNumber":51,"Velocity":67,"Duration":122448,"SoundDuration":122448,"Delta":264543551},{"NoteNumber":73,"Velocity":62,"Duration":126275,"SoundDuration":126275,"Delta":264666000},{"NoteNumber":85,"Velocity":74,"Duration":126275,"SoundDuration":126275,"Delta":264666000},{"NoteNumber":39,"Velocity":67,"Duration":126275,"SoundDuration":126275,"Delta":264666000},{"NoteNumber":54,"Velocity":67,"Duration":133928,"SoundDuration":133928,"Delta":264792275},{"NoteNumber":61,"Velocity":70,"Duration":252631,"SoundDuration":252631,"Delta":264926204},{"NoteNumber":73,"Velocity":83,"Duration":252631,"SoundDuration":252631,"Delta":264926204},{"NoteNumber":42,"Velocity":77,"Duration":126315,"SoundDuration":126315,"Delta":264926204},{"NoteNumber":57,"Velocity":69,"Duration":126315,"SoundDuration":126315,"Delta":265052519},{"NoteNumber":63,"Velocity":64,"Duration":126315,"SoundDuration":126315,"Delta":265178835},{"NoteNumber":75,"Velocity":77,"Duration":126315,"SoundDuration":126315,"Delta":265178835},{"NoteNumber":45,"Velocity":69,"Duration":126315,"SoundDuration":126315,"Delta":265178835},{"NoteNumber":61,"Velocity":69,"Duration":126315,"SoundDuration":126315,"Delta":265305151},{"NoteNumber":76,"Velocity":74,"Duration":60483,"SoundDuration":60483,"Delta":265431467},{"NoteNumber":64,"Velocity":62,"Duration":60483,"SoundDuration":60483,"Delta":265431467},{"NoteNumber":44,"Velocity":77,"Duration":120967,"SoundDuration":120967,"Delta":265431467},{"NoteNumber":78,"Velocity":77,"Duration":60483,"SoundDuration":60483,"Delta":265552434},{"NoteNumber":66,"Velocity":64,"Duration":60483,"SoundDuration":60483,"Delta":265552434},{"NoteNumber":59,"Velocity":64,"Duration":120967,"SoundDuration":120967,"Delta":265552434},{"NoteNumber":68,"Velocity":67,"Duration":60483,"SoundDuration":60483,"Delta":265673402},{"NoteNumber":80,"Velocity":79,"Duration":60483,"SoundDuration":60483,"Delta":265673402},{"NoteNumber":40,"Velocity":67,"Duration":125588,"SoundDuration":125588,"Delta":265673402},{"NoteNumber":81,"Velocity":81,"Duration":67415,"SoundDuration":67415,"Delta":265798991},{"NoteNumber":69,"Velocity":68,"Duration":67415,"SoundDuration":67415,"Delta":265798991},{"NoteNumber":56,"Velocity":69,"Duration":134831,"SoundDuration":134831,"Delta":265798991},{"NoteNumber":83,"Velocity":83,"Duration":123966,"SoundDuration":123966,"Delta":265933823},{"NoteNumber":71,"Velocity":70,"Duration":123966,"SoundDuration":123966,"Delta":265933823},{"NoteNumber":44,"Velocity":80,"Duration":123966,"SoundDuration":123966,"Delta":265933823},{"NoteNumber":59,"Velocity":68,"Duration":123966,"SoundDuration":123966,"Delta":266057790},{"NoteNumber":73,"Velocity":67,"Duration":126408,"SoundDuration":126408,"Delta":266181757},{"NoteNumber":85,"Velocity":79,"Duration":126408,"SoundDuration":126408,"Delta":266181757},{"NoteNumber":40,"Velocity":68,"Duration":126408,"SoundDuration":126408,"Delta":266181757},{"NoteNumber":56,"Velocity":68,"Duration":131290,"SoundDuration":131290,"Delta":266308165},{"NoteNumber":69,"Velocity":71,"Duration":251045,"SoundDuration":251045,"Delta":266439456},{"NoteNumber":81,"Velocity":84,"Duration":251045,"SoundDuration":251045,"Delta":266439456},{"NoteNumber":35,"Velocity":77,"Duration":125522,"SoundDuration":125522,"Delta":266439456},{"NoteNumber":51,"Velocity":67,"Duration":125522,"SoundDuration":125522,"Delta":266564979},{"NoteNumber":73,"Velocity":62,"Duration":128324,"SoundDuration":128324,"Delta":266690502},{"NoteNumber":85,"Velocity":74,"Duration":128324,"SoundDuration":128324,"Delta":266690502},{"NoteNumber":39,"Velocity":67,"Duration":128324,"SoundDuration":128324,"Delta":266690502},{"NoteNumber":54,"Velocity":67,"Duration":133928,"SoundDuration":133928,"Delta":266818827},{"NoteNumber":61,"Velocity":70,"Duration":251045,"SoundDuration":251045,"Delta":266952755},{"NoteNumber":73,"Velocity":83,"Duration":251045,"SoundDuration":251045,"Delta":266952755},{"NoteNumber":42,"Velocity":77,"Duration":125522,"SoundDuration":125522,"Delta":266952755},{"NoteNumber":57,"Velocity":69,"Duration":125522,"SoundDuration":125522,"Delta":267078278},{"NoteNumber":63,"Velocity":64,"Duration":125523,"SoundDuration":125523,"Delta":267203801},{"NoteNumber":75,"Velocity":77,"Duration":125523,"SoundDuration":125523,"Delta":267203801},{"NoteNumber":45,"Velocity":69,"Duration":125523,"SoundDuration":125523,"Delta":267203801},{"NoteNumber":61,"Velocity":69,"Duration":125522,"SoundDuration":125522,"Delta":267329324},{"NoteNumber":64,"Velocity":62,"Duration":60483,"SoundDuration":60483,"Delta":267454847},{"NoteNumber":76,"Velocity":74,"Duration":60483,"SoundDuration":60483,"Delta":267454847},{"NoteNumber":44,"Velocity":77,"Duration":120967,"SoundDuration":120967,"Delta":267454847},{"NoteNumber":78,"Velocity":77,"Duration":60483,"SoundDuration":60483,"Delta":267575815},{"NoteNumber":66,"Velocity":64,"Duration":60483,"SoundDuration":60483,"Delta":267575815},{"NoteNumber":59,"Velocity":64,"Duration":120967,"SoundDuration":120967,"Delta":267575815},{"NoteNumber":68,"Velocity":67,"Duration":60483,"SoundDuration":60483,"Delta":267696783},{"NoteNumber":80,"Velocity":79,"Duration":60483,"SoundDuration":60483,"Delta":267696783},{"NoteNumber":40,"Velocity":67,"Duration":125588,"SoundDuration":125588,"Delta":267696783},{"NoteNumber":81,"Velocity":81,"Duration":67415,"SoundDuration":67415,"Delta":267822372},{"NoteNumber":69,"Velocity":68,"Duration":67415,"SoundDuration":67415,"Delta":267822372},{"NoteNumber":56,"Velocity":69,"Duration":134831,"SoundDuration":134831,"Delta":267822372},{"NoteNumber":83,"Velocity":83,"Duration":124739,"SoundDuration":124739,"Delta":267957203},{"NoteNumber":71,"Velocity":70,"Duration":124739,"SoundDuration":124739,"Delta":267957203},{"NoteNumber":44,"Velocity":80,"Duration":124739,"SoundDuration":124739,"Delta":267957203},{"NoteNumber":59,"Velocity":68,"Duration":124740,"SoundDuration":124740,"Delta":268081943},{"NoteNumber":85,"Velocity":79,"Duration":124739,"SoundDuration":124739,"Delta":268206683},{"NoteNumber":73,"Velocity":67,"Duration":124739,"SoundDuration":124739,"Delta":268206683},{"NoteNumber":40,"Velocity":68,"Duration":124739,"SoundDuration":124739,"Delta":268206683},{"NoteNumber":56,"Velocity":68,"Duration":124740,"SoundDuration":124740,"Delta":268331423},{"NoteNumber":86,"Velocity":84,"Duration":254237,"SoundDuration":254237,"Delta":268456163},{"NoteNumber":74,"Velocity":71,"Duration":254237,"SoundDuration":254237,"Delta":268456163},{"NoteNumber":40,"Velocity":77,"Duration":127118,"SoundDuration":127118,"Delta":268456163},{"NoteNumber":56,"Velocity":67,"Duration":127118,"SoundDuration":127118,"Delta":268583282},{"NoteNumber":78,"Velocity":62,"Duration":129388,"SoundDuration":129388,"Delta":268710401},{"NoteNumber":90,"Velocity":74,"Duration":129388,"SoundDuration":129388,"Delta":268710401},{"NoteNumber":44,"Velocity":67,"Duration":129388,"SoundDuration":129388,"Delta":268710401},{"NoteNumber":59,"Velocity":67,"Duration":133928,"SoundDuration":133928,"Delta":268839789},{"NoteNumber":78,"Velocity":83,"Duration":251045,"SoundDuration":251045,"Delta":268973718},{"NoteNumber":66,"Velocity":70,"Duration":251045,"SoundDuration":251045,"Delta":268973718},{"NoteNumber":47,"Velocity":77,"Duration":125522,"SoundDuration":125522,"Delta":268973718},{"NoteNumber":62,"Velocity":69,"Duration":125522,"SoundDuration":125522,"Delta":269099241},{"NoteNumber":68,"Velocity":64,"Duration":125523,"SoundDuration":125523,"Delta":269224764},{"NoteNumber":80,"Velocity":77,"Duration":125523,"SoundDuration":125523,"Delta":269224764},{"NoteNumber":50,"Velocity":69,"Duration":125523,"SoundDuration":125523,"Delta":269224764},{"NoteNumber":66,"Velocity":69,"Duration":125522,"SoundDuration":125522,"Delta":269350287},{"NoteNumber":69,"Velocity":62,"Duration":60120,"SoundDuration":60120,"Delta":269475810},{"NoteNumber":81,"Velocity":74,"Duration":60120,"SoundDuration":60120,"Delta":269475810},{"NoteNumber":49,"Velocity":77,"Duration":120240,"SoundDuration":120240,"Delta":269475810},{"NoteNumber":83,"Velocity":77,"Duration":60120,"SoundDuration":60120,"Delta":269596050},{"NoteNumber":71,"Velocity":64,"Duration":60120,"SoundDuration":60120,"Delta":269596050},{"NoteNumber":64,"Velocity":64,"Duration":120240,"SoundDuration":120240,"Delta":269596050},{"NoteNumber":73,"Velocity":67,"Duration":60120,"SoundDuration":60120,"Delta":269716291},{"NoteNumber":85,"Velocity":79,"Duration":60120,"SoundDuration":60120,"Delta":269716291},{"NoteNumber":45,"Velocity":67,"Duration":125104,"SoundDuration":125104,"Delta":269716291},{"NoteNumber":87,"Velocity":81,"Duration":67415,"SoundDuration":67415,"Delta":269841395},{"NoteNumber":75,"Velocity":68,"Duration":67415,"SoundDuration":67415,"Delta":269841395},{"NoteNumber":61,"Velocity":69,"Duration":134831,"SoundDuration":134831,"Delta":269841395},{"NoteNumber":88,"Velocity":83,"Duration":125522,"SoundDuration":125522,"Delta":269976227},{"NoteNumber":76,"Velocity":70,"Duration":125522,"SoundDuration":125522,"Delta":269976227},{"NoteNumber":49,"Velocity":80,"Duration":125522,"SoundDuration":125522,"Delta":269976227},{"NoteNumber":64,"Velocity":68,"Duration":125522,"SoundDuration":125522,"Delta":270101750},{"NoteNumber":90,"Velocity":79,"Duration":133928,"SoundDuration":133928,"Delta":270227273},{"NoteNumber":78,"Velocity":67,"Duration":133928,"SoundDuration":133928,"Delta":270227273},{"NoteNumber":46,"Velocity":68,"Duration":133928,"SoundDuration":133928,"Delta":270227273},{"NoteNumber":61,"Velocity":68,"Duration":133842,"SoundDuration":133842,"Delta":270361201},{"NoteNumber":83,"Velocity":72,"Duration":128755,"SoundDuration":128755,"Delta":270495043},{"NoteNumber":71,"Velocity":61,"Duration":128755,"SoundDuration":128755,"Delta":270495043},{"NoteNumber":59,"Velocity":60,"Duration":128755,"SoundDuration":128755,"Delta":270495043},{"NoteNumber":47,"Velocity":51,"Duration":128755,"SoundDuration":128755,"Delta":270495043},{"NoteNumber":85,"Velocity":74,"Duration":128755,"SoundDuration":128755,"Delta":270623799},{"NoteNumber":73,"Velocity":62,"Duration":128755,"SoundDuration":128755,"Delta":270623799},{"NoteNumber":58,"Velocity":62,"Duration":128755,"SoundDuration":128755,"Delta":270623799},{"NoteNumber":46,"Velocity":52,"Duration":128755,"SoundDuration":128755,"Delta":270623799},{"NoteNumber":75,"Velocity":64,"Duration":128247,"SoundDuration":128247,"Delta":270752554},{"NoteNumber":87,"Velocity":76,"Duration":128247,"SoundDuration":128247,"Delta":270752554},{"NoteNumber":57,"Velocity":64,"Duration":128247,"SoundDuration":128247,"Delta":270752554},{"NoteNumber":45,"Velocity":54,"Duration":128247,"SoundDuration":128247,"Delta":270752554},{"NoteNumber":88,"Velocity":77,"Duration":127931,"SoundDuration":127931,"Delta":270880801},{"NoteNumber":76,"Velocity":65,"Duration":127931,"SoundDuration":127931,"Delta":270880801},{"NoteNumber":56,"Velocity":66,"Duration":127931,"SoundDuration":127931,"Delta":270880801},{"NoteNumber":44,"Velocity":56,"Duration":127931,"SoundDuration":127931,"Delta":270880801},{"NoteNumber":78,"Velocity":67,"Duration":127626,"SoundDuration":127626,"Delta":271008733},{"NoteNumber":90,"Velocity":79,"Duration":127626,"SoundDuration":127626,"Delta":271008733},{"NoteNumber":54,"Velocity":68,"Duration":127626,"SoundDuration":127626,"Delta":271008733},{"NoteNumber":42,"Velocity":57,"Duration":127626,"SoundDuration":127626,"Delta":271008733},{"NoteNumber":92,"Velocity":81,"Duration":127118,"SoundDuration":127118,"Delta":271136360},{"NoteNumber":80,"Velocity":68,"Duration":127118,"SoundDuration":127118,"Delta":271136360},{"NoteNumber":52,"Velocity":70,"Duration":127118,"SoundDuration":127118,"Delta":271136360},{"NoteNumber":40,"Velocity":59,"Duration":127118,"SoundDuration":127118,"Delta":271136360},{"NoteNumber":81,"Velocity":70,"Duration":127118,"SoundDuration":127118,"Delta":271263479},{"NoteNumber":93,"Velocity":83,"Duration":127118,"SoundDuration":127118,"Delta":271263479},{"NoteNumber":51,"Velocity":72,"Duration":127118,"SoundDuration":127118,"Delta":271263479},{"NoteNumber":39,"Velocity":61,"Duration":127118,"SoundDuration":127118,"Delta":271263479},{"NoteNumber":94,"Velocity":84,"Duration":126335,"SoundDuration":126335,"Delta":271390597},{"NoteNumber":82,"Velocity":71,"Duration":126335,"SoundDuration":126335,"Delta":271390597},{"NoteNumber":49,"Velocity":74,"Duration":126335,"SoundDuration":126335,"Delta":271390597},{"NoteNumber":37,"Velocity":62,"Duration":126335,"SoundDuration":126335,"Delta":271390597},{"NoteNumber":95,"Velocity":84,"Duration":126616,"SoundDuration":126616,"Delta":271516933},{"NoteNumber":83,"Velocity":71,"Duration":126616,"SoundDuration":126616,"Delta":271516933},{"NoteNumber":47,"Velocity":76,"Duration":126616,"SoundDuration":126616,"Delta":271516933},{"NoteNumber":35,"Velocity":64,"Duration":126616,"SoundDuration":126616,"Delta":271516933},{"NoteNumber":84,"Velocity":75,"Duration":129514,"SoundDuration":129514,"Delta":271771613},{"NoteNumber":96,"Velocity":89,"Duration":129514,"SoundDuration":129514,"Delta":271771613},{"NoteNumber":87,"Velocity":75,"Duration":129514,"SoundDuration":129514,"Delta":271771613},{"NoteNumber":45,"Velocity":71,"Duration":129514,"SoundDuration":129514,"Delta":271771613},{"NoteNumber":33,"Velocity":60,"Duration":129514,"SoundDuration":129514,"Delta":271771613},{"NoteNumber":88,"Velocity":79,"Duration":132627,"SoundDuration":132627,"Delta":272032141},{"NoteNumber":85,"Velocity":79,"Duration":132627,"SoundDuration":132627,"Delta":272032141},{"NoteNumber":97,"Velocity":94,"Duration":132627,"SoundDuration":132627,"Delta":272032141},{"NoteNumber":44,"Velocity":76,"Duration":132627,"SoundDuration":132627,"Delta":272032141},{"NoteNumber":32,"Velocity":64,"Duration":132627,"SoundDuration":132627,"Delta":272032141},{"NoteNumber":99,"Velocity":99,"Duration":135818,"SoundDuration":135818,"Delta":272298984},{"NoteNumber":87,"Velocity":84,"Duration":135818,"SoundDuration":135818,"Delta":272298984},{"NoteNumber":90,"Velocity":84,"Duration":135818,"SoundDuration":135818,"Delta":272298984},{"NoteNumber":42,"Velocity":73,"Duration":135818,"SoundDuration":135818,"Delta":272298984},{"NoteNumber":30,"Velocity":62,"Duration":135818,"SoundDuration":135818,"Delta":272298984},{"NoteNumber":92,"Velocity":88,"Duration":138568,"SoundDuration":138568,"Delta":272572263},{"NoteNumber":100,"Velocity":104,"Duration":138568,"SoundDuration":138568,"Delta":272572263},{"NoteNumber":88,"Velocity":88,"Duration":138568,"SoundDuration":138568,"Delta":272572263},{"NoteNumber":40,"Velocity":76,"Duration":138568,"SoundDuration":138568,"Delta":272572263},{"NoteNumber":28,"Velocity":64,"Duration":138568,"SoundDuration":138568,"Delta":272572263},{"NoteNumber":101,"Velocity":103,"Duration":138568,"SoundDuration":138568,"Delta":273126536},{"NoteNumber":89,"Velocity":87,"Duration":138568,"SoundDuration":138568,"Delta":273126536},{"NoteNumber":93,"Velocity":87,"Duration":138568,"SoundDuration":138568,"Delta":273126536},{"NoteNumber":96,"Velocity":87,"Duration":138568,"SoundDuration":138568,"Delta":273126536},{"NoteNumber":45,"Velocity":75,"Duration":138568,"SoundDuration":138568,"Delta":273126536},{"NoteNumber":33,"Velocity":63,"Duration":138568,"SoundDuration":138568,"Delta":273126536},{"NoteNumber":37,"Velocity":63,"Duration":138568,"SoundDuration":138568,"Delta":273126536},{"NoteNumber":41,"Velocity":63,"Duration":138568,"SoundDuration":138568,"Delta":273126536},{"NoteNumber":83,"Velocity":65,"Duration":51625,"SoundDuration":51625,"Delta":273975753},{"NoteNumber":87,"Velocity":65,"Duration":51625,"SoundDuration":51625,"Delta":273975753},{"NoteNumber":90,"Velocity":65,"Duration":51625,"SoundDuration":51625,"Delta":273975753},{"NoteNumber":95,"Velocity":77,"Duration":51625,"SoundDuration":51625,"Delta":273975753},{"NoteNumber":35,"Velocity":47,"Duration":51625,"SoundDuration":51625,"Delta":273975753},{"NoteNumber":39,"Velocity":47,"Duration":51625,"SoundDuration":51625,"Delta":273975753},{"NoteNumber":42,"Velocity":47,"Duration":51625,"SoundDuration":51625,"Delta":273975753},{"NoteNumber":47,"Velocity":57,"Duration":51625,"SoundDuration":51625,"Delta":273975753},{"NoteNumber":87,"Velocity":82,"Duration":78023,"SoundDuration":78023,"Delta":274033115},{"NoteNumber":95,"Velocity":97,"Duration":78023,"SoundDuration":78023,"Delta":274033115},{"NoteNumber":90,"Velocity":82,"Duration":78023,"SoundDuration":78023,"Delta":274033115},{"NoteNumber":83,"Velocity":82,"Duration":78023,"SoundDuration":78023,"Delta":274033115},{"NoteNumber":35,"Velocity":59,"Duration":78023,"SoundDuration":78023,"Delta":274033115},{"NoteNumber":39,"Velocity":59,"Duration":78023,"SoundDuration":78023,"Delta":274033115},{"NoteNumber":42,"Velocity":59,"Duration":78023,"SoundDuration":78023,"Delta":274033115},{"NoteNumber":47,"Velocity":71,"Duration":78023,"SoundDuration":78023,"Delta":274033115},{"NoteNumber":83,"Velocity":65,"Duration":51039,"SoundDuration":51039,"Delta":274306197},{"NoteNumber":88,"Velocity":77,"Duration":51039,"SoundDuration":51039,"Delta":274306197},{"NoteNumber":76,"Velocity":65,"Duration":51039,"SoundDuration":51039,"Delta":274306197},{"NoteNumber":80,"Velocity":65,"Duration":51039,"SoundDuration":51039,"Delta":274306197},{"NoteNumber":40,"Velocity":47,"Duration":51039,"SoundDuration":51039,"Delta":274306197},{"NoteNumber":44,"Velocity":47,"Duration":51039,"SoundDuration":51039,"Delta":274306197},{"NoteNumber":47,"Velocity":47,"Duration":51039,"SoundDuration":51039,"Delta":274306197},{"NoteNumber":52,"Velocity":57,"Duration":51039,"SoundDuration":51039,"Delta":274306197},{"NoteNumber":76,"Velocity":82,"Duration":77871,"SoundDuration":77871,"Delta":274362908},{"NoteNumber":80,"Velocity":82,"Duration":77871,"SoundDuration":77871,"Delta":274362908},{"NoteNumber":88,"Velocity":97,"Duration":77871,"SoundDuration":77871,"Delta":274362908},{"NoteNumber":83,"Velocity":82,"Duration":77871,"SoundDuration":77871,"Delta":274362908},{"NoteNumber":40,"Velocity":59,"Duration":77871,"SoundDuration":77871,"Delta":274362908},{"NoteNumber":44,"Velocity":59,"Duration":77871,"SoundDuration":77871,"Delta":274362908},{"NoteNumber":47,"Velocity":59,"Duration":77871,"SoundDuration":77871,"Delta":274362908},{"NoteNumber":52,"Velocity":71,"Duration":77871,"SoundDuration":77871,"Delta":274362908},{"NoteNumber":77,"Velocity":65,"Duration":50751,"SoundDuration":50751,"Delta":274635080},{"NoteNumber":81,"Velocity":65,"Duration":50751,"SoundDuration":50751,"Delta":274635080},{"NoteNumber":84,"Velocity":65,"Duration":50751,"SoundDuration":50751,"Delta":274635080},{"NoteNumber":89,"Velocity":77,"Duration":50751,"SoundDuration":50751,"Delta":274635080},{"NoteNumber":45,"Velocity":47,"Duration":50751,"SoundDuration":50751,"Delta":274635080},{"NoteNumber":48,"Velocity":47,"Duration":50751,"SoundDuration":50751,"Delta":274635080},{"NoteNumber":53,"Velocity":47,"Duration":50751,"SoundDuration":50751,"Delta":274635080},{"NoteNumber":57,"Velocity":57,"Duration":50751,"SoundDuration":50751,"Delta":274635080},{"NoteNumber":89,"Velocity":97,"Duration":76824,"SoundDuration":76824,"Delta":274691471},{"NoteNumber":84,"Velocity":82,"Duration":76824,"SoundDuration":76824,"Delta":274691471},{"NoteNumber":77,"Velocity":82,"Duration":76824,"SoundDuration":76824,"Delta":274691471},{"NoteNumber":81,"Velocity":82,"Duration":76824,"SoundDuration":76824,"Delta":274691471},{"NoteNumber":45,"Velocity":59,"Duration":76824,"SoundDuration":76824,"Delta":274691471},{"NoteNumber":48,"Velocity":59,"Duration":76824,"SoundDuration":76824,"Delta":274691471},{"NoteNumber":53,"Velocity":59,"Duration":76824,"SoundDuration":76824,"Delta":274691471},{"NoteNumber":57,"Velocity":71,"Duration":76824,"SoundDuration":76824,"Delta":274691471},{"NoteNumber":75,"Velocity":65,"Duration":48779,"SoundDuration":48779,"Delta":274960357},{"NoteNumber":71,"Velocity":65,"Duration":48779,"SoundDuration":48779,"Delta":274960357},{"NoteNumber":78,"Velocity":65,"Duration":48779,"SoundDuration":48779,"Delta":274960357},{"NoteNumber":83,"Velocity":77,"Duration":48779,"SoundDuration":48779,"Delta":274960357},{"NoteNumber":47,"Velocity":47,"Duration":48779,"SoundDuration":48779,"Delta":274960357},{"NoteNumber":51,"Velocity":47,"Duration":48779,"SoundDuration":48779,"Delta":274960357},{"NoteNumber":54,"Velocity":47,"Duration":48779,"SoundDuration":48779,"Delta":274960357},{"NoteNumber":59,"Velocity":57,"Duration":48779,"SoundDuration":48779,"Delta":274960357},{"NoteNumber":75,"Velocity":82,"Duration":75949,"SoundDuration":75949,"Delta":275013459},{"NoteNumber":78,"Velocity":82,"Duration":75949,"SoundDuration":75949,"Delta":275013459},{"NoteNumber":71,"Velocity":82,"Duration":75949,"SoundDuration":75949,"Delta":275013459},{"NoteNumber":83,"Velocity":97,"Duration":75949,"SoundDuration":75949,"Delta":275013459},{"NoteNumber":47,"Velocity":59,"Duration":75949,"SoundDuration":75949,"Delta":275013459},{"NoteNumber":51,"Velocity":59,"Duration":75949,"SoundDuration":75949,"Delta":275013459},{"NoteNumber":54,"Velocity":59,"Duration":75949,"SoundDuration":75949,"Delta":275013459},{"NoteNumber":59,"Velocity":71,"Duration":75949,"SoundDuration":75949,"Delta":275013459},{"NoteNumber":71,"Velocity":65,"Duration":48042,"SoundDuration":48042,"Delta":275279281},{"NoteNumber":68,"Velocity":65,"Duration":48042,"SoundDuration":48042,"Delta":275279281},{"NoteNumber":64,"Velocity":65,"Duration":48042,"SoundDuration":48042,"Delta":275279281},{"NoteNumber":76,"Velocity":77,"Duration":48042,"SoundDuration":48042,"Delta":275279281},{"NoteNumber":40,"Velocity":47,"Duration":48042,"SoundDuration":48042,"Delta":275279281},{"NoteNumber":44,"Velocity":47,"Duration":48042,"SoundDuration":48042,"Delta":275279281},{"NoteNumber":47,"Velocity":47,"Duration":48042,"SoundDuration":48042,"Delta":275279281},{"NoteNumber":52,"Velocity":57,"Duration":48042,"SoundDuration":48042,"Delta":275279281},{"NoteNumber":64,"Velocity":82,"Duration":75949,"SoundDuration":75949,"Delta":275332662},{"NoteNumber":76,"Velocity":97,"Duration":75949,"SoundDuration":75949,"Delta":275332662},{"NoteNumber":68,"Velocity":82,"Duration":75949,"SoundDuration":75949,"Delta":275332662},{"NoteNumber":71,"Velocity":82,"Duration":75949,"SoundDuration":75949,"Delta":275332662},{"NoteNumber":40,"Velocity":59,"Duration":75949,"SoundDuration":75949,"Delta":275332662},{"NoteNumber":44,"Velocity":59,"Duration":75949,"SoundDuration":75949,"Delta":275332662},{"NoteNumber":47,"Velocity":59,"Duration":75949,"SoundDuration":75949,"Delta":275332662},{"NoteNumber":52,"Velocity":71,"Duration":75949,"SoundDuration":75949,"Delta":275332662},{"NoteNumber":65,"Velocity":58,"Duration":48824,"SoundDuration":48824,"Delta":275598484},{"NoteNumber":69,"Velocity":58,"Duration":48824,"SoundDuration":48824,"Delta":275598484},{"NoteNumber":77,"Velocity":69,"Duration":48824,"SoundDuration":48824,"Delta":275598484},{"NoteNumber":72,"Velocity":58,"Duration":48824,"SoundDuration":48824,"Delta":275598484},{"NoteNumber":33,"Velocity":42,"Duration":48824,"SoundDuration":48824,"Delta":275598484},{"NoteNumber":36,"Velocity":42,"Duration":48824,"SoundDuration":48824,"Delta":275598484},{"NoteNumber":41,"Velocity":42,"Duration":48824,"SoundDuration":48824,"Delta":275598484},{"NoteNumber":45,"Velocity":51,"Duration":48824,"SoundDuration":48824,"Delta":275598484},{"NoteNumber":69,"Velocity":74,"Duration":80214,"SoundDuration":80214,"Delta":275652734},{"NoteNumber":77,"Velocity":87,"Duration":80214,"SoundDuration":80214,"Delta":275652734},{"NoteNumber":72,"Velocity":74,"Duration":80214,"SoundDuration":80214,"Delta":275652734},{"NoteNumber":65,"Velocity":74,"Duration":80214,"SoundDuration":80214,"Delta":275652734},{"NoteNumber":33,"Velocity":53,"Duration":80214,"SoundDuration":80214,"Delta":275652734},{"NoteNumber":36,"Velocity":53,"Duration":80214,"SoundDuration":80214,"Delta":275652734},{"NoteNumber":41,"Velocity":53,"Duration":80214,"SoundDuration":80214,"Delta":275652734},{"NoteNumber":45,"Velocity":63,"Duration":80214,"SoundDuration":80214,"Delta":275652734},{"NoteNumber":66,"Velocity":58,"Duration":53149,"SoundDuration":53149,"Delta":275933483},{"NoteNumber":71,"Velocity":69,"Duration":53149,"SoundDuration":53149,"Delta":275933483},{"NoteNumber":63,"Velocity":58,"Duration":53149,"SoundDuration":53149,"Delta":275933483},{"NoteNumber":59,"Velocity":58,"Duration":53149,"SoundDuration":53149,"Delta":275933483},{"NoteNumber":35,"Velocity":42,"Duration":53149,"SoundDuration":53149,"Delta":275933483},{"NoteNumber":39,"Velocity":42,"Duration":53149,"SoundDuration":53149,"Delta":275933483},{"NoteNumber":42,"Velocity":42,"Duration":53149,"SoundDuration":53149,"Delta":275933483},{"NoteNumber":47,"Velocity":51,"Duration":53149,"SoundDuration":53149,"Delta":275933483},{"NoteNumber":59,"Velocity":74,"Duration":94191,"SoundDuration":94191,"Delta":275992538},{"NoteNumber":71,"Velocity":87,"Duration":94191,"SoundDuration":94191,"Delta":275992538},{"NoteNumber":66,"Velocity":74,"Duration":94191,"SoundDuration":94191,"Delta":275992538},{"NoteNumber":63,"Velocity":74,"Duration":94191,"SoundDuration":94191,"Delta":275992538},{"NoteNumber":35,"Velocity":53,"Duration":94191,"SoundDuration":94191,"Delta":275992538},{"NoteNumber":39,"Velocity":53,"Duration":94191,"SoundDuration":94191,"Delta":275992538},{"NoteNumber":42,"Velocity":53,"Duration":94191,"SoundDuration":94191,"Delta":275992538},{"NoteNumber":47,"Velocity":63,"Duration":94191,"SoundDuration":94191,"Delta":275992538},{"NoteNumber":52,"Velocity":58,"Duration":42386,"SoundDuration":42386,"Delta":276322208},{"NoteNumber":56,"Velocity":58,"Duration":42386,"SoundDuration":42386,"Delta":276322208},{"NoteNumber":59,"Velocity":58,"Duration":42386,"SoundDuration":42386,"Delta":276322208},{"NoteNumber":64,"Velocity":69,"Duration":42386,"SoundDuration":42386,"Delta":276322208},{"NoteNumber":28,"Velocity":42,"Duration":42386,"SoundDuration":42386,"Delta":276322208},{"NoteNumber":32,"Velocity":42,"Duration":42386,"SoundDuration":42386,"Delta":276322208},{"NoteNumber":35,"Velocity":42,"Duration":42386,"SoundDuration":42386,"Delta":276322208},{"NoteNumber":40,"Velocity":51,"Duration":42386,"SoundDuration":42386,"Delta":276322208},{"NoteNumber":56,"Velocity":74,"Duration":88365,"SoundDuration":88365,"Delta":276369304},{"NoteNumber":64,"Velocity":87,"Duration":88365,"SoundDuration":88365,"Delta":276369304},{"NoteNumber":59,"Velocity":74,"Duration":88365,"SoundDuration":88365,"Delta":276369304},{"NoteNumber":52,"Velocity":74,"Duration":88365,"SoundDuration":88365,"Delta":276369304},{"NoteNumber":28,"Velocity":53,"Duration":88365,"SoundDuration":88365,"Delta":276369304},{"NoteNumber":32,"Velocity":53,"Duration":88365,"SoundDuration":88365,"Delta":276369304},{"NoteNumber":35,"Velocity":53,"Duration":88365,"SoundDuration":88365,"Delta":276369304},{"NoteNumber":40,"Velocity":63,"Duration":88365,"SoundDuration":88365,"Delta":276369304},{"NoteNumber":76,"Velocity":97,"Duration":88365,"SoundDuration":88365,"Delta":276727920},{"NoteNumber":71,"Velocity":82,"Duration":88365,"SoundDuration":88365,"Delta":276727920},{"NoteNumber":64,"Velocity":82,"Duration":88365,"SoundDuration":88365,"Delta":276727920},{"NoteNumber":68,"Velocity":82,"Duration":88365,"SoundDuration":88365,"Delta":276727920},{"NoteNumber":40,"Velocity":59,"Duration":88365,"SoundDuration":88365,"Delta":276727920},{"NoteNumber":44,"Velocity":59,"Duration":88365,"SoundDuration":88365,"Delta":276727920},{"NoteNumber":47,"Velocity":59,"Duration":88365,"SoundDuration":88365,"Delta":276727920},{"NoteNumber":52,"Velocity":71,"Duration":88365,"SoundDuration":88365,"Delta":276727920},{"NoteNumber":80,"Velocity":90,"Duration":104529,"SoundDuration":104529,"Delta":277076226},{"NoteNumber":83,"Velocity":90,"Duration":104529,"SoundDuration":104529,"Delta":277076226},{"NoteNumber":76,"Velocity":90,"Duration":104529,"SoundDuration":104529,"Delta":277076226},{"NoteNumber":88,"Velocity":107,"Duration":104529,"SoundDuration":104529,"Delta":277076226},{"NoteNumber":52,"Velocity":65,"Duration":104529,"SoundDuration":104529,"Delta":277076226},{"NoteNumber":56,"Velocity":65,"Duration":104529,"SoundDuration":104529,"Delta":277076226},{"NoteNumber":59,"Velocity":65,"Duration":104529,"SoundDuration":104529,"Delta":277076226},{"NoteNumber":64,"Velocity":77,"Duration":104529,"SoundDuration":104529,"Delta":277076226},{"NoteNumber":100,"Velocity":107,"Duration":1254354,"SoundDuration":1254354,"Delta":277494344},{"NoteNumber":88,"Velocity":90,"Duration":1254354,"SoundDuration":1254354,"Delta":277494344},{"NoteNumber":95,"Velocity":90,"Duration":1254354,"SoundDuration":1254354,"Delta":277494344},{"NoteNumber":92,"Velocity":90,"Duration":1254354,"SoundDuration":1254354,"Delta":277494344},{"NoteNumber":64,"Velocity":65,"Duration":1254354,"SoundDuration":1254354,"Delta":277494344},{"NoteNumber":68,"Velocity":65,"Duration":1254354,"SoundDuration":1254354,"Delta":277494344},{"NoteNumber":71,"Velocity":65,"Duration":1254354,"SoundDuration":1254354,"Delta":277494344},{"NoteNumber":76,"Velocity":77,"Duration":1254354,"SoundDuration":1254354,"Delta":277494344}],"license":{"name":"Creative Commons Attribution-ShareAlike 3.0 Germany","url":"http://creativecommons.org/licenses/by-sa/3.0/de/deed.en","text":"The MIDI, audio (MP3, OGG) and video files of Bernd Krueger are licensed under the cc-by-sa Germany License. This means that you can use and adapt the files, as long as you attribute the copyright holder.\n\nName: Bernd Krueger\nSource: http://www.piano-midi.de\n\nThe distribution or public playback of the files is only allowed under identical license conditions.\n\nThe scores are open source.","attribution":"MIDI files by Bernd Krueger (piano-midi.de)","attributionUrl":"http://www.piano-midi.de"}}