{"title":"Rhapsodie Nr. 12","artist":"Liszt","durationMs":521558,"midiSha256":"da1c620e004fb4085bc78a45161c234278435ef36d4bba9f113631a60275922b","midiObject":[{"NoteNumber":49,"Velocity":65,"Duration":69124,"SoundDuration":69124,"Delta":0},{"NoteNumber":61,"Velocity":74,"Duration":69124,"SoundDuration":69124,"Delta":0},{"NoteNumber":49,"Velocity":72,"Duration":954545,"SoundDuration":954545,"Delta":92166},{"NoteNumber":61,"Velocity":82,"Duration":954545,"SoundDuration":954545,"Delta":92166},{"NoteNumber":54,"Velocity":72,"Duration":68181,"SoundDuration":68181,"Delta":1092166},{"NoteNumber":66,"Velocity":72,"Duration":68181,"SoundDuration":68181,"Delta":1092166},{"NoteNumber":66,"Velocity":81,"Duration":954545,"SoundDuration":954545,"Delta":1183075},{"NoteNumber":54,"Velocity":81,"Duration":954545,"SoundDuration":954545,"Delta":1183075},{"NoteNumber":52,"Velocity":64,"Duration":68181,"SoundDuration":68181,"Delta":2183075},{"NoteNumber":64,"Velocity":73,"Duration":68181,"SoundDuration":68181,"Delta":2183075},{"NoteNumber":52,"Velocity":70,"Duration":432692,"SoundDuration":432692,"Delta":2273984},{"NoteNumber":64,"Velocity":80,"Duration":432692,"SoundDuration":432692,"Delta":2273984},{"NoteNumber":51,"Velocity":65,"Duration":72115,"SoundDuration":72115,"Delta":2754753},{"NoteNumber":63,"Velocity":65,"Duration":72115,"SoundDuration":72115,"Delta":2754753},{"NoteNumber":51,"Velocity":70,"Duration":432692,"SoundDuration":432692,"Delta":2850907},{"NoteNumber":63,"Velocity":80,"Duration":432692,"SoundDuration":432692,"Delta":2850907},{"NoteNumber":49,"Velocity":65,"Duration":72115,"SoundDuration":72115,"Delta":3331676},{"NoteNumber":61,"Velocity":74,"Duration":72115,"SoundDuration":72115,"Delta":3331676},{"NoteNumber":49,"Velocity":71,"Duration":414746,"SoundDuration":414746,"Delta":3427830},{"NoteNumber":61,"Velocity":81,"Duration":414746,"SoundDuration":414746,"Delta":3427830},{"NoteNumber":48,"Velocity":64,"Duration":69124,"SoundDuration":69124,"Delta":3888660},{"NoteNumber":60,"Velocity":73,"Duration":69124,"SoundDuration":69124,"Delta":3888660},{"NoteNumber":48,"Velocity":70,"Duration":445544,"SoundDuration":445544,"Delta":3980826},{"NoteNumber":60,"Velocity":80,"Duration":445544,"SoundDuration":445544,"Delta":3980826},{"NoteNumber":49,"Velocity":63,"Duration":74257,"SoundDuration":74257,"Delta":4475875},{"NoteNumber":61,"Velocity":72,"Duration":74257,"SoundDuration":74257,"Delta":4475875},{"NoteNumber":49,"Velocity":71,"Duration":397351,"SoundDuration":397351,"Delta":4574885},{"NoteNumber":61,"Velocity":81,"Duration":397351,"SoundDuration":397351,"Delta":4574885},{"NoteNumber":46,"Velocity":44,"Duration":102237,"SoundDuration":102237,"Delta":5369587},{"NoteNumber":31,"Velocity":40,"Duration":102237,"SoundDuration":102237,"Delta":5369587},{"NoteNumber":49,"Velocity":38,"Duration":92165,"SoundDuration":92165,"Delta":5471824},{"NoteNumber":40,"Velocity":29,"Duration":92165,"SoundDuration":92165,"Delta":5471824},{"NoteNumber":46,"Velocity":45,"Duration":91726,"SoundDuration":91726,"Delta":5563990},{"NoteNumber":31,"Velocity":40,"Duration":91726,"SoundDuration":91726,"Delta":5563990},{"NoteNumber":49,"Velocity":39,"Duration":90909,"SoundDuration":90909,"Delta":5655716},{"NoteNumber":40,"Velocity":31,"Duration":90909,"SoundDuration":90909,"Delta":5655716},{"NoteNumber":46,"Velocity":46,"Duration":135201,"SoundDuration":135201,"Delta":5746625},{"NoteNumber":31,"Velocity":39,"Duration":90358,"SoundDuration":90358,"Delta":5746625},{"NoteNumber":49,"Velocity":42,"Duration":89686,"SoundDuration":89686,"Delta":5836984},{"NoteNumber":40,"Velocity":30,"Duration":89686,"SoundDuration":89686,"Delta":5836984},{"NoteNumber":46,"Velocity":47,"Duration":89061,"SoundDuration":89061,"Delta":5926670},{"NoteNumber":31,"Velocity":39,"Duration":89061,"SoundDuration":89061,"Delta":5926670},{"NoteNumber":49,"Velocity":42,"Duration":88495,"SoundDuration":88495,"Delta":6015731},{"NoteNumber":40,"Velocity":34,"Duration":88495,"SoundDuration":88495,"Delta":6015731},{"NoteNumber":46,"Velocity":48,"Duration":87799,"SoundDuration":87799,"Delta":6104227},{"NoteNumber":31,"Velocity":41,"Duration":87799,"SoundDuration":87799,"Delta":6104227},{"NoteNumber":49,"Velocity":44,"Duration":87336,"SoundDuration":87336,"Delta":6192027},{"NoteNumber":40,"Velocity":37,"Duration":87336,"SoundDuration":87336,"Delta":6192027},{"NoteNumber":46,"Velocity":50,"Duration":130213,"SoundDuration":130213,"Delta":6279363},{"NoteNumber":31,"Velocity":43,"Duration":87110,"SoundDuration":87110,"Delta":6279363},{"NoteNumber":49,"Velocity":45,"Duration":86206,"SoundDuration":86206,"Delta":6366473},{"NoteNumber":40,"Velocity":38,"Duration":86206,"SoundDuration":86206,"Delta":6366473},{"NoteNumber":46,"Velocity":51,"Duration":85904,"SoundDuration":85904,"Delta":6452680},{"NoteNumber":31,"Velocity":44,"Duration":85904,"SoundDuration":85904,"Delta":6452680},{"NoteNumber":49,"Velocity":46,"Duration":85106,"SoundDuration":85106,"Delta":6538585},{"NoteNumber":40,"Velocity":41,"Duration":85106,"SoundDuration":85106,"Delta":6538585},{"NoteNumber":46,"Velocity":52,"Duration":84730,"SoundDuration":84730,"Delta":6623691},{"NoteNumber":31,"Velocity":46,"Duration":84730,"SoundDuration":84730,"Delta":6623691},{"NoteNumber":49,"Velocity":47,"Duration":84033,"SoundDuration":84033,"Delta":6708422},{"NoteNumber":40,"Velocity":42,"Duration":84033,"SoundDuration":84033,"Delta":6708422},{"NoteNumber":46,"Velocity":53,"Duration":124597,"SoundDuration":124597,"Delta":6792456},{"NoteNumber":31,"Velocity":48,"Duration":83562,"SoundDuration":83562,"Delta":6792456},{"NoteNumber":49,"Velocity":48,"Duration":82018,"SoundDuration":82018,"Delta":6876018},{"NoteNumber":40,"Velocity":43,"Duration":82018,"SoundDuration":82018,"Delta":6876018},{"NoteNumber":46,"Velocity":55,"Duration":81967,"SoundDuration":81967,"Delta":6958037},{"NoteNumber":31,"Velocity":49,"Duration":81967,"SoundDuration":81967,"Delta":6958037},{"NoteNumber":49,"Velocity":49,"Duration":81419,"SoundDuration":81419,"Delta":7040004},{"NoteNumber":40,"Velocity":45,"Duration":81419,"SoundDuration":81419,"Delta":7040004},{"NoteNumber":46,"Velocity":56,"Duration":80971,"SoundDuration":80971,"Delta":7121424},{"NoteNumber":31,"Velocity":51,"Duration":80971,"SoundDuration":80971,"Delta":7121424},{"NoteNumber":49,"Velocity":50,"Duration":80340,"SoundDuration":80340,"Delta":7202395},{"NoteNumber":40,"Velocity":45,"Duration":80340,"SoundDuration":80340,"Delta":7202395},{"NoteNumber":46,"Velocity":57,"Duration":119786,"SoundDuration":119786,"Delta":7282735},{"NoteNumber":31,"Velocity":53,"Duration":80000,"SoundDuration":80000,"Delta":7282735},{"NoteNumber":49,"Velocity":51,"Duration":79312,"SoundDuration":79312,"Delta":7362735},{"NoteNumber":40,"Velocity":47,"Duration":79312,"SoundDuration":79312,"Delta":7362735},{"NoteNumber":46,"Velocity":58,"Duration":79051,"SoundDuration":79051,"Delta":7442048},{"NoteNumber":31,"Velocity":54,"Duration":79051,"SoundDuration":79051,"Delta":7442048},{"NoteNumber":49,"Velocity":55,"Duration":78310,"SoundDuration":78310,"Delta":7521099},{"NoteNumber":40,"Velocity":49,"Duration":78310,"SoundDuration":78310,"Delta":7521099},{"NoteNumber":46,"Velocity":60,"Duration":79244,"SoundDuration":79244,"Delta":7599409},{"NoteNumber":31,"Velocity":56,"Duration":79244,"SoundDuration":79244,"Delta":7599409},{"NoteNumber":49,"Velocity":53,"Duration":80388,"SoundDuration":80388,"Delta":7678654},{"NoteNumber":40,"Velocity":52,"Duration":80388,"SoundDuration":80388,"Delta":7678654},{"NoteNumber":46,"Velocity":61,"Duration":123335,"SoundDuration":123335,"Delta":7759042},{"NoteNumber":31,"Velocity":57,"Duration":81892,"SoundDuration":81892,"Delta":7759042},{"NoteNumber":49,"Velocity":54,"Duration":83433,"SoundDuration":83433,"Delta":7840935},{"NoteNumber":40,"Velocity":58,"Duration":83433,"SoundDuration":83433,"Delta":7840935},{"NoteNumber":46,"Velocity":62,"Duration":80000,"SoundDuration":80000,"Delta":7924368},{"NoteNumber":31,"Velocity":59,"Duration":80000,"SoundDuration":80000,"Delta":7924368},{"NoteNumber":49,"Velocity":58,"Duration":80000,"SoundDuration":80000,"Delta":8004368},{"NoteNumber":40,"Velocity":60,"Duration":80000,"SoundDuration":80000,"Delta":8004368},{"NoteNumber":46,"Velocity":63,"Duration":80000,"SoundDuration":80000,"Delta":8084368},{"NoteNumber":31,"Velocity":61,"Duration":80000,"SoundDuration":80000,"Delta":8084368},{"NoteNumber":49,"Velocity":59,"Duration":80000,"SoundDuration":80000,"Delta":8164368},{"NoteNumber":40,"Velocity":62,"Duration":80000,"SoundDuration":80000,"Delta":8164368},{"NoteNumber":46,"Velocity":67,"Duration":119999,"SoundDuration":119999,"Delta":8244368},{"NoteNumber":31,"Velocity":62,"Duration":80000,"SoundDuration":80000,"Delta":8244368},{"NoteNumber":49,"Velocity":70,"Duration":79762,"SoundDuration":79762,"Delta":8324368},{"NoteNumber":40,"Velocity":63,"Duration":79762,"SoundDuration":79762,"Delta":8324368},{"NoteNumber":46,"Velocity":73,"Duration":79312,"SoundDuration":79312,"Delta":8404131},{"NoteNumber":31,"Velocity":64,"Duration":79312,"SoundDuration":79312,"Delta":8404131},{"NoteNumber":49,"Velocity":76,"Duration":81100,"SoundDuration":81100,"Delta":8483444},{"NoteNumber":40,"Velocity":65,"Duration":81100,"SoundDuration":81100,"Delta":8483444},{"NoteNumber":46,"Velocity":79,"Duration":82324,"SoundDuration":82324,"Delta":8564544},{"NoteNumber":31,"Velocity":67,"Duration":82324,"SoundDuration":82324,"Delta":8564544},{"NoteNumber":49,"Velocity":82,"Duration":84331,"SoundDuration":84331,"Delta":8646869},{"NoteNumber":40,"Velocity":68,"Duration":84331,"SoundDuration":84331,"Delta":8646869},{"NoteNumber":46,"Velocity":85,"Duration":129213,"SoundDuration":129213,"Delta":8731201},{"NoteNumber":31,"Velocity":69,"Duration":85601,"SoundDuration":85601,"Delta":8731201},{"NoteNumber":49,"Velocity":88,"Duration":87830,"SoundDuration":87830,"Delta":8816802},{"NoteNumber":40,"Velocity":70,"Duration":87830,"SoundDuration":87830,"Delta":8816802},{"NoteNumber":45,"Velocity":84,"Duration":99009,"SoundDuration":99009,"Delta":8954138},{"NoteNumber":48,"Velocity":94,"Duration":99009,"SoundDuration":99009,"Delta":8954138},{"NoteNumber":30,"Velocity":67,"Duration":99009,"SoundDuration":99009,"Delta":8954138},{"NoteNumber":39,"Velocity":72,"Duration":99009,"SoundDuration":99009,"Delta":8954138},{"NoteNumber":46,"Velocity":90,"Duration":297029,"SoundDuration":297029,"Delta":9053148},{"NoteNumber":49,"Velocity":100,"Duration":297029,"SoundDuration":297029,"Delta":9053148},{"NoteNumber":31,"Velocity":78,"Duration":297029,"SoundDuration":297029,"Delta":9053148},{"NoteNumber":40,"Velocity":82,"Duration":297029,"SoundDuration":297029,"Delta":9053148},{"NoteNumber":68,"Velocity":74,"Duration":67264,"SoundDuration":67264,"Delta":11339684},{"NoteNumber":56,"Velocity":65,"Duration":67264,"SoundDuration":67264,"Delta":11339684},{"NoteNumber":56,"Velocity":72,"Duration":941703,"SoundDuration":941703,"Delta":11429370},{"NoteNumber":68,"Velocity":82,"Duration":941703,"SoundDuration":941703,"Delta":11429370},{"NoteNumber":61,"Velocity":63,"Duration":67264,"SoundDuration":67264,"Delta":12415917},{"NoteNumber":73,"Velocity":72,"Duration":67264,"SoundDuration":67264,"Delta":12415917},{"NoteNumber":61,"Velocity":71,"Duration":964656,"SoundDuration":964656,"Delta":12505603},{"NoteNumber":73,"Velocity":81,"Duration":964656,"SoundDuration":964656,"Delta":12505603},{"NoteNumber":59,"Velocity":64,"Duration":71090,"SoundDuration":71090,"Delta":13517654},{"NoteNumber":71,"Velocity":73,"Duration":71090,"SoundDuration":71090,"Delta":13517654},{"NoteNumber":59,"Velocity":70,"Duration":426540,"SoundDuration":426540,"Delta":13612440},{"NoteNumber":71,"Velocity":80,"Duration":426540,"SoundDuration":426540,"Delta":13612440},{"NoteNumber":58,"Velocity":65,"Duration":71090,"SoundDuration":71090,"Delta":14086374},{"NoteNumber":70,"Velocity":74,"Duration":71090,"SoundDuration":71090,"Delta":14086374},{"NoteNumber":58,"Velocity":70,"Duration":426540,"SoundDuration":426540,"Delta":14181161},{"NoteNumber":70,"Velocity":80,"Duration":426540,"SoundDuration":426540,"Delta":14181161},{"NoteNumber":56,"Velocity":65,"Duration":71090,"SoundDuration":71090,"Delta":14655095},{"NoteNumber":68,"Velocity":74,"Duration":71090,"SoundDuration":71090,"Delta":14655095},{"NoteNumber":56,"Velocity":71,"Duration":414746,"SoundDuration":414746,"Delta":14749881},{"NoteNumber":68,"Velocity":81,"Duration":414746,"SoundDuration":414746,"Delta":14749881},{"NoteNumber":67,"Velocity":73,"Duration":69124,"SoundDuration":69124,"Delta":15210711},{"NoteNumber":55,"Velocity":64,"Duration":69124,"SoundDuration":69124,"Delta":15210711},{"NoteNumber":55,"Velocity":70,"Duration":445544,"SoundDuration":445544,"Delta":15302877},{"NoteNumber":67,"Velocity":80,"Duration":445544,"SoundDuration":445544,"Delta":15302877},{"NoteNumber":56,"Velocity":63,"Duration":74257,"SoundDuration":74257,"Delta":15797926},{"NoteNumber":68,"Velocity":72,"Duration":74257,"SoundDuration":74257,"Delta":15797926},{"NoteNumber":56,"Velocity":71,"Duration":337078,"SoundDuration":337078,"Delta":15896936},{"NoteNumber":68,"Velocity":81,"Duration":337078,"SoundDuration":337078,"Delta":15896936},{"NoteNumber":50,"Velocity":44,"Duration":98183,"SoundDuration":98183,"Delta":16571094},{"NoteNumber":47,"Velocity":44,"Duration":98183,"SoundDuration":98183,"Delta":16571094},{"NoteNumber":29,"Velocity":40,"Duration":98183,"SoundDuration":98183,"Delta":16571094},{"NoteNumber":56,"Velocity":38,"Duration":93457,"SoundDuration":93457,"Delta":16669277},{"NoteNumber":38,"Velocity":29,"Duration":93457,"SoundDuration":93457,"Delta":16669277},{"NoteNumber":50,"Velocity":45,"Duration":93457,"SoundDuration":93457,"Delta":16762735},{"NoteNumber":47,"Velocity":45,"Duration":93457,"SoundDuration":93457,"Delta":16762735},{"NoteNumber":29,"Velocity":40,"Duration":93457,"SoundDuration":93457,"Delta":16762735},{"NoteNumber":56,"Velocity":39,"Duration":92327,"SoundDuration":92327,"Delta":16856193},{"NoteNumber":38,"Velocity":31,"Duration":92327,"SoundDuration":92327,"Delta":16856193},{"NoteNumber":50,"Velocity":46,"Duration":138248,"SoundDuration":138248,"Delta":16948520},{"NoteNumber":47,"Velocity":46,"Duration":138248,"SoundDuration":138248,"Delta":16948520},{"NoteNumber":29,"Velocity":39,"Duration":92165,"SoundDuration":92165,"Delta":16948520},{"NoteNumber":56,"Velocity":42,"Duration":91568,"SoundDuration":91568,"Delta":17040686},{"NoteNumber":38,"Velocity":30,"Duration":91568,"SoundDuration":91568,"Delta":17040686},{"NoteNumber":50,"Velocity":47,"Duration":90909,"SoundDuration":90909,"Delta":17132255},{"NoteNumber":47,"Velocity":47,"Duration":90909,"SoundDuration":90909,"Delta":17132255},{"NoteNumber":29,"Velocity":39,"Duration":90909,"SoundDuration":90909,"Delta":17132255},{"NoteNumber":56,"Velocity":42,"Duration":90817,"SoundDuration":90817,"Delta":17223164},{"NoteNumber":38,"Velocity":34,"Duration":90817,"SoundDuration":90817,"Delta":17223164},{"NoteNumber":50,"Velocity":48,"Duration":89686,"SoundDuration":89686,"Delta":17313982},{"NoteNumber":47,"Velocity":48,"Duration":89686,"SoundDuration":89686,"Delta":17313982},{"NoteNumber":29,"Velocity":41,"Duration":89686,"SoundDuration":89686,"Delta":17313982},{"NoteNumber":56,"Velocity":44,"Duration":89686,"SoundDuration":89686,"Delta":17403668},{"NoteNumber":38,"Velocity":37,"Duration":89686,"SoundDuration":89686,"Delta":17403668},{"NoteNumber":50,"Velocity":50,"Duration":133695,"SoundDuration":133695,"Delta":17493354},{"NoteNumber":47,"Velocity":50,"Duration":133695,"SoundDuration":133695,"Delta":17493354},{"NoteNumber":29,"Velocity":43,"Duration":89447,"SoundDuration":89447,"Delta":17493354},{"NoteNumber":56,"Velocity":45,"Duration":88495,"SoundDuration":88495,"Delta":17582802},{"NoteNumber":38,"Velocity":38,"Duration":88495,"SoundDuration":88495,"Delta":17582802},{"NoteNumber":50,"Velocity":51,"Duration":88495,"SoundDuration":88495,"Delta":17671297},{"NoteNumber":47,"Velocity":51,"Duration":88495,"SoundDuration":88495,"Delta":17671297},{"NoteNumber":29,"Velocity":44,"Duration":88495,"SoundDuration":88495,"Delta":17671297},{"NoteNumber":56,"Velocity":46,"Duration":87568,"SoundDuration":87568,"Delta":17759793},{"NoteNumber":38,"Velocity":41,"Duration":87568,"SoundDuration":87568,"Delta":17759793},{"NoteNumber":50,"Velocity":52,"Duration":87336,"SoundDuration":87336,"Delta":17847361},{"NoteNumber":47,"Velocity":52,"Duration":87336,"SoundDuration":87336,"Delta":17847361},{"NoteNumber":29,"Velocity":46,"Duration":87336,"SoundDuration":87336,"Delta":17847361},{"NoteNumber":56,"Velocity":47,"Duration":86884,"SoundDuration":86884,"Delta":17934697},{"NoteNumber":38,"Velocity":42,"Duration":86884,"SoundDuration":86884,"Delta":17934697},{"NoteNumber":50,"Velocity":53,"Duration":129310,"SoundDuration":129310,"Delta":18021582},{"NoteNumber":47,"Velocity":53,"Duration":129310,"SoundDuration":129310,"Delta":18021582},{"NoteNumber":29,"Velocity":48,"Duration":86206,"SoundDuration":86206,"Delta":18021582},{"NoteNumber":56,"Velocity":48,"Duration":86206,"SoundDuration":86206,"Delta":18107789},{"NoteNumber":38,"Velocity":43,"Duration":86206,"SoundDuration":86206,"Delta":18107789},{"NoteNumber":50,"Velocity":55,"Duration":85052,"SoundDuration":85052,"Delta":18193996},{"NoteNumber":47,"Velocity":55,"Duration":85052,"SoundDuration":85052,"Delta":18193996},{"NoteNumber":29,"Velocity":49,"Duration":85052,"SoundDuration":85052,"Delta":18193996},{"NoteNumber":56,"Velocity":49,"Duration":83955,"SoundDuration":83955,"Delta":18279048},{"NoteNumber":38,"Velocity":45,"Duration":83955,"SoundDuration":83955,"Delta":18279048},{"NoteNumber":50,"Velocity":56,"Duration":82860,"SoundDuration":82860,"Delta":18363004},{"NoteNumber":47,"Velocity":56,"Duration":82860,"SoundDuration":82860,"Delta":18363004},{"NoteNumber":29,"Velocity":51,"Duration":82860,"SoundDuration":82860,"Delta":18363004},{"NoteNumber":56,"Velocity":50,"Duration":81817,"SoundDuration":81817,"Delta":18445864},{"NoteNumber":38,"Velocity":45,"Duration":81817,"SoundDuration":81817,"Delta":18445864},{"NoteNumber":50,"Velocity":57,"Duration":120777,"SoundDuration":120777,"Delta":18527682},{"NoteNumber":47,"Velocity":57,"Duration":120777,"SoundDuration":120777,"Delta":18527682},{"NoteNumber":29,"Velocity":53,"Duration":80777,"SoundDuration":80777,"Delta":18527682},{"NoteNumber":56,"Velocity":51,"Duration":79762,"SoundDuration":79762,"Delta":18608459},{"NoteNumber":38,"Velocity":47,"Duration":79762,"SoundDuration":79762,"Delta":18608459},{"NoteNumber":50,"Velocity":58,"Duration":78796,"SoundDuration":78796,"Delta":18688222},{"NoteNumber":47,"Velocity":58,"Duration":78796,"SoundDuration":78796,"Delta":18688222},{"NoteNumber":29,"Velocity":54,"Duration":78796,"SoundDuration":78796,"Delta":18688222},{"NoteNumber":56,"Velocity":55,"Duration":77830,"SoundDuration":77830,"Delta":18767018},{"NoteNumber":38,"Velocity":49,"Duration":77830,"SoundDuration":77830,"Delta":18767018},{"NoteNumber":50,"Velocity":60,"Duration":77536,"SoundDuration":77536,"Delta":18844849},{"NoteNumber":47,"Velocity":60,"Duration":77536,"SoundDuration":77536,"Delta":18844849},{"NoteNumber":29,"Velocity":56,"Duration":77536,"SoundDuration":77536,"Delta":18844849},{"NoteNumber":56,"Velocity":53,"Duration":78935,"SoundDuration":78935,"Delta":18922386},{"NoteNumber":38,"Velocity":52,"Duration":78935,"SoundDuration":78935,"Delta":18922386},{"NoteNumber":50,"Velocity":61,"Duration":120851,"SoundDuration":120851,"Delta":19001322},{"NoteNumber":47,"Velocity":61,"Duration":120851,"SoundDuration":120851,"Delta":19001322},{"NoteNumber":29,"Velocity":57,"Duration":80366,"SoundDuration":80366,"Delta":19001322},{"NoteNumber":56,"Velocity":54,"Duration":81444,"SoundDuration":81444,"Delta":19081688},{"NoteNumber":38,"Velocity":58,"Duration":81444,"SoundDuration":81444,"Delta":19081688},{"NoteNumber":50,"Velocity":62,"Duration":83536,"SoundDuration":83536,"Delta":19163132},{"NoteNumber":47,"Velocity":62,"Duration":83536,"SoundDuration":83536,"Delta":19163132},{"NoteNumber":29,"Velocity":59,"Duration":83536,"SoundDuration":83536,"Delta":19163132},{"NoteNumber":56,"Velocity":58,"Duration":83458,"SoundDuration":83458,"Delta":19246669},{"NoteNumber":38,"Velocity":60,"Duration":83458,"SoundDuration":83458,"Delta":19246669},{"NoteNumber":50,"Velocity":63,"Duration":82250,"SoundDuration":82250,"Delta":19330127},{"NoteNumber":47,"Velocity":63,"Duration":82250,"SoundDuration":82250,"Delta":19330127},{"NoteNumber":29,"Velocity":61,"Duration":82250,"SoundDuration":82250,"Delta":19330127},{"NoteNumber":56,"Velocity":59,"Duration":80825,"SoundDuration":80825,"Delta":19412378},{"NoteNumber":38,"Velocity":63,"Duration":80825,"SoundDuration":80825,"Delta":19412378},{"NoteNumber":50,"Velocity":67,"Duration":119127,"SoundDuration":119127,"Delta":19493204},{"NoteNumber":47,"Velocity":67,"Duration":119127,"SoundDuration":119127,"Delta":19493204},{"NoteNumber":29,"Velocity":64,"Duration":79810,"SoundDuration":79810,"Delta":19493204},{"NoteNumber":56,"Velocity":70,"Duration":78379,"SoundDuration":78379,"Delta":19573015},{"NoteNumber":38,"Velocity":65,"Duration":78379,"SoundDuration":78379,"Delta":19573015},{"NoteNumber":50,"Velocity":73,"Duration":77203,"SoundDuration":77203,"Delta":19651394},{"NoteNumber":47,"Velocity":73,"Duration":77203,"SoundDuration":77203,"Delta":19651394},{"NoteNumber":29,"Velocity":66,"Duration":77203,"SoundDuration":77203,"Delta":19651394},{"NoteNumber":56,"Velocity":77,"Duration":76623,"SoundDuration":76623,"Delta":19728597},{"NoteNumber":38,"Velocity":67,"Duration":76623,"SoundDuration":76623,"Delta":19728597},{"NoteNumber":50,"Velocity":80,"Duration":77536,"SoundDuration":77536,"Delta":19805221},{"NoteNumber":47,"Velocity":80,"Duration":77536,"SoundDuration":77536,"Delta":19805221},{"NoteNumber":29,"Velocity":68,"Duration":77536,"SoundDuration":77536,"Delta":19805221},{"NoteNumber":56,"Velocity":83,"Duration":78935,"SoundDuration":78935,"Delta":19882758},{"NoteNumber":38,"Velocity":69,"Duration":78935,"SoundDuration":78935,"Delta":19882758},{"NoteNumber":50,"Velocity":86,"Duration":120366,"SoundDuration":120366,"Delta":19961693},{"NoteNumber":47,"Velocity":86,"Duration":120366,"SoundDuration":120366,"Delta":19961693},{"NoteNumber":29,"Velocity":70,"Duration":79928,"SoundDuration":79928,"Delta":19961693},{"NoteNumber":56,"Velocity":89,"Duration":81395,"SoundDuration":81395,"Delta":20041622},{"NoteNumber":38,"Velocity":71,"Duration":81395,"SoundDuration":81395,"Delta":20041622},{"NoteNumber":49,"Velocity":83,"Duration":134529,"SoundDuration":134529,"Delta":20123018},{"NoteNumber":55,"Velocity":93,"Duration":89686,"SoundDuration":89686,"Delta":20123018},{"NoteNumber":37,"Velocity":72,"Duration":89686,"SoundDuration":89686,"Delta":20123018},{"NoteNumber":28,"Velocity":65,"Duration":89686,"SoundDuration":89686,"Delta":20123018},{"NoteNumber":46,"Velocity":74,"Duration":89686,"SoundDuration":89686,"Delta":20167861},{"NoteNumber":47,"Velocity":78,"Duration":269058,"SoundDuration":269058,"Delta":20257547},{"NoteNumber":50,"Velocity":90,"Duration":269058,"SoundDuration":269058,"Delta":20257547},{"NoteNumber":56,"Velocity":98,"Duration":269058,"SoundDuration":269058,"Delta":20257547},{"NoteNumber":29,"Velocity":75,"Duration":269058,"SoundDuration":269058,"Delta":20257547},{"NoteNumber":38,"Velocity":81,"Duration":269058,"SoundDuration":269058,"Delta":20257547},{"NoteNumber":56,"Velocity":73,"Duration":114503,"SoundDuration":114503,"Delta":22457604},{"NoteNumber":56,"Velocity":73,"Duration":1265905,"SoundDuration":1265905,"Delta":22572107},{"NoteNumber":40,"Velocity":39,"Duration":610653,"SoundDuration":610653,"Delta":23227360},{"NoteNumber":47,"Velocity":44,"Duration":585982,"SoundDuration":585982,"Delta":23252031},{"NoteNumber":50,"Velocity":47,"Duration":561311,"SoundDuration":561311,"Delta":23276702},{"NoteNumber":56,"Velocity":51,"Duration":755618,"SoundDuration":755618,"Delta":23301373},{"NoteNumber":62,"Velocity":57,"Duration":511969,"SoundDuration":511969,"Delta":23326044},{"NoteNumber":68,"Velocity":59,"Duration":487298,"SoundDuration":487298,"Delta":23350715},{"NoteNumber":71,"Velocity":63,"Duration":462627,"SoundDuration":462627,"Delta":23375386},{"NoteNumber":76,"Velocity":66,"Duration":437955,"SoundDuration":437955,"Delta":23400057},{"NoteNumber":57,"Velocity":73,"Duration":92307,"SoundDuration":92307,"Delta":24056991},{"NoteNumber":59,"Velocity":73,"Duration":92307,"SoundDuration":92307,"Delta":24149299},{"NoteNumber":52,"Velocity":73,"Duration":860699,"SoundDuration":860699,"Delta":24241607},{"NoteNumber":40,"Velocity":39,"Duration":614130,"SoundDuration":614130,"Delta":24926133},{"NoteNumber":47,"Velocity":44,"Duration":588962,"SoundDuration":588962,"Delta":24951300},{"NoteNumber":50,"Velocity":47,"Duration":563794,"SoundDuration":563794,"Delta":24976468},{"NoteNumber":56,"Velocity":51,"Duration":538627,"SoundDuration":538627,"Delta":25001636},{"NoteNumber":62,"Velocity":57,"Duration":513459,"SoundDuration":513459,"Delta":25026804},{"NoteNumber":68,"Velocity":59,"Duration":488291,"SoundDuration":488291,"Delta":25051971},{"NoteNumber":71,"Velocity":63,"Duration":463123,"SoundDuration":463123,"Delta":25077139},{"NoteNumber":76,"Velocity":66,"Duration":437955,"SoundDuration":437955,"Delta":25102307},{"NoteNumber":52,"Velocity":73,"Duration":209790,"SoundDuration":209790,"Delta":25759241},{"NoteNumber":54,"Velocity":73,"Duration":1217791,"SoundDuration":1217791,"Delta":25969031},{"NoteNumber":40,"Velocity":39,"Duration":625001,"SoundDuration":625001,"Delta":26663516},{"NoteNumber":47,"Velocity":44,"Duration":599316,"SoundDuration":599316,"Delta":26689201},{"NoteNumber":50,"Velocity":47,"Duration":573631,"SoundDuration":573631,"Delta":26714886},{"NoteNumber":54,"Velocity":51,"Duration":547946,"SoundDuration":547946,"Delta":26740571},{"NoteNumber":62,"Velocity":57,"Duration":522261,"SoundDuration":522261,"Delta":26766256},{"NoteNumber":66,"Velocity":59,"Duration":496576,"SoundDuration":496576,"Delta":26791941},{"NoteNumber":69,"Velocity":63,"Duration":470891,"SoundDuration":470891,"Delta":26817626},{"NoteNumber":76,"Velocity":66,"Duration":445206,"SoundDuration":445206,"Delta":26843311},{"NoteNumber":57,"Velocity":73,"Duration":101694,"SoundDuration":101694,"Delta":27186822},{"NoteNumber":56,"Velocity":73,"Duration":101694,"SoundDuration":101694,"Delta":27288517},{"NoteNumber":54,"Velocity":73,"Duration":101694,"SoundDuration":101694,"Delta":27390212},{"NoteNumber":56,"Velocity":73,"Duration":101694,"SoundDuration":101694,"Delta":27491907},{"NoteNumber":57,"Velocity":73,"Duration":101694,"SoundDuration":101694,"Delta":27593602},{"NoteNumber":56,"Velocity":73,"Duration":866884,"SoundDuration":866884,"Delta":27695297},{"NoteNumber":40,"Velocity":39,"Duration":622599,"SoundDuration":622599,"Delta":28382387},{"NoteNumber":47,"Velocity":44,"Duration":596914,"SoundDuration":596914,"Delta":28408072},{"NoteNumber":50,"Velocity":47,"Duration":571229,"SoundDuration":571229,"Delta":28433757},{"NoteNumber":56,"Velocity":51,"Duration":545544,"SoundDuration":545544,"Delta":28459442},{"NoteNumber":62,"Velocity":57,"Duration":519859,"SoundDuration":519859,"Delta":28485127},{"NoteNumber":68,"Velocity":59,"Duration":494174,"SoundDuration":494174,"Delta":28510812},{"NoteNumber":71,"Velocity":63,"Duration":468489,"SoundDuration":468489,"Delta":28536497},{"NoteNumber":76,"Velocity":66,"Duration":442804,"SoundDuration":442804,"Delta":28562181},{"NoteNumber":52,"Velocity":73,"Duration":221402,"SoundDuration":221402,"Delta":29226388},{"NoteNumber":61,"Velocity":73,"Duration":1512448,"SoundDuration":1512448,"Delta":29447790},{"NoteNumber":40,"Velocity":43,"Duration":614130,"SoundDuration":614130,"Delta":30127131},{"NoteNumber":49,"Velocity":47,"Duration":588962,"SoundDuration":588962,"Delta":30152298},{"NoteNumber":52,"Velocity":50,"Duration":563794,"SoundDuration":563794,"Delta":30177466},{"NoteNumber":57,"Velocity":54,"Duration":538627,"SoundDuration":538627,"Delta":30202634},{"NoteNumber":64,"Velocity":60,"Duration":513459,"SoundDuration":513459,"Delta":30227802},{"NoteNumber":69,"Velocity":64,"Duration":488291,"SoundDuration":488291,"Delta":30252969},{"NoteNumber":73,"Velocity":67,"Duration":463123,"SoundDuration":463123,"Delta":30278137},{"NoteNumber":81,"Velocity":70,"Duration":437955,"SoundDuration":437955,"Delta":30303305},{"NoteNumber":62,"Velocity":73,"Duration":92307,"SoundDuration":92307,"Delta":30960239},{"NoteNumber":64,"Velocity":73,"Duration":92307,"SoundDuration":92307,"Delta":31052547},{"NoteNumber":57,"Velocity":73,"Duration":873240,"SoundDuration":873240,"Delta":31144854},{"NoteNumber":40,"Velocity":43,"Duration":624465,"SoundDuration":624465,"Delta":31836434},{"NoteNumber":49,"Velocity":47,"Duration":598513,"SoundDuration":598513,"Delta":31862386},{"NoteNumber":52,"Velocity":50,"Duration":572562,"SoundDuration":572562,"Delta":31888337},{"NoteNumber":57,"Velocity":54,"Duration":546610,"SoundDuration":546610,"Delta":31914289},{"NoteNumber":64,"Velocity":60,"Duration":520659,"SoundDuration":520659,"Delta":31940240},{"NoteNumber":69,"Velocity":64,"Duration":494707,"SoundDuration":494707,"Delta":31966192},{"NoteNumber":73,"Velocity":67,"Duration":468756,"SoundDuration":468756,"Delta":31992143},{"NoteNumber":81,"Velocity":70,"Duration":442804,"SoundDuration":442804,"Delta":32018095},{"NoteNumber":57,"Velocity":75,"Duration":209790,"SoundDuration":209790,"Delta":32682302},{"NoteNumber":60,"Velocity":77,"Duration":1244023,"SoundDuration":1244023,"Delta":32892092},{"NoteNumber":40,"Velocity":43,"Duration":638715,"SoundDuration":638715,"Delta":33599095},{"NoteNumber":48,"Velocity":47,"Duration":611640,"SoundDuration":611640,"Delta":33626171},{"NoteNumber":51,"Velocity":50,"Duration":584564,"SoundDuration":584564,"Delta":33653246},{"NoteNumber":57,"Velocity":54,"Duration":557488,"SoundDuration":557488,"Delta":33680322},{"NoteNumber":66,"Velocity":60,"Duration":530412,"SoundDuration":530412,"Delta":33707398},{"NoteNumber":72,"Velocity":64,"Duration":503336,"SoundDuration":503336,"Delta":33734474},{"NoteNumber":75,"Velocity":67,"Duration":476261,"SoundDuration":476261,"Delta":33761550},{"NoteNumber":81,"Velocity":70,"Duration":449185,"SoundDuration":449185,"Delta":33788625},{"NoteNumber":63,"Velocity":73,"Duration":101694,"SoundDuration":101694,"Delta":34136116},{"NoteNumber":61,"Velocity":73,"Duration":101694,"SoundDuration":101694,"Delta":34237811},{"NoteNumber":60,"Velocity":73,"Duration":101694,"SoundDuration":101694,"Delta":34339506},{"NoteNumber":61,"Velocity":73,"Duration":108303,"SoundDuration":108303,"Delta":34441200},{"NoteNumber":63,"Velocity":73,"Duration":108303,"SoundDuration":108303,"Delta":34549504},{"NoteNumber":61,"Velocity":73,"Duration":916030,"SoundDuration":916030,"Delta":34657807},{"NoteNumber":40,"Velocity":43,"Duration":680381,"SoundDuration":680381,"Delta":35373456},{"NoteNumber":49,"Velocity":47,"Duration":651755,"SoundDuration":651755,"Delta":35402082},{"NoteNumber":52,"Velocity":50,"Duration":623129,"SoundDuration":623129,"Delta":35430708},{"NoteNumber":57,"Velocity":54,"Duration":594503,"SoundDuration":594503,"Delta":35459334},{"NoteNumber":64,"Velocity":60,"Duration":565877,"SoundDuration":565877,"Delta":35487960},{"NoteNumber":69,"Velocity":64,"Duration":537251,"SoundDuration":537251,"Delta":35516586},{"NoteNumber":73,"Velocity":67,"Duration":508625,"SoundDuration":508625,"Delta":35545212},{"NoteNumber":81,"Velocity":70,"Duration":479999,"SoundDuration":479999,"Delta":35573838},{"NoteNumber":61,"Velocity":69,"Duration":113207,"SoundDuration":113207,"Delta":36223649},{"NoteNumber":39,"Velocity":48,"Duration":2924702,"SoundDuration":2924702,"Delta":36336857},{"NoteNumber":49,"Velocity":49,"Duration":2896400,"SoundDuration":2896400,"Delta":36365159},{"NoteNumber":54,"Velocity":51,"Duration":2868098,"SoundDuration":2868098,"Delta":36393460},{"NoteNumber":57,"Velocity":59,"Duration":1568854,"SoundDuration":1568854,"Delta":36421762},{"NoteNumber":61,"Velocity":63,"Duration":1568039,"SoundDuration":1568039,"Delta":36450064},{"NoteNumber":66,"Velocity":64,"Duration":1526648,"SoundDuration":1526648,"Delta":36478366},{"NoteNumber":69,"Velocity":77,"Duration":1184210,"SoundDuration":1184210,"Delta":36506668},{"NoteNumber":71,"Velocity":69,"Duration":157068,"SoundDuration":157068,"Delta":37690879},{"NoteNumber":73,"Velocity":69,"Duration":157067,"SoundDuration":157067,"Delta":37847947},{"NoteNumber":73,"Velocity":73,"Duration":157068,"SoundDuration":157068,"Delta":38005015},{"NoteNumber":66,"Velocity":68,"Duration":471204,"SoundDuration":471204,"Delta":38162083},{"NoteNumber":66,"Velocity":63,"Duration":52356,"SoundDuration":52356,"Delta":39183025},{"NoteNumber":66,"Velocity":78,"Duration":867469,"SoundDuration":867469,"Delta":39261559},{"NoteNumber":68,"Velocity":65,"Duration":125223,"SoundDuration":125223,"Delta":40129028},{"NoteNumber":69,"Velocity":65,"Duration":130429,"SoundDuration":130429,"Delta":40236363},{"NoteNumber":61,"Velocity":70,"Duration":415704,"SoundDuration":415704,"Delta":40343697},{"NoteNumber":63,"Velocity":64,"Duration":98522,"SoundDuration":98522,"Delta":40759402},{"NoteNumber":64,"Velocity":64,"Duration":96064,"SoundDuration":96064,"Delta":40833294},{"NoteNumber":57,"Velocity":70,"Duration":399113,"SoundDuration":399113,"Delta":40907185},{"NoteNumber":59,"Velocity":63,"Duration":93676,"SoundDuration":93676,"Delta":41306299},{"NoteNumber":61,"Velocity":63,"Duration":91579,"SoundDuration":91579,"Delta":41376556},{"NoteNumber":54,"Velocity":70,"Duration":383795,"SoundDuration":383795,"Delta":41446814},{"NoteNumber":56,"Velocity":65,"Duration":89285,"SoundDuration":89285,"Delta":41830609},{"NoteNumber":57,"Velocity":66,"Duration":87498,"SoundDuration":87498,"Delta":41897573},{"NoteNumber":49,"Velocity":70,"Duration":369609,"SoundDuration":369609,"Delta":41964538},{"NoteNumber":51,"Velocity":63,"Duration":86393,"SoundDuration":86393,"Delta":42334147},{"NoteNumber":52,"Velocity":63,"Duration":85078,"SoundDuration":85078,"Delta":42398942},{"NoteNumber":45,"Velocity":70,"Duration":365111,"SoundDuration":365111,"Delta":42463737},{"NoteNumber":47,"Velocity":66,"Duration":84210,"SoundDuration":84210,"Delta":42828848},{"NoteNumber":49,"Velocity":66,"Duration":83691,"SoundDuration":83691,"Delta":42892006},{"NoteNumber":42,"Velocity":70,"Duration":369609,"SoundDuration":369609,"Delta":42955164},{"NoteNumber":44,"Velocity":62,"Duration":86393,"SoundDuration":86393,"Delta":43324774},{"NoteNumber":45,"Velocity":62,"Duration":87573,"SoundDuration":87573,"Delta":43389569},{"NoteNumber":39,"Velocity":68,"Duration":273348,"SoundDuration":273348,"Delta":43454364},{"NoteNumber":40,"Velocity":55,"Duration":70235,"SoundDuration":70235,"Delta":43727712},{"NoteNumber":39,"Velocity":49,"Duration":72394,"SoundDuration":72394,"Delta":43797948},{"NoteNumber":40,"Velocity":55,"Duration":75566,"SoundDuration":75566,"Delta":43870342},{"NoteNumber":39,"Velocity":48,"Duration":74674,"SoundDuration":74674,"Delta":43945909},{"NoteNumber":40,"Velocity":55,"Duration":71567,"SoundDuration":71567,"Delta":44020584},{"NoteNumber":39,"Velocity":50,"Duration":72505,"SoundDuration":72505,"Delta":44092151},{"NoteNumber":40,"Velocity":55,"Duration":69390,"SoundDuration":69390,"Delta":44164657},{"NoteNumber":39,"Velocity":51,"Duration":68249,"SoundDuration":68249,"Delta":44234047},{"NoteNumber":40,"Velocity":55,"Duration":69775,"SoundDuration":69775,"Delta":44302296},{"NoteNumber":39,"Velocity":50,"Duration":67598,"SoundDuration":67598,"Delta":44372072},{"NoteNumber":40,"Velocity":55,"Duration":68273,"SoundDuration":68273,"Delta":44439671},{"NoteNumber":39,"Velocity":52,"Duration":68734,"SoundDuration":68734,"Delta":44507944},{"NoteNumber":40,"Velocity":55,"Duration":65735,"SoundDuration":65735,"Delta":44576678},{"NoteNumber":39,"Velocity":50,"Duration":67014,"SoundDuration":67014,"Delta":44642414},{"NoteNumber":40,"Velocity":55,"Duration":69131,"SoundDuration":69131,"Delta":44709429},{"NoteNumber":39,"Velocity":51,"Duration":66167,"SoundDuration":66167,"Delta":44778560},{"NoteNumber":40,"Velocity":55,"Duration":67433,"SoundDuration":67433,"Delta":44844727},{"NoteNumber":39,"Velocity":50,"Duration":68999,"SoundDuration":68999,"Delta":44912160},{"NoteNumber":40,"Velocity":55,"Duration":66878,"SoundDuration":66878,"Delta":44981160},{"NoteNumber":39,"Velocity":52,"Duration":65818,"SoundDuration":65818,"Delta":45048038},{"NoteNumber":40,"Velocity":55,"Duration":65742,"SoundDuration":65742,"Delta":45113857},{"NoteNumber":39,"Velocity":50,"Duration":67508,"SoundDuration":67508,"Delta":45179600},{"NoteNumber":40,"Velocity":55,"Duration":65475,"SoundDuration":65475,"Delta":45247108},{"NoteNumber":39,"Velocity":51,"Duration":64794,"SoundDuration":64794,"Delta":45312584},{"NoteNumber":40,"Velocity":55,"Duration":68386,"SoundDuration":68386,"Delta":45377379},{"NoteNumber":39,"Velocity":50,"Duration":67334,"SoundDuration":67334,"Delta":45445765},{"NoteNumber":40,"Velocity":55,"Duration":68696,"SoundDuration":68696,"Delta":45513099},{"NoteNumber":39,"Velocity":52,"Duration":70862,"SoundDuration":70862,"Delta":45581796},{"NoteNumber":38,"Velocity":55,"Duration":95744,"SoundDuration":95744,"Delta":45652658},{"NoteNumber":39,"Velocity":52,"Duration":95744,"SoundDuration":95744,"Delta":45732446},{"NoteNumber":40,"Velocity":55,"Duration":95744,"SoundDuration":95744,"Delta":45812233},{"NoteNumber":39,"Velocity":50,"Duration":95744,"SoundDuration":95744,"Delta":45892020},{"NoteNumber":37,"Velocity":51,"Duration":95744,"SoundDuration":95744,"Delta":45971807},{"NoteNumber":35,"Velocity":53,"Duration":95744,"SoundDuration":95744,"Delta":46051595},{"NoteNumber":33,"Velocity":54,"Duration":95744,"SoundDuration":95744,"Delta":46131382},{"NoteNumber":32,"Velocity":56,"Duration":95744,"SoundDuration":95744,"Delta":46211169},{"NoteNumber":33,"Velocity":57,"Duration":96547,"SoundDuration":96547,"Delta":46290956},{"NoteNumber":29,"Velocity":59,"Duration":251396,"SoundDuration":251396,"Delta":46370744},{"NoteNumber":30,"Velocity":51,"Duration":116407,"SoundDuration":116407,"Delta":46622140},{"NoteNumber":32,"Velocity":51,"Duration":125776,"SoundDuration":125776,"Delta":46716809},{"NoteNumber":33,"Velocity":51,"Duration":124223,"SoundDuration":124223,"Delta":46822399},{"NoteNumber":35,"Velocity":52,"Duration":123449,"SoundDuration":123449,"Delta":46926436},{"NoteNumber":37,"Velocity":52,"Duration":102401,"SoundDuration":102401,"Delta":47029886},{"NoteNumber":39,"Velocity":54,"Duration":121908,"SoundDuration":121908,"Delta":47132287},{"NoteNumber":40,"Velocity":54,"Duration":120512,"SoundDuration":120512,"Delta":47233238},{"NoteNumber":42,"Velocity":54,"Duration":117764,"SoundDuration":117764,"Delta":47334515},{"NoteNumber":44,"Velocity":55,"Duration":116798,"SoundDuration":116798,"Delta":47433162},{"NoteNumber":45,"Velocity":55,"Duration":117292,"SoundDuration":117292,"Delta":47531010},{"NoteNumber":47,"Velocity":56,"Duration":116343,"SoundDuration":116343,"Delta":47628070},{"NoteNumber":49,"Velocity":56,"Duration":116045,"SoundDuration":116045,"Delta":47724357},{"NoteNumber":51,"Velocity":57,"Duration":114613,"SoundDuration":114613,"Delta":47821778},{"NoteNumber":52,"Velocity":57,"Duration":114613,"SoundDuration":114613,"Delta":47917767},{"NoteNumber":48,"Velocity":64,"Duration":116045,"SoundDuration":116045,"Delta":48013755},{"NoteNumber":51,"Velocity":60,"Duration":116045,"SoundDuration":116045,"Delta":48109744},{"NoteNumber":49,"Velocity":65,"Duration":116045,"SoundDuration":116045,"Delta":48205732},{"NoteNumber":47,"Velocity":67,"Duration":114898,"SoundDuration":114898,"Delta":48303154},{"NoteNumber":45,"Velocity":72,"Duration":115986,"SoundDuration":115986,"Delta":48399266},{"NoteNumber":44,"Velocity":75,"Duration":118718,"SoundDuration":118718,"Delta":48496302},{"NoteNumber":45,"Velocity":78,"Duration":119983,"SoundDuration":119983,"Delta":48594433},{"NoteNumber":41,"Velocity":81,"Duration":120060,"SoundDuration":120060,"Delta":48693525},{"NoteNumber":42,"Velocity":84,"Duration":121648,"SoundDuration":121648,"Delta":48795458},{"NoteNumber":43,"Velocity":87,"Duration":127336,"SoundDuration":127336,"Delta":48895410},{"NoteNumber":44,"Velocity":89,"Duration":106045,"SoundDuration":106045,"Delta":49003123},{"NoteNumber":44,"Velocity":93,"Duration":329670,"SoundDuration":329670,"Delta":49113289},{"NoteNumber":32,"Velocity":92,"Duration":329670,"SoundDuration":329670,"Delta":49772630},{"NoteNumber":85,"Velocity":73,"Duration":93555,"SoundDuration":93555,"Delta":50267136},{"NoteNumber":88,"Velocity":73,"Duration":93555,"SoundDuration":93555,"Delta":50267136},{"NoteNumber":76,"Velocity":61,"Duration":93555,"SoundDuration":93555,"Delta":50267136},{"NoteNumber":64,"Velocity":50,"Duration":93555,"SoundDuration":93555,"Delta":50267136},{"NoteNumber":73,"Velocity":50,"Duration":93555,"SoundDuration":93555,"Delta":50267136},{"NoteNumber":61,"Velocity":42,"Duration":93555,"SoundDuration":93555,"Delta":50267136},{"NoteNumber":88,"Velocity":83,"Duration":1389473,"SoundDuration":1389473,"Delta":50391876},{"NoteNumber":85,"Velocity":83,"Duration":1389473,"SoundDuration":1389473,"Delta":50391876},{"NoteNumber":76,"Velocity":70,"Duration":1389473,"SoundDuration":1389473,"Delta":50391876},{"NoteNumber":73,"Velocity":58,"Duration":1389473,"SoundDuration":1389473,"Delta":50391876},{"NoteNumber":61,"Velocity":49,"Duration":1389473,"SoundDuration":1389473,"Delta":50391876},{"NoteNumber":64,"Velocity":49,"Duration":1389473,"SoundDuration":1389473,"Delta":50391876},{"NoteNumber":87,"Velocity":73,"Duration":94736,"SoundDuration":94736,"Delta":51781349},{"NoteNumber":83,"Velocity":73,"Duration":94736,"SoundDuration":94736,"Delta":51781349},{"NoteNumber":75,"Velocity":61,"Duration":94736,"SoundDuration":94736,"Delta":51781349},{"NoteNumber":71,"Velocity":50,"Duration":94736,"SoundDuration":94736,"Delta":51781349},{"NoteNumber":59,"Velocity":42,"Duration":94736,"SoundDuration":94736,"Delta":51781349},{"NoteNumber":63,"Velocity":42,"Duration":94736,"SoundDuration":94736,"Delta":51781349},{"NoteNumber":87,"Velocity":83,"Duration":353360,"SoundDuration":353360,"Delta":51906975},{"NoteNumber":83,"Velocity":83,"Duration":353360,"SoundDuration":353360,"Delta":51906975},{"NoteNumber":75,"Velocity":70,"Duration":353360,"SoundDuration":353360,"Delta":51906975},{"NoteNumber":71,"Velocity":58,"Duration":353360,"SoundDuration":353360,"Delta":51906975},{"NoteNumber":59,"Velocity":49,"Duration":353360,"SoundDuration":353360,"Delta":51906975},{"NoteNumber":63,"Velocity":49,"Duration":353360,"SoundDuration":353360,"Delta":51906975},{"NoteNumber":85,"Velocity":73,"Duration":87097,"SoundDuration":87097,"Delta":52260336},{"NoteNumber":81,"Velocity":73,"Duration":87097,"SoundDuration":87097,"Delta":52260336},{"NoteNumber":73,"Velocity":61,"Duration":87097,"SoundDuration":87097,"Delta":52260336},{"NoteNumber":69,"Velocity":50,"Duration":87097,"SoundDuration":87097,"Delta":52260336},{"NoteNumber":57,"Velocity":42,"Duration":87097,"SoundDuration":87097,"Delta":52260336},{"NoteNumber":61,"Velocity":42,"Duration":87097,"SoundDuration":87097,"Delta":52260336},{"NoteNumber":81,"Velocity":80,"Duration":342979,"SoundDuration":342979,"Delta":52376391},{"NoteNumber":85,"Velocity":80,"Duration":342979,"SoundDuration":342979,"Delta":52376391},{"NoteNumber":73,"Velocity":68,"Duration":342979,"SoundDuration":342979,"Delta":52376391},{"NoteNumber":69,"Velocity":56,"Duration":342979,"SoundDuration":342979,"Delta":52376391},{"NoteNumber":57,"Velocity":47,"Duration":342979,"SoundDuration":342979,"Delta":52376391},{"NoteNumber":61,"Velocity":47,"Duration":342979,"SoundDuration":342979,"Delta":52376391},{"NoteNumber":81,"Velocity":73,"Duration":84586,"SoundDuration":84586,"Delta":52719371},{"NoteNumber":78,"Velocity":73,"Duration":84586,"SoundDuration":84586,"Delta":52719371},{"NoteNumber":69,"Velocity":61,"Duration":84586,"SoundDuration":84586,"Delta":52719371},{"NoteNumber":66,"Velocity":50,"Duration":84586,"SoundDuration":84586,"Delta":52719371},{"NoteNumber":54,"Velocity":42,"Duration":84586,"SoundDuration":84586,"Delta":52719371},{"NoteNumber":57,"Velocity":42,"Duration":84586,"SoundDuration":84586,"Delta":52719371},{"NoteNumber":81,"Velocity":80,"Duration":331522,"SoundDuration":331522,"Delta":52831995},{"NoteNumber":78,"Velocity":80,"Duration":331522,"SoundDuration":331522,"Delta":52831995},{"NoteNumber":69,"Velocity":68,"Duration":331522,"SoundDuration":331522,"Delta":52831995},{"NoteNumber":66,"Velocity":56,"Duration":331522,"SoundDuration":331522,"Delta":52831995},{"NoteNumber":54,"Velocity":47,"Duration":331522,"SoundDuration":331522,"Delta":52831995},{"NoteNumber":57,"Velocity":47,"Duration":331522,"SoundDuration":331522,"Delta":52831995},{"NoteNumber":80,"Velocity":75,"Duration":81179,"SoundDuration":81179,"Delta":53163517},{"NoteNumber":76,"Velocity":75,"Duration":81179,"SoundDuration":81179,"Delta":53163517},{"NoteNumber":68,"Velocity":63,"Duration":81179,"SoundDuration":81179,"Delta":53163517},{"NoteNumber":64,"Velocity":52,"Duration":81179,"SoundDuration":81179,"Delta":53163517},{"NoteNumber":52,"Velocity":44,"Duration":81179,"SoundDuration":81179,"Delta":53163517},{"NoteNumber":56,"Velocity":44,"Duration":81179,"SoundDuration":81179,"Delta":53163517},{"NoteNumber":80,"Velocity":83,"Duration":320523,"SoundDuration":320523,"Delta":53271627},{"NoteNumber":76,"Velocity":83,"Duration":320523,"SoundDuration":320523,"Delta":53271627},{"NoteNumber":68,"Velocity":70,"Duration":320523,"SoundDuration":320523,"Delta":53271627},{"NoteNumber":64,"Velocity":58,"Duration":320523,"SoundDuration":320523,"Delta":53271627},{"NoteNumber":52,"Velocity":49,"Duration":320523,"SoundDuration":320523,"Delta":53271627},{"NoteNumber":56,"Velocity":49,"Duration":320523,"SoundDuration":320523,"Delta":53271627},{"NoteNumber":76,"Velocity":73,"Duration":80071,"SoundDuration":80071,"Delta":53592150},{"NoteNumber":73,"Velocity":73,"Duration":80071,"SoundDuration":80071,"Delta":53592150},{"NoteNumber":64,"Velocity":61,"Duration":80071,"SoundDuration":80071,"Delta":53592150},{"NoteNumber":61,"Velocity":50,"Duration":80071,"SoundDuration":80071,"Delta":53592150},{"NoteNumber":49,"Velocity":42,"Duration":80071,"SoundDuration":80071,"Delta":53592150},{"NoteNumber":52,"Velocity":42,"Duration":80071,"SoundDuration":80071,"Delta":53592150},{"NoteNumber":73,"Velocity":80,"Duration":319198,"SoundDuration":319198,"Delta":53698911},{"NoteNumber":76,"Velocity":80,"Duration":319198,"SoundDuration":319198,"Delta":53698911},{"NoteNumber":64,"Velocity":68,"Duration":319198,"SoundDuration":319198,"Delta":53698911},{"NoteNumber":61,"Velocity":56,"Duration":319198,"SoundDuration":319198,"Delta":53698911},{"NoteNumber":49,"Velocity":47,"Duration":319198,"SoundDuration":319198,"Delta":53698911},{"NoteNumber":52,"Velocity":47,"Duration":319198,"SoundDuration":319198,"Delta":53698911},{"NoteNumber":75,"Velocity":73,"Duration":79552,"SoundDuration":79552,"Delta":54018110},{"NoteNumber":71,"Velocity":73,"Duration":79552,"SoundDuration":79552,"Delta":54018110},{"NoteNumber":63,"Velocity":61,"Duration":79552,"SoundDuration":79552,"Delta":54018110},{"NoteNumber":59,"Velocity":50,"Duration":79552,"SoundDuration":79552,"Delta":54018110},{"NoteNumber":47,"Velocity":42,"Duration":79552,"SoundDuration":79552,"Delta":54018110},{"NoteNumber":51,"Velocity":42,"Duration":79552,"SoundDuration":79552,"Delta":54018110},{"NoteNumber":75,"Velocity":81,"Duration":316901,"SoundDuration":316901,"Delta":54124259},{"NoteNumber":71,"Velocity":81,"Duration":316901,"SoundDuration":316901,"Delta":54124259},{"NoteNumber":63,"Velocity":69,"Duration":316901,"SoundDuration":316901,"Delta":54124259},{"NoteNumber":59,"Velocity":57,"Duration":316901,"SoundDuration":316901,"Delta":54124259},{"NoteNumber":47,"Velocity":47,"Duration":316901,"SoundDuration":316901,"Delta":54124259},{"NoteNumber":51,"Velocity":47,"Duration":316901,"SoundDuration":316901,"Delta":54124259},{"NoteNumber":73,"Velocity":78,"Duration":79225,"SoundDuration":79225,"Delta":54441160},{"NoteNumber":69,"Velocity":78,"Duration":79225,"SoundDuration":79225,"Delta":54441160},{"NoteNumber":61,"Velocity":66,"Duration":79225,"SoundDuration":79225,"Delta":54441160},{"NoteNumber":57,"Velocity":53,"Duration":79225,"SoundDuration":79225,"Delta":54441160},{"NoteNumber":45,"Velocity":45,"Duration":79225,"SoundDuration":79225,"Delta":54441160},{"NoteNumber":49,"Velocity":45,"Duration":79225,"SoundDuration":79225,"Delta":54441160},{"NoteNumber":73,"Velocity":82,"Duration":316901,"SoundDuration":316901,"Delta":54546794},{"NoteNumber":69,"Velocity":82,"Duration":316901,"SoundDuration":316901,"Delta":54546794},{"NoteNumber":61,"Velocity":70,"Duration":316901,"SoundDuration":316901,"Delta":54546794},{"NoteNumber":57,"Velocity":58,"Duration":316901,"SoundDuration":316901,"Delta":54546794},{"NoteNumber":45,"Velocity":48,"Duration":316901,"SoundDuration":316901,"Delta":54546794},{"NoteNumber":49,"Velocity":48,"Duration":316901,"SoundDuration":316901,"Delta":54546794},{"NoteNumber":69,"Velocity":80,"Duration":79225,"SoundDuration":79225,"Delta":54863695},{"NoteNumber":66,"Velocity":80,"Duration":79225,"SoundDuration":79225,"Delta":54863695},{"NoteNumber":57,"Velocity":67,"Duration":79225,"SoundDuration":79225,"Delta":54863695},{"NoteNumber":54,"Velocity":55,"Duration":79225,"SoundDuration":79225,"Delta":54863695},{"NoteNumber":42,"Velocity":46,"Duration":79225,"SoundDuration":79225,"Delta":54863695},{"NoteNumber":45,"Velocity":46,"Duration":79225,"SoundDuration":79225,"Delta":54863695},{"NoteNumber":69,"Velocity":85,"Duration":316901,"SoundDuration":316901,"Delta":54969329},{"NoteNumber":66,"Velocity":85,"Duration":316901,"SoundDuration":316901,"Delta":54969329},{"NoteNumber":57,"Velocity":72,"Duration":316901,"SoundDuration":316901,"Delta":54969329},{"NoteNumber":54,"Velocity":59,"Duration":316901,"SoundDuration":316901,"Delta":54969329},{"NoteNumber":42,"Velocity":50,"Duration":316901,"SoundDuration":316901,"Delta":54969329},{"NoteNumber":45,"Velocity":50,"Duration":316901,"SoundDuration":316901,"Delta":54969329},{"NoteNumber":68,"Velocity":81,"Duration":79225,"SoundDuration":79225,"Delta":55286230},{"NoteNumber":64,"Velocity":81,"Duration":79225,"SoundDuration":79225,"Delta":55286230},{"NoteNumber":56,"Velocity":68,"Duration":79225,"SoundDuration":79225,"Delta":55286230},{"NoteNumber":52,"Velocity":56,"Duration":79225,"SoundDuration":79225,"Delta":55286230},{"NoteNumber":40,"Velocity":47,"Duration":79225,"SoundDuration":79225,"Delta":55286230},{"NoteNumber":44,"Velocity":47,"Duration":79225,"SoundDuration":79225,"Delta":55286230},{"NoteNumber":68,"Velocity":86,"Duration":316901,"SoundDuration":316901,"Delta":55391864},{"NoteNumber":64,"Velocity":86,"Duration":316901,"SoundDuration":316901,"Delta":55391864},{"NoteNumber":56,"Velocity":73,"Duration":316901,"SoundDuration":316901,"Delta":55391864},{"NoteNumber":52,"Velocity":60,"Duration":316901,"SoundDuration":316901,"Delta":55391864},{"NoteNumber":40,"Velocity":50,"Duration":316901,"SoundDuration":316901,"Delta":55391864},{"NoteNumber":44,"Velocity":50,"Duration":316901,"SoundDuration":316901,"Delta":55391864},{"NoteNumber":64,"Velocity":83,"Duration":79040,"SoundDuration":79040,"Delta":55708765},{"NoteNumber":61,"Velocity":83,"Duration":79040,"SoundDuration":79040,"Delta":55708765},{"NoteNumber":52,"Velocity":70,"Duration":79040,"SoundDuration":79040,"Delta":55708765},{"NoteNumber":49,"Velocity":58,"Duration":79040,"SoundDuration":79040,"Delta":55708765},{"NoteNumber":37,"Velocity":48,"Duration":79040,"SoundDuration":79040,"Delta":55708765},{"NoteNumber":40,"Velocity":48,"Duration":79040,"SoundDuration":79040,"Delta":55708765},{"NoteNumber":64,"Velocity":89,"Duration":315236,"SoundDuration":315236,"Delta":55814075},{"NoteNumber":61,"Velocity":89,"Duration":315236,"SoundDuration":315236,"Delta":55814075},{"NoteNumber":52,"Velocity":74,"Duration":315236,"SoundDuration":315236,"Delta":55814075},{"NoteNumber":49,"Velocity":61,"Duration":315236,"SoundDuration":315236,"Delta":55814075},{"NoteNumber":37,"Velocity":51,"Duration":315236,"SoundDuration":315236,"Delta":55814075},{"NoteNumber":40,"Velocity":51,"Duration":315236,"SoundDuration":315236,"Delta":55814075},{"NoteNumber":63,"Velocity":84,"Duration":78809,"SoundDuration":78809,"Delta":56129311},{"NoteNumber":59,"Velocity":84,"Duration":78809,"SoundDuration":78809,"Delta":56129311},{"NoteNumber":51,"Velocity":71,"Duration":78809,"SoundDuration":78809,"Delta":56129311},{"NoteNumber":47,"Velocity":59,"Duration":78809,"SoundDuration":78809,"Delta":56129311},{"NoteNumber":35,"Velocity":49,"Duration":78809,"SoundDuration":78809,"Delta":56129311},{"NoteNumber":39,"Velocity":49,"Duration":78809,"SoundDuration":78809,"Delta":56129311},{"NoteNumber":63,"Velocity":91,"Duration":328513,"SoundDuration":328513,"Delta":56234390},{"NoteNumber":59,"Velocity":91,"Duration":328513,"SoundDuration":328513,"Delta":56234390},{"NoteNumber":51,"Velocity":77,"Duration":328513,"SoundDuration":328513,"Delta":56234390},{"NoteNumber":47,"Velocity":63,"Duration":328513,"SoundDuration":328513,"Delta":56234390},{"NoteNumber":35,"Velocity":53,"Duration":328513,"SoundDuration":328513,"Delta":56234390},{"NoteNumber":39,"Velocity":53,"Duration":328513,"SoundDuration":328513,"Delta":56234390},{"NoteNumber":61,"Velocity":86,"Duration":86762,"SoundDuration":86762,"Delta":56562903},{"NoteNumber":57,"Velocity":86,"Duration":86762,"SoundDuration":86762,"Delta":56562903},{"NoteNumber":49,"Velocity":72,"Duration":86762,"SoundDuration":86762,"Delta":56562903},{"NoteNumber":45,"Velocity":60,"Duration":86762,"SoundDuration":86762,"Delta":56562903},{"NoteNumber":33,"Velocity":50,"Duration":86762,"SoundDuration":86762,"Delta":56562903},{"NoteNumber":40,"Velocity":50,"Duration":86762,"SoundDuration":86762,"Delta":56562903},{"NoteNumber":61,"Velocity":91,"Duration":949972,"SoundDuration":949972,"Delta":56678512},{"NoteNumber":49,"Velocity":78,"Duration":949972,"SoundDuration":949972,"Delta":56678512},{"NoteNumber":57,"Velocity":78,"Duration":949972,"SoundDuration":949972,"Delta":56678512},{"NoteNumber":45,"Velocity":81,"Duration":468494,"SoundDuration":468494,"Delta":56678512},{"NoteNumber":33,"Velocity":68,"Duration":468494,"SoundDuration":468494,"Delta":56678512},{"NoteNumber":40,"Velocity":68,"Duration":468494,"SoundDuration":468494,"Delta":56678512},{"NoteNumber":43,"Velocity":80,"Duration":481477,"SoundDuration":481477,"Delta":57147007},{"NoteNumber":31,"Velocity":68,"Duration":481477,"SoundDuration":481477,"Delta":57147007},{"NoteNumber":62,"Velocity":86,"Duration":1010064,"SoundDuration":1010064,"Delta":57628484},{"NoteNumber":50,"Velocity":72,"Duration":1010064,"SoundDuration":1010064,"Delta":57628484},{"NoteNumber":53,"Velocity":72,"Duration":1010064,"SoundDuration":1010064,"Delta":57628484},{"NoteNumber":57,"Velocity":72,"Duration":1010064,"SoundDuration":1010064,"Delta":57628484},{"NoteNumber":41,"Velocity":84,"Duration":504801,"SoundDuration":504801,"Delta":57628484},{"NoteNumber":29,"Velocity":71,"Duration":504801,"SoundDuration":504801,"Delta":57628484},{"NoteNumber":40,"Velocity":84,"Duration":505262,"SoundDuration":505262,"Delta":58133286},{"NoteNumber":28,"Velocity":71,"Duration":505262,"SoundDuration":505262,"Delta":58133286},{"NoteNumber":66,"Velocity":95,"Duration":1049830,"SoundDuration":1049830,"Delta":58638549},{"NoteNumber":54,"Velocity":80,"Duration":1049830,"SoundDuration":1049830,"Delta":58638549},{"NoteNumber":57,"Velocity":80,"Duration":1049830,"SoundDuration":1049830,"Delta":58638549},{"NoteNumber":62,"Velocity":80,"Duration":1049830,"SoundDuration":1049830,"Delta":58638549},{"NoteNumber":38,"Velocity":83,"Duration":524666,"SoundDuration":524666,"Delta":58638549},{"NoteNumber":26,"Velocity":70,"Duration":524666,"SoundDuration":524666,"Delta":58638549},{"NoteNumber":37,"Velocity":80,"Duration":525163,"SoundDuration":525163,"Delta":59163216},{"NoteNumber":25,"Velocity":68,"Duration":525163,"SoundDuration":525163,"Delta":59163216},{"NoteNumber":68,"Velocity":98,"Duration":3994493,"SoundDuration":3994493,"Delta":59688380},{"NoteNumber":54,"Velocity":63,"Duration":3994493,"SoundDuration":3994493,"Delta":59688380},{"NoteNumber":56,"Velocity":70,"Duration":3994493,"SoundDuration":3994493,"Delta":59688380},{"NoteNumber":60,"Velocity":70,"Duration":3994493,"SoundDuration":3994493,"Delta":59688380},{"NoteNumber":63,"Velocity":78,"Duration":3994493,"SoundDuration":3994493,"Delta":59688380},{"NoteNumber":36,"Velocity":85,"Duration":398671,"SoundDuration":398671,"Delta":59688380},{"NoteNumber":24,"Velocity":72,"Duration":398671,"SoundDuration":398671,"Delta":59688380},{"NoteNumber":45,"Velocity":81,"Duration":1639301,"SoundDuration":1639301,"Delta":60087051},{"NoteNumber":33,"Velocity":69,"Duration":1639301,"SoundDuration":1639301,"Delta":60087051},{"NoteNumber":44,"Velocity":79,"Duration":1304347,"SoundDuration":1304347,"Delta":61726352},{"NoteNumber":32,"Velocity":67,"Duration":1304347,"SoundDuration":1304347,"Delta":61726352},{"NoteNumber":61,"Velocity":65,"Duration":69124,"SoundDuration":69124,"Delta":63728956},{"NoteNumber":61,"Velocity":72,"Duration":954545,"SoundDuration":954545,"Delta":63821122},{"NoteNumber":56,"Velocity":61,"Duration":954545,"SoundDuration":954545,"Delta":63821122},{"NoteNumber":52,"Velocity":61,"Duration":954545,"SoundDuration":954545,"Delta":63821122},{"NoteNumber":49,"Velocity":63,"Duration":1090908,"SoundDuration":1090908,"Delta":63821122},{"NoteNumber":37,"Velocity":53,"Duration":1090908,"SoundDuration":1090908,"Delta":63821122},{"NoteNumber":44,"Velocity":53,"Duration":1090908,"SoundDuration":1090908,"Delta":63821122},{"NoteNumber":66,"Velocity":70,"Duration":68181,"SoundDuration":68181,"Delta":64821122},{"NoteNumber":66,"Velocity":71,"Duration":954545,"SoundDuration":954545,"Delta":64912031},{"NoteNumber":57,"Velocity":60,"Duration":954545,"SoundDuration":954545,"Delta":64912031},{"NoteNumber":54,"Velocity":60,"Duration":954545,"SoundDuration":954545,"Delta":64912031},{"NoteNumber":51,"Velocity":62,"Duration":1090909,"SoundDuration":1090909,"Delta":64912031},{"NoteNumber":36,"Velocity":52,"Duration":1090909,"SoundDuration":1090909,"Delta":64912031},{"NoteNumber":45,"Velocity":52,"Duration":1090909,"SoundDuration":1090909,"Delta":64912031},{"NoteNumber":64,"Velocity":69,"Duration":68181,"SoundDuration":68181,"Delta":65912031},{"NoteNumber":64,"Velocity":70,"Duration":432692,"SoundDuration":432692,"Delta":66002940},{"NoteNumber":56,"Velocity":59,"Duration":432692,"SoundDuration":432692,"Delta":66002940},{"NoteNumber":52,"Velocity":59,"Duration":432692,"SoundDuration":432692,"Delta":66002940},{"NoteNumber":49,"Velocity":59,"Duration":576922,"SoundDuration":576922,"Delta":66002940},{"NoteNumber":37,"Velocity":50,"Duration":576922,"SoundDuration":576922,"Delta":66002940},{"NoteNumber":44,"Velocity":50,"Duration":576922,"SoundDuration":576922,"Delta":66002940},{"NoteNumber":63,"Velocity":67,"Duration":72115,"SoundDuration":72115,"Delta":66483710},{"NoteNumber":63,"Velocity":70,"Duration":432692,"SoundDuration":432692,"Delta":66579863},{"NoteNumber":54,"Velocity":59,"Duration":432692,"SoundDuration":432692,"Delta":66579863},{"NoteNumber":51,"Velocity":59,"Duration":432692,"SoundDuration":432692,"Delta":66579863},{"NoteNumber":45,"Velocity":52,"Duration":576923,"SoundDuration":576923,"Delta":66579863},{"NoteNumber":30,"Velocity":44,"Duration":576923,"SoundDuration":576923,"Delta":66579863},{"NoteNumber":42,"Velocity":44,"Duration":576923,"SoundDuration":576923,"Delta":66579863},{"NoteNumber":61,"Velocity":68,"Duration":72115,"SoundDuration":72115,"Delta":67060633},{"NoteNumber":61,"Velocity":71,"Duration":414746,"SoundDuration":414746,"Delta":67156786},{"NoteNumber":52,"Velocity":60,"Duration":414746,"SoundDuration":414746,"Delta":67156786},{"NoteNumber":49,"Velocity":60,"Duration":414746,"SoundDuration":414746,"Delta":67156786},{"NoteNumber":44,"Velocity":60,"Duration":552995,"SoundDuration":552995,"Delta":67156786},{"NoteNumber":32,"Velocity":51,"Duration":552995,"SoundDuration":552995,"Delta":67156786},{"NoteNumber":40,"Velocity":51,"Duration":552995,"SoundDuration":552995,"Delta":67156786},{"NoteNumber":60,"Velocity":68,"Duration":69124,"SoundDuration":69124,"Delta":67617616},{"NoteNumber":60,"Velocity":70,"Duration":445544,"SoundDuration":445544,"Delta":67709782},{"NoteNumber":51,"Velocity":59,"Duration":445544,"SoundDuration":445544,"Delta":67709782},{"NoteNumber":48,"Velocity":59,"Duration":445544,"SoundDuration":445544,"Delta":67709782},{"NoteNumber":44,"Velocity":57,"Duration":594059,"SoundDuration":594059,"Delta":67709782},{"NoteNumber":42,"Velocity":48,"Duration":594059,"SoundDuration":594059,"Delta":67709782},{"NoteNumber":39,"Velocity":48,"Duration":594059,"SoundDuration":594059,"Delta":67709782},{"NoteNumber":32,"Velocity":48,"Duration":594059,"SoundDuration":594059,"Delta":67709782},{"NoteNumber":61,"Velocity":70,"Duration":74257,"SoundDuration":74257,"Delta":68204831},{"NoteNumber":61,"Velocity":71,"Duration":397351,"SoundDuration":397351,"Delta":68303841},{"NoteNumber":52,"Velocity":60,"Duration":397351,"SoundDuration":397351,"Delta":68303841},{"NoteNumber":49,"Velocity":60,"Duration":397351,"SoundDuration":397351,"Delta":68303841},{"NoteNumber":37,"Velocity":52,"Duration":397351,"SoundDuration":397351,"Delta":68303841},{"NoteNumber":40,"Velocity":52,"Duration":397351,"SoundDuration":397351,"Delta":68303841},{"NoteNumber":44,"Velocity":57,"Duration":397351,"SoundDuration":397351,"Delta":68303841},{"NoteNumber":49,"Velocity":70,"Duration":198675,"SoundDuration":198675,"Delta":68899868},{"NoteNumber":45,"Velocity":66,"Duration":1242402,"SoundDuration":1242402,"Delta":69098543},{"NoteNumber":51,"Velocity":66,"Duration":106381,"SoundDuration":106381,"Delta":69098543},{"NoteNumber":30,"Velocity":52,"Duration":210623,"SoundDuration":210623,"Delta":69098543},{"NoteNumber":37,"Velocity":52,"Duration":210623,"SoundDuration":210623,"Delta":69098543},{"NoteNumber":42,"Velocity":57,"Duration":210623,"SoundDuration":210623,"Delta":69098543},{"NoteNumber":49,"Velocity":61,"Duration":104241,"SoundDuration":104241,"Delta":69204925},{"NoteNumber":51,"Velocity":66,"Duration":102953,"SoundDuration":102953,"Delta":69309167},{"NoteNumber":49,"Velocity":61,"Duration":100478,"SoundDuration":100478,"Delta":69412120},{"NoteNumber":51,"Velocity":66,"Duration":99667,"SoundDuration":99667,"Delta":69512598},{"NoteNumber":49,"Velocity":60,"Duration":98684,"SoundDuration":98684,"Delta":69612266},{"NoteNumber":51,"Velocity":66,"Duration":97912,"SoundDuration":97912,"Delta":69710950},{"NoteNumber":49,"Velocity":61,"Duration":97152,"SoundDuration":97152,"Delta":69808863},{"NoteNumber":51,"Velocity":66,"Duration":97931,"SoundDuration":97931,"Delta":69906016},{"NoteNumber":49,"Velocity":61,"Duration":104513,"SoundDuration":104513,"Delta":70003947},{"NoteNumber":48,"Velocity":66,"Duration":113797,"SoundDuration":113797,"Delta":70108461},{"NoteNumber":49,"Velocity":61,"Duration":118687,"SoundDuration":118687,"Delta":70222259},{"NoteNumber":52,"Velocity":71,"Duration":140323,"SoundDuration":140323,"Delta":70340946},{"NoteNumber":51,"Velocity":65,"Duration":147145,"SoundDuration":147145,"Delta":70481270},{"NoteNumber":49,"Velocity":65,"Duration":154645,"SoundDuration":154645,"Delta":70628416},{"NoteNumber":44,"Velocity":70,"Duration":127659,"SoundDuration":127659,"Delta":70783061},{"NoteNumber":49,"Velocity":70,"Duration":127659,"SoundDuration":127659,"Delta":70783061},{"NoteNumber":37,"Velocity":52,"Duration":127659,"SoundDuration":127659,"Delta":70783061},{"NoteNumber":40,"Velocity":57,"Duration":127659,"SoundDuration":127659,"Delta":70783061},{"NoteNumber":68,"Velocity":65,"Duration":92165,"SoundDuration":92165,"Delta":72074049},{"NoteNumber":68,"Velocity":72,"Duration":954545,"SoundDuration":954545,"Delta":72166215},{"NoteNumber":63,"Velocity":61,"Duration":954545,"SoundDuration":954545,"Delta":72166215},{"NoteNumber":59,"Velocity":61,"Duration":954545,"SoundDuration":954545,"Delta":72166215},{"NoteNumber":56,"Velocity":63,"Duration":1090908,"SoundDuration":1090908,"Delta":72166215},{"NoteNumber":44,"Velocity":53,"Duration":1090908,"SoundDuration":1090908,"Delta":72166215},{"NoteNumber":51,"Velocity":53,"Duration":1090908,"SoundDuration":1090908,"Delta":72166215},{"NoteNumber":73,"Velocity":70,"Duration":68181,"SoundDuration":68181,"Delta":73166215},{"NoteNumber":73,"Velocity":71,"Duration":1009615,"SoundDuration":1009615,"Delta":73257124},{"NoteNumber":64,"Velocity":60,"Duration":1009615,"SoundDuration":1009615,"Delta":73257124},{"NoteNumber":61,"Velocity":60,"Duration":1009615,"SoundDuration":1009615,"Delta":73257124},{"NoteNumber":58,"Velocity":62,"Duration":1153846,"SoundDuration":1153846,"Delta":73257124},{"NoteNumber":43,"Velocity":52,"Duration":1153846,"SoundDuration":1153846,"Delta":73257124},{"NoteNumber":52,"Velocity":52,"Duration":1153846,"SoundDuration":1153846,"Delta":73257124},{"NoteNumber":71,"Velocity":69,"Duration":96153,"SoundDuration":96153,"Delta":74314816},{"NoteNumber":71,"Velocity":70,"Duration":420560,"SoundDuration":420560,"Delta":74410970},{"NoteNumber":63,"Velocity":59,"Duration":420560,"SoundDuration":420560,"Delta":74410970},{"NoteNumber":59,"Velocity":59,"Duration":420560,"SoundDuration":420560,"Delta":74410970},{"NoteNumber":56,"Velocity":59,"Duration":553303,"SoundDuration":553303,"Delta":74410970},{"NoteNumber":44,"Velocity":50,"Duration":553303,"SoundDuration":553303,"Delta":74410970},{"NoteNumber":51,"Velocity":50,"Duration":553303,"SoundDuration":553303,"Delta":74410970},{"NoteNumber":69,"Velocity":67,"Duration":66371,"SoundDuration":66371,"Delta":74875778},{"NoteNumber":69,"Velocity":70,"Duration":398230,"SoundDuration":398230,"Delta":74964274},{"NoteNumber":61,"Velocity":59,"Duration":398230,"SoundDuration":398230,"Delta":74964274},{"NoteNumber":57,"Velocity":59,"Duration":398230,"SoundDuration":398230,"Delta":74964274},{"NoteNumber":52,"Velocity":52,"Duration":530973,"SoundDuration":530973,"Delta":74964274},{"NoteNumber":37,"Velocity":44,"Duration":530973,"SoundDuration":530973,"Delta":74964274},{"NoteNumber":49,"Velocity":44,"Duration":530973,"SoundDuration":530973,"Delta":74964274},{"NoteNumber":56,"Velocity":68,"Duration":66371,"SoundDuration":66371,"Delta":75406752},{"NoteNumber":68,"Velocity":68,"Duration":66371,"SoundDuration":66371,"Delta":75406752},{"NoteNumber":68,"Velocity":71,"Duration":414746,"SoundDuration":414746,"Delta":75495247},{"NoteNumber":59,"Velocity":60,"Duration":414746,"SoundDuration":414746,"Delta":75495247},{"NoteNumber":56,"Velocity":60,"Duration":414746,"SoundDuration":414746,"Delta":75495247},{"NoteNumber":51,"Velocity":60,"Duration":552995,"SoundDuration":552995,"Delta":75495247},{"NoteNumber":39,"Velocity":51,"Duration":552995,"SoundDuration":552995,"Delta":75495247},{"NoteNumber":47,"Velocity":51,"Duration":552995,"SoundDuration":552995,"Delta":75495247},{"NoteNumber":67,"Velocity":68,"Duration":69124,"SoundDuration":69124,"Delta":75956077},{"NoteNumber":67,"Velocity":70,"Duration":452261,"SoundDuration":452261,"Delta":76048243},{"NoteNumber":58,"Velocity":59,"Duration":452261,"SoundDuration":452261,"Delta":76048243},{"NoteNumber":55,"Velocity":59,"Duration":452261,"SoundDuration":452261,"Delta":76048243},{"NoteNumber":51,"Velocity":57,"Duration":603014,"SoundDuration":603014,"Delta":76048243},{"NoteNumber":49,"Velocity":48,"Duration":603014,"SoundDuration":603014,"Delta":76048243},{"NoteNumber":46,"Velocity":48,"Duration":603014,"SoundDuration":603014,"Delta":76048243},{"NoteNumber":39,"Velocity":48,"Duration":603014,"SoundDuration":603014,"Delta":76048243},{"NoteNumber":68,"Velocity":70,"Duration":75376,"SoundDuration":75376,"Delta":76550755},{"NoteNumber":68,"Velocity":71,"Duration":397351,"SoundDuration":397351,"Delta":76651258},{"NoteNumber":59,"Velocity":60,"Duration":397351,"SoundDuration":397351,"Delta":76651258},{"NoteNumber":56,"Velocity":60,"Duration":397351,"SoundDuration":397351,"Delta":76651258},{"NoteNumber":44,"Velocity":52,"Duration":397351,"SoundDuration":397351,"Delta":76651258},{"NoteNumber":47,"Velocity":52,"Duration":397351,"SoundDuration":397351,"Delta":76651258},{"NoteNumber":51,"Velocity":57,"Duration":397351,"SoundDuration":397351,"Delta":76651258},{"NoteNumber":56,"Velocity":63,"Duration":198675,"SoundDuration":198675,"Delta":77247284},{"NoteNumber":52,"Velocity":59,"Duration":1242402,"SoundDuration":1242402,"Delta":77445960},{"NoteNumber":58,"Velocity":59,"Duration":106381,"SoundDuration":106381,"Delta":77445960},{"NoteNumber":37,"Velocity":46,"Duration":1242402,"SoundDuration":1242402,"Delta":77445960},{"NoteNumber":46,"Velocity":50,"Duration":106381,"SoundDuration":106381,"Delta":77445960},{"NoteNumber":56,"Velocity":54,"Duration":104241,"SoundDuration":104241,"Delta":77552341},{"NoteNumber":44,"Velocity":45,"Duration":104241,"SoundDuration":104241,"Delta":77552341},{"NoteNumber":58,"Velocity":59,"Duration":102953,"SoundDuration":102953,"Delta":77656583},{"NoteNumber":46,"Velocity":50,"Duration":102953,"SoundDuration":102953,"Delta":77656583},{"NoteNumber":56,"Velocity":54,"Duration":100478,"SoundDuration":100478,"Delta":77759536},{"NoteNumber":44,"Velocity":45,"Duration":100478,"SoundDuration":100478,"Delta":77759536},{"NoteNumber":58,"Velocity":59,"Duration":99667,"SoundDuration":99667,"Delta":77860015},{"NoteNumber":46,"Velocity":50,"Duration":99667,"SoundDuration":99667,"Delta":77860015},{"NoteNumber":56,"Velocity":54,"Duration":98684,"SoundDuration":98684,"Delta":77959682},{"NoteNumber":44,"Velocity":45,"Duration":98684,"SoundDuration":98684,"Delta":77959682},{"NoteNumber":58,"Velocity":59,"Duration":97912,"SoundDuration":97912,"Delta":78058367},{"NoteNumber":46,"Velocity":50,"Duration":97912,"SoundDuration":97912,"Delta":78058367},{"NoteNumber":56,"Velocity":54,"Duration":97152,"SoundDuration":97152,"Delta":78156279},{"NoteNumber":44,"Velocity":45,"Duration":97152,"SoundDuration":97152,"Delta":78156279},{"NoteNumber":58,"Velocity":59,"Duration":97931,"SoundDuration":97931,"Delta":78253432},{"NoteNumber":46,"Velocity":50,"Duration":97931,"SoundDuration":97931,"Delta":78253432},{"NoteNumber":56,"Velocity":54,"Duration":104513,"SoundDuration":104513,"Delta":78351364},{"NoteNumber":44,"Velocity":45,"Duration":104513,"SoundDuration":104513,"Delta":78351364},{"NoteNumber":55,"Velocity":59,"Duration":113797,"SoundDuration":113797,"Delta":78455878},{"NoteNumber":43,"Velocity":50,"Duration":113797,"SoundDuration":113797,"Delta":78455878},{"NoteNumber":56,"Velocity":54,"Duration":118687,"SoundDuration":118687,"Delta":78569675},{"NoteNumber":44,"Velocity":45,"Duration":118687,"SoundDuration":118687,"Delta":78569675},{"NoteNumber":59,"Velocity":63,"Duration":140323,"SoundDuration":140323,"Delta":78688362},{"NoteNumber":47,"Velocity":54,"Duration":140323,"SoundDuration":140323,"Delta":78688362},{"NoteNumber":58,"Velocity":58,"Duration":147145,"SoundDuration":147145,"Delta":78828686},{"NoteNumber":46,"Velocity":49,"Duration":147145,"SoundDuration":147145,"Delta":78828686},{"NoteNumber":56,"Velocity":58,"Duration":154645,"SoundDuration":154645,"Delta":78975832},{"NoteNumber":44,"Velocity":49,"Duration":154645,"SoundDuration":154645,"Delta":78975832},{"NoteNumber":47,"Velocity":56,"Duration":117187,"SoundDuration":117187,"Delta":79130478},{"NoteNumber":51,"Velocity":56,"Duration":117187,"SoundDuration":117187,"Delta":79130478},{"NoteNumber":56,"Velocity":56,"Duration":117187,"SoundDuration":117187,"Delta":79130478},{"NoteNumber":32,"Velocity":41,"Duration":234375,"SoundDuration":234375,"Delta":79130478},{"NoteNumber":39,"Velocity":41,"Duration":234375,"SoundDuration":234375,"Delta":79130478},{"NoteNumber":44,"Velocity":45,"Duration":234375,"SoundDuration":234375,"Delta":79130478},{"NoteNumber":68,"Velocity":52,"Duration":236220,"SoundDuration":236220,"Delta":80645740},{"NoteNumber":40,"Velocity":44,"Duration":3554649,"SoundDuration":3554649,"Delta":80822905},{"NoteNumber":47,"Velocity":46,"Duration":3495594,"SoundDuration":3495594,"Delta":80881960},{"NoteNumber":56,"Velocity":48,"Duration":3436539,"SoundDuration":3436539,"Delta":80941015},{"NoteNumber":59,"Velocity":48,"Duration":3377483,"SoundDuration":3377483,"Delta":81000070},{"NoteNumber":64,"Velocity":50,"Duration":3108638,"SoundDuration":3108638,"Delta":81059125},{"NoteNumber":68,"Velocity":55,"Duration":1225276,"SoundDuration":1225276,"Delta":81118181},{"NoteNumber":69,"Velocity":52,"Duration":205479,"SoundDuration":205479,"Delta":82343457},{"NoteNumber":71,"Velocity":52,"Duration":156739,"SoundDuration":156739,"Delta":82548937},{"NoteNumber":71,"Velocity":52,"Duration":106007,"SoundDuration":106007,"Delta":82737024},{"NoteNumber":64,"Velocity":56,"Duration":1534522,"SoundDuration":1534522,"Delta":82843031},{"NoteNumber":63,"Velocity":56,"Duration":174825,"SoundDuration":174825,"Delta":84167764},{"NoteNumber":63,"Velocity":56,"Duration":274546,"SoundDuration":274546,"Delta":84377554},{"NoteNumber":51,"Velocity":46,"Duration":1895936,"SoundDuration":1895936,"Delta":84377554},{"NoteNumber":35,"Velocity":39,"Duration":1895936,"SoundDuration":1895936,"Delta":84377554},{"NoteNumber":57,"Velocity":47,"Duration":1727397,"SoundDuration":1727397,"Delta":84546094},{"NoteNumber":66,"Velocity":54,"Duration":1161630,"SoundDuration":1161630,"Delta":84546094},{"NoteNumber":64,"Velocity":44,"Duration":209790,"SoundDuration":209790,"Delta":85288144},{"NoteNumber":66,"Velocity":43,"Duration":553804,"SoundDuration":553804,"Delta":85497934},{"NoteNumber":68,"Velocity":46,"Duration":159711,"SoundDuration":159711,"Delta":85707724},{"NoteNumber":66,"Velocity":44,"Duration":406055,"SoundDuration":406055,"Delta":85867435},{"NoteNumber":64,"Velocity":44,"Duration":221752,"SoundDuration":221752,"Delta":86051738},{"NoteNumber":56,"Velocity":39,"Duration":1623197,"SoundDuration":1623197,"Delta":86273491},{"NoteNumber":64,"Velocity":44,"Duration":1623197,"SoundDuration":1623197,"Delta":86273491},{"NoteNumber":47,"Velocity":39,"Duration":1623197,"SoundDuration":1623197,"Delta":86273491},{"NoteNumber":40,"Velocity":32,"Duration":1623197,"SoundDuration":1623197,"Delta":86273491},{"NoteNumber":68,"Velocity":52,"Duration":144384,"SoundDuration":144384,"Delta":87950164},{"NoteNumber":56,"Velocity":33,"Duration":144384,"SoundDuration":144384,"Delta":87950164},{"NoteNumber":64,"Velocity":33,"Duration":144384,"SoundDuration":144384,"Delta":87950164},{"NoteNumber":52,"Velocity":52,"Duration":144384,"SoundDuration":144384,"Delta":87950164},{"NoteNumber":68,"Velocity":55,"Duration":1188613,"SoundDuration":1188613,"Delta":88110592},{"NoteNumber":56,"Velocity":35,"Duration":1188613,"SoundDuration":1188613,"Delta":88110592},{"NoteNumber":64,"Velocity":35,"Duration":1188613,"SoundDuration":1188613,"Delta":88110592},{"NoteNumber":40,"Velocity":37,"Duration":1601364,"SoundDuration":1601364,"Delta":88110592},{"NoteNumber":47,"Velocity":40,"Duration":1601364,"SoundDuration":1601364,"Delta":88110592},{"NoteNumber":52,"Velocity":44,"Duration":1188613,"SoundDuration":1188613,"Delta":88110592},{"NoteNumber":69,"Velocity":52,"Duration":186335,"SoundDuration":186335,"Delta":89299205},{"NoteNumber":66,"Velocity":44,"Duration":186335,"SoundDuration":186335,"Delta":89299205},{"NoteNumber":54,"Velocity":35,"Duration":186335,"SoundDuration":186335,"Delta":89299205},{"NoteNumber":57,"Velocity":44,"Duration":188673,"SoundDuration":188673,"Delta":89310075},{"NoteNumber":71,"Velocity":55,"Duration":226415,"SoundDuration":226415,"Delta":89485541},{"NoteNumber":59,"Velocity":46,"Duration":226415,"SoundDuration":226415,"Delta":89485541},{"NoteNumber":68,"Velocity":46,"Duration":226415,"SoundDuration":226415,"Delta":89485541},{"NoteNumber":56,"Velocity":38,"Duration":226415,"SoundDuration":226415,"Delta":89485541},{"NoteNumber":73,"Velocity":59,"Duration":551824,"SoundDuration":551824,"Delta":89711956},{"NoteNumber":61,"Velocity":49,"Duration":551824,"SoundDuration":551824,"Delta":89711956},{"NoteNumber":69,"Velocity":49,"Duration":551824,"SoundDuration":551824,"Delta":89711956},{"NoteNumber":45,"Velocity":37,"Duration":1529562,"SoundDuration":1529562,"Delta":89711956},{"NoteNumber":52,"Velocity":40,"Duration":1529562,"SoundDuration":1529562,"Delta":89711956},{"NoteNumber":57,"Velocity":41,"Duration":551824,"SoundDuration":551824,"Delta":89711956},{"NoteNumber":73,"Velocity":54,"Duration":248513,"SoundDuration":248513,"Delta":90263780},{"NoteNumber":61,"Velocity":45,"Duration":248513,"SoundDuration":248513,"Delta":90263780},{"NoteNumber":69,"Velocity":45,"Duration":248513,"SoundDuration":248513,"Delta":90263780},{"NoteNumber":57,"Velocity":40,"Duration":248513,"SoundDuration":248513,"Delta":90263780},{"NoteNumber":73,"Velocity":57,"Duration":184583,"SoundDuration":184583,"Delta":90512293},{"NoteNumber":61,"Velocity":48,"Duration":184583,"SoundDuration":184583,"Delta":90512293},{"NoteNumber":69,"Velocity":48,"Duration":184583,"SoundDuration":184583,"Delta":90512293},{"NoteNumber":57,"Velocity":44,"Duration":184583,"SoundDuration":184583,"Delta":90512293},{"NoteNumber":71,"Velocity":55,"Duration":183588,"SoundDuration":183588,"Delta":90741569},{"NoteNumber":59,"Velocity":46,"Duration":183588,"SoundDuration":183588,"Delta":90741569},{"NoteNumber":68,"Velocity":46,"Duration":183588,"SoundDuration":183588,"Delta":90741569},{"NoteNumber":56,"Velocity":43,"Duration":183588,"SoundDuration":183588,"Delta":90741569},{"NoteNumber":70,"Velocity":52,"Duration":214765,"SoundDuration":214765,"Delta":90973062},{"NoteNumber":58,"Velocity":44,"Duration":214765,"SoundDuration":214765,"Delta":90973062},{"NoteNumber":67,"Velocity":44,"Duration":214765,"SoundDuration":214765,"Delta":90973062},{"NoteNumber":55,"Velocity":41,"Duration":214765,"SoundDuration":214765,"Delta":90973062},{"NoteNumber":71,"Velocity":57,"Duration":738461,"SoundDuration":738461,"Delta":91241518},{"NoteNumber":59,"Velocity":48,"Duration":738461,"SoundDuration":738461,"Delta":91241518},{"NoteNumber":68,"Velocity":48,"Duration":738461,"SoundDuration":738461,"Delta":91241518},{"NoteNumber":56,"Velocity":44,"Duration":733846,"SoundDuration":733846,"Delta":91241518},{"NoteNumber":44,"Velocity":36,"Duration":738461,"SoundDuration":738461,"Delta":91241518},{"NoteNumber":52,"Velocity":36,"Duration":738461,"SoundDuration":738461,"Delta":91241518},{"NoteNumber":64,"Velocity":52,"Duration":511630,"SoundDuration":511630,"Delta":91979980},{"NoteNumber":56,"Velocity":44,"Duration":813643,"SoundDuration":813643,"Delta":91979980},{"NoteNumber":61,"Velocity":44,"Duration":813643,"SoundDuration":813643,"Delta":91979980},{"NoteNumber":52,"Velocity":38,"Duration":813643,"SoundDuration":813643,"Delta":91979980},{"NoteNumber":37,"Velocity":32,"Duration":813643,"SoundDuration":813643,"Delta":91979980},{"NoteNumber":63,"Velocity":44,"Duration":102739,"SoundDuration":102739,"Delta":92288199},{"NoteNumber":64,"Velocity":45,"Duration":302013,"SoundDuration":302013,"Delta":92390939},{"NoteNumber":66,"Velocity":44,"Duration":100671,"SoundDuration":100671,"Delta":92491610},{"NoteNumber":64,"Velocity":46,"Duration":201342,"SoundDuration":201342,"Delta":92592281},{"NoteNumber":63,"Velocity":48,"Duration":100671,"SoundDuration":100671,"Delta":92692952},{"NoteNumber":63,"Velocity":52,"Duration":559006,"SoundDuration":559006,"Delta":92793624},{"NoteNumber":57,"Velocity":44,"Duration":745341,"SoundDuration":745341,"Delta":92793624},{"NoteNumber":54,"Velocity":40,"Duration":745341,"SoundDuration":745341,"Delta":92793624},{"NoteNumber":35,"Velocity":33,"Duration":745341,"SoundDuration":745341,"Delta":92793624},{"NoteNumber":64,"Velocity":49,"Duration":62111,"SoundDuration":62111,"Delta":93352630},{"NoteNumber":68,"Velocity":55,"Duration":124223,"SoundDuration":124223,"Delta":93414742},{"NoteNumber":66,"Velocity":52,"Duration":636627,"SoundDuration":636627,"Delta":93538966},{"NoteNumber":57,"Velocity":44,"Duration":891946,"SoundDuration":891946,"Delta":93538966},{"NoteNumber":51,"Velocity":37,"Duration":891946,"SoundDuration":891946,"Delta":93538966},{"NoteNumber":47,"Velocity":31,"Duration":891946,"SoundDuration":891946,"Delta":93538966},{"NoteNumber":64,"Velocity":52,"Duration":212766,"SoundDuration":212766,"Delta":94175593},{"NoteNumber":64,"Velocity":52,"Duration":848056,"SoundDuration":848056,"Delta":94430912},{"NoteNumber":56,"Velocity":44,"Duration":848056,"SoundDuration":848056,"Delta":94430912},{"NoteNumber":52,"Velocity":42,"Duration":848056,"SoundDuration":848056,"Delta":94430912},{"NoteNumber":40,"Velocity":36,"Duration":848056,"SoundDuration":848056,"Delta":94430912},{"NoteNumber":47,"Velocity":36,"Duration":848056,"SoundDuration":848056,"Delta":94430912},{"NoteNumber":76,"Velocity":52,"Duration":236220,"SoundDuration":236220,"Delta":97670181},{"NoteNumber":64,"Velocity":48,"Duration":518074,"SoundDuration":518074,"Delta":97906401},{"NoteNumber":68,"Velocity":48,"Duration":1736953,"SoundDuration":1736953,"Delta":97965457},{"NoteNumber":73,"Velocity":50,"Duration":1677898,"SoundDuration":1677898,"Delta":98024512},{"NoteNumber":76,"Velocity":55,"Duration":1225276,"SoundDuration":1225276,"Delta":98083567},{"NoteNumber":37,"Velocity":48,"Duration":419580,"SoundDuration":419580,"Delta":98083567},{"NoteNumber":64,"Velocity":43,"Duration":1199263,"SoundDuration":1199263,"Delta":98503147},{"NoteNumber":61,"Velocity":36,"Duration":1199263,"SoundDuration":1199263,"Delta":98503147},{"NoteNumber":56,"Velocity":36,"Duration":1199263,"SoundDuration":1199263,"Delta":98503147},{"NoteNumber":52,"Velocity":36,"Duration":1199263,"SoundDuration":1199263,"Delta":98503147},{"NoteNumber":78,"Velocity":52,"Duration":205479,"SoundDuration":205479,"Delta":99308843},{"NoteNumber":80,"Velocity":52,"Duration":156739,"SoundDuration":156739,"Delta":99514323},{"NoteNumber":80,"Velocity":52,"Duration":106007,"SoundDuration":106007,"Delta":99702411},{"NoteNumber":37,"Velocity":48,"Duration":424028,"SoundDuration":424028,"Delta":99702411},{"NoteNumber":73,"Velocity":56,"Duration":1324732,"SoundDuration":1324732,"Delta":99808418},{"NoteNumber":68,"Velocity":43,"Duration":1216501,"SoundDuration":1216501,"Delta":100126439},{"NoteNumber":64,"Velocity":36,"Duration":1216501,"SoundDuration":1216501,"Delta":100126439},{"NoteNumber":61,"Velocity":36,"Duration":1216501,"SoundDuration":1216501,"Delta":100126439},{"NoteNumber":56,"Velocity":36,"Duration":1216501,"SoundDuration":1216501,"Delta":100126439},{"NoteNumber":72,"Velocity":56,"Duration":209790,"SoundDuration":209790,"Delta":101133150},{"NoteNumber":72,"Velocity":56,"Duration":296199,"SoundDuration":296199,"Delta":101342941},{"NoteNumber":60,"Velocity":47,"Duration":492302,"SoundDuration":492302,"Delta":101385075},{"NoteNumber":66,"Velocity":47,"Duration":1775212,"SoundDuration":1775212,"Delta":101427210},{"NoteNumber":68,"Velocity":47,"Duration":1733077,"SoundDuration":1733077,"Delta":101469345},{"NoteNumber":75,"Velocity":54,"Duration":1057761,"SoundDuration":1057761,"Delta":101511480},{"NoteNumber":32,"Velocity":48,"Duration":339673,"SoundDuration":339673,"Delta":101511480},{"NoteNumber":44,"Velocity":48,"Duration":339673,"SoundDuration":339673,"Delta":101511480},{"NoteNumber":54,"Velocity":36,"Duration":1351269,"SoundDuration":1351269,"Delta":101851154},{"NoteNumber":56,"Velocity":36,"Duration":1351269,"SoundDuration":1351269,"Delta":101851154},{"NoteNumber":60,"Velocity":36,"Duration":1351269,"SoundDuration":1351269,"Delta":101851154},{"NoteNumber":63,"Velocity":43,"Duration":1351269,"SoundDuration":1351269,"Delta":101851154},{"NoteNumber":73,"Velocity":46,"Duration":149253,"SoundDuration":149253,"Delta":102270734},{"NoteNumber":75,"Velocity":46,"Duration":374970,"SoundDuration":374970,"Delta":102419988},{"NoteNumber":76,"Velocity":46,"Duration":149253,"SoundDuration":149253,"Delta":102569242},{"NoteNumber":75,"Velocity":46,"Duration":155191,"SoundDuration":155191,"Delta":102718495},{"NoteNumber":75,"Velocity":46,"Duration":387932,"SoundDuration":387932,"Delta":102814490},{"NoteNumber":73,"Velocity":48,"Duration":161615,"SoundDuration":161615,"Delta":102873686},{"NoteNumber":72,"Velocity":44,"Duration":167120,"SoundDuration":167120,"Delta":103035302},{"NoteNumber":64,"Velocity":39,"Duration":463511,"SoundDuration":463511,"Delta":103202423},{"NoteNumber":68,"Velocity":39,"Duration":1290654,"SoundDuration":1290654,"Delta":103232423},{"NoteNumber":73,"Velocity":44,"Duration":1260654,"SoundDuration":1260654,"Delta":103262423},{"NoteNumber":37,"Velocity":48,"Duration":403511,"SoundDuration":403511,"Delta":103262423},{"NoteNumber":49,"Velocity":48,"Duration":403511,"SoundDuration":403511,"Delta":103262423},{"NoteNumber":52,"Velocity":36,"Duration":857142,"SoundDuration":857142,"Delta":103665935},{"NoteNumber":56,"Velocity":36,"Duration":857142,"SoundDuration":857142,"Delta":103665935},{"NoteNumber":61,"Velocity":36,"Duration":857142,"SoundDuration":857142,"Delta":103665935},{"NoteNumber":64,"Velocity":43,"Duration":857142,"SoundDuration":857142,"Delta":103665935},{"NoteNumber":65,"Velocity":82,"Duration":214285,"SoundDuration":214285,"Delta":104737363},{"NoteNumber":59,"Velocity":69,"Duration":214285,"SoundDuration":214285,"Delta":104737363},{"NoteNumber":61,"Velocity":69,"Duration":214285,"SoundDuration":214285,"Delta":104737363},{"NoteNumber":56,"Velocity":61,"Duration":214285,"SoundDuration":214285,"Delta":104737363},{"NoteNumber":49,"Velocity":51,"Duration":214285,"SoundDuration":214285,"Delta":104737363},{"NoteNumber":66,"Velocity":90,"Duration":1150159,"SoundDuration":1150159,"Delta":104951649},{"NoteNumber":57,"Velocity":76,"Duration":1150159,"SoundDuration":1150159,"Delta":104951649},{"NoteNumber":61,"Velocity":76,"Duration":1150159,"SoundDuration":1150159,"Delta":104951649},{"NoteNumber":54,"Velocity":67,"Duration":1150159,"SoundDuration":1150159,"Delta":104951649},{"NoteNumber":42,"Velocity":56,"Duration":1150159,"SoundDuration":1150159,"Delta":104951649},{"NoteNumber":49,"Velocity":56,"Duration":1150159,"SoundDuration":1150159,"Delta":104951649},{"NoteNumber":81,"Velocity":80,"Duration":376712,"SoundDuration":376712,"Delta":106101809},{"NoteNumber":69,"Velocity":68,"Duration":376712,"SoundDuration":376712,"Delta":106101809},{"NoteNumber":78,"Velocity":68,"Duration":376712,"SoundDuration":376712,"Delta":106101809},{"NoteNumber":66,"Velocity":66,"Duration":376712,"SoundDuration":376712,"Delta":106101809},{"NoteNumber":78,"Velocity":85,"Duration":284810,"SoundDuration":284810,"Delta":106512768},{"NoteNumber":81,"Velocity":85,"Duration":284810,"SoundDuration":284810,"Delta":106512768},{"NoteNumber":69,"Velocity":72,"Duration":284810,"SoundDuration":284810,"Delta":106512768},{"NoteNumber":66,"Velocity":70,"Duration":284810,"SoundDuration":284810,"Delta":106512768},{"NoteNumber":80,"Velocity":79,"Duration":71202,"SoundDuration":71202,"Delta":106797578},{"NoteNumber":68,"Velocity":67,"Duration":71202,"SoundDuration":71202,"Delta":106797578},{"NoteNumber":76,"Velocity":67,"Duration":71202,"SoundDuration":71202,"Delta":106797578},{"NoteNumber":64,"Velocity":67,"Duration":71202,"SoundDuration":71202,"Delta":106797578},{"NoteNumber":80,"Velocity":85,"Duration":313540,"SoundDuration":313540,"Delta":106892515},{"NoteNumber":68,"Velocity":72,"Duration":313540,"SoundDuration":313540,"Delta":106892515},{"NoteNumber":76,"Velocity":72,"Duration":313540,"SoundDuration":313540,"Delta":106892515},{"NoteNumber":64,"Velocity":70,"Duration":313540,"SoundDuration":313540,"Delta":106892515},{"NoteNumber":78,"Velocity":81,"Duration":86872,"SoundDuration":86872,"Delta":107206055},{"NoteNumber":66,"Velocity":68,"Duration":86872,"SoundDuration":86872,"Delta":107206055},{"NoteNumber":75,"Velocity":68,"Duration":86872,"SoundDuration":86872,"Delta":107206055},{"NoteNumber":63,"Velocity":67,"Duration":86872,"SoundDuration":86872,"Delta":107206055},{"NoteNumber":78,"Velocity":81,"Duration":510638,"SoundDuration":510638,"Delta":107321885},{"NoteNumber":66,"Velocity":68,"Duration":510638,"SoundDuration":510638,"Delta":107321885},{"NoteNumber":75,"Velocity":68,"Duration":510638,"SoundDuration":510638,"Delta":107321885},{"NoteNumber":63,"Velocity":67,"Duration":510638,"SoundDuration":510638,"Delta":107321885},{"NoteNumber":75,"Velocity":53,"Duration":157342,"SoundDuration":157342,"Delta":108429222},{"NoteNumber":66,"Velocity":45,"Duration":157342,"SoundDuration":157342,"Delta":108429222},{"NoteNumber":69,"Velocity":45,"Duration":157342,"SoundDuration":157342,"Delta":108429222},{"NoteNumber":63,"Velocity":45,"Duration":157342,"SoundDuration":157342,"Delta":108429222},{"NoteNumber":54,"Velocity":38,"Duration":157342,"SoundDuration":157342,"Delta":108429222},{"NoteNumber":57,"Velocity":38,"Duration":157342,"SoundDuration":157342,"Delta":108429222},{"NoteNumber":44,"Velocity":58,"Duration":877500,"SoundDuration":877500,"Delta":108586565},{"NoteNumber":76,"Velocity":58,"Duration":437955,"SoundDuration":437955,"Delta":108639012},{"NoteNumber":64,"Velocity":49,"Duration":437955,"SoundDuration":437955,"Delta":108639012},{"NoteNumber":68,"Velocity":49,"Duration":437955,"SoundDuration":437955,"Delta":108639012},{"NoteNumber":61,"Velocity":52,"Duration":825052,"SoundDuration":825052,"Delta":108639012},{"NoteNumber":75,"Velocity":48,"Duration":96774,"SoundDuration":96774,"Delta":109076968},{"NoteNumber":76,"Velocity":50,"Duration":96774,"SoundDuration":96774,"Delta":109173743},{"NoteNumber":78,"Velocity":51,"Duration":96774,"SoundDuration":96774,"Delta":109270517},{"NoteNumber":76,"Velocity":50,"Duration":96774,"SoundDuration":96774,"Delta":109367291},{"NoteNumber":75,"Velocity":54,"Duration":406779,"SoundDuration":406779,"Delta":109464065},{"NoteNumber":68,"Velocity":45,"Duration":406779,"SoundDuration":406779,"Delta":109464065},{"NoteNumber":64,"Velocity":50,"Duration":406779,"SoundDuration":406779,"Delta":109464065},{"NoteNumber":56,"Velocity":42,"Duration":406779,"SoundDuration":406779,"Delta":109464065},{"NoteNumber":73,"Velocity":48,"Duration":203389,"SoundDuration":203389,"Delta":110074235},{"NoteNumber":44,"Velocity":43,"Duration":430594,"SoundDuration":430594,"Delta":110226777},{"NoteNumber":75,"Velocity":53,"Duration":379746,"SoundDuration":379746,"Delta":110277624},{"NoteNumber":66,"Velocity":45,"Duration":759494,"SoundDuration":759494,"Delta":110277624},{"NoteNumber":68,"Velocity":45,"Duration":379746,"SoundDuration":379746,"Delta":110277624},{"NoteNumber":60,"Velocity":51,"Duration":379746,"SoundDuration":379746,"Delta":110277624},{"NoteNumber":68,"Velocity":50,"Duration":379747,"SoundDuration":379747,"Delta":110657371},{"NoteNumber":80,"Velocity":54,"Duration":569620,"SoundDuration":569620,"Delta":111037118},{"NoteNumber":66,"Velocity":45,"Duration":569620,"SoundDuration":569620,"Delta":111037118},{"NoteNumber":72,"Velocity":45,"Duration":569620,"SoundDuration":569620,"Delta":111037118},{"NoteNumber":63,"Velocity":44,"Duration":379746,"SoundDuration":379746,"Delta":111037118},{"NoteNumber":56,"Velocity":37,"Duration":379746,"SoundDuration":379746,"Delta":111037118},{"NoteNumber":72,"Velocity":44,"Duration":189873,"SoundDuration":189873,"Delta":111606739},{"NoteNumber":73,"Velocity":51,"Duration":433212,"SoundDuration":433212,"Delta":111796612},{"NoteNumber":64,"Velocity":43,"Duration":433212,"SoundDuration":433212,"Delta":111796612},{"NoteNumber":68,"Velocity":43,"Duration":433212,"SoundDuration":433212,"Delta":111796612},{"NoteNumber":61,"Velocity":51,"Duration":809388,"SoundDuration":809388,"Delta":111796612},{"NoteNumber":49,"Velocity":43,"Duration":809388,"SoundDuration":809388,"Delta":111796612},{"NoteNumber":56,"Velocity":43,"Duration":809388,"SoundDuration":809388,"Delta":111796612},{"NoteNumber":72,"Velocity":51,"Duration":125391,"SoundDuration":125391,"Delta":112229825},{"NoteNumber":73,"Velocity":51,"Duration":125391,"SoundDuration":125391,"Delta":112355217},{"NoteNumber":75,"Velocity":51,"Duration":125391,"SoundDuration":125391,"Delta":112480609},{"NoteNumber":73,"Velocity":55,"Duration":610169,"SoundDuration":610169,"Delta":112606001},{"NoteNumber":63,"Velocity":46,"Duration":868790,"SoundDuration":868790,"Delta":112606001},{"NoteNumber":68,"Velocity":46,"Duration":868790,"SoundDuration":868790,"Delta":112606001},{"NoteNumber":54,"Velocity":50,"Duration":868790,"SoundDuration":868790,"Delta":112606001},{"NoteNumber":44,"Velocity":42,"Duration":868790,"SoundDuration":868790,"Delta":112606001},{"NoteNumber":72,"Velocity":51,"Duration":258620,"SoundDuration":258620,"Delta":113216170},{"NoteNumber":73,"Velocity":55,"Duration":433212,"SoundDuration":433212,"Delta":113474791},{"NoteNumber":61,"Velocity":46,"Duration":433212,"SoundDuration":433212,"Delta":113474791},{"NoteNumber":68,"Velocity":46,"Duration":433212,"SoundDuration":433212,"Delta":113474791},{"NoteNumber":52,"Velocity":50,"Duration":433212,"SoundDuration":433212,"Delta":113474791},{"NoteNumber":37,"Velocity":42,"Duration":433212,"SoundDuration":433212,"Delta":113474791},{"NoteNumber":61,"Velocity":65,"Duration":69124,"SoundDuration":69124,"Delta":115145423},{"NoteNumber":61,"Velocity":72,"Duration":1088082,"SoundDuration":1088082,"Delta":115237588},{"NoteNumber":56,"Velocity":61,"Duration":1088082,"SoundDuration":1088082,"Delta":115237588},{"NoteNumber":52,"Velocity":61,"Duration":1088082,"SoundDuration":1088082,"Delta":115237588},{"NoteNumber":49,"Velocity":61,"Duration":155440,"SoundDuration":155440,"Delta":115237588},{"NoteNumber":37,"Velocity":55,"Duration":1243522,"SoundDuration":1243522,"Delta":115237588},{"NoteNumber":48,"Velocity":61,"Duration":155440,"SoundDuration":155440,"Delta":115393029},{"NoteNumber":47,"Velocity":60,"Duration":155440,"SoundDuration":155440,"Delta":115548469},{"NoteNumber":46,"Velocity":59,"Duration":155440,"SoundDuration":155440,"Delta":115703910},{"NoteNumber":45,"Velocity":58,"Duration":155440,"SoundDuration":155440,"Delta":115859350},{"NoteNumber":44,"Velocity":57,"Duration":155440,"SoundDuration":155440,"Delta":116014790},{"NoteNumber":43,"Velocity":56,"Duration":155440,"SoundDuration":155440,"Delta":116170231},{"NoteNumber":44,"Velocity":55,"Duration":155440,"SoundDuration":155440,"Delta":116325671},{"NoteNumber":66,"Velocity":70,"Duration":77720,"SoundDuration":77720,"Delta":116377485},{"NoteNumber":66,"Velocity":71,"Duration":1088082,"SoundDuration":1088082,"Delta":116481111},{"NoteNumber":57,"Velocity":60,"Duration":1088082,"SoundDuration":1088082,"Delta":116481111},{"NoteNumber":54,"Velocity":60,"Duration":1088082,"SoundDuration":1088082,"Delta":116481111},{"NoteNumber":45,"Velocity":60,"Duration":155440,"SoundDuration":155440,"Delta":116481111},{"NoteNumber":36,"Velocity":55,"Duration":1243523,"SoundDuration":1243523,"Delta":116481111},{"NoteNumber":44,"Velocity":53,"Duration":155440,"SoundDuration":155440,"Delta":116636552},{"NoteNumber":43,"Velocity":53,"Duration":155440,"SoundDuration":155440,"Delta":116791992},{"NoteNumber":42,"Velocity":53,"Duration":155440,"SoundDuration":155440,"Delta":116947433},{"NoteNumber":41,"Velocity":53,"Duration":155440,"SoundDuration":155440,"Delta":117102873},{"NoteNumber":40,"Velocity":53,"Duration":155440,"SoundDuration":155440,"Delta":117258313},{"NoteNumber":39,"Velocity":53,"Duration":155440,"SoundDuration":155440,"Delta":117413754},{"NoteNumber":36,"Velocity":53,"Duration":155440,"SoundDuration":155440,"Delta":117569194},{"NoteNumber":64,"Velocity":69,"Duration":77720,"SoundDuration":77720,"Delta":117621008},{"NoteNumber":64,"Velocity":70,"Duration":505618,"SoundDuration":505618,"Delta":117724634},{"NoteNumber":56,"Velocity":59,"Duration":505618,"SoundDuration":505618,"Delta":117724634},{"NoteNumber":52,"Velocity":59,"Duration":505618,"SoundDuration":505618,"Delta":117724634},{"NoteNumber":37,"Velocity":52,"Duration":674157,"SoundDuration":674157,"Delta":117724634},{"NoteNumber":38,"Velocity":52,"Duration":168539,"SoundDuration":168539,"Delta":117893174},{"NoteNumber":39,"Velocity":53,"Duration":168539,"SoundDuration":168539,"Delta":118061713},{"NoteNumber":40,"Velocity":54,"Duration":168539,"SoundDuration":168539,"Delta":118230253},{"NoteNumber":62,"Velocity":69,"Duration":112359,"SoundDuration":112359,"Delta":118286432},{"NoteNumber":54,"Velocity":61,"Duration":505618,"SoundDuration":505618,"Delta":118398792},{"NoteNumber":62,"Velocity":72,"Duration":505618,"SoundDuration":505618,"Delta":118398792},{"NoteNumber":57,"Velocity":61,"Duration":505618,"SoundDuration":505618,"Delta":118398792},{"NoteNumber":41,"Velocity":54,"Duration":168539,"SoundDuration":168539,"Delta":118398792},{"NoteNumber":30,"Velocity":51,"Duration":674157,"SoundDuration":674157,"Delta":118398792},{"NoteNumber":42,"Velocity":55,"Duration":168539,"SoundDuration":168539,"Delta":118567331},{"NoteNumber":41,"Velocity":56,"Duration":168539,"SoundDuration":168539,"Delta":118735871},{"NoteNumber":42,"Velocity":56,"Duration":168539,"SoundDuration":168539,"Delta":118904410},{"NoteNumber":61,"Velocity":72,"Duration":112359,"SoundDuration":112359,"Delta":118960590},{"NoteNumber":61,"Velocity":76,"Duration":481283,"SoundDuration":481283,"Delta":119072949},{"NoteNumber":56,"Velocity":64,"Duration":481283,"SoundDuration":481283,"Delta":119072949},{"NoteNumber":52,"Velocity":64,"Duration":481283,"SoundDuration":481283,"Delta":119072949},{"NoteNumber":32,"Velocity":51,"Duration":641711,"SoundDuration":641711,"Delta":119072949},{"NoteNumber":43,"Velocity":57,"Duration":160427,"SoundDuration":160427,"Delta":119072949},{"NoteNumber":44,"Velocity":58,"Duration":160427,"SoundDuration":160427,"Delta":119233377},{"NoteNumber":43,"Velocity":59,"Duration":160427,"SoundDuration":160427,"Delta":119393805},{"NoteNumber":44,"Velocity":59,"Duration":160427,"SoundDuration":160427,"Delta":119554233},{"NoteNumber":60,"Velocity":75,"Duration":80213,"SoundDuration":80213,"Delta":119607709},{"NoteNumber":60,"Velocity":78,"Duration":473684,"SoundDuration":473684,"Delta":119714660},{"NoteNumber":54,"Velocity":66,"Duration":473684,"SoundDuration":473684,"Delta":119714660},{"NoteNumber":51,"Velocity":66,"Duration":473684,"SoundDuration":473684,"Delta":119714660},{"NoteNumber":45,"Velocity":60,"Duration":157894,"SoundDuration":157894,"Delta":119714660},{"NoteNumber":44,"Velocity":61,"Duration":157894,"SoundDuration":157894,"Delta":119872555},{"NoteNumber":45,"Velocity":61,"Duration":157894,"SoundDuration":157894,"Delta":120030450},{"NoteNumber":44,"Velocity":62,"Duration":157894,"SoundDuration":157894,"Delta":120188345},{"NoteNumber":61,"Velocity":80,"Duration":78947,"SoundDuration":78947,"Delta":120240976},{"NoteNumber":61,"Velocity":81,"Duration":397351,"SoundDuration":397351,"Delta":120346239},{"NoteNumber":52,"Velocity":69,"Duration":397351,"SoundDuration":397351,"Delta":120346239},{"NoteNumber":49,"Velocity":69,"Duration":397351,"SoundDuration":397351,"Delta":120346239},{"NoteNumber":37,"Velocity":68,"Duration":397351,"SoundDuration":397351,"Delta":120346239},{"NoteNumber":44,"Velocity":68,"Duration":397351,"SoundDuration":397351,"Delta":120346239},{"NoteNumber":45,"Velocity":66,"Duration":1140114,"SoundDuration":1140114,"Delta":121135509},{"NoteNumber":49,"Velocity":66,"Duration":93659,"SoundDuration":93659,"Delta":121135509},{"NoteNumber":30,"Velocity":52,"Duration":231950,"SoundDuration":231950,"Delta":121135509},{"NoteNumber":37,"Velocity":56,"Duration":93659,"SoundDuration":93659,"Delta":121135509},{"NoteNumber":51,"Velocity":61,"Duration":92575,"SoundDuration":92575,"Delta":121229168},{"NoteNumber":39,"Velocity":51,"Duration":92575,"SoundDuration":92575,"Delta":121229168},{"NoteNumber":49,"Velocity":66,"Duration":90998,"SoundDuration":90998,"Delta":121321744},{"NoteNumber":37,"Velocity":56,"Duration":90998,"SoundDuration":90998,"Delta":121321744},{"NoteNumber":51,"Velocity":61,"Duration":89892,"SoundDuration":89892,"Delta":121412742},{"NoteNumber":39,"Velocity":51,"Duration":89892,"SoundDuration":89892,"Delta":121412742},{"NoteNumber":49,"Velocity":61,"Duration":107252,"SoundDuration":107252,"Delta":121502634},{"NoteNumber":37,"Velocity":51,"Duration":107252,"SoundDuration":107252,"Delta":121502634},{"NoteNumber":48,"Velocity":66,"Duration":99756,"SoundDuration":99756,"Delta":121609886},{"NoteNumber":36,"Velocity":56,"Duration":99756,"SoundDuration":99756,"Delta":121609886},{"NoteNumber":49,"Velocity":60,"Duration":97705,"SoundDuration":97705,"Delta":121709643},{"NoteNumber":37,"Velocity":51,"Duration":97705,"SoundDuration":97705,"Delta":121709643},{"NoteNumber":51,"Velocity":66,"Duration":96369,"SoundDuration":96369,"Delta":121809788},{"NoteNumber":39,"Velocity":56,"Duration":96369,"SoundDuration":96369,"Delta":121809788},{"NoteNumber":52,"Velocity":61,"Duration":94786,"SoundDuration":94786,"Delta":121906157},{"NoteNumber":40,"Velocity":51,"Duration":94786,"SoundDuration":94786,"Delta":121906157},{"NoteNumber":54,"Velocity":66,"Duration":93137,"SoundDuration":93137,"Delta":122000944},{"NoteNumber":42,"Velocity":56,"Duration":93137,"SoundDuration":93137,"Delta":122000944},{"NoteNumber":56,"Velocity":61,"Duration":91855,"SoundDuration":91855,"Delta":122094082},{"NoteNumber":44,"Velocity":51,"Duration":91855,"SoundDuration":91855,"Delta":122094082},{"NoteNumber":57,"Velocity":66,"Duration":89686,"SoundDuration":89686,"Delta":122185938},{"NoteNumber":45,"Velocity":56,"Duration":535874,"SoundDuration":535874,"Delta":122185938},{"NoteNumber":56,"Velocity":60,"Duration":89686,"SoundDuration":89686,"Delta":122277866},{"NoteNumber":44,"Velocity":51,"Duration":89686,"SoundDuration":89686,"Delta":122277866},{"NoteNumber":54,"Velocity":59,"Duration":89686,"SoundDuration":89686,"Delta":122367552},{"NoteNumber":42,"Velocity":50,"Duration":89686,"SoundDuration":89686,"Delta":122367552},{"NoteNumber":52,"Velocity":60,"Duration":89686,"SoundDuration":89686,"Delta":122457238},{"NoteNumber":40,"Velocity":51,"Duration":89686,"SoundDuration":89686,"Delta":122457238},{"NoteNumber":51,"Velocity":62,"Duration":89686,"SoundDuration":89686,"Delta":122546924},{"NoteNumber":39,"Velocity":52,"Duration":89686,"SoundDuration":89686,"Delta":122546924},{"NoteNumber":49,"Velocity":63,"Duration":89686,"SoundDuration":89686,"Delta":122636610},{"NoteNumber":37,"Velocity":53,"Duration":89686,"SoundDuration":89686,"Delta":122636610},{"NoteNumber":48,"Velocity":65,"Duration":91901,"SoundDuration":91901,"Delta":122726296},{"NoteNumber":36,"Velocity":55,"Duration":91901,"SoundDuration":91901,"Delta":122726296},{"NoteNumber":49,"Velocity":66,"Duration":93923,"SoundDuration":93923,"Delta":122820534},{"NoteNumber":37,"Velocity":56,"Duration":93923,"SoundDuration":93923,"Delta":122820534},{"NoteNumber":51,"Velocity":68,"Duration":95982,"SoundDuration":95982,"Delta":122914457},{"NoteNumber":39,"Velocity":57,"Duration":95982,"SoundDuration":95982,"Delta":122914457},{"NoteNumber":52,"Velocity":70,"Duration":98036,"SoundDuration":98036,"Delta":123010440},{"NoteNumber":40,"Velocity":59,"Duration":98036,"SoundDuration":98036,"Delta":123010440},{"NoteNumber":51,"Velocity":72,"Duration":100427,"SoundDuration":100427,"Delta":123108476},{"NoteNumber":39,"Velocity":61,"Duration":100427,"SoundDuration":100427,"Delta":123108476},{"NoteNumber":49,"Velocity":74,"Duration":180282,"SoundDuration":180282,"Delta":123208904},{"NoteNumber":37,"Velocity":62,"Duration":180282,"SoundDuration":180282,"Delta":123208904},{"NoteNumber":25,"Velocity":52,"Duration":409958,"SoundDuration":409958,"Delta":123239702},{"NoteNumber":44,"Velocity":88,"Duration":127659,"SoundDuration":127659,"Delta":123394342},{"NoteNumber":49,"Velocity":88,"Duration":127659,"SoundDuration":127659,"Delta":123394342},{"NoteNumber":40,"Velocity":62,"Duration":255319,"SoundDuration":255319,"Delta":123394342},{"NoteNumber":68,"Velocity":65,"Duration":69124,"SoundDuration":69124,"Delta":124734645},{"NoteNumber":68,"Velocity":72,"Duration":1105263,"SoundDuration":1105263,"Delta":124826811},{"NoteNumber":63,"Velocity":61,"Duration":1105263,"SoundDuration":1105263,"Delta":124826811},{"NoteNumber":59,"Velocity":61,"Duration":1105263,"SoundDuration":1105263,"Delta":124826811},{"NoteNumber":56,"Velocity":61,"Duration":157894,"SoundDuration":157894,"Delta":124826811},{"NoteNumber":44,"Velocity":55,"Duration":1263158,"SoundDuration":1263158,"Delta":124826811},{"NoteNumber":55,"Velocity":61,"Duration":157894,"SoundDuration":157894,"Delta":124984705},{"NoteNumber":54,"Velocity":60,"Duration":157894,"SoundDuration":157894,"Delta":125142600},{"NoteNumber":53,"Velocity":59,"Duration":157894,"SoundDuration":157894,"Delta":125300495},{"NoteNumber":52,"Velocity":58,"Duration":157894,"SoundDuration":157894,"Delta":125458390},{"NoteNumber":51,"Velocity":57,"Duration":157894,"SoundDuration":157894,"Delta":125616284},{"NoteNumber":50,"Velocity":56,"Duration":157894,"SoundDuration":157894,"Delta":125774179},{"NoteNumber":51,"Velocity":55,"Duration":157894,"SoundDuration":157894,"Delta":125932074},{"NoteNumber":73,"Velocity":70,"Duration":78947,"SoundDuration":78947,"Delta":125984706},{"NoteNumber":73,"Velocity":71,"Duration":1105263,"SoundDuration":1105263,"Delta":126089969},{"NoteNumber":64,"Velocity":60,"Duration":1105263,"SoundDuration":1105263,"Delta":126089969},{"NoteNumber":61,"Velocity":60,"Duration":1105263,"SoundDuration":1105263,"Delta":126089969},{"NoteNumber":43,"Velocity":55,"Duration":1052631,"SoundDuration":1052631,"Delta":126089969},{"NoteNumber":52,"Velocity":60,"Duration":157894,"SoundDuration":157894,"Delta":126089969},{"NoteNumber":51,"Velocity":53,"Duration":157894,"SoundDuration":157894,"Delta":126247863},{"NoteNumber":50,"Velocity":53,"Duration":157894,"SoundDuration":157894,"Delta":126405758},{"NoteNumber":49,"Velocity":53,"Duration":157894,"SoundDuration":157894,"Delta":126563653},{"NoteNumber":48,"Velocity":53,"Duration":157894,"SoundDuration":157894,"Delta":126721548},{"NoteNumber":47,"Velocity":53,"Duration":157894,"SoundDuration":157894,"Delta":126879442},{"NoteNumber":46,"Velocity":53,"Duration":157894,"SoundDuration":157894,"Delta":127037337},{"NoteNumber":43,"Velocity":53,"Duration":157894,"SoundDuration":157894,"Delta":127195232},{"NoteNumber":71,"Velocity":69,"Duration":78947,"SoundDuration":78947,"Delta":127247864},{"NoteNumber":71,"Velocity":70,"Duration":514285,"SoundDuration":514285,"Delta":127353127},{"NoteNumber":63,"Velocity":59,"Duration":514285,"SoundDuration":514285,"Delta":127353127},{"NoteNumber":59,"Velocity":59,"Duration":514285,"SoundDuration":514285,"Delta":127353127},{"NoteNumber":44,"Velocity":52,"Duration":685714,"SoundDuration":685714,"Delta":127353127},{"NoteNumber":45,"Velocity":52,"Duration":171428,"SoundDuration":171428,"Delta":127524555},{"NoteNumber":46,"Velocity":53,"Duration":171428,"SoundDuration":171428,"Delta":127695984},{"NoteNumber":47,"Velocity":54,"Duration":171428,"SoundDuration":171428,"Delta":127867413},{"NoteNumber":69,"Velocity":68,"Duration":85714,"SoundDuration":85714,"Delta":127924555},{"NoteNumber":69,"Velocity":71,"Duration":514285,"SoundDuration":514285,"Delta":128038841},{"NoteNumber":64,"Velocity":60,"Duration":514285,"SoundDuration":514285,"Delta":128038841},{"NoteNumber":61,"Velocity":60,"Duration":514285,"SoundDuration":514285,"Delta":128038841},{"NoteNumber":37,"Velocity":51,"Duration":685714,"SoundDuration":685714,"Delta":128038841},{"NoteNumber":48,"Velocity":54,"Duration":171428,"SoundDuration":171428,"Delta":128038841},{"NoteNumber":49,"Velocity":55,"Duration":171428,"SoundDuration":171428,"Delta":128210270},{"NoteNumber":48,"Velocity":56,"Duration":171428,"SoundDuration":171428,"Delta":128381698},{"NoteNumber":49,"Velocity":56,"Duration":171428,"SoundDuration":171428,"Delta":128553127},{"NoteNumber":68,"Velocity":71,"Duration":114285,"SoundDuration":114285,"Delta":128610270},{"NoteNumber":68,"Velocity":74,"Duration":459183,"SoundDuration":459183,"Delta":128724556},{"NoteNumber":63,"Velocity":63,"Duration":459183,"SoundDuration":459183,"Delta":128724556},{"NoteNumber":59,"Velocity":63,"Duration":459183,"SoundDuration":459183,"Delta":128724556},{"NoteNumber":50,"Velocity":57,"Duration":153061,"SoundDuration":153061,"Delta":128724556},{"NoteNumber":51,"Velocity":58,"Duration":153061,"SoundDuration":153061,"Delta":128877617},{"NoteNumber":50,"Velocity":59,"Duration":153061,"SoundDuration":153061,"Delta":129030678},{"NoteNumber":51,"Velocity":59,"Duration":153061,"SoundDuration":153061,"Delta":129183739},{"NoteNumber":67,"Velocity":72,"Duration":76530,"SoundDuration":76530,"Delta":129234760},{"NoteNumber":67,"Velocity":75,"Duration":473684,"SoundDuration":473684,"Delta":129336801},{"NoteNumber":58,"Velocity":63,"Duration":473684,"SoundDuration":473684,"Delta":129336801},{"NoteNumber":61,"Velocity":63,"Duration":473684,"SoundDuration":473684,"Delta":129336801},{"NoteNumber":52,"Velocity":60,"Duration":157894,"SoundDuration":157894,"Delta":129336801},{"NoteNumber":51,"Velocity":61,"Duration":157894,"SoundDuration":157894,"Delta":129494695},{"NoteNumber":52,"Velocity":61,"Duration":157894,"SoundDuration":157894,"Delta":129652590},{"NoteNumber":51,"Velocity":62,"Duration":157894,"SoundDuration":157894,"Delta":129810485},{"NoteNumber":68,"Velocity":77,"Duration":78947,"SoundDuration":78947,"Delta":129863117},{"NoteNumber":68,"Velocity":78,"Duration":397350,"SoundDuration":397350,"Delta":129968380},{"NoteNumber":59,"Velocity":66,"Duration":397350,"SoundDuration":397350,"Delta":129968380},{"NoteNumber":56,"Velocity":66,"Duration":397350,"SoundDuration":397350,"Delta":129968380},{"NoteNumber":44,"Velocity":55,"Duration":397350,"SoundDuration":397350,"Delta":129968380},{"NoteNumber":51,"Velocity":63,"Duration":397350,"SoundDuration":397350,"Delta":129968380},{"NoteNumber":52,"Velocity":66,"Duration":1144570,"SoundDuration":1144570,"Delta":130757837},{"NoteNumber":56,"Velocity":66,"Duration":95905,"SoundDuration":95905,"Delta":130757837},{"NoteNumber":37,"Velocity":52,"Duration":236271,"SoundDuration":236271,"Delta":130757837},{"NoteNumber":44,"Velocity":56,"Duration":95905,"SoundDuration":95905,"Delta":130757837},{"NoteNumber":57,"Velocity":61,"Duration":94122,"SoundDuration":94122,"Delta":130853742},{"NoteNumber":45,"Velocity":51,"Duration":94122,"SoundDuration":94122,"Delta":130853742},{"NoteNumber":56,"Velocity":66,"Duration":91958,"SoundDuration":91958,"Delta":130947865},{"NoteNumber":44,"Velocity":56,"Duration":91958,"SoundDuration":91958,"Delta":130947865},{"NoteNumber":57,"Velocity":61,"Duration":89892,"SoundDuration":89892,"Delta":131039823},{"NoteNumber":45,"Velocity":51,"Duration":89892,"SoundDuration":89892,"Delta":131039823},{"NoteNumber":56,"Velocity":61,"Duration":92663,"SoundDuration":92663,"Delta":131129715},{"NoteNumber":44,"Velocity":51,"Duration":92663,"SoundDuration":92663,"Delta":131129715},{"NoteNumber":55,"Velocity":66,"Duration":100502,"SoundDuration":100502,"Delta":131222379},{"NoteNumber":43,"Velocity":56,"Duration":100502,"SoundDuration":100502,"Delta":131222379},{"NoteNumber":56,"Velocity":60,"Duration":99159,"SoundDuration":99159,"Delta":131322881},{"NoteNumber":44,"Velocity":51,"Duration":99159,"SoundDuration":99159,"Delta":131322881},{"NoteNumber":58,"Velocity":66,"Duration":97959,"SoundDuration":97959,"Delta":131424516},{"NoteNumber":46,"Velocity":56,"Duration":97959,"SoundDuration":97959,"Delta":131424516},{"NoteNumber":59,"Velocity":61,"Duration":96822,"SoundDuration":96822,"Delta":131522475},{"NoteNumber":47,"Velocity":51,"Duration":96822,"SoundDuration":96822,"Delta":131522475},{"NoteNumber":61,"Velocity":66,"Duration":95709,"SoundDuration":95709,"Delta":131619297},{"NoteNumber":49,"Velocity":56,"Duration":95709,"SoundDuration":95709,"Delta":131619297},{"NoteNumber":63,"Velocity":61,"Duration":94620,"SoundDuration":94620,"Delta":131715007},{"NoteNumber":51,"Velocity":51,"Duration":94620,"SoundDuration":94620,"Delta":131715007},{"NoteNumber":64,"Velocity":66,"Duration":92779,"SoundDuration":92779,"Delta":131809628},{"NoteNumber":52,"Velocity":56,"Duration":551305,"SoundDuration":551305,"Delta":131809628},{"NoteNumber":63,"Velocity":60,"Duration":92165,"SoundDuration":92165,"Delta":131904711},{"NoteNumber":51,"Velocity":51,"Duration":92165,"SoundDuration":92165,"Delta":131904711},{"NoteNumber":61,"Velocity":59,"Duration":92165,"SoundDuration":92165,"Delta":131996877},{"NoteNumber":49,"Velocity":50,"Duration":92165,"SoundDuration":92165,"Delta":131996877},{"NoteNumber":59,"Velocity":60,"Duration":92165,"SoundDuration":92165,"Delta":132089043},{"NoteNumber":47,"Velocity":51,"Duration":92165,"SoundDuration":92165,"Delta":132089043},{"NoteNumber":58,"Velocity":62,"Duration":92165,"SoundDuration":92165,"Delta":132181209},{"NoteNumber":46,"Velocity":52,"Duration":92165,"SoundDuration":92165,"Delta":132181209},{"NoteNumber":56,"Velocity":63,"Duration":92165,"SoundDuration":92165,"Delta":132273375},{"NoteNumber":44,"Velocity":53,"Duration":92165,"SoundDuration":92165,"Delta":132273375},{"NoteNumber":55,"Velocity":65,"Duration":92521,"SoundDuration":92521,"Delta":132365541},{"NoteNumber":43,"Velocity":55,"Duration":92521,"SoundDuration":92521,"Delta":132365541},{"NoteNumber":56,"Velocity":66,"Duration":93923,"SoundDuration":93923,"Delta":132460399},{"NoteNumber":44,"Velocity":56,"Duration":93923,"SoundDuration":93923,"Delta":132460399},{"NoteNumber":58,"Velocity":68,"Duration":95982,"SoundDuration":95982,"Delta":132554322},{"NoteNumber":46,"Velocity":57,"Duration":95982,"SoundDuration":95982,"Delta":132554322},{"NoteNumber":59,"Velocity":70,"Duration":98036,"SoundDuration":98036,"Delta":132650305},{"NoteNumber":47,"Velocity":59,"Duration":98036,"SoundDuration":98036,"Delta":132650305},{"NoteNumber":58,"Velocity":72,"Duration":100427,"SoundDuration":100427,"Delta":132748341},{"NoteNumber":46,"Velocity":61,"Duration":100427,"SoundDuration":100427,"Delta":132748341},{"NoteNumber":56,"Velocity":74,"Duration":180282,"SoundDuration":180282,"Delta":132848769},{"NoteNumber":44,"Velocity":62,"Duration":180282,"SoundDuration":180282,"Delta":132848769},{"NoteNumber":47,"Velocity":88,"Duration":127659,"SoundDuration":127659,"Delta":133034206},{"NoteNumber":51,"Velocity":88,"Duration":127659,"SoundDuration":127659,"Delta":133034206},{"NoteNumber":56,"Velocity":88,"Duration":127659,"SoundDuration":127659,"Delta":133034206},{"NoteNumber":39,"Velocity":52,"Duration":255319,"SoundDuration":255319,"Delta":133034206},{"NoteNumber":32,"Velocity":52,"Duration":255319,"SoundDuration":255319,"Delta":133034206},{"NoteNumber":44,"Velocity":62,"Duration":255319,"SoundDuration":255319,"Delta":133034206},{"NoteNumber":64,"Velocity":50,"Duration":127659,"SoundDuration":127659,"Delta":134438462},{"NoteNumber":80,"Velocity":54,"Duration":76726,"SoundDuration":76726,"Delta":134566122},{"NoteNumber":83,"Velocity":54,"Duration":76726,"SoundDuration":76726,"Delta":134566122},{"NoteNumber":92,"Velocity":70,"Duration":76726,"SoundDuration":76726,"Delta":134566122},{"NoteNumber":76,"Velocity":59,"Duration":76726,"SoundDuration":76726,"Delta":134566122},{"NoteNumber":71,"Velocity":50,"Duration":76726,"SoundDuration":76726,"Delta":134566122},{"NoteNumber":59,"Velocity":49,"Duration":76726,"SoundDuration":76726,"Delta":135103206},{"NoteNumber":80,"Velocity":51,"Duration":76726,"SoundDuration":76726,"Delta":135179933},{"NoteNumber":83,"Velocity":51,"Duration":76726,"SoundDuration":76726,"Delta":135179933},{"NoteNumber":92,"Velocity":66,"Duration":76726,"SoundDuration":76726,"Delta":135179933},{"NoteNumber":76,"Velocity":58,"Duration":76726,"SoundDuration":76726,"Delta":135179933},{"NoteNumber":71,"Velocity":49,"Duration":76726,"SoundDuration":76726,"Delta":135179933},{"NoteNumber":64,"Velocity":55,"Duration":76726,"SoundDuration":76726,"Delta":135717017},{"NoteNumber":80,"Velocity":53,"Duration":1054375,"SoundDuration":1054375,"Delta":135793744},{"NoteNumber":83,"Velocity":53,"Duration":1054375,"SoundDuration":1054375,"Delta":135793744},{"NoteNumber":92,"Velocity":69,"Duration":853706,"SoundDuration":853706,"Delta":135793744},{"NoteNumber":76,"Velocity":63,"Duration":558140,"SoundDuration":558140,"Delta":135793744},{"NoteNumber":71,"Velocity":53,"Duration":558140,"SoundDuration":558140,"Delta":135793744},{"NoteNumber":59,"Velocity":44,"Duration":446068,"SoundDuration":446068,"Delta":136351884},{"NoteNumber":90,"Velocity":63,"Duration":100334,"SoundDuration":100334,"Delta":136647450},{"NoteNumber":88,"Velocity":63,"Duration":100334,"SoundDuration":100334,"Delta":136747785},{"NoteNumber":63,"Velocity":57,"Duration":50167,"SoundDuration":50167,"Delta":136797952},{"NoteNumber":81,"Velocity":55,"Duration":533488,"SoundDuration":533488,"Delta":136848119},{"NoteNumber":83,"Velocity":55,"Duration":533488,"SoundDuration":533488,"Delta":136848119},{"NoteNumber":87,"Velocity":71,"Duration":71770,"SoundDuration":71770,"Delta":136848119},{"NoteNumber":78,"Velocity":64,"Duration":533488,"SoundDuration":533488,"Delta":136848119},{"NoteNumber":71,"Velocity":54,"Duration":533488,"SoundDuration":533488,"Delta":136848119},{"NoteNumber":88,"Velocity":66,"Duration":61601,"SoundDuration":61601,"Delta":137135201},{"NoteNumber":81,"Velocity":55,"Duration":537568,"SoundDuration":537568,"Delta":137381607},{"NoteNumber":83,"Velocity":55,"Duration":537568,"SoundDuration":537568,"Delta":137381607},{"NoteNumber":90,"Velocity":72,"Duration":537568,"SoundDuration":537568,"Delta":137381607},{"NoteNumber":59,"Velocity":47,"Duration":537568,"SoundDuration":537568,"Delta":137381607},{"NoteNumber":64,"Velocity":55,"Duration":67873,"SoundDuration":67873,"Delta":137851302},{"NoteNumber":80,"Velocity":53,"Duration":1028952,"SoundDuration":1028952,"Delta":137919176},{"NoteNumber":83,"Velocity":53,"Duration":1028952,"SoundDuration":1028952,"Delta":137919176},{"NoteNumber":92,"Velocity":69,"Duration":822056,"SoundDuration":822056,"Delta":137919176},{"NoteNumber":76,"Velocity":63,"Duration":542986,"SoundDuration":542986,"Delta":137919176},{"NoteNumber":71,"Velocity":53,"Duration":542986,"SoundDuration":542986,"Delta":137919176},{"NoteNumber":59,"Velocity":46,"Duration":434242,"SoundDuration":434242,"Delta":138462162},{"NoteNumber":90,"Velocity":63,"Duration":103448,"SoundDuration":103448,"Delta":138741232},{"NoteNumber":88,"Velocity":63,"Duration":103448,"SoundDuration":103448,"Delta":138844680},{"NoteNumber":63,"Velocity":57,"Duration":51724,"SoundDuration":51724,"Delta":138896404},{"NoteNumber":81,"Velocity":55,"Duration":557013,"SoundDuration":557013,"Delta":138948128},{"NoteNumber":83,"Velocity":55,"Duration":557013,"SoundDuration":557013,"Delta":138948128},{"NoteNumber":87,"Velocity":71,"Duration":72289,"SoundDuration":72289,"Delta":138948128},{"NoteNumber":78,"Velocity":64,"Duration":557013,"SoundDuration":557013,"Delta":138948128},{"NoteNumber":71,"Velocity":54,"Duration":557013,"SoundDuration":557013,"Delta":138948128},{"NoteNumber":88,"Velocity":66,"Duration":66964,"SoundDuration":66964,"Delta":139237285},{"NoteNumber":81,"Velocity":55,"Duration":525367,"SoundDuration":525367,"Delta":139505142},{"NoteNumber":83,"Velocity":55,"Duration":525367,"SoundDuration":525367,"Delta":139505142},{"NoteNumber":90,"Velocity":72,"Duration":525367,"SoundDuration":525367,"Delta":139505142},{"NoteNumber":59,"Velocity":49,"Duration":525367,"SoundDuration":525367,"Delta":139505142},{"NoteNumber":64,"Velocity":55,"Duration":66964,"SoundDuration":66964,"Delta":139963545},{"NoteNumber":80,"Velocity":53,"Duration":1017840,"SoundDuration":1017840,"Delta":140030509},{"NoteNumber":83,"Velocity":53,"Duration":1017840,"SoundDuration":1017840,"Delta":140030509},{"NoteNumber":92,"Velocity":69,"Duration":810943,"SoundDuration":810943,"Delta":140030509},{"NoteNumber":76,"Velocity":63,"Duration":535714,"SoundDuration":535714,"Delta":140030509},{"NoteNumber":71,"Velocity":53,"Duration":535714,"SoundDuration":535714,"Delta":140030509},{"NoteNumber":59,"Velocity":47,"Duration":430401,"SoundDuration":430401,"Delta":140566223},{"NoteNumber":90,"Velocity":63,"Duration":103448,"SoundDuration":103448,"Delta":140841453},{"NoteNumber":88,"Velocity":63,"Duration":103448,"SoundDuration":103448,"Delta":140944901},{"NoteNumber":63,"Velocity":57,"Duration":51724,"SoundDuration":51724,"Delta":140996625},{"NoteNumber":81,"Velocity":55,"Duration":541651,"SoundDuration":541651,"Delta":141048349},{"NoteNumber":83,"Velocity":55,"Duration":541651,"SoundDuration":541651,"Delta":141048349},{"NoteNumber":87,"Velocity":71,"Duration":69767,"SoundDuration":69767,"Delta":141048349},{"NoteNumber":78,"Velocity":64,"Duration":541651,"SoundDuration":541651,"Delta":141048349},{"NoteNumber":71,"Velocity":54,"Duration":541651,"SoundDuration":541651,"Delta":141048349},{"NoteNumber":88,"Velocity":66,"Duration":65645,"SoundDuration":65645,"Delta":141327419},{"NoteNumber":81,"Velocity":55,"Duration":523900,"SoundDuration":523900,"Delta":141590001},{"NoteNumber":83,"Velocity":55,"Duration":523900,"SoundDuration":523900,"Delta":141590001},{"NoteNumber":90,"Velocity":72,"Duration":523900,"SoundDuration":523900,"Delta":141590001},{"NoteNumber":59,"Velocity":48,"Duration":523900,"SoundDuration":523900,"Delta":141590001},{"NoteNumber":68,"Velocity":57,"Duration":67415,"SoundDuration":67415,"Delta":142046486},{"NoteNumber":80,"Velocity":53,"Duration":539325,"SoundDuration":539325,"Delta":142113902},{"NoteNumber":83,"Velocity":53,"Duration":539325,"SoundDuration":539325,"Delta":142113902},{"NoteNumber":92,"Velocity":69,"Duration":814555,"SoundDuration":814555,"Delta":142113902},{"NoteNumber":76,"Velocity":63,"Duration":471910,"SoundDuration":471910,"Delta":142113902},{"NoteNumber":71,"Velocity":53,"Duration":471910,"SoundDuration":471910,"Delta":142113902},{"NoteNumber":64,"Velocity":47,"Duration":537029,"SoundDuration":537029,"Delta":142585812},{"NoteNumber":71,"Velocity":51,"Duration":503321,"SoundDuration":503321,"Delta":142619520},{"NoteNumber":80,"Velocity":59,"Duration":469614,"SoundDuration":469614,"Delta":142653228},{"NoteNumber":90,"Velocity":63,"Duration":129589,"SoundDuration":129589,"Delta":142928457},{"NoteNumber":88,"Velocity":63,"Duration":129589,"SoundDuration":129589,"Delta":143058047},{"NoteNumber":63,"Velocity":53,"Duration":455313,"SoundDuration":455313,"Delta":143122842},{"NoteNumber":71,"Velocity":58,"Duration":422915,"SoundDuration":422915,"Delta":143155239},{"NoteNumber":83,"Velocity":55,"Duration":450638,"SoundDuration":450638,"Delta":143187637},{"NoteNumber":87,"Velocity":71,"Duration":105078,"SoundDuration":105078,"Delta":143187637},{"NoteNumber":78,"Velocity":64,"Duration":390518,"SoundDuration":390518,"Delta":143187637},{"NoteNumber":88,"Velocity":66,"Duration":105078,"SoundDuration":105078,"Delta":143292715},{"NoteNumber":90,"Velocity":66,"Duration":120240,"SoundDuration":120240,"Delta":143397794},{"NoteNumber":92,"Velocity":66,"Duration":120240,"SoundDuration":120240,"Delta":143518035},{"NoteNumber":61,"Velocity":51,"Duration":519369,"SoundDuration":519369,"Delta":143578155},{"NoteNumber":68,"Velocity":54,"Duration":489308,"SoundDuration":489308,"Delta":143608215},{"NoteNumber":80,"Velocity":55,"Duration":527585,"SoundDuration":527585,"Delta":143638275},{"NoteNumber":90,"Velocity":72,"Duration":63559,"SoundDuration":63559,"Delta":143638275},{"NoteNumber":76,"Velocity":59,"Duration":459248,"SoundDuration":459248,"Delta":143638275},{"NoteNumber":88,"Velocity":70,"Duration":68337,"SoundDuration":68337,"Delta":143892513},{"NoteNumber":60,"Velocity":52,"Duration":574326,"SoundDuration":574326,"Delta":144097524},{"NoteNumber":68,"Velocity":54,"Duration":540158,"SoundDuration":540158,"Delta":144131692},{"NoteNumber":80,"Velocity":55,"Duration":505989,"SoundDuration":505989,"Delta":144165861},{"NoteNumber":87,"Velocity":74,"Duration":60851,"SoundDuration":60851,"Delta":144165861},{"NoteNumber":75,"Velocity":64,"Duration":505989,"SoundDuration":505989,"Delta":144165861},{"NoteNumber":88,"Velocity":77,"Duration":65645,"SoundDuration":65645,"Delta":144409269},{"NoteNumber":90,"Velocity":78,"Duration":389791,"SoundDuration":389791,"Delta":144671851},{"NoteNumber":56,"Velocity":50,"Duration":523720,"SoundDuration":523720,"Delta":144671851},{"NoteNumber":88,"Velocity":73,"Duration":133928,"SoundDuration":133928,"Delta":145061643},{"NoteNumber":61,"Velocity":53,"Duration":440629,"SoundDuration":440629,"Delta":145128607},{"NoteNumber":68,"Velocity":58,"Duration":407147,"SoundDuration":407147,"Delta":145162089},{"NoteNumber":80,"Velocity":55,"Duration":427045,"SoundDuration":427045,"Delta":145195571},{"NoteNumber":87,"Velocity":71,"Duration":106761,"SoundDuration":106761,"Delta":145195571},{"NoteNumber":76,"Velocity":64,"Duration":373665,"SoundDuration":373665,"Delta":145195571},{"NoteNumber":88,"Velocity":66,"Duration":106761,"SoundDuration":106761,"Delta":145302333},{"NoteNumber":90,"Velocity":66,"Duration":106761,"SoundDuration":106761,"Delta":145409094},{"NoteNumber":92,"Velocity":60,"Duration":106761,"SoundDuration":106761,"Delta":145515856},{"NoteNumber":80,"Velocity":55,"Duration":511084,"SoundDuration":511084,"Delta":145622617},{"NoteNumber":90,"Velocity":72,"Duration":64794,"SoundDuration":64794,"Delta":145622617},{"NoteNumber":56,"Velocity":50,"Duration":511084,"SoundDuration":511084,"Delta":145622617},{"NoteNumber":88,"Velocity":70,"Duration":64794,"SoundDuration":64794,"Delta":145881797},{"NoteNumber":60,"Velocity":52,"Duration":589955,"SoundDuration":589955,"Delta":146071331},{"NoteNumber":68,"Velocity":54,"Duration":558770,"SoundDuration":558770,"Delta":146102516},{"NoteNumber":80,"Velocity":55,"Duration":527585,"SoundDuration":527585,"Delta":146133701},{"NoteNumber":87,"Velocity":74,"Duration":63559,"SoundDuration":63559,"Delta":146133701},{"NoteNumber":75,"Velocity":64,"Duration":527585,"SoundDuration":527585,"Delta":146133701},{"NoteNumber":88,"Velocity":77,"Duration":68337,"SoundDuration":68337,"Delta":146387939},{"NoteNumber":90,"Velocity":78,"Duration":399437,"SoundDuration":399437,"Delta":146661287},{"NoteNumber":56,"Velocity":50,"Duration":538006,"SoundDuration":538006,"Delta":146661287},{"NoteNumber":88,"Velocity":73,"Duration":138568,"SoundDuration":138568,"Delta":147060725},{"NoteNumber":61,"Velocity":53,"Duration":439002,"SoundDuration":439002,"Delta":147130009},{"NoteNumber":68,"Velocity":58,"Duration":404360,"SoundDuration":404360,"Delta":147164651},{"NoteNumber":80,"Velocity":55,"Duration":422535,"SoundDuration":422535,"Delta":147199293},{"NoteNumber":87,"Velocity":71,"Duration":105633,"SoundDuration":105633,"Delta":147199293},{"NoteNumber":76,"Velocity":64,"Duration":369718,"SoundDuration":369718,"Delta":147199293},{"NoteNumber":88,"Velocity":66,"Duration":105633,"SoundDuration":105633,"Delta":147304927},{"NoteNumber":90,"Velocity":66,"Duration":105633,"SoundDuration":105633,"Delta":147410561},{"NoteNumber":92,"Velocity":66,"Duration":105633,"SoundDuration":105633,"Delta":147516195},{"NoteNumber":80,"Velocity":55,"Duration":539325,"SoundDuration":539325,"Delta":147621828},{"NoteNumber":90,"Velocity":72,"Duration":67415,"SoundDuration":67415,"Delta":147621828},{"NoteNumber":56,"Velocity":50,"Duration":539325,"SoundDuration":539325,"Delta":147621828},{"NoteNumber":88,"Velocity":70,"Duration":67415,"SoundDuration":67415,"Delta":147891491},{"NoteNumber":60,"Velocity":52,"Duration":592579,"SoundDuration":592579,"Delta":148093739},{"NoteNumber":68,"Velocity":54,"Duration":558871,"SoundDuration":558871,"Delta":148127447},{"NoteNumber":80,"Velocity":55,"Duration":525163,"SoundDuration":525163,"Delta":148161154},{"NoteNumber":87,"Velocity":74,"Duration":65645,"SoundDuration":65645,"Delta":148161154},{"NoteNumber":75,"Velocity":64,"Duration":525163,"SoundDuration":525163,"Delta":148161154},{"NoteNumber":85,"Velocity":69,"Duration":65645,"SoundDuration":65645,"Delta":148423736},{"NoteNumber":84,"Velocity":69,"Duration":539718,"SoundDuration":539718,"Delta":148686318},{"NoteNumber":56,"Velocity":50,"Duration":539718,"SoundDuration":539718,"Delta":148686318},{"NoteNumber":61,"Velocity":53,"Duration":439002,"SoundDuration":439002,"Delta":149156753},{"NoteNumber":68,"Velocity":58,"Duration":404360,"SoundDuration":404360,"Delta":149191395},{"NoteNumber":80,"Velocity":55,"Duration":422535,"SoundDuration":422535,"Delta":149226037},{"NoteNumber":87,"Velocity":71,"Duration":105633,"SoundDuration":105633,"Delta":149226037},{"NoteNumber":76,"Velocity":64,"Duration":369718,"SoundDuration":369718,"Delta":149226037},{"NoteNumber":88,"Velocity":66,"Duration":105633,"SoundDuration":105633,"Delta":149331671},{"NoteNumber":90,"Velocity":66,"Duration":105633,"SoundDuration":105633,"Delta":149437304},{"NoteNumber":92,"Velocity":66,"Duration":105633,"SoundDuration":105633,"Delta":149542938},{"NoteNumber":85,"Velocity":55,"Duration":532150,"SoundDuration":532150,"Delta":149648572},{"NoteNumber":81,"Velocity":55,"Duration":532150,"SoundDuration":532150,"Delta":149648572},{"NoteNumber":90,"Velocity":72,"Duration":66518,"SoundDuration":66518,"Delta":149648572},{"NoteNumber":76,"Velocity":50,"Duration":532150,"SoundDuration":532150,"Delta":149648572},{"NoteNumber":69,"Velocity":42,"Duration":532150,"SoundDuration":532150,"Delta":149648572},{"NoteNumber":73,"Velocity":42,"Duration":532150,"SoundDuration":532150,"Delta":149648572},{"NoteNumber":88,"Velocity":70,"Duration":66518,"SoundDuration":66518,"Delta":149914647},{"NoteNumber":81,"Velocity":55,"Duration":554272,"SoundDuration":554272,"Delta":150180723},{"NoteNumber":85,"Velocity":55,"Duration":554272,"SoundDuration":554272,"Delta":150180723},{"NoteNumber":87,"Velocity":74,"Duration":69284,"SoundDuration":69284,"Delta":150180723},{"NoteNumber":66,"Velocity":52,"Duration":554272,"SoundDuration":554272,"Delta":150180723},{"NoteNumber":73,"Velocity":54,"Duration":554272,"SoundDuration":554272,"Delta":150180723},{"NoteNumber":75,"Velocity":64,"Duration":554272,"SoundDuration":554272,"Delta":150180723},{"NoteNumber":88,"Velocity":77,"Duration":69284,"SoundDuration":69284,"Delta":150457859},{"NoteNumber":81,"Velocity":62,"Duration":542986,"SoundDuration":542986,"Delta":150734996},{"NoteNumber":85,"Velocity":62,"Duration":542986,"SoundDuration":542986,"Delta":150734996},{"NoteNumber":90,"Velocity":81,"Duration":542986,"SoundDuration":542986,"Delta":150734996},{"NoteNumber":78,"Velocity":50,"Duration":542986,"SoundDuration":542986,"Delta":150734996},{"NoteNumber":63,"Velocity":42,"Duration":542986,"SoundDuration":542986,"Delta":150734996},{"NoteNumber":69,"Velocity":42,"Duration":542986,"SoundDuration":542986,"Delta":150734996},{"NoteNumber":73,"Velocity":42,"Duration":542986,"SoundDuration":542986,"Delta":150734996},{"NoteNumber":88,"Velocity":71,"Duration":117416,"SoundDuration":117416,"Delta":151277982},{"NoteNumber":80,"Velocity":60,"Duration":503383,"SoundDuration":503383,"Delta":151277982},{"NoteNumber":68,"Velocity":54,"Duration":503383,"SoundDuration":503383,"Delta":151277982},{"NoteNumber":73,"Velocity":54,"Duration":503383,"SoundDuration":503383,"Delta":151277982},{"NoteNumber":76,"Velocity":64,"Duration":503383,"SoundDuration":503383,"Delta":151277982},{"NoteNumber":87,"Velocity":63,"Duration":117416,"SoundDuration":117416,"Delta":151395399},{"NoteNumber":85,"Velocity":63,"Duration":117416,"SoundDuration":117416,"Delta":151512815},{"NoteNumber":88,"Velocity":63,"Duration":151133,"SoundDuration":151133,"Delta":151630232},{"NoteNumber":87,"Velocity":72,"Duration":120240,"SoundDuration":120240,"Delta":151781366},{"NoteNumber":80,"Velocity":61,"Duration":504045,"SoundDuration":504045,"Delta":151781366},{"NoteNumber":68,"Velocity":54,"Duration":397667,"SoundDuration":397667,"Delta":151781366},{"NoteNumber":75,"Velocity":54,"Duration":397667,"SoundDuration":397667,"Delta":151781366},{"NoteNumber":78,"Velocity":64,"Duration":397667,"SoundDuration":397667,"Delta":151781366},{"NoteNumber":85,"Velocity":64,"Duration":120240,"SoundDuration":120240,"Delta":151901606},{"NoteNumber":84,"Velocity":64,"Duration":120240,"SoundDuration":120240,"Delta":152021847},{"NoteNumber":87,"Velocity":63,"Duration":143324,"SoundDuration":143324,"Delta":152142087},{"NoteNumber":61,"Velocity":54,"Duration":620074,"SoundDuration":620074,"Delta":152179033},{"NoteNumber":68,"Velocity":54,"Duration":583370,"SoundDuration":583370,"Delta":152215737},{"NoteNumber":73,"Velocity":54,"Duration":548323,"SoundDuration":548323,"Delta":152250784},{"NoteNumber":80,"Velocity":60,"Duration":513696,"SoundDuration":513696,"Delta":152285411},{"NoteNumber":85,"Velocity":54,"Duration":67576,"SoundDuration":67576,"Delta":152285411},{"NoteNumber":76,"Velocity":64,"Duration":513696,"SoundDuration":513696,"Delta":152285411},{"NoteNumber":87,"Velocity":49,"Duration":66047,"SoundDuration":66047,"Delta":152352987},{"NoteNumber":85,"Velocity":54,"Duration":64377,"SoundDuration":64377,"Delta":152419035},{"NoteNumber":87,"Velocity":49,"Duration":63979,"SoundDuration":63979,"Delta":152483412},{"NoteNumber":85,"Velocity":54,"Duration":63654,"SoundDuration":63654,"Delta":152547392},{"NoteNumber":87,"Velocity":49,"Duration":62541,"SoundDuration":62541,"Delta":152611046},{"NoteNumber":85,"Velocity":54,"Duration":62315,"SoundDuration":62315,"Delta":152673588},{"NoteNumber":87,"Velocity":46,"Duration":63203,"SoundDuration":63203,"Delta":152735904},{"NoteNumber":85,"Velocity":53,"Duration":61627,"SoundDuration":61627,"Delta":152799107},{"NoteNumber":87,"Velocity":48,"Duration":61331,"SoundDuration":61331,"Delta":152860735},{"NoteNumber":85,"Velocity":53,"Duration":62225,"SoundDuration":62225,"Delta":152922066},{"NoteNumber":87,"Velocity":47,"Duration":62761,"SoundDuration":62761,"Delta":152984292},{"NoteNumber":85,"Velocity":53,"Duration":84992,"SoundDuration":84992,"Delta":153047053},{"NoteNumber":87,"Velocity":46,"Duration":88296,"SoundDuration":88296,"Delta":153132046},{"NoteNumber":85,"Velocity":52,"Duration":97279,"SoundDuration":97279,"Delta":153220343},{"NoteNumber":84,"Velocity":48,"Duration":64992,"SoundDuration":64992,"Delta":153330581},{"NoteNumber":85,"Velocity":49,"Duration":65502,"SoundDuration":65502,"Delta":153395573},{"NoteNumber":86,"Velocity":51,"Duration":65847,"SoundDuration":65847,"Delta":153461076},{"NoteNumber":87,"Velocity":53,"Duration":66372,"SoundDuration":66372,"Delta":153526924},{"NoteNumber":88,"Velocity":55,"Duration":66904,"SoundDuration":66904,"Delta":153593296},{"NoteNumber":89,"Velocity":56,"Duration":67265,"SoundDuration":67265,"Delta":153660201},{"NoteNumber":90,"Velocity":58,"Duration":67843,"SoundDuration":67843,"Delta":153727467},{"NoteNumber":91,"Velocity":60,"Duration":69023,"SoundDuration":69023,"Delta":153795310},{"NoteNumber":92,"Velocity":70,"Duration":593986,"SoundDuration":593986,"Delta":153849979},{"NoteNumber":64,"Velocity":49,"Duration":593986,"SoundDuration":593986,"Delta":153849979},{"NoteNumber":80,"Velocity":48,"Duration":76726,"SoundDuration":76726,"Delta":154137061},{"NoteNumber":83,"Velocity":48,"Duration":76726,"SoundDuration":76726,"Delta":154137061},{"NoteNumber":71,"Velocity":45,"Duration":76726,"SoundDuration":76726,"Delta":154137061},{"NoteNumber":76,"Velocity":53,"Duration":76726,"SoundDuration":76726,"Delta":154137061},{"NoteNumber":92,"Velocity":66,"Duration":566746,"SoundDuration":566746,"Delta":154443966},{"NoteNumber":59,"Velocity":49,"Duration":566746,"SoundDuration":566746,"Delta":154443966},{"NoteNumber":80,"Velocity":48,"Duration":73349,"SoundDuration":73349,"Delta":154717315},{"NoteNumber":83,"Velocity":50,"Duration":73349,"SoundDuration":73349,"Delta":154717315},{"NoteNumber":71,"Velocity":44,"Duration":73349,"SoundDuration":73349,"Delta":154717315},{"NoteNumber":76,"Velocity":52,"Duration":73349,"SoundDuration":73349,"Delta":154717315},{"NoteNumber":92,"Velocity":69,"Duration":817319,"SoundDuration":817319,"Delta":155010713},{"NoteNumber":64,"Velocity":49,"Duration":558140,"SoundDuration":558140,"Delta":155010713},{"NoteNumber":80,"Velocity":54,"Duration":69767,"SoundDuration":69767,"Delta":155289783},{"NoteNumber":83,"Velocity":54,"Duration":69767,"SoundDuration":69767,"Delta":155289783},{"NoteNumber":71,"Velocity":50,"Duration":69767,"SoundDuration":69767,"Delta":155289783},{"NoteNumber":76,"Velocity":59,"Duration":69767,"SoundDuration":69767,"Delta":155289783},{"NoteNumber":59,"Velocity":49,"Duration":471568,"SoundDuration":471568,"Delta":155568853},{"NoteNumber":80,"Velocity":51,"Duration":53097,"SoundDuration":53097,"Delta":155828033},{"NoteNumber":83,"Velocity":51,"Duration":53097,"SoundDuration":53097,"Delta":155828033},{"NoteNumber":90,"Velocity":63,"Duration":106194,"SoundDuration":106194,"Delta":155828033},{"NoteNumber":76,"Velocity":58,"Duration":53097,"SoundDuration":53097,"Delta":155828033},{"NoteNumber":71,"Velocity":49,"Duration":53097,"SoundDuration":53097,"Delta":155828033},{"NoteNumber":88,"Velocity":63,"Duration":106194,"SoundDuration":106194,"Delta":155934228},{"NoteNumber":87,"Velocity":71,"Duration":70754,"SoundDuration":70754,"Delta":156040422},{"NoteNumber":63,"Velocity":49,"Duration":542198,"SoundDuration":542198,"Delta":156040422},{"NoteNumber":81,"Velocity":51,"Duration":64794,"SoundDuration":64794,"Delta":156323441},{"NoteNumber":83,"Velocity":54,"Duration":64794,"SoundDuration":64794,"Delta":156323441},{"NoteNumber":88,"Velocity":66,"Duration":64794,"SoundDuration":64794,"Delta":156323441},{"NoteNumber":78,"Velocity":59,"Duration":64794,"SoundDuration":64794,"Delta":156323441},{"NoteNumber":71,"Velocity":50,"Duration":64794,"SoundDuration":64794,"Delta":156323441},{"NoteNumber":90,"Velocity":72,"Duration":537568,"SoundDuration":537568,"Delta":156582621},{"NoteNumber":59,"Velocity":49,"Duration":537568,"SoundDuration":537568,"Delta":156582621},{"NoteNumber":81,"Velocity":51,"Duration":67873,"SoundDuration":67873,"Delta":156848696},{"NoteNumber":83,"Velocity":54,"Duration":67873,"SoundDuration":67873,"Delta":156848696},{"NoteNumber":75,"Velocity":58,"Duration":67873,"SoundDuration":67873,"Delta":156848696},{"NoteNumber":71,"Velocity":49,"Duration":67873,"SoundDuration":67873,"Delta":156848696},{"NoteNumber":92,"Velocity":69,"Duration":819009,"SoundDuration":819009,"Delta":157120189},{"NoteNumber":64,"Velocity":49,"Duration":558140,"SoundDuration":558140,"Delta":157120189},{"NoteNumber":80,"Velocity":54,"Duration":69767,"SoundDuration":69767,"Delta":157399259},{"NoteNumber":83,"Velocity":54,"Duration":69767,"SoundDuration":69767,"Delta":157399259},{"NoteNumber":71,"Velocity":50,"Duration":69767,"SoundDuration":69767,"Delta":157399259},{"NoteNumber":76,"Velocity":59,"Duration":69767,"SoundDuration":69767,"Delta":157399259},{"NoteNumber":59,"Velocity":49,"Duration":472137,"SoundDuration":472137,"Delta":157678329},{"NoteNumber":80,"Velocity":51,"Duration":52816,"SoundDuration":52816,"Delta":157939199},{"NoteNumber":83,"Velocity":51,"Duration":52816,"SoundDuration":52816,"Delta":157939199},{"NoteNumber":90,"Velocity":63,"Duration":105633,"SoundDuration":105633,"Delta":157939199},{"NoteNumber":76,"Velocity":58,"Duration":52816,"SoundDuration":52816,"Delta":157939199},{"NoteNumber":71,"Velocity":49,"Duration":52816,"SoundDuration":52816,"Delta":157939199},{"NoteNumber":88,"Velocity":63,"Duration":105633,"SoundDuration":105633,"Delta":158044833},{"NoteNumber":87,"Velocity":71,"Duration":67873,"SoundDuration":67873,"Delta":158150466},{"NoteNumber":63,"Velocity":49,"Duration":530672,"SoundDuration":530672,"Delta":158150466},{"NoteNumber":81,"Velocity":51,"Duration":64794,"SoundDuration":64794,"Delta":158421959},{"NoteNumber":83,"Velocity":54,"Duration":64794,"SoundDuration":64794,"Delta":158421959},{"NoteNumber":88,"Velocity":66,"Duration":64794,"SoundDuration":64794,"Delta":158421959},{"NoteNumber":78,"Velocity":59,"Duration":64794,"SoundDuration":64794,"Delta":158421959},{"NoteNumber":71,"Velocity":50,"Duration":64794,"SoundDuration":64794,"Delta":158421959},{"NoteNumber":90,"Velocity":72,"Duration":537568,"SoundDuration":537568,"Delta":158681139},{"NoteNumber":59,"Velocity":49,"Duration":537568,"SoundDuration":537568,"Delta":158681139},{"NoteNumber":81,"Velocity":51,"Duration":67873,"SoundDuration":67873,"Delta":158947214},{"NoteNumber":83,"Velocity":54,"Duration":67873,"SoundDuration":67873,"Delta":158947214},{"NoteNumber":75,"Velocity":58,"Duration":67873,"SoundDuration":67873,"Delta":158947214},{"NoteNumber":71,"Velocity":49,"Duration":67873,"SoundDuration":67873,"Delta":158947214},{"NoteNumber":92,"Velocity":69,"Duration":824215,"SoundDuration":824215,"Delta":159218707},{"NoteNumber":64,"Velocity":49,"Duration":558140,"SoundDuration":558140,"Delta":159218707},{"NoteNumber":80,"Velocity":54,"Duration":69767,"SoundDuration":69767,"Delta":159497777},{"NoteNumber":83,"Velocity":54,"Duration":69767,"SoundDuration":69767,"Delta":159497777},{"NoteNumber":71,"Velocity":50,"Duration":69767,"SoundDuration":69767,"Delta":159497777},{"NoteNumber":76,"Velocity":59,"Duration":69767,"SoundDuration":69767,"Delta":159497777},{"NoteNumber":64,"Velocity":49,"Duration":490374,"SoundDuration":490374,"Delta":159776847},{"NoteNumber":80,"Velocity":51,"Duration":56074,"SoundDuration":56074,"Delta":160042923},{"NoteNumber":83,"Velocity":51,"Duration":56074,"SoundDuration":56074,"Delta":160042923},{"NoteNumber":90,"Velocity":63,"Duration":112149,"SoundDuration":112149,"Delta":160042923},{"NoteNumber":80,"Velocity":58,"Duration":56074,"SoundDuration":56074,"Delta":160042923},{"NoteNumber":71,"Velocity":49,"Duration":56074,"SoundDuration":56074,"Delta":160042923},{"NoteNumber":88,"Velocity":63,"Duration":112149,"SoundDuration":112149,"Delta":160155072},{"NoteNumber":87,"Velocity":71,"Duration":112782,"SoundDuration":112782,"Delta":160267222},{"NoteNumber":63,"Velocity":49,"Duration":457672,"SoundDuration":457672,"Delta":160267222},{"NoteNumber":88,"Velocity":66,"Duration":112781,"SoundDuration":112781,"Delta":160380004},{"NoteNumber":80,"Velocity":54,"Duration":58027,"SoundDuration":58027,"Delta":160492786},{"NoteNumber":90,"Velocity":66,"Duration":116054,"SoundDuration":116054,"Delta":160492786},{"NoteNumber":78,"Velocity":59,"Duration":58027,"SoundDuration":58027,"Delta":160492786},{"NoteNumber":71,"Velocity":50,"Duration":58027,"SoundDuration":58027,"Delta":160492786},{"NoteNumber":92,"Velocity":66,"Duration":116054,"SoundDuration":116054,"Delta":160608840},{"NoteNumber":90,"Velocity":72,"Duration":66518,"SoundDuration":66518,"Delta":160724894},{"NoteNumber":61,"Velocity":49,"Duration":505153,"SoundDuration":505153,"Delta":160724894},{"NoteNumber":80,"Velocity":54,"Duration":60483,"SoundDuration":60483,"Delta":160990970},{"NoteNumber":88,"Velocity":70,"Duration":60483,"SoundDuration":60483,"Delta":160990970},{"NoteNumber":68,"Velocity":49,"Duration":60483,"SoundDuration":60483,"Delta":160990970},{"NoteNumber":76,"Velocity":58,"Duration":60483,"SoundDuration":60483,"Delta":160990970},{"NoteNumber":73,"Velocity":49,"Duration":60483,"SoundDuration":60483,"Delta":160990970},{"NoteNumber":87,"Velocity":74,"Duration":61224,"SoundDuration":61224,"Delta":161230048},{"NoteNumber":60,"Velocity":49,"Duration":509215,"SoundDuration":509215,"Delta":161230048},{"NoteNumber":80,"Velocity":51,"Duration":66079,"SoundDuration":66079,"Delta":161474946},{"NoteNumber":88,"Velocity":77,"Duration":66079,"SoundDuration":66079,"Delta":161474946},{"NoteNumber":75,"Velocity":59,"Duration":66079,"SoundDuration":66079,"Delta":161474946},{"NoteNumber":68,"Velocity":50,"Duration":66079,"SoundDuration":66079,"Delta":161474946},{"NoteNumber":90,"Velocity":78,"Duration":394403,"SoundDuration":394403,"Delta":161739263},{"NoteNumber":56,"Velocity":49,"Duration":519143,"SoundDuration":519143,"Delta":161739263},{"NoteNumber":80,"Velocity":51,"Duration":62369,"SoundDuration":62369,"Delta":162008926},{"NoteNumber":63,"Velocity":49,"Duration":62369,"SoundDuration":62369,"Delta":162008926},{"NoteNumber":72,"Velocity":58,"Duration":62369,"SoundDuration":62369,"Delta":162008926},{"NoteNumber":88,"Velocity":73,"Duration":124740,"SoundDuration":124740,"Delta":162133666},{"NoteNumber":87,"Velocity":71,"Duration":112782,"SoundDuration":112782,"Delta":162258406},{"NoteNumber":61,"Velocity":49,"Duration":451128,"SoundDuration":451128,"Delta":162258406},{"NoteNumber":88,"Velocity":66,"Duration":112781,"SoundDuration":112781,"Delta":162371188},{"NoteNumber":80,"Velocity":51,"Duration":56391,"SoundDuration":56391,"Delta":162483970},{"NoteNumber":90,"Velocity":66,"Duration":112782,"SoundDuration":112782,"Delta":162483970},{"NoteNumber":76,"Velocity":59,"Duration":56391,"SoundDuration":56391,"Delta":162483970},{"NoteNumber":68,"Velocity":50,"Duration":56391,"SoundDuration":56391,"Delta":162483970},{"NoteNumber":92,"Velocity":66,"Duration":112782,"SoundDuration":112782,"Delta":162596752},{"NoteNumber":90,"Velocity":72,"Duration":64377,"SoundDuration":64377,"Delta":162709534},{"NoteNumber":56,"Velocity":49,"Duration":515020,"SoundDuration":515020,"Delta":162709534},{"NoteNumber":80,"Velocity":51,"Duration":64377,"SoundDuration":64377,"Delta":162967044},{"NoteNumber":88,"Velocity":70,"Duration":64377,"SoundDuration":64377,"Delta":162967044},{"NoteNumber":73,"Velocity":58,"Duration":64377,"SoundDuration":64377,"Delta":162967044},{"NoteNumber":68,"Velocity":49,"Duration":64377,"SoundDuration":64377,"Delta":162967044},{"NoteNumber":64,"Velocity":49,"Duration":64377,"SoundDuration":64377,"Delta":162967044},{"NoteNumber":87,"Velocity":74,"Duration":65645,"SoundDuration":65645,"Delta":163224555},{"NoteNumber":60,"Velocity":49,"Duration":525163,"SoundDuration":525163,"Delta":163224555},{"NoteNumber":80,"Velocity":51,"Duration":65645,"SoundDuration":65645,"Delta":163487137},{"NoteNumber":85,"Velocity":69,"Duration":65645,"SoundDuration":65645,"Delta":163487137},{"NoteNumber":66,"Velocity":50,"Duration":65645,"SoundDuration":65645,"Delta":163487137},{"NoteNumber":75,"Velocity":59,"Duration":65645,"SoundDuration":65645,"Delta":163487137},{"NoteNumber":68,"Velocity":50,"Duration":65645,"SoundDuration":65645,"Delta":163487137},{"NoteNumber":84,"Velocity":69,"Duration":539718,"SoundDuration":539718,"Delta":163749719},{"NoteNumber":56,"Velocity":49,"Duration":539718,"SoundDuration":539718,"Delta":163749719},{"NoteNumber":80,"Velocity":51,"Duration":69284,"SoundDuration":69284,"Delta":164012301},{"NoteNumber":66,"Velocity":49,"Duration":69284,"SoundDuration":69284,"Delta":164012301},{"NoteNumber":63,"Velocity":49,"Duration":69284,"SoundDuration":69284,"Delta":164012301},{"NoteNumber":72,"Velocity":58,"Duration":69284,"SoundDuration":69284,"Delta":164012301},{"NoteNumber":87,"Velocity":71,"Duration":111524,"SoundDuration":111524,"Delta":164289437},{"NoteNumber":61,"Velocity":49,"Duration":446097,"SoundDuration":446097,"Delta":164289437},{"NoteNumber":88,"Velocity":66,"Duration":111524,"SoundDuration":111524,"Delta":164400962},{"NoteNumber":80,"Velocity":51,"Duration":55762,"SoundDuration":55762,"Delta":164512486},{"NoteNumber":90,"Velocity":66,"Duration":111524,"SoundDuration":111524,"Delta":164512486},{"NoteNumber":76,"Velocity":59,"Duration":55762,"SoundDuration":55762,"Delta":164512486},{"NoteNumber":68,"Velocity":50,"Duration":55762,"SoundDuration":55762,"Delta":164512486},{"NoteNumber":92,"Velocity":66,"Duration":111524,"SoundDuration":111524,"Delta":164624010},{"NoteNumber":90,"Velocity":72,"Duration":66518,"SoundDuration":66518,"Delta":164735534},{"NoteNumber":64,"Velocity":49,"Duration":326927,"SoundDuration":326927,"Delta":164735534},{"NoteNumber":85,"Velocity":51,"Duration":60851,"SoundDuration":60851,"Delta":165001610},{"NoteNumber":80,"Velocity":51,"Duration":60851,"SoundDuration":60851,"Delta":165001610},{"NoteNumber":88,"Velocity":70,"Duration":60851,"SoundDuration":60851,"Delta":165001610},{"NoteNumber":64,"Velocity":49,"Duration":243407,"SoundDuration":243407,"Delta":165001610},{"NoteNumber":73,"Velocity":58,"Duration":60851,"SoundDuration":60851,"Delta":165001610},{"NoteNumber":87,"Velocity":74,"Duration":69284,"SoundDuration":69284,"Delta":165245017},{"NoteNumber":66,"Velocity":49,"Duration":554272,"SoundDuration":554272,"Delta":165245017},{"NoteNumber":81,"Velocity":51,"Duration":69284,"SoundDuration":69284,"Delta":165522154},{"NoteNumber":85,"Velocity":51,"Duration":69284,"SoundDuration":69284,"Delta":165522154},{"NoteNumber":88,"Velocity":77,"Duration":69284,"SoundDuration":69284,"Delta":165522154},{"NoteNumber":73,"Velocity":50,"Duration":69284,"SoundDuration":69284,"Delta":165522154},{"NoteNumber":75,"Velocity":59,"Duration":69284,"SoundDuration":69284,"Delta":165522154},{"NoteNumber":69,"Velocity":50,"Duration":69284,"SoundDuration":69284,"Delta":165522154},{"NoteNumber":90,"Velocity":81,"Duration":542986,"SoundDuration":542986,"Delta":165799290},{"NoteNumber":63,"Velocity":49,"Duration":542986,"SoundDuration":542986,"Delta":165799290},{"NoteNumber":81,"Velocity":51,"Duration":67873,"SoundDuration":67873,"Delta":166070783},{"NoteNumber":85,"Velocity":51,"Duration":67873,"SoundDuration":67873,"Delta":166070783},{"NoteNumber":69,"Velocity":49,"Duration":67873,"SoundDuration":67873,"Delta":166070783},{"NoteNumber":78,"Velocity":58,"Duration":67873,"SoundDuration":67873,"Delta":166070783},{"NoteNumber":73,"Velocity":49,"Duration":67873,"SoundDuration":67873,"Delta":166074177},{"NoteNumber":88,"Velocity":71,"Duration":117416,"SoundDuration":117416,"Delta":166342276},{"NoteNumber":67,"Velocity":49,"Duration":503383,"SoundDuration":503383,"Delta":166342276},{"NoteNumber":87,"Velocity":63,"Duration":117416,"SoundDuration":117416,"Delta":166459693},{"NoteNumber":79,"Velocity":51,"Duration":58708,"SoundDuration":58708,"Delta":166577110},{"NoteNumber":82,"Velocity":51,"Duration":58708,"SoundDuration":58708,"Delta":166577110},{"NoteNumber":85,"Velocity":63,"Duration":117416,"SoundDuration":117416,"Delta":166577110},{"NoteNumber":76,"Velocity":59,"Duration":58708,"SoundDuration":58708,"Delta":166577110},{"NoteNumber":73,"Velocity":50,"Duration":58708,"SoundDuration":58708,"Delta":166577110},{"NoteNumber":70,"Velocity":50,"Duration":58708,"SoundDuration":58708,"Delta":166577110},{"NoteNumber":88,"Velocity":63,"Duration":151133,"SoundDuration":151133,"Delta":166694527},{"NoteNumber":87,"Velocity":72,"Duration":120240,"SoundDuration":120240,"Delta":166845660},{"NoteNumber":68,"Velocity":49,"Duration":502098,"SoundDuration":502098,"Delta":166845660},{"NoteNumber":85,"Velocity":64,"Duration":120240,"SoundDuration":120240,"Delta":166965901},{"NoteNumber":80,"Velocity":51,"Duration":60120,"SoundDuration":60120,"Delta":167086141},{"NoteNumber":84,"Velocity":64,"Duration":120240,"SoundDuration":120240,"Delta":167086141},{"NoteNumber":75,"Velocity":49,"Duration":60120,"SoundDuration":60120,"Delta":167086141},{"NoteNumber":72,"Velocity":49,"Duration":60120,"SoundDuration":60120,"Delta":167086141},{"NoteNumber":78,"Velocity":58,"Duration":60120,"SoundDuration":60120,"Delta":167086141},{"NoteNumber":87,"Velocity":63,"Duration":141377,"SoundDuration":141377,"Delta":167206382},{"NoteNumber":85,"Velocity":65,"Duration":125736,"SoundDuration":125736,"Delta":167347759},{"NoteNumber":61,"Velocity":49,"Duration":492980,"SoundDuration":492980,"Delta":167347759},{"NoteNumber":80,"Velocity":56,"Duration":124020,"SoundDuration":124020,"Delta":167473495},{"NoteNumber":92,"Velocity":64,"Duration":122351,"SoundDuration":122351,"Delta":167597515},{"NoteNumber":68,"Velocity":50,"Duration":61400,"SoundDuration":61400,"Delta":167597515},{"NoteNumber":73,"Velocity":50,"Duration":61400,"SoundDuration":61400,"Delta":167597515},{"NoteNumber":76,"Velocity":59,"Duration":61400,"SoundDuration":61400,"Delta":167597515},{"NoteNumber":80,"Velocity":57,"Duration":120872,"SoundDuration":120872,"Delta":167719867},{"NoteNumber":85,"Velocity":71,"Duration":119285,"SoundDuration":119285,"Delta":167840739},{"NoteNumber":80,"Velocity":63,"Duration":117740,"SoundDuration":117740,"Delta":167960025},{"NoteNumber":92,"Velocity":71,"Duration":116258,"SoundDuration":116258,"Delta":168077766},{"NoteNumber":80,"Velocity":63,"Duration":113645,"SoundDuration":113645,"Delta":168194025},{"NoteNumber":85,"Velocity":72,"Duration":107239,"SoundDuration":107239,"Delta":168307670},{"NoteNumber":80,"Velocity":62,"Duration":106553,"SoundDuration":106553,"Delta":168414909},{"NoteNumber":92,"Velocity":71,"Duration":105989,"SoundDuration":105989,"Delta":168521463},{"NoteNumber":80,"Velocity":63,"Duration":105430,"SoundDuration":105430,"Delta":168627452},{"NoteNumber":85,"Velocity":74,"Duration":105078,"SoundDuration":105078,"Delta":168732882},{"NoteNumber":80,"Velocity":64,"Duration":105078,"SoundDuration":105078,"Delta":168837961},{"NoteNumber":92,"Velocity":72,"Duration":105078,"SoundDuration":105078,"Delta":168943040},{"NoteNumber":80,"Velocity":66,"Duration":105282,"SoundDuration":105282,"Delta":169048119},{"NoteNumber":85,"Velocity":78,"Duration":105633,"SoundDuration":105633,"Delta":169153401},{"NoteNumber":80,"Velocity":66,"Duration":105633,"SoundDuration":105633,"Delta":169259035},{"NoteNumber":92,"Velocity":73,"Duration":105839,"SoundDuration":105839,"Delta":169364668},{"NoteNumber":80,"Velocity":62,"Duration":106194,"SoundDuration":106194,"Delta":169470508},{"NoteNumber":85,"Velocity":71,"Duration":106194,"SoundDuration":106194,"Delta":169576703},{"NoteNumber":80,"Velocity":60,"Duration":106742,"SoundDuration":106742,"Delta":169682897},{"NoteNumber":92,"Velocity":65,"Duration":106761,"SoundDuration":106761,"Delta":169789640},{"NoteNumber":80,"Velocity":58,"Duration":107086,"SoundDuration":107086,"Delta":169896401},{"NoteNumber":85,"Velocity":67,"Duration":108324,"SoundDuration":108324,"Delta":170003488},{"NoteNumber":80,"Velocity":57,"Duration":109530,"SoundDuration":109530,"Delta":170111812},{"NoteNumber":92,"Velocity":63,"Duration":110866,"SoundDuration":110866,"Delta":170221343},{"NoteNumber":80,"Velocity":53,"Duration":112235,"SoundDuration":112235,"Delta":170332209},{"NoteNumber":85,"Velocity":61,"Duration":113509,"SoundDuration":113509,"Delta":170444445},{"NoteNumber":80,"Velocity":51,"Duration":114943,"SoundDuration":114943,"Delta":170557954},{"NoteNumber":92,"Velocity":56,"Duration":116415,"SoundDuration":116415,"Delta":170672898},{"NoteNumber":80,"Velocity":45,"Duration":117903,"SoundDuration":117903,"Delta":170789314},{"NoteNumber":92,"Velocity":70,"Duration":226843,"SoundDuration":226843,"Delta":170907217},{"NoteNumber":64,"Velocity":39,"Duration":226843,"SoundDuration":226843,"Delta":170907217},{"NoteNumber":83,"Velocity":54,"Duration":56710,"SoundDuration":56710,"Delta":171020639},{"NoteNumber":71,"Velocity":40,"Duration":56710,"SoundDuration":56710,"Delta":171020639},{"NoteNumber":95,"Velocity":54,"Duration":53667,"SoundDuration":53667,"Delta":171134060},{"NoteNumber":68,"Velocity":47,"Duration":53667,"SoundDuration":53667,"Delta":171134060},{"NoteNumber":83,"Velocity":54,"Duration":53667,"SoundDuration":53667,"Delta":171241395},{"NoteNumber":71,"Velocity":47,"Duration":53667,"SoundDuration":53667,"Delta":171241395},{"NoteNumber":92,"Velocity":66,"Duration":223048,"SoundDuration":223048,"Delta":171348729},{"NoteNumber":59,"Velocity":39,"Duration":223048,"SoundDuration":223048,"Delta":171348729},{"NoteNumber":83,"Velocity":54,"Duration":55762,"SoundDuration":55762,"Delta":171460254},{"NoteNumber":71,"Velocity":39,"Duration":55762,"SoundDuration":55762,"Delta":171460254},{"NoteNumber":95,"Velocity":54,"Duration":53667,"SoundDuration":53667,"Delta":171571778},{"NoteNumber":68,"Velocity":46,"Duration":53667,"SoundDuration":53667,"Delta":171571778},{"NoteNumber":83,"Velocity":51,"Duration":53667,"SoundDuration":53667,"Delta":171679112},{"NoteNumber":71,"Velocity":39,"Duration":53667,"SoundDuration":53667,"Delta":171679112},{"NoteNumber":92,"Velocity":69,"Duration":657249,"SoundDuration":657249,"Delta":171786447},{"NoteNumber":64,"Velocity":39,"Duration":223048,"SoundDuration":223048,"Delta":171786447},{"NoteNumber":83,"Velocity":54,"Duration":55762,"SoundDuration":55762,"Delta":171897971},{"NoteNumber":71,"Velocity":40,"Duration":55762,"SoundDuration":55762,"Delta":171897971},{"NoteNumber":95,"Velocity":54,"Duration":53097,"SoundDuration":53097,"Delta":172009495},{"NoteNumber":68,"Velocity":47,"Duration":53097,"SoundDuration":53097,"Delta":172009495},{"NoteNumber":83,"Velocity":54,"Duration":53097,"SoundDuration":53097,"Delta":172115690},{"NoteNumber":71,"Velocity":47,"Duration":53097,"SoundDuration":53097,"Delta":172115690},{"NoteNumber":90,"Velocity":63,"Duration":55452,"SoundDuration":55452,"Delta":172221885},{"NoteNumber":59,"Velocity":39,"Duration":221811,"SoundDuration":221811,"Delta":172221885},{"NoteNumber":83,"Velocity":51,"Duration":55452,"SoundDuration":55452,"Delta":172332791},{"NoteNumber":71,"Velocity":39,"Duration":55452,"SoundDuration":55452,"Delta":172332791},{"NoteNumber":88,"Velocity":63,"Duration":53380,"SoundDuration":53380,"Delta":172443696},{"NoteNumber":68,"Velocity":46,"Duration":53380,"SoundDuration":53380,"Delta":172443696},{"NoteNumber":83,"Velocity":51,"Duration":53380,"SoundDuration":53380,"Delta":172550458},{"NoteNumber":71,"Velocity":39,"Duration":53380,"SoundDuration":53380,"Delta":172550458},{"NoteNumber":87,"Velocity":71,"Duration":55147,"SoundDuration":55147,"Delta":172657219},{"NoteNumber":66,"Velocity":39,"Duration":220587,"SoundDuration":220587,"Delta":172657219},{"NoteNumber":83,"Velocity":51,"Duration":55146,"SoundDuration":55146,"Delta":172767513},{"NoteNumber":71,"Velocity":40,"Duration":55146,"SoundDuration":55146,"Delta":172767513},{"NoteNumber":95,"Velocity":54,"Duration":57361,"SoundDuration":57361,"Delta":172877807},{"NoteNumber":88,"Velocity":66,"Duration":57361,"SoundDuration":57361,"Delta":172877807},{"NoteNumber":69,"Velocity":47,"Duration":57361,"SoundDuration":57361,"Delta":172877807},{"NoteNumber":83,"Velocity":51,"Duration":59405,"SoundDuration":59405,"Delta":172992530},{"NoteNumber":71,"Velocity":47,"Duration":59405,"SoundDuration":59405,"Delta":172992530},{"NoteNumber":90,"Velocity":72,"Duration":429449,"SoundDuration":429449,"Delta":173116731},{"NoteNumber":59,"Velocity":39,"Duration":211267,"SoundDuration":211267,"Delta":173116731},{"NoteNumber":83,"Velocity":51,"Duration":52816,"SoundDuration":52816,"Delta":173222365},{"NoteNumber":71,"Velocity":39,"Duration":52816,"SoundDuration":52816,"Delta":173222365},{"NoteNumber":95,"Velocity":54,"Duration":54545,"SoundDuration":54545,"Delta":173327999},{"NoteNumber":69,"Velocity":46,"Duration":54545,"SoundDuration":54545,"Delta":173327999},{"NoteNumber":83,"Velocity":51,"Duration":54545,"SoundDuration":54545,"Delta":173437090},{"NoteNumber":71,"Velocity":39,"Duration":54545,"SoundDuration":54545,"Delta":173437090},{"NoteNumber":92,"Velocity":69,"Duration":660775,"SoundDuration":660775,"Delta":173546181},{"NoteNumber":64,"Velocity":39,"Duration":223048,"SoundDuration":223048,"Delta":173546181},{"NoteNumber":83,"Velocity":54,"Duration":55762,"SoundDuration":55762,"Delta":173657705},{"NoteNumber":71,"Velocity":40,"Duration":55762,"SoundDuration":55762,"Delta":173657705},{"NoteNumber":95,"Velocity":54,"Duration":55762,"SoundDuration":55762,"Delta":173769229},{"NoteNumber":68,"Velocity":47,"Duration":55762,"SoundDuration":55762,"Delta":173769229},{"NoteNumber":83,"Velocity":54,"Duration":54545,"SoundDuration":54545,"Delta":173885475},{"NoteNumber":71,"Velocity":47,"Duration":54545,"SoundDuration":54545,"Delta":173885475},{"NoteNumber":90,"Velocity":63,"Duration":53097,"SoundDuration":53097,"Delta":173994566},{"NoteNumber":59,"Velocity":39,"Duration":212389,"SoundDuration":212389,"Delta":173994566},{"NoteNumber":83,"Velocity":51,"Duration":53097,"SoundDuration":53097,"Delta":174100761},{"NoteNumber":71,"Velocity":39,"Duration":53097,"SoundDuration":53097,"Delta":174100761},{"NoteNumber":95,"Velocity":54,"Duration":54844,"SoundDuration":54844,"Delta":174206956},{"NoteNumber":88,"Velocity":63,"Duration":54844,"SoundDuration":54844,"Delta":174206956},{"NoteNumber":68,"Velocity":46,"Duration":54844,"SoundDuration":54844,"Delta":174206956},{"NoteNumber":83,"Velocity":51,"Duration":54844,"SoundDuration":54844,"Delta":174316645},{"NoteNumber":71,"Velocity":39,"Duration":54844,"SoundDuration":54844,"Delta":174316645},{"NoteNumber":87,"Velocity":71,"Duration":56390,"SoundDuration":56390,"Delta":174426334},{"NoteNumber":66,"Velocity":39,"Duration":225563,"SoundDuration":225563,"Delta":174426334},{"NoteNumber":83,"Velocity":51,"Duration":56390,"SoundDuration":56390,"Delta":174539116},{"NoteNumber":71,"Velocity":40,"Duration":56390,"SoundDuration":56390,"Delta":174539116},{"NoteNumber":95,"Velocity":54,"Duration":58708,"SoundDuration":58708,"Delta":174651898},{"NoteNumber":88,"Velocity":66,"Duration":58708,"SoundDuration":58708,"Delta":174651898},{"NoteNumber":69,"Velocity":47,"Duration":58708,"SoundDuration":58708,"Delta":174651898},{"NoteNumber":83,"Velocity":54,"Duration":54249,"SoundDuration":54249,"Delta":174769315},{"NoteNumber":71,"Velocity":47,"Duration":54249,"SoundDuration":54249,"Delta":174769315},{"NoteNumber":90,"Velocity":72,"Duration":442481,"SoundDuration":442481,"Delta":174877814},{"NoteNumber":59,"Velocity":39,"Duration":224299,"SoundDuration":224299,"Delta":174877814},{"NoteNumber":83,"Velocity":51,"Duration":56074,"SoundDuration":56074,"Delta":174989963},{"NoteNumber":71,"Velocity":39,"Duration":56074,"SoundDuration":56074,"Delta":174989963},{"NoteNumber":95,"Velocity":54,"Duration":54545,"SoundDuration":54545,"Delta":175102113},{"NoteNumber":69,"Velocity":46,"Duration":54545,"SoundDuration":54545,"Delta":175102113},{"NoteNumber":83,"Velocity":51,"Duration":54545,"SoundDuration":54545,"Delta":175211204},{"NoteNumber":71,"Velocity":39,"Duration":54545,"SoundDuration":54545,"Delta":175211204},{"NoteNumber":92,"Velocity":69,"Duration":637323,"SoundDuration":637323,"Delta":175320295},{"NoteNumber":64,"Velocity":39,"Duration":213523,"SoundDuration":213523,"Delta":175320295},{"NoteNumber":83,"Velocity":54,"Duration":53380,"SoundDuration":53380,"Delta":175427056},{"NoteNumber":71,"Velocity":40,"Duration":53380,"SoundDuration":53380,"Delta":175427056},{"NoteNumber":95,"Velocity":54,"Duration":51993,"SoundDuration":51993,"Delta":175533818},{"NoteNumber":68,"Velocity":47,"Duration":51993,"SoundDuration":51993,"Delta":175533818},{"NoteNumber":83,"Velocity":54,"Duration":51993,"SoundDuration":51993,"Delta":175637804},{"NoteNumber":71,"Velocity":47,"Duration":51993,"SoundDuration":51993,"Delta":175637804},{"NoteNumber":90,"Velocity":63,"Duration":53956,"SoundDuration":53956,"Delta":175741790},{"NoteNumber":64,"Velocity":39,"Duration":215827,"SoundDuration":215827,"Delta":175741790},{"NoteNumber":83,"Velocity":51,"Duration":53956,"SoundDuration":53956,"Delta":175849704},{"NoteNumber":71,"Velocity":39,"Duration":53956,"SoundDuration":53956,"Delta":175849704},{"NoteNumber":88,"Velocity":63,"Duration":56710,"SoundDuration":56710,"Delta":175957618},{"NoteNumber":95,"Velocity":51,"Duration":56710,"SoundDuration":56710,"Delta":175957618},{"NoteNumber":68,"Velocity":46,"Duration":56710,"SoundDuration":56710,"Delta":175957618},{"NoteNumber":83,"Velocity":51,"Duration":56710,"SoundDuration":56710,"Delta":176071039},{"NoteNumber":71,"Velocity":39,"Duration":56710,"SoundDuration":56710,"Delta":176071039},{"NoteNumber":87,"Velocity":71,"Duration":114068,"SoundDuration":114068,"Delta":176184461},{"NoteNumber":63,"Velocity":39,"Duration":230157,"SoundDuration":230157,"Delta":176184461},{"NoteNumber":88,"Velocity":66,"Duration":116089,"SoundDuration":116089,"Delta":176298529},{"NoteNumber":71,"Velocity":40,"Duration":57034,"SoundDuration":57034,"Delta":176298529},{"NoteNumber":90,"Velocity":66,"Duration":101351,"SoundDuration":101351,"Delta":176414619},{"NoteNumber":66,"Velocity":47,"Duration":50675,"SoundDuration":50675,"Delta":176414619},{"NoteNumber":92,"Velocity":66,"Duration":101351,"SoundDuration":101351,"Delta":176515970},{"NoteNumber":71,"Velocity":47,"Duration":50675,"SoundDuration":50675,"Delta":176515970},{"NoteNumber":90,"Velocity":72,"Duration":54545,"SoundDuration":54545,"Delta":176617321},{"NoteNumber":61,"Velocity":39,"Duration":218182,"SoundDuration":218182,"Delta":176617321},{"NoteNumber":83,"Velocity":54,"Duration":54545,"SoundDuration":54545,"Delta":176726412},{"NoteNumber":68,"Velocity":39,"Duration":54545,"SoundDuration":54545,"Delta":176726412},{"NoteNumber":92,"Velocity":51,"Duration":58365,"SoundDuration":58365,"Delta":176835503},{"NoteNumber":88,"Velocity":70,"Duration":58365,"SoundDuration":58365,"Delta":176835503},{"NoteNumber":64,"Velocity":46,"Duration":58365,"SoundDuration":58365,"Delta":176835503},{"NoteNumber":83,"Velocity":54,"Duration":58365,"SoundDuration":58365,"Delta":176952235},{"NoteNumber":68,"Velocity":39,"Duration":58365,"SoundDuration":58365,"Delta":176952235},{"NoteNumber":87,"Velocity":74,"Duration":54545,"SoundDuration":54545,"Delta":177068966},{"NoteNumber":60,"Velocity":39,"Duration":218182,"SoundDuration":218182,"Delta":177068966},{"NoteNumber":80,"Velocity":54,"Duration":54545,"SoundDuration":54545,"Delta":177178057},{"NoteNumber":68,"Velocity":40,"Duration":54545,"SoundDuration":54545,"Delta":177178057},{"NoteNumber":92,"Velocity":51,"Duration":56390,"SoundDuration":56390,"Delta":177287148},{"NoteNumber":88,"Velocity":77,"Duration":56390,"SoundDuration":56390,"Delta":177287148},{"NoteNumber":63,"Velocity":47,"Duration":56390,"SoundDuration":56390,"Delta":177287148},{"NoteNumber":80,"Velocity":54,"Duration":56390,"SoundDuration":56390,"Delta":177399930},{"NoteNumber":68,"Velocity":47,"Duration":56390,"SoundDuration":56390,"Delta":177399930},{"NoteNumber":90,"Velocity":78,"Duration":57034,"SoundDuration":57034,"Delta":177512712},{"NoteNumber":56,"Velocity":39,"Duration":228137,"SoundDuration":228137,"Delta":177512712},{"NoteNumber":80,"Velocity":54,"Duration":57034,"SoundDuration":57034,"Delta":177626781},{"NoteNumber":68,"Velocity":39,"Duration":57034,"SoundDuration":57034,"Delta":177626781},{"NoteNumber":92,"Velocity":51,"Duration":59055,"SoundDuration":59055,"Delta":177740849},{"NoteNumber":88,"Velocity":73,"Duration":59055,"SoundDuration":59055,"Delta":177740849},{"NoteNumber":63,"Velocity":46,"Duration":59055,"SoundDuration":59055,"Delta":177740849},{"NoteNumber":80,"Velocity":51,"Duration":59055,"SoundDuration":59055,"Delta":177858959},{"NoteNumber":68,"Velocity":39,"Duration":59055,"SoundDuration":59055,"Delta":177858959},{"NoteNumber":87,"Velocity":71,"Duration":102915,"SoundDuration":102915,"Delta":177977070},{"NoteNumber":61,"Velocity":39,"Duration":205831,"SoundDuration":205831,"Delta":177977070},{"NoteNumber":88,"Velocity":66,"Duration":102915,"SoundDuration":102915,"Delta":178079986},{"NoteNumber":68,"Velocity":40,"Duration":51457,"SoundDuration":51457,"Delta":178079986},{"NoteNumber":90,"Velocity":66,"Duration":102916,"SoundDuration":102916,"Delta":178182902},{"NoteNumber":64,"Velocity":47,"Duration":51458,"SoundDuration":51458,"Delta":178182902},{"NoteNumber":92,"Velocity":66,"Duration":102915,"SoundDuration":102915,"Delta":178285818},{"NoteNumber":68,"Velocity":47,"Duration":51457,"SoundDuration":51457,"Delta":178285818},{"NoteNumber":90,"Velocity":72,"Duration":58365,"SoundDuration":58365,"Delta":178388734},{"NoteNumber":56,"Velocity":39,"Duration":233463,"SoundDuration":233463,"Delta":178388734},{"NoteNumber":80,"Velocity":51,"Duration":58365,"SoundDuration":58365,"Delta":178505465},{"NoteNumber":68,"Velocity":39,"Duration":58365,"SoundDuration":58365,"Delta":178505465},{"NoteNumber":92,"Velocity":51,"Duration":54249,"SoundDuration":54249,"Delta":178622197},{"NoteNumber":88,"Velocity":70,"Duration":54249,"SoundDuration":54249,"Delta":178622197},{"NoteNumber":64,"Velocity":46,"Duration":54249,"SoundDuration":54249,"Delta":178622197},{"NoteNumber":80,"Velocity":51,"Duration":55762,"SoundDuration":55762,"Delta":178730696},{"NoteNumber":68,"Velocity":39,"Duration":55762,"SoundDuration":55762,"Delta":178730696},{"NoteNumber":87,"Velocity":74,"Duration":57034,"SoundDuration":57034,"Delta":178842220},{"NoteNumber":60,"Velocity":39,"Duration":228137,"SoundDuration":228137,"Delta":178842220},{"NoteNumber":80,"Velocity":51,"Duration":57034,"SoundDuration":57034,"Delta":178956288},{"NoteNumber":68,"Velocity":40,"Duration":57034,"SoundDuration":57034,"Delta":178956288},{"NoteNumber":92,"Velocity":51,"Duration":59055,"SoundDuration":59055,"Delta":179070357},{"NoteNumber":85,"Velocity":69,"Duration":59055,"SoundDuration":59055,"Delta":179070357},{"NoteNumber":63,"Velocity":47,"Duration":59055,"SoundDuration":59055,"Delta":179070357},{"NoteNumber":80,"Velocity":51,"Duration":59055,"SoundDuration":59055,"Delta":179188467},{"NoteNumber":68,"Velocity":47,"Duration":59055,"SoundDuration":59055,"Delta":179188467},{"NoteNumber":84,"Velocity":69,"Duration":461784,"SoundDuration":461784,"Delta":179306577},{"NoteNumber":56,"Velocity":39,"Duration":236220,"SoundDuration":236220,"Delta":179306577},{"NoteNumber":80,"Velocity":51,"Duration":59055,"SoundDuration":59055,"Delta":179424688},{"NoteNumber":68,"Velocity":39,"Duration":59055,"SoundDuration":59055,"Delta":179424688},{"NoteNumber":92,"Velocity":51,"Duration":56390,"SoundDuration":56390,"Delta":179542798},{"NoteNumber":63,"Velocity":46,"Duration":56390,"SoundDuration":56390,"Delta":179542798},{"NoteNumber":80,"Velocity":51,"Duration":56390,"SoundDuration":56390,"Delta":179655580},{"NoteNumber":68,"Velocity":39,"Duration":56390,"SoundDuration":56390,"Delta":179655580},{"NoteNumber":87,"Velocity":71,"Duration":105633,"SoundDuration":105633,"Delta":179768362},{"NoteNumber":61,"Velocity":39,"Duration":211267,"SoundDuration":211267,"Delta":179768362},{"NoteNumber":88,"Velocity":66,"Duration":105633,"SoundDuration":105633,"Delta":179873996},{"NoteNumber":68,"Velocity":40,"Duration":52816,"SoundDuration":52816,"Delta":179873996},{"NoteNumber":90,"Velocity":66,"Duration":105633,"SoundDuration":105633,"Delta":179979629},{"NoteNumber":64,"Velocity":47,"Duration":52816,"SoundDuration":52816,"Delta":179979629},{"NoteNumber":92,"Velocity":66,"Duration":105633,"SoundDuration":105633,"Delta":180085263},{"NoteNumber":68,"Velocity":47,"Duration":52816,"SoundDuration":52816,"Delta":180085263},{"NoteNumber":90,"Velocity":72,"Duration":58365,"SoundDuration":58365,"Delta":180190897},{"NoteNumber":56,"Velocity":39,"Duration":233463,"SoundDuration":233463,"Delta":180190897},{"NoteNumber":80,"Velocity":51,"Duration":58365,"SoundDuration":58365,"Delta":180307628},{"NoteNumber":68,"Velocity":39,"Duration":58365,"SoundDuration":58365,"Delta":180307628},{"NoteNumber":92,"Velocity":51,"Duration":56074,"SoundDuration":56074,"Delta":180424360},{"NoteNumber":88,"Velocity":70,"Duration":56074,"SoundDuration":56074,"Delta":180424360},{"NoteNumber":64,"Velocity":46,"Duration":56074,"SoundDuration":56074,"Delta":180424360},{"NoteNumber":80,"Velocity":51,"Duration":56074,"SoundDuration":56074,"Delta":180536509},{"NoteNumber":68,"Velocity":39,"Duration":56074,"SoundDuration":56074,"Delta":180536509},{"NoteNumber":87,"Velocity":74,"Duration":59761,"SoundDuration":59761,"Delta":180648659},{"NoteNumber":60,"Velocity":39,"Duration":239044,"SoundDuration":239044,"Delta":180648659},{"NoteNumber":80,"Velocity":51,"Duration":59761,"SoundDuration":59761,"Delta":180768181},{"NoteNumber":68,"Velocity":40,"Duration":59761,"SoundDuration":59761,"Delta":180768181},{"NoteNumber":92,"Velocity":51,"Duration":59760,"SoundDuration":59760,"Delta":180887703},{"NoteNumber":85,"Velocity":69,"Duration":59760,"SoundDuration":59760,"Delta":180887703},{"NoteNumber":63,"Velocity":47,"Duration":59760,"SoundDuration":59760,"Delta":180887703},{"NoteNumber":80,"Velocity":51,"Duration":59761,"SoundDuration":59761,"Delta":181007225},{"NoteNumber":68,"Velocity":47,"Duration":59761,"SoundDuration":59761,"Delta":181007225},{"NoteNumber":84,"Velocity":69,"Duration":502586,"SoundDuration":502586,"Delta":181126747},{"NoteNumber":56,"Velocity":39,"Duration":243407,"SoundDuration":243407,"Delta":181126747},{"NoteNumber":80,"Velocity":51,"Duration":60851,"SoundDuration":60851,"Delta":181248451},{"NoteNumber":68,"Velocity":39,"Duration":60851,"SoundDuration":60851,"Delta":181248451},{"NoteNumber":92,"Velocity":51,"Duration":64794,"SoundDuration":64794,"Delta":181370154},{"NoteNumber":63,"Velocity":46,"Duration":64794,"SoundDuration":64794,"Delta":181370154},{"NoteNumber":80,"Velocity":51,"Duration":64794,"SoundDuration":64794,"Delta":181499744},{"NoteNumber":68,"Velocity":39,"Duration":64794,"SoundDuration":64794,"Delta":181499744},{"NoteNumber":88,"Velocity":71,"Duration":113421,"SoundDuration":113421,"Delta":181629334},{"NoteNumber":61,"Velocity":39,"Duration":226843,"SoundDuration":226843,"Delta":181629334},{"NoteNumber":87,"Velocity":63,"Duration":113421,"SoundDuration":113421,"Delta":181742755},{"NoteNumber":68,"Velocity":40,"Duration":56710,"SoundDuration":56710,"Delta":181742755},{"NoteNumber":80,"Velocity":51,"Duration":56710,"SoundDuration":56710,"Delta":181856177},{"NoteNumber":92,"Velocity":51,"Duration":56710,"SoundDuration":56710,"Delta":181856177},{"NoteNumber":85,"Velocity":63,"Duration":113421,"SoundDuration":113421,"Delta":181856177},{"NoteNumber":64,"Velocity":47,"Duration":56710,"SoundDuration":56710,"Delta":181856177},{"NoteNumber":88,"Velocity":63,"Duration":127931,"SoundDuration":127931,"Delta":181969598},{"NoteNumber":68,"Velocity":47,"Duration":63965,"SoundDuration":63965,"Delta":181969598},{"NoteNumber":87,"Velocity":72,"Duration":114068,"SoundDuration":114068,"Delta":182097530},{"NoteNumber":56,"Velocity":39,"Duration":228137,"SoundDuration":228137,"Delta":182097530},{"NoteNumber":85,"Velocity":64,"Duration":114068,"SoundDuration":114068,"Delta":182211599},{"NoteNumber":68,"Velocity":39,"Duration":57034,"SoundDuration":57034,"Delta":182211599},{"NoteNumber":92,"Velocity":51,"Duration":57034,"SoundDuration":57034,"Delta":182325667},{"NoteNumber":84,"Velocity":64,"Duration":114068,"SoundDuration":114068,"Delta":182325667},{"NoteNumber":80,"Velocity":51,"Duration":57034,"SoundDuration":57034,"Delta":182325667},{"NoteNumber":63,"Velocity":36,"Duration":57034,"SoundDuration":57034,"Delta":182325667},{"NoteNumber":66,"Velocity":46,"Duration":57034,"SoundDuration":57034,"Delta":182325667},{"NoteNumber":87,"Velocity":63,"Duration":124110,"SoundDuration":124110,"Delta":182439736},{"NoteNumber":68,"Velocity":39,"Duration":63631,"SoundDuration":63631,"Delta":182439736},{"NoteNumber":85,"Velocity":65,"Duration":109599,"SoundDuration":109599,"Delta":182563847},{"NoteNumber":61,"Velocity":46,"Duration":218690,"SoundDuration":218690,"Delta":182563847},{"NoteNumber":80,"Velocity":56,"Duration":109091,"SoundDuration":109091,"Delta":182673446},{"NoteNumber":77,"Velocity":37,"Duration":109091,"SoundDuration":109091,"Delta":182673446},{"NoteNumber":92,"Velocity":64,"Duration":108508,"SoundDuration":108508,"Delta":182782537},{"NoteNumber":68,"Velocity":48,"Duration":108508,"SoundDuration":108508,"Delta":182782537},{"NoteNumber":80,"Velocity":57,"Duration":108021,"SoundDuration":108021,"Delta":182891046},{"NoteNumber":77,"Velocity":39,"Duration":108021,"SoundDuration":108021,"Delta":182891046},{"NoteNumber":85,"Velocity":67,"Duration":107537,"SoundDuration":107537,"Delta":182999067},{"NoteNumber":73,"Velocity":47,"Duration":107537,"SoundDuration":107537,"Delta":182999067},{"NoteNumber":80,"Velocity":58,"Duration":107057,"SoundDuration":107057,"Delta":183106604},{"NoteNumber":77,"Velocity":39,"Duration":107057,"SoundDuration":107057,"Delta":183106604},{"NoteNumber":92,"Velocity":65,"Duration":106582,"SoundDuration":106582,"Delta":183213662},{"NoteNumber":68,"Velocity":48,"Duration":106582,"SoundDuration":106582,"Delta":183213662},{"NoteNumber":80,"Velocity":59,"Duration":106110,"SoundDuration":106110,"Delta":183320244},{"NoteNumber":77,"Velocity":42,"Duration":106110,"SoundDuration":106110,"Delta":183320244},{"NoteNumber":85,"Velocity":72,"Duration":105633,"SoundDuration":105633,"Delta":183426354},{"NoteNumber":61,"Velocity":50,"Duration":210721,"SoundDuration":210721,"Delta":183426354},{"NoteNumber":80,"Velocity":62,"Duration":105088,"SoundDuration":105088,"Delta":183531988},{"NoteNumber":77,"Velocity":43,"Duration":105088,"SoundDuration":105088,"Delta":183531988},{"NoteNumber":92,"Velocity":71,"Duration":104630,"SoundDuration":104630,"Delta":183637076},{"NoteNumber":68,"Velocity":50,"Duration":104630,"SoundDuration":104630,"Delta":183637076},{"NoteNumber":80,"Velocity":63,"Duration":104176,"SoundDuration":104176,"Delta":183741706},{"NoteNumber":77,"Velocity":45,"Duration":104176,"SoundDuration":104176,"Delta":183741706},{"NoteNumber":85,"Velocity":74,"Duration":103726,"SoundDuration":103726,"Delta":183845883},{"NoteNumber":73,"Velocity":52,"Duration":103726,"SoundDuration":103726,"Delta":183845883},{"NoteNumber":80,"Velocity":64,"Duration":103279,"SoundDuration":103279,"Delta":183949609},{"NoteNumber":77,"Velocity":46,"Duration":103279,"SoundDuration":103279,"Delta":183949609},{"NoteNumber":92,"Velocity":72,"Duration":102836,"SoundDuration":102836,"Delta":184052889},{"NoteNumber":68,"Velocity":53,"Duration":102836,"SoundDuration":102836,"Delta":184052889},{"NoteNumber":80,"Velocity":66,"Duration":102310,"SoundDuration":102310,"Delta":184155726},{"NoteNumber":77,"Velocity":48,"Duration":102310,"SoundDuration":102310,"Delta":184155726},{"NoteNumber":92,"Velocity":78,"Duration":101867,"SoundDuration":101867,"Delta":184258036},{"NoteNumber":61,"Velocity":52,"Duration":203734,"SoundDuration":203734,"Delta":184258036},{"NoteNumber":85,"Velocity":66,"Duration":101867,"SoundDuration":101867,"Delta":184359904},{"NoteNumber":77,"Velocity":44,"Duration":101867,"SoundDuration":101867,"Delta":184359904},{"NoteNumber":97,"Velocity":73,"Duration":101867,"SoundDuration":101867,"Delta":184461771},{"NoteNumber":68,"Velocity":51,"Duration":101867,"SoundDuration":101867,"Delta":184461771},{"NoteNumber":85,"Velocity":62,"Duration":101867,"SoundDuration":101867,"Delta":184563639},{"NoteNumber":77,"Velocity":45,"Duration":101867,"SoundDuration":101867,"Delta":184563639},{"NoteNumber":92,"Velocity":71,"Duration":101867,"SoundDuration":101867,"Delta":184665506},{"NoteNumber":73,"Velocity":53,"Duration":101867,"SoundDuration":101867,"Delta":184665506},{"NoteNumber":85,"Velocity":60,"Duration":101867,"SoundDuration":101867,"Delta":184767374},{"NoteNumber":77,"Velocity":46,"Duration":101867,"SoundDuration":101867,"Delta":184767374},{"NoteNumber":97,"Velocity":65,"Duration":109299,"SoundDuration":109299,"Delta":184869241},{"NoteNumber":68,"Velocity":52,"Duration":109299,"SoundDuration":109299,"Delta":184869241},{"NoteNumber":85,"Velocity":58,"Duration":114501,"SoundDuration":114501,"Delta":184978541},{"NoteNumber":77,"Velocity":47,"Duration":114501,"SoundDuration":114501,"Delta":184978541},{"NoteNumber":92,"Velocity":67,"Duration":101867,"SoundDuration":101867,"Delta":185093043},{"NoteNumber":61,"Velocity":48,"Duration":203734,"SoundDuration":203734,"Delta":185093043},{"NoteNumber":85,"Velocity":57,"Duration":101867,"SoundDuration":101867,"Delta":185194910},{"NoteNumber":77,"Velocity":36,"Duration":101867,"SoundDuration":101867,"Delta":185194910},{"NoteNumber":97,"Velocity":63,"Duration":101867,"SoundDuration":101867,"Delta":185296778},{"NoteNumber":68,"Velocity":49,"Duration":101867,"SoundDuration":101867,"Delta":185296778},{"NoteNumber":85,"Velocity":53,"Duration":101867,"SoundDuration":101867,"Delta":185398645},{"NoteNumber":77,"Velocity":43,"Duration":101867,"SoundDuration":101867,"Delta":185398645},{"NoteNumber":92,"Velocity":61,"Duration":101867,"SoundDuration":101867,"Delta":185500513},{"NoteNumber":73,"Velocity":51,"Duration":101867,"SoundDuration":101867,"Delta":185500513},{"NoteNumber":85,"Velocity":51,"Duration":101867,"SoundDuration":101867,"Delta":185602380},{"NoteNumber":77,"Velocity":44,"Duration":101867,"SoundDuration":101867,"Delta":185602380},{"NoteNumber":97,"Velocity":56,"Duration":101867,"SoundDuration":101867,"Delta":185704248},{"NoteNumber":68,"Velocity":50,"Duration":101867,"SoundDuration":101867,"Delta":185704248},{"NoteNumber":85,"Velocity":45,"Duration":101867,"SoundDuration":101867,"Delta":185806115},{"NoteNumber":77,"Velocity":43,"Duration":101867,"SoundDuration":101867,"Delta":185806115},{"NoteNumber":92,"Velocity":67,"Duration":101867,"SoundDuration":101867,"Delta":185907983},{"NoteNumber":61,"Velocity":48,"Duration":101867,"SoundDuration":101867,"Delta":185907983},{"NoteNumber":85,"Velocity":55,"Duration":101867,"SoundDuration":101867,"Delta":186009850},{"NoteNumber":77,"Velocity":35,"Duration":101867,"SoundDuration":101867,"Delta":186009850},{"NoteNumber":97,"Velocity":60,"Duration":102032,"SoundDuration":102032,"Delta":186111718},{"NoteNumber":68,"Velocity":47,"Duration":102032,"SoundDuration":102032,"Delta":186111718},{"NoteNumber":85,"Velocity":49,"Duration":102811,"SoundDuration":102811,"Delta":186213751},{"NoteNumber":77,"Velocity":40,"Duration":102811,"SoundDuration":102811,"Delta":186213751},{"NoteNumber":92,"Velocity":56,"Duration":103879,"SoundDuration":103879,"Delta":186316562},{"NoteNumber":61,"Velocity":46,"Duration":103879,"SoundDuration":103879,"Delta":186316562},{"NoteNumber":85,"Velocity":45,"Duration":104886,"SoundDuration":104886,"Delta":186420441},{"NoteNumber":77,"Velocity":39,"Duration":104886,"SoundDuration":104886,"Delta":186420441},{"NoteNumber":97,"Velocity":49,"Duration":105895,"SoundDuration":105895,"Delta":186525328},{"NoteNumber":68,"Velocity":44,"Duration":105895,"SoundDuration":105895,"Delta":186525328},{"NoteNumber":85,"Velocity":38,"Duration":106668,"SoundDuration":106668,"Delta":186631223},{"NoteNumber":77,"Velocity":36,"Duration":106668,"SoundDuration":106668,"Delta":186631223},{"NoteNumber":92,"Velocity":56,"Duration":106649,"SoundDuration":106649,"Delta":186737892},{"NoteNumber":61,"Velocity":40,"Duration":106649,"SoundDuration":106649,"Delta":186737892},{"NoteNumber":85,"Velocity":46,"Duration":107798,"SoundDuration":107798,"Delta":186844541},{"NoteNumber":77,"Velocity":29,"Duration":107798,"SoundDuration":107798,"Delta":186844541},{"NoteNumber":97,"Velocity":50,"Duration":108883,"SoundDuration":108883,"Delta":186952339},{"NoteNumber":68,"Velocity":39,"Duration":108883,"SoundDuration":108883,"Delta":186952339},{"NoteNumber":85,"Velocity":41,"Duration":109971,"SoundDuration":109971,"Delta":187061223},{"NoteNumber":77,"Velocity":33,"Duration":109971,"SoundDuration":109971,"Delta":187061223},{"NoteNumber":92,"Velocity":46,"Duration":111194,"SoundDuration":111194,"Delta":187171195},{"NoteNumber":61,"Velocity":38,"Duration":111194,"SoundDuration":111194,"Delta":187171195},{"NoteNumber":85,"Velocity":37,"Duration":112339,"SoundDuration":112339,"Delta":187282389},{"NoteNumber":77,"Velocity":32,"Duration":112339,"SoundDuration":112339,"Delta":187282389},{"NoteNumber":97,"Velocity":40,"Duration":113509,"SoundDuration":113509,"Delta":187394729},{"NoteNumber":68,"Velocity":36,"Duration":113509,"SoundDuration":113509,"Delta":187394729},{"NoteNumber":85,"Velocity":36,"Duration":114812,"SoundDuration":114812,"Delta":187508238},{"NoteNumber":77,"Velocity":1,"Duration":114812,"SoundDuration":114812,"Delta":187508238},{"NoteNumber":92,"Velocity":46,"Duration":116846,"SoundDuration":116846,"Delta":187623050},{"NoteNumber":61,"Velocity":33,"Duration":116846,"SoundDuration":116846,"Delta":187623050},{"NoteNumber":85,"Velocity":39,"Duration":119405,"SoundDuration":119405,"Delta":187739897},{"NoteNumber":77,"Velocity":25,"Duration":119405,"SoundDuration":119405,"Delta":187739897},{"NoteNumber":97,"Velocity":44,"Duration":121092,"SoundDuration":121092,"Delta":187859303},{"NoteNumber":68,"Velocity":34,"Duration":121092,"SoundDuration":121092,"Delta":187859303},{"NoteNumber":85,"Velocity":37,"Duration":123082,"SoundDuration":123082,"Delta":187980395},{"NoteNumber":77,"Velocity":30,"Duration":123082,"SoundDuration":123082,"Delta":187980395},{"NoteNumber":92,"Velocity":42,"Duration":127963,"SoundDuration":127963,"Delta":188103477},{"NoteNumber":61,"Velocity":35,"Duration":127963,"SoundDuration":127963,"Delta":188103477},{"NoteNumber":85,"Velocity":35,"Duration":134868,"SoundDuration":134868,"Delta":188231441},{"NoteNumber":77,"Velocity":30,"Duration":134868,"SoundDuration":134868,"Delta":188231441},{"NoteNumber":97,"Velocity":39,"Duration":142561,"SoundDuration":142561,"Delta":188366309},{"NoteNumber":68,"Velocity":35,"Duration":142561,"SoundDuration":142561,"Delta":188366309},{"NoteNumber":85,"Velocity":31,"Duration":151945,"SoundDuration":151945,"Delta":188508870},{"NoteNumber":77,"Velocity":30,"Duration":151945,"SoundDuration":151945,"Delta":188508870},{"NoteNumber":92,"Velocity":39,"Duration":184615,"SoundDuration":184615,"Delta":188660815},{"NoteNumber":61,"Velocity":33,"Duration":369231,"SoundDuration":369231,"Delta":188660815},{"NoteNumber":85,"Velocity":31,"Duration":184615,"SoundDuration":184615,"Delta":188845431},{"NoteNumber":97,"Velocity":31,"Duration":369230,"SoundDuration":369230,"Delta":189030046},{"NoteNumber":77,"Velocity":30,"Duration":369230,"SoundDuration":369230,"Delta":189030046},{"NoteNumber":68,"Velocity":30,"Duration":369230,"SoundDuration":369230,"Delta":189030046},{"NoteNumber":73,"Velocity":47,"Duration":173913,"SoundDuration":173913,"Delta":191113520},{"NoteNumber":73,"Velocity":57,"Duration":265486,"SoundDuration":265486,"Delta":191374390},{"NoteNumber":45,"Velocity":44,"Duration":212389,"SoundDuration":212389,"Delta":191374390},{"NoteNumber":85,"Velocity":50,"Duration":171755,"SoundDuration":171755,"Delta":191639876},{"NoteNumber":52,"Velocity":34,"Duration":183206,"SoundDuration":183206,"Delta":191639876},{"NoteNumber":85,"Velocity":58,"Duration":229007,"SoundDuration":229007,"Delta":191868884},{"NoteNumber":57,"Velocity":35,"Duration":183206,"SoundDuration":183206,"Delta":191868884},{"NoteNumber":83,"Velocity":51,"Duration":179159,"SoundDuration":179159,"Delta":192097892},{"NoteNumber":61,"Velocity":36,"Duration":192090,"SoundDuration":192090,"Delta":192097892},{"NoteNumber":83,"Velocity":56,"Duration":229007,"SoundDuration":229007,"Delta":192341706},{"NoteNumber":64,"Velocity":37,"Duration":183206,"SoundDuration":183206,"Delta":192341706},{"NoteNumber":81,"Velocity":45,"Duration":171755,"SoundDuration":171755,"Delta":192570714},{"NoteNumber":69,"Velocity":38,"Duration":183206,"SoundDuration":183206,"Delta":192570714},{"NoteNumber":81,"Velocity":49,"Duration":229007,"SoundDuration":229007,"Delta":192799722},{"NoteNumber":73,"Velocity":36,"Duration":183206,"SoundDuration":183206,"Delta":192799722},{"NoteNumber":80,"Velocity":45,"Duration":255319,"SoundDuration":255319,"Delta":193028729},{"NoteNumber":83,"Velocity":56,"Duration":240000,"SoundDuration":240000,"Delta":193284049},{"NoteNumber":44,"Velocity":44,"Duration":192000,"SoundDuration":192000,"Delta":193284049},{"NoteNumber":53,"Velocity":34,"Duration":191999,"SoundDuration":191999,"Delta":193524049},{"NoteNumber":81,"Velocity":48,"Duration":240000,"SoundDuration":240000,"Delta":193764049},{"NoteNumber":59,"Velocity":35,"Duration":192000,"SoundDuration":192000,"Delta":193764049},{"NoteNumber":61,"Velocity":36,"Duration":201818,"SoundDuration":201818,"Delta":194004049},{"NoteNumber":80,"Velocity":56,"Duration":937500,"SoundDuration":937500,"Delta":194260412},{"NoteNumber":65,"Velocity":37,"Duration":187500,"SoundDuration":187500,"Delta":194260412},{"NoteNumber":71,"Velocity":38,"Duration":187500,"SoundDuration":187500,"Delta":194494787},{"NoteNumber":73,"Velocity":36,"Duration":187500,"SoundDuration":187500,"Delta":194729162},{"NoteNumber":73,"Velocity":60,"Duration":265486,"SoundDuration":265486,"Delta":195197912},{"NoteNumber":83,"Velocity":60,"Duration":265486,"SoundDuration":265486,"Delta":195197912},{"NoteNumber":42,"Velocity":44,"Duration":212389,"SoundDuration":212389,"Delta":195197912},{"NoteNumber":81,"Velocity":45,"Duration":195312,"SoundDuration":195312,"Delta":195463399},{"NoteNumber":49,"Velocity":34,"Duration":187500,"SoundDuration":187500,"Delta":195463399},{"NoteNumber":81,"Velocity":55,"Duration":56603,"SoundDuration":56603,"Delta":195697774},{"NoteNumber":54,"Velocity":35,"Duration":181131,"SoundDuration":181131,"Delta":195697774},{"NoteNumber":83,"Velocity":55,"Duration":56603,"SoundDuration":56603,"Delta":195754378},{"NoteNumber":81,"Velocity":60,"Duration":230395,"SoundDuration":230395,"Delta":195810982},{"NoteNumber":80,"Velocity":45,"Duration":195312,"SoundDuration":195312,"Delta":195924189},{"NoteNumber":57,"Velocity":36,"Duration":187500,"SoundDuration":187500,"Delta":195924189},{"NoteNumber":80,"Velocity":55,"Duration":56603,"SoundDuration":56603,"Delta":196158564},{"NoteNumber":61,"Velocity":37,"Duration":181131,"SoundDuration":181131,"Delta":196158564},{"NoteNumber":81,"Velocity":55,"Duration":56603,"SoundDuration":56603,"Delta":196215168},{"NoteNumber":80,"Velocity":61,"Duration":113207,"SoundDuration":113207,"Delta":196271772},{"NoteNumber":78,"Velocity":45,"Duration":192258,"SoundDuration":192258,"Delta":196384979},{"NoteNumber":66,"Velocity":38,"Duration":184353,"SoundDuration":184353,"Delta":196384979},{"NoteNumber":78,"Velocity":52,"Duration":59288,"SoundDuration":59288,"Delta":196616764},{"NoteNumber":69,"Velocity":36,"Duration":189723,"SoundDuration":189723,"Delta":196616764},{"NoteNumber":80,"Velocity":52,"Duration":59288,"SoundDuration":59288,"Delta":196676052},{"NoteNumber":78,"Velocity":58,"Duration":118577,"SoundDuration":118577,"Delta":196735341},{"NoteNumber":77,"Velocity":45,"Duration":255319,"SoundDuration":255319,"Delta":196853918},{"NoteNumber":80,"Velocity":58,"Duration":240000,"SoundDuration":240000,"Delta":197109237},{"NoteNumber":37,"Velocity":44,"Duration":192000,"SoundDuration":192000,"Delta":197109237},{"NoteNumber":49,"Velocity":34,"Duration":191999,"SoundDuration":191999,"Delta":197349237},{"NoteNumber":68,"Velocity":39,"Duration":300000,"SoundDuration":300000,"Delta":197529237},{"NoteNumber":73,"Velocity":43,"Duration":270000,"SoundDuration":270000,"Delta":197559237},{"NoteNumber":77,"Velocity":49,"Duration":240000,"SoundDuration":240000,"Delta":197589237},{"NoteNumber":53,"Velocity":35,"Duration":192000,"SoundDuration":192000,"Delta":197589237},{"NoteNumber":56,"Velocity":36,"Duration":206896,"SoundDuration":206896,"Delta":197829237},{"NoteNumber":73,"Velocity":53,"Duration":1001172,"SoundDuration":1001172,"Delta":198087858},{"NoteNumber":61,"Velocity":37,"Duration":189723,"SoundDuration":189723,"Delta":198087858},{"NoteNumber":65,"Velocity":38,"Duration":189723,"SoundDuration":189723,"Delta":198325012},{"NoteNumber":68,"Velocity":36,"Duration":204255,"SoundDuration":204255,"Delta":198562166},{"NoteNumber":73,"Velocity":47,"Duration":215827,"SoundDuration":215827,"Delta":198945145},{"NoteNumber":73,"Velocity":57,"Duration":265486,"SoundDuration":265486,"Delta":199160973},{"NoteNumber":45,"Velocity":44,"Duration":212389,"SoundDuration":212389,"Delta":199160973},{"NoteNumber":85,"Velocity":50,"Duration":171755,"SoundDuration":171755,"Delta":199426459},{"NoteNumber":52,"Velocity":34,"Duration":183206,"SoundDuration":183206,"Delta":199426459},{"NoteNumber":85,"Velocity":58,"Duration":229007,"SoundDuration":229007,"Delta":199655467},{"NoteNumber":57,"Velocity":35,"Duration":183206,"SoundDuration":183206,"Delta":199655467},{"NoteNumber":83,"Velocity":51,"Duration":179159,"SoundDuration":179159,"Delta":199884475},{"NoteNumber":61,"Velocity":36,"Duration":192090,"SoundDuration":192090,"Delta":199884475},{"NoteNumber":83,"Velocity":56,"Duration":229007,"SoundDuration":229007,"Delta":200128289},{"NoteNumber":64,"Velocity":37,"Duration":183206,"SoundDuration":183206,"Delta":200128289},{"NoteNumber":81,"Velocity":45,"Duration":171755,"SoundDuration":171755,"Delta":200357297},{"NoteNumber":69,"Velocity":38,"Duration":183206,"SoundDuration":183206,"Delta":200357297},{"NoteNumber":81,"Velocity":49,"Duration":229007,"SoundDuration":229007,"Delta":200586305},{"NoteNumber":73,"Velocity":36,"Duration":183206,"SoundDuration":183206,"Delta":200586305},{"NoteNumber":80,"Velocity":45,"Duration":255319,"SoundDuration":255319,"Delta":200815312},{"NoteNumber":83,"Velocity":56,"Duration":240000,"SoundDuration":240000,"Delta":201070632},{"NoteNumber":44,"Velocity":44,"Duration":192000,"SoundDuration":192000,"Delta":201070632},{"NoteNumber":53,"Velocity":34,"Duration":191999,"SoundDuration":191999,"Delta":201310632},{"NoteNumber":81,"Velocity":48,"Duration":240000,"SoundDuration":240000,"Delta":201550632},{"NoteNumber":59,"Velocity":35,"Duration":192000,"SoundDuration":192000,"Delta":201550632},{"NoteNumber":61,"Velocity":36,"Duration":201818,"SoundDuration":201818,"Delta":201790632},{"NoteNumber":80,"Velocity":56,"Duration":937500,"SoundDuration":937500,"Delta":202046995},{"NoteNumber":65,"Velocity":37,"Duration":187500,"SoundDuration":187500,"Delta":202046995},{"NoteNumber":71,"Velocity":38,"Duration":187500,"SoundDuration":187500,"Delta":202281370},{"NoteNumber":73,"Velocity":36,"Duration":187500,"SoundDuration":187500,"Delta":202515745},{"NoteNumber":81,"Velocity":52,"Duration":58593,"SoundDuration":58593,"Delta":202867308},{"NoteNumber":83,"Velocity":52,"Duration":58593,"SoundDuration":58593,"Delta":202925902},{"NoteNumber":81,"Velocity":60,"Duration":265486,"SoundDuration":265486,"Delta":202984495},{"NoteNumber":42,"Velocity":44,"Duration":499861,"SoundDuration":499861,"Delta":202984495},{"NoteNumber":80,"Velocity":45,"Duration":175781,"SoundDuration":175781,"Delta":203249982},{"NoteNumber":73,"Velocity":49,"Duration":460790,"SoundDuration":460790,"Delta":203484357},{"NoteNumber":78,"Velocity":60,"Duration":226415,"SoundDuration":226415,"Delta":203484357},{"NoteNumber":66,"Velocity":35,"Duration":460790,"SoundDuration":460790,"Delta":203484357},{"NoteNumber":61,"Velocity":35,"Duration":460790,"SoundDuration":460790,"Delta":203484357},{"NoteNumber":69,"Velocity":35,"Duration":460790,"SoundDuration":460790,"Delta":203484357},{"NoteNumber":81,"Velocity":45,"Duration":175781,"SoundDuration":175781,"Delta":203710772},{"NoteNumber":80,"Velocity":53,"Duration":58593,"SoundDuration":58593,"Delta":203827960},{"NoteNumber":81,"Velocity":53,"Duration":58593,"SoundDuration":58593,"Delta":203886553},{"NoteNumber":80,"Velocity":61,"Duration":226415,"SoundDuration":226415,"Delta":203945147},{"NoteNumber":37,"Velocity":37,"Duration":458199,"SoundDuration":458199,"Delta":203945147},{"NoteNumber":78,"Velocity":45,"Duration":231784,"SoundDuration":231784,"Delta":204171562},{"NoteNumber":77,"Velocity":58,"Duration":237154,"SoundDuration":237154,"Delta":204403347},{"NoteNumber":73,"Velocity":49,"Duration":492473,"SoundDuration":492473,"Delta":204403347},{"NoteNumber":65,"Velocity":36,"Duration":492473,"SoundDuration":492473,"Delta":204403347},{"NoteNumber":59,"Velocity":36,"Duration":492473,"SoundDuration":492473,"Delta":204403347},{"NoteNumber":68,"Velocity":36,"Duration":492473,"SoundDuration":492473,"Delta":204403347},{"NoteNumber":80,"Velocity":45,"Duration":255319,"SoundDuration":255319,"Delta":204640501},{"NoteNumber":78,"Velocity":58,"Duration":450280,"SoundDuration":450280,"Delta":204895820},{"NoteNumber":42,"Velocity":44,"Duration":520373,"SoundDuration":520373,"Delta":204895820},{"NoteNumber":78,"Velocity":43,"Duration":140186,"SoundDuration":140186,"Delta":205276007},{"NoteNumber":80,"Velocity":44,"Duration":70093,"SoundDuration":70093,"Delta":205346100},{"NoteNumber":73,"Velocity":49,"Duration":1007631,"SoundDuration":1007631,"Delta":205416194},{"NoteNumber":78,"Velocity":49,"Duration":391142,"SoundDuration":391142,"Delta":205416194},{"NoteNumber":58,"Velocity":36,"Duration":1624232,"SoundDuration":1624232,"Delta":205416194},{"NoteNumber":70,"Velocity":36,"Duration":1624232,"SoundDuration":1624232,"Delta":205416194},{"NoteNumber":66,"Velocity":36,"Duration":1624232,"SoundDuration":1624232,"Delta":205416194},{"NoteNumber":77,"Velocity":49,"Duration":142180,"SoundDuration":142180,"Delta":205807337},{"NoteNumber":78,"Velocity":53,"Duration":1090909,"SoundDuration":1090909,"Delta":205949517},{"NoteNumber":73,"Velocity":39,"Duration":173913,"SoundDuration":173913,"Delta":206779557},{"NoteNumber":85,"Velocity":54,"Duration":173913,"SoundDuration":173913,"Delta":206779557},{"NoteNumber":85,"Velocity":61,"Duration":265486,"SoundDuration":265486,"Delta":207040426},{"NoteNumber":73,"Velocity":51,"Duration":265486,"SoundDuration":265486,"Delta":207040426},{"NoteNumber":45,"Velocity":44,"Duration":212389,"SoundDuration":212389,"Delta":207040426},{"NoteNumber":97,"Velocity":52,"Duration":171755,"SoundDuration":171755,"Delta":207305913},{"NoteNumber":85,"Velocity":44,"Duration":171755,"SoundDuration":171755,"Delta":207305913},{"NoteNumber":52,"Velocity":34,"Duration":183206,"SoundDuration":183206,"Delta":207305913},{"NoteNumber":85,"Velocity":51,"Duration":229007,"SoundDuration":229007,"Delta":207534921},{"NoteNumber":97,"Velocity":61,"Duration":229007,"SoundDuration":229007,"Delta":207534921},{"NoteNumber":57,"Velocity":36,"Duration":183206,"SoundDuration":183206,"Delta":207534921},{"NoteNumber":95,"Velocity":53,"Duration":179159,"SoundDuration":179159,"Delta":207763929},{"NoteNumber":83,"Velocity":45,"Duration":179159,"SoundDuration":179159,"Delta":207763929},{"NoteNumber":61,"Velocity":38,"Duration":192090,"SoundDuration":192090,"Delta":207763929},{"NoteNumber":95,"Velocity":61,"Duration":229007,"SoundDuration":229007,"Delta":208007743},{"NoteNumber":83,"Velocity":51,"Duration":229007,"SoundDuration":229007,"Delta":208007743},{"NoteNumber":64,"Velocity":40,"Duration":183206,"SoundDuration":183206,"Delta":208007743},{"NoteNumber":81,"Velocity":45,"Duration":171755,"SoundDuration":171755,"Delta":208236751},{"NoteNumber":93,"Velocity":53,"Duration":171755,"SoundDuration":171755,"Delta":208236751},{"NoteNumber":69,"Velocity":42,"Duration":183206,"SoundDuration":183206,"Delta":208236751},{"NoteNumber":81,"Velocity":51,"Duration":229007,"SoundDuration":229007,"Delta":208465758},{"NoteNumber":93,"Velocity":60,"Duration":229007,"SoundDuration":229007,"Delta":208465758},{"NoteNumber":73,"Velocity":44,"Duration":183206,"SoundDuration":183206,"Delta":208465758},{"NoteNumber":80,"Velocity":46,"Duration":255319,"SoundDuration":255319,"Delta":208694766},{"NoteNumber":92,"Velocity":55,"Duration":255319,"SoundDuration":255319,"Delta":208694766},{"NoteNumber":95,"Velocity":69,"Duration":240000,"SoundDuration":240000,"Delta":208950085},{"NoteNumber":83,"Velocity":58,"Duration":240000,"SoundDuration":240000,"Delta":208950085},{"NoteNumber":44,"Velocity":44,"Duration":192000,"SoundDuration":192000,"Delta":208950085},{"NoteNumber":53,"Velocity":34,"Duration":191999,"SoundDuration":191999,"Delta":209190085},{"NoteNumber":81,"Velocity":47,"Duration":300000,"SoundDuration":300000,"Delta":209370085},{"NoteNumber":85,"Velocity":49,"Duration":270000,"SoundDuration":270000,"Delta":209400085},{"NoteNumber":93,"Velocity":60,"Duration":240000,"SoundDuration":240000,"Delta":209430085},{"NoteNumber":59,"Velocity":35,"Duration":192000,"SoundDuration":192000,"Delta":209430085},{"NoteNumber":61,"Velocity":36,"Duration":201818,"SoundDuration":201818,"Delta":209670085},{"NoteNumber":80,"Velocity":51,"Duration":1005681,"SoundDuration":1005681,"Delta":209858267},{"NoteNumber":85,"Velocity":54,"Duration":971590,"SoundDuration":971590,"Delta":209892358},{"NoteNumber":92,"Velocity":66,"Duration":937500,"SoundDuration":937500,"Delta":209926449},{"NoteNumber":65,"Velocity":37,"Duration":187500,"SoundDuration":187500,"Delta":209926449},{"NoteNumber":71,"Velocity":38,"Duration":187500,"SoundDuration":187500,"Delta":210160824},{"NoteNumber":73,"Velocity":36,"Duration":187500,"SoundDuration":187500,"Delta":210395199},{"NoteNumber":95,"Velocity":69,"Duration":265486,"SoundDuration":265486,"Delta":210863949},{"NoteNumber":83,"Velocity":58,"Duration":265486,"SoundDuration":265486,"Delta":210863949},{"NoteNumber":42,"Velocity":44,"Duration":212389,"SoundDuration":212389,"Delta":210863949},{"NoteNumber":81,"Velocity":46,"Duration":175781,"SoundDuration":175781,"Delta":211129436},{"NoteNumber":93,"Velocity":55,"Duration":175781,"SoundDuration":175781,"Delta":211129436},{"NoteNumber":49,"Velocity":42,"Duration":187500,"SoundDuration":187500,"Delta":211129436},{"NoteNumber":81,"Velocity":56,"Duration":169811,"SoundDuration":169811,"Delta":211363811},{"NoteNumber":93,"Velocity":67,"Duration":169811,"SoundDuration":169811,"Delta":211363811},{"NoteNumber":54,"Velocity":41,"Duration":181131,"SoundDuration":181131,"Delta":211363811},{"NoteNumber":80,"Velocity":52,"Duration":234375,"SoundDuration":234375,"Delta":211590226},{"NoteNumber":92,"Velocity":55,"Duration":234375,"SoundDuration":234375,"Delta":211590226},{"NoteNumber":57,"Velocity":41,"Duration":187500,"SoundDuration":187500,"Delta":211590226},{"NoteNumber":93,"Velocity":57,"Duration":58593,"SoundDuration":58593,"Delta":211766007},{"NoteNumber":92,"Velocity":66,"Duration":169811,"SoundDuration":169811,"Delta":211824601},{"NoteNumber":80,"Velocity":56,"Duration":113207,"SoundDuration":113207,"Delta":211824601},{"NoteNumber":61,"Velocity":40,"Duration":181131,"SoundDuration":181131,"Delta":211824601},{"NoteNumber":90,"Velocity":50,"Duration":172496,"SoundDuration":172496,"Delta":212051016},{"NoteNumber":78,"Velocity":42,"Duration":172496,"SoundDuration":172496,"Delta":212051016},{"NoteNumber":66,"Velocity":39,"Duration":184353,"SoundDuration":184353,"Delta":212051016},{"NoteNumber":90,"Velocity":63,"Duration":237154,"SoundDuration":237154,"Delta":212282800},{"NoteNumber":78,"Velocity":53,"Duration":237154,"SoundDuration":237154,"Delta":212282800},{"NoteNumber":69,"Velocity":38,"Duration":189723,"SoundDuration":189723,"Delta":212282800},{"NoteNumber":89,"Velocity":47,"Duration":255319,"SoundDuration":255319,"Delta":212519955},{"NoteNumber":77,"Velocity":39,"Duration":255319,"SoundDuration":255319,"Delta":212519955},{"NoteNumber":92,"Velocity":63,"Duration":240000,"SoundDuration":240000,"Delta":212775274},{"NoteNumber":80,"Velocity":53,"Duration":240000,"SoundDuration":240000,"Delta":212775274},{"NoteNumber":37,"Velocity":44,"Duration":192000,"SoundDuration":192000,"Delta":212775274},{"NoteNumber":49,"Velocity":34,"Duration":191999,"SoundDuration":191999,"Delta":213015274},{"NoteNumber":77,"Velocity":46,"Duration":330000,"SoundDuration":330000,"Delta":213165274},{"NoteNumber":80,"Velocity":50,"Duration":300000,"SoundDuration":300000,"Delta":213195274},{"NoteNumber":85,"Velocity":52,"Duration":270000,"SoundDuration":270000,"Delta":213225274},{"NoteNumber":89,"Velocity":59,"Duration":240000,"SoundDuration":240000,"Delta":213255274},{"NoteNumber":53,"Velocity":35,"Duration":192000,"SoundDuration":192000,"Delta":213255274},{"NoteNumber":56,"Velocity":36,"Duration":206896,"SoundDuration":206896,"Delta":213495274},{"NoteNumber":73,"Velocity":42,"Duration":954270,"SoundDuration":954270,"Delta":213656912},{"NoteNumber":77,"Velocity":44,"Duration":921942,"SoundDuration":921942,"Delta":213689239},{"NoteNumber":80,"Velocity":46,"Duration":889614,"SoundDuration":889614,"Delta":213721567},{"NoteNumber":85,"Velocity":53,"Duration":857287,"SoundDuration":857287,"Delta":213753895},{"NoteNumber":61,"Velocity":37,"Duration":189723,"SoundDuration":189723,"Delta":213753895},{"NoteNumber":65,"Velocity":38,"Duration":189723,"SoundDuration":189723,"Delta":213991049},{"NoteNumber":68,"Velocity":36,"Duration":204255,"SoundDuration":204255,"Delta":214228203},{"NoteNumber":73,"Velocity":47,"Duration":143884,"SoundDuration":143884,"Delta":214611182},{"NoteNumber":85,"Velocity":54,"Duration":143884,"SoundDuration":143884,"Delta":214611182},{"NoteNumber":85,"Velocity":65,"Duration":265486,"SoundDuration":265486,"Delta":214827009},{"NoteNumber":73,"Velocity":57,"Duration":265486,"SoundDuration":265486,"Delta":214827009},{"NoteNumber":45,"Velocity":44,"Duration":212389,"SoundDuration":212389,"Delta":214827009},{"NoteNumber":85,"Velocity":50,"Duration":171755,"SoundDuration":171755,"Delta":215092496},{"NoteNumber":97,"Velocity":57,"Duration":171755,"SoundDuration":171755,"Delta":215092496},{"NoteNumber":52,"Velocity":34,"Duration":183206,"SoundDuration":183206,"Delta":215092496},{"NoteNumber":85,"Velocity":58,"Duration":229007,"SoundDuration":229007,"Delta":215321504},{"NoteNumber":97,"Velocity":66,"Duration":229007,"SoundDuration":229007,"Delta":215321504},{"NoteNumber":57,"Velocity":35,"Duration":183206,"SoundDuration":183206,"Delta":215321504},{"NoteNumber":95,"Velocity":58,"Duration":179159,"SoundDuration":179159,"Delta":215550512},{"NoteNumber":83,"Velocity":51,"Duration":179159,"SoundDuration":179159,"Delta":215550512},{"NoteNumber":61,"Velocity":36,"Duration":192090,"SoundDuration":192090,"Delta":215550512},{"NoteNumber":95,"Velocity":64,"Duration":229007,"SoundDuration":229007,"Delta":215794326},{"NoteNumber":83,"Velocity":56,"Duration":229007,"SoundDuration":229007,"Delta":215794326},{"NoteNumber":64,"Velocity":37,"Duration":183206,"SoundDuration":183206,"Delta":215794326},{"NoteNumber":93,"Velocity":51,"Duration":171755,"SoundDuration":171755,"Delta":216023334},{"NoteNumber":81,"Velocity":45,"Duration":171755,"SoundDuration":171755,"Delta":216023334},{"NoteNumber":69,"Velocity":38,"Duration":183206,"SoundDuration":183206,"Delta":216023334},{"NoteNumber":81,"Velocity":49,"Duration":229007,"SoundDuration":229007,"Delta":216252341},{"NoteNumber":93,"Velocity":56,"Duration":229007,"SoundDuration":229007,"Delta":216252341},{"NoteNumber":73,"Velocity":36,"Duration":183206,"SoundDuration":183206,"Delta":216252341},{"NoteNumber":92,"Velocity":51,"Duration":255319,"SoundDuration":255319,"Delta":216481349},{"NoteNumber":80,"Velocity":45,"Duration":255319,"SoundDuration":255319,"Delta":216481349},{"NoteNumber":83,"Velocity":56,"Duration":240000,"SoundDuration":240000,"Delta":216736668},{"NoteNumber":95,"Velocity":64,"Duration":240000,"SoundDuration":240000,"Delta":216736668},{"NoteNumber":44,"Velocity":44,"Duration":192000,"SoundDuration":192000,"Delta":216736668},{"NoteNumber":53,"Velocity":34,"Duration":191999,"SoundDuration":191999,"Delta":216976668},{"NoteNumber":81,"Velocity":48,"Duration":300000,"SoundDuration":300000,"Delta":217156668},{"NoteNumber":85,"Velocity":48,"Duration":270000,"SoundDuration":270000,"Delta":217186668},{"NoteNumber":93,"Velocity":49,"Duration":240000,"SoundDuration":240000,"Delta":217216668},{"NoteNumber":59,"Velocity":31,"Duration":192000,"SoundDuration":192000,"Delta":217216668},{"NoteNumber":61,"Velocity":32,"Duration":201818,"SoundDuration":201818,"Delta":217456668},{"NoteNumber":80,"Velocity":50,"Duration":1005681,"SoundDuration":1005681,"Delta":217644850},{"NoteNumber":85,"Velocity":50,"Duration":971590,"SoundDuration":971590,"Delta":217678941},{"NoteNumber":92,"Velocity":57,"Duration":937500,"SoundDuration":937500,"Delta":217713032},{"NoteNumber":65,"Velocity":33,"Duration":187500,"SoundDuration":187500,"Delta":217713032},{"NoteNumber":71,"Velocity":34,"Duration":187500,"SoundDuration":187500,"Delta":217947407},{"NoteNumber":73,"Velocity":32,"Duration":187500,"SoundDuration":187500,"Delta":218181782},{"NoteNumber":93,"Velocity":51,"Duration":276497,"SoundDuration":276497,"Delta":218650532},{"NoteNumber":81,"Velocity":45,"Duration":276497,"SoundDuration":276497,"Delta":218650532},{"NoteNumber":42,"Velocity":33,"Duration":531817,"SoundDuration":531817,"Delta":218650532},{"NoteNumber":80,"Velocity":33,"Duration":127659,"SoundDuration":127659,"Delta":218927030},{"NoteNumber":92,"Velocity":38,"Duration":191489,"SoundDuration":191489,"Delta":218927030},{"NoteNumber":90,"Velocity":51,"Duration":242915,"SoundDuration":242915,"Delta":219182349},{"NoteNumber":85,"Velocity":36,"Duration":504923,"SoundDuration":504923,"Delta":219182349},{"NoteNumber":78,"Velocity":45,"Duration":242915,"SoundDuration":242915,"Delta":219182349},{"NoteNumber":61,"Velocity":26,"Duration":504923,"SoundDuration":504923,"Delta":219182349},{"NoteNumber":69,"Velocity":26,"Duration":504923,"SoundDuration":504923,"Delta":219182349},{"NoteNumber":66,"Velocity":26,"Duration":504923,"SoundDuration":504923,"Delta":219182349},{"NoteNumber":81,"Velocity":33,"Duration":262008,"SoundDuration":262008,"Delta":219425264},{"NoteNumber":93,"Velocity":38,"Duration":218340,"SoundDuration":218340,"Delta":219425264},{"NoteNumber":80,"Velocity":45,"Duration":240000,"SoundDuration":240000,"Delta":219687273},{"NoteNumber":92,"Velocity":52,"Duration":240000,"SoundDuration":240000,"Delta":219687273},{"NoteNumber":37,"Velocity":27,"Duration":487659,"SoundDuration":487659,"Delta":219687273},{"NoteNumber":78,"Velocity":33,"Duration":247659,"SoundDuration":247659,"Delta":219927273},{"NoteNumber":90,"Velocity":38,"Duration":247659,"SoundDuration":247659,"Delta":219927273},{"NoteNumber":89,"Velocity":49,"Duration":255319,"SoundDuration":255319,"Delta":220174932},{"NoteNumber":85,"Velocity":36,"Duration":543780,"SoundDuration":543780,"Delta":220174932},{"NoteNumber":77,"Velocity":43,"Duration":255319,"SoundDuration":255319,"Delta":220174932},{"NoteNumber":65,"Velocity":27,"Duration":543780,"SoundDuration":543780,"Delta":220174932},{"NoteNumber":59,"Velocity":27,"Duration":543780,"SoundDuration":543780,"Delta":220174932},{"NoteNumber":68,"Velocity":27,"Duration":543780,"SoundDuration":543780,"Delta":220174932},{"NoteNumber":92,"Velocity":38,"Duration":240384,"SoundDuration":240384,"Delta":220430252},{"NoteNumber":80,"Velocity":33,"Duration":288461,"SoundDuration":288461,"Delta":220430252},{"NoteNumber":78,"Velocity":43,"Duration":510638,"SoundDuration":510638,"Delta":220718713},{"NoteNumber":90,"Velocity":49,"Duration":510638,"SoundDuration":510638,"Delta":220718713},{"NoteNumber":42,"Velocity":33,"Duration":510638,"SoundDuration":510638,"Delta":220718713},{"NoteNumber":58,"Velocity":27,"Duration":1605532,"SoundDuration":1605532,"Delta":221133607},{"NoteNumber":61,"Velocity":27,"Duration":1573617,"SoundDuration":1573617,"Delta":221165522},{"NoteNumber":66,"Velocity":27,"Duration":1541702,"SoundDuration":1541702,"Delta":221197437},{"NoteNumber":85,"Velocity":36,"Duration":569757,"SoundDuration":569757,"Delta":221229352},{"NoteNumber":90,"Velocity":42,"Duration":421242,"SoundDuration":421242,"Delta":221229352},{"NoteNumber":78,"Velocity":36,"Duration":421242,"SoundDuration":421242,"Delta":221229352},{"NoteNumber":70,"Velocity":27,"Duration":1509787,"SoundDuration":1509787,"Delta":221229352},{"NoteNumber":77,"Velocity":36,"Duration":148514,"SoundDuration":148514,"Delta":221650594},{"NoteNumber":89,"Velocity":42,"Duration":148514,"SoundDuration":148514,"Delta":221650594},{"NoteNumber":85,"Velocity":39,"Duration":940030,"SoundDuration":940030,"Delta":221799109},{"NoteNumber":90,"Velocity":45,"Duration":940030,"SoundDuration":940030,"Delta":221799109},{"NoteNumber":78,"Velocity":39,"Duration":940030,"SoundDuration":940030,"Delta":221799109},{"NoteNumber":56,"Velocity":51,"Duration":93985,"SoundDuration":93985,"Delta":222739139},{"NoteNumber":52,"Velocity":42,"Duration":93985,"SoundDuration":93985,"Delta":222739139},{"NoteNumber":49,"Velocity":54,"Duration":149886,"SoundDuration":149886,"Delta":222739139},{"NoteNumber":37,"Velocity":46,"Duration":149886,"SoundDuration":149886,"Delta":222739139},{"NoteNumber":61,"Velocity":42,"Duration":93167,"SoundDuration":93167,"Delta":222833125},{"NoteNumber":52,"Velocity":38,"Duration":92494,"SoundDuration":92494,"Delta":222926292},{"NoteNumber":56,"Velocity":45,"Duration":92494,"SoundDuration":92494,"Delta":222926292},{"NoteNumber":48,"Velocity":48,"Duration":147512,"SoundDuration":147512,"Delta":222926292},{"NoteNumber":36,"Velocity":40,"Duration":147512,"SoundDuration":147512,"Delta":222926292},{"NoteNumber":61,"Velocity":43,"Duration":91604,"SoundDuration":91604,"Delta":223018786},{"NoteNumber":56,"Velocity":45,"Duration":91007,"SoundDuration":91007,"Delta":223110390},{"NoteNumber":52,"Velocity":38,"Duration":91007,"SoundDuration":91007,"Delta":223110390},{"NoteNumber":35,"Velocity":40,"Duration":145238,"SoundDuration":145238,"Delta":223110390},{"NoteNumber":47,"Velocity":48,"Duration":145238,"SoundDuration":145238,"Delta":223110390},{"NoteNumber":61,"Velocity":43,"Duration":90159,"SoundDuration":90159,"Delta":223201398},{"NoteNumber":52,"Velocity":38,"Duration":89567,"SoundDuration":89567,"Delta":223291558},{"NoteNumber":56,"Velocity":45,"Duration":89567,"SoundDuration":89567,"Delta":223291558},{"NoteNumber":46,"Velocity":48,"Duration":142979,"SoundDuration":142979,"Delta":223291558},{"NoteNumber":34,"Velocity":40,"Duration":142979,"SoundDuration":142979,"Delta":223291558},{"NoteNumber":61,"Velocity":42,"Duration":88745,"SoundDuration":88745,"Delta":223381125},{"NoteNumber":56,"Velocity":49,"Duration":88235,"SoundDuration":88235,"Delta":223469871},{"NoteNumber":52,"Velocity":42,"Duration":88235,"SoundDuration":88235,"Delta":223469871},{"NoteNumber":45,"Velocity":48,"Duration":141176,"SoundDuration":141176,"Delta":223469871},{"NoteNumber":33,"Velocity":40,"Duration":141176,"SoundDuration":141176,"Delta":223469871},{"NoteNumber":61,"Velocity":42,"Duration":88235,"SoundDuration":88235,"Delta":223558106},{"NoteNumber":52,"Velocity":38,"Duration":88235,"SoundDuration":88235,"Delta":223646341},{"NoteNumber":56,"Velocity":45,"Duration":88235,"SoundDuration":88235,"Delta":223646341},{"NoteNumber":32,"Velocity":41,"Duration":141176,"SoundDuration":141176,"Delta":223646341},{"NoteNumber":44,"Velocity":48,"Duration":141176,"SoundDuration":141176,"Delta":223646341},{"NoteNumber":61,"Velocity":41,"Duration":88235,"SoundDuration":88235,"Delta":223734576},{"NoteNumber":52,"Velocity":38,"Duration":88235,"SoundDuration":88235,"Delta":223822812},{"NoteNumber":56,"Velocity":45,"Duration":88235,"SoundDuration":88235,"Delta":223822812},{"NoteNumber":43,"Velocity":51,"Duration":141176,"SoundDuration":141176,"Delta":223822812},{"NoteNumber":31,"Velocity":43,"Duration":141176,"SoundDuration":141176,"Delta":223822812},{"NoteNumber":61,"Velocity":41,"Duration":88235,"SoundDuration":88235,"Delta":223911047},{"NoteNumber":56,"Velocity":45,"Duration":101694,"SoundDuration":101694,"Delta":223999282},{"NoteNumber":52,"Velocity":38,"Duration":101694,"SoundDuration":101694,"Delta":223999282},{"NoteNumber":44,"Velocity":55,"Duration":162711,"SoundDuration":162711,"Delta":223999282},{"NoteNumber":32,"Velocity":46,"Duration":162711,"SoundDuration":162711,"Delta":223999282},{"NoteNumber":61,"Velocity":40,"Duration":101694,"SoundDuration":101694,"Delta":224100977},{"NoteNumber":54,"Velocity":41,"Duration":89020,"SoundDuration":89020,"Delta":224202672},{"NoteNumber":57,"Velocity":48,"Duration":89020,"SoundDuration":89020,"Delta":224202672},{"NoteNumber":33,"Velocity":48,"Duration":142433,"SoundDuration":142433,"Delta":224202672},{"NoteNumber":45,"Velocity":57,"Duration":142433,"SoundDuration":142433,"Delta":224202672},{"NoteNumber":66,"Velocity":42,"Duration":89020,"SoundDuration":89020,"Delta":224291693},{"NoteNumber":57,"Velocity":45,"Duration":89020,"SoundDuration":89020,"Delta":224380713},{"NoteNumber":54,"Velocity":38,"Duration":89020,"SoundDuration":89020,"Delta":224380713},{"NoteNumber":44,"Velocity":54,"Duration":142433,"SoundDuration":142433,"Delta":224380713},{"NoteNumber":32,"Velocity":45,"Duration":142433,"SoundDuration":142433,"Delta":224380713},{"NoteNumber":66,"Velocity":42,"Duration":89020,"SoundDuration":89020,"Delta":224469734},{"NoteNumber":54,"Velocity":39,"Duration":89020,"SoundDuration":89020,"Delta":224558755},{"NoteNumber":57,"Velocity":46,"Duration":89020,"SoundDuration":89020,"Delta":224558755},{"NoteNumber":43,"Velocity":48,"Duration":142433,"SoundDuration":142433,"Delta":224558755},{"NoteNumber":31,"Velocity":41,"Duration":142433,"SoundDuration":142433,"Delta":224558755},{"NoteNumber":66,"Velocity":41,"Duration":89020,"SoundDuration":89020,"Delta":224647776},{"NoteNumber":54,"Velocity":38,"Duration":89020,"SoundDuration":89020,"Delta":224736796},{"NoteNumber":57,"Velocity":45,"Duration":89020,"SoundDuration":89020,"Delta":224736796},{"NoteNumber":42,"Velocity":48,"Duration":142433,"SoundDuration":142433,"Delta":224736796},{"NoteNumber":30,"Velocity":41,"Duration":142433,"SoundDuration":142433,"Delta":224736796},{"NoteNumber":66,"Velocity":42,"Duration":89020,"SoundDuration":89020,"Delta":224825817},{"NoteNumber":57,"Velocity":45,"Duration":89020,"SoundDuration":89020,"Delta":224914838},{"NoteNumber":54,"Velocity":38,"Duration":89020,"SoundDuration":89020,"Delta":224914838},{"NoteNumber":29,"Velocity":41,"Duration":142433,"SoundDuration":142433,"Delta":224914838},{"NoteNumber":41,"Velocity":48,"Duration":142433,"SoundDuration":142433,"Delta":224914838},{"NoteNumber":66,"Velocity":42,"Duration":89020,"SoundDuration":89020,"Delta":225003859},{"NoteNumber":54,"Velocity":38,"Duration":89020,"SoundDuration":89020,"Delta":225092879},{"NoteNumber":57,"Velocity":45,"Duration":89020,"SoundDuration":89020,"Delta":225092879},{"NoteNumber":40,"Velocity":48,"Duration":142433,"SoundDuration":142433,"Delta":225092879},{"NoteNumber":28,"Velocity":41,"Duration":142433,"SoundDuration":142433,"Delta":225092879},{"NoteNumber":66,"Velocity":42,"Duration":89020,"SoundDuration":89020,"Delta":225181900},{"NoteNumber":57,"Velocity":45,"Duration":89020,"SoundDuration":89020,"Delta":225270921},{"NoteNumber":54,"Velocity":38,"Duration":89020,"SoundDuration":89020,"Delta":225270921},{"NoteNumber":39,"Velocity":48,"Duration":142433,"SoundDuration":142433,"Delta":225270921},{"NoteNumber":27,"Velocity":40,"Duration":142433,"SoundDuration":142433,"Delta":225270921},{"NoteNumber":66,"Velocity":41,"Duration":89020,"SoundDuration":89020,"Delta":225359942},{"NoteNumber":54,"Velocity":38,"Duration":109488,"SoundDuration":109488,"Delta":225448962},{"NoteNumber":57,"Velocity":45,"Duration":109488,"SoundDuration":109488,"Delta":225448962},{"NoteNumber":24,"Velocity":40,"Duration":175182,"SoundDuration":175182,"Delta":225448962},{"NoteNumber":36,"Velocity":48,"Duration":175182,"SoundDuration":175182,"Delta":225448962},{"NoteNumber":66,"Velocity":42,"Duration":109488,"SoundDuration":109488,"Delta":225558451},{"NoteNumber":52,"Velocity":42,"Duration":89020,"SoundDuration":89020,"Delta":225667940},{"NoteNumber":56,"Velocity":51,"Duration":89020,"SoundDuration":89020,"Delta":225667940},{"NoteNumber":25,"Velocity":46,"Duration":142433,"SoundDuration":142433,"Delta":225667940},{"NoteNumber":37,"Velocity":54,"Duration":142433,"SoundDuration":142433,"Delta":225667940},{"NoteNumber":64,"Velocity":42,"Duration":89020,"SoundDuration":89020,"Delta":225756961},{"NoteNumber":56,"Velocity":45,"Duration":89020,"SoundDuration":89020,"Delta":225845982},{"NoteNumber":52,"Velocity":38,"Duration":89020,"SoundDuration":89020,"Delta":225845982},{"NoteNumber":38,"Velocity":47,"Duration":142433,"SoundDuration":142433,"Delta":225845982},{"NoteNumber":26,"Velocity":39,"Duration":142433,"SoundDuration":142433,"Delta":225845982},{"NoteNumber":64,"Velocity":44,"Duration":89020,"SoundDuration":89020,"Delta":225935003},{"NoteNumber":52,"Velocity":39,"Duration":89020,"SoundDuration":89020,"Delta":226024023},{"NoteNumber":56,"Velocity":46,"Duration":89020,"SoundDuration":89020,"Delta":226024023},{"NoteNumber":39,"Velocity":49,"Duration":142433,"SoundDuration":142433,"Delta":226024023},{"NoteNumber":27,"Velocity":42,"Duration":142433,"SoundDuration":142433,"Delta":226024023},{"NoteNumber":64,"Velocity":45,"Duration":89020,"SoundDuration":89020,"Delta":226113044},{"NoteNumber":52,"Velocity":40,"Duration":89020,"SoundDuration":89020,"Delta":226202065},{"NoteNumber":56,"Velocity":48,"Duration":89020,"SoundDuration":89020,"Delta":226202065},{"NoteNumber":28,"Velocity":44,"Duration":142433,"SoundDuration":142433,"Delta":226202065},{"NoteNumber":40,"Velocity":52,"Duration":142433,"SoundDuration":142433,"Delta":226202065},{"NoteNumber":64,"Velocity":45,"Duration":89020,"SoundDuration":89020,"Delta":226291086},{"NoteNumber":50,"Velocity":46,"Duration":89020,"SoundDuration":89020,"Delta":226380106},{"NoteNumber":54,"Velocity":55,"Duration":89020,"SoundDuration":89020,"Delta":226380106},{"NoteNumber":41,"Velocity":58,"Duration":142433,"SoundDuration":142433,"Delta":226380106},{"NoteNumber":29,"Velocity":49,"Duration":142433,"SoundDuration":142433,"Delta":226380106},{"NoteNumber":62,"Velocity":46,"Duration":89020,"SoundDuration":89020,"Delta":226469127},{"NoteNumber":50,"Velocity":42,"Duration":89020,"SoundDuration":89020,"Delta":226558148},{"NoteNumber":54,"Velocity":49,"Duration":89020,"SoundDuration":89020,"Delta":226558148},{"NoteNumber":42,"Velocity":54,"Duration":142433,"SoundDuration":142433,"Delta":226558148},{"NoteNumber":30,"Velocity":46,"Duration":142433,"SoundDuration":142433,"Delta":226558148},{"NoteNumber":62,"Velocity":48,"Duration":89020,"SoundDuration":89020,"Delta":226647169},{"NoteNumber":54,"Velocity":51,"Duration":89020,"SoundDuration":89020,"Delta":226736189},{"NoteNumber":50,"Velocity":43,"Duration":89020,"SoundDuration":89020,"Delta":226736189},{"NoteNumber":29,"Velocity":50,"Duration":142433,"SoundDuration":142433,"Delta":226736189},{"NoteNumber":41,"Velocity":59,"Duration":142433,"SoundDuration":142433,"Delta":226736189},{"NoteNumber":62,"Velocity":49,"Duration":89020,"SoundDuration":89020,"Delta":226825210},{"NoteNumber":50,"Velocity":43,"Duration":102739,"SoundDuration":102739,"Delta":226914231},{"NoteNumber":54,"Velocity":51,"Duration":102739,"SoundDuration":102739,"Delta":226914231},{"NoteNumber":42,"Velocity":56,"Duration":164383,"SoundDuration":164383,"Delta":226914231},{"NoteNumber":30,"Velocity":48,"Duration":164383,"SoundDuration":164383,"Delta":226914231},{"NoteNumber":62,"Velocity":49,"Duration":102739,"SoundDuration":102739,"Delta":227016971},{"NoteNumber":52,"Velocity":59,"Duration":89820,"SoundDuration":89820,"Delta":227119710},{"NoteNumber":49,"Velocity":50,"Duration":89820,"SoundDuration":89820,"Delta":227119710},{"NoteNumber":43,"Velocity":64,"Duration":143712,"SoundDuration":143712,"Delta":227119710},{"NoteNumber":31,"Velocity":54,"Duration":143712,"SoundDuration":143712,"Delta":227119710},{"NoteNumber":61,"Velocity":50,"Duration":89820,"SoundDuration":89820,"Delta":227209531},{"NoteNumber":52,"Velocity":54,"Duration":89820,"SoundDuration":89820,"Delta":227299351},{"NoteNumber":49,"Velocity":45,"Duration":89820,"SoundDuration":89820,"Delta":227299351},{"NoteNumber":32,"Velocity":51,"Duration":143712,"SoundDuration":143712,"Delta":227299351},{"NoteNumber":44,"Velocity":61,"Duration":143712,"SoundDuration":143712,"Delta":227299351},{"NoteNumber":61,"Velocity":52,"Duration":89820,"SoundDuration":89820,"Delta":227389171},{"NoteNumber":49,"Velocity":46,"Duration":89820,"SoundDuration":89820,"Delta":227478992},{"NoteNumber":52,"Velocity":54,"Duration":89820,"SoundDuration":89820,"Delta":227478992},{"NoteNumber":43,"Velocity":65,"Duration":143712,"SoundDuration":143712,"Delta":227478992},{"NoteNumber":31,"Velocity":55,"Duration":143712,"SoundDuration":143712,"Delta":227478992},{"NoteNumber":61,"Velocity":53,"Duration":89820,"SoundDuration":89820,"Delta":227568812},{"NoteNumber":52,"Velocity":55,"Duration":89820,"SoundDuration":89820,"Delta":227658633},{"NoteNumber":49,"Velocity":47,"Duration":89820,"SoundDuration":89820,"Delta":227658633},{"NoteNumber":44,"Velocity":59,"Duration":143712,"SoundDuration":143712,"Delta":227658633},{"NoteNumber":32,"Velocity":50,"Duration":143712,"SoundDuration":143712,"Delta":227658633},{"NoteNumber":61,"Velocity":53,"Duration":89820,"SoundDuration":89820,"Delta":227748453},{"NoteNumber":51,"Velocity":53,"Duration":89820,"SoundDuration":89820,"Delta":227838273},{"NoteNumber":54,"Velocity":62,"Duration":89820,"SoundDuration":89820,"Delta":227838273},{"NoteNumber":33,"Velocity":62,"Duration":143712,"SoundDuration":143712,"Delta":227838273},{"NoteNumber":45,"Velocity":74,"Duration":143712,"SoundDuration":143712,"Delta":227838273},{"NoteNumber":60,"Velocity":54,"Duration":89820,"SoundDuration":89820,"Delta":227928094},{"NoteNumber":54,"Velocity":57,"Duration":89820,"SoundDuration":89820,"Delta":228017914},{"NoteNumber":51,"Velocity":48,"Duration":89820,"SoundDuration":89820,"Delta":228017914},{"NoteNumber":44,"Velocity":64,"Duration":143712,"SoundDuration":143712,"Delta":228017914},{"NoteNumber":32,"Velocity":53,"Duration":143712,"SoundDuration":143712,"Delta":228017914},{"NoteNumber":60,"Velocity":56,"Duration":89820,"SoundDuration":89820,"Delta":228107734},{"NoteNumber":54,"Velocity":58,"Duration":89820,"SoundDuration":89820,"Delta":228197555},{"NoteNumber":51,"Velocity":49,"Duration":89820,"SoundDuration":89820,"Delta":228197555},{"NoteNumber":45,"Velocity":74,"Duration":143712,"SoundDuration":143712,"Delta":228197555},{"NoteNumber":33,"Velocity":62,"Duration":143712,"SoundDuration":143712,"Delta":228197555},{"NoteNumber":60,"Velocity":57,"Duration":89820,"SoundDuration":89820,"Delta":228287375},{"NoteNumber":51,"Velocity":51,"Duration":111940,"SoundDuration":111940,"Delta":228377196},{"NoteNumber":54,"Velocity":60,"Duration":111940,"SoundDuration":111940,"Delta":228377196},{"NoteNumber":32,"Velocity":57,"Duration":179104,"SoundDuration":179104,"Delta":228377196},{"NoteNumber":44,"Velocity":68,"Duration":179104,"SoundDuration":179104,"Delta":228377196},{"NoteNumber":60,"Velocity":57,"Duration":111940,"SoundDuration":111940,"Delta":228489136},{"NoteNumber":61,"Velocity":92,"Duration":179640,"SoundDuration":179640,"Delta":228601076},{"NoteNumber":49,"Velocity":75,"Duration":179640,"SoundDuration":179640,"Delta":228601076},{"NoteNumber":52,"Velocity":75,"Duration":179640,"SoundDuration":179640,"Delta":228601076},{"NoteNumber":37,"Velocity":89,"Duration":179640,"SoundDuration":179640,"Delta":228601076},{"NoteNumber":25,"Velocity":75,"Duration":179640,"SoundDuration":179640,"Delta":228601076},{"NoteNumber":61,"Velocity":78,"Duration":78634,"SoundDuration":78634,"Delta":229319519},{"NoteNumber":57,"Velocity":78,"Duration":78634,"SoundDuration":78634,"Delta":229319519},{"NoteNumber":54,"Velocity":89,"Duration":178747,"SoundDuration":178747,"Delta":229319519},{"NoteNumber":42,"Velocity":75,"Duration":178747,"SoundDuration":178747,"Delta":229319519},{"NoteNumber":49,"Velocity":75,"Duration":178747,"SoundDuration":178747,"Delta":229319519},{"NoteNumber":66,"Velocity":67,"Duration":79154,"SoundDuration":79154,"Delta":229398154},{"NoteNumber":69,"Velocity":69,"Duration":79544,"SoundDuration":79544,"Delta":229477309},{"NoteNumber":73,"Velocity":71,"Duration":80060,"SoundDuration":80060,"Delta":229556854},{"NoteNumber":78,"Velocity":73,"Duration":80654,"SoundDuration":80654,"Delta":229635404},{"NoteNumber":81,"Velocity":75,"Duration":81060,"SoundDuration":81060,"Delta":229716058},{"NoteNumber":85,"Velocity":77,"Duration":81538,"SoundDuration":81538,"Delta":229797118},{"NoteNumber":90,"Velocity":79,"Duration":82714,"SoundDuration":82714,"Delta":229878657},{"NoteNumber":93,"Velocity":81,"Duration":111969,"SoundDuration":111969,"Delta":229959441},{"NoteNumber":92,"Velocity":92,"Duration":245901,"SoundDuration":245901,"Delta":230071410},{"NoteNumber":85,"Velocity":92,"Duration":245901,"SoundDuration":245901,"Delta":230071410},{"NoteNumber":97,"Velocity":96,"Duration":245901,"SoundDuration":245901,"Delta":230071410},{"NoteNumber":52,"Velocity":89,"Duration":245901,"SoundDuration":245901,"Delta":230071410},{"NoteNumber":37,"Velocity":75,"Duration":245901,"SoundDuration":245901,"Delta":230071410},{"NoteNumber":44,"Velocity":75,"Duration":245901,"SoundDuration":245901,"Delta":230071410},{"NoteNumber":63,"Velocity":51,"Duration":93985,"SoundDuration":93985,"Delta":232038624},{"NoteNumber":59,"Velocity":42,"Duration":93985,"SoundDuration":93985,"Delta":232038624},{"NoteNumber":56,"Velocity":54,"Duration":149886,"SoundDuration":149886,"Delta":232038624},{"NoteNumber":44,"Velocity":46,"Duration":149886,"SoundDuration":149886,"Delta":232038624},{"NoteNumber":68,"Velocity":42,"Duration":93167,"SoundDuration":93167,"Delta":232132609},{"NoteNumber":59,"Velocity":38,"Duration":92494,"SoundDuration":92494,"Delta":232225777},{"NoteNumber":63,"Velocity":45,"Duration":92494,"SoundDuration":92494,"Delta":232225777},{"NoteNumber":43,"Velocity":40,"Duration":147512,"SoundDuration":147512,"Delta":232225777},{"NoteNumber":55,"Velocity":48,"Duration":147512,"SoundDuration":147512,"Delta":232225777},{"NoteNumber":68,"Velocity":43,"Duration":91604,"SoundDuration":91604,"Delta":232318271},{"NoteNumber":59,"Velocity":38,"Duration":91007,"SoundDuration":91007,"Delta":232409875},{"NoteNumber":63,"Velocity":45,"Duration":91007,"SoundDuration":91007,"Delta":232409875},{"NoteNumber":54,"Velocity":48,"Duration":145238,"SoundDuration":145238,"Delta":232409875},{"NoteNumber":42,"Velocity":40,"Duration":145238,"SoundDuration":145238,"Delta":232409875},{"NoteNumber":68,"Velocity":43,"Duration":90159,"SoundDuration":90159,"Delta":232500883},{"NoteNumber":59,"Velocity":38,"Duration":89567,"SoundDuration":89567,"Delta":232591042},{"NoteNumber":63,"Velocity":45,"Duration":89567,"SoundDuration":89567,"Delta":232591042},{"NoteNumber":53,"Velocity":48,"Duration":142979,"SoundDuration":142979,"Delta":232591042},{"NoteNumber":41,"Velocity":40,"Duration":142979,"SoundDuration":142979,"Delta":232591042},{"NoteNumber":68,"Velocity":42,"Duration":88745,"SoundDuration":88745,"Delta":232680610},{"NoteNumber":59,"Velocity":42,"Duration":88235,"SoundDuration":88235,"Delta":232769355},{"NoteNumber":63,"Velocity":49,"Duration":88235,"SoundDuration":88235,"Delta":232769355},{"NoteNumber":40,"Velocity":40,"Duration":141176,"SoundDuration":141176,"Delta":232769355},{"NoteNumber":52,"Velocity":48,"Duration":141176,"SoundDuration":141176,"Delta":232769355},{"NoteNumber":68,"Velocity":42,"Duration":88235,"SoundDuration":88235,"Delta":232857591},{"NoteNumber":63,"Velocity":45,"Duration":88235,"SoundDuration":88235,"Delta":232945826},{"NoteNumber":59,"Velocity":38,"Duration":88235,"SoundDuration":88235,"Delta":232945826},{"NoteNumber":51,"Velocity":48,"Duration":141176,"SoundDuration":141176,"Delta":232945826},{"NoteNumber":39,"Velocity":41,"Duration":141176,"SoundDuration":141176,"Delta":232945826},{"NoteNumber":68,"Velocity":41,"Duration":88235,"SoundDuration":88235,"Delta":233034061},{"NoteNumber":59,"Velocity":38,"Duration":88235,"SoundDuration":88235,"Delta":233122296},{"NoteNumber":63,"Velocity":45,"Duration":88235,"SoundDuration":88235,"Delta":233122296},{"NoteNumber":50,"Velocity":51,"Duration":141176,"SoundDuration":141176,"Delta":233122296},{"NoteNumber":38,"Velocity":43,"Duration":141176,"SoundDuration":141176,"Delta":233122296},{"NoteNumber":68,"Velocity":41,"Duration":88235,"SoundDuration":88235,"Delta":233210532},{"NoteNumber":63,"Velocity":45,"Duration":101694,"SoundDuration":101694,"Delta":233298767},{"NoteNumber":59,"Velocity":38,"Duration":101694,"SoundDuration":101694,"Delta":233298767},{"NoteNumber":39,"Velocity":46,"Duration":162711,"SoundDuration":162711,"Delta":233298767},{"NoteNumber":51,"Velocity":55,"Duration":162711,"SoundDuration":162711,"Delta":233298767},{"NoteNumber":68,"Velocity":40,"Duration":101694,"SoundDuration":101694,"Delta":233400462},{"NoteNumber":64,"Velocity":48,"Duration":89020,"SoundDuration":89020,"Delta":233502157},{"NoteNumber":61,"Velocity":41,"Duration":89020,"SoundDuration":89020,"Delta":233502157},{"NoteNumber":52,"Velocity":57,"Duration":142433,"SoundDuration":142433,"Delta":233502157},{"NoteNumber":40,"Velocity":48,"Duration":142433,"SoundDuration":142433,"Delta":233502157},{"NoteNumber":73,"Velocity":42,"Duration":89020,"SoundDuration":89020,"Delta":233591177},{"NoteNumber":61,"Velocity":38,"Duration":89020,"SoundDuration":89020,"Delta":233680198},{"NoteNumber":64,"Velocity":45,"Duration":89020,"SoundDuration":89020,"Delta":233680198},{"NoteNumber":51,"Velocity":54,"Duration":142433,"SoundDuration":142433,"Delta":233680198},{"NoteNumber":39,"Velocity":45,"Duration":142433,"SoundDuration":142433,"Delta":233680198},{"NoteNumber":73,"Velocity":42,"Duration":89020,"SoundDuration":89020,"Delta":233769219},{"NoteNumber":64,"Velocity":46,"Duration":89020,"SoundDuration":89020,"Delta":233858240},{"NoteNumber":61,"Velocity":39,"Duration":89020,"SoundDuration":89020,"Delta":233858240},{"NoteNumber":38,"Velocity":41,"Duration":142433,"SoundDuration":142433,"Delta":233858240},{"NoteNumber":50,"Velocity":48,"Duration":142433,"SoundDuration":142433,"Delta":233858240},{"NoteNumber":73,"Velocity":41,"Duration":89020,"SoundDuration":89020,"Delta":233947260},{"NoteNumber":61,"Velocity":38,"Duration":89020,"SoundDuration":89020,"Delta":234036281},{"NoteNumber":64,"Velocity":45,"Duration":89020,"SoundDuration":89020,"Delta":234036281},{"NoteNumber":49,"Velocity":48,"Duration":142433,"SoundDuration":142433,"Delta":234036281},{"NoteNumber":37,"Velocity":41,"Duration":142433,"SoundDuration":142433,"Delta":234036281},{"NoteNumber":73,"Velocity":42,"Duration":89020,"SoundDuration":89020,"Delta":234125302},{"NoteNumber":64,"Velocity":45,"Duration":89020,"SoundDuration":89020,"Delta":234214323},{"NoteNumber":61,"Velocity":38,"Duration":89020,"SoundDuration":89020,"Delta":234214323},{"NoteNumber":48,"Velocity":48,"Duration":142433,"SoundDuration":142433,"Delta":234214323},{"NoteNumber":36,"Velocity":41,"Duration":142433,"SoundDuration":142433,"Delta":234214323},{"NoteNumber":73,"Velocity":42,"Duration":89020,"SoundDuration":89020,"Delta":234303343},{"NoteNumber":64,"Velocity":45,"Duration":89020,"SoundDuration":89020,"Delta":234392364},{"NoteNumber":61,"Velocity":38,"Duration":89020,"SoundDuration":89020,"Delta":234392364},{"NoteNumber":35,"Velocity":41,"Duration":142433,"SoundDuration":142433,"Delta":234392364},{"NoteNumber":47,"Velocity":48,"Duration":142433,"SoundDuration":142433,"Delta":234392364},{"NoteNumber":73,"Velocity":42,"Duration":89020,"SoundDuration":89020,"Delta":234481385},{"NoteNumber":61,"Velocity":38,"Duration":89020,"SoundDuration":89020,"Delta":234570406},{"NoteNumber":64,"Velocity":45,"Duration":89020,"SoundDuration":89020,"Delta":234570406},{"NoteNumber":46,"Velocity":48,"Duration":142433,"SoundDuration":142433,"Delta":234570406},{"NoteNumber":34,"Velocity":40,"Duration":142433,"SoundDuration":142433,"Delta":234570406},{"NoteNumber":73,"Velocity":41,"Duration":89020,"SoundDuration":89020,"Delta":234659426},{"NoteNumber":64,"Velocity":45,"Duration":109488,"SoundDuration":109488,"Delta":234748447},{"NoteNumber":61,"Velocity":38,"Duration":109488,"SoundDuration":109488,"Delta":234748447},{"NoteNumber":43,"Velocity":48,"Duration":175182,"SoundDuration":175182,"Delta":234748447},{"NoteNumber":31,"Velocity":40,"Duration":175182,"SoundDuration":175182,"Delta":234748447},{"NoteNumber":73,"Velocity":42,"Duration":109488,"SoundDuration":109488,"Delta":234857936},{"NoteNumber":59,"Velocity":42,"Duration":89020,"SoundDuration":89020,"Delta":234967425},{"NoteNumber":63,"Velocity":51,"Duration":89020,"SoundDuration":89020,"Delta":234967425},{"NoteNumber":32,"Velocity":46,"Duration":142433,"SoundDuration":142433,"Delta":234967425},{"NoteNumber":44,"Velocity":54,"Duration":142433,"SoundDuration":142433,"Delta":234967425},{"NoteNumber":71,"Velocity":42,"Duration":89020,"SoundDuration":89020,"Delta":235056446},{"NoteNumber":63,"Velocity":45,"Duration":89020,"SoundDuration":89020,"Delta":235145467},{"NoteNumber":59,"Velocity":38,"Duration":89020,"SoundDuration":89020,"Delta":235145467},{"NoteNumber":45,"Velocity":47,"Duration":142433,"SoundDuration":142433,"Delta":235145467},{"NoteNumber":33,"Velocity":39,"Duration":142433,"SoundDuration":142433,"Delta":235145467},{"NoteNumber":71,"Velocity":44,"Duration":89020,"SoundDuration":89020,"Delta":235234487},{"NoteNumber":63,"Velocity":46,"Duration":89020,"SoundDuration":89020,"Delta":235323508},{"NoteNumber":59,"Velocity":39,"Duration":89020,"SoundDuration":89020,"Delta":235323508},{"NoteNumber":46,"Velocity":49,"Duration":142433,"SoundDuration":142433,"Delta":235323508},{"NoteNumber":34,"Velocity":42,"Duration":142433,"SoundDuration":142433,"Delta":235323508},{"NoteNumber":71,"Velocity":45,"Duration":89020,"SoundDuration":89020,"Delta":235412529},{"NoteNumber":59,"Velocity":40,"Duration":89020,"SoundDuration":89020,"Delta":235501550},{"NoteNumber":63,"Velocity":48,"Duration":89020,"SoundDuration":89020,"Delta":235501550},{"NoteNumber":35,"Velocity":44,"Duration":142433,"SoundDuration":142433,"Delta":235501550},{"NoteNumber":47,"Velocity":52,"Duration":142433,"SoundDuration":142433,"Delta":235501550},{"NoteNumber":71,"Velocity":45,"Duration":89020,"SoundDuration":89020,"Delta":235590570},{"NoteNumber":61,"Velocity":55,"Duration":89020,"SoundDuration":89020,"Delta":235679591},{"NoteNumber":57,"Velocity":46,"Duration":89020,"SoundDuration":89020,"Delta":235679591},{"NoteNumber":48,"Velocity":58,"Duration":142433,"SoundDuration":142433,"Delta":235679591},{"NoteNumber":36,"Velocity":49,"Duration":142433,"SoundDuration":142433,"Delta":235679591},{"NoteNumber":69,"Velocity":46,"Duration":89020,"SoundDuration":89020,"Delta":235768612},{"NoteNumber":57,"Velocity":42,"Duration":89020,"SoundDuration":89020,"Delta":235857633},{"NoteNumber":61,"Velocity":49,"Duration":89020,"SoundDuration":89020,"Delta":235857633},{"NoteNumber":49,"Velocity":54,"Duration":142433,"SoundDuration":142433,"Delta":235857633},{"NoteNumber":37,"Velocity":46,"Duration":142433,"SoundDuration":142433,"Delta":235857633},{"NoteNumber":69,"Velocity":48,"Duration":89020,"SoundDuration":89020,"Delta":235946653},{"NoteNumber":57,"Velocity":43,"Duration":89020,"SoundDuration":89020,"Delta":236035674},{"NoteNumber":61,"Velocity":51,"Duration":89020,"SoundDuration":89020,"Delta":236035674},{"NoteNumber":36,"Velocity":50,"Duration":142433,"SoundDuration":142433,"Delta":236035674},{"NoteNumber":48,"Velocity":59,"Duration":142433,"SoundDuration":142433,"Delta":236035674},{"NoteNumber":69,"Velocity":49,"Duration":89020,"SoundDuration":89020,"Delta":236124695},{"NoteNumber":57,"Velocity":43,"Duration":102739,"SoundDuration":102739,"Delta":236213716},{"NoteNumber":61,"Velocity":51,"Duration":102739,"SoundDuration":102739,"Delta":236213716},{"NoteNumber":49,"Velocity":56,"Duration":164383,"SoundDuration":164383,"Delta":236213716},{"NoteNumber":37,"Velocity":48,"Duration":164383,"SoundDuration":164383,"Delta":236213716},{"NoteNumber":69,"Velocity":49,"Duration":102739,"SoundDuration":102739,"Delta":236316455},{"NoteNumber":56,"Velocity":50,"Duration":89820,"SoundDuration":89820,"Delta":236419195},{"NoteNumber":59,"Velocity":59,"Duration":89820,"SoundDuration":89820,"Delta":236419195},{"NoteNumber":50,"Velocity":64,"Duration":143712,"SoundDuration":143712,"Delta":236419195},{"NoteNumber":38,"Velocity":54,"Duration":143712,"SoundDuration":143712,"Delta":236419195},{"NoteNumber":68,"Velocity":50,"Duration":89820,"SoundDuration":89820,"Delta":236509015},{"NoteNumber":56,"Velocity":45,"Duration":89820,"SoundDuration":89820,"Delta":236598836},{"NoteNumber":59,"Velocity":54,"Duration":89820,"SoundDuration":89820,"Delta":236598836},{"NoteNumber":51,"Velocity":61,"Duration":143712,"SoundDuration":143712,"Delta":236598836},{"NoteNumber":39,"Velocity":51,"Duration":143712,"SoundDuration":143712,"Delta":236598836},{"NoteNumber":68,"Velocity":52,"Duration":89820,"SoundDuration":89820,"Delta":236688656},{"NoteNumber":59,"Velocity":54,"Duration":89820,"SoundDuration":89820,"Delta":236778477},{"NoteNumber":56,"Velocity":46,"Duration":89820,"SoundDuration":89820,"Delta":236778477},{"NoteNumber":50,"Velocity":65,"Duration":143712,"SoundDuration":143712,"Delta":236778477},{"NoteNumber":38,"Velocity":55,"Duration":143712,"SoundDuration":143712,"Delta":236778477},{"NoteNumber":68,"Velocity":53,"Duration":89820,"SoundDuration":89820,"Delta":236868297},{"NoteNumber":56,"Velocity":47,"Duration":89820,"SoundDuration":89820,"Delta":236958117},{"NoteNumber":59,"Velocity":55,"Duration":89820,"SoundDuration":89820,"Delta":236958117},{"NoteNumber":51,"Velocity":59,"Duration":143712,"SoundDuration":143712,"Delta":236958117},{"NoteNumber":39,"Velocity":50,"Duration":143712,"SoundDuration":143712,"Delta":236958117},{"NoteNumber":68,"Velocity":53,"Duration":89820,"SoundDuration":89820,"Delta":237047938},{"NoteNumber":61,"Velocity":62,"Duration":89820,"SoundDuration":89820,"Delta":237137758},{"NoteNumber":58,"Velocity":53,"Duration":89820,"SoundDuration":89820,"Delta":237137758},{"NoteNumber":52,"Velocity":74,"Duration":143712,"SoundDuration":143712,"Delta":237137758},{"NoteNumber":40,"Velocity":62,"Duration":143712,"SoundDuration":143712,"Delta":237137758},{"NoteNumber":67,"Velocity":54,"Duration":89820,"SoundDuration":89820,"Delta":237227578},{"NoteNumber":58,"Velocity":48,"Duration":89820,"SoundDuration":89820,"Delta":237317399},{"NoteNumber":61,"Velocity":57,"Duration":89820,"SoundDuration":89820,"Delta":237317399},{"NoteNumber":39,"Velocity":53,"Duration":143712,"SoundDuration":143712,"Delta":237317399},{"NoteNumber":51,"Velocity":64,"Duration":143712,"SoundDuration":143712,"Delta":237317399},{"NoteNumber":67,"Velocity":56,"Duration":89820,"SoundDuration":89820,"Delta":237407219},{"NoteNumber":58,"Velocity":49,"Duration":89820,"SoundDuration":89820,"Delta":237497040},{"NoteNumber":61,"Velocity":58,"Duration":89820,"SoundDuration":89820,"Delta":237497040},{"NoteNumber":52,"Velocity":74,"Duration":143712,"SoundDuration":143712,"Delta":237497040},{"NoteNumber":40,"Velocity":62,"Duration":143712,"SoundDuration":143712,"Delta":237497040},{"NoteNumber":67,"Velocity":57,"Duration":89820,"SoundDuration":89820,"Delta":237586860},{"NoteNumber":61,"Velocity":60,"Duration":111940,"SoundDuration":111940,"Delta":237676680},{"NoteNumber":58,"Velocity":51,"Duration":111940,"SoundDuration":111940,"Delta":237676680},{"NoteNumber":51,"Velocity":68,"Duration":179104,"SoundDuration":179104,"Delta":237676680},{"NoteNumber":39,"Velocity":57,"Duration":179104,"SoundDuration":179104,"Delta":237676680},{"NoteNumber":67,"Velocity":57,"Duration":111940,"SoundDuration":111940,"Delta":237788621},{"NoteNumber":56,"Velocity":75,"Duration":179640,"SoundDuration":179640,"Delta":237900561},{"NoteNumber":68,"Velocity":92,"Duration":179640,"SoundDuration":179640,"Delta":237900561},{"NoteNumber":59,"Velocity":75,"Duration":179640,"SoundDuration":179640,"Delta":237900561},{"NoteNumber":32,"Velocity":75,"Duration":179640,"SoundDuration":179640,"Delta":237900561},{"NoteNumber":44,"Velocity":89,"Duration":179640,"SoundDuration":179640,"Delta":237900561},{"NoteNumber":64,"Velocity":78,"Duration":78634,"SoundDuration":78634,"Delta":238619004},{"NoteNumber":68,"Velocity":78,"Duration":78634,"SoundDuration":78634,"Delta":238619004},{"NoteNumber":56,"Velocity":75,"Duration":178747,"SoundDuration":178747,"Delta":238619004},{"NoteNumber":61,"Velocity":89,"Duration":178747,"SoundDuration":178747,"Delta":238619004},{"NoteNumber":49,"Velocity":75,"Duration":178747,"SoundDuration":178747,"Delta":238619004},{"NoteNumber":73,"Velocity":67,"Duration":79154,"SoundDuration":79154,"Delta":238697639},{"NoteNumber":76,"Velocity":69,"Duration":79544,"SoundDuration":79544,"Delta":238776794},{"NoteNumber":80,"Velocity":71,"Duration":80060,"SoundDuration":80060,"Delta":238856339},{"NoteNumber":85,"Velocity":73,"Duration":80654,"SoundDuration":80654,"Delta":238934888},{"NoteNumber":88,"Velocity":75,"Duration":81060,"SoundDuration":81060,"Delta":239015543},{"NoteNumber":92,"Velocity":77,"Duration":81538,"SoundDuration":81538,"Delta":239096603},{"NoteNumber":97,"Velocity":79,"Duration":82714,"SoundDuration":82714,"Delta":239178141},{"NoteNumber":100,"Velocity":81,"Duration":111969,"SoundDuration":111969,"Delta":239258926},{"NoteNumber":92,"Velocity":92,"Duration":245901,"SoundDuration":245901,"Delta":239370895},{"NoteNumber":104,"Velocity":96,"Duration":245901,"SoundDuration":245901,"Delta":239370895},{"NoteNumber":99,"Velocity":92,"Duration":245901,"SoundDuration":245901,"Delta":239370895},{"NoteNumber":51,"Velocity":75,"Duration":245901,"SoundDuration":245901,"Delta":239370895},{"NoteNumber":59,"Velocity":89,"Duration":245901,"SoundDuration":245901,"Delta":239370895},{"NoteNumber":44,"Velocity":75,"Duration":245901,"SoundDuration":245901,"Delta":239370895},{"NoteNumber":47,"Velocity":69,"Duration":245901,"SoundDuration":245901,"Delta":241092207},{"NoteNumber":35,"Velocity":58,"Duration":245901,"SoundDuration":245901,"Delta":241092207},{"NoteNumber":80,"Velocity":99,"Duration":1458411,"SoundDuration":1458411,"Delta":241338109},{"NoteNumber":68,"Velocity":83,"Duration":1458411,"SoundDuration":1458411,"Delta":241338109},{"NoteNumber":52,"Velocity":78,"Duration":216606,"SoundDuration":216606,"Delta":241338109},{"NoteNumber":40,"Velocity":66,"Duration":216606,"SoundDuration":216606,"Delta":241338109},{"NoteNumber":56,"Velocity":55,"Duration":195439,"SoundDuration":195439,"Delta":241944146},{"NoteNumber":64,"Velocity":78,"Duration":195439,"SoundDuration":195439,"Delta":241944146},{"NoteNumber":59,"Velocity":55,"Duration":195439,"SoundDuration":195439,"Delta":241944146},{"NoteNumber":56,"Velocity":60,"Duration":437956,"SoundDuration":437956,"Delta":242139586},{"NoteNumber":64,"Velocity":84,"Duration":437956,"SoundDuration":437956,"Delta":242139586},{"NoteNumber":59,"Velocity":60,"Duration":437956,"SoundDuration":437956,"Delta":242139586},{"NoteNumber":81,"Velocity":77,"Duration":106007,"SoundDuration":106007,"Delta":242796520},{"NoteNumber":69,"Velocity":64,"Duration":106007,"SoundDuration":106007,"Delta":242796520},{"NoteNumber":35,"Velocity":56,"Duration":212014,"SoundDuration":212014,"Delta":242796520},{"NoteNumber":47,"Velocity":67,"Duration":212014,"SoundDuration":212014,"Delta":242796520},{"NoteNumber":83,"Velocity":77,"Duration":106007,"SoundDuration":106007,"Delta":242902527},{"NoteNumber":71,"Velocity":64,"Duration":106007,"SoundDuration":106007,"Delta":242902527},{"NoteNumber":64,"Velocity":78,"Duration":1252817,"SoundDuration":1252817,"Delta":243008534},{"NoteNumber":76,"Velocity":92,"Duration":1252817,"SoundDuration":1252817,"Delta":243008534},{"NoteNumber":52,"Velocity":70,"Duration":229007,"SoundDuration":229007,"Delta":243008534},{"NoteNumber":40,"Velocity":60,"Duration":229007,"SoundDuration":229007,"Delta":243008534},{"NoteNumber":59,"Velocity":73,"Duration":197368,"SoundDuration":197368,"Delta":243626027},{"NoteNumber":56,"Velocity":61,"Duration":197368,"SoundDuration":197368,"Delta":243626027},{"NoteNumber":56,"Velocity":64,"Duration":437956,"SoundDuration":437956,"Delta":243823395},{"NoteNumber":59,"Velocity":78,"Duration":437956,"SoundDuration":437956,"Delta":243823395},{"NoteNumber":63,"Velocity":64,"Duration":245901,"SoundDuration":245901,"Delta":244480329},{"NoteNumber":75,"Velocity":77,"Duration":245901,"SoundDuration":245901,"Delta":244480329},{"NoteNumber":47,"Velocity":82,"Duration":245901,"SoundDuration":245901,"Delta":244480329},{"NoteNumber":35,"Velocity":69,"Duration":245901,"SoundDuration":245901,"Delta":244480329},{"NoteNumber":66,"Velocity":72,"Duration":949993,"SoundDuration":949993,"Delta":244726231},{"NoteNumber":78,"Velocity":88,"Duration":949993,"SoundDuration":949993,"Delta":244726231},{"NoteNumber":51,"Velocity":92,"Duration":216606,"SoundDuration":216606,"Delta":244726231},{"NoteNumber":39,"Velocity":78,"Duration":216606,"SoundDuration":216606,"Delta":244726231},{"NoteNumber":59,"Velocity":66,"Duration":191693,"SoundDuration":191693,"Delta":245330091},{"NoteNumber":57,"Velocity":66,"Duration":191693,"SoundDuration":191693,"Delta":245330091},{"NoteNumber":57,"Velocity":70,"Duration":441450,"SoundDuration":441450,"Delta":245521784},{"NoteNumber":59,"Velocity":70,"Duration":441450,"SoundDuration":441450,"Delta":245521784},{"NoteNumber":64,"Velocity":64,"Duration":147150,"SoundDuration":147150,"Delta":245676224},{"NoteNumber":76,"Velocity":77,"Duration":147150,"SoundDuration":147150,"Delta":245676224},{"NoteNumber":66,"Velocity":70,"Duration":139860,"SoundDuration":139860,"Delta":245823374},{"NoteNumber":78,"Velocity":83,"Duration":139860,"SoundDuration":139860,"Delta":245823374},{"NoteNumber":80,"Velocity":82,"Duration":145985,"SoundDuration":145985,"Delta":245963234},{"NoteNumber":68,"Velocity":69,"Duration":145985,"SoundDuration":145985,"Delta":245963234},{"NoteNumber":78,"Velocity":78,"Duration":108328,"SoundDuration":108328,"Delta":246109220},{"NoteNumber":66,"Velocity":66,"Duration":108328,"SoundDuration":108328,"Delta":246109220},{"NoteNumber":35,"Velocity":67,"Duration":208258,"SoundDuration":208258,"Delta":246288220},{"NoteNumber":47,"Velocity":79,"Duration":191082,"SoundDuration":191082,"Delta":246288220},{"NoteNumber":64,"Velocity":66,"Duration":95541,"SoundDuration":95541,"Delta":246351914},{"NoteNumber":76,"Velocity":78,"Duration":95541,"SoundDuration":95541,"Delta":246351914},{"NoteNumber":64,"Velocity":77,"Duration":1232864,"SoundDuration":1232864,"Delta":246479302},{"NoteNumber":76,"Velocity":92,"Duration":1232864,"SoundDuration":1232864,"Delta":246479302},{"NoteNumber":40,"Velocity":70,"Duration":229007,"SoundDuration":229007,"Delta":246479302},{"NoteNumber":52,"Velocity":84,"Duration":229007,"SoundDuration":229007,"Delta":246479302},{"NoteNumber":59,"Velocity":77,"Duration":188087,"SoundDuration":188087,"Delta":247086123},{"NoteNumber":56,"Velocity":64,"Duration":188087,"SoundDuration":188087,"Delta":247086123},{"NoteNumber":59,"Velocity":82,"Duration":437956,"SoundDuration":437956,"Delta":247274211},{"NoteNumber":56,"Velocity":68,"Duration":437956,"SoundDuration":437956,"Delta":247274211},{"NoteNumber":68,"Velocity":70,"Duration":164233,"SoundDuration":164233,"Delta":247931145},{"NoteNumber":76,"Velocity":70,"Duration":164233,"SoundDuration":164233,"Delta":247931145},{"NoteNumber":80,"Velocity":83,"Duration":164233,"SoundDuration":164233,"Delta":247931145},{"NoteNumber":47,"Velocity":82,"Duration":218977,"SoundDuration":218977,"Delta":247931145},{"NoteNumber":35,"Velocity":69,"Duration":218977,"SoundDuration":218977,"Delta":247931145},{"NoteNumber":80,"Velocity":92,"Duration":790165,"SoundDuration":790165,"Delta":248150123},{"NoteNumber":76,"Velocity":78,"Duration":790165,"SoundDuration":790165,"Delta":248150123},{"NoteNumber":68,"Velocity":78,"Duration":790165,"SoundDuration":790165,"Delta":248150123},{"NoteNumber":52,"Velocity":92,"Duration":191693,"SoundDuration":191693,"Delta":248150123},{"NoteNumber":40,"Velocity":78,"Duration":191693,"SoundDuration":191693,"Delta":248150123},{"NoteNumber":68,"Velocity":68,"Duration":276816,"SoundDuration":276816,"Delta":248940289},{"NoteNumber":80,"Velocity":80,"Duration":276816,"SoundDuration":276816,"Delta":248940289},{"NoteNumber":64,"Velocity":63,"Duration":276816,"SoundDuration":276816,"Delta":248940289},{"NoteNumber":52,"Velocity":53,"Duration":276816,"SoundDuration":276816,"Delta":248940289},{"NoteNumber":81,"Velocity":82,"Duration":265780,"SoundDuration":265780,"Delta":249217105},{"NoteNumber":69,"Velocity":69,"Duration":265780,"SoundDuration":265780,"Delta":249217105},{"NoteNumber":54,"Velocity":56,"Duration":265780,"SoundDuration":265780,"Delta":249217105},{"NoteNumber":66,"Velocity":66,"Duration":265780,"SoundDuration":265780,"Delta":249217105},{"NoteNumber":83,"Velocity":88,"Duration":255590,"SoundDuration":255590,"Delta":249482886},{"NoteNumber":71,"Velocity":74,"Duration":255590,"SoundDuration":255590,"Delta":249482886},{"NoteNumber":56,"Velocity":59,"Duration":255590,"SoundDuration":255590,"Delta":249482886},{"NoteNumber":68,"Velocity":70,"Duration":255590,"SoundDuration":255590,"Delta":249482886},{"NoteNumber":73,"Velocity":66,"Duration":752351,"SoundDuration":752351,"Delta":249738477},{"NoteNumber":85,"Velocity":92,"Duration":752351,"SoundDuration":752351,"Delta":249738477},{"NoteNumber":57,"Velocity":51,"Duration":752351,"SoundDuration":752351,"Delta":249738477},{"NoteNumber":69,"Velocity":73,"Duration":752351,"SoundDuration":752351,"Delta":249738477},{"NoteNumber":61,"Velocity":75,"Duration":291970,"SoundDuration":291970,"Delta":250490828},{"NoteNumber":64,"Velocity":75,"Duration":291970,"SoundDuration":291970,"Delta":250490828},{"NoteNumber":73,"Velocity":90,"Duration":291970,"SoundDuration":291970,"Delta":250490828},{"NoteNumber":45,"Velocity":60,"Duration":291970,"SoundDuration":291970,"Delta":250490828},{"NoteNumber":57,"Velocity":71,"Duration":291970,"SoundDuration":291970,"Delta":250490828},{"NoteNumber":52,"Velocity":60,"Duration":291970,"SoundDuration":291970,"Delta":250490828},{"NoteNumber":71,"Velocity":84,"Duration":282685,"SoundDuration":282685,"Delta":250782799},{"NoteNumber":59,"Velocity":71,"Duration":282685,"SoundDuration":282685,"Delta":250782799},{"NoteNumber":64,"Velocity":71,"Duration":282685,"SoundDuration":282685,"Delta":250782799},{"NoteNumber":44,"Velocity":56,"Duration":282685,"SoundDuration":282685,"Delta":250782799},{"NoteNumber":56,"Velocity":67,"Duration":282685,"SoundDuration":282685,"Delta":250782799},{"NoteNumber":52,"Velocity":56,"Duration":282685,"SoundDuration":282685,"Delta":250782799},{"NoteNumber":64,"Velocity":67,"Duration":271186,"SoundDuration":271186,"Delta":251065484},{"NoteNumber":70,"Velocity":79,"Duration":271186,"SoundDuration":271186,"Delta":251065484},{"NoteNumber":58,"Velocity":67,"Duration":271186,"SoundDuration":271186,"Delta":251065484},{"NoteNumber":52,"Velocity":52,"Duration":271186,"SoundDuration":271186,"Delta":251065484},{"NoteNumber":43,"Velocity":52,"Duration":271186,"SoundDuration":271186,"Delta":251065484},{"NoteNumber":55,"Velocity":62,"Duration":271186,"SoundDuration":271186,"Delta":251065484},{"NoteNumber":59,"Velocity":78,"Duration":848057,"SoundDuration":848057,"Delta":251336671},{"NoteNumber":64,"Velocity":78,"Duration":848057,"SoundDuration":848057,"Delta":251336671},{"NoteNumber":71,"Velocity":92,"Duration":848057,"SoundDuration":848057,"Delta":251336671},{"NoteNumber":52,"Velocity":71,"Duration":848057,"SoundDuration":848057,"Delta":251336671},{"NoteNumber":44,"Velocity":71,"Duration":848057,"SoundDuration":848057,"Delta":251336671},{"NoteNumber":56,"Velocity":84,"Duration":848057,"SoundDuration":848057,"Delta":251336671},{"NoteNumber":64,"Velocity":77,"Duration":636042,"SoundDuration":636042,"Delta":252184728},{"NoteNumber":56,"Velocity":77,"Duration":848324,"SoundDuration":848324,"Delta":252184728},{"NoteNumber":52,"Velocity":77,"Duration":636042,"SoundDuration":636042,"Delta":252184728},{"NoteNumber":44,"Velocity":71,"Duration":848324,"SoundDuration":848324,"Delta":252184728},{"NoteNumber":37,"Velocity":71,"Duration":848324,"SoundDuration":848324,"Delta":252184728},{"NoteNumber":49,"Velocity":84,"Duration":848324,"SoundDuration":848324,"Delta":252184728},{"NoteNumber":63,"Velocity":77,"Duration":212282,"SoundDuration":212282,"Delta":252820770},{"NoteNumber":51,"Velocity":77,"Duration":212282,"SoundDuration":212282,"Delta":252820770},{"NoteNumber":63,"Velocity":88,"Duration":999040,"SoundDuration":999040,"Delta":253033052},{"NoteNumber":51,"Velocity":72,"Duration":999040,"SoundDuration":999040,"Delta":253033052},{"NoteNumber":57,"Velocity":72,"Duration":999040,"SoundDuration":999040,"Delta":253033052},{"NoteNumber":42,"Velocity":71,"Duration":1310499,"SoundDuration":1310499,"Delta":253033052},{"NoteNumber":35,"Velocity":71,"Duration":1310499,"SoundDuration":1310499,"Delta":253033052},{"NoteNumber":45,"Velocity":71,"Duration":1310499,"SoundDuration":1310499,"Delta":253033052},{"NoteNumber":47,"Velocity":84,"Duration":1310499,"SoundDuration":1310499,"Delta":253033052},{"NoteNumber":64,"Velocity":77,"Duration":160321,"SoundDuration":160321,"Delta":254017200},{"NoteNumber":52,"Velocity":64,"Duration":160321,"SoundDuration":160321,"Delta":254017200},{"NoteNumber":54,"Velocity":70,"Duration":152671,"SoundDuration":152671,"Delta":254177521},{"NoteNumber":66,"Velocity":83,"Duration":152671,"SoundDuration":152671,"Delta":254177521},{"NoteNumber":68,"Velocity":82,"Duration":152671,"SoundDuration":152671,"Delta":254330193},{"NoteNumber":56,"Velocity":69,"Duration":152671,"SoundDuration":152671,"Delta":254330193},{"NoteNumber":66,"Velocity":78,"Duration":114503,"SoundDuration":114503,"Delta":254482865},{"NoteNumber":54,"Velocity":66,"Duration":114503,"SoundDuration":114503,"Delta":254482865},{"NoteNumber":28,"Velocity":61,"Duration":127388,"SoundDuration":127388,"Delta":254695998},{"NoteNumber":40,"Velocity":72,"Duration":127388,"SoundDuration":127388,"Delta":254695998},{"NoteNumber":52,"Velocity":66,"Duration":127388,"SoundDuration":127388,"Delta":254737399},{"NoteNumber":64,"Velocity":78,"Duration":127388,"SoundDuration":127388,"Delta":254737399},{"NoteNumber":64,"Velocity":71,"Duration":144424,"SoundDuration":144424,"Delta":254878146},{"NoteNumber":52,"Velocity":71,"Duration":144424,"SoundDuration":144424,"Delta":254878146},{"NoteNumber":40,"Velocity":77,"Duration":144424,"SoundDuration":144424,"Delta":254878146},{"NoteNumber":28,"Velocity":77,"Duration":144424,"SoundDuration":144424,"Delta":254878146},{"NoteNumber":56,"Velocity":72,"Duration":143650,"SoundDuration":143650,"Delta":255022570},{"NoteNumber":44,"Velocity":68,"Duration":143650,"SoundDuration":143650,"Delta":255022570},{"NoteNumber":59,"Velocity":73,"Duration":142857,"SoundDuration":142857,"Delta":255166220},{"NoteNumber":47,"Velocity":70,"Duration":142857,"SoundDuration":142857,"Delta":255166220},{"NoteNumber":64,"Velocity":74,"Duration":141361,"SoundDuration":141361,"Delta":255309077},{"NoteNumber":52,"Velocity":71,"Duration":141361,"SoundDuration":141361,"Delta":255309077},{"NoteNumber":68,"Velocity":75,"Duration":140620,"SoundDuration":140620,"Delta":255450439},{"NoteNumber":56,"Velocity":73,"Duration":140620,"SoundDuration":140620,"Delta":255450439},{"NoteNumber":71,"Velocity":75,"Duration":139224,"SoundDuration":139224,"Delta":255591059},{"NoteNumber":59,"Velocity":75,"Duration":139224,"SoundDuration":139224,"Delta":255591059},{"NoteNumber":76,"Velocity":77,"Duration":138753,"SoundDuration":138753,"Delta":255730284},{"NoteNumber":64,"Velocity":78,"Duration":138753,"SoundDuration":138753,"Delta":255730284},{"NoteNumber":80,"Velocity":78,"Duration":139915,"SoundDuration":139915,"Delta":255869037},{"NoteNumber":59,"Velocity":79,"Duration":139915,"SoundDuration":139915,"Delta":255869037},{"NoteNumber":83,"Velocity":79,"Duration":141342,"SoundDuration":141342,"Delta":256008953},{"NoteNumber":56,"Velocity":81,"Duration":141342,"SoundDuration":141342,"Delta":256008953},{"NoteNumber":88,"Velocity":80,"Duration":142611,"SoundDuration":142611,"Delta":256150296},{"NoteNumber":52,"Velocity":82,"Duration":142611,"SoundDuration":142611,"Delta":256150296},{"NoteNumber":92,"Velocity":81,"Duration":143843,"SoundDuration":143843,"Delta":256292907},{"NoteNumber":47,"Velocity":84,"Duration":143843,"SoundDuration":143843,"Delta":256292907},{"NoteNumber":95,"Velocity":82,"Duration":146040,"SoundDuration":146040,"Delta":256436751},{"NoteNumber":44,"Velocity":86,"Duration":146040,"SoundDuration":146040,"Delta":256436751},{"NoteNumber":92,"Velocity":93,"Duration":221402,"SoundDuration":221402,"Delta":256582791},{"NoteNumber":88,"Velocity":93,"Duration":221402,"SoundDuration":221402,"Delta":256582791},{"NoteNumber":100,"Velocity":93,"Duration":221402,"SoundDuration":221402,"Delta":256582791},{"NoteNumber":40,"Velocity":84,"Duration":221402,"SoundDuration":221402,"Delta":256582791},{"NoteNumber":52,"Velocity":84,"Duration":221402,"SoundDuration":221402,"Delta":256582791},{"NoteNumber":47,"Velocity":84,"Duration":221402,"SoundDuration":221402,"Delta":256582791},{"NoteNumber":32,"Velocity":58,"Duration":245901,"SoundDuration":245901,"Delta":258132607},{"NoteNumber":44,"Velocity":69,"Duration":245901,"SoundDuration":245901,"Delta":258132607},{"NoteNumber":80,"Velocity":86,"Duration":1453283,"SoundDuration":1453283,"Delta":258378508},{"NoteNumber":88,"Velocity":103,"Duration":1453283,"SoundDuration":1453283,"Delta":258378508},{"NoteNumber":76,"Velocity":86,"Duration":1453283,"SoundDuration":1453283,"Delta":258378508},{"NoteNumber":85,"Velocity":86,"Duration":1453283,"SoundDuration":1453283,"Delta":258378508},{"NoteNumber":49,"Velocity":78,"Duration":216606,"SoundDuration":216606,"Delta":258378508},{"NoteNumber":37,"Velocity":66,"Duration":216606,"SoundDuration":216606,"Delta":258378508},{"NoteNumber":61,"Velocity":55,"Duration":141065,"SoundDuration":141065,"Delta":258986770},{"NoteNumber":64,"Velocity":55,"Duration":141065,"SoundDuration":141065,"Delta":258986770},{"NoteNumber":68,"Velocity":78,"Duration":141065,"SoundDuration":141065,"Delta":258986770},{"NoteNumber":56,"Velocity":55,"Duration":141065,"SoundDuration":141065,"Delta":258986770},{"NoteNumber":56,"Velocity":60,"Duration":437955,"SoundDuration":437955,"Delta":259174858},{"NoteNumber":64,"Velocity":60,"Duration":437955,"SoundDuration":437955,"Delta":259174858},{"NoteNumber":68,"Velocity":84,"Duration":437955,"SoundDuration":437955,"Delta":259174858},{"NoteNumber":61,"Velocity":60,"Duration":437955,"SoundDuration":437955,"Delta":259174858},{"NoteNumber":90,"Velocity":80,"Duration":106007,"SoundDuration":106007,"Delta":259831792},{"NoteNumber":78,"Velocity":67,"Duration":106007,"SoundDuration":106007,"Delta":259831792},{"NoteNumber":32,"Velocity":56,"Duration":212014,"SoundDuration":212014,"Delta":259831792},{"NoteNumber":44,"Velocity":67,"Duration":212014,"SoundDuration":212014,"Delta":259831792},{"NoteNumber":80,"Velocity":67,"Duration":106007,"SoundDuration":106007,"Delta":259937799},{"NoteNumber":92,"Velocity":80,"Duration":106007,"SoundDuration":106007,"Delta":259937799},{"NoteNumber":85,"Velocity":96,"Duration":1469866,"SoundDuration":1469866,"Delta":260043806},{"NoteNumber":73,"Velocity":81,"Duration":1469866,"SoundDuration":1469866,"Delta":260043806},{"NoteNumber":49,"Velocity":70,"Duration":229007,"SoundDuration":229007,"Delta":260043806},{"NoteNumber":37,"Velocity":60,"Duration":229007,"SoundDuration":229007,"Delta":260043806},{"NoteNumber":64,"Velocity":61,"Duration":146579,"SoundDuration":146579,"Delta":260661298},{"NoteNumber":56,"Velocity":61,"Duration":146579,"SoundDuration":146579,"Delta":260661298},{"NoteNumber":61,"Velocity":61,"Duration":146579,"SoundDuration":146579,"Delta":260661298},{"NoteNumber":68,"Velocity":73,"Duration":146579,"SoundDuration":146579,"Delta":260661298},{"NoteNumber":68,"Velocity":78,"Duration":437955,"SoundDuration":437955,"Delta":260856738},{"NoteNumber":56,"Velocity":64,"Duration":437955,"SoundDuration":437955,"Delta":260856738},{"NoteNumber":61,"Velocity":64,"Duration":437955,"SoundDuration":437955,"Delta":260856738},{"NoteNumber":64,"Velocity":64,"Duration":437955,"SoundDuration":437955,"Delta":260856738},{"NoteNumber":84,"Velocity":80,"Duration":245901,"SoundDuration":245901,"Delta":261513672},{"NoteNumber":72,"Velocity":67,"Duration":245901,"SoundDuration":245901,"Delta":261513672},{"NoteNumber":32,"Velocity":69,"Duration":245901,"SoundDuration":245901,"Delta":261513672},{"NoteNumber":44,"Velocity":82,"Duration":245901,"SoundDuration":245901,"Delta":261513672},{"NoteNumber":75,"Velocity":75,"Duration":951848,"SoundDuration":951848,"Delta":261759574},{"NoteNumber":87,"Velocity":92,"Duration":951848,"SoundDuration":951848,"Delta":261759574},{"NoteNumber":48,"Velocity":92,"Duration":216606,"SoundDuration":216606,"Delta":261759574},{"NoteNumber":36,"Velocity":78,"Duration":216606,"SoundDuration":216606,"Delta":261759574},{"NoteNumber":68,"Velocity":66,"Duration":145161,"SoundDuration":145161,"Delta":262363434},{"NoteNumber":66,"Velocity":66,"Duration":145161,"SoundDuration":145161,"Delta":262363434},{"NoteNumber":63,"Velocity":66,"Duration":145161,"SoundDuration":145161,"Delta":262363434},{"NoteNumber":56,"Velocity":66,"Duration":145161,"SoundDuration":145161,"Delta":262363434},{"NoteNumber":56,"Velocity":70,"Duration":441450,"SoundDuration":441450,"Delta":262556982},{"NoteNumber":66,"Velocity":70,"Duration":441450,"SoundDuration":441450,"Delta":262556982},{"NoteNumber":63,"Velocity":70,"Duration":441450,"SoundDuration":441450,"Delta":262556982},{"NoteNumber":68,"Velocity":70,"Duration":441450,"SoundDuration":441450,"Delta":262556982},{"NoteNumber":73,"Velocity":67,"Duration":147150,"SoundDuration":147150,"Delta":262711422},{"NoteNumber":85,"Velocity":80,"Duration":147150,"SoundDuration":147150,"Delta":262711422},{"NoteNumber":75,"Velocity":73,"Duration":139860,"SoundDuration":139860,"Delta":262858572},{"NoteNumber":87,"Velocity":86,"Duration":139860,"SoundDuration":139860,"Delta":262858572},{"NoteNumber":88,"Velocity":85,"Duration":145985,"SoundDuration":145985,"Delta":262998433},{"NoteNumber":76,"Velocity":72,"Duration":145985,"SoundDuration":145985,"Delta":262998433},{"NoteNumber":87,"Velocity":81,"Duration":108328,"SoundDuration":108328,"Delta":263144418},{"NoteNumber":75,"Velocity":69,"Duration":108328,"SoundDuration":108328,"Delta":263144418},{"NoteNumber":32,"Velocity":67,"Duration":191082,"SoundDuration":191082,"Delta":263323418},{"NoteNumber":44,"Velocity":79,"Duration":191082,"SoundDuration":191082,"Delta":263323418},{"NoteNumber":73,"Velocity":69,"Duration":95541,"SoundDuration":95541,"Delta":263387112},{"NoteNumber":85,"Velocity":81,"Duration":95541,"SoundDuration":95541,"Delta":263387112},{"NoteNumber":73,"Velocity":80,"Duration":1263014,"SoundDuration":1263014,"Delta":263514500},{"NoteNumber":85,"Velocity":96,"Duration":1263014,"SoundDuration":1263014,"Delta":263514500},{"NoteNumber":49,"Velocity":84,"Duration":229007,"SoundDuration":229007,"Delta":263514500},{"NoteNumber":37,"Velocity":70,"Duration":229007,"SoundDuration":229007,"Delta":263514500},{"NoteNumber":56,"Velocity":64,"Duration":157342,"SoundDuration":157342,"Delta":264129769},{"NoteNumber":64,"Velocity":64,"Duration":157342,"SoundDuration":157342,"Delta":264129769},{"NoteNumber":61,"Velocity":64,"Duration":157342,"SoundDuration":157342,"Delta":264129769},{"NoteNumber":68,"Velocity":77,"Duration":157342,"SoundDuration":157342,"Delta":264129769},{"NoteNumber":68,"Velocity":82,"Duration":437955,"SoundDuration":437955,"Delta":264339559},{"NoteNumber":64,"Velocity":68,"Duration":437955,"SoundDuration":437955,"Delta":264339559},{"NoteNumber":61,"Velocity":68,"Duration":437955,"SoundDuration":437955,"Delta":264339559},{"NoteNumber":56,"Velocity":68,"Duration":437955,"SoundDuration":437955,"Delta":264339559},{"NoteNumber":29,"Velocity":69,"Duration":122950,"SoundDuration":122950,"Delta":265119444},{"NoteNumber":53,"Velocity":82,"Duration":122950,"SoundDuration":122950,"Delta":265119444},{"NoteNumber":41,"Velocity":69,"Duration":122950,"SoundDuration":122950,"Delta":265119444},{"NoteNumber":42,"Velocity":78,"Duration":1216279,"SoundDuration":1216279,"Delta":265242395},{"NoteNumber":54,"Velocity":92,"Duration":1216279,"SoundDuration":1216279,"Delta":265242395},{"NoteNumber":30,"Velocity":78,"Duration":1216279,"SoundDuration":1216279,"Delta":265242395},{"NoteNumber":85,"Velocity":80,"Duration":87463,"SoundDuration":87463,"Delta":266721065},{"NoteNumber":73,"Velocity":68,"Duration":87463,"SoundDuration":87463,"Delta":266721065},{"NoteNumber":81,"Velocity":68,"Duration":87463,"SoundDuration":87463,"Delta":266721065},{"NoteNumber":57,"Velocity":53,"Duration":87463,"SoundDuration":87463,"Delta":266721065},{"NoteNumber":69,"Velocity":63,"Duration":87463,"SoundDuration":87463,"Delta":266721065},{"NoteNumber":61,"Velocity":53,"Duration":87463,"SoundDuration":87463,"Delta":266721065},{"NoteNumber":81,"Velocity":74,"Duration":276923,"SoundDuration":276923,"Delta":266808529},{"NoteNumber":85,"Velocity":89,"Duration":276923,"SoundDuration":276923,"Delta":266808529},{"NoteNumber":73,"Velocity":74,"Duration":276923,"SoundDuration":276923,"Delta":266808529},{"NoteNumber":57,"Velocity":59,"Duration":276923,"SoundDuration":276923,"Delta":266808529},{"NoteNumber":69,"Velocity":70,"Duration":276923,"SoundDuration":276923,"Delta":266808529},{"NoteNumber":61,"Velocity":59,"Duration":276923,"SoundDuration":276923,"Delta":266808529},{"NoteNumber":71,"Velocity":67,"Duration":92307,"SoundDuration":92307,"Delta":267085452},{"NoteNumber":80,"Velocity":67,"Duration":92307,"SoundDuration":92307,"Delta":267085452},{"NoteNumber":83,"Velocity":79,"Duration":92307,"SoundDuration":92307,"Delta":267085452},{"NoteNumber":56,"Velocity":52,"Duration":92307,"SoundDuration":92307,"Delta":267085452},{"NoteNumber":68,"Velocity":62,"Duration":92307,"SoundDuration":92307,"Delta":267085452},{"NoteNumber":59,"Velocity":52,"Duration":92307,"SoundDuration":92307,"Delta":267085452},{"NoteNumber":80,"Velocity":73,"Duration":295316,"SoundDuration":295316,"Delta":267177760},{"NoteNumber":83,"Velocity":86,"Duration":295316,"SoundDuration":295316,"Delta":267177760},{"NoteNumber":71,"Velocity":73,"Duration":295316,"SoundDuration":295316,"Delta":267177760},{"NoteNumber":56,"Velocity":58,"Duration":295316,"SoundDuration":295316,"Delta":267177760},{"NoteNumber":68,"Velocity":69,"Duration":295316,"SoundDuration":295316,"Delta":267177760},{"NoteNumber":59,"Velocity":58,"Duration":295316,"SoundDuration":295316,"Delta":267177760},{"NoteNumber":81,"Velocity":79,"Duration":110701,"SoundDuration":110701,"Delta":267473077},{"NoteNumber":69,"Velocity":67,"Duration":110701,"SoundDuration":110701,"Delta":267473077},{"NoteNumber":78,"Velocity":67,"Duration":110701,"SoundDuration":110701,"Delta":267473077},{"NoteNumber":54,"Velocity":52,"Duration":110701,"SoundDuration":110701,"Delta":267473077},{"NoteNumber":66,"Velocity":62,"Duration":110701,"SoundDuration":110701,"Delta":267473077},{"NoteNumber":57,"Velocity":52,"Duration":110701,"SoundDuration":110701,"Delta":267473077},{"NoteNumber":81,"Velocity":86,"Duration":442804,"SoundDuration":442804,"Delta":267583778},{"NoteNumber":69,"Velocity":73,"Duration":442804,"SoundDuration":442804,"Delta":267583778},{"NoteNumber":78,"Velocity":73,"Duration":442804,"SoundDuration":442804,"Delta":267583778},{"NoteNumber":54,"Velocity":58,"Duration":442804,"SoundDuration":442804,"Delta":267583778},{"NoteNumber":66,"Velocity":69,"Duration":442804,"SoundDuration":442804,"Delta":267583778},{"NoteNumber":57,"Velocity":58,"Duration":442804,"SoundDuration":442804,"Delta":267583778},{"NoteNumber":61,"Velocity":82,"Duration":122950,"SoundDuration":122950,"Delta":268358686},{"NoteNumber":49,"Velocity":69,"Duration":122950,"SoundDuration":122950,"Delta":268358686},{"NoteNumber":37,"Velocity":69,"Duration":122950,"SoundDuration":122950,"Delta":268358686},{"NoteNumber":62,"Velocity":92,"Duration":1216279,"SoundDuration":1216279,"Delta":268481636},{"NoteNumber":50,"Velocity":78,"Duration":1216279,"SoundDuration":1216279,"Delta":268481636},{"NoteNumber":38,"Velocity":78,"Duration":1216279,"SoundDuration":1216279,"Delta":268481636},{"NoteNumber":78,"Velocity":68,"Duration":65597,"SoundDuration":65597,"Delta":269960307},{"NoteNumber":81,"Velocity":68,"Duration":65597,"SoundDuration":65597,"Delta":269960307},{"NoteNumber":90,"Velocity":80,"Duration":65597,"SoundDuration":65597,"Delta":269960307},{"NoteNumber":69,"Velocity":63,"Duration":65597,"SoundDuration":65597,"Delta":269960307},{"NoteNumber":66,"Velocity":53,"Duration":65597,"SoundDuration":65597,"Delta":269960307},{"NoteNumber":90,"Velocity":89,"Duration":276923,"SoundDuration":276923,"Delta":270047770},{"NoteNumber":81,"Velocity":74,"Duration":276923,"SoundDuration":276923,"Delta":270047770},{"NoteNumber":78,"Velocity":74,"Duration":276923,"SoundDuration":276923,"Delta":270047770},{"NoteNumber":66,"Velocity":59,"Duration":276923,"SoundDuration":276923,"Delta":270047770},{"NoteNumber":69,"Velocity":70,"Duration":276923,"SoundDuration":276923,"Delta":270047770},{"NoteNumber":76,"Velocity":67,"Duration":69230,"SoundDuration":69230,"Delta":270324694},{"NoteNumber":88,"Velocity":79,"Duration":69230,"SoundDuration":69230,"Delta":270324694},{"NoteNumber":80,"Velocity":67,"Duration":69230,"SoundDuration":69230,"Delta":270324694},{"NoteNumber":68,"Velocity":62,"Duration":69230,"SoundDuration":69230,"Delta":270324694},{"NoteNumber":64,"Velocity":52,"Duration":69230,"SoundDuration":69230,"Delta":270324694},{"NoteNumber":76,"Velocity":73,"Duration":295316,"SoundDuration":295316,"Delta":270417001},{"NoteNumber":88,"Velocity":86,"Duration":295316,"SoundDuration":295316,"Delta":270417001},{"NoteNumber":80,"Velocity":73,"Duration":295316,"SoundDuration":295316,"Delta":270417001},{"NoteNumber":68,"Velocity":69,"Duration":295316,"SoundDuration":295316,"Delta":270417001},{"NoteNumber":64,"Velocity":58,"Duration":295316,"SoundDuration":295316,"Delta":270417001},{"NoteNumber":78,"Velocity":67,"Duration":83025,"SoundDuration":83025,"Delta":270712318},{"NoteNumber":74,"Velocity":67,"Duration":83025,"SoundDuration":83025,"Delta":270712318},{"NoteNumber":86,"Velocity":79,"Duration":83025,"SoundDuration":83025,"Delta":270712318},{"NoteNumber":62,"Velocity":52,"Duration":83025,"SoundDuration":83025,"Delta":270712318},{"NoteNumber":66,"Velocity":62,"Duration":83025,"SoundDuration":83025,"Delta":270712318},{"NoteNumber":74,"Velocity":73,"Duration":442804,"SoundDuration":442804,"Delta":270823019},{"NoteNumber":78,"Velocity":73,"Duration":442804,"SoundDuration":442804,"Delta":270823019},{"NoteNumber":86,"Velocity":86,"Duration":442804,"SoundDuration":442804,"Delta":270823019},{"NoteNumber":66,"Velocity":69,"Duration":442804,"SoundDuration":442804,"Delta":270823019},{"NoteNumber":62,"Velocity":58,"Duration":442804,"SoundDuration":442804,"Delta":270823019},{"NoteNumber":58,"Velocity":82,"Duration":122950,"SoundDuration":122950,"Delta":271597927},{"NoteNumber":34,"Velocity":69,"Duration":122950,"SoundDuration":122950,"Delta":271597927},{"NoteNumber":46,"Velocity":69,"Duration":122950,"SoundDuration":122950,"Delta":271597927},{"NoteNumber":59,"Velocity":92,"Duration":823286,"SoundDuration":823286,"Delta":271720878},{"NoteNumber":47,"Velocity":78,"Duration":823286,"SoundDuration":823286,"Delta":271720878},{"NoteNumber":35,"Velocity":78,"Duration":823286,"SoundDuration":823286,"Delta":271720878},{"NoteNumber":90,"Velocity":68,"Duration":66765,"SoundDuration":66765,"Delta":272455144},{"NoteNumber":93,"Velocity":80,"Duration":66765,"SoundDuration":66765,"Delta":272455144},{"NoteNumber":85,"Velocity":68,"Duration":66765,"SoundDuration":66765,"Delta":272455144},{"NoteNumber":57,"Velocity":53,"Duration":66765,"SoundDuration":66765,"Delta":272455144},{"NoteNumber":69,"Velocity":63,"Duration":66765,"SoundDuration":66765,"Delta":272455144},{"NoteNumber":66,"Velocity":53,"Duration":66765,"SoundDuration":66765,"Delta":272455144},{"NoteNumber":93,"Velocity":89,"Duration":262390,"SoundDuration":262390,"Delta":272544165},{"NoteNumber":85,"Velocity":74,"Duration":262390,"SoundDuration":262390,"Delta":272544165},{"NoteNumber":90,"Velocity":74,"Duration":262390,"SoundDuration":262390,"Delta":272544165},{"NoteNumber":66,"Velocity":59,"Duration":262390,"SoundDuration":262390,"Delta":272544165},{"NoteNumber":69,"Velocity":70,"Duration":262390,"SoundDuration":262390,"Delta":272544165},{"NoteNumber":57,"Velocity":59,"Duration":262390,"SoundDuration":262390,"Delta":272544165},{"NoteNumber":92,"Velocity":79,"Duration":65597,"SoundDuration":65597,"Delta":272806555},{"NoteNumber":80,"Velocity":67,"Duration":65597,"SoundDuration":65597,"Delta":272806555},{"NoteNumber":88,"Velocity":67,"Duration":65597,"SoundDuration":65597,"Delta":272806555},{"NoteNumber":68,"Velocity":62,"Duration":65597,"SoundDuration":65597,"Delta":272806555},{"NoteNumber":56,"Velocity":52,"Duration":65597,"SoundDuration":65597,"Delta":272806555},{"NoteNumber":64,"Velocity":52,"Duration":65597,"SoundDuration":65597,"Delta":272806555},{"NoteNumber":88,"Velocity":73,"Duration":262390,"SoundDuration":262390,"Delta":272894019},{"NoteNumber":92,"Velocity":86,"Duration":262390,"SoundDuration":262390,"Delta":272894019},{"NoteNumber":80,"Velocity":73,"Duration":262390,"SoundDuration":262390,"Delta":272894019},{"NoteNumber":68,"Velocity":69,"Duration":262390,"SoundDuration":262390,"Delta":272894019},{"NoteNumber":56,"Velocity":58,"Duration":262390,"SoundDuration":262390,"Delta":272894019},{"NoteNumber":64,"Velocity":58,"Duration":262390,"SoundDuration":262390,"Delta":272894019},{"NoteNumber":78,"Velocity":67,"Duration":225563,"SoundDuration":225563,"Delta":273156409},{"NoteNumber":87,"Velocity":67,"Duration":225563,"SoundDuration":225563,"Delta":273156409},{"NoteNumber":90,"Velocity":79,"Duration":225563,"SoundDuration":225563,"Delta":273156409},{"NoteNumber":66,"Velocity":62,"Duration":225563,"SoundDuration":225563,"Delta":273156409},{"NoteNumber":54,"Velocity":52,"Duration":225563,"SoundDuration":225563,"Delta":273156409},{"NoteNumber":63,"Velocity":52,"Duration":225563,"SoundDuration":225563,"Delta":273156409},{"NoteNumber":60,"Velocity":92,"Duration":808199,"SoundDuration":808199,"Delta":273381973},{"NoteNumber":36,"Velocity":78,"Duration":808199,"SoundDuration":808199,"Delta":273381973},{"NoteNumber":48,"Velocity":78,"Duration":808199,"SoundDuration":808199,"Delta":273381973},{"NoteNumber":90,"Velocity":68,"Duration":66765,"SoundDuration":66765,"Delta":274101151},{"NoteNumber":93,"Velocity":80,"Duration":66765,"SoundDuration":66765,"Delta":274101151},{"NoteNumber":85,"Velocity":68,"Duration":66765,"SoundDuration":66765,"Delta":274101151},{"NoteNumber":66,"Velocity":53,"Duration":66765,"SoundDuration":66765,"Delta":274101151},{"NoteNumber":57,"Velocity":53,"Duration":66765,"SoundDuration":66765,"Delta":274101151},{"NoteNumber":69,"Velocity":63,"Duration":66765,"SoundDuration":66765,"Delta":274101151},{"NoteNumber":93,"Velocity":89,"Duration":262390,"SoundDuration":262390,"Delta":274190172},{"NoteNumber":85,"Velocity":74,"Duration":262390,"SoundDuration":262390,"Delta":274190172},{"NoteNumber":90,"Velocity":74,"Duration":262390,"SoundDuration":262390,"Delta":274190172},{"NoteNumber":66,"Velocity":59,"Duration":262390,"SoundDuration":262390,"Delta":274190172},{"NoteNumber":57,"Velocity":59,"Duration":262390,"SoundDuration":262390,"Delta":274190172},{"NoteNumber":69,"Velocity":70,"Duration":262390,"SoundDuration":262390,"Delta":274190172},{"NoteNumber":88,"Velocity":67,"Duration":65597,"SoundDuration":65597,"Delta":274452562},{"NoteNumber":92,"Velocity":79,"Duration":65597,"SoundDuration":65597,"Delta":274452562},{"NoteNumber":80,"Velocity":67,"Duration":65597,"SoundDuration":65597,"Delta":274452562},{"NoteNumber":64,"Velocity":52,"Duration":65597,"SoundDuration":65597,"Delta":274452562},{"NoteNumber":56,"Velocity":52,"Duration":65597,"SoundDuration":65597,"Delta":274452562},{"NoteNumber":68,"Velocity":62,"Duration":65597,"SoundDuration":65597,"Delta":274452562},{"NoteNumber":80,"Velocity":73,"Duration":262390,"SoundDuration":262390,"Delta":274540026},{"NoteNumber":88,"Velocity":73,"Duration":262390,"SoundDuration":262390,"Delta":274540026},{"NoteNumber":92,"Velocity":86,"Duration":262390,"SoundDuration":262390,"Delta":274540026},{"NoteNumber":64,"Velocity":58,"Duration":262390,"SoundDuration":262390,"Delta":274540026},{"NoteNumber":56,"Velocity":58,"Duration":262390,"SoundDuration":262390,"Delta":274540026},{"NoteNumber":68,"Velocity":69,"Duration":262390,"SoundDuration":262390,"Delta":274540026},{"NoteNumber":90,"Velocity":79,"Duration":211267,"SoundDuration":211267,"Delta":274802416},{"NoteNumber":78,"Velocity":67,"Duration":211267,"SoundDuration":211267,"Delta":274802416},{"NoteNumber":87,"Velocity":67,"Duration":211267,"SoundDuration":211267,"Delta":274802416},{"NoteNumber":63,"Velocity":52,"Duration":211267,"SoundDuration":211267,"Delta":274802416},{"NoteNumber":54,"Velocity":52,"Duration":211267,"SoundDuration":211267,"Delta":274802416},{"NoteNumber":66,"Velocity":62,"Duration":211267,"SoundDuration":211267,"Delta":274802416},{"NoteNumber":55,"Velocity":101,"Duration":839511,"SoundDuration":839511,"Delta":275013684},{"NoteNumber":43,"Velocity":78,"Duration":839511,"SoundDuration":839511,"Delta":275013684},{"NoteNumber":31,"Velocity":78,"Duration":839511,"SoundDuration":839511,"Delta":275013684},{"NoteNumber":88,"Velocity":57,"Duration":92213,"SoundDuration":92213,"Delta":275732862},{"NoteNumber":100,"Velocity":80,"Duration":92213,"SoundDuration":92213,"Delta":275732862},{"NoteNumber":91,"Velocity":57,"Duration":92213,"SoundDuration":92213,"Delta":275732862},{"NoteNumber":82,"Velocity":63,"Duration":92213,"SoundDuration":92213,"Delta":275732862},{"NoteNumber":79,"Velocity":53,"Duration":92213,"SoundDuration":92213,"Delta":275732862},{"NoteNumber":70,"Velocity":45,"Duration":92213,"SoundDuration":92213,"Delta":275732862},{"NoteNumber":100,"Velocity":89,"Duration":289116,"SoundDuration":289116,"Delta":275853196},{"NoteNumber":88,"Velocity":74,"Duration":289116,"SoundDuration":289116,"Delta":275853196},{"NoteNumber":91,"Velocity":74,"Duration":289116,"SoundDuration":289116,"Delta":275853196},{"NoteNumber":82,"Velocity":70,"Duration":289116,"SoundDuration":289116,"Delta":275853196},{"NoteNumber":79,"Velocity":59,"Duration":289116,"SoundDuration":289116,"Delta":275853196},{"NoteNumber":70,"Velocity":49,"Duration":289116,"SoundDuration":289116,"Delta":275853196},{"NoteNumber":90,"Velocity":56,"Duration":71657,"SoundDuration":71657,"Delta":276142312},{"NoteNumber":99,"Velocity":79,"Duration":71657,"SoundDuration":71657,"Delta":276142312},{"NoteNumber":87,"Velocity":56,"Duration":71657,"SoundDuration":71657,"Delta":276142312},{"NoteNumber":81,"Velocity":62,"Duration":71657,"SoundDuration":71657,"Delta":276142312},{"NoteNumber":78,"Velocity":52,"Duration":71657,"SoundDuration":71657,"Delta":276142312},{"NoteNumber":69,"Velocity":44,"Duration":71657,"SoundDuration":71657,"Delta":276142312},{"NoteNumber":87,"Velocity":74,"Duration":283292,"SoundDuration":283292,"Delta":276237704},{"NoteNumber":90,"Velocity":74,"Duration":283292,"SoundDuration":283292,"Delta":276237704},{"NoteNumber":99,"Velocity":89,"Duration":283292,"SoundDuration":283292,"Delta":276237704},{"NoteNumber":81,"Velocity":69,"Duration":283292,"SoundDuration":283292,"Delta":276237704},{"NoteNumber":78,"Velocity":58,"Duration":283292,"SoundDuration":283292,"Delta":276237704},{"NoteNumber":69,"Velocity":49,"Duration":283292,"SoundDuration":283292,"Delta":276237704},{"NoteNumber":97,"Velocity":83,"Duration":69963,"SoundDuration":69963,"Delta":276520996},{"NoteNumber":88,"Velocity":70,"Duration":69963,"SoundDuration":69963,"Delta":276520996},{"NoteNumber":85,"Velocity":70,"Duration":69963,"SoundDuration":69963,"Delta":276520996},{"NoteNumber":79,"Velocity":62,"Duration":69963,"SoundDuration":69963,"Delta":276520996},{"NoteNumber":76,"Velocity":52,"Duration":69963,"SoundDuration":69963,"Delta":276520996},{"NoteNumber":67,"Velocity":44,"Duration":69963,"SoundDuration":69963,"Delta":276520996},{"NoteNumber":97,"Velocity":90,"Duration":273483,"SoundDuration":273483,"Delta":276614252},{"NoteNumber":85,"Velocity":75,"Duration":273483,"SoundDuration":273483,"Delta":276614252},{"NoteNumber":88,"Velocity":75,"Duration":273483,"SoundDuration":273483,"Delta":276614252},{"NoteNumber":76,"Velocity":69,"Duration":273483,"SoundDuration":273483,"Delta":276614252},{"NoteNumber":79,"Velocity":69,"Duration":273483,"SoundDuration":273483,"Delta":276614252},{"NoteNumber":67,"Velocity":58,"Duration":273483,"SoundDuration":273483,"Delta":276614252},{"NoteNumber":94,"Velocity":79,"Duration":67609,"SoundDuration":67609,"Delta":276887735},{"NoteNumber":82,"Velocity":67,"Duration":67609,"SoundDuration":67609,"Delta":276887735},{"NoteNumber":85,"Velocity":67,"Duration":67609,"SoundDuration":67609,"Delta":276887735},{"NoteNumber":73,"Velocity":62,"Duration":67609,"SoundDuration":67609,"Delta":276887735},{"NoteNumber":76,"Velocity":62,"Duration":67609,"SoundDuration":67609,"Delta":276887735},{"NoteNumber":64,"Velocity":52,"Duration":67609,"SoundDuration":67609,"Delta":276887735},{"NoteNumber":82,"Velocity":74,"Duration":267389,"SoundDuration":267389,"Delta":276977799},{"NoteNumber":85,"Velocity":74,"Duration":267389,"SoundDuration":267389,"Delta":276977799},{"NoteNumber":94,"Velocity":88,"Duration":267389,"SoundDuration":267389,"Delta":276977799},{"NoteNumber":73,"Velocity":69,"Duration":267389,"SoundDuration":267389,"Delta":276977799},{"NoteNumber":76,"Velocity":69,"Duration":267389,"SoundDuration":267389,"Delta":276977799},{"NoteNumber":64,"Velocity":58,"Duration":267389,"SoundDuration":267389,"Delta":276977799},{"NoteNumber":84,"Velocity":67,"Duration":65152,"SoundDuration":65152,"Delta":277245189},{"NoteNumber":81,"Velocity":67,"Duration":65152,"SoundDuration":65152,"Delta":277245189},{"NoteNumber":93,"Velocity":79,"Duration":65152,"SoundDuration":65152,"Delta":277245189},{"NoteNumber":72,"Velocity":62,"Duration":65152,"SoundDuration":65152,"Delta":277245189},{"NoteNumber":75,"Velocity":62,"Duration":65152,"SoundDuration":65152,"Delta":277245189},{"NoteNumber":63,"Velocity":52,"Duration":65152,"SoundDuration":65152,"Delta":277245189},{"NoteNumber":81,"Velocity":74,"Duration":251786,"SoundDuration":251786,"Delta":277331831},{"NoteNumber":84,"Velocity":74,"Duration":251786,"SoundDuration":251786,"Delta":277331831},{"NoteNumber":93,"Velocity":88,"Duration":251786,"SoundDuration":251786,"Delta":277331831},{"NoteNumber":72,"Velocity":69,"Duration":251786,"SoundDuration":251786,"Delta":277331831},{"NoteNumber":75,"Velocity":69,"Duration":251786,"SoundDuration":251786,"Delta":277331831},{"NoteNumber":63,"Velocity":58,"Duration":251786,"SoundDuration":251786,"Delta":277331831},{"NoteNumber":82,"Velocity":67,"Duration":61342,"SoundDuration":61342,"Delta":277583617},{"NoteNumber":91,"Velocity":79,"Duration":61342,"SoundDuration":61342,"Delta":277583617},{"NoteNumber":79,"Velocity":67,"Duration":61342,"SoundDuration":61342,"Delta":277583617},{"NoteNumber":70,"Velocity":62,"Duration":61342,"SoundDuration":61342,"Delta":277583617},{"NoteNumber":73,"Velocity":62,"Duration":61342,"SoundDuration":61342,"Delta":277583617},{"NoteNumber":61,"Velocity":52,"Duration":61342,"SoundDuration":61342,"Delta":277583617},{"NoteNumber":91,"Velocity":86,"Duration":238444,"SoundDuration":238444,"Delta":277665230},{"NoteNumber":79,"Velocity":73,"Duration":238444,"SoundDuration":238444,"Delta":277665230},{"NoteNumber":82,"Velocity":73,"Duration":238444,"SoundDuration":238444,"Delta":277665230},{"NoteNumber":70,"Velocity":69,"Duration":238444,"SoundDuration":238444,"Delta":277665230},{"NoteNumber":73,"Velocity":69,"Duration":238444,"SoundDuration":238444,"Delta":277665230},{"NoteNumber":61,"Velocity":58,"Duration":238444,"SoundDuration":238444,"Delta":277665230},{"NoteNumber":88,"Velocity":81,"Duration":58140,"SoundDuration":58140,"Delta":277903674},{"NoteNumber":79,"Velocity":68,"Duration":58140,"SoundDuration":58140,"Delta":277903674},{"NoteNumber":76,"Velocity":68,"Duration":58140,"SoundDuration":58140,"Delta":277903674},{"NoteNumber":67,"Velocity":62,"Duration":58140,"SoundDuration":58140,"Delta":277903674},{"NoteNumber":70,"Velocity":62,"Duration":58140,"SoundDuration":58140,"Delta":277903674},{"NoteNumber":58,"Velocity":52,"Duration":58140,"SoundDuration":58140,"Delta":277903674},{"NoteNumber":79,"Velocity":74,"Duration":225532,"SoundDuration":225532,"Delta":277980958},{"NoteNumber":88,"Velocity":88,"Duration":225532,"SoundDuration":225532,"Delta":277980958},{"NoteNumber":76,"Velocity":74,"Duration":225532,"SoundDuration":225532,"Delta":277980958},{"NoteNumber":70,"Velocity":70,"Duration":225532,"SoundDuration":225532,"Delta":277980958},{"NoteNumber":67,"Velocity":59,"Duration":225532,"SoundDuration":225532,"Delta":277980958},{"NoteNumber":58,"Velocity":49,"Duration":225532,"SoundDuration":225532,"Delta":277980958},{"NoteNumber":75,"Velocity":68,"Duration":55767,"SoundDuration":55767,"Delta":278206490},{"NoteNumber":78,"Velocity":68,"Duration":55767,"SoundDuration":55767,"Delta":278206490},{"NoteNumber":87,"Velocity":80,"Duration":55767,"SoundDuration":55767,"Delta":278206490},{"NoteNumber":69,"Velocity":62,"Duration":55767,"SoundDuration":55767,"Delta":278206490},{"NoteNumber":66,"Velocity":52,"Duration":55767,"SoundDuration":55767,"Delta":278206490},{"NoteNumber":57,"Velocity":44,"Duration":55767,"SoundDuration":55767,"Delta":278206490},{"NoteNumber":78,"Velocity":74,"Duration":220020,"SoundDuration":220020,"Delta":278280730},{"NoteNumber":87,"Velocity":88,"Duration":220020,"SoundDuration":220020,"Delta":278280730},{"NoteNumber":75,"Velocity":74,"Duration":220020,"SoundDuration":220020,"Delta":278280730},{"NoteNumber":69,"Velocity":69,"Duration":220020,"SoundDuration":220020,"Delta":278280730},{"NoteNumber":66,"Velocity":58,"Duration":220020,"SoundDuration":220020,"Delta":278280730},{"NoteNumber":57,"Velocity":49,"Duration":220020,"SoundDuration":220020,"Delta":278280730},{"NoteNumber":85,"Velocity":79,"Duration":54374,"SoundDuration":54374,"Delta":278500751},{"NoteNumber":73,"Velocity":56,"Duration":54374,"SoundDuration":54374,"Delta":278500751},{"NoteNumber":76,"Velocity":56,"Duration":54374,"SoundDuration":54374,"Delta":278500751},{"NoteNumber":67,"Velocity":62,"Duration":54374,"SoundDuration":54374,"Delta":278500751},{"NoteNumber":64,"Velocity":52,"Duration":54374,"SoundDuration":54374,"Delta":278500751},{"NoteNumber":55,"Velocity":44,"Duration":54374,"SoundDuration":54374,"Delta":278500751},{"NoteNumber":85,"Velocity":88,"Duration":215466,"SoundDuration":215466,"Delta":278573198},{"NoteNumber":73,"Velocity":74,"Duration":215466,"SoundDuration":215466,"Delta":278573198},{"NoteNumber":76,"Velocity":74,"Duration":215466,"SoundDuration":215466,"Delta":278573198},{"NoteNumber":64,"Velocity":69,"Duration":215466,"SoundDuration":215466,"Delta":278573198},{"NoteNumber":67,"Velocity":69,"Duration":215466,"SoundDuration":215466,"Delta":278573198},{"NoteNumber":55,"Velocity":58,"Duration":215466,"SoundDuration":215466,"Delta":278573198},{"NoteNumber":73,"Velocity":68,"Duration":53827,"SoundDuration":53827,"Delta":278788665},{"NoteNumber":82,"Velocity":81,"Duration":53827,"SoundDuration":53827,"Delta":278788665},{"NoteNumber":70,"Velocity":68,"Duration":53827,"SoundDuration":53827,"Delta":278788665},{"NoteNumber":61,"Velocity":62,"Duration":53827,"SoundDuration":53827,"Delta":278788665},{"NoteNumber":64,"Velocity":62,"Duration":53827,"SoundDuration":53827,"Delta":278788665},{"NoteNumber":52,"Velocity":52,"Duration":53827,"SoundDuration":53827,"Delta":278788665},{"NoteNumber":70,"Velocity":75,"Duration":215311,"SoundDuration":215311,"Delta":278860435},{"NoteNumber":73,"Velocity":75,"Duration":215311,"SoundDuration":215311,"Delta":278860435},{"NoteNumber":82,"Velocity":90,"Duration":215311,"SoundDuration":215311,"Delta":278860435},{"NoteNumber":61,"Velocity":69,"Duration":215311,"SoundDuration":215311,"Delta":278860435},{"NoteNumber":52,"Velocity":58,"Duration":215311,"SoundDuration":215311,"Delta":278860435},{"NoteNumber":64,"Velocity":69,"Duration":215311,"SoundDuration":215311,"Delta":278860435},{"NoteNumber":72,"Velocity":68,"Duration":53827,"SoundDuration":53827,"Delta":279075746},{"NoteNumber":81,"Velocity":81,"Duration":53827,"SoundDuration":53827,"Delta":279075746},{"NoteNumber":69,"Velocity":68,"Duration":53827,"SoundDuration":53827,"Delta":279075746},{"NoteNumber":60,"Velocity":62,"Duration":53827,"SoundDuration":53827,"Delta":279075746},{"NoteNumber":51,"Velocity":52,"Duration":53827,"SoundDuration":53827,"Delta":279075746},{"NoteNumber":63,"Velocity":62,"Duration":53827,"SoundDuration":53827,"Delta":279075746},{"NoteNumber":81,"Velocity":89,"Duration":214458,"SoundDuration":214458,"Delta":279147516},{"NoteNumber":69,"Velocity":74,"Duration":214458,"SoundDuration":214458,"Delta":279147516},{"NoteNumber":72,"Velocity":74,"Duration":214458,"SoundDuration":214458,"Delta":279147516},{"NoteNumber":60,"Velocity":69,"Duration":214458,"SoundDuration":214458,"Delta":279147516},{"NoteNumber":51,"Velocity":58,"Duration":214458,"SoundDuration":214458,"Delta":279147516},{"NoteNumber":63,"Velocity":69,"Duration":214458,"SoundDuration":214458,"Delta":279147516},{"NoteNumber":79,"Velocity":79,"Duration":54061,"SoundDuration":54061,"Delta":279361975},{"NoteNumber":67,"Velocity":67,"Duration":54061,"SoundDuration":54061,"Delta":279361975},{"NoteNumber":70,"Velocity":67,"Duration":54061,"SoundDuration":54061,"Delta":279361975},{"NoteNumber":58,"Velocity":62,"Duration":54061,"SoundDuration":54061,"Delta":279361975},{"NoteNumber":49,"Velocity":52,"Duration":54061,"SoundDuration":54061,"Delta":279361975},{"NoteNumber":61,"Velocity":62,"Duration":54061,"SoundDuration":54061,"Delta":279361975},{"NoteNumber":70,"Velocity":74,"Duration":218311,"SoundDuration":218311,"Delta":279434109},{"NoteNumber":79,"Velocity":88,"Duration":218311,"SoundDuration":218311,"Delta":279434109},{"NoteNumber":67,"Velocity":74,"Duration":218311,"SoundDuration":218311,"Delta":279434109},{"NoteNumber":61,"Velocity":69,"Duration":218311,"SoundDuration":218311,"Delta":279434109},{"NoteNumber":58,"Velocity":69,"Duration":218311,"SoundDuration":218311,"Delta":279434109},{"NoteNumber":49,"Velocity":58,"Duration":218311,"SoundDuration":218311,"Delta":279434109},{"NoteNumber":67,"Velocity":68,"Duration":55075,"SoundDuration":55075,"Delta":279652420},{"NoteNumber":64,"Velocity":68,"Duration":55075,"SoundDuration":55075,"Delta":279652420},{"NoteNumber":76,"Velocity":80,"Duration":55075,"SoundDuration":55075,"Delta":279652420},{"NoteNumber":58,"Velocity":62,"Duration":55075,"SoundDuration":55075,"Delta":279652420},{"NoteNumber":55,"Velocity":62,"Duration":55075,"SoundDuration":55075,"Delta":279652420},{"NoteNumber":46,"Velocity":52,"Duration":55075,"SoundDuration":55075,"Delta":279652420},{"NoteNumber":67,"Velocity":74,"Duration":224053,"SoundDuration":224053,"Delta":279726136},{"NoteNumber":76,"Velocity":88,"Duration":224053,"SoundDuration":224053,"Delta":279726136},{"NoteNumber":64,"Velocity":74,"Duration":224053,"SoundDuration":224053,"Delta":279726136},{"NoteNumber":55,"Velocity":59,"Duration":224053,"SoundDuration":224053,"Delta":279726136},{"NoteNumber":58,"Velocity":70,"Duration":224053,"SoundDuration":224053,"Delta":279726136},{"NoteNumber":46,"Velocity":49,"Duration":224053,"SoundDuration":224053,"Delta":279726136},{"NoteNumber":75,"Velocity":79,"Duration":56249,"SoundDuration":56249,"Delta":279950189},{"NoteNumber":63,"Velocity":56,"Duration":56249,"SoundDuration":56249,"Delta":279950189},{"NoteNumber":66,"Velocity":56,"Duration":56249,"SoundDuration":56249,"Delta":279950189},{"NoteNumber":54,"Velocity":52,"Duration":56249,"SoundDuration":56249,"Delta":279950189},{"NoteNumber":57,"Velocity":62,"Duration":56249,"SoundDuration":56249,"Delta":279950189},{"NoteNumber":45,"Velocity":44,"Duration":56249,"SoundDuration":56249,"Delta":279950189},{"NoteNumber":75,"Velocity":94,"Duration":226932,"SoundDuration":226932,"Delta":280025189},{"NoteNumber":66,"Velocity":80,"Duration":226932,"SoundDuration":226932,"Delta":280025189},{"NoteNumber":63,"Velocity":80,"Duration":226932,"SoundDuration":226932,"Delta":280025189},{"NoteNumber":54,"Velocity":58,"Duration":226932,"SoundDuration":226932,"Delta":280025189},{"NoteNumber":57,"Velocity":69,"Duration":226932,"SoundDuration":226932,"Delta":280025189},{"NoteNumber":45,"Velocity":49,"Duration":226932,"SoundDuration":226932,"Delta":280025189},{"NoteNumber":61,"Velocity":56,"Duration":57106,"SoundDuration":57106,"Delta":280252122},{"NoteNumber":64,"Velocity":56,"Duration":57106,"SoundDuration":57106,"Delta":280252122},{"NoteNumber":73,"Velocity":79,"Duration":57106,"SoundDuration":57106,"Delta":280252122},{"NoteNumber":52,"Velocity":52,"Duration":57106,"SoundDuration":57106,"Delta":280252122},{"NoteNumber":55,"Velocity":62,"Duration":57106,"SoundDuration":57106,"Delta":280252122},{"NoteNumber":43,"Velocity":44,"Duration":57106,"SoundDuration":57106,"Delta":280252122},{"NoteNumber":61,"Velocity":81,"Duration":245231,"SoundDuration":245231,"Delta":280328264},{"NoteNumber":64,"Velocity":81,"Duration":245231,"SoundDuration":245231,"Delta":280328264},{"NoteNumber":73,"Velocity":96,"Duration":245231,"SoundDuration":245231,"Delta":280328264},{"NoteNumber":55,"Velocity":69,"Duration":245231,"SoundDuration":245231,"Delta":280328264},{"NoteNumber":52,"Velocity":69,"Duration":245231,"SoundDuration":245231,"Delta":280328264},{"NoteNumber":43,"Velocity":58,"Duration":245231,"SoundDuration":245231,"Delta":280328264},{"NoteNumber":64,"Velocity":83,"Duration":92307,"SoundDuration":92307,"Delta":282142896},{"NoteNumber":52,"Velocity":70,"Duration":92307,"SoundDuration":92307,"Delta":282142896},{"NoteNumber":58,"Velocity":70,"Duration":92307,"SoundDuration":92307,"Delta":282142896},{"NoteNumber":31,"Velocity":55,"Duration":92307,"SoundDuration":92307,"Delta":282142896},{"NoteNumber":43,"Velocity":64,"Duration":92307,"SoundDuration":92307,"Delta":282142896},{"NoteNumber":37,"Velocity":55,"Duration":92307,"SoundDuration":92307,"Delta":282142896},{"NoteNumber":40,"Velocity":55,"Duration":92307,"SoundDuration":92307,"Delta":282142896},{"NoteNumber":52,"Velocity":79,"Duration":162162,"SoundDuration":162162,"Delta":282235204},{"NoteNumber":64,"Velocity":93,"Duration":162162,"SoundDuration":162162,"Delta":282235204},{"NoteNumber":56,"Velocity":79,"Duration":162162,"SoundDuration":162162,"Delta":282235204},{"NoteNumber":44,"Velocity":64,"Duration":162162,"SoundDuration":162162,"Delta":282235204},{"NoteNumber":40,"Velocity":55,"Duration":162162,"SoundDuration":162162,"Delta":282235204},{"NoteNumber":32,"Velocity":55,"Duration":162162,"SoundDuration":162162,"Delta":282235204},{"NoteNumber":37,"Velocity":55,"Duration":162162,"SoundDuration":162162,"Delta":282235204},{"NoteNumber":63,"Velocity":84,"Duration":179640,"SoundDuration":179640,"Delta":282721691},{"NoteNumber":56,"Velocity":71,"Duration":179640,"SoundDuration":179640,"Delta":282721691},{"NoteNumber":51,"Velocity":71,"Duration":179640,"SoundDuration":179640,"Delta":282721691},{"NoteNumber":37,"Velocity":56,"Duration":179640,"SoundDuration":179640,"Delta":282721691},{"NoteNumber":44,"Velocity":67,"Duration":179640,"SoundDuration":179640,"Delta":282721691},{"NoteNumber":32,"Velocity":56,"Duration":179640,"SoundDuration":179640,"Delta":282721691},{"NoteNumber":40,"Velocity":56,"Duration":179640,"SoundDuration":179640,"Delta":282721691},{"NoteNumber":56,"Velocity":79,"Duration":160858,"SoundDuration":160858,"Delta":282901332},{"NoteNumber":63,"Velocity":93,"Duration":160858,"SoundDuration":160858,"Delta":282901332},{"NoteNumber":51,"Velocity":79,"Duration":160858,"SoundDuration":160858,"Delta":282901332},{"NoteNumber":32,"Velocity":61,"Duration":160858,"SoundDuration":160858,"Delta":282901332},{"NoteNumber":44,"Velocity":72,"Duration":160858,"SoundDuration":160858,"Delta":282901332},{"NoteNumber":37,"Velocity":61,"Duration":160858,"SoundDuration":160858,"Delta":282901332},{"NoteNumber":40,"Velocity":61,"Duration":160858,"SoundDuration":160858,"Delta":282901332},{"NoteNumber":49,"Velocity":72,"Duration":170454,"SoundDuration":170454,"Delta":283383906},{"NoteNumber":56,"Velocity":72,"Duration":170454,"SoundDuration":170454,"Delta":283383906},{"NoteNumber":61,"Velocity":85,"Duration":170454,"SoundDuration":170454,"Delta":283383906},{"NoteNumber":44,"Velocity":64,"Duration":170454,"SoundDuration":170454,"Delta":283383906},{"NoteNumber":40,"Velocity":55,"Duration":170454,"SoundDuration":170454,"Delta":283383906},{"NoteNumber":32,"Velocity":55,"Duration":170454,"SoundDuration":170454,"Delta":283383906},{"NoteNumber":37,"Velocity":55,"Duration":170454,"SoundDuration":170454,"Delta":283383906},{"NoteNumber":68,"Velocity":96,"Duration":712166,"SoundDuration":712166,"Delta":283554360},{"NoteNumber":56,"Velocity":81,"Duration":712166,"SoundDuration":712166,"Delta":283554360},{"NoteNumber":60,"Velocity":81,"Duration":712166,"SoundDuration":712166,"Delta":283554360},{"NoteNumber":39,"Velocity":61,"Duration":712166,"SoundDuration":712166,"Delta":283554360},{"NoteNumber":44,"Velocity":72,"Duration":712166,"SoundDuration":712166,"Delta":283554360},{"NoteNumber":32,"Velocity":61,"Duration":712166,"SoundDuration":712166,"Delta":283554360},{"NoteNumber":42,"Velocity":61,"Duration":712166,"SoundDuration":712166,"Delta":283554360},{"NoteNumber":48,"Velocity":77,"Duration":534124,"SoundDuration":534124,"Delta":284266526},{"NoteNumber":60,"Velocity":91,"Duration":534124,"SoundDuration":534124,"Delta":284266526},{"NoteNumber":56,"Velocity":77,"Duration":534124,"SoundDuration":534124,"Delta":284266526},{"NoteNumber":32,"Velocity":57,"Duration":534124,"SoundDuration":534124,"Delta":284266526},{"NoteNumber":44,"Velocity":68,"Duration":534124,"SoundDuration":534124,"Delta":284266526},{"NoteNumber":39,"Velocity":57,"Duration":534124,"SoundDuration":534124,"Delta":284266526},{"NoteNumber":42,"Velocity":57,"Duration":534124,"SoundDuration":534124,"Delta":284266526},{"NoteNumber":44,"Velocity":40,"Duration":671634,"SoundDuration":671634,"Delta":284889671},{"NoteNumber":52,"Velocity":42,"Duration":656798,"SoundDuration":656798,"Delta":284904508},{"NoteNumber":56,"Velocity":45,"Duration":624660,"SoundDuration":624660,"Delta":284919345},{"NoteNumber":61,"Velocity":51,"Duration":627124,"SoundDuration":627124,"Delta":284934182},{"NoteNumber":64,"Velocity":62,"Duration":690142,"SoundDuration":690142,"Delta":284949019},{"NoteNumber":68,"Velocity":62,"Duration":675305,"SoundDuration":675305,"Delta":284963855},{"NoteNumber":76,"Velocity":83,"Duration":466842,"SoundDuration":466842,"Delta":284978692},{"NoteNumber":75,"Velocity":75,"Duration":59880,"SoundDuration":59880,"Delta":285445534},{"NoteNumber":75,"Velocity":67,"Duration":51903,"SoundDuration":51903,"Delta":285535355},{"NoteNumber":44,"Velocity":45,"Duration":664621,"SoundDuration":664621,"Delta":285561306},{"NoteNumber":76,"Velocity":72,"Duration":51903,"SoundDuration":51903,"Delta":285587258},{"NoteNumber":52,"Velocity":48,"Duration":638669,"SoundDuration":638669,"Delta":285587258},{"NoteNumber":56,"Velocity":53,"Duration":612718,"SoundDuration":612718,"Delta":285613209},{"NoteNumber":68,"Velocity":61,"Duration":672644,"SoundDuration":672644,"Delta":285639161},{"NoteNumber":64,"Velocity":61,"Duration":672644,"SoundDuration":672644,"Delta":285639161},{"NoteNumber":75,"Velocity":80,"Duration":160858,"SoundDuration":160858,"Delta":285639161},{"NoteNumber":61,"Velocity":58,"Duration":586766,"SoundDuration":586766,"Delta":285639161},{"NoteNumber":73,"Velocity":77,"Duration":80429,"SoundDuration":80429,"Delta":285960877},{"NoteNumber":44,"Velocity":47,"Duration":785585,"SoundDuration":785585,"Delta":286225928},{"NoteNumber":51,"Velocity":49,"Duration":766501,"SoundDuration":766501,"Delta":286245012},{"NoteNumber":56,"Velocity":52,"Duration":747417,"SoundDuration":747417,"Delta":286264096},{"NoteNumber":60,"Velocity":55,"Duration":728333,"SoundDuration":728333,"Delta":286283180},{"NoteNumber":66,"Velocity":63,"Duration":709249,"SoundDuration":709249,"Delta":286302264},{"NoteNumber":72,"Velocity":67,"Duration":692419,"SoundDuration":692419,"Delta":286319094},{"NoteNumber":80,"Velocity":82,"Duration":677842,"SoundDuration":677842,"Delta":286333672},{"NoteNumber":72,"Velocity":77,"Duration":349853,"SoundDuration":349853,"Delta":287011514},{"NoteNumber":56,"Velocity":48,"Duration":654468,"SoundDuration":654468,"Delta":287645624},{"NoteNumber":64,"Velocity":51,"Duration":632602,"SoundDuration":632602,"Delta":287667490},{"NoteNumber":68,"Velocity":53,"Duration":610737,"SoundDuration":610737,"Delta":287689356},{"NoteNumber":88,"Velocity":76,"Duration":466842,"SoundDuration":466842,"Delta":287711222},{"NoteNumber":76,"Velocity":54,"Duration":672826,"SoundDuration":672826,"Delta":287711222},{"NoteNumber":80,"Velocity":54,"Duration":672826,"SoundDuration":672826,"Delta":287711222},{"NoteNumber":73,"Velocity":57,"Duration":588871,"SoundDuration":588871,"Delta":287711222},{"NoteNumber":87,"Velocity":69,"Duration":94043,"SoundDuration":94043,"Delta":288178064},{"NoteNumber":85,"Velocity":63,"Duration":37313,"SoundDuration":37313,"Delta":288272108},{"NoteNumber":56,"Velocity":37,"Duration":670420,"SoundDuration":670420,"Delta":288300093},{"NoteNumber":87,"Velocity":59,"Duration":37313,"SoundDuration":37313,"Delta":288309421},{"NoteNumber":64,"Velocity":39,"Duration":642435,"SoundDuration":642435,"Delta":288328078},{"NoteNumber":88,"Velocity":63,"Duration":37313,"SoundDuration":37313,"Delta":288346735},{"NoteNumber":68,"Velocity":41,"Duration":614450,"SoundDuration":614450,"Delta":288356063},{"NoteNumber":76,"Velocity":51,"Duration":676465,"SoundDuration":676465,"Delta":288384048},{"NoteNumber":80,"Velocity":51,"Duration":676465,"SoundDuration":676465,"Delta":288384048},{"NoteNumber":87,"Velocity":73,"Duration":160858,"SoundDuration":160858,"Delta":288384048},{"NoteNumber":73,"Velocity":44,"Duration":586465,"SoundDuration":586465,"Delta":288384048},{"NoteNumber":85,"Velocity":66,"Duration":160858,"SoundDuration":160858,"Delta":288705764},{"NoteNumber":56,"Velocity":51,"Duration":643110,"SoundDuration":643110,"Delta":289000514},{"NoteNumber":66,"Velocity":54,"Duration":613110,"SoundDuration":613110,"Delta":289030514},{"NoteNumber":80,"Velocity":54,"Duration":321715,"SoundDuration":321715,"Delta":289060514},{"NoteNumber":87,"Velocity":75,"Duration":321715,"SoundDuration":321715,"Delta":289060514},{"NoteNumber":75,"Velocity":54,"Duration":321715,"SoundDuration":321715,"Delta":289060514},{"NoteNumber":72,"Velocity":57,"Duration":583110,"SoundDuration":583110,"Delta":289060514},{"NoteNumber":80,"Velocity":63,"Duration":160858,"SoundDuration":160858,"Delta":289543088},{"NoteNumber":56,"Velocity":51,"Duration":626509,"SoundDuration":626509,"Delta":289663731},{"NoteNumber":66,"Velocity":54,"Duration":606402,"SoundDuration":606402,"Delta":289683838},{"NoteNumber":92,"Velocity":75,"Duration":321715,"SoundDuration":321715,"Delta":289703946},{"NoteNumber":80,"Velocity":54,"Duration":321715,"SoundDuration":321715,"Delta":289703946},{"NoteNumber":72,"Velocity":57,"Duration":586294,"SoundDuration":586294,"Delta":289703946},{"NoteNumber":80,"Velocity":68,"Duration":173596,"SoundDuration":173596,"Delta":290186520},{"NoteNumber":56,"Velocity":41,"Duration":660979,"SoundDuration":660979,"Delta":290290241},{"NoteNumber":64,"Velocity":44,"Duration":637687,"SoundDuration":637687,"Delta":290313533},{"NoteNumber":68,"Velocity":47,"Duration":614395,"SoundDuration":614395,"Delta":290336824},{"NoteNumber":80,"Velocity":54,"Duration":683316,"SoundDuration":683316,"Delta":290360116},{"NoteNumber":88,"Velocity":76,"Duration":468902,"SoundDuration":468902,"Delta":290360116},{"NoteNumber":76,"Velocity":54,"Duration":683316,"SoundDuration":683316,"Delta":290360116},{"NoteNumber":73,"Velocity":51,"Duration":591103,"SoundDuration":591103,"Delta":290360116},{"NoteNumber":87,"Velocity":69,"Duration":91463,"SoundDuration":91463,"Delta":290829019},{"NoteNumber":85,"Velocity":59,"Duration":40983,"SoundDuration":40983,"Delta":290920483},{"NoteNumber":56,"Velocity":36,"Duration":689425,"SoundDuration":689425,"Delta":290951220},{"NoteNumber":87,"Velocity":59,"Duration":40983,"SoundDuration":40983,"Delta":290961466},{"NoteNumber":64,"Velocity":38,"Duration":658687,"SoundDuration":658687,"Delta":290981958},{"NoteNumber":88,"Velocity":63,"Duration":40983,"SoundDuration":40983,"Delta":291002450},{"NoteNumber":68,"Velocity":40,"Duration":627949,"SoundDuration":627949,"Delta":291012696},{"NoteNumber":87,"Velocity":73,"Duration":162162,"SoundDuration":162162,"Delta":291043433},{"NoteNumber":76,"Velocity":51,"Duration":686145,"SoundDuration":686145,"Delta":291043433},{"NoteNumber":80,"Velocity":51,"Duration":686145,"SoundDuration":686145,"Delta":291043433},{"NoteNumber":73,"Velocity":43,"Duration":597212,"SoundDuration":597212,"Delta":291043433},{"NoteNumber":85,"Velocity":66,"Duration":162162,"SoundDuration":162162,"Delta":291367758},{"NoteNumber":56,"Velocity":50,"Duration":633444,"SoundDuration":633444,"Delta":291670290},{"NoteNumber":66,"Velocity":52,"Duration":603799,"SoundDuration":603799,"Delta":291699934},{"NoteNumber":75,"Velocity":54,"Duration":324324,"SoundDuration":324324,"Delta":291729578},{"NoteNumber":87,"Velocity":75,"Duration":324324,"SoundDuration":324324,"Delta":291729578},{"NoteNumber":80,"Velocity":54,"Duration":324324,"SoundDuration":324324,"Delta":291729578},{"NoteNumber":72,"Velocity":55,"Duration":574155,"SoundDuration":574155,"Delta":291729578},{"NoteNumber":80,"Velocity":63,"Duration":150000,"SoundDuration":150000,"Delta":292209984},{"NoteNumber":92,"Velocity":75,"Duration":321715,"SoundDuration":321715,"Delta":292359984},{"NoteNumber":80,"Velocity":64,"Duration":161118,"SoundDuration":161118,"Delta":292842558},{"NoteNumber":87,"Velocity":68,"Duration":162053,"SoundDuration":162053,"Delta":293003677},{"NoteNumber":80,"Velocity":61,"Duration":160708,"SoundDuration":160708,"Delta":293165730},{"NoteNumber":92,"Velocity":66,"Duration":159574,"SoundDuration":159574,"Delta":293326439},{"NoteNumber":80,"Velocity":60,"Duration":158259,"SoundDuration":158259,"Delta":293486013},{"NoteNumber":87,"Velocity":65,"Duration":156966,"SoundDuration":156966,"Delta":293644273},{"NoteNumber":80,"Velocity":57,"Duration":155844,"SoundDuration":155844,"Delta":293801239},{"NoteNumber":92,"Velocity":63,"Duration":154689,"SoundDuration":154689,"Delta":293957083},{"NoteNumber":80,"Velocity":57,"Duration":153928,"SoundDuration":153928,"Delta":294111772},{"NoteNumber":87,"Velocity":62,"Duration":103173,"SoundDuration":103173,"Delta":294265700},{"NoteNumber":80,"Velocity":57,"Duration":102643,"SoundDuration":102643,"Delta":294368874},{"NoteNumber":92,"Velocity":61,"Duration":102119,"SoundDuration":102119,"Delta":294471517},{"NoteNumber":80,"Velocity":56,"Duration":102763,"SoundDuration":102763,"Delta":294573637},{"NoteNumber":87,"Velocity":59,"Duration":100985,"SoundDuration":100985,"Delta":294675135},{"NoteNumber":80,"Velocity":53,"Duration":100477,"SoundDuration":100477,"Delta":294776120},{"NoteNumber":92,"Velocity":58,"Duration":99875,"SoundDuration":99875,"Delta":294876598},{"NoteNumber":80,"Velocity":50,"Duration":99379,"SoundDuration":99379,"Delta":294976473},{"NoteNumber":87,"Velocity":57,"Duration":98887,"SoundDuration":98887,"Delta":295075853},{"NoteNumber":80,"Velocity":48,"Duration":98304,"SoundDuration":98304,"Delta":295174741},{"NoteNumber":92,"Velocity":59,"Duration":97823,"SoundDuration":97823,"Delta":295273045},{"NoteNumber":80,"Velocity":50,"Duration":97276,"SoundDuration":97276,"Delta":295370869},{"NoteNumber":87,"Velocity":57,"Duration":81977,"SoundDuration":81977,"Delta":295468146},{"NoteNumber":80,"Velocity":51,"Duration":82644,"SoundDuration":82644,"Delta":295550123},{"NoteNumber":92,"Velocity":57,"Duration":82557,"SoundDuration":82557,"Delta":295632768},{"NoteNumber":80,"Velocity":51,"Duration":82417,"SoundDuration":82417,"Delta":295715325},{"NoteNumber":87,"Velocity":55,"Duration":82417,"SoundDuration":82417,"Delta":295797743},{"NoteNumber":80,"Velocity":51,"Duration":81856,"SoundDuration":81856,"Delta":295880161},{"NoteNumber":92,"Velocity":54,"Duration":81743,"SoundDuration":81743,"Delta":295962017},{"NoteNumber":80,"Velocity":49,"Duration":81567,"SoundDuration":81567,"Delta":296043761},{"NoteNumber":87,"Velocity":53,"Duration":81081,"SoundDuration":81081,"Delta":296125328},{"NoteNumber":80,"Velocity":47,"Duration":81081,"SoundDuration":81081,"Delta":296206409},{"NoteNumber":92,"Velocity":52,"Duration":80613,"SoundDuration":80613,"Delta":296287490},{"NoteNumber":80,"Velocity":47,"Duration":80428,"SoundDuration":80428,"Delta":296368104},{"NoteNumber":87,"Velocity":51,"Duration":80332,"SoundDuration":80332,"Delta":296448533},{"NoteNumber":80,"Velocity":47,"Duration":79787,"SoundDuration":79787,"Delta":296528866},{"NoteNumber":92,"Velocity":50,"Duration":79787,"SoundDuration":79787,"Delta":296608653},{"NoteNumber":80,"Velocity":45,"Duration":79418,"SoundDuration":79418,"Delta":296688440},{"NoteNumber":87,"Velocity":48,"Duration":79155,"SoundDuration":79155,"Delta":296767859},{"NoteNumber":80,"Velocity":43,"Duration":79155,"SoundDuration":79155,"Delta":296847014},{"NoteNumber":92,"Velocity":47,"Duration":78710,"SoundDuration":78710,"Delta":296926170},{"NoteNumber":80,"Velocity":43,"Duration":78533,"SoundDuration":78533,"Delta":297004880},{"NoteNumber":87,"Velocity":46,"Duration":78442,"SoundDuration":78442,"Delta":297083414},{"NoteNumber":80,"Velocity":42,"Duration":77922,"SoundDuration":77922,"Delta":297161856},{"NoteNumber":92,"Velocity":45,"Duration":77922,"SoundDuration":77922,"Delta":297239779},{"NoteNumber":80,"Velocity":40,"Duration":77570,"SoundDuration":77570,"Delta":297317701},{"NoteNumber":87,"Velocity":44,"Duration":77319,"SoundDuration":77319,"Delta":297395271},{"NoteNumber":80,"Velocity":39,"Duration":77299,"SoundDuration":77299,"Delta":297472591},{"NoteNumber":92,"Velocity":43,"Duration":76726,"SoundDuration":76726,"Delta":297549891},{"NoteNumber":80,"Velocity":39,"Duration":76726,"SoundDuration":76726,"Delta":297626617},{"NoteNumber":87,"Velocity":42,"Duration":76453,"SoundDuration":76453,"Delta":297703344},{"NoteNumber":80,"Velocity":38,"Duration":76142,"SoundDuration":76142,"Delta":297779797},{"NoteNumber":92,"Velocity":40,"Duration":76142,"SoundDuration":76142,"Delta":297855939},{"NoteNumber":80,"Velocity":35,"Duration":75614,"SoundDuration":75614,"Delta":297932082},{"NoteNumber":91,"Velocity":47,"Duration":120331,"SoundDuration":120331,"Delta":298007696},{"NoteNumber":92,"Velocity":47,"Duration":120331,"SoundDuration":120331,"Delta":298128028},{"NoteNumber":94,"Velocity":47,"Duration":120331,"SoundDuration":120331,"Delta":298248360},{"NoteNumber":92,"Velocity":47,"Duration":89211,"SoundDuration":89211,"Delta":298366618},{"NoteNumber":94,"Velocity":42,"Duration":80558,"SoundDuration":80558,"Delta":298455829},{"NoteNumber":92,"Velocity":47,"Duration":73967,"SoundDuration":73967,"Delta":298536387},{"NoteNumber":94,"Velocity":40,"Duration":75465,"SoundDuration":75465,"Delta":298612068},{"NoteNumber":92,"Velocity":47,"Duration":77107,"SoundDuration":77107,"Delta":298687534},{"NoteNumber":94,"Velocity":41,"Duration":75041,"SoundDuration":75041,"Delta":298764641},{"NoteNumber":92,"Velocity":47,"Duration":76111,"SoundDuration":76111,"Delta":298839682},{"NoteNumber":94,"Velocity":41,"Duration":75174,"SoundDuration":75174,"Delta":298915793},{"NoteNumber":92,"Velocity":47,"Duration":76918,"SoundDuration":76918,"Delta":298992716},{"NoteNumber":94,"Velocity":41,"Duration":74625,"SoundDuration":74625,"Delta":299069635},{"NoteNumber":92,"Velocity":47,"Duration":72786,"SoundDuration":72786,"Delta":299144260},{"NoteNumber":94,"Velocity":42,"Duration":72744,"SoundDuration":72744,"Delta":299217046},{"NoteNumber":92,"Velocity":47,"Duration":72047,"SoundDuration":72047,"Delta":299289791},{"NoteNumber":94,"Velocity":41,"Duration":71100,"SoundDuration":71100,"Delta":299363500},{"NoteNumber":92,"Velocity":47,"Duration":70434,"SoundDuration":70434,"Delta":299434600},{"NoteNumber":94,"Velocity":41,"Duration":69544,"SoundDuration":69544,"Delta":299505035},{"NoteNumber":92,"Velocity":47,"Duration":68906,"SoundDuration":68906,"Delta":299574579},{"NoteNumber":94,"Velocity":42,"Duration":68053,"SoundDuration":68053,"Delta":299643485},{"NoteNumber":92,"Velocity":47,"Duration":67106,"SoundDuration":67106,"Delta":299727257},{"NoteNumber":94,"Velocity":41,"Duration":66770,"SoundDuration":66770,"Delta":299794363},{"NoteNumber":92,"Velocity":47,"Duration":66770,"SoundDuration":66770,"Delta":299862686},{"NoteNumber":94,"Velocity":41,"Duration":66770,"SoundDuration":66770,"Delta":299929456},{"NoteNumber":92,"Velocity":47,"Duration":67179,"SoundDuration":67179,"Delta":299996227},{"NoteNumber":94,"Velocity":42,"Duration":67398,"SoundDuration":67398,"Delta":300063406},{"NoteNumber":92,"Velocity":47,"Duration":67398,"SoundDuration":67398,"Delta":300130804},{"NoteNumber":94,"Velocity":40,"Duration":67398,"SoundDuration":67398,"Delta":300199769},{"NoteNumber":92,"Velocity":47,"Duration":67487,"SoundDuration":67487,"Delta":300267167},{"NoteNumber":94,"Velocity":41,"Duration":68773,"SoundDuration":68773,"Delta":300334655},{"NoteNumber":92,"Velocity":47,"Duration":68012,"SoundDuration":68012,"Delta":300403428},{"NoteNumber":94,"Velocity":41,"Duration":72934,"SoundDuration":72934,"Delta":300471440},{"NoteNumber":92,"Velocity":47,"Duration":72137,"SoundDuration":72137,"Delta":300546087},{"NoteNumber":94,"Velocity":41,"Duration":71950,"SoundDuration":71950,"Delta":300618224},{"NoteNumber":92,"Velocity":47,"Duration":72147,"SoundDuration":72147,"Delta":300690175},{"NoteNumber":94,"Velocity":42,"Duration":72147,"SoundDuration":72147,"Delta":300762323},{"NoteNumber":92,"Velocity":47,"Duration":75375,"SoundDuration":75375,"Delta":300834471},{"NoteNumber":68,"Velocity":50,"Duration":400923,"SoundDuration":400923,"Delta":300883128},{"NoteNumber":94,"Velocity":41,"Duration":82061,"SoundDuration":82061,"Delta":300911754},{"NoteNumber":92,"Velocity":47,"Duration":80394,"SoundDuration":80394,"Delta":300993815},{"NoteNumber":94,"Velocity":41,"Duration":82428,"SoundDuration":82428,"Delta":301074210},{"NoteNumber":92,"Velocity":47,"Duration":83011,"SoundDuration":83011,"Delta":301156638},{"NoteNumber":94,"Velocity":42,"Duration":83011,"SoundDuration":83011,"Delta":301239650},{"NoteNumber":61,"Velocity":44,"Duration":264382,"SoundDuration":264382,"Delta":301284051},{"NoteNumber":68,"Velocity":46,"Duration":235424,"SoundDuration":235424,"Delta":301313009},{"NoteNumber":89,"Velocity":58,"Duration":629742,"SoundDuration":629742,"Delta":301341966},{"NoteNumber":77,"Velocity":48,"Duration":206467,"SoundDuration":206467,"Delta":301341966},{"NoteNumber":92,"Velocity":47,"Duration":75342,"SoundDuration":75342,"Delta":301341966},{"NoteNumber":94,"Velocity":41,"Duration":72147,"SoundDuration":72147,"Delta":301417309},{"NoteNumber":92,"Velocity":47,"Duration":75238,"SoundDuration":75238,"Delta":301491169},{"NoteNumber":94,"Velocity":41,"Duration":77559,"SoundDuration":77559,"Delta":301566408},{"NoteNumber":92,"Velocity":47,"Duration":75734,"SoundDuration":75734,"Delta":301643967},{"NoteNumber":94,"Velocity":42,"Duration":74495,"SoundDuration":74495,"Delta":301719701},{"NoteNumber":92,"Velocity":47,"Duration":76785,"SoundDuration":76785,"Delta":301794197},{"NoteNumber":94,"Velocity":40,"Duration":74371,"SoundDuration":74371,"Delta":301872749},{"NoteNumber":92,"Velocity":47,"Duration":76685,"SoundDuration":76685,"Delta":301947121},{"NoteNumber":87,"Velocity":53,"Duration":211200,"SoundDuration":211200,"Delta":301971709},{"NoteNumber":94,"Velocity":41,"Duration":75687,"SoundDuration":75687,"Delta":302023806},{"NoteNumber":92,"Velocity":47,"Duration":74582,"SoundDuration":74582,"Delta":302099493},{"NoteNumber":68,"Velocity":47,"Duration":263837,"SoundDuration":263837,"Delta":302130422},{"NoteNumber":75,"Velocity":49,"Duration":237758,"SoundDuration":237758,"Delta":302156501},{"NoteNumber":94,"Velocity":41,"Duration":76653,"SoundDuration":76653,"Delta":302174076},{"NoteNumber":90,"Velocity":57,"Duration":637139,"SoundDuration":637139,"Delta":302182910},{"NoteNumber":78,"Velocity":51,"Duration":211349,"SoundDuration":211349,"Delta":302182910},{"NoteNumber":92,"Velocity":47,"Duration":74868,"SoundDuration":74868,"Delta":302252515},{"NoteNumber":94,"Velocity":41,"Duration":75901,"SoundDuration":75901,"Delta":302327383},{"NoteNumber":92,"Velocity":47,"Duration":77234,"SoundDuration":77234,"Delta":302403285},{"NoteNumber":94,"Velocity":42,"Duration":74745,"SoundDuration":74745,"Delta":302480519},{"NoteNumber":92,"Velocity":47,"Duration":76785,"SoundDuration":76785,"Delta":302555265},{"NoteNumber":94,"Velocity":41,"Duration":74371,"SoundDuration":74371,"Delta":302633763},{"NoteNumber":92,"Velocity":47,"Duration":77617,"SoundDuration":77617,"Delta":302708135},{"NoteNumber":94,"Velocity":41,"Duration":77617,"SoundDuration":77617,"Delta":302785753},{"NoteNumber":84,"Velocity":52,"Duration":214788,"SoundDuration":214788,"Delta":302820049},{"NoteNumber":92,"Velocity":47,"Duration":76824,"SoundDuration":76824,"Delta":302863370},{"NoteNumber":94,"Velocity":42,"Duration":76785,"SoundDuration":76785,"Delta":302940194},{"NoteNumber":61,"Velocity":42,"Duration":252306,"SoundDuration":252306,"Delta":302981266},{"NoteNumber":68,"Velocity":46,"Duration":225521,"SoundDuration":225521,"Delta":303008052},{"NoteNumber":87,"Velocity":59,"Duration":400077,"SoundDuration":400077,"Delta":303034837},{"NoteNumber":77,"Velocity":49,"Duration":198735,"SoundDuration":198735,"Delta":303034837},{"NoteNumber":92,"Velocity":47,"Duration":71428,"SoundDuration":71428,"Delta":303034837},{"NoteNumber":94,"Velocity":41,"Duration":70259,"SoundDuration":70259,"Delta":303106266},{"NoteNumber":92,"Velocity":47,"Duration":72147,"SoundDuration":72147,"Delta":303178204},{"NoteNumber":94,"Velocity":41,"Duration":72147,"SoundDuration":72147,"Delta":303250351},{"NoteNumber":92,"Velocity":47,"Duration":72147,"SoundDuration":72147,"Delta":303322499},{"NoteNumber":94,"Velocity":42,"Duration":74564,"SoundDuration":74564,"Delta":303394646},{"NoteNumber":85,"Velocity":52,"Duration":429790,"SoundDuration":429790,"Delta":303434915},{"NoteNumber":92,"Velocity":47,"Duration":77158,"SoundDuration":77158,"Delta":303469211},{"NoteNumber":94,"Velocity":40,"Duration":76737,"SoundDuration":76737,"Delta":303548136},{"NoteNumber":92,"Velocity":47,"Duration":77617,"SoundDuration":77617,"Delta":303624873},{"NoteNumber":94,"Velocity":41,"Duration":75686,"SoundDuration":75686,"Delta":303702490},{"NoteNumber":92,"Velocity":47,"Duration":77503,"SoundDuration":77503,"Delta":303778176},{"NoteNumber":94,"Velocity":41,"Duration":77617,"SoundDuration":77617,"Delta":303855680},{"NoteNumber":92,"Velocity":47,"Duration":76392,"SoundDuration":76392,"Delta":303935102},{"NoteNumber":94,"Velocity":41,"Duration":78234,"SoundDuration":78234,"Delta":304011495},{"NoteNumber":92,"Velocity":47,"Duration":99035,"SoundDuration":99035,"Delta":304089730},{"NoteNumber":94,"Velocity":42,"Duration":107142,"SoundDuration":107142,"Delta":304188766},{"NoteNumber":73,"Velocity":50,"Duration":402684,"SoundDuration":402684,"Delta":304295909},{"NoteNumber":92,"Velocity":47,"Duration":100671,"SoundDuration":100671,"Delta":304295909},{"NoteNumber":94,"Velocity":42,"Duration":100671,"SoundDuration":100671,"Delta":304396580},{"NoteNumber":91,"Velocity":49,"Duration":100671,"SoundDuration":100671,"Delta":304497251},{"NoteNumber":92,"Velocity":52,"Duration":67114,"SoundDuration":67114,"Delta":304564365},{"NoteNumber":93,"Velocity":54,"Duration":67114,"SoundDuration":67114,"Delta":304631479},{"NoteNumber":82,"Velocity":44,"Duration":226414,"SoundDuration":226414,"Delta":304698593},{"NoteNumber":66,"Velocity":44,"Duration":452830,"SoundDuration":452830,"Delta":304698593},{"NoteNumber":73,"Velocity":44,"Duration":452830,"SoundDuration":452830,"Delta":304698593},{"NoteNumber":94,"Velocity":64,"Duration":81132,"SoundDuration":81132,"Delta":304698593},{"NoteNumber":96,"Velocity":41,"Duration":81132,"SoundDuration":81132,"Delta":304779725},{"NoteNumber":94,"Velocity":47,"Duration":81132,"SoundDuration":81132,"Delta":304862744},{"NoteNumber":96,"Velocity":41,"Duration":81132,"SoundDuration":81132,"Delta":304943876},{"NoteNumber":94,"Velocity":47,"Duration":81132,"SoundDuration":81132,"Delta":305025008},{"NoteNumber":96,"Velocity":42,"Duration":77817,"SoundDuration":77817,"Delta":305106140},{"NoteNumber":82,"Velocity":44,"Duration":205479,"SoundDuration":205479,"Delta":305151423},{"NoteNumber":94,"Velocity":61,"Duration":73630,"SoundDuration":73630,"Delta":305183957},{"NoteNumber":96,"Velocity":40,"Duration":73630,"SoundDuration":73630,"Delta":305259300},{"NoteNumber":94,"Velocity":47,"Duration":73630,"SoundDuration":73630,"Delta":305332930},{"NoteNumber":96,"Velocity":41,"Duration":73630,"SoundDuration":73630,"Delta":305406560},{"NoteNumber":94,"Velocity":47,"Duration":73630,"SoundDuration":73630,"Delta":305480190},{"NoteNumber":96,"Velocity":41,"Duration":75331,"SoundDuration":75331,"Delta":305553820},{"NoteNumber":92,"Velocity":60,"Duration":848513,"SoundDuration":848513,"Delta":305562382},{"NoteNumber":80,"Velocity":54,"Duration":848513,"SoundDuration":848513,"Delta":305562382},{"NoteNumber":65,"Velocity":44,"Duration":425053,"SoundDuration":425053,"Delta":305562382},{"NoteNumber":74,"Velocity":44,"Duration":425053,"SoundDuration":425053,"Delta":305562382},{"NoteNumber":94,"Velocity":47,"Duration":76310,"SoundDuration":76310,"Delta":305630900},{"NoteNumber":96,"Velocity":41,"Duration":75811,"SoundDuration":75811,"Delta":305707211},{"NoteNumber":94,"Velocity":47,"Duration":75361,"SoundDuration":75361,"Delta":305783022},{"NoteNumber":96,"Velocity":42,"Duration":78091,"SoundDuration":78091,"Delta":305858384},{"NoteNumber":94,"Velocity":47,"Duration":74932,"SoundDuration":74932,"Delta":305936476},{"NoteNumber":96,"Velocity":41,"Duration":75084,"SoundDuration":75084,"Delta":306013121},{"NoteNumber":94,"Velocity":47,"Duration":77481,"SoundDuration":77481,"Delta":306088205},{"NoteNumber":96,"Velocity":41,"Duration":76142,"SoundDuration":76142,"Delta":306165687},{"NoteNumber":94,"Velocity":47,"Duration":75971,"SoundDuration":75971,"Delta":306241829},{"NoteNumber":96,"Velocity":42,"Duration":75971,"SoundDuration":75971,"Delta":306317800},{"NoteNumber":90,"Velocity":56,"Duration":203552,"SoundDuration":203552,"Delta":306410896},{"NoteNumber":63,"Velocity":48,"Duration":407886,"SoundDuration":407886,"Delta":306410896},{"NoteNumber":70,"Velocity":48,"Duration":407886,"SoundDuration":407886,"Delta":306410896},{"NoteNumber":78,"Velocity":50,"Duration":203552,"SoundDuration":203552,"Delta":306410896},{"NoteNumber":94,"Velocity":47,"Duration":71936,"SoundDuration":71936,"Delta":306410896},{"NoteNumber":96,"Velocity":41,"Duration":73724,"SoundDuration":73724,"Delta":306482832},{"NoteNumber":94,"Velocity":47,"Duration":72922,"SoundDuration":72922,"Delta":306558305},{"NoteNumber":96,"Velocity":41,"Duration":72922,"SoundDuration":72922,"Delta":306631227},{"NoteNumber":94,"Velocity":47,"Duration":74496,"SoundDuration":74496,"Delta":306704150},{"NoteNumber":96,"Velocity":42,"Duration":71696,"SoundDuration":71696,"Delta":306778646},{"NoteNumber":90,"Velocity":60,"Duration":822279,"SoundDuration":822279,"Delta":306818782},{"NoteNumber":78,"Velocity":54,"Duration":822279,"SoundDuration":822279,"Delta":306818782},{"NoteNumber":94,"Velocity":47,"Duration":72474,"SoundDuration":72474,"Delta":306850343},{"NoteNumber":96,"Velocity":40,"Duration":76426,"SoundDuration":76426,"Delta":306924584},{"NoteNumber":94,"Velocity":47,"Duration":74705,"SoundDuration":74705,"Delta":307001010},{"NoteNumber":96,"Velocity":41,"Duration":73076,"SoundDuration":73076,"Delta":307075716},{"NoteNumber":94,"Velocity":47,"Duration":74816,"SoundDuration":74816,"Delta":307148792},{"NoteNumber":96,"Velocity":41,"Duration":71448,"SoundDuration":71448,"Delta":307223608},{"NoteNumber":94,"Velocity":47,"Duration":72724,"SoundDuration":72724,"Delta":307296702},{"NoteNumber":96,"Velocity":41,"Duration":73984,"SoundDuration":73984,"Delta":307369426},{"NoteNumber":94,"Velocity":47,"Duration":73083,"SoundDuration":73083,"Delta":307443410},{"NoteNumber":96,"Velocity":42,"Duration":74394,"SoundDuration":74394,"Delta":307516494},{"NoteNumber":94,"Velocity":47,"Duration":79218,"SoundDuration":79218,"Delta":307590889},{"NoteNumber":75,"Velocity":53,"Duration":495628,"SoundDuration":495628,"Delta":307641062},{"NoteNumber":78,"Velocity":53,"Duration":495628,"SoundDuration":495628,"Delta":307641062},{"NoteNumber":96,"Velocity":41,"Duration":89211,"SoundDuration":89211,"Delta":307672182},{"NoteNumber":93,"Velocity":54,"Duration":93361,"SoundDuration":93361,"Delta":307765543},{"NoteNumber":94,"Velocity":56,"Duration":93361,"SoundDuration":93361,"Delta":307858904},{"NoteNumber":95,"Velocity":58,"Duration":93361,"SoundDuration":93361,"Delta":307952265},{"NoteNumber":96,"Velocity":60,"Duration":91064,"SoundDuration":91064,"Delta":308045626},{"NoteNumber":82,"Velocity":61,"Duration":440409,"SoundDuration":440409,"Delta":308136691},{"NoteNumber":85,"Velocity":61,"Duration":440409,"SoundDuration":440409,"Delta":308136691},{"NoteNumber":97,"Velocity":70,"Duration":77605,"SoundDuration":77605,"Delta":308136691},{"NoteNumber":99,"Velocity":41,"Duration":80430,"SoundDuration":80430,"Delta":308214296},{"NoteNumber":97,"Velocity":47,"Duration":77447,"SoundDuration":77447,"Delta":308296551},{"NoteNumber":99,"Velocity":41,"Duration":78048,"SoundDuration":78048,"Delta":308373999},{"NoteNumber":97,"Velocity":47,"Duration":80973,"SoundDuration":80973,"Delta":308452048},{"NoteNumber":99,"Velocity":42,"Duration":78749,"SoundDuration":78749,"Delta":308533021},{"NoteNumber":82,"Velocity":53,"Duration":436737,"SoundDuration":436737,"Delta":308577100},{"NoteNumber":85,"Velocity":53,"Duration":436737,"SoundDuration":436737,"Delta":308577100},{"NoteNumber":97,"Velocity":66,"Duration":78467,"SoundDuration":78467,"Delta":308611771},{"NoteNumber":99,"Velocity":40,"Duration":79284,"SoundDuration":79284,"Delta":308692063},{"NoteNumber":97,"Velocity":47,"Duration":80161,"SoundDuration":80161,"Delta":308771347},{"NoteNumber":99,"Velocity":41,"Duration":77135,"SoundDuration":77135,"Delta":308851509},{"NoteNumber":97,"Velocity":47,"Duration":76167,"SoundDuration":76167,"Delta":308928644},{"NoteNumber":99,"Velocity":41,"Duration":79816,"SoundDuration":79816,"Delta":309004812},{"NoteNumber":96,"Velocity":64,"Duration":660414,"SoundDuration":660414,"Delta":309013837},{"NoteNumber":80,"Velocity":60,"Duration":660414,"SoundDuration":660414,"Delta":309013837},{"NoteNumber":84,"Velocity":60,"Duration":660414,"SoundDuration":660414,"Delta":309013837},{"NoteNumber":97,"Velocity":47,"Duration":78139,"SoundDuration":78139,"Delta":309086473},{"NoteNumber":99,"Velocity":41,"Duration":77135,"SoundDuration":77135,"Delta":309164613},{"NoteNumber":97,"Velocity":47,"Duration":80622,"SoundDuration":80622,"Delta":309241748},{"NoteNumber":99,"Velocity":42,"Duration":78455,"SoundDuration":78455,"Delta":309322370},{"NoteNumber":97,"Velocity":47,"Duration":77854,"SoundDuration":77854,"Delta":309400825},{"NoteNumber":99,"Velocity":41,"Duration":79335,"SoundDuration":79335,"Delta":309480525},{"NoteNumber":97,"Velocity":47,"Duration":79335,"SoundDuration":79335,"Delta":309559861},{"NoteNumber":99,"Velocity":41,"Duration":88152,"SoundDuration":88152,"Delta":309639197},{"NoteNumber":94,"Velocity":55,"Duration":262019,"SoundDuration":262019,"Delta":309674252},{"NoteNumber":78,"Velocity":48,"Duration":262019,"SoundDuration":262019,"Delta":309674252},{"NoteNumber":82,"Velocity":57,"Duration":262019,"SoundDuration":262019,"Delta":309674252},{"NoteNumber":97,"Velocity":47,"Duration":95132,"SoundDuration":95132,"Delta":309727349},{"NoteNumber":99,"Velocity":42,"Duration":95132,"SoundDuration":95132,"Delta":309822482},{"NoteNumber":92,"Velocity":65,"Duration":892569,"SoundDuration":892569,"Delta":309936272},{"NoteNumber":77,"Velocity":56,"Duration":221889,"SoundDuration":221889,"Delta":309936272},{"NoteNumber":80,"Velocity":65,"Duration":221889,"SoundDuration":221889,"Delta":309936272},{"NoteNumber":97,"Velocity":47,"Duration":79523,"SoundDuration":79523,"Delta":309936272},{"NoteNumber":99,"Velocity":41,"Duration":77992,"SoundDuration":77992,"Delta":310015795},{"NoteNumber":97,"Velocity":47,"Duration":81418,"SoundDuration":81418,"Delta":310095654},{"NoteNumber":99,"Velocity":41,"Duration":77837,"SoundDuration":77837,"Delta":310177072},{"NoteNumber":97,"Velocity":47,"Duration":80718,"SoundDuration":80718,"Delta":310254909},{"NoteNumber":99,"Velocity":42,"Duration":82061,"SoundDuration":82061,"Delta":310335628},{"NoteNumber":68,"Velocity":56,"Duration":902400,"SoundDuration":902400,"Delta":310381430},{"NoteNumber":77,"Velocity":56,"Duration":902400,"SoundDuration":902400,"Delta":310381430},{"NoteNumber":80,"Velocity":56,"Duration":902400,"SoundDuration":902400,"Delta":310381430},{"NoteNumber":97,"Velocity":47,"Duration":79321,"SoundDuration":79321,"Delta":310417689},{"NoteNumber":99,"Velocity":40,"Duration":79309,"SoundDuration":79309,"Delta":310498816},{"NoteNumber":97,"Velocity":47,"Duration":80540,"SoundDuration":80540,"Delta":310578125},{"NoteNumber":99,"Velocity":41,"Duration":80258,"SoundDuration":80258,"Delta":310658666},{"NoteNumber":97,"Velocity":47,"Duration":80263,"SoundDuration":80263,"Delta":310738925},{"NoteNumber":99,"Velocity":41,"Duration":81455,"SoundDuration":81455,"Delta":310819188},{"NoteNumber":97,"Velocity":47,"Duration":80223,"SoundDuration":80223,"Delta":310902510},{"NoteNumber":99,"Velocity":41,"Duration":81630,"SoundDuration":81630,"Delta":310982733},{"NoteNumber":97,"Velocity":47,"Duration":82061,"SoundDuration":82061,"Delta":311064364},{"NoteNumber":99,"Velocity":42,"Duration":82061,"SoundDuration":82061,"Delta":311146426},{"NoteNumber":97,"Velocity":47,"Duration":73546,"SoundDuration":73546,"Delta":311228487},{"NoteNumber":96,"Velocity":45,"Duration":102461,"SoundDuration":102461,"Delta":311283830},{"NoteNumber":77,"Velocity":50,"Duration":245004,"SoundDuration":245004,"Delta":311283830},{"NoteNumber":81,"Velocity":50,"Duration":245004,"SoundDuration":245004,"Delta":311283830},{"NoteNumber":99,"Velocity":41,"Duration":46273,"SoundDuration":46273,"Delta":311302033},{"NoteNumber":97,"Velocity":48,"Duration":99439,"SoundDuration":99439,"Delta":311386292},{"NoteNumber":98,"Velocity":51,"Duration":98522,"SoundDuration":98522,"Delta":311485731},{"NoteNumber":68,"Velocity":45,"Duration":256760,"SoundDuration":256760,"Delta":311528834},{"NoteNumber":72,"Velocity":49,"Duration":238288,"SoundDuration":238288,"Delta":311547307},{"NoteNumber":78,"Velocity":53,"Duration":219815,"SoundDuration":219815,"Delta":311565780},{"NoteNumber":101,"Velocity":54,"Duration":87248,"SoundDuration":87248,"Delta":311584253},{"NoteNumber":82,"Velocity":58,"Duration":201342,"SoundDuration":201342,"Delta":311584253},{"NoteNumber":99,"Velocity":48,"Duration":85570,"SoundDuration":85570,"Delta":311671501},{"NoteNumber":97,"Velocity":47,"Duration":87248,"SoundDuration":87248,"Delta":311757072},{"NoteNumber":96,"Velocity":46,"Duration":87248,"SoundDuration":87248,"Delta":311844320},{"NoteNumber":94,"Velocity":45,"Duration":85621,"SoundDuration":85621,"Delta":311931568},{"NoteNumber":92,"Velocity":45,"Duration":88135,"SoundDuration":88135,"Delta":312017190},{"NoteNumber":90,"Velocity":44,"Duration":86440,"SoundDuration":86440,"Delta":312105326},{"NoteNumber":89,"Velocity":43,"Duration":88135,"SoundDuration":88135,"Delta":312191766},{"NoteNumber":87,"Velocity":42,"Duration":88135,"SoundDuration":88135,"Delta":312279902},{"NoteNumber":85,"Velocity":42,"Duration":86440,"SoundDuration":86440,"Delta":312368037},{"NoteNumber":84,"Velocity":41,"Duration":87401,"SoundDuration":87401,"Delta":312454478},{"NoteNumber":82,"Velocity":40,"Duration":85570,"SoundDuration":85570,"Delta":312541880},{"NoteNumber":80,"Velocity":39,"Duration":87248,"SoundDuration":87248,"Delta":312627450},{"NoteNumber":78,"Velocity":39,"Duration":87248,"SoundDuration":87248,"Delta":312714699},{"NoteNumber":77,"Velocity":38,"Duration":85570,"SoundDuration":85570,"Delta":312801947},{"NoteNumber":75,"Velocity":37,"Duration":86729,"SoundDuration":86729,"Delta":312887517},{"NoteNumber":73,"Velocity":36,"Duration":84717,"SoundDuration":84717,"Delta":312974247},{"NoteNumber":72,"Velocity":36,"Duration":86378,"SoundDuration":86378,"Delta":313058965},{"NoteNumber":70,"Velocity":35,"Duration":86378,"SoundDuration":86378,"Delta":313145344},{"NoteNumber":68,"Velocity":34,"Duration":84717,"SoundDuration":84717,"Delta":313231722},{"NoteNumber":66,"Velocity":33,"Duration":86378,"SoundDuration":86378,"Delta":313316440},{"NoteNumber":65,"Velocity":33,"Duration":84061,"SoundDuration":84061,"Delta":313402819},{"NoteNumber":63,"Velocity":32,"Duration":85526,"SoundDuration":85526,"Delta":313486881},{"NoteNumber":61,"Velocity":31,"Duration":85526,"SoundDuration":85526,"Delta":313572407},{"NoteNumber":60,"Velocity":30,"Duration":83881,"SoundDuration":83881,"Delta":313657933},{"NoteNumber":58,"Velocity":34,"Duration":85526,"SoundDuration":85526,"Delta":313741815},{"NoteNumber":56,"Velocity":35,"Duration":83431,"SoundDuration":83431,"Delta":313827341},{"NoteNumber":54,"Velocity":35,"Duration":84690,"SoundDuration":84690,"Delta":313910773},{"NoteNumber":53,"Velocity":35,"Duration":84690,"SoundDuration":84690,"Delta":313995463},{"NoteNumber":51,"Velocity":35,"Duration":83061,"SoundDuration":83061,"Delta":314080154},{"NoteNumber":49,"Velocity":35,"Duration":84690,"SoundDuration":84690,"Delta":314163216},{"NoteNumber":48,"Velocity":35,"Duration":82809,"SoundDuration":82809,"Delta":314247906},{"NoteNumber":46,"Velocity":35,"Duration":83871,"SoundDuration":83871,"Delta":314330716},{"NoteNumber":44,"Velocity":35,"Duration":83871,"SoundDuration":83871,"Delta":314414587},{"NoteNumber":42,"Velocity":35,"Duration":82258,"SoundDuration":82258,"Delta":314498458},{"NoteNumber":41,"Velocity":35,"Duration":83871,"SoundDuration":83871,"Delta":314580716},{"NoteNumber":39,"Velocity":35,"Duration":100234,"SoundDuration":100234,"Delta":314662974},{"NoteNumber":37,"Velocity":35,"Duration":95619,"SoundDuration":95619,"Delta":314763209},{"NoteNumber":41,"Velocity":35,"Duration":96542,"SoundDuration":96542,"Delta":314858828},{"NoteNumber":44,"Velocity":36,"Duration":97483,"SoundDuration":97483,"Delta":314955371},{"NoteNumber":49,"Velocity":37,"Duration":98443,"SoundDuration":98443,"Delta":315052854},{"NoteNumber":53,"Velocity":38,"Duration":99421,"SoundDuration":99421,"Delta":315151297},{"NoteNumber":56,"Velocity":39,"Duration":100420,"SoundDuration":100420,"Delta":315250719},{"NoteNumber":61,"Velocity":39,"Duration":101438,"SoundDuration":101438,"Delta":315351140},{"NoteNumber":65,"Velocity":40,"Duration":102478,"SoundDuration":102478,"Delta":315452578},{"NoteNumber":68,"Velocity":42,"Duration":103539,"SoundDuration":103539,"Delta":315555057},{"NoteNumber":73,"Velocity":44,"Duration":103806,"SoundDuration":103806,"Delta":315658597},{"NoteNumber":77,"Velocity":46,"Duration":103806,"SoundDuration":103806,"Delta":315762403},{"NoteNumber":80,"Velocity":48,"Duration":103806,"SoundDuration":103806,"Delta":315866209},{"NoteNumber":85,"Velocity":48,"Duration":415225,"SoundDuration":415225,"Delta":315970015},{"NoteNumber":89,"Velocity":50,"Duration":363321,"SoundDuration":363321,"Delta":316021919},{"NoteNumber":92,"Velocity":52,"Duration":311418,"SoundDuration":311418,"Delta":316073822},{"NoteNumber":97,"Velocity":54,"Duration":259515,"SoundDuration":259515,"Delta":316125725},{"NoteNumber":68,"Velocity":50,"Duration":148883,"SoundDuration":148883,"Delta":317779799},{"NoteNumber":77,"Velocity":58,"Duration":465848,"SoundDuration":465848,"Delta":317928682},{"NoteNumber":49,"Velocity":41,"Duration":159574,"SoundDuration":159574,"Delta":317928682},{"NoteNumber":65,"Velocity":40,"Duration":73349,"SoundDuration":73349,"Delta":318247831},{"NoteNumber":68,"Velocity":40,"Duration":73349,"SoundDuration":73349,"Delta":318247831},{"NoteNumber":56,"Velocity":34,"Duration":73349,"SoundDuration":73349,"Delta":318247831},{"NoteNumber":61,"Velocity":34,"Duration":73349,"SoundDuration":73349,"Delta":318247831},{"NoteNumber":75,"Velocity":53,"Duration":159574,"SoundDuration":159574,"Delta":318394530},{"NoteNumber":78,"Velocity":57,"Duration":369540,"SoundDuration":369540,"Delta":318554105},{"NoteNumber":44,"Velocity":42,"Duration":146699,"SoundDuration":146699,"Delta":318554105},{"NoteNumber":66,"Velocity":40,"Duration":76142,"SoundDuration":76142,"Delta":318847503},{"NoteNumber":68,"Velocity":40,"Duration":76142,"SoundDuration":76142,"Delta":318847503},{"NoteNumber":56,"Velocity":34,"Duration":76142,"SoundDuration":76142,"Delta":318847503},{"NoteNumber":63,"Velocity":34,"Duration":76142,"SoundDuration":76142,"Delta":318847503},{"NoteNumber":72,"Velocity":52,"Duration":76142,"SoundDuration":76142,"Delta":318999787},{"NoteNumber":75,"Velocity":59,"Duration":76142,"SoundDuration":76142,"Delta":319075930},{"NoteNumber":73,"Velocity":59,"Duration":79155,"SoundDuration":79155,"Delta":319152072},{"NoteNumber":49,"Velocity":44,"Duration":79155,"SoundDuration":79155,"Delta":319152072},{"NoteNumber":65,"Velocity":40,"Duration":74441,"SoundDuration":74441,"Delta":319468694},{"NoteNumber":68,"Velocity":40,"Duration":74441,"SoundDuration":74441,"Delta":319468694},{"NoteNumber":73,"Velocity":52,"Duration":611902,"SoundDuration":611902,"Delta":319468694},{"NoteNumber":56,"Velocity":34,"Duration":74441,"SoundDuration":74441,"Delta":319468694},{"NoteNumber":61,"Velocity":34,"Duration":74441,"SoundDuration":74441,"Delta":319468694},{"NoteNumber":49,"Velocity":45,"Duration":78533,"SoundDuration":78533,"Delta":319766461},{"NoteNumber":65,"Velocity":40,"Duration":77319,"SoundDuration":77319,"Delta":320080597},{"NoteNumber":68,"Velocity":40,"Duration":77319,"SoundDuration":77319,"Delta":320080597},{"NoteNumber":73,"Velocity":50,"Duration":309278,"SoundDuration":309278,"Delta":320080597},{"NoteNumber":56,"Velocity":34,"Duration":77319,"SoundDuration":77319,"Delta":320080597},{"NoteNumber":61,"Velocity":34,"Duration":77319,"SoundDuration":77319,"Delta":320080597},{"NoteNumber":82,"Velocity":59,"Duration":77319,"SoundDuration":77319,"Delta":320389875},{"NoteNumber":54,"Velocity":47,"Duration":77319,"SoundDuration":77319,"Delta":320389875},{"NoteNumber":70,"Velocity":40,"Duration":77319,"SoundDuration":77319,"Delta":320699154},{"NoteNumber":82,"Velocity":55,"Duration":154639,"SoundDuration":154639,"Delta":320699154},{"NoteNumber":66,"Velocity":40,"Duration":77319,"SoundDuration":77319,"Delta":320699154},{"NoteNumber":66,"Velocity":34,"Duration":77319,"SoundDuration":77319,"Delta":320699154},{"NoteNumber":61,"Velocity":34,"Duration":77319,"SoundDuration":77319,"Delta":320699154},{"NoteNumber":80,"Velocity":60,"Duration":648648,"SoundDuration":648648,"Delta":321008432},{"NoteNumber":53,"Velocity":47,"Duration":81081,"SoundDuration":81081,"Delta":321008432},{"NoteNumber":70,"Velocity":40,"Duration":81081,"SoundDuration":81081,"Delta":321332757},{"NoteNumber":68,"Velocity":40,"Duration":81081,"SoundDuration":81081,"Delta":321332757},{"NoteNumber":65,"Velocity":34,"Duration":81081,"SoundDuration":81081,"Delta":321332757},{"NoteNumber":62,"Velocity":34,"Duration":81081,"SoundDuration":81081,"Delta":321332757},{"NoteNumber":78,"Velocity":56,"Duration":76142,"SoundDuration":76142,"Delta":321657081},{"NoteNumber":51,"Velocity":43,"Duration":152284,"SoundDuration":152284,"Delta":321657081},{"NoteNumber":70,"Velocity":40,"Duration":81081,"SoundDuration":81081,"Delta":321961650},{"NoteNumber":66,"Velocity":40,"Duration":81081,"SoundDuration":81081,"Delta":321961650},{"NoteNumber":78,"Velocity":60,"Duration":648648,"SoundDuration":648648,"Delta":321961650},{"NoteNumber":63,"Velocity":34,"Duration":81081,"SoundDuration":81081,"Delta":321961650},{"NoteNumber":58,"Velocity":34,"Duration":81081,"SoundDuration":81081,"Delta":321961650},{"NoteNumber":51,"Velocity":46,"Duration":162162,"SoundDuration":162162,"Delta":322285974},{"NoteNumber":66,"Velocity":40,"Duration":92307,"SoundDuration":92307,"Delta":322610299},{"NoteNumber":70,"Velocity":40,"Duration":92307,"SoundDuration":92307,"Delta":322610299},{"NoteNumber":78,"Velocity":53,"Duration":369231,"SoundDuration":369231,"Delta":322610299},{"NoteNumber":63,"Velocity":34,"Duration":92307,"SoundDuration":92307,"Delta":322610299},{"NoteNumber":58,"Velocity":34,"Duration":92307,"SoundDuration":92307,"Delta":322610299},{"NoteNumber":85,"Velocity":61,"Duration":174927,"SoundDuration":174927,"Delta":322979530},{"NoteNumber":42,"Velocity":50,"Duration":174927,"SoundDuration":174927,"Delta":322979530},{"NoteNumber":85,"Velocity":60,"Duration":372671,"SoundDuration":372671,"Delta":323329384},{"NoteNumber":73,"Velocity":40,"Duration":372671,"SoundDuration":372671,"Delta":323329384},{"NoteNumber":82,"Velocity":60,"Duration":372671,"SoundDuration":372671,"Delta":323329384},{"NoteNumber":61,"Velocity":33,"Duration":372671,"SoundDuration":372671,"Delta":323329384},{"NoteNumber":70,"Velocity":40,"Duration":372671,"SoundDuration":372671,"Delta":323329384},{"NoteNumber":80,"Velocity":64,"Duration":574013,"SoundDuration":574013,"Delta":323702055},{"NoteNumber":84,"Velocity":64,"Duration":574013,"SoundDuration":574013,"Delta":323702055},{"NoteNumber":72,"Velocity":40,"Duration":574013,"SoundDuration":574013,"Delta":323702055},{"NoteNumber":61,"Velocity":33,"Duration":808243,"SoundDuration":808243,"Delta":323702055},{"NoteNumber":68,"Velocity":40,"Duration":574013,"SoundDuration":574013,"Delta":323702055},{"NoteNumber":82,"Velocity":55,"Duration":140186,"SoundDuration":140186,"Delta":324276068},{"NoteNumber":70,"Velocity":40,"Duration":140186,"SoundDuration":140186,"Delta":324276068},{"NoteNumber":78,"Velocity":55,"Duration":140186,"SoundDuration":140186,"Delta":324276068},{"NoteNumber":66,"Velocity":40,"Duration":234230,"SoundDuration":234230,"Delta":324276068},{"NoteNumber":78,"Velocity":52,"Duration":94043,"SoundDuration":94043,"Delta":324416255},{"NoteNumber":82,"Velocity":52,"Duration":94043,"SoundDuration":94043,"Delta":324416255},{"NoteNumber":77,"Velocity":65,"Duration":88235,"SoundDuration":88235,"Delta":324510299},{"NoteNumber":80,"Velocity":65,"Duration":88235,"SoundDuration":88235,"Delta":324510299},{"NoteNumber":44,"Velocity":50,"Duration":176470,"SoundDuration":176470,"Delta":324510299},{"NoteNumber":80,"Velocity":56,"Duration":795172,"SoundDuration":795172,"Delta":324863240},{"NoteNumber":68,"Velocity":56,"Duration":795172,"SoundDuration":795172,"Delta":324863240},{"NoteNumber":77,"Velocity":56,"Duration":795172,"SoundDuration":795172,"Delta":324863240},{"NoteNumber":65,"Velocity":40,"Duration":184615,"SoundDuration":184615,"Delta":324863240},{"NoteNumber":61,"Velocity":40,"Duration":184615,"SoundDuration":184615,"Delta":324863240},{"NoteNumber":56,"Velocity":40,"Duration":196934,"SoundDuration":196934,"Delta":325232471},{"NoteNumber":81,"Velocity":50,"Duration":114068,"SoundDuration":114068,"Delta":325887420},{"NoteNumber":77,"Velocity":50,"Duration":114068,"SoundDuration":114068,"Delta":325887420},{"NoteNumber":65,"Velocity":46,"Duration":114068,"SoundDuration":114068,"Delta":325887420},{"NoteNumber":69,"Velocity":46,"Duration":114068,"SoundDuration":114068,"Delta":325887420},{"NoteNumber":78,"Velocity":56,"Duration":89820,"SoundDuration":89820,"Delta":326001489},{"NoteNumber":82,"Velocity":56,"Duration":89820,"SoundDuration":89820,"Delta":326001489},{"NoteNumber":66,"Velocity":50,"Duration":89820,"SoundDuration":89820,"Delta":326001489},{"NoteNumber":70,"Velocity":50,"Duration":89820,"SoundDuration":89820,"Delta":326001489},{"NoteNumber":82,"Velocity":56,"Duration":648648,"SoundDuration":648648,"Delta":326360770},{"NoteNumber":78,"Velocity":56,"Duration":648648,"SoundDuration":648648,"Delta":326360770},{"NoteNumber":66,"Velocity":50,"Duration":648648,"SoundDuration":648648,"Delta":326360770},{"NoteNumber":70,"Velocity":50,"Duration":648648,"SoundDuration":648648,"Delta":326360770},{"NoteNumber":66,"Velocity":40,"Duration":359281,"SoundDuration":359281,"Delta":327009419},{"NoteNumber":72,"Velocity":51,"Duration":359281,"SoundDuration":359281,"Delta":327009419},{"NoteNumber":63,"Velocity":47,"Duration":359281,"SoundDuration":359281,"Delta":327009419},{"NoteNumber":56,"Velocity":37,"Duration":359281,"SoundDuration":359281,"Delta":327009419},{"NoteNumber":73,"Velocity":54,"Duration":92307,"SoundDuration":92307,"Delta":327368701},{"NoteNumber":65,"Velocity":43,"Duration":92307,"SoundDuration":92307,"Delta":327368701},{"NoteNumber":61,"Velocity":51,"Duration":92307,"SoundDuration":92307,"Delta":327368701},{"NoteNumber":73,"Velocity":56,"Duration":752617,"SoundDuration":752617,"Delta":327737932},{"NoteNumber":65,"Velocity":44,"Duration":752617,"SoundDuration":752617,"Delta":327737932},{"NoteNumber":61,"Velocity":53,"Duration":752617,"SoundDuration":752617,"Delta":327737932},{"NoteNumber":49,"Velocity":42,"Duration":752617,"SoundDuration":752617,"Delta":327737932},{"NoteNumber":56,"Velocity":42,"Duration":752617,"SoundDuration":752617,"Delta":327737932},{"NoteNumber":80,"Velocity":55,"Duration":147783,"SoundDuration":147783,"Delta":328638332},{"NoteNumber":68,"Velocity":42,"Duration":147783,"SoundDuration":147783,"Delta":328638332},{"NoteNumber":77,"Velocity":49,"Duration":458387,"SoundDuration":458387,"Delta":328786116},{"NoteNumber":89,"Velocity":63,"Duration":458387,"SoundDuration":458387,"Delta":328786116},{"NoteNumber":49,"Velocity":47,"Duration":155844,"SoundDuration":155844,"Delta":328786116},{"NoteNumber":37,"Velocity":37,"Duration":155844,"SoundDuration":155844,"Delta":328786116},{"NoteNumber":61,"Velocity":34,"Duration":73349,"SoundDuration":73349,"Delta":329097804},{"NoteNumber":65,"Velocity":34,"Duration":73349,"SoundDuration":73349,"Delta":329097804},{"NoteNumber":68,"Velocity":34,"Duration":73349,"SoundDuration":73349,"Delta":329097804},{"NoteNumber":87,"Velocity":58,"Duration":159574,"SoundDuration":159574,"Delta":329244503},{"NoteNumber":75,"Velocity":45,"Duration":159574,"SoundDuration":159574,"Delta":329244503},{"NoteNumber":78,"Velocity":48,"Duration":445682,"SoundDuration":445682,"Delta":329404078},{"NoteNumber":90,"Velocity":62,"Duration":445682,"SoundDuration":445682,"Delta":329404078},{"NoteNumber":56,"Velocity":47,"Duration":146699,"SoundDuration":146699,"Delta":329404078},{"NoteNumber":44,"Velocity":37,"Duration":146699,"SoundDuration":146699,"Delta":329404078},{"NoteNumber":63,"Velocity":34,"Duration":76142,"SoundDuration":76142,"Delta":329697476},{"NoteNumber":66,"Velocity":34,"Duration":76142,"SoundDuration":76142,"Delta":329697476},{"NoteNumber":68,"Velocity":34,"Duration":76142,"SoundDuration":76142,"Delta":329697476},{"NoteNumber":72,"Velocity":44,"Duration":152284,"SoundDuration":152284,"Delta":329849761},{"NoteNumber":84,"Velocity":57,"Duration":152284,"SoundDuration":152284,"Delta":329849761},{"NoteNumber":87,"Velocity":64,"Duration":79155,"SoundDuration":79155,"Delta":330002045},{"NoteNumber":75,"Velocity":50,"Duration":79155,"SoundDuration":79155,"Delta":330002045},{"NoteNumber":49,"Velocity":45,"Duration":79155,"SoundDuration":79155,"Delta":330002045},{"NoteNumber":37,"Velocity":36,"Duration":79155,"SoundDuration":79155,"Delta":330002045},{"NoteNumber":73,"Velocity":44,"Duration":611902,"SoundDuration":611902,"Delta":330318667},{"NoteNumber":85,"Velocity":57,"Duration":611902,"SoundDuration":611902,"Delta":330318667},{"NoteNumber":61,"Velocity":34,"Duration":74441,"SoundDuration":74441,"Delta":330318667},{"NoteNumber":65,"Velocity":34,"Duration":74441,"SoundDuration":74441,"Delta":330318667},{"NoteNumber":68,"Velocity":34,"Duration":74441,"SoundDuration":74441,"Delta":330318667},{"NoteNumber":56,"Velocity":46,"Duration":78533,"SoundDuration":78533,"Delta":330616434},{"NoteNumber":44,"Velocity":36,"Duration":78533,"SoundDuration":78533,"Delta":330616434},{"NoteNumber":73,"Velocity":42,"Duration":309278,"SoundDuration":309278,"Delta":330930570},{"NoteNumber":85,"Velocity":55,"Duration":309278,"SoundDuration":309278,"Delta":330930570},{"NoteNumber":65,"Velocity":34,"Duration":77319,"SoundDuration":77319,"Delta":330930570},{"NoteNumber":61,"Velocity":34,"Duration":77319,"SoundDuration":77319,"Delta":330930570},{"NoteNumber":68,"Velocity":34,"Duration":77319,"SoundDuration":77319,"Delta":330930570},{"NoteNumber":82,"Velocity":55,"Duration":77319,"SoundDuration":77319,"Delta":331239848},{"NoteNumber":94,"Velocity":64,"Duration":77319,"SoundDuration":77319,"Delta":331239848},{"NoteNumber":54,"Velocity":43,"Duration":77319,"SoundDuration":77319,"Delta":331239848},{"NoteNumber":42,"Velocity":34,"Duration":77319,"SoundDuration":77319,"Delta":331239848},{"NoteNumber":82,"Velocity":50,"Duration":154639,"SoundDuration":154639,"Delta":331549127},{"NoteNumber":94,"Velocity":60,"Duration":154639,"SoundDuration":154639,"Delta":331549127},{"NoteNumber":61,"Velocity":34,"Duration":77319,"SoundDuration":77319,"Delta":331549127},{"NoteNumber":70,"Velocity":34,"Duration":77319,"SoundDuration":77319,"Delta":331549127},{"NoteNumber":66,"Velocity":34,"Duration":77319,"SoundDuration":77319,"Delta":331549127},{"NoteNumber":92,"Velocity":66,"Duration":648648,"SoundDuration":648648,"Delta":331858405},{"NoteNumber":80,"Velocity":51,"Duration":648648,"SoundDuration":648648,"Delta":331858405},{"NoteNumber":53,"Velocity":44,"Duration":81081,"SoundDuration":81081,"Delta":331858405},{"NoteNumber":41,"Velocity":35,"Duration":81081,"SoundDuration":81081,"Delta":331858405},{"NoteNumber":58,"Velocity":34,"Duration":81081,"SoundDuration":81081,"Delta":332182730},{"NoteNumber":68,"Velocity":34,"Duration":81081,"SoundDuration":81081,"Delta":332182730},{"NoteNumber":62,"Velocity":34,"Duration":81081,"SoundDuration":81081,"Delta":332182730},{"NoteNumber":78,"Velocity":47,"Duration":76142,"SoundDuration":76142,"Delta":332507054},{"NoteNumber":90,"Velocity":61,"Duration":76142,"SoundDuration":76142,"Delta":332507054},{"NoteNumber":51,"Velocity":50,"Duration":152284,"SoundDuration":152284,"Delta":332507054},{"NoteNumber":39,"Velocity":40,"Duration":152284,"SoundDuration":152284,"Delta":332507054},{"NoteNumber":90,"Velocity":66,"Duration":648648,"SoundDuration":648648,"Delta":332811623},{"NoteNumber":82,"Velocity":60,"Duration":648648,"SoundDuration":648648,"Delta":332811623},{"NoteNumber":78,"Velocity":51,"Duration":648648,"SoundDuration":648648,"Delta":332811623},{"NoteNumber":66,"Velocity":34,"Duration":81081,"SoundDuration":81081,"Delta":332811623},{"NoteNumber":63,"Velocity":34,"Duration":81081,"SoundDuration":81081,"Delta":332811623},{"NoteNumber":58,"Velocity":47,"Duration":162162,"SoundDuration":162162,"Delta":333135947},{"NoteNumber":46,"Velocity":37,"Duration":162162,"SoundDuration":162162,"Delta":333135947},{"NoteNumber":87,"Velocity":45,"Duration":369231,"SoundDuration":369231,"Delta":333460272},{"NoteNumber":78,"Velocity":45,"Duration":369231,"SoundDuration":369231,"Delta":333460272},{"NoteNumber":90,"Velocity":58,"Duration":369231,"SoundDuration":369231,"Delta":333460272},{"NoteNumber":66,"Velocity":34,"Duration":92307,"SoundDuration":92307,"Delta":333460272},{"NoteNumber":63,"Velocity":34,"Duration":92307,"SoundDuration":92307,"Delta":333460272},{"NoteNumber":97,"Velocity":67,"Duration":349853,"SoundDuration":349853,"Delta":333829503},{"NoteNumber":94,"Velocity":61,"Duration":349853,"SoundDuration":349853,"Delta":333829503},{"NoteNumber":85,"Velocity":61,"Duration":349853,"SoundDuration":349853,"Delta":333829503},{"NoteNumber":54,"Velocity":48,"Duration":349853,"SoundDuration":349853,"Delta":333829503},{"NoteNumber":42,"Velocity":38,"Duration":349853,"SoundDuration":349853,"Delta":333829503},{"NoteNumber":94,"Velocity":60,"Duration":372671,"SoundDuration":372671,"Delta":334179357},{"NoteNumber":97,"Velocity":66,"Duration":372671,"SoundDuration":372671,"Delta":334179357},{"NoteNumber":85,"Velocity":40,"Duration":372671,"SoundDuration":372671,"Delta":334179357},{"NoteNumber":73,"Velocity":40,"Duration":372671,"SoundDuration":372671,"Delta":334179357},{"NoteNumber":61,"Velocity":34,"Duration":372671,"SoundDuration":372671,"Delta":334179357},{"NoteNumber":70,"Velocity":34,"Duration":372671,"SoundDuration":372671,"Delta":334179357},{"NoteNumber":84,"Velocity":40,"Duration":574013,"SoundDuration":574013,"Delta":334552028},{"NoteNumber":92,"Velocity":64,"Duration":574013,"SoundDuration":574013,"Delta":334552028},{"NoteNumber":96,"Velocity":70,"Duration":574013,"SoundDuration":574013,"Delta":334552028},{"NoteNumber":72,"Velocity":40,"Duration":574013,"SoundDuration":574013,"Delta":334552028},{"NoteNumber":61,"Velocity":34,"Duration":808243,"SoundDuration":808243,"Delta":334552028},{"NoteNumber":68,"Velocity":34,"Duration":574013,"SoundDuration":574013,"Delta":334552028},{"NoteNumber":94,"Velocity":60,"Duration":140186,"SoundDuration":140186,"Delta":335126041},{"NoteNumber":82,"Velocity":40,"Duration":140186,"SoundDuration":140186,"Delta":335126041},{"NoteNumber":90,"Velocity":55,"Duration":140186,"SoundDuration":140186,"Delta":335126041},{"NoteNumber":70,"Velocity":40,"Duration":234230,"SoundDuration":234230,"Delta":335126041},{"NoteNumber":66,"Velocity":34,"Duration":234230,"SoundDuration":234230,"Delta":335126041},{"NoteNumber":89,"Velocity":65,"Duration":92307,"SoundDuration":92307,"Delta":335360272},{"NoteNumber":80,"Velocity":55,"Duration":92307,"SoundDuration":92307,"Delta":335360272},{"NoteNumber":92,"Velocity":71,"Duration":92307,"SoundDuration":92307,"Delta":335360272},{"NoteNumber":44,"Velocity":55,"Duration":92307,"SoundDuration":92307,"Delta":335360272},{"NoteNumber":92,"Velocity":61,"Duration":795172,"SoundDuration":795172,"Delta":335729503},{"NoteNumber":89,"Velocity":56,"Duration":795172,"SoundDuration":795172,"Delta":335729503},{"NoteNumber":80,"Velocity":47,"Duration":795172,"SoundDuration":795172,"Delta":335729503},{"NoteNumber":65,"Velocity":40,"Duration":184615,"SoundDuration":184615,"Delta":335729503},{"NoteNumber":68,"Velocity":40,"Duration":184615,"SoundDuration":184615,"Delta":335729503},{"NoteNumber":61,"Velocity":40,"Duration":184615,"SoundDuration":184615,"Delta":335729503},{"NoteNumber":56,"Velocity":40,"Duration":196934,"SoundDuration":196934,"Delta":336098734},{"NoteNumber":81,"Velocity":42,"Duration":116054,"SoundDuration":116054,"Delta":336753683},{"NoteNumber":93,"Velocity":55,"Duration":116054,"SoundDuration":116054,"Delta":336753683},{"NoteNumber":65,"Velocity":46,"Duration":116054,"SoundDuration":116054,"Delta":336753683},{"NoteNumber":77,"Velocity":46,"Duration":116054,"SoundDuration":116054,"Delta":336753683},{"NoteNumber":82,"Velocity":47,"Duration":106007,"SoundDuration":106007,"Delta":336869738},{"NoteNumber":94,"Velocity":61,"Duration":106007,"SoundDuration":106007,"Delta":336869738},{"NoteNumber":66,"Velocity":50,"Duration":106007,"SoundDuration":106007,"Delta":336869738},{"NoteNumber":78,"Velocity":50,"Duration":106007,"SoundDuration":106007,"Delta":336869738},{"NoteNumber":72,"Velocity":51,"Duration":687679,"SoundDuration":687679,"Delta":337717795},{"NoteNumber":66,"Velocity":40,"Duration":687679,"SoundDuration":687679,"Delta":337717795},{"NoteNumber":60,"Velocity":40,"Duration":687679,"SoundDuration":687679,"Delta":337717795},{"NoteNumber":44,"Velocity":37,"Duration":687679,"SoundDuration":687679,"Delta":337717795},{"NoteNumber":56,"Velocity":47,"Duration":687679,"SoundDuration":687679,"Delta":337717795},{"NoteNumber":51,"Velocity":37,"Duration":687679,"SoundDuration":687679,"Delta":337717795},{"NoteNumber":65,"Velocity":43,"Duration":89820,"SoundDuration":89820,"Delta":338405474},{"NoteNumber":61,"Velocity":43,"Duration":89820,"SoundDuration":89820,"Delta":338405474},{"NoteNumber":73,"Velocity":54,"Duration":89820,"SoundDuration":89820,"Delta":338405474},{"NoteNumber":49,"Velocity":45,"Duration":89820,"SoundDuration":89820,"Delta":338405474},{"NoteNumber":56,"Velocity":51,"Duration":89820,"SoundDuration":89820,"Delta":338405474},{"NoteNumber":65,"Velocity":44,"Duration":907716,"SoundDuration":907716,"Delta":338764755},{"NoteNumber":61,"Velocity":44,"Duration":907716,"SoundDuration":907716,"Delta":338764755},{"NoteNumber":73,"Velocity":56,"Duration":907716,"SoundDuration":907716,"Delta":338764755},{"NoteNumber":56,"Velocity":53,"Duration":907716,"SoundDuration":907716,"Delta":338764755},{"NoteNumber":49,"Velocity":42,"Duration":907716,"SoundDuration":907716,"Delta":338764755},{"NoteNumber":89,"Velocity":40,"Duration":151183,"SoundDuration":151183,"Delta":339672471},{"NoteNumber":85,"Velocity":40,"Duration":151183,"SoundDuration":151183,"Delta":339672471},{"NoteNumber":90,"Velocity":45,"Duration":147032,"SoundDuration":147032,"Delta":339823654},{"NoteNumber":87,"Velocity":45,"Duration":147032,"SoundDuration":147032,"Delta":339823654},{"NoteNumber":88,"Velocity":51,"Duration":143061,"SoundDuration":143061,"Delta":339970687},{"NoteNumber":91,"Velocity":51,"Duration":143061,"SoundDuration":143061,"Delta":339970687},{"NoteNumber":94,"Velocity":57,"Duration":129589,"SoundDuration":129589,"Delta":340113749},{"NoteNumber":90,"Velocity":57,"Duration":129589,"SoundDuration":129589,"Delta":340113749},{"NoteNumber":89,"Velocity":47,"Duration":123006,"SoundDuration":123006,"Delta":340243338},{"NoteNumber":92,"Velocity":47,"Duration":123006,"SoundDuration":123006,"Delta":340243338},{"NoteNumber":92,"Velocity":47,"Duration":136674,"SoundDuration":136674,"Delta":340380013},{"NoteNumber":89,"Velocity":47,"Duration":136674,"SoundDuration":136674,"Delta":340380013},{"NoteNumber":61,"Velocity":38,"Duration":102505,"SoundDuration":102505,"Delta":340380013},{"NoteNumber":91,"Velocity":47,"Duration":130120,"SoundDuration":130120,"Delta":340516687},{"NoteNumber":88,"Velocity":47,"Duration":130120,"SoundDuration":130120,"Delta":340516687},{"NoteNumber":77,"Velocity":34,"Duration":108433,"SoundDuration":108433,"Delta":340516687},{"NoteNumber":90,"Velocity":53,"Duration":126315,"SoundDuration":126315,"Delta":340661265},{"NoteNumber":94,"Velocity":53,"Duration":126315,"SoundDuration":126315,"Delta":340661265},{"NoteNumber":68,"Velocity":39,"Duration":94736,"SoundDuration":94736,"Delta":340661265},{"NoteNumber":89,"Velocity":46,"Duration":118942,"SoundDuration":118942,"Delta":340787581},{"NoteNumber":92,"Velocity":46,"Duration":118942,"SoundDuration":118942,"Delta":340787581},{"NoteNumber":77,"Velocity":36,"Duration":99118,"SoundDuration":99118,"Delta":340787581},{"NoteNumber":92,"Velocity":47,"Duration":132158,"SoundDuration":132158,"Delta":340919739},{"NoteNumber":89,"Velocity":47,"Duration":132158,"SoundDuration":132158,"Delta":340919739},{"NoteNumber":73,"Velocity":40,"Duration":99118,"SoundDuration":99118,"Delta":340919739},{"NoteNumber":91,"Velocity":49,"Duration":128265,"SoundDuration":128265,"Delta":341051898},{"NoteNumber":88,"Velocity":49,"Duration":128265,"SoundDuration":128265,"Delta":341051898},{"NoteNumber":77,"Velocity":37,"Duration":106888,"SoundDuration":106888,"Delta":341051898},{"NoteNumber":90,"Velocity":58,"Duration":122449,"SoundDuration":122449,"Delta":341194416},{"NoteNumber":94,"Velocity":58,"Duration":122449,"SoundDuration":122449,"Delta":341194416},{"NoteNumber":68,"Velocity":42,"Duration":91836,"SoundDuration":91836,"Delta":341194416},{"NoteNumber":92,"Velocity":50,"Duration":115879,"SoundDuration":115879,"Delta":341316865},{"NoteNumber":89,"Velocity":50,"Duration":115879,"SoundDuration":115879,"Delta":341316865},{"NoteNumber":77,"Velocity":38,"Duration":96566,"SoundDuration":96566,"Delta":341316865},{"NoteNumber":92,"Velocity":50,"Duration":128755,"SoundDuration":128755,"Delta":341445620},{"NoteNumber":89,"Velocity":50,"Duration":128755,"SoundDuration":128755,"Delta":341445620},{"NoteNumber":61,"Velocity":44,"Duration":96566,"SoundDuration":96566,"Delta":341445620},{"NoteNumber":91,"Velocity":50,"Duration":123853,"SoundDuration":123853,"Delta":341574375},{"NoteNumber":88,"Velocity":50,"Duration":123853,"SoundDuration":123853,"Delta":341574375},{"NoteNumber":77,"Velocity":40,"Duration":103211,"SoundDuration":103211,"Delta":341574375},{"NoteNumber":90,"Velocity":60,"Duration":118811,"SoundDuration":118811,"Delta":341711990},{"NoteNumber":94,"Velocity":60,"Duration":118811,"SoundDuration":118811,"Delta":341711990},{"NoteNumber":68,"Velocity":46,"Duration":89109,"SoundDuration":89109,"Delta":341711990},{"NoteNumber":89,"Velocity":53,"Duration":112265,"SoundDuration":112265,"Delta":341830802},{"NoteNumber":92,"Velocity":53,"Duration":112265,"SoundDuration":112265,"Delta":341830802},{"NoteNumber":77,"Velocity":42,"Duration":93554,"SoundDuration":93554,"Delta":341830802},{"NoteNumber":89,"Velocity":54,"Duration":124740,"SoundDuration":124740,"Delta":341955542},{"NoteNumber":92,"Velocity":54,"Duration":124740,"SoundDuration":124740,"Delta":341955542},{"NoteNumber":73,"Velocity":47,"Duration":93555,"SoundDuration":93555,"Delta":341955542},{"NoteNumber":91,"Velocity":56,"Duration":120535,"SoundDuration":120535,"Delta":342080282},{"NoteNumber":88,"Velocity":56,"Duration":120535,"SoundDuration":120535,"Delta":342080282},{"NoteNumber":77,"Velocity":45,"Duration":100446,"SoundDuration":100446,"Delta":342080282},{"NoteNumber":90,"Velocity":65,"Duration":117416,"SoundDuration":117416,"Delta":342214210},{"NoteNumber":94,"Velocity":65,"Duration":117416,"SoundDuration":117416,"Delta":342214210},{"NoteNumber":68,"Velocity":48,"Duration":88062,"SoundDuration":88062,"Delta":342214210},{"NoteNumber":92,"Velocity":57,"Duration":112970,"SoundDuration":112970,"Delta":342331627},{"NoteNumber":89,"Velocity":57,"Duration":112970,"SoundDuration":112970,"Delta":342331627},{"NoteNumber":77,"Velocity":42,"Duration":94142,"SoundDuration":94142,"Delta":342331627},{"NoteNumber":92,"Velocity":57,"Duration":125522,"SoundDuration":125522,"Delta":342457150},{"NoteNumber":89,"Velocity":57,"Duration":125522,"SoundDuration":125522,"Delta":342457150},{"NoteNumber":61,"Velocity":50,"Duration":94142,"SoundDuration":94142,"Delta":342457150},{"NoteNumber":88,"Velocity":57,"Duration":122171,"SoundDuration":122171,"Delta":342582673},{"NoteNumber":91,"Velocity":57,"Duration":122171,"SoundDuration":122171,"Delta":342582673},{"NoteNumber":77,"Velocity":46,"Duration":101809,"SoundDuration":101809,"Delta":342582673},{"NoteNumber":90,"Velocity":66,"Duration":116731,"SoundDuration":116731,"Delta":342718420},{"NoteNumber":94,"Velocity":66,"Duration":116731,"SoundDuration":116731,"Delta":342718420},{"NoteNumber":68,"Velocity":52,"Duration":87548,"SoundDuration":87548,"Delta":342718420},{"NoteNumber":89,"Velocity":60,"Duration":115879,"SoundDuration":115879,"Delta":342835151},{"NoteNumber":92,"Velocity":60,"Duration":115879,"SoundDuration":115879,"Delta":342835151},{"NoteNumber":77,"Velocity":46,"Duration":96566,"SoundDuration":96566,"Delta":342835151},{"NoteNumber":89,"Velocity":60,"Duration":128755,"SoundDuration":128755,"Delta":342963906},{"NoteNumber":92,"Velocity":60,"Duration":128755,"SoundDuration":128755,"Delta":342963906},{"NoteNumber":73,"Velocity":53,"Duration":96566,"SoundDuration":96566,"Delta":342963906},{"NoteNumber":88,"Velocity":60,"Duration":123006,"SoundDuration":123006,"Delta":343092662},{"NoteNumber":91,"Velocity":60,"Duration":123006,"SoundDuration":123006,"Delta":343092662},{"NoteNumber":77,"Velocity":48,"Duration":102505,"SoundDuration":102505,"Delta":343092662},{"NoteNumber":90,"Velocity":74,"Duration":125522,"SoundDuration":125522,"Delta":343229336},{"NoteNumber":94,"Velocity":74,"Duration":125522,"SoundDuration":125522,"Delta":343229336},{"NoteNumber":68,"Velocity":52,"Duration":94142,"SoundDuration":94142,"Delta":343229336},{"NoteNumber":92,"Velocity":68,"Duration":110204,"SoundDuration":110204,"Delta":343354859},{"NoteNumber":89,"Velocity":68,"Duration":110204,"SoundDuration":110204,"Delta":343354859},{"NoteNumber":77,"Velocity":46,"Duration":122449,"SoundDuration":122449,"Delta":343354859},{"NoteNumber":89,"Velocity":57,"Duration":253739,"SoundDuration":253739,"Delta":343477308},{"NoteNumber":92,"Velocity":71,"Duration":122448,"SoundDuration":122448,"Delta":343477308},{"NoteNumber":61,"Velocity":50,"Duration":122448,"SoundDuration":122448,"Delta":343477308},{"NoteNumber":101,"Velocity":75,"Duration":118161,"SoundDuration":118161,"Delta":343599757},{"NoteNumber":101,"Velocity":82,"Duration":117416,"SoundDuration":117416,"Delta":343731048},{"NoteNumber":89,"Velocity":60,"Duration":234833,"SoundDuration":234833,"Delta":343731048},{"NoteNumber":69,"Velocity":46,"Duration":117416,"SoundDuration":117416,"Delta":343731048},{"NoteNumber":100,"Velocity":79,"Duration":105675,"SoundDuration":105675,"Delta":343848465},{"NoteNumber":89,"Velocity":57,"Duration":244535,"SoundDuration":244535,"Delta":343965881},{"NoteNumber":100,"Velocity":82,"Duration":117416,"SoundDuration":117416,"Delta":343965881},{"NoteNumber":72,"Velocity":42,"Duration":117416,"SoundDuration":117416,"Delta":343965881},{"NoteNumber":77,"Velocity":42,"Duration":117416,"SoundDuration":117416,"Delta":343965881},{"NoteNumber":99,"Velocity":75,"Duration":119703,"SoundDuration":119703,"Delta":344083298},{"NoteNumber":99,"Velocity":81,"Duration":117416,"SoundDuration":117416,"Delta":344210417},{"NoteNumber":89,"Velocity":60,"Duration":234833,"SoundDuration":234833,"Delta":344210417},{"NoteNumber":70,"Velocity":46,"Duration":117416,"SoundDuration":117416,"Delta":344210417},{"NoteNumber":98,"Velocity":77,"Duration":105675,"SoundDuration":105675,"Delta":344327834},{"NoteNumber":98,"Velocity":81,"Duration":117416,"SoundDuration":117416,"Delta":344445250},{"NoteNumber":89,"Velocity":57,"Duration":243732,"SoundDuration":243732,"Delta":344445250},{"NoteNumber":82,"Velocity":42,"Duration":117416,"SoundDuration":117416,"Delta":344445250},{"NoteNumber":77,"Velocity":35,"Duration":117416,"SoundDuration":117416,"Delta":344445250},{"NoteNumber":97,"Velocity":75,"Duration":113684,"SoundDuration":113684,"Delta":344562667},{"NoteNumber":97,"Velocity":78,"Duration":117416,"SoundDuration":117416,"Delta":344688983},{"NoteNumber":89,"Velocity":57,"Duration":234833,"SoundDuration":234833,"Delta":344688983},{"NoteNumber":65,"Velocity":46,"Duration":117416,"SoundDuration":117416,"Delta":344688983},{"NoteNumber":96,"Velocity":69,"Duration":105675,"SoundDuration":105675,"Delta":344806400},{"NoteNumber":89,"Velocity":55,"Duration":245348,"SoundDuration":245348,"Delta":344923816},{"NoteNumber":96,"Velocity":77,"Duration":117416,"SoundDuration":117416,"Delta":344923816},{"NoteNumber":87,"Velocity":41,"Duration":117416,"SoundDuration":117416,"Delta":344923816},{"NoteNumber":81,"Velocity":34,"Duration":117416,"SoundDuration":117416,"Delta":344923816},{"NoteNumber":77,"Velocity":34,"Duration":117416,"SoundDuration":117416,"Delta":344923816},{"NoteNumber":95,"Velocity":69,"Duration":63965,"SoundDuration":63965,"Delta":345041233},{"NoteNumber":97,"Velocity":58,"Duration":63965,"SoundDuration":63965,"Delta":345105199},{"NoteNumber":96,"Velocity":72,"Duration":119522,"SoundDuration":119522,"Delta":345169165},{"NoteNumber":89,"Velocity":72,"Duration":239043,"SoundDuration":239043,"Delta":345169165},{"NoteNumber":85,"Velocity":47,"Duration":119522,"SoundDuration":119522,"Delta":345169165},{"NoteNumber":82,"Velocity":39,"Duration":119522,"SoundDuration":119522,"Delta":345169165},{"NoteNumber":94,"Velocity":68,"Duration":59760,"SoundDuration":59760,"Delta":345288687},{"NoteNumber":96,"Velocity":57,"Duration":59760,"SoundDuration":59760,"Delta":345348448},{"NoteNumber":89,"Velocity":70,"Duration":245837,"SoundDuration":245837,"Delta":345408209},{"NoteNumber":94,"Velocity":70,"Duration":119522,"SoundDuration":119522,"Delta":345408209},{"NoteNumber":87,"Velocity":41,"Duration":119522,"SoundDuration":119522,"Delta":345408209},{"NoteNumber":84,"Velocity":34,"Duration":119522,"SoundDuration":119522,"Delta":345408209},{"NoteNumber":77,"Velocity":34,"Duration":119522,"SoundDuration":119522,"Delta":345408209},{"NoteNumber":93,"Velocity":68,"Duration":63157,"SoundDuration":63157,"Delta":345527731},{"NoteNumber":97,"Velocity":58,"Duration":63157,"SoundDuration":63157,"Delta":345590889},{"NoteNumber":96,"Velocity":68,"Duration":119522,"SoundDuration":119522,"Delta":345654047},{"NoteNumber":89,"Velocity":68,"Duration":239043,"SoundDuration":239043,"Delta":345654047},{"NoteNumber":85,"Velocity":45,"Duration":119522,"SoundDuration":119522,"Delta":345654047},{"NoteNumber":82,"Velocity":37,"Duration":119522,"SoundDuration":119522,"Delta":345654047},{"NoteNumber":94,"Velocity":68,"Duration":59760,"SoundDuration":59760,"Delta":345773569},{"NoteNumber":96,"Velocity":57,"Duration":59760,"SoundDuration":59760,"Delta":345833330},{"NoteNumber":89,"Velocity":66,"Duration":248277,"SoundDuration":248277,"Delta":345893091},{"NoteNumber":94,"Velocity":66,"Duration":119522,"SoundDuration":119522,"Delta":345893091},{"NoteNumber":87,"Velocity":39,"Duration":119522,"SoundDuration":119522,"Delta":345893091},{"NoteNumber":84,"Velocity":32,"Duration":119522,"SoundDuration":119522,"Delta":345893091},{"NoteNumber":77,"Velocity":32,"Duration":119522,"SoundDuration":119522,"Delta":345893091},{"NoteNumber":93,"Velocity":59,"Duration":64377,"SoundDuration":64377,"Delta":346012613},{"NoteNumber":97,"Velocity":53,"Duration":64377,"SoundDuration":64377,"Delta":346076990},{"NoteNumber":96,"Velocity":66,"Duration":120240,"SoundDuration":120240,"Delta":346141368},{"NoteNumber":89,"Velocity":66,"Duration":240480,"SoundDuration":240480,"Delta":346141368},{"NoteNumber":85,"Velocity":43,"Duration":120240,"SoundDuration":120240,"Delta":346141368},{"NoteNumber":82,"Velocity":35,"Duration":120240,"SoundDuration":120240,"Delta":346141368},{"NoteNumber":94,"Velocity":62,"Duration":60120,"SoundDuration":60120,"Delta":346261608},{"NoteNumber":96,"Velocity":52,"Duration":60120,"SoundDuration":60120,"Delta":346321729},{"NoteNumber":94,"Velocity":64,"Duration":120240,"SoundDuration":120240,"Delta":346381849},{"NoteNumber":89,"Velocity":64,"Duration":249830,"SoundDuration":249830,"Delta":346381849},{"NoteNumber":87,"Velocity":37,"Duration":120240,"SoundDuration":120240,"Delta":346381849},{"NoteNumber":84,"Velocity":31,"Duration":120240,"SoundDuration":120240,"Delta":346381849},{"NoteNumber":77,"Velocity":31,"Duration":120240,"SoundDuration":120240,"Delta":346381849},{"NoteNumber":93,"Velocity":63,"Duration":64794,"SoundDuration":64794,"Delta":346502089},{"NoteNumber":97,"Velocity":52,"Duration":64794,"SoundDuration":64794,"Delta":346566884},{"NoteNumber":96,"Velocity":62,"Duration":120240,"SoundDuration":120240,"Delta":346631679},{"NoteNumber":89,"Velocity":62,"Duration":240480,"SoundDuration":240480,"Delta":346631679},{"NoteNumber":85,"Velocity":41,"Duration":120240,"SoundDuration":120240,"Delta":346631679},{"NoteNumber":82,"Velocity":34,"Duration":120240,"SoundDuration":120240,"Delta":346631679},{"NoteNumber":94,"Velocity":62,"Duration":60120,"SoundDuration":60120,"Delta":346751920},{"NoteNumber":96,"Velocity":51,"Duration":60120,"SoundDuration":60120,"Delta":346812040},{"NoteNumber":89,"Velocity":61,"Duration":249109,"SoundDuration":249109,"Delta":346872160},{"NoteNumber":94,"Velocity":61,"Duration":120240,"SoundDuration":120240,"Delta":346872160},{"NoteNumber":87,"Velocity":36,"Duration":120240,"SoundDuration":120240,"Delta":346872160},{"NoteNumber":84,"Velocity":30,"Duration":120240,"SoundDuration":120240,"Delta":346872160},{"NoteNumber":77,"Velocity":30,"Duration":120240,"SoundDuration":120240,"Delta":346872160},{"NoteNumber":93,"Velocity":54,"Duration":128868,"SoundDuration":128868,"Delta":346992401},{"NoteNumber":89,"Velocity":62,"Duration":131667,"SoundDuration":131667,"Delta":347121269},{"NoteNumber":82,"Velocity":35,"Duration":131667,"SoundDuration":131667,"Delta":347121269},{"NoteNumber":85,"Velocity":43,"Duration":131667,"SoundDuration":131667,"Delta":347121269},{"NoteNumber":94,"Velocity":47,"Duration":66050,"SoundDuration":66050,"Delta":347121269},{"NoteNumber":96,"Velocity":41,"Duration":78660,"SoundDuration":78660,"Delta":347187320},{"NoteNumber":94,"Velocity":47,"Duration":78007,"SoundDuration":78007,"Delta":347252937},{"NoteNumber":96,"Velocity":41,"Duration":77503,"SoundDuration":77503,"Delta":347317985},{"NoteNumber":94,"Velocity":47,"Duration":64075,"SoundDuration":64075,"Delta":347382613},{"NoteNumber":96,"Velocity":41,"Duration":76272,"SoundDuration":76272,"Delta":347446689},{"NoteNumber":94,"Velocity":47,"Duration":75683,"SoundDuration":75683,"Delta":347510330},{"NoteNumber":96,"Velocity":41,"Duration":75078,"SoundDuration":75078,"Delta":347573461},{"NoteNumber":94,"Velocity":47,"Duration":62369,"SoundDuration":62369,"Delta":347636066},{"NoteNumber":96,"Velocity":41,"Duration":74844,"SoundDuration":74844,"Delta":347698436},{"NoteNumber":94,"Velocity":47,"Duration":74612,"SoundDuration":74612,"Delta":347760806},{"NoteNumber":96,"Velocity":41,"Duration":74380,"SoundDuration":74380,"Delta":347823021},{"NoteNumber":94,"Velocity":47,"Duration":61983,"SoundDuration":61983,"Delta":347885005},{"NoteNumber":96,"Velocity":41,"Duration":74023,"SoundDuration":74023,"Delta":347946988},{"NoteNumber":94,"Velocity":47,"Duration":73921,"SoundDuration":73921,"Delta":348008692},{"NoteNumber":96,"Velocity":41,"Duration":73698,"SoundDuration":73698,"Delta":348070294},{"NoteNumber":94,"Velocity":47,"Duration":60483,"SoundDuration":60483,"Delta":348131895},{"NoteNumber":96,"Velocity":41,"Duration":72880,"SoundDuration":72880,"Delta":348192379},{"NoteNumber":94,"Velocity":47,"Duration":74380,"SoundDuration":74380,"Delta":348252863},{"NoteNumber":96,"Velocity":41,"Duration":73864,"SoundDuration":73864,"Delta":348314846},{"NoteNumber":94,"Velocity":47,"Duration":59406,"SoundDuration":59406,"Delta":348376830},{"NoteNumber":96,"Velocity":41,"Duration":71726,"SoundDuration":71726,"Delta":348436236},{"NoteNumber":94,"Velocity":47,"Duration":73921,"SoundDuration":73921,"Delta":348495642},{"NoteNumber":96,"Velocity":41,"Duration":73846,"SoundDuration":73846,"Delta":348557244},{"NoteNumber":94,"Velocity":47,"Duration":61224,"SoundDuration":61224,"Delta":348618845},{"NoteNumber":96,"Velocity":41,"Duration":73035,"SoundDuration":73035,"Delta":348680070},{"NoteNumber":94,"Velocity":47,"Duration":70866,"SoundDuration":70866,"Delta":348741294},{"NoteNumber":96,"Velocity":41,"Duration":71451,"SoundDuration":71451,"Delta":348800349},{"NoteNumber":93,"Velocity":48,"Duration":61983,"SoundDuration":61983,"Delta":348859404},{"NoteNumber":94,"Velocity":49,"Duration":77861,"SoundDuration":77861,"Delta":348921388},{"NoteNumber":95,"Velocity":51,"Duration":78193,"SoundDuration":78193,"Delta":348986034},{"NoteNumber":96,"Velocity":52,"Duration":78475,"SoundDuration":78475,"Delta":349052113},{"NoteNumber":70,"Velocity":44,"Duration":493955,"SoundDuration":493955,"Delta":349085153},{"NoteNumber":85,"Velocity":44,"Duration":460915,"SoundDuration":460915,"Delta":349118192},{"NoteNumber":97,"Velocity":66,"Duration":61983,"SoundDuration":61983,"Delta":349118192},{"NoteNumber":99,"Velocity":47,"Duration":74380,"SoundDuration":74380,"Delta":349180176},{"NoteNumber":97,"Velocity":54,"Duration":74380,"SoundDuration":74380,"Delta":349242159},{"NoteNumber":99,"Velocity":48,"Duration":74153,"SoundDuration":74153,"Delta":349304143},{"NoteNumber":97,"Velocity":54,"Duration":60851,"SoundDuration":60851,"Delta":349366126},{"NoteNumber":99,"Velocity":47,"Duration":73022,"SoundDuration":73022,"Delta":349426978},{"NoteNumber":97,"Velocity":52,"Duration":73022,"SoundDuration":73022,"Delta":349487830},{"NoteNumber":99,"Velocity":47,"Duration":73022,"SoundDuration":73022,"Delta":349548682},{"NoteNumber":70,"Velocity":49,"Duration":490938,"SoundDuration":490938,"Delta":349579108},{"NoteNumber":85,"Velocity":49,"Duration":460512,"SoundDuration":460512,"Delta":349609534},{"NoteNumber":97,"Velocity":59,"Duration":60851,"SoundDuration":60851,"Delta":349609534},{"NoteNumber":99,"Velocity":47,"Duration":73172,"SoundDuration":73172,"Delta":349670386},{"NoteNumber":97,"Velocity":54,"Duration":73921,"SoundDuration":73921,"Delta":349731237},{"NoteNumber":99,"Velocity":48,"Duration":73921,"SoundDuration":73921,"Delta":349792839},{"NoteNumber":97,"Velocity":52,"Duration":61601,"SoundDuration":61601,"Delta":349854441},{"NoteNumber":99,"Velocity":47,"Duration":73921,"SoundDuration":73921,"Delta":349916042},{"NoteNumber":97,"Velocity":51,"Duration":73921,"SoundDuration":73921,"Delta":349977644},{"NoteNumber":99,"Velocity":48,"Duration":74153,"SoundDuration":74153,"Delta":350039246},{"NoteNumber":68,"Velocity":48,"Duration":764170,"SoundDuration":764170,"Delta":350070046},{"NoteNumber":96,"Velocity":56,"Duration":765955,"SoundDuration":765955,"Delta":350100847},{"NoteNumber":84,"Velocity":50,"Duration":733369,"SoundDuration":733369,"Delta":350100847},{"NoteNumber":97,"Velocity":54,"Duration":62761,"SoundDuration":62761,"Delta":350100847},{"NoteNumber":99,"Velocity":46,"Duration":75313,"SoundDuration":75313,"Delta":350163609},{"NoteNumber":97,"Velocity":52,"Duration":75313,"SoundDuration":75313,"Delta":350226370},{"NoteNumber":99,"Velocity":46,"Duration":75313,"SoundDuration":75313,"Delta":350289132},{"NoteNumber":97,"Velocity":52,"Duration":62761,"SoundDuration":62761,"Delta":350351893},{"NoteNumber":99,"Velocity":44,"Duration":75313,"SoundDuration":75313,"Delta":350414655},{"NoteNumber":97,"Velocity":52,"Duration":75313,"SoundDuration":75313,"Delta":350477416},{"NoteNumber":99,"Velocity":46,"Duration":75977,"SoundDuration":75977,"Delta":350540178},{"NoteNumber":97,"Velocity":52,"Duration":66079,"SoundDuration":66079,"Delta":350602939},{"NoteNumber":99,"Velocity":44,"Duration":79295,"SoundDuration":79295,"Delta":350669018},{"NoteNumber":97,"Velocity":51,"Duration":79295,"SoundDuration":79295,"Delta":350735098},{"NoteNumber":99,"Velocity":44,"Duration":78364,"SoundDuration":78364,"Delta":350801177},{"NoteNumber":66,"Velocity":51,"Duration":252100,"SoundDuration":252100,"Delta":350834217},{"NoteNumber":94,"Velocity":55,"Duration":250506,"SoundDuration":250506,"Delta":350866802},{"NoteNumber":82,"Velocity":51,"Duration":219515,"SoundDuration":219515,"Delta":350866802},{"NoteNumber":97,"Velocity":50,"Duration":62409,"SoundDuration":62409,"Delta":350866802},{"NoteNumber":99,"Velocity":46,"Duration":74222,"SoundDuration":74222,"Delta":350929212},{"NoteNumber":97,"Velocity":51,"Duration":76870,"SoundDuration":76870,"Delta":350990696},{"NoteNumber":99,"Velocity":46,"Duration":74802,"SoundDuration":74802,"Delta":351054827},{"NoteNumber":65,"Velocity":58,"Duration":285795,"SoundDuration":285795,"Delta":351086317},{"NoteNumber":92,"Velocity":61,"Duration":254803,"SoundDuration":254803,"Delta":351117309},{"NoteNumber":80,"Velocity":58,"Duration":254803,"SoundDuration":254803,"Delta":351117309},{"NoteNumber":97,"Velocity":52,"Duration":61627,"SoundDuration":61627,"Delta":351117309},{"NoteNumber":99,"Velocity":44,"Duration":77261,"SoundDuration":77261,"Delta":351178936},{"NoteNumber":97,"Velocity":51,"Duration":77815,"SoundDuration":77815,"Delta":351243069},{"NoteNumber":99,"Velocity":43,"Duration":76896,"SoundDuration":76896,"Delta":351308010},{"NoteNumber":97,"Velocity":50,"Duration":63938,"SoundDuration":63938,"Delta":351372113},{"NoteNumber":99,"Velocity":43,"Duration":75923,"SoundDuration":75923,"Delta":351436052},{"NoteNumber":97,"Velocity":50,"Duration":76059,"SoundDuration":76059,"Delta":351499343},{"NoteNumber":99,"Velocity":43,"Duration":79026,"SoundDuration":79026,"Delta":351562581},{"NoteNumber":92,"Velocity":56,"Duration":523259,"SoundDuration":523259,"Delta":351628215},{"NoteNumber":68,"Velocity":52,"Duration":1298330,"SoundDuration":1298330,"Delta":351628215},{"NoteNumber":77,"Velocity":52,"Duration":1298330,"SoundDuration":1298330,"Delta":351628215},{"NoteNumber":80,"Velocity":52,"Duration":1298330,"SoundDuration":1298330,"Delta":351628215},{"NoteNumber":97,"Velocity":49,"Duration":65804,"SoundDuration":65804,"Delta":351628215},{"NoteNumber":99,"Velocity":43,"Duration":77176,"SoundDuration":77176,"Delta":351694019},{"NoteNumber":97,"Velocity":50,"Duration":78949,"SoundDuration":78949,"Delta":351758124},{"NoteNumber":99,"Velocity":43,"Duration":78282,"SoundDuration":78282,"Delta":351823799},{"NoteNumber":97,"Velocity":50,"Duration":64503,"SoundDuration":64503,"Delta":351889370},{"NoteNumber":99,"Velocity":44,"Duration":79793,"SoundDuration":79793,"Delta":351953873},{"NoteNumber":97,"Velocity":49,"Duration":79008,"SoundDuration":79008,"Delta":352020363},{"NoteNumber":99,"Velocity":42,"Duration":77761,"SoundDuration":77761,"Delta":352086299},{"NoteNumber":97,"Velocity":50,"Duration":62995,"SoundDuration":62995,"Delta":352151475},{"NoteNumber":99,"Velocity":46,"Duration":77952,"SoundDuration":77952,"Delta":352214470},{"NoteNumber":97,"Velocity":50,"Duration":77259,"SoundDuration":77259,"Delta":352279512},{"NoteNumber":99,"Velocity":44,"Duration":77834,"SoundDuration":77834,"Delta":352343728},{"NoteNumber":97,"Velocity":47,"Duration":63132,"SoundDuration":63132,"Delta":352408735},{"NoteNumber":99,"Velocity":41,"Duration":78538,"SoundDuration":78538,"Delta":352471867},{"NoteNumber":97,"Velocity":47,"Duration":78341,"SoundDuration":78341,"Delta":352537065},{"NoteNumber":99,"Velocity":41,"Duration":77039,"SoundDuration":77039,"Delta":352602580},{"NoteNumber":97,"Velocity":47,"Duration":88224,"SoundDuration":88224,"Delta":352666580},{"NoteNumber":99,"Velocity":41,"Duration":85029,"SoundDuration":85029,"Delta":352754804},{"NoteNumber":97,"Velocity":49,"Duration":86711,"SoundDuration":86711,"Delta":352839834},{"NoteNumber":81,"Velocity":47,"Duration":291244,"SoundDuration":291244,"Delta":352926546},{"NoteNumber":77,"Velocity":39,"Duration":291244,"SoundDuration":291244,"Delta":352926546},{"NoteNumber":96,"Velocity":53,"Duration":91456,"SoundDuration":91456,"Delta":352926546},{"NoteNumber":97,"Velocity":58,"Duration":95011,"SoundDuration":95011,"Delta":353018002},{"NoteNumber":98,"Velocity":62,"Duration":104776,"SoundDuration":104776,"Delta":353113014},{"NoteNumber":101,"Velocity":50,"Duration":72664,"SoundDuration":72664,"Delta":353217790},{"NoteNumber":82,"Velocity":55,"Duration":207612,"SoundDuration":207612,"Delta":353217790},{"NoteNumber":68,"Velocity":46,"Duration":207612,"SoundDuration":207612,"Delta":353217790},{"NoteNumber":72,"Velocity":46,"Duration":207612,"SoundDuration":207612,"Delta":353217790},{"NoteNumber":78,"Velocity":46,"Duration":207612,"SoundDuration":207612,"Delta":353217790},{"NoteNumber":100,"Velocity":50,"Duration":72664,"SoundDuration":72664,"Delta":353290454},{"NoteNumber":99,"Velocity":50,"Duration":72664,"SoundDuration":72664,"Delta":353363119},{"NoteNumber":98,"Velocity":49,"Duration":72664,"SoundDuration":72664,"Delta":353435783},{"NoteNumber":97,"Velocity":49,"Duration":72166,"SoundDuration":72166,"Delta":353508448},{"NoteNumber":96,"Velocity":49,"Duration":71917,"SoundDuration":71917,"Delta":353578902},{"NoteNumber":95,"Velocity":49,"Duration":71917,"SoundDuration":71917,"Delta":353650820},{"NoteNumber":94,"Velocity":48,"Duration":71917,"SoundDuration":71917,"Delta":353722738},{"NoteNumber":93,"Velocity":48,"Duration":71830,"SoundDuration":71830,"Delta":353794655},{"NoteNumber":92,"Velocity":48,"Duration":71186,"SoundDuration":71186,"Delta":353866486},{"NoteNumber":91,"Velocity":47,"Duration":71186,"SoundDuration":71186,"Delta":353935978},{"NoteNumber":90,"Velocity":47,"Duration":71186,"SoundDuration":71186,"Delta":354007164},{"NoteNumber":89,"Velocity":47,"Duration":71186,"SoundDuration":71186,"Delta":354078350},{"NoteNumber":88,"Velocity":46,"Duration":70947,"SoundDuration":70947,"Delta":354149537},{"NoteNumber":87,"Velocity":46,"Duration":70469,"SoundDuration":70469,"Delta":354220484},{"NoteNumber":86,"Velocity":46,"Duration":70469,"SoundDuration":70469,"Delta":354289276},{"NoteNumber":85,"Velocity":46,"Duration":70469,"SoundDuration":70469,"Delta":354359746},{"NoteNumber":84,"Velocity":45,"Duration":70469,"SoundDuration":70469,"Delta":354430216},{"NoteNumber":83,"Velocity":45,"Duration":69917,"SoundDuration":69917,"Delta":354500686},{"NoteNumber":82,"Velocity":45,"Duration":69767,"SoundDuration":69767,"Delta":354570604},{"NoteNumber":81,"Velocity":44,"Duration":69767,"SoundDuration":69767,"Delta":354640371},{"NoteNumber":80,"Velocity":44,"Duration":69767,"SoundDuration":69767,"Delta":354708477},{"NoteNumber":56,"Velocity":39,"Duration":271988,"SoundDuration":271988,"Delta":354769939},{"NoteNumber":79,"Velocity":44,"Duration":66314,"SoundDuration":66314,"Delta":354778245},{"NoteNumber":63,"Velocity":41,"Duration":214176,"SoundDuration":214176,"Delta":354794856},{"NoteNumber":66,"Velocity":44,"Duration":222154,"SoundDuration":222154,"Delta":354819773},{"NoteNumber":78,"Velocity":41,"Duration":69078,"SoundDuration":69078,"Delta":354844559},{"NoteNumber":72,"Velocity":46,"Duration":197368,"SoundDuration":197368,"Delta":354844559},{"NoteNumber":77,"Velocity":41,"Duration":69078,"SoundDuration":69078,"Delta":354913638},{"NoteNumber":76,"Velocity":40,"Duration":69078,"SoundDuration":69078,"Delta":354982717},{"NoteNumber":75,"Velocity":40,"Duration":69078,"SoundDuration":69078,"Delta":355051796},{"NoteNumber":74,"Velocity":39,"Duration":69078,"SoundDuration":69078,"Delta":355120875},{"NoteNumber":73,"Velocity":39,"Duration":69078,"SoundDuration":69078,"Delta":355189954},{"NoteNumber":72,"Velocity":38,"Duration":69078,"SoundDuration":69078,"Delta":355259033},{"NoteNumber":71,"Velocity":37,"Duration":69078,"SoundDuration":69078,"Delta":355328112},{"NoteNumber":70,"Velocity":37,"Duration":69078,"SoundDuration":69078,"Delta":355397191},{"NoteNumber":69,"Velocity":36,"Duration":69078,"SoundDuration":69078,"Delta":355466270},{"NoteNumber":68,"Velocity":36,"Duration":69078,"SoundDuration":69078,"Delta":355535349},{"NoteNumber":67,"Velocity":35,"Duration":68725,"SoundDuration":68725,"Delta":355604428},{"NoteNumber":66,"Velocity":35,"Duration":68403,"SoundDuration":68403,"Delta":355673153},{"NoteNumber":65,"Velocity":34,"Duration":68500,"SoundDuration":68500,"Delta":355741557},{"NoteNumber":64,"Velocity":33,"Duration":69078,"SoundDuration":69078,"Delta":355810057},{"NoteNumber":63,"Velocity":33,"Duration":69078,"SoundDuration":69078,"Delta":355879136},{"NoteNumber":62,"Velocity":32,"Duration":69767,"SoundDuration":69767,"Delta":355948215},{"NoteNumber":61,"Velocity":32,"Duration":69767,"SoundDuration":69767,"Delta":356017983},{"NoteNumber":60,"Velocity":31,"Duration":70369,"SoundDuration":70369,"Delta":356087750},{"NoteNumber":59,"Velocity":31,"Duration":70469,"SoundDuration":70469,"Delta":356158119},{"NoteNumber":58,"Velocity":30,"Duration":70981,"SoundDuration":70981,"Delta":356228589},{"NoteNumber":57,"Velocity":30,"Duration":71186,"SoundDuration":71186,"Delta":356299571},{"NoteNumber":56,"Velocity":29,"Duration":61330,"SoundDuration":61330,"Delta":356370757},{"NoteNumber":37,"Velocity":33,"Duration":449612,"SoundDuration":449612,"Delta":356380927},{"NoteNumber":44,"Velocity":36,"Duration":424136,"SoundDuration":424136,"Delta":356406403},{"NoteNumber":49,"Velocity":39,"Duration":398451,"SoundDuration":398451,"Delta":356432088},{"NoteNumber":53,"Velocity":39,"Duration":102617,"SoundDuration":102617,"Delta":356534827},{"NoteNumber":56,"Velocity":40,"Duration":98946,"SoundDuration":98946,"Delta":356637445},{"NoteNumber":61,"Velocity":37,"Duration":94147,"SoundDuration":94147,"Delta":356736392},{"NoteNumber":65,"Velocity":39,"Duration":93167,"SoundDuration":93167,"Delta":356830539},{"NoteNumber":68,"Velocity":41,"Duration":92981,"SoundDuration":92981,"Delta":356923707},{"NoteNumber":73,"Velocity":43,"Duration":92307,"SoundDuration":92307,"Delta":357016689},{"NoteNumber":77,"Velocity":44,"Duration":92307,"SoundDuration":92307,"Delta":357108996},{"NoteNumber":80,"Velocity":46,"Duration":91744,"SoundDuration":91744,"Delta":357201304},{"NoteNumber":85,"Velocity":48,"Duration":92824,"SoundDuration":92824,"Delta":357293049},{"NoteNumber":89,"Velocity":49,"Duration":94386,"SoundDuration":94386,"Delta":357385873},{"NoteNumber":92,"Velocity":51,"Duration":95789,"SoundDuration":95789,"Delta":357480260},{"NoteNumber":97,"Velocity":53,"Duration":196026,"SoundDuration":196026,"Delta":357576049},{"NoteNumber":77,"Velocity":36,"Duration":149924,"SoundDuration":149924,"Delta":358948967},{"NoteNumber":73,"Velocity":36,"Duration":149924,"SoundDuration":149924,"Delta":358948967},{"NoteNumber":75,"Velocity":40,"Duration":146840,"SoundDuration":146840,"Delta":359098891},{"NoteNumber":78,"Velocity":40,"Duration":146840,"SoundDuration":146840,"Delta":359098891},{"NoteNumber":76,"Velocity":45,"Duration":143791,"SoundDuration":143791,"Delta":359245731},{"NoteNumber":79,"Velocity":45,"Duration":143791,"SoundDuration":143791,"Delta":359245731},{"NoteNumber":82,"Velocity":51,"Duration":129589,"SoundDuration":129589,"Delta":359389522},{"NoteNumber":78,"Velocity":51,"Duration":129589,"SoundDuration":129589,"Delta":359389522},{"NoteNumber":80,"Velocity":42,"Duration":123006,"SoundDuration":123006,"Delta":359519112},{"NoteNumber":77,"Velocity":42,"Duration":123006,"SoundDuration":123006,"Delta":359519112},{"NoteNumber":80,"Velocity":42,"Duration":136674,"SoundDuration":136674,"Delta":359655786},{"NoteNumber":77,"Velocity":42,"Duration":136674,"SoundDuration":136674,"Delta":359655786},{"NoteNumber":49,"Velocity":34,"Duration":102505,"SoundDuration":102505,"Delta":359655786},{"NoteNumber":79,"Velocity":42,"Duration":130120,"SoundDuration":130120,"Delta":359792461},{"NoteNumber":76,"Velocity":42,"Duration":130120,"SoundDuration":130120,"Delta":359792461},{"NoteNumber":65,"Velocity":30,"Duration":108433,"SoundDuration":108433,"Delta":359792461},{"NoteNumber":82,"Velocity":47,"Duration":126315,"SoundDuration":126315,"Delta":359937039},{"NoteNumber":78,"Velocity":47,"Duration":126315,"SoundDuration":126315,"Delta":359937039},{"NoteNumber":56,"Velocity":35,"Duration":94736,"SoundDuration":94736,"Delta":359937039},{"NoteNumber":80,"Velocity":41,"Duration":118942,"SoundDuration":118942,"Delta":360063355},{"NoteNumber":77,"Velocity":41,"Duration":118942,"SoundDuration":118942,"Delta":360063355},{"NoteNumber":65,"Velocity":32,"Duration":99118,"SoundDuration":99118,"Delta":360063355},{"NoteNumber":77,"Velocity":42,"Duration":132158,"SoundDuration":132158,"Delta":360195513},{"NoteNumber":80,"Velocity":42,"Duration":132158,"SoundDuration":132158,"Delta":360195513},{"NoteNumber":61,"Velocity":36,"Duration":99118,"SoundDuration":99118,"Delta":360195513},{"NoteNumber":79,"Velocity":44,"Duration":128265,"SoundDuration":128265,"Delta":360327672},{"NoteNumber":76,"Velocity":44,"Duration":128265,"SoundDuration":128265,"Delta":360327672},{"NoteNumber":65,"Velocity":33,"Duration":106888,"SoundDuration":106888,"Delta":360327672},{"NoteNumber":82,"Velocity":52,"Duration":122449,"SoundDuration":122449,"Delta":360470189},{"NoteNumber":78,"Velocity":52,"Duration":122449,"SoundDuration":122449,"Delta":360470189},{"NoteNumber":56,"Velocity":37,"Duration":91836,"SoundDuration":91836,"Delta":360470189},{"NoteNumber":80,"Velocity":45,"Duration":115879,"SoundDuration":115879,"Delta":360592638},{"NoteNumber":77,"Velocity":45,"Duration":115879,"SoundDuration":115879,"Delta":360592638},{"NoteNumber":65,"Velocity":34,"Duration":96566,"SoundDuration":96566,"Delta":360592638},{"NoteNumber":80,"Velocity":45,"Duration":128755,"SoundDuration":128755,"Delta":360721394},{"NoteNumber":77,"Velocity":45,"Duration":128755,"SoundDuration":128755,"Delta":360721394},{"NoteNumber":49,"Velocity":39,"Duration":96566,"SoundDuration":96566,"Delta":360721394},{"NoteNumber":79,"Velocity":45,"Duration":123853,"SoundDuration":123853,"Delta":360850149},{"NoteNumber":76,"Velocity":45,"Duration":123853,"SoundDuration":123853,"Delta":360850149},{"NoteNumber":65,"Velocity":36,"Duration":103211,"SoundDuration":103211,"Delta":360850149},{"NoteNumber":82,"Velocity":54,"Duration":118811,"SoundDuration":118811,"Delta":360987764},{"NoteNumber":78,"Velocity":54,"Duration":118811,"SoundDuration":118811,"Delta":360987764},{"NoteNumber":56,"Velocity":41,"Duration":89109,"SoundDuration":89109,"Delta":360987764},{"NoteNumber":80,"Velocity":47,"Duration":112265,"SoundDuration":112265,"Delta":361106576},{"NoteNumber":77,"Velocity":47,"Duration":112265,"SoundDuration":112265,"Delta":361106576},{"NoteNumber":65,"Velocity":37,"Duration":93554,"SoundDuration":93554,"Delta":361106576},{"NoteNumber":77,"Velocity":48,"Duration":124740,"SoundDuration":124740,"Delta":361231316},{"NoteNumber":80,"Velocity":48,"Duration":124740,"SoundDuration":124740,"Delta":361231316},{"NoteNumber":61,"Velocity":42,"Duration":93555,"SoundDuration":93555,"Delta":361231316},{"NoteNumber":79,"Velocity":50,"Duration":120535,"SoundDuration":120535,"Delta":361356056},{"NoteNumber":76,"Velocity":50,"Duration":120535,"SoundDuration":120535,"Delta":361356056},{"NoteNumber":65,"Velocity":40,"Duration":100446,"SoundDuration":100446,"Delta":361356056},{"NoteNumber":82,"Velocity":58,"Duration":117416,"SoundDuration":117416,"Delta":361489984},{"NoteNumber":78,"Velocity":58,"Duration":117416,"SoundDuration":117416,"Delta":361489984},{"NoteNumber":56,"Velocity":43,"Duration":88062,"SoundDuration":88062,"Delta":361489984},{"NoteNumber":80,"Velocity":51,"Duration":112970,"SoundDuration":112970,"Delta":361607401},{"NoteNumber":77,"Velocity":51,"Duration":112970,"SoundDuration":112970,"Delta":361607401},{"NoteNumber":65,"Velocity":37,"Duration":94142,"SoundDuration":94142,"Delta":361607401},{"NoteNumber":80,"Velocity":51,"Duration":125522,"SoundDuration":125522,"Delta":361732924},{"NoteNumber":77,"Velocity":51,"Duration":125522,"SoundDuration":125522,"Delta":361732924},{"NoteNumber":49,"Velocity":45,"Duration":94142,"SoundDuration":94142,"Delta":361732924},{"NoteNumber":79,"Velocity":51,"Duration":122171,"SoundDuration":122171,"Delta":361858447},{"NoteNumber":76,"Velocity":51,"Duration":122171,"SoundDuration":122171,"Delta":361858447},{"NoteNumber":65,"Velocity":41,"Duration":101809,"SoundDuration":101809,"Delta":361858447},{"NoteNumber":82,"Velocity":59,"Duration":116731,"SoundDuration":116731,"Delta":361994193},{"NoteNumber":78,"Velocity":59,"Duration":116731,"SoundDuration":116731,"Delta":361994193},{"NoteNumber":56,"Velocity":46,"Duration":87548,"SoundDuration":87548,"Delta":361994193},{"NoteNumber":80,"Velocity":54,"Duration":115879,"SoundDuration":115879,"Delta":362110925},{"NoteNumber":77,"Velocity":54,"Duration":115879,"SoundDuration":115879,"Delta":362110925},{"NoteNumber":65,"Velocity":41,"Duration":96566,"SoundDuration":96566,"Delta":362110925},{"NoteNumber":77,"Velocity":54,"Duration":128755,"SoundDuration":128755,"Delta":362239680},{"NoteNumber":80,"Velocity":54,"Duration":128755,"SoundDuration":128755,"Delta":362239680},{"NoteNumber":61,"Velocity":47,"Duration":96566,"SoundDuration":96566,"Delta":362239680},{"NoteNumber":79,"Velocity":54,"Duration":123006,"SoundDuration":123006,"Delta":362368435},{"NoteNumber":76,"Velocity":54,"Duration":123006,"SoundDuration":123006,"Delta":362368435},{"NoteNumber":65,"Velocity":43,"Duration":102505,"SoundDuration":102505,"Delta":362368435},{"NoteNumber":78,"Velocity":66,"Duration":125522,"SoundDuration":125522,"Delta":362505110},{"NoteNumber":82,"Velocity":66,"Duration":125522,"SoundDuration":125522,"Delta":362505110},{"NoteNumber":56,"Velocity":46,"Duration":94142,"SoundDuration":94142,"Delta":362505110},{"NoteNumber":77,"Velocity":61,"Duration":110204,"SoundDuration":110204,"Delta":362630633},{"NoteNumber":80,"Velocity":61,"Duration":110204,"SoundDuration":110204,"Delta":362630633},{"NoteNumber":65,"Velocity":41,"Duration":122449,"SoundDuration":122449,"Delta":362630633},{"NoteNumber":80,"Velocity":63,"Duration":122448,"SoundDuration":122448,"Delta":362753082},{"NoteNumber":77,"Velocity":51,"Duration":253739,"SoundDuration":253739,"Delta":362753082},{"NoteNumber":49,"Velocity":45,"Duration":122448,"SoundDuration":122448,"Delta":362753082},{"NoteNumber":89,"Velocity":67,"Duration":118161,"SoundDuration":118161,"Delta":362875531},{"NoteNumber":89,"Velocity":73,"Duration":117416,"SoundDuration":117416,"Delta":363006822},{"NoteNumber":77,"Velocity":54,"Duration":234833,"SoundDuration":234833,"Delta":363006822},{"NoteNumber":57,"Velocity":41,"Duration":117416,"SoundDuration":117416,"Delta":363006822},{"NoteNumber":88,"Velocity":71,"Duration":105675,"SoundDuration":105675,"Delta":363124238},{"NoteNumber":88,"Velocity":73,"Duration":117416,"SoundDuration":117416,"Delta":363241655},{"NoteNumber":77,"Velocity":51,"Duration":244535,"SoundDuration":244535,"Delta":363241655},{"NoteNumber":60,"Velocity":37,"Duration":117416,"SoundDuration":117416,"Delta":363241655},{"NoteNumber":65,"Velocity":37,"Duration":117416,"SoundDuration":117416,"Delta":363241655},{"NoteNumber":87,"Velocity":67,"Duration":119703,"SoundDuration":119703,"Delta":363359072},{"NoteNumber":87,"Velocity":72,"Duration":117416,"SoundDuration":117416,"Delta":363486191},{"NoteNumber":77,"Velocity":54,"Duration":234833,"SoundDuration":234833,"Delta":363486191},{"NoteNumber":58,"Velocity":41,"Duration":117416,"SoundDuration":117416,"Delta":363486191},{"NoteNumber":86,"Velocity":69,"Duration":105675,"SoundDuration":105675,"Delta":363603607},{"NoteNumber":86,"Velocity":72,"Duration":117416,"SoundDuration":117416,"Delta":363721024},{"NoteNumber":77,"Velocity":51,"Duration":243732,"SoundDuration":243732,"Delta":363721024},{"NoteNumber":70,"Velocity":37,"Duration":117416,"SoundDuration":117416,"Delta":363721024},{"NoteNumber":65,"Velocity":31,"Duration":117416,"SoundDuration":117416,"Delta":363721024},{"NoteNumber":85,"Velocity":67,"Duration":113684,"SoundDuration":113684,"Delta":363838441},{"NoteNumber":85,"Velocity":70,"Duration":117416,"SoundDuration":117416,"Delta":363964757},{"NoteNumber":77,"Velocity":51,"Duration":234833,"SoundDuration":234833,"Delta":363964757},{"NoteNumber":53,"Velocity":41,"Duration":117416,"SoundDuration":117416,"Delta":363964757},{"NoteNumber":84,"Velocity":62,"Duration":105675,"SoundDuration":105675,"Delta":364082173},{"NoteNumber":84,"Velocity":69,"Duration":117416,"SoundDuration":117416,"Delta":364199590},{"NoteNumber":77,"Velocity":49,"Duration":245348,"SoundDuration":245348,"Delta":364199590},{"NoteNumber":75,"Velocity":36,"Duration":117416,"SoundDuration":117416,"Delta":364199590},{"NoteNumber":69,"Velocity":30,"Duration":117416,"SoundDuration":117416,"Delta":364199590},{"NoteNumber":65,"Velocity":30,"Duration":117416,"SoundDuration":117416,"Delta":364199590},{"NoteNumber":83,"Velocity":62,"Duration":63965,"SoundDuration":63965,"Delta":364317007},{"NoteNumber":85,"Velocity":52,"Duration":63965,"SoundDuration":63965,"Delta":364380973},{"NoteNumber":84,"Velocity":64,"Duration":119522,"SoundDuration":119522,"Delta":364444939},{"NoteNumber":77,"Velocity":64,"Duration":239043,"SoundDuration":239043,"Delta":364444939},{"NoteNumber":73,"Velocity":42,"Duration":119522,"SoundDuration":119522,"Delta":364444939},{"NoteNumber":70,"Velocity":35,"Duration":119522,"SoundDuration":119522,"Delta":364444939},{"NoteNumber":82,"Velocity":61,"Duration":59760,"SoundDuration":59760,"Delta":364564461},{"NoteNumber":84,"Velocity":51,"Duration":59760,"SoundDuration":59760,"Delta":364624222},{"NoteNumber":82,"Velocity":63,"Duration":119522,"SoundDuration":119522,"Delta":364683983},{"NoteNumber":77,"Velocity":63,"Duration":245837,"SoundDuration":245837,"Delta":364683983},{"NoteNumber":75,"Velocity":36,"Duration":119522,"SoundDuration":119522,"Delta":364683983},{"NoteNumber":72,"Velocity":30,"Duration":119522,"SoundDuration":119522,"Delta":364683983},{"NoteNumber":65,"Velocity":30,"Duration":119522,"SoundDuration":119522,"Delta":364683983},{"NoteNumber":81,"Velocity":61,"Duration":63157,"SoundDuration":63157,"Delta":364803505},{"NoteNumber":85,"Velocity":52,"Duration":63157,"SoundDuration":63157,"Delta":364866662},{"NoteNumber":84,"Velocity":61,"Duration":119522,"SoundDuration":119522,"Delta":364929820},{"NoteNumber":77,"Velocity":61,"Duration":239043,"SoundDuration":239043,"Delta":364929820},{"NoteNumber":73,"Velocity":40,"Duration":119522,"SoundDuration":119522,"Delta":364929820},{"NoteNumber":70,"Velocity":33,"Duration":119522,"SoundDuration":119522,"Delta":364929820},{"NoteNumber":82,"Velocity":61,"Duration":59760,"SoundDuration":59760,"Delta":365049342},{"NoteNumber":84,"Velocity":51,"Duration":59760,"SoundDuration":59760,"Delta":365109103},{"NoteNumber":82,"Velocity":59,"Duration":119522,"SoundDuration":119522,"Delta":365168864},{"NoteNumber":77,"Velocity":59,"Duration":248277,"SoundDuration":248277,"Delta":365168864},{"NoteNumber":75,"Velocity":35,"Duration":119522,"SoundDuration":119522,"Delta":365168864},{"NoteNumber":72,"Velocity":28,"Duration":119522,"SoundDuration":119522,"Delta":365168864},{"NoteNumber":65,"Velocity":28,"Duration":119522,"SoundDuration":119522,"Delta":365168864},{"NoteNumber":81,"Velocity":53,"Duration":64377,"SoundDuration":64377,"Delta":365288386},{"NoteNumber":85,"Velocity":47,"Duration":64377,"SoundDuration":64377,"Delta":365352764},{"NoteNumber":84,"Velocity":59,"Duration":120240,"SoundDuration":120240,"Delta":365417142},{"NoteNumber":77,"Velocity":59,"Duration":240480,"SoundDuration":240480,"Delta":365417142},{"NoteNumber":73,"Velocity":38,"Duration":120240,"SoundDuration":120240,"Delta":365417142},{"NoteNumber":70,"Velocity":31,"Duration":120240,"SoundDuration":120240,"Delta":365417142},{"NoteNumber":82,"Velocity":55,"Duration":60120,"SoundDuration":60120,"Delta":365537382},{"NoteNumber":84,"Velocity":46,"Duration":60120,"SoundDuration":60120,"Delta":365597502},{"NoteNumber":82,"Velocity":57,"Duration":120240,"SoundDuration":120240,"Delta":365657623},{"NoteNumber":77,"Velocity":57,"Duration":249830,"SoundDuration":249830,"Delta":365657623},{"NoteNumber":75,"Velocity":33,"Duration":120240,"SoundDuration":120240,"Delta":365657623},{"NoteNumber":72,"Velocity":27,"Duration":120240,"SoundDuration":120240,"Delta":365657623},{"NoteNumber":65,"Velocity":27,"Duration":120240,"SoundDuration":120240,"Delta":365657623},{"NoteNumber":81,"Velocity":56,"Duration":64794,"SoundDuration":64794,"Delta":365777863},{"NoteNumber":85,"Velocity":46,"Duration":64794,"SoundDuration":64794,"Delta":365842658},{"NoteNumber":84,"Velocity":55,"Duration":120240,"SoundDuration":120240,"Delta":365907453},{"NoteNumber":77,"Velocity":55,"Duration":240480,"SoundDuration":240480,"Delta":365907453},{"NoteNumber":73,"Velocity":36,"Duration":120240,"SoundDuration":120240,"Delta":365907453},{"NoteNumber":70,"Velocity":30,"Duration":120240,"SoundDuration":120240,"Delta":365907453},{"NoteNumber":82,"Velocity":55,"Duration":60120,"SoundDuration":60120,"Delta":366027693},{"NoteNumber":84,"Velocity":45,"Duration":60120,"SoundDuration":60120,"Delta":366087814},{"NoteNumber":82,"Velocity":54,"Duration":120240,"SoundDuration":120240,"Delta":366147934},{"NoteNumber":77,"Velocity":54,"Duration":249109,"SoundDuration":249109,"Delta":366147934},{"NoteNumber":75,"Velocity":32,"Duration":120240,"SoundDuration":120240,"Delta":366147934},{"NoteNumber":72,"Velocity":27,"Duration":120240,"SoundDuration":120240,"Delta":366147934},{"NoteNumber":65,"Velocity":27,"Duration":120240,"SoundDuration":120240,"Delta":366147934},{"NoteNumber":81,"Velocity":48,"Duration":128868,"SoundDuration":128868,"Delta":366268174},{"NoteNumber":77,"Velocity":55,"Duration":1010625,"SoundDuration":1010625,"Delta":366397043},{"NoteNumber":70,"Velocity":31,"Duration":1010625,"SoundDuration":1010625,"Delta":366397043},{"NoteNumber":73,"Velocity":38,"Duration":1010625,"SoundDuration":1010625,"Delta":366397043},{"NoteNumber":82,"Velocity":36,"Duration":66050,"SoundDuration":66050,"Delta":366397043},{"NoteNumber":84,"Velocity":32,"Duration":78660,"SoundDuration":78660,"Delta":366463093},{"NoteNumber":82,"Velocity":36,"Duration":78007,"SoundDuration":78007,"Delta":366528710},{"NoteNumber":84,"Velocity":32,"Duration":77503,"SoundDuration":77503,"Delta":366593759},{"NoteNumber":82,"Velocity":36,"Duration":64075,"SoundDuration":64075,"Delta":366658387},{"NoteNumber":84,"Velocity":32,"Duration":76272,"SoundDuration":76272,"Delta":366722462},{"NoteNumber":82,"Velocity":36,"Duration":75683,"SoundDuration":75683,"Delta":366786103},{"NoteNumber":84,"Velocity":32,"Duration":75078,"SoundDuration":75078,"Delta":366849235},{"NoteNumber":82,"Velocity":36,"Duration":62369,"SoundDuration":62369,"Delta":366911840},{"NoteNumber":84,"Velocity":32,"Duration":74844,"SoundDuration":74844,"Delta":366974210},{"NoteNumber":82,"Velocity":36,"Duration":74612,"SoundDuration":74612,"Delta":367036580},{"NoteNumber":84,"Velocity":32,"Duration":74380,"SoundDuration":74380,"Delta":367098795},{"NoteNumber":82,"Velocity":36,"Duration":61983,"SoundDuration":61983,"Delta":367160779},{"NoteNumber":84,"Velocity":32,"Duration":74023,"SoundDuration":74023,"Delta":367222762},{"NoteNumber":82,"Velocity":36,"Duration":73921,"SoundDuration":73921,"Delta":367284466},{"NoteNumber":84,"Velocity":32,"Duration":73921,"SoundDuration":73921,"Delta":367346067},{"NoteNumber":81,"Velocity":42,"Duration":82135,"SoundDuration":82135,"Delta":367407669},{"NoteNumber":82,"Velocity":43,"Duration":82135,"SoundDuration":82135,"Delta":367489804},{"NoteNumber":83,"Velocity":44,"Duration":61601,"SoundDuration":61601,"Delta":367571940},{"NoteNumber":84,"Velocity":45,"Duration":82135,"SoundDuration":82135,"Delta":367654075},{"NoteNumber":85,"Velocity":46,"Duration":82135,"SoundDuration":82135,"Delta":367736211},{"NoteNumber":86,"Velocity":47,"Duration":82135,"SoundDuration":82135,"Delta":367818346},{"NoteNumber":87,"Velocity":48,"Duration":82135,"SoundDuration":82135,"Delta":367900482},{"NoteNumber":88,"Velocity":49,"Duration":81689,"SoundDuration":81689,"Delta":367982617},{"NoteNumber":89,"Velocity":50,"Duration":81440,"SoundDuration":81440,"Delta":368064307},{"NoteNumber":90,"Velocity":51,"Duration":81135,"SoundDuration":81135,"Delta":368145747},{"NoteNumber":91,"Velocity":52,"Duration":80761,"SoundDuration":80761,"Delta":368226883},{"NoteNumber":92,"Velocity":53,"Duration":80517,"SoundDuration":80517,"Delta":368307644},{"NoteNumber":93,"Velocity":54,"Duration":80160,"SoundDuration":80160,"Delta":368388162},{"NoteNumber":94,"Velocity":55,"Duration":80160,"SoundDuration":80160,"Delta":368468322},{"NoteNumber":95,"Velocity":56,"Duration":80160,"SoundDuration":80160,"Delta":368548483},{"NoteNumber":96,"Velocity":57,"Duration":80160,"SoundDuration":80160,"Delta":368628643},{"NoteNumber":97,"Velocity":58,"Duration":80160,"SoundDuration":80160,"Delta":368708803},{"NoteNumber":54,"Velocity":56,"Duration":120240,"SoundDuration":120240,"Delta":368748884},{"NoteNumber":99,"Velocity":59,"Duration":80160,"SoundDuration":80160,"Delta":368788964},{"NoteNumber":97,"Velocity":63,"Duration":42704,"SoundDuration":42704,"Delta":368869124},{"NoteNumber":70,"Velocity":56,"Duration":106761,"SoundDuration":106761,"Delta":368869124},{"NoteNumber":73,"Velocity":56,"Duration":106761,"SoundDuration":106761,"Delta":368869124},{"NoteNumber":99,"Velocity":45,"Duration":42704,"SoundDuration":42704,"Delta":368911829},{"NoteNumber":97,"Velocity":45,"Duration":42704,"SoundDuration":42704,"Delta":368954533},{"NoteNumber":96,"Velocity":45,"Duration":42704,"SoundDuration":42704,"Delta":368997238},{"NoteNumber":97,"Velocity":45,"Duration":42704,"SoundDuration":42704,"Delta":369039943},{"NoteNumber":99,"Velocity":51,"Duration":53380,"SoundDuration":53380,"Delta":369082647},{"NoteNumber":97,"Velocity":46,"Duration":53380,"SoundDuration":53380,"Delta":369136028},{"NoteNumber":94,"Velocity":46,"Duration":53380,"SoundDuration":53380,"Delta":369189409},{"NoteNumber":92,"Velocity":46,"Duration":53380,"SoundDuration":53380,"Delta":369242789},{"NoteNumber":97,"Velocity":51,"Duration":53380,"SoundDuration":53380,"Delta":369296170},{"NoteNumber":94,"Velocity":46,"Duration":53380,"SoundDuration":53380,"Delta":369349551},{"NoteNumber":92,"Velocity":46,"Duration":53380,"SoundDuration":53380,"Delta":369402932},{"NoteNumber":90,"Velocity":46,"Duration":53380,"SoundDuration":53380,"Delta":369456312},{"NoteNumber":94,"Velocity":51,"Duration":76142,"SoundDuration":76142,"Delta":369509693},{"NoteNumber":70,"Velocity":54,"Duration":609136,"SoundDuration":609136,"Delta":369509693},{"NoteNumber":73,"Velocity":54,"Duration":609136,"SoundDuration":609136,"Delta":369509693},{"NoteNumber":92,"Velocity":46,"Duration":76142,"SoundDuration":76142,"Delta":369585835},{"NoteNumber":90,"Velocity":46,"Duration":76142,"SoundDuration":76142,"Delta":369661977},{"NoteNumber":87,"Velocity":46,"Duration":76142,"SoundDuration":76142,"Delta":369738119},{"NoteNumber":92,"Velocity":51,"Duration":76142,"SoundDuration":76142,"Delta":369814262},{"NoteNumber":90,"Velocity":45,"Duration":76142,"SoundDuration":76142,"Delta":369890404},{"NoteNumber":87,"Velocity":45,"Duration":76142,"SoundDuration":76142,"Delta":369966546},{"NoteNumber":85,"Velocity":45,"Duration":76142,"SoundDuration":76142,"Delta":370042688},{"NoteNumber":90,"Velocity":51,"Duration":72815,"SoundDuration":72815,"Delta":370118830},{"NoteNumber":68,"Velocity":53,"Duration":581747,"SoundDuration":581747,"Delta":370118830},{"NoteNumber":72,"Velocity":53,"Duration":581747,"SoundDuration":581747,"Delta":370118830},{"NoteNumber":87,"Velocity":45,"Duration":72815,"SoundDuration":72815,"Delta":370191646},{"NoteNumber":85,"Velocity":45,"Duration":72815,"SoundDuration":72815,"Delta":370264461},{"NoteNumber":82,"Velocity":45,"Duration":72631,"SoundDuration":72631,"Delta":370337277},{"NoteNumber":87,"Velocity":51,"Duration":72289,"SoundDuration":72289,"Delta":370409908},{"NoteNumber":85,"Velocity":45,"Duration":72473,"SoundDuration":72473,"Delta":370482197},{"NoteNumber":82,"Velocity":45,"Duration":72815,"SoundDuration":72815,"Delta":370554670},{"NoteNumber":80,"Velocity":45,"Duration":73091,"SoundDuration":73091,"Delta":370627486},{"NoteNumber":85,"Velocity":51,"Duration":73349,"SoundDuration":73349,"Delta":370700577},{"NoteNumber":82,"Velocity":47,"Duration":73629,"SoundDuration":73629,"Delta":370773927},{"NoteNumber":80,"Velocity":47,"Duration":73891,"SoundDuration":73891,"Delta":370847557},{"NoteNumber":78,"Velocity":47,"Duration":74267,"SoundDuration":74267,"Delta":370921448},{"NoteNumber":82,"Velocity":51,"Duration":64516,"SoundDuration":64516,"Delta":370995716},{"NoteNumber":80,"Velocity":46,"Duration":64195,"SoundDuration":64195,"Delta":371060232},{"NoteNumber":78,"Velocity":46,"Duration":64039,"SoundDuration":64039,"Delta":371125659},{"NoteNumber":75,"Velocity":46,"Duration":63768,"SoundDuration":63768,"Delta":371189698},{"NoteNumber":80,"Velocity":51,"Duration":63569,"SoundDuration":63569,"Delta":371253466},{"NoteNumber":78,"Velocity":45,"Duration":63356,"SoundDuration":63356,"Delta":371317036},{"NoteNumber":75,"Velocity":45,"Duration":63106,"SoundDuration":63106,"Delta":371380392},{"NoteNumber":73,"Velocity":45,"Duration":62940,"SoundDuration":62940,"Delta":371444712},{"NoteNumber":78,"Velocity":51,"Duration":62650,"SoundDuration":62650,"Delta":371507652},{"NoteNumber":75,"Velocity":45,"Duration":62650,"SoundDuration":62650,"Delta":371570303},{"NoteNumber":73,"Velocity":45,"Duration":62650,"SoundDuration":62650,"Delta":371632954},{"NoteNumber":70,"Velocity":45,"Duration":62650,"SoundDuration":62650,"Delta":371695604},{"NoteNumber":75,"Velocity":51,"Duration":62650,"SoundDuration":62650,"Delta":371759460},{"NoteNumber":73,"Velocity":47,"Duration":62650,"SoundDuration":62650,"Delta":371822110},{"NoteNumber":70,"Velocity":47,"Duration":68238,"SoundDuration":68238,"Delta":371884761},{"NoteNumber":68,"Velocity":47,"Duration":159509,"SoundDuration":159509,"Delta":371952999},{"NoteNumber":70,"Velocity":63,"Duration":83798,"SoundDuration":83798,"Delta":372311895},{"NoteNumber":58,"Velocity":54,"Duration":83798,"SoundDuration":83798,"Delta":372311895},{"NoteNumber":61,"Velocity":54,"Duration":83798,"SoundDuration":83798,"Delta":372311895},{"NoteNumber":54,"Velocity":54,"Duration":83798,"SoundDuration":83798,"Delta":372311895},{"NoteNumber":42,"Velocity":45,"Duration":83798,"SoundDuration":83798,"Delta":372311895},{"NoteNumber":68,"Velocity":71,"Duration":120967,"SoundDuration":120967,"Delta":372395694},{"NoteNumber":56,"Velocity":60,"Duration":120967,"SoundDuration":120967,"Delta":372395694},{"NoteNumber":61,"Velocity":60,"Duration":120967,"SoundDuration":120967,"Delta":372395694},{"NoteNumber":53,"Velocity":63,"Duration":120967,"SoundDuration":120967,"Delta":372395694},{"NoteNumber":44,"Velocity":53,"Duration":120967,"SoundDuration":120967,"Delta":372395694},{"NoteNumber":92,"Velocity":51,"Duration":54669,"SoundDuration":54669,"Delta":372879565},{"NoteNumber":94,"Velocity":46,"Duration":54669,"SoundDuration":54669,"Delta":372934235},{"NoteNumber":92,"Velocity":45,"Duration":54669,"SoundDuration":54669,"Delta":372988904},{"NoteNumber":91,"Velocity":45,"Duration":54669,"SoundDuration":54669,"Delta":373043574},{"NoteNumber":92,"Velocity":45,"Duration":54669,"SoundDuration":54669,"Delta":373098244},{"NoteNumber":101,"Velocity":51,"Duration":72815,"SoundDuration":72815,"Delta":373152914},{"NoteNumber":56,"Velocity":45,"Duration":2561164,"SoundDuration":2561164,"Delta":373152914},{"NoteNumber":65,"Velocity":45,"Duration":2561164,"SoundDuration":2561164,"Delta":373152914},{"NoteNumber":68,"Velocity":45,"Duration":2561164,"SoundDuration":2561164,"Delta":373152914},{"NoteNumber":99,"Velocity":47,"Duration":72815,"SoundDuration":72815,"Delta":373225729},{"NoteNumber":97,"Velocity":47,"Duration":72815,"SoundDuration":72815,"Delta":373298545},{"NoteNumber":94,"Velocity":47,"Duration":72815,"SoundDuration":72815,"Delta":373371360},{"NoteNumber":99,"Velocity":51,"Duration":72815,"SoundDuration":72815,"Delta":373444176},{"NoteNumber":97,"Velocity":46,"Duration":72815,"SoundDuration":72815,"Delta":373516991},{"NoteNumber":94,"Velocity":46,"Duration":72543,"SoundDuration":72543,"Delta":373589807},{"NoteNumber":92,"Velocity":46,"Duration":72289,"SoundDuration":72289,"Delta":373662350},{"NoteNumber":97,"Velocity":51,"Duration":72289,"SoundDuration":72289,"Delta":373734639},{"NoteNumber":94,"Velocity":46,"Duration":71934,"SoundDuration":71934,"Delta":373806928},{"NoteNumber":92,"Velocity":46,"Duration":71770,"SoundDuration":71770,"Delta":373878863},{"NoteNumber":89,"Velocity":46,"Duration":71770,"SoundDuration":71770,"Delta":373950633},{"NoteNumber":94,"Velocity":51,"Duration":71335,"SoundDuration":71335,"Delta":374022404},{"NoteNumber":92,"Velocity":46,"Duration":71258,"SoundDuration":71258,"Delta":374093739},{"NoteNumber":89,"Velocity":46,"Duration":71166,"SoundDuration":71166,"Delta":374164998},{"NoteNumber":87,"Velocity":46,"Duration":70754,"SoundDuration":70754,"Delta":374236165},{"NoteNumber":92,"Velocity":51,"Duration":70754,"SoundDuration":70754,"Delta":374306919},{"NoteNumber":89,"Velocity":45,"Duration":70497,"SoundDuration":70497,"Delta":374377674},{"NoteNumber":87,"Velocity":45,"Duration":70257,"SoundDuration":70257,"Delta":374448172},{"NoteNumber":85,"Velocity":45,"Duration":70257,"SoundDuration":70257,"Delta":374518430},{"NoteNumber":89,"Velocity":51,"Duration":69841,"SoundDuration":69841,"Delta":374588687},{"NoteNumber":87,"Velocity":45,"Duration":69767,"SoundDuration":69767,"Delta":374658528},{"NoteNumber":85,"Velocity":45,"Duration":70020,"SoundDuration":70020,"Delta":374728296},{"NoteNumber":82,"Velocity":45,"Duration":70257,"SoundDuration":70257,"Delta":374798317},{"NoteNumber":87,"Velocity":51,"Duration":70431,"SoundDuration":70431,"Delta":374868574},{"NoteNumber":85,"Velocity":45,"Duration":70754,"SoundDuration":70754,"Delta":374939006},{"NoteNumber":82,"Velocity":45,"Duration":70847,"SoundDuration":70847,"Delta":375009761},{"NoteNumber":80,"Velocity":45,"Duration":71258,"SoundDuration":71258,"Delta":375080608},{"NoteNumber":85,"Velocity":51,"Duration":70407,"SoundDuration":70407,"Delta":375151867},{"NoteNumber":82,"Velocity":47,"Duration":70257,"SoundDuration":70257,"Delta":375222274},{"NoteNumber":80,"Velocity":47,"Duration":70257,"SoundDuration":70257,"Delta":375292532},{"NoteNumber":77,"Velocity":47,"Duration":70257,"SoundDuration":70257,"Delta":375362790},{"NoteNumber":82,"Velocity":51,"Duration":70257,"SoundDuration":70257,"Delta":375433047},{"NoteNumber":80,"Velocity":44,"Duration":70257,"SoundDuration":70257,"Delta":375503305},{"NoteNumber":77,"Velocity":44,"Duration":70257,"SoundDuration":70257,"Delta":375573563},{"NoteNumber":75,"Velocity":44,"Duration":70257,"SoundDuration":70257,"Delta":375643820},{"NoteNumber":80,"Velocity":47,"Duration":70257,"SoundDuration":70257,"Delta":375714078},{"NoteNumber":77,"Velocity":40,"Duration":70257,"SoundDuration":70257,"Delta":375784335},{"NoteNumber":75,"Velocity":40,"Duration":70257,"SoundDuration":70257,"Delta":375854593},{"NoteNumber":73,"Velocity":40,"Duration":70257,"SoundDuration":70257,"Delta":375924851},{"NoteNumber":77,"Velocity":43,"Duration":70257,"SoundDuration":70257,"Delta":375995108},{"NoteNumber":75,"Velocity":37,"Duration":70257,"SoundDuration":70257,"Delta":376065366},{"NoteNumber":73,"Velocity":37,"Duration":70257,"SoundDuration":70257,"Delta":376135624},{"NoteNumber":70,"Velocity":37,"Duration":70257,"SoundDuration":70257,"Delta":376205881},{"NoteNumber":75,"Velocity":43,"Duration":60998,"SoundDuration":60998,"Delta":376276139},{"NoteNumber":73,"Velocity":35,"Duration":61530,"SoundDuration":61530,"Delta":376337138},{"NoteNumber":70,"Velocity":35,"Duration":61996,"SoundDuration":61996,"Delta":376399856},{"NoteNumber":68,"Velocity":35,"Duration":62460,"SoundDuration":62460,"Delta":376461852},{"NoteNumber":73,"Velocity":42,"Duration":62931,"SoundDuration":62931,"Delta":376524313},{"NoteNumber":70,"Velocity":36,"Duration":63409,"SoundDuration":63409,"Delta":376587244},{"NoteNumber":68,"Velocity":36,"Duration":63894,"SoundDuration":63894,"Delta":376650654},{"NoteNumber":65,"Velocity":36,"Duration":64396,"SoundDuration":64396,"Delta":376715780},{"NoteNumber":70,"Velocity":42,"Duration":64897,"SoundDuration":64897,"Delta":376780177},{"NoteNumber":68,"Velocity":37,"Duration":65406,"SoundDuration":65406,"Delta":376845075},{"NoteNumber":65,"Velocity":37,"Duration":65491,"SoundDuration":65491,"Delta":376910481},{"NoteNumber":63,"Velocity":37,"Duration":65491,"SoundDuration":65491,"Delta":376975972},{"NoteNumber":68,"Velocity":42,"Duration":65491,"SoundDuration":65491,"Delta":377042722},{"NoteNumber":65,"Velocity":38,"Duration":65491,"SoundDuration":65491,"Delta":377108214},{"NoteNumber":63,"Velocity":38,"Duration":72742,"SoundDuration":72742,"Delta":377173705},{"NoteNumber":61,"Velocity":38,"Duration":191176,"SoundDuration":191176,"Delta":377246447},{"NoteNumber":81,"Velocity":75,"Duration":79155,"SoundDuration":79155,"Delta":377676594},{"NoteNumber":69,"Velocity":64,"Duration":79155,"SoundDuration":79155,"Delta":377676594},{"NoteNumber":65,"Velocity":64,"Duration":79155,"SoundDuration":79155,"Delta":377676594},{"NoteNumber":53,"Velocity":54,"Duration":79155,"SoundDuration":79155,"Delta":377676594},{"NoteNumber":82,"Velocity":85,"Duration":188087,"SoundDuration":188087,"Delta":377755750},{"NoteNumber":70,"Velocity":72,"Duration":188087,"SoundDuration":188087,"Delta":377755750},{"NoteNumber":66,"Velocity":75,"Duration":188087,"SoundDuration":188087,"Delta":377755750},{"NoteNumber":54,"Velocity":63,"Duration":188087,"SoundDuration":188087,"Delta":377755750},{"NoteNumber":54,"Velocity":72,"Duration":752351,"SoundDuration":752351,"Delta":378508101},{"NoteNumber":60,"Velocity":85,"Duration":752351,"SoundDuration":752351,"Delta":378508101},{"NoteNumber":48,"Velocity":63,"Duration":752351,"SoundDuration":752351,"Delta":378508101},{"NoteNumber":32,"Velocity":63,"Duration":752351,"SoundDuration":752351,"Delta":378508101},{"NoteNumber":39,"Velocity":63,"Duration":752351,"SoundDuration":752351,"Delta":378508101},{"NoteNumber":44,"Velocity":75,"Duration":752351,"SoundDuration":752351,"Delta":378508101},{"NoteNumber":37,"Velocity":37,"Duration":79787,"SoundDuration":79787,"Delta":381517505},{"NoteNumber":44,"Velocity":37,"Duration":90634,"SoundDuration":90634,"Delta":381677079},{"NoteNumber":56,"Velocity":40,"Duration":349853,"SoundDuration":349853,"Delta":381858348},{"NoteNumber":49,"Velocity":34,"Duration":349853,"SoundDuration":349853,"Delta":381858348},{"NoteNumber":37,"Velocity":38,"Duration":79155,"SoundDuration":79155,"Delta":382208202},{"NoteNumber":44,"Velocity":38,"Duration":92307,"SoundDuration":92307,"Delta":382366514},{"NoteNumber":56,"Velocity":40,"Duration":346820,"SoundDuration":346820,"Delta":382551129},{"NoteNumber":49,"Velocity":34,"Duration":346820,"SoundDuration":346820,"Delta":382551129},{"NoteNumber":37,"Velocity":37,"Duration":82417,"SoundDuration":82417,"Delta":382897950},{"NoteNumber":44,"Velocity":37,"Duration":91463,"SoundDuration":91463,"Delta":383062785},{"NoteNumber":68,"Velocity":46,"Duration":514689,"SoundDuration":514689,"Delta":383245712},{"NoteNumber":65,"Velocity":39,"Duration":514689,"SoundDuration":514689,"Delta":383245712},{"NoteNumber":56,"Velocity":40,"Duration":349853,"SoundDuration":349853,"Delta":383245712},{"NoteNumber":49,"Velocity":34,"Duration":349853,"SoundDuration":349853,"Delta":383245712},{"NoteNumber":37,"Velocity":38,"Duration":82417,"SoundDuration":82417,"Delta":383595566},{"NoteNumber":66,"Velocity":41,"Duration":85959,"SoundDuration":85959,"Delta":383760401},{"NoteNumber":63,"Velocity":34,"Duration":85959,"SoundDuration":85959,"Delta":383760401},{"NoteNumber":44,"Velocity":38,"Duration":85959,"SoundDuration":85959,"Delta":383760401},{"NoteNumber":65,"Velocity":41,"Duration":70257,"SoundDuration":70257,"Delta":383932321},{"NoteNumber":61,"Velocity":34,"Duration":70257,"SoundDuration":70257,"Delta":383932321},{"NoteNumber":56,"Velocity":40,"Duration":315442,"SoundDuration":315442,"Delta":383932321},{"NoteNumber":49,"Velocity":34,"Duration":315442,"SoundDuration":315442,"Delta":383932321},{"NoteNumber":66,"Velocity":41,"Duration":87463,"SoundDuration":87463,"Delta":384072836},{"NoteNumber":63,"Velocity":34,"Duration":87463,"SoundDuration":87463,"Delta":384072836},{"NoteNumber":68,"Velocity":48,"Duration":82417,"SoundDuration":82417,"Delta":384247763},{"NoteNumber":65,"Velocity":40,"Duration":82417,"SoundDuration":82417,"Delta":384247763},{"NoteNumber":37,"Velocity":37,"Duration":82417,"SoundDuration":82417,"Delta":384247763},{"NoteNumber":44,"Velocity":37,"Duration":87463,"SoundDuration":87463,"Delta":384412599},{"NoteNumber":70,"Velocity":41,"Duration":87463,"SoundDuration":87463,"Delta":384500062},{"NoteNumber":66,"Velocity":34,"Duration":87463,"SoundDuration":87463,"Delta":384500062},{"NoteNumber":68,"Velocity":46,"Duration":514689,"SoundDuration":514689,"Delta":384587526},{"NoteNumber":65,"Velocity":39,"Duration":514689,"SoundDuration":514689,"Delta":384587526},{"NoteNumber":56,"Velocity":40,"Duration":349853,"SoundDuration":349853,"Delta":384587526},{"NoteNumber":49,"Velocity":34,"Duration":349853,"SoundDuration":349853,"Delta":384587526},{"NoteNumber":37,"Velocity":38,"Duration":82417,"SoundDuration":82417,"Delta":384937380},{"NoteNumber":66,"Velocity":41,"Duration":87463,"SoundDuration":87463,"Delta":385102215},{"NoteNumber":63,"Velocity":34,"Duration":87463,"SoundDuration":87463,"Delta":385102215},{"NoteNumber":44,"Velocity":38,"Duration":87463,"SoundDuration":87463,"Delta":385102215},{"NoteNumber":65,"Velocity":41,"Duration":70754,"SoundDuration":70754,"Delta":385277142},{"NoteNumber":61,"Velocity":34,"Duration":70754,"SoundDuration":70754,"Delta":385277142},{"NoteNumber":56,"Velocity":40,"Duration":310523,"SoundDuration":310523,"Delta":385277142},{"NoteNumber":49,"Velocity":34,"Duration":310523,"SoundDuration":310523,"Delta":385277142},{"NoteNumber":66,"Velocity":41,"Duration":84506,"SoundDuration":84506,"Delta":385418651},{"NoteNumber":63,"Velocity":34,"Duration":84506,"SoundDuration":84506,"Delta":385418651},{"NoteNumber":68,"Velocity":48,"Duration":82417,"SoundDuration":82417,"Delta":385587665},{"NoteNumber":65,"Velocity":40,"Duration":82417,"SoundDuration":82417,"Delta":385587665},{"NoteNumber":37,"Velocity":37,"Duration":82417,"SoundDuration":82417,"Delta":385587665},{"NoteNumber":44,"Velocity":37,"Duration":87463,"SoundDuration":87463,"Delta":385752501},{"NoteNumber":70,"Velocity":41,"Duration":87463,"SoundDuration":87463,"Delta":385839964},{"NoteNumber":66,"Velocity":34,"Duration":87463,"SoundDuration":87463,"Delta":385839964},{"NoteNumber":68,"Velocity":46,"Duration":174926,"SoundDuration":174926,"Delta":385927428},{"NoteNumber":65,"Velocity":39,"Duration":174926,"SoundDuration":174926,"Delta":385927428},{"NoteNumber":56,"Velocity":40,"Duration":349853,"SoundDuration":349853,"Delta":385927428},{"NoteNumber":49,"Velocity":34,"Duration":349853,"SoundDuration":349853,"Delta":385927428},{"NoteNumber":37,"Velocity":38,"Duration":79787,"SoundDuration":79787,"Delta":386277282},{"NoteNumber":44,"Velocity":38,"Duration":91463,"SoundDuration":91463,"Delta":386436856},{"NoteNumber":56,"Velocity":40,"Duration":349853,"SoundDuration":349853,"Delta":386619783},{"NoteNumber":49,"Velocity":34,"Duration":349853,"SoundDuration":349853,"Delta":386619783},{"NoteNumber":37,"Velocity":37,"Duration":79787,"SoundDuration":79787,"Delta":386969637},{"NoteNumber":45,"Velocity":37,"Duration":91463,"SoundDuration":91463,"Delta":387129211},{"NoteNumber":76,"Velocity":50,"Duration":514689,"SoundDuration":514689,"Delta":387312138},{"NoteNumber":73,"Velocity":47,"Duration":514689,"SoundDuration":514689,"Delta":387312138},{"NoteNumber":64,"Velocity":42,"Duration":514689,"SoundDuration":514689,"Delta":387312138},{"NoteNumber":57,"Velocity":40,"Duration":349853,"SoundDuration":349853,"Delta":387312138},{"NoteNumber":49,"Velocity":34,"Duration":349853,"SoundDuration":349853,"Delta":387312138},{"NoteNumber":37,"Velocity":38,"Duration":82417,"SoundDuration":82417,"Delta":387661992},{"NoteNumber":74,"Velocity":44,"Duration":83798,"SoundDuration":83798,"Delta":387826827},{"NoteNumber":71,"Velocity":42,"Duration":83798,"SoundDuration":83798,"Delta":387826827},{"NoteNumber":45,"Velocity":38,"Duration":83798,"SoundDuration":83798,"Delta":387826827},{"NoteNumber":73,"Velocity":44,"Duration":70754,"SoundDuration":70754,"Delta":387994425},{"NoteNumber":69,"Velocity":42,"Duration":70754,"SoundDuration":70754,"Delta":387994425},{"NoteNumber":57,"Velocity":40,"Duration":317979,"SoundDuration":317979,"Delta":387994425},{"NoteNumber":49,"Velocity":34,"Duration":317979,"SoundDuration":317979,"Delta":387994425},{"NoteNumber":74,"Velocity":44,"Duration":88235,"SoundDuration":88235,"Delta":388135935},{"NoteNumber":71,"Velocity":42,"Duration":88235,"SoundDuration":88235,"Delta":388135935},{"NoteNumber":76,"Velocity":52,"Duration":82417,"SoundDuration":82417,"Delta":388312405},{"NoteNumber":73,"Velocity":49,"Duration":82417,"SoundDuration":82417,"Delta":388312405},{"NoteNumber":37,"Velocity":37,"Duration":82417,"SoundDuration":82417,"Delta":388312405},{"NoteNumber":45,"Velocity":37,"Duration":87463,"SoundDuration":87463,"Delta":388477240},{"NoteNumber":78,"Velocity":45,"Duration":87463,"SoundDuration":87463,"Delta":388564704},{"NoteNumber":74,"Velocity":43,"Duration":87463,"SoundDuration":87463,"Delta":388564704},{"NoteNumber":76,"Velocity":51,"Duration":514689,"SoundDuration":514689,"Delta":388652167},{"NoteNumber":73,"Velocity":48,"Duration":514689,"SoundDuration":514689,"Delta":388652167},{"NoteNumber":64,"Velocity":43,"Duration":514689,"SoundDuration":514689,"Delta":388652167},{"NoteNumber":57,"Velocity":40,"Duration":349853,"SoundDuration":349853,"Delta":388652167},{"NoteNumber":49,"Velocity":34,"Duration":349853,"SoundDuration":349853,"Delta":388652167},{"NoteNumber":37,"Velocity":38,"Duration":82417,"SoundDuration":82417,"Delta":389002021},{"NoteNumber":74,"Velocity":44,"Duration":83798,"SoundDuration":83798,"Delta":389166857},{"NoteNumber":71,"Velocity":42,"Duration":83798,"SoundDuration":83798,"Delta":389166857},{"NoteNumber":45,"Velocity":38,"Duration":83798,"SoundDuration":83798,"Delta":389166857},{"NoteNumber":73,"Velocity":44,"Duration":69284,"SoundDuration":69284,"Delta":389334454},{"NoteNumber":69,"Velocity":42,"Duration":69284,"SoundDuration":69284,"Delta":389334454},{"NoteNumber":57,"Velocity":40,"Duration":302055,"SoundDuration":302055,"Delta":389334454},{"NoteNumber":49,"Velocity":34,"Duration":302055,"SoundDuration":302055,"Delta":389334454},{"NoteNumber":74,"Velocity":42,"Duration":81743,"SoundDuration":81743,"Delta":389473023},{"NoteNumber":71,"Velocity":40,"Duration":81743,"SoundDuration":81743,"Delta":389473023},{"NoteNumber":76,"Velocity":50,"Duration":82417,"SoundDuration":82417,"Delta":389636510},{"NoteNumber":73,"Velocity":47,"Duration":82417,"SoundDuration":82417,"Delta":389636510},{"NoteNumber":37,"Velocity":37,"Duration":82417,"SoundDuration":82417,"Delta":389636510},{"NoteNumber":45,"Velocity":37,"Duration":87463,"SoundDuration":87463,"Delta":389801346},{"NoteNumber":78,"Velocity":44,"Duration":87463,"SoundDuration":87463,"Delta":389888809},{"NoteNumber":74,"Velocity":42,"Duration":87463,"SoundDuration":87463,"Delta":389888809},{"NoteNumber":76,"Velocity":49,"Duration":174926,"SoundDuration":174926,"Delta":389976273},{"NoteNumber":73,"Velocity":46,"Duration":174926,"SoundDuration":174926,"Delta":389976273},{"NoteNumber":64,"Velocity":41,"Duration":174926,"SoundDuration":174926,"Delta":389976273},{"NoteNumber":57,"Velocity":40,"Duration":349853,"SoundDuration":349853,"Delta":389976273},{"NoteNumber":49,"Velocity":34,"Duration":349853,"SoundDuration":349853,"Delta":389976273},{"NoteNumber":37,"Velocity":38,"Duration":82417,"SoundDuration":82417,"Delta":390326127},{"NoteNumber":45,"Velocity":38,"Duration":87463,"SoundDuration":87463,"Delta":390490962},{"NoteNumber":57,"Velocity":40,"Duration":349853,"SoundDuration":349853,"Delta":390665889},{"NoteNumber":49,"Velocity":34,"Duration":349853,"SoundDuration":349853,"Delta":390665889},{"NoteNumber":37,"Velocity":37,"Duration":82417,"SoundDuration":82417,"Delta":391015743},{"NoteNumber":49,"Velocity":37,"Duration":89820,"SoundDuration":89820,"Delta":391180578},{"NoteNumber":81,"Velocity":58,"Duration":511656,"SoundDuration":511656,"Delta":391360219},{"NoteNumber":78,"Velocity":54,"Duration":511656,"SoundDuration":511656,"Delta":391360219},{"NoteNumber":69,"Velocity":49,"Duration":511656,"SoundDuration":511656,"Delta":391360219},{"NoteNumber":62,"Velocity":40,"Duration":346820,"SoundDuration":346820,"Delta":391360219},{"NoteNumber":54,"Velocity":34,"Duration":346820,"SoundDuration":346820,"Delta":391360219},{"NoteNumber":37,"Velocity":38,"Duration":82417,"SoundDuration":82417,"Delta":391707040},{"NoteNumber":80,"Velocity":48,"Duration":83102,"SoundDuration":83102,"Delta":391871875},{"NoteNumber":76,"Velocity":45,"Duration":83102,"SoundDuration":83102,"Delta":391871875},{"NoteNumber":49,"Velocity":38,"Duration":83102,"SoundDuration":83102,"Delta":391871875},{"NoteNumber":78,"Velocity":48,"Duration":71258,"SoundDuration":71258,"Delta":392038080},{"NoteNumber":74,"Velocity":45,"Duration":71258,"SoundDuration":71258,"Delta":392038080},{"NoteNumber":62,"Velocity":40,"Duration":315928,"SoundDuration":315928,"Delta":392038080},{"NoteNumber":54,"Velocity":34,"Duration":315928,"SoundDuration":315928,"Delta":392038080},{"NoteNumber":80,"Velocity":49,"Duration":86705,"SoundDuration":86705,"Delta":392180598},{"NoteNumber":76,"Velocity":46,"Duration":86705,"SoundDuration":86705,"Delta":392180598},{"NoteNumber":81,"Velocity":61,"Duration":82417,"SoundDuration":82417,"Delta":392354008},{"NoteNumber":78,"Velocity":57,"Duration":82417,"SoundDuration":82417,"Delta":392354008},{"NoteNumber":37,"Velocity":37,"Duration":82417,"SoundDuration":82417,"Delta":392354008},{"NoteNumber":49,"Velocity":37,"Duration":87463,"SoundDuration":87463,"Delta":392518844},{"NoteNumber":83,"Velocity":52,"Duration":87463,"SoundDuration":87463,"Delta":392606307},{"NoteNumber":80,"Velocity":49,"Duration":87463,"SoundDuration":87463,"Delta":392606307},{"NoteNumber":78,"Velocity":56,"Duration":514689,"SoundDuration":514689,"Delta":392693771},{"NoteNumber":81,"Velocity":59,"Duration":514689,"SoundDuration":514689,"Delta":392693771},{"NoteNumber":69,"Velocity":50,"Duration":514689,"SoundDuration":514689,"Delta":392693771},{"NoteNumber":62,"Velocity":40,"Duration":349853,"SoundDuration":349853,"Delta":392693771},{"NoteNumber":54,"Velocity":34,"Duration":349853,"SoundDuration":349853,"Delta":392693771},{"NoteNumber":37,"Velocity":38,"Duration":82417,"SoundDuration":82417,"Delta":393043625},{"NoteNumber":80,"Velocity":48,"Duration":83102,"SoundDuration":83102,"Delta":393208460},{"NoteNumber":76,"Velocity":45,"Duration":83102,"SoundDuration":83102,"Delta":393208460},{"NoteNumber":49,"Velocity":38,"Duration":83102,"SoundDuration":83102,"Delta":393208460},{"NoteNumber":78,"Velocity":48,"Duration":70257,"SoundDuration":70257,"Delta":393374665},{"NoteNumber":74,"Velocity":45,"Duration":70257,"SoundDuration":70257,"Delta":393374665},{"NoteNumber":62,"Velocity":40,"Duration":320155,"SoundDuration":320155,"Delta":393374665},{"NoteNumber":54,"Velocity":34,"Duration":320155,"SoundDuration":320155,"Delta":393374665},{"NoteNumber":80,"Velocity":48,"Duration":89820,"SoundDuration":89820,"Delta":393515180},{"NoteNumber":76,"Velocity":45,"Duration":89820,"SoundDuration":89820,"Delta":393515180},{"NoteNumber":81,"Velocity":57,"Duration":82417,"SoundDuration":82417,"Delta":393694821},{"NoteNumber":78,"Velocity":48,"Duration":82417,"SoundDuration":82417,"Delta":393694821},{"NoteNumber":37,"Velocity":37,"Duration":82417,"SoundDuration":82417,"Delta":393694821},{"NoteNumber":49,"Velocity":37,"Duration":82417,"SoundDuration":82417,"Delta":393859656},{"NoteNumber":83,"Velocity":49,"Duration":82417,"SoundDuration":82417,"Delta":393942074},{"NoteNumber":80,"Velocity":41,"Duration":82417,"SoundDuration":82417,"Delta":393942074},{"NoteNumber":81,"Velocity":57,"Duration":76726,"SoundDuration":76726,"Delta":394024491},{"NoteNumber":78,"Velocity":48,"Duration":76726,"SoundDuration":76726,"Delta":394024491},{"NoteNumber":62,"Velocity":40,"Duration":306905,"SoundDuration":306905,"Delta":394024491},{"NoteNumber":54,"Velocity":34,"Duration":306905,"SoundDuration":306905,"Delta":394024491},{"NoteNumber":81,"Velocity":51,"Duration":76726,"SoundDuration":76726,"Delta":394254670},{"NoteNumber":78,"Velocity":43,"Duration":76726,"SoundDuration":76726,"Delta":394254670},{"NoteNumber":83,"Velocity":57,"Duration":79155,"SoundDuration":79155,"Delta":394331397},{"NoteNumber":80,"Velocity":48,"Duration":79155,"SoundDuration":79155,"Delta":394331397},{"NoteNumber":65,"Velocity":45,"Duration":79155,"SoundDuration":79155,"Delta":394331397},{"NoteNumber":71,"Velocity":41,"Duration":79155,"SoundDuration":79155,"Delta":394489708},{"NoteNumber":81,"Velocity":51,"Duration":79155,"SoundDuration":79155,"Delta":394568864},{"NoteNumber":78,"Velocity":43,"Duration":79155,"SoundDuration":79155,"Delta":394568864},{"NoteNumber":83,"Velocity":57,"Duration":79155,"SoundDuration":79155,"Delta":394648019},{"NoteNumber":80,"Velocity":48,"Duration":79155,"SoundDuration":79155,"Delta":394648019},{"NoteNumber":74,"Velocity":47,"Duration":316622,"SoundDuration":316622,"Delta":394648019},{"NoteNumber":85,"Velocity":53,"Duration":79155,"SoundDuration":79155,"Delta":394885486},{"NoteNumber":77,"Velocity":45,"Duration":79155,"SoundDuration":79155,"Delta":394885486},{"NoteNumber":86,"Velocity":58,"Duration":83102,"SoundDuration":83102,"Delta":394964642},{"NoteNumber":78,"Velocity":49,"Duration":83102,"SoundDuration":83102,"Delta":394964642},{"NoteNumber":61,"Velocity":45,"Duration":83102,"SoundDuration":83102,"Delta":394964642},{"NoteNumber":66,"Velocity":42,"Duration":83102,"SoundDuration":83102,"Delta":395130847},{"NoteNumber":81,"Velocity":51,"Duration":83102,"SoundDuration":83102,"Delta":395213949},{"NoteNumber":78,"Velocity":43,"Duration":83102,"SoundDuration":83102,"Delta":395213949},{"NoteNumber":80,"Velocity":59,"Duration":79155,"SoundDuration":79155,"Delta":395297052},{"NoteNumber":77,"Velocity":50,"Duration":79155,"SoundDuration":79155,"Delta":395297052},{"NoteNumber":69,"Velocity":46,"Duration":79155,"SoundDuration":79155,"Delta":395297052},{"NoteNumber":81,"Velocity":54,"Duration":79155,"SoundDuration":79155,"Delta":395534519},{"NoteNumber":78,"Velocity":45,"Duration":79155,"SoundDuration":79155,"Delta":395534519},{"NoteNumber":83,"Velocity":59,"Duration":79155,"SoundDuration":79155,"Delta":395613674},{"NoteNumber":80,"Velocity":50,"Duration":79155,"SoundDuration":79155,"Delta":395613674},{"NoteNumber":65,"Velocity":46,"Duration":79155,"SoundDuration":79155,"Delta":395613674},{"NoteNumber":71,"Velocity":41,"Duration":79155,"SoundDuration":79155,"Delta":395771986},{"NoteNumber":81,"Velocity":55,"Duration":79155,"SoundDuration":79155,"Delta":395851141},{"NoteNumber":78,"Velocity":46,"Duration":79155,"SoundDuration":79155,"Delta":395851141},{"NoteNumber":83,"Velocity":60,"Duration":79155,"SoundDuration":79155,"Delta":395930297},{"NoteNumber":80,"Velocity":51,"Duration":79155,"SoundDuration":79155,"Delta":395930297},{"NoteNumber":74,"Velocity":48,"Duration":79155,"SoundDuration":79155,"Delta":395930297},{"NoteNumber":85,"Velocity":55,"Duration":79155,"SoundDuration":79155,"Delta":396167764},{"NoteNumber":77,"Velocity":46,"Duration":79155,"SoundDuration":79155,"Delta":396167764},{"NoteNumber":86,"Velocity":60,"Duration":86705,"SoundDuration":86705,"Delta":396246919},{"NoteNumber":78,"Velocity":51,"Duration":86705,"SoundDuration":86705,"Delta":396246919},{"NoteNumber":61,"Velocity":47,"Duration":86705,"SoundDuration":86705,"Delta":396246919},{"NoteNumber":66,"Velocity":41,"Duration":86705,"SoundDuration":86705,"Delta":396420330},{"NoteNumber":92,"Velocity":65,"Duration":75566,"SoundDuration":75566,"Delta":396593740},{"NoteNumber":69,"Velocity":46,"Duration":75566,"SoundDuration":75566,"Delta":396593740},{"NoteNumber":93,"Velocity":58,"Duration":75566,"SoundDuration":75566,"Delta":396669307},{"NoteNumber":95,"Velocity":58,"Duration":75566,"SoundDuration":75566,"Delta":396744874},{"NoteNumber":93,"Velocity":58,"Duration":75566,"SoundDuration":75566,"Delta":396820441},{"NoteNumber":87,"Velocity":64,"Duration":160858,"SoundDuration":160858,"Delta":396896007},{"NoteNumber":90,"Velocity":64,"Duration":160858,"SoundDuration":160858,"Delta":396896007},{"NoteNumber":68,"Velocity":44,"Duration":80428,"SoundDuration":80428,"Delta":396896007},{"NoteNumber":85,"Velocity":59,"Duration":160857,"SoundDuration":160857,"Delta":397056865},{"NoteNumber":89,"Velocity":59,"Duration":160857,"SoundDuration":160857,"Delta":397056865},{"NoteNumber":75,"Velocity":38,"Duration":80428,"SoundDuration":80428,"Delta":397056865},{"NoteNumber":84,"Velocity":59,"Duration":160858,"SoundDuration":160858,"Delta":397217723},{"NoteNumber":87,"Velocity":59,"Duration":160858,"SoundDuration":160858,"Delta":397217723},{"NoteNumber":78,"Velocity":45,"Duration":80429,"SoundDuration":80429,"Delta":397217723},{"NoteNumber":80,"Velocity":60,"Duration":160858,"SoundDuration":160858,"Delta":397378581},{"NoteNumber":92,"Velocity":60,"Duration":160858,"SoundDuration":160858,"Delta":397378581},{"NoteNumber":90,"Velocity":66,"Duration":78533,"SoundDuration":78533,"Delta":397539439},{"NoteNumber":87,"Velocity":66,"Duration":78533,"SoundDuration":78533,"Delta":397539439},{"NoteNumber":61,"Velocity":46,"Duration":78533,"SoundDuration":78533,"Delta":397539439},{"NoteNumber":85,"Velocity":59,"Duration":78533,"SoundDuration":78533,"Delta":397696507},{"NoteNumber":89,"Velocity":59,"Duration":78533,"SoundDuration":78533,"Delta":397696507},{"NoteNumber":68,"Velocity":42,"Duration":78533,"SoundDuration":78533,"Delta":397696507},{"NoteNumber":84,"Velocity":59,"Duration":81081,"SoundDuration":81081,"Delta":397853575},{"NoteNumber":87,"Velocity":59,"Duration":81081,"SoundDuration":81081,"Delta":397853575},{"NoteNumber":72,"Velocity":45,"Duration":81081,"SoundDuration":81081,"Delta":397853575},{"NoteNumber":68,"Velocity":59,"Duration":81081,"SoundDuration":81081,"Delta":398015738},{"NoteNumber":80,"Velocity":59,"Duration":81081,"SoundDuration":81081,"Delta":398015738},{"NoteNumber":75,"Velocity":64,"Duration":76142,"SoundDuration":76142,"Delta":398177900},{"NoteNumber":78,"Velocity":64,"Duration":76142,"SoundDuration":76142,"Delta":398177900},{"NoteNumber":56,"Velocity":45,"Duration":76142,"SoundDuration":76142,"Delta":398177900},{"NoteNumber":73,"Velocity":57,"Duration":76142,"SoundDuration":76142,"Delta":398330184},{"NoteNumber":77,"Velocity":57,"Duration":76142,"SoundDuration":76142,"Delta":398330184},{"NoteNumber":63,"Velocity":42,"Duration":76142,"SoundDuration":76142,"Delta":398330184},{"NoteNumber":72,"Velocity":57,"Duration":81743,"SoundDuration":81743,"Delta":398482468},{"NoteNumber":75,"Velocity":57,"Duration":81743,"SoundDuration":81743,"Delta":398482468},{"NoteNumber":66,"Velocity":46,"Duration":81743,"SoundDuration":81743,"Delta":398482468},{"NoteNumber":68,"Velocity":58,"Duration":81743,"SoundDuration":81743,"Delta":398645956},{"NoteNumber":80,"Velocity":58,"Duration":81743,"SoundDuration":81743,"Delta":398645956},{"NoteNumber":73,"Velocity":64,"Duration":79787,"SoundDuration":79787,"Delta":398809444},{"NoteNumber":77,"Velocity":64,"Duration":79787,"SoundDuration":79787,"Delta":398809444},{"NoteNumber":37,"Velocity":48,"Duration":79787,"SoundDuration":79787,"Delta":398809444},{"NoteNumber":44,"Velocity":48,"Duration":83798,"SoundDuration":83798,"Delta":398969018},{"NoteNumber":68,"Velocity":50,"Duration":493506,"SoundDuration":493506,"Delta":399136616},{"NoteNumber":80,"Velocity":59,"Duration":493506,"SoundDuration":493506,"Delta":399136616},{"NoteNumber":77,"Velocity":50,"Duration":493506,"SoundDuration":493506,"Delta":399136616},{"NoteNumber":56,"Velocity":52,"Duration":335195,"SoundDuration":335195,"Delta":399136616},{"NoteNumber":49,"Velocity":44,"Duration":335195,"SoundDuration":335195,"Delta":399136616},{"NoteNumber":49,"Velocity":49,"Duration":79155,"SoundDuration":79155,"Delta":399471812},{"NoteNumber":66,"Velocity":44,"Duration":87463,"SoundDuration":87463,"Delta":399630123},{"NoteNumber":78,"Velocity":53,"Duration":87463,"SoundDuration":87463,"Delta":399630123},{"NoteNumber":75,"Velocity":44,"Duration":87463,"SoundDuration":87463,"Delta":399630123},{"NoteNumber":56,"Velocity":49,"Duration":87463,"SoundDuration":87463,"Delta":399630123},{"NoteNumber":65,"Velocity":44,"Duration":70257,"SoundDuration":70257,"Delta":399805050},{"NoteNumber":77,"Velocity":53,"Duration":70257,"SoundDuration":70257,"Delta":399805050},{"NoteNumber":73,"Velocity":44,"Duration":70257,"SoundDuration":70257,"Delta":399805050},{"NoteNumber":61,"Velocity":52,"Duration":298826,"SoundDuration":298826,"Delta":399805050},{"NoteNumber":66,"Velocity":44,"Duration":79155,"SoundDuration":79155,"Delta":399945565},{"NoteNumber":78,"Velocity":53,"Duration":79155,"SoundDuration":79155,"Delta":399945565},{"NoteNumber":75,"Velocity":44,"Duration":79155,"SoundDuration":79155,"Delta":399945565},{"NoteNumber":68,"Velocity":52,"Duration":79787,"SoundDuration":79787,"Delta":400103876},{"NoteNumber":80,"Velocity":62,"Duration":79787,"SoundDuration":79787,"Delta":400103876},{"NoteNumber":77,"Velocity":52,"Duration":79787,"SoundDuration":79787,"Delta":400103876},{"NoteNumber":37,"Velocity":48,"Duration":79787,"SoundDuration":79787,"Delta":400103876},{"NoteNumber":44,"Velocity":48,"Duration":83102,"SoundDuration":83102,"Delta":400263451},{"NoteNumber":70,"Velocity":44,"Duration":83102,"SoundDuration":83102,"Delta":400346553},{"NoteNumber":82,"Velocity":53,"Duration":83102,"SoundDuration":83102,"Delta":400346553},{"NoteNumber":78,"Velocity":44,"Duration":83102,"SoundDuration":83102,"Delta":400346553},{"NoteNumber":68,"Velocity":50,"Duration":497245,"SoundDuration":497245,"Delta":400429656},{"NoteNumber":80,"Velocity":59,"Duration":497245,"SoundDuration":497245,"Delta":400429656},{"NoteNumber":77,"Velocity":50,"Duration":497245,"SoundDuration":497245,"Delta":400429656},{"NoteNumber":56,"Velocity":52,"Duration":332409,"SoundDuration":332409,"Delta":400429656},{"NoteNumber":49,"Velocity":44,"Duration":332409,"SoundDuration":332409,"Delta":400429656},{"NoteNumber":49,"Velocity":49,"Duration":82417,"SoundDuration":82417,"Delta":400762066},{"NoteNumber":66,"Velocity":44,"Duration":87463,"SoundDuration":87463,"Delta":400926901},{"NoteNumber":78,"Velocity":53,"Duration":87463,"SoundDuration":87463,"Delta":400926901},{"NoteNumber":75,"Velocity":44,"Duration":87463,"SoundDuration":87463,"Delta":400926901},{"NoteNumber":56,"Velocity":49,"Duration":87463,"SoundDuration":87463,"Delta":400926901},{"NoteNumber":65,"Velocity":44,"Duration":70754,"SoundDuration":70754,"Delta":401101828},{"NoteNumber":77,"Velocity":53,"Duration":70754,"SoundDuration":70754,"Delta":401101828},{"NoteNumber":73,"Velocity":44,"Duration":70754,"SoundDuration":70754,"Delta":401101828},{"NoteNumber":61,"Velocity":52,"Duration":296148,"SoundDuration":296148,"Delta":401101828},{"NoteNumber":66,"Velocity":44,"Duration":77319,"SoundDuration":77319,"Delta":401243338},{"NoteNumber":78,"Velocity":53,"Duration":77319,"SoundDuration":77319,"Delta":401243338},{"NoteNumber":75,"Velocity":44,"Duration":77319,"SoundDuration":77319,"Delta":401243338},{"NoteNumber":68,"Velocity":52,"Duration":79155,"SoundDuration":79155,"Delta":401397977},{"NoteNumber":80,"Velocity":62,"Duration":79155,"SoundDuration":79155,"Delta":401397977},{"NoteNumber":77,"Velocity":52,"Duration":79155,"SoundDuration":79155,"Delta":401397977},{"NoteNumber":37,"Velocity":48,"Duration":79155,"SoundDuration":79155,"Delta":401397977},{"NoteNumber":44,"Velocity":48,"Duration":83798,"SoundDuration":83798,"Delta":401556288},{"NoteNumber":70,"Velocity":44,"Duration":83798,"SoundDuration":83798,"Delta":401640087},{"NoteNumber":82,"Velocity":53,"Duration":83798,"SoundDuration":83798,"Delta":401640087},{"NoteNumber":78,"Velocity":44,"Duration":83798,"SoundDuration":83798,"Delta":401640087},{"NoteNumber":68,"Velocity":50,"Duration":167597,"SoundDuration":167597,"Delta":401723886},{"NoteNumber":80,"Velocity":59,"Duration":167597,"SoundDuration":167597,"Delta":401723886},{"NoteNumber":77,"Velocity":50,"Duration":167597,"SoundDuration":167597,"Delta":401723886},{"NoteNumber":56,"Velocity":52,"Duration":335195,"SoundDuration":335195,"Delta":401723886},{"NoteNumber":49,"Velocity":44,"Duration":335195,"SoundDuration":335195,"Delta":401723886},{"NoteNumber":37,"Velocity":48,"Duration":76142,"SoundDuration":76142,"Delta":402059081},{"NoteNumber":45,"Velocity":48,"Duration":88235,"SoundDuration":88235,"Delta":402211366},{"NoteNumber":88,"Velocity":71,"Duration":491984,"SoundDuration":491984,"Delta":402387836},{"NoteNumber":85,"Velocity":67,"Duration":491984,"SoundDuration":491984,"Delta":402387836},{"NoteNumber":76,"Velocity":59,"Duration":491984,"SoundDuration":491984,"Delta":402387836},{"NoteNumber":57,"Velocity":52,"Duration":332409,"SoundDuration":332409,"Delta":402387836},{"NoteNumber":49,"Velocity":44,"Duration":332409,"SoundDuration":332409,"Delta":402387836},{"NoteNumber":49,"Velocity":49,"Duration":79787,"SoundDuration":79787,"Delta":402720246},{"NoteNumber":74,"Velocity":59,"Duration":82417,"SoundDuration":82417,"Delta":402879821},{"NoteNumber":86,"Velocity":62,"Duration":82417,"SoundDuration":82417,"Delta":402879821},{"NoteNumber":83,"Velocity":59,"Duration":82417,"SoundDuration":82417,"Delta":402879821},{"NoteNumber":57,"Velocity":49,"Duration":82417,"SoundDuration":82417,"Delta":402879821},{"NoteNumber":73,"Velocity":59,"Duration":71258,"SoundDuration":71258,"Delta":403044656},{"NoteNumber":85,"Velocity":62,"Duration":71258,"SoundDuration":71258,"Delta":403044656},{"NoteNumber":81,"Velocity":59,"Duration":71258,"SoundDuration":71258,"Delta":403044656},{"NoteNumber":64,"Velocity":52,"Duration":297157,"SoundDuration":297157,"Delta":403044656},{"NoteNumber":74,"Velocity":59,"Duration":77319,"SoundDuration":77319,"Delta":403187174},{"NoteNumber":86,"Velocity":62,"Duration":77319,"SoundDuration":77319,"Delta":403187174},{"NoteNumber":83,"Velocity":59,"Duration":77319,"SoundDuration":77319,"Delta":403187174},{"NoteNumber":76,"Velocity":69,"Duration":79155,"SoundDuration":79155,"Delta":403341813},{"NoteNumber":88,"Velocity":73,"Duration":79155,"SoundDuration":79155,"Delta":403341813},{"NoteNumber":85,"Velocity":69,"Duration":79155,"SoundDuration":79155,"Delta":403341813},{"NoteNumber":37,"Velocity":48,"Duration":79155,"SoundDuration":79155,"Delta":403341813},{"NoteNumber":45,"Velocity":48,"Duration":83798,"SoundDuration":83798,"Delta":403500124},{"NoteNumber":78,"Velocity":60,"Duration":83798,"SoundDuration":83798,"Delta":403583923},{"NoteNumber":90,"Velocity":63,"Duration":83798,"SoundDuration":83798,"Delta":403583923},{"NoteNumber":86,"Velocity":60,"Duration":83798,"SoundDuration":83798,"Delta":403583923},{"NoteNumber":88,"Velocity":72,"Duration":493506,"SoundDuration":493506,"Delta":403667722},{"NoteNumber":85,"Velocity":68,"Duration":493506,"SoundDuration":493506,"Delta":403667722},{"NoteNumber":76,"Velocity":60,"Duration":493506,"SoundDuration":493506,"Delta":403667722},{"NoteNumber":57,"Velocity":52,"Duration":335195,"SoundDuration":335195,"Delta":403667722},{"NoteNumber":49,"Velocity":44,"Duration":335195,"SoundDuration":335195,"Delta":403667722},{"NoteNumber":49,"Velocity":49,"Duration":79155,"SoundDuration":79155,"Delta":404002917},{"NoteNumber":74,"Velocity":59,"Duration":82417,"SoundDuration":82417,"Delta":404161229},{"NoteNumber":86,"Velocity":62,"Duration":82417,"SoundDuration":82417,"Delta":404161229},{"NoteNumber":83,"Velocity":59,"Duration":82417,"SoundDuration":82417,"Delta":404161229},{"NoteNumber":57,"Velocity":49,"Duration":82417,"SoundDuration":82417,"Delta":404161229},{"NoteNumber":73,"Velocity":59,"Duration":70257,"SoundDuration":70257,"Delta":404326064},{"NoteNumber":85,"Velocity":62,"Duration":70257,"SoundDuration":70257,"Delta":404326064},{"NoteNumber":81,"Velocity":59,"Duration":70257,"SoundDuration":70257,"Delta":404326064},{"NoteNumber":64,"Velocity":52,"Duration":292799,"SoundDuration":292799,"Delta":404326064},{"NoteNumber":74,"Velocity":57,"Duration":76142,"SoundDuration":76142,"Delta":404466579},{"NoteNumber":86,"Velocity":59,"Duration":76142,"SoundDuration":76142,"Delta":404466579},{"NoteNumber":83,"Velocity":57,"Duration":76142,"SoundDuration":76142,"Delta":404466579},{"NoteNumber":76,"Velocity":67,"Duration":79787,"SoundDuration":79787,"Delta":404618863},{"NoteNumber":88,"Velocity":71,"Duration":79787,"SoundDuration":79787,"Delta":404618863},{"NoteNumber":85,"Velocity":67,"Duration":79787,"SoundDuration":79787,"Delta":404618863},{"NoteNumber":37,"Velocity":48,"Duration":79787,"SoundDuration":79787,"Delta":404618863},{"NoteNumber":45,"Velocity":48,"Duration":83798,"SoundDuration":83798,"Delta":404778438},{"NoteNumber":78,"Velocity":59,"Duration":83798,"SoundDuration":83798,"Delta":404862237},{"NoteNumber":90,"Velocity":62,"Duration":83798,"SoundDuration":83798,"Delta":404862237},{"NoteNumber":86,"Velocity":59,"Duration":83798,"SoundDuration":83798,"Delta":404862237},{"NoteNumber":88,"Velocity":69,"Duration":167597,"SoundDuration":167597,"Delta":404946036},{"NoteNumber":85,"Velocity":64,"Duration":167597,"SoundDuration":167597,"Delta":404946036},{"NoteNumber":76,"Velocity":58,"Duration":167597,"SoundDuration":167597,"Delta":404946036},{"NoteNumber":57,"Velocity":52,"Duration":335195,"SoundDuration":335195,"Delta":404946036},{"NoteNumber":49,"Velocity":44,"Duration":335195,"SoundDuration":335195,"Delta":404946036},{"NoteNumber":37,"Velocity":48,"Duration":76726,"SoundDuration":76726,"Delta":405281231},{"NoteNumber":45,"Velocity":48,"Duration":89020,"SoundDuration":89020,"Delta":405434684},{"NoteNumber":93,"Velocity":82,"Duration":493506,"SoundDuration":493506,"Delta":405612725},{"NoteNumber":90,"Velocity":77,"Duration":493506,"SoundDuration":493506,"Delta":405612725},{"NoteNumber":81,"Velocity":69,"Duration":493506,"SoundDuration":493506,"Delta":405612725},{"NoteNumber":57,"Velocity":52,"Duration":335195,"SoundDuration":335195,"Delta":405612725},{"NoteNumber":49,"Velocity":44,"Duration":335195,"SoundDuration":335195,"Delta":405612725},{"NoteNumber":49,"Velocity":49,"Duration":79155,"SoundDuration":79155,"Delta":405947921},{"NoteNumber":80,"Velocity":63,"Duration":82417,"SoundDuration":82417,"Delta":406106232},{"NoteNumber":92,"Velocity":68,"Duration":82417,"SoundDuration":82417,"Delta":406106232},{"NoteNumber":88,"Velocity":63,"Duration":82417,"SoundDuration":82417,"Delta":406106232},{"NoteNumber":54,"Velocity":49,"Duration":82417,"SoundDuration":82417,"Delta":406106232},{"NoteNumber":78,"Velocity":63,"Duration":69284,"SoundDuration":69284,"Delta":406271067},{"NoteNumber":90,"Velocity":68,"Duration":69284,"SoundDuration":69284,"Delta":406271067},{"NoteNumber":86,"Velocity":63,"Duration":69284,"SoundDuration":69284,"Delta":406271067},{"NoteNumber":62,"Velocity":52,"Duration":290852,"SoundDuration":290852,"Delta":406271067},{"NoteNumber":57,"Velocity":44,"Duration":290852,"SoundDuration":290852,"Delta":406271067},{"NoteNumber":80,"Velocity":64,"Duration":76142,"SoundDuration":76142,"Delta":406409636},{"NoteNumber":92,"Velocity":69,"Duration":76142,"SoundDuration":76142,"Delta":406409636},{"NoteNumber":88,"Velocity":64,"Duration":76142,"SoundDuration":76142,"Delta":406409636},{"NoteNumber":81,"Velocity":70,"Duration":78533,"SoundDuration":78533,"Delta":406561920},{"NoteNumber":93,"Velocity":82,"Duration":78533,"SoundDuration":78533,"Delta":406561920},{"NoteNumber":90,"Velocity":74,"Duration":78533,"SoundDuration":78533,"Delta":406561920},{"NoteNumber":37,"Velocity":48,"Duration":78533,"SoundDuration":78533,"Delta":406561920},{"NoteNumber":45,"Velocity":48,"Duration":83798,"SoundDuration":83798,"Delta":406718988},{"NoteNumber":83,"Velocity":69,"Duration":83798,"SoundDuration":83798,"Delta":406802787},{"NoteNumber":95,"Velocity":73,"Duration":83798,"SoundDuration":83798,"Delta":406802787},{"NoteNumber":92,"Velocity":69,"Duration":83798,"SoundDuration":83798,"Delta":406802787},{"NoteNumber":90,"Velocity":79,"Duration":494770,"SoundDuration":494770,"Delta":406886586},{"NoteNumber":93,"Velocity":83,"Duration":494770,"SoundDuration":494770,"Delta":406886586},{"NoteNumber":81,"Velocity":71,"Duration":494770,"SoundDuration":494770,"Delta":406886586},{"NoteNumber":57,"Velocity":52,"Duration":335195,"SoundDuration":335195,"Delta":406886586},{"NoteNumber":49,"Velocity":44,"Duration":335195,"SoundDuration":335195,"Delta":406886586},{"NoteNumber":49,"Velocity":49,"Duration":79787,"SoundDuration":79787,"Delta":407221781},{"NoteNumber":80,"Velocity":63,"Duration":79155,"SoundDuration":79155,"Delta":407381356},{"NoteNumber":92,"Velocity":68,"Duration":79155,"SoundDuration":79155,"Delta":407381356},{"NoteNumber":88,"Velocity":63,"Duration":79155,"SoundDuration":79155,"Delta":407381356},{"NoteNumber":54,"Velocity":49,"Duration":79155,"SoundDuration":79155,"Delta":407381356},{"NoteNumber":78,"Velocity":63,"Duration":69284,"SoundDuration":69284,"Delta":407539667},{"NoteNumber":90,"Velocity":68,"Duration":69284,"SoundDuration":69284,"Delta":407539667},{"NoteNumber":86,"Velocity":63,"Duration":69284,"SoundDuration":69284,"Delta":407539667},{"NoteNumber":62,"Velocity":52,"Duration":290852,"SoundDuration":290852,"Delta":407539667},{"NoteNumber":57,"Velocity":44,"Duration":290852,"SoundDuration":290852,"Delta":407539667},{"NoteNumber":80,"Velocity":63,"Duration":76142,"SoundDuration":76142,"Delta":407678235},{"NoteNumber":92,"Velocity":68,"Duration":76142,"SoundDuration":76142,"Delta":407678235},{"NoteNumber":88,"Velocity":63,"Duration":76142,"SoundDuration":76142,"Delta":407678235},{"NoteNumber":81,"Velocity":68,"Duration":79155,"SoundDuration":79155,"Delta":407830519},{"NoteNumber":93,"Velocity":81,"Duration":79155,"SoundDuration":79155,"Delta":407830519},{"NoteNumber":90,"Velocity":68,"Duration":79155,"SoundDuration":79155,"Delta":407830519},{"NoteNumber":37,"Velocity":48,"Duration":79155,"SoundDuration":79155,"Delta":407830519},{"NoteNumber":45,"Velocity":48,"Duration":79155,"SoundDuration":79155,"Delta":407988831},{"NoteNumber":83,"Velocity":58,"Duration":79155,"SoundDuration":79155,"Delta":408067986},{"NoteNumber":95,"Velocity":69,"Duration":79155,"SoundDuration":79155,"Delta":408067986},{"NoteNumber":92,"Velocity":58,"Duration":79155,"SoundDuration":79155,"Delta":408067986},{"NoteNumber":81,"Velocity":68,"Duration":74441,"SoundDuration":74441,"Delta":408147142},{"NoteNumber":93,"Velocity":81,"Duration":74441,"SoundDuration":74441,"Delta":408147142},{"NoteNumber":90,"Velocity":68,"Duration":74441,"SoundDuration":74441,"Delta":408147142},{"NoteNumber":57,"Velocity":52,"Duration":297766,"SoundDuration":297766,"Delta":408147142},{"NoteNumber":49,"Velocity":44,"Duration":297766,"SoundDuration":297766,"Delta":408147142},{"NoteNumber":81,"Velocity":66,"Duration":74441,"SoundDuration":74441,"Delta":408370467},{"NoteNumber":78,"Velocity":55,"Duration":74441,"SoundDuration":74441,"Delta":408370467},{"NoteNumber":83,"Velocity":74,"Duration":77319,"SoundDuration":77319,"Delta":408444908},{"NoteNumber":80,"Velocity":62,"Duration":77319,"SoundDuration":77319,"Delta":408444908},{"NoteNumber":65,"Velocity":58,"Duration":77319,"SoundDuration":77319,"Delta":408444908},{"NoteNumber":71,"Velocity":53,"Duration":77319,"SoundDuration":77319,"Delta":408599548},{"NoteNumber":81,"Velocity":66,"Duration":77319,"SoundDuration":77319,"Delta":408676867},{"NoteNumber":78,"Velocity":55,"Duration":77319,"SoundDuration":77319,"Delta":408676867},{"NoteNumber":83,"Velocity":74,"Duration":77319,"SoundDuration":77319,"Delta":408754187},{"NoteNumber":80,"Velocity":62,"Duration":77319,"SoundDuration":77319,"Delta":408754187},{"NoteNumber":74,"Velocity":61,"Duration":309278,"SoundDuration":309278,"Delta":408754187},{"NoteNumber":85,"Velocity":68,"Duration":77319,"SoundDuration":77319,"Delta":408986146},{"NoteNumber":77,"Velocity":58,"Duration":77319,"SoundDuration":77319,"Delta":408986146},{"NoteNumber":86,"Velocity":75,"Duration":81081,"SoundDuration":81081,"Delta":409063465},{"NoteNumber":78,"Velocity":63,"Duration":81081,"SoundDuration":81081,"Delta":409063465},{"NoteNumber":61,"Velocity":58,"Duration":81081,"SoundDuration":81081,"Delta":409063465},{"NoteNumber":66,"Velocity":54,"Duration":81081,"SoundDuration":81081,"Delta":409225628},{"NoteNumber":81,"Velocity":66,"Duration":81081,"SoundDuration":81081,"Delta":409306709},{"NoteNumber":78,"Velocity":55,"Duration":81081,"SoundDuration":81081,"Delta":409306709},{"NoteNumber":80,"Velocity":76,"Duration":74441,"SoundDuration":74441,"Delta":409387790},{"NoteNumber":77,"Velocity":65,"Duration":74441,"SoundDuration":74441,"Delta":409387790},{"NoteNumber":69,"Velocity":59,"Duration":74441,"SoundDuration":74441,"Delta":409387790},{"NoteNumber":81,"Velocity":70,"Duration":74441,"SoundDuration":74441,"Delta":409611115},{"NoteNumber":78,"Velocity":58,"Duration":74441,"SoundDuration":74441,"Delta":409611115},{"NoteNumber":83,"Velocity":76,"Duration":74441,"SoundDuration":74441,"Delta":409685556},{"NoteNumber":80,"Velocity":65,"Duration":74441,"SoundDuration":74441,"Delta":409685556},{"NoteNumber":65,"Velocity":59,"Duration":74441,"SoundDuration":74441,"Delta":409685556},{"NoteNumber":71,"Velocity":53,"Duration":74441,"SoundDuration":74441,"Delta":409834440},{"NoteNumber":81,"Velocity":71,"Duration":74441,"SoundDuration":74441,"Delta":409908881},{"NoteNumber":78,"Velocity":59,"Duration":74441,"SoundDuration":74441,"Delta":409908881},{"NoteNumber":83,"Velocity":78,"Duration":74441,"SoundDuration":74441,"Delta":409983323},{"NoteNumber":80,"Velocity":66,"Duration":74441,"SoundDuration":74441,"Delta":409983323},{"NoteNumber":74,"Velocity":62,"Duration":74441,"SoundDuration":74441,"Delta":409983323},{"NoteNumber":85,"Velocity":71,"Duration":74441,"SoundDuration":74441,"Delta":410206648},{"NoteNumber":77,"Velocity":59,"Duration":74441,"SoundDuration":74441,"Delta":410206648},{"NoteNumber":86,"Velocity":78,"Duration":81743,"SoundDuration":81743,"Delta":410281089},{"NoteNumber":78,"Velocity":66,"Duration":81743,"SoundDuration":81743,"Delta":410281089},{"NoteNumber":61,"Velocity":61,"Duration":81743,"SoundDuration":81743,"Delta":410281089},{"NoteNumber":66,"Velocity":53,"Duration":81743,"SoundDuration":81743,"Delta":410444577},{"NoteNumber":92,"Velocity":79,"Duration":72815,"SoundDuration":72815,"Delta":410608065},{"NoteNumber":69,"Velocity":59,"Duration":72815,"SoundDuration":72815,"Delta":410608065},{"NoteNumber":93,"Velocity":72,"Duration":72815,"SoundDuration":72815,"Delta":410680880},{"NoteNumber":95,"Velocity":72,"Duration":72815,"SoundDuration":72815,"Delta":410753696},{"NoteNumber":93,"Velocity":72,"Duration":72815,"SoundDuration":72815,"Delta":410826511},{"NoteNumber":87,"Velocity":78,"Duration":155844,"SoundDuration":155844,"Delta":410899327},{"NoteNumber":90,"Velocity":78,"Duration":155844,"SoundDuration":155844,"Delta":410899327},{"NoteNumber":68,"Velocity":57,"Duration":77922,"SoundDuration":77922,"Delta":410899327},{"NoteNumber":85,"Velocity":72,"Duration":155844,"SoundDuration":155844,"Delta":411055171},{"NoteNumber":89,"Velocity":72,"Duration":155844,"SoundDuration":155844,"Delta":411055171},{"NoteNumber":75,"Velocity":49,"Duration":77922,"SoundDuration":77922,"Delta":411055171},{"NoteNumber":84,"Velocity":72,"Duration":155844,"SoundDuration":155844,"Delta":411211015},{"NoteNumber":87,"Velocity":72,"Duration":155844,"SoundDuration":155844,"Delta":411211015},{"NoteNumber":78,"Velocity":58,"Duration":77922,"SoundDuration":77922,"Delta":411211015},{"NoteNumber":80,"Velocity":74,"Duration":155844,"SoundDuration":155844,"Delta":411366860},{"NoteNumber":92,"Velocity":74,"Duration":155844,"SoundDuration":155844,"Delta":411366860},{"NoteNumber":90,"Velocity":80,"Duration":75566,"SoundDuration":75566,"Delta":411522704},{"NoteNumber":87,"Velocity":80,"Duration":75566,"SoundDuration":75566,"Delta":411522704},{"NoteNumber":61,"Velocity":59,"Duration":75566,"SoundDuration":75566,"Delta":411522704},{"NoteNumber":85,"Velocity":72,"Duration":75566,"SoundDuration":75566,"Delta":411673837},{"NoteNumber":89,"Velocity":72,"Duration":75566,"SoundDuration":75566,"Delta":411673837},{"NoteNumber":68,"Velocity":54,"Duration":75566,"SoundDuration":75566,"Delta":411673837},{"NoteNumber":84,"Velocity":72,"Duration":81081,"SoundDuration":81081,"Delta":411824971},{"NoteNumber":87,"Velocity":72,"Duration":81081,"SoundDuration":81081,"Delta":411824971},{"NoteNumber":72,"Velocity":58,"Duration":81081,"SoundDuration":81081,"Delta":411824971},{"NoteNumber":68,"Velocity":72,"Duration":81081,"SoundDuration":81081,"Delta":411987133},{"NoteNumber":80,"Velocity":72,"Duration":81081,"SoundDuration":81081,"Delta":411987133},{"NoteNumber":75,"Velocity":78,"Duration":75566,"SoundDuration":75566,"Delta":412149295},{"NoteNumber":78,"Velocity":78,"Duration":75566,"SoundDuration":75566,"Delta":412149295},{"NoteNumber":56,"Velocity":58,"Duration":75566,"SoundDuration":75566,"Delta":412149295},{"NoteNumber":73,"Velocity":64,"Duration":75566,"SoundDuration":75566,"Delta":412300429},{"NoteNumber":77,"Velocity":64,"Duration":75566,"SoundDuration":75566,"Delta":412300429},{"NoteNumber":63,"Velocity":54,"Duration":75566,"SoundDuration":75566,"Delta":412300429},{"NoteNumber":72,"Velocity":64,"Duration":81743,"SoundDuration":81743,"Delta":412451562},{"NoteNumber":75,"Velocity":64,"Duration":81743,"SoundDuration":81743,"Delta":412451562},{"NoteNumber":66,"Velocity":59,"Duration":81743,"SoundDuration":81743,"Delta":412451562},{"NoteNumber":68,"Velocity":64,"Duration":99667,"SoundDuration":99667,"Delta":412615050},{"NoteNumber":80,"Velocity":64,"Duration":99667,"SoundDuration":99667,"Delta":412615050},{"NoteNumber":73,"Velocity":45,"Duration":82417,"SoundDuration":82417,"Delta":412814386},{"NoteNumber":77,"Velocity":50,"Duration":82417,"SoundDuration":82417,"Delta":412814386},{"NoteNumber":49,"Velocity":40,"Duration":82417,"SoundDuration":82417,"Delta":412814386},{"NoteNumber":56,"Velocity":35,"Duration":82417,"SoundDuration":82417,"Delta":412979221},{"NoteNumber":89,"Velocity":55,"Duration":485514,"SoundDuration":485514,"Delta":413144056},{"NoteNumber":92,"Velocity":55,"Duration":485514,"SoundDuration":485514,"Delta":413144056},{"NoteNumber":68,"Velocity":35,"Duration":82417,"SoundDuration":82417,"Delta":413144056},{"NoteNumber":61,"Velocity":35,"Duration":82417,"SoundDuration":82417,"Delta":413144056},{"NoteNumber":56,"Velocity":35,"Duration":82417,"SoundDuration":82417,"Delta":413308891},{"NoteNumber":49,"Velocity":40,"Duration":77922,"SoundDuration":77922,"Delta":413473727},{"NoteNumber":94,"Velocity":57,"Duration":72815,"SoundDuration":72815,"Delta":413629571},{"NoteNumber":97,"Velocity":57,"Duration":72815,"SoundDuration":72815,"Delta":413629571},{"NoteNumber":56,"Velocity":36,"Duration":72815,"SoundDuration":72815,"Delta":413629571},{"NoteNumber":92,"Velocity":54,"Duration":77922,"SoundDuration":77922,"Delta":413775202},{"NoteNumber":96,"Velocity":54,"Duration":77922,"SoundDuration":77922,"Delta":413775202},{"NoteNumber":68,"Velocity":36,"Duration":77922,"SoundDuration":77922,"Delta":413775202},{"NoteNumber":61,"Velocity":36,"Duration":77922,"SoundDuration":77922,"Delta":413775202},{"NoteNumber":94,"Velocity":54,"Duration":77922,"SoundDuration":77922,"Delta":413931046},{"NoteNumber":90,"Velocity":54,"Duration":77922,"SoundDuration":77922,"Delta":413931046},{"NoteNumber":56,"Velocity":37,"Duration":77922,"SoundDuration":77922,"Delta":413931046},{"NoteNumber":89,"Velocity":47,"Duration":82417,"SoundDuration":82417,"Delta":414086890},{"NoteNumber":92,"Velocity":52,"Duration":82417,"SoundDuration":82417,"Delta":414086890},{"NoteNumber":49,"Velocity":40,"Duration":82417,"SoundDuration":82417,"Delta":414086890},{"NoteNumber":56,"Velocity":35,"Duration":82417,"SoundDuration":82417,"Delta":414251726},{"NoteNumber":77,"Velocity":53,"Duration":463917,"SoundDuration":463917,"Delta":414416561},{"NoteNumber":80,"Velocity":53,"Duration":463917,"SoundDuration":463917,"Delta":414416561},{"NoteNumber":68,"Velocity":35,"Duration":77319,"SoundDuration":77319,"Delta":414416561},{"NoteNumber":61,"Velocity":35,"Duration":77319,"SoundDuration":77319,"Delta":414416561},{"NoteNumber":56,"Velocity":35,"Duration":77319,"SoundDuration":77319,"Delta":414571200},{"NoteNumber":49,"Velocity":40,"Duration":77319,"SoundDuration":77319,"Delta":414725839},{"NoteNumber":75,"Velocity":55,"Duration":80428,"SoundDuration":80428,"Delta":414880479},{"NoteNumber":78,"Velocity":55,"Duration":80428,"SoundDuration":80428,"Delta":414880479},{"NoteNumber":56,"Velocity":36,"Duration":80428,"SoundDuration":80428,"Delta":414880479},{"NoteNumber":73,"Velocity":55,"Duration":77319,"SoundDuration":77319,"Delta":415041337},{"NoteNumber":77,"Velocity":55,"Duration":77319,"SoundDuration":77319,"Delta":415041337},{"NoteNumber":68,"Velocity":36,"Duration":77319,"SoundDuration":77319,"Delta":415041337},{"NoteNumber":60,"Velocity":36,"Duration":77319,"SoundDuration":77319,"Delta":415041337},{"NoteNumber":75,"Velocity":55,"Duration":83102,"SoundDuration":83102,"Delta":415195976},{"NoteNumber":68,"Velocity":55,"Duration":83102,"SoundDuration":83102,"Delta":415195976},{"NoteNumber":56,"Velocity":37,"Duration":83102,"SoundDuration":83102,"Delta":415195976},{"NoteNumber":73,"Velocity":45,"Duration":82417,"SoundDuration":82417,"Delta":415362181},{"NoteNumber":77,"Velocity":50,"Duration":82417,"SoundDuration":82417,"Delta":415362181},{"NoteNumber":49,"Velocity":40,"Duration":82417,"SoundDuration":82417,"Delta":415362181},{"NoteNumber":56,"Velocity":35,"Duration":82417,"SoundDuration":82417,"Delta":415527016},{"NoteNumber":89,"Velocity":55,"Duration":463917,"SoundDuration":463917,"Delta":415691851},{"NoteNumber":92,"Velocity":55,"Duration":463917,"SoundDuration":463917,"Delta":415691851},{"NoteNumber":68,"Velocity":35,"Duration":77319,"SoundDuration":77319,"Delta":415691851},{"NoteNumber":61,"Velocity":35,"Duration":77319,"SoundDuration":77319,"Delta":415691851},{"NoteNumber":56,"Velocity":35,"Duration":77319,"SoundDuration":77319,"Delta":415846491},{"NoteNumber":49,"Velocity":40,"Duration":77319,"SoundDuration":77319,"Delta":416001130},{"NoteNumber":94,"Velocity":57,"Duration":71770,"SoundDuration":71770,"Delta":416155769},{"NoteNumber":97,"Velocity":57,"Duration":71770,"SoundDuration":71770,"Delta":416155769},{"NoteNumber":56,"Velocity":36,"Duration":71770,"SoundDuration":71770,"Delta":416155769},{"NoteNumber":92,"Velocity":54,"Duration":76726,"SoundDuration":76726,"Delta":416299310},{"NoteNumber":96,"Velocity":54,"Duration":76726,"SoundDuration":76726,"Delta":416299310},{"NoteNumber":68,"Velocity":36,"Duration":76726,"SoundDuration":76726,"Delta":416299310},{"NoteNumber":61,"Velocity":36,"Duration":76726,"SoundDuration":76726,"Delta":416299310},{"NoteNumber":94,"Velocity":54,"Duration":76726,"SoundDuration":76726,"Delta":416452763},{"NoteNumber":90,"Velocity":54,"Duration":76726,"SoundDuration":76726,"Delta":416452763},{"NoteNumber":56,"Velocity":37,"Duration":76726,"SoundDuration":76726,"Delta":416452763},{"NoteNumber":89,"Velocity":47,"Duration":82417,"SoundDuration":82417,"Delta":416606215},{"NoteNumber":92,"Velocity":52,"Duration":82417,"SoundDuration":82417,"Delta":416606215},{"NoteNumber":49,"Velocity":45,"Duration":82417,"SoundDuration":82417,"Delta":416606215},{"NoteNumber":56,"Velocity":40,"Duration":82417,"SoundDuration":82417,"Delta":416771051},{"NoteNumber":78,"Velocity":64,"Duration":329670,"SoundDuration":329670,"Delta":416935886},{"NoteNumber":82,"Velocity":64,"Duration":329670,"SoundDuration":329670,"Delta":416935886},{"NoteNumber":68,"Velocity":40,"Duration":82417,"SoundDuration":82417,"Delta":416935886},{"NoteNumber":61,"Velocity":40,"Duration":82417,"SoundDuration":82417,"Delta":416935886},{"NoteNumber":56,"Velocity":40,"Duration":82417,"SoundDuration":82417,"Delta":417100721},{"NoteNumber":77,"Velocity":58,"Duration":75566,"SoundDuration":75566,"Delta":417265556},{"NoteNumber":80,"Velocity":58,"Duration":75566,"SoundDuration":75566,"Delta":417265556},{"NoteNumber":49,"Velocity":46,"Duration":75566,"SoundDuration":75566,"Delta":417265556},{"NoteNumber":75,"Velocity":54,"Duration":75566,"SoundDuration":75566,"Delta":417416690},{"NoteNumber":78,"Velocity":54,"Duration":75566,"SoundDuration":75566,"Delta":417416690},{"NoteNumber":56,"Velocity":39,"Duration":75566,"SoundDuration":75566,"Delta":417416690},{"NoteNumber":73,"Velocity":54,"Duration":78533,"SoundDuration":78533,"Delta":417567823},{"NoteNumber":77,"Velocity":54,"Duration":78533,"SoundDuration":78533,"Delta":417567823},{"NoteNumber":68,"Velocity":39,"Duration":78533,"SoundDuration":78533,"Delta":417567823},{"NoteNumber":60,"Velocity":39,"Duration":78533,"SoundDuration":78533,"Delta":417567823},{"NoteNumber":75,"Velocity":53,"Duration":83102,"SoundDuration":83102,"Delta":417724891},{"NoteNumber":68,"Velocity":53,"Duration":83102,"SoundDuration":83102,"Delta":417724891},{"NoteNumber":56,"Velocity":37,"Duration":83102,"SoundDuration":83102,"Delta":417724891},{"NoteNumber":73,"Velocity":45,"Duration":82417,"SoundDuration":82417,"Delta":417891096},{"NoteNumber":77,"Velocity":50,"Duration":82417,"SoundDuration":82417,"Delta":417891096},{"NoteNumber":49,"Velocity":40,"Duration":82417,"SoundDuration":82417,"Delta":417891096},{"NoteNumber":56,"Velocity":35,"Duration":82417,"SoundDuration":82417,"Delta":418055932},{"NoteNumber":89,"Velocity":55,"Duration":474993,"SoundDuration":474993,"Delta":418220767},{"NoteNumber":92,"Velocity":55,"Duration":474993,"SoundDuration":474993,"Delta":418220767},{"NoteNumber":68,"Velocity":35,"Duration":79787,"SoundDuration":79787,"Delta":418220767},{"NoteNumber":61,"Velocity":35,"Duration":79787,"SoundDuration":79787,"Delta":418220767},{"NoteNumber":56,"Velocity":35,"Duration":79787,"SoundDuration":79787,"Delta":418380341},{"NoteNumber":49,"Velocity":40,"Duration":77922,"SoundDuration":77922,"Delta":418539916},{"NoteNumber":94,"Velocity":57,"Duration":73891,"SoundDuration":73891,"Delta":418695760},{"NoteNumber":97,"Velocity":57,"Duration":73891,"SoundDuration":73891,"Delta":418695760},{"NoteNumber":56,"Velocity":36,"Duration":73891,"SoundDuration":73891,"Delta":418695760},{"NoteNumber":92,"Velocity":54,"Duration":77319,"SoundDuration":77319,"Delta":418843543},{"NoteNumber":96,"Velocity":54,"Duration":77319,"SoundDuration":77319,"Delta":418843543},{"NoteNumber":68,"Velocity":36,"Duration":77319,"SoundDuration":77319,"Delta":418843543},{"NoteNumber":61,"Velocity":36,"Duration":77319,"SoundDuration":77319,"Delta":418843543},{"NoteNumber":94,"Velocity":54,"Duration":77319,"SoundDuration":77319,"Delta":418998183},{"NoteNumber":90,"Velocity":54,"Duration":77319,"SoundDuration":77319,"Delta":418998183},{"NoteNumber":56,"Velocity":37,"Duration":77319,"SoundDuration":77319,"Delta":418998183},{"NoteNumber":89,"Velocity":47,"Duration":82417,"SoundDuration":82417,"Delta":419152822},{"NoteNumber":92,"Velocity":52,"Duration":82417,"SoundDuration":82417,"Delta":419152822},{"NoteNumber":49,"Velocity":40,"Duration":82417,"SoundDuration":82417,"Delta":419152822},{"NoteNumber":56,"Velocity":35,"Duration":82417,"SoundDuration":82417,"Delta":419317657},{"NoteNumber":77,"Velocity":53,"Duration":463917,"SoundDuration":463917,"Delta":419482492},{"NoteNumber":80,"Velocity":53,"Duration":463917,"SoundDuration":463917,"Delta":419482492},{"NoteNumber":68,"Velocity":35,"Duration":77319,"SoundDuration":77319,"Delta":419482492},{"NoteNumber":61,"Velocity":35,"Duration":77319,"SoundDuration":77319,"Delta":419482492},{"NoteNumber":56,"Velocity":35,"Duration":77319,"SoundDuration":77319,"Delta":419637132},{"NoteNumber":49,"Velocity":40,"Duration":77319,"SoundDuration":77319,"Delta":419791771},{"NoteNumber":75,"Velocity":55,"Duration":72815,"SoundDuration":72815,"Delta":419946410},{"NoteNumber":78,"Velocity":55,"Duration":72815,"SoundDuration":72815,"Delta":419946410},{"NoteNumber":56,"Velocity":36,"Duration":72815,"SoundDuration":72815,"Delta":419946410},{"NoteNumber":73,"Velocity":53,"Duration":77319,"SoundDuration":77319,"Delta":420092041},{"NoteNumber":77,"Velocity":53,"Duration":77319,"SoundDuration":77319,"Delta":420092041},{"NoteNumber":68,"Velocity":36,"Duration":77319,"SoundDuration":77319,"Delta":420092041},{"NoteNumber":60,"Velocity":36,"Duration":77319,"SoundDuration":77319,"Delta":420092041},{"NoteNumber":75,"Velocity":53,"Duration":83102,"SoundDuration":83102,"Delta":420246680},{"NoteNumber":68,"Velocity":53,"Duration":83102,"SoundDuration":83102,"Delta":420246680},{"NoteNumber":56,"Velocity":37,"Duration":83102,"SoundDuration":83102,"Delta":420246680},{"NoteNumber":73,"Velocity":45,"Duration":82417,"SoundDuration":82417,"Delta":420412885},{"NoteNumber":77,"Velocity":50,"Duration":82417,"SoundDuration":82417,"Delta":420412885},{"NoteNumber":49,"Velocity":40,"Duration":82417,"SoundDuration":82417,"Delta":420412885},{"NoteNumber":56,"Velocity":35,"Duration":82417,"SoundDuration":82417,"Delta":420577721},{"NoteNumber":89,"Velocity":55,"Duration":463917,"SoundDuration":463917,"Delta":420742556},{"NoteNumber":92,"Velocity":55,"Duration":463917,"SoundDuration":463917,"Delta":420742556},{"NoteNumber":68,"Velocity":35,"Duration":77319,"SoundDuration":77319,"Delta":420742556},{"NoteNumber":61,"Velocity":35,"Duration":77319,"SoundDuration":77319,"Delta":420742556},{"NoteNumber":56,"Velocity":35,"Duration":77319,"SoundDuration":77319,"Delta":420897195},{"NoteNumber":49,"Velocity":40,"Duration":77319,"SoundDuration":77319,"Delta":421051834},{"NoteNumber":94,"Velocity":57,"Duration":72815,"SoundDuration":72815,"Delta":421206474},{"NoteNumber":97,"Velocity":57,"Duration":72815,"SoundDuration":72815,"Delta":421206474},{"NoteNumber":56,"Velocity":36,"Duration":72815,"SoundDuration":72815,"Delta":421206474},{"NoteNumber":92,"Velocity":54,"Duration":77319,"SoundDuration":77319,"Delta":421352105},{"NoteNumber":96,"Velocity":54,"Duration":77319,"SoundDuration":77319,"Delta":421352105},{"NoteNumber":68,"Velocity":36,"Duration":77319,"SoundDuration":77319,"Delta":421352105},{"NoteNumber":61,"Velocity":36,"Duration":77319,"SoundDuration":77319,"Delta":421352105},{"NoteNumber":94,"Velocity":54,"Duration":77319,"SoundDuration":77319,"Delta":421506744},{"NoteNumber":90,"Velocity":54,"Duration":77319,"SoundDuration":77319,"Delta":421506744},{"NoteNumber":56,"Velocity":37,"Duration":77319,"SoundDuration":77319,"Delta":421506744},{"NoteNumber":89,"Velocity":47,"Duration":85959,"SoundDuration":85959,"Delta":421661383},{"NoteNumber":92,"Velocity":52,"Duration":85959,"SoundDuration":85959,"Delta":421661383},{"NoteNumber":49,"Velocity":44,"Duration":85959,"SoundDuration":85959,"Delta":421661383},{"NoteNumber":56,"Velocity":39,"Duration":85959,"SoundDuration":85959,"Delta":421833303},{"NoteNumber":78,"Velocity":60,"Duration":332409,"SoundDuration":332409,"Delta":422005223},{"NoteNumber":82,"Velocity":60,"Duration":332409,"SoundDuration":332409,"Delta":422005223},{"NoteNumber":68,"Velocity":39,"Duration":83102,"SoundDuration":83102,"Delta":422005223},{"NoteNumber":61,"Velocity":39,"Duration":83102,"SoundDuration":83102,"Delta":422005223},{"NoteNumber":56,"Velocity":39,"Duration":83102,"SoundDuration":83102,"Delta":422171428},{"NoteNumber":77,"Velocity":59,"Duration":78533,"SoundDuration":78533,"Delta":422337633},{"NoteNumber":80,"Velocity":59,"Duration":78533,"SoundDuration":78533,"Delta":422337633},{"NoteNumber":49,"Velocity":44,"Duration":78533,"SoundDuration":78533,"Delta":422337633},{"NoteNumber":75,"Velocity":53,"Duration":78533,"SoundDuration":78533,"Delta":422494701},{"NoteNumber":78,"Velocity":53,"Duration":78533,"SoundDuration":78533,"Delta":422494701},{"NoteNumber":56,"Velocity":36,"Duration":78533,"SoundDuration":78533,"Delta":422494701},{"NoteNumber":73,"Velocity":53,"Duration":78533,"SoundDuration":78533,"Delta":422651769},{"NoteNumber":77,"Velocity":53,"Duration":78533,"SoundDuration":78533,"Delta":422651769},{"NoteNumber":68,"Velocity":36,"Duration":78533,"SoundDuration":78533,"Delta":422651769},{"NoteNumber":60,"Velocity":36,"Duration":78533,"SoundDuration":78533,"Delta":422651769},{"NoteNumber":75,"Velocity":53,"Duration":83102,"SoundDuration":83102,"Delta":422808837},{"NoteNumber":68,"Velocity":53,"Duration":83102,"SoundDuration":83102,"Delta":422808837},{"NoteNumber":56,"Velocity":37,"Duration":83102,"SoundDuration":83102,"Delta":422808837},{"NoteNumber":73,"Velocity":55,"Duration":83102,"SoundDuration":83102,"Delta":422975042},{"NoteNumber":77,"Velocity":55,"Duration":83102,"SoundDuration":83102,"Delta":422975042},{"NoteNumber":49,"Velocity":40,"Duration":83102,"SoundDuration":83102,"Delta":422975042},{"NoteNumber":56,"Velocity":35,"Duration":83102,"SoundDuration":83102,"Delta":423141247},{"NoteNumber":68,"Velocity":50,"Duration":314136,"SoundDuration":314136,"Delta":423307452},{"NoteNumber":73,"Velocity":50,"Duration":157067,"SoundDuration":157067,"Delta":423307452},{"NoteNumber":65,"Velocity":35,"Duration":78533,"SoundDuration":78533,"Delta":423307452},{"NoteNumber":61,"Velocity":35,"Duration":78533,"SoundDuration":78533,"Delta":423307452},{"NoteNumber":74,"Velocity":51,"Duration":157068,"SoundDuration":157068,"Delta":423464520},{"NoteNumber":56,"Velocity":35,"Duration":78533,"SoundDuration":78533,"Delta":423464520},{"NoteNumber":68,"Velocity":55,"Duration":471204,"SoundDuration":471204,"Delta":423621588},{"NoteNumber":75,"Velocity":55,"Duration":471204,"SoundDuration":471204,"Delta":423621588},{"NoteNumber":49,"Velocity":40,"Duration":78533,"SoundDuration":78533,"Delta":423621588},{"NoteNumber":56,"Velocity":36,"Duration":78533,"SoundDuration":78533,"Delta":423778656},{"NoteNumber":66,"Velocity":36,"Duration":78533,"SoundDuration":78533,"Delta":423935724},{"NoteNumber":60,"Velocity":36,"Duration":78533,"SoundDuration":78533,"Delta":423935724},{"NoteNumber":75,"Velocity":50,"Duration":78533,"SoundDuration":78533,"Delta":424092792},{"NoteNumber":78,"Velocity":50,"Duration":78533,"SoundDuration":78533,"Delta":424092792},{"NoteNumber":56,"Velocity":37,"Duration":78533,"SoundDuration":78533,"Delta":424092792},{"NoteNumber":73,"Velocity":55,"Duration":302543,"SoundDuration":302543,"Delta":424249860},{"NoteNumber":77,"Velocity":55,"Duration":146699,"SoundDuration":146699,"Delta":424249860},{"NoteNumber":49,"Velocity":40,"Duration":73349,"SoundDuration":73349,"Delta":424249860},{"NoteNumber":80,"Velocity":51,"Duration":155844,"SoundDuration":155844,"Delta":424396559},{"NoteNumber":56,"Velocity":35,"Duration":77922,"SoundDuration":77922,"Delta":424396559},{"NoteNumber":68,"Velocity":51,"Duration":155844,"SoundDuration":155844,"Delta":424552403},{"NoteNumber":73,"Velocity":51,"Duration":155844,"SoundDuration":155844,"Delta":424552403},{"NoteNumber":65,"Velocity":35,"Duration":77922,"SoundDuration":77922,"Delta":424552403},{"NoteNumber":61,"Velocity":35,"Duration":77922,"SoundDuration":77922,"Delta":424552403},{"NoteNumber":56,"Velocity":35,"Duration":81081,"SoundDuration":81081,"Delta":424708247},{"NoteNumber":80,"Velocity":57,"Duration":467532,"SoundDuration":467532,"Delta":424870410},{"NoteNumber":87,"Velocity":57,"Duration":467532,"SoundDuration":467532,"Delta":424870410},{"NoteNumber":49,"Velocity":40,"Duration":77922,"SoundDuration":77922,"Delta":424870410},{"NoteNumber":56,"Velocity":36,"Duration":77922,"SoundDuration":77922,"Delta":425026254},{"NoteNumber":66,"Velocity":36,"Duration":77922,"SoundDuration":77922,"Delta":425182098},{"NoteNumber":60,"Velocity":36,"Duration":77922,"SoundDuration":77922,"Delta":425182098},{"NoteNumber":87,"Velocity":52,"Duration":77922,"SoundDuration":77922,"Delta":425337942},{"NoteNumber":90,"Velocity":52,"Duration":77922,"SoundDuration":77922,"Delta":425337942},{"NoteNumber":56,"Velocity":37,"Duration":77922,"SoundDuration":77922,"Delta":425337942},{"NoteNumber":85,"Velocity":57,"Duration":305951,"SoundDuration":305951,"Delta":425493787},{"NoteNumber":89,"Velocity":57,"Duration":148883,"SoundDuration":148883,"Delta":425493787},{"NoteNumber":49,"Velocity":40,"Duration":74441,"SoundDuration":74441,"Delta":425493787},{"NoteNumber":92,"Velocity":53,"Duration":157067,"SoundDuration":157067,"Delta":425642670},{"NoteNumber":56,"Velocity":35,"Duration":78533,"SoundDuration":78533,"Delta":425642670},{"NoteNumber":80,"Velocity":53,"Duration":157068,"SoundDuration":157068,"Delta":425799738},{"NoteNumber":85,"Velocity":53,"Duration":157068,"SoundDuration":157068,"Delta":425799738},{"NoteNumber":65,"Velocity":35,"Duration":78533,"SoundDuration":78533,"Delta":425799738},{"NoteNumber":61,"Velocity":35,"Duration":78533,"SoundDuration":78533,"Delta":425799738},{"NoteNumber":56,"Velocity":35,"Duration":81743,"SoundDuration":81743,"Delta":425956806},{"NoteNumber":68,"Velocity":55,"Duration":467532,"SoundDuration":467532,"Delta":426120294},{"NoteNumber":75,"Velocity":55,"Duration":467532,"SoundDuration":467532,"Delta":426120294},{"NoteNumber":49,"Velocity":40,"Duration":77922,"SoundDuration":77922,"Delta":426120294},{"NoteNumber":56,"Velocity":36,"Duration":77922,"SoundDuration":77922,"Delta":426276138},{"NoteNumber":66,"Velocity":36,"Duration":77922,"SoundDuration":77922,"Delta":426431982},{"NoteNumber":60,"Velocity":36,"Duration":77922,"SoundDuration":77922,"Delta":426431982},{"NoteNumber":75,"Velocity":50,"Duration":77922,"SoundDuration":77922,"Delta":426587826},{"NoteNumber":78,"Velocity":50,"Duration":51948,"SoundDuration":51948,"Delta":426587826},{"NoteNumber":56,"Velocity":37,"Duration":77922,"SoundDuration":77922,"Delta":426587826},{"NoteNumber":80,"Velocity":50,"Duration":51948,"SoundDuration":51948,"Delta":426639774},{"NoteNumber":78,"Velocity":50,"Duration":51948,"SoundDuration":51948,"Delta":426691722},{"NoteNumber":73,"Velocity":55,"Duration":307067,"SoundDuration":307067,"Delta":426743671},{"NoteNumber":77,"Velocity":55,"Duration":149999,"SoundDuration":149999,"Delta":426743671},{"NoteNumber":49,"Velocity":40,"Duration":74999,"SoundDuration":74999,"Delta":426743671},{"NoteNumber":80,"Velocity":51,"Duration":157067,"SoundDuration":157067,"Delta":426893671},{"NoteNumber":56,"Velocity":35,"Duration":78533,"SoundDuration":78533,"Delta":426893671},{"NoteNumber":68,"Velocity":51,"Duration":157068,"SoundDuration":157068,"Delta":427050739},{"NoteNumber":73,"Velocity":51,"Duration":157068,"SoundDuration":157068,"Delta":427050739},{"NoteNumber":65,"Velocity":35,"Duration":78533,"SoundDuration":78533,"Delta":427050739},{"NoteNumber":61,"Velocity":35,"Duration":78533,"SoundDuration":78533,"Delta":427050739},{"NoteNumber":56,"Velocity":35,"Duration":81743,"SoundDuration":81743,"Delta":427207807},{"NoteNumber":80,"Velocity":57,"Duration":462731,"SoundDuration":462731,"Delta":427371294},{"NoteNumber":87,"Velocity":57,"Duration":462731,"SoundDuration":462731,"Delta":427371294},{"NoteNumber":49,"Velocity":40,"Duration":76726,"SoundDuration":76726,"Delta":427371294},{"NoteNumber":56,"Velocity":36,"Duration":77319,"SoundDuration":77319,"Delta":427524747},{"NoteNumber":66,"Velocity":36,"Duration":77319,"SoundDuration":77319,"Delta":427679386},{"NoteNumber":60,"Velocity":36,"Duration":77319,"SoundDuration":77319,"Delta":427679386},{"NoteNumber":87,"Velocity":52,"Duration":77319,"SoundDuration":77319,"Delta":427834026},{"NoteNumber":90,"Velocity":52,"Duration":51546,"SoundDuration":51546,"Delta":427834026},{"NoteNumber":56,"Velocity":37,"Duration":77319,"SoundDuration":77319,"Delta":427834026},{"NoteNumber":92,"Velocity":52,"Duration":51546,"SoundDuration":51546,"Delta":427885572},{"NoteNumber":90,"Velocity":52,"Duration":51546,"SoundDuration":51546,"Delta":427937118},{"NoteNumber":85,"Velocity":57,"Duration":304639,"SoundDuration":304639,"Delta":427988665},{"NoteNumber":89,"Velocity":57,"Duration":149999,"SoundDuration":149999,"Delta":427988665},{"NoteNumber":49,"Velocity":40,"Duration":74999,"SoundDuration":74999,"Delta":427988665},{"NoteNumber":92,"Velocity":53,"Duration":154639,"SoundDuration":154639,"Delta":428138665},{"NoteNumber":56,"Velocity":35,"Duration":77319,"SoundDuration":77319,"Delta":428138665},{"NoteNumber":80,"Velocity":53,"Duration":154639,"SoundDuration":154639,"Delta":428293304},{"NoteNumber":85,"Velocity":53,"Duration":154639,"SoundDuration":154639,"Delta":428293304},{"NoteNumber":65,"Velocity":35,"Duration":77319,"SoundDuration":77319,"Delta":428293304},{"NoteNumber":61,"Velocity":35,"Duration":77319,"SoundDuration":77319,"Delta":428293304},{"NoteNumber":56,"Velocity":35,"Duration":77319,"SoundDuration":77319,"Delta":428447943},{"NoteNumber":72,"Velocity":48,"Duration":78750,"SoundDuration":78750,"Delta":428602513},{"NoteNumber":49,"Velocity":40,"Duration":78750,"SoundDuration":78750,"Delta":428602513},{"NoteNumber":73,"Velocity":49,"Duration":79052,"SoundDuration":79052,"Delta":428681264},{"NoteNumber":75,"Velocity":50,"Duration":78534,"SoundDuration":78534,"Delta":428760316},{"NoteNumber":56,"Velocity":36,"Duration":78534,"SoundDuration":78534,"Delta":428760316},{"NoteNumber":77,"Velocity":51,"Duration":78228,"SoundDuration":78228,"Delta":428838850},{"NoteNumber":78,"Velocity":52,"Duration":77821,"SoundDuration":77821,"Delta":428917078},{"NoteNumber":66,"Velocity":36,"Duration":77821,"SoundDuration":77821,"Delta":428917078},{"NoteNumber":60,"Velocity":36,"Duration":77821,"SoundDuration":77821,"Delta":428917078},{"NoteNumber":80,"Velocity":52,"Duration":77319,"SoundDuration":77319,"Delta":428994900},{"NoteNumber":82,"Velocity":53,"Duration":77023,"SoundDuration":77023,"Delta":429072220},{"NoteNumber":56,"Velocity":37,"Duration":77023,"SoundDuration":77023,"Delta":429072220},{"NoteNumber":84,"Velocity":54,"Duration":76628,"SoundDuration":76628,"Delta":429149243},{"NoteNumber":85,"Velocity":56,"Duration":76142,"SoundDuration":76142,"Delta":429225872},{"NoteNumber":49,"Velocity":40,"Duration":76142,"SoundDuration":76142,"Delta":429225872},{"NoteNumber":87,"Velocity":56,"Duration":76142,"SoundDuration":76142,"Delta":429302014},{"NoteNumber":89,"Velocity":56,"Duration":76142,"SoundDuration":76142,"Delta":429378156},{"NoteNumber":56,"Velocity":35,"Duration":76142,"SoundDuration":76142,"Delta":429378156},{"NoteNumber":90,"Velocity":57,"Duration":76142,"SoundDuration":76142,"Delta":429454298},{"NoteNumber":91,"Velocity":57,"Duration":76142,"SoundDuration":76142,"Delta":429530440},{"NoteNumber":65,"Velocity":35,"Duration":76142,"SoundDuration":76142,"Delta":429530440},{"NoteNumber":61,"Velocity":35,"Duration":76142,"SoundDuration":76142,"Delta":429530440},{"NoteNumber":94,"Velocity":58,"Duration":76142,"SoundDuration":76142,"Delta":429606582},{"NoteNumber":92,"Velocity":58,"Duration":76142,"SoundDuration":76142,"Delta":429682724},{"NoteNumber":56,"Velocity":35,"Duration":76142,"SoundDuration":76142,"Delta":429682724},{"NoteNumber":94,"Velocity":59,"Duration":76046,"SoundDuration":76046,"Delta":429758866},{"NoteNumber":92,"Velocity":58,"Duration":75566,"SoundDuration":75566,"Delta":429834913},{"NoteNumber":87,"Velocity":61,"Duration":456677,"SoundDuration":456677,"Delta":429834913},{"NoteNumber":49,"Velocity":40,"Duration":75566,"SoundDuration":75566,"Delta":429834913},{"NoteNumber":94,"Velocity":52,"Duration":75566,"SoundDuration":75566,"Delta":429910479},{"NoteNumber":92,"Velocity":52,"Duration":76046,"SoundDuration":76046,"Delta":429986046},{"NoteNumber":56,"Velocity":36,"Duration":76046,"SoundDuration":76046,"Delta":429986046},{"NoteNumber":94,"Velocity":52,"Duration":76142,"SoundDuration":76142,"Delta":430062092},{"NoteNumber":92,"Velocity":52,"Duration":76628,"SoundDuration":76628,"Delta":430138234},{"NoteNumber":66,"Velocity":36,"Duration":76628,"SoundDuration":76628,"Delta":430138234},{"NoteNumber":60,"Velocity":36,"Duration":76628,"SoundDuration":76628,"Delta":430138234},{"NoteNumber":94,"Velocity":52,"Duration":76726,"SoundDuration":76726,"Delta":430214863},{"NoteNumber":92,"Velocity":52,"Duration":77220,"SoundDuration":77220,"Delta":430291590},{"NoteNumber":90,"Velocity":52,"Duration":154540,"SoundDuration":154540,"Delta":430291590},{"NoteNumber":56,"Velocity":37,"Duration":77220,"SoundDuration":77220,"Delta":430291590},{"NoteNumber":94,"Velocity":52,"Duration":77319,"SoundDuration":77319,"Delta":430368811},{"NoteNumber":92,"Velocity":58,"Duration":73349,"SoundDuration":73349,"Delta":430446130},{"NoteNumber":89,"Velocity":57,"Duration":146699,"SoundDuration":146699,"Delta":430446130},{"NoteNumber":49,"Velocity":40,"Duration":73349,"SoundDuration":73349,"Delta":430446130},{"NoteNumber":94,"Velocity":52,"Duration":73349,"SoundDuration":73349,"Delta":430519480},{"NoteNumber":92,"Velocity":53,"Duration":155844,"SoundDuration":155844,"Delta":430592829},{"NoteNumber":56,"Velocity":35,"Duration":77922,"SoundDuration":77922,"Delta":430592829},{"NoteNumber":94,"Velocity":52,"Duration":77922,"SoundDuration":77922,"Delta":430670752},{"NoteNumber":92,"Velocity":58,"Duration":155844,"SoundDuration":155844,"Delta":430748674},{"NoteNumber":85,"Velocity":53,"Duration":155844,"SoundDuration":155844,"Delta":430748674},{"NoteNumber":65,"Velocity":35,"Duration":77922,"SoundDuration":77922,"Delta":430748674},{"NoteNumber":61,"Velocity":35,"Duration":77922,"SoundDuration":77922,"Delta":430748674},{"NoteNumber":56,"Velocity":35,"Duration":81081,"SoundDuration":81081,"Delta":430904518},{"NoteNumber":72,"Velocity":48,"Duration":78912,"SoundDuration":78912,"Delta":431067451},{"NoteNumber":49,"Velocity":40,"Duration":78912,"SoundDuration":78912,"Delta":431067451},{"NoteNumber":73,"Velocity":49,"Duration":79010,"SoundDuration":79010,"Delta":431146364},{"NoteNumber":56,"Velocity":36,"Duration":78533,"SoundDuration":78533,"Delta":431224065},{"NoteNumber":75,"Velocity":50,"Duration":78533,"SoundDuration":78533,"Delta":431225374},{"NoteNumber":77,"Velocity":51,"Duration":78187,"SoundDuration":78187,"Delta":431303908},{"NoteNumber":66,"Velocity":36,"Duration":77791,"SoundDuration":77791,"Delta":431380797},{"NoteNumber":60,"Velocity":36,"Duration":77791,"SoundDuration":77791,"Delta":431380797},{"NoteNumber":78,"Velocity":52,"Duration":77781,"SoundDuration":77781,"Delta":431382096},{"NoteNumber":80,"Velocity":52,"Duration":77319,"SoundDuration":77319,"Delta":431459877},{"NoteNumber":56,"Velocity":37,"Duration":76993,"SoundDuration":76993,"Delta":431535908},{"NoteNumber":82,"Velocity":53,"Duration":76983,"SoundDuration":76983,"Delta":431537197},{"NoteNumber":84,"Velocity":54,"Duration":76590,"SoundDuration":76590,"Delta":431614180},{"NoteNumber":85,"Velocity":56,"Duration":76142,"SoundDuration":76142,"Delta":431690770},{"NoteNumber":49,"Velocity":40,"Duration":76142,"SoundDuration":76142,"Delta":431690770},{"NoteNumber":87,"Velocity":56,"Duration":76142,"SoundDuration":76142,"Delta":431766912},{"NoteNumber":89,"Velocity":56,"Duration":76142,"SoundDuration":76142,"Delta":431843054},{"NoteNumber":56,"Velocity":35,"Duration":76142,"SoundDuration":76142,"Delta":431843054},{"NoteNumber":90,"Velocity":57,"Duration":76142,"SoundDuration":76142,"Delta":431919197},{"NoteNumber":91,"Velocity":57,"Duration":76142,"SoundDuration":76142,"Delta":431995339},{"NoteNumber":65,"Velocity":35,"Duration":76142,"SoundDuration":76142,"Delta":431995339},{"NoteNumber":61,"Velocity":35,"Duration":76142,"SoundDuration":76142,"Delta":431995339},{"NoteNumber":94,"Velocity":58,"Duration":76142,"SoundDuration":76142,"Delta":432071481},{"NoteNumber":92,"Velocity":58,"Duration":76142,"SoundDuration":76142,"Delta":432147623},{"NoteNumber":56,"Velocity":35,"Duration":76142,"SoundDuration":76142,"Delta":432147623},{"NoteNumber":94,"Velocity":59,"Duration":76007,"SoundDuration":76007,"Delta":432223765},{"NoteNumber":92,"Velocity":58,"Duration":75566,"SoundDuration":75566,"Delta":432299773},{"NoteNumber":87,"Velocity":61,"Duration":456754,"SoundDuration":456754,"Delta":432299773},{"NoteNumber":49,"Velocity":40,"Duration":75566,"SoundDuration":75566,"Delta":432299773},{"NoteNumber":94,"Velocity":52,"Duration":75566,"SoundDuration":75566,"Delta":432375340},{"NoteNumber":92,"Velocity":52,"Duration":76084,"SoundDuration":76084,"Delta":432450906},{"NoteNumber":56,"Velocity":36,"Duration":76084,"SoundDuration":76084,"Delta":432450906},{"NoteNumber":94,"Velocity":52,"Duration":76142,"SoundDuration":76142,"Delta":432526991},{"NoteNumber":92,"Velocity":52,"Duration":76667,"SoundDuration":76667,"Delta":432603133},{"NoteNumber":66,"Velocity":36,"Duration":76667,"SoundDuration":76667,"Delta":432603133},{"NoteNumber":60,"Velocity":36,"Duration":76667,"SoundDuration":76667,"Delta":432603133},{"NoteNumber":94,"Velocity":52,"Duration":76726,"SoundDuration":76726,"Delta":432679801},{"NoteNumber":92,"Velocity":52,"Duration":77260,"SoundDuration":77260,"Delta":432756527},{"NoteNumber":56,"Velocity":37,"Duration":77260,"SoundDuration":77260,"Delta":432756527},{"NoteNumber":90,"Velocity":52,"Duration":154315,"SoundDuration":154315,"Delta":432756527},{"NoteNumber":94,"Velocity":52,"Duration":77054,"SoundDuration":77054,"Delta":432833788},{"NoteNumber":92,"Velocity":58,"Duration":73349,"SoundDuration":73349,"Delta":432910843},{"NoteNumber":89,"Velocity":57,"Duration":147004,"SoundDuration":147004,"Delta":432910843},{"NoteNumber":49,"Velocity":40,"Duration":73349,"SoundDuration":73349,"Delta":432910843},{"NoteNumber":94,"Velocity":52,"Duration":73654,"SoundDuration":73654,"Delta":432984192},{"NoteNumber":92,"Velocity":53,"Duration":155844,"SoundDuration":155844,"Delta":433057847},{"NoteNumber":56,"Velocity":35,"Duration":77922,"SoundDuration":77922,"Delta":433057847},{"NoteNumber":94,"Velocity":52,"Duration":77922,"SoundDuration":77922,"Delta":433134470},{"NoteNumber":92,"Velocity":58,"Duration":77922,"SoundDuration":77922,"Delta":433212392},{"NoteNumber":85,"Velocity":53,"Duration":156054,"SoundDuration":156054,"Delta":433213691},{"NoteNumber":65,"Velocity":35,"Duration":77922,"SoundDuration":77922,"Delta":433213691},{"NoteNumber":61,"Velocity":35,"Duration":77922,"SoundDuration":77922,"Delta":433213691},{"NoteNumber":94,"Velocity":52,"Duration":78080,"SoundDuration":78080,"Delta":433290314},{"NoteNumber":92,"Velocity":52,"Duration":81081,"SoundDuration":81081,"Delta":433368395},{"NoteNumber":56,"Velocity":35,"Duration":81081,"SoundDuration":81081,"Delta":433368395},{"NoteNumber":94,"Velocity":52,"Duration":81081,"SoundDuration":81081,"Delta":433449476},{"NoteNumber":92,"Velocity":60,"Duration":75566,"SoundDuration":75566,"Delta":433531816},{"NoteNumber":87,"Velocity":64,"Duration":456754,"SoundDuration":456754,"Delta":433531816},{"NoteNumber":49,"Velocity":42,"Duration":75566,"SoundDuration":75566,"Delta":433531816},{"NoteNumber":94,"Velocity":54,"Duration":75566,"SoundDuration":75566,"Delta":433607383},{"NoteNumber":92,"Velocity":54,"Duration":76084,"SoundDuration":76084,"Delta":433682950},{"NoteNumber":56,"Velocity":37,"Duration":76084,"SoundDuration":76084,"Delta":433682950},{"NoteNumber":94,"Velocity":54,"Duration":76142,"SoundDuration":76142,"Delta":433759034},{"NoteNumber":92,"Velocity":54,"Duration":76667,"SoundDuration":76667,"Delta":433835176},{"NoteNumber":66,"Velocity":37,"Duration":76667,"SoundDuration":76667,"Delta":433835176},{"NoteNumber":60,"Velocity":37,"Duration":76667,"SoundDuration":76667,"Delta":433835176},{"NoteNumber":94,"Velocity":54,"Duration":76726,"SoundDuration":76726,"Delta":433911844},{"NoteNumber":92,"Velocity":54,"Duration":77260,"SoundDuration":77260,"Delta":433988571},{"NoteNumber":56,"Velocity":38,"Duration":77260,"SoundDuration":77260,"Delta":433988571},{"NoteNumber":90,"Velocity":54,"Duration":154315,"SoundDuration":154315,"Delta":433988571},{"NoteNumber":94,"Velocity":54,"Duration":77054,"SoundDuration":77054,"Delta":434065831},{"NoteNumber":89,"Velocity":63,"Duration":146927,"SoundDuration":146927,"Delta":434141664},{"NoteNumber":92,"Velocity":60,"Duration":73349,"SoundDuration":73349,"Delta":434141664},{"NoteNumber":49,"Velocity":42,"Duration":73349,"SoundDuration":73349,"Delta":434142886},{"NoteNumber":94,"Velocity":54,"Duration":73578,"SoundDuration":73578,"Delta":434215013},{"NoteNumber":92,"Velocity":64,"Duration":77922,"SoundDuration":77922,"Delta":434288591},{"NoteNumber":92,"Velocity":60,"Duration":155844,"SoundDuration":155844,"Delta":434288591},{"NoteNumber":56,"Velocity":36,"Duration":77922,"SoundDuration":77922,"Delta":434289890},{"NoteNumber":94,"Velocity":54,"Duration":77922,"SoundDuration":77922,"Delta":434366514},{"NoteNumber":85,"Velocity":55,"Duration":156002,"SoundDuration":156002,"Delta":434444436},{"NoteNumber":92,"Velocity":60,"Duration":77922,"SoundDuration":77922,"Delta":434444436},{"NoteNumber":65,"Velocity":36,"Duration":77922,"SoundDuration":77922,"Delta":434445734},{"NoteNumber":61,"Velocity":36,"Duration":77922,"SoundDuration":77922,"Delta":434445734},{"NoteNumber":94,"Velocity":54,"Duration":78080,"SoundDuration":78080,"Delta":434522358},{"NoteNumber":92,"Velocity":54,"Duration":81081,"SoundDuration":81081,"Delta":434600438},{"NoteNumber":56,"Velocity":36,"Duration":81081,"SoundDuration":81081,"Delta":434601789},{"NoteNumber":94,"Velocity":54,"Duration":80537,"SoundDuration":80537,"Delta":434681519},{"NoteNumber":84,"Velocity":57,"Duration":80172,"SoundDuration":80172,"Delta":434762057},{"NoteNumber":49,"Velocity":42,"Duration":80172,"SoundDuration":80172,"Delta":434762057},{"NoteNumber":92,"Velocity":60,"Duration":80172,"SoundDuration":80172,"Delta":434762057},{"NoteNumber":94,"Velocity":54,"Duration":79576,"SoundDuration":79576,"Delta":434842229},{"NoteNumber":85,"Velocity":58,"Duration":78989,"SoundDuration":78989,"Delta":434921806},{"NoteNumber":56,"Velocity":37,"Duration":78989,"SoundDuration":78989,"Delta":434921806},{"NoteNumber":92,"Velocity":60,"Duration":78989,"SoundDuration":78989,"Delta":434921806},{"NoteNumber":94,"Velocity":54,"Duration":78248,"SoundDuration":78248,"Delta":435000796},{"NoteNumber":87,"Velocity":60,"Duration":77681,"SoundDuration":77681,"Delta":435079044},{"NoteNumber":66,"Velocity":37,"Duration":77681,"SoundDuration":77681,"Delta":435079044},{"NoteNumber":60,"Velocity":37,"Duration":77681,"SoundDuration":77681,"Delta":435079044},{"NoteNumber":92,"Velocity":60,"Duration":77671,"SoundDuration":77671,"Delta":435080343},{"NoteNumber":94,"Velocity":54,"Duration":77121,"SoundDuration":77121,"Delta":435156725},{"NoteNumber":88,"Velocity":61,"Duration":76570,"SoundDuration":76570,"Delta":435233847},{"NoteNumber":56,"Velocity":38,"Duration":76570,"SoundDuration":76570,"Delta":435233847},{"NoteNumber":92,"Velocity":54,"Duration":76570,"SoundDuration":76570,"Delta":435233847},{"NoteNumber":94,"Velocity":54,"Duration":76142,"SoundDuration":76142,"Delta":435310418},{"NoteNumber":89,"Velocity":63,"Duration":76142,"SoundDuration":76142,"Delta":435386560},{"NoteNumber":92,"Velocity":60,"Duration":76142,"SoundDuration":76142,"Delta":435386560},{"NoteNumber":49,"Velocity":42,"Duration":76142,"SoundDuration":76142,"Delta":435387829},{"NoteNumber":94,"Velocity":54,"Duration":76142,"SoundDuration":76142,"Delta":435462702},{"NoteNumber":90,"Velocity":65,"Duration":76142,"SoundDuration":76142,"Delta":435538844},{"NoteNumber":92,"Velocity":60,"Duration":76142,"SoundDuration":76142,"Delta":435538844},{"NoteNumber":56,"Velocity":36,"Duration":76142,"SoundDuration":76142,"Delta":435540113},{"NoteNumber":94,"Velocity":54,"Duration":76142,"SoundDuration":76142,"Delta":435614986},{"NoteNumber":91,"Velocity":64,"Duration":76142,"SoundDuration":76142,"Delta":435691128},{"NoteNumber":92,"Velocity":60,"Duration":76142,"SoundDuration":76142,"Delta":435691128},{"NoteNumber":65,"Velocity":36,"Duration":76142,"SoundDuration":76142,"Delta":435692397},{"NoteNumber":61,"Velocity":36,"Duration":76142,"SoundDuration":76142,"Delta":435692397},{"NoteNumber":94,"Velocity":54,"Duration":76142,"SoundDuration":76142,"Delta":435767270},{"NoteNumber":92,"Velocity":67,"Duration":81743,"SoundDuration":81743,"Delta":435843412},{"NoteNumber":92,"Velocity":54,"Duration":81743,"SoundDuration":81743,"Delta":435843412},{"NoteNumber":56,"Velocity":36,"Duration":81743,"SoundDuration":81743,"Delta":435844775},{"NoteNumber":94,"Velocity":54,"Duration":81743,"SoundDuration":81743,"Delta":435925156},{"NoteNumber":90,"Velocity":64,"Duration":76142,"SoundDuration":76142,"Delta":436006900},{"NoteNumber":49,"Velocity":42,"Duration":76142,"SoundDuration":76142,"Delta":436006900},{"NoteNumber":92,"Velocity":60,"Duration":76142,"SoundDuration":76142,"Delta":436006900},{"NoteNumber":94,"Velocity":54,"Duration":76142,"SoundDuration":76142,"Delta":436083042},{"NoteNumber":89,"Velocity":65,"Duration":76142,"SoundDuration":76142,"Delta":436159184},{"NoteNumber":56,"Velocity":37,"Duration":76142,"SoundDuration":76142,"Delta":436159184},{"NoteNumber":92,"Velocity":60,"Duration":76142,"SoundDuration":76142,"Delta":436159184},{"NoteNumber":94,"Velocity":54,"Duration":76142,"SoundDuration":76142,"Delta":436235327},{"NoteNumber":87,"Velocity":64,"Duration":76142,"SoundDuration":76142,"Delta":436311469},{"NoteNumber":66,"Velocity":37,"Duration":76142,"SoundDuration":76142,"Delta":436311469},{"NoteNumber":60,"Velocity":37,"Duration":76142,"SoundDuration":76142,"Delta":436311469},{"NoteNumber":92,"Velocity":60,"Duration":76142,"SoundDuration":76142,"Delta":436311469},{"NoteNumber":94,"Velocity":54,"Duration":76142,"SoundDuration":76142,"Delta":436387611},{"NoteNumber":90,"Velocity":65,"Duration":82417,"SoundDuration":82417,"Delta":436463753},{"NoteNumber":56,"Velocity":38,"Duration":82417,"SoundDuration":82417,"Delta":436463753},{"NoteNumber":92,"Velocity":54,"Duration":82417,"SoundDuration":82417,"Delta":436463753},{"NoteNumber":94,"Velocity":54,"Duration":82417,"SoundDuration":82417,"Delta":436546171},{"NoteNumber":89,"Velocity":63,"Duration":142850,"SoundDuration":142850,"Delta":436628588},{"NoteNumber":92,"Velocity":60,"Duration":71258,"SoundDuration":71258,"Delta":436628588},{"NoteNumber":49,"Velocity":42,"Duration":71258,"SoundDuration":71258,"Delta":436629776},{"NoteNumber":94,"Velocity":54,"Duration":71592,"SoundDuration":71592,"Delta":436699847},{"NoteNumber":92,"Velocity":63,"Duration":74999,"SoundDuration":74999,"Delta":436771439},{"NoteNumber":92,"Velocity":60,"Duration":149999,"SoundDuration":149999,"Delta":436771439},{"NoteNumber":56,"Velocity":36,"Duration":74999,"SoundDuration":74999,"Delta":436772689},{"NoteNumber":94,"Velocity":54,"Duration":74999,"SoundDuration":74999,"Delta":436846439},{"NoteNumber":85,"Velocity":55,"Duration":150304,"SoundDuration":150304,"Delta":436921439},{"NoteNumber":92,"Velocity":60,"Duration":75000,"SoundDuration":75000,"Delta":436921439},{"NoteNumber":65,"Velocity":36,"Duration":74999,"SoundDuration":74999,"Delta":436922689},{"NoteNumber":61,"Velocity":36,"Duration":74999,"SoundDuration":74999,"Delta":436922689},{"NoteNumber":94,"Velocity":54,"Duration":75304,"SoundDuration":75304,"Delta":436996439},{"NoteNumber":92,"Velocity":54,"Duration":81081,"SoundDuration":81081,"Delta":437071743},{"NoteNumber":56,"Velocity":36,"Duration":81049,"SoundDuration":81049,"Delta":437073095},{"NoteNumber":94,"Velocity":54,"Duration":79155,"SoundDuration":79155,"Delta":437152824},{"NoteNumber":84,"Velocity":57,"Duration":78575,"SoundDuration":78575,"Delta":437231980},{"NoteNumber":49,"Velocity":42,"Duration":78575,"SoundDuration":78575,"Delta":437231980},{"NoteNumber":92,"Velocity":60,"Duration":78575,"SoundDuration":78575,"Delta":437231980},{"NoteNumber":94,"Velocity":54,"Duration":77963,"SoundDuration":77963,"Delta":437310555},{"NoteNumber":85,"Velocity":58,"Duration":77319,"SoundDuration":77319,"Delta":437388519},{"NoteNumber":56,"Velocity":37,"Duration":77319,"SoundDuration":77319,"Delta":437388519},{"NoteNumber":92,"Velocity":60,"Duration":77319,"SoundDuration":77319,"Delta":437388519},{"NoteNumber":94,"Velocity":54,"Duration":76726,"SoundDuration":76726,"Delta":437465839},{"NoteNumber":87,"Velocity":60,"Duration":76104,"SoundDuration":76104,"Delta":437542565},{"NoteNumber":66,"Velocity":37,"Duration":76104,"SoundDuration":76104,"Delta":437542565},{"NoteNumber":60,"Velocity":37,"Duration":76104,"SoundDuration":76104,"Delta":437542565},{"NoteNumber":92,"Velocity":60,"Duration":76104,"SoundDuration":76104,"Delta":437542565},{"NoteNumber":94,"Velocity":55,"Duration":75528,"SoundDuration":75528,"Delta":437618669},{"NoteNumber":88,"Velocity":62,"Duration":74999,"SoundDuration":74999,"Delta":437694198},{"NoteNumber":56,"Velocity":38,"Duration":74999,"SoundDuration":74999,"Delta":437694198},{"NoteNumber":92,"Velocity":55,"Duration":74999,"SoundDuration":74999,"Delta":437694198},{"NoteNumber":94,"Velocity":55,"Duration":74441,"SoundDuration":74441,"Delta":437769198},{"NoteNumber":89,"Velocity":64,"Duration":72815,"SoundDuration":72815,"Delta":437843640},{"NoteNumber":92,"Velocity":61,"Duration":72815,"SoundDuration":72815,"Delta":437843640},{"NoteNumber":49,"Velocity":43,"Duration":72833,"SoundDuration":72833,"Delta":437844853},{"NoteNumber":94,"Velocity":56,"Duration":73891,"SoundDuration":73891,"Delta":437916455},{"NoteNumber":90,"Velocity":67,"Duration":72815,"SoundDuration":72815,"Delta":437990347},{"NoteNumber":92,"Velocity":62,"Duration":72815,"SoundDuration":72815,"Delta":437990347},{"NoteNumber":56,"Velocity":37,"Duration":72842,"SoundDuration":72842,"Delta":437991561},{"NoteNumber":94,"Velocity":56,"Duration":74441,"SoundDuration":74441,"Delta":438063162},{"NoteNumber":91,"Velocity":67,"Duration":74441,"SoundDuration":74441,"Delta":438137604},{"NoteNumber":92,"Velocity":63,"Duration":74441,"SoundDuration":74441,"Delta":438137604},{"NoteNumber":65,"Velocity":37,"Duration":74441,"SoundDuration":74441,"Delta":438138845},{"NoteNumber":61,"Velocity":37,"Duration":74441,"SoundDuration":74441,"Delta":438138845},{"NoteNumber":94,"Velocity":57,"Duration":74441,"SoundDuration":74441,"Delta":438212046},{"NoteNumber":92,"Velocity":71,"Duration":79787,"SoundDuration":79787,"Delta":438286487},{"NoteNumber":92,"Velocity":57,"Duration":79787,"SoundDuration":79787,"Delta":438286487},{"NoteNumber":56,"Velocity":38,"Duration":79787,"SoundDuration":79787,"Delta":438287817},{"NoteNumber":94,"Velocity":57,"Duration":79787,"SoundDuration":79787,"Delta":438366275},{"NoteNumber":90,"Velocity":68,"Duration":74999,"SoundDuration":74999,"Delta":438446062},{"NoteNumber":49,"Velocity":44,"Duration":74999,"SoundDuration":74999,"Delta":438446062},{"NoteNumber":92,"Velocity":64,"Duration":74999,"SoundDuration":74999,"Delta":438446062},{"NoteNumber":94,"Velocity":58,"Duration":74999,"SoundDuration":74999,"Delta":438521062},{"NoteNumber":89,"Velocity":70,"Duration":75000,"SoundDuration":75000,"Delta":438596062},{"NoteNumber":56,"Velocity":39,"Duration":75000,"SoundDuration":75000,"Delta":438596062},{"NoteNumber":92,"Velocity":64,"Duration":75000,"SoundDuration":75000,"Delta":438596062},{"NoteNumber":94,"Velocity":58,"Duration":74999,"SoundDuration":74999,"Delta":438671062},{"NoteNumber":87,"Velocity":69,"Duration":74999,"SoundDuration":74999,"Delta":438746062},{"NoteNumber":66,"Velocity":40,"Duration":74999,"SoundDuration":74999,"Delta":438746062},{"NoteNumber":60,"Velocity":40,"Duration":74999,"SoundDuration":74999,"Delta":438746062},{"NoteNumber":92,"Velocity":65,"Duration":74999,"SoundDuration":74999,"Delta":438746062},{"NoteNumber":94,"Velocity":59,"Duration":74999,"SoundDuration":74999,"Delta":438821062},{"NoteNumber":92,"Velocity":71,"Duration":84506,"SoundDuration":84506,"Delta":438896062},{"NoteNumber":56,"Velocity":41,"Duration":84506,"SoundDuration":84506,"Delta":438896062},{"NoteNumber":92,"Velocity":59,"Duration":84506,"SoundDuration":84506,"Delta":438896062},{"NoteNumber":94,"Velocity":59,"Duration":84507,"SoundDuration":84507,"Delta":438980569},{"NoteNumber":49,"Velocity":41,"Duration":356467,"SoundDuration":356467,"Delta":439022822},{"NoteNumber":85,"Velocity":58,"Duration":314213,"SoundDuration":314213,"Delta":439065076},{"NoteNumber":92,"Velocity":61,"Duration":77319,"SoundDuration":77319,"Delta":439065076},{"NoteNumber":65,"Velocity":54,"Duration":314213,"SoundDuration":314213,"Delta":439065076},{"NoteNumber":94,"Velocity":56,"Duration":79787,"SoundDuration":79787,"Delta":439142395},{"NoteNumber":92,"Velocity":62,"Duration":77319,"SoundDuration":77319,"Delta":439222183},{"NoteNumber":94,"Velocity":56,"Duration":79787,"SoundDuration":79787,"Delta":439299502},{"NoteNumber":92,"Velocity":63,"Duration":77319,"SoundDuration":77319,"Delta":439379290},{"NoteNumber":80,"Velocity":60,"Duration":390059,"SoundDuration":390059,"Delta":439379290},{"NoteNumber":77,"Velocity":60,"Duration":390059,"SoundDuration":390059,"Delta":439379290},{"NoteNumber":94,"Velocity":57,"Duration":80428,"SoundDuration":80428,"Delta":439456609},{"NoteNumber":92,"Velocity":60,"Duration":77922,"SoundDuration":77922,"Delta":439537038},{"NoteNumber":94,"Velocity":52,"Duration":78533,"SoundDuration":78533,"Delta":439614960},{"NoteNumber":92,"Velocity":59,"Duration":75854,"SoundDuration":75854,"Delta":439693494},{"NoteNumber":94,"Velocity":51,"Duration":76049,"SoundDuration":76049,"Delta":439769349},{"NoteNumber":92,"Velocity":59,"Duration":75762,"SoundDuration":75762,"Delta":439845398},{"NoteNumber":85,"Velocity":55,"Duration":75762,"SoundDuration":75762,"Delta":439845398},{"NoteNumber":82,"Velocity":55,"Duration":75762,"SoundDuration":75762,"Delta":439845398},{"NoteNumber":94,"Velocity":51,"Duration":76533,"SoundDuration":76533,"Delta":439921161},{"NoteNumber":92,"Velocity":59,"Duration":78741,"SoundDuration":78741,"Delta":439997694},{"NoteNumber":84,"Velocity":55,"Duration":78741,"SoundDuration":78741,"Delta":439997694},{"NoteNumber":80,"Velocity":55,"Duration":78741,"SoundDuration":78741,"Delta":439997694},{"NoteNumber":94,"Velocity":51,"Duration":79907,"SoundDuration":79907,"Delta":440076435},{"NoteNumber":92,"Velocity":56,"Duration":79690,"SoundDuration":79690,"Delta":440156343},{"NoteNumber":82,"Velocity":55,"Duration":79690,"SoundDuration":79690,"Delta":440156343},{"NoteNumber":78,"Velocity":55,"Duration":79690,"SoundDuration":79690,"Delta":440156343},{"NoteNumber":94,"Velocity":52,"Duration":79787,"SoundDuration":79787,"Delta":440236033},{"NoteNumber":92,"Velocity":61,"Duration":79155,"SoundDuration":79155,"Delta":440315821},{"NoteNumber":77,"Velocity":60,"Duration":158311,"SoundDuration":158311,"Delta":440315821},{"NoteNumber":80,"Velocity":60,"Duration":158311,"SoundDuration":158311,"Delta":440315821},{"NoteNumber":94,"Velocity":56,"Duration":79155,"SoundDuration":79155,"Delta":440394976},{"NoteNumber":92,"Velocity":62,"Duration":79155,"SoundDuration":79155,"Delta":440474132},{"NoteNumber":94,"Velocity":56,"Duration":79155,"SoundDuration":79155,"Delta":440553287},{"NoteNumber":92,"Velocity":59,"Duration":75671,"SoundDuration":75671,"Delta":440632443},{"NoteNumber":94,"Velocity":53,"Duration":75854,"SoundDuration":75854,"Delta":440708114},{"NoteNumber":92,"Velocity":58,"Duration":75008,"SoundDuration":75008,"Delta":440783969},{"NoteNumber":82,"Velocity":51,"Duration":50283,"SoundDuration":50283,"Delta":440783969},{"NoteNumber":78,"Velocity":51,"Duration":151836,"SoundDuration":151836,"Delta":440783969},{"NoteNumber":84,"Velocity":51,"Duration":50105,"SoundDuration":50105,"Delta":440834252},{"NoteNumber":94,"Velocity":52,"Duration":76828,"SoundDuration":76828,"Delta":440858977},{"NoteNumber":82,"Velocity":51,"Duration":51447,"SoundDuration":51447,"Delta":440884358},{"NoteNumber":92,"Velocity":59,"Duration":74830,"SoundDuration":74830,"Delta":440935805},{"NoteNumber":80,"Velocity":60,"Duration":74830,"SoundDuration":74830,"Delta":440935805},{"NoteNumber":77,"Velocity":60,"Duration":74830,"SoundDuration":74830,"Delta":440935805},{"NoteNumber":94,"Velocity":53,"Duration":76732,"SoundDuration":76732,"Delta":441010636},{"NoteNumber":92,"Velocity":60,"Duration":74543,"SoundDuration":74543,"Delta":441087369},{"NoteNumber":78,"Velocity":54,"Duration":74543,"SoundDuration":74543,"Delta":441087369},{"NoteNumber":75,"Velocity":54,"Duration":74543,"SoundDuration":74543,"Delta":441087369},{"NoteNumber":94,"Velocity":53,"Duration":75953,"SoundDuration":75953,"Delta":441161912},{"NoteNumber":92,"Velocity":60,"Duration":78533,"SoundDuration":78533,"Delta":441237865},{"NoteNumber":77,"Velocity":54,"Duration":78533,"SoundDuration":78533,"Delta":441237865},{"NoteNumber":73,"Velocity":54,"Duration":78533,"SoundDuration":78533,"Delta":441237865},{"NoteNumber":94,"Velocity":53,"Duration":78533,"SoundDuration":78533,"Delta":441316399},{"NoteNumber":92,"Velocity":60,"Duration":78533,"SoundDuration":78533,"Delta":441394933},{"NoteNumber":68,"Velocity":54,"Duration":78533,"SoundDuration":78533,"Delta":441394933},{"NoteNumber":75,"Velocity":54,"Duration":78533,"SoundDuration":78533,"Delta":441394933},{"NoteNumber":94,"Velocity":53,"Duration":78534,"SoundDuration":78534,"Delta":441473467},{"NoteNumber":92,"Velocity":61,"Duration":85772,"SoundDuration":85772,"Delta":441552001},{"NoteNumber":65,"Velocity":54,"Duration":173236,"SoundDuration":173236,"Delta":441552001},{"NoteNumber":73,"Velocity":54,"Duration":173236,"SoundDuration":173236,"Delta":441552001},{"NoteNumber":94,"Velocity":56,"Duration":87463,"SoundDuration":87463,"Delta":441637774},{"NoteNumber":92,"Velocity":62,"Duration":87463,"SoundDuration":87463,"Delta":441725237},{"NoteNumber":94,"Velocity":56,"Duration":79787,"SoundDuration":79787,"Delta":441812701},{"NoteNumber":92,"Velocity":63,"Duration":77319,"SoundDuration":77319,"Delta":441892488},{"NoteNumber":68,"Velocity":60,"Duration":390059,"SoundDuration":390059,"Delta":441892488},{"NoteNumber":65,"Velocity":60,"Duration":390059,"SoundDuration":390059,"Delta":441892488},{"NoteNumber":94,"Velocity":57,"Duration":80428,"SoundDuration":80428,"Delta":441969808},{"NoteNumber":92,"Velocity":60,"Duration":77922,"SoundDuration":77922,"Delta":442050237},{"NoteNumber":94,"Velocity":52,"Duration":78533,"SoundDuration":78533,"Delta":442128159},{"NoteNumber":92,"Velocity":67,"Duration":75854,"SoundDuration":75854,"Delta":442206693},{"NoteNumber":89,"Velocity":51,"Duration":76049,"SoundDuration":76049,"Delta":442282547},{"NoteNumber":90,"Velocity":65,"Duration":75762,"SoundDuration":75762,"Delta":442358597},{"NoteNumber":73,"Velocity":55,"Duration":75762,"SoundDuration":75762,"Delta":442358597},{"NoteNumber":70,"Velocity":55,"Duration":75762,"SoundDuration":75762,"Delta":442358597},{"NoteNumber":87,"Velocity":51,"Duration":76533,"SoundDuration":76533,"Delta":442434359},{"NoteNumber":89,"Velocity":65,"Duration":78741,"SoundDuration":78741,"Delta":442510893},{"NoteNumber":72,"Velocity":55,"Duration":78741,"SoundDuration":78741,"Delta":442510893},{"NoteNumber":68,"Velocity":55,"Duration":78741,"SoundDuration":78741,"Delta":442510893},{"NoteNumber":85,"Velocity":51,"Duration":79907,"SoundDuration":79907,"Delta":442589634},{"NoteNumber":90,"Velocity":64,"Duration":79690,"SoundDuration":79690,"Delta":442669542},{"NoteNumber":70,"Velocity":55,"Duration":79690,"SoundDuration":79690,"Delta":442669542},{"NoteNumber":66,"Velocity":55,"Duration":79690,"SoundDuration":79690,"Delta":442669542},{"NoteNumber":87,"Velocity":52,"Duration":79787,"SoundDuration":79787,"Delta":442749232},{"NoteNumber":92,"Velocity":61,"Duration":85959,"SoundDuration":85959,"Delta":442829019},{"NoteNumber":65,"Velocity":60,"Duration":171919,"SoundDuration":171919,"Delta":442829019},{"NoteNumber":68,"Velocity":60,"Duration":171919,"SoundDuration":171919,"Delta":442829019},{"NoteNumber":89,"Velocity":56,"Duration":85959,"SoundDuration":85959,"Delta":442914979},{"NoteNumber":94,"Velocity":62,"Duration":85959,"SoundDuration":85959,"Delta":443000939},{"NoteNumber":90,"Velocity":56,"Duration":85959,"SoundDuration":85959,"Delta":443086899},{"NoteNumber":92,"Velocity":59,"Duration":75671,"SoundDuration":75671,"Delta":443172859},{"NoteNumber":65,"Velocity":60,"Duration":378193,"SoundDuration":378193,"Delta":443172859},{"NoteNumber":68,"Velocity":60,"Duration":378193,"SoundDuration":378193,"Delta":443172859},{"NoteNumber":89,"Velocity":53,"Duration":75854,"SoundDuration":75854,"Delta":443248530},{"NoteNumber":92,"Velocity":58,"Duration":75046,"SoundDuration":75046,"Delta":443329422},{"NoteNumber":89,"Velocity":52,"Duration":76828,"SoundDuration":76828,"Delta":443399393},{"NoteNumber":92,"Velocity":59,"Duration":74830,"SoundDuration":74830,"Delta":443476221},{"NoteNumber":89,"Velocity":53,"Duration":76732,"SoundDuration":76732,"Delta":443551052},{"NoteNumber":90,"Velocity":60,"Duration":74543,"SoundDuration":74543,"Delta":443627784},{"NoteNumber":66,"Velocity":54,"Duration":74543,"SoundDuration":74543,"Delta":443627784},{"NoteNumber":63,"Velocity":54,"Duration":74543,"SoundDuration":74543,"Delta":443627784},{"NoteNumber":87,"Velocity":53,"Duration":75953,"SoundDuration":75953,"Delta":443702327},{"NoteNumber":89,"Velocity":60,"Duration":78533,"SoundDuration":78533,"Delta":443778281},{"NoteNumber":65,"Velocity":54,"Duration":78533,"SoundDuration":78533,"Delta":443778281},{"NoteNumber":61,"Velocity":54,"Duration":78533,"SoundDuration":78533,"Delta":443778281},{"NoteNumber":85,"Velocity":53,"Duration":78533,"SoundDuration":78533,"Delta":443856815},{"NoteNumber":90,"Velocity":60,"Duration":78533,"SoundDuration":78533,"Delta":443935349},{"NoteNumber":56,"Velocity":54,"Duration":78533,"SoundDuration":78533,"Delta":443935349},{"NoteNumber":63,"Velocity":54,"Duration":78533,"SoundDuration":78533,"Delta":443935349},{"NoteNumber":87,"Velocity":53,"Duration":78534,"SoundDuration":78534,"Delta":444013883},{"NoteNumber":92,"Velocity":61,"Duration":78533,"SoundDuration":78533,"Delta":444092417},{"NoteNumber":53,"Velocity":62,"Duration":78533,"SoundDuration":78533,"Delta":444092417},{"NoteNumber":61,"Velocity":62,"Duration":78533,"SoundDuration":78533,"Delta":444092417},{"NoteNumber":89,"Velocity":56,"Duration":78533,"SoundDuration":78533,"Delta":444170951},{"NoteNumber":88,"Velocity":58,"Duration":78533,"SoundDuration":78533,"Delta":444249485},{"NoteNumber":91,"Velocity":51,"Duration":78533,"SoundDuration":78533,"Delta":444328019},{"NoteNumber":89,"Velocity":54,"Duration":78533,"SoundDuration":78533,"Delta":444406553},{"NoteNumber":92,"Velocity":46,"Duration":78534,"SoundDuration":78534,"Delta":444485087},{"NoteNumber":89,"Velocity":54,"Duration":78533,"SoundDuration":78533,"Delta":444563621},{"NoteNumber":93,"Velocity":48,"Duration":78533,"SoundDuration":78533,"Delta":444642155},{"NoteNumber":90,"Velocity":55,"Duration":78533,"SoundDuration":78533,"Delta":444720689},{"NoteNumber":56,"Velocity":58,"Duration":628271,"SoundDuration":628271,"Delta":444720689},{"NoteNumber":63,"Velocity":58,"Duration":471204,"SoundDuration":471204,"Delta":444720689},{"NoteNumber":94,"Velocity":50,"Duration":78533,"SoundDuration":78533,"Delta":444799223},{"NoteNumber":89,"Velocity":56,"Duration":78533,"SoundDuration":78533,"Delta":444877757},{"NoteNumber":93,"Velocity":50,"Duration":78534,"SoundDuration":78534,"Delta":444956291},{"NoteNumber":90,"Velocity":56,"Duration":78533,"SoundDuration":78533,"Delta":445034825},{"NoteNumber":94,"Velocity":49,"Duration":78533,"SoundDuration":78533,"Delta":445113359},{"NoteNumber":87,"Velocity":56,"Duration":78533,"SoundDuration":78533,"Delta":445191893},{"NoteNumber":66,"Velocity":53,"Duration":78533,"SoundDuration":78533,"Delta":445191893},{"NoteNumber":96,"Velocity":49,"Duration":78533,"SoundDuration":78533,"Delta":445270427},{"NoteNumber":85,"Velocity":59,"Duration":73349,"SoundDuration":73349,"Delta":445348961},{"NoteNumber":61,"Velocity":58,"Duration":302543,"SoundDuration":302543,"Delta":445348961},{"NoteNumber":65,"Velocity":61,"Duration":73349,"SoundDuration":73349,"Delta":445348961},{"NoteNumber":97,"Velocity":53,"Duration":73349,"SoundDuration":73349,"Delta":445422310},{"NoteNumber":89,"Velocity":58,"Duration":77922,"SoundDuration":77922,"Delta":445495660},{"NoteNumber":68,"Velocity":55,"Duration":77922,"SoundDuration":77922,"Delta":445495660},{"NoteNumber":92,"Velocity":48,"Duration":77922,"SoundDuration":77922,"Delta":445573582},{"NoteNumber":88,"Velocity":55,"Duration":77922,"SoundDuration":77922,"Delta":445651504},{"NoteNumber":61,"Velocity":55,"Duration":155844,"SoundDuration":155844,"Delta":445651504},{"NoteNumber":91,"Velocity":51,"Duration":77922,"SoundDuration":77922,"Delta":445729426},{"NoteNumber":89,"Velocity":57,"Duration":77922,"SoundDuration":77922,"Delta":445807348},{"NoteNumber":92,"Velocity":51,"Duration":77922,"SoundDuration":77922,"Delta":445885271},{"NoteNumber":87,"Velocity":55,"Duration":78533,"SoundDuration":78533,"Delta":445963193},{"NoteNumber":56,"Velocity":58,"Duration":628271,"SoundDuration":628271,"Delta":445963193},{"NoteNumber":63,"Velocity":58,"Duration":471204,"SoundDuration":471204,"Delta":445963193},{"NoteNumber":90,"Velocity":50,"Duration":78533,"SoundDuration":78533,"Delta":446041727},{"NoteNumber":85,"Velocity":56,"Duration":78533,"SoundDuration":78533,"Delta":446120261},{"NoteNumber":89,"Velocity":50,"Duration":78534,"SoundDuration":78534,"Delta":446198795},{"NoteNumber":84,"Velocity":56,"Duration":78533,"SoundDuration":78533,"Delta":446277329},{"NoteNumber":87,"Velocity":49,"Duration":78533,"SoundDuration":78533,"Delta":446355863},{"NoteNumber":80,"Velocity":56,"Duration":78533,"SoundDuration":78533,"Delta":446434397},{"NoteNumber":66,"Velocity":53,"Duration":78533,"SoundDuration":78533,"Delta":446434397},{"NoteNumber":92,"Velocity":49,"Duration":78533,"SoundDuration":78533,"Delta":446512931},{"NoteNumber":85,"Velocity":59,"Duration":73349,"SoundDuration":73349,"Delta":446591465},{"NoteNumber":61,"Velocity":58,"Duration":302543,"SoundDuration":302543,"Delta":446591465},{"NoteNumber":65,"Velocity":61,"Duration":73349,"SoundDuration":73349,"Delta":446591465},{"NoteNumber":89,"Velocity":53,"Duration":73349,"SoundDuration":73349,"Delta":446664814},{"NoteNumber":80,"Velocity":58,"Duration":77922,"SoundDuration":77922,"Delta":446738164},{"NoteNumber":68,"Velocity":55,"Duration":77922,"SoundDuration":77922,"Delta":446738164},{"NoteNumber":87,"Velocity":48,"Duration":77922,"SoundDuration":77922,"Delta":446816086},{"NoteNumber":77,"Velocity":55,"Duration":77922,"SoundDuration":77922,"Delta":446894008},{"NoteNumber":61,"Velocity":55,"Duration":155844,"SoundDuration":155844,"Delta":446894008},{"NoteNumber":85,"Velocity":51,"Duration":77922,"SoundDuration":77922,"Delta":446971930},{"NoteNumber":89,"Velocity":57,"Duration":77922,"SoundDuration":77922,"Delta":447049852},{"NoteNumber":92,"Velocity":51,"Duration":77922,"SoundDuration":77922,"Delta":447127775},{"NoteNumber":90,"Velocity":55,"Duration":78533,"SoundDuration":78533,"Delta":447205697},{"NoteNumber":56,"Velocity":63,"Duration":628271,"SoundDuration":628271,"Delta":447205697},{"NoteNumber":63,"Velocity":63,"Duration":471204,"SoundDuration":471204,"Delta":447205697},{"NoteNumber":94,"Velocity":50,"Duration":78533,"SoundDuration":78533,"Delta":447284231},{"NoteNumber":89,"Velocity":56,"Duration":78533,"SoundDuration":78533,"Delta":447362765},{"NoteNumber":93,"Velocity":50,"Duration":78534,"SoundDuration":78534,"Delta":447441299},{"NoteNumber":90,"Velocity":56,"Duration":78533,"SoundDuration":78533,"Delta":447519833},{"NoteNumber":94,"Velocity":49,"Duration":78533,"SoundDuration":78533,"Delta":447598367},{"NoteNumber":87,"Velocity":56,"Duration":78533,"SoundDuration":78533,"Delta":447676901},{"NoteNumber":66,"Velocity":58,"Duration":78533,"SoundDuration":78533,"Delta":447676901},{"NoteNumber":96,"Velocity":49,"Duration":78533,"SoundDuration":78533,"Delta":447755435},{"NoteNumber":85,"Velocity":59,"Duration":73349,"SoundDuration":73349,"Delta":447833969},{"NoteNumber":61,"Velocity":63,"Duration":302543,"SoundDuration":302543,"Delta":447833969},{"NoteNumber":65,"Velocity":67,"Duration":73349,"SoundDuration":73349,"Delta":447833969},{"NoteNumber":97,"Velocity":53,"Duration":73349,"SoundDuration":73349,"Delta":447907318},{"NoteNumber":89,"Velocity":58,"Duration":77922,"SoundDuration":77922,"Delta":447980668},{"NoteNumber":68,"Velocity":60,"Duration":77922,"SoundDuration":77922,"Delta":447980668},{"NoteNumber":92,"Velocity":48,"Duration":77922,"SoundDuration":77922,"Delta":448058590},{"NoteNumber":88,"Velocity":55,"Duration":77922,"SoundDuration":77922,"Delta":448136512},{"NoteNumber":61,"Velocity":60,"Duration":155844,"SoundDuration":155844,"Delta":448136512},{"NoteNumber":91,"Velocity":51,"Duration":77922,"SoundDuration":77922,"Delta":448214434},{"NoteNumber":89,"Velocity":57,"Duration":77922,"SoundDuration":77922,"Delta":448292356},{"NoteNumber":92,"Velocity":51,"Duration":77922,"SoundDuration":77922,"Delta":448370279},{"NoteNumber":87,"Velocity":60,"Duration":77922,"SoundDuration":77922,"Delta":448448201},{"NoteNumber":48,"Velocity":50,"Duration":77922,"SoundDuration":77922,"Delta":448448201},{"NoteNumber":90,"Velocity":55,"Duration":77922,"SoundDuration":77922,"Delta":448526123},{"NoteNumber":49,"Velocity":51,"Duration":77922,"SoundDuration":77922,"Delta":448526123},{"NoteNumber":85,"Velocity":60,"Duration":77460,"SoundDuration":77460,"Delta":448604045},{"NoteNumber":51,"Velocity":52,"Duration":77460,"SoundDuration":77460,"Delta":448604045},{"NoteNumber":89,"Velocity":56,"Duration":77319,"SoundDuration":77319,"Delta":448681505},{"NoteNumber":53,"Velocity":53,"Duration":77319,"SoundDuration":77319,"Delta":448681505},{"NoteNumber":84,"Velocity":61,"Duration":77102,"SoundDuration":77102,"Delta":448758825},{"NoteNumber":54,"Velocity":54,"Duration":77102,"SoundDuration":77102,"Delta":448758825},{"NoteNumber":87,"Velocity":56,"Duration":76726,"SoundDuration":76726,"Delta":448835927},{"NoteNumber":56,"Velocity":55,"Duration":76726,"SoundDuration":76726,"Delta":448835927},{"NoteNumber":80,"Velocity":61,"Duration":76726,"SoundDuration":76726,"Delta":448912653},{"NoteNumber":58,"Velocity":57,"Duration":76726,"SoundDuration":76726,"Delta":448912653},{"NoteNumber":92,"Velocity":58,"Duration":76161,"SoundDuration":76161,"Delta":448989380},{"NoteNumber":60,"Velocity":58,"Duration":76161,"SoundDuration":76161,"Delta":448989380},{"NoteNumber":85,"Velocity":62,"Duration":76142,"SoundDuration":76142,"Delta":449065541},{"NoteNumber":61,"Velocity":59,"Duration":76142,"SoundDuration":76142,"Delta":449065541},{"NoteNumber":89,"Velocity":58,"Duration":75816,"SoundDuration":75816,"Delta":449141683},{"NoteNumber":63,"Velocity":60,"Duration":75816,"SoundDuration":75816,"Delta":449141683},{"NoteNumber":80,"Velocity":62,"Duration":75566,"SoundDuration":75566,"Delta":449217499},{"NoteNumber":65,"Velocity":61,"Duration":75566,"SoundDuration":75566,"Delta":449217499},{"NoteNumber":87,"Velocity":59,"Duration":75472,"SoundDuration":75472,"Delta":449293066},{"NoteNumber":66,"Velocity":62,"Duration":75472,"SoundDuration":75472,"Delta":449293066},{"NoteNumber":77,"Velocity":59,"Duration":74999,"SoundDuration":74999,"Delta":449368538},{"NoteNumber":68,"Velocity":63,"Duration":150000,"SoundDuration":150000,"Delta":449368538},{"NoteNumber":85,"Velocity":62,"Duration":75000,"SoundDuration":75000,"Delta":449443538},{"NoteNumber":89,"Velocity":64,"Duration":89020,"SoundDuration":89020,"Delta":449518538},{"NoteNumber":92,"Velocity":67,"Duration":89020,"SoundDuration":89020,"Delta":449607559},{"NoteNumber":87,"Velocity":64,"Duration":76497,"SoundDuration":76497,"Delta":449696580},{"NoteNumber":60,"Velocity":56,"Duration":76497,"SoundDuration":76497,"Delta":449696580},{"NoteNumber":90,"Velocity":58,"Duration":76726,"SoundDuration":76726,"Delta":449773078},{"NoteNumber":61,"Velocity":57,"Duration":76726,"SoundDuration":76726,"Delta":449773078},{"NoteNumber":85,"Velocity":64,"Duration":76726,"SoundDuration":76726,"Delta":449849804},{"NoteNumber":63,"Velocity":59,"Duration":76726,"SoundDuration":76726,"Delta":449849804},{"NoteNumber":89,"Velocity":60,"Duration":76161,"SoundDuration":76161,"Delta":449926531},{"NoteNumber":65,"Velocity":60,"Duration":76161,"SoundDuration":76161,"Delta":449926531},{"NoteNumber":84,"Velocity":61,"Duration":76142,"SoundDuration":76142,"Delta":450002692},{"NoteNumber":66,"Velocity":61,"Duration":76142,"SoundDuration":76142,"Delta":450002692},{"NoteNumber":87,"Velocity":64,"Duration":75969,"SoundDuration":75969,"Delta":450078834},{"NoteNumber":68,"Velocity":63,"Duration":75969,"SoundDuration":75969,"Delta":450078834},{"NoteNumber":80,"Velocity":67,"Duration":75566,"SoundDuration":75566,"Delta":450154804},{"NoteNumber":70,"Velocity":64,"Duration":75566,"SoundDuration":75566,"Delta":450154804},{"NoteNumber":92,"Velocity":67,"Duration":75566,"SoundDuration":75566,"Delta":450230371},{"NoteNumber":72,"Velocity":65,"Duration":75566,"SoundDuration":75566,"Delta":450230371},{"NoteNumber":85,"Velocity":66,"Duration":75207,"SoundDuration":75207,"Delta":450305937},{"NoteNumber":73,"Velocity":67,"Duration":75207,"SoundDuration":75207,"Delta":450305937},{"NoteNumber":89,"Velocity":61,"Duration":74999,"SoundDuration":74999,"Delta":450381145},{"NoteNumber":75,"Velocity":68,"Duration":74999,"SoundDuration":74999,"Delta":450381145},{"NoteNumber":84,"Velocity":66,"Duration":74999,"SoundDuration":74999,"Delta":450456145},{"NoteNumber":77,"Velocity":69,"Duration":74999,"SoundDuration":74999,"Delta":450456145},{"NoteNumber":87,"Velocity":63,"Duration":74460,"SoundDuration":74460,"Delta":450531145},{"NoteNumber":78,"Velocity":71,"Duration":74460,"SoundDuration":74460,"Delta":450531145},{"NoteNumber":85,"Velocity":67,"Duration":74441,"SoundDuration":74441,"Delta":450605605},{"NoteNumber":80,"Velocity":72,"Duration":148718,"SoundDuration":148718,"Delta":450605605},{"NoteNumber":89,"Velocity":62,"Duration":74276,"SoundDuration":74276,"Delta":450680047},{"NoteNumber":80,"Velocity":67,"Duration":87463,"SoundDuration":87463,"Delta":450754324},{"NoteNumber":92,"Velocity":63,"Duration":85576,"SoundDuration":85576,"Delta":450841787},{"NoteNumber":92,"Velocity":68,"Duration":76142,"SoundDuration":76142,"Delta":450927364},{"NoteNumber":53,"Velocity":61,"Duration":76142,"SoundDuration":76142,"Delta":450927364},{"NoteNumber":95,"Velocity":64,"Duration":76142,"SoundDuration":76142,"Delta":451003506},{"NoteNumber":54,"Velocity":62,"Duration":76142,"SoundDuration":76142,"Delta":451003506},{"NoteNumber":90,"Velocity":68,"Duration":76007,"SoundDuration":76007,"Delta":451079648},{"NoteNumber":56,"Velocity":64,"Duration":76007,"SoundDuration":76007,"Delta":451079648},{"NoteNumber":94,"Velocity":64,"Duration":75566,"SoundDuration":75566,"Delta":451155656},{"NoteNumber":58,"Velocity":65,"Duration":75566,"SoundDuration":75566,"Delta":451155656},{"NoteNumber":89,"Velocity":69,"Duration":75566,"SoundDuration":75566,"Delta":451231223},{"NoteNumber":59,"Velocity":66,"Duration":75566,"SoundDuration":75566,"Delta":451231223},{"NoteNumber":92,"Velocity":65,"Duration":75245,"SoundDuration":75245,"Delta":451306789},{"NoteNumber":61,"Velocity":67,"Duration":75245,"SoundDuration":75245,"Delta":451306789},{"NoteNumber":85,"Velocity":69,"Duration":74999,"SoundDuration":74999,"Delta":451382035},{"NoteNumber":63,"Velocity":69,"Duration":74999,"SoundDuration":74999,"Delta":451382035},{"NoteNumber":97,"Velocity":73,"Duration":74999,"SoundDuration":74999,"Delta":451457035},{"NoteNumber":65,"Velocity":70,"Duration":74999,"SoundDuration":74999,"Delta":451457035},{"NoteNumber":90,"Velocity":70,"Duration":74497,"SoundDuration":74497,"Delta":451532035},{"NoteNumber":66,"Velocity":72,"Duration":74497,"SoundDuration":74497,"Delta":451532035},{"NoteNumber":94,"Velocity":67,"Duration":74441,"SoundDuration":74441,"Delta":451606532},{"NoteNumber":68,"Velocity":73,"Duration":74441,"SoundDuration":74441,"Delta":451606532},{"NoteNumber":85,"Velocity":71,"Duration":74313,"SoundDuration":74313,"Delta":451680974},{"NoteNumber":70,"Velocity":74,"Duration":74313,"SoundDuration":74313,"Delta":451680974},{"NoteNumber":92,"Velocity":67,"Duration":73891,"SoundDuration":73891,"Delta":451755287},{"NoteNumber":71,"Velocity":76,"Duration":73891,"SoundDuration":73891,"Delta":451755287},{"NoteNumber":82,"Velocity":67,"Duration":73891,"SoundDuration":73891,"Delta":451829179},{"NoteNumber":73,"Velocity":77,"Duration":147476,"SoundDuration":147476,"Delta":451829179},{"NoteNumber":90,"Velocity":70,"Duration":73584,"SoundDuration":73584,"Delta":451903071},{"NoteNumber":94,"Velocity":72,"Duration":83798,"SoundDuration":83798,"Delta":451976655},{"NoteNumber":97,"Velocity":75,"Duration":83798,"SoundDuration":83798,"Delta":452060454},{"NoteNumber":92,"Velocity":72,"Duration":77031,"SoundDuration":77031,"Delta":452144253},{"NoteNumber":65,"Velocity":67,"Duration":77031,"SoundDuration":77031,"Delta":452144253},{"NoteNumber":95,"Velocity":67,"Duration":77319,"SoundDuration":77319,"Delta":452221285},{"NoteNumber":66,"Velocity":69,"Duration":77319,"SoundDuration":77319,"Delta":452221285},{"NoteNumber":90,"Velocity":73,"Duration":77022,"SoundDuration":77022,"Delta":452298604},{"NoteNumber":68,"Velocity":70,"Duration":77022,"SoundDuration":77022,"Delta":452298604},{"NoteNumber":94,"Velocity":67,"Duration":76726,"SoundDuration":76726,"Delta":452375627},{"NoteNumber":70,"Velocity":72,"Duration":76726,"SoundDuration":76726,"Delta":452375627},{"NoteNumber":89,"Velocity":73,"Duration":76667,"SoundDuration":76667,"Delta":452452354},{"NoteNumber":71,"Velocity":73,"Duration":76667,"SoundDuration":76667,"Delta":452452354},{"NoteNumber":92,"Velocity":70,"Duration":76142,"SoundDuration":76142,"Delta":452529022},{"NoteNumber":73,"Velocity":75,"Duration":76142,"SoundDuration":76142,"Delta":452529022},{"NoteNumber":85,"Velocity":74,"Duration":76142,"SoundDuration":76142,"Delta":452605164},{"NoteNumber":75,"Velocity":77,"Duration":76142,"SoundDuration":76142,"Delta":452605164},{"NoteNumber":97,"Velocity":70,"Duration":75585,"SoundDuration":75585,"Delta":452681306},{"NoteNumber":77,"Velocity":78,"Duration":75585,"SoundDuration":75585,"Delta":452681306},{"NoteNumber":90,"Velocity":74,"Duration":75566,"SoundDuration":75566,"Delta":452756892},{"NoteNumber":78,"Velocity":80,"Duration":75566,"SoundDuration":75566,"Delta":452756892},{"NoteNumber":92,"Velocity":70,"Duration":75245,"SoundDuration":75245,"Delta":452832458},{"NoteNumber":80,"Velocity":81,"Duration":75245,"SoundDuration":75245,"Delta":452832458},{"NoteNumber":89,"Velocity":75,"Duration":74999,"SoundDuration":74999,"Delta":452907704},{"NoteNumber":82,"Velocity":83,"Duration":74999,"SoundDuration":74999,"Delta":452907704},{"NoteNumber":92,"Velocity":70,"Duration":74906,"SoundDuration":74906,"Delta":452982704},{"NoteNumber":84,"Velocity":85,"Duration":74906,"SoundDuration":74906,"Delta":452982704},{"NoteNumber":90,"Velocity":75,"Duration":74441,"SoundDuration":74441,"Delta":453057611},{"NoteNumber":85,"Velocity":86,"Duration":148883,"SoundDuration":148883,"Delta":453057611},{"NoteNumber":94,"Velocity":72,"Duration":74441,"SoundDuration":74441,"Delta":453132053},{"NoteNumber":85,"Velocity":76,"Duration":85959,"SoundDuration":85959,"Delta":453206494},{"NoteNumber":97,"Velocity":72,"Duration":85959,"SoundDuration":85959,"Delta":453292454},{"NoteNumber":48,"Velocity":88,"Duration":309278,"SoundDuration":309278,"Delta":453378414},{"NoteNumber":36,"Velocity":64,"Duration":309278,"SoundDuration":309278,"Delta":453378414},{"NoteNumber":44,"Velocity":64,"Duration":309278,"SoundDuration":309278,"Delta":453378414},{"NoteNumber":42,"Velocity":64,"Duration":309278,"SoundDuration":309278,"Delta":453378414},{"NoteNumber":49,"Velocity":67,"Duration":77319,"SoundDuration":77319,"Delta":453455734},{"NoteNumber":51,"Velocity":68,"Duration":77319,"SoundDuration":77319,"Delta":453533053},{"NoteNumber":53,"Velocity":70,"Duration":77319,"SoundDuration":77319,"Delta":453610373},{"NoteNumber":54,"Velocity":71,"Duration":81081,"SoundDuration":81081,"Delta":453687693},{"NoteNumber":51,"Velocity":78,"Duration":324324,"SoundDuration":324324,"Delta":453687693},{"NoteNumber":39,"Velocity":57,"Duration":324324,"SoundDuration":324324,"Delta":453687693},{"NoteNumber":44,"Velocity":57,"Duration":324324,"SoundDuration":324324,"Delta":453687693},{"NoteNumber":42,"Velocity":57,"Duration":324324,"SoundDuration":324324,"Delta":453687693},{"NoteNumber":56,"Velocity":72,"Duration":81081,"SoundDuration":81081,"Delta":453768774},{"NoteNumber":58,"Velocity":74,"Duration":81081,"SoundDuration":81081,"Delta":453849855},{"NoteNumber":60,"Velocity":75,"Duration":81081,"SoundDuration":81081,"Delta":453930936},{"NoteNumber":61,"Velocity":75,"Duration":75566,"SoundDuration":75566,"Delta":454012017},{"NoteNumber":51,"Velocity":85,"Duration":302266,"SoundDuration":302266,"Delta":454012017},{"NoteNumber":39,"Velocity":63,"Duration":302266,"SoundDuration":302266,"Delta":454012017},{"NoteNumber":41,"Velocity":63,"Duration":302266,"SoundDuration":302266,"Delta":454012017},{"NoteNumber":44,"Velocity":63,"Duration":302266,"SoundDuration":302266,"Delta":454012017},{"NoteNumber":65,"Velocity":76,"Duration":75566,"SoundDuration":75566,"Delta":454087584},{"NoteNumber":68,"Velocity":78,"Duration":75566,"SoundDuration":75566,"Delta":454163151},{"NoteNumber":73,"Velocity":79,"Duration":75566,"SoundDuration":75566,"Delta":454238717},{"NoteNumber":77,"Velocity":80,"Duration":82417,"SoundDuration":82417,"Delta":454314284},{"NoteNumber":49,"Velocity":78,"Duration":329670,"SoundDuration":329670,"Delta":454314284},{"NoteNumber":37,"Velocity":57,"Duration":329670,"SoundDuration":329670,"Delta":454314284},{"NoteNumber":41,"Velocity":57,"Duration":329670,"SoundDuration":329670,"Delta":454314284},{"NoteNumber":44,"Velocity":57,"Duration":329670,"SoundDuration":329670,"Delta":454314284},{"NoteNumber":80,"Velocity":82,"Duration":82417,"SoundDuration":82417,"Delta":454396702},{"NoteNumber":85,"Velocity":83,"Duration":82417,"SoundDuration":82417,"Delta":454479119},{"NoteNumber":89,"Velocity":85,"Duration":82417,"SoundDuration":82417,"Delta":454561537},{"NoteNumber":53,"Velocity":86,"Duration":311688,"SoundDuration":311688,"Delta":454643955},{"NoteNumber":41,"Velocity":64,"Duration":311688,"SoundDuration":311688,"Delta":454643955},{"NoteNumber":47,"Velocity":64,"Duration":311688,"SoundDuration":311688,"Delta":454643955},{"NoteNumber":49,"Velocity":64,"Duration":311688,"SoundDuration":311688,"Delta":454643955},{"NoteNumber":54,"Velocity":75,"Duration":77922,"SoundDuration":77922,"Delta":454721877},{"NoteNumber":56,"Velocity":76,"Duration":77922,"SoundDuration":77922,"Delta":454799799},{"NoteNumber":58,"Velocity":78,"Duration":77922,"SoundDuration":77922,"Delta":454877721},{"NoteNumber":59,"Velocity":79,"Duration":84506,"SoundDuration":84506,"Delta":454955643},{"NoteNumber":56,"Velocity":78,"Duration":338028,"SoundDuration":338028,"Delta":454955643},{"NoteNumber":44,"Velocity":57,"Duration":338028,"SoundDuration":338028,"Delta":454955643},{"NoteNumber":47,"Velocity":57,"Duration":338028,"SoundDuration":338028,"Delta":454955643},{"NoteNumber":49,"Velocity":57,"Duration":338028,"SoundDuration":338028,"Delta":454955643},{"NoteNumber":61,"Velocity":80,"Duration":84507,"SoundDuration":84507,"Delta":455040150},{"NoteNumber":63,"Velocity":81,"Duration":84506,"SoundDuration":84506,"Delta":455124657},{"NoteNumber":65,"Velocity":82,"Duration":84507,"SoundDuration":84507,"Delta":455209164},{"NoteNumber":66,"Velocity":83,"Duration":79787,"SoundDuration":79787,"Delta":455293671},{"NoteNumber":56,"Velocity":86,"Duration":319148,"SoundDuration":319148,"Delta":455293671},{"NoteNumber":44,"Velocity":64,"Duration":319148,"SoundDuration":319148,"Delta":455293671},{"NoteNumber":46,"Velocity":64,"Duration":319148,"SoundDuration":319148,"Delta":455293671},{"NoteNumber":49,"Velocity":64,"Duration":319148,"SoundDuration":319148,"Delta":455293671},{"NoteNumber":70,"Velocity":84,"Duration":79787,"SoundDuration":79787,"Delta":455373458},{"NoteNumber":73,"Velocity":86,"Duration":79787,"SoundDuration":79787,"Delta":455453246},{"NoteNumber":78,"Velocity":88,"Duration":79787,"SoundDuration":79787,"Delta":455533033},{"NoteNumber":82,"Velocity":90,"Duration":83798,"SoundDuration":83798,"Delta":455612820},{"NoteNumber":54,"Velocity":81,"Duration":335195,"SoundDuration":335195,"Delta":455612820},{"NoteNumber":42,"Velocity":59,"Duration":335195,"SoundDuration":335195,"Delta":455612820},{"NoteNumber":46,"Velocity":59,"Duration":335195,"SoundDuration":335195,"Delta":455612820},{"NoteNumber":49,"Velocity":59,"Duration":335195,"SoundDuration":335195,"Delta":455612820},{"NoteNumber":85,"Velocity":92,"Duration":83798,"SoundDuration":83798,"Delta":455696619},{"NoteNumber":90,"Velocity":94,"Duration":83798,"SoundDuration":83798,"Delta":455780418},{"NoteNumber":92,"Velocity":95,"Duration":83798,"SoundDuration":83798,"Delta":455864217},{"NoteNumber":82,"Velocity":97,"Duration":85227,"SoundDuration":85227,"Delta":455948016},{"NoteNumber":94,"Velocity":97,"Duration":85227,"SoundDuration":85227,"Delta":455948016},{"NoteNumber":30,"Velocity":71,"Duration":340909,"SoundDuration":340909,"Delta":455948016},{"NoteNumber":42,"Velocity":98,"Duration":340909,"SoundDuration":340909,"Delta":455948016},{"NoteNumber":90,"Velocity":91,"Duration":85227,"SoundDuration":85227,"Delta":456118470},{"NoteNumber":92,"Velocity":94,"Duration":85227,"SoundDuration":85227,"Delta":456203697},{"NoteNumber":94,"Velocity":97,"Duration":85227,"SoundDuration":85227,"Delta":456288925},{"NoteNumber":82,"Velocity":97,"Duration":85227,"SoundDuration":85227,"Delta":456288925},{"NoteNumber":70,"Velocity":93,"Duration":85227,"SoundDuration":85227,"Delta":456288925},{"NoteNumber":58,"Velocity":69,"Duration":85227,"SoundDuration":85227,"Delta":456288925},{"NoteNumber":61,"Velocity":69,"Duration":85227,"SoundDuration":85227,"Delta":456288925},{"NoteNumber":66,"Velocity":69,"Duration":85227,"SoundDuration":85227,"Delta":456288925},{"NoteNumber":90,"Velocity":88,"Duration":85227,"SoundDuration":85227,"Delta":456459379},{"NoteNumber":82,"Velocity":88,"Duration":85227,"SoundDuration":85227,"Delta":456459379},{"NoteNumber":70,"Velocity":88,"Duration":85227,"SoundDuration":85227,"Delta":456459379},{"NoteNumber":58,"Velocity":66,"Duration":85227,"SoundDuration":85227,"Delta":456459379},{"NoteNumber":61,"Velocity":66,"Duration":85227,"SoundDuration":85227,"Delta":456459379},{"NoteNumber":66,"Velocity":66,"Duration":85227,"SoundDuration":85227,"Delta":456459379},{"NoteNumber":94,"Velocity":94,"Duration":89020,"SoundDuration":89020,"Delta":456629834},{"NoteNumber":82,"Velocity":94,"Duration":89020,"SoundDuration":89020,"Delta":456629834},{"NoteNumber":70,"Velocity":95,"Duration":178041,"SoundDuration":178041,"Delta":456629834},{"NoteNumber":58,"Velocity":71,"Duration":178041,"SoundDuration":178041,"Delta":456629834},{"NoteNumber":61,"Velocity":71,"Duration":178041,"SoundDuration":178041,"Delta":456629834},{"NoteNumber":66,"Velocity":71,"Duration":178041,"SoundDuration":178041,"Delta":456629834},{"NoteNumber":92,"Velocity":89,"Duration":89020,"SoundDuration":89020,"Delta":456718854},{"NoteNumber":90,"Velocity":89,"Duration":89020,"SoundDuration":89020,"Delta":456807875},{"NoteNumber":66,"Velocity":88,"Duration":85227,"SoundDuration":85227,"Delta":456985917},{"NoteNumber":61,"Velocity":74,"Duration":85227,"SoundDuration":85227,"Delta":456985917},{"NoteNumber":54,"Velocity":81,"Duration":85227,"SoundDuration":85227,"Delta":456985917},{"NoteNumber":42,"Velocity":69,"Duration":85227,"SoundDuration":85227,"Delta":456985917},{"NoteNumber":49,"Velocity":69,"Duration":85227,"SoundDuration":85227,"Delta":456985917},{"NoteNumber":65,"Velocity":81,"Duration":85227,"SoundDuration":85227,"Delta":457156371},{"NoteNumber":61,"Velocity":69,"Duration":85227,"SoundDuration":85227,"Delta":457156371},{"NoteNumber":53,"Velocity":73,"Duration":85227,"SoundDuration":85227,"Delta":457156371},{"NoteNumber":41,"Velocity":61,"Duration":85227,"SoundDuration":85227,"Delta":457156371},{"NoteNumber":49,"Velocity":61,"Duration":85227,"SoundDuration":85227,"Delta":457156371},{"NoteNumber":65,"Velocity":89,"Duration":511363,"SoundDuration":511363,"Delta":457326826},{"NoteNumber":61,"Velocity":75,"Duration":511363,"SoundDuration":511363,"Delta":457326826},{"NoteNumber":53,"Velocity":80,"Duration":511363,"SoundDuration":511363,"Delta":457326826},{"NoteNumber":41,"Velocity":67,"Duration":511363,"SoundDuration":511363,"Delta":457326826},{"NoteNumber":49,"Velocity":67,"Duration":511363,"SoundDuration":511363,"Delta":457326826},{"NoteNumber":87,"Velocity":90,"Duration":83798,"SoundDuration":83798,"Delta":457838189},{"NoteNumber":89,"Velocity":91,"Duration":83798,"SoundDuration":83798,"Delta":457921988},{"NoteNumber":78,"Velocity":93,"Duration":80428,"SoundDuration":80428,"Delta":458005787},{"NoteNumber":90,"Velocity":93,"Duration":80428,"SoundDuration":80428,"Delta":458005787},{"NoteNumber":39,"Velocity":68,"Duration":321715,"SoundDuration":321715,"Delta":458005787},{"NoteNumber":51,"Velocity":94,"Duration":321715,"SoundDuration":321715,"Delta":458005787},{"NoteNumber":87,"Velocity":87,"Duration":80428,"SoundDuration":80428,"Delta":458166645},{"NoteNumber":89,"Velocity":90,"Duration":80428,"SoundDuration":80428,"Delta":458247074},{"NoteNumber":90,"Velocity":93,"Duration":80429,"SoundDuration":80429,"Delta":458327503},{"NoteNumber":78,"Velocity":93,"Duration":80429,"SoundDuration":80429,"Delta":458327503},{"NoteNumber":66,"Velocity":89,"Duration":80429,"SoundDuration":80429,"Delta":458327503},{"NoteNumber":54,"Velocity":66,"Duration":80429,"SoundDuration":80429,"Delta":458327503},{"NoteNumber":58,"Velocity":66,"Duration":80429,"SoundDuration":80429,"Delta":458327503},{"NoteNumber":63,"Velocity":66,"Duration":80429,"SoundDuration":80429,"Delta":458327503},{"NoteNumber":87,"Velocity":84,"Duration":80428,"SoundDuration":80428,"Delta":458488361},{"NoteNumber":78,"Velocity":84,"Duration":80428,"SoundDuration":80428,"Delta":458488361},{"NoteNumber":66,"Velocity":84,"Duration":80428,"SoundDuration":80428,"Delta":458488361},{"NoteNumber":54,"Velocity":63,"Duration":80428,"SoundDuration":80428,"Delta":458488361},{"NoteNumber":58,"Velocity":63,"Duration":80428,"SoundDuration":80428,"Delta":458488361},{"NoteNumber":63,"Velocity":63,"Duration":80428,"SoundDuration":80428,"Delta":458488361},{"NoteNumber":90,"Velocity":90,"Duration":80428,"SoundDuration":80428,"Delta":458649219},{"NoteNumber":78,"Velocity":90,"Duration":80428,"SoundDuration":80428,"Delta":458649219},{"NoteNumber":66,"Velocity":91,"Duration":160857,"SoundDuration":160857,"Delta":458649219},{"NoteNumber":54,"Velocity":68,"Duration":160857,"SoundDuration":160857,"Delta":458649219},{"NoteNumber":58,"Velocity":68,"Duration":160857,"SoundDuration":160857,"Delta":458649219},{"NoteNumber":63,"Velocity":68,"Duration":160857,"SoundDuration":160857,"Delta":458649219},{"NoteNumber":89,"Velocity":83,"Duration":80428,"SoundDuration":80428,"Delta":458729648},{"NoteNumber":87,"Velocity":83,"Duration":80429,"SoundDuration":80429,"Delta":458810077},{"NoteNumber":86,"Velocity":83,"Duration":80428,"SoundDuration":80428,"Delta":458890506},{"NoteNumber":87,"Velocity":90,"Duration":126050,"SoundDuration":126050,"Delta":458970935},{"NoteNumber":66,"Velocity":63,"Duration":79155,"SoundDuration":79155,"Delta":459223036},{"NoteNumber":70,"Velocity":63,"Duration":79155,"SoundDuration":79155,"Delta":459223036},{"NoteNumber":58,"Velocity":53,"Duration":79155,"SoundDuration":79155,"Delta":459223036},{"NoteNumber":54,"Velocity":56,"Duration":158311,"SoundDuration":158311,"Delta":459223036},{"NoteNumber":42,"Velocity":47,"Duration":158311,"SoundDuration":158311,"Delta":459223036},{"NoteNumber":71,"Velocity":66,"Duration":81081,"SoundDuration":81081,"Delta":459381347},{"NoteNumber":66,"Velocity":66,"Duration":81081,"SoundDuration":81081,"Delta":459381347},{"NoteNumber":59,"Velocity":56,"Duration":81081,"SoundDuration":81081,"Delta":459381347},{"NoteNumber":54,"Velocity":56,"Duration":81081,"SoundDuration":81081,"Delta":459381347},{"NoteNumber":47,"Velocity":47,"Duration":81081,"SoundDuration":81081,"Delta":459381347},{"NoteNumber":72,"Velocity":68,"Duration":81081,"SoundDuration":81081,"Delta":459543509},{"NoteNumber":68,"Velocity":68,"Duration":81081,"SoundDuration":81081,"Delta":459543509},{"NoteNumber":60,"Velocity":57,"Duration":81081,"SoundDuration":81081,"Delta":459543509},{"NoteNumber":56,"Velocity":59,"Duration":81081,"SoundDuration":81081,"Delta":459543509},{"NoteNumber":44,"Velocity":50,"Duration":81081,"SoundDuration":81081,"Delta":459543509},{"NoteNumber":68,"Velocity":71,"Duration":162162,"SoundDuration":162162,"Delta":459705671},{"NoteNumber":73,"Velocity":71,"Duration":162162,"SoundDuration":162162,"Delta":459705671},{"NoteNumber":61,"Velocity":60,"Duration":162162,"SoundDuration":162162,"Delta":459705671},{"NoteNumber":56,"Velocity":63,"Duration":162162,"SoundDuration":162162,"Delta":459705671},{"NoteNumber":49,"Velocity":53,"Duration":162162,"SoundDuration":162162,"Delta":459705671},{"NoteNumber":72,"Velocity":80,"Duration":316843,"SoundDuration":316843,"Delta":460029564},{"NoteNumber":60,"Velocity":68,"Duration":316843,"SoundDuration":316843,"Delta":460029564},{"NoteNumber":36,"Velocity":51,"Duration":79787,"SoundDuration":79787,"Delta":460029564},{"NoteNumber":37,"Velocity":53,"Duration":79366,"SoundDuration":79366,"Delta":460109352},{"NoteNumber":68,"Velocity":62,"Duration":157689,"SoundDuration":157689,"Delta":460188718},{"NoteNumber":66,"Velocity":62,"Duration":157689,"SoundDuration":157689,"Delta":460188718},{"NoteNumber":39,"Velocity":54,"Duration":79155,"SoundDuration":79155,"Delta":460188718},{"NoteNumber":41,"Velocity":55,"Duration":78533,"SoundDuration":78533,"Delta":460267874},{"NoteNumber":75,"Velocity":75,"Duration":311092,"SoundDuration":311092,"Delta":460346408},{"NoteNumber":63,"Velocity":64,"Duration":311092,"SoundDuration":311092,"Delta":460346408},{"NoteNumber":42,"Velocity":57,"Duration":78330,"SoundDuration":78330,"Delta":460346408},{"NoteNumber":44,"Velocity":58,"Duration":77922,"SoundDuration":77922,"Delta":460424738},{"NoteNumber":68,"Velocity":62,"Duration":154840,"SoundDuration":154840,"Delta":460502660},{"NoteNumber":66,"Velocity":62,"Duration":154840,"SoundDuration":154840,"Delta":460502660},{"NoteNumber":46,"Velocity":59,"Duration":77520,"SoundDuration":77520,"Delta":460502660},{"NoteNumber":47,"Velocity":60,"Duration":77319,"SoundDuration":77319,"Delta":460580180},{"NoteNumber":75,"Velocity":82,"Duration":305158,"SoundDuration":305158,"Delta":460657500},{"NoteNumber":63,"Velocity":70,"Duration":305158,"SoundDuration":305158,"Delta":460657500},{"NoteNumber":49,"Velocity":62,"Duration":76726,"SoundDuration":76726,"Delta":460657500},{"NoteNumber":51,"Velocity":63,"Duration":76531,"SoundDuration":76531,"Delta":460734226},{"NoteNumber":68,"Velocity":64,"Duration":151900,"SoundDuration":151900,"Delta":460810758},{"NoteNumber":65,"Velocity":64,"Duration":151900,"SoundDuration":151900,"Delta":460810758},{"NoteNumber":53,"Velocity":65,"Duration":76142,"SoundDuration":76142,"Delta":460810758},{"NoteNumber":54,"Velocity":66,"Duration":75758,"SoundDuration":75758,"Delta":460886900},{"NoteNumber":73,"Velocity":77,"Duration":328608,"SoundDuration":328608,"Delta":460962658},{"NoteNumber":61,"Velocity":65,"Duration":328608,"SoundDuration":328608,"Delta":460962658},{"NoteNumber":56,"Velocity":67,"Duration":150566,"SoundDuration":150566,"Delta":460962658},{"NoteNumber":68,"Velocity":64,"Duration":178041,"SoundDuration":178041,"Delta":461113225},{"NoteNumber":65,"Velocity":64,"Duration":178041,"SoundDuration":178041,"Delta":461113225},{"NoteNumber":77,"Velocity":82,"Duration":306112,"SoundDuration":306112,"Delta":461291267},{"NoteNumber":65,"Velocity":70,"Duration":306112,"SoundDuration":306112,"Delta":461291267},{"NoteNumber":41,"Velocity":58,"Duration":76497,"SoundDuration":76497,"Delta":461291267},{"NoteNumber":42,"Velocity":60,"Duration":76726,"SoundDuration":76726,"Delta":461367765},{"NoteNumber":71,"Velocity":63,"Duration":152887,"SoundDuration":152887,"Delta":461444491},{"NoteNumber":73,"Velocity":63,"Duration":152887,"SoundDuration":152887,"Delta":461444491},{"NoteNumber":44,"Velocity":61,"Duration":76726,"SoundDuration":76726,"Delta":461444491},{"NoteNumber":46,"Velocity":62,"Duration":76161,"SoundDuration":76161,"Delta":461521217},{"NoteNumber":80,"Velocity":76,"Duration":325694,"SoundDuration":325694,"Delta":461597379},{"NoteNumber":68,"Velocity":65,"Duration":325694,"SoundDuration":325694,"Delta":461597379},{"NoteNumber":47,"Velocity":63,"Duration":76142,"SoundDuration":76142,"Delta":461597379},{"NoteNumber":49,"Velocity":65,"Duration":76142,"SoundDuration":76142,"Delta":461673521},{"NoteNumber":71,"Velocity":65,"Duration":173410,"SoundDuration":173410,"Delta":461749663},{"NoteNumber":73,"Velocity":65,"Duration":173410,"SoundDuration":173410,"Delta":461749663},{"NoteNumber":51,"Velocity":66,"Duration":86705,"SoundDuration":86705,"Delta":461749663},{"NoteNumber":53,"Velocity":67,"Duration":86705,"SoundDuration":86705,"Delta":461836368},{"NoteNumber":80,"Velocity":85,"Duration":299668,"SoundDuration":299668,"Delta":461923074},{"NoteNumber":68,"Velocity":71,"Duration":299668,"SoundDuration":299668,"Delta":461923074},{"NoteNumber":54,"Velocity":68,"Duration":75207,"SoundDuration":75207,"Delta":461923074},{"NoteNumber":56,"Velocity":70,"Duration":74999,"SoundDuration":74999,"Delta":461998281},{"NoteNumber":70,"Velocity":64,"Duration":149460,"SoundDuration":149460,"Delta":462073281},{"NoteNumber":73,"Velocity":64,"Duration":149460,"SoundDuration":149460,"Delta":462073281},{"NoteNumber":58,"Velocity":71,"Duration":74999,"SoundDuration":74999,"Delta":462073281},{"NoteNumber":59,"Velocity":72,"Duration":74460,"SoundDuration":74460,"Delta":462148281},{"NoteNumber":78,"Velocity":80,"Duration":327962,"SoundDuration":327962,"Delta":462222742},{"NoteNumber":66,"Velocity":68,"Duration":327962,"SoundDuration":327962,"Delta":462222742},{"NoteNumber":61,"Velocity":73,"Duration":158948,"SoundDuration":158948,"Delta":462222742},{"NoteNumber":70,"Velocity":62,"Duration":169014,"SoundDuration":169014,"Delta":462381690},{"NoteNumber":73,"Velocity":62,"Duration":169014,"SoundDuration":169014,"Delta":462381690},{"NoteNumber":70,"Velocity":97,"Duration":79787,"SoundDuration":79787,"Delta":462550704},{"NoteNumber":82,"Velocity":97,"Duration":79787,"SoundDuration":79787,"Delta":462550704},{"NoteNumber":30,"Velocity":71,"Duration":319148,"SoundDuration":319148,"Delta":462550704},{"NoteNumber":42,"Velocity":98,"Duration":319148,"SoundDuration":319148,"Delta":462550704},{"NoteNumber":78,"Velocity":91,"Duration":79787,"SoundDuration":79787,"Delta":462710279},{"NoteNumber":80,"Velocity":94,"Duration":79787,"SoundDuration":79787,"Delta":462790066},{"NoteNumber":82,"Velocity":97,"Duration":87463,"SoundDuration":87463,"Delta":462869853},{"NoteNumber":70,"Velocity":97,"Duration":87463,"SoundDuration":87463,"Delta":462869853},{"NoteNumber":61,"Velocity":93,"Duration":87463,"SoundDuration":87463,"Delta":462869853},{"NoteNumber":49,"Velocity":69,"Duration":87463,"SoundDuration":87463,"Delta":462869853},{"NoteNumber":54,"Velocity":69,"Duration":87463,"SoundDuration":87463,"Delta":462869853},{"NoteNumber":58,"Velocity":69,"Duration":87463,"SoundDuration":87463,"Delta":462869853},{"NoteNumber":78,"Velocity":88,"Duration":87463,"SoundDuration":87463,"Delta":463044780},{"NoteNumber":70,"Velocity":88,"Duration":87463,"SoundDuration":87463,"Delta":463044780},{"NoteNumber":61,"Velocity":88,"Duration":87463,"SoundDuration":87463,"Delta":463044780},{"NoteNumber":49,"Velocity":66,"Duration":87463,"SoundDuration":87463,"Delta":463044780},{"NoteNumber":54,"Velocity":66,"Duration":87463,"SoundDuration":87463,"Delta":463044780},{"NoteNumber":58,"Velocity":66,"Duration":87463,"SoundDuration":87463,"Delta":463044780},{"NoteNumber":82,"Velocity":94,"Duration":88235,"SoundDuration":88235,"Delta":463219707},{"NoteNumber":70,"Velocity":94,"Duration":88235,"SoundDuration":88235,"Delta":463219707},{"NoteNumber":61,"Velocity":95,"Duration":176470,"SoundDuration":176470,"Delta":463219707},{"NoteNumber":49,"Velocity":71,"Duration":176470,"SoundDuration":176470,"Delta":463219707},{"NoteNumber":54,"Velocity":71,"Duration":176470,"SoundDuration":176470,"Delta":463219707},{"NoteNumber":58,"Velocity":71,"Duration":176470,"SoundDuration":176470,"Delta":463219707},{"NoteNumber":80,"Velocity":89,"Duration":88235,"SoundDuration":88235,"Delta":463307943},{"NoteNumber":78,"Velocity":89,"Duration":88235,"SoundDuration":88235,"Delta":463396178},{"NoteNumber":58,"Velocity":74,"Duration":83798,"SoundDuration":83798,"Delta":463572648},{"NoteNumber":66,"Velocity":88,"Duration":83798,"SoundDuration":83798,"Delta":463572648},{"NoteNumber":61,"Velocity":74,"Duration":83798,"SoundDuration":83798,"Delta":463572648},{"NoteNumber":54,"Velocity":81,"Duration":83798,"SoundDuration":83798,"Delta":463572648},{"NoteNumber":46,"Velocity":69,"Duration":83798,"SoundDuration":83798,"Delta":463572648},{"NoteNumber":49,"Velocity":69,"Duration":83798,"SoundDuration":83798,"Delta":463572648},{"NoteNumber":57,"Velocity":69,"Duration":83798,"SoundDuration":83798,"Delta":463740246},{"NoteNumber":65,"Velocity":81,"Duration":83798,"SoundDuration":83798,"Delta":463740246},{"NoteNumber":60,"Velocity":69,"Duration":83798,"SoundDuration":83798,"Delta":463740246},{"NoteNumber":53,"Velocity":73,"Duration":83798,"SoundDuration":83798,"Delta":463740246},{"NoteNumber":45,"Velocity":61,"Duration":83798,"SoundDuration":83798,"Delta":463740246},{"NoteNumber":48,"Velocity":61,"Duration":83798,"SoundDuration":83798,"Delta":463740246},{"NoteNumber":57,"Velocity":75,"Duration":502793,"SoundDuration":502793,"Delta":463907844},{"NoteNumber":65,"Velocity":89,"Duration":502793,"SoundDuration":502793,"Delta":463907844},{"NoteNumber":60,"Velocity":75,"Duration":502793,"SoundDuration":502793,"Delta":463907844},{"NoteNumber":53,"Velocity":80,"Duration":502793,"SoundDuration":502793,"Delta":463907844},{"NoteNumber":45,"Velocity":67,"Duration":502793,"SoundDuration":502793,"Delta":463907844},{"NoteNumber":48,"Velocity":67,"Duration":502793,"SoundDuration":502793,"Delta":463907844},{"NoteNumber":75,"Velocity":90,"Duration":83798,"SoundDuration":83798,"Delta":464410637},{"NoteNumber":77,"Velocity":91,"Duration":83798,"SoundDuration":83798,"Delta":464494436},{"NoteNumber":66,"Velocity":93,"Duration":84506,"SoundDuration":84506,"Delta":464578235},{"NoteNumber":78,"Velocity":93,"Duration":84506,"SoundDuration":84506,"Delta":464578235},{"NoteNumber":27,"Velocity":76,"Duration":338028,"SoundDuration":338028,"Delta":464578235},{"NoteNumber":39,"Velocity":94,"Duration":338028,"SoundDuration":338028,"Delta":464578235},{"NoteNumber":75,"Velocity":87,"Duration":84506,"SoundDuration":84506,"Delta":464747249},{"NoteNumber":77,"Velocity":90,"Duration":84507,"SoundDuration":84507,"Delta":464831756},{"NoteNumber":78,"Velocity":93,"Duration":78533,"SoundDuration":78533,"Delta":464916263},{"NoteNumber":66,"Velocity":93,"Duration":78533,"SoundDuration":78533,"Delta":464916263},{"NoteNumber":58,"Velocity":89,"Duration":78533,"SoundDuration":78533,"Delta":464916263},{"NoteNumber":46,"Velocity":66,"Duration":78533,"SoundDuration":78533,"Delta":464916263},{"NoteNumber":51,"Velocity":66,"Duration":78533,"SoundDuration":78533,"Delta":464916263},{"NoteNumber":54,"Velocity":66,"Duration":78533,"SoundDuration":78533,"Delta":464916263},{"NoteNumber":75,"Velocity":84,"Duration":78533,"SoundDuration":78533,"Delta":465073331},{"NoteNumber":66,"Velocity":84,"Duration":78533,"SoundDuration":78533,"Delta":465073331},{"NoteNumber":58,"Velocity":84,"Duration":78533,"SoundDuration":78533,"Delta":465073331},{"NoteNumber":46,"Velocity":63,"Duration":78533,"SoundDuration":78533,"Delta":465073331},{"NoteNumber":51,"Velocity":63,"Duration":78533,"SoundDuration":78533,"Delta":465073331},{"NoteNumber":54,"Velocity":63,"Duration":78533,"SoundDuration":78533,"Delta":465073331},{"NoteNumber":78,"Velocity":90,"Duration":78533,"SoundDuration":78533,"Delta":465230399},{"NoteNumber":66,"Velocity":90,"Duration":78533,"SoundDuration":78533,"Delta":465230399},{"NoteNumber":58,"Velocity":91,"Duration":157067,"SoundDuration":157067,"Delta":465230399},{"NoteNumber":46,"Velocity":68,"Duration":157067,"SoundDuration":157067,"Delta":465230399},{"NoteNumber":51,"Velocity":68,"Duration":157067,"SoundDuration":157067,"Delta":465230399},{"NoteNumber":54,"Velocity":68,"Duration":157067,"SoundDuration":157067,"Delta":465230399},{"NoteNumber":77,"Velocity":83,"Duration":78533,"SoundDuration":78533,"Delta":465308933},{"NoteNumber":75,"Velocity":83,"Duration":78533,"SoundDuration":78533,"Delta":465387467},{"NoteNumber":74,"Velocity":83,"Duration":78533,"SoundDuration":78533,"Delta":465466001},{"NoteNumber":75,"Velocity":90,"Duration":93167,"SoundDuration":93167,"Delta":465544535},{"NoteNumber":66,"Velocity":55,"Duration":79787,"SoundDuration":79787,"Delta":466091877},{"NoteNumber":54,"Velocity":46,"Duration":79787,"SoundDuration":79787,"Delta":466091877},{"NoteNumber":58,"Velocity":46,"Duration":79787,"SoundDuration":79787,"Delta":466091877},{"NoteNumber":42,"Velocity":48,"Duration":79787,"SoundDuration":79787,"Delta":466091877},{"NoteNumber":30,"Velocity":40,"Duration":79787,"SoundDuration":79787,"Delta":466091877},{"NoteNumber":66,"Velocity":58,"Duration":79134,"SoundDuration":79134,"Delta":466251220},{"NoteNumber":54,"Velocity":49,"Duration":79134,"SoundDuration":79134,"Delta":466251220},{"NoteNumber":59,"Velocity":49,"Duration":79134,"SoundDuration":79134,"Delta":466251220},{"NoteNumber":47,"Velocity":51,"Duration":79134,"SoundDuration":79134,"Delta":466251220},{"NoteNumber":35,"Velocity":43,"Duration":79134,"SoundDuration":79134,"Delta":466251220},{"NoteNumber":68,"Velocity":60,"Duration":78309,"SoundDuration":78309,"Delta":466408889},{"NoteNumber":56,"Velocity":51,"Duration":78309,"SoundDuration":78309,"Delta":466408889},{"NoteNumber":60,"Velocity":51,"Duration":78309,"SoundDuration":78309,"Delta":466408889},{"NoteNumber":44,"Velocity":54,"Duration":78309,"SoundDuration":78309,"Delta":466408889},{"NoteNumber":32,"Velocity":45,"Duration":78309,"SoundDuration":78309,"Delta":466408889},{"NoteNumber":68,"Velocity":65,"Duration":80865,"SoundDuration":80865,"Delta":466565270},{"NoteNumber":56,"Velocity":55,"Duration":80865,"SoundDuration":80865,"Delta":466565270},{"NoteNumber":61,"Velocity":55,"Duration":80865,"SoundDuration":80865,"Delta":466565270},{"NoteNumber":49,"Velocity":56,"Duration":80865,"SoundDuration":80865,"Delta":466565270},{"NoteNumber":37,"Velocity":47,"Duration":80865,"SoundDuration":80865,"Delta":466565270},{"NoteNumber":66,"Velocity":59,"Duration":77821,"SoundDuration":77821,"Delta":466724369},{"NoteNumber":70,"Velocity":59,"Duration":77821,"SoundDuration":77821,"Delta":466724369},{"NoteNumber":58,"Velocity":50,"Duration":77821,"SoundDuration":77821,"Delta":466724369},{"NoteNumber":42,"Velocity":52,"Duration":77821,"SoundDuration":77821,"Delta":466724369},{"NoteNumber":30,"Velocity":44,"Duration":77821,"SoundDuration":77821,"Delta":466724369},{"NoteNumber":71,"Velocity":63,"Duration":76825,"SoundDuration":76825,"Delta":466879510},{"NoteNumber":59,"Velocity":53,"Duration":76825,"SoundDuration":76825,"Delta":466879510},{"NoteNumber":66,"Velocity":53,"Duration":76825,"SoundDuration":76825,"Delta":466879510},{"NoteNumber":47,"Velocity":55,"Duration":76825,"SoundDuration":76825,"Delta":466879510},{"NoteNumber":35,"Velocity":46,"Duration":76825,"SoundDuration":76825,"Delta":466879510},{"NoteNumber":72,"Velocity":67,"Duration":76046,"SoundDuration":76046,"Delta":467032770},{"NoteNumber":60,"Velocity":56,"Duration":76046,"SoundDuration":76046,"Delta":467032770},{"NoteNumber":68,"Velocity":56,"Duration":76046,"SoundDuration":76046,"Delta":467032770},{"NoteNumber":44,"Velocity":58,"Duration":76046,"SoundDuration":76046,"Delta":467032770},{"NoteNumber":32,"Velocity":49,"Duration":76046,"SoundDuration":76046,"Delta":467032770},{"NoteNumber":73,"Velocity":70,"Duration":81743,"SoundDuration":81743,"Delta":467184099},{"NoteNumber":61,"Velocity":59,"Duration":81743,"SoundDuration":81743,"Delta":467184099},{"NoteNumber":68,"Velocity":59,"Duration":81743,"SoundDuration":81743,"Delta":467184099},{"NoteNumber":49,"Velocity":61,"Duration":81743,"SoundDuration":81743,"Delta":467184099},{"NoteNumber":37,"Velocity":51,"Duration":81743,"SoundDuration":81743,"Delta":467184099},{"NoteNumber":78,"Velocity":63,"Duration":76434,"SoundDuration":76434,"Delta":467343406},{"NoteNumber":66,"Velocity":52,"Duration":76434,"SoundDuration":76434,"Delta":467343406},{"NoteNumber":70,"Velocity":52,"Duration":76434,"SoundDuration":76434,"Delta":467343406},{"NoteNumber":42,"Velocity":52,"Duration":76434,"SoundDuration":76434,"Delta":467343406},{"NoteNumber":30,"Velocity":44,"Duration":76434,"SoundDuration":76434,"Delta":467343406},{"NoteNumber":78,"Velocity":66,"Duration":75472,"SoundDuration":75472,"Delta":467495694},{"NoteNumber":66,"Velocity":55,"Duration":75472,"SoundDuration":75472,"Delta":467495694},{"NoteNumber":71,"Velocity":55,"Duration":75472,"SoundDuration":75472,"Delta":467495694},{"NoteNumber":47,"Velocity":56,"Duration":75472,"SoundDuration":75472,"Delta":467495694},{"NoteNumber":35,"Velocity":47,"Duration":75472,"SoundDuration":75472,"Delta":467495694},{"NoteNumber":80,"Velocity":69,"Duration":74349,"SoundDuration":74349,"Delta":467646074},{"NoteNumber":68,"Velocity":58,"Duration":74349,"SoundDuration":74349,"Delta":467646074},{"NoteNumber":72,"Velocity":58,"Duration":74349,"SoundDuration":74349,"Delta":467646074},{"NoteNumber":44,"Velocity":59,"Duration":74349,"SoundDuration":74349,"Delta":467646074},{"NoteNumber":32,"Velocity":49,"Duration":74349,"SoundDuration":74349,"Delta":467646074},{"NoteNumber":80,"Velocity":74,"Duration":78640,"SoundDuration":78640,"Delta":467794097},{"NoteNumber":68,"Velocity":63,"Duration":78640,"SoundDuration":78640,"Delta":467794097},{"NoteNumber":73,"Velocity":63,"Duration":78640,"SoundDuration":78640,"Delta":467794097},{"NoteNumber":49,"Velocity":61,"Duration":78640,"SoundDuration":78640,"Delta":467794097},{"NoteNumber":37,"Velocity":51,"Duration":78640,"SoundDuration":78640,"Delta":467794097},{"NoteNumber":78,"Velocity":67,"Duration":75566,"SoundDuration":75566,"Delta":467949335},{"NoteNumber":82,"Velocity":67,"Duration":75566,"SoundDuration":75566,"Delta":467949335},{"NoteNumber":70,"Velocity":57,"Duration":75566,"SoundDuration":75566,"Delta":467949335},{"NoteNumber":42,"Velocity":57,"Duration":75566,"SoundDuration":75566,"Delta":467949335},{"NoteNumber":30,"Velocity":48,"Duration":75566,"SoundDuration":75566,"Delta":467949335},{"NoteNumber":83,"Velocity":72,"Duration":74999,"SoundDuration":74999,"Delta":468100374},{"NoteNumber":71,"Velocity":60,"Duration":74999,"SoundDuration":74999,"Delta":468100374},{"NoteNumber":78,"Velocity":60,"Duration":74999,"SoundDuration":74999,"Delta":468100374},{"NoteNumber":47,"Velocity":60,"Duration":74999,"SoundDuration":74999,"Delta":468100374},{"NoteNumber":35,"Velocity":50,"Duration":74999,"SoundDuration":74999,"Delta":468100374},{"NoteNumber":84,"Velocity":76,"Duration":74720,"SoundDuration":74720,"Delta":468250374},{"NoteNumber":72,"Velocity":64,"Duration":74720,"SoundDuration":74720,"Delta":468250374},{"NoteNumber":80,"Velocity":64,"Duration":74720,"SoundDuration":74720,"Delta":468250374},{"NoteNumber":44,"Velocity":63,"Duration":74720,"SoundDuration":74720,"Delta":468250374},{"NoteNumber":32,"Velocity":53,"Duration":74720,"SoundDuration":74720,"Delta":468250374},{"NoteNumber":85,"Velocity":80,"Duration":76142,"SoundDuration":76142,"Delta":468400082},{"NoteNumber":73,"Velocity":67,"Duration":76142,"SoundDuration":76142,"Delta":468400082},{"NoteNumber":80,"Velocity":67,"Duration":76142,"SoundDuration":76142,"Delta":468400082},{"NoteNumber":49,"Velocity":69,"Duration":76142,"SoundDuration":76142,"Delta":468400082},{"NoteNumber":37,"Velocity":69,"Duration":76142,"SoundDuration":76142,"Delta":468400082},{"NoteNumber":90,"Velocity":73,"Duration":74999,"SoundDuration":74999,"Delta":468552366},{"NoteNumber":78,"Velocity":62,"Duration":74999,"SoundDuration":74999,"Delta":468552366},{"NoteNumber":82,"Velocity":62,"Duration":74999,"SoundDuration":74999,"Delta":468552366},{"NoteNumber":42,"Velocity":65,"Duration":74999,"SoundDuration":74999,"Delta":468552366},{"NoteNumber":30,"Velocity":55,"Duration":74999,"SoundDuration":74999,"Delta":468552366},{"NoteNumber":90,"Velocity":75,"Duration":73891,"SoundDuration":73891,"Delta":468701590},{"NoteNumber":78,"Velocity":63,"Duration":73891,"SoundDuration":73891,"Delta":468701590},{"NoteNumber":83,"Velocity":63,"Duration":73891,"SoundDuration":73891,"Delta":468701590},{"NoteNumber":47,"Velocity":65,"Duration":73891,"SoundDuration":73891,"Delta":468701590},{"NoteNumber":35,"Velocity":55,"Duration":73891,"SoundDuration":73891,"Delta":468701590},{"NoteNumber":92,"Velocity":77,"Duration":73891,"SoundDuration":73891,"Delta":468849373},{"NoteNumber":80,"Velocity":65,"Duration":73891,"SoundDuration":73891,"Delta":468849373},{"NoteNumber":84,"Velocity":65,"Duration":73891,"SoundDuration":73891,"Delta":468849373},{"NoteNumber":44,"Velocity":65,"Duration":73891,"SoundDuration":73891,"Delta":468849373},{"NoteNumber":32,"Velocity":55,"Duration":73891,"SoundDuration":73891,"Delta":468849373},{"NoteNumber":92,"Velocity":78,"Duration":74276,"SoundDuration":74276,"Delta":468997157},{"NoteNumber":80,"Velocity":66,"Duration":74276,"SoundDuration":74276,"Delta":468997157},{"NoteNumber":85,"Velocity":66,"Duration":74276,"SoundDuration":74276,"Delta":468997157},{"NoteNumber":49,"Velocity":70,"Duration":74276,"SoundDuration":74276,"Delta":468997157},{"NoteNumber":37,"Velocity":59,"Duration":74276,"SoundDuration":74276,"Delta":468997157},{"NoteNumber":92,"Velocity":80,"Duration":74441,"SoundDuration":74441,"Delta":469145875},{"NoteNumber":80,"Velocity":68,"Duration":74441,"SoundDuration":74441,"Delta":469145875},{"NoteNumber":84,"Velocity":68,"Duration":74441,"SoundDuration":74441,"Delta":469145875},{"NoteNumber":44,"Velocity":63,"Duration":74441,"SoundDuration":74441,"Delta":469145875},{"NoteNumber":32,"Velocity":53,"Duration":74441,"SoundDuration":74441,"Delta":469145875},{"NoteNumber":92,"Velocity":82,"Duration":74832,"SoundDuration":74832,"Delta":469294758},{"NoteNumber":80,"Velocity":69,"Duration":74832,"SoundDuration":74832,"Delta":469294758},{"NoteNumber":85,"Velocity":69,"Duration":74832,"SoundDuration":74832,"Delta":469294758},{"NoteNumber":49,"Velocity":63,"Duration":74832,"SoundDuration":74832,"Delta":469294758},{"NoteNumber":37,"Velocity":53,"Duration":74832,"SoundDuration":74832,"Delta":469294758},{"NoteNumber":92,"Velocity":84,"Duration":74999,"SoundDuration":74999,"Delta":469444591},{"NoteNumber":80,"Velocity":71,"Duration":74999,"SoundDuration":74999,"Delta":469444591},{"NoteNumber":84,"Velocity":71,"Duration":74999,"SoundDuration":74999,"Delta":469444591},{"NoteNumber":44,"Velocity":63,"Duration":74999,"SoundDuration":74999,"Delta":469444591},{"NoteNumber":32,"Velocity":53,"Duration":74999,"SoundDuration":74999,"Delta":469444591},{"NoteNumber":92,"Velocity":88,"Duration":75566,"SoundDuration":75566,"Delta":469594609},{"NoteNumber":80,"Velocity":74,"Duration":75566,"SoundDuration":75566,"Delta":469594609},{"NoteNumber":85,"Velocity":74,"Duration":75566,"SoundDuration":75566,"Delta":469594609},{"NoteNumber":49,"Velocity":72,"Duration":75566,"SoundDuration":75566,"Delta":469594609},{"NoteNumber":37,"Velocity":61,"Duration":75566,"SoundDuration":75566,"Delta":469594609},{"NoteNumber":92,"Velocity":81,"Duration":75566,"SoundDuration":75566,"Delta":469745743},{"NoteNumber":80,"Velocity":68,"Duration":75566,"SoundDuration":75566,"Delta":469745743},{"NoteNumber":84,"Velocity":68,"Duration":75566,"SoundDuration":75566,"Delta":469745743},{"NoteNumber":44,"Velocity":69,"Duration":75566,"SoundDuration":75566,"Delta":469745743},{"NoteNumber":32,"Velocity":58,"Duration":75566,"SoundDuration":75566,"Delta":469745743},{"NoteNumber":92,"Velocity":83,"Duration":74741,"SoundDuration":74741,"Delta":469896785},{"NoteNumber":80,"Velocity":70,"Duration":74741,"SoundDuration":74741,"Delta":469896785},{"NoteNumber":85,"Velocity":70,"Duration":74741,"SoundDuration":74741,"Delta":469896785},{"NoteNumber":49,"Velocity":71,"Duration":74741,"SoundDuration":74741,"Delta":469896785},{"NoteNumber":37,"Velocity":59,"Duration":74741,"SoundDuration":74741,"Delta":469896785},{"NoteNumber":92,"Velocity":85,"Duration":75566,"SoundDuration":75566,"Delta":470047093},{"NoteNumber":80,"Velocity":71,"Duration":75566,"SoundDuration":75566,"Delta":470047093},{"NoteNumber":84,"Velocity":71,"Duration":75566,"SoundDuration":75566,"Delta":470047093},{"NoteNumber":44,"Velocity":72,"Duration":75566,"SoundDuration":75566,"Delta":470047093},{"NoteNumber":32,"Velocity":60,"Duration":75566,"SoundDuration":75566,"Delta":470047093},{"NoteNumber":92,"Velocity":95,"Duration":75571,"SoundDuration":75571,"Delta":470198226},{"NoteNumber":80,"Velocity":80,"Duration":75571,"SoundDuration":75571,"Delta":470198226},{"NoteNumber":85,"Velocity":80,"Duration":75571,"SoundDuration":75571,"Delta":470198226},{"NoteNumber":49,"Velocity":78,"Duration":75571,"SoundDuration":75571,"Delta":470198226},{"NoteNumber":37,"Velocity":66,"Duration":75571,"SoundDuration":75571,"Delta":470198226},{"NoteNumber":92,"Velocity":90,"Duration":81763,"SoundDuration":81763,"Delta":470352242},{"NoteNumber":80,"Velocity":76,"Duration":81763,"SoundDuration":81763,"Delta":470352242},{"NoteNumber":84,"Velocity":76,"Duration":81763,"SoundDuration":81763,"Delta":470352242},{"NoteNumber":44,"Velocity":76,"Duration":81763,"SoundDuration":81763,"Delta":470352242},{"NoteNumber":32,"Velocity":64,"Duration":81763,"SoundDuration":81763,"Delta":470352242},{"NoteNumber":92,"Velocity":92,"Duration":89706,"SoundDuration":89706,"Delta":470519372},{"NoteNumber":80,"Velocity":77,"Duration":89706,"SoundDuration":89706,"Delta":470519372},{"NoteNumber":85,"Velocity":77,"Duration":89706,"SoundDuration":89706,"Delta":470519372},{"NoteNumber":49,"Velocity":77,"Duration":89706,"SoundDuration":89706,"Delta":470519372},{"NoteNumber":37,"Velocity":65,"Duration":89706,"SoundDuration":89706,"Delta":470519372},{"NoteNumber":92,"Velocity":94,"Duration":98874,"SoundDuration":98874,"Delta":470703153},{"NoteNumber":80,"Velocity":80,"Duration":98874,"SoundDuration":98874,"Delta":470703153},{"NoteNumber":84,"Velocity":80,"Duration":98874,"SoundDuration":98874,"Delta":470703153},{"NoteNumber":44,"Velocity":79,"Duration":98874,"SoundDuration":98874,"Delta":470703153},{"NoteNumber":32,"Velocity":66,"Duration":98874,"SoundDuration":98874,"Delta":470703153},{"NoteNumber":92,"Velocity":106,"Duration":142180,"SoundDuration":142180,"Delta":470907504},{"NoteNumber":80,"Velocity":90,"Duration":142180,"SoundDuration":142180,"Delta":470907504},{"NoteNumber":85,"Velocity":90,"Duration":142180,"SoundDuration":142180,"Delta":470907504},{"NoteNumber":49,"Velocity":85,"Duration":142180,"SoundDuration":142180,"Delta":470907504},{"NoteNumber":37,"Velocity":71,"Duration":142180,"SoundDuration":142180,"Delta":470907504},{"NoteNumber":80,"Velocity":72,"Duration":55762,"SoundDuration":55762,"Delta":471160977},{"NoteNumber":68,"Velocity":60,"Duration":55762,"SoundDuration":55762,"Delta":471160977},{"NoteNumber":73,"Velocity":60,"Duration":55762,"SoundDuration":55762,"Delta":471160977},{"NoteNumber":67,"Velocity":63,"Duration":55607,"SoundDuration":55607,"Delta":471216739},{"NoteNumber":65,"Velocity":53,"Duration":55607,"SoundDuration":55607,"Delta":471216739},{"NoteNumber":82,"Velocity":78,"Duration":55401,"SoundDuration":55401,"Delta":471272347},{"NoteNumber":70,"Velocity":66,"Duration":55401,"SoundDuration":55401,"Delta":471272347},{"NoteNumber":73,"Velocity":66,"Duration":55401,"SoundDuration":55401,"Delta":471272347},{"NoteNumber":65,"Velocity":63,"Duration":55147,"SoundDuration":55147,"Delta":471327749},{"NoteNumber":61,"Velocity":53,"Duration":55147,"SoundDuration":55147,"Delta":471327749},{"NoteNumber":80,"Velocity":71,"Duration":54895,"SoundDuration":54895,"Delta":471382896},{"NoteNumber":68,"Velocity":59,"Duration":54895,"SoundDuration":54895,"Delta":471382896},{"NoteNumber":73,"Velocity":59,"Duration":54895,"SoundDuration":54895,"Delta":471382896},{"NoteNumber":67,"Velocity":64,"Duration":54695,"SoundDuration":54695,"Delta":471437791},{"NoteNumber":65,"Velocity":54,"Duration":54695,"SoundDuration":54695,"Delta":471437791},{"NoteNumber":82,"Velocity":77,"Duration":54496,"SoundDuration":54496,"Delta":471492486},{"NoteNumber":70,"Velocity":66,"Duration":54496,"SoundDuration":54496,"Delta":471492486},{"NoteNumber":73,"Velocity":66,"Duration":54496,"SoundDuration":54496,"Delta":471492486},{"NoteNumber":65,"Velocity":65,"Duration":54249,"SoundDuration":54249,"Delta":471546982},{"NoteNumber":61,"Velocity":54,"Duration":54249,"SoundDuration":54249,"Delta":471546982},{"NoteNumber":80,"Velocity":74,"Duration":54103,"SoundDuration":54103,"Delta":471601231},{"NoteNumber":68,"Velocity":61,"Duration":54103,"SoundDuration":54103,"Delta":471601231},{"NoteNumber":73,"Velocity":61,"Duration":54103,"SoundDuration":54103,"Delta":471601231},{"NoteNumber":67,"Velocity":65,"Duration":53908,"SoundDuration":53908,"Delta":471655335},{"NoteNumber":65,"Velocity":55,"Duration":53908,"SoundDuration":53908,"Delta":471655335},{"NoteNumber":82,"Velocity":80,"Duration":53667,"SoundDuration":53667,"Delta":471709243},{"NoteNumber":70,"Velocity":67,"Duration":53667,"SoundDuration":53667,"Delta":471709243},{"NoteNumber":73,"Velocity":67,"Duration":53667,"SoundDuration":53667,"Delta":471709243},{"NoteNumber":65,"Velocity":67,"Duration":53428,"SoundDuration":53428,"Delta":471762910},{"NoteNumber":61,"Velocity":56,"Duration":53428,"SoundDuration":53428,"Delta":471762910},{"NoteNumber":80,"Velocity":73,"Duration":53239,"SoundDuration":53239,"Delta":471816339},{"NoteNumber":68,"Velocity":61,"Duration":53239,"SoundDuration":53239,"Delta":471816339},{"NoteNumber":73,"Velocity":61,"Duration":53239,"SoundDuration":53239,"Delta":471816339},{"NoteNumber":67,"Velocity":67,"Duration":53050,"SoundDuration":53050,"Delta":471869578},{"NoteNumber":65,"Velocity":56,"Duration":53050,"SoundDuration":53050,"Delta":471869578},{"NoteNumber":82,"Velocity":81,"Duration":52863,"SoundDuration":52863,"Delta":471922629},{"NoteNumber":70,"Velocity":68,"Duration":52863,"SoundDuration":52863,"Delta":471922629},{"NoteNumber":73,"Velocity":68,"Duration":52863,"SoundDuration":52863,"Delta":471922629},{"NoteNumber":65,"Velocity":68,"Duration":53239,"SoundDuration":53239,"Delta":471975492},{"NoteNumber":61,"Velocity":57,"Duration":53239,"SoundDuration":53239,"Delta":471975492},{"NoteNumber":80,"Velocity":75,"Duration":53667,"SoundDuration":53667,"Delta":472028731},{"NoteNumber":68,"Velocity":62,"Duration":53667,"SoundDuration":53667,"Delta":472028731},{"NoteNumber":73,"Velocity":62,"Duration":53667,"SoundDuration":53667,"Delta":472028731},{"NoteNumber":67,"Velocity":69,"Duration":54103,"SoundDuration":54103,"Delta":472082399},{"NoteNumber":65,"Velocity":57,"Duration":54103,"SoundDuration":54103,"Delta":472082399},{"NoteNumber":82,"Velocity":80,"Duration":54546,"SoundDuration":54546,"Delta":472136502},{"NoteNumber":70,"Velocity":67,"Duration":54546,"SoundDuration":54546,"Delta":472136502},{"NoteNumber":73,"Velocity":67,"Duration":54546,"SoundDuration":54546,"Delta":472136502},{"NoteNumber":65,"Velocity":69,"Duration":54995,"SoundDuration":54995,"Delta":472191048},{"NoteNumber":61,"Velocity":57,"Duration":54995,"SoundDuration":54995,"Delta":472191048},{"NoteNumber":68,"Velocity":79,"Duration":55299,"SoundDuration":55299,"Delta":472246044},{"NoteNumber":73,"Velocity":79,"Duration":55299,"SoundDuration":55299,"Delta":472246044},{"NoteNumber":80,"Velocity":79,"Duration":55299,"SoundDuration":55299,"Delta":472246044},{"NoteNumber":65,"Velocity":70,"Duration":55762,"SoundDuration":55762,"Delta":472301344},{"NoteNumber":67,"Velocity":70,"Duration":55762,"SoundDuration":55762,"Delta":472301344},{"NoteNumber":82,"Velocity":84,"Duration":56232,"SoundDuration":56232,"Delta":472357107},{"NoteNumber":70,"Velocity":72,"Duration":56232,"SoundDuration":56232,"Delta":472357107},{"NoteNumber":73,"Velocity":72,"Duration":56232,"SoundDuration":56232,"Delta":472357107},{"NoteNumber":65,"Velocity":71,"Duration":56711,"SoundDuration":56711,"Delta":472413340},{"NoteNumber":61,"Velocity":58,"Duration":56711,"SoundDuration":56711,"Delta":472413340},{"NoteNumber":80,"Velocity":79,"Duration":57197,"SoundDuration":57197,"Delta":472470051},{"NoteNumber":68,"Velocity":67,"Duration":57197,"SoundDuration":57197,"Delta":472470051},{"NoteNumber":73,"Velocity":67,"Duration":57197,"SoundDuration":57197,"Delta":472470051},{"NoteNumber":67,"Velocity":72,"Duration":57692,"SoundDuration":57692,"Delta":472527249},{"NoteNumber":65,"Velocity":60,"Duration":57692,"SoundDuration":57692,"Delta":472527249},{"NoteNumber":82,"Velocity":83,"Duration":59118,"SoundDuration":59118,"Delta":472584942},{"NoteNumber":70,"Velocity":71,"Duration":59118,"SoundDuration":59118,"Delta":472584942},{"NoteNumber":73,"Velocity":71,"Duration":59118,"SoundDuration":59118,"Delta":472584942},{"NoteNumber":65,"Velocity":68,"Duration":60365,"SoundDuration":60365,"Delta":472644060},{"NoteNumber":61,"Velocity":57,"Duration":60365,"SoundDuration":60365,"Delta":472644060},{"NoteNumber":80,"Velocity":77,"Duration":61224,"SoundDuration":61224,"Delta":472704426},{"NoteNumber":68,"Velocity":66,"Duration":61224,"SoundDuration":61224,"Delta":472704426},{"NoteNumber":73,"Velocity":66,"Duration":61224,"SoundDuration":61224,"Delta":472704426},{"NoteNumber":89,"Velocity":64,"Duration":77922,"SoundDuration":77922,"Delta":472937079},{"NoteNumber":85,"Velocity":64,"Duration":77922,"SoundDuration":77922,"Delta":472937079},{"NoteNumber":46,"Velocity":63,"Duration":103896,"SoundDuration":103896,"Delta":472937079},{"NoteNumber":87,"Velocity":63,"Duration":77922,"SoundDuration":77922,"Delta":473015001},{"NoteNumber":51,"Velocity":55,"Duration":103896,"SoundDuration":103896,"Delta":473040975},{"NoteNumber":85,"Velocity":62,"Duration":77922,"SoundDuration":77922,"Delta":473092923},{"NoteNumber":55,"Velocity":55,"Duration":103896,"SoundDuration":103896,"Delta":473144871},{"NoteNumber":79,"Velocity":60,"Duration":77922,"SoundDuration":77922,"Delta":473170845},{"NoteNumber":73,"Velocity":59,"Duration":77922,"SoundDuration":77922,"Delta":473248767},{"NoteNumber":77,"Velocity":59,"Duration":77922,"SoundDuration":77922,"Delta":473248767},{"NoteNumber":61,"Velocity":62,"Duration":155844,"SoundDuration":155844,"Delta":473248767},{"NoteNumber":75,"Velocity":58,"Duration":77922,"SoundDuration":77922,"Delta":473326689},{"NoteNumber":73,"Velocity":56,"Duration":77922,"SoundDuration":77922,"Delta":473404612},{"NoteNumber":67,"Velocity":55,"Duration":168539,"SoundDuration":168539,"Delta":473482534},{"NoteNumber":89,"Velocity":64,"Duration":77922,"SoundDuration":77922,"Delta":473651073},{"NoteNumber":85,"Velocity":64,"Duration":77922,"SoundDuration":77922,"Delta":473651073},{"NoteNumber":46,"Velocity":63,"Duration":103896,"SoundDuration":103896,"Delta":473651073},{"NoteNumber":87,"Velocity":63,"Duration":77922,"SoundDuration":77922,"Delta":473728995},{"NoteNumber":51,"Velocity":55,"Duration":103896,"SoundDuration":103896,"Delta":473754969},{"NoteNumber":85,"Velocity":62,"Duration":77922,"SoundDuration":77922,"Delta":473806917},{"NoteNumber":55,"Velocity":55,"Duration":103896,"SoundDuration":103896,"Delta":473858865},{"NoteNumber":79,"Velocity":60,"Duration":77922,"SoundDuration":77922,"Delta":473884839},{"NoteNumber":73,"Velocity":59,"Duration":77922,"SoundDuration":77922,"Delta":473962762},{"NoteNumber":77,"Velocity":59,"Duration":77922,"SoundDuration":77922,"Delta":473962762},{"NoteNumber":61,"Velocity":62,"Duration":155844,"SoundDuration":155844,"Delta":473962762},{"NoteNumber":75,"Velocity":58,"Duration":77922,"SoundDuration":77922,"Delta":474040684},{"NoteNumber":73,"Velocity":56,"Duration":77922,"SoundDuration":77922,"Delta":474118606},{"NoteNumber":67,"Velocity":55,"Duration":163043,"SoundDuration":163043,"Delta":474196528},{"NoteNumber":94,"Velocity":64,"Duration":78533,"SoundDuration":78533,"Delta":474359571},{"NoteNumber":90,"Velocity":64,"Duration":78533,"SoundDuration":78533,"Delta":474359571},{"NoteNumber":44,"Velocity":63,"Duration":104712,"SoundDuration":104712,"Delta":474359571},{"NoteNumber":92,"Velocity":63,"Duration":78533,"SoundDuration":78533,"Delta":474438105},{"NoteNumber":51,"Velocity":59,"Duration":78533,"SoundDuration":78533,"Delta":474438105},{"NoteNumber":90,"Velocity":62,"Duration":78533,"SoundDuration":78533,"Delta":474516639},{"NoteNumber":54,"Velocity":59,"Duration":78533,"SoundDuration":78533,"Delta":474516639},{"NoteNumber":84,"Velocity":60,"Duration":78534,"SoundDuration":78534,"Delta":474595173},{"NoteNumber":60,"Velocity":59,"Duration":78534,"SoundDuration":78534,"Delta":474595173},{"NoteNumber":78,"Velocity":59,"Duration":78533,"SoundDuration":78533,"Delta":474673707},{"NoteNumber":82,"Velocity":59,"Duration":78533,"SoundDuration":78533,"Delta":474673707},{"NoteNumber":66,"Velocity":62,"Duration":157067,"SoundDuration":157067,"Delta":474673707},{"NoteNumber":80,"Velocity":58,"Duration":78533,"SoundDuration":78533,"Delta":474752241},{"NoteNumber":78,"Velocity":56,"Duration":78533,"SoundDuration":78533,"Delta":474830775},{"NoteNumber":72,"Velocity":55,"Duration":168539,"SoundDuration":168539,"Delta":474909309},{"NoteNumber":94,"Velocity":64,"Duration":77922,"SoundDuration":77922,"Delta":475077849},{"NoteNumber":90,"Velocity":64,"Duration":77922,"SoundDuration":77922,"Delta":475077849},{"NoteNumber":44,"Velocity":62,"Duration":77922,"SoundDuration":77922,"Delta":475077849},{"NoteNumber":92,"Velocity":63,"Duration":77922,"SoundDuration":77922,"Delta":475155771},{"NoteNumber":51,"Velocity":58,"Duration":77922,"SoundDuration":77922,"Delta":475155771},{"NoteNumber":90,"Velocity":62,"Duration":77922,"SoundDuration":77922,"Delta":475233693},{"NoteNumber":54,"Velocity":58,"Duration":77922,"SoundDuration":77922,"Delta":475233693},{"NoteNumber":84,"Velocity":60,"Duration":77922,"SoundDuration":77922,"Delta":475311615},{"NoteNumber":60,"Velocity":58,"Duration":77922,"SoundDuration":77922,"Delta":475311615},{"NoteNumber":78,"Velocity":59,"Duration":77922,"SoundDuration":77922,"Delta":475389537},{"NoteNumber":82,"Velocity":59,"Duration":77922,"SoundDuration":77922,"Delta":475389537},{"NoteNumber":66,"Velocity":62,"Duration":155844,"SoundDuration":155844,"Delta":475389537},{"NoteNumber":80,"Velocity":58,"Duration":77922,"SoundDuration":77922,"Delta":475467459},{"NoteNumber":78,"Velocity":56,"Duration":77922,"SoundDuration":77922,"Delta":475545382},{"NoteNumber":72,"Velocity":55,"Duration":163043,"SoundDuration":163043,"Delta":475623304},{"NoteNumber":73,"Velocity":64,"Duration":163043,"SoundDuration":163043,"Delta":475786347},{"NoteNumber":49,"Velocity":62,"Duration":163043,"SoundDuration":163043,"Delta":475786347},{"NoteNumber":65,"Velocity":62,"Duration":163043,"SoundDuration":163043,"Delta":475786347},{"NoteNumber":92,"Velocity":72,"Duration":56710,"SoundDuration":56710,"Delta":476094712},{"NoteNumber":80,"Velocity":60,"Duration":56710,"SoundDuration":56710,"Delta":476094712},{"NoteNumber":85,"Velocity":60,"Duration":56710,"SoundDuration":56710,"Delta":476094712},{"NoteNumber":79,"Velocity":63,"Duration":56444,"SoundDuration":56444,"Delta":476151423},{"NoteNumber":77,"Velocity":53,"Duration":56444,"SoundDuration":56444,"Delta":476151423},{"NoteNumber":94,"Velocity":78,"Duration":56232,"SoundDuration":56232,"Delta":476207867},{"NoteNumber":82,"Velocity":66,"Duration":56232,"SoundDuration":56232,"Delta":476207867},{"NoteNumber":85,"Velocity":66,"Duration":56232,"SoundDuration":56232,"Delta":476207867},{"NoteNumber":77,"Velocity":63,"Duration":56022,"SoundDuration":56022,"Delta":476264100},{"NoteNumber":73,"Velocity":53,"Duration":56022,"SoundDuration":56022,"Delta":476264100},{"NoteNumber":92,"Velocity":71,"Duration":55762,"SoundDuration":55762,"Delta":476320123},{"NoteNumber":80,"Velocity":59,"Duration":55762,"SoundDuration":55762,"Delta":476320123},{"NoteNumber":85,"Velocity":59,"Duration":55762,"SoundDuration":55762,"Delta":476320123},{"NoteNumber":79,"Velocity":64,"Duration":55504,"SoundDuration":55504,"Delta":476375885},{"NoteNumber":77,"Velocity":54,"Duration":55504,"SoundDuration":55504,"Delta":476375885},{"NoteNumber":94,"Velocity":77,"Duration":55299,"SoundDuration":55299,"Delta":476431389},{"NoteNumber":82,"Velocity":66,"Duration":55299,"SoundDuration":55299,"Delta":476431389},{"NoteNumber":85,"Velocity":66,"Duration":55299,"SoundDuration":55299,"Delta":476431389},{"NoteNumber":77,"Velocity":65,"Duration":54995,"SoundDuration":54995,"Delta":476486689},{"NoteNumber":73,"Velocity":54,"Duration":54995,"SoundDuration":54995,"Delta":476486689},{"NoteNumber":92,"Velocity":74,"Duration":54794,"SoundDuration":54794,"Delta":476541685},{"NoteNumber":80,"Velocity":61,"Duration":54794,"SoundDuration":54794,"Delta":476541685},{"NoteNumber":85,"Velocity":61,"Duration":54794,"SoundDuration":54794,"Delta":476541685},{"NoteNumber":79,"Velocity":65,"Duration":54545,"SoundDuration":54545,"Delta":476596480},{"NoteNumber":77,"Velocity":55,"Duration":54545,"SoundDuration":54545,"Delta":476596480},{"NoteNumber":94,"Velocity":80,"Duration":54298,"SoundDuration":54298,"Delta":476651025},{"NoteNumber":82,"Velocity":67,"Duration":54298,"SoundDuration":54298,"Delta":476651025},{"NoteNumber":85,"Velocity":67,"Duration":54298,"SoundDuration":54298,"Delta":476651025},{"NoteNumber":77,"Velocity":67,"Duration":54103,"SoundDuration":54103,"Delta":476705324},{"NoteNumber":73,"Velocity":56,"Duration":54103,"SoundDuration":54103,"Delta":476705324},{"NoteNumber":92,"Velocity":73,"Duration":53908,"SoundDuration":53908,"Delta":476759427},{"NoteNumber":80,"Velocity":61,"Duration":53908,"SoundDuration":53908,"Delta":476759427},{"NoteNumber":85,"Velocity":61,"Duration":53908,"SoundDuration":53908,"Delta":476759427},{"NoteNumber":79,"Velocity":67,"Duration":53619,"SoundDuration":53619,"Delta":476813336},{"NoteNumber":77,"Velocity":56,"Duration":53619,"SoundDuration":53619,"Delta":476813336},{"NoteNumber":94,"Velocity":81,"Duration":53380,"SoundDuration":53380,"Delta":476866955},{"NoteNumber":82,"Velocity":68,"Duration":53380,"SoundDuration":53380,"Delta":476866955},{"NoteNumber":85,"Velocity":68,"Duration":53380,"SoundDuration":53380,"Delta":476866955},{"NoteNumber":77,"Velocity":68,"Duration":53523,"SoundDuration":53523,"Delta":476920336},{"NoteNumber":73,"Velocity":57,"Duration":53523,"SoundDuration":53523,"Delta":476920336},{"NoteNumber":92,"Velocity":75,"Duration":53715,"SoundDuration":53715,"Delta":476973860},{"NoteNumber":80,"Velocity":62,"Duration":53715,"SoundDuration":53715,"Delta":476973860},{"NoteNumber":85,"Velocity":62,"Duration":53715,"SoundDuration":53715,"Delta":476973860},{"NoteNumber":79,"Velocity":69,"Duration":53956,"SoundDuration":53956,"Delta":477027576},{"NoteNumber":77,"Velocity":57,"Duration":53956,"SoundDuration":53956,"Delta":477027576},{"NoteNumber":94,"Velocity":80,"Duration":54200,"SoundDuration":54200,"Delta":477081532},{"NoteNumber":82,"Velocity":67,"Duration":54200,"SoundDuration":54200,"Delta":477081532},{"NoteNumber":85,"Velocity":67,"Duration":54200,"SoundDuration":54200,"Delta":477081532},{"NoteNumber":77,"Velocity":69,"Duration":54397,"SoundDuration":54397,"Delta":477135733},{"NoteNumber":73,"Velocity":57,"Duration":54397,"SoundDuration":54397,"Delta":477135733},{"NoteNumber":80,"Velocity":79,"Duration":54545,"SoundDuration":54545,"Delta":477190131},{"NoteNumber":85,"Velocity":79,"Duration":54545,"SoundDuration":54545,"Delta":477190131},{"NoteNumber":92,"Velocity":79,"Duration":54545,"SoundDuration":54545,"Delta":477190131},{"NoteNumber":77,"Velocity":70,"Duration":54794,"SoundDuration":54794,"Delta":477244676},{"NoteNumber":79,"Velocity":70,"Duration":54794,"SoundDuration":54794,"Delta":477244676},{"NoteNumber":94,"Velocity":84,"Duration":54995,"SoundDuration":54995,"Delta":477299471},{"NoteNumber":82,"Velocity":72,"Duration":54995,"SoundDuration":54995,"Delta":477299471},{"NoteNumber":85,"Velocity":72,"Duration":54995,"SoundDuration":54995,"Delta":477299471},{"NoteNumber":77,"Velocity":71,"Duration":55197,"SoundDuration":55197,"Delta":477354467},{"NoteNumber":73,"Velocity":58,"Duration":55197,"SoundDuration":55197,"Delta":477354467},{"NoteNumber":92,"Velocity":79,"Duration":55452,"SoundDuration":55452,"Delta":477409665},{"NoteNumber":80,"Velocity":67,"Duration":55452,"SoundDuration":55452,"Delta":477409665},{"NoteNumber":85,"Velocity":67,"Duration":55452,"SoundDuration":55452,"Delta":477409665},{"NoteNumber":79,"Velocity":72,"Duration":55710,"SoundDuration":55710,"Delta":477465118},{"NoteNumber":77,"Velocity":60,"Duration":55710,"SoundDuration":55710,"Delta":477465118},{"NoteNumber":94,"Velocity":83,"Duration":56024,"SoundDuration":56024,"Delta":477520828},{"NoteNumber":82,"Velocity":71,"Duration":56024,"SoundDuration":56024,"Delta":477520828},{"NoteNumber":85,"Velocity":71,"Duration":56024,"SoundDuration":56024,"Delta":477520828},{"NoteNumber":77,"Velocity":68,"Duration":57870,"SoundDuration":57870,"Delta":477576853},{"NoteNumber":73,"Velocity":57,"Duration":57870,"SoundDuration":57870,"Delta":477576853},{"NoteNumber":92,"Velocity":77,"Duration":59942,"SoundDuration":59942,"Delta":477634723},{"NoteNumber":80,"Velocity":66,"Duration":59942,"SoundDuration":59942,"Delta":477634723},{"NoteNumber":85,"Velocity":66,"Duration":59942,"SoundDuration":59942,"Delta":477634723},{"NoteNumber":101,"Velocity":64,"Duration":77922,"SoundDuration":77922,"Delta":477866094},{"NoteNumber":97,"Velocity":64,"Duration":77922,"SoundDuration":77922,"Delta":477866094},{"NoteNumber":46,"Velocity":63,"Duration":77922,"SoundDuration":77922,"Delta":477866094},{"NoteNumber":99,"Velocity":63,"Duration":77922,"SoundDuration":77922,"Delta":477944016},{"NoteNumber":51,"Velocity":58,"Duration":77922,"SoundDuration":77922,"Delta":477944016},{"NoteNumber":97,"Velocity":62,"Duration":77922,"SoundDuration":77922,"Delta":478021938},{"NoteNumber":55,"Velocity":58,"Duration":77922,"SoundDuration":77922,"Delta":478021938},{"NoteNumber":91,"Velocity":60,"Duration":77922,"SoundDuration":77922,"Delta":478099860},{"NoteNumber":61,"Velocity":58,"Duration":77922,"SoundDuration":77922,"Delta":478099860},{"NoteNumber":85,"Velocity":59,"Duration":77922,"SoundDuration":77922,"Delta":478177783},{"NoteNumber":89,"Velocity":59,"Duration":77922,"SoundDuration":77922,"Delta":478177783},{"NoteNumber":67,"Velocity":62,"Duration":155844,"SoundDuration":155844,"Delta":478177783},{"NoteNumber":87,"Velocity":58,"Duration":77922,"SoundDuration":77922,"Delta":478255705},{"NoteNumber":85,"Velocity":56,"Duration":77922,"SoundDuration":77922,"Delta":478333627},{"NoteNumber":79,"Velocity":55,"Duration":168539,"SoundDuration":168539,"Delta":478411549},{"NoteNumber":89,"Velocity":64,"Duration":77922,"SoundDuration":77922,"Delta":478580088},{"NoteNumber":85,"Velocity":64,"Duration":77922,"SoundDuration":77922,"Delta":478580088},{"NoteNumber":46,"Velocity":63,"Duration":103896,"SoundDuration":103896,"Delta":478580088},{"NoteNumber":87,"Velocity":63,"Duration":77922,"SoundDuration":77922,"Delta":478658010},{"NoteNumber":51,"Velocity":55,"Duration":103896,"SoundDuration":103896,"Delta":478683984},{"NoteNumber":85,"Velocity":62,"Duration":77922,"SoundDuration":77922,"Delta":478735933},{"NoteNumber":55,"Velocity":55,"Duration":103896,"SoundDuration":103896,"Delta":478787881},{"NoteNumber":79,"Velocity":60,"Duration":77922,"SoundDuration":77922,"Delta":478813855},{"NoteNumber":73,"Velocity":59,"Duration":77922,"SoundDuration":77922,"Delta":478891777},{"NoteNumber":77,"Velocity":59,"Duration":77922,"SoundDuration":77922,"Delta":478891777},{"NoteNumber":61,"Velocity":62,"Duration":155844,"SoundDuration":155844,"Delta":478891777},{"NoteNumber":75,"Velocity":58,"Duration":77922,"SoundDuration":77922,"Delta":478969699},{"NoteNumber":73,"Velocity":56,"Duration":77922,"SoundDuration":77922,"Delta":479047621},{"NoteNumber":67,"Velocity":55,"Duration":163043,"SoundDuration":163043,"Delta":479125543},{"NoteNumber":94,"Velocity":64,"Duration":78533,"SoundDuration":78533,"Delta":479288587},{"NoteNumber":90,"Velocity":64,"Duration":78533,"SoundDuration":78533,"Delta":479288587},{"NoteNumber":44,"Velocity":63,"Duration":104712,"SoundDuration":104712,"Delta":479288587},{"NoteNumber":92,"Velocity":63,"Duration":78533,"SoundDuration":78533,"Delta":479367121},{"NoteNumber":51,"Velocity":59,"Duration":78533,"SoundDuration":78533,"Delta":479367121},{"NoteNumber":90,"Velocity":62,"Duration":78533,"SoundDuration":78533,"Delta":479445655},{"NoteNumber":54,"Velocity":59,"Duration":78533,"SoundDuration":78533,"Delta":479445655},{"NoteNumber":84,"Velocity":60,"Duration":78534,"SoundDuration":78534,"Delta":479524189},{"NoteNumber":60,"Velocity":59,"Duration":78534,"SoundDuration":78534,"Delta":479524189},{"NoteNumber":78,"Velocity":59,"Duration":78533,"SoundDuration":78533,"Delta":479602723},{"NoteNumber":82,"Velocity":59,"Duration":78533,"SoundDuration":78533,"Delta":479602723},{"NoteNumber":66,"Velocity":62,"Duration":157067,"SoundDuration":157067,"Delta":479602723},{"NoteNumber":80,"Velocity":58,"Duration":78533,"SoundDuration":78533,"Delta":479681257},{"NoteNumber":78,"Velocity":56,"Duration":78533,"SoundDuration":78533,"Delta":479759791},{"NoteNumber":72,"Velocity":55,"Duration":168539,"SoundDuration":168539,"Delta":479838325},{"NoteNumber":82,"Velocity":64,"Duration":77922,"SoundDuration":77922,"Delta":480006864},{"NoteNumber":78,"Velocity":64,"Duration":77922,"SoundDuration":77922,"Delta":480006864},{"NoteNumber":44,"Velocity":62,"Duration":103896,"SoundDuration":103896,"Delta":480006864},{"NoteNumber":80,"Velocity":63,"Duration":77922,"SoundDuration":77922,"Delta":480084786},{"NoteNumber":51,"Velocity":57,"Duration":103896,"SoundDuration":103896,"Delta":480110760},{"NoteNumber":78,"Velocity":62,"Duration":77922,"SoundDuration":77922,"Delta":480162708},{"NoteNumber":54,"Velocity":57,"Duration":103896,"SoundDuration":103896,"Delta":480214656},{"NoteNumber":72,"Velocity":60,"Duration":77922,"SoundDuration":77922,"Delta":480240630},{"NoteNumber":66,"Velocity":59,"Duration":77922,"SoundDuration":77922,"Delta":480318553},{"NoteNumber":70,"Velocity":59,"Duration":77922,"SoundDuration":77922,"Delta":480318553},{"NoteNumber":60,"Velocity":62,"Duration":155844,"SoundDuration":155844,"Delta":480318553},{"NoteNumber":68,"Velocity":58,"Duration":77922,"SoundDuration":77922,"Delta":480396475},{"NoteNumber":66,"Velocity":56,"Duration":77922,"SoundDuration":77922,"Delta":480474397},{"NoteNumber":60,"Velocity":55,"Duration":157855,"SoundDuration":157855,"Delta":480552319},{"NoteNumber":61,"Velocity":60,"Duration":85227,"SoundDuration":85227,"Delta":480710175},{"NoteNumber":49,"Velocity":51,"Duration":85227,"SoundDuration":85227,"Delta":480710175},{"NoteNumber":73,"Velocity":58,"Duration":84939,"SoundDuration":84939,"Delta":480880629},{"NoteNumber":65,"Velocity":49,"Duration":84939,"SoundDuration":84939,"Delta":480880629},{"NoteNumber":68,"Velocity":49,"Duration":84939,"SoundDuration":84939,"Delta":480880629},{"NoteNumber":60,"Velocity":60,"Duration":84939,"SoundDuration":84939,"Delta":480880629},{"NoteNumber":48,"Velocity":51,"Duration":84939,"SoundDuration":84939,"Delta":480880629},{"NoteNumber":59,"Velocity":61,"Duration":84506,"SoundDuration":84506,"Delta":481050075},{"NoteNumber":47,"Velocity":51,"Duration":84506,"SoundDuration":84506,"Delta":481050075},{"NoteNumber":85,"Velocity":60,"Duration":83798,"SoundDuration":83798,"Delta":481218570},{"NoteNumber":80,"Velocity":51,"Duration":83798,"SoundDuration":83798,"Delta":481218570},{"NoteNumber":77,"Velocity":51,"Duration":83798,"SoundDuration":83798,"Delta":481218570},{"NoteNumber":73,"Velocity":51,"Duration":83798,"SoundDuration":83798,"Delta":481218570},{"NoteNumber":58,"Velocity":62,"Duration":83798,"SoundDuration":83798,"Delta":481218570},{"NoteNumber":46,"Velocity":52,"Duration":83798,"SoundDuration":83798,"Delta":481218570},{"NoteNumber":57,"Velocity":63,"Duration":83102,"SoundDuration":83102,"Delta":481386121},{"NoteNumber":45,"Velocity":53,"Duration":83102,"SoundDuration":83102,"Delta":481386121},{"NoteNumber":73,"Velocity":62,"Duration":82828,"SoundDuration":82828,"Delta":481552326},{"NoteNumber":76,"Velocity":62,"Duration":82828,"SoundDuration":82828,"Delta":481552326},{"NoteNumber":64,"Velocity":52,"Duration":82828,"SoundDuration":82828,"Delta":481552326},{"NoteNumber":69,"Velocity":52,"Duration":82828,"SoundDuration":82828,"Delta":481552326},{"NoteNumber":56,"Velocity":64,"Duration":82828,"SoundDuration":82828,"Delta":481552326},{"NoteNumber":44,"Velocity":54,"Duration":82828,"SoundDuration":82828,"Delta":481552326},{"NoteNumber":55,"Velocity":64,"Duration":82417,"SoundDuration":82417,"Delta":481717573},{"NoteNumber":43,"Velocity":54,"Duration":82417,"SoundDuration":82417,"Delta":481717573},{"NoteNumber":88,"Velocity":64,"Duration":81743,"SoundDuration":81743,"Delta":481881914},{"NoteNumber":85,"Velocity":54,"Duration":81743,"SoundDuration":81743,"Delta":481881914},{"NoteNumber":81,"Velocity":54,"Duration":81743,"SoundDuration":81743,"Delta":481881914},{"NoteNumber":76,"Velocity":54,"Duration":81743,"SoundDuration":81743,"Delta":481881914},{"NoteNumber":54,"Velocity":65,"Duration":81743,"SoundDuration":81743,"Delta":481881914},{"NoteNumber":42,"Velocity":55,"Duration":81743,"SoundDuration":81743,"Delta":481881914},{"NoteNumber":53,"Velocity":70,"Duration":162162,"SoundDuration":162162,"Delta":482045357},{"NoteNumber":41,"Velocity":64,"Duration":162162,"SoundDuration":162162,"Delta":482045357},{"NoteNumber":77,"Velocity":66,"Duration":81257,"SoundDuration":81257,"Delta":482207520},{"NoteNumber":65,"Velocity":56,"Duration":81257,"SoundDuration":81257,"Delta":482207520},{"NoteNumber":69,"Velocity":56,"Duration":81257,"SoundDuration":81257,"Delta":482207520},{"NoteNumber":72,"Velocity":56,"Duration":81257,"SoundDuration":81257,"Delta":482207520},{"NoteNumber":52,"Velocity":67,"Duration":163001,"SoundDuration":163001,"Delta":482207520},{"NoteNumber":40,"Velocity":56,"Duration":163001,"SoundDuration":163001,"Delta":482207520},{"NoteNumber":51,"Velocity":69,"Duration":328637,"SoundDuration":328637,"Delta":482370521},{"NoteNumber":39,"Velocity":58,"Duration":328637,"SoundDuration":328637,"Delta":482370521},{"NoteNumber":89,"Velocity":68,"Duration":82417,"SoundDuration":82417,"Delta":482534323},{"NoteNumber":84,"Velocity":57,"Duration":82417,"SoundDuration":82417,"Delta":482534323},{"NoteNumber":81,"Velocity":57,"Duration":82417,"SoundDuration":82417,"Delta":482534323},{"NoteNumber":77,"Velocity":57,"Duration":82417,"SoundDuration":82417,"Delta":482534323},{"NoteNumber":50,"Velocity":76,"Duration":166068,"SoundDuration":166068,"Delta":482699159},{"NoteNumber":38,"Velocity":67,"Duration":166068,"SoundDuration":166068,"Delta":482699159},{"NoteNumber":78,"Velocity":70,"Duration":83102,"SoundDuration":83102,"Delta":482865227},{"NoteNumber":74,"Velocity":59,"Duration":83102,"SoundDuration":83102,"Delta":482865227},{"NoteNumber":66,"Velocity":59,"Duration":83102,"SoundDuration":83102,"Delta":482865227},{"NoteNumber":49,"Velocity":73,"Duration":166901,"SoundDuration":166901,"Delta":482865227},{"NoteNumber":37,"Velocity":62,"Duration":166901,"SoundDuration":166901,"Delta":482865227},{"NoteNumber":48,"Velocity":74,"Duration":350564,"SoundDuration":350564,"Delta":483032128},{"NoteNumber":36,"Velocity":62,"Duration":350564,"SoundDuration":350564,"Delta":483032128},{"NoteNumber":90,"Velocity":72,"Duration":92307,"SoundDuration":92307,"Delta":483199962},{"NoteNumber":86,"Velocity":72,"Duration":92307,"SoundDuration":92307,"Delta":483199962},{"NoteNumber":78,"Velocity":61,"Duration":92307,"SoundDuration":92307,"Delta":483199962},{"NoteNumber":61,"Velocity":72,"Duration":82417,"SoundDuration":82417,"Delta":483382693},{"NoteNumber":49,"Velocity":61,"Duration":82417,"SoundDuration":82417,"Delta":483382693},{"NoteNumber":68,"Velocity":58,"Duration":82417,"SoundDuration":82417,"Delta":483547528},{"NoteNumber":77,"Velocity":69,"Duration":82417,"SoundDuration":82417,"Delta":483547528},{"NoteNumber":65,"Velocity":58,"Duration":82417,"SoundDuration":82417,"Delta":483547528},{"NoteNumber":73,"Velocity":58,"Duration":82417,"SoundDuration":82417,"Delta":483547528},{"NoteNumber":60,"Velocity":72,"Duration":82417,"SoundDuration":82417,"Delta":483547528},{"NoteNumber":48,"Velocity":61,"Duration":82417,"SoundDuration":82417,"Delta":483547528},{"NoteNumber":59,"Velocity":73,"Duration":81743,"SoundDuration":81743,"Delta":483711802},{"NoteNumber":47,"Velocity":61,"Duration":81743,"SoundDuration":81743,"Delta":483711802},{"NoteNumber":89,"Velocity":72,"Duration":81412,"SoundDuration":81412,"Delta":483875290},{"NoteNumber":85,"Velocity":61,"Duration":81412,"SoundDuration":81412,"Delta":483875290},{"NoteNumber":80,"Velocity":61,"Duration":81412,"SoundDuration":81412,"Delta":483875290},{"NoteNumber":77,"Velocity":61,"Duration":81412,"SoundDuration":81412,"Delta":483875290},{"NoteNumber":58,"Velocity":74,"Duration":81412,"SoundDuration":81412,"Delta":483875290},{"NoteNumber":46,"Velocity":62,"Duration":81412,"SoundDuration":81412,"Delta":483875290},{"NoteNumber":57,"Velocity":75,"Duration":81081,"SoundDuration":81081,"Delta":484037783},{"NoteNumber":45,"Velocity":63,"Duration":81081,"SoundDuration":81081,"Delta":484037783},{"NoteNumber":73,"Velocity":74,"Duration":80429,"SoundDuration":80429,"Delta":484199620},{"NoteNumber":81,"Velocity":74,"Duration":80429,"SoundDuration":80429,"Delta":484199620},{"NoteNumber":76,"Velocity":62,"Duration":80429,"SoundDuration":80429,"Delta":484199620},{"NoteNumber":69,"Velocity":62,"Duration":80429,"SoundDuration":80429,"Delta":484199620},{"NoteNumber":56,"Velocity":76,"Duration":80429,"SoundDuration":80429,"Delta":484199620},{"NoteNumber":44,"Velocity":64,"Duration":80429,"SoundDuration":80429,"Delta":484199620},{"NoteNumber":55,"Velocity":76,"Duration":80322,"SoundDuration":80322,"Delta":484360478},{"NoteNumber":43,"Velocity":64,"Duration":80322,"SoundDuration":80322,"Delta":484360478},{"NoteNumber":90,"Velocity":76,"Duration":79787,"SoundDuration":79787,"Delta":484520587},{"NoteNumber":85,"Velocity":64,"Duration":79787,"SoundDuration":79787,"Delta":484520587},{"NoteNumber":81,"Velocity":64,"Duration":79787,"SoundDuration":79787,"Delta":484520587},{"NoteNumber":88,"Velocity":64,"Duration":79787,"SoundDuration":79787,"Delta":484520587},{"NoteNumber":54,"Velocity":78,"Duration":79787,"SoundDuration":79787,"Delta":484520587},{"NoteNumber":42,"Velocity":66,"Duration":79787,"SoundDuration":79787,"Delta":484520587},{"NoteNumber":53,"Velocity":83,"Duration":79155,"SoundDuration":79155,"Delta":484680056},{"NoteNumber":41,"Velocity":77,"Duration":79155,"SoundDuration":79155,"Delta":484680056},{"NoteNumber":81,"Velocity":79,"Duration":79681,"SoundDuration":79681,"Delta":484838367},{"NoteNumber":77,"Velocity":67,"Duration":79681,"SoundDuration":79681,"Delta":484838367},{"NoteNumber":69,"Velocity":67,"Duration":79681,"SoundDuration":79681,"Delta":484838367},{"NoteNumber":72,"Velocity":67,"Duration":79681,"SoundDuration":79681,"Delta":484838367},{"NoteNumber":52,"Velocity":80,"Duration":79681,"SoundDuration":79681,"Delta":484838367},{"NoteNumber":40,"Velocity":67,"Duration":79681,"SoundDuration":79681,"Delta":484838367},{"NoteNumber":51,"Velocity":82,"Duration":322587,"SoundDuration":322587,"Delta":484997837},{"NoteNumber":39,"Velocity":69,"Duration":322587,"SoundDuration":322587,"Delta":484997837},{"NoteNumber":93,"Velocity":81,"Duration":80755,"SoundDuration":80755,"Delta":485158588},{"NoteNumber":84,"Velocity":68,"Duration":80755,"SoundDuration":80755,"Delta":485158588},{"NoteNumber":81,"Velocity":68,"Duration":80755,"SoundDuration":80755,"Delta":485158588},{"NoteNumber":89,"Velocity":68,"Duration":80755,"SoundDuration":80755,"Delta":485158588},{"NoteNumber":50,"Velocity":90,"Duration":81412,"SoundDuration":81412,"Delta":485320424},{"NoteNumber":38,"Velocity":81,"Duration":81412,"SoundDuration":81412,"Delta":485320424},{"NoteNumber":69,"Velocity":70,"Duration":81856,"SoundDuration":81856,"Delta":485483580},{"NoteNumber":81,"Velocity":84,"Duration":81856,"SoundDuration":81856,"Delta":485483580},{"NoteNumber":74,"Velocity":70,"Duration":81856,"SoundDuration":81856,"Delta":485483580},{"NoteNumber":78,"Velocity":70,"Duration":81856,"SoundDuration":81856,"Delta":485483580},{"NoteNumber":49,"Velocity":87,"Duration":81856,"SoundDuration":81856,"Delta":485483580},{"NoteNumber":37,"Velocity":74,"Duration":81856,"SoundDuration":81856,"Delta":485483580},{"NoteNumber":48,"Velocity":88,"Duration":344414,"SoundDuration":344414,"Delta":485647854},{"NoteNumber":36,"Velocity":74,"Duration":344414,"SoundDuration":344414,"Delta":485647854},{"NoteNumber":81,"Velocity":86,"Duration":90634,"SoundDuration":90634,"Delta":485813169},{"NoteNumber":93,"Velocity":86,"Duration":90634,"SoundDuration":90634,"Delta":485813169},{"NoteNumber":86,"Velocity":86,"Duration":90634,"SoundDuration":90634,"Delta":485813169},{"NoteNumber":90,"Velocity":73,"Duration":90634,"SoundDuration":90634,"Delta":485813169},{"NoteNumber":61,"Velocity":72,"Duration":79787,"SoundDuration":79787,"Delta":485992268},{"NoteNumber":49,"Velocity":61,"Duration":79787,"SoundDuration":79787,"Delta":485992268},{"NoteNumber":77,"Velocity":58,"Duration":79787,"SoundDuration":79787,"Delta":486151843},{"NoteNumber":85,"Velocity":69,"Duration":79787,"SoundDuration":79787,"Delta":486151843},{"NoteNumber":73,"Velocity":58,"Duration":79787,"SoundDuration":79787,"Delta":486151843},{"NoteNumber":80,"Velocity":58,"Duration":79787,"SoundDuration":79787,"Delta":486151843},{"NoteNumber":60,"Velocity":72,"Duration":79787,"SoundDuration":79787,"Delta":486151843},{"NoteNumber":48,"Velocity":61,"Duration":79787,"SoundDuration":79787,"Delta":486151843},{"NoteNumber":59,"Velocity":73,"Duration":79155,"SoundDuration":79155,"Delta":486311080},{"NoteNumber":47,"Velocity":61,"Duration":79155,"SoundDuration":79155,"Delta":486311080},{"NoteNumber":97,"Velocity":72,"Duration":79155,"SoundDuration":79155,"Delta":486469392},{"NoteNumber":92,"Velocity":61,"Duration":79155,"SoundDuration":79155,"Delta":486469392},{"NoteNumber":89,"Velocity":61,"Duration":79155,"SoundDuration":79155,"Delta":486469392},{"NoteNumber":85,"Velocity":61,"Duration":79155,"SoundDuration":79155,"Delta":486469392},{"NoteNumber":58,"Velocity":74,"Duration":79155,"SoundDuration":79155,"Delta":486469392},{"NoteNumber":46,"Velocity":62,"Duration":79155,"SoundDuration":79155,"Delta":486469392},{"NoteNumber":57,"Velocity":75,"Duration":78533,"SoundDuration":78533,"Delta":486627164},{"NoteNumber":45,"Velocity":63,"Duration":78533,"SoundDuration":78533,"Delta":486627164},{"NoteNumber":81,"Velocity":74,"Duration":78411,"SoundDuration":78411,"Delta":486784232},{"NoteNumber":88,"Velocity":74,"Duration":78411,"SoundDuration":78411,"Delta":486784232},{"NoteNumber":85,"Velocity":62,"Duration":78411,"SoundDuration":78411,"Delta":486784232},{"NoteNumber":76,"Velocity":62,"Duration":78411,"SoundDuration":78411,"Delta":486784232},{"NoteNumber":56,"Velocity":76,"Duration":78411,"SoundDuration":78411,"Delta":486784232},{"NoteNumber":44,"Velocity":64,"Duration":78411,"SoundDuration":78411,"Delta":486784232},{"NoteNumber":55,"Velocity":76,"Duration":77922,"SoundDuration":77922,"Delta":486940566},{"NoteNumber":43,"Velocity":64,"Duration":77922,"SoundDuration":77922,"Delta":486940566},{"NoteNumber":100,"Velocity":76,"Duration":77600,"SoundDuration":77600,"Delta":487096410},{"NoteNumber":93,"Velocity":64,"Duration":77600,"SoundDuration":77600,"Delta":487096410},{"NoteNumber":88,"Velocity":64,"Duration":77600,"SoundDuration":77600,"Delta":487096410},{"NoteNumber":97,"Velocity":64,"Duration":77600,"SoundDuration":77600,"Delta":487096410},{"NoteNumber":54,"Velocity":78,"Duration":77600,"SoundDuration":77600,"Delta":487096410},{"NoteNumber":42,"Velocity":66,"Duration":77600,"SoundDuration":77600,"Delta":487096410},{"NoteNumber":53,"Velocity":83,"Duration":77319,"SoundDuration":77319,"Delta":487251331},{"NoteNumber":41,"Velocity":78,"Duration":77319,"SoundDuration":77319,"Delta":487251331},{"NoteNumber":89,"Velocity":79,"Duration":76805,"SoundDuration":76805,"Delta":487405970},{"NoteNumber":84,"Velocity":67,"Duration":76805,"SoundDuration":76805,"Delta":487405970},{"NoteNumber":77,"Velocity":67,"Duration":76805,"SoundDuration":76805,"Delta":487405970},{"NoteNumber":81,"Velocity":67,"Duration":76805,"SoundDuration":76805,"Delta":487405970},{"NoteNumber":52,"Velocity":80,"Duration":76805,"SoundDuration":76805,"Delta":487405970},{"NoteNumber":40,"Velocity":67,"Duration":76805,"SoundDuration":76805,"Delta":487405970},{"NoteNumber":51,"Velocity":82,"Duration":305620,"SoundDuration":305620,"Delta":487559502},{"NoteNumber":39,"Velocity":69,"Duration":305620,"SoundDuration":305620,"Delta":487559502},{"NoteNumber":101,"Velocity":81,"Duration":76142,"SoundDuration":76142,"Delta":487712838},{"NoteNumber":93,"Velocity":68,"Duration":76142,"SoundDuration":76142,"Delta":487712838},{"NoteNumber":89,"Velocity":68,"Duration":76142,"SoundDuration":76142,"Delta":487712838},{"NoteNumber":96,"Velocity":68,"Duration":76142,"SoundDuration":76142,"Delta":487712838},{"NoteNumber":50,"Velocity":88,"Duration":76142,"SoundDuration":76142,"Delta":487865122},{"NoteNumber":38,"Velocity":82,"Duration":76142,"SoundDuration":76142,"Delta":487865122},{"NoteNumber":78,"Velocity":70,"Duration":75566,"SoundDuration":75566,"Delta":488017099},{"NoteNumber":90,"Velocity":84,"Duration":75566,"SoundDuration":75566,"Delta":488017099},{"NoteNumber":86,"Velocity":70,"Duration":75566,"SoundDuration":75566,"Delta":488017099},{"NoteNumber":49,"Velocity":87,"Duration":75566,"SoundDuration":75566,"Delta":488017099},{"NoteNumber":37,"Velocity":74,"Duration":75566,"SoundDuration":75566,"Delta":488017099},{"NoteNumber":48,"Velocity":88,"Duration":326721,"SoundDuration":326721,"Delta":488168233},{"NoteNumber":36,"Velocity":74,"Duration":326721,"SoundDuration":326721,"Delta":488168233},{"NoteNumber":90,"Velocity":73,"Duration":91463,"SoundDuration":91463,"Delta":488320808},{"NoteNumber":102,"Velocity":73,"Duration":91463,"SoundDuration":91463,"Delta":488320808},{"NoteNumber":98,"Velocity":73,"Duration":91463,"SoundDuration":91463,"Delta":488320808},{"NoteNumber":47,"Velocity":87,"Duration":75798,"SoundDuration":75798,"Delta":488494954},{"NoteNumber":35,"Velocity":73,"Duration":75798,"SoundDuration":75798,"Delta":488494954},{"NoteNumber":90,"Velocity":89,"Duration":78168,"SoundDuration":78168,"Delta":488647717},{"NoteNumber":78,"Velocity":75,"Duration":78168,"SoundDuration":78168,"Delta":488647717},{"NoteNumber":83,"Velocity":75,"Duration":78168,"SoundDuration":78168,"Delta":488647717},{"NoteNumber":87,"Velocity":75,"Duration":78168,"SoundDuration":78168,"Delta":488647717},{"NoteNumber":46,"Velocity":88,"Duration":78168,"SoundDuration":78168,"Delta":488647717},{"NoteNumber":34,"Velocity":74,"Duration":78168,"SoundDuration":78168,"Delta":488647717},{"NoteNumber":45,"Velocity":90,"Duration":80691,"SoundDuration":80691,"Delta":488805295},{"NoteNumber":33,"Velocity":76,"Duration":80691,"SoundDuration":80691,"Delta":488805295},{"NoteNumber":102,"Velocity":92,"Duration":83524,"SoundDuration":83524,"Delta":488968001},{"NoteNumber":99,"Velocity":78,"Duration":83524,"SoundDuration":83524,"Delta":488968001},{"NoteNumber":95,"Velocity":78,"Duration":83524,"SoundDuration":83524,"Delta":488968001},{"NoteNumber":90,"Velocity":78,"Duration":83524,"SoundDuration":83524,"Delta":488968001},{"NoteNumber":44,"Velocity":91,"Duration":83524,"SoundDuration":83524,"Delta":488968001},{"NoteNumber":32,"Velocity":77,"Duration":83524,"SoundDuration":83524,"Delta":488968001},{"NoteNumber":43,"Velocity":93,"Duration":86509,"SoundDuration":86509,"Delta":489136563},{"NoteNumber":31,"Velocity":79,"Duration":86509,"SoundDuration":86509,"Delta":489136563},{"NoteNumber":91,"Velocity":94,"Duration":89610,"SoundDuration":89610,"Delta":489311104},{"NoteNumber":86,"Velocity":94,"Duration":89610,"SoundDuration":89610,"Delta":489311104},{"NoteNumber":83,"Velocity":79,"Duration":89610,"SoundDuration":89610,"Delta":489311104},{"NoteNumber":79,"Velocity":79,"Duration":89610,"SoundDuration":89610,"Delta":489311104},{"NoteNumber":42,"Velocity":94,"Duration":89610,"SoundDuration":89610,"Delta":489311104},{"NoteNumber":30,"Velocity":79,"Duration":89610,"SoundDuration":89610,"Delta":489311104},{"NoteNumber":41,"Velocity":96,"Duration":593650,"SoundDuration":593650,"Delta":489491960},{"NoteNumber":29,"Velocity":81,"Duration":593650,"SoundDuration":593650,"Delta":489491960},{"NoteNumber":103,"Velocity":97,"Duration":202702,"SoundDuration":202702,"Delta":489680205},{"NoteNumber":95,"Velocity":82,"Duration":202702,"SoundDuration":202702,"Delta":489680205},{"NoteNumber":91,"Velocity":82,"Duration":202702,"SoundDuration":202702,"Delta":489680205},{"NoteNumber":98,"Velocity":82,"Duration":202702,"SoundDuration":202702,"Delta":489680205},{"NoteNumber":92,"Velocity":100,"Duration":199335,"SoundDuration":199335,"Delta":490085611},{"NoteNumber":80,"Velocity":85,"Duration":199335,"SoundDuration":199335,"Delta":490085611},{"NoteNumber":88,"Velocity":85,"Duration":199335,"SoundDuration":199335,"Delta":490085611},{"NoteNumber":40,"Velocity":102,"Duration":199335,"SoundDuration":199335,"Delta":490085611},{"NoteNumber":28,"Velocity":86,"Duration":199335,"SoundDuration":199335,"Delta":490085611},{"NoteNumber":92,"Velocity":100,"Duration":199335,"SoundDuration":199335,"Delta":490484282},{"NoteNumber":80,"Velocity":85,"Duration":199335,"SoundDuration":199335,"Delta":490484282},{"NoteNumber":88,"Velocity":85,"Duration":199335,"SoundDuration":199335,"Delta":490484282},{"NoteNumber":59,"Velocity":96,"Duration":199335,"SoundDuration":199335,"Delta":490484282},{"NoteNumber":47,"Velocity":81,"Duration":199335,"SoundDuration":199335,"Delta":490484282},{"NoteNumber":92,"Velocity":107,"Duration":398670,"SoundDuration":398670,"Delta":490882953},{"NoteNumber":88,"Velocity":90,"Duration":398670,"SoundDuration":398670,"Delta":490882953},{"NoteNumber":80,"Velocity":90,"Duration":398670,"SoundDuration":398670,"Delta":490882953},{"NoteNumber":52,"Velocity":97,"Duration":199335,"SoundDuration":199335,"Delta":490882953},{"NoteNumber":40,"Velocity":82,"Duration":199335,"SoundDuration":199335,"Delta":490882953},{"NoteNumber":90,"Velocity":100,"Duration":93167,"SoundDuration":93167,"Delta":491281624},{"NoteNumber":87,"Velocity":85,"Duration":93167,"SoundDuration":93167,"Delta":491281624},{"NoteNumber":78,"Velocity":85,"Duration":93167,"SoundDuration":93167,"Delta":491281624},{"NoteNumber":71,"Velocity":94,"Duration":186335,"SoundDuration":186335,"Delta":491281624},{"NoteNumber":59,"Velocity":79,"Duration":186335,"SoundDuration":186335,"Delta":491281624},{"NoteNumber":88,"Velocity":100,"Duration":93167,"SoundDuration":93167,"Delta":491467959},{"NoteNumber":76,"Velocity":85,"Duration":93167,"SoundDuration":93167,"Delta":491467959},{"NoteNumber":85,"Velocity":85,"Duration":93167,"SoundDuration":93167,"Delta":491467959},{"NoteNumber":87,"Velocity":85,"Duration":100671,"SoundDuration":100671,"Delta":491654295},{"NoteNumber":75,"Velocity":85,"Duration":100671,"SoundDuration":100671,"Delta":491654295},{"NoteNumber":83,"Velocity":85,"Duration":100671,"SoundDuration":100671,"Delta":491654295},{"NoteNumber":40,"Velocity":102,"Duration":201342,"SoundDuration":201342,"Delta":491654295},{"NoteNumber":28,"Velocity":86,"Duration":201342,"SoundDuration":201342,"Delta":491654295},{"NoteNumber":88,"Velocity":102,"Duration":100671,"SoundDuration":100671,"Delta":491855637},{"NoteNumber":76,"Velocity":86,"Duration":100671,"SoundDuration":100671,"Delta":491855637},{"NoteNumber":85,"Velocity":86,"Duration":100671,"SoundDuration":100671,"Delta":491855637},{"NoteNumber":90,"Velocity":105,"Duration":100671,"SoundDuration":100671,"Delta":492056979},{"NoteNumber":78,"Velocity":89,"Duration":100671,"SoundDuration":100671,"Delta":492056979},{"NoteNumber":87,"Velocity":89,"Duration":100671,"SoundDuration":100671,"Delta":492056979},{"NoteNumber":59,"Velocity":96,"Duration":201342,"SoundDuration":201342,"Delta":492056979},{"NoteNumber":47,"Velocity":81,"Duration":201342,"SoundDuration":201342,"Delta":492056979},{"NoteNumber":92,"Velocity":107,"Duration":402684,"SoundDuration":402684,"Delta":492459664},{"NoteNumber":88,"Velocity":90,"Duration":402684,"SoundDuration":402684,"Delta":492459664},{"NoteNumber":80,"Velocity":90,"Duration":402684,"SoundDuration":402684,"Delta":492459664},{"NoteNumber":52,"Velocity":97,"Duration":201342,"SoundDuration":201342,"Delta":492459664},{"NoteNumber":40,"Velocity":82,"Duration":201342,"SoundDuration":201342,"Delta":492459664},{"NoteNumber":90,"Velocity":100,"Duration":94043,"SoundDuration":94043,"Delta":492862348},{"NoteNumber":78,"Velocity":85,"Duration":94043,"SoundDuration":94043,"Delta":492862348},{"NoteNumber":87,"Velocity":85,"Duration":94043,"SoundDuration":94043,"Delta":492862348},{"NoteNumber":71,"Velocity":94,"Duration":188087,"SoundDuration":188087,"Delta":492862348},{"NoteNumber":59,"Velocity":79,"Duration":188087,"SoundDuration":188087,"Delta":492862348},{"NoteNumber":88,"Velocity":100,"Duration":94043,"SoundDuration":94043,"Delta":493050436},{"NoteNumber":76,"Velocity":85,"Duration":94043,"SoundDuration":94043,"Delta":493050436},{"NoteNumber":85,"Velocity":85,"Duration":94043,"SoundDuration":94043,"Delta":493050436},{"NoteNumber":87,"Velocity":104,"Duration":99667,"SoundDuration":99667,"Delta":493238524},{"NoteNumber":75,"Velocity":88,"Duration":99667,"SoundDuration":99667,"Delta":493238524},{"NoteNumber":83,"Velocity":88,"Duration":99667,"SoundDuration":99667,"Delta":493238524},{"NoteNumber":40,"Velocity":102,"Duration":199335,"SoundDuration":199335,"Delta":493238524},{"NoteNumber":28,"Velocity":86,"Duration":199335,"SoundDuration":199335,"Delta":493238524},{"NoteNumber":88,"Velocity":98,"Duration":99667,"SoundDuration":99667,"Delta":493437859},{"NoteNumber":76,"Velocity":83,"Duration":99667,"SoundDuration":99667,"Delta":493437859},{"NoteNumber":85,"Velocity":83,"Duration":99667,"SoundDuration":99667,"Delta":493437859},{"NoteNumber":90,"Velocity":100,"Duration":99667,"SoundDuration":99667,"Delta":493637195},{"NoteNumber":78,"Velocity":85,"Duration":99667,"SoundDuration":99667,"Delta":493637195},{"NoteNumber":87,"Velocity":85,"Duration":99667,"SoundDuration":99667,"Delta":493637195},{"NoteNumber":59,"Velocity":96,"Duration":199335,"SoundDuration":199335,"Delta":493637195},{"NoteNumber":47,"Velocity":81,"Duration":199335,"SoundDuration":199335,"Delta":493637195},{"NoteNumber":92,"Velocity":105,"Duration":398670,"SoundDuration":398670,"Delta":494035866},{"NoteNumber":88,"Velocity":89,"Duration":398670,"SoundDuration":398670,"Delta":494035866},{"NoteNumber":80,"Velocity":89,"Duration":398670,"SoundDuration":398670,"Delta":494035866},{"NoteNumber":52,"Velocity":97,"Duration":199335,"SoundDuration":199335,"Delta":494035866},{"NoteNumber":40,"Velocity":82,"Duration":199335,"SoundDuration":199335,"Delta":494035866},{"NoteNumber":90,"Velocity":101,"Duration":94043,"SoundDuration":94043,"Delta":494434537},{"NoteNumber":78,"Velocity":85,"Duration":94043,"SoundDuration":94043,"Delta":494434537},{"NoteNumber":87,"Velocity":85,"Duration":94043,"SoundDuration":94043,"Delta":494434537},{"NoteNumber":71,"Velocity":94,"Duration":188087,"SoundDuration":188087,"Delta":494434537},{"NoteNumber":59,"Velocity":79,"Duration":188087,"SoundDuration":188087,"Delta":494434537},{"NoteNumber":88,"Velocity":101,"Duration":94043,"SoundDuration":94043,"Delta":494622624},{"NoteNumber":76,"Velocity":85,"Duration":94043,"SoundDuration":94043,"Delta":494622624},{"NoteNumber":85,"Velocity":85,"Duration":94043,"SoundDuration":94043,"Delta":494622624},{"NoteNumber":87,"Velocity":99,"Duration":98684,"SoundDuration":98684,"Delta":494810712},{"NoteNumber":75,"Velocity":84,"Duration":98684,"SoundDuration":98684,"Delta":494810712},{"NoteNumber":83,"Velocity":84,"Duration":98684,"SoundDuration":98684,"Delta":494810712},{"NoteNumber":47,"Velocity":102,"Duration":197368,"SoundDuration":197368,"Delta":494810712},{"NoteNumber":35,"Velocity":86,"Duration":197368,"SoundDuration":197368,"Delta":494810712},{"NoteNumber":88,"Velocity":101,"Duration":98684,"SoundDuration":98684,"Delta":495008081},{"NoteNumber":76,"Velocity":85,"Duration":98684,"SoundDuration":98684,"Delta":495008081},{"NoteNumber":85,"Velocity":85,"Duration":98684,"SoundDuration":98684,"Delta":495008081},{"NoteNumber":90,"Velocity":104,"Duration":98684,"SoundDuration":98684,"Delta":495205449},{"NoteNumber":78,"Velocity":88,"Duration":98684,"SoundDuration":98684,"Delta":495205449},{"NoteNumber":87,"Velocity":88,"Duration":98684,"SoundDuration":98684,"Delta":495205449},{"NoteNumber":66,"Velocity":96,"Duration":197368,"SoundDuration":197368,"Delta":495205449},{"NoteNumber":54,"Velocity":81,"Duration":197368,"SoundDuration":197368,"Delta":495205449},{"NoteNumber":92,"Velocity":107,"Duration":98542,"SoundDuration":98542,"Delta":495402818},{"NoteNumber":80,"Velocity":90,"Duration":98542,"SoundDuration":98542,"Delta":495402818},{"NoteNumber":90,"Velocity":107,"Duration":96573,"SoundDuration":96573,"Delta":495597207},{"NoteNumber":85,"Velocity":90,"Duration":96573,"SoundDuration":96573,"Delta":495597207},{"NoteNumber":78,"Velocity":90,"Duration":96573,"SoundDuration":96573,"Delta":495597207},{"NoteNumber":45,"Velocity":97,"Duration":194342,"SoundDuration":194342,"Delta":495597207},{"NoteNumber":33,"Velocity":82,"Duration":194342,"SoundDuration":194342,"Delta":495597207},{"NoteNumber":88,"Velocity":106,"Duration":98946,"SoundDuration":98946,"Delta":495791549},{"NoteNumber":76,"Velocity":90,"Duration":98946,"SoundDuration":98946,"Delta":495791549},{"NoteNumber":87,"Velocity":104,"Duration":101268,"SoundDuration":101268,"Delta":495990581},{"NoteNumber":75,"Velocity":88,"Duration":101268,"SoundDuration":101268,"Delta":495990581},{"NoteNumber":66,"Velocity":94,"Duration":203729,"SoundDuration":203729,"Delta":495990581},{"NoteNumber":54,"Velocity":79,"Duration":203729,"SoundDuration":203729,"Delta":495990581},{"NoteNumber":85,"Velocity":102,"Duration":103736,"SoundDuration":103736,"Delta":496194311},{"NoteNumber":73,"Velocity":86,"Duration":103736,"SoundDuration":103736,"Delta":496194311},{"NoteNumber":89,"Velocity":103,"Duration":784533,"SoundDuration":784533,"Delta":496403164},{"NoteNumber":77,"Velocity":87,"Duration":784533,"SoundDuration":784533,"Delta":496403164},{"NoteNumber":80,"Velocity":87,"Duration":784533,"SoundDuration":784533,"Delta":496403164},{"NoteNumber":85,"Velocity":87,"Duration":784533,"SoundDuration":784533,"Delta":496403164},{"NoteNumber":44,"Velocity":104,"Duration":212014,"SoundDuration":212014,"Delta":496403164},{"NoteNumber":32,"Velocity":88,"Duration":212014,"SoundDuration":212014,"Delta":496403164},{"NoteNumber":55,"Velocity":88,"Duration":229007,"SoundDuration":229007,"Delta":496615179},{"NoteNumber":43,"Velocity":74,"Duration":229007,"SoundDuration":229007,"Delta":496615179},{"NoteNumber":56,"Velocity":94,"Duration":229007,"SoundDuration":229007,"Delta":496844186},{"NoteNumber":44,"Velocity":79,"Duration":229007,"SoundDuration":229007,"Delta":496844186},{"NoteNumber":67,"Velocity":94,"Duration":229007,"SoundDuration":229007,"Delta":497073194},{"NoteNumber":55,"Velocity":79,"Duration":229007,"SoundDuration":229007,"Delta":497073194},{"NoteNumber":87,"Velocity":101,"Duration":114503,"SoundDuration":114503,"Delta":497187698},{"NoteNumber":75,"Velocity":85,"Duration":114503,"SoundDuration":114503,"Delta":497187698},{"NoteNumber":84,"Velocity":92,"Duration":664844,"SoundDuration":664844,"Delta":497302202},{"NoteNumber":90,"Velocity":109,"Duration":664844,"SoundDuration":664844,"Delta":497302202},{"NoteNumber":78,"Velocity":92,"Duration":664844,"SoundDuration":664844,"Delta":497302202},{"NoteNumber":68,"Velocity":99,"Duration":212014,"SoundDuration":212014,"Delta":497302202},{"NoteNumber":56,"Velocity":84,"Duration":212014,"SoundDuration":212014,"Delta":497302202},{"NoteNumber":55,"Velocity":89,"Duration":226414,"SoundDuration":226414,"Delta":497514216},{"NoteNumber":43,"Velocity":75,"Duration":226414,"SoundDuration":226414,"Delta":497514216},{"NoteNumber":56,"Velocity":93,"Duration":436205,"SoundDuration":436205,"Delta":497740631},{"NoteNumber":44,"Velocity":79,"Duration":436205,"SoundDuration":436205,"Delta":497740631},{"NoteNumber":84,"Velocity":101,"Duration":209790,"SoundDuration":209790,"Delta":497967046},{"NoteNumber":72,"Velocity":85,"Duration":209790,"SoundDuration":209790,"Delta":497967046},{"NoteNumber":87,"Velocity":107,"Duration":108303,"SoundDuration":108303,"Delta":498176836},{"NoteNumber":75,"Velocity":90,"Duration":108303,"SoundDuration":108303,"Delta":498176836},{"NoteNumber":44,"Velocity":101,"Duration":216606,"SoundDuration":216606,"Delta":498176836},{"NoteNumber":32,"Velocity":85,"Duration":216606,"SoundDuration":216606,"Delta":498176836},{"NoteNumber":55,"Velocity":88,"Duration":216606,"SoundDuration":216606,"Delta":498393443},{"NoteNumber":43,"Velocity":74,"Duration":216606,"SoundDuration":216606,"Delta":498393443},{"NoteNumber":85,"Velocity":98,"Duration":866425,"SoundDuration":866425,"Delta":498610049},{"NoteNumber":73,"Velocity":83,"Duration":866425,"SoundDuration":866425,"Delta":498610049},{"NoteNumber":77,"Velocity":83,"Duration":866425,"SoundDuration":866425,"Delta":498610049},{"NoteNumber":80,"Velocity":83,"Duration":866425,"SoundDuration":866425,"Delta":498610049},{"NoteNumber":56,"Velocity":94,"Duration":216606,"SoundDuration":216606,"Delta":498610049},{"NoteNumber":44,"Velocity":79,"Duration":216606,"SoundDuration":216606,"Delta":498610049},{"NoteNumber":67,"Velocity":94,"Duration":216606,"SoundDuration":216606,"Delta":498826656},{"NoteNumber":55,"Velocity":79,"Duration":216606,"SoundDuration":216606,"Delta":498826656},{"NoteNumber":68,"Velocity":99,"Duration":216606,"SoundDuration":216606,"Delta":499043262},{"NoteNumber":56,"Velocity":84,"Duration":216606,"SoundDuration":216606,"Delta":499043262},{"NoteNumber":55,"Velocity":89,"Duration":216606,"SoundDuration":216606,"Delta":499259869},{"NoteNumber":43,"Velocity":75,"Duration":216606,"SoundDuration":216606,"Delta":499259869},{"NoteNumber":85,"Velocity":98,"Duration":226414,"SoundDuration":226414,"Delta":499476475},{"NoteNumber":73,"Velocity":83,"Duration":226414,"SoundDuration":226414,"Delta":499476475},{"NoteNumber":77,"Velocity":83,"Duration":226414,"SoundDuration":226414,"Delta":499476475},{"NoteNumber":56,"Velocity":93,"Duration":452830,"SoundDuration":452830,"Delta":499476475},{"NoteNumber":44,"Velocity":79,"Duration":452830,"SoundDuration":452830,"Delta":499476475},{"NoteNumber":94,"Velocity":108,"Duration":226414,"SoundDuration":226414,"Delta":499929305},{"NoteNumber":82,"Velocity":91,"Duration":226414,"SoundDuration":226414,"Delta":499929305},{"NoteNumber":85,"Velocity":91,"Duration":226414,"SoundDuration":226414,"Delta":499929305},{"NoteNumber":42,"Velocity":107,"Duration":226414,"SoundDuration":226414,"Delta":499929305},{"NoteNumber":30,"Velocity":90,"Duration":226414,"SoundDuration":226414,"Delta":499929305},{"NoteNumber":57,"Velocity":88,"Duration":218977,"SoundDuration":218977,"Delta":500155720},{"NoteNumber":45,"Velocity":74,"Duration":218977,"SoundDuration":218977,"Delta":500155720},{"NoteNumber":94,"Velocity":105,"Duration":218977,"SoundDuration":218977,"Delta":500374698},{"NoteNumber":82,"Velocity":89,"Duration":218977,"SoundDuration":218977,"Delta":500374698},{"NoteNumber":85,"Velocity":89,"Duration":218977,"SoundDuration":218977,"Delta":500374698},{"NoteNumber":58,"Velocity":94,"Duration":453352,"SoundDuration":453352,"Delta":500374698},{"NoteNumber":46,"Velocity":79,"Duration":453352,"SoundDuration":453352,"Delta":500374698},{"NoteNumber":92,"Velocity":108,"Duration":903991,"SoundDuration":903991,"Delta":500828051},{"NoteNumber":80,"Velocity":91,"Duration":903991,"SoundDuration":903991,"Delta":500828051},{"NoteNumber":83,"Velocity":91,"Duration":903991,"SoundDuration":903991,"Delta":500828051},{"NoteNumber":86,"Velocity":91,"Duration":903991,"SoundDuration":903991,"Delta":500828051},{"NoteNumber":41,"Velocity":106,"Duration":234375,"SoundDuration":234375,"Delta":500828051},{"NoteNumber":29,"Velocity":90,"Duration":234375,"SoundDuration":234375,"Delta":500828051},{"NoteNumber":61,"Velocity":89,"Duration":218977,"SoundDuration":218977,"Delta":501062426},{"NoteNumber":49,"Velocity":75,"Duration":218977,"SoundDuration":218977,"Delta":501062426},{"NoteNumber":62,"Velocity":93,"Duration":450638,"SoundDuration":450638,"Delta":501281404},{"NoteNumber":50,"Velocity":79,"Duration":450638,"SoundDuration":450638,"Delta":501281404},{"NoteNumber":90,"Velocity":100,"Duration":231660,"SoundDuration":231660,"Delta":501732043},{"NoteNumber":78,"Velocity":85,"Duration":231660,"SoundDuration":231660,"Delta":501732043},{"NoteNumber":82,"Velocity":85,"Duration":231660,"SoundDuration":231660,"Delta":501732043},{"NoteNumber":39,"Velocity":115,"Duration":231660,"SoundDuration":231660,"Delta":501732043},{"NoteNumber":27,"Velocity":97,"Duration":231660,"SoundDuration":231660,"Delta":501732043},{"NoteNumber":57,"Velocity":88,"Duration":218977,"SoundDuration":218977,"Delta":501963703},{"NoteNumber":45,"Velocity":74,"Duration":218977,"SoundDuration":218977,"Delta":501963703},{"NoteNumber":90,"Velocity":105,"Duration":908653,"SoundDuration":908653,"Delta":502182681},{"NoteNumber":78,"Velocity":89,"Duration":908653,"SoundDuration":908653,"Delta":502182681},{"NoteNumber":82,"Velocity":89,"Duration":908653,"SoundDuration":908653,"Delta":502182681},{"NoteNumber":58,"Velocity":94,"Duration":218977,"SoundDuration":218977,"Delta":502182681},{"NoteNumber":46,"Velocity":79,"Duration":218977,"SoundDuration":218977,"Delta":502182681},{"NoteNumber":69,"Velocity":94,"Duration":231660,"SoundDuration":231660,"Delta":502401659},{"NoteNumber":57,"Velocity":79,"Duration":231660,"SoundDuration":231660,"Delta":502401659},{"NoteNumber":70,"Velocity":99,"Duration":229007,"SoundDuration":229007,"Delta":502633319},{"NoteNumber":58,"Velocity":84,"Duration":229007,"SoundDuration":229007,"Delta":502633319},{"NoteNumber":57,"Velocity":89,"Duration":229007,"SoundDuration":229007,"Delta":502862327},{"NoteNumber":45,"Velocity":75,"Duration":229007,"SoundDuration":229007,"Delta":502862327},{"NoteNumber":90,"Velocity":102,"Duration":497925,"SoundDuration":497925,"Delta":503091335},{"NoteNumber":78,"Velocity":86,"Duration":497925,"SoundDuration":497925,"Delta":503091335},{"NoteNumber":82,"Velocity":86,"Duration":497925,"SoundDuration":497925,"Delta":503091335},{"NoteNumber":58,"Velocity":93,"Duration":497925,"SoundDuration":497925,"Delta":503091335},{"NoteNumber":46,"Velocity":79,"Duration":497925,"SoundDuration":497925,"Delta":503091335},{"NoteNumber":97,"Velocity":111,"Duration":461034,"SoundDuration":461034,"Delta":503589260},{"NoteNumber":85,"Velocity":94,"Duration":461034,"SoundDuration":461034,"Delta":503589260},{"NoteNumber":94,"Velocity":94,"Duration":461034,"SoundDuration":461034,"Delta":503589260},{"NoteNumber":42,"Velocity":108,"Duration":237154,"SoundDuration":237154,"Delta":503589260},{"NoteNumber":30,"Velocity":91,"Duration":237154,"SoundDuration":237154,"Delta":503589260},{"NoteNumber":60,"Velocity":88,"Duration":223880,"SoundDuration":223880,"Delta":503826414},{"NoteNumber":48,"Velocity":74,"Duration":223880,"SoundDuration":223880,"Delta":503826414},{"NoteNumber":97,"Velocity":104,"Duration":475981,"SoundDuration":475981,"Delta":504050295},{"NoteNumber":85,"Velocity":88,"Duration":475981,"SoundDuration":475981,"Delta":504050295},{"NoteNumber":94,"Velocity":88,"Duration":475981,"SoundDuration":475981,"Delta":504050295},{"NoteNumber":61,"Velocity":94,"Duration":223880,"SoundDuration":223880,"Delta":504050295},{"NoteNumber":49,"Velocity":79,"Duration":223880,"SoundDuration":223880,"Delta":504050295},{"NoteNumber":72,"Velocity":94,"Duration":252100,"SoundDuration":252100,"Delta":504274175},{"NoteNumber":60,"Velocity":79,"Duration":252100,"SoundDuration":252100,"Delta":504274175},{"NoteNumber":96,"Velocity":110,"Duration":486475,"SoundDuration":486475,"Delta":504526276},{"NoteNumber":84,"Velocity":93,"Duration":486475,"SoundDuration":486475,"Delta":504526276},{"NoteNumber":92,"Velocity":93,"Duration":486475,"SoundDuration":486475,"Delta":504526276},{"NoteNumber":73,"Velocity":99,"Duration":252100,"SoundDuration":252100,"Delta":504526276},{"NoteNumber":61,"Velocity":84,"Duration":252100,"SoundDuration":252100,"Delta":504526276},{"NoteNumber":60,"Velocity":89,"Duration":234375,"SoundDuration":234375,"Delta":504778377},{"NoteNumber":48,"Velocity":75,"Duration":234375,"SoundDuration":234375,"Delta":504778377},{"NoteNumber":94,"Velocity":102,"Duration":499861,"SoundDuration":499861,"Delta":505012752},{"NoteNumber":82,"Velocity":86,"Duration":499861,"SoundDuration":499861,"Delta":505012752},{"NoteNumber":90,"Velocity":86,"Duration":499861,"SoundDuration":499861,"Delta":505012752},{"NoteNumber":61,"Velocity":93,"Duration":499861,"SoundDuration":499861,"Delta":505012752},{"NoteNumber":49,"Velocity":79,"Duration":499861,"SoundDuration":499861,"Delta":505012752},{"NoteNumber":92,"Velocity":103,"Duration":242914,"SoundDuration":242914,"Delta":505512614},{"NoteNumber":80,"Velocity":87,"Duration":242914,"SoundDuration":242914,"Delta":505512614},{"NoteNumber":89,"Velocity":87,"Duration":242914,"SoundDuration":242914,"Delta":505512614},{"NoteNumber":44,"Velocity":105,"Duration":242914,"SoundDuration":242914,"Delta":505512614},{"NoteNumber":32,"Velocity":89,"Duration":242914,"SoundDuration":242914,"Delta":505512614},{"NoteNumber":55,"Velocity":88,"Duration":262008,"SoundDuration":262008,"Delta":505755529},{"NoteNumber":43,"Velocity":74,"Duration":262008,"SoundDuration":262008,"Delta":505755529},{"NoteNumber":92,"Velocity":106,"Duration":1032982,"SoundDuration":1032982,"Delta":506017537},{"NoteNumber":80,"Velocity":90,"Duration":1032982,"SoundDuration":1032982,"Delta":506017537},{"NoteNumber":85,"Velocity":90,"Duration":1032982,"SoundDuration":1032982,"Delta":506017537},{"NoteNumber":89,"Velocity":90,"Duration":1032982,"SoundDuration":1032982,"Delta":506017537},{"NoteNumber":56,"Velocity":94,"Duration":262008,"SoundDuration":262008,"Delta":506017537},{"NoteNumber":44,"Velocity":79,"Duration":262008,"SoundDuration":262008,"Delta":506017537},{"NoteNumber":67,"Velocity":94,"Duration":240000,"SoundDuration":240000,"Delta":506279546},{"NoteNumber":55,"Velocity":79,"Duration":240000,"SoundDuration":240000,"Delta":506279546},{"NoteNumber":68,"Velocity":99,"Duration":265486,"SoundDuration":265486,"Delta":506519546},{"NoteNumber":56,"Velocity":84,"Duration":265486,"SoundDuration":265486,"Delta":506519546},{"NoteNumber":93,"Velocity":102,"Duration":242915,"SoundDuration":242915,"Delta":507293435},{"NoteNumber":81,"Velocity":86,"Duration":242915,"SoundDuration":242915,"Delta":507293435},{"NoteNumber":65,"Velocity":79,"Duration":242915,"SoundDuration":242915,"Delta":507293435},{"NoteNumber":77,"Velocity":79,"Duration":242915,"SoundDuration":242915,"Delta":507293435},{"NoteNumber":94,"Velocity":109,"Duration":242914,"SoundDuration":242914,"Delta":507536350},{"NoteNumber":82,"Velocity":92,"Duration":242914,"SoundDuration":242914,"Delta":507536350},{"NoteNumber":78,"Velocity":100,"Duration":242914,"SoundDuration":242914,"Delta":507536350},{"NoteNumber":66,"Velocity":85,"Duration":242914,"SoundDuration":242914,"Delta":507536350},{"NoteNumber":89,"Velocity":96,"Duration":242672,"SoundDuration":242672,"Delta":508265095},{"NoteNumber":77,"Velocity":81,"Duration":242672,"SoundDuration":242672,"Delta":508265095},{"NoteNumber":74,"Velocity":72,"Duration":242672,"SoundDuration":242672,"Delta":508265095},{"NoteNumber":62,"Velocity":60,"Duration":242672,"SoundDuration":242672,"Delta":508265095},{"NoteNumber":90,"Velocity":102,"Duration":227466,"SoundDuration":227466,"Delta":508507767},{"NoteNumber":78,"Velocity":86,"Duration":227466,"SoundDuration":227466,"Delta":508507767},{"NoteNumber":75,"Velocity":76,"Duration":227466,"SoundDuration":227466,"Delta":508507767},{"NoteNumber":63,"Velocity":64,"Duration":227466,"SoundDuration":227466,"Delta":508507767},{"NoteNumber":86,"Velocity":93,"Duration":214318,"SoundDuration":214318,"Delta":508735233},{"NoteNumber":74,"Velocity":79,"Duration":214318,"SoundDuration":214318,"Delta":508735233},{"NoteNumber":71,"Velocity":69,"Duration":214318,"SoundDuration":214318,"Delta":508735233},{"NoteNumber":59,"Velocity":59,"Duration":214318,"SoundDuration":214318,"Delta":508735233},{"NoteNumber":87,"Velocity":100,"Duration":206219,"SoundDuration":206219,"Delta":508949552},{"NoteNumber":75,"Velocity":85,"Duration":206219,"SoundDuration":206219,"Delta":508949552},{"NoteNumber":72,"Velocity":75,"Duration":206219,"SoundDuration":206219,"Delta":508949552},{"NoteNumber":60,"Velocity":63,"Duration":206219,"SoundDuration":206219,"Delta":508949552},{"NoteNumber":83,"Velocity":93,"Duration":198535,"SoundDuration":198535,"Delta":509155771},{"NoteNumber":71,"Velocity":79,"Duration":198535,"SoundDuration":198535,"Delta":509155771},{"NoteNumber":67,"Velocity":69,"Duration":198535,"SoundDuration":198535,"Delta":509155771},{"NoteNumber":55,"Velocity":59,"Duration":198535,"SoundDuration":198535,"Delta":509155771},{"NoteNumber":84,"Velocity":101,"Duration":192314,"SoundDuration":192314,"Delta":509354307},{"NoteNumber":72,"Velocity":85,"Duration":192314,"SoundDuration":192314,"Delta":509354307},{"NoteNumber":68,"Velocity":75,"Duration":192314,"SoundDuration":192314,"Delta":509354307},{"NoteNumber":56,"Velocity":63,"Duration":192314,"SoundDuration":192314,"Delta":509354307},{"NoteNumber":81,"Velocity":91,"Duration":187564,"SoundDuration":187564,"Delta":509546621},{"NoteNumber":69,"Velocity":77,"Duration":187564,"SoundDuration":187564,"Delta":509546621},{"NoteNumber":65,"Velocity":68,"Duration":187564,"SoundDuration":187564,"Delta":509546621},{"NoteNumber":53,"Velocity":57,"Duration":187564,"SoundDuration":187564,"Delta":509546621},{"NoteNumber":82,"Velocity":97,"Duration":183911,"SoundDuration":183911,"Delta":509734186},{"NoteNumber":70,"Velocity":82,"Duration":183911,"SoundDuration":183911,"Delta":509734186},{"NoteNumber":66,"Velocity":72,"Duration":183911,"SoundDuration":183911,"Delta":509734186},{"NoteNumber":54,"Velocity":61,"Duration":183911,"SoundDuration":183911,"Delta":509734186},{"NoteNumber":77,"Velocity":90,"Duration":182512,"SoundDuration":182512,"Delta":509918098},{"NoteNumber":65,"Velocity":76,"Duration":182512,"SoundDuration":182512,"Delta":509918098},{"NoteNumber":62,"Velocity":67,"Duration":182512,"SoundDuration":182512,"Delta":509918098},{"NoteNumber":50,"Velocity":57,"Duration":182512,"SoundDuration":182512,"Delta":509918098},{"NoteNumber":78,"Velocity":98,"Duration":180861,"SoundDuration":180861,"Delta":510100610},{"NoteNumber":66,"Velocity":83,"Duration":180861,"SoundDuration":180861,"Delta":510100610},{"NoteNumber":63,"Velocity":73,"Duration":180861,"SoundDuration":180861,"Delta":510100610},{"NoteNumber":51,"Velocity":62,"Duration":180861,"SoundDuration":180861,"Delta":510100610},{"NoteNumber":74,"Velocity":88,"Duration":179507,"SoundDuration":179507,"Delta":510281472},{"NoteNumber":62,"Velocity":74,"Duration":179507,"SoundDuration":179507,"Delta":510281472},{"NoteNumber":59,"Velocity":66,"Duration":179507,"SoundDuration":179507,"Delta":510281472},{"NoteNumber":47,"Velocity":55,"Duration":179507,"SoundDuration":179507,"Delta":510281472},{"NoteNumber":75,"Velocity":96,"Duration":178041,"SoundDuration":178041,"Delta":510460979},{"NoteNumber":63,"Velocity":81,"Duration":178041,"SoundDuration":178041,"Delta":510460979},{"NoteNumber":60,"Velocity":72,"Duration":178041,"SoundDuration":178041,"Delta":510460979},{"NoteNumber":48,"Velocity":60,"Duration":178041,"SoundDuration":178041,"Delta":510460979},{"NoteNumber":71,"Velocity":91,"Duration":175836,"SoundDuration":175836,"Delta":510639021},{"NoteNumber":59,"Velocity":76,"Duration":175836,"SoundDuration":175836,"Delta":510639021},{"NoteNumber":55,"Velocity":68,"Duration":175836,"SoundDuration":175836,"Delta":510639021},{"NoteNumber":43,"Velocity":56,"Duration":175836,"SoundDuration":175836,"Delta":510639021},{"NoteNumber":72,"Velocity":96,"Duration":173410,"SoundDuration":173410,"Delta":510814857},{"NoteNumber":60,"Velocity":81,"Duration":173410,"SoundDuration":173410,"Delta":510814857},{"NoteNumber":56,"Velocity":71,"Duration":173410,"SoundDuration":173410,"Delta":510814857},{"NoteNumber":44,"Velocity":60,"Duration":173410,"SoundDuration":173410,"Delta":510814857},{"NoteNumber":69,"Velocity":93,"Duration":174800,"SoundDuration":174800,"Delta":510988268},{"NoteNumber":57,"Velocity":79,"Duration":174800,"SoundDuration":174800,"Delta":510988268},{"NoteNumber":53,"Velocity":69,"Duration":174800,"SoundDuration":174800,"Delta":510988268},{"NoteNumber":41,"Velocity":58,"Duration":174800,"SoundDuration":174800,"Delta":510988268},{"NoteNumber":70,"Velocity":100,"Duration":175827,"SoundDuration":175827,"Delta":511163069},{"NoteNumber":58,"Velocity":84,"Duration":175827,"SoundDuration":175827,"Delta":511163069},{"NoteNumber":54,"Velocity":74,"Duration":175827,"SoundDuration":175827,"Delta":511163069},{"NoteNumber":42,"Velocity":62,"Duration":175827,"SoundDuration":175827,"Delta":511163069},{"NoteNumber":65,"Velocity":95,"Duration":176996,"SoundDuration":176996,"Delta":511338896},{"NoteNumber":53,"Velocity":80,"Duration":176996,"SoundDuration":176996,"Delta":511338896},{"NoteNumber":50,"Velocity":70,"Duration":176996,"SoundDuration":176996,"Delta":511338896},{"NoteNumber":38,"Velocity":60,"Duration":176996,"SoundDuration":176996,"Delta":511338896},{"NoteNumber":66,"Velocity":103,"Duration":182394,"SoundDuration":182394,"Delta":511515892},{"NoteNumber":54,"Velocity":87,"Duration":182394,"SoundDuration":182394,"Delta":511515892},{"NoteNumber":51,"Velocity":77,"Duration":182394,"SoundDuration":182394,"Delta":511515892},{"NoteNumber":39,"Velocity":64,"Duration":182394,"SoundDuration":182394,"Delta":511515892},{"NoteNumber":62,"Velocity":99,"Duration":189300,"SoundDuration":189300,"Delta":511698287},{"NoteNumber":50,"Velocity":84,"Duration":189300,"SoundDuration":189300,"Delta":511698287},{"NoteNumber":47,"Velocity":74,"Duration":189300,"SoundDuration":189300,"Delta":511698287},{"NoteNumber":35,"Velocity":62,"Duration":189300,"SoundDuration":189300,"Delta":511698287},{"NoteNumber":63,"Velocity":107,"Duration":197394,"SoundDuration":197394,"Delta":511887588},{"NoteNumber":51,"Velocity":90,"Duration":197394,"SoundDuration":197394,"Delta":511887588},{"NoteNumber":48,"Velocity":80,"Duration":197394,"SoundDuration":197394,"Delta":511887588},{"NoteNumber":36,"Velocity":67,"Duration":197394,"SoundDuration":197394,"Delta":511887588},{"NoteNumber":60,"Velocity":102,"Duration":205490,"SoundDuration":205490,"Delta":512084982},{"NoteNumber":48,"Velocity":86,"Duration":205490,"SoundDuration":205490,"Delta":512084982},{"NoteNumber":54,"Velocity":86,"Duration":205490,"SoundDuration":205490,"Delta":512084982},{"NoteNumber":44,"Velocity":75,"Duration":205490,"SoundDuration":205490,"Delta":512084982},{"NoteNumber":32,"Velocity":64,"Duration":205490,"SoundDuration":205490,"Delta":512084982},{"NoteNumber":39,"Velocity":64,"Duration":205490,"SoundDuration":205490,"Delta":512084982},{"NoteNumber":61,"Velocity":106,"Duration":954545,"SoundDuration":954545,"Delta":512290472},{"NoteNumber":54,"Velocity":90,"Duration":818181,"SoundDuration":818181,"Delta":512290472},{"NoteNumber":49,"Velocity":90,"Duration":954545,"SoundDuration":954545,"Delta":512290472},{"NoteNumber":42,"Velocity":80,"Duration":136363,"SoundDuration":136363,"Delta":512290472},{"NoteNumber":33,"Velocity":68,"Duration":136363,"SoundDuration":136363,"Delta":512290472},{"NoteNumber":45,"Velocity":75,"Duration":136363,"SoundDuration":136363,"Delta":512426836},{"NoteNumber":42,"Velocity":80,"Duration":136363,"SoundDuration":136363,"Delta":512563199},{"NoteNumber":33,"Velocity":68,"Duration":136363,"SoundDuration":136363,"Delta":512563199},{"NoteNumber":45,"Velocity":74,"Duration":136363,"SoundDuration":136363,"Delta":512699563},{"NoteNumber":42,"Velocity":74,"Duration":136363,"SoundDuration":136363,"Delta":512835927},{"NoteNumber":33,"Velocity":62,"Duration":136363,"SoundDuration":136363,"Delta":512835927},{"NoteNumber":45,"Velocity":80,"Duration":136363,"SoundDuration":136363,"Delta":512972290},{"NoteNumber":42,"Velocity":74,"Duration":136363,"SoundDuration":136363,"Delta":513108654},{"NoteNumber":33,"Velocity":62,"Duration":136363,"SoundDuration":136363,"Delta":513108654},{"NoteNumber":45,"Velocity":80,"Duration":68181,"SoundDuration":68181,"Delta":513245017},{"NoteNumber":66,"Velocity":94,"Duration":90909,"SoundDuration":90909,"Delta":513290472},{"NoteNumber":54,"Velocity":79,"Duration":90909,"SoundDuration":90909,"Delta":513290472},{"NoteNumber":33,"Velocity":73,"Duration":613636,"SoundDuration":613636,"Delta":513313199},{"NoteNumber":42,"Velocity":73,"Duration":579545,"SoundDuration":579545,"Delta":513347290},{"NoteNumber":66,"Velocity":104,"Duration":954545,"SoundDuration":954545,"Delta":513381381},{"NoteNumber":54,"Velocity":88,"Duration":954545,"SoundDuration":954545,"Delta":513381381},{"NoteNumber":45,"Velocity":73,"Duration":545454,"SoundDuration":545454,"Delta":513381381},{"NoteNumber":64,"Velocity":89,"Duration":90909,"SoundDuration":90909,"Delta":514381381},{"NoteNumber":52,"Velocity":75,"Duration":90909,"SoundDuration":90909,"Delta":514381381},{"NoteNumber":64,"Velocity":98,"Duration":432692,"SoundDuration":432692,"Delta":514472290},{"NoteNumber":57,"Velocity":83,"Duration":432692,"SoundDuration":432692,"Delta":514472290},{"NoteNumber":52,"Velocity":83,"Duration":432692,"SoundDuration":432692,"Delta":514472290},{"NoteNumber":37,"Velocity":80,"Duration":144230,"SoundDuration":144230,"Delta":514472290},{"NoteNumber":30,"Velocity":68,"Duration":144230,"SoundDuration":144230,"Delta":514472290},{"NoteNumber":42,"Velocity":75,"Duration":144230,"SoundDuration":144230,"Delta":514616521},{"NoteNumber":37,"Velocity":80,"Duration":144230,"SoundDuration":144230,"Delta":514760752},{"NoteNumber":30,"Velocity":68,"Duration":144230,"SoundDuration":144230,"Delta":514760752},{"NoteNumber":42,"Velocity":74,"Duration":144230,"SoundDuration":144230,"Delta":514904982},{"NoteNumber":62,"Velocity":92,"Duration":96153,"SoundDuration":96153,"Delta":514953059},{"NoteNumber":50,"Velocity":78,"Duration":96153,"SoundDuration":96153,"Delta":514953059},{"NoteNumber":57,"Velocity":84,"Duration":432692,"SoundDuration":432692,"Delta":515049213},{"NoteNumber":62,"Velocity":99,"Duration":432692,"SoundDuration":432692,"Delta":515049213},{"NoteNumber":50,"Velocity":84,"Duration":432692,"SoundDuration":432692,"Delta":515049213},{"NoteNumber":37,"Velocity":74,"Duration":144230,"SoundDuration":144230,"Delta":515049213},{"NoteNumber":30,"Velocity":62,"Duration":144230,"SoundDuration":144230,"Delta":515049213},{"NoteNumber":42,"Velocity":80,"Duration":144230,"SoundDuration":144230,"Delta":515193444},{"NoteNumber":37,"Velocity":74,"Duration":144230,"SoundDuration":144230,"Delta":515337675},{"NoteNumber":30,"Velocity":62,"Duration":144230,"SoundDuration":144230,"Delta":515337675},{"NoteNumber":42,"Velocity":80,"Duration":72115,"SoundDuration":72115,"Delta":515481905},{"NoteNumber":61,"Velocity":87,"Duration":96153,"SoundDuration":96153,"Delta":515529982},{"NoteNumber":49,"Velocity":73,"Duration":96153,"SoundDuration":96153,"Delta":515529982},{"NoteNumber":30,"Velocity":73,"Duration":625110,"SoundDuration":625110,"Delta":515554021},{"NoteNumber":37,"Velocity":73,"Duration":589053,"SoundDuration":589053,"Delta":515590078},{"NoteNumber":57,"Velocity":97,"Duration":414746,"SoundDuration":414746,"Delta":515626136},{"NoteNumber":61,"Velocity":97,"Duration":414746,"SoundDuration":414746,"Delta":515626136},{"NoteNumber":49,"Velocity":82,"Duration":414746,"SoundDuration":414746,"Delta":515626136},{"NoteNumber":42,"Velocity":73,"Duration":552995,"SoundDuration":552995,"Delta":515626136},{"NoteNumber":60,"Velocity":90,"Duration":92165,"SoundDuration":92165,"Delta":516086966},{"NoteNumber":48,"Velocity":76,"Duration":92165,"SoundDuration":92165,"Delta":516086966},{"NoteNumber":60,"Velocity":97,"Duration":445544,"SoundDuration":445544,"Delta":516179132},{"NoteNumber":57,"Velocity":82,"Duration":445544,"SoundDuration":445544,"Delta":516179132},{"NoteNumber":48,"Velocity":82,"Duration":445544,"SoundDuration":445544,"Delta":516179132},{"NoteNumber":61,"Velocity":90,"Duration":99009,"SoundDuration":99009,"Delta":516674181},{"NoteNumber":49,"Velocity":76,"Duration":99009,"SoundDuration":99009,"Delta":516674181},{"NoteNumber":61,"Velocity":97,"Duration":299999,"SoundDuration":299999,"Delta":516773191},{"NoteNumber":49,"Velocity":82,"Duration":299999,"SoundDuration":299999,"Delta":516773191},{"NoteNumber":25,"Velocity":68,"Duration":299999,"SoundDuration":299999,"Delta":516773191},{"NoteNumber":37,"Velocity":73,"Duration":299999,"SoundDuration":299999,"Delta":516773191},{"NoteNumber":81,"Velocity":96,"Duration":285035,"SoundDuration":285035,"Delta":517373191},{"NoteNumber":78,"Velocity":81,"Duration":285035,"SoundDuration":285035,"Delta":517373191},{"NoteNumber":73,"Velocity":81,"Duration":285035,"SoundDuration":285035,"Delta":517373191},{"NoteNumber":69,"Velocity":81,"Duration":285035,"SoundDuration":285035,"Delta":517373191},{"NoteNumber":66,"Velocity":79,"Duration":285035,"SoundDuration":285035,"Delta":517373191},{"NoteNumber":61,"Velocity":67,"Duration":285035,"SoundDuration":285035,"Delta":517373191},{"NoteNumber":57,"Velocity":67,"Duration":285035,"SoundDuration":285035,"Delta":517373191},{"NoteNumber":54,"Velocity":67,"Duration":285035,"SoundDuration":285035,"Delta":517373191},{"NoteNumber":85,"Velocity":96,"Duration":277136,"SoundDuration":277136,"Delta":517943262},{"NoteNumber":73,"Velocity":81,"Duration":277136,"SoundDuration":277136,"Delta":517943262},{"NoteNumber":77,"Velocity":81,"Duration":277136,"SoundDuration":277136,"Delta":517943262},{"NoteNumber":80,"Velocity":81,"Duration":277136,"SoundDuration":277136,"Delta":517943262},{"NoteNumber":61,"Velocity":79,"Duration":277136,"SoundDuration":277136,"Delta":517943262},{"NoteNumber":49,"Velocity":67,"Duration":277136,"SoundDuration":277136,"Delta":517943262},{"NoteNumber":53,"Velocity":67,"Duration":277136,"SoundDuration":277136,"Delta":517943262},{"NoteNumber":56,"Velocity":67,"Duration":277136,"SoundDuration":277136,"Delta":517943262},{"NoteNumber":87,"Velocity":96,"Duration":277136,"SoundDuration":277136,"Delta":518220399},{"NoteNumber":75,"Velocity":81,"Duration":277136,"SoundDuration":277136,"Delta":518220399},{"NoteNumber":80,"Velocity":81,"Duration":277136,"SoundDuration":277136,"Delta":518220399},{"NoteNumber":84,"Velocity":81,"Duration":277136,"SoundDuration":277136,"Delta":518220399},{"NoteNumber":56,"Velocity":79,"Duration":277136,"SoundDuration":277136,"Delta":518220399},{"NoteNumber":44,"Velocity":67,"Duration":277136,"SoundDuration":277136,"Delta":518220399},{"NoteNumber":48,"Velocity":67,"Duration":277136,"SoundDuration":277136,"Delta":518220399},{"NoteNumber":51,"Velocity":67,"Duration":277136,"SoundDuration":277136,"Delta":518220399},{"NoteNumber":89,"Velocity":96,"Duration":277136,"SoundDuration":277136,"Delta":518497535},{"NoteNumber":77,"Velocity":81,"Duration":277136,"SoundDuration":277136,"Delta":518497535},{"NoteNumber":80,"Velocity":81,"Duration":277136,"SoundDuration":277136,"Delta":518497535},{"NoteNumber":85,"Velocity":81,"Duration":277136,"SoundDuration":277136,"Delta":518497535},{"NoteNumber":49,"Velocity":79,"Duration":277136,"SoundDuration":277136,"Delta":518497535},{"NoteNumber":37,"Velocity":67,"Duration":277136,"SoundDuration":277136,"Delta":518497535},{"NoteNumber":41,"Velocity":67,"Duration":277136,"SoundDuration":277136,"Delta":518497535},{"NoteNumber":44,"Velocity":67,"Duration":277136,"SoundDuration":277136,"Delta":518497535},{"NoteNumber":92,"Velocity":96,"Duration":277136,"SoundDuration":277136,"Delta":518774672},{"NoteNumber":80,"Velocity":81,"Duration":277136,"SoundDuration":277136,"Delta":518774672},{"NoteNumber":84,"Velocity":81,"Duration":277136,"SoundDuration":277136,"Delta":518774672},{"NoteNumber":87,"Velocity":81,"Duration":277136,"SoundDuration":277136,"Delta":518774672},{"NoteNumber":44,"Velocity":79,"Duration":277136,"SoundDuration":277136,"Delta":518774672},{"NoteNumber":32,"Velocity":67,"Duration":277136,"SoundDuration":277136,"Delta":518774672},{"NoteNumber":36,"Velocity":67,"Duration":277136,"SoundDuration":277136,"Delta":518774672},{"NoteNumber":39,"Velocity":67,"Duration":277136,"SoundDuration":277136,"Delta":518774672},{"NoteNumber":97,"Velocity":96,"Duration":269663,"SoundDuration":269663,"Delta":519051808},{"NoteNumber":85,"Velocity":81,"Duration":269663,"SoundDuration":269663,"Delta":519051808},{"NoteNumber":89,"Velocity":81,"Duration":269663,"SoundDuration":269663,"Delta":519051808},{"NoteNumber":92,"Velocity":81,"Duration":269663,"SoundDuration":269663,"Delta":519051808},{"NoteNumber":49,"Velocity":79,"Duration":269663,"SoundDuration":269663,"Delta":519051808},{"NoteNumber":37,"Velocity":67,"Duration":269663,"SoundDuration":269663,"Delta":519051808},{"NoteNumber":41,"Velocity":67,"Duration":269663,"SoundDuration":269663,"Delta":519051808},{"NoteNumber":44,"Velocity":67,"Duration":269663,"SoundDuration":269663,"Delta":519051808},{"NoteNumber":85,"Velocity":100,"Duration":277136,"SoundDuration":277136,"Delta":520130460},{"NoteNumber":73,"Velocity":85,"Duration":277136,"SoundDuration":277136,"Delta":520130460},{"NoteNumber":78,"Velocity":85,"Duration":277136,"SoundDuration":277136,"Delta":520130460},{"NoteNumber":82,"Velocity":85,"Duration":277136,"SoundDuration":277136,"Delta":520130460},{"NoteNumber":66,"Velocity":82,"Duration":277136,"SoundDuration":277136,"Delta":520130460},{"NoteNumber":61,"Velocity":70,"Duration":277136,"SoundDuration":277136,"Delta":520130460},{"NoteNumber":58,"Velocity":70,"Duration":277136,"SoundDuration":277136,"Delta":520130460},{"NoteNumber":54,"Velocity":70,"Duration":277136,"SoundDuration":277136,"Delta":520130460},{"NoteNumber":61,"Velocity":107,"Duration":291261,"SoundDuration":291261,"Delta":521267257},{"NoteNumber":53,"Velocity":89,"Duration":291261,"SoundDuration":291261,"Delta":521267257},{"NoteNumber":56,"Velocity":92,"Duration":291261,"SoundDuration":291261,"Delta":521267257},{"NoteNumber":49,"Velocity":86,"Duration":291261,"SoundDuration":291261,"Delta":521267257},{"NoteNumber":37,"Velocity":73,"Duration":291261,"SoundDuration":291261,"Delta":521267257},{"NoteNumber":41,"Velocity":73,"Duration":291261,"SoundDuration":291261,"Delta":521267257},{"NoteNumber":44,"Velocity":77,"Duration":291261,"SoundDuration":291261,"Delta":521267257}],"license":{"name":"Creative Commons Attribution-ShareAlike 3.0 Germany","url":"http://creativecommons.org/licenses/by-sa/3.0/de/deed.en","text":"The MIDI, audio (MP3, OGG) and video files of Bernd Krueger are licensed under the cc-by-sa Germany License. This means that you can use and adapt the files, as long as you attribute the copyright holder.\n\nName: Bernd Krueger\nSource: http://www.piano-midi.de\n\nThe distribution or public playback of the files is only allowed under identical license conditions.\n\nThe scores are open source.","attribution":"MIDI files by Bernd Krueger (piano-midi.de)","attributionUrl":"http://www.piano-midi.de"}}