{"title":"Rhapsodie Nr. 15","artist":"Liszt","durationMs":357011,"midiSha256":"a7e6bf0e7bc09866c99d64cc45183d0d1ec748d72f7dbc9bc6179f054fbb72d1","midiObject":[{"NoteNumber":28,"Velocity":27,"Duration":87976,"SoundDuration":87976,"Delta":0},{"NoteNumber":39,"Velocity":27,"Duration":87976,"SoundDuration":87976,"Delta":87977},{"NoteNumber":40,"Velocity":27,"Duration":87976,"SoundDuration":87976,"Delta":175953},{"NoteNumber":52,"Velocity":35,"Duration":43988,"SoundDuration":43988,"Delta":263930},{"NoteNumber":28,"Velocity":28,"Duration":87976,"SoundDuration":87976,"Delta":351906},{"NoteNumber":39,"Velocity":28,"Duration":86830,"SoundDuration":86830,"Delta":439883},{"NoteNumber":40,"Velocity":28,"Duration":86605,"SoundDuration":86605,"Delta":526713},{"NoteNumber":52,"Velocity":35,"Duration":43227,"SoundDuration":43227,"Delta":613319},{"NoteNumber":28,"Velocity":27,"Duration":86083,"SoundDuration":86083,"Delta":699700},{"NoteNumber":39,"Velocity":27,"Duration":85788,"SoundDuration":85788,"Delta":785783},{"NoteNumber":40,"Velocity":27,"Duration":85567,"SoundDuration":85567,"Delta":871571},{"NoteNumber":52,"Velocity":35,"Duration":42674,"SoundDuration":42674,"Delta":957139},{"NoteNumber":28,"Velocity":27,"Duration":84985,"SoundDuration":84985,"Delta":1042487},{"NoteNumber":39,"Velocity":27,"Duration":84412,"SoundDuration":84412,"Delta":1127473},{"NoteNumber":40,"Velocity":27,"Duration":84269,"SoundDuration":84269,"Delta":1211886},{"NoteNumber":52,"Velocity":35,"Duration":41957,"SoundDuration":41957,"Delta":1296156},{"NoteNumber":28,"Velocity":28,"Duration":83775,"SoundDuration":83775,"Delta":1380072},{"NoteNumber":39,"Velocity":28,"Duration":83565,"SoundDuration":83565,"Delta":1463848},{"NoteNumber":40,"Velocity":28,"Duration":83287,"SoundDuration":83287,"Delta":1547413},{"NoteNumber":52,"Velocity":35,"Duration":41713,"SoundDuration":41713,"Delta":1630700},{"NoteNumber":28,"Velocity":27,"Duration":83915,"SoundDuration":83915,"Delta":1714196},{"NoteNumber":39,"Velocity":27,"Duration":84341,"SoundDuration":84341,"Delta":1798112},{"NoteNumber":40,"Velocity":27,"Duration":84698,"SoundDuration":84698,"Delta":1882453},{"NoteNumber":52,"Velocity":35,"Duration":42492,"SoundDuration":42492,"Delta":1967151},{"NoteNumber":28,"Velocity":28,"Duration":85567,"SoundDuration":85567,"Delta":2052282},{"NoteNumber":39,"Velocity":28,"Duration":85714,"SoundDuration":85714,"Delta":2137850},{"NoteNumber":40,"Velocity":28,"Duration":85714,"SoundDuration":85714,"Delta":2223565},{"NoteNumber":52,"Velocity":35,"Duration":42857,"SoundDuration":42857,"Delta":2309279},{"NoteNumber":28,"Velocity":27,"Duration":85714,"SoundDuration":85714,"Delta":2394993},{"NoteNumber":39,"Velocity":27,"Duration":85714,"SoundDuration":85714,"Delta":2480707},{"NoteNumber":40,"Velocity":27,"Duration":85714,"SoundDuration":85714,"Delta":2566422},{"NoteNumber":52,"Velocity":35,"Duration":42857,"SoundDuration":42857,"Delta":2652136},{"NoteNumber":29,"Velocity":28,"Duration":110294,"SoundDuration":110294,"Delta":2737850},{"NoteNumber":40,"Velocity":28,"Duration":88365,"SoundDuration":88365,"Delta":2848144},{"NoteNumber":41,"Velocity":28,"Duration":88131,"SoundDuration":88131,"Delta":2936509},{"NoteNumber":53,"Velocity":35,"Duration":43988,"SoundDuration":43988,"Delta":3024641},{"NoteNumber":29,"Velocity":27,"Duration":87591,"SoundDuration":87591,"Delta":3112541},{"NoteNumber":40,"Velocity":27,"Duration":87209,"SoundDuration":87209,"Delta":3200132},{"NoteNumber":41,"Velocity":27,"Duration":86982,"SoundDuration":86982,"Delta":3287341},{"NoteNumber":53,"Velocity":35,"Duration":43415,"SoundDuration":43415,"Delta":3374323},{"NoteNumber":29,"Velocity":28,"Duration":86455,"SoundDuration":86455,"Delta":3461079},{"NoteNumber":40,"Velocity":28,"Duration":85422,"SoundDuration":85422,"Delta":3547534},{"NoteNumber":41,"Velocity":28,"Duration":84626,"SoundDuration":84626,"Delta":3632957},{"NoteNumber":53,"Velocity":35,"Duration":42028,"SoundDuration":42028,"Delta":3717584},{"NoteNumber":29,"Velocity":27,"Duration":83149,"SoundDuration":83149,"Delta":3801501},{"NoteNumber":40,"Velocity":28,"Duration":83079,"SoundDuration":83079,"Delta":3884650},{"NoteNumber":41,"Velocity":28,"Duration":83495,"SoundDuration":83495,"Delta":3967730},{"NoteNumber":53,"Velocity":35,"Duration":41958,"SoundDuration":41958,"Delta":4051226},{"NoteNumber":29,"Velocity":27,"Duration":84269,"SoundDuration":84269,"Delta":4135283},{"NoteNumber":40,"Velocity":27,"Duration":83916,"SoundDuration":83916,"Delta":4219553},{"NoteNumber":41,"Velocity":27,"Duration":83705,"SoundDuration":83705,"Delta":4303469},{"NoteNumber":53,"Velocity":36,"Duration":41782,"SoundDuration":41782,"Delta":4387175},{"NoteNumber":29,"Velocity":29,"Duration":83217,"SoundDuration":83217,"Delta":4470671},{"NoteNumber":40,"Velocity":29,"Duration":82873,"SoundDuration":82873,"Delta":4553889},{"NoteNumber":41,"Velocity":29,"Duration":83148,"SoundDuration":83148,"Delta":4636762},{"NoteNumber":53,"Velocity":38,"Duration":41713,"SoundDuration":41713,"Delta":4719910},{"NoteNumber":29,"Velocity":29,"Duration":83775,"SoundDuration":83775,"Delta":4803406},{"NoteNumber":40,"Velocity":30,"Duration":84128,"SoundDuration":84128,"Delta":4887182},{"NoteNumber":41,"Velocity":31,"Duration":84269,"SoundDuration":84269,"Delta":4971310},{"NoteNumber":53,"Velocity":39,"Duration":42134,"SoundDuration":42134,"Delta":5055580},{"NoteNumber":29,"Velocity":30,"Duration":86083,"SoundDuration":86083,"Delta":5140213},{"NoteNumber":40,"Velocity":32,"Duration":86083,"SoundDuration":86083,"Delta":5226296},{"NoteNumber":41,"Velocity":32,"Duration":86455,"SoundDuration":86455,"Delta":5312379},{"NoteNumber":53,"Velocity":41,"Duration":43227,"SoundDuration":43227,"Delta":5398834},{"NoteNumber":32,"Velocity":32,"Duration":105014,"SoundDuration":105014,"Delta":5485290},{"NoteNumber":43,"Velocity":32,"Duration":86909,"SoundDuration":86909,"Delta":5590304},{"NoteNumber":44,"Velocity":32,"Duration":86083,"SoundDuration":86083,"Delta":5677214},{"NoteNumber":56,"Velocity":43,"Duration":42820,"SoundDuration":42820,"Delta":5763297},{"NoteNumber":32,"Velocity":34,"Duration":84841,"SoundDuration":84841,"Delta":5848792},{"NoteNumber":43,"Velocity":34,"Duration":84341,"SoundDuration":84341,"Delta":5933634},{"NoteNumber":44,"Velocity":34,"Duration":84269,"SoundDuration":84269,"Delta":6017975},{"NoteNumber":56,"Velocity":44,"Duration":42241,"SoundDuration":42241,"Delta":6102245},{"NoteNumber":32,"Velocity":34,"Duration":84626,"SoundDuration":84626,"Delta":6186800},{"NoteNumber":43,"Velocity":35,"Duration":84698,"SoundDuration":84698,"Delta":6271426},{"NoteNumber":44,"Velocity":36,"Duration":83220,"SoundDuration":83220,"Delta":6356125},{"NoteNumber":56,"Velocity":46,"Duration":40961,"SoundDuration":40961,"Delta":6439346},{"NoteNumber":32,"Velocity":35,"Duration":83532,"SoundDuration":83532,"Delta":6521269},{"NoteNumber":43,"Velocity":37,"Duration":83916,"SoundDuration":83916,"Delta":6604801},{"NoteNumber":44,"Velocity":37,"Duration":84198,"SoundDuration":84198,"Delta":6688717},{"NoteNumber":56,"Velocity":48,"Duration":42241,"SoundDuration":42241,"Delta":6772916},{"NoteNumber":33,"Velocity":37,"Duration":105633,"SoundDuration":105633,"Delta":6857471},{"NoteNumber":44,"Velocity":37,"Duration":84985,"SoundDuration":84985,"Delta":6963105},{"NoteNumber":45,"Velocity":37,"Duration":84770,"SoundDuration":84770,"Delta":7048090},{"NoteNumber":57,"Velocity":49,"Duration":42313,"SoundDuration":42313,"Delta":7132860},{"NoteNumber":33,"Velocity":39,"Duration":84059,"SoundDuration":84059,"Delta":7217344},{"NoteNumber":44,"Velocity":39,"Duration":83079,"SoundDuration":83079,"Delta":7301403},{"NoteNumber":45,"Velocity":40,"Duration":82667,"SoundDuration":82667,"Delta":7384483},{"NoteNumber":57,"Velocity":51,"Duration":41095,"SoundDuration":41095,"Delta":7467151},{"NoteNumber":33,"Velocity":39,"Duration":81589,"SoundDuration":81589,"Delta":7549276},{"NoteNumber":44,"Velocity":41,"Duration":81256,"SoundDuration":81256,"Delta":7630865},{"NoteNumber":45,"Velocity":41,"Duration":81588,"SoundDuration":81588,"Delta":7712122},{"NoteNumber":57,"Velocity":53,"Duration":40927,"SoundDuration":40927,"Delta":7793710},{"NoteNumber":33,"Velocity":40,"Duration":82259,"SoundDuration":82259,"Delta":7875633},{"NoteNumber":44,"Velocity":42,"Duration":82599,"SoundDuration":82599,"Delta":7957892},{"NoteNumber":45,"Velocity":42,"Duration":82941,"SoundDuration":82941,"Delta":8040492},{"NoteNumber":57,"Velocity":55,"Duration":41608,"SoundDuration":41608,"Delta":8123434},{"NoteNumber":34,"Velocity":42,"Duration":106761,"SoundDuration":106761,"Delta":8206652},{"NoteNumber":45,"Velocity":42,"Duration":82191,"SoundDuration":82191,"Delta":8313413},{"NoteNumber":46,"Velocity":43,"Duration":82191,"SoundDuration":82191,"Delta":8395605},{"NoteNumber":58,"Velocity":57,"Duration":41095,"SoundDuration":41095,"Delta":8477797},{"NoteNumber":34,"Velocity":45,"Duration":82057,"SoundDuration":82057,"Delta":8559988},{"NoteNumber":45,"Velocity":45,"Duration":81521,"SoundDuration":81521,"Delta":8642046},{"NoteNumber":46,"Velocity":45,"Duration":81323,"SoundDuration":81323,"Delta":8723568},{"NoteNumber":58,"Velocity":58,"Duration":40595,"SoundDuration":40595,"Delta":8804891},{"NoteNumber":37,"Velocity":45,"Duration":80862,"SoundDuration":80862,"Delta":8886082},{"NoteNumber":48,"Velocity":46,"Duration":80928,"SoundDuration":80928,"Delta":8966944},{"NoteNumber":49,"Velocity":47,"Duration":81190,"SoundDuration":81190,"Delta":9047872},{"NoteNumber":61,"Velocity":60,"Duration":40595,"SoundDuration":40595,"Delta":9129063},{"NoteNumber":37,"Velocity":46,"Duration":81524,"SoundDuration":81524,"Delta":9210254},{"NoteNumber":48,"Velocity":48,"Duration":81125,"SoundDuration":81125,"Delta":9291778},{"NoteNumber":49,"Velocity":48,"Duration":80732,"SoundDuration":80732,"Delta":9372903},{"NoteNumber":61,"Velocity":62,"Duration":40236,"SoundDuration":40236,"Delta":9453636},{"NoteNumber":38,"Velocity":47,"Duration":79829,"SoundDuration":79829,"Delta":9533979},{"NoteNumber":49,"Velocity":48,"Duration":79449,"SoundDuration":79449,"Delta":9613809},{"NoteNumber":50,"Velocity":48,"Duration":79072,"SoundDuration":79072,"Delta":9693258},{"NoteNumber":62,"Velocity":63,"Duration":39724,"SoundDuration":39724,"Delta":9772331},{"NoteNumber":38,"Velocity":50,"Duration":80279,"SoundDuration":80279,"Delta":9851970},{"NoteNumber":49,"Velocity":50,"Duration":80797,"SoundDuration":80797,"Delta":9932249},{"NoteNumber":50,"Velocity":51,"Duration":80407,"SoundDuration":80407,"Delta":10013047},{"NoteNumber":62,"Velocity":65,"Duration":40074,"SoundDuration":40074,"Delta":10093455},{"NoteNumber":39,"Velocity":50,"Duration":79639,"SoundDuration":79639,"Delta":10173476},{"NoteNumber":50,"Velocity":52,"Duration":79323,"SoundDuration":79323,"Delta":10253115},{"NoteNumber":51,"Velocity":52,"Duration":79702,"SoundDuration":79702,"Delta":10332439},{"NoteNumber":63,"Velocity":67,"Duration":39978,"SoundDuration":39978,"Delta":10412141},{"NoteNumber":39,"Velocity":51,"Duration":80472,"SoundDuration":80472,"Delta":10492227},{"NoteNumber":50,"Velocity":53,"Duration":80808,"SoundDuration":80808,"Delta":10572700},{"NoteNumber":51,"Velocity":53,"Duration":80862,"SoundDuration":80862,"Delta":10653508},{"NoteNumber":63,"Velocity":68,"Duration":40268,"SoundDuration":40268,"Delta":10734370},{"NoteNumber":40,"Velocity":52,"Duration":80343,"SoundDuration":80343,"Delta":10814907},{"NoteNumber":51,"Velocity":53,"Duration":80213,"SoundDuration":80213,"Delta":10895251},{"NoteNumber":52,"Velocity":53,"Duration":79893,"SoundDuration":79893,"Delta":10975465},{"NoteNumber":64,"Velocity":70,"Duration":39914,"SoundDuration":39914,"Delta":11055358},{"NoteNumber":41,"Velocity":55,"Duration":79512,"SoundDuration":79512,"Delta":11135061},{"NoteNumber":52,"Velocity":56,"Duration":79260,"SoundDuration":79260,"Delta":11214573},{"NoteNumber":53,"Velocity":56,"Duration":79072,"SoundDuration":79072,"Delta":11293834},{"NoteNumber":65,"Velocity":72,"Duration":39473,"SoundDuration":39473,"Delta":11372906},{"NoteNumber":44,"Velocity":55,"Duration":78637,"SoundDuration":78637,"Delta":11451791},{"NoteNumber":55,"Velocity":57,"Duration":78390,"SoundDuration":78390,"Delta":11530428},{"NoteNumber":56,"Velocity":57,"Duration":78823,"SoundDuration":78823,"Delta":11608819},{"NoteNumber":68,"Velocity":73,"Duration":39473,"SoundDuration":39473,"Delta":11687642},{"NoteNumber":45,"Velocity":56,"Duration":78885,"SoundDuration":78885,"Delta":11766590},{"NoteNumber":56,"Velocity":58,"Duration":79116,"SoundDuration":79116,"Delta":11845475},{"NoteNumber":57,"Velocity":59,"Duration":78947,"SoundDuration":78947,"Delta":11924591},{"NoteNumber":69,"Velocity":75,"Duration":39473,"SoundDuration":39473,"Delta":12003538},{"NoteNumber":46,"Velocity":58,"Duration":78933,"SoundDuration":78933,"Delta":12082486},{"NoteNumber":57,"Velocity":58,"Duration":77827,"SoundDuration":77827,"Delta":12161419},{"NoteNumber":58,"Velocity":58,"Duration":77374,"SoundDuration":77374,"Delta":12239247},{"NoteNumber":70,"Velocity":77,"Duration":38501,"SoundDuration":38501,"Delta":12316621},{"NoteNumber":49,"Velocity":61,"Duration":78406,"SoundDuration":78406,"Delta":12393832},{"NoteNumber":60,"Velocity":61,"Duration":78164,"SoundDuration":78164,"Delta":12472239},{"NoteNumber":61,"Velocity":62,"Duration":77076,"SoundDuration":77076,"Delta":12550404},{"NoteNumber":73,"Velocity":79,"Duration":38412,"SoundDuration":38412,"Delta":12627480},{"NoteNumber":50,"Velocity":60,"Duration":77449,"SoundDuration":77449,"Delta":12704349},{"NoteNumber":61,"Velocity":63,"Duration":77797,"SoundDuration":77797,"Delta":12781799},{"NoteNumber":62,"Velocity":63,"Duration":77135,"SoundDuration":77135,"Delta":12859596},{"NoteNumber":74,"Velocity":81,"Duration":38324,"SoundDuration":38324,"Delta":12936732},{"NoteNumber":51,"Velocity":62,"Duration":76238,"SoundDuration":76238,"Delta":13013133},{"NoteNumber":62,"Velocity":64,"Duration":76958,"SoundDuration":76958,"Delta":13089372},{"NoteNumber":63,"Velocity":64,"Duration":77509,"SoundDuration":77509,"Delta":13166330},{"NoteNumber":75,"Velocity":82,"Duration":38710,"SoundDuration":38710,"Delta":13243839},{"NoteNumber":52,"Velocity":63,"Duration":77120,"SoundDuration":77120,"Delta":13321110},{"NoteNumber":63,"Velocity":65,"Duration":76839,"SoundDuration":76839,"Delta":13398231},{"NoteNumber":64,"Velocity":66,"Duration":76824,"SoundDuration":76824,"Delta":13475070},{"NoteNumber":76,"Velocity":84,"Duration":50933,"SoundDuration":50933,"Delta":13551895},{"NoteNumber":41,"Velocity":56,"Duration":82804,"SoundDuration":82804,"Delta":13751831},{"NoteNumber":53,"Velocity":56,"Duration":82804,"SoundDuration":82804,"Delta":13751831},{"NoteNumber":65,"Velocity":64,"Duration":82463,"SoundDuration":82463,"Delta":13834635},{"NoteNumber":77,"Velocity":64,"Duration":82463,"SoundDuration":82463,"Delta":13834635},{"NoteNumber":44,"Velocity":58,"Duration":82057,"SoundDuration":82057,"Delta":13917098},{"NoteNumber":56,"Velocity":58,"Duration":82057,"SoundDuration":82057,"Delta":13917098},{"NoteNumber":68,"Velocity":65,"Duration":81722,"SoundDuration":81722,"Delta":13999156},{"NoteNumber":80,"Velocity":65,"Duration":81722,"SoundDuration":81722,"Delta":13999156},{"NoteNumber":45,"Velocity":59,"Duration":81323,"SoundDuration":81323,"Delta":14080878},{"NoteNumber":57,"Velocity":59,"Duration":81323,"SoundDuration":81323,"Delta":14080878},{"NoteNumber":81,"Velocity":66,"Duration":80993,"SoundDuration":80993,"Delta":14162201},{"NoteNumber":69,"Velocity":66,"Duration":80993,"SoundDuration":80993,"Delta":14162201},{"NoteNumber":46,"Velocity":61,"Duration":80667,"SoundDuration":80667,"Delta":14243195},{"NoteNumber":58,"Velocity":61,"Duration":80667,"SoundDuration":80667,"Delta":14243195},{"NoteNumber":82,"Velocity":67,"Duration":80278,"SoundDuration":80278,"Delta":14323862},{"NoteNumber":70,"Velocity":67,"Duration":80278,"SoundDuration":80278,"Delta":14323862},{"NoteNumber":49,"Velocity":63,"Duration":79957,"SoundDuration":79957,"Delta":14404140},{"NoteNumber":61,"Velocity":63,"Duration":79957,"SoundDuration":79957,"Delta":14404140},{"NoteNumber":85,"Velocity":68,"Duration":79575,"SoundDuration":79575,"Delta":14484098},{"NoteNumber":73,"Velocity":68,"Duration":79575,"SoundDuration":79575,"Delta":14484098},{"NoteNumber":50,"Velocity":64,"Duration":79260,"SoundDuration":79260,"Delta":14563674},{"NoteNumber":62,"Velocity":64,"Duration":79260,"SoundDuration":79260,"Delta":14563674},{"NoteNumber":74,"Velocity":69,"Duration":78885,"SoundDuration":78885,"Delta":14642934},{"NoteNumber":86,"Velocity":69,"Duration":78885,"SoundDuration":78885,"Delta":14642934},{"NoteNumber":51,"Velocity":66,"Duration":78575,"SoundDuration":78575,"Delta":14721819},{"NoteNumber":63,"Velocity":66,"Duration":78575,"SoundDuration":78575,"Delta":14721819},{"NoteNumber":87,"Velocity":71,"Duration":78206,"SoundDuration":78206,"Delta":14800394},{"NoteNumber":75,"Velocity":71,"Duration":78206,"SoundDuration":78206,"Delta":14800394},{"NoteNumber":52,"Velocity":68,"Duration":77902,"SoundDuration":77902,"Delta":14878601},{"NoteNumber":64,"Velocity":68,"Duration":77902,"SoundDuration":77902,"Delta":14878601},{"NoteNumber":88,"Velocity":72,"Duration":77599,"SoundDuration":77599,"Delta":14956503},{"NoteNumber":76,"Velocity":72,"Duration":77599,"SoundDuration":77599,"Delta":14956503},{"NoteNumber":53,"Velocity":69,"Duration":77240,"SoundDuration":77240,"Delta":15034103},{"NoteNumber":65,"Velocity":69,"Duration":77240,"SoundDuration":77240,"Delta":15034103},{"NoteNumber":89,"Velocity":73,"Duration":76942,"SoundDuration":76942,"Delta":15111343},{"NoteNumber":77,"Velocity":73,"Duration":76942,"SoundDuration":76942,"Delta":15111343},{"NoteNumber":68,"Velocity":71,"Duration":76589,"SoundDuration":76589,"Delta":15188286},{"NoteNumber":56,"Velocity":71,"Duration":76589,"SoundDuration":76589,"Delta":15188286},{"NoteNumber":92,"Velocity":74,"Duration":76297,"SoundDuration":76297,"Delta":15264876},{"NoteNumber":80,"Velocity":74,"Duration":76297,"SoundDuration":76297,"Delta":15264876},{"NoteNumber":57,"Velocity":73,"Duration":75949,"SoundDuration":75949,"Delta":15341173},{"NoteNumber":69,"Velocity":73,"Duration":75949,"SoundDuration":75949,"Delta":15341173},{"NoteNumber":93,"Velocity":75,"Duration":75949,"SoundDuration":75949,"Delta":15417122},{"NoteNumber":81,"Velocity":75,"Duration":75949,"SoundDuration":75949,"Delta":15417122},{"NoteNumber":70,"Velocity":74,"Duration":75949,"SoundDuration":75949,"Delta":15493071},{"NoteNumber":58,"Velocity":74,"Duration":75949,"SoundDuration":75949,"Delta":15493071},{"NoteNumber":94,"Velocity":76,"Duration":75949,"SoundDuration":75949,"Delta":15569021},{"NoteNumber":82,"Velocity":76,"Duration":75949,"SoundDuration":75949,"Delta":15569021},{"NoteNumber":61,"Velocity":76,"Duration":75949,"SoundDuration":75949,"Delta":15644970},{"NoteNumber":73,"Velocity":76,"Duration":75949,"SoundDuration":75949,"Delta":15644970},{"NoteNumber":97,"Velocity":77,"Duration":75949,"SoundDuration":75949,"Delta":15720919},{"NoteNumber":85,"Velocity":77,"Duration":75949,"SoundDuration":75949,"Delta":15720919},{"NoteNumber":62,"Velocity":78,"Duration":75949,"SoundDuration":75949,"Delta":15796868},{"NoteNumber":74,"Velocity":78,"Duration":75949,"SoundDuration":75949,"Delta":15796868},{"NoteNumber":86,"Velocity":78,"Duration":75949,"SoundDuration":75949,"Delta":15872818},{"NoteNumber":98,"Velocity":78,"Duration":75949,"SoundDuration":75949,"Delta":15872818},{"NoteNumber":63,"Velocity":79,"Duration":75949,"SoundDuration":75949,"Delta":15948767},{"NoteNumber":75,"Velocity":79,"Duration":75949,"SoundDuration":75949,"Delta":15948767},{"NoteNumber":87,"Velocity":80,"Duration":75949,"SoundDuration":75949,"Delta":16024716},{"NoteNumber":99,"Velocity":80,"Duration":75949,"SoundDuration":75949,"Delta":16024716},{"NoteNumber":64,"Velocity":81,"Duration":75949,"SoundDuration":75949,"Delta":16100665},{"NoteNumber":76,"Velocity":81,"Duration":75949,"SoundDuration":75949,"Delta":16100665},{"NoteNumber":88,"Velocity":81,"Duration":75949,"SoundDuration":75949,"Delta":16176615},{"NoteNumber":100,"Velocity":81,"Duration":75949,"SoundDuration":75949,"Delta":16176615},{"NoteNumber":65,"Velocity":83,"Duration":75949,"SoundDuration":75949,"Delta":16252564},{"NoteNumber":77,"Velocity":83,"Duration":75949,"SoundDuration":75949,"Delta":16252564},{"NoteNumber":89,"Velocity":82,"Duration":75949,"SoundDuration":75949,"Delta":16328513},{"NoteNumber":101,"Velocity":82,"Duration":75949,"SoundDuration":75949,"Delta":16328513},{"NoteNumber":68,"Velocity":82,"Duration":199667,"SoundDuration":199667,"Delta":18238077},{"NoteNumber":56,"Velocity":69,"Duration":199667,"SoundDuration":199667,"Delta":18238077},{"NoteNumber":59,"Velocity":69,"Duration":199667,"SoundDuration":199667,"Delta":18238077},{"NoteNumber":62,"Velocity":69,"Duration":199667,"SoundDuration":199667,"Delta":18238077},{"NoteNumber":53,"Velocity":65,"Duration":199667,"SoundDuration":199667,"Delta":18238077},{"NoteNumber":41,"Velocity":55,"Duration":199667,"SoundDuration":199667,"Delta":18238077},{"NoteNumber":47,"Velocity":55,"Duration":199667,"SoundDuration":199667,"Delta":18238077},{"NoteNumber":50,"Velocity":55,"Duration":199667,"SoundDuration":199667,"Delta":18238077},{"NoteNumber":69,"Velocity":90,"Duration":197693,"SoundDuration":197693,"Delta":18637411},{"NoteNumber":57,"Velocity":76,"Duration":197693,"SoundDuration":197693,"Delta":18637411},{"NoteNumber":60,"Velocity":76,"Duration":197693,"SoundDuration":197693,"Delta":18637411},{"NoteNumber":51,"Velocity":70,"Duration":197693,"SoundDuration":197693,"Delta":18637411},{"NoteNumber":39,"Velocity":59,"Duration":197693,"SoundDuration":197693,"Delta":18637411},{"NoteNumber":45,"Velocity":59,"Duration":197693,"SoundDuration":197693,"Delta":18637411},{"NoteNumber":48,"Velocity":59,"Duration":197693,"SoundDuration":197693,"Delta":18637411},{"NoteNumber":68,"Velocity":83,"Duration":96000,"SoundDuration":96000,"Delta":19032798},{"NoteNumber":56,"Velocity":70,"Duration":96000,"SoundDuration":96000,"Delta":19032798},{"NoteNumber":71,"Velocity":76,"Duration":100840,"SoundDuration":100840,"Delta":19224798},{"NoteNumber":59,"Velocity":64,"Duration":100840,"SoundDuration":100840,"Delta":19224798},{"NoteNumber":69,"Velocity":84,"Duration":195758,"SoundDuration":195758,"Delta":19426479},{"NoteNumber":57,"Velocity":71,"Duration":195758,"SoundDuration":195758,"Delta":19426479},{"NoteNumber":61,"Velocity":71,"Duration":195758,"SoundDuration":195758,"Delta":19426479},{"NoteNumber":49,"Velocity":69,"Duration":195758,"SoundDuration":195758,"Delta":19426479},{"NoteNumber":37,"Velocity":58,"Duration":195758,"SoundDuration":195758,"Delta":19426479},{"NoteNumber":42,"Velocity":58,"Duration":195758,"SoundDuration":195758,"Delta":19426479},{"NoteNumber":45,"Velocity":58,"Duration":195758,"SoundDuration":195758,"Delta":19426479},{"NoteNumber":68,"Velocity":81,"Duration":192000,"SoundDuration":192000,"Delta":19817996},{"NoteNumber":56,"Velocity":68,"Duration":192000,"SoundDuration":192000,"Delta":19817996},{"NoteNumber":71,"Velocity":75,"Duration":101351,"SoundDuration":101351,"Delta":20009996},{"NoteNumber":59,"Velocity":63,"Duration":101351,"SoundDuration":101351,"Delta":20009996},{"NoteNumber":63,"Velocity":71,"Duration":99833,"SoundDuration":99833,"Delta":20212698},{"NoteNumber":69,"Velocity":84,"Duration":99833,"SoundDuration":99833,"Delta":20212698},{"NoteNumber":57,"Velocity":71,"Duration":99833,"SoundDuration":99833,"Delta":20212698},{"NoteNumber":48,"Velocity":69,"Duration":99833,"SoundDuration":99833,"Delta":20212698},{"NoteNumber":36,"Velocity":58,"Duration":99833,"SoundDuration":99833,"Delta":20212698},{"NoteNumber":42,"Velocity":58,"Duration":99833,"SoundDuration":99833,"Delta":20212698},{"NoteNumber":45,"Velocity":58,"Duration":99833,"SoundDuration":99833,"Delta":20212698},{"NoteNumber":68,"Velocity":75,"Duration":99337,"SoundDuration":99337,"Delta":20612032},{"NoteNumber":56,"Velocity":63,"Duration":99337,"SoundDuration":99337,"Delta":20612032},{"NoteNumber":63,"Velocity":70,"Duration":779219,"SoundDuration":779219,"Delta":21009383},{"NoteNumber":69,"Velocity":83,"Duration":779219,"SoundDuration":779219,"Delta":21009383},{"NoteNumber":57,"Velocity":70,"Duration":779219,"SoundDuration":779219,"Delta":21009383},{"NoteNumber":42,"Velocity":69,"Duration":194804,"SoundDuration":194804,"Delta":21009383},{"NoteNumber":47,"Velocity":69,"Duration":194804,"SoundDuration":194804,"Delta":21009383},{"NoteNumber":35,"Velocity":58,"Duration":194804,"SoundDuration":194804,"Delta":21009383},{"NoteNumber":39,"Velocity":58,"Duration":194804,"SoundDuration":194804,"Delta":21009383},{"NoteNumber":66,"Velocity":70,"Duration":194805,"SoundDuration":194805,"Delta":21788603},{"NoteNumber":69,"Velocity":70,"Duration":194805,"SoundDuration":194805,"Delta":21788603},{"NoteNumber":57,"Velocity":59,"Duration":194805,"SoundDuration":194805,"Delta":21788603},{"NoteNumber":61,"Velocity":59,"Duration":194805,"SoundDuration":194805,"Delta":21788603},{"NoteNumber":45,"Velocity":59,"Duration":194805,"SoundDuration":194805,"Delta":21788603},{"NoteNumber":33,"Velocity":50,"Duration":194805,"SoundDuration":194805,"Delta":21788603},{"NoteNumber":37,"Velocity":50,"Duration":194805,"SoundDuration":194805,"Delta":21788603},{"NoteNumber":42,"Velocity":50,"Duration":194805,"SoundDuration":194805,"Delta":21788603},{"NoteNumber":68,"Velocity":65,"Duration":189274,"SoundDuration":189274,"Delta":21983408},{"NoteNumber":56,"Velocity":55,"Duration":189274,"SoundDuration":189274,"Delta":21983408},{"NoteNumber":69,"Velocity":71,"Duration":187500,"SoundDuration":187500,"Delta":22172683},{"NoteNumber":57,"Velocity":60,"Duration":187500,"SoundDuration":187500,"Delta":22172683},{"NoteNumber":71,"Velocity":77,"Duration":204778,"SoundDuration":204778,"Delta":22360183},{"NoteNumber":59,"Velocity":65,"Duration":204778,"SoundDuration":204778,"Delta":22360183},{"NoteNumber":72,"Velocity":81,"Duration":819112,"SoundDuration":819112,"Delta":22564961},{"NoteNumber":60,"Velocity":68,"Duration":819112,"SoundDuration":819112,"Delta":22564961},{"NoteNumber":63,"Velocity":68,"Duration":819112,"SoundDuration":819112,"Delta":22564961},{"NoteNumber":66,"Velocity":68,"Duration":819112,"SoundDuration":819112,"Delta":22564961},{"NoteNumber":44,"Velocity":64,"Duration":204777,"SoundDuration":204777,"Delta":22564961},{"NoteNumber":32,"Velocity":54,"Duration":204777,"SoundDuration":204777,"Delta":22564961},{"NoteNumber":36,"Velocity":54,"Duration":204777,"SoundDuration":204777,"Delta":22564961},{"NoteNumber":39,"Velocity":54,"Duration":204777,"SoundDuration":204777,"Delta":22564961},{"NoteNumber":72,"Velocity":75,"Duration":193860,"SoundDuration":193860,"Delta":23384073},{"NoteNumber":60,"Velocity":63,"Duration":193860,"SoundDuration":193860,"Delta":23384073},{"NoteNumber":63,"Velocity":63,"Duration":193860,"SoundDuration":193860,"Delta":23384073},{"NoteNumber":43,"Velocity":62,"Duration":193860,"SoundDuration":193860,"Delta":23384073},{"NoteNumber":31,"Velocity":52,"Duration":193860,"SoundDuration":193860,"Delta":23384073},{"NoteNumber":36,"Velocity":52,"Duration":193860,"SoundDuration":193860,"Delta":23384073},{"NoteNumber":39,"Velocity":52,"Duration":193860,"SoundDuration":193860,"Delta":23384073},{"NoteNumber":71,"Velocity":72,"Duration":189274,"SoundDuration":189274,"Delta":23577934},{"NoteNumber":59,"Velocity":61,"Duration":189274,"SoundDuration":189274,"Delta":23577934},{"NoteNumber":69,"Velocity":73,"Duration":196721,"SoundDuration":196721,"Delta":23767208},{"NoteNumber":57,"Velocity":62,"Duration":196721,"SoundDuration":196721,"Delta":23767208},{"NoteNumber":68,"Velocity":75,"Duration":203734,"SoundDuration":203734,"Delta":23963930},{"NoteNumber":56,"Velocity":63,"Duration":203734,"SoundDuration":203734,"Delta":23963930},{"NoteNumber":69,"Velocity":83,"Duration":611205,"SoundDuration":611205,"Delta":24167665},{"NoteNumber":63,"Velocity":70,"Duration":611205,"SoundDuration":611205,"Delta":24167665},{"NoteNumber":57,"Velocity":70,"Duration":611205,"SoundDuration":611205,"Delta":24167665},{"NoteNumber":42,"Velocity":66,"Duration":611205,"SoundDuration":611205,"Delta":24167665},{"NoteNumber":30,"Velocity":55,"Duration":611205,"SoundDuration":611205,"Delta":24167665},{"NoteNumber":36,"Velocity":55,"Duration":611205,"SoundDuration":611205,"Delta":24167665},{"NoteNumber":39,"Velocity":55,"Duration":611205,"SoundDuration":611205,"Delta":24167665},{"NoteNumber":72,"Velocity":71,"Duration":97402,"SoundDuration":97402,"Delta":24778870},{"NoteNumber":60,"Velocity":59,"Duration":97402,"SoundDuration":97402,"Delta":24778870},{"NoteNumber":48,"Velocity":51,"Duration":97402,"SoundDuration":97402,"Delta":24778870},{"NoteNumber":36,"Velocity":46,"Duration":97402,"SoundDuration":97402,"Delta":24778870},{"NoteNumber":71,"Velocity":85,"Duration":183205,"SoundDuration":183205,"Delta":24973675},{"NoteNumber":59,"Velocity":71,"Duration":183205,"SoundDuration":183205,"Delta":24973675},{"NoteNumber":47,"Velocity":58,"Duration":183205,"SoundDuration":183205,"Delta":24973675},{"NoteNumber":35,"Velocity":48,"Duration":183205,"SoundDuration":183205,"Delta":24973675},{"NoteNumber":69,"Velocity":71,"Duration":146564,"SoundDuration":146564,"Delta":25156881},{"NoteNumber":57,"Velocity":59,"Duration":146564,"SoundDuration":146564,"Delta":25156881},{"NoteNumber":45,"Velocity":49,"Duration":146564,"SoundDuration":146564,"Delta":25156881},{"NoteNumber":33,"Velocity":40,"Duration":146564,"SoundDuration":146564,"Delta":25156881},{"NoteNumber":67,"Velocity":71,"Duration":92449,"SoundDuration":92449,"Delta":25340087},{"NoteNumber":55,"Velocity":59,"Duration":92449,"SoundDuration":92449,"Delta":25340087},{"NoteNumber":43,"Velocity":49,"Duration":92449,"SoundDuration":92449,"Delta":25340087},{"NoteNumber":31,"Velocity":40,"Duration":92449,"SoundDuration":92449,"Delta":25340087},{"NoteNumber":71,"Velocity":71,"Duration":96462,"SoundDuration":96462,"Delta":25524987},{"NoteNumber":59,"Velocity":59,"Duration":96462,"SoundDuration":96462,"Delta":25524987},{"NoteNumber":47,"Velocity":49,"Duration":96462,"SoundDuration":96462,"Delta":25524987},{"NoteNumber":35,"Velocity":40,"Duration":96462,"SoundDuration":96462,"Delta":25524987},{"NoteNumber":69,"Velocity":85,"Duration":183205,"SoundDuration":183205,"Delta":25717913},{"NoteNumber":57,"Velocity":71,"Duration":183205,"SoundDuration":183205,"Delta":25717913},{"NoteNumber":45,"Velocity":58,"Duration":183205,"SoundDuration":183205,"Delta":25717913},{"NoteNumber":33,"Velocity":48,"Duration":183205,"SoundDuration":183205,"Delta":25717913},{"NoteNumber":67,"Velocity":72,"Duration":146564,"SoundDuration":146564,"Delta":25901119},{"NoteNumber":55,"Velocity":60,"Duration":146564,"SoundDuration":146564,"Delta":25901119},{"NoteNumber":43,"Velocity":50,"Duration":146564,"SoundDuration":146564,"Delta":25901119},{"NoteNumber":31,"Velocity":42,"Duration":146564,"SoundDuration":146564,"Delta":25901119},{"NoteNumber":65,"Velocity":72,"Duration":92879,"SoundDuration":92879,"Delta":26084325},{"NoteNumber":53,"Velocity":60,"Duration":92879,"SoundDuration":92879,"Delta":26084325},{"NoteNumber":41,"Velocity":50,"Duration":92879,"SoundDuration":92879,"Delta":26084325},{"NoteNumber":29,"Velocity":42,"Duration":92879,"SoundDuration":92879,"Delta":26084325},{"NoteNumber":69,"Velocity":73,"Duration":96000,"SoundDuration":96000,"Delta":26270083},{"NoteNumber":57,"Velocity":61,"Duration":96000,"SoundDuration":96000,"Delta":26270083},{"NoteNumber":45,"Velocity":50,"Duration":96000,"SoundDuration":96000,"Delta":26270083},{"NoteNumber":33,"Velocity":42,"Duration":96000,"SoundDuration":96000,"Delta":26270083},{"NoteNumber":67,"Velocity":89,"Duration":181543,"SoundDuration":181543,"Delta":26462083},{"NoteNumber":55,"Velocity":75,"Duration":181543,"SoundDuration":181543,"Delta":26462083},{"NoteNumber":43,"Velocity":60,"Duration":181543,"SoundDuration":181543,"Delta":26462083},{"NoteNumber":31,"Velocity":52,"Duration":181543,"SoundDuration":181543,"Delta":26462083},{"NoteNumber":65,"Velocity":73,"Duration":145234,"SoundDuration":145234,"Delta":26643626},{"NoteNumber":53,"Velocity":61,"Duration":145234,"SoundDuration":145234,"Delta":26643626},{"NoteNumber":41,"Velocity":50,"Duration":145234,"SoundDuration":145234,"Delta":26643626},{"NoteNumber":29,"Velocity":42,"Duration":145234,"SoundDuration":145234,"Delta":26643626},{"NoteNumber":64,"Velocity":73,"Duration":91602,"SoundDuration":91602,"Delta":26825169},{"NoteNumber":52,"Velocity":61,"Duration":91602,"SoundDuration":91602,"Delta":26825169},{"NoteNumber":40,"Velocity":50,"Duration":91602,"SoundDuration":91602,"Delta":26825169},{"NoteNumber":28,"Velocity":42,"Duration":91602,"SoundDuration":91602,"Delta":26825169},{"NoteNumber":67,"Velocity":73,"Duration":96000,"SoundDuration":96000,"Delta":27008375},{"NoteNumber":55,"Velocity":61,"Duration":96000,"SoundDuration":96000,"Delta":27008375},{"NoteNumber":43,"Velocity":50,"Duration":96000,"SoundDuration":96000,"Delta":27008375},{"NoteNumber":31,"Velocity":42,"Duration":96000,"SoundDuration":96000,"Delta":27008375},{"NoteNumber":65,"Velocity":90,"Duration":181543,"SoundDuration":181543,"Delta":27200375},{"NoteNumber":53,"Velocity":76,"Duration":181543,"SoundDuration":181543,"Delta":27200375},{"NoteNumber":41,"Velocity":63,"Duration":181543,"SoundDuration":181543,"Delta":27200375},{"NoteNumber":29,"Velocity":52,"Duration":181543,"SoundDuration":181543,"Delta":27200375},{"NoteNumber":64,"Velocity":73,"Duration":145234,"SoundDuration":145234,"Delta":27381918},{"NoteNumber":52,"Velocity":61,"Duration":145234,"SoundDuration":145234,"Delta":27381918},{"NoteNumber":40,"Velocity":50,"Duration":145234,"SoundDuration":145234,"Delta":27381918},{"NoteNumber":28,"Velocity":42,"Duration":145234,"SoundDuration":145234,"Delta":27381918},{"NoteNumber":63,"Velocity":73,"Duration":92449,"SoundDuration":92449,"Delta":27563461},{"NoteNumber":51,"Velocity":61,"Duration":92449,"SoundDuration":92449,"Delta":27563461},{"NoteNumber":39,"Velocity":50,"Duration":92449,"SoundDuration":92449,"Delta":27563461},{"NoteNumber":27,"Velocity":42,"Duration":92449,"SoundDuration":92449,"Delta":27563461},{"NoteNumber":65,"Velocity":73,"Duration":96000,"SoundDuration":96000,"Delta":27748361},{"NoteNumber":53,"Velocity":61,"Duration":96000,"SoundDuration":96000,"Delta":27748361},{"NoteNumber":41,"Velocity":50,"Duration":96000,"SoundDuration":96000,"Delta":27748361},{"NoteNumber":29,"Velocity":42,"Duration":96000,"SoundDuration":96000,"Delta":27748361},{"NoteNumber":65,"Velocity":89,"Duration":186624,"SoundDuration":186624,"Delta":27940361},{"NoteNumber":53,"Velocity":75,"Duration":186624,"SoundDuration":186624,"Delta":27940361},{"NoteNumber":41,"Velocity":60,"Duration":186624,"SoundDuration":186624,"Delta":27940361},{"NoteNumber":29,"Velocity":52,"Duration":186624,"SoundDuration":186624,"Delta":27940361},{"NoteNumber":64,"Velocity":73,"Duration":149300,"SoundDuration":149300,"Delta":28126986},{"NoteNumber":52,"Velocity":61,"Duration":149300,"SoundDuration":149300,"Delta":28126986},{"NoteNumber":40,"Velocity":50,"Duration":149300,"SoundDuration":149300,"Delta":28126986},{"NoteNumber":28,"Velocity":42,"Duration":149300,"SoundDuration":149300,"Delta":28126986},{"NoteNumber":64,"Velocity":73,"Duration":94637,"SoundDuration":94637,"Delta":28313611},{"NoteNumber":52,"Velocity":61,"Duration":94637,"SoundDuration":94637,"Delta":28313611},{"NoteNumber":40,"Velocity":50,"Duration":94637,"SoundDuration":94637,"Delta":28313611},{"NoteNumber":28,"Velocity":42,"Duration":94637,"SoundDuration":94637,"Delta":28313611},{"NoteNumber":63,"Velocity":73,"Duration":100840,"SoundDuration":100840,"Delta":28502886},{"NoteNumber":51,"Velocity":61,"Duration":100840,"SoundDuration":100840,"Delta":28502886},{"NoteNumber":39,"Velocity":50,"Duration":100840,"SoundDuration":100840,"Delta":28502886},{"NoteNumber":27,"Velocity":42,"Duration":100840,"SoundDuration":100840,"Delta":28502886},{"NoteNumber":65,"Velocity":92,"Duration":192925,"SoundDuration":192925,"Delta":28704566},{"NoteNumber":53,"Velocity":77,"Duration":192925,"SoundDuration":192925,"Delta":28704566},{"NoteNumber":41,"Velocity":64,"Duration":192925,"SoundDuration":192925,"Delta":28704566},{"NoteNumber":29,"Velocity":53,"Duration":192925,"SoundDuration":192925,"Delta":28704566},{"NoteNumber":64,"Velocity":73,"Duration":154340,"SoundDuration":154340,"Delta":28897492},{"NoteNumber":52,"Velocity":61,"Duration":154340,"SoundDuration":154340,"Delta":28897492},{"NoteNumber":40,"Velocity":50,"Duration":154340,"SoundDuration":154340,"Delta":28897492},{"NoteNumber":28,"Velocity":42,"Duration":154340,"SoundDuration":154340,"Delta":28897492},{"NoteNumber":64,"Velocity":73,"Duration":96462,"SoundDuration":96462,"Delta":29090418},{"NoteNumber":52,"Velocity":61,"Duration":96462,"SoundDuration":96462,"Delta":29090418},{"NoteNumber":40,"Velocity":50,"Duration":96462,"SoundDuration":96462,"Delta":29090418},{"NoteNumber":28,"Velocity":42,"Duration":96462,"SoundDuration":96462,"Delta":29090418},{"NoteNumber":63,"Velocity":73,"Duration":105078,"SoundDuration":105078,"Delta":29283344},{"NoteNumber":51,"Velocity":61,"Duration":105078,"SoundDuration":105078,"Delta":29283344},{"NoteNumber":39,"Velocity":50,"Duration":105078,"SoundDuration":105078,"Delta":29283344},{"NoteNumber":27,"Velocity":42,"Duration":105078,"SoundDuration":105078,"Delta":29283344},{"NoteNumber":64,"Velocity":89,"Duration":775444,"SoundDuration":775444,"Delta":29493502},{"NoteNumber":52,"Velocity":75,"Duration":775444,"SoundDuration":775444,"Delta":29493502},{"NoteNumber":40,"Velocity":61,"Duration":775444,"SoundDuration":775444,"Delta":29493502},{"NoteNumber":28,"Velocity":52,"Duration":775444,"SoundDuration":775444,"Delta":29493502},{"NoteNumber":76,"Velocity":86,"Duration":193860,"SoundDuration":193860,"Delta":30268946},{"NoteNumber":71,"Velocity":72,"Duration":193860,"SoundDuration":193860,"Delta":30268946},{"NoteNumber":68,"Velocity":72,"Duration":193860,"SoundDuration":193860,"Delta":30268946},{"NoteNumber":64,"Velocity":72,"Duration":193860,"SoundDuration":193860,"Delta":30268946},{"NoteNumber":52,"Velocity":59,"Duration":193860,"SoundDuration":193860,"Delta":30268946},{"NoteNumber":47,"Velocity":50,"Duration":193860,"SoundDuration":193860,"Delta":30268946},{"NoteNumber":44,"Velocity":50,"Duration":193860,"SoundDuration":193860,"Delta":30268946},{"NoteNumber":40,"Velocity":50,"Duration":193860,"SoundDuration":193860,"Delta":30268946},{"NoteNumber":76,"Velocity":78,"Duration":129240,"SoundDuration":129240,"Delta":30656668},{"NoteNumber":52,"Velocity":70,"Duration":129240,"SoundDuration":129240,"Delta":30656668},{"NoteNumber":78,"Velocity":81,"Duration":129240,"SoundDuration":129240,"Delta":30785909},{"NoteNumber":54,"Velocity":74,"Duration":129240,"SoundDuration":129240,"Delta":30785909},{"NoteNumber":80,"Velocity":84,"Duration":129240,"SoundDuration":129240,"Delta":30915149},{"NoteNumber":56,"Velocity":78,"Duration":129240,"SoundDuration":129240,"Delta":30915149},{"NoteNumber":81,"Velocity":94,"Duration":191082,"SoundDuration":191082,"Delta":31044390},{"NoteNumber":69,"Velocity":79,"Duration":191082,"SoundDuration":191082,"Delta":31044390},{"NoteNumber":57,"Velocity":73,"Duration":191082,"SoundDuration":191082,"Delta":31044390},{"NoteNumber":45,"Velocity":61,"Duration":191082,"SoundDuration":191082,"Delta":31044390},{"NoteNumber":71,"Velocity":66,"Duration":92879,"SoundDuration":92879,"Delta":31426556},{"NoteNumber":80,"Velocity":77,"Duration":92879,"SoundDuration":92879,"Delta":31426556},{"NoteNumber":68,"Velocity":66,"Duration":92879,"SoundDuration":92879,"Delta":31426556},{"NoteNumber":53,"Velocity":58,"Duration":92879,"SoundDuration":92879,"Delta":31426556},{"NoteNumber":41,"Velocity":49,"Duration":92879,"SoundDuration":92879,"Delta":31426556},{"NoteNumber":74,"Velocity":59,"Duration":97879,"SoundDuration":97879,"Delta":31612314},{"NoteNumber":83,"Velocity":71,"Duration":97879,"SoundDuration":97879,"Delta":31612314},{"NoteNumber":71,"Velocity":59,"Duration":97879,"SoundDuration":97879,"Delta":31612314},{"NoteNumber":81,"Velocity":88,"Duration":191082,"SoundDuration":191082,"Delta":31808073},{"NoteNumber":69,"Velocity":74,"Duration":191082,"SoundDuration":191082,"Delta":31808073},{"NoteNumber":72,"Velocity":74,"Duration":191082,"SoundDuration":191082,"Delta":31808073},{"NoteNumber":57,"Velocity":73,"Duration":191082,"SoundDuration":191082,"Delta":31808073},{"NoteNumber":45,"Velocity":61,"Duration":191082,"SoundDuration":191082,"Delta":31808073},{"NoteNumber":71,"Velocity":64,"Duration":92449,"SoundDuration":92449,"Delta":32190239},{"NoteNumber":80,"Velocity":75,"Duration":92449,"SoundDuration":92449,"Delta":32190239},{"NoteNumber":68,"Velocity":64,"Duration":92449,"SoundDuration":92449,"Delta":32190239},{"NoteNumber":52,"Velocity":58,"Duration":92449,"SoundDuration":92449,"Delta":32190239},{"NoteNumber":40,"Velocity":49,"Duration":92449,"SoundDuration":92449,"Delta":32190239},{"NoteNumber":74,"Velocity":58,"Duration":98846,"SoundDuration":98846,"Delta":32375139},{"NoteNumber":83,"Velocity":70,"Duration":98846,"SoundDuration":98846,"Delta":32375139},{"NoteNumber":71,"Velocity":58,"Duration":98846,"SoundDuration":98846,"Delta":32375139},{"NoteNumber":72,"Velocity":74,"Duration":101351,"SoundDuration":101351,"Delta":32572832},{"NoteNumber":81,"Velocity":88,"Duration":101351,"SoundDuration":101351,"Delta":32572832},{"NoteNumber":69,"Velocity":74,"Duration":101351,"SoundDuration":101351,"Delta":32572832},{"NoteNumber":57,"Velocity":73,"Duration":101351,"SoundDuration":101351,"Delta":32572832},{"NoteNumber":45,"Velocity":61,"Duration":101351,"SoundDuration":101351,"Delta":32572832},{"NoteNumber":71,"Velocity":60,"Duration":98360,"SoundDuration":98360,"Delta":32976704},{"NoteNumber":80,"Velocity":73,"Duration":98360,"SoundDuration":98360,"Delta":32976704},{"NoteNumber":68,"Velocity":60,"Duration":98360,"SoundDuration":98360,"Delta":32976704},{"NoteNumber":50,"Velocity":60,"Duration":98360,"SoundDuration":98360,"Delta":32976704},{"NoteNumber":38,"Velocity":51,"Duration":98360,"SoundDuration":98360,"Delta":32976704},{"NoteNumber":41,"Velocity":51,"Duration":98360,"SoundDuration":98360,"Delta":32976704},{"NoteNumber":72,"Velocity":73,"Duration":779220,"SoundDuration":779220,"Delta":33370147},{"NoteNumber":81,"Velocity":87,"Duration":779220,"SoundDuration":779220,"Delta":33370147},{"NoteNumber":69,"Velocity":73,"Duration":779220,"SoundDuration":779220,"Delta":33370147},{"NoteNumber":57,"Velocity":73,"Duration":779220,"SoundDuration":779220,"Delta":33370147},{"NoteNumber":45,"Velocity":61,"Duration":779220,"SoundDuration":779220,"Delta":33370147},{"NoteNumber":52,"Velocity":61,"Duration":779220,"SoundDuration":779220,"Delta":33370147},{"NoteNumber":36,"Velocity":55,"Duration":48701,"SoundDuration":48701,"Delta":34051965},{"NoteNumber":48,"Velocity":65,"Duration":48701,"SoundDuration":48701,"Delta":34100666},{"NoteNumber":89,"Velocity":70,"Duration":191082,"SoundDuration":191082,"Delta":34149367},{"NoteNumber":93,"Velocity":70,"Duration":191082,"SoundDuration":191082,"Delta":34149367},{"NoteNumber":81,"Velocity":59,"Duration":191082,"SoundDuration":191082,"Delta":34149367},{"NoteNumber":84,"Velocity":59,"Duration":191082,"SoundDuration":191082,"Delta":34149367},{"NoteNumber":69,"Velocity":65,"Duration":662465,"SoundDuration":662465,"Delta":34149367},{"NoteNumber":57,"Velocity":55,"Duration":662465,"SoundDuration":662465,"Delta":34149367},{"NoteNumber":60,"Velocity":55,"Duration":662465,"SoundDuration":662465,"Delta":34149367},{"NoteNumber":65,"Velocity":55,"Duration":662465,"SoundDuration":662465,"Delta":34149367},{"NoteNumber":92,"Velocity":65,"Duration":187500,"SoundDuration":187500,"Delta":34340450},{"NoteNumber":80,"Velocity":55,"Duration":187500,"SoundDuration":187500,"Delta":34340450},{"NoteNumber":93,"Velocity":72,"Duration":184049,"SoundDuration":184049,"Delta":34527950},{"NoteNumber":81,"Velocity":60,"Duration":184049,"SoundDuration":184049,"Delta":34527950},{"NoteNumber":95,"Velocity":77,"Duration":199666,"SoundDuration":199666,"Delta":34711999},{"NoteNumber":83,"Velocity":65,"Duration":199666,"SoundDuration":199666,"Delta":34711999},{"NoteNumber":36,"Velocity":60,"Duration":49916,"SoundDuration":49916,"Delta":34811833},{"NoteNumber":48,"Velocity":61,"Duration":49916,"SoundDuration":49916,"Delta":34861750},{"NoteNumber":96,"Velocity":82,"Duration":798667,"SoundDuration":798667,"Delta":34911666},{"NoteNumber":84,"Velocity":69,"Duration":798667,"SoundDuration":798667,"Delta":34911666},{"NoteNumber":88,"Velocity":69,"Duration":798667,"SoundDuration":798667,"Delta":34911666},{"NoteNumber":72,"Velocity":75,"Duration":698834,"SoundDuration":698834,"Delta":34911666},{"NoteNumber":60,"Velocity":63,"Duration":698834,"SoundDuration":698834,"Delta":34911666},{"NoteNumber":64,"Velocity":63,"Duration":698834,"SoundDuration":698834,"Delta":34911666},{"NoteNumber":67,"Velocity":63,"Duration":698834,"SoundDuration":698834,"Delta":34911666},{"NoteNumber":33,"Velocity":58,"Duration":49916,"SoundDuration":49916,"Delta":35610501},{"NoteNumber":45,"Velocity":58,"Duration":49916,"SoundDuration":49916,"Delta":35660418},{"NoteNumber":96,"Velocity":75,"Duration":191082,"SoundDuration":191082,"Delta":35710334},{"NoteNumber":84,"Velocity":63,"Duration":191082,"SoundDuration":191082,"Delta":35710334},{"NoteNumber":89,"Velocity":63,"Duration":191082,"SoundDuration":191082,"Delta":35710334},{"NoteNumber":65,"Velocity":62,"Duration":666122,"SoundDuration":666122,"Delta":35710334},{"NoteNumber":53,"Velocity":52,"Duration":666122,"SoundDuration":666122,"Delta":35710334},{"NoteNumber":62,"Velocity":52,"Duration":666122,"SoundDuration":666122,"Delta":35710334},{"NoteNumber":57,"Velocity":52,"Duration":666122,"SoundDuration":666122,"Delta":35710334},{"NoteNumber":95,"Velocity":72,"Duration":183205,"SoundDuration":183205,"Delta":35901417},{"NoteNumber":83,"Velocity":61,"Duration":183205,"SoundDuration":183205,"Delta":35901417},{"NoteNumber":93,"Velocity":74,"Duration":192000,"SoundDuration":192000,"Delta":36084623},{"NoteNumber":81,"Velocity":63,"Duration":192000,"SoundDuration":192000,"Delta":36084623},{"NoteNumber":92,"Velocity":75,"Duration":199666,"SoundDuration":199666,"Delta":36276623},{"NoteNumber":80,"Velocity":64,"Duration":199666,"SoundDuration":199666,"Delta":36276623},{"NoteNumber":33,"Velocity":60,"Duration":49916,"SoundDuration":49916,"Delta":36376457},{"NoteNumber":45,"Velocity":61,"Duration":49916,"SoundDuration":49916,"Delta":36426374},{"NoteNumber":84,"Velocity":71,"Duration":599001,"SoundDuration":599001,"Delta":36476290},{"NoteNumber":93,"Velocity":84,"Duration":599001,"SoundDuration":599001,"Delta":36476290},{"NoteNumber":88,"Velocity":71,"Duration":599001,"SoundDuration":599001,"Delta":36476290},{"NoteNumber":81,"Velocity":71,"Duration":599001,"SoundDuration":599001,"Delta":36476290},{"NoteNumber":69,"Velocity":68,"Duration":790084,"SoundDuration":790084,"Delta":36476290},{"NoteNumber":57,"Velocity":57,"Duration":790084,"SoundDuration":790084,"Delta":36476290},{"NoteNumber":60,"Velocity":57,"Duration":790084,"SoundDuration":790084,"Delta":36476290},{"NoteNumber":64,"Velocity":57,"Duration":790084,"SoundDuration":790084,"Delta":36476290},{"NoteNumber":96,"Velocity":71,"Duration":191082,"SoundDuration":191082,"Delta":37075291},{"NoteNumber":84,"Velocity":59,"Duration":191082,"SoundDuration":191082,"Delta":37075291},{"NoteNumber":95,"Velocity":77,"Duration":185758,"SoundDuration":185758,"Delta":37266374},{"NoteNumber":83,"Velocity":65,"Duration":185758,"SoundDuration":185758,"Delta":37266374},{"NoteNumber":47,"Velocity":69,"Duration":185758,"SoundDuration":185758,"Delta":37266374},{"NoteNumber":35,"Velocity":58,"Duration":185758,"SoundDuration":185758,"Delta":37266374},{"NoteNumber":93,"Velocity":71,"Duration":144578,"SoundDuration":144578,"Delta":37452133},{"NoteNumber":81,"Velocity":59,"Duration":144578,"SoundDuration":144578,"Delta":37452133},{"NoteNumber":92,"Velocity":71,"Duration":87591,"SoundDuration":87591,"Delta":37632856},{"NoteNumber":80,"Velocity":59,"Duration":87591,"SoundDuration":87591,"Delta":37632856},{"NoteNumber":68,"Velocity":59,"Duration":87591,"SoundDuration":87591,"Delta":37632856},{"NoteNumber":59,"Velocity":50,"Duration":87591,"SoundDuration":87591,"Delta":37632856},{"NoteNumber":64,"Velocity":50,"Duration":87591,"SoundDuration":87591,"Delta":37632856},{"NoteNumber":95,"Velocity":71,"Duration":92449,"SoundDuration":92449,"Delta":37808038},{"NoteNumber":83,"Velocity":59,"Duration":92449,"SoundDuration":92449,"Delta":37808038},{"NoteNumber":93,"Velocity":77,"Duration":185758,"SoundDuration":185758,"Delta":37992938},{"NoteNumber":81,"Velocity":65,"Duration":185758,"SoundDuration":185758,"Delta":37992938},{"NoteNumber":47,"Velocity":66,"Duration":185758,"SoundDuration":185758,"Delta":37992938},{"NoteNumber":85,"Velocity":72,"Duration":142644,"SoundDuration":142644,"Delta":38178697},{"NoteNumber":73,"Velocity":60,"Duration":142644,"SoundDuration":142644,"Delta":38178697},{"NoteNumber":90,"Velocity":72,"Duration":86830,"SoundDuration":86830,"Delta":38357003},{"NoteNumber":78,"Velocity":60,"Duration":86830,"SoundDuration":86830,"Delta":38357003},{"NoteNumber":69,"Velocity":61,"Duration":86830,"SoundDuration":86830,"Delta":38357003},{"NoteNumber":66,"Velocity":52,"Duration":86830,"SoundDuration":86830,"Delta":38357003},{"NoteNumber":61,"Velocity":52,"Duration":86830,"SoundDuration":86830,"Delta":38357003},{"NoteNumber":93,"Velocity":73,"Duration":92449,"SoundDuration":92449,"Delta":38530664},{"NoteNumber":81,"Velocity":61,"Duration":92449,"SoundDuration":92449,"Delta":38530664},{"NoteNumber":92,"Velocity":81,"Duration":179104,"SoundDuration":179104,"Delta":38715564},{"NoteNumber":80,"Velocity":69,"Duration":179104,"SoundDuration":179104,"Delta":38715564},{"NoteNumber":47,"Velocity":66,"Duration":179104,"SoundDuration":179104,"Delta":38715564},{"NoteNumber":90,"Velocity":73,"Duration":143283,"SoundDuration":143283,"Delta":38894669},{"NoteNumber":78,"Velocity":61,"Duration":143283,"SoundDuration":143283,"Delta":38894669},{"NoteNumber":88,"Velocity":73,"Duration":87976,"SoundDuration":87976,"Delta":39073773},{"NoteNumber":76,"Velocity":61,"Duration":87976,"SoundDuration":87976,"Delta":39073773},{"NoteNumber":68,"Velocity":58,"Duration":87976,"SoundDuration":87976,"Delta":39073773},{"NoteNumber":64,"Velocity":49,"Duration":87976,"SoundDuration":87976,"Delta":39073773},{"NoteNumber":59,"Velocity":49,"Duration":87976,"SoundDuration":87976,"Delta":39073773},{"NoteNumber":92,"Velocity":73,"Duration":94637,"SoundDuration":94637,"Delta":39249726},{"NoteNumber":80,"Velocity":61,"Duration":94637,"SoundDuration":94637,"Delta":39249726},{"NoteNumber":90,"Velocity":82,"Duration":179909,"SoundDuration":179909,"Delta":39439001},{"NoteNumber":78,"Velocity":70,"Duration":179909,"SoundDuration":179909,"Delta":39439001},{"NoteNumber":47,"Velocity":66,"Duration":179909,"SoundDuration":179909,"Delta":39439001},{"NoteNumber":88,"Velocity":73,"Duration":143928,"SoundDuration":143928,"Delta":39618911},{"NoteNumber":76,"Velocity":61,"Duration":143928,"SoundDuration":143928,"Delta":39618911},{"NoteNumber":87,"Velocity":73,"Duration":88757,"SoundDuration":88757,"Delta":39798821},{"NoteNumber":75,"Velocity":61,"Duration":88757,"SoundDuration":88757,"Delta":39798821},{"NoteNumber":66,"Velocity":56,"Duration":88757,"SoundDuration":88757,"Delta":39798821},{"NoteNumber":63,"Velocity":47,"Duration":88757,"SoundDuration":88757,"Delta":39798821},{"NoteNumber":57,"Velocity":47,"Duration":88757,"SoundDuration":88757,"Delta":39798821},{"NoteNumber":90,"Velocity":73,"Duration":93750,"SoundDuration":93750,"Delta":39976336},{"NoteNumber":78,"Velocity":61,"Duration":93750,"SoundDuration":93750,"Delta":39976336},{"NoteNumber":90,"Velocity":81,"Duration":181542,"SoundDuration":181542,"Delta":40163836},{"NoteNumber":78,"Velocity":69,"Duration":181542,"SoundDuration":181542,"Delta":40163836},{"NoteNumber":64,"Velocity":66,"Duration":181542,"SoundDuration":181542,"Delta":40163836},{"NoteNumber":59,"Velocity":55,"Duration":181542,"SoundDuration":181542,"Delta":40163836},{"NoteNumber":56,"Velocity":55,"Duration":181542,"SoundDuration":181542,"Delta":40163836},{"NoteNumber":52,"Velocity":55,"Duration":181542,"SoundDuration":181542,"Delta":40163836},{"NoteNumber":88,"Velocity":73,"Duration":141384,"SoundDuration":141384,"Delta":40345379},{"NoteNumber":76,"Velocity":61,"Duration":141384,"SoundDuration":141384,"Delta":40345379},{"NoteNumber":88,"Velocity":73,"Duration":92879,"SoundDuration":92879,"Delta":40522109},{"NoteNumber":76,"Velocity":61,"Duration":92879,"SoundDuration":92879,"Delta":40522109},{"NoteNumber":66,"Velocity":56,"Duration":92879,"SoundDuration":92879,"Delta":40522109},{"NoteNumber":60,"Velocity":47,"Duration":92879,"SoundDuration":92879,"Delta":40522109},{"NoteNumber":57,"Velocity":47,"Duration":92879,"SoundDuration":92879,"Delta":40522109},{"NoteNumber":87,"Velocity":73,"Duration":96930,"SoundDuration":96930,"Delta":40707868},{"NoteNumber":75,"Velocity":61,"Duration":96930,"SoundDuration":96930,"Delta":40707868},{"NoteNumber":90,"Velocity":84,"Duration":183205,"SoundDuration":183205,"Delta":40901729},{"NoteNumber":78,"Velocity":71,"Duration":183205,"SoundDuration":183205,"Delta":40901729},{"NoteNumber":64,"Velocity":65,"Duration":183205,"SoundDuration":183205,"Delta":40901729},{"NoteNumber":59,"Velocity":54,"Duration":183205,"SoundDuration":183205,"Delta":40901729},{"NoteNumber":56,"Velocity":54,"Duration":183205,"SoundDuration":183205,"Delta":40901729},{"NoteNumber":52,"Velocity":54,"Duration":183205,"SoundDuration":183205,"Delta":40901729},{"NoteNumber":88,"Velocity":73,"Duration":149299,"SoundDuration":149299,"Delta":41084935},{"NoteNumber":76,"Velocity":61,"Duration":149299,"SoundDuration":149299,"Delta":41084935},{"NoteNumber":88,"Velocity":73,"Duration":94191,"SoundDuration":94191,"Delta":41271560},{"NoteNumber":76,"Velocity":61,"Duration":94191,"SoundDuration":94191,"Delta":41271560},{"NoteNumber":66,"Velocity":58,"Duration":94191,"SoundDuration":94191,"Delta":41271560},{"NoteNumber":60,"Velocity":49,"Duration":94191,"SoundDuration":94191,"Delta":41271560},{"NoteNumber":57,"Velocity":49,"Duration":94191,"SoundDuration":94191,"Delta":41271560},{"NoteNumber":87,"Velocity":73,"Duration":100840,"SoundDuration":100840,"Delta":41459943},{"NoteNumber":75,"Velocity":61,"Duration":100840,"SoundDuration":100840,"Delta":41459943},{"NoteNumber":83,"Velocity":75,"Duration":775444,"SoundDuration":775444,"Delta":41661623},{"NoteNumber":80,"Velocity":75,"Duration":775444,"SoundDuration":775444,"Delta":41661623},{"NoteNumber":88,"Velocity":89,"Duration":775444,"SoundDuration":775444,"Delta":41661623},{"NoteNumber":76,"Velocity":75,"Duration":775444,"SoundDuration":775444,"Delta":41661623},{"NoteNumber":64,"Velocity":69,"Duration":775444,"SoundDuration":775444,"Delta":41661623},{"NoteNumber":59,"Velocity":58,"Duration":775444,"SoundDuration":775444,"Delta":41661623},{"NoteNumber":56,"Velocity":58,"Duration":775444,"SoundDuration":775444,"Delta":41661623},{"NoteNumber":52,"Velocity":58,"Duration":775444,"SoundDuration":775444,"Delta":41661623},{"NoteNumber":100,"Velocity":86,"Duration":193860,"SoundDuration":193860,"Delta":42437067},{"NoteNumber":95,"Velocity":72,"Duration":193860,"SoundDuration":193860,"Delta":42437067},{"NoteNumber":92,"Velocity":72,"Duration":193860,"SoundDuration":193860,"Delta":42437067},{"NoteNumber":88,"Velocity":72,"Duration":193860,"SoundDuration":193860,"Delta":42437067},{"NoteNumber":52,"Velocity":67,"Duration":193860,"SoundDuration":193860,"Delta":42437067},{"NoteNumber":40,"Velocity":56,"Duration":193860,"SoundDuration":193860,"Delta":42437067},{"NoteNumber":44,"Velocity":56,"Duration":193860,"SoundDuration":193860,"Delta":42437067},{"NoteNumber":47,"Velocity":56,"Duration":193860,"SoundDuration":193860,"Delta":42437067},{"NoteNumber":64,"Velocity":81,"Duration":96930,"SoundDuration":96930,"Delta":43115581},{"NoteNumber":64,"Velocity":88,"Duration":189274,"SoundDuration":189274,"Delta":43212511},{"NoteNumber":68,"Velocity":81,"Duration":193860,"SoundDuration":193860,"Delta":43969609},{"NoteNumber":64,"Velocity":68,"Duration":193860,"SoundDuration":193860,"Delta":43969609},{"NoteNumber":61,"Velocity":69,"Duration":193860,"SoundDuration":193860,"Delta":43969609},{"NoteNumber":71,"Velocity":88,"Duration":1431694,"SoundDuration":1431694,"Delta":44745053},{"NoteNumber":63,"Velocity":74,"Duration":1431694,"SoundDuration":1431694,"Delta":44745053},{"NoteNumber":68,"Velocity":74,"Duration":1431694,"SoundDuration":1431694,"Delta":44745053},{"NoteNumber":56,"Velocity":69,"Duration":1431694,"SoundDuration":1431694,"Delta":44745053},{"NoteNumber":76,"Velocity":81,"Duration":93750,"SoundDuration":93750,"Delta":46176747},{"NoteNumber":64,"Velocity":68,"Duration":93750,"SoundDuration":93750,"Delta":46176747},{"NoteNumber":68,"Velocity":68,"Duration":93750,"SoundDuration":93750,"Delta":46176747},{"NoteNumber":61,"Velocity":60,"Duration":93750,"SoundDuration":93750,"Delta":46176747},{"NoteNumber":49,"Velocity":49,"Duration":93750,"SoundDuration":93750,"Delta":46176747},{"NoteNumber":68,"Velocity":74,"Duration":656250,"SoundDuration":656250,"Delta":46270497},{"NoteNumber":71,"Velocity":88,"Duration":656250,"SoundDuration":656250,"Delta":46270497},{"NoteNumber":63,"Velocity":74,"Duration":656250,"SoundDuration":656250,"Delta":46270497},{"NoteNumber":56,"Velocity":67,"Duration":656250,"SoundDuration":656250,"Delta":46270497},{"NoteNumber":76,"Velocity":82,"Duration":93750,"SoundDuration":93750,"Delta":46926747},{"NoteNumber":64,"Velocity":69,"Duration":93750,"SoundDuration":93750,"Delta":46926747},{"NoteNumber":68,"Velocity":69,"Duration":93750,"SoundDuration":93750,"Delta":46926747},{"NoteNumber":61,"Velocity":61,"Duration":93750,"SoundDuration":93750,"Delta":46926747},{"NoteNumber":49,"Velocity":50,"Duration":93750,"SoundDuration":93750,"Delta":46926747},{"NoteNumber":71,"Velocity":88,"Duration":656250,"SoundDuration":656250,"Delta":47020497},{"NoteNumber":63,"Velocity":74,"Duration":656250,"SoundDuration":656250,"Delta":47020497},{"NoteNumber":68,"Velocity":74,"Duration":656250,"SoundDuration":656250,"Delta":47020497},{"NoteNumber":56,"Velocity":68,"Duration":656250,"SoundDuration":656250,"Delta":47020497},{"NoteNumber":76,"Velocity":81,"Duration":93750,"SoundDuration":93750,"Delta":47676747},{"NoteNumber":64,"Velocity":68,"Duration":93750,"SoundDuration":93750,"Delta":47676747},{"NoteNumber":68,"Velocity":68,"Duration":93750,"SoundDuration":93750,"Delta":47676747},{"NoteNumber":61,"Velocity":61,"Duration":93750,"SoundDuration":93750,"Delta":47676747},{"NoteNumber":49,"Velocity":51,"Duration":93750,"SoundDuration":93750,"Delta":47676747},{"NoteNumber":71,"Velocity":88,"Duration":1578891,"SoundDuration":1578891,"Delta":47770497},{"NoteNumber":63,"Velocity":74,"Duration":1578891,"SoundDuration":1578891,"Delta":47770497},{"NoteNumber":68,"Velocity":74,"Duration":1578891,"SoundDuration":1578891,"Delta":47770497},{"NoteNumber":56,"Velocity":85,"Duration":190174,"SoundDuration":190174,"Delta":47770497},{"NoteNumber":44,"Velocity":70,"Duration":190174,"SoundDuration":190174,"Delta":47770497},{"NoteNumber":55,"Velocity":85,"Duration":191082,"SoundDuration":191082,"Delta":48150846},{"NoteNumber":43,"Velocity":70,"Duration":191082,"SoundDuration":191082,"Delta":48150846},{"NoteNumber":54,"Velocity":85,"Duration":194182,"SoundDuration":194182,"Delta":48532560},{"NoteNumber":42,"Velocity":70,"Duration":194182,"SoundDuration":194182,"Delta":48532560},{"NoteNumber":53,"Velocity":85,"Duration":208021,"SoundDuration":208021,"Delta":48927587},{"NoteNumber":41,"Velocity":70,"Duration":208021,"SoundDuration":208021,"Delta":48927587},{"NoteNumber":76,"Velocity":90,"Duration":152801,"SoundDuration":152801,"Delta":49349389},{"NoteNumber":62,"Velocity":74,"Duration":152801,"SoundDuration":152801,"Delta":49349389},{"NoteNumber":64,"Velocity":74,"Duration":152801,"SoundDuration":152801,"Delta":49349389},{"NoteNumber":68,"Velocity":74,"Duration":152801,"SoundDuration":152801,"Delta":49349389},{"NoteNumber":71,"Velocity":74,"Duration":152801,"SoundDuration":152801,"Delta":49349389},{"NoteNumber":52,"Velocity":89,"Duration":152801,"SoundDuration":152801,"Delta":49349389},{"NoteNumber":40,"Velocity":73,"Duration":152801,"SoundDuration":152801,"Delta":49349389},{"NoteNumber":76,"Velocity":50,"Duration":359819,"SoundDuration":359819,"Delta":50571799},{"NoteNumber":84,"Velocity":57,"Duration":167831,"SoundDuration":167831,"Delta":50931619},{"NoteNumber":57,"Velocity":40,"Duration":167831,"SoundDuration":167831,"Delta":50931619},{"NoteNumber":69,"Velocity":29,"Duration":111888,"SoundDuration":111888,"Delta":51043507},{"NoteNumber":88,"Velocity":50,"Duration":167832,"SoundDuration":167832,"Delta":51099451},{"NoteNumber":71,"Velocity":31,"Duration":111888,"SoundDuration":111888,"Delta":51155395},{"NoteNumber":84,"Velocity":55,"Duration":170696,"SoundDuration":170696,"Delta":51267283},{"NoteNumber":76,"Velocity":40,"Duration":170696,"SoundDuration":170696,"Delta":51267283},{"NoteNumber":72,"Velocity":32,"Duration":113798,"SoundDuration":113798,"Delta":51267283},{"NoteNumber":71,"Velocity":33,"Duration":119107,"SoundDuration":119107,"Delta":51381081},{"NoteNumber":77,"Velocity":40,"Duration":93312,"SoundDuration":93312,"Delta":51437980},{"NoteNumber":69,"Velocity":32,"Duration":124416,"SoundDuration":124416,"Delta":51500189},{"NoteNumber":83,"Velocity":55,"Duration":167831,"SoundDuration":167831,"Delta":51624605},{"NoteNumber":76,"Velocity":40,"Duration":335664,"SoundDuration":335664,"Delta":51624605},{"NoteNumber":55,"Velocity":40,"Duration":167831,"SoundDuration":167831,"Delta":51624605},{"NoteNumber":67,"Velocity":32,"Duration":111888,"SoundDuration":111888,"Delta":51736493},{"NoteNumber":86,"Velocity":50,"Duration":167832,"SoundDuration":167832,"Delta":51792437},{"NoteNumber":69,"Velocity":33,"Duration":111888,"SoundDuration":111888,"Delta":51848381},{"NoteNumber":83,"Velocity":53,"Duration":171428,"SoundDuration":171428,"Delta":51960269},{"NoteNumber":74,"Velocity":40,"Duration":171428,"SoundDuration":171428,"Delta":51960269},{"NoteNumber":71,"Velocity":34,"Duration":114285,"SoundDuration":114285,"Delta":51960269},{"NoteNumber":69,"Velocity":34,"Duration":119351,"SoundDuration":119351,"Delta":52074555},{"NoteNumber":76,"Velocity":40,"Duration":93312,"SoundDuration":93312,"Delta":52131698},{"NoteNumber":67,"Velocity":31,"Duration":124416,"SoundDuration":124416,"Delta":52193906},{"NoteNumber":81,"Velocity":54,"Duration":167831,"SoundDuration":167831,"Delta":52318323},{"NoteNumber":74,"Velocity":40,"Duration":335664,"SoundDuration":335664,"Delta":52318323},{"NoteNumber":53,"Velocity":40,"Duration":167831,"SoundDuration":167831,"Delta":52318323},{"NoteNumber":65,"Velocity":31,"Duration":111888,"SoundDuration":111888,"Delta":52430211},{"NoteNumber":84,"Velocity":50,"Duration":167832,"SoundDuration":167832,"Delta":52486155},{"NoteNumber":67,"Velocity":33,"Duration":111888,"SoundDuration":111888,"Delta":52542099},{"NoteNumber":81,"Velocity":57,"Duration":174418,"SoundDuration":174418,"Delta":52653987},{"NoteNumber":72,"Velocity":40,"Duration":174418,"SoundDuration":174418,"Delta":52653987},{"NoteNumber":69,"Velocity":34,"Duration":116278,"SoundDuration":116278,"Delta":52653987},{"NoteNumber":67,"Velocity":34,"Duration":120059,"SoundDuration":120059,"Delta":52770266},{"NoteNumber":74,"Velocity":40,"Duration":92879,"SoundDuration":92879,"Delta":52828405},{"NoteNumber":65,"Velocity":32,"Duration":123838,"SoundDuration":123838,"Delta":52890325},{"NoteNumber":80,"Velocity":55,"Duration":168539,"SoundDuration":168539,"Delta":53014164},{"NoteNumber":72,"Velocity":40,"Duration":337079,"SoundDuration":337079,"Delta":53014164},{"NoteNumber":52,"Velocity":40,"Duration":168539,"SoundDuration":168539,"Delta":53014164},{"NoteNumber":64,"Velocity":31,"Duration":112359,"SoundDuration":112359,"Delta":53126523},{"NoteNumber":83,"Velocity":50,"Duration":168539,"SoundDuration":168539,"Delta":53182703},{"NoteNumber":65,"Velocity":32,"Duration":112359,"SoundDuration":112359,"Delta":53238883},{"NoteNumber":80,"Velocity":55,"Duration":173661,"SoundDuration":173661,"Delta":53351243},{"NoteNumber":71,"Velocity":40,"Duration":173661,"SoundDuration":173661,"Delta":53351243},{"NoteNumber":68,"Velocity":33,"Duration":115774,"SoundDuration":115774,"Delta":53351243},{"NoteNumber":65,"Velocity":32,"Duration":119520,"SoundDuration":119520,"Delta":53467017},{"NoteNumber":72,"Velocity":40,"Duration":92449,"SoundDuration":92449,"Delta":53524904},{"NoteNumber":64,"Velocity":30,"Duration":123266,"SoundDuration":123266,"Delta":53586538},{"NoteNumber":77,"Velocity":54,"Duration":168539,"SoundDuration":168539,"Delta":53709804},{"NoteNumber":71,"Velocity":40,"Duration":337079,"SoundDuration":337079,"Delta":53709804},{"NoteNumber":50,"Velocity":40,"Duration":168539,"SoundDuration":168539,"Delta":53709804},{"NoteNumber":62,"Velocity":30,"Duration":112359,"SoundDuration":112359,"Delta":53822164},{"NoteNumber":81,"Velocity":50,"Duration":168539,"SoundDuration":168539,"Delta":53878344},{"NoteNumber":64,"Velocity":31,"Duration":112359,"SoundDuration":112359,"Delta":53934524},{"NoteNumber":77,"Velocity":54,"Duration":175182,"SoundDuration":175182,"Delta":54046883},{"NoteNumber":69,"Velocity":40,"Duration":175182,"SoundDuration":175182,"Delta":54046883},{"NoteNumber":65,"Velocity":32,"Duration":116788,"SoundDuration":116788,"Delta":54046883},{"NoteNumber":62,"Velocity":32,"Duration":122702,"SoundDuration":122702,"Delta":54163672},{"NoteNumber":71,"Velocity":40,"Duration":96462,"SoundDuration":96462,"Delta":54222066},{"NoteNumber":60,"Velocity":30,"Duration":128617,"SoundDuration":128617,"Delta":54286374},{"NoteNumber":76,"Velocity":63,"Duration":507172,"SoundDuration":507172,"Delta":54414992},{"NoteNumber":68,"Velocity":48,"Duration":167130,"SoundDuration":167130,"Delta":54414992},{"NoteNumber":52,"Velocity":43,"Duration":334262,"SoundDuration":334262,"Delta":54414992},{"NoteNumber":59,"Velocity":43,"Duration":167130,"SoundDuration":167130,"Delta":54414992},{"NoteNumber":71,"Velocity":45,"Duration":167131,"SoundDuration":167131,"Delta":54582123},{"NoteNumber":64,"Velocity":40,"Duration":167131,"SoundDuration":167131,"Delta":54582123},{"NoteNumber":68,"Velocity":50,"Duration":172910,"SoundDuration":172910,"Delta":54749254},{"NoteNumber":59,"Velocity":45,"Duration":172910,"SoundDuration":172910,"Delta":54749254},{"NoteNumber":71,"Velocity":45,"Duration":177514,"SoundDuration":177514,"Delta":54922164},{"NoteNumber":80,"Velocity":60,"Duration":177514,"SoundDuration":177514,"Delta":54922164},{"NoteNumber":64,"Velocity":40,"Duration":177514,"SoundDuration":177514,"Delta":54922164},{"NoteNumber":76,"Velocity":66,"Duration":511617,"SoundDuration":511617,"Delta":55099679},{"NoteNumber":68,"Velocity":48,"Duration":167831,"SoundDuration":167831,"Delta":55099679},{"NoteNumber":52,"Velocity":43,"Duration":335664,"SoundDuration":335664,"Delta":55099679},{"NoteNumber":59,"Velocity":43,"Duration":167831,"SoundDuration":167831,"Delta":55099679},{"NoteNumber":71,"Velocity":45,"Duration":167832,"SoundDuration":167832,"Delta":55267511},{"NoteNumber":64,"Velocity":40,"Duration":167832,"SoundDuration":167832,"Delta":55267511},{"NoteNumber":68,"Velocity":50,"Duration":175952,"SoundDuration":175952,"Delta":55435343},{"NoteNumber":59,"Velocity":45,"Duration":175952,"SoundDuration":175952,"Delta":55435343},{"NoteNumber":71,"Velocity":45,"Duration":179909,"SoundDuration":179909,"Delta":55611296},{"NoteNumber":80,"Velocity":57,"Duration":179909,"SoundDuration":179909,"Delta":55611296},{"NoteNumber":64,"Velocity":40,"Duration":179909,"SoundDuration":179909,"Delta":55611296},{"NoteNumber":76,"Velocity":67,"Duration":167831,"SoundDuration":167831,"Delta":55791206},{"NoteNumber":68,"Velocity":56,"Duration":167831,"SoundDuration":167831,"Delta":55791206},{"NoteNumber":52,"Velocity":43,"Duration":335664,"SoundDuration":335664,"Delta":55791206},{"NoteNumber":59,"Velocity":43,"Duration":167831,"SoundDuration":167831,"Delta":55791206},{"NoteNumber":71,"Velocity":60,"Duration":83916,"SoundDuration":83916,"Delta":55959038},{"NoteNumber":80,"Velocity":60,"Duration":83916,"SoundDuration":83916,"Delta":55959038},{"NoteNumber":64,"Velocity":40,"Duration":83916,"SoundDuration":83916,"Delta":55959038},{"NoteNumber":76,"Velocity":68,"Duration":172910,"SoundDuration":172910,"Delta":56126870},{"NoteNumber":68,"Velocity":57,"Duration":172910,"SoundDuration":172910,"Delta":56126870},{"NoteNumber":52,"Velocity":43,"Duration":351216,"SoundDuration":351216,"Delta":56126870},{"NoteNumber":59,"Velocity":45,"Duration":172910,"SoundDuration":172910,"Delta":56126870},{"NoteNumber":80,"Velocity":62,"Duration":89153,"SoundDuration":89153,"Delta":56299781},{"NoteNumber":71,"Velocity":52,"Duration":89153,"SoundDuration":89153,"Delta":56299781},{"NoteNumber":64,"Velocity":40,"Duration":89153,"SoundDuration":89153,"Delta":56299781},{"NoteNumber":76,"Velocity":71,"Duration":88991,"SoundDuration":88991,"Delta":56478087},{"NoteNumber":68,"Velocity":60,"Duration":349805,"SoundDuration":349805,"Delta":56478087},{"NoteNumber":59,"Velocity":56,"Duration":88991,"SoundDuration":88991,"Delta":56478087},{"NoteNumber":52,"Velocity":47,"Duration":88991,"SoundDuration":88991,"Delta":56478087},{"NoteNumber":71,"Velocity":62,"Duration":85714,"SoundDuration":85714,"Delta":56656464},{"NoteNumber":68,"Velocity":63,"Duration":338528,"SoundDuration":338528,"Delta":56827892},{"NoteNumber":64,"Velocity":60,"Duration":83916,"SoundDuration":83916,"Delta":56827892},{"NoteNumber":52,"Velocity":51,"Duration":83916,"SoundDuration":83916,"Delta":56827892},{"NoteNumber":56,"Velocity":51,"Duration":83916,"SoundDuration":83916,"Delta":56827892},{"NoteNumber":59,"Velocity":51,"Duration":83916,"SoundDuration":83916,"Delta":56827892},{"NoteNumber":71,"Velocity":64,"Duration":85348,"SoundDuration":85348,"Delta":56995724},{"NoteNumber":76,"Velocity":67,"Duration":83217,"SoundDuration":83217,"Delta":57166421},{"NoteNumber":64,"Velocity":63,"Duration":337863,"SoundDuration":337863,"Delta":57166421},{"NoteNumber":56,"Velocity":68,"Duration":83217,"SoundDuration":83217,"Delta":57166421},{"NoteNumber":59,"Velocity":68,"Duration":83217,"SoundDuration":83217,"Delta":57166421},{"NoteNumber":47,"Velocity":57,"Duration":83217,"SoundDuration":83217,"Delta":57166421},{"NoteNumber":52,"Velocity":57,"Duration":83217,"SoundDuration":83217,"Delta":57166421},{"NoteNumber":71,"Velocity":72,"Duration":85714,"SoundDuration":85714,"Delta":57332857},{"NoteNumber":76,"Velocity":79,"Duration":88365,"SoundDuration":88365,"Delta":57504285},{"NoteNumber":64,"Velocity":67,"Duration":88365,"SoundDuration":88365,"Delta":57504285},{"NoteNumber":56,"Velocity":75,"Duration":88365,"SoundDuration":88365,"Delta":57504285},{"NoteNumber":44,"Velocity":63,"Duration":88365,"SoundDuration":88365,"Delta":57504285},{"NoteNumber":47,"Velocity":63,"Duration":88365,"SoundDuration":88365,"Delta":57504285},{"NoteNumber":52,"Velocity":63,"Duration":88365,"SoundDuration":88365,"Delta":57504285},{"NoteNumber":80,"Velocity":80,"Duration":88365,"SoundDuration":88365,"Delta":57681016},{"NoteNumber":68,"Velocity":68,"Duration":88365,"SoundDuration":88365,"Delta":57681016},{"NoteNumber":71,"Velocity":79,"Duration":716417,"SoundDuration":716417,"Delta":57857746},{"NoteNumber":76,"Velocity":79,"Duration":716417,"SoundDuration":716417,"Delta":57857746},{"NoteNumber":83,"Velocity":93,"Duration":716417,"SoundDuration":716417,"Delta":57857746},{"NoteNumber":80,"Velocity":79,"Duration":716417,"SoundDuration":716417,"Delta":57857746},{"NoteNumber":47,"Velocity":60,"Duration":716417,"SoundDuration":716417,"Delta":57857746},{"NoteNumber":44,"Velocity":60,"Duration":716417,"SoundDuration":716417,"Delta":57857746},{"NoteNumber":52,"Velocity":70,"Duration":716417,"SoundDuration":716417,"Delta":57857746},{"NoteNumber":40,"Velocity":60,"Duration":716417,"SoundDuration":716417,"Delta":57857746},{"NoteNumber":88,"Velocity":99,"Duration":179104,"SoundDuration":179104,"Delta":58574164},{"NoteNumber":76,"Velocity":82,"Duration":179104,"SoundDuration":179104,"Delta":58574164},{"NoteNumber":80,"Velocity":82,"Duration":179104,"SoundDuration":179104,"Delta":58574164},{"NoteNumber":83,"Velocity":82,"Duration":179104,"SoundDuration":179104,"Delta":58574164},{"NoteNumber":64,"Velocity":74,"Duration":179104,"SoundDuration":179104,"Delta":58574164},{"NoteNumber":59,"Velocity":62,"Duration":179104,"SoundDuration":179104,"Delta":58574164},{"NoteNumber":56,"Velocity":62,"Duration":179104,"SoundDuration":179104,"Delta":58574164},{"NoteNumber":52,"Velocity":62,"Duration":179104,"SoundDuration":179104,"Delta":58574164},{"NoteNumber":76,"Velocity":75,"Duration":111420,"SoundDuration":111420,"Delta":58932373},{"NoteNumber":52,"Velocity":67,"Duration":111420,"SoundDuration":111420,"Delta":58932373},{"NoteNumber":78,"Velocity":78,"Duration":111420,"SoundDuration":111420,"Delta":59043794},{"NoteNumber":54,"Velocity":71,"Duration":111420,"SoundDuration":111420,"Delta":59043794},{"NoteNumber":80,"Velocity":80,"Duration":111420,"SoundDuration":111420,"Delta":59155214},{"NoteNumber":56,"Velocity":75,"Duration":111420,"SoundDuration":111420,"Delta":59155214},{"NoteNumber":72,"Velocity":76,"Duration":174418,"SoundDuration":174418,"Delta":59266635},{"NoteNumber":69,"Velocity":76,"Duration":174418,"SoundDuration":174418,"Delta":59266635},{"NoteNumber":81,"Velocity":90,"Duration":174418,"SoundDuration":174418,"Delta":59266635},{"NoteNumber":57,"Velocity":70,"Duration":174418,"SoundDuration":174418,"Delta":59266635},{"NoteNumber":45,"Velocity":59,"Duration":174418,"SoundDuration":174418,"Delta":59266635},{"NoteNumber":71,"Velocity":63,"Duration":82531,"SoundDuration":82531,"Delta":59615472},{"NoteNumber":68,"Velocity":63,"Duration":82531,"SoundDuration":82531,"Delta":59615472},{"NoteNumber":80,"Velocity":74,"Duration":82531,"SoundDuration":82531,"Delta":59615472},{"NoteNumber":53,"Velocity":56,"Duration":82531,"SoundDuration":82531,"Delta":59615472},{"NoteNumber":41,"Velocity":47,"Duration":82531,"SoundDuration":82531,"Delta":59615472},{"NoteNumber":71,"Velocity":57,"Duration":86830,"SoundDuration":86830,"Delta":59780534},{"NoteNumber":83,"Velocity":68,"Duration":86830,"SoundDuration":86830,"Delta":59780534},{"NoteNumber":74,"Velocity":57,"Duration":86830,"SoundDuration":86830,"Delta":59780534},{"NoteNumber":69,"Velocity":71,"Duration":169971,"SoundDuration":169971,"Delta":59954196},{"NoteNumber":81,"Velocity":84,"Duration":169971,"SoundDuration":169971,"Delta":59954196},{"NoteNumber":72,"Velocity":71,"Duration":169971,"SoundDuration":169971,"Delta":59954196},{"NoteNumber":57,"Velocity":70,"Duration":169971,"SoundDuration":169971,"Delta":59954196},{"NoteNumber":45,"Velocity":59,"Duration":169971,"SoundDuration":169971,"Delta":59954196},{"NoteNumber":71,"Velocity":61,"Duration":81521,"SoundDuration":81521,"Delta":60294139},{"NoteNumber":68,"Velocity":61,"Duration":81521,"SoundDuration":81521,"Delta":60294139},{"NoteNumber":80,"Velocity":72,"Duration":81521,"SoundDuration":81521,"Delta":60294139},{"NoteNumber":52,"Velocity":56,"Duration":81521,"SoundDuration":81521,"Delta":60294139},{"NoteNumber":40,"Velocity":47,"Duration":81521,"SoundDuration":81521,"Delta":60294139},{"NoteNumber":74,"Velocity":56,"Duration":86455,"SoundDuration":86455,"Delta":60457182},{"NoteNumber":83,"Velocity":67,"Duration":86455,"SoundDuration":86455,"Delta":60457182},{"NoteNumber":71,"Velocity":56,"Duration":86455,"SoundDuration":86455,"Delta":60457182},{"NoteNumber":69,"Velocity":71,"Duration":91602,"SoundDuration":91602,"Delta":60630093},{"NoteNumber":81,"Velocity":84,"Duration":91602,"SoundDuration":91602,"Delta":60630093},{"NoteNumber":72,"Velocity":71,"Duration":91602,"SoundDuration":91602,"Delta":60630093},{"NoteNumber":57,"Velocity":70,"Duration":91602,"SoundDuration":91602,"Delta":60630093},{"NoteNumber":45,"Velocity":59,"Duration":91602,"SoundDuration":91602,"Delta":60630093},{"NoteNumber":71,"Velocity":61,"Duration":89153,"SoundDuration":89153,"Delta":60996505},{"NoteNumber":68,"Velocity":61,"Duration":89153,"SoundDuration":89153,"Delta":60996505},{"NoteNumber":80,"Velocity":73,"Duration":89153,"SoundDuration":89153,"Delta":60996505},{"NoteNumber":50,"Velocity":61,"Duration":89153,"SoundDuration":89153,"Delta":60996505},{"NoteNumber":38,"Velocity":51,"Duration":89153,"SoundDuration":89153,"Delta":60996505},{"NoteNumber":41,"Velocity":51,"Duration":89153,"SoundDuration":89153,"Delta":60996505},{"NoteNumber":69,"Velocity":70,"Duration":729483,"SoundDuration":729483,"Delta":61353117},{"NoteNumber":72,"Velocity":70,"Duration":729483,"SoundDuration":729483,"Delta":61353117},{"NoteNumber":81,"Velocity":83,"Duration":729483,"SoundDuration":729483,"Delta":61353117},{"NoteNumber":57,"Velocity":70,"Duration":729483,"SoundDuration":729483,"Delta":61353117},{"NoteNumber":45,"Velocity":59,"Duration":729483,"SoundDuration":729483,"Delta":61353117},{"NoteNumber":52,"Velocity":59,"Duration":729483,"SoundDuration":729483,"Delta":61353117},{"NoteNumber":93,"Velocity":75,"Duration":82872,"SoundDuration":82872,"Delta":62082601},{"NoteNumber":81,"Velocity":63,"Duration":82872,"SoundDuration":82872,"Delta":62082601},{"NoteNumber":95,"Velocity":79,"Duration":82872,"SoundDuration":82872,"Delta":62248347},{"NoteNumber":83,"Velocity":67,"Duration":82872,"SoundDuration":82872,"Delta":62248347},{"NoteNumber":96,"Velocity":86,"Duration":512170,"SoundDuration":512170,"Delta":62414093},{"NoteNumber":84,"Velocity":72,"Duration":512170,"SoundDuration":512170,"Delta":62414093},{"NoteNumber":69,"Velocity":75,"Duration":85714,"SoundDuration":85714,"Delta":62414093},{"NoteNumber":57,"Velocity":63,"Duration":85714,"SoundDuration":85714,"Delta":62414093},{"NoteNumber":71,"Velocity":79,"Duration":86455,"SoundDuration":86455,"Delta":62585521},{"NoteNumber":59,"Velocity":67,"Duration":86455,"SoundDuration":86455,"Delta":62585521},{"NoteNumber":72,"Velocity":86,"Duration":488734,"SoundDuration":488734,"Delta":62758432},{"NoteNumber":60,"Velocity":72,"Duration":488734,"SoundDuration":488734,"Delta":62758432},{"NoteNumber":95,"Velocity":74,"Duration":79260,"SoundDuration":79260,"Delta":62926264},{"NoteNumber":83,"Velocity":62,"Duration":79260,"SoundDuration":79260,"Delta":62926264},{"NoteNumber":93,"Velocity":87,"Duration":502349,"SoundDuration":502349,"Delta":63084784},{"NoteNumber":81,"Velocity":73,"Duration":502349,"SoundDuration":502349,"Delta":63084784},{"NoteNumber":71,"Velocity":74,"Duration":84269,"SoundDuration":84269,"Delta":63247166},{"NoteNumber":59,"Velocity":62,"Duration":84269,"SoundDuration":84269,"Delta":63247166},{"NoteNumber":69,"Velocity":87,"Duration":500395,"SoundDuration":500395,"Delta":63415705},{"NoteNumber":57,"Velocity":73,"Duration":500395,"SoundDuration":500395,"Delta":63415705},{"NoteNumber":91,"Velocity":75,"Duration":80213,"SoundDuration":80213,"Delta":63587134},{"NoteNumber":79,"Velocity":63,"Duration":80213,"SoundDuration":80213,"Delta":63587134},{"NoteNumber":89,"Velocity":88,"Duration":505618,"SoundDuration":505618,"Delta":63747562},{"NoteNumber":77,"Velocity":74,"Duration":505618,"SoundDuration":505618,"Delta":63747562},{"NoteNumber":67,"Velocity":75,"Duration":84269,"SoundDuration":84269,"Delta":63916101},{"NoteNumber":55,"Velocity":63,"Duration":84269,"SoundDuration":84269,"Delta":63916101},{"NoteNumber":65,"Velocity":88,"Duration":496098,"SoundDuration":496098,"Delta":64084641},{"NoteNumber":53,"Velocity":74,"Duration":496098,"SoundDuration":496098,"Delta":64084641},{"NoteNumber":88,"Velocity":81,"Duration":80213,"SoundDuration":80213,"Delta":64253180},{"NoteNumber":76,"Velocity":68,"Duration":80213,"SoundDuration":80213,"Delta":64253180},{"NoteNumber":86,"Velocity":81,"Duration":83565,"SoundDuration":83565,"Delta":64413608},{"NoteNumber":74,"Velocity":68,"Duration":83565,"SoundDuration":83565,"Delta":64413608},{"NoteNumber":85,"Velocity":81,"Duration":87209,"SoundDuration":87209,"Delta":64580739},{"NoteNumber":73,"Velocity":68,"Duration":87209,"SoundDuration":87209,"Delta":64580739},{"NoteNumber":52,"Velocity":75,"Duration":87209,"SoundDuration":87209,"Delta":64580739},{"NoteNumber":64,"Velocity":75,"Duration":87209,"SoundDuration":87209,"Delta":64580739},{"NoteNumber":77,"Velocity":76,"Duration":168539,"SoundDuration":168539,"Delta":64755158},{"NoteNumber":74,"Velocity":76,"Duration":168539,"SoundDuration":168539,"Delta":64755158},{"NoteNumber":86,"Velocity":90,"Duration":168539,"SoundDuration":168539,"Delta":64755158},{"NoteNumber":62,"Velocity":70,"Duration":168539,"SoundDuration":168539,"Delta":64755158},{"NoteNumber":50,"Velocity":59,"Duration":168539,"SoundDuration":168539,"Delta":64755158},{"NoteNumber":76,"Velocity":63,"Duration":80862,"SoundDuration":80862,"Delta":65092237},{"NoteNumber":73,"Velocity":63,"Duration":80862,"SoundDuration":80862,"Delta":65092237},{"NoteNumber":85,"Velocity":74,"Duration":80862,"SoundDuration":80862,"Delta":65092237},{"NoteNumber":58,"Velocity":56,"Duration":80862,"SoundDuration":80862,"Delta":65092237},{"NoteNumber":46,"Velocity":47,"Duration":80862,"SoundDuration":80862,"Delta":65092237},{"NoteNumber":76,"Velocity":57,"Duration":86830,"SoundDuration":86830,"Delta":65253962},{"NoteNumber":88,"Velocity":68,"Duration":86830,"SoundDuration":86830,"Delta":65253962},{"NoteNumber":79,"Velocity":57,"Duration":86830,"SoundDuration":86830,"Delta":65253962},{"NoteNumber":74,"Velocity":71,"Duration":168539,"SoundDuration":168539,"Delta":65427623},{"NoteNumber":86,"Velocity":84,"Duration":168539,"SoundDuration":168539,"Delta":65427623},{"NoteNumber":77,"Velocity":71,"Duration":168539,"SoundDuration":168539,"Delta":65427623},{"NoteNumber":62,"Velocity":70,"Duration":168539,"SoundDuration":168539,"Delta":65427623},{"NoteNumber":50,"Velocity":59,"Duration":168539,"SoundDuration":168539,"Delta":65427623},{"NoteNumber":76,"Velocity":61,"Duration":81190,"SoundDuration":81190,"Delta":65764702},{"NoteNumber":73,"Velocity":61,"Duration":81190,"SoundDuration":81190,"Delta":65764702},{"NoteNumber":85,"Velocity":72,"Duration":81190,"SoundDuration":81190,"Delta":65764702},{"NoteNumber":57,"Velocity":56,"Duration":81190,"SoundDuration":81190,"Delta":65764702},{"NoteNumber":45,"Velocity":47,"Duration":81190,"SoundDuration":81190,"Delta":65764702},{"NoteNumber":79,"Velocity":56,"Duration":90361,"SoundDuration":90361,"Delta":65927084},{"NoteNumber":88,"Velocity":67,"Duration":90361,"SoundDuration":90361,"Delta":65927084},{"NoteNumber":76,"Velocity":56,"Duration":90361,"SoundDuration":90361,"Delta":65927084},{"NoteNumber":74,"Velocity":71,"Duration":88365,"SoundDuration":88365,"Delta":66107807},{"NoteNumber":86,"Velocity":84,"Duration":88365,"SoundDuration":88365,"Delta":66107807},{"NoteNumber":77,"Velocity":71,"Duration":88365,"SoundDuration":88365,"Delta":66107807},{"NoteNumber":62,"Velocity":70,"Duration":88365,"SoundDuration":88365,"Delta":66107807},{"NoteNumber":50,"Velocity":59,"Duration":88365,"SoundDuration":88365,"Delta":66107807},{"NoteNumber":76,"Velocity":61,"Duration":89152,"SoundDuration":89152,"Delta":66461268},{"NoteNumber":73,"Velocity":61,"Duration":89152,"SoundDuration":89152,"Delta":66461268},{"NoteNumber":85,"Velocity":73,"Duration":89152,"SoundDuration":89152,"Delta":66461268},{"NoteNumber":55,"Velocity":61,"Duration":89152,"SoundDuration":89152,"Delta":66461268},{"NoteNumber":43,"Velocity":51,"Duration":89152,"SoundDuration":89152,"Delta":66461268},{"NoteNumber":46,"Velocity":51,"Duration":89152,"SoundDuration":89152,"Delta":66461268},{"NoteNumber":74,"Velocity":73,"Duration":736196,"SoundDuration":736196,"Delta":66817880},{"NoteNumber":77,"Velocity":73,"Duration":736196,"SoundDuration":736196,"Delta":66817880},{"NoteNumber":86,"Velocity":87,"Duration":736196,"SoundDuration":736196,"Delta":66817880},{"NoteNumber":62,"Velocity":73,"Duration":736196,"SoundDuration":736196,"Delta":66817880},{"NoteNumber":50,"Velocity":61,"Duration":736196,"SoundDuration":736196,"Delta":66817880},{"NoteNumber":57,"Velocity":61,"Duration":736196,"SoundDuration":736196,"Delta":66817880},{"NoteNumber":98,"Velocity":75,"Duration":83565,"SoundDuration":83565,"Delta":67554076},{"NoteNumber":86,"Velocity":63,"Duration":83565,"SoundDuration":83565,"Delta":67554076},{"NoteNumber":100,"Velocity":79,"Duration":83565,"SoundDuration":83565,"Delta":67721207},{"NoteNumber":88,"Velocity":67,"Duration":83565,"SoundDuration":83565,"Delta":67721207},{"NoteNumber":101,"Velocity":82,"Duration":511512,"SoundDuration":511512,"Delta":67888338},{"NoteNumber":89,"Velocity":69,"Duration":511512,"SoundDuration":511512,"Delta":67888338},{"NoteNumber":74,"Velocity":75,"Duration":86083,"SoundDuration":86083,"Delta":67888338},{"NoteNumber":62,"Velocity":63,"Duration":86083,"SoundDuration":86083,"Delta":67888338},{"NoteNumber":76,"Velocity":79,"Duration":86455,"SoundDuration":86455,"Delta":68060504},{"NoteNumber":64,"Velocity":67,"Duration":86455,"SoundDuration":86455,"Delta":68060504},{"NoteNumber":77,"Velocity":82,"Duration":493945,"SoundDuration":493945,"Delta":68233415},{"NoteNumber":65,"Velocity":69,"Duration":493945,"SoundDuration":493945,"Delta":68233415},{"NoteNumber":100,"Velocity":74,"Duration":80537,"SoundDuration":80537,"Delta":68399850},{"NoteNumber":88,"Velocity":62,"Duration":80537,"SoundDuration":80537,"Delta":68399850},{"NoteNumber":98,"Velocity":83,"Duration":507885,"SoundDuration":507885,"Delta":68560924},{"NoteNumber":86,"Velocity":70,"Duration":507885,"SoundDuration":507885,"Delta":68560924},{"NoteNumber":76,"Velocity":74,"Duration":86455,"SoundDuration":86455,"Delta":68727360},{"NoteNumber":64,"Velocity":62,"Duration":86455,"SoundDuration":86455,"Delta":68727360},{"NoteNumber":74,"Velocity":83,"Duration":500961,"SoundDuration":500961,"Delta":68900270},{"NoteNumber":62,"Velocity":70,"Duration":500961,"SoundDuration":500961,"Delta":68900270},{"NoteNumber":96,"Velocity":75,"Duration":80862,"SoundDuration":80862,"Delta":69068810},{"NoteNumber":84,"Velocity":63,"Duration":80862,"SoundDuration":80862,"Delta":69068810},{"NoteNumber":95,"Velocity":84,"Duration":512090,"SoundDuration":512090,"Delta":69230535},{"NoteNumber":83,"Velocity":71,"Duration":512090,"SoundDuration":512090,"Delta":69230535},{"NoteNumber":72,"Velocity":75,"Duration":85348,"SoundDuration":85348,"Delta":69401232},{"NoteNumber":60,"Velocity":63,"Duration":85348,"SoundDuration":85348,"Delta":69401232},{"NoteNumber":71,"Velocity":84,"Duration":502947,"SoundDuration":502947,"Delta":69571929},{"NoteNumber":59,"Velocity":71,"Duration":502947,"SoundDuration":502947,"Delta":69571929},{"NoteNumber":93,"Velocity":77,"Duration":81855,"SoundDuration":81855,"Delta":69742626},{"NoteNumber":81,"Velocity":65,"Duration":81855,"SoundDuration":81855,"Delta":69742626},{"NoteNumber":92,"Velocity":77,"Duration":84269,"SoundDuration":84269,"Delta":69906337},{"NoteNumber":80,"Velocity":65,"Duration":84269,"SoundDuration":84269,"Delta":69906337},{"NoteNumber":93,"Velocity":77,"Duration":86455,"SoundDuration":86455,"Delta":70074876},{"NoteNumber":81,"Velocity":65,"Duration":86455,"SoundDuration":86455,"Delta":70074876},{"NoteNumber":69,"Velocity":70,"Duration":86455,"SoundDuration":86455,"Delta":70074876},{"NoteNumber":57,"Velocity":59,"Duration":86455,"SoundDuration":86455,"Delta":70074876},{"NoteNumber":92,"Velocity":79,"Duration":82873,"SoundDuration":82873,"Delta":70247787},{"NoteNumber":80,"Velocity":67,"Duration":82873,"SoundDuration":82873,"Delta":70247787},{"NoteNumber":68,"Velocity":72,"Duration":82873,"SoundDuration":82873,"Delta":70247787},{"NoteNumber":56,"Velocity":61,"Duration":82873,"SoundDuration":82873,"Delta":70247787},{"NoteNumber":95,"Velocity":84,"Duration":82873,"SoundDuration":82873,"Delta":70413533},{"NoteNumber":83,"Velocity":71,"Duration":82873,"SoundDuration":82873,"Delta":70413533},{"NoteNumber":71,"Velocity":77,"Duration":82873,"SoundDuration":82873,"Delta":70413533},{"NoteNumber":59,"Velocity":65,"Duration":82873,"SoundDuration":82873,"Delta":70413533},{"NoteNumber":100,"Velocity":88,"Duration":161725,"SoundDuration":161725,"Delta":70579279},{"NoteNumber":88,"Velocity":74,"Duration":161725,"SoundDuration":161725,"Delta":70579279},{"NoteNumber":76,"Velocity":81,"Duration":161725,"SoundDuration":161725,"Delta":70579279},{"NoteNumber":64,"Velocity":68,"Duration":161725,"SoundDuration":161725,"Delta":70579279},{"NoteNumber":64,"Velocity":86,"Duration":694646,"SoundDuration":694646,"Delta":70914665},{"NoteNumber":56,"Velocity":73,"Duration":694646,"SoundDuration":694646,"Delta":70914665},{"NoteNumber":59,"Velocity":73,"Duration":694646,"SoundDuration":694646,"Delta":70914665},{"NoteNumber":52,"Velocity":70,"Duration":694646,"SoundDuration":694646,"Delta":70914665},{"NoteNumber":40,"Velocity":59,"Duration":694646,"SoundDuration":694646,"Delta":70914665},{"NoteNumber":44,"Velocity":59,"Duration":694646,"SoundDuration":694646,"Delta":70914665},{"NoteNumber":47,"Velocity":59,"Duration":694646,"SoundDuration":694646,"Delta":70914665},{"NoteNumber":93,"Velocity":82,"Duration":82873,"SoundDuration":82873,"Delta":71609311},{"NoteNumber":81,"Velocity":70,"Duration":82873,"SoundDuration":82873,"Delta":71609311},{"NoteNumber":69,"Velocity":75,"Duration":82873,"SoundDuration":82873,"Delta":71609311},{"NoteNumber":57,"Velocity":64,"Duration":82873,"SoundDuration":82873,"Delta":71609311},{"NoteNumber":96,"Velocity":88,"Duration":82873,"SoundDuration":82873,"Delta":71775057},{"NoteNumber":84,"Velocity":74,"Duration":82873,"SoundDuration":82873,"Delta":71775057},{"NoteNumber":72,"Velocity":80,"Duration":82873,"SoundDuration":82873,"Delta":71775057},{"NoteNumber":60,"Velocity":68,"Duration":82873,"SoundDuration":82873,"Delta":71775057},{"NoteNumber":100,"Velocity":92,"Duration":161073,"SoundDuration":161073,"Delta":71940803},{"NoteNumber":88,"Velocity":77,"Duration":161073,"SoundDuration":161073,"Delta":71940803},{"NoteNumber":76,"Velocity":85,"Duration":161073,"SoundDuration":161073,"Delta":71940803},{"NoteNumber":64,"Velocity":71,"Duration":161073,"SoundDuration":161073,"Delta":71940803},{"NoteNumber":64,"Velocity":86,"Duration":697673,"SoundDuration":697673,"Delta":72276296},{"NoteNumber":57,"Velocity":73,"Duration":697673,"SoundDuration":697673,"Delta":72276296},{"NoteNumber":60,"Velocity":73,"Duration":697673,"SoundDuration":697673,"Delta":72276296},{"NoteNumber":52,"Velocity":70,"Duration":697673,"SoundDuration":697673,"Delta":72276296},{"NoteNumber":40,"Velocity":59,"Duration":697673,"SoundDuration":697673,"Delta":72276296},{"NoteNumber":45,"Velocity":59,"Duration":697673,"SoundDuration":697673,"Delta":72276296},{"NoteNumber":48,"Velocity":59,"Duration":697673,"SoundDuration":697673,"Delta":72276296},{"NoteNumber":80,"Velocity":73,"Duration":77419,"SoundDuration":77419,"Delta":72973970},{"NoteNumber":71,"Velocity":62,"Duration":77419,"SoundDuration":77419,"Delta":72973970},{"NoteNumber":65,"Velocity":85,"Duration":309676,"SoundDuration":309676,"Delta":72973970},{"NoteNumber":83,"Velocity":65,"Duration":77419,"SoundDuration":77419,"Delta":73128808},{"NoteNumber":74,"Velocity":55,"Duration":77419,"SoundDuration":77419,"Delta":73128808},{"NoteNumber":80,"Velocity":73,"Duration":80862,"SoundDuration":80862,"Delta":73283647},{"NoteNumber":71,"Velocity":62,"Duration":80862,"SoundDuration":80862,"Delta":73283647},{"NoteNumber":64,"Velocity":73,"Duration":80862,"SoundDuration":80862,"Delta":73283647},{"NoteNumber":83,"Velocity":67,"Duration":91603,"SoundDuration":91603,"Delta":73445372},{"NoteNumber":74,"Velocity":56,"Duration":91603,"SoundDuration":91603,"Delta":73445372},{"NoteNumber":53,"Velocity":84,"Duration":335663,"SoundDuration":335663,"Delta":73628578},{"NoteNumber":47,"Velocity":73,"Duration":83916,"SoundDuration":83916,"Delta":73628578},{"NoteNumber":44,"Velocity":62,"Duration":83916,"SoundDuration":83916,"Delta":73628578},{"NoteNumber":50,"Velocity":66,"Duration":83916,"SoundDuration":83916,"Delta":73796410},{"NoteNumber":52,"Velocity":74,"Duration":83916,"SoundDuration":83916,"Delta":73964242},{"NoteNumber":47,"Velocity":73,"Duration":83916,"SoundDuration":83916,"Delta":73964242},{"NoteNumber":44,"Velocity":62,"Duration":83916,"SoundDuration":83916,"Delta":73964242},{"NoteNumber":50,"Velocity":64,"Duration":88757,"SoundDuration":88757,"Delta":74132074},{"NoteNumber":81,"Velocity":73,"Duration":77419,"SoundDuration":77419,"Delta":74309589},{"NoteNumber":72,"Velocity":62,"Duration":77419,"SoundDuration":77419,"Delta":74309589},{"NoteNumber":65,"Velocity":85,"Duration":309676,"SoundDuration":309676,"Delta":74309589},{"NoteNumber":84,"Velocity":65,"Duration":77419,"SoundDuration":77419,"Delta":74464427},{"NoteNumber":76,"Velocity":55,"Duration":77419,"SoundDuration":77419,"Delta":74464427},{"NoteNumber":81,"Velocity":73,"Duration":78947,"SoundDuration":78947,"Delta":74619266},{"NoteNumber":72,"Velocity":62,"Duration":78947,"SoundDuration":78947,"Delta":74619266},{"NoteNumber":64,"Velocity":73,"Duration":78947,"SoundDuration":78947,"Delta":74619266},{"NoteNumber":84,"Velocity":67,"Duration":89552,"SoundDuration":89552,"Delta":74777160},{"NoteNumber":76,"Velocity":56,"Duration":89552,"SoundDuration":89552,"Delta":74777160},{"NoteNumber":53,"Velocity":84,"Duration":330123,"SoundDuration":330123,"Delta":74956265},{"NoteNumber":45,"Velocity":73,"Duration":82531,"SoundDuration":82531,"Delta":74956265},{"NoteNumber":48,"Velocity":66,"Duration":82530,"SoundDuration":82530,"Delta":75121327},{"NoteNumber":52,"Velocity":74,"Duration":82531,"SoundDuration":82531,"Delta":75286389},{"NoteNumber":45,"Velocity":73,"Duration":82531,"SoundDuration":82531,"Delta":75286389},{"NoteNumber":48,"Velocity":64,"Duration":88757,"SoundDuration":88757,"Delta":75451451},{"NoteNumber":95,"Velocity":87,"Duration":178225,"SoundDuration":178225,"Delta":75627387},{"NoteNumber":101,"Velocity":87,"Duration":178225,"SoundDuration":178225,"Delta":75627387},{"NoteNumber":89,"Velocity":73,"Duration":178225,"SoundDuration":178225,"Delta":75627387},{"NoteNumber":92,"Velocity":73,"Duration":178225,"SoundDuration":178225,"Delta":75627387},{"NoteNumber":77,"Velocity":60,"Duration":178225,"SoundDuration":178225,"Delta":75627387},{"NoteNumber":65,"Velocity":51,"Duration":178225,"SoundDuration":178225,"Delta":75627387},{"NoteNumber":68,"Velocity":51,"Duration":178225,"SoundDuration":178225,"Delta":75627387},{"NoteNumber":71,"Velocity":51,"Duration":178225,"SoundDuration":178225,"Delta":75627387},{"NoteNumber":100,"Velocity":86,"Duration":179282,"SoundDuration":179282,"Delta":75789374},{"NoteNumber":88,"Velocity":73,"Duration":179282,"SoundDuration":179282,"Delta":75789374},{"NoteNumber":76,"Velocity":60,"Duration":179282,"SoundDuration":179282,"Delta":75789374},{"NoteNumber":64,"Velocity":51,"Duration":179282,"SoundDuration":179282,"Delta":75789374},{"NoteNumber":98,"Velocity":84,"Duration":180418,"SoundDuration":180418,"Delta":75952286},{"NoteNumber":86,"Velocity":71,"Duration":180418,"SoundDuration":180418,"Delta":75952286},{"NoteNumber":74,"Velocity":58,"Duration":180418,"SoundDuration":180418,"Delta":75952286},{"NoteNumber":62,"Velocity":49,"Duration":180418,"SoundDuration":180418,"Delta":75952286},{"NoteNumber":96,"Velocity":83,"Duration":181501,"SoundDuration":181501,"Delta":76116266},{"NoteNumber":84,"Velocity":70,"Duration":181501,"SoundDuration":181501,"Delta":76116266},{"NoteNumber":72,"Velocity":58,"Duration":181501,"SoundDuration":181501,"Delta":76116266},{"NoteNumber":60,"Velocity":49,"Duration":181501,"SoundDuration":181501,"Delta":76116266},{"NoteNumber":95,"Velocity":81,"Duration":182665,"SoundDuration":182665,"Delta":76281193},{"NoteNumber":83,"Velocity":68,"Duration":182665,"SoundDuration":182665,"Delta":76281193},{"NoteNumber":71,"Velocity":56,"Duration":182665,"SoundDuration":182665,"Delta":76281193},{"NoteNumber":59,"Velocity":47,"Duration":182665,"SoundDuration":182665,"Delta":76281193},{"NoteNumber":93,"Velocity":80,"Duration":183775,"SoundDuration":183775,"Delta":76447215},{"NoteNumber":81,"Velocity":68,"Duration":183775,"SoundDuration":183775,"Delta":76447215},{"NoteNumber":69,"Velocity":56,"Duration":183775,"SoundDuration":183775,"Delta":76447215},{"NoteNumber":57,"Velocity":47,"Duration":183775,"SoundDuration":183775,"Delta":76447215},{"NoteNumber":92,"Velocity":79,"Duration":184968,"SoundDuration":184968,"Delta":76614207},{"NoteNumber":80,"Velocity":67,"Duration":184968,"SoundDuration":184968,"Delta":76614207},{"NoteNumber":68,"Velocity":55,"Duration":184968,"SoundDuration":184968,"Delta":76614207},{"NoteNumber":56,"Velocity":46,"Duration":184968,"SoundDuration":184968,"Delta":76614207},{"NoteNumber":88,"Velocity":77,"Duration":185222,"SoundDuration":185222,"Delta":76782322},{"NoteNumber":76,"Velocity":65,"Duration":185222,"SoundDuration":185222,"Delta":76782322},{"NoteNumber":64,"Velocity":53,"Duration":185222,"SoundDuration":185222,"Delta":76782322},{"NoteNumber":52,"Velocity":45,"Duration":185222,"SoundDuration":185222,"Delta":76782322},{"NoteNumber":89,"Velocity":80,"Duration":181376,"SoundDuration":181376,"Delta":76951107},{"NoteNumber":77,"Velocity":68,"Duration":181376,"SoundDuration":181376,"Delta":76951107},{"NoteNumber":80,"Velocity":68,"Duration":181376,"SoundDuration":181376,"Delta":76951107},{"NoteNumber":83,"Velocity":68,"Duration":181376,"SoundDuration":181376,"Delta":76951107},{"NoteNumber":65,"Velocity":59,"Duration":181376,"SoundDuration":181376,"Delta":76951107},{"NoteNumber":53,"Velocity":50,"Duration":181376,"SoundDuration":181376,"Delta":76951107},{"NoteNumber":56,"Velocity":50,"Duration":181376,"SoundDuration":181376,"Delta":76951107},{"NoteNumber":59,"Velocity":50,"Duration":181376,"SoundDuration":181376,"Delta":76951107},{"NoteNumber":88,"Velocity":77,"Duration":182884,"SoundDuration":182884,"Delta":77115909},{"NoteNumber":76,"Velocity":65,"Duration":182884,"SoundDuration":182884,"Delta":77115909},{"NoteNumber":64,"Velocity":58,"Duration":182884,"SoundDuration":182884,"Delta":77115909},{"NoteNumber":52,"Velocity":49,"Duration":182884,"SoundDuration":182884,"Delta":77115909},{"NoteNumber":86,"Velocity":75,"Duration":184417,"SoundDuration":184417,"Delta":77282080},{"NoteNumber":74,"Velocity":63,"Duration":184417,"SoundDuration":184417,"Delta":77282080},{"NoteNumber":62,"Velocity":56,"Duration":184417,"SoundDuration":184417,"Delta":77282080},{"NoteNumber":50,"Velocity":47,"Duration":184417,"SoundDuration":184417,"Delta":77282080},{"NoteNumber":84,"Velocity":73,"Duration":185709,"SoundDuration":185709,"Delta":77449644},{"NoteNumber":72,"Velocity":62,"Duration":185709,"SoundDuration":185709,"Delta":77449644},{"NoteNumber":60,"Velocity":55,"Duration":185709,"SoundDuration":185709,"Delta":77449644},{"NoteNumber":48,"Velocity":46,"Duration":185709,"SoundDuration":185709,"Delta":77449644},{"NoteNumber":83,"Velocity":72,"Duration":185920,"SoundDuration":185920,"Delta":77618571},{"NoteNumber":71,"Velocity":61,"Duration":185920,"SoundDuration":185920,"Delta":77618571},{"NoteNumber":59,"Velocity":53,"Duration":185920,"SoundDuration":185920,"Delta":77618571},{"NoteNumber":47,"Velocity":45,"Duration":185920,"SoundDuration":185920,"Delta":77618571},{"NoteNumber":81,"Velocity":70,"Duration":189086,"SoundDuration":189086,"Delta":77787452},{"NoteNumber":69,"Velocity":59,"Duration":189086,"SoundDuration":189086,"Delta":77787452},{"NoteNumber":57,"Velocity":51,"Duration":189086,"SoundDuration":189086,"Delta":77787452},{"NoteNumber":45,"Velocity":43,"Duration":189086,"SoundDuration":189086,"Delta":77787452},{"NoteNumber":80,"Velocity":68,"Duration":192042,"SoundDuration":192042,"Delta":77959204},{"NoteNumber":68,"Velocity":57,"Duration":192042,"SoundDuration":192042,"Delta":77959204},{"NoteNumber":56,"Velocity":50,"Duration":192042,"SoundDuration":192042,"Delta":77959204},{"NoteNumber":44,"Velocity":42,"Duration":192042,"SoundDuration":192042,"Delta":77959204},{"NoteNumber":76,"Velocity":67,"Duration":176902,"SoundDuration":176902,"Delta":78133651},{"NoteNumber":64,"Velocity":56,"Duration":176902,"SoundDuration":176902,"Delta":78133651},{"NoteNumber":52,"Velocity":48,"Duration":176902,"SoundDuration":176902,"Delta":78133651},{"NoteNumber":40,"Velocity":40,"Duration":176902,"SoundDuration":176902,"Delta":78133651},{"NoteNumber":64,"Velocity":67,"Duration":171428,"SoundDuration":171428,"Delta":78310553},{"NoteNumber":76,"Velocity":67,"Duration":171428,"SoundDuration":171428,"Delta":78310553},{"NoteNumber":69,"Velocity":72,"Duration":171428,"SoundDuration":171428,"Delta":78310553},{"NoteNumber":57,"Velocity":65,"Duration":171428,"SoundDuration":171428,"Delta":78310553},{"NoteNumber":45,"Velocity":55,"Duration":171428,"SoundDuration":171428,"Delta":78310553},{"NoteNumber":72,"Velocity":66,"Duration":85714,"SoundDuration":85714,"Delta":78481982},{"NoteNumber":60,"Velocity":59,"Duration":85714,"SoundDuration":85714,"Delta":78481982},{"NoteNumber":48,"Velocity":50,"Duration":85714,"SoundDuration":85714,"Delta":78481982},{"NoteNumber":64,"Velocity":67,"Duration":171428,"SoundDuration":171428,"Delta":78653410},{"NoteNumber":76,"Velocity":67,"Duration":171428,"SoundDuration":171428,"Delta":78653410},{"NoteNumber":68,"Velocity":73,"Duration":171428,"SoundDuration":171428,"Delta":78653410},{"NoteNumber":56,"Velocity":66,"Duration":171428,"SoundDuration":171428,"Delta":78653410},{"NoteNumber":44,"Velocity":56,"Duration":171428,"SoundDuration":171428,"Delta":78653410},{"NoteNumber":71,"Velocity":72,"Duration":88365,"SoundDuration":88365,"Delta":78824839},{"NoteNumber":59,"Velocity":60,"Duration":88365,"SoundDuration":88365,"Delta":78824839},{"NoteNumber":47,"Velocity":51,"Duration":88365,"SoundDuration":88365,"Delta":78824839},{"NoteNumber":81,"Velocity":72,"Duration":170697,"SoundDuration":170697,"Delta":79001569},{"NoteNumber":69,"Velocity":61,"Duration":170697,"SoundDuration":170697,"Delta":79001569},{"NoteNumber":72,"Velocity":61,"Duration":170697,"SoundDuration":170697,"Delta":79001569},{"NoteNumber":57,"Velocity":65,"Duration":170697,"SoundDuration":170697,"Delta":79001569},{"NoteNumber":45,"Velocity":55,"Duration":170697,"SoundDuration":170697,"Delta":79001569},{"NoteNumber":48,"Velocity":55,"Duration":170697,"SoundDuration":170697,"Delta":79001569},{"NoteNumber":52,"Velocity":55,"Duration":170697,"SoundDuration":170697,"Delta":79001569},{"NoteNumber":84,"Velocity":66,"Duration":85348,"SoundDuration":85348,"Delta":79172266},{"NoteNumber":72,"Velocity":56,"Duration":85348,"SoundDuration":85348,"Delta":79172266},{"NoteNumber":76,"Velocity":56,"Duration":85348,"SoundDuration":85348,"Delta":79172266},{"NoteNumber":80,"Velocity":73,"Duration":170697,"SoundDuration":170697,"Delta":79342963},{"NoteNumber":68,"Velocity":62,"Duration":170697,"SoundDuration":170697,"Delta":79342963},{"NoteNumber":71,"Velocity":62,"Duration":170697,"SoundDuration":170697,"Delta":79342963},{"NoteNumber":52,"Velocity":65,"Duration":170697,"SoundDuration":170697,"Delta":79342963},{"NoteNumber":40,"Velocity":55,"Duration":170697,"SoundDuration":170697,"Delta":79342963},{"NoteNumber":44,"Velocity":55,"Duration":170697,"SoundDuration":170697,"Delta":79342963},{"NoteNumber":47,"Velocity":55,"Duration":170697,"SoundDuration":170697,"Delta":79342963},{"NoteNumber":83,"Velocity":72,"Duration":88757,"SoundDuration":88757,"Delta":79513660},{"NoteNumber":71,"Velocity":61,"Duration":88757,"SoundDuration":88757,"Delta":79513660},{"NoteNumber":74,"Velocity":61,"Duration":88757,"SoundDuration":88757,"Delta":79513660},{"NoteNumber":81,"Velocity":85,"Duration":179104,"SoundDuration":179104,"Delta":79691175},{"NoteNumber":69,"Velocity":71,"Duration":179104,"SoundDuration":179104,"Delta":79691175},{"NoteNumber":72,"Velocity":71,"Duration":179104,"SoundDuration":179104,"Delta":79691175},{"NoteNumber":57,"Velocity":73,"Duration":179104,"SoundDuration":179104,"Delta":79691175},{"NoteNumber":45,"Velocity":61,"Duration":179104,"SoundDuration":179104,"Delta":79691175},{"NoteNumber":48,"Velocity":61,"Duration":179104,"SoundDuration":179104,"Delta":79691175},{"NoteNumber":52,"Velocity":61,"Duration":179104,"SoundDuration":179104,"Delta":79691175},{"NoteNumber":89,"Velocity":91,"Duration":179104,"SoundDuration":179104,"Delta":80407593},{"NoteNumber":77,"Velocity":76,"Duration":179104,"SoundDuration":179104,"Delta":80407593},{"NoteNumber":81,"Velocity":76,"Duration":179104,"SoundDuration":179104,"Delta":80407593},{"NoteNumber":86,"Velocity":76,"Duration":179104,"SoundDuration":179104,"Delta":80407593},{"NoteNumber":50,"Velocity":74,"Duration":179104,"SoundDuration":179104,"Delta":80407593},{"NoteNumber":38,"Velocity":61,"Duration":179104,"SoundDuration":179104,"Delta":80407593},{"NoteNumber":41,"Velocity":61,"Duration":179104,"SoundDuration":179104,"Delta":80407593},{"NoteNumber":45,"Velocity":61,"Duration":179104,"SoundDuration":179104,"Delta":80407593},{"NoteNumber":93,"Velocity":98,"Duration":716418,"SoundDuration":716418,"Delta":81124011},{"NoteNumber":81,"Velocity":82,"Duration":716418,"SoundDuration":716418,"Delta":81124011},{"NoteNumber":84,"Velocity":82,"Duration":716418,"SoundDuration":716418,"Delta":81124011},{"NoteNumber":88,"Velocity":82,"Duration":716418,"SoundDuration":716418,"Delta":81124011},{"NoteNumber":45,"Velocity":76,"Duration":716418,"SoundDuration":716418,"Delta":81124011},{"NoteNumber":33,"Velocity":64,"Duration":716418,"SoundDuration":716418,"Delta":81124011},{"NoteNumber":36,"Velocity":64,"Duration":716418,"SoundDuration":716418,"Delta":81124011},{"NoteNumber":40,"Velocity":64,"Duration":716418,"SoundDuration":716418,"Delta":81124011},{"NoteNumber":64,"Velocity":80,"Duration":96930,"SoundDuration":96930,"Delta":82489430},{"NoteNumber":64,"Velocity":88,"Duration":189274,"SoundDuration":189274,"Delta":82586360},{"NoteNumber":68,"Velocity":80,"Duration":193860,"SoundDuration":193860,"Delta":83343458},{"NoteNumber":64,"Velocity":68,"Duration":193860,"SoundDuration":193860,"Delta":83343458},{"NoteNumber":61,"Velocity":69,"Duration":193860,"SoundDuration":193860,"Delta":83343458},{"NoteNumber":71,"Velocity":88,"Duration":1431694,"SoundDuration":1431694,"Delta":84118902},{"NoteNumber":63,"Velocity":74,"Duration":1431694,"SoundDuration":1431694,"Delta":84118902},{"NoteNumber":68,"Velocity":74,"Duration":1431694,"SoundDuration":1431694,"Delta":84118902},{"NoteNumber":56,"Velocity":69,"Duration":1431694,"SoundDuration":1431694,"Delta":84118902},{"NoteNumber":76,"Velocity":80,"Duration":93750,"SoundDuration":93750,"Delta":85550596},{"NoteNumber":64,"Velocity":68,"Duration":93750,"SoundDuration":93750,"Delta":85550596},{"NoteNumber":68,"Velocity":68,"Duration":93750,"SoundDuration":93750,"Delta":85550596},{"NoteNumber":61,"Velocity":59,"Duration":93750,"SoundDuration":93750,"Delta":85550596},{"NoteNumber":49,"Velocity":49,"Duration":93750,"SoundDuration":93750,"Delta":85550596},{"NoteNumber":68,"Velocity":74,"Duration":656250,"SoundDuration":656250,"Delta":85644346},{"NoteNumber":71,"Velocity":88,"Duration":656250,"SoundDuration":656250,"Delta":85644346},{"NoteNumber":63,"Velocity":74,"Duration":656250,"SoundDuration":656250,"Delta":85644346},{"NoteNumber":56,"Velocity":66,"Duration":656250,"SoundDuration":656250,"Delta":85644346},{"NoteNumber":76,"Velocity":82,"Duration":93750,"SoundDuration":93750,"Delta":86300596},{"NoteNumber":64,"Velocity":69,"Duration":93750,"SoundDuration":93750,"Delta":86300596},{"NoteNumber":68,"Velocity":69,"Duration":93750,"SoundDuration":93750,"Delta":86300596},{"NoteNumber":61,"Velocity":60,"Duration":93750,"SoundDuration":93750,"Delta":86300596},{"NoteNumber":49,"Velocity":50,"Duration":93750,"SoundDuration":93750,"Delta":86300596},{"NoteNumber":71,"Velocity":88,"Duration":656250,"SoundDuration":656250,"Delta":86394346},{"NoteNumber":63,"Velocity":74,"Duration":656250,"SoundDuration":656250,"Delta":86394346},{"NoteNumber":68,"Velocity":74,"Duration":656250,"SoundDuration":656250,"Delta":86394346},{"NoteNumber":56,"Velocity":68,"Duration":656250,"SoundDuration":656250,"Delta":86394346},{"NoteNumber":76,"Velocity":81,"Duration":93750,"SoundDuration":93750,"Delta":87050596},{"NoteNumber":64,"Velocity":68,"Duration":93750,"SoundDuration":93750,"Delta":87050596},{"NoteNumber":68,"Velocity":68,"Duration":93750,"SoundDuration":93750,"Delta":87050596},{"NoteNumber":61,"Velocity":61,"Duration":93750,"SoundDuration":93750,"Delta":87050596},{"NoteNumber":49,"Velocity":51,"Duration":93750,"SoundDuration":93750,"Delta":87050596},{"NoteNumber":71,"Velocity":88,"Duration":1578891,"SoundDuration":1578891,"Delta":87144346},{"NoteNumber":63,"Velocity":74,"Duration":1578891,"SoundDuration":1578891,"Delta":87144346},{"NoteNumber":68,"Velocity":74,"Duration":1578891,"SoundDuration":1578891,"Delta":87144346},{"NoteNumber":56,"Velocity":83,"Duration":190174,"SoundDuration":190174,"Delta":87144346},{"NoteNumber":44,"Velocity":70,"Duration":190174,"SoundDuration":190174,"Delta":87144346},{"NoteNumber":55,"Velocity":83,"Duration":191083,"SoundDuration":191083,"Delta":87524695},{"NoteNumber":43,"Velocity":70,"Duration":191083,"SoundDuration":191083,"Delta":87524695},{"NoteNumber":54,"Velocity":83,"Duration":194182,"SoundDuration":194182,"Delta":87906408},{"NoteNumber":42,"Velocity":70,"Duration":194182,"SoundDuration":194182,"Delta":87906408},{"NoteNumber":53,"Velocity":83,"Duration":208021,"SoundDuration":208021,"Delta":88301436},{"NoteNumber":41,"Velocity":70,"Duration":208021,"SoundDuration":208021,"Delta":88301436},{"NoteNumber":76,"Velocity":89,"Duration":152801,"SoundDuration":152801,"Delta":88723238},{"NoteNumber":62,"Velocity":74,"Duration":152801,"SoundDuration":152801,"Delta":88723238},{"NoteNumber":64,"Velocity":74,"Duration":152801,"SoundDuration":152801,"Delta":88723238},{"NoteNumber":68,"Velocity":74,"Duration":152801,"SoundDuration":152801,"Delta":88723238},{"NoteNumber":71,"Velocity":74,"Duration":152801,"SoundDuration":152801,"Delta":88723238},{"NoteNumber":52,"Velocity":77,"Duration":152801,"SoundDuration":152801,"Delta":88723238},{"NoteNumber":40,"Velocity":64,"Duration":152801,"SoundDuration":152801,"Delta":88723238},{"NoteNumber":76,"Velocity":50,"Duration":359819,"SoundDuration":359819,"Delta":89945648},{"NoteNumber":84,"Velocity":57,"Duration":167832,"SoundDuration":167832,"Delta":90305468},{"NoteNumber":57,"Velocity":40,"Duration":167832,"SoundDuration":167832,"Delta":90305468},{"NoteNumber":69,"Velocity":29,"Duration":111888,"SoundDuration":111888,"Delta":90417356},{"NoteNumber":88,"Velocity":50,"Duration":167831,"SoundDuration":167831,"Delta":90473300},{"NoteNumber":71,"Velocity":31,"Duration":111887,"SoundDuration":111887,"Delta":90529244},{"NoteNumber":84,"Velocity":55,"Duration":170697,"SoundDuration":170697,"Delta":90641132},{"NoteNumber":76,"Velocity":40,"Duration":170697,"SoundDuration":170697,"Delta":90641132},{"NoteNumber":72,"Velocity":32,"Duration":113798,"SoundDuration":113798,"Delta":90641132},{"NoteNumber":71,"Velocity":33,"Duration":119107,"SoundDuration":119107,"Delta":90754930},{"NoteNumber":77,"Velocity":40,"Duration":93312,"SoundDuration":93312,"Delta":90811829},{"NoteNumber":69,"Velocity":32,"Duration":124416,"SoundDuration":124416,"Delta":90874037},{"NoteNumber":83,"Velocity":55,"Duration":167832,"SoundDuration":167832,"Delta":90998454},{"NoteNumber":76,"Velocity":40,"Duration":335663,"SoundDuration":335663,"Delta":90998454},{"NoteNumber":55,"Velocity":40,"Duration":167832,"SoundDuration":167832,"Delta":90998454},{"NoteNumber":67,"Velocity":32,"Duration":111888,"SoundDuration":111888,"Delta":91110342},{"NoteNumber":86,"Velocity":50,"Duration":167831,"SoundDuration":167831,"Delta":91166286},{"NoteNumber":69,"Velocity":33,"Duration":111887,"SoundDuration":111887,"Delta":91222230},{"NoteNumber":83,"Velocity":53,"Duration":171428,"SoundDuration":171428,"Delta":91334118},{"NoteNumber":74,"Velocity":40,"Duration":171428,"SoundDuration":171428,"Delta":91334118},{"NoteNumber":71,"Velocity":34,"Duration":114285,"SoundDuration":114285,"Delta":91334118},{"NoteNumber":69,"Velocity":34,"Duration":119351,"SoundDuration":119351,"Delta":91448404},{"NoteNumber":76,"Velocity":40,"Duration":93312,"SoundDuration":93312,"Delta":91505546},{"NoteNumber":67,"Velocity":31,"Duration":124416,"SoundDuration":124416,"Delta":91567755},{"NoteNumber":81,"Velocity":54,"Duration":167832,"SoundDuration":167832,"Delta":91692171},{"NoteNumber":74,"Velocity":40,"Duration":335663,"SoundDuration":335663,"Delta":91692171},{"NoteNumber":53,"Velocity":40,"Duration":167832,"SoundDuration":167832,"Delta":91692171},{"NoteNumber":65,"Velocity":31,"Duration":111888,"SoundDuration":111888,"Delta":91804059},{"NoteNumber":84,"Velocity":50,"Duration":167831,"SoundDuration":167831,"Delta":91860003},{"NoteNumber":67,"Velocity":33,"Duration":111887,"SoundDuration":111887,"Delta":91915947},{"NoteNumber":81,"Velocity":57,"Duration":174418,"SoundDuration":174418,"Delta":92027835},{"NoteNumber":72,"Velocity":40,"Duration":174418,"SoundDuration":174418,"Delta":92027835},{"NoteNumber":69,"Velocity":34,"Duration":116279,"SoundDuration":116279,"Delta":92027835},{"NoteNumber":67,"Velocity":34,"Duration":120058,"SoundDuration":120058,"Delta":92144114},{"NoteNumber":74,"Velocity":40,"Duration":92879,"SoundDuration":92879,"Delta":92202254},{"NoteNumber":65,"Velocity":32,"Duration":123839,"SoundDuration":123839,"Delta":92264173},{"NoteNumber":80,"Velocity":55,"Duration":168539,"SoundDuration":168539,"Delta":92388012},{"NoteNumber":72,"Velocity":40,"Duration":337079,"SoundDuration":337079,"Delta":92388012},{"NoteNumber":52,"Velocity":40,"Duration":168539,"SoundDuration":168539,"Delta":92388012},{"NoteNumber":64,"Velocity":31,"Duration":112359,"SoundDuration":112359,"Delta":92500372},{"NoteNumber":83,"Velocity":50,"Duration":168539,"SoundDuration":168539,"Delta":92556552},{"NoteNumber":65,"Velocity":32,"Duration":112359,"SoundDuration":112359,"Delta":92612732},{"NoteNumber":80,"Velocity":55,"Duration":173661,"SoundDuration":173661,"Delta":92725091},{"NoteNumber":71,"Velocity":40,"Duration":173661,"SoundDuration":173661,"Delta":92725091},{"NoteNumber":68,"Velocity":33,"Duration":115774,"SoundDuration":115774,"Delta":92725091},{"NoteNumber":65,"Velocity":32,"Duration":119520,"SoundDuration":119520,"Delta":92840866},{"NoteNumber":72,"Velocity":40,"Duration":92449,"SoundDuration":92449,"Delta":92898753},{"NoteNumber":64,"Velocity":30,"Duration":123266,"SoundDuration":123266,"Delta":92960386},{"NoteNumber":77,"Velocity":54,"Duration":168539,"SoundDuration":168539,"Delta":93083653},{"NoteNumber":71,"Velocity":40,"Duration":337079,"SoundDuration":337079,"Delta":93083653},{"NoteNumber":50,"Velocity":40,"Duration":168539,"SoundDuration":168539,"Delta":93083653},{"NoteNumber":62,"Velocity":30,"Duration":112359,"SoundDuration":112359,"Delta":93196013},{"NoteNumber":81,"Velocity":50,"Duration":168539,"SoundDuration":168539,"Delta":93252192},{"NoteNumber":64,"Velocity":31,"Duration":112359,"SoundDuration":112359,"Delta":93308372},{"NoteNumber":77,"Velocity":54,"Duration":175182,"SoundDuration":175182,"Delta":93420732},{"NoteNumber":69,"Velocity":40,"Duration":175182,"SoundDuration":175182,"Delta":93420732},{"NoteNumber":65,"Velocity":32,"Duration":116788,"SoundDuration":116788,"Delta":93420732},{"NoteNumber":62,"Velocity":32,"Duration":122702,"SoundDuration":122702,"Delta":93537520},{"NoteNumber":71,"Velocity":40,"Duration":96462,"SoundDuration":96462,"Delta":93595914},{"NoteNumber":60,"Velocity":30,"Duration":128617,"SoundDuration":128617,"Delta":93660223},{"NoteNumber":76,"Velocity":63,"Duration":507172,"SoundDuration":507172,"Delta":93788840},{"NoteNumber":68,"Velocity":48,"Duration":167130,"SoundDuration":167130,"Delta":93788840},{"NoteNumber":52,"Velocity":43,"Duration":334261,"SoundDuration":334261,"Delta":93788840},{"NoteNumber":59,"Velocity":43,"Duration":167130,"SoundDuration":167130,"Delta":93788840},{"NoteNumber":71,"Velocity":45,"Duration":167130,"SoundDuration":167130,"Delta":93955971},{"NoteNumber":64,"Velocity":40,"Duration":167130,"SoundDuration":167130,"Delta":93955971},{"NoteNumber":68,"Velocity":50,"Duration":172910,"SoundDuration":172910,"Delta":94123102},{"NoteNumber":59,"Velocity":45,"Duration":172910,"SoundDuration":172910,"Delta":94123102},{"NoteNumber":71,"Velocity":45,"Duration":177514,"SoundDuration":177514,"Delta":94296013},{"NoteNumber":80,"Velocity":60,"Duration":177514,"SoundDuration":177514,"Delta":94296013},{"NoteNumber":64,"Velocity":40,"Duration":177514,"SoundDuration":177514,"Delta":94296013},{"NoteNumber":76,"Velocity":66,"Duration":511617,"SoundDuration":511617,"Delta":94473528},{"NoteNumber":68,"Velocity":48,"Duration":167832,"SoundDuration":167832,"Delta":94473528},{"NoteNumber":52,"Velocity":43,"Duration":335663,"SoundDuration":335663,"Delta":94473528},{"NoteNumber":59,"Velocity":43,"Duration":167832,"SoundDuration":167832,"Delta":94473528},{"NoteNumber":71,"Velocity":45,"Duration":167831,"SoundDuration":167831,"Delta":94641360},{"NoteNumber":64,"Velocity":40,"Duration":167831,"SoundDuration":167831,"Delta":94641360},{"NoteNumber":68,"Velocity":50,"Duration":175953,"SoundDuration":175953,"Delta":94809192},{"NoteNumber":59,"Velocity":45,"Duration":175953,"SoundDuration":175953,"Delta":94809192},{"NoteNumber":71,"Velocity":45,"Duration":179910,"SoundDuration":179910,"Delta":94985145},{"NoteNumber":80,"Velocity":57,"Duration":179910,"SoundDuration":179910,"Delta":94985145},{"NoteNumber":64,"Velocity":40,"Duration":179910,"SoundDuration":179910,"Delta":94985145},{"NoteNumber":76,"Velocity":67,"Duration":167832,"SoundDuration":167832,"Delta":95165055},{"NoteNumber":68,"Velocity":56,"Duration":167832,"SoundDuration":167832,"Delta":95165055},{"NoteNumber":52,"Velocity":43,"Duration":335663,"SoundDuration":335663,"Delta":95165055},{"NoteNumber":59,"Velocity":43,"Duration":167832,"SoundDuration":167832,"Delta":95165055},{"NoteNumber":71,"Velocity":60,"Duration":83916,"SoundDuration":83916,"Delta":95332887},{"NoteNumber":80,"Velocity":60,"Duration":83916,"SoundDuration":83916,"Delta":95332887},{"NoteNumber":64,"Velocity":40,"Duration":83916,"SoundDuration":83916,"Delta":95332887},{"NoteNumber":76,"Velocity":68,"Duration":172910,"SoundDuration":172910,"Delta":95500719},{"NoteNumber":68,"Velocity":57,"Duration":172910,"SoundDuration":172910,"Delta":95500719},{"NoteNumber":52,"Velocity":43,"Duration":351216,"SoundDuration":351216,"Delta":95500719},{"NoteNumber":59,"Velocity":45,"Duration":172910,"SoundDuration":172910,"Delta":95500719},{"NoteNumber":80,"Velocity":62,"Duration":89152,"SoundDuration":89152,"Delta":95673629},{"NoteNumber":71,"Velocity":52,"Duration":89152,"SoundDuration":89152,"Delta":95673629},{"NoteNumber":64,"Velocity":40,"Duration":89152,"SoundDuration":89152,"Delta":95673629},{"NoteNumber":76,"Velocity":71,"Duration":88991,"SoundDuration":88991,"Delta":95851935},{"NoteNumber":68,"Velocity":60,"Duration":349805,"SoundDuration":349805,"Delta":95851935},{"NoteNumber":59,"Velocity":56,"Duration":88991,"SoundDuration":88991,"Delta":95851935},{"NoteNumber":52,"Velocity":47,"Duration":88991,"SoundDuration":88991,"Delta":95851935},{"NoteNumber":71,"Velocity":62,"Duration":85714,"SoundDuration":85714,"Delta":96030312},{"NoteNumber":68,"Velocity":63,"Duration":338529,"SoundDuration":338529,"Delta":96201741},{"NoteNumber":64,"Velocity":60,"Duration":83916,"SoundDuration":83916,"Delta":96201741},{"NoteNumber":52,"Velocity":51,"Duration":83916,"SoundDuration":83916,"Delta":96201741},{"NoteNumber":56,"Velocity":51,"Duration":83916,"SoundDuration":83916,"Delta":96201741},{"NoteNumber":59,"Velocity":51,"Duration":83916,"SoundDuration":83916,"Delta":96201741},{"NoteNumber":71,"Velocity":64,"Duration":85348,"SoundDuration":85348,"Delta":96369573},{"NoteNumber":76,"Velocity":67,"Duration":83217,"SoundDuration":83217,"Delta":96540270},{"NoteNumber":64,"Velocity":63,"Duration":337864,"SoundDuration":337864,"Delta":96540270},{"NoteNumber":56,"Velocity":68,"Duration":83217,"SoundDuration":83217,"Delta":96540270},{"NoteNumber":59,"Velocity":68,"Duration":83217,"SoundDuration":83217,"Delta":96540270},{"NoteNumber":47,"Velocity":57,"Duration":83217,"SoundDuration":83217,"Delta":96540270},{"NoteNumber":52,"Velocity":57,"Duration":83217,"SoundDuration":83217,"Delta":96540270},{"NoteNumber":71,"Velocity":72,"Duration":85714,"SoundDuration":85714,"Delta":96706705},{"NoteNumber":76,"Velocity":79,"Duration":88365,"SoundDuration":88365,"Delta":96878134},{"NoteNumber":64,"Velocity":67,"Duration":88365,"SoundDuration":88365,"Delta":96878134},{"NoteNumber":56,"Velocity":75,"Duration":88365,"SoundDuration":88365,"Delta":96878134},{"NoteNumber":44,"Velocity":63,"Duration":88365,"SoundDuration":88365,"Delta":96878134},{"NoteNumber":47,"Velocity":63,"Duration":88365,"SoundDuration":88365,"Delta":96878134},{"NoteNumber":52,"Velocity":63,"Duration":88365,"SoundDuration":88365,"Delta":96878134},{"NoteNumber":80,"Velocity":80,"Duration":88365,"SoundDuration":88365,"Delta":97054864},{"NoteNumber":68,"Velocity":68,"Duration":88365,"SoundDuration":88365,"Delta":97054864},{"NoteNumber":71,"Velocity":79,"Duration":716418,"SoundDuration":716418,"Delta":97231595},{"NoteNumber":76,"Velocity":79,"Duration":716418,"SoundDuration":716418,"Delta":97231595},{"NoteNumber":83,"Velocity":93,"Duration":716418,"SoundDuration":716418,"Delta":97231595},{"NoteNumber":80,"Velocity":79,"Duration":716418,"SoundDuration":716418,"Delta":97231595},{"NoteNumber":47,"Velocity":60,"Duration":716418,"SoundDuration":716418,"Delta":97231595},{"NoteNumber":44,"Velocity":60,"Duration":716418,"SoundDuration":716418,"Delta":97231595},{"NoteNumber":52,"Velocity":70,"Duration":716418,"SoundDuration":716418,"Delta":97231595},{"NoteNumber":40,"Velocity":60,"Duration":716418,"SoundDuration":716418,"Delta":97231595},{"NoteNumber":88,"Velocity":99,"Duration":179104,"SoundDuration":179104,"Delta":97948013},{"NoteNumber":76,"Velocity":82,"Duration":179104,"SoundDuration":179104,"Delta":97948013},{"NoteNumber":80,"Velocity":82,"Duration":179104,"SoundDuration":179104,"Delta":97948013},{"NoteNumber":83,"Velocity":82,"Duration":179104,"SoundDuration":179104,"Delta":97948013},{"NoteNumber":64,"Velocity":74,"Duration":179104,"SoundDuration":179104,"Delta":97948013},{"NoteNumber":59,"Velocity":62,"Duration":179104,"SoundDuration":179104,"Delta":97948013},{"NoteNumber":56,"Velocity":62,"Duration":179104,"SoundDuration":179104,"Delta":97948013},{"NoteNumber":52,"Velocity":62,"Duration":179104,"SoundDuration":179104,"Delta":97948013},{"NoteNumber":76,"Velocity":75,"Duration":111420,"SoundDuration":111420,"Delta":98306222},{"NoteNumber":52,"Velocity":67,"Duration":111420,"SoundDuration":111420,"Delta":98306222},{"NoteNumber":78,"Velocity":78,"Duration":111420,"SoundDuration":111420,"Delta":98417642},{"NoteNumber":54,"Velocity":71,"Duration":111420,"SoundDuration":111420,"Delta":98417642},{"NoteNumber":80,"Velocity":80,"Duration":111420,"SoundDuration":111420,"Delta":98529063},{"NoteNumber":56,"Velocity":75,"Duration":111420,"SoundDuration":111420,"Delta":98529063},{"NoteNumber":69,"Velocity":76,"Duration":174418,"SoundDuration":174418,"Delta":98640484},{"NoteNumber":81,"Velocity":90,"Duration":174418,"SoundDuration":174418,"Delta":98640484},{"NoteNumber":57,"Velocity":70,"Duration":174418,"SoundDuration":174418,"Delta":98640484},{"NoteNumber":45,"Velocity":59,"Duration":174418,"SoundDuration":174418,"Delta":98640484},{"NoteNumber":72,"Velocity":76,"Duration":174418,"SoundDuration":174418,"Delta":98644844},{"NoteNumber":71,"Velocity":63,"Duration":82531,"SoundDuration":82531,"Delta":98989321},{"NoteNumber":68,"Velocity":63,"Duration":82531,"SoundDuration":82531,"Delta":98989321},{"NoteNumber":80,"Velocity":74,"Duration":82531,"SoundDuration":82531,"Delta":98989321},{"NoteNumber":53,"Velocity":56,"Duration":82531,"SoundDuration":82531,"Delta":98989321},{"NoteNumber":41,"Velocity":47,"Duration":82531,"SoundDuration":82531,"Delta":98989321},{"NoteNumber":71,"Velocity":57,"Duration":86830,"SoundDuration":86830,"Delta":99154383},{"NoteNumber":83,"Velocity":68,"Duration":86830,"SoundDuration":86830,"Delta":99154383},{"NoteNumber":74,"Velocity":57,"Duration":86830,"SoundDuration":86830,"Delta":99154383},{"NoteNumber":69,"Velocity":71,"Duration":169971,"SoundDuration":169971,"Delta":99328044},{"NoteNumber":81,"Velocity":84,"Duration":169971,"SoundDuration":169971,"Delta":99328044},{"NoteNumber":72,"Velocity":71,"Duration":169971,"SoundDuration":169971,"Delta":99328044},{"NoteNumber":57,"Velocity":70,"Duration":169971,"SoundDuration":169971,"Delta":99328044},{"NoteNumber":45,"Velocity":59,"Duration":169971,"SoundDuration":169971,"Delta":99328044},{"NoteNumber":71,"Velocity":61,"Duration":81521,"SoundDuration":81521,"Delta":99667987},{"NoteNumber":68,"Velocity":61,"Duration":81521,"SoundDuration":81521,"Delta":99667987},{"NoteNumber":80,"Velocity":72,"Duration":81521,"SoundDuration":81521,"Delta":99667987},{"NoteNumber":52,"Velocity":56,"Duration":81521,"SoundDuration":81521,"Delta":99667987},{"NoteNumber":40,"Velocity":47,"Duration":81521,"SoundDuration":81521,"Delta":99667987},{"NoteNumber":74,"Velocity":56,"Duration":86455,"SoundDuration":86455,"Delta":99831031},{"NoteNumber":83,"Velocity":67,"Duration":86455,"SoundDuration":86455,"Delta":99831031},{"NoteNumber":71,"Velocity":56,"Duration":86455,"SoundDuration":86455,"Delta":99831031},{"NoteNumber":69,"Velocity":71,"Duration":91603,"SoundDuration":91603,"Delta":100003941},{"NoteNumber":81,"Velocity":84,"Duration":91603,"SoundDuration":91603,"Delta":100003941},{"NoteNumber":72,"Velocity":71,"Duration":91603,"SoundDuration":91603,"Delta":100003941},{"NoteNumber":57,"Velocity":70,"Duration":91603,"SoundDuration":91603,"Delta":100003941},{"NoteNumber":45,"Velocity":59,"Duration":91603,"SoundDuration":91603,"Delta":100003941},{"NoteNumber":71,"Velocity":61,"Duration":89152,"SoundDuration":89152,"Delta":100370353},{"NoteNumber":68,"Velocity":61,"Duration":89152,"SoundDuration":89152,"Delta":100370353},{"NoteNumber":80,"Velocity":73,"Duration":89152,"SoundDuration":89152,"Delta":100370353},{"NoteNumber":50,"Velocity":61,"Duration":89152,"SoundDuration":89152,"Delta":100370353},{"NoteNumber":38,"Velocity":51,"Duration":89152,"SoundDuration":89152,"Delta":100370353},{"NoteNumber":41,"Velocity":51,"Duration":89152,"SoundDuration":89152,"Delta":100370353},{"NoteNumber":69,"Velocity":70,"Duration":729483,"SoundDuration":729483,"Delta":100726965},{"NoteNumber":72,"Velocity":70,"Duration":729483,"SoundDuration":729483,"Delta":100726965},{"NoteNumber":81,"Velocity":83,"Duration":729483,"SoundDuration":729483,"Delta":100726965},{"NoteNumber":57,"Velocity":70,"Duration":729483,"SoundDuration":729483,"Delta":100726965},{"NoteNumber":45,"Velocity":59,"Duration":729483,"SoundDuration":729483,"Delta":100726965},{"NoteNumber":52,"Velocity":59,"Duration":729483,"SoundDuration":729483,"Delta":100726965},{"NoteNumber":93,"Velocity":75,"Duration":82873,"SoundDuration":82873,"Delta":101456449},{"NoteNumber":81,"Velocity":63,"Duration":82873,"SoundDuration":82873,"Delta":101456449},{"NoteNumber":95,"Velocity":79,"Duration":82873,"SoundDuration":82873,"Delta":101622195},{"NoteNumber":83,"Velocity":67,"Duration":82873,"SoundDuration":82873,"Delta":101622195},{"NoteNumber":96,"Velocity":86,"Duration":512171,"SoundDuration":512171,"Delta":101787941},{"NoteNumber":84,"Velocity":72,"Duration":512171,"SoundDuration":512171,"Delta":101787941},{"NoteNumber":69,"Velocity":75,"Duration":85714,"SoundDuration":85714,"Delta":101787941},{"NoteNumber":57,"Velocity":63,"Duration":85714,"SoundDuration":85714,"Delta":101787941},{"NoteNumber":71,"Velocity":79,"Duration":86455,"SoundDuration":86455,"Delta":101959370},{"NoteNumber":59,"Velocity":67,"Duration":86455,"SoundDuration":86455,"Delta":101959370},{"NoteNumber":72,"Velocity":86,"Duration":488733,"SoundDuration":488733,"Delta":102132280},{"NoteNumber":60,"Velocity":72,"Duration":488733,"SoundDuration":488733,"Delta":102132280},{"NoteNumber":95,"Velocity":74,"Duration":79260,"SoundDuration":79260,"Delta":102300112},{"NoteNumber":83,"Velocity":62,"Duration":79260,"SoundDuration":79260,"Delta":102300112},{"NoteNumber":93,"Velocity":87,"Duration":502349,"SoundDuration":502349,"Delta":102458633},{"NoteNumber":81,"Velocity":73,"Duration":502349,"SoundDuration":502349,"Delta":102458633},{"NoteNumber":71,"Velocity":74,"Duration":84269,"SoundDuration":84269,"Delta":102621014},{"NoteNumber":59,"Velocity":62,"Duration":84269,"SoundDuration":84269,"Delta":102621014},{"NoteNumber":69,"Velocity":87,"Duration":500395,"SoundDuration":500395,"Delta":102789554},{"NoteNumber":57,"Velocity":73,"Duration":500395,"SoundDuration":500395,"Delta":102789554},{"NoteNumber":91,"Velocity":75,"Duration":80213,"SoundDuration":80213,"Delta":102960982},{"NoteNumber":79,"Velocity":63,"Duration":80213,"SoundDuration":80213,"Delta":102960982},{"NoteNumber":89,"Velocity":88,"Duration":505618,"SoundDuration":505618,"Delta":103121410},{"NoteNumber":77,"Velocity":74,"Duration":505618,"SoundDuration":505618,"Delta":103121410},{"NoteNumber":67,"Velocity":75,"Duration":84269,"SoundDuration":84269,"Delta":103289950},{"NoteNumber":55,"Velocity":63,"Duration":84269,"SoundDuration":84269,"Delta":103289950},{"NoteNumber":65,"Velocity":88,"Duration":496098,"SoundDuration":496098,"Delta":103458489},{"NoteNumber":53,"Velocity":74,"Duration":496098,"SoundDuration":496098,"Delta":103458489},{"NoteNumber":88,"Velocity":81,"Duration":80213,"SoundDuration":80213,"Delta":103627029},{"NoteNumber":76,"Velocity":68,"Duration":80213,"SoundDuration":80213,"Delta":103627029},{"NoteNumber":86,"Velocity":81,"Duration":83565,"SoundDuration":83565,"Delta":103787457},{"NoteNumber":74,"Velocity":68,"Duration":83565,"SoundDuration":83565,"Delta":103787457},{"NoteNumber":85,"Velocity":81,"Duration":87209,"SoundDuration":87209,"Delta":103954588},{"NoteNumber":73,"Velocity":68,"Duration":87209,"SoundDuration":87209,"Delta":103954588},{"NoteNumber":52,"Velocity":75,"Duration":87209,"SoundDuration":87209,"Delta":103954588},{"NoteNumber":64,"Velocity":75,"Duration":87209,"SoundDuration":87209,"Delta":103954588},{"NoteNumber":77,"Velocity":76,"Duration":168539,"SoundDuration":168539,"Delta":104129006},{"NoteNumber":74,"Velocity":76,"Duration":168539,"SoundDuration":168539,"Delta":104129006},{"NoteNumber":86,"Velocity":90,"Duration":168539,"SoundDuration":168539,"Delta":104129006},{"NoteNumber":62,"Velocity":70,"Duration":168539,"SoundDuration":168539,"Delta":104129006},{"NoteNumber":50,"Velocity":59,"Duration":168539,"SoundDuration":168539,"Delta":104129006},{"NoteNumber":76,"Velocity":63,"Duration":80862,"SoundDuration":80862,"Delta":104466085},{"NoteNumber":73,"Velocity":63,"Duration":80862,"SoundDuration":80862,"Delta":104466085},{"NoteNumber":85,"Velocity":74,"Duration":80862,"SoundDuration":80862,"Delta":104466085},{"NoteNumber":58,"Velocity":56,"Duration":80862,"SoundDuration":80862,"Delta":104466085},{"NoteNumber":46,"Velocity":47,"Duration":80862,"SoundDuration":80862,"Delta":104466085},{"NoteNumber":76,"Velocity":57,"Duration":86830,"SoundDuration":86830,"Delta":104627810},{"NoteNumber":88,"Velocity":68,"Duration":86830,"SoundDuration":86830,"Delta":104627810},{"NoteNumber":79,"Velocity":57,"Duration":86830,"SoundDuration":86830,"Delta":104627810},{"NoteNumber":74,"Velocity":71,"Duration":168539,"SoundDuration":168539,"Delta":104801472},{"NoteNumber":86,"Velocity":84,"Duration":168539,"SoundDuration":168539,"Delta":104801472},{"NoteNumber":77,"Velocity":71,"Duration":168539,"SoundDuration":168539,"Delta":104801472},{"NoteNumber":62,"Velocity":70,"Duration":168539,"SoundDuration":168539,"Delta":104801472},{"NoteNumber":50,"Velocity":59,"Duration":168539,"SoundDuration":168539,"Delta":104801472},{"NoteNumber":76,"Velocity":61,"Duration":81190,"SoundDuration":81190,"Delta":105138551},{"NoteNumber":73,"Velocity":61,"Duration":81190,"SoundDuration":81190,"Delta":105138551},{"NoteNumber":85,"Velocity":72,"Duration":81190,"SoundDuration":81190,"Delta":105138551},{"NoteNumber":57,"Velocity":56,"Duration":81190,"SoundDuration":81190,"Delta":105138551},{"NoteNumber":45,"Velocity":47,"Duration":81190,"SoundDuration":81190,"Delta":105138551},{"NoteNumber":79,"Velocity":56,"Duration":90361,"SoundDuration":90361,"Delta":105300932},{"NoteNumber":88,"Velocity":67,"Duration":90361,"SoundDuration":90361,"Delta":105300932},{"NoteNumber":76,"Velocity":56,"Duration":90361,"SoundDuration":90361,"Delta":105300932},{"NoteNumber":74,"Velocity":71,"Duration":88365,"SoundDuration":88365,"Delta":105481655},{"NoteNumber":86,"Velocity":84,"Duration":88365,"SoundDuration":88365,"Delta":105481655},{"NoteNumber":77,"Velocity":71,"Duration":88365,"SoundDuration":88365,"Delta":105481655},{"NoteNumber":62,"Velocity":70,"Duration":88365,"SoundDuration":88365,"Delta":105481655},{"NoteNumber":50,"Velocity":59,"Duration":88365,"SoundDuration":88365,"Delta":105481655},{"NoteNumber":76,"Velocity":56,"Duration":89152,"SoundDuration":89152,"Delta":105835116},{"NoteNumber":73,"Velocity":56,"Duration":89152,"SoundDuration":89152,"Delta":105835116},{"NoteNumber":85,"Velocity":67,"Duration":89152,"SoundDuration":89152,"Delta":105835116},{"NoteNumber":55,"Velocity":56,"Duration":89152,"SoundDuration":89152,"Delta":105835116},{"NoteNumber":43,"Velocity":47,"Duration":89152,"SoundDuration":89152,"Delta":105835116},{"NoteNumber":46,"Velocity":47,"Duration":89152,"SoundDuration":89152,"Delta":105835116},{"NoteNumber":74,"Velocity":73,"Duration":736196,"SoundDuration":736196,"Delta":106191728},{"NoteNumber":77,"Velocity":73,"Duration":736196,"SoundDuration":736196,"Delta":106191728},{"NoteNumber":86,"Velocity":87,"Duration":736196,"SoundDuration":736196,"Delta":106191728},{"NoteNumber":62,"Velocity":73,"Duration":736196,"SoundDuration":736196,"Delta":106191728},{"NoteNumber":50,"Velocity":61,"Duration":736196,"SoundDuration":736196,"Delta":106191728},{"NoteNumber":57,"Velocity":61,"Duration":736196,"SoundDuration":736196,"Delta":106191728},{"NoteNumber":98,"Velocity":75,"Duration":83565,"SoundDuration":83565,"Delta":106927924},{"NoteNumber":86,"Velocity":63,"Duration":83565,"SoundDuration":83565,"Delta":106927924},{"NoteNumber":100,"Velocity":79,"Duration":83565,"SoundDuration":83565,"Delta":107095055},{"NoteNumber":88,"Velocity":67,"Duration":83565,"SoundDuration":83565,"Delta":107095055},{"NoteNumber":101,"Velocity":82,"Duration":511512,"SoundDuration":511512,"Delta":107262186},{"NoteNumber":89,"Velocity":69,"Duration":511512,"SoundDuration":511512,"Delta":107262186},{"NoteNumber":74,"Velocity":75,"Duration":86083,"SoundDuration":86083,"Delta":107262186},{"NoteNumber":62,"Velocity":63,"Duration":86083,"SoundDuration":86083,"Delta":107262186},{"NoteNumber":76,"Velocity":79,"Duration":86455,"SoundDuration":86455,"Delta":107434353},{"NoteNumber":64,"Velocity":67,"Duration":86455,"SoundDuration":86455,"Delta":107434353},{"NoteNumber":77,"Velocity":82,"Duration":493945,"SoundDuration":493945,"Delta":107607263},{"NoteNumber":65,"Velocity":69,"Duration":493945,"SoundDuration":493945,"Delta":107607263},{"NoteNumber":100,"Velocity":74,"Duration":80537,"SoundDuration":80537,"Delta":107773699},{"NoteNumber":88,"Velocity":62,"Duration":80537,"SoundDuration":80537,"Delta":107773699},{"NoteNumber":98,"Velocity":83,"Duration":507885,"SoundDuration":507885,"Delta":107934773},{"NoteNumber":86,"Velocity":70,"Duration":507885,"SoundDuration":507885,"Delta":107934773},{"NoteNumber":76,"Velocity":74,"Duration":86455,"SoundDuration":86455,"Delta":108101208},{"NoteNumber":64,"Velocity":62,"Duration":86455,"SoundDuration":86455,"Delta":108101208},{"NoteNumber":74,"Velocity":83,"Duration":500961,"SoundDuration":500961,"Delta":108274119},{"NoteNumber":62,"Velocity":70,"Duration":500961,"SoundDuration":500961,"Delta":108274119},{"NoteNumber":96,"Velocity":75,"Duration":80862,"SoundDuration":80862,"Delta":108442658},{"NoteNumber":84,"Velocity":63,"Duration":80862,"SoundDuration":80862,"Delta":108442658},{"NoteNumber":95,"Velocity":84,"Duration":512090,"SoundDuration":512090,"Delta":108604383},{"NoteNumber":83,"Velocity":71,"Duration":512090,"SoundDuration":512090,"Delta":108604383},{"NoteNumber":72,"Velocity":75,"Duration":85348,"SoundDuration":85348,"Delta":108775080},{"NoteNumber":60,"Velocity":63,"Duration":85348,"SoundDuration":85348,"Delta":108775080},{"NoteNumber":71,"Velocity":84,"Duration":502947,"SoundDuration":502947,"Delta":108945777},{"NoteNumber":59,"Velocity":71,"Duration":502947,"SoundDuration":502947,"Delta":108945777},{"NoteNumber":93,"Velocity":77,"Duration":81855,"SoundDuration":81855,"Delta":109116474},{"NoteNumber":81,"Velocity":65,"Duration":81855,"SoundDuration":81855,"Delta":109116474},{"NoteNumber":92,"Velocity":77,"Duration":84269,"SoundDuration":84269,"Delta":109280185},{"NoteNumber":80,"Velocity":65,"Duration":84269,"SoundDuration":84269,"Delta":109280185},{"NoteNumber":93,"Velocity":77,"Duration":86455,"SoundDuration":86455,"Delta":109448725},{"NoteNumber":81,"Velocity":65,"Duration":86455,"SoundDuration":86455,"Delta":109448725},{"NoteNumber":69,"Velocity":70,"Duration":86455,"SoundDuration":86455,"Delta":109448725},{"NoteNumber":57,"Velocity":59,"Duration":86455,"SoundDuration":86455,"Delta":109448725},{"NoteNumber":92,"Velocity":79,"Duration":82873,"SoundDuration":82873,"Delta":109621635},{"NoteNumber":80,"Velocity":67,"Duration":82873,"SoundDuration":82873,"Delta":109621635},{"NoteNumber":68,"Velocity":72,"Duration":82873,"SoundDuration":82873,"Delta":109621635},{"NoteNumber":56,"Velocity":61,"Duration":82873,"SoundDuration":82873,"Delta":109621635},{"NoteNumber":95,"Velocity":84,"Duration":82873,"SoundDuration":82873,"Delta":109787381},{"NoteNumber":83,"Velocity":71,"Duration":82873,"SoundDuration":82873,"Delta":109787381},{"NoteNumber":71,"Velocity":77,"Duration":82873,"SoundDuration":82873,"Delta":109787381},{"NoteNumber":59,"Velocity":65,"Duration":82873,"SoundDuration":82873,"Delta":109787381},{"NoteNumber":100,"Velocity":88,"Duration":161725,"SoundDuration":161725,"Delta":109953127},{"NoteNumber":88,"Velocity":74,"Duration":161725,"SoundDuration":161725,"Delta":109953127},{"NoteNumber":76,"Velocity":81,"Duration":161725,"SoundDuration":161725,"Delta":109953127},{"NoteNumber":64,"Velocity":68,"Duration":161725,"SoundDuration":161725,"Delta":109953127},{"NoteNumber":64,"Velocity":86,"Duration":694646,"SoundDuration":694646,"Delta":110288514},{"NoteNumber":56,"Velocity":73,"Duration":694646,"SoundDuration":694646,"Delta":110288514},{"NoteNumber":59,"Velocity":73,"Duration":694646,"SoundDuration":694646,"Delta":110288514},{"NoteNumber":52,"Velocity":70,"Duration":694646,"SoundDuration":694646,"Delta":110288514},{"NoteNumber":40,"Velocity":59,"Duration":694646,"SoundDuration":694646,"Delta":110288514},{"NoteNumber":44,"Velocity":59,"Duration":694646,"SoundDuration":694646,"Delta":110288514},{"NoteNumber":47,"Velocity":59,"Duration":694646,"SoundDuration":694646,"Delta":110288514},{"NoteNumber":93,"Velocity":79,"Duration":82873,"SoundDuration":82873,"Delta":110983160},{"NoteNumber":81,"Velocity":67,"Duration":82873,"SoundDuration":82873,"Delta":110983160},{"NoteNumber":69,"Velocity":72,"Duration":82873,"SoundDuration":82873,"Delta":110983160},{"NoteNumber":57,"Velocity":61,"Duration":82873,"SoundDuration":82873,"Delta":110983160},{"NoteNumber":96,"Velocity":84,"Duration":82873,"SoundDuration":82873,"Delta":111148906},{"NoteNumber":84,"Velocity":71,"Duration":82873,"SoundDuration":82873,"Delta":111148906},{"NoteNumber":72,"Velocity":77,"Duration":82873,"SoundDuration":82873,"Delta":111148906},{"NoteNumber":60,"Velocity":65,"Duration":82873,"SoundDuration":82873,"Delta":111148906},{"NoteNumber":100,"Velocity":88,"Duration":161073,"SoundDuration":161073,"Delta":111314652},{"NoteNumber":88,"Velocity":74,"Duration":161073,"SoundDuration":161073,"Delta":111314652},{"NoteNumber":76,"Velocity":81,"Duration":161073,"SoundDuration":161073,"Delta":111314652},{"NoteNumber":64,"Velocity":68,"Duration":161073,"SoundDuration":161073,"Delta":111314652},{"NoteNumber":64,"Velocity":86,"Duration":697673,"SoundDuration":697673,"Delta":111650144},{"NoteNumber":57,"Velocity":73,"Duration":697673,"SoundDuration":697673,"Delta":111650144},{"NoteNumber":60,"Velocity":73,"Duration":697673,"SoundDuration":697673,"Delta":111650144},{"NoteNumber":52,"Velocity":70,"Duration":697673,"SoundDuration":697673,"Delta":111650144},{"NoteNumber":40,"Velocity":59,"Duration":697673,"SoundDuration":697673,"Delta":111650144},{"NoteNumber":45,"Velocity":59,"Duration":697673,"SoundDuration":697673,"Delta":111650144},{"NoteNumber":48,"Velocity":59,"Duration":697673,"SoundDuration":697673,"Delta":111650144},{"NoteNumber":80,"Velocity":73,"Duration":77419,"SoundDuration":77419,"Delta":112347818},{"NoteNumber":71,"Velocity":62,"Duration":77419,"SoundDuration":77419,"Delta":112347818},{"NoteNumber":65,"Velocity":85,"Duration":309676,"SoundDuration":309676,"Delta":112347818},{"NoteNumber":83,"Velocity":65,"Duration":77419,"SoundDuration":77419,"Delta":112502657},{"NoteNumber":74,"Velocity":55,"Duration":77419,"SoundDuration":77419,"Delta":112502657},{"NoteNumber":80,"Velocity":73,"Duration":80862,"SoundDuration":80862,"Delta":112657495},{"NoteNumber":71,"Velocity":62,"Duration":80862,"SoundDuration":80862,"Delta":112657495},{"NoteNumber":64,"Velocity":73,"Duration":80862,"SoundDuration":80862,"Delta":112657495},{"NoteNumber":83,"Velocity":67,"Duration":91603,"SoundDuration":91603,"Delta":112819220},{"NoteNumber":74,"Velocity":56,"Duration":91603,"SoundDuration":91603,"Delta":112819220},{"NoteNumber":53,"Velocity":84,"Duration":335663,"SoundDuration":335663,"Delta":113002426},{"NoteNumber":47,"Velocity":73,"Duration":83916,"SoundDuration":83916,"Delta":113002426},{"NoteNumber":44,"Velocity":62,"Duration":83916,"SoundDuration":83916,"Delta":113002426},{"NoteNumber":50,"Velocity":66,"Duration":83916,"SoundDuration":83916,"Delta":113170258},{"NoteNumber":52,"Velocity":74,"Duration":83916,"SoundDuration":83916,"Delta":113338090},{"NoteNumber":47,"Velocity":73,"Duration":83916,"SoundDuration":83916,"Delta":113338090},{"NoteNumber":44,"Velocity":62,"Duration":83916,"SoundDuration":83916,"Delta":113338090},{"NoteNumber":50,"Velocity":64,"Duration":88757,"SoundDuration":88757,"Delta":113505922},{"NoteNumber":81,"Velocity":73,"Duration":77419,"SoundDuration":77419,"Delta":113683437},{"NoteNumber":72,"Velocity":62,"Duration":77419,"SoundDuration":77419,"Delta":113683437},{"NoteNumber":65,"Velocity":85,"Duration":309676,"SoundDuration":309676,"Delta":113683437},{"NoteNumber":84,"Velocity":65,"Duration":77419,"SoundDuration":77419,"Delta":113838276},{"NoteNumber":76,"Velocity":55,"Duration":77419,"SoundDuration":77419,"Delta":113838276},{"NoteNumber":81,"Velocity":73,"Duration":78947,"SoundDuration":78947,"Delta":113993114},{"NoteNumber":72,"Velocity":62,"Duration":78947,"SoundDuration":78947,"Delta":113993114},{"NoteNumber":64,"Velocity":73,"Duration":78947,"SoundDuration":78947,"Delta":113993114},{"NoteNumber":84,"Velocity":67,"Duration":89552,"SoundDuration":89552,"Delta":114151009},{"NoteNumber":76,"Velocity":56,"Duration":89552,"SoundDuration":89552,"Delta":114151009},{"NoteNumber":53,"Velocity":84,"Duration":330123,"SoundDuration":330123,"Delta":114330113},{"NoteNumber":45,"Velocity":73,"Duration":82531,"SoundDuration":82531,"Delta":114330113},{"NoteNumber":48,"Velocity":66,"Duration":82530,"SoundDuration":82530,"Delta":114495175},{"NoteNumber":52,"Velocity":74,"Duration":82531,"SoundDuration":82531,"Delta":114660237},{"NoteNumber":45,"Velocity":73,"Duration":82531,"SoundDuration":82531,"Delta":114660237},{"NoteNumber":48,"Velocity":64,"Duration":88757,"SoundDuration":88757,"Delta":114825299},{"NoteNumber":95,"Velocity":87,"Duration":178225,"SoundDuration":178225,"Delta":115001235},{"NoteNumber":101,"Velocity":87,"Duration":178225,"SoundDuration":178225,"Delta":115001235},{"NoteNumber":89,"Velocity":73,"Duration":178225,"SoundDuration":178225,"Delta":115001235},{"NoteNumber":92,"Velocity":73,"Duration":178225,"SoundDuration":178225,"Delta":115001235},{"NoteNumber":77,"Velocity":60,"Duration":178225,"SoundDuration":178225,"Delta":115001235},{"NoteNumber":65,"Velocity":51,"Duration":178225,"SoundDuration":178225,"Delta":115001235},{"NoteNumber":68,"Velocity":51,"Duration":178225,"SoundDuration":178225,"Delta":115001235},{"NoteNumber":71,"Velocity":51,"Duration":178225,"SoundDuration":178225,"Delta":115001235},{"NoteNumber":100,"Velocity":86,"Duration":179282,"SoundDuration":179282,"Delta":115163223},{"NoteNumber":88,"Velocity":73,"Duration":179282,"SoundDuration":179282,"Delta":115163223},{"NoteNumber":76,"Velocity":60,"Duration":179282,"SoundDuration":179282,"Delta":115163223},{"NoteNumber":64,"Velocity":51,"Duration":179282,"SoundDuration":179282,"Delta":115163223},{"NoteNumber":98,"Velocity":84,"Duration":180418,"SoundDuration":180418,"Delta":115326135},{"NoteNumber":86,"Velocity":71,"Duration":180418,"SoundDuration":180418,"Delta":115326135},{"NoteNumber":74,"Velocity":58,"Duration":180418,"SoundDuration":180418,"Delta":115326135},{"NoteNumber":62,"Velocity":49,"Duration":180418,"SoundDuration":180418,"Delta":115326135},{"NoteNumber":96,"Velocity":83,"Duration":181501,"SoundDuration":181501,"Delta":115490115},{"NoteNumber":84,"Velocity":70,"Duration":181501,"SoundDuration":181501,"Delta":115490115},{"NoteNumber":72,"Velocity":58,"Duration":181501,"SoundDuration":181501,"Delta":115490115},{"NoteNumber":60,"Velocity":49,"Duration":181501,"SoundDuration":181501,"Delta":115490115},{"NoteNumber":95,"Velocity":81,"Duration":182665,"SoundDuration":182665,"Delta":115655041},{"NoteNumber":83,"Velocity":68,"Duration":182665,"SoundDuration":182665,"Delta":115655041},{"NoteNumber":71,"Velocity":56,"Duration":182665,"SoundDuration":182665,"Delta":115655041},{"NoteNumber":59,"Velocity":47,"Duration":182665,"SoundDuration":182665,"Delta":115655041},{"NoteNumber":93,"Velocity":80,"Duration":183775,"SoundDuration":183775,"Delta":115821063},{"NoteNumber":81,"Velocity":68,"Duration":183775,"SoundDuration":183775,"Delta":115821063},{"NoteNumber":69,"Velocity":56,"Duration":183775,"SoundDuration":183775,"Delta":115821063},{"NoteNumber":57,"Velocity":47,"Duration":183775,"SoundDuration":183775,"Delta":115821063},{"NoteNumber":92,"Velocity":79,"Duration":184968,"SoundDuration":184968,"Delta":115988056},{"NoteNumber":80,"Velocity":67,"Duration":184968,"SoundDuration":184968,"Delta":115988056},{"NoteNumber":68,"Velocity":55,"Duration":184968,"SoundDuration":184968,"Delta":115988056},{"NoteNumber":56,"Velocity":46,"Duration":184968,"SoundDuration":184968,"Delta":115988056},{"NoteNumber":88,"Velocity":77,"Duration":185222,"SoundDuration":185222,"Delta":116156171},{"NoteNumber":76,"Velocity":65,"Duration":185222,"SoundDuration":185222,"Delta":116156171},{"NoteNumber":64,"Velocity":53,"Duration":185222,"SoundDuration":185222,"Delta":116156171},{"NoteNumber":52,"Velocity":45,"Duration":185222,"SoundDuration":185222,"Delta":116156171},{"NoteNumber":89,"Velocity":80,"Duration":181376,"SoundDuration":181376,"Delta":116324955},{"NoteNumber":77,"Velocity":68,"Duration":181376,"SoundDuration":181376,"Delta":116324955},{"NoteNumber":80,"Velocity":68,"Duration":181376,"SoundDuration":181376,"Delta":116324955},{"NoteNumber":83,"Velocity":68,"Duration":181376,"SoundDuration":181376,"Delta":116324955},{"NoteNumber":65,"Velocity":59,"Duration":181376,"SoundDuration":181376,"Delta":116324955},{"NoteNumber":53,"Velocity":50,"Duration":181376,"SoundDuration":181376,"Delta":116324955},{"NoteNumber":56,"Velocity":50,"Duration":181376,"SoundDuration":181376,"Delta":116324955},{"NoteNumber":59,"Velocity":50,"Duration":181376,"SoundDuration":181376,"Delta":116324955},{"NoteNumber":88,"Velocity":77,"Duration":182884,"SoundDuration":182884,"Delta":116489757},{"NoteNumber":76,"Velocity":65,"Duration":182884,"SoundDuration":182884,"Delta":116489757},{"NoteNumber":64,"Velocity":58,"Duration":182884,"SoundDuration":182884,"Delta":116489757},{"NoteNumber":52,"Velocity":49,"Duration":182884,"SoundDuration":182884,"Delta":116489757},{"NoteNumber":86,"Velocity":75,"Duration":184417,"SoundDuration":184417,"Delta":116655929},{"NoteNumber":74,"Velocity":63,"Duration":184417,"SoundDuration":184417,"Delta":116655929},{"NoteNumber":62,"Velocity":56,"Duration":184417,"SoundDuration":184417,"Delta":116655929},{"NoteNumber":50,"Velocity":47,"Duration":184417,"SoundDuration":184417,"Delta":116655929},{"NoteNumber":84,"Velocity":73,"Duration":185709,"SoundDuration":185709,"Delta":116823493},{"NoteNumber":72,"Velocity":62,"Duration":185709,"SoundDuration":185709,"Delta":116823493},{"NoteNumber":60,"Velocity":55,"Duration":185709,"SoundDuration":185709,"Delta":116823493},{"NoteNumber":48,"Velocity":46,"Duration":185709,"SoundDuration":185709,"Delta":116823493},{"NoteNumber":83,"Velocity":72,"Duration":185920,"SoundDuration":185920,"Delta":116992419},{"NoteNumber":71,"Velocity":61,"Duration":185920,"SoundDuration":185920,"Delta":116992419},{"NoteNumber":59,"Velocity":53,"Duration":185920,"SoundDuration":185920,"Delta":116992419},{"NoteNumber":47,"Velocity":45,"Duration":185920,"SoundDuration":185920,"Delta":116992419},{"NoteNumber":81,"Velocity":70,"Duration":189086,"SoundDuration":189086,"Delta":117161300},{"NoteNumber":69,"Velocity":59,"Duration":189086,"SoundDuration":189086,"Delta":117161300},{"NoteNumber":57,"Velocity":51,"Duration":189086,"SoundDuration":189086,"Delta":117161300},{"NoteNumber":45,"Velocity":43,"Duration":189086,"SoundDuration":189086,"Delta":117161300},{"NoteNumber":80,"Velocity":68,"Duration":192042,"SoundDuration":192042,"Delta":117333052},{"NoteNumber":68,"Velocity":57,"Duration":192042,"SoundDuration":192042,"Delta":117333052},{"NoteNumber":56,"Velocity":50,"Duration":192042,"SoundDuration":192042,"Delta":117333052},{"NoteNumber":44,"Velocity":42,"Duration":192042,"SoundDuration":192042,"Delta":117333052},{"NoteNumber":76,"Velocity":67,"Duration":176902,"SoundDuration":176902,"Delta":117507499},{"NoteNumber":64,"Velocity":56,"Duration":176902,"SoundDuration":176902,"Delta":117507499},{"NoteNumber":52,"Velocity":48,"Duration":176902,"SoundDuration":176902,"Delta":117507499},{"NoteNumber":40,"Velocity":40,"Duration":176902,"SoundDuration":176902,"Delta":117507499},{"NoteNumber":64,"Velocity":67,"Duration":171428,"SoundDuration":171428,"Delta":117684402},{"NoteNumber":76,"Velocity":67,"Duration":171428,"SoundDuration":171428,"Delta":117684402},{"NoteNumber":69,"Velocity":72,"Duration":171428,"SoundDuration":171428,"Delta":117684402},{"NoteNumber":57,"Velocity":65,"Duration":171428,"SoundDuration":171428,"Delta":117684402},{"NoteNumber":45,"Velocity":55,"Duration":171428,"SoundDuration":171428,"Delta":117684402},{"NoteNumber":72,"Velocity":66,"Duration":85714,"SoundDuration":85714,"Delta":117855830},{"NoteNumber":60,"Velocity":59,"Duration":85714,"SoundDuration":85714,"Delta":117855830},{"NoteNumber":48,"Velocity":50,"Duration":85714,"SoundDuration":85714,"Delta":117855830},{"NoteNumber":64,"Velocity":67,"Duration":171428,"SoundDuration":171428,"Delta":118027259},{"NoteNumber":76,"Velocity":67,"Duration":171428,"SoundDuration":171428,"Delta":118027259},{"NoteNumber":68,"Velocity":73,"Duration":171428,"SoundDuration":171428,"Delta":118027259},{"NoteNumber":56,"Velocity":66,"Duration":171428,"SoundDuration":171428,"Delta":118027259},{"NoteNumber":44,"Velocity":56,"Duration":171428,"SoundDuration":171428,"Delta":118027259},{"NoteNumber":71,"Velocity":72,"Duration":88365,"SoundDuration":88365,"Delta":118198687},{"NoteNumber":59,"Velocity":60,"Duration":88365,"SoundDuration":88365,"Delta":118198687},{"NoteNumber":47,"Velocity":51,"Duration":88365,"SoundDuration":88365,"Delta":118198687},{"NoteNumber":81,"Velocity":72,"Duration":170697,"SoundDuration":170697,"Delta":118375418},{"NoteNumber":69,"Velocity":61,"Duration":170697,"SoundDuration":170697,"Delta":118375418},{"NoteNumber":72,"Velocity":61,"Duration":170697,"SoundDuration":170697,"Delta":118375418},{"NoteNumber":57,"Velocity":65,"Duration":170697,"SoundDuration":170697,"Delta":118375418},{"NoteNumber":45,"Velocity":55,"Duration":170697,"SoundDuration":170697,"Delta":118375418},{"NoteNumber":48,"Velocity":55,"Duration":170697,"SoundDuration":170697,"Delta":118375418},{"NoteNumber":52,"Velocity":55,"Duration":170697,"SoundDuration":170697,"Delta":118375418},{"NoteNumber":84,"Velocity":66,"Duration":85348,"SoundDuration":85348,"Delta":118546115},{"NoteNumber":72,"Velocity":56,"Duration":85348,"SoundDuration":85348,"Delta":118546115},{"NoteNumber":76,"Velocity":56,"Duration":85348,"SoundDuration":85348,"Delta":118546115},{"NoteNumber":80,"Velocity":73,"Duration":170697,"SoundDuration":170697,"Delta":118716812},{"NoteNumber":68,"Velocity":62,"Duration":170697,"SoundDuration":170697,"Delta":118716812},{"NoteNumber":71,"Velocity":62,"Duration":170697,"SoundDuration":170697,"Delta":118716812},{"NoteNumber":52,"Velocity":65,"Duration":170697,"SoundDuration":170697,"Delta":118716812},{"NoteNumber":40,"Velocity":55,"Duration":170697,"SoundDuration":170697,"Delta":118716812},{"NoteNumber":44,"Velocity":55,"Duration":170697,"SoundDuration":170697,"Delta":118716812},{"NoteNumber":47,"Velocity":55,"Duration":170697,"SoundDuration":170697,"Delta":118716812},{"NoteNumber":83,"Velocity":72,"Duration":88757,"SoundDuration":88757,"Delta":118887509},{"NoteNumber":71,"Velocity":61,"Duration":88757,"SoundDuration":88757,"Delta":118887509},{"NoteNumber":74,"Velocity":61,"Duration":88757,"SoundDuration":88757,"Delta":118887509},{"NoteNumber":81,"Velocity":85,"Duration":179104,"SoundDuration":179104,"Delta":119065024},{"NoteNumber":69,"Velocity":71,"Duration":179104,"SoundDuration":179104,"Delta":119065024},{"NoteNumber":72,"Velocity":71,"Duration":179104,"SoundDuration":179104,"Delta":119065024},{"NoteNumber":57,"Velocity":73,"Duration":179104,"SoundDuration":179104,"Delta":119065024},{"NoteNumber":45,"Velocity":61,"Duration":179104,"SoundDuration":179104,"Delta":119065024},{"NoteNumber":48,"Velocity":61,"Duration":179104,"SoundDuration":179104,"Delta":119065024},{"NoteNumber":52,"Velocity":61,"Duration":179104,"SoundDuration":179104,"Delta":119065024},{"NoteNumber":89,"Velocity":91,"Duration":179104,"SoundDuration":179104,"Delta":119781442},{"NoteNumber":77,"Velocity":76,"Duration":179104,"SoundDuration":179104,"Delta":119781442},{"NoteNumber":81,"Velocity":76,"Duration":179104,"SoundDuration":179104,"Delta":119781442},{"NoteNumber":86,"Velocity":76,"Duration":179104,"SoundDuration":179104,"Delta":119781442},{"NoteNumber":50,"Velocity":74,"Duration":179104,"SoundDuration":179104,"Delta":119781442},{"NoteNumber":38,"Velocity":61,"Duration":179104,"SoundDuration":179104,"Delta":119781442},{"NoteNumber":41,"Velocity":61,"Duration":179104,"SoundDuration":179104,"Delta":119781442},{"NoteNumber":45,"Velocity":61,"Duration":179104,"SoundDuration":179104,"Delta":119781442},{"NoteNumber":93,"Velocity":98,"Duration":716418,"SoundDuration":716418,"Delta":120497860},{"NoteNumber":81,"Velocity":82,"Duration":716418,"SoundDuration":716418,"Delta":120497860},{"NoteNumber":84,"Velocity":82,"Duration":716418,"SoundDuration":716418,"Delta":120497860},{"NoteNumber":88,"Velocity":82,"Duration":716418,"SoundDuration":716418,"Delta":120497860},{"NoteNumber":45,"Velocity":76,"Duration":716418,"SoundDuration":716418,"Delta":120497860},{"NoteNumber":33,"Velocity":64,"Duration":716418,"SoundDuration":716418,"Delta":120497860},{"NoteNumber":36,"Velocity":64,"Duration":716418,"SoundDuration":716418,"Delta":120497860},{"NoteNumber":40,"Velocity":64,"Duration":716418,"SoundDuration":716418,"Delta":120497860},{"NoteNumber":73,"Velocity":42,"Duration":175182,"SoundDuration":175182,"Delta":121572487},{"NoteNumber":76,"Velocity":41,"Duration":184049,"SoundDuration":184049,"Delta":121747669},{"NoteNumber":69,"Velocity":47,"Duration":717465,"SoundDuration":717465,"Delta":121931718},{"NoteNumber":61,"Velocity":34,"Duration":175953,"SoundDuration":175953,"Delta":122288330},{"NoteNumber":52,"Velocity":34,"Duration":360853,"SoundDuration":360853,"Delta":122288330},{"NoteNumber":64,"Velocity":34,"Duration":184899,"SoundDuration":184899,"Delta":122464283},{"NoteNumber":45,"Velocity":41,"Duration":89552,"SoundDuration":89552,"Delta":122649183},{"NoteNumber":73,"Velocity":50,"Duration":176730,"SoundDuration":176730,"Delta":123007392},{"NoteNumber":76,"Velocity":49,"Duration":184899,"SoundDuration":184899,"Delta":123184123},{"NoteNumber":69,"Velocity":56,"Duration":715883,"SoundDuration":715883,"Delta":123369023},{"NoteNumber":61,"Velocity":41,"Duration":175953,"SoundDuration":175953,"Delta":123724053},{"NoteNumber":52,"Velocity":41,"Duration":360853,"SoundDuration":360853,"Delta":123724053},{"NoteNumber":64,"Velocity":41,"Duration":184899,"SoundDuration":184899,"Delta":123900006},{"NoteNumber":45,"Velocity":49,"Duration":89552,"SoundDuration":89552,"Delta":124084906},{"NoteNumber":81,"Velocity":50,"Duration":168539,"SoundDuration":168539,"Delta":124443115},{"NoteNumber":73,"Velocity":42,"Duration":342957,"SoundDuration":342957,"Delta":124443115},{"NoteNumber":71,"Velocity":34,"Duration":168539,"SoundDuration":168539,"Delta":124443115},{"NoteNumber":61,"Velocity":28,"Duration":168539,"SoundDuration":168539,"Delta":124443115},{"NoteNumber":65,"Velocity":28,"Duration":168539,"SoundDuration":168539,"Delta":124443115},{"NoteNumber":80,"Velocity":45,"Duration":87209,"SoundDuration":87209,"Delta":124611654},{"NoteNumber":80,"Velocity":50,"Duration":168539,"SoundDuration":168539,"Delta":124786073},{"NoteNumber":73,"Velocity":42,"Duration":344492,"SoundDuration":344492,"Delta":124786073},{"NoteNumber":69,"Velocity":39,"Duration":168539,"SoundDuration":168539,"Delta":124786073},{"NoteNumber":66,"Velocity":33,"Duration":168539,"SoundDuration":168539,"Delta":124786073},{"NoteNumber":78,"Velocity":45,"Duration":87976,"SoundDuration":87976,"Delta":124954612},{"NoteNumber":78,"Velocity":50,"Duration":170697,"SoundDuration":170697,"Delta":125130565},{"NoteNumber":73,"Velocity":42,"Duration":349003,"SoundDuration":349003,"Delta":125130565},{"NoteNumber":71,"Velocity":36,"Duration":170697,"SoundDuration":170697,"Delta":125130565},{"NoteNumber":61,"Velocity":30,"Duration":170697,"SoundDuration":170697,"Delta":125130565},{"NoteNumber":68,"Velocity":30,"Duration":170697,"SoundDuration":170697,"Delta":125130565},{"NoteNumber":77,"Velocity":47,"Duration":89152,"SoundDuration":89152,"Delta":125301262},{"NoteNumber":80,"Velocity":50,"Duration":172166,"SoundDuration":172166,"Delta":125479568},{"NoteNumber":73,"Velocity":42,"Duration":348897,"SoundDuration":348897,"Delta":125479568},{"NoteNumber":69,"Velocity":41,"Duration":172166,"SoundDuration":172166,"Delta":125479568},{"NoteNumber":66,"Velocity":34,"Duration":172166,"SoundDuration":172166,"Delta":125479568},{"NoteNumber":78,"Velocity":46,"Duration":88365,"SoundDuration":88365,"Delta":125651735},{"NoteNumber":78,"Velocity":50,"Duration":172910,"SoundDuration":172910,"Delta":125828465},{"NoteNumber":73,"Velocity":42,"Duration":348863,"SoundDuration":348863,"Delta":125828465},{"NoteNumber":71,"Velocity":37,"Duration":172910,"SoundDuration":172910,"Delta":125828465},{"NoteNumber":61,"Velocity":31,"Duration":172910,"SoundDuration":172910,"Delta":125828465},{"NoteNumber":68,"Velocity":31,"Duration":172910,"SoundDuration":172910,"Delta":125828465},{"NoteNumber":77,"Velocity":46,"Duration":87976,"SoundDuration":87976,"Delta":126001376},{"NoteNumber":78,"Velocity":50,"Duration":173661,"SoundDuration":173661,"Delta":126177329},{"NoteNumber":73,"Velocity":42,"Duration":173661,"SoundDuration":173661,"Delta":126177329},{"NoteNumber":69,"Velocity":40,"Duration":173661,"SoundDuration":173661,"Delta":126177329},{"NoteNumber":66,"Velocity":34,"Duration":173661,"SoundDuration":173661,"Delta":126177329},{"NoteNumber":57,"Velocity":41,"Duration":175953,"SoundDuration":175953,"Delta":126524652},{"NoteNumber":61,"Velocity":41,"Duration":184899,"SoundDuration":184899,"Delta":126700605},{"NoteNumber":54,"Velocity":49,"Duration":89552,"SoundDuration":89552,"Delta":126885505},{"NoteNumber":90,"Velocity":50,"Duration":169252,"SoundDuration":169252,"Delta":127243714},{"NoteNumber":81,"Velocity":42,"Duration":343671,"SoundDuration":343671,"Delta":127243714},{"NoteNumber":79,"Velocity":34,"Duration":169252,"SoundDuration":169252,"Delta":127243714},{"NoteNumber":69,"Velocity":28,"Duration":169252,"SoundDuration":169252,"Delta":127243714},{"NoteNumber":73,"Velocity":28,"Duration":169252,"SoundDuration":169252,"Delta":127243714},{"NoteNumber":88,"Velocity":45,"Duration":87209,"SoundDuration":87209,"Delta":127412966},{"NoteNumber":88,"Velocity":50,"Duration":169252,"SoundDuration":169252,"Delta":127587385},{"NoteNumber":81,"Velocity":42,"Duration":345205,"SoundDuration":345205,"Delta":127587385},{"NoteNumber":78,"Velocity":39,"Duration":169252,"SoundDuration":169252,"Delta":127587385},{"NoteNumber":74,"Velocity":33,"Duration":169252,"SoundDuration":169252,"Delta":127587385},{"NoteNumber":86,"Velocity":45,"Duration":87976,"SoundDuration":87976,"Delta":127756637},{"NoteNumber":86,"Velocity":50,"Duration":172166,"SoundDuration":172166,"Delta":127932590},{"NoteNumber":81,"Velocity":42,"Duration":350472,"SoundDuration":350472,"Delta":127932590},{"NoteNumber":79,"Velocity":36,"Duration":172166,"SoundDuration":172166,"Delta":127932590},{"NoteNumber":69,"Velocity":30,"Duration":172166,"SoundDuration":172166,"Delta":127932590},{"NoteNumber":76,"Velocity":30,"Duration":172166,"SoundDuration":172166,"Delta":127932590},{"NoteNumber":85,"Velocity":47,"Duration":89153,"SoundDuration":89153,"Delta":128104757},{"NoteNumber":88,"Velocity":50,"Duration":172166,"SoundDuration":172166,"Delta":128283063},{"NoteNumber":81,"Velocity":42,"Duration":348896,"SoundDuration":348896,"Delta":128283063},{"NoteNumber":78,"Velocity":41,"Duration":172166,"SoundDuration":172166,"Delta":128283063},{"NoteNumber":74,"Velocity":34,"Duration":172166,"SoundDuration":172166,"Delta":128283063},{"NoteNumber":86,"Velocity":46,"Duration":88365,"SoundDuration":88365,"Delta":128455229},{"NoteNumber":86,"Velocity":50,"Duration":172910,"SoundDuration":172910,"Delta":128631960},{"NoteNumber":81,"Velocity":42,"Duration":348863,"SoundDuration":348863,"Delta":128631960},{"NoteNumber":79,"Velocity":37,"Duration":172910,"SoundDuration":172910,"Delta":128631960},{"NoteNumber":69,"Velocity":31,"Duration":172910,"SoundDuration":172910,"Delta":128631960},{"NoteNumber":76,"Velocity":31,"Duration":172910,"SoundDuration":172910,"Delta":128631960},{"NoteNumber":85,"Velocity":46,"Duration":87976,"SoundDuration":87976,"Delta":128804870},{"NoteNumber":86,"Velocity":50,"Duration":173661,"SoundDuration":173661,"Delta":128980823},{"NoteNumber":81,"Velocity":42,"Duration":173661,"SoundDuration":173661,"Delta":128980823},{"NoteNumber":78,"Velocity":40,"Duration":173661,"SoundDuration":173661,"Delta":128980823},{"NoteNumber":74,"Velocity":34,"Duration":173661,"SoundDuration":173661,"Delta":128980823},{"NoteNumber":66,"Velocity":41,"Duration":175952,"SoundDuration":175952,"Delta":129328146},{"NoteNumber":69,"Velocity":41,"Duration":184899,"SoundDuration":184899,"Delta":129504099},{"NoteNumber":62,"Velocity":49,"Duration":89552,"SoundDuration":89552,"Delta":129688999},{"NoteNumber":74,"Velocity":42,"Duration":175182,"SoundDuration":175182,"Delta":130047208},{"NoteNumber":78,"Velocity":41,"Duration":184048,"SoundDuration":184048,"Delta":130222391},{"NoteNumber":71,"Velocity":47,"Duration":717465,"SoundDuration":717465,"Delta":130406440},{"NoteNumber":62,"Velocity":34,"Duration":175952,"SoundDuration":175952,"Delta":130763052},{"NoteNumber":54,"Velocity":34,"Duration":360852,"SoundDuration":360852,"Delta":130763052},{"NoteNumber":66,"Velocity":34,"Duration":184899,"SoundDuration":184899,"Delta":130939005},{"NoteNumber":47,"Velocity":41,"Duration":89552,"SoundDuration":89552,"Delta":131123905},{"NoteNumber":74,"Velocity":50,"Duration":176730,"SoundDuration":176730,"Delta":131482114},{"NoteNumber":78,"Velocity":49,"Duration":184899,"SoundDuration":184899,"Delta":131658844},{"NoteNumber":71,"Velocity":56,"Duration":715882,"SoundDuration":715882,"Delta":131843744},{"NoteNumber":62,"Velocity":41,"Duration":175952,"SoundDuration":175952,"Delta":132198774},{"NoteNumber":54,"Velocity":41,"Duration":360852,"SoundDuration":360852,"Delta":132198774},{"NoteNumber":66,"Velocity":41,"Duration":184899,"SoundDuration":184899,"Delta":132374727},{"NoteNumber":47,"Velocity":49,"Duration":89552,"SoundDuration":89552,"Delta":132559627},{"NoteNumber":95,"Velocity":54,"Duration":89552,"SoundDuration":89552,"Delta":132917836},{"NoteNumber":86,"Velocity":45,"Duration":89552,"SoundDuration":89552,"Delta":132917836},{"NoteNumber":98,"Velocity":50,"Duration":87209,"SoundDuration":87209,"Delta":133096941},{"NoteNumber":90,"Velocity":42,"Duration":87209,"SoundDuration":87209,"Delta":133096941},{"NoteNumber":97,"Velocity":55,"Duration":85348,"SoundDuration":85348,"Delta":133271359},{"NoteNumber":88,"Velocity":46,"Duration":85348,"SoundDuration":85348,"Delta":133271359},{"NoteNumber":52,"Velocity":41,"Duration":344358,"SoundDuration":344358,"Delta":133271359},{"NoteNumber":95,"Velocity":52,"Duration":86830,"SoundDuration":86830,"Delta":133442056},{"NoteNumber":86,"Velocity":44,"Duration":86830,"SoundDuration":86830,"Delta":133442056},{"NoteNumber":93,"Velocity":56,"Duration":86830,"SoundDuration":86830,"Delta":133615718},{"NoteNumber":85,"Velocity":47,"Duration":86830,"SoundDuration":86830,"Delta":133615718},{"NoteNumber":69,"Velocity":36,"Duration":86830,"SoundDuration":86830,"Delta":133615718},{"NoteNumber":64,"Velocity":30,"Duration":86830,"SoundDuration":86830,"Delta":133615718},{"NoteNumber":61,"Velocity":30,"Duration":86830,"SoundDuration":86830,"Delta":133615718},{"NoteNumber":97,"Velocity":50,"Duration":91602,"SoundDuration":91602,"Delta":133789379},{"NoteNumber":88,"Velocity":42,"Duration":91602,"SoundDuration":91602,"Delta":133789379},{"NoteNumber":95,"Velocity":58,"Duration":86455,"SoundDuration":86455,"Delta":133972585},{"NoteNumber":86,"Velocity":49,"Duration":86455,"SoundDuration":86455,"Delta":133972585},{"NoteNumber":64,"Velocity":41,"Duration":348863,"SoundDuration":348863,"Delta":133972585},{"NoteNumber":93,"Velocity":50,"Duration":87976,"SoundDuration":87976,"Delta":134145496},{"NoteNumber":85,"Velocity":42,"Duration":87976,"SoundDuration":87976,"Delta":134145496},{"NoteNumber":92,"Velocity":54,"Duration":87976,"SoundDuration":87976,"Delta":134321449},{"NoteNumber":83,"Velocity":45,"Duration":87976,"SoundDuration":87976,"Delta":134321449},{"NoteNumber":80,"Velocity":36,"Duration":87976,"SoundDuration":87976,"Delta":134321449},{"NoteNumber":76,"Velocity":30,"Duration":87976,"SoundDuration":87976,"Delta":134321449},{"NoteNumber":71,"Velocity":30,"Duration":87976,"SoundDuration":87976,"Delta":134321449},{"NoteNumber":95,"Velocity":50,"Duration":91185,"SoundDuration":91185,"Delta":134497402},{"NoteNumber":86,"Velocity":42,"Duration":91185,"SoundDuration":91185,"Delta":134497402},{"NoteNumber":93,"Velocity":60,"Duration":87591,"SoundDuration":87591,"Delta":134679773},{"NoteNumber":85,"Velocity":51,"Duration":87591,"SoundDuration":87591,"Delta":134679773},{"NoteNumber":81,"Velocity":41,"Duration":87591,"SoundDuration":87591,"Delta":134679773},{"NoteNumber":69,"Velocity":34,"Duration":87591,"SoundDuration":87591,"Delta":134679773},{"NoteNumber":76,"Velocity":34,"Duration":87591,"SoundDuration":87591,"Delta":134679773},{"NoteNumber":97,"Velocity":50,"Duration":87591,"SoundDuration":87591,"Delta":134854955},{"NoteNumber":88,"Velocity":42,"Duration":87591,"SoundDuration":87591,"Delta":134854955},{"NoteNumber":92,"Velocity":55,"Duration":87591,"SoundDuration":87591,"Delta":135030138},{"NoteNumber":83,"Velocity":46,"Duration":87591,"SoundDuration":87591,"Delta":135030138},{"NoteNumber":80,"Velocity":37,"Duration":87591,"SoundDuration":87591,"Delta":135030138},{"NoteNumber":76,"Velocity":31,"Duration":87591,"SoundDuration":87591,"Delta":135030138},{"NoteNumber":95,"Velocity":50,"Duration":87591,"SoundDuration":87591,"Delta":135205320},{"NoteNumber":86,"Velocity":42,"Duration":87591,"SoundDuration":87591,"Delta":135205320},{"NoteNumber":93,"Velocity":56,"Duration":87591,"SoundDuration":87591,"Delta":135380503},{"NoteNumber":85,"Velocity":47,"Duration":87591,"SoundDuration":87591,"Delta":135380503},{"NoteNumber":81,"Velocity":41,"Duration":87591,"SoundDuration":87591,"Delta":135380503},{"NoteNumber":69,"Velocity":34,"Duration":87591,"SoundDuration":87591,"Delta":135380503},{"NoteNumber":76,"Velocity":34,"Duration":87591,"SoundDuration":87591,"Delta":135380503},{"NoteNumber":61,"Velocity":41,"Duration":131386,"SoundDuration":131386,"Delta":135730868},{"NoteNumber":64,"Velocity":41,"Duration":138036,"SoundDuration":138036,"Delta":135906050},{"NoteNumber":57,"Velocity":41,"Duration":712940,"SoundDuration":712940,"Delta":136090099},{"NoteNumber":73,"Velocity":49,"Duration":85714,"SoundDuration":85714,"Delta":136446711},{"NoteNumber":64,"Velocity":35,"Duration":171428,"SoundDuration":171428,"Delta":136446711},{"NoteNumber":45,"Velocity":22,"Duration":171428,"SoundDuration":171428,"Delta":136446711},{"NoteNumber":52,"Velocity":30,"Duration":171428,"SoundDuration":171428,"Delta":136446711},{"NoteNumber":76,"Velocity":42,"Duration":85714,"SoundDuration":85714,"Delta":136532425},{"NoteNumber":69,"Velocity":49,"Duration":92450,"SoundDuration":92450,"Delta":136618140},{"NoteNumber":76,"Velocity":35,"Duration":179104,"SoundDuration":179104,"Delta":136803040},{"NoteNumber":85,"Velocity":49,"Duration":89552,"SoundDuration":89552,"Delta":136803040},{"NoteNumber":45,"Velocity":22,"Duration":179104,"SoundDuration":179104,"Delta":136803040},{"NoteNumber":52,"Velocity":30,"Duration":179104,"SoundDuration":179104,"Delta":136803040},{"NoteNumber":88,"Velocity":43,"Duration":89552,"SoundDuration":89552,"Delta":136892592},{"NoteNumber":81,"Velocity":49,"Duration":89552,"SoundDuration":89552,"Delta":136982144},{"NoteNumber":61,"Velocity":41,"Duration":131386,"SoundDuration":131386,"Delta":137161249},{"NoteNumber":64,"Velocity":41,"Duration":138036,"SoundDuration":138036,"Delta":137336431},{"NoteNumber":57,"Velocity":41,"Duration":712209,"SoundDuration":712209,"Delta":137520480},{"NoteNumber":76,"Velocity":35,"Duration":170696,"SoundDuration":170696,"Delta":137877092},{"NoteNumber":85,"Velocity":49,"Duration":85348,"SoundDuration":85348,"Delta":137877092},{"NoteNumber":45,"Velocity":22,"Duration":170696,"SoundDuration":170696,"Delta":137877092},{"NoteNumber":52,"Velocity":30,"Duration":170696,"SoundDuration":170696,"Delta":137877092},{"NoteNumber":88,"Velocity":42,"Duration":85348,"SoundDuration":85348,"Delta":137962441},{"NoteNumber":81,"Velocity":49,"Duration":92450,"SoundDuration":92450,"Delta":138047789},{"NoteNumber":88,"Velocity":35,"Duration":179104,"SoundDuration":179104,"Delta":138232689},{"NoteNumber":97,"Velocity":49,"Duration":89552,"SoundDuration":89552,"Delta":138232689},{"NoteNumber":45,"Velocity":22,"Duration":179104,"SoundDuration":179104,"Delta":138232689},{"NoteNumber":52,"Velocity":30,"Duration":179104,"SoundDuration":179104,"Delta":138232689},{"NoteNumber":100,"Velocity":43,"Duration":89552,"SoundDuration":89552,"Delta":138322241},{"NoteNumber":93,"Velocity":49,"Duration":89552,"SoundDuration":89552,"Delta":138411794},{"NoteNumber":93,"Velocity":54,"Duration":117820,"SoundDuration":117820,"Delta":138590898},{"NoteNumber":85,"Velocity":34,"Duration":351148,"SoundDuration":351148,"Delta":138590898},{"NoteNumber":71,"Velocity":34,"Duration":176730,"SoundDuration":176730,"Delta":138590898},{"NoteNumber":61,"Velocity":28,"Duration":176730,"SoundDuration":176730,"Delta":138590898},{"NoteNumber":65,"Velocity":28,"Duration":176730,"SoundDuration":176730,"Delta":138590898},{"NoteNumber":92,"Velocity":47,"Duration":117049,"SoundDuration":117049,"Delta":138708718},{"NoteNumber":80,"Velocity":47,"Duration":58139,"SoundDuration":58139,"Delta":138825768},{"NoteNumber":92,"Velocity":52,"Duration":114285,"SoundDuration":114285,"Delta":138942047},{"NoteNumber":85,"Velocity":32,"Duration":347381,"SoundDuration":347381,"Delta":138942047},{"NoteNumber":69,"Velocity":39,"Duration":171428,"SoundDuration":171428,"Delta":138942047},{"NoteNumber":66,"Velocity":33,"Duration":171428,"SoundDuration":171428,"Delta":138942047},{"NoteNumber":90,"Velocity":46,"Duration":115793,"SoundDuration":115793,"Delta":139056333},{"NoteNumber":78,"Velocity":46,"Duration":58650,"SoundDuration":58650,"Delta":139172127},{"NoteNumber":90,"Velocity":50,"Duration":114777,"SoundDuration":114777,"Delta":139289429},{"NoteNumber":85,"Velocity":26,"Duration":350472,"SoundDuration":350472,"Delta":139289429},{"NoteNumber":71,"Velocity":36,"Duration":172166,"SoundDuration":172166,"Delta":139289429},{"NoteNumber":61,"Velocity":30,"Duration":172166,"SoundDuration":172166,"Delta":139289429},{"NoteNumber":68,"Velocity":30,"Duration":172166,"SoundDuration":172166,"Delta":139289429},{"NoteNumber":89,"Velocity":46,"Duration":116824,"SoundDuration":116824,"Delta":139404206},{"NoteNumber":77,"Velocity":46,"Duration":59435,"SoundDuration":59435,"Delta":139521030},{"NoteNumber":92,"Velocity":50,"Duration":114777,"SoundDuration":114777,"Delta":139639901},{"NoteNumber":85,"Velocity":26,"Duration":348896,"SoundDuration":348896,"Delta":139639901},{"NoteNumber":69,"Velocity":41,"Duration":172166,"SoundDuration":172166,"Delta":139639901},{"NoteNumber":66,"Velocity":34,"Duration":172166,"SoundDuration":172166,"Delta":139639901},{"NoteNumber":90,"Velocity":46,"Duration":116298,"SoundDuration":116298,"Delta":139754679},{"NoteNumber":78,"Velocity":46,"Duration":58910,"SoundDuration":58910,"Delta":139870978},{"NoteNumber":90,"Velocity":50,"Duration":115273,"SoundDuration":115273,"Delta":139988798},{"NoteNumber":85,"Velocity":26,"Duration":348863,"SoundDuration":348863,"Delta":139988798},{"NoteNumber":71,"Velocity":37,"Duration":172910,"SoundDuration":172910,"Delta":139988798},{"NoteNumber":61,"Velocity":31,"Duration":172910,"SoundDuration":172910,"Delta":139988798},{"NoteNumber":68,"Velocity":31,"Duration":172910,"SoundDuration":172910,"Delta":139988798},{"NoteNumber":89,"Velocity":48,"Duration":116287,"SoundDuration":116287,"Delta":140104072},{"NoteNumber":77,"Velocity":48,"Duration":58650,"SoundDuration":58650,"Delta":140220360},{"NoteNumber":92,"Velocity":56,"Duration":86830,"SoundDuration":86830,"Delta":140337662},{"NoteNumber":85,"Velocity":44,"Duration":173661,"SoundDuration":173661,"Delta":140337662},{"NoteNumber":69,"Velocity":40,"Duration":86830,"SoundDuration":86830,"Delta":140337662},{"NoteNumber":66,"Velocity":34,"Duration":86830,"SoundDuration":86830,"Delta":140337662},{"NoteNumber":90,"Velocity":55,"Duration":86830,"SoundDuration":86830,"Delta":140424492},{"NoteNumber":85,"Velocity":53,"Duration":86830,"SoundDuration":86830,"Delta":140511323},{"NoteNumber":81,"Velocity":52,"Duration":86830,"SoundDuration":86830,"Delta":140598154},{"NoteNumber":80,"Velocity":51,"Duration":87976,"SoundDuration":87976,"Delta":140684985},{"NoteNumber":78,"Velocity":49,"Duration":87976,"SoundDuration":87976,"Delta":140772961},{"NoteNumber":73,"Velocity":48,"Duration":92450,"SoundDuration":92450,"Delta":140860938},{"NoteNumber":69,"Velocity":46,"Duration":92449,"SoundDuration":92449,"Delta":140953388},{"NoteNumber":66,"Velocity":45,"Duration":89552,"SoundDuration":89552,"Delta":141045838},{"NoteNumber":90,"Velocity":54,"Duration":117820,"SoundDuration":117820,"Delta":141404047},{"NoteNumber":93,"Velocity":43,"Duration":351148,"SoundDuration":351148,"Delta":141404047},{"NoteNumber":79,"Velocity":34,"Duration":176730,"SoundDuration":176730,"Delta":141404047},{"NoteNumber":69,"Velocity":28,"Duration":176730,"SoundDuration":176730,"Delta":141404047},{"NoteNumber":73,"Velocity":28,"Duration":176730,"SoundDuration":176730,"Delta":141404047},{"NoteNumber":88,"Velocity":47,"Duration":117049,"SoundDuration":117049,"Delta":141521867},{"NoteNumber":81,"Velocity":47,"Duration":58139,"SoundDuration":58139,"Delta":141638917},{"NoteNumber":88,"Velocity":52,"Duration":114285,"SoundDuration":114285,"Delta":141755196},{"NoteNumber":93,"Velocity":41,"Duration":347381,"SoundDuration":347381,"Delta":141755196},{"NoteNumber":78,"Velocity":39,"Duration":171428,"SoundDuration":171428,"Delta":141755196},{"NoteNumber":74,"Velocity":33,"Duration":171428,"SoundDuration":171428,"Delta":141755196},{"NoteNumber":86,"Velocity":46,"Duration":115793,"SoundDuration":115793,"Delta":141869481},{"NoteNumber":81,"Velocity":46,"Duration":58650,"SoundDuration":58650,"Delta":141985275},{"NoteNumber":86,"Velocity":50,"Duration":114777,"SoundDuration":114777,"Delta":142102577},{"NoteNumber":93,"Velocity":33,"Duration":350472,"SoundDuration":350472,"Delta":142102577},{"NoteNumber":79,"Velocity":36,"Duration":172166,"SoundDuration":172166,"Delta":142102577},{"NoteNumber":69,"Velocity":30,"Duration":172166,"SoundDuration":172166,"Delta":142102577},{"NoteNumber":76,"Velocity":30,"Duration":172166,"SoundDuration":172166,"Delta":142102577},{"NoteNumber":85,"Velocity":46,"Duration":116824,"SoundDuration":116824,"Delta":142217355},{"NoteNumber":81,"Velocity":46,"Duration":59435,"SoundDuration":59435,"Delta":142334179},{"NoteNumber":88,"Velocity":50,"Duration":114777,"SoundDuration":114777,"Delta":142453050},{"NoteNumber":93,"Velocity":33,"Duration":348896,"SoundDuration":348896,"Delta":142453050},{"NoteNumber":78,"Velocity":41,"Duration":172166,"SoundDuration":172166,"Delta":142453050},{"NoteNumber":74,"Velocity":34,"Duration":172166,"SoundDuration":172166,"Delta":142453050},{"NoteNumber":86,"Velocity":46,"Duration":116298,"SoundDuration":116298,"Delta":142567827},{"NoteNumber":81,"Velocity":46,"Duration":58910,"SoundDuration":58910,"Delta":142684126},{"NoteNumber":86,"Velocity":50,"Duration":115273,"SoundDuration":115273,"Delta":142801947},{"NoteNumber":93,"Velocity":33,"Duration":348863,"SoundDuration":348863,"Delta":142801947},{"NoteNumber":79,"Velocity":37,"Duration":172910,"SoundDuration":172910,"Delta":142801947},{"NoteNumber":69,"Velocity":31,"Duration":172910,"SoundDuration":172910,"Delta":142801947},{"NoteNumber":76,"Velocity":31,"Duration":172910,"SoundDuration":172910,"Delta":142801947},{"NoteNumber":85,"Velocity":48,"Duration":116287,"SoundDuration":116287,"Delta":142917220},{"NoteNumber":81,"Velocity":48,"Duration":58650,"SoundDuration":58650,"Delta":143033508},{"NoteNumber":88,"Velocity":56,"Duration":115774,"SoundDuration":115774,"Delta":143150810},{"NoteNumber":93,"Velocity":50,"Duration":173661,"SoundDuration":173661,"Delta":143150810},{"NoteNumber":78,"Velocity":40,"Duration":86830,"SoundDuration":86830,"Delta":143150810},{"NoteNumber":74,"Velocity":34,"Duration":86830,"SoundDuration":86830,"Delta":143150810},{"NoteNumber":86,"Velocity":55,"Duration":115774,"SoundDuration":115774,"Delta":143266584},{"NoteNumber":81,"Velocity":53,"Duration":115774,"SoundDuration":115774,"Delta":143382359},{"NoteNumber":78,"Velocity":51,"Duration":87976,"SoundDuration":87976,"Delta":143498133},{"NoteNumber":74,"Velocity":49,"Duration":87976,"SoundDuration":87976,"Delta":143586110},{"NoteNumber":69,"Velocity":48,"Duration":92450,"SoundDuration":92450,"Delta":143674086},{"NoteNumber":66,"Velocity":46,"Duration":92449,"SoundDuration":92449,"Delta":143766536},{"NoteNumber":62,"Velocity":45,"Duration":89552,"SoundDuration":89552,"Delta":143858986},{"NoteNumber":62,"Velocity":41,"Duration":131386,"SoundDuration":131386,"Delta":144217195},{"NoteNumber":66,"Velocity":41,"Duration":138036,"SoundDuration":138036,"Delta":144392378},{"NoteNumber":59,"Velocity":41,"Duration":712940,"SoundDuration":712940,"Delta":144576427},{"NoteNumber":66,"Velocity":36,"Duration":171428,"SoundDuration":171428,"Delta":144933039},{"NoteNumber":74,"Velocity":49,"Duration":85714,"SoundDuration":85714,"Delta":144933039},{"NoteNumber":47,"Velocity":22,"Duration":171428,"SoundDuration":171428,"Delta":144933039},{"NoteNumber":54,"Velocity":30,"Duration":171428,"SoundDuration":171428,"Delta":144933039},{"NoteNumber":78,"Velocity":42,"Duration":85714,"SoundDuration":85714,"Delta":145018753},{"NoteNumber":71,"Velocity":49,"Duration":92450,"SoundDuration":92450,"Delta":145104467},{"NoteNumber":78,"Velocity":35,"Duration":179104,"SoundDuration":179104,"Delta":145289367},{"NoteNumber":86,"Velocity":49,"Duration":89552,"SoundDuration":89552,"Delta":145289367},{"NoteNumber":47,"Velocity":22,"Duration":179104,"SoundDuration":179104,"Delta":145289367},{"NoteNumber":54,"Velocity":30,"Duration":179104,"SoundDuration":179104,"Delta":145289367},{"NoteNumber":90,"Velocity":43,"Duration":89552,"SoundDuration":89552,"Delta":145378919},{"NoteNumber":83,"Velocity":49,"Duration":89552,"SoundDuration":89552,"Delta":145468472},{"NoteNumber":62,"Velocity":41,"Duration":131386,"SoundDuration":131386,"Delta":145647576},{"NoteNumber":66,"Velocity":41,"Duration":138036,"SoundDuration":138036,"Delta":145822759},{"NoteNumber":59,"Velocity":41,"Duration":713678,"SoundDuration":713678,"Delta":146006808},{"NoteNumber":78,"Velocity":34,"Duration":172166,"SoundDuration":172166,"Delta":146363420},{"NoteNumber":86,"Velocity":49,"Duration":86083,"SoundDuration":86083,"Delta":146363420},{"NoteNumber":47,"Velocity":22,"Duration":172166,"SoundDuration":172166,"Delta":146363420},{"NoteNumber":54,"Velocity":30,"Duration":172166,"SoundDuration":172166,"Delta":146363420},{"NoteNumber":90,"Velocity":42,"Duration":86083,"SoundDuration":86083,"Delta":146449503},{"NoteNumber":83,"Velocity":49,"Duration":92450,"SoundDuration":92450,"Delta":146535586},{"NoteNumber":90,"Velocity":36,"Duration":179104,"SoundDuration":179104,"Delta":146720486},{"NoteNumber":98,"Velocity":49,"Duration":89552,"SoundDuration":89552,"Delta":146720486},{"NoteNumber":47,"Velocity":22,"Duration":179104,"SoundDuration":179104,"Delta":146720486},{"NoteNumber":54,"Velocity":30,"Duration":179104,"SoundDuration":179104,"Delta":146720486},{"NoteNumber":102,"Velocity":43,"Duration":89552,"SoundDuration":89552,"Delta":146810038},{"NoteNumber":95,"Velocity":49,"Duration":89552,"SoundDuration":89552,"Delta":146899591},{"NoteNumber":83,"Velocity":45,"Duration":89552,"SoundDuration":89552,"Delta":147078695},{"NoteNumber":95,"Velocity":54,"Duration":89552,"SoundDuration":89552,"Delta":147078695},{"NoteNumber":86,"Velocity":45,"Duration":89552,"SoundDuration":89552,"Delta":147078695},{"NoteNumber":86,"Velocity":42,"Duration":87209,"SoundDuration":87209,"Delta":147257800},{"NoteNumber":98,"Velocity":50,"Duration":87209,"SoundDuration":87209,"Delta":147257800},{"NoteNumber":90,"Velocity":42,"Duration":87209,"SoundDuration":87209,"Delta":147257800},{"NoteNumber":85,"Velocity":46,"Duration":87209,"SoundDuration":87209,"Delta":147432218},{"NoteNumber":97,"Velocity":55,"Duration":87209,"SoundDuration":87209,"Delta":147432218},{"NoteNumber":88,"Velocity":46,"Duration":87209,"SoundDuration":87209,"Delta":147432218},{"NoteNumber":40,"Velocity":36,"Duration":87209,"SoundDuration":87209,"Delta":147432218},{"NoteNumber":52,"Velocity":41,"Duration":87209,"SoundDuration":87209,"Delta":147432218},{"NoteNumber":83,"Velocity":44,"Duration":87209,"SoundDuration":87209,"Delta":147606637},{"NoteNumber":95,"Velocity":52,"Duration":87209,"SoundDuration":87209,"Delta":147606637},{"NoteNumber":86,"Velocity":44,"Duration":87209,"SoundDuration":87209,"Delta":147606637},{"NoteNumber":81,"Velocity":47,"Duration":87209,"SoundDuration":87209,"Delta":147781055},{"NoteNumber":93,"Velocity":56,"Duration":87209,"SoundDuration":87209,"Delta":147781055},{"NoteNumber":85,"Velocity":47,"Duration":87209,"SoundDuration":87209,"Delta":147781055},{"NoteNumber":64,"Velocity":36,"Duration":87209,"SoundDuration":87209,"Delta":147781055},{"NoteNumber":61,"Velocity":30,"Duration":87209,"SoundDuration":87209,"Delta":147781055},{"NoteNumber":57,"Velocity":30,"Duration":87209,"SoundDuration":87209,"Delta":147781055},{"NoteNumber":85,"Velocity":42,"Duration":91602,"SoundDuration":91602,"Delta":147955474},{"NoteNumber":97,"Velocity":50,"Duration":91602,"SoundDuration":91602,"Delta":147955474},{"NoteNumber":88,"Velocity":42,"Duration":91602,"SoundDuration":91602,"Delta":147955474},{"NoteNumber":83,"Velocity":49,"Duration":87976,"SoundDuration":87976,"Delta":148138680},{"NoteNumber":95,"Velocity":58,"Duration":87976,"SoundDuration":87976,"Delta":148138680},{"NoteNumber":86,"Velocity":49,"Duration":87976,"SoundDuration":87976,"Delta":148138680},{"NoteNumber":52,"Velocity":41,"Duration":87976,"SoundDuration":87976,"Delta":148138680},{"NoteNumber":81,"Velocity":42,"Duration":87976,"SoundDuration":87976,"Delta":148314633},{"NoteNumber":93,"Velocity":50,"Duration":87976,"SoundDuration":87976,"Delta":148314633},{"NoteNumber":85,"Velocity":42,"Duration":87976,"SoundDuration":87976,"Delta":148314633},{"NoteNumber":80,"Velocity":45,"Duration":87976,"SoundDuration":87976,"Delta":148490586},{"NoteNumber":92,"Velocity":54,"Duration":87976,"SoundDuration":87976,"Delta":148490586},{"NoteNumber":83,"Velocity":45,"Duration":87976,"SoundDuration":87976,"Delta":148490586},{"NoteNumber":68,"Velocity":36,"Duration":87976,"SoundDuration":87976,"Delta":148490586},{"NoteNumber":64,"Velocity":30,"Duration":87976,"SoundDuration":87976,"Delta":148490586},{"NoteNumber":59,"Velocity":30,"Duration":87976,"SoundDuration":87976,"Delta":148490586},{"NoteNumber":83,"Velocity":42,"Duration":91185,"SoundDuration":91185,"Delta":148666539},{"NoteNumber":95,"Velocity":50,"Duration":91185,"SoundDuration":91185,"Delta":148666539},{"NoteNumber":86,"Velocity":42,"Duration":91185,"SoundDuration":91185,"Delta":148666539},{"NoteNumber":81,"Velocity":51,"Duration":87591,"SoundDuration":87591,"Delta":148848910},{"NoteNumber":93,"Velocity":60,"Duration":87591,"SoundDuration":87591,"Delta":148848910},{"NoteNumber":85,"Velocity":51,"Duration":87591,"SoundDuration":87591,"Delta":148848910},{"NoteNumber":61,"Velocity":34,"Duration":87591,"SoundDuration":87591,"Delta":148848910},{"NoteNumber":69,"Velocity":41,"Duration":87591,"SoundDuration":87591,"Delta":148848910},{"NoteNumber":57,"Velocity":34,"Duration":87591,"SoundDuration":87591,"Delta":148848910},{"NoteNumber":64,"Velocity":34,"Duration":87591,"SoundDuration":87591,"Delta":148848910},{"NoteNumber":85,"Velocity":42,"Duration":87591,"SoundDuration":87591,"Delta":149024092},{"NoteNumber":97,"Velocity":50,"Duration":87591,"SoundDuration":87591,"Delta":149024092},{"NoteNumber":88,"Velocity":42,"Duration":87591,"SoundDuration":87591,"Delta":149024092},{"NoteNumber":80,"Velocity":46,"Duration":87591,"SoundDuration":87591,"Delta":149199275},{"NoteNumber":92,"Velocity":55,"Duration":87591,"SoundDuration":87591,"Delta":149199275},{"NoteNumber":83,"Velocity":46,"Duration":87591,"SoundDuration":87591,"Delta":149199275},{"NoteNumber":68,"Velocity":37,"Duration":87591,"SoundDuration":87591,"Delta":149199275},{"NoteNumber":64,"Velocity":31,"Duration":87591,"SoundDuration":87591,"Delta":149199275},{"NoteNumber":83,"Velocity":42,"Duration":87591,"SoundDuration":87591,"Delta":149374457},{"NoteNumber":95,"Velocity":50,"Duration":87591,"SoundDuration":87591,"Delta":149374457},{"NoteNumber":86,"Velocity":42,"Duration":87591,"SoundDuration":87591,"Delta":149374457},{"NoteNumber":81,"Velocity":47,"Duration":98522,"SoundDuration":98522,"Delta":149549640},{"NoteNumber":93,"Velocity":56,"Duration":98522,"SoundDuration":98522,"Delta":149549640},{"NoteNumber":85,"Velocity":47,"Duration":98522,"SoundDuration":98522,"Delta":149549640},{"NoteNumber":61,"Velocity":34,"Duration":98522,"SoundDuration":98522,"Delta":149549640},{"NoteNumber":69,"Velocity":41,"Duration":98522,"SoundDuration":98522,"Delta":149549640},{"NoteNumber":57,"Velocity":34,"Duration":98522,"SoundDuration":98522,"Delta":149549640},{"NoteNumber":64,"Velocity":34,"Duration":98522,"SoundDuration":98522,"Delta":149549640},{"NoteNumber":69,"Velocity":102,"Duration":134328,"SoundDuration":134328,"Delta":149943729},{"NoteNumber":57,"Velocity":85,"Duration":134328,"SoundDuration":134328,"Delta":149943729},{"NoteNumber":45,"Velocity":69,"Duration":134328,"SoundDuration":134328,"Delta":149943729},{"NoteNumber":33,"Velocity":58,"Duration":134328,"SoundDuration":134328,"Delta":149943729},{"NoteNumber":68,"Velocity":108,"Duration":134328,"SoundDuration":134328,"Delta":150301938},{"NoteNumber":56,"Velocity":90,"Duration":134328,"SoundDuration":134328,"Delta":150301938},{"NoteNumber":44,"Velocity":74,"Duration":134328,"SoundDuration":134328,"Delta":150301938},{"NoteNumber":32,"Velocity":62,"Duration":134328,"SoundDuration":134328,"Delta":150301938},{"NoteNumber":65,"Velocity":102,"Duration":134328,"SoundDuration":134328,"Delta":150660147},{"NoteNumber":53,"Velocity":85,"Duration":134328,"SoundDuration":134328,"Delta":150660147},{"NoteNumber":41,"Velocity":69,"Duration":134328,"SoundDuration":134328,"Delta":150660147},{"NoteNumber":29,"Velocity":58,"Duration":134328,"SoundDuration":134328,"Delta":150660147},{"NoteNumber":64,"Velocity":108,"Duration":134328,"SoundDuration":134328,"Delta":151018356},{"NoteNumber":52,"Velocity":90,"Duration":134328,"SoundDuration":134328,"Delta":151018356},{"NoteNumber":40,"Velocity":74,"Duration":134328,"SoundDuration":134328,"Delta":151018356},{"NoteNumber":28,"Velocity":62,"Duration":134328,"SoundDuration":134328,"Delta":151018356},{"NoteNumber":62,"Velocity":102,"Duration":139318,"SoundDuration":139318,"Delta":151376565},{"NoteNumber":50,"Velocity":85,"Duration":139318,"SoundDuration":139318,"Delta":151376565},{"NoteNumber":38,"Velocity":69,"Duration":139318,"SoundDuration":139318,"Delta":151376565},{"NoteNumber":26,"Velocity":58,"Duration":139318,"SoundDuration":139318,"Delta":151376565},{"NoteNumber":61,"Velocity":113,"Duration":539729,"SoundDuration":539729,"Delta":151748082},{"NoteNumber":49,"Velocity":96,"Duration":539729,"SoundDuration":539729,"Delta":151748082},{"NoteNumber":37,"Velocity":79,"Duration":539729,"SoundDuration":539729,"Delta":151748082},{"NoteNumber":25,"Velocity":65,"Duration":539729,"SoundDuration":539729,"Delta":151748082},{"NoteNumber":62,"Velocity":101,"Duration":179910,"SoundDuration":179910,"Delta":152287812},{"NoteNumber":50,"Velocity":85,"Duration":179910,"SoundDuration":179910,"Delta":152287812},{"NoteNumber":38,"Velocity":69,"Duration":179910,"SoundDuration":179910,"Delta":152287812},{"NoteNumber":26,"Velocity":58,"Duration":179910,"SoundDuration":179910,"Delta":152287812},{"NoteNumber":64,"Velocity":115,"Duration":184899,"SoundDuration":184899,"Delta":152467722},{"NoteNumber":52,"Velocity":97,"Duration":184899,"SoundDuration":184899,"Delta":152467722},{"NoteNumber":40,"Velocity":80,"Duration":184899,"SoundDuration":184899,"Delta":152467722},{"NoteNumber":28,"Velocity":66,"Duration":184899,"SoundDuration":184899,"Delta":152467722},{"NoteNumber":69,"Velocity":105,"Duration":89955,"SoundDuration":89955,"Delta":153017432},{"NoteNumber":57,"Velocity":88,"Duration":89955,"SoundDuration":89955,"Delta":153017432},{"NoteNumber":45,"Velocity":73,"Duration":89955,"SoundDuration":89955,"Delta":153017432},{"NoteNumber":33,"Velocity":60,"Duration":89955,"SoundDuration":89955,"Delta":153017432},{"NoteNumber":64,"Velocity":115,"Duration":539729,"SoundDuration":539729,"Delta":153197342},{"NoteNumber":52,"Velocity":97,"Duration":539729,"SoundDuration":539729,"Delta":153197342},{"NoteNumber":40,"Velocity":80,"Duration":539729,"SoundDuration":539729,"Delta":153197342},{"NoteNumber":28,"Velocity":66,"Duration":539729,"SoundDuration":539729,"Delta":153197342},{"NoteNumber":69,"Velocity":100,"Duration":89955,"SoundDuration":89955,"Delta":153737072},{"NoteNumber":57,"Velocity":83,"Duration":89955,"SoundDuration":89955,"Delta":153737072},{"NoteNumber":45,"Velocity":69,"Duration":89955,"SoundDuration":89955,"Delta":153737072},{"NoteNumber":33,"Velocity":58,"Duration":89955,"SoundDuration":89955,"Delta":153737072},{"NoteNumber":64,"Velocity":111,"Duration":543868,"SoundDuration":543868,"Delta":153916982},{"NoteNumber":52,"Velocity":94,"Duration":543868,"SoundDuration":543868,"Delta":153916982},{"NoteNumber":40,"Velocity":78,"Duration":543868,"SoundDuration":543868,"Delta":153916982},{"NoteNumber":28,"Velocity":65,"Duration":543868,"SoundDuration":543868,"Delta":153916982},{"NoteNumber":69,"Velocity":81,"Duration":92024,"SoundDuration":92024,"Delta":154460851},{"NoteNumber":57,"Velocity":69,"Duration":92024,"SoundDuration":92024,"Delta":154460851},{"NoteNumber":45,"Velocity":56,"Duration":92024,"SoundDuration":92024,"Delta":154460851},{"NoteNumber":33,"Velocity":47,"Duration":92024,"SoundDuration":92024,"Delta":154460851},{"NoteNumber":64,"Velocity":87,"Duration":92024,"SoundDuration":92024,"Delta":154644900},{"NoteNumber":52,"Velocity":73,"Duration":92024,"SoundDuration":92024,"Delta":154644900},{"NoteNumber":40,"Velocity":60,"Duration":92024,"SoundDuration":92024,"Delta":154644900},{"NoteNumber":28,"Velocity":51,"Duration":92024,"SoundDuration":92024,"Delta":154644900},{"NoteNumber":61,"Velocity":76,"Duration":88757,"SoundDuration":88757,"Delta":154828949},{"NoteNumber":49,"Velocity":65,"Duration":88757,"SoundDuration":88757,"Delta":154828949},{"NoteNumber":37,"Velocity":53,"Duration":88757,"SoundDuration":88757,"Delta":154828949},{"NoteNumber":25,"Velocity":45,"Duration":88757,"SoundDuration":88757,"Delta":154828949},{"NoteNumber":45,"Velocity":65,"Duration":88757,"SoundDuration":88757,"Delta":155006464},{"NoteNumber":57,"Velocity":65,"Duration":88757,"SoundDuration":88757,"Delta":155006464},{"NoteNumber":21,"Velocity":45,"Duration":88757,"SoundDuration":88757,"Delta":155006464},{"NoteNumber":33,"Velocity":45,"Duration":88757,"SoundDuration":88757,"Delta":155006464},{"NoteNumber":61,"Velocity":76,"Duration":88757,"SoundDuration":88757,"Delta":155183979},{"NoteNumber":49,"Velocity":65,"Duration":88757,"SoundDuration":88757,"Delta":155183979},{"NoteNumber":37,"Velocity":53,"Duration":88757,"SoundDuration":88757,"Delta":155183979},{"NoteNumber":25,"Velocity":45,"Duration":88757,"SoundDuration":88757,"Delta":155183979},{"NoteNumber":64,"Velocity":72,"Duration":88757,"SoundDuration":88757,"Delta":155361494},{"NoteNumber":52,"Velocity":60,"Duration":88757,"SoundDuration":88757,"Delta":155361494},{"NoteNumber":40,"Velocity":50,"Duration":88757,"SoundDuration":88757,"Delta":155361494},{"NoteNumber":28,"Velocity":42,"Duration":88757,"SoundDuration":88757,"Delta":155361494},{"NoteNumber":61,"Velocity":76,"Duration":88757,"SoundDuration":88757,"Delta":155539009},{"NoteNumber":49,"Velocity":65,"Duration":88757,"SoundDuration":88757,"Delta":155539009},{"NoteNumber":37,"Velocity":53,"Duration":88757,"SoundDuration":88757,"Delta":155539009},{"NoteNumber":25,"Velocity":45,"Duration":88757,"SoundDuration":88757,"Delta":155539009},{"NoteNumber":64,"Velocity":81,"Duration":91185,"SoundDuration":91185,"Delta":155716524},{"NoteNumber":52,"Velocity":69,"Duration":91185,"SoundDuration":91185,"Delta":155716524},{"NoteNumber":40,"Velocity":56,"Duration":91185,"SoundDuration":91185,"Delta":155716524},{"NoteNumber":28,"Velocity":47,"Duration":91185,"SoundDuration":91185,"Delta":155716524},{"NoteNumber":69,"Velocity":86,"Duration":94637,"SoundDuration":94637,"Delta":155898895},{"NoteNumber":57,"Velocity":72,"Duration":94637,"SoundDuration":94637,"Delta":155898895},{"NoteNumber":45,"Velocity":59,"Duration":94637,"SoundDuration":94637,"Delta":155898895},{"NoteNumber":33,"Velocity":50,"Duration":94637,"SoundDuration":94637,"Delta":155898895},{"NoteNumber":64,"Velocity":90,"Duration":757097,"SoundDuration":757097,"Delta":156088169},{"NoteNumber":52,"Velocity":76,"Duration":757097,"SoundDuration":757097,"Delta":156088169},{"NoteNumber":40,"Velocity":63,"Duration":757097,"SoundDuration":757097,"Delta":156088169},{"NoteNumber":28,"Velocity":53,"Duration":757097,"SoundDuration":757097,"Delta":156088169},{"NoteNumber":69,"Velocity":84,"Duration":96930,"SoundDuration":96930,"Delta":156845267},{"NoteNumber":57,"Velocity":71,"Duration":96930,"SoundDuration":96930,"Delta":156845267},{"NoteNumber":45,"Velocity":58,"Duration":96930,"SoundDuration":96930,"Delta":156845267},{"NoteNumber":33,"Velocity":49,"Duration":96930,"SoundDuration":96930,"Delta":156845267},{"NoteNumber":41,"Velocity":47,"Duration":239548,"SoundDuration":239548,"Delta":157184524},{"NoteNumber":48,"Velocity":51,"Duration":215315,"SoundDuration":215315,"Delta":157208757},{"NoteNumber":81,"Velocity":75,"Duration":191082,"SoundDuration":191082,"Delta":157232989},{"NoteNumber":69,"Velocity":59,"Duration":191082,"SoundDuration":191082,"Delta":157232989},{"NoteNumber":72,"Velocity":64,"Duration":191082,"SoundDuration":191082,"Delta":157232989},{"NoteNumber":57,"Velocity":58,"Duration":191082,"SoundDuration":191082,"Delta":157232989},{"NoteNumber":40,"Velocity":46,"Duration":235270,"SoundDuration":235270,"Delta":157567384},{"NoteNumber":48,"Velocity":48,"Duration":211385,"SoundDuration":211385,"Delta":157591270},{"NoteNumber":79,"Velocity":70,"Duration":187500,"SoundDuration":187500,"Delta":157615155},{"NoteNumber":67,"Velocity":59,"Duration":380425,"SoundDuration":380425,"Delta":157615155},{"NoteNumber":72,"Velocity":59,"Duration":380425,"SoundDuration":380425,"Delta":157615155},{"NoteNumber":55,"Velocity":58,"Duration":187500,"SoundDuration":187500,"Delta":157615155},{"NoteNumber":76,"Velocity":65,"Duration":192925,"SoundDuration":192925,"Delta":157802655},{"NoteNumber":41,"Velocity":47,"Duration":236614,"SoundDuration":236614,"Delta":157947350},{"NoteNumber":48,"Velocity":51,"Duration":212498,"SoundDuration":212498,"Delta":157971465},{"NoteNumber":77,"Velocity":70,"Duration":188382,"SoundDuration":188382,"Delta":157995581},{"NoteNumber":65,"Velocity":59,"Duration":380382,"SoundDuration":380382,"Delta":157995581},{"NoteNumber":69,"Velocity":59,"Duration":380382,"SoundDuration":380382,"Delta":157995581},{"NoteNumber":57,"Velocity":54,"Duration":188382,"SoundDuration":188382,"Delta":157995581},{"NoteNumber":74,"Velocity":64,"Duration":192000,"SoundDuration":192000,"Delta":158183964},{"NoteNumber":43,"Velocity":52,"Duration":237274,"SoundDuration":237274,"Delta":158327964},{"NoteNumber":52,"Velocity":55,"Duration":213274,"SoundDuration":213274,"Delta":158351964},{"NoteNumber":76,"Velocity":70,"Duration":189274,"SoundDuration":189274,"Delta":158375964},{"NoteNumber":64,"Velocity":59,"Duration":383135,"SoundDuration":383135,"Delta":158375964},{"NoteNumber":67,"Velocity":59,"Duration":383135,"SoundDuration":383135,"Delta":158375964},{"NoteNumber":60,"Velocity":56,"Duration":189274,"SoundDuration":189274,"Delta":158375964},{"NoteNumber":72,"Velocity":62,"Duration":193860,"SoundDuration":193860,"Delta":158565239},{"NoteNumber":43,"Velocity":45,"Duration":237739,"SoundDuration":237739,"Delta":158710634},{"NoteNumber":53,"Velocity":47,"Duration":213507,"SoundDuration":213507,"Delta":158734867},{"NoteNumber":74,"Velocity":66,"Duration":189274,"SoundDuration":189274,"Delta":158759100},{"NoteNumber":62,"Velocity":56,"Duration":382239,"SoundDuration":382239,"Delta":158759100},{"NoteNumber":65,"Velocity":56,"Duration":382239,"SoundDuration":382239,"Delta":158759100},{"NoteNumber":59,"Velocity":51,"Duration":189274,"SoundDuration":189274,"Delta":158759100},{"NoteNumber":71,"Velocity":60,"Duration":192964,"SoundDuration":192964,"Delta":158948374},{"NoteNumber":48,"Velocity":45,"Duration":241354,"SoundDuration":241354,"Delta":159093069},{"NoteNumber":55,"Velocity":1,"Duration":217238,"SoundDuration":217238,"Delta":159117184},{"NoteNumber":64,"Velocity":40,"Duration":193083,"SoundDuration":193083,"Delta":159141339},{"NoteNumber":72,"Velocity":57,"Duration":96813,"SoundDuration":96813,"Delta":159141339},{"NoteNumber":60,"Velocity":59,"Duration":193083,"SoundDuration":193083,"Delta":159141339},{"NoteNumber":74,"Velocity":53,"Duration":96270,"SoundDuration":96270,"Delta":159238153},{"NoteNumber":72,"Velocity":57,"Duration":95732,"SoundDuration":95732,"Delta":159334423},{"NoteNumber":71,"Velocity":53,"Duration":95163,"SoundDuration":95163,"Delta":159430155},{"NoteNumber":72,"Velocity":54,"Duration":94525,"SoundDuration":94525,"Delta":159525319},{"NoteNumber":64,"Velocity":45,"Duration":94525,"SoundDuration":94525,"Delta":159525319},{"NoteNumber":76,"Velocity":55,"Duration":94007,"SoundDuration":94007,"Delta":159619844},{"NoteNumber":67,"Velocity":46,"Duration":94007,"SoundDuration":94007,"Delta":159619844},{"NoteNumber":79,"Velocity":56,"Duration":93494,"SoundDuration":93494,"Delta":159713852},{"NoteNumber":72,"Velocity":47,"Duration":93494,"SoundDuration":93494,"Delta":159713852},{"NoteNumber":83,"Velocity":58,"Duration":62027,"SoundDuration":62027,"Delta":159807347},{"NoteNumber":74,"Velocity":49,"Duration":92951,"SoundDuration":92951,"Delta":159807347},{"NoteNumber":86,"Velocity":53,"Duration":30923,"SoundDuration":30923,"Delta":159869375},{"NoteNumber":84,"Velocity":61,"Duration":92450,"SoundDuration":92450,"Delta":159900299},{"NoteNumber":76,"Velocity":49,"Duration":92450,"SoundDuration":92450,"Delta":159900299},{"NoteNumber":83,"Velocity":57,"Duration":92449,"SoundDuration":92449,"Delta":159992749},{"NoteNumber":84,"Velocity":57,"Duration":92450,"SoundDuration":92450,"Delta":160085199},{"NoteNumber":86,"Velocity":61,"Duration":92449,"SoundDuration":92449,"Delta":160177649},{"NoteNumber":55,"Velocity":47,"Duration":231124,"SoundDuration":231124,"Delta":160223874},{"NoteNumber":65,"Velocity":51,"Duration":208012,"SoundDuration":208012,"Delta":160246986},{"NoteNumber":77,"Velocity":40,"Duration":184899,"SoundDuration":184899,"Delta":160270099},{"NoteNumber":88,"Velocity":63,"Duration":92450,"SoundDuration":92450,"Delta":160270099},{"NoteNumber":71,"Velocity":59,"Duration":184899,"SoundDuration":184899,"Delta":160270099},{"NoteNumber":86,"Velocity":60,"Duration":94122,"SoundDuration":94122,"Delta":160547449},{"NoteNumber":76,"Velocity":40,"Duration":184122,"SoundDuration":184122,"Delta":160641571},{"NoteNumber":84,"Velocity":57,"Duration":92343,"SoundDuration":92343,"Delta":160641571},{"NoteNumber":60,"Velocity":45,"Duration":184122,"SoundDuration":184122,"Delta":160641571},{"NoteNumber":67,"Velocity":1,"Duration":184122,"SoundDuration":184122,"Delta":160641571},{"NoteNumber":72,"Velocity":59,"Duration":184122,"SoundDuration":184122,"Delta":160641571},{"NoteNumber":86,"Velocity":53,"Duration":91778,"SoundDuration":91778,"Delta":160733914},{"NoteNumber":84,"Velocity":57,"Duration":91255,"SoundDuration":91255,"Delta":160825693},{"NoteNumber":83,"Velocity":53,"Duration":90668,"SoundDuration":90668,"Delta":160916948},{"NoteNumber":84,"Velocity":54,"Duration":90124,"SoundDuration":90124,"Delta":161007617},{"NoteNumber":76,"Velocity":45,"Duration":90124,"SoundDuration":90124,"Delta":161007617},{"NoteNumber":88,"Velocity":55,"Duration":89619,"SoundDuration":89619,"Delta":161097742},{"NoteNumber":79,"Velocity":46,"Duration":89619,"SoundDuration":89619,"Delta":161097742},{"NoteNumber":91,"Velocity":56,"Duration":89054,"SoundDuration":89054,"Delta":161187361},{"NoteNumber":84,"Velocity":47,"Duration":89054,"SoundDuration":89054,"Delta":161187361},{"NoteNumber":95,"Velocity":58,"Duration":59073,"SoundDuration":59073,"Delta":161276415},{"NoteNumber":86,"Velocity":49,"Duration":88528,"SoundDuration":88528,"Delta":161276415},{"NoteNumber":98,"Velocity":53,"Duration":29455,"SoundDuration":29455,"Delta":161335489},{"NoteNumber":96,"Velocity":61,"Duration":88008,"SoundDuration":88008,"Delta":161364944},{"NoteNumber":88,"Velocity":49,"Duration":88008,"SoundDuration":88008,"Delta":161364944},{"NoteNumber":95,"Velocity":57,"Duration":87976,"SoundDuration":87976,"Delta":161452953},{"NoteNumber":96,"Velocity":57,"Duration":87976,"SoundDuration":87976,"Delta":161540930},{"NoteNumber":98,"Velocity":61,"Duration":88008,"SoundDuration":88008,"Delta":161628906},{"NoteNumber":67,"Velocity":47,"Duration":220751,"SoundDuration":220751,"Delta":161672894},{"NoteNumber":77,"Velocity":51,"Duration":198757,"SoundDuration":198757,"Delta":161694888},{"NoteNumber":89,"Velocity":40,"Duration":176730,"SoundDuration":176730,"Delta":161716915},{"NoteNumber":100,"Velocity":63,"Duration":88365,"SoundDuration":88365,"Delta":161716915},{"NoteNumber":83,"Velocity":59,"Duration":176730,"SoundDuration":176730,"Delta":161716915},{"NoteNumber":98,"Velocity":60,"Duration":88365,"SoundDuration":88365,"Delta":161982011},{"NoteNumber":96,"Velocity":61,"Duration":86830,"SoundDuration":86830,"Delta":162070376},{"NoteNumber":84,"Velocity":50,"Duration":86830,"SoundDuration":86830,"Delta":162070376},{"NoteNumber":72,"Velocity":42,"Duration":86830,"SoundDuration":86830,"Delta":162070376},{"NoteNumber":76,"Velocity":42,"Duration":86830,"SoundDuration":86830,"Delta":162070376},{"NoteNumber":88,"Velocity":58,"Duration":86830,"SoundDuration":86830,"Delta":162157207},{"NoteNumber":96,"Velocity":58,"Duration":86830,"SoundDuration":86830,"Delta":162244037},{"NoteNumber":100,"Velocity":58,"Duration":86830,"SoundDuration":86830,"Delta":162330868},{"NoteNumber":103,"Velocity":64,"Duration":85714,"SoundDuration":85714,"Delta":162417699},{"NoteNumber":67,"Velocity":50,"Duration":85714,"SoundDuration":85714,"Delta":162417699},{"NoteNumber":91,"Velocity":58,"Duration":85714,"SoundDuration":85714,"Delta":162503413},{"NoteNumber":95,"Velocity":58,"Duration":85714,"SoundDuration":85714,"Delta":162589127},{"NoteNumber":83,"Velocity":46,"Duration":85714,"SoundDuration":85714,"Delta":162589127},{"NoteNumber":77,"Velocity":39,"Duration":85714,"SoundDuration":85714,"Delta":162589127},{"NoteNumber":74,"Velocity":39,"Duration":85714,"SoundDuration":85714,"Delta":162589127},{"NoteNumber":91,"Velocity":58,"Duration":85714,"SoundDuration":85714,"Delta":162674842},{"NoteNumber":96,"Velocity":65,"Duration":85714,"SoundDuration":85714,"Delta":162760556},{"NoteNumber":72,"Velocity":50,"Duration":85714,"SoundDuration":85714,"Delta":162760556},{"NoteNumber":88,"Velocity":59,"Duration":85714,"SoundDuration":85714,"Delta":162846270},{"NoteNumber":96,"Velocity":59,"Duration":85714,"SoundDuration":85714,"Delta":162931984},{"NoteNumber":84,"Velocity":46,"Duration":85714,"SoundDuration":85714,"Delta":162931984},{"NoteNumber":79,"Velocity":39,"Duration":85714,"SoundDuration":85714,"Delta":162931984},{"NoteNumber":76,"Velocity":39,"Duration":85714,"SoundDuration":85714,"Delta":162931984},{"NoteNumber":100,"Velocity":59,"Duration":85714,"SoundDuration":85714,"Delta":163017699},{"NoteNumber":103,"Velocity":65,"Duration":85714,"SoundDuration":85714,"Delta":163103413},{"NoteNumber":67,"Velocity":50,"Duration":85714,"SoundDuration":85714,"Delta":163103413},{"NoteNumber":91,"Velocity":60,"Duration":85714,"SoundDuration":85714,"Delta":163189127},{"NoteNumber":95,"Velocity":60,"Duration":87591,"SoundDuration":87591,"Delta":163274841},{"NoteNumber":83,"Velocity":46,"Duration":87591,"SoundDuration":87591,"Delta":163274841},{"NoteNumber":77,"Velocity":39,"Duration":87591,"SoundDuration":87591,"Delta":163274841},{"NoteNumber":74,"Velocity":39,"Duration":87591,"SoundDuration":87591,"Delta":163274841},{"NoteNumber":91,"Velocity":60,"Duration":87591,"SoundDuration":87591,"Delta":163362433},{"NoteNumber":96,"Velocity":61,"Duration":86830,"SoundDuration":86830,"Delta":163450024},{"NoteNumber":72,"Velocity":50,"Duration":86830,"SoundDuration":86830,"Delta":163450024},{"NoteNumber":88,"Velocity":58,"Duration":86830,"SoundDuration":86830,"Delta":163536855},{"NoteNumber":96,"Velocity":58,"Duration":86830,"SoundDuration":86830,"Delta":163623685},{"NoteNumber":84,"Velocity":46,"Duration":86830,"SoundDuration":86830,"Delta":163623685},{"NoteNumber":76,"Velocity":39,"Duration":86830,"SoundDuration":86830,"Delta":163623685},{"NoteNumber":79,"Velocity":39,"Duration":86830,"SoundDuration":86830,"Delta":163623685},{"NoteNumber":100,"Velocity":58,"Duration":86830,"SoundDuration":86830,"Delta":163710516},{"NoteNumber":103,"Velocity":64,"Duration":85714,"SoundDuration":85714,"Delta":163797347},{"NoteNumber":67,"Velocity":50,"Duration":85714,"SoundDuration":85714,"Delta":163797347},{"NoteNumber":91,"Velocity":58,"Duration":85714,"SoundDuration":85714,"Delta":163883061},{"NoteNumber":95,"Velocity":58,"Duration":85714,"SoundDuration":85714,"Delta":163968775},{"NoteNumber":83,"Velocity":46,"Duration":85714,"SoundDuration":85714,"Delta":163968775},{"NoteNumber":77,"Velocity":39,"Duration":85714,"SoundDuration":85714,"Delta":163968775},{"NoteNumber":74,"Velocity":39,"Duration":85714,"SoundDuration":85714,"Delta":163968775},{"NoteNumber":91,"Velocity":58,"Duration":85714,"SoundDuration":85714,"Delta":164054490},{"NoteNumber":96,"Velocity":65,"Duration":85714,"SoundDuration":85714,"Delta":164140204},{"NoteNumber":72,"Velocity":50,"Duration":85714,"SoundDuration":85714,"Delta":164140204},{"NoteNumber":88,"Velocity":59,"Duration":85714,"SoundDuration":85714,"Delta":164225918},{"NoteNumber":96,"Velocity":59,"Duration":85714,"SoundDuration":85714,"Delta":164311632},{"NoteNumber":84,"Velocity":46,"Duration":85714,"SoundDuration":85714,"Delta":164311632},{"NoteNumber":79,"Velocity":39,"Duration":85714,"SoundDuration":85714,"Delta":164311632},{"NoteNumber":76,"Velocity":39,"Duration":85714,"SoundDuration":85714,"Delta":164311632},{"NoteNumber":100,"Velocity":59,"Duration":85714,"SoundDuration":85714,"Delta":164397347},{"NoteNumber":103,"Velocity":65,"Duration":85714,"SoundDuration":85714,"Delta":164483061},{"NoteNumber":67,"Velocity":50,"Duration":85714,"SoundDuration":85714,"Delta":164483061},{"NoteNumber":91,"Velocity":60,"Duration":85714,"SoundDuration":85714,"Delta":164568775},{"NoteNumber":95,"Velocity":60,"Duration":87591,"SoundDuration":87591,"Delta":164654489},{"NoteNumber":83,"Velocity":46,"Duration":87591,"SoundDuration":87591,"Delta":164654489},{"NoteNumber":77,"Velocity":39,"Duration":87591,"SoundDuration":87591,"Delta":164654489},{"NoteNumber":74,"Velocity":39,"Duration":87591,"SoundDuration":87591,"Delta":164654489},{"NoteNumber":91,"Velocity":60,"Duration":87591,"SoundDuration":87591,"Delta":164742081},{"NoteNumber":72,"Velocity":45,"Duration":120437,"SoundDuration":120437,"Delta":164796825},{"NoteNumber":76,"Velocity":46,"Duration":109489,"SoundDuration":109489,"Delta":164807774},{"NoteNumber":79,"Velocity":48,"Duration":98540,"SoundDuration":98540,"Delta":164818723},{"NoteNumber":96,"Velocity":64,"Duration":87591,"SoundDuration":87591,"Delta":164829672},{"NoteNumber":84,"Velocity":50,"Duration":87591,"SoundDuration":87591,"Delta":164829672},{"NoteNumber":72,"Velocity":46,"Duration":87432,"SoundDuration":87432,"Delta":165180037},{"NoteNumber":64,"Velocity":27,"Duration":87432,"SoundDuration":87432,"Delta":165180037},{"NoteNumber":73,"Velocity":46,"Duration":87051,"SoundDuration":87051,"Delta":165267469},{"NoteNumber":65,"Velocity":28,"Duration":87051,"SoundDuration":87051,"Delta":165267469},{"NoteNumber":74,"Velocity":47,"Duration":86674,"SoundDuration":86674,"Delta":165354521},{"NoteNumber":66,"Velocity":29,"Duration":86674,"SoundDuration":86674,"Delta":165354521},{"NoteNumber":75,"Velocity":48,"Duration":86300,"SoundDuration":86300,"Delta":165441195},{"NoteNumber":67,"Velocity":30,"Duration":86300,"SoundDuration":86300,"Delta":165441195},{"NoteNumber":76,"Velocity":49,"Duration":85991,"SoundDuration":85991,"Delta":165527495},{"NoteNumber":68,"Velocity":31,"Duration":85991,"SoundDuration":85991,"Delta":165527495},{"NoteNumber":77,"Velocity":49,"Duration":85622,"SoundDuration":85622,"Delta":165613486},{"NoteNumber":69,"Velocity":32,"Duration":85622,"SoundDuration":85622,"Delta":165613486},{"NoteNumber":78,"Velocity":50,"Duration":85257,"SoundDuration":85257,"Delta":165699109},{"NoteNumber":70,"Velocity":33,"Duration":85257,"SoundDuration":85257,"Delta":165699109},{"NoteNumber":79,"Velocity":51,"Duration":84895,"SoundDuration":84895,"Delta":165784367},{"NoteNumber":71,"Velocity":34,"Duration":84895,"SoundDuration":84895,"Delta":165784367},{"NoteNumber":80,"Velocity":52,"Duration":84596,"SoundDuration":84596,"Delta":165869263},{"NoteNumber":72,"Velocity":35,"Duration":84596,"SoundDuration":84596,"Delta":165869263},{"NoteNumber":81,"Velocity":52,"Duration":84240,"SoundDuration":84240,"Delta":165953859},{"NoteNumber":73,"Velocity":36,"Duration":84240,"SoundDuration":84240,"Delta":165953859},{"NoteNumber":82,"Velocity":53,"Duration":83886,"SoundDuration":83886,"Delta":166038099},{"NoteNumber":74,"Velocity":37,"Duration":83886,"SoundDuration":83886,"Delta":166038099},{"NoteNumber":83,"Velocity":54,"Duration":83536,"SoundDuration":83536,"Delta":166121986},{"NoteNumber":75,"Velocity":38,"Duration":83536,"SoundDuration":83536,"Delta":166121986},{"NoteNumber":84,"Velocity":55,"Duration":83217,"SoundDuration":83217,"Delta":166205523},{"NoteNumber":76,"Velocity":40,"Duration":83217,"SoundDuration":83217,"Delta":166205523},{"NoteNumber":85,"Velocity":55,"Duration":83217,"SoundDuration":83217,"Delta":166288740},{"NoteNumber":77,"Velocity":41,"Duration":83217,"SoundDuration":83217,"Delta":166288740},{"NoteNumber":86,"Velocity":56,"Duration":83217,"SoundDuration":83217,"Delta":166371958},{"NoteNumber":78,"Velocity":42,"Duration":83217,"SoundDuration":83217,"Delta":166371958},{"NoteNumber":87,"Velocity":57,"Duration":83217,"SoundDuration":83217,"Delta":166455176},{"NoteNumber":79,"Velocity":43,"Duration":83217,"SoundDuration":83217,"Delta":166455176},{"NoteNumber":88,"Velocity":57,"Duration":83217,"SoundDuration":83217,"Delta":166538394},{"NoteNumber":80,"Velocity":44,"Duration":83217,"SoundDuration":83217,"Delta":166538394},{"NoteNumber":89,"Velocity":58,"Duration":83217,"SoundDuration":83217,"Delta":166621611},{"NoteNumber":81,"Velocity":45,"Duration":83217,"SoundDuration":83217,"Delta":166621611},{"NoteNumber":90,"Velocity":59,"Duration":83217,"SoundDuration":83217,"Delta":166704829},{"NoteNumber":82,"Velocity":46,"Duration":83217,"SoundDuration":83217,"Delta":166704829},{"NoteNumber":91,"Velocity":60,"Duration":83246,"SoundDuration":83246,"Delta":166788047},{"NoteNumber":83,"Velocity":47,"Duration":83246,"SoundDuration":83246,"Delta":166788047},{"NoteNumber":92,"Velocity":60,"Duration":66852,"SoundDuration":66852,"Delta":166871294},{"NoteNumber":84,"Velocity":48,"Duration":66852,"SoundDuration":66852,"Delta":166871294},{"NoteNumber":93,"Velocity":61,"Duration":66975,"SoundDuration":66975,"Delta":166938146},{"NoteNumber":85,"Velocity":49,"Duration":66975,"SoundDuration":66975,"Delta":166938146},{"NoteNumber":94,"Velocity":62,"Duration":67132,"SoundDuration":67132,"Delta":167005121},{"NoteNumber":86,"Velocity":50,"Duration":67132,"SoundDuration":67132,"Delta":167005121},{"NoteNumber":95,"Velocity":62,"Duration":73573,"SoundDuration":73573,"Delta":167072254},{"NoteNumber":87,"Velocity":51,"Duration":73573,"SoundDuration":73573,"Delta":167072254},{"NoteNumber":96,"Velocity":66,"Duration":89744,"SoundDuration":89744,"Delta":167145828},{"NoteNumber":88,"Velocity":52,"Duration":89744,"SoundDuration":89744,"Delta":167145828},{"NoteNumber":97,"Velocity":57,"Duration":84626,"SoundDuration":84626,"Delta":167235572},{"NoteNumber":100,"Velocity":40,"Duration":84955,"SoundDuration":84955,"Delta":167320199},{"NoteNumber":97,"Velocity":45,"Duration":84985,"SoundDuration":84985,"Delta":167405154},{"NoteNumber":88,"Velocity":39,"Duration":84985,"SoundDuration":84985,"Delta":167490140},{"NoteNumber":81,"Velocity":41,"Duration":83217,"SoundDuration":83217,"Delta":167575126},{"NoteNumber":85,"Velocity":38,"Duration":83217,"SoundDuration":83217,"Delta":167658344},{"NoteNumber":81,"Velocity":41,"Duration":83217,"SoundDuration":83217,"Delta":167741561},{"NoteNumber":85,"Velocity":39,"Duration":83217,"SoundDuration":83217,"Delta":167824779},{"NoteNumber":81,"Velocity":41,"Duration":83217,"SoundDuration":83217,"Delta":167907997},{"NoteNumber":73,"Velocity":44,"Duration":83217,"SoundDuration":83217,"Delta":167907997},{"NoteNumber":85,"Velocity":39,"Duration":83217,"SoundDuration":83217,"Delta":167991215},{"NoteNumber":81,"Velocity":41,"Duration":83217,"SoundDuration":83217,"Delta":168074432},{"NoteNumber":76,"Velocity":39,"Duration":83217,"SoundDuration":83217,"Delta":168074432},{"NoteNumber":85,"Velocity":38,"Duration":83217,"SoundDuration":83217,"Delta":168157650},{"NoteNumber":81,"Velocity":36,"Duration":84985,"SoundDuration":84985,"Delta":168240868},{"NoteNumber":69,"Velocity":44,"Duration":84985,"SoundDuration":84985,"Delta":168240868},{"NoteNumber":57,"Velocity":36,"Duration":84985,"SoundDuration":84985,"Delta":168240868},{"NoteNumber":64,"Velocity":36,"Duration":84985,"SoundDuration":84985,"Delta":168240868},{"NoteNumber":85,"Velocity":38,"Duration":84985,"SoundDuration":84985,"Delta":168325854},{"NoteNumber":88,"Velocity":39,"Duration":84985,"SoundDuration":84985,"Delta":168410839},{"NoteNumber":93,"Velocity":43,"Duration":84985,"SoundDuration":84985,"Delta":168495825},{"NoteNumber":97,"Velocity":45,"Duration":84985,"SoundDuration":84985,"Delta":168580811},{"NoteNumber":100,"Velocity":51,"Duration":84985,"SoundDuration":84985,"Delta":168665797},{"NoteNumber":97,"Velocity":49,"Duration":84985,"SoundDuration":84985,"Delta":168750782},{"NoteNumber":88,"Velocity":41,"Duration":84985,"SoundDuration":84985,"Delta":168835768},{"NoteNumber":81,"Velocity":41,"Duration":83217,"SoundDuration":83217,"Delta":168920754},{"NoteNumber":85,"Velocity":38,"Duration":83217,"SoundDuration":83217,"Delta":169003972},{"NoteNumber":81,"Velocity":41,"Duration":83217,"SoundDuration":83217,"Delta":169087189},{"NoteNumber":85,"Velocity":39,"Duration":83217,"SoundDuration":83217,"Delta":169170407},{"NoteNumber":81,"Velocity":41,"Duration":83217,"SoundDuration":83217,"Delta":169253625},{"NoteNumber":73,"Velocity":44,"Duration":83217,"SoundDuration":83217,"Delta":169253625},{"NoteNumber":85,"Velocity":39,"Duration":83217,"SoundDuration":83217,"Delta":169336843},{"NoteNumber":81,"Velocity":41,"Duration":83217,"SoundDuration":83217,"Delta":169420060},{"NoteNumber":76,"Velocity":39,"Duration":83217,"SoundDuration":83217,"Delta":169420060},{"NoteNumber":85,"Velocity":38,"Duration":83217,"SoundDuration":83217,"Delta":169503278},{"NoteNumber":81,"Velocity":36,"Duration":84985,"SoundDuration":84985,"Delta":169586496},{"NoteNumber":69,"Velocity":44,"Duration":84985,"SoundDuration":84985,"Delta":169586496},{"NoteNumber":57,"Velocity":36,"Duration":84985,"SoundDuration":84985,"Delta":169586496},{"NoteNumber":64,"Velocity":36,"Duration":84985,"SoundDuration":84985,"Delta":169586496},{"NoteNumber":85,"Velocity":38,"Duration":84985,"SoundDuration":84985,"Delta":169671482},{"NoteNumber":88,"Velocity":40,"Duration":84985,"SoundDuration":84985,"Delta":169756467},{"NoteNumber":93,"Velocity":44,"Duration":96462,"SoundDuration":96462,"Delta":169841453},{"NoteNumber":97,"Velocity":48,"Duration":82530,"SoundDuration":82530,"Delta":169937916},{"NoteNumber":73,"Velocity":45,"Duration":82530,"SoundDuration":82530,"Delta":169937916},{"NoteNumber":93,"Velocity":52,"Duration":82531,"SoundDuration":82531,"Delta":170020447},{"NoteNumber":92,"Velocity":49,"Duration":84626,"SoundDuration":84626,"Delta":170102978},{"NoteNumber":83,"Velocity":40,"Duration":84626,"SoundDuration":84626,"Delta":170102978},{"NoteNumber":77,"Velocity":34,"Duration":84626,"SoundDuration":84626,"Delta":170102978},{"NoteNumber":85,"Velocity":41,"Duration":84626,"SoundDuration":84626,"Delta":170187604},{"NoteNumber":97,"Velocity":46,"Duration":82873,"SoundDuration":82873,"Delta":170272231},{"NoteNumber":78,"Velocity":45,"Duration":82873,"SoundDuration":82873,"Delta":170272231},{"NoteNumber":92,"Velocity":40,"Duration":82873,"SoundDuration":82873,"Delta":170355104},{"NoteNumber":90,"Velocity":40,"Duration":84269,"SoundDuration":84269,"Delta":170437977},{"NoteNumber":81,"Velocity":39,"Duration":84269,"SoundDuration":84269,"Delta":170437977},{"NoteNumber":85,"Velocity":40,"Duration":84269,"SoundDuration":84269,"Delta":170522246},{"NoteNumber":97,"Velocity":45,"Duration":82530,"SoundDuration":82530,"Delta":170606516},{"NoteNumber":73,"Velocity":44,"Duration":82530,"SoundDuration":82530,"Delta":170606516},{"NoteNumber":90,"Velocity":39,"Duration":82531,"SoundDuration":82531,"Delta":170689047},{"NoteNumber":89,"Velocity":39,"Duration":84269,"SoundDuration":84269,"Delta":170771578},{"NoteNumber":83,"Velocity":39,"Duration":84269,"SoundDuration":84269,"Delta":170771578},{"NoteNumber":80,"Velocity":39,"Duration":84269,"SoundDuration":84269,"Delta":170771578},{"NoteNumber":85,"Velocity":39,"Duration":84269,"SoundDuration":84269,"Delta":170855848},{"NoteNumber":97,"Velocity":45,"Duration":82530,"SoundDuration":82530,"Delta":170940118},{"NoteNumber":78,"Velocity":44,"Duration":82530,"SoundDuration":82530,"Delta":170940118},{"NoteNumber":92,"Velocity":39,"Duration":82531,"SoundDuration":82531,"Delta":171022649},{"NoteNumber":90,"Velocity":39,"Duration":84626,"SoundDuration":84626,"Delta":171105180},{"NoteNumber":81,"Velocity":39,"Duration":84626,"SoundDuration":84626,"Delta":171105180},{"NoteNumber":85,"Velocity":39,"Duration":84626,"SoundDuration":84626,"Delta":171189806},{"NoteNumber":97,"Velocity":42,"Duration":82530,"SoundDuration":82530,"Delta":171274432},{"NoteNumber":73,"Velocity":44,"Duration":82530,"SoundDuration":82530,"Delta":171274432},{"NoteNumber":90,"Velocity":38,"Duration":82531,"SoundDuration":82531,"Delta":171356963},{"NoteNumber":89,"Velocity":38,"Duration":84626,"SoundDuration":84626,"Delta":171439494},{"NoteNumber":83,"Velocity":40,"Duration":84626,"SoundDuration":84626,"Delta":171439494},{"NoteNumber":80,"Velocity":40,"Duration":84626,"SoundDuration":84626,"Delta":171439494},{"NoteNumber":85,"Velocity":38,"Duration":84626,"SoundDuration":84626,"Delta":171524120},{"NoteNumber":97,"Velocity":52,"Duration":81521,"SoundDuration":81521,"Delta":171608747},{"NoteNumber":81,"Velocity":44,"Duration":81521,"SoundDuration":81521,"Delta":171608747},{"NoteNumber":78,"Velocity":44,"Duration":81521,"SoundDuration":81521,"Delta":171608747},{"NoteNumber":92,"Velocity":49,"Duration":81799,"SoundDuration":81799,"Delta":171690268},{"NoteNumber":90,"Velocity":48,"Duration":82079,"SoundDuration":82079,"Delta":171772068},{"NoteNumber":85,"Velocity":46,"Duration":82361,"SoundDuration":82361,"Delta":171854148},{"NoteNumber":81,"Velocity":44,"Duration":82645,"SoundDuration":82645,"Delta":171936509},{"NoteNumber":78,"Velocity":44,"Duration":82930,"SoundDuration":82930,"Delta":172019154},{"NoteNumber":73,"Velocity":42,"Duration":83217,"SoundDuration":83217,"Delta":172102085},{"NoteNumber":69,"Velocity":40,"Duration":83565,"SoundDuration":83565,"Delta":172185302},{"NoteNumber":66,"Velocity":37,"Duration":88365,"SoundDuration":88365,"Delta":172268868},{"NoteNumber":102,"Velocity":43,"Duration":82530,"SoundDuration":82530,"Delta":172622329},{"NoteNumber":69,"Velocity":45,"Duration":82530,"SoundDuration":82530,"Delta":172622329},{"NoteNumber":93,"Velocity":45,"Duration":82531,"SoundDuration":82531,"Delta":172704860},{"NoteNumber":88,"Velocity":44,"Duration":84626,"SoundDuration":84626,"Delta":172787391},{"NoteNumber":79,"Velocity":40,"Duration":84626,"SoundDuration":84626,"Delta":172787391},{"NoteNumber":76,"Velocity":34,"Duration":84626,"SoundDuration":84626,"Delta":172787391},{"NoteNumber":97,"Velocity":41,"Duration":84626,"SoundDuration":84626,"Delta":172872017},{"NoteNumber":100,"Velocity":46,"Duration":82873,"SoundDuration":82873,"Delta":172956643},{"NoteNumber":74,"Velocity":45,"Duration":82873,"SoundDuration":82873,"Delta":172956643},{"NoteNumber":93,"Velocity":40,"Duration":82873,"SoundDuration":82873,"Delta":173039516},{"NoteNumber":86,"Velocity":40,"Duration":84269,"SoundDuration":84269,"Delta":173122389},{"NoteNumber":78,"Velocity":39,"Duration":84269,"SoundDuration":84269,"Delta":173122389},{"NoteNumber":81,"Velocity":39,"Duration":84269,"SoundDuration":84269,"Delta":173122389},{"NoteNumber":98,"Velocity":40,"Duration":84269,"SoundDuration":84269,"Delta":173206659},{"NoteNumber":93,"Velocity":45,"Duration":82530,"SoundDuration":82530,"Delta":173290929},{"NoteNumber":69,"Velocity":44,"Duration":82530,"SoundDuration":82530,"Delta":173290929},{"NoteNumber":85,"Velocity":39,"Duration":82531,"SoundDuration":82531,"Delta":173373460},{"NoteNumber":93,"Velocity":39,"Duration":84269,"SoundDuration":84269,"Delta":173455991},{"NoteNumber":79,"Velocity":39,"Duration":84269,"SoundDuration":84269,"Delta":173455991},{"NoteNumber":76,"Velocity":39,"Duration":84269,"SoundDuration":84269,"Delta":173455991},{"NoteNumber":97,"Velocity":39,"Duration":84269,"SoundDuration":84269,"Delta":173540261},{"NoteNumber":100,"Velocity":45,"Duration":82530,"SoundDuration":82530,"Delta":173624530},{"NoteNumber":74,"Velocity":44,"Duration":82530,"SoundDuration":82530,"Delta":173624530},{"NoteNumber":93,"Velocity":39,"Duration":82531,"SoundDuration":82531,"Delta":173707061},{"NoteNumber":86,"Velocity":39,"Duration":84626,"SoundDuration":84626,"Delta":173789592},{"NoteNumber":78,"Velocity":39,"Duration":84626,"SoundDuration":84626,"Delta":173789592},{"NoteNumber":81,"Velocity":39,"Duration":84626,"SoundDuration":84626,"Delta":173789592},{"NoteNumber":98,"Velocity":39,"Duration":84626,"SoundDuration":84626,"Delta":173874219},{"NoteNumber":93,"Velocity":42,"Duration":82530,"SoundDuration":82530,"Delta":173958845},{"NoteNumber":69,"Velocity":44,"Duration":82530,"SoundDuration":82530,"Delta":173958845},{"NoteNumber":85,"Velocity":38,"Duration":82531,"SoundDuration":82531,"Delta":174041376},{"NoteNumber":93,"Velocity":38,"Duration":84626,"SoundDuration":84626,"Delta":174123907},{"NoteNumber":79,"Velocity":40,"Duration":84626,"SoundDuration":84626,"Delta":174123907},{"NoteNumber":76,"Velocity":40,"Duration":84626,"SoundDuration":84626,"Delta":174123907},{"NoteNumber":97,"Velocity":38,"Duration":84626,"SoundDuration":84626,"Delta":174208533},{"NoteNumber":100,"Velocity":52,"Duration":81521,"SoundDuration":81521,"Delta":174293159},{"NoteNumber":78,"Velocity":44,"Duration":81521,"SoundDuration":81521,"Delta":174293159},{"NoteNumber":74,"Velocity":44,"Duration":81521,"SoundDuration":81521,"Delta":174293159},{"NoteNumber":98,"Velocity":50,"Duration":81799,"SoundDuration":81799,"Delta":174374681},{"NoteNumber":93,"Velocity":48,"Duration":82079,"SoundDuration":82079,"Delta":174456481},{"NoteNumber":86,"Velocity":45,"Duration":82361,"SoundDuration":82361,"Delta":174538561},{"NoteNumber":81,"Velocity":44,"Duration":82645,"SoundDuration":82645,"Delta":174620922},{"NoteNumber":78,"Velocity":44,"Duration":82930,"SoundDuration":82930,"Delta":174703567},{"NoteNumber":74,"Velocity":42,"Duration":83217,"SoundDuration":83217,"Delta":174786498},{"NoteNumber":69,"Velocity":40,"Duration":83565,"SoundDuration":83565,"Delta":174869715},{"NoteNumber":62,"Velocity":37,"Duration":88365,"SoundDuration":88365,"Delta":174953281},{"NoteNumber":98,"Velocity":51,"Duration":84626,"SoundDuration":84626,"Delta":175306742},{"NoteNumber":102,"Velocity":45,"Duration":84955,"SoundDuration":84955,"Delta":175391368},{"NoteNumber":98,"Velocity":51,"Duration":84985,"SoundDuration":84985,"Delta":175476324},{"NoteNumber":90,"Velocity":41,"Duration":84985,"SoundDuration":84985,"Delta":175561310},{"NoteNumber":83,"Velocity":49,"Duration":83217,"SoundDuration":83217,"Delta":175646295},{"NoteNumber":86,"Velocity":43,"Duration":83217,"SoundDuration":83217,"Delta":175729513},{"NoteNumber":83,"Velocity":41,"Duration":83217,"SoundDuration":83217,"Delta":175812731},{"NoteNumber":86,"Velocity":39,"Duration":83217,"SoundDuration":83217,"Delta":175895949},{"NoteNumber":83,"Velocity":41,"Duration":83217,"SoundDuration":83217,"Delta":175979166},{"NoteNumber":74,"Velocity":44,"Duration":83217,"SoundDuration":83217,"Delta":175979166},{"NoteNumber":86,"Velocity":39,"Duration":83217,"SoundDuration":83217,"Delta":176062384},{"NoteNumber":83,"Velocity":41,"Duration":83217,"SoundDuration":83217,"Delta":176145602},{"NoteNumber":78,"Velocity":39,"Duration":83217,"SoundDuration":83217,"Delta":176145602},{"NoteNumber":86,"Velocity":38,"Duration":83217,"SoundDuration":83217,"Delta":176228820},{"NoteNumber":83,"Velocity":36,"Duration":84985,"SoundDuration":84985,"Delta":176312037},{"NoteNumber":71,"Velocity":44,"Duration":84985,"SoundDuration":84985,"Delta":176312037},{"NoteNumber":59,"Velocity":36,"Duration":84985,"SoundDuration":84985,"Delta":176312037},{"NoteNumber":66,"Velocity":36,"Duration":84985,"SoundDuration":84985,"Delta":176312037},{"NoteNumber":86,"Velocity":38,"Duration":84985,"SoundDuration":84985,"Delta":176397023},{"NoteNumber":90,"Velocity":41,"Duration":84985,"SoundDuration":84985,"Delta":176482009},{"NoteNumber":95,"Velocity":44,"Duration":84985,"SoundDuration":84985,"Delta":176566995},{"NoteNumber":98,"Velocity":47,"Duration":84985,"SoundDuration":84985,"Delta":176651980},{"NoteNumber":102,"Velocity":50,"Duration":84985,"SoundDuration":84985,"Delta":176736966},{"NoteNumber":98,"Velocity":49,"Duration":84985,"SoundDuration":84985,"Delta":176821952},{"NoteNumber":90,"Velocity":45,"Duration":84985,"SoundDuration":84985,"Delta":176906938},{"NoteNumber":83,"Velocity":41,"Duration":83217,"SoundDuration":83217,"Delta":176991923},{"NoteNumber":86,"Velocity":38,"Duration":83217,"SoundDuration":83217,"Delta":177075141},{"NoteNumber":83,"Velocity":41,"Duration":83217,"SoundDuration":83217,"Delta":177158359},{"NoteNumber":86,"Velocity":39,"Duration":83217,"SoundDuration":83217,"Delta":177241577},{"NoteNumber":83,"Velocity":41,"Duration":83217,"SoundDuration":83217,"Delta":177324794},{"NoteNumber":74,"Velocity":44,"Duration":83217,"SoundDuration":83217,"Delta":177324794},{"NoteNumber":86,"Velocity":39,"Duration":83217,"SoundDuration":83217,"Delta":177408012},{"NoteNumber":83,"Velocity":41,"Duration":83217,"SoundDuration":83217,"Delta":177491230},{"NoteNumber":78,"Velocity":39,"Duration":83217,"SoundDuration":83217,"Delta":177491230},{"NoteNumber":86,"Velocity":38,"Duration":83217,"SoundDuration":83217,"Delta":177574448},{"NoteNumber":83,"Velocity":36,"Duration":84985,"SoundDuration":84985,"Delta":177657665},{"NoteNumber":71,"Velocity":44,"Duration":84985,"SoundDuration":84985,"Delta":177657665},{"NoteNumber":59,"Velocity":36,"Duration":84985,"SoundDuration":84985,"Delta":177657665},{"NoteNumber":66,"Velocity":36,"Duration":84985,"SoundDuration":84985,"Delta":177657665},{"NoteNumber":86,"Velocity":38,"Duration":84985,"SoundDuration":84985,"Delta":177742651},{"NoteNumber":90,"Velocity":41,"Duration":84985,"SoundDuration":84985,"Delta":177827637},{"NoteNumber":95,"Velocity":44,"Duration":96462,"SoundDuration":96462,"Delta":177912623},{"NoteNumber":98,"Velocity":47,"Duration":86083,"SoundDuration":86083,"Delta":178009086},{"NoteNumber":78,"Velocity":52,"Duration":341419,"SoundDuration":341419,"Delta":178009086},{"NoteNumber":86,"Velocity":52,"Duration":341419,"SoundDuration":341419,"Delta":178009086},{"NoteNumber":90,"Velocity":50,"Duration":86083,"SoundDuration":86083,"Delta":178095169},{"NoteNumber":95,"Velocity":48,"Duration":84626,"SoundDuration":84626,"Delta":178181252},{"NoteNumber":98,"Velocity":45,"Duration":84626,"SoundDuration":84626,"Delta":178265878},{"NoteNumber":97,"Velocity":46,"Duration":82873,"SoundDuration":82873,"Delta":178350505},{"NoteNumber":76,"Velocity":50,"Duration":82873,"SoundDuration":82873,"Delta":178350505},{"NoteNumber":85,"Velocity":50,"Duration":82873,"SoundDuration":82873,"Delta":178350505},{"NoteNumber":88,"Velocity":40,"Duration":82873,"SoundDuration":82873,"Delta":178433378},{"NoteNumber":95,"Velocity":40,"Duration":84269,"SoundDuration":84269,"Delta":178516251},{"NoteNumber":74,"Velocity":41,"Duration":84269,"SoundDuration":84269,"Delta":178516251},{"NoteNumber":83,"Velocity":41,"Duration":84269,"SoundDuration":84269,"Delta":178516251},{"NoteNumber":100,"Velocity":40,"Duration":84269,"SoundDuration":84269,"Delta":178600520},{"NoteNumber":93,"Velocity":45,"Duration":82530,"SoundDuration":82530,"Delta":178684790},{"NoteNumber":73,"Velocity":51,"Duration":333601,"SoundDuration":333601,"Delta":178684790},{"NoteNumber":81,"Velocity":51,"Duration":333601,"SoundDuration":333601,"Delta":178684790},{"NoteNumber":88,"Velocity":39,"Duration":82531,"SoundDuration":82531,"Delta":178767321},{"NoteNumber":97,"Velocity":39,"Duration":84269,"SoundDuration":84269,"Delta":178849852},{"NoteNumber":100,"Velocity":39,"Duration":84269,"SoundDuration":84269,"Delta":178934122},{"NoteNumber":95,"Velocity":45,"Duration":82530,"SoundDuration":82530,"Delta":179018392},{"NoteNumber":74,"Velocity":52,"Duration":82530,"SoundDuration":82530,"Delta":179018392},{"NoteNumber":83,"Velocity":52,"Duration":82530,"SoundDuration":82530,"Delta":179018392},{"NoteNumber":88,"Velocity":39,"Duration":82531,"SoundDuration":82531,"Delta":179100923},{"NoteNumber":93,"Velocity":39,"Duration":87209,"SoundDuration":87209,"Delta":179183454},{"NoteNumber":73,"Velocity":41,"Duration":87209,"SoundDuration":87209,"Delta":179183454},{"NoteNumber":81,"Velocity":41,"Duration":87209,"SoundDuration":87209,"Delta":179183454},{"NoteNumber":100,"Velocity":39,"Duration":87209,"SoundDuration":87209,"Delta":179270663},{"NoteNumber":92,"Velocity":42,"Duration":85348,"SoundDuration":85348,"Delta":179357872},{"NoteNumber":71,"Velocity":49,"Duration":346649,"SoundDuration":346649,"Delta":179357872},{"NoteNumber":80,"Velocity":49,"Duration":346649,"SoundDuration":346649,"Delta":179357872},{"NoteNumber":88,"Velocity":38,"Duration":85348,"SoundDuration":85348,"Delta":179443221},{"NoteNumber":95,"Velocity":38,"Duration":87976,"SoundDuration":87976,"Delta":179528569},{"NoteNumber":100,"Velocity":38,"Duration":87976,"SoundDuration":87976,"Delta":179616546},{"NoteNumber":93,"Velocity":44,"Duration":91185,"SoundDuration":91185,"Delta":179704522},{"NoteNumber":69,"Velocity":47,"Duration":91185,"SoundDuration":91185,"Delta":179704522},{"NoteNumber":81,"Velocity":47,"Duration":91185,"SoundDuration":91185,"Delta":179704522},{"NoteNumber":73,"Velocity":47,"Duration":91185,"SoundDuration":91185,"Delta":179704522},{"NoteNumber":88,"Velocity":42,"Duration":91185,"SoundDuration":91185,"Delta":179795708},{"NoteNumber":97,"Velocity":42,"Duration":91185,"SoundDuration":91185,"Delta":179886893},{"NoteNumber":100,"Velocity":42,"Duration":91362,"SoundDuration":91362,"Delta":179978079},{"NoteNumber":92,"Velocity":44,"Duration":93861,"SoundDuration":93861,"Delta":180069441},{"NoteNumber":64,"Velocity":45,"Duration":93861,"SoundDuration":93861,"Delta":180069441},{"NoteNumber":68,"Velocity":45,"Duration":93861,"SoundDuration":93861,"Delta":180069441},{"NoteNumber":71,"Velocity":45,"Duration":93861,"SoundDuration":93861,"Delta":180069441},{"NoteNumber":76,"Velocity":45,"Duration":93861,"SoundDuration":93861,"Delta":180069441},{"NoteNumber":88,"Velocity":44,"Duration":95354,"SoundDuration":95354,"Delta":180163303},{"NoteNumber":95,"Velocity":42,"Duration":96933,"SoundDuration":96933,"Delta":180258657},{"NoteNumber":100,"Velocity":40,"Duration":98565,"SoundDuration":98565,"Delta":180355591},{"NoteNumber":93,"Velocity":37,"Duration":104712,"SoundDuration":104712,"Delta":180454157},{"NoteNumber":57,"Velocity":46,"Duration":104712,"SoundDuration":104712,"Delta":180454157},{"NoteNumber":61,"Velocity":46,"Duration":104712,"SoundDuration":104712,"Delta":180454157},{"NoteNumber":64,"Velocity":46,"Duration":104712,"SoundDuration":104712,"Delta":180454157},{"NoteNumber":69,"Velocity":46,"Duration":104712,"SoundDuration":104712,"Delta":180454157},{"NoteNumber":69,"Velocity":102,"Duration":134328,"SoundDuration":134328,"Delta":180873005},{"NoteNumber":57,"Velocity":85,"Duration":134328,"SoundDuration":134328,"Delta":180873005},{"NoteNumber":45,"Velocity":69,"Duration":134328,"SoundDuration":134328,"Delta":180873005},{"NoteNumber":33,"Velocity":58,"Duration":134328,"SoundDuration":134328,"Delta":180873005},{"NoteNumber":68,"Velocity":108,"Duration":134328,"SoundDuration":134328,"Delta":181231214},{"NoteNumber":56,"Velocity":90,"Duration":134328,"SoundDuration":134328,"Delta":181231214},{"NoteNumber":44,"Velocity":74,"Duration":134328,"SoundDuration":134328,"Delta":181231214},{"NoteNumber":32,"Velocity":62,"Duration":134328,"SoundDuration":134328,"Delta":181231214},{"NoteNumber":65,"Velocity":102,"Duration":134328,"SoundDuration":134328,"Delta":181589423},{"NoteNumber":53,"Velocity":85,"Duration":134328,"SoundDuration":134328,"Delta":181589423},{"NoteNumber":41,"Velocity":69,"Duration":134328,"SoundDuration":134328,"Delta":181589423},{"NoteNumber":29,"Velocity":58,"Duration":134328,"SoundDuration":134328,"Delta":181589423},{"NoteNumber":64,"Velocity":108,"Duration":134328,"SoundDuration":134328,"Delta":181947632},{"NoteNumber":52,"Velocity":90,"Duration":134328,"SoundDuration":134328,"Delta":181947632},{"NoteNumber":40,"Velocity":74,"Duration":134328,"SoundDuration":134328,"Delta":181947632},{"NoteNumber":28,"Velocity":62,"Duration":134328,"SoundDuration":134328,"Delta":181947632},{"NoteNumber":62,"Velocity":102,"Duration":139318,"SoundDuration":139318,"Delta":182305841},{"NoteNumber":50,"Velocity":85,"Duration":139318,"SoundDuration":139318,"Delta":182305841},{"NoteNumber":38,"Velocity":69,"Duration":139318,"SoundDuration":139318,"Delta":182305841},{"NoteNumber":26,"Velocity":58,"Duration":139318,"SoundDuration":139318,"Delta":182305841},{"NoteNumber":61,"Velocity":113,"Duration":539729,"SoundDuration":539729,"Delta":182677358},{"NoteNumber":49,"Velocity":96,"Duration":539729,"SoundDuration":539729,"Delta":182677358},{"NoteNumber":37,"Velocity":79,"Duration":539729,"SoundDuration":539729,"Delta":182677358},{"NoteNumber":25,"Velocity":65,"Duration":539729,"SoundDuration":539729,"Delta":182677358},{"NoteNumber":62,"Velocity":101,"Duration":179910,"SoundDuration":179910,"Delta":183217088},{"NoteNumber":50,"Velocity":85,"Duration":179910,"SoundDuration":179910,"Delta":183217088},{"NoteNumber":38,"Velocity":69,"Duration":179910,"SoundDuration":179910,"Delta":183217088},{"NoteNumber":26,"Velocity":58,"Duration":179910,"SoundDuration":179910,"Delta":183217088},{"NoteNumber":64,"Velocity":115,"Duration":184899,"SoundDuration":184899,"Delta":183396998},{"NoteNumber":52,"Velocity":97,"Duration":184899,"SoundDuration":184899,"Delta":183396998},{"NoteNumber":40,"Velocity":80,"Duration":184899,"SoundDuration":184899,"Delta":183396998},{"NoteNumber":28,"Velocity":66,"Duration":184899,"SoundDuration":184899,"Delta":183396998},{"NoteNumber":69,"Velocity":105,"Duration":89955,"SoundDuration":89955,"Delta":183946708},{"NoteNumber":57,"Velocity":88,"Duration":89955,"SoundDuration":89955,"Delta":183946708},{"NoteNumber":45,"Velocity":73,"Duration":89955,"SoundDuration":89955,"Delta":183946708},{"NoteNumber":33,"Velocity":60,"Duration":89955,"SoundDuration":89955,"Delta":183946708},{"NoteNumber":64,"Velocity":115,"Duration":539729,"SoundDuration":539729,"Delta":184126618},{"NoteNumber":52,"Velocity":97,"Duration":539729,"SoundDuration":539729,"Delta":184126618},{"NoteNumber":40,"Velocity":80,"Duration":539729,"SoundDuration":539729,"Delta":184126618},{"NoteNumber":28,"Velocity":66,"Duration":539729,"SoundDuration":539729,"Delta":184126618},{"NoteNumber":69,"Velocity":100,"Duration":89955,"SoundDuration":89955,"Delta":184666348},{"NoteNumber":57,"Velocity":83,"Duration":89955,"SoundDuration":89955,"Delta":184666348},{"NoteNumber":45,"Velocity":69,"Duration":89955,"SoundDuration":89955,"Delta":184666348},{"NoteNumber":33,"Velocity":58,"Duration":89955,"SoundDuration":89955,"Delta":184666348},{"NoteNumber":64,"Velocity":111,"Duration":543868,"SoundDuration":543868,"Delta":184846258},{"NoteNumber":52,"Velocity":94,"Duration":543868,"SoundDuration":543868,"Delta":184846258},{"NoteNumber":40,"Velocity":78,"Duration":543868,"SoundDuration":543868,"Delta":184846258},{"NoteNumber":28,"Velocity":65,"Duration":543868,"SoundDuration":543868,"Delta":184846258},{"NoteNumber":69,"Velocity":81,"Duration":92024,"SoundDuration":92024,"Delta":185390127},{"NoteNumber":57,"Velocity":69,"Duration":92024,"SoundDuration":92024,"Delta":185390127},{"NoteNumber":45,"Velocity":56,"Duration":92024,"SoundDuration":92024,"Delta":185390127},{"NoteNumber":33,"Velocity":47,"Duration":92024,"SoundDuration":92024,"Delta":185390127},{"NoteNumber":64,"Velocity":87,"Duration":92024,"SoundDuration":92024,"Delta":185574176},{"NoteNumber":52,"Velocity":73,"Duration":92024,"SoundDuration":92024,"Delta":185574176},{"NoteNumber":40,"Velocity":60,"Duration":92024,"SoundDuration":92024,"Delta":185574176},{"NoteNumber":28,"Velocity":51,"Duration":92024,"SoundDuration":92024,"Delta":185574176},{"NoteNumber":61,"Velocity":76,"Duration":88757,"SoundDuration":88757,"Delta":185758225},{"NoteNumber":49,"Velocity":65,"Duration":88757,"SoundDuration":88757,"Delta":185758225},{"NoteNumber":37,"Velocity":53,"Duration":88757,"SoundDuration":88757,"Delta":185758225},{"NoteNumber":25,"Velocity":45,"Duration":88757,"SoundDuration":88757,"Delta":185758225},{"NoteNumber":45,"Velocity":65,"Duration":88757,"SoundDuration":88757,"Delta":185935740},{"NoteNumber":57,"Velocity":65,"Duration":88757,"SoundDuration":88757,"Delta":185935740},{"NoteNumber":21,"Velocity":45,"Duration":88757,"SoundDuration":88757,"Delta":185935740},{"NoteNumber":33,"Velocity":45,"Duration":88757,"SoundDuration":88757,"Delta":185935740},{"NoteNumber":61,"Velocity":76,"Duration":88757,"SoundDuration":88757,"Delta":186113255},{"NoteNumber":49,"Velocity":65,"Duration":88757,"SoundDuration":88757,"Delta":186113255},{"NoteNumber":37,"Velocity":53,"Duration":88757,"SoundDuration":88757,"Delta":186113255},{"NoteNumber":25,"Velocity":45,"Duration":88757,"SoundDuration":88757,"Delta":186113255},{"NoteNumber":64,"Velocity":72,"Duration":88757,"SoundDuration":88757,"Delta":186290770},{"NoteNumber":52,"Velocity":60,"Duration":88757,"SoundDuration":88757,"Delta":186290770},{"NoteNumber":40,"Velocity":50,"Duration":88757,"SoundDuration":88757,"Delta":186290770},{"NoteNumber":28,"Velocity":42,"Duration":88757,"SoundDuration":88757,"Delta":186290770},{"NoteNumber":61,"Velocity":76,"Duration":88757,"SoundDuration":88757,"Delta":186468285},{"NoteNumber":49,"Velocity":65,"Duration":88757,"SoundDuration":88757,"Delta":186468285},{"NoteNumber":37,"Velocity":53,"Duration":88757,"SoundDuration":88757,"Delta":186468285},{"NoteNumber":25,"Velocity":45,"Duration":88757,"SoundDuration":88757,"Delta":186468285},{"NoteNumber":64,"Velocity":81,"Duration":91185,"SoundDuration":91185,"Delta":186645800},{"NoteNumber":52,"Velocity":69,"Duration":91185,"SoundDuration":91185,"Delta":186645800},{"NoteNumber":40,"Velocity":56,"Duration":91185,"SoundDuration":91185,"Delta":186645800},{"NoteNumber":28,"Velocity":47,"Duration":91185,"SoundDuration":91185,"Delta":186645800},{"NoteNumber":69,"Velocity":86,"Duration":94637,"SoundDuration":94637,"Delta":186828171},{"NoteNumber":57,"Velocity":72,"Duration":94637,"SoundDuration":94637,"Delta":186828171},{"NoteNumber":45,"Velocity":59,"Duration":94637,"SoundDuration":94637,"Delta":186828171},{"NoteNumber":33,"Velocity":50,"Duration":94637,"SoundDuration":94637,"Delta":186828171},{"NoteNumber":64,"Velocity":90,"Duration":757097,"SoundDuration":757097,"Delta":187017445},{"NoteNumber":52,"Velocity":76,"Duration":757097,"SoundDuration":757097,"Delta":187017445},{"NoteNumber":40,"Velocity":63,"Duration":757097,"SoundDuration":757097,"Delta":187017445},{"NoteNumber":28,"Velocity":53,"Duration":757097,"SoundDuration":757097,"Delta":187017445},{"NoteNumber":69,"Velocity":84,"Duration":96930,"SoundDuration":96930,"Delta":187774543},{"NoteNumber":57,"Velocity":71,"Duration":96930,"SoundDuration":96930,"Delta":187774543},{"NoteNumber":45,"Velocity":58,"Duration":96930,"SoundDuration":96930,"Delta":187774543},{"NoteNumber":33,"Velocity":49,"Duration":96930,"SoundDuration":96930,"Delta":187774543},{"NoteNumber":41,"Velocity":47,"Duration":239548,"SoundDuration":239548,"Delta":188113800},{"NoteNumber":48,"Velocity":51,"Duration":215315,"SoundDuration":215315,"Delta":188138032},{"NoteNumber":81,"Velocity":75,"Duration":191082,"SoundDuration":191082,"Delta":188162265},{"NoteNumber":69,"Velocity":59,"Duration":191082,"SoundDuration":191082,"Delta":188162265},{"NoteNumber":72,"Velocity":64,"Duration":191082,"SoundDuration":191082,"Delta":188162265},{"NoteNumber":57,"Velocity":58,"Duration":191082,"SoundDuration":191082,"Delta":188162265},{"NoteNumber":40,"Velocity":46,"Duration":235270,"SoundDuration":235270,"Delta":188496660},{"NoteNumber":48,"Velocity":48,"Duration":211385,"SoundDuration":211385,"Delta":188520546},{"NoteNumber":79,"Velocity":70,"Duration":187500,"SoundDuration":187500,"Delta":188544431},{"NoteNumber":67,"Velocity":59,"Duration":380425,"SoundDuration":380425,"Delta":188544431},{"NoteNumber":72,"Velocity":59,"Duration":380425,"SoundDuration":380425,"Delta":188544431},{"NoteNumber":55,"Velocity":58,"Duration":187500,"SoundDuration":187500,"Delta":188544431},{"NoteNumber":76,"Velocity":65,"Duration":192925,"SoundDuration":192925,"Delta":188731931},{"NoteNumber":41,"Velocity":47,"Duration":236614,"SoundDuration":236614,"Delta":188876626},{"NoteNumber":48,"Velocity":51,"Duration":212498,"SoundDuration":212498,"Delta":188900741},{"NoteNumber":77,"Velocity":70,"Duration":188382,"SoundDuration":188382,"Delta":188924857},{"NoteNumber":65,"Velocity":59,"Duration":380382,"SoundDuration":380382,"Delta":188924857},{"NoteNumber":69,"Velocity":59,"Duration":380382,"SoundDuration":380382,"Delta":188924857},{"NoteNumber":57,"Velocity":54,"Duration":188382,"SoundDuration":188382,"Delta":188924857},{"NoteNumber":74,"Velocity":64,"Duration":192000,"SoundDuration":192000,"Delta":189113240},{"NoteNumber":43,"Velocity":52,"Duration":237274,"SoundDuration":237274,"Delta":189257240},{"NoteNumber":52,"Velocity":55,"Duration":213274,"SoundDuration":213274,"Delta":189281240},{"NoteNumber":76,"Velocity":70,"Duration":189274,"SoundDuration":189274,"Delta":189305240},{"NoteNumber":64,"Velocity":59,"Duration":383135,"SoundDuration":383135,"Delta":189305240},{"NoteNumber":67,"Velocity":59,"Duration":383135,"SoundDuration":383135,"Delta":189305240},{"NoteNumber":60,"Velocity":56,"Duration":189274,"SoundDuration":189274,"Delta":189305240},{"NoteNumber":72,"Velocity":62,"Duration":193860,"SoundDuration":193860,"Delta":189494515},{"NoteNumber":43,"Velocity":45,"Duration":237739,"SoundDuration":237739,"Delta":189639910},{"NoteNumber":53,"Velocity":47,"Duration":213507,"SoundDuration":213507,"Delta":189664143},{"NoteNumber":74,"Velocity":66,"Duration":189274,"SoundDuration":189274,"Delta":189688376},{"NoteNumber":62,"Velocity":56,"Duration":382239,"SoundDuration":382239,"Delta":189688376},{"NoteNumber":65,"Velocity":56,"Duration":382239,"SoundDuration":382239,"Delta":189688376},{"NoteNumber":59,"Velocity":51,"Duration":189274,"SoundDuration":189274,"Delta":189688376},{"NoteNumber":71,"Velocity":60,"Duration":192964,"SoundDuration":192964,"Delta":189877650},{"NoteNumber":48,"Velocity":45,"Duration":241354,"SoundDuration":241354,"Delta":190022345},{"NoteNumber":55,"Velocity":1,"Duration":217238,"SoundDuration":217238,"Delta":190046460},{"NoteNumber":64,"Velocity":40,"Duration":193083,"SoundDuration":193083,"Delta":190070615},{"NoteNumber":72,"Velocity":57,"Duration":96813,"SoundDuration":96813,"Delta":190070615},{"NoteNumber":60,"Velocity":59,"Duration":193083,"SoundDuration":193083,"Delta":190070615},{"NoteNumber":74,"Velocity":53,"Duration":96270,"SoundDuration":96270,"Delta":190167429},{"NoteNumber":72,"Velocity":57,"Duration":95732,"SoundDuration":95732,"Delta":190263699},{"NoteNumber":71,"Velocity":53,"Duration":95163,"SoundDuration":95163,"Delta":190359431},{"NoteNumber":72,"Velocity":54,"Duration":94525,"SoundDuration":94525,"Delta":190454595},{"NoteNumber":64,"Velocity":45,"Duration":94525,"SoundDuration":94525,"Delta":190454595},{"NoteNumber":76,"Velocity":55,"Duration":94007,"SoundDuration":94007,"Delta":190549120},{"NoteNumber":67,"Velocity":46,"Duration":94007,"SoundDuration":94007,"Delta":190549120},{"NoteNumber":79,"Velocity":56,"Duration":93494,"SoundDuration":93494,"Delta":190643128},{"NoteNumber":72,"Velocity":47,"Duration":93494,"SoundDuration":93494,"Delta":190643128},{"NoteNumber":83,"Velocity":58,"Duration":62027,"SoundDuration":62027,"Delta":190736623},{"NoteNumber":74,"Velocity":49,"Duration":92951,"SoundDuration":92951,"Delta":190736623},{"NoteNumber":86,"Velocity":53,"Duration":30923,"SoundDuration":30923,"Delta":190798651},{"NoteNumber":84,"Velocity":61,"Duration":92450,"SoundDuration":92450,"Delta":190829575},{"NoteNumber":76,"Velocity":49,"Duration":92450,"SoundDuration":92450,"Delta":190829575},{"NoteNumber":83,"Velocity":57,"Duration":92449,"SoundDuration":92449,"Delta":190922025},{"NoteNumber":84,"Velocity":57,"Duration":92450,"SoundDuration":92450,"Delta":191014475},{"NoteNumber":86,"Velocity":61,"Duration":92449,"SoundDuration":92449,"Delta":191106925},{"NoteNumber":55,"Velocity":47,"Duration":231124,"SoundDuration":231124,"Delta":191153150},{"NoteNumber":65,"Velocity":51,"Duration":208012,"SoundDuration":208012,"Delta":191176262},{"NoteNumber":77,"Velocity":40,"Duration":184899,"SoundDuration":184899,"Delta":191199375},{"NoteNumber":88,"Velocity":63,"Duration":92450,"SoundDuration":92450,"Delta":191199375},{"NoteNumber":71,"Velocity":59,"Duration":184899,"SoundDuration":184899,"Delta":191199375},{"NoteNumber":86,"Velocity":60,"Duration":94122,"SoundDuration":94122,"Delta":191476725},{"NoteNumber":76,"Velocity":40,"Duration":184122,"SoundDuration":184122,"Delta":191570847},{"NoteNumber":84,"Velocity":57,"Duration":92343,"SoundDuration":92343,"Delta":191570847},{"NoteNumber":60,"Velocity":45,"Duration":184122,"SoundDuration":184122,"Delta":191570847},{"NoteNumber":67,"Velocity":1,"Duration":184122,"SoundDuration":184122,"Delta":191570847},{"NoteNumber":72,"Velocity":59,"Duration":184122,"SoundDuration":184122,"Delta":191570847},{"NoteNumber":86,"Velocity":53,"Duration":91778,"SoundDuration":91778,"Delta":191663190},{"NoteNumber":84,"Velocity":57,"Duration":91255,"SoundDuration":91255,"Delta":191754969},{"NoteNumber":83,"Velocity":53,"Duration":90669,"SoundDuration":90669,"Delta":191846224},{"NoteNumber":84,"Velocity":54,"Duration":90124,"SoundDuration":90124,"Delta":191936893},{"NoteNumber":76,"Velocity":45,"Duration":90124,"SoundDuration":90124,"Delta":191936893},{"NoteNumber":88,"Velocity":55,"Duration":89619,"SoundDuration":89619,"Delta":192027018},{"NoteNumber":79,"Velocity":46,"Duration":89619,"SoundDuration":89619,"Delta":192027018},{"NoteNumber":91,"Velocity":56,"Duration":89054,"SoundDuration":89054,"Delta":192116637},{"NoteNumber":84,"Velocity":47,"Duration":89054,"SoundDuration":89054,"Delta":192116637},{"NoteNumber":95,"Velocity":58,"Duration":59073,"SoundDuration":59073,"Delta":192205691},{"NoteNumber":86,"Velocity":49,"Duration":88528,"SoundDuration":88528,"Delta":192205691},{"NoteNumber":98,"Velocity":53,"Duration":29455,"SoundDuration":29455,"Delta":192264765},{"NoteNumber":96,"Velocity":61,"Duration":88008,"SoundDuration":88008,"Delta":192294220},{"NoteNumber":88,"Velocity":49,"Duration":88008,"SoundDuration":88008,"Delta":192294220},{"NoteNumber":95,"Velocity":57,"Duration":87976,"SoundDuration":87976,"Delta":192382229},{"NoteNumber":96,"Velocity":57,"Duration":87976,"SoundDuration":87976,"Delta":192470206},{"NoteNumber":98,"Velocity":61,"Duration":88008,"SoundDuration":88008,"Delta":192558182},{"NoteNumber":67,"Velocity":47,"Duration":220751,"SoundDuration":220751,"Delta":192602170},{"NoteNumber":77,"Velocity":51,"Duration":198757,"SoundDuration":198757,"Delta":192624164},{"NoteNumber":89,"Velocity":40,"Duration":176730,"SoundDuration":176730,"Delta":192646191},{"NoteNumber":100,"Velocity":63,"Duration":88365,"SoundDuration":88365,"Delta":192646191},{"NoteNumber":83,"Velocity":59,"Duration":176730,"SoundDuration":176730,"Delta":192646191},{"NoteNumber":98,"Velocity":60,"Duration":88365,"SoundDuration":88365,"Delta":192911287},{"NoteNumber":96,"Velocity":61,"Duration":86830,"SoundDuration":86830,"Delta":192999652},{"NoteNumber":84,"Velocity":50,"Duration":86830,"SoundDuration":86830,"Delta":192999652},{"NoteNumber":72,"Velocity":42,"Duration":86830,"SoundDuration":86830,"Delta":192999652},{"NoteNumber":76,"Velocity":42,"Duration":86830,"SoundDuration":86830,"Delta":192999652},{"NoteNumber":88,"Velocity":58,"Duration":86830,"SoundDuration":86830,"Delta":193086483},{"NoteNumber":96,"Velocity":58,"Duration":86830,"SoundDuration":86830,"Delta":193173313},{"NoteNumber":100,"Velocity":58,"Duration":86830,"SoundDuration":86830,"Delta":193260144},{"NoteNumber":103,"Velocity":64,"Duration":85714,"SoundDuration":85714,"Delta":193346975},{"NoteNumber":67,"Velocity":50,"Duration":85714,"SoundDuration":85714,"Delta":193346975},{"NoteNumber":91,"Velocity":58,"Duration":85714,"SoundDuration":85714,"Delta":193432689},{"NoteNumber":95,"Velocity":58,"Duration":85714,"SoundDuration":85714,"Delta":193518403},{"NoteNumber":83,"Velocity":46,"Duration":85714,"SoundDuration":85714,"Delta":193518403},{"NoteNumber":77,"Velocity":39,"Duration":85714,"SoundDuration":85714,"Delta":193518403},{"NoteNumber":74,"Velocity":39,"Duration":85714,"SoundDuration":85714,"Delta":193518403},{"NoteNumber":91,"Velocity":58,"Duration":85714,"SoundDuration":85714,"Delta":193604118},{"NoteNumber":96,"Velocity":65,"Duration":85714,"SoundDuration":85714,"Delta":193689832},{"NoteNumber":72,"Velocity":50,"Duration":85714,"SoundDuration":85714,"Delta":193689832},{"NoteNumber":88,"Velocity":59,"Duration":85714,"SoundDuration":85714,"Delta":193775546},{"NoteNumber":96,"Velocity":59,"Duration":85714,"SoundDuration":85714,"Delta":193861260},{"NoteNumber":84,"Velocity":46,"Duration":85714,"SoundDuration":85714,"Delta":193861260},{"NoteNumber":79,"Velocity":39,"Duration":85714,"SoundDuration":85714,"Delta":193861260},{"NoteNumber":76,"Velocity":39,"Duration":85714,"SoundDuration":85714,"Delta":193861260},{"NoteNumber":100,"Velocity":59,"Duration":85714,"SoundDuration":85714,"Delta":193946975},{"NoteNumber":103,"Velocity":65,"Duration":85714,"SoundDuration":85714,"Delta":194032689},{"NoteNumber":67,"Velocity":50,"Duration":85714,"SoundDuration":85714,"Delta":194032689},{"NoteNumber":91,"Velocity":60,"Duration":85714,"SoundDuration":85714,"Delta":194118403},{"NoteNumber":95,"Velocity":60,"Duration":87591,"SoundDuration":87591,"Delta":194204117},{"NoteNumber":83,"Velocity":46,"Duration":87591,"SoundDuration":87591,"Delta":194204117},{"NoteNumber":77,"Velocity":39,"Duration":87591,"SoundDuration":87591,"Delta":194204117},{"NoteNumber":74,"Velocity":39,"Duration":87591,"SoundDuration":87591,"Delta":194204117},{"NoteNumber":91,"Velocity":60,"Duration":87591,"SoundDuration":87591,"Delta":194291709},{"NoteNumber":96,"Velocity":61,"Duration":86830,"SoundDuration":86830,"Delta":194379300},{"NoteNumber":72,"Velocity":50,"Duration":86830,"SoundDuration":86830,"Delta":194379300},{"NoteNumber":88,"Velocity":58,"Duration":86830,"SoundDuration":86830,"Delta":194466131},{"NoteNumber":96,"Velocity":58,"Duration":86830,"SoundDuration":86830,"Delta":194552961},{"NoteNumber":84,"Velocity":46,"Duration":86830,"SoundDuration":86830,"Delta":194552961},{"NoteNumber":79,"Velocity":39,"Duration":86830,"SoundDuration":86830,"Delta":194552961},{"NoteNumber":76,"Velocity":39,"Duration":86830,"SoundDuration":86830,"Delta":194552961},{"NoteNumber":100,"Velocity":58,"Duration":86830,"SoundDuration":86830,"Delta":194639792},{"NoteNumber":103,"Velocity":64,"Duration":85714,"SoundDuration":85714,"Delta":194726623},{"NoteNumber":67,"Velocity":50,"Duration":85714,"SoundDuration":85714,"Delta":194726623},{"NoteNumber":91,"Velocity":58,"Duration":85714,"SoundDuration":85714,"Delta":194812337},{"NoteNumber":95,"Velocity":58,"Duration":85714,"SoundDuration":85714,"Delta":194898051},{"NoteNumber":83,"Velocity":46,"Duration":85714,"SoundDuration":85714,"Delta":194898051},{"NoteNumber":77,"Velocity":39,"Duration":85714,"SoundDuration":85714,"Delta":194898051},{"NoteNumber":74,"Velocity":39,"Duration":85714,"SoundDuration":85714,"Delta":194898051},{"NoteNumber":91,"Velocity":58,"Duration":85714,"SoundDuration":85714,"Delta":194983766},{"NoteNumber":96,"Velocity":65,"Duration":85714,"SoundDuration":85714,"Delta":195069480},{"NoteNumber":72,"Velocity":50,"Duration":85714,"SoundDuration":85714,"Delta":195069480},{"NoteNumber":88,"Velocity":59,"Duration":85714,"SoundDuration":85714,"Delta":195155194},{"NoteNumber":96,"Velocity":59,"Duration":85714,"SoundDuration":85714,"Delta":195240908},{"NoteNumber":84,"Velocity":46,"Duration":85714,"SoundDuration":85714,"Delta":195240908},{"NoteNumber":79,"Velocity":39,"Duration":85714,"SoundDuration":85714,"Delta":195240908},{"NoteNumber":76,"Velocity":39,"Duration":85714,"SoundDuration":85714,"Delta":195240908},{"NoteNumber":100,"Velocity":59,"Duration":85714,"SoundDuration":85714,"Delta":195326623},{"NoteNumber":103,"Velocity":65,"Duration":85714,"SoundDuration":85714,"Delta":195412337},{"NoteNumber":67,"Velocity":50,"Duration":85714,"SoundDuration":85714,"Delta":195412337},{"NoteNumber":91,"Velocity":60,"Duration":85714,"SoundDuration":85714,"Delta":195498051},{"NoteNumber":95,"Velocity":60,"Duration":87591,"SoundDuration":87591,"Delta":195583765},{"NoteNumber":83,"Velocity":46,"Duration":87591,"SoundDuration":87591,"Delta":195583765},{"NoteNumber":77,"Velocity":39,"Duration":87591,"SoundDuration":87591,"Delta":195583765},{"NoteNumber":74,"Velocity":39,"Duration":87591,"SoundDuration":87591,"Delta":195583765},{"NoteNumber":91,"Velocity":60,"Duration":87591,"SoundDuration":87591,"Delta":195671357},{"NoteNumber":72,"Velocity":45,"Duration":120437,"SoundDuration":120437,"Delta":195726101},{"NoteNumber":76,"Velocity":46,"Duration":109489,"SoundDuration":109489,"Delta":195737050},{"NoteNumber":79,"Velocity":48,"Duration":98540,"SoundDuration":98540,"Delta":195747999},{"NoteNumber":96,"Velocity":64,"Duration":87591,"SoundDuration":87591,"Delta":195758948},{"NoteNumber":84,"Velocity":50,"Duration":87591,"SoundDuration":87591,"Delta":195758948},{"NoteNumber":72,"Velocity":46,"Duration":87432,"SoundDuration":87432,"Delta":196109313},{"NoteNumber":64,"Velocity":27,"Duration":87432,"SoundDuration":87432,"Delta":196109313},{"NoteNumber":73,"Velocity":46,"Duration":87051,"SoundDuration":87051,"Delta":196196745},{"NoteNumber":65,"Velocity":28,"Duration":87051,"SoundDuration":87051,"Delta":196196745},{"NoteNumber":74,"Velocity":47,"Duration":86674,"SoundDuration":86674,"Delta":196283797},{"NoteNumber":66,"Velocity":29,"Duration":86674,"SoundDuration":86674,"Delta":196283797},{"NoteNumber":75,"Velocity":48,"Duration":86300,"SoundDuration":86300,"Delta":196370471},{"NoteNumber":67,"Velocity":30,"Duration":86300,"SoundDuration":86300,"Delta":196370471},{"NoteNumber":76,"Velocity":49,"Duration":85990,"SoundDuration":85990,"Delta":196456771},{"NoteNumber":68,"Velocity":31,"Duration":85990,"SoundDuration":85990,"Delta":196456771},{"NoteNumber":77,"Velocity":49,"Duration":85622,"SoundDuration":85622,"Delta":196542762},{"NoteNumber":69,"Velocity":32,"Duration":85622,"SoundDuration":85622,"Delta":196542762},{"NoteNumber":78,"Velocity":50,"Duration":85257,"SoundDuration":85257,"Delta":196628385},{"NoteNumber":70,"Velocity":33,"Duration":85257,"SoundDuration":85257,"Delta":196628385},{"NoteNumber":79,"Velocity":51,"Duration":84895,"SoundDuration":84895,"Delta":196713643},{"NoteNumber":71,"Velocity":34,"Duration":84895,"SoundDuration":84895,"Delta":196713643},{"NoteNumber":80,"Velocity":52,"Duration":84596,"SoundDuration":84596,"Delta":196798539},{"NoteNumber":72,"Velocity":35,"Duration":84596,"SoundDuration":84596,"Delta":196798539},{"NoteNumber":81,"Velocity":52,"Duration":84240,"SoundDuration":84240,"Delta":196883135},{"NoteNumber":73,"Velocity":36,"Duration":84240,"SoundDuration":84240,"Delta":196883135},{"NoteNumber":82,"Velocity":53,"Duration":83886,"SoundDuration":83886,"Delta":196967375},{"NoteNumber":74,"Velocity":37,"Duration":83886,"SoundDuration":83886,"Delta":196967375},{"NoteNumber":83,"Velocity":54,"Duration":83536,"SoundDuration":83536,"Delta":197051262},{"NoteNumber":75,"Velocity":38,"Duration":83536,"SoundDuration":83536,"Delta":197051262},{"NoteNumber":84,"Velocity":55,"Duration":83217,"SoundDuration":83217,"Delta":197134799},{"NoteNumber":76,"Velocity":40,"Duration":83217,"SoundDuration":83217,"Delta":197134799},{"NoteNumber":85,"Velocity":55,"Duration":83217,"SoundDuration":83217,"Delta":197218016},{"NoteNumber":77,"Velocity":41,"Duration":83217,"SoundDuration":83217,"Delta":197218016},{"NoteNumber":86,"Velocity":56,"Duration":83217,"SoundDuration":83217,"Delta":197301234},{"NoteNumber":78,"Velocity":42,"Duration":83217,"SoundDuration":83217,"Delta":197301234},{"NoteNumber":87,"Velocity":57,"Duration":83217,"SoundDuration":83217,"Delta":197384452},{"NoteNumber":79,"Velocity":43,"Duration":83217,"SoundDuration":83217,"Delta":197384452},{"NoteNumber":88,"Velocity":57,"Duration":83217,"SoundDuration":83217,"Delta":197467670},{"NoteNumber":80,"Velocity":44,"Duration":83217,"SoundDuration":83217,"Delta":197467670},{"NoteNumber":89,"Velocity":58,"Duration":83217,"SoundDuration":83217,"Delta":197550887},{"NoteNumber":81,"Velocity":45,"Duration":83217,"SoundDuration":83217,"Delta":197550887},{"NoteNumber":90,"Velocity":59,"Duration":83217,"SoundDuration":83217,"Delta":197634105},{"NoteNumber":82,"Velocity":46,"Duration":83217,"SoundDuration":83217,"Delta":197634105},{"NoteNumber":91,"Velocity":60,"Duration":83246,"SoundDuration":83246,"Delta":197717323},{"NoteNumber":83,"Velocity":47,"Duration":83246,"SoundDuration":83246,"Delta":197717323},{"NoteNumber":92,"Velocity":60,"Duration":66852,"SoundDuration":66852,"Delta":197800570},{"NoteNumber":84,"Velocity":48,"Duration":66852,"SoundDuration":66852,"Delta":197800570},{"NoteNumber":93,"Velocity":61,"Duration":66975,"SoundDuration":66975,"Delta":197867422},{"NoteNumber":85,"Velocity":49,"Duration":66975,"SoundDuration":66975,"Delta":197867422},{"NoteNumber":94,"Velocity":62,"Duration":67132,"SoundDuration":67132,"Delta":197934397},{"NoteNumber":86,"Velocity":50,"Duration":67132,"SoundDuration":67132,"Delta":197934397},{"NoteNumber":95,"Velocity":62,"Duration":73573,"SoundDuration":73573,"Delta":198001530},{"NoteNumber":87,"Velocity":51,"Duration":73573,"SoundDuration":73573,"Delta":198001530},{"NoteNumber":96,"Velocity":66,"Duration":89744,"SoundDuration":89744,"Delta":198075104},{"NoteNumber":88,"Velocity":52,"Duration":89744,"SoundDuration":89744,"Delta":198075104},{"NoteNumber":97,"Velocity":57,"Duration":84626,"SoundDuration":84626,"Delta":198164848},{"NoteNumber":100,"Velocity":40,"Duration":84955,"SoundDuration":84955,"Delta":198249475},{"NoteNumber":97,"Velocity":45,"Duration":84985,"SoundDuration":84985,"Delta":198334430},{"NoteNumber":88,"Velocity":39,"Duration":84985,"SoundDuration":84985,"Delta":198419416},{"NoteNumber":81,"Velocity":41,"Duration":83217,"SoundDuration":83217,"Delta":198504402},{"NoteNumber":85,"Velocity":38,"Duration":83217,"SoundDuration":83217,"Delta":198587620},{"NoteNumber":81,"Velocity":41,"Duration":83217,"SoundDuration":83217,"Delta":198670837},{"NoteNumber":85,"Velocity":39,"Duration":83217,"SoundDuration":83217,"Delta":198754055},{"NoteNumber":81,"Velocity":41,"Duration":83217,"SoundDuration":83217,"Delta":198837273},{"NoteNumber":73,"Velocity":44,"Duration":83217,"SoundDuration":83217,"Delta":198837273},{"NoteNumber":85,"Velocity":39,"Duration":83217,"SoundDuration":83217,"Delta":198920491},{"NoteNumber":81,"Velocity":41,"Duration":83217,"SoundDuration":83217,"Delta":199003708},{"NoteNumber":76,"Velocity":39,"Duration":83217,"SoundDuration":83217,"Delta":199003708},{"NoteNumber":85,"Velocity":38,"Duration":83217,"SoundDuration":83217,"Delta":199086926},{"NoteNumber":81,"Velocity":36,"Duration":84985,"SoundDuration":84985,"Delta":199170144},{"NoteNumber":69,"Velocity":44,"Duration":84985,"SoundDuration":84985,"Delta":199170144},{"NoteNumber":57,"Velocity":36,"Duration":84985,"SoundDuration":84985,"Delta":199170144},{"NoteNumber":64,"Velocity":36,"Duration":84985,"SoundDuration":84985,"Delta":199170144},{"NoteNumber":85,"Velocity":38,"Duration":84985,"SoundDuration":84985,"Delta":199255130},{"NoteNumber":88,"Velocity":39,"Duration":84985,"SoundDuration":84985,"Delta":199340115},{"NoteNumber":93,"Velocity":43,"Duration":84985,"SoundDuration":84985,"Delta":199425101},{"NoteNumber":97,"Velocity":45,"Duration":84985,"SoundDuration":84985,"Delta":199510087},{"NoteNumber":100,"Velocity":51,"Duration":84985,"SoundDuration":84985,"Delta":199595073},{"NoteNumber":97,"Velocity":49,"Duration":84985,"SoundDuration":84985,"Delta":199680058},{"NoteNumber":88,"Velocity":41,"Duration":84985,"SoundDuration":84985,"Delta":199765044},{"NoteNumber":81,"Velocity":41,"Duration":83217,"SoundDuration":83217,"Delta":199850030},{"NoteNumber":85,"Velocity":38,"Duration":83217,"SoundDuration":83217,"Delta":199933248},{"NoteNumber":81,"Velocity":41,"Duration":83217,"SoundDuration":83217,"Delta":200016465},{"NoteNumber":85,"Velocity":39,"Duration":83217,"SoundDuration":83217,"Delta":200099683},{"NoteNumber":81,"Velocity":41,"Duration":83217,"SoundDuration":83217,"Delta":200182901},{"NoteNumber":73,"Velocity":44,"Duration":83217,"SoundDuration":83217,"Delta":200182901},{"NoteNumber":85,"Velocity":39,"Duration":83217,"SoundDuration":83217,"Delta":200266119},{"NoteNumber":81,"Velocity":41,"Duration":83217,"SoundDuration":83217,"Delta":200349336},{"NoteNumber":76,"Velocity":39,"Duration":83217,"SoundDuration":83217,"Delta":200349336},{"NoteNumber":85,"Velocity":38,"Duration":83217,"SoundDuration":83217,"Delta":200432554},{"NoteNumber":81,"Velocity":36,"Duration":84985,"SoundDuration":84985,"Delta":200515772},{"NoteNumber":69,"Velocity":44,"Duration":84985,"SoundDuration":84985,"Delta":200515772},{"NoteNumber":57,"Velocity":36,"Duration":84985,"SoundDuration":84985,"Delta":200515772},{"NoteNumber":64,"Velocity":36,"Duration":84985,"SoundDuration":84985,"Delta":200515772},{"NoteNumber":85,"Velocity":38,"Duration":84985,"SoundDuration":84985,"Delta":200600758},{"NoteNumber":88,"Velocity":40,"Duration":84985,"SoundDuration":84985,"Delta":200685743},{"NoteNumber":93,"Velocity":44,"Duration":96462,"SoundDuration":96462,"Delta":200770729},{"NoteNumber":93,"Velocity":45,"Duration":82530,"SoundDuration":82530,"Delta":200867192},{"NoteNumber":97,"Velocity":48,"Duration":82530,"SoundDuration":82530,"Delta":200867192},{"NoteNumber":73,"Velocity":45,"Duration":82530,"SoundDuration":82530,"Delta":200867192},{"NoteNumber":98,"Velocity":52,"Duration":82531,"SoundDuration":82531,"Delta":200949723},{"NoteNumber":92,"Velocity":39,"Duration":84626,"SoundDuration":84626,"Delta":201032254},{"NoteNumber":97,"Velocity":49,"Duration":84626,"SoundDuration":84626,"Delta":201032254},{"NoteNumber":83,"Velocity":40,"Duration":84626,"SoundDuration":84626,"Delta":201032254},{"NoteNumber":77,"Velocity":34,"Duration":84626,"SoundDuration":84626,"Delta":201032254},{"NoteNumber":98,"Velocity":41,"Duration":84626,"SoundDuration":84626,"Delta":201116880},{"NoteNumber":92,"Velocity":45,"Duration":82873,"SoundDuration":82873,"Delta":201201507},{"NoteNumber":97,"Velocity":46,"Duration":82873,"SoundDuration":82873,"Delta":201201507},{"NoteNumber":78,"Velocity":45,"Duration":82873,"SoundDuration":82873,"Delta":201201507},{"NoteNumber":98,"Velocity":40,"Duration":82873,"SoundDuration":82873,"Delta":201284380},{"NoteNumber":90,"Velocity":39,"Duration":84269,"SoundDuration":84269,"Delta":201367253},{"NoteNumber":97,"Velocity":40,"Duration":84269,"SoundDuration":84269,"Delta":201367253},{"NoteNumber":81,"Velocity":39,"Duration":84269,"SoundDuration":84269,"Delta":201367253},{"NoteNumber":98,"Velocity":40,"Duration":84269,"SoundDuration":84269,"Delta":201451522},{"NoteNumber":90,"Velocity":44,"Duration":82530,"SoundDuration":82530,"Delta":201535792},{"NoteNumber":97,"Velocity":45,"Duration":82530,"SoundDuration":82530,"Delta":201535792},{"NoteNumber":73,"Velocity":44,"Duration":82530,"SoundDuration":82530,"Delta":201535792},{"NoteNumber":98,"Velocity":39,"Duration":82531,"SoundDuration":82531,"Delta":201618323},{"NoteNumber":89,"Velocity":39,"Duration":84269,"SoundDuration":84269,"Delta":201700854},{"NoteNumber":97,"Velocity":39,"Duration":84269,"SoundDuration":84269,"Delta":201700854},{"NoteNumber":83,"Velocity":39,"Duration":84269,"SoundDuration":84269,"Delta":201700854},{"NoteNumber":80,"Velocity":39,"Duration":84269,"SoundDuration":84269,"Delta":201700854},{"NoteNumber":98,"Velocity":39,"Duration":84269,"SoundDuration":84269,"Delta":201785124},{"NoteNumber":92,"Velocity":44,"Duration":82530,"SoundDuration":82530,"Delta":201869394},{"NoteNumber":97,"Velocity":45,"Duration":82530,"SoundDuration":82530,"Delta":201869394},{"NoteNumber":78,"Velocity":44,"Duration":82530,"SoundDuration":82530,"Delta":201869394},{"NoteNumber":98,"Velocity":39,"Duration":82531,"SoundDuration":82531,"Delta":201951925},{"NoteNumber":90,"Velocity":39,"Duration":84626,"SoundDuration":84626,"Delta":202034456},{"NoteNumber":97,"Velocity":39,"Duration":84626,"SoundDuration":84626,"Delta":202034456},{"NoteNumber":81,"Velocity":39,"Duration":84626,"SoundDuration":84626,"Delta":202034456},{"NoteNumber":98,"Velocity":39,"Duration":84626,"SoundDuration":84626,"Delta":202119082},{"NoteNumber":90,"Velocity":44,"Duration":82530,"SoundDuration":82530,"Delta":202203708},{"NoteNumber":97,"Velocity":42,"Duration":82530,"SoundDuration":82530,"Delta":202203708},{"NoteNumber":73,"Velocity":44,"Duration":82530,"SoundDuration":82530,"Delta":202203708},{"NoteNumber":98,"Velocity":38,"Duration":82531,"SoundDuration":82531,"Delta":202286239},{"NoteNumber":89,"Velocity":40,"Duration":84626,"SoundDuration":84626,"Delta":202368770},{"NoteNumber":97,"Velocity":38,"Duration":84626,"SoundDuration":84626,"Delta":202368770},{"NoteNumber":83,"Velocity":40,"Duration":84626,"SoundDuration":84626,"Delta":202368770},{"NoteNumber":80,"Velocity":40,"Duration":84626,"SoundDuration":84626,"Delta":202368770},{"NoteNumber":98,"Velocity":38,"Duration":84626,"SoundDuration":84626,"Delta":202453396},{"NoteNumber":97,"Velocity":52,"Duration":81521,"SoundDuration":81521,"Delta":202538023},{"NoteNumber":81,"Velocity":44,"Duration":81521,"SoundDuration":81521,"Delta":202538023},{"NoteNumber":78,"Velocity":44,"Duration":81521,"SoundDuration":81521,"Delta":202538023},{"NoteNumber":92,"Velocity":49,"Duration":81799,"SoundDuration":81799,"Delta":202619544},{"NoteNumber":90,"Velocity":48,"Duration":82079,"SoundDuration":82079,"Delta":202701344},{"NoteNumber":85,"Velocity":46,"Duration":82361,"SoundDuration":82361,"Delta":202783424},{"NoteNumber":81,"Velocity":44,"Duration":82644,"SoundDuration":82644,"Delta":202865785},{"NoteNumber":78,"Velocity":44,"Duration":82930,"SoundDuration":82930,"Delta":202948430},{"NoteNumber":73,"Velocity":42,"Duration":83217,"SoundDuration":83217,"Delta":203031361},{"NoteNumber":69,"Velocity":40,"Duration":83565,"SoundDuration":83565,"Delta":203114578},{"NoteNumber":66,"Velocity":37,"Duration":88365,"SoundDuration":88365,"Delta":203198144},{"NoteNumber":102,"Velocity":43,"Duration":82530,"SoundDuration":82530,"Delta":203551605},{"NoteNumber":69,"Velocity":45,"Duration":82530,"SoundDuration":82530,"Delta":203551605},{"NoteNumber":93,"Velocity":45,"Duration":82531,"SoundDuration":82531,"Delta":203634136},{"NoteNumber":100,"Velocity":44,"Duration":84626,"SoundDuration":84626,"Delta":203716667},{"NoteNumber":79,"Velocity":40,"Duration":84626,"SoundDuration":84626,"Delta":203716667},{"NoteNumber":73,"Velocity":34,"Duration":84626,"SoundDuration":84626,"Delta":203716667},{"NoteNumber":93,"Velocity":41,"Duration":84626,"SoundDuration":84626,"Delta":203801293},{"NoteNumber":100,"Velocity":46,"Duration":82873,"SoundDuration":82873,"Delta":203885919},{"NoteNumber":74,"Velocity":45,"Duration":82873,"SoundDuration":82873,"Delta":203885919},{"NoteNumber":93,"Velocity":40,"Duration":82873,"SoundDuration":82873,"Delta":203968792},{"NoteNumber":98,"Velocity":40,"Duration":84269,"SoundDuration":84269,"Delta":204051665},{"NoteNumber":78,"Velocity":39,"Duration":84269,"SoundDuration":84269,"Delta":204051665},{"NoteNumber":81,"Velocity":39,"Duration":84269,"SoundDuration":84269,"Delta":204051665},{"NoteNumber":93,"Velocity":40,"Duration":84269,"SoundDuration":84269,"Delta":204135935},{"NoteNumber":98,"Velocity":45,"Duration":82530,"SoundDuration":82530,"Delta":204220205},{"NoteNumber":69,"Velocity":44,"Duration":82530,"SoundDuration":82530,"Delta":204220205},{"NoteNumber":93,"Velocity":39,"Duration":82531,"SoundDuration":82531,"Delta":204302736},{"NoteNumber":97,"Velocity":39,"Duration":84269,"SoundDuration":84269,"Delta":204385267},{"NoteNumber":79,"Velocity":39,"Duration":84269,"SoundDuration":84269,"Delta":204385267},{"NoteNumber":76,"Velocity":39,"Duration":84269,"SoundDuration":84269,"Delta":204385267},{"NoteNumber":93,"Velocity":39,"Duration":84269,"SoundDuration":84269,"Delta":204469537},{"NoteNumber":100,"Velocity":45,"Duration":82530,"SoundDuration":82530,"Delta":204553806},{"NoteNumber":74,"Velocity":44,"Duration":82530,"SoundDuration":82530,"Delta":204553806},{"NoteNumber":93,"Velocity":39,"Duration":82531,"SoundDuration":82531,"Delta":204636337},{"NoteNumber":98,"Velocity":39,"Duration":84626,"SoundDuration":84626,"Delta":204718868},{"NoteNumber":78,"Velocity":39,"Duration":84626,"SoundDuration":84626,"Delta":204718868},{"NoteNumber":81,"Velocity":39,"Duration":84626,"SoundDuration":84626,"Delta":204718868},{"NoteNumber":93,"Velocity":39,"Duration":84626,"SoundDuration":84626,"Delta":204803495},{"NoteNumber":98,"Velocity":42,"Duration":82530,"SoundDuration":82530,"Delta":204888121},{"NoteNumber":69,"Velocity":44,"Duration":82530,"SoundDuration":82530,"Delta":204888121},{"NoteNumber":93,"Velocity":38,"Duration":82531,"SoundDuration":82531,"Delta":204970652},{"NoteNumber":97,"Velocity":38,"Duration":84626,"SoundDuration":84626,"Delta":205053183},{"NoteNumber":79,"Velocity":40,"Duration":84626,"SoundDuration":84626,"Delta":205053183},{"NoteNumber":76,"Velocity":40,"Duration":84626,"SoundDuration":84626,"Delta":205053183},{"NoteNumber":93,"Velocity":38,"Duration":84626,"SoundDuration":84626,"Delta":205137809},{"NoteNumber":100,"Velocity":52,"Duration":81521,"SoundDuration":81521,"Delta":205222435},{"NoteNumber":78,"Velocity":44,"Duration":81521,"SoundDuration":81521,"Delta":205222435},{"NoteNumber":74,"Velocity":44,"Duration":81521,"SoundDuration":81521,"Delta":205222435},{"NoteNumber":98,"Velocity":50,"Duration":81799,"SoundDuration":81799,"Delta":205303957},{"NoteNumber":93,"Velocity":48,"Duration":82079,"SoundDuration":82079,"Delta":205385757},{"NoteNumber":86,"Velocity":45,"Duration":82361,"SoundDuration":82361,"Delta":205467837},{"NoteNumber":81,"Velocity":44,"Duration":82644,"SoundDuration":82644,"Delta":205550198},{"NoteNumber":78,"Velocity":44,"Duration":82930,"SoundDuration":82930,"Delta":205632843},{"NoteNumber":74,"Velocity":42,"Duration":83217,"SoundDuration":83217,"Delta":205715774},{"NoteNumber":69,"Velocity":40,"Duration":83565,"SoundDuration":83565,"Delta":205798991},{"NoteNumber":62,"Velocity":37,"Duration":88365,"SoundDuration":88365,"Delta":205882557},{"NoteNumber":98,"Velocity":51,"Duration":84626,"SoundDuration":84626,"Delta":206236018},{"NoteNumber":102,"Velocity":45,"Duration":84955,"SoundDuration":84955,"Delta":206320644},{"NoteNumber":98,"Velocity":51,"Duration":84985,"SoundDuration":84985,"Delta":206405600},{"NoteNumber":90,"Velocity":41,"Duration":84985,"SoundDuration":84985,"Delta":206490586},{"NoteNumber":83,"Velocity":49,"Duration":83217,"SoundDuration":83217,"Delta":206575571},{"NoteNumber":86,"Velocity":43,"Duration":83217,"SoundDuration":83217,"Delta":206658789},{"NoteNumber":83,"Velocity":41,"Duration":83217,"SoundDuration":83217,"Delta":206742007},{"NoteNumber":86,"Velocity":39,"Duration":83217,"SoundDuration":83217,"Delta":206825225},{"NoteNumber":83,"Velocity":41,"Duration":83217,"SoundDuration":83217,"Delta":206908442},{"NoteNumber":74,"Velocity":44,"Duration":83217,"SoundDuration":83217,"Delta":206908442},{"NoteNumber":86,"Velocity":39,"Duration":83217,"SoundDuration":83217,"Delta":206991660},{"NoteNumber":83,"Velocity":41,"Duration":83217,"SoundDuration":83217,"Delta":207074878},{"NoteNumber":78,"Velocity":39,"Duration":83217,"SoundDuration":83217,"Delta":207074878},{"NoteNumber":86,"Velocity":38,"Duration":83217,"SoundDuration":83217,"Delta":207158096},{"NoteNumber":83,"Velocity":36,"Duration":84985,"SoundDuration":84985,"Delta":207241313},{"NoteNumber":71,"Velocity":44,"Duration":84985,"SoundDuration":84985,"Delta":207241313},{"NoteNumber":62,"Velocity":36,"Duration":84985,"SoundDuration":84985,"Delta":207241313},{"NoteNumber":66,"Velocity":36,"Duration":84985,"SoundDuration":84985,"Delta":207241313},{"NoteNumber":86,"Velocity":38,"Duration":84985,"SoundDuration":84985,"Delta":207326299},{"NoteNumber":90,"Velocity":41,"Duration":84985,"SoundDuration":84985,"Delta":207411285},{"NoteNumber":95,"Velocity":44,"Duration":84985,"SoundDuration":84985,"Delta":207496271},{"NoteNumber":98,"Velocity":47,"Duration":84985,"SoundDuration":84985,"Delta":207581256},{"NoteNumber":102,"Velocity":50,"Duration":84985,"SoundDuration":84985,"Delta":207666242},{"NoteNumber":98,"Velocity":49,"Duration":84985,"SoundDuration":84985,"Delta":207751228},{"NoteNumber":90,"Velocity":45,"Duration":84985,"SoundDuration":84985,"Delta":207836214},{"NoteNumber":83,"Velocity":41,"Duration":83217,"SoundDuration":83217,"Delta":207921199},{"NoteNumber":86,"Velocity":38,"Duration":83217,"SoundDuration":83217,"Delta":208004417},{"NoteNumber":83,"Velocity":41,"Duration":83217,"SoundDuration":83217,"Delta":208087635},{"NoteNumber":86,"Velocity":39,"Duration":83217,"SoundDuration":83217,"Delta":208170853},{"NoteNumber":83,"Velocity":41,"Duration":83217,"SoundDuration":83217,"Delta":208254070},{"NoteNumber":74,"Velocity":44,"Duration":83217,"SoundDuration":83217,"Delta":208254070},{"NoteNumber":86,"Velocity":39,"Duration":83217,"SoundDuration":83217,"Delta":208337288},{"NoteNumber":83,"Velocity":41,"Duration":83217,"SoundDuration":83217,"Delta":208420506},{"NoteNumber":78,"Velocity":39,"Duration":83217,"SoundDuration":83217,"Delta":208420506},{"NoteNumber":86,"Velocity":38,"Duration":83217,"SoundDuration":83217,"Delta":208503724},{"NoteNumber":83,"Velocity":36,"Duration":84985,"SoundDuration":84985,"Delta":208586941},{"NoteNumber":71,"Velocity":44,"Duration":84985,"SoundDuration":84985,"Delta":208586941},{"NoteNumber":62,"Velocity":36,"Duration":84985,"SoundDuration":84985,"Delta":208586941},{"NoteNumber":66,"Velocity":36,"Duration":84985,"SoundDuration":84985,"Delta":208586941},{"NoteNumber":98,"Velocity":47,"Duration":84985,"SoundDuration":84985,"Delta":208926884},{"NoteNumber":101,"Velocity":50,"Duration":84985,"SoundDuration":84985,"Delta":209011870},{"NoteNumber":98,"Velocity":49,"Duration":84985,"SoundDuration":84985,"Delta":209096856},{"NoteNumber":89,"Velocity":45,"Duration":84985,"SoundDuration":84985,"Delta":209181842},{"NoteNumber":82,"Velocity":41,"Duration":83217,"SoundDuration":83217,"Delta":209266827},{"NoteNumber":86,"Velocity":38,"Duration":83217,"SoundDuration":83217,"Delta":209350045},{"NoteNumber":82,"Velocity":41,"Duration":83217,"SoundDuration":83217,"Delta":209433263},{"NoteNumber":86,"Velocity":39,"Duration":83217,"SoundDuration":83217,"Delta":209516481},{"NoteNumber":82,"Velocity":41,"Duration":85348,"SoundDuration":85348,"Delta":209599698},{"NoteNumber":74,"Velocity":44,"Duration":85348,"SoundDuration":85348,"Delta":209599698},{"NoteNumber":86,"Velocity":39,"Duration":85348,"SoundDuration":85348,"Delta":209685047},{"NoteNumber":82,"Velocity":41,"Duration":85348,"SoundDuration":85348,"Delta":209770395},{"NoteNumber":77,"Velocity":39,"Duration":85348,"SoundDuration":85348,"Delta":209770395},{"NoteNumber":86,"Velocity":38,"Duration":85348,"SoundDuration":85348,"Delta":209855744},{"NoteNumber":82,"Velocity":39,"Duration":87209,"SoundDuration":87209,"Delta":209941092},{"NoteNumber":70,"Velocity":44,"Duration":87209,"SoundDuration":87209,"Delta":209941092},{"NoteNumber":62,"Velocity":36,"Duration":87209,"SoundDuration":87209,"Delta":209941092},{"NoteNumber":65,"Velocity":36,"Duration":87209,"SoundDuration":87209,"Delta":209941092},{"NoteNumber":86,"Velocity":42,"Duration":87209,"SoundDuration":87209,"Delta":210028302},{"NoteNumber":89,"Velocity":45,"Duration":87209,"SoundDuration":87209,"Delta":210115511},{"NoteNumber":94,"Velocity":46,"Duration":87209,"SoundDuration":87209,"Delta":210202720},{"NoteNumber":98,"Velocity":47,"Duration":85348,"SoundDuration":85348,"Delta":210289929},{"NoteNumber":101,"Velocity":50,"Duration":85348,"SoundDuration":85348,"Delta":210375278},{"NoteNumber":98,"Velocity":49,"Duration":85348,"SoundDuration":85348,"Delta":210460626},{"NoteNumber":89,"Velocity":45,"Duration":85348,"SoundDuration":85348,"Delta":210545975},{"NoteNumber":82,"Velocity":41,"Duration":87209,"SoundDuration":87209,"Delta":210631323},{"NoteNumber":86,"Velocity":38,"Duration":87209,"SoundDuration":87209,"Delta":210718533},{"NoteNumber":82,"Velocity":41,"Duration":87209,"SoundDuration":87209,"Delta":210805742},{"NoteNumber":86,"Velocity":39,"Duration":87209,"SoundDuration":87209,"Delta":210892951},{"NoteNumber":82,"Velocity":41,"Duration":92879,"SoundDuration":92879,"Delta":210980160},{"NoteNumber":74,"Velocity":44,"Duration":92879,"SoundDuration":92879,"Delta":210980160},{"NoteNumber":86,"Velocity":39,"Duration":92879,"SoundDuration":92879,"Delta":211073040},{"NoteNumber":82,"Velocity":41,"Duration":97879,"SoundDuration":97879,"Delta":211165919},{"NoteNumber":77,"Velocity":39,"Duration":97879,"SoundDuration":97879,"Delta":211165919},{"NoteNumber":86,"Velocity":38,"Duration":97879,"SoundDuration":97879,"Delta":211263798},{"NoteNumber":82,"Velocity":36,"Duration":92024,"SoundDuration":92024,"Delta":211361677},{"NoteNumber":70,"Velocity":44,"Duration":92024,"SoundDuration":92024,"Delta":211361677},{"NoteNumber":62,"Velocity":36,"Duration":92024,"SoundDuration":92024,"Delta":211361677},{"NoteNumber":65,"Velocity":36,"Duration":92024,"SoundDuration":92024,"Delta":211361677},{"NoteNumber":82,"Velocity":36,"Duration":66568,"SoundDuration":66568,"Delta":211729775},{"NoteNumber":82,"Velocity":35,"Duration":66568,"SoundDuration":66568,"Delta":211818533},{"NoteNumber":94,"Velocity":41,"Duration":66568,"SoundDuration":66568,"Delta":211907290},{"NoteNumber":82,"Velocity":35,"Duration":66568,"SoundDuration":66568,"Delta":211996048},{"NoteNumber":81,"Velocity":36,"Duration":64285,"SoundDuration":64285,"Delta":212084805},{"NoteNumber":81,"Velocity":34,"Duration":64285,"SoundDuration":64285,"Delta":212170520},{"NoteNumber":93,"Velocity":41,"Duration":64285,"SoundDuration":64285,"Delta":212256234},{"NoteNumber":81,"Velocity":33,"Duration":64285,"SoundDuration":64285,"Delta":212341948},{"NoteNumber":78,"Velocity":36,"Duration":63739,"SoundDuration":63739,"Delta":212427662},{"NoteNumber":78,"Velocity":34,"Duration":63739,"SoundDuration":63739,"Delta":212512648},{"NoteNumber":90,"Velocity":42,"Duration":63739,"SoundDuration":63739,"Delta":212597634},{"NoteNumber":78,"Velocity":34,"Duration":63739,"SoundDuration":63739,"Delta":212682620},{"NoteNumber":77,"Velocity":36,"Duration":63739,"SoundDuration":63739,"Delta":212767605},{"NoteNumber":77,"Velocity":32,"Duration":63739,"SoundDuration":63739,"Delta":212852591},{"NoteNumber":89,"Velocity":41,"Duration":63739,"SoundDuration":63739,"Delta":212937577},{"NoteNumber":77,"Velocity":36,"Duration":63739,"SoundDuration":63739,"Delta":213022563},{"NoteNumber":75,"Velocity":36,"Duration":63739,"SoundDuration":63739,"Delta":213107548},{"NoteNumber":75,"Velocity":34,"Duration":63739,"SoundDuration":63739,"Delta":213192534},{"NoteNumber":87,"Velocity":39,"Duration":65123,"SoundDuration":65123,"Delta":213277520},{"NoteNumber":75,"Velocity":36,"Duration":65123,"SoundDuration":65123,"Delta":213364351},{"NoteNumber":74,"Velocity":36,"Duration":63202,"SoundDuration":63202,"Delta":213451181},{"NoteNumber":74,"Velocity":32,"Duration":63202,"SoundDuration":63202,"Delta":213535451},{"NoteNumber":86,"Velocity":42,"Duration":63202,"SoundDuration":63202,"Delta":213619721},{"NoteNumber":74,"Velocity":35,"Duration":63202,"SoundDuration":63202,"Delta":213703991},{"NoteNumber":86,"Velocity":43,"Duration":112359,"SoundDuration":112359,"Delta":213788260},{"NoteNumber":75,"Velocity":37,"Duration":112359,"SoundDuration":112359,"Delta":213900620},{"NoteNumber":87,"Velocity":41,"Duration":112359,"SoundDuration":112359,"Delta":214012980},{"NoteNumber":77,"Velocity":41,"Duration":84269,"SoundDuration":84269,"Delta":214125339},{"NoteNumber":77,"Velocity":36,"Duration":84269,"SoundDuration":84269,"Delta":214209609},{"NoteNumber":89,"Velocity":45,"Duration":84269,"SoundDuration":84269,"Delta":214293879},{"NoteNumber":77,"Velocity":36,"Duration":84269,"SoundDuration":84269,"Delta":214378149},{"NoteNumber":89,"Velocity":44,"Duration":114285,"SoundDuration":114285,"Delta":214462418},{"NoteNumber":82,"Velocity":36,"Duration":111713,"SoundDuration":111713,"Delta":214576704},{"NoteNumber":70,"Velocity":34,"Duration":163711,"SoundDuration":163711,"Delta":214633847},{"NoteNumber":94,"Velocity":44,"Duration":109140,"SoundDuration":109140,"Delta":214688417},{"NoteNumber":89,"Velocity":36,"Duration":112359,"SoundDuration":112359,"Delta":214797558},{"NoteNumber":65,"Velocity":36,"Duration":509245,"SoundDuration":509245,"Delta":214797558},{"NoteNumber":77,"Velocity":36,"Duration":509245,"SoundDuration":509245,"Delta":214797558},{"NoteNumber":77,"Velocity":32,"Duration":112359,"SoundDuration":112359,"Delta":214909918},{"NoteNumber":82,"Velocity":32,"Duration":112359,"SoundDuration":112359,"Delta":215022277},{"NoteNumber":89,"Velocity":36,"Duration":114777,"SoundDuration":114777,"Delta":215134637},{"NoteNumber":82,"Velocity":36,"Duration":112183,"SoundDuration":112183,"Delta":215249415},{"NoteNumber":70,"Velocity":34,"Duration":164383,"SoundDuration":164383,"Delta":215306803},{"NoteNumber":94,"Velocity":39,"Duration":109588,"SoundDuration":109588,"Delta":215361598},{"NoteNumber":89,"Velocity":36,"Duration":112359,"SoundDuration":112359,"Delta":215471187},{"NoteNumber":65,"Velocity":36,"Duration":505618,"SoundDuration":505618,"Delta":215471187},{"NoteNumber":77,"Velocity":36,"Duration":505618,"SoundDuration":505618,"Delta":215471187},{"NoteNumber":77,"Velocity":33,"Duration":112359,"SoundDuration":112359,"Delta":215583547},{"NoteNumber":82,"Velocity":36,"Duration":112359,"SoundDuration":112359,"Delta":215695906},{"NoteNumber":89,"Velocity":38,"Duration":112359,"SoundDuration":112359,"Delta":215808266},{"NoteNumber":82,"Velocity":36,"Duration":110974,"SoundDuration":110974,"Delta":215920626},{"NoteNumber":70,"Velocity":35,"Duration":164383,"SoundDuration":164383,"Delta":215976805},{"NoteNumber":94,"Velocity":40,"Duration":109588,"SoundDuration":109588,"Delta":216031600},{"NoteNumber":89,"Velocity":40,"Duration":111887,"SoundDuration":111887,"Delta":216141189},{"NoteNumber":65,"Velocity":36,"Duration":167832,"SoundDuration":167832,"Delta":216141189},{"NoteNumber":77,"Velocity":36,"Duration":167832,"SoundDuration":167832,"Delta":216141189},{"NoteNumber":82,"Velocity":36,"Duration":111887,"SoundDuration":111887,"Delta":216253077},{"NoteNumber":70,"Velocity":33,"Duration":167832,"SoundDuration":167832,"Delta":216309021},{"NoteNumber":94,"Velocity":36,"Duration":111888,"SoundDuration":111888,"Delta":216364965},{"NoteNumber":89,"Velocity":39,"Duration":112645,"SoundDuration":112645,"Delta":216476853},{"NoteNumber":65,"Velocity":36,"Duration":169063,"SoundDuration":169063,"Delta":216476853},{"NoteNumber":77,"Velocity":36,"Duration":169063,"SoundDuration":169063,"Delta":216476853},{"NoteNumber":82,"Velocity":36,"Duration":112858,"SoundDuration":112858,"Delta":216589498},{"NoteNumber":70,"Velocity":32,"Duration":169755,"SoundDuration":169755,"Delta":216645916},{"NoteNumber":94,"Velocity":36,"Duration":113314,"SoundDuration":113314,"Delta":216702357},{"NoteNumber":89,"Velocity":39,"Duration":113459,"SoundDuration":113459,"Delta":216815672},{"NoteNumber":65,"Velocity":36,"Duration":170358,"SoundDuration":170358,"Delta":216815672},{"NoteNumber":77,"Velocity":36,"Duration":170358,"SoundDuration":170358,"Delta":216815672},{"NoteNumber":82,"Velocity":36,"Duration":113798,"SoundDuration":113798,"Delta":216929131},{"NoteNumber":70,"Velocity":33,"Duration":170965,"SoundDuration":170965,"Delta":216986030},{"NoteNumber":94,"Velocity":36,"Duration":114066,"SoundDuration":114066,"Delta":217042929},{"NoteNumber":89,"Velocity":39,"Duration":114285,"SoundDuration":114285,"Delta":217156995},{"NoteNumber":65,"Velocity":36,"Duration":171576,"SoundDuration":171576,"Delta":217156995},{"NoteNumber":77,"Velocity":36,"Duration":171576,"SoundDuration":171576,"Delta":217156995},{"NoteNumber":82,"Velocity":37,"Duration":114679,"SoundDuration":114679,"Delta":217271281},{"NoteNumber":70,"Velocity":33,"Duration":172191,"SoundDuration":172191,"Delta":217328572},{"NoteNumber":94,"Velocity":37,"Duration":114802,"SoundDuration":114802,"Delta":217385960},{"NoteNumber":89,"Velocity":42,"Duration":86455,"SoundDuration":86455,"Delta":217500763},{"NoteNumber":65,"Velocity":36,"Duration":86455,"SoundDuration":86455,"Delta":217500763},{"NoteNumber":77,"Velocity":36,"Duration":86455,"SoundDuration":86455,"Delta":217500763},{"NoteNumber":86,"Velocity":38,"Duration":87591,"SoundDuration":87591,"Delta":217846678},{"NoteNumber":82,"Velocity":32,"Duration":87591,"SoundDuration":87591,"Delta":217846678},{"NoteNumber":87,"Velocity":38,"Duration":87559,"SoundDuration":87559,"Delta":217934270},{"NoteNumber":83,"Velocity":32,"Duration":87559,"SoundDuration":87559,"Delta":217934270},{"NoteNumber":88,"Velocity":39,"Duration":87209,"SoundDuration":87209,"Delta":218021829},{"NoteNumber":84,"Velocity":33,"Duration":87209,"SoundDuration":87209,"Delta":218021829},{"NoteNumber":89,"Velocity":40,"Duration":87177,"SoundDuration":87177,"Delta":218109038},{"NoteNumber":85,"Velocity":34,"Duration":87177,"SoundDuration":87177,"Delta":218109038},{"NoteNumber":90,"Velocity":41,"Duration":86830,"SoundDuration":86830,"Delta":218196216},{"NoteNumber":86,"Velocity":35,"Duration":86830,"SoundDuration":86830,"Delta":218196216},{"NoteNumber":91,"Velocity":42,"Duration":86799,"SoundDuration":86799,"Delta":218283047},{"NoteNumber":87,"Velocity":36,"Duration":86799,"SoundDuration":86799,"Delta":218283047},{"NoteNumber":92,"Velocity":43,"Duration":86455,"SoundDuration":86455,"Delta":218369846},{"NoteNumber":88,"Velocity":37,"Duration":86455,"SoundDuration":86455,"Delta":218369846},{"NoteNumber":89,"Velocity":44,"Duration":86424,"SoundDuration":86424,"Delta":218456302},{"NoteNumber":93,"Velocity":44,"Duration":86424,"SoundDuration":86424,"Delta":218456302},{"NoteNumber":94,"Velocity":45,"Duration":86083,"SoundDuration":86083,"Delta":218542726},{"NoteNumber":90,"Velocity":38,"Duration":86083,"SoundDuration":86083,"Delta":218542726},{"NoteNumber":95,"Velocity":46,"Duration":86052,"SoundDuration":86052,"Delta":218628809},{"NoteNumber":91,"Velocity":38,"Duration":86052,"SoundDuration":86052,"Delta":218628809},{"NoteNumber":96,"Velocity":47,"Duration":85714,"SoundDuration":85714,"Delta":218714862},{"NoteNumber":92,"Velocity":39,"Duration":85714,"SoundDuration":85714,"Delta":218714862},{"NoteNumber":97,"Velocity":48,"Duration":85622,"SoundDuration":85622,"Delta":218800576},{"NoteNumber":93,"Velocity":40,"Duration":85622,"SoundDuration":85622,"Delta":218800576},{"NoteNumber":98,"Velocity":49,"Duration":85108,"SoundDuration":85108,"Delta":218886199},{"NoteNumber":94,"Velocity":41,"Duration":85108,"SoundDuration":85108,"Delta":218886199},{"NoteNumber":97,"Velocity":49,"Duration":84985,"SoundDuration":84985,"Delta":218971307},{"NoteNumber":93,"Velocity":41,"Duration":84985,"SoundDuration":84985,"Delta":218971307},{"NoteNumber":96,"Velocity":48,"Duration":84985,"SoundDuration":84985,"Delta":219056293},{"NoteNumber":92,"Velocity":40,"Duration":84985,"SoundDuration":84985,"Delta":219056293},{"NoteNumber":95,"Velocity":47,"Duration":84985,"SoundDuration":84985,"Delta":219141278},{"NoteNumber":91,"Velocity":39,"Duration":84985,"SoundDuration":84985,"Delta":219141278},{"NoteNumber":94,"Velocity":46,"Duration":84985,"SoundDuration":84985,"Delta":219226264},{"NoteNumber":90,"Velocity":38,"Duration":84985,"SoundDuration":84985,"Delta":219226264},{"NoteNumber":93,"Velocity":46,"Duration":84985,"SoundDuration":84985,"Delta":219311250},{"NoteNumber":89,"Velocity":38,"Duration":84985,"SoundDuration":84985,"Delta":219311250},{"NoteNumber":92,"Velocity":45,"Duration":84985,"SoundDuration":84985,"Delta":219396236},{"NoteNumber":88,"Velocity":38,"Duration":84985,"SoundDuration":84985,"Delta":219396236},{"NoteNumber":91,"Velocity":44,"Duration":84985,"SoundDuration":84985,"Delta":219481221},{"NoteNumber":87,"Velocity":37,"Duration":84985,"SoundDuration":84985,"Delta":219481221},{"NoteNumber":90,"Velocity":43,"Duration":84985,"SoundDuration":84985,"Delta":219566207},{"NoteNumber":86,"Velocity":37,"Duration":84985,"SoundDuration":84985,"Delta":219566207},{"NoteNumber":89,"Velocity":43,"Duration":84985,"SoundDuration":84985,"Delta":219651193},{"NoteNumber":85,"Velocity":37,"Duration":84985,"SoundDuration":84985,"Delta":219651193},{"NoteNumber":88,"Velocity":42,"Duration":84985,"SoundDuration":84985,"Delta":219736179},{"NoteNumber":84,"Velocity":36,"Duration":84985,"SoundDuration":84985,"Delta":219736179},{"NoteNumber":87,"Velocity":41,"Duration":85076,"SoundDuration":85076,"Delta":219821164},{"NoteNumber":83,"Velocity":35,"Duration":85076,"SoundDuration":85076,"Delta":219821164},{"NoteNumber":86,"Velocity":40,"Duration":85348,"SoundDuration":85348,"Delta":219906241},{"NoteNumber":82,"Velocity":34,"Duration":85348,"SoundDuration":85348,"Delta":219906241},{"NoteNumber":85,"Velocity":40,"Duration":85622,"SoundDuration":85622,"Delta":219991589},{"NoteNumber":81,"Velocity":34,"Duration":85622,"SoundDuration":85622,"Delta":219991589},{"NoteNumber":84,"Velocity":41,"Duration":85868,"SoundDuration":85868,"Delta":220077212},{"NoteNumber":80,"Velocity":35,"Duration":85868,"SoundDuration":85868,"Delta":220077212},{"NoteNumber":83,"Velocity":41,"Duration":86114,"SoundDuration":86114,"Delta":220163080},{"NoteNumber":79,"Velocity":35,"Duration":86114,"SoundDuration":86114,"Delta":220163080},{"NoteNumber":82,"Velocity":42,"Duration":86799,"SoundDuration":86799,"Delta":220249194},{"NoteNumber":78,"Velocity":36,"Duration":86799,"SoundDuration":86799,"Delta":220249194},{"NoteNumber":81,"Velocity":42,"Duration":86830,"SoundDuration":86830,"Delta":220335994},{"NoteNumber":77,"Velocity":36,"Duration":86830,"SoundDuration":86830,"Delta":220335994},{"NoteNumber":80,"Velocity":43,"Duration":86830,"SoundDuration":86830,"Delta":220422825},{"NoteNumber":76,"Velocity":37,"Duration":86830,"SoundDuration":86830,"Delta":220422825},{"NoteNumber":79,"Velocity":43,"Duration":86830,"SoundDuration":86830,"Delta":220509655},{"NoteNumber":75,"Velocity":37,"Duration":86830,"SoundDuration":86830,"Delta":220509655},{"NoteNumber":78,"Velocity":44,"Duration":86830,"SoundDuration":86830,"Delta":220596486},{"NoteNumber":74,"Velocity":37,"Duration":86830,"SoundDuration":86830,"Delta":220596486},{"NoteNumber":77,"Velocity":44,"Duration":87051,"SoundDuration":87051,"Delta":220683317},{"NoteNumber":73,"Velocity":37,"Duration":87051,"SoundDuration":87051,"Delta":220683317},{"NoteNumber":76,"Velocity":45,"Duration":87209,"SoundDuration":87209,"Delta":220770368},{"NoteNumber":72,"Velocity":38,"Duration":87209,"SoundDuration":87209,"Delta":220770368},{"NoteNumber":75,"Velocity":45,"Duration":87209,"SoundDuration":87209,"Delta":220857578},{"NoteNumber":71,"Velocity":38,"Duration":87209,"SoundDuration":87209,"Delta":220857578},{"NoteNumber":74,"Velocity":46,"Duration":87209,"SoundDuration":87209,"Delta":220944787},{"NoteNumber":70,"Velocity":38,"Duration":87209,"SoundDuration":87209,"Delta":220944787},{"NoteNumber":73,"Velocity":46,"Duration":87209,"SoundDuration":87209,"Delta":221031996},{"NoteNumber":69,"Velocity":38,"Duration":87209,"SoundDuration":87209,"Delta":221031996},{"NoteNumber":72,"Velocity":47,"Duration":87304,"SoundDuration":87304,"Delta":221119205},{"NoteNumber":68,"Velocity":39,"Duration":87304,"SoundDuration":87304,"Delta":221119205},{"NoteNumber":71,"Velocity":47,"Duration":87591,"SoundDuration":87591,"Delta":221206510},{"NoteNumber":67,"Velocity":39,"Duration":87591,"SoundDuration":87591,"Delta":221206510},{"NoteNumber":70,"Velocity":48,"Duration":87591,"SoundDuration":87591,"Delta":221294101},{"NoteNumber":66,"Velocity":48,"Duration":87591,"SoundDuration":87591,"Delta":221294101},{"NoteNumber":69,"Velocity":48,"Duration":87591,"SoundDuration":87591,"Delta":221381693},{"NoteNumber":65,"Velocity":48,"Duration":87591,"SoundDuration":87591,"Delta":221381693},{"NoteNumber":68,"Velocity":49,"Duration":87591,"SoundDuration":87591,"Delta":221469284},{"NoteNumber":64,"Velocity":41,"Duration":87591,"SoundDuration":87591,"Delta":221469284},{"NoteNumber":67,"Velocity":49,"Duration":87591,"SoundDuration":87591,"Delta":221556875},{"NoteNumber":63,"Velocity":41,"Duration":87591,"SoundDuration":87591,"Delta":221556875},{"NoteNumber":66,"Velocity":50,"Duration":87591,"SoundDuration":87591,"Delta":221644466},{"NoteNumber":62,"Velocity":42,"Duration":87591,"SoundDuration":87591,"Delta":221644466},{"NoteNumber":65,"Velocity":50,"Duration":87591,"SoundDuration":87591,"Delta":221732058},{"NoteNumber":61,"Velocity":42,"Duration":87591,"SoundDuration":87591,"Delta":221732058},{"NoteNumber":64,"Velocity":51,"Duration":87591,"SoundDuration":87591,"Delta":221819649},{"NoteNumber":60,"Velocity":42,"Duration":87591,"SoundDuration":87591,"Delta":221819649},{"NoteNumber":63,"Velocity":51,"Duration":87591,"SoundDuration":87591,"Delta":221907240},{"NoteNumber":59,"Velocity":42,"Duration":87591,"SoundDuration":87591,"Delta":221907240},{"NoteNumber":62,"Velocity":49,"Duration":87591,"SoundDuration":87591,"Delta":221994831},{"NoteNumber":58,"Velocity":35,"Duration":87591,"SoundDuration":87591,"Delta":221994831},{"NoteNumber":61,"Velocity":52,"Duration":87880,"SoundDuration":87880,"Delta":222082423},{"NoteNumber":57,"Velocity":43,"Duration":87880,"SoundDuration":87880,"Delta":222082423},{"NoteNumber":60,"Velocity":52,"Duration":87976,"SoundDuration":87976,"Delta":222170303},{"NoteNumber":56,"Velocity":43,"Duration":87976,"SoundDuration":87976,"Delta":222170303},{"NoteNumber":59,"Velocity":53,"Duration":87976,"SoundDuration":87976,"Delta":222258279},{"NoteNumber":55,"Velocity":44,"Duration":87976,"SoundDuration":87976,"Delta":222258279},{"NoteNumber":58,"Velocity":53,"Duration":87976,"SoundDuration":87976,"Delta":222346256},{"NoteNumber":54,"Velocity":44,"Duration":87976,"SoundDuration":87976,"Delta":222346256},{"NoteNumber":57,"Velocity":53,"Duration":87976,"SoundDuration":87976,"Delta":222434232},{"NoteNumber":53,"Velocity":44,"Duration":87976,"SoundDuration":87976,"Delta":222434232},{"NoteNumber":56,"Velocity":54,"Duration":88138,"SoundDuration":88138,"Delta":222522209},{"NoteNumber":52,"Velocity":45,"Duration":88138,"SoundDuration":88138,"Delta":222522209},{"NoteNumber":55,"Velocity":54,"Duration":88365,"SoundDuration":88365,"Delta":222610347},{"NoteNumber":51,"Velocity":45,"Duration":88365,"SoundDuration":88365,"Delta":222610347},{"NoteNumber":54,"Velocity":54,"Duration":88365,"SoundDuration":88365,"Delta":222698713},{"NoteNumber":50,"Velocity":45,"Duration":88365,"SoundDuration":88365,"Delta":222698713},{"NoteNumber":53,"Velocity":55,"Duration":88365,"SoundDuration":88365,"Delta":222787078},{"NoteNumber":49,"Velocity":46,"Duration":88365,"SoundDuration":88365,"Delta":222787078},{"NoteNumber":52,"Velocity":55,"Duration":88365,"SoundDuration":88365,"Delta":222875443},{"NoteNumber":48,"Velocity":46,"Duration":88365,"SoundDuration":88365,"Delta":222875443},{"NoteNumber":51,"Velocity":55,"Duration":88463,"SoundDuration":88463,"Delta":222963808},{"NoteNumber":47,"Velocity":46,"Duration":88463,"SoundDuration":88463,"Delta":222963808},{"NoteNumber":50,"Velocity":56,"Duration":88988,"SoundDuration":88988,"Delta":223052272},{"NoteNumber":46,"Velocity":47,"Duration":88988,"SoundDuration":88988,"Delta":223052272},{"NoteNumber":49,"Velocity":56,"Duration":89686,"SoundDuration":89686,"Delta":223141260},{"NoteNumber":45,"Velocity":47,"Duration":89686,"SoundDuration":89686,"Delta":223141260},{"NoteNumber":48,"Velocity":57,"Duration":90362,"SoundDuration":90362,"Delta":223230947},{"NoteNumber":44,"Velocity":48,"Duration":90362,"SoundDuration":90362,"Delta":223230947},{"NoteNumber":47,"Velocity":57,"Duration":91047,"SoundDuration":91047,"Delta":223321309},{"NoteNumber":43,"Velocity":48,"Duration":91047,"SoundDuration":91047,"Delta":223321309},{"NoteNumber":46,"Velocity":55,"Duration":91778,"SoundDuration":91778,"Delta":223412357},{"NoteNumber":42,"Velocity":46,"Duration":91778,"SoundDuration":91778,"Delta":223412357},{"NoteNumber":45,"Velocity":52,"Duration":92450,"SoundDuration":92450,"Delta":223504135},{"NoteNumber":41,"Velocity":43,"Duration":92450,"SoundDuration":92450,"Delta":223504135},{"NoteNumber":44,"Velocity":49,"Duration":93168,"SoundDuration":93168,"Delta":223596586},{"NoteNumber":40,"Velocity":41,"Duration":93168,"SoundDuration":93168,"Delta":223596586},{"NoteNumber":45,"Velocity":45,"Duration":93933,"SoundDuration":93933,"Delta":223689755},{"NoteNumber":39,"Velocity":38,"Duration":93933,"SoundDuration":93933,"Delta":223689755},{"NoteNumber":46,"Velocity":43,"Duration":94600,"SoundDuration":94600,"Delta":223783689},{"NoteNumber":38,"Velocity":37,"Duration":189237,"SoundDuration":189237,"Delta":223783689},{"NoteNumber":47,"Velocity":43,"Duration":94637,"SoundDuration":94637,"Delta":223878289},{"NoteNumber":48,"Velocity":42,"Duration":94637,"SoundDuration":94637,"Delta":223972926},{"NoteNumber":37,"Velocity":36,"Duration":94637,"SoundDuration":94637,"Delta":223972926},{"NoteNumber":49,"Velocity":41,"Duration":94637,"SoundDuration":94637,"Delta":224067563},{"NoteNumber":36,"Velocity":35,"Duration":94637,"SoundDuration":94637,"Delta":224067563},{"NoteNumber":50,"Velocity":41,"Duration":126182,"SoundDuration":126182,"Delta":224162201},{"NoteNumber":35,"Velocity":35,"Duration":126182,"SoundDuration":126182,"Delta":224162201},{"NoteNumber":51,"Velocity":40,"Duration":126182,"SoundDuration":126182,"Delta":224288384},{"NoteNumber":34,"Velocity":34,"Duration":126182,"SoundDuration":126182,"Delta":224288384},{"NoteNumber":52,"Velocity":39,"Duration":126182,"SoundDuration":126182,"Delta":224414567},{"NoteNumber":33,"Velocity":33,"Duration":126182,"SoundDuration":126182,"Delta":224414567},{"NoteNumber":53,"Velocity":44,"Duration":129058,"SoundDuration":129058,"Delta":224540750},{"NoteNumber":47,"Velocity":36,"Duration":129058,"SoundDuration":129058,"Delta":224540750},{"NoteNumber":50,"Velocity":36,"Duration":129058,"SoundDuration":129058,"Delta":224540750},{"NoteNumber":32,"Velocity":31,"Duration":129870,"SoundDuration":129870,"Delta":224540750},{"NoteNumber":38,"Velocity":27,"Duration":129869,"SoundDuration":129869,"Delta":224670620},{"NoteNumber":41,"Velocity":27,"Duration":129870,"SoundDuration":129870,"Delta":224800490},{"NoteNumber":52,"Velocity":36,"Duration":184048,"SoundDuration":184048,"Delta":224930360},{"NoteNumber":47,"Velocity":30,"Duration":377909,"SoundDuration":377909,"Delta":224930360},{"NoteNumber":49,"Velocity":30,"Duration":184048,"SoundDuration":184048,"Delta":224930360},{"NoteNumber":31,"Velocity":31,"Duration":122699,"SoundDuration":122699,"Delta":224930360},{"NoteNumber":37,"Velocity":28,"Duration":125969,"SoundDuration":125969,"Delta":225053059},{"NoteNumber":55,"Velocity":36,"Duration":193860,"SoundDuration":193860,"Delta":225114409},{"NoteNumber":40,"Velocity":28,"Duration":129240,"SoundDuration":129240,"Delta":225179029},{"NoteNumber":53,"Velocity":42,"Duration":124218,"SoundDuration":124218,"Delta":225308270},{"NoteNumber":47,"Velocity":35,"Duration":124218,"SoundDuration":124218,"Delta":225308270},{"NoteNumber":50,"Velocity":35,"Duration":124218,"SoundDuration":124218,"Delta":225308270},{"NoteNumber":32,"Velocity":31,"Duration":125000,"SoundDuration":125000,"Delta":225308270},{"NoteNumber":38,"Velocity":27,"Duration":125000,"SoundDuration":125000,"Delta":225433270},{"NoteNumber":41,"Velocity":27,"Duration":125000,"SoundDuration":125000,"Delta":225558270},{"NoteNumber":52,"Velocity":40,"Duration":180723,"SoundDuration":180723,"Delta":225683270},{"NoteNumber":47,"Velocity":34,"Duration":373649,"SoundDuration":373649,"Delta":225683270},{"NoteNumber":49,"Velocity":34,"Duration":180723,"SoundDuration":180723,"Delta":225683270},{"NoteNumber":32,"Velocity":31,"Duration":120482,"SoundDuration":120482,"Delta":225683270},{"NoteNumber":37,"Velocity":28,"Duration":124549,"SoundDuration":124549,"Delta":225803752},{"NoteNumber":55,"Velocity":36,"Duration":192925,"SoundDuration":192925,"Delta":225863993},{"NoteNumber":40,"Velocity":28,"Duration":128617,"SoundDuration":128617,"Delta":225928301},{"NoteNumber":53,"Velocity":36,"Duration":130327,"SoundDuration":130327,"Delta":226056919},{"NoteNumber":47,"Velocity":30,"Duration":130327,"SoundDuration":130327,"Delta":226056919},{"NoteNumber":50,"Velocity":30,"Duration":130327,"SoundDuration":130327,"Delta":226056919},{"NoteNumber":32,"Velocity":31,"Duration":131147,"SoundDuration":131147,"Delta":226056919},{"NoteNumber":38,"Velocity":27,"Duration":131147,"SoundDuration":131147,"Delta":226188066},{"NoteNumber":41,"Velocity":27,"Duration":131147,"SoundDuration":131147,"Delta":226319214},{"NoteNumber":52,"Velocity":34,"Duration":134290,"SoundDuration":134290,"Delta":226450362},{"NoteNumber":47,"Velocity":28,"Duration":134290,"SoundDuration":134290,"Delta":226450362},{"NoteNumber":49,"Velocity":28,"Duration":133445,"SoundDuration":133445,"Delta":226450362},{"NoteNumber":32,"Velocity":31,"Duration":135134,"SoundDuration":135134,"Delta":226450362},{"NoteNumber":37,"Velocity":28,"Duration":135135,"SoundDuration":135135,"Delta":226585497},{"NoteNumber":40,"Velocity":28,"Duration":135134,"SoundDuration":135134,"Delta":226720632},{"NoteNumber":53,"Velocity":36,"Duration":803329,"SoundDuration":803329,"Delta":226855767},{"NoteNumber":47,"Velocity":30,"Duration":803329,"SoundDuration":803329,"Delta":226855767},{"NoteNumber":50,"Velocity":30,"Duration":803329,"SoundDuration":803329,"Delta":226855767},{"NoteNumber":32,"Velocity":31,"Duration":133779,"SoundDuration":133779,"Delta":226855767},{"NoteNumber":38,"Velocity":27,"Duration":133779,"SoundDuration":133779,"Delta":226989546},{"NoteNumber":41,"Velocity":27,"Duration":133779,"SoundDuration":133779,"Delta":227123325},{"NoteNumber":38,"Velocity":31,"Duration":133779,"SoundDuration":133779,"Delta":227257105},{"NoteNumber":35,"Velocity":28,"Duration":133779,"SoundDuration":133779,"Delta":227390884},{"NoteNumber":32,"Velocity":28,"Duration":134432,"SoundDuration":134432,"Delta":227524663},{"NoteNumber":29,"Velocity":21,"Duration":105924,"SoundDuration":105924,"Delta":227659096},{"NoteNumber":28,"Velocity":25,"Duration":104873,"SoundDuration":104873,"Delta":227730281},{"NoteNumber":29,"Velocity":27,"Duration":103994,"SoundDuration":103994,"Delta":227799549},{"NoteNumber":30,"Velocity":30,"Duration":103131,"SoundDuration":103131,"Delta":227868162},{"NoteNumber":31,"Velocity":32,"Duration":102081,"SoundDuration":102081,"Delta":227937524},{"NoteNumber":32,"Velocity":34,"Duration":101188,"SoundDuration":101188,"Delta":228004925},{"NoteNumber":33,"Velocity":38,"Duration":100380,"SoundDuration":100380,"Delta":228072859},{"NoteNumber":34,"Velocity":40,"Duration":99410,"SoundDuration":99410,"Delta":228139158},{"NoteNumber":35,"Velocity":42,"Duration":98466,"SoundDuration":98466,"Delta":228204848},{"NoteNumber":36,"Velocity":46,"Duration":98523,"SoundDuration":98523,"Delta":228270982},{"NoteNumber":37,"Velocity":48,"Duration":99476,"SoundDuration":99476,"Delta":228335760},{"NoteNumber":38,"Velocity":50,"Duration":100463,"SoundDuration":100463,"Delta":228402292},{"NoteNumber":37,"Velocity":49,"Duration":101393,"SoundDuration":101393,"Delta":228468314},{"NoteNumber":36,"Velocity":47,"Duration":102159,"SoundDuration":102159,"Delta":228535018},{"NoteNumber":35,"Velocity":44,"Duration":103202,"SoundDuration":103202,"Delta":228603373},{"NoteNumber":34,"Velocity":42,"Duration":104228,"SoundDuration":104228,"Delta":228671159},{"NoteNumber":33,"Velocity":40,"Duration":103639,"SoundDuration":103639,"Delta":228740923},{"NoteNumber":32,"Velocity":38,"Duration":103155,"SoundDuration":103155,"Delta":228809368},{"NoteNumber":33,"Velocity":35,"Duration":103155,"SoundDuration":103155,"Delta":228877329},{"NoteNumber":34,"Velocity":33,"Duration":102918,"SoundDuration":102918,"Delta":228946504},{"NoteNumber":35,"Velocity":35,"Duration":102427,"SoundDuration":102427,"Delta":229014465},{"NoteNumber":36,"Velocity":37,"Duration":102409,"SoundDuration":102409,"Delta":229083157},{"NoteNumber":37,"Velocity":40,"Duration":102271,"SoundDuration":102271,"Delta":229150627},{"NoteNumber":38,"Velocity":42,"Duration":101686,"SoundDuration":101686,"Delta":229218097},{"NoteNumber":39,"Velocity":44,"Duration":100136,"SoundDuration":100136,"Delta":229286391},{"NoteNumber":40,"Velocity":47,"Duration":99229,"SoundDuration":99229,"Delta":229352570},{"NoteNumber":41,"Velocity":47,"Duration":99017,"SoundDuration":99017,"Delta":229419241},{"NoteNumber":40,"Velocity":45,"Duration":99789,"SoundDuration":99789,"Delta":229484358},{"NoteNumber":39,"Velocity":43,"Duration":100808,"SoundDuration":100808,"Delta":229549949},{"NoteNumber":38,"Velocity":42,"Duration":101823,"SoundDuration":101823,"Delta":229617384},{"NoteNumber":37,"Velocity":40,"Duration":102646,"SoundDuration":102646,"Delta":229684268},{"NoteNumber":36,"Velocity":38,"Duration":103574,"SoundDuration":103574,"Delta":229752943},{"NoteNumber":35,"Velocity":36,"Duration":104637,"SoundDuration":104637,"Delta":229821029},{"NoteNumber":34,"Velocity":35,"Duration":93503,"SoundDuration":93503,"Delta":229889768},{"NoteNumber":54,"Velocity":49,"Duration":128246,"SoundDuration":128246,"Delta":229962980},{"NoteNumber":48,"Velocity":41,"Duration":128246,"SoundDuration":128246,"Delta":229962980},{"NoteNumber":51,"Velocity":41,"Duration":128246,"SoundDuration":128246,"Delta":229962980},{"NoteNumber":33,"Velocity":35,"Duration":129870,"SoundDuration":129870,"Delta":229962980},{"NoteNumber":39,"Velocity":31,"Duration":129869,"SoundDuration":129869,"Delta":230092850},{"NoteNumber":42,"Velocity":31,"Duration":129870,"SoundDuration":129870,"Delta":230222720},{"NoteNumber":53,"Velocity":40,"Duration":184048,"SoundDuration":184048,"Delta":230352590},{"NoteNumber":50,"Velocity":34,"Duration":377909,"SoundDuration":377909,"Delta":230352590},{"NoteNumber":48,"Velocity":34,"Duration":184048,"SoundDuration":184048,"Delta":230352590},{"NoteNumber":33,"Velocity":35,"Duration":122699,"SoundDuration":122699,"Delta":230352590},{"NoteNumber":38,"Velocity":32,"Duration":125969,"SoundDuration":125969,"Delta":230475289},{"NoteNumber":56,"Velocity":40,"Duration":193860,"SoundDuration":193860,"Delta":230536639},{"NoteNumber":41,"Velocity":32,"Duration":129240,"SoundDuration":129240,"Delta":230601259},{"NoteNumber":54,"Velocity":47,"Duration":123437,"SoundDuration":123437,"Delta":230730500},{"NoteNumber":48,"Velocity":39,"Duration":123437,"SoundDuration":123437,"Delta":230730500},{"NoteNumber":51,"Velocity":39,"Duration":123437,"SoundDuration":123437,"Delta":230730500},{"NoteNumber":33,"Velocity":35,"Duration":125000,"SoundDuration":125000,"Delta":230730500},{"NoteNumber":39,"Velocity":31,"Duration":125000,"SoundDuration":125000,"Delta":230855500},{"NoteNumber":42,"Velocity":31,"Duration":125000,"SoundDuration":125000,"Delta":230980500},{"NoteNumber":53,"Velocity":45,"Duration":180723,"SoundDuration":180723,"Delta":231105500},{"NoteNumber":50,"Velocity":38,"Duration":373649,"SoundDuration":373649,"Delta":231105500},{"NoteNumber":48,"Velocity":38,"Duration":180723,"SoundDuration":180723,"Delta":231105500},{"NoteNumber":33,"Velocity":35,"Duration":120482,"SoundDuration":120482,"Delta":231105500},{"NoteNumber":38,"Velocity":32,"Duration":124549,"SoundDuration":124549,"Delta":231225982},{"NoteNumber":56,"Velocity":40,"Duration":192925,"SoundDuration":192925,"Delta":231286223},{"NoteNumber":41,"Velocity":32,"Duration":128617,"SoundDuration":128617,"Delta":231350531},{"NoteNumber":54,"Velocity":40,"Duration":129508,"SoundDuration":129508,"Delta":231479149},{"NoteNumber":48,"Velocity":34,"Duration":129508,"SoundDuration":129508,"Delta":231479149},{"NoteNumber":51,"Velocity":34,"Duration":129508,"SoundDuration":129508,"Delta":231479149},{"NoteNumber":33,"Velocity":35,"Duration":131147,"SoundDuration":131147,"Delta":231479149},{"NoteNumber":39,"Velocity":31,"Duration":131147,"SoundDuration":131147,"Delta":231610296},{"NoteNumber":42,"Velocity":31,"Duration":131147,"SoundDuration":131147,"Delta":231741444},{"NoteNumber":53,"Velocity":38,"Duration":133445,"SoundDuration":133445,"Delta":231872592},{"NoteNumber":50,"Velocity":32,"Duration":133445,"SoundDuration":133445,"Delta":231872592},{"NoteNumber":48,"Velocity":32,"Duration":133445,"SoundDuration":133445,"Delta":231872592},{"NoteNumber":33,"Velocity":35,"Duration":135134,"SoundDuration":135134,"Delta":231872592},{"NoteNumber":38,"Velocity":32,"Duration":135135,"SoundDuration":135135,"Delta":232007727},{"NoteNumber":41,"Velocity":32,"Duration":135134,"SoundDuration":135134,"Delta":232142862},{"NoteNumber":54,"Velocity":40,"Duration":802675,"SoundDuration":802675,"Delta":232277997},{"NoteNumber":48,"Velocity":34,"Duration":802675,"SoundDuration":802675,"Delta":232277997},{"NoteNumber":51,"Velocity":34,"Duration":802675,"SoundDuration":802675,"Delta":232277997},{"NoteNumber":33,"Velocity":35,"Duration":133779,"SoundDuration":133779,"Delta":232277997},{"NoteNumber":39,"Velocity":31,"Duration":133779,"SoundDuration":133779,"Delta":232411776},{"NoteNumber":42,"Velocity":31,"Duration":133779,"SoundDuration":133779,"Delta":232545555},{"NoteNumber":39,"Velocity":35,"Duration":133779,"SoundDuration":133779,"Delta":232679335},{"NoteNumber":36,"Velocity":32,"Duration":133779,"SoundDuration":133779,"Delta":232813114},{"NoteNumber":33,"Velocity":32,"Duration":133779,"SoundDuration":133779,"Delta":232946893},{"NoteNumber":30,"Velocity":30,"Duration":105458,"SoundDuration":105458,"Delta":233080673},{"NoteNumber":29,"Velocity":35,"Duration":104873,"SoundDuration":104873,"Delta":233151392},{"NoteNumber":30,"Velocity":37,"Duration":103994,"SoundDuration":103994,"Delta":233220660},{"NoteNumber":31,"Velocity":38,"Duration":103131,"SoundDuration":103131,"Delta":233289274},{"NoteNumber":32,"Velocity":40,"Duration":102081,"SoundDuration":102081,"Delta":233358635},{"NoteNumber":33,"Velocity":42,"Duration":101188,"SoundDuration":101188,"Delta":233426036},{"NoteNumber":34,"Velocity":44,"Duration":100380,"SoundDuration":100380,"Delta":233493971},{"NoteNumber":35,"Velocity":45,"Duration":99410,"SoundDuration":99410,"Delta":233560269},{"NoteNumber":36,"Velocity":47,"Duration":98466,"SoundDuration":98466,"Delta":233625959},{"NoteNumber":37,"Velocity":48,"Duration":98523,"SoundDuration":98523,"Delta":233692093},{"NoteNumber":38,"Velocity":50,"Duration":99476,"SoundDuration":99476,"Delta":233756871},{"NoteNumber":39,"Velocity":52,"Duration":100463,"SoundDuration":100463,"Delta":233823404},{"NoteNumber":38,"Velocity":54,"Duration":101393,"SoundDuration":101393,"Delta":233889426},{"NoteNumber":37,"Velocity":52,"Duration":102159,"SoundDuration":102159,"Delta":233956130},{"NoteNumber":36,"Velocity":50,"Duration":103202,"SoundDuration":103202,"Delta":234024485},{"NoteNumber":35,"Velocity":48,"Duration":104228,"SoundDuration":104228,"Delta":234092270},{"NoteNumber":34,"Velocity":47,"Duration":103639,"SoundDuration":103639,"Delta":234162034},{"NoteNumber":33,"Velocity":45,"Duration":103155,"SoundDuration":103155,"Delta":234230480},{"NoteNumber":34,"Velocity":42,"Duration":103155,"SoundDuration":103155,"Delta":234298441},{"NoteNumber":35,"Velocity":44,"Duration":102918,"SoundDuration":102918,"Delta":234367616},{"NoteNumber":36,"Velocity":46,"Duration":102427,"SoundDuration":102427,"Delta":234435577},{"NoteNumber":37,"Velocity":48,"Duration":102409,"SoundDuration":102409,"Delta":234504269},{"NoteNumber":38,"Velocity":50,"Duration":102271,"SoundDuration":102271,"Delta":234571739},{"NoteNumber":39,"Velocity":52,"Duration":101686,"SoundDuration":101686,"Delta":234639209},{"NoteNumber":40,"Velocity":55,"Duration":100136,"SoundDuration":100136,"Delta":234707503},{"NoteNumber":41,"Velocity":57,"Duration":99229,"SoundDuration":99229,"Delta":234773682},{"NoteNumber":42,"Velocity":59,"Duration":99017,"SoundDuration":99017,"Delta":234840353},{"NoteNumber":41,"Velocity":58,"Duration":99789,"SoundDuration":99789,"Delta":234905469},{"NoteNumber":40,"Velocity":56,"Duration":100808,"SoundDuration":100808,"Delta":234971061},{"NoteNumber":39,"Velocity":53,"Duration":101823,"SoundDuration":101823,"Delta":235038496},{"NoteNumber":38,"Velocity":51,"Duration":102646,"SoundDuration":102646,"Delta":235105380},{"NoteNumber":37,"Velocity":48,"Duration":103574,"SoundDuration":103574,"Delta":235174054},{"NoteNumber":36,"Velocity":46,"Duration":104637,"SoundDuration":104637,"Delta":235242140},{"NoteNumber":35,"Velocity":43,"Duration":93610,"SoundDuration":93610,"Delta":235310880},{"NoteNumber":55,"Velocity":58,"Duration":129508,"SoundDuration":129508,"Delta":235383998},{"NoteNumber":49,"Velocity":49,"Duration":129508,"SoundDuration":129508,"Delta":235383998},{"NoteNumber":52,"Velocity":49,"Duration":129508,"SoundDuration":129508,"Delta":235383998},{"NoteNumber":34,"Velocity":42,"Duration":131147,"SoundDuration":131147,"Delta":235383998},{"NoteNumber":40,"Velocity":37,"Duration":131147,"SoundDuration":131147,"Delta":235515146},{"NoteNumber":43,"Velocity":37,"Duration":131147,"SoundDuration":131147,"Delta":235646294},{"NoteNumber":54,"Velocity":48,"Duration":202702,"SoundDuration":202702,"Delta":235777441},{"NoteNumber":49,"Velocity":40,"Duration":405405,"SoundDuration":405405,"Delta":235777441},{"NoteNumber":51,"Velocity":40,"Duration":202702,"SoundDuration":202702,"Delta":235777441},{"NoteNumber":34,"Velocity":42,"Duration":135134,"SoundDuration":135134,"Delta":235777441},{"NoteNumber":39,"Velocity":38,"Duration":135135,"SoundDuration":135135,"Delta":235912576},{"NoteNumber":57,"Velocity":48,"Duration":202702,"SoundDuration":202702,"Delta":235980144},{"NoteNumber":42,"Velocity":38,"Duration":135134,"SoundDuration":135134,"Delta":236047711},{"NoteNumber":55,"Velocity":56,"Duration":132107,"SoundDuration":132107,"Delta":236182846},{"NoteNumber":49,"Velocity":46,"Duration":132107,"SoundDuration":132107,"Delta":236182846},{"NoteNumber":52,"Velocity":46,"Duration":132107,"SoundDuration":132107,"Delta":236182846},{"NoteNumber":34,"Velocity":42,"Duration":133779,"SoundDuration":133779,"Delta":236182846},{"NoteNumber":40,"Velocity":37,"Duration":133779,"SoundDuration":133779,"Delta":236316626},{"NoteNumber":43,"Velocity":37,"Duration":133779,"SoundDuration":133779,"Delta":236450405},{"NoteNumber":40,"Velocity":42,"Duration":133779,"SoundDuration":133779,"Delta":236584184},{"NoteNumber":37,"Velocity":38,"Duration":133779,"SoundDuration":133779,"Delta":236717964},{"NoteNumber":34,"Velocity":38,"Duration":133779,"SoundDuration":133779,"Delta":236851743},{"NoteNumber":56,"Velocity":61,"Duration":129508,"SoundDuration":129508,"Delta":236985522},{"NoteNumber":50,"Velocity":51,"Duration":129508,"SoundDuration":129508,"Delta":236985522},{"NoteNumber":53,"Velocity":51,"Duration":129508,"SoundDuration":129508,"Delta":236985522},{"NoteNumber":35,"Velocity":43,"Duration":131147,"SoundDuration":131147,"Delta":236985522},{"NoteNumber":41,"Velocity":38,"Duration":131147,"SoundDuration":131147,"Delta":237116670},{"NoteNumber":44,"Velocity":38,"Duration":131147,"SoundDuration":131147,"Delta":237247818},{"NoteNumber":55,"Velocity":50,"Duration":202702,"SoundDuration":202702,"Delta":237378965},{"NoteNumber":50,"Velocity":42,"Duration":405405,"SoundDuration":405405,"Delta":237378965},{"NoteNumber":52,"Velocity":42,"Duration":202702,"SoundDuration":202702,"Delta":237378965},{"NoteNumber":35,"Velocity":43,"Duration":135134,"SoundDuration":135134,"Delta":237378965},{"NoteNumber":40,"Velocity":40,"Duration":135135,"SoundDuration":135135,"Delta":237514100},{"NoteNumber":58,"Velocity":50,"Duration":202702,"SoundDuration":202702,"Delta":237581668},{"NoteNumber":43,"Velocity":40,"Duration":135134,"SoundDuration":135134,"Delta":237649235},{"NoteNumber":56,"Velocity":58,"Duration":132107,"SoundDuration":132107,"Delta":237784370},{"NoteNumber":50,"Velocity":48,"Duration":132107,"SoundDuration":132107,"Delta":237784370},{"NoteNumber":53,"Velocity":48,"Duration":132107,"SoundDuration":132107,"Delta":237784370},{"NoteNumber":35,"Velocity":43,"Duration":133779,"SoundDuration":133779,"Delta":237784370},{"NoteNumber":41,"Velocity":38,"Duration":133779,"SoundDuration":133779,"Delta":237918150},{"NoteNumber":44,"Velocity":38,"Duration":133779,"SoundDuration":133779,"Delta":238051929},{"NoteNumber":41,"Velocity":43,"Duration":133779,"SoundDuration":133779,"Delta":238185708},{"NoteNumber":38,"Velocity":40,"Duration":133779,"SoundDuration":133779,"Delta":238319488},{"NoteNumber":35,"Velocity":40,"Duration":133779,"SoundDuration":133779,"Delta":238453267},{"NoteNumber":44,"Velocity":53,"Duration":100334,"SoundDuration":100334,"Delta":238587046},{"NoteNumber":32,"Velocity":44,"Duration":100334,"SoundDuration":100334,"Delta":238587046},{"NoteNumber":43,"Velocity":55,"Duration":99900,"SoundDuration":99900,"Delta":238687381},{"NoteNumber":31,"Velocity":45,"Duration":99900,"SoundDuration":99900,"Delta":238687381},{"NoteNumber":44,"Velocity":56,"Duration":99552,"SoundDuration":99552,"Delta":238787281},{"NoteNumber":32,"Velocity":46,"Duration":99552,"SoundDuration":99552,"Delta":238787281},{"NoteNumber":45,"Velocity":58,"Duration":99206,"SoundDuration":99206,"Delta":238886834},{"NoteNumber":33,"Velocity":47,"Duration":99206,"SoundDuration":99206,"Delta":238886834},{"NoteNumber":46,"Velocity":60,"Duration":98846,"SoundDuration":98846,"Delta":238986041},{"NoteNumber":34,"Velocity":48,"Duration":98846,"SoundDuration":98846,"Delta":238986041},{"NoteNumber":47,"Velocity":61,"Duration":98376,"SoundDuration":98376,"Delta":239084887},{"NoteNumber":35,"Velocity":49,"Duration":98376,"SoundDuration":98376,"Delta":239084887},{"NoteNumber":48,"Velocity":63,"Duration":98039,"SoundDuration":98039,"Delta":239183264},{"NoteNumber":36,"Velocity":51,"Duration":98039,"SoundDuration":98039,"Delta":239183264},{"NoteNumber":49,"Velocity":65,"Duration":97704,"SoundDuration":97704,"Delta":239281304},{"NoteNumber":37,"Velocity":52,"Duration":97704,"SoundDuration":97704,"Delta":239281304},{"NoteNumber":50,"Velocity":66,"Duration":97371,"SoundDuration":97371,"Delta":239379008},{"NoteNumber":38,"Velocity":53,"Duration":97371,"SoundDuration":97371,"Delta":239379008},{"NoteNumber":51,"Velocity":68,"Duration":96930,"SoundDuration":96930,"Delta":239476379},{"NoteNumber":39,"Velocity":54,"Duration":96930,"SoundDuration":96930,"Delta":239476379},{"NoteNumber":52,"Velocity":70,"Duration":96049,"SoundDuration":96049,"Delta":239573310},{"NoteNumber":40,"Velocity":55,"Duration":96049,"SoundDuration":96049,"Delta":239573310},{"NoteNumber":53,"Velocity":71,"Duration":96016,"SoundDuration":96016,"Delta":239669360},{"NoteNumber":41,"Velocity":56,"Duration":96016,"SoundDuration":96016,"Delta":239669360},{"NoteNumber":52,"Velocity":73,"Duration":96681,"SoundDuration":96681,"Delta":239765376},{"NoteNumber":40,"Velocity":58,"Duration":96681,"SoundDuration":96681,"Delta":239765376},{"NoteNumber":51,"Velocity":71,"Duration":97324,"SoundDuration":97324,"Delta":239862057},{"NoteNumber":39,"Velocity":57,"Duration":97324,"SoundDuration":97324,"Delta":239862057},{"NoteNumber":50,"Velocity":69,"Duration":98055,"SoundDuration":98055,"Delta":239959381},{"NoteNumber":38,"Velocity":56,"Duration":98055,"SoundDuration":98055,"Delta":239959381},{"NoteNumber":49,"Velocity":66,"Duration":98684,"SoundDuration":98684,"Delta":240057437},{"NoteNumber":37,"Velocity":55,"Duration":98684,"SoundDuration":98684,"Delta":240057437},{"NoteNumber":48,"Velocity":64,"Duration":99321,"SoundDuration":99321,"Delta":240156122},{"NoteNumber":36,"Velocity":54,"Duration":99321,"SoundDuration":99321,"Delta":240156122},{"NoteNumber":47,"Velocity":62,"Duration":99059,"SoundDuration":99059,"Delta":240255443},{"NoteNumber":35,"Velocity":52,"Duration":99059,"SoundDuration":99059,"Delta":240255443},{"NoteNumber":48,"Velocity":59,"Duration":98765,"SoundDuration":98765,"Delta":240354503},{"NoteNumber":36,"Velocity":50,"Duration":98765,"SoundDuration":98765,"Delta":240354503},{"NoteNumber":49,"Velocity":58,"Duration":98360,"SoundDuration":98360,"Delta":240453268},{"NoteNumber":37,"Velocity":48,"Duration":98360,"SoundDuration":98360,"Delta":240453268},{"NoteNumber":50,"Velocity":60,"Duration":97991,"SoundDuration":97991,"Delta":240551629},{"NoteNumber":38,"Velocity":51,"Duration":97991,"SoundDuration":97991,"Delta":240551629},{"NoteNumber":51,"Velocity":63,"Duration":97704,"SoundDuration":97704,"Delta":240649621},{"NoteNumber":39,"Velocity":53,"Duration":97704,"SoundDuration":97704,"Delta":240649621},{"NoteNumber":52,"Velocity":65,"Duration":97402,"SoundDuration":97402,"Delta":240747325},{"NoteNumber":40,"Velocity":55,"Duration":97402,"SoundDuration":97402,"Delta":240747325},{"NoteNumber":53,"Velocity":68,"Duration":96946,"SoundDuration":96946,"Delta":240844728},{"NoteNumber":41,"Velocity":57,"Duration":96946,"SoundDuration":96946,"Delta":240844728},{"NoteNumber":54,"Velocity":70,"Duration":96665,"SoundDuration":96665,"Delta":240941674},{"NoteNumber":42,"Velocity":59,"Duration":96665,"SoundDuration":96665,"Delta":240941674},{"NoteNumber":55,"Velocity":73,"Duration":96385,"SoundDuration":96385,"Delta":241038340},{"NoteNumber":43,"Velocity":60,"Duration":96385,"SoundDuration":96385,"Delta":241038340},{"NoteNumber":56,"Velocity":76,"Duration":96000,"SoundDuration":96000,"Delta":241134725},{"NoteNumber":44,"Velocity":62,"Duration":96000,"SoundDuration":96000,"Delta":241134725},{"NoteNumber":55,"Velocity":73,"Duration":96447,"SoundDuration":96447,"Delta":241230725},{"NoteNumber":43,"Velocity":61,"Duration":96447,"SoundDuration":96447,"Delta":241230725},{"NoteNumber":54,"Velocity":70,"Duration":96821,"SoundDuration":96821,"Delta":241327173},{"NoteNumber":42,"Velocity":57,"Duration":96821,"SoundDuration":96821,"Delta":241327173},{"NoteNumber":53,"Velocity":67,"Duration":97197,"SoundDuration":97197,"Delta":241423994},{"NoteNumber":41,"Velocity":54,"Duration":97197,"SoundDuration":97197,"Delta":241423994},{"NoteNumber":52,"Velocity":64,"Duration":97577,"SoundDuration":97577,"Delta":241521192},{"NoteNumber":40,"Velocity":51,"Duration":97577,"SoundDuration":97577,"Delta":241521192},{"NoteNumber":51,"Velocity":60,"Duration":97879,"SoundDuration":97879,"Delta":241618770},{"NoteNumber":39,"Velocity":47,"Duration":97879,"SoundDuration":97879,"Delta":241618770},{"NoteNumber":50,"Velocity":59,"Duration":97847,"SoundDuration":97847,"Delta":241716649},{"NoteNumber":38,"Velocity":59,"Duration":97847,"SoundDuration":97847,"Delta":241716649},{"NoteNumber":63,"Velocity":64,"Duration":97402,"SoundDuration":97402,"Delta":241814496},{"NoteNumber":51,"Velocity":64,"Duration":97402,"SoundDuration":97402,"Delta":241814496},{"NoteNumber":52,"Velocity":61,"Duration":96946,"SoundDuration":96946,"Delta":241911899},{"NoteNumber":40,"Velocity":61,"Duration":96946,"SoundDuration":96946,"Delta":241911899},{"NoteNumber":65,"Velocity":67,"Duration":96478,"SoundDuration":96478,"Delta":242008845},{"NoteNumber":53,"Velocity":67,"Duration":96478,"SoundDuration":96478,"Delta":242008845},{"NoteNumber":54,"Velocity":64,"Duration":96061,"SoundDuration":96061,"Delta":242105324},{"NoteNumber":42,"Velocity":64,"Duration":96061,"SoundDuration":96061,"Delta":242105324},{"NoteNumber":67,"Velocity":70,"Duration":95602,"SoundDuration":95602,"Delta":242201385},{"NoteNumber":55,"Velocity":70,"Duration":95602,"SoundDuration":95602,"Delta":242201385},{"NoteNumber":56,"Velocity":67,"Duration":95193,"SoundDuration":95193,"Delta":242296988},{"NoteNumber":44,"Velocity":67,"Duration":95193,"SoundDuration":95193,"Delta":242296988},{"NoteNumber":69,"Velocity":74,"Duration":94742,"SoundDuration":94742,"Delta":242392181},{"NoteNumber":57,"Velocity":74,"Duration":94742,"SoundDuration":94742,"Delta":242392181},{"NoteNumber":58,"Velocity":70,"Duration":94340,"SoundDuration":94340,"Delta":242486924},{"NoteNumber":46,"Velocity":70,"Duration":94340,"SoundDuration":94340,"Delta":242486924},{"NoteNumber":71,"Velocity":77,"Duration":93897,"SoundDuration":93897,"Delta":242581264},{"NoteNumber":59,"Velocity":77,"Duration":90772,"SoundDuration":90772,"Delta":242581264},{"NoteNumber":59,"Velocity":72,"Duration":94340,"SoundDuration":94340,"Delta":242675161},{"NoteNumber":47,"Velocity":72,"Duration":94340,"SoundDuration":94340,"Delta":242675161},{"NoteNumber":70,"Velocity":73,"Duration":95012,"SoundDuration":95012,"Delta":242769501},{"NoteNumber":58,"Velocity":73,"Duration":95012,"SoundDuration":95012,"Delta":242769501},{"NoteNumber":57,"Velocity":71,"Duration":95755,"SoundDuration":95755,"Delta":242864514},{"NoteNumber":45,"Velocity":71,"Duration":95755,"SoundDuration":95755,"Delta":242864514},{"NoteNumber":68,"Velocity":68,"Duration":96479,"SoundDuration":96479,"Delta":242960269},{"NoteNumber":56,"Velocity":68,"Duration":96479,"SoundDuration":96479,"Delta":242960269},{"NoteNumber":55,"Velocity":67,"Duration":97197,"SoundDuration":97197,"Delta":243056748},{"NoteNumber":43,"Velocity":67,"Duration":97197,"SoundDuration":97197,"Delta":243056748},{"NoteNumber":66,"Velocity":64,"Duration":97688,"SoundDuration":97688,"Delta":243153946},{"NoteNumber":54,"Velocity":64,"Duration":97688,"SoundDuration":97688,"Delta":243153946},{"NoteNumber":53,"Velocity":64,"Duration":97768,"SoundDuration":97768,"Delta":243251635},{"NoteNumber":41,"Velocity":64,"Duration":97768,"SoundDuration":97768,"Delta":243251635},{"NoteNumber":66,"Velocity":60,"Duration":97609,"SoundDuration":97609,"Delta":243349403},{"NoteNumber":54,"Velocity":48,"Duration":97609,"SoundDuration":97609,"Delta":243349403},{"NoteNumber":55,"Velocity":63,"Duration":97229,"SoundDuration":97229,"Delta":243447012},{"NoteNumber":43,"Velocity":63,"Duration":97229,"SoundDuration":97229,"Delta":243447012},{"NoteNumber":68,"Velocity":65,"Duration":96852,"SoundDuration":96852,"Delta":243544241},{"NoteNumber":56,"Velocity":65,"Duration":96852,"SoundDuration":96852,"Delta":243544241},{"NoteNumber":57,"Velocity":66,"Duration":96462,"SoundDuration":96462,"Delta":243641094},{"NoteNumber":45,"Velocity":66,"Duration":96462,"SoundDuration":96462,"Delta":243641094},{"NoteNumber":70,"Velocity":69,"Duration":96015,"SoundDuration":96015,"Delta":243737557},{"NoteNumber":58,"Velocity":69,"Duration":96015,"SoundDuration":96015,"Delta":243737557},{"NoteNumber":59,"Velocity":69,"Duration":95648,"SoundDuration":95648,"Delta":243833572},{"NoteNumber":47,"Velocity":69,"Duration":95648,"SoundDuration":95648,"Delta":243833572},{"NoteNumber":72,"Velocity":73,"Duration":95284,"SoundDuration":95284,"Delta":243929221},{"NoteNumber":60,"Velocity":73,"Duration":95284,"SoundDuration":95284,"Delta":243929221},{"NoteNumber":61,"Velocity":76,"Duration":94922,"SoundDuration":94922,"Delta":244024505},{"NoteNumber":49,"Velocity":76,"Duration":94922,"SoundDuration":94922,"Delta":244024505},{"NoteNumber":74,"Velocity":78,"Duration":94562,"SoundDuration":94562,"Delta":244119427},{"NoteNumber":62,"Velocity":78,"Duration":91423,"SoundDuration":91423,"Delta":244119427},{"NoteNumber":62,"Velocity":72,"Duration":94310,"SoundDuration":94310,"Delta":244213990},{"NoteNumber":50,"Velocity":72,"Duration":94310,"SoundDuration":94310,"Delta":244213990},{"NoteNumber":73,"Velocity":74,"Duration":94802,"SoundDuration":94802,"Delta":244308300},{"NoteNumber":61,"Velocity":74,"Duration":94802,"SoundDuration":94802,"Delta":244308300},{"NoteNumber":60,"Velocity":68,"Duration":95344,"SoundDuration":95344,"Delta":244403103},{"NoteNumber":48,"Velocity":68,"Duration":95344,"SoundDuration":95344,"Delta":244403103},{"NoteNumber":71,"Velocity":70,"Duration":95847,"SoundDuration":95847,"Delta":244498447},{"NoteNumber":59,"Velocity":70,"Duration":95847,"SoundDuration":95847,"Delta":244498447},{"NoteNumber":58,"Velocity":63,"Duration":96401,"SoundDuration":96401,"Delta":244594294},{"NoteNumber":46,"Velocity":63,"Duration":96401,"SoundDuration":96401,"Delta":244594294},{"NoteNumber":69,"Velocity":65,"Duration":96914,"SoundDuration":96914,"Delta":244690696},{"NoteNumber":57,"Velocity":65,"Duration":96914,"SoundDuration":96914,"Delta":244690696},{"NoteNumber":56,"Velocity":63,"Duration":96930,"SoundDuration":96930,"Delta":244787611},{"NoteNumber":44,"Velocity":63,"Duration":96930,"SoundDuration":96930,"Delta":244787611},{"NoteNumber":69,"Velocity":66,"Duration":96899,"SoundDuration":96899,"Delta":244884541},{"NoteNumber":57,"Velocity":66,"Duration":96899,"SoundDuration":96899,"Delta":244884541},{"NoteNumber":58,"Velocity":67,"Duration":96462,"SoundDuration":96462,"Delta":244981440},{"NoteNumber":46,"Velocity":67,"Duration":96462,"SoundDuration":96462,"Delta":244981440},{"NoteNumber":71,"Velocity":70,"Duration":96432,"SoundDuration":96432,"Delta":245077903},{"NoteNumber":59,"Velocity":70,"Duration":96432,"SoundDuration":96432,"Delta":245077903},{"NoteNumber":60,"Velocity":70,"Duration":95999,"SoundDuration":95999,"Delta":245174336},{"NoteNumber":48,"Velocity":70,"Duration":95999,"SoundDuration":95999,"Delta":245174336},{"NoteNumber":73,"Velocity":74,"Duration":95969,"SoundDuration":95969,"Delta":245270336},{"NoteNumber":61,"Velocity":74,"Duration":95969,"SoundDuration":95969,"Delta":245270336},{"NoteNumber":62,"Velocity":74,"Duration":95541,"SoundDuration":95541,"Delta":245366305},{"NoteNumber":50,"Velocity":74,"Duration":95541,"SoundDuration":95541,"Delta":245366305},{"NoteNumber":75,"Velocity":79,"Duration":95511,"SoundDuration":95511,"Delta":245461847},{"NoteNumber":63,"Velocity":79,"Duration":95511,"SoundDuration":95511,"Delta":245461847},{"NoteNumber":64,"Velocity":78,"Duration":95087,"SoundDuration":95087,"Delta":245557358},{"NoteNumber":52,"Velocity":78,"Duration":95087,"SoundDuration":95087,"Delta":245557358},{"NoteNumber":77,"Velocity":83,"Duration":95057,"SoundDuration":95057,"Delta":245652445},{"NoteNumber":65,"Velocity":83,"Duration":95057,"SoundDuration":95057,"Delta":245652445},{"NoteNumber":64,"Velocity":74,"Duration":94667,"SoundDuration":94667,"Delta":245747502},{"NoteNumber":52,"Velocity":74,"Duration":94667,"SoundDuration":94667,"Delta":245747502},{"NoteNumber":75,"Velocity":77,"Duration":95117,"SoundDuration":95117,"Delta":245842170},{"NoteNumber":63,"Velocity":77,"Duration":95117,"SoundDuration":95117,"Delta":245842170},{"NoteNumber":62,"Velocity":70,"Duration":95572,"SoundDuration":95572,"Delta":245937287},{"NoteNumber":50,"Velocity":70,"Duration":95572,"SoundDuration":95572,"Delta":245937287},{"NoteNumber":73,"Velocity":72,"Duration":96030,"SoundDuration":96030,"Delta":246032859},{"NoteNumber":61,"Velocity":72,"Duration":96030,"SoundDuration":96030,"Delta":246032859},{"NoteNumber":60,"Velocity":66,"Duration":96494,"SoundDuration":96494,"Delta":246128890},{"NoteNumber":48,"Velocity":66,"Duration":96494,"SoundDuration":96494,"Delta":246128890},{"NoteNumber":71,"Velocity":63,"Duration":97103,"SoundDuration":97103,"Delta":246225384},{"NoteNumber":59,"Velocity":50,"Duration":97103,"SoundDuration":97103,"Delta":246225384},{"NoteNumber":58,"Velocity":64,"Duration":97371,"SoundDuration":97371,"Delta":246322488},{"NoteNumber":46,"Velocity":51,"Duration":97371,"SoundDuration":97371,"Delta":246322488},{"NoteNumber":69,"Velocity":69,"Duration":96930,"SoundDuration":96930,"Delta":246419859},{"NoteNumber":57,"Velocity":69,"Duration":96930,"SoundDuration":96930,"Delta":246419859},{"NoteNumber":56,"Velocity":69,"Duration":96572,"SoundDuration":96572,"Delta":246516789},{"NoteNumber":44,"Velocity":69,"Duration":96572,"SoundDuration":96572,"Delta":246516789},{"NoteNumber":69,"Velocity":73,"Duration":96200,"SoundDuration":96200,"Delta":246613361},{"NoteNumber":57,"Velocity":73,"Duration":96200,"SoundDuration":96200,"Delta":246613361},{"NoteNumber":58,"Velocity":72,"Duration":95877,"SoundDuration":95877,"Delta":246709562},{"NoteNumber":46,"Velocity":72,"Duration":95877,"SoundDuration":95877,"Delta":246709562},{"NoteNumber":71,"Velocity":76,"Duration":95511,"SoundDuration":95511,"Delta":246805440},{"NoteNumber":59,"Velocity":76,"Duration":95511,"SoundDuration":95511,"Delta":246805440},{"NoteNumber":60,"Velocity":76,"Duration":95087,"SoundDuration":95087,"Delta":246900951},{"NoteNumber":48,"Velocity":76,"Duration":95087,"SoundDuration":95087,"Delta":246900951},{"NoteNumber":73,"Velocity":79,"Duration":94742,"SoundDuration":94742,"Delta":246996038},{"NoteNumber":61,"Velocity":79,"Duration":94742,"SoundDuration":94742,"Delta":246996038},{"NoteNumber":62,"Velocity":79,"Duration":94384,"SoundDuration":94384,"Delta":247090780},{"NoteNumber":50,"Velocity":79,"Duration":94384,"SoundDuration":94384,"Delta":247090780},{"NoteNumber":75,"Velocity":83,"Duration":94073,"SoundDuration":94073,"Delta":247185165},{"NoteNumber":63,"Velocity":83,"Duration":94073,"SoundDuration":94073,"Delta":247185165},{"NoteNumber":64,"Velocity":80,"Duration":93720,"SoundDuration":93720,"Delta":247279239},{"NoteNumber":52,"Velocity":80,"Duration":93720,"SoundDuration":93720,"Delta":247279239},{"NoteNumber":77,"Velocity":84,"Duration":93516,"SoundDuration":93516,"Delta":247372960},{"NoteNumber":65,"Velocity":84,"Duration":93516,"SoundDuration":93516,"Delta":247372960},{"NoteNumber":64,"Velocity":75,"Duration":94340,"SoundDuration":94340,"Delta":247466476},{"NoteNumber":52,"Velocity":75,"Duration":94340,"SoundDuration":94340,"Delta":247466476},{"NoteNumber":75,"Velocity":79,"Duration":95148,"SoundDuration":95148,"Delta":247560817},{"NoteNumber":63,"Velocity":79,"Duration":95148,"SoundDuration":95148,"Delta":247560817},{"NoteNumber":62,"Velocity":70,"Duration":95970,"SoundDuration":95970,"Delta":247655965},{"NoteNumber":50,"Velocity":70,"Duration":95970,"SoundDuration":95970,"Delta":247655965},{"NoteNumber":73,"Velocity":74,"Duration":96947,"SoundDuration":96947,"Delta":247751935},{"NoteNumber":61,"Velocity":74,"Duration":96947,"SoundDuration":96947,"Delta":247751935},{"NoteNumber":60,"Velocity":72,"Duration":97402,"SoundDuration":97402,"Delta":247848883},{"NoteNumber":48,"Velocity":57,"Duration":97402,"SoundDuration":97402,"Delta":247848883},{"NoteNumber":71,"Velocity":67,"Duration":97402,"SoundDuration":97402,"Delta":247946285},{"NoteNumber":59,"Velocity":67,"Duration":97402,"SoundDuration":97402,"Delta":247946285},{"NoteNumber":58,"Velocity":68,"Duration":97135,"SoundDuration":97135,"Delta":248043688},{"NoteNumber":46,"Velocity":68,"Duration":97135,"SoundDuration":97135,"Delta":248043688},{"NoteNumber":69,"Velocity":69,"Duration":96930,"SoundDuration":96930,"Delta":248140823},{"NoteNumber":57,"Velocity":69,"Duration":96930,"SoundDuration":96930,"Delta":248140823},{"NoteNumber":56,"Velocity":68,"Duration":96930,"SoundDuration":96930,"Delta":248237753},{"NoteNumber":44,"Velocity":68,"Duration":96930,"SoundDuration":96930,"Delta":248237753},{"NoteNumber":69,"Velocity":71,"Duration":96525,"SoundDuration":96525,"Delta":248334684},{"NoteNumber":57,"Velocity":71,"Duration":96525,"SoundDuration":96525,"Delta":248334684},{"NoteNumber":58,"Velocity":69,"Duration":96462,"SoundDuration":96462,"Delta":248431209},{"NoteNumber":46,"Velocity":69,"Duration":96462,"SoundDuration":96462,"Delta":248431209},{"NoteNumber":71,"Velocity":73,"Duration":96385,"SoundDuration":96385,"Delta":248527672},{"NoteNumber":59,"Velocity":73,"Duration":96385,"SoundDuration":96385,"Delta":248527672},{"NoteNumber":60,"Velocity":70,"Duration":96000,"SoundDuration":96000,"Delta":248624058},{"NoteNumber":48,"Velocity":70,"Duration":96000,"SoundDuration":96000,"Delta":248624058},{"NoteNumber":73,"Velocity":75,"Duration":96000,"SoundDuration":96000,"Delta":248720058},{"NoteNumber":61,"Velocity":75,"Duration":96000,"SoundDuration":96000,"Delta":248720058},{"NoteNumber":62,"Velocity":71,"Duration":95831,"SoundDuration":95831,"Delta":248816058},{"NoteNumber":50,"Velocity":71,"Duration":95831,"SoundDuration":95831,"Delta":248816058},{"NoteNumber":75,"Velocity":77,"Duration":95541,"SoundDuration":95541,"Delta":248911890},{"NoteNumber":63,"Velocity":77,"Duration":95541,"SoundDuration":95541,"Delta":248911890},{"NoteNumber":64,"Velocity":72,"Duration":95541,"SoundDuration":95541,"Delta":249007431},{"NoteNumber":52,"Velocity":72,"Duration":95541,"SoundDuration":95541,"Delta":249007431},{"NoteNumber":77,"Velocity":79,"Duration":95238,"SoundDuration":95238,"Delta":249102973},{"NoteNumber":65,"Velocity":79,"Duration":92069,"SoundDuration":92069,"Delta":249102973},{"NoteNumber":65,"Velocity":72,"Duration":95087,"SoundDuration":95087,"Delta":249198212},{"NoteNumber":53,"Velocity":72,"Duration":95087,"SoundDuration":95087,"Delta":249198212},{"NoteNumber":80,"Velocity":81,"Duration":95087,"SoundDuration":95087,"Delta":249293299},{"NoteNumber":68,"Velocity":81,"Duration":95087,"SoundDuration":95087,"Delta":249293299},{"NoteNumber":62,"Velocity":74,"Duration":94652,"SoundDuration":94652,"Delta":249388386},{"NoteNumber":50,"Velocity":74,"Duration":94652,"SoundDuration":94652,"Delta":249388386},{"NoteNumber":83,"Velocity":69,"Duration":94637,"SoundDuration":94637,"Delta":249483038},{"NoteNumber":71,"Velocity":69,"Duration":94637,"SoundDuration":94637,"Delta":249483038},{"NoteNumber":59,"Velocity":76,"Duration":94637,"SoundDuration":94637,"Delta":249577676},{"NoteNumber":47,"Velocity":76,"Duration":94637,"SoundDuration":94637,"Delta":249577676},{"NoteNumber":86,"Velocity":75,"Duration":94637,"SoundDuration":94637,"Delta":249672313},{"NoteNumber":74,"Velocity":75,"Duration":94637,"SoundDuration":94637,"Delta":249672313},{"NoteNumber":56,"Velocity":79,"Duration":94637,"SoundDuration":94637,"Delta":249766950},{"NoteNumber":44,"Velocity":79,"Duration":94637,"SoundDuration":94637,"Delta":249766950},{"NoteNumber":89,"Velocity":78,"Duration":94637,"SoundDuration":94637,"Delta":249861587},{"NoteNumber":77,"Velocity":78,"Duration":94637,"SoundDuration":94637,"Delta":249861587},{"NoteNumber":53,"Velocity":82,"Duration":94637,"SoundDuration":94637,"Delta":249956225},{"NoteNumber":41,"Velocity":82,"Duration":94637,"SoundDuration":94637,"Delta":249956225},{"NoteNumber":92,"Velocity":80,"Duration":94518,"SoundDuration":94518,"Delta":250050862},{"NoteNumber":80,"Velocity":80,"Duration":94518,"SoundDuration":94518,"Delta":250050862},{"NoteNumber":50,"Velocity":85,"Duration":94444,"SoundDuration":94444,"Delta":250145380},{"NoteNumber":38,"Velocity":85,"Duration":94444,"SoundDuration":94444,"Delta":250145380},{"NoteNumber":95,"Velocity":83,"Duration":95102,"SoundDuration":95102,"Delta":250239824},{"NoteNumber":83,"Velocity":83,"Duration":95102,"SoundDuration":95102,"Delta":250239824},{"NoteNumber":47,"Velocity":88,"Duration":95755,"SoundDuration":95755,"Delta":250334927},{"NoteNumber":35,"Velocity":88,"Duration":95755,"SoundDuration":95755,"Delta":250334927},{"NoteNumber":98,"Velocity":86,"Duration":96432,"SoundDuration":96432,"Delta":250430683},{"NoteNumber":86,"Velocity":86,"Duration":96432,"SoundDuration":96432,"Delta":250430683},{"NoteNumber":44,"Velocity":91,"Duration":97150,"SoundDuration":97150,"Delta":250527116},{"NoteNumber":32,"Velocity":91,"Duration":97150,"SoundDuration":97150,"Delta":250527116},{"NoteNumber":101,"Velocity":89,"Duration":97768,"SoundDuration":97768,"Delta":250624266},{"NoteNumber":89,"Velocity":89,"Duration":97768,"SoundDuration":97768,"Delta":250624266},{"NoteNumber":68,"Velocity":97,"Duration":189274,"SoundDuration":189274,"Delta":251427485},{"NoteNumber":59,"Velocity":84,"Duration":189274,"SoundDuration":189274,"Delta":251427485},{"NoteNumber":62,"Velocity":84,"Duration":189274,"SoundDuration":189274,"Delta":251427485},{"NoteNumber":53,"Velocity":74,"Duration":189274,"SoundDuration":189274,"Delta":251427485},{"NoteNumber":41,"Velocity":63,"Duration":189274,"SoundDuration":189274,"Delta":251427485},{"NoteNumber":69,"Velocity":103,"Duration":186624,"SoundDuration":186624,"Delta":251806034},{"NoteNumber":57,"Velocity":87,"Duration":186624,"SoundDuration":186624,"Delta":251806034},{"NoteNumber":60,"Velocity":86,"Duration":186624,"SoundDuration":186624,"Delta":251806034},{"NoteNumber":51,"Velocity":80,"Duration":186624,"SoundDuration":186624,"Delta":251806034},{"NoteNumber":39,"Velocity":67,"Duration":186624,"SoundDuration":186624,"Delta":251806034},{"NoteNumber":54,"Velocity":75,"Duration":186625,"SoundDuration":186625,"Delta":251992659},{"NoteNumber":42,"Velocity":64,"Duration":186625,"SoundDuration":186625,"Delta":251992659},{"NoteNumber":80,"Velocity":95,"Duration":96000,"SoundDuration":96000,"Delta":252179284},{"NoteNumber":68,"Velocity":80,"Duration":96000,"SoundDuration":96000,"Delta":252179284},{"NoteNumber":57,"Velocity":75,"Duration":192000,"SoundDuration":192000,"Delta":252179284},{"NoteNumber":45,"Velocity":64,"Duration":192000,"SoundDuration":192000,"Delta":252179284},{"NoteNumber":83,"Velocity":87,"Duration":98360,"SoundDuration":98360,"Delta":252371284},{"NoteNumber":71,"Velocity":73,"Duration":98360,"SoundDuration":98360,"Delta":252371284},{"NoteNumber":81,"Velocity":96,"Duration":187500,"SoundDuration":187500,"Delta":252568006},{"NoteNumber":69,"Velocity":81,"Duration":187500,"SoundDuration":187500,"Delta":252568006},{"NoteNumber":73,"Velocity":81,"Duration":187500,"SoundDuration":187500,"Delta":252568006},{"NoteNumber":49,"Velocity":78,"Duration":187500,"SoundDuration":187500,"Delta":252568006},{"NoteNumber":37,"Velocity":66,"Duration":187500,"SoundDuration":187500,"Delta":252568006},{"NoteNumber":54,"Velocity":73,"Duration":187500,"SoundDuration":187500,"Delta":252755506},{"NoteNumber":42,"Velocity":61,"Duration":187500,"SoundDuration":187500,"Delta":252755506},{"NoteNumber":92,"Velocity":93,"Duration":96000,"SoundDuration":96000,"Delta":252943006},{"NoteNumber":80,"Velocity":77,"Duration":96000,"SoundDuration":96000,"Delta":252943006},{"NoteNumber":57,"Velocity":73,"Duration":192000,"SoundDuration":192000,"Delta":252943006},{"NoteNumber":45,"Velocity":61,"Duration":192000,"SoundDuration":192000,"Delta":252943006},{"NoteNumber":95,"Velocity":86,"Duration":97879,"SoundDuration":97879,"Delta":253135006},{"NoteNumber":83,"Velocity":72,"Duration":97879,"SoundDuration":97879,"Delta":253135006},{"NoteNumber":87,"Velocity":81,"Duration":184899,"SoundDuration":184899,"Delta":253330764},{"NoteNumber":93,"Velocity":96,"Duration":184899,"SoundDuration":184899,"Delta":253330764},{"NoteNumber":81,"Velocity":81,"Duration":184899,"SoundDuration":184899,"Delta":253330764},{"NoteNumber":48,"Velocity":78,"Duration":184899,"SoundDuration":184899,"Delta":253330764},{"NoteNumber":36,"Velocity":66,"Duration":184899,"SoundDuration":184899,"Delta":253330764},{"NoteNumber":54,"Velocity":73,"Duration":184899,"SoundDuration":184899,"Delta":253515664},{"NoteNumber":42,"Velocity":61,"Duration":184899,"SoundDuration":184899,"Delta":253515664},{"NoteNumber":80,"Velocity":86,"Duration":187500,"SoundDuration":187500,"Delta":253700564},{"NoteNumber":68,"Velocity":72,"Duration":187500,"SoundDuration":187500,"Delta":253700564},{"NoteNumber":57,"Velocity":73,"Duration":187500,"SoundDuration":187500,"Delta":253700564},{"NoteNumber":45,"Velocity":61,"Duration":187500,"SoundDuration":187500,"Delta":253700564},{"NoteNumber":75,"Velocity":80,"Duration":746499,"SoundDuration":746499,"Delta":254075564},{"NoteNumber":81,"Velocity":95,"Duration":746499,"SoundDuration":746499,"Delta":254075564},{"NoteNumber":69,"Velocity":80,"Duration":746499,"SoundDuration":746499,"Delta":254075564},{"NoteNumber":47,"Velocity":78,"Duration":186624,"SoundDuration":186624,"Delta":254075564},{"NoteNumber":35,"Velocity":66,"Duration":186624,"SoundDuration":186624,"Delta":254075564},{"NoteNumber":51,"Velocity":76,"Duration":186625,"SoundDuration":186625,"Delta":254262189},{"NoteNumber":39,"Velocity":65,"Duration":186625,"SoundDuration":186625,"Delta":254262189},{"NoteNumber":54,"Velocity":76,"Duration":186624,"SoundDuration":186624,"Delta":254448814},{"NoteNumber":42,"Velocity":65,"Duration":186624,"SoundDuration":186624,"Delta":254448814},{"NoteNumber":66,"Velocity":80,"Duration":186624,"SoundDuration":186624,"Delta":254822064},{"NoteNumber":69,"Velocity":80,"Duration":186624,"SoundDuration":186624,"Delta":254822064},{"NoteNumber":57,"Velocity":67,"Duration":186624,"SoundDuration":186624,"Delta":254822064},{"NoteNumber":61,"Velocity":67,"Duration":186624,"SoundDuration":186624,"Delta":254822064},{"NoteNumber":45,"Velocity":67,"Duration":186624,"SoundDuration":186624,"Delta":254822064},{"NoteNumber":33,"Velocity":57,"Duration":186624,"SoundDuration":186624,"Delta":254822064},{"NoteNumber":68,"Velocity":73,"Duration":189274,"SoundDuration":189274,"Delta":255008689},{"NoteNumber":56,"Velocity":61,"Duration":189274,"SoundDuration":189274,"Delta":255008689},{"NoteNumber":49,"Velocity":64,"Duration":189274,"SoundDuration":189274,"Delta":255008689},{"NoteNumber":37,"Velocity":53,"Duration":189274,"SoundDuration":189274,"Delta":255008689},{"NoteNumber":69,"Velocity":78,"Duration":189274,"SoundDuration":189274,"Delta":255197964},{"NoteNumber":57,"Velocity":66,"Duration":189274,"SoundDuration":189274,"Delta":255197964},{"NoteNumber":54,"Velocity":64,"Duration":189274,"SoundDuration":189274,"Delta":255197964},{"NoteNumber":42,"Velocity":53,"Duration":189274,"SoundDuration":189274,"Delta":255197964},{"NoteNumber":71,"Velocity":82,"Duration":194805,"SoundDuration":194805,"Delta":255387238},{"NoteNumber":59,"Velocity":70,"Duration":194805,"SoundDuration":194805,"Delta":255387238},{"NoteNumber":72,"Velocity":86,"Duration":779219,"SoundDuration":779219,"Delta":255582043},{"NoteNumber":60,"Velocity":72,"Duration":779219,"SoundDuration":779219,"Delta":255582043},{"NoteNumber":63,"Velocity":72,"Duration":779219,"SoundDuration":779219,"Delta":255582043},{"NoteNumber":66,"Velocity":72,"Duration":779219,"SoundDuration":779219,"Delta":255582043},{"NoteNumber":44,"Velocity":67,"Duration":194805,"SoundDuration":194805,"Delta":255582043},{"NoteNumber":32,"Velocity":57,"Duration":194805,"SoundDuration":194805,"Delta":255582043},{"NoteNumber":48,"Velocity":64,"Duration":194804,"SoundDuration":194804,"Delta":255776848},{"NoteNumber":36,"Velocity":53,"Duration":194804,"SoundDuration":194804,"Delta":255776848},{"NoteNumber":51,"Velocity":63,"Duration":194805,"SoundDuration":194805,"Delta":255971653},{"NoteNumber":39,"Velocity":53,"Duration":194805,"SoundDuration":194805,"Delta":255971653},{"NoteNumber":96,"Velocity":90,"Duration":187500,"SoundDuration":187500,"Delta":256361263},{"NoteNumber":84,"Velocity":75,"Duration":187500,"SoundDuration":187500,"Delta":256361263},{"NoteNumber":87,"Velocity":75,"Duration":187500,"SoundDuration":187500,"Delta":256361263},{"NoteNumber":43,"Velocity":71,"Duration":187500,"SoundDuration":187500,"Delta":256361263},{"NoteNumber":31,"Velocity":59,"Duration":187500,"SoundDuration":187500,"Delta":256361263},{"NoteNumber":95,"Velocity":85,"Duration":184049,"SoundDuration":184049,"Delta":256548763},{"NoteNumber":83,"Velocity":72,"Duration":184049,"SoundDuration":184049,"Delta":256548763},{"NoteNumber":48,"Velocity":69,"Duration":184049,"SoundDuration":184049,"Delta":256548763},{"NoteNumber":36,"Velocity":58,"Duration":184049,"SoundDuration":184049,"Delta":256548763},{"NoteNumber":93,"Velocity":85,"Duration":191082,"SoundDuration":191082,"Delta":256732812},{"NoteNumber":81,"Velocity":72,"Duration":191082,"SoundDuration":191082,"Delta":256732812},{"NoteNumber":51,"Velocity":68,"Duration":191082,"SoundDuration":191082,"Delta":256732812},{"NoteNumber":39,"Velocity":57,"Duration":191082,"SoundDuration":191082,"Delta":256732812},{"NoteNumber":92,"Velocity":85,"Duration":199666,"SoundDuration":199666,"Delta":256923895},{"NoteNumber":80,"Velocity":72,"Duration":199666,"SoundDuration":199666,"Delta":256923895},{"NoteNumber":93,"Velocity":92,"Duration":599001,"SoundDuration":599001,"Delta":257123562},{"NoteNumber":87,"Velocity":77,"Duration":599001,"SoundDuration":599001,"Delta":257123562},{"NoteNumber":81,"Velocity":77,"Duration":599001,"SoundDuration":599001,"Delta":257123562},{"NoteNumber":42,"Velocity":70,"Duration":199667,"SoundDuration":199667,"Delta":257123562},{"NoteNumber":30,"Velocity":58,"Duration":199667,"SoundDuration":199667,"Delta":257123562},{"NoteNumber":45,"Velocity":61,"Duration":199666,"SoundDuration":199666,"Delta":257323229},{"NoteNumber":33,"Velocity":52,"Duration":199666,"SoundDuration":199666,"Delta":257323229},{"NoteNumber":36,"Velocity":50,"Duration":394472,"SoundDuration":394472,"Delta":257522896},{"NoteNumber":48,"Velocity":55,"Duration":394472,"SoundDuration":394472,"Delta":257522896},{"NoteNumber":72,"Velocity":77,"Duration":97402,"SoundDuration":97402,"Delta":257722563},{"NoteNumber":60,"Velocity":65,"Duration":97402,"SoundDuration":97402,"Delta":257722563},{"NoteNumber":71,"Velocity":85,"Duration":177515,"SoundDuration":177515,"Delta":257917368},{"NoteNumber":59,"Velocity":71,"Duration":177515,"SoundDuration":177515,"Delta":257917368},{"NoteNumber":47,"Velocity":58,"Duration":177515,"SoundDuration":177515,"Delta":257917368},{"NoteNumber":35,"Velocity":48,"Duration":177515,"SoundDuration":177515,"Delta":257917368},{"NoteNumber":69,"Velocity":77,"Duration":142644,"SoundDuration":142644,"Delta":258094883},{"NoteNumber":57,"Velocity":65,"Duration":142644,"SoundDuration":142644,"Delta":258094883},{"NoteNumber":45,"Velocity":53,"Duration":142644,"SoundDuration":142644,"Delta":258094883},{"NoteNumber":33,"Velocity":44,"Duration":142644,"SoundDuration":142644,"Delta":258094883},{"NoteNumber":67,"Velocity":77,"Duration":90771,"SoundDuration":90771,"Delta":258273189},{"NoteNumber":55,"Velocity":65,"Duration":90771,"SoundDuration":90771,"Delta":258273189},{"NoteNumber":43,"Velocity":53,"Duration":90771,"SoundDuration":90771,"Delta":258273189},{"NoteNumber":31,"Velocity":44,"Duration":90771,"SoundDuration":90771,"Delta":258273189},{"NoteNumber":71,"Velocity":77,"Duration":94637,"SoundDuration":94637,"Delta":258454732},{"NoteNumber":59,"Velocity":65,"Duration":94637,"SoundDuration":94637,"Delta":258454732},{"NoteNumber":47,"Velocity":53,"Duration":94637,"SoundDuration":94637,"Delta":258454732},{"NoteNumber":35,"Velocity":44,"Duration":94637,"SoundDuration":94637,"Delta":258454732},{"NoteNumber":69,"Velocity":85,"Duration":179104,"SoundDuration":179104,"Delta":258644007},{"NoteNumber":57,"Velocity":71,"Duration":179104,"SoundDuration":179104,"Delta":258644007},{"NoteNumber":45,"Velocity":58,"Duration":179104,"SoundDuration":179104,"Delta":258644007},{"NoteNumber":33,"Velocity":48,"Duration":179104,"SoundDuration":179104,"Delta":258644007},{"NoteNumber":67,"Velocity":78,"Duration":143283,"SoundDuration":143283,"Delta":258823111},{"NoteNumber":55,"Velocity":66,"Duration":143283,"SoundDuration":143283,"Delta":258823111},{"NoteNumber":43,"Velocity":54,"Duration":143283,"SoundDuration":143283,"Delta":258823111},{"NoteNumber":31,"Velocity":46,"Duration":143283,"SoundDuration":143283,"Delta":258823111},{"NoteNumber":65,"Velocity":78,"Duration":91603,"SoundDuration":91603,"Delta":259002216},{"NoteNumber":53,"Velocity":66,"Duration":91603,"SoundDuration":91603,"Delta":259002216},{"NoteNumber":41,"Velocity":54,"Duration":91603,"SoundDuration":91603,"Delta":259002216},{"NoteNumber":29,"Velocity":46,"Duration":91603,"SoundDuration":91603,"Delta":259002216},{"NoteNumber":69,"Velocity":80,"Duration":94637,"SoundDuration":94637,"Delta":259185422},{"NoteNumber":57,"Velocity":67,"Duration":94637,"SoundDuration":94637,"Delta":259185422},{"NoteNumber":45,"Velocity":54,"Duration":94637,"SoundDuration":94637,"Delta":259185422},{"NoteNumber":33,"Velocity":46,"Duration":94637,"SoundDuration":94637,"Delta":259185422},{"NoteNumber":67,"Velocity":89,"Duration":178306,"SoundDuration":178306,"Delta":259374696},{"NoteNumber":55,"Velocity":75,"Duration":178306,"SoundDuration":178306,"Delta":259374696},{"NoteNumber":43,"Velocity":60,"Duration":178306,"SoundDuration":178306,"Delta":259374696},{"NoteNumber":31,"Velocity":52,"Duration":178306,"SoundDuration":178306,"Delta":259374696},{"NoteNumber":65,"Velocity":80,"Duration":142644,"SoundDuration":142644,"Delta":259553002},{"NoteNumber":53,"Velocity":67,"Duration":142644,"SoundDuration":142644,"Delta":259553002},{"NoteNumber":41,"Velocity":54,"Duration":142644,"SoundDuration":142644,"Delta":259553002},{"NoteNumber":29,"Velocity":46,"Duration":142644,"SoundDuration":142644,"Delta":259553002},{"NoteNumber":64,"Velocity":80,"Duration":90771,"SoundDuration":90771,"Delta":259731308},{"NoteNumber":52,"Velocity":67,"Duration":90771,"SoundDuration":90771,"Delta":259731308},{"NoteNumber":40,"Velocity":54,"Duration":90771,"SoundDuration":90771,"Delta":259731308},{"NoteNumber":28,"Velocity":46,"Duration":90771,"SoundDuration":90771,"Delta":259731308},{"NoteNumber":67,"Velocity":80,"Duration":94637,"SoundDuration":94637,"Delta":259912851},{"NoteNumber":55,"Velocity":67,"Duration":94637,"SoundDuration":94637,"Delta":259912851},{"NoteNumber":43,"Velocity":54,"Duration":94637,"SoundDuration":94637,"Delta":259912851},{"NoteNumber":31,"Velocity":46,"Duration":94637,"SoundDuration":94637,"Delta":259912851},{"NoteNumber":65,"Velocity":90,"Duration":178306,"SoundDuration":178306,"Delta":260102126},{"NoteNumber":53,"Velocity":76,"Duration":178306,"SoundDuration":178306,"Delta":260102126},{"NoteNumber":41,"Velocity":63,"Duration":178306,"SoundDuration":178306,"Delta":260102126},{"NoteNumber":29,"Velocity":52,"Duration":178306,"SoundDuration":178306,"Delta":260102126},{"NoteNumber":64,"Velocity":80,"Duration":142644,"SoundDuration":142644,"Delta":260280432},{"NoteNumber":52,"Velocity":67,"Duration":142644,"SoundDuration":142644,"Delta":260280432},{"NoteNumber":40,"Velocity":54,"Duration":142644,"SoundDuration":142644,"Delta":260280432},{"NoteNumber":28,"Velocity":46,"Duration":142644,"SoundDuration":142644,"Delta":260280432},{"NoteNumber":63,"Velocity":80,"Duration":91185,"SoundDuration":91185,"Delta":260458738},{"NoteNumber":51,"Velocity":67,"Duration":91185,"SoundDuration":91185,"Delta":260458738},{"NoteNumber":39,"Velocity":54,"Duration":91185,"SoundDuration":91185,"Delta":260458738},{"NoteNumber":27,"Velocity":46,"Duration":91185,"SoundDuration":91185,"Delta":260458738},{"NoteNumber":65,"Velocity":80,"Duration":95087,"SoundDuration":95087,"Delta":260641109},{"NoteNumber":53,"Velocity":67,"Duration":95087,"SoundDuration":95087,"Delta":260641109},{"NoteNumber":41,"Velocity":54,"Duration":95087,"SoundDuration":95087,"Delta":260641109},{"NoteNumber":29,"Velocity":46,"Duration":95087,"SoundDuration":95087,"Delta":260641109},{"NoteNumber":65,"Velocity":89,"Duration":184049,"SoundDuration":184049,"Delta":260831283},{"NoteNumber":53,"Velocity":75,"Duration":184049,"SoundDuration":184049,"Delta":260831283},{"NoteNumber":41,"Velocity":60,"Duration":184049,"SoundDuration":184049,"Delta":260831283},{"NoteNumber":29,"Velocity":52,"Duration":184049,"SoundDuration":184049,"Delta":260831283},{"NoteNumber":64,"Velocity":80,"Duration":147239,"SoundDuration":147239,"Delta":261015332},{"NoteNumber":52,"Velocity":67,"Duration":147239,"SoundDuration":147239,"Delta":261015332},{"NoteNumber":40,"Velocity":54,"Duration":147239,"SoundDuration":147239,"Delta":261015332},{"NoteNumber":28,"Velocity":46,"Duration":147239,"SoundDuration":147239,"Delta":261015332},{"NoteNumber":64,"Velocity":80,"Duration":94637,"SoundDuration":94637,"Delta":261199381},{"NoteNumber":52,"Velocity":67,"Duration":94637,"SoundDuration":94637,"Delta":261199381},{"NoteNumber":40,"Velocity":54,"Duration":94637,"SoundDuration":94637,"Delta":261199381},{"NoteNumber":28,"Velocity":46,"Duration":94637,"SoundDuration":94637,"Delta":261199381},{"NoteNumber":63,"Velocity":80,"Duration":98846,"SoundDuration":98846,"Delta":261388656},{"NoteNumber":51,"Velocity":67,"Duration":98846,"SoundDuration":98846,"Delta":261388656},{"NoteNumber":39,"Velocity":54,"Duration":98846,"SoundDuration":98846,"Delta":261388656},{"NoteNumber":27,"Velocity":46,"Duration":98846,"SoundDuration":98846,"Delta":261388656},{"NoteNumber":65,"Velocity":92,"Duration":191082,"SoundDuration":191082,"Delta":261586349},{"NoteNumber":53,"Velocity":77,"Duration":191082,"SoundDuration":191082,"Delta":261586349},{"NoteNumber":41,"Velocity":64,"Duration":191082,"SoundDuration":191082,"Delta":261586349},{"NoteNumber":29,"Velocity":53,"Duration":191082,"SoundDuration":191082,"Delta":261586349},{"NoteNumber":64,"Velocity":80,"Duration":152866,"SoundDuration":152866,"Delta":261777432},{"NoteNumber":52,"Velocity":67,"Duration":152866,"SoundDuration":152866,"Delta":261777432},{"NoteNumber":40,"Velocity":54,"Duration":152866,"SoundDuration":152866,"Delta":261777432},{"NoteNumber":28,"Velocity":46,"Duration":152866,"SoundDuration":152866,"Delta":261777432},{"NoteNumber":64,"Velocity":80,"Duration":95541,"SoundDuration":95541,"Delta":261968515},{"NoteNumber":52,"Velocity":67,"Duration":95541,"SoundDuration":95541,"Delta":261968515},{"NoteNumber":40,"Velocity":54,"Duration":95541,"SoundDuration":95541,"Delta":261968515},{"NoteNumber":28,"Velocity":46,"Duration":95541,"SoundDuration":95541,"Delta":261968515},{"NoteNumber":63,"Velocity":80,"Duration":102389,"SoundDuration":102389,"Delta":262159598},{"NoteNumber":51,"Velocity":67,"Duration":102389,"SoundDuration":102389,"Delta":262159598},{"NoteNumber":39,"Velocity":54,"Duration":102389,"SoundDuration":102389,"Delta":262159598},{"NoteNumber":27,"Velocity":46,"Duration":102389,"SoundDuration":102389,"Delta":262159598},{"NoteNumber":64,"Velocity":97,"Duration":764332,"SoundDuration":764332,"Delta":262364376},{"NoteNumber":52,"Velocity":82,"Duration":764332,"SoundDuration":764332,"Delta":262364376},{"NoteNumber":40,"Velocity":67,"Duration":764332,"SoundDuration":764332,"Delta":262364376},{"NoteNumber":28,"Velocity":57,"Duration":764332,"SoundDuration":764332,"Delta":262364376},{"NoteNumber":76,"Velocity":94,"Duration":191082,"SoundDuration":191082,"Delta":263128708},{"NoteNumber":71,"Velocity":78,"Duration":191082,"SoundDuration":191082,"Delta":263128708},{"NoteNumber":68,"Velocity":78,"Duration":191082,"SoundDuration":191082,"Delta":263128708},{"NoteNumber":64,"Velocity":78,"Duration":191082,"SoundDuration":191082,"Delta":263128708},{"NoteNumber":52,"Velocity":65,"Duration":191082,"SoundDuration":191082,"Delta":263128708},{"NoteNumber":47,"Velocity":54,"Duration":191082,"SoundDuration":191082,"Delta":263128708},{"NoteNumber":44,"Velocity":54,"Duration":191082,"SoundDuration":191082,"Delta":263128708},{"NoteNumber":40,"Velocity":54,"Duration":191082,"SoundDuration":191082,"Delta":263128708},{"NoteNumber":76,"Velocity":77,"Duration":125588,"SoundDuration":125588,"Delta":263510874},{"NoteNumber":52,"Velocity":68,"Duration":125588,"SoundDuration":125588,"Delta":263510874},{"NoteNumber":78,"Velocity":80,"Duration":125588,"SoundDuration":125588,"Delta":263636463},{"NoteNumber":54,"Velocity":72,"Duration":125588,"SoundDuration":125588,"Delta":263636463},{"NoteNumber":80,"Velocity":82,"Duration":125588,"SoundDuration":125588,"Delta":263762051},{"NoteNumber":56,"Velocity":77,"Duration":125588,"SoundDuration":125588,"Delta":263762051},{"NoteNumber":81,"Velocity":92,"Duration":187500,"SoundDuration":187500,"Delta":263887640},{"NoteNumber":69,"Velocity":78,"Duration":187500,"SoundDuration":187500,"Delta":263887640},{"NoteNumber":57,"Velocity":72,"Duration":187500,"SoundDuration":187500,"Delta":263887640},{"NoteNumber":45,"Velocity":60,"Duration":187500,"SoundDuration":187500,"Delta":263887640},{"NoteNumber":71,"Velocity":64,"Duration":90361,"SoundDuration":90361,"Delta":264262640},{"NoteNumber":80,"Velocity":76,"Duration":90361,"SoundDuration":90361,"Delta":264262640},{"NoteNumber":68,"Velocity":64,"Duration":90361,"SoundDuration":90361,"Delta":264262640},{"NoteNumber":53,"Velocity":57,"Duration":180723,"SoundDuration":180723,"Delta":264262640},{"NoteNumber":41,"Velocity":47,"Duration":180723,"SoundDuration":180723,"Delta":264262640},{"NoteNumber":74,"Velocity":58,"Duration":97879,"SoundDuration":97879,"Delta":264443363},{"NoteNumber":83,"Velocity":69,"Duration":97879,"SoundDuration":97879,"Delta":264443363},{"NoteNumber":71,"Velocity":58,"Duration":97879,"SoundDuration":97879,"Delta":264443363},{"NoteNumber":81,"Velocity":86,"Duration":187500,"SoundDuration":187500,"Delta":264639122},{"NoteNumber":69,"Velocity":72,"Duration":187500,"SoundDuration":187500,"Delta":264639122},{"NoteNumber":72,"Velocity":72,"Duration":187500,"SoundDuration":187500,"Delta":264639122},{"NoteNumber":57,"Velocity":72,"Duration":187500,"SoundDuration":187500,"Delta":264639122},{"NoteNumber":45,"Velocity":60,"Duration":187500,"SoundDuration":187500,"Delta":264639122},{"NoteNumber":71,"Velocity":63,"Duration":90361,"SoundDuration":90361,"Delta":265014122},{"NoteNumber":80,"Velocity":73,"Duration":90361,"SoundDuration":90361,"Delta":265014122},{"NoteNumber":68,"Velocity":63,"Duration":90361,"SoundDuration":90361,"Delta":265014122},{"NoteNumber":52,"Velocity":57,"Duration":180723,"SoundDuration":180723,"Delta":265014122},{"NoteNumber":40,"Velocity":47,"Duration":180723,"SoundDuration":180723,"Delta":265014122},{"NoteNumber":74,"Velocity":57,"Duration":98846,"SoundDuration":98846,"Delta":265194845},{"NoteNumber":83,"Velocity":68,"Duration":98846,"SoundDuration":98846,"Delta":265194845},{"NoteNumber":71,"Velocity":57,"Duration":98846,"SoundDuration":98846,"Delta":265194845},{"NoteNumber":72,"Velocity":72,"Duration":96000,"SoundDuration":96000,"Delta":265392538},{"NoteNumber":81,"Velocity":86,"Duration":96000,"SoundDuration":96000,"Delta":265392538},{"NoteNumber":69,"Velocity":72,"Duration":96000,"SoundDuration":96000,"Delta":265392538},{"NoteNumber":57,"Velocity":72,"Duration":96000,"SoundDuration":96000,"Delta":265392538},{"NoteNumber":45,"Velocity":60,"Duration":96000,"SoundDuration":96000,"Delta":265392538},{"NoteNumber":71,"Velocity":57,"Duration":96930,"SoundDuration":96930,"Delta":265776538},{"NoteNumber":80,"Velocity":68,"Duration":96930,"SoundDuration":96930,"Delta":265776538},{"NoteNumber":68,"Velocity":57,"Duration":96930,"SoundDuration":96930,"Delta":265776538},{"NoteNumber":50,"Velocity":57,"Duration":96930,"SoundDuration":96930,"Delta":265776538},{"NoteNumber":38,"Velocity":47,"Duration":96930,"SoundDuration":96930,"Delta":265776538},{"NoteNumber":41,"Velocity":47,"Duration":96930,"SoundDuration":96930,"Delta":265776538},{"NoteNumber":72,"Velocity":72,"Duration":767999,"SoundDuration":767999,"Delta":266164260},{"NoteNumber":81,"Velocity":85,"Duration":767999,"SoundDuration":767999,"Delta":266164260},{"NoteNumber":69,"Velocity":72,"Duration":767999,"SoundDuration":767999,"Delta":266164260},{"NoteNumber":57,"Velocity":72,"Duration":767999,"SoundDuration":767999,"Delta":266164260},{"NoteNumber":45,"Velocity":60,"Duration":767999,"SoundDuration":767999,"Delta":266164260},{"NoteNumber":52,"Velocity":60,"Duration":767999,"SoundDuration":767999,"Delta":266164260},{"NoteNumber":36,"Velocity":56,"Duration":48000,"SoundDuration":48000,"Delta":266836260},{"NoteNumber":48,"Velocity":66,"Duration":47999,"SoundDuration":47999,"Delta":266884260},{"NoteNumber":89,"Velocity":72,"Duration":189274,"SoundDuration":189274,"Delta":266932260},{"NoteNumber":93,"Velocity":77,"Duration":189274,"SoundDuration":189274,"Delta":266932260},{"NoteNumber":81,"Velocity":60,"Duration":189274,"SoundDuration":189274,"Delta":266932260},{"NoteNumber":84,"Velocity":60,"Duration":189274,"SoundDuration":189274,"Delta":266932260},{"NoteNumber":69,"Velocity":66,"Duration":655733,"SoundDuration":655733,"Delta":266932260},{"NoteNumber":57,"Velocity":56,"Duration":655733,"SoundDuration":655733,"Delta":266932260},{"NoteNumber":60,"Velocity":56,"Duration":655733,"SoundDuration":655733,"Delta":266932260},{"NoteNumber":65,"Velocity":56,"Duration":655733,"SoundDuration":655733,"Delta":266932260},{"NoteNumber":92,"Velocity":65,"Duration":184049,"SoundDuration":184049,"Delta":267121535},{"NoteNumber":80,"Velocity":54,"Duration":184049,"SoundDuration":184049,"Delta":267121535},{"NoteNumber":93,"Velocity":70,"Duration":184048,"SoundDuration":184048,"Delta":267305584},{"NoteNumber":81,"Velocity":59,"Duration":184048,"SoundDuration":184048,"Delta":267305584},{"NoteNumber":95,"Velocity":73,"Duration":196721,"SoundDuration":196721,"Delta":267489633},{"NoteNumber":83,"Velocity":63,"Duration":196721,"SoundDuration":196721,"Delta":267489633},{"NoteNumber":36,"Velocity":57,"Duration":49180,"SoundDuration":49180,"Delta":267587993},{"NoteNumber":48,"Velocity":57,"Duration":49180,"SoundDuration":49180,"Delta":267637174},{"NoteNumber":96,"Velocity":81,"Duration":786885,"SoundDuration":786885,"Delta":267686354},{"NoteNumber":84,"Velocity":64,"Duration":786885,"SoundDuration":786885,"Delta":267686354},{"NoteNumber":88,"Velocity":64,"Duration":786885,"SoundDuration":786885,"Delta":267686354},{"NoteNumber":72,"Velocity":70,"Duration":688525,"SoundDuration":688525,"Delta":267686354},{"NoteNumber":60,"Velocity":59,"Duration":688525,"SoundDuration":688525,"Delta":267686354},{"NoteNumber":64,"Velocity":59,"Duration":688525,"SoundDuration":688525,"Delta":267686354},{"NoteNumber":67,"Velocity":59,"Duration":688525,"SoundDuration":688525,"Delta":267686354},{"NoteNumber":33,"Velocity":59,"Duration":49180,"SoundDuration":49180,"Delta":268374879},{"NoteNumber":45,"Velocity":59,"Duration":49180,"SoundDuration":49180,"Delta":268424060},{"NoteNumber":96,"Velocity":81,"Duration":189274,"SoundDuration":189274,"Delta":268473240},{"NoteNumber":84,"Velocity":64,"Duration":189274,"SoundDuration":189274,"Delta":268473240},{"NoteNumber":89,"Velocity":64,"Duration":189274,"SoundDuration":189274,"Delta":268473240},{"NoteNumber":65,"Velocity":63,"Duration":661809,"SoundDuration":661809,"Delta":268473240},{"NoteNumber":53,"Velocity":53,"Duration":661809,"SoundDuration":661809,"Delta":268473240},{"NoteNumber":62,"Velocity":53,"Duration":661809,"SoundDuration":661809,"Delta":268473240},{"NoteNumber":57,"Velocity":53,"Duration":661809,"SoundDuration":661809,"Delta":268473240},{"NoteNumber":95,"Velocity":72,"Duration":184900,"SoundDuration":184900,"Delta":268662515},{"NoteNumber":83,"Velocity":62,"Duration":184900,"SoundDuration":184900,"Delta":268662515},{"NoteNumber":93,"Velocity":72,"Duration":189274,"SoundDuration":189274,"Delta":268847415},{"NoteNumber":81,"Velocity":62,"Duration":189274,"SoundDuration":189274,"Delta":268847415},{"NoteNumber":92,"Velocity":72,"Duration":196721,"SoundDuration":196721,"Delta":269036689},{"NoteNumber":80,"Velocity":62,"Duration":196721,"SoundDuration":196721,"Delta":269036689},{"NoteNumber":33,"Velocity":57,"Duration":49180,"SoundDuration":49180,"Delta":269135050},{"NoteNumber":45,"Velocity":57,"Duration":49180,"SoundDuration":49180,"Delta":269184230},{"NoteNumber":84,"Velocity":66,"Duration":590164,"SoundDuration":590164,"Delta":269233411},{"NoteNumber":93,"Velocity":83,"Duration":590164,"SoundDuration":590164,"Delta":269233411},{"NoteNumber":88,"Velocity":66,"Duration":590164,"SoundDuration":590164,"Delta":269233411},{"NoteNumber":81,"Velocity":66,"Duration":590164,"SoundDuration":590164,"Delta":269233411},{"NoteNumber":69,"Velocity":63,"Duration":781247,"SoundDuration":781247,"Delta":269233411},{"NoteNumber":57,"Velocity":53,"Duration":781247,"SoundDuration":781247,"Delta":269233411},{"NoteNumber":60,"Velocity":53,"Duration":781247,"SoundDuration":781247,"Delta":269233411},{"NoteNumber":64,"Velocity":53,"Duration":781247,"SoundDuration":781247,"Delta":269233411},{"NoteNumber":96,"Velocity":69,"Duration":95541,"SoundDuration":95541,"Delta":269823575},{"NoteNumber":84,"Velocity":58,"Duration":95541,"SoundDuration":95541,"Delta":269823575},{"NoteNumber":95,"Velocity":76,"Duration":185758,"SoundDuration":185758,"Delta":270014658},{"NoteNumber":83,"Velocity":63,"Duration":185758,"SoundDuration":185758,"Delta":270014658},{"NoteNumber":47,"Velocity":67,"Duration":185758,"SoundDuration":185758,"Delta":270014658},{"NoteNumber":35,"Velocity":57,"Duration":185758,"SoundDuration":185758,"Delta":270014658},{"NoteNumber":93,"Velocity":69,"Duration":144578,"SoundDuration":144578,"Delta":270200417},{"NoteNumber":81,"Velocity":58,"Duration":144578,"SoundDuration":144578,"Delta":270200417},{"NoteNumber":92,"Velocity":69,"Duration":88365,"SoundDuration":88365,"Delta":270381140},{"NoteNumber":80,"Velocity":58,"Duration":88365,"SoundDuration":88365,"Delta":270381140},{"NoteNumber":68,"Velocity":58,"Duration":176730,"SoundDuration":176730,"Delta":270381140},{"NoteNumber":59,"Velocity":48,"Duration":176730,"SoundDuration":176730,"Delta":270381140},{"NoteNumber":64,"Velocity":48,"Duration":176730,"SoundDuration":176730,"Delta":270381140},{"NoteNumber":95,"Velocity":69,"Duration":92449,"SoundDuration":92449,"Delta":270557870},{"NoteNumber":83,"Velocity":58,"Duration":92449,"SoundDuration":92449,"Delta":270557870},{"NoteNumber":93,"Velocity":76,"Duration":185758,"SoundDuration":185758,"Delta":270742770},{"NoteNumber":81,"Velocity":63,"Duration":185758,"SoundDuration":185758,"Delta":270742770},{"NoteNumber":47,"Velocity":64,"Duration":185758,"SoundDuration":185758,"Delta":270742770},{"NoteNumber":85,"Velocity":70,"Duration":142644,"SoundDuration":142644,"Delta":270928529},{"NoteNumber":73,"Velocity":59,"Duration":142644,"SoundDuration":142644,"Delta":270928529},{"NoteNumber":90,"Velocity":70,"Duration":87591,"SoundDuration":87591,"Delta":271106835},{"NoteNumber":78,"Velocity":59,"Duration":87591,"SoundDuration":87591,"Delta":271106835},{"NoteNumber":69,"Velocity":60,"Duration":175182,"SoundDuration":175182,"Delta":271106835},{"NoteNumber":66,"Velocity":51,"Duration":175182,"SoundDuration":175182,"Delta":271106835},{"NoteNumber":61,"Velocity":51,"Duration":175182,"SoundDuration":175182,"Delta":271106835},{"NoteNumber":93,"Velocity":72,"Duration":92449,"SoundDuration":92449,"Delta":271282017},{"NoteNumber":81,"Velocity":60,"Duration":92449,"SoundDuration":92449,"Delta":271282017},{"NoteNumber":92,"Velocity":80,"Duration":178306,"SoundDuration":178306,"Delta":271466917},{"NoteNumber":80,"Velocity":67,"Duration":178306,"SoundDuration":178306,"Delta":271466917},{"NoteNumber":47,"Velocity":64,"Duration":178306,"SoundDuration":178306,"Delta":271466917},{"NoteNumber":90,"Velocity":72,"Duration":143283,"SoundDuration":143283,"Delta":271645223},{"NoteNumber":78,"Velocity":60,"Duration":143283,"SoundDuration":143283,"Delta":271645223},{"NoteNumber":88,"Velocity":72,"Duration":89552,"SoundDuration":89552,"Delta":271824328},{"NoteNumber":76,"Velocity":60,"Duration":89552,"SoundDuration":89552,"Delta":271824328},{"NoteNumber":68,"Velocity":57,"Duration":179104,"SoundDuration":179104,"Delta":271824328},{"NoteNumber":64,"Velocity":47,"Duration":179104,"SoundDuration":179104,"Delta":271824328},{"NoteNumber":59,"Velocity":47,"Duration":179104,"SoundDuration":179104,"Delta":271824328},{"NoteNumber":92,"Velocity":72,"Duration":94637,"SoundDuration":94637,"Delta":272003432},{"NoteNumber":80,"Velocity":60,"Duration":94637,"SoundDuration":94637,"Delta":272003432},{"NoteNumber":90,"Velocity":81,"Duration":178306,"SoundDuration":178306,"Delta":272192707},{"NoteNumber":78,"Velocity":68,"Duration":178306,"SoundDuration":178306,"Delta":272192707},{"NoteNumber":47,"Velocity":64,"Duration":178306,"SoundDuration":178306,"Delta":272192707},{"NoteNumber":88,"Velocity":72,"Duration":143928,"SoundDuration":143928,"Delta":272371013},{"NoteNumber":76,"Velocity":60,"Duration":143928,"SoundDuration":143928,"Delta":272371013},{"NoteNumber":87,"Velocity":72,"Duration":89954,"SoundDuration":89954,"Delta":272550923},{"NoteNumber":75,"Velocity":60,"Duration":89954,"SoundDuration":89954,"Delta":272550923},{"NoteNumber":66,"Velocity":54,"Duration":179910,"SoundDuration":179910,"Delta":272550923},{"NoteNumber":63,"Velocity":45,"Duration":179910,"SoundDuration":179910,"Delta":272550923},{"NoteNumber":57,"Velocity":45,"Duration":179910,"SoundDuration":179910,"Delta":272550923},{"NoteNumber":90,"Velocity":72,"Duration":93750,"SoundDuration":93750,"Delta":272730833},{"NoteNumber":78,"Velocity":60,"Duration":93750,"SoundDuration":93750,"Delta":272730833},{"NoteNumber":90,"Velocity":80,"Duration":179910,"SoundDuration":179910,"Delta":272918333},{"NoteNumber":78,"Velocity":67,"Duration":179910,"SoundDuration":179910,"Delta":272918333},{"NoteNumber":64,"Velocity":64,"Duration":179910,"SoundDuration":179910,"Delta":272918333},{"NoteNumber":59,"Velocity":54,"Duration":179910,"SoundDuration":179910,"Delta":272918333},{"NoteNumber":56,"Velocity":54,"Duration":179910,"SoundDuration":179910,"Delta":272918333},{"NoteNumber":52,"Velocity":54,"Duration":179910,"SoundDuration":179910,"Delta":272918333},{"NoteNumber":88,"Velocity":72,"Duration":145896,"SoundDuration":145896,"Delta":273098243},{"NoteNumber":76,"Velocity":60,"Duration":145896,"SoundDuration":145896,"Delta":273098243},{"NoteNumber":88,"Velocity":72,"Duration":92879,"SoundDuration":92879,"Delta":273280614},{"NoteNumber":76,"Velocity":60,"Duration":92879,"SoundDuration":92879,"Delta":273280614},{"NoteNumber":66,"Velocity":54,"Duration":185758,"SoundDuration":185758,"Delta":273280614},{"NoteNumber":60,"Velocity":45,"Duration":185758,"SoundDuration":185758,"Delta":273280614},{"NoteNumber":57,"Velocity":45,"Duration":185758,"SoundDuration":185758,"Delta":273280614},{"NoteNumber":87,"Velocity":72,"Duration":96930,"SoundDuration":96930,"Delta":273466372},{"NoteNumber":75,"Velocity":60,"Duration":96930,"SoundDuration":96930,"Delta":273466372},{"NoteNumber":90,"Velocity":82,"Duration":185758,"SoundDuration":185758,"Delta":273660233},{"NoteNumber":78,"Velocity":69,"Duration":185758,"SoundDuration":185758,"Delta":273660233},{"NoteNumber":64,"Velocity":63,"Duration":185758,"SoundDuration":185758,"Delta":273660233},{"NoteNumber":59,"Velocity":53,"Duration":185758,"SoundDuration":185758,"Delta":273660233},{"NoteNumber":56,"Velocity":53,"Duration":185758,"SoundDuration":185758,"Delta":273660233},{"NoteNumber":52,"Velocity":53,"Duration":185758,"SoundDuration":185758,"Delta":273660233},{"NoteNumber":88,"Velocity":72,"Duration":150706,"SoundDuration":150706,"Delta":273845992},{"NoteNumber":76,"Velocity":60,"Duration":150706,"SoundDuration":150706,"Delta":273845992},{"NoteNumber":88,"Velocity":72,"Duration":94191,"SoundDuration":94191,"Delta":274034375},{"NoteNumber":76,"Velocity":60,"Duration":94191,"SoundDuration":94191,"Delta":274034375},{"NoteNumber":66,"Velocity":57,"Duration":188382,"SoundDuration":188382,"Delta":274034375},{"NoteNumber":60,"Velocity":47,"Duration":188382,"SoundDuration":188382,"Delta":274034375},{"NoteNumber":57,"Velocity":47,"Duration":188382,"SoundDuration":188382,"Delta":274034375},{"NoteNumber":87,"Velocity":72,"Duration":100840,"SoundDuration":100840,"Delta":274222758},{"NoteNumber":75,"Velocity":60,"Duration":100840,"SoundDuration":100840,"Delta":274222758},{"NoteNumber":83,"Velocity":73,"Duration":775443,"SoundDuration":775443,"Delta":274424438},{"NoteNumber":80,"Velocity":73,"Duration":775443,"SoundDuration":775443,"Delta":274424438},{"NoteNumber":88,"Velocity":87,"Duration":775443,"SoundDuration":775443,"Delta":274424438},{"NoteNumber":76,"Velocity":73,"Duration":775443,"SoundDuration":775443,"Delta":274424438},{"NoteNumber":64,"Velocity":67,"Duration":775443,"SoundDuration":775443,"Delta":274424438},{"NoteNumber":59,"Velocity":57,"Duration":775443,"SoundDuration":775443,"Delta":274424438},{"NoteNumber":56,"Velocity":57,"Duration":775443,"SoundDuration":775443,"Delta":274424438},{"NoteNumber":52,"Velocity":57,"Duration":775443,"SoundDuration":775443,"Delta":274424438},{"NoteNumber":100,"Velocity":84,"Duration":193861,"SoundDuration":193861,"Delta":275199882},{"NoteNumber":95,"Velocity":70,"Duration":193861,"SoundDuration":193861,"Delta":275199882},{"NoteNumber":92,"Velocity":70,"Duration":193861,"SoundDuration":193861,"Delta":275199882},{"NoteNumber":88,"Velocity":70,"Duration":193861,"SoundDuration":193861,"Delta":275199882},{"NoteNumber":52,"Velocity":65,"Duration":193861,"SoundDuration":193861,"Delta":275199882},{"NoteNumber":40,"Velocity":54,"Duration":193861,"SoundDuration":193861,"Delta":275199882},{"NoteNumber":44,"Velocity":54,"Duration":193861,"SoundDuration":193861,"Delta":275199882},{"NoteNumber":47,"Velocity":54,"Duration":193861,"SoundDuration":193861,"Delta":275199882},{"NoteNumber":76,"Velocity":87,"Duration":96930,"SoundDuration":96930,"Delta":275878396},{"NoteNumber":64,"Velocity":73,"Duration":96930,"SoundDuration":96930,"Delta":275878396},{"NoteNumber":68,"Velocity":73,"Duration":96930,"SoundDuration":96930,"Delta":275878396},{"NoteNumber":71,"Velocity":73,"Duration":96930,"SoundDuration":96930,"Delta":275878396},{"NoteNumber":52,"Velocity":50,"Duration":96930,"SoundDuration":96930,"Delta":275878396},{"NoteNumber":56,"Velocity":50,"Duration":96930,"SoundDuration":96930,"Delta":275878396},{"NoteNumber":59,"Velocity":59,"Duration":96930,"SoundDuration":96930,"Delta":275878396},{"NoteNumber":76,"Velocity":95,"Duration":184049,"SoundDuration":184049,"Delta":275975326},{"NoteNumber":64,"Velocity":79,"Duration":184049,"SoundDuration":184049,"Delta":275975326},{"NoteNumber":68,"Velocity":79,"Duration":184049,"SoundDuration":184049,"Delta":275975326},{"NoteNumber":71,"Velocity":79,"Duration":184049,"SoundDuration":184049,"Delta":275975326},{"NoteNumber":52,"Velocity":55,"Duration":184049,"SoundDuration":184049,"Delta":275975326},{"NoteNumber":56,"Velocity":55,"Duration":184049,"SoundDuration":184049,"Delta":275975326},{"NoteNumber":59,"Velocity":66,"Duration":184049,"SoundDuration":184049,"Delta":275975326},{"NoteNumber":68,"Velocity":73,"Duration":190174,"SoundDuration":190174,"Delta":276711522},{"NoteNumber":73,"Velocity":73,"Duration":190174,"SoundDuration":190174,"Delta":276711522},{"NoteNumber":80,"Velocity":87,"Duration":190174,"SoundDuration":190174,"Delta":276711522},{"NoteNumber":76,"Velocity":73,"Duration":190174,"SoundDuration":190174,"Delta":276711522},{"NoteNumber":49,"Velocity":74,"Duration":190174,"SoundDuration":190174,"Delta":276711522},{"NoteNumber":52,"Velocity":74,"Duration":190174,"SoundDuration":190174,"Delta":276711522},{"NoteNumber":56,"Velocity":74,"Duration":190174,"SoundDuration":190174,"Delta":276711522},{"NoteNumber":61,"Velocity":74,"Duration":190174,"SoundDuration":190174,"Delta":276711522},{"NoteNumber":71,"Velocity":79,"Duration":1135697,"SoundDuration":1135697,"Delta":277472220},{"NoteNumber":83,"Velocity":95,"Duration":1135697,"SoundDuration":1135697,"Delta":277472220},{"NoteNumber":75,"Velocity":79,"Duration":1135697,"SoundDuration":1135697,"Delta":277472220},{"NoteNumber":80,"Velocity":79,"Duration":1135697,"SoundDuration":1135697,"Delta":277472220},{"NoteNumber":56,"Velocity":74,"Duration":1135697,"SoundDuration":1135697,"Delta":277472220},{"NoteNumber":44,"Velocity":61,"Duration":1135697,"SoundDuration":1135697,"Delta":277472220},{"NoteNumber":51,"Velocity":61,"Duration":1135697,"SoundDuration":1135697,"Delta":277472220},{"NoteNumber":71,"Velocity":79,"Duration":265095,"SoundDuration":265095,"Delta":278607918},{"NoteNumber":76,"Velocity":79,"Duration":265095,"SoundDuration":265095,"Delta":278607918},{"NoteNumber":80,"Velocity":79,"Duration":265095,"SoundDuration":265095,"Delta":278607918},{"NoteNumber":83,"Velocity":95,"Duration":265095,"SoundDuration":265095,"Delta":278607918},{"NoteNumber":49,"Velocity":63,"Duration":88365,"SoundDuration":88365,"Delta":278607918},{"NoteNumber":37,"Velocity":52,"Duration":88365,"SoundDuration":88365,"Delta":278607918},{"NoteNumber":88,"Velocity":87,"Duration":83217,"SoundDuration":83217,"Delta":278873014},{"NoteNumber":76,"Velocity":73,"Duration":83217,"SoundDuration":83217,"Delta":278873014},{"NoteNumber":71,"Velocity":79,"Duration":187500,"SoundDuration":187500,"Delta":278956232},{"NoteNumber":80,"Velocity":95,"Duration":187500,"SoundDuration":187500,"Delta":278956232},{"NoteNumber":83,"Velocity":95,"Duration":187500,"SoundDuration":187500,"Delta":278956232},{"NoteNumber":75,"Velocity":79,"Duration":187500,"SoundDuration":187500,"Delta":278956232},{"NoteNumber":44,"Velocity":71,"Duration":187500,"SoundDuration":187500,"Delta":278956232},{"NoteNumber":56,"Velocity":71,"Duration":187500,"SoundDuration":187500,"Delta":278956232},{"NoteNumber":80,"Velocity":79,"Duration":260492,"SoundDuration":260492,"Delta":279331232},{"NoteNumber":71,"Velocity":79,"Duration":260492,"SoundDuration":260492,"Delta":279331232},{"NoteNumber":76,"Velocity":79,"Duration":260492,"SoundDuration":260492,"Delta":279331232},{"NoteNumber":83,"Velocity":95,"Duration":260492,"SoundDuration":260492,"Delta":279331232},{"NoteNumber":61,"Velocity":63,"Duration":86830,"SoundDuration":86830,"Delta":279331232},{"NoteNumber":49,"Velocity":52,"Duration":86830,"SoundDuration":86830,"Delta":279331232},{"NoteNumber":76,"Velocity":73,"Duration":82191,"SoundDuration":82191,"Delta":279591724},{"NoteNumber":88,"Velocity":87,"Duration":82191,"SoundDuration":82191,"Delta":279591724},{"NoteNumber":71,"Velocity":79,"Duration":187500,"SoundDuration":187500,"Delta":279673916},{"NoteNumber":75,"Velocity":79,"Duration":187500,"SoundDuration":187500,"Delta":279673916},{"NoteNumber":80,"Velocity":95,"Duration":187500,"SoundDuration":187500,"Delta":279673916},{"NoteNumber":83,"Velocity":95,"Duration":187500,"SoundDuration":187500,"Delta":279673916},{"NoteNumber":56,"Velocity":71,"Duration":187500,"SoundDuration":187500,"Delta":279673916},{"NoteNumber":68,"Velocity":71,"Duration":187500,"SoundDuration":187500,"Delta":279673916},{"NoteNumber":76,"Velocity":79,"Duration":260492,"SoundDuration":260492,"Delta":280048916},{"NoteNumber":80,"Velocity":79,"Duration":260492,"SoundDuration":260492,"Delta":280048916},{"NoteNumber":71,"Velocity":79,"Duration":260492,"SoundDuration":260492,"Delta":280048916},{"NoteNumber":83,"Velocity":95,"Duration":260492,"SoundDuration":260492,"Delta":280048916},{"NoteNumber":61,"Velocity":63,"Duration":86830,"SoundDuration":86830,"Delta":280048916},{"NoteNumber":49,"Velocity":52,"Duration":86830,"SoundDuration":86830,"Delta":280048916},{"NoteNumber":88,"Velocity":87,"Duration":82191,"SoundDuration":82191,"Delta":280309408},{"NoteNumber":76,"Velocity":73,"Duration":82191,"SoundDuration":82191,"Delta":280309408},{"NoteNumber":71,"Velocity":79,"Duration":1572415,"SoundDuration":1572415,"Delta":280391600},{"NoteNumber":83,"Velocity":95,"Duration":1572415,"SoundDuration":1572415,"Delta":280391600},{"NoteNumber":75,"Velocity":79,"Duration":1572415,"SoundDuration":1572415,"Delta":280391600},{"NoteNumber":80,"Velocity":79,"Duration":1572415,"SoundDuration":1572415,"Delta":280391600},{"NoteNumber":56,"Velocity":89,"Duration":187500,"SoundDuration":187500,"Delta":280391600},{"NoteNumber":44,"Velocity":73,"Duration":187500,"SoundDuration":187500,"Delta":280391600},{"NoteNumber":55,"Velocity":89,"Duration":190174,"SoundDuration":190174,"Delta":280766945},{"NoteNumber":43,"Velocity":73,"Duration":190174,"SoundDuration":190174,"Delta":280766945},{"NoteNumber":54,"Velocity":89,"Duration":194182,"SoundDuration":194182,"Delta":281147186},{"NoteNumber":42,"Velocity":73,"Duration":194182,"SoundDuration":194182,"Delta":281147186},{"NoteNumber":53,"Velocity":89,"Duration":208021,"SoundDuration":208021,"Delta":281542213},{"NoteNumber":41,"Velocity":73,"Duration":208021,"SoundDuration":208021,"Delta":281542213},{"NoteNumber":88,"Velocity":99,"Duration":152801,"SoundDuration":152801,"Delta":281964015},{"NoteNumber":74,"Velocity":84,"Duration":152801,"SoundDuration":152801,"Delta":281964015},{"NoteNumber":83,"Velocity":84,"Duration":152801,"SoundDuration":152801,"Delta":281964015},{"NoteNumber":76,"Velocity":84,"Duration":152801,"SoundDuration":152801,"Delta":281964015},{"NoteNumber":80,"Velocity":84,"Duration":152801,"SoundDuration":152801,"Delta":281964015},{"NoteNumber":47,"Velocity":76,"Duration":152801,"SoundDuration":152801,"Delta":281964015},{"NoteNumber":44,"Velocity":76,"Duration":152801,"SoundDuration":152801,"Delta":281964015},{"NoteNumber":52,"Velocity":93,"Duration":152801,"SoundDuration":152801,"Delta":281964015},{"NoteNumber":40,"Velocity":76,"Duration":152801,"SoundDuration":152801,"Delta":281964015},{"NoteNumber":76,"Velocity":58,"Duration":359820,"SoundDuration":359820,"Delta":283186425},{"NoteNumber":64,"Velocity":58,"Duration":359820,"SoundDuration":359820,"Delta":283186425},{"NoteNumber":96,"Velocity":79,"Duration":124309,"SoundDuration":124309,"Delta":283546245},{"NoteNumber":93,"Velocity":79,"Duration":124309,"SoundDuration":124309,"Delta":283546245},{"NoteNumber":69,"Velocity":70,"Duration":165746,"SoundDuration":165746,"Delta":283546245},{"NoteNumber":72,"Velocity":70,"Duration":165746,"SoundDuration":165746,"Delta":283546245},{"NoteNumber":91,"Velocity":60,"Duration":41436,"SoundDuration":41436,"Delta":283670555},{"NoteNumber":95,"Velocity":60,"Duration":41436,"SoundDuration":41436,"Delta":283670555},{"NoteNumber":93,"Velocity":59,"Duration":82531,"SoundDuration":82531,"Delta":283711991},{"NoteNumber":89,"Velocity":59,"Duration":82531,"SoundDuration":82531,"Delta":283711991},{"NoteNumber":76,"Velocity":61,"Duration":165061,"SoundDuration":165061,"Delta":283711991},{"NoteNumber":91,"Velocity":58,"Duration":82530,"SoundDuration":82530,"Delta":283794522},{"NoteNumber":88,"Velocity":58,"Duration":82530,"SoundDuration":82530,"Delta":283794522},{"NoteNumber":89,"Velocity":57,"Duration":82531,"SoundDuration":82531,"Delta":283877053},{"NoteNumber":86,"Velocity":57,"Duration":82531,"SoundDuration":82531,"Delta":283877053},{"NoteNumber":69,"Velocity":65,"Duration":165061,"SoundDuration":165061,"Delta":283877053},{"NoteNumber":72,"Velocity":65,"Duration":165061,"SoundDuration":165061,"Delta":283877053},{"NoteNumber":88,"Velocity":56,"Duration":82530,"SoundDuration":82530,"Delta":283959584},{"NoteNumber":84,"Velocity":56,"Duration":82530,"SoundDuration":82530,"Delta":283959584},{"NoteNumber":86,"Velocity":54,"Duration":87209,"SoundDuration":87209,"Delta":284042115},{"NoteNumber":83,"Velocity":54,"Duration":87209,"SoundDuration":87209,"Delta":284042115},{"NoteNumber":84,"Velocity":53,"Duration":93750,"SoundDuration":93750,"Delta":284129325},{"NoteNumber":81,"Velocity":53,"Duration":93750,"SoundDuration":93750,"Delta":284129325},{"NoteNumber":83,"Velocity":51,"Duration":47850,"SoundDuration":47850,"Delta":284223075},{"NoteNumber":79,"Velocity":51,"Duration":47850,"SoundDuration":47850,"Delta":284223075},{"NoteNumber":59,"Velocity":65,"Duration":166435,"SoundDuration":166435,"Delta":284223075},{"NoteNumber":62,"Velocity":65,"Duration":166435,"SoundDuration":166435,"Delta":284223075},{"NoteNumber":81,"Velocity":51,"Duration":47156,"SoundDuration":47156,"Delta":284270925},{"NoteNumber":77,"Velocity":51,"Duration":47156,"SoundDuration":47156,"Delta":284270925},{"NoteNumber":79,"Velocity":50,"Duration":47850,"SoundDuration":47850,"Delta":284318082},{"NoteNumber":76,"Velocity":50,"Duration":47850,"SoundDuration":47850,"Delta":284318082},{"NoteNumber":77,"Velocity":50,"Duration":47850,"SoundDuration":47850,"Delta":284365238},{"NoteNumber":74,"Velocity":50,"Duration":47850,"SoundDuration":47850,"Delta":284365238},{"NoteNumber":67,"Velocity":59,"Duration":166435,"SoundDuration":166435,"Delta":284389510},{"NoteNumber":72,"Velocity":49,"Duration":47156,"SoundDuration":47156,"Delta":284413088},{"NoteNumber":76,"Velocity":49,"Duration":47156,"SoundDuration":47156,"Delta":284413088},{"NoteNumber":71,"Velocity":48,"Duration":47850,"SoundDuration":47850,"Delta":284460245},{"NoteNumber":74,"Velocity":48,"Duration":47850,"SoundDuration":47850,"Delta":284460245},{"NoteNumber":69,"Velocity":47,"Duration":47156,"SoundDuration":47156,"Delta":284508095},{"NoteNumber":72,"Velocity":47,"Duration":47156,"SoundDuration":47156,"Delta":284508095},{"NoteNumber":71,"Velocity":47,"Duration":172910,"SoundDuration":172910,"Delta":284555946},{"NoteNumber":67,"Velocity":47,"Duration":172910,"SoundDuration":172910,"Delta":284555946},{"NoteNumber":59,"Velocity":55,"Duration":172910,"SoundDuration":172910,"Delta":284555946},{"NoteNumber":62,"Velocity":55,"Duration":172910,"SoundDuration":172910,"Delta":284555946},{"NoteNumber":93,"Velocity":79,"Duration":127478,"SoundDuration":127478,"Delta":284915481},{"NoteNumber":89,"Velocity":79,"Duration":127478,"SoundDuration":127478,"Delta":284915481},{"NoteNumber":69,"Velocity":70,"Duration":169971,"SoundDuration":169971,"Delta":284915481},{"NoteNumber":65,"Velocity":70,"Duration":169971,"SoundDuration":169971,"Delta":284915481},{"NoteNumber":88,"Velocity":60,"Duration":42492,"SoundDuration":42492,"Delta":285042960},{"NoteNumber":91,"Velocity":60,"Duration":42492,"SoundDuration":42492,"Delta":285042960},{"NoteNumber":89,"Velocity":59,"Duration":83565,"SoundDuration":83565,"Delta":285085453},{"NoteNumber":86,"Velocity":59,"Duration":83565,"SoundDuration":83565,"Delta":285085453},{"NoteNumber":72,"Velocity":61,"Duration":167130,"SoundDuration":167130,"Delta":285085453},{"NoteNumber":88,"Velocity":58,"Duration":83565,"SoundDuration":83565,"Delta":285169018},{"NoteNumber":84,"Velocity":58,"Duration":83565,"SoundDuration":83565,"Delta":285169018},{"NoteNumber":86,"Velocity":57,"Duration":83565,"SoundDuration":83565,"Delta":285252584},{"NoteNumber":83,"Velocity":57,"Duration":83565,"SoundDuration":83565,"Delta":285252584},{"NoteNumber":69,"Velocity":65,"Duration":167131,"SoundDuration":167131,"Delta":285252584},{"NoteNumber":65,"Velocity":65,"Duration":167131,"SoundDuration":167131,"Delta":285252584},{"NoteNumber":84,"Velocity":55,"Duration":83565,"SoundDuration":83565,"Delta":285336149},{"NoteNumber":81,"Velocity":55,"Duration":83565,"SoundDuration":83565,"Delta":285336149},{"NoteNumber":83,"Velocity":54,"Duration":87209,"SoundDuration":87209,"Delta":285419715},{"NoteNumber":79,"Velocity":54,"Duration":87209,"SoundDuration":87209,"Delta":285419715},{"NoteNumber":81,"Velocity":52,"Duration":93750,"SoundDuration":93750,"Delta":285506924},{"NoteNumber":77,"Velocity":52,"Duration":93750,"SoundDuration":93750,"Delta":285506924},{"NoteNumber":79,"Velocity":50,"Duration":48455,"SoundDuration":48455,"Delta":285600674},{"NoteNumber":76,"Velocity":50,"Duration":48455,"SoundDuration":48455,"Delta":285600674},{"NoteNumber":59,"Velocity":65,"Duration":168539,"SoundDuration":168539,"Delta":285600674},{"NoteNumber":55,"Velocity":65,"Duration":168539,"SoundDuration":168539,"Delta":285600674},{"NoteNumber":77,"Velocity":49,"Duration":47752,"SoundDuration":47752,"Delta":285649129},{"NoteNumber":74,"Velocity":49,"Duration":47752,"SoundDuration":47752,"Delta":285649129},{"NoteNumber":76,"Velocity":48,"Duration":48455,"SoundDuration":48455,"Delta":285696882},{"NoteNumber":72,"Velocity":48,"Duration":48455,"SoundDuration":48455,"Delta":285696882},{"NoteNumber":74,"Velocity":47,"Duration":48455,"SoundDuration":48455,"Delta":285744635},{"NoteNumber":71,"Velocity":47,"Duration":48455,"SoundDuration":48455,"Delta":285744635},{"NoteNumber":64,"Velocity":59,"Duration":168539,"SoundDuration":168539,"Delta":285769213},{"NoteNumber":69,"Velocity":46,"Duration":47752,"SoundDuration":47752,"Delta":285793090},{"NoteNumber":72,"Velocity":46,"Duration":47752,"SoundDuration":47752,"Delta":285793090},{"NoteNumber":67,"Velocity":45,"Duration":48455,"SoundDuration":48455,"Delta":285840843},{"NoteNumber":71,"Velocity":45,"Duration":48455,"SoundDuration":48455,"Delta":285840843},{"NoteNumber":65,"Velocity":43,"Duration":47752,"SoundDuration":47752,"Delta":285889298},{"NoteNumber":69,"Velocity":43,"Duration":47752,"SoundDuration":47752,"Delta":285889298},{"NoteNumber":67,"Velocity":42,"Duration":172910,"SoundDuration":172910,"Delta":285937753},{"NoteNumber":64,"Velocity":42,"Duration":172910,"SoundDuration":172910,"Delta":285937753},{"NoteNumber":59,"Velocity":55,"Duration":172910,"SoundDuration":172910,"Delta":285937753},{"NoteNumber":55,"Velocity":55,"Duration":172910,"SoundDuration":172910,"Delta":285937753},{"NoteNumber":89,"Velocity":79,"Duration":126404,"SoundDuration":126404,"Delta":286280998},{"NoteNumber":86,"Velocity":79,"Duration":126404,"SoundDuration":126404,"Delta":286280998},{"NoteNumber":62,"Velocity":70,"Duration":168539,"SoundDuration":168539,"Delta":286280998},{"NoteNumber":65,"Velocity":70,"Duration":168539,"SoundDuration":168539,"Delta":286280998},{"NoteNumber":84,"Velocity":61,"Duration":42134,"SoundDuration":42134,"Delta":286407402},{"NoteNumber":88,"Velocity":61,"Duration":42134,"SoundDuration":42134,"Delta":286407402},{"NoteNumber":86,"Velocity":60,"Duration":84269,"SoundDuration":84269,"Delta":286449537},{"NoteNumber":83,"Velocity":60,"Duration":84269,"SoundDuration":84269,"Delta":286449537},{"NoteNumber":69,"Velocity":61,"Duration":168539,"SoundDuration":168539,"Delta":286449537},{"NoteNumber":84,"Velocity":59,"Duration":84269,"SoundDuration":84269,"Delta":286533807},{"NoteNumber":81,"Velocity":59,"Duration":84269,"SoundDuration":84269,"Delta":286533807},{"NoteNumber":83,"Velocity":58,"Duration":86455,"SoundDuration":86455,"Delta":286618077},{"NoteNumber":79,"Velocity":58,"Duration":86455,"SoundDuration":86455,"Delta":286618077},{"NoteNumber":62,"Velocity":65,"Duration":172910,"SoundDuration":172910,"Delta":286618077},{"NoteNumber":65,"Velocity":65,"Duration":172910,"SoundDuration":172910,"Delta":286618077},{"NoteNumber":81,"Velocity":57,"Duration":86455,"SoundDuration":86455,"Delta":286704532},{"NoteNumber":77,"Velocity":57,"Duration":86455,"SoundDuration":86455,"Delta":286704532},{"NoteNumber":79,"Velocity":55,"Duration":87209,"SoundDuration":87209,"Delta":286790987},{"NoteNumber":76,"Velocity":55,"Duration":87209,"SoundDuration":87209,"Delta":286790987},{"NoteNumber":77,"Velocity":54,"Duration":93750,"SoundDuration":93750,"Delta":286878196},{"NoteNumber":74,"Velocity":54,"Duration":93750,"SoundDuration":93750,"Delta":286878196},{"NoteNumber":76,"Velocity":53,"Duration":48251,"SoundDuration":48251,"Delta":286971946},{"NoteNumber":72,"Velocity":53,"Duration":48251,"SoundDuration":48251,"Delta":286971946},{"NoteNumber":55,"Velocity":65,"Duration":167831,"SoundDuration":167831,"Delta":286971946},{"NoteNumber":52,"Velocity":65,"Duration":167831,"SoundDuration":167831,"Delta":286971946},{"NoteNumber":74,"Velocity":52,"Duration":47552,"SoundDuration":47552,"Delta":287020198},{"NoteNumber":71,"Velocity":52,"Duration":47552,"SoundDuration":47552,"Delta":287020198},{"NoteNumber":72,"Velocity":51,"Duration":48251,"SoundDuration":48251,"Delta":287067750},{"NoteNumber":69,"Velocity":51,"Duration":48251,"SoundDuration":48251,"Delta":287067750},{"NoteNumber":71,"Velocity":50,"Duration":48251,"SoundDuration":48251,"Delta":287115303},{"NoteNumber":67,"Velocity":50,"Duration":48251,"SoundDuration":48251,"Delta":287115303},{"NoteNumber":60,"Velocity":59,"Duration":167832,"SoundDuration":167832,"Delta":287139778},{"NoteNumber":65,"Velocity":49,"Duration":47552,"SoundDuration":47552,"Delta":287163555},{"NoteNumber":69,"Velocity":49,"Duration":47552,"SoundDuration":47552,"Delta":287163555},{"NoteNumber":64,"Velocity":47,"Duration":48251,"SoundDuration":48251,"Delta":287211107},{"NoteNumber":67,"Velocity":47,"Duration":48251,"SoundDuration":48251,"Delta":287211107},{"NoteNumber":62,"Velocity":46,"Duration":47552,"SoundDuration":47552,"Delta":287259359},{"NoteNumber":65,"Velocity":46,"Duration":47552,"SoundDuration":47552,"Delta":287259359},{"NoteNumber":64,"Velocity":45,"Duration":172166,"SoundDuration":172166,"Delta":287307610},{"NoteNumber":60,"Velocity":45,"Duration":172166,"SoundDuration":172166,"Delta":287307610},{"NoteNumber":55,"Velocity":55,"Duration":172166,"SoundDuration":172166,"Delta":287307610},{"NoteNumber":52,"Velocity":55,"Duration":172166,"SoundDuration":172166,"Delta":287307610},{"NoteNumber":86,"Velocity":79,"Duration":128571,"SoundDuration":128571,"Delta":287651943},{"NoteNumber":83,"Velocity":79,"Duration":128571,"SoundDuration":128571,"Delta":287651943},{"NoteNumber":59,"Velocity":70,"Duration":171428,"SoundDuration":171428,"Delta":287651943},{"NoteNumber":62,"Velocity":70,"Duration":171428,"SoundDuration":171428,"Delta":287651943},{"NoteNumber":81,"Velocity":59,"Duration":42857,"SoundDuration":42857,"Delta":287780515},{"NoteNumber":84,"Velocity":59,"Duration":42857,"SoundDuration":42857,"Delta":287780515},{"NoteNumber":83,"Velocity":58,"Duration":83915,"SoundDuration":83915,"Delta":287823372},{"NoteNumber":79,"Velocity":58,"Duration":83915,"SoundDuration":83915,"Delta":287823372},{"NoteNumber":65,"Velocity":61,"Duration":167831,"SoundDuration":167831,"Delta":287823372},{"NoteNumber":81,"Velocity":57,"Duration":83915,"SoundDuration":83915,"Delta":287907288},{"NoteNumber":77,"Velocity":57,"Duration":83915,"SoundDuration":83915,"Delta":287907288},{"NoteNumber":79,"Velocity":56,"Duration":83916,"SoundDuration":83916,"Delta":287991204},{"NoteNumber":76,"Velocity":56,"Duration":83916,"SoundDuration":83916,"Delta":287991204},{"NoteNumber":62,"Velocity":65,"Duration":167832,"SoundDuration":167832,"Delta":287991204},{"NoteNumber":59,"Velocity":65,"Duration":167832,"SoundDuration":167832,"Delta":287991204},{"NoteNumber":77,"Velocity":54,"Duration":83915,"SoundDuration":83915,"Delta":288075120},{"NoteNumber":74,"Velocity":54,"Duration":83915,"SoundDuration":83915,"Delta":288075120},{"NoteNumber":76,"Velocity":53,"Duration":87209,"SoundDuration":87209,"Delta":288159036},{"NoteNumber":72,"Velocity":53,"Duration":87209,"SoundDuration":87209,"Delta":288159036},{"NoteNumber":74,"Velocity":52,"Duration":93750,"SoundDuration":93750,"Delta":288246245},{"NoteNumber":71,"Velocity":52,"Duration":93750,"SoundDuration":93750,"Delta":288246245},{"NoteNumber":72,"Velocity":51,"Duration":48251,"SoundDuration":48251,"Delta":288339995},{"NoteNumber":69,"Velocity":51,"Duration":48251,"SoundDuration":48251,"Delta":288339995},{"NoteNumber":48,"Velocity":65,"Duration":167831,"SoundDuration":167831,"Delta":288339995},{"NoteNumber":52,"Velocity":65,"Duration":167831,"SoundDuration":167831,"Delta":288339995},{"NoteNumber":71,"Velocity":50,"Duration":47552,"SoundDuration":47552,"Delta":288388247},{"NoteNumber":67,"Velocity":50,"Duration":47552,"SoundDuration":47552,"Delta":288388247},{"NoteNumber":69,"Velocity":49,"Duration":48251,"SoundDuration":48251,"Delta":288435799},{"NoteNumber":65,"Velocity":49,"Duration":48251,"SoundDuration":48251,"Delta":288435799},{"NoteNumber":67,"Velocity":49,"Duration":48251,"SoundDuration":48251,"Delta":288483352},{"NoteNumber":64,"Velocity":49,"Duration":48251,"SoundDuration":48251,"Delta":288483352},{"NoteNumber":57,"Velocity":59,"Duration":167832,"SoundDuration":167832,"Delta":288507827},{"NoteNumber":62,"Velocity":48,"Duration":47552,"SoundDuration":47552,"Delta":288531603},{"NoteNumber":65,"Velocity":48,"Duration":47552,"SoundDuration":47552,"Delta":288531603},{"NoteNumber":60,"Velocity":47,"Duration":48251,"SoundDuration":48251,"Delta":288579156},{"NoteNumber":64,"Velocity":47,"Duration":48251,"SoundDuration":48251,"Delta":288579156},{"NoteNumber":59,"Velocity":45,"Duration":47552,"SoundDuration":47552,"Delta":288627407},{"NoteNumber":62,"Velocity":45,"Duration":47552,"SoundDuration":47552,"Delta":288627407},{"NoteNumber":60,"Velocity":44,"Duration":172910,"SoundDuration":172910,"Delta":288675659},{"NoteNumber":57,"Velocity":44,"Duration":172910,"SoundDuration":172910,"Delta":288675659},{"NoteNumber":48,"Velocity":55,"Duration":172910,"SoundDuration":172910,"Delta":288675659},{"NoteNumber":52,"Velocity":55,"Duration":172910,"SoundDuration":172910,"Delta":288675659},{"NoteNumber":83,"Velocity":79,"Duration":127478,"SoundDuration":127478,"Delta":289021480},{"NoteNumber":79,"Velocity":79,"Duration":127478,"SoundDuration":127478,"Delta":289021480},{"NoteNumber":59,"Velocity":70,"Duration":169971,"SoundDuration":169971,"Delta":289021480},{"NoteNumber":55,"Velocity":70,"Duration":169971,"SoundDuration":169971,"Delta":289021480},{"NoteNumber":77,"Velocity":62,"Duration":42492,"SoundDuration":42492,"Delta":289148959},{"NoteNumber":81,"Velocity":62,"Duration":42492,"SoundDuration":42492,"Delta":289148959},{"NoteNumber":79,"Velocity":61,"Duration":83565,"SoundDuration":83565,"Delta":289191452},{"NoteNumber":76,"Velocity":61,"Duration":83565,"SoundDuration":83565,"Delta":289191452},{"NoteNumber":62,"Velocity":61,"Duration":167130,"SoundDuration":167130,"Delta":289191452},{"NoteNumber":77,"Velocity":59,"Duration":83565,"SoundDuration":83565,"Delta":289275017},{"NoteNumber":74,"Velocity":59,"Duration":83565,"SoundDuration":83565,"Delta":289275017},{"NoteNumber":76,"Velocity":57,"Duration":83565,"SoundDuration":83565,"Delta":289358583},{"NoteNumber":72,"Velocity":57,"Duration":83565,"SoundDuration":83565,"Delta":289358583},{"NoteNumber":59,"Velocity":65,"Duration":167131,"SoundDuration":167131,"Delta":289358583},{"NoteNumber":55,"Velocity":65,"Duration":167131,"SoundDuration":167131,"Delta":289358583},{"NoteNumber":74,"Velocity":56,"Duration":83565,"SoundDuration":83565,"Delta":289442148},{"NoteNumber":71,"Velocity":56,"Duration":83565,"SoundDuration":83565,"Delta":289442148},{"NoteNumber":72,"Velocity":54,"Duration":87209,"SoundDuration":87209,"Delta":289525714},{"NoteNumber":69,"Velocity":54,"Duration":87209,"SoundDuration":87209,"Delta":289525714},{"NoteNumber":71,"Velocity":53,"Duration":93750,"SoundDuration":93750,"Delta":289612923},{"NoteNumber":67,"Velocity":53,"Duration":93750,"SoundDuration":93750,"Delta":289612923},{"NoteNumber":69,"Velocity":50,"Duration":49075,"SoundDuration":49075,"Delta":289706673},{"NoteNumber":65,"Velocity":50,"Duration":49075,"SoundDuration":49075,"Delta":289706673},{"NoteNumber":45,"Velocity":65,"Duration":170697,"SoundDuration":170697,"Delta":289706673},{"NoteNumber":48,"Velocity":65,"Duration":170697,"SoundDuration":170697,"Delta":289706673},{"NoteNumber":67,"Velocity":49,"Duration":48364,"SoundDuration":48364,"Delta":289755748},{"NoteNumber":64,"Velocity":49,"Duration":48364,"SoundDuration":48364,"Delta":289755748},{"NoteNumber":65,"Velocity":48,"Duration":49075,"SoundDuration":49075,"Delta":289804112},{"NoteNumber":62,"Velocity":48,"Duration":49075,"SoundDuration":49075,"Delta":289804112},{"NoteNumber":64,"Velocity":47,"Duration":49075,"SoundDuration":49075,"Delta":289852477},{"NoteNumber":60,"Velocity":47,"Duration":49075,"SoundDuration":49075,"Delta":289852477},{"NoteNumber":53,"Velocity":59,"Duration":170696,"SoundDuration":170696,"Delta":289877370},{"NoteNumber":59,"Velocity":46,"Duration":48364,"SoundDuration":48364,"Delta":289901552},{"NoteNumber":62,"Velocity":46,"Duration":48364,"SoundDuration":48364,"Delta":289901552},{"NoteNumber":57,"Velocity":45,"Duration":49075,"SoundDuration":49075,"Delta":289949916},{"NoteNumber":60,"Velocity":45,"Duration":49075,"SoundDuration":49075,"Delta":289949916},{"NoteNumber":55,"Velocity":44,"Duration":48364,"SoundDuration":48364,"Delta":289998991},{"NoteNumber":59,"Velocity":44,"Duration":48364,"SoundDuration":48364,"Delta":289998991},{"NoteNumber":57,"Velocity":43,"Duration":172910,"SoundDuration":172910,"Delta":290048067},{"NoteNumber":53,"Velocity":43,"Duration":172910,"SoundDuration":172910,"Delta":290048067},{"NoteNumber":48,"Velocity":55,"Duration":172910,"SoundDuration":172910,"Delta":290048067},{"NoteNumber":45,"Velocity":55,"Duration":172910,"SoundDuration":172910,"Delta":290048067},{"NoteNumber":52,"Velocity":77,"Duration":334262,"SoundDuration":334262,"Delta":290393888},{"NoteNumber":44,"Velocity":65,"Duration":334262,"SoundDuration":334262,"Delta":290393888},{"NoteNumber":40,"Velocity":65,"Duration":334262,"SoundDuration":334262,"Delta":290393888},{"NoteNumber":47,"Velocity":65,"Duration":334262,"SoundDuration":334262,"Delta":290393888},{"NoteNumber":52,"Velocity":73,"Duration":111420,"SoundDuration":111420,"Delta":290505308},{"NoteNumber":56,"Velocity":75,"Duration":111420,"SoundDuration":111420,"Delta":290616729},{"NoteNumber":64,"Velocity":77,"Duration":100278,"SoundDuration":100278,"Delta":290728150},{"NoteNumber":64,"Velocity":72,"Duration":109401,"SoundDuration":109401,"Delta":290839570},{"NoteNumber":50,"Velocity":56,"Duration":161073,"SoundDuration":161073,"Delta":290895281},{"NoteNumber":52,"Velocity":56,"Duration":161073,"SoundDuration":161073,"Delta":290895281},{"NoteNumber":59,"Velocity":67,"Duration":161073,"SoundDuration":161073,"Delta":290895281},{"NoteNumber":68,"Velocity":72,"Duration":107382,"SoundDuration":107382,"Delta":290948972},{"NoteNumber":64,"Velocity":77,"Duration":96644,"SoundDuration":96644,"Delta":291056355},{"NoteNumber":58,"Velocity":71,"Duration":80536,"SoundDuration":80536,"Delta":291056355},{"NoteNumber":52,"Velocity":60,"Duration":80536,"SoundDuration":80536,"Delta":291056355},{"NoteNumber":49,"Velocity":60,"Duration":80536,"SoundDuration":80536,"Delta":291056355},{"NoteNumber":64,"Velocity":74,"Duration":108712,"SoundDuration":108712,"Delta":291163737},{"NoteNumber":68,"Velocity":74,"Duration":110041,"SoundDuration":110041,"Delta":291272449},{"NoteNumber":76,"Velocity":77,"Duration":99037,"SoundDuration":99037,"Delta":291382491},{"NoteNumber":48,"Velocity":56,"Duration":82531,"SoundDuration":82531,"Delta":291382491},{"NoteNumber":57,"Velocity":67,"Duration":82531,"SoundDuration":82531,"Delta":291382491},{"NoteNumber":52,"Velocity":56,"Duration":82531,"SoundDuration":82531,"Delta":291382491},{"NoteNumber":76,"Velocity":74,"Duration":110041,"SoundDuration":110041,"Delta":291492532},{"NoteNumber":80,"Velocity":74,"Duration":110041,"SoundDuration":110041,"Delta":291602573},{"NoteNumber":76,"Velocity":77,"Duration":100278,"SoundDuration":100278,"Delta":291712615},{"NoteNumber":52,"Velocity":65,"Duration":334262,"SoundDuration":334262,"Delta":291712615},{"NoteNumber":47,"Velocity":65,"Duration":334262,"SoundDuration":334262,"Delta":291712615},{"NoteNumber":56,"Velocity":77,"Duration":334262,"SoundDuration":334262,"Delta":291712615},{"NoteNumber":76,"Velocity":73,"Duration":111420,"SoundDuration":111420,"Delta":291824035},{"NoteNumber":80,"Velocity":75,"Duration":111420,"SoundDuration":111420,"Delta":291935456},{"NoteNumber":88,"Velocity":77,"Duration":100278,"SoundDuration":100278,"Delta":292046877},{"NoteNumber":88,"Velocity":72,"Duration":110058,"SoundDuration":110058,"Delta":292158297},{"NoteNumber":64,"Velocity":56,"Duration":163043,"SoundDuration":163043,"Delta":292214008},{"NoteNumber":62,"Velocity":56,"Duration":163043,"SoundDuration":163043,"Delta":292214008},{"NoteNumber":71,"Velocity":67,"Duration":163043,"SoundDuration":163043,"Delta":292214008},{"NoteNumber":92,"Velocity":72,"Duration":108695,"SoundDuration":108695,"Delta":292268356},{"NoteNumber":88,"Velocity":77,"Duration":97826,"SoundDuration":97826,"Delta":292377051},{"NoteNumber":61,"Velocity":60,"Duration":81521,"SoundDuration":81521,"Delta":292377051},{"NoteNumber":64,"Velocity":60,"Duration":81521,"SoundDuration":81521,"Delta":292377051},{"NoteNumber":70,"Velocity":71,"Duration":81521,"SoundDuration":81521,"Delta":292377051},{"NoteNumber":88,"Velocity":74,"Duration":109826,"SoundDuration":109826,"Delta":292485747},{"NoteNumber":92,"Velocity":74,"Duration":110956,"SoundDuration":110956,"Delta":292595573},{"NoteNumber":100,"Velocity":77,"Duration":110957,"SoundDuration":110957,"Delta":292706530},{"NoteNumber":60,"Velocity":56,"Duration":83217,"SoundDuration":83217,"Delta":292706530},{"NoteNumber":64,"Velocity":56,"Duration":83217,"SoundDuration":83217,"Delta":292706530},{"NoteNumber":69,"Velocity":67,"Duration":83217,"SoundDuration":83217,"Delta":292706530},{"NoteNumber":92,"Velocity":74,"Duration":110956,"SoundDuration":110956,"Delta":292817487},{"NoteNumber":104,"Velocity":74,"Duration":110956,"SoundDuration":110956,"Delta":292928444},{"NoteNumber":88,"Velocity":77,"Duration":106100,"SoundDuration":106100,"Delta":293039401},{"NoteNumber":59,"Velocity":65,"Duration":318302,"SoundDuration":318302,"Delta":293039401},{"NoteNumber":64,"Velocity":65,"Duration":318302,"SoundDuration":318302,"Delta":293039401},{"NoteNumber":68,"Velocity":77,"Duration":318302,"SoundDuration":318302,"Delta":293039401},{"NoteNumber":100,"Velocity":73,"Duration":106100,"SoundDuration":106100,"Delta":293145502},{"NoteNumber":92,"Velocity":75,"Duration":106100,"SoundDuration":106100,"Delta":293251603},{"NoteNumber":104,"Velocity":78,"Duration":108254,"SoundDuration":108254,"Delta":293357703},{"NoteNumber":76,"Velocity":69,"Duration":81190,"SoundDuration":81190,"Delta":293357703},{"NoteNumber":71,"Velocity":58,"Duration":81190,"SoundDuration":81190,"Delta":293357703},{"NoteNumber":74,"Velocity":58,"Duration":81190,"SoundDuration":81190,"Delta":293357703},{"NoteNumber":64,"Velocity":58,"Duration":81190,"SoundDuration":81190,"Delta":293357703},{"NoteNumber":88,"Velocity":74,"Duration":108254,"SoundDuration":108254,"Delta":293465958},{"NoteNumber":100,"Velocity":74,"Duration":108254,"SoundDuration":108254,"Delta":293574212},{"NoteNumber":92,"Velocity":84,"Duration":106100,"SoundDuration":106100,"Delta":293682466},{"NoteNumber":76,"Velocity":74,"Duration":79575,"SoundDuration":79575,"Delta":293682466},{"NoteNumber":64,"Velocity":62,"Duration":79575,"SoundDuration":79575,"Delta":293682466},{"NoteNumber":73,"Velocity":62,"Duration":79575,"SoundDuration":79575,"Delta":293682466},{"NoteNumber":70,"Velocity":62,"Duration":79575,"SoundDuration":79575,"Delta":293682466},{"NoteNumber":104,"Velocity":79,"Duration":106100,"SoundDuration":106100,"Delta":293788567},{"NoteNumber":88,"Velocity":79,"Duration":106100,"SoundDuration":106100,"Delta":293894668},{"NoteNumber":100,"Velocity":87,"Duration":107816,"SoundDuration":107816,"Delta":294000768},{"NoteNumber":69,"Velocity":61,"Duration":80862,"SoundDuration":80862,"Delta":294000768},{"NoteNumber":76,"Velocity":72,"Duration":80862,"SoundDuration":80862,"Delta":294000768},{"NoteNumber":72,"Velocity":61,"Duration":80862,"SoundDuration":80862,"Delta":294000768},{"NoteNumber":64,"Velocity":61,"Duration":80862,"SoundDuration":80862,"Delta":294000768},{"NoteNumber":92,"Velocity":83,"Duration":107816,"SoundDuration":107816,"Delta":294108585},{"NoteNumber":104,"Velocity":83,"Duration":107816,"SoundDuration":107816,"Delta":294216402},{"NoteNumber":88,"Velocity":91,"Duration":332871,"SoundDuration":332871,"Delta":294324218},{"NoteNumber":64,"Velocity":62,"Duration":332871,"SoundDuration":332871,"Delta":294324218},{"NoteNumber":76,"Velocity":73,"Duration":332871,"SoundDuration":332871,"Delta":294324218},{"NoteNumber":71,"Velocity":62,"Duration":332871,"SoundDuration":332871,"Delta":294324218},{"NoteNumber":68,"Velocity":62,"Duration":332871,"SoundDuration":332871,"Delta":294324218},{"NoteNumber":100,"Velocity":98,"Duration":83217,"SoundDuration":83217,"Delta":294657089},{"NoteNumber":92,"Velocity":83,"Duration":83217,"SoundDuration":83217,"Delta":294657089},{"NoteNumber":95,"Velocity":83,"Duration":83217,"SoundDuration":83217,"Delta":294657089},{"NoteNumber":80,"Velocity":73,"Duration":83217,"SoundDuration":83217,"Delta":294657089},{"NoteNumber":71,"Velocity":62,"Duration":83217,"SoundDuration":83217,"Delta":294657089},{"NoteNumber":83,"Velocity":73,"Duration":83217,"SoundDuration":83217,"Delta":294657089},{"NoteNumber":76,"Velocity":62,"Duration":83217,"SoundDuration":83217,"Delta":294657089},{"NoteNumber":76,"Velocity":81,"Duration":166435,"SoundDuration":166435,"Delta":295156396},{"NoteNumber":64,"Velocity":68,"Duration":166435,"SoundDuration":166435,"Delta":295156396},{"NoteNumber":52,"Velocity":70,"Duration":166435,"SoundDuration":166435,"Delta":295156396},{"NoteNumber":40,"Velocity":59,"Duration":166435,"SoundDuration":166435,"Delta":295156396},{"NoteNumber":78,"Velocity":86,"Duration":167831,"SoundDuration":167831,"Delta":295322831},{"NoteNumber":66,"Velocity":73,"Duration":167831,"SoundDuration":167831,"Delta":295322831},{"NoteNumber":54,"Velocity":74,"Duration":167831,"SoundDuration":167831,"Delta":295322831},{"NoteNumber":42,"Velocity":62,"Duration":167831,"SoundDuration":167831,"Delta":295322831},{"NoteNumber":80,"Velocity":90,"Duration":167832,"SoundDuration":167832,"Delta":295490663},{"NoteNumber":68,"Velocity":76,"Duration":167832,"SoundDuration":167832,"Delta":295490663},{"NoteNumber":56,"Velocity":79,"Duration":167832,"SoundDuration":167832,"Delta":295490663},{"NoteNumber":44,"Velocity":67,"Duration":167832,"SoundDuration":167832,"Delta":295490663},{"NoteNumber":72,"Velocity":79,"Duration":174418,"SoundDuration":174418,"Delta":295658495},{"NoteNumber":81,"Velocity":93,"Duration":174418,"SoundDuration":174418,"Delta":295658495},{"NoteNumber":69,"Velocity":79,"Duration":174418,"SoundDuration":174418,"Delta":295658495},{"NoteNumber":57,"Velocity":83,"Duration":174418,"SoundDuration":174418,"Delta":295658495},{"NoteNumber":45,"Velocity":70,"Duration":174418,"SoundDuration":174418,"Delta":295658495},{"NoteNumber":71,"Velocity":63,"Duration":82531,"SoundDuration":82531,"Delta":296007332},{"NoteNumber":80,"Velocity":74,"Duration":82531,"SoundDuration":82531,"Delta":296007332},{"NoteNumber":68,"Velocity":63,"Duration":82531,"SoundDuration":82531,"Delta":296007332},{"NoteNumber":53,"Velocity":56,"Duration":165061,"SoundDuration":165061,"Delta":296007332},{"NoteNumber":41,"Velocity":47,"Duration":165061,"SoundDuration":165061,"Delta":296007332},{"NoteNumber":74,"Velocity":57,"Duration":86830,"SoundDuration":86830,"Delta":296172394},{"NoteNumber":83,"Velocity":68,"Duration":86830,"SoundDuration":86830,"Delta":296172394},{"NoteNumber":71,"Velocity":57,"Duration":86830,"SoundDuration":86830,"Delta":296172394},{"NoteNumber":81,"Velocity":84,"Duration":169971,"SoundDuration":169971,"Delta":296346056},{"NoteNumber":69,"Velocity":71,"Duration":169971,"SoundDuration":169971,"Delta":296346056},{"NoteNumber":72,"Velocity":71,"Duration":169971,"SoundDuration":169971,"Delta":296346056},{"NoteNumber":57,"Velocity":70,"Duration":169971,"SoundDuration":169971,"Delta":296346056},{"NoteNumber":45,"Velocity":59,"Duration":169971,"SoundDuration":169971,"Delta":296346056},{"NoteNumber":71,"Velocity":61,"Duration":81521,"SoundDuration":81521,"Delta":296685999},{"NoteNumber":80,"Velocity":72,"Duration":81521,"SoundDuration":81521,"Delta":296685999},{"NoteNumber":68,"Velocity":61,"Duration":81521,"SoundDuration":81521,"Delta":296685999},{"NoteNumber":40,"Velocity":47,"Duration":163043,"SoundDuration":163043,"Delta":296685999},{"NoteNumber":52,"Velocity":56,"Duration":163043,"SoundDuration":163043,"Delta":296685999},{"NoteNumber":74,"Velocity":56,"Duration":86455,"SoundDuration":86455,"Delta":296849042},{"NoteNumber":83,"Velocity":67,"Duration":86455,"SoundDuration":86455,"Delta":296849042},{"NoteNumber":71,"Velocity":56,"Duration":86455,"SoundDuration":86455,"Delta":296849042},{"NoteNumber":72,"Velocity":71,"Duration":91603,"SoundDuration":91603,"Delta":297021953},{"NoteNumber":81,"Velocity":84,"Duration":91603,"SoundDuration":91603,"Delta":297021953},{"NoteNumber":69,"Velocity":71,"Duration":91603,"SoundDuration":91603,"Delta":297021953},{"NoteNumber":45,"Velocity":59,"Duration":91603,"SoundDuration":91603,"Delta":297021953},{"NoteNumber":57,"Velocity":70,"Duration":91603,"SoundDuration":91603,"Delta":297021953},{"NoteNumber":71,"Velocity":56,"Duration":89153,"SoundDuration":89153,"Delta":297388365},{"NoteNumber":80,"Velocity":67,"Duration":89153,"SoundDuration":89153,"Delta":297388365},{"NoteNumber":68,"Velocity":56,"Duration":89153,"SoundDuration":89153,"Delta":297388365},{"NoteNumber":38,"Velocity":47,"Duration":89153,"SoundDuration":89153,"Delta":297388365},{"NoteNumber":50,"Velocity":56,"Duration":89153,"SoundDuration":89153,"Delta":297388365},{"NoteNumber":41,"Velocity":47,"Duration":89153,"SoundDuration":89153,"Delta":297388365},{"NoteNumber":72,"Velocity":70,"Duration":729484,"SoundDuration":729484,"Delta":297744977},{"NoteNumber":81,"Velocity":83,"Duration":729484,"SoundDuration":729484,"Delta":297744977},{"NoteNumber":69,"Velocity":70,"Duration":729484,"SoundDuration":729484,"Delta":297744977},{"NoteNumber":57,"Velocity":70,"Duration":729484,"SoundDuration":729484,"Delta":297744977},{"NoteNumber":52,"Velocity":59,"Duration":729484,"SoundDuration":729484,"Delta":297744977},{"NoteNumber":45,"Velocity":59,"Duration":729484,"SoundDuration":729484,"Delta":297744977},{"NoteNumber":93,"Velocity":75,"Duration":82873,"SoundDuration":82873,"Delta":298474461},{"NoteNumber":81,"Velocity":63,"Duration":82873,"SoundDuration":82873,"Delta":298474461},{"NoteNumber":95,"Velocity":79,"Duration":82873,"SoundDuration":82873,"Delta":298640207},{"NoteNumber":83,"Velocity":67,"Duration":82873,"SoundDuration":82873,"Delta":298640207},{"NoteNumber":96,"Velocity":82,"Duration":512170,"SoundDuration":512170,"Delta":298805953},{"NoteNumber":84,"Velocity":69,"Duration":512170,"SoundDuration":512170,"Delta":298805953},{"NoteNumber":57,"Velocity":63,"Duration":85714,"SoundDuration":85714,"Delta":298805953},{"NoteNumber":69,"Velocity":75,"Duration":85714,"SoundDuration":85714,"Delta":298805953},{"NoteNumber":71,"Velocity":79,"Duration":86455,"SoundDuration":86455,"Delta":298977381},{"NoteNumber":59,"Velocity":67,"Duration":86455,"SoundDuration":86455,"Delta":298977381},{"NoteNumber":72,"Velocity":82,"Duration":488733,"SoundDuration":488733,"Delta":299150292},{"NoteNumber":60,"Velocity":69,"Duration":488733,"SoundDuration":488733,"Delta":299150292},{"NoteNumber":95,"Velocity":74,"Duration":79260,"SoundDuration":79260,"Delta":299318124},{"NoteNumber":83,"Velocity":62,"Duration":79260,"SoundDuration":79260,"Delta":299318124},{"NoteNumber":93,"Velocity":83,"Duration":502349,"SoundDuration":502349,"Delta":299476644},{"NoteNumber":81,"Velocity":70,"Duration":502349,"SoundDuration":502349,"Delta":299476644},{"NoteNumber":71,"Velocity":74,"Duration":84269,"SoundDuration":84269,"Delta":299639026},{"NoteNumber":59,"Velocity":62,"Duration":84269,"SoundDuration":84269,"Delta":299639026},{"NoteNumber":69,"Velocity":83,"Duration":500396,"SoundDuration":500396,"Delta":299807565},{"NoteNumber":57,"Velocity":70,"Duration":500396,"SoundDuration":500396,"Delta":299807565},{"NoteNumber":91,"Velocity":75,"Duration":80214,"SoundDuration":80214,"Delta":299978994},{"NoteNumber":79,"Velocity":63,"Duration":80214,"SoundDuration":80214,"Delta":299978994},{"NoteNumber":89,"Velocity":84,"Duration":505618,"SoundDuration":505618,"Delta":300139422},{"NoteNumber":77,"Velocity":71,"Duration":505618,"SoundDuration":505618,"Delta":300139422},{"NoteNumber":55,"Velocity":63,"Duration":84269,"SoundDuration":84269,"Delta":300307961},{"NoteNumber":67,"Velocity":75,"Duration":84269,"SoundDuration":84269,"Delta":300307961},{"NoteNumber":53,"Velocity":71,"Duration":496098,"SoundDuration":496098,"Delta":300476501},{"NoteNumber":65,"Velocity":84,"Duration":496098,"SoundDuration":496098,"Delta":300476501},{"NoteNumber":88,"Velocity":81,"Duration":80214,"SoundDuration":80214,"Delta":300645040},{"NoteNumber":76,"Velocity":68,"Duration":80214,"SoundDuration":80214,"Delta":300645040},{"NoteNumber":86,"Velocity":81,"Duration":83565,"SoundDuration":83565,"Delta":300805468},{"NoteNumber":74,"Velocity":68,"Duration":83565,"SoundDuration":83565,"Delta":300805468},{"NoteNumber":85,"Velocity":81,"Duration":87209,"SoundDuration":87209,"Delta":300972599},{"NoteNumber":73,"Velocity":68,"Duration":87209,"SoundDuration":87209,"Delta":300972599},{"NoteNumber":64,"Velocity":75,"Duration":87209,"SoundDuration":87209,"Delta":300972599},{"NoteNumber":52,"Velocity":75,"Duration":87209,"SoundDuration":87209,"Delta":300972599},{"NoteNumber":77,"Velocity":76,"Duration":168539,"SoundDuration":168539,"Delta":301147018},{"NoteNumber":74,"Velocity":76,"Duration":168539,"SoundDuration":168539,"Delta":301147018},{"NoteNumber":86,"Velocity":90,"Duration":168539,"SoundDuration":168539,"Delta":301147018},{"NoteNumber":50,"Velocity":59,"Duration":168539,"SoundDuration":168539,"Delta":301147018},{"NoteNumber":62,"Velocity":70,"Duration":168539,"SoundDuration":168539,"Delta":301147018},{"NoteNumber":76,"Velocity":63,"Duration":80862,"SoundDuration":80862,"Delta":301484097},{"NoteNumber":73,"Velocity":63,"Duration":80862,"SoundDuration":80862,"Delta":301484097},{"NoteNumber":85,"Velocity":74,"Duration":80862,"SoundDuration":80862,"Delta":301484097},{"NoteNumber":46,"Velocity":47,"Duration":80862,"SoundDuration":80862,"Delta":301484097},{"NoteNumber":58,"Velocity":56,"Duration":80862,"SoundDuration":80862,"Delta":301484097},{"NoteNumber":76,"Velocity":57,"Duration":86830,"SoundDuration":86830,"Delta":301645822},{"NoteNumber":88,"Velocity":68,"Duration":86830,"SoundDuration":86830,"Delta":301645822},{"NoteNumber":79,"Velocity":57,"Duration":86830,"SoundDuration":86830,"Delta":301645822},{"NoteNumber":74,"Velocity":71,"Duration":168539,"SoundDuration":168539,"Delta":301819483},{"NoteNumber":86,"Velocity":84,"Duration":168539,"SoundDuration":168539,"Delta":301819483},{"NoteNumber":77,"Velocity":71,"Duration":168539,"SoundDuration":168539,"Delta":301819483},{"NoteNumber":50,"Velocity":59,"Duration":168539,"SoundDuration":168539,"Delta":301819483},{"NoteNumber":62,"Velocity":70,"Duration":168539,"SoundDuration":168539,"Delta":301819483},{"NoteNumber":76,"Velocity":61,"Duration":81190,"SoundDuration":81190,"Delta":302156562},{"NoteNumber":73,"Velocity":61,"Duration":81190,"SoundDuration":81190,"Delta":302156562},{"NoteNumber":85,"Velocity":72,"Duration":81190,"SoundDuration":81190,"Delta":302156562},{"NoteNumber":45,"Velocity":47,"Duration":81190,"SoundDuration":81190,"Delta":302156562},{"NoteNumber":57,"Velocity":56,"Duration":81190,"SoundDuration":81190,"Delta":302156562},{"NoteNumber":79,"Velocity":56,"Duration":90361,"SoundDuration":90361,"Delta":302318944},{"NoteNumber":88,"Velocity":67,"Duration":90361,"SoundDuration":90361,"Delta":302318944},{"NoteNumber":76,"Velocity":56,"Duration":90361,"SoundDuration":90361,"Delta":302318944},{"NoteNumber":74,"Velocity":71,"Duration":88365,"SoundDuration":88365,"Delta":302499667},{"NoteNumber":86,"Velocity":84,"Duration":88365,"SoundDuration":88365,"Delta":302499667},{"NoteNumber":77,"Velocity":71,"Duration":88365,"SoundDuration":88365,"Delta":302499667},{"NoteNumber":50,"Velocity":59,"Duration":88365,"SoundDuration":88365,"Delta":302499667},{"NoteNumber":62,"Velocity":70,"Duration":88365,"SoundDuration":88365,"Delta":302499667},{"NoteNumber":76,"Velocity":56,"Duration":89153,"SoundDuration":89153,"Delta":302853128},{"NoteNumber":73,"Velocity":56,"Duration":89153,"SoundDuration":89153,"Delta":302853128},{"NoteNumber":85,"Velocity":67,"Duration":89153,"SoundDuration":89153,"Delta":302853128},{"NoteNumber":46,"Velocity":47,"Duration":89153,"SoundDuration":89153,"Delta":302853128},{"NoteNumber":55,"Velocity":56,"Duration":89153,"SoundDuration":89153,"Delta":302853128},{"NoteNumber":43,"Velocity":47,"Duration":89153,"SoundDuration":89153,"Delta":302853128},{"NoteNumber":74,"Velocity":70,"Duration":736196,"SoundDuration":736196,"Delta":303209740},{"NoteNumber":77,"Velocity":70,"Duration":736196,"SoundDuration":736196,"Delta":303209740},{"NoteNumber":86,"Velocity":83,"Duration":736196,"SoundDuration":736196,"Delta":303209740},{"NoteNumber":50,"Velocity":59,"Duration":736196,"SoundDuration":736196,"Delta":303209740},{"NoteNumber":57,"Velocity":59,"Duration":736196,"SoundDuration":736196,"Delta":303209740},{"NoteNumber":62,"Velocity":70,"Duration":736196,"SoundDuration":736196,"Delta":303209740},{"NoteNumber":98,"Velocity":75,"Duration":83565,"SoundDuration":83565,"Delta":303945936},{"NoteNumber":86,"Velocity":63,"Duration":83565,"SoundDuration":83565,"Delta":303945936},{"NoteNumber":100,"Velocity":79,"Duration":83565,"SoundDuration":83565,"Delta":304113067},{"NoteNumber":88,"Velocity":67,"Duration":83565,"SoundDuration":83565,"Delta":304113067},{"NoteNumber":101,"Velocity":82,"Duration":511512,"SoundDuration":511512,"Delta":304280198},{"NoteNumber":89,"Velocity":69,"Duration":511512,"SoundDuration":511512,"Delta":304280198},{"NoteNumber":62,"Velocity":63,"Duration":86083,"SoundDuration":86083,"Delta":304280198},{"NoteNumber":74,"Velocity":75,"Duration":86083,"SoundDuration":86083,"Delta":304280198},{"NoteNumber":64,"Velocity":67,"Duration":86455,"SoundDuration":86455,"Delta":304452364},{"NoteNumber":76,"Velocity":79,"Duration":86455,"SoundDuration":86455,"Delta":304452364},{"NoteNumber":65,"Velocity":69,"Duration":493944,"SoundDuration":493944,"Delta":304625275},{"NoteNumber":77,"Velocity":82,"Duration":493944,"SoundDuration":493944,"Delta":304625275},{"NoteNumber":100,"Velocity":74,"Duration":80536,"SoundDuration":80536,"Delta":304791710},{"NoteNumber":88,"Velocity":62,"Duration":80536,"SoundDuration":80536,"Delta":304791710},{"NoteNumber":98,"Velocity":83,"Duration":507885,"SoundDuration":507885,"Delta":304952784},{"NoteNumber":86,"Velocity":70,"Duration":507885,"SoundDuration":507885,"Delta":304952784},{"NoteNumber":64,"Velocity":62,"Duration":86455,"SoundDuration":86455,"Delta":305119220},{"NoteNumber":76,"Velocity":74,"Duration":86455,"SoundDuration":86455,"Delta":305119220},{"NoteNumber":74,"Velocity":83,"Duration":500961,"SoundDuration":500961,"Delta":305292130},{"NoteNumber":62,"Velocity":70,"Duration":500961,"SoundDuration":500961,"Delta":305292130},{"NoteNumber":96,"Velocity":75,"Duration":80862,"SoundDuration":80862,"Delta":305460670},{"NoteNumber":84,"Velocity":63,"Duration":80862,"SoundDuration":80862,"Delta":305460670},{"NoteNumber":95,"Velocity":84,"Duration":512090,"SoundDuration":512090,"Delta":305622395},{"NoteNumber":83,"Velocity":71,"Duration":512090,"SoundDuration":512090,"Delta":305622395},{"NoteNumber":72,"Velocity":75,"Duration":85348,"SoundDuration":85348,"Delta":305793092},{"NoteNumber":60,"Velocity":63,"Duration":85348,"SoundDuration":85348,"Delta":305793092},{"NoteNumber":71,"Velocity":84,"Duration":502947,"SoundDuration":502947,"Delta":305963789},{"NoteNumber":59,"Velocity":71,"Duration":502947,"SoundDuration":502947,"Delta":305963789},{"NoteNumber":93,"Velocity":77,"Duration":81855,"SoundDuration":81855,"Delta":306134486},{"NoteNumber":81,"Velocity":65,"Duration":81855,"SoundDuration":81855,"Delta":306134486},{"NoteNumber":92,"Velocity":77,"Duration":84269,"SoundDuration":84269,"Delta":306298197},{"NoteNumber":80,"Velocity":65,"Duration":84269,"SoundDuration":84269,"Delta":306298197},{"NoteNumber":93,"Velocity":77,"Duration":86455,"SoundDuration":86455,"Delta":306466736},{"NoteNumber":81,"Velocity":65,"Duration":86455,"SoundDuration":86455,"Delta":306466736},{"NoteNumber":69,"Velocity":70,"Duration":86455,"SoundDuration":86455,"Delta":306466736},{"NoteNumber":57,"Velocity":59,"Duration":86455,"SoundDuration":86455,"Delta":306466736},{"NoteNumber":92,"Velocity":79,"Duration":82873,"SoundDuration":82873,"Delta":306639647},{"NoteNumber":80,"Velocity":67,"Duration":82873,"SoundDuration":82873,"Delta":306639647},{"NoteNumber":56,"Velocity":61,"Duration":82873,"SoundDuration":82873,"Delta":306639647},{"NoteNumber":68,"Velocity":72,"Duration":82873,"SoundDuration":82873,"Delta":306639647},{"NoteNumber":95,"Velocity":84,"Duration":82873,"SoundDuration":82873,"Delta":306805393},{"NoteNumber":83,"Velocity":71,"Duration":82873,"SoundDuration":82873,"Delta":306805393},{"NoteNumber":59,"Velocity":65,"Duration":82873,"SoundDuration":82873,"Delta":306805393},{"NoteNumber":71,"Velocity":77,"Duration":82873,"SoundDuration":82873,"Delta":306805393},{"NoteNumber":100,"Velocity":88,"Duration":161724,"SoundDuration":161724,"Delta":306971139},{"NoteNumber":88,"Velocity":74,"Duration":161724,"SoundDuration":161724,"Delta":306971139},{"NoteNumber":64,"Velocity":68,"Duration":161724,"SoundDuration":161724,"Delta":306971139},{"NoteNumber":76,"Velocity":81,"Duration":161724,"SoundDuration":161724,"Delta":306971139},{"NoteNumber":64,"Velocity":86,"Duration":694646,"SoundDuration":694646,"Delta":307306525},{"NoteNumber":56,"Velocity":73,"Duration":694646,"SoundDuration":694646,"Delta":307306525},{"NoteNumber":59,"Velocity":73,"Duration":694646,"SoundDuration":694646,"Delta":307306525},{"NoteNumber":40,"Velocity":59,"Duration":694646,"SoundDuration":694646,"Delta":307306525},{"NoteNumber":52,"Velocity":70,"Duration":694646,"SoundDuration":694646,"Delta":307306525},{"NoteNumber":44,"Velocity":59,"Duration":694646,"SoundDuration":694646,"Delta":307306525},{"NoteNumber":47,"Velocity":59,"Duration":694646,"SoundDuration":694646,"Delta":307306525},{"NoteNumber":93,"Velocity":79,"Duration":82873,"SoundDuration":82873,"Delta":308001171},{"NoteNumber":81,"Velocity":67,"Duration":82873,"SoundDuration":82873,"Delta":308001171},{"NoteNumber":69,"Velocity":72,"Duration":82873,"SoundDuration":82873,"Delta":308001171},{"NoteNumber":57,"Velocity":61,"Duration":82873,"SoundDuration":82873,"Delta":308001171},{"NoteNumber":96,"Velocity":84,"Duration":82873,"SoundDuration":82873,"Delta":308166917},{"NoteNumber":84,"Velocity":71,"Duration":82873,"SoundDuration":82873,"Delta":308166917},{"NoteNumber":72,"Velocity":77,"Duration":82873,"SoundDuration":82873,"Delta":308166917},{"NoteNumber":60,"Velocity":65,"Duration":82873,"SoundDuration":82873,"Delta":308166917},{"NoteNumber":100,"Velocity":88,"Duration":161073,"SoundDuration":161073,"Delta":308332663},{"NoteNumber":88,"Velocity":74,"Duration":161073,"SoundDuration":161073,"Delta":308332663},{"NoteNumber":76,"Velocity":81,"Duration":161073,"SoundDuration":161073,"Delta":308332663},{"NoteNumber":64,"Velocity":68,"Duration":161073,"SoundDuration":161073,"Delta":308332663},{"NoteNumber":64,"Velocity":86,"Duration":697674,"SoundDuration":697674,"Delta":308668156},{"NoteNumber":57,"Velocity":73,"Duration":697674,"SoundDuration":697674,"Delta":308668156},{"NoteNumber":60,"Velocity":73,"Duration":697674,"SoundDuration":697674,"Delta":308668156},{"NoteNumber":52,"Velocity":70,"Duration":697674,"SoundDuration":697674,"Delta":308668156},{"NoteNumber":45,"Velocity":59,"Duration":697674,"SoundDuration":697674,"Delta":308668156},{"NoteNumber":48,"Velocity":59,"Duration":697674,"SoundDuration":697674,"Delta":308668156},{"NoteNumber":40,"Velocity":59,"Duration":697674,"SoundDuration":697674,"Delta":308668156},{"NoteNumber":80,"Velocity":73,"Duration":77419,"SoundDuration":77419,"Delta":309365830},{"NoteNumber":71,"Velocity":62,"Duration":77419,"SoundDuration":77419,"Delta":309365830},{"NoteNumber":65,"Velocity":85,"Duration":309677,"SoundDuration":309677,"Delta":309365830},{"NoteNumber":83,"Velocity":65,"Duration":77419,"SoundDuration":77419,"Delta":309520668},{"NoteNumber":74,"Velocity":55,"Duration":77419,"SoundDuration":77419,"Delta":309520668},{"NoteNumber":80,"Velocity":73,"Duration":80862,"SoundDuration":80862,"Delta":309675507},{"NoteNumber":71,"Velocity":62,"Duration":80862,"SoundDuration":80862,"Delta":309675507},{"NoteNumber":64,"Velocity":73,"Duration":80862,"SoundDuration":80862,"Delta":309675507},{"NoteNumber":83,"Velocity":67,"Duration":91603,"SoundDuration":91603,"Delta":309837232},{"NoteNumber":74,"Velocity":56,"Duration":91603,"SoundDuration":91603,"Delta":309837232},{"NoteNumber":53,"Velocity":84,"Duration":335664,"SoundDuration":335664,"Delta":310020438},{"NoteNumber":47,"Velocity":73,"Duration":83915,"SoundDuration":83915,"Delta":310020438},{"NoteNumber":44,"Velocity":62,"Duration":83915,"SoundDuration":83915,"Delta":310020438},{"NoteNumber":50,"Velocity":66,"Duration":83916,"SoundDuration":83916,"Delta":310188270},{"NoteNumber":52,"Velocity":74,"Duration":83915,"SoundDuration":83915,"Delta":310356102},{"NoteNumber":44,"Velocity":62,"Duration":83915,"SoundDuration":83915,"Delta":310356102},{"NoteNumber":47,"Velocity":73,"Duration":83915,"SoundDuration":83915,"Delta":310356102},{"NoteNumber":50,"Velocity":64,"Duration":88757,"SoundDuration":88757,"Delta":310523934},{"NoteNumber":81,"Velocity":73,"Duration":77419,"SoundDuration":77419,"Delta":310701449},{"NoteNumber":72,"Velocity":62,"Duration":77419,"SoundDuration":77419,"Delta":310701449},{"NoteNumber":65,"Velocity":85,"Duration":309677,"SoundDuration":309677,"Delta":310701449},{"NoteNumber":84,"Velocity":65,"Duration":77419,"SoundDuration":77419,"Delta":310856287},{"NoteNumber":76,"Velocity":55,"Duration":77419,"SoundDuration":77419,"Delta":310856287},{"NoteNumber":81,"Velocity":73,"Duration":78947,"SoundDuration":78947,"Delta":311011126},{"NoteNumber":72,"Velocity":62,"Duration":78947,"SoundDuration":78947,"Delta":311011126},{"NoteNumber":64,"Velocity":73,"Duration":78947,"SoundDuration":78947,"Delta":311011126},{"NoteNumber":84,"Velocity":67,"Duration":89552,"SoundDuration":89552,"Delta":311169020},{"NoteNumber":76,"Velocity":56,"Duration":89552,"SoundDuration":89552,"Delta":311169020},{"NoteNumber":53,"Velocity":84,"Duration":330124,"SoundDuration":330124,"Delta":311348125},{"NoteNumber":45,"Velocity":73,"Duration":82531,"SoundDuration":82531,"Delta":311348125},{"NoteNumber":48,"Velocity":66,"Duration":82531,"SoundDuration":82531,"Delta":311513187},{"NoteNumber":52,"Velocity":74,"Duration":82530,"SoundDuration":82530,"Delta":311678249},{"NoteNumber":45,"Velocity":73,"Duration":82530,"SoundDuration":82530,"Delta":311678249},{"NoteNumber":48,"Velocity":64,"Duration":88757,"SoundDuration":88757,"Delta":311843311},{"NoteNumber":95,"Velocity":87,"Duration":178225,"SoundDuration":178225,"Delta":312019247},{"NoteNumber":101,"Velocity":87,"Duration":178225,"SoundDuration":178225,"Delta":312019247},{"NoteNumber":89,"Velocity":73,"Duration":178225,"SoundDuration":178225,"Delta":312019247},{"NoteNumber":92,"Velocity":73,"Duration":178225,"SoundDuration":178225,"Delta":312019247},{"NoteNumber":65,"Velocity":51,"Duration":178225,"SoundDuration":178225,"Delta":312019247},{"NoteNumber":77,"Velocity":60,"Duration":178225,"SoundDuration":178225,"Delta":312019247},{"NoteNumber":71,"Velocity":51,"Duration":178225,"SoundDuration":178225,"Delta":312019247},{"NoteNumber":68,"Velocity":51,"Duration":178225,"SoundDuration":178225,"Delta":312019247},{"NoteNumber":100,"Velocity":86,"Duration":179282,"SoundDuration":179282,"Delta":312181234},{"NoteNumber":88,"Velocity":73,"Duration":179282,"SoundDuration":179282,"Delta":312181234},{"NoteNumber":76,"Velocity":60,"Duration":179282,"SoundDuration":179282,"Delta":312181234},{"NoteNumber":64,"Velocity":51,"Duration":179282,"SoundDuration":179282,"Delta":312181234},{"NoteNumber":98,"Velocity":84,"Duration":180418,"SoundDuration":180418,"Delta":312344146},{"NoteNumber":86,"Velocity":71,"Duration":180418,"SoundDuration":180418,"Delta":312344146},{"NoteNumber":74,"Velocity":58,"Duration":180418,"SoundDuration":180418,"Delta":312344146},{"NoteNumber":62,"Velocity":49,"Duration":180418,"SoundDuration":180418,"Delta":312344146},{"NoteNumber":96,"Velocity":83,"Duration":181501,"SoundDuration":181501,"Delta":312508126},{"NoteNumber":84,"Velocity":70,"Duration":181501,"SoundDuration":181501,"Delta":312508126},{"NoteNumber":72,"Velocity":58,"Duration":181501,"SoundDuration":181501,"Delta":312508126},{"NoteNumber":60,"Velocity":49,"Duration":181501,"SoundDuration":181501,"Delta":312508126},{"NoteNumber":95,"Velocity":81,"Duration":182665,"SoundDuration":182665,"Delta":312673053},{"NoteNumber":83,"Velocity":68,"Duration":182665,"SoundDuration":182665,"Delta":312673053},{"NoteNumber":71,"Velocity":56,"Duration":182665,"SoundDuration":182665,"Delta":312673053},{"NoteNumber":59,"Velocity":47,"Duration":182665,"SoundDuration":182665,"Delta":312673053},{"NoteNumber":93,"Velocity":80,"Duration":183775,"SoundDuration":183775,"Delta":312839075},{"NoteNumber":81,"Velocity":68,"Duration":183775,"SoundDuration":183775,"Delta":312839075},{"NoteNumber":69,"Velocity":56,"Duration":183775,"SoundDuration":183775,"Delta":312839075},{"NoteNumber":57,"Velocity":47,"Duration":183775,"SoundDuration":183775,"Delta":312839075},{"NoteNumber":92,"Velocity":79,"Duration":184968,"SoundDuration":184968,"Delta":313006067},{"NoteNumber":80,"Velocity":67,"Duration":184968,"SoundDuration":184968,"Delta":313006067},{"NoteNumber":68,"Velocity":55,"Duration":184968,"SoundDuration":184968,"Delta":313006067},{"NoteNumber":56,"Velocity":46,"Duration":184968,"SoundDuration":184968,"Delta":313006067},{"NoteNumber":88,"Velocity":77,"Duration":185222,"SoundDuration":185222,"Delta":313174182},{"NoteNumber":76,"Velocity":65,"Duration":185222,"SoundDuration":185222,"Delta":313174182},{"NoteNumber":64,"Velocity":53,"Duration":185222,"SoundDuration":185222,"Delta":313174182},{"NoteNumber":52,"Velocity":45,"Duration":185222,"SoundDuration":185222,"Delta":313174182},{"NoteNumber":89,"Velocity":80,"Duration":181376,"SoundDuration":181376,"Delta":313342967},{"NoteNumber":77,"Velocity":68,"Duration":181376,"SoundDuration":181376,"Delta":313342967},{"NoteNumber":80,"Velocity":68,"Duration":181376,"SoundDuration":181376,"Delta":313342967},{"NoteNumber":83,"Velocity":68,"Duration":181376,"SoundDuration":181376,"Delta":313342967},{"NoteNumber":59,"Velocity":50,"Duration":181376,"SoundDuration":181376,"Delta":313342967},{"NoteNumber":65,"Velocity":59,"Duration":181376,"SoundDuration":181376,"Delta":313342967},{"NoteNumber":53,"Velocity":50,"Duration":181376,"SoundDuration":181376,"Delta":313342967},{"NoteNumber":56,"Velocity":50,"Duration":181376,"SoundDuration":181376,"Delta":313342967},{"NoteNumber":88,"Velocity":77,"Duration":182884,"SoundDuration":182884,"Delta":313507769},{"NoteNumber":76,"Velocity":65,"Duration":182884,"SoundDuration":182884,"Delta":313507769},{"NoteNumber":52,"Velocity":49,"Duration":182884,"SoundDuration":182884,"Delta":313507769},{"NoteNumber":64,"Velocity":58,"Duration":182884,"SoundDuration":182884,"Delta":313507769},{"NoteNumber":86,"Velocity":75,"Duration":184417,"SoundDuration":184417,"Delta":313673940},{"NoteNumber":74,"Velocity":63,"Duration":184417,"SoundDuration":184417,"Delta":313673940},{"NoteNumber":62,"Velocity":56,"Duration":184417,"SoundDuration":184417,"Delta":313673940},{"NoteNumber":50,"Velocity":47,"Duration":184417,"SoundDuration":184417,"Delta":313673940},{"NoteNumber":84,"Velocity":73,"Duration":185709,"SoundDuration":185709,"Delta":313841504},{"NoteNumber":72,"Velocity":62,"Duration":185709,"SoundDuration":185709,"Delta":313841504},{"NoteNumber":60,"Velocity":55,"Duration":185709,"SoundDuration":185709,"Delta":313841504},{"NoteNumber":48,"Velocity":46,"Duration":185709,"SoundDuration":185709,"Delta":313841504},{"NoteNumber":83,"Velocity":72,"Duration":185920,"SoundDuration":185920,"Delta":314010431},{"NoteNumber":71,"Velocity":61,"Duration":185920,"SoundDuration":185920,"Delta":314010431},{"NoteNumber":59,"Velocity":53,"Duration":185920,"SoundDuration":185920,"Delta":314010431},{"NoteNumber":47,"Velocity":45,"Duration":185920,"SoundDuration":185920,"Delta":314010431},{"NoteNumber":81,"Velocity":70,"Duration":189086,"SoundDuration":189086,"Delta":314179312},{"NoteNumber":69,"Velocity":59,"Duration":189086,"SoundDuration":189086,"Delta":314179312},{"NoteNumber":57,"Velocity":51,"Duration":189086,"SoundDuration":189086,"Delta":314179312},{"NoteNumber":45,"Velocity":43,"Duration":189086,"SoundDuration":189086,"Delta":314179312},{"NoteNumber":80,"Velocity":68,"Duration":192042,"SoundDuration":192042,"Delta":314351064},{"NoteNumber":68,"Velocity":57,"Duration":192042,"SoundDuration":192042,"Delta":314351064},{"NoteNumber":44,"Velocity":42,"Duration":192042,"SoundDuration":192042,"Delta":314351064},{"NoteNumber":56,"Velocity":50,"Duration":192042,"SoundDuration":192042,"Delta":314351064},{"NoteNumber":76,"Velocity":67,"Duration":194653,"SoundDuration":194653,"Delta":314525511},{"NoteNumber":64,"Velocity":56,"Duration":194653,"SoundDuration":194653,"Delta":314525511},{"NoteNumber":40,"Velocity":40,"Duration":194653,"SoundDuration":194653,"Delta":314525511},{"NoteNumber":52,"Velocity":48,"Duration":194653,"SoundDuration":194653,"Delta":314525511},{"NoteNumber":77,"Velocity":71,"Duration":195266,"SoundDuration":195266,"Delta":314702413},{"NoteNumber":65,"Velocity":60,"Duration":195266,"SoundDuration":195266,"Delta":314702413},{"NoteNumber":41,"Velocity":45,"Duration":195266,"SoundDuration":195266,"Delta":314702413},{"NoteNumber":53,"Velocity":53,"Duration":195266,"SoundDuration":195266,"Delta":314702413},{"NoteNumber":75,"Velocity":64,"Duration":195266,"SoundDuration":195266,"Delta":314879928},{"NoteNumber":63,"Velocity":54,"Duration":195266,"SoundDuration":195266,"Delta":314879928},{"NoteNumber":39,"Velocity":40,"Duration":195266,"SoundDuration":195266,"Delta":314879928},{"NoteNumber":51,"Velocity":48,"Duration":195266,"SoundDuration":195266,"Delta":314879928},{"NoteNumber":76,"Velocity":69,"Duration":195266,"SoundDuration":195266,"Delta":315057443},{"NoteNumber":64,"Velocity":58,"Duration":195266,"SoundDuration":195266,"Delta":315057443},{"NoteNumber":40,"Velocity":43,"Duration":195266,"SoundDuration":195266,"Delta":315057443},{"NoteNumber":52,"Velocity":51,"Duration":195266,"SoundDuration":195266,"Delta":315057443},{"NoteNumber":74,"Velocity":65,"Duration":195385,"SoundDuration":195385,"Delta":315234958},{"NoteNumber":62,"Velocity":55,"Duration":195385,"SoundDuration":195385,"Delta":315234958},{"NoteNumber":50,"Velocity":48,"Duration":195385,"SoundDuration":195385,"Delta":315234958},{"NoteNumber":38,"Velocity":41,"Duration":195385,"SoundDuration":195385,"Delta":315234958},{"NoteNumber":75,"Velocity":69,"Duration":196136,"SoundDuration":196136,"Delta":315412513},{"NoteNumber":63,"Velocity":58,"Duration":196136,"SoundDuration":196136,"Delta":315412513},{"NoteNumber":51,"Velocity":51,"Duration":196136,"SoundDuration":196136,"Delta":315412513},{"NoteNumber":39,"Velocity":43,"Duration":196136,"SoundDuration":196136,"Delta":315412513},{"NoteNumber":73,"Velocity":66,"Duration":196136,"SoundDuration":196136,"Delta":315590819},{"NoteNumber":61,"Velocity":56,"Duration":196136,"SoundDuration":196136,"Delta":315590819},{"NoteNumber":49,"Velocity":49,"Duration":196136,"SoundDuration":196136,"Delta":315590819},{"NoteNumber":37,"Velocity":42,"Duration":196136,"SoundDuration":196136,"Delta":315590819},{"NoteNumber":74,"Velocity":73,"Duration":196136,"SoundDuration":196136,"Delta":315769125},{"NoteNumber":62,"Velocity":62,"Duration":196136,"SoundDuration":196136,"Delta":315769125},{"NoteNumber":50,"Velocity":55,"Duration":196136,"SoundDuration":196136,"Delta":315769125},{"NoteNumber":38,"Velocity":45,"Duration":196136,"SoundDuration":196136,"Delta":315769125},{"NoteNumber":72,"Velocity":69,"Duration":178493,"SoundDuration":178493,"Delta":315947431},{"NoteNumber":60,"Velocity":58,"Duration":178493,"SoundDuration":178493,"Delta":315947431},{"NoteNumber":48,"Velocity":52,"Duration":178493,"SoundDuration":178493,"Delta":315947431},{"NoteNumber":36,"Velocity":42,"Duration":178493,"SoundDuration":178493,"Delta":315947431},{"NoteNumber":73,"Velocity":77,"Duration":182332,"SoundDuration":182332,"Delta":316125924},{"NoteNumber":61,"Velocity":64,"Duration":182332,"SoundDuration":182332,"Delta":316125924},{"NoteNumber":49,"Velocity":57,"Duration":182332,"SoundDuration":182332,"Delta":316125924},{"NoteNumber":37,"Velocity":48,"Duration":182332,"SoundDuration":182332,"Delta":316125924},{"NoteNumber":71,"Velocity":72,"Duration":185117,"SoundDuration":185117,"Delta":316308256},{"NoteNumber":59,"Velocity":60,"Duration":185117,"SoundDuration":185117,"Delta":316308256},{"NoteNumber":47,"Velocity":53,"Duration":185117,"SoundDuration":185117,"Delta":316308256},{"NoteNumber":35,"Velocity":45,"Duration":185117,"SoundDuration":185117,"Delta":316308256},{"NoteNumber":72,"Velocity":83,"Duration":187724,"SoundDuration":187724,"Delta":316493374},{"NoteNumber":60,"Velocity":71,"Duration":187724,"SoundDuration":187724,"Delta":316493374},{"NoteNumber":48,"Velocity":61,"Duration":187724,"SoundDuration":187724,"Delta":316493374},{"NoteNumber":36,"Velocity":52,"Duration":187724,"SoundDuration":187724,"Delta":316493374},{"NoteNumber":70,"Velocity":78,"Duration":190667,"SoundDuration":190667,"Delta":316681098},{"NoteNumber":58,"Velocity":67,"Duration":190667,"SoundDuration":190667,"Delta":316681098},{"NoteNumber":34,"Velocity":49,"Duration":190667,"SoundDuration":190667,"Delta":316681098},{"NoteNumber":46,"Velocity":58,"Duration":190667,"SoundDuration":190667,"Delta":316681098},{"NoteNumber":71,"Velocity":89,"Duration":197201,"SoundDuration":197201,"Delta":316871766},{"NoteNumber":59,"Velocity":74,"Duration":197201,"SoundDuration":197201,"Delta":316871766},{"NoteNumber":35,"Velocity":56,"Duration":197201,"SoundDuration":197201,"Delta":316871766},{"NoteNumber":47,"Velocity":65,"Duration":197201,"SoundDuration":197201,"Delta":316871766},{"NoteNumber":69,"Velocity":86,"Duration":210301,"SoundDuration":210301,"Delta":317068968},{"NoteNumber":57,"Velocity":73,"Duration":210301,"SoundDuration":210301,"Delta":317068968},{"NoteNumber":33,"Velocity":54,"Duration":210301,"SoundDuration":210301,"Delta":317068968},{"NoteNumber":45,"Velocity":63,"Duration":210301,"SoundDuration":210301,"Delta":317068968},{"NoteNumber":70,"Velocity":96,"Duration":231782,"SoundDuration":231782,"Delta":317279269},{"NoteNumber":58,"Velocity":81,"Duration":231782,"SoundDuration":231782,"Delta":317279269},{"NoteNumber":34,"Velocity":60,"Duration":231782,"SoundDuration":231782,"Delta":317279269},{"NoteNumber":46,"Velocity":72,"Duration":231782,"SoundDuration":231782,"Delta":317279269},{"NoteNumber":68,"Velocity":94,"Duration":312019,"SoundDuration":312019,"Delta":317511051},{"NoteNumber":56,"Velocity":79,"Duration":312019,"SoundDuration":312019,"Delta":317511051},{"NoteNumber":32,"Velocity":59,"Duration":312019,"SoundDuration":312019,"Delta":317511051},{"NoteNumber":44,"Velocity":70,"Duration":312019,"SoundDuration":312019,"Delta":317511051},{"NoteNumber":93,"Velocity":108,"Duration":738427,"SoundDuration":738427,"Delta":317823070},{"NoteNumber":81,"Velocity":91,"Duration":738427,"SoundDuration":738427,"Delta":317823070},{"NoteNumber":85,"Velocity":91,"Duration":738427,"SoundDuration":738427,"Delta":317823070},{"NoteNumber":33,"Velocity":66,"Duration":738427,"SoundDuration":738427,"Delta":317823070},{"NoteNumber":40,"Velocity":66,"Duration":738427,"SoundDuration":738427,"Delta":317823070},{"NoteNumber":45,"Velocity":80,"Duration":738427,"SoundDuration":738427,"Delta":317823070},{"NoteNumber":69,"Velocity":88,"Duration":165746,"SoundDuration":165746,"Delta":318203419},{"NoteNumber":61,"Velocity":74,"Duration":165746,"SoundDuration":165746,"Delta":318203419},{"NoteNumber":64,"Velocity":74,"Duration":165746,"SoundDuration":165746,"Delta":318203419},{"NoteNumber":49,"Velocity":57,"Duration":165746,"SoundDuration":165746,"Delta":318203419},{"NoteNumber":57,"Velocity":67,"Duration":165746,"SoundDuration":165746,"Delta":318203419},{"NoteNumber":52,"Velocity":57,"Duration":165746,"SoundDuration":165746,"Delta":318203419},{"NoteNumber":69,"Velocity":88,"Duration":192332,"SoundDuration":192332,"Delta":318369165},{"NoteNumber":61,"Velocity":74,"Duration":192332,"SoundDuration":192332,"Delta":318369165},{"NoteNumber":64,"Velocity":74,"Duration":192332,"SoundDuration":192332,"Delta":318369165},{"NoteNumber":57,"Velocity":67,"Duration":192332,"SoundDuration":192332,"Delta":318369165},{"NoteNumber":52,"Velocity":57,"Duration":192332,"SoundDuration":192332,"Delta":318369165},{"NoteNumber":49,"Velocity":57,"Duration":192332,"SoundDuration":192332,"Delta":318369165},{"NoteNumber":69,"Velocity":97,"Duration":186624,"SoundDuration":186624,"Delta":318561497},{"NoteNumber":61,"Velocity":82,"Duration":186624,"SoundDuration":186624,"Delta":318561497},{"NoteNumber":64,"Velocity":82,"Duration":186624,"SoundDuration":186624,"Delta":318561497},{"NoteNumber":49,"Velocity":61,"Duration":186624,"SoundDuration":186624,"Delta":318561497},{"NoteNumber":52,"Velocity":61,"Duration":186624,"SoundDuration":186624,"Delta":318561497},{"NoteNumber":57,"Velocity":73,"Duration":186624,"SoundDuration":186624,"Delta":318561497},{"NoteNumber":92,"Velocity":101,"Duration":176730,"SoundDuration":176730,"Delta":318934747},{"NoteNumber":80,"Velocity":84,"Duration":176730,"SoundDuration":176730,"Delta":318934747},{"NoteNumber":83,"Velocity":84,"Duration":176730,"SoundDuration":176730,"Delta":318934747},{"NoteNumber":50,"Velocity":56,"Duration":176730,"SoundDuration":176730,"Delta":318934747},{"NoteNumber":62,"Velocity":66,"Duration":176730,"SoundDuration":176730,"Delta":318934747},{"NoteNumber":53,"Velocity":56,"Duration":176730,"SoundDuration":176730,"Delta":318934747},{"NoteNumber":95,"Velocity":101,"Duration":188150,"SoundDuration":188150,"Delta":319111478},{"NoteNumber":83,"Velocity":84,"Duration":188150,"SoundDuration":188150,"Delta":319111478},{"NoteNumber":86,"Velocity":84,"Duration":188150,"SoundDuration":188150,"Delta":319111478},{"NoteNumber":93,"Velocity":108,"Duration":186624,"SoundDuration":186624,"Delta":319299628},{"NoteNumber":81,"Velocity":92,"Duration":186624,"SoundDuration":186624,"Delta":319299628},{"NoteNumber":85,"Velocity":92,"Duration":186624,"SoundDuration":186624,"Delta":319299628},{"NoteNumber":57,"Velocity":80,"Duration":186624,"SoundDuration":186624,"Delta":319299628},{"NoteNumber":49,"Velocity":67,"Duration":186624,"SoundDuration":186624,"Delta":319299628},{"NoteNumber":45,"Velocity":67,"Duration":186624,"SoundDuration":186624,"Delta":319299628},{"NoteNumber":52,"Velocity":67,"Duration":186624,"SoundDuration":186624,"Delta":319299628},{"NoteNumber":92,"Velocity":101,"Duration":173661,"SoundDuration":173661,"Delta":319672878},{"NoteNumber":80,"Velocity":84,"Duration":173661,"SoundDuration":173661,"Delta":319672878},{"NoteNumber":83,"Velocity":84,"Duration":173661,"SoundDuration":173661,"Delta":319672878},{"NoteNumber":41,"Velocity":58,"Duration":173661,"SoundDuration":173661,"Delta":319672878},{"NoteNumber":50,"Velocity":69,"Duration":173661,"SoundDuration":173661,"Delta":319672878},{"NoteNumber":38,"Velocity":58,"Duration":173661,"SoundDuration":173661,"Delta":319672878},{"NoteNumber":95,"Velocity":101,"Duration":182887,"SoundDuration":182887,"Delta":319846540},{"NoteNumber":83,"Velocity":84,"Duration":182887,"SoundDuration":182887,"Delta":319846540},{"NoteNumber":86,"Velocity":84,"Duration":182887,"SoundDuration":182887,"Delta":319846540},{"NoteNumber":93,"Velocity":108,"Duration":182370,"SoundDuration":182370,"Delta":320029427},{"NoteNumber":81,"Velocity":92,"Duration":182370,"SoundDuration":182370,"Delta":320029427},{"NoteNumber":85,"Velocity":92,"Duration":182370,"SoundDuration":182370,"Delta":320029427},{"NoteNumber":40,"Velocity":58,"Duration":182370,"SoundDuration":182370,"Delta":320029427},{"NoteNumber":45,"Velocity":69,"Duration":182370,"SoundDuration":182370,"Delta":320029427},{"NoteNumber":33,"Velocity":58,"Duration":182370,"SoundDuration":182370,"Delta":320029427},{"NoteNumber":37,"Velocity":58,"Duration":182370,"SoundDuration":182370,"Delta":320029427},{"NoteNumber":93,"Velocity":103,"Duration":199666,"SoundDuration":199666,"Delta":320394169},{"NoteNumber":81,"Velocity":86,"Duration":199666,"SoundDuration":199666,"Delta":320394169},{"NoteNumber":85,"Velocity":86,"Duration":199666,"SoundDuration":199666,"Delta":320394169},{"NoteNumber":42,"Velocity":59,"Duration":199666,"SoundDuration":199666,"Delta":320394169},{"NoteNumber":54,"Velocity":71,"Duration":199666,"SoundDuration":199666,"Delta":320394169},{"NoteNumber":97,"Velocity":105,"Duration":746024,"SoundDuration":746024,"Delta":320793503},{"NoteNumber":85,"Velocity":89,"Duration":746024,"SoundDuration":746024,"Delta":320793503},{"NoteNumber":89,"Velocity":89,"Duration":746024,"SoundDuration":746024,"Delta":320793503},{"NoteNumber":37,"Velocity":64,"Duration":746024,"SoundDuration":746024,"Delta":320793503},{"NoteNumber":44,"Velocity":64,"Duration":746024,"SoundDuration":746024,"Delta":320793503},{"NoteNumber":49,"Velocity":78,"Duration":746024,"SoundDuration":746024,"Delta":320793503},{"NoteNumber":73,"Velocity":88,"Duration":165061,"SoundDuration":165061,"Delta":321181225},{"NoteNumber":65,"Velocity":74,"Duration":165061,"SoundDuration":165061,"Delta":321181225},{"NoteNumber":68,"Velocity":74,"Duration":165061,"SoundDuration":165061,"Delta":321181225},{"NoteNumber":61,"Velocity":67,"Duration":165061,"SoundDuration":165061,"Delta":321181225},{"NoteNumber":56,"Velocity":57,"Duration":165061,"SoundDuration":165061,"Delta":321181225},{"NoteNumber":53,"Velocity":57,"Duration":165061,"SoundDuration":165061,"Delta":321181225},{"NoteNumber":73,"Velocity":88,"Duration":193240,"SoundDuration":193240,"Delta":321346287},{"NoteNumber":65,"Velocity":74,"Duration":193240,"SoundDuration":193240,"Delta":321346287},{"NoteNumber":68,"Velocity":74,"Duration":193240,"SoundDuration":193240,"Delta":321346287},{"NoteNumber":53,"Velocity":57,"Duration":193240,"SoundDuration":193240,"Delta":321346287},{"NoteNumber":56,"Velocity":57,"Duration":193240,"SoundDuration":193240,"Delta":321346287},{"NoteNumber":61,"Velocity":67,"Duration":193240,"SoundDuration":193240,"Delta":321346287},{"NoteNumber":73,"Velocity":97,"Duration":186624,"SoundDuration":186624,"Delta":321539528},{"NoteNumber":65,"Velocity":82,"Duration":186624,"SoundDuration":186624,"Delta":321539528},{"NoteNumber":68,"Velocity":82,"Duration":186624,"SoundDuration":186624,"Delta":321539528},{"NoteNumber":61,"Velocity":73,"Duration":186624,"SoundDuration":186624,"Delta":321539528},{"NoteNumber":56,"Velocity":61,"Duration":186624,"SoundDuration":186624,"Delta":321539528},{"NoteNumber":53,"Velocity":61,"Duration":186624,"SoundDuration":186624,"Delta":321539528},{"NoteNumber":96,"Velocity":101,"Duration":176730,"SoundDuration":176730,"Delta":321912778},{"NoteNumber":84,"Velocity":84,"Duration":176730,"SoundDuration":176730,"Delta":321912778},{"NoteNumber":87,"Velocity":84,"Duration":176730,"SoundDuration":176730,"Delta":321912778},{"NoteNumber":66,"Velocity":66,"Duration":176730,"SoundDuration":176730,"Delta":321912778},{"NoteNumber":57,"Velocity":56,"Duration":176730,"SoundDuration":176730,"Delta":321912778},{"NoteNumber":54,"Velocity":56,"Duration":176730,"SoundDuration":176730,"Delta":321912778},{"NoteNumber":99,"Velocity":101,"Duration":188150,"SoundDuration":188150,"Delta":322089508},{"NoteNumber":87,"Velocity":84,"Duration":188150,"SoundDuration":188150,"Delta":322089508},{"NoteNumber":90,"Velocity":84,"Duration":188150,"SoundDuration":188150,"Delta":322089508},{"NoteNumber":97,"Velocity":108,"Duration":186624,"SoundDuration":186624,"Delta":322277659},{"NoteNumber":85,"Velocity":92,"Duration":186624,"SoundDuration":186624,"Delta":322277659},{"NoteNumber":89,"Velocity":92,"Duration":186624,"SoundDuration":186624,"Delta":322277659},{"NoteNumber":49,"Velocity":67,"Duration":186624,"SoundDuration":186624,"Delta":322277659},{"NoteNumber":53,"Velocity":67,"Duration":186624,"SoundDuration":186624,"Delta":322277659},{"NoteNumber":56,"Velocity":67,"Duration":186624,"SoundDuration":186624,"Delta":322277659},{"NoteNumber":61,"Velocity":80,"Duration":186624,"SoundDuration":186624,"Delta":322277659},{"NoteNumber":96,"Velocity":101,"Duration":172910,"SoundDuration":172910,"Delta":322650909},{"NoteNumber":84,"Velocity":84,"Duration":172910,"SoundDuration":172910,"Delta":322650909},{"NoteNumber":87,"Velocity":84,"Duration":172910,"SoundDuration":172910,"Delta":322650909},{"NoteNumber":42,"Velocity":58,"Duration":172910,"SoundDuration":172910,"Delta":322650909},{"NoteNumber":45,"Velocity":58,"Duration":172910,"SoundDuration":172910,"Delta":322650909},{"NoteNumber":54,"Velocity":69,"Duration":172910,"SoundDuration":172910,"Delta":322650909},{"NoteNumber":99,"Velocity":101,"Duration":182636,"SoundDuration":182636,"Delta":322823820},{"NoteNumber":87,"Velocity":84,"Duration":182636,"SoundDuration":182636,"Delta":322823820},{"NoteNumber":90,"Velocity":84,"Duration":182636,"SoundDuration":182636,"Delta":322823820},{"NoteNumber":97,"Velocity":108,"Duration":189274,"SoundDuration":189274,"Delta":323006456},{"NoteNumber":85,"Velocity":92,"Duration":189274,"SoundDuration":189274,"Delta":323006456},{"NoteNumber":89,"Velocity":92,"Duration":189274,"SoundDuration":189274,"Delta":323006456},{"NoteNumber":37,"Velocity":58,"Duration":189274,"SoundDuration":189274,"Delta":323006456},{"NoteNumber":49,"Velocity":69,"Duration":189274,"SoundDuration":189274,"Delta":323006456},{"NoteNumber":44,"Velocity":58,"Duration":189274,"SoundDuration":189274,"Delta":323006456},{"NoteNumber":41,"Velocity":58,"Duration":189274,"SoundDuration":189274,"Delta":323006456},{"NoteNumber":97,"Velocity":103,"Duration":195758,"SoundDuration":195758,"Delta":323385005},{"NoteNumber":85,"Velocity":86,"Duration":195758,"SoundDuration":195758,"Delta":323385005},{"NoteNumber":89,"Velocity":86,"Duration":195758,"SoundDuration":195758,"Delta":323385005},{"NoteNumber":46,"Velocity":59,"Duration":195758,"SoundDuration":195758,"Delta":323385005},{"NoteNumber":58,"Velocity":71,"Duration":195758,"SoundDuration":195758,"Delta":323385005},{"NoteNumber":101,"Velocity":105,"Duration":737045,"SoundDuration":737045,"Delta":323776522},{"NoteNumber":89,"Velocity":89,"Duration":737045,"SoundDuration":737045,"Delta":323776522},{"NoteNumber":93,"Velocity":89,"Duration":737045,"SoundDuration":737045,"Delta":323776522},{"NoteNumber":45,"Velocity":64,"Duration":737045,"SoundDuration":737045,"Delta":323776522},{"NoteNumber":53,"Velocity":78,"Duration":737045,"SoundDuration":737045,"Delta":323776522},{"NoteNumber":41,"Velocity":64,"Duration":737045,"SoundDuration":737045,"Delta":323776522},{"NoteNumber":48,"Velocity":64,"Duration":737045,"SoundDuration":737045,"Delta":323776522},{"NoteNumber":77,"Velocity":88,"Duration":165061,"SoundDuration":165061,"Delta":324164244},{"NoteNumber":69,"Velocity":74,"Duration":165061,"SoundDuration":165061,"Delta":324164244},{"NoteNumber":72,"Velocity":74,"Duration":165061,"SoundDuration":165061,"Delta":324164244},{"NoteNumber":65,"Velocity":67,"Duration":165061,"SoundDuration":165061,"Delta":324164244},{"NoteNumber":57,"Velocity":57,"Duration":165061,"SoundDuration":165061,"Delta":324164244},{"NoteNumber":60,"Velocity":57,"Duration":165061,"SoundDuration":165061,"Delta":324164244},{"NoteNumber":77,"Velocity":88,"Duration":184261,"SoundDuration":184261,"Delta":324329306},{"NoteNumber":69,"Velocity":74,"Duration":184261,"SoundDuration":184261,"Delta":324329306},{"NoteNumber":72,"Velocity":74,"Duration":184261,"SoundDuration":184261,"Delta":324329306},{"NoteNumber":65,"Velocity":67,"Duration":184261,"SoundDuration":184261,"Delta":324329306},{"NoteNumber":57,"Velocity":57,"Duration":184261,"SoundDuration":184261,"Delta":324329306},{"NoteNumber":60,"Velocity":57,"Duration":184261,"SoundDuration":184261,"Delta":324329306},{"NoteNumber":77,"Velocity":97,"Duration":186624,"SoundDuration":186624,"Delta":324513568},{"NoteNumber":69,"Velocity":82,"Duration":186624,"SoundDuration":186624,"Delta":324513568},{"NoteNumber":72,"Velocity":82,"Duration":186624,"SoundDuration":186624,"Delta":324513568},{"NoteNumber":57,"Velocity":61,"Duration":186624,"SoundDuration":186624,"Delta":324513568},{"NoteNumber":60,"Velocity":61,"Duration":186624,"SoundDuration":186624,"Delta":324513568},{"NoteNumber":65,"Velocity":73,"Duration":186624,"SoundDuration":186624,"Delta":324513568},{"NoteNumber":100,"Velocity":92,"Duration":177515,"SoundDuration":177515,"Delta":324886818},{"NoteNumber":88,"Velocity":77,"Duration":177515,"SoundDuration":177515,"Delta":324886818},{"NoteNumber":91,"Velocity":77,"Duration":177515,"SoundDuration":177515,"Delta":324886818},{"NoteNumber":70,"Velocity":60,"Duration":177515,"SoundDuration":177515,"Delta":324886818},{"NoteNumber":61,"Velocity":51,"Duration":177515,"SoundDuration":177515,"Delta":324886818},{"NoteNumber":58,"Velocity":51,"Duration":177515,"SoundDuration":177515,"Delta":324886818},{"NoteNumber":103,"Velocity":92,"Duration":188412,"SoundDuration":188412,"Delta":325064333},{"NoteNumber":91,"Velocity":77,"Duration":188412,"SoundDuration":188412,"Delta":325064333},{"NoteNumber":94,"Velocity":77,"Duration":188412,"SoundDuration":188412,"Delta":325064333},{"NoteNumber":101,"Velocity":99,"Duration":186624,"SoundDuration":186624,"Delta":325252745},{"NoteNumber":89,"Velocity":84,"Duration":186624,"SoundDuration":186624,"Delta":325252745},{"NoteNumber":93,"Velocity":84,"Duration":186624,"SoundDuration":186624,"Delta":325252745},{"NoteNumber":53,"Velocity":61,"Duration":186624,"SoundDuration":186624,"Delta":325252745},{"NoteNumber":57,"Velocity":61,"Duration":186624,"SoundDuration":186624,"Delta":325252745},{"NoteNumber":60,"Velocity":61,"Duration":186624,"SoundDuration":186624,"Delta":325252745},{"NoteNumber":65,"Velocity":73,"Duration":186624,"SoundDuration":186624,"Delta":325252745},{"NoteNumber":100,"Velocity":92,"Duration":173661,"SoundDuration":173661,"Delta":325625995},{"NoteNumber":88,"Velocity":77,"Duration":173661,"SoundDuration":173661,"Delta":325625995},{"NoteNumber":91,"Velocity":77,"Duration":173661,"SoundDuration":173661,"Delta":325625995},{"NoteNumber":46,"Velocity":53,"Duration":173661,"SoundDuration":173661,"Delta":325625995},{"NoteNumber":49,"Velocity":53,"Duration":173661,"SoundDuration":173661,"Delta":325625995},{"NoteNumber":58,"Velocity":63,"Duration":173661,"SoundDuration":173661,"Delta":325625995},{"NoteNumber":103,"Velocity":92,"Duration":182887,"SoundDuration":182887,"Delta":325799657},{"NoteNumber":91,"Velocity":77,"Duration":182887,"SoundDuration":182887,"Delta":325799657},{"NoteNumber":94,"Velocity":77,"Duration":182887,"SoundDuration":182887,"Delta":325799657},{"NoteNumber":101,"Velocity":99,"Duration":182370,"SoundDuration":182370,"Delta":325982544},{"NoteNumber":89,"Velocity":84,"Duration":182370,"SoundDuration":182370,"Delta":325982544},{"NoteNumber":93,"Velocity":84,"Duration":182370,"SoundDuration":182370,"Delta":325982544},{"NoteNumber":41,"Velocity":53,"Duration":182370,"SoundDuration":182370,"Delta":325982544},{"NoteNumber":53,"Velocity":63,"Duration":182370,"SoundDuration":182370,"Delta":325982544},{"NoteNumber":48,"Velocity":53,"Duration":182370,"SoundDuration":182370,"Delta":325982544},{"NoteNumber":45,"Velocity":53,"Duration":182370,"SoundDuration":182370,"Delta":325982544},{"NoteNumber":89,"Velocity":94,"Duration":192925,"SoundDuration":192925,"Delta":326347286},{"NoteNumber":77,"Velocity":79,"Duration":192925,"SoundDuration":192925,"Delta":326347286},{"NoteNumber":81,"Velocity":79,"Duration":192925,"SoundDuration":192925,"Delta":326347286},{"NoteNumber":38,"Velocity":54,"Duration":192925,"SoundDuration":192925,"Delta":326347286},{"NoteNumber":50,"Velocity":65,"Duration":192925,"SoundDuration":192925,"Delta":326347286},{"NoteNumber":93,"Velocity":82,"Duration":179104,"SoundDuration":179104,"Delta":326733138},{"NoteNumber":81,"Velocity":70,"Duration":179104,"SoundDuration":179104,"Delta":326733138},{"NoteNumber":85,"Velocity":70,"Duration":179104,"SoundDuration":179104,"Delta":326733138},{"NoteNumber":33,"Velocity":65,"Duration":357676,"SoundDuration":357676,"Delta":326733138},{"NoteNumber":45,"Velocity":76,"Duration":357676,"SoundDuration":357676,"Delta":326733138},{"NoteNumber":92,"Velocity":76,"Duration":178572,"SoundDuration":178572,"Delta":326912242},{"NoteNumber":80,"Velocity":65,"Duration":178572,"SoundDuration":178572,"Delta":326912242},{"NoteNumber":93,"Velocity":82,"Duration":173661,"SoundDuration":173661,"Delta":327090814},{"NoteNumber":81,"Velocity":70,"Duration":173661,"SoundDuration":173661,"Delta":327090814},{"NoteNumber":64,"Velocity":71,"Duration":353968,"SoundDuration":353968,"Delta":327090814},{"NoteNumber":57,"Velocity":61,"Duration":353968,"SoundDuration":353968,"Delta":327090814},{"NoteNumber":61,"Velocity":61,"Duration":353968,"SoundDuration":353968,"Delta":327090814},{"NoteNumber":52,"Velocity":61,"Duration":353968,"SoundDuration":353968,"Delta":327090814},{"NoteNumber":95,"Velocity":76,"Duration":180306,"SoundDuration":180306,"Delta":327264476},{"NoteNumber":83,"Velocity":65,"Duration":180306,"SoundDuration":180306,"Delta":327264476},{"NoteNumber":97,"Velocity":82,"Duration":523338,"SoundDuration":523338,"Delta":327444783},{"NoteNumber":85,"Velocity":70,"Duration":523338,"SoundDuration":523338,"Delta":327444783},{"NoteNumber":45,"Velocity":78,"Duration":347323,"SoundDuration":347323,"Delta":327444783},{"NoteNumber":33,"Velocity":66,"Duration":347323,"SoundDuration":347323,"Delta":327444783},{"NoteNumber":65,"Velocity":74,"Duration":356738,"SoundDuration":356738,"Delta":327792106},{"NoteNumber":53,"Velocity":62,"Duration":356738,"SoundDuration":356738,"Delta":327792106},{"NoteNumber":57,"Velocity":62,"Duration":356738,"SoundDuration":356738,"Delta":327792106},{"NoteNumber":61,"Velocity":62,"Duration":356738,"SoundDuration":356738,"Delta":327792106},{"NoteNumber":97,"Velocity":80,"Duration":180722,"SoundDuration":180722,"Delta":327968121},{"NoteNumber":85,"Velocity":68,"Duration":180722,"SoundDuration":180722,"Delta":327968121},{"NoteNumber":97,"Velocity":82,"Duration":182370,"SoundDuration":182370,"Delta":328148844},{"NoteNumber":85,"Velocity":70,"Duration":182370,"SoundDuration":182370,"Delta":328148844},{"NoteNumber":45,"Velocity":76,"Duration":356032,"SoundDuration":356032,"Delta":328148844},{"NoteNumber":33,"Velocity":65,"Duration":356032,"SoundDuration":356032,"Delta":328148844},{"NoteNumber":95,"Velocity":76,"Duration":173661,"SoundDuration":173661,"Delta":328331215},{"NoteNumber":83,"Velocity":65,"Duration":173661,"SoundDuration":173661,"Delta":328331215},{"NoteNumber":93,"Velocity":82,"Duration":175182,"SoundDuration":175182,"Delta":328504877},{"NoteNumber":81,"Velocity":70,"Duration":175182,"SoundDuration":175182,"Delta":328504877},{"NoteNumber":66,"Velocity":71,"Duration":355713,"SoundDuration":355713,"Delta":328504877},{"NoteNumber":54,"Velocity":61,"Duration":355713,"SoundDuration":355713,"Delta":328504877},{"NoteNumber":62,"Velocity":61,"Duration":355713,"SoundDuration":355713,"Delta":328504877},{"NoteNumber":92,"Velocity":76,"Duration":180531,"SoundDuration":180531,"Delta":328680059},{"NoteNumber":80,"Velocity":65,"Duration":180531,"SoundDuration":180531,"Delta":328680059},{"NoteNumber":93,"Velocity":82,"Duration":524165,"SoundDuration":524165,"Delta":328860591},{"NoteNumber":81,"Velocity":70,"Duration":524165,"SoundDuration":524165,"Delta":328860591},{"NoteNumber":45,"Velocity":78,"Duration":347323,"SoundDuration":347323,"Delta":328860591},{"NoteNumber":33,"Velocity":66,"Duration":347323,"SoundDuration":347323,"Delta":328860591},{"NoteNumber":60,"Velocity":62,"Duration":360048,"SoundDuration":360048,"Delta":329207914},{"NoteNumber":54,"Velocity":62,"Duration":360048,"SoundDuration":360048,"Delta":329207914},{"NoteNumber":63,"Velocity":74,"Duration":360048,"SoundDuration":360048,"Delta":329207914},{"NoteNumber":102,"Velocity":80,"Duration":183205,"SoundDuration":183205,"Delta":329384757},{"NoteNumber":90,"Velocity":68,"Duration":183205,"SoundDuration":183205,"Delta":329384757},{"NoteNumber":100,"Velocity":82,"Duration":165746,"SoundDuration":165746,"Delta":329567963},{"NoteNumber":88,"Velocity":70,"Duration":165746,"SoundDuration":165746,"Delta":329567963},{"NoteNumber":33,"Velocity":65,"Duration":341476,"SoundDuration":341476,"Delta":329567963},{"NoteNumber":45,"Velocity":76,"Duration":341476,"SoundDuration":341476,"Delta":329567963},{"NoteNumber":98,"Velocity":76,"Duration":175730,"SoundDuration":175730,"Delta":329733709},{"NoteNumber":86,"Velocity":65,"Duration":175730,"SoundDuration":175730,"Delta":329733709},{"NoteNumber":97,"Velocity":82,"Duration":170697,"SoundDuration":170697,"Delta":329909439},{"NoteNumber":85,"Velocity":70,"Duration":170697,"SoundDuration":170697,"Delta":329909439},{"NoteNumber":56,"Velocity":61,"Duration":355987,"SoundDuration":355987,"Delta":329909439},{"NoteNumber":64,"Velocity":71,"Duration":355987,"SoundDuration":355987,"Delta":329909439},{"NoteNumber":52,"Velocity":61,"Duration":355987,"SoundDuration":355987,"Delta":329909439},{"NoteNumber":100,"Velocity":76,"Duration":185290,"SoundDuration":185290,"Delta":330080136},{"NoteNumber":88,"Velocity":65,"Duration":185290,"SoundDuration":185290,"Delta":330080136},{"NoteNumber":98,"Velocity":82,"Duration":170697,"SoundDuration":170697,"Delta":330265426},{"NoteNumber":86,"Velocity":70,"Duration":170697,"SoundDuration":170697,"Delta":330265426},{"NoteNumber":45,"Velocity":76,"Duration":348078,"SoundDuration":348078,"Delta":330265426},{"NoteNumber":33,"Velocity":65,"Duration":348078,"SoundDuration":348078,"Delta":330265426},{"NoteNumber":97,"Velocity":76,"Duration":177381,"SoundDuration":177381,"Delta":330436123},{"NoteNumber":85,"Velocity":65,"Duration":177381,"SoundDuration":177381,"Delta":330436123},{"NoteNumber":95,"Velocity":82,"Duration":175182,"SoundDuration":175182,"Delta":330613504},{"NoteNumber":83,"Velocity":70,"Duration":175182,"SoundDuration":175182,"Delta":330613504},{"NoteNumber":59,"Velocity":61,"Duration":356159,"SoundDuration":356159,"Delta":330613504},{"NoteNumber":56,"Velocity":61,"Duration":356159,"SoundDuration":356159,"Delta":330613504},{"NoteNumber":52,"Velocity":61,"Duration":356159,"SoundDuration":356159,"Delta":330613504},{"NoteNumber":64,"Velocity":71,"Duration":356159,"SoundDuration":356159,"Delta":330613504},{"NoteNumber":98,"Velocity":76,"Duration":180976,"SoundDuration":180976,"Delta":330788687},{"NoteNumber":86,"Velocity":65,"Duration":180976,"SoundDuration":180976,"Delta":330788687},{"NoteNumber":97,"Velocity":82,"Duration":176730,"SoundDuration":176730,"Delta":330969664},{"NoteNumber":85,"Velocity":70,"Duration":176730,"SoundDuration":176730,"Delta":330969664},{"NoteNumber":33,"Velocity":65,"Duration":356122,"SoundDuration":356122,"Delta":330969664},{"NoteNumber":45,"Velocity":76,"Duration":356122,"SoundDuration":356122,"Delta":330969664},{"NoteNumber":95,"Velocity":76,"Duration":179392,"SoundDuration":179392,"Delta":331146394},{"NoteNumber":83,"Velocity":65,"Duration":179392,"SoundDuration":179392,"Delta":331146394},{"NoteNumber":93,"Velocity":82,"Duration":173661,"SoundDuration":173661,"Delta":331325786},{"NoteNumber":81,"Velocity":70,"Duration":173661,"SoundDuration":173661,"Delta":331325786},{"NoteNumber":64,"Velocity":71,"Duration":354548,"SoundDuration":354548,"Delta":331325786},{"NoteNumber":57,"Velocity":61,"Duration":354548,"SoundDuration":354548,"Delta":331325786},{"NoteNumber":52,"Velocity":61,"Duration":354548,"SoundDuration":354548,"Delta":331325786},{"NoteNumber":61,"Velocity":61,"Duration":354548,"SoundDuration":354548,"Delta":331325786},{"NoteNumber":97,"Velocity":76,"Duration":180887,"SoundDuration":180887,"Delta":331499448},{"NoteNumber":85,"Velocity":65,"Duration":180887,"SoundDuration":180887,"Delta":331499448},{"NoteNumber":95,"Velocity":82,"Duration":178306,"SoundDuration":178306,"Delta":331680335},{"NoteNumber":83,"Velocity":70,"Duration":178306,"SoundDuration":178306,"Delta":331680335},{"NoteNumber":33,"Velocity":65,"Duration":356611,"SoundDuration":356611,"Delta":331680335},{"NoteNumber":45,"Velocity":76,"Duration":356611,"SoundDuration":356611,"Delta":331680335},{"NoteNumber":93,"Velocity":76,"Duration":178305,"SoundDuration":178305,"Delta":331858641},{"NoteNumber":81,"Velocity":65,"Duration":178305,"SoundDuration":178305,"Delta":331858641},{"NoteNumber":92,"Velocity":82,"Duration":359165,"SoundDuration":359165,"Delta":332036947},{"NoteNumber":80,"Velocity":70,"Duration":359165,"SoundDuration":359165,"Delta":332036947},{"NoteNumber":59,"Velocity":61,"Duration":359165,"SoundDuration":359165,"Delta":332036947},{"NoteNumber":52,"Velocity":61,"Duration":359165,"SoundDuration":359165,"Delta":332036947},{"NoteNumber":64,"Velocity":71,"Duration":359165,"SoundDuration":359165,"Delta":332036947},{"NoteNumber":93,"Velocity":82,"Duration":180723,"SoundDuration":180723,"Delta":332396113},{"NoteNumber":81,"Velocity":70,"Duration":180723,"SoundDuration":180723,"Delta":332396113},{"NoteNumber":33,"Velocity":65,"Duration":359834,"SoundDuration":359834,"Delta":332396113},{"NoteNumber":45,"Velocity":76,"Duration":359834,"SoundDuration":359834,"Delta":332396113},{"NoteNumber":92,"Velocity":76,"Duration":179111,"SoundDuration":179111,"Delta":332576836},{"NoteNumber":80,"Velocity":65,"Duration":179111,"SoundDuration":179111,"Delta":332576836},{"NoteNumber":93,"Velocity":82,"Duration":173661,"SoundDuration":173661,"Delta":332755947},{"NoteNumber":81,"Velocity":70,"Duration":173661,"SoundDuration":173661,"Delta":332755947},{"NoteNumber":61,"Velocity":61,"Duration":352726,"SoundDuration":352726,"Delta":332755947},{"NoteNumber":64,"Velocity":71,"Duration":352726,"SoundDuration":352726,"Delta":332755947},{"NoteNumber":57,"Velocity":61,"Duration":352726,"SoundDuration":352726,"Delta":332755947},{"NoteNumber":52,"Velocity":61,"Duration":352726,"SoundDuration":352726,"Delta":332755947},{"NoteNumber":95,"Velocity":76,"Duration":179065,"SoundDuration":179065,"Delta":332929609},{"NoteNumber":83,"Velocity":65,"Duration":179065,"SoundDuration":179065,"Delta":332929609},{"NoteNumber":97,"Velocity":82,"Duration":527394,"SoundDuration":527394,"Delta":333108674},{"NoteNumber":85,"Velocity":70,"Duration":527394,"SoundDuration":527394,"Delta":333108674},{"NoteNumber":45,"Velocity":78,"Duration":350365,"SoundDuration":350365,"Delta":333108674},{"NoteNumber":33,"Velocity":66,"Duration":350365,"SoundDuration":350365,"Delta":333108674},{"NoteNumber":65,"Velocity":74,"Duration":354544,"SoundDuration":354544,"Delta":333459039},{"NoteNumber":61,"Velocity":62,"Duration":354544,"SoundDuration":354544,"Delta":333459039},{"NoteNumber":57,"Velocity":62,"Duration":354544,"SoundDuration":354544,"Delta":333459039},{"NoteNumber":53,"Velocity":62,"Duration":354544,"SoundDuration":354544,"Delta":333459039},{"NoteNumber":97,"Velocity":80,"Duration":177515,"SoundDuration":177515,"Delta":333636068},{"NoteNumber":85,"Velocity":68,"Duration":177515,"SoundDuration":177515,"Delta":333636068},{"NoteNumber":97,"Velocity":82,"Duration":182370,"SoundDuration":182370,"Delta":333813583},{"NoteNumber":85,"Velocity":70,"Duration":182370,"SoundDuration":182370,"Delta":333813583},{"NoteNumber":45,"Velocity":76,"Duration":357553,"SoundDuration":357553,"Delta":333813583},{"NoteNumber":33,"Velocity":65,"Duration":357553,"SoundDuration":357553,"Delta":333813583},{"NoteNumber":95,"Velocity":76,"Duration":175182,"SoundDuration":175182,"Delta":333995954},{"NoteNumber":83,"Velocity":65,"Duration":175182,"SoundDuration":175182,"Delta":333995954},{"NoteNumber":93,"Velocity":82,"Duration":177515,"SoundDuration":177515,"Delta":334171137},{"NoteNumber":81,"Velocity":70,"Duration":177515,"SoundDuration":177515,"Delta":334171137},{"NoteNumber":62,"Velocity":61,"Duration":358823,"SoundDuration":358823,"Delta":334171137},{"NoteNumber":54,"Velocity":61,"Duration":358823,"SoundDuration":358823,"Delta":334171137},{"NoteNumber":66,"Velocity":71,"Duration":358823,"SoundDuration":358823,"Delta":334171137},{"NoteNumber":92,"Velocity":76,"Duration":181308,"SoundDuration":181308,"Delta":334348652},{"NoteNumber":80,"Velocity":65,"Duration":181308,"SoundDuration":181308,"Delta":334348652},{"NoteNumber":93,"Velocity":82,"Duration":528221,"SoundDuration":528221,"Delta":334529961},{"NoteNumber":81,"Velocity":70,"Duration":528221,"SoundDuration":528221,"Delta":334529961},{"NoteNumber":33,"Velocity":66,"Duration":350365,"SoundDuration":350365,"Delta":334529961},{"NoteNumber":45,"Velocity":78,"Duration":350365,"SoundDuration":350365,"Delta":334529961},{"NoteNumber":60,"Velocity":62,"Duration":358579,"SoundDuration":358579,"Delta":334880326},{"NoteNumber":54,"Velocity":62,"Duration":358579,"SoundDuration":358579,"Delta":334880326},{"NoteNumber":63,"Velocity":74,"Duration":358579,"SoundDuration":358579,"Delta":334880326},{"NoteNumber":102,"Velocity":80,"Duration":180723,"SoundDuration":180723,"Delta":335058183},{"NoteNumber":90,"Velocity":68,"Duration":180723,"SoundDuration":180723,"Delta":335058183},{"NoteNumber":100,"Velocity":82,"Duration":173661,"SoundDuration":173661,"Delta":335238906},{"NoteNumber":88,"Velocity":70,"Duration":173661,"SoundDuration":173661,"Delta":335238906},{"NoteNumber":45,"Velocity":76,"Duration":351221,"SoundDuration":351221,"Delta":335238906},{"NoteNumber":33,"Velocity":65,"Duration":351221,"SoundDuration":351221,"Delta":335238906},{"NoteNumber":98,"Velocity":76,"Duration":177559,"SoundDuration":177559,"Delta":335412567},{"NoteNumber":86,"Velocity":65,"Duration":177559,"SoundDuration":177559,"Delta":335412567},{"NoteNumber":97,"Velocity":82,"Duration":175182,"SoundDuration":175182,"Delta":335590127},{"NoteNumber":85,"Velocity":70,"Duration":175182,"SoundDuration":175182,"Delta":335590127},{"NoteNumber":56,"Velocity":61,"Duration":356998,"SoundDuration":356998,"Delta":335590127},{"NoteNumber":52,"Velocity":61,"Duration":356998,"SoundDuration":356998,"Delta":335590127},{"NoteNumber":64,"Velocity":71,"Duration":356998,"SoundDuration":356998,"Delta":335590127},{"NoteNumber":100,"Velocity":76,"Duration":181815,"SoundDuration":181815,"Delta":335765310},{"NoteNumber":88,"Velocity":65,"Duration":181815,"SoundDuration":181815,"Delta":335765310},{"NoteNumber":98,"Velocity":82,"Duration":179104,"SoundDuration":179104,"Delta":335947126},{"NoteNumber":86,"Velocity":70,"Duration":179104,"SoundDuration":179104,"Delta":335947126},{"NoteNumber":45,"Velocity":76,"Duration":359288,"SoundDuration":359288,"Delta":335947126},{"NoteNumber":33,"Velocity":65,"Duration":359288,"SoundDuration":359288,"Delta":335947126},{"NoteNumber":97,"Velocity":76,"Duration":180183,"SoundDuration":180183,"Delta":336126230},{"NoteNumber":85,"Velocity":65,"Duration":180183,"SoundDuration":180183,"Delta":336126230},{"NoteNumber":95,"Velocity":82,"Duration":176730,"SoundDuration":176730,"Delta":336306414},{"NoteNumber":83,"Velocity":70,"Duration":176730,"SoundDuration":176730,"Delta":336306414},{"NoteNumber":59,"Velocity":61,"Duration":361229,"SoundDuration":361229,"Delta":336306414},{"NoteNumber":56,"Velocity":61,"Duration":361229,"SoundDuration":361229,"Delta":336306414},{"NoteNumber":64,"Velocity":71,"Duration":361229,"SoundDuration":361229,"Delta":336306414},{"NoteNumber":52,"Velocity":61,"Duration":361229,"SoundDuration":361229,"Delta":336306414},{"NoteNumber":98,"Velocity":76,"Duration":184498,"SoundDuration":184498,"Delta":336483144},{"NoteNumber":86,"Velocity":65,"Duration":184498,"SoundDuration":184498,"Delta":336483144},{"NoteNumber":97,"Velocity":82,"Duration":179910,"SoundDuration":179910,"Delta":336667643},{"NoteNumber":85,"Velocity":70,"Duration":179910,"SoundDuration":179910,"Delta":336667643},{"NoteNumber":33,"Velocity":65,"Duration":360362,"SoundDuration":360362,"Delta":336667643},{"NoteNumber":45,"Velocity":76,"Duration":360362,"SoundDuration":360362,"Delta":336667643},{"NoteNumber":95,"Velocity":76,"Duration":180452,"SoundDuration":180452,"Delta":336847553},{"NoteNumber":83,"Velocity":65,"Duration":180452,"SoundDuration":180452,"Delta":336847553},{"NoteNumber":93,"Velocity":82,"Duration":175952,"SoundDuration":175952,"Delta":337028005},{"NoteNumber":81,"Velocity":70,"Duration":175952,"SoundDuration":175952,"Delta":337028005},{"NoteNumber":64,"Velocity":71,"Duration":358880,"SoundDuration":358880,"Delta":337028005},{"NoteNumber":61,"Velocity":61,"Duration":358880,"SoundDuration":358880,"Delta":337028005},{"NoteNumber":52,"Velocity":61,"Duration":358880,"SoundDuration":358880,"Delta":337028005},{"NoteNumber":57,"Velocity":61,"Duration":358880,"SoundDuration":358880,"Delta":337028005},{"NoteNumber":97,"Velocity":76,"Duration":182927,"SoundDuration":182927,"Delta":337203958},{"NoteNumber":85,"Velocity":65,"Duration":182927,"SoundDuration":182927,"Delta":337203958},{"NoteNumber":95,"Velocity":82,"Duration":184049,"SoundDuration":184049,"Delta":337386885},{"NoteNumber":83,"Velocity":70,"Duration":184049,"SoundDuration":184049,"Delta":337386885},{"NoteNumber":33,"Velocity":65,"Duration":368097,"SoundDuration":368097,"Delta":337386885},{"NoteNumber":45,"Velocity":76,"Duration":368097,"SoundDuration":368097,"Delta":337386885},{"NoteNumber":93,"Velocity":76,"Duration":184048,"SoundDuration":184048,"Delta":337570934},{"NoteNumber":81,"Velocity":65,"Duration":184048,"SoundDuration":184048,"Delta":337570934},{"NoteNumber":92,"Velocity":82,"Duration":360295,"SoundDuration":360295,"Delta":337754983},{"NoteNumber":80,"Velocity":70,"Duration":360295,"SoundDuration":360295,"Delta":337754983},{"NoteNumber":64,"Velocity":71,"Duration":360295,"SoundDuration":360295,"Delta":337754983},{"NoteNumber":59,"Velocity":61,"Duration":360295,"SoundDuration":360295,"Delta":337754983},{"NoteNumber":52,"Velocity":61,"Duration":360295,"SoundDuration":360295,"Delta":337754983},{"NoteNumber":81,"Velocity":69,"Duration":174838,"SoundDuration":174838,"Delta":338115279},{"NoteNumber":69,"Velocity":58,"Duration":174838,"SoundDuration":174838,"Delta":338115279},{"NoteNumber":57,"Velocity":48,"Duration":174838,"SoundDuration":174838,"Delta":338115279},{"NoteNumber":45,"Velocity":40,"Duration":174838,"SoundDuration":174838,"Delta":338115279},{"NoteNumber":80,"Velocity":60,"Duration":173813,"SoundDuration":173813,"Delta":338290117},{"NoteNumber":68,"Velocity":51,"Duration":173813,"SoundDuration":173813,"Delta":338290117},{"NoteNumber":56,"Velocity":42,"Duration":173813,"SoundDuration":173813,"Delta":338290117},{"NoteNumber":44,"Velocity":35,"Duration":173813,"SoundDuration":173813,"Delta":338290117},{"NoteNumber":77,"Velocity":71,"Duration":172650,"SoundDuration":172650,"Delta":338463931},{"NoteNumber":65,"Velocity":60,"Duration":172650,"SoundDuration":172650,"Delta":338463931},{"NoteNumber":41,"Velocity":42,"Duration":172650,"SoundDuration":172650,"Delta":338463931},{"NoteNumber":53,"Velocity":49,"Duration":172650,"SoundDuration":172650,"Delta":338463931},{"NoteNumber":81,"Velocity":64,"Duration":171686,"SoundDuration":171686,"Delta":338636581},{"NoteNumber":69,"Velocity":54,"Duration":171686,"SoundDuration":171686,"Delta":338636581},{"NoteNumber":45,"Velocity":37,"Duration":171686,"SoundDuration":171686,"Delta":338636581},{"NoteNumber":57,"Velocity":44,"Duration":171686,"SoundDuration":171686,"Delta":338636581},{"NoteNumber":80,"Velocity":75,"Duration":170733,"SoundDuration":170733,"Delta":338808267},{"NoteNumber":68,"Velocity":63,"Duration":170733,"SoundDuration":170733,"Delta":338808267},{"NoteNumber":44,"Velocity":44,"Duration":170733,"SoundDuration":170733,"Delta":338808267},{"NoteNumber":56,"Velocity":52,"Duration":170733,"SoundDuration":170733,"Delta":338808267},{"NoteNumber":77,"Velocity":71,"Duration":170697,"SoundDuration":170697,"Delta":338979001},{"NoteNumber":65,"Velocity":60,"Duration":170697,"SoundDuration":170697,"Delta":338979001},{"NoteNumber":53,"Velocity":49,"Duration":170697,"SoundDuration":170697,"Delta":338979001},{"NoteNumber":41,"Velocity":42,"Duration":170697,"SoundDuration":170697,"Delta":338979001},{"NoteNumber":76,"Velocity":77,"Duration":170953,"SoundDuration":170953,"Delta":339149698},{"NoteNumber":64,"Velocity":65,"Duration":170953,"SoundDuration":170953,"Delta":339149698},{"NoteNumber":52,"Velocity":53,"Duration":170953,"SoundDuration":170953,"Delta":339149698},{"NoteNumber":40,"Velocity":45,"Duration":170953,"SoundDuration":170953,"Delta":339149698},{"NoteNumber":80,"Velocity":73,"Duration":171428,"SoundDuration":171428,"Delta":339320651},{"NoteNumber":68,"Velocity":62,"Duration":171428,"SoundDuration":171428,"Delta":339320651},{"NoteNumber":56,"Velocity":51,"Duration":171428,"SoundDuration":171428,"Delta":339320651},{"NoteNumber":44,"Velocity":43,"Duration":171428,"SoundDuration":171428,"Delta":339320651},{"NoteNumber":77,"Velocity":81,"Duration":169971,"SoundDuration":169971,"Delta":339492080},{"NoteNumber":65,"Velocity":69,"Duration":169971,"SoundDuration":169971,"Delta":339492080},{"NoteNumber":53,"Velocity":56,"Duration":169971,"SoundDuration":169971,"Delta":339492080},{"NoteNumber":41,"Velocity":48,"Duration":169971,"SoundDuration":169971,"Delta":339492080},{"NoteNumber":76,"Velocity":72,"Duration":169971,"SoundDuration":169971,"Delta":339662051},{"NoteNumber":64,"Velocity":61,"Duration":169971,"SoundDuration":169971,"Delta":339662051},{"NoteNumber":40,"Velocity":42,"Duration":169971,"SoundDuration":169971,"Delta":339662051},{"NoteNumber":52,"Velocity":50,"Duration":169971,"SoundDuration":169971,"Delta":339662051},{"NoteNumber":74,"Velocity":84,"Duration":169288,"SoundDuration":169288,"Delta":339832023},{"NoteNumber":62,"Velocity":71,"Duration":169288,"SoundDuration":169288,"Delta":339832023},{"NoteNumber":38,"Velocity":49,"Duration":169288,"SoundDuration":169288,"Delta":339832023},{"NoteNumber":50,"Velocity":58,"Duration":169288,"SoundDuration":169288,"Delta":339832023},{"NoteNumber":77,"Velocity":75,"Duration":169216,"SoundDuration":169216,"Delta":340001311},{"NoteNumber":65,"Velocity":63,"Duration":169216,"SoundDuration":169216,"Delta":340001311},{"NoteNumber":41,"Velocity":44,"Duration":169216,"SoundDuration":169216,"Delta":340001311},{"NoteNumber":53,"Velocity":52,"Duration":169216,"SoundDuration":169216,"Delta":340001311},{"NoteNumber":74,"Velocity":88,"Duration":168539,"SoundDuration":168539,"Delta":340170528},{"NoteNumber":62,"Velocity":74,"Duration":168539,"SoundDuration":168539,"Delta":340170528},{"NoteNumber":38,"Velocity":51,"Duration":168539,"SoundDuration":168539,"Delta":340170528},{"NoteNumber":50,"Velocity":61,"Duration":168539,"SoundDuration":168539,"Delta":340170528},{"NoteNumber":73,"Velocity":83,"Duration":168539,"SoundDuration":168539,"Delta":340339067},{"NoteNumber":61,"Velocity":70,"Duration":168539,"SoundDuration":168539,"Delta":340339067},{"NoteNumber":37,"Velocity":49,"Duration":168539,"SoundDuration":168539,"Delta":340339067},{"NoteNumber":49,"Velocity":58,"Duration":168539,"SoundDuration":168539,"Delta":340339067},{"NoteNumber":58,"Velocity":76,"Duration":183205,"SoundDuration":183205,"Delta":340507607},{"NoteNumber":70,"Velocity":90,"Duration":183205,"SoundDuration":183205,"Delta":340507607},{"NoteNumber":46,"Velocity":62,"Duration":183205,"SoundDuration":183205,"Delta":340507607},{"NoteNumber":34,"Velocity":52,"Duration":183205,"SoundDuration":183205,"Delta":340507607},{"NoteNumber":81,"Velocity":69,"Duration":173586,"SoundDuration":173586,"Delta":340874019},{"NoteNumber":69,"Velocity":58,"Duration":173586,"SoundDuration":173586,"Delta":340874019},{"NoteNumber":57,"Velocity":48,"Duration":173586,"SoundDuration":173586,"Delta":340874019},{"NoteNumber":45,"Velocity":40,"Duration":173586,"SoundDuration":173586,"Delta":340874019},{"NoteNumber":80,"Velocity":60,"Duration":172798,"SoundDuration":172798,"Delta":341047605},{"NoteNumber":68,"Velocity":51,"Duration":172798,"SoundDuration":172798,"Delta":341047605},{"NoteNumber":56,"Velocity":42,"Duration":172798,"SoundDuration":172798,"Delta":341047605},{"NoteNumber":44,"Velocity":35,"Duration":172798,"SoundDuration":172798,"Delta":341047605},{"NoteNumber":77,"Velocity":71,"Duration":171908,"SoundDuration":171908,"Delta":341220404},{"NoteNumber":65,"Velocity":60,"Duration":171908,"SoundDuration":171908,"Delta":341220404},{"NoteNumber":53,"Velocity":49,"Duration":171908,"SoundDuration":171908,"Delta":341220404},{"NoteNumber":41,"Velocity":42,"Duration":171908,"SoundDuration":171908,"Delta":341220404},{"NoteNumber":81,"Velocity":64,"Duration":171099,"SoundDuration":171099,"Delta":341392312},{"NoteNumber":69,"Velocity":54,"Duration":171099,"SoundDuration":171099,"Delta":341392312},{"NoteNumber":57,"Velocity":44,"Duration":171099,"SoundDuration":171099,"Delta":341392312},{"NoteNumber":45,"Velocity":37,"Duration":171099,"SoundDuration":171099,"Delta":341392312},{"NoteNumber":80,"Velocity":75,"Duration":170297,"SoundDuration":170297,"Delta":341563412},{"NoteNumber":68,"Velocity":63,"Duration":170297,"SoundDuration":170297,"Delta":341563412},{"NoteNumber":56,"Velocity":52,"Duration":170297,"SoundDuration":170297,"Delta":341563412},{"NoteNumber":44,"Velocity":44,"Duration":170297,"SoundDuration":170297,"Delta":341563412},{"NoteNumber":77,"Velocity":71,"Duration":169432,"SoundDuration":169432,"Delta":341733710},{"NoteNumber":65,"Velocity":60,"Duration":169432,"SoundDuration":169432,"Delta":341733710},{"NoteNumber":53,"Velocity":49,"Duration":169432,"SoundDuration":169432,"Delta":341733710},{"NoteNumber":41,"Velocity":42,"Duration":169432,"SoundDuration":169432,"Delta":341733710},{"NoteNumber":76,"Velocity":77,"Duration":168646,"SoundDuration":168646,"Delta":341903142},{"NoteNumber":64,"Velocity":65,"Duration":168646,"SoundDuration":168646,"Delta":341903142},{"NoteNumber":52,"Velocity":53,"Duration":168646,"SoundDuration":168646,"Delta":341903142},{"NoteNumber":40,"Velocity":45,"Duration":168646,"SoundDuration":168646,"Delta":341903142},{"NoteNumber":80,"Velocity":73,"Duration":167762,"SoundDuration":167762,"Delta":342071788},{"NoteNumber":68,"Velocity":62,"Duration":167762,"SoundDuration":167762,"Delta":342071788},{"NoteNumber":44,"Velocity":43,"Duration":167762,"SoundDuration":167762,"Delta":342071788},{"NoteNumber":56,"Velocity":51,"Duration":167762,"SoundDuration":167762,"Delta":342071788},{"NoteNumber":77,"Velocity":81,"Duration":169971,"SoundDuration":169971,"Delta":342239551},{"NoteNumber":65,"Velocity":69,"Duration":169971,"SoundDuration":169971,"Delta":342239551},{"NoteNumber":41,"Velocity":48,"Duration":169971,"SoundDuration":169971,"Delta":342239551},{"NoteNumber":53,"Velocity":56,"Duration":169971,"SoundDuration":169971,"Delta":342239551},{"NoteNumber":76,"Velocity":72,"Duration":168984,"SoundDuration":168984,"Delta":342409522},{"NoteNumber":64,"Velocity":61,"Duration":168984,"SoundDuration":168984,"Delta":342409522},{"NoteNumber":40,"Velocity":42,"Duration":168984,"SoundDuration":168984,"Delta":342409522},{"NoteNumber":52,"Velocity":50,"Duration":168984,"SoundDuration":168984,"Delta":342409522},{"NoteNumber":74,"Velocity":84,"Duration":165745,"SoundDuration":165745,"Delta":342578506},{"NoteNumber":62,"Velocity":71,"Duration":165745,"SoundDuration":165745,"Delta":342578506},{"NoteNumber":38,"Velocity":49,"Duration":165745,"SoundDuration":165745,"Delta":342578506},{"NoteNumber":50,"Velocity":58,"Duration":165745,"SoundDuration":165745,"Delta":342578506},{"NoteNumber":77,"Velocity":75,"Duration":165711,"SoundDuration":165711,"Delta":342744252},{"NoteNumber":65,"Velocity":63,"Duration":165711,"SoundDuration":165711,"Delta":342744252},{"NoteNumber":41,"Velocity":44,"Duration":165711,"SoundDuration":165711,"Delta":342744252},{"NoteNumber":53,"Velocity":52,"Duration":165711,"SoundDuration":165711,"Delta":342744252},{"NoteNumber":74,"Velocity":88,"Duration":165171,"SoundDuration":165171,"Delta":342909964},{"NoteNumber":62,"Velocity":74,"Duration":165171,"SoundDuration":165171,"Delta":342909964},{"NoteNumber":38,"Velocity":51,"Duration":165171,"SoundDuration":165171,"Delta":342909964},{"NoteNumber":50,"Velocity":61,"Duration":165171,"SoundDuration":165171,"Delta":342909964},{"NoteNumber":73,"Velocity":83,"Duration":165746,"SoundDuration":165746,"Delta":343075135},{"NoteNumber":61,"Velocity":70,"Duration":165746,"SoundDuration":165746,"Delta":343075135},{"NoteNumber":49,"Velocity":58,"Duration":165746,"SoundDuration":165746,"Delta":343075135},{"NoteNumber":37,"Velocity":49,"Duration":165746,"SoundDuration":165746,"Delta":343075135},{"NoteNumber":58,"Velocity":76,"Duration":181542,"SoundDuration":181542,"Delta":343240881},{"NoteNumber":70,"Velocity":90,"Duration":181542,"SoundDuration":181542,"Delta":343240881},{"NoteNumber":46,"Velocity":62,"Duration":181542,"SoundDuration":181542,"Delta":343240881},{"NoteNumber":34,"Velocity":52,"Duration":181542,"SoundDuration":181542,"Delta":343240881},{"NoteNumber":69,"Velocity":64,"Duration":173480,"SoundDuration":173480,"Delta":343603770},{"NoteNumber":57,"Velocity":54,"Duration":173480,"SoundDuration":173480,"Delta":343603770},{"NoteNumber":45,"Velocity":48,"Duration":173480,"SoundDuration":173480,"Delta":343603770},{"NoteNumber":33,"Velocity":40,"Duration":173480,"SoundDuration":173480,"Delta":343603770},{"NoteNumber":70,"Velocity":64,"Duration":166435,"SoundDuration":166435,"Delta":343777251},{"NoteNumber":58,"Velocity":54,"Duration":166435,"SoundDuration":166435,"Delta":343777251},{"NoteNumber":46,"Velocity":48,"Duration":166435,"SoundDuration":166435,"Delta":343777251},{"NoteNumber":34,"Velocity":40,"Duration":166435,"SoundDuration":166435,"Delta":343777251},{"NoteNumber":73,"Velocity":65,"Duration":166004,"SoundDuration":166004,"Delta":343943687},{"NoteNumber":61,"Velocity":55,"Duration":166004,"SoundDuration":166004,"Delta":343943687},{"NoteNumber":37,"Velocity":41,"Duration":166004,"SoundDuration":166004,"Delta":343943687},{"NoteNumber":49,"Velocity":48,"Duration":166004,"SoundDuration":166004,"Delta":343943687},{"NoteNumber":74,"Velocity":66,"Duration":165592,"SoundDuration":165592,"Delta":344109691},{"NoteNumber":62,"Velocity":56,"Duration":165592,"SoundDuration":165592,"Delta":344109691},{"NoteNumber":38,"Velocity":42,"Duration":165592,"SoundDuration":165592,"Delta":344109691},{"NoteNumber":50,"Velocity":49,"Duration":165592,"SoundDuration":165592,"Delta":344109691},{"NoteNumber":76,"Velocity":67,"Duration":165062,"SoundDuration":165062,"Delta":344275283},{"NoteNumber":64,"Velocity":56,"Duration":165062,"SoundDuration":165062,"Delta":344275283},{"NoteNumber":40,"Velocity":42,"Duration":165062,"SoundDuration":165062,"Delta":344275283},{"NoteNumber":52,"Velocity":50,"Duration":165062,"SoundDuration":165062,"Delta":344275283},{"NoteNumber":77,"Velocity":68,"Duration":164502,"SoundDuration":164502,"Delta":344440345},{"NoteNumber":65,"Velocity":57,"Duration":164502,"SoundDuration":164502,"Delta":344440345},{"NoteNumber":41,"Velocity":42,"Duration":164502,"SoundDuration":164502,"Delta":344440345},{"NoteNumber":53,"Velocity":51,"Duration":164502,"SoundDuration":164502,"Delta":344440345},{"NoteNumber":80,"Velocity":69,"Duration":164097,"SoundDuration":164097,"Delta":344604847},{"NoteNumber":68,"Velocity":58,"Duration":164097,"SoundDuration":164097,"Delta":344604847},{"NoteNumber":44,"Velocity":43,"Duration":164097,"SoundDuration":164097,"Delta":344604847},{"NoteNumber":56,"Velocity":51,"Duration":164097,"SoundDuration":164097,"Delta":344604847},{"NoteNumber":81,"Velocity":70,"Duration":163710,"SoundDuration":163710,"Delta":344768945},{"NoteNumber":69,"Velocity":59,"Duration":163710,"SoundDuration":163710,"Delta":344768945},{"NoteNumber":45,"Velocity":44,"Duration":163710,"SoundDuration":163710,"Delta":344768945},{"NoteNumber":57,"Velocity":52,"Duration":163710,"SoundDuration":163710,"Delta":344768945},{"NoteNumber":82,"Velocity":71,"Duration":163410,"SoundDuration":163410,"Delta":344932656},{"NoteNumber":70,"Velocity":60,"Duration":163410,"SoundDuration":163410,"Delta":344932656},{"NoteNumber":46,"Velocity":45,"Duration":163410,"SoundDuration":163410,"Delta":344932656},{"NoteNumber":58,"Velocity":53,"Duration":163410,"SoundDuration":163410,"Delta":344932656},{"NoteNumber":85,"Velocity":72,"Duration":162251,"SoundDuration":162251,"Delta":345096067},{"NoteNumber":73,"Velocity":61,"Duration":162251,"SoundDuration":162251,"Delta":345096067},{"NoteNumber":49,"Velocity":45,"Duration":162251,"SoundDuration":162251,"Delta":345096067},{"NoteNumber":61,"Velocity":54,"Duration":162251,"SoundDuration":162251,"Delta":345096067},{"NoteNumber":86,"Velocity":73,"Duration":161139,"SoundDuration":161139,"Delta":345258318},{"NoteNumber":74,"Velocity":62,"Duration":161139,"SoundDuration":161139,"Delta":345258318},{"NoteNumber":50,"Velocity":46,"Duration":161139,"SoundDuration":161139,"Delta":345258318},{"NoteNumber":62,"Velocity":54,"Duration":161139,"SoundDuration":161139,"Delta":345258318},{"NoteNumber":88,"Velocity":74,"Duration":161222,"SoundDuration":161222,"Delta":345419458},{"NoteNumber":76,"Velocity":62,"Duration":161222,"SoundDuration":161222,"Delta":345419458},{"NoteNumber":52,"Velocity":46,"Duration":161222,"SoundDuration":161222,"Delta":345419458},{"NoteNumber":64,"Velocity":55,"Duration":161222,"SoundDuration":161222,"Delta":345419458},{"NoteNumber":89,"Velocity":74,"Duration":162004,"SoundDuration":162004,"Delta":345580680},{"NoteNumber":77,"Velocity":62,"Duration":162004,"SoundDuration":162004,"Delta":345580680},{"NoteNumber":53,"Velocity":46,"Duration":162004,"SoundDuration":162004,"Delta":345580680},{"NoteNumber":65,"Velocity":55,"Duration":162004,"SoundDuration":162004,"Delta":345580680},{"NoteNumber":92,"Velocity":75,"Duration":162381,"SoundDuration":162381,"Delta":345742684},{"NoteNumber":80,"Velocity":63,"Duration":162381,"SoundDuration":162381,"Delta":345742684},{"NoteNumber":56,"Velocity":47,"Duration":162381,"SoundDuration":162381,"Delta":345742684},{"NoteNumber":68,"Velocity":56,"Duration":162381,"SoundDuration":162381,"Delta":345742684},{"NoteNumber":93,"Velocity":76,"Duration":168395,"SoundDuration":168395,"Delta":345905066},{"NoteNumber":81,"Velocity":64,"Duration":168395,"SoundDuration":168395,"Delta":345905066},{"NoteNumber":57,"Velocity":48,"Duration":168395,"SoundDuration":168395,"Delta":345905066},{"NoteNumber":69,"Velocity":57,"Duration":168395,"SoundDuration":168395,"Delta":345905066},{"NoteNumber":94,"Velocity":77,"Duration":176438,"SoundDuration":176438,"Delta":346073461},{"NoteNumber":82,"Velocity":65,"Duration":176438,"SoundDuration":176438,"Delta":346073461},{"NoteNumber":58,"Velocity":48,"Duration":176438,"SoundDuration":176438,"Delta":346073461},{"NoteNumber":70,"Velocity":57,"Duration":176438,"SoundDuration":176438,"Delta":346073461},{"NoteNumber":97,"Velocity":78,"Duration":163211,"SoundDuration":163211,"Delta":346249900},{"NoteNumber":85,"Velocity":66,"Duration":163211,"SoundDuration":163211,"Delta":346249900},{"NoteNumber":61,"Velocity":49,"Duration":163211,"SoundDuration":163211,"Delta":346249900},{"NoteNumber":73,"Velocity":58,"Duration":163211,"SoundDuration":163211,"Delta":346249900},{"NoteNumber":94,"Velocity":77,"Duration":163795,"SoundDuration":163795,"Delta":346413112},{"NoteNumber":82,"Velocity":65,"Duration":163795,"SoundDuration":163795,"Delta":346413112},{"NoteNumber":70,"Velocity":57,"Duration":163795,"SoundDuration":163795,"Delta":346413112},{"NoteNumber":58,"Velocity":48,"Duration":163795,"SoundDuration":163795,"Delta":346413112},{"NoteNumber":93,"Velocity":75,"Duration":164536,"SoundDuration":164536,"Delta":346576907},{"NoteNumber":81,"Velocity":63,"Duration":164536,"SoundDuration":164536,"Delta":346576907},{"NoteNumber":69,"Velocity":56,"Duration":164536,"SoundDuration":164536,"Delta":346576907},{"NoteNumber":57,"Velocity":47,"Duration":164536,"SoundDuration":164536,"Delta":346576907},{"NoteNumber":92,"Velocity":74,"Duration":165284,"SoundDuration":165284,"Delta":346741443},{"NoteNumber":80,"Velocity":62,"Duration":165284,"SoundDuration":165284,"Delta":346741443},{"NoteNumber":68,"Velocity":55,"Duration":165284,"SoundDuration":165284,"Delta":346741443},{"NoteNumber":56,"Velocity":46,"Duration":165284,"SoundDuration":165284,"Delta":346741443},{"NoteNumber":89,"Velocity":72,"Duration":166107,"SoundDuration":166107,"Delta":346906727},{"NoteNumber":77,"Velocity":61,"Duration":166107,"SoundDuration":166107,"Delta":346906727},{"NoteNumber":65,"Velocity":54,"Duration":166107,"SoundDuration":166107,"Delta":346906727},{"NoteNumber":53,"Velocity":45,"Duration":166107,"SoundDuration":166107,"Delta":346906727},{"NoteNumber":88,"Velocity":70,"Duration":166870,"SoundDuration":166870,"Delta":347072835},{"NoteNumber":76,"Velocity":59,"Duration":166870,"SoundDuration":166870,"Delta":347072835},{"NoteNumber":52,"Velocity":44,"Duration":166870,"SoundDuration":166870,"Delta":347072835},{"NoteNumber":64,"Velocity":52,"Duration":166870,"SoundDuration":166870,"Delta":347072835},{"NoteNumber":86,"Velocity":69,"Duration":167639,"SoundDuration":167639,"Delta":347239705},{"NoteNumber":74,"Velocity":58,"Duration":167639,"SoundDuration":167639,"Delta":347239705},{"NoteNumber":50,"Velocity":43,"Duration":167639,"SoundDuration":167639,"Delta":347239705},{"NoteNumber":62,"Velocity":51,"Duration":167639,"SoundDuration":167639,"Delta":347239705},{"NoteNumber":85,"Velocity":67,"Duration":168415,"SoundDuration":168415,"Delta":347407345},{"NoteNumber":73,"Velocity":56,"Duration":168415,"SoundDuration":168415,"Delta":347407345},{"NoteNumber":49,"Velocity":42,"Duration":168415,"SoundDuration":168415,"Delta":347407345},{"NoteNumber":61,"Velocity":50,"Duration":168415,"SoundDuration":168415,"Delta":347407345},{"NoteNumber":82,"Velocity":67,"Duration":169288,"SoundDuration":169288,"Delta":347575760},{"NoteNumber":70,"Velocity":56,"Duration":169288,"SoundDuration":169288,"Delta":347575760},{"NoteNumber":46,"Velocity":42,"Duration":169288,"SoundDuration":169288,"Delta":347575760},{"NoteNumber":58,"Velocity":50,"Duration":169288,"SoundDuration":169288,"Delta":347575760},{"NoteNumber":81,"Velocity":69,"Duration":169809,"SoundDuration":169809,"Delta":347745049},{"NoteNumber":69,"Velocity":58,"Duration":169809,"SoundDuration":169809,"Delta":347745049},{"NoteNumber":57,"Velocity":51,"Duration":169809,"SoundDuration":169809,"Delta":347745049},{"NoteNumber":45,"Velocity":43,"Duration":169809,"SoundDuration":169809,"Delta":347745049},{"NoteNumber":80,"Velocity":71,"Duration":168949,"SoundDuration":168949,"Delta":347914859},{"NoteNumber":68,"Velocity":60,"Duration":168949,"SoundDuration":168949,"Delta":347914859},{"NoteNumber":56,"Velocity":53,"Duration":168949,"SoundDuration":168949,"Delta":347914859},{"NoteNumber":44,"Velocity":45,"Duration":168949,"SoundDuration":168949,"Delta":347914859},{"NoteNumber":77,"Velocity":73,"Duration":168097,"SoundDuration":168097,"Delta":348083808},{"NoteNumber":65,"Velocity":62,"Duration":168097,"SoundDuration":168097,"Delta":348083808},{"NoteNumber":53,"Velocity":54,"Duration":168097,"SoundDuration":168097,"Delta":348083808},{"NoteNumber":41,"Velocity":46,"Duration":168097,"SoundDuration":168097,"Delta":348083808},{"NoteNumber":76,"Velocity":75,"Duration":167253,"SoundDuration":167253,"Delta":348251906},{"NoteNumber":64,"Velocity":63,"Duration":167253,"SoundDuration":167253,"Delta":348251906},{"NoteNumber":52,"Velocity":56,"Duration":167253,"SoundDuration":167253,"Delta":348251906},{"NoteNumber":40,"Velocity":47,"Duration":167253,"SoundDuration":167253,"Delta":348251906},{"NoteNumber":74,"Velocity":77,"Duration":166401,"SoundDuration":166401,"Delta":348419159},{"NoteNumber":62,"Velocity":65,"Duration":166401,"SoundDuration":166401,"Delta":348419159},{"NoteNumber":50,"Velocity":57,"Duration":166401,"SoundDuration":166401,"Delta":348419159},{"NoteNumber":38,"Velocity":48,"Duration":166401,"SoundDuration":166401,"Delta":348419159},{"NoteNumber":73,"Velocity":79,"Duration":165523,"SoundDuration":165523,"Delta":348585561},{"NoteNumber":61,"Velocity":67,"Duration":165523,"SoundDuration":165523,"Delta":348585561},{"NoteNumber":37,"Velocity":50,"Duration":165523,"SoundDuration":165523,"Delta":348585561},{"NoteNumber":49,"Velocity":59,"Duration":165523,"SoundDuration":165523,"Delta":348585561},{"NoteNumber":70,"Velocity":81,"Duration":164705,"SoundDuration":164705,"Delta":348751085},{"NoteNumber":58,"Velocity":68,"Duration":164705,"SoundDuration":164705,"Delta":348751085},{"NoteNumber":46,"Velocity":60,"Duration":164705,"SoundDuration":164705,"Delta":348751085},{"NoteNumber":34,"Velocity":51,"Duration":164705,"SoundDuration":164705,"Delta":348751085},{"NoteNumber":69,"Velocity":64,"Duration":172607,"SoundDuration":172607,"Delta":348915790},{"NoteNumber":57,"Velocity":54,"Duration":172607,"SoundDuration":172607,"Delta":348915790},{"NoteNumber":45,"Velocity":48,"Duration":172607,"SoundDuration":172607,"Delta":348915790},{"NoteNumber":33,"Velocity":40,"Duration":172607,"SoundDuration":172607,"Delta":348915790},{"NoteNumber":70,"Velocity":64,"Duration":166403,"SoundDuration":166403,"Delta":349088398},{"NoteNumber":58,"Velocity":54,"Duration":166403,"SoundDuration":166403,"Delta":349088398},{"NoteNumber":46,"Velocity":48,"Duration":166403,"SoundDuration":166403,"Delta":349088398},{"NoteNumber":34,"Velocity":40,"Duration":166403,"SoundDuration":166403,"Delta":349088398},{"NoteNumber":73,"Velocity":65,"Duration":165714,"SoundDuration":165714,"Delta":349254802},{"NoteNumber":61,"Velocity":55,"Duration":165714,"SoundDuration":165714,"Delta":349254802},{"NoteNumber":49,"Velocity":48,"Duration":165714,"SoundDuration":165714,"Delta":349254802},{"NoteNumber":37,"Velocity":41,"Duration":165714,"SoundDuration":165714,"Delta":349254802},{"NoteNumber":74,"Velocity":66,"Duration":165030,"SoundDuration":165030,"Delta":349420517},{"NoteNumber":62,"Velocity":56,"Duration":165030,"SoundDuration":165030,"Delta":349420517},{"NoteNumber":38,"Velocity":42,"Duration":165030,"SoundDuration":165030,"Delta":349420517},{"NoteNumber":50,"Velocity":49,"Duration":165030,"SoundDuration":165030,"Delta":349420517},{"NoteNumber":76,"Velocity":67,"Duration":164352,"SoundDuration":164352,"Delta":349585548},{"NoteNumber":64,"Velocity":56,"Duration":164352,"SoundDuration":164352,"Delta":349585548},{"NoteNumber":40,"Velocity":42,"Duration":164352,"SoundDuration":164352,"Delta":349585548},{"NoteNumber":52,"Velocity":50,"Duration":164352,"SoundDuration":164352,"Delta":349585548},{"NoteNumber":77,"Velocity":68,"Duration":163680,"SoundDuration":163680,"Delta":349749900},{"NoteNumber":65,"Velocity":57,"Duration":163680,"SoundDuration":163680,"Delta":349749900},{"NoteNumber":41,"Velocity":42,"Duration":163680,"SoundDuration":163680,"Delta":349749900},{"NoteNumber":53,"Velocity":51,"Duration":163680,"SoundDuration":163680,"Delta":349749900},{"NoteNumber":80,"Velocity":69,"Duration":163013,"SoundDuration":163013,"Delta":349913581},{"NoteNumber":68,"Velocity":58,"Duration":163013,"SoundDuration":163013,"Delta":349913581},{"NoteNumber":44,"Velocity":43,"Duration":163013,"SoundDuration":163013,"Delta":349913581},{"NoteNumber":56,"Velocity":51,"Duration":163013,"SoundDuration":163013,"Delta":349913581},{"NoteNumber":81,"Velocity":70,"Duration":162411,"SoundDuration":162411,"Delta":350076594},{"NoteNumber":69,"Velocity":59,"Duration":162411,"SoundDuration":162411,"Delta":350076594},{"NoteNumber":45,"Velocity":44,"Duration":162411,"SoundDuration":162411,"Delta":350076594},{"NoteNumber":57,"Velocity":52,"Duration":162411,"SoundDuration":162411,"Delta":350076594},{"NoteNumber":82,"Velocity":73,"Duration":162162,"SoundDuration":162162,"Delta":350239006},{"NoteNumber":70,"Velocity":61,"Duration":162162,"SoundDuration":162162,"Delta":350239006},{"NoteNumber":58,"Velocity":54,"Duration":162162,"SoundDuration":162162,"Delta":350239006},{"NoteNumber":46,"Velocity":46,"Duration":162162,"SoundDuration":162162,"Delta":350239006},{"NoteNumber":85,"Velocity":74,"Duration":161073,"SoundDuration":161073,"Delta":350401168},{"NoteNumber":73,"Velocity":63,"Duration":161073,"SoundDuration":161073,"Delta":350401168},{"NoteNumber":61,"Velocity":56,"Duration":161073,"SoundDuration":161073,"Delta":350401168},{"NoteNumber":49,"Velocity":46,"Duration":161073,"SoundDuration":161073,"Delta":350401168},{"NoteNumber":86,"Velocity":76,"Duration":161073,"SoundDuration":161073,"Delta":350562242},{"NoteNumber":74,"Velocity":65,"Duration":161073,"SoundDuration":161073,"Delta":350562242},{"NoteNumber":62,"Velocity":56,"Duration":161073,"SoundDuration":161073,"Delta":350562242},{"NoteNumber":50,"Velocity":48,"Duration":161073,"SoundDuration":161073,"Delta":350562242},{"NoteNumber":88,"Velocity":79,"Duration":161480,"SoundDuration":161480,"Delta":350723316},{"NoteNumber":76,"Velocity":66,"Duration":161480,"SoundDuration":161480,"Delta":350723316},{"NoteNumber":64,"Velocity":58,"Duration":161480,"SoundDuration":161480,"Delta":350723316},{"NoteNumber":52,"Velocity":49,"Duration":161480,"SoundDuration":161480,"Delta":350723316},{"NoteNumber":89,"Velocity":79,"Duration":162004,"SoundDuration":162004,"Delta":350884797},{"NoteNumber":77,"Velocity":66,"Duration":162004,"SoundDuration":162004,"Delta":350884797},{"NoteNumber":65,"Velocity":59,"Duration":162004,"SoundDuration":162004,"Delta":350884797},{"NoteNumber":53,"Velocity":49,"Duration":162004,"SoundDuration":162004,"Delta":350884797},{"NoteNumber":92,"Velocity":81,"Duration":162381,"SoundDuration":162381,"Delta":351046801},{"NoteNumber":80,"Velocity":68,"Duration":162381,"SoundDuration":162381,"Delta":351046801},{"NoteNumber":68,"Velocity":61,"Duration":162381,"SoundDuration":162381,"Delta":351046801},{"NoteNumber":56,"Velocity":51,"Duration":162381,"SoundDuration":162381,"Delta":351046801},{"NoteNumber":93,"Velocity":84,"Duration":168524,"SoundDuration":168524,"Delta":351209182},{"NoteNumber":81,"Velocity":71,"Duration":168524,"SoundDuration":168524,"Delta":351209182},{"NoteNumber":69,"Velocity":63,"Duration":168524,"SoundDuration":168524,"Delta":351209182},{"NoteNumber":57,"Velocity":53,"Duration":168524,"SoundDuration":168524,"Delta":351209182},{"NoteNumber":94,"Velocity":86,"Duration":176438,"SoundDuration":176438,"Delta":351377707},{"NoteNumber":82,"Velocity":72,"Duration":176438,"SoundDuration":176438,"Delta":351377707},{"NoteNumber":58,"Velocity":53,"Duration":176438,"SoundDuration":176438,"Delta":351377707},{"NoteNumber":70,"Velocity":63,"Duration":176438,"SoundDuration":176438,"Delta":351377707},{"NoteNumber":97,"Velocity":97,"Duration":163194,"SoundDuration":163194,"Delta":351554146},{"NoteNumber":85,"Velocity":97,"Duration":163194,"SoundDuration":163194,"Delta":351554146},{"NoteNumber":61,"Velocity":73,"Duration":163194,"SoundDuration":163194,"Delta":351554146},{"NoteNumber":73,"Velocity":73,"Duration":163194,"SoundDuration":163194,"Delta":351554146},{"NoteNumber":98,"Velocity":98,"Duration":163043,"SoundDuration":163043,"Delta":352206471},{"NoteNumber":86,"Velocity":83,"Duration":163043,"SoundDuration":163043,"Delta":352206471},{"NoteNumber":89,"Velocity":83,"Duration":163043,"SoundDuration":163043,"Delta":352206471},{"NoteNumber":94,"Velocity":83,"Duration":163043,"SoundDuration":163043,"Delta":352206471},{"NoteNumber":50,"Velocity":58,"Duration":163043,"SoundDuration":163043,"Delta":352206471},{"NoteNumber":53,"Velocity":58,"Duration":163043,"SoundDuration":163043,"Delta":352206471},{"NoteNumber":58,"Velocity":58,"Duration":163043,"SoundDuration":163043,"Delta":352206471},{"NoteNumber":62,"Velocity":70,"Duration":163043,"SoundDuration":163043,"Delta":352206471},{"NoteNumber":100,"Velocity":102,"Duration":163043,"SoundDuration":163043,"Delta":352858645},{"NoteNumber":97,"Velocity":86,"Duration":163043,"SoundDuration":163043,"Delta":352858645},{"NoteNumber":93,"Velocity":86,"Duration":163043,"SoundDuration":163043,"Delta":352858645},{"NoteNumber":88,"Velocity":86,"Duration":163043,"SoundDuration":163043,"Delta":352858645},{"NoteNumber":57,"Velocity":71,"Duration":163043,"SoundDuration":163043,"Delta":352858645},{"NoteNumber":49,"Velocity":59,"Duration":163043,"SoundDuration":163043,"Delta":352858645},{"NoteNumber":45,"Velocity":59,"Duration":163043,"SoundDuration":163043,"Delta":352858645},{"NoteNumber":52,"Velocity":59,"Duration":163043,"SoundDuration":163043,"Delta":352858645},{"NoteNumber":101,"Velocity":116,"Duration":163043,"SoundDuration":163043,"Delta":353510819},{"NoteNumber":94,"Velocity":97,"Duration":163043,"SoundDuration":163043,"Delta":353510819},{"NoteNumber":89,"Velocity":97,"Duration":163043,"SoundDuration":163043,"Delta":353510819},{"NoteNumber":50,"Velocity":81,"Duration":163043,"SoundDuration":163043,"Delta":353510819},{"NoteNumber":41,"Velocity":69,"Duration":163043,"SoundDuration":163043,"Delta":353510819},{"NoteNumber":46,"Velocity":69,"Duration":163043,"SoundDuration":163043,"Delta":353510819},{"NoteNumber":38,"Velocity":69,"Duration":163043,"SoundDuration":163043,"Delta":353510819},{"NoteNumber":57,"Velocity":37,"Duration":83160,"SoundDuration":83160,"Delta":354163615},{"NoteNumber":33,"Velocity":30,"Duration":83160,"SoundDuration":83160,"Delta":354163615},{"NoteNumber":40,"Velocity":36,"Duration":83160,"SoundDuration":83160,"Delta":354163615},{"NoteNumber":37,"Velocity":30,"Duration":83160,"SoundDuration":83160,"Delta":354163615},{"NoteNumber":61,"Velocity":44,"Duration":83140,"SoundDuration":83140,"Delta":354168469},{"NoteNumber":52,"Velocity":37,"Duration":83140,"SoundDuration":83140,"Delta":354168469},{"NoteNumber":64,"Velocity":45,"Duration":82816,"SoundDuration":82816,"Delta":354246775},{"NoteNumber":45,"Velocity":37,"Duration":82816,"SoundDuration":82816,"Delta":354246775},{"NoteNumber":61,"Velocity":47,"Duration":82474,"SoundDuration":82474,"Delta":354329591},{"NoteNumber":52,"Velocity":39,"Duration":82474,"SoundDuration":82474,"Delta":354329591},{"NoteNumber":57,"Velocity":39,"Duration":82474,"SoundDuration":82474,"Delta":354329591},{"NoteNumber":33,"Velocity":32,"Duration":82474,"SoundDuration":82474,"Delta":354329591},{"NoteNumber":40,"Velocity":38,"Duration":82474,"SoundDuration":82474,"Delta":354329591},{"NoteNumber":37,"Velocity":32,"Duration":82474,"SoundDuration":82474,"Delta":354329591},{"NoteNumber":64,"Velocity":48,"Duration":82135,"SoundDuration":82135,"Delta":354412066},{"NoteNumber":45,"Velocity":39,"Duration":82135,"SoundDuration":82135,"Delta":354412066},{"NoteNumber":61,"Velocity":49,"Duration":81799,"SoundDuration":81799,"Delta":354494201},{"NoteNumber":52,"Velocity":41,"Duration":81799,"SoundDuration":81799,"Delta":354494201},{"NoteNumber":57,"Velocity":41,"Duration":81799,"SoundDuration":81799,"Delta":354494201},{"NoteNumber":40,"Velocity":41,"Duration":81799,"SoundDuration":81799,"Delta":354494201},{"NoteNumber":37,"Velocity":34,"Duration":81799,"SoundDuration":81799,"Delta":354494201},{"NoteNumber":33,"Velocity":34,"Duration":81799,"SoundDuration":81799,"Delta":354494201},{"NoteNumber":64,"Velocity":50,"Duration":81466,"SoundDuration":81466,"Delta":354576001},{"NoteNumber":45,"Velocity":42,"Duration":81466,"SoundDuration":81466,"Delta":354576001},{"NoteNumber":61,"Velocity":52,"Duration":81136,"SoundDuration":81136,"Delta":354657468},{"NoteNumber":52,"Velocity":44,"Duration":81136,"SoundDuration":81136,"Delta":354657468},{"NoteNumber":57,"Velocity":44,"Duration":81136,"SoundDuration":81136,"Delta":354657468},{"NoteNumber":40,"Velocity":43,"Duration":81136,"SoundDuration":81136,"Delta":354657468},{"NoteNumber":37,"Velocity":36,"Duration":81136,"SoundDuration":81136,"Delta":354657468},{"NoteNumber":33,"Velocity":36,"Duration":81136,"SoundDuration":81136,"Delta":354657468},{"NoteNumber":64,"Velocity":53,"Duration":80808,"SoundDuration":80808,"Delta":354738604},{"NoteNumber":45,"Velocity":44,"Duration":80808,"SoundDuration":80808,"Delta":354738604},{"NoteNumber":57,"Velocity":45,"Duration":80591,"SoundDuration":80591,"Delta":354819412},{"NoteNumber":40,"Velocity":45,"Duration":80591,"SoundDuration":80591,"Delta":354819412},{"NoteNumber":33,"Velocity":38,"Duration":80591,"SoundDuration":80591,"Delta":354819412},{"NoteNumber":37,"Velocity":38,"Duration":80591,"SoundDuration":80591,"Delta":354819412},{"NoteNumber":61,"Velocity":54,"Duration":80610,"SoundDuration":80610,"Delta":354824110},{"NoteNumber":52,"Velocity":45,"Duration":80610,"SoundDuration":80610,"Delta":354824110},{"NoteNumber":64,"Velocity":56,"Duration":80982,"SoundDuration":80982,"Delta":354900003},{"NoteNumber":45,"Velocity":46,"Duration":80982,"SoundDuration":80982,"Delta":354900003},{"NoteNumber":61,"Velocity":55,"Duration":81378,"SoundDuration":81378,"Delta":354980986},{"NoteNumber":52,"Velocity":46,"Duration":81378,"SoundDuration":81378,"Delta":354980986},{"NoteNumber":57,"Velocity":46,"Duration":81378,"SoundDuration":81378,"Delta":354980986},{"NoteNumber":40,"Velocity":44,"Duration":81378,"SoundDuration":81378,"Delta":354980986},{"NoteNumber":33,"Velocity":37,"Duration":81378,"SoundDuration":81378,"Delta":354980986},{"NoteNumber":37,"Velocity":37,"Duration":81378,"SoundDuration":81378,"Delta":354980986},{"NoteNumber":64,"Velocity":53,"Duration":81710,"SoundDuration":81710,"Delta":355062365},{"NoteNumber":45,"Velocity":43,"Duration":81710,"SoundDuration":81710,"Delta":355062365},{"NoteNumber":61,"Velocity":52,"Duration":82113,"SoundDuration":82113,"Delta":355144075},{"NoteNumber":52,"Velocity":44,"Duration":82113,"SoundDuration":82113,"Delta":355144075},{"NoteNumber":57,"Velocity":44,"Duration":82113,"SoundDuration":82113,"Delta":355144075},{"NoteNumber":33,"Velocity":35,"Duration":82113,"SoundDuration":82113,"Delta":355144075},{"NoteNumber":37,"Velocity":35,"Duration":82113,"SoundDuration":82113,"Delta":355144075},{"NoteNumber":40,"Velocity":42,"Duration":82113,"SoundDuration":82113,"Delta":355144075},{"NoteNumber":64,"Velocity":50,"Duration":82519,"SoundDuration":82519,"Delta":355226189},{"NoteNumber":45,"Velocity":40,"Duration":82519,"SoundDuration":82519,"Delta":355226189},{"NoteNumber":61,"Velocity":49,"Duration":82919,"SoundDuration":82919,"Delta":355308708},{"NoteNumber":52,"Velocity":41,"Duration":82919,"SoundDuration":82919,"Delta":355308708},{"NoteNumber":57,"Velocity":41,"Duration":82919,"SoundDuration":82919,"Delta":355308708},{"NoteNumber":33,"Velocity":33,"Duration":82919,"SoundDuration":82919,"Delta":355308708},{"NoteNumber":40,"Velocity":39,"Duration":82919,"SoundDuration":82919,"Delta":355308708},{"NoteNumber":37,"Velocity":33,"Duration":82919,"SoundDuration":82919,"Delta":355308708},{"NoteNumber":64,"Velocity":47,"Duration":83345,"SoundDuration":83345,"Delta":355391628},{"NoteNumber":45,"Velocity":38,"Duration":83345,"SoundDuration":83345,"Delta":355391628},{"NoteNumber":33,"Velocity":55,"Duration":170697,"SoundDuration":170697,"Delta":355474973},{"NoteNumber":37,"Velocity":58,"Duration":160028,"SoundDuration":160028,"Delta":355485641},{"NoteNumber":40,"Velocity":61,"Duration":149359,"SoundDuration":149359,"Delta":355496310},{"NoteNumber":52,"Velocity":85,"Duration":138691,"SoundDuration":138691,"Delta":355506978},{"NoteNumber":57,"Velocity":85,"Duration":138691,"SoundDuration":138691,"Delta":355506978},{"NoteNumber":61,"Velocity":85,"Duration":138691,"SoundDuration":138691,"Delta":355506978},{"NoteNumber":45,"Velocity":66,"Duration":138691,"SoundDuration":138691,"Delta":355506978},{"NoteNumber":81,"Velocity":93,"Duration":76813,"SoundDuration":76813,"Delta":356072412},{"NoteNumber":69,"Velocity":79,"Duration":76813,"SoundDuration":76813,"Delta":356072412},{"NoteNumber":73,"Velocity":79,"Duration":76813,"SoundDuration":76813,"Delta":356072412},{"NoteNumber":76,"Velocity":79,"Duration":76813,"SoundDuration":76813,"Delta":356072412},{"NoteNumber":57,"Velocity":74,"Duration":76813,"SoundDuration":76813,"Delta":356072412},{"NoteNumber":49,"Velocity":62,"Duration":76813,"SoundDuration":76813,"Delta":356072412},{"NoteNumber":45,"Velocity":62,"Duration":76813,"SoundDuration":76813,"Delta":356072412},{"NoteNumber":52,"Velocity":62,"Duration":76813,"SoundDuration":76813,"Delta":356072412},{"NoteNumber":81,"Velocity":111,"Duration":170696,"SoundDuration":170696,"Delta":356157761},{"NoteNumber":76,"Velocity":93,"Duration":170696,"SoundDuration":170696,"Delta":356157761},{"NoteNumber":73,"Velocity":93,"Duration":170696,"SoundDuration":170696,"Delta":356157761},{"NoteNumber":69,"Velocity":93,"Duration":170696,"SoundDuration":170696,"Delta":356157761},{"NoteNumber":57,"Velocity":81,"Duration":170696,"SoundDuration":170696,"Delta":356157761},{"NoteNumber":49,"Velocity":68,"Duration":170696,"SoundDuration":170696,"Delta":356157761},{"NoteNumber":45,"Velocity":68,"Duration":170696,"SoundDuration":170696,"Delta":356157761},{"NoteNumber":52,"Velocity":68,"Duration":170696,"SoundDuration":170696,"Delta":356157761},{"NoteNumber":93,"Velocity":93,"Duration":76813,"SoundDuration":76813,"Delta":356755200},{"NoteNumber":81,"Velocity":79,"Duration":76813,"SoundDuration":76813,"Delta":356755200},{"NoteNumber":85,"Velocity":79,"Duration":76813,"SoundDuration":76813,"Delta":356755200},{"NoteNumber":88,"Velocity":79,"Duration":76813,"SoundDuration":76813,"Delta":356755200},{"NoteNumber":33,"Velocity":62,"Duration":76813,"SoundDuration":76813,"Delta":356755200},{"NoteNumber":37,"Velocity":62,"Duration":76813,"SoundDuration":76813,"Delta":356755200},{"NoteNumber":40,"Velocity":62,"Duration":76813,"SoundDuration":76813,"Delta":356755200},{"NoteNumber":45,"Velocity":74,"Duration":76813,"SoundDuration":76813,"Delta":356755200},{"NoteNumber":93,"Velocity":111,"Duration":170697,"SoundDuration":170697,"Delta":356840549},{"NoteNumber":88,"Velocity":93,"Duration":170697,"SoundDuration":170697,"Delta":356840549},{"NoteNumber":85,"Velocity":93,"Duration":170697,"SoundDuration":170697,"Delta":356840549},{"NoteNumber":81,"Velocity":93,"Duration":170697,"SoundDuration":170697,"Delta":356840549},{"NoteNumber":33,"Velocity":68,"Duration":170697,"SoundDuration":170697,"Delta":356840549},{"NoteNumber":37,"Velocity":68,"Duration":170697,"SoundDuration":170697,"Delta":356840549},{"NoteNumber":40,"Velocity":68,"Duration":170697,"SoundDuration":170697,"Delta":356840549},{"NoteNumber":45,"Velocity":81,"Duration":170697,"SoundDuration":170697,"Delta":356840549}]}