{"title":"Transcendental Étude No. 8 in C minor, 'Wilde Jagd', S.139/8","artist":"Liszt","durationMs":305683,"midiSha256":"4080b8720464ae255755934d44e47ec298a6dae9450897a493b63020baf5a849","midiObject":[{"NoteNumber":24,"Velocity":55,"Duration":209059,"SoundDuration":209059,"Delta":0},{"NoteNumber":36,"Velocity":65,"Duration":209059,"SoundDuration":209059,"Delta":0},{"NoteNumber":48,"Velocity":66,"Duration":104529,"SoundDuration":104529,"Delta":104529},{"NoteNumber":31,"Velocity":57,"Duration":208716,"SoundDuration":208716,"Delta":209059},{"NoteNumber":43,"Velocity":68,"Duration":208716,"SoundDuration":208716,"Delta":209059},{"NoteNumber":55,"Velocity":71,"Duration":104187,"SoundDuration":104187,"Delta":313588},{"NoteNumber":29,"Velocity":61,"Duration":203871,"SoundDuration":203871,"Delta":417775},{"NoteNumber":41,"Velocity":72,"Duration":203871,"SoundDuration":203871,"Delta":417775},{"NoteNumber":53,"Velocity":73,"Duration":101270,"SoundDuration":101270,"Delta":520376},{"NoteNumber":27,"Velocity":64,"Duration":198689,"SoundDuration":198689,"Delta":621646},{"NoteNumber":39,"Velocity":76,"Duration":198689,"SoundDuration":198689,"Delta":621646},{"NoteNumber":51,"Velocity":78,"Duration":98713,"SoundDuration":98713,"Delta":721623},{"NoteNumber":26,"Velocity":68,"Duration":193759,"SoundDuration":193759,"Delta":820336},{"NoteNumber":38,"Velocity":81,"Duration":193759,"SoundDuration":193759,"Delta":820336},{"NoteNumber":50,"Velocity":82,"Duration":96278,"SoundDuration":96278,"Delta":917817},{"NoteNumber":24,"Velocity":84,"Duration":431076,"SoundDuration":431076,"Delta":1014096},{"NoteNumber":36,"Velocity":102,"Duration":431076,"SoundDuration":431076,"Delta":1014096},{"NoteNumber":48,"Velocity":76,"Duration":312500,"SoundDuration":312500,"Delta":1132673},{"NoteNumber":84,"Velocity":90,"Duration":103806,"SoundDuration":103806,"Delta":1445173},{"NoteNumber":75,"Velocity":76,"Duration":103806,"SoundDuration":103806,"Delta":1445173},{"NoteNumber":72,"Velocity":76,"Duration":103806,"SoundDuration":103806,"Delta":1445173},{"NoteNumber":60,"Velocity":91,"Duration":103806,"SoundDuration":103806,"Delta":1445173},{"NoteNumber":55,"Velocity":77,"Duration":103806,"SoundDuration":103806,"Delta":1445173},{"NoteNumber":51,"Velocity":77,"Duration":103806,"SoundDuration":103806,"Delta":1445173},{"NoteNumber":48,"Velocity":77,"Duration":103806,"SoundDuration":103806,"Delta":1445173},{"NoteNumber":79,"Velocity":84,"Duration":96774,"SoundDuration":96774,"Delta":1756591},{"NoteNumber":75,"Velocity":71,"Duration":96774,"SoundDuration":96774,"Delta":1756591},{"NoteNumber":72,"Velocity":71,"Duration":96774,"SoundDuration":96774,"Delta":1756591},{"NoteNumber":67,"Velocity":71,"Duration":96774,"SoundDuration":96774,"Delta":1756591},{"NoteNumber":60,"Velocity":72,"Duration":96774,"SoundDuration":96774,"Delta":1756591},{"NoteNumber":55,"Velocity":60,"Duration":96774,"SoundDuration":96774,"Delta":1756591},{"NoteNumber":51,"Velocity":60,"Duration":96774,"SoundDuration":96774,"Delta":1756591},{"NoteNumber":48,"Velocity":60,"Duration":96774,"SoundDuration":96774,"Delta":1756591},{"NoteNumber":67,"Velocity":76,"Duration":108303,"SoundDuration":108303,"Delta":1853366},{"NoteNumber":72,"Velocity":76,"Duration":108303,"SoundDuration":108303,"Delta":1853366},{"NoteNumber":75,"Velocity":76,"Duration":108303,"SoundDuration":108303,"Delta":1853366},{"NoteNumber":79,"Velocity":90,"Duration":108303,"SoundDuration":108303,"Delta":1853366},{"NoteNumber":60,"Velocity":80,"Duration":108303,"SoundDuration":108303,"Delta":1853366},{"NoteNumber":55,"Velocity":67,"Duration":108303,"SoundDuration":108303,"Delta":1853366},{"NoteNumber":51,"Velocity":67,"Duration":108303,"SoundDuration":108303,"Delta":1853366},{"NoteNumber":48,"Velocity":67,"Duration":108303,"SoundDuration":108303,"Delta":1853366},{"NoteNumber":63,"Velocity":70,"Duration":97719,"SoundDuration":97719,"Delta":2394882},{"NoteNumber":67,"Velocity":70,"Duration":97719,"SoundDuration":97719,"Delta":2394882},{"NoteNumber":75,"Velocity":82,"Duration":97719,"SoundDuration":97719,"Delta":2394882},{"NoteNumber":48,"Velocity":54,"Duration":97719,"SoundDuration":97719,"Delta":2394882},{"NoteNumber":51,"Velocity":54,"Duration":97719,"SoundDuration":97719,"Delta":2394882},{"NoteNumber":60,"Velocity":64,"Duration":97719,"SoundDuration":97719,"Delta":2394882},{"NoteNumber":55,"Velocity":54,"Duration":97719,"SoundDuration":97719,"Delta":2394882},{"NoteNumber":63,"Velocity":74,"Duration":108303,"SoundDuration":108303,"Delta":2492602},{"NoteNumber":67,"Velocity":74,"Duration":108303,"SoundDuration":108303,"Delta":2492602},{"NoteNumber":75,"Velocity":90,"Duration":108303,"SoundDuration":108303,"Delta":2492602},{"NoteNumber":60,"Velocity":73,"Duration":108303,"SoundDuration":108303,"Delta":2492602},{"NoteNumber":55,"Velocity":63,"Duration":108303,"SoundDuration":108303,"Delta":2492602},{"NoteNumber":51,"Velocity":63,"Duration":108303,"SoundDuration":108303,"Delta":2492602},{"NoteNumber":48,"Velocity":63,"Duration":108303,"SoundDuration":108303,"Delta":2492602},{"NoteNumber":63,"Velocity":65,"Duration":100334,"SoundDuration":100334,"Delta":3024998},{"NoteNumber":67,"Velocity":65,"Duration":100334,"SoundDuration":100334,"Delta":3024998},{"NoteNumber":72,"Velocity":78,"Duration":100334,"SoundDuration":100334,"Delta":3024998},{"NoteNumber":48,"Velocity":53,"Duration":100334,"SoundDuration":100334,"Delta":3024998},{"NoteNumber":51,"Velocity":53,"Duration":100334,"SoundDuration":100334,"Delta":3024998},{"NoteNumber":55,"Velocity":53,"Duration":100334,"SoundDuration":100334,"Delta":3024998},{"NoteNumber":60,"Velocity":63,"Duration":100334,"SoundDuration":100334,"Delta":3024998},{"NoteNumber":63,"Velocity":72,"Duration":113636,"SoundDuration":113636,"Delta":3125332},{"NoteNumber":67,"Velocity":72,"Duration":113636,"SoundDuration":113636,"Delta":3125332},{"NoteNumber":72,"Velocity":85,"Duration":113636,"SoundDuration":113636,"Delta":3125332},{"NoteNumber":60,"Velocity":72,"Duration":113636,"SoundDuration":113636,"Delta":3125332},{"NoteNumber":55,"Velocity":60,"Duration":113636,"SoundDuration":113636,"Delta":3125332},{"NoteNumber":51,"Velocity":60,"Duration":113636,"SoundDuration":113636,"Delta":3125332},{"NoteNumber":48,"Velocity":60,"Duration":113636,"SoundDuration":113636,"Delta":3125332},{"NoteNumber":63,"Velocity":67,"Duration":113636,"SoundDuration":113636,"Delta":3352605},{"NoteNumber":67,"Velocity":67,"Duration":113636,"SoundDuration":113636,"Delta":3352605},{"NoteNumber":71,"Velocity":80,"Duration":113636,"SoundDuration":113636,"Delta":3352605},{"NoteNumber":48,"Velocity":53,"Duration":113636,"SoundDuration":113636,"Delta":3352605},{"NoteNumber":51,"Velocity":53,"Duration":113636,"SoundDuration":113636,"Delta":3352605},{"NoteNumber":55,"Velocity":53,"Duration":113636,"SoundDuration":113636,"Delta":3352605},{"NoteNumber":59,"Velocity":63,"Duration":113636,"SoundDuration":113636,"Delta":3352605},{"NoteNumber":63,"Velocity":72,"Duration":113636,"SoundDuration":113636,"Delta":3579877},{"NoteNumber":67,"Velocity":72,"Duration":113636,"SoundDuration":113636,"Delta":3579877},{"NoteNumber":72,"Velocity":85,"Duration":113636,"SoundDuration":113636,"Delta":3579877},{"NoteNumber":60,"Velocity":72,"Duration":113636,"SoundDuration":113636,"Delta":3579877},{"NoteNumber":55,"Velocity":60,"Duration":113636,"SoundDuration":113636,"Delta":3579877},{"NoteNumber":51,"Velocity":60,"Duration":113636,"SoundDuration":113636,"Delta":3579877},{"NoteNumber":48,"Velocity":60,"Duration":113636,"SoundDuration":113636,"Delta":3579877},{"NoteNumber":35,"Velocity":55,"Duration":209058,"SoundDuration":209058,"Delta":4034422},{"NoteNumber":38,"Velocity":65,"Duration":209058,"SoundDuration":209058,"Delta":4034422},{"NoteNumber":47,"Velocity":63,"Duration":104529,"SoundDuration":104529,"Delta":4138952},{"NoteNumber":50,"Velocity":66,"Duration":104529,"SoundDuration":104529,"Delta":4138952},{"NoteNumber":44,"Velocity":68,"Duration":208887,"SoundDuration":208887,"Delta":4243481},{"NoteNumber":56,"Velocity":71,"Duration":104358,"SoundDuration":104358,"Delta":4348011},{"NoteNumber":43,"Velocity":72,"Duration":204509,"SoundDuration":204509,"Delta":4452369},{"NoteNumber":55,"Velocity":73,"Duration":101627,"SoundDuration":101627,"Delta":4555251},{"NoteNumber":41,"Velocity":76,"Duration":199557,"SoundDuration":199557,"Delta":4656878},{"NoteNumber":53,"Velocity":78,"Duration":99193,"SoundDuration":99193,"Delta":4757242},{"NoteNumber":39,"Velocity":81,"Duration":194861,"SoundDuration":194861,"Delta":4856436},{"NoteNumber":51,"Velocity":82,"Duration":96848,"SoundDuration":96848,"Delta":4954449},{"NoteNumber":38,"Velocity":102,"Duration":409659,"SoundDuration":409659,"Delta":5051298},{"NoteNumber":50,"Velocity":76,"Duration":291082,"SoundDuration":291082,"Delta":5169875},{"NoteNumber":47,"Velocity":77,"Duration":148986,"SoundDuration":148986,"Delta":5460957},{"NoteNumber":53,"Velocity":77,"Duration":133926,"SoundDuration":133926,"Delta":5476017},{"NoteNumber":56,"Velocity":77,"Duration":118866,"SoundDuration":118866,"Delta":5491077},{"NoteNumber":86,"Velocity":90,"Duration":103806,"SoundDuration":103806,"Delta":5506138},{"NoteNumber":77,"Velocity":76,"Duration":103806,"SoundDuration":103806,"Delta":5506138},{"NoteNumber":74,"Velocity":76,"Duration":103806,"SoundDuration":103806,"Delta":5506138},{"NoteNumber":62,"Velocity":91,"Duration":103806,"SoundDuration":103806,"Delta":5506138},{"NoteNumber":80,"Velocity":84,"Duration":108303,"SoundDuration":108303,"Delta":5810838},{"NoteNumber":74,"Velocity":71,"Duration":108303,"SoundDuration":108303,"Delta":5810838},{"NoteNumber":68,"Velocity":71,"Duration":108303,"SoundDuration":108303,"Delta":5810838},{"NoteNumber":56,"Velocity":72,"Duration":108303,"SoundDuration":108303,"Delta":5810838},{"NoteNumber":53,"Velocity":60,"Duration":108303,"SoundDuration":108303,"Delta":5810838},{"NoteNumber":47,"Velocity":60,"Duration":108303,"SoundDuration":108303,"Delta":5810838},{"NoteNumber":68,"Velocity":76,"Duration":108303,"SoundDuration":108303,"Delta":5919141},{"NoteNumber":74,"Velocity":76,"Duration":108303,"SoundDuration":108303,"Delta":5919141},{"NoteNumber":80,"Velocity":90,"Duration":108303,"SoundDuration":108303,"Delta":5919141},{"NoteNumber":56,"Velocity":80,"Duration":108303,"SoundDuration":108303,"Delta":5919141},{"NoteNumber":53,"Velocity":67,"Duration":108303,"SoundDuration":108303,"Delta":5919141},{"NoteNumber":47,"Velocity":67,"Duration":108303,"SoundDuration":108303,"Delta":5919141},{"NoteNumber":65,"Velocity":70,"Duration":97719,"SoundDuration":97719,"Delta":6460657},{"NoteNumber":68,"Velocity":70,"Duration":97719,"SoundDuration":97719,"Delta":6460657},{"NoteNumber":77,"Velocity":82,"Duration":97719,"SoundDuration":97719,"Delta":6460657},{"NoteNumber":53,"Velocity":54,"Duration":97719,"SoundDuration":97719,"Delta":6460657},{"NoteNumber":62,"Velocity":64,"Duration":97719,"SoundDuration":97719,"Delta":6460657},{"NoteNumber":56,"Velocity":54,"Duration":97719,"SoundDuration":97719,"Delta":6460657},{"NoteNumber":65,"Velocity":74,"Duration":108695,"SoundDuration":108695,"Delta":6558377},{"NoteNumber":68,"Velocity":74,"Duration":108695,"SoundDuration":108695,"Delta":6558377},{"NoteNumber":77,"Velocity":90,"Duration":108695,"SoundDuration":108695,"Delta":6558377},{"NoteNumber":62,"Velocity":73,"Duration":108695,"SoundDuration":108695,"Delta":6558377},{"NoteNumber":56,"Velocity":63,"Duration":108695,"SoundDuration":108695,"Delta":6558377},{"NoteNumber":53,"Velocity":63,"Duration":108695,"SoundDuration":108695,"Delta":6558377},{"NoteNumber":62,"Velocity":65,"Duration":114068,"SoundDuration":114068,"Delta":7091558},{"NoteNumber":68,"Velocity":65,"Duration":114068,"SoundDuration":114068,"Delta":7091558},{"NoteNumber":74,"Velocity":78,"Duration":114068,"SoundDuration":114068,"Delta":7091558},{"NoteNumber":47,"Velocity":53,"Duration":114068,"SoundDuration":114068,"Delta":7091558},{"NoteNumber":53,"Velocity":53,"Duration":114068,"SoundDuration":114068,"Delta":7091558},{"NoteNumber":56,"Velocity":63,"Duration":114068,"SoundDuration":114068,"Delta":7091558},{"NoteNumber":62,"Velocity":72,"Duration":114068,"SoundDuration":114068,"Delta":7205627},{"NoteNumber":68,"Velocity":72,"Duration":114068,"SoundDuration":114068,"Delta":7205627},{"NoteNumber":74,"Velocity":85,"Duration":114068,"SoundDuration":114068,"Delta":7205627},{"NoteNumber":56,"Velocity":72,"Duration":114068,"SoundDuration":114068,"Delta":7205627},{"NoteNumber":53,"Velocity":60,"Duration":114068,"SoundDuration":114068,"Delta":7205627},{"NoteNumber":47,"Velocity":60,"Duration":114068,"SoundDuration":114068,"Delta":7205627},{"NoteNumber":61,"Velocity":67,"Duration":114068,"SoundDuration":114068,"Delta":7433764},{"NoteNumber":68,"Velocity":67,"Duration":114068,"SoundDuration":114068,"Delta":7433764},{"NoteNumber":73,"Velocity":80,"Duration":114068,"SoundDuration":114068,"Delta":7433764},{"NoteNumber":47,"Velocity":53,"Duration":114068,"SoundDuration":114068,"Delta":7433764},{"NoteNumber":52,"Velocity":53,"Duration":114068,"SoundDuration":114068,"Delta":7433764},{"NoteNumber":56,"Velocity":63,"Duration":114068,"SoundDuration":114068,"Delta":7433764},{"NoteNumber":62,"Velocity":72,"Duration":114068,"SoundDuration":114068,"Delta":7661901},{"NoteNumber":68,"Velocity":72,"Duration":114068,"SoundDuration":114068,"Delta":7661901},{"NoteNumber":74,"Velocity":85,"Duration":114068,"SoundDuration":114068,"Delta":7661901},{"NoteNumber":56,"Velocity":72,"Duration":114068,"SoundDuration":114068,"Delta":7661901},{"NoteNumber":53,"Velocity":60,"Duration":114068,"SoundDuration":114068,"Delta":7661901},{"NoteNumber":47,"Velocity":60,"Duration":114068,"SoundDuration":114068,"Delta":7661901},{"NoteNumber":63,"Velocity":45,"Duration":111690,"SoundDuration":111690,"Delta":8328701},{"NoteNumber":67,"Velocity":45,"Duration":111690,"SoundDuration":111690,"Delta":8328701},{"NoteNumber":75,"Velocity":53,"Duration":111690,"SoundDuration":111690,"Delta":8328701},{"NoteNumber":36,"Velocity":45,"Duration":111690,"SoundDuration":111690,"Delta":8328701},{"NoteNumber":43,"Velocity":45,"Duration":111690,"SoundDuration":111690,"Delta":8328701},{"NoteNumber":48,"Velocity":53,"Duration":111690,"SoundDuration":111690,"Delta":8328701},{"NoteNumber":60,"Velocity":40,"Duration":50287,"SoundDuration":50287,"Delta":8550284},{"NoteNumber":48,"Velocity":34,"Duration":50287,"SoundDuration":50287,"Delta":8550284},{"NoteNumber":62,"Velocity":41,"Duration":50573,"SoundDuration":50573,"Delta":8600572},{"NoteNumber":50,"Velocity":36,"Duration":50573,"SoundDuration":50573,"Delta":8600572},{"NoteNumber":63,"Velocity":44,"Duration":50827,"SoundDuration":50827,"Delta":8651145},{"NoteNumber":51,"Velocity":37,"Duration":50827,"SoundDuration":50827,"Delta":8651145},{"NoteNumber":65,"Velocity":45,"Duration":51104,"SoundDuration":51104,"Delta":8701972},{"NoteNumber":53,"Velocity":39,"Duration":51104,"SoundDuration":51104,"Delta":8701972},{"NoteNumber":67,"Velocity":47,"Duration":105041,"SoundDuration":105041,"Delta":8753077},{"NoteNumber":55,"Velocity":41,"Duration":105041,"SoundDuration":105041,"Delta":8753077},{"NoteNumber":65,"Velocity":47,"Duration":69875,"SoundDuration":69875,"Delta":8963161},{"NoteNumber":72,"Velocity":47,"Duration":69875,"SoundDuration":69875,"Delta":8963161},{"NoteNumber":77,"Velocity":57,"Duration":69875,"SoundDuration":69875,"Delta":8963161},{"NoteNumber":32,"Velocity":40,"Duration":69875,"SoundDuration":69875,"Delta":8963161},{"NoteNumber":41,"Velocity":40,"Duration":69875,"SoundDuration":69875,"Delta":8963161},{"NoteNumber":44,"Velocity":47,"Duration":69875,"SoundDuration":69875,"Delta":8963161},{"NoteNumber":84,"Velocity":59,"Duration":72347,"SoundDuration":72347,"Delta":9149496},{"NoteNumber":72,"Velocity":49,"Duration":72347,"SoundDuration":72347,"Delta":9149496},{"NoteNumber":75,"Velocity":49,"Duration":72347,"SoundDuration":72347,"Delta":9149496},{"NoteNumber":32,"Velocity":42,"Duration":72347,"SoundDuration":72347,"Delta":9149496},{"NoteNumber":41,"Velocity":42,"Duration":72347,"SoundDuration":72347,"Delta":9149496},{"NoteNumber":44,"Velocity":50,"Duration":72347,"SoundDuration":72347,"Delta":9149496},{"NoteNumber":74,"Velocity":51,"Duration":98360,"SoundDuration":98360,"Delta":9342422},{"NoteNumber":72,"Velocity":51,"Duration":98360,"SoundDuration":98360,"Delta":9342422},{"NoteNumber":84,"Velocity":60,"Duration":98360,"SoundDuration":98360,"Delta":9342422},{"NoteNumber":34,"Velocity":45,"Duration":98360,"SoundDuration":98360,"Delta":9342422},{"NoteNumber":41,"Velocity":45,"Duration":98360,"SoundDuration":98360,"Delta":9342422},{"NoteNumber":46,"Velocity":54,"Duration":98360,"SoundDuration":98360,"Delta":9342422},{"NoteNumber":65,"Velocity":42,"Duration":47373,"SoundDuration":47373,"Delta":9538808},{"NoteNumber":53,"Velocity":36,"Duration":47373,"SoundDuration":47373,"Delta":9538808},{"NoteNumber":63,"Velocity":43,"Duration":47589,"SoundDuration":47589,"Delta":9586181},{"NoteNumber":51,"Velocity":36,"Duration":47589,"SoundDuration":47589,"Delta":9586181},{"NoteNumber":62,"Velocity":45,"Duration":47905,"SoundDuration":47905,"Delta":9633770},{"NoteNumber":50,"Velocity":38,"Duration":47905,"SoundDuration":47905,"Delta":9633770},{"NoteNumber":60,"Velocity":46,"Duration":48224,"SoundDuration":48224,"Delta":9681676},{"NoteNumber":48,"Velocity":41,"Duration":48224,"SoundDuration":48224,"Delta":9681676},{"NoteNumber":58,"Velocity":49,"Duration":102179,"SoundDuration":102179,"Delta":9729900},{"NoteNumber":46,"Velocity":43,"Duration":102179,"SoundDuration":102179,"Delta":9729900},{"NoteNumber":70,"Velocity":54,"Duration":70093,"SoundDuration":70093,"Delta":9934260},{"NoteNumber":74,"Velocity":54,"Duration":70093,"SoundDuration":70093,"Delta":9934260},{"NoteNumber":82,"Velocity":64,"Duration":70093,"SoundDuration":70093,"Delta":9934260},{"NoteNumber":31,"Velocity":45,"Duration":70093,"SoundDuration":70093,"Delta":9934260},{"NoteNumber":39,"Velocity":45,"Duration":70093,"SoundDuration":70093,"Delta":9934260},{"NoteNumber":43,"Velocity":54,"Duration":70093,"SoundDuration":70093,"Delta":9934260},{"NoteNumber":87,"Velocity":66,"Duration":72347,"SoundDuration":72347,"Delta":10121176},{"NoteNumber":74,"Velocity":55,"Duration":72347,"SoundDuration":72347,"Delta":10121176},{"NoteNumber":82,"Velocity":55,"Duration":72347,"SoundDuration":72347,"Delta":10121176},{"NoteNumber":31,"Velocity":47,"Duration":72347,"SoundDuration":72347,"Delta":10121176},{"NoteNumber":39,"Velocity":47,"Duration":72347,"SoundDuration":72347,"Delta":10121176},{"NoteNumber":43,"Velocity":56,"Duration":72347,"SoundDuration":72347,"Delta":10121176},{"NoteNumber":80,"Velocity":57,"Duration":95541,"SoundDuration":95541,"Delta":10314102},{"NoteNumber":72,"Velocity":57,"Duration":95541,"SoundDuration":95541,"Delta":10314102},{"NoteNumber":87,"Velocity":68,"Duration":95541,"SoundDuration":95541,"Delta":10314102},{"NoteNumber":32,"Velocity":52,"Duration":95541,"SoundDuration":95541,"Delta":10314102},{"NoteNumber":39,"Velocity":52,"Duration":95541,"SoundDuration":95541,"Delta":10314102},{"NoteNumber":44,"Velocity":63,"Duration":95541,"SoundDuration":95541,"Delta":10314102},{"NoteNumber":56,"Velocity":47,"Duration":46980,"SoundDuration":46980,"Delta":10504901},{"NoteNumber":44,"Velocity":40,"Duration":46980,"SoundDuration":46980,"Delta":10504901},{"NoteNumber":58,"Velocity":48,"Duration":47241,"SoundDuration":47241,"Delta":10551882},{"NoteNumber":46,"Velocity":41,"Duration":47241,"SoundDuration":47241,"Delta":10551882},{"NoteNumber":60,"Velocity":51,"Duration":47533,"SoundDuration":47533,"Delta":10599123},{"NoteNumber":48,"Velocity":43,"Duration":47533,"SoundDuration":47533,"Delta":10599123},{"NoteNumber":62,"Velocity":52,"Duration":47814,"SoundDuration":47814,"Delta":10646657},{"NoteNumber":50,"Velocity":46,"Duration":47814,"SoundDuration":47814,"Delta":10646657},{"NoteNumber":63,"Velocity":56,"Duration":102529,"SoundDuration":102529,"Delta":10694471},{"NoteNumber":51,"Velocity":48,"Duration":102529,"SoundDuration":102529,"Delta":10694471},{"NoteNumber":80,"Velocity":61,"Duration":71428,"SoundDuration":71428,"Delta":10899529},{"NoteNumber":74,"Velocity":61,"Duration":71428,"SoundDuration":71428,"Delta":10899529},{"NoteNumber":84,"Velocity":61,"Duration":71428,"SoundDuration":71428,"Delta":10899529},{"NoteNumber":86,"Velocity":72,"Duration":71428,"SoundDuration":71428,"Delta":10899529},{"NoteNumber":29,"Velocity":51,"Duration":71428,"SoundDuration":71428,"Delta":10899529},{"NoteNumber":38,"Velocity":51,"Duration":71428,"SoundDuration":71428,"Delta":10899529},{"NoteNumber":41,"Velocity":61,"Duration":71428,"SoundDuration":71428,"Delta":10899529},{"NoteNumber":92,"Velocity":75,"Duration":75757,"SoundDuration":75757,"Delta":11090005},{"NoteNumber":80,"Velocity":63,"Duration":75757,"SoundDuration":75757,"Delta":11090005},{"NoteNumber":84,"Velocity":63,"Duration":75757,"SoundDuration":75757,"Delta":11090005},{"NoteNumber":29,"Velocity":54,"Duration":75757,"SoundDuration":75757,"Delta":11090005},{"NoteNumber":38,"Velocity":54,"Duration":75757,"SoundDuration":75757,"Delta":11090005},{"NoteNumber":41,"Velocity":63,"Duration":75757,"SoundDuration":75757,"Delta":11090005},{"NoteNumber":83,"Velocity":65,"Duration":98039,"SoundDuration":98039,"Delta":11292025},{"NoteNumber":80,"Velocity":65,"Duration":98039,"SoundDuration":98039,"Delta":11292025},{"NoteNumber":92,"Velocity":77,"Duration":98039,"SoundDuration":98039,"Delta":11292025},{"NoteNumber":31,"Velocity":58,"Duration":98039,"SoundDuration":98039,"Delta":11292025},{"NoteNumber":38,"Velocity":58,"Duration":98039,"SoundDuration":98039,"Delta":11292025},{"NoteNumber":43,"Velocity":70,"Duration":98039,"SoundDuration":98039,"Delta":11292025},{"NoteNumber":62,"Velocity":51,"Duration":46710,"SoundDuration":46710,"Delta":11488104},{"NoteNumber":50,"Velocity":43,"Duration":46710,"SoundDuration":46710,"Delta":11488104},{"NoteNumber":60,"Velocity":52,"Duration":46975,"SoundDuration":46975,"Delta":11534814},{"NoteNumber":48,"Velocity":45,"Duration":46975,"SoundDuration":46975,"Delta":11534814},{"NoteNumber":59,"Velocity":54,"Duration":47301,"SoundDuration":47301,"Delta":11581790},{"NoteNumber":47,"Velocity":47,"Duration":47301,"SoundDuration":47301,"Delta":11581790},{"NoteNumber":56,"Velocity":56,"Duration":47758,"SoundDuration":47758,"Delta":11629091},{"NoteNumber":44,"Velocity":50,"Duration":47758,"SoundDuration":47758,"Delta":11629091},{"NoteNumber":55,"Velocity":61,"Duration":96774,"SoundDuration":96774,"Delta":11676850},{"NoteNumber":43,"Velocity":53,"Duration":96774,"SoundDuration":96774,"Delta":11676850},{"NoteNumber":79,"Velocity":65,"Duration":77854,"SoundDuration":77854,"Delta":11870398},{"NoteNumber":82,"Velocity":65,"Duration":77854,"SoundDuration":77854,"Delta":11870398},{"NoteNumber":85,"Velocity":65,"Duration":77854,"SoundDuration":77854,"Delta":11870398},{"NoteNumber":91,"Velocity":79,"Duration":77854,"SoundDuration":77854,"Delta":11870398},{"NoteNumber":40,"Velocity":55,"Duration":77854,"SoundDuration":77854,"Delta":11870398},{"NoteNumber":49,"Velocity":55,"Duration":77854,"SoundDuration":77854,"Delta":11870398},{"NoteNumber":52,"Velocity":65,"Duration":77854,"SoundDuration":77854,"Delta":11870398},{"NoteNumber":94,"Velocity":67,"Duration":79225,"SoundDuration":79225,"Delta":12078011},{"NoteNumber":96,"Velocity":81,"Duration":79225,"SoundDuration":79225,"Delta":12078011},{"NoteNumber":84,"Velocity":67,"Duration":79225,"SoundDuration":79225,"Delta":12078011},{"NoteNumber":91,"Velocity":67,"Duration":79225,"SoundDuration":79225,"Delta":12078011},{"NoteNumber":40,"Velocity":57,"Duration":79225,"SoundDuration":79225,"Delta":12078011},{"NoteNumber":48,"Velocity":57,"Duration":79225,"SoundDuration":79225,"Delta":12078011},{"NoteNumber":52,"Velocity":69,"Duration":79225,"SoundDuration":79225,"Delta":12078011},{"NoteNumber":92,"Velocity":70,"Duration":97719,"SoundDuration":97719,"Delta":12288619},{"NoteNumber":84,"Velocity":70,"Duration":97719,"SoundDuration":97719,"Delta":12288619},{"NoteNumber":96,"Velocity":83,"Duration":97719,"SoundDuration":97719,"Delta":12288619},{"NoteNumber":41,"Velocity":63,"Duration":97719,"SoundDuration":97719,"Delta":12288619},{"NoteNumber":48,"Velocity":63,"Duration":97719,"SoundDuration":97719,"Delta":12288619},{"NoteNumber":53,"Velocity":75,"Duration":97719,"SoundDuration":97719,"Delta":12288619},{"NoteNumber":59,"Velocity":52,"Duration":47127,"SoundDuration":47127,"Delta":12484058},{"NoteNumber":47,"Velocity":44,"Duration":47127,"SoundDuration":47127,"Delta":12484058},{"NoteNumber":60,"Velocity":54,"Duration":47559,"SoundDuration":47559,"Delta":12531186},{"NoteNumber":48,"Velocity":46,"Duration":47559,"SoundDuration":47559,"Delta":12531186},{"NoteNumber":62,"Velocity":56,"Duration":48193,"SoundDuration":48193,"Delta":12578746},{"NoteNumber":50,"Velocity":48,"Duration":48193,"SoundDuration":48193,"Delta":12578746},{"NoteNumber":64,"Velocity":59,"Duration":48823,"SoundDuration":48823,"Delta":12626940},{"NoteNumber":52,"Velocity":52,"Duration":48823,"SoundDuration":48823,"Delta":12626940},{"NoteNumber":65,"Velocity":63,"Duration":117187,"SoundDuration":117187,"Delta":12675763},{"NoteNumber":53,"Velocity":54,"Duration":117187,"SoundDuration":117187,"Delta":12675763},{"NoteNumber":92,"Velocity":72,"Duration":131233,"SoundDuration":131233,"Delta":12910138},{"NoteNumber":89,"Velocity":72,"Duration":131233,"SoundDuration":131233,"Delta":12910138},{"NoteNumber":101,"Velocity":85,"Duration":131233,"SoundDuration":131233,"Delta":12910138},{"NoteNumber":37,"Velocity":64,"Duration":131233,"SoundDuration":131233,"Delta":12910138},{"NoteNumber":44,"Velocity":64,"Duration":131233,"SoundDuration":131233,"Delta":12910138},{"NoteNumber":49,"Velocity":77,"Duration":131233,"SoundDuration":131233,"Delta":12910138},{"NoteNumber":61,"Velocity":50,"Duration":47127,"SoundDuration":47127,"Delta":13172605},{"NoteNumber":49,"Velocity":47,"Duration":47127,"SoundDuration":47127,"Delta":13172605},{"NoteNumber":63,"Velocity":51,"Duration":47559,"SoundDuration":47559,"Delta":13219733},{"NoteNumber":51,"Velocity":49,"Duration":47559,"SoundDuration":47559,"Delta":13219733},{"NoteNumber":65,"Velocity":54,"Duration":48193,"SoundDuration":48193,"Delta":13267293},{"NoteNumber":53,"Velocity":51,"Duration":48193,"SoundDuration":48193,"Delta":13267293},{"NoteNumber":66,"Velocity":55,"Duration":48823,"SoundDuration":48823,"Delta":13315487},{"NoteNumber":54,"Velocity":53,"Duration":48823,"SoundDuration":48823,"Delta":13315487},{"NoteNumber":68,"Velocity":67,"Duration":113636,"SoundDuration":113636,"Delta":13364310},{"NoteNumber":56,"Velocity":60,"Duration":113636,"SoundDuration":113636,"Delta":13364310},{"NoteNumber":73,"Velocity":54,"Duration":47127,"SoundDuration":47127,"Delta":13591583},{"NoteNumber":61,"Velocity":49,"Duration":47127,"SoundDuration":47127,"Delta":13591583},{"NoteNumber":75,"Velocity":55,"Duration":47559,"SoundDuration":47559,"Delta":13638711},{"NoteNumber":63,"Velocity":51,"Duration":47559,"SoundDuration":47559,"Delta":13638711},{"NoteNumber":77,"Velocity":58,"Duration":48193,"SoundDuration":48193,"Delta":13686270},{"NoteNumber":65,"Velocity":53,"Duration":48193,"SoundDuration":48193,"Delta":13686270},{"NoteNumber":78,"Velocity":60,"Duration":48823,"SoundDuration":48823,"Delta":13734464},{"NoteNumber":66,"Velocity":54,"Duration":48823,"SoundDuration":48823,"Delta":13734464},{"NoteNumber":80,"Velocity":71,"Duration":113207,"SoundDuration":113207,"Delta":13783288},{"NoteNumber":68,"Velocity":63,"Duration":113207,"SoundDuration":113207,"Delta":13783288},{"NoteNumber":85,"Velocity":58,"Duration":49956,"SoundDuration":49956,"Delta":14006877},{"NoteNumber":73,"Velocity":51,"Duration":49956,"SoundDuration":49956,"Delta":14006877},{"NoteNumber":87,"Velocity":59,"Duration":50662,"SoundDuration":50662,"Delta":14056834},{"NoteNumber":75,"Velocity":53,"Duration":50662,"SoundDuration":50662,"Delta":14056834},{"NoteNumber":89,"Velocity":62,"Duration":51382,"SoundDuration":51382,"Delta":14107496},{"NoteNumber":77,"Velocity":54,"Duration":51382,"SoundDuration":51382,"Delta":14107496},{"NoteNumber":90,"Velocity":63,"Duration":52100,"SoundDuration":52100,"Delta":14158879},{"NoteNumber":78,"Velocity":57,"Duration":52100,"SoundDuration":52100,"Delta":14158879},{"NoteNumber":92,"Velocity":75,"Duration":128755,"SoundDuration":128755,"Delta":14210979},{"NoteNumber":80,"Velocity":64,"Duration":128755,"SoundDuration":128755,"Delta":14210979},{"NoteNumber":85,"Velocity":77,"Duration":101351,"SoundDuration":101351,"Delta":14597245},{"NoteNumber":89,"Velocity":77,"Duration":101351,"SoundDuration":101351,"Delta":14597245},{"NoteNumber":97,"Velocity":90,"Duration":101351,"SoundDuration":101351,"Delta":14597245},{"NoteNumber":41,"Velocity":68,"Duration":101351,"SoundDuration":101351,"Delta":14597245},{"NoteNumber":49,"Velocity":68,"Duration":101351,"SoundDuration":101351,"Delta":14597245},{"NoteNumber":53,"Velocity":81,"Duration":101351,"SoundDuration":101351,"Delta":14597245},{"NoteNumber":97,"Velocity":86,"Duration":108303,"SoundDuration":108303,"Delta":14698596},{"NoteNumber":89,"Velocity":72,"Duration":108303,"SoundDuration":108303,"Delta":14698596},{"NoteNumber":85,"Velocity":72,"Duration":108303,"SoundDuration":108303,"Delta":14698596},{"NoteNumber":41,"Velocity":61,"Duration":108303,"SoundDuration":108303,"Delta":14698596},{"NoteNumber":49,"Velocity":61,"Duration":108303,"SoundDuration":108303,"Delta":14698596},{"NoteNumber":53,"Velocity":72,"Duration":108303,"SoundDuration":108303,"Delta":14698596},{"NoteNumber":80,"Velocity":78,"Duration":108303,"SoundDuration":108303,"Delta":14915203},{"NoteNumber":85,"Velocity":78,"Duration":108303,"SoundDuration":108303,"Delta":14915203},{"NoteNumber":92,"Velocity":91,"Duration":108303,"SoundDuration":108303,"Delta":14915203},{"NoteNumber":44,"Velocity":67,"Duration":108303,"SoundDuration":108303,"Delta":14915203},{"NoteNumber":53,"Velocity":67,"Duration":108303,"SoundDuration":108303,"Delta":14915203},{"NoteNumber":56,"Velocity":81,"Duration":108303,"SoundDuration":108303,"Delta":14915203},{"NoteNumber":77,"Velocity":69,"Duration":101694,"SoundDuration":101694,"Delta":15240112},{"NoteNumber":80,"Velocity":69,"Duration":101694,"SoundDuration":101694,"Delta":15240112},{"NoteNumber":89,"Velocity":82,"Duration":101694,"SoundDuration":101694,"Delta":15240112},{"NoteNumber":49,"Velocity":62,"Duration":101694,"SoundDuration":101694,"Delta":15240112},{"NoteNumber":56,"Velocity":62,"Duration":101694,"SoundDuration":101694,"Delta":15240112},{"NoteNumber":61,"Velocity":73,"Duration":101694,"SoundDuration":101694,"Delta":15240112},{"NoteNumber":77,"Velocity":69,"Duration":109090,"SoundDuration":109090,"Delta":15341807},{"NoteNumber":80,"Velocity":69,"Duration":109090,"SoundDuration":109090,"Delta":15341807},{"NoteNumber":89,"Velocity":82,"Duration":109090,"SoundDuration":109090,"Delta":15341807},{"NoteNumber":49,"Velocity":62,"Duration":109090,"SoundDuration":109090,"Delta":15341807},{"NoteNumber":56,"Velocity":62,"Duration":109090,"SoundDuration":109090,"Delta":15341807},{"NoteNumber":61,"Velocity":73,"Duration":109090,"SoundDuration":109090,"Delta":15341807},{"NoteNumber":73,"Velocity":68,"Duration":100334,"SoundDuration":100334,"Delta":15875779},{"NoteNumber":77,"Velocity":68,"Duration":100334,"SoundDuration":100334,"Delta":15875779},{"NoteNumber":80,"Velocity":68,"Duration":100334,"SoundDuration":100334,"Delta":15875779},{"NoteNumber":85,"Velocity":81,"Duration":100334,"SoundDuration":100334,"Delta":15875779},{"NoteNumber":53,"Velocity":54,"Duration":100334,"SoundDuration":100334,"Delta":15875779},{"NoteNumber":56,"Velocity":54,"Duration":100334,"SoundDuration":100334,"Delta":15875779},{"NoteNumber":61,"Velocity":54,"Duration":100334,"SoundDuration":100334,"Delta":15875779},{"NoteNumber":65,"Velocity":66,"Duration":100334,"SoundDuration":100334,"Delta":15875779},{"NoteNumber":73,"Velocity":75,"Duration":113636,"SoundDuration":113636,"Delta":15976114},{"NoteNumber":77,"Velocity":75,"Duration":113636,"SoundDuration":113636,"Delta":15976114},{"NoteNumber":80,"Velocity":75,"Duration":113636,"SoundDuration":113636,"Delta":15976114},{"NoteNumber":85,"Velocity":89,"Duration":113636,"SoundDuration":113636,"Delta":15976114},{"NoteNumber":65,"Velocity":75,"Duration":113636,"SoundDuration":113636,"Delta":15976114},{"NoteNumber":61,"Velocity":63,"Duration":113636,"SoundDuration":113636,"Delta":15976114},{"NoteNumber":56,"Velocity":63,"Duration":113636,"SoundDuration":113636,"Delta":15976114},{"NoteNumber":53,"Velocity":63,"Duration":113636,"SoundDuration":113636,"Delta":15976114},{"NoteNumber":72,"Velocity":70,"Duration":113636,"SoundDuration":113636,"Delta":16203386},{"NoteNumber":76,"Velocity":70,"Duration":113636,"SoundDuration":113636,"Delta":16203386},{"NoteNumber":80,"Velocity":70,"Duration":113636,"SoundDuration":113636,"Delta":16203386},{"NoteNumber":84,"Velocity":83,"Duration":113636,"SoundDuration":113636,"Delta":16203386},{"NoteNumber":52,"Velocity":54,"Duration":113636,"SoundDuration":113636,"Delta":16203386},{"NoteNumber":56,"Velocity":54,"Duration":113636,"SoundDuration":113636,"Delta":16203386},{"NoteNumber":60,"Velocity":54,"Duration":113636,"SoundDuration":113636,"Delta":16203386},{"NoteNumber":64,"Velocity":66,"Duration":113636,"SoundDuration":113636,"Delta":16203386},{"NoteNumber":73,"Velocity":75,"Duration":113636,"SoundDuration":113636,"Delta":16430659},{"NoteNumber":77,"Velocity":75,"Duration":113636,"SoundDuration":113636,"Delta":16430659},{"NoteNumber":80,"Velocity":75,"Duration":113636,"SoundDuration":113636,"Delta":16430659},{"NoteNumber":85,"Velocity":89,"Duration":113636,"SoundDuration":113636,"Delta":16430659},{"NoteNumber":65,"Velocity":75,"Duration":113636,"SoundDuration":113636,"Delta":16430659},{"NoteNumber":61,"Velocity":63,"Duration":113636,"SoundDuration":113636,"Delta":16430659},{"NoteNumber":56,"Velocity":63,"Duration":113636,"SoundDuration":113636,"Delta":16430659},{"NoteNumber":53,"Velocity":63,"Duration":113636,"SoundDuration":113636,"Delta":16430659},{"NoteNumber":77,"Velocity":70,"Duration":109090,"SoundDuration":109090,"Delta":16885204},{"NoteNumber":80,"Velocity":70,"Duration":109090,"SoundDuration":109090,"Delta":16885204},{"NoteNumber":86,"Velocity":70,"Duration":109090,"SoundDuration":109090,"Delta":16885204},{"NoteNumber":89,"Velocity":79,"Duration":109090,"SoundDuration":109090,"Delta":16885204},{"NoteNumber":47,"Velocity":60,"Duration":109090,"SoundDuration":109090,"Delta":16885204},{"NoteNumber":53,"Velocity":60,"Duration":109090,"SoundDuration":109090,"Delta":16885204},{"NoteNumber":56,"Velocity":60,"Duration":109090,"SoundDuration":109090,"Delta":16885204},{"NoteNumber":59,"Velocity":67,"Duration":109090,"SoundDuration":109090,"Delta":16885204},{"NoteNumber":73,"Velocity":73,"Duration":101351,"SoundDuration":101351,"Delta":17212477},{"NoteNumber":85,"Velocity":87,"Duration":101351,"SoundDuration":101351,"Delta":17212477},{"NoteNumber":49,"Velocity":65,"Duration":101351,"SoundDuration":101351,"Delta":17212477},{"NoteNumber":61,"Velocity":78,"Duration":101351,"SoundDuration":101351,"Delta":17212477},{"NoteNumber":86,"Velocity":82,"Duration":108303,"SoundDuration":108303,"Delta":17313828},{"NoteNumber":74,"Velocity":70,"Duration":108303,"SoundDuration":108303,"Delta":17313828},{"NoteNumber":50,"Velocity":58,"Duration":108303,"SoundDuration":108303,"Delta":17313828},{"NoteNumber":62,"Velocity":70,"Duration":108303,"SoundDuration":108303,"Delta":17313828},{"NoteNumber":75,"Velocity":74,"Duration":108303,"SoundDuration":108303,"Delta":17530434},{"NoteNumber":78,"Velocity":74,"Duration":108303,"SoundDuration":108303,"Delta":17530434},{"NoteNumber":81,"Velocity":74,"Duration":108303,"SoundDuration":108303,"Delta":17530434},{"NoteNumber":87,"Velocity":88,"Duration":108303,"SoundDuration":108303,"Delta":17530434},{"NoteNumber":51,"Velocity":64,"Duration":108303,"SoundDuration":108303,"Delta":17530434},{"NoteNumber":54,"Velocity":64,"Duration":108303,"SoundDuration":108303,"Delta":17530434},{"NoteNumber":60,"Velocity":64,"Duration":108303,"SoundDuration":108303,"Delta":17530434},{"NoteNumber":63,"Velocity":77,"Duration":108303,"SoundDuration":108303,"Delta":17530434},{"NoteNumber":71,"Velocity":66,"Duration":101694,"SoundDuration":101694,"Delta":17855344},{"NoteNumber":83,"Velocity":79,"Duration":101694,"SoundDuration":101694,"Delta":17855344},{"NoteNumber":47,"Velocity":59,"Duration":101694,"SoundDuration":101694,"Delta":17855344},{"NoteNumber":59,"Velocity":71,"Duration":101694,"SoundDuration":101694,"Delta":17855344},{"NoteNumber":72,"Velocity":66,"Duration":109090,"SoundDuration":109090,"Delta":17957039},{"NoteNumber":84,"Velocity":79,"Duration":109090,"SoundDuration":109090,"Delta":17957039},{"NoteNumber":48,"Velocity":59,"Duration":109090,"SoundDuration":109090,"Delta":17957039},{"NoteNumber":60,"Velocity":71,"Duration":109090,"SoundDuration":109090,"Delta":17957039},{"NoteNumber":79,"Velocity":75,"Duration":101009,"SoundDuration":101009,"Delta":18175221},{"NoteNumber":83,"Velocity":81,"Duration":101009,"SoundDuration":101009,"Delta":18175221},{"NoteNumber":91,"Velocity":94,"Duration":101009,"SoundDuration":101009,"Delta":18175221},{"NoteNumber":55,"Velocity":57,"Duration":101009,"SoundDuration":101009,"Delta":18175221},{"NoteNumber":59,"Velocity":57,"Duration":101009,"SoundDuration":101009,"Delta":18175221},{"NoteNumber":62,"Velocity":57,"Duration":101009,"SoundDuration":101009,"Delta":18175221},{"NoteNumber":67,"Velocity":64,"Duration":101009,"SoundDuration":101009,"Delta":18175221},{"NoteNumber":38,"Velocity":77,"Duration":208716,"SoundDuration":208716,"Delta":18377241},{"NoteNumber":50,"Velocity":75,"Duration":104187,"SoundDuration":104187,"Delta":18481771},{"NoteNumber":36,"Velocity":73,"Duration":203871,"SoundDuration":203871,"Delta":18585958},{"NoteNumber":48,"Velocity":72,"Duration":101270,"SoundDuration":101270,"Delta":18688558},{"NoteNumber":35,"Velocity":71,"Duration":198689,"SoundDuration":198689,"Delta":18789829},{"NoteNumber":47,"Velocity":70,"Duration":98713,"SoundDuration":98713,"Delta":18889806},{"NoteNumber":32,"Velocity":68,"Duration":193759,"SoundDuration":193759,"Delta":18988519},{"NoteNumber":44,"Velocity":66,"Duration":96278,"SoundDuration":96278,"Delta":19085999},{"NoteNumber":31,"Velocity":79,"Duration":394819,"SoundDuration":394819,"Delta":19182278},{"NoteNumber":43,"Velocity":63,"Duration":276243,"SoundDuration":276243,"Delta":19300855},{"NoteNumber":87,"Velocity":79,"Duration":103806,"SoundDuration":103806,"Delta":19577098},{"NoteNumber":78,"Velocity":66,"Duration":103806,"SoundDuration":103806,"Delta":19577098},{"NoteNumber":75,"Velocity":66,"Duration":103806,"SoundDuration":103806,"Delta":19577098},{"NoteNumber":48,"Velocity":54,"Duration":103806,"SoundDuration":103806,"Delta":19577098},{"NoteNumber":54,"Velocity":64,"Duration":103806,"SoundDuration":103806,"Delta":19577098},{"NoteNumber":51,"Velocity":54,"Duration":103806,"SoundDuration":103806,"Delta":19577098},{"NoteNumber":45,"Velocity":54,"Duration":103806,"SoundDuration":103806,"Delta":19577098},{"NoteNumber":43,"Velocity":54,"Duration":103806,"SoundDuration":103806,"Delta":19577098},{"NoteNumber":84,"Velocity":73,"Duration":96774,"SoundDuration":96774,"Delta":19888517},{"NoteNumber":75,"Velocity":62,"Duration":96774,"SoundDuration":96774,"Delta":19888517},{"NoteNumber":72,"Velocity":62,"Duration":96774,"SoundDuration":96774,"Delta":19888517},{"NoteNumber":48,"Velocity":42,"Duration":96774,"SoundDuration":96774,"Delta":19888517},{"NoteNumber":54,"Velocity":51,"Duration":96774,"SoundDuration":96774,"Delta":19888517},{"NoteNumber":51,"Velocity":42,"Duration":96774,"SoundDuration":96774,"Delta":19888517},{"NoteNumber":45,"Velocity":42,"Duration":96774,"SoundDuration":96774,"Delta":19888517},{"NoteNumber":43,"Velocity":42,"Duration":96774,"SoundDuration":96774,"Delta":19888517},{"NoteNumber":72,"Velocity":66,"Duration":108303,"SoundDuration":108303,"Delta":19985291},{"NoteNumber":75,"Velocity":66,"Duration":108303,"SoundDuration":108303,"Delta":19985291},{"NoteNumber":84,"Velocity":79,"Duration":108303,"SoundDuration":108303,"Delta":19985291},{"NoteNumber":48,"Velocity":48,"Duration":108303,"SoundDuration":108303,"Delta":19985291},{"NoteNumber":54,"Velocity":56,"Duration":108303,"SoundDuration":108303,"Delta":19985291},{"NoteNumber":51,"Velocity":48,"Duration":108303,"SoundDuration":108303,"Delta":19985291},{"NoteNumber":45,"Velocity":48,"Duration":108303,"SoundDuration":108303,"Delta":19985291},{"NoteNumber":43,"Velocity":48,"Duration":108303,"SoundDuration":108303,"Delta":19985291},{"NoteNumber":69,"Velocity":61,"Duration":97719,"SoundDuration":97719,"Delta":20526807},{"NoteNumber":72,"Velocity":61,"Duration":97719,"SoundDuration":97719,"Delta":20526807},{"NoteNumber":81,"Velocity":72,"Duration":97719,"SoundDuration":97719,"Delta":20526807},{"NoteNumber":48,"Velocity":38,"Duration":97719,"SoundDuration":97719,"Delta":20526807},{"NoteNumber":43,"Velocity":38,"Duration":97719,"SoundDuration":97719,"Delta":20526807},{"NoteNumber":45,"Velocity":38,"Duration":97719,"SoundDuration":97719,"Delta":20526807},{"NoteNumber":54,"Velocity":45,"Duration":97719,"SoundDuration":97719,"Delta":20526807},{"NoteNumber":51,"Velocity":38,"Duration":97719,"SoundDuration":97719,"Delta":20526807},{"NoteNumber":69,"Velocity":64,"Duration":108303,"SoundDuration":108303,"Delta":20624527},{"NoteNumber":72,"Velocity":64,"Duration":108303,"SoundDuration":108303,"Delta":20624527},{"NoteNumber":81,"Velocity":79,"Duration":108303,"SoundDuration":108303,"Delta":20624527},{"NoteNumber":48,"Velocity":45,"Duration":108303,"SoundDuration":108303,"Delta":20624527},{"NoteNumber":54,"Velocity":52,"Duration":108303,"SoundDuration":108303,"Delta":20624527},{"NoteNumber":51,"Velocity":45,"Duration":108303,"SoundDuration":108303,"Delta":20624527},{"NoteNumber":45,"Velocity":45,"Duration":108303,"SoundDuration":108303,"Delta":20624527},{"NoteNumber":43,"Velocity":45,"Duration":108303,"SoundDuration":108303,"Delta":20624527},{"NoteNumber":66,"Velocity":61,"Duration":53571,"SoundDuration":53571,"Delta":21055419},{"NoteNumber":78,"Velocity":72,"Duration":53571,"SoundDuration":53571,"Delta":21055419},{"NoteNumber":43,"Velocity":38,"Duration":53571,"SoundDuration":53571,"Delta":21055419},{"NoteNumber":45,"Velocity":38,"Duration":53571,"SoundDuration":53571,"Delta":21055419},{"NoteNumber":48,"Velocity":38,"Duration":53571,"SoundDuration":53571,"Delta":21055419},{"NoteNumber":51,"Velocity":38,"Duration":53571,"SoundDuration":53571,"Delta":21055419},{"NoteNumber":54,"Velocity":45,"Duration":53571,"SoundDuration":53571,"Delta":21055419},{"NoteNumber":63,"Velocity":57,"Duration":53571,"SoundDuration":53571,"Delta":21162562},{"NoteNumber":75,"Velocity":68,"Duration":53571,"SoundDuration":53571,"Delta":21162562},{"NoteNumber":43,"Velocity":34,"Duration":53571,"SoundDuration":53571,"Delta":21162562},{"NoteNumber":45,"Velocity":34,"Duration":53571,"SoundDuration":53571,"Delta":21162562},{"NoteNumber":48,"Velocity":34,"Duration":53571,"SoundDuration":53571,"Delta":21162562},{"NoteNumber":51,"Velocity":34,"Duration":53571,"SoundDuration":53571,"Delta":21162562},{"NoteNumber":54,"Velocity":40,"Duration":53571,"SoundDuration":53571,"Delta":21162562},{"NoteNumber":62,"Velocity":57,"Duration":56818,"SoundDuration":56818,"Delta":21269705},{"NoteNumber":74,"Velocity":68,"Duration":56818,"SoundDuration":56818,"Delta":21269705},{"NoteNumber":43,"Velocity":34,"Duration":56818,"SoundDuration":56818,"Delta":21269705},{"NoteNumber":45,"Velocity":34,"Duration":56818,"SoundDuration":56818,"Delta":21269705},{"NoteNumber":48,"Velocity":34,"Duration":56818,"SoundDuration":56818,"Delta":21269705},{"NoteNumber":51,"Velocity":34,"Duration":56818,"SoundDuration":56818,"Delta":21269705},{"NoteNumber":54,"Velocity":40,"Duration":56818,"SoundDuration":56818,"Delta":21269705},{"NoteNumber":60,"Velocity":57,"Duration":56818,"SoundDuration":56818,"Delta":21383341},{"NoteNumber":72,"Velocity":68,"Duration":56818,"SoundDuration":56818,"Delta":21383341},{"NoteNumber":43,"Velocity":34,"Duration":56818,"SoundDuration":56818,"Delta":21383341},{"NoteNumber":45,"Velocity":34,"Duration":56818,"SoundDuration":56818,"Delta":21383341},{"NoteNumber":48,"Velocity":34,"Duration":56818,"SoundDuration":56818,"Delta":21383341},{"NoteNumber":51,"Velocity":34,"Duration":56818,"SoundDuration":56818,"Delta":21383341},{"NoteNumber":54,"Velocity":40,"Duration":56818,"SoundDuration":56818,"Delta":21383341},{"NoteNumber":67,"Velocity":64,"Duration":108695,"SoundDuration":108695,"Delta":21496977},{"NoteNumber":71,"Velocity":64,"Duration":108695,"SoundDuration":108695,"Delta":21496977},{"NoteNumber":79,"Velocity":76,"Duration":108695,"SoundDuration":108695,"Delta":21496977},{"NoteNumber":43,"Velocity":40,"Duration":108695,"SoundDuration":108695,"Delta":21496977},{"NoteNumber":47,"Velocity":40,"Duration":108695,"SoundDuration":108695,"Delta":21496977},{"NoteNumber":50,"Velocity":40,"Duration":108695,"SoundDuration":108695,"Delta":21496977},{"NoteNumber":55,"Velocity":48,"Duration":108695,"SoundDuration":108695,"Delta":21496977},{"NoteNumber":38,"Velocity":77,"Duration":206834,"SoundDuration":206834,"Delta":21713575},{"NoteNumber":50,"Velocity":75,"Duration":103386,"SoundDuration":103386,"Delta":21817023},{"NoteNumber":36,"Velocity":73,"Duration":201898,"SoundDuration":201898,"Delta":21920409},{"NoteNumber":48,"Velocity":72,"Duration":100138,"SoundDuration":100138,"Delta":22022170},{"NoteNumber":35,"Velocity":71,"Duration":195558,"SoundDuration":195558,"Delta":22122308},{"NoteNumber":47,"Velocity":70,"Duration":97026,"SoundDuration":97026,"Delta":22220840},{"NoteNumber":32,"Velocity":68,"Duration":190090,"SoundDuration":190090,"Delta":22317867},{"NoteNumber":44,"Velocity":66,"Duration":94590,"SoundDuration":94590,"Delta":22413367},{"NoteNumber":31,"Velocity":79,"Duration":378092,"SoundDuration":378092,"Delta":22507958},{"NoteNumber":43,"Velocity":63,"Duration":259515,"SoundDuration":259515,"Delta":22626535},{"NoteNumber":87,"Velocity":79,"Duration":103806,"SoundDuration":103806,"Delta":22886051},{"NoteNumber":78,"Velocity":66,"Duration":103806,"SoundDuration":103806,"Delta":22886051},{"NoteNumber":75,"Velocity":66,"Duration":103806,"SoundDuration":103806,"Delta":22886051},{"NoteNumber":48,"Velocity":54,"Duration":103806,"SoundDuration":103806,"Delta":22886051},{"NoteNumber":54,"Velocity":64,"Duration":103806,"SoundDuration":103806,"Delta":22886051},{"NoteNumber":51,"Velocity":54,"Duration":103806,"SoundDuration":103806,"Delta":22886051},{"NoteNumber":45,"Velocity":54,"Duration":103806,"SoundDuration":103806,"Delta":22886051},{"NoteNumber":43,"Velocity":54,"Duration":103806,"SoundDuration":103806,"Delta":22886051},{"NoteNumber":84,"Velocity":73,"Duration":96774,"SoundDuration":96774,"Delta":23197469},{"NoteNumber":75,"Velocity":62,"Duration":96774,"SoundDuration":96774,"Delta":23197469},{"NoteNumber":72,"Velocity":62,"Duration":96774,"SoundDuration":96774,"Delta":23197469},{"NoteNumber":48,"Velocity":42,"Duration":96774,"SoundDuration":96774,"Delta":23197469},{"NoteNumber":54,"Velocity":51,"Duration":96774,"SoundDuration":96774,"Delta":23197469},{"NoteNumber":51,"Velocity":42,"Duration":96774,"SoundDuration":96774,"Delta":23197469},{"NoteNumber":45,"Velocity":42,"Duration":96774,"SoundDuration":96774,"Delta":23197469},{"NoteNumber":43,"Velocity":42,"Duration":96774,"SoundDuration":96774,"Delta":23197469},{"NoteNumber":72,"Velocity":66,"Duration":108303,"SoundDuration":108303,"Delta":23294244},{"NoteNumber":75,"Velocity":66,"Duration":108303,"SoundDuration":108303,"Delta":23294244},{"NoteNumber":84,"Velocity":79,"Duration":108303,"SoundDuration":108303,"Delta":23294244},{"NoteNumber":48,"Velocity":48,"Duration":108303,"SoundDuration":108303,"Delta":23294244},{"NoteNumber":54,"Velocity":56,"Duration":108303,"SoundDuration":108303,"Delta":23294244},{"NoteNumber":51,"Velocity":48,"Duration":108303,"SoundDuration":108303,"Delta":23294244},{"NoteNumber":45,"Velocity":48,"Duration":108303,"SoundDuration":108303,"Delta":23294244},{"NoteNumber":43,"Velocity":48,"Duration":108303,"SoundDuration":108303,"Delta":23294244},{"NoteNumber":69,"Velocity":61,"Duration":97719,"SoundDuration":97719,"Delta":23835760},{"NoteNumber":72,"Velocity":61,"Duration":97719,"SoundDuration":97719,"Delta":23835760},{"NoteNumber":81,"Velocity":72,"Duration":97719,"SoundDuration":97719,"Delta":23835760},{"NoteNumber":48,"Velocity":38,"Duration":97719,"SoundDuration":97719,"Delta":23835760},{"NoteNumber":43,"Velocity":38,"Duration":97719,"SoundDuration":97719,"Delta":23835760},{"NoteNumber":45,"Velocity":38,"Duration":97719,"SoundDuration":97719,"Delta":23835760},{"NoteNumber":54,"Velocity":45,"Duration":97719,"SoundDuration":97719,"Delta":23835760},{"NoteNumber":51,"Velocity":38,"Duration":97719,"SoundDuration":97719,"Delta":23835760},{"NoteNumber":69,"Velocity":64,"Duration":108303,"SoundDuration":108303,"Delta":23933480},{"NoteNumber":72,"Velocity":64,"Duration":108303,"SoundDuration":108303,"Delta":23933480},{"NoteNumber":81,"Velocity":79,"Duration":108303,"SoundDuration":108303,"Delta":23933480},{"NoteNumber":48,"Velocity":45,"Duration":108303,"SoundDuration":108303,"Delta":23933480},{"NoteNumber":54,"Velocity":52,"Duration":108303,"SoundDuration":108303,"Delta":23933480},{"NoteNumber":51,"Velocity":45,"Duration":108303,"SoundDuration":108303,"Delta":23933480},{"NoteNumber":45,"Velocity":45,"Duration":108303,"SoundDuration":108303,"Delta":23933480},{"NoteNumber":43,"Velocity":45,"Duration":108303,"SoundDuration":108303,"Delta":23933480},{"NoteNumber":66,"Velocity":61,"Duration":53571,"SoundDuration":53571,"Delta":24364372},{"NoteNumber":78,"Velocity":72,"Duration":53571,"SoundDuration":53571,"Delta":24364372},{"NoteNumber":43,"Velocity":38,"Duration":53571,"SoundDuration":53571,"Delta":24364372},{"NoteNumber":45,"Velocity":38,"Duration":53571,"SoundDuration":53571,"Delta":24364372},{"NoteNumber":48,"Velocity":38,"Duration":53571,"SoundDuration":53571,"Delta":24364372},{"NoteNumber":51,"Velocity":38,"Duration":53571,"SoundDuration":53571,"Delta":24364372},{"NoteNumber":54,"Velocity":45,"Duration":53571,"SoundDuration":53571,"Delta":24364372},{"NoteNumber":63,"Velocity":57,"Duration":53571,"SoundDuration":53571,"Delta":24471514},{"NoteNumber":75,"Velocity":68,"Duration":53571,"SoundDuration":53571,"Delta":24471514},{"NoteNumber":43,"Velocity":34,"Duration":53571,"SoundDuration":53571,"Delta":24471514},{"NoteNumber":45,"Velocity":34,"Duration":53571,"SoundDuration":53571,"Delta":24471514},{"NoteNumber":48,"Velocity":34,"Duration":53571,"SoundDuration":53571,"Delta":24471514},{"NoteNumber":51,"Velocity":34,"Duration":53571,"SoundDuration":53571,"Delta":24471514},{"NoteNumber":54,"Velocity":40,"Duration":53571,"SoundDuration":53571,"Delta":24471514},{"NoteNumber":62,"Velocity":57,"Duration":56818,"SoundDuration":56818,"Delta":24578657},{"NoteNumber":74,"Velocity":68,"Duration":56818,"SoundDuration":56818,"Delta":24578657},{"NoteNumber":43,"Velocity":34,"Duration":56818,"SoundDuration":56818,"Delta":24578657},{"NoteNumber":45,"Velocity":34,"Duration":56818,"SoundDuration":56818,"Delta":24578657},{"NoteNumber":48,"Velocity":34,"Duration":56818,"SoundDuration":56818,"Delta":24578657},{"NoteNumber":51,"Velocity":34,"Duration":56818,"SoundDuration":56818,"Delta":24578657},{"NoteNumber":54,"Velocity":40,"Duration":56818,"SoundDuration":56818,"Delta":24578657},{"NoteNumber":60,"Velocity":57,"Duration":56818,"SoundDuration":56818,"Delta":24692293},{"NoteNumber":72,"Velocity":68,"Duration":56818,"SoundDuration":56818,"Delta":24692293},{"NoteNumber":43,"Velocity":34,"Duration":56818,"SoundDuration":56818,"Delta":24692293},{"NoteNumber":45,"Velocity":34,"Duration":56818,"SoundDuration":56818,"Delta":24692293},{"NoteNumber":48,"Velocity":34,"Duration":56818,"SoundDuration":56818,"Delta":24692293},{"NoteNumber":51,"Velocity":34,"Duration":56818,"SoundDuration":56818,"Delta":24692293},{"NoteNumber":54,"Velocity":40,"Duration":56818,"SoundDuration":56818,"Delta":24692293},{"NoteNumber":67,"Velocity":64,"Duration":118110,"SoundDuration":118110,"Delta":24805930},{"NoteNumber":71,"Velocity":64,"Duration":118110,"SoundDuration":118110,"Delta":24805930},{"NoteNumber":79,"Velocity":76,"Duration":118110,"SoundDuration":118110,"Delta":24805930},{"NoteNumber":43,"Velocity":40,"Duration":118110,"SoundDuration":118110,"Delta":24805930},{"NoteNumber":47,"Velocity":40,"Duration":118110,"SoundDuration":118110,"Delta":24805930},{"NoteNumber":50,"Velocity":40,"Duration":118110,"SoundDuration":118110,"Delta":24805930},{"NoteNumber":55,"Velocity":48,"Duration":118110,"SoundDuration":118110,"Delta":24805930},{"NoteNumber":50,"Velocity":55,"Duration":208637,"SoundDuration":208637,"Delta":25042150},{"NoteNumber":38,"Velocity":46,"Duration":208637,"SoundDuration":208637,"Delta":25042150},{"NoteNumber":62,"Velocity":55,"Duration":104107,"SoundDuration":104107,"Delta":25146680},{"NoteNumber":48,"Velocity":57,"Duration":196655,"SoundDuration":196655,"Delta":25250787},{"NoteNumber":36,"Velocity":48,"Duration":196655,"SoundDuration":196655,"Delta":25250787},{"NoteNumber":60,"Velocity":56,"Duration":98093,"SoundDuration":98093,"Delta":25349350},{"NoteNumber":47,"Velocity":60,"Duration":194664,"SoundDuration":194664,"Delta":25447443},{"NoteNumber":35,"Velocity":50,"Duration":194664,"SoundDuration":194664,"Delta":25447443},{"NoteNumber":59,"Velocity":58,"Duration":97090,"SoundDuration":97090,"Delta":25545018},{"NoteNumber":45,"Velocity":62,"Duration":192792,"SoundDuration":192792,"Delta":25642108},{"NoteNumber":33,"Velocity":52,"Duration":192792,"SoundDuration":192792,"Delta":25642108},{"NoteNumber":57,"Velocity":59,"Duration":96184,"SoundDuration":96184,"Delta":25738716},{"NoteNumber":43,"Velocity":70,"Duration":189325,"SoundDuration":189325,"Delta":25834901},{"NoteNumber":31,"Velocity":59,"Duration":189325,"SoundDuration":189325,"Delta":25834901},{"NoteNumber":55,"Velocity":61,"Duration":94688,"SoundDuration":94688,"Delta":25929538},{"NoteNumber":56,"Velocity":73,"Duration":195153,"SoundDuration":195153,"Delta":26024227},{"NoteNumber":44,"Velocity":62,"Duration":195153,"SoundDuration":195153,"Delta":26024227},{"NoteNumber":68,"Velocity":62,"Duration":97434,"SoundDuration":97434,"Delta":26121947},{"NoteNumber":54,"Velocity":65,"Duration":194039,"SoundDuration":194039,"Delta":26219381},{"NoteNumber":42,"Velocity":55,"Duration":194039,"SoundDuration":194039,"Delta":26219381},{"NoteNumber":66,"Velocity":63,"Duration":96881,"SoundDuration":96881,"Delta":26316539},{"NoteNumber":53,"Velocity":68,"Duration":192942,"SoundDuration":192942,"Delta":26413420},{"NoteNumber":41,"Velocity":57,"Duration":192942,"SoundDuration":192942,"Delta":26413420},{"NoteNumber":65,"Velocity":65,"Duration":96334,"SoundDuration":96334,"Delta":26510029},{"NoteNumber":51,"Velocity":72,"Duration":191806,"SoundDuration":191806,"Delta":26606363},{"NoteNumber":39,"Velocity":61,"Duration":191806,"SoundDuration":191806,"Delta":26606363},{"NoteNumber":63,"Velocity":66,"Duration":95744,"SoundDuration":95744,"Delta":26702424},{"NoteNumber":49,"Velocity":75,"Duration":292830,"SoundDuration":292830,"Delta":26798169},{"NoteNumber":37,"Velocity":54,"Duration":292830,"SoundDuration":292830,"Delta":26798169},{"NoteNumber":61,"Velocity":68,"Duration":178445,"SoundDuration":178445,"Delta":26907902},{"NoteNumber":80,"Velocity":68,"Duration":118110,"SoundDuration":118110,"Delta":27091000},{"NoteNumber":77,"Velocity":68,"Duration":118110,"SoundDuration":118110,"Delta":27091000},{"NoteNumber":85,"Velocity":68,"Duration":118110,"SoundDuration":118110,"Delta":27091000},{"NoteNumber":89,"Velocity":81,"Duration":118110,"SoundDuration":118110,"Delta":27091000},{"NoteNumber":49,"Velocity":54,"Duration":118110,"SoundDuration":118110,"Delta":27091000},{"NoteNumber":53,"Velocity":54,"Duration":118110,"SoundDuration":118110,"Delta":27091000},{"NoteNumber":56,"Velocity":54,"Duration":118110,"SoundDuration":118110,"Delta":27091000},{"NoteNumber":61,"Velocity":63,"Duration":118110,"SoundDuration":118110,"Delta":27091000},{"NoteNumber":86,"Velocity":70,"Duration":118110,"SoundDuration":118110,"Delta":27327221},{"NoteNumber":83,"Velocity":70,"Duration":118110,"SoundDuration":118110,"Delta":27327221},{"NoteNumber":79,"Velocity":70,"Duration":118110,"SoundDuration":118110,"Delta":27327221},{"NoteNumber":91,"Velocity":82,"Duration":118110,"SoundDuration":118110,"Delta":27327221},{"NoteNumber":43,"Velocity":59,"Duration":118110,"SoundDuration":118110,"Delta":27327221},{"NoteNumber":47,"Velocity":59,"Duration":118110,"SoundDuration":118110,"Delta":27327221},{"NoteNumber":50,"Velocity":59,"Duration":118110,"SoundDuration":118110,"Delta":27327221},{"NoteNumber":55,"Velocity":70,"Duration":118110,"SoundDuration":118110,"Delta":27327221},{"NoteNumber":50,"Velocity":61,"Duration":208637,"SoundDuration":208637,"Delta":27563441},{"NoteNumber":38,"Velocity":51,"Duration":208637,"SoundDuration":208637,"Delta":27563441},{"NoteNumber":62,"Velocity":61,"Duration":104107,"SoundDuration":104107,"Delta":27667971},{"NoteNumber":48,"Velocity":63,"Duration":196655,"SoundDuration":196655,"Delta":27772078},{"NoteNumber":36,"Velocity":53,"Duration":196655,"SoundDuration":196655,"Delta":27772078},{"NoteNumber":60,"Velocity":62,"Duration":98093,"SoundDuration":98093,"Delta":27870641},{"NoteNumber":47,"Velocity":65,"Duration":194664,"SoundDuration":194664,"Delta":27968734},{"NoteNumber":35,"Velocity":54,"Duration":194664,"SoundDuration":194664,"Delta":27968734},{"NoteNumber":59,"Velocity":63,"Duration":97090,"SoundDuration":97090,"Delta":28066309},{"NoteNumber":45,"Velocity":67,"Duration":192792,"SoundDuration":192792,"Delta":28163399},{"NoteNumber":33,"Velocity":56,"Duration":192792,"SoundDuration":192792,"Delta":28163399},{"NoteNumber":57,"Velocity":64,"Duration":96184,"SoundDuration":96184,"Delta":28260007},{"NoteNumber":43,"Velocity":76,"Duration":189325,"SoundDuration":189325,"Delta":28356192},{"NoteNumber":31,"Velocity":64,"Duration":189325,"SoundDuration":189325,"Delta":28356192},{"NoteNumber":55,"Velocity":66,"Duration":94688,"SoundDuration":94688,"Delta":28450829},{"NoteNumber":56,"Velocity":81,"Duration":195153,"SoundDuration":195153,"Delta":28545518},{"NoteNumber":44,"Velocity":67,"Duration":195153,"SoundDuration":195153,"Delta":28545518},{"NoteNumber":68,"Velocity":67,"Duration":97434,"SoundDuration":97434,"Delta":28643238},{"NoteNumber":54,"Velocity":72,"Duration":194039,"SoundDuration":194039,"Delta":28740672},{"NoteNumber":42,"Velocity":61,"Duration":194039,"SoundDuration":194039,"Delta":28740672},{"NoteNumber":66,"Velocity":70,"Duration":96881,"SoundDuration":96881,"Delta":28837830},{"NoteNumber":53,"Velocity":74,"Duration":192942,"SoundDuration":192942,"Delta":28934711},{"NoteNumber":41,"Velocity":63,"Duration":192942,"SoundDuration":192942,"Delta":28934711},{"NoteNumber":65,"Velocity":72,"Duration":96334,"SoundDuration":96334,"Delta":29031320},{"NoteNumber":51,"Velocity":79,"Duration":191806,"SoundDuration":191806,"Delta":29127654},{"NoteNumber":39,"Velocity":66,"Duration":191806,"SoundDuration":191806,"Delta":29127654},{"NoteNumber":63,"Velocity":72,"Duration":95745,"SoundDuration":95745,"Delta":29223715},{"NoteNumber":49,"Velocity":82,"Duration":292830,"SoundDuration":292830,"Delta":29319460},{"NoteNumber":37,"Velocity":59,"Duration":292830,"SoundDuration":292830,"Delta":29319460},{"NoteNumber":61,"Velocity":74,"Duration":178326,"SoundDuration":178326,"Delta":29433964},{"NoteNumber":80,"Velocity":57,"Duration":118110,"SoundDuration":118110,"Delta":29612291},{"NoteNumber":77,"Velocity":57,"Duration":118110,"SoundDuration":118110,"Delta":29612291},{"NoteNumber":85,"Velocity":57,"Duration":118110,"SoundDuration":118110,"Delta":29612291},{"NoteNumber":89,"Velocity":68,"Duration":118110,"SoundDuration":118110,"Delta":29612291},{"NoteNumber":49,"Velocity":36,"Duration":118110,"SoundDuration":118110,"Delta":29612291},{"NoteNumber":53,"Velocity":36,"Duration":118110,"SoundDuration":118110,"Delta":29612291},{"NoteNumber":56,"Velocity":36,"Duration":118110,"SoundDuration":118110,"Delta":29612291},{"NoteNumber":61,"Velocity":50,"Duration":118110,"SoundDuration":118110,"Delta":29612291},{"NoteNumber":91,"Velocity":66,"Duration":708661,"SoundDuration":708661,"Delta":29848512},{"NoteNumber":86,"Velocity":66,"Duration":708661,"SoundDuration":708661,"Delta":29848512},{"NoteNumber":83,"Velocity":66,"Duration":708661,"SoundDuration":708661,"Delta":29848512},{"NoteNumber":95,"Velocity":80,"Duration":708661,"SoundDuration":708661,"Delta":29848512},{"NoteNumber":43,"Velocity":39,"Duration":708661,"SoundDuration":708661,"Delta":29848512},{"NoteNumber":47,"Velocity":39,"Duration":708661,"SoundDuration":708661,"Delta":29848512},{"NoteNumber":50,"Velocity":39,"Duration":708661,"SoundDuration":708661,"Delta":29848512},{"NoteNumber":55,"Velocity":55,"Duration":708661,"SoundDuration":708661,"Delta":29848512},{"NoteNumber":84,"Velocity":67,"Duration":708661,"SoundDuration":708661,"Delta":30557173},{"NoteNumber":89,"Velocity":67,"Duration":708661,"SoundDuration":708661,"Delta":30557173},{"NoteNumber":92,"Velocity":67,"Duration":708661,"SoundDuration":708661,"Delta":30557173},{"NoteNumber":96,"Velocity":81,"Duration":708661,"SoundDuration":708661,"Delta":30557173},{"NoteNumber":41,"Velocity":46,"Duration":708661,"SoundDuration":708661,"Delta":30557173},{"NoteNumber":44,"Velocity":46,"Duration":708661,"SoundDuration":708661,"Delta":30557173},{"NoteNumber":48,"Velocity":46,"Duration":708661,"SoundDuration":708661,"Delta":30557173},{"NoteNumber":53,"Velocity":55,"Duration":708661,"SoundDuration":708661,"Delta":30557173},{"NoteNumber":85,"Velocity":72,"Duration":698495,"SoundDuration":698495,"Delta":31265835},{"NoteNumber":89,"Velocity":72,"Duration":698495,"SoundDuration":698495,"Delta":31265835},{"NoteNumber":92,"Velocity":72,"Duration":698495,"SoundDuration":698495,"Delta":31265835},{"NoteNumber":97,"Velocity":86,"Duration":698495,"SoundDuration":698495,"Delta":31265835},{"NoteNumber":37,"Velocity":50,"Duration":698495,"SoundDuration":698495,"Delta":31265835},{"NoteNumber":41,"Velocity":50,"Duration":698495,"SoundDuration":698495,"Delta":31265835},{"NoteNumber":44,"Velocity":50,"Duration":698495,"SoundDuration":698495,"Delta":31265835},{"NoteNumber":49,"Velocity":60,"Duration":698495,"SoundDuration":698495,"Delta":31265835},{"NoteNumber":86,"Velocity":77,"Duration":692997,"SoundDuration":692997,"Delta":31964330},{"NoteNumber":89,"Velocity":77,"Duration":692997,"SoundDuration":692997,"Delta":31964330},{"NoteNumber":92,"Velocity":77,"Duration":692997,"SoundDuration":692997,"Delta":31964330},{"NoteNumber":98,"Velocity":91,"Duration":692997,"SoundDuration":692997,"Delta":31964330},{"NoteNumber":36,"Velocity":54,"Duration":692997,"SoundDuration":692997,"Delta":31964330},{"NoteNumber":41,"Velocity":54,"Duration":692997,"SoundDuration":692997,"Delta":31964330},{"NoteNumber":44,"Velocity":54,"Duration":692997,"SoundDuration":692997,"Delta":31964330},{"NoteNumber":48,"Velocity":64,"Duration":692997,"SoundDuration":692997,"Delta":31964330},{"NoteNumber":101,"Velocity":86,"Duration":354330,"SoundDuration":354330,"Delta":32657328},{"NoteNumber":98,"Velocity":86,"Duration":354330,"SoundDuration":354330,"Delta":32657328},{"NoteNumber":96,"Velocity":72,"Duration":354330,"SoundDuration":354330,"Delta":32657328},{"NoteNumber":89,"Velocity":72,"Duration":354330,"SoundDuration":354330,"Delta":32657328},{"NoteNumber":32,"Velocity":55,"Duration":354330,"SoundDuration":354330,"Delta":32657328},{"NoteNumber":36,"Velocity":55,"Duration":354330,"SoundDuration":354330,"Delta":32657328},{"NoteNumber":38,"Velocity":55,"Duration":354330,"SoundDuration":354330,"Delta":32657328},{"NoteNumber":44,"Velocity":65,"Duration":354330,"SoundDuration":354330,"Delta":32657328},{"NoteNumber":89,"Velocity":72,"Duration":354330,"SoundDuration":354330,"Delta":33011659},{"NoteNumber":96,"Velocity":72,"Duration":354330,"SoundDuration":354330,"Delta":33011659},{"NoteNumber":98,"Velocity":86,"Duration":354330,"SoundDuration":354330,"Delta":33011659},{"NoteNumber":101,"Velocity":86,"Duration":354330,"SoundDuration":354330,"Delta":33011659},{"NoteNumber":32,"Velocity":55,"Duration":354330,"SoundDuration":354330,"Delta":33011659},{"NoteNumber":36,"Velocity":55,"Duration":354330,"SoundDuration":354330,"Delta":33011659},{"NoteNumber":38,"Velocity":55,"Duration":354330,"SoundDuration":354330,"Delta":33011659},{"NoteNumber":44,"Velocity":65,"Duration":354330,"SoundDuration":354330,"Delta":33011659},{"NoteNumber":89,"Velocity":72,"Duration":361446,"SoundDuration":361446,"Delta":33365989},{"NoteNumber":96,"Velocity":72,"Duration":361446,"SoundDuration":361446,"Delta":33365989},{"NoteNumber":98,"Velocity":86,"Duration":361446,"SoundDuration":361446,"Delta":33365989},{"NoteNumber":101,"Velocity":86,"Duration":361446,"SoundDuration":361446,"Delta":33365989},{"NoteNumber":32,"Velocity":55,"Duration":361446,"SoundDuration":361446,"Delta":33365989},{"NoteNumber":36,"Velocity":55,"Duration":361446,"SoundDuration":361446,"Delta":33365989},{"NoteNumber":38,"Velocity":55,"Duration":361446,"SoundDuration":361446,"Delta":33365989},{"NoteNumber":44,"Velocity":65,"Duration":361446,"SoundDuration":361446,"Delta":33365989},{"NoteNumber":89,"Velocity":72,"Duration":395711,"SoundDuration":395711,"Delta":33727435},{"NoteNumber":96,"Velocity":72,"Duration":395711,"SoundDuration":395711,"Delta":33727435},{"NoteNumber":98,"Velocity":86,"Duration":395711,"SoundDuration":395711,"Delta":33727435},{"NoteNumber":101,"Velocity":86,"Duration":395711,"SoundDuration":395711,"Delta":33727435},{"NoteNumber":32,"Velocity":55,"Duration":395711,"SoundDuration":395711,"Delta":33727435},{"NoteNumber":36,"Velocity":55,"Duration":395711,"SoundDuration":395711,"Delta":33727435},{"NoteNumber":38,"Velocity":55,"Duration":395711,"SoundDuration":395711,"Delta":33727435},{"NoteNumber":44,"Velocity":65,"Duration":395711,"SoundDuration":395711,"Delta":33727435},{"NoteNumber":50,"Velocity":72,"Duration":137614,"SoundDuration":137614,"Delta":34123147},{"NoteNumber":53,"Velocity":72,"Duration":137614,"SoundDuration":137614,"Delta":34123147},{"NoteNumber":59,"Velocity":79,"Duration":137614,"SoundDuration":137614,"Delta":34123147},{"NoteNumber":31,"Velocity":51,"Duration":137614,"SoundDuration":137614,"Delta":34123147},{"NoteNumber":35,"Velocity":51,"Duration":137614,"SoundDuration":137614,"Delta":34123147},{"NoteNumber":38,"Velocity":51,"Duration":137614,"SoundDuration":137614,"Delta":34123147},{"NoteNumber":43,"Velocity":61,"Duration":137614,"SoundDuration":137614,"Delta":34123147},{"NoteNumber":92,"Velocity":74,"Duration":56921,"SoundDuration":56921,"Delta":34395635},{"NoteNumber":80,"Velocity":62,"Duration":56921,"SoundDuration":56921,"Delta":34395635},{"NoteNumber":91,"Velocity":73,"Duration":55322,"SoundDuration":55322,"Delta":34452556},{"NoteNumber":79,"Velocity":61,"Duration":55322,"SoundDuration":55322,"Delta":34452556},{"NoteNumber":90,"Velocity":72,"Duration":55852,"SoundDuration":55852,"Delta":34507879},{"NoteNumber":78,"Velocity":59,"Duration":55852,"SoundDuration":55852,"Delta":34507879},{"NoteNumber":89,"Velocity":71,"Duration":55351,"SoundDuration":55351,"Delta":34562705},{"NoteNumber":77,"Velocity":58,"Duration":55351,"SoundDuration":55351,"Delta":34562705},{"NoteNumber":88,"Velocity":70,"Duration":53797,"SoundDuration":53797,"Delta":34618056},{"NoteNumber":76,"Velocity":56,"Duration":53797,"SoundDuration":53797,"Delta":34618056},{"NoteNumber":87,"Velocity":69,"Duration":54662,"SoundDuration":54662,"Delta":34671854},{"NoteNumber":75,"Velocity":55,"Duration":54662,"SoundDuration":54662,"Delta":34671854},{"NoteNumber":86,"Velocity":67,"Duration":54225,"SoundDuration":54225,"Delta":34726516},{"NoteNumber":74,"Velocity":54,"Duration":54225,"SoundDuration":54225,"Delta":34726516},{"NoteNumber":85,"Velocity":66,"Duration":55886,"SoundDuration":55886,"Delta":34780742},{"NoteNumber":73,"Velocity":53,"Duration":55886,"SoundDuration":55886,"Delta":34780742},{"NoteNumber":84,"Velocity":65,"Duration":56578,"SoundDuration":56578,"Delta":34835589},{"NoteNumber":72,"Velocity":52,"Duration":56578,"SoundDuration":56578,"Delta":34835589},{"NoteNumber":83,"Velocity":79,"Duration":137614,"SoundDuration":137614,"Delta":34891021},{"NoteNumber":71,"Velocity":60,"Duration":137614,"SoundDuration":137614,"Delta":34891021},{"NoteNumber":80,"Velocity":63,"Duration":56734,"SoundDuration":56734,"Delta":35165967},{"NoteNumber":68,"Velocity":52,"Duration":56734,"SoundDuration":56734,"Delta":35165967},{"NoteNumber":79,"Velocity":62,"Duration":55387,"SoundDuration":55387,"Delta":35222701},{"NoteNumber":67,"Velocity":51,"Duration":55387,"SoundDuration":55387,"Delta":35222701},{"NoteNumber":78,"Velocity":61,"Duration":54967,"SoundDuration":54967,"Delta":35278089},{"NoteNumber":66,"Velocity":50,"Duration":54967,"SoundDuration":54967,"Delta":35278089},{"NoteNumber":77,"Velocity":60,"Duration":55664,"SoundDuration":55664,"Delta":35333057},{"NoteNumber":65,"Velocity":49,"Duration":55664,"SoundDuration":55664,"Delta":35333057},{"NoteNumber":76,"Velocity":59,"Duration":54308,"SoundDuration":54308,"Delta":35387695},{"NoteNumber":64,"Velocity":47,"Duration":54308,"SoundDuration":54308,"Delta":35387695},{"NoteNumber":75,"Velocity":58,"Duration":55188,"SoundDuration":55188,"Delta":35443021},{"NoteNumber":63,"Velocity":46,"Duration":55188,"SoundDuration":55188,"Delta":35443021},{"NoteNumber":74,"Velocity":56,"Duration":54796,"SoundDuration":54796,"Delta":35498210},{"NoteNumber":62,"Velocity":45,"Duration":54796,"SoundDuration":54796,"Delta":35498210},{"NoteNumber":73,"Velocity":55,"Duration":55423,"SoundDuration":55423,"Delta":35553006},{"NoteNumber":61,"Velocity":45,"Duration":55423,"SoundDuration":55423,"Delta":35553006},{"NoteNumber":72,"Velocity":55,"Duration":57099,"SoundDuration":57099,"Delta":35608430},{"NoteNumber":60,"Velocity":44,"Duration":57099,"SoundDuration":57099,"Delta":35608430},{"NoteNumber":71,"Velocity":66,"Duration":137614,"SoundDuration":137614,"Delta":35664382},{"NoteNumber":59,"Velocity":50,"Duration":137614,"SoundDuration":137614,"Delta":35664382},{"NoteNumber":68,"Velocity":53,"Duration":56304,"SoundDuration":56304,"Delta":35938268},{"NoteNumber":56,"Velocity":44,"Duration":56304,"SoundDuration":56304,"Delta":35938268},{"NoteNumber":67,"Velocity":52,"Duration":54967,"SoundDuration":54967,"Delta":35994573},{"NoteNumber":55,"Velocity":43,"Duration":54967,"SoundDuration":54967,"Delta":35994573},{"NoteNumber":66,"Velocity":51,"Duration":54761,"SoundDuration":54761,"Delta":36049540},{"NoteNumber":54,"Velocity":42,"Duration":54761,"SoundDuration":54761,"Delta":36049540},{"NoteNumber":65,"Velocity":50,"Duration":55499,"SoundDuration":55499,"Delta":36104302},{"NoteNumber":53,"Velocity":41,"Duration":55499,"SoundDuration":55499,"Delta":36104302},{"NoteNumber":64,"Velocity":50,"Duration":54270,"SoundDuration":54270,"Delta":36158775},{"NoteNumber":52,"Velocity":40,"Duration":54270,"SoundDuration":54270,"Delta":36158775},{"NoteNumber":63,"Velocity":49,"Duration":55029,"SoundDuration":55029,"Delta":36214068},{"NoteNumber":51,"Velocity":39,"Duration":55029,"SoundDuration":55029,"Delta":36214068},{"NoteNumber":62,"Velocity":47,"Duration":54435,"SoundDuration":54435,"Delta":36269098},{"NoteNumber":50,"Velocity":38,"Duration":54435,"SoundDuration":54435,"Delta":36269098},{"NoteNumber":61,"Velocity":46,"Duration":54847,"SoundDuration":54847,"Delta":36323533},{"NoteNumber":49,"Velocity":37,"Duration":54847,"SoundDuration":54847,"Delta":36323533},{"NoteNumber":60,"Velocity":46,"Duration":56578,"SoundDuration":56578,"Delta":36378380},{"NoteNumber":48,"Velocity":36,"Duration":56578,"SoundDuration":56578,"Delta":36378380},{"NoteNumber":59,"Velocity":55,"Duration":137614,"SoundDuration":137614,"Delta":36433812},{"NoteNumber":47,"Velocity":42,"Duration":137614,"SoundDuration":137614,"Delta":36433812},{"NoteNumber":56,"Velocity":53,"Duration":54747,"SoundDuration":54747,"Delta":36709042},{"NoteNumber":44,"Velocity":44,"Duration":54747,"SoundDuration":54747,"Delta":36709042},{"NoteNumber":55,"Velocity":52,"Duration":54980,"SoundDuration":54980,"Delta":36763789},{"NoteNumber":43,"Velocity":43,"Duration":54980,"SoundDuration":54980,"Delta":36763789},{"NoteNumber":54,"Velocity":51,"Duration":55196,"SoundDuration":55196,"Delta":36819808},{"NoteNumber":42,"Velocity":42,"Duration":55196,"SoundDuration":55196,"Delta":36819808},{"NoteNumber":53,"Velocity":50,"Duration":55405,"SoundDuration":55405,"Delta":36875005},{"NoteNumber":41,"Velocity":41,"Duration":55405,"SoundDuration":55405,"Delta":36875005},{"NoteNumber":52,"Velocity":50,"Duration":55620,"SoundDuration":55620,"Delta":36930410},{"NoteNumber":40,"Velocity":40,"Duration":55620,"SoundDuration":55620,"Delta":36930410},{"NoteNumber":51,"Velocity":49,"Duration":55921,"SoundDuration":55921,"Delta":36987083},{"NoteNumber":39,"Velocity":39,"Duration":55921,"SoundDuration":55921,"Delta":36987083},{"NoteNumber":50,"Velocity":47,"Duration":56140,"SoundDuration":56140,"Delta":37043005},{"NoteNumber":38,"Velocity":38,"Duration":56140,"SoundDuration":56140,"Delta":37043005},{"NoteNumber":49,"Velocity":46,"Duration":56361,"SoundDuration":56361,"Delta":37100206},{"NoteNumber":37,"Velocity":37,"Duration":56361,"SoundDuration":56361,"Delta":37100206},{"NoteNumber":48,"Velocity":46,"Duration":56579,"SoundDuration":56579,"Delta":37156568},{"NoteNumber":36,"Velocity":36,"Duration":56579,"SoundDuration":56579,"Delta":37156568},{"NoteNumber":47,"Velocity":43,"Duration":57965,"SoundDuration":57965,"Delta":37213147},{"NoteNumber":35,"Velocity":35,"Duration":57965,"SoundDuration":57965,"Delta":37213147},{"NoteNumber":48,"Velocity":45,"Duration":56657,"SoundDuration":56657,"Delta":37271113},{"NoteNumber":36,"Velocity":36,"Duration":56657,"SoundDuration":56657,"Delta":37271113},{"NoteNumber":49,"Velocity":46,"Duration":56347,"SoundDuration":56347,"Delta":37327770},{"NoteNumber":37,"Velocity":36,"Duration":56347,"SoundDuration":56347,"Delta":37327770},{"NoteNumber":50,"Velocity":48,"Duration":56024,"SoundDuration":56024,"Delta":37384118},{"NoteNumber":38,"Velocity":38,"Duration":56024,"SoundDuration":56024,"Delta":37384118},{"NoteNumber":51,"Velocity":50,"Duration":55677,"SoundDuration":55677,"Delta":37440143},{"NoteNumber":39,"Velocity":39,"Duration":55677,"SoundDuration":55677,"Delta":37440143},{"NoteNumber":52,"Velocity":51,"Duration":55379,"SoundDuration":55379,"Delta":37496868},{"NoteNumber":40,"Velocity":40,"Duration":55379,"SoundDuration":55379,"Delta":37496868},{"NoteNumber":53,"Velocity":54,"Duration":55036,"SoundDuration":55036,"Delta":37552248},{"NoteNumber":41,"Velocity":41,"Duration":55036,"SoundDuration":55036,"Delta":37552248},{"NoteNumber":54,"Velocity":54,"Duration":54727,"SoundDuration":54727,"Delta":37608319},{"NoteNumber":42,"Velocity":43,"Duration":54727,"SoundDuration":54727,"Delta":37608319},{"NoteNumber":55,"Velocity":56,"Duration":54426,"SoundDuration":54426,"Delta":37663046},{"NoteNumber":43,"Velocity":44,"Duration":54426,"SoundDuration":54426,"Delta":37663046},{"NoteNumber":56,"Velocity":58,"Duration":54090,"SoundDuration":54090,"Delta":37717473},{"NoteNumber":44,"Velocity":45,"Duration":54090,"SoundDuration":54090,"Delta":37717473},{"NoteNumber":55,"Velocity":57,"Duration":54651,"SoundDuration":54651,"Delta":37772586},{"NoteNumber":43,"Velocity":44,"Duration":54651,"SoundDuration":54651,"Delta":37772586},{"NoteNumber":54,"Velocity":55,"Duration":55449,"SoundDuration":55449,"Delta":37827238},{"NoteNumber":42,"Velocity":43,"Duration":55449,"SoundDuration":55449,"Delta":37827238},{"NoteNumber":53,"Velocity":54,"Duration":56299,"SoundDuration":56299,"Delta":37883740},{"NoteNumber":41,"Velocity":41,"Duration":56299,"SoundDuration":56299,"Delta":37883740},{"NoteNumber":52,"Velocity":54,"Duration":57193,"SoundDuration":57193,"Delta":37940039},{"NoteNumber":40,"Velocity":40,"Duration":57193,"SoundDuration":57193,"Delta":37940039},{"NoteNumber":51,"Velocity":52,"Duration":58030,"SoundDuration":58030,"Delta":37997233},{"NoteNumber":39,"Velocity":39,"Duration":58030,"SoundDuration":58030,"Delta":37997233},{"NoteNumber":50,"Velocity":51,"Duration":58940,"SoundDuration":58940,"Delta":38056366},{"NoteNumber":38,"Velocity":38,"Duration":58940,"SoundDuration":58940,"Delta":38056366},{"NoteNumber":49,"Velocity":50,"Duration":59901,"SoundDuration":59901,"Delta":38115306},{"NoteNumber":37,"Velocity":37,"Duration":59901,"SoundDuration":59901,"Delta":38115306},{"NoteNumber":48,"Velocity":49,"Duration":60786,"SoundDuration":60786,"Delta":38176346},{"NoteNumber":36,"Velocity":36,"Duration":60786,"SoundDuration":60786,"Delta":38176346},{"NoteNumber":47,"Velocity":58,"Duration":275735,"SoundDuration":275735,"Delta":38235984},{"NoteNumber":35,"Velocity":50,"Duration":275735,"SoundDuration":275735,"Delta":38235984},{"NoteNumber":55,"Velocity":50,"Duration":275735,"SoundDuration":275735,"Delta":39063190},{"NoteNumber":43,"Velocity":50,"Duration":275735,"SoundDuration":275735,"Delta":39063190},{"NoteNumber":36,"Velocity":65,"Duration":209059,"SoundDuration":209059,"Delta":41544810},{"NoteNumber":48,"Velocity":66,"Duration":104529,"SoundDuration":104529,"Delta":41649339},{"NoteNumber":43,"Velocity":68,"Duration":208716,"SoundDuration":208716,"Delta":41753869},{"NoteNumber":55,"Velocity":71,"Duration":104187,"SoundDuration":104187,"Delta":41858398},{"NoteNumber":41,"Velocity":72,"Duration":203871,"SoundDuration":203871,"Delta":41962585},{"NoteNumber":53,"Velocity":73,"Duration":101270,"SoundDuration":101270,"Delta":42065186},{"NoteNumber":39,"Velocity":76,"Duration":198689,"SoundDuration":198689,"Delta":42166457},{"NoteNumber":51,"Velocity":78,"Duration":98713,"SoundDuration":98713,"Delta":42266433},{"NoteNumber":38,"Velocity":81,"Duration":193759,"SoundDuration":193759,"Delta":42365147},{"NoteNumber":50,"Velocity":82,"Duration":96278,"SoundDuration":96278,"Delta":42462627},{"NoteNumber":36,"Velocity":102,"Duration":431077,"SoundDuration":431077,"Delta":42558906},{"NoteNumber":48,"Velocity":76,"Duration":312500,"SoundDuration":312500,"Delta":42677483},{"NoteNumber":84,"Velocity":90,"Duration":103591,"SoundDuration":103591,"Delta":42989983},{"NoteNumber":75,"Velocity":76,"Duration":103591,"SoundDuration":103591,"Delta":42989983},{"NoteNumber":72,"Velocity":76,"Duration":103591,"SoundDuration":103591,"Delta":42989983},{"NoteNumber":60,"Velocity":91,"Duration":103591,"SoundDuration":103591,"Delta":42989983},{"NoteNumber":55,"Velocity":77,"Duration":103591,"SoundDuration":103591,"Delta":42989983},{"NoteNumber":51,"Velocity":77,"Duration":103591,"SoundDuration":103591,"Delta":42989983},{"NoteNumber":48,"Velocity":77,"Duration":103591,"SoundDuration":103591,"Delta":42989983},{"NoteNumber":79,"Velocity":84,"Duration":96774,"SoundDuration":96774,"Delta":43300757},{"NoteNumber":75,"Velocity":71,"Duration":96774,"SoundDuration":96774,"Delta":43300757},{"NoteNumber":72,"Velocity":71,"Duration":96774,"SoundDuration":96774,"Delta":43300757},{"NoteNumber":67,"Velocity":71,"Duration":96774,"SoundDuration":96774,"Delta":43300757},{"NoteNumber":60,"Velocity":72,"Duration":96774,"SoundDuration":96774,"Delta":43300757},{"NoteNumber":55,"Velocity":60,"Duration":96774,"SoundDuration":96774,"Delta":43300757},{"NoteNumber":51,"Velocity":60,"Duration":96774,"SoundDuration":96774,"Delta":43300757},{"NoteNumber":48,"Velocity":60,"Duration":96774,"SoundDuration":96774,"Delta":43300757},{"NoteNumber":67,"Velocity":76,"Duration":108303,"SoundDuration":108303,"Delta":43397531},{"NoteNumber":72,"Velocity":76,"Duration":108303,"SoundDuration":108303,"Delta":43397531},{"NoteNumber":75,"Velocity":76,"Duration":108303,"SoundDuration":108303,"Delta":43397531},{"NoteNumber":79,"Velocity":90,"Duration":108303,"SoundDuration":108303,"Delta":43397531},{"NoteNumber":60,"Velocity":80,"Duration":108303,"SoundDuration":108303,"Delta":43397531},{"NoteNumber":55,"Velocity":67,"Duration":108303,"SoundDuration":108303,"Delta":43397531},{"NoteNumber":51,"Velocity":67,"Duration":108303,"SoundDuration":108303,"Delta":43397531},{"NoteNumber":48,"Velocity":67,"Duration":108303,"SoundDuration":108303,"Delta":43397531},{"NoteNumber":63,"Velocity":70,"Duration":97719,"SoundDuration":97719,"Delta":43939047},{"NoteNumber":67,"Velocity":70,"Duration":97719,"SoundDuration":97719,"Delta":43939047},{"NoteNumber":75,"Velocity":82,"Duration":97719,"SoundDuration":97719,"Delta":43939047},{"NoteNumber":48,"Velocity":54,"Duration":97719,"SoundDuration":97719,"Delta":43939047},{"NoteNumber":51,"Velocity":54,"Duration":97719,"SoundDuration":97719,"Delta":43939047},{"NoteNumber":60,"Velocity":64,"Duration":97719,"SoundDuration":97719,"Delta":43939047},{"NoteNumber":55,"Velocity":54,"Duration":97719,"SoundDuration":97719,"Delta":43939047},{"NoteNumber":63,"Velocity":74,"Duration":108303,"SoundDuration":108303,"Delta":44036767},{"NoteNumber":67,"Velocity":74,"Duration":108303,"SoundDuration":108303,"Delta":44036767},{"NoteNumber":75,"Velocity":90,"Duration":108303,"SoundDuration":108303,"Delta":44036767},{"NoteNumber":60,"Velocity":73,"Duration":108303,"SoundDuration":108303,"Delta":44036767},{"NoteNumber":55,"Velocity":63,"Duration":108303,"SoundDuration":108303,"Delta":44036767},{"NoteNumber":51,"Velocity":63,"Duration":108303,"SoundDuration":108303,"Delta":44036767},{"NoteNumber":48,"Velocity":63,"Duration":108303,"SoundDuration":108303,"Delta":44036767},{"NoteNumber":63,"Velocity":65,"Duration":103092,"SoundDuration":103092,"Delta":44569163},{"NoteNumber":67,"Velocity":65,"Duration":103092,"SoundDuration":103092,"Delta":44569163},{"NoteNumber":72,"Velocity":78,"Duration":103092,"SoundDuration":103092,"Delta":44569163},{"NoteNumber":48,"Velocity":53,"Duration":103092,"SoundDuration":103092,"Delta":44569163},{"NoteNumber":51,"Velocity":53,"Duration":103092,"SoundDuration":103092,"Delta":44569163},{"NoteNumber":55,"Velocity":53,"Duration":103092,"SoundDuration":103092,"Delta":44569163},{"NoteNumber":60,"Velocity":63,"Duration":103092,"SoundDuration":103092,"Delta":44569163},{"NoteNumber":63,"Velocity":72,"Duration":119047,"SoundDuration":119047,"Delta":44672256},{"NoteNumber":67,"Velocity":72,"Duration":119047,"SoundDuration":119047,"Delta":44672256},{"NoteNumber":72,"Velocity":85,"Duration":119047,"SoundDuration":119047,"Delta":44672256},{"NoteNumber":60,"Velocity":72,"Duration":119047,"SoundDuration":119047,"Delta":44672256},{"NoteNumber":55,"Velocity":60,"Duration":119047,"SoundDuration":119047,"Delta":44672256},{"NoteNumber":51,"Velocity":60,"Duration":119047,"SoundDuration":119047,"Delta":44672256},{"NoteNumber":48,"Velocity":60,"Duration":119047,"SoundDuration":119047,"Delta":44672256},{"NoteNumber":63,"Velocity":67,"Duration":113636,"SoundDuration":113636,"Delta":44910351},{"NoteNumber":67,"Velocity":67,"Duration":113636,"SoundDuration":113636,"Delta":44910351},{"NoteNumber":71,"Velocity":80,"Duration":113636,"SoundDuration":113636,"Delta":44910351},{"NoteNumber":48,"Velocity":53,"Duration":113636,"SoundDuration":113636,"Delta":44910351},{"NoteNumber":51,"Velocity":53,"Duration":113636,"SoundDuration":113636,"Delta":44910351},{"NoteNumber":55,"Velocity":53,"Duration":113636,"SoundDuration":113636,"Delta":44910351},{"NoteNumber":59,"Velocity":63,"Duration":113636,"SoundDuration":113636,"Delta":44910351},{"NoteNumber":63,"Velocity":72,"Duration":113636,"SoundDuration":113636,"Delta":45137623},{"NoteNumber":67,"Velocity":72,"Duration":113636,"SoundDuration":113636,"Delta":45137623},{"NoteNumber":72,"Velocity":85,"Duration":113636,"SoundDuration":113636,"Delta":45137623},{"NoteNumber":60,"Velocity":72,"Duration":113636,"SoundDuration":113636,"Delta":45137623},{"NoteNumber":55,"Velocity":60,"Duration":113636,"SoundDuration":113636,"Delta":45137623},{"NoteNumber":51,"Velocity":60,"Duration":113636,"SoundDuration":113636,"Delta":45137623},{"NoteNumber":48,"Velocity":60,"Duration":113636,"SoundDuration":113636,"Delta":45137623},{"NoteNumber":35,"Velocity":55,"Duration":209059,"SoundDuration":209059,"Delta":45592168},{"NoteNumber":37,"Velocity":65,"Duration":209059,"SoundDuration":209059,"Delta":45592168},{"NoteNumber":49,"Velocity":66,"Duration":104529,"SoundDuration":104529,"Delta":45696698},{"NoteNumber":44,"Velocity":68,"Duration":208887,"SoundDuration":208887,"Delta":45801227},{"NoteNumber":56,"Velocity":71,"Duration":104358,"SoundDuration":104358,"Delta":45905757},{"NoteNumber":42,"Velocity":72,"Duration":204509,"SoundDuration":204509,"Delta":46010115},{"NoteNumber":54,"Velocity":73,"Duration":101627,"SoundDuration":101627,"Delta":46112997},{"NoteNumber":41,"Velocity":76,"Duration":199557,"SoundDuration":199557,"Delta":46214624},{"NoteNumber":53,"Velocity":78,"Duration":99193,"SoundDuration":99193,"Delta":46314988},{"NoteNumber":39,"Velocity":81,"Duration":194861,"SoundDuration":194861,"Delta":46414182},{"NoteNumber":51,"Velocity":82,"Duration":96848,"SoundDuration":96848,"Delta":46512195},{"NoteNumber":37,"Velocity":102,"Duration":409659,"SoundDuration":409659,"Delta":46609044},{"NoteNumber":49,"Velocity":76,"Duration":291082,"SoundDuration":291082,"Delta":46727621},{"NoteNumber":85,"Velocity":90,"Duration":103806,"SoundDuration":103806,"Delta":47063884},{"NoteNumber":77,"Velocity":76,"Duration":103806,"SoundDuration":103806,"Delta":47063884},{"NoteNumber":73,"Velocity":76,"Duration":103806,"SoundDuration":103806,"Delta":47063884},{"NoteNumber":47,"Velocity":77,"Duration":103806,"SoundDuration":103806,"Delta":47063884},{"NoteNumber":53,"Velocity":77,"Duration":103806,"SoundDuration":103806,"Delta":47063884},{"NoteNumber":56,"Velocity":77,"Duration":103806,"SoundDuration":103806,"Delta":47063884},{"NoteNumber":61,"Velocity":91,"Duration":103806,"SoundDuration":103806,"Delta":47063884},{"NoteNumber":80,"Velocity":84,"Duration":108303,"SoundDuration":108303,"Delta":47368584},{"NoteNumber":73,"Velocity":71,"Duration":108303,"SoundDuration":108303,"Delta":47368584},{"NoteNumber":68,"Velocity":71,"Duration":108303,"SoundDuration":108303,"Delta":47368584},{"NoteNumber":56,"Velocity":72,"Duration":108303,"SoundDuration":108303,"Delta":47368584},{"NoteNumber":53,"Velocity":60,"Duration":108303,"SoundDuration":108303,"Delta":47368584},{"NoteNumber":47,"Velocity":60,"Duration":108303,"SoundDuration":108303,"Delta":47368584},{"NoteNumber":68,"Velocity":76,"Duration":108303,"SoundDuration":108303,"Delta":47476887},{"NoteNumber":73,"Velocity":76,"Duration":108303,"SoundDuration":108303,"Delta":47476887},{"NoteNumber":80,"Velocity":90,"Duration":108303,"SoundDuration":108303,"Delta":47476887},{"NoteNumber":56,"Velocity":80,"Duration":108303,"SoundDuration":108303,"Delta":47476887},{"NoteNumber":53,"Velocity":67,"Duration":108303,"SoundDuration":108303,"Delta":47476887},{"NoteNumber":47,"Velocity":67,"Duration":108303,"SoundDuration":108303,"Delta":47476887},{"NoteNumber":65,"Velocity":70,"Duration":97719,"SoundDuration":97719,"Delta":48018403},{"NoteNumber":68,"Velocity":70,"Duration":97719,"SoundDuration":97719,"Delta":48018403},{"NoteNumber":77,"Velocity":82,"Duration":97719,"SoundDuration":97719,"Delta":48018403},{"NoteNumber":53,"Velocity":54,"Duration":97719,"SoundDuration":97719,"Delta":48018403},{"NoteNumber":61,"Velocity":64,"Duration":97719,"SoundDuration":97719,"Delta":48018403},{"NoteNumber":56,"Velocity":54,"Duration":97719,"SoundDuration":97719,"Delta":48018403},{"NoteNumber":65,"Velocity":74,"Duration":108695,"SoundDuration":108695,"Delta":48116123},{"NoteNumber":68,"Velocity":74,"Duration":108695,"SoundDuration":108695,"Delta":48116123},{"NoteNumber":77,"Velocity":90,"Duration":108695,"SoundDuration":108695,"Delta":48116123},{"NoteNumber":61,"Velocity":73,"Duration":108695,"SoundDuration":108695,"Delta":48116123},{"NoteNumber":56,"Velocity":63,"Duration":108695,"SoundDuration":108695,"Delta":48116123},{"NoteNumber":53,"Velocity":63,"Duration":108695,"SoundDuration":108695,"Delta":48116123},{"NoteNumber":61,"Velocity":65,"Duration":114068,"SoundDuration":114068,"Delta":48649304},{"NoteNumber":68,"Velocity":65,"Duration":114068,"SoundDuration":114068,"Delta":48649304},{"NoteNumber":73,"Velocity":78,"Duration":114068,"SoundDuration":114068,"Delta":48649304},{"NoteNumber":47,"Velocity":53,"Duration":114068,"SoundDuration":114068,"Delta":48649304},{"NoteNumber":53,"Velocity":53,"Duration":114068,"SoundDuration":114068,"Delta":48649304},{"NoteNumber":56,"Velocity":63,"Duration":114068,"SoundDuration":114068,"Delta":48649304},{"NoteNumber":61,"Velocity":72,"Duration":114068,"SoundDuration":114068,"Delta":48763373},{"NoteNumber":68,"Velocity":72,"Duration":114068,"SoundDuration":114068,"Delta":48763373},{"NoteNumber":73,"Velocity":85,"Duration":114068,"SoundDuration":114068,"Delta":48763373},{"NoteNumber":56,"Velocity":72,"Duration":114068,"SoundDuration":114068,"Delta":48763373},{"NoteNumber":53,"Velocity":60,"Duration":114068,"SoundDuration":114068,"Delta":48763373},{"NoteNumber":47,"Velocity":60,"Duration":114068,"SoundDuration":114068,"Delta":48763373},{"NoteNumber":60,"Velocity":67,"Duration":114068,"SoundDuration":114068,"Delta":48991510},{"NoteNumber":68,"Velocity":67,"Duration":114068,"SoundDuration":114068,"Delta":48991510},{"NoteNumber":72,"Velocity":80,"Duration":114068,"SoundDuration":114068,"Delta":48991510},{"NoteNumber":47,"Velocity":53,"Duration":114068,"SoundDuration":114068,"Delta":48991510},{"NoteNumber":52,"Velocity":53,"Duration":114068,"SoundDuration":114068,"Delta":48991510},{"NoteNumber":56,"Velocity":63,"Duration":114068,"SoundDuration":114068,"Delta":48991510},{"NoteNumber":61,"Velocity":72,"Duration":114068,"SoundDuration":114068,"Delta":49219647},{"NoteNumber":68,"Velocity":72,"Duration":114068,"SoundDuration":114068,"Delta":49219647},{"NoteNumber":73,"Velocity":85,"Duration":114068,"SoundDuration":114068,"Delta":49219647},{"NoteNumber":56,"Velocity":72,"Duration":114068,"SoundDuration":114068,"Delta":49219647},{"NoteNumber":53,"Velocity":60,"Duration":114068,"SoundDuration":114068,"Delta":49219647},{"NoteNumber":47,"Velocity":60,"Duration":114068,"SoundDuration":114068,"Delta":49219647},{"NoteNumber":62,"Velocity":45,"Duration":111690,"SoundDuration":111690,"Delta":49886447},{"NoteNumber":67,"Velocity":45,"Duration":111690,"SoundDuration":111690,"Delta":49886447},{"NoteNumber":74,"Velocity":53,"Duration":111690,"SoundDuration":111690,"Delta":49886447},{"NoteNumber":34,"Velocity":45,"Duration":111690,"SoundDuration":111690,"Delta":49886447},{"NoteNumber":41,"Velocity":45,"Duration":111690,"SoundDuration":111690,"Delta":49886447},{"NoteNumber":46,"Velocity":53,"Duration":111690,"SoundDuration":111690,"Delta":49886447},{"NoteNumber":58,"Velocity":40,"Duration":49760,"SoundDuration":49760,"Delta":50106763},{"NoteNumber":46,"Velocity":34,"Duration":49760,"SoundDuration":49760,"Delta":50106763},{"NoteNumber":60,"Velocity":41,"Duration":50131,"SoundDuration":50131,"Delta":50156523},{"NoteNumber":48,"Velocity":36,"Duration":50131,"SoundDuration":50131,"Delta":50156523},{"NoteNumber":62,"Velocity":44,"Duration":50539,"SoundDuration":50539,"Delta":50206655},{"NoteNumber":50,"Velocity":37,"Duration":50539,"SoundDuration":50539,"Delta":50206655},{"NoteNumber":63,"Velocity":45,"Duration":49827,"SoundDuration":49827,"Delta":50257194},{"NoteNumber":51,"Velocity":39,"Duration":49827,"SoundDuration":49827,"Delta":50257194},{"NoteNumber":65,"Velocity":47,"Duration":105041,"SoundDuration":105041,"Delta":50307021},{"NoteNumber":53,"Velocity":41,"Duration":105041,"SoundDuration":105041,"Delta":50307021},{"NoteNumber":63,"Velocity":47,"Duration":93167,"SoundDuration":93167,"Delta":50517105},{"NoteNumber":66,"Velocity":47,"Duration":93167,"SoundDuration":93167,"Delta":50517105},{"NoteNumber":75,"Velocity":57,"Duration":93167,"SoundDuration":93167,"Delta":50517105},{"NoteNumber":34,"Velocity":40,"Duration":93167,"SoundDuration":93167,"Delta":50517105},{"NoteNumber":42,"Velocity":40,"Duration":93167,"SoundDuration":93167,"Delta":50517105},{"NoteNumber":46,"Velocity":47,"Duration":93167,"SoundDuration":93167,"Delta":50517105},{"NoteNumber":78,"Velocity":59,"Duration":96462,"SoundDuration":96462,"Delta":50703441},{"NoteNumber":66,"Velocity":49,"Duration":96462,"SoundDuration":96462,"Delta":50703441},{"NoteNumber":70,"Velocity":49,"Duration":96462,"SoundDuration":96462,"Delta":50703441},{"NoteNumber":34,"Velocity":42,"Duration":96462,"SoundDuration":96462,"Delta":50703441},{"NoteNumber":39,"Velocity":42,"Duration":96462,"SoundDuration":96462,"Delta":50703441},{"NoteNumber":46,"Velocity":50,"Duration":96462,"SoundDuration":96462,"Delta":50703441},{"NoteNumber":74,"Velocity":51,"Duration":91743,"SoundDuration":91743,"Delta":50896367},{"NoteNumber":70,"Velocity":51,"Duration":91743,"SoundDuration":91743,"Delta":50896367},{"NoteNumber":82,"Velocity":60,"Duration":91743,"SoundDuration":91743,"Delta":50896367},{"NoteNumber":34,"Velocity":45,"Duration":91743,"SoundDuration":91743,"Delta":50896367},{"NoteNumber":41,"Velocity":45,"Duration":91743,"SoundDuration":91743,"Delta":50896367},{"NoteNumber":46,"Velocity":54,"Duration":91743,"SoundDuration":91743,"Delta":50896367},{"NoteNumber":65,"Velocity":42,"Duration":46593,"SoundDuration":46593,"Delta":51080512},{"NoteNumber":53,"Velocity":36,"Duration":46593,"SoundDuration":46593,"Delta":51080512},{"NoteNumber":63,"Velocity":43,"Duration":47111,"SoundDuration":47111,"Delta":51127106},{"NoteNumber":51,"Velocity":36,"Duration":47111,"SoundDuration":47111,"Delta":51127106},{"NoteNumber":62,"Velocity":45,"Duration":47664,"SoundDuration":47664,"Delta":51174217},{"NoteNumber":50,"Velocity":38,"Duration":47664,"SoundDuration":47664,"Delta":51174217},{"NoteNumber":60,"Velocity":46,"Duration":47444,"SoundDuration":47444,"Delta":51221882},{"NoteNumber":48,"Velocity":41,"Duration":47444,"SoundDuration":47444,"Delta":51221882},{"NoteNumber":58,"Velocity":49,"Duration":102179,"SoundDuration":102179,"Delta":51269326},{"NoteNumber":46,"Velocity":43,"Duration":102179,"SoundDuration":102179,"Delta":51269326},{"NoteNumber":71,"Velocity":54,"Duration":93457,"SoundDuration":93457,"Delta":51473686},{"NoteNumber":75,"Velocity":54,"Duration":93457,"SoundDuration":93457,"Delta":51473686},{"NoteNumber":83,"Velocity":64,"Duration":93457,"SoundDuration":93457,"Delta":51473686},{"NoteNumber":33,"Velocity":45,"Duration":93457,"SoundDuration":93457,"Delta":51473686},{"NoteNumber":42,"Velocity":45,"Duration":93457,"SoundDuration":93457,"Delta":51473686},{"NoteNumber":45,"Velocity":54,"Duration":93457,"SoundDuration":93457,"Delta":51473686},{"NoteNumber":87,"Velocity":66,"Duration":96462,"SoundDuration":96462,"Delta":51660602},{"NoteNumber":75,"Velocity":55,"Duration":96462,"SoundDuration":96462,"Delta":51660602},{"NoteNumber":83,"Velocity":55,"Duration":96462,"SoundDuration":96462,"Delta":51660602},{"NoteNumber":33,"Velocity":47,"Duration":96462,"SoundDuration":96462,"Delta":51660602},{"NoteNumber":42,"Velocity":47,"Duration":96462,"SoundDuration":96462,"Delta":51660602},{"NoteNumber":45,"Velocity":56,"Duration":96462,"SoundDuration":96462,"Delta":51660602},{"NoteNumber":83,"Velocity":57,"Duration":95541,"SoundDuration":95541,"Delta":51853528},{"NoteNumber":76,"Velocity":57,"Duration":95541,"SoundDuration":95541,"Delta":51853528},{"NoteNumber":88,"Velocity":68,"Duration":95541,"SoundDuration":95541,"Delta":51853528},{"NoteNumber":32,"Velocity":52,"Duration":95541,"SoundDuration":95541,"Delta":51853528},{"NoteNumber":40,"Velocity":52,"Duration":95541,"SoundDuration":95541,"Delta":51853528},{"NoteNumber":44,"Velocity":63,"Duration":95541,"SoundDuration":95541,"Delta":51853528},{"NoteNumber":64,"Velocity":47,"Duration":47152,"SoundDuration":47152,"Delta":52044611},{"NoteNumber":52,"Velocity":40,"Duration":47152,"SoundDuration":47152,"Delta":52044611},{"NoteNumber":66,"Velocity":48,"Duration":47569,"SoundDuration":47569,"Delta":52091764},{"NoteNumber":54,"Velocity":41,"Duration":47569,"SoundDuration":47569,"Delta":52091764},{"NoteNumber":68,"Velocity":51,"Duration":48046,"SoundDuration":48046,"Delta":52139333},{"NoteNumber":56,"Velocity":43,"Duration":48046,"SoundDuration":48046,"Delta":52139333},{"NoteNumber":69,"Velocity":52,"Duration":47278,"SoundDuration":47278,"Delta":52187379},{"NoteNumber":57,"Velocity":46,"Duration":47278,"SoundDuration":47278,"Delta":52187379},{"NoteNumber":71,"Velocity":56,"Duration":102528,"SoundDuration":102528,"Delta":52234658},{"NoteNumber":59,"Velocity":48,"Duration":102528,"SoundDuration":102528,"Delta":52234658},{"NoteNumber":75,"Velocity":61,"Duration":95238,"SoundDuration":95238,"Delta":52439716},{"NoteNumber":84,"Velocity":61,"Duration":95238,"SoundDuration":95238,"Delta":52439716},{"NoteNumber":87,"Velocity":72,"Duration":95238,"SoundDuration":95238,"Delta":52439716},{"NoteNumber":33,"Velocity":51,"Duration":95238,"SoundDuration":95238,"Delta":52439716},{"NoteNumber":42,"Velocity":51,"Duration":95238,"SoundDuration":95238,"Delta":52439716},{"NoteNumber":45,"Velocity":61,"Duration":95238,"SoundDuration":95238,"Delta":52439716},{"NoteNumber":96,"Velocity":75,"Duration":101010,"SoundDuration":101010,"Delta":52630192},{"NoteNumber":84,"Velocity":63,"Duration":101010,"SoundDuration":101010,"Delta":52630192},{"NoteNumber":87,"Velocity":63,"Duration":101010,"SoundDuration":101010,"Delta":52630192},{"NoteNumber":33,"Velocity":54,"Duration":101010,"SoundDuration":101010,"Delta":52630192},{"NoteNumber":42,"Velocity":54,"Duration":101010,"SoundDuration":101010,"Delta":52630192},{"NoteNumber":45,"Velocity":63,"Duration":101010,"SoundDuration":101010,"Delta":52630192},{"NoteNumber":88,"Velocity":65,"Duration":98039,"SoundDuration":98039,"Delta":52832212},{"NoteNumber":83,"Velocity":65,"Duration":98039,"SoundDuration":98039,"Delta":52832212},{"NoteNumber":95,"Velocity":77,"Duration":98039,"SoundDuration":98039,"Delta":52832212},{"NoteNumber":32,"Velocity":58,"Duration":98039,"SoundDuration":98039,"Delta":52832212},{"NoteNumber":40,"Velocity":58,"Duration":98039,"SoundDuration":98039,"Delta":52832212},{"NoteNumber":44,"Velocity":70,"Duration":98039,"SoundDuration":98039,"Delta":52832212},{"NoteNumber":71,"Velocity":51,"Duration":46301,"SoundDuration":46301,"Delta":53027383},{"NoteNumber":59,"Velocity":43,"Duration":46301,"SoundDuration":46301,"Delta":53027383},{"NoteNumber":69,"Velocity":52,"Duration":46601,"SoundDuration":46601,"Delta":53073684},{"NoteNumber":57,"Velocity":45,"Duration":46601,"SoundDuration":46601,"Delta":53073684},{"NoteNumber":68,"Velocity":54,"Duration":46902,"SoundDuration":46902,"Delta":53120285},{"NoteNumber":56,"Velocity":47,"Duration":46902,"SoundDuration":46902,"Delta":53120285},{"NoteNumber":66,"Velocity":56,"Duration":47234,"SoundDuration":47234,"Delta":53167188},{"NoteNumber":54,"Velocity":50,"Duration":47234,"SoundDuration":47234,"Delta":53167188},{"NoteNumber":64,"Velocity":61,"Duration":96774,"SoundDuration":96774,"Delta":53214422},{"NoteNumber":52,"Velocity":53,"Duration":96774,"SoundDuration":96774,"Delta":53214422},{"NoteNumber":82,"Velocity":65,"Duration":103806,"SoundDuration":103806,"Delta":53407971},{"NoteNumber":85,"Velocity":65,"Duration":103806,"SoundDuration":103806,"Delta":53407971},{"NoteNumber":94,"Velocity":79,"Duration":103806,"SoundDuration":103806,"Delta":53407971},{"NoteNumber":31,"Velocity":55,"Duration":103806,"SoundDuration":103806,"Delta":53407971},{"NoteNumber":40,"Velocity":55,"Duration":103806,"SoundDuration":103806,"Delta":53407971},{"NoteNumber":43,"Velocity":65,"Duration":103806,"SoundDuration":103806,"Delta":53407971},{"NoteNumber":97,"Velocity":81,"Duration":105633,"SoundDuration":105633,"Delta":53615583},{"NoteNumber":85,"Velocity":67,"Duration":105633,"SoundDuration":105633,"Delta":53615583},{"NoteNumber":94,"Velocity":67,"Duration":105633,"SoundDuration":105633,"Delta":53615583},{"NoteNumber":31,"Velocity":57,"Duration":105633,"SoundDuration":105633,"Delta":53615583},{"NoteNumber":40,"Velocity":57,"Duration":105633,"SoundDuration":105633,"Delta":53615583},{"NoteNumber":43,"Velocity":69,"Duration":105633,"SoundDuration":105633,"Delta":53615583},{"NoteNumber":93,"Velocity":70,"Duration":97719,"SoundDuration":97719,"Delta":53826191},{"NoteNumber":86,"Velocity":70,"Duration":97719,"SoundDuration":97719,"Delta":53826191},{"NoteNumber":98,"Velocity":83,"Duration":97719,"SoundDuration":97719,"Delta":53826191},{"NoteNumber":30,"Velocity":63,"Duration":97719,"SoundDuration":97719,"Delta":53826191},{"NoteNumber":38,"Velocity":63,"Duration":97719,"SoundDuration":97719,"Delta":53826191},{"NoteNumber":42,"Velocity":75,"Duration":97719,"SoundDuration":97719,"Delta":53826191},{"NoteNumber":62,"Velocity":52,"Duration":47127,"SoundDuration":47127,"Delta":54021631},{"NoteNumber":50,"Velocity":44,"Duration":47127,"SoundDuration":47127,"Delta":54021631},{"NoteNumber":64,"Velocity":54,"Duration":47559,"SoundDuration":47559,"Delta":54068759},{"NoteNumber":52,"Velocity":46,"Duration":47559,"SoundDuration":47559,"Delta":54068759},{"NoteNumber":66,"Velocity":56,"Duration":48193,"SoundDuration":48193,"Delta":54116318},{"NoteNumber":54,"Velocity":48,"Duration":48193,"SoundDuration":48193,"Delta":54116318},{"NoteNumber":67,"Velocity":59,"Duration":48823,"SoundDuration":48823,"Delta":54164512},{"NoteNumber":55,"Velocity":52,"Duration":48823,"SoundDuration":48823,"Delta":54164512},{"NoteNumber":69,"Velocity":63,"Duration":117187,"SoundDuration":117187,"Delta":54213336},{"NoteNumber":57,"Velocity":54,"Duration":117187,"SoundDuration":117187,"Delta":54213336},{"NoteNumber":95,"Velocity":72,"Duration":131233,"SoundDuration":131233,"Delta":54447711},{"NoteNumber":92,"Velocity":72,"Duration":131233,"SoundDuration":131233,"Delta":54447711},{"NoteNumber":86,"Velocity":72,"Duration":131233,"SoundDuration":131233,"Delta":54447711},{"NoteNumber":98,"Velocity":85,"Duration":131233,"SoundDuration":131233,"Delta":54447711},{"NoteNumber":29,"Velocity":64,"Duration":131233,"SoundDuration":131233,"Delta":54447711},{"NoteNumber":38,"Velocity":64,"Duration":131233,"SoundDuration":131233,"Delta":54447711},{"NoteNumber":41,"Velocity":77,"Duration":131233,"SoundDuration":131233,"Delta":54447711},{"NoteNumber":62,"Velocity":50,"Duration":47127,"SoundDuration":47127,"Delta":54710178},{"NoteNumber":50,"Velocity":47,"Duration":47127,"SoundDuration":47127,"Delta":54710178},{"NoteNumber":65,"Velocity":51,"Duration":47559,"SoundDuration":47559,"Delta":54757306},{"NoteNumber":53,"Velocity":49,"Duration":47559,"SoundDuration":47559,"Delta":54757306},{"NoteNumber":68,"Velocity":54,"Duration":48193,"SoundDuration":48193,"Delta":54804865},{"NoteNumber":56,"Velocity":51,"Duration":48193,"SoundDuration":48193,"Delta":54804865},{"NoteNumber":70,"Velocity":55,"Duration":48823,"SoundDuration":48823,"Delta":54853059},{"NoteNumber":58,"Velocity":53,"Duration":48823,"SoundDuration":48823,"Delta":54853059},{"NoteNumber":71,"Velocity":67,"Duration":113636,"SoundDuration":113636,"Delta":54901883},{"NoteNumber":59,"Velocity":60,"Duration":113636,"SoundDuration":113636,"Delta":54901883},{"NoteNumber":74,"Velocity":54,"Duration":47127,"SoundDuration":47127,"Delta":55129155},{"NoteNumber":62,"Velocity":49,"Duration":47127,"SoundDuration":47127,"Delta":55129155},{"NoteNumber":77,"Velocity":55,"Duration":47559,"SoundDuration":47559,"Delta":55176283},{"NoteNumber":65,"Velocity":51,"Duration":47559,"SoundDuration":47559,"Delta":55176283},{"NoteNumber":80,"Velocity":58,"Duration":48193,"SoundDuration":48193,"Delta":55223843},{"NoteNumber":68,"Velocity":53,"Duration":48193,"SoundDuration":48193,"Delta":55223843},{"NoteNumber":82,"Velocity":60,"Duration":48823,"SoundDuration":48823,"Delta":55272036},{"NoteNumber":70,"Velocity":54,"Duration":48823,"SoundDuration":48823,"Delta":55272036},{"NoteNumber":83,"Velocity":71,"Duration":113207,"SoundDuration":113207,"Delta":55320860},{"NoteNumber":71,"Velocity":63,"Duration":113207,"SoundDuration":113207,"Delta":55320860},{"NoteNumber":86,"Velocity":58,"Duration":49956,"SoundDuration":49956,"Delta":55544449},{"NoteNumber":74,"Velocity":51,"Duration":49956,"SoundDuration":49956,"Delta":55544449},{"NoteNumber":89,"Velocity":59,"Duration":50662,"SoundDuration":50662,"Delta":55594406},{"NoteNumber":77,"Velocity":53,"Duration":50662,"SoundDuration":50662,"Delta":55594406},{"NoteNumber":92,"Velocity":62,"Duration":51382,"SoundDuration":51382,"Delta":55645069},{"NoteNumber":80,"Velocity":54,"Duration":51382,"SoundDuration":51382,"Delta":55645069},{"NoteNumber":94,"Velocity":63,"Duration":52100,"SoundDuration":52100,"Delta":55696451},{"NoteNumber":82,"Velocity":57,"Duration":52100,"SoundDuration":52100,"Delta":55696451},{"NoteNumber":95,"Velocity":75,"Duration":128755,"SoundDuration":128755,"Delta":55748552},{"NoteNumber":83,"Velocity":64,"Duration":128755,"SoundDuration":128755,"Delta":55748552},{"NoteNumber":87,"Velocity":77,"Duration":101351,"SoundDuration":101351,"Delta":56134817},{"NoteNumber":95,"Velocity":77,"Duration":101351,"SoundDuration":101351,"Delta":56134817},{"NoteNumber":99,"Velocity":90,"Duration":101351,"SoundDuration":101351,"Delta":56134817},{"NoteNumber":30,"Velocity":68,"Duration":101351,"SoundDuration":101351,"Delta":56134817},{"NoteNumber":39,"Velocity":68,"Duration":101351,"SoundDuration":101351,"Delta":56134817},{"NoteNumber":42,"Velocity":81,"Duration":101351,"SoundDuration":101351,"Delta":56134817},{"NoteNumber":99,"Velocity":86,"Duration":108303,"SoundDuration":108303,"Delta":56236169},{"NoteNumber":95,"Velocity":72,"Duration":108303,"SoundDuration":108303,"Delta":56236169},{"NoteNumber":87,"Velocity":72,"Duration":108303,"SoundDuration":108303,"Delta":56236169},{"NoteNumber":30,"Velocity":61,"Duration":108303,"SoundDuration":108303,"Delta":56236169},{"NoteNumber":39,"Velocity":61,"Duration":108303,"SoundDuration":108303,"Delta":56236169},{"NoteNumber":42,"Velocity":72,"Duration":108303,"SoundDuration":108303,"Delta":56236169},{"NoteNumber":83,"Velocity":78,"Duration":108303,"SoundDuration":108303,"Delta":56452775},{"NoteNumber":87,"Velocity":78,"Duration":108303,"SoundDuration":108303,"Delta":56452775},{"NoteNumber":95,"Velocity":91,"Duration":108303,"SoundDuration":108303,"Delta":56452775},{"NoteNumber":35,"Velocity":67,"Duration":108303,"SoundDuration":108303,"Delta":56452775},{"NoteNumber":42,"Velocity":67,"Duration":108303,"SoundDuration":108303,"Delta":56452775},{"NoteNumber":47,"Velocity":81,"Duration":108303,"SoundDuration":108303,"Delta":56452775},{"NoteNumber":78,"Velocity":69,"Duration":101694,"SoundDuration":101694,"Delta":56777685},{"NoteNumber":83,"Velocity":69,"Duration":101694,"SoundDuration":101694,"Delta":56777685},{"NoteNumber":90,"Velocity":82,"Duration":101694,"SoundDuration":101694,"Delta":56777685},{"NoteNumber":39,"Velocity":62,"Duration":101694,"SoundDuration":101694,"Delta":56777685},{"NoteNumber":47,"Velocity":62,"Duration":101694,"SoundDuration":101694,"Delta":56777685},{"NoteNumber":51,"Velocity":73,"Duration":101694,"SoundDuration":101694,"Delta":56777685},{"NoteNumber":78,"Velocity":69,"Duration":109090,"SoundDuration":109090,"Delta":56879380},{"NoteNumber":83,"Velocity":69,"Duration":109090,"SoundDuration":109090,"Delta":56879380},{"NoteNumber":90,"Velocity":82,"Duration":109090,"SoundDuration":109090,"Delta":56879380},{"NoteNumber":39,"Velocity":62,"Duration":109090,"SoundDuration":109090,"Delta":56879380},{"NoteNumber":47,"Velocity":62,"Duration":109090,"SoundDuration":109090,"Delta":56879380},{"NoteNumber":51,"Velocity":73,"Duration":109090,"SoundDuration":109090,"Delta":56879380},{"NoteNumber":75,"Velocity":68,"Duration":100334,"SoundDuration":100334,"Delta":57413352},{"NoteNumber":83,"Velocity":68,"Duration":100334,"SoundDuration":100334,"Delta":57413352},{"NoteNumber":87,"Velocity":81,"Duration":100334,"SoundDuration":100334,"Delta":57413352},{"NoteNumber":42,"Velocity":54,"Duration":100334,"SoundDuration":100334,"Delta":57413352},{"NoteNumber":47,"Velocity":54,"Duration":100334,"SoundDuration":100334,"Delta":57413352},{"NoteNumber":54,"Velocity":66,"Duration":100334,"SoundDuration":100334,"Delta":57413352},{"NoteNumber":75,"Velocity":75,"Duration":113636,"SoundDuration":113636,"Delta":57513686},{"NoteNumber":83,"Velocity":75,"Duration":113636,"SoundDuration":113636,"Delta":57513686},{"NoteNumber":87,"Velocity":89,"Duration":113636,"SoundDuration":113636,"Delta":57513686},{"NoteNumber":54,"Velocity":75,"Duration":113636,"SoundDuration":113636,"Delta":57513686},{"NoteNumber":47,"Velocity":63,"Duration":113636,"SoundDuration":113636,"Delta":57513686},{"NoteNumber":42,"Velocity":63,"Duration":113636,"SoundDuration":113636,"Delta":57513686},{"NoteNumber":74,"Velocity":70,"Duration":113636,"SoundDuration":113636,"Delta":57740959},{"NoteNumber":83,"Velocity":70,"Duration":113636,"SoundDuration":113636,"Delta":57740959},{"NoteNumber":86,"Velocity":83,"Duration":113636,"SoundDuration":113636,"Delta":57740959},{"NoteNumber":41,"Velocity":54,"Duration":113636,"SoundDuration":113636,"Delta":57740959},{"NoteNumber":47,"Velocity":54,"Duration":113636,"SoundDuration":113636,"Delta":57740959},{"NoteNumber":53,"Velocity":66,"Duration":113636,"SoundDuration":113636,"Delta":57740959},{"NoteNumber":75,"Velocity":75,"Duration":113636,"SoundDuration":113636,"Delta":57968231},{"NoteNumber":83,"Velocity":75,"Duration":113636,"SoundDuration":113636,"Delta":57968231},{"NoteNumber":87,"Velocity":89,"Duration":113636,"SoundDuration":113636,"Delta":57968231},{"NoteNumber":54,"Velocity":75,"Duration":113636,"SoundDuration":113636,"Delta":57968231},{"NoteNumber":47,"Velocity":63,"Duration":113636,"SoundDuration":113636,"Delta":57968231},{"NoteNumber":42,"Velocity":63,"Duration":113636,"SoundDuration":113636,"Delta":57968231},{"NoteNumber":78,"Velocity":70,"Duration":109090,"SoundDuration":109090,"Delta":58422776},{"NoteNumber":83,"Velocity":70,"Duration":109090,"SoundDuration":109090,"Delta":58422776},{"NoteNumber":90,"Velocity":79,"Duration":109090,"SoundDuration":109090,"Delta":58422776},{"NoteNumber":44,"Velocity":60,"Duration":109090,"SoundDuration":109090,"Delta":58422776},{"NoteNumber":51,"Velocity":60,"Duration":109090,"SoundDuration":109090,"Delta":58422776},{"NoteNumber":56,"Velocity":67,"Duration":109090,"SoundDuration":109090,"Delta":58422776},{"NoteNumber":74,"Velocity":73,"Duration":101351,"SoundDuration":101351,"Delta":58750049},{"NoteNumber":86,"Velocity":87,"Duration":101351,"SoundDuration":101351,"Delta":58750049},{"NoteNumber":50,"Velocity":65,"Duration":101351,"SoundDuration":101351,"Delta":58750049},{"NoteNumber":62,"Velocity":78,"Duration":101351,"SoundDuration":101351,"Delta":58750049},{"NoteNumber":87,"Velocity":82,"Duration":108303,"SoundDuration":108303,"Delta":58851400},{"NoteNumber":75,"Velocity":70,"Duration":108303,"SoundDuration":108303,"Delta":58851400},{"NoteNumber":51,"Velocity":58,"Duration":108303,"SoundDuration":108303,"Delta":58851400},{"NoteNumber":63,"Velocity":70,"Duration":108303,"SoundDuration":108303,"Delta":58851400},{"NoteNumber":78,"Velocity":74,"Duration":108303,"SoundDuration":108303,"Delta":59068007},{"NoteNumber":84,"Velocity":74,"Duration":108303,"SoundDuration":108303,"Delta":59068007},{"NoteNumber":90,"Velocity":88,"Duration":108303,"SoundDuration":108303,"Delta":59068007},{"NoteNumber":45,"Velocity":64,"Duration":108303,"SoundDuration":108303,"Delta":59068007},{"NoteNumber":51,"Velocity":64,"Duration":108303,"SoundDuration":108303,"Delta":59068007},{"NoteNumber":54,"Velocity":64,"Duration":108303,"SoundDuration":108303,"Delta":59068007},{"NoteNumber":57,"Velocity":77,"Duration":108303,"SoundDuration":108303,"Delta":59068007},{"NoteNumber":74,"Velocity":66,"Duration":101694,"SoundDuration":101694,"Delta":59392917},{"NoteNumber":86,"Velocity":79,"Duration":101694,"SoundDuration":101694,"Delta":59392917},{"NoteNumber":50,"Velocity":59,"Duration":101694,"SoundDuration":101694,"Delta":59392917},{"NoteNumber":62,"Velocity":71,"Duration":101694,"SoundDuration":101694,"Delta":59392917},{"NoteNumber":75,"Velocity":66,"Duration":109090,"SoundDuration":109090,"Delta":59494612},{"NoteNumber":87,"Velocity":79,"Duration":109090,"SoundDuration":109090,"Delta":59494612},{"NoteNumber":51,"Velocity":59,"Duration":109090,"SoundDuration":109090,"Delta":59494612},{"NoteNumber":63,"Velocity":71,"Duration":109090,"SoundDuration":109090,"Delta":59494612},{"NoteNumber":82,"Velocity":75,"Duration":109090,"SoundDuration":109090,"Delta":59712794},{"NoteNumber":86,"Velocity":81,"Duration":109090,"SoundDuration":109090,"Delta":59712794},{"NoteNumber":94,"Velocity":94,"Duration":109090,"SoundDuration":109090,"Delta":59712794},{"NoteNumber":46,"Velocity":57,"Duration":109090,"SoundDuration":109090,"Delta":59712794},{"NoteNumber":53,"Velocity":57,"Duration":109090,"SoundDuration":109090,"Delta":59712794},{"NoteNumber":58,"Velocity":64,"Duration":109090,"SoundDuration":109090,"Delta":59712794},{"NoteNumber":41,"Velocity":77,"Duration":208716,"SoundDuration":208716,"Delta":59930976},{"NoteNumber":53,"Velocity":75,"Duration":104187,"SoundDuration":104187,"Delta":60035505},{"NoteNumber":39,"Velocity":73,"Duration":203871,"SoundDuration":203871,"Delta":60139692},{"NoteNumber":51,"Velocity":72,"Duration":101270,"SoundDuration":101270,"Delta":60242293},{"NoteNumber":38,"Velocity":71,"Duration":198689,"SoundDuration":198689,"Delta":60343563},{"NoteNumber":50,"Velocity":70,"Duration":98713,"SoundDuration":98713,"Delta":60443540},{"NoteNumber":35,"Velocity":68,"Duration":193759,"SoundDuration":193759,"Delta":60542253},{"NoteNumber":47,"Velocity":66,"Duration":96278,"SoundDuration":96278,"Delta":60639734},{"NoteNumber":34,"Velocity":79,"Duration":394820,"SoundDuration":394820,"Delta":60736013},{"NoteNumber":46,"Velocity":63,"Duration":276243,"SoundDuration":276243,"Delta":60854590},{"NoteNumber":90,"Velocity":79,"Duration":103806,"SoundDuration":103806,"Delta":61130833},{"NoteNumber":81,"Velocity":66,"Duration":103806,"SoundDuration":103806,"Delta":61130833},{"NoteNumber":78,"Velocity":66,"Duration":103806,"SoundDuration":103806,"Delta":61130833},{"NoteNumber":51,"Velocity":54,"Duration":103806,"SoundDuration":103806,"Delta":61130833},{"NoteNumber":57,"Velocity":64,"Duration":103806,"SoundDuration":103806,"Delta":61130833},{"NoteNumber":54,"Velocity":54,"Duration":103806,"SoundDuration":103806,"Delta":61130833},{"NoteNumber":48,"Velocity":54,"Duration":103806,"SoundDuration":103806,"Delta":61130833},{"NoteNumber":46,"Velocity":54,"Duration":103806,"SoundDuration":103806,"Delta":61130833},{"NoteNumber":87,"Velocity":73,"Duration":96774,"SoundDuration":96774,"Delta":61442251},{"NoteNumber":78,"Velocity":62,"Duration":96774,"SoundDuration":96774,"Delta":61442251},{"NoteNumber":75,"Velocity":62,"Duration":96774,"SoundDuration":96774,"Delta":61442251},{"NoteNumber":51,"Velocity":42,"Duration":96774,"SoundDuration":96774,"Delta":61442251},{"NoteNumber":57,"Velocity":51,"Duration":96774,"SoundDuration":96774,"Delta":61442251},{"NoteNumber":54,"Velocity":42,"Duration":96774,"SoundDuration":96774,"Delta":61442251},{"NoteNumber":48,"Velocity":42,"Duration":96774,"SoundDuration":96774,"Delta":61442251},{"NoteNumber":46,"Velocity":42,"Duration":96774,"SoundDuration":96774,"Delta":61442251},{"NoteNumber":75,"Velocity":66,"Duration":108303,"SoundDuration":108303,"Delta":61539026},{"NoteNumber":78,"Velocity":66,"Duration":108303,"SoundDuration":108303,"Delta":61539026},{"NoteNumber":87,"Velocity":79,"Duration":108303,"SoundDuration":108303,"Delta":61539026},{"NoteNumber":51,"Velocity":48,"Duration":108303,"SoundDuration":108303,"Delta":61539026},{"NoteNumber":57,"Velocity":56,"Duration":108303,"SoundDuration":108303,"Delta":61539026},{"NoteNumber":54,"Velocity":48,"Duration":108303,"SoundDuration":108303,"Delta":61539026},{"NoteNumber":48,"Velocity":48,"Duration":108303,"SoundDuration":108303,"Delta":61539026},{"NoteNumber":46,"Velocity":48,"Duration":108303,"SoundDuration":108303,"Delta":61539026},{"NoteNumber":72,"Velocity":61,"Duration":97719,"SoundDuration":97719,"Delta":62080542},{"NoteNumber":75,"Velocity":61,"Duration":97719,"SoundDuration":97719,"Delta":62080542},{"NoteNumber":84,"Velocity":72,"Duration":97719,"SoundDuration":97719,"Delta":62080542},{"NoteNumber":51,"Velocity":38,"Duration":97719,"SoundDuration":97719,"Delta":62080542},{"NoteNumber":46,"Velocity":38,"Duration":97719,"SoundDuration":97719,"Delta":62080542},{"NoteNumber":48,"Velocity":38,"Duration":97719,"SoundDuration":97719,"Delta":62080542},{"NoteNumber":57,"Velocity":45,"Duration":97719,"SoundDuration":97719,"Delta":62080542},{"NoteNumber":54,"Velocity":38,"Duration":97719,"SoundDuration":97719,"Delta":62080542},{"NoteNumber":72,"Velocity":64,"Duration":108303,"SoundDuration":108303,"Delta":62178262},{"NoteNumber":75,"Velocity":64,"Duration":108303,"SoundDuration":108303,"Delta":62178262},{"NoteNumber":84,"Velocity":79,"Duration":108303,"SoundDuration":108303,"Delta":62178262},{"NoteNumber":51,"Velocity":45,"Duration":108303,"SoundDuration":108303,"Delta":62178262},{"NoteNumber":57,"Velocity":52,"Duration":108303,"SoundDuration":108303,"Delta":62178262},{"NoteNumber":54,"Velocity":45,"Duration":108303,"SoundDuration":108303,"Delta":62178262},{"NoteNumber":48,"Velocity":45,"Duration":108303,"SoundDuration":108303,"Delta":62178262},{"NoteNumber":46,"Velocity":45,"Duration":108303,"SoundDuration":108303,"Delta":62178262},{"NoteNumber":72,"Velocity":61,"Duration":53571,"SoundDuration":53571,"Delta":62609154},{"NoteNumber":69,"Velocity":61,"Duration":53571,"SoundDuration":53571,"Delta":62609154},{"NoteNumber":81,"Velocity":72,"Duration":53571,"SoundDuration":53571,"Delta":62609154},{"NoteNumber":46,"Velocity":38,"Duration":53571,"SoundDuration":53571,"Delta":62609154},{"NoteNumber":48,"Velocity":38,"Duration":53571,"SoundDuration":53571,"Delta":62609154},{"NoteNumber":51,"Velocity":38,"Duration":53571,"SoundDuration":53571,"Delta":62609154},{"NoteNumber":54,"Velocity":38,"Duration":53571,"SoundDuration":53571,"Delta":62609154},{"NoteNumber":57,"Velocity":45,"Duration":53571,"SoundDuration":53571,"Delta":62609154},{"NoteNumber":66,"Velocity":57,"Duration":53571,"SoundDuration":53571,"Delta":62716296},{"NoteNumber":78,"Velocity":68,"Duration":53571,"SoundDuration":53571,"Delta":62716296},{"NoteNumber":46,"Velocity":34,"Duration":53571,"SoundDuration":53571,"Delta":62716296},{"NoteNumber":48,"Velocity":34,"Duration":53571,"SoundDuration":53571,"Delta":62716296},{"NoteNumber":51,"Velocity":34,"Duration":53571,"SoundDuration":53571,"Delta":62716296},{"NoteNumber":54,"Velocity":34,"Duration":53571,"SoundDuration":53571,"Delta":62716296},{"NoteNumber":57,"Velocity":40,"Duration":53571,"SoundDuration":53571,"Delta":62716296},{"NoteNumber":65,"Velocity":57,"Duration":56818,"SoundDuration":56818,"Delta":62823439},{"NoteNumber":77,"Velocity":68,"Duration":56818,"SoundDuration":56818,"Delta":62823439},{"NoteNumber":46,"Velocity":34,"Duration":56818,"SoundDuration":56818,"Delta":62823439},{"NoteNumber":48,"Velocity":34,"Duration":56818,"SoundDuration":56818,"Delta":62823439},{"NoteNumber":51,"Velocity":34,"Duration":56818,"SoundDuration":56818,"Delta":62823439},{"NoteNumber":54,"Velocity":34,"Duration":56818,"SoundDuration":56818,"Delta":62823439},{"NoteNumber":57,"Velocity":40,"Duration":56818,"SoundDuration":56818,"Delta":62823439},{"NoteNumber":63,"Velocity":57,"Duration":56818,"SoundDuration":56818,"Delta":62937075},{"NoteNumber":75,"Velocity":68,"Duration":56818,"SoundDuration":56818,"Delta":62937075},{"NoteNumber":46,"Velocity":34,"Duration":56818,"SoundDuration":56818,"Delta":62937075},{"NoteNumber":48,"Velocity":34,"Duration":56818,"SoundDuration":56818,"Delta":62937075},{"NoteNumber":51,"Velocity":34,"Duration":56818,"SoundDuration":56818,"Delta":62937075},{"NoteNumber":54,"Velocity":34,"Duration":56818,"SoundDuration":56818,"Delta":62937075},{"NoteNumber":57,"Velocity":40,"Duration":56818,"SoundDuration":56818,"Delta":62937075},{"NoteNumber":70,"Velocity":64,"Duration":98039,"SoundDuration":98039,"Delta":63050712},{"NoteNumber":74,"Velocity":64,"Duration":98039,"SoundDuration":98039,"Delta":63050712},{"NoteNumber":82,"Velocity":76,"Duration":98039,"SoundDuration":98039,"Delta":63050712},{"NoteNumber":46,"Velocity":40,"Duration":98039,"SoundDuration":98039,"Delta":63050712},{"NoteNumber":50,"Velocity":40,"Duration":98039,"SoundDuration":98039,"Delta":63050712},{"NoteNumber":53,"Velocity":40,"Duration":98039,"SoundDuration":98039,"Delta":63050712},{"NoteNumber":58,"Velocity":48,"Duration":98039,"SoundDuration":98039,"Delta":63050712},{"NoteNumber":41,"Velocity":61,"Duration":208716,"SoundDuration":208716,"Delta":63246790},{"NoteNumber":53,"Velocity":77,"Duration":208716,"SoundDuration":208716,"Delta":63246790},{"NoteNumber":65,"Velocity":75,"Duration":104187,"SoundDuration":104187,"Delta":63351320},{"NoteNumber":39,"Velocity":58,"Duration":203871,"SoundDuration":203871,"Delta":63455507},{"NoteNumber":51,"Velocity":73,"Duration":203871,"SoundDuration":203871,"Delta":63455507},{"NoteNumber":63,"Velocity":72,"Duration":101270,"SoundDuration":101270,"Delta":63558107},{"NoteNumber":38,"Velocity":56,"Duration":198689,"SoundDuration":198689,"Delta":63659378},{"NoteNumber":50,"Velocity":71,"Duration":198689,"SoundDuration":198689,"Delta":63659378},{"NoteNumber":62,"Velocity":70,"Duration":98713,"SoundDuration":98713,"Delta":63759355},{"NoteNumber":35,"Velocity":54,"Duration":193759,"SoundDuration":193759,"Delta":63858068},{"NoteNumber":47,"Velocity":68,"Duration":193759,"SoundDuration":193759,"Delta":63858068},{"NoteNumber":59,"Velocity":66,"Duration":96278,"SoundDuration":96278,"Delta":63955548},{"NoteNumber":34,"Velocity":63,"Duration":378092,"SoundDuration":378092,"Delta":64051827},{"NoteNumber":46,"Velocity":79,"Duration":378092,"SoundDuration":378092,"Delta":64051827},{"NoteNumber":58,"Velocity":63,"Duration":259515,"SoundDuration":259515,"Delta":64170404},{"NoteNumber":99,"Velocity":90,"Duration":103806,"SoundDuration":103806,"Delta":64429920},{"NoteNumber":90,"Velocity":76,"Duration":103806,"SoundDuration":103806,"Delta":64429920},{"NoteNumber":87,"Velocity":76,"Duration":103806,"SoundDuration":103806,"Delta":64429920},{"NoteNumber":51,"Velocity":54,"Duration":103806,"SoundDuration":103806,"Delta":64429920},{"NoteNumber":57,"Velocity":64,"Duration":103806,"SoundDuration":103806,"Delta":64429920},{"NoteNumber":54,"Velocity":54,"Duration":103806,"SoundDuration":103806,"Delta":64429920},{"NoteNumber":48,"Velocity":54,"Duration":103806,"SoundDuration":103806,"Delta":64429920},{"NoteNumber":46,"Velocity":54,"Duration":103806,"SoundDuration":103806,"Delta":64429920},{"NoteNumber":96,"Velocity":84,"Duration":96774,"SoundDuration":96774,"Delta":64741338},{"NoteNumber":87,"Velocity":71,"Duration":96774,"SoundDuration":96774,"Delta":64741338},{"NoteNumber":84,"Velocity":71,"Duration":96774,"SoundDuration":96774,"Delta":64741338},{"NoteNumber":51,"Velocity":42,"Duration":96774,"SoundDuration":96774,"Delta":64741338},{"NoteNumber":57,"Velocity":51,"Duration":96774,"SoundDuration":96774,"Delta":64741338},{"NoteNumber":54,"Velocity":42,"Duration":96774,"SoundDuration":96774,"Delta":64741338},{"NoteNumber":48,"Velocity":42,"Duration":96774,"SoundDuration":96774,"Delta":64741338},{"NoteNumber":46,"Velocity":42,"Duration":96774,"SoundDuration":96774,"Delta":64741338},{"NoteNumber":84,"Velocity":76,"Duration":108303,"SoundDuration":108303,"Delta":64838113},{"NoteNumber":87,"Velocity":76,"Duration":108303,"SoundDuration":108303,"Delta":64838113},{"NoteNumber":96,"Velocity":90,"Duration":108303,"SoundDuration":108303,"Delta":64838113},{"NoteNumber":51,"Velocity":48,"Duration":108303,"SoundDuration":108303,"Delta":64838113},{"NoteNumber":57,"Velocity":56,"Duration":108303,"SoundDuration":108303,"Delta":64838113},{"NoteNumber":54,"Velocity":48,"Duration":108303,"SoundDuration":108303,"Delta":64838113},{"NoteNumber":48,"Velocity":48,"Duration":108303,"SoundDuration":108303,"Delta":64838113},{"NoteNumber":46,"Velocity":48,"Duration":108303,"SoundDuration":108303,"Delta":64838113},{"NoteNumber":81,"Velocity":70,"Duration":97719,"SoundDuration":97719,"Delta":65379629},{"NoteNumber":84,"Velocity":70,"Duration":97719,"SoundDuration":97719,"Delta":65379629},{"NoteNumber":93,"Velocity":82,"Duration":97719,"SoundDuration":97719,"Delta":65379629},{"NoteNumber":51,"Velocity":38,"Duration":97719,"SoundDuration":97719,"Delta":65379629},{"NoteNumber":46,"Velocity":38,"Duration":97719,"SoundDuration":97719,"Delta":65379629},{"NoteNumber":48,"Velocity":38,"Duration":97719,"SoundDuration":97719,"Delta":65379629},{"NoteNumber":57,"Velocity":45,"Duration":97719,"SoundDuration":97719,"Delta":65379629},{"NoteNumber":54,"Velocity":38,"Duration":97719,"SoundDuration":97719,"Delta":65379629},{"NoteNumber":81,"Velocity":73,"Duration":108303,"SoundDuration":108303,"Delta":65477349},{"NoteNumber":84,"Velocity":73,"Duration":108303,"SoundDuration":108303,"Delta":65477349},{"NoteNumber":93,"Velocity":90,"Duration":108303,"SoundDuration":108303,"Delta":65477349},{"NoteNumber":51,"Velocity":45,"Duration":108303,"SoundDuration":108303,"Delta":65477349},{"NoteNumber":57,"Velocity":52,"Duration":108303,"SoundDuration":108303,"Delta":65477349},{"NoteNumber":54,"Velocity":45,"Duration":108303,"SoundDuration":108303,"Delta":65477349},{"NoteNumber":48,"Velocity":45,"Duration":108303,"SoundDuration":108303,"Delta":65477349},{"NoteNumber":46,"Velocity":45,"Duration":108303,"SoundDuration":108303,"Delta":65477349},{"NoteNumber":78,"Velocity":70,"Duration":53571,"SoundDuration":53571,"Delta":65908241},{"NoteNumber":81,"Velocity":70,"Duration":53571,"SoundDuration":53571,"Delta":65908241},{"NoteNumber":90,"Velocity":82,"Duration":53571,"SoundDuration":53571,"Delta":65908241},{"NoteNumber":46,"Velocity":38,"Duration":53571,"SoundDuration":53571,"Delta":65908241},{"NoteNumber":48,"Velocity":38,"Duration":53571,"SoundDuration":53571,"Delta":65908241},{"NoteNumber":51,"Velocity":38,"Duration":53571,"SoundDuration":53571,"Delta":65908241},{"NoteNumber":54,"Velocity":38,"Duration":53571,"SoundDuration":53571,"Delta":65908241},{"NoteNumber":57,"Velocity":45,"Duration":53571,"SoundDuration":53571,"Delta":65908241},{"NoteNumber":77,"Velocity":65,"Duration":53571,"SoundDuration":53571,"Delta":66015383},{"NoteNumber":89,"Velocity":78,"Duration":53571,"SoundDuration":53571,"Delta":66015383},{"NoteNumber":46,"Velocity":30,"Duration":53571,"SoundDuration":53571,"Delta":66015383},{"NoteNumber":48,"Velocity":30,"Duration":53571,"SoundDuration":53571,"Delta":66015383},{"NoteNumber":51,"Velocity":30,"Duration":53571,"SoundDuration":53571,"Delta":66015383},{"NoteNumber":54,"Velocity":30,"Duration":53571,"SoundDuration":53571,"Delta":66015383},{"NoteNumber":57,"Velocity":36,"Duration":53571,"SoundDuration":53571,"Delta":66015383},{"NoteNumber":76,"Velocity":65,"Duration":56818,"SoundDuration":56818,"Delta":66122526},{"NoteNumber":88,"Velocity":78,"Duration":56818,"SoundDuration":56818,"Delta":66122526},{"NoteNumber":46,"Velocity":30,"Duration":56818,"SoundDuration":56818,"Delta":66122526},{"NoteNumber":48,"Velocity":30,"Duration":56818,"SoundDuration":56818,"Delta":66122526},{"NoteNumber":51,"Velocity":30,"Duration":56818,"SoundDuration":56818,"Delta":66122526},{"NoteNumber":54,"Velocity":30,"Duration":56818,"SoundDuration":56818,"Delta":66122526},{"NoteNumber":57,"Velocity":36,"Duration":56818,"SoundDuration":56818,"Delta":66122526},{"NoteNumber":75,"Velocity":65,"Duration":56818,"SoundDuration":56818,"Delta":66236162},{"NoteNumber":87,"Velocity":78,"Duration":56818,"SoundDuration":56818,"Delta":66236162},{"NoteNumber":46,"Velocity":30,"Duration":56818,"SoundDuration":56818,"Delta":66236162},{"NoteNumber":48,"Velocity":30,"Duration":56818,"SoundDuration":56818,"Delta":66236162},{"NoteNumber":51,"Velocity":30,"Duration":56818,"SoundDuration":56818,"Delta":66236162},{"NoteNumber":54,"Velocity":30,"Duration":56818,"SoundDuration":56818,"Delta":66236162},{"NoteNumber":57,"Velocity":36,"Duration":56818,"SoundDuration":56818,"Delta":66236162},{"NoteNumber":82,"Velocity":73,"Duration":118110,"SoundDuration":118110,"Delta":66349799},{"NoteNumber":86,"Velocity":73,"Duration":118110,"SoundDuration":118110,"Delta":66349799},{"NoteNumber":94,"Velocity":87,"Duration":118110,"SoundDuration":118110,"Delta":66349799},{"NoteNumber":46,"Velocity":40,"Duration":118110,"SoundDuration":118110,"Delta":66349799},{"NoteNumber":50,"Velocity":40,"Duration":118110,"SoundDuration":118110,"Delta":66349799},{"NoteNumber":53,"Velocity":40,"Duration":118110,"SoundDuration":118110,"Delta":66349799},{"NoteNumber":58,"Velocity":48,"Duration":118110,"SoundDuration":118110,"Delta":66349799},{"NoteNumber":65,"Velocity":54,"Duration":207782,"SoundDuration":207782,"Delta":66586019},{"NoteNumber":68,"Velocity":45,"Duration":103252,"SoundDuration":103252,"Delta":66690549},{"NoteNumber":70,"Velocity":54,"Duration":103252,"SoundDuration":103252,"Delta":66690549},{"NoteNumber":63,"Velocity":57,"Duration":199416,"SoundDuration":199416,"Delta":66793802},{"NoteNumber":68,"Velocity":47,"Duration":99363,"SoundDuration":99363,"Delta":66893855},{"NoteNumber":70,"Velocity":56,"Duration":99363,"SoundDuration":99363,"Delta":66893855},{"NoteNumber":62,"Velocity":60,"Duration":196697,"SoundDuration":196697,"Delta":66993218},{"NoteNumber":68,"Velocity":50,"Duration":98013,"SoundDuration":98013,"Delta":67091903},{"NoteNumber":70,"Velocity":59,"Duration":98013,"SoundDuration":98013,"Delta":67091903},{"NoteNumber":60,"Velocity":62,"Duration":194067,"SoundDuration":194067,"Delta":67189916},{"NoteNumber":68,"Velocity":52,"Duration":96717,"SoundDuration":96717,"Delta":67287266},{"NoteNumber":70,"Velocity":62,"Duration":96717,"SoundDuration":96717,"Delta":67287266},{"NoteNumber":58,"Velocity":54,"Duration":200383,"SoundDuration":200383,"Delta":67383984},{"NoteNumber":68,"Velocity":54,"Duration":101679,"SoundDuration":101679,"Delta":67482688},{"NoteNumber":70,"Velocity":64,"Duration":101679,"SoundDuration":101679,"Delta":67482688},{"NoteNumber":59,"Velocity":68,"Duration":100167,"SoundDuration":100167,"Delta":67584367},{"NoteNumber":71,"Velocity":68,"Duration":100167,"SoundDuration":100167,"Delta":67584367},{"NoteNumber":44,"Velocity":47,"Duration":100167,"SoundDuration":100167,"Delta":67584367},{"NoteNumber":52,"Velocity":56,"Duration":100167,"SoundDuration":100167,"Delta":67584367},{"NoteNumber":56,"Velocity":56,"Duration":100167,"SoundDuration":100167,"Delta":67584367},{"NoteNumber":64,"Velocity":56,"Duration":99748,"SoundDuration":99748,"Delta":67684534},{"NoteNumber":68,"Velocity":58,"Duration":99253,"SoundDuration":99253,"Delta":67784283},{"NoteNumber":42,"Velocity":49,"Duration":99253,"SoundDuration":99253,"Delta":67784283},{"NoteNumber":54,"Velocity":58,"Duration":99253,"SoundDuration":99253,"Delta":67784283},{"NoteNumber":71,"Velocity":61,"Duration":98806,"SoundDuration":98806,"Delta":67883536},{"NoteNumber":76,"Velocity":63,"Duration":98198,"SoundDuration":98198,"Delta":67982342},{"NoteNumber":40,"Velocity":51,"Duration":98198,"SoundDuration":98198,"Delta":67982342},{"NoteNumber":52,"Velocity":61,"Duration":98198,"SoundDuration":98198,"Delta":67982342},{"NoteNumber":80,"Velocity":64,"Duration":97206,"SoundDuration":97206,"Delta":68080540},{"NoteNumber":83,"Velocity":66,"Duration":96381,"SoundDuration":96381,"Delta":68177747},{"NoteNumber":37,"Velocity":53,"Duration":96381,"SoundDuration":96381,"Delta":68177747},{"NoteNumber":49,"Velocity":63,"Duration":96381,"SoundDuration":96381,"Delta":68177747},{"NoteNumber":88,"Velocity":68,"Duration":95516,"SoundDuration":95516,"Delta":68274128},{"NoteNumber":92,"Velocity":70,"Duration":94690,"SoundDuration":94690,"Delta":68369645},{"NoteNumber":35,"Velocity":55,"Duration":94690,"SoundDuration":94690,"Delta":68369645},{"NoteNumber":47,"Velocity":65,"Duration":94690,"SoundDuration":94690,"Delta":68369645},{"NoteNumber":94,"Velocity":72,"Duration":93860,"SoundDuration":93860,"Delta":68464335},{"NoteNumber":95,"Velocity":74,"Duration":126582,"SoundDuration":126582,"Delta":68558196},{"NoteNumber":88,"Velocity":63,"Duration":126582,"SoundDuration":126582,"Delta":68558196},{"NoteNumber":83,"Velocity":63,"Duration":126582,"SoundDuration":126582,"Delta":68558196},{"NoteNumber":32,"Velocity":57,"Duration":126582,"SoundDuration":126582,"Delta":68558196},{"NoteNumber":44,"Velocity":68,"Duration":126582,"SoundDuration":126582,"Delta":68558196},{"NoteNumber":86,"Velocity":81,"Duration":106761,"SoundDuration":106761,"Delta":68811360},{"NoteNumber":89,"Velocity":81,"Duration":106761,"SoundDuration":106761,"Delta":68811360},{"NoteNumber":98,"Velocity":92,"Duration":106761,"SoundDuration":106761,"Delta":68811360},{"NoteNumber":34,"Velocity":57,"Duration":106761,"SoundDuration":106761,"Delta":68811360},{"NoteNumber":41,"Velocity":57,"Duration":106761,"SoundDuration":106761,"Delta":68811360},{"NoteNumber":46,"Velocity":68,"Duration":106761,"SoundDuration":106761,"Delta":68811360},{"NoteNumber":65,"Velocity":57,"Duration":207782,"SoundDuration":207782,"Delta":69024883},{"NoteNumber":68,"Velocity":47,"Duration":103252,"SoundDuration":103252,"Delta":69129413},{"NoteNumber":70,"Velocity":56,"Duration":103252,"SoundDuration":103252,"Delta":69129413},{"NoteNumber":63,"Velocity":60,"Duration":199416,"SoundDuration":199416,"Delta":69232666},{"NoteNumber":68,"Velocity":49,"Duration":99363,"SoundDuration":99363,"Delta":69332719},{"NoteNumber":70,"Velocity":59,"Duration":99363,"SoundDuration":99363,"Delta":69332719},{"NoteNumber":62,"Velocity":63,"Duration":196697,"SoundDuration":196697,"Delta":69432082},{"NoteNumber":68,"Velocity":52,"Duration":98013,"SoundDuration":98013,"Delta":69530767},{"NoteNumber":70,"Velocity":62,"Duration":98013,"SoundDuration":98013,"Delta":69530767},{"NoteNumber":60,"Velocity":64,"Duration":194067,"SoundDuration":194067,"Delta":69628780},{"NoteNumber":68,"Velocity":54,"Duration":96717,"SoundDuration":96717,"Delta":69726130},{"NoteNumber":70,"Velocity":64,"Duration":96717,"SoundDuration":96717,"Delta":69726130},{"NoteNumber":58,"Velocity":56,"Duration":200383,"SoundDuration":200383,"Delta":69822848},{"NoteNumber":68,"Velocity":57,"Duration":101679,"SoundDuration":101679,"Delta":69921552},{"NoteNumber":70,"Velocity":67,"Duration":101679,"SoundDuration":101679,"Delta":69921552},{"NoteNumber":59,"Velocity":71,"Duration":100167,"SoundDuration":100167,"Delta":70023231},{"NoteNumber":71,"Velocity":71,"Duration":100167,"SoundDuration":100167,"Delta":70023231},{"NoteNumber":44,"Velocity":49,"Duration":100167,"SoundDuration":100167,"Delta":70023231},{"NoteNumber":52,"Velocity":59,"Duration":100167,"SoundDuration":100167,"Delta":70023231},{"NoteNumber":56,"Velocity":59,"Duration":100167,"SoundDuration":100167,"Delta":70023231},{"NoteNumber":64,"Velocity":59,"Duration":99748,"SoundDuration":99748,"Delta":70123398},{"NoteNumber":68,"Velocity":61,"Duration":98288,"SoundDuration":98288,"Delta":70223146},{"NoteNumber":42,"Velocity":51,"Duration":98288,"SoundDuration":98288,"Delta":70223146},{"NoteNumber":54,"Velocity":61,"Duration":98288,"SoundDuration":98288,"Delta":70223146},{"NoteNumber":71,"Velocity":63,"Duration":97640,"SoundDuration":97640,"Delta":70321435},{"NoteNumber":76,"Velocity":65,"Duration":96834,"SoundDuration":96834,"Delta":70419076},{"NoteNumber":40,"Velocity":53,"Duration":96834,"SoundDuration":96834,"Delta":70419076},{"NoteNumber":52,"Velocity":63,"Duration":96834,"SoundDuration":96834,"Delta":70419076},{"NoteNumber":80,"Velocity":67,"Duration":95954,"SoundDuration":95954,"Delta":70515911},{"NoteNumber":83,"Velocity":69,"Duration":95103,"SoundDuration":95103,"Delta":70611865},{"NoteNumber":37,"Velocity":54,"Duration":95103,"SoundDuration":95103,"Delta":70611865},{"NoteNumber":49,"Velocity":65,"Duration":95103,"SoundDuration":95103,"Delta":70611865},{"NoteNumber":88,"Velocity":71,"Duration":94313,"SoundDuration":94313,"Delta":70706969},{"NoteNumber":92,"Velocity":72,"Duration":93468,"SoundDuration":93468,"Delta":70801282},{"NoteNumber":35,"Velocity":58,"Duration":93468,"SoundDuration":93468,"Delta":70801282},{"NoteNumber":47,"Velocity":68,"Duration":93468,"SoundDuration":93468,"Delta":70801282},{"NoteNumber":94,"Velocity":76,"Duration":92648,"SoundDuration":92648,"Delta":70894750},{"NoteNumber":95,"Velocity":78,"Duration":123966,"SoundDuration":123966,"Delta":70987398},{"NoteNumber":88,"Velocity":65,"Duration":123966,"SoundDuration":123966,"Delta":70987398},{"NoteNumber":83,"Velocity":65,"Duration":123966,"SoundDuration":123966,"Delta":70987398},{"NoteNumber":32,"Velocity":60,"Duration":123966,"SoundDuration":123966,"Delta":70987398},{"NoteNumber":44,"Velocity":71,"Duration":123966,"SoundDuration":123966,"Delta":70987398},{"NoteNumber":86,"Velocity":84,"Duration":107142,"SoundDuration":107142,"Delta":71235332},{"NoteNumber":89,"Velocity":84,"Duration":107142,"SoundDuration":107142,"Delta":71235332},{"NoteNumber":98,"Velocity":97,"Duration":107142,"SoundDuration":107142,"Delta":71235332},{"NoteNumber":34,"Velocity":60,"Duration":107142,"SoundDuration":107142,"Delta":71235332},{"NoteNumber":41,"Velocity":60,"Duration":107142,"SoundDuration":107142,"Delta":71235332},{"NoteNumber":46,"Velocity":71,"Duration":107142,"SoundDuration":107142,"Delta":71235332},{"NoteNumber":82,"Velocity":79,"Duration":92592,"SoundDuration":92592,"Delta":71556760},{"NoteNumber":74,"Velocity":66,"Duration":92592,"SoundDuration":92592,"Delta":71556760},{"NoteNumber":70,"Velocity":66,"Duration":92592,"SoundDuration":92592,"Delta":71556760},{"NoteNumber":58,"Velocity":49,"Duration":92592,"SoundDuration":92592,"Delta":71556760},{"NoteNumber":68,"Velocity":58,"Duration":92592,"SoundDuration":92592,"Delta":71556760},{"NoteNumber":65,"Velocity":49,"Duration":92592,"SoundDuration":92592,"Delta":71556760},{"NoteNumber":70,"Velocity":63,"Duration":198675,"SoundDuration":198675,"Delta":71649353},{"NoteNumber":74,"Velocity":63,"Duration":198675,"SoundDuration":198675,"Delta":71649353},{"NoteNumber":82,"Velocity":74,"Duration":198675,"SoundDuration":198675,"Delta":71649353},{"NoteNumber":58,"Velocity":43,"Duration":198675,"SoundDuration":198675,"Delta":71649353},{"NoteNumber":68,"Velocity":51,"Duration":198675,"SoundDuration":198675,"Delta":71649353},{"NoteNumber":65,"Velocity":43,"Duration":198675,"SoundDuration":198675,"Delta":71649353},{"NoteNumber":70,"Velocity":67,"Duration":108303,"SoundDuration":108303,"Delta":71848028},{"NoteNumber":74,"Velocity":67,"Duration":108303,"SoundDuration":108303,"Delta":71848028},{"NoteNumber":82,"Velocity":80,"Duration":108303,"SoundDuration":108303,"Delta":71848028},{"NoteNumber":58,"Velocity":49,"Duration":108303,"SoundDuration":108303,"Delta":71848028},{"NoteNumber":65,"Velocity":49,"Duration":108303,"SoundDuration":108303,"Delta":71848028},{"NoteNumber":68,"Velocity":58,"Duration":108303,"SoundDuration":108303,"Delta":71848028},{"NoteNumber":71,"Velocity":71,"Duration":93167,"SoundDuration":93167,"Delta":72172938},{"NoteNumber":75,"Velocity":71,"Duration":93167,"SoundDuration":93167,"Delta":72172938},{"NoteNumber":83,"Velocity":83,"Duration":93167,"SoundDuration":93167,"Delta":72172938},{"NoteNumber":57,"Velocity":49,"Duration":93167,"SoundDuration":93167,"Delta":72172938},{"NoteNumber":66,"Velocity":58,"Duration":93167,"SoundDuration":93167,"Delta":72172938},{"NoteNumber":63,"Velocity":49,"Duration":93167,"SoundDuration":93167,"Delta":72172938},{"NoteNumber":71,"Velocity":65,"Duration":196078,"SoundDuration":196078,"Delta":72266106},{"NoteNumber":75,"Velocity":65,"Duration":196078,"SoundDuration":196078,"Delta":72266106},{"NoteNumber":83,"Velocity":77,"Duration":196078,"SoundDuration":196078,"Delta":72266106},{"NoteNumber":57,"Velocity":44,"Duration":196078,"SoundDuration":196078,"Delta":72266106},{"NoteNumber":66,"Velocity":52,"Duration":196078,"SoundDuration":196078,"Delta":72266106},{"NoteNumber":63,"Velocity":44,"Duration":196078,"SoundDuration":196078,"Delta":72266106},{"NoteNumber":71,"Velocity":71,"Duration":108695,"SoundDuration":108695,"Delta":72462184},{"NoteNumber":75,"Velocity":71,"Duration":108695,"SoundDuration":108695,"Delta":72462184},{"NoteNumber":83,"Velocity":83,"Duration":108695,"SoundDuration":108695,"Delta":72462184},{"NoteNumber":57,"Velocity":48,"Duration":108695,"SoundDuration":108695,"Delta":72462184},{"NoteNumber":63,"Velocity":48,"Duration":108695,"SoundDuration":108695,"Delta":72462184},{"NoteNumber":66,"Velocity":57,"Duration":108695,"SoundDuration":108695,"Delta":72462184},{"NoteNumber":84,"Velocity":86,"Duration":93750,"SoundDuration":93750,"Delta":72788272},{"NoteNumber":76,"Velocity":72,"Duration":93750,"SoundDuration":93750,"Delta":72788272},{"NoteNumber":72,"Velocity":72,"Duration":93750,"SoundDuration":93750,"Delta":72788272},{"NoteNumber":55,"Velocity":50,"Duration":93750,"SoundDuration":93750,"Delta":72788272},{"NoteNumber":64,"Velocity":60,"Duration":93750,"SoundDuration":93750,"Delta":72788272},{"NoteNumber":58,"Velocity":50,"Duration":93750,"SoundDuration":93750,"Delta":72788272},{"NoteNumber":72,"Velocity":67,"Duration":196721,"SoundDuration":196721,"Delta":72882022},{"NoteNumber":76,"Velocity":67,"Duration":196721,"SoundDuration":196721,"Delta":72882022},{"NoteNumber":84,"Velocity":80,"Duration":196721,"SoundDuration":196721,"Delta":72882022},{"NoteNumber":55,"Velocity":46,"Duration":196721,"SoundDuration":196721,"Delta":72882022},{"NoteNumber":64,"Velocity":55,"Duration":196721,"SoundDuration":196721,"Delta":72882022},{"NoteNumber":58,"Velocity":46,"Duration":196721,"SoundDuration":196721,"Delta":72882022},{"NoteNumber":72,"Velocity":71,"Duration":108303,"SoundDuration":108303,"Delta":73078743},{"NoteNumber":76,"Velocity":71,"Duration":108303,"SoundDuration":108303,"Delta":73078743},{"NoteNumber":84,"Velocity":84,"Duration":108303,"SoundDuration":108303,"Delta":73078743},{"NoteNumber":55,"Velocity":51,"Duration":108303,"SoundDuration":108303,"Delta":73078743},{"NoteNumber":58,"Velocity":51,"Duration":108303,"SoundDuration":108303,"Delta":73078743},{"NoteNumber":64,"Velocity":61,"Duration":108303,"SoundDuration":108303,"Delta":73078743},{"NoteNumber":73,"Velocity":72,"Duration":94637,"SoundDuration":94637,"Delta":73403653},{"NoteNumber":77,"Velocity":72,"Duration":94637,"SoundDuration":94637,"Delta":73403653},{"NoteNumber":85,"Velocity":86,"Duration":94637,"SoundDuration":94637,"Delta":73403653},{"NoteNumber":53,"Velocity":50,"Duration":94637,"SoundDuration":94637,"Delta":73403653},{"NoteNumber":61,"Velocity":59,"Duration":94637,"SoundDuration":94637,"Delta":73403653},{"NoteNumber":56,"Velocity":50,"Duration":94637,"SoundDuration":94637,"Delta":73403653},{"NoteNumber":73,"Velocity":68,"Duration":202020,"SoundDuration":202020,"Delta":73498290},{"NoteNumber":77,"Velocity":68,"Duration":202020,"SoundDuration":202020,"Delta":73498290},{"NoteNumber":85,"Velocity":81,"Duration":202020,"SoundDuration":202020,"Delta":73498290},{"NoteNumber":53,"Velocity":45,"Duration":202020,"SoundDuration":202020,"Delta":73498290},{"NoteNumber":61,"Velocity":54,"Duration":202020,"SoundDuration":202020,"Delta":73498290},{"NoteNumber":56,"Velocity":45,"Duration":202020,"SoundDuration":202020,"Delta":73498290},{"NoteNumber":73,"Velocity":72,"Duration":109091,"SoundDuration":109091,"Delta":73700310},{"NoteNumber":77,"Velocity":72,"Duration":109091,"SoundDuration":109091,"Delta":73700310},{"NoteNumber":85,"Velocity":85,"Duration":109091,"SoundDuration":109091,"Delta":73700310},{"NoteNumber":53,"Velocity":50,"Duration":109091,"SoundDuration":109091,"Delta":73700310},{"NoteNumber":56,"Velocity":50,"Duration":109091,"SoundDuration":109091,"Delta":73700310},{"NoteNumber":61,"Velocity":59,"Duration":109091,"SoundDuration":109091,"Delta":73700310},{"NoteNumber":77,"Velocity":72,"Duration":96774,"SoundDuration":96774,"Delta":74027583},{"NoteNumber":89,"Velocity":85,"Duration":96774,"SoundDuration":96774,"Delta":74027583},{"NoteNumber":85,"Velocity":85,"Duration":96774,"SoundDuration":96774,"Delta":74027583},{"NoteNumber":80,"Velocity":72,"Duration":96774,"SoundDuration":96774,"Delta":74027583},{"NoteNumber":47,"Velocity":52,"Duration":96774,"SoundDuration":96774,"Delta":74027583},{"NoteNumber":59,"Velocity":62,"Duration":96774,"SoundDuration":96774,"Delta":74027583},{"NoteNumber":53,"Velocity":52,"Duration":96774,"SoundDuration":96774,"Delta":74027583},{"NoteNumber":77,"Velocity":69,"Duration":207612,"SoundDuration":207612,"Delta":74124357},{"NoteNumber":80,"Velocity":69,"Duration":207612,"SoundDuration":207612,"Delta":74124357},{"NoteNumber":85,"Velocity":81,"Duration":207612,"SoundDuration":207612,"Delta":74124357},{"NoteNumber":89,"Velocity":81,"Duration":207612,"SoundDuration":207612,"Delta":74124357},{"NoteNumber":47,"Velocity":45,"Duration":207612,"SoundDuration":207612,"Delta":74124357},{"NoteNumber":59,"Velocity":54,"Duration":207612,"SoundDuration":207612,"Delta":74124357},{"NoteNumber":53,"Velocity":45,"Duration":207612,"SoundDuration":207612,"Delta":74124357},{"NoteNumber":77,"Velocity":74,"Duration":107913,"SoundDuration":107913,"Delta":74331970},{"NoteNumber":80,"Velocity":74,"Duration":107913,"SoundDuration":107913,"Delta":74331970},{"NoteNumber":85,"Velocity":88,"Duration":107913,"SoundDuration":107913,"Delta":74331970},{"NoteNumber":89,"Velocity":88,"Duration":107913,"SoundDuration":107913,"Delta":74331970},{"NoteNumber":47,"Velocity":52,"Duration":107913,"SoundDuration":107913,"Delta":74331970},{"NoteNumber":53,"Velocity":52,"Duration":107913,"SoundDuration":107913,"Delta":74331970},{"NoteNumber":59,"Velocity":62,"Duration":107913,"SoundDuration":107913,"Delta":74331970},{"NoteNumber":80,"Velocity":78,"Duration":97719,"SoundDuration":97719,"Delta":74655711},{"NoteNumber":86,"Velocity":78,"Duration":97719,"SoundDuration":97719,"Delta":74655711},{"NoteNumber":94,"Velocity":92,"Duration":97719,"SoundDuration":97719,"Delta":74655711},{"NoteNumber":46,"Velocity":53,"Duration":97719,"SoundDuration":97719,"Delta":74655711},{"NoteNumber":58,"Velocity":63,"Duration":97719,"SoundDuration":97719,"Delta":74655711},{"NoteNumber":53,"Velocity":53,"Duration":97719,"SoundDuration":97719,"Delta":74655711},{"NoteNumber":80,"Velocity":72,"Duration":209058,"SoundDuration":209058,"Delta":74753431},{"NoteNumber":86,"Velocity":72,"Duration":209058,"SoundDuration":209058,"Delta":74753431},{"NoteNumber":94,"Velocity":86,"Duration":209058,"SoundDuration":209058,"Delta":74753431},{"NoteNumber":46,"Velocity":48,"Duration":209058,"SoundDuration":209058,"Delta":74753431},{"NoteNumber":58,"Velocity":57,"Duration":209058,"SoundDuration":209058,"Delta":74753431},{"NoteNumber":53,"Velocity":48,"Duration":209058,"SoundDuration":209058,"Delta":74753431},{"NoteNumber":80,"Velocity":80,"Duration":107527,"SoundDuration":107527,"Delta":74962490},{"NoteNumber":86,"Velocity":80,"Duration":107527,"SoundDuration":107527,"Delta":74962490},{"NoteNumber":94,"Velocity":94,"Duration":107527,"SoundDuration":107527,"Delta":74962490},{"NoteNumber":46,"Velocity":54,"Duration":107527,"SoundDuration":107527,"Delta":74962490},{"NoteNumber":53,"Velocity":54,"Duration":107527,"SoundDuration":107527,"Delta":74962490},{"NoteNumber":58,"Velocity":64,"Duration":107527,"SoundDuration":107527,"Delta":74962490},{"NoteNumber":70,"Velocity":53,"Duration":53763,"SoundDuration":53763,"Delta":75285071},{"NoteNumber":58,"Velocity":48,"Duration":53763,"SoundDuration":53763,"Delta":75285071},{"NoteNumber":70,"Velocity":48,"Duration":107526,"SoundDuration":107526,"Delta":75392598},{"NoteNumber":58,"Velocity":44,"Duration":107526,"SoundDuration":107526,"Delta":75392598},{"NoteNumber":70,"Velocity":51,"Duration":107945,"SoundDuration":107945,"Delta":75607591},{"NoteNumber":58,"Velocity":43,"Duration":107945,"SoundDuration":107945,"Delta":75607591},{"NoteNumber":70,"Velocity":43,"Duration":56433,"SoundDuration":56433,"Delta":75936708},{"NoteNumber":58,"Velocity":35,"Duration":56433,"SoundDuration":56433,"Delta":75936708},{"NoteNumber":70,"Velocity":46,"Duration":126582,"SoundDuration":126582,"Delta":76049668},{"NoteNumber":58,"Velocity":39,"Duration":126582,"SoundDuration":126582,"Delta":76049668},{"NoteNumber":67,"Velocity":37,"Duration":218181,"SoundDuration":218181,"Delta":76300125},{"NoteNumber":70,"Velocity":37,"Duration":218181,"SoundDuration":218181,"Delta":76300125},{"NoteNumber":79,"Velocity":53,"Duration":218181,"SoundDuration":218181,"Delta":76300125},{"NoteNumber":51,"Velocity":25,"Duration":218181,"SoundDuration":218181,"Delta":76300125},{"NoteNumber":58,"Velocity":25,"Duration":218181,"SoundDuration":218181,"Delta":76300125},{"NoteNumber":63,"Velocity":30,"Duration":218181,"SoundDuration":218181,"Delta":76300125},{"NoteNumber":70,"Velocity":33,"Duration":53191,"SoundDuration":53191,"Delta":76629418},{"NoteNumber":75,"Velocity":43,"Duration":53191,"SoundDuration":53191,"Delta":76629418},{"NoteNumber":67,"Velocity":25,"Duration":53191,"SoundDuration":53191,"Delta":76629418},{"NoteNumber":63,"Velocity":20,"Duration":53191,"SoundDuration":53191,"Delta":76629418},{"NoteNumber":70,"Velocity":33,"Duration":115384,"SoundDuration":115384,"Delta":76735801},{"NoteNumber":75,"Velocity":43,"Duration":115384,"SoundDuration":115384,"Delta":76735801},{"NoteNumber":63,"Velocity":20,"Duration":115384,"SoundDuration":115384,"Delta":76735801},{"NoteNumber":67,"Velocity":25,"Duration":115384,"SoundDuration":115384,"Delta":76735801},{"NoteNumber":70,"Velocity":37,"Duration":109889,"SoundDuration":109889,"Delta":76966570},{"NoteNumber":75,"Velocity":49,"Duration":109889,"SoundDuration":109889,"Delta":76966570},{"NoteNumber":63,"Velocity":26,"Duration":109889,"SoundDuration":109889,"Delta":76966570},{"NoteNumber":67,"Velocity":31,"Duration":109889,"SoundDuration":109889,"Delta":76966570},{"NoteNumber":67,"Velocity":34,"Duration":53191,"SoundDuration":53191,"Delta":77297461},{"NoteNumber":70,"Velocity":44,"Duration":53191,"SoundDuration":53191,"Delta":77297461},{"NoteNumber":63,"Velocity":26,"Duration":53191,"SoundDuration":53191,"Delta":77297461},{"NoteNumber":58,"Velocity":21,"Duration":53191,"SoundDuration":53191,"Delta":77297461},{"NoteNumber":67,"Velocity":34,"Duration":115830,"SoundDuration":115830,"Delta":77403844},{"NoteNumber":70,"Velocity":44,"Duration":115830,"SoundDuration":115830,"Delta":77403844},{"NoteNumber":58,"Velocity":22,"Duration":115830,"SoundDuration":115830,"Delta":77403844},{"NoteNumber":63,"Velocity":27,"Duration":115830,"SoundDuration":115830,"Delta":77403844},{"NoteNumber":63,"Velocity":39,"Duration":108695,"SoundDuration":108695,"Delta":77635504},{"NoteNumber":67,"Velocity":51,"Duration":108695,"SoundDuration":108695,"Delta":77635504},{"NoteNumber":60,"Velocity":31,"Duration":108695,"SoundDuration":108695,"Delta":77635504},{"NoteNumber":60,"Velocity":36,"Duration":55147,"SoundDuration":55147,"Delta":77963189},{"NoteNumber":63,"Velocity":45,"Duration":55147,"SoundDuration":55147,"Delta":77963189},{"NoteNumber":48,"Velocity":21,"Duration":55147,"SoundDuration":55147,"Delta":77963189},{"NoteNumber":55,"Velocity":26,"Duration":55147,"SoundDuration":55147,"Delta":77963189},{"NoteNumber":60,"Velocity":36,"Duration":112359,"SoundDuration":112359,"Delta":78073483},{"NoteNumber":63,"Velocity":45,"Duration":112359,"SoundDuration":112359,"Delta":78073483},{"NoteNumber":48,"Velocity":21,"Duration":112359,"SoundDuration":112359,"Delta":78073483},{"NoteNumber":55,"Velocity":26,"Duration":112359,"SoundDuration":112359,"Delta":78073483},{"NoteNumber":60,"Velocity":39,"Duration":664206,"SoundDuration":664206,"Delta":78298202},{"NoteNumber":63,"Velocity":51,"Duration":664206,"SoundDuration":664206,"Delta":78298202},{"NoteNumber":48,"Velocity":25,"Duration":664206,"SoundDuration":664206,"Delta":78298202},{"NoteNumber":55,"Velocity":30,"Duration":664206,"SoundDuration":664206,"Delta":78298202},{"NoteNumber":58,"Velocity":37,"Duration":218181,"SoundDuration":218181,"Delta":78962408},{"NoteNumber":62,"Velocity":37,"Duration":218181,"SoundDuration":218181,"Delta":78962408},{"NoteNumber":70,"Velocity":49,"Duration":218181,"SoundDuration":218181,"Delta":78962408},{"NoteNumber":46,"Velocity":25,"Duration":218181,"SoundDuration":218181,"Delta":78962408},{"NoteNumber":53,"Velocity":25,"Duration":218181,"SoundDuration":218181,"Delta":78962408},{"NoteNumber":56,"Velocity":29,"Duration":218181,"SoundDuration":218181,"Delta":78962408},{"NoteNumber":58,"Velocity":34,"Duration":55555,"SoundDuration":55555,"Delta":79291701},{"NoteNumber":65,"Velocity":44,"Duration":55555,"SoundDuration":55555,"Delta":79291701},{"NoteNumber":46,"Velocity":21,"Duration":55555,"SoundDuration":55555,"Delta":79291701},{"NoteNumber":50,"Velocity":21,"Duration":55555,"SoundDuration":55555,"Delta":79291701},{"NoteNumber":56,"Velocity":26,"Duration":55555,"SoundDuration":55555,"Delta":79291701},{"NoteNumber":58,"Velocity":34,"Duration":111110,"SoundDuration":111110,"Delta":79402812},{"NoteNumber":65,"Velocity":44,"Duration":111110,"SoundDuration":111110,"Delta":79402812},{"NoteNumber":46,"Velocity":21,"Duration":111110,"SoundDuration":111110,"Delta":79402812},{"NoteNumber":50,"Velocity":21,"Duration":111110,"SoundDuration":111110,"Delta":79402812},{"NoteNumber":56,"Velocity":26,"Duration":111110,"SoundDuration":111110,"Delta":79402812},{"NoteNumber":58,"Velocity":37,"Duration":107142,"SoundDuration":107142,"Delta":79625034},{"NoteNumber":64,"Velocity":49,"Duration":107142,"SoundDuration":107142,"Delta":79625034},{"NoteNumber":49,"Velocity":25,"Duration":107142,"SoundDuration":107142,"Delta":79625034},{"NoteNumber":46,"Velocity":25,"Duration":107142,"SoundDuration":107142,"Delta":79625034},{"NoteNumber":56,"Velocity":30,"Duration":107142,"SoundDuration":107142,"Delta":79625034},{"NoteNumber":58,"Velocity":39,"Duration":109488,"SoundDuration":109488,"Delta":79839320},{"NoteNumber":65,"Velocity":51,"Duration":109488,"SoundDuration":109488,"Delta":79839320},{"NoteNumber":46,"Velocity":27,"Duration":109488,"SoundDuration":109488,"Delta":79839320},{"NoteNumber":50,"Velocity":27,"Duration":109488,"SoundDuration":109488,"Delta":79839320},{"NoteNumber":56,"Velocity":32,"Duration":109488,"SoundDuration":109488,"Delta":79839320},{"NoteNumber":58,"Velocity":39,"Duration":153846,"SoundDuration":153846,"Delta":80058298},{"NoteNumber":66,"Velocity":39,"Duration":153846,"SoundDuration":153846,"Delta":80058298},{"NoteNumber":70,"Velocity":51,"Duration":153846,"SoundDuration":153846,"Delta":80058298},{"NoteNumber":46,"Velocity":28,"Duration":153846,"SoundDuration":153846,"Delta":80058298},{"NoteNumber":50,"Velocity":28,"Duration":153846,"SoundDuration":153846,"Delta":80058298},{"NoteNumber":56,"Velocity":35,"Duration":153846,"SoundDuration":153846,"Delta":80058298},{"NoteNumber":58,"Velocity":42,"Duration":700389,"SoundDuration":700389,"Delta":80365990},{"NoteNumber":67,"Velocity":42,"Duration":700389,"SoundDuration":700389,"Delta":80365990},{"NoteNumber":70,"Velocity":54,"Duration":700389,"SoundDuration":700389,"Delta":80365990},{"NoteNumber":51,"Velocity":31,"Duration":700389,"SoundDuration":700389,"Delta":80365990},{"NoteNumber":55,"Velocity":36,"Duration":700389,"SoundDuration":700389,"Delta":80365990},{"NoteNumber":63,"Velocity":37,"Duration":226415,"SoundDuration":226415,"Delta":81066379},{"NoteNumber":67,"Velocity":49,"Duration":226415,"SoundDuration":226415,"Delta":81066379},{"NoteNumber":51,"Velocity":27,"Duration":226415,"SoundDuration":226415,"Delta":81066379},{"NoteNumber":58,"Velocity":32,"Duration":226415,"SoundDuration":226415,"Delta":81066379},{"NoteNumber":70,"Velocity":37,"Duration":218181,"SoundDuration":218181,"Delta":81745624},{"NoteNumber":75,"Velocity":37,"Duration":218181,"SoundDuration":218181,"Delta":81745624},{"NoteNumber":79,"Velocity":53,"Duration":218181,"SoundDuration":218181,"Delta":81745624},{"NoteNumber":63,"Velocity":25,"Duration":218181,"SoundDuration":218181,"Delta":81745624},{"NoteNumber":67,"Velocity":30,"Duration":218181,"SoundDuration":218181,"Delta":81745624},{"NoteNumber":67,"Velocity":33,"Duration":53380,"SoundDuration":53380,"Delta":82074917},{"NoteNumber":70,"Velocity":33,"Duration":53380,"SoundDuration":53380,"Delta":82074917},{"NoteNumber":75,"Velocity":43,"Duration":53380,"SoundDuration":53380,"Delta":82074917},{"NoteNumber":63,"Velocity":25,"Duration":53380,"SoundDuration":53380,"Delta":82074917},{"NoteNumber":58,"Velocity":20,"Duration":53380,"SoundDuration":53380,"Delta":82074917},{"NoteNumber":67,"Velocity":33,"Duration":115384,"SoundDuration":115384,"Delta":82181679},{"NoteNumber":70,"Velocity":33,"Duration":115384,"SoundDuration":115384,"Delta":82181679},{"NoteNumber":75,"Velocity":43,"Duration":115384,"SoundDuration":115384,"Delta":82181679},{"NoteNumber":58,"Velocity":20,"Duration":115384,"SoundDuration":115384,"Delta":82181679},{"NoteNumber":63,"Velocity":25,"Duration":115384,"SoundDuration":115384,"Delta":82181679},{"NoteNumber":67,"Velocity":37,"Duration":109889,"SoundDuration":109889,"Delta":82412448},{"NoteNumber":70,"Velocity":37,"Duration":109889,"SoundDuration":109889,"Delta":82412448},{"NoteNumber":75,"Velocity":49,"Duration":109889,"SoundDuration":109889,"Delta":82412448},{"NoteNumber":58,"Velocity":26,"Duration":109889,"SoundDuration":109889,"Delta":82412448},{"NoteNumber":63,"Velocity":31,"Duration":109889,"SoundDuration":109889,"Delta":82412448},{"NoteNumber":63,"Velocity":34,"Duration":55555,"SoundDuration":55555,"Delta":82739832},{"NoteNumber":67,"Velocity":34,"Duration":55555,"SoundDuration":55555,"Delta":82739832},{"NoteNumber":70,"Velocity":44,"Duration":55555,"SoundDuration":55555,"Delta":82739832},{"NoteNumber":58,"Velocity":26,"Duration":55555,"SoundDuration":55555,"Delta":82739832},{"NoteNumber":55,"Velocity":21,"Duration":55555,"SoundDuration":55555,"Delta":82739832},{"NoteNumber":63,"Velocity":34,"Duration":115830,"SoundDuration":115830,"Delta":82850943},{"NoteNumber":67,"Velocity":34,"Duration":115830,"SoundDuration":115830,"Delta":82850943},{"NoteNumber":70,"Velocity":44,"Duration":115830,"SoundDuration":115830,"Delta":82850943},{"NoteNumber":55,"Velocity":22,"Duration":115830,"SoundDuration":115830,"Delta":82850943},{"NoteNumber":58,"Velocity":27,"Duration":115830,"SoundDuration":115830,"Delta":82850943},{"NoteNumber":63,"Velocity":39,"Duration":108695,"SoundDuration":108695,"Delta":83082603},{"NoteNumber":67,"Velocity":51,"Duration":108695,"SoundDuration":108695,"Delta":83082603},{"NoteNumber":55,"Velocity":22,"Duration":108695,"SoundDuration":108695,"Delta":83082603},{"NoteNumber":60,"Velocity":31,"Duration":108695,"SoundDuration":108695,"Delta":83082603},{"NoteNumber":60,"Velocity":36,"Duration":53571,"SoundDuration":53571,"Delta":83410288},{"NoteNumber":63,"Velocity":45,"Duration":53571,"SoundDuration":53571,"Delta":83410288},{"NoteNumber":48,"Velocity":21,"Duration":53571,"SoundDuration":53571,"Delta":83410288},{"NoteNumber":55,"Velocity":26,"Duration":53571,"SoundDuration":53571,"Delta":83410288},{"NoteNumber":60,"Velocity":36,"Duration":112359,"SoundDuration":112359,"Delta":83517431},{"NoteNumber":63,"Velocity":45,"Duration":112359,"SoundDuration":112359,"Delta":83517431},{"NoteNumber":48,"Velocity":21,"Duration":112359,"SoundDuration":112359,"Delta":83517431},{"NoteNumber":55,"Velocity":26,"Duration":112359,"SoundDuration":112359,"Delta":83517431},{"NoteNumber":60,"Velocity":39,"Duration":664205,"SoundDuration":664205,"Delta":83742150},{"NoteNumber":63,"Velocity":51,"Duration":664205,"SoundDuration":664205,"Delta":83742150},{"NoteNumber":48,"Velocity":25,"Duration":664205,"SoundDuration":664205,"Delta":83742150},{"NoteNumber":55,"Velocity":30,"Duration":664205,"SoundDuration":664205,"Delta":83742150},{"NoteNumber":59,"Velocity":37,"Duration":218181,"SoundDuration":218181,"Delta":84406356},{"NoteNumber":62,"Velocity":37,"Duration":218181,"SoundDuration":218181,"Delta":84406356},{"NoteNumber":71,"Velocity":49,"Duration":218181,"SoundDuration":218181,"Delta":84406356},{"NoteNumber":43,"Velocity":25,"Duration":218181,"SoundDuration":218181,"Delta":84406356},{"NoteNumber":50,"Velocity":25,"Duration":218181,"SoundDuration":218181,"Delta":84406356},{"NoteNumber":55,"Velocity":29,"Duration":218181,"SoundDuration":218181,"Delta":84406356},{"NoteNumber":59,"Velocity":34,"Duration":55555,"SoundDuration":55555,"Delta":84735649},{"NoteNumber":62,"Velocity":44,"Duration":55555,"SoundDuration":55555,"Delta":84735649},{"NoteNumber":43,"Velocity":21,"Duration":55555,"SoundDuration":55555,"Delta":84735649},{"NoteNumber":50,"Velocity":21,"Duration":55555,"SoundDuration":55555,"Delta":84735649},{"NoteNumber":55,"Velocity":26,"Duration":55555,"SoundDuration":55555,"Delta":84735649},{"NoteNumber":59,"Velocity":34,"Duration":111110,"SoundDuration":111110,"Delta":84846760},{"NoteNumber":62,"Velocity":44,"Duration":111110,"SoundDuration":111110,"Delta":84846760},{"NoteNumber":43,"Velocity":21,"Duration":111110,"SoundDuration":111110,"Delta":84846760},{"NoteNumber":50,"Velocity":21,"Duration":111110,"SoundDuration":111110,"Delta":84846760},{"NoteNumber":55,"Velocity":26,"Duration":111110,"SoundDuration":111110,"Delta":84846760},{"NoteNumber":59,"Velocity":37,"Duration":107142,"SoundDuration":107142,"Delta":85068982},{"NoteNumber":61,"Velocity":49,"Duration":107142,"SoundDuration":107142,"Delta":85068982},{"NoteNumber":50,"Velocity":25,"Duration":107142,"SoundDuration":107142,"Delta":85068982},{"NoteNumber":43,"Velocity":25,"Duration":107142,"SoundDuration":107142,"Delta":85068982},{"NoteNumber":55,"Velocity":30,"Duration":107142,"SoundDuration":107142,"Delta":85068982},{"NoteNumber":59,"Velocity":39,"Duration":109488,"SoundDuration":109488,"Delta":85283268},{"NoteNumber":62,"Velocity":51,"Duration":109488,"SoundDuration":109488,"Delta":85283268},{"NoteNumber":43,"Velocity":27,"Duration":109488,"SoundDuration":109488,"Delta":85283268},{"NoteNumber":50,"Velocity":27,"Duration":109488,"SoundDuration":109488,"Delta":85283268},{"NoteNumber":55,"Velocity":32,"Duration":109488,"SoundDuration":109488,"Delta":85283268},{"NoteNumber":59,"Velocity":39,"Duration":153846,"SoundDuration":153846,"Delta":85502246},{"NoteNumber":62,"Velocity":39,"Duration":153846,"SoundDuration":153846,"Delta":85502246},{"NoteNumber":67,"Velocity":51,"Duration":153846,"SoundDuration":153846,"Delta":85502246},{"NoteNumber":43,"Velocity":28,"Duration":153846,"SoundDuration":153846,"Delta":85502246},{"NoteNumber":50,"Velocity":28,"Duration":153846,"SoundDuration":153846,"Delta":85502246},{"NoteNumber":55,"Velocity":35,"Duration":153846,"SoundDuration":153846,"Delta":85502246},{"NoteNumber":59,"Velocity":42,"Duration":705882,"SoundDuration":705882,"Delta":85809938},{"NoteNumber":67,"Velocity":42,"Duration":705882,"SoundDuration":705882,"Delta":85809938},{"NoteNumber":71,"Velocity":54,"Duration":705882,"SoundDuration":705882,"Delta":85809938},{"NoteNumber":43,"Velocity":31,"Duration":705882,"SoundDuration":705882,"Delta":85809938},{"NoteNumber":50,"Velocity":31,"Duration":705882,"SoundDuration":705882,"Delta":85809938},{"NoteNumber":55,"Velocity":36,"Duration":705882,"SoundDuration":705882,"Delta":85809938},{"NoteNumber":58,"Velocity":37,"Duration":705882,"SoundDuration":705882,"Delta":86515820},{"NoteNumber":62,"Velocity":37,"Duration":705882,"SoundDuration":705882,"Delta":86515820},{"NoteNumber":70,"Velocity":49,"Duration":705882,"SoundDuration":705882,"Delta":86515820},{"NoteNumber":46,"Velocity":27,"Duration":705882,"SoundDuration":705882,"Delta":86515820},{"NoteNumber":53,"Velocity":27,"Duration":705882,"SoundDuration":705882,"Delta":86515820},{"NoteNumber":56,"Velocity":32,"Duration":705882,"SoundDuration":705882,"Delta":86515820},{"NoteNumber":79,"Velocity":60,"Duration":218181,"SoundDuration":218181,"Delta":87221702},{"NoteNumber":82,"Velocity":60,"Duration":218181,"SoundDuration":218181,"Delta":87221702},{"NoteNumber":91,"Velocity":78,"Duration":218181,"SoundDuration":218181,"Delta":87221702},{"NoteNumber":39,"Velocity":34,"Duration":218181,"SoundDuration":218181,"Delta":87221702},{"NoteNumber":46,"Velocity":34,"Duration":218181,"SoundDuration":218181,"Delta":87221702},{"NoteNumber":51,"Velocity":40,"Duration":218181,"SoundDuration":218181,"Delta":87221702},{"NoteNumber":75,"Velocity":54,"Duration":51194,"SoundDuration":51194,"Delta":87555714},{"NoteNumber":79,"Velocity":54,"Duration":51194,"SoundDuration":51194,"Delta":87555714},{"NoteNumber":87,"Velocity":64,"Duration":51194,"SoundDuration":51194,"Delta":87555714},{"NoteNumber":43,"Velocity":27,"Duration":51194,"SoundDuration":51194,"Delta":87555714},{"NoteNumber":55,"Velocity":33,"Duration":51194,"SoundDuration":51194,"Delta":87555714},{"NoteNumber":51,"Velocity":27,"Duration":51194,"SoundDuration":51194,"Delta":87555714},{"NoteNumber":75,"Velocity":54,"Duration":115384,"SoundDuration":115384,"Delta":87658103},{"NoteNumber":79,"Velocity":54,"Duration":115384,"SoundDuration":115384,"Delta":87658103},{"NoteNumber":87,"Velocity":64,"Duration":115384,"SoundDuration":115384,"Delta":87658103},{"NoteNumber":43,"Velocity":27,"Duration":115384,"SoundDuration":115384,"Delta":87658103},{"NoteNumber":51,"Velocity":27,"Duration":115384,"SoundDuration":115384,"Delta":87658103},{"NoteNumber":55,"Velocity":33,"Duration":115384,"SoundDuration":115384,"Delta":87658103},{"NoteNumber":75,"Velocity":60,"Duration":109889,"SoundDuration":109889,"Delta":87888872},{"NoteNumber":79,"Velocity":60,"Duration":109889,"SoundDuration":109889,"Delta":87888872},{"NoteNumber":87,"Velocity":72,"Duration":109889,"SoundDuration":109889,"Delta":87888872},{"NoteNumber":43,"Velocity":35,"Duration":109889,"SoundDuration":109889,"Delta":87888872},{"NoteNumber":51,"Velocity":35,"Duration":109889,"SoundDuration":109889,"Delta":87888872},{"NoteNumber":55,"Velocity":41,"Duration":109889,"SoundDuration":109889,"Delta":87888872},{"NoteNumber":70,"Velocity":53,"Duration":52264,"SoundDuration":52264,"Delta":88224931},{"NoteNumber":75,"Velocity":53,"Duration":52264,"SoundDuration":52264,"Delta":88224931},{"NoteNumber":82,"Velocity":63,"Duration":52264,"SoundDuration":52264,"Delta":88224931},{"NoteNumber":46,"Velocity":29,"Duration":52264,"SoundDuration":52264,"Delta":88224931},{"NoteNumber":58,"Velocity":35,"Duration":52264,"SoundDuration":52264,"Delta":88224931},{"NoteNumber":55,"Velocity":29,"Duration":52264,"SoundDuration":52264,"Delta":88224931},{"NoteNumber":70,"Velocity":53,"Duration":115830,"SoundDuration":115830,"Delta":88329461},{"NoteNumber":75,"Velocity":53,"Duration":115830,"SoundDuration":115830,"Delta":88329461},{"NoteNumber":82,"Velocity":63,"Duration":115830,"SoundDuration":115830,"Delta":88329461},{"NoteNumber":46,"Velocity":30,"Duration":115830,"SoundDuration":115830,"Delta":88329461},{"NoteNumber":55,"Velocity":30,"Duration":115830,"SoundDuration":115830,"Delta":88329461},{"NoteNumber":58,"Velocity":36,"Duration":115830,"SoundDuration":115830,"Delta":88329461},{"NoteNumber":67,"Velocity":61,"Duration":108695,"SoundDuration":108695,"Delta":88561121},{"NoteNumber":75,"Velocity":61,"Duration":108695,"SoundDuration":108695,"Delta":88561121},{"NoteNumber":79,"Velocity":72,"Duration":108695,"SoundDuration":108695,"Delta":88561121},{"NoteNumber":48,"Velocity":29,"Duration":108695,"SoundDuration":108695,"Delta":88561121},{"NoteNumber":55,"Velocity":29,"Duration":108695,"SoundDuration":108695,"Delta":88561121},{"NoteNumber":60,"Velocity":41,"Duration":108695,"SoundDuration":108695,"Delta":88561121},{"NoteNumber":67,"Velocity":54,"Duration":53003,"SoundDuration":53003,"Delta":88890452},{"NoteNumber":72,"Velocity":54,"Duration":53003,"SoundDuration":53003,"Delta":88890452},{"NoteNumber":75,"Velocity":64,"Duration":53003,"SoundDuration":53003,"Delta":88890452},{"NoteNumber":60,"Velocity":29,"Duration":53003,"SoundDuration":53003,"Delta":88890452},{"NoteNumber":55,"Velocity":29,"Duration":53003,"SoundDuration":53003,"Delta":88890452},{"NoteNumber":63,"Velocity":35,"Duration":53003,"SoundDuration":53003,"Delta":88890452},{"NoteNumber":67,"Velocity":54,"Duration":112359,"SoundDuration":112359,"Delta":88996459},{"NoteNumber":72,"Velocity":54,"Duration":112359,"SoundDuration":112359,"Delta":88996459},{"NoteNumber":75,"Velocity":64,"Duration":112359,"SoundDuration":112359,"Delta":88996459},{"NoteNumber":60,"Velocity":29,"Duration":112359,"SoundDuration":112359,"Delta":88996459},{"NoteNumber":55,"Velocity":29,"Duration":112359,"SoundDuration":112359,"Delta":88996459},{"NoteNumber":63,"Velocity":35,"Duration":112359,"SoundDuration":112359,"Delta":88996459},{"NoteNumber":67,"Velocity":60,"Duration":664205,"SoundDuration":664205,"Delta":89221178},{"NoteNumber":72,"Velocity":60,"Duration":664205,"SoundDuration":664205,"Delta":89221178},{"NoteNumber":75,"Velocity":71,"Duration":664205,"SoundDuration":664205,"Delta":89221178},{"NoteNumber":60,"Velocity":34,"Duration":664205,"SoundDuration":664205,"Delta":89221178},{"NoteNumber":55,"Velocity":34,"Duration":664205,"SoundDuration":664205,"Delta":89221178},{"NoteNumber":63,"Velocity":40,"Duration":664205,"SoundDuration":664205,"Delta":89221178},{"NoteNumber":68,"Velocity":50,"Duration":218181,"SoundDuration":218181,"Delta":89885384},{"NoteNumber":70,"Velocity":50,"Duration":218181,"SoundDuration":218181,"Delta":89885384},{"NoteNumber":74,"Velocity":50,"Duration":218181,"SoundDuration":218181,"Delta":89885384},{"NoteNumber":82,"Velocity":60,"Duration":218181,"SoundDuration":218181,"Delta":89885384},{"NoteNumber":46,"Velocity":33,"Duration":218181,"SoundDuration":218181,"Delta":89885384},{"NoteNumber":53,"Velocity":33,"Duration":218181,"SoundDuration":218181,"Delta":89885384},{"NoteNumber":58,"Velocity":40,"Duration":218181,"SoundDuration":218181,"Delta":89885384},{"NoteNumber":68,"Velocity":45,"Duration":55555,"SoundDuration":55555,"Delta":90214677},{"NoteNumber":70,"Velocity":45,"Duration":55555,"SoundDuration":55555,"Delta":90214677},{"NoteNumber":77,"Velocity":54,"Duration":55555,"SoundDuration":55555,"Delta":90214677},{"NoteNumber":58,"Velocity":29,"Duration":55555,"SoundDuration":55555,"Delta":90214677},{"NoteNumber":62,"Velocity":29,"Duration":55555,"SoundDuration":55555,"Delta":90214677},{"NoteNumber":65,"Velocity":35,"Duration":55555,"SoundDuration":55555,"Delta":90214677},{"NoteNumber":68,"Velocity":45,"Duration":111110,"SoundDuration":111110,"Delta":90325788},{"NoteNumber":70,"Velocity":45,"Duration":111110,"SoundDuration":111110,"Delta":90325788},{"NoteNumber":77,"Velocity":54,"Duration":111110,"SoundDuration":111110,"Delta":90325788},{"NoteNumber":58,"Velocity":29,"Duration":111110,"SoundDuration":111110,"Delta":90325788},{"NoteNumber":62,"Velocity":29,"Duration":111110,"SoundDuration":111110,"Delta":90325788},{"NoteNumber":65,"Velocity":35,"Duration":111110,"SoundDuration":111110,"Delta":90325788},{"NoteNumber":68,"Velocity":50,"Duration":107142,"SoundDuration":107142,"Delta":90548010},{"NoteNumber":70,"Velocity":50,"Duration":107142,"SoundDuration":107142,"Delta":90548010},{"NoteNumber":76,"Velocity":60,"Duration":107142,"SoundDuration":107142,"Delta":90548010},{"NoteNumber":61,"Velocity":34,"Duration":107142,"SoundDuration":107142,"Delta":90548010},{"NoteNumber":58,"Velocity":34,"Duration":107142,"SoundDuration":107142,"Delta":90548010},{"NoteNumber":64,"Velocity":40,"Duration":107142,"SoundDuration":107142,"Delta":90548010},{"NoteNumber":68,"Velocity":54,"Duration":109488,"SoundDuration":109488,"Delta":90762296},{"NoteNumber":70,"Velocity":54,"Duration":109488,"SoundDuration":109488,"Delta":90762296},{"NoteNumber":77,"Velocity":63,"Duration":109488,"SoundDuration":109488,"Delta":90762296},{"NoteNumber":58,"Velocity":36,"Duration":109488,"SoundDuration":109488,"Delta":90762296},{"NoteNumber":62,"Velocity":36,"Duration":109488,"SoundDuration":109488,"Delta":90762296},{"NoteNumber":65,"Velocity":44,"Duration":109488,"SoundDuration":109488,"Delta":90762296},{"NoteNumber":68,"Velocity":54,"Duration":153846,"SoundDuration":153846,"Delta":90981274},{"NoteNumber":70,"Velocity":54,"Duration":153846,"SoundDuration":153846,"Delta":90981274},{"NoteNumber":78,"Velocity":54,"Duration":153846,"SoundDuration":153846,"Delta":90981274},{"NoteNumber":82,"Velocity":63,"Duration":153846,"SoundDuration":153846,"Delta":90981274},{"NoteNumber":58,"Velocity":39,"Duration":153846,"SoundDuration":153846,"Delta":90981274},{"NoteNumber":62,"Velocity":39,"Duration":153846,"SoundDuration":153846,"Delta":90981274},{"NoteNumber":66,"Velocity":46,"Duration":153846,"SoundDuration":153846,"Delta":90981274},{"NoteNumber":70,"Velocity":56,"Duration":666666,"SoundDuration":666666,"Delta":91288966},{"NoteNumber":79,"Velocity":56,"Duration":666666,"SoundDuration":666666,"Delta":91288966},{"NoteNumber":82,"Velocity":67,"Duration":666666,"SoundDuration":666666,"Delta":91288966},{"NoteNumber":58,"Velocity":41,"Duration":666666,"SoundDuration":666666,"Delta":91288966},{"NoteNumber":51,"Velocity":41,"Duration":666666,"SoundDuration":666666,"Delta":91288966},{"NoteNumber":67,"Velocity":49,"Duration":666666,"SoundDuration":666666,"Delta":91288966},{"NoteNumber":67,"Velocity":50,"Duration":222221,"SoundDuration":222221,"Delta":91955632},{"NoteNumber":70,"Velocity":50,"Duration":222221,"SoundDuration":222221,"Delta":91955632},{"NoteNumber":79,"Velocity":60,"Duration":222221,"SoundDuration":222221,"Delta":91955632},{"NoteNumber":58,"Velocity":36,"Duration":222221,"SoundDuration":222221,"Delta":91955632},{"NoteNumber":51,"Velocity":36,"Duration":222221,"SoundDuration":222221,"Delta":91955632},{"NoteNumber":63,"Velocity":43,"Duration":222221,"SoundDuration":222221,"Delta":91955632},{"NoteNumber":87,"Velocity":67,"Duration":218181,"SoundDuration":218181,"Delta":92622298},{"NoteNumber":91,"Velocity":67,"Duration":218181,"SoundDuration":218181,"Delta":92622298},{"NoteNumber":99,"Velocity":87,"Duration":218181,"SoundDuration":218181,"Delta":92622298},{"NoteNumber":39,"Velocity":45,"Duration":218181,"SoundDuration":218181,"Delta":92622298},{"NoteNumber":46,"Velocity":45,"Duration":218181,"SoundDuration":218181,"Delta":92622298},{"NoteNumber":51,"Velocity":54,"Duration":218181,"SoundDuration":218181,"Delta":92622298},{"NoteNumber":82,"Velocity":60,"Duration":51903,"SoundDuration":51903,"Delta":92954549},{"NoteNumber":87,"Velocity":60,"Duration":51903,"SoundDuration":51903,"Delta":92954549},{"NoteNumber":94,"Velocity":72,"Duration":51903,"SoundDuration":51903,"Delta":92954549},{"NoteNumber":43,"Velocity":36,"Duration":51903,"SoundDuration":51903,"Delta":92954549},{"NoteNumber":55,"Velocity":45,"Duration":51903,"SoundDuration":51903,"Delta":92954549},{"NoteNumber":51,"Velocity":36,"Duration":51903,"SoundDuration":51903,"Delta":92954549},{"NoteNumber":82,"Velocity":61,"Duration":115384,"SoundDuration":115384,"Delta":93058355},{"NoteNumber":87,"Velocity":61,"Duration":115384,"SoundDuration":115384,"Delta":93058355},{"NoteNumber":94,"Velocity":72,"Duration":115384,"SoundDuration":115384,"Delta":93058355},{"NoteNumber":43,"Velocity":36,"Duration":115384,"SoundDuration":115384,"Delta":93058355},{"NoteNumber":51,"Velocity":36,"Duration":115384,"SoundDuration":115384,"Delta":93058355},{"NoteNumber":55,"Velocity":45,"Duration":115384,"SoundDuration":115384,"Delta":93058355},{"NoteNumber":82,"Velocity":69,"Duration":109889,"SoundDuration":109889,"Delta":93289124},{"NoteNumber":87,"Velocity":69,"Duration":109889,"SoundDuration":109889,"Delta":93289124},{"NoteNumber":94,"Velocity":82,"Duration":109889,"SoundDuration":109889,"Delta":93289124},{"NoteNumber":43,"Velocity":47,"Duration":109889,"SoundDuration":109889,"Delta":93289124},{"NoteNumber":51,"Velocity":47,"Duration":109889,"SoundDuration":109889,"Delta":93289124},{"NoteNumber":55,"Velocity":56,"Duration":109889,"SoundDuration":109889,"Delta":93289124},{"NoteNumber":79,"Velocity":62,"Duration":51724,"SoundDuration":51724,"Delta":93621264},{"NoteNumber":87,"Velocity":62,"Duration":51724,"SoundDuration":51724,"Delta":93621264},{"NoteNumber":91,"Velocity":72,"Duration":51724,"SoundDuration":51724,"Delta":93621264},{"NoteNumber":46,"Velocity":41,"Duration":51724,"SoundDuration":51724,"Delta":93621264},{"NoteNumber":58,"Velocity":48,"Duration":51724,"SoundDuration":51724,"Delta":93621264},{"NoteNumber":55,"Velocity":41,"Duration":51724,"SoundDuration":51724,"Delta":93621264},{"NoteNumber":79,"Velocity":62,"Duration":115830,"SoundDuration":115830,"Delta":93724712},{"NoteNumber":87,"Velocity":62,"Duration":115830,"SoundDuration":115830,"Delta":93724712},{"NoteNumber":91,"Velocity":73,"Duration":115830,"SoundDuration":115830,"Delta":93724712},{"NoteNumber":46,"Velocity":42,"Duration":115830,"SoundDuration":115830,"Delta":93724712},{"NoteNumber":55,"Velocity":42,"Duration":115830,"SoundDuration":115830,"Delta":93724712},{"NoteNumber":58,"Velocity":51,"Duration":115830,"SoundDuration":115830,"Delta":93724712},{"NoteNumber":79,"Velocity":72,"Duration":108695,"SoundDuration":108695,"Delta":93956372},{"NoteNumber":87,"Velocity":72,"Duration":108695,"SoundDuration":108695,"Delta":93956372},{"NoteNumber":91,"Velocity":86,"Duration":108695,"SoundDuration":108695,"Delta":93956372},{"NoteNumber":48,"Velocity":42,"Duration":108695,"SoundDuration":108695,"Delta":93956372},{"NoteNumber":55,"Velocity":42,"Duration":108695,"SoundDuration":108695,"Delta":93956372},{"NoteNumber":60,"Velocity":59,"Duration":108695,"SoundDuration":108695,"Delta":93956372},{"NoteNumber":75,"Velocity":66,"Duration":53380,"SoundDuration":53380,"Delta":94285704},{"NoteNumber":84,"Velocity":66,"Duration":53380,"SoundDuration":53380,"Delta":94285704},{"NoteNumber":87,"Velocity":78,"Duration":53380,"SoundDuration":53380,"Delta":94285704},{"NoteNumber":60,"Velocity":42,"Duration":53380,"SoundDuration":53380,"Delta":94285704},{"NoteNumber":55,"Velocity":42,"Duration":53380,"SoundDuration":53380,"Delta":94285704},{"NoteNumber":63,"Velocity":50,"Duration":53380,"SoundDuration":53380,"Delta":94285704},{"NoteNumber":75,"Velocity":66,"Duration":112359,"SoundDuration":112359,"Delta":94392465},{"NoteNumber":84,"Velocity":66,"Duration":112359,"SoundDuration":112359,"Delta":94392465},{"NoteNumber":87,"Velocity":79,"Duration":112359,"SoundDuration":112359,"Delta":94392465},{"NoteNumber":60,"Velocity":43,"Duration":112359,"SoundDuration":112359,"Delta":94392465},{"NoteNumber":55,"Velocity":43,"Duration":112359,"SoundDuration":112359,"Delta":94392465},{"NoteNumber":63,"Velocity":51,"Duration":112359,"SoundDuration":112359,"Delta":94392465},{"NoteNumber":75,"Velocity":74,"Duration":664206,"SoundDuration":664206,"Delta":94617184},{"NoteNumber":84,"Velocity":74,"Duration":664206,"SoundDuration":664206,"Delta":94617184},{"NoteNumber":87,"Velocity":87,"Duration":664206,"SoundDuration":664206,"Delta":94617184},{"NoteNumber":60,"Velocity":50,"Duration":664206,"SoundDuration":664206,"Delta":94617184},{"NoteNumber":55,"Velocity":50,"Duration":664206,"SoundDuration":664206,"Delta":94617184},{"NoteNumber":63,"Velocity":60,"Duration":664206,"SoundDuration":664206,"Delta":94617184},{"NoteNumber":83,"Velocity":72,"Duration":218181,"SoundDuration":218181,"Delta":95281390},{"NoteNumber":86,"Velocity":72,"Duration":218181,"SoundDuration":218181,"Delta":95281390},{"NoteNumber":95,"Velocity":87,"Duration":218181,"SoundDuration":218181,"Delta":95281390},{"NoteNumber":43,"Velocity":48,"Duration":218181,"SoundDuration":218181,"Delta":95281390},{"NoteNumber":50,"Velocity":48,"Duration":218181,"SoundDuration":218181,"Delta":95281390},{"NoteNumber":55,"Velocity":57,"Duration":218181,"SoundDuration":218181,"Delta":95281390},{"NoteNumber":74,"Velocity":64,"Duration":51724,"SoundDuration":51724,"Delta":95611096},{"NoteNumber":83,"Velocity":64,"Duration":51724,"SoundDuration":51724,"Delta":95611096},{"NoteNumber":86,"Velocity":78,"Duration":51724,"SoundDuration":51724,"Delta":95611096},{"NoteNumber":55,"Velocity":41,"Duration":51724,"SoundDuration":51724,"Delta":95611096},{"NoteNumber":59,"Velocity":41,"Duration":51724,"SoundDuration":51724,"Delta":95611096},{"NoteNumber":62,"Velocity":49,"Duration":51724,"SoundDuration":51724,"Delta":95611096},{"NoteNumber":74,"Velocity":64,"Duration":110293,"SoundDuration":110293,"Delta":95714545},{"NoteNumber":83,"Velocity":64,"Duration":110293,"SoundDuration":110293,"Delta":95714545},{"NoteNumber":86,"Velocity":78,"Duration":110293,"SoundDuration":110293,"Delta":95714545},{"NoteNumber":55,"Velocity":41,"Duration":110293,"SoundDuration":110293,"Delta":95714545},{"NoteNumber":59,"Velocity":41,"Duration":110293,"SoundDuration":110293,"Delta":95714545},{"NoteNumber":62,"Velocity":49,"Duration":110293,"SoundDuration":110293,"Delta":95714545},{"NoteNumber":73,"Velocity":68,"Duration":107142,"SoundDuration":107142,"Delta":95935133},{"NoteNumber":82,"Velocity":68,"Duration":107142,"SoundDuration":107142,"Delta":95935133},{"NoteNumber":85,"Velocity":82,"Duration":107142,"SoundDuration":107142,"Delta":95935133},{"NoteNumber":58,"Velocity":45,"Duration":107142,"SoundDuration":107142,"Delta":95935133},{"NoteNumber":55,"Velocity":45,"Duration":107142,"SoundDuration":107142,"Delta":95935133},{"NoteNumber":61,"Velocity":54,"Duration":107142,"SoundDuration":107142,"Delta":95935133},{"NoteNumber":74,"Velocity":77,"Duration":109488,"SoundDuration":109488,"Delta":96149418},{"NoteNumber":83,"Velocity":77,"Duration":109488,"SoundDuration":109488,"Delta":96149418},{"NoteNumber":86,"Velocity":90,"Duration":109488,"SoundDuration":109488,"Delta":96149418},{"NoteNumber":55,"Velocity":53,"Duration":109488,"SoundDuration":109488,"Delta":96149418},{"NoteNumber":59,"Velocity":53,"Duration":109488,"SoundDuration":109488,"Delta":96149418},{"NoteNumber":62,"Velocity":63,"Duration":109488,"SoundDuration":109488,"Delta":96149418},{"NoteNumber":79,"Velocity":77,"Duration":126582,"SoundDuration":126582,"Delta":96368396},{"NoteNumber":83,"Velocity":77,"Duration":126582,"SoundDuration":126582,"Delta":96368396},{"NoteNumber":91,"Velocity":90,"Duration":126582,"SoundDuration":126582,"Delta":96368396},{"NoteNumber":55,"Velocity":55,"Duration":126582,"SoundDuration":126582,"Delta":96368396},{"NoteNumber":62,"Velocity":55,"Duration":126582,"SoundDuration":126582,"Delta":96368396},{"NoteNumber":67,"Velocity":65,"Duration":126582,"SoundDuration":126582,"Delta":96368396},{"NoteNumber":86,"Velocity":72,"Duration":218181,"SoundDuration":218181,"Delta":96621561},{"NoteNumber":95,"Velocity":87,"Duration":218181,"SoundDuration":218181,"Delta":96621561},{"NoteNumber":83,"Velocity":72,"Duration":218181,"SoundDuration":218181,"Delta":96621561},{"NoteNumber":54,"Velocity":48,"Duration":218181,"SoundDuration":218181,"Delta":96621561},{"NoteNumber":59,"Velocity":57,"Duration":218181,"SoundDuration":218181,"Delta":96621561},{"NoteNumber":47,"Velocity":48,"Duration":218181,"SoundDuration":218181,"Delta":96621561},{"NoteNumber":78,"Velocity":64,"Duration":52816,"SoundDuration":52816,"Delta":96952102},{"NoteNumber":90,"Velocity":78,"Duration":52816,"SoundDuration":52816,"Delta":96952102},{"NoteNumber":86,"Velocity":64,"Duration":52816,"SoundDuration":52816,"Delta":96952102},{"NoteNumber":59,"Velocity":41,"Duration":52816,"SoundDuration":52816,"Delta":96952102},{"NoteNumber":66,"Velocity":49,"Duration":52816,"SoundDuration":52816,"Delta":96952102},{"NoteNumber":62,"Velocity":41,"Duration":52816,"SoundDuration":52816,"Delta":96952102},{"NoteNumber":86,"Velocity":64,"Duration":111110,"SoundDuration":111110,"Delta":97057736},{"NoteNumber":78,"Velocity":64,"Duration":111110,"SoundDuration":111110,"Delta":97057736},{"NoteNumber":90,"Velocity":78,"Duration":111110,"SoundDuration":111110,"Delta":97057736},{"NoteNumber":66,"Velocity":49,"Duration":111110,"SoundDuration":111110,"Delta":97057736},{"NoteNumber":62,"Velocity":41,"Duration":111110,"SoundDuration":111110,"Delta":97057736},{"NoteNumber":59,"Velocity":41,"Duration":111110,"SoundDuration":111110,"Delta":97057736},{"NoteNumber":78,"Velocity":72,"Duration":666665,"SoundDuration":666665,"Delta":97279958},{"NoteNumber":90,"Velocity":87,"Duration":666665,"SoundDuration":666665,"Delta":97279958},{"NoteNumber":86,"Velocity":72,"Duration":666665,"SoundDuration":666665,"Delta":97279958},{"NoteNumber":62,"Velocity":51,"Duration":666665,"SoundDuration":666665,"Delta":97279958},{"NoteNumber":59,"Velocity":51,"Duration":666665,"SoundDuration":666665,"Delta":97279958},{"NoteNumber":66,"Velocity":61,"Duration":666665,"SoundDuration":666665,"Delta":97279958},{"NoteNumber":82,"Velocity":64,"Duration":218181,"SoundDuration":218181,"Delta":97946624},{"NoteNumber":85,"Velocity":64,"Duration":218181,"SoundDuration":218181,"Delta":97946624},{"NoteNumber":94,"Velocity":78,"Duration":218181,"SoundDuration":218181,"Delta":97946624},{"NoteNumber":42,"Velocity":43,"Duration":218181,"SoundDuration":218181,"Delta":97946624},{"NoteNumber":49,"Velocity":43,"Duration":218181,"SoundDuration":218181,"Delta":97946624},{"NoteNumber":54,"Velocity":51,"Duration":218181,"SoundDuration":218181,"Delta":97946624},{"NoteNumber":73,"Velocity":57,"Duration":51724,"SoundDuration":51724,"Delta":98277165},{"NoteNumber":82,"Velocity":57,"Duration":51724,"SoundDuration":51724,"Delta":98277165},{"NoteNumber":85,"Velocity":70,"Duration":51724,"SoundDuration":51724,"Delta":98277165},{"NoteNumber":54,"Velocity":36,"Duration":51724,"SoundDuration":51724,"Delta":98277165},{"NoteNumber":58,"Velocity":36,"Duration":51724,"SoundDuration":51724,"Delta":98277165},{"NoteNumber":61,"Velocity":44,"Duration":51724,"SoundDuration":51724,"Delta":98277165},{"NoteNumber":73,"Velocity":57,"Duration":111110,"SoundDuration":111110,"Delta":98380614},{"NoteNumber":82,"Velocity":57,"Duration":111110,"SoundDuration":111110,"Delta":98380614},{"NoteNumber":85,"Velocity":70,"Duration":111110,"SoundDuration":111110,"Delta":98380614},{"NoteNumber":54,"Velocity":36,"Duration":111110,"SoundDuration":111110,"Delta":98380614},{"NoteNumber":58,"Velocity":36,"Duration":111110,"SoundDuration":111110,"Delta":98380614},{"NoteNumber":61,"Velocity":44,"Duration":111110,"SoundDuration":111110,"Delta":98380614},{"NoteNumber":72,"Velocity":64,"Duration":107142,"SoundDuration":107142,"Delta":98602836},{"NoteNumber":81,"Velocity":64,"Duration":107142,"SoundDuration":107142,"Delta":98602836},{"NoteNumber":84,"Velocity":78,"Duration":107142,"SoundDuration":107142,"Delta":98602836},{"NoteNumber":57,"Velocity":43,"Duration":107142,"SoundDuration":107142,"Delta":98602836},{"NoteNumber":54,"Velocity":43,"Duration":107142,"SoundDuration":107142,"Delta":98602836},{"NoteNumber":60,"Velocity":52,"Duration":107142,"SoundDuration":107142,"Delta":98602836},{"NoteNumber":73,"Velocity":69,"Duration":109488,"SoundDuration":109488,"Delta":98817121},{"NoteNumber":82,"Velocity":69,"Duration":109488,"SoundDuration":109488,"Delta":98817121},{"NoteNumber":85,"Velocity":81,"Duration":109488,"SoundDuration":109488,"Delta":98817121},{"NoteNumber":54,"Velocity":47,"Duration":109488,"SoundDuration":109488,"Delta":98817121},{"NoteNumber":58,"Velocity":47,"Duration":109488,"SoundDuration":109488,"Delta":98817121},{"NoteNumber":61,"Velocity":56,"Duration":109488,"SoundDuration":109488,"Delta":98817121},{"NoteNumber":78,"Velocity":69,"Duration":126582,"SoundDuration":126582,"Delta":99036099},{"NoteNumber":82,"Velocity":69,"Duration":126582,"SoundDuration":126582,"Delta":99036099},{"NoteNumber":90,"Velocity":81,"Duration":126582,"SoundDuration":126582,"Delta":99036099},{"NoteNumber":54,"Velocity":49,"Duration":126582,"SoundDuration":126582,"Delta":99036099},{"NoteNumber":61,"Velocity":49,"Duration":126582,"SoundDuration":126582,"Delta":99036099},{"NoteNumber":66,"Velocity":58,"Duration":126582,"SoundDuration":126582,"Delta":99036099},{"NoteNumber":85,"Velocity":64,"Duration":218181,"SoundDuration":218181,"Delta":99289264},{"NoteNumber":94,"Velocity":78,"Duration":218181,"SoundDuration":218181,"Delta":99289264},{"NoteNumber":82,"Velocity":64,"Duration":218181,"SoundDuration":218181,"Delta":99289264},{"NoteNumber":53,"Velocity":43,"Duration":218181,"SoundDuration":218181,"Delta":99289264},{"NoteNumber":58,"Velocity":51,"Duration":218181,"SoundDuration":218181,"Delta":99289264},{"NoteNumber":46,"Velocity":43,"Duration":218181,"SoundDuration":218181,"Delta":99289264},{"NoteNumber":77,"Velocity":57,"Duration":53003,"SoundDuration":53003,"Delta":99618557},{"NoteNumber":89,"Velocity":70,"Duration":53003,"SoundDuration":53003,"Delta":99618557},{"NoteNumber":85,"Velocity":57,"Duration":53003,"SoundDuration":53003,"Delta":99618557},{"NoteNumber":58,"Velocity":36,"Duration":53003,"SoundDuration":53003,"Delta":99618557},{"NoteNumber":65,"Velocity":44,"Duration":53003,"SoundDuration":53003,"Delta":99618557},{"NoteNumber":61,"Velocity":36,"Duration":53003,"SoundDuration":53003,"Delta":99618557},{"NoteNumber":85,"Velocity":57,"Duration":111110,"SoundDuration":111110,"Delta":99724564},{"NoteNumber":77,"Velocity":57,"Duration":111110,"SoundDuration":111110,"Delta":99724564},{"NoteNumber":89,"Velocity":70,"Duration":111110,"SoundDuration":111110,"Delta":99724564},{"NoteNumber":65,"Velocity":44,"Duration":111110,"SoundDuration":111110,"Delta":99724564},{"NoteNumber":61,"Velocity":36,"Duration":111110,"SoundDuration":111110,"Delta":99724564},{"NoteNumber":58,"Velocity":36,"Duration":111110,"SoundDuration":111110,"Delta":99724564},{"NoteNumber":77,"Velocity":64,"Duration":666665,"SoundDuration":666665,"Delta":99946786},{"NoteNumber":89,"Velocity":78,"Duration":666665,"SoundDuration":666665,"Delta":99946786},{"NoteNumber":85,"Velocity":64,"Duration":666665,"SoundDuration":666665,"Delta":99946786},{"NoteNumber":61,"Velocity":45,"Duration":666665,"SoundDuration":666665,"Delta":99946786},{"NoteNumber":58,"Velocity":45,"Duration":666665,"SoundDuration":666665,"Delta":99946786},{"NoteNumber":65,"Velocity":54,"Duration":666665,"SoundDuration":666665,"Delta":99946786},{"NoteNumber":81,"Velocity":59,"Duration":218181,"SoundDuration":218181,"Delta":100613452},{"NoteNumber":84,"Velocity":59,"Duration":218181,"SoundDuration":218181,"Delta":100613452},{"NoteNumber":93,"Velocity":70,"Duration":218181,"SoundDuration":218181,"Delta":100613452},{"NoteNumber":41,"Velocity":41,"Duration":218181,"SoundDuration":218181,"Delta":100613452},{"NoteNumber":48,"Velocity":41,"Duration":218181,"SoundDuration":218181,"Delta":100613452},{"NoteNumber":53,"Velocity":49,"Duration":218181,"SoundDuration":218181,"Delta":100613452},{"NoteNumber":72,"Velocity":51,"Duration":53003,"SoundDuration":53003,"Delta":100942745},{"NoteNumber":81,"Velocity":61,"Duration":53003,"SoundDuration":53003,"Delta":100942745},{"NoteNumber":84,"Velocity":61,"Duration":53003,"SoundDuration":53003,"Delta":100942745},{"NoteNumber":57,"Velocity":36,"Duration":53003,"SoundDuration":53003,"Delta":100942745},{"NoteNumber":60,"Velocity":43,"Duration":53003,"SoundDuration":53003,"Delta":100942745},{"NoteNumber":72,"Velocity":51,"Duration":111110,"SoundDuration":111110,"Delta":101048752},{"NoteNumber":81,"Velocity":61,"Duration":111110,"SoundDuration":111110,"Delta":101048752},{"NoteNumber":84,"Velocity":61,"Duration":111110,"SoundDuration":111110,"Delta":101048752},{"NoteNumber":57,"Velocity":36,"Duration":111110,"SoundDuration":111110,"Delta":101048752},{"NoteNumber":60,"Velocity":43,"Duration":111110,"SoundDuration":111110,"Delta":101048752},{"NoteNumber":76,"Velocity":61,"Duration":107142,"SoundDuration":107142,"Delta":101270974},{"NoteNumber":84,"Velocity":61,"Duration":107142,"SoundDuration":107142,"Delta":101270974},{"NoteNumber":88,"Velocity":72,"Duration":107142,"SoundDuration":107142,"Delta":101270974},{"NoteNumber":45,"Velocity":42,"Duration":107142,"SoundDuration":107142,"Delta":101270974},{"NoteNumber":52,"Velocity":42,"Duration":107142,"SoundDuration":107142,"Delta":101270974},{"NoteNumber":57,"Velocity":50,"Duration":107142,"SoundDuration":107142,"Delta":101270974},{"NoteNumber":75,"Velocity":54,"Duration":52083,"SoundDuration":52083,"Delta":101594748},{"NoteNumber":83,"Velocity":54,"Duration":52083,"SoundDuration":52083,"Delta":101594748},{"NoteNumber":87,"Velocity":64,"Duration":52083,"SoundDuration":52083,"Delta":101594748},{"NoteNumber":57,"Velocity":37,"Duration":52083,"SoundDuration":52083,"Delta":101594748},{"NoteNumber":59,"Velocity":37,"Duration":52083,"SoundDuration":52083,"Delta":101594748},{"NoteNumber":63,"Velocity":45,"Duration":52083,"SoundDuration":52083,"Delta":101594748},{"NoteNumber":76,"Velocity":54,"Duration":126582,"SoundDuration":126582,"Delta":101698915},{"NoteNumber":84,"Velocity":54,"Duration":126582,"SoundDuration":126582,"Delta":101698915},{"NoteNumber":88,"Velocity":64,"Duration":126582,"SoundDuration":126582,"Delta":101698915},{"NoteNumber":57,"Velocity":38,"Duration":126582,"SoundDuration":126582,"Delta":101698915},{"NoteNumber":60,"Velocity":38,"Duration":126582,"SoundDuration":126582,"Delta":101698915},{"NoteNumber":64,"Velocity":45,"Duration":126582,"SoundDuration":126582,"Delta":101698915},{"NoteNumber":80,"Velocity":59,"Duration":218181,"SoundDuration":218181,"Delta":101952079},{"NoteNumber":83,"Velocity":59,"Duration":218181,"SoundDuration":218181,"Delta":101952079},{"NoteNumber":92,"Velocity":70,"Duration":218181,"SoundDuration":218181,"Delta":101952079},{"NoteNumber":40,"Velocity":41,"Duration":218181,"SoundDuration":218181,"Delta":101952079},{"NoteNumber":47,"Velocity":41,"Duration":218181,"SoundDuration":218181,"Delta":101952079},{"NoteNumber":52,"Velocity":49,"Duration":218181,"SoundDuration":218181,"Delta":101952079},{"NoteNumber":71,"Velocity":51,"Duration":52816,"SoundDuration":52816,"Delta":102281372},{"NoteNumber":80,"Velocity":61,"Duration":52816,"SoundDuration":52816,"Delta":102281372},{"NoteNumber":83,"Velocity":61,"Duration":52816,"SoundDuration":52816,"Delta":102281372},{"NoteNumber":56,"Velocity":36,"Duration":52816,"SoundDuration":52816,"Delta":102281372},{"NoteNumber":59,"Velocity":43,"Duration":52816,"SoundDuration":52816,"Delta":102281372},{"NoteNumber":71,"Velocity":51,"Duration":110701,"SoundDuration":110701,"Delta":102387006},{"NoteNumber":80,"Velocity":61,"Duration":110701,"SoundDuration":110701,"Delta":102387006},{"NoteNumber":83,"Velocity":61,"Duration":110701,"SoundDuration":110701,"Delta":102387006},{"NoteNumber":56,"Velocity":36,"Duration":110701,"SoundDuration":110701,"Delta":102387006},{"NoteNumber":59,"Velocity":43,"Duration":110701,"SoundDuration":110701,"Delta":102387006},{"NoteNumber":75,"Velocity":61,"Duration":107142,"SoundDuration":107142,"Delta":102608408},{"NoteNumber":83,"Velocity":61,"Duration":107142,"SoundDuration":107142,"Delta":102608408},{"NoteNumber":87,"Velocity":72,"Duration":107142,"SoundDuration":107142,"Delta":102608408},{"NoteNumber":44,"Velocity":42,"Duration":107142,"SoundDuration":107142,"Delta":102608408},{"NoteNumber":51,"Velocity":42,"Duration":107142,"SoundDuration":107142,"Delta":102608408},{"NoteNumber":56,"Velocity":50,"Duration":107142,"SoundDuration":107142,"Delta":102608408},{"NoteNumber":74,"Velocity":54,"Duration":52631,"SoundDuration":52631,"Delta":102932183},{"NoteNumber":83,"Velocity":54,"Duration":52631,"SoundDuration":52631,"Delta":102932183},{"NoteNumber":86,"Velocity":64,"Duration":52631,"SoundDuration":52631,"Delta":102932183},{"NoteNumber":56,"Velocity":37,"Duration":52631,"SoundDuration":52631,"Delta":102932183},{"NoteNumber":59,"Velocity":37,"Duration":52631,"SoundDuration":52631,"Delta":102932183},{"NoteNumber":62,"Velocity":45,"Duration":52631,"SoundDuration":52631,"Delta":102932183},{"NoteNumber":75,"Velocity":54,"Duration":126582,"SoundDuration":126582,"Delta":103037446},{"NoteNumber":83,"Velocity":54,"Duration":126582,"SoundDuration":126582,"Delta":103037446},{"NoteNumber":87,"Velocity":64,"Duration":126582,"SoundDuration":126582,"Delta":103037446},{"NoteNumber":56,"Velocity":38,"Duration":126582,"SoundDuration":126582,"Delta":103037446},{"NoteNumber":59,"Velocity":38,"Duration":126582,"SoundDuration":126582,"Delta":103037446},{"NoteNumber":63,"Velocity":45,"Duration":126582,"SoundDuration":126582,"Delta":103037446},{"NoteNumber":79,"Velocity":59,"Duration":218181,"SoundDuration":218181,"Delta":103290610},{"NoteNumber":82,"Velocity":59,"Duration":218181,"SoundDuration":218181,"Delta":103290610},{"NoteNumber":91,"Velocity":70,"Duration":218181,"SoundDuration":218181,"Delta":103290610},{"NoteNumber":39,"Velocity":41,"Duration":218181,"SoundDuration":218181,"Delta":103290610},{"NoteNumber":51,"Velocity":49,"Duration":218181,"SoundDuration":218181,"Delta":103290610},{"NoteNumber":70,"Velocity":50,"Duration":51903,"SoundDuration":51903,"Delta":103619903},{"NoteNumber":75,"Velocity":60,"Duration":51903,"SoundDuration":51903,"Delta":103619903},{"NoteNumber":79,"Velocity":60,"Duration":51903,"SoundDuration":51903,"Delta":103619903},{"NoteNumber":58,"Velocity":35,"Duration":51903,"SoundDuration":51903,"Delta":103619903},{"NoteNumber":63,"Velocity":35,"Duration":51903,"SoundDuration":51903,"Delta":103619903},{"NoteNumber":67,"Velocity":42,"Duration":51903,"SoundDuration":51903,"Delta":103619903},{"NoteNumber":70,"Velocity":50,"Duration":111110,"SoundDuration":111110,"Delta":103723710},{"NoteNumber":75,"Velocity":60,"Duration":111110,"SoundDuration":111110,"Delta":103723710},{"NoteNumber":79,"Velocity":60,"Duration":111110,"SoundDuration":111110,"Delta":103723710},{"NoteNumber":58,"Velocity":35,"Duration":111110,"SoundDuration":111110,"Delta":103723710},{"NoteNumber":63,"Velocity":35,"Duration":111110,"SoundDuration":111110,"Delta":103723710},{"NoteNumber":67,"Velocity":42,"Duration":111110,"SoundDuration":111110,"Delta":103723710},{"NoteNumber":78,"Velocity":59,"Duration":107142,"SoundDuration":107142,"Delta":103945932},{"NoteNumber":82,"Velocity":59,"Duration":107142,"SoundDuration":107142,"Delta":103945932},{"NoteNumber":90,"Velocity":71,"Duration":107142,"SoundDuration":107142,"Delta":103945932},{"NoteNumber":39,"Velocity":41,"Duration":107142,"SoundDuration":107142,"Delta":103945932},{"NoteNumber":51,"Velocity":48,"Duration":107142,"SoundDuration":107142,"Delta":103945932},{"NoteNumber":70,"Velocity":53,"Duration":51903,"SoundDuration":51903,"Delta":104269706},{"NoteNumber":75,"Velocity":53,"Duration":51903,"SoundDuration":51903,"Delta":104269706},{"NoteNumber":78,"Velocity":62,"Duration":51903,"SoundDuration":51903,"Delta":104269706},{"NoteNumber":58,"Velocity":36,"Duration":51903,"SoundDuration":51903,"Delta":104269706},{"NoteNumber":63,"Velocity":36,"Duration":51903,"SoundDuration":51903,"Delta":104269706},{"NoteNumber":66,"Velocity":43,"Duration":51903,"SoundDuration":51903,"Delta":104269706},{"NoteNumber":70,"Velocity":52,"Duration":126582,"SoundDuration":126582,"Delta":104373512},{"NoteNumber":75,"Velocity":52,"Duration":126582,"SoundDuration":126582,"Delta":104373512},{"NoteNumber":78,"Velocity":62,"Duration":126582,"SoundDuration":126582,"Delta":104373512},{"NoteNumber":58,"Velocity":36,"Duration":126582,"SoundDuration":126582,"Delta":104373512},{"NoteNumber":63,"Velocity":36,"Duration":126582,"SoundDuration":126582,"Delta":104373512},{"NoteNumber":66,"Velocity":43,"Duration":126582,"SoundDuration":126582,"Delta":104373512},{"NoteNumber":76,"Velocity":55,"Duration":218181,"SoundDuration":218181,"Delta":104626677},{"NoteNumber":80,"Velocity":55,"Duration":218181,"SoundDuration":218181,"Delta":104626677},{"NoteNumber":88,"Velocity":66,"Duration":218181,"SoundDuration":218181,"Delta":104626677},{"NoteNumber":35,"Velocity":38,"Duration":218181,"SoundDuration":218181,"Delta":104626677},{"NoteNumber":47,"Velocity":46,"Duration":218181,"SoundDuration":218181,"Delta":104626677},{"NoteNumber":68,"Velocity":47,"Duration":51369,"SoundDuration":51369,"Delta":104955970},{"NoteNumber":71,"Velocity":56,"Duration":51369,"SoundDuration":51369,"Delta":104955970},{"NoteNumber":76,"Velocity":56,"Duration":51369,"SoundDuration":51369,"Delta":104955970},{"NoteNumber":56,"Velocity":33,"Duration":51369,"SoundDuration":51369,"Delta":104955970},{"NoteNumber":59,"Velocity":33,"Duration":51369,"SoundDuration":51369,"Delta":104955970},{"NoteNumber":64,"Velocity":40,"Duration":51369,"SoundDuration":51369,"Delta":104955970},{"NoteNumber":68,"Velocity":47,"Duration":111110,"SoundDuration":111110,"Delta":105058710},{"NoteNumber":71,"Velocity":56,"Duration":111110,"SoundDuration":111110,"Delta":105058710},{"NoteNumber":76,"Velocity":56,"Duration":111110,"SoundDuration":111110,"Delta":105058710},{"NoteNumber":56,"Velocity":33,"Duration":111110,"SoundDuration":111110,"Delta":105058710},{"NoteNumber":59,"Velocity":33,"Duration":111110,"SoundDuration":111110,"Delta":105058710},{"NoteNumber":64,"Velocity":40,"Duration":111110,"SoundDuration":111110,"Delta":105058710},{"NoteNumber":75,"Velocity":56,"Duration":107142,"SoundDuration":107142,"Delta":105280932},{"NoteNumber":78,"Velocity":56,"Duration":107142,"SoundDuration":107142,"Delta":105280932},{"NoteNumber":87,"Velocity":67,"Duration":107142,"SoundDuration":107142,"Delta":105280932},{"NoteNumber":36,"Velocity":38,"Duration":107142,"SoundDuration":107142,"Delta":105280932},{"NoteNumber":48,"Velocity":46,"Duration":107142,"SoundDuration":107142,"Delta":105280932},{"NoteNumber":66,"Velocity":50,"Duration":51903,"SoundDuration":51903,"Delta":105604706},{"NoteNumber":69,"Velocity":50,"Duration":51903,"SoundDuration":51903,"Delta":105604706},{"NoteNumber":75,"Velocity":59,"Duration":51903,"SoundDuration":51903,"Delta":105604706},{"NoteNumber":54,"Velocity":34,"Duration":51903,"SoundDuration":51903,"Delta":105604706},{"NoteNumber":57,"Velocity":34,"Duration":51903,"SoundDuration":51903,"Delta":105604706},{"NoteNumber":63,"Velocity":41,"Duration":51903,"SoundDuration":51903,"Delta":105604706},{"NoteNumber":66,"Velocity":49,"Duration":126582,"SoundDuration":126582,"Delta":105708512},{"NoteNumber":69,"Velocity":49,"Duration":126582,"SoundDuration":126582,"Delta":105708512},{"NoteNumber":75,"Velocity":58,"Duration":126582,"SoundDuration":126582,"Delta":105708512},{"NoteNumber":54,"Velocity":35,"Duration":126582,"SoundDuration":126582,"Delta":105708512},{"NoteNumber":57,"Velocity":35,"Duration":126582,"SoundDuration":126582,"Delta":105708512},{"NoteNumber":63,"Velocity":41,"Duration":126582,"SoundDuration":126582,"Delta":105708512},{"NoteNumber":87,"Velocity":76,"Duration":63291,"SoundDuration":63291,"Delta":105898386},{"NoteNumber":73,"Velocity":70,"Duration":218181,"SoundDuration":218181,"Delta":105961677},{"NoteNumber":85,"Velocity":82,"Duration":218181,"SoundDuration":218181,"Delta":105961677},{"NoteNumber":37,"Velocity":45,"Duration":218181,"SoundDuration":218181,"Delta":105961677},{"NoteNumber":49,"Velocity":55,"Duration":218181,"SoundDuration":218181,"Delta":105961677},{"NoteNumber":66,"Velocity":47,"Duration":51546,"SoundDuration":51546,"Delta":106290970},{"NoteNumber":70,"Velocity":56,"Duration":51546,"SoundDuration":51546,"Delta":106290970},{"NoteNumber":73,"Velocity":56,"Duration":51546,"SoundDuration":51546,"Delta":106290970},{"NoteNumber":54,"Velocity":33,"Duration":51546,"SoundDuration":51546,"Delta":106290970},{"NoteNumber":58,"Velocity":33,"Duration":51546,"SoundDuration":51546,"Delta":106290970},{"NoteNumber":61,"Velocity":40,"Duration":51546,"SoundDuration":51546,"Delta":106290970},{"NoteNumber":67,"Velocity":47,"Duration":111110,"SoundDuration":111110,"Delta":106394063},{"NoteNumber":70,"Velocity":56,"Duration":111110,"SoundDuration":111110,"Delta":106394063},{"NoteNumber":73,"Velocity":56,"Duration":111110,"SoundDuration":111110,"Delta":106394063},{"NoteNumber":55,"Velocity":33,"Duration":111110,"SoundDuration":111110,"Delta":106394063},{"NoteNumber":58,"Velocity":33,"Duration":111110,"SoundDuration":111110,"Delta":106394063},{"NoteNumber":61,"Velocity":40,"Duration":111110,"SoundDuration":111110,"Delta":106394063},{"NoteNumber":67,"Velocity":56,"Duration":107142,"SoundDuration":107142,"Delta":106616285},{"NoteNumber":70,"Velocity":56,"Duration":107142,"SoundDuration":107142,"Delta":106616285},{"NoteNumber":73,"Velocity":67,"Duration":107142,"SoundDuration":107142,"Delta":106616285},{"NoteNumber":55,"Velocity":38,"Duration":107142,"SoundDuration":107142,"Delta":106616285},{"NoteNumber":58,"Velocity":38,"Duration":107142,"SoundDuration":107142,"Delta":106616285},{"NoteNumber":61,"Velocity":46,"Duration":107142,"SoundDuration":107142,"Delta":106616285},{"NoteNumber":68,"Velocity":50,"Duration":51546,"SoundDuration":51546,"Delta":106941681},{"NoteNumber":71,"Velocity":50,"Duration":51546,"SoundDuration":51546,"Delta":106941681},{"NoteNumber":73,"Velocity":59,"Duration":51546,"SoundDuration":51546,"Delta":106941681},{"NoteNumber":56,"Velocity":34,"Duration":51546,"SoundDuration":51546,"Delta":106941681},{"NoteNumber":59,"Velocity":34,"Duration":51546,"SoundDuration":51546,"Delta":106941681},{"NoteNumber":61,"Velocity":41,"Duration":51546,"SoundDuration":51546,"Delta":106941681},{"NoteNumber":65,"Velocity":49,"Duration":126582,"SoundDuration":126582,"Delta":107044774},{"NoteNumber":68,"Velocity":49,"Duration":126582,"SoundDuration":126582,"Delta":107044774},{"NoteNumber":73,"Velocity":58,"Duration":126582,"SoundDuration":126582,"Delta":107044774},{"NoteNumber":53,"Velocity":35,"Duration":126582,"SoundDuration":126582,"Delta":107044774},{"NoteNumber":56,"Velocity":35,"Duration":126582,"SoundDuration":126582,"Delta":107044774},{"NoteNumber":61,"Velocity":41,"Duration":126582,"SoundDuration":126582,"Delta":107044774},{"NoteNumber":87,"Velocity":76,"Duration":63291,"SoundDuration":63291,"Delta":107234647},{"NoteNumber":73,"Velocity":70,"Duration":218181,"SoundDuration":218181,"Delta":107297938},{"NoteNumber":85,"Velocity":82,"Duration":218181,"SoundDuration":218181,"Delta":107297938},{"NoteNumber":37,"Velocity":45,"Duration":218181,"SoundDuration":218181,"Delta":107297938},{"NoteNumber":49,"Velocity":55,"Duration":218181,"SoundDuration":218181,"Delta":107297938},{"NoteNumber":66,"Velocity":47,"Duration":51546,"SoundDuration":51546,"Delta":107627231},{"NoteNumber":70,"Velocity":56,"Duration":51546,"SoundDuration":51546,"Delta":107627231},{"NoteNumber":73,"Velocity":56,"Duration":51546,"SoundDuration":51546,"Delta":107627231},{"NoteNumber":54,"Velocity":33,"Duration":51546,"SoundDuration":51546,"Delta":107627231},{"NoteNumber":58,"Velocity":33,"Duration":51546,"SoundDuration":51546,"Delta":107627231},{"NoteNumber":61,"Velocity":40,"Duration":51546,"SoundDuration":51546,"Delta":107627231},{"NoteNumber":67,"Velocity":47,"Duration":111110,"SoundDuration":111110,"Delta":107730324},{"NoteNumber":70,"Velocity":56,"Duration":111110,"SoundDuration":111110,"Delta":107730324},{"NoteNumber":73,"Velocity":56,"Duration":111110,"SoundDuration":111110,"Delta":107730324},{"NoteNumber":55,"Velocity":33,"Duration":111110,"SoundDuration":111110,"Delta":107730324},{"NoteNumber":58,"Velocity":33,"Duration":111110,"SoundDuration":111110,"Delta":107730324},{"NoteNumber":61,"Velocity":40,"Duration":111110,"SoundDuration":111110,"Delta":107730324},{"NoteNumber":67,"Velocity":56,"Duration":107142,"SoundDuration":107142,"Delta":107952546},{"NoteNumber":70,"Velocity":56,"Duration":107142,"SoundDuration":107142,"Delta":107952546},{"NoteNumber":73,"Velocity":67,"Duration":107142,"SoundDuration":107142,"Delta":107952546},{"NoteNumber":55,"Velocity":38,"Duration":107142,"SoundDuration":107142,"Delta":107952546},{"NoteNumber":58,"Velocity":38,"Duration":107142,"SoundDuration":107142,"Delta":107952546},{"NoteNumber":61,"Velocity":46,"Duration":107142,"SoundDuration":107142,"Delta":107952546},{"NoteNumber":68,"Velocity":50,"Duration":51546,"SoundDuration":51546,"Delta":108277943},{"NoteNumber":71,"Velocity":50,"Duration":51546,"SoundDuration":51546,"Delta":108277943},{"NoteNumber":73,"Velocity":59,"Duration":51546,"SoundDuration":51546,"Delta":108277943},{"NoteNumber":56,"Velocity":34,"Duration":51546,"SoundDuration":51546,"Delta":108277943},{"NoteNumber":59,"Velocity":34,"Duration":51546,"SoundDuration":51546,"Delta":108277943},{"NoteNumber":61,"Velocity":41,"Duration":51546,"SoundDuration":51546,"Delta":108277943},{"NoteNumber":65,"Velocity":49,"Duration":126582,"SoundDuration":126582,"Delta":108381035},{"NoteNumber":68,"Velocity":49,"Duration":126582,"SoundDuration":126582,"Delta":108381035},{"NoteNumber":73,"Velocity":58,"Duration":126582,"SoundDuration":126582,"Delta":108381035},{"NoteNumber":53,"Velocity":35,"Duration":126582,"SoundDuration":126582,"Delta":108381035},{"NoteNumber":56,"Velocity":35,"Duration":126582,"SoundDuration":126582,"Delta":108381035},{"NoteNumber":61,"Velocity":41,"Duration":126582,"SoundDuration":126582,"Delta":108381035},{"NoteNumber":83,"Velocity":76,"Duration":63291,"SoundDuration":63291,"Delta":108570909},{"NoteNumber":70,"Velocity":70,"Duration":218181,"SoundDuration":218181,"Delta":108634200},{"NoteNumber":82,"Velocity":82,"Duration":218181,"SoundDuration":218181,"Delta":108634200},{"NoteNumber":34,"Velocity":45,"Duration":218181,"SoundDuration":218181,"Delta":108634200},{"NoteNumber":46,"Velocity":55,"Duration":218181,"SoundDuration":218181,"Delta":108634200},{"NoteNumber":63,"Velocity":47,"Duration":52083,"SoundDuration":52083,"Delta":108964322},{"NoteNumber":66,"Velocity":56,"Duration":52083,"SoundDuration":52083,"Delta":108964322},{"NoteNumber":70,"Velocity":56,"Duration":52083,"SoundDuration":52083,"Delta":108964322},{"NoteNumber":51,"Velocity":33,"Duration":52083,"SoundDuration":52083,"Delta":108964322},{"NoteNumber":54,"Velocity":33,"Duration":52083,"SoundDuration":52083,"Delta":108964322},{"NoteNumber":58,"Velocity":40,"Duration":52083,"SoundDuration":52083,"Delta":108964322},{"NoteNumber":64,"Velocity":47,"Duration":111110,"SoundDuration":111110,"Delta":109068489},{"NoteNumber":67,"Velocity":56,"Duration":111110,"SoundDuration":111110,"Delta":109068489},{"NoteNumber":70,"Velocity":56,"Duration":111110,"SoundDuration":111110,"Delta":109068489},{"NoteNumber":52,"Velocity":33,"Duration":111110,"SoundDuration":111110,"Delta":109068489},{"NoteNumber":55,"Velocity":33,"Duration":111110,"SoundDuration":111110,"Delta":109068489},{"NoteNumber":58,"Velocity":40,"Duration":111110,"SoundDuration":111110,"Delta":109068489},{"NoteNumber":64,"Velocity":56,"Duration":107142,"SoundDuration":107142,"Delta":109290711},{"NoteNumber":67,"Velocity":56,"Duration":107142,"SoundDuration":107142,"Delta":109290711},{"NoteNumber":70,"Velocity":67,"Duration":107142,"SoundDuration":107142,"Delta":109290711},{"NoteNumber":52,"Velocity":38,"Duration":107142,"SoundDuration":107142,"Delta":109290711},{"NoteNumber":55,"Velocity":38,"Duration":107142,"SoundDuration":107142,"Delta":109290711},{"NoteNumber":58,"Velocity":46,"Duration":107142,"SoundDuration":107142,"Delta":109290711},{"NoteNumber":65,"Velocity":50,"Duration":51724,"SoundDuration":51724,"Delta":109615697},{"NoteNumber":68,"Velocity":50,"Duration":51724,"SoundDuration":51724,"Delta":109615697},{"NoteNumber":70,"Velocity":59,"Duration":51724,"SoundDuration":51724,"Delta":109615697},{"NoteNumber":53,"Velocity":34,"Duration":51724,"SoundDuration":51724,"Delta":109615697},{"NoteNumber":56,"Velocity":34,"Duration":51724,"SoundDuration":51724,"Delta":109615697},{"NoteNumber":58,"Velocity":41,"Duration":51724,"SoundDuration":51724,"Delta":109615697},{"NoteNumber":62,"Velocity":49,"Duration":126582,"SoundDuration":126582,"Delta":109719146},{"NoteNumber":65,"Velocity":49,"Duration":126582,"SoundDuration":126582,"Delta":109719146},{"NoteNumber":70,"Velocity":58,"Duration":126582,"SoundDuration":126582,"Delta":109719146},{"NoteNumber":50,"Velocity":35,"Duration":126582,"SoundDuration":126582,"Delta":109719146},{"NoteNumber":53,"Velocity":35,"Duration":126582,"SoundDuration":126582,"Delta":109719146},{"NoteNumber":58,"Velocity":41,"Duration":126582,"SoundDuration":126582,"Delta":109719146},{"NoteNumber":83,"Velocity":76,"Duration":63291,"SoundDuration":63291,"Delta":109909019},{"NoteNumber":70,"Velocity":66,"Duration":223880,"SoundDuration":223880,"Delta":109972310},{"NoteNumber":82,"Velocity":78,"Duration":223880,"SoundDuration":223880,"Delta":109972310},{"NoteNumber":34,"Velocity":43,"Duration":223880,"SoundDuration":223880,"Delta":109972310},{"NoteNumber":46,"Velocity":52,"Duration":223880,"SoundDuration":223880,"Delta":109972310},{"NoteNumber":63,"Velocity":42,"Duration":55970,"SoundDuration":55970,"Delta":110313378},{"NoteNumber":66,"Velocity":50,"Duration":55970,"SoundDuration":55970,"Delta":110313378},{"NoteNumber":70,"Velocity":50,"Duration":55970,"SoundDuration":55970,"Delta":110313378},{"NoteNumber":51,"Velocity":28,"Duration":55970,"SoundDuration":55970,"Delta":110313378},{"NoteNumber":54,"Velocity":28,"Duration":55970,"SoundDuration":55970,"Delta":110313378},{"NoteNumber":58,"Velocity":36,"Duration":55970,"SoundDuration":55970,"Delta":110313378},{"NoteNumber":64,"Velocity":41,"Duration":131004,"SoundDuration":131004,"Delta":110425318},{"NoteNumber":67,"Velocity":48,"Duration":131004,"SoundDuration":131004,"Delta":110425318},{"NoteNumber":70,"Velocity":48,"Duration":131004,"SoundDuration":131004,"Delta":110425318},{"NoteNumber":52,"Velocity":28,"Duration":131004,"SoundDuration":131004,"Delta":110425318},{"NoteNumber":55,"Velocity":28,"Duration":131004,"SoundDuration":131004,"Delta":110425318},{"NoteNumber":58,"Velocity":35,"Duration":131004,"SoundDuration":131004,"Delta":110425318},{"NoteNumber":64,"Velocity":46,"Duration":126050,"SoundDuration":126050,"Delta":110687327},{"NoteNumber":67,"Velocity":46,"Duration":126050,"SoundDuration":126050,"Delta":110687327},{"NoteNumber":70,"Velocity":55,"Duration":126050,"SoundDuration":126050,"Delta":110687327},{"NoteNumber":52,"Velocity":31,"Duration":126050,"SoundDuration":126050,"Delta":110687327},{"NoteNumber":55,"Velocity":31,"Duration":126050,"SoundDuration":126050,"Delta":110687327},{"NoteNumber":58,"Velocity":38,"Duration":126050,"SoundDuration":126050,"Delta":110687327},{"NoteNumber":65,"Velocity":38,"Duration":69767,"SoundDuration":69767,"Delta":111078963},{"NoteNumber":68,"Velocity":38,"Duration":69767,"SoundDuration":69767,"Delta":111078963},{"NoteNumber":70,"Velocity":45,"Duration":69767,"SoundDuration":69767,"Delta":111078963},{"NoteNumber":53,"Velocity":26,"Duration":69767,"SoundDuration":69767,"Delta":111078963},{"NoteNumber":56,"Velocity":26,"Duration":69767,"SoundDuration":69767,"Delta":111078963},{"NoteNumber":58,"Velocity":31,"Duration":69767,"SoundDuration":69767,"Delta":111078963},{"NoteNumber":62,"Velocity":36,"Duration":147783,"SoundDuration":147783,"Delta":111218498},{"NoteNumber":65,"Velocity":36,"Duration":147783,"SoundDuration":147783,"Delta":111218498},{"NoteNumber":70,"Velocity":43,"Duration":147783,"SoundDuration":147783,"Delta":111218498},{"NoteNumber":50,"Velocity":26,"Duration":147783,"SoundDuration":147783,"Delta":111218498},{"NoteNumber":53,"Velocity":26,"Duration":147783,"SoundDuration":147783,"Delta":111218498},{"NoteNumber":58,"Velocity":30,"Duration":147783,"SoundDuration":147783,"Delta":111218498},{"NoteNumber":67,"Velocity":49,"Duration":1488017,"SoundDuration":1488017,"Delta":111514064},{"NoteNumber":39,"Velocity":26,"Duration":123966,"SoundDuration":123966,"Delta":111514064},{"NoteNumber":46,"Velocity":26,"Duration":123966,"SoundDuration":123966,"Delta":111514064},{"NoteNumber":51,"Velocity":31,"Duration":123966,"SoundDuration":123966,"Delta":111514064},{"NoteNumber":55,"Velocity":28,"Duration":123967,"SoundDuration":123967,"Delta":111638031},{"NoteNumber":58,"Velocity":28,"Duration":123966,"SoundDuration":123966,"Delta":111761998},{"NoteNumber":65,"Velocity":45,"Duration":371901,"SoundDuration":371901,"Delta":111885965},{"NoteNumber":39,"Velocity":18,"Duration":61983,"SoundDuration":61983,"Delta":111885965},{"NoteNumber":46,"Velocity":18,"Duration":61983,"SoundDuration":61983,"Delta":111885965},{"NoteNumber":51,"Velocity":22,"Duration":61983,"SoundDuration":61983,"Delta":111885965},{"NoteNumber":55,"Velocity":26,"Duration":123966,"SoundDuration":123966,"Delta":112009932},{"NoteNumber":39,"Velocity":26,"Duration":123966,"SoundDuration":123966,"Delta":112009932},{"NoteNumber":46,"Velocity":26,"Duration":123966,"SoundDuration":123966,"Delta":112009932},{"NoteNumber":51,"Velocity":31,"Duration":123966,"SoundDuration":123966,"Delta":112009932},{"NoteNumber":58,"Velocity":26,"Duration":123967,"SoundDuration":123967,"Delta":112133899},{"NoteNumber":63,"Velocity":45,"Duration":365853,"SoundDuration":365853,"Delta":112257866},{"NoteNumber":55,"Velocity":25,"Duration":121951,"SoundDuration":121951,"Delta":112379818},{"NoteNumber":58,"Velocity":26,"Duration":121951,"SoundDuration":121951,"Delta":112501769},{"NoteNumber":62,"Velocity":45,"Duration":378361,"SoundDuration":378361,"Delta":112623720},{"NoteNumber":55,"Velocity":26,"Duration":128205,"SoundDuration":128205,"Delta":112745671},{"NoteNumber":58,"Velocity":26,"Duration":128205,"SoundDuration":128205,"Delta":112873877},{"NoteNumber":67,"Velocity":53,"Duration":746991,"SoundDuration":746991,"Delta":113002082},{"NoteNumber":39,"Velocity":26,"Duration":123456,"SoundDuration":123456,"Delta":113002082},{"NoteNumber":46,"Velocity":26,"Duration":123456,"SoundDuration":123456,"Delta":113002082},{"NoteNumber":51,"Velocity":31,"Duration":123456,"SoundDuration":123456,"Delta":113002082},{"NoteNumber":55,"Velocity":28,"Duration":123456,"SoundDuration":123456,"Delta":113125539},{"NoteNumber":58,"Velocity":28,"Duration":123456,"SoundDuration":123456,"Delta":113248995},{"NoteNumber":60,"Velocity":46,"Duration":376621,"SoundDuration":376621,"Delta":113372452},{"NoteNumber":39,"Velocity":18,"Duration":61728,"SoundDuration":61728,"Delta":113372452},{"NoteNumber":46,"Velocity":18,"Duration":61728,"SoundDuration":61728,"Delta":113372452},{"NoteNumber":51,"Velocity":22,"Duration":61728,"SoundDuration":61728,"Delta":113372452},{"NoteNumber":55,"Velocity":25,"Duration":126582,"SoundDuration":126582,"Delta":113495909},{"NoteNumber":39,"Velocity":26,"Duration":126582,"SoundDuration":126582,"Delta":113495909},{"NoteNumber":46,"Velocity":26,"Duration":126582,"SoundDuration":126582,"Delta":113495909},{"NoteNumber":51,"Velocity":31,"Duration":126582,"SoundDuration":126582,"Delta":113495909},{"NoteNumber":57,"Velocity":25,"Duration":126582,"SoundDuration":126582,"Delta":113622491},{"NoteNumber":67,"Velocity":49,"Duration":755835,"SoundDuration":755835,"Delta":113749073},{"NoteNumber":55,"Velocity":27,"Duration":123456,"SoundDuration":123456,"Delta":113872530},{"NoteNumber":58,"Velocity":27,"Duration":123456,"SoundDuration":123456,"Delta":113995987},{"NoteNumber":63,"Velocity":37,"Duration":123456,"SoundDuration":123456,"Delta":114119444},{"NoteNumber":55,"Velocity":25,"Duration":131004,"SoundDuration":131004,"Delta":114242900},{"NoteNumber":58,"Velocity":25,"Duration":131004,"SoundDuration":131004,"Delta":114373905},{"NoteNumber":67,"Velocity":49,"Duration":371900,"SoundDuration":371900,"Delta":114504909},{"NoteNumber":39,"Velocity":26,"Duration":123966,"SoundDuration":123966,"Delta":114504909},{"NoteNumber":47,"Velocity":26,"Duration":123966,"SoundDuration":123966,"Delta":114504909},{"NoteNumber":50,"Velocity":31,"Duration":123966,"SoundDuration":123966,"Delta":114504909},{"NoteNumber":56,"Velocity":28,"Duration":123967,"SoundDuration":123967,"Delta":114628876},{"NoteNumber":59,"Velocity":28,"Duration":123966,"SoundDuration":123966,"Delta":114752843},{"NoteNumber":64,"Velocity":45,"Duration":366882,"SoundDuration":366882,"Delta":114876810},{"NoteNumber":39,"Velocity":18,"Duration":61983,"SoundDuration":61983,"Delta":114876810},{"NoteNumber":47,"Velocity":18,"Duration":61983,"SoundDuration":61983,"Delta":114876810},{"NoteNumber":50,"Velocity":22,"Duration":61983,"SoundDuration":61983,"Delta":114876810},{"NoteNumber":56,"Velocity":27,"Duration":121457,"SoundDuration":121457,"Delta":115000777},{"NoteNumber":39,"Velocity":26,"Duration":121457,"SoundDuration":121457,"Delta":115000777},{"NoteNumber":47,"Velocity":26,"Duration":121457,"SoundDuration":121457,"Delta":115000777},{"NoteNumber":50,"Velocity":31,"Duration":121457,"SoundDuration":121457,"Delta":115000777},{"NoteNumber":59,"Velocity":27,"Duration":121457,"SoundDuration":121457,"Delta":115122234},{"NoteNumber":65,"Velocity":52,"Duration":362903,"SoundDuration":362903,"Delta":115243692},{"NoteNumber":56,"Velocity":27,"Duration":120967,"SoundDuration":120967,"Delta":115364660},{"NoteNumber":59,"Velocity":27,"Duration":120967,"SoundDuration":120967,"Delta":115485627},{"NoteNumber":67,"Velocity":58,"Duration":377378,"SoundDuration":377378,"Delta":115606595},{"NoteNumber":56,"Velocity":29,"Duration":128205,"SoundDuration":128205,"Delta":115727563},{"NoteNumber":59,"Velocity":30,"Duration":128205,"SoundDuration":128205,"Delta":115855768},{"NoteNumber":68,"Velocity":61,"Duration":367014,"SoundDuration":367014,"Delta":115983973},{"NoteNumber":39,"Velocity":27,"Duration":120481,"SoundDuration":120481,"Delta":115983973},{"NoteNumber":46,"Velocity":27,"Duration":120481,"SoundDuration":120481,"Delta":115983973},{"NoteNumber":50,"Velocity":34,"Duration":120481,"SoundDuration":120481,"Delta":115983973},{"NoteNumber":56,"Velocity":33,"Duration":120482,"SoundDuration":120482,"Delta":116104455},{"NoteNumber":62,"Velocity":33,"Duration":126050,"SoundDuration":126050,"Delta":116224937},{"NoteNumber":69,"Velocity":61,"Duration":427557,"SoundDuration":427557,"Delta":116350988},{"NoteNumber":39,"Velocity":20,"Duration":63025,"SoundDuration":63025,"Delta":116350988},{"NoteNumber":46,"Velocity":20,"Duration":63025,"SoundDuration":63025,"Delta":116350988},{"NoteNumber":50,"Velocity":24,"Duration":63025,"SoundDuration":63025,"Delta":116350988},{"NoteNumber":56,"Velocity":32,"Duration":150753,"SoundDuration":150753,"Delta":116477038},{"NoteNumber":39,"Velocity":27,"Duration":150753,"SoundDuration":150753,"Delta":116477038},{"NoteNumber":46,"Velocity":27,"Duration":150753,"SoundDuration":150753,"Delta":116477038},{"NoteNumber":50,"Velocity":34,"Duration":150753,"SoundDuration":150753,"Delta":116477038},{"NoteNumber":62,"Velocity":36,"Duration":150753,"SoundDuration":150753,"Delta":116627792},{"NoteNumber":72,"Velocity":65,"Duration":370370,"SoundDuration":370370,"Delta":116778546},{"NoteNumber":56,"Velocity":35,"Duration":123456,"SoundDuration":123456,"Delta":116902003},{"NoteNumber":62,"Velocity":33,"Duration":123456,"SoundDuration":123456,"Delta":117025459},{"NoteNumber":70,"Velocity":52,"Duration":378775,"SoundDuration":378775,"Delta":117148916},{"NoteNumber":56,"Velocity":27,"Duration":127659,"SoundDuration":127659,"Delta":117272373},{"NoteNumber":62,"Velocity":27,"Duration":127659,"SoundDuration":127659,"Delta":117400032},{"NoteNumber":67,"Velocity":49,"Duration":1488017,"SoundDuration":1488017,"Delta":117527692},{"NoteNumber":39,"Velocity":26,"Duration":123966,"SoundDuration":123966,"Delta":117527692},{"NoteNumber":46,"Velocity":26,"Duration":123966,"SoundDuration":123966,"Delta":117527692},{"NoteNumber":51,"Velocity":31,"Duration":123966,"SoundDuration":123966,"Delta":117527692},{"NoteNumber":55,"Velocity":28,"Duration":123967,"SoundDuration":123967,"Delta":117651659},{"NoteNumber":58,"Velocity":28,"Duration":123966,"SoundDuration":123966,"Delta":117775626},{"NoteNumber":65,"Velocity":45,"Duration":371901,"SoundDuration":371901,"Delta":117899593},{"NoteNumber":39,"Velocity":18,"Duration":61983,"SoundDuration":61983,"Delta":117899593},{"NoteNumber":46,"Velocity":18,"Duration":61983,"SoundDuration":61983,"Delta":117899593},{"NoteNumber":51,"Velocity":22,"Duration":61983,"SoundDuration":61983,"Delta":117899593},{"NoteNumber":55,"Velocity":26,"Duration":123966,"SoundDuration":123966,"Delta":118023560},{"NoteNumber":39,"Velocity":26,"Duration":123966,"SoundDuration":123966,"Delta":118023560},{"NoteNumber":46,"Velocity":26,"Duration":123966,"SoundDuration":123966,"Delta":118023560},{"NoteNumber":51,"Velocity":31,"Duration":123966,"SoundDuration":123966,"Delta":118023560},{"NoteNumber":58,"Velocity":26,"Duration":123967,"SoundDuration":123967,"Delta":118147527},{"NoteNumber":63,"Velocity":45,"Duration":365853,"SoundDuration":365853,"Delta":118271494},{"NoteNumber":55,"Velocity":25,"Duration":121951,"SoundDuration":121951,"Delta":118393445},{"NoteNumber":58,"Velocity":26,"Duration":121951,"SoundDuration":121951,"Delta":118515396},{"NoteNumber":62,"Velocity":45,"Duration":378361,"SoundDuration":378361,"Delta":118637348},{"NoteNumber":55,"Velocity":26,"Duration":128205,"SoundDuration":128205,"Delta":118759299},{"NoteNumber":58,"Velocity":26,"Duration":128205,"SoundDuration":128205,"Delta":118887504},{"NoteNumber":67,"Velocity":53,"Duration":746991,"SoundDuration":746991,"Delta":119015709},{"NoteNumber":39,"Velocity":26,"Duration":123456,"SoundDuration":123456,"Delta":119015709},{"NoteNumber":46,"Velocity":26,"Duration":123456,"SoundDuration":123456,"Delta":119015709},{"NoteNumber":51,"Velocity":31,"Duration":123456,"SoundDuration":123456,"Delta":119015709},{"NoteNumber":55,"Velocity":28,"Duration":123456,"SoundDuration":123456,"Delta":119139166},{"NoteNumber":58,"Velocity":28,"Duration":123456,"SoundDuration":123456,"Delta":119262623},{"NoteNumber":60,"Velocity":44,"Duration":376621,"SoundDuration":376621,"Delta":119386080},{"NoteNumber":39,"Velocity":18,"Duration":61728,"SoundDuration":61728,"Delta":119386080},{"NoteNumber":46,"Velocity":18,"Duration":61728,"SoundDuration":61728,"Delta":119386080},{"NoteNumber":51,"Velocity":22,"Duration":61728,"SoundDuration":61728,"Delta":119386080},{"NoteNumber":55,"Velocity":25,"Duration":126582,"SoundDuration":126582,"Delta":119509536},{"NoteNumber":39,"Velocity":26,"Duration":126582,"SoundDuration":126582,"Delta":119509536},{"NoteNumber":46,"Velocity":26,"Duration":126582,"SoundDuration":126582,"Delta":119509536},{"NoteNumber":51,"Velocity":31,"Duration":126582,"SoundDuration":126582,"Delta":119509536},{"NoteNumber":57,"Velocity":25,"Duration":126582,"SoundDuration":126582,"Delta":119636119},{"NoteNumber":67,"Velocity":49,"Duration":749813,"SoundDuration":749813,"Delta":119762701},{"NoteNumber":55,"Velocity":27,"Duration":121951,"SoundDuration":121951,"Delta":119884652},{"NoteNumber":58,"Velocity":27,"Duration":121951,"SoundDuration":121951,"Delta":120006603},{"NoteNumber":63,"Velocity":37,"Duration":121951,"SoundDuration":121951,"Delta":120128555},{"NoteNumber":55,"Velocity":25,"Duration":131004,"SoundDuration":131004,"Delta":120250506},{"NoteNumber":58,"Velocity":25,"Duration":131004,"SoundDuration":131004,"Delta":120381510},{"NoteNumber":67,"Velocity":56,"Duration":371900,"SoundDuration":371900,"Delta":120512514},{"NoteNumber":38,"Velocity":26,"Duration":123966,"SoundDuration":123966,"Delta":120512514},{"NoteNumber":48,"Velocity":26,"Duration":123966,"SoundDuration":123966,"Delta":120512514},{"NoteNumber":50,"Velocity":31,"Duration":123966,"SoundDuration":123966,"Delta":120512514},{"NoteNumber":57,"Velocity":28,"Duration":123967,"SoundDuration":123967,"Delta":120636481},{"NoteNumber":60,"Velocity":28,"Duration":123966,"SoundDuration":123966,"Delta":120760448},{"NoteNumber":66,"Velocity":56,"Duration":366882,"SoundDuration":366882,"Delta":120884415},{"NoteNumber":38,"Velocity":18,"Duration":61983,"SoundDuration":61983,"Delta":120884415},{"NoteNumber":48,"Velocity":18,"Duration":61983,"SoundDuration":61983,"Delta":120884415},{"NoteNumber":50,"Velocity":22,"Duration":61983,"SoundDuration":61983,"Delta":120884415},{"NoteNumber":57,"Velocity":32,"Duration":121457,"SoundDuration":121457,"Delta":121008382},{"NoteNumber":38,"Velocity":26,"Duration":121457,"SoundDuration":121457,"Delta":121008382},{"NoteNumber":48,"Velocity":26,"Duration":121457,"SoundDuration":121457,"Delta":121008382},{"NoteNumber":50,"Velocity":31,"Duration":121457,"SoundDuration":121457,"Delta":121008382},{"NoteNumber":60,"Velocity":32,"Duration":121457,"SoundDuration":121457,"Delta":121129840},{"NoteNumber":70,"Velocity":63,"Duration":361446,"SoundDuration":361446,"Delta":121251297},{"NoteNumber":60,"Velocity":30,"Duration":120482,"SoundDuration":120482,"Delta":121371779},{"NoteNumber":62,"Velocity":33,"Duration":120481,"SoundDuration":120481,"Delta":121492261},{"NoteNumber":69,"Velocity":62,"Duration":380222,"SoundDuration":380222,"Delta":121612743},{"NoteNumber":50,"Velocity":18,"Duration":120481,"SoundDuration":120481,"Delta":121612743},{"NoteNumber":54,"Velocity":22,"Duration":120481,"SoundDuration":120481,"Delta":121612743},{"NoteNumber":60,"Velocity":35,"Duration":129870,"SoundDuration":129870,"Delta":121733225},{"NoteNumber":50,"Velocity":26,"Duration":259740,"SoundDuration":259740,"Delta":121733225},{"NoteNumber":54,"Velocity":31,"Duration":259740,"SoundDuration":259740,"Delta":121733225},{"NoteNumber":62,"Velocity":35,"Duration":129870,"SoundDuration":129870,"Delta":121863096},{"NoteNumber":72,"Velocity":68,"Duration":367986,"SoundDuration":367986,"Delta":121992966},{"NoteNumber":58,"Velocity":39,"Duration":120967,"SoundDuration":120967,"Delta":122113934},{"NoteNumber":62,"Velocity":40,"Duration":126050,"SoundDuration":126050,"Delta":122234901},{"NoteNumber":70,"Velocity":67,"Duration":427557,"SoundDuration":427557,"Delta":122360952},{"NoteNumber":43,"Velocity":22,"Duration":63025,"SoundDuration":63025,"Delta":122360952},{"NoteNumber":50,"Velocity":22,"Duration":63025,"SoundDuration":63025,"Delta":122360952},{"NoteNumber":55,"Velocity":26,"Duration":63025,"SoundDuration":63025,"Delta":122360952},{"NoteNumber":58,"Velocity":36,"Duration":150753,"SoundDuration":150753,"Delta":122487002},{"NoteNumber":43,"Velocity":30,"Duration":150753,"SoundDuration":150753,"Delta":122487002},{"NoteNumber":50,"Velocity":30,"Duration":150753,"SoundDuration":150753,"Delta":122487002},{"NoteNumber":55,"Velocity":36,"Duration":150753,"SoundDuration":150753,"Delta":122487002},{"NoteNumber":62,"Velocity":40,"Duration":150753,"SoundDuration":150753,"Delta":122637756},{"NoteNumber":74,"Velocity":72,"Duration":370370,"SoundDuration":370370,"Delta":122788510},{"NoteNumber":62,"Velocity":41,"Duration":123456,"SoundDuration":123456,"Delta":122911967},{"NoteNumber":65,"Velocity":38,"Duration":123456,"SoundDuration":123456,"Delta":123035423},{"NoteNumber":46,"Velocity":27,"Duration":246913,"SoundDuration":246913,"Delta":123035423},{"NoteNumber":56,"Velocity":27,"Duration":246913,"SoundDuration":246913,"Delta":123035423},{"NoteNumber":58,"Velocity":34,"Duration":246913,"SoundDuration":246913,"Delta":123035423},{"NoteNumber":72,"Velocity":60,"Duration":378775,"SoundDuration":378775,"Delta":123158880},{"NoteNumber":62,"Velocity":33,"Duration":127659,"SoundDuration":127659,"Delta":123282337},{"NoteNumber":46,"Velocity":27,"Duration":255319,"SoundDuration":255319,"Delta":123282337},{"NoteNumber":56,"Velocity":27,"Duration":255319,"SoundDuration":255319,"Delta":123282337},{"NoteNumber":58,"Velocity":34,"Duration":255319,"SoundDuration":255319,"Delta":123282337},{"NoteNumber":70,"Velocity":33,"Duration":127659,"SoundDuration":127659,"Delta":123409996},{"NoteNumber":79,"Velocity":63,"Duration":1488017,"SoundDuration":1488017,"Delta":123537656},{"NoteNumber":39,"Velocity":38,"Duration":247934,"SoundDuration":247934,"Delta":123537656},{"NoteNumber":67,"Velocity":47,"Duration":123967,"SoundDuration":123967,"Delta":123661623},{"NoteNumber":70,"Velocity":47,"Duration":123966,"SoundDuration":123966,"Delta":123785590},{"NoteNumber":55,"Velocity":22,"Duration":247934,"SoundDuration":247934,"Delta":123785590},{"NoteNumber":58,"Velocity":22,"Duration":247934,"SoundDuration":247934,"Delta":123785590},{"NoteNumber":65,"Velocity":28,"Duration":247934,"SoundDuration":247934,"Delta":123785590},{"NoteNumber":77,"Velocity":58,"Duration":371901,"SoundDuration":371901,"Delta":123909557},{"NoteNumber":67,"Velocity":44,"Duration":123966,"SoundDuration":123966,"Delta":124033524},{"NoteNumber":43,"Velocity":32,"Duration":247934,"SoundDuration":247934,"Delta":124033524},{"NoteNumber":70,"Velocity":44,"Duration":123967,"SoundDuration":123967,"Delta":124157491},{"NoteNumber":75,"Velocity":57,"Duration":365853,"SoundDuration":365853,"Delta":124281458},{"NoteNumber":63,"Velocity":38,"Duration":243902,"SoundDuration":243902,"Delta":124281458},{"NoteNumber":58,"Velocity":30,"Duration":243902,"SoundDuration":243902,"Delta":124281458},{"NoteNumber":55,"Velocity":30,"Duration":243902,"SoundDuration":243902,"Delta":124281458},{"NoteNumber":67,"Velocity":42,"Duration":121951,"SoundDuration":121951,"Delta":124403409},{"NoteNumber":70,"Velocity":44,"Duration":121951,"SoundDuration":121951,"Delta":124525360},{"NoteNumber":46,"Velocity":34,"Duration":243902,"SoundDuration":243902,"Delta":124525360},{"NoteNumber":74,"Velocity":57,"Duration":378361,"SoundDuration":378361,"Delta":124647312},{"NoteNumber":67,"Velocity":44,"Duration":128205,"SoundDuration":128205,"Delta":124769263},{"NoteNumber":62,"Velocity":34,"Duration":256410,"SoundDuration":256410,"Delta":124769263},{"NoteNumber":58,"Velocity":27,"Duration":256410,"SoundDuration":256410,"Delta":124769263},{"NoteNumber":55,"Velocity":27,"Duration":256410,"SoundDuration":256410,"Delta":124769263},{"NoteNumber":70,"Velocity":44,"Duration":128205,"SoundDuration":128205,"Delta":124897468},{"NoteNumber":79,"Velocity":67,"Duration":744967,"SoundDuration":744967,"Delta":125025673},{"NoteNumber":51,"Velocity":38,"Duration":245901,"SoundDuration":245901,"Delta":125025673},{"NoteNumber":67,"Velocity":47,"Duration":122950,"SoundDuration":122950,"Delta":125148624},{"NoteNumber":70,"Velocity":47,"Duration":122950,"SoundDuration":122950,"Delta":125271575},{"NoteNumber":60,"Velocity":28,"Duration":245901,"SoundDuration":245901,"Delta":125271575},{"NoteNumber":55,"Velocity":24,"Duration":245901,"SoundDuration":245901,"Delta":125271575},{"NoteNumber":72,"Velocity":56,"Duration":376115,"SoundDuration":376115,"Delta":125394526},{"NoteNumber":67,"Velocity":42,"Duration":126582,"SoundDuration":126582,"Delta":125517476},{"NoteNumber":46,"Velocity":35,"Duration":253164,"SoundDuration":253164,"Delta":125517476},{"NoteNumber":69,"Velocity":42,"Duration":126582,"SoundDuration":126582,"Delta":125644059},{"NoteNumber":79,"Velocity":63,"Duration":751804,"SoundDuration":751804,"Delta":125770641},{"NoteNumber":58,"Velocity":33,"Duration":244898,"SoundDuration":244898,"Delta":125770641},{"NoteNumber":55,"Velocity":27,"Duration":244898,"SoundDuration":244898,"Delta":125770641},{"NoteNumber":67,"Velocity":45,"Duration":122449,"SoundDuration":122449,"Delta":125893090},{"NoteNumber":70,"Velocity":45,"Duration":122448,"SoundDuration":122448,"Delta":126015539},{"NoteNumber":43,"Velocity":33,"Duration":244897,"SoundDuration":244897,"Delta":126015539},{"NoteNumber":75,"Velocity":57,"Duration":122449,"SoundDuration":122449,"Delta":126137988},{"NoteNumber":67,"Velocity":42,"Duration":131004,"SoundDuration":131004,"Delta":126260437},{"NoteNumber":58,"Velocity":33,"Duration":262008,"SoundDuration":262008,"Delta":126260437},{"NoteNumber":55,"Velocity":27,"Duration":262008,"SoundDuration":262008,"Delta":126260437},{"NoteNumber":70,"Velocity":42,"Duration":131004,"SoundDuration":131004,"Delta":126391441},{"NoteNumber":67,"Velocity":47,"Duration":123966,"SoundDuration":123966,"Delta":126522445},{"NoteNumber":79,"Velocity":63,"Duration":371900,"SoundDuration":371900,"Delta":126522445},{"NoteNumber":39,"Velocity":38,"Duration":247934,"SoundDuration":247934,"Delta":126522445},{"NoteNumber":68,"Velocity":47,"Duration":123967,"SoundDuration":123967,"Delta":126646412},{"NoteNumber":71,"Velocity":47,"Duration":123966,"SoundDuration":123966,"Delta":126770379},{"NoteNumber":62,"Velocity":35,"Duration":247934,"SoundDuration":247934,"Delta":126770379},{"NoteNumber":59,"Velocity":27,"Duration":247934,"SoundDuration":247934,"Delta":126770379},{"NoteNumber":56,"Velocity":27,"Duration":247934,"SoundDuration":247934,"Delta":126770379},{"NoteNumber":64,"Velocity":45,"Duration":123967,"SoundDuration":123967,"Delta":126894346},{"NoteNumber":76,"Velocity":58,"Duration":366882,"SoundDuration":366882,"Delta":126894346},{"NoteNumber":68,"Velocity":45,"Duration":121457,"SoundDuration":121457,"Delta":127018313},{"NoteNumber":44,"Velocity":36,"Duration":242914,"SoundDuration":242914,"Delta":127018313},{"NoteNumber":71,"Velocity":45,"Duration":121457,"SoundDuration":121457,"Delta":127139771},{"NoteNumber":65,"Velocity":45,"Duration":120481,"SoundDuration":120481,"Delta":127261228},{"NoteNumber":77,"Velocity":66,"Duration":361446,"SoundDuration":361446,"Delta":127261228},{"NoteNumber":59,"Velocity":29,"Duration":240964,"SoundDuration":240964,"Delta":127261228},{"NoteNumber":62,"Velocity":37,"Duration":240964,"SoundDuration":240964,"Delta":127261228},{"NoteNumber":56,"Velocity":29,"Duration":240964,"SoundDuration":240964,"Delta":127261228},{"NoteNumber":68,"Velocity":45,"Duration":120482,"SoundDuration":120482,"Delta":127381710},{"NoteNumber":71,"Velocity":45,"Duration":120481,"SoundDuration":120481,"Delta":127502192},{"NoteNumber":47,"Velocity":38,"Duration":240963,"SoundDuration":240963,"Delta":127502192},{"NoteNumber":67,"Velocity":48,"Duration":120481,"SoundDuration":120481,"Delta":127622674},{"NoteNumber":79,"Velocity":71,"Duration":380222,"SoundDuration":380222,"Delta":127622674},{"NoteNumber":71,"Velocity":48,"Duration":129870,"SoundDuration":129870,"Delta":127743156},{"NoteNumber":62,"Velocity":39,"Duration":259740,"SoundDuration":259740,"Delta":127743156},{"NoteNumber":59,"Velocity":31,"Duration":259740,"SoundDuration":259740,"Delta":127743156},{"NoteNumber":56,"Velocity":31,"Duration":259740,"SoundDuration":259740,"Delta":127743156},{"NoteNumber":74,"Velocity":50,"Duration":129870,"SoundDuration":129870,"Delta":127873027},{"NoteNumber":68,"Velocity":54,"Duration":121457,"SoundDuration":121457,"Delta":128002897},{"NoteNumber":80,"Velocity":75,"Duration":368965,"SoundDuration":368965,"Delta":128002897},{"NoteNumber":39,"Velocity":40,"Duration":242915,"SoundDuration":242915,"Delta":128002897},{"NoteNumber":74,"Velocity":54,"Duration":121457,"SoundDuration":121457,"Delta":128124354},{"NoteNumber":77,"Velocity":54,"Duration":126050,"SoundDuration":126050,"Delta":128245812},{"NoteNumber":65,"Velocity":34,"Duration":252101,"SoundDuration":252101,"Delta":128245812},{"NoteNumber":58,"Velocity":27,"Duration":252101,"SoundDuration":252101,"Delta":128245812},{"NoteNumber":56,"Velocity":27,"Duration":252101,"SoundDuration":252101,"Delta":128245812},{"NoteNumber":69,"Velocity":54,"Duration":126050,"SoundDuration":126050,"Delta":128371862},{"NoteNumber":81,"Velocity":75,"Duration":427558,"SoundDuration":427558,"Delta":128371862},{"NoteNumber":74,"Velocity":54,"Duration":150753,"SoundDuration":150753,"Delta":128497913},{"NoteNumber":46,"Velocity":42,"Duration":301507,"SoundDuration":301507,"Delta":128497913},{"NoteNumber":77,"Velocity":60,"Duration":150753,"SoundDuration":150753,"Delta":128648667},{"NoteNumber":72,"Velocity":57,"Duration":129870,"SoundDuration":129870,"Delta":128799420},{"NoteNumber":84,"Velocity":80,"Duration":382691,"SoundDuration":382691,"Delta":128799420},{"NoteNumber":65,"Velocity":49,"Duration":259740,"SoundDuration":259740,"Delta":128799420},{"NoteNumber":58,"Velocity":39,"Duration":259740,"SoundDuration":259740,"Delta":128799420},{"NoteNumber":56,"Velocity":39,"Duration":259740,"SoundDuration":259740,"Delta":128799420},{"NoteNumber":74,"Velocity":57,"Duration":129870,"SoundDuration":129870,"Delta":128929291},{"NoteNumber":77,"Velocity":54,"Duration":122950,"SoundDuration":122950,"Delta":129059161},{"NoteNumber":50,"Velocity":32,"Duration":245901,"SoundDuration":245901,"Delta":129059161},{"NoteNumber":70,"Velocity":45,"Duration":122950,"SoundDuration":122950,"Delta":129182112},{"NoteNumber":82,"Velocity":63,"Duration":378269,"SoundDuration":378269,"Delta":129182112},{"NoteNumber":74,"Velocity":45,"Duration":127659,"SoundDuration":127659,"Delta":129305062},{"NoteNumber":65,"Velocity":33,"Duration":255318,"SoundDuration":255318,"Delta":129305062},{"NoteNumber":58,"Velocity":26,"Duration":255318,"SoundDuration":255318,"Delta":129305062},{"NoteNumber":56,"Velocity":26,"Duration":255318,"SoundDuration":255318,"Delta":129305062},{"NoteNumber":77,"Velocity":45,"Duration":127659,"SoundDuration":127659,"Delta":129432722},{"NoteNumber":79,"Velocity":63,"Duration":1488017,"SoundDuration":1488017,"Delta":129560381},{"NoteNumber":39,"Velocity":38,"Duration":247933,"SoundDuration":247933,"Delta":129560381},{"NoteNumber":67,"Velocity":47,"Duration":123966,"SoundDuration":123966,"Delta":129684348},{"NoteNumber":70,"Velocity":47,"Duration":123967,"SoundDuration":123967,"Delta":129808315},{"NoteNumber":65,"Velocity":29,"Duration":247934,"SoundDuration":247934,"Delta":129808315},{"NoteNumber":58,"Velocity":23,"Duration":247934,"SoundDuration":247934,"Delta":129808315},{"NoteNumber":55,"Velocity":23,"Duration":247934,"SoundDuration":247934,"Delta":129808315},{"NoteNumber":77,"Velocity":58,"Duration":371900,"SoundDuration":371900,"Delta":129932282},{"NoteNumber":67,"Velocity":44,"Duration":123966,"SoundDuration":123966,"Delta":130056249},{"NoteNumber":43,"Velocity":34,"Duration":247933,"SoundDuration":247933,"Delta":130056249},{"NoteNumber":70,"Velocity":44,"Duration":123966,"SoundDuration":123966,"Delta":130180216},{"NoteNumber":75,"Velocity":57,"Duration":365853,"SoundDuration":365853,"Delta":130304183},{"NoteNumber":63,"Velocity":34,"Duration":243902,"SoundDuration":243902,"Delta":130304183},{"NoteNumber":58,"Velocity":27,"Duration":243902,"SoundDuration":243902,"Delta":130304183},{"NoteNumber":55,"Velocity":27,"Duration":243902,"SoundDuration":243902,"Delta":130304183},{"NoteNumber":67,"Velocity":42,"Duration":121951,"SoundDuration":121951,"Delta":130426135},{"NoteNumber":70,"Velocity":44,"Duration":121951,"SoundDuration":121951,"Delta":130548086},{"NoteNumber":46,"Velocity":34,"Duration":243902,"SoundDuration":243902,"Delta":130548086},{"NoteNumber":74,"Velocity":57,"Duration":378361,"SoundDuration":378361,"Delta":130670037},{"NoteNumber":67,"Velocity":44,"Duration":128205,"SoundDuration":128205,"Delta":130791988},{"NoteNumber":62,"Velocity":34,"Duration":256410,"SoundDuration":256410,"Delta":130791988},{"NoteNumber":58,"Velocity":27,"Duration":256410,"SoundDuration":256410,"Delta":130791988},{"NoteNumber":55,"Velocity":27,"Duration":256410,"SoundDuration":256410,"Delta":130791988},{"NoteNumber":70,"Velocity":44,"Duration":128205,"SoundDuration":128205,"Delta":130920194},{"NoteNumber":79,"Velocity":67,"Duration":746991,"SoundDuration":746991,"Delta":131048399},{"NoteNumber":51,"Velocity":38,"Duration":246913,"SoundDuration":246913,"Delta":131048399},{"NoteNumber":67,"Velocity":47,"Duration":123456,"SoundDuration":123456,"Delta":131171856},{"NoteNumber":70,"Velocity":47,"Duration":123456,"SoundDuration":123456,"Delta":131295312},{"NoteNumber":60,"Velocity":30,"Duration":246913,"SoundDuration":246913,"Delta":131295312},{"NoteNumber":55,"Velocity":25,"Duration":246913,"SoundDuration":246913,"Delta":131295312},{"NoteNumber":72,"Velocity":56,"Duration":376621,"SoundDuration":376621,"Delta":131418769},{"NoteNumber":67,"Velocity":42,"Duration":126582,"SoundDuration":126582,"Delta":131542226},{"NoteNumber":46,"Velocity":36,"Duration":253164,"SoundDuration":253164,"Delta":131542226},{"NoteNumber":69,"Velocity":42,"Duration":126582,"SoundDuration":126582,"Delta":131668808},{"NoteNumber":79,"Velocity":63,"Duration":752824,"SoundDuration":752824,"Delta":131795390},{"NoteNumber":58,"Velocity":36,"Duration":246913,"SoundDuration":246913,"Delta":131795390},{"NoteNumber":55,"Velocity":30,"Duration":246913,"SoundDuration":246913,"Delta":131795390},{"NoteNumber":67,"Velocity":45,"Duration":123456,"SoundDuration":123456,"Delta":131918847},{"NoteNumber":70,"Velocity":45,"Duration":121951,"SoundDuration":121951,"Delta":132042304},{"NoteNumber":43,"Velocity":36,"Duration":243902,"SoundDuration":243902,"Delta":132042304},{"NoteNumber":75,"Velocity":57,"Duration":121951,"SoundDuration":121951,"Delta":132164255},{"NoteNumber":67,"Velocity":42,"Duration":131004,"SoundDuration":131004,"Delta":132286206},{"NoteNumber":58,"Velocity":36,"Duration":262008,"SoundDuration":262008,"Delta":132286206},{"NoteNumber":55,"Velocity":30,"Duration":262008,"SoundDuration":262008,"Delta":132286206},{"NoteNumber":70,"Velocity":42,"Duration":131004,"SoundDuration":131004,"Delta":132417211},{"NoteNumber":67,"Velocity":47,"Duration":123966,"SoundDuration":123966,"Delta":132548215},{"NoteNumber":79,"Velocity":72,"Duration":371901,"SoundDuration":371901,"Delta":132548215},{"NoteNumber":38,"Velocity":38,"Duration":247933,"SoundDuration":247933,"Delta":132548215},{"NoteNumber":69,"Velocity":47,"Duration":123966,"SoundDuration":123966,"Delta":132672182},{"NoteNumber":72,"Velocity":47,"Duration":123967,"SoundDuration":123967,"Delta":132796149},{"NoteNumber":62,"Velocity":35,"Duration":247934,"SoundDuration":247934,"Delta":132796149},{"NoteNumber":60,"Velocity":27,"Duration":247934,"SoundDuration":247934,"Delta":132796149},{"NoteNumber":57,"Velocity":27,"Duration":247934,"SoundDuration":247934,"Delta":132796149},{"NoteNumber":66,"Velocity":54,"Duration":123966,"SoundDuration":123966,"Delta":132920116},{"NoteNumber":78,"Velocity":71,"Duration":393025,"SoundDuration":393025,"Delta":132920116},{"NoteNumber":69,"Velocity":54,"Duration":134529,"SoundDuration":134529,"Delta":133044083},{"NoteNumber":45,"Velocity":36,"Duration":269058,"SoundDuration":269058,"Delta":133044083},{"NoteNumber":72,"Velocity":54,"Duration":134529,"SoundDuration":134529,"Delta":133178612},{"NoteNumber":75,"Velocity":52,"Duration":121457,"SoundDuration":121457,"Delta":133313141},{"NoteNumber":87,"Velocity":82,"Duration":364372,"SoundDuration":364372,"Delta":133313141},{"NoteNumber":63,"Velocity":38,"Duration":242915,"SoundDuration":242915,"Delta":133313141},{"NoteNumber":60,"Velocity":30,"Duration":242915,"SoundDuration":242915,"Delta":133313141},{"NoteNumber":54,"Velocity":30,"Duration":242915,"SoundDuration":242915,"Delta":133313141},{"NoteNumber":78,"Velocity":51,"Duration":121457,"SoundDuration":121457,"Delta":133434599},{"NoteNumber":81,"Velocity":54,"Duration":121457,"SoundDuration":121457,"Delta":133556056},{"NoteNumber":50,"Velocity":42,"Duration":242914,"SoundDuration":242914,"Delta":133556056},{"NoteNumber":74,"Velocity":50,"Duration":121457,"SoundDuration":121457,"Delta":133677514},{"NoteNumber":86,"Velocity":81,"Duration":381197,"SoundDuration":381197,"Delta":133677514},{"NoteNumber":78,"Velocity":57,"Duration":129870,"SoundDuration":129870,"Delta":133798971},{"NoteNumber":62,"Velocity":45,"Duration":259740,"SoundDuration":259740,"Delta":133798971},{"NoteNumber":60,"Velocity":36,"Duration":259740,"SoundDuration":259740,"Delta":133798971},{"NoteNumber":57,"Velocity":36,"Duration":259740,"SoundDuration":259740,"Delta":133798971},{"NoteNumber":81,"Velocity":58,"Duration":129870,"SoundDuration":129870,"Delta":133928842},{"NoteNumber":74,"Velocity":50,"Duration":121457,"SoundDuration":121457,"Delta":134058712},{"NoteNumber":86,"Velocity":83,"Duration":368965,"SoundDuration":368965,"Delta":134058712},{"NoteNumber":43,"Velocity":38,"Duration":242915,"SoundDuration":242915,"Delta":134058712},{"NoteNumber":79,"Velocity":63,"Duration":121457,"SoundDuration":121457,"Delta":134180169},{"NoteNumber":83,"Velocity":62,"Duration":126050,"SoundDuration":126050,"Delta":134301627},{"NoteNumber":59,"Velocity":29,"Duration":252101,"SoundDuration":252101,"Delta":134301627},{"NoteNumber":62,"Velocity":35,"Duration":252101,"SoundDuration":252101,"Delta":134301627},{"NoteNumber":71,"Velocity":48,"Duration":126050,"SoundDuration":126050,"Delta":134427677},{"NoteNumber":83,"Velocity":70,"Duration":388059,"SoundDuration":388059,"Delta":134427677},{"NoteNumber":74,"Velocity":60,"Duration":131004,"SoundDuration":131004,"Delta":134553728},{"NoteNumber":50,"Velocity":38,"Duration":262008,"SoundDuration":262008,"Delta":134553728},{"NoteNumber":79,"Velocity":61,"Duration":131004,"SoundDuration":131004,"Delta":134684732},{"NoteNumber":67,"Velocity":47,"Duration":123456,"SoundDuration":123456,"Delta":134815736},{"NoteNumber":79,"Velocity":66,"Duration":370370,"SoundDuration":370370,"Delta":134815736},{"NoteNumber":62,"Velocity":29,"Duration":246913,"SoundDuration":246913,"Delta":134815736},{"NoteNumber":59,"Velocity":25,"Duration":246913,"SoundDuration":246913,"Delta":134815736},{"NoteNumber":71,"Velocity":54,"Duration":123456,"SoundDuration":123456,"Delta":134939193},{"NoteNumber":74,"Velocity":54,"Duration":123456,"SoundDuration":123456,"Delta":135062650},{"NoteNumber":55,"Velocity":34,"Duration":246913,"SoundDuration":246913,"Delta":135062650},{"NoteNumber":67,"Velocity":46,"Duration":123456,"SoundDuration":123456,"Delta":135186107},{"NoteNumber":79,"Velocity":66,"Duration":378775,"SoundDuration":378775,"Delta":135186107},{"NoteNumber":71,"Velocity":54,"Duration":127659,"SoundDuration":127659,"Delta":135309563},{"NoteNumber":62,"Velocity":34,"Duration":255318,"SoundDuration":255318,"Delta":135309563},{"NoteNumber":59,"Velocity":28,"Duration":255318,"SoundDuration":255318,"Delta":135309563},{"NoteNumber":74,"Velocity":50,"Duration":127659,"SoundDuration":127659,"Delta":135437223},{"NoteNumber":79,"Velocity":63,"Duration":1488017,"SoundDuration":1488017,"Delta":135564882},{"NoteNumber":40,"Velocity":38,"Duration":247933,"SoundDuration":247933,"Delta":135564882},{"NoteNumber":67,"Velocity":47,"Duration":123966,"SoundDuration":123966,"Delta":135688849},{"NoteNumber":71,"Velocity":47,"Duration":123967,"SoundDuration":123967,"Delta":135812816},{"NoteNumber":55,"Velocity":17,"Duration":247934,"SoundDuration":247934,"Delta":135812816},{"NoteNumber":59,"Velocity":22,"Duration":247934,"SoundDuration":247934,"Delta":135812816},{"NoteNumber":66,"Velocity":28,"Duration":247934,"SoundDuration":247934,"Delta":135812816},{"NoteNumber":78,"Velocity":58,"Duration":371900,"SoundDuration":371900,"Delta":135936783},{"NoteNumber":67,"Velocity":44,"Duration":123966,"SoundDuration":123966,"Delta":136060750},{"NoteNumber":43,"Velocity":32,"Duration":247933,"SoundDuration":247933,"Delta":136060750},{"NoteNumber":71,"Velocity":44,"Duration":123966,"SoundDuration":123966,"Delta":136184717},{"NoteNumber":76,"Velocity":57,"Duration":365853,"SoundDuration":365853,"Delta":136308684},{"NoteNumber":64,"Velocity":38,"Duration":243902,"SoundDuration":243902,"Delta":136308684},{"NoteNumber":59,"Velocity":30,"Duration":243902,"SoundDuration":243902,"Delta":136308684},{"NoteNumber":55,"Velocity":30,"Duration":243902,"SoundDuration":243902,"Delta":136308684},{"NoteNumber":67,"Velocity":42,"Duration":121951,"SoundDuration":121951,"Delta":136430636},{"NoteNumber":71,"Velocity":44,"Duration":121951,"SoundDuration":121951,"Delta":136552587},{"NoteNumber":47,"Velocity":34,"Duration":243902,"SoundDuration":243902,"Delta":136552587},{"NoteNumber":74,"Velocity":57,"Duration":378361,"SoundDuration":378361,"Delta":136674538},{"NoteNumber":67,"Velocity":44,"Duration":128205,"SoundDuration":128205,"Delta":136796489},{"NoteNumber":62,"Velocity":34,"Duration":256410,"SoundDuration":256410,"Delta":136796489},{"NoteNumber":59,"Velocity":27,"Duration":256410,"SoundDuration":256410,"Delta":136796489},{"NoteNumber":55,"Velocity":27,"Duration":256410,"SoundDuration":256410,"Delta":136796489},{"NoteNumber":71,"Velocity":44,"Duration":128205,"SoundDuration":128205,"Delta":136924695},{"NoteNumber":79,"Velocity":67,"Duration":742993,"SoundDuration":742993,"Delta":137052900},{"NoteNumber":52,"Velocity":38,"Duration":246913,"SoundDuration":246913,"Delta":137052900},{"NoteNumber":67,"Velocity":47,"Duration":123456,"SoundDuration":123456,"Delta":137176357},{"NoteNumber":71,"Velocity":47,"Duration":121457,"SoundDuration":121457,"Delta":137299813},{"NoteNumber":60,"Velocity":28,"Duration":242915,"SoundDuration":242915,"Delta":137299813},{"NoteNumber":55,"Velocity":24,"Duration":242915,"SoundDuration":242915,"Delta":137299813},{"NoteNumber":72,"Velocity":56,"Duration":374622,"SoundDuration":374622,"Delta":137421271},{"NoteNumber":67,"Velocity":42,"Duration":126582,"SoundDuration":126582,"Delta":137542728},{"NoteNumber":47,"Velocity":35,"Duration":253164,"SoundDuration":253164,"Delta":137542728},{"NoteNumber":71,"Velocity":42,"Duration":126582,"SoundDuration":126582,"Delta":137669311},{"NoteNumber":79,"Velocity":63,"Duration":751804,"SoundDuration":751804,"Delta":137795893},{"NoteNumber":59,"Velocity":33,"Duration":244898,"SoundDuration":244898,"Delta":137795893},{"NoteNumber":55,"Velocity":27,"Duration":244898,"SoundDuration":244898,"Delta":137795893},{"NoteNumber":67,"Velocity":45,"Duration":122449,"SoundDuration":122449,"Delta":137918342},{"NoteNumber":71,"Velocity":45,"Duration":122448,"SoundDuration":122448,"Delta":138040791},{"NoteNumber":40,"Velocity":33,"Duration":244898,"SoundDuration":244898,"Delta":138040791},{"NoteNumber":76,"Velocity":57,"Duration":122449,"SoundDuration":122449,"Delta":138163240},{"NoteNumber":67,"Velocity":42,"Duration":131004,"SoundDuration":131004,"Delta":138285689},{"NoteNumber":59,"Velocity":33,"Duration":262008,"SoundDuration":262008,"Delta":138285689},{"NoteNumber":55,"Velocity":27,"Duration":262008,"SoundDuration":262008,"Delta":138285689},{"NoteNumber":71,"Velocity":42,"Duration":131004,"SoundDuration":131004,"Delta":138416693},{"NoteNumber":67,"Velocity":47,"Duration":123966,"SoundDuration":123966,"Delta":138547697},{"NoteNumber":79,"Velocity":63,"Duration":371901,"SoundDuration":371901,"Delta":138547697},{"NoteNumber":36,"Velocity":38,"Duration":247933,"SoundDuration":247933,"Delta":138547697},{"NoteNumber":69,"Velocity":47,"Duration":123966,"SoundDuration":123966,"Delta":138671664},{"NoteNumber":75,"Velocity":47,"Duration":123967,"SoundDuration":123967,"Delta":138795631},{"NoteNumber":63,"Velocity":35,"Duration":247934,"SoundDuration":247934,"Delta":138795631},{"NoteNumber":57,"Velocity":27,"Duration":247934,"SoundDuration":247934,"Delta":138795631},{"NoteNumber":55,"Velocity":27,"Duration":247934,"SoundDuration":247934,"Delta":138795631},{"NoteNumber":65,"Velocity":45,"Duration":123966,"SoundDuration":123966,"Delta":138919598},{"NoteNumber":77,"Velocity":58,"Duration":366882,"SoundDuration":366882,"Delta":138919598},{"NoteNumber":69,"Velocity":45,"Duration":121457,"SoundDuration":121457,"Delta":139043565},{"NoteNumber":45,"Velocity":36,"Duration":242915,"SoundDuration":242915,"Delta":139043565},{"NoteNumber":75,"Velocity":45,"Duration":121457,"SoundDuration":121457,"Delta":139165023},{"NoteNumber":66,"Velocity":45,"Duration":120000,"SoundDuration":120000,"Delta":139286480},{"NoteNumber":78,"Velocity":66,"Duration":360000,"SoundDuration":360000,"Delta":139286480},{"NoteNumber":57,"Velocity":29,"Duration":240000,"SoundDuration":240000,"Delta":139286480},{"NoteNumber":63,"Velocity":37,"Duration":240000,"SoundDuration":240000,"Delta":139286480},{"NoteNumber":54,"Velocity":29,"Duration":240000,"SoundDuration":240000,"Delta":139286480},{"NoteNumber":69,"Velocity":45,"Duration":120000,"SoundDuration":120000,"Delta":139406480},{"NoteNumber":75,"Velocity":45,"Duration":120000,"SoundDuration":120000,"Delta":139526480},{"NoteNumber":48,"Velocity":38,"Duration":239999,"SoundDuration":239999,"Delta":139526480},{"NoteNumber":67,"Velocity":48,"Duration":119999,"SoundDuration":119999,"Delta":139646480},{"NoteNumber":79,"Velocity":72,"Duration":379740,"SoundDuration":379740,"Delta":139646480},{"NoteNumber":69,"Velocity":48,"Duration":129870,"SoundDuration":129870,"Delta":139766480},{"NoteNumber":63,"Velocity":39,"Duration":259740,"SoundDuration":259740,"Delta":139766480},{"NoteNumber":57,"Velocity":31,"Duration":259740,"SoundDuration":259740,"Delta":139766480},{"NoteNumber":54,"Velocity":31,"Duration":259740,"SoundDuration":259740,"Delta":139766480},{"NoteNumber":75,"Velocity":50,"Duration":129870,"SoundDuration":129870,"Delta":139896351},{"NoteNumber":68,"Velocity":54,"Duration":120482,"SoundDuration":120482,"Delta":140026221},{"NoteNumber":80,"Velocity":75,"Duration":367014,"SoundDuration":367014,"Delta":140026221},{"NoteNumber":35,"Velocity":40,"Duration":240963,"SoundDuration":240963,"Delta":140026221},{"NoteNumber":75,"Velocity":54,"Duration":120481,"SoundDuration":120481,"Delta":140146703},{"NoteNumber":78,"Velocity":54,"Duration":126050,"SoundDuration":126050,"Delta":140267185},{"NoteNumber":63,"Velocity":34,"Duration":252101,"SoundDuration":252101,"Delta":140267185},{"NoteNumber":57,"Velocity":27,"Duration":252101,"SoundDuration":252101,"Delta":140267185},{"NoteNumber":54,"Velocity":27,"Duration":252101,"SoundDuration":252101,"Delta":140267185},{"NoteNumber":69,"Velocity":54,"Duration":126050,"SoundDuration":126050,"Delta":140393235},{"NoteNumber":81,"Velocity":75,"Duration":427558,"SoundDuration":427558,"Delta":140393235},{"NoteNumber":75,"Velocity":54,"Duration":150753,"SoundDuration":150753,"Delta":140519286},{"NoteNumber":47,"Velocity":42,"Duration":301507,"SoundDuration":301507,"Delta":140519286},{"NoteNumber":78,"Velocity":60,"Duration":150753,"SoundDuration":150753,"Delta":140670040},{"NoteNumber":72,"Velocity":57,"Duration":129870,"SoundDuration":129870,"Delta":140820793},{"NoteNumber":84,"Velocity":80,"Duration":382691,"SoundDuration":382691,"Delta":140820793},{"NoteNumber":66,"Velocity":49,"Duration":259740,"SoundDuration":259740,"Delta":140820793},{"NoteNumber":60,"Velocity":39,"Duration":259740,"SoundDuration":259740,"Delta":140820793},{"NoteNumber":57,"Velocity":39,"Duration":259740,"SoundDuration":259740,"Delta":140820793},{"NoteNumber":75,"Velocity":57,"Duration":129870,"SoundDuration":129870,"Delta":140950664},{"NoteNumber":78,"Velocity":54,"Duration":122950,"SoundDuration":122950,"Delta":141080534},{"NoteNumber":51,"Velocity":32,"Duration":245901,"SoundDuration":245901,"Delta":141080534},{"NoteNumber":71,"Velocity":45,"Duration":122950,"SoundDuration":122950,"Delta":141203485},{"NoteNumber":83,"Velocity":63,"Duration":378269,"SoundDuration":378269,"Delta":141203485},{"NoteNumber":75,"Velocity":45,"Duration":127659,"SoundDuration":127659,"Delta":141326435},{"NoteNumber":66,"Velocity":33,"Duration":255318,"SoundDuration":255318,"Delta":141326435},{"NoteNumber":59,"Velocity":26,"Duration":255318,"SoundDuration":255318,"Delta":141326435},{"NoteNumber":57,"Velocity":26,"Duration":255318,"SoundDuration":255318,"Delta":141326435},{"NoteNumber":78,"Velocity":45,"Duration":127659,"SoundDuration":127659,"Delta":141454095},{"NoteNumber":79,"Velocity":63,"Duration":1488017,"SoundDuration":1488017,"Delta":141581754},{"NoteNumber":40,"Velocity":38,"Duration":247933,"SoundDuration":247933,"Delta":141581754},{"NoteNumber":67,"Velocity":47,"Duration":123966,"SoundDuration":123966,"Delta":141705721},{"NoteNumber":71,"Velocity":47,"Duration":123967,"SoundDuration":123967,"Delta":141829688},{"NoteNumber":66,"Velocity":29,"Duration":247934,"SoundDuration":247934,"Delta":141829688},{"NoteNumber":59,"Velocity":23,"Duration":247934,"SoundDuration":247934,"Delta":141829688},{"NoteNumber":55,"Velocity":19,"Duration":247934,"SoundDuration":247934,"Delta":141829688},{"NoteNumber":78,"Velocity":58,"Duration":371900,"SoundDuration":371900,"Delta":141953655},{"NoteNumber":67,"Velocity":44,"Duration":123966,"SoundDuration":123966,"Delta":142077622},{"NoteNumber":43,"Velocity":34,"Duration":247933,"SoundDuration":247933,"Delta":142077622},{"NoteNumber":71,"Velocity":44,"Duration":123966,"SoundDuration":123966,"Delta":142201589},{"NoteNumber":76,"Velocity":57,"Duration":365853,"SoundDuration":365853,"Delta":142325556},{"NoteNumber":64,"Velocity":34,"Duration":243902,"SoundDuration":243902,"Delta":142325556},{"NoteNumber":59,"Velocity":27,"Duration":243902,"SoundDuration":243902,"Delta":142325556},{"NoteNumber":55,"Velocity":27,"Duration":243902,"SoundDuration":243902,"Delta":142325556},{"NoteNumber":67,"Velocity":42,"Duration":121951,"SoundDuration":121951,"Delta":142447508},{"NoteNumber":71,"Velocity":44,"Duration":121951,"SoundDuration":121951,"Delta":142569459},{"NoteNumber":47,"Velocity":34,"Duration":243902,"SoundDuration":243902,"Delta":142569459},{"NoteNumber":74,"Velocity":57,"Duration":378361,"SoundDuration":378361,"Delta":142691410},{"NoteNumber":67,"Velocity":44,"Duration":128205,"SoundDuration":128205,"Delta":142813361},{"NoteNumber":62,"Velocity":34,"Duration":256410,"SoundDuration":256410,"Delta":142813361},{"NoteNumber":59,"Velocity":27,"Duration":256410,"SoundDuration":256410,"Delta":142813361},{"NoteNumber":55,"Velocity":27,"Duration":256410,"SoundDuration":256410,"Delta":142813361},{"NoteNumber":71,"Velocity":44,"Duration":128205,"SoundDuration":128205,"Delta":142941567},{"NoteNumber":79,"Velocity":67,"Duration":746991,"SoundDuration":746991,"Delta":143069772},{"NoteNumber":52,"Velocity":38,"Duration":246913,"SoundDuration":246913,"Delta":143069772},{"NoteNumber":67,"Velocity":47,"Duration":123456,"SoundDuration":123456,"Delta":143193229},{"NoteNumber":71,"Velocity":47,"Duration":123456,"SoundDuration":123456,"Delta":143316685},{"NoteNumber":60,"Velocity":30,"Duration":246913,"SoundDuration":246913,"Delta":143316685},{"NoteNumber":55,"Velocity":25,"Duration":246913,"SoundDuration":246913,"Delta":143316685},{"NoteNumber":72,"Velocity":56,"Duration":376621,"SoundDuration":376621,"Delta":143440142},{"NoteNumber":67,"Velocity":42,"Duration":126582,"SoundDuration":126582,"Delta":143563599},{"NoteNumber":47,"Velocity":36,"Duration":253164,"SoundDuration":253164,"Delta":143563599},{"NoteNumber":71,"Velocity":42,"Duration":126582,"SoundDuration":126582,"Delta":143690181},{"NoteNumber":79,"Velocity":63,"Duration":751804,"SoundDuration":751804,"Delta":143816763},{"NoteNumber":59,"Velocity":36,"Duration":244898,"SoundDuration":244898,"Delta":143816763},{"NoteNumber":55,"Velocity":30,"Duration":244898,"SoundDuration":244898,"Delta":143816763},{"NoteNumber":67,"Velocity":45,"Duration":122449,"SoundDuration":122449,"Delta":143939212},{"NoteNumber":71,"Velocity":45,"Duration":122448,"SoundDuration":122448,"Delta":144061661},{"NoteNumber":40,"Velocity":36,"Duration":244898,"SoundDuration":244898,"Delta":144061661},{"NoteNumber":76,"Velocity":57,"Duration":122449,"SoundDuration":122449,"Delta":144184110},{"NoteNumber":67,"Velocity":42,"Duration":131004,"SoundDuration":131004,"Delta":144306559},{"NoteNumber":59,"Velocity":36,"Duration":262008,"SoundDuration":262008,"Delta":144306559},{"NoteNumber":55,"Velocity":30,"Duration":262008,"SoundDuration":262008,"Delta":144306559},{"NoteNumber":71,"Velocity":42,"Duration":131004,"SoundDuration":131004,"Delta":144437564},{"NoteNumber":67,"Velocity":47,"Duration":123966,"SoundDuration":123966,"Delta":144568568},{"NoteNumber":79,"Velocity":72,"Duration":371901,"SoundDuration":371901,"Delta":144568568},{"NoteNumber":39,"Velocity":38,"Duration":247933,"SoundDuration":247933,"Delta":144568568},{"NoteNumber":69,"Velocity":47,"Duration":123966,"SoundDuration":123966,"Delta":144692535},{"NoteNumber":72,"Velocity":47,"Duration":123967,"SoundDuration":123967,"Delta":144816502},{"NoteNumber":60,"Velocity":35,"Duration":247934,"SoundDuration":247934,"Delta":144816502},{"NoteNumber":57,"Velocity":27,"Duration":247934,"SoundDuration":247934,"Delta":144816502},{"NoteNumber":55,"Velocity":27,"Duration":247934,"SoundDuration":247934,"Delta":144816502},{"NoteNumber":65,"Velocity":64,"Duration":123966,"SoundDuration":123966,"Delta":144940469},{"NoteNumber":77,"Velocity":64,"Duration":379285,"SoundDuration":379285,"Delta":144940469},{"NoteNumber":69,"Velocity":54,"Duration":127659,"SoundDuration":127659,"Delta":145064436},{"NoteNumber":45,"Velocity":36,"Duration":255318,"SoundDuration":255318,"Delta":145064436},{"NoteNumber":72,"Velocity":54,"Duration":127659,"SoundDuration":127659,"Delta":145192095},{"NoteNumber":66,"Velocity":68,"Duration":120482,"SoundDuration":120482,"Delta":145319755},{"NoteNumber":78,"Velocity":68,"Duration":361446,"SoundDuration":361446,"Delta":145319755},{"NoteNumber":60,"Velocity":38,"Duration":240963,"SoundDuration":240963,"Delta":145319755},{"NoteNumber":57,"Velocity":30,"Duration":240963,"SoundDuration":240963,"Delta":145319755},{"NoteNumber":54,"Velocity":30,"Duration":240963,"SoundDuration":240963,"Delta":145319755},{"NoteNumber":69,"Velocity":51,"Duration":120481,"SoundDuration":120481,"Delta":145440237},{"NoteNumber":72,"Velocity":54,"Duration":120482,"SoundDuration":120482,"Delta":145560719},{"NoteNumber":48,"Velocity":42,"Duration":240964,"SoundDuration":240964,"Delta":145560719},{"NoteNumber":67,"Velocity":72,"Duration":120482,"SoundDuration":120482,"Delta":145681201},{"NoteNumber":79,"Velocity":72,"Duration":380222,"SoundDuration":380222,"Delta":145681201},{"NoteNumber":69,"Velocity":57,"Duration":129870,"SoundDuration":129870,"Delta":145801683},{"NoteNumber":63,"Velocity":45,"Duration":259740,"SoundDuration":259740,"Delta":145801683},{"NoteNumber":57,"Velocity":36,"Duration":259740,"SoundDuration":259740,"Delta":145801683},{"NoteNumber":54,"Velocity":36,"Duration":259740,"SoundDuration":259740,"Delta":145801683},{"NoteNumber":72,"Velocity":58,"Duration":129870,"SoundDuration":129870,"Delta":145931553},{"NoteNumber":68,"Velocity":77,"Duration":119521,"SoundDuration":119521,"Delta":146061423},{"NoteNumber":80,"Velocity":77,"Duration":365094,"SoundDuration":365094,"Delta":146061423},{"NoteNumber":38,"Velocity":42,"Duration":239044,"SoundDuration":239044,"Delta":146061423},{"NoteNumber":72,"Velocity":60,"Duration":119522,"SoundDuration":119522,"Delta":146180945},{"NoteNumber":78,"Velocity":60,"Duration":126050,"SoundDuration":126050,"Delta":146300467},{"NoteNumber":54,"Velocity":33,"Duration":252101,"SoundDuration":252101,"Delta":146300467},{"NoteNumber":60,"Velocity":33,"Duration":252101,"SoundDuration":252101,"Delta":146300467},{"NoteNumber":63,"Velocity":42,"Duration":252101,"SoundDuration":252101,"Delta":146300467},{"NoteNumber":69,"Velocity":72,"Duration":126050,"SoundDuration":126050,"Delta":146426518},{"NoteNumber":81,"Velocity":72,"Duration":406424,"SoundDuration":406424,"Delta":146426518},{"NoteNumber":72,"Velocity":60,"Duration":140186,"SoundDuration":140186,"Delta":146552568},{"NoteNumber":45,"Velocity":47,"Duration":280373,"SoundDuration":280373,"Delta":146552568},{"NoteNumber":78,"Velocity":57,"Duration":140186,"SoundDuration":140186,"Delta":146692755},{"NoteNumber":75,"Velocity":79,"Duration":123456,"SoundDuration":123456,"Delta":146832942},{"NoteNumber":87,"Velocity":79,"Duration":370370,"SoundDuration":370370,"Delta":146832942},{"NoteNumber":54,"Velocity":30,"Duration":246913,"SoundDuration":246913,"Delta":146832942},{"NoteNumber":63,"Velocity":38,"Duration":246913,"SoundDuration":246913,"Delta":146832942},{"NoteNumber":60,"Velocity":30,"Duration":246913,"SoundDuration":246913,"Delta":146832942},{"NoteNumber":78,"Velocity":54,"Duration":123456,"SoundDuration":123456,"Delta":146956399},{"NoteNumber":81,"Velocity":54,"Duration":123456,"SoundDuration":123456,"Delta":147079856},{"NoteNumber":50,"Velocity":34,"Duration":246913,"SoundDuration":246913,"Delta":147079856},{"NoteNumber":74,"Velocity":46,"Duration":123456,"SoundDuration":123456,"Delta":147203313},{"NoteNumber":86,"Velocity":66,"Duration":378775,"SoundDuration":378775,"Delta":147203313},{"NoteNumber":78,"Velocity":54,"Duration":127659,"SoundDuration":127659,"Delta":147326769},{"NoteNumber":57,"Velocity":28,"Duration":255318,"SoundDuration":255318,"Delta":147326769},{"NoteNumber":62,"Velocity":34,"Duration":255318,"SoundDuration":255318,"Delta":147326769},{"NoteNumber":60,"Velocity":28,"Duration":255318,"SoundDuration":255318,"Delta":147326769},{"NoteNumber":81,"Velocity":50,"Duration":127659,"SoundDuration":127659,"Delta":147454429},{"NoteNumber":82,"Velocity":63,"Duration":1488017,"SoundDuration":1488017,"Delta":147582088},{"NoteNumber":43,"Velocity":38,"Duration":247933,"SoundDuration":247933,"Delta":147582088},{"NoteNumber":70,"Velocity":47,"Duration":123966,"SoundDuration":123966,"Delta":147706055},{"NoteNumber":74,"Velocity":47,"Duration":123967,"SoundDuration":123967,"Delta":147830022},{"NoteNumber":69,"Velocity":28,"Duration":247934,"SoundDuration":247934,"Delta":147830022},{"NoteNumber":58,"Velocity":22,"Duration":247934,"SoundDuration":247934,"Delta":147830022},{"NoteNumber":62,"Velocity":22,"Duration":247934,"SoundDuration":247934,"Delta":147830022},{"NoteNumber":81,"Velocity":60,"Duration":371900,"SoundDuration":371900,"Delta":147953989},{"NoteNumber":70,"Velocity":50,"Duration":123966,"SoundDuration":123966,"Delta":148077956},{"NoteNumber":46,"Velocity":32,"Duration":247933,"SoundDuration":247933,"Delta":148077956},{"NoteNumber":74,"Velocity":50,"Duration":123966,"SoundDuration":123966,"Delta":148201923},{"NoteNumber":79,"Velocity":62,"Duration":365853,"SoundDuration":365853,"Delta":148325890},{"NoteNumber":67,"Velocity":38,"Duration":243902,"SoundDuration":243902,"Delta":148325890},{"NoteNumber":62,"Velocity":30,"Duration":243902,"SoundDuration":243902,"Delta":148325890},{"NoteNumber":58,"Velocity":30,"Duration":243902,"SoundDuration":243902,"Delta":148325890},{"NoteNumber":70,"Velocity":51,"Duration":121951,"SoundDuration":121951,"Delta":148447842},{"NoteNumber":74,"Velocity":54,"Duration":121951,"SoundDuration":121951,"Delta":148569793},{"NoteNumber":50,"Velocity":34,"Duration":243902,"SoundDuration":243902,"Delta":148569793},{"NoteNumber":77,"Velocity":63,"Duration":378361,"SoundDuration":378361,"Delta":148691744},{"NoteNumber":70,"Velocity":53,"Duration":128205,"SoundDuration":128205,"Delta":148813695},{"NoteNumber":63,"Velocity":34,"Duration":256410,"SoundDuration":256410,"Delta":148813695},{"NoteNumber":58,"Velocity":27,"Duration":256410,"SoundDuration":256410,"Delta":148813695},{"NoteNumber":55,"Velocity":27,"Duration":256410,"SoundDuration":256410,"Delta":148813695},{"NoteNumber":75,"Velocity":55,"Duration":128205,"SoundDuration":128205,"Delta":148941901},{"NoteNumber":84,"Velocity":72,"Duration":746991,"SoundDuration":746991,"Delta":149070106},{"NoteNumber":42,"Velocity":38,"Duration":246913,"SoundDuration":246913,"Delta":149070106},{"NoteNumber":72,"Velocity":54,"Duration":123456,"SoundDuration":123456,"Delta":149193563},{"NoteNumber":75,"Velocity":56,"Duration":123456,"SoundDuration":123456,"Delta":149317019},{"NoteNumber":63,"Velocity":24,"Duration":246913,"SoundDuration":246913,"Delta":149317019},{"NoteNumber":70,"Velocity":28,"Duration":246913,"SoundDuration":246913,"Delta":149317019},{"NoteNumber":60,"Velocity":24,"Duration":246913,"SoundDuration":246913,"Delta":149317019},{"NoteNumber":82,"Velocity":66,"Duration":376621,"SoundDuration":376621,"Delta":149440476},{"NoteNumber":72,"Velocity":52,"Duration":126582,"SoundDuration":126582,"Delta":149563933},{"NoteNumber":41,"Velocity":35,"Duration":253164,"SoundDuration":253164,"Delta":149563933},{"NoteNumber":75,"Velocity":53,"Duration":126582,"SoundDuration":126582,"Delta":149690515},{"NoteNumber":81,"Velocity":50,"Duration":122950,"SoundDuration":122950,"Delta":149817097},{"NoteNumber":84,"Velocity":65,"Duration":753811,"SoundDuration":753811,"Delta":149817097},{"NoteNumber":63,"Velocity":27,"Duration":245901,"SoundDuration":245901,"Delta":149817097},{"NoteNumber":69,"Velocity":33,"Duration":245901,"SoundDuration":245901,"Delta":149817097},{"NoteNumber":60,"Velocity":27,"Duration":245901,"SoundDuration":245901,"Delta":149817097},{"NoteNumber":72,"Velocity":48,"Duration":122950,"SoundDuration":122950,"Delta":149940048},{"NoteNumber":75,"Velocity":48,"Duration":122950,"SoundDuration":122950,"Delta":150062999},{"NoteNumber":45,"Velocity":33,"Duration":245901,"SoundDuration":245901,"Delta":150062999},{"NoteNumber":78,"Velocity":63,"Duration":384959,"SoundDuration":384959,"Delta":150185950},{"NoteNumber":72,"Velocity":46,"Duration":131004,"SoundDuration":131004,"Delta":150308900},{"NoteNumber":60,"Velocity":27,"Duration":262008,"SoundDuration":262008,"Delta":150308900},{"NoteNumber":66,"Velocity":33,"Duration":262008,"SoundDuration":262008,"Delta":150308900},{"NoteNumber":63,"Velocity":27,"Duration":262008,"SoundDuration":262008,"Delta":150308900},{"NoteNumber":75,"Velocity":46,"Duration":131004,"SoundDuration":131004,"Delta":150439905},{"NoteNumber":85,"Velocity":72,"Duration":1488017,"SoundDuration":1488017,"Delta":150570909},{"NoteNumber":46,"Velocity":44,"Duration":247933,"SoundDuration":247933,"Delta":150570909},{"NoteNumber":73,"Velocity":54,"Duration":123966,"SoundDuration":123966,"Delta":150694876},{"NoteNumber":77,"Velocity":54,"Duration":123967,"SoundDuration":123967,"Delta":150818843},{"NoteNumber":72,"Velocity":32,"Duration":247934,"SoundDuration":247934,"Delta":150818843},{"NoteNumber":61,"Velocity":25,"Duration":247934,"SoundDuration":247934,"Delta":150818843},{"NoteNumber":65,"Velocity":25,"Duration":247934,"SoundDuration":247934,"Delta":150818843},{"NoteNumber":84,"Velocity":69,"Duration":371900,"SoundDuration":371900,"Delta":150942810},{"NoteNumber":73,"Velocity":57,"Duration":123966,"SoundDuration":123966,"Delta":151066777},{"NoteNumber":49,"Velocity":36,"Duration":247933,"SoundDuration":247933,"Delta":151066777},{"NoteNumber":77,"Velocity":57,"Duration":123966,"SoundDuration":123966,"Delta":151190744},{"NoteNumber":82,"Velocity":71,"Duration":365853,"SoundDuration":365853,"Delta":151314711},{"NoteNumber":70,"Velocity":44,"Duration":243902,"SoundDuration":243902,"Delta":151314711},{"NoteNumber":65,"Velocity":35,"Duration":243902,"SoundDuration":243902,"Delta":151314711},{"NoteNumber":61,"Velocity":35,"Duration":243902,"SoundDuration":243902,"Delta":151314711},{"NoteNumber":73,"Velocity":58,"Duration":121951,"SoundDuration":121951,"Delta":151436662},{"NoteNumber":77,"Velocity":62,"Duration":121951,"SoundDuration":121951,"Delta":151558613},{"NoteNumber":53,"Velocity":38,"Duration":243902,"SoundDuration":243902,"Delta":151558613},{"NoteNumber":80,"Velocity":72,"Duration":378361,"SoundDuration":378361,"Delta":151680565},{"NoteNumber":73,"Velocity":60,"Duration":128205,"SoundDuration":128205,"Delta":151802516},{"NoteNumber":66,"Velocity":38,"Duration":256410,"SoundDuration":256410,"Delta":151802516},{"NoteNumber":61,"Velocity":30,"Duration":256410,"SoundDuration":256410,"Delta":151802516},{"NoteNumber":58,"Velocity":30,"Duration":256410,"SoundDuration":256410,"Delta":151802516},{"NoteNumber":78,"Velocity":63,"Duration":128205,"SoundDuration":128205,"Delta":151930721},{"NoteNumber":87,"Velocity":82,"Duration":746991,"SoundDuration":746991,"Delta":152058926},{"NoteNumber":45,"Velocity":44,"Duration":246913,"SoundDuration":246913,"Delta":152058926},{"NoteNumber":75,"Velocity":62,"Duration":123456,"SoundDuration":123456,"Delta":152182383},{"NoteNumber":78,"Velocity":64,"Duration":123456,"SoundDuration":123456,"Delta":152305840},{"NoteNumber":66,"Velocity":27,"Duration":246913,"SoundDuration":246913,"Delta":152305840},{"NoteNumber":73,"Velocity":32,"Duration":246913,"SoundDuration":246913,"Delta":152305840},{"NoteNumber":63,"Velocity":27,"Duration":246913,"SoundDuration":246913,"Delta":152305840},{"NoteNumber":85,"Velocity":76,"Duration":376621,"SoundDuration":376621,"Delta":152429297},{"NoteNumber":75,"Velocity":59,"Duration":126582,"SoundDuration":126582,"Delta":152552753},{"NoteNumber":44,"Velocity":39,"Duration":253164,"SoundDuration":253164,"Delta":152552753},{"NoteNumber":78,"Velocity":60,"Duration":126582,"SoundDuration":126582,"Delta":152679336},{"NoteNumber":84,"Velocity":57,"Duration":123456,"SoundDuration":123456,"Delta":152805918},{"NoteNumber":87,"Velocity":74,"Duration":753820,"SoundDuration":753820,"Delta":152805918},{"NoteNumber":66,"Velocity":31,"Duration":246913,"SoundDuration":246913,"Delta":152805918},{"NoteNumber":72,"Velocity":37,"Duration":246913,"SoundDuration":246913,"Delta":152805918},{"NoteNumber":63,"Velocity":31,"Duration":246913,"SoundDuration":246913,"Delta":152805918},{"NoteNumber":75,"Velocity":55,"Duration":123456,"SoundDuration":123456,"Delta":152929375},{"NoteNumber":78,"Velocity":55,"Duration":122448,"SoundDuration":122448,"Delta":153052831},{"NoteNumber":48,"Velocity":37,"Duration":244898,"SoundDuration":244898,"Delta":153052831},{"NoteNumber":81,"Velocity":72,"Duration":384457,"SoundDuration":384457,"Delta":153175280},{"NoteNumber":75,"Velocity":53,"Duration":131004,"SoundDuration":131004,"Delta":153297729},{"NoteNumber":63,"Velocity":31,"Duration":262008,"SoundDuration":262008,"Delta":153297729},{"NoteNumber":68,"Velocity":37,"Duration":262008,"SoundDuration":262008,"Delta":153297729},{"NoteNumber":66,"Velocity":31,"Duration":262008,"SoundDuration":262008,"Delta":153297729},{"NoteNumber":80,"Velocity":53,"Duration":131004,"SoundDuration":131004,"Delta":153428734},{"NoteNumber":89,"Velocity":79,"Duration":1488017,"SoundDuration":1488017,"Delta":153559738},{"NoteNumber":49,"Velocity":47,"Duration":247933,"SoundDuration":247933,"Delta":153559738},{"NoteNumber":77,"Velocity":59,"Duration":123966,"SoundDuration":123966,"Delta":153683705},{"NoteNumber":80,"Velocity":59,"Duration":123967,"SoundDuration":123967,"Delta":153807672},{"NoteNumber":75,"Velocity":35,"Duration":247934,"SoundDuration":247934,"Delta":153807672},{"NoteNumber":65,"Velocity":27,"Duration":247934,"SoundDuration":247934,"Delta":153807672},{"NoteNumber":68,"Velocity":27,"Duration":247934,"SoundDuration":247934,"Delta":153807672},{"NoteNumber":87,"Velocity":75,"Duration":371900,"SoundDuration":371900,"Delta":153931639},{"NoteNumber":77,"Velocity":63,"Duration":123966,"SoundDuration":123966,"Delta":154055606},{"NoteNumber":53,"Velocity":40,"Duration":247933,"SoundDuration":247933,"Delta":154055606},{"NoteNumber":80,"Velocity":63,"Duration":123966,"SoundDuration":123966,"Delta":154179573},{"NoteNumber":85,"Velocity":77,"Duration":365853,"SoundDuration":365853,"Delta":154303540},{"NoteNumber":73,"Velocity":47,"Duration":243902,"SoundDuration":243902,"Delta":154303540},{"NoteNumber":68,"Velocity":37,"Duration":243902,"SoundDuration":243902,"Delta":154303540},{"NoteNumber":65,"Velocity":37,"Duration":243902,"SoundDuration":243902,"Delta":154303540},{"NoteNumber":77,"Velocity":63,"Duration":121951,"SoundDuration":121951,"Delta":154425491},{"NoteNumber":80,"Velocity":67,"Duration":121951,"SoundDuration":121951,"Delta":154547442},{"NoteNumber":56,"Velocity":42,"Duration":243902,"SoundDuration":243902,"Delta":154547442},{"NoteNumber":84,"Velocity":79,"Duration":378361,"SoundDuration":378361,"Delta":154669394},{"NoteNumber":77,"Velocity":65,"Duration":128205,"SoundDuration":128205,"Delta":154791345},{"NoteNumber":72,"Velocity":42,"Duration":256410,"SoundDuration":256410,"Delta":154791345},{"NoteNumber":68,"Velocity":33,"Duration":256410,"SoundDuration":256410,"Delta":154791345},{"NoteNumber":65,"Velocity":33,"Duration":256410,"SoundDuration":256410,"Delta":154791345},{"NoteNumber":80,"Velocity":70,"Duration":128205,"SoundDuration":128205,"Delta":154919550},{"NoteNumber":89,"Velocity":90,"Duration":746991,"SoundDuration":746991,"Delta":155047755},{"NoteNumber":47,"Velocity":47,"Duration":246913,"SoundDuration":246913,"Delta":155047755},{"NoteNumber":75,"Velocity":67,"Duration":123456,"SoundDuration":123456,"Delta":155171212},{"NoteNumber":80,"Velocity":71,"Duration":123456,"SoundDuration":123456,"Delta":155294669},{"NoteNumber":65,"Velocity":30,"Duration":246913,"SoundDuration":246913,"Delta":155294669},{"NoteNumber":68,"Velocity":30,"Duration":246913,"SoundDuration":246913,"Delta":155294669},{"NoteNumber":71,"Velocity":35,"Duration":246913,"SoundDuration":246913,"Delta":155294669},{"NoteNumber":63,"Velocity":30,"Duration":246913,"SoundDuration":246913,"Delta":155294669},{"NoteNumber":83,"Velocity":83,"Duration":376621,"SoundDuration":376621,"Delta":155418126},{"NoteNumber":75,"Velocity":64,"Duration":126582,"SoundDuration":126582,"Delta":155541582},{"NoteNumber":53,"Velocity":43,"Duration":253164,"SoundDuration":253164,"Delta":155541582},{"NoteNumber":80,"Velocity":65,"Duration":126582,"SoundDuration":126582,"Delta":155668165},{"NoteNumber":89,"Velocity":81,"Duration":751804,"SoundDuration":751804,"Delta":155794747},{"NoteNumber":65,"Velocity":34,"Duration":244898,"SoundDuration":244898,"Delta":155794747},{"NoteNumber":68,"Velocity":34,"Duration":244898,"SoundDuration":244898,"Delta":155794747},{"NoteNumber":71,"Velocity":41,"Duration":244898,"SoundDuration":244898,"Delta":155794747},{"NoteNumber":63,"Velocity":34,"Duration":244898,"SoundDuration":244898,"Delta":155794747},{"NoteNumber":75,"Velocity":61,"Duration":122449,"SoundDuration":122449,"Delta":155917196},{"NoteNumber":80,"Velocity":61,"Duration":122448,"SoundDuration":122448,"Delta":156039645},{"NoteNumber":39,"Velocity":41,"Duration":244898,"SoundDuration":244898,"Delta":156039645},{"NoteNumber":83,"Velocity":80,"Duration":384457,"SoundDuration":384457,"Delta":156162094},{"NoteNumber":75,"Velocity":57,"Duration":131004,"SoundDuration":131004,"Delta":156284543},{"NoteNumber":65,"Velocity":34,"Duration":262008,"SoundDuration":262008,"Delta":156284543},{"NoteNumber":63,"Velocity":34,"Duration":262008,"SoundDuration":262008,"Delta":156284543},{"NoteNumber":71,"Velocity":41,"Duration":262008,"SoundDuration":262008,"Delta":156284543},{"NoteNumber":68,"Velocity":34,"Duration":262008,"SoundDuration":262008,"Delta":156284543},{"NoteNumber":80,"Velocity":57,"Duration":131004,"SoundDuration":131004,"Delta":156415547},{"NoteNumber":89,"Velocity":90,"Duration":367346,"SoundDuration":367346,"Delta":156546551},{"NoteNumber":46,"Velocity":47,"Duration":244898,"SoundDuration":244898,"Delta":156546551},{"NoteNumber":74,"Velocity":67,"Duration":122449,"SoundDuration":122449,"Delta":156669000},{"NoteNumber":82,"Velocity":71,"Duration":122448,"SoundDuration":122448,"Delta":156791449},{"NoteNumber":80,"Velocity":54,"Duration":122448,"SoundDuration":122448,"Delta":156791449},{"NoteNumber":65,"Velocity":30,"Duration":244898,"SoundDuration":244898,"Delta":156791449},{"NoteNumber":68,"Velocity":30,"Duration":244898,"SoundDuration":244898,"Delta":156791449},{"NoteNumber":70,"Velocity":35,"Duration":244898,"SoundDuration":244898,"Delta":156791449},{"NoteNumber":62,"Velocity":30,"Duration":244898,"SoundDuration":244898,"Delta":156791449},{"NoteNumber":89,"Velocity":84,"Duration":375613,"SoundDuration":375613,"Delta":156913898},{"NoteNumber":74,"Velocity":66,"Duration":126582,"SoundDuration":126582,"Delta":157036347},{"NoteNumber":46,"Velocity":44,"Duration":253164,"SoundDuration":253164,"Delta":157036347},{"NoteNumber":82,"Velocity":67,"Duration":126582,"SoundDuration":126582,"Delta":157162930},{"NoteNumber":80,"Velocity":54,"Duration":126582,"SoundDuration":126582,"Delta":157162930},{"NoteNumber":90,"Velocity":85,"Duration":390338,"SoundDuration":390338,"Delta":157289512},{"NoteNumber":66,"Velocity":35,"Duration":256410,"SoundDuration":256410,"Delta":157289512},{"NoteNumber":68,"Velocity":35,"Duration":256410,"SoundDuration":256410,"Delta":157289512},{"NoteNumber":70,"Velocity":43,"Duration":256410,"SoundDuration":256410,"Delta":157289512},{"NoteNumber":62,"Velocity":35,"Duration":256410,"SoundDuration":256410,"Delta":157289512},{"NoteNumber":74,"Velocity":63,"Duration":128205,"SoundDuration":128205,"Delta":157417717},{"NoteNumber":82,"Velocity":64,"Duration":133928,"SoundDuration":133928,"Delta":157545922},{"NoteNumber":80,"Velocity":54,"Duration":133928,"SoundDuration":133928,"Delta":157545922},{"NoteNumber":46,"Velocity":43,"Duration":267856,"SoundDuration":267856,"Delta":157545922},{"NoteNumber":90,"Velocity":85,"Duration":133928,"SoundDuration":133928,"Delta":157679851},{"NoteNumber":74,"Velocity":62,"Duration":142857,"SoundDuration":142857,"Delta":157813779},{"NoteNumber":66,"Velocity":36,"Duration":285714,"SoundDuration":285714,"Delta":157813779},{"NoteNumber":62,"Velocity":36,"Duration":285714,"SoundDuration":285714,"Delta":157813779},{"NoteNumber":70,"Velocity":44,"Duration":285714,"SoundDuration":285714,"Delta":157813779},{"NoteNumber":68,"Velocity":36,"Duration":285714,"SoundDuration":285714,"Delta":157813779},{"NoteNumber":82,"Velocity":62,"Duration":142857,"SoundDuration":142857,"Delta":157956637},{"NoteNumber":80,"Velocity":54,"Duration":142857,"SoundDuration":142857,"Delta":157956637},{"NoteNumber":79,"Velocity":75,"Duration":378151,"SoundDuration":378151,"Delta":158099494},{"NoteNumber":91,"Velocity":90,"Duration":126050,"SoundDuration":126050,"Delta":158099494},{"NoteNumber":51,"Velocity":47,"Duration":378151,"SoundDuration":378151,"Delta":158099494},{"NoteNumber":39,"Velocity":47,"Duration":378151,"SoundDuration":378151,"Delta":158099494},{"NoteNumber":82,"Velocity":59,"Duration":126050,"SoundDuration":126050,"Delta":158225544},{"NoteNumber":55,"Velocity":31,"Duration":378151,"SoundDuration":378151,"Delta":158288570},{"NoteNumber":58,"Velocity":31,"Duration":378151,"SoundDuration":378151,"Delta":158288570},{"NoteNumber":67,"Velocity":45,"Duration":378151,"SoundDuration":378151,"Delta":158288570},{"NoteNumber":87,"Velocity":59,"Duration":126050,"SoundDuration":126050,"Delta":158351595},{"NoteNumber":77,"Velocity":67,"Duration":378151,"SoundDuration":378151,"Delta":158477645},{"NoteNumber":89,"Velocity":81,"Duration":126050,"SoundDuration":126050,"Delta":158477645},{"NoteNumber":79,"Velocity":54,"Duration":126050,"SoundDuration":126050,"Delta":158603696},{"NoteNumber":55,"Velocity":43,"Duration":373501,"SoundDuration":373501,"Delta":158666721},{"NoteNumber":58,"Velocity":43,"Duration":373501,"SoundDuration":373501,"Delta":158666721},{"NoteNumber":65,"Velocity":63,"Duration":373501,"SoundDuration":373501,"Delta":158666721},{"NoteNumber":82,"Velocity":54,"Duration":126050,"SoundDuration":126050,"Delta":158729746},{"NoteNumber":75,"Velocity":66,"Duration":368852,"SoundDuration":368852,"Delta":158855797},{"NoteNumber":87,"Velocity":80,"Duration":122950,"SoundDuration":122950,"Delta":158855797},{"NoteNumber":79,"Velocity":53,"Duration":122950,"SoundDuration":122950,"Delta":158978748},{"NoteNumber":55,"Velocity":37,"Duration":371479,"SoundDuration":371479,"Delta":159040223},{"NoteNumber":58,"Velocity":37,"Duration":381094,"SoundDuration":381094,"Delta":159040223},{"NoteNumber":63,"Velocity":54,"Duration":371479,"SoundDuration":371479,"Delta":159040223},{"NoteNumber":82,"Velocity":54,"Duration":122950,"SoundDuration":122950,"Delta":159101698},{"NoteNumber":74,"Velocity":67,"Duration":379361,"SoundDuration":379361,"Delta":159224649},{"NoteNumber":86,"Velocity":81,"Duration":122950,"SoundDuration":122950,"Delta":159224649},{"NoteNumber":79,"Velocity":54,"Duration":128205,"SoundDuration":128205,"Delta":159347600},{"NoteNumber":55,"Velocity":37,"Duration":192307,"SoundDuration":192307,"Delta":159411702},{"NoteNumber":58,"Velocity":37,"Duration":192307,"SoundDuration":192307,"Delta":159411702},{"NoteNumber":62,"Velocity":54,"Duration":192307,"SoundDuration":192307,"Delta":159411702},{"NoteNumber":82,"Velocity":54,"Duration":128205,"SoundDuration":128205,"Delta":159475805},{"NoteNumber":72,"Velocity":66,"Duration":370370,"SoundDuration":370370,"Delta":159604010},{"NoteNumber":84,"Velocity":84,"Duration":123456,"SoundDuration":123456,"Delta":159604010},{"NoteNumber":39,"Velocity":47,"Duration":370370,"SoundDuration":370370,"Delta":159604010},{"NoteNumber":51,"Velocity":47,"Duration":370370,"SoundDuration":370370,"Delta":159604010},{"NoteNumber":75,"Velocity":59,"Duration":123456,"SoundDuration":123456,"Delta":159727467},{"NoteNumber":51,"Velocity":34,"Duration":371933,"SoundDuration":371933,"Delta":159789195},{"NoteNumber":55,"Velocity":34,"Duration":371933,"SoundDuration":371933,"Delta":159789195},{"NoteNumber":60,"Velocity":45,"Duration":371933,"SoundDuration":371933,"Delta":159789195},{"NoteNumber":79,"Velocity":59,"Duration":123456,"SoundDuration":123456,"Delta":159850924},{"NoteNumber":69,"Velocity":66,"Duration":376621,"SoundDuration":376621,"Delta":159974381},{"NoteNumber":81,"Velocity":79,"Duration":123456,"SoundDuration":123456,"Delta":159974381},{"NoteNumber":75,"Velocity":53,"Duration":126582,"SoundDuration":126582,"Delta":160097837},{"NoteNumber":51,"Velocity":39,"Duration":375058,"SoundDuration":375058,"Delta":160161128},{"NoteNumber":55,"Velocity":39,"Duration":375058,"SoundDuration":375058,"Delta":160161128},{"NoteNumber":57,"Velocity":54,"Duration":375058,"SoundDuration":375058,"Delta":160161128},{"NoteNumber":79,"Velocity":53,"Duration":126582,"SoundDuration":126582,"Delta":160224420},{"NoteNumber":70,"Velocity":70,"Duration":369864,"SoundDuration":369864,"Delta":160351002},{"NoteNumber":82,"Velocity":82,"Duration":123456,"SoundDuration":123456,"Delta":160351002},{"NoteNumber":75,"Velocity":56,"Duration":123456,"SoundDuration":123456,"Delta":160474459},{"NoteNumber":51,"Velocity":39,"Duration":373131,"SoundDuration":373131,"Delta":160536187},{"NoteNumber":55,"Velocity":39,"Duration":373131,"SoundDuration":373131,"Delta":160536187},{"NoteNumber":58,"Velocity":54,"Duration":373131,"SoundDuration":373131,"Delta":160536187},{"NoteNumber":79,"Velocity":56,"Duration":122950,"SoundDuration":122950,"Delta":160597915},{"NoteNumber":79,"Velocity":73,"Duration":122950,"SoundDuration":122950,"Delta":160720866},{"NoteNumber":91,"Velocity":87,"Duration":384959,"SoundDuration":384959,"Delta":160720866},{"NoteNumber":82,"Velocity":53,"Duration":131004,"SoundDuration":131004,"Delta":160843817},{"NoteNumber":55,"Velocity":43,"Duration":196506,"SoundDuration":196506,"Delta":160909319},{"NoteNumber":58,"Velocity":43,"Duration":196506,"SoundDuration":196506,"Delta":160909319},{"NoteNumber":63,"Velocity":43,"Duration":196506,"SoundDuration":196506,"Delta":160909319},{"NoteNumber":67,"Velocity":54,"Duration":196506,"SoundDuration":196506,"Delta":160909319},{"NoteNumber":87,"Velocity":53,"Duration":131004,"SoundDuration":131004,"Delta":160974821},{"NoteNumber":79,"Velocity":73,"Duration":123966,"SoundDuration":123966,"Delta":161105825},{"NoteNumber":91,"Velocity":87,"Duration":371901,"SoundDuration":371901,"Delta":161105825},{"NoteNumber":51,"Velocity":47,"Duration":371901,"SoundDuration":371901,"Delta":161105825},{"NoteNumber":39,"Velocity":47,"Duration":371901,"SoundDuration":371901,"Delta":161105825},{"NoteNumber":83,"Velocity":59,"Duration":123966,"SoundDuration":123966,"Delta":161229792},{"NoteNumber":62,"Velocity":31,"Duration":370158,"SoundDuration":370158,"Delta":161291776},{"NoteNumber":56,"Velocity":31,"Duration":370158,"SoundDuration":370158,"Delta":161291776},{"NoteNumber":59,"Velocity":31,"Duration":370158,"SoundDuration":370158,"Delta":161291776},{"NoteNumber":67,"Velocity":45,"Duration":370158,"SoundDuration":370158,"Delta":161291776},{"NoteNumber":86,"Velocity":59,"Duration":123967,"SoundDuration":123967,"Delta":161353759},{"NoteNumber":76,"Velocity":69,"Duration":123966,"SoundDuration":123966,"Delta":161477726},{"NoteNumber":88,"Velocity":81,"Duration":364930,"SoundDuration":364930,"Delta":161477726},{"NoteNumber":83,"Velocity":55,"Duration":120482,"SoundDuration":120482,"Delta":161601693},{"NoteNumber":62,"Velocity":43,"Duration":361446,"SoundDuration":361446,"Delta":161661934},{"NoteNumber":56,"Velocity":43,"Duration":361446,"SoundDuration":361446,"Delta":161661934},{"NoteNumber":59,"Velocity":43,"Duration":361446,"SoundDuration":361446,"Delta":161661934},{"NoteNumber":64,"Velocity":63,"Duration":361446,"SoundDuration":361446,"Delta":161661934},{"NoteNumber":86,"Velocity":55,"Duration":120481,"SoundDuration":120481,"Delta":161722175},{"NoteNumber":77,"Velocity":75,"Duration":120482,"SoundDuration":120482,"Delta":161842657},{"NoteNumber":89,"Velocity":90,"Duration":361446,"SoundDuration":361446,"Delta":161842657},{"NoteNumber":83,"Velocity":55,"Duration":120482,"SoundDuration":120482,"Delta":161963139},{"NoteNumber":62,"Velocity":37,"Duration":366140,"SoundDuration":366140,"Delta":162023380},{"NoteNumber":56,"Velocity":37,"Duration":366140,"SoundDuration":366140,"Delta":162023380},{"NoteNumber":59,"Velocity":37,"Duration":375880,"SoundDuration":375880,"Delta":162023380},{"NoteNumber":65,"Velocity":54,"Duration":366140,"SoundDuration":366140,"Delta":162023380},{"NoteNumber":86,"Velocity":55,"Duration":120481,"SoundDuration":120481,"Delta":162083621},{"NoteNumber":79,"Velocity":80,"Duration":120482,"SoundDuration":120482,"Delta":162204103},{"NoteNumber":91,"Velocity":94,"Duration":380222,"SoundDuration":380222,"Delta":162204103},{"NoteNumber":83,"Velocity":61,"Duration":129870,"SoundDuration":129870,"Delta":162324585},{"NoteNumber":62,"Velocity":37,"Duration":194805,"SoundDuration":194805,"Delta":162389520},{"NoteNumber":56,"Velocity":37,"Duration":194805,"SoundDuration":194805,"Delta":162389520},{"NoteNumber":59,"Velocity":37,"Duration":194805,"SoundDuration":194805,"Delta":162389520},{"NoteNumber":67,"Velocity":54,"Duration":194805,"SoundDuration":194805,"Delta":162389520},{"NoteNumber":86,"Velocity":63,"Duration":129870,"SoundDuration":129870,"Delta":162454456},{"NoteNumber":80,"Velocity":81,"Duration":120482,"SoundDuration":120482,"Delta":162584326},{"NoteNumber":92,"Velocity":96,"Duration":367014,"SoundDuration":367014,"Delta":162584326},{"NoteNumber":39,"Velocity":47,"Duration":367014,"SoundDuration":367014,"Delta":162584326},{"NoteNumber":51,"Velocity":47,"Duration":367014,"SoundDuration":367014,"Delta":162584326},{"NoteNumber":86,"Velocity":69,"Duration":120481,"SoundDuration":120481,"Delta":162704808},{"NoteNumber":59,"Velocity":34,"Duration":386233,"SoundDuration":386233,"Delta":162765049},{"NoteNumber":62,"Velocity":34,"Duration":386233,"SoundDuration":386233,"Delta":162765049},{"NoteNumber":65,"Velocity":34,"Duration":386233,"SoundDuration":386233,"Delta":162765049},{"NoteNumber":68,"Velocity":45,"Duration":386233,"SoundDuration":386233,"Delta":162765049},{"NoteNumber":89,"Velocity":69,"Duration":126050,"SoundDuration":126050,"Delta":162825290},{"NoteNumber":81,"Velocity":82,"Duration":126050,"SoundDuration":126050,"Delta":162951340},{"NoteNumber":93,"Velocity":94,"Duration":421617,"SoundDuration":421617,"Delta":162951340},{"NoteNumber":86,"Velocity":67,"Duration":147783,"SoundDuration":147783,"Delta":163077391},{"NoteNumber":59,"Velocity":39,"Duration":416480,"SoundDuration":416480,"Delta":163151282},{"NoteNumber":62,"Velocity":39,"Duration":416480,"SoundDuration":416480,"Delta":163151282},{"NoteNumber":65,"Velocity":39,"Duration":416480,"SoundDuration":416480,"Delta":163151282},{"NoteNumber":69,"Velocity":54,"Duration":416480,"SoundDuration":416480,"Delta":163151282},{"NoteNumber":89,"Velocity":75,"Duration":147783,"SoundDuration":147783,"Delta":163225174},{"NoteNumber":84,"Velocity":89,"Duration":129870,"SoundDuration":129870,"Delta":163372957},{"NoteNumber":96,"Velocity":99,"Duration":382691,"SoundDuration":382691,"Delta":163372957},{"NoteNumber":86,"Velocity":72,"Duration":129870,"SoundDuration":129870,"Delta":163502828},{"NoteNumber":58,"Velocity":39,"Duration":374666,"SoundDuration":374666,"Delta":163567763},{"NoteNumber":62,"Velocity":39,"Duration":374666,"SoundDuration":374666,"Delta":163567763},{"NoteNumber":65,"Velocity":39,"Duration":374666,"SoundDuration":374666,"Delta":163567763},{"NoteNumber":68,"Velocity":39,"Duration":374666,"SoundDuration":374666,"Delta":163567763},{"NoteNumber":72,"Velocity":54,"Duration":374666,"SoundDuration":374666,"Delta":163567763},{"NoteNumber":89,"Velocity":69,"Duration":122950,"SoundDuration":122950,"Delta":163632698},{"NoteNumber":82,"Velocity":76,"Duration":122950,"SoundDuration":122950,"Delta":163755649},{"NoteNumber":94,"Velocity":90,"Duration":378269,"SoundDuration":378269,"Delta":163755649},{"NoteNumber":86,"Velocity":56,"Duration":127659,"SoundDuration":127659,"Delta":163878599},{"NoteNumber":62,"Velocity":43,"Duration":191489,"SoundDuration":191489,"Delta":163942429},{"NoteNumber":58,"Velocity":43,"Duration":191489,"SoundDuration":191489,"Delta":163942429},{"NoteNumber":65,"Velocity":43,"Duration":191489,"SoundDuration":191489,"Delta":163942429},{"NoteNumber":68,"Velocity":43,"Duration":191489,"SoundDuration":191489,"Delta":163942429},{"NoteNumber":70,"Velocity":54,"Duration":191489,"SoundDuration":191489,"Delta":163942429},{"NoteNumber":89,"Velocity":56,"Duration":127659,"SoundDuration":127659,"Delta":164006259},{"NoteNumber":79,"Velocity":75,"Duration":371901,"SoundDuration":371901,"Delta":164133918},{"NoteNumber":91,"Velocity":90,"Duration":123966,"SoundDuration":123966,"Delta":164133918},{"NoteNumber":51,"Velocity":47,"Duration":371901,"SoundDuration":371901,"Delta":164133918},{"NoteNumber":39,"Velocity":47,"Duration":371901,"SoundDuration":371901,"Delta":164133918},{"NoteNumber":82,"Velocity":59,"Duration":123966,"SoundDuration":123966,"Delta":164257885},{"NoteNumber":55,"Velocity":31,"Duration":371901,"SoundDuration":371901,"Delta":164319869},{"NoteNumber":58,"Velocity":31,"Duration":371901,"SoundDuration":371901,"Delta":164319869},{"NoteNumber":67,"Velocity":45,"Duration":371901,"SoundDuration":371901,"Delta":164319869},{"NoteNumber":87,"Velocity":59,"Duration":123967,"SoundDuration":123967,"Delta":164381852},{"NoteNumber":77,"Velocity":67,"Duration":371900,"SoundDuration":371900,"Delta":164505819},{"NoteNumber":89,"Velocity":81,"Duration":123966,"SoundDuration":123966,"Delta":164505819},{"NoteNumber":79,"Velocity":54,"Duration":123966,"SoundDuration":123966,"Delta":164629786},{"NoteNumber":55,"Velocity":43,"Duration":368877,"SoundDuration":368877,"Delta":164691770},{"NoteNumber":58,"Velocity":43,"Duration":368877,"SoundDuration":368877,"Delta":164691770},{"NoteNumber":65,"Velocity":63,"Duration":368877,"SoundDuration":368877,"Delta":164691770},{"NoteNumber":82,"Velocity":54,"Duration":123966,"SoundDuration":123966,"Delta":164753753},{"NoteNumber":75,"Velocity":66,"Duration":364384,"SoundDuration":364384,"Delta":164877720},{"NoteNumber":87,"Velocity":80,"Duration":121951,"SoundDuration":121951,"Delta":164877720},{"NoteNumber":79,"Velocity":53,"Duration":121951,"SoundDuration":121951,"Delta":164999672},{"NoteNumber":55,"Velocity":37,"Duration":366042,"SoundDuration":366042,"Delta":165060647},{"NoteNumber":58,"Velocity":37,"Duration":375657,"SoundDuration":375657,"Delta":165060647},{"NoteNumber":63,"Velocity":54,"Duration":366042,"SoundDuration":366042,"Delta":165060647},{"NoteNumber":82,"Velocity":54,"Duration":120482,"SoundDuration":120482,"Delta":165121623},{"NoteNumber":74,"Velocity":67,"Duration":376892,"SoundDuration":376892,"Delta":165242105},{"NoteNumber":86,"Velocity":81,"Duration":120481,"SoundDuration":120481,"Delta":165242105},{"NoteNumber":79,"Velocity":54,"Duration":128205,"SoundDuration":128205,"Delta":165362587},{"NoteNumber":55,"Velocity":37,"Duration":192307,"SoundDuration":192307,"Delta":165426689},{"NoteNumber":58,"Velocity":37,"Duration":192307,"SoundDuration":192307,"Delta":165426689},{"NoteNumber":62,"Velocity":54,"Duration":192307,"SoundDuration":192307,"Delta":165426689},{"NoteNumber":82,"Velocity":54,"Duration":128205,"SoundDuration":128205,"Delta":165490792},{"NoteNumber":72,"Velocity":66,"Duration":370370,"SoundDuration":370370,"Delta":165618997},{"NoteNumber":84,"Velocity":84,"Duration":123456,"SoundDuration":123456,"Delta":165618997},{"NoteNumber":39,"Velocity":47,"Duration":370370,"SoundDuration":370370,"Delta":165618997},{"NoteNumber":51,"Velocity":47,"Duration":370370,"SoundDuration":370370,"Delta":165618997},{"NoteNumber":75,"Velocity":59,"Duration":123456,"SoundDuration":123456,"Delta":165742454},{"NoteNumber":51,"Velocity":34,"Duration":371933,"SoundDuration":371933,"Delta":165804182},{"NoteNumber":55,"Velocity":34,"Duration":371933,"SoundDuration":371933,"Delta":165804182},{"NoteNumber":60,"Velocity":45,"Duration":371933,"SoundDuration":371933,"Delta":165804182},{"NoteNumber":79,"Velocity":59,"Duration":123456,"SoundDuration":123456,"Delta":165865911},{"NoteNumber":69,"Velocity":66,"Duration":376621,"SoundDuration":376621,"Delta":165989368},{"NoteNumber":81,"Velocity":79,"Duration":123456,"SoundDuration":123456,"Delta":165989368},{"NoteNumber":75,"Velocity":53,"Duration":126582,"SoundDuration":126582,"Delta":166112824},{"NoteNumber":51,"Velocity":39,"Duration":373546,"SoundDuration":373546,"Delta":166176115},{"NoteNumber":55,"Velocity":39,"Duration":373546,"SoundDuration":373546,"Delta":166176115},{"NoteNumber":57,"Velocity":54,"Duration":373546,"SoundDuration":373546,"Delta":166176115},{"NoteNumber":79,"Velocity":53,"Duration":126582,"SoundDuration":126582,"Delta":166239407},{"NoteNumber":70,"Velocity":70,"Duration":367346,"SoundDuration":367346,"Delta":166365989},{"NoteNumber":82,"Velocity":82,"Duration":122448,"SoundDuration":122448,"Delta":166365989},{"NoteNumber":75,"Velocity":56,"Duration":122449,"SoundDuration":122449,"Delta":166488438},{"NoteNumber":51,"Velocity":39,"Duration":371624,"SoundDuration":371624,"Delta":166549662},{"NoteNumber":55,"Velocity":39,"Duration":371624,"SoundDuration":371624,"Delta":166549662},{"NoteNumber":58,"Velocity":54,"Duration":371624,"SoundDuration":371624,"Delta":166549662},{"NoteNumber":79,"Velocity":56,"Duration":122448,"SoundDuration":122448,"Delta":166610887},{"NoteNumber":79,"Velocity":73,"Duration":122449,"SoundDuration":122449,"Delta":166733336},{"NoteNumber":91,"Velocity":87,"Duration":122449,"SoundDuration":122449,"Delta":166733336},{"NoteNumber":82,"Velocity":53,"Duration":131004,"SoundDuration":131004,"Delta":166855785},{"NoteNumber":55,"Velocity":43,"Duration":196506,"SoundDuration":196506,"Delta":166921287},{"NoteNumber":58,"Velocity":43,"Duration":196506,"SoundDuration":196506,"Delta":166921287},{"NoteNumber":63,"Velocity":43,"Duration":196506,"SoundDuration":196506,"Delta":166921287},{"NoteNumber":67,"Velocity":54,"Duration":196506,"SoundDuration":196506,"Delta":166921287},{"NoteNumber":87,"Velocity":53,"Duration":131004,"SoundDuration":131004,"Delta":166986789},{"NoteNumber":79,"Velocity":73,"Duration":123966,"SoundDuration":123966,"Delta":167117793},{"NoteNumber":91,"Velocity":87,"Duration":371901,"SoundDuration":371901,"Delta":167117793},{"NoteNumber":50,"Velocity":47,"Duration":371901,"SoundDuration":371901,"Delta":167117793},{"NoteNumber":38,"Velocity":47,"Duration":371901,"SoundDuration":371901,"Delta":167117793},{"NoteNumber":81,"Velocity":59,"Duration":123966,"SoundDuration":123966,"Delta":167241760},{"NoteNumber":57,"Velocity":31,"Duration":378724,"SoundDuration":378724,"Delta":167303744},{"NoteNumber":60,"Velocity":31,"Duration":378724,"SoundDuration":378724,"Delta":167303744},{"NoteNumber":67,"Velocity":45,"Duration":378724,"SoundDuration":378724,"Delta":167303744},{"NoteNumber":84,"Velocity":59,"Duration":123967,"SoundDuration":123967,"Delta":167365727},{"NoteNumber":78,"Velocity":69,"Duration":123966,"SoundDuration":123966,"Delta":167489694},{"NoteNumber":90,"Velocity":81,"Duration":399196,"SoundDuration":399196,"Delta":167489694},{"NoteNumber":81,"Velocity":63,"Duration":137614,"SoundDuration":137614,"Delta":167613661},{"NoteNumber":57,"Velocity":43,"Duration":389348,"SoundDuration":389348,"Delta":167682469},{"NoteNumber":60,"Velocity":43,"Duration":389348,"SoundDuration":389348,"Delta":167682469},{"NoteNumber":66,"Velocity":63,"Duration":389348,"SoundDuration":389348,"Delta":167682469},{"NoteNumber":84,"Velocity":64,"Duration":137614,"SoundDuration":137614,"Delta":167751276},{"NoteNumber":87,"Velocity":89,"Duration":121951,"SoundDuration":121951,"Delta":167888891},{"NoteNumber":99,"Velocity":100,"Duration":365853,"SoundDuration":365853,"Delta":167888891},{"NoteNumber":90,"Velocity":67,"Duration":121951,"SoundDuration":121951,"Delta":168010842},{"NoteNumber":66,"Velocity":37,"Duration":369813,"SoundDuration":369813,"Delta":168071818},{"NoteNumber":69,"Velocity":37,"Duration":379553,"SoundDuration":379553,"Delta":168071818},{"NoteNumber":75,"Velocity":54,"Duration":369813,"SoundDuration":369813,"Delta":168071818},{"NoteNumber":93,"Velocity":67,"Duration":121951,"SoundDuration":121951,"Delta":168132793},{"NoteNumber":86,"Velocity":82,"Duration":121951,"SoundDuration":121951,"Delta":168254745},{"NoteNumber":98,"Velocity":96,"Duration":381691,"SoundDuration":381691,"Delta":168254745},{"NoteNumber":90,"Velocity":67,"Duration":129870,"SoundDuration":129870,"Delta":168376696},{"NoteNumber":66,"Velocity":37,"Duration":194805,"SoundDuration":194805,"Delta":168441631},{"NoteNumber":69,"Velocity":37,"Duration":194805,"SoundDuration":194805,"Delta":168441631},{"NoteNumber":74,"Velocity":54,"Duration":194805,"SoundDuration":194805,"Delta":168441631},{"NoteNumber":93,"Velocity":67,"Duration":129870,"SoundDuration":129870,"Delta":168506566},{"NoteNumber":86,"Velocity":81,"Duration":121457,"SoundDuration":121457,"Delta":168636436},{"NoteNumber":98,"Velocity":95,"Duration":368965,"SoundDuration":368965,"Delta":168636436},{"NoteNumber":43,"Velocity":47,"Duration":368965,"SoundDuration":368965,"Delta":168636436},{"NoteNumber":55,"Velocity":47,"Duration":368965,"SoundDuration":368965,"Delta":168636436},{"NoteNumber":91,"Velocity":69,"Duration":121457,"SoundDuration":121457,"Delta":168757894},{"NoteNumber":67,"Velocity":34,"Duration":376932,"SoundDuration":376932,"Delta":168818623},{"NoteNumber":71,"Velocity":34,"Duration":376932,"SoundDuration":376932,"Delta":168818623},{"NoteNumber":74,"Velocity":45,"Duration":376932,"SoundDuration":376932,"Delta":168818623},{"NoteNumber":95,"Velocity":69,"Duration":126050,"SoundDuration":126050,"Delta":168879351},{"NoteNumber":83,"Velocity":79,"Duration":126050,"SoundDuration":126050,"Delta":169005402},{"NoteNumber":95,"Velocity":91,"Duration":382461,"SoundDuration":382461,"Delta":169005402},{"NoteNumber":86,"Velocity":67,"Duration":128205,"SoundDuration":128205,"Delta":169131452},{"NoteNumber":62,"Velocity":39,"Duration":387113,"SoundDuration":387113,"Delta":169195555},{"NoteNumber":67,"Velocity":39,"Duration":387113,"SoundDuration":387113,"Delta":169195555},{"NoteNumber":71,"Velocity":54,"Duration":387113,"SoundDuration":387113,"Delta":169195555},{"NoteNumber":91,"Velocity":65,"Duration":128205,"SoundDuration":128205,"Delta":169259658},{"NoteNumber":79,"Velocity":70,"Duration":129870,"SoundDuration":129870,"Delta":169387863},{"NoteNumber":91,"Velocity":83,"Duration":382691,"SoundDuration":382691,"Delta":169387863},{"NoteNumber":83,"Velocity":63,"Duration":129870,"SoundDuration":129870,"Delta":169517733},{"NoteNumber":59,"Velocity":37,"Duration":374666,"SoundDuration":374666,"Delta":169582668},{"NoteNumber":62,"Velocity":37,"Duration":374666,"SoundDuration":374666,"Delta":169582668},{"NoteNumber":67,"Velocity":51,"Duration":374666,"SoundDuration":374666,"Delta":169582668},{"NoteNumber":86,"Velocity":63,"Duration":122950,"SoundDuration":122950,"Delta":169647603},{"NoteNumber":79,"Velocity":64,"Duration":122950,"SoundDuration":122950,"Delta":169770554},{"NoteNumber":91,"Velocity":90,"Duration":378269,"SoundDuration":378269,"Delta":169770554},{"NoteNumber":83,"Velocity":58,"Duration":127659,"SoundDuration":127659,"Delta":169893505},{"NoteNumber":55,"Velocity":41,"Duration":191489,"SoundDuration":191489,"Delta":169957335},{"NoteNumber":59,"Velocity":41,"Duration":191489,"SoundDuration":191489,"Delta":169957335},{"NoteNumber":62,"Velocity":41,"Duration":191489,"SoundDuration":191489,"Delta":169957335},{"NoteNumber":67,"Velocity":52,"Duration":191489,"SoundDuration":191489,"Delta":169957335},{"NoteNumber":86,"Velocity":59,"Duration":127659,"SoundDuration":127659,"Delta":170021164},{"NoteNumber":80,"Velocity":74,"Duration":121457,"SoundDuration":121457,"Delta":170148824},{"NoteNumber":92,"Velocity":88,"Duration":366882,"SoundDuration":366882,"Delta":170148824},{"NoteNumber":43,"Velocity":44,"Duration":366882,"SoundDuration":366882,"Delta":170148824},{"NoteNumber":84,"Velocity":63,"Duration":121457,"SoundDuration":121457,"Delta":170270281},{"NoteNumber":60,"Velocity":31,"Duration":372765,"SoundDuration":372765,"Delta":170331010},{"NoteNumber":63,"Velocity":31,"Duration":372765,"SoundDuration":372765,"Delta":170331010},{"NoteNumber":68,"Velocity":42,"Duration":372765,"SoundDuration":372765,"Delta":170331010},{"NoteNumber":87,"Velocity":63,"Duration":123966,"SoundDuration":123966,"Delta":170391739},{"NoteNumber":79,"Velocity":72,"Duration":123966,"SoundDuration":123966,"Delta":170515706},{"NoteNumber":91,"Velocity":85,"Duration":380377,"SoundDuration":380377,"Delta":170515706},{"NoteNumber":84,"Velocity":62,"Duration":128205,"SoundDuration":128205,"Delta":170639673},{"NoteNumber":60,"Velocity":36,"Duration":387113,"SoundDuration":387113,"Delta":170703775},{"NoteNumber":63,"Velocity":36,"Duration":387113,"SoundDuration":387113,"Delta":170703775},{"NoteNumber":67,"Velocity":49,"Duration":387113,"SoundDuration":387113,"Delta":170703775},{"NoteNumber":87,"Velocity":60,"Duration":128205,"SoundDuration":128205,"Delta":170767878},{"NoteNumber":77,"Velocity":67,"Duration":129870,"SoundDuration":129870,"Delta":170896083},{"NoteNumber":89,"Velocity":80,"Duration":382691,"SoundDuration":382691,"Delta":170896083},{"NoteNumber":79,"Velocity":60,"Duration":129870,"SoundDuration":129870,"Delta":171025954},{"NoteNumber":55,"Velocity":36,"Duration":374666,"SoundDuration":374666,"Delta":171090889},{"NoteNumber":60,"Velocity":36,"Duration":374666,"SoundDuration":374666,"Delta":171090889},{"NoteNumber":65,"Velocity":49,"Duration":374666,"SoundDuration":374666,"Delta":171090889},{"NoteNumber":84,"Velocity":58,"Duration":122950,"SoundDuration":122950,"Delta":171155824},{"NoteNumber":75,"Velocity":59,"Duration":122950,"SoundDuration":122950,"Delta":171278775},{"NoteNumber":87,"Velocity":82,"Duration":378269,"SoundDuration":378269,"Delta":171278775},{"NoteNumber":79,"Velocity":52,"Duration":127659,"SoundDuration":127659,"Delta":171401725},{"NoteNumber":55,"Velocity":39,"Duration":191489,"SoundDuration":191489,"Delta":171465555},{"NoteNumber":60,"Velocity":39,"Duration":191489,"SoundDuration":191489,"Delta":171465555},{"NoteNumber":63,"Velocity":50,"Duration":191489,"SoundDuration":191489,"Delta":171465555},{"NoteNumber":84,"Velocity":52,"Duration":127659,"SoundDuration":127659,"Delta":171529385},{"NoteNumber":75,"Velocity":66,"Duration":121457,"SoundDuration":121457,"Delta":171657044},{"NoteNumber":87,"Velocity":79,"Duration":368965,"SoundDuration":368965,"Delta":171657044},{"NoteNumber":41,"Velocity":39,"Duration":368965,"SoundDuration":368965,"Delta":171657044},{"NoteNumber":80,"Velocity":56,"Duration":121457,"SoundDuration":121457,"Delta":171778502},{"NoteNumber":53,"Velocity":27,"Duration":376932,"SoundDuration":376932,"Delta":171839231},{"NoteNumber":56,"Velocity":27,"Duration":376932,"SoundDuration":376932,"Delta":171839231},{"NoteNumber":60,"Velocity":27,"Duration":376932,"SoundDuration":376932,"Delta":171839231},{"NoteNumber":63,"Velocity":37,"Duration":376932,"SoundDuration":376932,"Delta":171839231},{"NoteNumber":84,"Velocity":56,"Duration":126050,"SoundDuration":126050,"Delta":171899959},{"NoteNumber":74,"Velocity":64,"Duration":126050,"SoundDuration":126050,"Delta":172026010},{"NoteNumber":86,"Velocity":76,"Duration":382461,"SoundDuration":382461,"Delta":172026010},{"NoteNumber":80,"Velocity":55,"Duration":128205,"SoundDuration":128205,"Delta":172152060},{"NoteNumber":60,"Velocity":32,"Duration":387113,"SoundDuration":387113,"Delta":172216163},{"NoteNumber":53,"Velocity":32,"Duration":387113,"SoundDuration":387113,"Delta":172216163},{"NoteNumber":56,"Velocity":32,"Duration":387113,"SoundDuration":387113,"Delta":172216163},{"NoteNumber":62,"Velocity":44,"Duration":387113,"SoundDuration":387113,"Delta":172216163},{"NoteNumber":84,"Velocity":54,"Duration":128205,"SoundDuration":128205,"Delta":172280266},{"NoteNumber":74,"Velocity":60,"Duration":129870,"SoundDuration":129870,"Delta":172408471},{"NoteNumber":86,"Velocity":72,"Duration":382691,"SoundDuration":382691,"Delta":172408471},{"NoteNumber":80,"Velocity":54,"Duration":129870,"SoundDuration":129870,"Delta":172538341},{"NoteNumber":56,"Velocity":32,"Duration":374666,"SoundDuration":374666,"Delta":172603276},{"NoteNumber":60,"Velocity":32,"Duration":374666,"SoundDuration":374666,"Delta":172603276},{"NoteNumber":62,"Velocity":44,"Duration":374666,"SoundDuration":374666,"Delta":172603276},{"NoteNumber":84,"Velocity":52,"Duration":122950,"SoundDuration":122950,"Delta":172668211},{"NoteNumber":74,"Velocity":53,"Duration":122950,"SoundDuration":122950,"Delta":172791162},{"NoteNumber":86,"Velocity":73,"Duration":378269,"SoundDuration":378269,"Delta":172791162},{"NoteNumber":80,"Velocity":46,"Duration":127659,"SoundDuration":127659,"Delta":172914113},{"NoteNumber":56,"Velocity":35,"Duration":191489,"SoundDuration":191489,"Delta":172977943},{"NoteNumber":53,"Velocity":35,"Duration":191489,"SoundDuration":191489,"Delta":172977943},{"NoteNumber":60,"Velocity":35,"Duration":191489,"SoundDuration":191489,"Delta":172977943},{"NoteNumber":62,"Velocity":45,"Duration":191489,"SoundDuration":191489,"Delta":172977943},{"NoteNumber":84,"Velocity":46,"Duration":127659,"SoundDuration":127659,"Delta":173041772},{"NoteNumber":75,"Velocity":59,"Duration":121457,"SoundDuration":121457,"Delta":173169432},{"NoteNumber":87,"Velocity":71,"Duration":368965,"SoundDuration":368965,"Delta":173169432},{"NoteNumber":43,"Velocity":35,"Duration":368965,"SoundDuration":368965,"Delta":173169432},{"NoteNumber":79,"Velocity":50,"Duration":121457,"SoundDuration":121457,"Delta":173290889},{"NoteNumber":55,"Velocity":24,"Duration":376932,"SoundDuration":376932,"Delta":173351618},{"NoteNumber":59,"Velocity":24,"Duration":376932,"SoundDuration":376932,"Delta":173351618},{"NoteNumber":63,"Velocity":33,"Duration":376932,"SoundDuration":376932,"Delta":173351618},{"NoteNumber":83,"Velocity":50,"Duration":126050,"SoundDuration":126050,"Delta":173412347},{"NoteNumber":74,"Velocity":57,"Duration":126050,"SoundDuration":126050,"Delta":173538397},{"NoteNumber":86,"Velocity":68,"Duration":382461,"SoundDuration":382461,"Delta":173538397},{"NoteNumber":79,"Velocity":49,"Duration":128205,"SoundDuration":128205,"Delta":173664448},{"NoteNumber":59,"Velocity":28,"Duration":388814,"SoundDuration":388814,"Delta":173728550},{"NoteNumber":55,"Velocity":28,"Duration":388814,"SoundDuration":388814,"Delta":173728550},{"NoteNumber":62,"Velocity":39,"Duration":388814,"SoundDuration":388814,"Delta":173728550},{"NoteNumber":83,"Velocity":48,"Duration":128205,"SoundDuration":128205,"Delta":173792653},{"NoteNumber":72,"Velocity":54,"Duration":131004,"SoundDuration":131004,"Delta":173920858},{"NoteNumber":84,"Velocity":64,"Duration":384959,"SoundDuration":384959,"Delta":173920858},{"NoteNumber":74,"Velocity":48,"Duration":131004,"SoundDuration":131004,"Delta":174051863},{"NoteNumber":50,"Velocity":28,"Duration":375233,"SoundDuration":375233,"Delta":174117365},{"NoteNumber":55,"Velocity":28,"Duration":375233,"SoundDuration":375233,"Delta":174117365},{"NoteNumber":60,"Velocity":39,"Duration":375233,"SoundDuration":375233,"Delta":174117365},{"NoteNumber":79,"Velocity":46,"Duration":122950,"SoundDuration":122950,"Delta":174182867},{"NoteNumber":71,"Velocity":47,"Duration":122950,"SoundDuration":122950,"Delta":174305818},{"NoteNumber":83,"Velocity":65,"Duration":378269,"SoundDuration":378269,"Delta":174305818},{"NoteNumber":74,"Velocity":41,"Duration":127659,"SoundDuration":127659,"Delta":174428768},{"NoteNumber":55,"Velocity":31,"Duration":191489,"SoundDuration":191489,"Delta":174492598},{"NoteNumber":50,"Velocity":31,"Duration":191489,"SoundDuration":191489,"Delta":174492598},{"NoteNumber":59,"Velocity":40,"Duration":191489,"SoundDuration":191489,"Delta":174492598},{"NoteNumber":79,"Velocity":41,"Duration":127659,"SoundDuration":127659,"Delta":174556428},{"NoteNumber":68,"Velocity":55,"Duration":121457,"SoundDuration":121457,"Delta":174684087},{"NoteNumber":80,"Velocity":67,"Duration":368965,"SoundDuration":368965,"Delta":174684087},{"NoteNumber":71,"Velocity":47,"Duration":121457,"SoundDuration":121457,"Delta":174805545},{"NoteNumber":47,"Velocity":22,"Duration":376932,"SoundDuration":376932,"Delta":174866274},{"NoteNumber":50,"Velocity":22,"Duration":376932,"SoundDuration":376932,"Delta":174866274},{"NoteNumber":56,"Velocity":31,"Duration":376932,"SoundDuration":376932,"Delta":174866274},{"NoteNumber":74,"Velocity":47,"Duration":126050,"SoundDuration":126050,"Delta":174927002},{"NoteNumber":67,"Velocity":54,"Duration":126050,"SoundDuration":126050,"Delta":175053053},{"NoteNumber":79,"Velocity":64,"Duration":382461,"SoundDuration":382461,"Delta":175053053},{"NoteNumber":71,"Velocity":46,"Duration":128205,"SoundDuration":128205,"Delta":175179103},{"NoteNumber":50,"Velocity":26,"Duration":387113,"SoundDuration":387113,"Delta":175243206},{"NoteNumber":47,"Velocity":26,"Duration":387113,"SoundDuration":387113,"Delta":175243206},{"NoteNumber":55,"Velocity":36,"Duration":387113,"SoundDuration":387113,"Delta":175243206},{"NoteNumber":74,"Velocity":45,"Duration":128205,"SoundDuration":128205,"Delta":175307309},{"NoteNumber":67,"Velocity":51,"Duration":129870,"SoundDuration":129870,"Delta":175435514},{"NoteNumber":79,"Velocity":61,"Duration":382691,"SoundDuration":382691,"Delta":175435514},{"NoteNumber":71,"Velocity":45,"Duration":129870,"SoundDuration":129870,"Delta":175565384},{"NoteNumber":47,"Velocity":25,"Duration":374666,"SoundDuration":374666,"Delta":175630319},{"NoteNumber":50,"Velocity":25,"Duration":374666,"SoundDuration":374666,"Delta":175630319},{"NoteNumber":55,"Velocity":35,"Duration":374666,"SoundDuration":374666,"Delta":175630319},{"NoteNumber":74,"Velocity":44,"Duration":122950,"SoundDuration":122950,"Delta":175695254},{"NoteNumber":67,"Velocity":45,"Duration":122950,"SoundDuration":122950,"Delta":175818205},{"NoteNumber":79,"Velocity":62,"Duration":378269,"SoundDuration":378269,"Delta":175818205},{"NoteNumber":71,"Velocity":38,"Duration":127659,"SoundDuration":127659,"Delta":175941156},{"NoteNumber":50,"Velocity":27,"Duration":191489,"SoundDuration":191489,"Delta":176004986},{"NoteNumber":47,"Velocity":27,"Duration":191489,"SoundDuration":191489,"Delta":176004986},{"NoteNumber":55,"Velocity":35,"Duration":191489,"SoundDuration":191489,"Delta":176004986},{"NoteNumber":74,"Velocity":38,"Duration":127659,"SoundDuration":127659,"Delta":176068815},{"NoteNumber":70,"Velocity":52,"Duration":121457,"SoundDuration":121457,"Delta":176196475},{"NoteNumber":82,"Velocity":63,"Duration":368965,"SoundDuration":368965,"Delta":176196475},{"NoteNumber":31,"Velocity":31,"Duration":368965,"SoundDuration":368965,"Delta":176196475},{"NoteNumber":72,"Velocity":45,"Duration":121457,"SoundDuration":121457,"Delta":176317932},{"NoteNumber":48,"Velocity":20,"Duration":376932,"SoundDuration":376932,"Delta":176378661},{"NoteNumber":51,"Velocity":20,"Duration":376932,"SoundDuration":376932,"Delta":176378661},{"NoteNumber":58,"Velocity":29,"Duration":376932,"SoundDuration":376932,"Delta":176378661},{"NoteNumber":75,"Velocity":45,"Duration":126050,"SoundDuration":126050,"Delta":176439390},{"NoteNumber":68,"Velocity":51,"Duration":126050,"SoundDuration":126050,"Delta":176565440},{"NoteNumber":80,"Velocity":61,"Duration":382461,"SoundDuration":382461,"Delta":176565440},{"NoteNumber":72,"Velocity":44,"Duration":128205,"SoundDuration":128205,"Delta":176691491},{"NoteNumber":51,"Velocity":24,"Duration":387113,"SoundDuration":387113,"Delta":176755593},{"NoteNumber":48,"Velocity":24,"Duration":387113,"SoundDuration":387113,"Delta":176755593},{"NoteNumber":56,"Velocity":34,"Duration":387113,"SoundDuration":387113,"Delta":176755593},{"NoteNumber":75,"Velocity":43,"Duration":128205,"SoundDuration":128205,"Delta":176819696},{"NoteNumber":67,"Velocity":48,"Duration":129870,"SoundDuration":129870,"Delta":176947901},{"NoteNumber":79,"Velocity":57,"Duration":382691,"SoundDuration":382691,"Delta":176947901},{"NoteNumber":72,"Velocity":43,"Duration":129870,"SoundDuration":129870,"Delta":177077772},{"NoteNumber":43,"Velocity":23,"Duration":374666,"SoundDuration":374666,"Delta":177142707},{"NoteNumber":48,"Velocity":23,"Duration":374666,"SoundDuration":374666,"Delta":177142707},{"NoteNumber":51,"Velocity":23,"Duration":374666,"SoundDuration":374666,"Delta":177142707},{"NoteNumber":55,"Velocity":33,"Duration":374666,"SoundDuration":374666,"Delta":177142707},{"NoteNumber":75,"Velocity":41,"Duration":122950,"SoundDuration":122950,"Delta":177207642},{"NoteNumber":65,"Velocity":42,"Duration":122950,"SoundDuration":122950,"Delta":177330593},{"NoteNumber":77,"Velocity":58,"Duration":378269,"SoundDuration":378269,"Delta":177330593},{"NoteNumber":67,"Velocity":36,"Duration":127659,"SoundDuration":127659,"Delta":177453543},{"NoteNumber":48,"Velocity":25,"Duration":191489,"SoundDuration":191489,"Delta":177517373},{"NoteNumber":43,"Velocity":25,"Duration":191489,"SoundDuration":191489,"Delta":177517373},{"NoteNumber":53,"Velocity":33,"Duration":191489,"SoundDuration":191489,"Delta":177517373},{"NoteNumber":72,"Velocity":36,"Duration":127659,"SoundDuration":127659,"Delta":177581203},{"NoteNumber":63,"Velocity":49,"Duration":121457,"SoundDuration":121457,"Delta":177708862},{"NoteNumber":75,"Velocity":60,"Duration":368965,"SoundDuration":368965,"Delta":177708862},{"NoteNumber":29,"Velocity":29,"Duration":368965,"SoundDuration":368965,"Delta":177708862},{"NoteNumber":68,"Velocity":42,"Duration":121457,"SoundDuration":121457,"Delta":177830320},{"NoteNumber":41,"Velocity":18,"Duration":376932,"SoundDuration":376932,"Delta":177891049},{"NoteNumber":44,"Velocity":18,"Duration":376932,"SoundDuration":376932,"Delta":177891049},{"NoteNumber":48,"Velocity":18,"Duration":376932,"SoundDuration":376932,"Delta":177891049},{"NoteNumber":51,"Velocity":27,"Duration":376932,"SoundDuration":376932,"Delta":177891049},{"NoteNumber":72,"Velocity":42,"Duration":126050,"SoundDuration":126050,"Delta":177951777},{"NoteNumber":62,"Velocity":48,"Duration":126050,"SoundDuration":126050,"Delta":178077828},{"NoteNumber":74,"Velocity":57,"Duration":382461,"SoundDuration":382461,"Delta":178077828},{"NoteNumber":68,"Velocity":41,"Duration":128205,"SoundDuration":128205,"Delta":178203878},{"NoteNumber":44,"Velocity":22,"Duration":387113,"SoundDuration":387113,"Delta":178267981},{"NoteNumber":48,"Velocity":22,"Duration":387113,"SoundDuration":387113,"Delta":178267981},{"NoteNumber":41,"Velocity":22,"Duration":387113,"SoundDuration":387113,"Delta":178267981},{"NoteNumber":50,"Velocity":32,"Duration":387113,"SoundDuration":387113,"Delta":178267981},{"NoteNumber":72,"Velocity":40,"Duration":128205,"SoundDuration":128205,"Delta":178332084},{"NoteNumber":62,"Velocity":45,"Duration":129870,"SoundDuration":129870,"Delta":178460289},{"NoteNumber":74,"Velocity":54,"Duration":382691,"SoundDuration":382691,"Delta":178460289},{"NoteNumber":68,"Velocity":40,"Duration":129870,"SoundDuration":129870,"Delta":178590159},{"NoteNumber":44,"Velocity":21,"Duration":373077,"SoundDuration":373077,"Delta":178655094},{"NoteNumber":48,"Velocity":21,"Duration":373077,"SoundDuration":373077,"Delta":178655094},{"NoteNumber":50,"Velocity":31,"Duration":373077,"SoundDuration":373077,"Delta":178655094},{"NoteNumber":72,"Velocity":38,"Duration":122950,"SoundDuration":122950,"Delta":178720029},{"NoteNumber":62,"Velocity":39,"Duration":122950,"SoundDuration":122950,"Delta":178842980},{"NoteNumber":74,"Velocity":54,"Duration":371913,"SoundDuration":371913,"Delta":178842980},{"NoteNumber":68,"Velocity":34,"Duration":124481,"SoundDuration":124481,"Delta":178965931},{"NoteNumber":44,"Velocity":23,"Duration":186721,"SoundDuration":186721,"Delta":179028171},{"NoteNumber":48,"Velocity":23,"Duration":186721,"SoundDuration":186721,"Delta":179028171},{"NoteNumber":41,"Velocity":23,"Duration":186721,"SoundDuration":186721,"Delta":179028171},{"NoteNumber":50,"Velocity":31,"Duration":186721,"SoundDuration":186721,"Delta":179028171},{"NoteNumber":72,"Velocity":34,"Duration":124481,"SoundDuration":124481,"Delta":179090412},{"NoteNumber":63,"Velocity":49,"Duration":121457,"SoundDuration":121457,"Delta":179214893},{"NoteNumber":75,"Velocity":60,"Duration":366882,"SoundDuration":366882,"Delta":179214893},{"NoteNumber":31,"Velocity":29,"Duration":366882,"SoundDuration":366882,"Delta":179214893},{"NoteNumber":67,"Velocity":42,"Duration":121457,"SoundDuration":121457,"Delta":179336351},{"NoteNumber":43,"Velocity":18,"Duration":372765,"SoundDuration":372765,"Delta":179397080},{"NoteNumber":47,"Velocity":18,"Duration":372765,"SoundDuration":372765,"Delta":179397080},{"NoteNumber":51,"Velocity":27,"Duration":372765,"SoundDuration":372765,"Delta":179397080},{"NoteNumber":71,"Velocity":42,"Duration":123966,"SoundDuration":123966,"Delta":179457808},{"NoteNumber":62,"Velocity":48,"Duration":123966,"SoundDuration":123966,"Delta":179581775},{"NoteNumber":74,"Velocity":57,"Duration":380377,"SoundDuration":380377,"Delta":179581775},{"NoteNumber":67,"Velocity":41,"Duration":128205,"SoundDuration":128205,"Delta":179705742},{"NoteNumber":43,"Velocity":22,"Duration":387113,"SoundDuration":387113,"Delta":179769845},{"NoteNumber":47,"Velocity":22,"Duration":387113,"SoundDuration":387113,"Delta":179769845},{"NoteNumber":50,"Velocity":32,"Duration":387113,"SoundDuration":387113,"Delta":179769845},{"NoteNumber":71,"Velocity":40,"Duration":128205,"SoundDuration":128205,"Delta":179833948},{"NoteNumber":60,"Velocity":45,"Duration":129870,"SoundDuration":129870,"Delta":179962153},{"NoteNumber":72,"Velocity":54,"Duration":382691,"SoundDuration":382691,"Delta":179962153},{"NoteNumber":63,"Velocity":40,"Duration":129870,"SoundDuration":129870,"Delta":180092023},{"NoteNumber":51,"Velocity":21,"Duration":374666,"SoundDuration":374666,"Delta":180156958},{"NoteNumber":55,"Velocity":31,"Duration":374666,"SoundDuration":374666,"Delta":180156958},{"NoteNumber":67,"Velocity":38,"Duration":122950,"SoundDuration":122950,"Delta":180221893},{"NoteNumber":59,"Velocity":39,"Duration":122950,"SoundDuration":122950,"Delta":180344844},{"NoteNumber":71,"Velocity":54,"Duration":378269,"SoundDuration":378269,"Delta":180344844},{"NoteNumber":62,"Velocity":34,"Duration":127659,"SoundDuration":127659,"Delta":180467795},{"NoteNumber":50,"Velocity":23,"Duration":191489,"SoundDuration":191489,"Delta":180531625},{"NoteNumber":55,"Velocity":31,"Duration":191489,"SoundDuration":191489,"Delta":180531625},{"NoteNumber":67,"Velocity":34,"Duration":127659,"SoundDuration":127659,"Delta":180595454},{"NoteNumber":58,"Velocity":44,"Duration":121457,"SoundDuration":121457,"Delta":180723114},{"NoteNumber":70,"Velocity":54,"Duration":368965,"SoundDuration":368965,"Delta":180723114},{"NoteNumber":37,"Velocity":26,"Duration":368965,"SoundDuration":368965,"Delta":180723114},{"NoteNumber":61,"Velocity":37,"Duration":121457,"SoundDuration":121457,"Delta":180844571},{"NoteNumber":49,"Velocity":16,"Duration":376932,"SoundDuration":376932,"Delta":180905300},{"NoteNumber":53,"Velocity":24,"Duration":376932,"SoundDuration":376932,"Delta":180905300},{"NoteNumber":65,"Velocity":37,"Duration":126050,"SoundDuration":126050,"Delta":180966029},{"NoteNumber":56,"Velocity":43,"Duration":126050,"SoundDuration":126050,"Delta":181092079},{"NoteNumber":68,"Velocity":51,"Duration":382461,"SoundDuration":382461,"Delta":181092079},{"NoteNumber":61,"Velocity":36,"Duration":128205,"SoundDuration":128205,"Delta":181218130},{"NoteNumber":49,"Velocity":19,"Duration":192307,"SoundDuration":192307,"Delta":181282232},{"NoteNumber":53,"Velocity":28,"Duration":192307,"SoundDuration":192307,"Delta":181282232},{"NoteNumber":65,"Velocity":36,"Duration":128205,"SoundDuration":128205,"Delta":181346335},{"NoteNumber":55,"Velocity":40,"Duration":129870,"SoundDuration":129870,"Delta":181474540},{"NoteNumber":67,"Velocity":48,"Duration":391898,"SoundDuration":391898,"Delta":181474540},{"NoteNumber":56,"Velocity":36,"Duration":129870,"SoundDuration":129870,"Delta":181604411},{"NoteNumber":44,"Velocity":18,"Duration":405782,"SoundDuration":405782,"Delta":181669346},{"NoteNumber":40,"Velocity":18,"Duration":405782,"SoundDuration":405782,"Delta":181669346},{"NoteNumber":49,"Velocity":27,"Duration":405782,"SoundDuration":405782,"Delta":181669346},{"NoteNumber":61,"Velocity":34,"Duration":132158,"SoundDuration":132158,"Delta":181734281},{"NoteNumber":53,"Velocity":35,"Duration":132158,"SoundDuration":132158,"Delta":181866439},{"NoteNumber":65,"Velocity":48,"Duration":438280,"SoundDuration":438280,"Delta":181866439},{"NoteNumber":56,"Velocity":30,"Duration":153061,"SoundDuration":153061,"Delta":181998598},{"NoteNumber":41,"Velocity":20,"Duration":229591,"SoundDuration":229591,"Delta":182075128},{"NoteNumber":44,"Velocity":20,"Duration":229591,"SoundDuration":229591,"Delta":182075128},{"NoteNumber":49,"Velocity":27,"Duration":229591,"SoundDuration":229591,"Delta":182075128},{"NoteNumber":61,"Velocity":30,"Duration":153061,"SoundDuration":153061,"Delta":182151659},{"NoteNumber":63,"Velocity":35,"Duration":125522,"SoundDuration":125522,"Delta":182304720},{"NoteNumber":75,"Velocity":42,"Duration":380356,"SoundDuration":380356,"Delta":182304720},{"NoteNumber":31,"Velocity":20,"Duration":380356,"SoundDuration":380356,"Delta":182304720},{"NoteNumber":67,"Velocity":29,"Duration":125523,"SoundDuration":125523,"Delta":182430243},{"NoteNumber":43,"Velocity":12,"Duration":387753,"SoundDuration":387753,"Delta":182493005},{"NoteNumber":47,"Velocity":12,"Duration":387753,"SoundDuration":387753,"Delta":182493005},{"NoteNumber":51,"Velocity":19,"Duration":387753,"SoundDuration":387753,"Delta":182493005},{"NoteNumber":71,"Velocity":29,"Duration":129310,"SoundDuration":129310,"Delta":182555766},{"NoteNumber":62,"Velocity":34,"Duration":129310,"SoundDuration":129310,"Delta":182685077},{"NoteNumber":74,"Velocity":40,"Duration":394796,"SoundDuration":394796,"Delta":182685077},{"NoteNumber":67,"Velocity":29,"Duration":132743,"SoundDuration":132743,"Delta":182814387},{"NoteNumber":43,"Velocity":15,"Duration":403660,"SoundDuration":403660,"Delta":182880758},{"NoteNumber":47,"Velocity":15,"Duration":403660,"SoundDuration":403660,"Delta":182880758},{"NoteNumber":50,"Velocity":22,"Duration":403660,"SoundDuration":403660,"Delta":182880758},{"NoteNumber":71,"Velocity":28,"Duration":132743,"SoundDuration":132743,"Delta":182947130},{"NoteNumber":60,"Velocity":32,"Duration":136363,"SoundDuration":136363,"Delta":183079873},{"NoteNumber":72,"Velocity":38,"Duration":404886,"SoundDuration":404886,"Delta":183079873},{"NoteNumber":63,"Velocity":28,"Duration":136363,"SoundDuration":136363,"Delta":183216237},{"NoteNumber":51,"Velocity":15,"Duration":404614,"SoundDuration":404614,"Delta":183284419},{"NoteNumber":55,"Velocity":21,"Duration":404614,"SoundDuration":404614,"Delta":183284419},{"NoteNumber":67,"Velocity":27,"Duration":132158,"SoundDuration":132158,"Delta":183352601},{"NoteNumber":59,"Velocity":27,"Duration":132158,"SoundDuration":132158,"Delta":183484759},{"NoteNumber":71,"Velocity":38,"Duration":420620,"SoundDuration":420620,"Delta":183484759},{"NoteNumber":62,"Velocity":24,"Duration":144230,"SoundDuration":144230,"Delta":183616918},{"NoteNumber":50,"Velocity":16,"Duration":216346,"SoundDuration":216346,"Delta":183689033},{"NoteNumber":55,"Velocity":21,"Duration":216346,"SoundDuration":216346,"Delta":183689033},{"NoteNumber":67,"Velocity":24,"Duration":144230,"SoundDuration":144230,"Delta":183761149},{"NoteNumber":58,"Velocity":30,"Duration":136363,"SoundDuration":136363,"Delta":183905379},{"NoteNumber":70,"Velocity":38,"Duration":413572,"SoundDuration":413572,"Delta":183905379},{"NoteNumber":37,"Velocity":18,"Duration":413572,"SoundDuration":413572,"Delta":183905379},{"NoteNumber":61,"Velocity":26,"Duration":136363,"SoundDuration":136363,"Delta":184041743},{"NoteNumber":49,"Velocity":10,"Duration":423401,"SoundDuration":423401,"Delta":184109925},{"NoteNumber":53,"Velocity":16,"Duration":423401,"SoundDuration":423401,"Delta":184109925},{"NoteNumber":65,"Velocity":26,"Duration":140845,"SoundDuration":140845,"Delta":184178107},{"NoteNumber":56,"Velocity":30,"Duration":140844,"SoundDuration":140844,"Delta":184318952},{"NoteNumber":68,"Velocity":36,"Duration":434962,"SoundDuration":434962,"Delta":184318952},{"NoteNumber":61,"Velocity":25,"Duration":147058,"SoundDuration":147058,"Delta":184459797},{"NoteNumber":49,"Velocity":13,"Duration":220588,"SoundDuration":220588,"Delta":184533326},{"NoteNumber":53,"Velocity":19,"Duration":220588,"SoundDuration":220588,"Delta":184533326},{"NoteNumber":65,"Velocity":25,"Duration":147058,"SoundDuration":147058,"Delta":184606856},{"NoteNumber":55,"Velocity":28,"Duration":157068,"SoundDuration":157068,"Delta":184753914},{"NoteNumber":67,"Velocity":34,"Duration":462650,"SoundDuration":462650,"Delta":184753914},{"NoteNumber":56,"Velocity":25,"Duration":157067,"SoundDuration":157067,"Delta":184910982},{"NoteNumber":44,"Velocity":12,"Duration":463282,"SoundDuration":463282,"Delta":184989516},{"NoteNumber":40,"Velocity":12,"Duration":463282,"SoundDuration":463282,"Delta":184989516},{"NoteNumber":49,"Velocity":19,"Duration":463282,"SoundDuration":463282,"Delta":184989516},{"NoteNumber":61,"Velocity":24,"Duration":148514,"SoundDuration":148514,"Delta":185068050},{"NoteNumber":53,"Velocity":25,"Duration":148514,"SoundDuration":148514,"Delta":185216565},{"NoteNumber":65,"Velocity":34,"Duration":499391,"SoundDuration":499391,"Delta":185216565},{"NoteNumber":56,"Velocity":20,"Duration":175438,"SoundDuration":175438,"Delta":185365080},{"NoteNumber":41,"Velocity":14,"Duration":263157,"SoundDuration":263157,"Delta":185452799},{"NoteNumber":44,"Velocity":14,"Duration":263157,"SoundDuration":263157,"Delta":185452799},{"NoteNumber":49,"Velocity":19,"Duration":263157,"SoundDuration":263157,"Delta":185452799},{"NoteNumber":61,"Velocity":20,"Duration":175438,"SoundDuration":175438,"Delta":185540518},{"NoteNumber":59,"Velocity":40,"Duration":118110,"SoundDuration":118110,"Delta":185715957},{"NoteNumber":62,"Velocity":47,"Duration":118110,"SoundDuration":118110,"Delta":185715957},{"NoteNumber":43,"Velocity":24,"Duration":118110,"SoundDuration":118110,"Delta":185715957},{"NoteNumber":50,"Velocity":29,"Duration":118110,"SoundDuration":118110,"Delta":185715957},{"NoteNumber":38,"Velocity":34,"Duration":208637,"SoundDuration":208637,"Delta":185952177},{"NoteNumber":50,"Velocity":34,"Duration":104107,"SoundDuration":104107,"Delta":186056707},{"NoteNumber":36,"Velocity":35,"Duration":196655,"SoundDuration":196655,"Delta":186160815},{"NoteNumber":48,"Velocity":35,"Duration":98093,"SoundDuration":98093,"Delta":186259378},{"NoteNumber":35,"Velocity":36,"Duration":194664,"SoundDuration":194664,"Delta":186357471},{"NoteNumber":47,"Velocity":36,"Duration":97090,"SoundDuration":97090,"Delta":186455045},{"NoteNumber":32,"Velocity":38,"Duration":192792,"SoundDuration":192792,"Delta":186552135},{"NoteNumber":44,"Velocity":36,"Duration":96184,"SoundDuration":96184,"Delta":186648744},{"NoteNumber":31,"Velocity":43,"Duration":189325,"SoundDuration":189325,"Delta":186744928},{"NoteNumber":43,"Velocity":37,"Duration":94688,"SoundDuration":94688,"Delta":186839565},{"NoteNumber":44,"Velocity":45,"Duration":195153,"SoundDuration":195153,"Delta":186934254},{"NoteNumber":56,"Velocity":38,"Duration":97434,"SoundDuration":97434,"Delta":187031974},{"NoteNumber":43,"Velocity":40,"Duration":194039,"SoundDuration":194039,"Delta":187129408},{"NoteNumber":55,"Velocity":39,"Duration":96881,"SoundDuration":96881,"Delta":187226566},{"NoteNumber":41,"Velocity":42,"Duration":192942,"SoundDuration":192942,"Delta":187323448},{"NoteNumber":53,"Velocity":40,"Duration":96334,"SoundDuration":96334,"Delta":187420056},{"NoteNumber":39,"Velocity":45,"Duration":191806,"SoundDuration":191806,"Delta":187516390},{"NoteNumber":51,"Velocity":40,"Duration":95744,"SoundDuration":95744,"Delta":187612452},{"NoteNumber":37,"Velocity":46,"Duration":232289,"SoundDuration":232289,"Delta":187708197},{"NoteNumber":49,"Velocity":42,"Duration":127394,"SoundDuration":127394,"Delta":187813092},{"NoteNumber":56,"Velocity":42,"Duration":104311,"SoundDuration":104311,"Delta":187940486},{"NoteNumber":61,"Velocity":42,"Duration":104311,"SoundDuration":104311,"Delta":187940486},{"NoteNumber":65,"Velocity":50,"Duration":104311,"SoundDuration":104311,"Delta":187940486},{"NoteNumber":49,"Velocity":33,"Duration":104311,"SoundDuration":104311,"Delta":187940486},{"NoteNumber":53,"Velocity":39,"Duration":104311,"SoundDuration":104311,"Delta":187940486},{"NoteNumber":59,"Velocity":43,"Duration":104311,"SoundDuration":104311,"Delta":188149109},{"NoteNumber":55,"Velocity":43,"Duration":104311,"SoundDuration":104311,"Delta":188149109},{"NoteNumber":67,"Velocity":51,"Duration":104311,"SoundDuration":104311,"Delta":188149109},{"NoteNumber":43,"Velocity":36,"Duration":104311,"SoundDuration":104311,"Delta":188149109},{"NoteNumber":50,"Velocity":43,"Duration":104311,"SoundDuration":104311,"Delta":188149109},{"NoteNumber":38,"Velocity":34,"Duration":208637,"SoundDuration":208637,"Delta":188357732},{"NoteNumber":50,"Velocity":34,"Duration":104107,"SoundDuration":104107,"Delta":188462262},{"NoteNumber":36,"Velocity":35,"Duration":196655,"SoundDuration":196655,"Delta":188566369},{"NoteNumber":48,"Velocity":35,"Duration":98093,"SoundDuration":98093,"Delta":188664932},{"NoteNumber":35,"Velocity":36,"Duration":194664,"SoundDuration":194664,"Delta":188763025},{"NoteNumber":47,"Velocity":36,"Duration":97090,"SoundDuration":97090,"Delta":188860600},{"NoteNumber":32,"Velocity":38,"Duration":192792,"SoundDuration":192792,"Delta":188957690},{"NoteNumber":44,"Velocity":36,"Duration":96184,"SoundDuration":96184,"Delta":189054298},{"NoteNumber":31,"Velocity":43,"Duration":191119,"SoundDuration":191119,"Delta":189150483},{"NoteNumber":43,"Velocity":37,"Duration":95577,"SoundDuration":95577,"Delta":189246025},{"NoteNumber":44,"Velocity":45,"Duration":195153,"SoundDuration":195153,"Delta":189341602},{"NoteNumber":56,"Velocity":38,"Duration":97434,"SoundDuration":97434,"Delta":189439322},{"NoteNumber":43,"Velocity":40,"Duration":194039,"SoundDuration":194039,"Delta":189536756},{"NoteNumber":55,"Velocity":39,"Duration":96881,"SoundDuration":96881,"Delta":189633915},{"NoteNumber":41,"Velocity":42,"Duration":192942,"SoundDuration":192942,"Delta":189730796},{"NoteNumber":53,"Velocity":40,"Duration":96334,"SoundDuration":96334,"Delta":189827404},{"NoteNumber":39,"Velocity":45,"Duration":191806,"SoundDuration":191806,"Delta":189923738},{"NoteNumber":51,"Velocity":40,"Duration":95744,"SoundDuration":95744,"Delta":190019800},{"NoteNumber":37,"Velocity":46,"Duration":231009,"SoundDuration":231009,"Delta":190115545},{"NoteNumber":49,"Velocity":42,"Duration":127916,"SoundDuration":127916,"Delta":190218638},{"NoteNumber":56,"Velocity":42,"Duration":103591,"SoundDuration":103591,"Delta":190346555},{"NoteNumber":61,"Velocity":42,"Duration":103591,"SoundDuration":103591,"Delta":190346555},{"NoteNumber":65,"Velocity":50,"Duration":103591,"SoundDuration":103591,"Delta":190346555},{"NoteNumber":49,"Velocity":33,"Duration":103591,"SoundDuration":103591,"Delta":190346555},{"NoteNumber":53,"Velocity":39,"Duration":103591,"SoundDuration":103591,"Delta":190346555},{"NoteNumber":60,"Velocity":43,"Duration":103591,"SoundDuration":103591,"Delta":190553737},{"NoteNumber":56,"Velocity":43,"Duration":103591,"SoundDuration":103591,"Delta":190553737},{"NoteNumber":68,"Velocity":51,"Duration":103591,"SoundDuration":103591,"Delta":190553737},{"NoteNumber":44,"Velocity":36,"Duration":103591,"SoundDuration":103591,"Delta":190553737},{"NoteNumber":51,"Velocity":43,"Duration":103591,"SoundDuration":103591,"Delta":190553737},{"NoteNumber":39,"Velocity":34,"Duration":208637,"SoundDuration":208637,"Delta":190760920},{"NoteNumber":51,"Velocity":34,"Duration":104107,"SoundDuration":104107,"Delta":190865449},{"NoteNumber":37,"Velocity":35,"Duration":196655,"SoundDuration":196655,"Delta":190969557},{"NoteNumber":49,"Velocity":35,"Duration":98093,"SoundDuration":98093,"Delta":191068120},{"NoteNumber":36,"Velocity":36,"Duration":194664,"SoundDuration":194664,"Delta":191166213},{"NoteNumber":48,"Velocity":36,"Duration":97090,"SoundDuration":97090,"Delta":191263787},{"NoteNumber":34,"Velocity":38,"Duration":192792,"SoundDuration":192792,"Delta":191360878},{"NoteNumber":46,"Velocity":36,"Duration":96184,"SoundDuration":96184,"Delta":191457486},{"NoteNumber":32,"Velocity":43,"Duration":189325,"SoundDuration":189325,"Delta":191553671},{"NoteNumber":44,"Velocity":37,"Duration":93059,"SoundDuration":93059,"Delta":191648308},{"NoteNumber":44,"Velocity":45,"Duration":195153,"SoundDuration":195153,"Delta":191742997},{"NoteNumber":56,"Velocity":38,"Duration":97434,"SoundDuration":97434,"Delta":191840716},{"NoteNumber":42,"Velocity":40,"Duration":194039,"SoundDuration":194039,"Delta":191938151},{"NoteNumber":54,"Velocity":39,"Duration":96881,"SoundDuration":96881,"Delta":192035309},{"NoteNumber":40,"Velocity":42,"Duration":192942,"SoundDuration":192942,"Delta":192132190},{"NoteNumber":52,"Velocity":40,"Duration":96334,"SoundDuration":96334,"Delta":192228798},{"NoteNumber":39,"Velocity":45,"Duration":191806,"SoundDuration":191806,"Delta":192325133},{"NoteNumber":51,"Velocity":40,"Duration":95744,"SoundDuration":95744,"Delta":192421194},{"NoteNumber":37,"Velocity":46,"Duration":228087,"SoundDuration":228087,"Delta":192516939},{"NoteNumber":49,"Velocity":42,"Duration":125347,"SoundDuration":125347,"Delta":192619679},{"NoteNumber":56,"Velocity":42,"Duration":103591,"SoundDuration":103591,"Delta":192745026},{"NoteNumber":61,"Velocity":42,"Duration":103591,"SoundDuration":103591,"Delta":192745026},{"NoteNumber":64,"Velocity":50,"Duration":103591,"SoundDuration":103591,"Delta":192745026},{"NoteNumber":49,"Velocity":33,"Duration":103591,"SoundDuration":103591,"Delta":192745026},{"NoteNumber":52,"Velocity":39,"Duration":103591,"SoundDuration":103591,"Delta":192745026},{"NoteNumber":61,"Velocity":43,"Duration":103591,"SoundDuration":103591,"Delta":192952209},{"NoteNumber":57,"Velocity":43,"Duration":103591,"SoundDuration":103591,"Delta":192952209},{"NoteNumber":69,"Velocity":51,"Duration":103591,"SoundDuration":103591,"Delta":192952209},{"NoteNumber":45,"Velocity":36,"Duration":103591,"SoundDuration":103591,"Delta":192952209},{"NoteNumber":52,"Velocity":43,"Duration":103591,"SoundDuration":103591,"Delta":192952209},{"NoteNumber":40,"Velocity":34,"Duration":208637,"SoundDuration":208637,"Delta":193159391},{"NoteNumber":52,"Velocity":34,"Duration":104107,"SoundDuration":104107,"Delta":193263921},{"NoteNumber":38,"Velocity":35,"Duration":196655,"SoundDuration":196655,"Delta":193368029},{"NoteNumber":50,"Velocity":35,"Duration":98093,"SoundDuration":98093,"Delta":193466592},{"NoteNumber":37,"Velocity":36,"Duration":194664,"SoundDuration":194664,"Delta":193564685},{"NoteNumber":49,"Velocity":36,"Duration":97090,"SoundDuration":97090,"Delta":193662259},{"NoteNumber":34,"Velocity":38,"Duration":192792,"SoundDuration":192792,"Delta":193759349},{"NoteNumber":46,"Velocity":36,"Duration":96184,"SoundDuration":96184,"Delta":193855958},{"NoteNumber":33,"Velocity":43,"Duration":189919,"SoundDuration":189919,"Delta":193952142},{"NoteNumber":45,"Velocity":37,"Duration":93354,"SoundDuration":93354,"Delta":194047079},{"NoteNumber":45,"Velocity":45,"Duration":195153,"SoundDuration":195153,"Delta":194142062},{"NoteNumber":57,"Velocity":38,"Duration":97434,"SoundDuration":97434,"Delta":194239782},{"NoteNumber":43,"Velocity":40,"Duration":194039,"SoundDuration":194039,"Delta":194337216},{"NoteNumber":55,"Velocity":39,"Duration":96881,"SoundDuration":96881,"Delta":194434375},{"NoteNumber":41,"Velocity":42,"Duration":192942,"SoundDuration":192942,"Delta":194531256},{"NoteNumber":53,"Velocity":40,"Duration":96334,"SoundDuration":96334,"Delta":194627864},{"NoteNumber":40,"Velocity":45,"Duration":191806,"SoundDuration":191806,"Delta":194724198},{"NoteNumber":52,"Velocity":40,"Duration":95744,"SoundDuration":95744,"Delta":194820260},{"NoteNumber":38,"Velocity":46,"Duration":232442,"SoundDuration":232442,"Delta":194916005},{"NoteNumber":50,"Velocity":42,"Duration":130053,"SoundDuration":130053,"Delta":195018394},{"NoteNumber":57,"Velocity":42,"Duration":104311,"SoundDuration":104311,"Delta":195148447},{"NoteNumber":62,"Velocity":42,"Duration":104311,"SoundDuration":104311,"Delta":195148447},{"NoteNumber":65,"Velocity":50,"Duration":104311,"SoundDuration":104311,"Delta":195148447},{"NoteNumber":50,"Velocity":33,"Duration":104311,"SoundDuration":104311,"Delta":195148447},{"NoteNumber":53,"Velocity":39,"Duration":104311,"SoundDuration":104311,"Delta":195148447},{"NoteNumber":62,"Velocity":43,"Duration":104311,"SoundDuration":104311,"Delta":195357070},{"NoteNumber":58,"Velocity":43,"Duration":104311,"SoundDuration":104311,"Delta":195357070},{"NoteNumber":70,"Velocity":51,"Duration":104311,"SoundDuration":104311,"Delta":195357070},{"NoteNumber":46,"Velocity":36,"Duration":104311,"SoundDuration":104311,"Delta":195357070},{"NoteNumber":53,"Velocity":43,"Duration":104311,"SoundDuration":104311,"Delta":195357070},{"NoteNumber":41,"Velocity":34,"Duration":208637,"SoundDuration":208637,"Delta":195565693},{"NoteNumber":53,"Velocity":34,"Duration":104107,"SoundDuration":104107,"Delta":195670223},{"NoteNumber":39,"Velocity":35,"Duration":196655,"SoundDuration":196655,"Delta":195774331},{"NoteNumber":51,"Velocity":35,"Duration":98093,"SoundDuration":98093,"Delta":195872894},{"NoteNumber":38,"Velocity":36,"Duration":194664,"SoundDuration":194664,"Delta":195970987},{"NoteNumber":50,"Velocity":36,"Duration":97090,"SoundDuration":97090,"Delta":196068561},{"NoteNumber":35,"Velocity":38,"Duration":192792,"SoundDuration":192792,"Delta":196165651},{"NoteNumber":47,"Velocity":36,"Duration":96184,"SoundDuration":96184,"Delta":196262260},{"NoteNumber":34,"Velocity":43,"Duration":215217,"SoundDuration":215217,"Delta":196358444},{"NoteNumber":46,"Velocity":37,"Duration":120580,"SoundDuration":120580,"Delta":196453081},{"NoteNumber":63,"Velocity":43,"Duration":97719,"SoundDuration":97719,"Delta":196573662},{"NoteNumber":58,"Velocity":43,"Duration":97719,"SoundDuration":97719,"Delta":196573662},{"NoteNumber":70,"Velocity":52,"Duration":97719,"SoundDuration":97719,"Delta":196573662},{"NoteNumber":46,"Velocity":36,"Duration":97719,"SoundDuration":97719,"Delta":196573662},{"NoteNumber":54,"Velocity":43,"Duration":97719,"SoundDuration":97719,"Delta":196573662},{"NoteNumber":42,"Velocity":34,"Duration":208637,"SoundDuration":208637,"Delta":196769101},{"NoteNumber":54,"Velocity":35,"Duration":104107,"SoundDuration":104107,"Delta":196873631},{"NoteNumber":41,"Velocity":36,"Duration":196655,"SoundDuration":196655,"Delta":196977738},{"NoteNumber":53,"Velocity":36,"Duration":98093,"SoundDuration":98093,"Delta":197076301},{"NoteNumber":39,"Velocity":37,"Duration":194664,"SoundDuration":194664,"Delta":197174394},{"NoteNumber":51,"Velocity":36,"Duration":97090,"SoundDuration":97090,"Delta":197271969},{"NoteNumber":35,"Velocity":39,"Duration":192792,"SoundDuration":192792,"Delta":197369059},{"NoteNumber":47,"Velocity":37,"Duration":96184,"SoundDuration":96184,"Delta":197465667},{"NoteNumber":34,"Velocity":44,"Duration":212866,"SoundDuration":212866,"Delta":197561852},{"NoteNumber":46,"Velocity":38,"Duration":118229,"SoundDuration":118229,"Delta":197656489},{"NoteNumber":65,"Velocity":45,"Duration":97719,"SoundDuration":97719,"Delta":197774719},{"NoteNumber":62,"Velocity":45,"Duration":97719,"SoundDuration":97719,"Delta":197774719},{"NoteNumber":74,"Velocity":53,"Duration":97719,"SoundDuration":97719,"Delta":197774719},{"NoteNumber":56,"Velocity":38,"Duration":97719,"SoundDuration":97719,"Delta":197774719},{"NoteNumber":47,"Velocity":38,"Duration":97719,"SoundDuration":97719,"Delta":197774719},{"NoteNumber":59,"Velocity":45,"Duration":97719,"SoundDuration":97719,"Delta":197774719},{"NoteNumber":44,"Velocity":35,"Duration":208637,"SoundDuration":208637,"Delta":197970158},{"NoteNumber":56,"Velocity":35,"Duration":104107,"SoundDuration":104107,"Delta":198074688},{"NoteNumber":41,"Velocity":36,"Duration":196655,"SoundDuration":196655,"Delta":198178795},{"NoteNumber":53,"Velocity":36,"Duration":98093,"SoundDuration":98093,"Delta":198277358},{"NoteNumber":38,"Velocity":38,"Duration":194664,"SoundDuration":194664,"Delta":198375451},{"NoteNumber":50,"Velocity":37,"Duration":97090,"SoundDuration":97090,"Delta":198473026},{"NoteNumber":37,"Velocity":40,"Duration":192792,"SoundDuration":192792,"Delta":198570116},{"NoteNumber":49,"Velocity":38,"Duration":96184,"SoundDuration":96184,"Delta":198666724},{"NoteNumber":35,"Velocity":45,"Duration":210606,"SoundDuration":210606,"Delta":198762909},{"NoteNumber":47,"Velocity":39,"Duration":115969,"SoundDuration":115969,"Delta":198857546},{"NoteNumber":69,"Velocity":45,"Duration":97719,"SoundDuration":97719,"Delta":198973516},{"NoteNumber":66,"Velocity":45,"Duration":97719,"SoundDuration":97719,"Delta":198973516},{"NoteNumber":78,"Velocity":54,"Duration":97719,"SoundDuration":97719,"Delta":198973516},{"NoteNumber":60,"Velocity":38,"Duration":97719,"SoundDuration":97719,"Delta":198973516},{"NoteNumber":51,"Velocity":38,"Duration":97719,"SoundDuration":97719,"Delta":198973516},{"NoteNumber":63,"Velocity":45,"Duration":97719,"SoundDuration":97719,"Delta":198973516},{"NoteNumber":45,"Velocity":36,"Duration":208637,"SoundDuration":208637,"Delta":199168956},{"NoteNumber":57,"Velocity":36,"Duration":104107,"SoundDuration":104107,"Delta":199273485},{"NoteNumber":44,"Velocity":37,"Duration":196655,"SoundDuration":196655,"Delta":199377593},{"NoteNumber":56,"Velocity":37,"Duration":98093,"SoundDuration":98093,"Delta":199476156},{"NoteNumber":42,"Velocity":39,"Duration":194664,"SoundDuration":194664,"Delta":199574249},{"NoteNumber":54,"Velocity":38,"Duration":97090,"SoundDuration":97090,"Delta":199671823},{"NoteNumber":39,"Velocity":41,"Duration":192792,"SoundDuration":192792,"Delta":199768914},{"NoteNumber":51,"Velocity":39,"Duration":96184,"SoundDuration":96184,"Delta":199865522},{"NoteNumber":36,"Velocity":46,"Duration":261070,"SoundDuration":261070,"Delta":199961706},{"NoteNumber":48,"Velocity":40,"Duration":166433,"SoundDuration":166433,"Delta":200056344},{"NoteNumber":73,"Velocity":37,"Duration":194175,"SoundDuration":194175,"Delta":200222777},{"NoteNumber":78,"Velocity":37,"Duration":194175,"SoundDuration":194175,"Delta":200222777},{"NoteNumber":81,"Velocity":53,"Duration":194175,"SoundDuration":194175,"Delta":200222777},{"NoteNumber":61,"Velocity":25,"Duration":194175,"SoundDuration":194175,"Delta":200222777},{"NoteNumber":69,"Velocity":30,"Duration":194175,"SoundDuration":194175,"Delta":200222777},{"NoteNumber":66,"Velocity":25,"Duration":194175,"SoundDuration":194175,"Delta":200222777},{"NoteNumber":69,"Velocity":33,"Duration":51617,"SoundDuration":51617,"Delta":200520187},{"NoteNumber":78,"Velocity":43,"Duration":51617,"SoundDuration":51617,"Delta":200520187},{"NoteNumber":73,"Velocity":33,"Duration":51617,"SoundDuration":51617,"Delta":200520187},{"NoteNumber":57,"Velocity":20,"Duration":51617,"SoundDuration":51617,"Delta":200520187},{"NoteNumber":61,"Velocity":20,"Duration":51617,"SoundDuration":51617,"Delta":200520187},{"NoteNumber":66,"Velocity":25,"Duration":51617,"SoundDuration":51617,"Delta":200520187},{"NoteNumber":69,"Velocity":33,"Duration":110294,"SoundDuration":110294,"Delta":200623421},{"NoteNumber":73,"Velocity":33,"Duration":110294,"SoundDuration":110294,"Delta":200623421},{"NoteNumber":78,"Velocity":43,"Duration":110294,"SoundDuration":110294,"Delta":200623421},{"NoteNumber":57,"Velocity":20,"Duration":110294,"SoundDuration":110294,"Delta":200623421},{"NoteNumber":61,"Velocity":20,"Duration":110294,"SoundDuration":110294,"Delta":200623421},{"NoteNumber":66,"Velocity":25,"Duration":110294,"SoundDuration":110294,"Delta":200623421},{"NoteNumber":66,"Velocity":37,"Duration":104529,"SoundDuration":104529,"Delta":200844009},{"NoteNumber":69,"Velocity":37,"Duration":104529,"SoundDuration":104529,"Delta":200844009},{"NoteNumber":73,"Velocity":49,"Duration":104529,"SoundDuration":104529,"Delta":200844009},{"NoteNumber":57,"Velocity":26,"Duration":104529,"SoundDuration":104529,"Delta":200844009},{"NoteNumber":54,"Velocity":26,"Duration":104529,"SoundDuration":104529,"Delta":200844009},{"NoteNumber":61,"Velocity":31,"Duration":104529,"SoundDuration":104529,"Delta":200844009},{"NoteNumber":61,"Velocity":34,"Duration":53571,"SoundDuration":53571,"Delta":201160211},{"NoteNumber":69,"Velocity":44,"Duration":53571,"SoundDuration":53571,"Delta":201160211},{"NoteNumber":66,"Velocity":34,"Duration":53571,"SoundDuration":53571,"Delta":201160211},{"NoteNumber":49,"Velocity":21,"Duration":53571,"SoundDuration":53571,"Delta":201160211},{"NoteNumber":54,"Velocity":21,"Duration":53571,"SoundDuration":53571,"Delta":201160211},{"NoteNumber":57,"Velocity":26,"Duration":53571,"SoundDuration":53571,"Delta":201160211},{"NoteNumber":61,"Velocity":34,"Duration":109249,"SoundDuration":109249,"Delta":201267354},{"NoteNumber":69,"Velocity":44,"Duration":109249,"SoundDuration":109249,"Delta":201267354},{"NoteNumber":66,"Velocity":34,"Duration":109249,"SoundDuration":109249,"Delta":201267354},{"NoteNumber":49,"Velocity":22,"Duration":109249,"SoundDuration":109249,"Delta":201267354},{"NoteNumber":57,"Velocity":27,"Duration":109249,"SoundDuration":109249,"Delta":201267354},{"NoteNumber":54,"Velocity":22,"Duration":109249,"SoundDuration":109249,"Delta":201267354},{"NoteNumber":38,"Velocity":43,"Duration":202702,"SoundDuration":202702,"Delta":201485853},{"NoteNumber":50,"Velocity":38,"Duration":101351,"SoundDuration":101351,"Delta":201587205},{"NoteNumber":45,"Velocity":39,"Duration":203287,"SoundDuration":203287,"Delta":201688556},{"NoteNumber":57,"Velocity":43,"Duration":101935,"SoundDuration":101935,"Delta":201789907},{"NoteNumber":43,"Velocity":45,"Duration":196655,"SoundDuration":196655,"Delta":201891843},{"NoteNumber":55,"Velocity":45,"Duration":98093,"SoundDuration":98093,"Delta":201990406},{"NoteNumber":42,"Velocity":42,"Duration":194664,"SoundDuration":194664,"Delta":202088499},{"NoteNumber":54,"Velocity":42,"Duration":97090,"SoundDuration":97090,"Delta":202186073},{"NoteNumber":40,"Velocity":38,"Duration":192792,"SoundDuration":192792,"Delta":202283164},{"NoteNumber":52,"Velocity":39,"Duration":96184,"SoundDuration":96184,"Delta":202379772},{"NoteNumber":38,"Velocity":36,"Duration":234374,"SoundDuration":234374,"Delta":202475957},{"NoteNumber":50,"Velocity":36,"Duration":139737,"SoundDuration":139737,"Delta":202570594},{"NoteNumber":74,"Velocity":37,"Duration":186566,"SoundDuration":186566,"Delta":202710331},{"NoteNumber":79,"Velocity":37,"Duration":186566,"SoundDuration":186566,"Delta":202710331},{"NoteNumber":82,"Velocity":53,"Duration":186566,"SoundDuration":186566,"Delta":202710331},{"NoteNumber":62,"Velocity":25,"Duration":186566,"SoundDuration":186566,"Delta":202710331},{"NoteNumber":70,"Velocity":30,"Duration":186566,"SoundDuration":186566,"Delta":202710331},{"NoteNumber":67,"Velocity":25,"Duration":186566,"SoundDuration":186566,"Delta":202710331},{"NoteNumber":70,"Velocity":33,"Duration":51264,"SoundDuration":51264,"Delta":202999427},{"NoteNumber":79,"Velocity":43,"Duration":51264,"SoundDuration":51264,"Delta":202999427},{"NoteNumber":74,"Velocity":33,"Duration":51264,"SoundDuration":51264,"Delta":202999427},{"NoteNumber":58,"Velocity":20,"Duration":51264,"SoundDuration":51264,"Delta":202999427},{"NoteNumber":62,"Velocity":20,"Duration":51264,"SoundDuration":51264,"Delta":202999427},{"NoteNumber":67,"Velocity":25,"Duration":51264,"SoundDuration":51264,"Delta":202999427},{"NoteNumber":70,"Velocity":33,"Duration":108069,"SoundDuration":108069,"Delta":203101956},{"NoteNumber":74,"Velocity":33,"Duration":108069,"SoundDuration":108069,"Delta":203101956},{"NoteNumber":79,"Velocity":43,"Duration":108069,"SoundDuration":108069,"Delta":203101956},{"NoteNumber":58,"Velocity":20,"Duration":108069,"SoundDuration":108069,"Delta":203101956},{"NoteNumber":62,"Velocity":20,"Duration":108069,"SoundDuration":108069,"Delta":203101956},{"NoteNumber":67,"Velocity":25,"Duration":108069,"SoundDuration":108069,"Delta":203101956},{"NoteNumber":67,"Velocity":37,"Duration":102529,"SoundDuration":102529,"Delta":203318095},{"NoteNumber":70,"Velocity":37,"Duration":102529,"SoundDuration":102529,"Delta":203318095},{"NoteNumber":74,"Velocity":49,"Duration":102529,"SoundDuration":102529,"Delta":203318095},{"NoteNumber":58,"Velocity":26,"Duration":102529,"SoundDuration":102529,"Delta":203318095},{"NoteNumber":55,"Velocity":26,"Duration":102529,"SoundDuration":102529,"Delta":203318095},{"NoteNumber":62,"Velocity":31,"Duration":102529,"SoundDuration":102529,"Delta":203318095},{"NoteNumber":62,"Velocity":34,"Duration":53078,"SoundDuration":53078,"Delta":203629310},{"NoteNumber":70,"Velocity":44,"Duration":53078,"SoundDuration":53078,"Delta":203629310},{"NoteNumber":67,"Velocity":34,"Duration":53078,"SoundDuration":53078,"Delta":203629310},{"NoteNumber":50,"Velocity":21,"Duration":53078,"SoundDuration":53078,"Delta":203629310},{"NoteNumber":55,"Velocity":21,"Duration":53078,"SoundDuration":53078,"Delta":203629310},{"NoteNumber":58,"Velocity":26,"Duration":53078,"SoundDuration":53078,"Delta":203629310},{"NoteNumber":62,"Velocity":34,"Duration":110051,"SoundDuration":110051,"Delta":203735467},{"NoteNumber":70,"Velocity":44,"Duration":110051,"SoundDuration":110051,"Delta":203735467},{"NoteNumber":67,"Velocity":34,"Duration":110051,"SoundDuration":110051,"Delta":203735467},{"NoteNumber":50,"Velocity":22,"Duration":110051,"SoundDuration":110051,"Delta":203735467},{"NoteNumber":58,"Velocity":27,"Duration":110051,"SoundDuration":110051,"Delta":203735467},{"NoteNumber":55,"Velocity":22,"Duration":110051,"SoundDuration":110051,"Delta":203735467},{"NoteNumber":39,"Velocity":43,"Duration":202702,"SoundDuration":202702,"Delta":203955569},{"NoteNumber":51,"Velocity":38,"Duration":101351,"SoundDuration":101351,"Delta":204056920},{"NoteNumber":46,"Velocity":39,"Duration":203287,"SoundDuration":203287,"Delta":204158272},{"NoteNumber":58,"Velocity":43,"Duration":101935,"SoundDuration":101935,"Delta":204259623},{"NoteNumber":44,"Velocity":45,"Duration":196655,"SoundDuration":196655,"Delta":204361559},{"NoteNumber":56,"Velocity":45,"Duration":98093,"SoundDuration":98093,"Delta":204460122},{"NoteNumber":43,"Velocity":42,"Duration":194664,"SoundDuration":194664,"Delta":204558215},{"NoteNumber":55,"Velocity":42,"Duration":97090,"SoundDuration":97090,"Delta":204655789},{"NoteNumber":41,"Velocity":38,"Duration":192792,"SoundDuration":192792,"Delta":204752880},{"NoteNumber":53,"Velocity":39,"Duration":96184,"SoundDuration":96184,"Delta":204849488},{"NoteNumber":39,"Velocity":36,"Duration":234374,"SoundDuration":234374,"Delta":204945673},{"NoteNumber":51,"Velocity":36,"Duration":139737,"SoundDuration":139737,"Delta":205040310},{"NoteNumber":75,"Velocity":41,"Duration":187149,"SoundDuration":187149,"Delta":205180047},{"NoteNumber":80,"Velocity":41,"Duration":187149,"SoundDuration":187149,"Delta":205180047},{"NoteNumber":83,"Velocity":57,"Duration":187149,"SoundDuration":187149,"Delta":205180047},{"NoteNumber":63,"Velocity":27,"Duration":187149,"SoundDuration":187149,"Delta":205180047},{"NoteNumber":71,"Velocity":33,"Duration":187149,"SoundDuration":187149,"Delta":205180047},{"NoteNumber":68,"Velocity":27,"Duration":187149,"SoundDuration":187149,"Delta":205180047},{"NoteNumber":71,"Velocity":36,"Duration":50403,"SoundDuration":50403,"Delta":205468003},{"NoteNumber":80,"Velocity":46,"Duration":50403,"SoundDuration":50403,"Delta":205468003},{"NoteNumber":75,"Velocity":36,"Duration":50403,"SoundDuration":50403,"Delta":205468003},{"NoteNumber":59,"Velocity":22,"Duration":50403,"SoundDuration":50403,"Delta":205468003},{"NoteNumber":63,"Velocity":22,"Duration":50403,"SoundDuration":50403,"Delta":205468003},{"NoteNumber":68,"Velocity":27,"Duration":50403,"SoundDuration":50403,"Delta":205468003},{"NoteNumber":71,"Velocity":36,"Duration":105041,"SoundDuration":105041,"Delta":205568809},{"NoteNumber":75,"Velocity":36,"Duration":105041,"SoundDuration":105041,"Delta":205568809},{"NoteNumber":80,"Velocity":46,"Duration":105041,"SoundDuration":105041,"Delta":205568809},{"NoteNumber":59,"Velocity":22,"Duration":105041,"SoundDuration":105041,"Delta":205568809},{"NoteNumber":63,"Velocity":22,"Duration":105041,"SoundDuration":105041,"Delta":205568809},{"NoteNumber":68,"Velocity":27,"Duration":105041,"SoundDuration":105041,"Delta":205568809},{"NoteNumber":68,"Velocity":41,"Duration":101832,"SoundDuration":101832,"Delta":205778893},{"NoteNumber":71,"Velocity":41,"Duration":101832,"SoundDuration":101832,"Delta":205778893},{"NoteNumber":75,"Velocity":54,"Duration":101832,"SoundDuration":101832,"Delta":205778893},{"NoteNumber":59,"Velocity":27,"Duration":101832,"SoundDuration":101832,"Delta":205778893},{"NoteNumber":56,"Velocity":27,"Duration":101832,"SoundDuration":101832,"Delta":205778893},{"NoteNumber":63,"Velocity":34,"Duration":101832,"SoundDuration":101832,"Delta":205778893},{"NoteNumber":63,"Velocity":36,"Duration":53266,"SoundDuration":53266,"Delta":206089093},{"NoteNumber":71,"Velocity":47,"Duration":53266,"SoundDuration":53266,"Delta":206089093},{"NoteNumber":68,"Velocity":36,"Duration":53266,"SoundDuration":53266,"Delta":206089093},{"NoteNumber":51,"Velocity":23,"Duration":53266,"SoundDuration":53266,"Delta":206089093},{"NoteNumber":56,"Velocity":23,"Duration":53266,"SoundDuration":53266,"Delta":206089093},{"NoteNumber":59,"Velocity":27,"Duration":53266,"SoundDuration":53266,"Delta":206089093},{"NoteNumber":63,"Velocity":36,"Duration":112107,"SoundDuration":112107,"Delta":206195627},{"NoteNumber":71,"Velocity":47,"Duration":112107,"SoundDuration":112107,"Delta":206195627},{"NoteNumber":68,"Velocity":36,"Duration":112107,"SoundDuration":112107,"Delta":206195627},{"NoteNumber":51,"Velocity":24,"Duration":112107,"SoundDuration":112107,"Delta":206195627},{"NoteNumber":59,"Velocity":29,"Duration":112107,"SoundDuration":112107,"Delta":206195627},{"NoteNumber":56,"Velocity":24,"Duration":112107,"SoundDuration":112107,"Delta":206195627},{"NoteNumber":76,"Velocity":45,"Duration":187734,"SoundDuration":187734,"Delta":206419842},{"NoteNumber":80,"Velocity":45,"Duration":187734,"SoundDuration":187734,"Delta":206419842},{"NoteNumber":88,"Velocity":63,"Duration":187734,"SoundDuration":187734,"Delta":206419842},{"NoteNumber":52,"Velocity":29,"Duration":187734,"SoundDuration":187734,"Delta":206419842},{"NoteNumber":64,"Velocity":36,"Duration":187734,"SoundDuration":187734,"Delta":206419842},{"NoteNumber":59,"Velocity":29,"Duration":187734,"SoundDuration":187734,"Delta":206419842},{"NoteNumber":71,"Velocity":39,"Duration":50234,"SoundDuration":50234,"Delta":206708045},{"NoteNumber":83,"Velocity":52,"Duration":50234,"SoundDuration":50234,"Delta":206708045},{"NoteNumber":76,"Velocity":39,"Duration":50234,"SoundDuration":50234,"Delta":206708045},{"NoteNumber":56,"Velocity":24,"Duration":50234,"SoundDuration":50234,"Delta":206708045},{"NoteNumber":59,"Velocity":29,"Duration":50234,"SoundDuration":50234,"Delta":206708045},{"NoteNumber":71,"Velocity":39,"Duration":104675,"SoundDuration":104675,"Delta":206808514},{"NoteNumber":76,"Velocity":39,"Duration":104675,"SoundDuration":104675,"Delta":206808514},{"NoteNumber":83,"Velocity":52,"Duration":104675,"SoundDuration":104675,"Delta":206808514},{"NoteNumber":56,"Velocity":24,"Duration":104675,"SoundDuration":104675,"Delta":206808514},{"NoteNumber":59,"Velocity":29,"Duration":104675,"SoundDuration":104675,"Delta":206808514},{"NoteNumber":68,"Velocity":45,"Duration":102179,"SoundDuration":102179,"Delta":207017865},{"NoteNumber":71,"Velocity":45,"Duration":102179,"SoundDuration":102179,"Delta":207017865},{"NoteNumber":80,"Velocity":60,"Duration":102179,"SoundDuration":102179,"Delta":207017865},{"NoteNumber":59,"Velocity":30,"Duration":102179,"SoundDuration":102179,"Delta":207017865},{"NoteNumber":64,"Velocity":36,"Duration":102179,"SoundDuration":102179,"Delta":207017865},{"NoteNumber":64,"Velocity":40,"Duration":53266,"SoundDuration":53266,"Delta":207328759},{"NoteNumber":76,"Velocity":53,"Duration":53266,"SoundDuration":53266,"Delta":207328759},{"NoteNumber":68,"Velocity":40,"Duration":53266,"SoundDuration":53266,"Delta":207328759},{"NoteNumber":56,"Velocity":25,"Duration":53266,"SoundDuration":53266,"Delta":207328759},{"NoteNumber":59,"Velocity":30,"Duration":53266,"SoundDuration":53266,"Delta":207328759},{"NoteNumber":64,"Velocity":41,"Duration":111690,"SoundDuration":111690,"Delta":207435293},{"NoteNumber":76,"Velocity":53,"Duration":111690,"SoundDuration":111690,"Delta":207435293},{"NoteNumber":68,"Velocity":41,"Duration":111690,"SoundDuration":111690,"Delta":207435293},{"NoteNumber":59,"Velocity":33,"Duration":111690,"SoundDuration":111690,"Delta":207435293},{"NoteNumber":56,"Velocity":26,"Duration":111690,"SoundDuration":111690,"Delta":207435293},{"NoteNumber":76,"Velocity":47,"Duration":187734,"SoundDuration":187734,"Delta":207658673},{"NoteNumber":81,"Velocity":47,"Duration":187734,"SoundDuration":187734,"Delta":207658673},{"NoteNumber":88,"Velocity":67,"Duration":187734,"SoundDuration":187734,"Delta":207658673},{"NoteNumber":45,"Velocity":31,"Duration":187734,"SoundDuration":187734,"Delta":207658673},{"NoteNumber":60,"Velocity":38,"Duration":187734,"SoundDuration":187734,"Delta":207658673},{"NoteNumber":52,"Velocity":31,"Duration":187734,"SoundDuration":187734,"Delta":207658673},{"NoteNumber":72,"Velocity":42,"Duration":50234,"SoundDuration":50234,"Delta":207946876},{"NoteNumber":84,"Velocity":54,"Duration":50234,"SoundDuration":50234,"Delta":207946876},{"NoteNumber":76,"Velocity":42,"Duration":50234,"SoundDuration":50234,"Delta":207946876},{"NoteNumber":60,"Velocity":31,"Duration":50234,"SoundDuration":50234,"Delta":207946876},{"NoteNumber":57,"Velocity":25,"Duration":50234,"SoundDuration":50234,"Delta":207946876},{"NoteNumber":72,"Velocity":42,"Duration":105041,"SoundDuration":105041,"Delta":208047345},{"NoteNumber":76,"Velocity":42,"Duration":105041,"SoundDuration":105041,"Delta":208047345},{"NoteNumber":84,"Velocity":54,"Duration":105041,"SoundDuration":105041,"Delta":208047345},{"NoteNumber":57,"Velocity":25,"Duration":105041,"SoundDuration":105041,"Delta":208047345},{"NoteNumber":60,"Velocity":31,"Duration":105041,"SoundDuration":105041,"Delta":208047345},{"NoteNumber":69,"Velocity":48,"Duration":100468,"SoundDuration":100468,"Delta":208257429},{"NoteNumber":72,"Velocity":48,"Duration":100468,"SoundDuration":100468,"Delta":208257429},{"NoteNumber":81,"Velocity":63,"Duration":100468,"SoundDuration":100468,"Delta":208257429},{"NoteNumber":60,"Velocity":32,"Duration":100468,"SoundDuration":100468,"Delta":208257429},{"NoteNumber":64,"Velocity":39,"Duration":100468,"SoundDuration":100468,"Delta":208257429},{"NoteNumber":64,"Velocity":43,"Duration":52521,"SoundDuration":52521,"Delta":208563409},{"NoteNumber":76,"Velocity":55,"Duration":52521,"SoundDuration":52521,"Delta":208563409},{"NoteNumber":69,"Velocity":43,"Duration":52521,"SoundDuration":52521,"Delta":208563409},{"NoteNumber":57,"Velocity":27,"Duration":52521,"SoundDuration":52521,"Delta":208563409},{"NoteNumber":60,"Velocity":32,"Duration":52521,"SoundDuration":52521,"Delta":208563409},{"NoteNumber":64,"Velocity":43,"Duration":110456,"SoundDuration":110456,"Delta":208668451},{"NoteNumber":76,"Velocity":55,"Duration":110456,"SoundDuration":110456,"Delta":208668451},{"NoteNumber":69,"Velocity":43,"Duration":110456,"SoundDuration":110456,"Delta":208668451},{"NoteNumber":60,"Velocity":34,"Duration":110456,"SoundDuration":110456,"Delta":208668451},{"NoteNumber":57,"Velocity":27,"Duration":110456,"SoundDuration":110456,"Delta":208668451},{"NoteNumber":77,"Velocity":51,"Duration":189274,"SoundDuration":189274,"Delta":208889364},{"NoteNumber":81,"Velocity":51,"Duration":189274,"SoundDuration":189274,"Delta":208889364},{"NoteNumber":89,"Velocity":72,"Duration":189274,"SoundDuration":189274,"Delta":208889364},{"NoteNumber":41,"Velocity":33,"Duration":189274,"SoundDuration":189274,"Delta":208889364},{"NoteNumber":57,"Velocity":41,"Duration":189274,"SoundDuration":189274,"Delta":208889364},{"NoteNumber":48,"Velocity":33,"Duration":189274,"SoundDuration":189274,"Delta":208889364},{"NoteNumber":72,"Velocity":45,"Duration":49734,"SoundDuration":49734,"Delta":209178108},{"NoteNumber":84,"Velocity":58,"Duration":49734,"SoundDuration":49734,"Delta":209178108},{"NoteNumber":77,"Velocity":45,"Duration":49734,"SoundDuration":49734,"Delta":209178108},{"NoteNumber":53,"Velocity":27,"Duration":49734,"SoundDuration":49734,"Delta":209178108},{"NoteNumber":60,"Velocity":33,"Duration":49734,"SoundDuration":49734,"Delta":209178108},{"NoteNumber":57,"Velocity":27,"Duration":49734,"SoundDuration":49734,"Delta":209178108},{"NoteNumber":72,"Velocity":45,"Duration":104311,"SoundDuration":104311,"Delta":209277577},{"NoteNumber":77,"Velocity":45,"Duration":104311,"SoundDuration":104311,"Delta":209277577},{"NoteNumber":84,"Velocity":58,"Duration":104311,"SoundDuration":104311,"Delta":209277577},{"NoteNumber":53,"Velocity":27,"Duration":104311,"SoundDuration":104311,"Delta":209277577},{"NoteNumber":57,"Velocity":27,"Duration":104311,"SoundDuration":104311,"Delta":209277577},{"NoteNumber":60,"Velocity":33,"Duration":104311,"SoundDuration":104311,"Delta":209277577},{"NoteNumber":69,"Velocity":51,"Duration":100806,"SoundDuration":100806,"Delta":209486200},{"NoteNumber":72,"Velocity":51,"Duration":100806,"SoundDuration":100806,"Delta":209486200},{"NoteNumber":81,"Velocity":67,"Duration":100806,"SoundDuration":100806,"Delta":209486200},{"NoteNumber":57,"Velocity":34,"Duration":100806,"SoundDuration":100806,"Delta":209486200},{"NoteNumber":60,"Velocity":34,"Duration":100806,"SoundDuration":100806,"Delta":209486200},{"NoteNumber":65,"Velocity":42,"Duration":100806,"SoundDuration":100806,"Delta":209486200},{"NoteNumber":65,"Velocity":45,"Duration":52521,"SoundDuration":52521,"Delta":209792855},{"NoteNumber":77,"Velocity":59,"Duration":52521,"SoundDuration":52521,"Delta":209792855},{"NoteNumber":69,"Velocity":45,"Duration":52521,"SoundDuration":52521,"Delta":209792855},{"NoteNumber":53,"Velocity":27,"Duration":52521,"SoundDuration":52521,"Delta":209792855},{"NoteNumber":57,"Velocity":27,"Duration":52521,"SoundDuration":52521,"Delta":209792855},{"NoteNumber":60,"Velocity":35,"Duration":52521,"SoundDuration":52521,"Delta":209792855},{"NoteNumber":65,"Velocity":45,"Duration":108459,"SoundDuration":108459,"Delta":209897897},{"NoteNumber":77,"Velocity":59,"Duration":108459,"SoundDuration":108459,"Delta":209897897},{"NoteNumber":69,"Velocity":45,"Duration":108459,"SoundDuration":108459,"Delta":209897897},{"NoteNumber":53,"Velocity":28,"Duration":108459,"SoundDuration":108459,"Delta":209897897},{"NoteNumber":60,"Velocity":36,"Duration":108459,"SoundDuration":108459,"Delta":209897897},{"NoteNumber":57,"Velocity":28,"Duration":108459,"SoundDuration":108459,"Delta":209897897},{"NoteNumber":77,"Velocity":52,"Duration":188087,"SoundDuration":188087,"Delta":210114817},{"NoteNumber":80,"Velocity":52,"Duration":188087,"SoundDuration":188087,"Delta":210114817},{"NoteNumber":89,"Velocity":72,"Duration":188087,"SoundDuration":188087,"Delta":210114817},{"NoteNumber":49,"Velocity":34,"Duration":188087,"SoundDuration":188087,"Delta":210114817},{"NoteNumber":61,"Velocity":41,"Duration":188087,"SoundDuration":188087,"Delta":210114817},{"NoteNumber":56,"Velocity":34,"Duration":188087,"SoundDuration":188087,"Delta":210114817},{"NoteNumber":73,"Velocity":45,"Duration":49900,"SoundDuration":49900,"Delta":210402705},{"NoteNumber":85,"Velocity":59,"Duration":49900,"SoundDuration":49900,"Delta":210402705},{"NoteNumber":53,"Velocity":27,"Duration":49900,"SoundDuration":49900,"Delta":210402705},{"NoteNumber":65,"Velocity":34,"Duration":49900,"SoundDuration":49900,"Delta":210402705},{"NoteNumber":73,"Velocity":45,"Duration":105411,"SoundDuration":105411,"Delta":210502506},{"NoteNumber":85,"Velocity":59,"Duration":105411,"SoundDuration":105411,"Delta":210502506},{"NoteNumber":53,"Velocity":27,"Duration":105411,"SoundDuration":105411,"Delta":210502506},{"NoteNumber":65,"Velocity":34,"Duration":105411,"SoundDuration":105411,"Delta":210502506},{"NoteNumber":82,"Velocity":52,"Duration":100133,"SoundDuration":100133,"Delta":210713328},{"NoteNumber":77,"Velocity":52,"Duration":100133,"SoundDuration":100133,"Delta":210713328},{"NoteNumber":85,"Velocity":52,"Duration":100133,"SoundDuration":100133,"Delta":210713328},{"NoteNumber":89,"Velocity":69,"Duration":100133,"SoundDuration":100133,"Delta":210713328},{"NoteNumber":46,"Velocity":35,"Duration":100133,"SoundDuration":100133,"Delta":210713328},{"NoteNumber":58,"Velocity":43,"Duration":100133,"SoundDuration":100133,"Delta":210713328},{"NoteNumber":85,"Velocity":60,"Duration":51974,"SoundDuration":51974,"Delta":211017545},{"NoteNumber":73,"Velocity":46,"Duration":51974,"SoundDuration":51974,"Delta":211017545},{"NoteNumber":49,"Velocity":28,"Duration":51974,"SoundDuration":51974,"Delta":211017545},{"NoteNumber":61,"Velocity":35,"Duration":51974,"SoundDuration":51974,"Delta":211017545},{"NoteNumber":85,"Velocity":61,"Duration":108069,"SoundDuration":108069,"Delta":211121495},{"NoteNumber":73,"Velocity":46,"Duration":108069,"SoundDuration":108069,"Delta":211121495},{"NoteNumber":49,"Velocity":29,"Duration":108069,"SoundDuration":108069,"Delta":211121495},{"NoteNumber":61,"Velocity":37,"Duration":108069,"SoundDuration":108069,"Delta":211121495},{"NoteNumber":85,"Velocity":53,"Duration":187500,"SoundDuration":187500,"Delta":211337633},{"NoteNumber":78,"Velocity":53,"Duration":187500,"SoundDuration":187500,"Delta":211337633},{"NoteNumber":82,"Velocity":53,"Duration":187500,"SoundDuration":187500,"Delta":211337633},{"NoteNumber":90,"Velocity":74,"Duration":187500,"SoundDuration":187500,"Delta":211337633},{"NoteNumber":42,"Velocity":34,"Duration":187500,"SoundDuration":187500,"Delta":211337633},{"NoteNumber":54,"Velocity":42,"Duration":187500,"SoundDuration":187500,"Delta":211337633},{"NoteNumber":73,"Velocity":45,"Duration":49407,"SoundDuration":49407,"Delta":211623947},{"NoteNumber":85,"Velocity":59,"Duration":49407,"SoundDuration":49407,"Delta":211623947},{"NoteNumber":46,"Velocity":27,"Duration":49407,"SoundDuration":49407,"Delta":211623947},{"NoteNumber":58,"Velocity":34,"Duration":49407,"SoundDuration":49407,"Delta":211623947},{"NoteNumber":73,"Velocity":45,"Duration":103591,"SoundDuration":103591,"Delta":211722762},{"NoteNumber":85,"Velocity":59,"Duration":103591,"SoundDuration":103591,"Delta":211722762},{"NoteNumber":46,"Velocity":27,"Duration":103591,"SoundDuration":103591,"Delta":211722762},{"NoteNumber":58,"Velocity":34,"Duration":103591,"SoundDuration":103591,"Delta":211722762},{"NoteNumber":82,"Velocity":53,"Duration":99800,"SoundDuration":99800,"Delta":211929944},{"NoteNumber":78,"Velocity":53,"Duration":99800,"SoundDuration":99800,"Delta":211929944},{"NoteNumber":87,"Velocity":53,"Duration":99800,"SoundDuration":99800,"Delta":211929944},{"NoteNumber":90,"Velocity":70,"Duration":99800,"SoundDuration":99800,"Delta":211929944},{"NoteNumber":39,"Velocity":36,"Duration":99800,"SoundDuration":99800,"Delta":211929944},{"NoteNumber":51,"Velocity":44,"Duration":99800,"SoundDuration":99800,"Delta":211929944},{"NoteNumber":87,"Velocity":61,"Duration":52155,"SoundDuration":52155,"Delta":212233857},{"NoteNumber":75,"Velocity":47,"Duration":52155,"SoundDuration":52155,"Delta":212233857},{"NoteNumber":42,"Velocity":28,"Duration":52155,"SoundDuration":52155,"Delta":212233857},{"NoteNumber":54,"Velocity":36,"Duration":52155,"SoundDuration":52155,"Delta":212233857},{"NoteNumber":87,"Velocity":61,"Duration":109249,"SoundDuration":109249,"Delta":212338168},{"NoteNumber":75,"Velocity":47,"Duration":109249,"SoundDuration":109249,"Delta":212338168},{"NoteNumber":42,"Velocity":29,"Duration":109249,"SoundDuration":109249,"Delta":212338168},{"NoteNumber":54,"Velocity":37,"Duration":109249,"SoundDuration":109249,"Delta":212338168},{"NoteNumber":78,"Velocity":47,"Duration":101752,"SoundDuration":101752,"Delta":212556420},{"NoteNumber":87,"Velocity":56,"Duration":101752,"SoundDuration":101752,"Delta":212556420},{"NoteNumber":35,"Velocity":33,"Duration":203092,"SoundDuration":203092,"Delta":212556420},{"NoteNumber":47,"Velocity":33,"Duration":203092,"SoundDuration":203092,"Delta":212556420},{"NoteNumber":90,"Velocity":50,"Duration":101340,"SoundDuration":101340,"Delta":212658173},{"NoteNumber":78,"Velocity":47,"Duration":100931,"SoundDuration":100931,"Delta":212759513},{"NoteNumber":87,"Velocity":56,"Duration":100931,"SoundDuration":100931,"Delta":212759513},{"NoteNumber":54,"Velocity":43,"Duration":201444,"SoundDuration":201444,"Delta":212759513},{"NoteNumber":90,"Velocity":50,"Duration":100513,"SoundDuration":100513,"Delta":212860444},{"NoteNumber":78,"Velocity":48,"Duration":100003,"SoundDuration":100003,"Delta":212960958},{"NoteNumber":87,"Velocity":57,"Duration":100003,"SoundDuration":100003,"Delta":212960958},{"NoteNumber":52,"Velocity":40,"Duration":199607,"SoundDuration":199607,"Delta":212960958},{"NoteNumber":90,"Velocity":51,"Duration":99604,"SoundDuration":99604,"Delta":213060961},{"NoteNumber":78,"Velocity":48,"Duration":99209,"SoundDuration":99209,"Delta":213160566},{"NoteNumber":87,"Velocity":57,"Duration":99209,"SoundDuration":99209,"Delta":213160566},{"NoteNumber":51,"Velocity":40,"Duration":197964,"SoundDuration":197964,"Delta":213160566},{"NoteNumber":90,"Velocity":51,"Duration":98754,"SoundDuration":98754,"Delta":213259775},{"NoteNumber":78,"Velocity":49,"Duration":98333,"SoundDuration":98333,"Delta":213358530},{"NoteNumber":87,"Velocity":58,"Duration":98333,"SoundDuration":98333,"Delta":213358530},{"NoteNumber":49,"Velocity":38,"Duration":197208,"SoundDuration":197208,"Delta":213358530},{"NoteNumber":90,"Velocity":53,"Duration":98874,"SoundDuration":98874,"Delta":213456864},{"NoteNumber":78,"Velocity":49,"Duration":99765,"SoundDuration":99765,"Delta":213555739},{"NoteNumber":87,"Velocity":59,"Duration":99765,"SoundDuration":99765,"Delta":213555739},{"NoteNumber":47,"Velocity":38,"Duration":200707,"SoundDuration":200707,"Delta":213555739},{"NoteNumber":90,"Velocity":53,"Duration":100941,"SoundDuration":100941,"Delta":213655504},{"NoteNumber":80,"Velocity":50,"Duration":94339,"SoundDuration":94339,"Delta":213756446},{"NoteNumber":87,"Velocity":59,"Duration":94339,"SoundDuration":94339,"Delta":213756446},{"NoteNumber":63,"Velocity":34,"Duration":188679,"SoundDuration":188679,"Delta":213756446},{"NoteNumber":71,"Velocity":41,"Duration":188679,"SoundDuration":188679,"Delta":213756446},{"NoteNumber":92,"Velocity":53,"Duration":94339,"SoundDuration":94339,"Delta":213850785},{"NoteNumber":80,"Velocity":50,"Duration":99800,"SoundDuration":99800,"Delta":213945125},{"NoteNumber":87,"Velocity":60,"Duration":99800,"SoundDuration":99800,"Delta":213945125},{"NoteNumber":92,"Velocity":53,"Duration":99800,"SoundDuration":99800,"Delta":214044925},{"NoteNumber":59,"Velocity":27,"Duration":49900,"SoundDuration":49900,"Delta":214044925},{"NoteNumber":68,"Velocity":34,"Duration":49900,"SoundDuration":49900,"Delta":214044925},{"NoteNumber":80,"Velocity":51,"Duration":105782,"SoundDuration":105782,"Delta":214144726},{"NoteNumber":87,"Velocity":61,"Duration":105782,"SoundDuration":105782,"Delta":214144726},{"NoteNumber":59,"Velocity":27,"Duration":105782,"SoundDuration":105782,"Delta":214144726},{"NoteNumber":68,"Velocity":34,"Duration":105782,"SoundDuration":105782,"Delta":214144726},{"NoteNumber":92,"Velocity":52,"Duration":105782,"SoundDuration":105782,"Delta":214250508},{"NoteNumber":80,"Velocity":51,"Duration":101832,"SoundDuration":101832,"Delta":214356291},{"NoteNumber":87,"Velocity":61,"Duration":101832,"SoundDuration":101832,"Delta":214356291},{"NoteNumber":56,"Velocity":36,"Duration":101832,"SoundDuration":101832,"Delta":214356291},{"NoteNumber":63,"Velocity":44,"Duration":101832,"SoundDuration":101832,"Delta":214356291},{"NoteNumber":92,"Velocity":53,"Duration":101832,"SoundDuration":101832,"Delta":214458124},{"NoteNumber":80,"Velocity":52,"Duration":105411,"SoundDuration":105411,"Delta":214559957},{"NoteNumber":87,"Velocity":62,"Duration":105411,"SoundDuration":105411,"Delta":214559957},{"NoteNumber":92,"Velocity":54,"Duration":105411,"SoundDuration":105411,"Delta":214665368},{"NoteNumber":51,"Velocity":29,"Duration":52705,"SoundDuration":52705,"Delta":214665368},{"NoteNumber":59,"Velocity":36,"Duration":52705,"SoundDuration":52705,"Delta":214665368},{"NoteNumber":80,"Velocity":52,"Duration":111276,"SoundDuration":111276,"Delta":214770779},{"NoteNumber":87,"Velocity":62,"Duration":111276,"SoundDuration":111276,"Delta":214770779},{"NoteNumber":51,"Velocity":30,"Duration":111276,"SoundDuration":111276,"Delta":214770779},{"NoteNumber":59,"Velocity":38,"Duration":111276,"SoundDuration":111276,"Delta":214770779},{"NoteNumber":92,"Velocity":54,"Duration":110745,"SoundDuration":110745,"Delta":214882055},{"NoteNumber":83,"Velocity":53,"Duration":100519,"SoundDuration":100519,"Delta":214992801},{"NoteNumber":87,"Velocity":63,"Duration":100519,"SoundDuration":100519,"Delta":214992801},{"NoteNumber":32,"Velocity":36,"Duration":200486,"SoundDuration":200486,"Delta":214992801},{"NoteNumber":44,"Velocity":36,"Duration":200486,"SoundDuration":200486,"Delta":214992801},{"NoteNumber":95,"Velocity":56,"Duration":99967,"SoundDuration":99967,"Delta":215093321},{"NoteNumber":83,"Velocity":53,"Duration":99436,"SoundDuration":99436,"Delta":215193288},{"NoteNumber":87,"Velocity":63,"Duration":99436,"SoundDuration":99436,"Delta":215193288},{"NoteNumber":51,"Velocity":48,"Duration":198300,"SoundDuration":198300,"Delta":215193288},{"NoteNumber":95,"Velocity":56,"Duration":98863,"SoundDuration":98863,"Delta":215292724},{"NoteNumber":83,"Velocity":54,"Duration":98328,"SoundDuration":98328,"Delta":215391588},{"NoteNumber":87,"Velocity":63,"Duration":98328,"SoundDuration":98328,"Delta":215391588},{"NoteNumber":49,"Velocity":45,"Duration":196144,"SoundDuration":196144,"Delta":215391588},{"NoteNumber":95,"Velocity":57,"Duration":97815,"SoundDuration":97815,"Delta":215489917},{"NoteNumber":83,"Velocity":54,"Duration":97260,"SoundDuration":97260,"Delta":215587733},{"NoteNumber":87,"Velocity":64,"Duration":97260,"SoundDuration":97260,"Delta":215587733},{"NoteNumber":47,"Velocity":45,"Duration":194019,"SoundDuration":194019,"Delta":215587733},{"NoteNumber":95,"Velocity":57,"Duration":96758,"SoundDuration":96758,"Delta":215684993},{"NoteNumber":83,"Velocity":54,"Duration":96915,"SoundDuration":96915,"Delta":215781752},{"NoteNumber":87,"Velocity":65,"Duration":96915,"SoundDuration":96915,"Delta":215781752},{"NoteNumber":46,"Velocity":43,"Duration":194349,"SoundDuration":194349,"Delta":215781752},{"NoteNumber":95,"Velocity":59,"Duration":97434,"SoundDuration":97434,"Delta":215878667},{"NoteNumber":83,"Velocity":55,"Duration":98071,"SoundDuration":98071,"Delta":215976102},{"NoteNumber":87,"Velocity":65,"Duration":98071,"SoundDuration":98071,"Delta":215976102},{"NoteNumber":44,"Velocity":42,"Duration":197336,"SoundDuration":197336,"Delta":215976102},{"NoteNumber":95,"Velocity":60,"Duration":99264,"SoundDuration":99264,"Delta":216074174},{"NoteNumber":83,"Velocity":55,"Duration":93867,"SoundDuration":93867,"Delta":216173439},{"NoteNumber":86,"Velocity":66,"Duration":93867,"SoundDuration":93867,"Delta":216173439},{"NoteNumber":62,"Velocity":37,"Duration":187734,"SoundDuration":187734,"Delta":216173439},{"NoteNumber":71,"Velocity":45,"Duration":187734,"SoundDuration":187734,"Delta":216173439},{"NoteNumber":95,"Velocity":59,"Duration":93867,"SoundDuration":93867,"Delta":216267306},{"NoteNumber":83,"Velocity":56,"Duration":101832,"SoundDuration":101832,"Delta":216361173},{"NoteNumber":86,"Velocity":66,"Duration":101832,"SoundDuration":101832,"Delta":216361173},{"NoteNumber":95,"Velocity":60,"Duration":101832,"SoundDuration":101832,"Delta":216463006},{"NoteNumber":59,"Velocity":30,"Duration":50916,"SoundDuration":50916,"Delta":216463006},{"NoteNumber":65,"Velocity":38,"Duration":50916,"SoundDuration":50916,"Delta":216463006},{"NoteNumber":83,"Velocity":56,"Duration":105782,"SoundDuration":105782,"Delta":216564839},{"NoteNumber":86,"Velocity":67,"Duration":105782,"SoundDuration":105782,"Delta":216564839},{"NoteNumber":59,"Velocity":30,"Duration":105782,"SoundDuration":105782,"Delta":216564839},{"NoteNumber":65,"Velocity":38,"Duration":105782,"SoundDuration":105782,"Delta":216564839},{"NoteNumber":95,"Velocity":58,"Duration":105782,"SoundDuration":105782,"Delta":216670622},{"NoteNumber":83,"Velocity":57,"Duration":102179,"SoundDuration":102179,"Delta":216776405},{"NoteNumber":86,"Velocity":68,"Duration":102179,"SoundDuration":102179,"Delta":216776405},{"NoteNumber":53,"Velocity":39,"Duration":102179,"SoundDuration":102179,"Delta":216776405},{"NoteNumber":62,"Velocity":48,"Duration":102179,"SoundDuration":102179,"Delta":216776405},{"NoteNumber":95,"Velocity":60,"Duration":102179,"SoundDuration":102179,"Delta":216878584},{"NoteNumber":83,"Velocity":57,"Duration":104166,"SoundDuration":104166,"Delta":216980764},{"NoteNumber":86,"Velocity":68,"Duration":104166,"SoundDuration":104166,"Delta":216980764},{"NoteNumber":95,"Velocity":60,"Duration":104166,"SoundDuration":104166,"Delta":217084931},{"NoteNumber":50,"Velocity":32,"Duration":52083,"SoundDuration":52083,"Delta":217084931},{"NoteNumber":59,"Velocity":40,"Duration":52083,"SoundDuration":52083,"Delta":217084931},{"NoteNumber":83,"Velocity":58,"Duration":107913,"SoundDuration":107913,"Delta":217189098},{"NoteNumber":86,"Velocity":69,"Duration":107913,"SoundDuration":107913,"Delta":217189098},{"NoteNumber":50,"Velocity":34,"Duration":107913,"SoundDuration":107913,"Delta":217189098},{"NoteNumber":59,"Velocity":42,"Duration":107913,"SoundDuration":107913,"Delta":217189098},{"NoteNumber":95,"Velocity":61,"Duration":107913,"SoundDuration":107913,"Delta":217297011},{"NoteNumber":84,"Velocity":59,"Duration":93574,"SoundDuration":93574,"Delta":217404925},{"NoteNumber":87,"Velocity":70,"Duration":93574,"SoundDuration":93574,"Delta":217404925},{"NoteNumber":44,"Velocity":44,"Duration":187149,"SoundDuration":187149,"Delta":217404925},{"NoteNumber":56,"Velocity":54,"Duration":187149,"SoundDuration":187149,"Delta":217404925},{"NoteNumber":96,"Velocity":63,"Duration":93574,"SoundDuration":93574,"Delta":217498500},{"NoteNumber":84,"Velocity":59,"Duration":99009,"SoundDuration":99009,"Delta":217592074},{"NoteNumber":87,"Velocity":71,"Duration":99009,"SoundDuration":99009,"Delta":217592074},{"NoteNumber":96,"Velocity":63,"Duration":99010,"SoundDuration":99010,"Delta":217691084},{"NoteNumber":39,"Velocity":35,"Duration":49505,"SoundDuration":49505,"Delta":217691084},{"NoteNumber":51,"Velocity":44,"Duration":49505,"SoundDuration":49505,"Delta":217691084},{"NoteNumber":84,"Velocity":60,"Duration":102040,"SoundDuration":102040,"Delta":217790094},{"NoteNumber":87,"Velocity":72,"Duration":102040,"SoundDuration":102040,"Delta":217790094},{"NoteNumber":39,"Velocity":36,"Duration":102040,"SoundDuration":102040,"Delta":217790094},{"NoteNumber":51,"Velocity":45,"Duration":102040,"SoundDuration":102040,"Delta":217790094},{"NoteNumber":96,"Velocity":61,"Duration":102040,"SoundDuration":102040,"Delta":217892135},{"NoteNumber":85,"Velocity":60,"Duration":98684,"SoundDuration":98684,"Delta":217994176},{"NoteNumber":88,"Velocity":72,"Duration":98684,"SoundDuration":98684,"Delta":217994176},{"NoteNumber":44,"Velocity":47,"Duration":98684,"SoundDuration":98684,"Delta":217994176},{"NoteNumber":56,"Velocity":57,"Duration":98684,"SoundDuration":98684,"Delta":217994176},{"NoteNumber":97,"Velocity":63,"Duration":98684,"SoundDuration":98684,"Delta":218092860},{"NoteNumber":85,"Velocity":62,"Duration":101695,"SoundDuration":101695,"Delta":218191544},{"NoteNumber":88,"Velocity":73,"Duration":101695,"SoundDuration":101695,"Delta":218191544},{"NoteNumber":97,"Velocity":63,"Duration":101695,"SoundDuration":101695,"Delta":218293239},{"NoteNumber":37,"Velocity":38,"Duration":50847,"SoundDuration":50847,"Delta":218293239},{"NoteNumber":49,"Velocity":47,"Duration":50847,"SoundDuration":50847,"Delta":218293239},{"NoteNumber":85,"Velocity":63,"Duration":108069,"SoundDuration":108069,"Delta":218394934},{"NoteNumber":88,"Velocity":74,"Duration":108069,"SoundDuration":108069,"Delta":218394934},{"NoteNumber":37,"Velocity":41,"Duration":108069,"SoundDuration":108069,"Delta":218394934},{"NoteNumber":49,"Velocity":51,"Duration":108069,"SoundDuration":108069,"Delta":218394934},{"NoteNumber":97,"Velocity":65,"Duration":108069,"SoundDuration":108069,"Delta":218503003},{"NoteNumber":86,"Velocity":63,"Duration":92879,"SoundDuration":92879,"Delta":218611073},{"NoteNumber":89,"Velocity":75,"Duration":92879,"SoundDuration":92879,"Delta":218611073},{"NoteNumber":44,"Velocity":48,"Duration":185758,"SoundDuration":185758,"Delta":218611073},{"NoteNumber":56,"Velocity":59,"Duration":185758,"SoundDuration":185758,"Delta":218611073},{"NoteNumber":98,"Velocity":67,"Duration":92879,"SoundDuration":92879,"Delta":218703952},{"NoteNumber":86,"Velocity":63,"Duration":96462,"SoundDuration":96462,"Delta":218796831},{"NoteNumber":89,"Velocity":77,"Duration":96462,"SoundDuration":96462,"Delta":218796831},{"NoteNumber":98,"Velocity":67,"Duration":96462,"SoundDuration":96462,"Delta":218893294},{"NoteNumber":35,"Velocity":39,"Duration":48231,"SoundDuration":48231,"Delta":218893294},{"NoteNumber":47,"Velocity":48,"Duration":48231,"SoundDuration":48231,"Delta":218893294},{"NoteNumber":86,"Velocity":64,"Duration":102040,"SoundDuration":102040,"Delta":218989757},{"NoteNumber":89,"Velocity":77,"Duration":102040,"SoundDuration":102040,"Delta":218989757},{"NoteNumber":35,"Velocity":39,"Duration":102040,"SoundDuration":102040,"Delta":218989757},{"NoteNumber":47,"Velocity":49,"Duration":102040,"SoundDuration":102040,"Delta":218989757},{"NoteNumber":98,"Velocity":66,"Duration":102040,"SoundDuration":102040,"Delta":219091798},{"NoteNumber":86,"Velocity":66,"Duration":98039,"SoundDuration":98039,"Delta":219193839},{"NoteNumber":89,"Velocity":79,"Duration":98039,"SoundDuration":98039,"Delta":219193839},{"NoteNumber":44,"Velocity":52,"Duration":98039,"SoundDuration":98039,"Delta":219193839},{"NoteNumber":56,"Velocity":63,"Duration":98039,"SoundDuration":98039,"Delta":219193839},{"NoteNumber":98,"Velocity":68,"Duration":98039,"SoundDuration":98039,"Delta":219291878},{"NoteNumber":86,"Velocity":67,"Duration":101695,"SoundDuration":101695,"Delta":219389917},{"NoteNumber":89,"Velocity":81,"Duration":101695,"SoundDuration":101695,"Delta":219389917},{"NoteNumber":98,"Velocity":70,"Duration":101695,"SoundDuration":101695,"Delta":219491612},{"NoteNumber":34,"Velocity":43,"Duration":50847,"SoundDuration":50847,"Delta":219491612},{"NoteNumber":46,"Velocity":52,"Duration":50847,"SoundDuration":50847,"Delta":219491612},{"NoteNumber":86,"Velocity":68,"Duration":107142,"SoundDuration":107142,"Delta":219593307},{"NoteNumber":89,"Velocity":81,"Duration":107142,"SoundDuration":107142,"Delta":219593307},{"NoteNumber":34,"Velocity":45,"Duration":107142,"SoundDuration":107142,"Delta":219593307},{"NoteNumber":46,"Velocity":57,"Duration":107142,"SoundDuration":107142,"Delta":219593307},{"NoteNumber":98,"Velocity":71,"Duration":107142,"SoundDuration":107142,"Delta":219700450},{"NoteNumber":86,"Velocity":69,"Duration":92024,"SoundDuration":92024,"Delta":219807593},{"NoteNumber":89,"Velocity":82,"Duration":92024,"SoundDuration":92024,"Delta":219807593},{"NoteNumber":45,"Velocity":53,"Duration":184048,"SoundDuration":184048,"Delta":219807593},{"NoteNumber":57,"Velocity":65,"Duration":184048,"SoundDuration":184048,"Delta":219807593},{"NoteNumber":98,"Velocity":73,"Duration":92024,"SoundDuration":92024,"Delta":219899617},{"NoteNumber":86,"Velocity":70,"Duration":96462,"SoundDuration":96462,"Delta":219991642},{"NoteNumber":89,"Velocity":82,"Duration":96462,"SoundDuration":96462,"Delta":219991642},{"NoteNumber":98,"Velocity":74,"Duration":96462,"SoundDuration":96462,"Delta":220088105},{"NoteNumber":33,"Velocity":44,"Duration":48231,"SoundDuration":48231,"Delta":220088105},{"NoteNumber":45,"Velocity":54,"Duration":48231,"SoundDuration":48231,"Delta":220088105},{"NoteNumber":86,"Velocity":70,"Duration":103448,"SoundDuration":103448,"Delta":220184568},{"NoteNumber":89,"Velocity":83,"Duration":103448,"SoundDuration":103448,"Delta":220184568},{"NoteNumber":33,"Velocity":44,"Duration":103448,"SoundDuration":103448,"Delta":220184568},{"NoteNumber":45,"Velocity":55,"Duration":103448,"SoundDuration":103448,"Delta":220184568},{"NoteNumber":98,"Velocity":72,"Duration":103448,"SoundDuration":103448,"Delta":220288016},{"NoteNumber":86,"Velocity":72,"Duration":99667,"SoundDuration":99667,"Delta":220391464},{"NoteNumber":89,"Velocity":85,"Duration":99667,"SoundDuration":99667,"Delta":220391464},{"NoteNumber":46,"Velocity":56,"Duration":99667,"SoundDuration":99667,"Delta":220391464},{"NoteNumber":58,"Velocity":70,"Duration":99667,"SoundDuration":99667,"Delta":220391464},{"NoteNumber":98,"Velocity":74,"Duration":102529,"SoundDuration":102529,"Delta":220491132},{"NoteNumber":86,"Velocity":72,"Duration":101351,"SoundDuration":101351,"Delta":220593661},{"NoteNumber":89,"Velocity":85,"Duration":101351,"SoundDuration":101351,"Delta":220593661},{"NoteNumber":98,"Velocity":76,"Duration":101351,"SoundDuration":101351,"Delta":220695012},{"NoteNumber":32,"Velocity":46,"Duration":50675,"SoundDuration":50675,"Delta":220695012},{"NoteNumber":44,"Velocity":58,"Duration":50675,"SoundDuration":50675,"Delta":220695012},{"NoteNumber":86,"Velocity":73,"Duration":107527,"SoundDuration":107527,"Delta":220796363},{"NoteNumber":89,"Velocity":87,"Duration":107527,"SoundDuration":107527,"Delta":220796363},{"NoteNumber":32,"Velocity":49,"Duration":107527,"SoundDuration":107527,"Delta":220796363},{"NoteNumber":44,"Velocity":62,"Duration":107527,"SoundDuration":107527,"Delta":220796363},{"NoteNumber":98,"Velocity":76,"Duration":107527,"SoundDuration":107527,"Delta":220903890},{"NoteNumber":86,"Velocity":73,"Duration":94339,"SoundDuration":94339,"Delta":221011417},{"NoteNumber":89,"Velocity":89,"Duration":94339,"SoundDuration":94339,"Delta":221011417},{"NoteNumber":47,"Velocity":58,"Duration":188679,"SoundDuration":188679,"Delta":221011417},{"NoteNumber":59,"Velocity":71,"Duration":188679,"SoundDuration":188679,"Delta":221011417},{"NoteNumber":98,"Velocity":79,"Duration":94339,"SoundDuration":94339,"Delta":221105757},{"NoteNumber":86,"Velocity":75,"Duration":109091,"SoundDuration":109091,"Delta":221200096},{"NoteNumber":89,"Velocity":89,"Duration":109091,"SoundDuration":109091,"Delta":221200096},{"NoteNumber":98,"Velocity":80,"Duration":109091,"SoundDuration":109091,"Delta":221309187},{"NoteNumber":32,"Velocity":48,"Duration":54545,"SoundDuration":54545,"Delta":221309187},{"NoteNumber":44,"Velocity":60,"Duration":54545,"SoundDuration":54545,"Delta":221309187},{"NoteNumber":86,"Velocity":76,"Duration":111940,"SoundDuration":111940,"Delta":221418278},{"NoteNumber":89,"Velocity":90,"Duration":111940,"SoundDuration":111940,"Delta":221418278},{"NoteNumber":32,"Velocity":48,"Duration":111940,"SoundDuration":111940,"Delta":221418278},{"NoteNumber":44,"Velocity":60,"Duration":111940,"SoundDuration":111940,"Delta":221418278},{"NoteNumber":98,"Velocity":78,"Duration":111940,"SoundDuration":111940,"Delta":221530219},{"NoteNumber":87,"Velocity":77,"Duration":113566,"SoundDuration":113566,"Delta":221642159},{"NoteNumber":90,"Velocity":90,"Duration":113566,"SoundDuration":113566,"Delta":221642159},{"NoteNumber":47,"Velocity":63,"Duration":113566,"SoundDuration":113566,"Delta":221642159},{"NoteNumber":59,"Velocity":76,"Duration":113566,"SoundDuration":113566,"Delta":221642159},{"NoteNumber":99,"Velocity":81,"Duration":116495,"SoundDuration":116495,"Delta":221755726},{"NoteNumber":87,"Velocity":78,"Duration":120568,"SoundDuration":120568,"Delta":221872221},{"NoteNumber":90,"Velocity":92,"Duration":120568,"SoundDuration":120568,"Delta":221872221},{"NoteNumber":99,"Velocity":81,"Duration":130385,"SoundDuration":130385,"Delta":221992790},{"NoteNumber":31,"Velocity":52,"Duration":63837,"SoundDuration":63837,"Delta":221992790},{"NoteNumber":43,"Velocity":63,"Duration":63837,"SoundDuration":63837,"Delta":221992790},{"NoteNumber":87,"Velocity":79,"Duration":138248,"SoundDuration":138248,"Delta":222123176},{"NoteNumber":90,"Velocity":94,"Duration":138248,"SoundDuration":138248,"Delta":222123176},{"NoteNumber":31,"Velocity":53,"Duration":138248,"SoundDuration":138248,"Delta":222123176},{"NoteNumber":43,"Velocity":67,"Duration":138248,"SoundDuration":138248,"Delta":222123176},{"NoteNumber":99,"Velocity":82,"Duration":138248,"SoundDuration":138248,"Delta":222261424},{"NoteNumber":96,"Velocity":75,"Duration":209058,"SoundDuration":209058,"Delta":222399673},{"NoteNumber":88,"Velocity":75,"Duration":209058,"SoundDuration":209058,"Delta":222399673},{"NoteNumber":91,"Velocity":75,"Duration":209058,"SoundDuration":209058,"Delta":222399673},{"NoteNumber":100,"Velocity":106,"Duration":209058,"SoundDuration":209058,"Delta":222399673},{"NoteNumber":36,"Velocity":50,"Duration":209058,"SoundDuration":209058,"Delta":222399673},{"NoteNumber":40,"Velocity":50,"Duration":209058,"SoundDuration":209058,"Delta":222399673},{"NoteNumber":43,"Velocity":50,"Duration":209058,"SoundDuration":209058,"Delta":222399673},{"NoteNumber":48,"Velocity":61,"Duration":209058,"SoundDuration":209058,"Delta":222399673},{"NoteNumber":84,"Velocity":66,"Duration":51020,"SoundDuration":51020,"Delta":222716259},{"NoteNumber":88,"Velocity":66,"Duration":51020,"SoundDuration":51020,"Delta":222716259},{"NoteNumber":91,"Velocity":66,"Duration":51020,"SoundDuration":51020,"Delta":222716259},{"NoteNumber":96,"Velocity":86,"Duration":51020,"SoundDuration":51020,"Delta":222716259},{"NoteNumber":40,"Velocity":41,"Duration":51020,"SoundDuration":51020,"Delta":222716259},{"NoteNumber":43,"Velocity":41,"Duration":51020,"SoundDuration":51020,"Delta":222716259},{"NoteNumber":52,"Velocity":50,"Duration":51020,"SoundDuration":51020,"Delta":222716259},{"NoteNumber":48,"Velocity":41,"Duration":51020,"SoundDuration":51020,"Delta":222716259},{"NoteNumber":88,"Velocity":66,"Duration":110294,"SoundDuration":110294,"Delta":222818300},{"NoteNumber":84,"Velocity":66,"Duration":110294,"SoundDuration":110294,"Delta":222818300},{"NoteNumber":91,"Velocity":66,"Duration":110294,"SoundDuration":110294,"Delta":222818300},{"NoteNumber":96,"Velocity":86,"Duration":110294,"SoundDuration":110294,"Delta":222818300},{"NoteNumber":40,"Velocity":41,"Duration":110294,"SoundDuration":110294,"Delta":222818300},{"NoteNumber":43,"Velocity":41,"Duration":110294,"SoundDuration":110294,"Delta":222818300},{"NoteNumber":48,"Velocity":41,"Duration":110294,"SoundDuration":110294,"Delta":222818300},{"NoteNumber":52,"Velocity":50,"Duration":110294,"SoundDuration":110294,"Delta":222818300},{"NoteNumber":96,"Velocity":99,"Duration":106761,"SoundDuration":106761,"Delta":223038888},{"NoteNumber":88,"Velocity":75,"Duration":106761,"SoundDuration":106761,"Delta":223038888},{"NoteNumber":84,"Velocity":75,"Duration":106761,"SoundDuration":106761,"Delta":223038888},{"NoteNumber":91,"Velocity":75,"Duration":106761,"SoundDuration":106761,"Delta":223038888},{"NoteNumber":40,"Velocity":52,"Duration":106761,"SoundDuration":106761,"Delta":223038888},{"NoteNumber":43,"Velocity":52,"Duration":106761,"SoundDuration":106761,"Delta":223038888},{"NoteNumber":48,"Velocity":52,"Duration":106761,"SoundDuration":106761,"Delta":223038888},{"NoteNumber":52,"Velocity":63,"Duration":106761,"SoundDuration":106761,"Delta":223038888},{"NoteNumber":79,"Velocity":68,"Duration":53763,"SoundDuration":53763,"Delta":223363522},{"NoteNumber":84,"Velocity":68,"Duration":53763,"SoundDuration":53763,"Delta":223363522},{"NoteNumber":88,"Velocity":68,"Duration":53763,"SoundDuration":53763,"Delta":223363522},{"NoteNumber":91,"Velocity":88,"Duration":53763,"SoundDuration":53763,"Delta":223363522},{"NoteNumber":43,"Velocity":43,"Duration":53763,"SoundDuration":53763,"Delta":223363522},{"NoteNumber":48,"Velocity":43,"Duration":53763,"SoundDuration":53763,"Delta":223363522},{"NoteNumber":55,"Velocity":52,"Duration":53763,"SoundDuration":53763,"Delta":223363522},{"NoteNumber":52,"Velocity":43,"Duration":53763,"SoundDuration":53763,"Delta":223363522},{"NoteNumber":79,"Velocity":68,"Duration":115829,"SoundDuration":115829,"Delta":223471049},{"NoteNumber":84,"Velocity":68,"Duration":115829,"SoundDuration":115829,"Delta":223471049},{"NoteNumber":88,"Velocity":68,"Duration":115829,"SoundDuration":115829,"Delta":223471049},{"NoteNumber":91,"Velocity":88,"Duration":115829,"SoundDuration":115829,"Delta":223471049},{"NoteNumber":43,"Velocity":45,"Duration":115829,"SoundDuration":115829,"Delta":223471049},{"NoteNumber":48,"Velocity":45,"Duration":115829,"SoundDuration":115829,"Delta":223471049},{"NoteNumber":52,"Velocity":45,"Duration":115829,"SoundDuration":115829,"Delta":223471049},{"NoteNumber":55,"Velocity":54,"Duration":115829,"SoundDuration":115829,"Delta":223471049},{"NoteNumber":84,"Velocity":79,"Duration":104894,"SoundDuration":104894,"Delta":223702709},{"NoteNumber":81,"Velocity":79,"Duration":104894,"SoundDuration":104894,"Delta":223702709},{"NoteNumber":76,"Velocity":79,"Duration":104894,"SoundDuration":104894,"Delta":223702709},{"NoteNumber":88,"Velocity":102,"Duration":104894,"SoundDuration":104894,"Delta":223702709},{"NoteNumber":45,"Velocity":52,"Duration":104894,"SoundDuration":104894,"Delta":223702709},{"NoteNumber":48,"Velocity":52,"Duration":104894,"SoundDuration":104894,"Delta":223702709},{"NoteNumber":52,"Velocity":52,"Duration":104894,"SoundDuration":104894,"Delta":223702709},{"NoteNumber":57,"Velocity":63,"Duration":104894,"SoundDuration":104894,"Delta":223702709},{"NoteNumber":72,"Velocity":72,"Duration":51369,"SoundDuration":51369,"Delta":224022793},{"NoteNumber":76,"Velocity":72,"Duration":51369,"SoundDuration":51369,"Delta":224022793},{"NoteNumber":81,"Velocity":72,"Duration":51369,"SoundDuration":51369,"Delta":224022793},{"NoteNumber":84,"Velocity":91,"Duration":51369,"SoundDuration":51369,"Delta":224022793},{"NoteNumber":48,"Velocity":43,"Duration":51369,"SoundDuration":51369,"Delta":224022793},{"NoteNumber":52,"Velocity":43,"Duration":51369,"SoundDuration":51369,"Delta":224022793},{"NoteNumber":57,"Velocity":43,"Duration":51369,"SoundDuration":51369,"Delta":224022793},{"NoteNumber":60,"Velocity":52,"Duration":51369,"SoundDuration":51369,"Delta":224022793},{"NoteNumber":72,"Velocity":72,"Duration":111524,"SoundDuration":111524,"Delta":224125533},{"NoteNumber":76,"Velocity":72,"Duration":111524,"SoundDuration":111524,"Delta":224125533},{"NoteNumber":81,"Velocity":72,"Duration":111524,"SoundDuration":111524,"Delta":224125533},{"NoteNumber":84,"Velocity":91,"Duration":111524,"SoundDuration":111524,"Delta":224125533},{"NoteNumber":48,"Velocity":43,"Duration":111524,"SoundDuration":111524,"Delta":224125533},{"NoteNumber":52,"Velocity":43,"Duration":111524,"SoundDuration":111524,"Delta":224125533},{"NoteNumber":57,"Velocity":43,"Duration":111524,"SoundDuration":111524,"Delta":224125533},{"NoteNumber":60,"Velocity":52,"Duration":111524,"SoundDuration":111524,"Delta":224125533},{"NoteNumber":72,"Velocity":79,"Duration":654546,"SoundDuration":654546,"Delta":224348581},{"NoteNumber":76,"Velocity":79,"Duration":654546,"SoundDuration":654546,"Delta":224348581},{"NoteNumber":81,"Velocity":79,"Duration":654546,"SoundDuration":654546,"Delta":224348581},{"NoteNumber":84,"Velocity":102,"Duration":654546,"SoundDuration":654546,"Delta":224348581},{"NoteNumber":48,"Velocity":50,"Duration":654546,"SoundDuration":654546,"Delta":224348581},{"NoteNumber":52,"Velocity":50,"Duration":654546,"SoundDuration":654546,"Delta":224348581},{"NoteNumber":57,"Velocity":50,"Duration":654546,"SoundDuration":654546,"Delta":224348581},{"NoteNumber":60,"Velocity":61,"Duration":654546,"SoundDuration":654546,"Delta":224348581},{"NoteNumber":77,"Velocity":75,"Duration":213523,"SoundDuration":213523,"Delta":225003127},{"NoteNumber":79,"Velocity":75,"Duration":213523,"SoundDuration":213523,"Delta":225003127},{"NoteNumber":83,"Velocity":75,"Duration":213523,"SoundDuration":213523,"Delta":225003127},{"NoteNumber":91,"Velocity":99,"Duration":213523,"SoundDuration":213523,"Delta":225003127},{"NoteNumber":43,"Velocity":50,"Duration":213523,"SoundDuration":213523,"Delta":225003127},{"NoteNumber":50,"Velocity":50,"Duration":213523,"SoundDuration":213523,"Delta":225003127},{"NoteNumber":55,"Velocity":59,"Duration":213523,"SoundDuration":213523,"Delta":225003127},{"NoteNumber":74,"Velocity":68,"Duration":52264,"SoundDuration":52264,"Delta":225326139},{"NoteNumber":79,"Velocity":68,"Duration":52264,"SoundDuration":52264,"Delta":225326139},{"NoteNumber":86,"Velocity":88,"Duration":52264,"SoundDuration":52264,"Delta":225326139},{"NoteNumber":55,"Velocity":43,"Duration":52264,"SoundDuration":52264,"Delta":225326139},{"NoteNumber":59,"Velocity":43,"Duration":52264,"SoundDuration":52264,"Delta":225326139},{"NoteNumber":65,"Velocity":52,"Duration":52264,"SoundDuration":52264,"Delta":225326139},{"NoteNumber":74,"Velocity":68,"Duration":108303,"SoundDuration":108303,"Delta":225430669},{"NoteNumber":79,"Velocity":68,"Duration":108303,"SoundDuration":108303,"Delta":225430669},{"NoteNumber":86,"Velocity":88,"Duration":108303,"SoundDuration":108303,"Delta":225430669},{"NoteNumber":55,"Velocity":43,"Duration":108303,"SoundDuration":108303,"Delta":225430669},{"NoteNumber":59,"Velocity":43,"Duration":108303,"SoundDuration":108303,"Delta":225430669},{"NoteNumber":65,"Velocity":52,"Duration":108303,"SoundDuration":108303,"Delta":225430669},{"NoteNumber":79,"Velocity":75,"Duration":102040,"SoundDuration":102040,"Delta":225647275},{"NoteNumber":73,"Velocity":75,"Duration":102040,"SoundDuration":102040,"Delta":225647275},{"NoteNumber":85,"Velocity":99,"Duration":102040,"SoundDuration":102040,"Delta":225647275},{"NoteNumber":58,"Velocity":50,"Duration":102040,"SoundDuration":102040,"Delta":225647275},{"NoteNumber":55,"Velocity":50,"Duration":102040,"SoundDuration":102040,"Delta":225647275},{"NoteNumber":65,"Velocity":61,"Duration":102040,"SoundDuration":102040,"Delta":225647275},{"NoteNumber":79,"Velocity":79,"Duration":105633,"SoundDuration":105633,"Delta":225851357},{"NoteNumber":74,"Velocity":79,"Duration":105633,"SoundDuration":105633,"Delta":225851357},{"NoteNumber":86,"Velocity":102,"Duration":105633,"SoundDuration":105633,"Delta":225851357},{"NoteNumber":55,"Velocity":55,"Duration":105633,"SoundDuration":105633,"Delta":225851357},{"NoteNumber":59,"Velocity":55,"Duration":105633,"SoundDuration":105633,"Delta":225851357},{"NoteNumber":65,"Velocity":64,"Duration":105633,"SoundDuration":105633,"Delta":225851357},{"NoteNumber":75,"Velocity":79,"Duration":157894,"SoundDuration":157894,"Delta":226062624},{"NoteNumber":79,"Velocity":79,"Duration":157894,"SoundDuration":157894,"Delta":226062624},{"NoteNumber":87,"Velocity":102,"Duration":157894,"SoundDuration":157894,"Delta":226062624},{"NoteNumber":55,"Velocity":57,"Duration":157894,"SoundDuration":157894,"Delta":226062624},{"NoteNumber":59,"Velocity":57,"Duration":157894,"SoundDuration":157894,"Delta":226062624},{"NoteNumber":65,"Velocity":70,"Duration":157894,"SoundDuration":157894,"Delta":226062624},{"NoteNumber":76,"Velocity":84,"Duration":666665,"SoundDuration":666665,"Delta":226378414},{"NoteNumber":79,"Velocity":84,"Duration":666665,"SoundDuration":666665,"Delta":226378414},{"NoteNumber":88,"Velocity":109,"Duration":666665,"SoundDuration":666665,"Delta":226378414},{"NoteNumber":60,"Velocity":63,"Duration":666665,"SoundDuration":666665,"Delta":226378414},{"NoteNumber":64,"Velocity":73,"Duration":666665,"SoundDuration":666665,"Delta":226378414},{"NoteNumber":72,"Velocity":75,"Duration":237154,"SoundDuration":237154,"Delta":227045080},{"NoteNumber":79,"Velocity":75,"Duration":237154,"SoundDuration":237154,"Delta":227045080},{"NoteNumber":84,"Velocity":99,"Duration":237154,"SoundDuration":237154,"Delta":227045080},{"NoteNumber":64,"Velocity":54,"Duration":237154,"SoundDuration":237154,"Delta":227045080},{"NoteNumber":67,"Velocity":64,"Duration":237154,"SoundDuration":237154,"Delta":227045080},{"NoteNumber":96,"Velocity":75,"Duration":211267,"SoundDuration":211267,"Delta":227756542},{"NoteNumber":88,"Velocity":75,"Duration":211267,"SoundDuration":211267,"Delta":227756542},{"NoteNumber":91,"Velocity":75,"Duration":211267,"SoundDuration":211267,"Delta":227756542},{"NoteNumber":100,"Velocity":106,"Duration":211267,"SoundDuration":211267,"Delta":227756542},{"NoteNumber":36,"Velocity":50,"Duration":211267,"SoundDuration":211267,"Delta":227756542},{"NoteNumber":40,"Velocity":50,"Duration":211267,"SoundDuration":211267,"Delta":227756542},{"NoteNumber":43,"Velocity":50,"Duration":211267,"SoundDuration":211267,"Delta":227756542},{"NoteNumber":48,"Velocity":61,"Duration":211267,"SoundDuration":211267,"Delta":227756542},{"NoteNumber":84,"Velocity":66,"Duration":51020,"SoundDuration":51020,"Delta":228077699},{"NoteNumber":88,"Velocity":66,"Duration":51020,"SoundDuration":51020,"Delta":228077699},{"NoteNumber":91,"Velocity":66,"Duration":51020,"SoundDuration":51020,"Delta":228077699},{"NoteNumber":96,"Velocity":86,"Duration":51020,"SoundDuration":51020,"Delta":228077699},{"NoteNumber":40,"Velocity":41,"Duration":51020,"SoundDuration":51020,"Delta":228077699},{"NoteNumber":43,"Velocity":41,"Duration":51020,"SoundDuration":51020,"Delta":228077699},{"NoteNumber":52,"Velocity":50,"Duration":51020,"SoundDuration":51020,"Delta":228077699},{"NoteNumber":48,"Velocity":41,"Duration":51020,"SoundDuration":51020,"Delta":228077699},{"NoteNumber":88,"Velocity":66,"Duration":112359,"SoundDuration":112359,"Delta":228179740},{"NoteNumber":84,"Velocity":66,"Duration":112359,"SoundDuration":112359,"Delta":228179740},{"NoteNumber":91,"Velocity":66,"Duration":112359,"SoundDuration":112359,"Delta":228179740},{"NoteNumber":96,"Velocity":86,"Duration":112359,"SoundDuration":112359,"Delta":228179740},{"NoteNumber":40,"Velocity":41,"Duration":112359,"SoundDuration":112359,"Delta":228179740},{"NoteNumber":43,"Velocity":41,"Duration":112359,"SoundDuration":112359,"Delta":228179740},{"NoteNumber":48,"Velocity":41,"Duration":112359,"SoundDuration":112359,"Delta":228179740},{"NoteNumber":52,"Velocity":50,"Duration":112359,"SoundDuration":112359,"Delta":228179740},{"NoteNumber":96,"Velocity":99,"Duration":107527,"SoundDuration":107527,"Delta":228404459},{"NoteNumber":88,"Velocity":75,"Duration":107527,"SoundDuration":107527,"Delta":228404459},{"NoteNumber":84,"Velocity":75,"Duration":107527,"SoundDuration":107527,"Delta":228404459},{"NoteNumber":91,"Velocity":75,"Duration":107527,"SoundDuration":107527,"Delta":228404459},{"NoteNumber":40,"Velocity":52,"Duration":107527,"SoundDuration":107527,"Delta":228404459},{"NoteNumber":43,"Velocity":52,"Duration":107527,"SoundDuration":107527,"Delta":228404459},{"NoteNumber":48,"Velocity":52,"Duration":107527,"SoundDuration":107527,"Delta":228404459},{"NoteNumber":52,"Velocity":63,"Duration":107527,"SoundDuration":107527,"Delta":228404459},{"NoteNumber":79,"Velocity":68,"Duration":52264,"SoundDuration":52264,"Delta":228728604},{"NoteNumber":84,"Velocity":68,"Duration":52264,"SoundDuration":52264,"Delta":228728604},{"NoteNumber":88,"Velocity":68,"Duration":52264,"SoundDuration":52264,"Delta":228728604},{"NoteNumber":91,"Velocity":88,"Duration":52264,"SoundDuration":52264,"Delta":228728604},{"NoteNumber":43,"Velocity":43,"Duration":52264,"SoundDuration":52264,"Delta":228728604},{"NoteNumber":48,"Velocity":43,"Duration":52264,"SoundDuration":52264,"Delta":228728604},{"NoteNumber":55,"Velocity":52,"Duration":52264,"SoundDuration":52264,"Delta":228728604},{"NoteNumber":52,"Velocity":43,"Duration":52264,"SoundDuration":52264,"Delta":228728604},{"NoteNumber":79,"Velocity":68,"Duration":112782,"SoundDuration":112782,"Delta":228833133},{"NoteNumber":84,"Velocity":68,"Duration":112782,"SoundDuration":112782,"Delta":228833133},{"NoteNumber":88,"Velocity":68,"Duration":112782,"SoundDuration":112782,"Delta":228833133},{"NoteNumber":91,"Velocity":88,"Duration":112782,"SoundDuration":112782,"Delta":228833133},{"NoteNumber":43,"Velocity":45,"Duration":112782,"SoundDuration":112782,"Delta":228833133},{"NoteNumber":48,"Velocity":45,"Duration":112782,"SoundDuration":112782,"Delta":228833133},{"NoteNumber":52,"Velocity":45,"Duration":112782,"SoundDuration":112782,"Delta":228833133},{"NoteNumber":55,"Velocity":54,"Duration":112782,"SoundDuration":112782,"Delta":228833133},{"NoteNumber":84,"Velocity":79,"Duration":107913,"SoundDuration":107913,"Delta":229058697},{"NoteNumber":81,"Velocity":79,"Duration":107913,"SoundDuration":107913,"Delta":229058697},{"NoteNumber":76,"Velocity":79,"Duration":107913,"SoundDuration":107913,"Delta":229058697},{"NoteNumber":88,"Velocity":102,"Duration":107913,"SoundDuration":107913,"Delta":229058697},{"NoteNumber":45,"Velocity":52,"Duration":107913,"SoundDuration":107913,"Delta":229058697},{"NoteNumber":48,"Velocity":52,"Duration":107913,"SoundDuration":107913,"Delta":229058697},{"NoteNumber":52,"Velocity":52,"Duration":107913,"SoundDuration":107913,"Delta":229058697},{"NoteNumber":57,"Velocity":63,"Duration":107913,"SoundDuration":107913,"Delta":229058697},{"NoteNumber":72,"Velocity":72,"Duration":51903,"SoundDuration":51903,"Delta":229384819},{"NoteNumber":76,"Velocity":72,"Duration":51903,"SoundDuration":51903,"Delta":229384819},{"NoteNumber":81,"Velocity":72,"Duration":51903,"SoundDuration":51903,"Delta":229384819},{"NoteNumber":84,"Velocity":91,"Duration":51903,"SoundDuration":51903,"Delta":229384819},{"NoteNumber":48,"Velocity":43,"Duration":51903,"SoundDuration":51903,"Delta":229384819},{"NoteNumber":52,"Velocity":43,"Duration":51903,"SoundDuration":51903,"Delta":229384819},{"NoteNumber":57,"Velocity":43,"Duration":51903,"SoundDuration":51903,"Delta":229384819},{"NoteNumber":60,"Velocity":52,"Duration":51903,"SoundDuration":51903,"Delta":229384819},{"NoteNumber":72,"Velocity":72,"Duration":112359,"SoundDuration":112359,"Delta":229488625},{"NoteNumber":76,"Velocity":72,"Duration":112359,"SoundDuration":112359,"Delta":229488625},{"NoteNumber":81,"Velocity":72,"Duration":112359,"SoundDuration":112359,"Delta":229488625},{"NoteNumber":84,"Velocity":91,"Duration":112359,"SoundDuration":112359,"Delta":229488625},{"NoteNumber":48,"Velocity":43,"Duration":112359,"SoundDuration":112359,"Delta":229488625},{"NoteNumber":52,"Velocity":43,"Duration":112359,"SoundDuration":112359,"Delta":229488625},{"NoteNumber":57,"Velocity":43,"Duration":112359,"SoundDuration":112359,"Delta":229488625},{"NoteNumber":60,"Velocity":52,"Duration":112359,"SoundDuration":112359,"Delta":229488625},{"NoteNumber":72,"Velocity":79,"Duration":664206,"SoundDuration":664206,"Delta":229713344},{"NoteNumber":76,"Velocity":79,"Duration":664206,"SoundDuration":664206,"Delta":229713344},{"NoteNumber":81,"Velocity":79,"Duration":664206,"SoundDuration":664206,"Delta":229713344},{"NoteNumber":84,"Velocity":102,"Duration":664206,"SoundDuration":664206,"Delta":229713344},{"NoteNumber":48,"Velocity":50,"Duration":664206,"SoundDuration":664206,"Delta":229713344},{"NoteNumber":52,"Velocity":50,"Duration":664206,"SoundDuration":664206,"Delta":229713344},{"NoteNumber":57,"Velocity":50,"Duration":664206,"SoundDuration":664206,"Delta":229713344},{"NoteNumber":60,"Velocity":61,"Duration":664206,"SoundDuration":664206,"Delta":229713344},{"NoteNumber":75,"Velocity":75,"Duration":223880,"SoundDuration":223880,"Delta":230377550},{"NoteNumber":78,"Velocity":75,"Duration":223880,"SoundDuration":223880,"Delta":230377550},{"NoteNumber":87,"Velocity":99,"Duration":223880,"SoundDuration":223880,"Delta":230377550},{"NoteNumber":54,"Velocity":50,"Duration":223880,"SoundDuration":223880,"Delta":230377550},{"NoteNumber":47,"Velocity":50,"Duration":223880,"SoundDuration":223880,"Delta":230377550},{"NoteNumber":51,"Velocity":50,"Duration":223880,"SoundDuration":223880,"Delta":230377550},{"NoteNumber":59,"Velocity":59,"Duration":223880,"SoundDuration":223880,"Delta":230377550},{"NoteNumber":71,"Velocity":68,"Duration":58139,"SoundDuration":58139,"Delta":230717710},{"NoteNumber":75,"Velocity":68,"Duration":58139,"SoundDuration":58139,"Delta":230717710},{"NoteNumber":78,"Velocity":88,"Duration":58139,"SoundDuration":58139,"Delta":230717710},{"NoteNumber":59,"Velocity":43,"Duration":58139,"SoundDuration":58139,"Delta":230717710},{"NoteNumber":63,"Velocity":43,"Duration":58139,"SoundDuration":58139,"Delta":230717710},{"NoteNumber":66,"Velocity":52,"Duration":58139,"SoundDuration":58139,"Delta":230717710},{"NoteNumber":71,"Velocity":68,"Duration":116278,"SoundDuration":116278,"Delta":230833989},{"NoteNumber":75,"Velocity":68,"Duration":116278,"SoundDuration":116278,"Delta":230833989},{"NoteNumber":78,"Velocity":88,"Duration":116278,"SoundDuration":116278,"Delta":230833989},{"NoteNumber":59,"Velocity":43,"Duration":116278,"SoundDuration":116278,"Delta":230833989},{"NoteNumber":63,"Velocity":43,"Duration":116278,"SoundDuration":116278,"Delta":230833989},{"NoteNumber":66,"Velocity":52,"Duration":116278,"SoundDuration":116278,"Delta":230833989},{"NoteNumber":75,"Velocity":67,"Duration":112782,"SoundDuration":112782,"Delta":231066547},{"NoteNumber":71,"Velocity":67,"Duration":112782,"SoundDuration":112782,"Delta":231066547},{"NoteNumber":77,"Velocity":89,"Duration":112782,"SoundDuration":112782,"Delta":231066547},{"NoteNumber":63,"Velocity":45,"Duration":112782,"SoundDuration":112782,"Delta":231066547},{"NoteNumber":59,"Velocity":45,"Duration":112782,"SoundDuration":112782,"Delta":231066547},{"NoteNumber":65,"Velocity":54,"Duration":112782,"SoundDuration":112782,"Delta":231066547},{"NoteNumber":75,"Velocity":71,"Duration":127118,"SoundDuration":127118,"Delta":231292111},{"NoteNumber":71,"Velocity":71,"Duration":127118,"SoundDuration":127118,"Delta":231292111},{"NoteNumber":78,"Velocity":91,"Duration":127118,"SoundDuration":127118,"Delta":231292111},{"NoteNumber":59,"Velocity":49,"Duration":127118,"SoundDuration":127118,"Delta":231292111},{"NoteNumber":63,"Velocity":49,"Duration":127118,"SoundDuration":127118,"Delta":231292111},{"NoteNumber":66,"Velocity":57,"Duration":127118,"SoundDuration":127118,"Delta":231292111},{"NoteNumber":71,"Velocity":71,"Duration":177514,"SoundDuration":177514,"Delta":231546348},{"NoteNumber":75,"Velocity":71,"Duration":177514,"SoundDuration":177514,"Delta":231546348},{"NoteNumber":83,"Velocity":91,"Duration":177514,"SoundDuration":177514,"Delta":231546348},{"NoteNumber":59,"Velocity":51,"Duration":177514,"SoundDuration":177514,"Delta":231546348},{"NoteNumber":63,"Velocity":51,"Duration":177514,"SoundDuration":177514,"Delta":231546348},{"NoteNumber":66,"Velocity":63,"Duration":177514,"SoundDuration":177514,"Delta":231546348},{"NoteNumber":75,"Velocity":84,"Duration":792950,"SoundDuration":792950,"Delta":231901378},{"NoteNumber":78,"Velocity":84,"Duration":792950,"SoundDuration":792950,"Delta":231901378},{"NoteNumber":87,"Velocity":109,"Duration":792950,"SoundDuration":792950,"Delta":231901378},{"NoteNumber":59,"Velocity":63,"Duration":792950,"SoundDuration":792950,"Delta":231901378},{"NoteNumber":63,"Velocity":63,"Duration":792950,"SoundDuration":792950,"Delta":231901378},{"NoteNumber":66,"Velocity":63,"Duration":792950,"SoundDuration":792950,"Delta":231901378},{"NoteNumber":71,"Velocity":73,"Duration":792950,"SoundDuration":792950,"Delta":231901378},{"NoteNumber":77,"Velocity":75,"Duration":264317,"SoundDuration":264317,"Delta":232694329},{"NoteNumber":74,"Velocity":75,"Duration":264317,"SoundDuration":264317,"Delta":232694329},{"NoteNumber":79,"Velocity":75,"Duration":264317,"SoundDuration":264317,"Delta":232694329},{"NoteNumber":86,"Velocity":99,"Duration":264317,"SoundDuration":264317,"Delta":232694329},{"NoteNumber":55,"Velocity":54,"Duration":264317,"SoundDuration":264317,"Delta":232694329},{"NoteNumber":62,"Velocity":54,"Duration":264317,"SoundDuration":264317,"Delta":232694329},{"NoteNumber":65,"Velocity":54,"Duration":264317,"SoundDuration":264317,"Delta":232694329},{"NoteNumber":71,"Velocity":64,"Duration":264317,"SoundDuration":264317,"Delta":232694329},{"NoteNumber":88,"Velocity":72,"Duration":136363,"SoundDuration":136363,"Delta":233487280},{"NoteNumber":84,"Velocity":72,"Duration":136363,"SoundDuration":136363,"Delta":233487280},{"NoteNumber":79,"Velocity":61,"Duration":136363,"SoundDuration":136363,"Delta":233487280},{"NoteNumber":76,"Velocity":61,"Duration":136363,"SoundDuration":136363,"Delta":233487280},{"NoteNumber":60,"Velocity":48,"Duration":204545,"SoundDuration":204545,"Delta":233487280},{"NoteNumber":64,"Velocity":48,"Duration":204545,"SoundDuration":204545,"Delta":233487280},{"NoteNumber":67,"Velocity":48,"Duration":204545,"SoundDuration":204545,"Delta":233487280},{"NoteNumber":72,"Velocity":57,"Duration":204545,"SoundDuration":204545,"Delta":233487280},{"NoteNumber":55,"Velocity":41,"Duration":61363,"SoundDuration":61363,"Delta":233691825},{"NoteNumber":60,"Velocity":41,"Duration":61363,"SoundDuration":61363,"Delta":233691825},{"NoteNumber":64,"Velocity":41,"Duration":61363,"SoundDuration":61363,"Delta":233691825},{"NoteNumber":67,"Velocity":49,"Duration":61363,"SoundDuration":61363,"Delta":233691825},{"NoteNumber":84,"Velocity":72,"Duration":212264,"SoundDuration":212264,"Delta":233760007},{"NoteNumber":79,"Velocity":61,"Duration":212264,"SoundDuration":212264,"Delta":233760007},{"NoteNumber":76,"Velocity":61,"Duration":212264,"SoundDuration":212264,"Delta":233760007},{"NoteNumber":72,"Velocity":61,"Duration":212264,"SoundDuration":212264,"Delta":233760007},{"NoteNumber":55,"Velocity":49,"Duration":70754,"SoundDuration":70754,"Delta":233760007},{"NoteNumber":60,"Velocity":49,"Duration":70754,"SoundDuration":70754,"Delta":233760007},{"NoteNumber":64,"Velocity":49,"Duration":70754,"SoundDuration":70754,"Delta":233760007},{"NoteNumber":67,"Velocity":58,"Duration":70754,"SoundDuration":70754,"Delta":233760007},{"NoteNumber":79,"Velocity":63,"Duration":63679,"SoundDuration":63679,"Delta":233972271},{"NoteNumber":76,"Velocity":53,"Duration":63679,"SoundDuration":63679,"Delta":233972271},{"NoteNumber":72,"Velocity":53,"Duration":63679,"SoundDuration":63679,"Delta":233972271},{"NoteNumber":67,"Velocity":53,"Duration":63679,"SoundDuration":63679,"Delta":233972271},{"NoteNumber":67,"Velocity":61,"Duration":68493,"SoundDuration":68493,"Delta":234043026},{"NoteNumber":72,"Velocity":61,"Duration":68493,"SoundDuration":68493,"Delta":234043026},{"NoteNumber":76,"Velocity":61,"Duration":68493,"SoundDuration":68493,"Delta":234043026},{"NoteNumber":79,"Velocity":72,"Duration":68493,"SoundDuration":68493,"Delta":234043026},{"NoteNumber":64,"Velocity":58,"Duration":205479,"SoundDuration":205479,"Delta":234043026},{"NoteNumber":60,"Velocity":49,"Duration":205479,"SoundDuration":205479,"Delta":234043026},{"NoteNumber":55,"Velocity":49,"Duration":205479,"SoundDuration":205479,"Delta":234043026},{"NoteNumber":52,"Velocity":49,"Duration":205479,"SoundDuration":205479,"Delta":234043026},{"NoteNumber":48,"Velocity":43,"Duration":61643,"SoundDuration":61643,"Delta":234248505},{"NoteNumber":52,"Velocity":43,"Duration":61643,"SoundDuration":61643,"Delta":234248505},{"NoteNumber":55,"Velocity":43,"Duration":61643,"SoundDuration":61643,"Delta":234248505},{"NoteNumber":60,"Velocity":51,"Duration":61643,"SoundDuration":61643,"Delta":234248505},{"NoteNumber":64,"Velocity":61,"Duration":220588,"SoundDuration":220588,"Delta":234316999},{"NoteNumber":67,"Velocity":61,"Duration":220588,"SoundDuration":220588,"Delta":234316999},{"NoteNumber":72,"Velocity":61,"Duration":220588,"SoundDuration":220588,"Delta":234316999},{"NoteNumber":76,"Velocity":72,"Duration":220588,"SoundDuration":220588,"Delta":234316999},{"NoteNumber":48,"Velocity":50,"Duration":73529,"SoundDuration":73529,"Delta":234316999},{"NoteNumber":52,"Velocity":50,"Duration":73529,"SoundDuration":73529,"Delta":234316999},{"NoteNumber":55,"Velocity":50,"Duration":73529,"SoundDuration":73529,"Delta":234316999},{"NoteNumber":60,"Velocity":59,"Duration":73529,"SoundDuration":73529,"Delta":234316999},{"NoteNumber":60,"Velocity":54,"Duration":66176,"SoundDuration":66176,"Delta":234537587},{"NoteNumber":64,"Velocity":54,"Duration":66176,"SoundDuration":66176,"Delta":234537587},{"NoteNumber":69,"Velocity":54,"Duration":66176,"SoundDuration":66176,"Delta":234537587},{"NoteNumber":72,"Velocity":63,"Duration":66176,"SoundDuration":66176,"Delta":234537587},{"NoteNumber":72,"Velocity":72,"Duration":68493,"SoundDuration":68493,"Delta":234611116},{"NoteNumber":69,"Velocity":72,"Duration":68493,"SoundDuration":68493,"Delta":234611116},{"NoteNumber":64,"Velocity":61,"Duration":68493,"SoundDuration":68493,"Delta":234611116},{"NoteNumber":60,"Velocity":61,"Duration":68493,"SoundDuration":68493,"Delta":234611116},{"NoteNumber":45,"Velocity":48,"Duration":205479,"SoundDuration":205479,"Delta":234611116},{"NoteNumber":48,"Velocity":48,"Duration":205479,"SoundDuration":205479,"Delta":234611116},{"NoteNumber":52,"Velocity":48,"Duration":205479,"SoundDuration":205479,"Delta":234611116},{"NoteNumber":57,"Velocity":57,"Duration":205479,"SoundDuration":205479,"Delta":234611116},{"NoteNumber":40,"Velocity":41,"Duration":61643,"SoundDuration":61643,"Delta":234816595},{"NoteNumber":45,"Velocity":41,"Duration":61643,"SoundDuration":61643,"Delta":234816595},{"NoteNumber":48,"Velocity":41,"Duration":61643,"SoundDuration":61643,"Delta":234816595},{"NoteNumber":52,"Velocity":49,"Duration":61643,"SoundDuration":61643,"Delta":234816595},{"NoteNumber":69,"Velocity":72,"Duration":213269,"SoundDuration":213269,"Delta":234885089},{"NoteNumber":64,"Velocity":61,"Duration":213269,"SoundDuration":213269,"Delta":234885089},{"NoteNumber":60,"Velocity":61,"Duration":213269,"SoundDuration":213269,"Delta":234885089},{"NoteNumber":57,"Velocity":61,"Duration":213269,"SoundDuration":213269,"Delta":234885089},{"NoteNumber":40,"Velocity":49,"Duration":71089,"SoundDuration":71089,"Delta":234885089},{"NoteNumber":45,"Velocity":49,"Duration":71089,"SoundDuration":71089,"Delta":234885089},{"NoteNumber":48,"Velocity":49,"Duration":71089,"SoundDuration":71089,"Delta":234885089},{"NoteNumber":52,"Velocity":58,"Duration":71089,"SoundDuration":71089,"Delta":234885089},{"NoteNumber":64,"Velocity":63,"Duration":63981,"SoundDuration":63981,"Delta":235098359},{"NoteNumber":60,"Velocity":53,"Duration":63981,"SoundDuration":63981,"Delta":235098359},{"NoteNumber":57,"Velocity":53,"Duration":63981,"SoundDuration":63981,"Delta":235098359},{"NoteNumber":52,"Velocity":53,"Duration":63981,"SoundDuration":63981,"Delta":235098359},{"NoteNumber":52,"Velocity":61,"Duration":71089,"SoundDuration":71089,"Delta":235169449},{"NoteNumber":57,"Velocity":61,"Duration":71089,"SoundDuration":71089,"Delta":235169449},{"NoteNumber":60,"Velocity":61,"Duration":71089,"SoundDuration":71089,"Delta":235169449},{"NoteNumber":64,"Velocity":72,"Duration":71089,"SoundDuration":71089,"Delta":235169449},{"NoteNumber":48,"Velocity":58,"Duration":213269,"SoundDuration":213269,"Delta":235169449},{"NoteNumber":45,"Velocity":49,"Duration":213269,"SoundDuration":213269,"Delta":235169449},{"NoteNumber":40,"Velocity":49,"Duration":213269,"SoundDuration":213269,"Delta":235169449},{"NoteNumber":36,"Velocity":49,"Duration":213269,"SoundDuration":213269,"Delta":235169449},{"NoteNumber":33,"Velocity":43,"Duration":63981,"SoundDuration":63981,"Delta":235382719},{"NoteNumber":36,"Velocity":43,"Duration":63981,"SoundDuration":63981,"Delta":235382719},{"NoteNumber":40,"Velocity":43,"Duration":63981,"SoundDuration":63981,"Delta":235382719},{"NoteNumber":45,"Velocity":51,"Duration":63981,"SoundDuration":63981,"Delta":235382719},{"NoteNumber":48,"Velocity":61,"Duration":234375,"SoundDuration":234375,"Delta":235453809},{"NoteNumber":52,"Velocity":61,"Duration":234375,"SoundDuration":234375,"Delta":235453809},{"NoteNumber":57,"Velocity":61,"Duration":234375,"SoundDuration":234375,"Delta":235453809},{"NoteNumber":60,"Velocity":72,"Duration":234375,"SoundDuration":234375,"Delta":235453809},{"NoteNumber":33,"Velocity":50,"Duration":78125,"SoundDuration":78125,"Delta":235453809},{"NoteNumber":36,"Velocity":50,"Duration":78125,"SoundDuration":78125,"Delta":235453809},{"NoteNumber":40,"Velocity":50,"Duration":78125,"SoundDuration":78125,"Delta":235453809},{"NoteNumber":45,"Velocity":59,"Duration":78125,"SoundDuration":78125,"Delta":235453809},{"NoteNumber":52,"Velocity":54,"Duration":78125,"SoundDuration":78125,"Delta":235688184},{"NoteNumber":64,"Velocity":63,"Duration":78125,"SoundDuration":78125,"Delta":235688184},{"NoteNumber":53,"Velocity":60,"Duration":209789,"SoundDuration":209789,"Delta":235766309},{"NoteNumber":59,"Velocity":60,"Duration":209789,"SoundDuration":209789,"Delta":235766309},{"NoteNumber":67,"Velocity":79,"Duration":209789,"SoundDuration":209789,"Delta":235766309},{"NoteNumber":31,"Velocity":50,"Duration":209789,"SoundDuration":209789,"Delta":235766309},{"NoteNumber":38,"Velocity":50,"Duration":209789,"SoundDuration":209789,"Delta":235766309},{"NoteNumber":43,"Velocity":59,"Duration":209789,"SoundDuration":209789,"Delta":235766309},{"NoteNumber":53,"Velocity":54,"Duration":54347,"SoundDuration":54347,"Delta":236084794},{"NoteNumber":59,"Velocity":54,"Duration":54347,"SoundDuration":54347,"Delta":236084794},{"NoteNumber":62,"Velocity":70,"Duration":54347,"SoundDuration":54347,"Delta":236084794},{"NoteNumber":43,"Velocity":43,"Duration":54347,"SoundDuration":54347,"Delta":236084794},{"NoteNumber":47,"Velocity":43,"Duration":54347,"SoundDuration":54347,"Delta":236084794},{"NoteNumber":50,"Velocity":52,"Duration":54347,"SoundDuration":54347,"Delta":236084794},{"NoteNumber":53,"Velocity":54,"Duration":108695,"SoundDuration":108695,"Delta":236193490},{"NoteNumber":59,"Velocity":54,"Duration":108695,"SoundDuration":108695,"Delta":236193490},{"NoteNumber":62,"Velocity":70,"Duration":108695,"SoundDuration":108695,"Delta":236193490},{"NoteNumber":43,"Velocity":43,"Duration":108695,"SoundDuration":108695,"Delta":236193490},{"NoteNumber":47,"Velocity":43,"Duration":108695,"SoundDuration":108695,"Delta":236193490},{"NoteNumber":50,"Velocity":52,"Duration":108695,"SoundDuration":108695,"Delta":236193490},{"NoteNumber":58,"Velocity":60,"Duration":104894,"SoundDuration":104894,"Delta":236410882},{"NoteNumber":53,"Velocity":60,"Duration":104894,"SoundDuration":104894,"Delta":236410882},{"NoteNumber":61,"Velocity":79,"Duration":104894,"SoundDuration":104894,"Delta":236410882},{"NoteNumber":46,"Velocity":50,"Duration":104894,"SoundDuration":104894,"Delta":236410882},{"NoteNumber":43,"Velocity":50,"Duration":104894,"SoundDuration":104894,"Delta":236410882},{"NoteNumber":49,"Velocity":61,"Duration":104894,"SoundDuration":104894,"Delta":236410882},{"NoteNumber":59,"Velocity":63,"Duration":109488,"SoundDuration":109488,"Delta":236620672},{"NoteNumber":53,"Velocity":63,"Duration":109488,"SoundDuration":109488,"Delta":236620672},{"NoteNumber":62,"Velocity":81,"Duration":109488,"SoundDuration":109488,"Delta":236620672},{"NoteNumber":43,"Velocity":55,"Duration":109488,"SoundDuration":109488,"Delta":236620672},{"NoteNumber":47,"Velocity":55,"Duration":109488,"SoundDuration":109488,"Delta":236620672},{"NoteNumber":50,"Velocity":64,"Duration":109488,"SoundDuration":109488,"Delta":236620672},{"NoteNumber":53,"Velocity":63,"Duration":153846,"SoundDuration":153846,"Delta":236839650},{"NoteNumber":59,"Velocity":63,"Duration":153846,"SoundDuration":153846,"Delta":236839650},{"NoteNumber":63,"Velocity":81,"Duration":153846,"SoundDuration":153846,"Delta":236839650},{"NoteNumber":43,"Velocity":57,"Duration":153846,"SoundDuration":153846,"Delta":236839650},{"NoteNumber":47,"Velocity":57,"Duration":153846,"SoundDuration":153846,"Delta":236839650},{"NoteNumber":51,"Velocity":70,"Duration":153846,"SoundDuration":153846,"Delta":236839650},{"NoteNumber":64,"Velocity":83,"Duration":90681,"SoundDuration":90681,"Delta":237147342},{"NoteNumber":60,"Velocity":83,"Duration":90681,"SoundDuration":90681,"Delta":237147342},{"NoteNumber":48,"Velocity":63,"Duration":621984,"SoundDuration":621984,"Delta":237147342},{"NoteNumber":52,"Velocity":73,"Duration":621984,"SoundDuration":621984,"Delta":237147342},{"NoteNumber":55,"Velocity":70,"Duration":90093,"SoundDuration":90093,"Delta":237238024},{"NoteNumber":52,"Velocity":71,"Duration":88986,"SoundDuration":88986,"Delta":237328117},{"NoteNumber":55,"Velocity":72,"Duration":87961,"SoundDuration":87961,"Delta":237417104},{"NoteNumber":60,"Velocity":73,"Duration":87171,"SoundDuration":87171,"Delta":237505065},{"NoteNumber":64,"Velocity":74,"Duration":86400,"SoundDuration":86400,"Delta":237592236},{"NoteNumber":67,"Velocity":75,"Duration":90689,"SoundDuration":90689,"Delta":237678637},{"NoteNumber":72,"Velocity":76,"Duration":84917,"SoundDuration":84917,"Delta":237769327},{"NoteNumber":43,"Velocity":54,"Duration":198649,"SoundDuration":198649,"Delta":237769327},{"NoteNumber":40,"Velocity":54,"Duration":198649,"SoundDuration":198649,"Delta":237769327},{"NoteNumber":36,"Velocity":54,"Duration":198649,"SoundDuration":198649,"Delta":237769327},{"NoteNumber":48,"Velocity":64,"Duration":198649,"SoundDuration":198649,"Delta":237769327},{"NoteNumber":76,"Velocity":78,"Duration":84186,"SoundDuration":84186,"Delta":237854244},{"NoteNumber":79,"Velocity":79,"Duration":83494,"SoundDuration":83494,"Delta":237938430},{"NoteNumber":84,"Velocity":80,"Duration":82818,"SoundDuration":82818,"Delta":238021925},{"NoteNumber":88,"Velocity":81,"Duration":86328,"SoundDuration":86328,"Delta":238104744},{"NoteNumber":91,"Velocity":82,"Duration":95199,"SoundDuration":95199,"Delta":238191072},{"NoteNumber":96,"Velocity":83,"Duration":110875,"SoundDuration":110875,"Delta":238286272},{"NoteNumber":100,"Velocity":79,"Duration":271492,"SoundDuration":271492,"Delta":238397147},{"NoteNumber":96,"Velocity":79,"Duration":271492,"SoundDuration":271492,"Delta":238397147},{"NoteNumber":91,"Velocity":66,"Duration":271492,"SoundDuration":271492,"Delta":238397147},{"NoteNumber":88,"Velocity":66,"Duration":271492,"SoundDuration":271492,"Delta":238397147},{"NoteNumber":72,"Velocity":53,"Duration":203619,"SoundDuration":203619,"Delta":238397147},{"NoteNumber":76,"Velocity":53,"Duration":203619,"SoundDuration":203619,"Delta":238397147},{"NoteNumber":79,"Velocity":53,"Duration":203619,"SoundDuration":203619,"Delta":238397147},{"NoteNumber":84,"Velocity":63,"Duration":203619,"SoundDuration":203619,"Delta":238397147},{"NoteNumber":67,"Velocity":45,"Duration":61085,"SoundDuration":61085,"Delta":238600767},{"NoteNumber":72,"Velocity":45,"Duration":61085,"SoundDuration":61085,"Delta":238600767},{"NoteNumber":76,"Velocity":45,"Duration":61085,"SoundDuration":61085,"Delta":238600767},{"NoteNumber":79,"Velocity":54,"Duration":61085,"SoundDuration":61085,"Delta":238600767},{"NoteNumber":96,"Velocity":79,"Duration":213269,"SoundDuration":213269,"Delta":238668640},{"NoteNumber":91,"Velocity":66,"Duration":213269,"SoundDuration":213269,"Delta":238668640},{"NoteNumber":88,"Velocity":66,"Duration":213269,"SoundDuration":213269,"Delta":238668640},{"NoteNumber":84,"Velocity":66,"Duration":213269,"SoundDuration":213269,"Delta":238668640},{"NoteNumber":67,"Velocity":54,"Duration":142179,"SoundDuration":142179,"Delta":238668640},{"NoteNumber":72,"Velocity":54,"Duration":142179,"SoundDuration":142179,"Delta":238668640},{"NoteNumber":76,"Velocity":54,"Duration":142179,"SoundDuration":142179,"Delta":238668640},{"NoteNumber":79,"Velocity":63,"Duration":142179,"SoundDuration":142179,"Delta":238668640},{"NoteNumber":91,"Velocity":69,"Duration":63981,"SoundDuration":63981,"Delta":238881910},{"NoteNumber":88,"Velocity":57,"Duration":63981,"SoundDuration":63981,"Delta":238881910},{"NoteNumber":84,"Velocity":57,"Duration":63981,"SoundDuration":63981,"Delta":238881910},{"NoteNumber":79,"Velocity":57,"Duration":63981,"SoundDuration":63981,"Delta":238881910},{"NoteNumber":79,"Velocity":66,"Duration":137614,"SoundDuration":137614,"Delta":238953000},{"NoteNumber":84,"Velocity":66,"Duration":137614,"SoundDuration":137614,"Delta":238953000},{"NoteNumber":88,"Velocity":66,"Duration":137614,"SoundDuration":137614,"Delta":238953000},{"NoteNumber":91,"Velocity":79,"Duration":137614,"SoundDuration":137614,"Delta":238953000},{"NoteNumber":76,"Velocity":63,"Duration":206422,"SoundDuration":206422,"Delta":238953000},{"NoteNumber":72,"Velocity":54,"Duration":206422,"SoundDuration":206422,"Delta":238953000},{"NoteNumber":67,"Velocity":54,"Duration":206422,"SoundDuration":206422,"Delta":238953000},{"NoteNumber":64,"Velocity":54,"Duration":206422,"SoundDuration":206422,"Delta":238953000},{"NoteNumber":60,"Velocity":46,"Duration":61926,"SoundDuration":61926,"Delta":239159422},{"NoteNumber":64,"Velocity":46,"Duration":61926,"SoundDuration":61926,"Delta":239159422},{"NoteNumber":67,"Velocity":46,"Duration":61926,"SoundDuration":61926,"Delta":239159422},{"NoteNumber":72,"Velocity":55,"Duration":61926,"SoundDuration":61926,"Delta":239159422},{"NoteNumber":76,"Velocity":66,"Duration":216346,"SoundDuration":216346,"Delta":239228230},{"NoteNumber":79,"Velocity":66,"Duration":216346,"SoundDuration":216346,"Delta":239228230},{"NoteNumber":84,"Velocity":66,"Duration":216346,"SoundDuration":216346,"Delta":239228230},{"NoteNumber":88,"Velocity":79,"Duration":216346,"SoundDuration":216346,"Delta":239228230},{"NoteNumber":60,"Velocity":54,"Duration":288461,"SoundDuration":288461,"Delta":239228230},{"NoteNumber":64,"Velocity":54,"Duration":288461,"SoundDuration":288461,"Delta":239228230},{"NoteNumber":67,"Velocity":54,"Duration":288461,"SoundDuration":288461,"Delta":239228230},{"NoteNumber":72,"Velocity":64,"Duration":288461,"SoundDuration":288461,"Delta":239228230},{"NoteNumber":72,"Velocity":59,"Duration":64903,"SoundDuration":64903,"Delta":239444576},{"NoteNumber":76,"Velocity":59,"Duration":64903,"SoundDuration":64903,"Delta":239444576},{"NoteNumber":81,"Velocity":59,"Duration":64903,"SoundDuration":64903,"Delta":239444576},{"NoteNumber":84,"Velocity":70,"Duration":64903,"SoundDuration":64903,"Delta":239444576},{"NoteNumber":84,"Velocity":79,"Duration":137614,"SoundDuration":137614,"Delta":239516691},{"NoteNumber":81,"Velocity":79,"Duration":137614,"SoundDuration":137614,"Delta":239516691},{"NoteNumber":76,"Velocity":66,"Duration":137614,"SoundDuration":137614,"Delta":239516691},{"NoteNumber":72,"Velocity":66,"Duration":137614,"SoundDuration":137614,"Delta":239516691},{"NoteNumber":57,"Velocity":53,"Duration":206422,"SoundDuration":206422,"Delta":239516691},{"NoteNumber":60,"Velocity":53,"Duration":206422,"SoundDuration":206422,"Delta":239516691},{"NoteNumber":64,"Velocity":53,"Duration":206422,"SoundDuration":206422,"Delta":239516691},{"NoteNumber":69,"Velocity":63,"Duration":206422,"SoundDuration":206422,"Delta":239516691},{"NoteNumber":52,"Velocity":45,"Duration":61926,"SoundDuration":61926,"Delta":239723113},{"NoteNumber":57,"Velocity":45,"Duration":61926,"SoundDuration":61926,"Delta":239723113},{"NoteNumber":60,"Velocity":45,"Duration":61926,"SoundDuration":61926,"Delta":239723113},{"NoteNumber":64,"Velocity":54,"Duration":61926,"SoundDuration":61926,"Delta":239723113},{"NoteNumber":81,"Velocity":79,"Duration":213269,"SoundDuration":213269,"Delta":239791921},{"NoteNumber":76,"Velocity":66,"Duration":213269,"SoundDuration":213269,"Delta":239791921},{"NoteNumber":72,"Velocity":66,"Duration":213269,"SoundDuration":213269,"Delta":239791921},{"NoteNumber":69,"Velocity":66,"Duration":213269,"SoundDuration":213269,"Delta":239791921},{"NoteNumber":52,"Velocity":54,"Duration":142179,"SoundDuration":142179,"Delta":239791921},{"NoteNumber":57,"Velocity":54,"Duration":142179,"SoundDuration":142179,"Delta":239791921},{"NoteNumber":60,"Velocity":54,"Duration":142179,"SoundDuration":142179,"Delta":239791921},{"NoteNumber":64,"Velocity":63,"Duration":142179,"SoundDuration":142179,"Delta":239791921},{"NoteNumber":76,"Velocity":69,"Duration":63981,"SoundDuration":63981,"Delta":240005191},{"NoteNumber":72,"Velocity":57,"Duration":63981,"SoundDuration":63981,"Delta":240005191},{"NoteNumber":69,"Velocity":57,"Duration":63981,"SoundDuration":63981,"Delta":240005191},{"NoteNumber":64,"Velocity":57,"Duration":63981,"SoundDuration":63981,"Delta":240005191},{"NoteNumber":64,"Velocity":66,"Duration":142179,"SoundDuration":142179,"Delta":240076281},{"NoteNumber":69,"Velocity":66,"Duration":142179,"SoundDuration":142179,"Delta":240076281},{"NoteNumber":72,"Velocity":66,"Duration":142179,"SoundDuration":142179,"Delta":240076281},{"NoteNumber":76,"Velocity":79,"Duration":142179,"SoundDuration":142179,"Delta":240076281},{"NoteNumber":60,"Velocity":63,"Duration":213269,"SoundDuration":213269,"Delta":240076281},{"NoteNumber":57,"Velocity":54,"Duration":213269,"SoundDuration":213269,"Delta":240076281},{"NoteNumber":52,"Velocity":54,"Duration":213269,"SoundDuration":213269,"Delta":240076281},{"NoteNumber":48,"Velocity":54,"Duration":213269,"SoundDuration":213269,"Delta":240076281},{"NoteNumber":45,"Velocity":46,"Duration":63981,"SoundDuration":63981,"Delta":240289551},{"NoteNumber":48,"Velocity":46,"Duration":63981,"SoundDuration":63981,"Delta":240289551},{"NoteNumber":52,"Velocity":46,"Duration":63981,"SoundDuration":63981,"Delta":240289551},{"NoteNumber":57,"Velocity":55,"Duration":63981,"SoundDuration":63981,"Delta":240289551},{"NoteNumber":60,"Velocity":66,"Duration":156250,"SoundDuration":156250,"Delta":240360641},{"NoteNumber":64,"Velocity":66,"Duration":156250,"SoundDuration":156250,"Delta":240360641},{"NoteNumber":69,"Velocity":66,"Duration":156250,"SoundDuration":156250,"Delta":240360641},{"NoteNumber":72,"Velocity":79,"Duration":156250,"SoundDuration":156250,"Delta":240360641},{"NoteNumber":45,"Velocity":54,"Duration":156250,"SoundDuration":156250,"Delta":240360641},{"NoteNumber":48,"Velocity":54,"Duration":156250,"SoundDuration":156250,"Delta":240360641},{"NoteNumber":52,"Velocity":54,"Duration":156250,"SoundDuration":156250,"Delta":240360641},{"NoteNumber":57,"Velocity":64,"Duration":156250,"SoundDuration":156250,"Delta":240360641},{"NoteNumber":40,"Velocity":50,"Duration":176787,"SoundDuration":176787,"Delta":240555953},{"NoteNumber":44,"Velocity":50,"Duration":149644,"SoundDuration":149644,"Delta":240595016},{"NoteNumber":47,"Velocity":50,"Duration":122501,"SoundDuration":122501,"Delta":240634078},{"NoteNumber":80,"Velocity":72,"Duration":95359,"SoundDuration":95359,"Delta":240673141},{"NoteNumber":83,"Velocity":73,"Duration":95359,"SoundDuration":95359,"Delta":240673141},{"NoteNumber":92,"Velocity":90,"Duration":95359,"SoundDuration":95359,"Delta":240673141},{"NoteNumber":52,"Velocity":59,"Duration":95359,"SoundDuration":95359,"Delta":240673141},{"NoteNumber":71,"Velocity":54,"Duration":45317,"SoundDuration":45317,"Delta":240964666},{"NoteNumber":83,"Velocity":70,"Duration":45317,"SoundDuration":45317,"Delta":240964666},{"NoteNumber":47,"Velocity":43,"Duration":45317,"SoundDuration":45317,"Delta":240964666},{"NoteNumber":59,"Velocity":52,"Duration":45317,"SoundDuration":45317,"Delta":240964666},{"NoteNumber":71,"Velocity":54,"Duration":100671,"SoundDuration":100671,"Delta":241055300},{"NoteNumber":83,"Velocity":70,"Duration":100671,"SoundDuration":100671,"Delta":241055300},{"NoteNumber":47,"Velocity":43,"Duration":100671,"SoundDuration":100671,"Delta":241055300},{"NoteNumber":59,"Velocity":52,"Duration":100671,"SoundDuration":100671,"Delta":241055300},{"NoteNumber":70,"Velocity":60,"Duration":93867,"SoundDuration":93867,"Delta":241256643},{"NoteNumber":82,"Velocity":79,"Duration":93867,"SoundDuration":93867,"Delta":241256643},{"NoteNumber":46,"Velocity":50,"Duration":93867,"SoundDuration":93867,"Delta":241256643},{"NoteNumber":58,"Velocity":61,"Duration":93867,"SoundDuration":93867,"Delta":241256643},{"NoteNumber":71,"Velocity":63,"Duration":97529,"SoundDuration":97529,"Delta":241444377},{"NoteNumber":83,"Velocity":81,"Duration":97529,"SoundDuration":97529,"Delta":241444377},{"NoteNumber":47,"Velocity":55,"Duration":97529,"SoundDuration":97529,"Delta":241444377},{"NoteNumber":59,"Velocity":64,"Duration":97529,"SoundDuration":97529,"Delta":241444377},{"NoteNumber":76,"Velocity":68,"Duration":101488,"SoundDuration":101488,"Delta":241633370},{"NoteNumber":88,"Velocity":88,"Duration":101488,"SoundDuration":101488,"Delta":241633370},{"NoteNumber":52,"Velocity":57,"Duration":101488,"SoundDuration":101488,"Delta":241633370},{"NoteNumber":64,"Velocity":70,"Duration":101488,"SoundDuration":101488,"Delta":241633370},{"NoteNumber":44,"Velocity":50,"Duration":121588,"SoundDuration":121588,"Delta":241785603},{"NoteNumber":51,"Velocity":50,"Duration":104087,"SoundDuration":104087,"Delta":241810975},{"NoteNumber":80,"Velocity":72,"Duration":94458,"SoundDuration":94458,"Delta":241836347},{"NoteNumber":84,"Velocity":73,"Duration":94458,"SoundDuration":94458,"Delta":241836347},{"NoteNumber":92,"Velocity":90,"Duration":94458,"SoundDuration":94458,"Delta":241836347},{"NoteNumber":56,"Velocity":59,"Duration":94458,"SoundDuration":94458,"Delta":241836347},{"NoteNumber":75,"Velocity":54,"Duration":45731,"SoundDuration":45731,"Delta":242123111},{"NoteNumber":87,"Velocity":70,"Duration":45731,"SoundDuration":45731,"Delta":242123111},{"NoteNumber":51,"Velocity":43,"Duration":45731,"SoundDuration":45731,"Delta":242123111},{"NoteNumber":63,"Velocity":52,"Duration":45731,"SoundDuration":45731,"Delta":242123111},{"NoteNumber":75,"Velocity":54,"Duration":97719,"SoundDuration":97719,"Delta":242214575},{"NoteNumber":87,"Velocity":70,"Duration":97719,"SoundDuration":97719,"Delta":242214575},{"NoteNumber":51,"Velocity":43,"Duration":97719,"SoundDuration":97719,"Delta":242214575},{"NoteNumber":63,"Velocity":52,"Duration":97719,"SoundDuration":97719,"Delta":242214575},{"NoteNumber":74,"Velocity":60,"Duration":94458,"SoundDuration":94458,"Delta":242410014},{"NoteNumber":86,"Velocity":79,"Duration":94458,"SoundDuration":94458,"Delta":242410014},{"NoteNumber":50,"Velocity":50,"Duration":94458,"SoundDuration":94458,"Delta":242410014},{"NoteNumber":62,"Velocity":61,"Duration":94458,"SoundDuration":94458,"Delta":242410014},{"NoteNumber":75,"Velocity":63,"Duration":97213,"SoundDuration":97213,"Delta":242598931},{"NoteNumber":87,"Velocity":81,"Duration":97213,"SoundDuration":97213,"Delta":242598931},{"NoteNumber":51,"Velocity":55,"Duration":97213,"SoundDuration":97213,"Delta":242598931},{"NoteNumber":63,"Velocity":64,"Duration":97213,"SoundDuration":97213,"Delta":242598931},{"NoteNumber":75,"Velocity":68,"Duration":102880,"SoundDuration":102880,"Delta":242788169},{"NoteNumber":87,"Velocity":88,"Duration":102880,"SoundDuration":102880,"Delta":242788169},{"NoteNumber":51,"Velocity":57,"Duration":102880,"SoundDuration":102880,"Delta":242788169},{"NoteNumber":63,"Velocity":70,"Duration":102880,"SoundDuration":102880,"Delta":242788169},{"NoteNumber":39,"Velocity":50,"Duration":135644,"SoundDuration":135644,"Delta":242916770},{"NoteNumber":43,"Velocity":50,"Duration":121621,"SoundDuration":121621,"Delta":242942490},{"NoteNumber":46,"Velocity":50,"Duration":107597,"SoundDuration":107597,"Delta":242968210},{"NoteNumber":79,"Velocity":72,"Duration":93574,"SoundDuration":93574,"Delta":242993931},{"NoteNumber":82,"Velocity":73,"Duration":93574,"SoundDuration":93574,"Delta":242993931},{"NoteNumber":91,"Velocity":90,"Duration":93574,"SoundDuration":93574,"Delta":242993931},{"NoteNumber":51,"Velocity":59,"Duration":93574,"SoundDuration":93574,"Delta":242993931},{"NoteNumber":70,"Velocity":54,"Duration":45871,"SoundDuration":45871,"Delta":243279247},{"NoteNumber":82,"Velocity":70,"Duration":45871,"SoundDuration":45871,"Delta":243279247},{"NoteNumber":46,"Velocity":43,"Duration":45871,"SoundDuration":45871,"Delta":243279247},{"NoteNumber":58,"Velocity":52,"Duration":45871,"SoundDuration":45871,"Delta":243279247},{"NoteNumber":70,"Velocity":54,"Duration":98039,"SoundDuration":98039,"Delta":243370990},{"NoteNumber":82,"Velocity":70,"Duration":98039,"SoundDuration":98039,"Delta":243370990},{"NoteNumber":46,"Velocity":43,"Duration":98039,"SoundDuration":98039,"Delta":243370990},{"NoteNumber":58,"Velocity":52,"Duration":98039,"SoundDuration":98039,"Delta":243370990},{"NoteNumber":69,"Velocity":60,"Duration":93574,"SoundDuration":93574,"Delta":243567069},{"NoteNumber":81,"Velocity":79,"Duration":93574,"SoundDuration":93574,"Delta":243567069},{"NoteNumber":45,"Velocity":50,"Duration":93574,"SoundDuration":93574,"Delta":243567069},{"NoteNumber":57,"Velocity":61,"Duration":93574,"SoundDuration":93574,"Delta":243567069},{"NoteNumber":70,"Velocity":63,"Duration":97847,"SoundDuration":97847,"Delta":243754218},{"NoteNumber":82,"Velocity":81,"Duration":97847,"SoundDuration":97847,"Delta":243754218},{"NoteNumber":46,"Velocity":55,"Duration":97847,"SoundDuration":97847,"Delta":243754218},{"NoteNumber":58,"Velocity":64,"Duration":97847,"SoundDuration":97847,"Delta":243754218},{"NoteNumber":75,"Velocity":68,"Duration":102529,"SoundDuration":102529,"Delta":243944657},{"NoteNumber":87,"Velocity":88,"Duration":102529,"SoundDuration":102529,"Delta":243944657},{"NoteNumber":51,"Velocity":57,"Duration":102529,"SoundDuration":102529,"Delta":243944657},{"NoteNumber":63,"Velocity":70,"Duration":102529,"SoundDuration":102529,"Delta":243944657},{"NoteNumber":43,"Velocity":50,"Duration":121227,"SoundDuration":121227,"Delta":244098451},{"NoteNumber":50,"Velocity":50,"Duration":107255,"SoundDuration":107255,"Delta":244124083},{"NoteNumber":79,"Velocity":72,"Duration":93283,"SoundDuration":93283,"Delta":244149715},{"NoteNumber":82,"Velocity":73,"Duration":93283,"SoundDuration":93283,"Delta":244149715},{"NoteNumber":91,"Velocity":90,"Duration":93283,"SoundDuration":93283,"Delta":244149715},{"NoteNumber":55,"Velocity":59,"Duration":93283,"SoundDuration":93283,"Delta":244149715},{"NoteNumber":74,"Velocity":54,"Duration":45592,"SoundDuration":45592,"Delta":244432252},{"NoteNumber":86,"Velocity":70,"Duration":45592,"SoundDuration":45592,"Delta":244432252},{"NoteNumber":50,"Velocity":43,"Duration":45592,"SoundDuration":45592,"Delta":244432252},{"NoteNumber":62,"Velocity":52,"Duration":45592,"SoundDuration":45592,"Delta":244432252},{"NoteNumber":74,"Velocity":54,"Duration":95846,"SoundDuration":95846,"Delta":244523437},{"NoteNumber":86,"Velocity":70,"Duration":95846,"SoundDuration":95846,"Delta":244523437},{"NoteNumber":50,"Velocity":43,"Duration":95846,"SoundDuration":95846,"Delta":244523437},{"NoteNumber":62,"Velocity":52,"Duration":95846,"SoundDuration":95846,"Delta":244523437},{"NoteNumber":73,"Velocity":60,"Duration":94756,"SoundDuration":94756,"Delta":244715131},{"NoteNumber":85,"Velocity":79,"Duration":94756,"SoundDuration":94756,"Delta":244715131},{"NoteNumber":49,"Velocity":50,"Duration":94756,"SoundDuration":94756,"Delta":244715131},{"NoteNumber":61,"Velocity":61,"Duration":94756,"SoundDuration":94756,"Delta":244715131},{"NoteNumber":74,"Velocity":63,"Duration":98489,"SoundDuration":98489,"Delta":244904644},{"NoteNumber":86,"Velocity":81,"Duration":98489,"SoundDuration":98489,"Delta":244904644},{"NoteNumber":50,"Velocity":55,"Duration":98489,"SoundDuration":98489,"Delta":244904644},{"NoteNumber":62,"Velocity":64,"Duration":98489,"SoundDuration":98489,"Delta":244904644},{"NoteNumber":74,"Velocity":68,"Duration":103949,"SoundDuration":103949,"Delta":245101624},{"NoteNumber":86,"Velocity":88,"Duration":103949,"SoundDuration":103949,"Delta":245101624},{"NoteNumber":50,"Velocity":57,"Duration":103949,"SoundDuration":103949,"Delta":245101624},{"NoteNumber":62,"Velocity":70,"Duration":103949,"SoundDuration":103949,"Delta":245101624},{"NoteNumber":78,"Velocity":72,"Duration":93283,"SoundDuration":93283,"Delta":245309524},{"NoteNumber":81,"Velocity":73,"Duration":93283,"SoundDuration":93283,"Delta":245309524},{"NoteNumber":90,"Velocity":90,"Duration":93283,"SoundDuration":93283,"Delta":245309524},{"NoteNumber":38,"Velocity":50,"Duration":93283,"SoundDuration":93283,"Delta":245309524},{"NoteNumber":50,"Velocity":59,"Duration":93283,"SoundDuration":93283,"Delta":245309524},{"NoteNumber":78,"Velocity":54,"Duration":97529,"SoundDuration":97529,"Delta":245496091},{"NoteNumber":69,"Velocity":54,"Duration":97529,"SoundDuration":97529,"Delta":245496091},{"NoteNumber":81,"Velocity":70,"Duration":97529,"SoundDuration":97529,"Delta":245496091},{"NoteNumber":54,"Velocity":43,"Duration":97529,"SoundDuration":97529,"Delta":245496091},{"NoteNumber":50,"Velocity":43,"Duration":97529,"SoundDuration":97529,"Delta":245496091},{"NoteNumber":57,"Velocity":52,"Duration":97529,"SoundDuration":97529,"Delta":245496091},{"NoteNumber":78,"Velocity":54,"Duration":97529,"SoundDuration":97529,"Delta":245691149},{"NoteNumber":71,"Velocity":54,"Duration":97529,"SoundDuration":97529,"Delta":245691149},{"NoteNumber":83,"Velocity":70,"Duration":97529,"SoundDuration":97529,"Delta":245691149},{"NoteNumber":54,"Velocity":43,"Duration":97529,"SoundDuration":97529,"Delta":245691149},{"NoteNumber":50,"Velocity":43,"Duration":97529,"SoundDuration":97529,"Delta":245691149},{"NoteNumber":59,"Velocity":52,"Duration":97529,"SoundDuration":97529,"Delta":245691149},{"NoteNumber":81,"Velocity":65,"Duration":93867,"SoundDuration":93867,"Delta":245886208},{"NoteNumber":73,"Velocity":65,"Duration":93867,"SoundDuration":93867,"Delta":245886208},{"NoteNumber":85,"Velocity":86,"Duration":93867,"SoundDuration":93867,"Delta":245886208},{"NoteNumber":42,"Velocity":54,"Duration":93867,"SoundDuration":93867,"Delta":245886208},{"NoteNumber":54,"Velocity":66,"Duration":93867,"SoundDuration":93867,"Delta":245886208},{"NoteNumber":80,"Velocity":63,"Duration":99140,"SoundDuration":99140,"Delta":246073942},{"NoteNumber":72,"Velocity":63,"Duration":99140,"SoundDuration":99140,"Delta":246073942},{"NoteNumber":84,"Velocity":81,"Duration":99140,"SoundDuration":99140,"Delta":246073942},{"NoteNumber":56,"Velocity":55,"Duration":99140,"SoundDuration":99140,"Delta":246073942},{"NoteNumber":54,"Velocity":55,"Duration":99140,"SoundDuration":99140,"Delta":246073942},{"NoteNumber":60,"Velocity":64,"Duration":99140,"SoundDuration":99140,"Delta":246073942},{"NoteNumber":81,"Velocity":68,"Duration":105411,"SoundDuration":105411,"Delta":246272224},{"NoteNumber":73,"Velocity":68,"Duration":105411,"SoundDuration":105411,"Delta":246272224},{"NoteNumber":85,"Velocity":88,"Duration":105411,"SoundDuration":105411,"Delta":246272224},{"NoteNumber":57,"Velocity":57,"Duration":105411,"SoundDuration":105411,"Delta":246272224},{"NoteNumber":54,"Velocity":57,"Duration":105411,"SoundDuration":105411,"Delta":246272224},{"NoteNumber":61,"Velocity":70,"Duration":105411,"SoundDuration":105411,"Delta":246272224},{"NoteNumber":77,"Velocity":72,"Duration":94162,"SoundDuration":94162,"Delta":246483046},{"NoteNumber":80,"Velocity":73,"Duration":94162,"SoundDuration":94162,"Delta":246483046},{"NoteNumber":89,"Velocity":90,"Duration":94162,"SoundDuration":94162,"Delta":246483046},{"NoteNumber":37,"Velocity":50,"Duration":94162,"SoundDuration":94162,"Delta":246483046},{"NoteNumber":49,"Velocity":59,"Duration":94162,"SoundDuration":94162,"Delta":246483046},{"NoteNumber":77,"Velocity":54,"Duration":97847,"SoundDuration":97847,"Delta":246671370},{"NoteNumber":68,"Velocity":54,"Duration":97847,"SoundDuration":97847,"Delta":246671370},{"NoteNumber":80,"Velocity":70,"Duration":97847,"SoundDuration":97847,"Delta":246671370},{"NoteNumber":53,"Velocity":43,"Duration":97847,"SoundDuration":97847,"Delta":246671370},{"NoteNumber":49,"Velocity":43,"Duration":97847,"SoundDuration":97847,"Delta":246671370},{"NoteNumber":56,"Velocity":52,"Duration":97847,"SoundDuration":97847,"Delta":246671370},{"NoteNumber":77,"Velocity":54,"Duration":97847,"SoundDuration":97847,"Delta":246867064},{"NoteNumber":70,"Velocity":54,"Duration":97847,"SoundDuration":97847,"Delta":246867064},{"NoteNumber":82,"Velocity":70,"Duration":97847,"SoundDuration":97847,"Delta":246867064},{"NoteNumber":53,"Velocity":43,"Duration":97847,"SoundDuration":97847,"Delta":246867064},{"NoteNumber":49,"Velocity":43,"Duration":97847,"SoundDuration":97847,"Delta":246867064},{"NoteNumber":58,"Velocity":52,"Duration":97847,"SoundDuration":97847,"Delta":246867064},{"NoteNumber":80,"Velocity":65,"Duration":94458,"SoundDuration":94458,"Delta":247062759},{"NoteNumber":72,"Velocity":65,"Duration":94458,"SoundDuration":94458,"Delta":247062759},{"NoteNumber":84,"Velocity":86,"Duration":94458,"SoundDuration":94458,"Delta":247062759},{"NoteNumber":41,"Velocity":54,"Duration":94458,"SoundDuration":94458,"Delta":247062759},{"NoteNumber":53,"Velocity":66,"Duration":94458,"SoundDuration":94458,"Delta":247062759},{"NoteNumber":79,"Velocity":63,"Duration":100468,"SoundDuration":100468,"Delta":247251676},{"NoteNumber":71,"Velocity":63,"Duration":100468,"SoundDuration":100468,"Delta":247251676},{"NoteNumber":83,"Velocity":81,"Duration":100468,"SoundDuration":100468,"Delta":247251676},{"NoteNumber":55,"Velocity":55,"Duration":100468,"SoundDuration":100468,"Delta":247251676},{"NoteNumber":53,"Velocity":55,"Duration":100468,"SoundDuration":100468,"Delta":247251676},{"NoteNumber":59,"Velocity":64,"Duration":100468,"SoundDuration":100468,"Delta":247251676},{"NoteNumber":80,"Velocity":68,"Duration":116731,"SoundDuration":116731,"Delta":247452613},{"NoteNumber":72,"Velocity":68,"Duration":116731,"SoundDuration":116731,"Delta":247452613},{"NoteNumber":84,"Velocity":88,"Duration":116731,"SoundDuration":116731,"Delta":247452613},{"NoteNumber":56,"Velocity":57,"Duration":116731,"SoundDuration":116731,"Delta":247452613},{"NoteNumber":53,"Velocity":57,"Duration":116731,"SoundDuration":116731,"Delta":247452613},{"NoteNumber":60,"Velocity":70,"Duration":116731,"SoundDuration":116731,"Delta":247452613},{"NoteNumber":88,"Velocity":71,"Duration":247933,"SoundDuration":247933,"Delta":247686076},{"NoteNumber":79,"Velocity":59,"Duration":247933,"SoundDuration":247933,"Delta":247686076},{"NoteNumber":76,"Velocity":59,"Duration":241735,"SoundDuration":241735,"Delta":247686076},{"NoteNumber":36,"Velocity":47,"Duration":123966,"SoundDuration":123966,"Delta":247686076},{"NoteNumber":48,"Velocity":56,"Duration":123966,"SoundDuration":123966,"Delta":247686076},{"NoteNumber":67,"Velocity":51,"Duration":55785,"SoundDuration":55785,"Delta":247872027},{"NoteNumber":72,"Velocity":51,"Duration":55785,"SoundDuration":55785,"Delta":247872027},{"NoteNumber":76,"Velocity":62,"Duration":61983,"SoundDuration":61983,"Delta":247872027},{"NoteNumber":55,"Velocity":40,"Duration":55785,"SoundDuration":55785,"Delta":247872027},{"NoteNumber":60,"Velocity":40,"Duration":55785,"SoundDuration":55785,"Delta":247872027},{"NoteNumber":64,"Velocity":48,"Duration":55785,"SoundDuration":55785,"Delta":247872027},{"NoteNumber":76,"Velocity":71,"Duration":265486,"SoundDuration":265486,"Delta":247934010},{"NoteNumber":72,"Velocity":59,"Duration":265486,"SoundDuration":265486,"Delta":247934010},{"NoteNumber":67,"Velocity":59,"Duration":265486,"SoundDuration":265486,"Delta":247934010},{"NoteNumber":55,"Velocity":48,"Duration":265486,"SoundDuration":265486,"Delta":247934010},{"NoteNumber":60,"Velocity":48,"Duration":265486,"SoundDuration":265486,"Delta":247934010},{"NoteNumber":64,"Velocity":56,"Duration":265486,"SoundDuration":265486,"Delta":247934010},{"NoteNumber":87,"Velocity":71,"Duration":250000,"SoundDuration":250000,"Delta":248199497},{"NoteNumber":79,"Velocity":59,"Duration":250000,"SoundDuration":250000,"Delta":248199497},{"NoteNumber":75,"Velocity":59,"Duration":243750,"SoundDuration":243750,"Delta":248199497},{"NoteNumber":36,"Velocity":47,"Duration":125000,"SoundDuration":125000,"Delta":248199497},{"NoteNumber":48,"Velocity":56,"Duration":125000,"SoundDuration":125000,"Delta":248199497},{"NoteNumber":67,"Velocity":51,"Duration":56250,"SoundDuration":56250,"Delta":248386997},{"NoteNumber":72,"Velocity":51,"Duration":56250,"SoundDuration":56250,"Delta":248386997},{"NoteNumber":75,"Velocity":62,"Duration":62500,"SoundDuration":62500,"Delta":248386997},{"NoteNumber":55,"Velocity":40,"Duration":56250,"SoundDuration":56250,"Delta":248386997},{"NoteNumber":60,"Velocity":40,"Duration":56250,"SoundDuration":56250,"Delta":248386997},{"NoteNumber":63,"Velocity":48,"Duration":56250,"SoundDuration":56250,"Delta":248386997},{"NoteNumber":75,"Velocity":71,"Duration":265486,"SoundDuration":265486,"Delta":248449497},{"NoteNumber":72,"Velocity":59,"Duration":265486,"SoundDuration":265486,"Delta":248449497},{"NoteNumber":67,"Velocity":59,"Duration":265486,"SoundDuration":265486,"Delta":248449497},{"NoteNumber":55,"Velocity":48,"Duration":265486,"SoundDuration":265486,"Delta":248449497},{"NoteNumber":60,"Velocity":48,"Duration":265486,"SoundDuration":265486,"Delta":248449497},{"NoteNumber":63,"Velocity":56,"Duration":265486,"SoundDuration":265486,"Delta":248449497},{"NoteNumber":85,"Velocity":71,"Duration":251046,"SoundDuration":251046,"Delta":248714983},{"NoteNumber":77,"Velocity":59,"Duration":251046,"SoundDuration":251046,"Delta":248714983},{"NoteNumber":73,"Velocity":59,"Duration":244769,"SoundDuration":244769,"Delta":248714983},{"NoteNumber":32,"Velocity":47,"Duration":125522,"SoundDuration":125522,"Delta":248714983},{"NoteNumber":44,"Velocity":56,"Duration":125522,"SoundDuration":125522,"Delta":248714983},{"NoteNumber":65,"Velocity":51,"Duration":56485,"SoundDuration":56485,"Delta":248903268},{"NoteNumber":68,"Velocity":51,"Duration":56485,"SoundDuration":56485,"Delta":248903268},{"NoteNumber":73,"Velocity":62,"Duration":62761,"SoundDuration":62761,"Delta":248903268},{"NoteNumber":53,"Velocity":40,"Duration":56485,"SoundDuration":56485,"Delta":248903268},{"NoteNumber":56,"Velocity":40,"Duration":56485,"SoundDuration":56485,"Delta":248903268},{"NoteNumber":61,"Velocity":48,"Duration":56485,"SoundDuration":56485,"Delta":248903268},{"NoteNumber":73,"Velocity":71,"Duration":263158,"SoundDuration":263158,"Delta":248966029},{"NoteNumber":68,"Velocity":59,"Duration":263158,"SoundDuration":263158,"Delta":248966029},{"NoteNumber":65,"Velocity":59,"Duration":263158,"SoundDuration":263158,"Delta":248966029},{"NoteNumber":53,"Velocity":48,"Duration":263158,"SoundDuration":263158,"Delta":248966029},{"NoteNumber":56,"Velocity":48,"Duration":263158,"SoundDuration":263158,"Delta":248966029},{"NoteNumber":61,"Velocity":56,"Duration":263158,"SoundDuration":263158,"Delta":248966029},{"NoteNumber":84,"Velocity":71,"Duration":255318,"SoundDuration":255318,"Delta":249229187},{"NoteNumber":75,"Velocity":59,"Duration":255318,"SoundDuration":255318,"Delta":249229187},{"NoteNumber":72,"Velocity":59,"Duration":248936,"SoundDuration":248936,"Delta":249229187},{"NoteNumber":33,"Velocity":47,"Duration":127659,"SoundDuration":127659,"Delta":249229187},{"NoteNumber":45,"Velocity":56,"Duration":127659,"SoundDuration":127659,"Delta":249229187},{"NoteNumber":63,"Velocity":51,"Duration":57446,"SoundDuration":57446,"Delta":249420676},{"NoteNumber":66,"Velocity":51,"Duration":57446,"SoundDuration":57446,"Delta":249420676},{"NoteNumber":72,"Velocity":62,"Duration":63829,"SoundDuration":63829,"Delta":249420676},{"NoteNumber":51,"Velocity":40,"Duration":57446,"SoundDuration":57446,"Delta":249420676},{"NoteNumber":54,"Velocity":40,"Duration":57446,"SoundDuration":57446,"Delta":249420676},{"NoteNumber":60,"Velocity":48,"Duration":57446,"SoundDuration":57446,"Delta":249420676},{"NoteNumber":72,"Velocity":71,"Duration":275229,"SoundDuration":275229,"Delta":249484506},{"NoteNumber":66,"Velocity":59,"Duration":275229,"SoundDuration":275229,"Delta":249484506},{"NoteNumber":63,"Velocity":59,"Duration":275229,"SoundDuration":275229,"Delta":249484506},{"NoteNumber":51,"Velocity":48,"Duration":275229,"SoundDuration":275229,"Delta":249484506},{"NoteNumber":54,"Velocity":48,"Duration":275229,"SoundDuration":275229,"Delta":249484506},{"NoteNumber":60,"Velocity":56,"Duration":275229,"SoundDuration":275229,"Delta":249484506},{"NoteNumber":70,"Velocity":54,"Duration":95541,"SoundDuration":95541,"Delta":249759736},{"NoteNumber":82,"Velocity":65,"Duration":95541,"SoundDuration":95541,"Delta":249759736},{"NoteNumber":34,"Velocity":43,"Duration":95541,"SoundDuration":95541,"Delta":249759736},{"NoteNumber":46,"Velocity":51,"Duration":95541,"SoundDuration":95541,"Delta":249759736},{"NoteNumber":58,"Velocity":45,"Duration":96774,"SoundDuration":96774,"Delta":249950819},{"NoteNumber":70,"Velocity":53,"Duration":96774,"SoundDuration":96774,"Delta":249950819},{"NoteNumber":51,"Velocity":36,"Duration":48387,"SoundDuration":48387,"Delta":250047593},{"NoteNumber":54,"Velocity":43,"Duration":48387,"SoundDuration":48387,"Delta":250047593},{"NoteNumber":82,"Velocity":56,"Duration":98684,"SoundDuration":98684,"Delta":250144367},{"NoteNumber":70,"Velocity":47,"Duration":98684,"SoundDuration":98684,"Delta":250144367},{"NoteNumber":52,"Velocity":36,"Duration":98684,"SoundDuration":98684,"Delta":250144367},{"NoteNumber":55,"Velocity":44,"Duration":98684,"SoundDuration":98684,"Delta":250144367},{"NoteNumber":94,"Velocity":69,"Duration":96774,"SoundDuration":96774,"Delta":250341736},{"NoteNumber":82,"Velocity":57,"Duration":96774,"SoundDuration":96774,"Delta":250341736},{"NoteNumber":52,"Velocity":45,"Duration":96774,"SoundDuration":96774,"Delta":250341736},{"NoteNumber":55,"Velocity":54,"Duration":96774,"SoundDuration":96774,"Delta":250341736},{"NoteNumber":70,"Velocity":46,"Duration":100133,"SoundDuration":100133,"Delta":250535284},{"NoteNumber":82,"Velocity":55,"Duration":100133,"SoundDuration":100133,"Delta":250535284},{"NoteNumber":56,"Velocity":43,"Duration":50066,"SoundDuration":50066,"Delta":250635418},{"NoteNumber":53,"Velocity":36,"Duration":50066,"SoundDuration":50066,"Delta":250635418},{"NoteNumber":58,"Velocity":46,"Duration":104529,"SoundDuration":104529,"Delta":250735551},{"NoteNumber":70,"Velocity":55,"Duration":104529,"SoundDuration":104529,"Delta":250735551},{"NoteNumber":50,"Velocity":37,"Duration":104529,"SoundDuration":104529,"Delta":250735551},{"NoteNumber":53,"Velocity":45,"Duration":104529,"SoundDuration":104529,"Delta":250735551},{"NoteNumber":70,"Velocity":54,"Duration":94637,"SoundDuration":94637,"Delta":250944610},{"NoteNumber":82,"Velocity":65,"Duration":94637,"SoundDuration":94637,"Delta":250944610},{"NoteNumber":34,"Velocity":43,"Duration":94637,"SoundDuration":94637,"Delta":250944610},{"NoteNumber":46,"Velocity":51,"Duration":94637,"SoundDuration":94637,"Delta":250944610},{"NoteNumber":58,"Velocity":45,"Duration":96153,"SoundDuration":96153,"Delta":251133885},{"NoteNumber":70,"Velocity":53,"Duration":96153,"SoundDuration":96153,"Delta":251133885},{"NoteNumber":51,"Velocity":36,"Duration":48076,"SoundDuration":48076,"Delta":251230038},{"NoteNumber":54,"Velocity":43,"Duration":48076,"SoundDuration":48076,"Delta":251230038},{"NoteNumber":82,"Velocity":56,"Duration":97719,"SoundDuration":97719,"Delta":251326192},{"NoteNumber":70,"Velocity":47,"Duration":97719,"SoundDuration":97719,"Delta":251326192},{"NoteNumber":52,"Velocity":36,"Duration":97719,"SoundDuration":97719,"Delta":251326192},{"NoteNumber":55,"Velocity":44,"Duration":97719,"SoundDuration":97719,"Delta":251326192},{"NoteNumber":94,"Velocity":69,"Duration":95846,"SoundDuration":95846,"Delta":251521632},{"NoteNumber":82,"Velocity":57,"Duration":95846,"SoundDuration":95846,"Delta":251521632},{"NoteNumber":52,"Velocity":45,"Duration":95846,"SoundDuration":95846,"Delta":251521632},{"NoteNumber":55,"Velocity":54,"Duration":95846,"SoundDuration":95846,"Delta":251521632},{"NoteNumber":70,"Velocity":46,"Duration":98039,"SoundDuration":98039,"Delta":251713325},{"NoteNumber":82,"Velocity":55,"Duration":98039,"SoundDuration":98039,"Delta":251713325},{"NoteNumber":56,"Velocity":43,"Duration":49019,"SoundDuration":49019,"Delta":251811364},{"NoteNumber":53,"Velocity":36,"Duration":49019,"SoundDuration":49019,"Delta":251811364},{"NoteNumber":58,"Velocity":46,"Duration":103234,"SoundDuration":103234,"Delta":251909404},{"NoteNumber":70,"Velocity":55,"Duration":103234,"SoundDuration":103234,"Delta":251909404},{"NoteNumber":50,"Velocity":37,"Duration":103234,"SoundDuration":103234,"Delta":251909404},{"NoteNumber":53,"Velocity":45,"Duration":103234,"SoundDuration":103234,"Delta":251909404},{"NoteNumber":73,"Velocity":60,"Duration":94637,"SoundDuration":94637,"Delta":252115873},{"NoteNumber":85,"Velocity":72,"Duration":94637,"SoundDuration":94637,"Delta":252115873},{"NoteNumber":37,"Velocity":46,"Duration":94637,"SoundDuration":94637,"Delta":252115873},{"NoteNumber":49,"Velocity":55,"Duration":94637,"SoundDuration":94637,"Delta":252115873},{"NoteNumber":61,"Velocity":49,"Duration":96153,"SoundDuration":96153,"Delta":252305148},{"NoteNumber":73,"Velocity":57,"Duration":96153,"SoundDuration":96153,"Delta":252305148},{"NoteNumber":54,"Velocity":39,"Duration":48076,"SoundDuration":48076,"Delta":252401301},{"NoteNumber":57,"Velocity":46,"Duration":48076,"SoundDuration":48076,"Delta":252401301},{"NoteNumber":85,"Velocity":62,"Duration":97402,"SoundDuration":97402,"Delta":252497455},{"NoteNumber":73,"Velocity":52,"Duration":97402,"SoundDuration":97402,"Delta":252497455},{"NoteNumber":55,"Velocity":40,"Duration":97402,"SoundDuration":97402,"Delta":252497455},{"NoteNumber":58,"Velocity":47,"Duration":97402,"SoundDuration":97402,"Delta":252497455},{"NoteNumber":97,"Velocity":75,"Duration":95846,"SoundDuration":95846,"Delta":252692260},{"NoteNumber":85,"Velocity":63,"Duration":95846,"SoundDuration":95846,"Delta":252692260},{"NoteNumber":55,"Velocity":50,"Duration":95846,"SoundDuration":95846,"Delta":252692260},{"NoteNumber":58,"Velocity":59,"Duration":95846,"SoundDuration":95846,"Delta":252692260},{"NoteNumber":73,"Velocity":51,"Duration":97087,"SoundDuration":97087,"Delta":252883954},{"NoteNumber":85,"Velocity":61,"Duration":97087,"SoundDuration":97087,"Delta":252883954},{"NoteNumber":59,"Velocity":46,"Duration":48543,"SoundDuration":48543,"Delta":252981041},{"NoteNumber":56,"Velocity":39,"Duration":48543,"SoundDuration":48543,"Delta":252981041},{"NoteNumber":61,"Velocity":51,"Duration":99999,"SoundDuration":99999,"Delta":253078129},{"NoteNumber":73,"Velocity":61,"Duration":99999,"SoundDuration":99999,"Delta":253078129},{"NoteNumber":53,"Velocity":41,"Duration":99999,"SoundDuration":99999,"Delta":253078129},{"NoteNumber":56,"Velocity":49,"Duration":99999,"SoundDuration":99999,"Delta":253078129},{"NoteNumber":73,"Velocity":60,"Duration":94339,"SoundDuration":94339,"Delta":253278129},{"NoteNumber":85,"Velocity":72,"Duration":94339,"SoundDuration":94339,"Delta":253278129},{"NoteNumber":37,"Velocity":46,"Duration":94339,"SoundDuration":94339,"Delta":253278129},{"NoteNumber":49,"Velocity":55,"Duration":94339,"SoundDuration":94339,"Delta":253278129},{"NoteNumber":61,"Velocity":49,"Duration":96153,"SoundDuration":96153,"Delta":253466808},{"NoteNumber":73,"Velocity":57,"Duration":96153,"SoundDuration":96153,"Delta":253466808},{"NoteNumber":54,"Velocity":39,"Duration":48076,"SoundDuration":48076,"Delta":253562961},{"NoteNumber":57,"Velocity":46,"Duration":48076,"SoundDuration":48076,"Delta":253562961},{"NoteNumber":85,"Velocity":62,"Duration":97402,"SoundDuration":97402,"Delta":253659115},{"NoteNumber":73,"Velocity":52,"Duration":97402,"SoundDuration":97402,"Delta":253659115},{"NoteNumber":55,"Velocity":40,"Duration":97402,"SoundDuration":97402,"Delta":253659115},{"NoteNumber":58,"Velocity":47,"Duration":97402,"SoundDuration":97402,"Delta":253659115},{"NoteNumber":97,"Velocity":75,"Duration":95541,"SoundDuration":95541,"Delta":253853920},{"NoteNumber":85,"Velocity":63,"Duration":95541,"SoundDuration":95541,"Delta":253853920},{"NoteNumber":55,"Velocity":50,"Duration":95541,"SoundDuration":95541,"Delta":253853920},{"NoteNumber":58,"Velocity":59,"Duration":95541,"SoundDuration":95541,"Delta":253853920},{"NoteNumber":73,"Velocity":51,"Duration":97402,"SoundDuration":97402,"Delta":254045003},{"NoteNumber":85,"Velocity":61,"Duration":97402,"SoundDuration":97402,"Delta":254045003},{"NoteNumber":59,"Velocity":46,"Duration":48701,"SoundDuration":48701,"Delta":254142406},{"NoteNumber":56,"Velocity":39,"Duration":48701,"SoundDuration":48701,"Delta":254142406},{"NoteNumber":61,"Velocity":51,"Duration":102529,"SoundDuration":102529,"Delta":254239808},{"NoteNumber":73,"Velocity":61,"Duration":102529,"SoundDuration":102529,"Delta":254239808},{"NoteNumber":53,"Velocity":41,"Duration":102529,"SoundDuration":102529,"Delta":254239808},{"NoteNumber":56,"Velocity":49,"Duration":102529,"SoundDuration":102529,"Delta":254239808},{"NoteNumber":76,"Velocity":60,"Duration":94637,"SoundDuration":94637,"Delta":254444866},{"NoteNumber":88,"Velocity":72,"Duration":94637,"SoundDuration":94637,"Delta":254444866},{"NoteNumber":40,"Velocity":46,"Duration":94637,"SoundDuration":94637,"Delta":254444866},{"NoteNumber":52,"Velocity":55,"Duration":94637,"SoundDuration":94637,"Delta":254444866},{"NoteNumber":64,"Velocity":49,"Duration":95846,"SoundDuration":95846,"Delta":254634141},{"NoteNumber":76,"Velocity":57,"Duration":95846,"SoundDuration":95846,"Delta":254634141},{"NoteNumber":57,"Velocity":39,"Duration":47923,"SoundDuration":47923,"Delta":254729987},{"NoteNumber":60,"Velocity":47,"Duration":47923,"SoundDuration":47923,"Delta":254729987},{"NoteNumber":88,"Velocity":62,"Duration":97402,"SoundDuration":97402,"Delta":254825834},{"NoteNumber":76,"Velocity":52,"Duration":97402,"SoundDuration":97402,"Delta":254825834},{"NoteNumber":58,"Velocity":40,"Duration":97402,"SoundDuration":97402,"Delta":254825834},{"NoteNumber":61,"Velocity":48,"Duration":97402,"SoundDuration":97402,"Delta":254825834},{"NoteNumber":100,"Velocity":77,"Duration":95541,"SoundDuration":95541,"Delta":255020639},{"NoteNumber":88,"Velocity":63,"Duration":95541,"SoundDuration":95541,"Delta":255020639},{"NoteNumber":58,"Velocity":51,"Duration":95541,"SoundDuration":95541,"Delta":255020639},{"NoteNumber":61,"Velocity":60,"Duration":95541,"SoundDuration":95541,"Delta":255020639},{"NoteNumber":76,"Velocity":52,"Duration":98039,"SoundDuration":98039,"Delta":255211722},{"NoteNumber":88,"Velocity":63,"Duration":98039,"SoundDuration":98039,"Delta":255211722},{"NoteNumber":62,"Velocity":48,"Duration":49019,"SoundDuration":49019,"Delta":255309761},{"NoteNumber":59,"Velocity":40,"Duration":49019,"SoundDuration":49019,"Delta":255309761},{"NoteNumber":64,"Velocity":53,"Duration":101010,"SoundDuration":101010,"Delta":255407801},{"NoteNumber":76,"Velocity":63,"Duration":101010,"SoundDuration":101010,"Delta":255407801},{"NoteNumber":56,"Velocity":42,"Duration":101010,"SoundDuration":101010,"Delta":255407801},{"NoteNumber":59,"Velocity":51,"Duration":101010,"SoundDuration":101010,"Delta":255407801},{"NoteNumber":79,"Velocity":63,"Duration":94339,"SoundDuration":94339,"Delta":255609821},{"NoteNumber":91,"Velocity":74,"Duration":94339,"SoundDuration":94339,"Delta":255609821},{"NoteNumber":43,"Velocity":49,"Duration":94339,"SoundDuration":94339,"Delta":255609821},{"NoteNumber":55,"Velocity":58,"Duration":94339,"SoundDuration":94339,"Delta":255609821},{"NoteNumber":67,"Velocity":51,"Duration":95846,"SoundDuration":95846,"Delta":255798500},{"NoteNumber":79,"Velocity":60,"Duration":95846,"SoundDuration":95846,"Delta":255798500},{"NoteNumber":60,"Velocity":41,"Duration":47923,"SoundDuration":47923,"Delta":255894346},{"NoteNumber":63,"Velocity":49,"Duration":47923,"SoundDuration":47923,"Delta":255894346},{"NoteNumber":91,"Velocity":65,"Duration":97402,"SoundDuration":97402,"Delta":255990193},{"NoteNumber":79,"Velocity":54,"Duration":97402,"SoundDuration":97402,"Delta":255990193},{"NoteNumber":61,"Velocity":42,"Duration":97402,"SoundDuration":97402,"Delta":255990193},{"NoteNumber":64,"Velocity":50,"Duration":97402,"SoundDuration":97402,"Delta":255990193},{"NoteNumber":103,"Velocity":81,"Duration":95237,"SoundDuration":95237,"Delta":256184998},{"NoteNumber":91,"Velocity":66,"Duration":95237,"SoundDuration":95237,"Delta":256184998},{"NoteNumber":61,"Velocity":53,"Duration":95237,"SoundDuration":95237,"Delta":256184998},{"NoteNumber":64,"Velocity":63,"Duration":95237,"SoundDuration":95237,"Delta":256184998},{"NoteNumber":79,"Velocity":54,"Duration":96774,"SoundDuration":96774,"Delta":256375474},{"NoteNumber":91,"Velocity":65,"Duration":96774,"SoundDuration":96774,"Delta":256375474},{"NoteNumber":65,"Velocity":50,"Duration":48387,"SoundDuration":48387,"Delta":256472248},{"NoteNumber":62,"Velocity":42,"Duration":48387,"SoundDuration":48387,"Delta":256472248},{"NoteNumber":67,"Velocity":54,"Duration":101832,"SoundDuration":101832,"Delta":256569023},{"NoteNumber":79,"Velocity":65,"Duration":101832,"SoundDuration":101832,"Delta":256569023},{"NoteNumber":59,"Velocity":44,"Duration":101832,"SoundDuration":101832,"Delta":256569023},{"NoteNumber":62,"Velocity":53,"Duration":101832,"SoundDuration":101832,"Delta":256569023},{"NoteNumber":82,"Velocity":65,"Duration":94637,"SoundDuration":94637,"Delta":256772689},{"NoteNumber":94,"Velocity":78,"Duration":94637,"SoundDuration":94637,"Delta":256772689},{"NoteNumber":43,"Velocity":51,"Duration":94637,"SoundDuration":94637,"Delta":256772689},{"NoteNumber":55,"Velocity":61,"Duration":94637,"SoundDuration":94637,"Delta":256772689},{"NoteNumber":70,"Velocity":54,"Duration":95846,"SoundDuration":95846,"Delta":256961963},{"NoteNumber":82,"Velocity":63,"Duration":95846,"SoundDuration":95846,"Delta":256961963},{"NoteNumber":63,"Velocity":43,"Duration":47923,"SoundDuration":47923,"Delta":257057810},{"NoteNumber":60,"Velocity":43,"Duration":47923,"SoundDuration":47923,"Delta":257057810},{"NoteNumber":67,"Velocity":52,"Duration":47923,"SoundDuration":47923,"Delta":257057810},{"NoteNumber":94,"Velocity":68,"Duration":96774,"SoundDuration":96774,"Delta":257153657},{"NoteNumber":82,"Velocity":57,"Duration":96774,"SoundDuration":96774,"Delta":257153657},{"NoteNumber":64,"Velocity":44,"Duration":96774,"SoundDuration":96774,"Delta":257153657},{"NoteNumber":61,"Velocity":44,"Duration":96774,"SoundDuration":96774,"Delta":257153657},{"NoteNumber":67,"Velocity":53,"Duration":96774,"SoundDuration":96774,"Delta":257153657},{"NoteNumber":106,"Velocity":83,"Duration":95846,"SoundDuration":95846,"Delta":257347205},{"NoteNumber":94,"Velocity":70,"Duration":95846,"SoundDuration":95846,"Delta":257347205},{"NoteNumber":61,"Velocity":55,"Duration":95846,"SoundDuration":95846,"Delta":257347205},{"NoteNumber":64,"Velocity":55,"Duration":95846,"SoundDuration":95846,"Delta":257347205},{"NoteNumber":67,"Velocity":65,"Duration":95846,"SoundDuration":95846,"Delta":257347205},{"NoteNumber":82,"Velocity":56,"Duration":97402,"SoundDuration":97402,"Delta":257538899},{"NoteNumber":94,"Velocity":68,"Duration":97402,"SoundDuration":97402,"Delta":257538899},{"NoteNumber":62,"Velocity":44,"Duration":48701,"SoundDuration":48701,"Delta":257636301},{"NoteNumber":67,"Velocity":53,"Duration":48701,"SoundDuration":48701,"Delta":257636301},{"NoteNumber":65,"Velocity":44,"Duration":48701,"SoundDuration":48701,"Delta":257636301},{"NoteNumber":70,"Velocity":57,"Duration":100671,"SoundDuration":100671,"Delta":257733704},{"NoteNumber":82,"Velocity":68,"Duration":100671,"SoundDuration":100671,"Delta":257733704},{"NoteNumber":55,"Velocity":46,"Duration":100671,"SoundDuration":100671,"Delta":257733704},{"NoteNumber":62,"Velocity":46,"Duration":100671,"SoundDuration":100671,"Delta":257733704},{"NoteNumber":67,"Velocity":55,"Duration":100671,"SoundDuration":100671,"Delta":257733704},{"NoteNumber":83,"Velocity":68,"Duration":96463,"SoundDuration":96463,"Delta":257935046},{"NoteNumber":95,"Velocity":81,"Duration":96463,"SoundDuration":96463,"Delta":257935046},{"NoteNumber":43,"Velocity":54,"Duration":96463,"SoundDuration":96463,"Delta":257935046},{"NoteNumber":55,"Velocity":63,"Duration":96463,"SoundDuration":96463,"Delta":257935046},{"NoteNumber":71,"Velocity":55,"Duration":99140,"SoundDuration":99140,"Delta":258127972},{"NoteNumber":83,"Velocity":65,"Duration":99140,"SoundDuration":99140,"Delta":258127972},{"NoteNumber":64,"Velocity":45,"Duration":49570,"SoundDuration":49570,"Delta":258227113},{"NoteNumber":61,"Velocity":45,"Duration":49570,"SoundDuration":49570,"Delta":258227113},{"NoteNumber":67,"Velocity":54,"Duration":49570,"SoundDuration":49570,"Delta":258227113},{"NoteNumber":95,"Velocity":71,"Duration":101146,"SoundDuration":101146,"Delta":258326254},{"NoteNumber":83,"Velocity":59,"Duration":101146,"SoundDuration":101146,"Delta":258326254},{"NoteNumber":65,"Velocity":45,"Duration":101146,"SoundDuration":101146,"Delta":258326254},{"NoteNumber":62,"Velocity":45,"Duration":101146,"SoundDuration":101146,"Delta":258326254},{"NoteNumber":67,"Velocity":54,"Duration":101146,"SoundDuration":101146,"Delta":258326254},{"NoteNumber":107,"Velocity":87,"Duration":99800,"SoundDuration":99800,"Delta":258528546},{"NoteNumber":95,"Velocity":72,"Duration":99800,"SoundDuration":99800,"Delta":258528546},{"NoteNumber":62,"Velocity":57,"Duration":99800,"SoundDuration":99800,"Delta":258528546},{"NoteNumber":65,"Velocity":57,"Duration":99800,"SoundDuration":99800,"Delta":258528546},{"NoteNumber":67,"Velocity":68,"Duration":99800,"SoundDuration":99800,"Delta":258528546},{"NoteNumber":83,"Velocity":59,"Duration":104529,"SoundDuration":104529,"Delta":258728147},{"NoteNumber":95,"Velocity":71,"Duration":104529,"SoundDuration":104529,"Delta":258728147},{"NoteNumber":56,"Velocity":45,"Duration":52264,"SoundDuration":52264,"Delta":258832677},{"NoteNumber":62,"Velocity":45,"Duration":52264,"SoundDuration":52264,"Delta":258832677},{"NoteNumber":68,"Velocity":54,"Duration":52264,"SoundDuration":52264,"Delta":258832677},{"NoteNumber":65,"Velocity":45,"Duration":52264,"SoundDuration":52264,"Delta":258832677},{"NoteNumber":71,"Velocity":60,"Duration":140187,"SoundDuration":140187,"Delta":258937206},{"NoteNumber":83,"Velocity":71,"Duration":140187,"SoundDuration":140187,"Delta":258937206},{"NoteNumber":65,"Velocity":48,"Duration":140187,"SoundDuration":140187,"Delta":258937206},{"NoteNumber":55,"Velocity":48,"Duration":140187,"SoundDuration":140187,"Delta":258937206},{"NoteNumber":62,"Velocity":48,"Duration":140187,"SoundDuration":140187,"Delta":258937206},{"NoteNumber":67,"Velocity":57,"Duration":140187,"SoundDuration":140187,"Delta":258937206},{"NoteNumber":76,"Velocity":52,"Duration":342205,"SoundDuration":342205,"Delta":259217580},{"NoteNumber":88,"Velocity":69,"Duration":342205,"SoundDuration":342205,"Delta":259217580},{"NoteNumber":48,"Velocity":33,"Duration":114068,"SoundDuration":114068,"Delta":259217580},{"NoteNumber":36,"Velocity":33,"Duration":114068,"SoundDuration":114068,"Delta":259217580},{"NoteNumber":79,"Velocity":41,"Duration":114068,"SoundDuration":114068,"Delta":259331649},{"NoteNumber":84,"Velocity":41,"Duration":114068,"SoundDuration":114068,"Delta":259445717},{"NoteNumber":52,"Velocity":21,"Duration":114068,"SoundDuration":114068,"Delta":259445717},{"NoteNumber":55,"Velocity":21,"Duration":114068,"SoundDuration":114068,"Delta":259445717},{"NoteNumber":62,"Velocity":31,"Duration":114068,"SoundDuration":114068,"Delta":259445717},{"NoteNumber":74,"Velocity":46,"Duration":342205,"SoundDuration":342205,"Delta":259559786},{"NoteNumber":86,"Velocity":62,"Duration":342205,"SoundDuration":342205,"Delta":259559786},{"NoteNumber":76,"Velocity":37,"Duration":114068,"SoundDuration":114068,"Delta":259673854},{"NoteNumber":48,"Velocity":33,"Duration":114068,"SoundDuration":114068,"Delta":259673854},{"NoteNumber":79,"Velocity":37,"Duration":114068,"SoundDuration":114068,"Delta":259787923},{"NoteNumber":72,"Velocity":45,"Duration":333332,"SoundDuration":333332,"Delta":259901991},{"NoteNumber":84,"Velocity":61,"Duration":333332,"SoundDuration":333332,"Delta":259901991},{"NoteNumber":52,"Velocity":29,"Duration":111110,"SoundDuration":111110,"Delta":259901991},{"NoteNumber":55,"Velocity":29,"Duration":111110,"SoundDuration":111110,"Delta":259901991},{"NoteNumber":60,"Velocity":44,"Duration":111110,"SoundDuration":111110,"Delta":259901991},{"NoteNumber":76,"Velocity":36,"Duration":111110,"SoundDuration":111110,"Delta":260013102},{"NoteNumber":79,"Velocity":37,"Duration":111110,"SoundDuration":111110,"Delta":260124213},{"NoteNumber":48,"Velocity":33,"Duration":111110,"SoundDuration":111110,"Delta":260124213},{"NoteNumber":71,"Velocity":46,"Duration":343668,"SoundDuration":343668,"Delta":260235324},{"NoteNumber":83,"Velocity":62,"Duration":343668,"SoundDuration":343668,"Delta":260235324},{"NoteNumber":76,"Velocity":37,"Duration":116279,"SoundDuration":116279,"Delta":260346435},{"NoteNumber":52,"Velocity":26,"Duration":116279,"SoundDuration":116279,"Delta":260346435},{"NoteNumber":55,"Velocity":26,"Duration":116279,"SoundDuration":116279,"Delta":260346435},{"NoteNumber":59,"Velocity":37,"Duration":116279,"SoundDuration":116279,"Delta":260346435},{"NoteNumber":79,"Velocity":37,"Duration":116278,"SoundDuration":116278,"Delta":260462714},{"NoteNumber":69,"Velocity":45,"Duration":337078,"SoundDuration":337078,"Delta":260578993},{"NoteNumber":81,"Velocity":63,"Duration":337078,"SoundDuration":337078,"Delta":260578993},{"NoteNumber":36,"Velocity":33,"Duration":112359,"SoundDuration":112359,"Delta":260578993},{"NoteNumber":72,"Velocity":41,"Duration":112359,"SoundDuration":112359,"Delta":260691353},{"NoteNumber":76,"Velocity":41,"Duration":112359,"SoundDuration":112359,"Delta":260803712},{"NoteNumber":52,"Velocity":21,"Duration":112359,"SoundDuration":112359,"Delta":260803712},{"NoteNumber":54,"Velocity":21,"Duration":112359,"SoundDuration":112359,"Delta":260803712},{"NoteNumber":57,"Velocity":31,"Duration":112359,"SoundDuration":112359,"Delta":260803712},{"NoteNumber":66,"Velocity":45,"Duration":345822,"SoundDuration":345822,"Delta":260916072},{"NoteNumber":78,"Velocity":60,"Duration":345822,"SoundDuration":345822,"Delta":260916072},{"NoteNumber":72,"Velocity":36,"Duration":116731,"SoundDuration":116731,"Delta":261028431},{"NoteNumber":48,"Velocity":33,"Duration":116731,"SoundDuration":116731,"Delta":261028431},{"NoteNumber":76,"Velocity":36,"Duration":116731,"SoundDuration":116731,"Delta":261145163},{"NoteNumber":67,"Velocity":48,"Duration":334572,"SoundDuration":334572,"Delta":261261894},{"NoteNumber":79,"Velocity":63,"Duration":334572,"SoundDuration":334572,"Delta":261261894},{"NoteNumber":52,"Velocity":29,"Duration":111524,"SoundDuration":111524,"Delta":261261894},{"NoteNumber":55,"Velocity":44,"Duration":111524,"SoundDuration":111524,"Delta":261261894},{"NoteNumber":72,"Velocity":39,"Duration":111524,"SoundDuration":111524,"Delta":261373418},{"NoteNumber":76,"Velocity":39,"Duration":111524,"SoundDuration":111524,"Delta":261484943},{"NoteNumber":48,"Velocity":33,"Duration":111524,"SoundDuration":111524,"Delta":261484943},{"NoteNumber":76,"Velocity":51,"Duration":343184,"SoundDuration":343184,"Delta":261596467},{"NoteNumber":88,"Velocity":65,"Duration":343184,"SoundDuration":343184,"Delta":261596467},{"NoteNumber":79,"Velocity":36,"Duration":115830,"SoundDuration":115830,"Delta":261707991},{"NoteNumber":55,"Velocity":26,"Duration":115830,"SoundDuration":115830,"Delta":261707991},{"NoteNumber":60,"Velocity":26,"Duration":115830,"SoundDuration":115830,"Delta":261707991},{"NoteNumber":64,"Velocity":37,"Duration":115830,"SoundDuration":115830,"Delta":261707991},{"NoteNumber":84,"Velocity":36,"Duration":115829,"SoundDuration":115829,"Delta":261823821},{"NoteNumber":76,"Velocity":52,"Duration":338346,"SoundDuration":338346,"Delta":261939651},{"NoteNumber":88,"Velocity":69,"Duration":338346,"SoundDuration":338346,"Delta":261939651},{"NoteNumber":48,"Velocity":33,"Duration":112781,"SoundDuration":112781,"Delta":261939651},{"NoteNumber":36,"Velocity":33,"Duration":112781,"SoundDuration":112781,"Delta":261939651},{"NoteNumber":78,"Velocity":41,"Duration":112782,"SoundDuration":112782,"Delta":262052433},{"NoteNumber":81,"Velocity":41,"Duration":112781,"SoundDuration":112781,"Delta":262165215},{"NoteNumber":54,"Velocity":21,"Duration":112781,"SoundDuration":112781,"Delta":262165215},{"NoteNumber":57,"Velocity":21,"Duration":112781,"SoundDuration":112781,"Delta":262165215},{"NoteNumber":64,"Velocity":31,"Duration":112781,"SoundDuration":112781,"Delta":262165215},{"NoteNumber":73,"Velocity":61,"Duration":338346,"SoundDuration":338346,"Delta":262277997},{"NoteNumber":85,"Velocity":66,"Duration":338346,"SoundDuration":338346,"Delta":262277997},{"NoteNumber":78,"Velocity":37,"Duration":112782,"SoundDuration":112782,"Delta":262390779},{"NoteNumber":48,"Velocity":33,"Duration":112782,"SoundDuration":112782,"Delta":262390779},{"NoteNumber":81,"Velocity":37,"Duration":112781,"SoundDuration":112781,"Delta":262503561},{"NoteNumber":74,"Velocity":50,"Duration":333332,"SoundDuration":333332,"Delta":262616343},{"NoteNumber":86,"Velocity":65,"Duration":333332,"SoundDuration":333332,"Delta":262616343},{"NoteNumber":54,"Velocity":29,"Duration":111110,"SoundDuration":111110,"Delta":262616343},{"NoteNumber":57,"Velocity":29,"Duration":111110,"SoundDuration":111110,"Delta":262616343},{"NoteNumber":62,"Velocity":44,"Duration":111110,"SoundDuration":111110,"Delta":262616343},{"NoteNumber":78,"Velocity":36,"Duration":111110,"SoundDuration":111110,"Delta":262727454},{"NoteNumber":81,"Velocity":37,"Duration":111110,"SoundDuration":111110,"Delta":262838565},{"NoteNumber":48,"Velocity":33,"Duration":111110,"SoundDuration":111110,"Delta":262838565},{"NoteNumber":76,"Velocity":54,"Duration":341880,"SoundDuration":341880,"Delta":262949676},{"NoteNumber":88,"Velocity":70,"Duration":341880,"SoundDuration":341880,"Delta":262949676},{"NoteNumber":78,"Velocity":37,"Duration":115384,"SoundDuration":115384,"Delta":263060787},{"NoteNumber":54,"Velocity":26,"Duration":115384,"SoundDuration":115384,"Delta":263060787},{"NoteNumber":57,"Velocity":26,"Duration":115384,"SoundDuration":115384,"Delta":263060787},{"NoteNumber":64,"Velocity":37,"Duration":115384,"SoundDuration":115384,"Delta":263060787},{"NoteNumber":81,"Velocity":37,"Duration":115384,"SoundDuration":115384,"Delta":263176172},{"NoteNumber":77,"Velocity":56,"Duration":342205,"SoundDuration":342205,"Delta":263291556},{"NoteNumber":89,"Velocity":73,"Duration":342205,"SoundDuration":342205,"Delta":263291556},{"NoteNumber":48,"Velocity":41,"Duration":114068,"SoundDuration":114068,"Delta":263291556},{"NoteNumber":83,"Velocity":44,"Duration":114068,"SoundDuration":114068,"Delta":263405625},{"NoteNumber":86,"Velocity":45,"Duration":114068,"SoundDuration":114068,"Delta":263519693},{"NoteNumber":55,"Velocity":28,"Duration":114068,"SoundDuration":114068,"Delta":263519693},{"NoteNumber":59,"Velocity":28,"Duration":114068,"SoundDuration":114068,"Delta":263519693},{"NoteNumber":65,"Velocity":34,"Duration":114068,"SoundDuration":114068,"Delta":263519693},{"NoteNumber":78,"Velocity":53,"Duration":383693,"SoundDuration":383693,"Delta":263633762},{"NoteNumber":90,"Velocity":69,"Duration":383693,"SoundDuration":383693,"Delta":263633762},{"NoteNumber":83,"Velocity":45,"Duration":118110,"SoundDuration":118110,"Delta":263747830},{"NoteNumber":48,"Velocity":43,"Duration":118110,"SoundDuration":118110,"Delta":263747830},{"NoteNumber":86,"Velocity":45,"Duration":151515,"SoundDuration":151515,"Delta":263865940},{"NoteNumber":81,"Velocity":58,"Duration":342205,"SoundDuration":342205,"Delta":264017456},{"NoteNumber":93,"Velocity":75,"Duration":342205,"SoundDuration":342205,"Delta":264017456},{"NoteNumber":59,"Velocity":28,"Duration":114068,"SoundDuration":114068,"Delta":264017456},{"NoteNumber":65,"Velocity":28,"Duration":114068,"SoundDuration":114068,"Delta":264017456},{"NoteNumber":69,"Velocity":34,"Duration":114068,"SoundDuration":114068,"Delta":264017456},{"NoteNumber":83,"Velocity":48,"Duration":114068,"SoundDuration":114068,"Delta":264131524},{"NoteNumber":86,"Velocity":49,"Duration":114068,"SoundDuration":114068,"Delta":264245593},{"NoteNumber":48,"Velocity":45,"Duration":114068,"SoundDuration":114068,"Delta":264245593},{"NoteNumber":79,"Velocity":54,"Duration":353112,"SoundDuration":353112,"Delta":264359661},{"NoteNumber":91,"Velocity":70,"Duration":353112,"SoundDuration":353112,"Delta":264359661},{"NoteNumber":83,"Velocity":47,"Duration":119522,"SoundDuration":119522,"Delta":264473730},{"NoteNumber":59,"Velocity":33,"Duration":119522,"SoundDuration":119522,"Delta":264473730},{"NoteNumber":65,"Velocity":33,"Duration":119522,"SoundDuration":119522,"Delta":264473730},{"NoteNumber":67,"Velocity":39,"Duration":119522,"SoundDuration":119522,"Delta":264473730},{"NoteNumber":86,"Velocity":46,"Duration":119521,"SoundDuration":119521,"Delta":264593252},{"NoteNumber":76,"Velocity":52,"Duration":114068,"SoundDuration":114068,"Delta":264712774},{"NoteNumber":88,"Velocity":69,"Duration":114068,"SoundDuration":114068,"Delta":264712774},{"NoteNumber":48,"Velocity":33,"Duration":114068,"SoundDuration":114068,"Delta":264712774},{"NoteNumber":36,"Velocity":33,"Duration":114068,"SoundDuration":114068,"Delta":264712774},{"NoteNumber":79,"Velocity":41,"Duration":114068,"SoundDuration":114068,"Delta":264826842},{"NoteNumber":84,"Velocity":41,"Duration":114068,"SoundDuration":114068,"Delta":264940911},{"NoteNumber":52,"Velocity":21,"Duration":228137,"SoundDuration":228137,"Delta":264940911},{"NoteNumber":55,"Velocity":21,"Duration":228137,"SoundDuration":228137,"Delta":264940911},{"NoteNumber":62,"Velocity":31,"Duration":228137,"SoundDuration":228137,"Delta":264940911},{"NoteNumber":74,"Velocity":46,"Duration":114068,"SoundDuration":114068,"Delta":265054979},{"NoteNumber":86,"Velocity":62,"Duration":114068,"SoundDuration":114068,"Delta":265054979},{"NoteNumber":76,"Velocity":37,"Duration":114068,"SoundDuration":114068,"Delta":265169048},{"NoteNumber":48,"Velocity":33,"Duration":228137,"SoundDuration":228137,"Delta":265169048},{"NoteNumber":79,"Velocity":37,"Duration":114068,"SoundDuration":114068,"Delta":265283116},{"NoteNumber":72,"Velocity":45,"Duration":110294,"SoundDuration":110294,"Delta":265397185},{"NoteNumber":84,"Velocity":61,"Duration":110294,"SoundDuration":110294,"Delta":265397185},{"NoteNumber":52,"Velocity":29,"Duration":220588,"SoundDuration":220588,"Delta":265397185},{"NoteNumber":55,"Velocity":29,"Duration":220588,"SoundDuration":220588,"Delta":265397185},{"NoteNumber":60,"Velocity":44,"Duration":220588,"SoundDuration":220588,"Delta":265397185},{"NoteNumber":76,"Velocity":36,"Duration":110294,"SoundDuration":110294,"Delta":265507479},{"NoteNumber":79,"Velocity":37,"Duration":110293,"SoundDuration":110293,"Delta":265617773},{"NoteNumber":48,"Velocity":33,"Duration":220587,"SoundDuration":220587,"Delta":265617773},{"NoteNumber":71,"Velocity":46,"Duration":110294,"SoundDuration":110294,"Delta":265728067},{"NoteNumber":83,"Velocity":62,"Duration":110294,"SoundDuration":110294,"Delta":265728067},{"NoteNumber":76,"Velocity":37,"Duration":112359,"SoundDuration":112359,"Delta":265838361},{"NoteNumber":52,"Velocity":26,"Duration":224718,"SoundDuration":224718,"Delta":265838361},{"NoteNumber":55,"Velocity":26,"Duration":224718,"SoundDuration":224718,"Delta":265838361},{"NoteNumber":59,"Velocity":37,"Duration":224718,"SoundDuration":224718,"Delta":265838361},{"NoteNumber":79,"Velocity":37,"Duration":112359,"SoundDuration":112359,"Delta":265950720},{"NoteNumber":69,"Velocity":45,"Duration":113207,"SoundDuration":113207,"Delta":266063080},{"NoteNumber":81,"Velocity":63,"Duration":113207,"SoundDuration":113207,"Delta":266063080},{"NoteNumber":48,"Velocity":33,"Duration":226414,"SoundDuration":226414,"Delta":266063080},{"NoteNumber":72,"Velocity":41,"Duration":113207,"SoundDuration":113207,"Delta":266176287},{"NoteNumber":76,"Velocity":41,"Duration":113207,"SoundDuration":113207,"Delta":266289495},{"NoteNumber":52,"Velocity":21,"Duration":226415,"SoundDuration":226415,"Delta":266289495},{"NoteNumber":54,"Velocity":21,"Duration":226415,"SoundDuration":226415,"Delta":266289495},{"NoteNumber":57,"Velocity":31,"Duration":226415,"SoundDuration":226415,"Delta":266289495},{"NoteNumber":66,"Velocity":45,"Duration":113207,"SoundDuration":113207,"Delta":266402702},{"NoteNumber":78,"Velocity":60,"Duration":113207,"SoundDuration":113207,"Delta":266402702},{"NoteNumber":72,"Velocity":36,"Duration":117646,"SoundDuration":117646,"Delta":266515910},{"NoteNumber":48,"Velocity":33,"Duration":235294,"SoundDuration":235294,"Delta":266515910},{"NoteNumber":76,"Velocity":36,"Duration":117647,"SoundDuration":117647,"Delta":266633557},{"NoteNumber":67,"Velocity":48,"Duration":112359,"SoundDuration":112359,"Delta":266751204},{"NoteNumber":79,"Velocity":63,"Duration":112359,"SoundDuration":112359,"Delta":266751204},{"NoteNumber":52,"Velocity":29,"Duration":224718,"SoundDuration":224718,"Delta":266751204},{"NoteNumber":55,"Velocity":44,"Duration":224718,"SoundDuration":224718,"Delta":266751204},{"NoteNumber":72,"Velocity":39,"Duration":112359,"SoundDuration":112359,"Delta":266863563},{"NoteNumber":76,"Velocity":39,"Duration":112359,"SoundDuration":112359,"Delta":266975923},{"NoteNumber":48,"Velocity":33,"Duration":224718,"SoundDuration":224718,"Delta":266975923},{"NoteNumber":76,"Velocity":51,"Duration":112359,"SoundDuration":112359,"Delta":267088282},{"NoteNumber":88,"Velocity":65,"Duration":112359,"SoundDuration":112359,"Delta":267088282},{"NoteNumber":79,"Velocity":36,"Duration":115830,"SoundDuration":115830,"Delta":267200642},{"NoteNumber":55,"Velocity":26,"Duration":231659,"SoundDuration":231659,"Delta":267200642},{"NoteNumber":60,"Velocity":26,"Duration":231659,"SoundDuration":231659,"Delta":267200642},{"NoteNumber":64,"Velocity":37,"Duration":231659,"SoundDuration":231659,"Delta":267200642},{"NoteNumber":84,"Velocity":36,"Duration":115829,"SoundDuration":115829,"Delta":267316472},{"NoteNumber":76,"Velocity":45,"Duration":112359,"SoundDuration":112359,"Delta":267432302},{"NoteNumber":88,"Velocity":65,"Duration":112359,"SoundDuration":112359,"Delta":267432302},{"NoteNumber":35,"Velocity":41,"Duration":224718,"SoundDuration":224718,"Delta":267432302},{"NoteNumber":78,"Velocity":43,"Duration":112359,"SoundDuration":112359,"Delta":267544661},{"NoteNumber":81,"Velocity":43,"Duration":112359,"SoundDuration":112359,"Delta":267657021},{"NoteNumber":54,"Velocity":28,"Duration":224718,"SoundDuration":224718,"Delta":267657021},{"NoteNumber":57,"Velocity":28,"Duration":224718,"SoundDuration":224718,"Delta":267657021},{"NoteNumber":63,"Velocity":35,"Duration":224718,"SoundDuration":224718,"Delta":267657021},{"NoteNumber":75,"Velocity":53,"Duration":112359,"SoundDuration":112359,"Delta":267769380},{"NoteNumber":87,"Velocity":63,"Duration":112359,"SoundDuration":112359,"Delta":267769380},{"NoteNumber":78,"Velocity":48,"Duration":112359,"SoundDuration":112359,"Delta":267881740},{"NoteNumber":47,"Velocity":48,"Duration":224718,"SoundDuration":224718,"Delta":267881740},{"NoteNumber":81,"Velocity":49,"Duration":112359,"SoundDuration":112359,"Delta":267994099},{"NoteNumber":79,"Velocity":59,"Duration":114068,"SoundDuration":114068,"Delta":268106459},{"NoteNumber":91,"Velocity":70,"Duration":114068,"SoundDuration":114068,"Delta":268106459},{"NoteNumber":57,"Velocity":36,"Duration":228137,"SoundDuration":228137,"Delta":268106459},{"NoteNumber":63,"Velocity":36,"Duration":228137,"SoundDuration":228137,"Delta":268106459},{"NoteNumber":67,"Velocity":43,"Duration":228137,"SoundDuration":228137,"Delta":268106459},{"NoteNumber":81,"Velocity":49,"Duration":114068,"SoundDuration":114068,"Delta":268220527},{"NoteNumber":87,"Velocity":51,"Duration":114068,"SoundDuration":114068,"Delta":268334596},{"NoteNumber":47,"Velocity":54,"Duration":228137,"SoundDuration":228137,"Delta":268334596},{"NoteNumber":78,"Velocity":64,"Duration":114068,"SoundDuration":114068,"Delta":268448664},{"NoteNumber":90,"Velocity":76,"Duration":114068,"SoundDuration":114068,"Delta":268448664},{"NoteNumber":81,"Velocity":52,"Duration":116279,"SoundDuration":116279,"Delta":268562733},{"NoteNumber":57,"Velocity":39,"Duration":232557,"SoundDuration":232557,"Delta":268562733},{"NoteNumber":63,"Velocity":47,"Duration":232557,"SoundDuration":232557,"Delta":268562733},{"NoteNumber":66,"Velocity":47,"Duration":232557,"SoundDuration":232557,"Delta":268562733},{"NoteNumber":87,"Velocity":54,"Duration":116278,"SoundDuration":116278,"Delta":268679012},{"NoteNumber":81,"Velocity":69,"Duration":123456,"SoundDuration":123456,"Delta":268795291},{"NoteNumber":93,"Velocity":81,"Duration":123456,"SoundDuration":123456,"Delta":268795291},{"NoteNumber":40,"Velocity":57,"Duration":246913,"SoundDuration":246913,"Delta":268795291},{"NoteNumber":52,"Velocity":57,"Duration":246913,"SoundDuration":246913,"Delta":268795291},{"NoteNumber":83,"Velocity":58,"Duration":123456,"SoundDuration":123456,"Delta":268918747},{"NoteNumber":88,"Velocity":59,"Duration":123456,"SoundDuration":123456,"Delta":269042204},{"NoteNumber":59,"Velocity":37,"Duration":246913,"SoundDuration":246913,"Delta":269042204},{"NoteNumber":64,"Velocity":37,"Duration":246913,"SoundDuration":246913,"Delta":269042204},{"NoteNumber":69,"Velocity":45,"Duration":246913,"SoundDuration":246913,"Delta":269042204},{"NoteNumber":79,"Velocity":69,"Duration":123456,"SoundDuration":123456,"Delta":269165661},{"NoteNumber":91,"Velocity":82,"Duration":123456,"SoundDuration":123456,"Delta":269165661},{"NoteNumber":83,"Velocity":60,"Duration":126582,"SoundDuration":126582,"Delta":269289118},{"NoteNumber":59,"Velocity":45,"Duration":287872,"SoundDuration":287872,"Delta":269289118},{"NoteNumber":64,"Velocity":45,"Duration":287872,"SoundDuration":287872,"Delta":269289118},{"NoteNumber":67,"Velocity":55,"Duration":287872,"SoundDuration":287872,"Delta":269289118},{"NoteNumber":88,"Velocity":63,"Duration":161290,"SoundDuration":161290,"Delta":269415700},{"NoteNumber":83,"Velocity":80,"Duration":123456,"SoundDuration":123456,"Delta":269576990},{"NoteNumber":95,"Velocity":94,"Duration":123456,"SoundDuration":123456,"Delta":269576990},{"NoteNumber":43,"Velocity":44,"Duration":246913,"SoundDuration":246913,"Delta":269576990},{"NoteNumber":55,"Velocity":44,"Duration":246913,"SoundDuration":246913,"Delta":269576990},{"NoteNumber":86,"Velocity":63,"Duration":123456,"SoundDuration":123456,"Delta":269700447},{"NoteNumber":89,"Velocity":64,"Duration":123456,"SoundDuration":123456,"Delta":269823904},{"NoteNumber":59,"Velocity":40,"Duration":246913,"SoundDuration":246913,"Delta":269823904},{"NoteNumber":62,"Velocity":40,"Duration":246913,"SoundDuration":246913,"Delta":269823904},{"NoteNumber":65,"Velocity":40,"Duration":246913,"SoundDuration":246913,"Delta":269823904},{"NoteNumber":69,"Velocity":47,"Duration":246913,"SoundDuration":246913,"Delta":269823904},{"NoteNumber":81,"Velocity":73,"Duration":123456,"SoundDuration":123456,"Delta":269947360},{"NoteNumber":93,"Velocity":87,"Duration":123456,"SoundDuration":123456,"Delta":269947360},{"NoteNumber":86,"Velocity":49,"Duration":131004,"SoundDuration":131004,"Delta":270070817},{"NoteNumber":89,"Velocity":59,"Duration":131004,"SoundDuration":131004,"Delta":270070817},{"NoteNumber":62,"Velocity":36,"Duration":262008,"SoundDuration":262008,"Delta":270070817},{"NoteNumber":59,"Velocity":36,"Duration":262008,"SoundDuration":262008,"Delta":270070817},{"NoteNumber":65,"Velocity":36,"Duration":262008,"SoundDuration":262008,"Delta":270070817},{"NoteNumber":67,"Velocity":42,"Duration":262008,"SoundDuration":262008,"Delta":270070817},{"NoteNumber":79,"Velocity":59,"Duration":131004,"SoundDuration":131004,"Delta":270201821},{"NoteNumber":91,"Velocity":59,"Duration":131004,"SoundDuration":131004,"Delta":270201821},{"NoteNumber":91,"Velocity":79,"Duration":355328,"SoundDuration":355328,"Delta":270332826},{"NoteNumber":88,"Velocity":79,"Duration":355328,"SoundDuration":355328,"Delta":270332826},{"NoteNumber":100,"Velocity":94,"Duration":355328,"SoundDuration":355328,"Delta":270332826},{"NoteNumber":48,"Velocity":49,"Duration":355328,"SoundDuration":355328,"Delta":270332826},{"NoteNumber":36,"Velocity":49,"Duration":355328,"SoundDuration":355328,"Delta":270332826},{"NoteNumber":64,"Velocity":32,"Duration":341964,"SoundDuration":341964,"Delta":270519720},{"NoteNumber":67,"Velocity":32,"Duration":341964,"SoundDuration":341964,"Delta":270519720},{"NoteNumber":76,"Velocity":47,"Duration":341964,"SoundDuration":341964,"Delta":270519720},{"NoteNumber":91,"Velocity":70,"Duration":347061,"SoundDuration":347061,"Delta":270688154},{"NoteNumber":88,"Velocity":70,"Duration":347061,"SoundDuration":347061,"Delta":270688154},{"NoteNumber":86,"Velocity":70,"Duration":347061,"SoundDuration":347061,"Delta":270688154},{"NoteNumber":98,"Velocity":84,"Duration":347061,"SoundDuration":347061,"Delta":270688154},{"NoteNumber":62,"Velocity":45,"Duration":340817,"SoundDuration":340817,"Delta":270861685},{"NoteNumber":64,"Velocity":45,"Duration":340817,"SoundDuration":340817,"Delta":270861685},{"NoteNumber":67,"Velocity":45,"Duration":340817,"SoundDuration":340817,"Delta":270861685},{"NoteNumber":74,"Velocity":65,"Duration":340817,"SoundDuration":340817,"Delta":270861685},{"NoteNumber":91,"Velocity":69,"Duration":334572,"SoundDuration":334572,"Delta":271035216},{"NoteNumber":88,"Velocity":69,"Duration":334572,"SoundDuration":334572,"Delta":271035216},{"NoteNumber":84,"Velocity":69,"Duration":334572,"SoundDuration":334572,"Delta":271035216},{"NoteNumber":96,"Velocity":83,"Duration":334572,"SoundDuration":334572,"Delta":271035216},{"NoteNumber":60,"Velocity":39,"Duration":337176,"SoundDuration":337176,"Delta":271202502},{"NoteNumber":64,"Velocity":39,"Duration":337176,"SoundDuration":337176,"Delta":271202502},{"NoteNumber":67,"Velocity":39,"Duration":345931,"SoundDuration":345931,"Delta":271202502},{"NoteNumber":72,"Velocity":57,"Duration":337176,"SoundDuration":337176,"Delta":271202502},{"NoteNumber":91,"Velocity":70,"Duration":344987,"SoundDuration":344987,"Delta":271369788},{"NoteNumber":88,"Velocity":70,"Duration":344987,"SoundDuration":344987,"Delta":271369788},{"NoteNumber":83,"Velocity":70,"Duration":344987,"SoundDuration":344987,"Delta":271369788},{"NoteNumber":95,"Velocity":84,"Duration":344987,"SoundDuration":344987,"Delta":271369788},{"NoteNumber":59,"Velocity":39,"Duration":175097,"SoundDuration":175097,"Delta":271539678},{"NoteNumber":64,"Velocity":39,"Duration":175097,"SoundDuration":175097,"Delta":271539678},{"NoteNumber":67,"Velocity":39,"Duration":175097,"SoundDuration":175097,"Delta":271539678},{"NoteNumber":71,"Velocity":57,"Duration":175097,"SoundDuration":175097,"Delta":271539678},{"NoteNumber":88,"Velocity":69,"Duration":337936,"SoundDuration":337936,"Delta":271714776},{"NoteNumber":84,"Velocity":69,"Duration":337936,"SoundDuration":337936,"Delta":271714776},{"NoteNumber":81,"Velocity":69,"Duration":337936,"SoundDuration":337936,"Delta":271714776},{"NoteNumber":93,"Velocity":88,"Duration":337936,"SoundDuration":337936,"Delta":271714776},{"NoteNumber":57,"Velocity":35,"Duration":341449,"SoundDuration":341449,"Delta":271883953},{"NoteNumber":60,"Velocity":35,"Duration":341449,"SoundDuration":341449,"Delta":271883953},{"NoteNumber":64,"Velocity":35,"Duration":341449,"SoundDuration":341449,"Delta":271883953},{"NoteNumber":69,"Velocity":47,"Duration":341449,"SoundDuration":341449,"Delta":271883953},{"NoteNumber":88,"Velocity":69,"Duration":349856,"SoundDuration":349856,"Delta":272052712},{"NoteNumber":84,"Velocity":69,"Duration":349856,"SoundDuration":349856,"Delta":272052712},{"NoteNumber":78,"Velocity":69,"Duration":349856,"SoundDuration":349856,"Delta":272052712},{"NoteNumber":90,"Velocity":82,"Duration":349856,"SoundDuration":349856,"Delta":272052712},{"NoteNumber":54,"Velocity":41,"Duration":345075,"SoundDuration":345075,"Delta":272225403},{"NoteNumber":60,"Velocity":41,"Duration":345075,"SoundDuration":345075,"Delta":272225403},{"NoteNumber":64,"Velocity":41,"Duration":345075,"SoundDuration":345075,"Delta":272225403},{"NoteNumber":66,"Velocity":56,"Duration":345075,"SoundDuration":345075,"Delta":272225403},{"NoteNumber":88,"Velocity":72,"Duration":335820,"SoundDuration":335820,"Delta":272402568},{"NoteNumber":84,"Velocity":72,"Duration":335820,"SoundDuration":335820,"Delta":272402568},{"NoteNumber":79,"Velocity":72,"Duration":335820,"SoundDuration":335820,"Delta":272402568},{"NoteNumber":91,"Velocity":86,"Duration":335820,"SoundDuration":335820,"Delta":272402568},{"NoteNumber":55,"Velocity":41,"Duration":167910,"SoundDuration":167910,"Delta":272570479},{"NoteNumber":60,"Velocity":41,"Duration":167910,"SoundDuration":167910,"Delta":272570479},{"NoteNumber":64,"Velocity":41,"Duration":167910,"SoundDuration":167910,"Delta":272570479},{"NoteNumber":67,"Velocity":56,"Duration":167910,"SoundDuration":167910,"Delta":272570479},{"NoteNumber":96,"Velocity":77,"Duration":350035,"SoundDuration":350035,"Delta":272738389},{"NoteNumber":91,"Velocity":77,"Duration":350035,"SoundDuration":350035,"Delta":272738389},{"NoteNumber":88,"Velocity":77,"Duration":350035,"SoundDuration":350035,"Delta":272738389},{"NoteNumber":100,"Velocity":90,"Duration":350035,"SoundDuration":350035,"Delta":272738389},{"NoteNumber":36,"Velocity":49,"Duration":520799,"SoundDuration":520799,"Delta":272909853},{"NoteNumber":93,"Velocity":77,"Duration":342228,"SoundDuration":342228,"Delta":273088424},{"NoteNumber":90,"Velocity":77,"Duration":342228,"SoundDuration":342228,"Delta":273088424},{"NoteNumber":88,"Velocity":77,"Duration":342228,"SoundDuration":342228,"Delta":273088424},{"NoteNumber":100,"Velocity":90,"Duration":342228,"SoundDuration":342228,"Delta":273088424},{"NoteNumber":48,"Velocity":49,"Duration":342228,"SoundDuration":342228,"Delta":273088424},{"NoteNumber":69,"Velocity":32,"Duration":342491,"SoundDuration":342491,"Delta":273259753},{"NoteNumber":64,"Velocity":32,"Duration":342491,"SoundDuration":342491,"Delta":273259753},{"NoteNumber":66,"Velocity":32,"Duration":342491,"SoundDuration":342491,"Delta":273259753},{"NoteNumber":76,"Velocity":47,"Duration":342491,"SoundDuration":342491,"Delta":273259753},{"NoteNumber":93,"Velocity":72,"Duration":340561,"SoundDuration":340561,"Delta":273430653},{"NoteNumber":90,"Velocity":72,"Duration":340561,"SoundDuration":340561,"Delta":273430653},{"NoteNumber":85,"Velocity":72,"Duration":340561,"SoundDuration":340561,"Delta":273430653},{"NoteNumber":97,"Velocity":85,"Duration":340561,"SoundDuration":340561,"Delta":273430653},{"NoteNumber":69,"Velocity":45,"Duration":337939,"SoundDuration":337939,"Delta":273602245},{"NoteNumber":61,"Velocity":45,"Duration":337939,"SoundDuration":337939,"Delta":273602245},{"NoteNumber":66,"Velocity":45,"Duration":337939,"SoundDuration":337939,"Delta":273602245},{"NoteNumber":73,"Velocity":65,"Duration":337939,"SoundDuration":337939,"Delta":273602245},{"NoteNumber":93,"Velocity":79,"Duration":337939,"SoundDuration":337939,"Delta":273771214},{"NoteNumber":90,"Velocity":79,"Duration":337939,"SoundDuration":337939,"Delta":273771214},{"NoteNumber":86,"Velocity":79,"Duration":337939,"SoundDuration":337939,"Delta":273771214},{"NoteNumber":98,"Velocity":94,"Duration":337939,"SoundDuration":337939,"Delta":273771214},{"NoteNumber":69,"Velocity":39,"Duration":341465,"SoundDuration":341465,"Delta":273940184},{"NoteNumber":62,"Velocity":39,"Duration":341465,"SoundDuration":341465,"Delta":273940184},{"NoteNumber":66,"Velocity":39,"Duration":350358,"SoundDuration":350358,"Delta":273940184},{"NoteNumber":74,"Velocity":57,"Duration":341465,"SoundDuration":341465,"Delta":273940184},{"NoteNumber":93,"Velocity":83,"Duration":350361,"SoundDuration":350361,"Delta":274109154},{"NoteNumber":90,"Velocity":83,"Duration":350361,"SoundDuration":350361,"Delta":274109154},{"NoteNumber":88,"Velocity":83,"Duration":350361,"SoundDuration":350361,"Delta":274109154},{"NoteNumber":100,"Velocity":99,"Duration":350361,"SoundDuration":350361,"Delta":274109154},{"NoteNumber":69,"Velocity":39,"Duration":177865,"SoundDuration":177865,"Delta":274281650},{"NoteNumber":64,"Velocity":39,"Duration":177865,"SoundDuration":177865,"Delta":274281650},{"NoteNumber":66,"Velocity":39,"Duration":177865,"SoundDuration":177865,"Delta":274281650},{"NoteNumber":76,"Velocity":57,"Duration":177865,"SoundDuration":177865,"Delta":274281650},{"NoteNumber":95,"Velocity":85,"Duration":343766,"SoundDuration":343766,"Delta":274459515},{"NoteNumber":92,"Velocity":85,"Duration":343766,"SoundDuration":343766,"Delta":274459515},{"NoteNumber":89,"Velocity":85,"Duration":343766,"SoundDuration":343766,"Delta":274459515},{"NoteNumber":101,"Velocity":99,"Duration":343766,"SoundDuration":343766,"Delta":274459515},{"NoteNumber":65,"Velocity":35,"Duration":358377,"SoundDuration":358377,"Delta":274628054},{"NoteNumber":68,"Velocity":35,"Duration":358377,"SoundDuration":358377,"Delta":274628054},{"NoteNumber":71,"Velocity":35,"Duration":358377,"SoundDuration":358377,"Delta":274628054},{"NoteNumber":77,"Velocity":47,"Duration":358377,"SoundDuration":358377,"Delta":274628054},{"NoteNumber":92,"Velocity":86,"Duration":375457,"SoundDuration":375457,"Delta":274803282},{"NoteNumber":89,"Velocity":86,"Duration":375457,"SoundDuration":375457,"Delta":274803282},{"NoteNumber":86,"Velocity":86,"Duration":375457,"SoundDuration":375457,"Delta":274803282},{"NoteNumber":98,"Velocity":98,"Duration":375457,"SoundDuration":375457,"Delta":274803282},{"NoteNumber":62,"Velocity":41,"Duration":377493,"SoundDuration":377493,"Delta":274986432},{"NoteNumber":65,"Velocity":41,"Duration":377493,"SoundDuration":377493,"Delta":274986432},{"NoteNumber":68,"Velocity":41,"Duration":377493,"SoundDuration":377493,"Delta":274986432},{"NoteNumber":74,"Velocity":56,"Duration":377493,"SoundDuration":377493,"Delta":274986432},{"NoteNumber":86,"Velocity":79,"Duration":364101,"SoundDuration":364101,"Delta":275178740},{"NoteNumber":83,"Velocity":79,"Duration":364101,"SoundDuration":364101,"Delta":275178740},{"NoteNumber":80,"Velocity":79,"Duration":364101,"SoundDuration":364101,"Delta":275178740},{"NoteNumber":92,"Velocity":91,"Duration":364101,"SoundDuration":364101,"Delta":275178740},{"NoteNumber":59,"Velocity":36,"Duration":178915,"SoundDuration":178915,"Delta":275363925},{"NoteNumber":62,"Velocity":36,"Duration":178915,"SoundDuration":178915,"Delta":275363925},{"NoteNumber":65,"Velocity":36,"Duration":178915,"SoundDuration":178915,"Delta":275363925},{"NoteNumber":71,"Velocity":50,"Duration":178915,"SoundDuration":178915,"Delta":275363925},{"NoteNumber":86,"Velocity":67,"Duration":372506,"SoundDuration":372506,"Delta":275542841},{"NoteNumber":83,"Velocity":67,"Duration":372506,"SoundDuration":372506,"Delta":275542841},{"NoteNumber":79,"Velocity":67,"Duration":372506,"SoundDuration":372506,"Delta":275542841},{"NoteNumber":91,"Velocity":80,"Duration":372506,"SoundDuration":372506,"Delta":275542841},{"NoteNumber":36,"Velocity":36,"Duration":545283,"SoundDuration":545283,"Delta":275723858},{"NoteNumber":79,"Velocity":59,"Duration":353794,"SoundDuration":353794,"Delta":275915347},{"NoteNumber":76,"Velocity":59,"Duration":353794,"SoundDuration":353794,"Delta":275915347},{"NoteNumber":88,"Velocity":70,"Duration":353794,"SoundDuration":353794,"Delta":275915347},{"NoteNumber":48,"Velocity":36,"Duration":353794,"SoundDuration":353794,"Delta":275915347},{"NoteNumber":52,"Velocity":24,"Duration":343128,"SoundDuration":343128,"Delta":276099090},{"NoteNumber":55,"Velocity":24,"Duration":343128,"SoundDuration":343128,"Delta":276099090},{"NoteNumber":64,"Velocity":35,"Duration":343128,"SoundDuration":343128,"Delta":276099090},{"NoteNumber":79,"Velocity":52,"Duration":346153,"SoundDuration":346153,"Delta":276269142},{"NoteNumber":76,"Velocity":52,"Duration":346153,"SoundDuration":346153,"Delta":276269142},{"NoteNumber":74,"Velocity":52,"Duration":346153,"SoundDuration":346153,"Delta":276269142},{"NoteNumber":86,"Velocity":63,"Duration":346153,"SoundDuration":346153,"Delta":276269142},{"NoteNumber":52,"Velocity":33,"Duration":340987,"SoundDuration":340987,"Delta":276442218},{"NoteNumber":55,"Velocity":33,"Duration":340987,"SoundDuration":340987,"Delta":276442218},{"NoteNumber":62,"Velocity":48,"Duration":340987,"SoundDuration":340987,"Delta":276442218},{"NoteNumber":79,"Velocity":51,"Duration":335820,"SoundDuration":335820,"Delta":276615295},{"NoteNumber":76,"Velocity":51,"Duration":335820,"SoundDuration":335820,"Delta":276615295},{"NoteNumber":72,"Velocity":51,"Duration":335820,"SoundDuration":335820,"Delta":276615295},{"NoteNumber":84,"Velocity":62,"Duration":335820,"SoundDuration":335820,"Delta":276615295},{"NoteNumber":52,"Velocity":28,"Duration":339139,"SoundDuration":339139,"Delta":276783205},{"NoteNumber":55,"Velocity":28,"Duration":348032,"SoundDuration":348032,"Delta":276783205},{"NoteNumber":60,"Velocity":42,"Duration":339139,"SoundDuration":339139,"Delta":276783205},{"NoteNumber":79,"Velocity":52,"Duration":349094,"SoundDuration":349094,"Delta":276951116},{"NoteNumber":76,"Velocity":52,"Duration":349094,"SoundDuration":349094,"Delta":276951116},{"NoteNumber":71,"Velocity":52,"Duration":349094,"SoundDuration":349094,"Delta":276951116},{"NoteNumber":83,"Velocity":63,"Duration":349094,"SoundDuration":349094,"Delta":276951116},{"NoteNumber":52,"Velocity":28,"Duration":177865,"SoundDuration":177865,"Delta":277122345},{"NoteNumber":55,"Velocity":28,"Duration":177865,"SoundDuration":177865,"Delta":277122345},{"NoteNumber":59,"Velocity":42,"Duration":177865,"SoundDuration":177865,"Delta":277122345},{"NoteNumber":76,"Velocity":51,"Duration":340070,"SoundDuration":340070,"Delta":277300210},{"NoteNumber":72,"Velocity":51,"Duration":340070,"SoundDuration":340070,"Delta":277300210},{"NoteNumber":69,"Velocity":51,"Duration":340070,"SoundDuration":340070,"Delta":277300210},{"NoteNumber":81,"Velocity":65,"Duration":340070,"SoundDuration":340070,"Delta":277300210},{"NoteNumber":48,"Velocity":26,"Duration":343582,"SoundDuration":343582,"Delta":277469821},{"NoteNumber":52,"Velocity":26,"Duration":343582,"SoundDuration":343582,"Delta":277469821},{"NoteNumber":57,"Velocity":35,"Duration":343582,"SoundDuration":343582,"Delta":277469821},{"NoteNumber":76,"Velocity":51,"Duration":350288,"SoundDuration":350288,"Delta":277640281},{"NoteNumber":72,"Velocity":51,"Duration":350288,"SoundDuration":350288,"Delta":277640281},{"NoteNumber":66,"Velocity":51,"Duration":350288,"SoundDuration":350288,"Delta":277640281},{"NoteNumber":78,"Velocity":62,"Duration":350288,"SoundDuration":350288,"Delta":277640281},{"NoteNumber":48,"Velocity":30,"Duration":344451,"SoundDuration":344451,"Delta":277813404},{"NoteNumber":52,"Velocity":30,"Duration":344451,"SoundDuration":344451,"Delta":277813404},{"NoteNumber":54,"Velocity":42,"Duration":344451,"SoundDuration":344451,"Delta":277813404},{"NoteNumber":76,"Velocity":54,"Duration":334572,"SoundDuration":334572,"Delta":277990570},{"NoteNumber":72,"Velocity":54,"Duration":334572,"SoundDuration":334572,"Delta":277990570},{"NoteNumber":67,"Velocity":54,"Duration":334572,"SoundDuration":334572,"Delta":277990570},{"NoteNumber":79,"Velocity":64,"Duration":334572,"SoundDuration":334572,"Delta":277990570},{"NoteNumber":48,"Velocity":30,"Duration":167286,"SoundDuration":167286,"Delta":278157856},{"NoteNumber":52,"Velocity":30,"Duration":167286,"SoundDuration":167286,"Delta":278157856},{"NoteNumber":55,"Velocity":42,"Duration":167286,"SoundDuration":167286,"Delta":278157856},{"NoteNumber":84,"Velocity":57,"Duration":174285,"SoundDuration":174285,"Delta":278325143},{"NoteNumber":79,"Velocity":57,"Duration":174285,"SoundDuration":174285,"Delta":278325143},{"NoteNumber":76,"Velocity":57,"Duration":174285,"SoundDuration":174285,"Delta":278325143},{"NoteNumber":88,"Velocity":67,"Duration":174285,"SoundDuration":174285,"Delta":278325143},{"NoteNumber":36,"Velocity":36,"Duration":541048,"SoundDuration":541048,"Delta":278499428},{"NoteNumber":80,"Velocity":64,"Duration":349559,"SoundDuration":349559,"Delta":278690918},{"NoteNumber":77,"Velocity":64,"Duration":349559,"SoundDuration":349559,"Delta":278690918},{"NoteNumber":89,"Velocity":77,"Duration":349559,"SoundDuration":349559,"Delta":278690918},{"NoteNumber":48,"Velocity":39,"Duration":349559,"SoundDuration":349559,"Delta":278690918},{"NoteNumber":53,"Velocity":26,"Duration":343976,"SoundDuration":343976,"Delta":278869578},{"NoteNumber":56,"Velocity":26,"Duration":343976,"SoundDuration":343976,"Delta":278869578},{"NoteNumber":65,"Velocity":38,"Duration":343976,"SoundDuration":343976,"Delta":278869578},{"NoteNumber":80,"Velocity":57,"Duration":346153,"SoundDuration":346153,"Delta":279040477},{"NoteNumber":75,"Velocity":57,"Duration":346153,"SoundDuration":346153,"Delta":279040477},{"NoteNumber":87,"Velocity":68,"Duration":346153,"SoundDuration":346153,"Delta":279040477},{"NoteNumber":53,"Velocity":36,"Duration":341615,"SoundDuration":341615,"Delta":279213554},{"NoteNumber":56,"Velocity":36,"Duration":341615,"SoundDuration":341615,"Delta":279213554},{"NoteNumber":63,"Velocity":53,"Duration":341615,"SoundDuration":341615,"Delta":279213554},{"NoteNumber":80,"Velocity":56,"Duration":337078,"SoundDuration":337078,"Delta":279386631},{"NoteNumber":73,"Velocity":56,"Duration":337078,"SoundDuration":337078,"Delta":279386631},{"NoteNumber":85,"Velocity":67,"Duration":337078,"SoundDuration":337078,"Delta":279386631},{"NoteNumber":53,"Velocity":31,"Duration":340422,"SoundDuration":340422,"Delta":279555170},{"NoteNumber":56,"Velocity":31,"Duration":349351,"SoundDuration":349351,"Delta":279555170},{"NoteNumber":61,"Velocity":45,"Duration":340422,"SoundDuration":340422,"Delta":279555170},{"NoteNumber":80,"Velocity":57,"Duration":350454,"SoundDuration":350454,"Delta":279723709},{"NoteNumber":72,"Velocity":57,"Duration":350454,"SoundDuration":350454,"Delta":279723709},{"NoteNumber":84,"Velocity":68,"Duration":350454,"SoundDuration":350454,"Delta":279723709},{"NoteNumber":53,"Velocity":31,"Duration":178571,"SoundDuration":178571,"Delta":279895593},{"NoteNumber":56,"Velocity":31,"Duration":178571,"SoundDuration":178571,"Delta":279895593},{"NoteNumber":60,"Velocity":45,"Duration":178571,"SoundDuration":178571,"Delta":279895593},{"NoteNumber":77,"Velocity":56,"Duration":341802,"SoundDuration":341802,"Delta":280074164},{"NoteNumber":73,"Velocity":56,"Duration":341802,"SoundDuration":341802,"Delta":280074164},{"NoteNumber":70,"Velocity":56,"Duration":341802,"SoundDuration":341802,"Delta":280074164},{"NoteNumber":82,"Velocity":72,"Duration":341802,"SoundDuration":341802,"Delta":280074164},{"NoteNumber":48,"Velocity":27,"Duration":346001,"SoundDuration":346001,"Delta":280244638},{"NoteNumber":53,"Velocity":27,"Duration":346001,"SoundDuration":346001,"Delta":280244638},{"NoteNumber":58,"Velocity":38,"Duration":346001,"SoundDuration":346001,"Delta":280244638},{"NoteNumber":77,"Velocity":56,"Duration":352538,"SoundDuration":352538,"Delta":280415967},{"NoteNumber":73,"Velocity":56,"Duration":352538,"SoundDuration":352538,"Delta":280415967},{"NoteNumber":67,"Velocity":56,"Duration":352538,"SoundDuration":352538,"Delta":280415967},{"NoteNumber":79,"Velocity":67,"Duration":352538,"SoundDuration":352538,"Delta":280415967},{"NoteNumber":48,"Velocity":33,"Duration":347038,"SoundDuration":347038,"Delta":280590640},{"NoteNumber":53,"Velocity":33,"Duration":347038,"SoundDuration":347038,"Delta":280590640},{"NoteNumber":55,"Velocity":45,"Duration":347038,"SoundDuration":347038,"Delta":280590640},{"NoteNumber":77,"Velocity":59,"Duration":338346,"SoundDuration":338346,"Delta":280768505},{"NoteNumber":73,"Velocity":59,"Duration":338346,"SoundDuration":338346,"Delta":280768505},{"NoteNumber":68,"Velocity":59,"Duration":338346,"SoundDuration":338346,"Delta":280768505},{"NoteNumber":80,"Velocity":70,"Duration":338346,"SoundDuration":338346,"Delta":280768505},{"NoteNumber":48,"Velocity":33,"Duration":169173,"SoundDuration":169173,"Delta":280937678},{"NoteNumber":53,"Velocity":33,"Duration":169173,"SoundDuration":169173,"Delta":280937678},{"NoteNumber":56,"Velocity":45,"Duration":169173,"SoundDuration":169173,"Delta":280937678},{"NoteNumber":85,"Velocity":63,"Duration":174257,"SoundDuration":174257,"Delta":281106851},{"NoteNumber":80,"Velocity":63,"Duration":174257,"SoundDuration":174257,"Delta":281106851},{"NoteNumber":77,"Velocity":63,"Duration":174257,"SoundDuration":174257,"Delta":281106851},{"NoteNumber":89,"Velocity":73,"Duration":174257,"SoundDuration":174257,"Delta":281106851},{"NoteNumber":36,"Velocity":36,"Duration":532929,"SoundDuration":532929,"Delta":281281108},{"NoteNumber":81,"Velocity":68,"Duration":345642,"SoundDuration":345642,"Delta":281468395},{"NoteNumber":78,"Velocity":68,"Duration":345642,"SoundDuration":345642,"Delta":281468395},{"NoteNumber":90,"Velocity":81,"Duration":345642,"SoundDuration":345642,"Delta":281468395},{"NoteNumber":48,"Velocity":47,"Duration":345642,"SoundDuration":345642,"Delta":281468395},{"NoteNumber":54,"Velocity":44,"Duration":338796,"SoundDuration":338796,"Delta":281645695},{"NoteNumber":57,"Velocity":44,"Duration":338796,"SoundDuration":338796,"Delta":281645695},{"NoteNumber":66,"Velocity":52,"Duration":338796,"SoundDuration":338796,"Delta":281645695},{"NoteNumber":81,"Velocity":64,"Duration":340908,"SoundDuration":340908,"Delta":281814037},{"NoteNumber":76,"Velocity":64,"Duration":340908,"SoundDuration":340908,"Delta":281814037},{"NoteNumber":88,"Velocity":77,"Duration":340908,"SoundDuration":340908,"Delta":281814037},{"NoteNumber":54,"Velocity":41,"Duration":337759,"SoundDuration":337759,"Delta":281984492},{"NoteNumber":57,"Velocity":41,"Duration":337759,"SoundDuration":337759,"Delta":281984492},{"NoteNumber":64,"Velocity":48,"Duration":337759,"SoundDuration":337759,"Delta":281984492},{"NoteNumber":78,"Velocity":63,"Duration":337115,"SoundDuration":337115,"Delta":282154946},{"NoteNumber":81,"Velocity":63,"Duration":337115,"SoundDuration":337115,"Delta":282154946},{"NoteNumber":74,"Velocity":63,"Duration":337115,"SoundDuration":337115,"Delta":282154946},{"NoteNumber":86,"Velocity":75,"Duration":337115,"SoundDuration":337115,"Delta":282154946},{"NoteNumber":54,"Velocity":37,"Duration":344243,"SoundDuration":344243,"Delta":282322251},{"NoteNumber":57,"Velocity":37,"Duration":353817,"SoundDuration":353817,"Delta":282322251},{"NoteNumber":62,"Velocity":45,"Duration":344243,"SoundDuration":344243,"Delta":282322251},{"NoteNumber":74,"Velocity":62,"Duration":365921,"SoundDuration":365921,"Delta":282492062},{"NoteNumber":78,"Velocity":62,"Duration":365921,"SoundDuration":365921,"Delta":282492062},{"NoteNumber":69,"Velocity":62,"Duration":365921,"SoundDuration":365921,"Delta":282492062},{"NoteNumber":81,"Velocity":72,"Duration":365921,"SoundDuration":365921,"Delta":282492062},{"NoteNumber":36,"Velocity":40,"Duration":538238,"SoundDuration":538238,"Delta":282666494},{"NoteNumber":82,"Velocity":73,"Duration":346748,"SoundDuration":346748,"Delta":282857983},{"NoteNumber":79,"Velocity":73,"Duration":346748,"SoundDuration":346748,"Delta":282857983},{"NoteNumber":91,"Velocity":87,"Duration":346748,"SoundDuration":346748,"Delta":282857983},{"NoteNumber":48,"Velocity":48,"Duration":346748,"SoundDuration":346748,"Delta":282857983},{"NoteNumber":55,"Velocity":47,"Duration":337357,"SoundDuration":337357,"Delta":283037187},{"NoteNumber":58,"Velocity":47,"Duration":337357,"SoundDuration":337357,"Delta":283037187},{"NoteNumber":67,"Velocity":56,"Duration":337357,"SoundDuration":337357,"Delta":283037187},{"NoteNumber":82,"Velocity":68,"Duration":339622,"SoundDuration":339622,"Delta":283204732},{"NoteNumber":77,"Velocity":68,"Duration":339622,"SoundDuration":339622,"Delta":283204732},{"NoteNumber":89,"Velocity":81,"Duration":339622,"SoundDuration":339622,"Delta":283204732},{"NoteNumber":55,"Velocity":43,"Duration":335862,"SoundDuration":335862,"Delta":283374544},{"NoteNumber":58,"Velocity":43,"Duration":335862,"SoundDuration":335862,"Delta":283374544},{"NoteNumber":65,"Velocity":51,"Duration":335862,"SoundDuration":335862,"Delta":283374544},{"NoteNumber":82,"Velocity":66,"Duration":332103,"SoundDuration":332103,"Delta":283544355},{"NoteNumber":76,"Velocity":66,"Duration":332103,"SoundDuration":332103,"Delta":283544355},{"NoteNumber":88,"Velocity":79,"Duration":332103,"SoundDuration":332103,"Delta":283544355},{"NoteNumber":55,"Velocity":39,"Duration":336752,"SoundDuration":336752,"Delta":283710406},{"NoteNumber":58,"Velocity":39,"Duration":346326,"SoundDuration":346326,"Delta":283710406},{"NoteNumber":64,"Velocity":46,"Duration":336752,"SoundDuration":336752,"Delta":283710406},{"NoteNumber":76,"Velocity":64,"Duration":356979,"SoundDuration":356979,"Delta":283876458},{"NoteNumber":70,"Velocity":64,"Duration":356979,"SoundDuration":356979,"Delta":283876458},{"NoteNumber":82,"Velocity":77,"Duration":356979,"SoundDuration":356979,"Delta":283876458},{"NoteNumber":36,"Velocity":43,"Duration":532439,"SoundDuration":532439,"Delta":284047159},{"NoteNumber":86,"Velocity":78,"Duration":346160,"SoundDuration":346160,"Delta":284233438},{"NoteNumber":83,"Velocity":78,"Duration":346160,"SoundDuration":346160,"Delta":284233438},{"NoteNumber":80,"Velocity":78,"Duration":346160,"SoundDuration":346160,"Delta":284233438},{"NoteNumber":92,"Velocity":91,"Duration":346160,"SoundDuration":346160,"Delta":284233438},{"NoteNumber":48,"Velocity":54,"Duration":346160,"SoundDuration":346160,"Delta":284233438},{"NoteNumber":59,"Velocity":49,"Duration":337797,"SoundDuration":337797,"Delta":284411612},{"NoteNumber":62,"Velocity":49,"Duration":337797,"SoundDuration":337797,"Delta":284411612},{"NoteNumber":68,"Velocity":59,"Duration":337797,"SoundDuration":337797,"Delta":284411612},{"NoteNumber":86,"Velocity":72,"Duration":339622,"SoundDuration":339622,"Delta":284579598},{"NoteNumber":83,"Velocity":72,"Duration":339622,"SoundDuration":339622,"Delta":284579598},{"NoteNumber":79,"Velocity":72,"Duration":339622,"SoundDuration":339622,"Delta":284579598},{"NoteNumber":91,"Velocity":86,"Duration":339622,"SoundDuration":339622,"Delta":284579598},{"NoteNumber":59,"Velocity":46,"Duration":335862,"SoundDuration":335862,"Delta":284749409},{"NoteNumber":62,"Velocity":46,"Duration":335862,"SoundDuration":335862,"Delta":284749409},{"NoteNumber":67,"Velocity":54,"Duration":335862,"SoundDuration":335862,"Delta":284749409},{"NoteNumber":80,"Velocity":69,"Duration":332103,"SoundDuration":332103,"Delta":284919221},{"NoteNumber":83,"Velocity":69,"Duration":332103,"SoundDuration":332103,"Delta":284919221},{"NoteNumber":77,"Velocity":69,"Duration":332103,"SoundDuration":332103,"Delta":284919221},{"NoteNumber":89,"Velocity":82,"Duration":332103,"SoundDuration":332103,"Delta":284919221},{"NoteNumber":56,"Velocity":42,"Duration":336513,"SoundDuration":336513,"Delta":285085272},{"NoteNumber":59,"Velocity":42,"Duration":345477,"SoundDuration":345477,"Delta":285085272},{"NoteNumber":65,"Velocity":50,"Duration":336513,"SoundDuration":336513,"Delta":285085272},{"NoteNumber":77,"Velocity":67,"Duration":349744,"SoundDuration":349744,"Delta":285251324},{"NoteNumber":80,"Velocity":67,"Duration":349744,"SoundDuration":349744,"Delta":285251324},{"NoteNumber":74,"Velocity":67,"Duration":349744,"SoundDuration":349744,"Delta":285251324},{"NoteNumber":86,"Velocity":80,"Duration":349744,"SoundDuration":349744,"Delta":285251324},{"NoteNumber":53,"Velocity":39,"Duration":179282,"SoundDuration":179282,"Delta":285421786},{"NoteNumber":56,"Velocity":39,"Duration":179282,"SoundDuration":179282,"Delta":285421786},{"NoteNumber":62,"Velocity":46,"Duration":179282,"SoundDuration":179282,"Delta":285421786},{"NoteNumber":77,"Velocity":67,"Duration":339374,"SoundDuration":339374,"Delta":285601069},{"NoteNumber":74,"Velocity":67,"Duration":339374,"SoundDuration":339374,"Delta":285601069},{"NoteNumber":71,"Velocity":67,"Duration":339374,"SoundDuration":339374,"Delta":285601069},{"NoteNumber":83,"Velocity":80,"Duration":339374,"SoundDuration":339374,"Delta":285601069},{"NoteNumber":50,"Velocity":51,"Duration":335499,"SoundDuration":335499,"Delta":285773482},{"NoteNumber":53,"Velocity":51,"Duration":335499,"SoundDuration":335499,"Delta":285773482},{"NoteNumber":59,"Velocity":61,"Duration":335499,"SoundDuration":335499,"Delta":285773482},{"NoteNumber":74,"Velocity":63,"Duration":337078,"SoundDuration":337078,"Delta":285940443},{"NoteNumber":71,"Velocity":63,"Duration":337078,"SoundDuration":337078,"Delta":285940443},{"NoteNumber":68,"Velocity":63,"Duration":337078,"SoundDuration":337078,"Delta":285940443},{"NoteNumber":80,"Velocity":75,"Duration":337078,"SoundDuration":337078,"Delta":285940443},{"NoteNumber":47,"Velocity":47,"Duration":333980,"SoundDuration":333980,"Delta":286108982},{"NoteNumber":50,"Velocity":47,"Duration":333980,"SoundDuration":333980,"Delta":286108982},{"NoteNumber":56,"Velocity":57,"Duration":333980,"SoundDuration":333980,"Delta":286108982},{"NoteNumber":71,"Velocity":63,"Duration":330881,"SoundDuration":330881,"Delta":286277521},{"NoteNumber":74,"Velocity":63,"Duration":330881,"SoundDuration":330881,"Delta":286277521},{"NoteNumber":67,"Velocity":63,"Duration":330881,"SoundDuration":330881,"Delta":286277521},{"NoteNumber":79,"Velocity":75,"Duration":330881,"SoundDuration":330881,"Delta":286277521},{"NoteNumber":47,"Velocity":45,"Duration":334790,"SoundDuration":334790,"Delta":286442962},{"NoteNumber":50,"Velocity":45,"Duration":343648,"SoundDuration":343648,"Delta":286442962},{"NoteNumber":55,"Velocity":53,"Duration":334790,"SoundDuration":334790,"Delta":286442962},{"NoteNumber":68,"Velocity":64,"Duration":346514,"SoundDuration":346514,"Delta":286608403},{"NoteNumber":71,"Velocity":64,"Duration":346514,"SoundDuration":346514,"Delta":286608403},{"NoteNumber":65,"Velocity":64,"Duration":346514,"SoundDuration":346514,"Delta":286608403},{"NoteNumber":77,"Velocity":77,"Duration":346514,"SoundDuration":346514,"Delta":286608403},{"NoteNumber":44,"Velocity":42,"Duration":177165,"SoundDuration":177165,"Delta":286777752},{"NoteNumber":47,"Velocity":42,"Duration":177165,"SoundDuration":177165,"Delta":286777752},{"NoteNumber":53,"Velocity":49,"Duration":177165,"SoundDuration":177165,"Delta":286777752},{"NoteNumber":68,"Velocity":68,"Duration":337196,"SoundDuration":337196,"Delta":286954918},{"NoteNumber":65,"Velocity":68,"Duration":337196,"SoundDuration":337196,"Delta":286954918},{"NoteNumber":62,"Velocity":68,"Duration":337196,"SoundDuration":337196,"Delta":286954918},{"NoteNumber":74,"Velocity":81,"Duration":337196,"SoundDuration":337196,"Delta":286954918},{"NoteNumber":41,"Velocity":52,"Duration":338614,"SoundDuration":338614,"Delta":287123311},{"NoteNumber":44,"Velocity":52,"Duration":338614,"SoundDuration":338614,"Delta":287123311},{"NoteNumber":50,"Velocity":62,"Duration":338614,"SoundDuration":338614,"Delta":287123311},{"NoteNumber":65,"Velocity":63,"Duration":339622,"SoundDuration":339622,"Delta":287292114},{"NoteNumber":62,"Velocity":63,"Duration":339622,"SoundDuration":339622,"Delta":287292114},{"NoteNumber":59,"Velocity":63,"Duration":339622,"SoundDuration":339622,"Delta":287292114},{"NoteNumber":71,"Velocity":75,"Duration":339622,"SoundDuration":339622,"Delta":287292114},{"NoteNumber":38,"Velocity":49,"Duration":335252,"SoundDuration":335252,"Delta":287461925},{"NoteNumber":41,"Velocity":49,"Duration":335252,"SoundDuration":335252,"Delta":287461925},{"NoteNumber":47,"Velocity":59,"Duration":335252,"SoundDuration":335252,"Delta":287461925},{"NoteNumber":59,"Velocity":65,"Duration":330881,"SoundDuration":330881,"Delta":287631737},{"NoteNumber":62,"Velocity":65,"Duration":330881,"SoundDuration":330881,"Delta":287631737},{"NoteNumber":56,"Velocity":65,"Duration":330881,"SoundDuration":330881,"Delta":287631737},{"NoteNumber":68,"Velocity":78,"Duration":330881,"SoundDuration":330881,"Delta":287631737},{"NoteNumber":35,"Velocity":48,"Duration":335258,"SoundDuration":335258,"Delta":287797178},{"NoteNumber":38,"Velocity":48,"Duration":344187,"SoundDuration":344187,"Delta":287797178},{"NoteNumber":44,"Velocity":57,"Duration":335258,"SoundDuration":335258,"Delta":287797178},{"NoteNumber":59,"Velocity":68,"Duration":348388,"SoundDuration":348388,"Delta":287962619},{"NoteNumber":62,"Velocity":68,"Duration":348388,"SoundDuration":348388,"Delta":287962619},{"NoteNumber":55,"Velocity":68,"Duration":348388,"SoundDuration":348388,"Delta":287962619},{"NoteNumber":67,"Velocity":81,"Duration":348388,"SoundDuration":348388,"Delta":287962619},{"NoteNumber":35,"Velocity":46,"Duration":178571,"SoundDuration":178571,"Delta":288132436},{"NoteNumber":38,"Velocity":46,"Duration":178571,"SoundDuration":178571,"Delta":288132436},{"NoteNumber":43,"Velocity":54,"Duration":178571,"SoundDuration":178571,"Delta":288132436},{"NoteNumber":62,"Velocity":73,"Duration":346153,"SoundDuration":346153,"Delta":288311008},{"NoteNumber":59,"Velocity":73,"Duration":346153,"SoundDuration":346153,"Delta":288311008},{"NoteNumber":53,"Velocity":73,"Duration":346153,"SoundDuration":346153,"Delta":288311008},{"NoteNumber":65,"Velocity":88,"Duration":346153,"SoundDuration":346153,"Delta":288311008},{"NoteNumber":35,"Velocity":60,"Duration":346153,"SoundDuration":346153,"Delta":288484084},{"NoteNumber":38,"Velocity":60,"Duration":346153,"SoundDuration":346153,"Delta":288484084},{"NoteNumber":41,"Velocity":60,"Duration":346153,"SoundDuration":346153,"Delta":288484084},{"NoteNumber":62,"Velocity":73,"Duration":346153,"SoundDuration":346153,"Delta":288657161},{"NoteNumber":59,"Velocity":73,"Duration":346153,"SoundDuration":346153,"Delta":288657161},{"NoteNumber":56,"Velocity":73,"Duration":346153,"SoundDuration":346153,"Delta":288657161},{"NoteNumber":68,"Velocity":88,"Duration":346153,"SoundDuration":346153,"Delta":288657161},{"NoteNumber":38,"Velocity":57,"Duration":343531,"SoundDuration":343531,"Delta":288830238},{"NoteNumber":32,"Velocity":57,"Duration":343531,"SoundDuration":343531,"Delta":288830238},{"NoteNumber":35,"Velocity":57,"Duration":343531,"SoundDuration":343531,"Delta":288830238},{"NoteNumber":44,"Velocity":69,"Duration":343531,"SoundDuration":343531,"Delta":288830238},{"NoteNumber":59,"Velocity":76,"Duration":340908,"SoundDuration":340908,"Delta":289003315},{"NoteNumber":62,"Velocity":76,"Duration":340908,"SoundDuration":340908,"Delta":289003315},{"NoteNumber":55,"Velocity":76,"Duration":340908,"SoundDuration":340908,"Delta":289003315},{"NoteNumber":67,"Velocity":91,"Duration":340908,"SoundDuration":340908,"Delta":289003315},{"NoteNumber":38,"Velocity":56,"Duration":352272,"SoundDuration":352272,"Delta":289173769},{"NoteNumber":31,"Velocity":56,"Duration":352272,"SoundDuration":352272,"Delta":289173769},{"NoteNumber":35,"Velocity":56,"Duration":362499,"SoundDuration":362499,"Delta":289173769},{"NoteNumber":43,"Velocity":68,"Duration":352272,"SoundDuration":352272,"Delta":289173769},{"NoteNumber":56,"Velocity":79,"Duration":386363,"SoundDuration":386363,"Delta":289344223},{"NoteNumber":62,"Velocity":79,"Duration":386363,"SoundDuration":386363,"Delta":289344223},{"NoteNumber":53,"Velocity":79,"Duration":386363,"SoundDuration":386363,"Delta":289344223},{"NoteNumber":65,"Velocity":94,"Duration":386363,"SoundDuration":386363,"Delta":289344223},{"NoteNumber":38,"Velocity":55,"Duration":204545,"SoundDuration":204545,"Delta":289526042},{"NoteNumber":29,"Velocity":55,"Duration":204545,"SoundDuration":204545,"Delta":289526042},{"NoteNumber":35,"Velocity":55,"Duration":204545,"SoundDuration":204545,"Delta":289526042},{"NoteNumber":41,"Velocity":66,"Duration":204545,"SoundDuration":204545,"Delta":289526042},{"NoteNumber":48,"Velocity":70,"Duration":578156,"SoundDuration":578156,"Delta":289730587},{"NoteNumber":60,"Velocity":82,"Duration":96463,"SoundDuration":96463,"Delta":289730587},{"NoteNumber":28,"Velocity":55,"Duration":578156,"SoundDuration":578156,"Delta":289730587},{"NoteNumber":31,"Velocity":55,"Duration":578156,"SoundDuration":578156,"Delta":289730587},{"NoteNumber":24,"Velocity":55,"Duration":578156,"SoundDuration":578156,"Delta":289730587},{"NoteNumber":36,"Velocity":65,"Duration":578156,"SoundDuration":578156,"Delta":289730587},{"NoteNumber":55,"Velocity":71,"Duration":97032,"SoundDuration":97032,"Delta":289827050},{"NoteNumber":52,"Velocity":60,"Duration":97084,"SoundDuration":97084,"Delta":289830266},{"NoteNumber":60,"Velocity":72,"Duration":73231,"SoundDuration":73231,"Delta":289924082},{"NoteNumber":60,"Velocity":73,"Duration":96603,"SoundDuration":96603,"Delta":290021628},{"NoteNumber":67,"Velocity":75,"Duration":95679,"SoundDuration":95679,"Delta":290118232},{"NoteNumber":64,"Velocity":63,"Duration":95679,"SoundDuration":95679,"Delta":290118232},{"NoteNumber":72,"Velocity":77,"Duration":71208,"SoundDuration":71208,"Delta":290213911},{"NoteNumber":72,"Velocity":78,"Duration":93941,"SoundDuration":93941,"Delta":290308743},{"NoteNumber":60,"Velocity":67,"Duration":93941,"SoundDuration":93941,"Delta":290308743},{"NoteNumber":52,"Velocity":56,"Duration":93941,"SoundDuration":93941,"Delta":290308743},{"NoteNumber":55,"Velocity":56,"Duration":93941,"SoundDuration":93941,"Delta":290308743},{"NoteNumber":79,"Velocity":80,"Duration":93125,"SoundDuration":93125,"Delta":290402685},{"NoteNumber":76,"Velocity":67,"Duration":93125,"SoundDuration":93125,"Delta":290402685},{"NoteNumber":84,"Velocity":81,"Duration":69292,"SoundDuration":69292,"Delta":290495810},{"NoteNumber":84,"Velocity":82,"Duration":61054,"SoundDuration":61054,"Delta":290588076},{"NoteNumber":48,"Velocity":49,"Duration":45810,"SoundDuration":45810,"Delta":290588076},{"NoteNumber":55,"Velocity":58,"Duration":45810,"SoundDuration":45810,"Delta":290588076},{"NoteNumber":52,"Velocity":49,"Duration":45810,"SoundDuration":45810,"Delta":290588076},{"NoteNumber":88,"Velocity":88,"Duration":198906,"SoundDuration":198906,"Delta":290649131},{"NoteNumber":91,"Velocity":91,"Duration":183704,"SoundDuration":183704,"Delta":290664333},{"NoteNumber":96,"Velocity":95,"Duration":168539,"SoundDuration":168539,"Delta":290679499},{"NoteNumber":48,"Velocity":55,"Duration":168539,"SoundDuration":168539,"Delta":290679499},{"NoteNumber":52,"Velocity":55,"Duration":168539,"SoundDuration":168539,"Delta":290679499},{"NoteNumber":55,"Velocity":66,"Duration":168539,"SoundDuration":168539,"Delta":290679499},{"NoteNumber":49,"Velocity":70,"Duration":585239,"SoundDuration":585239,"Delta":291016577},{"NoteNumber":61,"Velocity":82,"Duration":97087,"SoundDuration":97087,"Delta":291016577},{"NoteNumber":34,"Velocity":55,"Duration":585239,"SoundDuration":585239,"Delta":291016577},{"NoteNumber":37,"Velocity":55,"Duration":585239,"SoundDuration":585239,"Delta":291016577},{"NoteNumber":31,"Velocity":55,"Duration":585239,"SoundDuration":585239,"Delta":291016577},{"NoteNumber":43,"Velocity":65,"Duration":585239,"SoundDuration":585239,"Delta":291016577},{"NoteNumber":53,"Velocity":71,"Duration":98165,"SoundDuration":98165,"Delta":291113665},{"NoteNumber":58,"Velocity":67,"Duration":74509,"SoundDuration":74509,"Delta":291211830},{"NoteNumber":61,"Velocity":72,"Duration":74509,"SoundDuration":74509,"Delta":291211830},{"NoteNumber":61,"Velocity":73,"Duration":98019,"SoundDuration":98019,"Delta":291311054},{"NoteNumber":65,"Velocity":75,"Duration":96916,"SoundDuration":96916,"Delta":291409073},{"NoteNumber":70,"Velocity":71,"Duration":71977,"SoundDuration":71977,"Delta":291505989},{"NoteNumber":73,"Velocity":77,"Duration":71977,"SoundDuration":71977,"Delta":291505989},{"NoteNumber":73,"Velocity":78,"Duration":94712,"SoundDuration":94712,"Delta":291601816},{"NoteNumber":61,"Velocity":67,"Duration":94712,"SoundDuration":94712,"Delta":291601816},{"NoteNumber":53,"Velocity":56,"Duration":94712,"SoundDuration":94712,"Delta":291601816},{"NoteNumber":58,"Velocity":56,"Duration":94712,"SoundDuration":94712,"Delta":291601816},{"NoteNumber":77,"Velocity":80,"Duration":93673,"SoundDuration":93673,"Delta":291696529},{"NoteNumber":82,"Velocity":77,"Duration":69588,"SoundDuration":69588,"Delta":291790202},{"NoteNumber":85,"Velocity":81,"Duration":69588,"SoundDuration":69588,"Delta":291790202},{"NoteNumber":85,"Velocity":82,"Duration":61190,"SoundDuration":61190,"Delta":291882834},{"NoteNumber":49,"Velocity":49,"Duration":45946,"SoundDuration":45946,"Delta":291882834},{"NoteNumber":58,"Velocity":58,"Duration":45946,"SoundDuration":45946,"Delta":291882834},{"NoteNumber":53,"Velocity":49,"Duration":45946,"SoundDuration":45946,"Delta":291882834},{"NoteNumber":89,"Velocity":88,"Duration":195235,"SoundDuration":195235,"Delta":291944025},{"NoteNumber":94,"Velocity":91,"Duration":180032,"SoundDuration":180032,"Delta":291959227},{"NoteNumber":97,"Velocity":95,"Duration":164835,"SoundDuration":164835,"Delta":291974425},{"NoteNumber":49,"Velocity":55,"Duration":164835,"SoundDuration":164835,"Delta":291974425},{"NoteNumber":53,"Velocity":55,"Duration":164835,"SoundDuration":164835,"Delta":291974425},{"NoteNumber":58,"Velocity":66,"Duration":164835,"SoundDuration":164835,"Delta":291974425},{"NoteNumber":48,"Velocity":70,"Duration":577833,"SoundDuration":577833,"Delta":292304095},{"NoteNumber":60,"Velocity":82,"Duration":98684,"SoundDuration":98684,"Delta":292304095},{"NoteNumber":28,"Velocity":55,"Duration":577833,"SoundDuration":577833,"Delta":292304095},{"NoteNumber":31,"Velocity":55,"Duration":577833,"SoundDuration":577833,"Delta":292304095},{"NoteNumber":24,"Velocity":55,"Duration":577833,"SoundDuration":577833,"Delta":292304095},{"NoteNumber":36,"Velocity":65,"Duration":577833,"SoundDuration":577833,"Delta":292304095},{"NoteNumber":55,"Velocity":71,"Duration":98344,"SoundDuration":98344,"Delta":292394556},{"NoteNumber":52,"Velocity":60,"Duration":98304,"SoundDuration":98304,"Delta":292397023},{"NoteNumber":60,"Velocity":72,"Duration":72523,"SoundDuration":72523,"Delta":292500991},{"NoteNumber":60,"Velocity":73,"Duration":95679,"SoundDuration":95679,"Delta":292597595},{"NoteNumber":67,"Velocity":75,"Duration":94772,"SoundDuration":94772,"Delta":292693274},{"NoteNumber":64,"Velocity":63,"Duration":94772,"SoundDuration":94772,"Delta":292693274},{"NoteNumber":72,"Velocity":77,"Duration":70479,"SoundDuration":70479,"Delta":292788046},{"NoteNumber":72,"Velocity":78,"Duration":93067,"SoundDuration":93067,"Delta":292881929},{"NoteNumber":60,"Velocity":67,"Duration":93067,"SoundDuration":93067,"Delta":292881929},{"NoteNumber":52,"Velocity":56,"Duration":93067,"SoundDuration":93067,"Delta":292881929},{"NoteNumber":55,"Velocity":56,"Duration":93067,"SoundDuration":93067,"Delta":292881929},{"NoteNumber":79,"Velocity":80,"Duration":92209,"SoundDuration":92209,"Delta":292974996},{"NoteNumber":76,"Velocity":67,"Duration":92209,"SoundDuration":92209,"Delta":292974996},{"NoteNumber":84,"Velocity":81,"Duration":68602,"SoundDuration":68602,"Delta":293067206},{"NoteNumber":84,"Velocity":82,"Duration":60551,"SoundDuration":60551,"Delta":293158572},{"NoteNumber":48,"Velocity":49,"Duration":45399,"SoundDuration":45399,"Delta":293158572},{"NoteNumber":55,"Velocity":58,"Duration":45399,"SoundDuration":45399,"Delta":293158572},{"NoteNumber":52,"Velocity":49,"Duration":45399,"SoundDuration":45399,"Delta":293158572},{"NoteNumber":88,"Velocity":88,"Duration":189877,"SoundDuration":189877,"Delta":293219124},{"NoteNumber":91,"Velocity":91,"Duration":174726,"SoundDuration":174726,"Delta":293234275},{"NoteNumber":96,"Velocity":95,"Duration":159574,"SoundDuration":159574,"Delta":293249427},{"NoteNumber":48,"Velocity":55,"Duration":159574,"SoundDuration":159574,"Delta":293249427},{"NoteNumber":52,"Velocity":55,"Duration":159574,"SoundDuration":159574,"Delta":293249427},{"NoteNumber":55,"Velocity":66,"Duration":159574,"SoundDuration":159574,"Delta":293249427},{"NoteNumber":53,"Velocity":70,"Duration":580249,"SoundDuration":580249,"Delta":293568576},{"NoteNumber":65,"Velocity":82,"Duration":98039,"SoundDuration":98039,"Delta":293568576},{"NoteNumber":32,"Velocity":55,"Duration":580249,"SoundDuration":580249,"Delta":293568576},{"NoteNumber":35,"Velocity":55,"Duration":580249,"SoundDuration":580249,"Delta":293568576},{"NoteNumber":38,"Velocity":55,"Duration":580249,"SoundDuration":580249,"Delta":293568576},{"NoteNumber":29,"Velocity":55,"Duration":580249,"SoundDuration":580249,"Delta":293568576},{"NoteNumber":41,"Velocity":65,"Duration":580249,"SoundDuration":580249,"Delta":293568576},{"NoteNumber":56,"Velocity":64,"Duration":98535,"SoundDuration":98535,"Delta":293666615},{"NoteNumber":59,"Velocity":71,"Duration":98535,"SoundDuration":98535,"Delta":293666615},{"NoteNumber":65,"Velocity":72,"Duration":72883,"SoundDuration":72883,"Delta":293765150},{"NoteNumber":65,"Velocity":73,"Duration":96293,"SoundDuration":96293,"Delta":293862228},{"NoteNumber":68,"Velocity":66,"Duration":95531,"SoundDuration":95531,"Delta":293958521},{"NoteNumber":71,"Velocity":75,"Duration":95531,"SoundDuration":95531,"Delta":293958521},{"NoteNumber":77,"Velocity":77,"Duration":71147,"SoundDuration":71147,"Delta":294054053},{"NoteNumber":77,"Velocity":78,"Duration":93882,"SoundDuration":93882,"Delta":294148825},{"NoteNumber":68,"Velocity":67,"Duration":93882,"SoundDuration":93882,"Delta":294148825},{"NoteNumber":59,"Velocity":56,"Duration":93882,"SoundDuration":93882,"Delta":294148825},{"NoteNumber":62,"Velocity":56,"Duration":93882,"SoundDuration":93882,"Delta":294148825},{"NoteNumber":80,"Velocity":71,"Duration":93158,"SoundDuration":93158,"Delta":294242708},{"NoteNumber":83,"Velocity":80,"Duration":93158,"SoundDuration":93158,"Delta":294242708},{"NoteNumber":89,"Velocity":81,"Duration":69392,"SoundDuration":69392,"Delta":294335866},{"NoteNumber":89,"Velocity":82,"Duration":61241,"SoundDuration":61241,"Delta":294428303},{"NoteNumber":56,"Velocity":49,"Duration":45951,"SoundDuration":45951,"Delta":294428303},{"NoteNumber":65,"Velocity":58,"Duration":45951,"SoundDuration":45951,"Delta":294428303},{"NoteNumber":59,"Velocity":49,"Duration":45951,"SoundDuration":45951,"Delta":294428303},{"NoteNumber":92,"Velocity":88,"Duration":190887,"SoundDuration":190887,"Delta":294489544},{"NoteNumber":95,"Velocity":91,"Duration":175639,"SoundDuration":175639,"Delta":294504793},{"NoteNumber":101,"Velocity":95,"Duration":160427,"SoundDuration":160427,"Delta":294520004},{"NoteNumber":56,"Velocity":55,"Duration":160427,"SoundDuration":160427,"Delta":294520004},{"NoteNumber":59,"Velocity":55,"Duration":160427,"SoundDuration":160427,"Delta":294520004},{"NoteNumber":65,"Velocity":66,"Duration":160427,"SoundDuration":160427,"Delta":294520004},{"NoteNumber":52,"Velocity":70,"Duration":101467,"SoundDuration":101467,"Delta":294834048},{"NoteNumber":64,"Velocity":82,"Duration":101467,"SoundDuration":101467,"Delta":294834048},{"NoteNumber":40,"Velocity":55,"Duration":396297,"SoundDuration":396297,"Delta":294834048},{"NoteNumber":43,"Velocity":55,"Duration":396297,"SoundDuration":396297,"Delta":294834048},{"NoteNumber":36,"Velocity":55,"Duration":396297,"SoundDuration":396297,"Delta":294834048},{"NoteNumber":48,"Velocity":65,"Duration":396297,"SoundDuration":396297,"Delta":294834048},{"NoteNumber":55,"Velocity":71,"Duration":99946,"SoundDuration":99946,"Delta":294927127},{"NoteNumber":60,"Velocity":72,"Duration":98175,"SoundDuration":98175,"Delta":295035324},{"NoteNumber":64,"Velocity":73,"Duration":96846,"SoundDuration":96846,"Delta":295133500},{"NoteNumber":76,"Velocity":77,"Duration":102040,"SoundDuration":102040,"Delta":295230346},{"NoteNumber":72,"Velocity":75,"Duration":102040,"SoundDuration":102040,"Delta":295230346},{"NoteNumber":67,"Velocity":63,"Duration":102040,"SoundDuration":102040,"Delta":295230346},{"NoteNumber":55,"Velocity":55,"Duration":102040,"SoundDuration":102040,"Delta":295230346},{"NoteNumber":60,"Velocity":66,"Duration":102040,"SoundDuration":102040,"Delta":295230346},{"NoteNumber":73,"Velocity":85,"Duration":102537,"SoundDuration":102537,"Delta":295435004},{"NoteNumber":61,"Velocity":72,"Duration":102537,"SoundDuration":102537,"Delta":295435004},{"NoteNumber":31,"Velocity":55,"Duration":398870,"SoundDuration":398870,"Delta":295435004},{"NoteNumber":34,"Velocity":55,"Duration":398870,"SoundDuration":398870,"Delta":295435004},{"NoteNumber":37,"Velocity":55,"Duration":398870,"SoundDuration":398870,"Delta":295435004},{"NoteNumber":43,"Velocity":65,"Duration":398870,"SoundDuration":398870,"Delta":295435004},{"NoteNumber":65,"Velocity":74,"Duration":100641,"SoundDuration":100641,"Delta":295537541},{"NoteNumber":70,"Velocity":64,"Duration":74269,"SoundDuration":74269,"Delta":295638183},{"NoteNumber":73,"Velocity":76,"Duration":74269,"SoundDuration":74269,"Delta":295638183},{"NoteNumber":73,"Velocity":78,"Duration":96906,"SoundDuration":96906,"Delta":295736968},{"NoteNumber":77,"Velocity":67,"Duration":96153,"SoundDuration":96153,"Delta":295833875},{"NoteNumber":82,"Velocity":67,"Duration":96153,"SoundDuration":96153,"Delta":295833875},{"NoteNumber":85,"Velocity":80,"Duration":96153,"SoundDuration":96153,"Delta":295833875},{"NoteNumber":53,"Velocity":55,"Duration":96153,"SoundDuration":96153,"Delta":295833875},{"NoteNumber":58,"Velocity":55,"Duration":96153,"SoundDuration":96153,"Delta":295833875},{"NoteNumber":61,"Velocity":66,"Duration":96153,"SoundDuration":96153,"Delta":295833875},{"NoteNumber":60,"Velocity":70,"Duration":99808,"SoundDuration":99808,"Delta":296027680},{"NoteNumber":72,"Velocity":82,"Duration":99808,"SoundDuration":99808,"Delta":296027680},{"NoteNumber":40,"Velocity":55,"Duration":390084,"SoundDuration":390084,"Delta":296027680},{"NoteNumber":43,"Velocity":55,"Duration":390084,"SoundDuration":390084,"Delta":296027680},{"NoteNumber":36,"Velocity":55,"Duration":390084,"SoundDuration":390084,"Delta":296027680},{"NoteNumber":48,"Velocity":65,"Duration":390084,"SoundDuration":390084,"Delta":296027680},{"NoteNumber":67,"Velocity":71,"Duration":98175,"SoundDuration":98175,"Delta":296127489},{"NoteNumber":64,"Velocity":63,"Duration":98175,"SoundDuration":98175,"Delta":296127489},{"NoteNumber":72,"Velocity":72,"Duration":72592,"SoundDuration":72592,"Delta":296225664},{"NoteNumber":72,"Velocity":73,"Duration":95506,"SoundDuration":95506,"Delta":296322259},{"NoteNumber":84,"Velocity":77,"Duration":95541,"SoundDuration":95541,"Delta":296417765},{"NoteNumber":79,"Velocity":75,"Duration":95541,"SoundDuration":95541,"Delta":296417765},{"NoteNumber":76,"Velocity":63,"Duration":95541,"SoundDuration":95541,"Delta":296417765},{"NoteNumber":55,"Velocity":55,"Duration":95541,"SoundDuration":95541,"Delta":296417765},{"NoteNumber":60,"Velocity":66,"Duration":95541,"SoundDuration":95541,"Delta":296417765},{"NoteNumber":89,"Velocity":85,"Duration":100476,"SoundDuration":100476,"Delta":296610180},{"NoteNumber":77,"Velocity":72,"Duration":100476,"SoundDuration":100476,"Delta":296610180},{"NoteNumber":35,"Velocity":55,"Duration":391289,"SoundDuration":391289,"Delta":296610180},{"NoteNumber":29,"Velocity":55,"Duration":391289,"SoundDuration":391289,"Delta":296610180},{"NoteNumber":32,"Velocity":55,"Duration":391289,"SoundDuration":391289,"Delta":296610180},{"NoteNumber":38,"Velocity":55,"Duration":391289,"SoundDuration":391289,"Delta":296610180},{"NoteNumber":41,"Velocity":65,"Duration":391289,"SoundDuration":391289,"Delta":296610180},{"NoteNumber":80,"Velocity":69,"Duration":98590,"SoundDuration":98590,"Delta":296710657},{"NoteNumber":83,"Velocity":74,"Duration":98590,"SoundDuration":98590,"Delta":296710657},{"NoteNumber":89,"Velocity":78,"Duration":72744,"SoundDuration":72744,"Delta":296809248},{"NoteNumber":89,"Velocity":81,"Duration":95475,"SoundDuration":95475,"Delta":296905995},{"NoteNumber":92,"Velocity":72,"Duration":112781,"SoundDuration":112781,"Delta":297001470},{"NoteNumber":95,"Velocity":72,"Duration":112781,"SoundDuration":112781,"Delta":297001470},{"NoteNumber":101,"Velocity":85,"Duration":112781,"SoundDuration":112781,"Delta":297001470},{"NoteNumber":56,"Velocity":55,"Duration":112781,"SoundDuration":112781,"Delta":297001470},{"NoteNumber":59,"Velocity":55,"Duration":112781,"SoundDuration":112781,"Delta":297001470},{"NoteNumber":62,"Velocity":55,"Duration":112781,"SoundDuration":112781,"Delta":297001470},{"NoteNumber":65,"Velocity":66,"Duration":112781,"SoundDuration":112781,"Delta":297001470},{"NoteNumber":100,"Velocity":75,"Duration":83333,"SoundDuration":83333,"Delta":297224353},{"NoteNumber":96,"Velocity":63,"Duration":83333,"SoundDuration":83333,"Delta":297224353},{"NoteNumber":91,"Velocity":63,"Duration":83333,"SoundDuration":83333,"Delta":297224353},{"NoteNumber":36,"Velocity":51,"Duration":83333,"SoundDuration":83333,"Delta":297224353},{"NoteNumber":48,"Velocity":61,"Duration":83333,"SoundDuration":83333,"Delta":297224353},{"NoteNumber":94,"Velocity":54,"Duration":84033,"SoundDuration":84033,"Delta":297393893},{"NoteNumber":97,"Velocity":65,"Duration":84033,"SoundDuration":84033,"Delta":297393893},{"NoteNumber":89,"Velocity":54,"Duration":84033,"SoundDuration":84033,"Delta":297393893},{"NoteNumber":31,"Velocity":45,"Duration":84033,"SoundDuration":84033,"Delta":297393893},{"NoteNumber":43,"Velocity":53,"Duration":84033,"SoundDuration":84033,"Delta":297393893},{"NoteNumber":96,"Velocity":73,"Duration":84985,"SoundDuration":84985,"Delta":297564632},{"NoteNumber":91,"Velocity":62,"Duration":84985,"SoundDuration":84985,"Delta":297564632},{"NoteNumber":88,"Velocity":62,"Duration":84985,"SoundDuration":84985,"Delta":297564632},{"NoteNumber":36,"Velocity":51,"Duration":84985,"SoundDuration":84985,"Delta":297564632},{"NoteNumber":48,"Velocity":61,"Duration":84985,"SoundDuration":84985,"Delta":297564632},{"NoteNumber":94,"Velocity":65,"Duration":85227,"SoundDuration":85227,"Delta":297737853},{"NoteNumber":89,"Velocity":54,"Duration":85227,"SoundDuration":85227,"Delta":297737853},{"NoteNumber":85,"Velocity":54,"Duration":85227,"SoundDuration":85227,"Delta":297737853},{"NoteNumber":31,"Velocity":44,"Duration":85227,"SoundDuration":85227,"Delta":297737853},{"NoteNumber":43,"Velocity":52,"Duration":85227,"SoundDuration":85227,"Delta":297737853},{"NoteNumber":91,"Velocity":75,"Duration":85227,"SoundDuration":85227,"Delta":297911315},{"NoteNumber":88,"Velocity":63,"Duration":85227,"SoundDuration":85227,"Delta":297911315},{"NoteNumber":84,"Velocity":63,"Duration":85227,"SoundDuration":85227,"Delta":297911315},{"NoteNumber":36,"Velocity":51,"Duration":85227,"SoundDuration":85227,"Delta":297911315},{"NoteNumber":48,"Velocity":61,"Duration":85227,"SoundDuration":85227,"Delta":297911315},{"NoteNumber":80,"Velocity":53,"Duration":84506,"SoundDuration":84506,"Delta":298084006},{"NoteNumber":83,"Velocity":53,"Duration":84506,"SoundDuration":84506,"Delta":298084006},{"NoteNumber":86,"Velocity":53,"Duration":84506,"SoundDuration":84506,"Delta":298084006},{"NoteNumber":89,"Velocity":63,"Duration":84506,"SoundDuration":84506,"Delta":298084006},{"NoteNumber":29,"Velocity":43,"Duration":84506,"SoundDuration":84506,"Delta":298084006},{"NoteNumber":41,"Velocity":51,"Duration":84506,"SoundDuration":84506,"Delta":298084006},{"NoteNumber":88,"Velocity":69,"Duration":84506,"SoundDuration":84506,"Delta":298255722},{"NoteNumber":84,"Velocity":58,"Duration":84506,"SoundDuration":84506,"Delta":298255722},{"NoteNumber":79,"Velocity":58,"Duration":84506,"SoundDuration":84506,"Delta":298255722},{"NoteNumber":36,"Velocity":51,"Duration":84506,"SoundDuration":84506,"Delta":298255722},{"NoteNumber":48,"Velocity":61,"Duration":84506,"SoundDuration":84506,"Delta":298255722},{"NoteNumber":82,"Velocity":50,"Duration":85469,"SoundDuration":85469,"Delta":298428464},{"NoteNumber":85,"Velocity":60,"Duration":85469,"SoundDuration":85469,"Delta":298428464},{"NoteNumber":77,"Velocity":50,"Duration":85469,"SoundDuration":85469,"Delta":298428464},{"NoteNumber":31,"Velocity":45,"Duration":85469,"SoundDuration":85469,"Delta":298428464},{"NoteNumber":43,"Velocity":53,"Duration":85469,"SoundDuration":85469,"Delta":298428464},{"NoteNumber":84,"Velocity":67,"Duration":85227,"SoundDuration":85227,"Delta":298602692},{"NoteNumber":79,"Velocity":56,"Duration":85227,"SoundDuration":85227,"Delta":298602692},{"NoteNumber":76,"Velocity":56,"Duration":85227,"SoundDuration":85227,"Delta":298602692},{"NoteNumber":36,"Velocity":51,"Duration":85227,"SoundDuration":85227,"Delta":298602692},{"NoteNumber":48,"Velocity":61,"Duration":85227,"SoundDuration":85227,"Delta":298602692},{"NoteNumber":82,"Velocity":60,"Duration":85227,"SoundDuration":85227,"Delta":298775128},{"NoteNumber":77,"Velocity":50,"Duration":85227,"SoundDuration":85227,"Delta":298775128},{"NoteNumber":73,"Velocity":50,"Duration":85227,"SoundDuration":85227,"Delta":298775128},{"NoteNumber":31,"Velocity":44,"Duration":85227,"SoundDuration":85227,"Delta":298775128},{"NoteNumber":43,"Velocity":52,"Duration":85227,"SoundDuration":85227,"Delta":298775128},{"NoteNumber":79,"Velocity":69,"Duration":85227,"SoundDuration":85227,"Delta":298947565},{"NoteNumber":76,"Velocity":58,"Duration":85227,"SoundDuration":85227,"Delta":298947565},{"NoteNumber":72,"Velocity":58,"Duration":85227,"SoundDuration":85227,"Delta":298947565},{"NoteNumber":36,"Velocity":51,"Duration":85227,"SoundDuration":85227,"Delta":298947565},{"NoteNumber":48,"Velocity":61,"Duration":85227,"SoundDuration":85227,"Delta":298947565},{"NoteNumber":68,"Velocity":48,"Duration":85227,"SoundDuration":85227,"Delta":299120256},{"NoteNumber":71,"Velocity":48,"Duration":85227,"SoundDuration":85227,"Delta":299120256},{"NoteNumber":74,"Velocity":48,"Duration":85227,"SoundDuration":85227,"Delta":299120256},{"NoteNumber":77,"Velocity":57,"Duration":85227,"SoundDuration":85227,"Delta":299120256},{"NoteNumber":29,"Velocity":43,"Duration":85227,"SoundDuration":85227,"Delta":299120256},{"NoteNumber":41,"Velocity":51,"Duration":85227,"SoundDuration":85227,"Delta":299120256},{"NoteNumber":76,"Velocity":69,"Duration":86165,"SoundDuration":86165,"Delta":299292720},{"NoteNumber":72,"Velocity":58,"Duration":86165,"SoundDuration":86165,"Delta":299292720},{"NoteNumber":67,"Velocity":58,"Duration":86165,"SoundDuration":86165,"Delta":299292720},{"NoteNumber":36,"Velocity":51,"Duration":86165,"SoundDuration":86165,"Delta":299292720},{"NoteNumber":48,"Velocity":61,"Duration":86165,"SoundDuration":86165,"Delta":299292720},{"NoteNumber":70,"Velocity":52,"Duration":85783,"SoundDuration":85783,"Delta":299464916},{"NoteNumber":73,"Velocity":61,"Duration":85783,"SoundDuration":85783,"Delta":299464916},{"NoteNumber":65,"Velocity":52,"Duration":85783,"SoundDuration":85783,"Delta":299464916},{"NoteNumber":31,"Velocity":45,"Duration":85783,"SoundDuration":85783,"Delta":299464916},{"NoteNumber":43,"Velocity":54,"Duration":85783,"SoundDuration":85783,"Delta":299464916},{"NoteNumber":72,"Velocity":71,"Duration":85344,"SoundDuration":85344,"Delta":299636239},{"NoteNumber":67,"Velocity":59,"Duration":85344,"SoundDuration":85344,"Delta":299636239},{"NoteNumber":64,"Velocity":59,"Duration":85344,"SoundDuration":85344,"Delta":299636239},{"NoteNumber":36,"Velocity":54,"Duration":85344,"SoundDuration":85344,"Delta":299636239},{"NoteNumber":48,"Velocity":63,"Duration":85344,"SoundDuration":85344,"Delta":299636239},{"NoteNumber":70,"Velocity":64,"Duration":84861,"SoundDuration":84861,"Delta":299806686},{"NoteNumber":65,"Velocity":54,"Duration":84861,"SoundDuration":84861,"Delta":299806686},{"NoteNumber":61,"Velocity":54,"Duration":84861,"SoundDuration":84861,"Delta":299806686},{"NoteNumber":31,"Velocity":47,"Duration":84861,"SoundDuration":84861,"Delta":299806686},{"NoteNumber":43,"Velocity":56,"Duration":84861,"SoundDuration":84861,"Delta":299806686},{"NoteNumber":67,"Velocity":76,"Duration":84431,"SoundDuration":84431,"Delta":299976171},{"NoteNumber":64,"Velocity":64,"Duration":84431,"SoundDuration":84431,"Delta":299976171},{"NoteNumber":60,"Velocity":64,"Duration":84431,"SoundDuration":84431,"Delta":299976171},{"NoteNumber":36,"Velocity":56,"Duration":84431,"SoundDuration":84431,"Delta":299976171},{"NoteNumber":48,"Velocity":67,"Duration":84431,"SoundDuration":84431,"Delta":299976171},{"NoteNumber":56,"Velocity":54,"Duration":83959,"SoundDuration":83959,"Delta":300144797},{"NoteNumber":59,"Velocity":54,"Duration":83959,"SoundDuration":83959,"Delta":300144797},{"NoteNumber":62,"Velocity":54,"Duration":83959,"SoundDuration":83959,"Delta":300144797},{"NoteNumber":65,"Velocity":64,"Duration":83959,"SoundDuration":83959,"Delta":300144797},{"NoteNumber":29,"Velocity":48,"Duration":83959,"SoundDuration":83959,"Delta":300144797},{"NoteNumber":41,"Velocity":58,"Duration":83959,"SoundDuration":83959,"Delta":300144797},{"NoteNumber":64,"Velocity":81,"Duration":83466,"SoundDuration":83466,"Delta":300312628},{"NoteNumber":60,"Velocity":68,"Duration":83466,"SoundDuration":83466,"Delta":300312628},{"NoteNumber":55,"Velocity":68,"Duration":83466,"SoundDuration":83466,"Delta":300312628},{"NoteNumber":36,"Velocity":60,"Duration":83466,"SoundDuration":83466,"Delta":300312628},{"NoteNumber":48,"Velocity":71,"Duration":83466,"SoundDuration":83466,"Delta":300312628},{"NoteNumber":58,"Velocity":60,"Duration":84050,"SoundDuration":84050,"Delta":300479384},{"NoteNumber":61,"Velocity":71,"Duration":84050,"SoundDuration":84050,"Delta":300479384},{"NoteNumber":53,"Velocity":60,"Duration":84050,"SoundDuration":84050,"Delta":300479384},{"NoteNumber":31,"Velocity":53,"Duration":84050,"SoundDuration":84050,"Delta":300479384},{"NoteNumber":43,"Velocity":63,"Duration":84050,"SoundDuration":84050,"Delta":300479384},{"NoteNumber":60,"Velocity":82,"Duration":84140,"SoundDuration":84140,"Delta":300647779},{"NoteNumber":55,"Velocity":70,"Duration":84140,"SoundDuration":84140,"Delta":300647779},{"NoteNumber":52,"Velocity":70,"Duration":84140,"SoundDuration":84140,"Delta":300647779},{"NoteNumber":36,"Velocity":63,"Duration":84140,"SoundDuration":84140,"Delta":300647779},{"NoteNumber":48,"Velocity":74,"Duration":84140,"SoundDuration":84140,"Delta":300647779},{"NoteNumber":58,"Velocity":74,"Duration":84289,"SoundDuration":84289,"Delta":300816036},{"NoteNumber":53,"Velocity":63,"Duration":84289,"SoundDuration":84289,"Delta":300816036},{"NoteNumber":49,"Velocity":63,"Duration":84289,"SoundDuration":84289,"Delta":300816036},{"NoteNumber":31,"Velocity":54,"Duration":84289,"SoundDuration":84289,"Delta":300816036},{"NoteNumber":43,"Velocity":65,"Duration":84289,"SoundDuration":84289,"Delta":300816036},{"NoteNumber":55,"Velocity":88,"Duration":83242,"SoundDuration":83242,"Delta":300984127},{"NoteNumber":52,"Velocity":74,"Duration":83242,"SoundDuration":83242,"Delta":300984127},{"NoteNumber":36,"Velocity":65,"Duration":83242,"SoundDuration":83242,"Delta":300984127},{"NoteNumber":48,"Velocity":77,"Duration":83242,"SoundDuration":83242,"Delta":300984127},{"NoteNumber":44,"Velocity":74,"Duration":83900,"SoundDuration":83900,"Delta":301150094},{"NoteNumber":47,"Velocity":74,"Duration":83900,"SoundDuration":83900,"Delta":301150094},{"NoteNumber":53,"Velocity":90,"Duration":83900,"SoundDuration":83900,"Delta":301150094},{"NoteNumber":35,"Velocity":55,"Duration":83900,"SoundDuration":83900,"Delta":301150094},{"NoteNumber":38,"Velocity":66,"Duration":83900,"SoundDuration":83900,"Delta":301150094},{"NoteNumber":29,"Velocity":55,"Duration":83900,"SoundDuration":83900,"Delta":301150094},{"NoteNumber":41,"Velocity":80,"Duration":83900,"SoundDuration":83900,"Delta":301150094},{"NoteNumber":44,"Velocity":74,"Duration":93750,"SoundDuration":93750,"Delta":301695216},{"NoteNumber":47,"Velocity":74,"Duration":93750,"SoundDuration":93750,"Delta":301695216},{"NoteNumber":50,"Velocity":90,"Duration":93750,"SoundDuration":93750,"Delta":301695216},{"NoteNumber":29,"Velocity":55,"Duration":93750,"SoundDuration":93750,"Delta":301695216},{"NoteNumber":35,"Velocity":55,"Duration":93750,"SoundDuration":93750,"Delta":301695216},{"NoteNumber":38,"Velocity":66,"Duration":93750,"SoundDuration":93750,"Delta":301695216},{"NoteNumber":41,"Velocity":80,"Duration":93750,"SoundDuration":93750,"Delta":301695216},{"NoteNumber":44,"Velocity":74,"Duration":93750,"SoundDuration":93750,"Delta":302278756},{"NoteNumber":47,"Velocity":90,"Duration":93750,"SoundDuration":93750,"Delta":302278756},{"NoteNumber":29,"Velocity":55,"Duration":93750,"SoundDuration":93750,"Delta":302278756},{"NoteNumber":35,"Velocity":55,"Duration":93750,"SoundDuration":93750,"Delta":302278756},{"NoteNumber":38,"Velocity":66,"Duration":93750,"SoundDuration":93750,"Delta":302278756},{"NoteNumber":41,"Velocity":80,"Duration":93750,"SoundDuration":93750,"Delta":302278756},{"NoteNumber":44,"Velocity":81,"Duration":93750,"SoundDuration":93750,"Delta":302466256},{"NoteNumber":47,"Velocity":81,"Duration":93750,"SoundDuration":93750,"Delta":302466256},{"NoteNumber":56,"Velocity":99,"Duration":93750,"SoundDuration":93750,"Delta":302466256},{"NoteNumber":29,"Velocity":61,"Duration":93750,"SoundDuration":93750,"Delta":302466256},{"NoteNumber":35,"Velocity":61,"Duration":93750,"SoundDuration":93750,"Delta":302466256},{"NoteNumber":38,"Velocity":72,"Duration":93750,"SoundDuration":93750,"Delta":302466256},{"NoteNumber":41,"Velocity":87,"Duration":93750,"SoundDuration":93750,"Delta":302466256},{"NoteNumber":44,"Velocity":74,"Duration":93750,"SoundDuration":93750,"Delta":302653756},{"NoteNumber":47,"Velocity":74,"Duration":93750,"SoundDuration":93750,"Delta":302653756},{"NoteNumber":53,"Velocity":90,"Duration":93750,"SoundDuration":93750,"Delta":302653756},{"NoteNumber":29,"Velocity":55,"Duration":93750,"SoundDuration":93750,"Delta":302653756},{"NoteNumber":35,"Velocity":55,"Duration":93750,"SoundDuration":93750,"Delta":302653756},{"NoteNumber":38,"Velocity":66,"Duration":93750,"SoundDuration":93750,"Delta":302653756},{"NoteNumber":41,"Velocity":80,"Duration":93750,"SoundDuration":93750,"Delta":302653756},{"NoteNumber":44,"Velocity":79,"Duration":74592,"SoundDuration":74592,"Delta":303919236},{"NoteNumber":32,"Velocity":81,"Duration":74592,"SoundDuration":74592,"Delta":303919236},{"NoteNumber":43,"Velocity":81,"Duration":77819,"SoundDuration":77819,"Delta":304019200},{"NoteNumber":31,"Velocity":83,"Duration":77819,"SoundDuration":77819,"Delta":304019200},{"NoteNumber":42,"Velocity":83,"Duration":85692,"SoundDuration":85692,"Delta":304124001},{"NoteNumber":30,"Velocity":85,"Duration":85692,"SoundDuration":85692,"Delta":304124001},{"NoteNumber":41,"Velocity":86,"Duration":90325,"SoundDuration":90325,"Delta":304239304},{"NoteNumber":29,"Velocity":87,"Duration":90325,"SoundDuration":90325,"Delta":304239304},{"NoteNumber":40,"Velocity":74,"Duration":1323528,"SoundDuration":1323528,"Delta":304359750},{"NoteNumber":43,"Velocity":74,"Duration":1323528,"SoundDuration":1323528,"Delta":304359750},{"NoteNumber":48,"Velocity":89,"Duration":1323528,"SoundDuration":1323528,"Delta":304359750},{"NoteNumber":24,"Velocity":63,"Duration":1323528,"SoundDuration":1323528,"Delta":304359750},{"NoteNumber":28,"Velocity":63,"Duration":1323528,"SoundDuration":1323528,"Delta":304359750},{"NoteNumber":31,"Velocity":75,"Duration":1323528,"SoundDuration":1323528,"Delta":304359750},{"NoteNumber":36,"Velocity":90,"Duration":1323528,"SoundDuration":1323528,"Delta":304359750}],"license":{"name":"Creative Commons Attribution-ShareAlike 3.0 Germany","url":"http://creativecommons.org/licenses/by-sa/3.0/de/deed.en","text":"The MIDI files in this folder were downloaded from http://www.piano-midi.de and are licensed under the Creative Commons Attribution-ShareAlike 3.0 Germany license by Bernd Krueger.\n\nThe MIDI, audio(MP3, OGG) and video files of Bernd Krueger are licensed under the cc-by-sa Germany License . This means, that you can use and adapt the files, as long as you attribute to the copyright holder Name: Bernd Krueger Source: http://www.piano-midi.de The distribution or public playback of the files is only allowed under identical license conditions . The scores are open source.","attribution":"Bernd Krueger","attributionUrl":"http://www.piano-midi.de"}}