{"title":"Orientalische Fantasie","artist":"Balakirew","durationMs":495334,"midiSha256":"2dafdae543118e95fb5aaca176cbfa01cf6533cabe11dea33d3c666dba4eefa5","midiObject":[{"NoteNumber":58,"Velocity":89,"Duration":87317,"SoundDuration":87317,"Delta":0},{"NoteNumber":58,"Velocity":81,"Duration":87317,"SoundDuration":87317,"Delta":116423},{"NoteNumber":58,"Velocity":77,"Duration":87317,"SoundDuration":87317,"Delta":232847},{"NoteNumber":58,"Velocity":84,"Duration":87317,"SoundDuration":87317,"Delta":349270},{"NoteNumber":57,"Velocity":77,"Duration":87317,"SoundDuration":87317,"Delta":465694},{"NoteNumber":58,"Velocity":73,"Duration":87317,"SoundDuration":87317,"Delta":582117},{"NoteNumber":54,"Velocity":82,"Duration":87317,"SoundDuration":87317,"Delta":698541},{"NoteNumber":54,"Velocity":84,"Duration":87317,"SoundDuration":87317,"Delta":814964},{"NoteNumber":57,"Velocity":77,"Duration":97150,"SoundDuration":97150,"Delta":931388},{"NoteNumber":58,"Velocity":86,"Duration":87317,"SoundDuration":87317,"Delta":1060921},{"NoteNumber":61,"Velocity":87,"Duration":87317,"SoundDuration":87317,"Delta":1177345},{"NoteNumber":60,"Velocity":87,"Duration":87317,"SoundDuration":87317,"Delta":1293768},{"NoteNumber":56,"Velocity":81,"Duration":87966,"SoundDuration":87966,"Delta":1410192},{"NoteNumber":56,"Velocity":75,"Duration":87966,"SoundDuration":87966,"Delta":1527480},{"NoteNumber":56,"Velocity":73,"Duration":87966,"SoundDuration":87966,"Delta":1644768},{"NoteNumber":56,"Velocity":81,"Duration":87966,"SoundDuration":87966,"Delta":1762057},{"NoteNumber":53,"Velocity":74,"Duration":87966,"SoundDuration":87966,"Delta":1879345},{"NoteNumber":54,"Velocity":71,"Duration":87966,"SoundDuration":87966,"Delta":1996633},{"NoteNumber":56,"Velocity":80,"Duration":91617,"SoundDuration":91617,"Delta":2113921},{"NoteNumber":58,"Velocity":72,"Duration":93551,"SoundDuration":93551,"Delta":2236415},{"NoteNumber":56,"Velocity":67,"Duration":95609,"SoundDuration":95609,"Delta":2361477},{"NoteNumber":53,"Velocity":90,"Duration":417246,"SoundDuration":417246,"Delta":2488484},{"NoteNumber":58,"Velocity":53,"Duration":87317,"SoundDuration":87317,"Delta":2905730},{"NoteNumber":58,"Velocity":49,"Duration":87317,"SoundDuration":87317,"Delta":3022153},{"NoteNumber":58,"Velocity":47,"Duration":87317,"SoundDuration":87317,"Delta":3138577},{"NoteNumber":58,"Velocity":50,"Duration":87317,"SoundDuration":87317,"Delta":3255000},{"NoteNumber":57,"Velocity":45,"Duration":87317,"SoundDuration":87317,"Delta":3371424},{"NoteNumber":58,"Velocity":45,"Duration":87317,"SoundDuration":87317,"Delta":3487847},{"NoteNumber":54,"Velocity":49,"Duration":87317,"SoundDuration":87317,"Delta":3604271},{"NoteNumber":54,"Velocity":46,"Duration":87317,"SoundDuration":87317,"Delta":3720694},{"NoteNumber":57,"Velocity":45,"Duration":95250,"SoundDuration":95250,"Delta":3837118},{"NoteNumber":58,"Velocity":49,"Duration":87317,"SoundDuration":87317,"Delta":3964118},{"NoteNumber":61,"Velocity":47,"Duration":87317,"SoundDuration":87317,"Delta":4080542},{"NoteNumber":60,"Velocity":47,"Duration":87317,"SoundDuration":87317,"Delta":4196965},{"NoteNumber":56,"Velocity":51,"Duration":88890,"SoundDuration":88890,"Delta":4313389},{"NoteNumber":56,"Velocity":46,"Duration":88890,"SoundDuration":88890,"Delta":4431909},{"NoteNumber":56,"Velocity":45,"Duration":88890,"SoundDuration":88890,"Delta":4550430},{"NoteNumber":56,"Velocity":49,"Duration":88890,"SoundDuration":88890,"Delta":4668951},{"NoteNumber":53,"Velocity":45,"Duration":88890,"SoundDuration":88890,"Delta":4787472},{"NoteNumber":54,"Velocity":45,"Duration":88890,"SoundDuration":88890,"Delta":4905992},{"NoteNumber":56,"Velocity":49,"Duration":92624,"SoundDuration":92624,"Delta":5024513},{"NoteNumber":58,"Velocity":43,"Duration":94494,"SoundDuration":94494,"Delta":5148297},{"NoteNumber":56,"Velocity":43,"Duration":96403,"SoundDuration":96403,"Delta":5274611},{"NoteNumber":53,"Velocity":54,"Duration":420757,"SoundDuration":420757,"Delta":5403495},{"NoteNumber":54,"Velocity":80,"Duration":87317,"SoundDuration":87317,"Delta":5824253},{"NoteNumber":54,"Velocity":72,"Duration":87317,"SoundDuration":87317,"Delta":5940676},{"NoteNumber":57,"Velocity":71,"Duration":87317,"SoundDuration":87317,"Delta":6057100},{"NoteNumber":58,"Velocity":82,"Duration":87317,"SoundDuration":87317,"Delta":6173523},{"NoteNumber":58,"Velocity":80,"Duration":87317,"SoundDuration":87317,"Delta":6289947},{"NoteNumber":60,"Velocity":80,"Duration":87317,"SoundDuration":87317,"Delta":6406370},{"NoteNumber":63,"Velocity":85,"Duration":87317,"SoundDuration":87317,"Delta":6522794},{"NoteNumber":63,"Velocity":85,"Duration":87317,"SoundDuration":87317,"Delta":6639217},{"NoteNumber":61,"Velocity":80,"Duration":97150,"SoundDuration":97150,"Delta":6755641},{"NoteNumber":60,"Velocity":81,"Duration":87317,"SoundDuration":87317,"Delta":6885175},{"NoteNumber":60,"Velocity":77,"Duration":87317,"SoundDuration":87317,"Delta":7001598},{"NoteNumber":58,"Velocity":71,"Duration":87317,"SoundDuration":87317,"Delta":7118022},{"NoteNumber":56,"Velocity":83,"Duration":87317,"SoundDuration":87317,"Delta":7234445},{"NoteNumber":56,"Velocity":81,"Duration":87317,"SoundDuration":87317,"Delta":7350869},{"NoteNumber":56,"Velocity":79,"Duration":87317,"SoundDuration":87317,"Delta":7467292},{"NoteNumber":61,"Velocity":80,"Duration":87317,"SoundDuration":87317,"Delta":7583716},{"NoteNumber":61,"Velocity":79,"Duration":87317,"SoundDuration":87317,"Delta":7700139},{"NoteNumber":60,"Velocity":84,"Duration":87317,"SoundDuration":87317,"Delta":7816563},{"NoteNumber":58,"Velocity":80,"Duration":91086,"SoundDuration":91086,"Delta":7932986},{"NoteNumber":56,"Velocity":79,"Duration":92375,"SoundDuration":92375,"Delta":8054668},{"NoteNumber":58,"Velocity":79,"Duration":93752,"SoundDuration":93752,"Delta":8178089},{"NoteNumber":53,"Velocity":89,"Duration":417439,"SoundDuration":417439,"Delta":8303351},{"NoteNumber":54,"Velocity":47,"Duration":87317,"SoundDuration":87317,"Delta":8720791},{"NoteNumber":54,"Velocity":43,"Duration":87317,"SoundDuration":87317,"Delta":8837214},{"NoteNumber":57,"Velocity":43,"Duration":87317,"SoundDuration":87317,"Delta":8953638},{"NoteNumber":58,"Velocity":49,"Duration":87317,"SoundDuration":87317,"Delta":9070061},{"NoteNumber":58,"Velocity":45,"Duration":87317,"SoundDuration":87317,"Delta":9186485},{"NoteNumber":60,"Velocity":45,"Duration":87317,"SoundDuration":87317,"Delta":9302908},{"NoteNumber":63,"Velocity":50,"Duration":87317,"SoundDuration":87317,"Delta":9419332},{"NoteNumber":63,"Velocity":47,"Duration":87317,"SoundDuration":87317,"Delta":9535755},{"NoteNumber":61,"Velocity":47,"Duration":97150,"SoundDuration":97150,"Delta":9652179},{"NoteNumber":60,"Velocity":47,"Duration":87317,"SoundDuration":87317,"Delta":9781712},{"NoteNumber":60,"Velocity":45,"Duration":87317,"SoundDuration":87317,"Delta":9898136},{"NoteNumber":58,"Velocity":45,"Duration":87317,"SoundDuration":87317,"Delta":10014559},{"NoteNumber":56,"Velocity":50,"Duration":87317,"SoundDuration":87317,"Delta":10130983},{"NoteNumber":56,"Velocity":49,"Duration":87317,"SoundDuration":87317,"Delta":10247406},{"NoteNumber":56,"Velocity":49,"Duration":87317,"SoundDuration":87317,"Delta":10363830},{"NoteNumber":61,"Velocity":47,"Duration":87317,"SoundDuration":87317,"Delta":10480253},{"NoteNumber":61,"Velocity":46,"Duration":87317,"SoundDuration":87317,"Delta":10596677},{"NoteNumber":60,"Velocity":46,"Duration":87317,"SoundDuration":87317,"Delta":10713100},{"NoteNumber":58,"Velocity":47,"Duration":90302,"SoundDuration":90302,"Delta":10829524},{"NoteNumber":56,"Velocity":46,"Duration":92181,"SoundDuration":92181,"Delta":10950258},{"NoteNumber":58,"Velocity":46,"Duration":94188,"SoundDuration":94188,"Delta":11073485},{"NoteNumber":53,"Velocity":57,"Duration":429717,"SoundDuration":429717,"Delta":11199421},{"NoteNumber":66,"Velocity":62,"Duration":98304,"SoundDuration":98304,"Delta":11629138},{"NoteNumber":70,"Velocity":70,"Duration":98304,"SoundDuration":98304,"Delta":11629138},{"NoteNumber":56,"Velocity":67,"Duration":98304,"SoundDuration":98304,"Delta":11629138},{"NoteNumber":61,"Velocity":76,"Duration":98304,"SoundDuration":98304,"Delta":11629138},{"NoteNumber":66,"Velocity":55,"Duration":98304,"SoundDuration":98304,"Delta":11760211},{"NoteNumber":70,"Velocity":62,"Duration":98304,"SoundDuration":98304,"Delta":11760211},{"NoteNumber":66,"Velocity":57,"Duration":97851,"SoundDuration":97851,"Delta":11891284},{"NoteNumber":70,"Velocity":63,"Duration":97851,"SoundDuration":97851,"Delta":11891284},{"NoteNumber":70,"Velocity":71,"Duration":90663,"SoundDuration":90663,"Delta":12021283},{"NoteNumber":66,"Velocity":63,"Duration":90663,"SoundDuration":90663,"Delta":12021283},{"NoteNumber":56,"Velocity":87,"Duration":718000,"SoundDuration":718000,"Delta":12021283},{"NoteNumber":49,"Velocity":76,"Duration":718000,"SoundDuration":718000,"Delta":12021283},{"NoteNumber":65,"Velocity":64,"Duration":89957,"SoundDuration":89957,"Delta":12142043},{"NoteNumber":70,"Velocity":70,"Duration":89223,"SoundDuration":89223,"Delta":12261840},{"NoteNumber":66,"Velocity":62,"Duration":89223,"SoundDuration":89223,"Delta":12261840},{"NoteNumber":62,"Velocity":63,"Duration":88575,"SoundDuration":88575,"Delta":12380673},{"NoteNumber":63,"Velocity":57,"Duration":88575,"SoundDuration":88575,"Delta":12498774},{"NoteNumber":66,"Velocity":63,"Duration":88575,"SoundDuration":88575,"Delta":12498774},{"NoteNumber":65,"Velocity":64,"Duration":91806,"SoundDuration":91806,"Delta":12616875},{"NoteNumber":66,"Velocity":62,"Duration":238815,"SoundDuration":238815,"Delta":12739284},{"NoteNumber":70,"Velocity":70,"Duration":89555,"SoundDuration":89555,"Delta":12739284},{"NoteNumber":49,"Velocity":70,"Duration":89555,"SoundDuration":89555,"Delta":12739284},{"NoteNumber":37,"Velocity":62,"Duration":89555,"SoundDuration":89555,"Delta":12739284},{"NoteNumber":73,"Velocity":69,"Duration":89555,"SoundDuration":89555,"Delta":12858691},{"NoteNumber":68,"Velocity":59,"Duration":89555,"SoundDuration":89555,"Delta":12978099},{"NoteNumber":72,"Velocity":65,"Duration":89555,"SoundDuration":89555,"Delta":12978099},{"NoteNumber":68,"Velocity":65,"Duration":91806,"SoundDuration":91806,"Delta":13097507},{"NoteNumber":65,"Velocity":59,"Duration":91806,"SoundDuration":91806,"Delta":13097507},{"NoteNumber":61,"Velocity":65,"Duration":91806,"SoundDuration":91806,"Delta":13097507},{"NoteNumber":56,"Velocity":59,"Duration":91806,"SoundDuration":91806,"Delta":13097507},{"NoteNumber":65,"Velocity":57,"Duration":91806,"SoundDuration":91806,"Delta":13219916},{"NoteNumber":68,"Velocity":63,"Duration":91806,"SoundDuration":91806,"Delta":13219916},{"NoteNumber":65,"Velocity":63,"Duration":96351,"SoundDuration":96351,"Delta":13342325},{"NoteNumber":68,"Velocity":63,"Duration":96351,"SoundDuration":96351,"Delta":13342325},{"NoteNumber":68,"Velocity":73,"Duration":88276,"SoundDuration":88276,"Delta":13470794},{"NoteNumber":65,"Velocity":65,"Duration":88276,"SoundDuration":88276,"Delta":13470794},{"NoteNumber":49,"Velocity":77,"Duration":723899,"SoundDuration":723899,"Delta":13470794},{"NoteNumber":56,"Velocity":86,"Duration":723899,"SoundDuration":723899,"Delta":13470794},{"NoteNumber":61,"Velocity":67,"Duration":88666,"SoundDuration":88666,"Delta":13588589},{"NoteNumber":66,"Velocity":65,"Duration":89062,"SoundDuration":89062,"Delta":13706886},{"NoteNumber":63,"Velocity":65,"Duration":89062,"SoundDuration":89062,"Delta":13706886},{"NoteNumber":65,"Velocity":72,"Duration":90759,"SoundDuration":90759,"Delta":13825682},{"NoteNumber":66,"Velocity":57,"Duration":92040,"SoundDuration":92040,"Delta":13946924},{"NoteNumber":70,"Velocity":64,"Duration":92040,"SoundDuration":92040,"Delta":13946924},{"NoteNumber":65,"Velocity":65,"Duration":93404,"SoundDuration":93404,"Delta":14069895},{"NoteNumber":61,"Velocity":74,"Duration":412125,"SoundDuration":412125,"Delta":14194693},{"NoteNumber":65,"Velocity":82,"Duration":412125,"SoundDuration":412125,"Delta":14194693},{"NoteNumber":37,"Velocity":62,"Duration":103031,"SoundDuration":103031,"Delta":14194693},{"NoteNumber":49,"Velocity":70,"Duration":103031,"SoundDuration":103031,"Delta":14194693},{"NoteNumber":66,"Velocity":41,"Duration":96583,"SoundDuration":96583,"Delta":14606819},{"NoteNumber":70,"Velocity":45,"Duration":96583,"SoundDuration":96583,"Delta":14606819},{"NoteNumber":56,"Velocity":36,"Duration":96583,"SoundDuration":96583,"Delta":14606819},{"NoteNumber":61,"Velocity":42,"Duration":96583,"SoundDuration":96583,"Delta":14606819},{"NoteNumber":66,"Velocity":29,"Duration":96583,"SoundDuration":96583,"Delta":14735597},{"NoteNumber":70,"Velocity":33,"Duration":96583,"SoundDuration":96583,"Delta":14735597},{"NoteNumber":66,"Velocity":31,"Duration":97851,"SoundDuration":97851,"Delta":14864374},{"NoteNumber":70,"Velocity":35,"Duration":97851,"SoundDuration":97851,"Delta":14864374},{"NoteNumber":70,"Velocity":40,"Duration":90432,"SoundDuration":90432,"Delta":14994330},{"NoteNumber":66,"Velocity":35,"Duration":90432,"SoundDuration":90432,"Delta":14994330},{"NoteNumber":49,"Velocity":44,"Duration":711548,"SoundDuration":711548,"Delta":14994330},{"NoteNumber":56,"Velocity":49,"Duration":711548,"SoundDuration":711548,"Delta":14994330},{"NoteNumber":65,"Velocity":35,"Duration":88850,"SoundDuration":88850,"Delta":15114645},{"NoteNumber":70,"Velocity":36,"Duration":87657,"SoundDuration":87657,"Delta":15232838},{"NoteNumber":66,"Velocity":32,"Duration":87657,"SoundDuration":87657,"Delta":15232838},{"NoteNumber":62,"Velocity":36,"Duration":87657,"SoundDuration":87657,"Delta":15349715},{"NoteNumber":66,"Velocity":33,"Duration":87657,"SoundDuration":87657,"Delta":15466592},{"NoteNumber":63,"Velocity":29,"Duration":87657,"SoundDuration":87657,"Delta":15466592},{"NoteNumber":65,"Velocity":42,"Duration":91806,"SoundDuration":91806,"Delta":15583469},{"NoteNumber":66,"Velocity":33,"Duration":238815,"SoundDuration":238815,"Delta":15705878},{"NoteNumber":70,"Velocity":37,"Duration":89555,"SoundDuration":89555,"Delta":15705878},{"NoteNumber":49,"Velocity":35,"Duration":89555,"SoundDuration":89555,"Delta":15705878},{"NoteNumber":37,"Velocity":31,"Duration":89555,"SoundDuration":89555,"Delta":15705878},{"NoteNumber":73,"Velocity":45,"Duration":89555,"SoundDuration":89555,"Delta":15825286},{"NoteNumber":68,"Velocity":39,"Duration":89555,"SoundDuration":89555,"Delta":15944693},{"NoteNumber":72,"Velocity":39,"Duration":89555,"SoundDuration":89555,"Delta":15944693},{"NoteNumber":65,"Velocity":36,"Duration":91806,"SoundDuration":91806,"Delta":16064101},{"NoteNumber":68,"Velocity":41,"Duration":91806,"SoundDuration":91806,"Delta":16064101},{"NoteNumber":61,"Velocity":34,"Duration":91806,"SoundDuration":91806,"Delta":16064101},{"NoteNumber":56,"Velocity":30,"Duration":91806,"SoundDuration":91806,"Delta":16064101},{"NoteNumber":68,"Velocity":33,"Duration":91806,"SoundDuration":91806,"Delta":16186510},{"NoteNumber":65,"Velocity":29,"Duration":91806,"SoundDuration":91806,"Delta":16186510},{"NoteNumber":65,"Velocity":29,"Duration":96351,"SoundDuration":96351,"Delta":16308919},{"NoteNumber":68,"Velocity":33,"Duration":96351,"SoundDuration":96351,"Delta":16308919},{"NoteNumber":68,"Velocity":36,"Duration":88276,"SoundDuration":88276,"Delta":16437388},{"NoteNumber":65,"Velocity":32,"Duration":88276,"SoundDuration":88276,"Delta":16437388},{"NoteNumber":56,"Velocity":46,"Duration":728071,"SoundDuration":728071,"Delta":16437388},{"NoteNumber":49,"Velocity":42,"Duration":728071,"SoundDuration":728071,"Delta":16437388},{"NoteNumber":61,"Velocity":36,"Duration":88666,"SoundDuration":88666,"Delta":16555183},{"NoteNumber":66,"Velocity":36,"Duration":89062,"SoundDuration":89062,"Delta":16673480},{"NoteNumber":63,"Velocity":36,"Duration":89062,"SoundDuration":89062,"Delta":16673480},{"NoteNumber":65,"Velocity":42,"Duration":91559,"SoundDuration":91559,"Delta":16792277},{"NoteNumber":70,"Velocity":41,"Duration":93058,"SoundDuration":93058,"Delta":16914607},{"NoteNumber":66,"Velocity":36,"Duration":93058,"SoundDuration":93058,"Delta":16914607},{"NoteNumber":65,"Velocity":36,"Duration":94651,"SoundDuration":94651,"Delta":17038942},{"NoteNumber":61,"Velocity":41,"Duration":429717,"SoundDuration":429717,"Delta":17165460},{"NoteNumber":65,"Velocity":45,"Duration":429717,"SoundDuration":429717,"Delta":17165460},{"NoteNumber":37,"Velocity":29,"Duration":107429,"SoundDuration":107429,"Delta":17165460},{"NoteNumber":49,"Velocity":33,"Duration":107429,"SoundDuration":107429,"Delta":17165460},{"NoteNumber":62,"Velocity":72,"Duration":90464,"SoundDuration":90464,"Delta":17595177},{"NoteNumber":54,"Velocity":62,"Duration":359537,"SoundDuration":359537,"Delta":17595177},{"NoteNumber":58,"Velocity":62,"Duration":359537,"SoundDuration":359537,"Delta":17595177},{"NoteNumber":49,"Velocity":55,"Duration":359537,"SoundDuration":359537,"Delta":17595177},{"NoteNumber":66,"Velocity":69,"Duration":89949,"SoundDuration":89949,"Delta":17715704},{"NoteNumber":63,"Velocity":69,"Duration":89949,"SoundDuration":89949,"Delta":17715704},{"NoteNumber":65,"Velocity":69,"Duration":89416,"SoundDuration":89416,"Delta":17835553},{"NoteNumber":70,"Velocity":80,"Duration":88939,"SoundDuration":88939,"Delta":17954715},{"NoteNumber":66,"Velocity":80,"Duration":88939,"SoundDuration":88939,"Delta":17954715},{"NoteNumber":37,"Velocity":46,"Duration":363627,"SoundDuration":363627,"Delta":17954715},{"NoteNumber":49,"Velocity":53,"Duration":363627,"SoundDuration":363627,"Delta":17954715},{"NoteNumber":69,"Velocity":74,"Duration":88939,"SoundDuration":88939,"Delta":18073301},{"NoteNumber":70,"Velocity":75,"Duration":94840,"SoundDuration":94840,"Delta":18191888},{"NoteNumber":73,"Velocity":75,"Duration":94840,"SoundDuration":94840,"Delta":18191888},{"NoteNumber":71,"Velocity":84,"Duration":88939,"SoundDuration":88939,"Delta":18318342},{"NoteNumber":63,"Velocity":63,"Duration":355759,"SoundDuration":355759,"Delta":18318342},{"NoteNumber":56,"Velocity":57,"Duration":355759,"SoundDuration":355759,"Delta":18318342},{"NoteNumber":66,"Velocity":63,"Duration":355759,"SoundDuration":355759,"Delta":18318342},{"NoteNumber":75,"Velocity":74,"Duration":88939,"SoundDuration":88939,"Delta":18436929},{"NoteNumber":72,"Velocity":74,"Duration":88939,"SoundDuration":88939,"Delta":18436929},{"NoteNumber":73,"Velocity":75,"Duration":88939,"SoundDuration":88939,"Delta":18555515},{"NoteNumber":70,"Velocity":75,"Duration":88939,"SoundDuration":88939,"Delta":18555515},{"NoteNumber":72,"Velocity":74,"Duration":237172,"SoundDuration":237172,"Delta":18674102},{"NoteNumber":68,"Velocity":74,"Duration":88939,"SoundDuration":88939,"Delta":18674102},{"NoteNumber":49,"Velocity":53,"Duration":355759,"SoundDuration":355759,"Delta":18674102},{"NoteNumber":37,"Velocity":46,"Duration":355759,"SoundDuration":355759,"Delta":18674102},{"NoteNumber":67,"Velocity":72,"Duration":88939,"SoundDuration":88939,"Delta":18792688},{"NoteNumber":70,"Velocity":70,"Duration":239671,"SoundDuration":239671,"Delta":18911275},{"NoteNumber":66,"Velocity":70,"Duration":88939,"SoundDuration":88939,"Delta":18911275},{"NoteNumber":64,"Velocity":74,"Duration":90813,"SoundDuration":90813,"Delta":19029861},{"NoteNumber":56,"Velocity":44,"Duration":90813,"SoundDuration":90813,"Delta":19029861},{"NoteNumber":61,"Velocity":44,"Duration":90813,"SoundDuration":90813,"Delta":19029861},{"NoteNumber":49,"Velocity":39,"Duration":90813,"SoundDuration":90813,"Delta":19029861},{"NoteNumber":65,"Velocity":71,"Duration":90813,"SoundDuration":90813,"Delta":19150946},{"NoteNumber":67,"Velocity":70,"Duration":90813,"SoundDuration":90813,"Delta":19272031},{"NoteNumber":73,"Velocity":81,"Duration":237172,"SoundDuration":237172,"Delta":19393116},{"NoteNumber":68,"Velocity":81,"Duration":88939,"SoundDuration":88939,"Delta":19393116},{"NoteNumber":66,"Velocity":61,"Duration":355759,"SoundDuration":355759,"Delta":19393116},{"NoteNumber":63,"Velocity":61,"Duration":355759,"SoundDuration":355759,"Delta":19393116},{"NoteNumber":61,"Velocity":53,"Duration":478589,"SoundDuration":478589,"Delta":19393116},{"NoteNumber":69,"Velocity":66,"Duration":237173,"SoundDuration":237173,"Delta":19511703},{"NoteNumber":72,"Velocity":72,"Duration":88939,"SoundDuration":88939,"Delta":19630289},{"NoteNumber":70,"Velocity":69,"Duration":92122,"SoundDuration":92122,"Delta":19748876},{"NoteNumber":65,"Velocity":50,"Duration":92122,"SoundDuration":92122,"Delta":19748876},{"NoteNumber":68,"Velocity":65,"Duration":92122,"SoundDuration":92122,"Delta":19871706},{"NoteNumber":70,"Velocity":63,"Duration":95201,"SoundDuration":95201,"Delta":19994536},{"NoteNumber":62,"Velocity":57,"Duration":411259,"SoundDuration":411259,"Delta":20121471},{"NoteNumber":65,"Velocity":64,"Duration":411259,"SoundDuration":411259,"Delta":20121471},{"NoteNumber":59,"Velocity":53,"Duration":411259,"SoundDuration":411259,"Delta":20121471},{"NoteNumber":49,"Velocity":47,"Duration":411259,"SoundDuration":411259,"Delta":20121471},{"NoteNumber":56,"Velocity":53,"Duration":411259,"SoundDuration":411259,"Delta":20121471},{"NoteNumber":62,"Velocity":40,"Duration":90151,"SoundDuration":90151,"Delta":20532731},{"NoteNumber":49,"Velocity":29,"Duration":358290,"SoundDuration":358290,"Delta":20532731},{"NoteNumber":58,"Velocity":33,"Duration":358290,"SoundDuration":358290,"Delta":20532731},{"NoteNumber":54,"Velocity":33,"Duration":358290,"SoundDuration":358290,"Delta":20532731},{"NoteNumber":66,"Velocity":41,"Duration":89632,"SoundDuration":89632,"Delta":20652837},{"NoteNumber":63,"Velocity":36,"Duration":89632,"SoundDuration":89632,"Delta":20652837},{"NoteNumber":65,"Velocity":37,"Duration":89111,"SoundDuration":89111,"Delta":20772263},{"NoteNumber":70,"Velocity":44,"Duration":88631,"SoundDuration":88631,"Delta":20891021},{"NoteNumber":66,"Velocity":44,"Duration":88631,"SoundDuration":88631,"Delta":20891021},{"NoteNumber":37,"Velocity":25,"Duration":362804,"SoundDuration":362804,"Delta":20891021},{"NoteNumber":49,"Velocity":27,"Duration":362804,"SoundDuration":362804,"Delta":20891021},{"NoteNumber":69,"Velocity":41,"Duration":88631,"SoundDuration":88631,"Delta":21009196},{"NoteNumber":73,"Velocity":47,"Duration":94840,"SoundDuration":94840,"Delta":21127372},{"NoteNumber":70,"Velocity":47,"Duration":94840,"SoundDuration":94840,"Delta":21127372},{"NoteNumber":71,"Velocity":49,"Duration":88939,"SoundDuration":88939,"Delta":21253826},{"NoteNumber":66,"Velocity":35,"Duration":355759,"SoundDuration":355759,"Delta":21253826},{"NoteNumber":56,"Velocity":31,"Duration":355759,"SoundDuration":355759,"Delta":21253826},{"NoteNumber":63,"Velocity":35,"Duration":355759,"SoundDuration":355759,"Delta":21253826},{"NoteNumber":75,"Velocity":46,"Duration":88939,"SoundDuration":88939,"Delta":21372412},{"NoteNumber":72,"Velocity":46,"Duration":88939,"SoundDuration":88939,"Delta":21372412},{"NoteNumber":73,"Velocity":44,"Duration":88939,"SoundDuration":88939,"Delta":21490999},{"NoteNumber":70,"Velocity":44,"Duration":88939,"SoundDuration":88939,"Delta":21490999},{"NoteNumber":68,"Velocity":41,"Duration":88939,"SoundDuration":88939,"Delta":21609585},{"NoteNumber":72,"Velocity":41,"Duration":237172,"SoundDuration":237172,"Delta":21609585},{"NoteNumber":49,"Velocity":27,"Duration":355759,"SoundDuration":355759,"Delta":21609585},{"NoteNumber":37,"Velocity":25,"Duration":355759,"SoundDuration":355759,"Delta":21609585},{"NoteNumber":67,"Velocity":45,"Duration":88939,"SoundDuration":88939,"Delta":21728172},{"NoteNumber":70,"Velocity":42,"Duration":239671,"SoundDuration":239671,"Delta":21846758},{"NoteNumber":66,"Velocity":42,"Duration":88939,"SoundDuration":88939,"Delta":21846758},{"NoteNumber":64,"Velocity":44,"Duration":90813,"SoundDuration":90813,"Delta":21965345},{"NoteNumber":56,"Velocity":23,"Duration":90813,"SoundDuration":90813,"Delta":21965345},{"NoteNumber":49,"Velocity":20,"Duration":90813,"SoundDuration":90813,"Delta":21965345},{"NoteNumber":61,"Velocity":23,"Duration":90813,"SoundDuration":90813,"Delta":21965345},{"NoteNumber":65,"Velocity":41,"Duration":90813,"SoundDuration":90813,"Delta":22086430},{"NoteNumber":67,"Velocity":39,"Duration":90813,"SoundDuration":90813,"Delta":22207515},{"NoteNumber":73,"Velocity":42,"Duration":237172,"SoundDuration":237172,"Delta":22328600},{"NoteNumber":68,"Velocity":42,"Duration":88939,"SoundDuration":88939,"Delta":22328600},{"NoteNumber":66,"Velocity":30,"Duration":355759,"SoundDuration":355759,"Delta":22328600},{"NoteNumber":61,"Velocity":26,"Duration":477208,"SoundDuration":477208,"Delta":22328600},{"NoteNumber":63,"Velocity":30,"Duration":355759,"SoundDuration":355759,"Delta":22328600},{"NoteNumber":69,"Velocity":36,"Duration":237173,"SoundDuration":237173,"Delta":22447186},{"NoteNumber":72,"Velocity":43,"Duration":88939,"SoundDuration":88939,"Delta":22565773},{"NoteNumber":70,"Velocity":40,"Duration":90902,"SoundDuration":90902,"Delta":22684359},{"NoteNumber":65,"Velocity":26,"Duration":90902,"SoundDuration":90902,"Delta":22684359},{"NoteNumber":68,"Velocity":36,"Duration":92360,"SoundDuration":92360,"Delta":22805808},{"NoteNumber":70,"Velocity":37,"Duration":93894,"SoundDuration":93894,"Delta":22929204},{"NoteNumber":61,"Velocity":37,"Duration":412881,"SoundDuration":412881,"Delta":23054704},{"NoteNumber":65,"Velocity":43,"Duration":412881,"SoundDuration":412881,"Delta":23054704},{"NoteNumber":55,"Velocity":22,"Duration":412881,"SoundDuration":412881,"Delta":23054704},{"NoteNumber":46,"Velocity":19,"Duration":412881,"SoundDuration":412881,"Delta":23054704},{"NoteNumber":60,"Velocity":32,"Duration":125041,"SoundDuration":125041,"Delta":23467586},{"NoteNumber":65,"Velocity":32,"Duration":125041,"SoundDuration":125041,"Delta":23467586},{"NoteNumber":41,"Velocity":27,"Duration":125041,"SoundDuration":125041,"Delta":23467586},{"NoteNumber":53,"Velocity":27,"Duration":125041,"SoundDuration":125041,"Delta":23467586},{"NoteNumber":60,"Velocity":27,"Duration":125041,"SoundDuration":125041,"Delta":23592628},{"NoteNumber":53,"Velocity":27,"Duration":125041,"SoundDuration":125041,"Delta":23592628},{"NoteNumber":65,"Velocity":32,"Duration":124958,"SoundDuration":124958,"Delta":23717669},{"NoteNumber":60,"Velocity":32,"Duration":124958,"SoundDuration":124958,"Delta":23717669},{"NoteNumber":58,"Velocity":31,"Duration":124296,"SoundDuration":124296,"Delta":23842628},{"NoteNumber":65,"Velocity":31,"Duration":124296,"SoundDuration":124296,"Delta":23842628},{"NoteNumber":53,"Velocity":29,"Duration":123330,"SoundDuration":123330,"Delta":23966924},{"NoteNumber":58,"Velocity":29,"Duration":123330,"SoundDuration":123330,"Delta":23966924},{"NoteNumber":60,"Velocity":36,"Duration":122369,"SoundDuration":122369,"Delta":24090255},{"NoteNumber":65,"Velocity":36,"Duration":122369,"SoundDuration":122369,"Delta":24090255},{"NoteNumber":65,"Velocity":39,"Duration":121438,"SoundDuration":121438,"Delta":24212624},{"NoteNumber":61,"Velocity":39,"Duration":121438,"SoundDuration":121438,"Delta":24212624},{"NoteNumber":53,"Velocity":30,"Duration":120511,"SoundDuration":120511,"Delta":24334062},{"NoteNumber":61,"Velocity":30,"Duration":120511,"SoundDuration":120511,"Delta":24334062},{"NoteNumber":65,"Velocity":33,"Duration":120279,"SoundDuration":120279,"Delta":24454574},{"NoteNumber":63,"Velocity":33,"Duration":120279,"SoundDuration":120279,"Delta":24454574},{"NoteNumber":60,"Velocity":32,"Duration":120279,"SoundDuration":120279,"Delta":24574853},{"NoteNumber":65,"Velocity":32,"Duration":120279,"SoundDuration":120279,"Delta":24574853},{"NoteNumber":60,"Velocity":27,"Duration":120279,"SoundDuration":120279,"Delta":24695132},{"NoteNumber":53,"Velocity":27,"Duration":120279,"SoundDuration":120279,"Delta":24695132},{"NoteNumber":61,"Velocity":32,"Duration":120279,"SoundDuration":120279,"Delta":24815411},{"NoteNumber":65,"Velocity":32,"Duration":120279,"SoundDuration":120279,"Delta":24815411},{"NoteNumber":58,"Velocity":31,"Duration":120279,"SoundDuration":120279,"Delta":24935690},{"NoteNumber":63,"Velocity":31,"Duration":120279,"SoundDuration":120279,"Delta":24935690},{"NoteNumber":58,"Velocity":31,"Duration":120279,"SoundDuration":120279,"Delta":25055969},{"NoteNumber":51,"Velocity":31,"Duration":120279,"SoundDuration":120279,"Delta":25055969},{"NoteNumber":56,"Velocity":41,"Duration":120279,"SoundDuration":120279,"Delta":25176248},{"NoteNumber":63,"Velocity":33,"Duration":120279,"SoundDuration":120279,"Delta":25176248},{"NoteNumber":61,"Velocity":46,"Duration":120279,"SoundDuration":120279,"Delta":25296527},{"NoteNumber":63,"Velocity":37,"Duration":120279,"SoundDuration":120279,"Delta":25296527},{"NoteNumber":51,"Velocity":27,"Duration":119971,"SoundDuration":119971,"Delta":25416806},{"NoteNumber":61,"Velocity":27,"Duration":119971,"SoundDuration":119971,"Delta":25416806},{"NoteNumber":63,"Velocity":34,"Duration":120744,"SoundDuration":120744,"Delta":25536777},{"NoteNumber":60,"Velocity":34,"Duration":120744,"SoundDuration":120744,"Delta":25536777},{"NoteNumber":63,"Velocity":33,"Duration":121513,"SoundDuration":121513,"Delta":25657522},{"NoteNumber":58,"Velocity":33,"Duration":121513,"SoundDuration":121513,"Delta":25657522},{"NoteNumber":58,"Velocity":27,"Duration":123010,"SoundDuration":123010,"Delta":25779035},{"NoteNumber":51,"Velocity":27,"Duration":123010,"SoundDuration":123010,"Delta":25779035},{"NoteNumber":60,"Velocity":31,"Duration":125373,"SoundDuration":125373,"Delta":25902045},{"NoteNumber":63,"Velocity":31,"Duration":125373,"SoundDuration":125373,"Delta":25902045},{"NoteNumber":61,"Velocity":32,"Duration":126550,"SoundDuration":126550,"Delta":26027419},{"NoteNumber":63,"Velocity":32,"Duration":126550,"SoundDuration":126550,"Delta":26027419},{"NoteNumber":51,"Velocity":27,"Duration":126550,"SoundDuration":126550,"Delta":26153969},{"NoteNumber":61,"Velocity":27,"Duration":126550,"SoundDuration":126550,"Delta":26153969},{"NoteNumber":58,"Velocity":32,"Duration":138147,"SoundDuration":138147,"Delta":26280519},{"NoteNumber":63,"Velocity":32,"Duration":138147,"SoundDuration":138147,"Delta":26280519},{"NoteNumber":65,"Velocity":32,"Duration":124543,"SoundDuration":124543,"Delta":26418666},{"NoteNumber":60,"Velocity":32,"Duration":124543,"SoundDuration":124543,"Delta":26418666},{"NoteNumber":60,"Velocity":27,"Duration":124543,"SoundDuration":124543,"Delta":26543210},{"NoteNumber":53,"Velocity":27,"Duration":124543,"SoundDuration":124543,"Delta":26543210},{"NoteNumber":60,"Velocity":32,"Duration":124543,"SoundDuration":124543,"Delta":26667753},{"NoteNumber":65,"Velocity":32,"Duration":124543,"SoundDuration":124543,"Delta":26667753},{"NoteNumber":58,"Velocity":34,"Duration":124133,"SoundDuration":124133,"Delta":26792296},{"NoteNumber":65,"Velocity":34,"Duration":124133,"SoundDuration":124133,"Delta":26792296},{"NoteNumber":58,"Velocity":31,"Duration":123089,"SoundDuration":123089,"Delta":26916430},{"NoteNumber":53,"Velocity":31,"Duration":123089,"SoundDuration":123089,"Delta":26916430},{"NoteNumber":60,"Velocity":35,"Duration":121976,"SoundDuration":121976,"Delta":27039520},{"NoteNumber":65,"Velocity":35,"Duration":121976,"SoundDuration":121976,"Delta":27039520},{"NoteNumber":61,"Velocity":40,"Duration":120822,"SoundDuration":120822,"Delta":27161497},{"NoteNumber":65,"Velocity":40,"Duration":120822,"SoundDuration":120822,"Delta":27161497},{"NoteNumber":61,"Velocity":33,"Duration":119894,"SoundDuration":119894,"Delta":27282319},{"NoteNumber":53,"Velocity":33,"Duration":119894,"SoundDuration":119894,"Delta":27282319},{"NoteNumber":63,"Velocity":34,"Duration":119817,"SoundDuration":119817,"Delta":27402214},{"NoteNumber":65,"Velocity":34,"Duration":119817,"SoundDuration":119817,"Delta":27402214},{"NoteNumber":65,"Velocity":32,"Duration":119818,"SoundDuration":119818,"Delta":27522032},{"NoteNumber":60,"Velocity":32,"Duration":119818,"SoundDuration":119818,"Delta":27522032},{"NoteNumber":60,"Velocity":29,"Duration":119817,"SoundDuration":119817,"Delta":27641850},{"NoteNumber":53,"Velocity":29,"Duration":119817,"SoundDuration":119817,"Delta":27641850},{"NoteNumber":61,"Velocity":36,"Duration":119817,"SoundDuration":119817,"Delta":27761668},{"NoteNumber":65,"Velocity":36,"Duration":119817,"SoundDuration":119817,"Delta":27761668},{"NoteNumber":58,"Velocity":33,"Duration":119818,"SoundDuration":119818,"Delta":27881486},{"NoteNumber":63,"Velocity":33,"Duration":119818,"SoundDuration":119818,"Delta":27881486},{"NoteNumber":51,"Velocity":32,"Duration":119817,"SoundDuration":119817,"Delta":28001304},{"NoteNumber":58,"Velocity":32,"Duration":119817,"SoundDuration":119817,"Delta":28001304},{"NoteNumber":56,"Velocity":42,"Duration":119817,"SoundDuration":119817,"Delta":28121122},{"NoteNumber":63,"Velocity":33,"Duration":119817,"SoundDuration":119817,"Delta":28121122},{"NoteNumber":63,"Velocity":39,"Duration":119818,"SoundDuration":119818,"Delta":28240940},{"NoteNumber":61,"Velocity":49,"Duration":119818,"SoundDuration":119818,"Delta":28240940},{"NoteNumber":61,"Velocity":29,"Duration":119818,"SoundDuration":119818,"Delta":28360758},{"NoteNumber":51,"Velocity":29,"Duration":119818,"SoundDuration":119818,"Delta":28360758},{"NoteNumber":60,"Velocity":32,"Duration":119598,"SoundDuration":119598,"Delta":28480576},{"NoteNumber":63,"Velocity":32,"Duration":119598,"SoundDuration":119598,"Delta":28480576},{"NoteNumber":58,"Velocity":32,"Duration":120666,"SoundDuration":120666,"Delta":28600175},{"NoteNumber":63,"Velocity":32,"Duration":120666,"SoundDuration":120666,"Delta":28600175},{"NoteNumber":51,"Velocity":29,"Duration":121668,"SoundDuration":121668,"Delta":28720841},{"NoteNumber":58,"Velocity":29,"Duration":121668,"SoundDuration":121668,"Delta":28720841},{"NoteNumber":60,"Velocity":32,"Duration":122690,"SoundDuration":122690,"Delta":28842510},{"NoteNumber":63,"Velocity":32,"Duration":122690,"SoundDuration":122690,"Delta":28842510},{"NoteNumber":61,"Velocity":32,"Duration":123568,"SoundDuration":123568,"Delta":28965200},{"NoteNumber":63,"Velocity":32,"Duration":123568,"SoundDuration":123568,"Delta":28965200},{"NoteNumber":61,"Velocity":29,"Duration":123568,"SoundDuration":123568,"Delta":29088769},{"NoteNumber":51,"Velocity":29,"Duration":123568,"SoundDuration":123568,"Delta":29088769},{"NoteNumber":58,"Velocity":32,"Duration":143143,"SoundDuration":143143,"Delta":29212338},{"NoteNumber":63,"Velocity":32,"Duration":143143,"SoundDuration":143143,"Delta":29212338},{"NoteNumber":53,"Velocity":27,"Duration":125041,"SoundDuration":125041,"Delta":29355481},{"NoteNumber":60,"Velocity":32,"Duration":125041,"SoundDuration":125041,"Delta":29355481},{"NoteNumber":60,"Velocity":27,"Duration":125041,"SoundDuration":125041,"Delta":29480523},{"NoteNumber":72,"Velocity":32,"Duration":124958,"SoundDuration":124958,"Delta":29605565},{"NoteNumber":65,"Velocity":32,"Duration":124958,"SoundDuration":124958,"Delta":29605565},{"NoteNumber":53,"Velocity":29,"Duration":124296,"SoundDuration":124296,"Delta":29730523},{"NoteNumber":58,"Velocity":29,"Duration":124296,"SoundDuration":124296,"Delta":29730523},{"NoteNumber":58,"Velocity":31,"Duration":123330,"SoundDuration":123330,"Delta":29854820},{"NoteNumber":65,"Velocity":31,"Duration":245699,"SoundDuration":245699,"Delta":29854820},{"NoteNumber":70,"Velocity":31,"Duration":123330,"SoundDuration":123330,"Delta":29854820},{"NoteNumber":60,"Velocity":36,"Duration":122369,"SoundDuration":122369,"Delta":29978150},{"NoteNumber":72,"Velocity":36,"Duration":122369,"SoundDuration":122369,"Delta":29978150},{"NoteNumber":53,"Velocity":36,"Duration":121438,"SoundDuration":121438,"Delta":30100519},{"NoteNumber":61,"Velocity":36,"Duration":121438,"SoundDuration":121438,"Delta":30100519},{"NoteNumber":73,"Velocity":35,"Duration":120511,"SoundDuration":120511,"Delta":30221958},{"NoteNumber":65,"Velocity":35,"Duration":240790,"SoundDuration":240790,"Delta":30221958},{"NoteNumber":61,"Velocity":35,"Duration":120511,"SoundDuration":120511,"Delta":30221958},{"NoteNumber":75,"Velocity":32,"Duration":120279,"SoundDuration":120279,"Delta":30342469},{"NoteNumber":63,"Velocity":32,"Duration":120279,"SoundDuration":120279,"Delta":30342469},{"NoteNumber":60,"Velocity":27,"Duration":120279,"SoundDuration":120279,"Delta":30462748},{"NoteNumber":53,"Velocity":27,"Duration":120279,"SoundDuration":120279,"Delta":30462748},{"NoteNumber":60,"Velocity":32,"Duration":120279,"SoundDuration":120279,"Delta":30583027},{"NoteNumber":72,"Velocity":32,"Duration":120279,"SoundDuration":120279,"Delta":30583027},{"NoteNumber":65,"Velocity":32,"Duration":240558,"SoundDuration":240558,"Delta":30583027},{"NoteNumber":61,"Velocity":32,"Duration":120279,"SoundDuration":120279,"Delta":30703306},{"NoteNumber":73,"Velocity":32,"Duration":120279,"SoundDuration":120279,"Delta":30703306},{"NoteNumber":58,"Velocity":32,"Duration":120279,"SoundDuration":120279,"Delta":30823585},{"NoteNumber":51,"Velocity":32,"Duration":120279,"SoundDuration":120279,"Delta":30823585},{"NoteNumber":58,"Velocity":33,"Duration":120279,"SoundDuration":120279,"Delta":30943864},{"NoteNumber":63,"Velocity":33,"Duration":240558,"SoundDuration":240558,"Delta":30943864},{"NoteNumber":70,"Velocity":33,"Duration":120279,"SoundDuration":120279,"Delta":30943864},{"NoteNumber":56,"Velocity":43,"Duration":120279,"SoundDuration":120279,"Delta":31064143},{"NoteNumber":68,"Velocity":34,"Duration":120279,"SoundDuration":120279,"Delta":31064143},{"NoteNumber":51,"Velocity":48,"Duration":120279,"SoundDuration":120279,"Delta":31184422},{"NoteNumber":61,"Velocity":48,"Duration":120279,"SoundDuration":120279,"Delta":31184422},{"NoteNumber":61,"Velocity":37,"Duration":119971,"SoundDuration":119971,"Delta":31304701},{"NoteNumber":63,"Velocity":37,"Duration":240715,"SoundDuration":240715,"Delta":31304701},{"NoteNumber":73,"Velocity":29,"Duration":119971,"SoundDuration":119971,"Delta":31304701},{"NoteNumber":60,"Velocity":34,"Duration":120744,"SoundDuration":120744,"Delta":31424673},{"NoteNumber":72,"Velocity":34,"Duration":120744,"SoundDuration":120744,"Delta":31424673},{"NoteNumber":51,"Velocity":32,"Duration":121513,"SoundDuration":121513,"Delta":31545417},{"NoteNumber":58,"Velocity":32,"Duration":121513,"SoundDuration":121513,"Delta":31545417},{"NoteNumber":63,"Velocity":34,"Duration":248383,"SoundDuration":248383,"Delta":31666930},{"NoteNumber":70,"Velocity":34,"Duration":123010,"SoundDuration":123010,"Delta":31666930},{"NoteNumber":58,"Velocity":34,"Duration":123010,"SoundDuration":123010,"Delta":31666930},{"NoteNumber":60,"Velocity":32,"Duration":125373,"SoundDuration":125373,"Delta":31789941},{"NoteNumber":72,"Velocity":32,"Duration":125373,"SoundDuration":125373,"Delta":31789941},{"NoteNumber":51,"Velocity":31,"Duration":126550,"SoundDuration":126550,"Delta":31915314},{"NoteNumber":61,"Velocity":31,"Duration":126550,"SoundDuration":126550,"Delta":31915314},{"NoteNumber":61,"Velocity":32,"Duration":126550,"SoundDuration":126550,"Delta":32041865},{"NoteNumber":63,"Velocity":32,"Duration":264697,"SoundDuration":264697,"Delta":32041865},{"NoteNumber":73,"Velocity":32,"Duration":126550,"SoundDuration":126550,"Delta":32041865},{"NoteNumber":70,"Velocity":32,"Duration":138146,"SoundDuration":138146,"Delta":32168415},{"NoteNumber":58,"Velocity":32,"Duration":138146,"SoundDuration":138146,"Delta":32168415},{"NoteNumber":60,"Velocity":37,"Duration":125041,"SoundDuration":125041,"Delta":32306562},{"NoteNumber":53,"Velocity":34,"Duration":250083,"SoundDuration":250083,"Delta":32306562},{"NoteNumber":60,"Velocity":34,"Duration":125041,"SoundDuration":125041,"Delta":32431604},{"NoteNumber":72,"Velocity":37,"Duration":124958,"SoundDuration":124958,"Delta":32556645},{"NoteNumber":65,"Velocity":37,"Duration":124958,"SoundDuration":124958,"Delta":32556645},{"NoteNumber":53,"Velocity":27,"Duration":124958,"SoundDuration":124958,"Delta":32556645},{"NoteNumber":41,"Velocity":27,"Duration":124958,"SoundDuration":124958,"Delta":32556645},{"NoteNumber":58,"Velocity":35,"Duration":124296,"SoundDuration":124296,"Delta":32681604},{"NoteNumber":53,"Velocity":35,"Duration":247626,"SoundDuration":247626,"Delta":32681604},{"NoteNumber":70,"Velocity":37,"Duration":123330,"SoundDuration":123330,"Delta":32805900},{"NoteNumber":65,"Velocity":37,"Duration":245699,"SoundDuration":245699,"Delta":32805900},{"NoteNumber":58,"Velocity":37,"Duration":123330,"SoundDuration":123330,"Delta":32805900},{"NoteNumber":60,"Velocity":44,"Duration":122369,"SoundDuration":122369,"Delta":32929230},{"NoteNumber":72,"Velocity":44,"Duration":122369,"SoundDuration":122369,"Delta":32929230},{"NoteNumber":41,"Velocity":27,"Duration":122369,"SoundDuration":122369,"Delta":32929230},{"NoteNumber":53,"Velocity":27,"Duration":122369,"SoundDuration":122369,"Delta":32929230},{"NoteNumber":61,"Velocity":44,"Duration":121438,"SoundDuration":121438,"Delta":33051600},{"NoteNumber":53,"Velocity":44,"Duration":241949,"SoundDuration":241949,"Delta":33051600},{"NoteNumber":61,"Velocity":45,"Duration":120511,"SoundDuration":120511,"Delta":33173038},{"NoteNumber":65,"Velocity":45,"Duration":240790,"SoundDuration":240790,"Delta":33173038},{"NoteNumber":73,"Velocity":45,"Duration":120511,"SoundDuration":120511,"Delta":33173038},{"NoteNumber":75,"Velocity":43,"Duration":120279,"SoundDuration":120279,"Delta":33293549},{"NoteNumber":63,"Velocity":43,"Duration":120279,"SoundDuration":120279,"Delta":33293549},{"NoteNumber":41,"Velocity":35,"Duration":120279,"SoundDuration":120279,"Delta":33293549},{"NoteNumber":53,"Velocity":35,"Duration":120279,"SoundDuration":120279,"Delta":33293549},{"NoteNumber":53,"Velocity":40,"Duration":240558,"SoundDuration":240558,"Delta":33413828},{"NoteNumber":60,"Velocity":40,"Duration":120278,"SoundDuration":120278,"Delta":33413828},{"NoteNumber":60,"Velocity":45,"Duration":120279,"SoundDuration":120279,"Delta":33534107},{"NoteNumber":72,"Velocity":45,"Duration":120279,"SoundDuration":120279,"Delta":33534107},{"NoteNumber":65,"Velocity":45,"Duration":240558,"SoundDuration":240558,"Delta":33534107},{"NoteNumber":73,"Velocity":45,"Duration":120278,"SoundDuration":120278,"Delta":33654386},{"NoteNumber":61,"Velocity":45,"Duration":120278,"SoundDuration":120278,"Delta":33654386},{"NoteNumber":53,"Velocity":35,"Duration":120278,"SoundDuration":120278,"Delta":33654386},{"NoteNumber":41,"Velocity":35,"Duration":120278,"SoundDuration":120278,"Delta":33654386},{"NoteNumber":51,"Velocity":50,"Duration":240558,"SoundDuration":240558,"Delta":33774665},{"NoteNumber":58,"Velocity":50,"Duration":120279,"SoundDuration":120279,"Delta":33774665},{"NoteNumber":58,"Velocity":49,"Duration":120278,"SoundDuration":120278,"Delta":33894944},{"NoteNumber":70,"Velocity":49,"Duration":120278,"SoundDuration":120278,"Delta":33894944},{"NoteNumber":63,"Velocity":49,"Duration":240558,"SoundDuration":240558,"Delta":33894944},{"NoteNumber":68,"Velocity":52,"Duration":120279,"SoundDuration":120279,"Delta":34015223},{"NoteNumber":56,"Velocity":65,"Duration":120279,"SoundDuration":120279,"Delta":34015223},{"NoteNumber":51,"Velocity":29,"Duration":120279,"SoundDuration":120279,"Delta":34015223},{"NoteNumber":39,"Velocity":29,"Duration":120279,"SoundDuration":120279,"Delta":34015223},{"NoteNumber":61,"Velocity":56,"Duration":120278,"SoundDuration":120278,"Delta":34135502},{"NoteNumber":51,"Velocity":56,"Duration":240250,"SoundDuration":240250,"Delta":34135502},{"NoteNumber":73,"Velocity":42,"Duration":119971,"SoundDuration":119971,"Delta":34255781},{"NoteNumber":63,"Velocity":53,"Duration":240715,"SoundDuration":240715,"Delta":34255781},{"NoteNumber":61,"Velocity":53,"Duration":119971,"SoundDuration":119971,"Delta":34255781},{"NoteNumber":60,"Velocity":49,"Duration":120744,"SoundDuration":120744,"Delta":34375753},{"NoteNumber":72,"Velocity":49,"Duration":120744,"SoundDuration":120744,"Delta":34375753},{"NoteNumber":51,"Velocity":37,"Duration":120744,"SoundDuration":120744,"Delta":34375753},{"NoteNumber":39,"Velocity":37,"Duration":120744,"SoundDuration":120744,"Delta":34375753},{"NoteNumber":51,"Velocity":51,"Duration":244523,"SoundDuration":244523,"Delta":34496497},{"NoteNumber":58,"Velocity":51,"Duration":121513,"SoundDuration":121513,"Delta":34496497},{"NoteNumber":70,"Velocity":49,"Duration":123010,"SoundDuration":123010,"Delta":34618011},{"NoteNumber":58,"Velocity":49,"Duration":123010,"SoundDuration":123010,"Delta":34618011},{"NoteNumber":63,"Velocity":49,"Duration":248383,"SoundDuration":248383,"Delta":34618011},{"NoteNumber":60,"Velocity":50,"Duration":125373,"SoundDuration":125373,"Delta":34741021},{"NoteNumber":72,"Velocity":50,"Duration":125373,"SoundDuration":125373,"Delta":34741021},{"NoteNumber":39,"Velocity":42,"Duration":125373,"SoundDuration":125373,"Delta":34741021},{"NoteNumber":51,"Velocity":42,"Duration":125373,"SoundDuration":125373,"Delta":34741021},{"NoteNumber":61,"Velocity":50,"Duration":126550,"SoundDuration":126550,"Delta":34866395},{"NoteNumber":57,"Velocity":50,"Duration":400927,"SoundDuration":400927,"Delta":34866395},{"NoteNumber":51,"Velocity":50,"Duration":400927,"SoundDuration":400927,"Delta":34866395},{"NoteNumber":61,"Velocity":52,"Duration":126550,"SoundDuration":126550,"Delta":34992945},{"NoteNumber":73,"Velocity":52,"Duration":147826,"SoundDuration":147826,"Delta":35119495},{"NoteNumber":63,"Velocity":52,"Duration":147826,"SoundDuration":147826,"Delta":35119495},{"NoteNumber":66,"Velocity":52,"Duration":147826,"SoundDuration":147826,"Delta":35119495},{"NoteNumber":66,"Velocity":62,"Duration":95266,"SoundDuration":95266,"Delta":35267322},{"NoteNumber":70,"Velocity":70,"Duration":95266,"SoundDuration":95266,"Delta":35267322},{"NoteNumber":61,"Velocity":64,"Duration":95266,"SoundDuration":95266,"Delta":35267322},{"NoteNumber":66,"Velocity":55,"Duration":95266,"SoundDuration":95266,"Delta":35394344},{"NoteNumber":70,"Velocity":62,"Duration":95266,"SoundDuration":95266,"Delta":35394344},{"NoteNumber":54,"Velocity":61,"Duration":95266,"SoundDuration":95266,"Delta":35394344},{"NoteNumber":66,"Velocity":57,"Duration":97851,"SoundDuration":97851,"Delta":35521366},{"NoteNumber":70,"Velocity":63,"Duration":97851,"SoundDuration":97851,"Delta":35521366},{"NoteNumber":51,"Velocity":61,"Duration":97851,"SoundDuration":97851,"Delta":35521366},{"NoteNumber":70,"Velocity":80,"Duration":90663,"SoundDuration":90663,"Delta":35651365},{"NoteNumber":66,"Velocity":71,"Duration":90663,"SoundDuration":90663,"Delta":35651365},{"NoteNumber":44,"Velocity":72,"Duration":359389,"SoundDuration":359389,"Delta":35651365},{"NoteNumber":37,"Velocity":64,"Duration":359389,"SoundDuration":359389,"Delta":35651365},{"NoteNumber":65,"Velocity":64,"Duration":89957,"SoundDuration":89957,"Delta":35772125},{"NoteNumber":62,"Velocity":60,"Duration":89957,"SoundDuration":89957,"Delta":35772125},{"NoteNumber":70,"Velocity":70,"Duration":89223,"SoundDuration":89223,"Delta":35891922},{"NoteNumber":66,"Velocity":70,"Duration":89223,"SoundDuration":89223,"Delta":35891922},{"NoteNumber":63,"Velocity":53,"Duration":89223,"SoundDuration":89223,"Delta":35891922},{"NoteNumber":62,"Velocity":63,"Duration":88575,"SoundDuration":88575,"Delta":36010755},{"NoteNumber":59,"Velocity":62,"Duration":88575,"SoundDuration":88575,"Delta":36010755},{"NoteNumber":56,"Velocity":55,"Duration":88575,"SoundDuration":88575,"Delta":36010755},{"NoteNumber":63,"Velocity":57,"Duration":88575,"SoundDuration":88575,"Delta":36128856},{"NoteNumber":66,"Velocity":63,"Duration":88575,"SoundDuration":88575,"Delta":36128856},{"NoteNumber":58,"Velocity":56,"Duration":88575,"SoundDuration":88575,"Delta":36128856},{"NoteNumber":54,"Velocity":50,"Duration":88575,"SoundDuration":88575,"Delta":36128856},{"NoteNumber":65,"Velocity":64,"Duration":91806,"SoundDuration":91806,"Delta":36246957},{"NoteNumber":56,"Velocity":56,"Duration":91806,"SoundDuration":91806,"Delta":36246957},{"NoteNumber":53,"Velocity":50,"Duration":91806,"SoundDuration":91806,"Delta":36246957},{"NoteNumber":66,"Velocity":70,"Duration":360894,"SoundDuration":360894,"Delta":36369366},{"NoteNumber":70,"Velocity":70,"Duration":90223,"SoundDuration":90223,"Delta":36369366},{"NoteNumber":51,"Velocity":57,"Duration":240596,"SoundDuration":240596,"Delta":36369366},{"NoteNumber":54,"Velocity":64,"Duration":90223,"SoundDuration":90223,"Delta":36369366},{"NoteNumber":73,"Velocity":69,"Duration":90223,"SoundDuration":90223,"Delta":36489664},{"NoteNumber":58,"Velocity":61,"Duration":90223,"SoundDuration":90223,"Delta":36489664},{"NoteNumber":72,"Velocity":65,"Duration":90223,"SoundDuration":90223,"Delta":36609962},{"NoteNumber":56,"Velocity":61,"Duration":90223,"SoundDuration":90223,"Delta":36609962},{"NoteNumber":65,"Velocity":59,"Duration":91806,"SoundDuration":91806,"Delta":36730261},{"NoteNumber":68,"Velocity":65,"Duration":91806,"SoundDuration":91806,"Delta":36730261},{"NoteNumber":61,"Velocity":64,"Duration":91806,"SoundDuration":91806,"Delta":36730261},{"NoteNumber":65,"Velocity":57,"Duration":91806,"SoundDuration":91806,"Delta":36852670},{"NoteNumber":68,"Velocity":63,"Duration":91806,"SoundDuration":91806,"Delta":36852670},{"NoteNumber":56,"Velocity":61,"Duration":91806,"SoundDuration":91806,"Delta":36852670},{"NoteNumber":68,"Velocity":63,"Duration":96351,"SoundDuration":96351,"Delta":36975079},{"NoteNumber":65,"Velocity":63,"Duration":96351,"SoundDuration":96351,"Delta":36975079},{"NoteNumber":53,"Velocity":61,"Duration":96351,"SoundDuration":96351,"Delta":36975079},{"NoteNumber":68,"Velocity":73,"Duration":88276,"SoundDuration":88276,"Delta":37103547},{"NoteNumber":65,"Velocity":65,"Duration":88276,"SoundDuration":88276,"Delta":37103547},{"NoteNumber":37,"Velocity":69,"Duration":354888,"SoundDuration":354888,"Delta":37103547},{"NoteNumber":44,"Velocity":77,"Duration":354888,"SoundDuration":354888,"Delta":37103547},{"NoteNumber":61,"Velocity":67,"Duration":88666,"SoundDuration":88666,"Delta":37221343},{"NoteNumber":53,"Velocity":60,"Duration":88666,"SoundDuration":88666,"Delta":37221343},{"NoteNumber":66,"Velocity":65,"Duration":89062,"SoundDuration":89062,"Delta":37339640},{"NoteNumber":63,"Velocity":59,"Duration":89062,"SoundDuration":89062,"Delta":37339640},{"NoteNumber":56,"Velocity":53,"Duration":89062,"SoundDuration":89062,"Delta":37339640},{"NoteNumber":65,"Velocity":77,"Duration":90759,"SoundDuration":90759,"Delta":37458436},{"NoteNumber":61,"Velocity":62,"Duration":90759,"SoundDuration":90759,"Delta":37458436},{"NoteNumber":66,"Velocity":59,"Duration":92040,"SoundDuration":92040,"Delta":37579678},{"NoteNumber":70,"Velocity":70,"Duration":92040,"SoundDuration":92040,"Delta":37579678},{"NoteNumber":49,"Velocity":56,"Duration":92040,"SoundDuration":92040,"Delta":37579678},{"NoteNumber":65,"Velocity":71,"Duration":98296,"SoundDuration":98296,"Delta":37702649},{"NoteNumber":56,"Velocity":56,"Duration":98296,"SoundDuration":98296,"Delta":37702649},{"NoteNumber":61,"Velocity":89,"Duration":417144,"SoundDuration":417144,"Delta":37833710},{"NoteNumber":65,"Velocity":72,"Duration":417144,"SoundDuration":417144,"Delta":37833710},{"NoteNumber":78,"Velocity":43,"Duration":95266,"SoundDuration":95266,"Delta":38250854},{"NoteNumber":81,"Velocity":43,"Duration":95266,"SoundDuration":95266,"Delta":38250854},{"NoteNumber":73,"Velocity":40,"Duration":95266,"SoundDuration":95266,"Delta":38250854},{"NoteNumber":78,"Velocity":37,"Duration":95266,"SoundDuration":95266,"Delta":38377876},{"NoteNumber":81,"Velocity":37,"Duration":95266,"SoundDuration":95266,"Delta":38377876},{"NoteNumber":66,"Velocity":36,"Duration":95266,"SoundDuration":95266,"Delta":38377876},{"NoteNumber":78,"Velocity":39,"Duration":97851,"SoundDuration":97851,"Delta":38504898},{"NoteNumber":81,"Velocity":39,"Duration":97851,"SoundDuration":97851,"Delta":38504898},{"NoteNumber":63,"Velocity":36,"Duration":97851,"SoundDuration":97851,"Delta":38504898},{"NoteNumber":81,"Velocity":45,"Duration":90663,"SoundDuration":90663,"Delta":38634897},{"NoteNumber":78,"Velocity":45,"Duration":90663,"SoundDuration":90663,"Delta":38634897},{"NoteNumber":56,"Velocity":41,"Duration":359389,"SoundDuration":359389,"Delta":38634897},{"NoteNumber":49,"Velocity":36,"Duration":359389,"SoundDuration":359389,"Delta":38634897},{"NoteNumber":77,"Velocity":40,"Duration":89957,"SoundDuration":89957,"Delta":38755657},{"NoteNumber":74,"Velocity":36,"Duration":89957,"SoundDuration":89957,"Delta":38755657},{"NoteNumber":81,"Velocity":43,"Duration":89223,"SoundDuration":89223,"Delta":38875454},{"NoteNumber":78,"Velocity":43,"Duration":89223,"SoundDuration":89223,"Delta":38875454},{"NoteNumber":75,"Velocity":32,"Duration":89223,"SoundDuration":89223,"Delta":38875454},{"NoteNumber":74,"Velocity":39,"Duration":88575,"SoundDuration":88575,"Delta":38994287},{"NoteNumber":71,"Velocity":37,"Duration":88575,"SoundDuration":88575,"Delta":38994287},{"NoteNumber":68,"Velocity":37,"Duration":88575,"SoundDuration":88575,"Delta":38994287},{"NoteNumber":78,"Velocity":39,"Duration":88575,"SoundDuration":88575,"Delta":39112388},{"NoteNumber":75,"Velocity":39,"Duration":88575,"SoundDuration":88575,"Delta":39112388},{"NoteNumber":69,"Velocity":34,"Duration":88575,"SoundDuration":88575,"Delta":39112388},{"NoteNumber":66,"Velocity":34,"Duration":88575,"SoundDuration":88575,"Delta":39112388},{"NoteNumber":77,"Velocity":40,"Duration":91806,"SoundDuration":91806,"Delta":39230489},{"NoteNumber":68,"Velocity":34,"Duration":91806,"SoundDuration":91806,"Delta":39230489},{"NoteNumber":65,"Velocity":34,"Duration":91806,"SoundDuration":91806,"Delta":39230489},{"NoteNumber":81,"Velocity":43,"Duration":89555,"SoundDuration":89555,"Delta":39352898},{"NoteNumber":78,"Velocity":43,"Duration":358223,"SoundDuration":358223,"Delta":39352898},{"NoteNumber":63,"Velocity":40,"Duration":238815,"SoundDuration":238815,"Delta":39352898},{"NoteNumber":66,"Velocity":40,"Duration":89555,"SoundDuration":89555,"Delta":39352898},{"NoteNumber":85,"Velocity":42,"Duration":89555,"SoundDuration":89555,"Delta":39472306},{"NoteNumber":69,"Velocity":36,"Duration":89555,"SoundDuration":89555,"Delta":39472306},{"NoteNumber":84,"Velocity":40,"Duration":89555,"SoundDuration":89555,"Delta":39591714},{"NoteNumber":68,"Velocity":36,"Duration":89555,"SoundDuration":89555,"Delta":39591714},{"NoteNumber":76,"Velocity":40,"Duration":91806,"SoundDuration":91806,"Delta":39711121},{"NoteNumber":80,"Velocity":40,"Duration":91806,"SoundDuration":91806,"Delta":39711121},{"NoteNumber":73,"Velocity":40,"Duration":91806,"SoundDuration":91806,"Delta":39711121},{"NoteNumber":76,"Velocity":39,"Duration":91806,"SoundDuration":91806,"Delta":39833530},{"NoteNumber":80,"Velocity":39,"Duration":91806,"SoundDuration":91806,"Delta":39833530},{"NoteNumber":68,"Velocity":36,"Duration":91806,"SoundDuration":91806,"Delta":39833530},{"NoteNumber":76,"Velocity":39,"Duration":96351,"SoundDuration":96351,"Delta":39955939},{"NoteNumber":80,"Velocity":39,"Duration":96351,"SoundDuration":96351,"Delta":39955939},{"NoteNumber":64,"Velocity":36,"Duration":96351,"SoundDuration":96351,"Delta":39955939},{"NoteNumber":80,"Velocity":44,"Duration":88276,"SoundDuration":88276,"Delta":40084408},{"NoteNumber":76,"Velocity":44,"Duration":88276,"SoundDuration":88276,"Delta":40084408},{"NoteNumber":49,"Velocity":36,"Duration":723899,"SoundDuration":723899,"Delta":40084408},{"NoteNumber":56,"Velocity":41,"Duration":723899,"SoundDuration":723899,"Delta":40084408},{"NoteNumber":73,"Velocity":41,"Duration":88666,"SoundDuration":88666,"Delta":40202203},{"NoteNumber":64,"Velocity":36,"Duration":88666,"SoundDuration":88666,"Delta":40202203},{"NoteNumber":78,"Velocity":40,"Duration":89062,"SoundDuration":89062,"Delta":40320500},{"NoteNumber":75,"Velocity":40,"Duration":89062,"SoundDuration":89062,"Delta":40320500},{"NoteNumber":68,"Velocity":32,"Duration":89062,"SoundDuration":89062,"Delta":40320500},{"NoteNumber":76,"Velocity":46,"Duration":90759,"SoundDuration":90759,"Delta":40439297},{"NoteNumber":73,"Velocity":37,"Duration":90759,"SoundDuration":90759,"Delta":40439297},{"NoteNumber":81,"Velocity":43,"Duration":92040,"SoundDuration":92040,"Delta":40560539},{"NoteNumber":78,"Velocity":43,"Duration":92040,"SoundDuration":92040,"Delta":40560539},{"NoteNumber":61,"Velocity":34,"Duration":92040,"SoundDuration":92040,"Delta":40560539},{"NoteNumber":76,"Velocity":44,"Duration":93404,"SoundDuration":93404,"Delta":40683509},{"NoteNumber":68,"Velocity":34,"Duration":93404,"SoundDuration":93404,"Delta":40683509},{"NoteNumber":73,"Velocity":53,"Duration":422376,"SoundDuration":422376,"Delta":40808308},{"NoteNumber":76,"Velocity":46,"Duration":422376,"SoundDuration":422376,"Delta":40808308},{"NoteNumber":62,"Velocity":72,"Duration":90464,"SoundDuration":90464,"Delta":41230685},{"NoteNumber":56,"Velocity":54,"Duration":90464,"SoundDuration":90464,"Delta":41230685},{"NoteNumber":59,"Velocity":62,"Duration":90464,"SoundDuration":90464,"Delta":41230685},{"NoteNumber":63,"Velocity":69,"Duration":89949,"SoundDuration":89949,"Delta":41351212},{"NoteNumber":66,"Velocity":69,"Duration":89949,"SoundDuration":89949,"Delta":41351212},{"NoteNumber":54,"Velocity":50,"Duration":89949,"SoundDuration":89949,"Delta":41351212},{"NoteNumber":58,"Velocity":56,"Duration":89949,"SoundDuration":89949,"Delta":41351212},{"NoteNumber":65,"Velocity":69,"Duration":89416,"SoundDuration":89416,"Delta":41471060},{"NoteNumber":53,"Velocity":50,"Duration":89416,"SoundDuration":89416,"Delta":41471060},{"NoteNumber":56,"Velocity":56,"Duration":89416,"SoundDuration":89416,"Delta":41471060},{"NoteNumber":70,"Velocity":80,"Duration":88939,"SoundDuration":88939,"Delta":41590222},{"NoteNumber":66,"Velocity":80,"Duration":88939,"SoundDuration":88939,"Delta":41590222},{"NoteNumber":51,"Velocity":46,"Duration":363627,"SoundDuration":363627,"Delta":41590222},{"NoteNumber":54,"Velocity":53,"Duration":363627,"SoundDuration":363627,"Delta":41590222},{"NoteNumber":69,"Velocity":74,"Duration":88939,"SoundDuration":88939,"Delta":41708809},{"NoteNumber":73,"Velocity":75,"Duration":94840,"SoundDuration":94840,"Delta":41827395},{"NoteNumber":70,"Velocity":75,"Duration":94840,"SoundDuration":94840,"Delta":41827395},{"NoteNumber":49,"Velocity":53,"Duration":837973,"SoundDuration":837973,"Delta":41827395},{"NoteNumber":37,"Velocity":46,"Duration":837973,"SoundDuration":837973,"Delta":41827395},{"NoteNumber":71,"Velocity":84,"Duration":88939,"SoundDuration":88939,"Delta":41953850},{"NoteNumber":55,"Velocity":59,"Duration":88939,"SoundDuration":88939,"Delta":41953850},{"NoteNumber":75,"Velocity":74,"Duration":88939,"SoundDuration":88939,"Delta":42072436},{"NoteNumber":72,"Velocity":65,"Duration":88939,"SoundDuration":88939,"Delta":42072436},{"NoteNumber":56,"Velocity":57,"Duration":88939,"SoundDuration":88939,"Delta":42072436},{"NoteNumber":73,"Velocity":75,"Duration":88939,"SoundDuration":88939,"Delta":42191023},{"NoteNumber":70,"Velocity":66,"Duration":88939,"SoundDuration":88939,"Delta":42191023},{"NoteNumber":57,"Velocity":55,"Duration":88939,"SoundDuration":88939,"Delta":42191023},{"NoteNumber":72,"Velocity":74,"Duration":237173,"SoundDuration":237173,"Delta":42309609},{"NoteNumber":68,"Velocity":74,"Duration":88939,"SoundDuration":88939,"Delta":42309609},{"NoteNumber":58,"Velocity":54,"Duration":88939,"SoundDuration":88939,"Delta":42309609},{"NoteNumber":67,"Velocity":72,"Duration":88939,"SoundDuration":88939,"Delta":42428196},{"NoteNumber":59,"Velocity":53,"Duration":88939,"SoundDuration":88939,"Delta":42428196},{"NoteNumber":70,"Velocity":70,"Duration":239671,"SoundDuration":239671,"Delta":42546782},{"NoteNumber":66,"Velocity":70,"Duration":88939,"SoundDuration":88939,"Delta":42546782},{"NoteNumber":60,"Velocity":51,"Duration":88939,"SoundDuration":88939,"Delta":42546782},{"NoteNumber":64,"Velocity":74,"Duration":90813,"SoundDuration":90813,"Delta":42665369},{"NoteNumber":61,"Velocity":53,"Duration":363255,"SoundDuration":363255,"Delta":42665369},{"NoteNumber":65,"Velocity":71,"Duration":90813,"SoundDuration":90813,"Delta":42786454},{"NoteNumber":56,"Velocity":52,"Duration":90813,"SoundDuration":90813,"Delta":42786454},{"NoteNumber":67,"Velocity":70,"Duration":90813,"SoundDuration":90813,"Delta":42907539},{"NoteNumber":49,"Velocity":52,"Duration":90813,"SoundDuration":90813,"Delta":42907539},{"NoteNumber":73,"Velocity":81,"Duration":237172,"SoundDuration":237172,"Delta":43028624},{"NoteNumber":68,"Velocity":81,"Duration":88939,"SoundDuration":88939,"Delta":43028624},{"NoteNumber":63,"Velocity":61,"Duration":355759,"SoundDuration":355759,"Delta":43028624},{"NoteNumber":69,"Velocity":66,"Duration":237172,"SoundDuration":237172,"Delta":43147210},{"NoteNumber":54,"Velocity":52,"Duration":88939,"SoundDuration":88939,"Delta":43147210},{"NoteNumber":72,"Velocity":72,"Duration":88939,"SoundDuration":88939,"Delta":43265797},{"NoteNumber":49,"Velocity":53,"Duration":88939,"SoundDuration":88939,"Delta":43265797},{"NoteNumber":70,"Velocity":69,"Duration":92122,"SoundDuration":92122,"Delta":43384383},{"NoteNumber":65,"Velocity":50,"Duration":373517,"SoundDuration":373517,"Delta":43384383},{"NoteNumber":68,"Velocity":65,"Duration":92122,"SoundDuration":92122,"Delta":43507213},{"NoteNumber":53,"Velocity":45,"Duration":92122,"SoundDuration":92122,"Delta":43507213},{"NoteNumber":70,"Velocity":63,"Duration":95871,"SoundDuration":95871,"Delta":43630043},{"NoteNumber":49,"Velocity":40,"Duration":543331,"SoundDuration":543331,"Delta":43630043},{"NoteNumber":62,"Velocity":62,"Duration":415473,"SoundDuration":415473,"Delta":43757901},{"NoteNumber":65,"Velocity":70,"Duration":415473,"SoundDuration":415473,"Delta":43757901},{"NoteNumber":56,"Velocity":42,"Duration":415473,"SoundDuration":415473,"Delta":43757901},{"NoteNumber":59,"Velocity":46,"Duration":415473,"SoundDuration":415473,"Delta":43757901},{"NoteNumber":74,"Velocity":44,"Duration":90464,"SoundDuration":90464,"Delta":44173374},{"NoteNumber":68,"Velocity":33,"Duration":90464,"SoundDuration":90464,"Delta":44173374},{"NoteNumber":71,"Velocity":37,"Duration":90464,"SoundDuration":90464,"Delta":44173374},{"NoteNumber":78,"Velocity":43,"Duration":89949,"SoundDuration":89949,"Delta":44293902},{"NoteNumber":75,"Velocity":43,"Duration":89949,"SoundDuration":89949,"Delta":44293902},{"NoteNumber":69,"Velocity":35,"Duration":89949,"SoundDuration":89949,"Delta":44293902},{"NoteNumber":66,"Velocity":31,"Duration":89949,"SoundDuration":89949,"Delta":44293902},{"NoteNumber":77,"Velocity":43,"Duration":89416,"SoundDuration":89416,"Delta":44413750},{"NoteNumber":65,"Velocity":31,"Duration":89416,"SoundDuration":89416,"Delta":44413750},{"NoteNumber":68,"Velocity":35,"Duration":89416,"SoundDuration":89416,"Delta":44413750},{"NoteNumber":82,"Velocity":49,"Duration":88939,"SoundDuration":88939,"Delta":44532912},{"NoteNumber":78,"Velocity":49,"Duration":88939,"SoundDuration":88939,"Delta":44532912},{"NoteNumber":63,"Velocity":27,"Duration":363627,"SoundDuration":363627,"Delta":44532912},{"NoteNumber":66,"Velocity":32,"Duration":363627,"SoundDuration":363627,"Delta":44532912},{"NoteNumber":81,"Velocity":45,"Duration":88939,"SoundDuration":88939,"Delta":44651499},{"NoteNumber":85,"Velocity":45,"Duration":94840,"SoundDuration":94840,"Delta":44770085},{"NoteNumber":82,"Velocity":45,"Duration":94840,"SoundDuration":94840,"Delta":44770085},{"NoteNumber":61,"Velocity":32,"Duration":837973,"SoundDuration":837973,"Delta":44770085},{"NoteNumber":49,"Velocity":27,"Duration":837973,"SoundDuration":837973,"Delta":44770085},{"NoteNumber":83,"Velocity":52,"Duration":88939,"SoundDuration":88939,"Delta":44896540},{"NoteNumber":67,"Velocity":36,"Duration":88939,"SoundDuration":88939,"Delta":44896540},{"NoteNumber":87,"Velocity":45,"Duration":88939,"SoundDuration":88939,"Delta":45015126},{"NoteNumber":84,"Velocity":45,"Duration":88939,"SoundDuration":88939,"Delta":45015126},{"NoteNumber":68,"Velocity":35,"Duration":88939,"SoundDuration":88939,"Delta":45015126},{"NoteNumber":85,"Velocity":45,"Duration":88939,"SoundDuration":88939,"Delta":45133713},{"NoteNumber":81,"Velocity":45,"Duration":88939,"SoundDuration":88939,"Delta":45133713},{"NoteNumber":69,"Velocity":34,"Duration":88939,"SoundDuration":88939,"Delta":45133713},{"NoteNumber":84,"Velocity":45,"Duration":237173,"SoundDuration":237173,"Delta":45252299},{"NoteNumber":80,"Velocity":45,"Duration":88939,"SoundDuration":88939,"Delta":45252299},{"NoteNumber":70,"Velocity":33,"Duration":88939,"SoundDuration":88939,"Delta":45252299},{"NoteNumber":79,"Velocity":44,"Duration":88939,"SoundDuration":88939,"Delta":45370886},{"NoteNumber":71,"Velocity":32,"Duration":88939,"SoundDuration":88939,"Delta":45370886},{"NoteNumber":78,"Velocity":44,"Duration":88939,"SoundDuration":88939,"Delta":45489472},{"NoteNumber":81,"Velocity":44,"Duration":239671,"SoundDuration":239671,"Delta":45489472},{"NoteNumber":72,"Velocity":31,"Duration":88939,"SoundDuration":88939,"Delta":45489472},{"NoteNumber":75,"Velocity":45,"Duration":90813,"SoundDuration":90813,"Delta":45608059},{"NoteNumber":73,"Velocity":32,"Duration":363255,"SoundDuration":363255,"Delta":45608059},{"NoteNumber":76,"Velocity":44,"Duration":90813,"SoundDuration":90813,"Delta":45729144},{"NoteNumber":68,"Velocity":32,"Duration":90813,"SoundDuration":90813,"Delta":45729144},{"NoteNumber":78,"Velocity":44,"Duration":90813,"SoundDuration":90813,"Delta":45850229},{"NoteNumber":61,"Velocity":32,"Duration":90813,"SoundDuration":90813,"Delta":45850229},{"NoteNumber":76,"Velocity":50,"Duration":366360,"SoundDuration":366360,"Delta":45971314},{"NoteNumber":85,"Velocity":50,"Duration":244239,"SoundDuration":244239,"Delta":45971314},{"NoteNumber":79,"Velocity":50,"Duration":91589,"SoundDuration":91589,"Delta":45971314},{"NoteNumber":74,"Velocity":41,"Duration":366360,"SoundDuration":366360,"Delta":45971314},{"NoteNumber":80,"Velocity":41,"Duration":244239,"SoundDuration":244239,"Delta":46093434},{"NoteNumber":68,"Velocity":32,"Duration":91589,"SoundDuration":91589,"Delta":46093434},{"NoteNumber":83,"Velocity":44,"Duration":91590,"SoundDuration":91590,"Delta":46215554},{"NoteNumber":64,"Velocity":32,"Duration":91590,"SoundDuration":91590,"Delta":46215554},{"NoteNumber":81,"Velocity":46,"Duration":95201,"SoundDuration":95201,"Delta":46337674},{"NoteNumber":76,"Velocity":46,"Duration":388642,"SoundDuration":388642,"Delta":46337674},{"NoteNumber":73,"Velocity":30,"Duration":388642,"SoundDuration":388642,"Delta":46337674},{"NoteNumber":80,"Velocity":41,"Duration":95201,"SoundDuration":95201,"Delta":46464609},{"NoteNumber":64,"Velocity":27,"Duration":95201,"SoundDuration":95201,"Delta":46464609},{"NoteNumber":81,"Velocity":39,"Duration":101045,"SoundDuration":101045,"Delta":46591545},{"NoteNumber":57,"Velocity":24,"Duration":574439,"SoundDuration":574439,"Delta":46591545},{"NoteNumber":69,"Velocity":42,"Duration":439667,"SoundDuration":439667,"Delta":46726316},{"NoteNumber":76,"Velocity":46,"Duration":439667,"SoundDuration":439667,"Delta":46726316},{"NoteNumber":64,"Velocity":32,"Duration":439667,"SoundDuration":439667,"Delta":46726316},{"NoteNumber":73,"Velocity":36,"Duration":439667,"SoundDuration":439667,"Delta":46726316},{"NoteNumber":45,"Velocity":65,"Duration":95266,"SoundDuration":95266,"Delta":47165984},{"NoteNumber":50,"Velocity":74,"Duration":95266,"SoundDuration":95266,"Delta":47165984},{"NoteNumber":54,"Velocity":74,"Duration":95266,"SoundDuration":95266,"Delta":47165984},{"NoteNumber":42,"Velocity":65,"Duration":95266,"SoundDuration":95266,"Delta":47165984},{"NoteNumber":57,"Velocity":59,"Duration":95266,"SoundDuration":95266,"Delta":47293006},{"NoteNumber":62,"Velocity":65,"Duration":95266,"SoundDuration":95266,"Delta":47293006},{"NoteNumber":69,"Velocity":61,"Duration":97851,"SoundDuration":97851,"Delta":47420028},{"NoteNumber":66,"Velocity":53,"Duration":97851,"SoundDuration":97851,"Delta":47420028},{"NoteNumber":78,"Velocity":90,"Duration":90663,"SoundDuration":90663,"Delta":47550027},{"NoteNumber":74,"Velocity":81,"Duration":90663,"SoundDuration":90663,"Delta":47550027},{"NoteNumber":65,"Velocity":54,"Duration":89957,"SoundDuration":89957,"Delta":47670787},{"NoteNumber":61,"Velocity":49,"Duration":89957,"SoundDuration":89957,"Delta":47670787},{"NoteNumber":62,"Velocity":44,"Duration":89223,"SoundDuration":89223,"Delta":47790584},{"NoteNumber":66,"Velocity":50,"Duration":89223,"SoundDuration":89223,"Delta":47790584},{"NoteNumber":61,"Velocity":65,"Duration":88575,"SoundDuration":88575,"Delta":47909417},{"NoteNumber":58,"Velocity":59,"Duration":88575,"SoundDuration":88575,"Delta":47909417},{"NoteNumber":59,"Velocity":51,"Duration":88575,"SoundDuration":88575,"Delta":48027518},{"NoteNumber":62,"Velocity":57,"Duration":88575,"SoundDuration":88575,"Delta":48027518},{"NoteNumber":61,"Velocity":49,"Duration":91806,"SoundDuration":91806,"Delta":48145619},{"NoteNumber":65,"Velocity":55,"Duration":91806,"SoundDuration":91806,"Delta":48145619},{"NoteNumber":62,"Velocity":62,"Duration":238815,"SoundDuration":238815,"Delta":48268028},{"NoteNumber":66,"Velocity":69,"Duration":89555,"SoundDuration":89555,"Delta":48268028},{"NoteNumber":69,"Velocity":65,"Duration":89555,"SoundDuration":89555,"Delta":48387436},{"NoteNumber":64,"Velocity":54,"Duration":89555,"SoundDuration":89555,"Delta":48506843},{"NoteNumber":68,"Velocity":62,"Duration":89555,"SoundDuration":89555,"Delta":48506843},{"NoteNumber":44,"Velocity":56,"Duration":94087,"SoundDuration":94087,"Delta":48626251},{"NoteNumber":56,"Velocity":63,"Duration":94087,"SoundDuration":94087,"Delta":48626251},{"NoteNumber":51,"Velocity":63,"Duration":94087,"SoundDuration":94087,"Delta":48626251},{"NoteNumber":63,"Velocity":62,"Duration":94087,"SoundDuration":94087,"Delta":48751701},{"NoteNumber":60,"Velocity":54,"Duration":94087,"SoundDuration":94087,"Delta":48751701},{"NoteNumber":72,"Velocity":55,"Duration":96351,"SoundDuration":96351,"Delta":48877150},{"NoteNumber":66,"Velocity":49,"Duration":96351,"SoundDuration":96351,"Delta":48877150},{"NoteNumber":75,"Velocity":81,"Duration":88276,"SoundDuration":88276,"Delta":49005619},{"NoteNumber":78,"Velocity":90,"Duration":88276,"SoundDuration":88276,"Delta":49005619},{"NoteNumber":60,"Velocity":52,"Duration":88666,"SoundDuration":88666,"Delta":49123414},{"NoteNumber":63,"Velocity":59,"Duration":88666,"SoundDuration":88666,"Delta":49123414},{"NoteNumber":61,"Velocity":46,"Duration":89062,"SoundDuration":89062,"Delta":49241711},{"NoteNumber":64,"Velocity":53,"Duration":89062,"SoundDuration":89062,"Delta":49241711},{"NoteNumber":66,"Velocity":62,"Duration":90759,"SoundDuration":90759,"Delta":49360508},{"NoteNumber":63,"Velocity":54,"Duration":90759,"SoundDuration":90759,"Delta":49360508},{"NoteNumber":64,"Velocity":46,"Duration":92040,"SoundDuration":92040,"Delta":49481750},{"NoteNumber":68,"Velocity":53,"Duration":92040,"SoundDuration":92040,"Delta":49481750},{"NoteNumber":63,"Velocity":44,"Duration":93404,"SoundDuration":93404,"Delta":49604720},{"NoteNumber":66,"Velocity":50,"Duration":93404,"SoundDuration":93404,"Delta":49604720},{"NoteNumber":60,"Velocity":62,"Duration":417439,"SoundDuration":417439,"Delta":49729519},{"NoteNumber":63,"Velocity":69,"Duration":417439,"SoundDuration":417439,"Delta":49729519},{"NoteNumber":54,"Velocity":44,"Duration":95266,"SoundDuration":95266,"Delta":50146958},{"NoteNumber":62,"Velocity":50,"Duration":95266,"SoundDuration":95266,"Delta":50146958},{"NoteNumber":66,"Velocity":50,"Duration":95266,"SoundDuration":95266,"Delta":50146958},{"NoteNumber":57,"Velocity":44,"Duration":95266,"SoundDuration":95266,"Delta":50146958},{"NoteNumber":69,"Velocity":36,"Duration":95266,"SoundDuration":95266,"Delta":50273980},{"NoteNumber":74,"Velocity":41,"Duration":95266,"SoundDuration":95266,"Delta":50273980},{"NoteNumber":81,"Velocity":36,"Duration":97851,"SoundDuration":97851,"Delta":50401002},{"NoteNumber":78,"Velocity":36,"Duration":97851,"SoundDuration":97851,"Delta":50401002},{"NoteNumber":86,"Velocity":44,"Duration":90663,"SoundDuration":90663,"Delta":50531001},{"NoteNumber":90,"Velocity":50,"Duration":90663,"SoundDuration":90663,"Delta":50531001},{"NoteNumber":77,"Velocity":33,"Duration":89957,"SoundDuration":89957,"Delta":50651761},{"NoteNumber":73,"Velocity":29,"Duration":89957,"SoundDuration":89957,"Delta":50651761},{"NoteNumber":74,"Velocity":26,"Duration":89223,"SoundDuration":89223,"Delta":50771558},{"NoteNumber":78,"Velocity":30,"Duration":89223,"SoundDuration":89223,"Delta":50771558},{"NoteNumber":70,"Velocity":36,"Duration":88575,"SoundDuration":88575,"Delta":50890391},{"NoteNumber":73,"Velocity":41,"Duration":88575,"SoundDuration":88575,"Delta":50890391},{"NoteNumber":74,"Velocity":35,"Duration":88575,"SoundDuration":88575,"Delta":51008492},{"NoteNumber":71,"Velocity":31,"Duration":88575,"SoundDuration":88575,"Delta":51008492},{"NoteNumber":73,"Velocity":30,"Duration":91806,"SoundDuration":91806,"Delta":51126593},{"NoteNumber":77,"Velocity":34,"Duration":91806,"SoundDuration":91806,"Delta":51126593},{"NoteNumber":74,"Velocity":43,"Duration":238815,"SoundDuration":238815,"Delta":51249002},{"NoteNumber":78,"Velocity":43,"Duration":89555,"SoundDuration":89555,"Delta":51249002},{"NoteNumber":81,"Velocity":41,"Duration":89555,"SoundDuration":89555,"Delta":51368410},{"NoteNumber":76,"Velocity":37,"Duration":89555,"SoundDuration":89555,"Delta":51487817},{"NoteNumber":80,"Velocity":37,"Duration":89555,"SoundDuration":89555,"Delta":51487817},{"NoteNumber":63,"Velocity":34,"Duration":94087,"SoundDuration":94087,"Delta":51607225},{"NoteNumber":68,"Velocity":39,"Duration":94087,"SoundDuration":94087,"Delta":51607225},{"NoteNumber":56,"Velocity":34,"Duration":94087,"SoundDuration":94087,"Delta":51607225},{"NoteNumber":72,"Velocity":33,"Duration":94087,"SoundDuration":94087,"Delta":51732675},{"NoteNumber":75,"Velocity":37,"Duration":94087,"SoundDuration":94087,"Delta":51732675},{"NoteNumber":84,"Velocity":34,"Duration":96351,"SoundDuration":96351,"Delta":51858124},{"NoteNumber":78,"Velocity":30,"Duration":96351,"SoundDuration":96351,"Delta":51858124},{"NoteNumber":90,"Velocity":55,"Duration":88276,"SoundDuration":88276,"Delta":51986593},{"NoteNumber":87,"Velocity":49,"Duration":88276,"SoundDuration":88276,"Delta":51986593},{"NoteNumber":75,"Velocity":36,"Duration":88666,"SoundDuration":88666,"Delta":52104388},{"NoteNumber":72,"Velocity":32,"Duration":88666,"SoundDuration":88666,"Delta":52104388},{"NoteNumber":73,"Velocity":27,"Duration":89062,"SoundDuration":89062,"Delta":52222685},{"NoteNumber":76,"Velocity":32,"Duration":89062,"SoundDuration":89062,"Delta":52222685},{"NoteNumber":78,"Velocity":37,"Duration":90759,"SoundDuration":90759,"Delta":52341482},{"NoteNumber":75,"Velocity":33,"Duration":90759,"SoundDuration":90759,"Delta":52341482},{"NoteNumber":76,"Velocity":27,"Duration":92040,"SoundDuration":92040,"Delta":52462724},{"NoteNumber":80,"Velocity":32,"Duration":92040,"SoundDuration":92040,"Delta":52462724},{"NoteNumber":75,"Velocity":26,"Duration":93404,"SoundDuration":93404,"Delta":52585694},{"NoteNumber":78,"Velocity":30,"Duration":93404,"SoundDuration":93404,"Delta":52585694},{"NoteNumber":75,"Velocity":42,"Duration":364714,"SoundDuration":364714,"Delta":52710493},{"NoteNumber":72,"Velocity":36,"Duration":364714,"SoundDuration":364714,"Delta":52710493},{"NoteNumber":42,"Velocity":65,"Duration":163407,"SoundDuration":163407,"Delta":53075208},{"NoteNumber":50,"Velocity":65,"Duration":126936,"SoundDuration":126936,"Delta":53111679},{"NoteNumber":57,"Velocity":74,"Duration":90464,"SoundDuration":90464,"Delta":53148151},{"NoteNumber":62,"Velocity":72,"Duration":93441,"SoundDuration":93441,"Delta":53268678},{"NoteNumber":57,"Velocity":64,"Duration":93441,"SoundDuration":93441,"Delta":53268678},{"NoteNumber":64,"Velocity":67,"Duration":89419,"SoundDuration":89419,"Delta":53393648},{"NoteNumber":61,"Velocity":61,"Duration":89419,"SoundDuration":89419,"Delta":53393648},{"NoteNumber":50,"Velocity":64,"Duration":148430,"SoundDuration":148430,"Delta":53453321},{"NoteNumber":57,"Velocity":64,"Duration":118685,"SoundDuration":118685,"Delta":53483067},{"NoteNumber":62,"Velocity":72,"Duration":88939,"SoundDuration":88939,"Delta":53512812},{"NoteNumber":66,"Velocity":59,"Duration":88939,"SoundDuration":88939,"Delta":53631399},{"NoteNumber":62,"Velocity":52,"Duration":88939,"SoundDuration":88939,"Delta":53631399},{"NoteNumber":64,"Velocity":49,"Duration":88939,"SoundDuration":88939,"Delta":53749985},{"NoteNumber":68,"Velocity":54,"Duration":88939,"SoundDuration":88939,"Delta":53749985},{"NoteNumber":62,"Velocity":59,"Duration":88939,"SoundDuration":88939,"Delta":53868572},{"NoteNumber":66,"Velocity":65,"Duration":88939,"SoundDuration":88939,"Delta":53868572},{"NoteNumber":66,"Velocity":50,"Duration":88939,"SoundDuration":88939,"Delta":53987158},{"NoteNumber":69,"Velocity":56,"Duration":88939,"SoundDuration":88939,"Delta":53987158},{"NoteNumber":64,"Velocity":49,"Duration":88939,"SoundDuration":88939,"Delta":54105745},{"NoteNumber":68,"Velocity":54,"Duration":88939,"SoundDuration":88939,"Delta":54105745},{"NoteNumber":57,"Velocity":49,"Duration":88939,"SoundDuration":88939,"Delta":54224331},{"NoteNumber":62,"Velocity":55,"Duration":88939,"SoundDuration":88939,"Delta":54224331},{"NoteNumber":62,"Velocity":59,"Duration":88939,"SoundDuration":88939,"Delta":54342918},{"NoteNumber":66,"Velocity":65,"Duration":88939,"SoundDuration":88939,"Delta":54342918},{"NoteNumber":61,"Velocity":54,"Duration":92327,"SoundDuration":92327,"Delta":54461504},{"NoteNumber":64,"Velocity":62,"Duration":92327,"SoundDuration":92327,"Delta":54461504},{"NoteNumber":44,"Velocity":56,"Duration":156881,"SoundDuration":156881,"Delta":54520797},{"NoteNumber":51,"Velocity":56,"Duration":123847,"SoundDuration":123847,"Delta":54553831},{"NoteNumber":60,"Velocity":63,"Duration":90813,"SoundDuration":90813,"Delta":54586865},{"NoteNumber":60,"Velocity":57,"Duration":93988,"SoundDuration":93988,"Delta":54707950},{"NoteNumber":68,"Velocity":63,"Duration":93988,"SoundDuration":93988,"Delta":54707950},{"NoteNumber":70,"Velocity":61,"Duration":90565,"SoundDuration":90565,"Delta":54835385},{"NoteNumber":63,"Velocity":53,"Duration":90565,"SoundDuration":90565,"Delta":54835385},{"NoteNumber":56,"Velocity":54,"Duration":151966,"SoundDuration":151966,"Delta":54895762},{"NoteNumber":63,"Velocity":54,"Duration":121778,"SoundDuration":121778,"Delta":54925950},{"NoteNumber":68,"Velocity":62,"Duration":91589,"SoundDuration":91589,"Delta":54956139},{"NoteNumber":72,"Velocity":61,"Duration":91589,"SoundDuration":91589,"Delta":55078259},{"NoteNumber":68,"Velocity":53,"Duration":91589,"SoundDuration":91589,"Delta":55078259},{"NoteNumber":70,"Velocity":49,"Duration":91590,"SoundDuration":91590,"Delta":55200379},{"NoteNumber":73,"Velocity":55,"Duration":91590,"SoundDuration":91590,"Delta":55200379},{"NoteNumber":68,"Velocity":62,"Duration":93480,"SoundDuration":93480,"Delta":55322499},{"NoteNumber":72,"Velocity":69,"Duration":93480,"SoundDuration":93480,"Delta":55322499},{"NoteNumber":72,"Velocity":64,"Duration":94416,"SoundDuration":94416,"Delta":55447300},{"NoteNumber":75,"Velocity":72,"Duration":94416,"SoundDuration":94416,"Delta":55447300},{"NoteNumber":73,"Velocity":59,"Duration":95451,"SoundDuration":95451,"Delta":55573325},{"NoteNumber":76,"Velocity":65,"Duration":95451,"SoundDuration":95451,"Delta":55573325},{"NoteNumber":78,"Velocity":72,"Duration":364714,"SoundDuration":364714,"Delta":55700762},{"NoteNumber":75,"Velocity":64,"Duration":364714,"SoundDuration":364714,"Delta":55700762},{"NoteNumber":54,"Velocity":49,"Duration":163407,"SoundDuration":163407,"Delta":56065477},{"NoteNumber":62,"Velocity":49,"Duration":126936,"SoundDuration":126936,"Delta":56101948},{"NoteNumber":69,"Velocity":62,"Duration":90464,"SoundDuration":90464,"Delta":56138420},{"NoteNumber":74,"Velocity":59,"Duration":93441,"SoundDuration":93441,"Delta":56258947},{"NoteNumber":69,"Velocity":52,"Duration":93441,"SoundDuration":93441,"Delta":56258947},{"NoteNumber":76,"Velocity":54,"Duration":89419,"SoundDuration":89419,"Delta":56383917},{"NoteNumber":73,"Velocity":49,"Duration":89419,"SoundDuration":89419,"Delta":56383917},{"NoteNumber":62,"Velocity":46,"Duration":148430,"SoundDuration":148430,"Delta":56443591},{"NoteNumber":69,"Velocity":46,"Duration":118685,"SoundDuration":118685,"Delta":56473336},{"NoteNumber":74,"Velocity":59,"Duration":88939,"SoundDuration":88939,"Delta":56503082},{"NoteNumber":78,"Velocity":46,"Duration":88939,"SoundDuration":88939,"Delta":56621668},{"NoteNumber":74,"Velocity":42,"Duration":88939,"SoundDuration":88939,"Delta":56621668},{"NoteNumber":76,"Velocity":40,"Duration":88939,"SoundDuration":88939,"Delta":56740255},{"NoteNumber":80,"Velocity":44,"Duration":88939,"SoundDuration":88939,"Delta":56740255},{"NoteNumber":74,"Velocity":47,"Duration":88939,"SoundDuration":88939,"Delta":56858841},{"NoteNumber":78,"Velocity":53,"Duration":88939,"SoundDuration":88939,"Delta":56858841},{"NoteNumber":78,"Velocity":41,"Duration":88939,"SoundDuration":88939,"Delta":56977428},{"NoteNumber":81,"Velocity":45,"Duration":88939,"SoundDuration":88939,"Delta":56977428},{"NoteNumber":76,"Velocity":40,"Duration":88939,"SoundDuration":88939,"Delta":57096014},{"NoteNumber":80,"Velocity":44,"Duration":88939,"SoundDuration":88939,"Delta":57096014},{"NoteNumber":74,"Velocity":44,"Duration":88939,"SoundDuration":88939,"Delta":57214601},{"NoteNumber":69,"Velocity":40,"Duration":88939,"SoundDuration":88939,"Delta":57214601},{"NoteNumber":78,"Velocity":53,"Duration":88939,"SoundDuration":88939,"Delta":57333187},{"NoteNumber":74,"Velocity":47,"Duration":88939,"SoundDuration":88939,"Delta":57333187},{"NoteNumber":73,"Velocity":44,"Duration":92327,"SoundDuration":92327,"Delta":57451774},{"NoteNumber":76,"Velocity":50,"Duration":92327,"SoundDuration":92327,"Delta":57451774},{"NoteNumber":56,"Velocity":41,"Duration":156881,"SoundDuration":156881,"Delta":57511067},{"NoteNumber":63,"Velocity":42,"Duration":123847,"SoundDuration":123847,"Delta":57544101},{"NoteNumber":72,"Velocity":52,"Duration":90813,"SoundDuration":90813,"Delta":57577135},{"NoteNumber":72,"Velocity":46,"Duration":93988,"SoundDuration":93988,"Delta":57698220},{"NoteNumber":80,"Velocity":53,"Duration":93988,"SoundDuration":93988,"Delta":57698220},{"NoteNumber":82,"Velocity":47,"Duration":90565,"SoundDuration":90565,"Delta":57825655},{"NoteNumber":75,"Velocity":43,"Duration":90565,"SoundDuration":90565,"Delta":57825655},{"NoteNumber":68,"Velocity":41,"Duration":151966,"SoundDuration":151966,"Delta":57886031},{"NoteNumber":75,"Velocity":41,"Duration":121778,"SoundDuration":121778,"Delta":57916220},{"NoteNumber":80,"Velocity":50,"Duration":91589,"SoundDuration":91589,"Delta":57946408},{"NoteNumber":84,"Velocity":47,"Duration":91589,"SoundDuration":91589,"Delta":58068528},{"NoteNumber":80,"Velocity":43,"Duration":91589,"SoundDuration":91589,"Delta":58068528},{"NoteNumber":85,"Velocity":44,"Duration":91590,"SoundDuration":91590,"Delta":58190648},{"NoteNumber":82,"Velocity":40,"Duration":91590,"SoundDuration":91590,"Delta":58190648},{"NoteNumber":84,"Velocity":55,"Duration":93480,"SoundDuration":93480,"Delta":58312768},{"NoteNumber":80,"Velocity":49,"Duration":93480,"SoundDuration":93480,"Delta":58312768},{"NoteNumber":84,"Velocity":52,"Duration":94416,"SoundDuration":94416,"Delta":58437570},{"NoteNumber":87,"Velocity":59,"Duration":94416,"SoundDuration":94416,"Delta":58437570},{"NoteNumber":85,"Velocity":47,"Duration":95451,"SoundDuration":95451,"Delta":58563595},{"NoteNumber":88,"Velocity":53,"Duration":95451,"SoundDuration":95451,"Delta":58563595},{"NoteNumber":90,"Velocity":59,"Duration":354783,"SoundDuration":354783,"Delta":58691031},{"NoteNumber":87,"Velocity":52,"Duration":354783,"SoundDuration":354783,"Delta":58691031},{"NoteNumber":66,"Velocity":37,"Duration":171075,"SoundDuration":171075,"Delta":59045815},{"NoteNumber":74,"Velocity":39,"Duration":130770,"SoundDuration":130770,"Delta":59086120},{"NoteNumber":81,"Velocity":47,"Duration":90464,"SoundDuration":90464,"Delta":59126425},{"NoteNumber":81,"Velocity":43,"Duration":93441,"SoundDuration":93441,"Delta":59246953},{"NoteNumber":86,"Velocity":47,"Duration":93441,"SoundDuration":93441,"Delta":59246953},{"NoteNumber":85,"Velocity":40,"Duration":89419,"SoundDuration":89419,"Delta":59371922},{"NoteNumber":88,"Velocity":44,"Duration":89419,"SoundDuration":89419,"Delta":59371922},{"NoteNumber":74,"Velocity":37,"Duration":148430,"SoundDuration":148430,"Delta":59431596},{"NoteNumber":81,"Velocity":37,"Duration":118685,"SoundDuration":118685,"Delta":59461342},{"NoteNumber":86,"Velocity":46,"Duration":88939,"SoundDuration":88939,"Delta":59491087},{"NoteNumber":90,"Velocity":42,"Duration":88939,"SoundDuration":88939,"Delta":59609674},{"NoteNumber":86,"Velocity":36,"Duration":88939,"SoundDuration":88939,"Delta":59609674},{"NoteNumber":88,"Velocity":35,"Duration":88939,"SoundDuration":88939,"Delta":59728260},{"NoteNumber":92,"Velocity":40,"Duration":88939,"SoundDuration":88939,"Delta":59728260},{"NoteNumber":90,"Velocity":46,"Duration":88939,"SoundDuration":88939,"Delta":59846847},{"NoteNumber":86,"Velocity":42,"Duration":88939,"SoundDuration":88939,"Delta":59846847},{"NoteNumber":90,"Velocity":36,"Duration":118586,"SoundDuration":118586,"Delta":59965433},{"NoteNumber":93,"Velocity":41,"Duration":118586,"SoundDuration":118586,"Delta":59965433},{"NoteNumber":88,"Velocity":35,"Duration":118479,"SoundDuration":118479,"Delta":60084020},{"NoteNumber":92,"Velocity":40,"Duration":118479,"SoundDuration":118479,"Delta":60084020},{"NoteNumber":86,"Velocity":35,"Duration":118560,"SoundDuration":118560,"Delta":60202499},{"NoteNumber":90,"Velocity":40,"Duration":118560,"SoundDuration":118560,"Delta":60202499},{"NoteNumber":88,"Velocity":45,"Duration":119543,"SoundDuration":119543,"Delta":60321059},{"NoteNumber":85,"Velocity":41,"Duration":119543,"SoundDuration":119543,"Delta":60321059},{"NoteNumber":83,"Velocity":36,"Duration":241044,"SoundDuration":241044,"Delta":60440603},{"NoteNumber":86,"Velocity":42,"Duration":241044,"SoundDuration":241044,"Delta":60440603},{"NoteNumber":79,"Velocity":52,"Duration":180482,"SoundDuration":180482,"Delta":60561144},{"NoteNumber":76,"Velocity":45,"Duration":180482,"SoundDuration":180482,"Delta":60561144},{"NoteNumber":82,"Velocity":44,"Duration":119810,"SoundDuration":119810,"Delta":60681648},{"NoteNumber":85,"Velocity":49,"Duration":119810,"SoundDuration":119810,"Delta":60681648},{"NoteNumber":80,"Velocity":52,"Duration":178955,"SoundDuration":178955,"Delta":60741627},{"NoteNumber":77,"Velocity":45,"Duration":178955,"SoundDuration":178955,"Delta":60741627},{"NoteNumber":86,"Velocity":50,"Duration":237523,"SoundDuration":237523,"Delta":60801458},{"NoteNumber":83,"Velocity":44,"Duration":237523,"SoundDuration":237523,"Delta":60801458},{"NoteNumber":81,"Velocity":53,"Duration":177380,"SoundDuration":177380,"Delta":60920583},{"NoteNumber":78,"Velocity":46,"Duration":177380,"SoundDuration":177380,"Delta":60920583},{"NoteNumber":87,"Velocity":51,"Duration":117778,"SoundDuration":117778,"Delta":61038981},{"NoteNumber":84,"Velocity":45,"Duration":117778,"SoundDuration":117778,"Delta":61038981},{"NoteNumber":82,"Velocity":54,"Duration":176029,"SoundDuration":176029,"Delta":61097963},{"NoteNumber":79,"Velocity":49,"Duration":176029,"SoundDuration":176029,"Delta":61097963},{"NoteNumber":88,"Velocity":52,"Duration":234466,"SoundDuration":234466,"Delta":61156760},{"NoteNumber":85,"Velocity":45,"Duration":234466,"SoundDuration":234466,"Delta":61156760},{"NoteNumber":80,"Velocity":49,"Duration":175849,"SoundDuration":175849,"Delta":61273993},{"NoteNumber":83,"Velocity":54,"Duration":175849,"SoundDuration":175849,"Delta":61273993},{"NoteNumber":89,"Velocity":53,"Duration":117233,"SoundDuration":117233,"Delta":61391227},{"NoteNumber":86,"Velocity":46,"Duration":117233,"SoundDuration":117233,"Delta":61391227},{"NoteNumber":84,"Velocity":55,"Duration":175849,"SoundDuration":175849,"Delta":61449843},{"NoteNumber":81,"Velocity":49,"Duration":175849,"SoundDuration":175849,"Delta":61449843},{"NoteNumber":87,"Velocity":47,"Duration":234466,"SoundDuration":234466,"Delta":61508460},{"NoteNumber":90,"Velocity":53,"Duration":234466,"SoundDuration":234466,"Delta":61508460},{"NoteNumber":82,"Velocity":50,"Duration":175849,"SoundDuration":175849,"Delta":61625693},{"NoteNumber":85,"Velocity":56,"Duration":175849,"SoundDuration":175849,"Delta":61625693},{"NoteNumber":91,"Velocity":55,"Duration":117233,"SoundDuration":117233,"Delta":61742926},{"NoteNumber":88,"Velocity":49,"Duration":117233,"SoundDuration":117233,"Delta":61742926},{"NoteNumber":83,"Velocity":51,"Duration":175849,"SoundDuration":175849,"Delta":61801543},{"NoteNumber":86,"Velocity":57,"Duration":175849,"SoundDuration":175849,"Delta":61801543},{"NoteNumber":92,"Velocity":56,"Duration":234431,"SoundDuration":234431,"Delta":61860160},{"NoteNumber":89,"Velocity":50,"Duration":234431,"SoundDuration":234431,"Delta":61860160},{"NoteNumber":84,"Velocity":51,"Duration":175604,"SoundDuration":175604,"Delta":61977393},{"NoteNumber":87,"Velocity":57,"Duration":175604,"SoundDuration":175604,"Delta":61977393},{"NoteNumber":93,"Velocity":57,"Duration":116848,"SoundDuration":116848,"Delta":62094591},{"NoteNumber":90,"Velocity":51,"Duration":116848,"SoundDuration":116848,"Delta":62094591},{"NoteNumber":85,"Velocity":52,"Duration":175583,"SoundDuration":175583,"Delta":62152998},{"NoteNumber":88,"Velocity":59,"Duration":175583,"SoundDuration":175583,"Delta":62152998},{"NoteNumber":94,"Velocity":59,"Duration":234821,"SoundDuration":234821,"Delta":62211439},{"NoteNumber":91,"Velocity":52,"Duration":234821,"SoundDuration":234821,"Delta":62211439},{"NoteNumber":86,"Velocity":53,"Duration":177179,"SoundDuration":177179,"Delta":62328582},{"NoteNumber":89,"Velocity":61,"Duration":177179,"SoundDuration":177179,"Delta":62328582},{"NoteNumber":95,"Velocity":60,"Duration":119382,"SoundDuration":119382,"Delta":62446261},{"NoteNumber":92,"Velocity":53,"Duration":119382,"SoundDuration":119382,"Delta":62446261},{"NoteNumber":87,"Velocity":54,"Duration":181059,"SoundDuration":181059,"Delta":62505761},{"NoteNumber":90,"Velocity":62,"Duration":181059,"SoundDuration":181059,"Delta":62505761},{"NoteNumber":96,"Velocity":61,"Duration":121176,"SoundDuration":121176,"Delta":62565644},{"NoteNumber":93,"Velocity":53,"Duration":121176,"SoundDuration":121176,"Delta":62565644},{"NoteNumber":94,"Velocity":54,"Duration":122978,"SoundDuration":122978,"Delta":62686820},{"NoteNumber":97,"Velocity":62,"Duration":122978,"SoundDuration":122978,"Delta":62686820},{"NoteNumber":91,"Velocity":62,"Duration":122978,"SoundDuration":122978,"Delta":62686820},{"NoteNumber":88,"Velocity":54,"Duration":122978,"SoundDuration":122978,"Delta":62686820},{"NoteNumber":98,"Velocity":62,"Duration":124884,"SoundDuration":124884,"Delta":62809799},{"NoteNumber":95,"Velocity":55,"Duration":124884,"SoundDuration":124884,"Delta":62809799},{"NoteNumber":89,"Velocity":55,"Duration":124884,"SoundDuration":124884,"Delta":62809799},{"NoteNumber":92,"Velocity":62,"Duration":124884,"SoundDuration":124884,"Delta":62809799},{"NoteNumber":99,"Velocity":62,"Duration":126787,"SoundDuration":126787,"Delta":62934683},{"NoteNumber":96,"Velocity":55,"Duration":126787,"SoundDuration":126787,"Delta":62934683},{"NoteNumber":93,"Velocity":62,"Duration":126787,"SoundDuration":126787,"Delta":62934683},{"NoteNumber":90,"Velocity":55,"Duration":126787,"SoundDuration":126787,"Delta":62934683},{"NoteNumber":100,"Velocity":73,"Duration":255885,"SoundDuration":255885,"Delta":63061470},{"NoteNumber":97,"Velocity":65,"Duration":255885,"SoundDuration":255885,"Delta":63061470},{"NoteNumber":91,"Velocity":77,"Duration":255885,"SoundDuration":255885,"Delta":63061470},{"NoteNumber":94,"Velocity":77,"Duration":255885,"SoundDuration":255885,"Delta":63061470},{"NoteNumber":60,"Velocity":45,"Duration":288600,"SoundDuration":288600,"Delta":64832228},{"NoteNumber":42,"Velocity":40,"Duration":144300,"SoundDuration":144300,"Delta":64832228},{"NoteNumber":44,"Velocity":31,"Duration":144300,"SoundDuration":144300,"Delta":64976528},{"NoteNumber":60,"Velocity":42,"Duration":144300,"SoundDuration":144300,"Delta":65120828},{"NoteNumber":56,"Velocity":36,"Duration":288600,"SoundDuration":288600,"Delta":65120828},{"NoteNumber":58,"Velocity":45,"Duration":288600,"SoundDuration":288600,"Delta":65265128},{"NoteNumber":44,"Velocity":32,"Duration":144300,"SoundDuration":144300,"Delta":65409429},{"NoteNumber":60,"Velocity":42,"Duration":148972,"SoundDuration":148972,"Delta":65553729},{"NoteNumber":42,"Velocity":36,"Duration":290095,"SoundDuration":290095,"Delta":65553729},{"NoteNumber":61,"Velocity":47,"Duration":282246,"SoundDuration":282246,"Delta":65702701},{"NoteNumber":44,"Velocity":30,"Duration":141123,"SoundDuration":141123,"Delta":65843824},{"NoteNumber":63,"Velocity":44,"Duration":141123,"SoundDuration":141123,"Delta":65984947},{"NoteNumber":56,"Velocity":36,"Duration":282246,"SoundDuration":282246,"Delta":65984947},{"NoteNumber":60,"Velocity":47,"Duration":282246,"SoundDuration":282246,"Delta":66126071},{"NoteNumber":44,"Velocity":33,"Duration":141123,"SoundDuration":141123,"Delta":66267194},{"NoteNumber":61,"Velocity":44,"Duration":145602,"SoundDuration":145602,"Delta":66408317},{"NoteNumber":42,"Velocity":33,"Duration":287985,"SoundDuration":287985,"Delta":66408317},{"NoteNumber":58,"Velocity":45,"Duration":284764,"SoundDuration":284764,"Delta":66553920},{"NoteNumber":44,"Velocity":36,"Duration":142382,"SoundDuration":142382,"Delta":66696302},{"NoteNumber":56,"Velocity":43,"Duration":293871,"SoundDuration":293871,"Delta":66838685},{"NoteNumber":61,"Velocity":47,"Duration":279798,"SoundDuration":279798,"Delta":66992657},{"NoteNumber":44,"Velocity":36,"Duration":139899,"SoundDuration":139899,"Delta":67132557},{"NoteNumber":60,"Velocity":44,"Duration":139899,"SoundDuration":139899,"Delta":67272456},{"NoteNumber":41,"Velocity":32,"Duration":304049,"SoundDuration":304049,"Delta":67272456},{"NoteNumber":56,"Velocity":47,"Duration":458008,"SoundDuration":458008,"Delta":67412355},{"NoteNumber":58,"Velocity":47,"Duration":311079,"SoundDuration":311079,"Delta":67412355},{"NoteNumber":44,"Velocity":36,"Duration":146929,"SoundDuration":146929,"Delta":67576505},{"NoteNumber":60,"Velocity":44,"Duration":146929,"SoundDuration":146929,"Delta":67723434},{"NoteNumber":56,"Velocity":31,"Duration":297305,"SoundDuration":297305,"Delta":67723434},{"NoteNumber":55,"Velocity":47,"Duration":460055,"SoundDuration":460055,"Delta":67870363},{"NoteNumber":61,"Velocity":47,"Duration":300752,"SoundDuration":300752,"Delta":67870363},{"NoteNumber":44,"Velocity":36,"Duration":150376,"SoundDuration":150376,"Delta":68020739},{"NoteNumber":61,"Velocity":45,"Duration":159303,"SoundDuration":159303,"Delta":68171115},{"NoteNumber":40,"Velocity":36,"Duration":159303,"SoundDuration":159303,"Delta":68171115},{"NoteNumber":54,"Velocity":47,"Duration":873679,"SoundDuration":873679,"Delta":68330419},{"NoteNumber":60,"Velocity":45,"Duration":289883,"SoundDuration":289883,"Delta":68330419},{"NoteNumber":39,"Velocity":40,"Duration":144941,"SoundDuration":144941,"Delta":68330419},{"NoteNumber":44,"Velocity":31,"Duration":144941,"SoundDuration":144941,"Delta":68475360},{"NoteNumber":60,"Velocity":42,"Duration":144941,"SoundDuration":144941,"Delta":68620302},{"NoteNumber":56,"Velocity":36,"Duration":289883,"SoundDuration":289883,"Delta":68620302},{"NoteNumber":58,"Velocity":45,"Duration":289882,"SoundDuration":289882,"Delta":68765243},{"NoteNumber":44,"Velocity":32,"Duration":144941,"SoundDuration":144941,"Delta":68910185},{"NoteNumber":60,"Velocity":42,"Duration":148972,"SoundDuration":148972,"Delta":69055126},{"NoteNumber":39,"Velocity":36,"Duration":291978,"SoundDuration":291978,"Delta":69055126},{"NoteNumber":54,"Velocity":36,"Duration":286013,"SoundDuration":286013,"Delta":69204098},{"NoteNumber":61,"Velocity":47,"Duration":286013,"SoundDuration":286013,"Delta":69204098},{"NoteNumber":44,"Velocity":30,"Duration":143006,"SoundDuration":143006,"Delta":69347105},{"NoteNumber":63,"Velocity":44,"Duration":143007,"SoundDuration":143007,"Delta":69490112},{"NoteNumber":56,"Velocity":36,"Duration":290615,"SoundDuration":290615,"Delta":69490112},{"NoteNumber":54,"Velocity":36,"Duration":295217,"SoundDuration":295217,"Delta":69633119},{"NoteNumber":60,"Velocity":47,"Duration":295217,"SoundDuration":295217,"Delta":69633119},{"NoteNumber":44,"Velocity":33,"Duration":147608,"SoundDuration":147608,"Delta":69780728},{"NoteNumber":61,"Velocity":44,"Duration":152516,"SoundDuration":152516,"Delta":69928337},{"NoteNumber":39,"Velocity":33,"Duration":152516,"SoundDuration":152516,"Delta":69928337},{"NoteNumber":53,"Velocity":47,"Duration":872226,"SoundDuration":872226,"Delta":70080853},{"NoteNumber":58,"Velocity":47,"Duration":287301,"SoundDuration":287301,"Delta":70080853},{"NoteNumber":37,"Velocity":41,"Duration":143650,"SoundDuration":143650,"Delta":70080853},{"NoteNumber":44,"Velocity":36,"Duration":143650,"SoundDuration":143650,"Delta":70224504},{"NoteNumber":56,"Velocity":43,"Duration":297623,"SoundDuration":297623,"Delta":70368155},{"NoteNumber":61,"Velocity":47,"Duration":287301,"SoundDuration":287301,"Delta":70522127},{"NoteNumber":57,"Velocity":36,"Duration":143650,"SoundDuration":143650,"Delta":70665778},{"NoteNumber":60,"Velocity":44,"Duration":143650,"SoundDuration":143650,"Delta":70809429},{"NoteNumber":45,"Velocity":32,"Duration":143650,"SoundDuration":143650,"Delta":70809429},{"NoteNumber":53,"Velocity":47,"Duration":463491,"SoundDuration":463491,"Delta":70953079},{"NoteNumber":58,"Velocity":47,"Duration":313820,"SoundDuration":313820,"Delta":70953079},{"NoteNumber":37,"Velocity":41,"Duration":164149,"SoundDuration":164149,"Delta":70953079},{"NoteNumber":46,"Velocity":36,"Duration":149670,"SoundDuration":149670,"Delta":71117229},{"NoteNumber":60,"Velocity":44,"Duration":149670,"SoundDuration":149670,"Delta":71266900},{"NoteNumber":58,"Velocity":31,"Duration":305888,"SoundDuration":305888,"Delta":71266900},{"NoteNumber":53,"Velocity":47,"Duration":485425,"SoundDuration":485425,"Delta":71416571},{"NoteNumber":61,"Velocity":47,"Duration":312434,"SoundDuration":312434,"Delta":71416571},{"NoteNumber":46,"Velocity":36,"Duration":156217,"SoundDuration":156217,"Delta":71572788},{"NoteNumber":63,"Velocity":45,"Duration":172990,"SoundDuration":172990,"Delta":71729006},{"NoteNumber":37,"Velocity":36,"Duration":320599,"SoundDuration":320599,"Delta":71729006},{"NoteNumber":59,"Velocity":50,"Duration":887015,"SoundDuration":887015,"Delta":71901996},{"NoteNumber":65,"Velocity":50,"Duration":295217,"SoundDuration":295217,"Delta":71901996},{"NoteNumber":49,"Velocity":34,"Duration":147608,"SoundDuration":147608,"Delta":72049605},{"NoteNumber":65,"Velocity":45,"Duration":147608,"SoundDuration":147608,"Delta":72197214},{"NoteNumber":61,"Velocity":40,"Duration":295217,"SoundDuration":295217,"Delta":72197214},{"NoteNumber":63,"Velocity":50,"Duration":295217,"SoundDuration":295217,"Delta":72344822},{"NoteNumber":49,"Velocity":35,"Duration":147608,"SoundDuration":147608,"Delta":72492431},{"NoteNumber":65,"Velocity":45,"Duration":148972,"SoundDuration":148972,"Delta":72640040},{"NoteNumber":47,"Velocity":40,"Duration":291978,"SoundDuration":291978,"Delta":72640040},{"NoteNumber":56,"Velocity":50,"Duration":860637,"SoundDuration":860637,"Delta":72789012},{"NoteNumber":66,"Velocity":53,"Duration":286013,"SoundDuration":286013,"Delta":72789012},{"NoteNumber":49,"Velocity":33,"Duration":143006,"SoundDuration":143006,"Delta":72932019},{"NoteNumber":68,"Velocity":46,"Duration":143007,"SoundDuration":143007,"Delta":73075026},{"NoteNumber":59,"Velocity":40,"Duration":286014,"SoundDuration":286014,"Delta":73075026},{"NoteNumber":65,"Velocity":53,"Duration":286013,"SoundDuration":286013,"Delta":73218033},{"NoteNumber":49,"Velocity":36,"Duration":143006,"SoundDuration":143006,"Delta":73361040},{"NoteNumber":66,"Velocity":47,"Duration":145602,"SoundDuration":145602,"Delta":73504047},{"NoteNumber":47,"Velocity":36,"Duration":145602,"SoundDuration":145602,"Delta":73504047},{"NoteNumber":54,"Velocity":50,"Duration":863988,"SoundDuration":863988,"Delta":73649650},{"NoteNumber":63,"Velocity":50,"Duration":284764,"SoundDuration":284764,"Delta":73649650},{"NoteNumber":46,"Velocity":41,"Duration":142382,"SoundDuration":142382,"Delta":73649650},{"NoteNumber":49,"Velocity":40,"Duration":142382,"SoundDuration":142382,"Delta":73792032},{"NoteNumber":61,"Velocity":45,"Duration":153972,"SoundDuration":153972,"Delta":73934415},{"NoteNumber":58,"Velocity":35,"Duration":295722,"SoundDuration":295722,"Delta":73934415},{"NoteNumber":66,"Velocity":53,"Duration":283500,"SoundDuration":283500,"Delta":74088387},{"NoteNumber":50,"Velocity":40,"Duration":141750,"SoundDuration":141750,"Delta":74230137},{"NoteNumber":65,"Velocity":47,"Duration":141750,"SoundDuration":141750,"Delta":74371888},{"NoteNumber":46,"Velocity":35,"Duration":305900,"SoundDuration":305900,"Delta":74371888},{"NoteNumber":54,"Velocity":53,"Duration":458008,"SoundDuration":458008,"Delta":74513638},{"NoteNumber":63,"Velocity":53,"Duration":311079,"SoundDuration":311079,"Delta":74513638},{"NoteNumber":51,"Velocity":40,"Duration":146929,"SoundDuration":146929,"Delta":74677788},{"NoteNumber":65,"Velocity":47,"Duration":146929,"SoundDuration":146929,"Delta":74824717},{"NoteNumber":58,"Velocity":34,"Duration":296599,"SoundDuration":296599,"Delta":74824717},{"NoteNumber":63,"Velocity":53,"Duration":458644,"SoundDuration":458644,"Delta":74971646},{"NoteNumber":66,"Velocity":53,"Duration":299341,"SoundDuration":299341,"Delta":74971646},{"NoteNumber":51,"Velocity":40,"Duration":149670,"SoundDuration":149670,"Delta":75121317},{"NoteNumber":66,"Velocity":50,"Duration":159303,"SoundDuration":159303,"Delta":75270988},{"NoteNumber":46,"Velocity":40,"Duration":303603,"SoundDuration":303603,"Delta":75270988},{"NoteNumber":61,"Velocity":54,"Duration":870473,"SoundDuration":870473,"Delta":75430291},{"NoteNumber":67,"Velocity":54,"Duration":288600,"SoundDuration":288600,"Delta":75430291},{"NoteNumber":52,"Velocity":36,"Duration":144300,"SoundDuration":144300,"Delta":75574591},{"NoteNumber":67,"Velocity":50,"Duration":144300,"SoundDuration":144300,"Delta":75718891},{"NoteNumber":58,"Velocity":44,"Duration":288600,"SoundDuration":288600,"Delta":75718891},{"NoteNumber":65,"Velocity":54,"Duration":288600,"SoundDuration":288600,"Delta":75863192},{"NoteNumber":52,"Velocity":37,"Duration":144300,"SoundDuration":144300,"Delta":76007492},{"NoteNumber":67,"Velocity":50,"Duration":148972,"SoundDuration":148972,"Delta":76151792},{"NoteNumber":46,"Velocity":44,"Duration":290095,"SoundDuration":290095,"Delta":76151792},{"NoteNumber":61,"Velocity":54,"Duration":851219,"SoundDuration":851219,"Delta":76300764},{"NoteNumber":68,"Velocity":57,"Duration":282246,"SoundDuration":282246,"Delta":76300764},{"NoteNumber":52,"Velocity":36,"Duration":141123,"SoundDuration":141123,"Delta":76441887},{"NoteNumber":70,"Velocity":52,"Duration":141123,"SoundDuration":141123,"Delta":76583011},{"NoteNumber":58,"Velocity":44,"Duration":282246,"SoundDuration":282246,"Delta":76583011},{"NoteNumber":67,"Velocity":57,"Duration":282246,"SoundDuration":282246,"Delta":76724134},{"NoteNumber":52,"Velocity":40,"Duration":141123,"SoundDuration":141123,"Delta":76865257},{"NoteNumber":68,"Velocity":53,"Duration":145602,"SoundDuration":145602,"Delta":77006380},{"NoteNumber":46,"Velocity":40,"Duration":287985,"SoundDuration":287985,"Delta":77006380},{"NoteNumber":61,"Velocity":54,"Duration":858435,"SoundDuration":858435,"Delta":77151983},{"NoteNumber":65,"Velocity":54,"Duration":284764,"SoundDuration":284764,"Delta":77151983},{"NoteNumber":53,"Velocity":44,"Duration":142382,"SoundDuration":142382,"Delta":77294366},{"NoteNumber":64,"Velocity":52,"Duration":153972,"SoundDuration":153972,"Delta":77436748},{"NoteNumber":58,"Velocity":37,"Duration":293871,"SoundDuration":293871,"Delta":77436748},{"NoteNumber":68,"Velocity":59,"Duration":279798,"SoundDuration":279798,"Delta":77590721},{"NoteNumber":53,"Velocity":44,"Duration":139899,"SoundDuration":139899,"Delta":77730620},{"NoteNumber":67,"Velocity":54,"Duration":139899,"SoundDuration":139899,"Delta":77870519},{"NoteNumber":46,"Velocity":41,"Duration":304049,"SoundDuration":304049,"Delta":77870519},{"NoteNumber":61,"Velocity":61,"Duration":458008,"SoundDuration":458008,"Delta":78010418},{"NoteNumber":65,"Velocity":61,"Duration":311079,"SoundDuration":311079,"Delta":78010418},{"NoteNumber":53,"Velocity":45,"Duration":146929,"SoundDuration":146929,"Delta":78174568},{"NoteNumber":67,"Velocity":55,"Duration":146929,"SoundDuration":146929,"Delta":78321497},{"NoteNumber":58,"Velocity":40,"Duration":293858,"SoundDuration":293858,"Delta":78321497},{"NoteNumber":65,"Velocity":62,"Duration":293858,"SoundDuration":293858,"Delta":78468427},{"NoteNumber":61,"Velocity":62,"Duration":453161,"SoundDuration":453161,"Delta":78468427},{"NoteNumber":68,"Velocity":62,"Duration":293858,"SoundDuration":293858,"Delta":78468427},{"NoteNumber":52,"Velocity":45,"Duration":146929,"SoundDuration":146929,"Delta":78615356},{"NoteNumber":67,"Velocity":59,"Duration":159303,"SoundDuration":159303,"Delta":78762285},{"NoteNumber":70,"Velocity":59,"Duration":159303,"SoundDuration":159303,"Delta":78762285},{"NoteNumber":46,"Velocity":45,"Duration":159303,"SoundDuration":159303,"Delta":78762285},{"NoteNumber":51,"Velocity":45,"Duration":159303,"SoundDuration":159303,"Delta":78762285},{"NoteNumber":37,"Velocity":49,"Duration":1488593,"SoundDuration":1488593,"Delta":78921588},{"NoteNumber":44,"Velocity":59,"Duration":1488593,"SoundDuration":1488593,"Delta":78921588},{"NoteNumber":60,"Velocity":44,"Duration":92095,"SoundDuration":92095,"Delta":79045649},{"NoteNumber":63,"Velocity":44,"Duration":92095,"SoundDuration":92095,"Delta":79045649},{"NoteNumber":66,"Velocity":50,"Duration":92095,"SoundDuration":92095,"Delta":79045649},{"NoteNumber":72,"Velocity":50,"Duration":92095,"SoundDuration":92095,"Delta":79045649},{"NoteNumber":61,"Velocity":53,"Duration":91123,"SoundDuration":91123,"Delta":79168245},{"NoteNumber":60,"Velocity":44,"Duration":90000,"SoundDuration":90000,"Delta":79289576},{"NoteNumber":63,"Velocity":44,"Duration":90000,"SoundDuration":90000,"Delta":79289576},{"NoteNumber":66,"Velocity":50,"Duration":90000,"SoundDuration":90000,"Delta":79289576},{"NoteNumber":72,"Velocity":50,"Duration":90000,"SoundDuration":90000,"Delta":79289576},{"NoteNumber":58,"Velocity":53,"Duration":89880,"SoundDuration":89880,"Delta":79409414},{"NoteNumber":60,"Velocity":51,"Duration":92054,"SoundDuration":92054,"Delta":79529585},{"NoteNumber":63,"Velocity":51,"Duration":92054,"SoundDuration":92054,"Delta":79529585},{"NoteNumber":66,"Velocity":57,"Duration":92054,"SoundDuration":92054,"Delta":79529585},{"NoteNumber":72,"Velocity":57,"Duration":92054,"SoundDuration":92054,"Delta":79529585},{"NoteNumber":61,"Velocity":53,"Duration":98304,"SoundDuration":98304,"Delta":79652699},{"NoteNumber":75,"Velocity":62,"Duration":87582,"SoundDuration":87582,"Delta":79783772},{"NoteNumber":66,"Velocity":55,"Duration":87582,"SoundDuration":87582,"Delta":79783772},{"NoteNumber":63,"Velocity":55,"Duration":87582,"SoundDuration":87582,"Delta":79783772},{"NoteNumber":61,"Velocity":55,"Duration":92032,"SoundDuration":92032,"Delta":79902907},{"NoteNumber":60,"Velocity":47,"Duration":92032,"SoundDuration":92032,"Delta":80025616},{"NoteNumber":63,"Velocity":47,"Duration":92032,"SoundDuration":92032,"Delta":80025616},{"NoteNumber":66,"Velocity":53,"Duration":92032,"SoundDuration":92032,"Delta":80025616},{"NoteNumber":72,"Velocity":53,"Duration":92032,"SoundDuration":92032,"Delta":80025616},{"NoteNumber":61,"Velocity":47,"Duration":92032,"SoundDuration":92032,"Delta":80148326},{"NoteNumber":60,"Velocity":41,"Duration":104359,"SoundDuration":104359,"Delta":80271035},{"NoteNumber":63,"Velocity":41,"Duration":104359,"SoundDuration":104359,"Delta":80271035},{"NoteNumber":66,"Velocity":45,"Duration":104359,"SoundDuration":104359,"Delta":80271035},{"NoteNumber":72,"Velocity":45,"Duration":104359,"SoundDuration":104359,"Delta":80271035},{"NoteNumber":37,"Velocity":49,"Duration":1499440,"SoundDuration":1499440,"Delta":80410182},{"NoteNumber":44,"Velocity":59,"Duration":1499440,"SoundDuration":1499440,"Delta":80410182},{"NoteNumber":58,"Velocity":44,"Duration":92654,"SoundDuration":92654,"Delta":80534768},{"NoteNumber":61,"Velocity":44,"Duration":92654,"SoundDuration":92654,"Delta":80534768},{"NoteNumber":65,"Velocity":50,"Duration":92654,"SoundDuration":92654,"Delta":80534768},{"NoteNumber":70,"Velocity":50,"Duration":92654,"SoundDuration":92654,"Delta":80534768},{"NoteNumber":56,"Velocity":53,"Duration":91627,"SoundDuration":91627,"Delta":80658135},{"NoteNumber":61,"Velocity":44,"Duration":90747,"SoundDuration":90747,"Delta":80780137},{"NoteNumber":65,"Velocity":44,"Duration":90747,"SoundDuration":90747,"Delta":80780137},{"NoteNumber":68,"Velocity":50,"Duration":90747,"SoundDuration":90747,"Delta":80780137},{"NoteNumber":73,"Velocity":50,"Duration":90747,"SoundDuration":90747,"Delta":80780137},{"NoteNumber":60,"Velocity":53,"Duration":90000,"SoundDuration":90000,"Delta":80900966},{"NoteNumber":61,"Velocity":44,"Duration":90873,"SoundDuration":90873,"Delta":81021132},{"NoteNumber":65,"Velocity":44,"Duration":90873,"SoundDuration":90873,"Delta":81021132},{"NoteNumber":68,"Velocity":50,"Duration":90873,"SoundDuration":90873,"Delta":81021132},{"NoteNumber":73,"Velocity":50,"Duration":90873,"SoundDuration":90873,"Delta":81021132},{"NoteNumber":57,"Velocity":53,"Duration":91797,"SoundDuration":91797,"Delta":81142463},{"NoteNumber":67,"Velocity":53,"Duration":92740,"SoundDuration":92740,"Delta":81264973},{"NoteNumber":70,"Velocity":53,"Duration":92740,"SoundDuration":92740,"Delta":81264973},{"NoteNumber":64,"Velocity":53,"Duration":92740,"SoundDuration":92740,"Delta":81264973},{"NoteNumber":58,"Velocity":46,"Duration":92740,"SoundDuration":92740,"Delta":81264973},{"NoteNumber":60,"Velocity":62,"Duration":93615,"SoundDuration":93615,"Delta":81388772},{"NoteNumber":61,"Velocity":55,"Duration":92394,"SoundDuration":92394,"Delta":81513622},{"NoteNumber":64,"Velocity":55,"Duration":92394,"SoundDuration":92394,"Delta":81513622},{"NoteNumber":67,"Velocity":62,"Duration":92394,"SoundDuration":92394,"Delta":81513622},{"NoteNumber":73,"Velocity":62,"Duration":92394,"SoundDuration":92394,"Delta":81513622},{"NoteNumber":60,"Velocity":52,"Duration":92137,"SoundDuration":92137,"Delta":81636815},{"NoteNumber":58,"Velocity":47,"Duration":115895,"SoundDuration":115895,"Delta":81759665},{"NoteNumber":64,"Velocity":47,"Duration":115895,"SoundDuration":115895,"Delta":81759665},{"NoteNumber":67,"Velocity":53,"Duration":115895,"SoundDuration":115895,"Delta":81759665},{"NoteNumber":70,"Velocity":53,"Duration":115895,"SoundDuration":115895,"Delta":81759665},{"NoteNumber":37,"Velocity":53,"Duration":1492056,"SoundDuration":1492056,"Delta":81909623},{"NoteNumber":44,"Velocity":63,"Duration":1492056,"SoundDuration":1492056,"Delta":81909623},{"NoteNumber":60,"Velocity":44,"Duration":92223,"SoundDuration":92223,"Delta":82033335},{"NoteNumber":63,"Velocity":44,"Duration":92223,"SoundDuration":92223,"Delta":82033335},{"NoteNumber":66,"Velocity":49,"Duration":92223,"SoundDuration":92223,"Delta":82033335},{"NoteNumber":72,"Velocity":54,"Duration":92223,"SoundDuration":92223,"Delta":82033335},{"NoteNumber":61,"Velocity":59,"Duration":91543,"SoundDuration":91543,"Delta":82156185},{"NoteNumber":60,"Velocity":43,"Duration":90872,"SoundDuration":90872,"Delta":82278187},{"NoteNumber":63,"Velocity":43,"Duration":90872,"SoundDuration":90872,"Delta":82278187},{"NoteNumber":66,"Velocity":47,"Duration":90872,"SoundDuration":90872,"Delta":82278187},{"NoteNumber":72,"Velocity":53,"Duration":90872,"SoundDuration":90872,"Delta":82278187},{"NoteNumber":58,"Velocity":57,"Duration":90496,"SoundDuration":90496,"Delta":82399267},{"NoteNumber":60,"Velocity":47,"Duration":91627,"SoundDuration":91627,"Delta":82520097},{"NoteNumber":63,"Velocity":47,"Duration":91627,"SoundDuration":91627,"Delta":82520097},{"NoteNumber":66,"Velocity":53,"Duration":91627,"SoundDuration":91627,"Delta":82520097},{"NoteNumber":72,"Velocity":61,"Duration":91627,"SoundDuration":91627,"Delta":82520097},{"NoteNumber":61,"Velocity":59,"Duration":92740,"SoundDuration":92740,"Delta":82642437},{"NoteNumber":75,"Velocity":62,"Duration":93713,"SoundDuration":93713,"Delta":82766149},{"NoteNumber":66,"Velocity":49,"Duration":93713,"SoundDuration":93713,"Delta":82766149},{"NoteNumber":63,"Velocity":49,"Duration":93713,"SoundDuration":93713,"Delta":82766149},{"NoteNumber":61,"Velocity":62,"Duration":92032,"SoundDuration":92032,"Delta":82891414},{"NoteNumber":60,"Velocity":42,"Duration":87385,"SoundDuration":87385,"Delta":83014124},{"NoteNumber":63,"Velocity":42,"Duration":87385,"SoundDuration":87385,"Delta":83014124},{"NoteNumber":66,"Velocity":46,"Duration":87385,"SoundDuration":87385,"Delta":83014124},{"NoteNumber":72,"Velocity":53,"Duration":87385,"SoundDuration":87385,"Delta":83014124},{"NoteNumber":61,"Velocity":53,"Duration":87385,"SoundDuration":87385,"Delta":83130638},{"NoteNumber":60,"Velocity":40,"Duration":115895,"SoundDuration":115895,"Delta":83247152},{"NoteNumber":63,"Velocity":40,"Duration":115895,"SoundDuration":115895,"Delta":83247152},{"NoteNumber":66,"Velocity":44,"Duration":115895,"SoundDuration":115895,"Delta":83247152},{"NoteNumber":72,"Velocity":50,"Duration":115895,"SoundDuration":115895,"Delta":83247152},{"NoteNumber":37,"Velocity":53,"Duration":1488294,"SoundDuration":1488294,"Delta":83401679},{"NoteNumber":44,"Velocity":63,"Duration":1488294,"SoundDuration":1488294,"Delta":83401679},{"NoteNumber":58,"Velocity":44,"Duration":92266,"SoundDuration":92266,"Delta":83525740},{"NoteNumber":61,"Velocity":44,"Duration":92266,"SoundDuration":92266,"Delta":83525740},{"NoteNumber":65,"Velocity":49,"Duration":92266,"SoundDuration":92266,"Delta":83525740},{"NoteNumber":70,"Velocity":54,"Duration":92266,"SoundDuration":92266,"Delta":83525740},{"NoteNumber":56,"Velocity":59,"Duration":91248,"SoundDuration":91248,"Delta":83648591},{"NoteNumber":61,"Velocity":43,"Duration":90372,"SoundDuration":90372,"Delta":83770089},{"NoteNumber":65,"Velocity":43,"Duration":90372,"SoundDuration":90372,"Delta":83770089},{"NoteNumber":68,"Velocity":53,"Duration":90372,"SoundDuration":90372,"Delta":83770089},{"NoteNumber":73,"Velocity":53,"Duration":90372,"SoundDuration":90372,"Delta":83770089},{"NoteNumber":60,"Velocity":57,"Duration":89634,"SoundDuration":89634,"Delta":83890421},{"NoteNumber":61,"Velocity":43,"Duration":90580,"SoundDuration":90580,"Delta":84010097},{"NoteNumber":65,"Velocity":43,"Duration":90580,"SoundDuration":90580,"Delta":84010097},{"NoteNumber":68,"Velocity":47,"Duration":90580,"SoundDuration":90580,"Delta":84010097},{"NoteNumber":73,"Velocity":53,"Duration":90580,"SoundDuration":90580,"Delta":84010097},{"NoteNumber":57,"Velocity":59,"Duration":91585,"SoundDuration":91585,"Delta":84131010},{"NoteNumber":64,"Velocity":44,"Duration":92568,"SoundDuration":92568,"Delta":84253265},{"NoteNumber":67,"Velocity":49,"Duration":92568,"SoundDuration":92568,"Delta":84253265},{"NoteNumber":70,"Velocity":54,"Duration":92568,"SoundDuration":92568,"Delta":84253265},{"NoteNumber":58,"Velocity":44,"Duration":92568,"SoundDuration":92568,"Delta":84253265},{"NoteNumber":60,"Velocity":61,"Duration":93306,"SoundDuration":93306,"Delta":84376892},{"NoteNumber":61,"Velocity":52,"Duration":92394,"SoundDuration":92394,"Delta":84501301},{"NoteNumber":65,"Velocity":52,"Duration":92394,"SoundDuration":92394,"Delta":84501301},{"NoteNumber":73,"Velocity":65,"Duration":92394,"SoundDuration":92394,"Delta":84501301},{"NoteNumber":60,"Velocity":56,"Duration":92394,"SoundDuration":92394,"Delta":84624494},{"NoteNumber":58,"Velocity":44,"Duration":109553,"SoundDuration":109553,"Delta":84747688},{"NoteNumber":66,"Velocity":49,"Duration":109553,"SoundDuration":109553,"Delta":84747688},{"NoteNumber":70,"Velocity":54,"Duration":109553,"SoundDuration":109553,"Delta":84747688},{"NoteNumber":56,"Velocity":62,"Duration":1463952,"SoundDuration":1463952,"Delta":84889974},{"NoteNumber":49,"Velocity":62,"Duration":1463952,"SoundDuration":1463952,"Delta":84889974},{"NoteNumber":59,"Velocity":73,"Duration":1463952,"SoundDuration":1463952,"Delta":84889974},{"NoteNumber":65,"Velocity":49,"Duration":91123,"SoundDuration":91123,"Delta":85012826},{"NoteNumber":68,"Velocity":49,"Duration":91123,"SoundDuration":91123,"Delta":85012826},{"NoteNumber":71,"Velocity":56,"Duration":91123,"SoundDuration":91123,"Delta":85012826},{"NoteNumber":77,"Velocity":63,"Duration":91123,"SoundDuration":91123,"Delta":85012826},{"NoteNumber":66,"Velocity":66,"Duration":90000,"SoundDuration":90000,"Delta":85134157},{"NoteNumber":77,"Velocity":63,"Duration":88912,"SoundDuration":88912,"Delta":85253995},{"NoteNumber":65,"Velocity":47,"Duration":88912,"SoundDuration":88912,"Delta":85253995},{"NoteNumber":68,"Velocity":47,"Duration":88912,"SoundDuration":88912,"Delta":85253995},{"NoteNumber":71,"Velocity":54,"Duration":88912,"SoundDuration":88912,"Delta":85253995},{"NoteNumber":63,"Velocity":66,"Duration":88439,"SoundDuration":88439,"Delta":85372386},{"NoteNumber":65,"Velocity":53,"Duration":89634,"SoundDuration":89634,"Delta":85490543},{"NoteNumber":68,"Velocity":53,"Duration":89634,"SoundDuration":89634,"Delta":85490543},{"NoteNumber":71,"Velocity":61,"Duration":89634,"SoundDuration":89634,"Delta":85490543},{"NoteNumber":77,"Velocity":67,"Duration":89634,"SoundDuration":89634,"Delta":85490543},{"NoteNumber":66,"Velocity":67,"Duration":97436,"SoundDuration":97436,"Delta":85610218},{"NoteNumber":80,"Velocity":74,"Duration":87732,"SoundDuration":87732,"Delta":85740133},{"NoteNumber":71,"Velocity":65,"Duration":87732,"SoundDuration":87732,"Delta":85740133},{"NoteNumber":68,"Velocity":60,"Duration":87732,"SoundDuration":87732,"Delta":85740133},{"NoteNumber":66,"Velocity":70,"Duration":92032,"SoundDuration":92032,"Delta":85857110},{"NoteNumber":65,"Velocity":52,"Duration":89877,"SoundDuration":89877,"Delta":85979820},{"NoteNumber":68,"Velocity":52,"Duration":89877,"SoundDuration":89877,"Delta":85979820},{"NoteNumber":71,"Velocity":57,"Duration":89877,"SoundDuration":89877,"Delta":85979820},{"NoteNumber":77,"Velocity":64,"Duration":89877,"SoundDuration":89877,"Delta":85979820},{"NoteNumber":66,"Velocity":62,"Duration":89877,"SoundDuration":89877,"Delta":86099657},{"NoteNumber":65,"Velocity":45,"Duration":100824,"SoundDuration":100824,"Delta":86219494},{"NoteNumber":68,"Velocity":45,"Duration":100824,"SoundDuration":100824,"Delta":86219494},{"NoteNumber":71,"Velocity":51,"Duration":100824,"SoundDuration":100824,"Delta":86219494},{"NoteNumber":77,"Velocity":57,"Duration":100824,"SoundDuration":100824,"Delta":86219494},{"NoteNumber":49,"Velocity":62,"Duration":1470578,"SoundDuration":1470578,"Delta":86353927},{"NoteNumber":54,"Velocity":62,"Duration":1470578,"SoundDuration":1470578,"Delta":86353927},{"NoteNumber":58,"Velocity":73,"Duration":1470578,"SoundDuration":1470578,"Delta":86353927},{"NoteNumber":63,"Velocity":49,"Duration":91123,"SoundDuration":91123,"Delta":86476778},{"NoteNumber":66,"Velocity":49,"Duration":91123,"SoundDuration":91123,"Delta":86476778},{"NoteNumber":70,"Velocity":56,"Duration":91123,"SoundDuration":91123,"Delta":86476778},{"NoteNumber":75,"Velocity":63,"Duration":91123,"SoundDuration":91123,"Delta":86476778},{"NoteNumber":61,"Velocity":66,"Duration":90000,"SoundDuration":90000,"Delta":86598109},{"NoteNumber":66,"Velocity":47,"Duration":88912,"SoundDuration":88912,"Delta":86717948},{"NoteNumber":70,"Velocity":47,"Duration":88912,"SoundDuration":88912,"Delta":86717948},{"NoteNumber":73,"Velocity":54,"Duration":88912,"SoundDuration":88912,"Delta":86717948},{"NoteNumber":78,"Velocity":62,"Duration":88912,"SoundDuration":88912,"Delta":86717948},{"NoteNumber":65,"Velocity":65,"Duration":88201,"SoundDuration":88201,"Delta":86836339},{"NoteNumber":66,"Velocity":47,"Duration":89111,"SoundDuration":89111,"Delta":86954098},{"NoteNumber":70,"Velocity":47,"Duration":89111,"SoundDuration":89111,"Delta":86954098},{"NoteNumber":73,"Velocity":54,"Duration":89111,"SoundDuration":89111,"Delta":86954098},{"NoteNumber":78,"Velocity":62,"Duration":89111,"SoundDuration":89111,"Delta":86954098},{"NoteNumber":62,"Velocity":66,"Duration":90082,"SoundDuration":90082,"Delta":87073047},{"NoteNumber":66,"Velocity":49,"Duration":91039,"SoundDuration":91039,"Delta":87193295},{"NoteNumber":70,"Velocity":56,"Duration":91039,"SoundDuration":91039,"Delta":87193295},{"NoteNumber":75,"Velocity":63,"Duration":91039,"SoundDuration":91039,"Delta":87193295},{"NoteNumber":63,"Velocity":49,"Duration":91039,"SoundDuration":91039,"Delta":87193295},{"NoteNumber":65,"Velocity":74,"Duration":93306,"SoundDuration":93306,"Delta":87315222},{"NoteNumber":66,"Velocity":62,"Duration":92394,"SoundDuration":92394,"Delta":87439631},{"NoteNumber":70,"Velocity":62,"Duration":92394,"SoundDuration":92394,"Delta":87439631},{"NoteNumber":78,"Velocity":79,"Duration":92394,"SoundDuration":92394,"Delta":87439631},{"NoteNumber":65,"Velocity":64,"Duration":89877,"SoundDuration":89877,"Delta":87562825},{"NoteNumber":66,"Velocity":49,"Duration":106382,"SoundDuration":106382,"Delta":87682662},{"NoteNumber":63,"Velocity":49,"Duration":106382,"SoundDuration":106382,"Delta":87682662},{"NoteNumber":70,"Velocity":56,"Duration":106382,"SoundDuration":106382,"Delta":87682662},{"NoteNumber":75,"Velocity":63,"Duration":106382,"SoundDuration":106382,"Delta":87682662},{"NoteNumber":52,"Velocity":67,"Duration":1463402,"SoundDuration":1463402,"Delta":87824506},{"NoteNumber":49,"Velocity":67,"Duration":1463402,"SoundDuration":1463402,"Delta":87824506},{"NoteNumber":58,"Velocity":81,"Duration":1463402,"SoundDuration":1463402,"Delta":87824506},{"NoteNumber":67,"Velocity":54,"Duration":91039,"SoundDuration":91039,"Delta":87947016},{"NoteNumber":70,"Velocity":54,"Duration":91039,"SoundDuration":91039,"Delta":87947016},{"NoteNumber":73,"Velocity":62,"Duration":91039,"SoundDuration":91039,"Delta":87947016},{"NoteNumber":79,"Velocity":69,"Duration":91039,"SoundDuration":91039,"Delta":87947016},{"NoteNumber":68,"Velocity":73,"Duration":90041,"SoundDuration":90041,"Delta":88068263},{"NoteNumber":79,"Velocity":70,"Duration":89112,"SoundDuration":89112,"Delta":88188182},{"NoteNumber":67,"Velocity":53,"Duration":89112,"SoundDuration":89112,"Delta":88188182},{"NoteNumber":70,"Velocity":53,"Duration":89112,"SoundDuration":89112,"Delta":88188182},{"NoteNumber":73,"Velocity":60,"Duration":89112,"SoundDuration":89112,"Delta":88188182},{"NoteNumber":65,"Velocity":73,"Duration":89191,"SoundDuration":89191,"Delta":88306813},{"NoteNumber":67,"Velocity":61,"Duration":89715,"SoundDuration":89715,"Delta":88425842},{"NoteNumber":70,"Velocity":61,"Duration":89715,"SoundDuration":89715,"Delta":88425842},{"NoteNumber":73,"Velocity":66,"Duration":89715,"SoundDuration":89715,"Delta":88425842},{"NoteNumber":79,"Velocity":75,"Duration":89715,"SoundDuration":89715,"Delta":88425842},{"NoteNumber":68,"Velocity":74,"Duration":90245,"SoundDuration":90245,"Delta":88545517},{"NoteNumber":82,"Velocity":81,"Duration":89444,"SoundDuration":89444,"Delta":88665844},{"NoteNumber":73,"Velocity":72,"Duration":89444,"SoundDuration":89444,"Delta":88665844},{"NoteNumber":70,"Velocity":63,"Duration":89444,"SoundDuration":89444,"Delta":88665844},{"NoteNumber":68,"Velocity":77,"Duration":92032,"SoundDuration":92032,"Delta":88786840},{"NoteNumber":67,"Velocity":62,"Duration":92032,"SoundDuration":92032,"Delta":88909550},{"NoteNumber":70,"Velocity":62,"Duration":92032,"SoundDuration":92032,"Delta":88909550},{"NoteNumber":73,"Velocity":69,"Duration":92032,"SoundDuration":92032,"Delta":88909550},{"NoteNumber":79,"Velocity":77,"Duration":92032,"SoundDuration":92032,"Delta":88909550},{"NoteNumber":68,"Velocity":66,"Duration":92032,"SoundDuration":92032,"Delta":89032259},{"NoteNumber":67,"Velocity":53,"Duration":100824,"SoundDuration":100824,"Delta":89154969},{"NoteNumber":70,"Velocity":53,"Duration":100824,"SoundDuration":100824,"Delta":89154969},{"NoteNumber":73,"Velocity":60,"Duration":100824,"SoundDuration":100824,"Delta":89154969},{"NoteNumber":79,"Velocity":66,"Duration":100824,"SoundDuration":100824,"Delta":89154969},{"NoteNumber":49,"Velocity":71,"Duration":1461199,"SoundDuration":1461199,"Delta":89287908},{"NoteNumber":53,"Velocity":71,"Duration":1461199,"SoundDuration":1461199,"Delta":89287908},{"NoteNumber":58,"Velocity":84,"Duration":1461199,"SoundDuration":1461199,"Delta":89287908},{"NoteNumber":65,"Velocity":60,"Duration":90580,"SoundDuration":90580,"Delta":89409910},{"NoteNumber":70,"Velocity":60,"Duration":90580,"SoundDuration":90580,"Delta":89409910},{"NoteNumber":73,"Velocity":66,"Duration":90580,"SoundDuration":90580,"Delta":89409910},{"NoteNumber":77,"Velocity":75,"Duration":90580,"SoundDuration":90580,"Delta":89409910},{"NoteNumber":64,"Velocity":79,"Duration":89634,"SoundDuration":89634,"Delta":89530490},{"NoteNumber":68,"Velocity":56,"Duration":88555,"SoundDuration":88555,"Delta":89649842},{"NoteNumber":70,"Velocity":56,"Duration":88555,"SoundDuration":88555,"Delta":89649842},{"NoteNumber":73,"Velocity":63,"Duration":88555,"SoundDuration":88555,"Delta":89649842},{"NoteNumber":80,"Velocity":71,"Duration":88555,"SoundDuration":88555,"Delta":89649842},{"NoteNumber":67,"Velocity":73,"Duration":88123,"SoundDuration":88123,"Delta":89767681},{"NoteNumber":68,"Velocity":56,"Duration":89192,"SoundDuration":89192,"Delta":89885362},{"NoteNumber":70,"Velocity":56,"Duration":89192,"SoundDuration":89192,"Delta":89885362},{"NoteNumber":73,"Velocity":63,"Duration":89192,"SoundDuration":89192,"Delta":89885362},{"NoteNumber":80,"Velocity":71,"Duration":89192,"SoundDuration":89192,"Delta":89885362},{"NoteNumber":64,"Velocity":81,"Duration":90289,"SoundDuration":90289,"Delta":90004473},{"NoteNumber":70,"Velocity":60,"Duration":91459,"SoundDuration":91459,"Delta":90125054},{"NoteNumber":73,"Velocity":66,"Duration":91459,"SoundDuration":91459,"Delta":90125054},{"NoteNumber":77,"Velocity":75,"Duration":91459,"SoundDuration":91459,"Delta":90125054},{"NoteNumber":66,"Velocity":60,"Duration":91459,"SoundDuration":91459,"Delta":90125054},{"NoteNumber":66,"Velocity":81,"Duration":94102,"SoundDuration":94102,"Delta":90247226},{"NoteNumber":73,"Velocity":63,"Duration":94102,"SoundDuration":94102,"Delta":90372696},{"NoteNumber":67,"Velocity":63,"Duration":94102,"SoundDuration":94102,"Delta":90372696},{"NoteNumber":77,"Velocity":79,"Duration":94102,"SoundDuration":94102,"Delta":90372696},{"NoteNumber":79,"Velocity":79,"Duration":94102,"SoundDuration":94102,"Delta":90372696},{"NoteNumber":68,"Velocity":75,"Duration":94102,"SoundDuration":94102,"Delta":90498167},{"NoteNumber":73,"Velocity":65,"Duration":94102,"SoundDuration":94102,"Delta":90623637},{"NoteNumber":69,"Velocity":65,"Duration":94102,"SoundDuration":94102,"Delta":90623637},{"NoteNumber":77,"Velocity":74,"Duration":94102,"SoundDuration":94102,"Delta":90623637},{"NoteNumber":81,"Velocity":83,"Duration":94102,"SoundDuration":94102,"Delta":90623637},{"NoteNumber":44,"Velocity":71,"Duration":95266,"SoundDuration":95266,"Delta":90749108},{"NoteNumber":49,"Velocity":71,"Duration":95266,"SoundDuration":95266,"Delta":90749108},{"NoteNumber":54,"Velocity":89,"Duration":95266,"SoundDuration":95266,"Delta":90749108},{"NoteNumber":58,"Velocity":80,"Duration":95266,"SoundDuration":95266,"Delta":90876130},{"NoteNumber":61,"Velocity":86,"Duration":95266,"SoundDuration":95266,"Delta":90876130},{"NoteNumber":70,"Velocity":80,"Duration":97851,"SoundDuration":97851,"Delta":91003151},{"NoteNumber":66,"Velocity":72,"Duration":97851,"SoundDuration":97851,"Delta":91003151},{"NoteNumber":82,"Velocity":99,"Duration":90663,"SoundDuration":90663,"Delta":91133151},{"NoteNumber":78,"Velocity":89,"Duration":90663,"SoundDuration":90663,"Delta":91133151},{"NoteNumber":69,"Velocity":71,"Duration":89957,"SoundDuration":89957,"Delta":91253911},{"NoteNumber":65,"Velocity":71,"Duration":89957,"SoundDuration":89957,"Delta":91253911},{"NoteNumber":70,"Velocity":65,"Duration":89223,"SoundDuration":89223,"Delta":91373708},{"NoteNumber":66,"Velocity":61,"Duration":89223,"SoundDuration":89223,"Delta":91373708},{"NoteNumber":62,"Velocity":64,"Duration":88575,"SoundDuration":88575,"Delta":91492541},{"NoteNumber":65,"Velocity":72,"Duration":88575,"SoundDuration":88575,"Delta":91492541},{"NoteNumber":66,"Velocity":75,"Duration":88575,"SoundDuration":88575,"Delta":91610642},{"NoteNumber":63,"Velocity":69,"Duration":88575,"SoundDuration":88575,"Delta":91610642},{"NoteNumber":65,"Velocity":60,"Duration":91806,"SoundDuration":91806,"Delta":91728743},{"NoteNumber":69,"Velocity":66,"Duration":91806,"SoundDuration":91806,"Delta":91728743},{"NoteNumber":66,"Velocity":75,"Duration":238815,"SoundDuration":238815,"Delta":91851152},{"NoteNumber":70,"Velocity":84,"Duration":89555,"SoundDuration":89555,"Delta":91851152},{"NoteNumber":73,"Velocity":82,"Duration":89555,"SoundDuration":89555,"Delta":91970559},{"NoteNumber":68,"Velocity":71,"Duration":89555,"SoundDuration":89555,"Delta":92089967},{"NoteNumber":72,"Velocity":80,"Duration":89555,"SoundDuration":89555,"Delta":92089967},{"NoteNumber":44,"Velocity":60,"Duration":94087,"SoundDuration":94087,"Delta":92209375},{"NoteNumber":49,"Velocity":60,"Duration":94087,"SoundDuration":94087,"Delta":92209375},{"NoteNumber":53,"Velocity":75,"Duration":94087,"SoundDuration":94087,"Delta":92209375},{"NoteNumber":56,"Velocity":73,"Duration":94087,"SoundDuration":94087,"Delta":92334824},{"NoteNumber":61,"Velocity":81,"Duration":94087,"SoundDuration":94087,"Delta":92334824},{"NoteNumber":68,"Velocity":73,"Duration":96351,"SoundDuration":96351,"Delta":92460274},{"NoteNumber":65,"Velocity":66,"Duration":96351,"SoundDuration":96351,"Delta":92460274},{"NoteNumber":77,"Velocity":90,"Duration":88276,"SoundDuration":88276,"Delta":92588743},{"NoteNumber":80,"Velocity":101,"Duration":88276,"SoundDuration":88276,"Delta":92588743},{"NoteNumber":61,"Velocity":71,"Duration":88666,"SoundDuration":88666,"Delta":92706538},{"NoteNumber":65,"Velocity":77,"Duration":88666,"SoundDuration":88666,"Delta":92706538},{"NoteNumber":63,"Velocity":63,"Duration":89062,"SoundDuration":89062,"Delta":92824835},{"NoteNumber":66,"Velocity":69,"Duration":89062,"SoundDuration":89062,"Delta":92824835},{"NoteNumber":65,"Velocity":65,"Duration":90759,"SoundDuration":90759,"Delta":92943631},{"NoteNumber":68,"Velocity":73,"Duration":90759,"SoundDuration":90759,"Delta":92943631},{"NoteNumber":66,"Velocity":63,"Duration":92040,"SoundDuration":92040,"Delta":93064873},{"NoteNumber":70,"Velocity":69,"Duration":92040,"SoundDuration":92040,"Delta":93064873},{"NoteNumber":65,"Velocity":61,"Duration":93404,"SoundDuration":93404,"Delta":93187844},{"NoteNumber":68,"Velocity":65,"Duration":93404,"SoundDuration":93404,"Delta":93187844},{"NoteNumber":61,"Velocity":74,"Duration":412125,"SoundDuration":412125,"Delta":93312642},{"NoteNumber":65,"Velocity":82,"Duration":412125,"SoundDuration":412125,"Delta":93312642},{"NoteNumber":56,"Velocity":72,"Duration":95266,"SoundDuration":95266,"Delta":93724768},{"NoteNumber":61,"Velocity":72,"Duration":95266,"SoundDuration":95266,"Delta":93724768},{"NoteNumber":66,"Velocity":81,"Duration":95266,"SoundDuration":95266,"Delta":93724768},{"NoteNumber":70,"Velocity":71,"Duration":95266,"SoundDuration":95266,"Delta":93851790},{"NoteNumber":73,"Velocity":79,"Duration":95266,"SoundDuration":95266,"Delta":93851790},{"NoteNumber":82,"Velocity":71,"Duration":97851,"SoundDuration":97851,"Delta":93978812},{"NoteNumber":78,"Velocity":63,"Duration":97851,"SoundDuration":97851,"Delta":93978812},{"NoteNumber":94,"Velocity":85,"Duration":90663,"SoundDuration":90663,"Delta":94108811},{"NoteNumber":90,"Velocity":76,"Duration":90663,"SoundDuration":90663,"Delta":94108811},{"NoteNumber":81,"Velocity":63,"Duration":89957,"SoundDuration":89957,"Delta":94229571},{"NoteNumber":77,"Velocity":59,"Duration":89957,"SoundDuration":89957,"Delta":94229571},{"NoteNumber":82,"Velocity":59,"Duration":89223,"SoundDuration":89223,"Delta":94349368},{"NoteNumber":78,"Velocity":53,"Duration":89223,"SoundDuration":89223,"Delta":94349368},{"NoteNumber":74,"Velocity":63,"Duration":88575,"SoundDuration":88575,"Delta":94468201},{"NoteNumber":77,"Velocity":71,"Duration":88575,"SoundDuration":88575,"Delta":94468201},{"NoteNumber":78,"Velocity":67,"Duration":88575,"SoundDuration":88575,"Delta":94586302},{"NoteNumber":75,"Velocity":62,"Duration":88575,"SoundDuration":88575,"Delta":94586302},{"NoteNumber":77,"Velocity":53,"Duration":91806,"SoundDuration":91806,"Delta":94704403},{"NoteNumber":81,"Velocity":61,"Duration":91806,"SoundDuration":91806,"Delta":94704403},{"NoteNumber":78,"Velocity":70,"Duration":238815,"SoundDuration":238815,"Delta":94826812},{"NoteNumber":82,"Velocity":79,"Duration":89555,"SoundDuration":89555,"Delta":94826812},{"NoteNumber":85,"Velocity":74,"Duration":89555,"SoundDuration":89555,"Delta":94946219},{"NoteNumber":80,"Velocity":63,"Duration":89555,"SoundDuration":89555,"Delta":95065627},{"NoteNumber":84,"Velocity":71,"Duration":89555,"SoundDuration":89555,"Delta":95065627},{"NoteNumber":56,"Velocity":60,"Duration":94087,"SoundDuration":94087,"Delta":95185035},{"NoteNumber":61,"Velocity":60,"Duration":94087,"SoundDuration":94087,"Delta":95185035},{"NoteNumber":65,"Velocity":66,"Duration":94087,"SoundDuration":94087,"Delta":95185035},{"NoteNumber":68,"Velocity":64,"Duration":94087,"SoundDuration":94087,"Delta":95310484},{"NoteNumber":73,"Velocity":71,"Duration":94087,"SoundDuration":94087,"Delta":95310484},{"NoteNumber":80,"Velocity":65,"Duration":96351,"SoundDuration":96351,"Delta":95435934},{"NoteNumber":77,"Velocity":61,"Duration":96351,"SoundDuration":96351,"Delta":95435934},{"NoteNumber":89,"Velocity":79,"Duration":88276,"SoundDuration":88276,"Delta":95564403},{"NoteNumber":92,"Velocity":87,"Duration":88276,"SoundDuration":88276,"Delta":95564403},{"NoteNumber":73,"Velocity":63,"Duration":88666,"SoundDuration":88666,"Delta":95682198},{"NoteNumber":77,"Velocity":69,"Duration":88666,"SoundDuration":88666,"Delta":95682198},{"NoteNumber":75,"Velocity":55,"Duration":89062,"SoundDuration":89062,"Delta":95800495},{"NoteNumber":78,"Velocity":62,"Duration":89062,"SoundDuration":89062,"Delta":95800495},{"NoteNumber":77,"Velocity":57,"Duration":90759,"SoundDuration":90759,"Delta":95919291},{"NoteNumber":80,"Velocity":64,"Duration":90759,"SoundDuration":90759,"Delta":95919291},{"NoteNumber":78,"Velocity":55,"Duration":92040,"SoundDuration":92040,"Delta":96040533},{"NoteNumber":82,"Velocity":62,"Duration":92040,"SoundDuration":92040,"Delta":96040533},{"NoteNumber":77,"Velocity":53,"Duration":93404,"SoundDuration":93404,"Delta":96163504},{"NoteNumber":80,"Velocity":59,"Duration":93404,"SoundDuration":93404,"Delta":96163504},{"NoteNumber":73,"Velocity":65,"Duration":409619,"SoundDuration":409619,"Delta":96288302},{"NoteNumber":77,"Velocity":73,"Duration":409619,"SoundDuration":409619,"Delta":96288302},{"NoteNumber":66,"Velocity":79,"Duration":192893,"SoundDuration":192893,"Delta":96697922},{"NoteNumber":63,"Velocity":71,"Duration":192893,"SoundDuration":192893,"Delta":96697922},{"NoteNumber":58,"Velocity":71,"Duration":192893,"SoundDuration":192893,"Delta":96697922},{"NoteNumber":66,"Velocity":77,"Duration":96091,"SoundDuration":96091,"Delta":96826696},{"NoteNumber":70,"Velocity":77,"Duration":96091,"SoundDuration":96091,"Delta":96826696},{"NoteNumber":78,"Velocity":86,"Duration":96091,"SoundDuration":96091,"Delta":96826696},{"NoteNumber":75,"Velocity":86,"Duration":96091,"SoundDuration":96091,"Delta":96826696},{"NoteNumber":49,"Velocity":71,"Duration":191223,"SoundDuration":191223,"Delta":96890816},{"NoteNumber":80,"Velocity":81,"Duration":253856,"SoundDuration":253856,"Delta":96954760},{"NoteNumber":68,"Velocity":81,"Duration":253856,"SoundDuration":253856,"Delta":96954760},{"NoteNumber":66,"Velocity":79,"Duration":193049,"SoundDuration":193049,"Delta":97082039},{"NoteNumber":63,"Velocity":71,"Duration":193049,"SoundDuration":193049,"Delta":97082039},{"NoteNumber":58,"Velocity":71,"Duration":193049,"SoundDuration":193049,"Delta":97082039},{"NoteNumber":81,"Velocity":94,"Duration":99707,"SoundDuration":99707,"Delta":97208616},{"NoteNumber":78,"Velocity":94,"Duration":99707,"SoundDuration":99707,"Delta":97208616},{"NoteNumber":75,"Velocity":83,"Duration":99707,"SoundDuration":99707,"Delta":97208616},{"NoteNumber":69,"Velocity":83,"Duration":99707,"SoundDuration":99707,"Delta":97208616},{"NoteNumber":37,"Velocity":69,"Duration":210177,"SoundDuration":210177,"Delta":97275088},{"NoteNumber":82,"Velocity":86,"Duration":107779,"SoundDuration":107779,"Delta":97341559},{"NoteNumber":70,"Velocity":77,"Duration":107779,"SoundDuration":107779,"Delta":97341559},{"NoteNumber":87,"Velocity":103,"Duration":98176,"SoundDuration":98176,"Delta":97485265},{"NoteNumber":78,"Velocity":92,"Duration":98176,"SoundDuration":98176,"Delta":97485265},{"NoteNumber":75,"Velocity":92,"Duration":98176,"SoundDuration":98176,"Delta":97485265},{"NoteNumber":56,"Velocity":75,"Duration":193831,"SoundDuration":193831,"Delta":97485265},{"NoteNumber":63,"Velocity":75,"Duration":193831,"SoundDuration":193831,"Delta":97485265},{"NoteNumber":66,"Velocity":84,"Duration":193831,"SoundDuration":193831,"Delta":97485265},{"NoteNumber":86,"Velocity":87,"Duration":95260,"SoundDuration":95260,"Delta":97615502},{"NoteNumber":74,"Velocity":79,"Duration":95260,"SoundDuration":95260,"Delta":97615502},{"NoteNumber":49,"Velocity":61,"Duration":189145,"SoundDuration":189145,"Delta":97679097},{"NoteNumber":85,"Velocity":95,"Duration":94446,"SoundDuration":94446,"Delta":97742342},{"NoteNumber":73,"Velocity":84,"Duration":94446,"SoundDuration":94446,"Delta":97742342},{"NoteNumber":72,"Velocity":76,"Duration":94363,"SoundDuration":94363,"Delta":97868243},{"NoteNumber":84,"Velocity":85,"Duration":94363,"SoundDuration":94363,"Delta":97868243},{"NoteNumber":56,"Velocity":63,"Duration":188469,"SoundDuration":188469,"Delta":97868243},{"NoteNumber":63,"Velocity":63,"Duration":188469,"SoundDuration":188469,"Delta":97868243},{"NoteNumber":66,"Velocity":72,"Duration":188469,"SoundDuration":188469,"Delta":97868243},{"NoteNumber":71,"Velocity":79,"Duration":94105,"SoundDuration":94105,"Delta":97994060},{"NoteNumber":83,"Velocity":87,"Duration":94105,"SoundDuration":94105,"Delta":97994060},{"NoteNumber":37,"Velocity":63,"Duration":189574,"SoundDuration":189574,"Delta":98056712},{"NoteNumber":82,"Velocity":87,"Duration":94867,"SoundDuration":94867,"Delta":98119621},{"NoteNumber":70,"Velocity":79,"Duration":94867,"SoundDuration":94867,"Delta":98119621},{"NoteNumber":81,"Velocity":86,"Duration":97529,"SoundDuration":97529,"Delta":98246286},{"NoteNumber":77,"Velocity":86,"Duration":97529,"SoundDuration":97529,"Delta":98246286},{"NoteNumber":69,"Velocity":77,"Duration":97529,"SoundDuration":97529,"Delta":98246286},{"NoteNumber":65,"Velocity":64,"Duration":195058,"SoundDuration":195058,"Delta":98246286},{"NoteNumber":61,"Velocity":57,"Duration":195058,"SoundDuration":195058,"Delta":98246286},{"NoteNumber":56,"Velocity":57,"Duration":195058,"SoundDuration":195058,"Delta":98246286},{"NoteNumber":80,"Velocity":79,"Duration":97529,"SoundDuration":97529,"Delta":98376325},{"NoteNumber":68,"Velocity":71,"Duration":97529,"SoundDuration":97529,"Delta":98376325},{"NoteNumber":49,"Velocity":54,"Duration":195058,"SoundDuration":195058,"Delta":98441345},{"NoteNumber":73,"Velocity":79,"Duration":255856,"SoundDuration":255856,"Delta":98506364},{"NoteNumber":85,"Velocity":87,"Duration":255856,"SoundDuration":255856,"Delta":98506364},{"NoteNumber":66,"Velocity":55,"Duration":188726,"SoundDuration":188726,"Delta":98636403},{"NoteNumber":63,"Velocity":50,"Duration":188726,"SoundDuration":188726,"Delta":98636403},{"NoteNumber":57,"Velocity":50,"Duration":188726,"SoundDuration":188726,"Delta":98636403},{"NoteNumber":84,"Velocity":73,"Duration":251635,"SoundDuration":251635,"Delta":98762221},{"NoteNumber":78,"Velocity":73,"Duration":251635,"SoundDuration":251635,"Delta":98762221},{"NoteNumber":72,"Velocity":66,"Duration":251635,"SoundDuration":251635,"Delta":98762221},{"NoteNumber":37,"Velocity":44,"Duration":188726,"SoundDuration":188726,"Delta":98825130},{"NoteNumber":83,"Velocity":77,"Duration":94363,"SoundDuration":94363,"Delta":98888039},{"NoteNumber":71,"Velocity":69,"Duration":94363,"SoundDuration":94363,"Delta":98888039},{"NoteNumber":82,"Velocity":72,"Duration":99619,"SoundDuration":99619,"Delta":99013856},{"NoteNumber":77,"Velocity":72,"Duration":99619,"SoundDuration":99619,"Delta":99013856},{"NoteNumber":70,"Velocity":64,"Duration":99619,"SoundDuration":99619,"Delta":99013856},{"NoteNumber":65,"Velocity":52,"Duration":199238,"SoundDuration":199238,"Delta":99013856},{"NoteNumber":61,"Velocity":45,"Duration":199238,"SoundDuration":199238,"Delta":99013856},{"NoteNumber":58,"Velocity":45,"Duration":199238,"SoundDuration":199238,"Delta":99013856},{"NoteNumber":80,"Velocity":70,"Duration":99619,"SoundDuration":99619,"Delta":99146682},{"NoteNumber":68,"Velocity":62,"Duration":99619,"SoundDuration":99619,"Delta":99146682},{"NoteNumber":49,"Velocity":45,"Duration":646714,"SoundDuration":646714,"Delta":99213095},{"NoteNumber":82,"Velocity":64,"Duration":103173,"SoundDuration":103173,"Delta":99279508},{"NoteNumber":70,"Velocity":59,"Duration":103173,"SoundDuration":103173,"Delta":99279508},{"NoteNumber":77,"Velocity":70,"Duration":442737,"SoundDuration":442737,"Delta":99417072},{"NoteNumber":74,"Velocity":70,"Duration":442737,"SoundDuration":442737,"Delta":99417072},{"NoteNumber":68,"Velocity":63,"Duration":442737,"SoundDuration":442737,"Delta":99417072},{"NoteNumber":65,"Velocity":63,"Duration":442737,"SoundDuration":442737,"Delta":99417072},{"NoteNumber":62,"Velocity":57,"Duration":442737,"SoundDuration":442737,"Delta":99417072},{"NoteNumber":59,"Velocity":57,"Duration":442737,"SoundDuration":442737,"Delta":99417072},{"NoteNumber":56,"Velocity":51,"Duration":442737,"SoundDuration":442737,"Delta":99417072},{"NoteNumber":66,"Velocity":79,"Duration":193978,"SoundDuration":193978,"Delta":99859810},{"NoteNumber":63,"Velocity":71,"Duration":193978,"SoundDuration":193978,"Delta":99859810},{"NoteNumber":58,"Velocity":71,"Duration":193978,"SoundDuration":193978,"Delta":99859810},{"NoteNumber":78,"Velocity":73,"Duration":96091,"SoundDuration":96091,"Delta":99989669},{"NoteNumber":82,"Velocity":73,"Duration":96091,"SoundDuration":96091,"Delta":99989669},{"NoteNumber":90,"Velocity":81,"Duration":96091,"SoundDuration":96091,"Delta":99989669},{"NoteNumber":87,"Velocity":81,"Duration":96091,"SoundDuration":96091,"Delta":99989669},{"NoteNumber":49,"Velocity":71,"Duration":191223,"SoundDuration":191223,"Delta":100053788},{"NoteNumber":92,"Velocity":76,"Duration":253856,"SoundDuration":253856,"Delta":100117733},{"NoteNumber":80,"Velocity":67,"Duration":253856,"SoundDuration":253856,"Delta":100117733},{"NoteNumber":66,"Velocity":79,"Duration":193643,"SoundDuration":193643,"Delta":100245012},{"NoteNumber":63,"Velocity":71,"Duration":193643,"SoundDuration":193643,"Delta":100245012},{"NoteNumber":58,"Velocity":71,"Duration":193643,"SoundDuration":193643,"Delta":100245012},{"NoteNumber":93,"Velocity":89,"Duration":100599,"SoundDuration":100599,"Delta":100371589},{"NoteNumber":90,"Velocity":89,"Duration":100599,"SoundDuration":100599,"Delta":100371589},{"NoteNumber":87,"Velocity":89,"Duration":100599,"SoundDuration":100599,"Delta":100371589},{"NoteNumber":81,"Velocity":89,"Duration":100599,"SoundDuration":100599,"Delta":100371589},{"NoteNumber":37,"Velocity":69,"Duration":207423,"SoundDuration":207423,"Delta":100438655},{"NoteNumber":94,"Velocity":81,"Duration":105268,"SoundDuration":105268,"Delta":100505721},{"NoteNumber":82,"Velocity":73,"Duration":105268,"SoundDuration":105268,"Delta":100505721},{"NoteNumber":99,"Velocity":94,"Duration":98033,"SoundDuration":98033,"Delta":100646079},{"NoteNumber":90,"Velocity":90,"Duration":98033,"SoundDuration":98033,"Delta":100646079},{"NoteNumber":87,"Velocity":90,"Duration":98033,"SoundDuration":98033,"Delta":100646079},{"NoteNumber":56,"Velocity":75,"Duration":194260,"SoundDuration":194260,"Delta":100646079},{"NoteNumber":63,"Velocity":75,"Duration":194260,"SoundDuration":194260,"Delta":100646079},{"NoteNumber":66,"Velocity":84,"Duration":194260,"SoundDuration":194260,"Delta":100646079},{"NoteNumber":98,"Velocity":82,"Duration":95916,"SoundDuration":95916,"Delta":100776396},{"NoteNumber":86,"Velocity":74,"Duration":95916,"SoundDuration":95916,"Delta":100776396},{"NoteNumber":49,"Velocity":64,"Duration":190434,"SoundDuration":190434,"Delta":100840340},{"NoteNumber":97,"Velocity":90,"Duration":95085,"SoundDuration":95085,"Delta":100904109},{"NoteNumber":85,"Velocity":80,"Duration":95085,"SoundDuration":95085,"Delta":100904109},{"NoteNumber":84,"Velocity":74,"Duration":94736,"SoundDuration":94736,"Delta":101030774},{"NoteNumber":96,"Velocity":83,"Duration":94736,"SoundDuration":94736,"Delta":101030774},{"NoteNumber":56,"Velocity":63,"Duration":189822,"SoundDuration":189822,"Delta":101030774},{"NoteNumber":63,"Velocity":63,"Duration":189822,"SoundDuration":189822,"Delta":101030774},{"NoteNumber":66,"Velocity":72,"Duration":189822,"SoundDuration":189822,"Delta":101030774},{"NoteNumber":83,"Velocity":76,"Duration":95261,"SoundDuration":95261,"Delta":101157177},{"NoteNumber":95,"Velocity":85,"Duration":95261,"SoundDuration":95261,"Delta":101157177},{"NoteNumber":37,"Velocity":63,"Duration":191572,"SoundDuration":191572,"Delta":101220597},{"NoteNumber":94,"Velocity":82,"Duration":95829,"SoundDuration":95829,"Delta":101284280},{"NoteNumber":82,"Velocity":74,"Duration":95829,"SoundDuration":95829,"Delta":101284280},{"NoteNumber":93,"Velocity":85,"Duration":97529,"SoundDuration":97529,"Delta":101412169},{"NoteNumber":89,"Velocity":85,"Duration":97529,"SoundDuration":97529,"Delta":101412169},{"NoteNumber":81,"Velocity":76,"Duration":97529,"SoundDuration":97529,"Delta":101412169},{"NoteNumber":65,"Velocity":64,"Duration":195058,"SoundDuration":195058,"Delta":101412169},{"NoteNumber":61,"Velocity":57,"Duration":195058,"SoundDuration":195058,"Delta":101412169},{"NoteNumber":56,"Velocity":57,"Duration":195058,"SoundDuration":195058,"Delta":101412169},{"NoteNumber":92,"Velocity":75,"Duration":97529,"SoundDuration":97529,"Delta":101542208},{"NoteNumber":80,"Velocity":67,"Duration":97529,"SoundDuration":97529,"Delta":101542208},{"NoteNumber":49,"Velocity":54,"Duration":195058,"SoundDuration":195058,"Delta":101607227},{"NoteNumber":85,"Velocity":74,"Duration":255856,"SoundDuration":255856,"Delta":101672247},{"NoteNumber":97,"Velocity":82,"Duration":255856,"SoundDuration":255856,"Delta":101672247},{"NoteNumber":66,"Velocity":55,"Duration":188726,"SoundDuration":188726,"Delta":101802286},{"NoteNumber":63,"Velocity":50,"Duration":188726,"SoundDuration":188726,"Delta":101802286},{"NoteNumber":57,"Velocity":50,"Duration":188726,"SoundDuration":188726,"Delta":101802286},{"NoteNumber":96,"Velocity":65,"Duration":251635,"SoundDuration":251635,"Delta":101928104},{"NoteNumber":90,"Velocity":59,"Duration":251635,"SoundDuration":251635,"Delta":101928104},{"NoteNumber":84,"Velocity":57,"Duration":251635,"SoundDuration":251635,"Delta":101928104},{"NoteNumber":37,"Velocity":44,"Duration":188726,"SoundDuration":188726,"Delta":101991013},{"NoteNumber":95,"Velocity":74,"Duration":94363,"SoundDuration":94363,"Delta":102053921},{"NoteNumber":83,"Velocity":65,"Duration":94363,"SoundDuration":94363,"Delta":102053921},{"NoteNumber":94,"Velocity":70,"Duration":99619,"SoundDuration":99619,"Delta":102179739},{"NoteNumber":89,"Velocity":70,"Duration":99619,"SoundDuration":99619,"Delta":102179739},{"NoteNumber":82,"Velocity":63,"Duration":99619,"SoundDuration":99619,"Delta":102179739},{"NoteNumber":65,"Velocity":52,"Duration":199238,"SoundDuration":199238,"Delta":102179739},{"NoteNumber":61,"Velocity":45,"Duration":199238,"SoundDuration":199238,"Delta":102179739},{"NoteNumber":58,"Velocity":45,"Duration":199238,"SoundDuration":199238,"Delta":102179739},{"NoteNumber":92,"Velocity":66,"Duration":99619,"SoundDuration":99619,"Delta":102312565},{"NoteNumber":80,"Velocity":59,"Duration":99619,"SoundDuration":99619,"Delta":102312565},{"NoteNumber":49,"Velocity":45,"Duration":203977,"SoundDuration":203977,"Delta":102378978},{"NoteNumber":94,"Velocity":63,"Duration":103173,"SoundDuration":103173,"Delta":102445391},{"NoteNumber":82,"Velocity":55,"Duration":103173,"SoundDuration":103173,"Delta":102445391},{"NoteNumber":89,"Velocity":63,"Duration":438707,"SoundDuration":438707,"Delta":102582955},{"NoteNumber":86,"Velocity":63,"Duration":438707,"SoundDuration":438707,"Delta":102582955},{"NoteNumber":80,"Velocity":56,"Duration":438707,"SoundDuration":438707,"Delta":102582955},{"NoteNumber":77,"Velocity":56,"Duration":438707,"SoundDuration":438707,"Delta":102582955},{"NoteNumber":62,"Velocity":51,"Duration":438707,"SoundDuration":438707,"Delta":102582955},{"NoteNumber":71,"Velocity":57,"Duration":438707,"SoundDuration":438707,"Delta":102582955},{"NoteNumber":68,"Velocity":57,"Duration":438707,"SoundDuration":438707,"Delta":102582955},{"NoteNumber":59,"Velocity":51,"Duration":438707,"SoundDuration":438707,"Delta":102582955},{"NoteNumber":50,"Velocity":51,"Duration":92783,"SoundDuration":92783,"Delta":103021663},{"NoteNumber":37,"Velocity":41,"Duration":92783,"SoundDuration":92783,"Delta":103021663},{"NoteNumber":54,"Velocity":47,"Duration":92009,"SoundDuration":92009,"Delta":103145288},{"NoteNumber":51,"Velocity":47,"Duration":92009,"SoundDuration":92009,"Delta":103145288},{"NoteNumber":44,"Velocity":36,"Duration":92009,"SoundDuration":92009,"Delta":103145288},{"NoteNumber":53,"Velocity":47,"Duration":91248,"SoundDuration":91248,"Delta":103267883},{"NoteNumber":37,"Velocity":41,"Duration":91248,"SoundDuration":91248,"Delta":103267883},{"NoteNumber":58,"Velocity":54,"Duration":90623,"SoundDuration":90623,"Delta":103389464},{"NoteNumber":54,"Velocity":54,"Duration":90623,"SoundDuration":90623,"Delta":103389464},{"NoteNumber":44,"Velocity":36,"Duration":90623,"SoundDuration":90623,"Delta":103389464},{"NoteNumber":57,"Velocity":52,"Duration":90623,"SoundDuration":90623,"Delta":103510295},{"NoteNumber":37,"Velocity":43,"Duration":90623,"SoundDuration":90623,"Delta":103510295},{"NoteNumber":58,"Velocity":52,"Duration":96162,"SoundDuration":96162,"Delta":103631126},{"NoteNumber":61,"Velocity":52,"Duration":96162,"SoundDuration":96162,"Delta":103631126},{"NoteNumber":44,"Velocity":40,"Duration":96162,"SoundDuration":96162,"Delta":103631126},{"NoteNumber":59,"Velocity":52,"Duration":90623,"SoundDuration":90623,"Delta":103759342},{"NoteNumber":37,"Velocity":45,"Duration":90623,"SoundDuration":90623,"Delta":103759342},{"NoteNumber":60,"Velocity":46,"Duration":90623,"SoundDuration":90623,"Delta":103880173},{"NoteNumber":63,"Velocity":60,"Duration":90623,"SoundDuration":90623,"Delta":103880173},{"NoteNumber":44,"Velocity":41,"Duration":90623,"SoundDuration":90623,"Delta":103880173},{"NoteNumber":58,"Velocity":41,"Duration":90623,"SoundDuration":90623,"Delta":104001005},{"NoteNumber":61,"Velocity":52,"Duration":90623,"SoundDuration":90623,"Delta":104001005},{"NoteNumber":49,"Velocity":41,"Duration":90623,"SoundDuration":90623,"Delta":104001005},{"NoteNumber":56,"Velocity":41,"Duration":89680,"SoundDuration":89680,"Delta":104121836},{"NoteNumber":60,"Velocity":52,"Duration":89680,"SoundDuration":89680,"Delta":104121836},{"NoteNumber":56,"Velocity":44,"Duration":89680,"SoundDuration":89680,"Delta":104121836},{"NoteNumber":55,"Velocity":52,"Duration":91039,"SoundDuration":91039,"Delta":104241682},{"NoteNumber":49,"Velocity":41,"Duration":91039,"SoundDuration":91039,"Delta":104241682},{"NoteNumber":54,"Velocity":51,"Duration":92181,"SoundDuration":92181,"Delta":104363264},{"NoteNumber":58,"Velocity":51,"Duration":92181,"SoundDuration":92181,"Delta":104363264},{"NoteNumber":44,"Velocity":41,"Duration":92181,"SoundDuration":92181,"Delta":104363264},{"NoteNumber":52,"Velocity":51,"Duration":92395,"SoundDuration":92395,"Delta":104486287},{"NoteNumber":37,"Velocity":41,"Duration":92395,"SoundDuration":92395,"Delta":104486287},{"NoteNumber":53,"Velocity":47,"Duration":91839,"SoundDuration":91839,"Delta":104609394},{"NoteNumber":56,"Velocity":47,"Duration":91839,"SoundDuration":91839,"Delta":104609394},{"NoteNumber":44,"Velocity":36,"Duration":91839,"SoundDuration":91839,"Delta":104609394},{"NoteNumber":55,"Velocity":47,"Duration":91248,"SoundDuration":91248,"Delta":104731734},{"NoteNumber":37,"Velocity":41,"Duration":91248,"SoundDuration":91248,"Delta":104731734},{"NoteNumber":56,"Velocity":56,"Duration":90623,"SoundDuration":90623,"Delta":104853315},{"NoteNumber":60,"Velocity":56,"Duration":90623,"SoundDuration":90623,"Delta":104853315},{"NoteNumber":44,"Velocity":36,"Duration":90623,"SoundDuration":90623,"Delta":104853315},{"NoteNumber":59,"Velocity":53,"Duration":90623,"SoundDuration":90623,"Delta":104974146},{"NoteNumber":37,"Velocity":43,"Duration":90623,"SoundDuration":90623,"Delta":104974146},{"NoteNumber":60,"Velocity":53,"Duration":96162,"SoundDuration":96162,"Delta":105094978},{"NoteNumber":63,"Velocity":53,"Duration":96162,"SoundDuration":96162,"Delta":105094978},{"NoteNumber":44,"Velocity":40,"Duration":96162,"SoundDuration":96162,"Delta":105094978},{"NoteNumber":60,"Velocity":52,"Duration":90623,"SoundDuration":90623,"Delta":105223194},{"NoteNumber":37,"Velocity":45,"Duration":90623,"SoundDuration":90623,"Delta":105223194},{"NoteNumber":61,"Velocity":46,"Duration":90623,"SoundDuration":90623,"Delta":105344025},{"NoteNumber":65,"Velocity":60,"Duration":90623,"SoundDuration":90623,"Delta":105344025},{"NoteNumber":44,"Velocity":41,"Duration":90623,"SoundDuration":90623,"Delta":105344025},{"NoteNumber":60,"Velocity":44,"Duration":90581,"SoundDuration":90581,"Delta":105464856},{"NoteNumber":63,"Velocity":55,"Duration":90581,"SoundDuration":90581,"Delta":105464856},{"NoteNumber":49,"Velocity":41,"Duration":90581,"SoundDuration":90581,"Delta":105464856},{"NoteNumber":58,"Velocity":45,"Duration":90664,"SoundDuration":90664,"Delta":105585519},{"NoteNumber":61,"Velocity":57,"Duration":90664,"SoundDuration":90664,"Delta":105585519},{"NoteNumber":56,"Velocity":44,"Duration":90664,"SoundDuration":90664,"Delta":105585519},{"NoteNumber":57,"Velocity":53,"Duration":91627,"SoundDuration":91627,"Delta":105706516},{"NoteNumber":49,"Velocity":41,"Duration":91627,"SoundDuration":91627,"Delta":105706516},{"NoteNumber":56,"Velocity":53,"Duration":92568,"SoundDuration":92568,"Delta":105828856},{"NoteNumber":60,"Velocity":53,"Duration":92568,"SoundDuration":92568,"Delta":105828856},{"NoteNumber":44,"Velocity":41,"Duration":92568,"SoundDuration":92568,"Delta":105828856},{"NoteNumber":53,"Velocity":51,"Duration":90464,"SoundDuration":90464,"Delta":105952483},{"NoteNumber":37,"Velocity":41,"Duration":90464,"SoundDuration":90464,"Delta":105952483},{"NoteNumber":54,"Velocity":47,"Duration":89949,"SoundDuration":89949,"Delta":106073010},{"NoteNumber":58,"Velocity":47,"Duration":89949,"SoundDuration":89949,"Delta":106073010},{"NoteNumber":44,"Velocity":36,"Duration":89949,"SoundDuration":89949,"Delta":106073010},{"NoteNumber":57,"Velocity":47,"Duration":89416,"SoundDuration":89416,"Delta":106192859},{"NoteNumber":37,"Velocity":41,"Duration":89416,"SoundDuration":89416,"Delta":106192859},{"NoteNumber":58,"Velocity":54,"Duration":88939,"SoundDuration":88939,"Delta":106312021},{"NoteNumber":61,"Velocity":54,"Duration":88939,"SoundDuration":88939,"Delta":106312021},{"NoteNumber":44,"Velocity":36,"Duration":88939,"SoundDuration":88939,"Delta":106312021},{"NoteNumber":60,"Velocity":52,"Duration":88939,"SoundDuration":88939,"Delta":106430607},{"NoteNumber":37,"Velocity":43,"Duration":88939,"SoundDuration":88939,"Delta":106430607},{"NoteNumber":65,"Velocity":52,"Duration":94840,"SoundDuration":94840,"Delta":106549194},{"NoteNumber":61,"Velocity":52,"Duration":94840,"SoundDuration":94840,"Delta":106549194},{"NoteNumber":44,"Velocity":40,"Duration":94840,"SoundDuration":94840,"Delta":106549194},{"NoteNumber":62,"Velocity":52,"Duration":88939,"SoundDuration":88939,"Delta":106675648},{"NoteNumber":37,"Velocity":45,"Duration":88939,"SoundDuration":88939,"Delta":106675648},{"NoteNumber":66,"Velocity":60,"Duration":88939,"SoundDuration":88939,"Delta":106794235},{"NoteNumber":63,"Velocity":46,"Duration":88939,"SoundDuration":88939,"Delta":106794235},{"NoteNumber":44,"Velocity":41,"Duration":88939,"SoundDuration":88939,"Delta":106794235},{"NoteNumber":65,"Velocity":52,"Duration":88939,"SoundDuration":88939,"Delta":106912821},{"NoteNumber":61,"Velocity":41,"Duration":88939,"SoundDuration":88939,"Delta":106912821},{"NoteNumber":49,"Velocity":41,"Duration":88939,"SoundDuration":88939,"Delta":106912821},{"NoteNumber":63,"Velocity":52,"Duration":88476,"SoundDuration":88476,"Delta":107031408},{"NoteNumber":60,"Velocity":41,"Duration":88476,"SoundDuration":88476,"Delta":107031408},{"NoteNumber":56,"Velocity":44,"Duration":88476,"SoundDuration":88476,"Delta":107031408},{"NoteNumber":59,"Velocity":52,"Duration":89071,"SoundDuration":89071,"Delta":107149481},{"NoteNumber":49,"Velocity":41,"Duration":89071,"SoundDuration":89071,"Delta":107149481},{"NoteNumber":61,"Velocity":51,"Duration":93703,"SoundDuration":93703,"Delta":107268350},{"NoteNumber":58,"Velocity":51,"Duration":93703,"SoundDuration":93703,"Delta":107268350},{"NoteNumber":44,"Velocity":41,"Duration":93703,"SoundDuration":93703,"Delta":107268350},{"NoteNumber":64,"Velocity":52,"Duration":88939,"SoundDuration":88939,"Delta":107392519},{"NoteNumber":37,"Velocity":45,"Duration":88939,"SoundDuration":88939,"Delta":107392519},{"NoteNumber":68,"Velocity":60,"Duration":88939,"SoundDuration":88939,"Delta":107511106},{"NoteNumber":65,"Velocity":46,"Duration":88939,"SoundDuration":88939,"Delta":107511106},{"NoteNumber":44,"Velocity":41,"Duration":88939,"SoundDuration":88939,"Delta":107511106},{"NoteNumber":66,"Velocity":52,"Duration":88939,"SoundDuration":88939,"Delta":107629692},{"NoteNumber":63,"Velocity":41,"Duration":88939,"SoundDuration":88939,"Delta":107629692},{"NoteNumber":49,"Velocity":41,"Duration":88939,"SoundDuration":88939,"Delta":107629692},{"NoteNumber":65,"Velocity":52,"Duration":88476,"SoundDuration":88476,"Delta":107748279},{"NoteNumber":61,"Velocity":41,"Duration":88476,"SoundDuration":88476,"Delta":107748279},{"NoteNumber":56,"Velocity":44,"Duration":88476,"SoundDuration":88476,"Delta":107748279},{"NoteNumber":59,"Velocity":52,"Duration":89071,"SoundDuration":89071,"Delta":107866352},{"NoteNumber":49,"Velocity":41,"Duration":89071,"SoundDuration":89071,"Delta":107866352},{"NoteNumber":63,"Velocity":51,"Duration":91145,"SoundDuration":91145,"Delta":107985221},{"NoteNumber":60,"Velocity":51,"Duration":91145,"SoundDuration":91145,"Delta":107985221},{"NoteNumber":44,"Velocity":41,"Duration":91145,"SoundDuration":91145,"Delta":107985221},{"NoteNumber":65,"Velocity":52,"Duration":88939,"SoundDuration":88939,"Delta":108107862},{"NoteNumber":37,"Velocity":45,"Duration":88939,"SoundDuration":88939,"Delta":108107862},{"NoteNumber":70,"Velocity":60,"Duration":88939,"SoundDuration":88939,"Delta":108226448},{"NoteNumber":66,"Velocity":46,"Duration":88939,"SoundDuration":88939,"Delta":108226448},{"NoteNumber":44,"Velocity":41,"Duration":88939,"SoundDuration":88939,"Delta":108226448},{"NoteNumber":68,"Velocity":52,"Duration":88939,"SoundDuration":88939,"Delta":108345035},{"NoteNumber":65,"Velocity":41,"Duration":88939,"SoundDuration":88939,"Delta":108345035},{"NoteNumber":49,"Velocity":41,"Duration":88939,"SoundDuration":88939,"Delta":108345035},{"NoteNumber":66,"Velocity":52,"Duration":88476,"SoundDuration":88476,"Delta":108463621},{"NoteNumber":63,"Velocity":41,"Duration":88476,"SoundDuration":88476,"Delta":108463621},{"NoteNumber":56,"Velocity":44,"Duration":88476,"SoundDuration":88476,"Delta":108463621},{"NoteNumber":62,"Velocity":52,"Duration":89071,"SoundDuration":89071,"Delta":108581695},{"NoteNumber":49,"Velocity":41,"Duration":89071,"SoundDuration":89071,"Delta":108581695},{"NoteNumber":65,"Velocity":51,"Duration":89715,"SoundDuration":89715,"Delta":108700564},{"NoteNumber":61,"Velocity":51,"Duration":89715,"SoundDuration":89715,"Delta":108700564},{"NoteNumber":44,"Velocity":41,"Duration":89715,"SoundDuration":89715,"Delta":108700564},{"NoteNumber":62,"Velocity":53,"Duration":88786,"SoundDuration":88786,"Delta":108820321},{"NoteNumber":37,"Velocity":43,"Duration":235919,"SoundDuration":235919,"Delta":108820321},{"NoteNumber":66,"Velocity":50,"Duration":88284,"SoundDuration":88284,"Delta":108938611},{"NoteNumber":63,"Velocity":50,"Duration":88284,"SoundDuration":88284,"Delta":108938611},{"NoteNumber":49,"Velocity":37,"Duration":88284,"SoundDuration":88284,"Delta":108938611},{"NoteNumber":65,"Velocity":50,"Duration":87760,"SoundDuration":87760,"Delta":109056240},{"NoteNumber":54,"Velocity":64,"Duration":233333,"SoundDuration":233333,"Delta":109056240},{"NoteNumber":70,"Velocity":57,"Duration":87283,"SoundDuration":87283,"Delta":109173195},{"NoteNumber":66,"Velocity":57,"Duration":87283,"SoundDuration":87283,"Delta":109173195},{"NoteNumber":42,"Velocity":39,"Duration":87283,"SoundDuration":87283,"Delta":109173195},{"NoteNumber":69,"Velocity":53,"Duration":87283,"SoundDuration":87283,"Delta":109289573},{"NoteNumber":51,"Velocity":62,"Duration":240498,"SoundDuration":240498,"Delta":109289573},{"NoteNumber":70,"Velocity":54,"Duration":93090,"SoundDuration":93090,"Delta":109405952},{"NoteNumber":73,"Velocity":54,"Duration":93090,"SoundDuration":93090,"Delta":109405952},{"NoteNumber":39,"Velocity":42,"Duration":93090,"SoundDuration":93090,"Delta":109405952},{"NoteNumber":71,"Velocity":54,"Duration":87283,"SoundDuration":87283,"Delta":109530072},{"NoteNumber":37,"Velocity":47,"Duration":232756,"SoundDuration":232756,"Delta":109530072},{"NoteNumber":72,"Velocity":50,"Duration":87283,"SoundDuration":87283,"Delta":109646451},{"NoteNumber":75,"Velocity":63,"Duration":87283,"SoundDuration":87283,"Delta":109646451},{"NoteNumber":49,"Velocity":43,"Duration":87283,"SoundDuration":87283,"Delta":109646451},{"NoteNumber":70,"Velocity":44,"Duration":87283,"SoundDuration":87283,"Delta":109762829},{"NoteNumber":73,"Velocity":54,"Duration":87283,"SoundDuration":87283,"Delta":109762829},{"NoteNumber":56,"Velocity":72,"Duration":232265,"SoundDuration":232265,"Delta":109762829},{"NoteNumber":68,"Velocity":44,"Duration":86837,"SoundDuration":86837,"Delta":109879207},{"NoteNumber":72,"Velocity":54,"Duration":86837,"SoundDuration":86837,"Delta":109879207},{"NoteNumber":44,"Velocity":45,"Duration":86837,"SoundDuration":86837,"Delta":109879207},{"NoteNumber":67,"Velocity":55,"Duration":87422,"SoundDuration":87422,"Delta":109995094},{"NoteNumber":60,"Velocity":67,"Duration":234209,"SoundDuration":234209,"Delta":109995094},{"NoteNumber":66,"Velocity":54,"Duration":88055,"SoundDuration":88055,"Delta":110111763},{"NoteNumber":70,"Velocity":54,"Duration":88055,"SoundDuration":88055,"Delta":110111763},{"NoteNumber":48,"Velocity":46,"Duration":88055,"SoundDuration":88055,"Delta":110111763},{"NoteNumber":64,"Velocity":59,"Duration":88786,"SoundDuration":88786,"Delta":110229303},{"NoteNumber":37,"Velocity":45,"Duration":235919,"SoundDuration":235919,"Delta":110229303},{"NoteNumber":65,"Velocity":54,"Duration":88284,"SoundDuration":88284,"Delta":110347594},{"NoteNumber":68,"Velocity":54,"Duration":88284,"SoundDuration":88284,"Delta":110347594},{"NoteNumber":49,"Velocity":42,"Duration":88284,"SoundDuration":88284,"Delta":110347594},{"NoteNumber":67,"Velocity":54,"Duration":87760,"SoundDuration":87760,"Delta":110465223},{"NoteNumber":56,"Velocity":73,"Duration":233333,"SoundDuration":233333,"Delta":110465223},{"NoteNumber":68,"Velocity":65,"Duration":87283,"SoundDuration":87283,"Delta":110582178},{"NoteNumber":72,"Velocity":65,"Duration":87283,"SoundDuration":87283,"Delta":110582178},{"NoteNumber":44,"Velocity":43,"Duration":87283,"SoundDuration":87283,"Delta":110582178},{"NoteNumber":71,"Velocity":62,"Duration":87283,"SoundDuration":87283,"Delta":110698556},{"NoteNumber":53,"Velocity":67,"Duration":240498,"SoundDuration":240498,"Delta":110698556},{"NoteNumber":72,"Velocity":62,"Duration":93090,"SoundDuration":93090,"Delta":110814934},{"NoteNumber":75,"Velocity":62,"Duration":93090,"SoundDuration":93090,"Delta":110814934},{"NoteNumber":41,"Velocity":45,"Duration":93090,"SoundDuration":93090,"Delta":110814934},{"NoteNumber":72,"Velocity":61,"Duration":87283,"SoundDuration":87283,"Delta":110939055},{"NoteNumber":37,"Velocity":53,"Duration":232756,"SoundDuration":232756,"Delta":110939055},{"NoteNumber":73,"Velocity":54,"Duration":87283,"SoundDuration":87283,"Delta":111055433},{"NoteNumber":77,"Velocity":69,"Duration":87283,"SoundDuration":87283,"Delta":111055433},{"NoteNumber":49,"Velocity":46,"Duration":87283,"SoundDuration":87283,"Delta":111055433},{"NoteNumber":72,"Velocity":52,"Duration":87283,"SoundDuration":87283,"Delta":111171812},{"NoteNumber":75,"Velocity":65,"Duration":87283,"SoundDuration":87283,"Delta":111171812},{"NoteNumber":58,"Velocity":80,"Duration":232265,"SoundDuration":232265,"Delta":111171812},{"NoteNumber":70,"Velocity":53,"Duration":86837,"SoundDuration":86837,"Delta":111288190},{"NoteNumber":73,"Velocity":67,"Duration":86837,"SoundDuration":86837,"Delta":111288190},{"NoteNumber":46,"Velocity":51,"Duration":86837,"SoundDuration":86837,"Delta":111288190},{"NoteNumber":69,"Velocity":63,"Duration":87422,"SoundDuration":87422,"Delta":111404077},{"NoteNumber":61,"Velocity":72,"Duration":234209,"SoundDuration":234209,"Delta":111404077},{"NoteNumber":68,"Velocity":62,"Duration":88055,"SoundDuration":88055,"Delta":111520746},{"NoteNumber":72,"Velocity":62,"Duration":88055,"SoundDuration":88055,"Delta":111520746},{"NoteNumber":49,"Velocity":47,"Duration":88055,"SoundDuration":88055,"Delta":111520746},{"NoteNumber":65,"Velocity":63,"Duration":86832,"SoundDuration":86832,"Delta":111638286},{"NoteNumber":37,"Velocity":51,"Duration":230728,"SoundDuration":230728,"Delta":111638286},{"NoteNumber":66,"Velocity":61,"Duration":86341,"SoundDuration":86341,"Delta":111753974},{"NoteNumber":70,"Velocity":61,"Duration":86341,"SoundDuration":86341,"Delta":111753974},{"NoteNumber":49,"Velocity":45,"Duration":86341,"SoundDuration":86341,"Delta":111753974},{"NoteNumber":69,"Velocity":61,"Duration":85829,"SoundDuration":85829,"Delta":111869014},{"NoteNumber":58,"Velocity":83,"Duration":228198,"SoundDuration":228198,"Delta":111869014},{"NoteNumber":70,"Velocity":70,"Duration":85363,"SoundDuration":85363,"Delta":111983396},{"NoteNumber":73,"Velocity":70,"Duration":85363,"SoundDuration":85363,"Delta":111983396},{"NoteNumber":46,"Velocity":46,"Duration":85363,"SoundDuration":85363,"Delta":111983396},{"NoteNumber":72,"Velocity":66,"Duration":85363,"SoundDuration":85363,"Delta":112097213},{"NoteNumber":54,"Velocity":81,"Duration":235206,"SoundDuration":235206,"Delta":112097213},{"NoteNumber":77,"Velocity":66,"Duration":91041,"SoundDuration":91041,"Delta":112211031},{"NoteNumber":73,"Velocity":66,"Duration":91041,"SoundDuration":91041,"Delta":112211031},{"NoteNumber":42,"Velocity":52,"Duration":91041,"SoundDuration":91041,"Delta":112211031},{"NoteNumber":74,"Velocity":66,"Duration":85363,"SoundDuration":85363,"Delta":112332420},{"NoteNumber":37,"Velocity":59,"Duration":227635,"SoundDuration":227635,"Delta":112332420},{"NoteNumber":78,"Velocity":79,"Duration":85363,"SoundDuration":85363,"Delta":112446237},{"NoteNumber":75,"Velocity":62,"Duration":85363,"SoundDuration":85363,"Delta":112446237},{"NoteNumber":49,"Velocity":53,"Duration":85363,"SoundDuration":85363,"Delta":112446237},{"NoteNumber":77,"Velocity":69,"Duration":85363,"SoundDuration":85363,"Delta":112560055},{"NoteNumber":73,"Velocity":54,"Duration":85363,"SoundDuration":85363,"Delta":112560055},{"NoteNumber":63,"Velocity":89,"Duration":227150,"SoundDuration":227150,"Delta":112560055},{"NoteNumber":75,"Velocity":69,"Duration":84924,"SoundDuration":84924,"Delta":112673872},{"NoteNumber":72,"Velocity":54,"Duration":84924,"SoundDuration":84924,"Delta":112673872},{"NoteNumber":51,"Velocity":57,"Duration":84924,"SoundDuration":84924,"Delta":112673872},{"NoteNumber":71,"Velocity":70,"Duration":85499,"SoundDuration":85499,"Delta":112787205},{"NoteNumber":66,"Velocity":84,"Duration":229056,"SoundDuration":229056,"Delta":112787205},{"NoteNumber":73,"Velocity":69,"Duration":86117,"SoundDuration":86117,"Delta":112901308},{"NoteNumber":70,"Velocity":69,"Duration":86117,"SoundDuration":86117,"Delta":112901308},{"NoteNumber":54,"Velocity":57,"Duration":86117,"SoundDuration":86117,"Delta":112901308},{"NoteNumber":76,"Velocity":74,"Duration":86832,"SoundDuration":86832,"Delta":113016262},{"NoteNumber":37,"Velocity":59,"Duration":230728,"SoundDuration":230728,"Delta":113016262},{"NoteNumber":80,"Velocity":85,"Duration":86341,"SoundDuration":86341,"Delta":113131949},{"NoteNumber":77,"Velocity":67,"Duration":86341,"SoundDuration":86341,"Delta":113131949},{"NoteNumber":49,"Velocity":52,"Duration":86341,"SoundDuration":86341,"Delta":113131949},{"NoteNumber":78,"Velocity":74,"Duration":85829,"SoundDuration":85829,"Delta":113246990},{"NoteNumber":75,"Velocity":59,"Duration":85829,"SoundDuration":85829,"Delta":113246990},{"NoteNumber":58,"Velocity":97,"Duration":228253,"SoundDuration":228253,"Delta":113246990},{"NoteNumber":77,"Velocity":75,"Duration":85346,"SoundDuration":85346,"Delta":113361371},{"NoteNumber":73,"Velocity":60,"Duration":85346,"SoundDuration":85346,"Delta":113361371},{"NoteNumber":46,"Velocity":53,"Duration":85346,"SoundDuration":85346,"Delta":113361371},{"NoteNumber":71,"Velocity":75,"Duration":86071,"SoundDuration":86071,"Delta":113475243},{"NoteNumber":60,"Velocity":89,"Duration":236327,"SoundDuration":236327,"Delta":113475243},{"NoteNumber":75,"Velocity":74,"Duration":91041,"SoundDuration":91041,"Delta":113590182},{"NoteNumber":72,"Velocity":74,"Duration":91041,"SoundDuration":91041,"Delta":113590182},{"NoteNumber":48,"Velocity":59,"Duration":91041,"SoundDuration":91041,"Delta":113590182},{"NoteNumber":77,"Velocity":80,"Duration":85363,"SoundDuration":85363,"Delta":113711571},{"NoteNumber":37,"Velocity":70,"Duration":227635,"SoundDuration":227635,"Delta":113711571},{"NoteNumber":82,"Velocity":90,"Duration":85363,"SoundDuration":85363,"Delta":113825388},{"NoteNumber":78,"Velocity":72,"Duration":85363,"SoundDuration":85363,"Delta":113825388},{"NoteNumber":49,"Velocity":62,"Duration":85363,"SoundDuration":85363,"Delta":113825388},{"NoteNumber":80,"Velocity":80,"Duration":85363,"SoundDuration":85363,"Delta":113939206},{"NoteNumber":77,"Velocity":63,"Duration":85363,"SoundDuration":85363,"Delta":113939206},{"NoteNumber":60,"Velocity":97,"Duration":227150,"SoundDuration":227150,"Delta":113939206},{"NoteNumber":78,"Velocity":80,"Duration":84924,"SoundDuration":84924,"Delta":114053023},{"NoteNumber":75,"Velocity":63,"Duration":84924,"SoundDuration":84924,"Delta":114053023},{"NoteNumber":48,"Velocity":66,"Duration":84924,"SoundDuration":84924,"Delta":114053023},{"NoteNumber":74,"Velocity":81,"Duration":85499,"SoundDuration":85499,"Delta":114166356},{"NoteNumber":61,"Velocity":92,"Duration":241739,"SoundDuration":241739,"Delta":114166356},{"NoteNumber":77,"Velocity":79,"Duration":97038,"SoundDuration":97038,"Delta":114280459},{"NoteNumber":73,"Velocity":79,"Duration":97038,"SoundDuration":97038,"Delta":114280459},{"NoteNumber":49,"Velocity":63,"Duration":511679,"SoundDuration":511679,"Delta":114280459},{"NoteNumber":66,"Velocity":103,"Duration":95266,"SoundDuration":95266,"Delta":114408096},{"NoteNumber":50,"Velocity":66,"Duration":384042,"SoundDuration":384042,"Delta":114408096},{"NoteNumber":62,"Velocity":74,"Duration":384042,"SoundDuration":384042,"Delta":114408096},{"NoteNumber":57,"Velocity":74,"Duration":384042,"SoundDuration":384042,"Delta":114408096},{"NoteNumber":54,"Velocity":66,"Duration":384042,"SoundDuration":384042,"Delta":114408096},{"NoteNumber":74,"Velocity":87,"Duration":95266,"SoundDuration":95266,"Delta":114535117},{"NoteNumber":78,"Velocity":100,"Duration":95266,"SoundDuration":95266,"Delta":114535117},{"NoteNumber":78,"Velocity":79,"Duration":250759,"SoundDuration":250759,"Delta":114662139},{"NoteNumber":90,"Velocity":91,"Duration":90663,"SoundDuration":90663,"Delta":114792138},{"NoteNumber":86,"Velocity":79,"Duration":90663,"SoundDuration":90663,"Delta":114792138},{"NoteNumber":37,"Velocity":69,"Duration":359569,"SoundDuration":359569,"Delta":114792138},{"NoteNumber":49,"Velocity":69,"Duration":359569,"SoundDuration":359569,"Delta":114792138},{"NoteNumber":85,"Velocity":68,"Duration":89957,"SoundDuration":89957,"Delta":114912898},{"NoteNumber":89,"Velocity":78,"Duration":89957,"SoundDuration":89957,"Delta":114912898},{"NoteNumber":77,"Velocity":68,"Duration":89957,"SoundDuration":89957,"Delta":114912898},{"NoteNumber":86,"Velocity":66,"Duration":89278,"SoundDuration":89278,"Delta":115032695},{"NoteNumber":90,"Velocity":77,"Duration":89278,"SoundDuration":89278,"Delta":115032695},{"NoteNumber":78,"Velocity":66,"Duration":89278,"SoundDuration":89278,"Delta":115032695},{"NoteNumber":85,"Velocity":96,"Duration":89200,"SoundDuration":89200,"Delta":115151708},{"NoteNumber":82,"Velocity":82,"Duration":89200,"SoundDuration":89200,"Delta":115151708},{"NoteNumber":73,"Velocity":82,"Duration":89200,"SoundDuration":89200,"Delta":115151708},{"NoteNumber":66,"Velocity":71,"Duration":360277,"SoundDuration":360277,"Delta":115151708},{"NoteNumber":62,"Velocity":71,"Duration":360277,"SoundDuration":360277,"Delta":115151708},{"NoteNumber":56,"Velocity":63,"Duration":360277,"SoundDuration":360277,"Delta":115151708},{"NoteNumber":74,"Velocity":72,"Duration":89200,"SoundDuration":89200,"Delta":115270642},{"NoteNumber":86,"Velocity":83,"Duration":89200,"SoundDuration":89200,"Delta":115270642},{"NoteNumber":83,"Velocity":72,"Duration":89200,"SoundDuration":89200,"Delta":115270642},{"NoteNumber":89,"Velocity":79,"Duration":91806,"SoundDuration":91806,"Delta":115389576},{"NoteNumber":77,"Velocity":68,"Duration":91806,"SoundDuration":91806,"Delta":115389576},{"NoteNumber":90,"Velocity":91,"Duration":91374,"SoundDuration":91374,"Delta":115511985},{"NoteNumber":86,"Velocity":79,"Duration":91374,"SoundDuration":91374,"Delta":115511985},{"NoteNumber":78,"Velocity":79,"Duration":91374,"SoundDuration":91374,"Delta":115511985},{"NoteNumber":37,"Velocity":62,"Duration":370650,"SoundDuration":370650,"Delta":115511985},{"NoteNumber":49,"Velocity":69,"Duration":370650,"SoundDuration":370650,"Delta":115511985},{"NoteNumber":93,"Velocity":87,"Duration":93306,"SoundDuration":93306,"Delta":115633817},{"NoteNumber":90,"Velocity":77,"Duration":93306,"SoundDuration":93306,"Delta":115633817},{"NoteNumber":81,"Velocity":77,"Duration":93306,"SoundDuration":93306,"Delta":115633817},{"NoteNumber":88,"Velocity":77,"Duration":93306,"SoundDuration":93306,"Delta":115758226},{"NoteNumber":92,"Velocity":87,"Duration":93306,"SoundDuration":93306,"Delta":115758226},{"NoteNumber":80,"Velocity":77,"Duration":93306,"SoundDuration":93306,"Delta":115758226},{"NoteNumber":64,"Velocity":98,"Duration":94087,"SoundDuration":94087,"Delta":115882635},{"NoteNumber":64,"Velocity":79,"Duration":379367,"SoundDuration":379367,"Delta":115882635},{"NoteNumber":61,"Velocity":79,"Duration":379367,"SoundDuration":379367,"Delta":115882635},{"NoteNumber":57,"Velocity":69,"Duration":379367,"SoundDuration":379367,"Delta":115882635},{"NoteNumber":73,"Velocity":81,"Duration":94087,"SoundDuration":94087,"Delta":116008085},{"NoteNumber":76,"Velocity":94,"Duration":94087,"SoundDuration":94087,"Delta":116008085},{"NoteNumber":76,"Velocity":74,"Duration":248387,"SoundDuration":248387,"Delta":116133534},{"NoteNumber":88,"Velocity":101,"Duration":89877,"SoundDuration":89877,"Delta":116262003},{"NoteNumber":85,"Velocity":87,"Duration":89877,"SoundDuration":89877,"Delta":116262003},{"NoteNumber":37,"Velocity":62,"Duration":361828,"SoundDuration":361828,"Delta":116262003},{"NoteNumber":49,"Velocity":69,"Duration":361828,"SoundDuration":361828,"Delta":116262003},{"NoteNumber":73,"Velocity":68,"Duration":90371,"SoundDuration":90371,"Delta":116381922},{"NoteNumber":81,"Velocity":68,"Duration":90371,"SoundDuration":90371,"Delta":116381922},{"NoteNumber":85,"Velocity":78,"Duration":90371,"SoundDuration":90371,"Delta":116381922},{"NoteNumber":74,"Velocity":64,"Duration":90914,"SoundDuration":90914,"Delta":116502501},{"NoteNumber":83,"Velocity":64,"Duration":90914,"SoundDuration":90914,"Delta":116502501},{"NoteNumber":86,"Velocity":74,"Duration":90914,"SoundDuration":90914,"Delta":116502501},{"NoteNumber":88,"Velocity":96,"Duration":94920,"SoundDuration":94920,"Delta":116623832},{"NoteNumber":85,"Velocity":83,"Duration":94920,"SoundDuration":94920,"Delta":116623832},{"NoteNumber":76,"Velocity":83,"Duration":94920,"SoundDuration":94920,"Delta":116623832},{"NoteNumber":68,"Velocity":71,"Duration":385060,"SoundDuration":385060,"Delta":116623832},{"NoteNumber":64,"Velocity":71,"Duration":385060,"SoundDuration":385060,"Delta":116623832},{"NoteNumber":61,"Velocity":63,"Duration":385060,"SoundDuration":385060,"Delta":116623832},{"NoteNumber":56,"Velocity":63,"Duration":385060,"SoundDuration":385060,"Delta":116623832},{"NoteNumber":78,"Velocity":68,"Duration":97007,"SoundDuration":97007,"Delta":116750393},{"NoteNumber":90,"Velocity":79,"Duration":97007,"SoundDuration":97007,"Delta":116750393},{"NoteNumber":76,"Velocity":66,"Duration":97007,"SoundDuration":97007,"Delta":116879736},{"NoteNumber":88,"Velocity":77,"Duration":97007,"SoundDuration":97007,"Delta":116879736},{"NoteNumber":73,"Velocity":74,"Duration":431778,"SoundDuration":431778,"Delta":117008892},{"NoteNumber":85,"Velocity":86,"Duration":431778,"SoundDuration":431778,"Delta":117008892},{"NoteNumber":81,"Velocity":74,"Duration":431778,"SoundDuration":431778,"Delta":117008892},{"NoteNumber":67,"Velocity":69,"Duration":431778,"SoundDuration":431778,"Delta":117008892},{"NoteNumber":64,"Velocity":69,"Duration":431778,"SoundDuration":431778,"Delta":117008892},{"NoteNumber":61,"Velocity":62,"Duration":431778,"SoundDuration":431778,"Delta":117008892},{"NoteNumber":57,"Velocity":62,"Duration":431778,"SoundDuration":431778,"Delta":117008892},{"NoteNumber":61,"Velocity":55,"Duration":89975,"SoundDuration":89975,"Delta":117440671},{"NoteNumber":55,"Velocity":36,"Duration":89975,"SoundDuration":89975,"Delta":117440671},{"NoteNumber":58,"Velocity":42,"Duration":89975,"SoundDuration":89975,"Delta":117440671},{"NoteNumber":66,"Velocity":51,"Duration":88912,"SoundDuration":88912,"Delta":117560484},{"NoteNumber":62,"Velocity":51,"Duration":88912,"SoundDuration":88912,"Delta":117560484},{"NoteNumber":54,"Velocity":34,"Duration":88912,"SoundDuration":88912,"Delta":117560484},{"NoteNumber":57,"Velocity":39,"Duration":88912,"SoundDuration":88912,"Delta":117560484},{"NoteNumber":64,"Velocity":46,"Duration":88045,"SoundDuration":88045,"Delta":117678875},{"NoteNumber":52,"Velocity":34,"Duration":88045,"SoundDuration":88045,"Delta":117678875},{"NoteNumber":55,"Velocity":39,"Duration":88045,"SoundDuration":88045,"Delta":117678875},{"NoteNumber":69,"Velocity":60,"Duration":87117,"SoundDuration":87117,"Delta":117796087},{"NoteNumber":66,"Velocity":60,"Duration":87117,"SoundDuration":87117,"Delta":117796087},{"NoteNumber":50,"Velocity":32,"Duration":358639,"SoundDuration":358639,"Delta":117796087},{"NoteNumber":54,"Velocity":36,"Duration":358639,"SoundDuration":358639,"Delta":117796087},{"NoteNumber":68,"Velocity":56,"Duration":87040,"SoundDuration":87040,"Delta":117912218},{"NoteNumber":74,"Velocity":60,"Duration":94840,"SoundDuration":94840,"Delta":118028272},{"NoteNumber":69,"Velocity":60,"Duration":94840,"SoundDuration":94840,"Delta":118028272},{"NoteNumber":37,"Velocity":53,"Duration":822779,"SoundDuration":822779,"Delta":118028272},{"NoteNumber":49,"Velocity":53,"Duration":822779,"SoundDuration":822779,"Delta":118028272},{"NoteNumber":71,"Velocity":63,"Duration":87040,"SoundDuration":87040,"Delta":118154727},{"NoteNumber":55,"Velocity":55,"Duration":87040,"SoundDuration":87040,"Delta":118154727},{"NoteNumber":75,"Velocity":60,"Duration":87040,"SoundDuration":87040,"Delta":118270781},{"NoteNumber":73,"Velocity":60,"Duration":87040,"SoundDuration":87040,"Delta":118270781},{"NoteNumber":56,"Velocity":57,"Duration":87040,"SoundDuration":87040,"Delta":118270781},{"NoteNumber":73,"Velocity":62,"Duration":87040,"SoundDuration":87040,"Delta":118386835},{"NoteNumber":70,"Velocity":62,"Duration":87040,"SoundDuration":87040,"Delta":118386835},{"NoteNumber":57,"Velocity":60,"Duration":87040,"SoundDuration":87040,"Delta":118386835},{"NoteNumber":73,"Velocity":56,"Duration":232108,"SoundDuration":232108,"Delta":118502889},{"NoteNumber":68,"Velocity":56,"Duration":87040,"SoundDuration":87040,"Delta":118502889},{"NoteNumber":58,"Velocity":54,"Duration":87040,"SoundDuration":87040,"Delta":118502889},{"NoteNumber":67,"Velocity":53,"Duration":87040,"SoundDuration":87040,"Delta":118618944},{"NoteNumber":59,"Velocity":53,"Duration":87040,"SoundDuration":87040,"Delta":118618944},{"NoteNumber":71,"Velocity":51,"Duration":237139,"SoundDuration":237139,"Delta":118734998},{"NoteNumber":66,"Velocity":51,"Duration":87040,"SoundDuration":87040,"Delta":118734998},{"NoteNumber":61,"Velocity":50,"Duration":87040,"SoundDuration":87040,"Delta":118734998},{"NoteNumber":64,"Velocity":53,"Duration":90813,"SoundDuration":90813,"Delta":118851052},{"NoteNumber":61,"Velocity":47,"Duration":363254,"SoundDuration":363254,"Delta":118851052},{"NoteNumber":68,"Velocity":53,"Duration":90813,"SoundDuration":90813,"Delta":118972137},{"NoteNumber":65,"Velocity":53,"Duration":90813,"SoundDuration":90813,"Delta":118972137},{"NoteNumber":56,"Velocity":40,"Duration":90813,"SoundDuration":90813,"Delta":118972137},{"NoteNumber":67,"Velocity":52,"Duration":90813,"SoundDuration":90813,"Delta":119093222},{"NoteNumber":49,"Velocity":40,"Duration":90813,"SoundDuration":90813,"Delta":119093222},{"NoteNumber":73,"Velocity":60,"Duration":237172,"SoundDuration":237172,"Delta":119214307},{"NoteNumber":68,"Velocity":60,"Duration":88939,"SoundDuration":88939,"Delta":119214307},{"NoteNumber":63,"Velocity":46,"Duration":355759,"SoundDuration":355759,"Delta":119214307},{"NoteNumber":69,"Velocity":50,"Duration":237172,"SoundDuration":237172,"Delta":119332894},{"NoteNumber":54,"Velocity":40,"Duration":88939,"SoundDuration":88939,"Delta":119332894},{"NoteNumber":73,"Velocity":51,"Duration":88939,"SoundDuration":88939,"Delta":119451480},{"NoteNumber":49,"Velocity":41,"Duration":88939,"SoundDuration":88939,"Delta":119451480},{"NoteNumber":70,"Velocity":49,"Duration":92122,"SoundDuration":92122,"Delta":119570067},{"NoteNumber":65,"Velocity":39,"Duration":373517,"SoundDuration":373517,"Delta":119570067},{"NoteNumber":68,"Velocity":46,"Duration":92122,"SoundDuration":92122,"Delta":119692897},{"NoteNumber":53,"Velocity":36,"Duration":92122,"SoundDuration":92122,"Delta":119692897},{"NoteNumber":70,"Velocity":45,"Duration":95871,"SoundDuration":95871,"Delta":119815727},{"NoteNumber":49,"Velocity":32,"Duration":545297,"SoundDuration":545297,"Delta":119815727},{"NoteNumber":62,"Velocity":54,"Duration":417439,"SoundDuration":417439,"Delta":119943584},{"NoteNumber":65,"Velocity":54,"Duration":417439,"SoundDuration":417439,"Delta":119943584},{"NoteNumber":59,"Velocity":42,"Duration":417439,"SoundDuration":417439,"Delta":119943584},{"NoteNumber":56,"Velocity":42,"Duration":417439,"SoundDuration":417439,"Delta":119943584},{"NoteNumber":78,"Velocity":93,"Duration":95266,"SoundDuration":95266,"Delta":120361024},{"NoteNumber":66,"Velocity":74,"Duration":384042,"SoundDuration":384042,"Delta":120361024},{"NoteNumber":62,"Velocity":74,"Duration":384042,"SoundDuration":384042,"Delta":120361024},{"NoteNumber":57,"Velocity":66,"Duration":384042,"SoundDuration":384042,"Delta":120361024},{"NoteNumber":54,"Velocity":66,"Duration":384042,"SoundDuration":384042,"Delta":120361024},{"NoteNumber":86,"Velocity":72,"Duration":95266,"SoundDuration":95266,"Delta":120488045},{"NoteNumber":90,"Velocity":81,"Duration":95266,"SoundDuration":95266,"Delta":120488045},{"NoteNumber":90,"Velocity":74,"Duration":250759,"SoundDuration":250759,"Delta":120615067},{"NoteNumber":102,"Velocity":77,"Duration":90663,"SoundDuration":90663,"Delta":120745066},{"NoteNumber":98,"Velocity":74,"Duration":90663,"SoundDuration":90663,"Delta":120745066},{"NoteNumber":37,"Velocity":62,"Duration":359569,"SoundDuration":359569,"Delta":120745066},{"NoteNumber":49,"Velocity":69,"Duration":359569,"SoundDuration":359569,"Delta":120745066},{"NoteNumber":97,"Velocity":64,"Duration":89957,"SoundDuration":89957,"Delta":120865826},{"NoteNumber":101,"Velocity":66,"Duration":89957,"SoundDuration":89957,"Delta":120865826},{"NoteNumber":89,"Velocity":57,"Duration":89957,"SoundDuration":89957,"Delta":120865826},{"NoteNumber":98,"Velocity":62,"Duration":89278,"SoundDuration":89278,"Delta":120985623},{"NoteNumber":102,"Velocity":64,"Duration":89278,"SoundDuration":89278,"Delta":120985623},{"NoteNumber":90,"Velocity":55,"Duration":89278,"SoundDuration":89278,"Delta":120985623},{"NoteNumber":97,"Velocity":78,"Duration":89200,"SoundDuration":89200,"Delta":121104636},{"NoteNumber":94,"Velocity":78,"Duration":89200,"SoundDuration":89200,"Delta":121104636},{"NoteNumber":85,"Velocity":70,"Duration":89200,"SoundDuration":89200,"Delta":121104636},{"NoteNumber":68,"Velocity":71,"Duration":360277,"SoundDuration":360277,"Delta":121104636},{"NoteNumber":66,"Velocity":71,"Duration":360277,"SoundDuration":360277,"Delta":121104636},{"NoteNumber":62,"Velocity":63,"Duration":360277,"SoundDuration":360277,"Delta":121104636},{"NoteNumber":56,"Velocity":63,"Duration":360277,"SoundDuration":360277,"Delta":121104636},{"NoteNumber":86,"Velocity":61,"Duration":89200,"SoundDuration":89200,"Delta":121223570},{"NoteNumber":98,"Velocity":69,"Duration":89200,"SoundDuration":89200,"Delta":121223570},{"NoteNumber":95,"Velocity":69,"Duration":89200,"SoundDuration":89200,"Delta":121223570},{"NoteNumber":101,"Velocity":66,"Duration":91806,"SoundDuration":91806,"Delta":121342504},{"NoteNumber":89,"Velocity":58,"Duration":91806,"SoundDuration":91806,"Delta":121342504},{"NoteNumber":102,"Velocity":77,"Duration":91374,"SoundDuration":91374,"Delta":121464913},{"NoteNumber":98,"Velocity":74,"Duration":91374,"SoundDuration":91374,"Delta":121464913},{"NoteNumber":90,"Velocity":67,"Duration":91374,"SoundDuration":91374,"Delta":121464913},{"NoteNumber":37,"Velocity":62,"Duration":370650,"SoundDuration":370650,"Delta":121464913},{"NoteNumber":49,"Velocity":69,"Duration":370650,"SoundDuration":370650,"Delta":121464913},{"NoteNumber":105,"Velocity":74,"Duration":93306,"SoundDuration":93306,"Delta":121586745},{"NoteNumber":102,"Velocity":74,"Duration":93306,"SoundDuration":93306,"Delta":121586745},{"NoteNumber":93,"Velocity":63,"Duration":93306,"SoundDuration":93306,"Delta":121586745},{"NoteNumber":100,"Velocity":74,"Duration":93306,"SoundDuration":93306,"Delta":121711154},{"NoteNumber":104,"Velocity":74,"Duration":93306,"SoundDuration":93306,"Delta":121711154},{"NoteNumber":92,"Velocity":63,"Duration":93306,"SoundDuration":93306,"Delta":121711154},{"NoteNumber":76,"Velocity":93,"Duration":94087,"SoundDuration":94087,"Delta":121835563},{"NoteNumber":69,"Velocity":79,"Duration":379367,"SoundDuration":379367,"Delta":121835563},{"NoteNumber":64,"Velocity":79,"Duration":379367,"SoundDuration":379367,"Delta":121835563},{"NoteNumber":61,"Velocity":69,"Duration":379367,"SoundDuration":379367,"Delta":121835563},{"NoteNumber":57,"Velocity":69,"Duration":379367,"SoundDuration":379367,"Delta":121835563},{"NoteNumber":85,"Velocity":69,"Duration":94087,"SoundDuration":94087,"Delta":121961013},{"NoteNumber":88,"Velocity":77,"Duration":94087,"SoundDuration":94087,"Delta":121961013},{"NoteNumber":88,"Velocity":70,"Duration":248387,"SoundDuration":248387,"Delta":122086462},{"NoteNumber":100,"Velocity":85,"Duration":89877,"SoundDuration":89877,"Delta":122214931},{"NoteNumber":97,"Velocity":77,"Duration":89877,"SoundDuration":89877,"Delta":122214931},{"NoteNumber":37,"Velocity":62,"Duration":361828,"SoundDuration":361828,"Delta":122214931},{"NoteNumber":49,"Velocity":69,"Duration":361828,"SoundDuration":361828,"Delta":122214931},{"NoteNumber":85,"Velocity":57,"Duration":90371,"SoundDuration":90371,"Delta":122334850},{"NoteNumber":93,"Velocity":64,"Duration":90371,"SoundDuration":90371,"Delta":122334850},{"NoteNumber":97,"Velocity":64,"Duration":90371,"SoundDuration":90371,"Delta":122334850},{"NoteNumber":86,"Velocity":54,"Duration":90914,"SoundDuration":90914,"Delta":122455429},{"NoteNumber":95,"Velocity":61,"Duration":90914,"SoundDuration":90914,"Delta":122455429},{"NoteNumber":98,"Velocity":61,"Duration":90914,"SoundDuration":90914,"Delta":122455429},{"NoteNumber":100,"Velocity":81,"Duration":94920,"SoundDuration":94920,"Delta":122576759},{"NoteNumber":97,"Velocity":78,"Duration":94920,"SoundDuration":94920,"Delta":122576759},{"NoteNumber":88,"Velocity":71,"Duration":94920,"SoundDuration":94920,"Delta":122576759},{"NoteNumber":68,"Velocity":71,"Duration":385060,"SoundDuration":385060,"Delta":122576759},{"NoteNumber":64,"Velocity":71,"Duration":385060,"SoundDuration":385060,"Delta":122576759},{"NoteNumber":61,"Velocity":63,"Duration":385060,"SoundDuration":385060,"Delta":122576759},{"NoteNumber":56,"Velocity":63,"Duration":385060,"SoundDuration":385060,"Delta":122576759},{"NoteNumber":90,"Velocity":58,"Duration":97007,"SoundDuration":97007,"Delta":122703320},{"NoteNumber":102,"Velocity":66,"Duration":97007,"SoundDuration":97007,"Delta":122703320},{"NoteNumber":88,"Velocity":55,"Duration":97007,"SoundDuration":97007,"Delta":122832664},{"NoteNumber":100,"Velocity":64,"Duration":97007,"SoundDuration":97007,"Delta":122832664},{"NoteNumber":85,"Velocity":62,"Duration":431778,"SoundDuration":431778,"Delta":122961820},{"NoteNumber":97,"Velocity":70,"Duration":431778,"SoundDuration":431778,"Delta":122961820},{"NoteNumber":93,"Velocity":70,"Duration":431778,"SoundDuration":431778,"Delta":122961820},{"NoteNumber":67,"Velocity":69,"Duration":431778,"SoundDuration":431778,"Delta":122961820},{"NoteNumber":64,"Velocity":69,"Duration":431778,"SoundDuration":431778,"Delta":122961820},{"NoteNumber":61,"Velocity":62,"Duration":431778,"SoundDuration":431778,"Delta":122961820},{"NoteNumber":57,"Velocity":62,"Duration":431778,"SoundDuration":431778,"Delta":122961820},{"NoteNumber":73,"Velocity":53,"Duration":89392,"SoundDuration":89392,"Delta":123393599},{"NoteNumber":67,"Velocity":36,"Duration":89392,"SoundDuration":89392,"Delta":123393599},{"NoteNumber":70,"Velocity":42,"Duration":89392,"SoundDuration":89392,"Delta":123393599},{"NoteNumber":78,"Velocity":49,"Duration":88594,"SoundDuration":88594,"Delta":123512708},{"NoteNumber":74,"Velocity":49,"Duration":88594,"SoundDuration":88594,"Delta":123512708},{"NoteNumber":66,"Velocity":34,"Duration":88594,"SoundDuration":88594,"Delta":123512708},{"NoteNumber":69,"Velocity":39,"Duration":88594,"SoundDuration":88594,"Delta":123512708},{"NoteNumber":76,"Velocity":46,"Duration":87772,"SoundDuration":87772,"Delta":123630703},{"NoteNumber":64,"Velocity":39,"Duration":87772,"SoundDuration":87772,"Delta":123630703},{"NoteNumber":67,"Velocity":39,"Duration":87772,"SoundDuration":87772,"Delta":123630703},{"NoteNumber":81,"Velocity":61,"Duration":87040,"SoundDuration":87040,"Delta":123747604},{"NoteNumber":78,"Velocity":61,"Duration":87040,"SoundDuration":87040,"Delta":123747604},{"NoteNumber":62,"Velocity":32,"Duration":355993,"SoundDuration":355993,"Delta":123747604},{"NoteNumber":66,"Velocity":36,"Duration":355993,"SoundDuration":355993,"Delta":123747604},{"NoteNumber":80,"Velocity":53,"Duration":87040,"SoundDuration":87040,"Delta":123863658},{"NoteNumber":86,"Velocity":55,"Duration":92913,"SoundDuration":92913,"Delta":123979713},{"NoteNumber":81,"Velocity":55,"Duration":92913,"SoundDuration":92913,"Delta":123979713},{"NoteNumber":49,"Velocity":54,"Duration":820210,"SoundDuration":820210,"Delta":123979713},{"NoteNumber":61,"Velocity":54,"Duration":820210,"SoundDuration":820210,"Delta":123979713},{"NoteNumber":83,"Velocity":62,"Duration":87040,"SoundDuration":87040,"Delta":124103598},{"NoteNumber":67,"Velocity":56,"Duration":87040,"SoundDuration":87040,"Delta":124103598},{"NoteNumber":87,"Velocity":53,"Duration":87040,"SoundDuration":87040,"Delta":124219652},{"NoteNumber":84,"Velocity":53,"Duration":87040,"SoundDuration":87040,"Delta":124219652},{"NoteNumber":68,"Velocity":60,"Duration":87040,"SoundDuration":87040,"Delta":124219652},{"NoteNumber":85,"Velocity":60,"Duration":87040,"SoundDuration":87040,"Delta":124335706},{"NoteNumber":82,"Velocity":60,"Duration":87040,"SoundDuration":87040,"Delta":124335706},{"NoteNumber":69,"Velocity":59,"Duration":87040,"SoundDuration":87040,"Delta":124335706},{"NoteNumber":84,"Velocity":53,"Duration":232108,"SoundDuration":232108,"Delta":124451760},{"NoteNumber":80,"Velocity":53,"Duration":87040,"SoundDuration":87040,"Delta":124451760},{"NoteNumber":70,"Velocity":56,"Duration":87040,"SoundDuration":87040,"Delta":124451760},{"NoteNumber":79,"Velocity":52,"Duration":87040,"SoundDuration":87040,"Delta":124567815},{"NoteNumber":71,"Velocity":54,"Duration":87040,"SoundDuration":87040,"Delta":124567815},{"NoteNumber":83,"Velocity":50,"Duration":237139,"SoundDuration":237139,"Delta":124683869},{"NoteNumber":78,"Velocity":50,"Duration":87040,"SoundDuration":87040,"Delta":124683869},{"NoteNumber":73,"Velocity":52,"Duration":87040,"SoundDuration":87040,"Delta":124683869},{"NoteNumber":76,"Velocity":52,"Duration":90813,"SoundDuration":90813,"Delta":124799923},{"NoteNumber":73,"Velocity":50,"Duration":363254,"SoundDuration":363254,"Delta":124799923},{"NoteNumber":80,"Velocity":49,"Duration":90813,"SoundDuration":90813,"Delta":124921008},{"NoteNumber":77,"Velocity":44,"Duration":90813,"SoundDuration":90813,"Delta":124921008},{"NoteNumber":68,"Velocity":39,"Duration":90813,"SoundDuration":90813,"Delta":124921008},{"NoteNumber":79,"Velocity":47,"Duration":90813,"SoundDuration":90813,"Delta":125042093},{"NoteNumber":61,"Velocity":39,"Duration":90813,"SoundDuration":90813,"Delta":125042093},{"NoteNumber":85,"Velocity":61,"Duration":237172,"SoundDuration":237172,"Delta":125163178},{"NoteNumber":80,"Velocity":61,"Duration":88939,"SoundDuration":88939,"Delta":125163178},{"NoteNumber":75,"Velocity":45,"Duration":355759,"SoundDuration":355759,"Delta":125163178},{"NoteNumber":81,"Velocity":55,"Duration":237172,"SoundDuration":237172,"Delta":125281765},{"NoteNumber":66,"Velocity":39,"Duration":88939,"SoundDuration":88939,"Delta":125281765},{"NoteNumber":85,"Velocity":53,"Duration":88939,"SoundDuration":88939,"Delta":125400351},{"NoteNumber":61,"Velocity":39,"Duration":88939,"SoundDuration":88939,"Delta":125400351},{"NoteNumber":82,"Velocity":50,"Duration":92122,"SoundDuration":92122,"Delta":125518938},{"NoteNumber":77,"Velocity":34,"Duration":373517,"SoundDuration":373517,"Delta":125518938},{"NoteNumber":80,"Velocity":49,"Duration":92122,"SoundDuration":92122,"Delta":125641768},{"NoteNumber":65,"Velocity":33,"Duration":92122,"SoundDuration":92122,"Delta":125641768},{"NoteNumber":82,"Velocity":46,"Duration":95871,"SoundDuration":95871,"Delta":125764598},{"NoteNumber":61,"Velocity":29,"Duration":539117,"SoundDuration":539117,"Delta":125764598},{"NoteNumber":73,"Velocity":54,"Duration":411259,"SoundDuration":411259,"Delta":125892455},{"NoteNumber":77,"Velocity":54,"Duration":411259,"SoundDuration":411259,"Delta":125892455},{"NoteNumber":69,"Velocity":37,"Duration":411259,"SoundDuration":411259,"Delta":125892455},{"NoteNumber":94,"Velocity":67,"Duration":129343,"SoundDuration":129343,"Delta":126303715},{"NoteNumber":85,"Velocity":61,"Duration":388031,"SoundDuration":388031,"Delta":126303715},{"NoteNumber":82,"Velocity":52,"Duration":388031,"SoundDuration":388031,"Delta":126303715},{"NoteNumber":78,"Velocity":45,"Duration":388031,"SoundDuration":388031,"Delta":126303715},{"NoteNumber":92,"Velocity":56,"Duration":129343,"SoundDuration":129343,"Delta":126433058},{"NoteNumber":94,"Velocity":56,"Duration":129343,"SoundDuration":129343,"Delta":126562402},{"NoteNumber":89,"Velocity":66,"Duration":404058,"SoundDuration":404058,"Delta":126691746},{"NoteNumber":85,"Velocity":60,"Duration":404058,"SoundDuration":404058,"Delta":126691746},{"NoteNumber":73,"Velocity":53,"Duration":404058,"SoundDuration":404058,"Delta":126691746},{"NoteNumber":80,"Velocity":60,"Duration":404058,"SoundDuration":404058,"Delta":126691746},{"NoteNumber":61,"Velocity":60,"Duration":386332,"SoundDuration":386332,"Delta":127095805},{"NoteNumber":70,"Velocity":66,"Duration":128777,"SoundDuration":128777,"Delta":127095805},{"NoteNumber":65,"Velocity":52,"Duration":386332,"SoundDuration":386332,"Delta":127095805},{"NoteNumber":58,"Velocity":45,"Duration":386332,"SoundDuration":386332,"Delta":127095805},{"NoteNumber":68,"Velocity":59,"Duration":128777,"SoundDuration":128777,"Delta":127224582},{"NoteNumber":70,"Velocity":57,"Duration":128777,"SoundDuration":128777,"Delta":127353360},{"NoteNumber":65,"Velocity":64,"Duration":411597,"SoundDuration":411597,"Delta":127482137},{"NoteNumber":61,"Velocity":57,"Duration":411597,"SoundDuration":411597,"Delta":127482137},{"NoteNumber":55,"Velocity":52,"Duration":411597,"SoundDuration":411597,"Delta":127482137},{"NoteNumber":58,"Velocity":59,"Duration":411597,"SoundDuration":411597,"Delta":127482137},{"NoteNumber":29,"Velocity":72,"Duration":132251,"SoundDuration":132251,"Delta":127893735},{"NoteNumber":41,"Velocity":72,"Duration":132251,"SoundDuration":132251,"Delta":127893735},{"NoteNumber":53,"Velocity":86,"Duration":132251,"SoundDuration":132251,"Delta":127893735},{"NoteNumber":27,"Velocity":69,"Duration":132251,"SoundDuration":132251,"Delta":128025987},{"NoteNumber":39,"Velocity":69,"Duration":132251,"SoundDuration":132251,"Delta":128025987},{"NoteNumber":51,"Velocity":81,"Duration":132251,"SoundDuration":132251,"Delta":128025987},{"NoteNumber":29,"Velocity":71,"Duration":145348,"SoundDuration":145348,"Delta":128158238},{"NoteNumber":41,"Velocity":71,"Duration":145348,"SoundDuration":145348,"Delta":128158238},{"NoteNumber":53,"Velocity":84,"Duration":145348,"SoundDuration":145348,"Delta":128158238},{"NoteNumber":25,"Velocity":74,"Duration":3169836,"SoundDuration":3169836,"Delta":128303587},{"NoteNumber":37,"Velocity":74,"Duration":3169836,"SoundDuration":3169836,"Delta":128303587},{"NoteNumber":49,"Velocity":89,"Duration":3169836,"SoundDuration":3169836,"Delta":128303587},{"NoteNumber":53,"Velocity":75,"Duration":2669336,"SoundDuration":2669336,"Delta":128804088},{"NoteNumber":56,"Velocity":75,"Duration":2669336,"SoundDuration":2669336,"Delta":128804088},{"NoteNumber":61,"Velocity":75,"Duration":2669336,"SoundDuration":2669336,"Delta":128804088},{"NoteNumber":65,"Velocity":75,"Duration":2669336,"SoundDuration":2669336,"Delta":128804088},{"NoteNumber":85,"Velocity":90,"Duration":2669336,"SoundDuration":2669336,"Delta":128804088},{"NoteNumber":80,"Velocity":90,"Duration":2669336,"SoundDuration":2669336,"Delta":128804088},{"NoteNumber":73,"Velocity":90,"Duration":2669336,"SoundDuration":2669336,"Delta":128804088},{"NoteNumber":61,"Velocity":45,"Duration":2968663,"SoundDuration":2968663,"Delta":131807091},{"NoteNumber":49,"Velocity":42,"Duration":2968663,"SoundDuration":2968663,"Delta":131807091},{"NoteNumber":59,"Velocity":44,"Duration":989554,"SoundDuration":989554,"Delta":132796645},{"NoteNumber":32,"Velocity":41,"Duration":989554,"SoundDuration":989554,"Delta":132796645},{"NoteNumber":44,"Velocity":41,"Duration":989554,"SoundDuration":989554,"Delta":132796645},{"NoteNumber":58,"Velocity":45,"Duration":989554,"SoundDuration":989554,"Delta":133786200},{"NoteNumber":30,"Velocity":36,"Duration":989554,"SoundDuration":989554,"Delta":133786200},{"NoteNumber":42,"Velocity":36,"Duration":989554,"SoundDuration":989554,"Delta":133786200},{"NoteNumber":57,"Velocity":44,"Duration":989554,"SoundDuration":989554,"Delta":134775754},{"NoteNumber":62,"Velocity":44,"Duration":989554,"SoundDuration":989554,"Delta":134775754},{"NoteNumber":29,"Velocity":43,"Duration":989554,"SoundDuration":989554,"Delta":134775754},{"NoteNumber":41,"Velocity":43,"Duration":989554,"SoundDuration":989554,"Delta":134775754},{"NoteNumber":50,"Velocity":43,"Duration":989554,"SoundDuration":989554,"Delta":134775754},{"NoteNumber":59,"Velocity":41,"Duration":1022611,"SoundDuration":1022611,"Delta":135765309},{"NoteNumber":56,"Velocity":41,"Duration":2045222,"SoundDuration":2045222,"Delta":135765309},{"NoteNumber":64,"Velocity":41,"Duration":3067834,"SoundDuration":3067834,"Delta":135765309},{"NoteNumber":28,"Velocity":31,"Duration":3067834,"SoundDuration":3067834,"Delta":135765309},{"NoteNumber":40,"Velocity":31,"Duration":3067834,"SoundDuration":3067834,"Delta":135765309},{"NoteNumber":50,"Velocity":31,"Duration":3067834,"SoundDuration":3067834,"Delta":135765309},{"NoteNumber":58,"Velocity":48,"Duration":2045222,"SoundDuration":2045222,"Delta":136787920},{"NoteNumber":55,"Velocity":45,"Duration":852176,"SoundDuration":852176,"Delta":137810532},{"NoteNumber":33,"Velocity":36,"Duration":170435,"SoundDuration":170435,"Delta":137980967},{"NoteNumber":45,"Velocity":34,"Duration":170435,"SoundDuration":170435,"Delta":138151402},{"NoteNumber":49,"Velocity":36,"Duration":170435,"SoundDuration":170435,"Delta":138321837},{"NoteNumber":55,"Velocity":36,"Duration":340870,"SoundDuration":340870,"Delta":138492273},{"NoteNumber":57,"Velocity":36,"Duration":170435,"SoundDuration":170435,"Delta":138662708},{"NoteNumber":65,"Velocity":44,"Duration":1271732,"SoundDuration":1271732,"Delta":138833143},{"NoteNumber":26,"Velocity":41,"Duration":340870,"SoundDuration":340870,"Delta":140104876},{"NoteNumber":66,"Velocity":47,"Duration":340870,"SoundDuration":340870,"Delta":140786617},{"NoteNumber":57,"Velocity":36,"Duration":4098728,"SoundDuration":4098728,"Delta":141127488},{"NoteNumber":64,"Velocity":52,"Duration":333407,"SoundDuration":333407,"Delta":141127488},{"NoteNumber":38,"Velocity":32,"Duration":4098728,"SoundDuration":4098728,"Delta":141127488},{"NoteNumber":54,"Velocity":36,"Duration":4098728,"SoundDuration":4098728,"Delta":141127488},{"NoteNumber":66,"Velocity":44,"Duration":333407,"SoundDuration":333407,"Delta":141460895},{"NoteNumber":62,"Velocity":44,"Duration":1022611,"SoundDuration":1022611,"Delta":141794303},{"NoteNumber":69,"Velocity":51,"Duration":348593,"SoundDuration":348593,"Delta":142816914},{"NoteNumber":69,"Velocity":53,"Duration":681740,"SoundDuration":681740,"Delta":143165508},{"NoteNumber":71,"Velocity":47,"Duration":185919,"SoundDuration":185919,"Delta":143847249},{"NoteNumber":69,"Velocity":36,"Duration":85217,"SoundDuration":85217,"Delta":144033169},{"NoteNumber":71,"Velocity":36,"Duration":85217,"SoundDuration":85217,"Delta":144118386},{"NoteNumber":69,"Velocity":53,"Duration":511305,"SoundDuration":511305,"Delta":144203604},{"NoteNumber":67,"Velocity":47,"Duration":170435,"SoundDuration":170435,"Delta":144714910},{"NoteNumber":66,"Velocity":47,"Duration":340870,"SoundDuration":340870,"Delta":144885345},{"NoteNumber":57,"Velocity":36,"Duration":2089755,"SoundDuration":2089755,"Delta":145226216},{"NoteNumber":69,"Velocity":36,"Duration":2089755,"SoundDuration":2089755,"Delta":145226216},{"NoteNumber":64,"Velocity":52,"Duration":335737,"SoundDuration":335737,"Delta":145226216},{"NoteNumber":38,"Velocity":26,"Duration":2089755,"SoundDuration":2089755,"Delta":145226216},{"NoteNumber":54,"Velocity":30,"Duration":2089755,"SoundDuration":2089755,"Delta":145226216},{"NoteNumber":66,"Velocity":45,"Duration":335270,"SoundDuration":335270,"Delta":145561953},{"NoteNumber":62,"Velocity":44,"Duration":1070154,"SoundDuration":1070154,"Delta":145897223},{"NoteNumber":26,"Velocity":30,"Duration":356718,"SoundDuration":356718,"Delta":146253941},{"NoteNumber":66,"Velocity":47,"Duration":348593,"SoundDuration":348593,"Delta":146967377},{"NoteNumber":70,"Velocity":36,"Duration":2093767,"SoundDuration":2093767,"Delta":147315971},{"NoteNumber":66,"Velocity":53,"Duration":697188,"SoundDuration":697188,"Delta":147315971},{"NoteNumber":38,"Velocity":26,"Duration":2093767,"SoundDuration":2093767,"Delta":147315971},{"NoteNumber":54,"Velocity":30,"Duration":2093767,"SoundDuration":2093767,"Delta":147315971},{"NoteNumber":64,"Velocity":47,"Duration":356718,"SoundDuration":356718,"Delta":148013159},{"NoteNumber":64,"Velocity":52,"Duration":693241,"SoundDuration":693241,"Delta":148369877},{"NoteNumber":61,"Velocity":47,"Duration":346620,"SoundDuration":346620,"Delta":149063118},{"NoteNumber":59,"Velocity":36,"Duration":1076335,"SoundDuration":1076335,"Delta":149409739},{"NoteNumber":71,"Velocity":36,"Duration":1076335,"SoundDuration":1076335,"Delta":149409739},{"NoteNumber":62,"Velocity":52,"Duration":514168,"SoundDuration":514168,"Delta":149409739},{"NoteNumber":38,"Velocity":26,"Duration":1076335,"SoundDuration":1076335,"Delta":149409739},{"NoteNumber":54,"Velocity":30,"Duration":1076335,"SoundDuration":1076335,"Delta":149409739},{"NoteNumber":61,"Velocity":47,"Duration":171389,"SoundDuration":171389,"Delta":149923907},{"NoteNumber":59,"Velocity":47,"Duration":390777,"SoundDuration":390777,"Delta":150095297},{"NoteNumber":26,"Velocity":31,"Duration":365185,"SoundDuration":365185,"Delta":150486074},{"NoteNumber":66,"Velocity":47,"Duration":354651,"SoundDuration":354651,"Delta":151216445},{"NoteNumber":70,"Velocity":36,"Duration":2093767,"SoundDuration":2093767,"Delta":151571097},{"NoteNumber":66,"Velocity":53,"Duration":697188,"SoundDuration":697188,"Delta":151571097},{"NoteNumber":38,"Velocity":26,"Duration":2093767,"SoundDuration":2093767,"Delta":151571097},{"NoteNumber":54,"Velocity":30,"Duration":2093767,"SoundDuration":2093767,"Delta":151571097},{"NoteNumber":64,"Velocity":47,"Duration":356718,"SoundDuration":356718,"Delta":152268285},{"NoteNumber":64,"Velocity":52,"Duration":693241,"SoundDuration":693241,"Delta":152625003},{"NoteNumber":61,"Velocity":47,"Duration":346620,"SoundDuration":346620,"Delta":153318244},{"NoteNumber":59,"Velocity":36,"Duration":1050743,"SoundDuration":1050743,"Delta":153664865},{"NoteNumber":71,"Velocity":36,"Duration":1415928,"SoundDuration":1415928,"Delta":153664865},{"NoteNumber":62,"Velocity":52,"Duration":514168,"SoundDuration":514168,"Delta":153664865},{"NoteNumber":38,"Velocity":26,"Duration":1415928,"SoundDuration":1415928,"Delta":153664865},{"NoteNumber":54,"Velocity":30,"Duration":1415928,"SoundDuration":1415928,"Delta":153664865},{"NoteNumber":61,"Velocity":47,"Duration":171389,"SoundDuration":171389,"Delta":154179033},{"NoteNumber":59,"Velocity":47,"Duration":730370,"SoundDuration":730370,"Delta":154350423},{"NoteNumber":57,"Velocity":45,"Duration":365185,"SoundDuration":365185,"Delta":155445979},{"NoteNumber":45,"Velocity":44,"Duration":365185,"SoundDuration":365185,"Delta":155445979},{"NoteNumber":59,"Velocity":47,"Duration":1111419,"SoundDuration":1111419,"Delta":155811165},{"NoteNumber":47,"Velocity":46,"Duration":1111419,"SoundDuration":1111419,"Delta":155811165},{"NoteNumber":38,"Velocity":32,"Duration":365185,"SoundDuration":365185,"Delta":156922585},{"NoteNumber":45,"Velocity":32,"Duration":365185,"SoundDuration":365185,"Delta":156922585},{"NoteNumber":57,"Velocity":45,"Duration":358766,"SoundDuration":358766,"Delta":157628641},{"NoteNumber":69,"Velocity":36,"Duration":1031238,"SoundDuration":1031238,"Delta":157628641},{"NoteNumber":67,"Velocity":36,"Duration":1031238,"SoundDuration":1031238,"Delta":157628641},{"NoteNumber":61,"Velocity":30,"Duration":358766,"SoundDuration":358766,"Delta":157628641},{"NoteNumber":61,"Velocity":47,"Duration":506671,"SoundDuration":506671,"Delta":157987407},{"NoteNumber":62,"Velocity":45,"Duration":165800,"SoundDuration":165800,"Delta":158494078},{"NoteNumber":64,"Velocity":45,"Duration":350590,"SoundDuration":350590,"Delta":158659879},{"NoteNumber":67,"Velocity":31,"Duration":1032330,"SoundDuration":1032330,"Delta":158659879},{"NoteNumber":69,"Velocity":31,"Duration":1032330,"SoundDuration":1032330,"Delta":158659879},{"NoteNumber":61,"Velocity":50,"Duration":681740,"SoundDuration":681740,"Delta":159010469},{"NoteNumber":57,"Velocity":44,"Duration":352609,"SoundDuration":352609,"Delta":159692210},{"NoteNumber":61,"Velocity":26,"Duration":352609,"SoundDuration":352609,"Delta":159692210},{"NoteNumber":67,"Velocity":31,"Duration":352609,"SoundDuration":352609,"Delta":159692210},{"NoteNumber":69,"Velocity":31,"Duration":352609,"SoundDuration":352609,"Delta":159692210},{"NoteNumber":59,"Velocity":45,"Duration":1766019,"SoundDuration":1766019,"Delta":160044819},{"NoteNumber":69,"Velocity":36,"Duration":1076681,"SoundDuration":1076681,"Delta":160734157},{"NoteNumber":67,"Velocity":36,"Duration":1076681,"SoundDuration":1076681,"Delta":160734157},{"NoteNumber":62,"Velocity":36,"Duration":1076681,"SoundDuration":1076681,"Delta":160734157},{"NoteNumber":38,"Velocity":26,"Duration":367377,"SoundDuration":367377,"Delta":160734157},{"NoteNumber":45,"Velocity":31,"Duration":367377,"SoundDuration":367377,"Delta":160734157},{"NoteNumber":26,"Velocity":24,"Duration":354651,"SoundDuration":354651,"Delta":161101534},{"NoteNumber":38,"Velocity":27,"Duration":354651,"SoundDuration":354651,"Delta":161101534},{"NoteNumber":57,"Velocity":45,"Duration":360880,"SoundDuration":360880,"Delta":161810838},{"NoteNumber":69,"Velocity":36,"Duration":1039974,"SoundDuration":1039974,"Delta":161810838},{"NoteNumber":67,"Velocity":36,"Duration":1039974,"SoundDuration":1039974,"Delta":161810838},{"NoteNumber":61,"Velocity":30,"Duration":360880,"SoundDuration":360880,"Delta":161810838},{"NoteNumber":61,"Velocity":47,"Duration":514168,"SoundDuration":514168,"Delta":162171719},{"NoteNumber":62,"Velocity":45,"Duration":164925,"SoundDuration":164925,"Delta":162685887},{"NoteNumber":64,"Velocity":45,"Duration":172511,"SoundDuration":172511,"Delta":162850813},{"NoteNumber":67,"Velocity":31,"Duration":1009493,"SoundDuration":1009493,"Delta":162850813},{"NoteNumber":69,"Velocity":31,"Duration":1009493,"SoundDuration":1009493,"Delta":162850813},{"NoteNumber":61,"Velocity":43,"Duration":79465,"SoundDuration":79465,"Delta":163023325},{"NoteNumber":62,"Velocity":36,"Duration":79465,"SoundDuration":79465,"Delta":163102791},{"NoteNumber":61,"Velocity":49,"Duration":125726,"SoundDuration":125726,"Delta":163182257},{"NoteNumber":59,"Velocity":44,"Duration":128542,"SoundDuration":128542,"Delta":163517527},{"NoteNumber":57,"Velocity":44,"Duration":175295,"SoundDuration":175295,"Delta":163860306},{"NoteNumber":61,"Velocity":26,"Duration":350590,"SoundDuration":350590,"Delta":163860306},{"NoteNumber":67,"Velocity":31,"Duration":350590,"SoundDuration":350590,"Delta":163860306},{"NoteNumber":69,"Velocity":31,"Duration":350590,"SoundDuration":350590,"Delta":163860306},{"NoteNumber":59,"Velocity":44,"Duration":1788306,"SoundDuration":1788306,"Delta":164210896},{"NoteNumber":62,"Velocity":36,"Duration":1087126,"SoundDuration":1087126,"Delta":164912076},{"NoteNumber":67,"Velocity":36,"Duration":1087126,"SoundDuration":1087126,"Delta":164912076},{"NoteNumber":69,"Velocity":36,"Duration":1087126,"SoundDuration":1087126,"Delta":164912076},{"NoteNumber":38,"Velocity":25,"Duration":369594,"SoundDuration":369594,"Delta":164912076},{"NoteNumber":45,"Velocity":30,"Duration":369594,"SoundDuration":369594,"Delta":164912076},{"NoteNumber":26,"Velocity":24,"Duration":358766,"SoundDuration":358766,"Delta":165281671},{"NoteNumber":38,"Velocity":27,"Duration":358766,"SoundDuration":358766,"Delta":165281671},{"NoteNumber":57,"Velocity":45,"Duration":360880,"SoundDuration":360880,"Delta":165999203},{"NoteNumber":69,"Velocity":36,"Duration":360880,"SoundDuration":360880,"Delta":165999203},{"NoteNumber":67,"Velocity":36,"Duration":360880,"SoundDuration":360880,"Delta":165999203},{"NoteNumber":61,"Velocity":30,"Duration":360880,"SoundDuration":360880,"Delta":165999203},{"NoteNumber":61,"Velocity":47,"Duration":514168,"SoundDuration":514168,"Delta":166360083},{"NoteNumber":62,"Velocity":45,"Duration":164925,"SoundDuration":164925,"Delta":166874252},{"NoteNumber":64,"Velocity":45,"Duration":337116,"SoundDuration":337116,"Delta":167039177},{"NoteNumber":61,"Velocity":49,"Duration":344669,"SoundDuration":344669,"Delta":167376294},{"NoteNumber":59,"Velocity":44,"Duration":350590,"SoundDuration":350590,"Delta":167720963},{"NoteNumber":57,"Velocity":44,"Duration":363020,"SoundDuration":363020,"Delta":168071553},{"NoteNumber":49,"Velocity":26,"Duration":363020,"SoundDuration":363020,"Delta":168071553},{"NoteNumber":52,"Velocity":31,"Duration":363020,"SoundDuration":363020,"Delta":168071553},{"NoteNumber":59,"Velocity":47,"Duration":1752949,"SoundDuration":1752949,"Delta":168434573},{"NoteNumber":47,"Velocity":29,"Duration":1752949,"SoundDuration":1752949,"Delta":168434573},{"NoteNumber":50,"Velocity":29,"Duration":1752949,"SoundDuration":1752949,"Delta":168434573},{"NoteNumber":54,"Velocity":35,"Duration":1752949,"SoundDuration":1752949,"Delta":168434573},{"NoteNumber":66,"Velocity":49,"Duration":350590,"SoundDuration":350590,"Delta":170187523},{"NoteNumber":71,"Velocity":49,"Duration":350590,"SoundDuration":350590,"Delta":170187523},{"NoteNumber":62,"Velocity":41,"Duration":350590,"SoundDuration":350590,"Delta":170187523},{"NoteNumber":59,"Velocity":34,"Duration":350590,"SoundDuration":350590,"Delta":170187523},{"NoteNumber":64,"Velocity":53,"Duration":1704352,"SoundDuration":1704352,"Delta":170538113},{"NoteNumber":68,"Velocity":53,"Duration":1704352,"SoundDuration":1704352,"Delta":170538113},{"NoteNumber":74,"Velocity":53,"Duration":1704352,"SoundDuration":1704352,"Delta":170538113},{"NoteNumber":62,"Velocity":44,"Duration":1704352,"SoundDuration":1704352,"Delta":170538113},{"NoteNumber":59,"Velocity":36,"Duration":1704352,"SoundDuration":1704352,"Delta":170538113},{"NoteNumber":64,"Velocity":52,"Duration":781913,"SoundDuration":781913,"Delta":172242466},{"NoteNumber":67,"Velocity":52,"Duration":781913,"SoundDuration":781913,"Delta":172242466},{"NoteNumber":76,"Velocity":52,"Duration":781913,"SoundDuration":781913,"Delta":172242466},{"NoteNumber":62,"Velocity":47,"Duration":781913,"SoundDuration":781913,"Delta":172242466},{"NoteNumber":58,"Velocity":47,"Duration":781913,"SoundDuration":781913,"Delta":172242466},{"NoteNumber":45,"Velocity":42,"Duration":663091,"SoundDuration":663091,"Delta":173024380},{"NoteNumber":55,"Velocity":42,"Duration":621338,"SoundDuration":621338,"Delta":173066133},{"NoteNumber":57,"Velocity":42,"Duration":579961,"SoundDuration":579961,"Delta":173107511},{"NoteNumber":61,"Velocity":45,"Duration":538876,"SoundDuration":538876,"Delta":173148595},{"NoteNumber":67,"Velocity":45,"Duration":498157,"SoundDuration":498157,"Delta":173189315},{"NoteNumber":69,"Velocity":46,"Duration":457724,"SoundDuration":457724,"Delta":173229747},{"NoteNumber":77,"Velocity":52,"Duration":417362,"SoundDuration":417362,"Delta":173270109},{"NoteNumber":38,"Velocity":41,"Duration":340870,"SoundDuration":340870,"Delta":173687472},{"NoteNumber":45,"Velocity":47,"Duration":340870,"SoundDuration":340870,"Delta":173687472},{"NoteNumber":66,"Velocity":44,"Duration":308292,"SoundDuration":308292,"Delta":174028342},{"NoteNumber":62,"Velocity":40,"Duration":102764,"SoundDuration":102764,"Delta":174131106},{"NoteNumber":57,"Velocity":40,"Duration":102764,"SoundDuration":102764,"Delta":174233871},{"NoteNumber":90,"Velocity":57,"Duration":340870,"SoundDuration":340870,"Delta":174336635},{"NoteNumber":78,"Velocity":53,"Duration":340870,"SoundDuration":340870,"Delta":174336635},{"NoteNumber":54,"Velocity":36,"Duration":340870,"SoundDuration":340870,"Delta":174336635},{"NoteNumber":66,"Velocity":44,"Duration":340870,"SoundDuration":340870,"Delta":174336635},{"NoteNumber":88,"Velocity":62,"Duration":500111,"SoundDuration":500111,"Delta":174677506},{"NoteNumber":81,"Velocity":40,"Duration":1007685,"SoundDuration":1007685,"Delta":174677506},{"NoteNumber":76,"Velocity":56,"Duration":500111,"SoundDuration":500111,"Delta":174677506},{"NoteNumber":62,"Velocity":44,"Duration":333407,"SoundDuration":333407,"Delta":174677506},{"NoteNumber":57,"Velocity":36,"Duration":333407,"SoundDuration":333407,"Delta":174677506},{"NoteNumber":66,"Velocity":44,"Duration":333407,"SoundDuration":333407,"Delta":174677506},{"NoteNumber":54,"Velocity":34,"Duration":333407,"SoundDuration":333407,"Delta":175010913},{"NoteNumber":66,"Velocity":41,"Duration":333407,"SoundDuration":333407,"Delta":175010913},{"NoteNumber":78,"Velocity":47,"Duration":166703,"SoundDuration":166703,"Delta":175177617},{"NoteNumber":90,"Velocity":53,"Duration":166703,"SoundDuration":166703,"Delta":175177617},{"NoteNumber":86,"Velocity":53,"Duration":993170,"SoundDuration":993170,"Delta":175344321},{"NoteNumber":74,"Velocity":47,"Duration":993170,"SoundDuration":993170,"Delta":175344321},{"NoteNumber":62,"Velocity":44,"Duration":340870,"SoundDuration":340870,"Delta":175344321},{"NoteNumber":57,"Velocity":36,"Duration":340870,"SoundDuration":340870,"Delta":175344321},{"NoteNumber":66,"Velocity":44,"Duration":340870,"SoundDuration":340870,"Delta":175344321},{"NoteNumber":81,"Velocity":67,"Duration":652299,"SoundDuration":652299,"Delta":175685191},{"NoteNumber":38,"Velocity":41,"Duration":340870,"SoundDuration":340870,"Delta":175685191},{"NoteNumber":45,"Velocity":47,"Duration":340870,"SoundDuration":340870,"Delta":175685191},{"NoteNumber":66,"Velocity":44,"Duration":311429,"SoundDuration":311429,"Delta":176026062},{"NoteNumber":62,"Velocity":36,"Duration":103809,"SoundDuration":103809,"Delta":176129871},{"NoteNumber":57,"Velocity":36,"Duration":103809,"SoundDuration":103809,"Delta":176233681},{"NoteNumber":93,"Velocity":62,"Duration":353679,"SoundDuration":353679,"Delta":176337491},{"NoteNumber":81,"Velocity":55,"Duration":219142,"SoundDuration":219142,"Delta":176337491},{"NoteNumber":54,"Velocity":36,"Duration":353679,"SoundDuration":353679,"Delta":176337491},{"NoteNumber":66,"Velocity":44,"Duration":353679,"SoundDuration":353679,"Delta":176337491},{"NoteNumber":74,"Velocity":47,"Duration":43574,"SoundDuration":43574,"Delta":176468214},{"NoteNumber":81,"Velocity":47,"Duration":134537,"SoundDuration":134537,"Delta":176511788},{"NoteNumber":86,"Velocity":47,"Duration":44845,"SoundDuration":44845,"Delta":176556634},{"NoteNumber":81,"Velocity":47,"Duration":89691,"SoundDuration":89691,"Delta":176601480},{"NoteNumber":86,"Velocity":47,"Duration":997724,"SoundDuration":997724,"Delta":176646325},{"NoteNumber":93,"Velocity":63,"Duration":681740,"SoundDuration":681740,"Delta":176691171},{"NoteNumber":81,"Velocity":57,"Duration":681740,"SoundDuration":681740,"Delta":176691171},{"NoteNumber":62,"Velocity":44,"Duration":340870,"SoundDuration":340870,"Delta":176691171},{"NoteNumber":57,"Velocity":36,"Duration":340870,"SoundDuration":340870,"Delta":176691171},{"NoteNumber":66,"Velocity":44,"Duration":340870,"SoundDuration":340870,"Delta":176691171},{"NoteNumber":54,"Velocity":40,"Duration":340870,"SoundDuration":340870,"Delta":177032042},{"NoteNumber":66,"Velocity":40,"Duration":340870,"SoundDuration":340870,"Delta":177032042},{"NoteNumber":95,"Velocity":57,"Duration":356355,"SoundDuration":356355,"Delta":177372912},{"NoteNumber":83,"Velocity":53,"Duration":356355,"SoundDuration":356355,"Delta":177372912},{"NoteNumber":57,"Velocity":36,"Duration":356355,"SoundDuration":356355,"Delta":177372912},{"NoteNumber":62,"Velocity":44,"Duration":356355,"SoundDuration":356355,"Delta":177372912},{"NoteNumber":66,"Velocity":44,"Duration":356355,"SoundDuration":356355,"Delta":177372912},{"NoteNumber":81,"Velocity":49,"Duration":42608,"SoundDuration":42608,"Delta":177601441},{"NoteNumber":86,"Velocity":49,"Duration":1078388,"SoundDuration":1078388,"Delta":177644049},{"NoteNumber":95,"Velocity":50,"Duration":42608,"SoundDuration":42608,"Delta":177686658},{"NoteNumber":93,"Velocity":63,"Duration":496585,"SoundDuration":496585,"Delta":177729267},{"NoteNumber":81,"Velocity":57,"Duration":496585,"SoundDuration":496585,"Delta":177729267},{"NoteNumber":38,"Velocity":41,"Duration":340870,"SoundDuration":340870,"Delta":177729267},{"NoteNumber":45,"Velocity":47,"Duration":340870,"SoundDuration":340870,"Delta":177729267},{"NoteNumber":66,"Velocity":46,"Duration":311429,"SoundDuration":311429,"Delta":178070138},{"NoteNumber":62,"Velocity":40,"Duration":103809,"SoundDuration":103809,"Delta":178173947},{"NoteNumber":91,"Velocity":57,"Duration":155714,"SoundDuration":155714,"Delta":178225852},{"NoteNumber":79,"Velocity":53,"Duration":155714,"SoundDuration":155714,"Delta":178225852},{"NoteNumber":57,"Velocity":40,"Duration":103809,"SoundDuration":103809,"Delta":178277757},{"NoteNumber":90,"Velocity":57,"Duration":340870,"SoundDuration":340870,"Delta":178381567},{"NoteNumber":78,"Velocity":53,"Duration":340870,"SoundDuration":340870,"Delta":178381567},{"NoteNumber":54,"Velocity":36,"Duration":340870,"SoundDuration":340870,"Delta":178381567},{"NoteNumber":66,"Velocity":44,"Duration":340870,"SoundDuration":340870,"Delta":178381567},{"NoteNumber":88,"Velocity":62,"Duration":335737,"SoundDuration":335737,"Delta":178722438},{"NoteNumber":81,"Velocity":40,"Duration":1027725,"SoundDuration":1027725,"Delta":178722438},{"NoteNumber":76,"Velocity":56,"Duration":335737,"SoundDuration":335737,"Delta":178722438},{"NoteNumber":62,"Velocity":44,"Duration":335737,"SoundDuration":335737,"Delta":178722438},{"NoteNumber":57,"Velocity":36,"Duration":335737,"SoundDuration":335737,"Delta":178722438},{"NoteNumber":66,"Velocity":44,"Duration":335737,"SoundDuration":335737,"Delta":178722438},{"NoteNumber":90,"Velocity":54,"Duration":335270,"SoundDuration":335270,"Delta":179058175},{"NoteNumber":78,"Velocity":50,"Duration":335270,"SoundDuration":335270,"Delta":179058175},{"NoteNumber":54,"Velocity":31,"Duration":335270,"SoundDuration":335270,"Delta":179058175},{"NoteNumber":66,"Velocity":37,"Duration":335270,"SoundDuration":335270,"Delta":179058175},{"NoteNumber":86,"Velocity":52,"Duration":356718,"SoundDuration":356718,"Delta":179393445},{"NoteNumber":74,"Velocity":46,"Duration":356718,"SoundDuration":356718,"Delta":179393445},{"NoteNumber":62,"Velocity":36,"Duration":356718,"SoundDuration":356718,"Delta":179393445},{"NoteNumber":57,"Velocity":30,"Duration":356718,"SoundDuration":356718,"Delta":179393445},{"NoteNumber":66,"Velocity":36,"Duration":356718,"SoundDuration":356718,"Delta":179393445},{"NoteNumber":38,"Velocity":47,"Duration":333407,"SoundDuration":333407,"Delta":179750163},{"NoteNumber":66,"Velocity":44,"Duration":306748,"SoundDuration":306748,"Delta":180083571},{"NoteNumber":62,"Velocity":36,"Duration":102249,"SoundDuration":102249,"Delta":180185820},{"NoteNumber":58,"Velocity":36,"Duration":102249,"SoundDuration":102249,"Delta":180288070},{"NoteNumber":90,"Velocity":57,"Duration":348593,"SoundDuration":348593,"Delta":180390319},{"NoteNumber":78,"Velocity":53,"Duration":348593,"SoundDuration":348593,"Delta":180390319},{"NoteNumber":54,"Velocity":36,"Duration":348593,"SoundDuration":348593,"Delta":180390319},{"NoteNumber":66,"Velocity":44,"Duration":348593,"SoundDuration":348593,"Delta":180390319},{"NoteNumber":90,"Velocity":63,"Duration":697188,"SoundDuration":697188,"Delta":180738913},{"NoteNumber":82,"Velocity":40,"Duration":1400526,"SoundDuration":1400526,"Delta":180738913},{"NoteNumber":78,"Velocity":57,"Duration":697188,"SoundDuration":697188,"Delta":180738913},{"NoteNumber":62,"Velocity":44,"Duration":348594,"SoundDuration":348594,"Delta":180738913},{"NoteNumber":58,"Velocity":36,"Duration":348594,"SoundDuration":348594,"Delta":180738913},{"NoteNumber":66,"Velocity":44,"Duration":348594,"SoundDuration":348594,"Delta":180738913},{"NoteNumber":54,"Velocity":34,"Duration":348593,"SoundDuration":348593,"Delta":181087507},{"NoteNumber":66,"Velocity":41,"Duration":348593,"SoundDuration":348593,"Delta":181087507},{"NoteNumber":88,"Velocity":57,"Duration":356718,"SoundDuration":356718,"Delta":181436101},{"NoteNumber":76,"Velocity":53,"Duration":356718,"SoundDuration":356718,"Delta":181436101},{"NoteNumber":62,"Velocity":44,"Duration":703338,"SoundDuration":703338,"Delta":181436101},{"NoteNumber":58,"Velocity":36,"Duration":703338,"SoundDuration":703338,"Delta":181436101},{"NoteNumber":66,"Velocity":44,"Duration":703338,"SoundDuration":703338,"Delta":181436101},{"NoteNumber":88,"Velocity":62,"Duration":666143,"SoundDuration":666143,"Delta":181792819},{"NoteNumber":76,"Velocity":56,"Duration":666143,"SoundDuration":666143,"Delta":181792819},{"NoteNumber":66,"Velocity":44,"Duration":319523,"SoundDuration":319523,"Delta":182139440},{"NoteNumber":62,"Velocity":36,"Duration":106507,"SoundDuration":106507,"Delta":182245947},{"NoteNumber":58,"Velocity":36,"Duration":106507,"SoundDuration":106507,"Delta":182352455},{"NoteNumber":85,"Velocity":57,"Duration":342779,"SoundDuration":342779,"Delta":182458963},{"NoteNumber":73,"Velocity":53,"Duration":342779,"SoundDuration":342779,"Delta":182458963},{"NoteNumber":54,"Velocity":36,"Duration":342779,"SoundDuration":342779,"Delta":182458963},{"NoteNumber":66,"Velocity":44,"Duration":342779,"SoundDuration":342779,"Delta":182458963},{"NoteNumber":86,"Velocity":62,"Duration":514168,"SoundDuration":514168,"Delta":182801742},{"NoteNumber":71,"Velocity":40,"Duration":1050743,"SoundDuration":1050743,"Delta":182801742},{"NoteNumber":83,"Velocity":40,"Duration":1050743,"SoundDuration":1050743,"Delta":182801742},{"NoteNumber":74,"Velocity":56,"Duration":514168,"SoundDuration":514168,"Delta":182801742},{"NoteNumber":62,"Velocity":44,"Duration":342779,"SoundDuration":342779,"Delta":182801742},{"NoteNumber":59,"Velocity":36,"Duration":342779,"SoundDuration":342779,"Delta":182801742},{"NoteNumber":66,"Velocity":44,"Duration":342779,"SoundDuration":342779,"Delta":182801742},{"NoteNumber":54,"Velocity":34,"Duration":342778,"SoundDuration":342778,"Delta":183144521},{"NoteNumber":66,"Velocity":41,"Duration":342778,"SoundDuration":342778,"Delta":183144521},{"NoteNumber":85,"Velocity":57,"Duration":171389,"SoundDuration":171389,"Delta":183315910},{"NoteNumber":73,"Velocity":53,"Duration":171389,"SoundDuration":171389,"Delta":183315910},{"NoteNumber":83,"Velocity":57,"Duration":365185,"SoundDuration":365185,"Delta":183487300},{"NoteNumber":71,"Velocity":53,"Duration":365185,"SoundDuration":365185,"Delta":183487300},{"NoteNumber":62,"Velocity":44,"Duration":365185,"SoundDuration":365185,"Delta":183487300},{"NoteNumber":59,"Velocity":36,"Duration":365185,"SoundDuration":365185,"Delta":183487300},{"NoteNumber":66,"Velocity":44,"Duration":365185,"SoundDuration":365185,"Delta":183487300},{"NoteNumber":38,"Velocity":47,"Duration":365185,"SoundDuration":365185,"Delta":183852485},{"NoteNumber":66,"Velocity":52,"Duration":319523,"SoundDuration":319523,"Delta":184217671},{"NoteNumber":62,"Velocity":47,"Duration":106507,"SoundDuration":106507,"Delta":184324178},{"NoteNumber":58,"Velocity":45,"Duration":106507,"SoundDuration":106507,"Delta":184430686},{"NoteNumber":90,"Velocity":57,"Duration":354651,"SoundDuration":354651,"Delta":184537194},{"NoteNumber":78,"Velocity":53,"Duration":354651,"SoundDuration":354651,"Delta":184537194},{"NoteNumber":54,"Velocity":36,"Duration":354651,"SoundDuration":354651,"Delta":184537194},{"NoteNumber":66,"Velocity":44,"Duration":354651,"SoundDuration":354651,"Delta":184537194},{"NoteNumber":90,"Velocity":63,"Duration":697188,"SoundDuration":697188,"Delta":184891846},{"NoteNumber":82,"Velocity":40,"Duration":1400526,"SoundDuration":1400526,"Delta":184891846},{"NoteNumber":78,"Velocity":57,"Duration":697188,"SoundDuration":697188,"Delta":184891846},{"NoteNumber":62,"Velocity":44,"Duration":348593,"SoundDuration":348593,"Delta":184891846},{"NoteNumber":58,"Velocity":36,"Duration":348593,"SoundDuration":348593,"Delta":184891846},{"NoteNumber":66,"Velocity":44,"Duration":348593,"SoundDuration":348593,"Delta":184891846},{"NoteNumber":54,"Velocity":34,"Duration":348594,"SoundDuration":348594,"Delta":185240440},{"NoteNumber":66,"Velocity":41,"Duration":348594,"SoundDuration":348594,"Delta":185240440},{"NoteNumber":88,"Velocity":57,"Duration":356718,"SoundDuration":356718,"Delta":185589034},{"NoteNumber":76,"Velocity":53,"Duration":356718,"SoundDuration":356718,"Delta":185589034},{"NoteNumber":62,"Velocity":44,"Duration":703338,"SoundDuration":703338,"Delta":185589034},{"NoteNumber":58,"Velocity":36,"Duration":703338,"SoundDuration":703338,"Delta":185589034},{"NoteNumber":66,"Velocity":44,"Duration":703338,"SoundDuration":703338,"Delta":185589034},{"NoteNumber":88,"Velocity":62,"Duration":659641,"SoundDuration":659641,"Delta":185945752},{"NoteNumber":76,"Velocity":56,"Duration":659641,"SoundDuration":659641,"Delta":185945752},{"NoteNumber":66,"Velocity":44,"Duration":313021,"SoundDuration":313021,"Delta":186292372},{"NoteNumber":62,"Velocity":36,"Duration":104340,"SoundDuration":104340,"Delta":186396713},{"NoteNumber":58,"Velocity":36,"Duration":104340,"SoundDuration":104340,"Delta":186501053},{"NoteNumber":85,"Velocity":57,"Duration":384454,"SoundDuration":384454,"Delta":186605394},{"NoteNumber":73,"Velocity":53,"Duration":384454,"SoundDuration":384454,"Delta":186605394},{"NoteNumber":54,"Velocity":36,"Duration":384454,"SoundDuration":384454,"Delta":186605394},{"NoteNumber":66,"Velocity":44,"Duration":384454,"SoundDuration":384454,"Delta":186605394},{"NoteNumber":74,"Velocity":49,"Duration":672029,"SoundDuration":672029,"Delta":186831988},{"NoteNumber":78,"Velocity":49,"Duration":1155096,"SoundDuration":1155096,"Delta":186885495},{"NoteNumber":88,"Velocity":50,"Duration":51702,"SoundDuration":51702,"Delta":186938146},{"NoteNumber":86,"Velocity":62,"Duration":514168,"SoundDuration":514168,"Delta":186989849},{"NoteNumber":71,"Velocity":40,"Duration":1050743,"SoundDuration":1050743,"Delta":186989849},{"NoteNumber":62,"Velocity":44,"Duration":342779,"SoundDuration":342779,"Delta":186989849},{"NoteNumber":59,"Velocity":36,"Duration":342779,"SoundDuration":342779,"Delta":186989849},{"NoteNumber":66,"Velocity":44,"Duration":342779,"SoundDuration":342779,"Delta":186989849},{"NoteNumber":54,"Velocity":34,"Duration":342778,"SoundDuration":342778,"Delta":187332628},{"NoteNumber":66,"Velocity":41,"Duration":342778,"SoundDuration":342778,"Delta":187332628},{"NoteNumber":85,"Velocity":57,"Duration":171389,"SoundDuration":171389,"Delta":187504017},{"NoteNumber":73,"Velocity":53,"Duration":171389,"SoundDuration":171389,"Delta":187504017},{"NoteNumber":83,"Velocity":57,"Duration":365185,"SoundDuration":365185,"Delta":187675407},{"NoteNumber":71,"Velocity":53,"Duration":365185,"SoundDuration":365185,"Delta":187675407},{"NoteNumber":62,"Velocity":44,"Duration":365185,"SoundDuration":365185,"Delta":187675407},{"NoteNumber":59,"Velocity":36,"Duration":365185,"SoundDuration":365185,"Delta":187675407},{"NoteNumber":66,"Velocity":44,"Duration":365185,"SoundDuration":365185,"Delta":187675407},{"NoteNumber":50,"Velocity":47,"Duration":365185,"SoundDuration":365185,"Delta":188040592},{"NoteNumber":38,"Velocity":41,"Duration":365185,"SoundDuration":365185,"Delta":188040592},{"NoteNumber":66,"Velocity":46,"Duration":321199,"SoundDuration":321199,"Delta":188405778},{"NoteNumber":62,"Velocity":41,"Duration":107066,"SoundDuration":107066,"Delta":188512844},{"NoteNumber":57,"Velocity":41,"Duration":107066,"SoundDuration":107066,"Delta":188619910},{"NoteNumber":78,"Velocity":61,"Duration":365185,"SoundDuration":365185,"Delta":188726977},{"NoteNumber":81,"Velocity":61,"Duration":365185,"SoundDuration":365185,"Delta":188726977},{"NoteNumber":69,"Velocity":61,"Duration":365185,"SoundDuration":365185,"Delta":188726977},{"NoteNumber":54,"Velocity":36,"Duration":365185,"SoundDuration":365185,"Delta":188726977},{"NoteNumber":66,"Velocity":44,"Duration":365185,"SoundDuration":365185,"Delta":188726977},{"NoteNumber":78,"Velocity":64,"Duration":1460742,"SoundDuration":1460742,"Delta":189092162},{"NoteNumber":83,"Velocity":64,"Duration":1095556,"SoundDuration":1095556,"Delta":189092162},{"NoteNumber":71,"Velocity":64,"Duration":1095556,"SoundDuration":1095556,"Delta":189092162},{"NoteNumber":62,"Velocity":50,"Duration":365185,"SoundDuration":365185,"Delta":189092162},{"NoteNumber":56,"Velocity":42,"Duration":365185,"SoundDuration":365185,"Delta":189092162},{"NoteNumber":66,"Velocity":50,"Duration":365185,"SoundDuration":365185,"Delta":189092162},{"NoteNumber":54,"Velocity":40,"Duration":365185,"SoundDuration":365185,"Delta":189457348},{"NoteNumber":66,"Velocity":46,"Duration":365185,"SoundDuration":365185,"Delta":189457348},{"NoteNumber":62,"Velocity":45,"Duration":365185,"SoundDuration":365185,"Delta":189822533},{"NoteNumber":56,"Velocity":37,"Duration":365185,"SoundDuration":365185,"Delta":189822533},{"NoteNumber":66,"Velocity":45,"Duration":365185,"SoundDuration":365185,"Delta":189822533},{"NoteNumber":73,"Velocity":66,"Duration":365185,"SoundDuration":365185,"Delta":190187719},{"NoteNumber":85,"Velocity":66,"Duration":365185,"SoundDuration":365185,"Delta":190187719},{"NoteNumber":37,"Velocity":51,"Duration":365185,"SoundDuration":365185,"Delta":190187719},{"NoteNumber":49,"Velocity":51,"Duration":365185,"SoundDuration":365185,"Delta":190187719},{"NoteNumber":70,"Velocity":30,"Duration":1031238,"SoundDuration":1031238,"Delta":190918090},{"NoteNumber":73,"Velocity":30,"Duration":1031238,"SoundDuration":1031238,"Delta":190918090},{"NoteNumber":61,"Velocity":45,"Duration":358766,"SoundDuration":358766,"Delta":190918090},{"NoteNumber":58,"Velocity":30,"Duration":1031238,"SoundDuration":1031238,"Delta":190918090},{"NoteNumber":49,"Velocity":30,"Duration":1031238,"SoundDuration":1031238,"Delta":190918090},{"NoteNumber":65,"Velocity":47,"Duration":506671,"SoundDuration":506671,"Delta":191276856},{"NoteNumber":66,"Velocity":45,"Duration":165800,"SoundDuration":165800,"Delta":191783527},{"NoteNumber":73,"Velocity":26,"Duration":1032330,"SoundDuration":1032330,"Delta":191949328},{"NoteNumber":68,"Velocity":45,"Duration":350590,"SoundDuration":350590,"Delta":191949328},{"NoteNumber":49,"Velocity":26,"Duration":1032330,"SoundDuration":1032330,"Delta":191949328},{"NoteNumber":59,"Velocity":26,"Duration":1032330,"SoundDuration":1032330,"Delta":191949328},{"NoteNumber":65,"Velocity":50,"Duration":681740,"SoundDuration":681740,"Delta":192299918},{"NoteNumber":71,"Velocity":30,"Duration":1041947,"SoundDuration":1041947,"Delta":192981659},{"NoteNumber":73,"Velocity":30,"Duration":1041947,"SoundDuration":1041947,"Delta":192981659},{"NoteNumber":61,"Velocity":44,"Duration":352609,"SoundDuration":352609,"Delta":192981659},{"NoteNumber":56,"Velocity":26,"Duration":1041947,"SoundDuration":1041947,"Delta":192981659},{"NoteNumber":49,"Velocity":26,"Duration":1041947,"SoundDuration":1041947,"Delta":192981659},{"NoteNumber":59,"Velocity":26,"Duration":1041947,"SoundDuration":1041947,"Delta":192981659},{"NoteNumber":63,"Velocity":45,"Duration":1766019,"SoundDuration":1766019,"Delta":193334268},{"NoteNumber":71,"Velocity":30,"Duration":367377,"SoundDuration":367377,"Delta":194023606},{"NoteNumber":73,"Velocity":30,"Duration":367377,"SoundDuration":367377,"Delta":194023606},{"NoteNumber":68,"Velocity":30,"Duration":367377,"SoundDuration":367377,"Delta":194023606},{"NoteNumber":41,"Velocity":29,"Duration":367377,"SoundDuration":367377,"Delta":194023606},{"NoteNumber":49,"Velocity":29,"Duration":1076681,"SoundDuration":1076681,"Delta":194023606},{"NoteNumber":42,"Velocity":35,"Duration":709304,"SoundDuration":709304,"Delta":194390983},{"NoteNumber":70,"Velocity":30,"Duration":1039974,"SoundDuration":1039974,"Delta":195100287},{"NoteNumber":73,"Velocity":30,"Duration":1039974,"SoundDuration":1039974,"Delta":195100287},{"NoteNumber":61,"Velocity":45,"Duration":360880,"SoundDuration":360880,"Delta":195100287},{"NoteNumber":49,"Velocity":26,"Duration":1039974,"SoundDuration":1039974,"Delta":195100287},{"NoteNumber":58,"Velocity":26,"Duration":1039974,"SoundDuration":1039974,"Delta":195100287},{"NoteNumber":65,"Velocity":47,"Duration":514168,"SoundDuration":514168,"Delta":195461168},{"NoteNumber":66,"Velocity":45,"Duration":164925,"SoundDuration":164925,"Delta":195975336},{"NoteNumber":73,"Velocity":30,"Duration":172511,"SoundDuration":172511,"Delta":196140262},{"NoteNumber":68,"Velocity":45,"Duration":172511,"SoundDuration":172511,"Delta":196140262},{"NoteNumber":49,"Velocity":26,"Duration":172511,"SoundDuration":172511,"Delta":196140262},{"NoteNumber":59,"Velocity":26,"Duration":172511,"SoundDuration":172511,"Delta":196140262},{"NoteNumber":65,"Velocity":43,"Duration":79465,"SoundDuration":79465,"Delta":196312774},{"NoteNumber":66,"Velocity":36,"Duration":79465,"SoundDuration":79465,"Delta":196392240},{"NoteNumber":65,"Velocity":49,"Duration":125726,"SoundDuration":125726,"Delta":196471706},{"NoteNumber":63,"Velocity":44,"Duration":128542,"SoundDuration":128542,"Delta":196806976},{"NoteNumber":71,"Velocity":30,"Duration":350590,"SoundDuration":350590,"Delta":197149755},{"NoteNumber":73,"Velocity":30,"Duration":350590,"SoundDuration":350590,"Delta":197149755},{"NoteNumber":65,"Velocity":30,"Duration":350590,"SoundDuration":350590,"Delta":197149755},{"NoteNumber":61,"Velocity":44,"Duration":131471,"SoundDuration":131471,"Delta":197149755},{"NoteNumber":59,"Velocity":22,"Duration":350590,"SoundDuration":350590,"Delta":197149755},{"NoteNumber":49,"Velocity":22,"Duration":350590,"SoundDuration":350590,"Delta":197149755},{"NoteNumber":56,"Velocity":22,"Duration":350590,"SoundDuration":350590,"Delta":197149755},{"NoteNumber":63,"Velocity":43,"Duration":1788306,"SoundDuration":1788306,"Delta":197500345},{"NoteNumber":66,"Velocity":33,"Duration":1087126,"SoundDuration":1087126,"Delta":198201525},{"NoteNumber":71,"Velocity":33,"Duration":1087126,"SoundDuration":1087126,"Delta":198201525},{"NoteNumber":73,"Velocity":33,"Duration":1087126,"SoundDuration":1087126,"Delta":198201525},{"NoteNumber":49,"Velocity":23,"Duration":728360,"SoundDuration":728360,"Delta":198201525},{"NoteNumber":54,"Velocity":23,"Duration":728360,"SoundDuration":728360,"Delta":198201525},{"NoteNumber":59,"Velocity":23,"Duration":728360,"SoundDuration":728360,"Delta":198201525},{"NoteNumber":68,"Velocity":39,"Duration":360880,"SoundDuration":360880,"Delta":199288652},{"NoteNumber":71,"Velocity":39,"Duration":360880,"SoundDuration":360880,"Delta":199288652},{"NoteNumber":73,"Velocity":39,"Duration":360880,"SoundDuration":360880,"Delta":199288652},{"NoteNumber":61,"Velocity":45,"Duration":360880,"SoundDuration":360880,"Delta":199288652},{"NoteNumber":49,"Velocity":25,"Duration":360880,"SoundDuration":360880,"Delta":199288652},{"NoteNumber":53,"Velocity":25,"Duration":360880,"SoundDuration":360880,"Delta":199288652},{"NoteNumber":59,"Velocity":25,"Duration":360880,"SoundDuration":360880,"Delta":199288652},{"NoteNumber":65,"Velocity":47,"Duration":514168,"SoundDuration":514168,"Delta":199649532},{"NoteNumber":66,"Velocity":45,"Duration":164925,"SoundDuration":164925,"Delta":200163701},{"NoteNumber":68,"Velocity":45,"Duration":337116,"SoundDuration":337116,"Delta":200328626},{"NoteNumber":65,"Velocity":49,"Duration":344669,"SoundDuration":344669,"Delta":200665743},{"NoteNumber":63,"Velocity":44,"Duration":350590,"SoundDuration":350590,"Delta":201010412},{"NoteNumber":56,"Velocity":36,"Duration":363020,"SoundDuration":363020,"Delta":201361002},{"NoteNumber":61,"Velocity":44,"Duration":363020,"SoundDuration":363020,"Delta":201361002},{"NoteNumber":53,"Velocity":31,"Duration":363020,"SoundDuration":363020,"Delta":201361002},{"NoteNumber":49,"Velocity":26,"Duration":363020,"SoundDuration":363020,"Delta":201361002},{"NoteNumber":59,"Velocity":41,"Duration":1752949,"SoundDuration":1752949,"Delta":201724022},{"NoteNumber":63,"Velocity":47,"Duration":1752949,"SoundDuration":1752949,"Delta":201724022},{"NoteNumber":47,"Velocity":29,"Duration":1752949,"SoundDuration":1752949,"Delta":201724022},{"NoteNumber":54,"Velocity":35,"Duration":1752949,"SoundDuration":1752949,"Delta":201724022},{"NoteNumber":56,"Velocity":47,"Duration":242196,"SoundDuration":242196,"Delta":203476972},{"NoteNumber":59,"Velocity":47,"Duration":242196,"SoundDuration":242196,"Delta":203476972},{"NoteNumber":63,"Velocity":47,"Duration":242196,"SoundDuration":242196,"Delta":203476972},{"NoteNumber":44,"Velocity":35,"Duration":242196,"SoundDuration":242196,"Delta":203476972},{"NoteNumber":51,"Velocity":35,"Duration":242196,"SoundDuration":242196,"Delta":203476972},{"NoteNumber":39,"Velocity":25,"Duration":967758,"SoundDuration":967758,"Delta":203719168},{"NoteNumber":46,"Velocity":27,"Duration":912982,"SoundDuration":912982,"Delta":203773945},{"NoteNumber":51,"Velocity":29,"Duration":858205,"SoundDuration":858205,"Delta":203828721},{"NoteNumber":54,"Velocity":36,"Duration":803429,"SoundDuration":803429,"Delta":203883498},{"NoteNumber":58,"Velocity":39,"Duration":748652,"SoundDuration":748652,"Delta":203938274},{"NoteNumber":66,"Velocity":41,"Duration":693876,"SoundDuration":693876,"Delta":203993051},{"NoteNumber":66,"Velocity":36,"Duration":956905,"SoundDuration":956905,"Delta":204694231},{"NoteNumber":54,"Velocity":36,"Duration":956905,"SoundDuration":956905,"Delta":204694231},{"NoteNumber":54,"Velocity":32,"Duration":802997,"SoundDuration":802997,"Delta":205657828},{"NoteNumber":66,"Velocity":32,"Duration":802997,"SoundDuration":802997,"Delta":205657828},{"NoteNumber":51,"Velocity":40,"Duration":603563,"SoundDuration":603563,"Delta":206460825},{"NoteNumber":57,"Velocity":40,"Duration":549013,"SoundDuration":549013,"Delta":206515375},{"NoteNumber":59,"Velocity":44,"Duration":496161,"SoundDuration":496161,"Delta":206568227},{"NoteNumber":66,"Velocity":44,"Duration":445166,"SoundDuration":445166,"Delta":206619222},{"NoteNumber":71,"Velocity":44,"Duration":395830,"SoundDuration":395830,"Delta":206668558},{"NoteNumber":40,"Velocity":53,"Duration":649163,"SoundDuration":649163,"Delta":207064388},{"NoteNumber":67,"Velocity":40,"Duration":1007685,"SoundDuration":1007685,"Delta":207713552},{"NoteNumber":71,"Velocity":40,"Duration":1007685,"SoundDuration":1007685,"Delta":207713552},{"NoteNumber":79,"Velocity":57,"Duration":340870,"SoundDuration":340870,"Delta":207713552},{"NoteNumber":52,"Velocity":33,"Duration":1007685,"SoundDuration":1007685,"Delta":207713552},{"NoteNumber":59,"Velocity":33,"Duration":1007685,"SoundDuration":1007685,"Delta":207713552},{"NoteNumber":64,"Velocity":33,"Duration":1007685,"SoundDuration":1007685,"Delta":207713552},{"NoteNumber":78,"Velocity":62,"Duration":333407,"SoundDuration":333407,"Delta":208054422},{"NoteNumber":79,"Velocity":53,"Duration":333407,"SoundDuration":333407,"Delta":208387830},{"NoteNumber":64,"Velocity":40,"Duration":1007685,"SoundDuration":1007685,"Delta":208721237},{"NoteNumber":71,"Velocity":40,"Duration":1007685,"SoundDuration":1007685,"Delta":208721237},{"NoteNumber":76,"Velocity":53,"Duration":1007685,"SoundDuration":1007685,"Delta":208721237},{"NoteNumber":59,"Velocity":40,"Duration":1007685,"SoundDuration":1007685,"Delta":208721237},{"NoteNumber":52,"Velocity":40,"Duration":1007685,"SoundDuration":1007685,"Delta":208721237},{"NoteNumber":67,"Velocity":53,"Duration":340870,"SoundDuration":340870,"Delta":208721237},{"NoteNumber":66,"Velocity":56,"Duration":333407,"SoundDuration":333407,"Delta":209062108},{"NoteNumber":67,"Velocity":47,"Duration":333407,"SoundDuration":333407,"Delta":209395515},{"NoteNumber":83,"Velocity":57,"Duration":340870,"SoundDuration":340870,"Delta":209728923},{"NoteNumber":67,"Velocity":40,"Duration":1022611,"SoundDuration":1022611,"Delta":209728923},{"NoteNumber":76,"Velocity":40,"Duration":1022611,"SoundDuration":1022611,"Delta":209728923},{"NoteNumber":52,"Velocity":34,"Duration":1022611,"SoundDuration":1022611,"Delta":209728923},{"NoteNumber":59,"Velocity":34,"Duration":1022611,"SoundDuration":1022611,"Delta":209728923},{"NoteNumber":64,"Velocity":47,"Duration":1022611,"SoundDuration":1022611,"Delta":209728923},{"NoteNumber":83,"Velocity":63,"Duration":681741,"SoundDuration":681741,"Delta":210069793},{"NoteNumber":85,"Velocity":61,"Duration":165800,"SoundDuration":165800,"Delta":210751534},{"NoteNumber":47,"Velocity":34,"Duration":331601,"SoundDuration":331601,"Delta":210751534},{"NoteNumber":83,"Velocity":61,"Duration":82900,"SoundDuration":82900,"Delta":210917335},{"NoteNumber":85,"Velocity":62,"Duration":82900,"SoundDuration":82900,"Delta":211000236},{"NoteNumber":83,"Velocity":67,"Duration":505674,"SoundDuration":505674,"Delta":211083136},{"NoteNumber":40,"Velocity":53,"Duration":668842,"SoundDuration":668842,"Delta":211083136},{"NoteNumber":81,"Velocity":63,"Duration":163167,"SoundDuration":163167,"Delta":211588811},{"NoteNumber":79,"Velocity":63,"Duration":337116,"SoundDuration":337116,"Delta":211751978},{"NoteNumber":52,"Velocity":36,"Duration":1005959,"SoundDuration":1005959,"Delta":211751978},{"NoteNumber":59,"Velocity":36,"Duration":1005959,"SoundDuration":1005959,"Delta":211751978},{"NoteNumber":78,"Velocity":66,"Duration":337116,"SoundDuration":337116,"Delta":212089095},{"NoteNumber":71,"Velocity":56,"Duration":505674,"SoundDuration":505674,"Delta":212089095},{"NoteNumber":79,"Velocity":63,"Duration":331726,"SoundDuration":331726,"Delta":212426211},{"NoteNumber":69,"Velocity":53,"Duration":163167,"SoundDuration":163167,"Delta":212594770},{"NoteNumber":71,"Velocity":40,"Duration":1007701,"SoundDuration":1007701,"Delta":212757937},{"NoteNumber":76,"Velocity":62,"Duration":1007701,"SoundDuration":1007701,"Delta":212757937},{"NoteNumber":67,"Velocity":53,"Duration":337116,"SoundDuration":337116,"Delta":212757937},{"NoteNumber":66,"Velocity":55,"Duration":331601,"SoundDuration":331601,"Delta":213095054},{"NoteNumber":67,"Velocity":53,"Duration":338983,"SoundDuration":338983,"Delta":213426655},{"NoteNumber":67,"Velocity":40,"Duration":1050358,"SoundDuration":1050358,"Delta":213765638},{"NoteNumber":71,"Velocity":40,"Duration":1050358,"SoundDuration":1050358,"Delta":213765638},{"NoteNumber":79,"Velocity":64,"Duration":358766,"SoundDuration":358766,"Delta":213765638},{"NoteNumber":52,"Velocity":36,"Duration":1050358,"SoundDuration":1050358,"Delta":213765638},{"NoteNumber":59,"Velocity":36,"Duration":1050358,"SoundDuration":1050358,"Delta":213765638},{"NoteNumber":64,"Velocity":51,"Duration":1050358,"SoundDuration":1050358,"Delta":213765638},{"NoteNumber":79,"Velocity":67,"Duration":691592,"SoundDuration":691592,"Delta":214124404},{"NoteNumber":67,"Velocity":40,"Duration":354651,"SoundDuration":354651,"Delta":214815997},{"NoteNumber":71,"Velocity":40,"Duration":354651,"SoundDuration":354651,"Delta":214815997},{"NoteNumber":78,"Velocity":59,"Duration":354651,"SoundDuration":354651,"Delta":214815997},{"NoteNumber":52,"Velocity":36,"Duration":354651,"SoundDuration":354651,"Delta":214815997},{"NoteNumber":62,"Velocity":41,"Duration":354651,"SoundDuration":354651,"Delta":214815997},{"NoteNumber":59,"Velocity":36,"Duration":354651,"SoundDuration":354651,"Delta":214815997},{"NoteNumber":45,"Velocity":32,"Duration":1096577,"SoundDuration":1096577,"Delta":215126317},{"NoteNumber":67,"Velocity":33,"Duration":1052245,"SoundDuration":1052245,"Delta":215170649},{"NoteNumber":71,"Velocity":33,"Duration":1052245,"SoundDuration":1052245,"Delta":215170649},{"NoteNumber":78,"Velocity":62,"Duration":711375,"SoundDuration":711375,"Delta":215170649},{"NoteNumber":62,"Velocity":45,"Duration":711375,"SoundDuration":711375,"Delta":215170649},{"NoteNumber":74,"Velocity":63,"Duration":340870,"SoundDuration":340870,"Delta":215882024},{"NoteNumber":59,"Velocity":44,"Duration":340870,"SoundDuration":340870,"Delta":215882024},{"NoteNumber":69,"Velocity":40,"Duration":1028177,"SoundDuration":1028177,"Delta":216222895},{"NoteNumber":67,"Velocity":40,"Duration":1028177,"SoundDuration":1028177,"Delta":216222895},{"NoteNumber":76,"Velocity":67,"Duration":511305,"SoundDuration":511305,"Delta":216222895},{"NoteNumber":57,"Velocity":51,"Duration":1028177,"SoundDuration":1028177,"Delta":216222895},{"NoteNumber":61,"Velocity":51,"Duration":511305,"SoundDuration":511305,"Delta":216222895},{"NoteNumber":74,"Velocity":62,"Duration":164925,"SoundDuration":164925,"Delta":216734201},{"NoteNumber":59,"Velocity":47,"Duration":164925,"SoundDuration":164925,"Delta":216734201},{"NoteNumber":73,"Velocity":59,"Duration":351945,"SoundDuration":351945,"Delta":216899126},{"NoteNumber":57,"Velocity":45,"Duration":351945,"SoundDuration":351945,"Delta":216899126},{"NoteNumber":40,"Velocity":53,"Duration":333407,"SoundDuration":333407,"Delta":217251072},{"NoteNumber":52,"Velocity":36,"Duration":1391229,"SoundDuration":1391229,"Delta":217584479},{"NoteNumber":59,"Velocity":36,"Duration":1391229,"SoundDuration":1391229,"Delta":217584479},{"NoteNumber":67,"Velocity":40,"Duration":1050358,"SoundDuration":1050358,"Delta":217925350},{"NoteNumber":71,"Velocity":40,"Duration":1050358,"SoundDuration":1050358,"Delta":217925350},{"NoteNumber":79,"Velocity":64,"Duration":358766,"SoundDuration":358766,"Delta":217925350},{"NoteNumber":64,"Velocity":47,"Duration":1050358,"SoundDuration":1050358,"Delta":217925350},{"NoteNumber":79,"Velocity":67,"Duration":691592,"SoundDuration":691592,"Delta":218284116},{"NoteNumber":67,"Velocity":40,"Duration":354651,"SoundDuration":354651,"Delta":218975708},{"NoteNumber":71,"Velocity":40,"Duration":354651,"SoundDuration":354651,"Delta":218975708},{"NoteNumber":78,"Velocity":59,"Duration":354651,"SoundDuration":354651,"Delta":218975708},{"NoteNumber":52,"Velocity":30,"Duration":354651,"SoundDuration":354651,"Delta":218975708},{"NoteNumber":62,"Velocity":36,"Duration":354651,"SoundDuration":354651,"Delta":218975708},{"NoteNumber":59,"Velocity":30,"Duration":354651,"SoundDuration":354651,"Delta":218975708},{"NoteNumber":45,"Velocity":44,"Duration":1096577,"SoundDuration":1096577,"Delta":219286029},{"NoteNumber":67,"Velocity":40,"Duration":1052245,"SoundDuration":1052245,"Delta":219330360},{"NoteNumber":71,"Velocity":40,"Duration":1052245,"SoundDuration":1052245,"Delta":219330360},{"NoteNumber":78,"Velocity":62,"Duration":711375,"SoundDuration":711375,"Delta":219330360},{"NoteNumber":62,"Velocity":44,"Duration":711375,"SoundDuration":711375,"Delta":219330360},{"NoteNumber":74,"Velocity":63,"Duration":340870,"SoundDuration":340870,"Delta":220041736},{"NoteNumber":59,"Velocity":42,"Duration":340870,"SoundDuration":340870,"Delta":220041736},{"NoteNumber":69,"Velocity":40,"Duration":1028177,"SoundDuration":1028177,"Delta":220382606},{"NoteNumber":67,"Velocity":40,"Duration":1028177,"SoundDuration":1028177,"Delta":220382606},{"NoteNumber":73,"Velocity":67,"Duration":511305,"SoundDuration":511305,"Delta":220382606},{"NoteNumber":57,"Velocity":40,"Duration":1028177,"SoundDuration":1028177,"Delta":220382606},{"NoteNumber":64,"Velocity":52,"Duration":511305,"SoundDuration":511305,"Delta":220382606},{"NoteNumber":71,"Velocity":62,"Duration":164925,"SoundDuration":164925,"Delta":220893912},{"NoteNumber":62,"Velocity":47,"Duration":164925,"SoundDuration":164925,"Delta":220893912},{"NoteNumber":69,"Velocity":59,"Duration":351945,"SoundDuration":351945,"Delta":221058838},{"NoteNumber":61,"Velocity":45,"Duration":351945,"SoundDuration":351945,"Delta":221058838},{"NoteNumber":45,"Velocity":53,"Duration":681740,"SoundDuration":681740,"Delta":221410783},{"NoteNumber":69,"Velocity":41,"Duration":170435,"SoundDuration":170435,"Delta":222092524},{"NoteNumber":67,"Velocity":41,"Duration":170435,"SoundDuration":170435,"Delta":222092524},{"NoteNumber":64,"Velocity":35,"Duration":170435,"SoundDuration":170435,"Delta":222092524},{"NoteNumber":61,"Velocity":35,"Duration":170435,"SoundDuration":170435,"Delta":222092524},{"NoteNumber":71,"Velocity":41,"Duration":1036392,"SoundDuration":1036392,"Delta":222433395},{"NoteNumber":67,"Velocity":41,"Duration":1036392,"SoundDuration":1036392,"Delta":222433395},{"NoteNumber":64,"Velocity":35,"Duration":1036392,"SoundDuration":1036392,"Delta":222433395},{"NoteNumber":62,"Velocity":35,"Duration":1036392,"SoundDuration":1036392,"Delta":222433395},{"NoteNumber":40,"Velocity":37,"Duration":354651,"SoundDuration":354651,"Delta":223115136},{"NoteNumber":33,"Velocity":29,"Duration":352434,"SoundDuration":352434,"Delta":223469788},{"NoteNumber":45,"Velocity":39,"Duration":352434,"SoundDuration":352434,"Delta":223469788},{"NoteNumber":67,"Velocity":42,"Duration":1001215,"SoundDuration":1001215,"Delta":224161666},{"NoteNumber":69,"Velocity":42,"Duration":1001215,"SoundDuration":1001215,"Delta":224161666},{"NoteNumber":57,"Velocity":53,"Duration":346780,"SoundDuration":346780,"Delta":224161666},{"NoteNumber":61,"Velocity":54,"Duration":493110,"SoundDuration":493110,"Delta":224508446},{"NoteNumber":62,"Velocity":53,"Duration":161325,"SoundDuration":161325,"Delta":225001556},{"NoteNumber":67,"Velocity":36,"Duration":995579,"SoundDuration":995579,"Delta":225162881},{"NoteNumber":64,"Velocity":53,"Duration":339443,"SoundDuration":339443,"Delta":225162881},{"NoteNumber":69,"Velocity":36,"Duration":776267,"SoundDuration":776267,"Delta":225162881},{"NoteNumber":61,"Velocity":57,"Duration":656136,"SoundDuration":656136,"Delta":225502325},{"NoteNumber":69,"Velocity":46,"Duration":329906,"SoundDuration":329906,"Delta":225828554},{"NoteNumber":76,"Velocity":49,"Duration":109962,"SoundDuration":109962,"Delta":225939149},{"NoteNumber":81,"Velocity":51,"Duration":109349,"SoundDuration":109349,"Delta":226049111},{"NoteNumber":79,"Velocity":51,"Duration":109349,"SoundDuration":109349,"Delta":226049111},{"NoteNumber":81,"Velocity":53,"Duration":108743,"SoundDuration":108743,"Delta":226158461},{"NoteNumber":61,"Velocity":42,"Duration":324000,"SoundDuration":324000,"Delta":226158461},{"NoteNumber":69,"Velocity":42,"Duration":324000,"SoundDuration":324000,"Delta":226158461},{"NoteNumber":67,"Velocity":42,"Duration":324000,"SoundDuration":324000,"Delta":226158461},{"NoteNumber":57,"Velocity":51,"Duration":324000,"SoundDuration":324000,"Delta":226158461},{"NoteNumber":85,"Velocity":54,"Duration":108143,"SoundDuration":108143,"Delta":226267204},{"NoteNumber":93,"Velocity":56,"Duration":107114,"SoundDuration":107114,"Delta":226375347},{"NoteNumber":91,"Velocity":45,"Duration":107114,"SoundDuration":107114,"Delta":226375347},{"NoteNumber":91,"Velocity":45,"Duration":159143,"SoundDuration":159143,"Delta":226482461},{"NoteNumber":93,"Velocity":56,"Duration":105952,"SoundDuration":105952,"Delta":226482461},{"NoteNumber":62,"Velocity":42,"Duration":644476,"SoundDuration":644476,"Delta":226482461},{"NoteNumber":69,"Velocity":42,"Duration":644476,"SoundDuration":644476,"Delta":226482461},{"NoteNumber":67,"Velocity":42,"Duration":644476,"SoundDuration":644476,"Delta":226482461},{"NoteNumber":59,"Velocity":53,"Duration":644476,"SoundDuration":644476,"Delta":226482461},{"NoteNumber":86,"Velocity":57,"Duration":106528,"SoundDuration":106528,"Delta":226588414},{"NoteNumber":83,"Velocity":56,"Duration":107109,"SoundDuration":107109,"Delta":226694942},{"NoteNumber":81,"Velocity":55,"Duration":107698,"SoundDuration":107698,"Delta":226802052},{"NoteNumber":79,"Velocity":45,"Duration":107698,"SoundDuration":107698,"Delta":226802052},{"NoteNumber":74,"Velocity":54,"Duration":108293,"SoundDuration":108293,"Delta":226909750},{"NoteNumber":71,"Velocity":53,"Duration":108894,"SoundDuration":108894,"Delta":227018043},{"NoteNumber":69,"Velocity":53,"Duration":175808,"SoundDuration":175808,"Delta":227126938},{"NoteNumber":67,"Velocity":44,"Duration":117205,"SoundDuration":117205,"Delta":227126938},{"NoteNumber":40,"Velocity":40,"Duration":351617,"SoundDuration":351617,"Delta":227126938},{"NoteNumber":62,"Velocity":52,"Duration":117205,"SoundDuration":117205,"Delta":227244144},{"NoteNumber":59,"Velocity":51,"Duration":117205,"SoundDuration":117205,"Delta":227361350},{"NoteNumber":45,"Velocity":44,"Duration":339443,"SoundDuration":339443,"Delta":227478555},{"NoteNumber":33,"Velocity":44,"Duration":339443,"SoundDuration":339443,"Delta":227478555},{"NoteNumber":67,"Velocity":42,"Duration":1005560,"SoundDuration":1005560,"Delta":228162924},{"NoteNumber":69,"Velocity":42,"Duration":1005560,"SoundDuration":1005560,"Delta":228162924},{"NoteNumber":57,"Velocity":53,"Duration":347463,"SoundDuration":347463,"Delta":228162924},{"NoteNumber":61,"Velocity":54,"Duration":495881,"SoundDuration":495881,"Delta":228510387},{"NoteNumber":62,"Velocity":53,"Duration":162214,"SoundDuration":162214,"Delta":229006269},{"NoteNumber":67,"Velocity":36,"Duration":994215,"SoundDuration":994215,"Delta":229168484},{"NoteNumber":64,"Velocity":53,"Duration":335570,"SoundDuration":335570,"Delta":229168484},{"NoteNumber":69,"Velocity":36,"Duration":773497,"SoundDuration":773497,"Delta":229168484},{"NoteNumber":61,"Velocity":57,"Duration":658645,"SoundDuration":658645,"Delta":229504054},{"NoteNumber":69,"Velocity":46,"Duration":332416,"SoundDuration":332416,"Delta":229830283},{"NoteNumber":76,"Velocity":49,"Duration":110908,"SoundDuration":110908,"Delta":229941981},{"NoteNumber":81,"Velocity":51,"Duration":109809,"SoundDuration":109809,"Delta":230052890},{"NoteNumber":79,"Velocity":51,"Duration":109809,"SoundDuration":109809,"Delta":230052890},{"NoteNumber":81,"Velocity":53,"Duration":109046,"SoundDuration":109046,"Delta":230162699},{"NoteNumber":61,"Velocity":42,"Duration":324297,"SoundDuration":324297,"Delta":230162699},{"NoteNumber":69,"Velocity":42,"Duration":324297,"SoundDuration":324297,"Delta":230162699},{"NoteNumber":67,"Velocity":42,"Duration":324297,"SoundDuration":324297,"Delta":230162699},{"NoteNumber":57,"Velocity":51,"Duration":324297,"SoundDuration":324297,"Delta":230162699},{"NoteNumber":85,"Velocity":54,"Duration":107994,"SoundDuration":107994,"Delta":230271745},{"NoteNumber":93,"Velocity":56,"Duration":107256,"SoundDuration":107256,"Delta":230379740},{"NoteNumber":91,"Velocity":45,"Duration":107256,"SoundDuration":107256,"Delta":230379740},{"NoteNumber":91,"Velocity":45,"Duration":159864,"SoundDuration":159864,"Delta":230486997},{"NoteNumber":93,"Velocity":56,"Duration":106383,"SoundDuration":106383,"Delta":230486997},{"NoteNumber":62,"Velocity":42,"Duration":647285,"SoundDuration":647285,"Delta":230486997},{"NoteNumber":69,"Velocity":42,"Duration":647285,"SoundDuration":647285,"Delta":230486997},{"NoteNumber":67,"Velocity":42,"Duration":647285,"SoundDuration":647285,"Delta":230486997},{"NoteNumber":59,"Velocity":53,"Duration":647285,"SoundDuration":647285,"Delta":230486997},{"NoteNumber":86,"Velocity":57,"Duration":106963,"SoundDuration":106963,"Delta":230593380},{"NoteNumber":83,"Velocity":56,"Duration":107550,"SoundDuration":107550,"Delta":230700343},{"NoteNumber":81,"Velocity":55,"Duration":108143,"SoundDuration":108143,"Delta":230807893},{"NoteNumber":79,"Velocity":44,"Duration":108143,"SoundDuration":108143,"Delta":230807893},{"NoteNumber":74,"Velocity":54,"Duration":108742,"SoundDuration":108742,"Delta":230916037},{"NoteNumber":71,"Velocity":53,"Duration":109502,"SoundDuration":109502,"Delta":231024780},{"NoteNumber":69,"Velocity":53,"Duration":175808,"SoundDuration":175808,"Delta":231134282},{"NoteNumber":67,"Velocity":43,"Duration":117205,"SoundDuration":117205,"Delta":231134282},{"NoteNumber":40,"Velocity":40,"Duration":351617,"SoundDuration":351617,"Delta":231134282},{"NoteNumber":62,"Velocity":52,"Duration":117205,"SoundDuration":117205,"Delta":231251488},{"NoteNumber":59,"Velocity":51,"Duration":117205,"SoundDuration":117205,"Delta":231368694},{"NoteNumber":57,"Velocity":44,"Duration":339443,"SoundDuration":339443,"Delta":231485900},{"NoteNumber":45,"Velocity":44,"Duration":339443,"SoundDuration":339443,"Delta":231485900},{"NoteNumber":33,"Velocity":44,"Duration":339443,"SoundDuration":339443,"Delta":231485900},{"NoteNumber":69,"Velocity":59,"Duration":343406,"SoundDuration":343406,"Delta":232170766},{"NoteNumber":67,"Velocity":43,"Duration":987062,"SoundDuration":987062,"Delta":232170766},{"NoteNumber":45,"Velocity":43,"Duration":343406,"SoundDuration":343406,"Delta":232170766},{"NoteNumber":52,"Velocity":43,"Duration":343406,"SoundDuration":343406,"Delta":232170766},{"NoteNumber":57,"Velocity":53,"Duration":343406,"SoundDuration":343406,"Delta":232170766},{"NoteNumber":73,"Velocity":62,"Duration":484942,"SoundDuration":484942,"Delta":232514173},{"NoteNumber":69,"Velocity":43,"Duration":643655,"SoundDuration":643655,"Delta":232514173},{"NoteNumber":57,"Velocity":36,"Duration":643655,"SoundDuration":643655,"Delta":232514173},{"NoteNumber":61,"Velocity":49,"Duration":484942,"SoundDuration":484942,"Delta":232514173},{"NoteNumber":74,"Velocity":59,"Duration":158713,"SoundDuration":158713,"Delta":232999115},{"NoteNumber":62,"Velocity":46,"Duration":158713,"SoundDuration":158713,"Delta":232999115},{"NoteNumber":67,"Velocity":36,"Duration":167785,"SoundDuration":167785,"Delta":233157828},{"NoteNumber":76,"Velocity":59,"Duration":167785,"SoundDuration":167785,"Delta":233157828},{"NoteNumber":69,"Velocity":36,"Duration":167785,"SoundDuration":167785,"Delta":233157828},{"NoteNumber":64,"Velocity":46,"Duration":335570,"SoundDuration":335570,"Delta":233157828},{"NoteNumber":57,"Velocity":32,"Duration":661799,"SoundDuration":661799,"Delta":233157828},{"NoteNumber":73,"Velocity":53,"Duration":83892,"SoundDuration":83892,"Delta":233325613},{"NoteNumber":74,"Velocity":53,"Duration":83892,"SoundDuration":83892,"Delta":233409506},{"NoteNumber":73,"Velocity":63,"Duration":658645,"SoundDuration":658645,"Delta":233493399},{"NoteNumber":61,"Velocity":52,"Duration":326229,"SoundDuration":326229,"Delta":233493399},{"NoteNumber":69,"Velocity":46,"Duration":111698,"SoundDuration":111698,"Delta":233819628},{"NoteNumber":59,"Velocity":43,"Duration":332416,"SoundDuration":332416,"Delta":233819628},{"NoteNumber":71,"Velocity":45,"Duration":332416,"SoundDuration":332416,"Delta":233819628},{"NoteNumber":76,"Velocity":49,"Duration":110908,"SoundDuration":110908,"Delta":233931326},{"NoteNumber":81,"Velocity":52,"Duration":109809,"SoundDuration":109809,"Delta":234042235},{"NoteNumber":79,"Velocity":52,"Duration":109809,"SoundDuration":109809,"Delta":234042235},{"NoteNumber":81,"Velocity":53,"Duration":109046,"SoundDuration":109046,"Delta":234152044},{"NoteNumber":61,"Velocity":43,"Duration":203597,"SoundDuration":203597,"Delta":234152044},{"NoteNumber":69,"Velocity":45,"Duration":203597,"SoundDuration":203597,"Delta":234152044},{"NoteNumber":67,"Velocity":43,"Duration":203597,"SoundDuration":203597,"Delta":234152044},{"NoteNumber":57,"Velocity":52,"Duration":203597,"SoundDuration":203597,"Delta":234152044},{"NoteNumber":85,"Velocity":55,"Duration":109032,"SoundDuration":109032,"Delta":234261090},{"NoteNumber":55,"Velocity":43,"Duration":453302,"SoundDuration":453302,"Delta":234355641},{"NoteNumber":91,"Velocity":57,"Duration":117924,"SoundDuration":117924,"Delta":234370122},{"NoteNumber":93,"Velocity":57,"Duration":117924,"SoundDuration":117924,"Delta":234370122},{"NoteNumber":62,"Velocity":43,"Duration":409339,"SoundDuration":409339,"Delta":234399604},{"NoteNumber":67,"Velocity":47,"Duration":365118,"SoundDuration":365118,"Delta":234443825},{"NoteNumber":95,"Velocity":57,"Duration":106383,"SoundDuration":106383,"Delta":234488047},{"NoteNumber":91,"Velocity":57,"Duration":159864,"SoundDuration":159864,"Delta":234488047},{"NoteNumber":71,"Velocity":53,"Duration":320896,"SoundDuration":320896,"Delta":234488047},{"NoteNumber":86,"Velocity":59,"Duration":106963,"SoundDuration":106963,"Delta":234594430},{"NoteNumber":83,"Velocity":57,"Duration":107550,"SoundDuration":107550,"Delta":234701393},{"NoteNumber":83,"Velocity":55,"Duration":108143,"SoundDuration":108143,"Delta":234808943},{"NoteNumber":79,"Velocity":55,"Duration":108143,"SoundDuration":108143,"Delta":234808943},{"NoteNumber":74,"Velocity":55,"Duration":108742,"SoundDuration":108742,"Delta":234917086},{"NoteNumber":71,"Velocity":54,"Duration":109502,"SoundDuration":109502,"Delta":235025829},{"NoteNumber":71,"Velocity":53,"Duration":175808,"SoundDuration":175808,"Delta":235135332},{"NoteNumber":67,"Velocity":53,"Duration":117205,"SoundDuration":117205,"Delta":235135332},{"NoteNumber":62,"Velocity":53,"Duration":117205,"SoundDuration":117205,"Delta":235252538},{"NoteNumber":59,"Velocity":52,"Duration":117205,"SoundDuration":117205,"Delta":235369744},{"NoteNumber":43,"Velocity":55,"Duration":111768,"SoundDuration":111768,"Delta":235486950},{"NoteNumber":50,"Velocity":55,"Duration":107433,"SoundDuration":107433,"Delta":235598718},{"NoteNumber":55,"Velocity":55,"Duration":106615,"SoundDuration":106615,"Delta":235706151},{"NoteNumber":59,"Velocity":57,"Duration":105696,"SoundDuration":105696,"Delta":235812767},{"NoteNumber":62,"Velocity":59,"Duration":104848,"SoundDuration":104848,"Delta":235918463},{"NoteNumber":71,"Velocity":61,"Duration":104123,"SoundDuration":104123,"Delta":236023311},{"NoteNumber":67,"Velocity":61,"Duration":104123,"SoundDuration":104123,"Delta":236023311},{"NoteNumber":71,"Velocity":62,"Duration":104123,"SoundDuration":104123,"Delta":236127434},{"NoteNumber":74,"Velocity":62,"Duration":105836,"SoundDuration":105836,"Delta":236231558},{"NoteNumber":83,"Velocity":63,"Duration":107550,"SoundDuration":107550,"Delta":236337394},{"NoteNumber":79,"Velocity":63,"Duration":107550,"SoundDuration":107550,"Delta":236337394},{"NoteNumber":47,"Velocity":59,"Duration":104032,"SoundDuration":104032,"Delta":236444944},{"NoteNumber":54,"Velocity":59,"Duration":107433,"SoundDuration":107433,"Delta":236548977},{"NoteNumber":59,"Velocity":59,"Duration":106615,"SoundDuration":106615,"Delta":236656411},{"NoteNumber":62,"Velocity":61,"Duration":105696,"SoundDuration":105696,"Delta":236763026},{"NoteNumber":66,"Velocity":62,"Duration":104848,"SoundDuration":104848,"Delta":236868722},{"NoteNumber":74,"Velocity":63,"Duration":104123,"SoundDuration":104123,"Delta":236973570},{"NoteNumber":71,"Velocity":63,"Duration":104123,"SoundDuration":104123,"Delta":236973570},{"NoteNumber":74,"Velocity":63,"Duration":104123,"SoundDuration":104123,"Delta":237077694},{"NoteNumber":78,"Velocity":64,"Duration":105836,"SoundDuration":105836,"Delta":237181817},{"NoteNumber":83,"Velocity":65,"Duration":107550,"SoundDuration":107550,"Delta":237287654},{"NoteNumber":86,"Velocity":65,"Duration":107550,"SoundDuration":107550,"Delta":237287654},{"NoteNumber":46,"Velocity":62,"Duration":104032,"SoundDuration":104032,"Delta":237395204},{"NoteNumber":56,"Velocity":62,"Duration":107433,"SoundDuration":107433,"Delta":237499236},{"NoteNumber":62,"Velocity":62,"Duration":106615,"SoundDuration":106615,"Delta":237606670},{"NoteNumber":64,"Velocity":63,"Duration":105696,"SoundDuration":105696,"Delta":237713285},{"NoteNumber":68,"Velocity":63,"Duration":104848,"SoundDuration":104848,"Delta":237818981},{"NoteNumber":76,"Velocity":65,"Duration":104123,"SoundDuration":104123,"Delta":237923829},{"NoteNumber":74,"Velocity":65,"Duration":104123,"SoundDuration":104123,"Delta":237923829},{"NoteNumber":76,"Velocity":66,"Duration":104123,"SoundDuration":104123,"Delta":238027953},{"NoteNumber":80,"Velocity":67,"Duration":108311,"SoundDuration":108311,"Delta":238132076},{"NoteNumber":88,"Velocity":69,"Duration":112498,"SoundDuration":112498,"Delta":238240387},{"NoteNumber":86,"Velocity":69,"Duration":112498,"SoundDuration":112498,"Delta":238240387},{"NoteNumber":45,"Velocity":63,"Duration":104032,"SoundDuration":104032,"Delta":238352886},{"NoteNumber":55,"Velocity":63,"Duration":107433,"SoundDuration":107433,"Delta":238456918},{"NoteNumber":61,"Velocity":63,"Duration":106615,"SoundDuration":106615,"Delta":238564352},{"NoteNumber":65,"Velocity":65,"Duration":105696,"SoundDuration":105696,"Delta":238670967},{"NoteNumber":69,"Velocity":66,"Duration":104848,"SoundDuration":104848,"Delta":238776663},{"NoteNumber":77,"Velocity":69,"Duration":104123,"SoundDuration":104123,"Delta":238881512},{"NoteNumber":73,"Velocity":69,"Duration":104123,"SoundDuration":104123,"Delta":238881512},{"NoteNumber":77,"Velocity":70,"Duration":104123,"SoundDuration":104123,"Delta":238985635},{"NoteNumber":81,"Velocity":71,"Duration":108311,"SoundDuration":108311,"Delta":239089758},{"NoteNumber":89,"Velocity":71,"Duration":112498,"SoundDuration":112498,"Delta":239198069},{"NoteNumber":85,"Velocity":71,"Duration":112498,"SoundDuration":112498,"Delta":239198069},{"NoteNumber":50,"Velocity":77,"Duration":319149,"SoundDuration":319149,"Delta":239310568},{"NoteNumber":38,"Velocity":69,"Duration":319149,"SoundDuration":319149,"Delta":239310568},{"NoteNumber":66,"Velocity":65,"Duration":104679,"SoundDuration":104679,"Delta":239629717},{"NoteNumber":69,"Velocity":69,"Duration":104679,"SoundDuration":104679,"Delta":239734396},{"NoteNumber":78,"Velocity":71,"Duration":104679,"SoundDuration":104679,"Delta":239839075},{"NoteNumber":78,"Velocity":74,"Duration":114468,"SoundDuration":114468,"Delta":239943754},{"NoteNumber":54,"Velocity":65,"Duration":343406,"SoundDuration":343406,"Delta":239943754},{"NoteNumber":57,"Velocity":65,"Duration":343406,"SoundDuration":343406,"Delta":239943754},{"NoteNumber":66,"Velocity":74,"Duration":343406,"SoundDuration":343406,"Delta":239943754},{"NoteNumber":81,"Velocity":77,"Duration":114468,"SoundDuration":114468,"Delta":240058223},{"NoteNumber":90,"Velocity":77,"Duration":114468,"SoundDuration":114468,"Delta":240172692},{"NoteNumber":88,"Velocity":81,"Duration":484942,"SoundDuration":484942,"Delta":240287161},{"NoteNumber":86,"Velocity":77,"Duration":163114,"SoundDuration":163114,"Delta":240287161},{"NoteNumber":52,"Velocity":69,"Duration":484942,"SoundDuration":484942,"Delta":240287161},{"NoteNumber":57,"Velocity":69,"Duration":484942,"SoundDuration":484942,"Delta":240287161},{"NoteNumber":64,"Velocity":77,"Duration":484942,"SoundDuration":484942,"Delta":240287161},{"NoteNumber":81,"Velocity":76,"Duration":108743,"SoundDuration":108743,"Delta":240395904},{"NoteNumber":76,"Velocity":72,"Duration":108743,"SoundDuration":108743,"Delta":240504647},{"NoteNumber":76,"Velocity":79,"Duration":105808,"SoundDuration":105808,"Delta":240613390},{"NoteNumber":81,"Velocity":77,"Duration":105808,"SoundDuration":105808,"Delta":240719199},{"NoteNumber":90,"Velocity":76,"Duration":158713,"SoundDuration":158713,"Delta":240772103},{"NoteNumber":54,"Velocity":65,"Duration":158713,"SoundDuration":158713,"Delta":240772103},{"NoteNumber":66,"Velocity":74,"Duration":158713,"SoundDuration":158713,"Delta":240772103},{"NoteNumber":76,"Velocity":75,"Duration":105808,"SoundDuration":105808,"Delta":240825008},{"NoteNumber":86,"Velocity":73,"Duration":167785,"SoundDuration":167785,"Delta":240930816},{"NoteNumber":50,"Velocity":65,"Duration":335570,"SoundDuration":335570,"Delta":240930816},{"NoteNumber":62,"Velocity":74,"Duration":335570,"SoundDuration":335570,"Delta":240930816},{"NoteNumber":81,"Velocity":72,"Duration":111856,"SoundDuration":111856,"Delta":241042673},{"NoteNumber":78,"Velocity":72,"Duration":111856,"SoundDuration":111856,"Delta":241042673},{"NoteNumber":74,"Velocity":71,"Duration":111856,"SoundDuration":111856,"Delta":241154530},{"NoteNumber":26,"Velocity":70,"Duration":326229,"SoundDuration":326229,"Delta":241266387},{"NoteNumber":38,"Velocity":83,"Duration":326229,"SoundDuration":326229,"Delta":241266387},{"NoteNumber":69,"Velocity":65,"Duration":110595,"SoundDuration":110595,"Delta":241592616},{"NoteNumber":74,"Velocity":69,"Duration":109962,"SoundDuration":109962,"Delta":241703211},{"NoteNumber":81,"Velocity":71,"Duration":109349,"SoundDuration":109349,"Delta":241813174},{"NoteNumber":78,"Velocity":71,"Duration":109349,"SoundDuration":109349,"Delta":241813174},{"NoteNumber":81,"Velocity":74,"Duration":108743,"SoundDuration":108743,"Delta":241922523},{"NoteNumber":69,"Velocity":75,"Duration":324000,"SoundDuration":324000,"Delta":241922523},{"NoteNumber":66,"Velocity":66,"Duration":324000,"SoundDuration":324000,"Delta":241922523},{"NoteNumber":62,"Velocity":66,"Duration":324000,"SoundDuration":324000,"Delta":241922523},{"NoteNumber":57,"Velocity":66,"Duration":324000,"SoundDuration":324000,"Delta":241922523},{"NoteNumber":86,"Velocity":77,"Duration":108143,"SoundDuration":108143,"Delta":242031266},{"NoteNumber":93,"Velocity":80,"Duration":107114,"SoundDuration":107114,"Delta":242139409},{"NoteNumber":90,"Velocity":80,"Duration":107114,"SoundDuration":107114,"Delta":242139409},{"NoteNumber":93,"Velocity":89,"Duration":105952,"SoundDuration":105952,"Delta":242246524},{"NoteNumber":90,"Velocity":89,"Duration":159143,"SoundDuration":159143,"Delta":242246524},{"NoteNumber":69,"Velocity":74,"Duration":644476,"SoundDuration":644476,"Delta":242246524},{"NoteNumber":66,"Velocity":65,"Duration":644476,"SoundDuration":644476,"Delta":242246524},{"NoteNumber":62,"Velocity":65,"Duration":644476,"SoundDuration":644476,"Delta":242246524},{"NoteNumber":57,"Velocity":65,"Duration":644476,"SoundDuration":644476,"Delta":242246524},{"NoteNumber":86,"Velocity":77,"Duration":106528,"SoundDuration":106528,"Delta":242352476},{"NoteNumber":81,"Velocity":74,"Duration":107109,"SoundDuration":107109,"Delta":242459004},{"NoteNumber":81,"Velocity":79,"Duration":107698,"SoundDuration":107698,"Delta":242566114},{"NoteNumber":38,"Velocity":71,"Duration":995652,"SoundDuration":995652,"Delta":242566114},{"NoteNumber":50,"Velocity":71,"Duration":995652,"SoundDuration":995652,"Delta":242566114},{"NoteNumber":86,"Velocity":77,"Duration":108293,"SoundDuration":108293,"Delta":242673812},{"NoteNumber":90,"Velocity":75,"Duration":108894,"SoundDuration":108894,"Delta":242782106},{"NoteNumber":95,"Velocity":84,"Duration":175808,"SoundDuration":175808,"Delta":242891000},{"NoteNumber":71,"Velocity":74,"Duration":351617,"SoundDuration":351617,"Delta":242891000},{"NoteNumber":66,"Velocity":65,"Duration":351617,"SoundDuration":351617,"Delta":242891000},{"NoteNumber":62,"Velocity":65,"Duration":351617,"SoundDuration":351617,"Delta":242891000},{"NoteNumber":59,"Velocity":65,"Duration":351617,"SoundDuration":351617,"Delta":242891000},{"NoteNumber":86,"Velocity":72,"Duration":117205,"SoundDuration":117205,"Delta":243008206},{"NoteNumber":83,"Velocity":71,"Duration":117205,"SoundDuration":117205,"Delta":243125412},{"NoteNumber":93,"Velocity":84,"Duration":319149,"SoundDuration":319149,"Delta":243242618},{"NoteNumber":69,"Velocity":79,"Duration":319149,"SoundDuration":319149,"Delta":243242618},{"NoteNumber":66,"Velocity":79,"Duration":319149,"SoundDuration":319149,"Delta":243242618},{"NoteNumber":62,"Velocity":79,"Duration":319149,"SoundDuration":319149,"Delta":243242618},{"NoteNumber":57,"Velocity":79,"Duration":319149,"SoundDuration":319149,"Delta":243242618},{"NoteNumber":86,"Velocity":64,"Duration":106382,"SoundDuration":106382,"Delta":243349001},{"NoteNumber":81,"Velocity":64,"Duration":106383,"SoundDuration":106383,"Delta":243455384},{"NoteNumber":91,"Velocity":83,"Duration":326229,"SoundDuration":326229,"Delta":243561767},{"NoteNumber":67,"Velocity":72,"Duration":326229,"SoundDuration":326229,"Delta":243561767},{"NoteNumber":55,"Velocity":64,"Duration":326229,"SoundDuration":326229,"Delta":243561767},{"NoteNumber":86,"Velocity":65,"Duration":108743,"SoundDuration":108743,"Delta":243670510},{"NoteNumber":79,"Velocity":71,"Duration":108743,"SoundDuration":108743,"Delta":243779253},{"NoteNumber":90,"Velocity":81,"Duration":333666,"SoundDuration":333666,"Delta":243887996},{"NoteNumber":66,"Velocity":64,"Duration":333666,"SoundDuration":333666,"Delta":243887996},{"NoteNumber":54,"Velocity":57,"Duration":333666,"SoundDuration":333666,"Delta":243887996},{"NoteNumber":86,"Velocity":66,"Duration":111222,"SoundDuration":111222,"Delta":243999218},{"NoteNumber":78,"Velocity":70,"Duration":111222,"SoundDuration":111222,"Delta":244110440},{"NoteNumber":88,"Velocity":86,"Duration":333667,"SoundDuration":333667,"Delta":244221663},{"NoteNumber":64,"Velocity":74,"Duration":333667,"SoundDuration":333667,"Delta":244221663},{"NoteNumber":57,"Velocity":65,"Duration":333667,"SoundDuration":333667,"Delta":244221663},{"NoteNumber":52,"Velocity":65,"Duration":333667,"SoundDuration":333667,"Delta":244221663},{"NoteNumber":86,"Velocity":69,"Duration":111222,"SoundDuration":111222,"Delta":244332885},{"NoteNumber":76,"Velocity":69,"Duration":111222,"SoundDuration":111222,"Delta":244444107},{"NoteNumber":90,"Velocity":81,"Duration":328047,"SoundDuration":328047,"Delta":244555330},{"NoteNumber":66,"Velocity":66,"Duration":328047,"SoundDuration":328047,"Delta":244555330},{"NoteNumber":54,"Velocity":60,"Duration":328047,"SoundDuration":328047,"Delta":244555330},{"NoteNumber":81,"Velocity":63,"Duration":109349,"SoundDuration":109349,"Delta":244664679},{"NoteNumber":78,"Velocity":64,"Duration":109349,"SoundDuration":109349,"Delta":244774028},{"NoteNumber":86,"Velocity":84,"Duration":335570,"SoundDuration":335570,"Delta":244883378},{"NoteNumber":50,"Velocity":63,"Duration":335570,"SoundDuration":335570,"Delta":244883378},{"NoteNumber":57,"Velocity":63,"Duration":335570,"SoundDuration":335570,"Delta":244883378},{"NoteNumber":62,"Velocity":71,"Duration":335570,"SoundDuration":335570,"Delta":244883378},{"NoteNumber":78,"Velocity":65,"Duration":111856,"SoundDuration":111856,"Delta":244995235},{"NoteNumber":74,"Velocity":66,"Duration":111856,"SoundDuration":111856,"Delta":245107091},{"NoteNumber":38,"Velocity":62,"Duration":326229,"SoundDuration":326229,"Delta":245218948},{"NoteNumber":50,"Velocity":83,"Duration":326229,"SoundDuration":326229,"Delta":245218948},{"NoteNumber":66,"Velocity":65,"Duration":110595,"SoundDuration":110595,"Delta":245545177},{"NoteNumber":69,"Velocity":69,"Duration":109962,"SoundDuration":109962,"Delta":245655772},{"NoteNumber":78,"Velocity":71,"Duration":109349,"SoundDuration":109349,"Delta":245765735},{"NoteNumber":78,"Velocity":74,"Duration":108743,"SoundDuration":108743,"Delta":245875084},{"NoteNumber":66,"Velocity":75,"Duration":324000,"SoundDuration":324000,"Delta":245875084},{"NoteNumber":57,"Velocity":66,"Duration":324000,"SoundDuration":324000,"Delta":245875084},{"NoteNumber":54,"Velocity":66,"Duration":324000,"SoundDuration":324000,"Delta":245875084},{"NoteNumber":81,"Velocity":77,"Duration":108143,"SoundDuration":108143,"Delta":245983827},{"NoteNumber":90,"Velocity":80,"Duration":107114,"SoundDuration":107114,"Delta":246091970},{"NoteNumber":90,"Velocity":89,"Duration":159143,"SoundDuration":159143,"Delta":246199085},{"NoteNumber":66,"Velocity":74,"Duration":644476,"SoundDuration":644476,"Delta":246199085},{"NoteNumber":57,"Velocity":65,"Duration":644476,"SoundDuration":644476,"Delta":246199085},{"NoteNumber":54,"Velocity":65,"Duration":644476,"SoundDuration":644476,"Delta":246199085},{"NoteNumber":81,"Velocity":77,"Duration":106528,"SoundDuration":106528,"Delta":246305037},{"NoteNumber":78,"Velocity":72,"Duration":107109,"SoundDuration":107109,"Delta":246411566},{"NoteNumber":78,"Velocity":79,"Duration":107698,"SoundDuration":107698,"Delta":246518676},{"NoteNumber":38,"Velocity":71,"Duration":985448,"SoundDuration":985448,"Delta":246518676},{"NoteNumber":50,"Velocity":71,"Duration":985448,"SoundDuration":985448,"Delta":246518676},{"NoteNumber":81,"Velocity":77,"Duration":108293,"SoundDuration":108293,"Delta":246626374},{"NoteNumber":90,"Velocity":75,"Duration":108894,"SoundDuration":108894,"Delta":246734667},{"NoteNumber":90,"Velocity":82,"Duration":170706,"SoundDuration":170706,"Delta":246843562},{"NoteNumber":64,"Velocity":74,"Duration":341413,"SoundDuration":341413,"Delta":246843562},{"NoteNumber":58,"Velocity":65,"Duration":341413,"SoundDuration":341413,"Delta":246843562},{"NoteNumber":54,"Velocity":65,"Duration":341413,"SoundDuration":341413,"Delta":246843562},{"NoteNumber":52,"Velocity":65,"Duration":341413,"SoundDuration":341413,"Delta":246843562},{"NoteNumber":94,"Velocity":72,"Duration":113804,"SoundDuration":113804,"Delta":246957366},{"NoteNumber":102,"Velocity":71,"Duration":113804,"SoundDuration":113804,"Delta":247071171},{"NoteNumber":102,"Velocity":86,"Duration":106382,"SoundDuration":106382,"Delta":247184975},{"NoteNumber":64,"Velocity":79,"Duration":319149,"SoundDuration":319149,"Delta":247184975},{"NoteNumber":58,"Velocity":79,"Duration":319149,"SoundDuration":319149,"Delta":247184975},{"NoteNumber":54,"Velocity":79,"Duration":319149,"SoundDuration":319149,"Delta":247184975},{"NoteNumber":52,"Velocity":79,"Duration":319149,"SoundDuration":319149,"Delta":247184975},{"NoteNumber":94,"Velocity":66,"Duration":106382,"SoundDuration":106382,"Delta":247291358},{"NoteNumber":90,"Velocity":67,"Duration":106383,"SoundDuration":106383,"Delta":247397741},{"NoteNumber":90,"Velocity":82,"Duration":108743,"SoundDuration":108743,"Delta":247504124},{"NoteNumber":50,"Velocity":72,"Duration":326229,"SoundDuration":326229,"Delta":247504124},{"NoteNumber":38,"Velocity":64,"Duration":326229,"SoundDuration":326229,"Delta":247504124},{"NoteNumber":78,"Velocity":66,"Duration":108743,"SoundDuration":108743,"Delta":247612867},{"NoteNumber":90,"Velocity":71,"Duration":108743,"SoundDuration":108743,"Delta":247721610},{"NoteNumber":78,"Velocity":83,"Duration":111856,"SoundDuration":111856,"Delta":247830353},{"NoteNumber":54,"Velocity":57,"Duration":335570,"SoundDuration":335570,"Delta":247830353},{"NoteNumber":61,"Velocity":64,"Duration":335570,"SoundDuration":335570,"Delta":247830353},{"NoteNumber":49,"Velocity":57,"Duration":335570,"SoundDuration":335570,"Delta":247830353},{"NoteNumber":85,"Velocity":67,"Duration":111856,"SoundDuration":111856,"Delta":247942210},{"NoteNumber":90,"Velocity":67,"Duration":111856,"SoundDuration":111856,"Delta":248054067},{"NoteNumber":78,"Velocity":87,"Duration":109349,"SoundDuration":109349,"Delta":248165924},{"NoteNumber":62,"Velocity":74,"Duration":328047,"SoundDuration":328047,"Delta":248165924},{"NoteNumber":54,"Velocity":65,"Duration":328047,"SoundDuration":328047,"Delta":248165924},{"NoteNumber":50,"Velocity":65,"Duration":328047,"SoundDuration":328047,"Delta":248165924},{"NoteNumber":86,"Velocity":69,"Duration":109349,"SoundDuration":109349,"Delta":248275273},{"NoteNumber":90,"Velocity":69,"Duration":109349,"SoundDuration":109349,"Delta":248384622},{"NoteNumber":78,"Velocity":83,"Duration":109962,"SoundDuration":109962,"Delta":248493972},{"NoteNumber":54,"Velocity":60,"Duration":329888,"SoundDuration":329888,"Delta":248493972},{"NoteNumber":61,"Velocity":66,"Duration":329888,"SoundDuration":329888,"Delta":248493972},{"NoteNumber":49,"Velocity":60,"Duration":329888,"SoundDuration":329888,"Delta":248493972},{"NoteNumber":85,"Velocity":66,"Duration":109962,"SoundDuration":109962,"Delta":248603934},{"NoteNumber":90,"Velocity":66,"Duration":109962,"SoundDuration":109962,"Delta":248713897},{"NoteNumber":78,"Velocity":81,"Duration":111856,"SoundDuration":111856,"Delta":248823860},{"NoteNumber":47,"Velocity":63,"Duration":335570,"SoundDuration":335570,"Delta":248823860},{"NoteNumber":54,"Velocity":63,"Duration":335570,"SoundDuration":335570,"Delta":248823860},{"NoteNumber":59,"Velocity":71,"Duration":335570,"SoundDuration":335570,"Delta":248823860},{"NoteNumber":83,"Velocity":69,"Duration":111856,"SoundDuration":111856,"Delta":248935716},{"NoteNumber":90,"Velocity":70,"Duration":111856,"SoundDuration":111856,"Delta":249047573},{"NoteNumber":26,"Velocity":62,"Duration":326229,"SoundDuration":326229,"Delta":249159430},{"NoteNumber":38,"Velocity":83,"Duration":326229,"SoundDuration":326229,"Delta":249159430},{"NoteNumber":66,"Velocity":65,"Duration":110595,"SoundDuration":110595,"Delta":249485659},{"NoteNumber":69,"Velocity":69,"Duration":109962,"SoundDuration":109962,"Delta":249596254},{"NoteNumber":78,"Velocity":71,"Duration":109349,"SoundDuration":109349,"Delta":249706217},{"NoteNumber":78,"Velocity":74,"Duration":108743,"SoundDuration":108743,"Delta":249815566},{"NoteNumber":66,"Velocity":75,"Duration":324000,"SoundDuration":324000,"Delta":249815566},{"NoteNumber":57,"Velocity":66,"Duration":324000,"SoundDuration":324000,"Delta":249815566},{"NoteNumber":54,"Velocity":66,"Duration":324000,"SoundDuration":324000,"Delta":249815566},{"NoteNumber":81,"Velocity":77,"Duration":108143,"SoundDuration":108143,"Delta":249924309},{"NoteNumber":90,"Velocity":80,"Duration":107114,"SoundDuration":107114,"Delta":250032452},{"NoteNumber":90,"Velocity":89,"Duration":159143,"SoundDuration":159143,"Delta":250139567},{"NoteNumber":66,"Velocity":74,"Duration":644476,"SoundDuration":644476,"Delta":250139567},{"NoteNumber":57,"Velocity":65,"Duration":644476,"SoundDuration":644476,"Delta":250139567},{"NoteNumber":54,"Velocity":65,"Duration":644476,"SoundDuration":644476,"Delta":250139567},{"NoteNumber":81,"Velocity":77,"Duration":106528,"SoundDuration":106528,"Delta":250245519},{"NoteNumber":78,"Velocity":73,"Duration":107109,"SoundDuration":107109,"Delta":250352047},{"NoteNumber":78,"Velocity":79,"Duration":107698,"SoundDuration":107698,"Delta":250459157},{"NoteNumber":38,"Velocity":71,"Duration":983271,"SoundDuration":983271,"Delta":250459157},{"NoteNumber":50,"Velocity":71,"Duration":983271,"SoundDuration":983271,"Delta":250459157},{"NoteNumber":81,"Velocity":77,"Duration":108293,"SoundDuration":108293,"Delta":250566856},{"NoteNumber":90,"Velocity":75,"Duration":108894,"SoundDuration":108894,"Delta":250675149},{"NoteNumber":90,"Velocity":83,"Duration":168747,"SoundDuration":168747,"Delta":250784043},{"NoteNumber":64,"Velocity":65,"Duration":337495,"SoundDuration":337495,"Delta":250784043},{"NoteNumber":58,"Velocity":59,"Duration":337495,"SoundDuration":337495,"Delta":250784043},{"NoteNumber":54,"Velocity":59,"Duration":337495,"SoundDuration":337495,"Delta":250784043},{"NoteNumber":52,"Velocity":59,"Duration":337495,"SoundDuration":337495,"Delta":250784043},{"NoteNumber":94,"Velocity":72,"Duration":112498,"SoundDuration":112498,"Delta":250896542},{"NoteNumber":102,"Velocity":71,"Duration":112498,"SoundDuration":112498,"Delta":251009041},{"NoteNumber":102,"Velocity":84,"Duration":106963,"SoundDuration":106963,"Delta":251121539},{"NoteNumber":64,"Velocity":79,"Duration":320889,"SoundDuration":320889,"Delta":251121539},{"NoteNumber":58,"Velocity":79,"Duration":320889,"SoundDuration":320889,"Delta":251121539},{"NoteNumber":54,"Velocity":79,"Duration":320889,"SoundDuration":320889,"Delta":251121539},{"NoteNumber":52,"Velocity":79,"Duration":320889,"SoundDuration":320889,"Delta":251121539},{"NoteNumber":94,"Velocity":67,"Duration":106963,"SoundDuration":106963,"Delta":251228503},{"NoteNumber":90,"Velocity":67,"Duration":106963,"SoundDuration":106963,"Delta":251335466},{"NoteNumber":90,"Velocity":81,"Duration":109349,"SoundDuration":109349,"Delta":251442429},{"NoteNumber":50,"Velocity":72,"Duration":328047,"SoundDuration":328047,"Delta":251442429},{"NoteNumber":38,"Velocity":54,"Duration":328047,"SoundDuration":328047,"Delta":251442429},{"NoteNumber":78,"Velocity":66,"Duration":109349,"SoundDuration":109349,"Delta":251551779},{"NoteNumber":90,"Velocity":66,"Duration":109349,"SoundDuration":109349,"Delta":251661128},{"NoteNumber":85,"Velocity":86,"Duration":335570,"SoundDuration":335570,"Delta":251770477},{"NoteNumber":54,"Velocity":49,"Duration":335570,"SoundDuration":335570,"Delta":251770477},{"NoteNumber":61,"Velocity":64,"Duration":335570,"SoundDuration":335570,"Delta":251770477},{"NoteNumber":49,"Velocity":49,"Duration":335570,"SoundDuration":335570,"Delta":251770477},{"NoteNumber":90,"Velocity":70,"Duration":111856,"SoundDuration":111856,"Delta":251882334},{"NoteNumber":97,"Velocity":69,"Duration":111856,"SoundDuration":111856,"Delta":251994191},{"NoteNumber":86,"Velocity":90,"Duration":326229,"SoundDuration":326229,"Delta":252106048},{"NoteNumber":62,"Velocity":74,"Duration":326229,"SoundDuration":326229,"Delta":252106048},{"NoteNumber":54,"Velocity":55,"Duration":326229,"SoundDuration":326229,"Delta":252106048},{"NoteNumber":50,"Velocity":55,"Duration":326229,"SoundDuration":326229,"Delta":252106048},{"NoteNumber":90,"Velocity":70,"Duration":108743,"SoundDuration":108743,"Delta":252214791},{"NoteNumber":98,"Velocity":71,"Duration":108743,"SoundDuration":108743,"Delta":252323534},{"NoteNumber":85,"Velocity":89,"Duration":335570,"SoundDuration":335570,"Delta":252432277},{"NoteNumber":54,"Velocity":50,"Duration":335570,"SoundDuration":335570,"Delta":252432277},{"NoteNumber":61,"Velocity":66,"Duration":335570,"SoundDuration":335570,"Delta":252432277},{"NoteNumber":49,"Velocity":50,"Duration":335570,"SoundDuration":335570,"Delta":252432277},{"NoteNumber":90,"Velocity":66,"Duration":111856,"SoundDuration":111856,"Delta":252544134},{"NoteNumber":97,"Velocity":66,"Duration":111856,"SoundDuration":111856,"Delta":252655991},{"NoteNumber":83,"Velocity":87,"Duration":343406,"SoundDuration":343406,"Delta":252767847},{"NoteNumber":47,"Velocity":53,"Duration":343406,"SoundDuration":343406,"Delta":252767847},{"NoteNumber":54,"Velocity":53,"Duration":343406,"SoundDuration":343406,"Delta":252767847},{"NoteNumber":59,"Velocity":71,"Duration":343406,"SoundDuration":343406,"Delta":252767847},{"NoteNumber":90,"Velocity":66,"Duration":114468,"SoundDuration":114468,"Delta":252882316},{"NoteNumber":95,"Velocity":66,"Duration":114468,"SoundDuration":114468,"Delta":252996785},{"NoteNumber":45,"Velocity":46,"Duration":114468,"SoundDuration":114468,"Delta":253111254},{"NoteNumber":38,"Velocity":89,"Duration":343406,"SoundDuration":343406,"Delta":253111254},{"NoteNumber":46,"Velocity":52,"Duration":114468,"SoundDuration":114468,"Delta":253225723},{"NoteNumber":49,"Velocity":52,"Duration":114468,"SoundDuration":114468,"Delta":253340192},{"NoteNumber":86,"Velocity":63,"Duration":166833,"SoundDuration":166833,"Delta":253454660},{"NoteNumber":90,"Velocity":83,"Duration":166833,"SoundDuration":166833,"Delta":253454660},{"NoteNumber":78,"Velocity":63,"Duration":166833,"SoundDuration":166833,"Delta":253454660},{"NoteNumber":50,"Velocity":53,"Duration":111222,"SoundDuration":111222,"Delta":253454660},{"NoteNumber":52,"Velocity":53,"Duration":111222,"SoundDuration":111222,"Delta":253565883},{"NoteNumber":53,"Velocity":53,"Duration":111222,"SoundDuration":111222,"Delta":253677105},{"NoteNumber":92,"Velocity":89,"Duration":158713,"SoundDuration":158713,"Delta":253788327},{"NoteNumber":90,"Velocity":66,"Duration":158713,"SoundDuration":158713,"Delta":253788327},{"NoteNumber":80,"Velocity":66,"Duration":158713,"SoundDuration":158713,"Delta":253788327},{"NoteNumber":54,"Velocity":54,"Duration":105808,"SoundDuration":105808,"Delta":253788327},{"NoteNumber":55,"Velocity":55,"Duration":105808,"SoundDuration":105808,"Delta":253894136},{"NoteNumber":56,"Velocity":55,"Duration":105808,"SoundDuration":105808,"Delta":253999945},{"NoteNumber":95,"Velocity":83,"Duration":79356,"SoundDuration":79356,"Delta":254026397},{"NoteNumber":93,"Velocity":92,"Duration":322650,"SoundDuration":322650,"Delta":254105754},{"NoteNumber":90,"Velocity":72,"Duration":322650,"SoundDuration":322650,"Delta":254105754},{"NoteNumber":81,"Velocity":72,"Duration":322650,"SoundDuration":322650,"Delta":254105754},{"NoteNumber":57,"Velocity":55,"Duration":107550,"SoundDuration":107550,"Delta":254105754},{"NoteNumber":58,"Velocity":56,"Duration":107550,"SoundDuration":107550,"Delta":254213304},{"NoteNumber":61,"Velocity":57,"Duration":107550,"SoundDuration":107550,"Delta":254320854},{"NoteNumber":80,"Velocity":62,"Duration":331784,"SoundDuration":331784,"Delta":254428404},{"NoteNumber":92,"Velocity":80,"Duration":331784,"SoundDuration":331784,"Delta":254428404},{"NoteNumber":62,"Velocity":57,"Duration":110594,"SoundDuration":110594,"Delta":254428404},{"NoteNumber":64,"Velocity":59,"Duration":110595,"SoundDuration":110595,"Delta":254538999},{"NoteNumber":65,"Velocity":61,"Duration":110594,"SoundDuration":110594,"Delta":254649594},{"NoteNumber":78,"Velocity":56,"Duration":170706,"SoundDuration":170706,"Delta":254760189},{"NoteNumber":90,"Velocity":74,"Duration":170706,"SoundDuration":170706,"Delta":254760189},{"NoteNumber":66,"Velocity":66,"Duration":170706,"SoundDuration":170706,"Delta":254760189},{"NoteNumber":38,"Velocity":74,"Duration":339443,"SoundDuration":339443,"Delta":255101602},{"NoteNumber":50,"Velocity":89,"Duration":339443,"SoundDuration":339443,"Delta":255101602},{"NoteNumber":66,"Velocity":55,"Duration":81557,"SoundDuration":81557,"Delta":255441046},{"NoteNumber":64,"Velocity":83,"Duration":163114,"SoundDuration":163114,"Delta":255441046},{"NoteNumber":54,"Velocity":63,"Duration":163114,"SoundDuration":163114,"Delta":255441046},{"NoteNumber":52,"Velocity":63,"Duration":163114,"SoundDuration":163114,"Delta":255441046},{"NoteNumber":67,"Velocity":55,"Duration":81557,"SoundDuration":81557,"Delta":255522603},{"NoteNumber":70,"Velocity":55,"Duration":81557,"SoundDuration":81557,"Delta":255604160},{"NoteNumber":71,"Velocity":55,"Duration":81557,"SoundDuration":81557,"Delta":255685718},{"NoteNumber":73,"Velocity":56,"Duration":80222,"SoundDuration":80222,"Delta":255767275},{"NoteNumber":61,"Velocity":79,"Duration":160445,"SoundDuration":160445,"Delta":255767275},{"NoteNumber":49,"Velocity":61,"Duration":160445,"SoundDuration":160445,"Delta":255767275},{"NoteNumber":74,"Velocity":56,"Duration":80222,"SoundDuration":80222,"Delta":255847497},{"NoteNumber":76,"Velocity":57,"Duration":80222,"SoundDuration":80222,"Delta":255927720},{"NoteNumber":78,"Velocity":59,"Duration":80222,"SoundDuration":80222,"Delta":256007942},{"NoteNumber":79,"Velocity":59,"Duration":81557,"SoundDuration":81557,"Delta":256088165},{"NoteNumber":54,"Velocity":63,"Duration":665672,"SoundDuration":665672,"Delta":256088165},{"NoteNumber":50,"Velocity":63,"Duration":326229,"SoundDuration":326229,"Delta":256088165},{"NoteNumber":62,"Velocity":82,"Duration":326229,"SoundDuration":326229,"Delta":256088165},{"NoteNumber":82,"Velocity":61,"Duration":81557,"SoundDuration":81557,"Delta":256169722},{"NoteNumber":83,"Velocity":61,"Duration":81557,"SoundDuration":81557,"Delta":256251279},{"NoteNumber":85,"Velocity":61,"Duration":81557,"SoundDuration":81557,"Delta":256332837},{"NoteNumber":86,"Velocity":62,"Duration":84860,"SoundDuration":84860,"Delta":256414394},{"NoteNumber":49,"Velocity":62,"Duration":339443,"SoundDuration":339443,"Delta":256414394},{"NoteNumber":61,"Velocity":80,"Duration":339443,"SoundDuration":339443,"Delta":256414394},{"NoteNumber":88,"Velocity":62,"Duration":84860,"SoundDuration":84860,"Delta":256499255},{"NoteNumber":90,"Velocity":62,"Duration":84860,"SoundDuration":84860,"Delta":256584116},{"NoteNumber":91,"Velocity":62,"Duration":84860,"SoundDuration":84860,"Delta":256668976},{"NoteNumber":94,"Velocity":63,"Duration":67178,"SoundDuration":67178,"Delta":256753837},{"NoteNumber":47,"Velocity":62,"Duration":169408,"SoundDuration":169408,"Delta":256753837},{"NoteNumber":54,"Velocity":72,"Duration":169408,"SoundDuration":169408,"Delta":256753837},{"NoteNumber":59,"Velocity":80,"Duration":169408,"SoundDuration":169408,"Delta":256753837},{"NoteNumber":95,"Velocity":63,"Duration":67922,"SoundDuration":67922,"Delta":256821016},{"NoteNumber":97,"Velocity":63,"Duration":68883,"SoundDuration":68883,"Delta":256888938},{"NoteNumber":98,"Velocity":63,"Duration":69872,"SoundDuration":69872,"Delta":256957822},{"NoteNumber":100,"Velocity":60,"Duration":70658,"SoundDuration":70658,"Delta":257033555},{"NoteNumber":102,"Velocity":75,"Duration":339443,"SoundDuration":339443,"Delta":257098556},{"NoteNumber":45,"Velocity":46,"Duration":113147,"SoundDuration":113147,"Delta":257098556},{"NoteNumber":38,"Velocity":89,"Duration":339443,"SoundDuration":339443,"Delta":257098556},{"NoteNumber":46,"Velocity":52,"Duration":113147,"SoundDuration":113147,"Delta":257211704},{"NoteNumber":49,"Velocity":52,"Duration":113147,"SoundDuration":113147,"Delta":257324851},{"NoteNumber":86,"Velocity":63,"Duration":164023,"SoundDuration":164023,"Delta":257437999},{"NoteNumber":90,"Velocity":83,"Duration":164023,"SoundDuration":164023,"Delta":257437999},{"NoteNumber":78,"Velocity":63,"Duration":164023,"SoundDuration":164023,"Delta":257437999},{"NoteNumber":50,"Velocity":53,"Duration":109349,"SoundDuration":109349,"Delta":257437999},{"NoteNumber":52,"Velocity":53,"Duration":109349,"SoundDuration":109349,"Delta":257547349},{"NoteNumber":53,"Velocity":53,"Duration":109349,"SoundDuration":109349,"Delta":257656698},{"NoteNumber":92,"Velocity":89,"Duration":160444,"SoundDuration":160444,"Delta":257766047},{"NoteNumber":90,"Velocity":66,"Duration":160444,"SoundDuration":160444,"Delta":257766047},{"NoteNumber":80,"Velocity":66,"Duration":160444,"SoundDuration":160444,"Delta":257766047},{"NoteNumber":54,"Velocity":54,"Duration":106963,"SoundDuration":106963,"Delta":257766047},{"NoteNumber":55,"Velocity":55,"Duration":106963,"SoundDuration":106963,"Delta":257873011},{"NoteNumber":56,"Velocity":55,"Duration":106963,"SoundDuration":106963,"Delta":257979974},{"NoteNumber":95,"Velocity":83,"Duration":80222,"SoundDuration":80222,"Delta":258006715},{"NoteNumber":93,"Velocity":92,"Duration":322650,"SoundDuration":322650,"Delta":258086937},{"NoteNumber":90,"Velocity":72,"Duration":322650,"SoundDuration":322650,"Delta":258086937},{"NoteNumber":81,"Velocity":72,"Duration":322650,"SoundDuration":322650,"Delta":258086937},{"NoteNumber":57,"Velocity":55,"Duration":107550,"SoundDuration":107550,"Delta":258086937},{"NoteNumber":58,"Velocity":56,"Duration":107550,"SoundDuration":107550,"Delta":258194487},{"NoteNumber":61,"Velocity":57,"Duration":107550,"SoundDuration":107550,"Delta":258302037},{"NoteNumber":80,"Velocity":62,"Duration":329887,"SoundDuration":329887,"Delta":258409587},{"NoteNumber":92,"Velocity":80,"Duration":329887,"SoundDuration":329887,"Delta":258409587},{"NoteNumber":62,"Velocity":57,"Duration":109962,"SoundDuration":109962,"Delta":258409587},{"NoteNumber":64,"Velocity":59,"Duration":109962,"SoundDuration":109962,"Delta":258519550},{"NoteNumber":65,"Velocity":61,"Duration":109962,"SoundDuration":109962,"Delta":258629513},{"NoteNumber":78,"Velocity":56,"Duration":170706,"SoundDuration":170706,"Delta":258739475},{"NoteNumber":90,"Velocity":74,"Duration":170706,"SoundDuration":170706,"Delta":258739475},{"NoteNumber":66,"Velocity":66,"Duration":170706,"SoundDuration":170706,"Delta":258739475},{"NoteNumber":38,"Velocity":74,"Duration":333986,"SoundDuration":333986,"Delta":259080889},{"NoteNumber":50,"Velocity":89,"Duration":333986,"SoundDuration":333986,"Delta":259080889},{"NoteNumber":66,"Velocity":55,"Duration":80662,"SoundDuration":80662,"Delta":259414875},{"NoteNumber":64,"Velocity":83,"Duration":161324,"SoundDuration":161324,"Delta":259414875},{"NoteNumber":54,"Velocity":63,"Duration":161324,"SoundDuration":161324,"Delta":259414875},{"NoteNumber":52,"Velocity":63,"Duration":161324,"SoundDuration":161324,"Delta":259414875},{"NoteNumber":67,"Velocity":55,"Duration":80662,"SoundDuration":80662,"Delta":259495537},{"NoteNumber":70,"Velocity":55,"Duration":80662,"SoundDuration":80662,"Delta":259576200},{"NoteNumber":71,"Velocity":55,"Duration":80662,"SoundDuration":80662,"Delta":259656862},{"NoteNumber":73,"Velocity":56,"Duration":83892,"SoundDuration":83892,"Delta":259737525},{"NoteNumber":61,"Velocity":79,"Duration":167785,"SoundDuration":167785,"Delta":259737525},{"NoteNumber":49,"Velocity":61,"Duration":167785,"SoundDuration":167785,"Delta":259737525},{"NoteNumber":74,"Velocity":56,"Duration":83892,"SoundDuration":83892,"Delta":259821417},{"NoteNumber":76,"Velocity":57,"Duration":83892,"SoundDuration":83892,"Delta":259905310},{"NoteNumber":78,"Velocity":59,"Duration":83892,"SoundDuration":83892,"Delta":259989203},{"NoteNumber":79,"Velocity":59,"Duration":79787,"SoundDuration":79787,"Delta":260073095},{"NoteNumber":54,"Velocity":63,"Duration":649036,"SoundDuration":649036,"Delta":260073095},{"NoteNumber":50,"Velocity":63,"Duration":319148,"SoundDuration":319148,"Delta":260073095},{"NoteNumber":62,"Velocity":82,"Duration":319148,"SoundDuration":319148,"Delta":260073095},{"NoteNumber":82,"Velocity":61,"Duration":79787,"SoundDuration":79787,"Delta":260152883},{"NoteNumber":83,"Velocity":61,"Duration":79787,"SoundDuration":79787,"Delta":260232670},{"NoteNumber":85,"Velocity":61,"Duration":79787,"SoundDuration":79787,"Delta":260312457},{"NoteNumber":86,"Velocity":62,"Duration":65977,"SoundDuration":65977,"Delta":260392244},{"NoteNumber":49,"Velocity":62,"Duration":329887,"SoundDuration":329887,"Delta":260392244},{"NoteNumber":61,"Velocity":80,"Duration":329887,"SoundDuration":329887,"Delta":260392244},{"NoteNumber":88,"Velocity":62,"Duration":65977,"SoundDuration":65977,"Delta":260458222},{"NoteNumber":90,"Velocity":62,"Duration":65977,"SoundDuration":65977,"Delta":260524199},{"NoteNumber":91,"Velocity":62,"Duration":65977,"SoundDuration":65977,"Delta":260590177},{"NoteNumber":94,"Velocity":62,"Duration":66040,"SoundDuration":66040,"Delta":260661653},{"NoteNumber":95,"Velocity":63,"Duration":66733,"SoundDuration":66733,"Delta":260722132},{"NoteNumber":47,"Velocity":62,"Duration":166833,"SoundDuration":166833,"Delta":260722132},{"NoteNumber":54,"Velocity":72,"Duration":166833,"SoundDuration":166833,"Delta":260722132},{"NoteNumber":59,"Velocity":80,"Duration":166833,"SoundDuration":166833,"Delta":260722132},{"NoteNumber":97,"Velocity":63,"Duration":66733,"SoundDuration":66733,"Delta":260788866},{"NoteNumber":98,"Velocity":63,"Duration":66733,"SoundDuration":66733,"Delta":260855599},{"NoteNumber":100,"Velocity":63,"Duration":66733,"SoundDuration":66733,"Delta":260922332},{"NoteNumber":102,"Velocity":63,"Duration":66862,"SoundDuration":66862,"Delta":260994627},{"NoteNumber":49,"Velocity":46,"Duration":113804,"SoundDuration":113804,"Delta":261055799},{"NoteNumber":42,"Velocity":89,"Duration":341413,"SoundDuration":341413,"Delta":261055799},{"NoteNumber":50,"Velocity":52,"Duration":113804,"SoundDuration":113804,"Delta":261169604},{"NoteNumber":53,"Velocity":52,"Duration":113804,"SoundDuration":113804,"Delta":261283408},{"NoteNumber":78,"Velocity":67,"Duration":161194,"SoundDuration":161194,"Delta":261397213},{"NoteNumber":82,"Velocity":89,"Duration":161194,"SoundDuration":161194,"Delta":261397213},{"NoteNumber":70,"Velocity":67,"Duration":161194,"SoundDuration":161194,"Delta":261397213},{"NoteNumber":54,"Velocity":53,"Duration":107713,"SoundDuration":107713,"Delta":261397213},{"NoteNumber":56,"Velocity":53,"Duration":106963,"SoundDuration":106963,"Delta":261504926},{"NoteNumber":57,"Velocity":53,"Duration":106963,"SoundDuration":106963,"Delta":261611889},{"NoteNumber":84,"Velocity":93,"Duration":156184,"SoundDuration":156184,"Delta":261718853},{"NoteNumber":82,"Velocity":71,"Duration":156184,"SoundDuration":156184,"Delta":261718853},{"NoteNumber":72,"Velocity":71,"Duration":156184,"SoundDuration":156184,"Delta":261718853},{"NoteNumber":58,"Velocity":54,"Duration":104123,"SoundDuration":104123,"Delta":261718853},{"NoteNumber":59,"Velocity":55,"Duration":104123,"SoundDuration":104123,"Delta":261822976},{"NoteNumber":60,"Velocity":55,"Duration":104123,"SoundDuration":104123,"Delta":261927099},{"NoteNumber":87,"Velocity":89,"Duration":78092,"SoundDuration":78092,"Delta":261953130},{"NoteNumber":85,"Velocity":97,"Duration":317426,"SoundDuration":317426,"Delta":262031223},{"NoteNumber":82,"Velocity":75,"Duration":317426,"SoundDuration":317426,"Delta":262031223},{"NoteNumber":73,"Velocity":75,"Duration":317426,"SoundDuration":317426,"Delta":262031223},{"NoteNumber":61,"Velocity":55,"Duration":105808,"SoundDuration":105808,"Delta":262031223},{"NoteNumber":62,"Velocity":56,"Duration":105808,"SoundDuration":105808,"Delta":262137031},{"NoteNumber":65,"Velocity":57,"Duration":105808,"SoundDuration":105808,"Delta":262242840},{"NoteNumber":72,"Velocity":65,"Duration":324429,"SoundDuration":324429,"Delta":262348649},{"NoteNumber":84,"Velocity":84,"Duration":324429,"SoundDuration":324429,"Delta":262348649},{"NoteNumber":66,"Velocity":57,"Duration":108143,"SoundDuration":108143,"Delta":262348649},{"NoteNumber":68,"Velocity":59,"Duration":108143,"SoundDuration":108143,"Delta":262456792},{"NoteNumber":69,"Velocity":61,"Duration":108143,"SoundDuration":108143,"Delta":262564935},{"NoteNumber":70,"Velocity":61,"Duration":169721,"SoundDuration":169721,"Delta":262673079},{"NoteNumber":82,"Velocity":80,"Duration":169721,"SoundDuration":169721,"Delta":262673079},{"NoteNumber":70,"Velocity":66,"Duration":169721,"SoundDuration":169721,"Delta":262673079},{"NoteNumber":42,"Velocity":74,"Duration":329887,"SoundDuration":329887,"Delta":263012522},{"NoteNumber":54,"Velocity":89,"Duration":329887,"SoundDuration":329887,"Delta":263012522},{"NoteNumber":70,"Velocity":55,"Duration":79356,"SoundDuration":79356,"Delta":263342410},{"NoteNumber":68,"Velocity":83,"Duration":158713,"SoundDuration":158713,"Delta":263342410},{"NoteNumber":58,"Velocity":63,"Duration":158713,"SoundDuration":158713,"Delta":263342410},{"NoteNumber":56,"Velocity":63,"Duration":158713,"SoundDuration":158713,"Delta":263342410},{"NoteNumber":71,"Velocity":55,"Duration":79356,"SoundDuration":79356,"Delta":263421767},{"NoteNumber":74,"Velocity":55,"Duration":79356,"SoundDuration":79356,"Delta":263501123},{"NoteNumber":75,"Velocity":55,"Duration":79356,"SoundDuration":79356,"Delta":263580480},{"NoteNumber":77,"Velocity":56,"Duration":81557,"SoundDuration":81557,"Delta":263659837},{"NoteNumber":58,"Velocity":61,"Duration":163114,"SoundDuration":163114,"Delta":263659837},{"NoteNumber":65,"Velocity":79,"Duration":163114,"SoundDuration":163114,"Delta":263659837},{"NoteNumber":53,"Velocity":61,"Duration":163114,"SoundDuration":163114,"Delta":263659837},{"NoteNumber":78,"Velocity":56,"Duration":81557,"SoundDuration":81557,"Delta":263741394},{"NoteNumber":80,"Velocity":57,"Duration":81557,"SoundDuration":81557,"Delta":263822951},{"NoteNumber":81,"Velocity":59,"Duration":81557,"SoundDuration":81557,"Delta":263904508},{"NoteNumber":82,"Velocity":59,"Duration":79356,"SoundDuration":79356,"Delta":263986066},{"NoteNumber":58,"Velocity":63,"Duration":643655,"SoundDuration":643655,"Delta":263986066},{"NoteNumber":51,"Velocity":63,"Duration":317426,"SoundDuration":317426,"Delta":263986066},{"NoteNumber":66,"Velocity":82,"Duration":317426,"SoundDuration":317426,"Delta":263986066},{"NoteNumber":83,"Velocity":61,"Duration":79356,"SoundDuration":79356,"Delta":264065422},{"NoteNumber":84,"Velocity":61,"Duration":79356,"SoundDuration":79356,"Delta":264144779},{"NoteNumber":85,"Velocity":61,"Duration":79356,"SoundDuration":79356,"Delta":264224135},{"NoteNumber":86,"Velocity":62,"Duration":81557,"SoundDuration":81557,"Delta":264303492},{"NoteNumber":53,"Velocity":62,"Duration":326229,"SoundDuration":326229,"Delta":264303492},{"NoteNumber":65,"Velocity":80,"Duration":326229,"SoundDuration":326229,"Delta":264303492},{"NoteNumber":87,"Velocity":62,"Duration":81557,"SoundDuration":81557,"Delta":264385049},{"NoteNumber":88,"Velocity":62,"Duration":81557,"SoundDuration":81557,"Delta":264466607},{"NoteNumber":89,"Velocity":62,"Duration":81557,"SoundDuration":81557,"Delta":264548164},{"NoteNumber":90,"Velocity":63,"Duration":66425,"SoundDuration":66425,"Delta":264629721},{"NoteNumber":51,"Velocity":62,"Duration":164054,"SoundDuration":164054,"Delta":264629721},{"NoteNumber":58,"Velocity":72,"Duration":164054,"SoundDuration":164054,"Delta":264629721},{"NoteNumber":63,"Velocity":80,"Duration":164054,"SoundDuration":164054,"Delta":264629721},{"NoteNumber":91,"Velocity":63,"Duration":65095,"SoundDuration":65095,"Delta":264712368},{"NoteNumber":92,"Velocity":63,"Duration":65670,"SoundDuration":65670,"Delta":264793775},{"NoteNumber":93,"Velocity":63,"Duration":66261,"SoundDuration":66261,"Delta":264875941},{"NoteNumber":87,"Velocity":81,"Duration":326229,"SoundDuration":326229,"Delta":264958886},{"NoteNumber":82,"Velocity":80,"Duration":326229,"SoundDuration":326229,"Delta":264958886},{"NoteNumber":94,"Velocity":89,"Duration":326229,"SoundDuration":326229,"Delta":264958886},{"NoteNumber":37,"Velocity":72,"Duration":326229,"SoundDuration":326229,"Delta":264958886},{"NoteNumber":42,"Velocity":81,"Duration":326229,"SoundDuration":326229,"Delta":264958886},{"NoteNumber":30,"Velocity":72,"Duration":326229,"SoundDuration":326229,"Delta":264958886},{"NoteNumber":66,"Velocity":61,"Duration":157861,"SoundDuration":157861,"Delta":265285115},{"NoteNumber":61,"Velocity":66,"Duration":157861,"SoundDuration":157861,"Delta":265285115},{"NoteNumber":54,"Velocity":61,"Duration":157861,"SoundDuration":157861,"Delta":265285115},{"NoteNumber":82,"Velocity":76,"Duration":157861,"SoundDuration":157861,"Delta":265442976},{"NoteNumber":78,"Velocity":76,"Duration":157861,"SoundDuration":157861,"Delta":265442976},{"NoteNumber":70,"Velocity":67,"Duration":157861,"SoundDuration":157861,"Delta":265442976},{"NoteNumber":66,"Velocity":65,"Duration":157018,"SoundDuration":157018,"Delta":265600838},{"NoteNumber":60,"Velocity":74,"Duration":157018,"SoundDuration":157018,"Delta":265600838},{"NoteNumber":54,"Velocity":65,"Duration":157018,"SoundDuration":157018,"Delta":265600838},{"NoteNumber":84,"Velocity":81,"Duration":157018,"SoundDuration":157018,"Delta":265757856},{"NoteNumber":78,"Velocity":81,"Duration":157018,"SoundDuration":157018,"Delta":265757856},{"NoteNumber":72,"Velocity":72,"Duration":157018,"SoundDuration":157018,"Delta":265757856},{"NoteNumber":66,"Velocity":72,"Duration":162214,"SoundDuration":162214,"Delta":265914875},{"NoteNumber":58,"Velocity":81,"Duration":162214,"SoundDuration":162214,"Delta":265914875},{"NoteNumber":54,"Velocity":72,"Duration":162214,"SoundDuration":162214,"Delta":265914875},{"NoteNumber":73,"Velocity":75,"Duration":162214,"SoundDuration":162214,"Delta":266077090},{"NoteNumber":78,"Velocity":84,"Duration":162214,"SoundDuration":162214,"Delta":266077090},{"NoteNumber":85,"Velocity":84,"Duration":162214,"SoundDuration":162214,"Delta":266077090},{"NoteNumber":66,"Velocity":67,"Duration":162214,"SoundDuration":162214,"Delta":266239305},{"NoteNumber":60,"Velocity":76,"Duration":162214,"SoundDuration":162214,"Delta":266239305},{"NoteNumber":54,"Velocity":67,"Duration":162214,"SoundDuration":162214,"Delta":266239305},{"NoteNumber":72,"Velocity":73,"Duration":162214,"SoundDuration":162214,"Delta":266401519},{"NoteNumber":78,"Velocity":81,"Duration":162214,"SoundDuration":162214,"Delta":266401519},{"NoteNumber":84,"Velocity":81,"Duration":162214,"SoundDuration":162214,"Delta":266401519},{"NoteNumber":66,"Velocity":63,"Duration":158713,"SoundDuration":158713,"Delta":266563734},{"NoteNumber":61,"Velocity":73,"Duration":158713,"SoundDuration":158713,"Delta":266563734},{"NoteNumber":54,"Velocity":63,"Duration":158713,"SoundDuration":158713,"Delta":266563734},{"NoteNumber":82,"Velocity":79,"Duration":158713,"SoundDuration":158713,"Delta":266722447},{"NoteNumber":78,"Velocity":79,"Duration":158713,"SoundDuration":158713,"Delta":266722447},{"NoteNumber":70,"Velocity":69,"Duration":158713,"SoundDuration":158713,"Delta":266722447},{"NoteNumber":94,"Velocity":81,"Duration":333666,"SoundDuration":333666,"Delta":266881161},{"NoteNumber":96,"Velocity":89,"Duration":333666,"SoundDuration":333666,"Delta":266881161},{"NoteNumber":88,"Velocity":80,"Duration":333666,"SoundDuration":333666,"Delta":266881161},{"NoteNumber":84,"Velocity":80,"Duration":333666,"SoundDuration":333666,"Delta":266881161},{"NoteNumber":36,"Velocity":79,"Duration":333666,"SoundDuration":333666,"Delta":266881161},{"NoteNumber":42,"Velocity":89,"Duration":333666,"SoundDuration":333666,"Delta":266881161},{"NoteNumber":30,"Velocity":79,"Duration":333666,"SoundDuration":333666,"Delta":266881161},{"NoteNumber":54,"Velocity":77,"Duration":157018,"SoundDuration":157018,"Delta":267214828},{"NoteNumber":66,"Velocity":77,"Duration":157018,"SoundDuration":157018,"Delta":267214828},{"NoteNumber":80,"Velocity":82,"Duration":156462,"SoundDuration":156462,"Delta":267371846},{"NoteNumber":68,"Velocity":82,"Duration":156462,"SoundDuration":156462,"Delta":267371846},{"NoteNumber":58,"Velocity":79,"Duration":155904,"SoundDuration":155904,"Delta":267528309},{"NoteNumber":70,"Velocity":79,"Duration":155904,"SoundDuration":155904,"Delta":267528309},{"NoteNumber":83,"Velocity":84,"Duration":155343,"SoundDuration":155343,"Delta":267684214},{"NoteNumber":71,"Velocity":84,"Duration":155343,"SoundDuration":155343,"Delta":267684214},{"NoteNumber":60,"Velocity":80,"Duration":154527,"SoundDuration":154527,"Delta":267839558},{"NoteNumber":72,"Velocity":80,"Duration":154527,"SoundDuration":154527,"Delta":267839558},{"NoteNumber":85,"Velocity":85,"Duration":153989,"SoundDuration":153989,"Delta":267994085},{"NoteNumber":73,"Velocity":85,"Duration":153989,"SoundDuration":153989,"Delta":267994085},{"NoteNumber":62,"Velocity":81,"Duration":153453,"SoundDuration":153453,"Delta":268148075},{"NoteNumber":74,"Velocity":81,"Duration":153453,"SoundDuration":153453,"Delta":268148075},{"NoteNumber":87,"Velocity":87,"Duration":152920,"SoundDuration":152920,"Delta":268301528},{"NoteNumber":75,"Velocity":87,"Duration":152920,"SoundDuration":152920,"Delta":268301528},{"NoteNumber":64,"Velocity":81,"Duration":152129,"SoundDuration":152129,"Delta":268454449},{"NoteNumber":76,"Velocity":81,"Duration":152129,"SoundDuration":152129,"Delta":268454449},{"NoteNumber":101,"Velocity":89,"Duration":87317,"SoundDuration":87317,"Delta":268758709},{"NoteNumber":93,"Velocity":89,"Duration":87317,"SoundDuration":87317,"Delta":268758709},{"NoteNumber":89,"Velocity":89,"Duration":87317,"SoundDuration":87317,"Delta":268758709},{"NoteNumber":29,"Velocity":89,"Duration":87317,"SoundDuration":87317,"Delta":268758709},{"NoteNumber":36,"Velocity":89,"Duration":87317,"SoundDuration":87317,"Delta":268758709},{"NoteNumber":41,"Velocity":89,"Duration":87317,"SoundDuration":87317,"Delta":268758709},{"NoteNumber":89,"Velocity":71,"Duration":87317,"SoundDuration":87317,"Delta":269107979},{"NoteNumber":89,"Velocity":64,"Duration":87317,"SoundDuration":87317,"Delta":269224403},{"NoteNumber":101,"Velocity":62,"Duration":87317,"SoundDuration":87317,"Delta":269340826},{"NoteNumber":77,"Velocity":70,"Duration":87317,"SoundDuration":87317,"Delta":269457250},{"NoteNumber":77,"Velocity":71,"Duration":87317,"SoundDuration":87317,"Delta":269573673},{"NoteNumber":89,"Velocity":64,"Duration":97150,"SoundDuration":97150,"Delta":269690097},{"NoteNumber":65,"Velocity":72,"Duration":87317,"SoundDuration":87317,"Delta":269819630},{"NoteNumber":65,"Velocity":73,"Duration":87317,"SoundDuration":87317,"Delta":269936054},{"NoteNumber":77,"Velocity":73,"Duration":87317,"SoundDuration":87317,"Delta":270052477},{"NoteNumber":53,"Velocity":69,"Duration":87966,"SoundDuration":87966,"Delta":270168901},{"NoteNumber":53,"Velocity":63,"Duration":87966,"SoundDuration":87966,"Delta":270286189},{"NoteNumber":65,"Velocity":62,"Duration":87966,"SoundDuration":87966,"Delta":270403477},{"NoteNumber":41,"Velocity":69,"Duration":87966,"SoundDuration":87966,"Delta":270520766},{"NoteNumber":41,"Velocity":62,"Duration":87966,"SoundDuration":87966,"Delta":270638054},{"NoteNumber":53,"Velocity":61,"Duration":87966,"SoundDuration":87966,"Delta":270755342},{"NoteNumber":29,"Velocity":66,"Duration":91617,"SoundDuration":91617,"Delta":270872630},{"NoteNumber":41,"Velocity":66,"Duration":91617,"SoundDuration":91617,"Delta":270872630},{"NoteNumber":53,"Velocity":62,"Duration":93551,"SoundDuration":93551,"Delta":270995125},{"NoteNumber":65,"Velocity":56,"Duration":95609,"SoundDuration":95609,"Delta":271120186},{"NoteNumber":65,"Velocity":69,"Duration":99796,"SoundDuration":99796,"Delta":271247193},{"NoteNumber":65,"Velocity":62,"Duration":100861,"SoundDuration":100861,"Delta":271380457},{"NoteNumber":66,"Velocity":62,"Duration":102001,"SoundDuration":102001,"Delta":271515145},{"NoteNumber":56,"Velocity":42,"Duration":34246,"SoundDuration":34246,"Delta":271617147},{"NoteNumber":63,"Velocity":62,"Duration":98304,"SoundDuration":98304,"Delta":271651393},{"NoteNumber":67,"Velocity":70,"Duration":98304,"SoundDuration":98304,"Delta":271651393},{"NoteNumber":57,"Velocity":53,"Duration":98304,"SoundDuration":98304,"Delta":271651393},{"NoteNumber":60,"Velocity":61,"Duration":98304,"SoundDuration":98304,"Delta":271651393},{"NoteNumber":63,"Velocity":55,"Duration":98304,"SoundDuration":98304,"Delta":271782466},{"NoteNumber":67,"Velocity":62,"Duration":98304,"SoundDuration":98304,"Delta":271782466},{"NoteNumber":63,"Velocity":57,"Duration":97851,"SoundDuration":97851,"Delta":271913539},{"NoteNumber":67,"Velocity":63,"Duration":97851,"SoundDuration":97851,"Delta":271913539},{"NoteNumber":52,"Velocity":46,"Duration":32147,"SoundDuration":32147,"Delta":272011391},{"NoteNumber":67,"Velocity":71,"Duration":90663,"SoundDuration":90663,"Delta":272043538},{"NoteNumber":63,"Velocity":63,"Duration":90663,"SoundDuration":90663,"Delta":272043538},{"NoteNumber":53,"Velocity":55,"Duration":90663,"SoundDuration":90663,"Delta":272043538},{"NoteNumber":57,"Velocity":62,"Duration":90663,"SoundDuration":90663,"Delta":272043538},{"NoteNumber":62,"Velocity":64,"Duration":89957,"SoundDuration":89957,"Delta":272164298},{"NoteNumber":67,"Velocity":70,"Duration":89223,"SoundDuration":89223,"Delta":272284096},{"NoteNumber":63,"Velocity":62,"Duration":89223,"SoundDuration":89223,"Delta":272284096},{"NoteNumber":44,"Velocity":45,"Duration":29609,"SoundDuration":29609,"Delta":272373319},{"NoteNumber":59,"Velocity":63,"Duration":88575,"SoundDuration":88575,"Delta":272402928},{"NoteNumber":45,"Velocity":53,"Duration":88575,"SoundDuration":88575,"Delta":272402928},{"NoteNumber":63,"Velocity":63,"Duration":88575,"SoundDuration":88575,"Delta":272521029},{"NoteNumber":60,"Velocity":57,"Duration":88575,"SoundDuration":88575,"Delta":272521029},{"NoteNumber":62,"Velocity":64,"Duration":91806,"SoundDuration":91806,"Delta":272639130},{"NoteNumber":40,"Velocity":45,"Duration":30602,"SoundDuration":30602,"Delta":272730937},{"NoteNumber":63,"Velocity":62,"Duration":238815,"SoundDuration":238815,"Delta":272761539},{"NoteNumber":67,"Velocity":70,"Duration":89555,"SoundDuration":89555,"Delta":272761539},{"NoteNumber":41,"Velocity":53,"Duration":89555,"SoundDuration":89555,"Delta":272761539},{"NoteNumber":70,"Velocity":69,"Duration":89555,"SoundDuration":89555,"Delta":272880947},{"NoteNumber":65,"Velocity":59,"Duration":89555,"SoundDuration":89555,"Delta":273000355},{"NoteNumber":69,"Velocity":65,"Duration":89555,"SoundDuration":89555,"Delta":273000355},{"NoteNumber":45,"Velocity":45,"Duration":29851,"SoundDuration":29851,"Delta":273089911},{"NoteNumber":62,"Velocity":59,"Duration":91806,"SoundDuration":91806,"Delta":273119763},{"NoteNumber":65,"Velocity":65,"Duration":91806,"SoundDuration":91806,"Delta":273119763},{"NoteNumber":46,"Velocity":51,"Duration":244818,"SoundDuration":244818,"Delta":273119763},{"NoteNumber":62,"Velocity":57,"Duration":91806,"SoundDuration":91806,"Delta":273242172},{"NoteNumber":65,"Velocity":63,"Duration":91806,"SoundDuration":91806,"Delta":273242172},{"NoteNumber":62,"Velocity":63,"Duration":96351,"SoundDuration":96351,"Delta":273364581},{"NoteNumber":65,"Velocity":63,"Duration":96351,"SoundDuration":96351,"Delta":273364581},{"NoteNumber":49,"Velocity":47,"Duration":32117,"SoundDuration":32117,"Delta":273460932},{"NoteNumber":65,"Velocity":73,"Duration":88276,"SoundDuration":88276,"Delta":273493049},{"NoteNumber":62,"Velocity":65,"Duration":88276,"SoundDuration":88276,"Delta":273493049},{"NoteNumber":50,"Velocity":55,"Duration":88276,"SoundDuration":88276,"Delta":273493049},{"NoteNumber":58,"Velocity":67,"Duration":88666,"SoundDuration":88666,"Delta":273610845},{"NoteNumber":63,"Velocity":65,"Duration":89062,"SoundDuration":89062,"Delta":273729142},{"NoteNumber":60,"Velocity":65,"Duration":89062,"SoundDuration":89062,"Delta":273729142},{"NoteNumber":52,"Velocity":50,"Duration":29733,"SoundDuration":29733,"Delta":273818205},{"NoteNumber":62,"Velocity":72,"Duration":90759,"SoundDuration":90759,"Delta":273847938},{"NoteNumber":53,"Velocity":54,"Duration":90759,"SoundDuration":90759,"Delta":273847938},{"NoteNumber":67,"Velocity":64,"Duration":92040,"SoundDuration":92040,"Delta":273969180},{"NoteNumber":63,"Velocity":57,"Duration":92040,"SoundDuration":92040,"Delta":273969180},{"NoteNumber":65,"Velocity":65,"Duration":93404,"SoundDuration":93404,"Delta":274092151},{"NoteNumber":62,"Velocity":65,"Duration":93404,"SoundDuration":93404,"Delta":274092151},{"NoteNumber":57,"Velocity":56,"Duration":31393,"SoundDuration":31393,"Delta":274185555},{"NoteNumber":62,"Velocity":74,"Duration":343438,"SoundDuration":343438,"Delta":274216949},{"NoteNumber":58,"Velocity":65,"Duration":343438,"SoundDuration":343438,"Delta":274216949},{"NoteNumber":80,"Velocity":31,"Duration":34246,"SoundDuration":34246,"Delta":274594528},{"NoteNumber":87,"Velocity":49,"Duration":97296,"SoundDuration":97296,"Delta":274628775},{"NoteNumber":90,"Velocity":54,"Duration":97296,"SoundDuration":97296,"Delta":274628775},{"NoteNumber":81,"Velocity":37,"Duration":97296,"SoundDuration":97296,"Delta":274628775},{"NoteNumber":84,"Velocity":43,"Duration":97296,"SoundDuration":97296,"Delta":274628775},{"NoteNumber":87,"Velocity":44,"Duration":97007,"SoundDuration":97007,"Delta":274758406},{"NoteNumber":90,"Velocity":49,"Duration":97007,"SoundDuration":97007,"Delta":274758406},{"NoteNumber":87,"Velocity":45,"Duration":95330,"SoundDuration":95330,"Delta":274887750},{"NoteNumber":90,"Velocity":51,"Duration":95330,"SoundDuration":95330,"Delta":274887750},{"NoteNumber":76,"Velocity":32,"Duration":31475,"SoundDuration":31475,"Delta":274983081},{"NoteNumber":90,"Velocity":55,"Duration":90663,"SoundDuration":90663,"Delta":275014556},{"NoteNumber":87,"Velocity":50,"Duration":90663,"SoundDuration":90663,"Delta":275014556},{"NoteNumber":77,"Velocity":39,"Duration":90663,"SoundDuration":90663,"Delta":275014556},{"NoteNumber":81,"Velocity":44,"Duration":90663,"SoundDuration":90663,"Delta":275014556},{"NoteNumber":86,"Velocity":51,"Duration":89957,"SoundDuration":89957,"Delta":275135316},{"NoteNumber":90,"Velocity":54,"Duration":89223,"SoundDuration":89223,"Delta":275255113},{"NoteNumber":87,"Velocity":49,"Duration":89223,"SoundDuration":89223,"Delta":275255113},{"NoteNumber":68,"Velocity":32,"Duration":29609,"SoundDuration":29609,"Delta":275344337},{"NoteNumber":83,"Velocity":51,"Duration":88083,"SoundDuration":88083,"Delta":275373946},{"NoteNumber":69,"Velocity":36,"Duration":88083,"SoundDuration":88083,"Delta":275373946},{"NoteNumber":87,"Velocity":51,"Duration":88083,"SoundDuration":88083,"Delta":275491391},{"NoteNumber":84,"Velocity":45,"Duration":88083,"SoundDuration":88083,"Delta":275491391},{"NoteNumber":86,"Velocity":51,"Duration":91806,"SoundDuration":91806,"Delta":275608835},{"NoteNumber":64,"Velocity":32,"Duration":30602,"SoundDuration":30602,"Delta":275700642},{"NoteNumber":87,"Velocity":49,"Duration":238701,"SoundDuration":238701,"Delta":275731244},{"NoteNumber":90,"Velocity":54,"Duration":89513,"SoundDuration":89513,"Delta":275731244},{"NoteNumber":65,"Velocity":36,"Duration":89513,"SoundDuration":89513,"Delta":275731244},{"NoteNumber":94,"Velocity":54,"Duration":89513,"SoundDuration":89513,"Delta":275850595},{"NoteNumber":89,"Velocity":45,"Duration":89513,"SoundDuration":89513,"Delta":275969946},{"NoteNumber":93,"Velocity":52,"Duration":89513,"SoundDuration":89513,"Delta":275969946},{"NoteNumber":69,"Velocity":32,"Duration":29837,"SoundDuration":29837,"Delta":276059459},{"NoteNumber":85,"Velocity":45,"Duration":91806,"SoundDuration":91806,"Delta":276089297},{"NoteNumber":89,"Velocity":52,"Duration":91806,"SoundDuration":91806,"Delta":276089297},{"NoteNumber":70,"Velocity":36,"Duration":91806,"SoundDuration":91806,"Delta":276089297},{"NoteNumber":85,"Velocity":45,"Duration":91806,"SoundDuration":91806,"Delta":276211706},{"NoteNumber":89,"Velocity":51,"Duration":91806,"SoundDuration":91806,"Delta":276211706},{"NoteNumber":85,"Velocity":51,"Duration":96351,"SoundDuration":96351,"Delta":276334115},{"NoteNumber":89,"Velocity":51,"Duration":96351,"SoundDuration":96351,"Delta":276334115},{"NoteNumber":72,"Velocity":32,"Duration":32117,"SoundDuration":32117,"Delta":276430466},{"NoteNumber":89,"Velocity":59,"Duration":88276,"SoundDuration":88276,"Delta":276462583},{"NoteNumber":85,"Velocity":52,"Duration":88276,"SoundDuration":88276,"Delta":276462583},{"NoteNumber":73,"Velocity":39,"Duration":88276,"SoundDuration":88276,"Delta":276462583},{"NoteNumber":82,"Velocity":53,"Duration":88666,"SoundDuration":88666,"Delta":276580379},{"NoteNumber":87,"Velocity":52,"Duration":89062,"SoundDuration":89062,"Delta":276698676},{"NoteNumber":84,"Velocity":52,"Duration":89062,"SoundDuration":89062,"Delta":276698676},{"NoteNumber":76,"Velocity":35,"Duration":29733,"SoundDuration":29733,"Delta":276787739},{"NoteNumber":85,"Velocity":57,"Duration":90759,"SoundDuration":90759,"Delta":276817472},{"NoteNumber":77,"Velocity":39,"Duration":90759,"SoundDuration":90759,"Delta":276817472},{"NoteNumber":90,"Velocity":51,"Duration":92040,"SoundDuration":92040,"Delta":276938714},{"NoteNumber":87,"Velocity":45,"Duration":92040,"SoundDuration":92040,"Delta":276938714},{"NoteNumber":89,"Velocity":52,"Duration":93404,"SoundDuration":93404,"Delta":277061685},{"NoteNumber":85,"Velocity":52,"Duration":93404,"SoundDuration":93404,"Delta":277061685},{"NoteNumber":81,"Velocity":35,"Duration":31393,"SoundDuration":31393,"Delta":277155089},{"NoteNumber":85,"Velocity":45,"Duration":343438,"SoundDuration":343438,"Delta":277186483},{"NoteNumber":82,"Velocity":41,"Duration":343438,"SoundDuration":343438,"Delta":277186483},{"NoteNumber":71,"Velocity":72,"Duration":90464,"SoundDuration":90464,"Delta":277598609},{"NoteNumber":65,"Velocity":54,"Duration":90464,"SoundDuration":90464,"Delta":277598609},{"NoteNumber":68,"Velocity":62,"Duration":90464,"SoundDuration":90464,"Delta":277598609},{"NoteNumber":75,"Velocity":69,"Duration":89949,"SoundDuration":89949,"Delta":277719136},{"NoteNumber":72,"Velocity":69,"Duration":89949,"SoundDuration":89949,"Delta":277719136},{"NoteNumber":63,"Velocity":50,"Duration":89949,"SoundDuration":89949,"Delta":277719136},{"NoteNumber":67,"Velocity":56,"Duration":89949,"SoundDuration":89949,"Delta":277719136},{"NoteNumber":74,"Velocity":69,"Duration":89416,"SoundDuration":89416,"Delta":277838985},{"NoteNumber":62,"Velocity":50,"Duration":89416,"SoundDuration":89416,"Delta":277838985},{"NoteNumber":65,"Velocity":56,"Duration":89416,"SoundDuration":89416,"Delta":277838985},{"NoteNumber":79,"Velocity":80,"Duration":88939,"SoundDuration":88939,"Delta":277958147},{"NoteNumber":75,"Velocity":80,"Duration":88939,"SoundDuration":88939,"Delta":277958147},{"NoteNumber":60,"Velocity":46,"Duration":363627,"SoundDuration":363627,"Delta":277958147},{"NoteNumber":63,"Velocity":53,"Duration":363627,"SoundDuration":363627,"Delta":277958147},{"NoteNumber":78,"Velocity":74,"Duration":88939,"SoundDuration":88939,"Delta":278076733},{"NoteNumber":82,"Velocity":75,"Duration":94840,"SoundDuration":94840,"Delta":278195320},{"NoteNumber":79,"Velocity":75,"Duration":94840,"SoundDuration":94840,"Delta":278195320},{"NoteNumber":52,"Velocity":46,"Duration":94840,"SoundDuration":94840,"Delta":278195320},{"NoteNumber":61,"Velocity":53,"Duration":94840,"SoundDuration":94840,"Delta":278195320},{"NoteNumber":80,"Velocity":84,"Duration":88939,"SoundDuration":88939,"Delta":278321774},{"NoteNumber":60,"Velocity":53,"Duration":355759,"SoundDuration":355759,"Delta":278321774},{"NoteNumber":53,"Velocity":59,"Duration":237172,"SoundDuration":237172,"Delta":278321774},{"NoteNumber":84,"Velocity":74,"Duration":88939,"SoundDuration":88939,"Delta":278440360},{"NoteNumber":81,"Velocity":65,"Duration":88939,"SoundDuration":88939,"Delta":278440360},{"NoteNumber":82,"Velocity":75,"Duration":88939,"SoundDuration":88939,"Delta":278558947},{"NoteNumber":79,"Velocity":66,"Duration":88939,"SoundDuration":88939,"Delta":278558947},{"NoteNumber":54,"Velocity":55,"Duration":88939,"SoundDuration":88939,"Delta":278558947},{"NoteNumber":81,"Velocity":74,"Duration":237173,"SoundDuration":237173,"Delta":278677533},{"NoteNumber":77,"Velocity":74,"Duration":88939,"SoundDuration":88939,"Delta":278677533},{"NoteNumber":60,"Velocity":54,"Duration":88939,"SoundDuration":88939,"Delta":278677533},{"NoteNumber":55,"Velocity":54,"Duration":88939,"SoundDuration":88939,"Delta":278677533},{"NoteNumber":76,"Velocity":72,"Duration":88939,"SoundDuration":88939,"Delta":278796120},{"NoteNumber":56,"Velocity":53,"Duration":88939,"SoundDuration":88939,"Delta":278796120},{"NoteNumber":79,"Velocity":70,"Duration":88939,"SoundDuration":88939,"Delta":278914706},{"NoteNumber":75,"Velocity":70,"Duration":88939,"SoundDuration":88939,"Delta":278914706},{"NoteNumber":57,"Velocity":51,"Duration":88939,"SoundDuration":88939,"Delta":278914706},{"NoteNumber":73,"Velocity":74,"Duration":90813,"SoundDuration":90813,"Delta":279033293},{"NoteNumber":64,"Velocity":54,"Duration":90813,"SoundDuration":90813,"Delta":279033293},{"NoteNumber":58,"Velocity":53,"Duration":242169,"SoundDuration":242169,"Delta":279033293},{"NoteNumber":77,"Velocity":71,"Duration":90813,"SoundDuration":90813,"Delta":279154378},{"NoteNumber":74,"Velocity":71,"Duration":90813,"SoundDuration":90813,"Delta":279154378},{"NoteNumber":65,"Velocity":54,"Duration":90813,"SoundDuration":90813,"Delta":279154378},{"NoteNumber":75,"Velocity":70,"Duration":90813,"SoundDuration":90813,"Delta":279275463},{"NoteNumber":66,"Velocity":54,"Duration":90813,"SoundDuration":90813,"Delta":279275463},{"NoteNumber":71,"Velocity":61,"Duration":355759,"SoundDuration":355759,"Delta":279396548},{"NoteNumber":82,"Velocity":86,"Duration":237172,"SoundDuration":237172,"Delta":279396548},{"NoteNumber":76,"Velocity":61,"Duration":88939,"SoundDuration":88939,"Delta":279396548},{"NoteNumber":67,"Velocity":54,"Duration":88939,"SoundDuration":88939,"Delta":279396548},{"NoteNumber":61,"Velocity":54,"Duration":355759,"SoundDuration":355759,"Delta":279396548},{"NoteNumber":77,"Velocity":62,"Duration":237172,"SoundDuration":237172,"Delta":279515134},{"NoteNumber":68,"Velocity":54,"Duration":237172,"SoundDuration":237172,"Delta":279515134},{"NoteNumber":80,"Velocity":61,"Duration":88939,"SoundDuration":88939,"Delta":279633721},{"NoteNumber":73,"Velocity":59,"Duration":92122,"SoundDuration":92122,"Delta":279752307},{"NoteNumber":78,"Velocity":69,"Duration":92122,"SoundDuration":92122,"Delta":279752307},{"NoteNumber":70,"Velocity":50,"Duration":122830,"SoundDuration":122830,"Delta":279752307},{"NoteNumber":66,"Velocity":50,"Duration":373517,"SoundDuration":373517,"Delta":279752307},{"NoteNumber":77,"Velocity":65,"Duration":92122,"SoundDuration":92122,"Delta":279875137},{"NoteNumber":78,"Velocity":63,"Duration":95871,"SoundDuration":95871,"Delta":279997967},{"NoteNumber":54,"Velocity":40,"Duration":475230,"SoundDuration":475230,"Delta":280061854},{"NoteNumber":61,"Velocity":42,"Duration":443245,"SoundDuration":443245,"Delta":280093839},{"NoteNumber":66,"Velocity":62,"Duration":411259,"SoundDuration":411259,"Delta":280125825},{"NoteNumber":73,"Velocity":70,"Duration":411259,"SoundDuration":411259,"Delta":280125825},{"NoteNumber":70,"Velocity":46,"Duration":411259,"SoundDuration":411259,"Delta":280125825},{"NoteNumber":79,"Velocity":45,"Duration":90464,"SoundDuration":90464,"Delta":280537084},{"NoteNumber":73,"Velocity":34,"Duration":90464,"SoundDuration":90464,"Delta":280537084},{"NoteNumber":76,"Velocity":37,"Duration":90464,"SoundDuration":90464,"Delta":280537084},{"NoteNumber":83,"Velocity":44,"Duration":89949,"SoundDuration":89949,"Delta":280657612},{"NoteNumber":80,"Velocity":44,"Duration":89949,"SoundDuration":89949,"Delta":280657612},{"NoteNumber":71,"Velocity":31,"Duration":89949,"SoundDuration":89949,"Delta":280657612},{"NoteNumber":75,"Velocity":35,"Duration":89949,"SoundDuration":89949,"Delta":280657612},{"NoteNumber":82,"Velocity":44,"Duration":89416,"SoundDuration":89416,"Delta":280777460},{"NoteNumber":70,"Velocity":31,"Duration":89416,"SoundDuration":89416,"Delta":280777460},{"NoteNumber":73,"Velocity":35,"Duration":89416,"SoundDuration":89416,"Delta":280777460},{"NoteNumber":87,"Velocity":49,"Duration":88939,"SoundDuration":88939,"Delta":280896622},{"NoteNumber":83,"Velocity":49,"Duration":88939,"SoundDuration":88939,"Delta":280896622},{"NoteNumber":68,"Velocity":27,"Duration":363627,"SoundDuration":363627,"Delta":280896622},{"NoteNumber":71,"Velocity":32,"Duration":363627,"SoundDuration":363627,"Delta":280896622},{"NoteNumber":86,"Velocity":45,"Duration":88939,"SoundDuration":88939,"Delta":281015209},{"NoteNumber":90,"Velocity":46,"Duration":94840,"SoundDuration":94840,"Delta":281133795},{"NoteNumber":87,"Velocity":46,"Duration":94840,"SoundDuration":94840,"Delta":281133795},{"NoteNumber":60,"Velocity":27,"Duration":94840,"SoundDuration":94840,"Delta":281133795},{"NoteNumber":69,"Velocity":32,"Duration":94840,"SoundDuration":94840,"Delta":281133795},{"NoteNumber":88,"Velocity":53,"Duration":88939,"SoundDuration":88939,"Delta":281260250},{"NoteNumber":68,"Velocity":32,"Duration":355759,"SoundDuration":355759,"Delta":281260250},{"NoteNumber":61,"Velocity":36,"Duration":237172,"SoundDuration":237172,"Delta":281260250},{"NoteNumber":92,"Velocity":45,"Duration":88939,"SoundDuration":88939,"Delta":281378836},{"NoteNumber":89,"Velocity":41,"Duration":88939,"SoundDuration":88939,"Delta":281378836},{"NoteNumber":90,"Velocity":46,"Duration":88939,"SoundDuration":88939,"Delta":281497423},{"NoteNumber":87,"Velocity":42,"Duration":88939,"SoundDuration":88939,"Delta":281497423},{"NoteNumber":62,"Velocity":34,"Duration":88939,"SoundDuration":88939,"Delta":281497423},{"NoteNumber":89,"Velocity":45,"Duration":237173,"SoundDuration":237173,"Delta":281616009},{"NoteNumber":85,"Velocity":45,"Duration":88939,"SoundDuration":88939,"Delta":281616009},{"NoteNumber":68,"Velocity":34,"Duration":88939,"SoundDuration":88939,"Delta":281616009},{"NoteNumber":63,"Velocity":34,"Duration":88939,"SoundDuration":88939,"Delta":281616009},{"NoteNumber":84,"Velocity":45,"Duration":88939,"SoundDuration":88939,"Delta":281734596},{"NoteNumber":64,"Velocity":32,"Duration":88939,"SoundDuration":88939,"Delta":281734596},{"NoteNumber":87,"Velocity":44,"Duration":88939,"SoundDuration":88939,"Delta":281853182},{"NoteNumber":83,"Velocity":44,"Duration":88939,"SoundDuration":88939,"Delta":281853182},{"NoteNumber":65,"Velocity":31,"Duration":88939,"SoundDuration":88939,"Delta":281853182},{"NoteNumber":81,"Velocity":45,"Duration":90813,"SoundDuration":90813,"Delta":281971769},{"NoteNumber":72,"Velocity":34,"Duration":90813,"SoundDuration":90813,"Delta":281971769},{"NoteNumber":66,"Velocity":32,"Duration":242169,"SoundDuration":242169,"Delta":281971769},{"NoteNumber":85,"Velocity":44,"Duration":90813,"SoundDuration":90813,"Delta":282092854},{"NoteNumber":82,"Velocity":44,"Duration":90813,"SoundDuration":90813,"Delta":282092854},{"NoteNumber":73,"Velocity":34,"Duration":90813,"SoundDuration":90813,"Delta":282092854},{"NoteNumber":83,"Velocity":44,"Duration":90813,"SoundDuration":90813,"Delta":282213939},{"NoteNumber":74,"Velocity":34,"Duration":90813,"SoundDuration":90813,"Delta":282213939},{"NoteNumber":79,"Velocity":36,"Duration":355759,"SoundDuration":355759,"Delta":282335024},{"NoteNumber":90,"Velocity":46,"Duration":237172,"SoundDuration":237172,"Delta":282335024},{"NoteNumber":84,"Velocity":36,"Duration":88939,"SoundDuration":88939,"Delta":282335024},{"NoteNumber":75,"Velocity":34,"Duration":88939,"SoundDuration":88939,"Delta":282335024},{"NoteNumber":69,"Velocity":34,"Duration":355759,"SoundDuration":355759,"Delta":282335024},{"NoteNumber":85,"Velocity":37,"Duration":237172,"SoundDuration":237172,"Delta":282453610},{"NoteNumber":76,"Velocity":34,"Duration":237172,"SoundDuration":237172,"Delta":282453610},{"NoteNumber":88,"Velocity":36,"Duration":88939,"SoundDuration":88939,"Delta":282572197},{"NoteNumber":81,"Velocity":36,"Duration":92122,"SoundDuration":92122,"Delta":282690783},{"NoteNumber":86,"Velocity":44,"Duration":92122,"SoundDuration":92122,"Delta":282690783},{"NoteNumber":78,"Velocity":31,"Duration":122830,"SoundDuration":122830,"Delta":282690783},{"NoteNumber":74,"Velocity":31,"Duration":373517,"SoundDuration":373517,"Delta":282690783},{"NoteNumber":85,"Velocity":41,"Duration":92122,"SoundDuration":92122,"Delta":282813613},{"NoteNumber":86,"Velocity":40,"Duration":95871,"SoundDuration":95871,"Delta":282936443},{"NoteNumber":81,"Velocity":44,"Duration":411259,"SoundDuration":411259,"Delta":283064301},{"NoteNumber":78,"Velocity":39,"Duration":411259,"SoundDuration":411259,"Delta":283064301},{"NoteNumber":45,"Velocity":65,"Duration":95266,"SoundDuration":95266,"Delta":283475560},{"NoteNumber":50,"Velocity":74,"Duration":95266,"SoundDuration":95266,"Delta":283475560},{"NoteNumber":55,"Velocity":74,"Duration":95266,"SoundDuration":95266,"Delta":283475560},{"NoteNumber":59,"Velocity":59,"Duration":95266,"SoundDuration":95266,"Delta":283602582},{"NoteNumber":62,"Velocity":65,"Duration":95266,"SoundDuration":95266,"Delta":283602582},{"NoteNumber":71,"Velocity":61,"Duration":97851,"SoundDuration":97851,"Delta":283729604},{"NoteNumber":67,"Velocity":53,"Duration":97851,"SoundDuration":97851,"Delta":283729604},{"NoteNumber":83,"Velocity":81,"Duration":90663,"SoundDuration":90663,"Delta":283859603},{"NoteNumber":79,"Velocity":90,"Duration":90663,"SoundDuration":90663,"Delta":283859603},{"NoteNumber":70,"Velocity":54,"Duration":89957,"SoundDuration":89957,"Delta":283980363},{"NoteNumber":66,"Velocity":49,"Duration":89957,"SoundDuration":89957,"Delta":283980363},{"NoteNumber":67,"Velocity":44,"Duration":89223,"SoundDuration":89223,"Delta":284100160},{"NoteNumber":71,"Velocity":50,"Duration":89223,"SoundDuration":89223,"Delta":284100160},{"NoteNumber":66,"Velocity":65,"Duration":88575,"SoundDuration":88575,"Delta":284218993},{"NoteNumber":63,"Velocity":59,"Duration":88575,"SoundDuration":88575,"Delta":284218993},{"NoteNumber":64,"Velocity":51,"Duration":88575,"SoundDuration":88575,"Delta":284337094},{"NoteNumber":67,"Velocity":57,"Duration":88575,"SoundDuration":88575,"Delta":284337094},{"NoteNumber":70,"Velocity":55,"Duration":91806,"SoundDuration":91806,"Delta":284455195},{"NoteNumber":66,"Velocity":49,"Duration":91806,"SoundDuration":91806,"Delta":284455195},{"NoteNumber":67,"Velocity":62,"Duration":238815,"SoundDuration":238815,"Delta":284577604},{"NoteNumber":71,"Velocity":69,"Duration":89555,"SoundDuration":89555,"Delta":284577604},{"NoteNumber":74,"Velocity":65,"Duration":89555,"SoundDuration":89555,"Delta":284697011},{"NoteNumber":69,"Velocity":54,"Duration":89555,"SoundDuration":89555,"Delta":284816419},{"NoteNumber":73,"Velocity":62,"Duration":89555,"SoundDuration":89555,"Delta":284816419},{"NoteNumber":45,"Velocity":56,"Duration":94087,"SoundDuration":94087,"Delta":284935827},{"NoteNumber":50,"Velocity":63,"Duration":94087,"SoundDuration":94087,"Delta":284935827},{"NoteNumber":54,"Velocity":63,"Duration":94087,"SoundDuration":94087,"Delta":284935827},{"NoteNumber":57,"Velocity":54,"Duration":94087,"SoundDuration":94087,"Delta":285061276},{"NoteNumber":62,"Velocity":62,"Duration":94087,"SoundDuration":94087,"Delta":285061276},{"NoteNumber":69,"Velocity":55,"Duration":96351,"SoundDuration":96351,"Delta":285186726},{"NoteNumber":66,"Velocity":49,"Duration":96351,"SoundDuration":96351,"Delta":285186726},{"NoteNumber":78,"Velocity":81,"Duration":88276,"SoundDuration":88276,"Delta":285315195},{"NoteNumber":81,"Velocity":90,"Duration":88276,"SoundDuration":88276,"Delta":285315195},{"NoteNumber":62,"Velocity":52,"Duration":88666,"SoundDuration":88666,"Delta":285432990},{"NoteNumber":66,"Velocity":59,"Duration":88666,"SoundDuration":88666,"Delta":285432990},{"NoteNumber":64,"Velocity":46,"Duration":89062,"SoundDuration":89062,"Delta":285551287},{"NoteNumber":67,"Velocity":53,"Duration":89062,"SoundDuration":89062,"Delta":285551287},{"NoteNumber":66,"Velocity":54,"Duration":90759,"SoundDuration":90759,"Delta":285670083},{"NoteNumber":69,"Velocity":62,"Duration":90759,"SoundDuration":90759,"Delta":285670083},{"NoteNumber":67,"Velocity":46,"Duration":92040,"SoundDuration":92040,"Delta":285791326},{"NoteNumber":71,"Velocity":53,"Duration":92040,"SoundDuration":92040,"Delta":285791326},{"NoteNumber":66,"Velocity":44,"Duration":93404,"SoundDuration":93404,"Delta":285914296},{"NoteNumber":69,"Velocity":50,"Duration":93404,"SoundDuration":93404,"Delta":285914296},{"NoteNumber":62,"Velocity":62,"Duration":417439,"SoundDuration":417439,"Delta":286039094},{"NoteNumber":66,"Velocity":69,"Duration":417439,"SoundDuration":417439,"Delta":286039094},{"NoteNumber":57,"Velocity":44,"Duration":95266,"SoundDuration":95266,"Delta":286456534},{"NoteNumber":62,"Velocity":50,"Duration":95266,"SoundDuration":95266,"Delta":286456534},{"NoteNumber":67,"Velocity":50,"Duration":95266,"SoundDuration":95266,"Delta":286456534},{"NoteNumber":71,"Velocity":36,"Duration":95266,"SoundDuration":95266,"Delta":286583556},{"NoteNumber":74,"Velocity":41,"Duration":95266,"SoundDuration":95266,"Delta":286583556},{"NoteNumber":83,"Velocity":36,"Duration":97851,"SoundDuration":97851,"Delta":286710577},{"NoteNumber":79,"Velocity":36,"Duration":97851,"SoundDuration":97851,"Delta":286710577},{"NoteNumber":91,"Velocity":44,"Duration":90663,"SoundDuration":90663,"Delta":286840576},{"NoteNumber":95,"Velocity":50,"Duration":90663,"SoundDuration":90663,"Delta":286840576},{"NoteNumber":82,"Velocity":33,"Duration":89957,"SoundDuration":89957,"Delta":286961336},{"NoteNumber":78,"Velocity":29,"Duration":89957,"SoundDuration":89957,"Delta":286961336},{"NoteNumber":79,"Velocity":26,"Duration":89223,"SoundDuration":89223,"Delta":287081134},{"NoteNumber":83,"Velocity":30,"Duration":89223,"SoundDuration":89223,"Delta":287081134},{"NoteNumber":78,"Velocity":41,"Duration":88575,"SoundDuration":88575,"Delta":287199966},{"NoteNumber":75,"Velocity":36,"Duration":88575,"SoundDuration":88575,"Delta":287199966},{"NoteNumber":76,"Velocity":31,"Duration":88575,"SoundDuration":88575,"Delta":287318067},{"NoteNumber":79,"Velocity":35,"Duration":88575,"SoundDuration":88575,"Delta":287318067},{"NoteNumber":82,"Velocity":34,"Duration":91806,"SoundDuration":91806,"Delta":287436168},{"NoteNumber":78,"Velocity":30,"Duration":91806,"SoundDuration":91806,"Delta":287436168},{"NoteNumber":79,"Velocity":43,"Duration":238815,"SoundDuration":238815,"Delta":287558577},{"NoteNumber":83,"Velocity":43,"Duration":89555,"SoundDuration":89555,"Delta":287558577},{"NoteNumber":86,"Velocity":41,"Duration":89555,"SoundDuration":89555,"Delta":287677985},{"NoteNumber":81,"Velocity":37,"Duration":89555,"SoundDuration":89555,"Delta":287797393},{"NoteNumber":85,"Velocity":37,"Duration":89555,"SoundDuration":89555,"Delta":287797393},{"NoteNumber":57,"Velocity":34,"Duration":94087,"SoundDuration":94087,"Delta":287916801},{"NoteNumber":62,"Velocity":34,"Duration":94087,"SoundDuration":94087,"Delta":287916801},{"NoteNumber":66,"Velocity":39,"Duration":94087,"SoundDuration":94087,"Delta":287916801},{"NoteNumber":69,"Velocity":33,"Duration":94087,"SoundDuration":94087,"Delta":288042250},{"NoteNumber":74,"Velocity":37,"Duration":94087,"SoundDuration":94087,"Delta":288042250},{"NoteNumber":81,"Velocity":34,"Duration":96351,"SoundDuration":96351,"Delta":288167700},{"NoteNumber":78,"Velocity":30,"Duration":96351,"SoundDuration":96351,"Delta":288167700},{"NoteNumber":90,"Velocity":49,"Duration":88276,"SoundDuration":88276,"Delta":288296168},{"NoteNumber":93,"Velocity":55,"Duration":88276,"SoundDuration":88276,"Delta":288296168},{"NoteNumber":74,"Velocity":32,"Duration":88666,"SoundDuration":88666,"Delta":288413964},{"NoteNumber":78,"Velocity":36,"Duration":88666,"SoundDuration":88666,"Delta":288413964},{"NoteNumber":76,"Velocity":27,"Duration":89062,"SoundDuration":89062,"Delta":288532261},{"NoteNumber":79,"Velocity":32,"Duration":89062,"SoundDuration":89062,"Delta":288532261},{"NoteNumber":78,"Velocity":33,"Duration":90759,"SoundDuration":90759,"Delta":288651057},{"NoteNumber":81,"Velocity":37,"Duration":90759,"SoundDuration":90759,"Delta":288651057},{"NoteNumber":79,"Velocity":27,"Duration":92040,"SoundDuration":92040,"Delta":288772299},{"NoteNumber":83,"Velocity":32,"Duration":92040,"SoundDuration":92040,"Delta":288772299},{"NoteNumber":78,"Velocity":26,"Duration":93404,"SoundDuration":93404,"Delta":288895270},{"NoteNumber":81,"Velocity":30,"Duration":93404,"SoundDuration":93404,"Delta":288895270},{"NoteNumber":74,"Velocity":36,"Duration":364714,"SoundDuration":364714,"Delta":289020068},{"NoteNumber":78,"Velocity":42,"Duration":364714,"SoundDuration":364714,"Delta":289020068},{"NoteNumber":66,"Velocity":66,"Duration":90464,"SoundDuration":90464,"Delta":289457726},{"NoteNumber":63,"Velocity":60,"Duration":90464,"SoundDuration":90464,"Delta":289457726},{"NoteNumber":50,"Velocity":51,"Duration":359537,"SoundDuration":359537,"Delta":289457726},{"NoteNumber":55,"Velocity":57,"Duration":359537,"SoundDuration":359537,"Delta":289457726},{"NoteNumber":59,"Velocity":57,"Duration":359537,"SoundDuration":359537,"Delta":289457726},{"NoteNumber":67,"Velocity":63,"Duration":89949,"SoundDuration":89949,"Delta":289578254},{"NoteNumber":64,"Velocity":57,"Duration":89949,"SoundDuration":89949,"Delta":289578254},{"NoteNumber":70,"Velocity":63,"Duration":89416,"SoundDuration":89416,"Delta":289698102},{"NoteNumber":66,"Velocity":63,"Duration":89416,"SoundDuration":89416,"Delta":289698102},{"NoteNumber":71,"Velocity":72,"Duration":88939,"SoundDuration":88939,"Delta":289817264},{"NoteNumber":67,"Velocity":72,"Duration":88939,"SoundDuration":88939,"Delta":289817264},{"NoteNumber":38,"Velocity":44,"Duration":363627,"SoundDuration":363627,"Delta":289817264},{"NoteNumber":50,"Velocity":47,"Duration":363627,"SoundDuration":363627,"Delta":289817264},{"NoteNumber":73,"Velocity":69,"Duration":88939,"SoundDuration":88939,"Delta":289935851},{"NoteNumber":70,"Velocity":61,"Duration":88939,"SoundDuration":88939,"Delta":289935851},{"NoteNumber":74,"Velocity":70,"Duration":94840,"SoundDuration":94840,"Delta":290054437},{"NoteNumber":71,"Velocity":70,"Duration":94840,"SoundDuration":94840,"Delta":290054437},{"NoteNumber":72,"Velocity":69,"Duration":88939,"SoundDuration":88939,"Delta":290180891},{"NoteNumber":75,"Velocity":79,"Duration":88939,"SoundDuration":88939,"Delta":290180891},{"NoteNumber":67,"Velocity":60,"Duration":355759,"SoundDuration":355759,"Delta":290180891},{"NoteNumber":64,"Velocity":60,"Duration":355759,"SoundDuration":355759,"Delta":290180891},{"NoteNumber":57,"Velocity":53,"Duration":355759,"SoundDuration":355759,"Delta":290180891},{"NoteNumber":76,"Velocity":69,"Duration":88939,"SoundDuration":88939,"Delta":290299478},{"NoteNumber":73,"Velocity":69,"Duration":88939,"SoundDuration":88939,"Delta":290299478},{"NoteNumber":74,"Velocity":70,"Duration":88939,"SoundDuration":88939,"Delta":290418064},{"NoteNumber":71,"Velocity":70,"Duration":88939,"SoundDuration":88939,"Delta":290418064},{"NoteNumber":73,"Velocity":69,"Duration":237173,"SoundDuration":237173,"Delta":290536651},{"NoteNumber":69,"Velocity":69,"Duration":88939,"SoundDuration":88939,"Delta":290536651},{"NoteNumber":38,"Velocity":44,"Duration":355759,"SoundDuration":355759,"Delta":290536651},{"NoteNumber":50,"Velocity":47,"Duration":355759,"SoundDuration":355759,"Delta":290536651},{"NoteNumber":68,"Velocity":66,"Duration":88939,"SoundDuration":88939,"Delta":290655237},{"NoteNumber":71,"Velocity":63,"Duration":239671,"SoundDuration":239671,"Delta":290773824},{"NoteNumber":67,"Velocity":63,"Duration":88939,"SoundDuration":88939,"Delta":290773824},{"NoteNumber":65,"Velocity":69,"Duration":90813,"SoundDuration":90813,"Delta":290892410},{"NoteNumber":50,"Velocity":35,"Duration":90813,"SoundDuration":90813,"Delta":290892410},{"NoteNumber":57,"Velocity":40,"Duration":90813,"SoundDuration":90813,"Delta":290892410},{"NoteNumber":62,"Velocity":40,"Duration":90813,"SoundDuration":90813,"Delta":290892410},{"NoteNumber":69,"Velocity":65,"Duration":90813,"SoundDuration":90813,"Delta":291013495},{"NoteNumber":66,"Velocity":59,"Duration":90813,"SoundDuration":90813,"Delta":291013495},{"NoteNumber":68,"Velocity":63,"Duration":90813,"SoundDuration":90813,"Delta":291134580},{"NoteNumber":74,"Velocity":74,"Duration":237172,"SoundDuration":237172,"Delta":291255665},{"NoteNumber":69,"Velocity":74,"Duration":88939,"SoundDuration":88939,"Delta":291255665},{"NoteNumber":62,"Velocity":49,"Duration":570711,"SoundDuration":570711,"Delta":291255665},{"NoteNumber":67,"Velocity":55,"Duration":355759,"SoundDuration":355759,"Delta":291255665},{"NoteNumber":64,"Velocity":55,"Duration":355759,"SoundDuration":355759,"Delta":291255665},{"NoteNumber":70,"Velocity":62,"Duration":237172,"SoundDuration":237172,"Delta":291374252},{"NoteNumber":73,"Velocity":66,"Duration":88939,"SoundDuration":88939,"Delta":291492838},{"NoteNumber":71,"Velocity":63,"Duration":92122,"SoundDuration":92122,"Delta":291611425},{"NoteNumber":66,"Velocity":45,"Duration":92122,"SoundDuration":92122,"Delta":291611425},{"NoteNumber":69,"Velocity":61,"Duration":92122,"SoundDuration":92122,"Delta":291734255},{"NoteNumber":71,"Velocity":59,"Duration":95201,"SoundDuration":95201,"Delta":291857085},{"NoteNumber":62,"Velocity":53,"Duration":431778,"SoundDuration":431778,"Delta":291984021},{"NoteNumber":66,"Velocity":61,"Duration":431778,"SoundDuration":431778,"Delta":291984021},{"NoteNumber":50,"Velocity":44,"Duration":323834,"SoundDuration":323834,"Delta":291984021},{"NoteNumber":59,"Velocity":49,"Duration":323834,"SoundDuration":323834,"Delta":291984021},{"NoteNumber":52,"Velocity":46,"Duration":467482,"SoundDuration":467482,"Delta":292307855},{"NoteNumber":55,"Velocity":47,"Duration":431500,"SoundDuration":431500,"Delta":292343836},{"NoteNumber":62,"Velocity":47,"Duration":395519,"SoundDuration":395519,"Delta":292379818},{"NoteNumber":78,"Velocity":60,"Duration":90464,"SoundDuration":90464,"Delta":292415799},{"NoteNumber":75,"Velocity":53,"Duration":90464,"SoundDuration":90464,"Delta":292415799},{"NoteNumber":67,"Velocity":51,"Duration":359537,"SoundDuration":359537,"Delta":292415799},{"NoteNumber":79,"Velocity":56,"Duration":89949,"SoundDuration":89949,"Delta":292536327},{"NoteNumber":76,"Velocity":51,"Duration":89949,"SoundDuration":89949,"Delta":292536327},{"NoteNumber":82,"Velocity":56,"Duration":89416,"SoundDuration":89416,"Delta":292656175},{"NoteNumber":78,"Velocity":56,"Duration":89416,"SoundDuration":89416,"Delta":292656175},{"NoteNumber":83,"Velocity":64,"Duration":88939,"SoundDuration":88939,"Delta":292775337},{"NoteNumber":79,"Velocity":64,"Duration":88939,"SoundDuration":88939,"Delta":292775337},{"NoteNumber":35,"Velocity":39,"Duration":363627,"SoundDuration":363627,"Delta":292775337},{"NoteNumber":47,"Velocity":43,"Duration":363627,"SoundDuration":363627,"Delta":292775337},{"NoteNumber":85,"Velocity":62,"Duration":88939,"SoundDuration":88939,"Delta":292893924},{"NoteNumber":82,"Velocity":53,"Duration":88939,"SoundDuration":88939,"Delta":292893924},{"NoteNumber":86,"Velocity":62,"Duration":94840,"SoundDuration":94840,"Delta":293012510},{"NoteNumber":83,"Velocity":62,"Duration":94840,"SoundDuration":94840,"Delta":293012510},{"NoteNumber":52,"Velocity":44,"Duration":450600,"SoundDuration":450600,"Delta":293044124},{"NoteNumber":55,"Velocity":44,"Duration":418986,"SoundDuration":418986,"Delta":293075737},{"NoteNumber":62,"Velocity":44,"Duration":387373,"SoundDuration":387373,"Delta":293107351},{"NoteNumber":81,"Velocity":70,"Duration":88939,"SoundDuration":88939,"Delta":293138964},{"NoteNumber":67,"Velocity":53,"Duration":355759,"SoundDuration":355759,"Delta":293138964},{"NoteNumber":86,"Velocity":62,"Duration":88939,"SoundDuration":88939,"Delta":293257551},{"NoteNumber":82,"Velocity":62,"Duration":88939,"SoundDuration":88939,"Delta":293257551},{"NoteNumber":85,"Velocity":62,"Duration":88939,"SoundDuration":88939,"Delta":293376137},{"NoteNumber":91,"Velocity":65,"Duration":237173,"SoundDuration":237173,"Delta":293494724},{"NoteNumber":86,"Velocity":59,"Duration":88939,"SoundDuration":88939,"Delta":293494724},{"NoteNumber":34,"Velocity":39,"Duration":376919,"SoundDuration":376919,"Delta":293494724},{"NoteNumber":46,"Velocity":43,"Duration":376919,"SoundDuration":376919,"Delta":293494724},{"NoteNumber":90,"Velocity":65,"Duration":88939,"SoundDuration":88939,"Delta":293613310},{"NoteNumber":94,"Velocity":65,"Duration":103046,"SoundDuration":103046,"Delta":293731897},{"NoteNumber":91,"Velocity":65,"Duration":103046,"SoundDuration":103046,"Delta":293731897},{"NoteNumber":52,"Velocity":42,"Duration":491423,"SoundDuration":491423,"Delta":293761544},{"NoteNumber":57,"Velocity":43,"Duration":454723,"SoundDuration":454723,"Delta":293798243},{"NoteNumber":61,"Velocity":43,"Duration":418023,"SoundDuration":418023,"Delta":293834943},{"NoteNumber":85,"Velocity":72,"Duration":127107,"SoundDuration":127107,"Delta":293871643},{"NoteNumber":67,"Velocity":65,"Duration":381323,"SoundDuration":381323,"Delta":293871643},{"NoteNumber":94,"Velocity":45,"Duration":127107,"SoundDuration":127107,"Delta":293998751},{"NoteNumber":91,"Velocity":56,"Duration":127107,"SoundDuration":127107,"Delta":293998751},{"NoteNumber":90,"Velocity":56,"Duration":127107,"SoundDuration":127107,"Delta":294125859},{"NoteNumber":94,"Velocity":45,"Duration":126008,"SoundDuration":126008,"Delta":294252967},{"NoteNumber":91,"Velocity":54,"Duration":126008,"SoundDuration":126008,"Delta":294252967},{"NoteNumber":33,"Velocity":54,"Duration":501888,"SoundDuration":501888,"Delta":294252967},{"NoteNumber":85,"Velocity":60,"Duration":125649,"SoundDuration":125649,"Delta":294378975},{"NoteNumber":45,"Velocity":53,"Duration":188028,"SoundDuration":188028,"Delta":294441889},{"NoteNumber":94,"Velocity":44,"Duration":125292,"SoundDuration":125292,"Delta":294504624},{"NoteNumber":91,"Velocity":53,"Duration":125292,"SoundDuration":125292,"Delta":294504624},{"NoteNumber":90,"Velocity":53,"Duration":124937,"SoundDuration":124937,"Delta":294629917},{"NoteNumber":49,"Velocity":52,"Duration":187141,"SoundDuration":187141,"Delta":294629917},{"NoteNumber":94,"Velocity":44,"Duration":124409,"SoundDuration":124409,"Delta":294754855},{"NoteNumber":91,"Velocity":53,"Duration":124409,"SoundDuration":124409,"Delta":294754855},{"NoteNumber":52,"Velocity":52,"Duration":186176,"SoundDuration":186176,"Delta":294817059},{"NoteNumber":85,"Velocity":57,"Duration":123972,"SoundDuration":123972,"Delta":294879264},{"NoteNumber":94,"Velocity":42,"Duration":123625,"SoundDuration":123625,"Delta":295003236},{"NoteNumber":91,"Velocity":50,"Duration":123625,"SoundDuration":123625,"Delta":295003236},{"NoteNumber":55,"Velocity":51,"Duration":185308,"SoundDuration":185308,"Delta":295003236},{"NoteNumber":90,"Velocity":50,"Duration":123279,"SoundDuration":123279,"Delta":295126861},{"NoteNumber":57,"Velocity":50,"Duration":184446,"SoundDuration":184446,"Delta":295188544},{"NoteNumber":94,"Velocity":43,"Duration":122850,"SoundDuration":122850,"Delta":295250141},{"NoteNumber":91,"Velocity":51,"Duration":122850,"SoundDuration":122850,"Delta":295250141},{"NoteNumber":85,"Velocity":49,"Duration":122339,"SoundDuration":122339,"Delta":295372991},{"NoteNumber":61,"Velocity":49,"Duration":183508,"SoundDuration":183508,"Delta":295372991},{"NoteNumber":94,"Velocity":36,"Duration":122339,"SoundDuration":122339,"Delta":295495330},{"NoteNumber":91,"Velocity":44,"Duration":122339,"SoundDuration":122339,"Delta":295495330},{"NoteNumber":64,"Velocity":45,"Duration":183508,"SoundDuration":183508,"Delta":295556499},{"NoteNumber":90,"Velocity":44,"Duration":122338,"SoundDuration":122338,"Delta":295617669},{"NoteNumber":94,"Velocity":36,"Duration":122339,"SoundDuration":122339,"Delta":295740008},{"NoteNumber":91,"Velocity":43,"Duration":122339,"SoundDuration":122339,"Delta":295740008},{"NoteNumber":67,"Velocity":45,"Duration":183508,"SoundDuration":183508,"Delta":295740008},{"NoteNumber":85,"Velocity":45,"Duration":122339,"SoundDuration":122339,"Delta":295862347},{"NoteNumber":73,"Velocity":44,"Duration":183508,"SoundDuration":183508,"Delta":295923516},{"NoteNumber":94,"Velocity":35,"Duration":122339,"SoundDuration":122339,"Delta":295984686},{"NoteNumber":91,"Velocity":42,"Duration":122339,"SoundDuration":122339,"Delta":295984686},{"NoteNumber":90,"Velocity":42,"Duration":124499,"SoundDuration":124499,"Delta":296107025},{"NoteNumber":76,"Velocity":44,"Duration":187505,"SoundDuration":187505,"Delta":296107025},{"NoteNumber":94,"Velocity":35,"Duration":126561,"SoundDuration":126561,"Delta":296231524},{"NoteNumber":91,"Velocity":42,"Duration":126561,"SoundDuration":126561,"Delta":296231524},{"NoteNumber":79,"Velocity":44,"Duration":192336,"SoundDuration":192336,"Delta":296294531},{"NoteNumber":85,"Velocity":44,"Duration":128781,"SoundDuration":128781,"Delta":296358085},{"NoteNumber":94,"Velocity":32,"Duration":134072,"SoundDuration":134072,"Delta":296486867},{"NoteNumber":91,"Velocity":39,"Duration":134072,"SoundDuration":134072,"Delta":296486867},{"NoteNumber":82,"Velocity":43,"Duration":402216,"SoundDuration":402216,"Delta":296486867},{"NoteNumber":90,"Velocity":39,"Duration":134072,"SoundDuration":134072,"Delta":296620939},{"NoteNumber":94,"Velocity":31,"Duration":134072,"SoundDuration":134072,"Delta":296755011},{"NoteNumber":91,"Velocity":37,"Duration":134072,"SoundDuration":134072,"Delta":296755011},{"NoteNumber":84,"Velocity":44,"Duration":127107,"SoundDuration":127107,"Delta":296889084},{"NoteNumber":52,"Velocity":40,"Duration":381323,"SoundDuration":381323,"Delta":296889084},{"NoteNumber":58,"Velocity":40,"Duration":381323,"SoundDuration":381323,"Delta":296889084},{"NoteNumber":60,"Velocity":40,"Duration":381323,"SoundDuration":381323,"Delta":296889084},{"NoteNumber":67,"Velocity":40,"Duration":381323,"SoundDuration":381323,"Delta":296889084},{"NoteNumber":94,"Velocity":31,"Duration":127107,"SoundDuration":127107,"Delta":297016191},{"NoteNumber":91,"Velocity":37,"Duration":127107,"SoundDuration":127107,"Delta":297016191},{"NoteNumber":90,"Velocity":37,"Duration":127107,"SoundDuration":127107,"Delta":297143299},{"NoteNumber":94,"Velocity":32,"Duration":127107,"SoundDuration":127107,"Delta":297270407},{"NoteNumber":91,"Velocity":39,"Duration":127107,"SoundDuration":127107,"Delta":297270407},{"NoteNumber":36,"Velocity":40,"Duration":504787,"SoundDuration":504787,"Delta":297270407},{"NoteNumber":84,"Velocity":44,"Duration":126468,"SoundDuration":126468,"Delta":297397515},{"NoteNumber":48,"Velocity":40,"Duration":189106,"SoundDuration":189106,"Delta":297460795},{"NoteNumber":94,"Velocity":30,"Duration":125918,"SoundDuration":125918,"Delta":297523983},{"NoteNumber":91,"Velocity":36,"Duration":125918,"SoundDuration":125918,"Delta":297523983},{"NoteNumber":90,"Velocity":36,"Duration":125292,"SoundDuration":125292,"Delta":297649902},{"NoteNumber":52,"Velocity":40,"Duration":187761,"SoundDuration":187761,"Delta":297649902},{"NoteNumber":94,"Velocity":31,"Duration":124673,"SoundDuration":124673,"Delta":297775195},{"NoteNumber":91,"Velocity":37,"Duration":124673,"SoundDuration":124673,"Delta":297775195},{"NoteNumber":55,"Velocity":40,"Duration":186351,"SoundDuration":186351,"Delta":297837663},{"NoteNumber":84,"Velocity":44,"Duration":124146,"SoundDuration":124146,"Delta":297899868},{"NoteNumber":94,"Velocity":31,"Duration":123538,"SoundDuration":123538,"Delta":298024015},{"NoteNumber":91,"Velocity":37,"Duration":123538,"SoundDuration":123538,"Delta":298024015},{"NoteNumber":58,"Velocity":40,"Duration":185135,"SoundDuration":185135,"Delta":298024015},{"NoteNumber":90,"Velocity":37,"Duration":123021,"SoundDuration":123021,"Delta":298147554},{"NoteNumber":60,"Velocity":40,"Duration":183849,"SoundDuration":183849,"Delta":298209150},{"NoteNumber":94,"Velocity":32,"Duration":122424,"SoundDuration":122424,"Delta":298270575},{"NoteNumber":91,"Velocity":39,"Duration":122424,"SoundDuration":122424,"Delta":298270575},{"NoteNumber":84,"Velocity":44,"Duration":121832,"SoundDuration":121832,"Delta":298393000},{"NoteNumber":64,"Velocity":40,"Duration":182748,"SoundDuration":182748,"Delta":298393000},{"NoteNumber":94,"Velocity":30,"Duration":121832,"SoundDuration":121832,"Delta":298514832},{"NoteNumber":91,"Velocity":36,"Duration":121832,"SoundDuration":121832,"Delta":298514832},{"NoteNumber":67,"Velocity":40,"Duration":182748,"SoundDuration":182748,"Delta":298575748},{"NoteNumber":90,"Velocity":36,"Duration":121832,"SoundDuration":121832,"Delta":298636664},{"NoteNumber":94,"Velocity":29,"Duration":121832,"SoundDuration":121832,"Delta":298758496},{"NoteNumber":91,"Velocity":36,"Duration":121832,"SoundDuration":121832,"Delta":298758496},{"NoteNumber":70,"Velocity":40,"Duration":182748,"SoundDuration":182748,"Delta":298758496},{"NoteNumber":84,"Velocity":42,"Duration":121832,"SoundDuration":121832,"Delta":298880329},{"NoteNumber":72,"Velocity":40,"Duration":182748,"SoundDuration":182748,"Delta":298941245},{"NoteNumber":94,"Velocity":29,"Duration":121832,"SoundDuration":121832,"Delta":299002161},{"NoteNumber":91,"Velocity":36,"Duration":121832,"SoundDuration":121832,"Delta":299002161},{"NoteNumber":90,"Velocity":35,"Duration":124587,"SoundDuration":124587,"Delta":299123993},{"NoteNumber":76,"Velocity":40,"Duration":187683,"SoundDuration":187683,"Delta":299123993},{"NoteNumber":94,"Velocity":27,"Duration":126833,"SoundDuration":126833,"Delta":299248581},{"NoteNumber":91,"Velocity":35,"Duration":126833,"SoundDuration":126833,"Delta":299248581},{"NoteNumber":79,"Velocity":40,"Duration":192991,"SoundDuration":192991,"Delta":299311677},{"NoteNumber":84,"Velocity":41,"Duration":129253,"SoundDuration":129253,"Delta":299375415},{"NoteNumber":94,"Velocity":29,"Duration":133463,"SoundDuration":133463,"Delta":299504668},{"NoteNumber":91,"Velocity":35,"Duration":133463,"SoundDuration":133463,"Delta":299504668},{"NoteNumber":82,"Velocity":40,"Duration":300293,"SoundDuration":300293,"Delta":299504668},{"NoteNumber":90,"Velocity":35,"Duration":133463,"SoundDuration":133463,"Delta":299638132},{"NoteNumber":94,"Velocity":27,"Duration":133463,"SoundDuration":133463,"Delta":299771596},{"NoteNumber":91,"Velocity":33,"Duration":133463,"SoundDuration":133463,"Delta":299771596},{"NoteNumber":51,"Velocity":36,"Duration":481421,"SoundDuration":481421,"Delta":299804962},{"NoteNumber":56,"Velocity":36,"Duration":448055,"SoundDuration":448055,"Delta":299838327},{"NoteNumber":60,"Velocity":36,"Duration":414689,"SoundDuration":414689,"Delta":299871693},{"NoteNumber":84,"Velocity":37,"Duration":127107,"SoundDuration":127107,"Delta":299905059},{"NoteNumber":66,"Velocity":36,"Duration":381323,"SoundDuration":381323,"Delta":299905059},{"NoteNumber":94,"Velocity":27,"Duration":127107,"SoundDuration":127107,"Delta":300032167},{"NoteNumber":90,"Velocity":33,"Duration":127107,"SoundDuration":127107,"Delta":300032167},{"NoteNumber":89,"Velocity":33,"Duration":127107,"SoundDuration":127107,"Delta":300159275},{"NoteNumber":94,"Velocity":27,"Duration":126560,"SoundDuration":126560,"Delta":300286383},{"NoteNumber":90,"Velocity":35,"Duration":126560,"SoundDuration":126560,"Delta":300286383},{"NoteNumber":32,"Velocity":36,"Duration":502976,"SoundDuration":502976,"Delta":300286383},{"NoteNumber":84,"Velocity":37,"Duration":126008,"SoundDuration":126008,"Delta":300412944},{"NoteNumber":44,"Velocity":36,"Duration":188474,"SoundDuration":188474,"Delta":300475948},{"NoteNumber":94,"Velocity":27,"Duration":125470,"SoundDuration":125470,"Delta":300538952},{"NoteNumber":90,"Velocity":32,"Duration":125470,"SoundDuration":125470,"Delta":300538952},{"NoteNumber":89,"Velocity":32,"Duration":124937,"SoundDuration":124937,"Delta":300664422},{"NoteNumber":48,"Velocity":36,"Duration":187141,"SoundDuration":187141,"Delta":300664422},{"NoteNumber":94,"Velocity":27,"Duration":124321,"SoundDuration":124321,"Delta":300789360},{"NoteNumber":90,"Velocity":33,"Duration":124321,"SoundDuration":124321,"Delta":300789360},{"NoteNumber":51,"Velocity":36,"Duration":185915,"SoundDuration":185915,"Delta":300851564},{"NoteNumber":84,"Velocity":37,"Duration":123798,"SoundDuration":123798,"Delta":300913681},{"NoteNumber":94,"Velocity":27,"Duration":123279,"SoundDuration":123279,"Delta":301037480},{"NoteNumber":90,"Velocity":33,"Duration":123279,"SoundDuration":123279,"Delta":301037480},{"NoteNumber":54,"Velocity":39,"Duration":184704,"SoundDuration":184704,"Delta":301037480},{"NoteNumber":89,"Velocity":33,"Duration":122764,"SoundDuration":122764,"Delta":301160759},{"NoteNumber":56,"Velocity":43,"Duration":183594,"SoundDuration":183594,"Delta":301222184},{"NoteNumber":94,"Velocity":27,"Duration":122254,"SoundDuration":122254,"Delta":301283524},{"NoteNumber":90,"Velocity":35,"Duration":122254,"SoundDuration":122254,"Delta":301283524},{"NoteNumber":84,"Velocity":37,"Duration":121664,"SoundDuration":121664,"Delta":301405779},{"NoteNumber":60,"Velocity":44,"Duration":182329,"SoundDuration":182329,"Delta":301405779},{"NoteNumber":94,"Velocity":27,"Duration":121329,"SoundDuration":121329,"Delta":301527443},{"NoteNumber":90,"Velocity":32,"Duration":121329,"SoundDuration":121329,"Delta":301527443},{"NoteNumber":63,"Velocity":42,"Duration":181994,"SoundDuration":181994,"Delta":301588108},{"NoteNumber":89,"Velocity":32,"Duration":121329,"SoundDuration":121329,"Delta":301648773},{"NoteNumber":94,"Velocity":27,"Duration":121329,"SoundDuration":121329,"Delta":301770103},{"NoteNumber":90,"Velocity":32,"Duration":121329,"SoundDuration":121329,"Delta":301770103},{"NoteNumber":66,"Velocity":39,"Duration":181994,"SoundDuration":181994,"Delta":301770103},{"NoteNumber":84,"Velocity":37,"Duration":121329,"SoundDuration":121329,"Delta":301891433},{"NoteNumber":68,"Velocity":36,"Duration":181994,"SoundDuration":181994,"Delta":301952097},{"NoteNumber":94,"Velocity":27,"Duration":121329,"SoundDuration":121329,"Delta":302012762},{"NoteNumber":90,"Velocity":33,"Duration":121329,"SoundDuration":121329,"Delta":302012762},{"NoteNumber":89,"Velocity":33,"Duration":124587,"SoundDuration":124587,"Delta":302134092},{"NoteNumber":72,"Velocity":36,"Duration":187683,"SoundDuration":187683,"Delta":302134092},{"NoteNumber":94,"Velocity":27,"Duration":126833,"SoundDuration":126833,"Delta":302258680},{"NoteNumber":90,"Velocity":33,"Duration":126833,"SoundDuration":126833,"Delta":302258680},{"NoteNumber":75,"Velocity":36,"Duration":192991,"SoundDuration":192991,"Delta":302321776},{"NoteNumber":84,"Velocity":39,"Duration":129253,"SoundDuration":129253,"Delta":302385513},{"NoteNumber":94,"Velocity":27,"Duration":133463,"SoundDuration":133463,"Delta":302514767},{"NoteNumber":90,"Velocity":35,"Duration":133463,"SoundDuration":133463,"Delta":302514767},{"NoteNumber":78,"Velocity":36,"Duration":200195,"SoundDuration":200195,"Delta":302514767},{"NoteNumber":89,"Velocity":35,"Duration":133463,"SoundDuration":133463,"Delta":302648231},{"NoteNumber":80,"Velocity":36,"Duration":200195,"SoundDuration":200195,"Delta":302714963},{"NoteNumber":94,"Velocity":27,"Duration":133463,"SoundDuration":133463,"Delta":302781695},{"NoteNumber":90,"Velocity":33,"Duration":133463,"SoundDuration":133463,"Delta":302781695},{"NoteNumber":89,"Velocity":45,"Duration":127659,"SoundDuration":127659,"Delta":302915158},{"NoteNumber":81,"Velocity":33,"Duration":127659,"SoundDuration":127659,"Delta":302915158},{"NoteNumber":93,"Velocity":51,"Duration":127199,"SoundDuration":127199,"Delta":303042818},{"NoteNumber":90,"Velocity":43,"Duration":127199,"SoundDuration":127199,"Delta":303042818},{"NoteNumber":84,"Velocity":41,"Duration":127199,"SoundDuration":127199,"Delta":303042818},{"NoteNumber":86,"Velocity":51,"Duration":126743,"SoundDuration":126743,"Delta":303170017},{"NoteNumber":78,"Velocity":34,"Duration":126743,"SoundDuration":126743,"Delta":303170017},{"NoteNumber":90,"Velocity":51,"Duration":126284,"SoundDuration":126284,"Delta":303296761},{"NoteNumber":87,"Velocity":43,"Duration":126284,"SoundDuration":126284,"Delta":303296761},{"NoteNumber":81,"Velocity":41,"Duration":126284,"SoundDuration":126284,"Delta":303296761},{"NoteNumber":83,"Velocity":51,"Duration":125828,"SoundDuration":125828,"Delta":303423045},{"NoteNumber":75,"Velocity":33,"Duration":125828,"SoundDuration":125828,"Delta":303423045},{"NoteNumber":87,"Velocity":51,"Duration":125381,"SoundDuration":125381,"Delta":303548874},{"NoteNumber":84,"Velocity":43,"Duration":125381,"SoundDuration":125381,"Delta":303548874},{"NoteNumber":78,"Velocity":41,"Duration":125381,"SoundDuration":125381,"Delta":303548874},{"NoteNumber":80,"Velocity":51,"Duration":124937,"SoundDuration":124937,"Delta":303674256},{"NoteNumber":72,"Velocity":34,"Duration":124937,"SoundDuration":124937,"Delta":303674256},{"NoteNumber":84,"Velocity":51,"Duration":124409,"SoundDuration":124409,"Delta":303799193},{"NoteNumber":81,"Velocity":43,"Duration":124409,"SoundDuration":124409,"Delta":303799193},{"NoteNumber":75,"Velocity":41,"Duration":124409,"SoundDuration":124409,"Delta":303799193},{"NoteNumber":77,"Velocity":51,"Duration":124408,"SoundDuration":124408,"Delta":303923602},{"NoteNumber":69,"Velocity":34,"Duration":124408,"SoundDuration":124408,"Delta":303923602},{"NoteNumber":81,"Velocity":51,"Duration":124409,"SoundDuration":124409,"Delta":304048011},{"NoteNumber":78,"Velocity":43,"Duration":124409,"SoundDuration":124409,"Delta":304048011},{"NoteNumber":72,"Velocity":41,"Duration":124409,"SoundDuration":124409,"Delta":304048011},{"NoteNumber":74,"Velocity":51,"Duration":124409,"SoundDuration":124409,"Delta":304172420},{"NoteNumber":66,"Velocity":34,"Duration":124409,"SoundDuration":124409,"Delta":304172420},{"NoteNumber":78,"Velocity":51,"Duration":124409,"SoundDuration":124409,"Delta":304296829},{"NoteNumber":75,"Velocity":43,"Duration":124409,"SoundDuration":124409,"Delta":304296829},{"NoteNumber":69,"Velocity":41,"Duration":124409,"SoundDuration":124409,"Delta":304296829},{"NoteNumber":71,"Velocity":51,"Duration":124409,"SoundDuration":124409,"Delta":304421238},{"NoteNumber":63,"Velocity":34,"Duration":124409,"SoundDuration":124409,"Delta":304421238},{"NoteNumber":75,"Velocity":51,"Duration":124408,"SoundDuration":124408,"Delta":304545647},{"NoteNumber":72,"Velocity":43,"Duration":124408,"SoundDuration":124408,"Delta":304545647},{"NoteNumber":66,"Velocity":41,"Duration":124408,"SoundDuration":124408,"Delta":304545647},{"NoteNumber":68,"Velocity":51,"Duration":124409,"SoundDuration":124409,"Delta":304670056},{"NoteNumber":60,"Velocity":34,"Duration":124409,"SoundDuration":124409,"Delta":304670056},{"NoteNumber":72,"Velocity":51,"Duration":124409,"SoundDuration":124409,"Delta":304794465},{"NoteNumber":69,"Velocity":43,"Duration":124409,"SoundDuration":124409,"Delta":304794465},{"NoteNumber":63,"Velocity":42,"Duration":124409,"SoundDuration":124409,"Delta":304794465},{"NoteNumber":65,"Velocity":51,"Duration":124408,"SoundDuration":124408,"Delta":304918874},{"NoteNumber":57,"Velocity":35,"Duration":124408,"SoundDuration":124408,"Delta":304918874},{"NoteNumber":70,"Velocity":51,"Duration":124409,"SoundDuration":124409,"Delta":305043283},{"NoteNumber":66,"Velocity":43,"Duration":124409,"SoundDuration":124409,"Delta":305043283},{"NoteNumber":60,"Velocity":42,"Duration":124409,"SoundDuration":124409,"Delta":305043283},{"NoteNumber":62,"Velocity":51,"Duration":124409,"SoundDuration":124409,"Delta":305167692},{"NoteNumber":54,"Velocity":33,"Duration":124409,"SoundDuration":124409,"Delta":305167692},{"NoteNumber":66,"Velocity":51,"Duration":124409,"SoundDuration":124409,"Delta":305292101},{"NoteNumber":63,"Velocity":43,"Duration":124409,"SoundDuration":124409,"Delta":305292101},{"NoteNumber":57,"Velocity":42,"Duration":124409,"SoundDuration":124409,"Delta":305292101},{"NoteNumber":59,"Velocity":51,"Duration":124409,"SoundDuration":124409,"Delta":305416510},{"NoteNumber":51,"Velocity":33,"Duration":124409,"SoundDuration":124409,"Delta":305416510},{"NoteNumber":60,"Velocity":51,"Duration":124408,"SoundDuration":124408,"Delta":305540919},{"NoteNumber":56,"Velocity":43,"Duration":124408,"SoundDuration":124408,"Delta":305540919},{"NoteNumber":54,"Velocity":42,"Duration":124408,"SoundDuration":124408,"Delta":305540919},{"NoteNumber":56,"Velocity":51,"Duration":124409,"SoundDuration":124409,"Delta":305665328},{"NoteNumber":48,"Velocity":35,"Duration":124409,"SoundDuration":124409,"Delta":305665328},{"NoteNumber":60,"Velocity":51,"Duration":124409,"SoundDuration":124409,"Delta":305789737},{"NoteNumber":57,"Velocity":43,"Duration":124409,"SoundDuration":124409,"Delta":305789737},{"NoteNumber":51,"Velocity":43,"Duration":124409,"SoundDuration":124409,"Delta":305789737},{"NoteNumber":53,"Velocity":51,"Duration":124408,"SoundDuration":124408,"Delta":305914146},{"NoteNumber":45,"Velocity":36,"Duration":124408,"SoundDuration":124408,"Delta":305914146},{"NoteNumber":57,"Velocity":51,"Duration":124409,"SoundDuration":124409,"Delta":306038555},{"NoteNumber":54,"Velocity":43,"Duration":124409,"SoundDuration":124409,"Delta":306038555},{"NoteNumber":48,"Velocity":44,"Duration":124409,"SoundDuration":124409,"Delta":306038555},{"NoteNumber":50,"Velocity":51,"Duration":124409,"SoundDuration":124409,"Delta":306162964},{"NoteNumber":42,"Velocity":36,"Duration":124409,"SoundDuration":124409,"Delta":306162964},{"NoteNumber":54,"Velocity":51,"Duration":124409,"SoundDuration":124409,"Delta":306287373},{"NoteNumber":51,"Velocity":43,"Duration":124409,"SoundDuration":124409,"Delta":306287373},{"NoteNumber":45,"Velocity":44,"Duration":124409,"SoundDuration":124409,"Delta":306287373},{"NoteNumber":47,"Velocity":51,"Duration":124409,"SoundDuration":124409,"Delta":306411782},{"NoteNumber":39,"Velocity":35,"Duration":124409,"SoundDuration":124409,"Delta":306411782},{"NoteNumber":51,"Velocity":51,"Duration":124408,"SoundDuration":124408,"Delta":306536191},{"NoteNumber":48,"Velocity":43,"Duration":124408,"SoundDuration":124408,"Delta":306536191},{"NoteNumber":42,"Velocity":44,"Duration":124408,"SoundDuration":124408,"Delta":306536191},{"NoteNumber":44,"Velocity":51,"Duration":124146,"SoundDuration":124146,"Delta":306660600},{"NoteNumber":36,"Velocity":34,"Duration":124146,"SoundDuration":124146,"Delta":306660600},{"NoteNumber":48,"Velocity":51,"Duration":125203,"SoundDuration":125203,"Delta":306784747},{"NoteNumber":45,"Velocity":43,"Duration":125203,"SoundDuration":125203,"Delta":306784747},{"NoteNumber":39,"Velocity":44,"Duration":125203,"SoundDuration":125203,"Delta":306784747},{"NoteNumber":41,"Velocity":51,"Duration":126467,"SoundDuration":126467,"Delta":306909951},{"NoteNumber":33,"Velocity":35,"Duration":126467,"SoundDuration":126467,"Delta":306909951},{"NoteNumber":46,"Velocity":51,"Duration":127568,"SoundDuration":127568,"Delta":307036419},{"NoteNumber":42,"Velocity":43,"Duration":127568,"SoundDuration":127568,"Delta":307036419},{"NoteNumber":36,"Velocity":44,"Duration":127568,"SoundDuration":127568,"Delta":307036419},{"NoteNumber":38,"Velocity":51,"Duration":128872,"SoundDuration":128872,"Delta":307163987},{"NoteNumber":30,"Velocity":34,"Duration":128872,"SoundDuration":128872,"Delta":307163987},{"NoteNumber":42,"Velocity":50,"Duration":130011,"SoundDuration":130011,"Delta":307292860},{"NoteNumber":39,"Velocity":42,"Duration":130011,"SoundDuration":130011,"Delta":307292860},{"NoteNumber":33,"Velocity":44,"Duration":130011,"SoundDuration":130011,"Delta":307292860},{"NoteNumber":32,"Velocity":30,"Duration":131073,"SoundDuration":131073,"Delta":307422872},{"NoteNumber":31,"Velocity":30,"Duration":131072,"SoundDuration":131072,"Delta":307553945},{"NoteNumber":32,"Velocity":30,"Duration":131073,"SoundDuration":131073,"Delta":307685018},{"NoteNumber":44,"Velocity":45,"Duration":786438,"SoundDuration":786438,"Delta":307816091},{"NoteNumber":32,"Velocity":31,"Duration":131073,"SoundDuration":131073,"Delta":307947164},{"NoteNumber":31,"Velocity":31,"Duration":131072,"SoundDuration":131072,"Delta":308078237},{"NoteNumber":32,"Velocity":31,"Duration":131073,"SoundDuration":131073,"Delta":308209310},{"NoteNumber":31,"Velocity":30,"Duration":131073,"SoundDuration":131073,"Delta":308340383},{"NoteNumber":32,"Velocity":30,"Duration":131073,"SoundDuration":131073,"Delta":308471456},{"NoteNumber":44,"Velocity":45,"Duration":786437,"SoundDuration":786437,"Delta":308602529},{"NoteNumber":32,"Velocity":30,"Duration":131073,"SoundDuration":131073,"Delta":308733602},{"NoteNumber":31,"Velocity":30,"Duration":131073,"SoundDuration":131073,"Delta":308864675},{"NoteNumber":32,"Velocity":30,"Duration":131073,"SoundDuration":131073,"Delta":308995748},{"NoteNumber":31,"Velocity":30,"Duration":131072,"SoundDuration":131072,"Delta":309126821},{"NoteNumber":32,"Velocity":30,"Duration":131073,"SoundDuration":131073,"Delta":309257894},{"NoteNumber":44,"Velocity":45,"Duration":786437,"SoundDuration":786437,"Delta":309388967},{"NoteNumber":32,"Velocity":30,"Duration":131073,"SoundDuration":131073,"Delta":309520040},{"NoteNumber":31,"Velocity":30,"Duration":131072,"SoundDuration":131072,"Delta":309651113},{"NoteNumber":32,"Velocity":30,"Duration":131073,"SoundDuration":131073,"Delta":309782186},{"NoteNumber":31,"Velocity":30,"Duration":131073,"SoundDuration":131073,"Delta":309913259},{"NoteNumber":32,"Velocity":30,"Duration":131072,"SoundDuration":131072,"Delta":310044332},{"NoteNumber":44,"Velocity":45,"Duration":786462,"SoundDuration":786462,"Delta":310175405},{"NoteNumber":32,"Velocity":30,"Duration":131073,"SoundDuration":131073,"Delta":310306478},{"NoteNumber":31,"Velocity":30,"Duration":131073,"SoundDuration":131073,"Delta":310437551},{"NoteNumber":60,"Velocity":56,"Duration":264410,"SoundDuration":264410,"Delta":310568624},{"NoteNumber":51,"Velocity":46,"Duration":776221,"SoundDuration":776221,"Delta":310568624},{"NoteNumber":54,"Velocity":46,"Duration":776221,"SoundDuration":776221,"Delta":310568624},{"NoteNumber":32,"Velocity":30,"Duration":132205,"SoundDuration":132205,"Delta":310568624},{"NoteNumber":31,"Velocity":30,"Duration":132205,"SoundDuration":132205,"Delta":310700829},{"NoteNumber":60,"Velocity":51,"Duration":128832,"SoundDuration":128832,"Delta":310833034},{"NoteNumber":32,"Velocity":30,"Duration":128832,"SoundDuration":128832,"Delta":310833034},{"NoteNumber":58,"Velocity":56,"Duration":95744,"SoundDuration":95744,"Delta":310961867},{"NoteNumber":44,"Velocity":45,"Duration":780840,"SoundDuration":780840,"Delta":310961867},{"NoteNumber":60,"Velocity":51,"Duration":95744,"SoundDuration":95744,"Delta":311089527},{"NoteNumber":32,"Velocity":31,"Duration":127659,"SoundDuration":127659,"Delta":311089527},{"NoteNumber":56,"Velocity":51,"Duration":63829,"SoundDuration":63829,"Delta":311217186},{"NoteNumber":31,"Velocity":31,"Duration":127659,"SoundDuration":127659,"Delta":311217186},{"NoteNumber":32,"Velocity":31,"Duration":131659,"SoundDuration":131659,"Delta":311344846},{"NoteNumber":31,"Velocity":30,"Duration":134565,"SoundDuration":134565,"Delta":311476505},{"NoteNumber":63,"Velocity":49,"Duration":131636,"SoundDuration":131636,"Delta":311611071},{"NoteNumber":32,"Velocity":30,"Duration":131636,"SoundDuration":131636,"Delta":311611071},{"NoteNumber":54,"Velocity":44,"Duration":789820,"SoundDuration":789820,"Delta":311742707},{"NoteNumber":57,"Velocity":44,"Duration":789820,"SoundDuration":789820,"Delta":311742707},{"NoteNumber":63,"Velocity":53,"Duration":263273,"SoundDuration":263273,"Delta":311742707},{"NoteNumber":44,"Velocity":46,"Duration":789820,"SoundDuration":789820,"Delta":311742707},{"NoteNumber":32,"Velocity":30,"Duration":131636,"SoundDuration":131636,"Delta":311874344},{"NoteNumber":65,"Velocity":49,"Duration":131636,"SoundDuration":131636,"Delta":312005981},{"NoteNumber":31,"Velocity":30,"Duration":131636,"SoundDuration":131636,"Delta":312005981},{"NoteNumber":63,"Velocity":54,"Duration":131636,"SoundDuration":131636,"Delta":312137618},{"NoteNumber":32,"Velocity":30,"Duration":131636,"SoundDuration":131636,"Delta":312137618},{"NoteNumber":61,"Velocity":46,"Duration":131636,"SoundDuration":131636,"Delta":312269254},{"NoteNumber":31,"Velocity":30,"Duration":131636,"SoundDuration":131636,"Delta":312269254},{"NoteNumber":60,"Velocity":46,"Duration":131636,"SoundDuration":131636,"Delta":312400891},{"NoteNumber":32,"Velocity":30,"Duration":131636,"SoundDuration":131636,"Delta":312400891},{"NoteNumber":54,"Velocity":44,"Duration":97041,"SoundDuration":97041,"Delta":312532528},{"NoteNumber":58,"Velocity":53,"Duration":97041,"SoundDuration":97041,"Delta":312532528},{"NoteNumber":44,"Velocity":45,"Duration":784336,"SoundDuration":784336,"Delta":312532528},{"NoteNumber":60,"Velocity":50,"Duration":95744,"SoundDuration":95744,"Delta":312661916},{"NoteNumber":32,"Velocity":30,"Duration":127659,"SoundDuration":127659,"Delta":312661916},{"NoteNumber":56,"Velocity":50,"Duration":63829,"SoundDuration":63829,"Delta":312789576},{"NoteNumber":31,"Velocity":30,"Duration":127659,"SoundDuration":127659,"Delta":312789576},{"NoteNumber":32,"Velocity":30,"Duration":132251,"SoundDuration":132251,"Delta":312917235},{"NoteNumber":31,"Velocity":30,"Duration":135171,"SoundDuration":135171,"Delta":313049487},{"NoteNumber":60,"Velocity":49,"Duration":132205,"SoundDuration":132205,"Delta":313184659},{"NoteNumber":32,"Velocity":30,"Duration":132205,"SoundDuration":132205,"Delta":313184659},{"NoteNumber":51,"Velocity":44,"Duration":396615,"SoundDuration":396615,"Delta":313316864},{"NoteNumber":54,"Velocity":44,"Duration":396615,"SoundDuration":396615,"Delta":313316864},{"NoteNumber":60,"Velocity":53,"Duration":264410,"SoundDuration":264410,"Delta":313316864},{"NoteNumber":44,"Velocity":45,"Duration":792087,"SoundDuration":792087,"Delta":313316864},{"NoteNumber":32,"Velocity":30,"Duration":132205,"SoundDuration":132205,"Delta":313449069},{"NoteNumber":58,"Velocity":49,"Duration":132205,"SoundDuration":132205,"Delta":313581275},{"NoteNumber":31,"Velocity":30,"Duration":132205,"SoundDuration":132205,"Delta":313581275},{"NoteNumber":52,"Velocity":44,"Duration":395471,"SoundDuration":395471,"Delta":313713480},{"NoteNumber":55,"Velocity":44,"Duration":264410,"SoundDuration":264410,"Delta":313713480},{"NoteNumber":58,"Velocity":52,"Duration":264410,"SoundDuration":264410,"Delta":313713480},{"NoteNumber":32,"Velocity":30,"Duration":132205,"SoundDuration":132205,"Delta":313713480},{"NoteNumber":31,"Velocity":30,"Duration":132205,"SoundDuration":132205,"Delta":313845685},{"NoteNumber":55,"Velocity":46,"Duration":131061,"SoundDuration":131061,"Delta":313977890},{"NoteNumber":32,"Velocity":30,"Duration":131061,"SoundDuration":131061,"Delta":313977890},{"NoteNumber":53,"Velocity":44,"Duration":96583,"SoundDuration":96583,"Delta":314108952},{"NoteNumber":56,"Velocity":52,"Duration":96583,"SoundDuration":96583,"Delta":314108952},{"NoteNumber":44,"Velocity":45,"Duration":780115,"SoundDuration":780115,"Delta":314108952},{"NoteNumber":55,"Velocity":49,"Duration":96583,"SoundDuration":96583,"Delta":314237729},{"NoteNumber":32,"Velocity":31,"Duration":128777,"SoundDuration":128777,"Delta":314237729},{"NoteNumber":53,"Velocity":49,"Duration":64388,"SoundDuration":64388,"Delta":314366507},{"NoteNumber":31,"Velocity":31,"Duration":128777,"SoundDuration":128777,"Delta":314366507},{"NoteNumber":32,"Velocity":31,"Duration":131659,"SoundDuration":131659,"Delta":314495284},{"NoteNumber":31,"Velocity":30,"Duration":131061,"SoundDuration":131061,"Delta":314626944},{"NoteNumber":60,"Velocity":46,"Duration":131061,"SoundDuration":131061,"Delta":314758006},{"NoteNumber":32,"Velocity":30,"Duration":131061,"SoundDuration":131061,"Delta":314758006},{"NoteNumber":51,"Velocity":43,"Duration":393184,"SoundDuration":393184,"Delta":314889067},{"NoteNumber":54,"Velocity":43,"Duration":393184,"SoundDuration":393184,"Delta":314889067},{"NoteNumber":60,"Velocity":51,"Duration":262123,"SoundDuration":262123,"Delta":314889067},{"NoteNumber":44,"Velocity":44,"Duration":792222,"SoundDuration":792222,"Delta":314889067},{"NoteNumber":32,"Velocity":30,"Duration":131061,"SoundDuration":131061,"Delta":315020129},{"NoteNumber":58,"Velocity":46,"Duration":131061,"SoundDuration":131061,"Delta":315151190},{"NoteNumber":31,"Velocity":30,"Duration":131061,"SoundDuration":131061,"Delta":315151190},{"NoteNumber":55,"Velocity":44,"Duration":266832,"SoundDuration":266832,"Delta":315282252},{"NoteNumber":52,"Velocity":44,"Duration":399038,"SoundDuration":399038,"Delta":315282252},{"NoteNumber":58,"Velocity":52,"Duration":266832,"SoundDuration":266832,"Delta":315282252},{"NoteNumber":32,"Velocity":30,"Duration":131061,"SoundDuration":131061,"Delta":315282252},{"NoteNumber":31,"Velocity":30,"Duration":135771,"SoundDuration":135771,"Delta":315413313},{"NoteNumber":55,"Velocity":45,"Duration":132205,"SoundDuration":132205,"Delta":315549084},{"NoteNumber":32,"Velocity":30,"Duration":132205,"SoundDuration":132205,"Delta":315549084},{"NoteNumber":56,"Velocity":53,"Duration":100482,"SoundDuration":100482,"Delta":315681290},{"NoteNumber":44,"Velocity":44,"Duration":817381,"SoundDuration":817381,"Delta":315681290},{"NoteNumber":55,"Velocity":45,"Duration":100482,"SoundDuration":100482,"Delta":315815266},{"NoteNumber":32,"Velocity":30,"Duration":133976,"SoundDuration":133976,"Delta":315815266},{"NoteNumber":53,"Velocity":45,"Duration":117138,"SoundDuration":117138,"Delta":315949243},{"NoteNumber":31,"Velocity":30,"Duration":156184,"SoundDuration":156184,"Delta":315949243},{"NoteNumber":65,"Velocity":62,"Duration":264410,"SoundDuration":264410,"Delta":316105428},{"NoteNumber":56,"Velocity":52,"Duration":779118,"SoundDuration":779118,"Delta":316105428},{"NoteNumber":59,"Velocity":52,"Duration":779118,"SoundDuration":779118,"Delta":316105428},{"NoteNumber":32,"Velocity":33,"Duration":132205,"SoundDuration":132205,"Delta":316105428},{"NoteNumber":31,"Velocity":33,"Duration":132205,"SoundDuration":132205,"Delta":316237633},{"NoteNumber":65,"Velocity":55,"Duration":128832,"SoundDuration":128832,"Delta":316369838},{"NoteNumber":32,"Velocity":33,"Duration":128832,"SoundDuration":128832,"Delta":316369838},{"NoteNumber":63,"Velocity":62,"Duration":95330,"SoundDuration":95330,"Delta":316498671},{"NoteNumber":44,"Velocity":50,"Duration":254215,"SoundDuration":254215,"Delta":316498671},{"NoteNumber":65,"Velocity":55,"Duration":95330,"SoundDuration":95330,"Delta":316625779},{"NoteNumber":43,"Velocity":34,"Duration":127107,"SoundDuration":127107,"Delta":316625779},{"NoteNumber":61,"Velocity":55,"Duration":65829,"SoundDuration":65829,"Delta":316752886},{"NoteNumber":53,"Velocity":39,"Duration":65829,"SoundDuration":65829,"Delta":316752886},{"NoteNumber":44,"Velocity":34,"Duration":131659,"SoundDuration":131659,"Delta":316752886},{"NoteNumber":51,"Velocity":34,"Duration":131659,"SoundDuration":131659,"Delta":316884546},{"NoteNumber":53,"Velocity":33,"Duration":134565,"SoundDuration":134565,"Delta":317016206},{"NoteNumber":68,"Velocity":53,"Duration":131636,"SoundDuration":131636,"Delta":317150771},{"NoteNumber":49,"Velocity":33,"Duration":131636,"SoundDuration":131636,"Delta":317150771},{"NoteNumber":59,"Velocity":47,"Duration":786961,"SoundDuration":786961,"Delta":317282408},{"NoteNumber":62,"Velocity":47,"Duration":786961,"SoundDuration":786961,"Delta":317282408},{"NoteNumber":68,"Velocity":57,"Duration":263273,"SoundDuration":263273,"Delta":317282408},{"NoteNumber":44,"Velocity":52,"Duration":131636,"SoundDuration":131636,"Delta":317282408},{"NoteNumber":43,"Velocity":33,"Duration":131636,"SoundDuration":131636,"Delta":317414045},{"NoteNumber":70,"Velocity":54,"Duration":131636,"SoundDuration":131636,"Delta":317545681},{"NoteNumber":44,"Velocity":34,"Duration":131636,"SoundDuration":131636,"Delta":317545681},{"NoteNumber":68,"Velocity":62,"Duration":131636,"SoundDuration":131636,"Delta":317677318},{"NoteNumber":32,"Velocity":34,"Duration":131636,"SoundDuration":131636,"Delta":317677318},{"NoteNumber":66,"Velocity":53,"Duration":131636,"SoundDuration":131636,"Delta":317808955},{"NoteNumber":31,"Velocity":34,"Duration":131636,"SoundDuration":131636,"Delta":317808955},{"NoteNumber":65,"Velocity":54,"Duration":128777,"SoundDuration":128777,"Delta":317940592},{"NoteNumber":32,"Velocity":35,"Duration":128777,"SoundDuration":128777,"Delta":317940592},{"NoteNumber":59,"Velocity":51,"Duration":95330,"SoundDuration":95330,"Delta":318069369},{"NoteNumber":63,"Velocity":62,"Duration":95330,"SoundDuration":95330,"Delta":318069369},{"NoteNumber":44,"Velocity":53,"Duration":127107,"SoundDuration":127107,"Delta":318069369},{"NoteNumber":65,"Velocity":59,"Duration":95744,"SoundDuration":95744,"Delta":318196477},{"NoteNumber":43,"Velocity":35,"Duration":127659,"SoundDuration":127659,"Delta":318196477},{"NoteNumber":53,"Velocity":52,"Duration":66125,"SoundDuration":66125,"Delta":318324136},{"NoteNumber":61,"Velocity":55,"Duration":66125,"SoundDuration":66125,"Delta":318324136},{"NoteNumber":44,"Velocity":36,"Duration":132251,"SoundDuration":132251,"Delta":318324136},{"NoteNumber":51,"Velocity":36,"Duration":132251,"SoundDuration":132251,"Delta":318456388},{"NoteNumber":53,"Velocity":36,"Duration":135171,"SoundDuration":135171,"Delta":318588640},{"NoteNumber":65,"Velocity":59,"Duration":132205,"SoundDuration":132205,"Delta":318723812},{"NoteNumber":49,"Velocity":36,"Duration":132205,"SoundDuration":132205,"Delta":318723812},{"NoteNumber":56,"Velocity":53,"Duration":396615,"SoundDuration":396615,"Delta":318856017},{"NoteNumber":59,"Velocity":53,"Duration":396615,"SoundDuration":396615,"Delta":318856017},{"NoteNumber":65,"Velocity":63,"Duration":264410,"SoundDuration":264410,"Delta":318856017},{"NoteNumber":44,"Velocity":55,"Duration":132205,"SoundDuration":132205,"Delta":318856017},{"NoteNumber":43,"Velocity":36,"Duration":132205,"SoundDuration":132205,"Delta":318988222},{"NoteNumber":63,"Velocity":59,"Duration":132205,"SoundDuration":132205,"Delta":319120427},{"NoteNumber":44,"Velocity":36,"Duration":132205,"SoundDuration":132205,"Delta":319120427},{"NoteNumber":57,"Velocity":52,"Duration":395471,"SoundDuration":395471,"Delta":319252633},{"NoteNumber":60,"Velocity":52,"Duration":264410,"SoundDuration":264410,"Delta":319252633},{"NoteNumber":63,"Velocity":62,"Duration":264410,"SoundDuration":264410,"Delta":319252633},{"NoteNumber":32,"Velocity":36,"Duration":132205,"SoundDuration":132205,"Delta":319252633},{"NoteNumber":31,"Velocity":36,"Duration":132205,"SoundDuration":132205,"Delta":319384838},{"NoteNumber":60,"Velocity":56,"Duration":131061,"SoundDuration":131061,"Delta":319517043},{"NoteNumber":32,"Velocity":36,"Duration":131061,"SoundDuration":131061,"Delta":319517043},{"NoteNumber":58,"Velocity":52,"Duration":95744,"SoundDuration":95744,"Delta":319648105},{"NoteNumber":61,"Velocity":62,"Duration":95744,"SoundDuration":95744,"Delta":319648105},{"NoteNumber":44,"Velocity":55,"Duration":127659,"SoundDuration":127659,"Delta":319648105},{"NoteNumber":60,"Velocity":59,"Duration":95744,"SoundDuration":95744,"Delta":319775764},{"NoteNumber":43,"Velocity":36,"Duration":127659,"SoundDuration":127659,"Delta":319775764},{"NoteNumber":58,"Velocity":59,"Duration":66125,"SoundDuration":66125,"Delta":319903424},{"NoteNumber":44,"Velocity":36,"Duration":132251,"SoundDuration":132251,"Delta":319903424},{"NoteNumber":49,"Velocity":36,"Duration":134072,"SoundDuration":134072,"Delta":320035675},{"NoteNumber":48,"Velocity":36,"Duration":131061,"SoundDuration":131061,"Delta":320169748},{"NoteNumber":65,"Velocity":56,"Duration":131061,"SoundDuration":131061,"Delta":320300809},{"NoteNumber":46,"Velocity":36,"Duration":131061,"SoundDuration":131061,"Delta":320300809},{"NoteNumber":56,"Velocity":51,"Duration":393184,"SoundDuration":393184,"Delta":320431871},{"NoteNumber":59,"Velocity":51,"Duration":393184,"SoundDuration":393184,"Delta":320431871},{"NoteNumber":65,"Velocity":62,"Duration":262123,"SoundDuration":262123,"Delta":320431871},{"NoteNumber":44,"Velocity":53,"Duration":131061,"SoundDuration":131061,"Delta":320431871},{"NoteNumber":43,"Velocity":36,"Duration":131061,"SoundDuration":131061,"Delta":320562932},{"NoteNumber":63,"Velocity":56,"Duration":131061,"SoundDuration":131061,"Delta":320693994},{"NoteNumber":44,"Velocity":36,"Duration":131061,"SoundDuration":131061,"Delta":320693994},{"NoteNumber":60,"Velocity":52,"Duration":266832,"SoundDuration":266832,"Delta":320825055},{"NoteNumber":57,"Velocity":52,"Duration":396176,"SoundDuration":396176,"Delta":320825055},{"NoteNumber":63,"Velocity":62,"Duration":266832,"SoundDuration":266832,"Delta":320825055},{"NoteNumber":32,"Velocity":36,"Duration":131061,"SoundDuration":131061,"Delta":320825055},{"NoteNumber":31,"Velocity":36,"Duration":135771,"SoundDuration":135771,"Delta":320956117},{"NoteNumber":60,"Velocity":55,"Duration":129343,"SoundDuration":129343,"Delta":321091888},{"NoteNumber":32,"Velocity":36,"Duration":129343,"SoundDuration":129343,"Delta":321091888},{"NoteNumber":61,"Velocity":63,"Duration":97007,"SoundDuration":97007,"Delta":321221232},{"NoteNumber":44,"Velocity":53,"Duration":129343,"SoundDuration":129343,"Delta":321221232},{"NoteNumber":60,"Velocity":55,"Duration":97007,"SoundDuration":97007,"Delta":321350575},{"NoteNumber":43,"Velocity":36,"Duration":129343,"SoundDuration":129343,"Delta":321350575},{"NoteNumber":58,"Velocity":55,"Duration":77671,"SoundDuration":77671,"Delta":321479919},{"NoteNumber":44,"Velocity":36,"Duration":155343,"SoundDuration":155343,"Delta":321479919},{"NoteNumber":62,"Velocity":65,"Duration":257908,"SoundDuration":257908,"Delta":321635263},{"NoteNumber":66,"Velocity":65,"Duration":257908,"SoundDuration":257908,"Delta":321635263},{"NoteNumber":71,"Velocity":65,"Duration":257908,"SoundDuration":257908,"Delta":321635263},{"NoteNumber":74,"Velocity":79,"Duration":257908,"SoundDuration":257908,"Delta":321635263},{"NoteNumber":32,"Velocity":54,"Duration":128954,"SoundDuration":128954,"Delta":321635263},{"NoteNumber":44,"Velocity":51,"Duration":128954,"SoundDuration":128954,"Delta":321764217},{"NoteNumber":62,"Velocity":59,"Duration":125659,"SoundDuration":125659,"Delta":321893172},{"NoteNumber":74,"Velocity":70,"Duration":125659,"SoundDuration":125659,"Delta":321893172},{"NoteNumber":44,"Velocity":51,"Duration":125659,"SoundDuration":125659,"Delta":321893172},{"NoteNumber":66,"Velocity":65,"Duration":386863,"SoundDuration":386863,"Delta":322018832},{"NoteNumber":61,"Velocity":65,"Duration":96715,"SoundDuration":96715,"Delta":322018832},{"NoteNumber":73,"Velocity":79,"Duration":96715,"SoundDuration":96715,"Delta":322018832},{"NoteNumber":50,"Velocity":49,"Duration":128954,"SoundDuration":128954,"Delta":322018832},{"NoteNumber":54,"Velocity":49,"Duration":128954,"SoundDuration":128954,"Delta":322018832},{"NoteNumber":59,"Velocity":55,"Duration":128954,"SoundDuration":128954,"Delta":322018832},{"NoteNumber":62,"Velocity":59,"Duration":96715,"SoundDuration":96715,"Delta":322147786},{"NoteNumber":74,"Velocity":70,"Duration":96715,"SoundDuration":96715,"Delta":322147786},{"NoteNumber":44,"Velocity":52,"Duration":128954,"SoundDuration":128954,"Delta":322147786},{"NoteNumber":59,"Velocity":59,"Duration":96715,"SoundDuration":96715,"Delta":322276741},{"NoteNumber":71,"Velocity":70,"Duration":96715,"SoundDuration":96715,"Delta":322276741},{"NoteNumber":44,"Velocity":52,"Duration":128954,"SoundDuration":128954,"Delta":322276741},{"NoteNumber":32,"Velocity":57,"Duration":128954,"SoundDuration":128954,"Delta":322405695},{"NoteNumber":44,"Velocity":53,"Duration":131256,"SoundDuration":131256,"Delta":322534650},{"NoteNumber":66,"Velocity":56,"Duration":128402,"SoundDuration":128402,"Delta":322665906},{"NoteNumber":78,"Velocity":66,"Duration":128402,"SoundDuration":128402,"Delta":322665906},{"NoteNumber":50,"Velocity":53,"Duration":128402,"SoundDuration":128402,"Delta":322665906},{"NoteNumber":66,"Velocity":61,"Duration":256805,"SoundDuration":256805,"Delta":322794309},{"NoteNumber":71,"Velocity":51,"Duration":770416,"SoundDuration":770416,"Delta":322794309},{"NoteNumber":78,"Velocity":71,"Duration":256805,"SoundDuration":256805,"Delta":322794309},{"NoteNumber":62,"Velocity":59,"Duration":128402,"SoundDuration":128402,"Delta":322794309},{"NoteNumber":59,"Velocity":59,"Duration":128402,"SoundDuration":128402,"Delta":322794309},{"NoteNumber":54,"Velocity":59,"Duration":128402,"SoundDuration":128402,"Delta":322794309},{"NoteNumber":50,"Velocity":51,"Duration":128402,"SoundDuration":128402,"Delta":322922712},{"NoteNumber":68,"Velocity":57,"Duration":128402,"SoundDuration":128402,"Delta":323051114},{"NoteNumber":80,"Velocity":69,"Duration":128402,"SoundDuration":128402,"Delta":323051114},{"NoteNumber":44,"Velocity":51,"Duration":128402,"SoundDuration":128402,"Delta":323051114},{"NoteNumber":66,"Velocity":65,"Duration":128402,"SoundDuration":128402,"Delta":323179517},{"NoteNumber":78,"Velocity":79,"Duration":128402,"SoundDuration":128402,"Delta":323179517},{"NoteNumber":32,"Velocity":54,"Duration":128402,"SoundDuration":128402,"Delta":323179517},{"NoteNumber":64,"Velocity":56,"Duration":128402,"SoundDuration":128402,"Delta":323307920},{"NoteNumber":76,"Velocity":66,"Duration":128402,"SoundDuration":128402,"Delta":323307920},{"NoteNumber":44,"Velocity":51,"Duration":128402,"SoundDuration":128402,"Delta":323307920},{"NoteNumber":62,"Velocity":56,"Duration":128402,"SoundDuration":128402,"Delta":323436323},{"NoteNumber":74,"Velocity":69,"Duration":128402,"SoundDuration":128402,"Delta":323436323},{"NoteNumber":44,"Velocity":51,"Duration":128402,"SoundDuration":128402,"Delta":323436323},{"NoteNumber":61,"Velocity":56,"Duration":94657,"SoundDuration":94657,"Delta":323564725},{"NoteNumber":73,"Velocity":76,"Duration":94657,"SoundDuration":94657,"Delta":323564725},{"NoteNumber":50,"Velocity":49,"Duration":126209,"SoundDuration":126209,"Delta":323564725},{"NoteNumber":59,"Velocity":55,"Duration":126209,"SoundDuration":126209,"Delta":323564725},{"NoteNumber":54,"Velocity":49,"Duration":126209,"SoundDuration":126209,"Delta":323564725},{"NoteNumber":62,"Velocity":56,"Duration":97141,"SoundDuration":97141,"Delta":323690935},{"NoteNumber":74,"Velocity":73,"Duration":97141,"SoundDuration":97141,"Delta":323690935},{"NoteNumber":44,"Velocity":52,"Duration":129522,"SoundDuration":129522,"Delta":323690935},{"NoteNumber":59,"Velocity":62,"Duration":97141,"SoundDuration":97141,"Delta":323820457},{"NoteNumber":71,"Velocity":74,"Duration":97141,"SoundDuration":97141,"Delta":323820457},{"NoteNumber":44,"Velocity":52,"Duration":129522,"SoundDuration":129522,"Delta":323820457},{"NoteNumber":32,"Velocity":54,"Duration":129522,"SoundDuration":129522,"Delta":323939186},{"NoteNumber":44,"Velocity":51,"Duration":131651,"SoundDuration":131651,"Delta":324068709},{"NoteNumber":62,"Velocity":62,"Duration":128954,"SoundDuration":128954,"Delta":324211347},{"NoteNumber":74,"Velocity":73,"Duration":128954,"SoundDuration":128954,"Delta":324211347},{"NoteNumber":44,"Velocity":51,"Duration":128954,"SoundDuration":128954,"Delta":324211347},{"NoteNumber":66,"Velocity":66,"Duration":386863,"SoundDuration":386863,"Delta":324340302},{"NoteNumber":71,"Velocity":66,"Duration":386863,"SoundDuration":386863,"Delta":324340302},{"NoteNumber":62,"Velocity":66,"Duration":257908,"SoundDuration":257908,"Delta":324340302},{"NoteNumber":74,"Velocity":80,"Duration":257908,"SoundDuration":257908,"Delta":324340302},{"NoteNumber":50,"Velocity":55,"Duration":128954,"SoundDuration":128954,"Delta":324340302},{"NoteNumber":54,"Velocity":55,"Duration":128954,"SoundDuration":128954,"Delta":324340302},{"NoteNumber":59,"Velocity":55,"Duration":128954,"SoundDuration":128954,"Delta":324340302},{"NoteNumber":44,"Velocity":52,"Duration":128954,"SoundDuration":128954,"Delta":324469256},{"NoteNumber":61,"Velocity":62,"Duration":128954,"SoundDuration":128954,"Delta":324598211},{"NoteNumber":73,"Velocity":73,"Duration":128954,"SoundDuration":128954,"Delta":324598211},{"NoteNumber":44,"Velocity":52,"Duration":386863,"SoundDuration":386863,"Delta":324598211},{"NoteNumber":60,"Velocity":65,"Duration":128954,"SoundDuration":128954,"Delta":324727165},{"NoteNumber":63,"Velocity":65,"Duration":128954,"SoundDuration":128954,"Delta":324727165},{"NoteNumber":68,"Velocity":65,"Duration":128954,"SoundDuration":128954,"Delta":324727165},{"NoteNumber":66,"Velocity":65,"Duration":128954,"SoundDuration":128954,"Delta":324727165},{"NoteNumber":72,"Velocity":79,"Duration":128954,"SoundDuration":128954,"Delta":324727165},{"NoteNumber":32,"Velocity":52,"Duration":257908,"SoundDuration":257908,"Delta":324727165},{"NoteNumber":48,"Velocity":71,"Duration":127833,"SoundDuration":127833,"Delta":324985074},{"NoteNumber":36,"Velocity":60,"Duration":127833,"SoundDuration":127833,"Delta":324985074},{"NoteNumber":54,"Velocity":65,"Duration":131844,"SoundDuration":131844,"Delta":325112908},{"NoteNumber":58,"Velocity":65,"Duration":131844,"SoundDuration":131844,"Delta":325112908},{"NoteNumber":60,"Velocity":65,"Duration":131844,"SoundDuration":131844,"Delta":325112908},{"NoteNumber":34,"Velocity":65,"Duration":98883,"SoundDuration":98883,"Delta":325112908},{"NoteNumber":46,"Velocity":79,"Duration":98883,"SoundDuration":98883,"Delta":325112908},{"NoteNumber":36,"Velocity":62,"Duration":98883,"SoundDuration":98883,"Delta":325244753},{"NoteNumber":48,"Velocity":73,"Duration":98883,"SoundDuration":98883,"Delta":325244753},{"NoteNumber":32,"Velocity":62,"Duration":98883,"SoundDuration":98883,"Delta":325376598},{"NoteNumber":44,"Velocity":73,"Duration":98883,"SoundDuration":98883,"Delta":325376598},{"NoteNumber":56,"Velocity":65,"Duration":131844,"SoundDuration":131844,"Delta":325508443},{"NoteNumber":60,"Velocity":65,"Duration":131844,"SoundDuration":131844,"Delta":325508443},{"NoteNumber":66,"Velocity":65,"Duration":131844,"SoundDuration":131844,"Delta":325508443},{"NoteNumber":68,"Velocity":79,"Duration":131844,"SoundDuration":131844,"Delta":325508443},{"NoteNumber":39,"Velocity":56,"Duration":128402,"SoundDuration":128402,"Delta":325772133},{"NoteNumber":51,"Velocity":66,"Duration":128402,"SoundDuration":128402,"Delta":325772133},{"NoteNumber":68,"Velocity":65,"Duration":128402,"SoundDuration":128402,"Delta":325900536},{"NoteNumber":72,"Velocity":65,"Duration":128402,"SoundDuration":128402,"Delta":325900536},{"NoteNumber":80,"Velocity":65,"Duration":128402,"SoundDuration":128402,"Delta":325900536},{"NoteNumber":78,"Velocity":65,"Duration":128402,"SoundDuration":128402,"Delta":325900536},{"NoteNumber":39,"Velocity":61,"Duration":256805,"SoundDuration":256805,"Delta":325900536},{"NoteNumber":51,"Velocity":71,"Duration":256805,"SoundDuration":256805,"Delta":325900536},{"NoteNumber":41,"Velocity":57,"Duration":128402,"SoundDuration":128402,"Delta":326157341},{"NoteNumber":53,"Velocity":69,"Duration":128402,"SoundDuration":128402,"Delta":326157341},{"NoteNumber":92,"Velocity":65,"Duration":128402,"SoundDuration":128402,"Delta":326285744},{"NoteNumber":90,"Velocity":65,"Duration":128402,"SoundDuration":128402,"Delta":326285744},{"NoteNumber":84,"Velocity":65,"Duration":128402,"SoundDuration":128402,"Delta":326285744},{"NoteNumber":80,"Velocity":65,"Duration":128402,"SoundDuration":128402,"Delta":326285744},{"NoteNumber":39,"Velocity":65,"Duration":96302,"SoundDuration":96302,"Delta":326285744},{"NoteNumber":51,"Velocity":79,"Duration":96302,"SoundDuration":96302,"Delta":326285744},{"NoteNumber":37,"Velocity":56,"Duration":96302,"SoundDuration":96302,"Delta":326414147},{"NoteNumber":49,"Velocity":66,"Duration":96302,"SoundDuration":96302,"Delta":326414147},{"NoteNumber":36,"Velocity":56,"Duration":96302,"SoundDuration":96302,"Delta":326542550},{"NoteNumber":48,"Velocity":69,"Duration":96302,"SoundDuration":96302,"Delta":326542550},{"NoteNumber":102,"Velocity":75,"Duration":126209,"SoundDuration":126209,"Delta":326670952},{"NoteNumber":104,"Velocity":75,"Duration":126209,"SoundDuration":126209,"Delta":326670952},{"NoteNumber":99,"Velocity":75,"Duration":126209,"SoundDuration":126209,"Delta":326670952},{"NoteNumber":92,"Velocity":75,"Duration":126209,"SoundDuration":126209,"Delta":326670952},{"NoteNumber":34,"Velocity":56,"Duration":94657,"SoundDuration":94657,"Delta":326670952},{"NoteNumber":46,"Velocity":76,"Duration":94657,"SoundDuration":94657,"Delta":326670952},{"NoteNumber":36,"Velocity":56,"Duration":97141,"SoundDuration":97141,"Delta":326797162},{"NoteNumber":48,"Velocity":73,"Duration":97141,"SoundDuration":97141,"Delta":326797162},{"NoteNumber":32,"Velocity":62,"Duration":104476,"SoundDuration":104476,"Delta":326926684},{"NoteNumber":44,"Velocity":74,"Duration":104476,"SoundDuration":104476,"Delta":326926684},{"NoteNumber":66,"Velocity":65,"Duration":389831,"SoundDuration":389831,"Delta":327065986},{"NoteNumber":58,"Velocity":65,"Duration":96302,"SoundDuration":96302,"Delta":327065986},{"NoteNumber":70,"Velocity":79,"Duration":96302,"SoundDuration":96302,"Delta":327065986},{"NoteNumber":60,"Velocity":56,"Duration":96302,"SoundDuration":96302,"Delta":327194389},{"NoteNumber":72,"Velocity":66,"Duration":96302,"SoundDuration":96302,"Delta":327194389},{"NoteNumber":56,"Velocity":56,"Duration":99769,"SoundDuration":99769,"Delta":327322792},{"NoteNumber":68,"Velocity":69,"Duration":99769,"SoundDuration":99769,"Delta":327322792},{"NoteNumber":54,"Velocity":65,"Duration":413492,"SoundDuration":413492,"Delta":327455818},{"NoteNumber":45,"Velocity":56,"Duration":98304,"SoundDuration":98304,"Delta":327455818},{"NoteNumber":57,"Velocity":76,"Duration":98304,"SoundDuration":98304,"Delta":327455818},{"NoteNumber":47,"Velocity":56,"Duration":98304,"SoundDuration":98304,"Delta":327586891},{"NoteNumber":59,"Velocity":73,"Duration":98304,"SoundDuration":98304,"Delta":327586891},{"NoteNumber":44,"Velocity":62,"Duration":113510,"SoundDuration":113510,"Delta":327717964},{"NoteNumber":56,"Velocity":74,"Duration":113510,"SoundDuration":113510,"Delta":327717964},{"NoteNumber":74,"Velocity":80,"Duration":257908,"SoundDuration":257908,"Delta":327869311},{"NoteNumber":78,"Velocity":80,"Duration":257908,"SoundDuration":257908,"Delta":327869311},{"NoteNumber":83,"Velocity":80,"Duration":257908,"SoundDuration":257908,"Delta":327869311},{"NoteNumber":86,"Velocity":94,"Duration":257908,"SoundDuration":257908,"Delta":327869311},{"NoteNumber":32,"Velocity":65,"Duration":128954,"SoundDuration":128954,"Delta":327869311},{"NoteNumber":44,"Velocity":62,"Duration":128954,"SoundDuration":128954,"Delta":327998265},{"NoteNumber":74,"Velocity":71,"Duration":125659,"SoundDuration":125659,"Delta":328127220},{"NoteNumber":86,"Velocity":85,"Duration":125659,"SoundDuration":125659,"Delta":328127220},{"NoteNumber":50,"Velocity":63,"Duration":383568,"SoundDuration":383568,"Delta":328127220},{"NoteNumber":78,"Velocity":80,"Duration":394620,"SoundDuration":394620,"Delta":328252879},{"NoteNumber":73,"Velocity":80,"Duration":96715,"SoundDuration":96715,"Delta":328252879},{"NoteNumber":85,"Velocity":94,"Duration":96715,"SoundDuration":96715,"Delta":328252879},{"NoteNumber":66,"Velocity":66,"Duration":257908,"SoundDuration":257908,"Delta":328252879},{"NoteNumber":54,"Velocity":66,"Duration":257908,"SoundDuration":257908,"Delta":328252879},{"NoteNumber":59,"Velocity":66,"Duration":257908,"SoundDuration":257908,"Delta":328252879},{"NoteNumber":74,"Velocity":70,"Duration":96715,"SoundDuration":96715,"Delta":328381834},{"NoteNumber":86,"Velocity":83,"Duration":96715,"SoundDuration":96715,"Delta":328381834},{"NoteNumber":71,"Velocity":70,"Duration":102533,"SoundDuration":102533,"Delta":328510788},{"NoteNumber":83,"Velocity":83,"Duration":102533,"SoundDuration":102533,"Delta":328510788},{"NoteNumber":62,"Velocity":62,"Duration":136711,"SoundDuration":136711,"Delta":328510788},{"NoteNumber":50,"Velocity":62,"Duration":136711,"SoundDuration":136711,"Delta":328510788},{"NoteNumber":54,"Velocity":70,"Duration":388613,"SoundDuration":388613,"Delta":328647500},{"NoteNumber":49,"Velocity":70,"Duration":128954,"SoundDuration":128954,"Delta":328647500},{"NoteNumber":61,"Velocity":78,"Duration":128954,"SoundDuration":128954,"Delta":328647500},{"NoteNumber":50,"Velocity":63,"Duration":131256,"SoundDuration":131256,"Delta":328776455},{"NoteNumber":62,"Velocity":71,"Duration":131256,"SoundDuration":131256,"Delta":328776455},{"NoteNumber":78,"Velocity":67,"Duration":128402,"SoundDuration":128402,"Delta":328907711},{"NoteNumber":90,"Velocity":80,"Duration":128402,"SoundDuration":128402,"Delta":328907711},{"NoteNumber":47,"Velocity":63,"Duration":128402,"SoundDuration":128402,"Delta":328907711},{"NoteNumber":59,"Velocity":71,"Duration":128402,"SoundDuration":128402,"Delta":328907711},{"NoteNumber":78,"Velocity":72,"Duration":256805,"SoundDuration":256805,"Delta":329036114},{"NoteNumber":83,"Velocity":62,"Duration":770416,"SoundDuration":770416,"Delta":329036114},{"NoteNumber":90,"Velocity":85,"Duration":256805,"SoundDuration":256805,"Delta":329036114},{"NoteNumber":59,"Velocity":70,"Duration":128402,"SoundDuration":128402,"Delta":329036114},{"NoteNumber":54,"Velocity":70,"Duration":128402,"SoundDuration":128402,"Delta":329036114},{"NoteNumber":50,"Velocity":70,"Duration":128402,"SoundDuration":128402,"Delta":329036114},{"NoteNumber":44,"Velocity":62,"Duration":128402,"SoundDuration":128402,"Delta":329164517},{"NoteNumber":80,"Velocity":69,"Duration":128402,"SoundDuration":128402,"Delta":329292919},{"NoteNumber":92,"Velocity":82,"Duration":128402,"SoundDuration":128402,"Delta":329292919},{"NoteNumber":44,"Velocity":62,"Duration":128402,"SoundDuration":128402,"Delta":329292919},{"NoteNumber":78,"Velocity":80,"Duration":128402,"SoundDuration":128402,"Delta":329421322},{"NoteNumber":90,"Velocity":94,"Duration":128402,"SoundDuration":128402,"Delta":329421322},{"NoteNumber":32,"Velocity":65,"Duration":128402,"SoundDuration":128402,"Delta":329421322},{"NoteNumber":76,"Velocity":67,"Duration":128402,"SoundDuration":128402,"Delta":329549725},{"NoteNumber":88,"Velocity":80,"Duration":128402,"SoundDuration":128402,"Delta":329549725},{"NoteNumber":44,"Velocity":62,"Duration":128402,"SoundDuration":128402,"Delta":329549725},{"NoteNumber":74,"Velocity":67,"Duration":128402,"SoundDuration":128402,"Delta":329678128},{"NoteNumber":86,"Velocity":82,"Duration":128402,"SoundDuration":128402,"Delta":329678128},{"NoteNumber":50,"Velocity":62,"Duration":384134,"SoundDuration":384134,"Delta":329678128},{"NoteNumber":78,"Velocity":80,"Duration":394377,"SoundDuration":394377,"Delta":329806530},{"NoteNumber":73,"Velocity":67,"Duration":94657,"SoundDuration":94657,"Delta":329806530},{"NoteNumber":85,"Velocity":90,"Duration":94657,"SoundDuration":94657,"Delta":329806530},{"NoteNumber":66,"Velocity":66,"Duration":255732,"SoundDuration":255732,"Delta":329806530},{"NoteNumber":54,"Velocity":66,"Duration":255732,"SoundDuration":255732,"Delta":329806530},{"NoteNumber":59,"Velocity":66,"Duration":255732,"SoundDuration":255732,"Delta":329806530},{"NoteNumber":74,"Velocity":67,"Duration":97141,"SoundDuration":97141,"Delta":329932740},{"NoteNumber":86,"Velocity":89,"Duration":97141,"SoundDuration":97141,"Delta":329932740},{"NoteNumber":71,"Velocity":74,"Duration":103983,"SoundDuration":103983,"Delta":330062262},{"NoteNumber":83,"Velocity":89,"Duration":103983,"SoundDuration":103983,"Delta":330062262},{"NoteNumber":62,"Velocity":62,"Duration":138644,"SoundDuration":138644,"Delta":330062262},{"NoteNumber":50,"Velocity":62,"Duration":138644,"SoundDuration":138644,"Delta":330062262},{"NoteNumber":54,"Velocity":70,"Duration":390322,"SoundDuration":390322,"Delta":330200907},{"NoteNumber":49,"Velocity":70,"Duration":97141,"SoundDuration":97141,"Delta":330200907},{"NoteNumber":61,"Velocity":78,"Duration":97141,"SoundDuration":97141,"Delta":330200907},{"NoteNumber":50,"Velocity":63,"Duration":98883,"SoundDuration":98883,"Delta":330330430},{"NoteNumber":62,"Velocity":71,"Duration":98883,"SoundDuration":98883,"Delta":330330430},{"NoteNumber":74,"Velocity":74,"Duration":128954,"SoundDuration":128954,"Delta":330462275},{"NoteNumber":86,"Velocity":89,"Duration":128954,"SoundDuration":128954,"Delta":330462275},{"NoteNumber":47,"Velocity":63,"Duration":96715,"SoundDuration":96715,"Delta":330462275},{"NoteNumber":59,"Velocity":71,"Duration":96715,"SoundDuration":96715,"Delta":330462275},{"NoteNumber":78,"Velocity":80,"Duration":386863,"SoundDuration":386863,"Delta":330591229},{"NoteNumber":83,"Velocity":80,"Duration":386863,"SoundDuration":386863,"Delta":330591229},{"NoteNumber":74,"Velocity":80,"Duration":257908,"SoundDuration":257908,"Delta":330591229},{"NoteNumber":86,"Velocity":95,"Duration":257908,"SoundDuration":257908,"Delta":330591229},{"NoteNumber":59,"Velocity":70,"Duration":128954,"SoundDuration":128954,"Delta":330591229},{"NoteNumber":54,"Velocity":70,"Duration":128954,"SoundDuration":128954,"Delta":330591229},{"NoteNumber":50,"Velocity":70,"Duration":128954,"SoundDuration":128954,"Delta":330591229},{"NoteNumber":44,"Velocity":62,"Duration":128954,"SoundDuration":128954,"Delta":330720184},{"NoteNumber":73,"Velocity":74,"Duration":128954,"SoundDuration":128954,"Delta":330849138},{"NoteNumber":85,"Velocity":89,"Duration":128954,"SoundDuration":128954,"Delta":330849138},{"NoteNumber":44,"Velocity":62,"Duration":257908,"SoundDuration":257908,"Delta":330849138},{"NoteNumber":84,"Velocity":89,"Duration":128954,"SoundDuration":128954,"Delta":330978093},{"NoteNumber":80,"Velocity":74,"Duration":128954,"SoundDuration":128954,"Delta":330978093},{"NoteNumber":78,"Velocity":74,"Duration":128954,"SoundDuration":128954,"Delta":330978093},{"NoteNumber":72,"Velocity":74,"Duration":128954,"SoundDuration":128954,"Delta":330978093},{"NoteNumber":75,"Velocity":74,"Duration":128954,"SoundDuration":128954,"Delta":330978093},{"NoteNumber":32,"Velocity":71,"Duration":128954,"SoundDuration":128954,"Delta":330978093},{"NoteNumber":39,"Velocity":69,"Duration":128954,"SoundDuration":128954,"Delta":331107047},{"NoteNumber":51,"Velocity":69,"Duration":128954,"SoundDuration":128954,"Delta":331107047},{"NoteNumber":60,"Velocity":71,"Duration":128954,"SoundDuration":128954,"Delta":331236002},{"NoteNumber":72,"Velocity":85,"Duration":128954,"SoundDuration":128954,"Delta":331236002},{"NoteNumber":41,"Velocity":69,"Duration":128954,"SoundDuration":128954,"Delta":331236002},{"NoteNumber":53,"Velocity":69,"Duration":128954,"SoundDuration":128954,"Delta":331236002},{"NoteNumber":63,"Velocity":73,"Duration":394000,"SoundDuration":394000,"Delta":331364956},{"NoteNumber":66,"Velocity":73,"Duration":394000,"SoundDuration":394000,"Delta":331364956},{"NoteNumber":58,"Velocity":71,"Duration":96715,"SoundDuration":96715,"Delta":331364956},{"NoteNumber":70,"Velocity":85,"Duration":96715,"SoundDuration":96715,"Delta":331364956},{"NoteNumber":42,"Velocity":76,"Duration":257908,"SoundDuration":257908,"Delta":331364956},{"NoteNumber":54,"Velocity":76,"Duration":257908,"SoundDuration":257908,"Delta":331364956},{"NoteNumber":60,"Velocity":71,"Duration":96715,"SoundDuration":96715,"Delta":331493911},{"NoteNumber":72,"Velocity":85,"Duration":96715,"SoundDuration":96715,"Delta":331493911},{"NoteNumber":56,"Velocity":71,"Duration":102068,"SoundDuration":102068,"Delta":331622865},{"NoteNumber":68,"Velocity":85,"Duration":102068,"SoundDuration":102068,"Delta":331622865},{"NoteNumber":48,"Velocity":71,"Duration":136091,"SoundDuration":136091,"Delta":331622865},{"NoteNumber":60,"Velocity":71,"Duration":136091,"SoundDuration":136091,"Delta":331622865},{"NoteNumber":80,"Velocity":80,"Duration":128954,"SoundDuration":128954,"Delta":331758957},{"NoteNumber":78,"Velocity":66,"Duration":128954,"SoundDuration":128954,"Delta":331758957},{"NoteNumber":75,"Velocity":66,"Duration":128954,"SoundDuration":128954,"Delta":331758957},{"NoteNumber":68,"Velocity":66,"Duration":128954,"SoundDuration":128954,"Delta":331758957},{"NoteNumber":51,"Velocity":69,"Duration":257908,"SoundDuration":257908,"Delta":331758957},{"NoteNumber":54,"Velocity":69,"Duration":257908,"SoundDuration":257908,"Delta":331758957},{"NoteNumber":46,"Velocity":72,"Duration":96715,"SoundDuration":96715,"Delta":331758957},{"NoteNumber":58,"Velocity":72,"Duration":96715,"SoundDuration":96715,"Delta":331758957},{"NoteNumber":48,"Velocity":66,"Duration":96715,"SoundDuration":96715,"Delta":331887911},{"NoteNumber":60,"Velocity":66,"Duration":96715,"SoundDuration":96715,"Delta":331887911},{"NoteNumber":44,"Velocity":66,"Duration":96715,"SoundDuration":96715,"Delta":332016866},{"NoteNumber":56,"Velocity":66,"Duration":96715,"SoundDuration":96715,"Delta":332016866},{"NoteNumber":92,"Velocity":80,"Duration":128954,"SoundDuration":128954,"Delta":332145820},{"NoteNumber":90,"Velocity":66,"Duration":128954,"SoundDuration":128954,"Delta":332145820},{"NoteNumber":84,"Velocity":66,"Duration":128954,"SoundDuration":128954,"Delta":332145820},{"NoteNumber":80,"Velocity":66,"Duration":128954,"SoundDuration":128954,"Delta":332145820},{"NoteNumber":51,"Velocity":79,"Duration":257908,"SoundDuration":257908,"Delta":332145820},{"NoteNumber":63,"Velocity":79,"Duration":257908,"SoundDuration":257908,"Delta":332145820},{"NoteNumber":53,"Velocity":73,"Duration":126742,"SoundDuration":126742,"Delta":332403729},{"NoteNumber":65,"Velocity":73,"Duration":126742,"SoundDuration":126742,"Delta":332403729},{"NoteNumber":102,"Velocity":66,"Duration":126742,"SoundDuration":126742,"Delta":332530472},{"NoteNumber":104,"Velocity":80,"Duration":126742,"SoundDuration":126742,"Delta":332530472},{"NoteNumber":96,"Velocity":66,"Duration":126742,"SoundDuration":126742,"Delta":332530472},{"NoteNumber":92,"Velocity":66,"Duration":126742,"SoundDuration":126742,"Delta":332530472},{"NoteNumber":51,"Velocity":80,"Duration":95057,"SoundDuration":95057,"Delta":332530472},{"NoteNumber":63,"Velocity":80,"Duration":95057,"SoundDuration":95057,"Delta":332530472},{"NoteNumber":49,"Velocity":74,"Duration":96715,"SoundDuration":96715,"Delta":332657215},{"NoteNumber":61,"Velocity":74,"Duration":96715,"SoundDuration":96715,"Delta":332657215},{"NoteNumber":48,"Velocity":74,"Duration":96715,"SoundDuration":96715,"Delta":332786169},{"NoteNumber":60,"Velocity":74,"Duration":96715,"SoundDuration":96715,"Delta":332786169},{"NoteNumber":90,"Velocity":66,"Duration":128954,"SoundDuration":128954,"Delta":332915124},{"NoteNumber":92,"Velocity":80,"Duration":128954,"SoundDuration":128954,"Delta":332915124},{"NoteNumber":87,"Velocity":66,"Duration":128954,"SoundDuration":128954,"Delta":332915124},{"NoteNumber":80,"Velocity":66,"Duration":128954,"SoundDuration":128954,"Delta":332915124},{"NoteNumber":51,"Velocity":80,"Duration":96715,"SoundDuration":96715,"Delta":332915124},{"NoteNumber":54,"Velocity":80,"Duration":96715,"SoundDuration":96715,"Delta":332915124},{"NoteNumber":46,"Velocity":80,"Duration":96715,"SoundDuration":96715,"Delta":332915124},{"NoteNumber":58,"Velocity":80,"Duration":96715,"SoundDuration":96715,"Delta":332915124},{"NoteNumber":48,"Velocity":72,"Duration":96715,"SoundDuration":96715,"Delta":333044078},{"NoteNumber":60,"Velocity":72,"Duration":96715,"SoundDuration":96715,"Delta":333044078},{"NoteNumber":44,"Velocity":72,"Duration":104263,"SoundDuration":104263,"Delta":333173033},{"NoteNumber":56,"Velocity":72,"Duration":104263,"SoundDuration":104263,"Delta":333173033},{"NoteNumber":78,"Velocity":71,"Duration":409128,"SoundDuration":409128,"Delta":333312050},{"NoteNumber":70,"Velocity":71,"Duration":102282,"SoundDuration":102282,"Delta":333312050},{"NoteNumber":82,"Velocity":80,"Duration":102282,"SoundDuration":102282,"Delta":333312050},{"NoteNumber":58,"Velocity":71,"Duration":102282,"SoundDuration":102282,"Delta":333312050},{"NoteNumber":72,"Velocity":65,"Duration":102282,"SoundDuration":102282,"Delta":333448426},{"NoteNumber":84,"Velocity":73,"Duration":102282,"SoundDuration":102282,"Delta":333448426},{"NoteNumber":60,"Velocity":65,"Duration":102282,"SoundDuration":102282,"Delta":333448426},{"NoteNumber":68,"Velocity":65,"Duration":102282,"SoundDuration":102282,"Delta":333584802},{"NoteNumber":80,"Velocity":73,"Duration":102282,"SoundDuration":102282,"Delta":333584802},{"NoteNumber":56,"Velocity":65,"Duration":102282,"SoundDuration":102282,"Delta":333584802},{"NoteNumber":57,"Velocity":75,"Duration":106898,"SoundDuration":106898,"Delta":333721178},{"NoteNumber":33,"Velocity":66,"Duration":106898,"SoundDuration":106898,"Delta":333721178},{"NoteNumber":45,"Velocity":66,"Duration":106898,"SoundDuration":106898,"Delta":333721178},{"NoteNumber":54,"Velocity":75,"Duration":425491,"SoundDuration":425491,"Delta":333721178},{"NoteNumber":59,"Velocity":67,"Duration":106898,"SoundDuration":106898,"Delta":333863710},{"NoteNumber":35,"Velocity":61,"Duration":106898,"SoundDuration":106898,"Delta":333863710},{"NoteNumber":47,"Velocity":61,"Duration":106898,"SoundDuration":106898,"Delta":333863710},{"NoteNumber":56,"Velocity":70,"Duration":106898,"SoundDuration":106898,"Delta":334006241},{"NoteNumber":32,"Velocity":62,"Duration":106898,"SoundDuration":106898,"Delta":334006241},{"NoteNumber":44,"Velocity":62,"Duration":106898,"SoundDuration":106898,"Delta":334006241},{"NoteNumber":37,"Velocity":49,"Duration":1494061,"SoundDuration":1494061,"Delta":334146670},{"NoteNumber":44,"Velocity":59,"Duration":1494061,"SoundDuration":1494061,"Delta":334146670},{"NoteNumber":60,"Velocity":44,"Duration":94237,"SoundDuration":94237,"Delta":334274338},{"NoteNumber":63,"Velocity":44,"Duration":94237,"SoundDuration":94237,"Delta":334274338},{"NoteNumber":66,"Velocity":50,"Duration":94237,"SoundDuration":94237,"Delta":334274338},{"NoteNumber":72,"Velocity":50,"Duration":94237,"SoundDuration":94237,"Delta":334274338},{"NoteNumber":61,"Velocity":53,"Duration":92828,"SoundDuration":92828,"Delta":334399722},{"NoteNumber":60,"Velocity":44,"Duration":91417,"SoundDuration":91417,"Delta":334523263},{"NoteNumber":63,"Velocity":44,"Duration":91417,"SoundDuration":91417,"Delta":334523263},{"NoteNumber":66,"Velocity":50,"Duration":91417,"SoundDuration":91417,"Delta":334523263},{"NoteNumber":72,"Velocity":50,"Duration":91417,"SoundDuration":91417,"Delta":334523263},{"NoteNumber":58,"Velocity":53,"Duration":90873,"SoundDuration":90873,"Delta":334644929},{"NoteNumber":60,"Velocity":51,"Duration":92010,"SoundDuration":92010,"Delta":334766261},{"NoteNumber":63,"Velocity":51,"Duration":92010,"SoundDuration":92010,"Delta":334766261},{"NoteNumber":66,"Velocity":57,"Duration":92010,"SoundDuration":92010,"Delta":334766261},{"NoteNumber":72,"Velocity":57,"Duration":92010,"SoundDuration":92010,"Delta":334766261},{"NoteNumber":61,"Velocity":53,"Duration":95115,"SoundDuration":95115,"Delta":334889112},{"NoteNumber":75,"Velocity":62,"Duration":87582,"SoundDuration":87582,"Delta":335016142},{"NoteNumber":66,"Velocity":55,"Duration":87582,"SoundDuration":87582,"Delta":335016142},{"NoteNumber":63,"Velocity":55,"Duration":87582,"SoundDuration":87582,"Delta":335016142},{"NoteNumber":61,"Velocity":55,"Duration":92032,"SoundDuration":92032,"Delta":335135278},{"NoteNumber":60,"Velocity":47,"Duration":92032,"SoundDuration":92032,"Delta":335257987},{"NoteNumber":63,"Velocity":47,"Duration":92032,"SoundDuration":92032,"Delta":335257987},{"NoteNumber":66,"Velocity":53,"Duration":92032,"SoundDuration":92032,"Delta":335257987},{"NoteNumber":72,"Velocity":53,"Duration":92032,"SoundDuration":92032,"Delta":335257987},{"NoteNumber":61,"Velocity":47,"Duration":92032,"SoundDuration":92032,"Delta":335380697},{"NoteNumber":60,"Velocity":41,"Duration":104359,"SoundDuration":104359,"Delta":335503406},{"NoteNumber":63,"Velocity":41,"Duration":104359,"SoundDuration":104359,"Delta":335503406},{"NoteNumber":66,"Velocity":45,"Duration":104359,"SoundDuration":104359,"Delta":335503406},{"NoteNumber":72,"Velocity":45,"Duration":104359,"SoundDuration":104359,"Delta":335503406},{"NoteNumber":37,"Velocity":49,"Duration":1500602,"SoundDuration":1500602,"Delta":335640731},{"NoteNumber":44,"Velocity":59,"Duration":1500602,"SoundDuration":1500602,"Delta":335640731},{"NoteNumber":58,"Velocity":44,"Duration":92654,"SoundDuration":92654,"Delta":335765670},{"NoteNumber":61,"Velocity":44,"Duration":92654,"SoundDuration":92654,"Delta":335765670},{"NoteNumber":65,"Velocity":50,"Duration":92654,"SoundDuration":92654,"Delta":335765670},{"NoteNumber":70,"Velocity":50,"Duration":92654,"SoundDuration":92654,"Delta":335765670},{"NoteNumber":56,"Velocity":53,"Duration":91501,"SoundDuration":91501,"Delta":335889037},{"NoteNumber":61,"Velocity":44,"Duration":90372,"SoundDuration":90372,"Delta":336010870},{"NoteNumber":65,"Velocity":44,"Duration":90372,"SoundDuration":90372,"Delta":336010870},{"NoteNumber":68,"Velocity":50,"Duration":90372,"SoundDuration":90372,"Delta":336010870},{"NoteNumber":73,"Velocity":50,"Duration":90372,"SoundDuration":90372,"Delta":336010870},{"NoteNumber":60,"Velocity":53,"Duration":89634,"SoundDuration":89634,"Delta":336131202},{"NoteNumber":61,"Velocity":44,"Duration":90371,"SoundDuration":90371,"Delta":336250796},{"NoteNumber":65,"Velocity":44,"Duration":90371,"SoundDuration":90371,"Delta":336250796},{"NoteNumber":68,"Velocity":50,"Duration":90371,"SoundDuration":90371,"Delta":336250796},{"NoteNumber":73,"Velocity":50,"Duration":90371,"SoundDuration":90371,"Delta":336250796},{"NoteNumber":57,"Velocity":53,"Duration":91206,"SoundDuration":91206,"Delta":336371375},{"NoteNumber":67,"Velocity":53,"Duration":91967,"SoundDuration":91967,"Delta":336493125},{"NoteNumber":70,"Velocity":53,"Duration":91967,"SoundDuration":91967,"Delta":336493125},{"NoteNumber":64,"Velocity":53,"Duration":91967,"SoundDuration":91967,"Delta":336493125},{"NoteNumber":58,"Velocity":46,"Duration":91967,"SoundDuration":91967,"Delta":336493125},{"NoteNumber":60,"Velocity":62,"Duration":93095,"SoundDuration":93095,"Delta":336615890},{"NoteNumber":61,"Velocity":55,"Duration":92394,"SoundDuration":92394,"Delta":336740763},{"NoteNumber":64,"Velocity":55,"Duration":92394,"SoundDuration":92394,"Delta":336740763},{"NoteNumber":67,"Velocity":62,"Duration":92394,"SoundDuration":92394,"Delta":336740763},{"NoteNumber":73,"Velocity":62,"Duration":92394,"SoundDuration":92394,"Delta":336740763},{"NoteNumber":60,"Velocity":52,"Duration":92137,"SoundDuration":92137,"Delta":336863956},{"NoteNumber":58,"Velocity":47,"Duration":115895,"SoundDuration":115895,"Delta":336986806},{"NoteNumber":64,"Velocity":47,"Duration":115895,"SoundDuration":115895,"Delta":336986806},{"NoteNumber":67,"Velocity":53,"Duration":115895,"SoundDuration":115895,"Delta":336986806},{"NoteNumber":70,"Velocity":53,"Duration":115895,"SoundDuration":115895,"Delta":336986806},{"NoteNumber":37,"Velocity":53,"Duration":1492569,"SoundDuration":1492569,"Delta":337141334},{"NoteNumber":44,"Velocity":63,"Duration":1492569,"SoundDuration":1492569,"Delta":337141334},{"NoteNumber":60,"Velocity":44,"Duration":91248,"SoundDuration":91248,"Delta":337263928},{"NoteNumber":63,"Velocity":44,"Duration":91248,"SoundDuration":91248,"Delta":337263928},{"NoteNumber":66,"Velocity":49,"Duration":91248,"SoundDuration":91248,"Delta":337263928},{"NoteNumber":72,"Velocity":54,"Duration":91248,"SoundDuration":91248,"Delta":337263928},{"NoteNumber":61,"Velocity":59,"Duration":90497,"SoundDuration":90497,"Delta":337385509},{"NoteNumber":60,"Velocity":43,"Duration":89756,"SoundDuration":89756,"Delta":337506089},{"NoteNumber":63,"Velocity":43,"Duration":89756,"SoundDuration":89756,"Delta":337506089},{"NoteNumber":66,"Velocity":47,"Duration":89756,"SoundDuration":89756,"Delta":337506089},{"NoteNumber":72,"Velocity":53,"Duration":89756,"SoundDuration":89756,"Delta":337506089},{"NoteNumber":58,"Velocity":57,"Duration":89392,"SoundDuration":89392,"Delta":337625682},{"NoteNumber":60,"Velocity":47,"Duration":90789,"SoundDuration":90789,"Delta":337745116},{"NoteNumber":63,"Velocity":47,"Duration":90789,"SoundDuration":90789,"Delta":337745116},{"NoteNumber":66,"Velocity":53,"Duration":90789,"SoundDuration":90789,"Delta":337745116},{"NoteNumber":72,"Velocity":61,"Duration":90789,"SoundDuration":90789,"Delta":337745116},{"NoteNumber":61,"Velocity":59,"Duration":97436,"SoundDuration":97436,"Delta":337866448},{"NoteNumber":75,"Velocity":62,"Duration":95723,"SoundDuration":95723,"Delta":337996363},{"NoteNumber":66,"Velocity":49,"Duration":95723,"SoundDuration":95723,"Delta":337996363},{"NoteNumber":63,"Velocity":49,"Duration":95723,"SoundDuration":95723,"Delta":337996363},{"NoteNumber":61,"Velocity":62,"Duration":92032,"SoundDuration":92032,"Delta":338123638},{"NoteNumber":60,"Velocity":42,"Duration":87385,"SoundDuration":87385,"Delta":338246348},{"NoteNumber":63,"Velocity":42,"Duration":87385,"SoundDuration":87385,"Delta":338246348},{"NoteNumber":66,"Velocity":46,"Duration":87385,"SoundDuration":87385,"Delta":338246348},{"NoteNumber":72,"Velocity":53,"Duration":87385,"SoundDuration":87385,"Delta":338246348},{"NoteNumber":61,"Velocity":53,"Duration":87385,"SoundDuration":87385,"Delta":338362862},{"NoteNumber":60,"Velocity":40,"Duration":115895,"SoundDuration":115895,"Delta":338479376},{"NoteNumber":63,"Velocity":40,"Duration":115895,"SoundDuration":115895,"Delta":338479376},{"NoteNumber":66,"Velocity":44,"Duration":115895,"SoundDuration":115895,"Delta":338479376},{"NoteNumber":72,"Velocity":50,"Duration":115895,"SoundDuration":115895,"Delta":338479376},{"NoteNumber":37,"Velocity":53,"Duration":1496408,"SoundDuration":1496408,"Delta":338633903},{"NoteNumber":44,"Velocity":63,"Duration":1496408,"SoundDuration":1496408,"Delta":338633903},{"NoteNumber":58,"Velocity":44,"Duration":92009,"SoundDuration":92009,"Delta":338757529},{"NoteNumber":61,"Velocity":44,"Duration":92009,"SoundDuration":92009,"Delta":338757529},{"NoteNumber":65,"Velocity":49,"Duration":92009,"SoundDuration":92009,"Delta":338757529},{"NoteNumber":70,"Velocity":54,"Duration":92009,"SoundDuration":92009,"Delta":338757529},{"NoteNumber":56,"Velocity":59,"Duration":91248,"SoundDuration":91248,"Delta":338880123},{"NoteNumber":61,"Velocity":43,"Duration":90497,"SoundDuration":90497,"Delta":339001704},{"NoteNumber":65,"Velocity":43,"Duration":90497,"SoundDuration":90497,"Delta":339001704},{"NoteNumber":68,"Velocity":53,"Duration":90497,"SoundDuration":90497,"Delta":339001704},{"NoteNumber":73,"Velocity":53,"Duration":90497,"SoundDuration":90497,"Delta":339001704},{"NoteNumber":60,"Velocity":57,"Duration":90000,"SoundDuration":90000,"Delta":339122283},{"NoteNumber":61,"Velocity":43,"Duration":91039,"SoundDuration":91039,"Delta":339242449},{"NoteNumber":65,"Velocity":43,"Duration":91039,"SoundDuration":91039,"Delta":339242449},{"NoteNumber":68,"Velocity":47,"Duration":91039,"SoundDuration":91039,"Delta":339242449},{"NoteNumber":73,"Velocity":53,"Duration":91039,"SoundDuration":91039,"Delta":339242449},{"NoteNumber":57,"Velocity":59,"Duration":92010,"SoundDuration":92010,"Delta":339364032},{"NoteNumber":64,"Velocity":44,"Duration":93176,"SoundDuration":93176,"Delta":339486883},{"NoteNumber":67,"Velocity":49,"Duration":93176,"SoundDuration":93176,"Delta":339486883},{"NoteNumber":70,"Velocity":54,"Duration":93176,"SoundDuration":93176,"Delta":339486883},{"NoteNumber":58,"Velocity":44,"Duration":93176,"SoundDuration":93176,"Delta":339486883},{"NoteNumber":60,"Velocity":61,"Duration":94920,"SoundDuration":94920,"Delta":339611294},{"NoteNumber":61,"Velocity":52,"Duration":92394,"SoundDuration":92394,"Delta":339737855},{"NoteNumber":65,"Velocity":52,"Duration":92394,"SoundDuration":92394,"Delta":339737855},{"NoteNumber":73,"Velocity":65,"Duration":92394,"SoundDuration":92394,"Delta":339737855},{"NoteNumber":60,"Velocity":56,"Duration":92394,"SoundDuration":92394,"Delta":339861048},{"NoteNumber":58,"Velocity":44,"Duration":109553,"SoundDuration":109553,"Delta":339984241},{"NoteNumber":66,"Velocity":49,"Duration":109553,"SoundDuration":109553,"Delta":339984241},{"NoteNumber":70,"Velocity":54,"Duration":109553,"SoundDuration":109553,"Delta":339984241},{"NoteNumber":56,"Velocity":62,"Duration":1460320,"SoundDuration":1460320,"Delta":340130312},{"NoteNumber":49,"Velocity":62,"Duration":1460320,"SoundDuration":1460320,"Delta":340130312},{"NoteNumber":59,"Velocity":73,"Duration":1460320,"SoundDuration":1460320,"Delta":340130312},{"NoteNumber":65,"Velocity":49,"Duration":89756,"SoundDuration":89756,"Delta":340250558},{"NoteNumber":68,"Velocity":49,"Duration":89756,"SoundDuration":89756,"Delta":340250558},{"NoteNumber":71,"Velocity":56,"Duration":89756,"SoundDuration":89756,"Delta":340250558},{"NoteNumber":77,"Velocity":63,"Duration":89756,"SoundDuration":89756,"Delta":340250558},{"NoteNumber":66,"Velocity":66,"Duration":89312,"SoundDuration":89312,"Delta":340370151},{"NoteNumber":77,"Velocity":63,"Duration":88752,"SoundDuration":88752,"Delta":340489181},{"NoteNumber":65,"Velocity":47,"Duration":88752,"SoundDuration":88752,"Delta":340489181},{"NoteNumber":68,"Velocity":47,"Duration":88752,"SoundDuration":88752,"Delta":340489181},{"NoteNumber":71,"Velocity":54,"Duration":88752,"SoundDuration":88752,"Delta":340489181},{"NoteNumber":63,"Velocity":66,"Duration":88912,"SoundDuration":88912,"Delta":340608130},{"NoteNumber":65,"Velocity":53,"Duration":89919,"SoundDuration":89919,"Delta":340726839},{"NoteNumber":68,"Velocity":53,"Duration":89919,"SoundDuration":89919,"Delta":340726839},{"NoteNumber":71,"Velocity":61,"Duration":89919,"SoundDuration":89919,"Delta":340726839},{"NoteNumber":77,"Velocity":67,"Duration":89919,"SoundDuration":89919,"Delta":340726839},{"NoteNumber":66,"Velocity":67,"Duration":97436,"SoundDuration":97436,"Delta":340846924},{"NoteNumber":80,"Velocity":74,"Duration":87732,"SoundDuration":87732,"Delta":340976839},{"NoteNumber":71,"Velocity":65,"Duration":87732,"SoundDuration":87732,"Delta":340976839},{"NoteNumber":68,"Velocity":60,"Duration":87732,"SoundDuration":87732,"Delta":340976839},{"NoteNumber":66,"Velocity":70,"Duration":92032,"SoundDuration":92032,"Delta":341093817},{"NoteNumber":65,"Velocity":52,"Duration":89877,"SoundDuration":89877,"Delta":341216526},{"NoteNumber":68,"Velocity":52,"Duration":89877,"SoundDuration":89877,"Delta":341216526},{"NoteNumber":71,"Velocity":57,"Duration":89877,"SoundDuration":89877,"Delta":341216526},{"NoteNumber":77,"Velocity":64,"Duration":89877,"SoundDuration":89877,"Delta":341216526},{"NoteNumber":66,"Velocity":62,"Duration":89877,"SoundDuration":89877,"Delta":341336363},{"NoteNumber":65,"Velocity":45,"Duration":100824,"SoundDuration":100824,"Delta":341456200},{"NoteNumber":68,"Velocity":45,"Duration":100824,"SoundDuration":100824,"Delta":341456200},{"NoteNumber":71,"Velocity":51,"Duration":100824,"SoundDuration":100824,"Delta":341456200},{"NoteNumber":77,"Velocity":57,"Duration":100824,"SoundDuration":100824,"Delta":341456200},{"NoteNumber":49,"Velocity":62,"Duration":1462256,"SoundDuration":1462256,"Delta":341590633},{"NoteNumber":54,"Velocity":62,"Duration":1462256,"SoundDuration":1462256,"Delta":341590633},{"NoteNumber":58,"Velocity":73,"Duration":1462256,"SoundDuration":1462256,"Delta":341590633},{"NoteNumber":63,"Velocity":49,"Duration":90372,"SoundDuration":90372,"Delta":341712131},{"NoteNumber":66,"Velocity":49,"Duration":90372,"SoundDuration":90372,"Delta":341712131},{"NoteNumber":70,"Velocity":56,"Duration":90372,"SoundDuration":90372,"Delta":341712131},{"NoteNumber":75,"Velocity":63,"Duration":90372,"SoundDuration":90372,"Delta":341712131},{"NoteNumber":61,"Velocity":66,"Duration":89473,"SoundDuration":89473,"Delta":341832463},{"NoteNumber":66,"Velocity":47,"Duration":88594,"SoundDuration":88594,"Delta":341951653},{"NoteNumber":70,"Velocity":47,"Duration":88594,"SoundDuration":88594,"Delta":341951653},{"NoteNumber":73,"Velocity":54,"Duration":88594,"SoundDuration":88594,"Delta":341951653},{"NoteNumber":78,"Velocity":62,"Duration":88594,"SoundDuration":88594,"Delta":341951653},{"NoteNumber":65,"Velocity":65,"Duration":87849,"SoundDuration":87849,"Delta":342069648},{"NoteNumber":66,"Velocity":47,"Duration":88397,"SoundDuration":88397,"Delta":342186859},{"NoteNumber":70,"Velocity":47,"Duration":88397,"SoundDuration":88397,"Delta":342186859},{"NoteNumber":73,"Velocity":54,"Duration":88397,"SoundDuration":88397,"Delta":342186859},{"NoteNumber":78,"Velocity":62,"Duration":88397,"SoundDuration":88397,"Delta":342186859},{"NoteNumber":62,"Velocity":66,"Duration":89271,"SoundDuration":89271,"Delta":342304854},{"NoteNumber":66,"Velocity":49,"Duration":90000,"SoundDuration":90000,"Delta":342423964},{"NoteNumber":70,"Velocity":56,"Duration":90000,"SoundDuration":90000,"Delta":342423964},{"NoteNumber":75,"Velocity":63,"Duration":90000,"SoundDuration":90000,"Delta":342423964},{"NoteNumber":63,"Velocity":49,"Duration":90000,"SoundDuration":90000,"Delta":342423964},{"NoteNumber":65,"Velocity":74,"Duration":92913,"SoundDuration":92913,"Delta":342544130},{"NoteNumber":66,"Velocity":62,"Duration":92394,"SoundDuration":92394,"Delta":342668015},{"NoteNumber":70,"Velocity":62,"Duration":92394,"SoundDuration":92394,"Delta":342668015},{"NoteNumber":78,"Velocity":79,"Duration":92394,"SoundDuration":92394,"Delta":342668015},{"NoteNumber":65,"Velocity":64,"Duration":89877,"SoundDuration":89877,"Delta":342791208},{"NoteNumber":66,"Velocity":49,"Duration":106382,"SoundDuration":106382,"Delta":342911045},{"NoteNumber":63,"Velocity":49,"Duration":106382,"SoundDuration":106382,"Delta":342911045},{"NoteNumber":70,"Velocity":56,"Duration":106382,"SoundDuration":106382,"Delta":342911045},{"NoteNumber":75,"Velocity":63,"Duration":106382,"SoundDuration":106382,"Delta":342911045},{"NoteNumber":52,"Velocity":67,"Duration":1470162,"SoundDuration":1470162,"Delta":343052889},{"NoteNumber":49,"Velocity":67,"Duration":1470162,"SoundDuration":1470162,"Delta":343052889},{"NoteNumber":58,"Velocity":81,"Duration":1470162,"SoundDuration":1470162,"Delta":343052889},{"NoteNumber":67,"Velocity":54,"Duration":90413,"SoundDuration":90413,"Delta":343174470},{"NoteNumber":70,"Velocity":54,"Duration":90413,"SoundDuration":90413,"Delta":343174470},{"NoteNumber":73,"Velocity":62,"Duration":90413,"SoundDuration":90413,"Delta":343174470},{"NoteNumber":79,"Velocity":69,"Duration":90413,"SoundDuration":90413,"Delta":343174470},{"NoteNumber":68,"Velocity":73,"Duration":89553,"SoundDuration":89553,"Delta":343294883},{"NoteNumber":79,"Velocity":70,"Duration":88673,"SoundDuration":88673,"Delta":343414154},{"NoteNumber":67,"Velocity":53,"Duration":88673,"SoundDuration":88673,"Delta":343414154},{"NoteNumber":70,"Velocity":53,"Duration":88673,"SoundDuration":88673,"Delta":343414154},{"NoteNumber":73,"Velocity":60,"Duration":88673,"SoundDuration":88673,"Delta":343414154},{"NoteNumber":65,"Velocity":73,"Duration":88319,"SoundDuration":88319,"Delta":343532229},{"NoteNumber":67,"Velocity":61,"Duration":89392,"SoundDuration":89392,"Delta":343650145},{"NoteNumber":70,"Velocity":61,"Duration":89392,"SoundDuration":89392,"Delta":343650145},{"NoteNumber":73,"Velocity":66,"Duration":89392,"SoundDuration":89392,"Delta":343650145},{"NoteNumber":79,"Velocity":75,"Duration":89392,"SoundDuration":89392,"Delta":343650145},{"NoteNumber":68,"Velocity":74,"Duration":97436,"SoundDuration":97436,"Delta":343769579},{"NoteNumber":82,"Velocity":81,"Duration":89444,"SoundDuration":89444,"Delta":343899494},{"NoteNumber":73,"Velocity":72,"Duration":89444,"SoundDuration":89444,"Delta":343899494},{"NoteNumber":70,"Velocity":63,"Duration":89444,"SoundDuration":89444,"Delta":343899494},{"NoteNumber":68,"Velocity":77,"Duration":92032,"SoundDuration":92032,"Delta":344020490},{"NoteNumber":67,"Velocity":62,"Duration":92032,"SoundDuration":92032,"Delta":344143200},{"NoteNumber":70,"Velocity":62,"Duration":92032,"SoundDuration":92032,"Delta":344143200},{"NoteNumber":73,"Velocity":69,"Duration":92032,"SoundDuration":92032,"Delta":344143200},{"NoteNumber":79,"Velocity":77,"Duration":92032,"SoundDuration":92032,"Delta":344143200},{"NoteNumber":68,"Velocity":66,"Duration":92032,"SoundDuration":92032,"Delta":344265909},{"NoteNumber":67,"Velocity":53,"Duration":100824,"SoundDuration":100824,"Delta":344388619},{"NoteNumber":70,"Velocity":53,"Duration":100824,"SoundDuration":100824,"Delta":344388619},{"NoteNumber":73,"Velocity":60,"Duration":100824,"SoundDuration":100824,"Delta":344388619},{"NoteNumber":79,"Velocity":66,"Duration":100824,"SoundDuration":100824,"Delta":344388619},{"NoteNumber":49,"Velocity":71,"Duration":1474862,"SoundDuration":1474862,"Delta":344523052},{"NoteNumber":53,"Velocity":71,"Duration":1474862,"SoundDuration":1474862,"Delta":344523052},{"NoteNumber":58,"Velocity":84,"Duration":1474862,"SoundDuration":1474862,"Delta":344523052},{"NoteNumber":65,"Velocity":60,"Duration":90747,"SoundDuration":90747,"Delta":344645392},{"NoteNumber":70,"Velocity":60,"Duration":90747,"SoundDuration":90747,"Delta":344645392},{"NoteNumber":73,"Velocity":66,"Duration":90747,"SoundDuration":90747,"Delta":344645392},{"NoteNumber":77,"Velocity":75,"Duration":90747,"SoundDuration":90747,"Delta":344645392},{"NoteNumber":64,"Velocity":79,"Duration":89634,"SoundDuration":89634,"Delta":344766221},{"NoteNumber":68,"Velocity":56,"Duration":88555,"SoundDuration":88555,"Delta":344885573},{"NoteNumber":70,"Velocity":56,"Duration":88555,"SoundDuration":88555,"Delta":344885573},{"NoteNumber":73,"Velocity":63,"Duration":88555,"SoundDuration":88555,"Delta":344885573},{"NoteNumber":80,"Velocity":71,"Duration":88555,"SoundDuration":88555,"Delta":344885573},{"NoteNumber":67,"Velocity":73,"Duration":87578,"SoundDuration":87578,"Delta":345003490},{"NoteNumber":68,"Velocity":56,"Duration":88595,"SoundDuration":88595,"Delta":345120391},{"NoteNumber":70,"Velocity":56,"Duration":88595,"SoundDuration":88595,"Delta":345120391},{"NoteNumber":73,"Velocity":63,"Duration":88595,"SoundDuration":88595,"Delta":345120391},{"NoteNumber":80,"Velocity":71,"Duration":88595,"SoundDuration":88595,"Delta":345120391},{"NoteNumber":64,"Velocity":81,"Duration":89838,"SoundDuration":89838,"Delta":345238703},{"NoteNumber":70,"Velocity":60,"Duration":91082,"SoundDuration":91082,"Delta":345358708},{"NoteNumber":73,"Velocity":66,"Duration":91082,"SoundDuration":91082,"Delta":345358708},{"NoteNumber":77,"Velocity":75,"Duration":91082,"SoundDuration":91082,"Delta":345358708},{"NoteNumber":66,"Velocity":60,"Duration":91082,"SoundDuration":91082,"Delta":345358708},{"NoteNumber":67,"Velocity":81,"Duration":95826,"SoundDuration":95826,"Delta":345481279},{"NoteNumber":70,"Velocity":63,"Duration":95826,"SoundDuration":95826,"Delta":345609047},{"NoteNumber":68,"Velocity":63,"Duration":95826,"SoundDuration":95826,"Delta":345609047},{"NoteNumber":73,"Velocity":79,"Duration":95826,"SoundDuration":95826,"Delta":345609047},{"NoteNumber":80,"Velocity":79,"Duration":95826,"SoundDuration":95826,"Delta":345609047},{"NoteNumber":68,"Velocity":75,"Duration":95826,"SoundDuration":95826,"Delta":345736816},{"NoteNumber":70,"Velocity":65,"Duration":101948,"SoundDuration":101948,"Delta":345864584},{"NoteNumber":65,"Velocity":65,"Duration":101948,"SoundDuration":101948,"Delta":345864584},{"NoteNumber":73,"Velocity":74,"Duration":101948,"SoundDuration":101948,"Delta":345864584},{"NoteNumber":77,"Velocity":83,"Duration":101948,"SoundDuration":101948,"Delta":345864584},{"NoteNumber":49,"Velocity":70,"Duration":1451558,"SoundDuration":1451558,"Delta":345997915},{"NoteNumber":55,"Velocity":70,"Duration":1451558,"SoundDuration":1451558,"Delta":345997915},{"NoteNumber":58,"Velocity":70,"Duration":1451558,"SoundDuration":1451558,"Delta":345997915},{"NoteNumber":63,"Velocity":84,"Duration":1451558,"SoundDuration":1451558,"Delta":345997915},{"NoteNumber":75,"Velocity":59,"Duration":89191,"SoundDuration":89191,"Delta":346117834},{"NoteNumber":79,"Velocity":59,"Duration":89191,"SoundDuration":89191,"Delta":346117834},{"NoteNumber":82,"Velocity":65,"Duration":89191,"SoundDuration":89191,"Delta":346117834},{"NoteNumber":87,"Velocity":73,"Duration":89191,"SoundDuration":89191,"Delta":346117834},{"NoteNumber":67,"Velocity":60,"Duration":88318,"SoundDuration":88318,"Delta":346236623},{"NoteNumber":70,"Velocity":60,"Duration":88318,"SoundDuration":88318,"Delta":346236623},{"NoteNumber":76,"Velocity":69,"Duration":88318,"SoundDuration":88318,"Delta":346236623},{"NoteNumber":75,"Velocity":59,"Duration":87539,"SoundDuration":87539,"Delta":346354303},{"NoteNumber":79,"Velocity":59,"Duration":87539,"SoundDuration":87539,"Delta":346354303},{"NoteNumber":82,"Velocity":65,"Duration":87539,"SoundDuration":87539,"Delta":346354303},{"NoteNumber":87,"Velocity":73,"Duration":87539,"SoundDuration":87539,"Delta":346354303},{"NoteNumber":67,"Velocity":60,"Duration":86774,"SoundDuration":86774,"Delta":346470895},{"NoteNumber":70,"Velocity":60,"Duration":86774,"SoundDuration":86774,"Delta":346470895},{"NoteNumber":73,"Velocity":67,"Duration":86774,"SoundDuration":86774,"Delta":346470895},{"NoteNumber":75,"Velocity":66,"Duration":86698,"SoundDuration":86698,"Delta":346586569},{"NoteNumber":79,"Velocity":66,"Duration":86698,"SoundDuration":86698,"Delta":346586569},{"NoteNumber":82,"Velocity":75,"Duration":86698,"SoundDuration":86698,"Delta":346586569},{"NoteNumber":87,"Velocity":84,"Duration":86698,"SoundDuration":86698,"Delta":346586569},{"NoteNumber":67,"Velocity":60,"Duration":96161,"SoundDuration":96161,"Delta":346704649},{"NoteNumber":70,"Velocity":60,"Duration":96161,"SoundDuration":96161,"Delta":346704649},{"NoteNumber":76,"Velocity":69,"Duration":96161,"SoundDuration":96161,"Delta":346704649},{"NoteNumber":85,"Velocity":64,"Duration":87582,"SoundDuration":87582,"Delta":346832865},{"NoteNumber":90,"Velocity":81,"Duration":87582,"SoundDuration":87582,"Delta":346832865},{"NoteNumber":82,"Velocity":64,"Duration":87582,"SoundDuration":87582,"Delta":346832865},{"NoteNumber":78,"Velocity":64,"Duration":87582,"SoundDuration":87582,"Delta":346832865},{"NoteNumber":67,"Velocity":60,"Duration":92032,"SoundDuration":92032,"Delta":346952000},{"NoteNumber":70,"Velocity":60,"Duration":92032,"SoundDuration":92032,"Delta":346952000},{"NoteNumber":76,"Velocity":71,"Duration":92032,"SoundDuration":92032,"Delta":346952000},{"NoteNumber":75,"Velocity":63,"Duration":92032,"SoundDuration":92032,"Delta":347074710},{"NoteNumber":79,"Velocity":63,"Duration":92032,"SoundDuration":92032,"Delta":347074710},{"NoteNumber":82,"Velocity":70,"Duration":92032,"SoundDuration":92032,"Delta":347074710},{"NoteNumber":87,"Velocity":80,"Duration":92032,"SoundDuration":92032,"Delta":347074710},{"NoteNumber":67,"Velocity":60,"Duration":92032,"SoundDuration":92032,"Delta":347197419},{"NoteNumber":70,"Velocity":60,"Duration":92032,"SoundDuration":92032,"Delta":347197419},{"NoteNumber":76,"Velocity":62,"Duration":92032,"SoundDuration":92032,"Delta":347197419},{"NoteNumber":75,"Velocity":53,"Duration":97007,"SoundDuration":97007,"Delta":347320129},{"NoteNumber":79,"Velocity":53,"Duration":97007,"SoundDuration":97007,"Delta":347320129},{"NoteNumber":82,"Velocity":61,"Duration":97007,"SoundDuration":97007,"Delta":347320129},{"NoteNumber":87,"Velocity":66,"Duration":97007,"SoundDuration":97007,"Delta":347320129},{"NoteNumber":49,"Velocity":70,"Duration":1436433,"SoundDuration":1436433,"Delta":347449473},{"NoteNumber":54,"Velocity":70,"Duration":1436433,"SoundDuration":1436433,"Delta":347449473},{"NoteNumber":58,"Velocity":70,"Duration":1436433,"SoundDuration":1436433,"Delta":347449473},{"NoteNumber":64,"Velocity":84,"Duration":1436433,"SoundDuration":1436433,"Delta":347449473},{"NoteNumber":73,"Velocity":59,"Duration":89392,"SoundDuration":89392,"Delta":347569555},{"NoteNumber":78,"Velocity":59,"Duration":89392,"SoundDuration":89392,"Delta":347569555},{"NoteNumber":82,"Velocity":65,"Duration":89392,"SoundDuration":89392,"Delta":347569555},{"NoteNumber":85,"Velocity":73,"Duration":89392,"SoundDuration":89392,"Delta":347569555},{"NoteNumber":66,"Velocity":60,"Duration":88594,"SoundDuration":88594,"Delta":347688664},{"NoteNumber":70,"Velocity":60,"Duration":88594,"SoundDuration":88594,"Delta":347688664},{"NoteNumber":72,"Velocity":69,"Duration":88594,"SoundDuration":88594,"Delta":347688664},{"NoteNumber":76,"Velocity":59,"Duration":87888,"SoundDuration":87888,"Delta":347806659},{"NoteNumber":82,"Velocity":59,"Duration":87888,"SoundDuration":87888,"Delta":347806659},{"NoteNumber":85,"Velocity":65,"Duration":87888,"SoundDuration":87888,"Delta":347806659},{"NoteNumber":88,"Velocity":73,"Duration":87888,"SoundDuration":87888,"Delta":347806659},{"NoteNumber":66,"Velocity":57,"Duration":87117,"SoundDuration":87117,"Delta":347923715},{"NoteNumber":70,"Velocity":57,"Duration":87117,"SoundDuration":87117,"Delta":347923715},{"NoteNumber":75,"Velocity":67,"Duration":87117,"SoundDuration":87117,"Delta":347923715},{"NoteNumber":76,"Velocity":59,"Duration":87040,"SoundDuration":87040,"Delta":348039846},{"NoteNumber":82,"Velocity":59,"Duration":87040,"SoundDuration":87040,"Delta":348039846},{"NoteNumber":85,"Velocity":65,"Duration":87040,"SoundDuration":87040,"Delta":348039846},{"NoteNumber":88,"Velocity":73,"Duration":87040,"SoundDuration":87040,"Delta":348039846},{"NoteNumber":66,"Velocity":60,"Duration":87040,"SoundDuration":87040,"Delta":348155900},{"NoteNumber":70,"Velocity":60,"Duration":87040,"SoundDuration":87040,"Delta":348155900},{"NoteNumber":72,"Velocity":69,"Duration":87040,"SoundDuration":87040,"Delta":348155900},{"NoteNumber":82,"Velocity":69,"Duration":87040,"SoundDuration":87040,"Delta":348271954},{"NoteNumber":85,"Velocity":79,"Duration":87040,"SoundDuration":87040,"Delta":348271954},{"NoteNumber":78,"Velocity":69,"Duration":87040,"SoundDuration":87040,"Delta":348271954},{"NoteNumber":73,"Velocity":62,"Duration":87040,"SoundDuration":87040,"Delta":348271954},{"NoteNumber":66,"Velocity":66,"Duration":88792,"SoundDuration":88792,"Delta":348388009},{"NoteNumber":70,"Velocity":66,"Duration":88792,"SoundDuration":88792,"Delta":348388009},{"NoteNumber":75,"Velocity":73,"Duration":88792,"SoundDuration":88792,"Delta":348388009},{"NoteNumber":76,"Velocity":66,"Duration":92394,"SoundDuration":92394,"Delta":348506399},{"NoteNumber":82,"Velocity":66,"Duration":92394,"SoundDuration":92394,"Delta":348506399},{"NoteNumber":85,"Velocity":74,"Duration":92394,"SoundDuration":92394,"Delta":348506399},{"NoteNumber":88,"Velocity":83,"Duration":92394,"SoundDuration":92394,"Delta":348506399},{"NoteNumber":66,"Velocity":55,"Duration":92137,"SoundDuration":92137,"Delta":348629592},{"NoteNumber":70,"Velocity":55,"Duration":92137,"SoundDuration":92137,"Delta":348629592},{"NoteNumber":75,"Velocity":66,"Duration":92137,"SoundDuration":92137,"Delta":348629592},{"NoteNumber":73,"Velocity":63,"Duration":100097,"SoundDuration":100097,"Delta":348752442},{"NoteNumber":78,"Velocity":63,"Duration":100097,"SoundDuration":100097,"Delta":348752442},{"NoteNumber":82,"Velocity":70,"Duration":100097,"SoundDuration":100097,"Delta":348752442},{"NoteNumber":85,"Velocity":80,"Duration":100097,"SoundDuration":100097,"Delta":348752442},{"NoteNumber":49,"Velocity":70,"Duration":1452851,"SoundDuration":1452851,"Delta":348885906},{"NoteNumber":55,"Velocity":70,"Duration":1452851,"SoundDuration":1452851,"Delta":348885906},{"NoteNumber":58,"Velocity":70,"Duration":1452851,"SoundDuration":1452851,"Delta":348885906},{"NoteNumber":63,"Velocity":84,"Duration":1452851,"SoundDuration":1452851,"Delta":348885906},{"NoteNumber":75,"Velocity":59,"Duration":89112,"SoundDuration":89112,"Delta":349005907},{"NoteNumber":79,"Velocity":59,"Duration":89112,"SoundDuration":89112,"Delta":349005907},{"NoteNumber":82,"Velocity":65,"Duration":89112,"SoundDuration":89112,"Delta":349005907},{"NoteNumber":87,"Velocity":73,"Duration":89112,"SoundDuration":89112,"Delta":349005907},{"NoteNumber":67,"Velocity":60,"Duration":88201,"SoundDuration":88201,"Delta":349124616},{"NoteNumber":70,"Velocity":60,"Duration":88201,"SoundDuration":88201,"Delta":349124616},{"NoteNumber":76,"Velocity":69,"Duration":88201,"SoundDuration":88201,"Delta":349124616},{"NoteNumber":75,"Velocity":59,"Duration":87385,"SoundDuration":87385,"Delta":349242062},{"NoteNumber":79,"Velocity":59,"Duration":87385,"SoundDuration":87385,"Delta":349242062},{"NoteNumber":82,"Velocity":65,"Duration":87385,"SoundDuration":87385,"Delta":349242062},{"NoteNumber":87,"Velocity":73,"Duration":87385,"SoundDuration":87385,"Delta":349242062},{"NoteNumber":67,"Velocity":60,"Duration":87385,"SoundDuration":87385,"Delta":349358576},{"NoteNumber":70,"Velocity":60,"Duration":87385,"SoundDuration":87385,"Delta":349358576},{"NoteNumber":73,"Velocity":67,"Duration":87385,"SoundDuration":87385,"Delta":349358576},{"NoteNumber":75,"Velocity":66,"Duration":87385,"SoundDuration":87385,"Delta":349475090},{"NoteNumber":79,"Velocity":66,"Duration":87385,"SoundDuration":87385,"Delta":349475090},{"NoteNumber":82,"Velocity":75,"Duration":87385,"SoundDuration":87385,"Delta":349475090},{"NoteNumber":87,"Velocity":84,"Duration":87385,"SoundDuration":87385,"Delta":349475090},{"NoteNumber":67,"Velocity":60,"Duration":96161,"SoundDuration":96161,"Delta":349593934},{"NoteNumber":70,"Velocity":60,"Duration":96161,"SoundDuration":96161,"Delta":349593934},{"NoteNumber":76,"Velocity":69,"Duration":96161,"SoundDuration":96161,"Delta":349593934},{"NoteNumber":85,"Velocity":64,"Duration":87582,"SoundDuration":87582,"Delta":349722150},{"NoteNumber":90,"Velocity":81,"Duration":87582,"SoundDuration":87582,"Delta":349722150},{"NoteNumber":82,"Velocity":64,"Duration":87582,"SoundDuration":87582,"Delta":349722150},{"NoteNumber":78,"Velocity":64,"Duration":87582,"SoundDuration":87582,"Delta":349722150},{"NoteNumber":67,"Velocity":60,"Duration":92032,"SoundDuration":92032,"Delta":349841285},{"NoteNumber":70,"Velocity":60,"Duration":92032,"SoundDuration":92032,"Delta":349841285},{"NoteNumber":76,"Velocity":71,"Duration":92032,"SoundDuration":92032,"Delta":349841285},{"NoteNumber":75,"Velocity":63,"Duration":92032,"SoundDuration":92032,"Delta":349963994},{"NoteNumber":79,"Velocity":63,"Duration":92032,"SoundDuration":92032,"Delta":349963994},{"NoteNumber":82,"Velocity":70,"Duration":92032,"SoundDuration":92032,"Delta":349963994},{"NoteNumber":87,"Velocity":80,"Duration":92032,"SoundDuration":92032,"Delta":349963994},{"NoteNumber":67,"Velocity":60,"Duration":92032,"SoundDuration":92032,"Delta":350086704},{"NoteNumber":70,"Velocity":60,"Duration":92032,"SoundDuration":92032,"Delta":350086704},{"NoteNumber":76,"Velocity":62,"Duration":92032,"SoundDuration":92032,"Delta":350086704},{"NoteNumber":75,"Velocity":53,"Duration":97007,"SoundDuration":97007,"Delta":350209413},{"NoteNumber":79,"Velocity":53,"Duration":97007,"SoundDuration":97007,"Delta":350209413},{"NoteNumber":82,"Velocity":61,"Duration":97007,"SoundDuration":97007,"Delta":350209413},{"NoteNumber":87,"Velocity":66,"Duration":97007,"SoundDuration":97007,"Delta":350209413},{"NoteNumber":49,"Velocity":70,"Duration":1458392,"SoundDuration":1458392,"Delta":350338757},{"NoteNumber":54,"Velocity":70,"Duration":1458392,"SoundDuration":1458392,"Delta":350338757},{"NoteNumber":58,"Velocity":70,"Duration":1458392,"SoundDuration":1458392,"Delta":350338757},{"NoteNumber":64,"Velocity":84,"Duration":1458392,"SoundDuration":1458392,"Delta":350338757},{"NoteNumber":73,"Velocity":59,"Duration":89634,"SoundDuration":89634,"Delta":350459254},{"NoteNumber":78,"Velocity":59,"Duration":89634,"SoundDuration":89634,"Delta":350459254},{"NoteNumber":82,"Velocity":65,"Duration":89634,"SoundDuration":89634,"Delta":350459254},{"NoteNumber":85,"Velocity":73,"Duration":89634,"SoundDuration":89634,"Delta":350459254},{"NoteNumber":66,"Velocity":60,"Duration":88753,"SoundDuration":88753,"Delta":350578606},{"NoteNumber":70,"Velocity":60,"Duration":88753,"SoundDuration":88753,"Delta":350578606},{"NoteNumber":72,"Velocity":69,"Duration":88753,"SoundDuration":88753,"Delta":350578606},{"NoteNumber":76,"Velocity":59,"Duration":87888,"SoundDuration":87888,"Delta":350696839},{"NoteNumber":82,"Velocity":59,"Duration":87888,"SoundDuration":87888,"Delta":350696839},{"NoteNumber":85,"Velocity":65,"Duration":87888,"SoundDuration":87888,"Delta":350696839},{"NoteNumber":88,"Velocity":73,"Duration":87888,"SoundDuration":87888,"Delta":350696839},{"NoteNumber":66,"Velocity":57,"Duration":87117,"SoundDuration":87117,"Delta":350813895},{"NoteNumber":70,"Velocity":57,"Duration":87117,"SoundDuration":87117,"Delta":350813895},{"NoteNumber":75,"Velocity":67,"Duration":87117,"SoundDuration":87117,"Delta":350813895},{"NoteNumber":76,"Velocity":59,"Duration":87040,"SoundDuration":87040,"Delta":350930025},{"NoteNumber":82,"Velocity":59,"Duration":87040,"SoundDuration":87040,"Delta":350930025},{"NoteNumber":85,"Velocity":65,"Duration":87040,"SoundDuration":87040,"Delta":350930025},{"NoteNumber":88,"Velocity":73,"Duration":87040,"SoundDuration":87040,"Delta":350930025},{"NoteNumber":66,"Velocity":60,"Duration":87040,"SoundDuration":87040,"Delta":351046080},{"NoteNumber":70,"Velocity":60,"Duration":87040,"SoundDuration":87040,"Delta":351046080},{"NoteNumber":72,"Velocity":69,"Duration":87040,"SoundDuration":87040,"Delta":351046080},{"NoteNumber":82,"Velocity":69,"Duration":87040,"SoundDuration":87040,"Delta":351162134},{"NoteNumber":85,"Velocity":79,"Duration":87040,"SoundDuration":87040,"Delta":351162134},{"NoteNumber":78,"Velocity":69,"Duration":87040,"SoundDuration":87040,"Delta":351162134},{"NoteNumber":73,"Velocity":62,"Duration":87040,"SoundDuration":87040,"Delta":351162134},{"NoteNumber":66,"Velocity":66,"Duration":88792,"SoundDuration":88792,"Delta":351278188},{"NoteNumber":70,"Velocity":66,"Duration":88792,"SoundDuration":88792,"Delta":351278188},{"NoteNumber":75,"Velocity":73,"Duration":88792,"SoundDuration":88792,"Delta":351278188},{"NoteNumber":76,"Velocity":66,"Duration":92394,"SoundDuration":92394,"Delta":351396578},{"NoteNumber":82,"Velocity":66,"Duration":92394,"SoundDuration":92394,"Delta":351396578},{"NoteNumber":85,"Velocity":74,"Duration":92394,"SoundDuration":92394,"Delta":351396578},{"NoteNumber":88,"Velocity":83,"Duration":92394,"SoundDuration":92394,"Delta":351396578},{"NoteNumber":66,"Velocity":55,"Duration":92137,"SoundDuration":92137,"Delta":351519771},{"NoteNumber":70,"Velocity":55,"Duration":92137,"SoundDuration":92137,"Delta":351519771},{"NoteNumber":75,"Velocity":66,"Duration":92137,"SoundDuration":92137,"Delta":351519771},{"NoteNumber":73,"Velocity":63,"Duration":115895,"SoundDuration":115895,"Delta":351642621},{"NoteNumber":78,"Velocity":63,"Duration":115895,"SoundDuration":115895,"Delta":351642621},{"NoteNumber":82,"Velocity":70,"Duration":115895,"SoundDuration":115895,"Delta":351642621},{"NoteNumber":85,"Velocity":80,"Duration":115895,"SoundDuration":115895,"Delta":351642621},{"NoteNumber":47,"Velocity":73,"Duration":1438652,"SoundDuration":1438652,"Delta":351797149},{"NoteNumber":54,"Velocity":73,"Duration":1438652,"SoundDuration":1438652,"Delta":351797149},{"NoteNumber":57,"Velocity":73,"Duration":1438652,"SoundDuration":1438652,"Delta":351797149},{"NoteNumber":63,"Velocity":89,"Duration":1438652,"SoundDuration":1438652,"Delta":351797149},{"NoteNumber":83,"Velocity":57,"Duration":87501,"SoundDuration":87501,"Delta":351915066},{"NoteNumber":90,"Velocity":57,"Duration":87501,"SoundDuration":87501,"Delta":351915066},{"NoteNumber":93,"Velocity":65,"Duration":87501,"SoundDuration":87501,"Delta":351915066},{"NoteNumber":95,"Velocity":73,"Duration":87501,"SoundDuration":87501,"Delta":351915066},{"NoteNumber":75,"Velocity":58,"Duration":86468,"SoundDuration":86468,"Delta":352031581},{"NoteNumber":78,"Velocity":58,"Duration":86468,"SoundDuration":86468,"Delta":352031581},{"NoteNumber":84,"Velocity":68,"Duration":86468,"SoundDuration":86468,"Delta":352031581},{"NoteNumber":83,"Velocity":57,"Duration":85423,"SoundDuration":85423,"Delta":352146722},{"NoteNumber":90,"Velocity":57,"Duration":85423,"SoundDuration":85423,"Delta":352146722},{"NoteNumber":93,"Velocity":65,"Duration":85423,"SoundDuration":85423,"Delta":352146722},{"NoteNumber":95,"Velocity":73,"Duration":85423,"SoundDuration":85423,"Delta":352146722},{"NoteNumber":75,"Velocity":58,"Duration":85350,"SoundDuration":85350,"Delta":352260596},{"NoteNumber":78,"Velocity":58,"Duration":85350,"SoundDuration":85350,"Delta":352260596},{"NoteNumber":82,"Velocity":67,"Duration":85350,"SoundDuration":85350,"Delta":352260596},{"NoteNumber":83,"Velocity":66,"Duration":85350,"SoundDuration":85350,"Delta":352374396},{"NoteNumber":90,"Velocity":66,"Duration":85350,"SoundDuration":85350,"Delta":352374396},{"NoteNumber":93,"Velocity":76,"Duration":85350,"SoundDuration":85350,"Delta":352374396},{"NoteNumber":95,"Velocity":84,"Duration":85350,"SoundDuration":85350,"Delta":352374396},{"NoteNumber":75,"Velocity":58,"Duration":96161,"SoundDuration":96161,"Delta":352490978},{"NoteNumber":78,"Velocity":58,"Duration":96161,"SoundDuration":96161,"Delta":352490978},{"NoteNumber":84,"Velocity":68,"Duration":96161,"SoundDuration":96161,"Delta":352490978},{"NoteNumber":93,"Velocity":63,"Duration":87582,"SoundDuration":87582,"Delta":352619194},{"NoteNumber":98,"Velocity":80,"Duration":87582,"SoundDuration":87582,"Delta":352619194},{"NoteNumber":90,"Velocity":63,"Duration":87582,"SoundDuration":87582,"Delta":352619194},{"NoteNumber":86,"Velocity":63,"Duration":87582,"SoundDuration":87582,"Delta":352619194},{"NoteNumber":75,"Velocity":58,"Duration":92032,"SoundDuration":92032,"Delta":352738329},{"NoteNumber":78,"Velocity":58,"Duration":92032,"SoundDuration":92032,"Delta":352738329},{"NoteNumber":84,"Velocity":70,"Duration":92032,"SoundDuration":92032,"Delta":352738329},{"NoteNumber":83,"Velocity":61,"Duration":92032,"SoundDuration":92032,"Delta":352861039},{"NoteNumber":90,"Velocity":61,"Duration":92032,"SoundDuration":92032,"Delta":352861039},{"NoteNumber":93,"Velocity":70,"Duration":92032,"SoundDuration":92032,"Delta":352861039},{"NoteNumber":95,"Velocity":77,"Duration":92032,"SoundDuration":92032,"Delta":352861039},{"NoteNumber":75,"Velocity":58,"Duration":92032,"SoundDuration":92032,"Delta":352983748},{"NoteNumber":78,"Velocity":58,"Duration":92032,"SoundDuration":92032,"Delta":352983748},{"NoteNumber":84,"Velocity":59,"Duration":92032,"SoundDuration":92032,"Delta":352983748},{"NoteNumber":83,"Velocity":53,"Duration":97007,"SoundDuration":97007,"Delta":353106458},{"NoteNumber":90,"Velocity":53,"Duration":97007,"SoundDuration":97007,"Delta":353106458},{"NoteNumber":93,"Velocity":59,"Duration":97007,"SoundDuration":97007,"Delta":353106458},{"NoteNumber":95,"Velocity":67,"Duration":97007,"SoundDuration":97007,"Delta":353106458},{"NoteNumber":45,"Velocity":80,"Duration":95266,"SoundDuration":95266,"Delta":353235802},{"NoteNumber":53,"Velocity":80,"Duration":95266,"SoundDuration":95266,"Delta":353235802},{"NoteNumber":57,"Velocity":80,"Duration":95266,"SoundDuration":95266,"Delta":353235802},{"NoteNumber":65,"Velocity":89,"Duration":95266,"SoundDuration":95266,"Delta":353235802},{"NoteNumber":69,"Velocity":80,"Duration":95266,"SoundDuration":95266,"Delta":353362823},{"NoteNumber":72,"Velocity":86,"Duration":95266,"SoundDuration":95266,"Delta":353362823},{"NoteNumber":81,"Velocity":80,"Duration":97851,"SoundDuration":97851,"Delta":353489845},{"NoteNumber":77,"Velocity":72,"Duration":97851,"SoundDuration":97851,"Delta":353489845},{"NoteNumber":83,"Velocity":95,"Duration":90806,"SoundDuration":90806,"Delta":353619844},{"NoteNumber":80,"Velocity":95,"Duration":90806,"SoundDuration":90806,"Delta":353619844},{"NoteNumber":81,"Velocity":63,"Duration":90806,"SoundDuration":90806,"Delta":353740919},{"NoteNumber":93,"Velocity":71,"Duration":90806,"SoundDuration":90806,"Delta":353740919},{"NoteNumber":84,"Velocity":63,"Duration":90806,"SoundDuration":90806,"Delta":353740919},{"NoteNumber":80,"Velocity":75,"Duration":90806,"SoundDuration":90806,"Delta":353861995},{"NoteNumber":76,"Velocity":75,"Duration":90806,"SoundDuration":90806,"Delta":353861995},{"NoteNumber":77,"Velocity":69,"Duration":90806,"SoundDuration":90806,"Delta":353983070},{"NoteNumber":81,"Velocity":69,"Duration":90806,"SoundDuration":90806,"Delta":353983070},{"NoteNumber":89,"Velocity":75,"Duration":90806,"SoundDuration":90806,"Delta":353983070},{"NoteNumber":71,"Velocity":70,"Duration":90806,"SoundDuration":90806,"Delta":354104145},{"NoteNumber":74,"Velocity":70,"Duration":90806,"SoundDuration":90806,"Delta":354104145},{"NoteNumber":72,"Velocity":62,"Duration":91806,"SoundDuration":91806,"Delta":354225220},{"NoteNumber":77,"Velocity":62,"Duration":91806,"SoundDuration":91806,"Delta":354225220},{"NoteNumber":84,"Velocity":69,"Duration":91806,"SoundDuration":91806,"Delta":354225220},{"NoteNumber":68,"Velocity":60,"Duration":89555,"SoundDuration":89555,"Delta":354347629},{"NoteNumber":71,"Velocity":66,"Duration":89555,"SoundDuration":89555,"Delta":354347629},{"NoteNumber":69,"Velocity":57,"Duration":89555,"SoundDuration":89555,"Delta":354467037},{"NoteNumber":72,"Velocity":57,"Duration":238815,"SoundDuration":238815,"Delta":354467037},{"NoteNumber":81,"Velocity":64,"Duration":89555,"SoundDuration":89555,"Delta":354467037},{"NoteNumber":77,"Velocity":61,"Duration":89555,"SoundDuration":89555,"Delta":354586445},{"NoteNumber":47,"Velocity":73,"Duration":1446769,"SoundDuration":1446769,"Delta":354705853},{"NoteNumber":54,"Velocity":73,"Duration":1446769,"SoundDuration":1446769,"Delta":354705853},{"NoteNumber":57,"Velocity":73,"Duration":1446769,"SoundDuration":1446769,"Delta":354705853},{"NoteNumber":63,"Velocity":89,"Duration":232295,"SoundDuration":232295,"Delta":354705853},{"NoteNumber":71,"Velocity":61,"Duration":87888,"SoundDuration":87888,"Delta":354824005},{"NoteNumber":78,"Velocity":61,"Duration":87888,"SoundDuration":87888,"Delta":354824005},{"NoteNumber":81,"Velocity":69,"Duration":87888,"SoundDuration":87888,"Delta":354824005},{"NoteNumber":83,"Velocity":77,"Duration":87888,"SoundDuration":87888,"Delta":354824005},{"NoteNumber":63,"Velocity":55,"Duration":87079,"SoundDuration":87079,"Delta":354941061},{"NoteNumber":66,"Velocity":55,"Duration":87079,"SoundDuration":87079,"Delta":354941061},{"NoteNumber":72,"Velocity":64,"Duration":87079,"SoundDuration":87079,"Delta":354941061},{"NoteNumber":71,"Velocity":61,"Duration":86240,"SoundDuration":86240,"Delta":355057040},{"NoteNumber":78,"Velocity":61,"Duration":86240,"SoundDuration":86240,"Delta":355057040},{"NoteNumber":81,"Velocity":69,"Duration":86240,"SoundDuration":86240,"Delta":355057040},{"NoteNumber":83,"Velocity":77,"Duration":86240,"SoundDuration":86240,"Delta":355057040},{"NoteNumber":63,"Velocity":55,"Duration":85681,"SoundDuration":85681,"Delta":355171878},{"NoteNumber":66,"Velocity":55,"Duration":85681,"SoundDuration":85681,"Delta":355171878},{"NoteNumber":70,"Velocity":63,"Duration":85681,"SoundDuration":85681,"Delta":355171878},{"NoteNumber":71,"Velocity":70,"Duration":85681,"SoundDuration":85681,"Delta":355286120},{"NoteNumber":78,"Velocity":70,"Duration":85681,"SoundDuration":85681,"Delta":355286120},{"NoteNumber":81,"Velocity":80,"Duration":85681,"SoundDuration":85681,"Delta":355286120},{"NoteNumber":83,"Velocity":89,"Duration":85681,"SoundDuration":85681,"Delta":355286120},{"NoteNumber":63,"Velocity":55,"Duration":96161,"SoundDuration":96161,"Delta":355403071},{"NoteNumber":66,"Velocity":55,"Duration":96161,"SoundDuration":96161,"Delta":355403071},{"NoteNumber":72,"Velocity":64,"Duration":96161,"SoundDuration":96161,"Delta":355403071},{"NoteNumber":81,"Velocity":67,"Duration":87582,"SoundDuration":87582,"Delta":355531287},{"NoteNumber":86,"Velocity":85,"Duration":87582,"SoundDuration":87582,"Delta":355531287},{"NoteNumber":78,"Velocity":67,"Duration":87582,"SoundDuration":87582,"Delta":355531287},{"NoteNumber":74,"Velocity":67,"Duration":87582,"SoundDuration":87582,"Delta":355531287},{"NoteNumber":63,"Velocity":55,"Duration":92032,"SoundDuration":92032,"Delta":355650422},{"NoteNumber":66,"Velocity":55,"Duration":92032,"SoundDuration":92032,"Delta":355650422},{"NoteNumber":72,"Velocity":65,"Duration":92032,"SoundDuration":92032,"Delta":355650422},{"NoteNumber":71,"Velocity":65,"Duration":92032,"SoundDuration":92032,"Delta":355773131},{"NoteNumber":78,"Velocity":65,"Duration":92032,"SoundDuration":92032,"Delta":355773131},{"NoteNumber":81,"Velocity":74,"Duration":92032,"SoundDuration":92032,"Delta":355773131},{"NoteNumber":83,"Velocity":82,"Duration":92032,"SoundDuration":92032,"Delta":355773131},{"NoteNumber":63,"Velocity":55,"Duration":92032,"SoundDuration":92032,"Delta":355895841},{"NoteNumber":66,"Velocity":55,"Duration":92032,"SoundDuration":92032,"Delta":355895841},{"NoteNumber":72,"Velocity":57,"Duration":92032,"SoundDuration":92032,"Delta":355895841},{"NoteNumber":71,"Velocity":56,"Duration":100554,"SoundDuration":100554,"Delta":356018550},{"NoteNumber":78,"Velocity":56,"Duration":100554,"SoundDuration":100554,"Delta":356018550},{"NoteNumber":81,"Velocity":63,"Duration":100554,"SoundDuration":100554,"Delta":356018550},{"NoteNumber":83,"Velocity":71,"Duration":100554,"SoundDuration":100554,"Delta":356018550},{"NoteNumber":45,"Velocity":80,"Duration":95266,"SoundDuration":95266,"Delta":356152622},{"NoteNumber":53,"Velocity":80,"Duration":95266,"SoundDuration":95266,"Delta":356152622},{"NoteNumber":57,"Velocity":80,"Duration":95266,"SoundDuration":95266,"Delta":356152622},{"NoteNumber":65,"Velocity":89,"Duration":95266,"SoundDuration":95266,"Delta":356152622},{"NoteNumber":69,"Velocity":80,"Duration":95266,"SoundDuration":95266,"Delta":356279644},{"NoteNumber":72,"Velocity":86,"Duration":95266,"SoundDuration":95266,"Delta":356279644},{"NoteNumber":81,"Velocity":80,"Duration":97851,"SoundDuration":97851,"Delta":356406666},{"NoteNumber":77,"Velocity":72,"Duration":97851,"SoundDuration":97851,"Delta":356406666},{"NoteNumber":71,"Velocity":84,"Duration":90806,"SoundDuration":90806,"Delta":356536665},{"NoteNumber":68,"Velocity":84,"Duration":90806,"SoundDuration":90806,"Delta":356536665},{"NoteNumber":69,"Velocity":57,"Duration":90806,"SoundDuration":90806,"Delta":356657740},{"NoteNumber":81,"Velocity":63,"Duration":90806,"SoundDuration":90806,"Delta":356657740},{"NoteNumber":72,"Velocity":57,"Duration":90806,"SoundDuration":90806,"Delta":356657740},{"NoteNumber":68,"Velocity":66,"Duration":90806,"SoundDuration":90806,"Delta":356778816},{"NoteNumber":64,"Velocity":66,"Duration":90806,"SoundDuration":90806,"Delta":356778816},{"NoteNumber":65,"Velocity":62,"Duration":90806,"SoundDuration":90806,"Delta":356899891},{"NoteNumber":69,"Velocity":62,"Duration":90806,"SoundDuration":90806,"Delta":356899891},{"NoteNumber":77,"Velocity":66,"Duration":90806,"SoundDuration":90806,"Delta":356899891},{"NoteNumber":59,"Velocity":62,"Duration":90806,"SoundDuration":90806,"Delta":357020966},{"NoteNumber":62,"Velocity":62,"Duration":90806,"SoundDuration":90806,"Delta":357020966},{"NoteNumber":60,"Velocity":54,"Duration":91806,"SoundDuration":91806,"Delta":357142041},{"NoteNumber":65,"Velocity":54,"Duration":91806,"SoundDuration":91806,"Delta":357142041},{"NoteNumber":72,"Velocity":62,"Duration":91806,"SoundDuration":91806,"Delta":357142041},{"NoteNumber":56,"Velocity":53,"Duration":89555,"SoundDuration":89555,"Delta":357264450},{"NoteNumber":59,"Velocity":60,"Duration":89555,"SoundDuration":89555,"Delta":357264450},{"NoteNumber":57,"Velocity":51,"Duration":89555,"SoundDuration":89555,"Delta":357383858},{"NoteNumber":60,"Velocity":51,"Duration":238815,"SoundDuration":238815,"Delta":357383858},{"NoteNumber":69,"Velocity":57,"Duration":89555,"SoundDuration":89555,"Delta":357383858},{"NoteNumber":65,"Velocity":53,"Duration":89555,"SoundDuration":89555,"Delta":357503266},{"NoteNumber":47,"Velocity":73,"Duration":89756,"SoundDuration":89756,"Delta":357622674},{"NoteNumber":54,"Velocity":73,"Duration":89756,"SoundDuration":89756,"Delta":357622674},{"NoteNumber":57,"Velocity":73,"Duration":89756,"SoundDuration":89756,"Delta":357622674},{"NoteNumber":63,"Velocity":89,"Duration":89756,"SoundDuration":89756,"Delta":357622674},{"NoteNumber":59,"Velocity":53,"Duration":88832,"SoundDuration":88832,"Delta":357742187},{"NoteNumber":66,"Velocity":53,"Duration":88832,"SoundDuration":88832,"Delta":357742187},{"NoteNumber":69,"Velocity":62,"Duration":88832,"SoundDuration":88832,"Delta":357742187},{"NoteNumber":71,"Velocity":69,"Duration":88832,"SoundDuration":88832,"Delta":357742187},{"NoteNumber":51,"Velocity":49,"Duration":87888,"SoundDuration":87888,"Delta":357860498},{"NoteNumber":54,"Velocity":49,"Duration":87888,"SoundDuration":87888,"Delta":357860498},{"NoteNumber":60,"Velocity":57,"Duration":87888,"SoundDuration":87888,"Delta":357860498},{"NoteNumber":59,"Velocity":53,"Duration":87117,"SoundDuration":87117,"Delta":357977554},{"NoteNumber":66,"Velocity":53,"Duration":87117,"SoundDuration":87117,"Delta":357977554},{"NoteNumber":69,"Velocity":62,"Duration":87117,"SoundDuration":87117,"Delta":357977554},{"NoteNumber":71,"Velocity":69,"Duration":87117,"SoundDuration":87117,"Delta":357977554},{"NoteNumber":51,"Velocity":49,"Duration":87040,"SoundDuration":87040,"Delta":358093685},{"NoteNumber":54,"Velocity":49,"Duration":87040,"SoundDuration":87040,"Delta":358093685},{"NoteNumber":58,"Velocity":57,"Duration":87040,"SoundDuration":87040,"Delta":358093685},{"NoteNumber":59,"Velocity":52,"Duration":87040,"SoundDuration":87040,"Delta":358209739},{"NoteNumber":66,"Velocity":52,"Duration":87040,"SoundDuration":87040,"Delta":358209739},{"NoteNumber":69,"Velocity":60,"Duration":87040,"SoundDuration":87040,"Delta":358209739},{"NoteNumber":71,"Velocity":68,"Duration":87040,"SoundDuration":87040,"Delta":358209739},{"NoteNumber":51,"Velocity":49,"Duration":96161,"SoundDuration":96161,"Delta":358328200},{"NoteNumber":54,"Velocity":49,"Duration":96161,"SoundDuration":96161,"Delta":358328200},{"NoteNumber":60,"Velocity":57,"Duration":96161,"SoundDuration":96161,"Delta":358328200},{"NoteNumber":69,"Velocity":61,"Duration":87582,"SoundDuration":87582,"Delta":358456416},{"NoteNumber":74,"Velocity":76,"Duration":87582,"SoundDuration":87582,"Delta":358456416},{"NoteNumber":66,"Velocity":61,"Duration":87582,"SoundDuration":87582,"Delta":358456416},{"NoteNumber":62,"Velocity":61,"Duration":87582,"SoundDuration":87582,"Delta":358456416},{"NoteNumber":51,"Velocity":49,"Duration":92032,"SoundDuration":92032,"Delta":358575551},{"NoteNumber":54,"Velocity":49,"Duration":92032,"SoundDuration":92032,"Delta":358575551},{"NoteNumber":60,"Velocity":59,"Duration":92032,"SoundDuration":92032,"Delta":358575551},{"NoteNumber":59,"Velocity":50,"Duration":92032,"SoundDuration":92032,"Delta":358698260},{"NoteNumber":66,"Velocity":50,"Duration":92032,"SoundDuration":92032,"Delta":358698260},{"NoteNumber":69,"Velocity":55,"Duration":92032,"SoundDuration":92032,"Delta":358698260},{"NoteNumber":71,"Velocity":62,"Duration":92032,"SoundDuration":92032,"Delta":358698260},{"NoteNumber":51,"Velocity":49,"Duration":92032,"SoundDuration":92032,"Delta":358820970},{"NoteNumber":54,"Velocity":49,"Duration":92032,"SoundDuration":92032,"Delta":358820970},{"NoteNumber":60,"Velocity":51,"Duration":92032,"SoundDuration":92032,"Delta":358820970},{"NoteNumber":59,"Velocity":50,"Duration":97007,"SoundDuration":97007,"Delta":358943679},{"NoteNumber":66,"Velocity":50,"Duration":97007,"SoundDuration":97007,"Delta":358943679},{"NoteNumber":69,"Velocity":56,"Duration":97007,"SoundDuration":97007,"Delta":358943679},{"NoteNumber":71,"Velocity":63,"Duration":97007,"SoundDuration":97007,"Delta":358943679},{"NoteNumber":57,"Velocity":62,"Duration":93306,"SoundDuration":93306,"Delta":359072113},{"NoteNumber":69,"Velocity":59,"Duration":93088,"SoundDuration":93088,"Delta":359196522},{"NoteNumber":56,"Velocity":57,"Duration":92783,"SoundDuration":92783,"Delta":359320582},{"NoteNumber":57,"Velocity":63,"Duration":92783,"SoundDuration":92783,"Delta":359320582},{"NoteNumber":68,"Velocity":54,"Duration":92481,"SoundDuration":92481,"Delta":359444207},{"NoteNumber":69,"Velocity":62,"Duration":92481,"SoundDuration":92481,"Delta":359444207},{"NoteNumber":57,"Velocity":65,"Duration":92137,"SoundDuration":92137,"Delta":359567401},{"NoteNumber":55,"Velocity":60,"Duration":92137,"SoundDuration":92137,"Delta":359567401},{"NoteNumber":69,"Velocity":64,"Duration":91754,"SoundDuration":91754,"Delta":359690166},{"NoteNumber":67,"Velocity":59,"Duration":91754,"SoundDuration":91754,"Delta":359690166},{"NoteNumber":54,"Velocity":62,"Duration":91374,"SoundDuration":91374,"Delta":359812505},{"NoteNumber":57,"Velocity":69,"Duration":91374,"SoundDuration":91374,"Delta":359812505},{"NoteNumber":66,"Velocity":62,"Duration":91164,"SoundDuration":91164,"Delta":359934337},{"NoteNumber":69,"Velocity":69,"Duration":91164,"SoundDuration":91164,"Delta":359934337},{"NoteNumber":53,"Velocity":63,"Duration":90872,"SoundDuration":90872,"Delta":360055834},{"NoteNumber":54,"Velocity":63,"Duration":90872,"SoundDuration":90872,"Delta":360055834},{"NoteNumber":57,"Velocity":71,"Duration":90872,"SoundDuration":90872,"Delta":360055834},{"NoteNumber":65,"Velocity":63,"Duration":90581,"SoundDuration":90581,"Delta":360176915},{"NoteNumber":66,"Velocity":63,"Duration":90581,"SoundDuration":90581,"Delta":360176915},{"NoteNumber":69,"Velocity":71,"Duration":90581,"SoundDuration":90581,"Delta":360176915},{"NoteNumber":52,"Velocity":65,"Duration":90245,"SoundDuration":90245,"Delta":360297578},{"NoteNumber":54,"Velocity":65,"Duration":90245,"SoundDuration":90245,"Delta":360297578},{"NoteNumber":57,"Velocity":73,"Duration":90245,"SoundDuration":90245,"Delta":360297578},{"NoteNumber":64,"Velocity":67,"Duration":89877,"SoundDuration":89877,"Delta":360417824},{"NoteNumber":66,"Velocity":67,"Duration":89877,"SoundDuration":89877,"Delta":360417824},{"NoteNumber":69,"Velocity":75,"Duration":89877,"SoundDuration":89877,"Delta":360417824},{"NoteNumber":51,"Velocity":66,"Duration":89513,"SoundDuration":89513,"Delta":360537661},{"NoteNumber":54,"Velocity":66,"Duration":89513,"SoundDuration":89513,"Delta":360537661},{"NoteNumber":57,"Velocity":74,"Duration":89513,"SoundDuration":89513,"Delta":360537661},{"NoteNumber":63,"Velocity":69,"Duration":89513,"SoundDuration":89513,"Delta":360657011},{"NoteNumber":66,"Velocity":69,"Duration":89513,"SoundDuration":89513,"Delta":360657011},{"NoteNumber":69,"Velocity":77,"Duration":89513,"SoundDuration":89513,"Delta":360657011},{"NoteNumber":52,"Velocity":65,"Duration":89513,"SoundDuration":89513,"Delta":360776362},{"NoteNumber":54,"Velocity":65,"Duration":89513,"SoundDuration":89513,"Delta":360776362},{"NoteNumber":57,"Velocity":73,"Duration":89513,"SoundDuration":89513,"Delta":360776362},{"NoteNumber":64,"Velocity":65,"Duration":89513,"SoundDuration":89513,"Delta":360895713},{"NoteNumber":66,"Velocity":65,"Duration":89513,"SoundDuration":89513,"Delta":360895713},{"NoteNumber":69,"Velocity":73,"Duration":89513,"SoundDuration":89513,"Delta":360895713},{"NoteNumber":51,"Velocity":64,"Duration":89513,"SoundDuration":89513,"Delta":361015064},{"NoteNumber":54,"Velocity":64,"Duration":89513,"SoundDuration":89513,"Delta":361015064},{"NoteNumber":57,"Velocity":72,"Duration":89513,"SoundDuration":89513,"Delta":361015064},{"NoteNumber":63,"Velocity":63,"Duration":89513,"SoundDuration":89513,"Delta":361134414},{"NoteNumber":66,"Velocity":63,"Duration":89513,"SoundDuration":89513,"Delta":361134414},{"NoteNumber":69,"Velocity":71,"Duration":89513,"SoundDuration":89513,"Delta":361134414},{"NoteNumber":50,"Velocity":63,"Duration":89513,"SoundDuration":89513,"Delta":361253765},{"NoteNumber":54,"Velocity":63,"Duration":89513,"SoundDuration":89513,"Delta":361253765},{"NoteNumber":57,"Velocity":71,"Duration":89513,"SoundDuration":89513,"Delta":361253765},{"NoteNumber":62,"Velocity":63,"Duration":89151,"SoundDuration":89151,"Delta":361373116},{"NoteNumber":66,"Velocity":63,"Duration":89151,"SoundDuration":89151,"Delta":361373116},{"NoteNumber":69,"Velocity":71,"Duration":89151,"SoundDuration":89151,"Delta":361373116},{"NoteNumber":49,"Velocity":62,"Duration":88951,"SoundDuration":88951,"Delta":361491984},{"NoteNumber":54,"Velocity":62,"Duration":88951,"SoundDuration":88951,"Delta":361491984},{"NoteNumber":57,"Velocity":70,"Duration":88951,"SoundDuration":88951,"Delta":361491984},{"NoteNumber":61,"Velocity":62,"Duration":88673,"SoundDuration":88673,"Delta":361610534},{"NoteNumber":66,"Velocity":62,"Duration":88673,"SoundDuration":88673,"Delta":361610534},{"NoteNumber":69,"Velocity":69,"Duration":88673,"SoundDuration":88673,"Delta":361610534},{"NoteNumber":48,"Velocity":61,"Duration":88436,"SoundDuration":88436,"Delta":361728686},{"NoteNumber":54,"Velocity":61,"Duration":88436,"SoundDuration":88436,"Delta":361728686},{"NoteNumber":57,"Velocity":67,"Duration":88436,"SoundDuration":88436,"Delta":361728686},{"NoteNumber":60,"Velocity":61,"Duration":88083,"SoundDuration":88083,"Delta":361846523},{"NoteNumber":66,"Velocity":61,"Duration":88083,"SoundDuration":88083,"Delta":361846523},{"NoteNumber":69,"Velocity":67,"Duration":88083,"SoundDuration":88083,"Delta":361846523},{"NoteNumber":47,"Velocity":61,"Duration":89151,"SoundDuration":89151,"Delta":361963967},{"NoteNumber":51,"Velocity":61,"Duration":89151,"SoundDuration":89151,"Delta":361963967},{"NoteNumber":54,"Velocity":61,"Duration":89151,"SoundDuration":89151,"Delta":361963967},{"NoteNumber":57,"Velocity":66,"Duration":89151,"SoundDuration":89151,"Delta":361963967},{"NoteNumber":59,"Velocity":57,"Duration":89151,"SoundDuration":89151,"Delta":362082836},{"NoteNumber":63,"Velocity":57,"Duration":89151,"SoundDuration":89151,"Delta":362082836},{"NoteNumber":66,"Velocity":57,"Duration":89151,"SoundDuration":89151,"Delta":362082836},{"NoteNumber":69,"Velocity":63,"Duration":89151,"SoundDuration":89151,"Delta":362082836},{"NoteNumber":47,"Velocity":61,"Duration":89151,"SoundDuration":89151,"Delta":362201704},{"NoteNumber":51,"Velocity":61,"Duration":89151,"SoundDuration":89151,"Delta":362201704},{"NoteNumber":54,"Velocity":61,"Duration":89151,"SoundDuration":89151,"Delta":362201704},{"NoteNumber":57,"Velocity":67,"Duration":89151,"SoundDuration":89151,"Delta":362201704},{"NoteNumber":59,"Velocity":60,"Duration":89151,"SoundDuration":89151,"Delta":362320572},{"NoteNumber":63,"Velocity":60,"Duration":89151,"SoundDuration":89151,"Delta":362320572},{"NoteNumber":66,"Velocity":60,"Duration":89151,"SoundDuration":89151,"Delta":362320572},{"NoteNumber":69,"Velocity":67,"Duration":89151,"SoundDuration":89151,"Delta":362320572},{"NoteNumber":47,"Velocity":63,"Duration":89151,"SoundDuration":89151,"Delta":362439440},{"NoteNumber":51,"Velocity":63,"Duration":89151,"SoundDuration":89151,"Delta":362439440},{"NoteNumber":54,"Velocity":63,"Duration":89151,"SoundDuration":89151,"Delta":362439440},{"NoteNumber":57,"Velocity":70,"Duration":89151,"SoundDuration":89151,"Delta":362439440},{"NoteNumber":59,"Velocity":63,"Duration":88912,"SoundDuration":88912,"Delta":362558309},{"NoteNumber":63,"Velocity":63,"Duration":88912,"SoundDuration":88912,"Delta":362558309},{"NoteNumber":66,"Velocity":63,"Duration":88912,"SoundDuration":88912,"Delta":362558309},{"NoteNumber":69,"Velocity":72,"Duration":88912,"SoundDuration":88912,"Delta":362558309},{"NoteNumber":47,"Velocity":66,"Duration":89756,"SoundDuration":89756,"Delta":362677018},{"NoteNumber":51,"Velocity":66,"Duration":89756,"SoundDuration":89756,"Delta":362677018},{"NoteNumber":54,"Velocity":66,"Duration":89756,"SoundDuration":89756,"Delta":362677018},{"NoteNumber":57,"Velocity":75,"Duration":89756,"SoundDuration":89756,"Delta":362677018},{"NoteNumber":59,"Velocity":67,"Duration":90664,"SoundDuration":90664,"Delta":362796857},{"NoteNumber":63,"Velocity":67,"Duration":90664,"SoundDuration":90664,"Delta":362796857},{"NoteNumber":66,"Velocity":67,"Duration":90664,"SoundDuration":90664,"Delta":362796857},{"NoteNumber":69,"Velocity":75,"Duration":90664,"SoundDuration":90664,"Delta":362796857},{"NoteNumber":47,"Velocity":67,"Duration":91627,"SoundDuration":91627,"Delta":362917937},{"NoteNumber":51,"Velocity":67,"Duration":91627,"SoundDuration":91627,"Delta":362917937},{"NoteNumber":54,"Velocity":67,"Duration":91627,"SoundDuration":91627,"Delta":362917937},{"NoteNumber":57,"Velocity":76,"Duration":91627,"SoundDuration":91627,"Delta":362917937},{"NoteNumber":59,"Velocity":72,"Duration":92568,"SoundDuration":92568,"Delta":363040277},{"NoteNumber":63,"Velocity":72,"Duration":92568,"SoundDuration":92568,"Delta":363040277},{"NoteNumber":66,"Velocity":72,"Duration":92568,"SoundDuration":92568,"Delta":363040277},{"NoteNumber":69,"Velocity":80,"Duration":92568,"SoundDuration":92568,"Delta":363040277},{"NoteNumber":47,"Velocity":74,"Duration":97180,"SoundDuration":97180,"Delta":363163992},{"NoteNumber":51,"Velocity":74,"Duration":97180,"SoundDuration":97180,"Delta":363163992},{"NoteNumber":54,"Velocity":74,"Duration":97180,"SoundDuration":97180,"Delta":363163992},{"NoteNumber":57,"Velocity":82,"Duration":97180,"SoundDuration":97180,"Delta":363163992},{"NoteNumber":59,"Velocity":75,"Duration":105568,"SoundDuration":105568,"Delta":363294846},{"NoteNumber":63,"Velocity":75,"Duration":105568,"SoundDuration":105568,"Delta":363294846},{"NoteNumber":66,"Velocity":75,"Duration":105568,"SoundDuration":105568,"Delta":363294846},{"NoteNumber":69,"Velocity":84,"Duration":105568,"SoundDuration":105568,"Delta":363294846},{"NoteNumber":48,"Velocity":70,"Duration":93415,"SoundDuration":93415,"Delta":363437118},{"NoteNumber":51,"Velocity":77,"Duration":93415,"SoundDuration":93415,"Delta":363437118},{"NoteNumber":54,"Velocity":77,"Duration":93415,"SoundDuration":93415,"Delta":363437118},{"NoteNumber":58,"Velocity":87,"Duration":93415,"SoundDuration":93415,"Delta":363437118},{"NoteNumber":60,"Velocity":95,"Duration":93415,"SoundDuration":93415,"Delta":363561672},{"NoteNumber":63,"Velocity":86,"Duration":95948,"SoundDuration":95948,"Delta":363686225},{"NoteNumber":70,"Velocity":86,"Duration":95948,"SoundDuration":95948,"Delta":363686225},{"NoteNumber":66,"Velocity":80,"Duration":95948,"SoundDuration":95948,"Delta":363686225},{"NoteNumber":72,"Velocity":77,"Duration":88904,"SoundDuration":88904,"Delta":363813697},{"NoteNumber":75,"Velocity":77,"Duration":88904,"SoundDuration":88904,"Delta":363813697},{"NoteNumber":78,"Velocity":86,"Duration":88904,"SoundDuration":88904,"Delta":363813697},{"NoteNumber":82,"Velocity":97,"Duration":88904,"SoundDuration":88904,"Delta":363813697},{"NoteNumber":32,"Velocity":77,"Duration":88904,"SoundDuration":88904,"Delta":363813697},{"NoteNumber":44,"Velocity":86,"Duration":88904,"SoundDuration":88904,"Delta":363813697},{"NoteNumber":69,"Velocity":79,"Duration":88729,"SoundDuration":88729,"Delta":363932178},{"NoteNumber":65,"Velocity":79,"Duration":88729,"SoundDuration":88729,"Delta":363932178},{"NoteNumber":70,"Velocity":69,"Duration":88451,"SoundDuration":88451,"Delta":364050484},{"NoteNumber":66,"Velocity":62,"Duration":88451,"SoundDuration":88451,"Delta":364050484},{"NoteNumber":62,"Velocity":67,"Duration":89151,"SoundDuration":89151,"Delta":364167972},{"NoteNumber":65,"Velocity":74,"Duration":89151,"SoundDuration":89151,"Delta":364167972},{"NoteNumber":66,"Velocity":79,"Duration":89151,"SoundDuration":89151,"Delta":364286840},{"NoteNumber":63,"Velocity":71,"Duration":89151,"SoundDuration":89151,"Delta":364286840},{"NoteNumber":65,"Velocity":62,"Duration":90028,"SoundDuration":90028,"Delta":364405708},{"NoteNumber":69,"Velocity":70,"Duration":90028,"SoundDuration":90028,"Delta":364405708},{"NoteNumber":66,"Velocity":79,"Duration":234192,"SoundDuration":234192,"Delta":364525747},{"NoteNumber":70,"Velocity":87,"Duration":87822,"SoundDuration":87822,"Delta":364525747},{"NoteNumber":73,"Velocity":86,"Duration":87822,"SoundDuration":87822,"Delta":364642843},{"NoteNumber":68,"Velocity":72,"Duration":87822,"SoundDuration":87822,"Delta":364759939},{"NoteNumber":72,"Velocity":81,"Duration":87822,"SoundDuration":87822,"Delta":364759939},{"NoteNumber":49,"Velocity":65,"Duration":92258,"SoundDuration":92258,"Delta":364877035},{"NoteNumber":53,"Velocity":73,"Duration":92258,"SoundDuration":92258,"Delta":364877035},{"NoteNumber":56,"Velocity":82,"Duration":92258,"SoundDuration":92258,"Delta":364877035},{"NoteNumber":61,"Velocity":81,"Duration":92258,"SoundDuration":92258,"Delta":365000046},{"NoteNumber":65,"Velocity":89,"Duration":92258,"SoundDuration":92258,"Delta":365000046},{"NoteNumber":73,"Velocity":81,"Duration":94482,"SoundDuration":94482,"Delta":365123057},{"NoteNumber":68,"Velocity":73,"Duration":94482,"SoundDuration":94482,"Delta":365123057},{"NoteNumber":68,"Velocity":80,"Duration":86558,"SoundDuration":86558,"Delta":365249033},{"NoteNumber":72,"Velocity":80,"Duration":86558,"SoundDuration":86558,"Delta":365249033},{"NoteNumber":77,"Velocity":89,"Duration":86558,"SoundDuration":86558,"Delta":365249033},{"NoteNumber":80,"Velocity":99,"Duration":86558,"SoundDuration":86558,"Delta":365249033},{"NoteNumber":32,"Velocity":77,"Duration":86558,"SoundDuration":86558,"Delta":365249033},{"NoteNumber":44,"Velocity":86,"Duration":86558,"SoundDuration":86558,"Delta":365249033},{"NoteNumber":65,"Velocity":75,"Duration":86948,"SoundDuration":86948,"Delta":365364538},{"NoteNumber":61,"Velocity":69,"Duration":86948,"SoundDuration":86948,"Delta":365364538},{"NoteNumber":63,"Velocity":69,"Duration":87338,"SoundDuration":87338,"Delta":365480543},{"NoteNumber":66,"Velocity":75,"Duration":87338,"SoundDuration":87338,"Delta":365480543},{"NoteNumber":65,"Velocity":64,"Duration":88998,"SoundDuration":88998,"Delta":365597039},{"NoteNumber":68,"Velocity":72,"Duration":88998,"SoundDuration":88998,"Delta":365597039},{"NoteNumber":66,"Velocity":62,"Duration":90254,"SoundDuration":90254,"Delta":365715930},{"NoteNumber":70,"Velocity":66,"Duration":90254,"SoundDuration":90254,"Delta":365715930},{"NoteNumber":65,"Velocity":59,"Duration":91592,"SoundDuration":91592,"Delta":365836515},{"NoteNumber":68,"Velocity":64,"Duration":91592,"SoundDuration":91592,"Delta":365836515},{"NoteNumber":61,"Velocity":73,"Duration":409686,"SoundDuration":409686,"Delta":365958893},{"NoteNumber":65,"Velocity":81,"Duration":409686,"SoundDuration":409686,"Delta":365958893},{"NoteNumber":73,"Velocity":86,"Duration":93415,"SoundDuration":93415,"Delta":366368579},{"NoteNumber":54,"Velocity":79,"Duration":93415,"SoundDuration":93415,"Delta":366368579},{"NoteNumber":58,"Velocity":79,"Duration":93415,"SoundDuration":93415,"Delta":366368579},{"NoteNumber":63,"Velocity":87,"Duration":93415,"SoundDuration":93415,"Delta":366368579},{"NoteNumber":73,"Velocity":69,"Duration":93415,"SoundDuration":93415,"Delta":366493133},{"NoteNumber":78,"Velocity":69,"Duration":93415,"SoundDuration":93415,"Delta":366493133},{"NoteNumber":82,"Velocity":75,"Duration":93415,"SoundDuration":93415,"Delta":366493133},{"NoteNumber":54,"Velocity":70,"Duration":93415,"SoundDuration":93415,"Delta":366493133},{"NoteNumber":82,"Velocity":96,"Duration":245952,"SoundDuration":245952,"Delta":366617687},{"NoteNumber":44,"Velocity":89,"Duration":245952,"SoundDuration":245952,"Delta":366617687},{"NoteNumber":85,"Velocity":70,"Duration":88904,"SoundDuration":88904,"Delta":366745158},{"NoteNumber":90,"Velocity":77,"Duration":88904,"SoundDuration":88904,"Delta":366745158},{"NoteNumber":94,"Velocity":87,"Duration":88904,"SoundDuration":88904,"Delta":366745158},{"NoteNumber":32,"Velocity":70,"Duration":88904,"SoundDuration":88904,"Delta":366745158},{"NoteNumber":72,"Velocity":79,"Duration":88729,"SoundDuration":88729,"Delta":366863640},{"NoteNumber":69,"Velocity":79,"Duration":88729,"SoundDuration":88729,"Delta":366863640},{"NoteNumber":70,"Velocity":62,"Duration":88451,"SoundDuration":88451,"Delta":366981945},{"NoteNumber":82,"Velocity":69,"Duration":88451,"SoundDuration":88451,"Delta":366981945},{"NoteNumber":73,"Velocity":62,"Duration":88451,"SoundDuration":88451,"Delta":366981945},{"NoteNumber":65,"Velocity":67,"Duration":88792,"SoundDuration":88792,"Delta":367099433},{"NoteNumber":69,"Velocity":74,"Duration":88792,"SoundDuration":88792,"Delta":367099433},{"NoteNumber":66,"Velocity":71,"Duration":88792,"SoundDuration":88792,"Delta":367217823},{"NoteNumber":78,"Velocity":79,"Duration":88792,"SoundDuration":88792,"Delta":367217823},{"NoteNumber":70,"Velocity":71,"Duration":88792,"SoundDuration":88792,"Delta":367217823},{"NoteNumber":69,"Velocity":62,"Duration":90028,"SoundDuration":90028,"Delta":367336213},{"NoteNumber":72,"Velocity":70,"Duration":90028,"SoundDuration":90028,"Delta":367336213},{"NoteNumber":73,"Velocity":87,"Duration":87822,"SoundDuration":87822,"Delta":367456251},{"NoteNumber":70,"Velocity":79,"Duration":87822,"SoundDuration":87822,"Delta":367456251},{"NoteNumber":73,"Velocity":64,"Duration":87822,"SoundDuration":87822,"Delta":367573347},{"NoteNumber":82,"Velocity":64,"Duration":87822,"SoundDuration":87822,"Delta":367573347},{"NoteNumber":85,"Velocity":77,"Duration":87822,"SoundDuration":87822,"Delta":367573347},{"NoteNumber":72,"Velocity":64,"Duration":87822,"SoundDuration":87822,"Delta":367690443},{"NoteNumber":80,"Velocity":64,"Duration":87822,"SoundDuration":87822,"Delta":367690443},{"NoteNumber":84,"Velocity":72,"Duration":87822,"SoundDuration":87822,"Delta":367690443},{"NoteNumber":68,"Velocity":86,"Duration":92258,"SoundDuration":92258,"Delta":367807539},{"NoteNumber":56,"Velocity":65,"Duration":92258,"SoundDuration":92258,"Delta":367807539},{"NoteNumber":61,"Velocity":73,"Duration":92258,"SoundDuration":92258,"Delta":367807539},{"NoteNumber":65,"Velocity":82,"Duration":92258,"SoundDuration":92258,"Delta":367807539},{"NoteNumber":73,"Velocity":63,"Duration":92258,"SoundDuration":92258,"Delta":367930551},{"NoteNumber":77,"Velocity":63,"Duration":92258,"SoundDuration":92258,"Delta":367930551},{"NoteNumber":80,"Velocity":70,"Duration":92258,"SoundDuration":92258,"Delta":367930551},{"NoteNumber":53,"Velocity":70,"Duration":92258,"SoundDuration":92258,"Delta":367930551},{"NoteNumber":80,"Velocity":95,"Duration":241055,"SoundDuration":241055,"Delta":368053562},{"NoteNumber":44,"Velocity":89,"Duration":241055,"SoundDuration":241055,"Delta":368053562},{"NoteNumber":89,"Velocity":80,"Duration":87426,"SoundDuration":87426,"Delta":368177970},{"NoteNumber":85,"Velocity":80,"Duration":87426,"SoundDuration":87426,"Delta":368177970},{"NoteNumber":92,"Velocity":89,"Duration":87426,"SoundDuration":87426,"Delta":368177970},{"NoteNumber":32,"Velocity":70,"Duration":87426,"SoundDuration":87426,"Delta":368177970},{"NoteNumber":65,"Velocity":84,"Duration":87780,"SoundDuration":87780,"Delta":368294617},{"NoteNumber":61,"Velocity":77,"Duration":87780,"SoundDuration":87780,"Delta":368294617},{"NoteNumber":66,"Velocity":62,"Duration":88138,"SoundDuration":88138,"Delta":368411738},{"NoteNumber":75,"Velocity":62,"Duration":88138,"SoundDuration":88138,"Delta":368411738},{"NoteNumber":78,"Velocity":66,"Duration":88138,"SoundDuration":88138,"Delta":368411738},{"NoteNumber":65,"Velocity":72,"Duration":88998,"SoundDuration":88998,"Delta":368529336},{"NoteNumber":68,"Velocity":81,"Duration":88998,"SoundDuration":88998,"Delta":368529336},{"NoteNumber":78,"Velocity":69,"Duration":90254,"SoundDuration":90254,"Delta":368648227},{"NoteNumber":82,"Velocity":75,"Duration":90254,"SoundDuration":90254,"Delta":368648227},{"NoteNumber":77,"Velocity":65,"Duration":91592,"SoundDuration":91592,"Delta":368768812},{"NoteNumber":80,"Velocity":72,"Duration":91592,"SoundDuration":91592,"Delta":368768812},{"NoteNumber":61,"Velocity":69,"Duration":411597,"SoundDuration":411597,"Delta":368891190},{"NoteNumber":65,"Velocity":77,"Duration":411597,"SoundDuration":411597,"Delta":368891190},{"NoteNumber":66,"Velocity":79,"Duration":192893,"SoundDuration":192893,"Delta":369302787},{"NoteNumber":63,"Velocity":71,"Duration":192893,"SoundDuration":192893,"Delta":369302787},{"NoteNumber":58,"Velocity":71,"Duration":192893,"SoundDuration":192893,"Delta":369302787},{"NoteNumber":66,"Velocity":77,"Duration":96091,"SoundDuration":96091,"Delta":369431562},{"NoteNumber":70,"Velocity":77,"Duration":96091,"SoundDuration":96091,"Delta":369431562},{"NoteNumber":78,"Velocity":86,"Duration":96091,"SoundDuration":96091,"Delta":369431562},{"NoteNumber":75,"Velocity":86,"Duration":96091,"SoundDuration":96091,"Delta":369431562},{"NoteNumber":49,"Velocity":71,"Duration":191223,"SoundDuration":191223,"Delta":369495681},{"NoteNumber":80,"Velocity":81,"Duration":253856,"SoundDuration":253856,"Delta":369559625},{"NoteNumber":68,"Velocity":81,"Duration":253856,"SoundDuration":253856,"Delta":369559625},{"NoteNumber":66,"Velocity":79,"Duration":193049,"SoundDuration":193049,"Delta":369686904},{"NoteNumber":63,"Velocity":71,"Duration":193049,"SoundDuration":193049,"Delta":369686904},{"NoteNumber":58,"Velocity":71,"Duration":193049,"SoundDuration":193049,"Delta":369686904},{"NoteNumber":81,"Velocity":94,"Duration":99707,"SoundDuration":99707,"Delta":369813482},{"NoteNumber":78,"Velocity":94,"Duration":99707,"SoundDuration":99707,"Delta":369813482},{"NoteNumber":75,"Velocity":83,"Duration":99707,"SoundDuration":99707,"Delta":369813482},{"NoteNumber":69,"Velocity":83,"Duration":99707,"SoundDuration":99707,"Delta":369813482},{"NoteNumber":37,"Velocity":69,"Duration":210177,"SoundDuration":210177,"Delta":369879953},{"NoteNumber":82,"Velocity":86,"Duration":107779,"SoundDuration":107779,"Delta":369946425},{"NoteNumber":70,"Velocity":77,"Duration":107779,"SoundDuration":107779,"Delta":369946425},{"NoteNumber":87,"Velocity":103,"Duration":98176,"SoundDuration":98176,"Delta":370090131},{"NoteNumber":78,"Velocity":92,"Duration":98176,"SoundDuration":98176,"Delta":370090131},{"NoteNumber":75,"Velocity":92,"Duration":98176,"SoundDuration":98176,"Delta":370090131},{"NoteNumber":56,"Velocity":75,"Duration":193831,"SoundDuration":193831,"Delta":370090131},{"NoteNumber":63,"Velocity":75,"Duration":193831,"SoundDuration":193831,"Delta":370090131},{"NoteNumber":66,"Velocity":84,"Duration":193831,"SoundDuration":193831,"Delta":370090131},{"NoteNumber":86,"Velocity":87,"Duration":95260,"SoundDuration":95260,"Delta":370220368},{"NoteNumber":74,"Velocity":79,"Duration":95260,"SoundDuration":95260,"Delta":370220368},{"NoteNumber":49,"Velocity":61,"Duration":189145,"SoundDuration":189145,"Delta":370283962},{"NoteNumber":85,"Velocity":95,"Duration":94446,"SoundDuration":94446,"Delta":370347207},{"NoteNumber":73,"Velocity":84,"Duration":94446,"SoundDuration":94446,"Delta":370347207},{"NoteNumber":72,"Velocity":76,"Duration":94363,"SoundDuration":94363,"Delta":370473108},{"NoteNumber":84,"Velocity":85,"Duration":94363,"SoundDuration":94363,"Delta":370473108},{"NoteNumber":56,"Velocity":63,"Duration":188469,"SoundDuration":188469,"Delta":370473108},{"NoteNumber":63,"Velocity":63,"Duration":188469,"SoundDuration":188469,"Delta":370473108},{"NoteNumber":66,"Velocity":72,"Duration":188469,"SoundDuration":188469,"Delta":370473108},{"NoteNumber":71,"Velocity":79,"Duration":94105,"SoundDuration":94105,"Delta":370598926},{"NoteNumber":83,"Velocity":87,"Duration":94105,"SoundDuration":94105,"Delta":370598926},{"NoteNumber":37,"Velocity":63,"Duration":189574,"SoundDuration":189574,"Delta":370661577},{"NoteNumber":82,"Velocity":87,"Duration":94867,"SoundDuration":94867,"Delta":370724486},{"NoteNumber":70,"Velocity":79,"Duration":94867,"SoundDuration":94867,"Delta":370724486},{"NoteNumber":81,"Velocity":86,"Duration":97529,"SoundDuration":97529,"Delta":370851151},{"NoteNumber":77,"Velocity":86,"Duration":97529,"SoundDuration":97529,"Delta":370851151},{"NoteNumber":69,"Velocity":77,"Duration":97529,"SoundDuration":97529,"Delta":370851151},{"NoteNumber":65,"Velocity":64,"Duration":195058,"SoundDuration":195058,"Delta":370851151},{"NoteNumber":61,"Velocity":57,"Duration":195058,"SoundDuration":195058,"Delta":370851151},{"NoteNumber":56,"Velocity":57,"Duration":195058,"SoundDuration":195058,"Delta":370851151},{"NoteNumber":80,"Velocity":79,"Duration":97529,"SoundDuration":97529,"Delta":370981190},{"NoteNumber":68,"Velocity":71,"Duration":97529,"SoundDuration":97529,"Delta":370981190},{"NoteNumber":49,"Velocity":54,"Duration":195058,"SoundDuration":195058,"Delta":371046210},{"NoteNumber":73,"Velocity":79,"Duration":255856,"SoundDuration":255856,"Delta":371111229},{"NoteNumber":85,"Velocity":87,"Duration":255856,"SoundDuration":255856,"Delta":371111229},{"NoteNumber":66,"Velocity":55,"Duration":188726,"SoundDuration":188726,"Delta":371241268},{"NoteNumber":63,"Velocity":50,"Duration":188726,"SoundDuration":188726,"Delta":371241268},{"NoteNumber":57,"Velocity":50,"Duration":188726,"SoundDuration":188726,"Delta":371241268},{"NoteNumber":84,"Velocity":73,"Duration":251635,"SoundDuration":251635,"Delta":371367086},{"NoteNumber":78,"Velocity":73,"Duration":251635,"SoundDuration":251635,"Delta":371367086},{"NoteNumber":72,"Velocity":66,"Duration":251635,"SoundDuration":251635,"Delta":371367086},{"NoteNumber":37,"Velocity":44,"Duration":188726,"SoundDuration":188726,"Delta":371429995},{"NoteNumber":83,"Velocity":77,"Duration":94363,"SoundDuration":94363,"Delta":371492904},{"NoteNumber":71,"Velocity":69,"Duration":94363,"SoundDuration":94363,"Delta":371492904},{"NoteNumber":82,"Velocity":72,"Duration":99619,"SoundDuration":99619,"Delta":371618722},{"NoteNumber":77,"Velocity":72,"Duration":99619,"SoundDuration":99619,"Delta":371618722},{"NoteNumber":70,"Velocity":64,"Duration":99619,"SoundDuration":99619,"Delta":371618722},{"NoteNumber":65,"Velocity":52,"Duration":199238,"SoundDuration":199238,"Delta":371618722},{"NoteNumber":61,"Velocity":45,"Duration":199238,"SoundDuration":199238,"Delta":371618722},{"NoteNumber":58,"Velocity":45,"Duration":199238,"SoundDuration":199238,"Delta":371618722},{"NoteNumber":80,"Velocity":70,"Duration":99619,"SoundDuration":99619,"Delta":371751547},{"NoteNumber":68,"Velocity":62,"Duration":99619,"SoundDuration":99619,"Delta":371751547},{"NoteNumber":49,"Velocity":45,"Duration":643235,"SoundDuration":643235,"Delta":371817960},{"NoteNumber":82,"Velocity":64,"Duration":103173,"SoundDuration":103173,"Delta":371884373},{"NoteNumber":70,"Velocity":59,"Duration":103173,"SoundDuration":103173,"Delta":371884373},{"NoteNumber":77,"Velocity":70,"Duration":439257,"SoundDuration":439257,"Delta":372021937},{"NoteNumber":74,"Velocity":70,"Duration":439257,"SoundDuration":439257,"Delta":372021937},{"NoteNumber":68,"Velocity":63,"Duration":439257,"SoundDuration":439257,"Delta":372021937},{"NoteNumber":65,"Velocity":63,"Duration":439257,"SoundDuration":439257,"Delta":372021937},{"NoteNumber":62,"Velocity":57,"Duration":439257,"SoundDuration":439257,"Delta":372021937},{"NoteNumber":59,"Velocity":57,"Duration":439257,"SoundDuration":439257,"Delta":372021937},{"NoteNumber":56,"Velocity":51,"Duration":439257,"SoundDuration":439257,"Delta":372021937},{"NoteNumber":63,"Velocity":79,"Duration":193978,"SoundDuration":193978,"Delta":372461195},{"NoteNumber":58,"Velocity":71,"Duration":193978,"SoundDuration":193978,"Delta":372461195},{"NoteNumber":54,"Velocity":71,"Duration":193978,"SoundDuration":193978,"Delta":372461195},{"NoteNumber":78,"Velocity":77,"Duration":96091,"SoundDuration":96091,"Delta":372591055},{"NoteNumber":82,"Velocity":77,"Duration":96091,"SoundDuration":96091,"Delta":372591055},{"NoteNumber":90,"Velocity":86,"Duration":96091,"SoundDuration":96091,"Delta":372591055},{"NoteNumber":87,"Velocity":86,"Duration":96091,"SoundDuration":96091,"Delta":372591055},{"NoteNumber":49,"Velocity":71,"Duration":191223,"SoundDuration":191223,"Delta":372655174},{"NoteNumber":92,"Velocity":81,"Duration":253856,"SoundDuration":253856,"Delta":372719118},{"NoteNumber":80,"Velocity":72,"Duration":253856,"SoundDuration":253856,"Delta":372719118},{"NoteNumber":63,"Velocity":79,"Duration":193643,"SoundDuration":193643,"Delta":372846397},{"NoteNumber":58,"Velocity":71,"Duration":193643,"SoundDuration":193643,"Delta":372846397},{"NoteNumber":54,"Velocity":71,"Duration":193643,"SoundDuration":193643,"Delta":372846397},{"NoteNumber":93,"Velocity":93,"Duration":100599,"SoundDuration":100599,"Delta":372972975},{"NoteNumber":90,"Velocity":93,"Duration":100599,"SoundDuration":100599,"Delta":372972975},{"NoteNumber":87,"Velocity":79,"Duration":100599,"SoundDuration":100599,"Delta":372972975},{"NoteNumber":81,"Velocity":79,"Duration":100599,"SoundDuration":100599,"Delta":372972975},{"NoteNumber":37,"Velocity":69,"Duration":207423,"SoundDuration":207423,"Delta":373040041},{"NoteNumber":94,"Velocity":86,"Duration":105268,"SoundDuration":105268,"Delta":373107107},{"NoteNumber":82,"Velocity":77,"Duration":105268,"SoundDuration":105268,"Delta":373107107},{"NoteNumber":99,"Velocity":94,"Duration":98033,"SoundDuration":98033,"Delta":373247465},{"NoteNumber":91,"Velocity":84,"Duration":98033,"SoundDuration":98033,"Delta":373247465},{"NoteNumber":87,"Velocity":84,"Duration":98033,"SoundDuration":98033,"Delta":373247465},{"NoteNumber":55,"Velocity":67,"Duration":194260,"SoundDuration":194260,"Delta":373247465},{"NoteNumber":58,"Velocity":67,"Duration":194260,"SoundDuration":194260,"Delta":373247465},{"NoteNumber":64,"Velocity":75,"Duration":194260,"SoundDuration":194260,"Delta":373247465},{"NoteNumber":98,"Velocity":87,"Duration":95916,"SoundDuration":95916,"Delta":373377782},{"NoteNumber":86,"Velocity":79,"Duration":95916,"SoundDuration":95916,"Delta":373377782},{"NoteNumber":49,"Velocity":64,"Duration":190434,"SoundDuration":190434,"Delta":373441726},{"NoteNumber":97,"Velocity":95,"Duration":95085,"SoundDuration":95085,"Delta":373505495},{"NoteNumber":85,"Velocity":84,"Duration":95085,"SoundDuration":95085,"Delta":373505495},{"NoteNumber":84,"Velocity":80,"Duration":94736,"SoundDuration":94736,"Delta":373632160},{"NoteNumber":96,"Velocity":89,"Duration":94736,"SoundDuration":94736,"Delta":373632160},{"NoteNumber":55,"Velocity":63,"Duration":189822,"SoundDuration":189822,"Delta":373632160},{"NoteNumber":58,"Velocity":63,"Duration":189822,"SoundDuration":189822,"Delta":373632160},{"NoteNumber":64,"Velocity":72,"Duration":189822,"SoundDuration":189822,"Delta":373632160},{"NoteNumber":83,"Velocity":81,"Duration":95261,"SoundDuration":95261,"Delta":373758563},{"NoteNumber":95,"Velocity":90,"Duration":95261,"SoundDuration":95261,"Delta":373758563},{"NoteNumber":37,"Velocity":63,"Duration":191572,"SoundDuration":191572,"Delta":373821982},{"NoteNumber":94,"Velocity":87,"Duration":95829,"SoundDuration":95829,"Delta":373885666},{"NoteNumber":82,"Velocity":79,"Duration":95829,"SoundDuration":95829,"Delta":373885666},{"NoteNumber":93,"Velocity":90,"Duration":97529,"SoundDuration":97529,"Delta":374013555},{"NoteNumber":88,"Velocity":90,"Duration":97529,"SoundDuration":97529,"Delta":374013555},{"NoteNumber":81,"Velocity":81,"Duration":97529,"SoundDuration":97529,"Delta":374013555},{"NoteNumber":64,"Velocity":64,"Duration":195058,"SoundDuration":195058,"Delta":374013555},{"NoteNumber":59,"Velocity":57,"Duration":195058,"SoundDuration":195058,"Delta":374013555},{"NoteNumber":56,"Velocity":57,"Duration":195058,"SoundDuration":195058,"Delta":374013555},{"NoteNumber":92,"Velocity":81,"Duration":97529,"SoundDuration":97529,"Delta":374143594},{"NoteNumber":80,"Velocity":72,"Duration":97529,"SoundDuration":97529,"Delta":374143594},{"NoteNumber":35,"Velocity":54,"Duration":195058,"SoundDuration":195058,"Delta":374208613},{"NoteNumber":85,"Velocity":79,"Duration":255856,"SoundDuration":255856,"Delta":374273633},{"NoteNumber":97,"Velocity":87,"Duration":255856,"SoundDuration":255856,"Delta":374273633},{"NoteNumber":63,"Velocity":55,"Duration":188726,"SoundDuration":188726,"Delta":374403672},{"NoteNumber":59,"Velocity":50,"Duration":188726,"SoundDuration":188726,"Delta":374403672},{"NoteNumber":57,"Velocity":50,"Duration":188726,"SoundDuration":188726,"Delta":374403672},{"NoteNumber":95,"Velocity":70,"Duration":251635,"SoundDuration":251635,"Delta":374529490},{"NoteNumber":87,"Velocity":70,"Duration":251635,"SoundDuration":251635,"Delta":374529490},{"NoteNumber":83,"Velocity":62,"Duration":251635,"SoundDuration":251635,"Delta":374529490},{"NoteNumber":47,"Velocity":44,"Duration":188726,"SoundDuration":188726,"Delta":374592398},{"NoteNumber":93,"Velocity":79,"Duration":94363,"SoundDuration":94363,"Delta":374655307},{"NoteNumber":81,"Velocity":70,"Duration":94363,"SoundDuration":94363,"Delta":374655307},{"NoteNumber":92,"Velocity":73,"Duration":99619,"SoundDuration":99619,"Delta":374781125},{"NoteNumber":88,"Velocity":73,"Duration":99619,"SoundDuration":99619,"Delta":374781125},{"NoteNumber":80,"Velocity":66,"Duration":99619,"SoundDuration":99619,"Delta":374781125},{"NoteNumber":64,"Velocity":52,"Duration":199238,"SoundDuration":199238,"Delta":374781125},{"NoteNumber":59,"Velocity":45,"Duration":199238,"SoundDuration":199238,"Delta":374781125},{"NoteNumber":56,"Velocity":45,"Duration":199238,"SoundDuration":199238,"Delta":374781125},{"NoteNumber":90,"Velocity":71,"Duration":99619,"SoundDuration":99619,"Delta":374913951},{"NoteNumber":78,"Velocity":63,"Duration":99619,"SoundDuration":99619,"Delta":374913951},{"NoteNumber":49,"Velocity":45,"Duration":203977,"SoundDuration":203977,"Delta":374980364},{"NoteNumber":92,"Velocity":67,"Duration":103173,"SoundDuration":103173,"Delta":375046777},{"NoteNumber":80,"Velocity":60,"Duration":103173,"SoundDuration":103173,"Delta":375046777},{"NoteNumber":88,"Velocity":67,"Duration":434514,"SoundDuration":434514,"Delta":375184341},{"NoteNumber":80,"Velocity":61,"Duration":434514,"SoundDuration":434514,"Delta":375184341},{"NoteNumber":76,"Velocity":61,"Duration":434514,"SoundDuration":434514,"Delta":375184341},{"NoteNumber":64,"Velocity":51,"Duration":434514,"SoundDuration":434514,"Delta":375184341},{"NoteNumber":71,"Velocity":57,"Duration":434514,"SoundDuration":434514,"Delta":375184341},{"NoteNumber":68,"Velocity":57,"Duration":434514,"SoundDuration":434514,"Delta":375184341},{"NoteNumber":59,"Velocity":51,"Duration":434514,"SoundDuration":434514,"Delta":375184341},{"NoteNumber":47,"Velocity":72,"Duration":95266,"SoundDuration":95266,"Delta":375618855},{"NoteNumber":52,"Velocity":81,"Duration":95266,"SoundDuration":95266,"Delta":375618855},{"NoteNumber":57,"Velocity":81,"Duration":95266,"SoundDuration":95266,"Delta":375618855},{"NoteNumber":61,"Velocity":63,"Duration":95266,"SoundDuration":95266,"Delta":375745877},{"NoteNumber":64,"Velocity":72,"Duration":95266,"SoundDuration":95266,"Delta":375745877},{"NoteNumber":73,"Velocity":65,"Duration":97851,"SoundDuration":97851,"Delta":375872899},{"NoteNumber":69,"Velocity":59,"Duration":97851,"SoundDuration":97851,"Delta":375872899},{"NoteNumber":85,"Velocity":94,"Duration":90663,"SoundDuration":90663,"Delta":376002898},{"NoteNumber":81,"Velocity":84,"Duration":90663,"SoundDuration":90663,"Delta":376002898},{"NoteNumber":72,"Velocity":61,"Duration":89957,"SoundDuration":89957,"Delta":376123658},{"NoteNumber":68,"Velocity":53,"Duration":89957,"SoundDuration":89957,"Delta":376123658},{"NoteNumber":69,"Velocity":47,"Duration":89223,"SoundDuration":89223,"Delta":376243455},{"NoteNumber":73,"Velocity":54,"Duration":89223,"SoundDuration":89223,"Delta":376243455},{"NoteNumber":68,"Velocity":72,"Duration":88575,"SoundDuration":88575,"Delta":376362288},{"NoteNumber":65,"Velocity":63,"Duration":88575,"SoundDuration":88575,"Delta":376362288},{"NoteNumber":66,"Velocity":55,"Duration":88575,"SoundDuration":88575,"Delta":376480389},{"NoteNumber":69,"Velocity":63,"Duration":88575,"SoundDuration":88575,"Delta":376480389},{"NoteNumber":72,"Velocity":62,"Duration":91806,"SoundDuration":91806,"Delta":376598490},{"NoteNumber":68,"Velocity":53,"Duration":91806,"SoundDuration":91806,"Delta":376598490},{"NoteNumber":69,"Velocity":66,"Duration":238815,"SoundDuration":238815,"Delta":376720899},{"NoteNumber":73,"Velocity":75,"Duration":89555,"SoundDuration":89555,"Delta":376720899},{"NoteNumber":76,"Velocity":72,"Duration":89555,"SoundDuration":89555,"Delta":376840307},{"NoteNumber":71,"Velocity":61,"Duration":89555,"SoundDuration":89555,"Delta":376959714},{"NoteNumber":75,"Velocity":66,"Duration":89555,"SoundDuration":89555,"Delta":376959714},{"NoteNumber":47,"Velocity":62,"Duration":94087,"SoundDuration":94087,"Delta":377079122},{"NoteNumber":52,"Velocity":69,"Duration":94087,"SoundDuration":94087,"Delta":377079122},{"NoteNumber":56,"Velocity":69,"Duration":94087,"SoundDuration":94087,"Delta":377079122},{"NoteNumber":59,"Velocity":61,"Duration":94087,"SoundDuration":94087,"Delta":377204572},{"NoteNumber":68,"Velocity":66,"Duration":94087,"SoundDuration":94087,"Delta":377204572},{"NoteNumber":71,"Velocity":62,"Duration":96351,"SoundDuration":96351,"Delta":377330021},{"NoteNumber":68,"Velocity":53,"Duration":96351,"SoundDuration":96351,"Delta":377330021},{"NoteNumber":80,"Velocity":84,"Duration":88276,"SoundDuration":88276,"Delta":377458490},{"NoteNumber":83,"Velocity":94,"Duration":88276,"SoundDuration":88276,"Delta":377458490},{"NoteNumber":64,"Velocity":56,"Duration":88666,"SoundDuration":88666,"Delta":377576285},{"NoteNumber":68,"Velocity":63,"Duration":88666,"SoundDuration":88666,"Delta":377576285},{"NoteNumber":66,"Velocity":52,"Duration":89062,"SoundDuration":89062,"Delta":377694582},{"NoteNumber":69,"Velocity":57,"Duration":89062,"SoundDuration":89062,"Delta":377694582},{"NoteNumber":68,"Velocity":61,"Duration":90759,"SoundDuration":90759,"Delta":377813379},{"NoteNumber":71,"Velocity":66,"Duration":90759,"SoundDuration":90759,"Delta":377813379},{"NoteNumber":69,"Velocity":52,"Duration":92040,"SoundDuration":92040,"Delta":377934621},{"NoteNumber":73,"Velocity":57,"Duration":92040,"SoundDuration":92040,"Delta":377934621},{"NoteNumber":71,"Velocity":54,"Duration":93404,"SoundDuration":93404,"Delta":378057591},{"NoteNumber":68,"Velocity":47,"Duration":93404,"SoundDuration":93404,"Delta":378057591},{"NoteNumber":64,"Velocity":66,"Duration":412125,"SoundDuration":412125,"Delta":378182390},{"NoteNumber":68,"Velocity":75,"Duration":412125,"SoundDuration":412125,"Delta":378182390},{"NoteNumber":59,"Velocity":47,"Duration":95266,"SoundDuration":95266,"Delta":378594515},{"NoteNumber":64,"Velocity":54,"Duration":95266,"SoundDuration":95266,"Delta":378594515},{"NoteNumber":69,"Velocity":54,"Duration":95266,"SoundDuration":95266,"Delta":378594515},{"NoteNumber":73,"Velocity":40,"Duration":95266,"SoundDuration":95266,"Delta":378721537},{"NoteNumber":76,"Velocity":44,"Duration":95266,"SoundDuration":95266,"Delta":378721537},{"NoteNumber":85,"Velocity":41,"Duration":97851,"SoundDuration":97851,"Delta":378848559},{"NoteNumber":81,"Velocity":41,"Duration":97851,"SoundDuration":97851,"Delta":378848559},{"NoteNumber":93,"Velocity":47,"Duration":90663,"SoundDuration":90663,"Delta":378978558},{"NoteNumber":97,"Velocity":54,"Duration":90663,"SoundDuration":90663,"Delta":378978558},{"NoteNumber":84,"Velocity":36,"Duration":89957,"SoundDuration":89957,"Delta":379099318},{"NoteNumber":80,"Velocity":32,"Duration":89957,"SoundDuration":89957,"Delta":379099318},{"NoteNumber":81,"Velocity":29,"Duration":89223,"SoundDuration":89223,"Delta":379219115},{"NoteNumber":85,"Velocity":33,"Duration":89223,"SoundDuration":89223,"Delta":379219115},{"NoteNumber":80,"Velocity":44,"Duration":88575,"SoundDuration":88575,"Delta":379337948},{"NoteNumber":77,"Velocity":40,"Duration":88575,"SoundDuration":88575,"Delta":379337948},{"NoteNumber":78,"Velocity":34,"Duration":88575,"SoundDuration":88575,"Delta":379456049},{"NoteNumber":81,"Velocity":37,"Duration":88575,"SoundDuration":88575,"Delta":379456049},{"NoteNumber":84,"Velocity":36,"Duration":91806,"SoundDuration":91806,"Delta":379574150},{"NoteNumber":80,"Velocity":33,"Duration":91806,"SoundDuration":91806,"Delta":379574150},{"NoteNumber":81,"Velocity":45,"Duration":238815,"SoundDuration":238815,"Delta":379696559},{"NoteNumber":85,"Velocity":45,"Duration":89555,"SoundDuration":89555,"Delta":379696559},{"NoteNumber":88,"Velocity":44,"Duration":89555,"SoundDuration":89555,"Delta":379815967},{"NoteNumber":83,"Velocity":42,"Duration":89555,"SoundDuration":89555,"Delta":379935374},{"NoteNumber":87,"Velocity":42,"Duration":89555,"SoundDuration":89555,"Delta":379935374},{"NoteNumber":59,"Velocity":36,"Duration":94087,"SoundDuration":94087,"Delta":380054782},{"NoteNumber":64,"Velocity":36,"Duration":94087,"SoundDuration":94087,"Delta":380054782},{"NoteNumber":68,"Velocity":43,"Duration":94087,"SoundDuration":94087,"Delta":380054782},{"NoteNumber":71,"Velocity":36,"Duration":94087,"SoundDuration":94087,"Delta":380180232},{"NoteNumber":76,"Velocity":42,"Duration":94087,"SoundDuration":94087,"Delta":380180232},{"NoteNumber":83,"Velocity":36,"Duration":96351,"SoundDuration":96351,"Delta":380305681},{"NoteNumber":80,"Velocity":33,"Duration":96351,"SoundDuration":96351,"Delta":380305681},{"NoteNumber":92,"Velocity":53,"Duration":88276,"SoundDuration":88276,"Delta":380434150},{"NoteNumber":95,"Velocity":62,"Duration":88276,"SoundDuration":88276,"Delta":380434150},{"NoteNumber":76,"Velocity":35,"Duration":88666,"SoundDuration":88666,"Delta":380551945},{"NoteNumber":80,"Velocity":40,"Duration":88666,"SoundDuration":88666,"Delta":380551945},{"NoteNumber":78,"Velocity":31,"Duration":89062,"SoundDuration":89062,"Delta":380670242},{"NoteNumber":81,"Velocity":35,"Duration":89062,"SoundDuration":89062,"Delta":380670242},{"NoteNumber":80,"Velocity":36,"Duration":90759,"SoundDuration":90759,"Delta":380789039},{"NoteNumber":83,"Velocity":42,"Duration":90759,"SoundDuration":90759,"Delta":380789039},{"NoteNumber":81,"Velocity":31,"Duration":92040,"SoundDuration":92040,"Delta":380910281},{"NoteNumber":85,"Velocity":35,"Duration":92040,"SoundDuration":92040,"Delta":380910281},{"NoteNumber":80,"Velocity":29,"Duration":93404,"SoundDuration":93404,"Delta":381033251},{"NoteNumber":83,"Velocity":33,"Duration":93404,"SoundDuration":93404,"Delta":381033251},{"NoteNumber":76,"Velocity":41,"Duration":364714,"SoundDuration":364714,"Delta":381158050},{"NoteNumber":80,"Velocity":45,"Duration":364714,"SoundDuration":364714,"Delta":381158050},{"NoteNumber":66,"Velocity":79,"Duration":192893,"SoundDuration":192893,"Delta":381595708},{"NoteNumber":61,"Velocity":71,"Duration":192893,"SoundDuration":192893,"Delta":381595708},{"NoteNumber":57,"Velocity":71,"Duration":192893,"SoundDuration":192893,"Delta":381595708},{"NoteNumber":69,"Velocity":69,"Duration":96091,"SoundDuration":96091,"Delta":381724482},{"NoteNumber":73,"Velocity":69,"Duration":96091,"SoundDuration":96091,"Delta":381724482},{"NoteNumber":81,"Velocity":77,"Duration":96091,"SoundDuration":96091,"Delta":381724482},{"NoteNumber":78,"Velocity":77,"Duration":96091,"SoundDuration":96091,"Delta":381724482},{"NoteNumber":52,"Velocity":71,"Duration":191223,"SoundDuration":191223,"Delta":381788601},{"NoteNumber":83,"Velocity":81,"Duration":253856,"SoundDuration":253856,"Delta":381852545},{"NoteNumber":71,"Velocity":81,"Duration":253856,"SoundDuration":253856,"Delta":381852545},{"NoteNumber":66,"Velocity":79,"Duration":193049,"SoundDuration":193049,"Delta":381979824},{"NoteNumber":61,"Velocity":71,"Duration":193049,"SoundDuration":193049,"Delta":381979824},{"NoteNumber":57,"Velocity":71,"Duration":193049,"SoundDuration":193049,"Delta":381979824},{"NoteNumber":84,"Velocity":89,"Duration":99707,"SoundDuration":99707,"Delta":382106402},{"NoteNumber":81,"Velocity":89,"Duration":99707,"SoundDuration":99707,"Delta":382106402},{"NoteNumber":78,"Velocity":80,"Duration":99707,"SoundDuration":99707,"Delta":382106402},{"NoteNumber":72,"Velocity":80,"Duration":99707,"SoundDuration":99707,"Delta":382106402},{"NoteNumber":40,"Velocity":69,"Duration":210177,"SoundDuration":210177,"Delta":382172874},{"NoteNumber":85,"Velocity":86,"Duration":107779,"SoundDuration":107779,"Delta":382239345},{"NoteNumber":73,"Velocity":77,"Duration":107779,"SoundDuration":107779,"Delta":382239345},{"NoteNumber":90,"Velocity":97,"Duration":98176,"SoundDuration":98176,"Delta":382383051},{"NoteNumber":81,"Velocity":87,"Duration":98176,"SoundDuration":98176,"Delta":382383051},{"NoteNumber":78,"Velocity":87,"Duration":98176,"SoundDuration":98176,"Delta":382383051},{"NoteNumber":56,"Velocity":71,"Duration":193831,"SoundDuration":193831,"Delta":382383051},{"NoteNumber":59,"Velocity":71,"Duration":193831,"SoundDuration":193831,"Delta":382383051},{"NoteNumber":66,"Velocity":80,"Duration":193831,"SoundDuration":193831,"Delta":382383051},{"NoteNumber":89,"Velocity":87,"Duration":95260,"SoundDuration":95260,"Delta":382513288},{"NoteNumber":77,"Velocity":79,"Duration":95260,"SoundDuration":95260,"Delta":382513288},{"NoteNumber":52,"Velocity":61,"Duration":189145,"SoundDuration":189145,"Delta":382576882},{"NoteNumber":88,"Velocity":95,"Duration":94446,"SoundDuration":94446,"Delta":382640128},{"NoteNumber":76,"Velocity":84,"Duration":94446,"SoundDuration":94446,"Delta":382640128},{"NoteNumber":75,"Velocity":76,"Duration":94363,"SoundDuration":94363,"Delta":382766028},{"NoteNumber":87,"Velocity":85,"Duration":94363,"SoundDuration":94363,"Delta":382766028},{"NoteNumber":56,"Velocity":63,"Duration":188469,"SoundDuration":188469,"Delta":382766028},{"NoteNumber":59,"Velocity":63,"Duration":188469,"SoundDuration":188469,"Delta":382766028},{"NoteNumber":66,"Velocity":72,"Duration":188469,"SoundDuration":188469,"Delta":382766028},{"NoteNumber":74,"Velocity":79,"Duration":94105,"SoundDuration":94105,"Delta":382891846},{"NoteNumber":86,"Velocity":87,"Duration":94105,"SoundDuration":94105,"Delta":382891846},{"NoteNumber":40,"Velocity":63,"Duration":189574,"SoundDuration":189574,"Delta":382954497},{"NoteNumber":85,"Velocity":87,"Duration":94867,"SoundDuration":94867,"Delta":383017406},{"NoteNumber":73,"Velocity":79,"Duration":94867,"SoundDuration":94867,"Delta":383017406},{"NoteNumber":84,"Velocity":86,"Duration":97529,"SoundDuration":97529,"Delta":383144072},{"NoteNumber":80,"Velocity":86,"Duration":97529,"SoundDuration":97529,"Delta":383144072},{"NoteNumber":72,"Velocity":77,"Duration":97529,"SoundDuration":97529,"Delta":383144072},{"NoteNumber":68,"Velocity":64,"Duration":195058,"SoundDuration":195058,"Delta":383144072},{"NoteNumber":64,"Velocity":57,"Duration":195058,"SoundDuration":195058,"Delta":383144072},{"NoteNumber":59,"Velocity":57,"Duration":195058,"SoundDuration":195058,"Delta":383144072},{"NoteNumber":83,"Velocity":79,"Duration":97529,"SoundDuration":97529,"Delta":383274111},{"NoteNumber":71,"Velocity":71,"Duration":97529,"SoundDuration":97529,"Delta":383274111},{"NoteNumber":52,"Velocity":54,"Duration":195058,"SoundDuration":195058,"Delta":383339130},{"NoteNumber":76,"Velocity":79,"Duration":255856,"SoundDuration":255856,"Delta":383404150},{"NoteNumber":88,"Velocity":87,"Duration":255856,"SoundDuration":255856,"Delta":383404150},{"NoteNumber":69,"Velocity":55,"Duration":188726,"SoundDuration":188726,"Delta":383534189},{"NoteNumber":66,"Velocity":50,"Duration":188726,"SoundDuration":188726,"Delta":383534189},{"NoteNumber":60,"Velocity":50,"Duration":188726,"SoundDuration":188726,"Delta":383534189},{"NoteNumber":87,"Velocity":73,"Duration":251635,"SoundDuration":251635,"Delta":383660007},{"NoteNumber":81,"Velocity":73,"Duration":251635,"SoundDuration":251635,"Delta":383660007},{"NoteNumber":75,"Velocity":66,"Duration":251635,"SoundDuration":251635,"Delta":383660007},{"NoteNumber":40,"Velocity":44,"Duration":188726,"SoundDuration":188726,"Delta":383722915},{"NoteNumber":74,"Velocity":77,"Duration":94363,"SoundDuration":94363,"Delta":383785824},{"NoteNumber":86,"Velocity":77,"Duration":94363,"SoundDuration":94363,"Delta":383785824},{"NoteNumber":85,"Velocity":72,"Duration":99619,"SoundDuration":99619,"Delta":383911642},{"NoteNumber":80,"Velocity":72,"Duration":99619,"SoundDuration":99619,"Delta":383911642},{"NoteNumber":73,"Velocity":64,"Duration":99619,"SoundDuration":99619,"Delta":383911642},{"NoteNumber":68,"Velocity":52,"Duration":199238,"SoundDuration":199238,"Delta":383911642},{"NoteNumber":64,"Velocity":45,"Duration":199238,"SoundDuration":199238,"Delta":383911642},{"NoteNumber":61,"Velocity":45,"Duration":199238,"SoundDuration":199238,"Delta":383911642},{"NoteNumber":83,"Velocity":70,"Duration":99619,"SoundDuration":99619,"Delta":384044468},{"NoteNumber":71,"Velocity":62,"Duration":99619,"SoundDuration":99619,"Delta":384044468},{"NoteNumber":52,"Velocity":45,"Duration":650856,"SoundDuration":650856,"Delta":384110881},{"NoteNumber":85,"Velocity":64,"Duration":103173,"SoundDuration":103173,"Delta":384177294},{"NoteNumber":73,"Velocity":59,"Duration":103173,"SoundDuration":103173,"Delta":384177294},{"NoteNumber":80,"Velocity":70,"Duration":446879,"SoundDuration":446879,"Delta":384314858},{"NoteNumber":77,"Velocity":70,"Duration":446879,"SoundDuration":446879,"Delta":384314858},{"NoteNumber":71,"Velocity":63,"Duration":446879,"SoundDuration":446879,"Delta":384314858},{"NoteNumber":68,"Velocity":63,"Duration":446879,"SoundDuration":446879,"Delta":384314858},{"NoteNumber":65,"Velocity":57,"Duration":446879,"SoundDuration":446879,"Delta":384314858},{"NoteNumber":62,"Velocity":57,"Duration":446879,"SoundDuration":446879,"Delta":384314858},{"NoteNumber":59,"Velocity":51,"Duration":446879,"SoundDuration":446879,"Delta":384314858},{"NoteNumber":66,"Velocity":79,"Duration":192893,"SoundDuration":192893,"Delta":384761737},{"NoteNumber":61,"Velocity":71,"Duration":192893,"SoundDuration":192893,"Delta":384761737},{"NoteNumber":57,"Velocity":71,"Duration":192893,"SoundDuration":192893,"Delta":384761737},{"NoteNumber":81,"Velocity":64,"Duration":96091,"SoundDuration":96091,"Delta":384890511},{"NoteNumber":85,"Velocity":64,"Duration":96091,"SoundDuration":96091,"Delta":384890511},{"NoteNumber":93,"Velocity":73,"Duration":96091,"SoundDuration":96091,"Delta":384890511},{"NoteNumber":90,"Velocity":73,"Duration":96091,"SoundDuration":96091,"Delta":384890511},{"NoteNumber":52,"Velocity":71,"Duration":191223,"SoundDuration":191223,"Delta":384954630},{"NoteNumber":95,"Velocity":76,"Duration":253856,"SoundDuration":253856,"Delta":385018574},{"NoteNumber":83,"Velocity":76,"Duration":253856,"SoundDuration":253856,"Delta":385018574},{"NoteNumber":66,"Velocity":79,"Duration":193049,"SoundDuration":193049,"Delta":385145853},{"NoteNumber":61,"Velocity":71,"Duration":193049,"SoundDuration":193049,"Delta":385145853},{"NoteNumber":57,"Velocity":71,"Duration":193049,"SoundDuration":193049,"Delta":385145853},{"NoteNumber":96,"Velocity":83,"Duration":99707,"SoundDuration":99707,"Delta":385272431},{"NoteNumber":93,"Velocity":83,"Duration":99707,"SoundDuration":99707,"Delta":385272431},{"NoteNumber":90,"Velocity":74,"Duration":99707,"SoundDuration":99707,"Delta":385272431},{"NoteNumber":84,"Velocity":74,"Duration":99707,"SoundDuration":99707,"Delta":385272431},{"NoteNumber":40,"Velocity":69,"Duration":210177,"SoundDuration":210177,"Delta":385338903},{"NoteNumber":97,"Velocity":76,"Duration":107779,"SoundDuration":107779,"Delta":385405374},{"NoteNumber":85,"Velocity":67,"Duration":107779,"SoundDuration":107779,"Delta":385405374},{"NoteNumber":102,"Velocity":84,"Duration":98176,"SoundDuration":98176,"Delta":385549080},{"NoteNumber":93,"Velocity":77,"Duration":98176,"SoundDuration":98176,"Delta":385549080},{"NoteNumber":90,"Velocity":77,"Duration":98176,"SoundDuration":98176,"Delta":385549080},{"NoteNumber":59,"Velocity":66,"Duration":193831,"SoundDuration":193831,"Delta":385549080},{"NoteNumber":63,"Velocity":66,"Duration":193831,"SoundDuration":193831,"Delta":385549080},{"NoteNumber":69,"Velocity":75,"Duration":193831,"SoundDuration":193831,"Delta":385549080},{"NoteNumber":101,"Velocity":80,"Duration":95260,"SoundDuration":95260,"Delta":385679317},{"NoteNumber":89,"Velocity":74,"Duration":95260,"SoundDuration":95260,"Delta":385679317},{"NoteNumber":52,"Velocity":61,"Duration":189145,"SoundDuration":189145,"Delta":385742911},{"NoteNumber":88,"Velocity":80,"Duration":94446,"SoundDuration":94446,"Delta":385806157},{"NoteNumber":100,"Velocity":87,"Duration":94446,"SoundDuration":94446,"Delta":385806157},{"NoteNumber":87,"Velocity":72,"Duration":94363,"SoundDuration":94363,"Delta":385932057},{"NoteNumber":99,"Velocity":81,"Duration":94363,"SoundDuration":94363,"Delta":385932057},{"NoteNumber":59,"Velocity":63,"Duration":188469,"SoundDuration":188469,"Delta":385932057},{"NoteNumber":63,"Velocity":63,"Duration":188469,"SoundDuration":188469,"Delta":385932057},{"NoteNumber":69,"Velocity":72,"Duration":188469,"SoundDuration":188469,"Delta":385932057},{"NoteNumber":86,"Velocity":74,"Duration":94105,"SoundDuration":94105,"Delta":386057875},{"NoteNumber":98,"Velocity":82,"Duration":94105,"SoundDuration":94105,"Delta":386057875},{"NoteNumber":40,"Velocity":63,"Duration":189574,"SoundDuration":189574,"Delta":386120526},{"NoteNumber":97,"Velocity":82,"Duration":94867,"SoundDuration":94867,"Delta":386183435},{"NoteNumber":85,"Velocity":74,"Duration":94867,"SoundDuration":94867,"Delta":386183435},{"NoteNumber":96,"Velocity":81,"Duration":97529,"SoundDuration":97529,"Delta":386310101},{"NoteNumber":92,"Velocity":81,"Duration":97529,"SoundDuration":97529,"Delta":386310101},{"NoteNumber":84,"Velocity":73,"Duration":97529,"SoundDuration":97529,"Delta":386310101},{"NoteNumber":68,"Velocity":64,"Duration":195058,"SoundDuration":195058,"Delta":386310101},{"NoteNumber":64,"Velocity":57,"Duration":195058,"SoundDuration":195058,"Delta":386310101},{"NoteNumber":59,"Velocity":57,"Duration":195058,"SoundDuration":195058,"Delta":386310101},{"NoteNumber":95,"Velocity":74,"Duration":97529,"SoundDuration":97529,"Delta":386440140},{"NoteNumber":83,"Velocity":66,"Duration":97529,"SoundDuration":97529,"Delta":386440140},{"NoteNumber":52,"Velocity":54,"Duration":195058,"SoundDuration":195058,"Delta":386505159},{"NoteNumber":88,"Velocity":74,"Duration":255856,"SoundDuration":255856,"Delta":386570179},{"NoteNumber":100,"Velocity":82,"Duration":255856,"SoundDuration":255856,"Delta":386570179},{"NoteNumber":69,"Velocity":55,"Duration":188726,"SoundDuration":188726,"Delta":386700218},{"NoteNumber":66,"Velocity":50,"Duration":188726,"SoundDuration":188726,"Delta":386700218},{"NoteNumber":60,"Velocity":50,"Duration":188726,"SoundDuration":188726,"Delta":386700218},{"NoteNumber":99,"Velocity":70,"Duration":251635,"SoundDuration":251635,"Delta":386826036},{"NoteNumber":93,"Velocity":70,"Duration":251635,"SoundDuration":251635,"Delta":386826036},{"NoteNumber":87,"Velocity":63,"Duration":251635,"SoundDuration":251635,"Delta":386826036},{"NoteNumber":40,"Velocity":44,"Duration":188726,"SoundDuration":188726,"Delta":386888944},{"NoteNumber":86,"Velocity":73,"Duration":94363,"SoundDuration":94363,"Delta":386951853},{"NoteNumber":98,"Velocity":73,"Duration":94363,"SoundDuration":94363,"Delta":386951853},{"NoteNumber":97,"Velocity":67,"Duration":99619,"SoundDuration":99619,"Delta":387077671},{"NoteNumber":92,"Velocity":67,"Duration":99619,"SoundDuration":99619,"Delta":387077671},{"NoteNumber":85,"Velocity":61,"Duration":99619,"SoundDuration":99619,"Delta":387077671},{"NoteNumber":68,"Velocity":52,"Duration":199238,"SoundDuration":199238,"Delta":387077671},{"NoteNumber":64,"Velocity":45,"Duration":199238,"SoundDuration":199238,"Delta":387077671},{"NoteNumber":61,"Velocity":45,"Duration":199238,"SoundDuration":199238,"Delta":387077671},{"NoteNumber":95,"Velocity":65,"Duration":99619,"SoundDuration":99619,"Delta":387210497},{"NoteNumber":83,"Velocity":57,"Duration":99619,"SoundDuration":99619,"Delta":387210497},{"NoteNumber":52,"Velocity":45,"Duration":203977,"SoundDuration":203977,"Delta":387276910},{"NoteNumber":97,"Velocity":61,"Duration":103173,"SoundDuration":103173,"Delta":387343323},{"NoteNumber":85,"Velocity":55,"Duration":103173,"SoundDuration":103173,"Delta":387343323},{"NoteNumber":92,"Velocity":57,"Duration":439257,"SoundDuration":439257,"Delta":387480887},{"NoteNumber":89,"Velocity":57,"Duration":439257,"SoundDuration":439257,"Delta":387480887},{"NoteNumber":83,"Velocity":54,"Duration":439257,"SoundDuration":439257,"Delta":387480887},{"NoteNumber":80,"Velocity":54,"Duration":439257,"SoundDuration":439257,"Delta":387480887},{"NoteNumber":62,"Velocity":45,"Duration":439257,"SoundDuration":439257,"Delta":387480887},{"NoteNumber":74,"Velocity":51,"Duration":439257,"SoundDuration":439257,"Delta":387480887},{"NoteNumber":71,"Velocity":51,"Duration":439257,"SoundDuration":439257,"Delta":387480887},{"NoteNumber":65,"Velocity":45,"Duration":439257,"SoundDuration":439257,"Delta":387480887},{"NoteNumber":44,"Velocity":47,"Duration":104241,"SoundDuration":104241,"Delta":387920145},{"NoteNumber":37,"Velocity":41,"Duration":104241,"SoundDuration":104241,"Delta":387920145},{"NoteNumber":54,"Velocity":47,"Duration":92009,"SoundDuration":92009,"Delta":388055227},{"NoteNumber":49,"Velocity":47,"Duration":92009,"SoundDuration":92009,"Delta":388055227},{"NoteNumber":45,"Velocity":36,"Duration":92009,"SoundDuration":92009,"Delta":388055227},{"NoteNumber":53,"Velocity":47,"Duration":91248,"SoundDuration":91248,"Delta":388177822},{"NoteNumber":37,"Velocity":41,"Duration":91248,"SoundDuration":91248,"Delta":388177822},{"NoteNumber":57,"Velocity":54,"Duration":90623,"SoundDuration":90623,"Delta":388299403},{"NoteNumber":54,"Velocity":54,"Duration":90623,"SoundDuration":90623,"Delta":388299403},{"NoteNumber":45,"Velocity":36,"Duration":90623,"SoundDuration":90623,"Delta":388299403},{"NoteNumber":56,"Velocity":52,"Duration":90623,"SoundDuration":90623,"Delta":388420234},{"NoteNumber":37,"Velocity":43,"Duration":90623,"SoundDuration":90623,"Delta":388420234},{"NoteNumber":57,"Velocity":52,"Duration":96161,"SoundDuration":96161,"Delta":388541065},{"NoteNumber":61,"Velocity":52,"Duration":96161,"SoundDuration":96161,"Delta":388541065},{"NoteNumber":45,"Velocity":40,"Duration":96161,"SoundDuration":96161,"Delta":388541065},{"NoteNumber":59,"Velocity":52,"Duration":90623,"SoundDuration":90623,"Delta":388669281},{"NoteNumber":37,"Velocity":45,"Duration":90623,"SoundDuration":90623,"Delta":388669281},{"NoteNumber":60,"Velocity":46,"Duration":90623,"SoundDuration":90623,"Delta":388790113},{"NoteNumber":63,"Velocity":60,"Duration":90623,"SoundDuration":90623,"Delta":388790113},{"NoteNumber":44,"Velocity":41,"Duration":90623,"SoundDuration":90623,"Delta":388790113},{"NoteNumber":58,"Velocity":41,"Duration":90623,"SoundDuration":90623,"Delta":388910944},{"NoteNumber":61,"Velocity":52,"Duration":90623,"SoundDuration":90623,"Delta":388910944},{"NoteNumber":49,"Velocity":41,"Duration":90623,"SoundDuration":90623,"Delta":388910944},{"NoteNumber":56,"Velocity":41,"Duration":89680,"SoundDuration":89680,"Delta":389031775},{"NoteNumber":60,"Velocity":52,"Duration":89680,"SoundDuration":89680,"Delta":389031775},{"NoteNumber":56,"Velocity":44,"Duration":89680,"SoundDuration":89680,"Delta":389031775},{"NoteNumber":55,"Velocity":52,"Duration":91039,"SoundDuration":91039,"Delta":389151621},{"NoteNumber":49,"Velocity":41,"Duration":91039,"SoundDuration":91039,"Delta":389151621},{"NoteNumber":54,"Velocity":51,"Duration":92181,"SoundDuration":92181,"Delta":389273203},{"NoteNumber":58,"Velocity":51,"Duration":92181,"SoundDuration":92181,"Delta":389273203},{"NoteNumber":44,"Velocity":41,"Duration":92181,"SoundDuration":92181,"Delta":389273203},{"NoteNumber":52,"Velocity":51,"Duration":92395,"SoundDuration":92395,"Delta":389396226},{"NoteNumber":37,"Velocity":41,"Duration":92395,"SoundDuration":92395,"Delta":389396226},{"NoteNumber":53,"Velocity":47,"Duration":91839,"SoundDuration":91839,"Delta":389519334},{"NoteNumber":56,"Velocity":47,"Duration":91839,"SoundDuration":91839,"Delta":389519334},{"NoteNumber":44,"Velocity":36,"Duration":91839,"SoundDuration":91839,"Delta":389519334},{"NoteNumber":55,"Velocity":47,"Duration":91248,"SoundDuration":91248,"Delta":389641673},{"NoteNumber":37,"Velocity":41,"Duration":91248,"SoundDuration":91248,"Delta":389641673},{"NoteNumber":56,"Velocity":56,"Duration":90623,"SoundDuration":90623,"Delta":389763254},{"NoteNumber":60,"Velocity":56,"Duration":90623,"SoundDuration":90623,"Delta":389763254},{"NoteNumber":44,"Velocity":36,"Duration":90623,"SoundDuration":90623,"Delta":389763254},{"NoteNumber":59,"Velocity":53,"Duration":90623,"SoundDuration":90623,"Delta":389884086},{"NoteNumber":37,"Velocity":43,"Duration":90623,"SoundDuration":90623,"Delta":389884086},{"NoteNumber":60,"Velocity":53,"Duration":96161,"SoundDuration":96161,"Delta":390004917},{"NoteNumber":63,"Velocity":53,"Duration":96161,"SoundDuration":96161,"Delta":390004917},{"NoteNumber":44,"Velocity":40,"Duration":96161,"SoundDuration":96161,"Delta":390004917},{"NoteNumber":60,"Velocity":52,"Duration":90623,"SoundDuration":90623,"Delta":390133133},{"NoteNumber":37,"Velocity":45,"Duration":90623,"SoundDuration":90623,"Delta":390133133},{"NoteNumber":61,"Velocity":46,"Duration":90623,"SoundDuration":90623,"Delta":390253964},{"NoteNumber":65,"Velocity":60,"Duration":90623,"SoundDuration":90623,"Delta":390253964},{"NoteNumber":44,"Velocity":41,"Duration":90623,"SoundDuration":90623,"Delta":390253964},{"NoteNumber":60,"Velocity":44,"Duration":90581,"SoundDuration":90581,"Delta":390374795},{"NoteNumber":63,"Velocity":55,"Duration":90581,"SoundDuration":90581,"Delta":390374795},{"NoteNumber":49,"Velocity":41,"Duration":90581,"SoundDuration":90581,"Delta":390374795},{"NoteNumber":58,"Velocity":45,"Duration":90664,"SoundDuration":90664,"Delta":390495459},{"NoteNumber":61,"Velocity":57,"Duration":90664,"SoundDuration":90664,"Delta":390495459},{"NoteNumber":56,"Velocity":44,"Duration":90664,"SoundDuration":90664,"Delta":390495459},{"NoteNumber":57,"Velocity":53,"Duration":91627,"SoundDuration":91627,"Delta":390616455},{"NoteNumber":49,"Velocity":41,"Duration":91627,"SoundDuration":91627,"Delta":390616455},{"NoteNumber":56,"Velocity":53,"Duration":92568,"SoundDuration":92568,"Delta":390738796},{"NoteNumber":60,"Velocity":53,"Duration":92568,"SoundDuration":92568,"Delta":390738796},{"NoteNumber":44,"Velocity":41,"Duration":92568,"SoundDuration":92568,"Delta":390738796},{"NoteNumber":53,"Velocity":51,"Duration":90464,"SoundDuration":90464,"Delta":390862422},{"NoteNumber":37,"Velocity":41,"Duration":90464,"SoundDuration":90464,"Delta":390862422},{"NoteNumber":54,"Velocity":47,"Duration":89949,"SoundDuration":89949,"Delta":390982950},{"NoteNumber":58,"Velocity":47,"Duration":89949,"SoundDuration":89949,"Delta":390982950},{"NoteNumber":44,"Velocity":36,"Duration":89949,"SoundDuration":89949,"Delta":390982950},{"NoteNumber":57,"Velocity":47,"Duration":89416,"SoundDuration":89416,"Delta":391102798},{"NoteNumber":37,"Velocity":41,"Duration":89416,"SoundDuration":89416,"Delta":391102798},{"NoteNumber":58,"Velocity":54,"Duration":88939,"SoundDuration":88939,"Delta":391221960},{"NoteNumber":61,"Velocity":54,"Duration":88939,"SoundDuration":88939,"Delta":391221960},{"NoteNumber":44,"Velocity":36,"Duration":88939,"SoundDuration":88939,"Delta":391221960},{"NoteNumber":60,"Velocity":52,"Duration":88939,"SoundDuration":88939,"Delta":391340547},{"NoteNumber":37,"Velocity":43,"Duration":88939,"SoundDuration":88939,"Delta":391340547},{"NoteNumber":65,"Velocity":52,"Duration":94840,"SoundDuration":94840,"Delta":391459133},{"NoteNumber":61,"Velocity":52,"Duration":94840,"SoundDuration":94840,"Delta":391459133},{"NoteNumber":44,"Velocity":40,"Duration":94840,"SoundDuration":94840,"Delta":391459133},{"NoteNumber":62,"Velocity":52,"Duration":88939,"SoundDuration":88939,"Delta":391585587},{"NoteNumber":37,"Velocity":45,"Duration":88939,"SoundDuration":88939,"Delta":391585587},{"NoteNumber":66,"Velocity":60,"Duration":88939,"SoundDuration":88939,"Delta":391704174},{"NoteNumber":63,"Velocity":46,"Duration":88939,"SoundDuration":88939,"Delta":391704174},{"NoteNumber":44,"Velocity":41,"Duration":88939,"SoundDuration":88939,"Delta":391704174},{"NoteNumber":65,"Velocity":52,"Duration":88939,"SoundDuration":88939,"Delta":391822760},{"NoteNumber":61,"Velocity":41,"Duration":88939,"SoundDuration":88939,"Delta":391822760},{"NoteNumber":49,"Velocity":41,"Duration":88939,"SoundDuration":88939,"Delta":391822760},{"NoteNumber":63,"Velocity":52,"Duration":88475,"SoundDuration":88475,"Delta":391941347},{"NoteNumber":60,"Velocity":41,"Duration":88475,"SoundDuration":88475,"Delta":391941347},{"NoteNumber":56,"Velocity":44,"Duration":88475,"SoundDuration":88475,"Delta":391941347},{"NoteNumber":59,"Velocity":52,"Duration":89071,"SoundDuration":89071,"Delta":392059420},{"NoteNumber":49,"Velocity":41,"Duration":89071,"SoundDuration":89071,"Delta":392059420},{"NoteNumber":61,"Velocity":51,"Duration":93703,"SoundDuration":93703,"Delta":392178289},{"NoteNumber":58,"Velocity":51,"Duration":93703,"SoundDuration":93703,"Delta":392178289},{"NoteNumber":44,"Velocity":41,"Duration":93703,"SoundDuration":93703,"Delta":392178289},{"NoteNumber":64,"Velocity":52,"Duration":88939,"SoundDuration":88939,"Delta":392302458},{"NoteNumber":37,"Velocity":45,"Duration":88939,"SoundDuration":88939,"Delta":392302458},{"NoteNumber":68,"Velocity":60,"Duration":88939,"SoundDuration":88939,"Delta":392421045},{"NoteNumber":65,"Velocity":46,"Duration":88939,"SoundDuration":88939,"Delta":392421045},{"NoteNumber":44,"Velocity":41,"Duration":88939,"SoundDuration":88939,"Delta":392421045},{"NoteNumber":66,"Velocity":52,"Duration":88939,"SoundDuration":88939,"Delta":392539631},{"NoteNumber":63,"Velocity":41,"Duration":88939,"SoundDuration":88939,"Delta":392539631},{"NoteNumber":49,"Velocity":41,"Duration":88939,"SoundDuration":88939,"Delta":392539631},{"NoteNumber":65,"Velocity":52,"Duration":88475,"SoundDuration":88475,"Delta":392658218},{"NoteNumber":61,"Velocity":41,"Duration":88475,"SoundDuration":88475,"Delta":392658218},{"NoteNumber":56,"Velocity":44,"Duration":88475,"SoundDuration":88475,"Delta":392658218},{"NoteNumber":59,"Velocity":52,"Duration":89071,"SoundDuration":89071,"Delta":392776291},{"NoteNumber":49,"Velocity":41,"Duration":89071,"SoundDuration":89071,"Delta":392776291},{"NoteNumber":63,"Velocity":51,"Duration":91145,"SoundDuration":91145,"Delta":392895160},{"NoteNumber":60,"Velocity":51,"Duration":91145,"SoundDuration":91145,"Delta":392895160},{"NoteNumber":44,"Velocity":41,"Duration":91145,"SoundDuration":91145,"Delta":392895160},{"NoteNumber":65,"Velocity":52,"Duration":88939,"SoundDuration":88939,"Delta":393017801},{"NoteNumber":37,"Velocity":45,"Duration":88939,"SoundDuration":88939,"Delta":393017801},{"NoteNumber":70,"Velocity":60,"Duration":88939,"SoundDuration":88939,"Delta":393136388},{"NoteNumber":66,"Velocity":46,"Duration":88939,"SoundDuration":88939,"Delta":393136388},{"NoteNumber":44,"Velocity":41,"Duration":88939,"SoundDuration":88939,"Delta":393136388},{"NoteNumber":68,"Velocity":52,"Duration":88939,"SoundDuration":88939,"Delta":393254974},{"NoteNumber":65,"Velocity":41,"Duration":88939,"SoundDuration":88939,"Delta":393254974},{"NoteNumber":49,"Velocity":41,"Duration":88939,"SoundDuration":88939,"Delta":393254974},{"NoteNumber":66,"Velocity":52,"Duration":88475,"SoundDuration":88475,"Delta":393373561},{"NoteNumber":63,"Velocity":41,"Duration":88475,"SoundDuration":88475,"Delta":393373561},{"NoteNumber":56,"Velocity":44,"Duration":88475,"SoundDuration":88475,"Delta":393373561},{"NoteNumber":62,"Velocity":52,"Duration":89071,"SoundDuration":89071,"Delta":393491634},{"NoteNumber":49,"Velocity":41,"Duration":89071,"SoundDuration":89071,"Delta":393491634},{"NoteNumber":65,"Velocity":51,"Duration":89715,"SoundDuration":89715,"Delta":393610503},{"NoteNumber":61,"Velocity":51,"Duration":89715,"SoundDuration":89715,"Delta":393610503},{"NoteNumber":44,"Velocity":41,"Duration":89715,"SoundDuration":89715,"Delta":393610503},{"NoteNumber":62,"Velocity":53,"Duration":88786,"SoundDuration":88786,"Delta":393730260},{"NoteNumber":37,"Velocity":43,"Duration":88786,"SoundDuration":88786,"Delta":393730260},{"NoteNumber":66,"Velocity":50,"Duration":88283,"SoundDuration":88283,"Delta":393848550},{"NoteNumber":62,"Velocity":50,"Duration":88283,"SoundDuration":88283,"Delta":393848550},{"NoteNumber":49,"Velocity":37,"Duration":88283,"SoundDuration":88283,"Delta":393848550},{"NoteNumber":65,"Velocity":50,"Duration":87760,"SoundDuration":87760,"Delta":393966179},{"NoteNumber":57,"Velocity":64,"Duration":233333,"SoundDuration":233333,"Delta":393966179},{"NoteNumber":69,"Velocity":57,"Duration":87283,"SoundDuration":87283,"Delta":394083134},{"NoteNumber":66,"Velocity":57,"Duration":87283,"SoundDuration":87283,"Delta":394083134},{"NoteNumber":45,"Velocity":39,"Duration":87283,"SoundDuration":87283,"Delta":394083134},{"NoteNumber":68,"Velocity":53,"Duration":87283,"SoundDuration":87283,"Delta":394199513},{"NoteNumber":54,"Velocity":62,"Duration":240498,"SoundDuration":240498,"Delta":394199513},{"NoteNumber":70,"Velocity":54,"Duration":93090,"SoundDuration":93090,"Delta":394315891},{"NoteNumber":74,"Velocity":54,"Duration":93090,"SoundDuration":93090,"Delta":394315891},{"NoteNumber":42,"Velocity":42,"Duration":93090,"SoundDuration":93090,"Delta":394315891},{"NoteNumber":73,"Velocity":54,"Duration":87283,"SoundDuration":87283,"Delta":394440012},{"NoteNumber":37,"Velocity":47,"Duration":87283,"SoundDuration":87283,"Delta":394440012},{"NoteNumber":74,"Velocity":50,"Duration":87283,"SoundDuration":87283,"Delta":394556390},{"NoteNumber":78,"Velocity":63,"Duration":87283,"SoundDuration":87283,"Delta":394556390},{"NoteNumber":49,"Velocity":43,"Duration":87283,"SoundDuration":87283,"Delta":394556390},{"NoteNumber":73,"Velocity":44,"Duration":87283,"SoundDuration":87283,"Delta":394672768},{"NoteNumber":76,"Velocity":54,"Duration":87283,"SoundDuration":87283,"Delta":394672768},{"NoteNumber":62,"Velocity":71,"Duration":232265,"SoundDuration":232265,"Delta":394672768},{"NoteNumber":71,"Velocity":44,"Duration":86837,"SoundDuration":86837,"Delta":394789146},{"NoteNumber":74,"Velocity":54,"Duration":86837,"SoundDuration":86837,"Delta":394789146},{"NoteNumber":50,"Velocity":45,"Duration":86837,"SoundDuration":86837,"Delta":394789146},{"NoteNumber":70,"Velocity":55,"Duration":87422,"SoundDuration":87422,"Delta":394905034},{"NoteNumber":66,"Velocity":66,"Duration":234209,"SoundDuration":234209,"Delta":394905034},{"NoteNumber":69,"Velocity":54,"Duration":88055,"SoundDuration":88055,"Delta":395021702},{"NoteNumber":73,"Velocity":54,"Duration":88055,"SoundDuration":88055,"Delta":395021702},{"NoteNumber":54,"Velocity":46,"Duration":88055,"SoundDuration":88055,"Delta":395021702},{"NoteNumber":67,"Velocity":59,"Duration":88786,"SoundDuration":88786,"Delta":395139243},{"NoteNumber":37,"Velocity":45,"Duration":88786,"SoundDuration":88786,"Delta":395139243},{"NoteNumber":68,"Velocity":54,"Duration":88283,"SoundDuration":88283,"Delta":395257533},{"NoteNumber":71,"Velocity":54,"Duration":88283,"SoundDuration":88283,"Delta":395257533},{"NoteNumber":49,"Velocity":42,"Duration":88283,"SoundDuration":88283,"Delta":395257533},{"NoteNumber":70,"Velocity":54,"Duration":87760,"SoundDuration":87760,"Delta":395375162},{"NoteNumber":59,"Velocity":76,"Duration":233333,"SoundDuration":233333,"Delta":395375162},{"NoteNumber":71,"Velocity":65,"Duration":87283,"SoundDuration":87283,"Delta":395492117},{"NoteNumber":74,"Velocity":65,"Duration":87283,"SoundDuration":87283,"Delta":395492117},{"NoteNumber":47,"Velocity":43,"Duration":87283,"SoundDuration":87283,"Delta":395492117},{"NoteNumber":73,"Velocity":62,"Duration":87283,"SoundDuration":87283,"Delta":395608495},{"NoteNumber":56,"Velocity":71,"Duration":240498,"SoundDuration":240498,"Delta":395608495},{"NoteNumber":74,"Velocity":62,"Duration":93090,"SoundDuration":93090,"Delta":395724874},{"NoteNumber":78,"Velocity":62,"Duration":93090,"SoundDuration":93090,"Delta":395724874},{"NoteNumber":44,"Velocity":45,"Duration":93090,"SoundDuration":93090,"Delta":395724874},{"NoteNumber":76,"Velocity":61,"Duration":87283,"SoundDuration":87283,"Delta":395848994},{"NoteNumber":37,"Velocity":53,"Duration":87283,"SoundDuration":87283,"Delta":395848994},{"NoteNumber":77,"Velocity":54,"Duration":87283,"SoundDuration":87283,"Delta":395965373},{"NoteNumber":80,"Velocity":69,"Duration":87283,"SoundDuration":87283,"Delta":395965373},{"NoteNumber":49,"Velocity":46,"Duration":87283,"SoundDuration":87283,"Delta":395965373},{"NoteNumber":74,"Velocity":52,"Duration":87283,"SoundDuration":87283,"Delta":396081751},{"NoteNumber":78,"Velocity":65,"Duration":87283,"SoundDuration":87283,"Delta":396081751},{"NoteNumber":61,"Velocity":80,"Duration":232265,"SoundDuration":232265,"Delta":396081751},{"NoteNumber":73,"Velocity":53,"Duration":86837,"SoundDuration":86837,"Delta":396198129},{"NoteNumber":77,"Velocity":67,"Duration":232555,"SoundDuration":232555,"Delta":396198129},{"NoteNumber":49,"Velocity":51,"Duration":86837,"SoundDuration":86837,"Delta":396198129},{"NoteNumber":72,"Velocity":63,"Duration":87422,"SoundDuration":87422,"Delta":396314016},{"NoteNumber":65,"Velocity":71,"Duration":240466,"SoundDuration":240466,"Delta":396314016},{"NoteNumber":71,"Velocity":62,"Duration":93703,"SoundDuration":93703,"Delta":396430685},{"NoteNumber":74,"Velocity":62,"Duration":93703,"SoundDuration":93703,"Delta":396430685},{"NoteNumber":53,"Velocity":47,"Duration":93703,"SoundDuration":93703,"Delta":396430685},{"NoteNumber":68,"Velocity":59,"Duration":88083,"SoundDuration":88083,"Delta":396554483},{"NoteNumber":66,"Velocity":79,"Duration":353922,"SoundDuration":353922,"Delta":396554483},{"NoteNumber":57,"Velocity":79,"Duration":88083,"SoundDuration":88083,"Delta":396554483},{"NoteNumber":69,"Velocity":61,"Duration":88083,"SoundDuration":88083,"Delta":396671928},{"NoteNumber":73,"Velocity":61,"Duration":88083,"SoundDuration":88083,"Delta":396671928},{"NoteNumber":61,"Velocity":71,"Duration":88083,"SoundDuration":88083,"Delta":396671928},{"NoteNumber":72,"Velocity":61,"Duration":89195,"SoundDuration":89195,"Delta":396789372},{"NoteNumber":54,"Velocity":71,"Duration":89195,"SoundDuration":89195,"Delta":396789372},{"NoteNumber":73,"Velocity":72,"Duration":87385,"SoundDuration":87385,"Delta":396908405},{"NoteNumber":78,"Velocity":72,"Duration":87385,"SoundDuration":87385,"Delta":396908405},{"NoteNumber":37,"Velocity":81,"Duration":357148,"SoundDuration":357148,"Delta":396908405},{"NoteNumber":49,"Velocity":81,"Duration":357148,"SoundDuration":357148,"Delta":396908405},{"NoteNumber":77,"Velocity":66,"Duration":87385,"SoundDuration":87385,"Delta":397024919},{"NoteNumber":78,"Velocity":67,"Duration":93090,"SoundDuration":93090,"Delta":397141433},{"NoteNumber":81,"Velocity":67,"Duration":93090,"SoundDuration":93090,"Delta":397141433},{"NoteNumber":73,"Velocity":63,"Duration":88436,"SoundDuration":88436,"Delta":397265554},{"NoteNumber":59,"Velocity":81,"Duration":88436,"SoundDuration":88436,"Delta":397265554},{"NoteNumber":66,"Velocity":81,"Duration":355667,"SoundDuration":355667,"Delta":397265554},{"NoteNumber":74,"Velocity":61,"Duration":88436,"SoundDuration":88436,"Delta":397383469},{"NoteNumber":78,"Velocity":61,"Duration":88436,"SoundDuration":88436,"Delta":397383469},{"NoteNumber":62,"Velocity":75,"Duration":88436,"SoundDuration":88436,"Delta":397383469},{"NoteNumber":77,"Velocity":61,"Duration":89877,"SoundDuration":89877,"Delta":397501384},{"NoteNumber":54,"Velocity":75,"Duration":89877,"SoundDuration":89877,"Delta":397501384},{"NoteNumber":78,"Velocity":72,"Duration":88436,"SoundDuration":88436,"Delta":397621221},{"NoteNumber":83,"Velocity":72,"Duration":88436,"SoundDuration":88436,"Delta":397621221},{"NoteNumber":37,"Velocity":81,"Duration":359951,"SoundDuration":359951,"Delta":397621221},{"NoteNumber":49,"Velocity":81,"Duration":359951,"SoundDuration":359951,"Delta":397621221},{"NoteNumber":82,"Velocity":66,"Duration":88436,"SoundDuration":88436,"Delta":397739137},{"NoteNumber":83,"Velocity":67,"Duration":93090,"SoundDuration":93090,"Delta":397857052},{"NoteNumber":86,"Velocity":67,"Duration":93090,"SoundDuration":93090,"Delta":397857052},{"NoteNumber":79,"Velocity":62,"Duration":86698,"SoundDuration":86698,"Delta":397981173},{"NoteNumber":71,"Velocity":81,"Duration":349921,"SoundDuration":349921,"Delta":397981173},{"NoteNumber":62,"Velocity":81,"Duration":86698,"SoundDuration":86698,"Delta":397981173},{"NoteNumber":80,"Velocity":63,"Duration":86698,"SoundDuration":86698,"Delta":398096771},{"NoteNumber":83,"Velocity":63,"Duration":86698,"SoundDuration":86698,"Delta":398096771},{"NoteNumber":66,"Velocity":74,"Duration":86698,"SoundDuration":86698,"Delta":398096771},{"NoteNumber":82,"Velocity":63,"Duration":88887,"SoundDuration":88887,"Delta":398212369},{"NoteNumber":56,"Velocity":74,"Duration":88887,"SoundDuration":88887,"Delta":398212369},{"NoteNumber":83,"Velocity":75,"Duration":87385,"SoundDuration":87385,"Delta":398331094},{"NoteNumber":86,"Velocity":75,"Duration":87385,"SoundDuration":87385,"Delta":398331094},{"NoteNumber":37,"Velocity":84,"Duration":357148,"SoundDuration":357148,"Delta":398331094},{"NoteNumber":49,"Velocity":84,"Duration":357148,"SoundDuration":357148,"Delta":398331094},{"NoteNumber":85,"Velocity":70,"Duration":87385,"SoundDuration":87385,"Delta":398447608},{"NoteNumber":86,"Velocity":71,"Duration":93090,"SoundDuration":93090,"Delta":398564122},{"NoteNumber":90,"Velocity":71,"Duration":93090,"SoundDuration":93090,"Delta":398564122},{"NoteNumber":83,"Velocity":71,"Duration":87385,"SoundDuration":87385,"Delta":398688243},{"NoteNumber":63,"Velocity":89,"Duration":87385,"SoundDuration":87385,"Delta":398688243},{"NoteNumber":72,"Velocity":89,"Duration":352865,"SoundDuration":352865,"Delta":398688243},{"NoteNumber":87,"Velocity":65,"Duration":87385,"SoundDuration":87385,"Delta":398804757},{"NoteNumber":84,"Velocity":65,"Duration":87385,"SoundDuration":87385,"Delta":398804757},{"NoteNumber":92,"Velocity":65,"Duration":87385,"SoundDuration":87385,"Delta":398804757},{"NoteNumber":66,"Velocity":82,"Duration":87385,"SoundDuration":87385,"Delta":398804757},{"NoteNumber":86,"Velocity":65,"Duration":89877,"SoundDuration":89877,"Delta":398921271},{"NoteNumber":56,"Velocity":82,"Duration":89877,"SoundDuration":89877,"Delta":398921271},{"NoteNumber":90,"Velocity":74,"Duration":91754,"SoundDuration":91754,"Delta":399041108},{"NoteNumber":87,"Velocity":74,"Duration":91754,"SoundDuration":91754,"Delta":399041108},{"NoteNumber":96,"Velocity":74,"Duration":91754,"SoundDuration":91754,"Delta":399041108},{"NoteNumber":37,"Velocity":89,"Duration":414390,"SoundDuration":414390,"Delta":399041108},{"NoteNumber":49,"Velocity":89,"Duration":414390,"SoundDuration":414390,"Delta":399041108},{"NoteNumber":89,"Velocity":70,"Duration":95330,"SoundDuration":95330,"Delta":399163447},{"NoteNumber":96,"Velocity":71,"Duration":123708,"SoundDuration":123708,"Delta":399290554},{"NoteNumber":90,"Velocity":71,"Duration":123708,"SoundDuration":123708,"Delta":399290554},{"NoteNumber":99,"Velocity":74,"Duration":123708,"SoundDuration":123708,"Delta":399290554},{"NoteNumber":101,"Velocity":101,"Duration":270611,"SoundDuration":270611,"Delta":399455498},{"NoteNumber":97,"Velocity":93,"Duration":270611,"SoundDuration":270611,"Delta":399455498},{"NoteNumber":89,"Velocity":93,"Duration":270611,"SoundDuration":270611,"Delta":399455498},{"NoteNumber":25,"Velocity":73,"Duration":270611,"SoundDuration":270611,"Delta":399455498},{"NoteNumber":32,"Velocity":73,"Duration":270611,"SoundDuration":270611,"Delta":399455498},{"NoteNumber":37,"Velocity":82,"Duration":270611,"SoundDuration":270611,"Delta":399455498},{"NoteNumber":65,"Velocity":82,"Duration":469169,"SoundDuration":469169,"Delta":399726110},{"NoteNumber":68,"Velocity":82,"Duration":500946,"SoundDuration":500946,"Delta":399726110},{"NoteNumber":77,"Velocity":104,"Duration":246731,"SoundDuration":246731,"Delta":399726110},{"NoteNumber":49,"Velocity":82,"Duration":500946,"SoundDuration":500946,"Delta":399726110},{"NoteNumber":56,"Velocity":82,"Duration":500946,"SoundDuration":500946,"Delta":399726110},{"NoteNumber":61,"Velocity":90,"Duration":246731,"SoundDuration":246731,"Delta":399726110},{"NoteNumber":75,"Velocity":99,"Duration":95330,"SoundDuration":95330,"Delta":399972841},{"NoteNumber":63,"Velocity":85,"Duration":95330,"SoundDuration":95330,"Delta":399972841},{"NoteNumber":77,"Velocity":93,"Duration":95330,"SoundDuration":95330,"Delta":400099949},{"NoteNumber":65,"Velocity":79,"Duration":127107,"SoundDuration":127107,"Delta":400099949},{"NoteNumber":65,"Velocity":69,"Duration":247770,"SoundDuration":247770,"Delta":400227056},{"NoteNumber":68,"Velocity":69,"Duration":247770,"SoundDuration":247770,"Delta":400227056},{"NoteNumber":73,"Velocity":93,"Duration":247770,"SoundDuration":247770,"Delta":400227056},{"NoteNumber":49,"Velocity":69,"Duration":247770,"SoundDuration":247770,"Delta":400227056},{"NoteNumber":56,"Velocity":69,"Duration":247770,"SoundDuration":247770,"Delta":400227056},{"NoteNumber":61,"Velocity":79,"Duration":247770,"SoundDuration":247770,"Delta":400227056},{"NoteNumber":61,"Velocity":93,"Duration":242659,"SoundDuration":242659,"Delta":400474826},{"NoteNumber":37,"Velocity":70,"Duration":242659,"SoundDuration":242659,"Delta":400474826},{"NoteNumber":49,"Velocity":80,"Duration":242659,"SoundDuration":242659,"Delta":400474826},{"NoteNumber":68,"Velocity":90,"Duration":477402,"SoundDuration":477402,"Delta":400717486},{"NoteNumber":73,"Velocity":90,"Duration":477402,"SoundDuration":477402,"Delta":400717486},{"NoteNumber":80,"Velocity":101,"Duration":477402,"SoundDuration":477402,"Delta":400717486},{"NoteNumber":53,"Velocity":80,"Duration":477402,"SoundDuration":477402,"Delta":400717486},{"NoteNumber":61,"Velocity":89,"Duration":477402,"SoundDuration":477402,"Delta":400717486},{"NoteNumber":65,"Velocity":89,"Duration":477402,"SoundDuration":477402,"Delta":400717486},{"NoteNumber":70,"Velocity":85,"Duration":252016,"SoundDuration":252016,"Delta":401194889},{"NoteNumber":73,"Velocity":85,"Duration":252016,"SoundDuration":252016,"Delta":401194889},{"NoteNumber":82,"Velocity":95,"Duration":252016,"SoundDuration":252016,"Delta":401194889},{"NoteNumber":61,"Velocity":77,"Duration":252016,"SoundDuration":252016,"Delta":401194889},{"NoteNumber":54,"Velocity":67,"Duration":252016,"SoundDuration":252016,"Delta":401194889},{"NoteNumber":66,"Velocity":77,"Duration":252016,"SoundDuration":252016,"Delta":401194889},{"NoteNumber":73,"Velocity":83,"Duration":437811,"SoundDuration":437811,"Delta":401446905},{"NoteNumber":80,"Velocity":83,"Duration":82471,"SoundDuration":82471,"Delta":401446905},{"NoteNumber":68,"Velocity":74,"Duration":82471,"SoundDuration":82471,"Delta":401446905},{"NoteNumber":65,"Velocity":82,"Duration":219651,"SoundDuration":219651,"Delta":401446905},{"NoteNumber":61,"Velocity":82,"Duration":219651,"SoundDuration":219651,"Delta":401446905},{"NoteNumber":53,"Velocity":73,"Duration":219651,"SoundDuration":219651,"Delta":401446905},{"NoteNumber":79,"Velocity":73,"Duration":82301,"SoundDuration":82301,"Delta":401556867},{"NoteNumber":67,"Velocity":65,"Duration":82301,"SoundDuration":82301,"Delta":401556867},{"NoteNumber":66,"Velocity":81,"Duration":81995,"SoundDuration":81995,"Delta":401666557},{"NoteNumber":77,"Velocity":72,"Duration":81691,"SoundDuration":81691,"Delta":401775839},{"NoteNumber":65,"Velocity":72,"Duration":81691,"SoundDuration":81691,"Delta":401775839},{"NoteNumber":64,"Velocity":75,"Duration":81390,"SoundDuration":81390,"Delta":401884716},{"NoteNumber":75,"Velocity":73,"Duration":81091,"SoundDuration":81091,"Delta":401993192},{"NoteNumber":63,"Velocity":66,"Duration":81091,"SoundDuration":81091,"Delta":401993192},{"NoteNumber":62,"Velocity":73,"Duration":80794,"SoundDuration":80794,"Delta":402101270},{"NoteNumber":73,"Velocity":71,"Duration":94506,"SoundDuration":94506,"Delta":402208951},{"NoteNumber":61,"Velocity":63,"Duration":94506,"SoundDuration":94506,"Delta":402208951},{"NoteNumber":37,"Velocity":77,"Duration":233027,"SoundDuration":233027,"Delta":402334959},{"NoteNumber":49,"Velocity":86,"Duration":233027,"SoundDuration":233027,"Delta":402334959},{"NoteNumber":65,"Velocity":83,"Duration":453971,"SoundDuration":453971,"Delta":402567987},{"NoteNumber":77,"Velocity":93,"Duration":453971,"SoundDuration":453971,"Delta":402567987},{"NoteNumber":49,"Velocity":70,"Duration":453971,"SoundDuration":453971,"Delta":402567987},{"NoteNumber":56,"Velocity":79,"Duration":453971,"SoundDuration":453971,"Delta":402567987},{"NoteNumber":61,"Velocity":79,"Duration":453971,"SoundDuration":453971,"Delta":402567987},{"NoteNumber":66,"Velocity":79,"Duration":234925,"SoundDuration":234925,"Delta":403021959},{"NoteNumber":75,"Velocity":87,"Duration":234925,"SoundDuration":234925,"Delta":403021959},{"NoteNumber":57,"Velocity":62,"Duration":234925,"SoundDuration":234925,"Delta":403021959},{"NoteNumber":49,"Velocity":54,"Duration":234925,"SoundDuration":234925,"Delta":403021959},{"NoteNumber":60,"Velocity":62,"Duration":234925,"SoundDuration":234925,"Delta":403021959},{"NoteNumber":66,"Velocity":80,"Duration":436585,"SoundDuration":436585,"Delta":403256884},{"NoteNumber":75,"Velocity":89,"Duration":81859,"SoundDuration":81859,"Delta":403256884},{"NoteNumber":49,"Velocity":61,"Duration":218293,"SoundDuration":218293,"Delta":403256884},{"NoteNumber":60,"Velocity":67,"Duration":218293,"SoundDuration":218293,"Delta":403256884},{"NoteNumber":57,"Velocity":61,"Duration":218293,"SoundDuration":218293,"Delta":403256884},{"NoteNumber":74,"Velocity":79,"Duration":81859,"SoundDuration":81859,"Delta":403366031},{"NoteNumber":73,"Velocity":79,"Duration":81859,"SoundDuration":81859,"Delta":403475177},{"NoteNumber":37,"Velocity":53,"Duration":218292,"SoundDuration":218292,"Delta":403475177},{"NoteNumber":49,"Velocity":61,"Duration":218292,"SoundDuration":218292,"Delta":403475177},{"NoteNumber":72,"Velocity":74,"Duration":81859,"SoundDuration":81859,"Delta":403584324},{"NoteNumber":65,"Velocity":70,"Duration":231196,"SoundDuration":231196,"Delta":403693470},{"NoteNumber":73,"Velocity":80,"Duration":86698,"SoundDuration":86698,"Delta":403693470},{"NoteNumber":49,"Velocity":36,"Duration":231196,"SoundDuration":231196,"Delta":403693470},{"NoteNumber":58,"Velocity":45,"Duration":231196,"SoundDuration":231196,"Delta":403693470},{"NoteNumber":61,"Velocity":52,"Duration":231196,"SoundDuration":231196,"Delta":403693470},{"NoteNumber":72,"Velocity":70,"Duration":86698,"SoundDuration":86698,"Delta":403809068},{"NoteNumber":70,"Velocity":71,"Duration":252512,"SoundDuration":252512,"Delta":403924666},{"NoteNumber":37,"Velocity":46,"Duration":164075,"SoundDuration":164075,"Delta":403924666},{"NoteNumber":49,"Velocity":53,"Duration":164075,"SoundDuration":164075,"Delta":403924666},{"NoteNumber":49,"Velocity":57,"Duration":319632,"SoundDuration":319632,"Delta":404088742},{"NoteNumber":56,"Velocity":57,"Duration":290153,"SoundDuration":290153,"Delta":404118221},{"NoteNumber":61,"Velocity":62,"Duration":260674,"SoundDuration":260674,"Delta":404147700},{"NoteNumber":65,"Velocity":67,"Duration":231196,"SoundDuration":231196,"Delta":404177178},{"NoteNumber":65,"Velocity":65,"Duration":453445,"SoundDuration":453445,"Delta":404408374},{"NoteNumber":68,"Velocity":79,"Duration":453445,"SoundDuration":453445,"Delta":404408374},{"NoteNumber":69,"Velocity":76,"Duration":234925,"SoundDuration":234925,"Delta":404861820},{"NoteNumber":63,"Velocity":63,"Duration":176194,"SoundDuration":176194,"Delta":404861820},{"NoteNumber":49,"Velocity":52,"Duration":58731,"SoundDuration":58731,"Delta":405038015},{"NoteNumber":65,"Velocity":62,"Duration":460740,"SoundDuration":460740,"Delta":405096746},{"NoteNumber":69,"Velocity":80,"Duration":113972,"SoundDuration":113972,"Delta":405096746},{"NoteNumber":63,"Velocity":65,"Duration":113972,"SoundDuration":113972,"Delta":405096746},{"NoteNumber":70,"Velocity":74,"Duration":113972,"SoundDuration":113972,"Delta":405210719},{"NoteNumber":62,"Velocity":59,"Duration":113972,"SoundDuration":113972,"Delta":405210719},{"NoteNumber":71,"Velocity":74,"Duration":113973,"SoundDuration":113973,"Delta":405324692},{"NoteNumber":61,"Velocity":53,"Duration":113973,"SoundDuration":113973,"Delta":405324692},{"NoteNumber":72,"Velocity":74,"Duration":118821,"SoundDuration":118821,"Delta":405438665},{"NoteNumber":60,"Velocity":53,"Duration":118821,"SoundDuration":118821,"Delta":405438665},{"NoteNumber":65,"Velocity":70,"Duration":227945,"SoundDuration":227945,"Delta":405557486},{"NoteNumber":70,"Velocity":81,"Duration":113972,"SoundDuration":113972,"Delta":405557486},{"NoteNumber":61,"Velocity":56,"Duration":113972,"SoundDuration":113972,"Delta":405557486},{"NoteNumber":72,"Velocity":74,"Duration":113972,"SoundDuration":113972,"Delta":405671459},{"NoteNumber":60,"Velocity":52,"Duration":113972,"SoundDuration":113972,"Delta":405671459},{"NoteNumber":73,"Velocity":74,"Duration":113973,"SoundDuration":113973,"Delta":405785432},{"NoteNumber":58,"Velocity":70,"Duration":455892,"SoundDuration":455892,"Delta":405785432},{"NoteNumber":77,"Velocity":74,"Duration":113972,"SoundDuration":113972,"Delta":405899405},{"NoteNumber":82,"Velocity":82,"Duration":113972,"SoundDuration":113972,"Delta":406013378},{"NoteNumber":84,"Velocity":76,"Duration":113972,"SoundDuration":113972,"Delta":406127351},{"NoteNumber":85,"Velocity":76,"Duration":113973,"SoundDuration":113973,"Delta":406241324},{"NoteNumber":68,"Velocity":59,"Duration":233724,"SoundDuration":233724,"Delta":406241324},{"NoteNumber":65,"Velocity":59,"Duration":233724,"SoundDuration":233724,"Delta":406241324},{"NoteNumber":56,"Velocity":59,"Duration":233724,"SoundDuration":233724,"Delta":406241324},{"NoteNumber":89,"Velocity":76,"Duration":119751,"SoundDuration":119751,"Delta":406355297},{"NoteNumber":94,"Velocity":82,"Duration":115835,"SoundDuration":115835,"Delta":406475048},{"NoteNumber":70,"Velocity":59,"Duration":233602,"SoundDuration":233602,"Delta":406475048},{"NoteNumber":67,"Velocity":59,"Duration":233602,"SoundDuration":233602,"Delta":406475048},{"NoteNumber":65,"Velocity":59,"Duration":233602,"SoundDuration":233602,"Delta":406475048},{"NoteNumber":58,"Velocity":59,"Duration":233602,"SoundDuration":233602,"Delta":406475048},{"NoteNumber":96,"Velocity":79,"Duration":117766,"SoundDuration":117766,"Delta":406590884},{"NoteNumber":97,"Velocity":79,"Duration":121832,"SoundDuration":121832,"Delta":406708651},{"NoteNumber":37,"Velocity":66,"Duration":243664,"SoundDuration":243664,"Delta":406708651},{"NoteNumber":49,"Velocity":66,"Duration":243664,"SoundDuration":243664,"Delta":406708651},{"NoteNumber":101,"Velocity":79,"Duration":121832,"SoundDuration":121832,"Delta":406830483},{"NoteNumber":36,"Velocity":71,"Duration":144633,"SoundDuration":144633,"Delta":406952315},{"NoteNumber":48,"Velocity":71,"Duration":144633,"SoundDuration":144633,"Delta":406952315},{"NoteNumber":48,"Velocity":54,"Duration":392110,"SoundDuration":392110,"Delta":407096949},{"NoteNumber":57,"Velocity":62,"Duration":359047,"SoundDuration":359047,"Delta":407130012},{"NoteNumber":60,"Velocity":62,"Duration":325984,"SoundDuration":325984,"Delta":407163075},{"NoteNumber":65,"Velocity":65,"Duration":292921,"SoundDuration":292921,"Delta":407196138},{"NoteNumber":72,"Velocity":69,"Duration":259858,"SoundDuration":259858,"Delta":407229201},{"NoteNumber":64,"Velocity":71,"Duration":121172,"SoundDuration":121172,"Delta":407489060},{"NoteNumber":75,"Velocity":65,"Duration":120854,"SoundDuration":120854,"Delta":407610233},{"NoteNumber":72,"Velocity":65,"Duration":120854,"SoundDuration":120854,"Delta":407610233},{"NoteNumber":69,"Velocity":59,"Duration":120854,"SoundDuration":120854,"Delta":407610233},{"NoteNumber":65,"Velocity":59,"Duration":120854,"SoundDuration":120854,"Delta":407610233},{"NoteNumber":65,"Velocity":66,"Duration":120537,"SoundDuration":120537,"Delta":407731087},{"NoteNumber":79,"Velocity":64,"Duration":120221,"SoundDuration":120221,"Delta":407851625},{"NoteNumber":67,"Velocity":57,"Duration":120221,"SoundDuration":120221,"Delta":407851625},{"NoteNumber":64,"Velocity":56,"Duration":119751,"SoundDuration":119751,"Delta":407971846},{"NoteNumber":67,"Velocity":56,"Duration":119751,"SoundDuration":119751,"Delta":407971846},{"NoteNumber":70,"Velocity":63,"Duration":119751,"SoundDuration":119751,"Delta":407971846},{"NoteNumber":76,"Velocity":63,"Duration":119751,"SoundDuration":119751,"Delta":407971846},{"NoteNumber":62,"Velocity":56,"Duration":119439,"SoundDuration":119439,"Delta":408091597},{"NoteNumber":62,"Velocity":52,"Duration":119129,"SoundDuration":119129,"Delta":408211037},{"NoteNumber":67,"Velocity":52,"Duration":119129,"SoundDuration":119129,"Delta":408211037},{"NoteNumber":70,"Velocity":59,"Duration":119129,"SoundDuration":119129,"Delta":408211037},{"NoteNumber":74,"Velocity":59,"Duration":119129,"SoundDuration":119129,"Delta":408211037},{"NoteNumber":60,"Velocity":53,"Duration":118821,"SoundDuration":118821,"Delta":408330167},{"NoteNumber":70,"Velocity":62,"Duration":78914,"SoundDuration":78914,"Delta":408448988},{"NoteNumber":74,"Velocity":71,"Duration":480154,"SoundDuration":480154,"Delta":408448988},{"NoteNumber":67,"Velocity":62,"Duration":79368,"SoundDuration":79368,"Delta":408527902},{"NoteNumber":62,"Velocity":62,"Duration":79678,"SoundDuration":79678,"Delta":408607270},{"NoteNumber":58,"Velocity":57,"Duration":80305,"SoundDuration":80305,"Delta":408686949},{"NoteNumber":48,"Velocity":51,"Duration":80622,"SoundDuration":80622,"Delta":408767254},{"NoteNumber":40,"Velocity":50,"Duration":81264,"SoundDuration":81264,"Delta":408847877},{"NoteNumber":41,"Velocity":63,"Duration":81426,"SoundDuration":81426,"Delta":408929142},{"NoteNumber":48,"Velocity":52,"Duration":81426,"SoundDuration":81426,"Delta":409010569},{"NoteNumber":57,"Velocity":52,"Duration":81426,"SoundDuration":81426,"Delta":409091995},{"NoteNumber":60,"Velocity":65,"Duration":81426,"SoundDuration":81426,"Delta":409173422},{"NoteNumber":65,"Velocity":59,"Duration":81426,"SoundDuration":81426,"Delta":409254849},{"NoteNumber":72,"Velocity":59,"Duration":81426,"SoundDuration":81426,"Delta":409336275},{"NoteNumber":69,"Velocity":59,"Duration":81426,"SoundDuration":81426,"Delta":409336275},{"NoteNumber":76,"Velocity":81,"Duration":121654,"SoundDuration":121654,"Delta":409417702},{"NoteNumber":89,"Velocity":57,"Duration":121333,"SoundDuration":121333,"Delta":409539356},{"NoteNumber":84,"Velocity":57,"Duration":121333,"SoundDuration":121333,"Delta":409539356},{"NoteNumber":81,"Velocity":57,"Duration":121333,"SoundDuration":121333,"Delta":409539356},{"NoteNumber":77,"Velocity":57,"Duration":121333,"SoundDuration":121333,"Delta":409539356},{"NoteNumber":77,"Velocity":76,"Duration":121013,"SoundDuration":121013,"Delta":409660690},{"NoteNumber":91,"Velocity":62,"Duration":120695,"SoundDuration":120695,"Delta":409781704},{"NoteNumber":79,"Velocity":62,"Duration":120695,"SoundDuration":120695,"Delta":409781704},{"NoteNumber":88,"Velocity":69,"Duration":120221,"SoundDuration":120221,"Delta":409902399},{"NoteNumber":82,"Velocity":69,"Duration":120221,"SoundDuration":120221,"Delta":409902399},{"NoteNumber":79,"Velocity":62,"Duration":120221,"SoundDuration":120221,"Delta":409902399},{"NoteNumber":76,"Velocity":62,"Duration":120221,"SoundDuration":120221,"Delta":409902399},{"NoteNumber":74,"Velocity":65,"Duration":119907,"SoundDuration":119907,"Delta":410022620},{"NoteNumber":86,"Velocity":57,"Duration":119595,"SoundDuration":119595,"Delta":410142528},{"NoteNumber":82,"Velocity":51,"Duration":119595,"SoundDuration":119595,"Delta":410142528},{"NoteNumber":79,"Velocity":57,"Duration":119595,"SoundDuration":119595,"Delta":410142528},{"NoteNumber":74,"Velocity":51,"Duration":119595,"SoundDuration":119595,"Delta":410142528},{"NoteNumber":72,"Velocity":56,"Duration":119129,"SoundDuration":119129,"Delta":410262123},{"NoteNumber":82,"Velocity":64,"Duration":78914,"SoundDuration":78914,"Delta":410381253},{"NoteNumber":86,"Velocity":72,"Duration":525250,"SoundDuration":525250,"Delta":410381253},{"NoteNumber":79,"Velocity":57,"Duration":79214,"SoundDuration":79214,"Delta":410460167},{"NoteNumber":74,"Velocity":57,"Duration":79522,"SoundDuration":79522,"Delta":410539382},{"NoteNumber":70,"Velocity":56,"Duration":64671,"SoundDuration":64671,"Delta":410618904},{"NoteNumber":60,"Velocity":50,"Duration":64671,"SoundDuration":64671,"Delta":410683576},{"NoteNumber":52,"Velocity":50,"Duration":71899,"SoundDuration":71899,"Delta":410748248},{"NoteNumber":53,"Velocity":49,"Duration":384280,"SoundDuration":384280,"Delta":410798559},{"NoteNumber":60,"Velocity":52,"Duration":362691,"SoundDuration":362691,"Delta":410820148},{"NoteNumber":69,"Velocity":53,"Duration":341102,"SoundDuration":341102,"Delta":410841737},{"NoteNumber":72,"Velocity":54,"Duration":319513,"SoundDuration":319513,"Delta":410863326},{"NoteNumber":81,"Velocity":57,"Duration":297924,"SoundDuration":297924,"Delta":410884915},{"NoteNumber":84,"Velocity":63,"Duration":276335,"SoundDuration":276335,"Delta":410906504},{"NoteNumber":93,"Velocity":93,"Duration":125472,"SoundDuration":125472,"Delta":411182839},{"NoteNumber":89,"Velocity":93,"Duration":125472,"SoundDuration":125472,"Delta":411182839},{"NoteNumber":84,"Velocity":82,"Duration":125472,"SoundDuration":125472,"Delta":411182839},{"NoteNumber":81,"Velocity":82,"Duration":125472,"SoundDuration":125472,"Delta":411182839},{"NoteNumber":67,"Velocity":62,"Duration":123886,"SoundDuration":123886,"Delta":411308311},{"NoteNumber":79,"Velocity":69,"Duration":123886,"SoundDuration":123886,"Delta":411308311},{"NoteNumber":91,"Velocity":87,"Duration":121836,"SoundDuration":121836,"Delta":411432198},{"NoteNumber":79,"Velocity":79,"Duration":121836,"SoundDuration":121836,"Delta":411432198},{"NoteNumber":65,"Velocity":62,"Duration":121163,"SoundDuration":121163,"Delta":411554034},{"NoteNumber":77,"Velocity":69,"Duration":121163,"SoundDuration":121163,"Delta":411554034},{"NoteNumber":89,"Velocity":86,"Duration":120663,"SoundDuration":120663,"Delta":411675198},{"NoteNumber":77,"Velocity":77,"Duration":120663,"SoundDuration":120663,"Delta":411675198},{"NoteNumber":62,"Velocity":62,"Duration":120327,"SoundDuration":120327,"Delta":411795861},{"NoteNumber":74,"Velocity":69,"Duration":120327,"SoundDuration":120327,"Delta":411795861},{"NoteNumber":86,"Velocity":85,"Duration":119837,"SoundDuration":119837,"Delta":411916188},{"NoteNumber":74,"Velocity":76,"Duration":119837,"SoundDuration":119837,"Delta":411916188},{"NoteNumber":60,"Velocity":62,"Duration":119350,"SoundDuration":119350,"Delta":412036025},{"NoteNumber":72,"Velocity":69,"Duration":119350,"SoundDuration":119350,"Delta":412036025},{"NoteNumber":84,"Velocity":85,"Duration":119029,"SoundDuration":119029,"Delta":412155376},{"NoteNumber":72,"Velocity":76,"Duration":119029,"SoundDuration":119029,"Delta":412155376},{"NoteNumber":69,"Velocity":67,"Duration":118078,"SoundDuration":118078,"Delta":412274405},{"NoteNumber":57,"Velocity":61,"Duration":118078,"SoundDuration":118078,"Delta":412274405},{"NoteNumber":81,"Velocity":84,"Duration":116668,"SoundDuration":116668,"Delta":412392484},{"NoteNumber":69,"Velocity":75,"Duration":116668,"SoundDuration":116668,"Delta":412392484},{"NoteNumber":67,"Velocity":67,"Duration":116054,"SoundDuration":116054,"Delta":412509152},{"NoteNumber":55,"Velocity":61,"Duration":116054,"SoundDuration":116054,"Delta":412509152},{"NoteNumber":79,"Velocity":83,"Duration":116054,"SoundDuration":116054,"Delta":412625206},{"NoteNumber":67,"Velocity":74,"Duration":116054,"SoundDuration":116054,"Delta":412625206},{"NoteNumber":65,"Velocity":67,"Duration":116054,"SoundDuration":116054,"Delta":412741260},{"NoteNumber":53,"Velocity":61,"Duration":116054,"SoundDuration":116054,"Delta":412741260},{"NoteNumber":65,"Velocity":74,"Duration":115597,"SoundDuration":115597,"Delta":412857315},{"NoteNumber":77,"Velocity":83,"Duration":115597,"SoundDuration":115597,"Delta":412857315},{"NoteNumber":50,"Velocity":60,"Duration":115598,"SoundDuration":115598,"Delta":412972913},{"NoteNumber":62,"Velocity":66,"Duration":115598,"SoundDuration":115598,"Delta":412972913},{"NoteNumber":62,"Velocity":74,"Duration":115444,"SoundDuration":115444,"Delta":413088511},{"NoteNumber":74,"Velocity":82,"Duration":115444,"SoundDuration":115444,"Delta":413088511},{"NoteNumber":48,"Velocity":59,"Duration":115136,"SoundDuration":115136,"Delta":413203955},{"NoteNumber":60,"Velocity":65,"Duration":115136,"SoundDuration":115136,"Delta":413203955},{"NoteNumber":60,"Velocity":73,"Duration":115136,"SoundDuration":115136,"Delta":413319092},{"NoteNumber":72,"Velocity":81,"Duration":115136,"SoundDuration":115136,"Delta":413319092},{"NoteNumber":45,"Velocity":57,"Duration":114837,"SoundDuration":114837,"Delta":413434228},{"NoteNumber":57,"Velocity":64,"Duration":114837,"SoundDuration":114837,"Delta":413434228},{"NoteNumber":57,"Velocity":72,"Duration":114687,"SoundDuration":114687,"Delta":413549066},{"NoteNumber":69,"Velocity":81,"Duration":114687,"SoundDuration":114687,"Delta":413549066},{"NoteNumber":43,"Velocity":57,"Duration":114687,"SoundDuration":114687,"Delta":413663754},{"NoteNumber":55,"Velocity":64,"Duration":114687,"SoundDuration":114687,"Delta":413663754},{"NoteNumber":55,"Velocity":77,"Duration":118389,"SoundDuration":118389,"Delta":413778441},{"NoteNumber":67,"Velocity":86,"Duration":118389,"SoundDuration":118389,"Delta":413778441},{"NoteNumber":41,"Velocity":63,"Duration":61638,"SoundDuration":61638,"Delta":413896831},{"NoteNumber":53,"Velocity":71,"Duration":61638,"SoundDuration":61638,"Delta":413896831},{"NoteNumber":53,"Velocity":55,"Duration":30797,"SoundDuration":30797,"Delta":413927673},{"NoteNumber":65,"Velocity":63,"Duration":30797,"SoundDuration":30797,"Delta":413927673},{"NoteNumber":55,"Velocity":56,"Duration":30754,"SoundDuration":30754,"Delta":413958470},{"NoteNumber":67,"Velocity":63,"Duration":30754,"SoundDuration":30754,"Delta":413958470},{"NoteNumber":57,"Velocity":56,"Duration":30689,"SoundDuration":30689,"Delta":413989224},{"NoteNumber":69,"Velocity":63,"Duration":30689,"SoundDuration":30689,"Delta":413989224},{"NoteNumber":59,"Velocity":57,"Duration":30647,"SoundDuration":30647,"Delta":414019914},{"NoteNumber":71,"Velocity":63,"Duration":30647,"SoundDuration":30647,"Delta":414019914},{"NoteNumber":60,"Velocity":59,"Duration":30583,"SoundDuration":30583,"Delta":414050561},{"NoteNumber":72,"Velocity":65,"Duration":30583,"SoundDuration":30583,"Delta":414050561},{"NoteNumber":62,"Velocity":59,"Duration":30541,"SoundDuration":30541,"Delta":414081145},{"NoteNumber":74,"Velocity":66,"Duration":30541,"SoundDuration":30541,"Delta":414081145},{"NoteNumber":64,"Velocity":59,"Duration":30477,"SoundDuration":30477,"Delta":414111686},{"NoteNumber":76,"Velocity":66,"Duration":30477,"SoundDuration":30477,"Delta":414111686},{"NoteNumber":65,"Velocity":60,"Duration":30435,"SoundDuration":30435,"Delta":414142164},{"NoteNumber":77,"Velocity":67,"Duration":30435,"SoundDuration":30435,"Delta":414142164},{"NoteNumber":67,"Velocity":61,"Duration":30373,"SoundDuration":30373,"Delta":414172600},{"NoteNumber":79,"Velocity":69,"Duration":30373,"SoundDuration":30373,"Delta":414172600},{"NoteNumber":69,"Velocity":62,"Duration":30331,"SoundDuration":30331,"Delta":414202973},{"NoteNumber":81,"Velocity":70,"Duration":30331,"SoundDuration":30331,"Delta":414202973},{"NoteNumber":71,"Velocity":62,"Duration":30268,"SoundDuration":30268,"Delta":414233304},{"NoteNumber":83,"Velocity":71,"Duration":30268,"SoundDuration":30268,"Delta":414233304},{"NoteNumber":72,"Velocity":62,"Duration":30227,"SoundDuration":30227,"Delta":414263573},{"NoteNumber":84,"Velocity":71,"Duration":30227,"SoundDuration":30227,"Delta":414263573},{"NoteNumber":74,"Velocity":63,"Duration":30165,"SoundDuration":30165,"Delta":414293800},{"NoteNumber":86,"Velocity":71,"Duration":30165,"SoundDuration":30165,"Delta":414293800},{"NoteNumber":88,"Velocity":71,"Duration":30103,"SoundDuration":30103,"Delta":414323966},{"NoteNumber":76,"Velocity":63,"Duration":30103,"SoundDuration":30103,"Delta":414323966},{"NoteNumber":89,"Velocity":72,"Duration":30144,"SoundDuration":30144,"Delta":414354069},{"NoteNumber":77,"Velocity":63,"Duration":30144,"SoundDuration":30144,"Delta":414354069},{"NoteNumber":91,"Velocity":72,"Duration":30457,"SoundDuration":30457,"Delta":414384213},{"NoteNumber":79,"Velocity":65,"Duration":30457,"SoundDuration":30457,"Delta":414384213},{"NoteNumber":93,"Velocity":72,"Duration":30711,"SoundDuration":30711,"Delta":414414671},{"NoteNumber":81,"Velocity":65,"Duration":30711,"SoundDuration":30711,"Delta":414414671},{"NoteNumber":95,"Velocity":73,"Duration":31036,"SoundDuration":31036,"Delta":414445382},{"NoteNumber":83,"Velocity":66,"Duration":31036,"SoundDuration":31036,"Delta":414445382},{"NoteNumber":96,"Velocity":74,"Duration":31301,"SoundDuration":31301,"Delta":414476419},{"NoteNumber":84,"Velocity":66,"Duration":31301,"SoundDuration":31301,"Delta":414476419},{"NoteNumber":98,"Velocity":75,"Duration":31638,"SoundDuration":31638,"Delta":414507720},{"NoteNumber":86,"Velocity":67,"Duration":31638,"SoundDuration":31638,"Delta":414507720},{"NoteNumber":100,"Velocity":76,"Duration":121339,"SoundDuration":121339,"Delta":414539358},{"NoteNumber":88,"Velocity":69,"Duration":121339,"SoundDuration":121339,"Delta":414539358},{"NoteNumber":101,"Velocity":93,"Duration":260983,"SoundDuration":260983,"Delta":414660698},{"NoteNumber":89,"Velocity":87,"Duration":260983,"SoundDuration":260983,"Delta":414660698},{"NoteNumber":25,"Velocity":67,"Duration":260983,"SoundDuration":260983,"Delta":414660698},{"NoteNumber":37,"Velocity":75,"Duration":260983,"SoundDuration":260983,"Delta":414660698},{"NoteNumber":80,"Velocity":89,"Duration":254237,"SoundDuration":254237,"Delta":414921681},{"NoteNumber":85,"Velocity":89,"Duration":254237,"SoundDuration":254237,"Delta":414921681},{"NoteNumber":89,"Velocity":99,"Duration":254237,"SoundDuration":254237,"Delta":414921681},{"NoteNumber":77,"Velocity":89,"Duration":254237,"SoundDuration":254237,"Delta":414921681},{"NoteNumber":56,"Velocity":79,"Duration":254237,"SoundDuration":254237,"Delta":414921681},{"NoteNumber":53,"Velocity":79,"Duration":254237,"SoundDuration":254237,"Delta":414921681},{"NoteNumber":61,"Velocity":79,"Duration":254237,"SoundDuration":254237,"Delta":414921681},{"NoteNumber":65,"Velocity":88,"Duration":254237,"SoundDuration":254237,"Delta":414921681},{"NoteNumber":87,"Velocity":94,"Duration":97402,"SoundDuration":97402,"Delta":415175918},{"NoteNumber":75,"Velocity":83,"Duration":97402,"SoundDuration":97402,"Delta":415175918},{"NoteNumber":51,"Velocity":72,"Duration":97402,"SoundDuration":97402,"Delta":415175918},{"NoteNumber":63,"Velocity":81,"Duration":97402,"SoundDuration":97402,"Delta":415175918},{"NoteNumber":89,"Velocity":89,"Duration":97402,"SoundDuration":97402,"Delta":415305789},{"NoteNumber":77,"Velocity":79,"Duration":97402,"SoundDuration":97402,"Delta":415305789},{"NoteNumber":53,"Velocity":67,"Duration":97402,"SoundDuration":97402,"Delta":415305789},{"NoteNumber":65,"Velocity":75,"Duration":97402,"SoundDuration":97402,"Delta":415305789},{"NoteNumber":85,"Velocity":89,"Duration":252100,"SoundDuration":252100,"Delta":415435659},{"NoteNumber":73,"Velocity":79,"Duration":252100,"SoundDuration":252100,"Delta":415435659},{"NoteNumber":49,"Velocity":59,"Duration":252100,"SoundDuration":252100,"Delta":415435659},{"NoteNumber":61,"Velocity":75,"Duration":252100,"SoundDuration":252100,"Delta":415435659},{"NoteNumber":61,"Velocity":89,"Duration":244897,"SoundDuration":244897,"Delta":415687760},{"NoteNumber":37,"Velocity":68,"Duration":244897,"SoundDuration":244897,"Delta":415687760},{"NoteNumber":49,"Velocity":77,"Duration":244897,"SoundDuration":244897,"Delta":415687760},{"NoteNumber":80,"Velocity":88,"Duration":483902,"SoundDuration":483902,"Delta":415932658},{"NoteNumber":85,"Velocity":88,"Duration":483902,"SoundDuration":483902,"Delta":415932658},{"NoteNumber":89,"Velocity":88,"Duration":483902,"SoundDuration":483902,"Delta":415932658},{"NoteNumber":92,"Velocity":97,"Duration":483902,"SoundDuration":483902,"Delta":415932658},{"NoteNumber":61,"Velocity":74,"Duration":483902,"SoundDuration":483902,"Delta":415932658},{"NoteNumber":56,"Velocity":74,"Duration":483902,"SoundDuration":483902,"Delta":415932658},{"NoteNumber":65,"Velocity":81,"Duration":483902,"SoundDuration":483902,"Delta":415932658},{"NoteNumber":68,"Velocity":81,"Duration":483902,"SoundDuration":483902,"Delta":415932658},{"NoteNumber":82,"Velocity":80,"Duration":248241,"SoundDuration":248241,"Delta":416416560},{"NoteNumber":85,"Velocity":80,"Duration":248241,"SoundDuration":248241,"Delta":416416560},{"NoteNumber":89,"Velocity":80,"Duration":248241,"SoundDuration":248241,"Delta":416416560},{"NoteNumber":94,"Velocity":91,"Duration":248241,"SoundDuration":248241,"Delta":416416560},{"NoteNumber":61,"Velocity":62,"Duration":248241,"SoundDuration":248241,"Delta":416416560},{"NoteNumber":65,"Velocity":69,"Duration":248241,"SoundDuration":248241,"Delta":416416560},{"NoteNumber":58,"Velocity":62,"Duration":248241,"SoundDuration":248241,"Delta":416416560},{"NoteNumber":70,"Velocity":69,"Duration":248241,"SoundDuration":248241,"Delta":416416560},{"NoteNumber":85,"Velocity":77,"Duration":120663,"SoundDuration":120663,"Delta":416664802},{"NoteNumber":89,"Velocity":84,"Duration":120663,"SoundDuration":120663,"Delta":416664802},{"NoteNumber":80,"Velocity":77,"Duration":120663,"SoundDuration":120663,"Delta":416664802},{"NoteNumber":92,"Velocity":84,"Duration":120663,"SoundDuration":120663,"Delta":416664802},{"NoteNumber":61,"Velocity":59,"Duration":120663,"SoundDuration":120663,"Delta":416664802},{"NoteNumber":65,"Velocity":59,"Duration":120663,"SoundDuration":120663,"Delta":416664802},{"NoteNumber":68,"Velocity":68,"Duration":120663,"SoundDuration":120663,"Delta":416664802},{"NoteNumber":56,"Velocity":59,"Duration":120663,"SoundDuration":120663,"Delta":416664802},{"NoteNumber":79,"Velocity":77,"Duration":119674,"SoundDuration":119674,"Delta":416785465},{"NoteNumber":91,"Velocity":84,"Duration":119674,"SoundDuration":119674,"Delta":416785465},{"NoteNumber":55,"Velocity":59,"Duration":119674,"SoundDuration":119674,"Delta":416785465},{"NoteNumber":67,"Velocity":68,"Duration":119674,"SoundDuration":119674,"Delta":416785465},{"NoteNumber":78,"Velocity":75,"Duration":118708,"SoundDuration":118708,"Delta":416905140},{"NoteNumber":90,"Velocity":83,"Duration":118708,"SoundDuration":118708,"Delta":416905140},{"NoteNumber":54,"Velocity":59,"Duration":118708,"SoundDuration":118708,"Delta":416905140},{"NoteNumber":66,"Velocity":68,"Duration":118708,"SoundDuration":118708,"Delta":416905140},{"NoteNumber":77,"Velocity":73,"Duration":117823,"SoundDuration":117823,"Delta":417023849},{"NoteNumber":89,"Velocity":82,"Duration":117823,"SoundDuration":117823,"Delta":417023849},{"NoteNumber":53,"Velocity":59,"Duration":117823,"SoundDuration":117823,"Delta":417023849},{"NoteNumber":65,"Velocity":67,"Duration":117823,"SoundDuration":117823,"Delta":417023849},{"NoteNumber":76,"Velocity":72,"Duration":117801,"SoundDuration":117801,"Delta":417141672},{"NoteNumber":88,"Velocity":81,"Duration":117801,"SoundDuration":117801,"Delta":417141672},{"NoteNumber":52,"Velocity":58,"Duration":117801,"SoundDuration":117801,"Delta":417141672},{"NoteNumber":64,"Velocity":66,"Duration":117801,"SoundDuration":117801,"Delta":417141672},{"NoteNumber":75,"Velocity":72,"Duration":117035,"SoundDuration":117035,"Delta":417259474},{"NoteNumber":87,"Velocity":80,"Duration":117035,"SoundDuration":117035,"Delta":417259474},{"NoteNumber":51,"Velocity":58,"Duration":117035,"SoundDuration":117035,"Delta":417259474},{"NoteNumber":63,"Velocity":64,"Duration":117035,"SoundDuration":117035,"Delta":417259474},{"NoteNumber":74,"Velocity":71,"Duration":116129,"SoundDuration":116129,"Delta":417376509},{"NoteNumber":86,"Velocity":79,"Duration":116129,"SoundDuration":116129,"Delta":417376509},{"NoteNumber":50,"Velocity":57,"Duration":116129,"SoundDuration":116129,"Delta":417376509},{"NoteNumber":62,"Velocity":62,"Duration":116129,"SoundDuration":116129,"Delta":417376509},{"NoteNumber":73,"Velocity":69,"Duration":115268,"SoundDuration":115268,"Delta":417492639},{"NoteNumber":85,"Velocity":79,"Duration":115268,"SoundDuration":115268,"Delta":417492639},{"NoteNumber":49,"Velocity":57,"Duration":115268,"SoundDuration":115268,"Delta":417492639},{"NoteNumber":61,"Velocity":61,"Duration":115268,"SoundDuration":115268,"Delta":417492639},{"NoteNumber":37,"Velocity":88,"Duration":238701,"SoundDuration":238701,"Delta":417607908},{"NoteNumber":49,"Velocity":88,"Duration":238701,"SoundDuration":238701,"Delta":417607908},{"NoteNumber":89,"Velocity":97,"Duration":466926,"SoundDuration":466926,"Delta":417846609},{"NoteNumber":77,"Velocity":88,"Duration":466926,"SoundDuration":466926,"Delta":417846609},{"NoteNumber":80,"Velocity":88,"Duration":466926,"SoundDuration":466926,"Delta":417846609},{"NoteNumber":61,"Velocity":78,"Duration":466926,"SoundDuration":466926,"Delta":417846609},{"NoteNumber":56,"Velocity":78,"Duration":466926,"SoundDuration":466926,"Delta":417846609},{"NoteNumber":65,"Velocity":86,"Duration":466926,"SoundDuration":466926,"Delta":417846609},{"NoteNumber":68,"Velocity":86,"Duration":466926,"SoundDuration":466926,"Delta":417846609},{"NoteNumber":75,"Velocity":89,"Duration":248241,"SoundDuration":248241,"Delta":418313535},{"NoteNumber":78,"Velocity":89,"Duration":248241,"SoundDuration":248241,"Delta":418313535},{"NoteNumber":87,"Velocity":100,"Duration":248241,"SoundDuration":248241,"Delta":418313535},{"NoteNumber":60,"Velocity":71,"Duration":248241,"SoundDuration":248241,"Delta":418313535},{"NoteNumber":63,"Velocity":80,"Duration":248241,"SoundDuration":248241,"Delta":418313535},{"NoteNumber":57,"Velocity":71,"Duration":248241,"SoundDuration":248241,"Delta":418313535},{"NoteNumber":66,"Velocity":80,"Duration":248241,"SoundDuration":248241,"Delta":418313535},{"NoteNumber":75,"Velocity":80,"Duration":118389,"SoundDuration":118389,"Delta":418561777},{"NoteNumber":87,"Velocity":91,"Duration":118389,"SoundDuration":118389,"Delta":418561777},{"NoteNumber":63,"Velocity":67,"Duration":236148,"SoundDuration":236148,"Delta":418561777},{"NoteNumber":66,"Velocity":75,"Duration":236148,"SoundDuration":236148,"Delta":418561777},{"NoteNumber":57,"Velocity":67,"Duration":236148,"SoundDuration":236148,"Delta":418561777},{"NoteNumber":74,"Velocity":75,"Duration":117758,"SoundDuration":117758,"Delta":418680167},{"NoteNumber":86,"Velocity":83,"Duration":117758,"SoundDuration":117758,"Delta":418680167},{"NoteNumber":73,"Velocity":77,"Duration":117288,"SoundDuration":117288,"Delta":418797925},{"NoteNumber":85,"Velocity":84,"Duration":117288,"SoundDuration":117288,"Delta":418797925},{"NoteNumber":37,"Velocity":57,"Duration":233957,"SoundDuration":233957,"Delta":418797925},{"NoteNumber":49,"Velocity":62,"Duration":233957,"SoundDuration":233957,"Delta":418797925},{"NoteNumber":72,"Velocity":69,"Duration":116668,"SoundDuration":116668,"Delta":418915214},{"NoteNumber":84,"Velocity":78,"Duration":116668,"SoundDuration":116668,"Delta":418915214},{"NoteNumber":73,"Velocity":75,"Duration":118868,"SoundDuration":118868,"Delta":419031882},{"NoteNumber":85,"Velocity":83,"Duration":118868,"SoundDuration":118868,"Delta":419031882},{"NoteNumber":58,"Velocity":69,"Duration":237099,"SoundDuration":237099,"Delta":419031882},{"NoteNumber":61,"Velocity":69,"Duration":237099,"SoundDuration":237099,"Delta":419031882},{"NoteNumber":65,"Velocity":69,"Duration":237099,"SoundDuration":237099,"Delta":419031882},{"NoteNumber":72,"Velocity":69,"Duration":118231,"SoundDuration":118231,"Delta":419150750},{"NoteNumber":84,"Velocity":78,"Duration":118231,"SoundDuration":118231,"Delta":419150750},{"NoteNumber":71,"Velocity":69,"Duration":117758,"SoundDuration":117758,"Delta":419268982},{"NoteNumber":83,"Velocity":78,"Duration":117758,"SoundDuration":117758,"Delta":419268982},{"NoteNumber":37,"Velocity":53,"Duration":234891,"SoundDuration":234891,"Delta":419268982},{"NoteNumber":49,"Velocity":59,"Duration":234891,"SoundDuration":234891,"Delta":419268982},{"NoteNumber":70,"Velocity":69,"Duration":117132,"SoundDuration":117132,"Delta":419386740},{"NoteNumber":82,"Velocity":78,"Duration":117132,"SoundDuration":117132,"Delta":419386740},{"NoteNumber":29,"Velocity":86,"Duration":233027,"SoundDuration":233027,"Delta":419503873},{"NoteNumber":41,"Velocity":86,"Duration":233027,"SoundDuration":233027,"Delta":419503873},{"NoteNumber":77,"Velocity":83,"Duration":466056,"SoundDuration":466056,"Delta":419736901},{"NoteNumber":80,"Velocity":93,"Duration":466056,"SoundDuration":466056,"Delta":419736901},{"NoteNumber":68,"Velocity":83,"Duration":466056,"SoundDuration":466056,"Delta":419736901},{"NoteNumber":73,"Velocity":83,"Duration":466056,"SoundDuration":466056,"Delta":419736901},{"NoteNumber":56,"Velocity":73,"Duration":466056,"SoundDuration":466056,"Delta":419736901},{"NoteNumber":53,"Velocity":73,"Duration":466056,"SoundDuration":466056,"Delta":419736901},{"NoteNumber":61,"Velocity":82,"Duration":466056,"SoundDuration":466056,"Delta":419736901},{"NoteNumber":65,"Velocity":82,"Duration":466056,"SoundDuration":466056,"Delta":419736901},{"NoteNumber":78,"Velocity":78,"Duration":248241,"SoundDuration":248241,"Delta":420202957},{"NoteNumber":69,"Velocity":78,"Duration":248241,"SoundDuration":248241,"Delta":420202957},{"NoteNumber":72,"Velocity":78,"Duration":248241,"SoundDuration":248241,"Delta":420202957},{"NoteNumber":81,"Velocity":88,"Duration":248241,"SoundDuration":248241,"Delta":420202957},{"NoteNumber":54,"Velocity":61,"Duration":248241,"SoundDuration":248241,"Delta":420202957},{"NoteNumber":60,"Velocity":69,"Duration":248241,"SoundDuration":248241,"Delta":420202957},{"NoteNumber":51,"Velocity":61,"Duration":248241,"SoundDuration":248241,"Delta":420202957},{"NoteNumber":63,"Velocity":69,"Duration":248241,"SoundDuration":248241,"Delta":420202957},{"NoteNumber":78,"Velocity":80,"Duration":116977,"SoundDuration":116977,"Delta":420451199},{"NoteNumber":72,"Velocity":80,"Duration":116977,"SoundDuration":116977,"Delta":420451199},{"NoteNumber":69,"Velocity":80,"Duration":116977,"SoundDuration":116977,"Delta":420451199},{"NoteNumber":81,"Velocity":91,"Duration":116977,"SoundDuration":116977,"Delta":420451199},{"NoteNumber":60,"Velocity":60,"Duration":116977,"SoundDuration":116977,"Delta":420451199},{"NoteNumber":54,"Velocity":60,"Duration":116977,"SoundDuration":116977,"Delta":420451199},{"NoteNumber":51,"Velocity":60,"Duration":116977,"SoundDuration":116977,"Delta":420451199},{"NoteNumber":63,"Velocity":69,"Duration":116977,"SoundDuration":116977,"Delta":420451199},{"NoteNumber":70,"Velocity":75,"Duration":116668,"SoundDuration":116668,"Delta":420568176},{"NoteNumber":82,"Velocity":83,"Duration":116668,"SoundDuration":116668,"Delta":420568176},{"NoteNumber":50,"Velocity":57,"Duration":116668,"SoundDuration":116668,"Delta":420568176},{"NoteNumber":62,"Velocity":62,"Duration":116668,"SoundDuration":116668,"Delta":420568176},{"NoteNumber":71,"Velocity":77,"Duration":116360,"SoundDuration":116360,"Delta":420684845},{"NoteNumber":83,"Velocity":84,"Duration":116360,"SoundDuration":116360,"Delta":420684845},{"NoteNumber":49,"Velocity":57,"Duration":116360,"SoundDuration":116360,"Delta":420684845},{"NoteNumber":61,"Velocity":62,"Duration":116360,"SoundDuration":116360,"Delta":420684845},{"NoteNumber":72,"Velocity":69,"Duration":115902,"SoundDuration":115902,"Delta":420801205},{"NoteNumber":84,"Velocity":78,"Duration":115902,"SoundDuration":115902,"Delta":420801205},{"NoteNumber":48,"Velocity":57,"Duration":115902,"SoundDuration":115902,"Delta":420801205},{"NoteNumber":60,"Velocity":62,"Duration":115902,"SoundDuration":115902,"Delta":420801205},{"NoteNumber":77,"Velocity":75,"Duration":117444,"SoundDuration":117444,"Delta":420917107},{"NoteNumber":70,"Velocity":75,"Duration":117444,"SoundDuration":117444,"Delta":420917107},{"NoteNumber":82,"Velocity":83,"Duration":117444,"SoundDuration":117444,"Delta":420917107},{"NoteNumber":49,"Velocity":60,"Duration":117444,"SoundDuration":117444,"Delta":420917107},{"NoteNumber":61,"Velocity":69,"Duration":117444,"SoundDuration":117444,"Delta":420917107},{"NoteNumber":72,"Velocity":69,"Duration":117133,"SoundDuration":117133,"Delta":421034552},{"NoteNumber":84,"Velocity":78,"Duration":117133,"SoundDuration":117133,"Delta":421034552},{"NoteNumber":48,"Velocity":59,"Duration":117133,"SoundDuration":117133,"Delta":421034552},{"NoteNumber":60,"Velocity":66,"Duration":117133,"SoundDuration":117133,"Delta":421034552},{"NoteNumber":73,"Velocity":69,"Duration":116668,"SoundDuration":116668,"Delta":421151685},{"NoteNumber":85,"Velocity":78,"Duration":116668,"SoundDuration":116668,"Delta":421151685},{"NoteNumber":46,"Velocity":59,"Duration":233496,"SoundDuration":233496,"Delta":421151685},{"NoteNumber":58,"Velocity":67,"Duration":233496,"SoundDuration":233496,"Delta":421151685},{"NoteNumber":77,"Velocity":69,"Duration":116827,"SoundDuration":116827,"Delta":421268353},{"NoteNumber":89,"Velocity":78,"Duration":116827,"SoundDuration":116827,"Delta":421268353},{"NoteNumber":34,"Velocity":59,"Duration":117915,"SoundDuration":117915,"Delta":421385181},{"NoteNumber":46,"Velocity":59,"Duration":117915,"SoundDuration":117915,"Delta":421385181},{"NoteNumber":36,"Velocity":60,"Duration":117915,"SoundDuration":117915,"Delta":421503096},{"NoteNumber":48,"Velocity":60,"Duration":117915,"SoundDuration":117915,"Delta":421503096},{"NoteNumber":80,"Velocity":92,"Duration":235830,"SoundDuration":235830,"Delta":421621012},{"NoteNumber":89,"Velocity":92,"Duration":235830,"SoundDuration":235830,"Delta":421621012},{"NoteNumber":92,"Velocity":92,"Duration":235830,"SoundDuration":235830,"Delta":421621012},{"NoteNumber":37,"Velocity":64,"Duration":117915,"SoundDuration":117915,"Delta":421621012},{"NoteNumber":49,"Velocity":64,"Duration":117915,"SoundDuration":117915,"Delta":421621012},{"NoteNumber":41,"Velocity":68,"Duration":117915,"SoundDuration":117915,"Delta":421738927},{"NoteNumber":53,"Velocity":68,"Duration":117915,"SoundDuration":117915,"Delta":421738927},{"NoteNumber":82,"Velocity":100,"Duration":483324,"SoundDuration":483324,"Delta":421856842},{"NoteNumber":88,"Velocity":100,"Duration":483324,"SoundDuration":483324,"Delta":421856842},{"NoteNumber":94,"Velocity":100,"Duration":483324,"SoundDuration":483324,"Delta":421856842},{"NoteNumber":43,"Velocity":69,"Duration":120831,"SoundDuration":120831,"Delta":421856842},{"NoteNumber":55,"Velocity":69,"Duration":120831,"SoundDuration":120831,"Delta":421856842},{"NoteNumber":40,"Velocity":69,"Duration":120831,"SoundDuration":120831,"Delta":421977673},{"NoteNumber":52,"Velocity":69,"Duration":120831,"SoundDuration":120831,"Delta":421977673},{"NoteNumber":39,"Velocity":68,"Duration":120831,"SoundDuration":120831,"Delta":422098505},{"NoteNumber":51,"Velocity":68,"Duration":120831,"SoundDuration":120831,"Delta":422098505},{"NoteNumber":37,"Velocity":67,"Duration":120831,"SoundDuration":120831,"Delta":422219336},{"NoteNumber":49,"Velocity":67,"Duration":120831,"SoundDuration":120831,"Delta":422219336},{"NoteNumber":83,"Velocity":95,"Duration":154527,"SoundDuration":154527,"Delta":422340167},{"NoteNumber":88,"Velocity":95,"Duration":154527,"SoundDuration":154527,"Delta":422340167},{"NoteNumber":95,"Velocity":95,"Duration":154527,"SoundDuration":154527,"Delta":422340167},{"NoteNumber":35,"Velocity":67,"Duration":154527,"SoundDuration":154527,"Delta":422340167},{"NoteNumber":47,"Velocity":67,"Duration":154527,"SoundDuration":154527,"Delta":422340167},{"NoteNumber":47,"Velocity":62,"Duration":398196,"SoundDuration":398196,"Delta":422494695},{"NoteNumber":56,"Velocity":63,"Duration":364370,"SoundDuration":364370,"Delta":422528521},{"NoteNumber":59,"Velocity":61,"Duration":330543,"SoundDuration":330543,"Delta":422562348},{"NoteNumber":64,"Velocity":63,"Duration":296768,"SoundDuration":296768,"Delta":422596123},{"NoteNumber":71,"Velocity":72,"Duration":263097,"SoundDuration":263097,"Delta":422629794},{"NoteNumber":63,"Velocity":71,"Duration":121172,"SoundDuration":121172,"Delta":422892892},{"NoteNumber":75,"Velocity":65,"Duration":120854,"SoundDuration":120854,"Delta":423014065},{"NoteNumber":71,"Velocity":65,"Duration":120854,"SoundDuration":120854,"Delta":423014065},{"NoteNumber":68,"Velocity":59,"Duration":120854,"SoundDuration":120854,"Delta":423014065},{"NoteNumber":64,"Velocity":59,"Duration":120854,"SoundDuration":120854,"Delta":423014065},{"NoteNumber":64,"Velocity":66,"Duration":120537,"SoundDuration":120537,"Delta":423134919},{"NoteNumber":78,"Velocity":64,"Duration":120221,"SoundDuration":120221,"Delta":423255456},{"NoteNumber":66,"Velocity":57,"Duration":120221,"SoundDuration":120221,"Delta":423255456},{"NoteNumber":63,"Velocity":56,"Duration":119751,"SoundDuration":119751,"Delta":423375678},{"NoteNumber":66,"Velocity":56,"Duration":119751,"SoundDuration":119751,"Delta":423375678},{"NoteNumber":69,"Velocity":63,"Duration":119751,"SoundDuration":119751,"Delta":423375678},{"NoteNumber":75,"Velocity":63,"Duration":119751,"SoundDuration":119751,"Delta":423375678},{"NoteNumber":61,"Velocity":56,"Duration":119439,"SoundDuration":119439,"Delta":423495429},{"NoteNumber":61,"Velocity":52,"Duration":119129,"SoundDuration":119129,"Delta":423614868},{"NoteNumber":66,"Velocity":52,"Duration":119129,"SoundDuration":119129,"Delta":423614868},{"NoteNumber":69,"Velocity":59,"Duration":119129,"SoundDuration":119129,"Delta":423614868},{"NoteNumber":73,"Velocity":59,"Duration":119129,"SoundDuration":119129,"Delta":423614868},{"NoteNumber":59,"Velocity":53,"Duration":118821,"SoundDuration":118821,"Delta":423733998},{"NoteNumber":69,"Velocity":62,"Duration":78914,"SoundDuration":78914,"Delta":423852820},{"NoteNumber":73,"Velocity":71,"Duration":480154,"SoundDuration":480154,"Delta":423852820},{"NoteNumber":66,"Velocity":62,"Duration":79368,"SoundDuration":79368,"Delta":423931734},{"NoteNumber":61,"Velocity":62,"Duration":79678,"SoundDuration":79678,"Delta":424011102},{"NoteNumber":57,"Velocity":57,"Duration":80305,"SoundDuration":80305,"Delta":424090781},{"NoteNumber":47,"Velocity":51,"Duration":80622,"SoundDuration":80622,"Delta":424171086},{"NoteNumber":39,"Velocity":50,"Duration":81264,"SoundDuration":81264,"Delta":424251709},{"NoteNumber":40,"Velocity":63,"Duration":81426,"SoundDuration":81426,"Delta":424332974},{"NoteNumber":47,"Velocity":52,"Duration":81426,"SoundDuration":81426,"Delta":424414400},{"NoteNumber":56,"Velocity":52,"Duration":81426,"SoundDuration":81426,"Delta":424495827},{"NoteNumber":59,"Velocity":65,"Duration":81426,"SoundDuration":81426,"Delta":424577254},{"NoteNumber":64,"Velocity":59,"Duration":81426,"SoundDuration":81426,"Delta":424658680},{"NoteNumber":71,"Velocity":59,"Duration":81426,"SoundDuration":81426,"Delta":424740107},{"NoteNumber":68,"Velocity":59,"Duration":81426,"SoundDuration":81426,"Delta":424740107},{"NoteNumber":75,"Velocity":81,"Duration":121654,"SoundDuration":121654,"Delta":424821534},{"NoteNumber":88,"Velocity":57,"Duration":121333,"SoundDuration":121333,"Delta":424943188},{"NoteNumber":83,"Velocity":57,"Duration":121333,"SoundDuration":121333,"Delta":424943188},{"NoteNumber":80,"Velocity":57,"Duration":121333,"SoundDuration":121333,"Delta":424943188},{"NoteNumber":76,"Velocity":57,"Duration":121333,"SoundDuration":121333,"Delta":424943188},{"NoteNumber":76,"Velocity":76,"Duration":121013,"SoundDuration":121013,"Delta":425064522},{"NoteNumber":90,"Velocity":62,"Duration":120695,"SoundDuration":120695,"Delta":425185536},{"NoteNumber":78,"Velocity":62,"Duration":120695,"SoundDuration":120695,"Delta":425185536},{"NoteNumber":87,"Velocity":69,"Duration":120221,"SoundDuration":120221,"Delta":425306231},{"NoteNumber":81,"Velocity":69,"Duration":120221,"SoundDuration":120221,"Delta":425306231},{"NoteNumber":78,"Velocity":62,"Duration":120221,"SoundDuration":120221,"Delta":425306231},{"NoteNumber":75,"Velocity":62,"Duration":120221,"SoundDuration":120221,"Delta":425306231},{"NoteNumber":73,"Velocity":65,"Duration":119907,"SoundDuration":119907,"Delta":425426452},{"NoteNumber":85,"Velocity":57,"Duration":119595,"SoundDuration":119595,"Delta":425546360},{"NoteNumber":81,"Velocity":51,"Duration":119595,"SoundDuration":119595,"Delta":425546360},{"NoteNumber":78,"Velocity":57,"Duration":119595,"SoundDuration":119595,"Delta":425546360},{"NoteNumber":73,"Velocity":51,"Duration":119595,"SoundDuration":119595,"Delta":425546360},{"NoteNumber":71,"Velocity":56,"Duration":119129,"SoundDuration":119129,"Delta":425665955},{"NoteNumber":82,"Velocity":64,"Duration":59185,"SoundDuration":59185,"Delta":425785085},{"NoteNumber":85,"Velocity":72,"Duration":478570,"SoundDuration":478570,"Delta":425785085},{"NoteNumber":76,"Velocity":61,"Duration":59335,"SoundDuration":59335,"Delta":425844271},{"NoteNumber":73,"Velocity":63,"Duration":59487,"SoundDuration":59487,"Delta":425903606},{"NoteNumber":70,"Velocity":62,"Duration":59642,"SoundDuration":59642,"Delta":425963094},{"NoteNumber":64,"Velocity":64,"Duration":59953,"SoundDuration":59953,"Delta":426022736},{"NoteNumber":61,"Velocity":66,"Duration":60110,"SoundDuration":60110,"Delta":426082690},{"NoteNumber":55,"Velocity":70,"Duration":60347,"SoundDuration":60347,"Delta":426142801},{"NoteNumber":32,"Velocity":70,"Duration":127659,"SoundDuration":127659,"Delta":426263655},{"NoteNumber":41,"Velocity":63,"Duration":127659,"SoundDuration":127659,"Delta":426391315},{"NoteNumber":44,"Velocity":76,"Duration":122339,"SoundDuration":122339,"Delta":426518974},{"NoteNumber":49,"Velocity":59,"Duration":122170,"SoundDuration":122170,"Delta":426641313},{"NoteNumber":56,"Velocity":67,"Duration":122170,"SoundDuration":122170,"Delta":426641313},{"NoteNumber":48,"Velocity":85,"Duration":121832,"SoundDuration":121832,"Delta":426763483},{"NoteNumber":61,"Velocity":59,"Duration":121664,"SoundDuration":121664,"Delta":426885316},{"NoteNumber":56,"Velocity":52,"Duration":121664,"SoundDuration":121664,"Delta":426885316},{"NoteNumber":53,"Velocity":52,"Duration":121664,"SoundDuration":121664,"Delta":426885316},{"NoteNumber":49,"Velocity":52,"Duration":121664,"SoundDuration":121664,"Delta":426885316},{"NoteNumber":49,"Velocity":79,"Duration":121329,"SoundDuration":121329,"Delta":427006980},{"NoteNumber":63,"Velocity":56,"Duration":127107,"SoundDuration":127107,"Delta":427128310},{"NoteNumber":51,"Velocity":56,"Duration":127107,"SoundDuration":127107,"Delta":427128310},{"NoteNumber":60,"Velocity":75,"Duration":121329,"SoundDuration":121329,"Delta":427255418},{"NoteNumber":54,"Velocity":56,"Duration":121329,"SoundDuration":121329,"Delta":427255418},{"NoteNumber":51,"Velocity":56,"Duration":121329,"SoundDuration":121329,"Delta":427255418},{"NoteNumber":48,"Velocity":56,"Duration":121329,"SoundDuration":121329,"Delta":427255418},{"NoteNumber":46,"Velocity":62,"Duration":120327,"SoundDuration":120327,"Delta":427376748},{"NoteNumber":58,"Velocity":70,"Duration":120163,"SoundDuration":120163,"Delta":427497075},{"NoteNumber":46,"Velocity":47,"Duration":120163,"SoundDuration":120163,"Delta":427497075},{"NoteNumber":44,"Velocity":58,"Duration":119837,"SoundDuration":119837,"Delta":427617239},{"NoteNumber":52,"Velocity":63,"Duration":119350,"SoundDuration":119350,"Delta":427737076},{"NoteNumber":58,"Velocity":85,"Duration":479966,"SoundDuration":479966,"Delta":427737076},{"NoteNumber":46,"Velocity":59,"Duration":119674,"SoundDuration":119674,"Delta":427856426},{"NoteNumber":42,"Velocity":58,"Duration":120163,"SoundDuration":120163,"Delta":427976101},{"NoteNumber":30,"Velocity":51,"Duration":120777,"SoundDuration":120777,"Delta":428096265},{"NoteNumber":29,"Velocity":70,"Duration":127659,"SoundDuration":127659,"Delta":428217042},{"NoteNumber":46,"Velocity":63,"Duration":127659,"SoundDuration":127659,"Delta":428344702},{"NoteNumber":50,"Velocity":76,"Duration":122339,"SoundDuration":122339,"Delta":428472361},{"NoteNumber":58,"Velocity":59,"Duration":122170,"SoundDuration":122170,"Delta":428594700},{"NoteNumber":65,"Velocity":67,"Duration":122170,"SoundDuration":122170,"Delta":428594700},{"NoteNumber":57,"Velocity":85,"Duration":121832,"SoundDuration":121832,"Delta":428716870},{"NoteNumber":70,"Velocity":63,"Duration":121664,"SoundDuration":121664,"Delta":428838703},{"NoteNumber":65,"Velocity":52,"Duration":121664,"SoundDuration":121664,"Delta":428838703},{"NoteNumber":62,"Velocity":52,"Duration":121664,"SoundDuration":121664,"Delta":428838703},{"NoteNumber":58,"Velocity":52,"Duration":121664,"SoundDuration":121664,"Delta":428838703},{"NoteNumber":58,"Velocity":79,"Duration":121329,"SoundDuration":121329,"Delta":428960367},{"NoteNumber":72,"Velocity":59,"Duration":127107,"SoundDuration":127107,"Delta":429081697},{"NoteNumber":60,"Velocity":56,"Duration":127107,"SoundDuration":127107,"Delta":429081697},{"NoteNumber":69,"Velocity":75,"Duration":121329,"SoundDuration":121329,"Delta":429208805},{"NoteNumber":63,"Velocity":56,"Duration":121329,"SoundDuration":121329,"Delta":429208805},{"NoteNumber":60,"Velocity":56,"Duration":121329,"SoundDuration":121329,"Delta":429208805},{"NoteNumber":57,"Velocity":56,"Duration":121329,"SoundDuration":121329,"Delta":429208805},{"NoteNumber":55,"Velocity":62,"Duration":120327,"SoundDuration":120327,"Delta":429330135},{"NoteNumber":67,"Velocity":70,"Duration":120163,"SoundDuration":120163,"Delta":429450462},{"NoteNumber":55,"Velocity":47,"Duration":120163,"SoundDuration":120163,"Delta":429450462},{"NoteNumber":53,"Velocity":58,"Duration":119837,"SoundDuration":119837,"Delta":429570626},{"NoteNumber":61,"Velocity":63,"Duration":119350,"SoundDuration":119350,"Delta":429690463},{"NoteNumber":67,"Velocity":76,"Duration":479966,"SoundDuration":479966,"Delta":429690463},{"NoteNumber":52,"Velocity":59,"Duration":119674,"SoundDuration":119674,"Delta":429809814},{"NoteNumber":49,"Velocity":58,"Duration":120163,"SoundDuration":120163,"Delta":429929488},{"NoteNumber":33,"Velocity":51,"Duration":120777,"SoundDuration":120777,"Delta":430049652},{"NoteNumber":32,"Velocity":70,"Duration":127659,"SoundDuration":127659,"Delta":430170429},{"NoteNumber":49,"Velocity":63,"Duration":127659,"SoundDuration":127659,"Delta":430298089},{"NoteNumber":53,"Velocity":76,"Duration":122339,"SoundDuration":122339,"Delta":430425748},{"NoteNumber":61,"Velocity":59,"Duration":122170,"SoundDuration":122170,"Delta":430548087},{"NoteNumber":68,"Velocity":67,"Duration":122170,"SoundDuration":122170,"Delta":430548087},{"NoteNumber":60,"Velocity":85,"Duration":121832,"SoundDuration":121832,"Delta":430670258},{"NoteNumber":73,"Velocity":63,"Duration":121664,"SoundDuration":121664,"Delta":430792090},{"NoteNumber":68,"Velocity":52,"Duration":121664,"SoundDuration":121664,"Delta":430792090},{"NoteNumber":65,"Velocity":52,"Duration":121664,"SoundDuration":121664,"Delta":430792090},{"NoteNumber":61,"Velocity":52,"Duration":121664,"SoundDuration":121664,"Delta":430792090},{"NoteNumber":61,"Velocity":79,"Duration":121329,"SoundDuration":121329,"Delta":430913755},{"NoteNumber":75,"Velocity":59,"Duration":127107,"SoundDuration":127107,"Delta":431035084},{"NoteNumber":63,"Velocity":56,"Duration":127107,"SoundDuration":127107,"Delta":431035084},{"NoteNumber":72,"Velocity":75,"Duration":121329,"SoundDuration":121329,"Delta":431162192},{"NoteNumber":66,"Velocity":56,"Duration":121329,"SoundDuration":121329,"Delta":431162192},{"NoteNumber":63,"Velocity":56,"Duration":121329,"SoundDuration":121329,"Delta":431162192},{"NoteNumber":60,"Velocity":56,"Duration":121329,"SoundDuration":121329,"Delta":431162192},{"NoteNumber":58,"Velocity":62,"Duration":120327,"SoundDuration":120327,"Delta":431283522},{"NoteNumber":70,"Velocity":70,"Duration":120163,"SoundDuration":120163,"Delta":431403849},{"NoteNumber":58,"Velocity":47,"Duration":120163,"SoundDuration":120163,"Delta":431403849},{"NoteNumber":56,"Velocity":58,"Duration":119837,"SoundDuration":119837,"Delta":431524013},{"NoteNumber":64,"Velocity":63,"Duration":119350,"SoundDuration":119350,"Delta":431643850},{"NoteNumber":70,"Velocity":85,"Duration":480020,"SoundDuration":480020,"Delta":431643850},{"NoteNumber":58,"Velocity":59,"Duration":119674,"SoundDuration":119674,"Delta":431763201},{"NoteNumber":54,"Velocity":58,"Duration":120163,"SoundDuration":120163,"Delta":431882876},{"NoteNumber":42,"Velocity":51,"Duration":120831,"SoundDuration":120831,"Delta":432003039},{"NoteNumber":41,"Velocity":73,"Duration":127659,"SoundDuration":127659,"Delta":432123871},{"NoteNumber":58,"Velocity":67,"Duration":127615,"SoundDuration":127615,"Delta":432251530},{"NoteNumber":62,"Velocity":80,"Duration":122339,"SoundDuration":122339,"Delta":432379145},{"NoteNumber":70,"Velocity":62,"Duration":122165,"SoundDuration":122165,"Delta":432501484},{"NoteNumber":77,"Velocity":70,"Duration":122165,"SoundDuration":122165,"Delta":432501484},{"NoteNumber":69,"Velocity":89,"Duration":121832,"SoundDuration":121832,"Delta":432623650},{"NoteNumber":70,"Velocity":57,"Duration":121660,"SoundDuration":121660,"Delta":432745482},{"NoteNumber":77,"Velocity":57,"Duration":121660,"SoundDuration":121660,"Delta":432745482},{"NoteNumber":74,"Velocity":57,"Duration":121660,"SoundDuration":121660,"Delta":432745482},{"NoteNumber":82,"Velocity":67,"Duration":121660,"SoundDuration":121660,"Delta":432745482},{"NoteNumber":70,"Velocity":84,"Duration":121377,"SoundDuration":121377,"Delta":432867143},{"NoteNumber":84,"Velocity":61,"Duration":127059,"SoundDuration":127059,"Delta":432988521},{"NoteNumber":72,"Velocity":58,"Duration":127059,"SoundDuration":127059,"Delta":432988521},{"NoteNumber":81,"Velocity":81,"Duration":121321,"SoundDuration":121321,"Delta":433115580},{"NoteNumber":75,"Velocity":60,"Duration":121321,"SoundDuration":121321,"Delta":433115580},{"NoteNumber":72,"Velocity":60,"Duration":121321,"SoundDuration":121321,"Delta":433115580},{"NoteNumber":69,"Velocity":60,"Duration":121321,"SoundDuration":121321,"Delta":433115580},{"NoteNumber":67,"Velocity":66,"Duration":120327,"SoundDuration":120327,"Delta":433236902},{"NoteNumber":79,"Velocity":75,"Duration":120159,"SoundDuration":120159,"Delta":433357229},{"NoteNumber":67,"Velocity":49,"Duration":120159,"SoundDuration":120159,"Delta":433357229},{"NoteNumber":65,"Velocity":60,"Duration":119832,"SoundDuration":119832,"Delta":433477389},{"NoteNumber":73,"Velocity":67,"Duration":119350,"SoundDuration":119350,"Delta":433597222},{"NoteNumber":79,"Velocity":90,"Duration":479981,"SoundDuration":479981,"Delta":433597222},{"NoteNumber":64,"Velocity":61,"Duration":119678,"SoundDuration":119678,"Delta":433716572},{"NoteNumber":52,"Velocity":58,"Duration":120167,"SoundDuration":120167,"Delta":433836251},{"NoteNumber":61,"Velocity":60,"Duration":120167,"SoundDuration":120167,"Delta":433836251},{"NoteNumber":45,"Velocity":52,"Duration":120784,"SoundDuration":120784,"Delta":433956419},{"NoteNumber":49,"Velocity":81,"Duration":124409,"SoundDuration":124409,"Delta":434077204},{"NoteNumber":44,"Velocity":73,"Duration":124409,"SoundDuration":124409,"Delta":434077204},{"NoteNumber":61,"Velocity":75,"Duration":124391,"SoundDuration":124391,"Delta":434201613},{"NoteNumber":65,"Velocity":89,"Duration":122339,"SoundDuration":122339,"Delta":434326004},{"NoteNumber":73,"Velocity":69,"Duration":122165,"SoundDuration":122165,"Delta":434448343},{"NoteNumber":80,"Velocity":77,"Duration":122165,"SoundDuration":122165,"Delta":434448343},{"NoteNumber":72,"Velocity":94,"Duration":121832,"SoundDuration":121832,"Delta":434570509},{"NoteNumber":73,"Velocity":62,"Duration":121660,"SoundDuration":121660,"Delta":434692341},{"NoteNumber":85,"Velocity":69,"Duration":121660,"SoundDuration":121660,"Delta":434692341},{"NoteNumber":73,"Velocity":87,"Duration":121377,"SoundDuration":121377,"Delta":434814002},{"NoteNumber":87,"Velocity":65,"Duration":127059,"SoundDuration":127059,"Delta":434935380},{"NoteNumber":75,"Velocity":65,"Duration":127059,"SoundDuration":127059,"Delta":434935380},{"NoteNumber":84,"Velocity":85,"Duration":121321,"SoundDuration":121321,"Delta":435062440},{"NoteNumber":78,"Velocity":67,"Duration":121321,"SoundDuration":121321,"Delta":435062440},{"NoteNumber":75,"Velocity":67,"Duration":121321,"SoundDuration":121321,"Delta":435062440},{"NoteNumber":72,"Velocity":67,"Duration":121321,"SoundDuration":121321,"Delta":435062440},{"NoteNumber":44,"Velocity":59,"Duration":121321,"SoundDuration":121321,"Delta":435062440},{"NoteNumber":51,"Velocity":59,"Duration":121321,"SoundDuration":121321,"Delta":435062440},{"NoteNumber":54,"Velocity":59,"Duration":121321,"SoundDuration":121321,"Delta":435062440},{"NoteNumber":60,"Velocity":67,"Duration":121321,"SoundDuration":121321,"Delta":435062440},{"NoteNumber":70,"Velocity":59,"Duration":120327,"SoundDuration":120327,"Delta":435183761},{"NoteNumber":58,"Velocity":59,"Duration":120327,"SoundDuration":120327,"Delta":435183761},{"NoteNumber":82,"Velocity":76,"Duration":120327,"SoundDuration":120327,"Delta":435304088},{"NoteNumber":70,"Velocity":54,"Duration":120327,"SoundDuration":120327,"Delta":435304088},{"NoteNumber":68,"Velocity":57,"Duration":126008,"SoundDuration":126008,"Delta":435424415},{"NoteNumber":56,"Velocity":57,"Duration":126008,"SoundDuration":126008,"Delta":435424415},{"NoteNumber":86,"Velocity":85,"Duration":120327,"SoundDuration":120327,"Delta":435550423},{"NoteNumber":80,"Velocity":67,"Duration":120327,"SoundDuration":120327,"Delta":435550423},{"NoteNumber":77,"Velocity":67,"Duration":120327,"SoundDuration":120327,"Delta":435550423},{"NoteNumber":74,"Velocity":67,"Duration":120327,"SoundDuration":120327,"Delta":435550423},{"NoteNumber":73,"Velocity":59,"Duration":120327,"SoundDuration":120327,"Delta":435670751},{"NoteNumber":61,"Velocity":59,"Duration":120327,"SoundDuration":120327,"Delta":435670751},{"NoteNumber":85,"Velocity":77,"Duration":120327,"SoundDuration":120327,"Delta":435791078},{"NoteNumber":73,"Velocity":56,"Duration":120327,"SoundDuration":120327,"Delta":435791078},{"NoteNumber":71,"Velocity":57,"Duration":124409,"SoundDuration":124409,"Delta":435911405},{"NoteNumber":59,"Velocity":57,"Duration":124409,"SoundDuration":124409,"Delta":435911405},{"NoteNumber":88,"Velocity":87,"Duration":120327,"SoundDuration":120327,"Delta":436035814},{"NoteNumber":82,"Velocity":69,"Duration":120327,"SoundDuration":120327,"Delta":436035814},{"NoteNumber":79,"Velocity":69,"Duration":120327,"SoundDuration":120327,"Delta":436035814},{"NoteNumber":76,"Velocity":69,"Duration":120327,"SoundDuration":120327,"Delta":436035814},{"NoteNumber":75,"Velocity":59,"Duration":120327,"SoundDuration":120327,"Delta":436156141},{"NoteNumber":63,"Velocity":59,"Duration":120327,"SoundDuration":120327,"Delta":436156141},{"NoteNumber":87,"Velocity":79,"Duration":120327,"SoundDuration":120327,"Delta":436276469},{"NoteNumber":75,"Velocity":57,"Duration":120327,"SoundDuration":120327,"Delta":436276469},{"NoteNumber":73,"Velocity":58,"Duration":124409,"SoundDuration":124409,"Delta":436396796},{"NoteNumber":61,"Velocity":58,"Duration":124409,"SoundDuration":124409,"Delta":436396796},{"NoteNumber":89,"Velocity":89,"Duration":120327,"SoundDuration":120327,"Delta":436521205},{"NoteNumber":83,"Velocity":70,"Duration":120327,"SoundDuration":120327,"Delta":436521205},{"NoteNumber":80,"Velocity":70,"Duration":120327,"SoundDuration":120327,"Delta":436521205},{"NoteNumber":77,"Velocity":70,"Duration":120327,"SoundDuration":120327,"Delta":436521205},{"NoteNumber":75,"Velocity":61,"Duration":120327,"SoundDuration":120327,"Delta":436641532},{"NoteNumber":63,"Velocity":61,"Duration":120327,"SoundDuration":120327,"Delta":436641532},{"NoteNumber":87,"Velocity":80,"Duration":120327,"SoundDuration":120327,"Delta":436761859},{"NoteNumber":75,"Velocity":57,"Duration":120327,"SoundDuration":120327,"Delta":436761859},{"NoteNumber":74,"Velocity":59,"Duration":125470,"SoundDuration":125470,"Delta":436882187},{"NoteNumber":62,"Velocity":59,"Duration":125470,"SoundDuration":125470,"Delta":436882187},{"NoteNumber":81,"Velocity":71,"Duration":120327,"SoundDuration":120327,"Delta":437007657},{"NoteNumber":85,"Velocity":71,"Duration":120327,"SoundDuration":120327,"Delta":437007657},{"NoteNumber":87,"Velocity":71,"Duration":120327,"SoundDuration":120327,"Delta":437007657},{"NoteNumber":93,"Velocity":90,"Duration":120327,"SoundDuration":120327,"Delta":437007657},{"NoteNumber":56,"Velocity":61,"Duration":120327,"SoundDuration":120327,"Delta":437007657},{"NoteNumber":63,"Velocity":61,"Duration":120327,"SoundDuration":120327,"Delta":437007657},{"NoteNumber":66,"Velocity":61,"Duration":120327,"SoundDuration":120327,"Delta":437007657},{"NoteNumber":73,"Velocity":70,"Duration":120327,"SoundDuration":120327,"Delta":437007657},{"NoteNumber":80,"Velocity":67,"Duration":120327,"SoundDuration":120327,"Delta":437127984},{"NoteNumber":80,"Velocity":58,"Duration":120327,"SoundDuration":120327,"Delta":437248312},{"NoteNumber":92,"Velocity":81,"Duration":120327,"SoundDuration":120327,"Delta":437248312},{"NoteNumber":78,"Velocity":58,"Duration":124409,"SoundDuration":124409,"Delta":437368639},{"NoteNumber":90,"Velocity":66,"Duration":124409,"SoundDuration":124409,"Delta":437368639},{"NoteNumber":84,"Velocity":73,"Duration":119837,"SoundDuration":119837,"Delta":437493048},{"NoteNumber":87,"Velocity":73,"Duration":119837,"SoundDuration":119837,"Delta":437493048},{"NoteNumber":90,"Velocity":73,"Duration":119837,"SoundDuration":119837,"Delta":437493048},{"NoteNumber":96,"Velocity":92,"Duration":119837,"SoundDuration":119837,"Delta":437493048},{"NoteNumber":56,"Velocity":63,"Duration":119837,"SoundDuration":119837,"Delta":437493048},{"NoteNumber":63,"Velocity":63,"Duration":119837,"SoundDuration":119837,"Delta":437493048},{"NoteNumber":66,"Velocity":63,"Duration":119837,"SoundDuration":119837,"Delta":437493048},{"NoteNumber":72,"Velocity":71,"Duration":119837,"SoundDuration":119837,"Delta":437493048},{"NoteNumber":82,"Velocity":67,"Duration":119836,"SoundDuration":119836,"Delta":437612885},{"NoteNumber":82,"Velocity":59,"Duration":126008,"SoundDuration":126008,"Delta":437732722},{"NoteNumber":94,"Velocity":84,"Duration":126008,"SoundDuration":126008,"Delta":437732722},{"NoteNumber":80,"Velocity":59,"Duration":126008,"SoundDuration":126008,"Delta":437858730},{"NoteNumber":92,"Velocity":84,"Duration":126008,"SoundDuration":126008,"Delta":437858730},{"NoteNumber":85,"Velocity":70,"Duration":256432,"SoundDuration":256432,"Delta":437984738},{"NoteNumber":89,"Velocity":70,"Duration":256432,"SoundDuration":256432,"Delta":437984738},{"NoteNumber":97,"Velocity":100,"Duration":256432,"SoundDuration":256432,"Delta":437984738},{"NoteNumber":65,"Velocity":70,"Duration":256432,"SoundDuration":256432,"Delta":437984738},{"NoteNumber":70,"Velocity":70,"Duration":256432,"SoundDuration":256432,"Delta":437984738},{"NoteNumber":58,"Velocity":70,"Duration":255776,"SoundDuration":255776,"Delta":437992217},{"NoteNumber":56,"Velocity":61,"Duration":87732,"SoundDuration":87732,"Delta":438241170},{"NoteNumber":61,"Velocity":61,"Duration":87732,"SoundDuration":87732,"Delta":438241170},{"NoteNumber":56,"Velocity":54,"Duration":87732,"SoundDuration":87732,"Delta":438358147},{"NoteNumber":61,"Velocity":54,"Duration":87732,"SoundDuration":87732,"Delta":438358147},{"NoteNumber":49,"Velocity":55,"Duration":87732,"SoundDuration":87732,"Delta":438475124},{"NoteNumber":54,"Velocity":55,"Duration":87732,"SoundDuration":87732,"Delta":438475124},{"NoteNumber":49,"Velocity":55,"Duration":87348,"SoundDuration":87348,"Delta":438592102},{"NoteNumber":54,"Velocity":55,"Duration":87348,"SoundDuration":87348,"Delta":438592102},{"NoteNumber":56,"Velocity":61,"Duration":86850,"SoundDuration":86850,"Delta":438708464},{"NoteNumber":61,"Velocity":61,"Duration":86850,"SoundDuration":86850,"Delta":438708464},{"NoteNumber":56,"Velocity":56,"Duration":86506,"SoundDuration":86506,"Delta":438824214},{"NoteNumber":61,"Velocity":56,"Duration":86506,"SoundDuration":86506,"Delta":438824214},{"NoteNumber":49,"Velocity":65,"Duration":86015,"SoundDuration":86015,"Delta":438939504},{"NoteNumber":57,"Velocity":65,"Duration":86015,"SoundDuration":86015,"Delta":438939504},{"NoteNumber":49,"Velocity":61,"Duration":86015,"SoundDuration":86015,"Delta":439054192},{"NoteNumber":57,"Velocity":61,"Duration":86015,"SoundDuration":86015,"Delta":439054192},{"NoteNumber":59,"Velocity":61,"Duration":86015,"SoundDuration":86015,"Delta":439168880},{"NoteNumber":61,"Velocity":61,"Duration":86015,"SoundDuration":86015,"Delta":439168880},{"NoteNumber":59,"Velocity":56,"Duration":86015,"SoundDuration":86015,"Delta":439283567},{"NoteNumber":61,"Velocity":56,"Duration":86015,"SoundDuration":86015,"Delta":439283567},{"NoteNumber":49,"Velocity":63,"Duration":86015,"SoundDuration":86015,"Delta":439398255},{"NoteNumber":56,"Velocity":63,"Duration":86015,"SoundDuration":86015,"Delta":439398255},{"NoteNumber":49,"Velocity":61,"Duration":86015,"SoundDuration":86015,"Delta":439512943},{"NoteNumber":56,"Velocity":61,"Duration":86015,"SoundDuration":86015,"Delta":439512943},{"NoteNumber":57,"Velocity":61,"Duration":86015,"SoundDuration":86015,"Delta":439627631},{"NoteNumber":61,"Velocity":61,"Duration":86015,"SoundDuration":86015,"Delta":439627631},{"NoteNumber":57,"Velocity":56,"Duration":86015,"SoundDuration":86015,"Delta":439742318},{"NoteNumber":61,"Velocity":56,"Duration":86015,"SoundDuration":86015,"Delta":439742318},{"NoteNumber":47,"Velocity":63,"Duration":86015,"SoundDuration":86015,"Delta":439857006},{"NoteNumber":54,"Velocity":63,"Duration":86015,"SoundDuration":86015,"Delta":439857006},{"NoteNumber":54,"Velocity":61,"Duration":86015,"SoundDuration":86015,"Delta":439971694},{"NoteNumber":59,"Velocity":61,"Duration":86015,"SoundDuration":86015,"Delta":439971694},{"NoteNumber":52,"Velocity":56,"Duration":86015,"SoundDuration":86015,"Delta":440086382},{"NoteNumber":59,"Velocity":56,"Duration":86015,"SoundDuration":86015,"Delta":440086382},{"NoteNumber":47,"Velocity":61,"Duration":86015,"SoundDuration":86015,"Delta":440201069},{"NoteNumber":52,"Velocity":61,"Duration":86015,"SoundDuration":86015,"Delta":440201069},{"NoteNumber":47,"Velocity":63,"Duration":86015,"SoundDuration":86015,"Delta":440315757},{"NoteNumber":57,"Velocity":63,"Duration":86015,"SoundDuration":86015,"Delta":440315757},{"NoteNumber":57,"Velocity":56,"Duration":86015,"SoundDuration":86015,"Delta":440430445},{"NoteNumber":59,"Velocity":56,"Duration":86015,"SoundDuration":86015,"Delta":440430445},{"NoteNumber":56,"Velocity":62,"Duration":86698,"SoundDuration":86698,"Delta":440545133},{"NoteNumber":59,"Velocity":62,"Duration":86698,"SoundDuration":86698,"Delta":440545133},{"NoteNumber":47,"Velocity":61,"Duration":86698,"SoundDuration":86698,"Delta":440660731},{"NoteNumber":56,"Velocity":61,"Duration":86698,"SoundDuration":86698,"Delta":440660731},{"NoteNumber":47,"Velocity":62,"Duration":86698,"SoundDuration":86698,"Delta":440776329},{"NoteNumber":54,"Velocity":62,"Duration":86698,"SoundDuration":86698,"Delta":440776329},{"NoteNumber":54,"Velocity":56,"Duration":86698,"SoundDuration":86698,"Delta":440891927},{"NoteNumber":59,"Velocity":56,"Duration":86698,"SoundDuration":86698,"Delta":440891927},{"NoteNumber":56,"Velocity":61,"Duration":86698,"SoundDuration":86698,"Delta":441007525},{"NoteNumber":59,"Velocity":61,"Duration":86698,"SoundDuration":86698,"Delta":441007525},{"NoteNumber":47,"Velocity":61,"Duration":87134,"SoundDuration":87134,"Delta":441123123},{"NoteNumber":56,"Velocity":61,"Duration":87134,"SoundDuration":87134,"Delta":441123123},{"NoteNumber":47,"Velocity":61,"Duration":87732,"SoundDuration":87732,"Delta":441240465},{"NoteNumber":57,"Velocity":61,"Duration":87732,"SoundDuration":87732,"Delta":441240465},{"NoteNumber":57,"Velocity":61,"Duration":87732,"SoundDuration":87732,"Delta":441357442},{"NoteNumber":59,"Velocity":61,"Duration":87732,"SoundDuration":87732,"Delta":441357442},{"NoteNumber":42,"Velocity":61,"Duration":89877,"SoundDuration":89877,"Delta":441474420},{"NoteNumber":54,"Velocity":61,"Duration":89877,"SoundDuration":89877,"Delta":441474420},{"NoteNumber":69,"Velocity":84,"Duration":89877,"SoundDuration":89877,"Delta":441594257},{"NoteNumber":81,"Velocity":95,"Duration":89877,"SoundDuration":89877,"Delta":441594257},{"NoteNumber":75,"Velocity":84,"Duration":89877,"SoundDuration":89877,"Delta":441594257},{"NoteNumber":73,"Velocity":84,"Duration":233954,"SoundDuration":233954,"Delta":441714094},{"NoteNumber":77,"Velocity":84,"Duration":233954,"SoundDuration":233954,"Delta":441714094},{"NoteNumber":85,"Velocity":95,"Duration":233954,"SoundDuration":233954,"Delta":441714094},{"NoteNumber":37,"Velocity":70,"Duration":233954,"SoundDuration":233954,"Delta":441714094},{"NoteNumber":44,"Velocity":70,"Duration":233954,"SoundDuration":233954,"Delta":441714094},{"NoteNumber":49,"Velocity":79,"Duration":233954,"SoundDuration":233954,"Delta":441714094},{"NoteNumber":56,"Velocity":61,"Duration":87732,"SoundDuration":87732,"Delta":441948048},{"NoteNumber":61,"Velocity":61,"Duration":87732,"SoundDuration":87732,"Delta":441948048},{"NoteNumber":56,"Velocity":54,"Duration":87732,"SoundDuration":87732,"Delta":442065025},{"NoteNumber":61,"Velocity":54,"Duration":87732,"SoundDuration":87732,"Delta":442065025},{"NoteNumber":49,"Velocity":55,"Duration":87732,"SoundDuration":87732,"Delta":442182003},{"NoteNumber":54,"Velocity":55,"Duration":87732,"SoundDuration":87732,"Delta":442182003},{"NoteNumber":49,"Velocity":55,"Duration":87694,"SoundDuration":87694,"Delta":442298980},{"NoteNumber":54,"Velocity":55,"Duration":87694,"SoundDuration":87694,"Delta":442298980},{"NoteNumber":56,"Velocity":61,"Duration":87193,"SoundDuration":87193,"Delta":442415803},{"NoteNumber":61,"Velocity":61,"Duration":87193,"SoundDuration":87193,"Delta":442415803},{"NoteNumber":56,"Velocity":56,"Duration":86850,"SoundDuration":86850,"Delta":442532010},{"NoteNumber":61,"Velocity":56,"Duration":86850,"SoundDuration":86850,"Delta":442532010},{"NoteNumber":49,"Velocity":65,"Duration":86352,"SoundDuration":86352,"Delta":442647760},{"NoteNumber":57,"Velocity":65,"Duration":86352,"SoundDuration":86352,"Delta":442647760},{"NoteNumber":49,"Velocity":61,"Duration":86352,"SoundDuration":86352,"Delta":442762897},{"NoteNumber":57,"Velocity":61,"Duration":86352,"SoundDuration":86352,"Delta":442762897},{"NoteNumber":59,"Velocity":61,"Duration":86352,"SoundDuration":86352,"Delta":442878034},{"NoteNumber":61,"Velocity":61,"Duration":86352,"SoundDuration":86352,"Delta":442878034},{"NoteNumber":59,"Velocity":56,"Duration":86352,"SoundDuration":86352,"Delta":442993170},{"NoteNumber":61,"Velocity":56,"Duration":86352,"SoundDuration":86352,"Delta":442993170},{"NoteNumber":49,"Velocity":63,"Duration":86352,"SoundDuration":86352,"Delta":443108307},{"NoteNumber":56,"Velocity":63,"Duration":86352,"SoundDuration":86352,"Delta":443108307},{"NoteNumber":49,"Velocity":61,"Duration":86352,"SoundDuration":86352,"Delta":443223444},{"NoteNumber":56,"Velocity":61,"Duration":86352,"SoundDuration":86352,"Delta":443223444},{"NoteNumber":57,"Velocity":61,"Duration":86352,"SoundDuration":86352,"Delta":443338581},{"NoteNumber":61,"Velocity":61,"Duration":86352,"SoundDuration":86352,"Delta":443338581},{"NoteNumber":57,"Velocity":56,"Duration":86352,"SoundDuration":86352,"Delta":443453717},{"NoteNumber":61,"Velocity":56,"Duration":86352,"SoundDuration":86352,"Delta":443453717},{"NoteNumber":49,"Velocity":63,"Duration":86352,"SoundDuration":86352,"Delta":443568854},{"NoteNumber":54,"Velocity":63,"Duration":86352,"SoundDuration":86352,"Delta":443568854},{"NoteNumber":54,"Velocity":61,"Duration":86352,"SoundDuration":86352,"Delta":443683991},{"NoteNumber":57,"Velocity":61,"Duration":86352,"SoundDuration":86352,"Delta":443683991},{"NoteNumber":52,"Velocity":56,"Duration":87385,"SoundDuration":87385,"Delta":443799128},{"NoteNumber":57,"Velocity":56,"Duration":87385,"SoundDuration":87385,"Delta":443799128},{"NoteNumber":49,"Velocity":61,"Duration":87385,"SoundDuration":87385,"Delta":443915642},{"NoteNumber":52,"Velocity":61,"Duration":87385,"SoundDuration":87385,"Delta":443915642},{"NoteNumber":49,"Velocity":63,"Duration":87385,"SoundDuration":87385,"Delta":444032156},{"NoteNumber":55,"Velocity":63,"Duration":87385,"SoundDuration":87385,"Delta":444032156},{"NoteNumber":55,"Velocity":56,"Duration":87385,"SoundDuration":87385,"Delta":444148670},{"NoteNumber":57,"Velocity":56,"Duration":87385,"SoundDuration":87385,"Delta":444148670},{"NoteNumber":54,"Velocity":62,"Duration":87040,"SoundDuration":87040,"Delta":444265184},{"NoteNumber":57,"Velocity":62,"Duration":87040,"SoundDuration":87040,"Delta":444265184},{"NoteNumber":49,"Velocity":61,"Duration":87040,"SoundDuration":87040,"Delta":444381238},{"NoteNumber":54,"Velocity":61,"Duration":87040,"SoundDuration":87040,"Delta":444381238},{"NoteNumber":49,"Velocity":62,"Duration":87040,"SoundDuration":87040,"Delta":444497292},{"NoteNumber":52,"Velocity":62,"Duration":87040,"SoundDuration":87040,"Delta":444497292},{"NoteNumber":52,"Velocity":56,"Duration":87040,"SoundDuration":87040,"Delta":444613346},{"NoteNumber":57,"Velocity":56,"Duration":87040,"SoundDuration":87040,"Delta":444613346},{"NoteNumber":54,"Velocity":61,"Duration":87040,"SoundDuration":87040,"Delta":444729401},{"NoteNumber":57,"Velocity":61,"Duration":87040,"SoundDuration":87040,"Delta":444729401},{"NoteNumber":49,"Velocity":61,"Duration":87438,"SoundDuration":87438,"Delta":444845455},{"NoteNumber":54,"Velocity":61,"Duration":87438,"SoundDuration":87438,"Delta":444845455},{"NoteNumber":49,"Velocity":61,"Duration":88083,"SoundDuration":88083,"Delta":444963102},{"NoteNumber":55,"Velocity":61,"Duration":88083,"SoundDuration":88083,"Delta":444963102},{"NoteNumber":55,"Velocity":61,"Duration":88083,"SoundDuration":88083,"Delta":445080546},{"NoteNumber":57,"Velocity":61,"Duration":88083,"SoundDuration":88083,"Delta":445080546},{"NoteNumber":37,"Velocity":61,"Duration":481309,"SoundDuration":481309,"Delta":445197991},{"NoteNumber":49,"Velocity":61,"Duration":90245,"SoundDuration":90245,"Delta":445197991},{"NoteNumber":57,"Velocity":84,"Duration":90245,"SoundDuration":90245,"Delta":445318318},{"NoteNumber":69,"Velocity":95,"Duration":90245,"SoundDuration":90245,"Delta":445318318},{"NoteNumber":66,"Velocity":84,"Duration":240654,"SoundDuration":240654,"Delta":445438645},{"NoteNumber":69,"Velocity":84,"Duration":240654,"SoundDuration":240654,"Delta":445438645},{"NoteNumber":74,"Velocity":84,"Duration":240654,"SoundDuration":240654,"Delta":445438645},{"NoteNumber":78,"Velocity":95,"Duration":240654,"SoundDuration":240654,"Delta":445438645},{"NoteNumber":49,"Velocity":70,"Duration":240654,"SoundDuration":240654,"Delta":445438645},{"NoteNumber":54,"Velocity":70,"Duration":240654,"SoundDuration":240654,"Delta":445438645},{"NoteNumber":57,"Velocity":70,"Duration":240654,"SoundDuration":240654,"Delta":445438645},{"NoteNumber":62,"Velocity":79,"Duration":240654,"SoundDuration":240654,"Delta":445438645},{"NoteNumber":62,"Velocity":61,"Duration":88083,"SoundDuration":88083,"Delta":445679300},{"NoteNumber":69,"Velocity":61,"Duration":88083,"SoundDuration":88083,"Delta":445679300},{"NoteNumber":62,"Velocity":54,"Duration":88083,"SoundDuration":88083,"Delta":445796744},{"NoteNumber":69,"Velocity":54,"Duration":88083,"SoundDuration":88083,"Delta":445796744},{"NoteNumber":54,"Velocity":55,"Duration":88083,"SoundDuration":88083,"Delta":445914189},{"NoteNumber":61,"Velocity":55,"Duration":88083,"SoundDuration":88083,"Delta":445914189},{"NoteNumber":54,"Velocity":55,"Duration":88397,"SoundDuration":88397,"Delta":446031633},{"NoteNumber":61,"Velocity":55,"Duration":88397,"SoundDuration":88397,"Delta":446031633},{"NoteNumber":62,"Velocity":61,"Duration":87694,"SoundDuration":87694,"Delta":446149391},{"NoteNumber":69,"Velocity":61,"Duration":87694,"SoundDuration":87694,"Delta":446149391},{"NoteNumber":62,"Velocity":56,"Duration":86850,"SoundDuration":86850,"Delta":446266214},{"NoteNumber":69,"Velocity":56,"Duration":86850,"SoundDuration":86850,"Delta":446266214},{"NoteNumber":54,"Velocity":65,"Duration":86015,"SoundDuration":86015,"Delta":446381964},{"NoteNumber":64,"Velocity":65,"Duration":86015,"SoundDuration":86015,"Delta":446381964},{"NoteNumber":54,"Velocity":61,"Duration":86015,"SoundDuration":86015,"Delta":446496652},{"NoteNumber":64,"Velocity":61,"Duration":86015,"SoundDuration":86015,"Delta":446496652},{"NoteNumber":66,"Velocity":61,"Duration":86015,"SoundDuration":86015,"Delta":446611340},{"NoteNumber":69,"Velocity":61,"Duration":86015,"SoundDuration":86015,"Delta":446611340},{"NoteNumber":66,"Velocity":56,"Duration":86015,"SoundDuration":86015,"Delta":446726028},{"NoteNumber":69,"Velocity":56,"Duration":86015,"SoundDuration":86015,"Delta":446726028},{"NoteNumber":54,"Velocity":63,"Duration":86015,"SoundDuration":86015,"Delta":446840715},{"NoteNumber":62,"Velocity":63,"Duration":86015,"SoundDuration":86015,"Delta":446840715},{"NoteNumber":54,"Velocity":61,"Duration":86015,"SoundDuration":86015,"Delta":446955403},{"NoteNumber":62,"Velocity":61,"Duration":86015,"SoundDuration":86015,"Delta":446955403},{"NoteNumber":66,"Velocity":61,"Duration":86015,"SoundDuration":86015,"Delta":447070091},{"NoteNumber":61,"Velocity":61,"Duration":86015,"SoundDuration":86015,"Delta":447070091},{"NoteNumber":69,"Velocity":61,"Duration":86015,"SoundDuration":86015,"Delta":447070091},{"NoteNumber":66,"Velocity":56,"Duration":86015,"SoundDuration":86015,"Delta":447184779},{"NoteNumber":61,"Velocity":56,"Duration":86015,"SoundDuration":86015,"Delta":447184779},{"NoteNumber":69,"Velocity":56,"Duration":86015,"SoundDuration":86015,"Delta":447184779},{"NoteNumber":71,"Velocity":84,"Duration":243664,"SoundDuration":243664,"Delta":447299466},{"NoteNumber":74,"Velocity":84,"Duration":243664,"SoundDuration":243664,"Delta":447299466},{"NoteNumber":79,"Velocity":84,"Duration":243664,"SoundDuration":243664,"Delta":447299466},{"NoteNumber":83,"Velocity":95,"Duration":243664,"SoundDuration":243664,"Delta":447299466},{"NoteNumber":49,"Velocity":70,"Duration":243664,"SoundDuration":243664,"Delta":447299466},{"NoteNumber":55,"Velocity":70,"Duration":243664,"SoundDuration":243664,"Delta":447299466},{"NoteNumber":59,"Velocity":70,"Duration":243664,"SoundDuration":243664,"Delta":447299466},{"NoteNumber":62,"Velocity":79,"Duration":243664,"SoundDuration":243664,"Delta":447299466},{"NoteNumber":67,"Velocity":61,"Duration":87385,"SoundDuration":87385,"Delta":447543131},{"NoteNumber":74,"Velocity":61,"Duration":87385,"SoundDuration":87385,"Delta":447543131},{"NoteNumber":67,"Velocity":54,"Duration":87385,"SoundDuration":87385,"Delta":447659645},{"NoteNumber":74,"Velocity":54,"Duration":87385,"SoundDuration":87385,"Delta":447659645},{"NoteNumber":59,"Velocity":55,"Duration":87385,"SoundDuration":87385,"Delta":447776159},{"NoteNumber":66,"Velocity":55,"Duration":87385,"SoundDuration":87385,"Delta":447776159},{"NoteNumber":59,"Velocity":55,"Duration":87347,"SoundDuration":87347,"Delta":447892673},{"NoteNumber":66,"Velocity":55,"Duration":87347,"SoundDuration":87347,"Delta":447892673},{"NoteNumber":67,"Velocity":61,"Duration":87002,"SoundDuration":87002,"Delta":448009034},{"NoteNumber":74,"Velocity":61,"Duration":87002,"SoundDuration":87002,"Delta":448009034},{"NoteNumber":67,"Velocity":56,"Duration":86660,"SoundDuration":86660,"Delta":448124936},{"NoteNumber":74,"Velocity":56,"Duration":86660,"SoundDuration":86660,"Delta":448124936},{"NoteNumber":59,"Velocity":65,"Duration":86165,"SoundDuration":86165,"Delta":448240380},{"NoteNumber":69,"Velocity":65,"Duration":86165,"SoundDuration":86165,"Delta":448240380},{"NoteNumber":59,"Velocity":61,"Duration":86015,"SoundDuration":86015,"Delta":448355217},{"NoteNumber":69,"Velocity":61,"Duration":86015,"SoundDuration":86015,"Delta":448355217},{"NoteNumber":71,"Velocity":61,"Duration":86015,"SoundDuration":86015,"Delta":448469905},{"NoteNumber":74,"Velocity":61,"Duration":86015,"SoundDuration":86015,"Delta":448469905},{"NoteNumber":71,"Velocity":56,"Duration":86015,"SoundDuration":86015,"Delta":448584593},{"NoteNumber":74,"Velocity":56,"Duration":86015,"SoundDuration":86015,"Delta":448584593},{"NoteNumber":59,"Velocity":63,"Duration":86015,"SoundDuration":86015,"Delta":448699281},{"NoteNumber":67,"Velocity":63,"Duration":86015,"SoundDuration":86015,"Delta":448699281},{"NoteNumber":59,"Velocity":61,"Duration":86015,"SoundDuration":86015,"Delta":448813968},{"NoteNumber":67,"Velocity":61,"Duration":86015,"SoundDuration":86015,"Delta":448813968},{"NoteNumber":71,"Velocity":61,"Duration":243681,"SoundDuration":243681,"Delta":448928656},{"NoteNumber":66,"Velocity":61,"Duration":243681,"SoundDuration":243681,"Delta":448928656},{"NoteNumber":74,"Velocity":61,"Duration":243681,"SoundDuration":243681,"Delta":448928656},{"NoteNumber":53,"Velocity":65,"Duration":358052,"SoundDuration":358052,"Delta":449172338},{"NoteNumber":65,"Velocity":65,"Duration":358052,"SoundDuration":358052,"Delta":449172338},{"NoteNumber":59,"Velocity":62,"Duration":119350,"SoundDuration":119350,"Delta":449291689},{"NoteNumber":61,"Velocity":62,"Duration":119350,"SoundDuration":119350,"Delta":449291689},{"NoteNumber":37,"Velocity":51,"Duration":119350,"SoundDuration":119350,"Delta":449411040},{"NoteNumber":44,"Velocity":51,"Duration":119350,"SoundDuration":119350,"Delta":449411040},{"NoteNumber":49,"Velocity":55,"Duration":119350,"SoundDuration":119350,"Delta":449411040},{"NoteNumber":54,"Velocity":63,"Duration":122339,"SoundDuration":122339,"Delta":449530390},{"NoteNumber":66,"Velocity":63,"Duration":122339,"SoundDuration":122339,"Delta":449530390},{"NoteNumber":67,"Velocity":67,"Duration":357087,"SoundDuration":357087,"Delta":449652729},{"NoteNumber":55,"Velocity":67,"Duration":357087,"SoundDuration":357087,"Delta":449652729},{"NoteNumber":61,"Velocity":63,"Duration":118868,"SoundDuration":118868,"Delta":449772080},{"NoteNumber":65,"Velocity":63,"Duration":118868,"SoundDuration":118868,"Delta":449772080},{"NoteNumber":71,"Velocity":52,"Duration":118868,"SoundDuration":118868,"Delta":449890948},{"NoteNumber":73,"Velocity":56,"Duration":118868,"SoundDuration":118868,"Delta":449890948},{"NoteNumber":77,"Velocity":56,"Duration":118868,"SoundDuration":118868,"Delta":449890948},{"NoteNumber":56,"Velocity":66,"Duration":121832,"SoundDuration":121832,"Delta":450009817},{"NoteNumber":68,"Velocity":66,"Duration":121832,"SoundDuration":121832,"Delta":450009817},{"NoteNumber":57,"Velocity":72,"Duration":356285,"SoundDuration":356285,"Delta":450131649},{"NoteNumber":69,"Velocity":72,"Duration":356285,"SoundDuration":356285,"Delta":450131649},{"NoteNumber":61,"Velocity":66,"Duration":118868,"SoundDuration":118868,"Delta":450250517},{"NoteNumber":66,"Velocity":66,"Duration":118868,"SoundDuration":118868,"Delta":450250517},{"NoteNumber":49,"Velocity":51,"Duration":118549,"SoundDuration":118549,"Delta":450369385},{"NoteNumber":54,"Velocity":56,"Duration":118549,"SoundDuration":118549,"Delta":450369385},{"NoteNumber":59,"Velocity":71,"Duration":120831,"SoundDuration":120831,"Delta":450487935},{"NoteNumber":71,"Velocity":71,"Duration":120831,"SoundDuration":120831,"Delta":450487935},{"NoteNumber":60,"Velocity":76,"Duration":355169,"SoundDuration":355169,"Delta":450608766},{"NoteNumber":72,"Velocity":76,"Duration":355169,"SoundDuration":355169,"Delta":450608766},{"NoteNumber":66,"Velocity":67,"Duration":118390,"SoundDuration":118390,"Delta":450727156},{"NoteNumber":70,"Velocity":67,"Duration":118390,"SoundDuration":118390,"Delta":450727156},{"NoteNumber":81,"Velocity":62,"Duration":118389,"SoundDuration":118389,"Delta":450845546},{"NoteNumber":78,"Velocity":55,"Duration":118389,"SoundDuration":118389,"Delta":450845546},{"NoteNumber":61,"Velocity":74,"Duration":119523,"SoundDuration":119523,"Delta":450963936},{"NoteNumber":73,"Velocity":74,"Duration":119523,"SoundDuration":119523,"Delta":450963936},{"NoteNumber":62,"Velocity":80,"Duration":353745,"SoundDuration":353745,"Delta":451083459},{"NoteNumber":74,"Velocity":80,"Duration":353745,"SoundDuration":353745,"Delta":451083459},{"NoteNumber":69,"Velocity":72,"Duration":117915,"SoundDuration":117915,"Delta":451201374},{"NoteNumber":66,"Velocity":72,"Duration":117915,"SoundDuration":117915,"Delta":451201374},{"NoteNumber":60,"Velocity":59,"Duration":117915,"SoundDuration":117915,"Delta":451319290},{"NoteNumber":57,"Velocity":59,"Duration":117915,"SoundDuration":117915,"Delta":451319290},{"NoteNumber":54,"Velocity":52,"Duration":117915,"SoundDuration":117915,"Delta":451319290},{"NoteNumber":49,"Velocity":52,"Duration":117915,"SoundDuration":117915,"Delta":451319290},{"NoteNumber":64,"Velocity":76,"Duration":120327,"SoundDuration":120327,"Delta":451437205},{"NoteNumber":76,"Velocity":76,"Duration":120327,"SoundDuration":120327,"Delta":451437205},{"NoteNumber":65,"Velocity":84,"Duration":352804,"SoundDuration":352804,"Delta":451557532},{"NoteNumber":77,"Velocity":84,"Duration":352804,"SoundDuration":352804,"Delta":451557532},{"NoteNumber":69,"Velocity":75,"Duration":117444,"SoundDuration":117444,"Delta":451675447},{"NoteNumber":72,"Velocity":75,"Duration":117444,"SoundDuration":117444,"Delta":451675447},{"NoteNumber":86,"Velocity":69,"Duration":117444,"SoundDuration":117444,"Delta":451792892},{"NoteNumber":84,"Velocity":60,"Duration":117444,"SoundDuration":117444,"Delta":451792892},{"NoteNumber":81,"Velocity":60,"Duration":117444,"SoundDuration":117444,"Delta":451792892},{"NoteNumber":66,"Velocity":81,"Duration":119837,"SoundDuration":119837,"Delta":451910336},{"NoteNumber":78,"Velocity":81,"Duration":119837,"SoundDuration":119837,"Delta":451910336},{"NoteNumber":68,"Velocity":87,"Duration":350931,"SoundDuration":350931,"Delta":452030173},{"NoteNumber":80,"Velocity":87,"Duration":350931,"SoundDuration":350931,"Delta":452030173},{"NoteNumber":75,"Velocity":80,"Duration":116977,"SoundDuration":116977,"Delta":452147151},{"NoteNumber":78,"Velocity":80,"Duration":116977,"SoundDuration":116977,"Delta":452147151},{"NoteNumber":60,"Velocity":63,"Duration":116977,"SoundDuration":116977,"Delta":452264128},{"NoteNumber":56,"Velocity":63,"Duration":116977,"SoundDuration":116977,"Delta":452264128},{"NoteNumber":54,"Velocity":55,"Duration":116977,"SoundDuration":116977,"Delta":452264128},{"NoteNumber":49,"Velocity":55,"Duration":116977,"SoundDuration":116977,"Delta":452264128},{"NoteNumber":70,"Velocity":85,"Duration":119837,"SoundDuration":119837,"Delta":452381105},{"NoteNumber":82,"Velocity":85,"Duration":119837,"SoundDuration":119837,"Delta":452381105},{"NoteNumber":71,"Velocity":92,"Duration":350931,"SoundDuration":350931,"Delta":452500942},{"NoteNumber":83,"Velocity":92,"Duration":350931,"SoundDuration":350931,"Delta":452500942},{"NoteNumber":75,"Velocity":84,"Duration":116977,"SoundDuration":116977,"Delta":452617919},{"NoteNumber":78,"Velocity":84,"Duration":116977,"SoundDuration":116977,"Delta":452617919},{"NoteNumber":92,"Velocity":74,"Duration":116977,"SoundDuration":116977,"Delta":452734897},{"NoteNumber":90,"Velocity":74,"Duration":116977,"SoundDuration":116977,"Delta":452734897},{"NoteNumber":87,"Velocity":63,"Duration":116977,"SoundDuration":116977,"Delta":452734897},{"NoteNumber":72,"Velocity":90,"Duration":118729,"SoundDuration":118729,"Delta":452851874},{"NoteNumber":84,"Velocity":90,"Duration":118729,"SoundDuration":118729,"Delta":452851874},{"NoteNumber":73,"Velocity":96,"Duration":238701,"SoundDuration":238701,"Delta":452970603},{"NoteNumber":77,"Velocity":96,"Duration":238701,"SoundDuration":238701,"Delta":452970603},{"NoteNumber":85,"Velocity":106,"Duration":238701,"SoundDuration":238701,"Delta":452970603},{"NoteNumber":37,"Velocity":79,"Duration":238701,"SoundDuration":238701,"Delta":452970603},{"NoteNumber":44,"Velocity":79,"Duration":238701,"SoundDuration":238701,"Delta":452970603},{"NoteNumber":49,"Velocity":87,"Duration":238701,"SoundDuration":238701,"Delta":452970603},{"NoteNumber":56,"Velocity":55,"Duration":117459,"SoundDuration":117459,"Delta":453209305},{"NoteNumber":61,"Velocity":55,"Duration":117459,"SoundDuration":117459,"Delta":453209305},{"NoteNumber":73,"Velocity":50,"Duration":116513,"SoundDuration":116513,"Delta":453326764},{"NoteNumber":68,"Velocity":50,"Duration":116513,"SoundDuration":116513,"Delta":453326764},{"NoteNumber":61,"Velocity":50,"Duration":116513,"SoundDuration":116513,"Delta":453326764},{"NoteNumber":59,"Velocity":53,"Duration":116054,"SoundDuration":116054,"Delta":453443278},{"NoteNumber":56,"Velocity":53,"Duration":116054,"SoundDuration":116054,"Delta":453443278},{"NoteNumber":71,"Velocity":51,"Duration":115750,"SoundDuration":115750,"Delta":453559333},{"NoteNumber":68,"Velocity":51,"Duration":115750,"SoundDuration":115750,"Delta":453559333},{"NoteNumber":59,"Velocity":51,"Duration":115750,"SoundDuration":115750,"Delta":453559333},{"NoteNumber":56,"Velocity":55,"Duration":115444,"SoundDuration":115444,"Delta":453675083},{"NoteNumber":61,"Velocity":55,"Duration":115444,"SoundDuration":115444,"Delta":453675083},{"NoteNumber":73,"Velocity":52,"Duration":115136,"SoundDuration":115136,"Delta":453790527},{"NoteNumber":68,"Velocity":52,"Duration":115136,"SoundDuration":115136,"Delta":453790527},{"NoteNumber":61,"Velocity":52,"Duration":115136,"SoundDuration":115136,"Delta":453790527},{"NoteNumber":54,"Velocity":61,"Duration":114687,"SoundDuration":114687,"Delta":453905664},{"NoteNumber":62,"Velocity":61,"Duration":114687,"SoundDuration":114687,"Delta":453905664},{"NoteNumber":74,"Velocity":55,"Duration":114687,"SoundDuration":114687,"Delta":454020351},{"NoteNumber":66,"Velocity":55,"Duration":114687,"SoundDuration":114687,"Delta":454020351},{"NoteNumber":62,"Velocity":55,"Duration":114687,"SoundDuration":114687,"Delta":454020351},{"NoteNumber":64,"Velocity":55,"Duration":114687,"SoundDuration":114687,"Delta":454135039},{"NoteNumber":54,"Velocity":55,"Duration":114687,"SoundDuration":114687,"Delta":454135039},{"NoteNumber":76,"Velocity":53,"Duration":114687,"SoundDuration":114687,"Delta":454249727},{"NoteNumber":64,"Velocity":53,"Duration":114687,"SoundDuration":114687,"Delta":454249727},{"NoteNumber":66,"Velocity":53,"Duration":114687,"SoundDuration":114687,"Delta":454249727},{"NoteNumber":61,"Velocity":61,"Duration":114687,"SoundDuration":114687,"Delta":454364415},{"NoteNumber":54,"Velocity":61,"Duration":114687,"SoundDuration":114687,"Delta":454364415},{"NoteNumber":73,"Velocity":53,"Duration":114687,"SoundDuration":114687,"Delta":454479102},{"NoteNumber":66,"Velocity":53,"Duration":114687,"SoundDuration":114687,"Delta":454479102},{"NoteNumber":61,"Velocity":53,"Duration":114687,"SoundDuration":114687,"Delta":454479102},{"NoteNumber":62,"Velocity":55,"Duration":114687,"SoundDuration":114687,"Delta":454593790},{"NoteNumber":54,"Velocity":55,"Duration":114687,"SoundDuration":114687,"Delta":454593790},{"NoteNumber":74,"Velocity":51,"Duration":114687,"SoundDuration":114687,"Delta":454708478},{"NoteNumber":66,"Velocity":51,"Duration":114687,"SoundDuration":114687,"Delta":454708478},{"NoteNumber":62,"Velocity":51,"Duration":114687,"SoundDuration":114687,"Delta":454708478},{"NoteNumber":52,"Velocity":63,"Duration":114687,"SoundDuration":114687,"Delta":454823166},{"NoteNumber":59,"Velocity":63,"Duration":114687,"SoundDuration":114687,"Delta":454823166},{"NoteNumber":71,"Velocity":55,"Duration":114687,"SoundDuration":114687,"Delta":454937853},{"NoteNumber":64,"Velocity":55,"Duration":114687,"SoundDuration":114687,"Delta":454937853},{"NoteNumber":59,"Velocity":55,"Duration":114687,"SoundDuration":114687,"Delta":454937853},{"NoteNumber":69,"Velocity":51,"Duration":114687,"SoundDuration":114687,"Delta":455052541},{"NoteNumber":64,"Velocity":51,"Duration":114687,"SoundDuration":114687,"Delta":455052541},{"NoteNumber":57,"Velocity":51,"Duration":114687,"SoundDuration":114687,"Delta":455052541},{"NoteNumber":52,"Velocity":52,"Duration":114687,"SoundDuration":114687,"Delta":455167229},{"NoteNumber":57,"Velocity":52,"Duration":114687,"SoundDuration":114687,"Delta":455167229},{"NoteNumber":52,"Velocity":63,"Duration":114687,"SoundDuration":114687,"Delta":455281917},{"NoteNumber":62,"Velocity":63,"Duration":114687,"SoundDuration":114687,"Delta":455281917},{"NoteNumber":62,"Velocity":55,"Duration":114687,"SoundDuration":114687,"Delta":455396604},{"NoteNumber":64,"Velocity":55,"Duration":114687,"SoundDuration":114687,"Delta":455396604},{"NoteNumber":74,"Velocity":55,"Duration":114687,"SoundDuration":114687,"Delta":455396604},{"NoteNumber":73,"Velocity":51,"Duration":114687,"SoundDuration":114687,"Delta":455511292},{"NoteNumber":64,"Velocity":51,"Duration":114687,"SoundDuration":114687,"Delta":455511292},{"NoteNumber":61,"Velocity":51,"Duration":114687,"SoundDuration":114687,"Delta":455511292},{"NoteNumber":52,"Velocity":51,"Duration":114687,"SoundDuration":114687,"Delta":455625980},{"NoteNumber":61,"Velocity":51,"Duration":114687,"SoundDuration":114687,"Delta":455625980},{"NoteNumber":52,"Velocity":62,"Duration":115136,"SoundDuration":115136,"Delta":455740668},{"NoteNumber":59,"Velocity":62,"Duration":115136,"SoundDuration":115136,"Delta":455740668},{"NoteNumber":59,"Velocity":52,"Duration":115444,"SoundDuration":115444,"Delta":455855804},{"NoteNumber":64,"Velocity":52,"Duration":115444,"SoundDuration":115444,"Delta":455855804},{"NoteNumber":71,"Velocity":52,"Duration":115444,"SoundDuration":115444,"Delta":455855804},{"NoteNumber":61,"Velocity":49,"Duration":115902,"SoundDuration":115902,"Delta":455971249},{"NoteNumber":64,"Velocity":49,"Duration":115902,"SoundDuration":115902,"Delta":455971249},{"NoteNumber":73,"Velocity":49,"Duration":115902,"SoundDuration":115902,"Delta":455971249},{"NoteNumber":52,"Velocity":55,"Duration":116207,"SoundDuration":116207,"Delta":456087151},{"NoteNumber":61,"Velocity":55,"Duration":116207,"SoundDuration":116207,"Delta":456087151},{"NoteNumber":52,"Velocity":63,"Duration":116668,"SoundDuration":116668,"Delta":456203358},{"NoteNumber":62,"Velocity":63,"Duration":116668,"SoundDuration":116668,"Delta":456203358},{"NoteNumber":62,"Velocity":55,"Duration":116977,"SoundDuration":116977,"Delta":456320027},{"NoteNumber":64,"Velocity":55,"Duration":116977,"SoundDuration":116977,"Delta":456320027},{"NoteNumber":74,"Velocity":55,"Duration":116977,"SoundDuration":116977,"Delta":456320027},{"NoteNumber":38,"Velocity":62,"Duration":117444,"SoundDuration":117444,"Delta":456437004},{"NoteNumber":44,"Velocity":62,"Duration":117444,"SoundDuration":117444,"Delta":456437004},{"NoteNumber":50,"Velocity":62,"Duration":117444,"SoundDuration":117444,"Delta":456437004},{"NoteNumber":68,"Velocity":73,"Duration":117915,"SoundDuration":117915,"Delta":456554449},{"NoteNumber":78,"Velocity":73,"Duration":117915,"SoundDuration":117915,"Delta":456554449},{"NoteNumber":80,"Velocity":73,"Duration":117915,"SoundDuration":117915,"Delta":456554449},{"NoteNumber":73,"Velocity":84,"Duration":239673,"SoundDuration":239673,"Delta":456672364},{"NoteNumber":77,"Velocity":84,"Duration":239673,"SoundDuration":239673,"Delta":456672364},{"NoteNumber":85,"Velocity":95,"Duration":239673,"SoundDuration":239673,"Delta":456672364},{"NoteNumber":37,"Velocity":70,"Duration":239673,"SoundDuration":239673,"Delta":456672364},{"NoteNumber":44,"Velocity":70,"Duration":239673,"SoundDuration":239673,"Delta":456672364},{"NoteNumber":49,"Velocity":79,"Duration":239673,"SoundDuration":239673,"Delta":456672364},{"NoteNumber":56,"Velocity":55,"Duration":118242,"SoundDuration":118242,"Delta":456912038},{"NoteNumber":61,"Velocity":55,"Duration":118242,"SoundDuration":118242,"Delta":456912038},{"NoteNumber":73,"Velocity":50,"Duration":117132,"SoundDuration":117132,"Delta":457030280},{"NoteNumber":68,"Velocity":50,"Duration":117132,"SoundDuration":117132,"Delta":457030280},{"NoteNumber":61,"Velocity":50,"Duration":117132,"SoundDuration":117132,"Delta":457030280},{"NoteNumber":59,"Velocity":53,"Duration":116668,"SoundDuration":116668,"Delta":457147413},{"NoteNumber":56,"Velocity":53,"Duration":116668,"SoundDuration":116668,"Delta":457147413},{"NoteNumber":71,"Velocity":51,"Duration":116207,"SoundDuration":116207,"Delta":457264081},{"NoteNumber":68,"Velocity":51,"Duration":116207,"SoundDuration":116207,"Delta":457264081},{"NoteNumber":59,"Velocity":51,"Duration":116207,"SoundDuration":116207,"Delta":457264081},{"NoteNumber":56,"Velocity":55,"Duration":115750,"SoundDuration":115750,"Delta":457380289},{"NoteNumber":61,"Velocity":55,"Duration":115750,"SoundDuration":115750,"Delta":457380289},{"NoteNumber":73,"Velocity":52,"Duration":115290,"SoundDuration":115290,"Delta":457496039},{"NoteNumber":68,"Velocity":52,"Duration":115290,"SoundDuration":115290,"Delta":457496039},{"NoteNumber":61,"Velocity":52,"Duration":115290,"SoundDuration":115290,"Delta":457496039},{"NoteNumber":54,"Velocity":61,"Duration":114687,"SoundDuration":114687,"Delta":457611329},{"NoteNumber":62,"Velocity":61,"Duration":114687,"SoundDuration":114687,"Delta":457611329},{"NoteNumber":74,"Velocity":55,"Duration":114687,"SoundDuration":114687,"Delta":457726017},{"NoteNumber":66,"Velocity":55,"Duration":114687,"SoundDuration":114687,"Delta":457726017},{"NoteNumber":62,"Velocity":55,"Duration":114687,"SoundDuration":114687,"Delta":457726017},{"NoteNumber":64,"Velocity":55,"Duration":114687,"SoundDuration":114687,"Delta":457840705},{"NoteNumber":54,"Velocity":55,"Duration":114687,"SoundDuration":114687,"Delta":457840705},{"NoteNumber":76,"Velocity":53,"Duration":114687,"SoundDuration":114687,"Delta":457955393},{"NoteNumber":64,"Velocity":53,"Duration":114687,"SoundDuration":114687,"Delta":457955393},{"NoteNumber":66,"Velocity":53,"Duration":114687,"SoundDuration":114687,"Delta":457955393},{"NoteNumber":61,"Velocity":61,"Duration":114687,"SoundDuration":114687,"Delta":458070080},{"NoteNumber":54,"Velocity":61,"Duration":114687,"SoundDuration":114687,"Delta":458070080},{"NoteNumber":73,"Velocity":53,"Duration":114687,"SoundDuration":114687,"Delta":458184768},{"NoteNumber":66,"Velocity":53,"Duration":114687,"SoundDuration":114687,"Delta":458184768},{"NoteNumber":61,"Velocity":53,"Duration":114687,"SoundDuration":114687,"Delta":458184768},{"NoteNumber":62,"Velocity":55,"Duration":114687,"SoundDuration":114687,"Delta":458299456},{"NoteNumber":54,"Velocity":55,"Duration":114687,"SoundDuration":114687,"Delta":458299456},{"NoteNumber":74,"Velocity":51,"Duration":114687,"SoundDuration":114687,"Delta":458414144},{"NoteNumber":66,"Velocity":51,"Duration":114687,"SoundDuration":114687,"Delta":458414144},{"NoteNumber":62,"Velocity":51,"Duration":114687,"SoundDuration":114687,"Delta":458414144},{"NoteNumber":52,"Velocity":63,"Duration":114687,"SoundDuration":114687,"Delta":458528831},{"NoteNumber":59,"Velocity":63,"Duration":114687,"SoundDuration":114687,"Delta":458528831},{"NoteNumber":71,"Velocity":55,"Duration":114687,"SoundDuration":114687,"Delta":458643519},{"NoteNumber":64,"Velocity":55,"Duration":114687,"SoundDuration":114687,"Delta":458643519},{"NoteNumber":59,"Velocity":55,"Duration":114687,"SoundDuration":114687,"Delta":458643519},{"NoteNumber":69,"Velocity":51,"Duration":114687,"SoundDuration":114687,"Delta":458758207},{"NoteNumber":64,"Velocity":51,"Duration":114687,"SoundDuration":114687,"Delta":458758207},{"NoteNumber":57,"Velocity":51,"Duration":114687,"SoundDuration":114687,"Delta":458758207},{"NoteNumber":52,"Velocity":52,"Duration":114687,"SoundDuration":114687,"Delta":458872895},{"NoteNumber":57,"Velocity":52,"Duration":114687,"SoundDuration":114687,"Delta":458872895},{"NoteNumber":52,"Velocity":63,"Duration":114687,"SoundDuration":114687,"Delta":458987582},{"NoteNumber":60,"Velocity":63,"Duration":114687,"SoundDuration":114687,"Delta":458987582},{"NoteNumber":60,"Velocity":55,"Duration":114687,"SoundDuration":114687,"Delta":459102270},{"NoteNumber":64,"Velocity":55,"Duration":114687,"SoundDuration":114687,"Delta":459102270},{"NoteNumber":72,"Velocity":55,"Duration":114687,"SoundDuration":114687,"Delta":459102270},{"NoteNumber":71,"Velocity":51,"Duration":114687,"SoundDuration":114687,"Delta":459216958},{"NoteNumber":64,"Velocity":51,"Duration":114687,"SoundDuration":114687,"Delta":459216958},{"NoteNumber":59,"Velocity":51,"Duration":114687,"SoundDuration":114687,"Delta":459216958},{"NoteNumber":52,"Velocity":51,"Duration":114687,"SoundDuration":114687,"Delta":459331646},{"NoteNumber":59,"Velocity":51,"Duration":114687,"SoundDuration":114687,"Delta":459331646},{"NoteNumber":52,"Velocity":62,"Duration":115136,"SoundDuration":115136,"Delta":459446333},{"NoteNumber":57,"Velocity":62,"Duration":115136,"SoundDuration":115136,"Delta":459446333},{"NoteNumber":57,"Velocity":52,"Duration":115444,"SoundDuration":115444,"Delta":459561470},{"NoteNumber":64,"Velocity":52,"Duration":115444,"SoundDuration":115444,"Delta":459561470},{"NoteNumber":69,"Velocity":52,"Duration":115444,"SoundDuration":115444,"Delta":459561470},{"NoteNumber":59,"Velocity":49,"Duration":115902,"SoundDuration":115902,"Delta":459676914},{"NoteNumber":64,"Velocity":49,"Duration":115902,"SoundDuration":115902,"Delta":459676914},{"NoteNumber":71,"Velocity":49,"Duration":115902,"SoundDuration":115902,"Delta":459676914},{"NoteNumber":52,"Velocity":55,"Duration":116207,"SoundDuration":116207,"Delta":459792816},{"NoteNumber":59,"Velocity":55,"Duration":116207,"SoundDuration":116207,"Delta":459792816},{"NoteNumber":50,"Velocity":63,"Duration":116668,"SoundDuration":116668,"Delta":459909024},{"NoteNumber":60,"Velocity":63,"Duration":116668,"SoundDuration":116668,"Delta":459909024},{"NoteNumber":60,"Velocity":55,"Duration":116977,"SoundDuration":116977,"Delta":460025692},{"NoteNumber":62,"Velocity":55,"Duration":116977,"SoundDuration":116977,"Delta":460025692},{"NoteNumber":72,"Velocity":55,"Duration":116977,"SoundDuration":116977,"Delta":460025692},{"NoteNumber":38,"Velocity":62,"Duration":117444,"SoundDuration":117444,"Delta":460142670},{"NoteNumber":50,"Velocity":62,"Duration":117444,"SoundDuration":117444,"Delta":460142670},{"NoteNumber":66,"Velocity":73,"Duration":117915,"SoundDuration":117915,"Delta":460260114},{"NoteNumber":62,"Velocity":73,"Duration":117915,"SoundDuration":117915,"Delta":460260114},{"NoteNumber":72,"Velocity":73,"Duration":117915,"SoundDuration":117915,"Delta":460260114},{"NoteNumber":74,"Velocity":73,"Duration":117915,"SoundDuration":117915,"Delta":460260114},{"NoteNumber":71,"Velocity":84,"Duration":265721,"SoundDuration":265721,"Delta":460378029},{"NoteNumber":74,"Velocity":84,"Duration":265721,"SoundDuration":265721,"Delta":460378029},{"NoteNumber":79,"Velocity":84,"Duration":265721,"SoundDuration":265721,"Delta":460378029},{"NoteNumber":83,"Velocity":95,"Duration":265721,"SoundDuration":265721,"Delta":460378029},{"NoteNumber":31,"Velocity":70,"Duration":265721,"SoundDuration":265721,"Delta":460378029},{"NoteNumber":38,"Velocity":70,"Duration":265721,"SoundDuration":265721,"Delta":460378029},{"NoteNumber":43,"Velocity":79,"Duration":265721,"SoundDuration":265721,"Delta":460378029},{"NoteNumber":67,"Velocity":61,"Duration":87385,"SoundDuration":87385,"Delta":460643751},{"NoteNumber":74,"Velocity":61,"Duration":87385,"SoundDuration":87385,"Delta":460643751},{"NoteNumber":67,"Velocity":54,"Duration":87347,"SoundDuration":87347,"Delta":460760265},{"NoteNumber":74,"Velocity":54,"Duration":87347,"SoundDuration":87347,"Delta":460760265},{"NoteNumber":59,"Velocity":55,"Duration":87040,"SoundDuration":87040,"Delta":460876626},{"NoteNumber":66,"Velocity":55,"Duration":87040,"SoundDuration":87040,"Delta":460876626},{"NoteNumber":59,"Velocity":55,"Duration":86698,"SoundDuration":86698,"Delta":460992680},{"NoteNumber":66,"Velocity":55,"Duration":86698,"SoundDuration":86698,"Delta":460992680},{"NoteNumber":67,"Velocity":61,"Duration":86506,"SoundDuration":86506,"Delta":461108278},{"NoteNumber":74,"Velocity":61,"Duration":86506,"SoundDuration":86506,"Delta":461108278},{"NoteNumber":67,"Velocity":56,"Duration":86315,"SoundDuration":86315,"Delta":461223569},{"NoteNumber":74,"Velocity":56,"Duration":86315,"SoundDuration":86315,"Delta":461223569},{"NoteNumber":59,"Velocity":65,"Duration":85681,"SoundDuration":85681,"Delta":461338556},{"NoteNumber":69,"Velocity":65,"Duration":85681,"SoundDuration":85681,"Delta":461338556},{"NoteNumber":59,"Velocity":61,"Duration":85681,"SoundDuration":85681,"Delta":461452798},{"NoteNumber":69,"Velocity":61,"Duration":85681,"SoundDuration":85681,"Delta":461452798},{"NoteNumber":71,"Velocity":61,"Duration":85681,"SoundDuration":85681,"Delta":461567040},{"NoteNumber":74,"Velocity":61,"Duration":85681,"SoundDuration":85681,"Delta":461567040},{"NoteNumber":71,"Velocity":56,"Duration":85681,"SoundDuration":85681,"Delta":461681283},{"NoteNumber":74,"Velocity":56,"Duration":85681,"SoundDuration":85681,"Delta":461681283},{"NoteNumber":59,"Velocity":63,"Duration":85681,"SoundDuration":85681,"Delta":461795525},{"NoteNumber":67,"Velocity":63,"Duration":85681,"SoundDuration":85681,"Delta":461795525},{"NoteNumber":59,"Velocity":61,"Duration":85681,"SoundDuration":85681,"Delta":461909767},{"NoteNumber":67,"Velocity":61,"Duration":85681,"SoundDuration":85681,"Delta":461909767},{"NoteNumber":71,"Velocity":61,"Duration":85681,"SoundDuration":85681,"Delta":462024009},{"NoteNumber":66,"Velocity":61,"Duration":85681,"SoundDuration":85681,"Delta":462024009},{"NoteNumber":74,"Velocity":61,"Duration":85681,"SoundDuration":85681,"Delta":462024009},{"NoteNumber":71,"Velocity":56,"Duration":85681,"SoundDuration":85681,"Delta":462138252},{"NoteNumber":66,"Velocity":56,"Duration":85681,"SoundDuration":85681,"Delta":462138252},{"NoteNumber":74,"Velocity":56,"Duration":85681,"SoundDuration":85681,"Delta":462138252},{"NoteNumber":76,"Velocity":84,"Duration":254215,"SoundDuration":254215,"Delta":462252494},{"NoteNumber":79,"Velocity":84,"Duration":254215,"SoundDuration":254215,"Delta":462252494},{"NoteNumber":84,"Velocity":84,"Duration":254215,"SoundDuration":254215,"Delta":462252494},{"NoteNumber":88,"Velocity":95,"Duration":254215,"SoundDuration":254215,"Delta":462252494},{"NoteNumber":40,"Velocity":70,"Duration":254215,"SoundDuration":254215,"Delta":462252494},{"NoteNumber":43,"Velocity":70,"Duration":254215,"SoundDuration":254215,"Delta":462252494},{"NoteNumber":48,"Velocity":70,"Duration":254215,"SoundDuration":254215,"Delta":462252494},{"NoteNumber":52,"Velocity":79,"Duration":254215,"SoundDuration":254215,"Delta":462252494},{"NoteNumber":72,"Velocity":61,"Duration":88436,"SoundDuration":88436,"Delta":462506709},{"NoteNumber":79,"Velocity":61,"Duration":88436,"SoundDuration":88436,"Delta":462506709},{"NoteNumber":72,"Velocity":54,"Duration":88436,"SoundDuration":88436,"Delta":462624625},{"NoteNumber":79,"Velocity":54,"Duration":88436,"SoundDuration":88436,"Delta":462624625},{"NoteNumber":64,"Velocity":55,"Duration":88436,"SoundDuration":88436,"Delta":462742540},{"NoteNumber":71,"Velocity":55,"Duration":88436,"SoundDuration":88436,"Delta":462742540},{"NoteNumber":64,"Velocity":55,"Duration":88397,"SoundDuration":88397,"Delta":462860455},{"NoteNumber":71,"Velocity":55,"Duration":88397,"SoundDuration":88397,"Delta":462860455},{"NoteNumber":72,"Velocity":61,"Duration":87501,"SoundDuration":87501,"Delta":462978214},{"NoteNumber":79,"Velocity":61,"Duration":87501,"SoundDuration":87501,"Delta":462978214},{"NoteNumber":72,"Velocity":56,"Duration":86468,"SoundDuration":86468,"Delta":463094729},{"NoteNumber":79,"Velocity":56,"Duration":86468,"SoundDuration":86468,"Delta":463094729},{"NoteNumber":64,"Velocity":65,"Duration":85681,"SoundDuration":85681,"Delta":463209870},{"NoteNumber":74,"Velocity":65,"Duration":85681,"SoundDuration":85681,"Delta":463209870},{"NoteNumber":64,"Velocity":61,"Duration":85681,"SoundDuration":85681,"Delta":463324112},{"NoteNumber":74,"Velocity":61,"Duration":85681,"SoundDuration":85681,"Delta":463324112},{"NoteNumber":76,"Velocity":61,"Duration":85681,"SoundDuration":85681,"Delta":463438354},{"NoteNumber":79,"Velocity":61,"Duration":85681,"SoundDuration":85681,"Delta":463438354},{"NoteNumber":76,"Velocity":56,"Duration":85681,"SoundDuration":85681,"Delta":463552596},{"NoteNumber":79,"Velocity":56,"Duration":85681,"SoundDuration":85681,"Delta":463552596},{"NoteNumber":64,"Velocity":63,"Duration":85681,"SoundDuration":85681,"Delta":463666839},{"NoteNumber":72,"Velocity":63,"Duration":85681,"SoundDuration":85681,"Delta":463666839},{"NoteNumber":64,"Velocity":61,"Duration":85681,"SoundDuration":85681,"Delta":463781081},{"NoteNumber":72,"Velocity":61,"Duration":85681,"SoundDuration":85681,"Delta":463781081},{"NoteNumber":76,"Velocity":61,"Duration":243681,"SoundDuration":243681,"Delta":463895323},{"NoteNumber":71,"Velocity":61,"Duration":243681,"SoundDuration":243681,"Delta":463895323},{"NoteNumber":79,"Velocity":61,"Duration":243681,"SoundDuration":243681,"Delta":463895323},{"NoteNumber":58,"Velocity":65,"Duration":358052,"SoundDuration":358052,"Delta":464139005},{"NoteNumber":70,"Velocity":65,"Duration":358052,"SoundDuration":358052,"Delta":464139005},{"NoteNumber":64,"Velocity":62,"Duration":119350,"SoundDuration":119350,"Delta":464258356},{"NoteNumber":66,"Velocity":62,"Duration":119350,"SoundDuration":119350,"Delta":464258356},{"NoteNumber":49,"Velocity":51,"Duration":119350,"SoundDuration":119350,"Delta":464377706},{"NoteNumber":54,"Velocity":56,"Duration":119350,"SoundDuration":119350,"Delta":464377706},{"NoteNumber":59,"Velocity":64,"Duration":122339,"SoundDuration":122339,"Delta":464497057},{"NoteNumber":71,"Velocity":64,"Duration":122339,"SoundDuration":122339,"Delta":464497057},{"NoteNumber":72,"Velocity":70,"Duration":357087,"SoundDuration":357087,"Delta":464619396},{"NoteNumber":60,"Velocity":70,"Duration":357087,"SoundDuration":357087,"Delta":464619396},{"NoteNumber":66,"Velocity":65,"Duration":118868,"SoundDuration":118868,"Delta":464738747},{"NoteNumber":70,"Velocity":65,"Duration":118868,"SoundDuration":118868,"Delta":464738747},{"NoteNumber":76,"Velocity":53,"Duration":118868,"SoundDuration":118868,"Delta":464857615},{"NoteNumber":78,"Velocity":60,"Duration":118868,"SoundDuration":118868,"Delta":464857615},{"NoteNumber":82,"Velocity":60,"Duration":118868,"SoundDuration":118868,"Delta":464857615},{"NoteNumber":61,"Velocity":70,"Duration":121832,"SoundDuration":121832,"Delta":464976483},{"NoteNumber":73,"Velocity":70,"Duration":121832,"SoundDuration":121832,"Delta":464976483},{"NoteNumber":62,"Velocity":74,"Duration":356285,"SoundDuration":356285,"Delta":465098316},{"NoteNumber":74,"Velocity":74,"Duration":356285,"SoundDuration":356285,"Delta":465098316},{"NoteNumber":66,"Velocity":70,"Duration":118868,"SoundDuration":118868,"Delta":465217184},{"NoteNumber":71,"Velocity":70,"Duration":118868,"SoundDuration":118868,"Delta":465217184},{"NoteNumber":49,"Velocity":53,"Duration":118549,"SoundDuration":118549,"Delta":465336052},{"NoteNumber":54,"Velocity":53,"Duration":118549,"SoundDuration":118549,"Delta":465336052},{"NoteNumber":59,"Velocity":61,"Duration":118549,"SoundDuration":118549,"Delta":465336052},{"NoteNumber":64,"Velocity":73,"Duration":120831,"SoundDuration":120831,"Delta":465454602},{"NoteNumber":76,"Velocity":73,"Duration":120831,"SoundDuration":120831,"Delta":465454602},{"NoteNumber":65,"Velocity":80,"Duration":355169,"SoundDuration":355169,"Delta":465575433},{"NoteNumber":77,"Velocity":80,"Duration":355169,"SoundDuration":355169,"Delta":465575433},{"NoteNumber":71,"Velocity":73,"Duration":118390,"SoundDuration":118390,"Delta":465693823},{"NoteNumber":74,"Velocity":73,"Duration":118390,"SoundDuration":118390,"Delta":465693823},{"NoteNumber":86,"Velocity":65,"Duration":118389,"SoundDuration":118389,"Delta":465812213},{"NoteNumber":83,"Velocity":61,"Duration":118389,"SoundDuration":118389,"Delta":465812213},{"NoteNumber":66,"Velocity":78,"Duration":119523,"SoundDuration":119523,"Delta":465930603},{"NoteNumber":78,"Velocity":78,"Duration":119523,"SoundDuration":119523,"Delta":465930603},{"NoteNumber":68,"Velocity":84,"Duration":353745,"SoundDuration":353745,"Delta":466050126},{"NoteNumber":80,"Velocity":84,"Duration":353745,"SoundDuration":353745,"Delta":466050126},{"NoteNumber":76,"Velocity":78,"Duration":117915,"SoundDuration":117915,"Delta":466168041},{"NoteNumber":74,"Velocity":78,"Duration":117915,"SoundDuration":117915,"Delta":466168041},{"NoteNumber":64,"Velocity":64,"Duration":117915,"SoundDuration":117915,"Delta":466285957},{"NoteNumber":59,"Velocity":64,"Duration":117915,"SoundDuration":117915,"Delta":466285957},{"NoteNumber":56,"Velocity":57,"Duration":117915,"SoundDuration":117915,"Delta":466285957},{"NoteNumber":49,"Velocity":57,"Duration":117915,"SoundDuration":117915,"Delta":466285957},{"NoteNumber":69,"Velocity":81,"Duration":120327,"SoundDuration":120327,"Delta":466403872},{"NoteNumber":81,"Velocity":81,"Duration":120327,"SoundDuration":120327,"Delta":466403872},{"NoteNumber":70,"Velocity":89,"Duration":352804,"SoundDuration":352804,"Delta":466524199},{"NoteNumber":82,"Velocity":89,"Duration":352804,"SoundDuration":352804,"Delta":466524199},{"NoteNumber":74,"Velocity":79,"Duration":117444,"SoundDuration":117444,"Delta":466642114},{"NoteNumber":80,"Velocity":79,"Duration":117444,"SoundDuration":117444,"Delta":466642114},{"NoteNumber":88,"Velocity":75,"Duration":117444,"SoundDuration":117444,"Delta":466759559},{"NoteNumber":86,"Velocity":66,"Duration":117444,"SoundDuration":117444,"Delta":466759559},{"NoteNumber":71,"Velocity":87,"Duration":119837,"SoundDuration":119837,"Delta":466877003},{"NoteNumber":83,"Velocity":87,"Duration":119837,"SoundDuration":119837,"Delta":466877003},{"NoteNumber":72,"Velocity":94,"Duration":350931,"SoundDuration":350931,"Delta":466996840},{"NoteNumber":84,"Velocity":94,"Duration":350931,"SoundDuration":350931,"Delta":466996840},{"NoteNumber":78,"Velocity":86,"Duration":116977,"SoundDuration":116977,"Delta":467113818},{"NoteNumber":80,"Velocity":86,"Duration":116977,"SoundDuration":116977,"Delta":467113818},{"NoteNumber":63,"Velocity":72,"Duration":116977,"SoundDuration":116977,"Delta":467230795},{"NoteNumber":56,"Velocity":63,"Duration":116977,"SoundDuration":116977,"Delta":467230795},{"NoteNumber":49,"Velocity":63,"Duration":116977,"SoundDuration":116977,"Delta":467230795},{"NoteNumber":73,"Velocity":93,"Duration":119837,"SoundDuration":119837,"Delta":467347772},{"NoteNumber":85,"Velocity":93,"Duration":119837,"SoundDuration":119837,"Delta":467347772},{"NoteNumber":75,"Velocity":100,"Duration":350931,"SoundDuration":350931,"Delta":467467609},{"NoteNumber":87,"Velocity":100,"Duration":350931,"SoundDuration":350931,"Delta":467467609},{"NoteNumber":80,"Velocity":92,"Duration":116977,"SoundDuration":116977,"Delta":467584586},{"NoteNumber":84,"Velocity":92,"Duration":116977,"SoundDuration":116977,"Delta":467584586},{"NoteNumber":92,"Velocity":83,"Duration":116977,"SoundDuration":116977,"Delta":467701564},{"NoteNumber":90,"Velocity":83,"Duration":116977,"SoundDuration":116977,"Delta":467701564},{"NoteNumber":76,"Velocity":99,"Duration":118729,"SoundDuration":118729,"Delta":467818541},{"NoteNumber":88,"Velocity":99,"Duration":118729,"SoundDuration":118729,"Delta":467818541},{"NoteNumber":25,"Velocity":75,"Duration":249874,"SoundDuration":249874,"Delta":467937270},{"NoteNumber":37,"Velocity":102,"Duration":249874,"SoundDuration":249874,"Delta":467937270},{"NoteNumber":80,"Velocity":93,"Duration":242659,"SoundDuration":242659,"Delta":468187145},{"NoteNumber":85,"Velocity":106,"Duration":242659,"SoundDuration":242659,"Delta":468187145},{"NoteNumber":89,"Velocity":106,"Duration":242659,"SoundDuration":242659,"Delta":468187145},{"NoteNumber":77,"Velocity":93,"Duration":242659,"SoundDuration":242659,"Delta":468187145},{"NoteNumber":49,"Velocity":74,"Duration":242659,"SoundDuration":242659,"Delta":468187145},{"NoteNumber":44,"Velocity":74,"Duration":242659,"SoundDuration":242659,"Delta":468187145},{"NoteNumber":56,"Velocity":83,"Duration":242659,"SoundDuration":242659,"Delta":468187145},{"NoteNumber":87,"Velocity":99,"Duration":93703,"SoundDuration":93703,"Delta":468429805},{"NoteNumber":75,"Velocity":90,"Duration":93703,"SoundDuration":93703,"Delta":468429805},{"NoteNumber":49,"Velocity":55,"Duration":249874,"SoundDuration":249874,"Delta":468429805},{"NoteNumber":56,"Velocity":55,"Duration":249874,"SoundDuration":249874,"Delta":468429805},{"NoteNumber":61,"Velocity":79,"Duration":249874,"SoundDuration":249874,"Delta":468429805},{"NoteNumber":89,"Velocity":93,"Duration":93703,"SoundDuration":93703,"Delta":468554742},{"NoteNumber":77,"Velocity":83,"Duration":93703,"SoundDuration":93703,"Delta":468554742},{"NoteNumber":85,"Velocity":93,"Duration":243833,"SoundDuration":243833,"Delta":468679680},{"NoteNumber":73,"Velocity":83,"Duration":243833,"SoundDuration":243833,"Delta":468679680},{"NoteNumber":56,"Velocity":55,"Duration":243833,"SoundDuration":243833,"Delta":468679680},{"NoteNumber":61,"Velocity":62,"Duration":243833,"SoundDuration":243833,"Delta":468679680},{"NoteNumber":53,"Velocity":55,"Duration":243833,"SoundDuration":243833,"Delta":468679680},{"NoteNumber":65,"Velocity":79,"Duration":243833,"SoundDuration":243833,"Delta":468679680},{"NoteNumber":37,"Velocity":61,"Duration":122001,"SoundDuration":122001,"Delta":468923513},{"NoteNumber":49,"Velocity":77,"Duration":122001,"SoundDuration":122001,"Delta":468923513},{"NoteNumber":40,"Velocity":61,"Duration":120997,"SoundDuration":120997,"Delta":469045514},{"NoteNumber":52,"Velocity":70,"Duration":120997,"SoundDuration":120997,"Delta":469045514},{"NoteNumber":82,"Velocity":78,"Duration":475975,"SoundDuration":475975,"Delta":469166512},{"NoteNumber":88,"Velocity":78,"Duration":475975,"SoundDuration":475975,"Delta":469166512},{"NoteNumber":94,"Velocity":94,"Duration":475975,"SoundDuration":475975,"Delta":469166512},{"NoteNumber":43,"Velocity":62,"Duration":120163,"SoundDuration":120163,"Delta":469166512},{"NoteNumber":55,"Velocity":71,"Duration":120163,"SoundDuration":120163,"Delta":469166512},{"NoteNumber":46,"Velocity":63,"Duration":119189,"SoundDuration":119189,"Delta":469286676},{"NoteNumber":58,"Velocity":72,"Duration":119189,"SoundDuration":119189,"Delta":469286676},{"NoteNumber":49,"Velocity":63,"Duration":118389,"SoundDuration":118389,"Delta":469405865},{"NoteNumber":61,"Velocity":72,"Duration":118389,"SoundDuration":118389,"Delta":469405865},{"NoteNumber":52,"Velocity":66,"Duration":118231,"SoundDuration":118231,"Delta":469524255},{"NoteNumber":64,"Velocity":74,"Duration":118231,"SoundDuration":118231,"Delta":469524255},{"NoteNumber":84,"Velocity":71,"Duration":250941,"SoundDuration":250941,"Delta":469642487},{"NoteNumber":88,"Velocity":71,"Duration":250941,"SoundDuration":250941,"Delta":469642487},{"NoteNumber":96,"Velocity":82,"Duration":250941,"SoundDuration":250941,"Delta":469642487},{"NoteNumber":55,"Velocity":66,"Duration":250941,"SoundDuration":250941,"Delta":469642487},{"NoteNumber":67,"Velocity":74,"Duration":250941,"SoundDuration":250941,"Delta":469642487},{"NoteNumber":85,"Velocity":73,"Duration":122771,"SoundDuration":122771,"Delta":469893428},{"NoteNumber":89,"Velocity":84,"Duration":122771,"SoundDuration":122771,"Delta":469893428},{"NoteNumber":80,"Velocity":73,"Duration":122771,"SoundDuration":122771,"Delta":469893428},{"NoteNumber":92,"Velocity":84,"Duration":122771,"SoundDuration":122771,"Delta":469893428},{"NoteNumber":25,"Velocity":77,"Duration":244942,"SoundDuration":244942,"Delta":469893428},{"NoteNumber":37,"Velocity":93,"Duration":244942,"SoundDuration":244942,"Delta":469893428},{"NoteNumber":79,"Velocity":73,"Duration":122170,"SoundDuration":122170,"Delta":470016200},{"NoteNumber":91,"Velocity":84,"Duration":122170,"SoundDuration":122170,"Delta":470016200},{"NoteNumber":78,"Velocity":72,"Duration":120913,"SoundDuration":120913,"Delta":470138370},{"NoteNumber":90,"Velocity":82,"Duration":120913,"SoundDuration":120913,"Delta":470138370},{"NoteNumber":61,"Velocity":73,"Duration":479371,"SoundDuration":479371,"Delta":470138370},{"NoteNumber":65,"Velocity":81,"Duration":479371,"SoundDuration":479371,"Delta":470138370},{"NoteNumber":68,"Velocity":81,"Duration":479371,"SoundDuration":479371,"Delta":470138370},{"NoteNumber":56,"Velocity":73,"Duration":479371,"SoundDuration":479371,"Delta":470138370},{"NoteNumber":77,"Velocity":72,"Duration":119756,"SoundDuration":119756,"Delta":470259284},{"NoteNumber":89,"Velocity":80,"Duration":119756,"SoundDuration":119756,"Delta":470259284},{"NoteNumber":76,"Velocity":71,"Duration":119350,"SoundDuration":119350,"Delta":470379040},{"NoteNumber":88,"Velocity":80,"Duration":119350,"SoundDuration":119350,"Delta":470379040},{"NoteNumber":77,"Velocity":71,"Duration":119350,"SoundDuration":119350,"Delta":470498391},{"NoteNumber":89,"Velocity":78,"Duration":119350,"SoundDuration":119350,"Delta":470498391},{"NoteNumber":75,"Velocity":70,"Duration":119350,"SoundDuration":119350,"Delta":470617742},{"NoteNumber":87,"Velocity":77,"Duration":119350,"SoundDuration":119350,"Delta":470617742},{"NoteNumber":56,"Velocity":60,"Duration":238701,"SoundDuration":238701,"Delta":470617742},{"NoteNumber":61,"Velocity":60,"Duration":238701,"SoundDuration":238701,"Delta":470617742},{"NoteNumber":53,"Velocity":60,"Duration":238701,"SoundDuration":238701,"Delta":470617742},{"NoteNumber":65,"Velocity":76,"Duration":238701,"SoundDuration":238701,"Delta":470617742},{"NoteNumber":73,"Velocity":69,"Duration":119350,"SoundDuration":119350,"Delta":470737093},{"NoteNumber":85,"Velocity":76,"Duration":119350,"SoundDuration":119350,"Delta":470737093},{"NoteNumber":37,"Velocity":55,"Duration":120327,"SoundDuration":120327,"Delta":470856443},{"NoteNumber":49,"Velocity":72,"Duration":120327,"SoundDuration":120327,"Delta":470856443},{"NoteNumber":42,"Velocity":55,"Duration":120327,"SoundDuration":120327,"Delta":470976771},{"NoteNumber":54,"Velocity":63,"Duration":120327,"SoundDuration":120327,"Delta":470976771},{"NoteNumber":77,"Velocity":81,"Duration":476127,"SoundDuration":476127,"Delta":471097098},{"NoteNumber":81,"Velocity":81,"Duration":476127,"SoundDuration":476127,"Delta":471097098},{"NoteNumber":89,"Velocity":92,"Duration":476127,"SoundDuration":476127,"Delta":471097098},{"NoteNumber":45,"Velocity":56,"Duration":119837,"SoundDuration":119837,"Delta":471097098},{"NoteNumber":57,"Velocity":63,"Duration":119837,"SoundDuration":119837,"Delta":471097098},{"NoteNumber":48,"Velocity":57,"Duration":119270,"SoundDuration":119270,"Delta":471216935},{"NoteNumber":60,"Velocity":64,"Duration":119270,"SoundDuration":119270,"Delta":471216935},{"NoteNumber":51,"Velocity":57,"Duration":118788,"SoundDuration":118788,"Delta":471336205},{"NoteNumber":63,"Velocity":65,"Duration":118788,"SoundDuration":118788,"Delta":471336205},{"NoteNumber":54,"Velocity":60,"Duration":118231,"SoundDuration":118231,"Delta":471454994},{"NoteNumber":66,"Velocity":66,"Duration":118231,"SoundDuration":118231,"Delta":471454994},{"NoteNumber":75,"Velocity":76,"Duration":249874,"SoundDuration":249874,"Delta":471573225},{"NoteNumber":87,"Velocity":85,"Duration":249874,"SoundDuration":249874,"Delta":471573225},{"NoteNumber":57,"Velocity":61,"Duration":249874,"SoundDuration":249874,"Delta":471573225},{"NoteNumber":69,"Velocity":67,"Duration":249874,"SoundDuration":249874,"Delta":471573225},{"NoteNumber":78,"Velocity":72,"Duration":122771,"SoundDuration":122771,"Delta":471823100},{"NoteNumber":75,"Velocity":72,"Duration":122771,"SoundDuration":122771,"Delta":471823100},{"NoteNumber":87,"Velocity":90,"Duration":122771,"SoundDuration":122771,"Delta":471823100},{"NoteNumber":25,"Velocity":87,"Duration":244942,"SoundDuration":244942,"Delta":471823100},{"NoteNumber":37,"Velocity":87,"Duration":244942,"SoundDuration":244942,"Delta":471823100},{"NoteNumber":74,"Velocity":76,"Duration":122170,"SoundDuration":122170,"Delta":471945872},{"NoteNumber":86,"Velocity":85,"Duration":122170,"SoundDuration":122170,"Delta":471945872},{"NoteNumber":73,"Velocity":74,"Duration":120913,"SoundDuration":120913,"Delta":472068043},{"NoteNumber":85,"Velocity":83,"Duration":120913,"SoundDuration":120913,"Delta":472068043},{"NoteNumber":63,"Velocity":71,"Duration":479371,"SoundDuration":479371,"Delta":472068043},{"NoteNumber":66,"Velocity":79,"Duration":479371,"SoundDuration":479371,"Delta":472068043},{"NoteNumber":57,"Velocity":63,"Duration":479371,"SoundDuration":479371,"Delta":472068043},{"NoteNumber":72,"Velocity":72,"Duration":119756,"SoundDuration":119756,"Delta":472188956},{"NoteNumber":84,"Velocity":81,"Duration":119756,"SoundDuration":119756,"Delta":472188956},{"NoteNumber":73,"Velocity":65,"Duration":119350,"SoundDuration":119350,"Delta":472308713},{"NoteNumber":85,"Velocity":74,"Duration":119350,"SoundDuration":119350,"Delta":472308713},{"NoteNumber":72,"Velocity":63,"Duration":119350,"SoundDuration":119350,"Delta":472428063},{"NoteNumber":84,"Velocity":72,"Duration":119350,"SoundDuration":119350,"Delta":472428063},{"NoteNumber":78,"Velocity":70,"Duration":238701,"SoundDuration":238701,"Delta":472547414},{"NoteNumber":70,"Velocity":62,"Duration":238701,"SoundDuration":238701,"Delta":472547414},{"NoteNumber":82,"Velocity":70,"Duration":238701,"SoundDuration":238701,"Delta":472547414},{"NoteNumber":61,"Velocity":63,"Duration":238701,"SoundDuration":238701,"Delta":472547414},{"NoteNumber":58,"Velocity":63,"Duration":238701,"SoundDuration":238701,"Delta":472547414},{"NoteNumber":66,"Velocity":71,"Duration":238701,"SoundDuration":238701,"Delta":472547414},{"NoteNumber":37,"Velocity":61,"Duration":122170,"SoundDuration":122170,"Delta":472786116},{"NoteNumber":49,"Velocity":77,"Duration":122170,"SoundDuration":122170,"Delta":472786116},{"NoteNumber":40,"Velocity":61,"Duration":121163,"SoundDuration":121163,"Delta":472908286},{"NoteNumber":52,"Velocity":70,"Duration":121163,"SoundDuration":121163,"Delta":472908286},{"NoteNumber":82,"Velocity":83,"Duration":476213,"SoundDuration":476213,"Delta":473029449},{"NoteNumber":88,"Velocity":83,"Duration":476213,"SoundDuration":476213,"Delta":473029449},{"NoteNumber":94,"Velocity":93,"Duration":476213,"SoundDuration":476213,"Delta":473029449},{"NoteNumber":43,"Velocity":62,"Duration":120163,"SoundDuration":120163,"Delta":473029449},{"NoteNumber":55,"Velocity":71,"Duration":120163,"SoundDuration":120163,"Delta":473029449},{"NoteNumber":46,"Velocity":63,"Duration":119029,"SoundDuration":119029,"Delta":473149613},{"NoteNumber":58,"Velocity":72,"Duration":119029,"SoundDuration":119029,"Delta":473149613},{"NoteNumber":49,"Velocity":63,"Duration":118788,"SoundDuration":118788,"Delta":473268642},{"NoteNumber":61,"Velocity":72,"Duration":118788,"SoundDuration":118788,"Delta":473268642},{"NoteNumber":52,"Velocity":66,"Duration":118231,"SoundDuration":118231,"Delta":473387431},{"NoteNumber":64,"Velocity":74,"Duration":118231,"SoundDuration":118231,"Delta":473387431},{"NoteNumber":84,"Velocity":75,"Duration":248241,"SoundDuration":248241,"Delta":473505662},{"NoteNumber":88,"Velocity":75,"Duration":248241,"SoundDuration":248241,"Delta":473505662},{"NoteNumber":96,"Velocity":83,"Duration":248241,"SoundDuration":248241,"Delta":473505662},{"NoteNumber":55,"Velocity":66,"Duration":248241,"SoundDuration":248241,"Delta":473505662},{"NoteNumber":67,"Velocity":74,"Duration":248241,"SoundDuration":248241,"Delta":473505662},{"NoteNumber":85,"Velocity":74,"Duration":122771,"SoundDuration":122771,"Delta":473753904},{"NoteNumber":89,"Velocity":82,"Duration":122771,"SoundDuration":122771,"Delta":473753904},{"NoteNumber":80,"Velocity":74,"Duration":122771,"SoundDuration":122771,"Delta":473753904},{"NoteNumber":92,"Velocity":82,"Duration":122771,"SoundDuration":122771,"Delta":473753904},{"NoteNumber":56,"Velocity":74,"Duration":244942,"SoundDuration":244942,"Delta":473753904},{"NoteNumber":61,"Velocity":74,"Duration":244942,"SoundDuration":244942,"Delta":473753904},{"NoteNumber":65,"Velocity":74,"Duration":244942,"SoundDuration":244942,"Delta":473753904},{"NoteNumber":68,"Velocity":89,"Duration":244942,"SoundDuration":244942,"Delta":473753904},{"NoteNumber":79,"Velocity":74,"Duration":122170,"SoundDuration":122170,"Delta":473876675},{"NoteNumber":91,"Velocity":82,"Duration":122170,"SoundDuration":122170,"Delta":473876675},{"NoteNumber":78,"Velocity":73,"Duration":120913,"SoundDuration":120913,"Delta":473998846},{"NoteNumber":90,"Velocity":82,"Duration":120913,"SoundDuration":120913,"Delta":473998846},{"NoteNumber":44,"Velocity":86,"Duration":240670,"SoundDuration":240670,"Delta":473998846},{"NoteNumber":32,"Velocity":77,"Duration":240670,"SoundDuration":240670,"Delta":473998846},{"NoteNumber":77,"Velocity":73,"Duration":119756,"SoundDuration":119756,"Delta":474119759},{"NoteNumber":89,"Velocity":81,"Duration":119756,"SoundDuration":119756,"Delta":474119759},{"NoteNumber":76,"Velocity":72,"Duration":119350,"SoundDuration":119350,"Delta":474239516},{"NoteNumber":88,"Velocity":81,"Duration":119350,"SoundDuration":119350,"Delta":474239516},{"NoteNumber":64,"Velocity":66,"Duration":119350,"SoundDuration":119350,"Delta":474239516},{"NoteNumber":77,"Velocity":72,"Duration":119350,"SoundDuration":119350,"Delta":474358867},{"NoteNumber":89,"Velocity":80,"Duration":119350,"SoundDuration":119350,"Delta":474358867},{"NoteNumber":65,"Velocity":61,"Duration":119350,"SoundDuration":119350,"Delta":474358867},{"NoteNumber":75,"Velocity":71,"Duration":119350,"SoundDuration":119350,"Delta":474478218},{"NoteNumber":87,"Velocity":79,"Duration":119350,"SoundDuration":119350,"Delta":474478218},{"NoteNumber":63,"Velocity":66,"Duration":119350,"SoundDuration":119350,"Delta":474478218},{"NoteNumber":73,"Velocity":69,"Duration":122850,"SoundDuration":122850,"Delta":474597568},{"NoteNumber":85,"Velocity":77,"Duration":122850,"SoundDuration":122850,"Delta":474597568},{"NoteNumber":61,"Velocity":62,"Duration":122850,"SoundDuration":122850,"Delta":474597568},{"NoteNumber":67,"Velocity":70,"Duration":119350,"SoundDuration":119350,"Delta":474720418},{"NoteNumber":79,"Velocity":79,"Duration":119350,"SoundDuration":119350,"Delta":474720418},{"NoteNumber":55,"Velocity":67,"Duration":119350,"SoundDuration":119350,"Delta":474720418},{"NoteNumber":68,"Velocity":63,"Duration":119350,"SoundDuration":119350,"Delta":474839769},{"NoteNumber":80,"Velocity":71,"Duration":119350,"SoundDuration":119350,"Delta":474839769},{"NoteNumber":56,"Velocity":61,"Duration":119350,"SoundDuration":119350,"Delta":474839769},{"NoteNumber":66,"Velocity":70,"Duration":119350,"SoundDuration":119350,"Delta":474959120},{"NoteNumber":78,"Velocity":79,"Duration":119350,"SoundDuration":119350,"Delta":474959120},{"NoteNumber":54,"Velocity":65,"Duration":119350,"SoundDuration":119350,"Delta":474959120},{"NoteNumber":65,"Velocity":63,"Duration":119350,"SoundDuration":119350,"Delta":475078471},{"NoteNumber":77,"Velocity":71,"Duration":119350,"SoundDuration":119350,"Delta":475078471},{"NoteNumber":53,"Velocity":60,"Duration":119350,"SoundDuration":119350,"Delta":475078471},{"NoteNumber":64,"Velocity":70,"Duration":119350,"SoundDuration":119350,"Delta":475197821},{"NoteNumber":76,"Velocity":79,"Duration":119350,"SoundDuration":119350,"Delta":475197821},{"NoteNumber":52,"Velocity":66,"Duration":119350,"SoundDuration":119350,"Delta":475197821},{"NoteNumber":65,"Velocity":64,"Duration":119350,"SoundDuration":119350,"Delta":475317172},{"NoteNumber":77,"Velocity":72,"Duration":119350,"SoundDuration":119350,"Delta":475317172},{"NoteNumber":53,"Velocity":62,"Duration":119350,"SoundDuration":119350,"Delta":475317172},{"NoteNumber":63,"Velocity":70,"Duration":119350,"SoundDuration":119350,"Delta":475436523},{"NoteNumber":75,"Velocity":79,"Duration":119350,"SoundDuration":119350,"Delta":475436523},{"NoteNumber":51,"Velocity":64,"Duration":119350,"SoundDuration":119350,"Delta":475436523},{"NoteNumber":61,"Velocity":63,"Duration":123365,"SoundDuration":123365,"Delta":475555874},{"NoteNumber":73,"Velocity":71,"Duration":123365,"SoundDuration":123365,"Delta":475555874},{"NoteNumber":49,"Velocity":62,"Duration":123365,"SoundDuration":123365,"Delta":475555874},{"NoteNumber":67,"Velocity":73,"Duration":119350,"SoundDuration":119350,"Delta":475679239},{"NoteNumber":43,"Velocity":54,"Duration":119350,"SoundDuration":119350,"Delta":475679239},{"NoteNumber":55,"Velocity":62,"Duration":119350,"SoundDuration":119350,"Delta":475679239},{"NoteNumber":68,"Velocity":63,"Duration":119350,"SoundDuration":119350,"Delta":475798590},{"NoteNumber":44,"Velocity":45,"Duration":119350,"SoundDuration":119350,"Delta":475798590},{"NoteNumber":56,"Velocity":51,"Duration":119350,"SoundDuration":119350,"Delta":475798590},{"NoteNumber":66,"Velocity":71,"Duration":119350,"SoundDuration":119350,"Delta":475917941},{"NoteNumber":42,"Velocity":49,"Duration":119350,"SoundDuration":119350,"Delta":475917941},{"NoteNumber":54,"Velocity":54,"Duration":119350,"SoundDuration":119350,"Delta":475917941},{"NoteNumber":65,"Velocity":64,"Duration":119350,"SoundDuration":119350,"Delta":476037291},{"NoteNumber":41,"Velocity":44,"Duration":119350,"SoundDuration":119350,"Delta":476037291},{"NoteNumber":53,"Velocity":50,"Duration":119350,"SoundDuration":119350,"Delta":476037291},{"NoteNumber":64,"Velocity":71,"Duration":119350,"SoundDuration":119350,"Delta":476156642},{"NoteNumber":40,"Velocity":47,"Duration":119350,"SoundDuration":119350,"Delta":476156642},{"NoteNumber":52,"Velocity":53,"Duration":119350,"SoundDuration":119350,"Delta":476156642},{"NoteNumber":65,"Velocity":60,"Duration":119350,"SoundDuration":119350,"Delta":476275993},{"NoteNumber":41,"Velocity":39,"Duration":119350,"SoundDuration":119350,"Delta":476275993},{"NoteNumber":53,"Velocity":44,"Duration":119350,"SoundDuration":119350,"Delta":476275993},{"NoteNumber":63,"Velocity":65,"Duration":119350,"SoundDuration":119350,"Delta":476395344},{"NoteNumber":39,"Velocity":45,"Duration":119350,"SoundDuration":119350,"Delta":476395344},{"NoteNumber":51,"Velocity":51,"Duration":119350,"SoundDuration":119350,"Delta":476395344},{"NoteNumber":61,"Velocity":60,"Duration":124409,"SoundDuration":124409,"Delta":476514694},{"NoteNumber":37,"Velocity":39,"Duration":124409,"SoundDuration":124409,"Delta":476514694},{"NoteNumber":49,"Velocity":44,"Duration":124409,"SoundDuration":124409,"Delta":476514694},{"NoteNumber":37,"Velocity":45,"Duration":239187,"SoundDuration":239187,"Delta":476639103},{"NoteNumber":46,"Velocity":45,"Duration":119837,"SoundDuration":119837,"Delta":476639103},{"NoteNumber":47,"Velocity":47,"Duration":119350,"SoundDuration":119350,"Delta":476758940},{"NoteNumber":54,"Velocity":51,"Duration":710505,"SoundDuration":710505,"Delta":476878291},{"NoteNumber":58,"Velocity":51,"Duration":710505,"SoundDuration":710505,"Delta":476878291},{"NoteNumber":65,"Velocity":62,"Duration":473246,"SoundDuration":473246,"Delta":476878291},{"NoteNumber":48,"Velocity":51,"Duration":118868,"SoundDuration":118868,"Delta":476878291},{"NoteNumber":49,"Velocity":53,"Duration":108524,"SoundDuration":108524,"Delta":476997159},{"NoteNumber":49,"Velocity":54,"Duration":117915,"SoundDuration":117915,"Delta":477115549},{"NoteNumber":48,"Velocity":53,"Duration":118073,"SoundDuration":118073,"Delta":477233465},{"NoteNumber":63,"Velocity":52,"Duration":237258,"SoundDuration":237258,"Delta":477351538},{"NoteNumber":47,"Velocity":52,"Duration":118390,"SoundDuration":118390,"Delta":477351538},{"NoteNumber":46,"Velocity":50,"Duration":118868,"SoundDuration":118868,"Delta":477469928},{"NoteNumber":54,"Velocity":52,"Duration":238540,"SoundDuration":238540,"Delta":477588796},{"NoteNumber":63,"Velocity":52,"Duration":119189,"SoundDuration":119189,"Delta":477588796},{"NoteNumber":37,"Velocity":47,"Duration":238540,"SoundDuration":238540,"Delta":477588796},{"NoteNumber":45,"Velocity":47,"Duration":119189,"SoundDuration":119189,"Delta":477588796},{"NoteNumber":62,"Velocity":51,"Duration":119350,"SoundDuration":119350,"Delta":477707986},{"NoteNumber":46,"Velocity":46,"Duration":119350,"SoundDuration":119350,"Delta":477707986},{"NoteNumber":61,"Velocity":51,"Duration":119350,"SoundDuration":119350,"Delta":477827337},{"NoteNumber":47,"Velocity":46,"Duration":119350,"SoundDuration":119350,"Delta":477827337},{"NoteNumber":60,"Velocity":50,"Duration":119350,"SoundDuration":119350,"Delta":477946688},{"NoteNumber":48,"Velocity":45,"Duration":119350,"SoundDuration":119350,"Delta":477946688},{"NoteNumber":54,"Velocity":53,"Duration":238701,"SoundDuration":238701,"Delta":478066039},{"NoteNumber":61,"Velocity":53,"Duration":119350,"SoundDuration":119350,"Delta":478066039},{"NoteNumber":37,"Velocity":47,"Duration":238701,"SoundDuration":238701,"Delta":478066039},{"NoteNumber":46,"Velocity":47,"Duration":119350,"SoundDuration":119350,"Delta":478066039},{"NoteNumber":60,"Velocity":52,"Duration":119350,"SoundDuration":119350,"Delta":478185389},{"NoteNumber":47,"Velocity":47,"Duration":119350,"SoundDuration":119350,"Delta":478185389},{"NoteNumber":59,"Velocity":51,"Duration":119350,"SoundDuration":119350,"Delta":478304740},{"NoteNumber":48,"Velocity":46,"Duration":119350,"SoundDuration":119350,"Delta":478304740},{"NoteNumber":58,"Velocity":50,"Duration":119350,"SoundDuration":119350,"Delta":478424091},{"NoteNumber":49,"Velocity":46,"Duration":119350,"SoundDuration":119350,"Delta":478424091},{"NoteNumber":37,"Velocity":45,"Duration":239187,"SoundDuration":239187,"Delta":478543442},{"NoteNumber":46,"Velocity":45,"Duration":119837,"SoundDuration":119837,"Delta":478543442},{"NoteNumber":47,"Velocity":47,"Duration":119350,"SoundDuration":119350,"Delta":478663279},{"NoteNumber":54,"Velocity":51,"Duration":710505,"SoundDuration":710505,"Delta":478782629},{"NoteNumber":58,"Velocity":51,"Duration":710505,"SoundDuration":710505,"Delta":478782629},{"NoteNumber":65,"Velocity":60,"Duration":473246,"SoundDuration":473246,"Delta":478782629},{"NoteNumber":48,"Velocity":51,"Duration":118868,"SoundDuration":118868,"Delta":478782629},{"NoteNumber":49,"Velocity":53,"Duration":108524,"SoundDuration":108524,"Delta":478901498},{"NoteNumber":49,"Velocity":54,"Duration":117915,"SoundDuration":117915,"Delta":479019888},{"NoteNumber":48,"Velocity":53,"Duration":118073,"SoundDuration":118073,"Delta":479137803},{"NoteNumber":63,"Velocity":52,"Duration":237258,"SoundDuration":237258,"Delta":479255876},{"NoteNumber":47,"Velocity":52,"Duration":118390,"SoundDuration":118390,"Delta":479255876},{"NoteNumber":46,"Velocity":50,"Duration":118868,"SoundDuration":118868,"Delta":479374266},{"NoteNumber":53,"Velocity":52,"Duration":238540,"SoundDuration":238540,"Delta":479493135},{"NoteNumber":63,"Velocity":52,"Duration":119189,"SoundDuration":119189,"Delta":479493135},{"NoteNumber":37,"Velocity":47,"Duration":238540,"SoundDuration":238540,"Delta":479493135},{"NoteNumber":45,"Velocity":47,"Duration":119189,"SoundDuration":119189,"Delta":479493135},{"NoteNumber":62,"Velocity":51,"Duration":119350,"SoundDuration":119350,"Delta":479612324},{"NoteNumber":46,"Velocity":46,"Duration":119350,"SoundDuration":119350,"Delta":479612324},{"NoteNumber":61,"Velocity":51,"Duration":119350,"SoundDuration":119350,"Delta":479731675},{"NoteNumber":47,"Velocity":46,"Duration":119350,"SoundDuration":119350,"Delta":479731675},{"NoteNumber":60,"Velocity":50,"Duration":119350,"SoundDuration":119350,"Delta":479851026},{"NoteNumber":48,"Velocity":45,"Duration":119350,"SoundDuration":119350,"Delta":479851026},{"NoteNumber":52,"Velocity":53,"Duration":238701,"SoundDuration":238701,"Delta":479970377},{"NoteNumber":61,"Velocity":53,"Duration":119350,"SoundDuration":119350,"Delta":479970377},{"NoteNumber":37,"Velocity":47,"Duration":238701,"SoundDuration":238701,"Delta":479970377},{"NoteNumber":45,"Velocity":47,"Duration":119350,"SoundDuration":119350,"Delta":479970377},{"NoteNumber":59,"Velocity":52,"Duration":119350,"SoundDuration":119350,"Delta":480089727},{"NoteNumber":47,"Velocity":47,"Duration":119350,"SoundDuration":119350,"Delta":480089727},{"NoteNumber":58,"Velocity":51,"Duration":119350,"SoundDuration":119350,"Delta":480209078},{"NoteNumber":48,"Velocity":46,"Duration":119350,"SoundDuration":119350,"Delta":480209078},{"NoteNumber":57,"Velocity":50,"Duration":119350,"SoundDuration":119350,"Delta":480328429},{"NoteNumber":49,"Velocity":46,"Duration":119350,"SoundDuration":119350,"Delta":480328429},{"NoteNumber":37,"Velocity":47,"Duration":239187,"SoundDuration":239187,"Delta":480447780},{"NoteNumber":45,"Velocity":47,"Duration":119837,"SoundDuration":119837,"Delta":480447780},{"NoteNumber":46,"Velocity":50,"Duration":119350,"SoundDuration":119350,"Delta":480567617},{"NoteNumber":56,"Velocity":53,"Duration":473246,"SoundDuration":473246,"Delta":480686967},{"NoteNumber":61,"Velocity":53,"Duration":710505,"SoundDuration":710505,"Delta":480686967},{"NoteNumber":68,"Velocity":67,"Duration":473246,"SoundDuration":473246,"Delta":480686967},{"NoteNumber":47,"Velocity":53,"Duration":118868,"SoundDuration":118868,"Delta":480686967},{"NoteNumber":48,"Velocity":55,"Duration":118389,"SoundDuration":118389,"Delta":480805836},{"NoteNumber":49,"Velocity":57,"Duration":117915,"SoundDuration":117915,"Delta":480924226},{"NoteNumber":48,"Velocity":55,"Duration":118073,"SoundDuration":118073,"Delta":481042141},{"NoteNumber":54,"Velocity":49,"Duration":237258,"SoundDuration":237258,"Delta":481160214},{"NoteNumber":66,"Velocity":55,"Duration":237258,"SoundDuration":237258,"Delta":481160214},{"NoteNumber":47,"Velocity":53,"Duration":118390,"SoundDuration":118390,"Delta":481160214},{"NoteNumber":46,"Velocity":52,"Duration":118868,"SoundDuration":118868,"Delta":481278604},{"NoteNumber":66,"Velocity":61,"Duration":240531,"SoundDuration":240531,"Delta":481397473},{"NoteNumber":62,"Velocity":61,"Duration":121180,"SoundDuration":121180,"Delta":481397473},{"NoteNumber":45,"Velocity":50,"Duration":121180,"SoundDuration":121180,"Delta":481397473},{"NoteNumber":63,"Velocity":54,"Duration":119350,"SoundDuration":119350,"Delta":481518653},{"NoteNumber":54,"Velocity":45,"Duration":119350,"SoundDuration":119350,"Delta":481518653},{"NoteNumber":61,"Velocity":54,"Duration":119431,"SoundDuration":119431,"Delta":481638004},{"NoteNumber":45,"Velocity":49,"Duration":119431,"SoundDuration":119431,"Delta":481638004},{"NoteNumber":60,"Velocity":53,"Duration":120713,"SoundDuration":120713,"Delta":481757436},{"NoteNumber":37,"Velocity":46,"Duration":120713,"SoundDuration":120713,"Delta":481757436},{"NoteNumber":69,"Velocity":64,"Duration":234889,"SoundDuration":234889,"Delta":481878150},{"NoteNumber":65,"Velocity":64,"Duration":117444,"SoundDuration":117444,"Delta":481878150},{"NoteNumber":45,"Velocity":53,"Duration":117444,"SoundDuration":117444,"Delta":481878150},{"NoteNumber":66,"Velocity":60,"Duration":117444,"SoundDuration":117444,"Delta":481995594},{"NoteNumber":51,"Velocity":50,"Duration":117444,"SoundDuration":117444,"Delta":481995594},{"NoteNumber":64,"Velocity":61,"Duration":117444,"SoundDuration":117444,"Delta":482113039},{"NoteNumber":45,"Velocity":53,"Duration":117444,"SoundDuration":117444,"Delta":482113039},{"NoteNumber":63,"Velocity":59,"Duration":120327,"SoundDuration":120327,"Delta":482230483},{"NoteNumber":37,"Velocity":50,"Duration":120327,"SoundDuration":120327,"Delta":482230483},{"NoteNumber":72,"Velocity":70,"Duration":230273,"SoundDuration":230273,"Delta":482350810},{"NoteNumber":69,"Velocity":70,"Duration":115136,"SoundDuration":115136,"Delta":482350810},{"NoteNumber":44,"Velocity":57,"Duration":115136,"SoundDuration":115136,"Delta":482350810},{"NoteNumber":70,"Velocity":63,"Duration":115136,"SoundDuration":115136,"Delta":482465947},{"NoteNumber":54,"Velocity":53,"Duration":115136,"SoundDuration":115136,"Delta":482465947},{"NoteNumber":68,"Velocity":64,"Duration":115136,"SoundDuration":115136,"Delta":482581084},{"NoteNumber":44,"Velocity":57,"Duration":115136,"SoundDuration":115136,"Delta":482581084},{"NoteNumber":66,"Velocity":63,"Duration":118389,"SoundDuration":118389,"Delta":482696221},{"NoteNumber":37,"Velocity":55,"Duration":118389,"SoundDuration":118389,"Delta":482696221},{"NoteNumber":75,"Velocity":75,"Duration":225852,"SoundDuration":225852,"Delta":482814611},{"NoteNumber":71,"Velocity":75,"Duration":112926,"SoundDuration":112926,"Delta":482814611},{"NoteNumber":44,"Velocity":63,"Duration":112926,"SoundDuration":112926,"Delta":482814611},{"NoteNumber":72,"Velocity":69,"Duration":112926,"SoundDuration":112926,"Delta":482927537},{"NoteNumber":51,"Velocity":57,"Duration":112926,"SoundDuration":112926,"Delta":482927537},{"NoteNumber":70,"Velocity":70,"Duration":112926,"SoundDuration":112926,"Delta":483040463},{"NoteNumber":44,"Velocity":62,"Duration":112926,"SoundDuration":112926,"Delta":483040463},{"NoteNumber":68,"Velocity":69,"Duration":116513,"SoundDuration":116513,"Delta":483153389},{"NoteNumber":37,"Velocity":59,"Duration":116513,"SoundDuration":116513,"Delta":483153389},{"NoteNumber":78,"Velocity":81,"Duration":221598,"SoundDuration":221598,"Delta":483269903},{"NoteNumber":74,"Velocity":81,"Duration":110799,"SoundDuration":110799,"Delta":483269903},{"NoteNumber":44,"Velocity":67,"Duration":110799,"SoundDuration":110799,"Delta":483269903},{"NoteNumber":75,"Velocity":75,"Duration":110799,"SoundDuration":110799,"Delta":483380703},{"NoteNumber":54,"Velocity":63,"Duration":110799,"SoundDuration":110799,"Delta":483380703},{"NoteNumber":73,"Velocity":75,"Duration":110799,"SoundDuration":110799,"Delta":483491502},{"NoteNumber":44,"Velocity":67,"Duration":110799,"SoundDuration":110799,"Delta":483491502},{"NoteNumber":72,"Velocity":73,"Duration":114687,"SoundDuration":114687,"Delta":483602301},{"NoteNumber":37,"Velocity":63,"Duration":114687,"SoundDuration":114687,"Delta":483602301},{"NoteNumber":84,"Velocity":85,"Duration":218293,"SoundDuration":218293,"Delta":483716989},{"NoteNumber":81,"Velocity":85,"Duration":109146,"SoundDuration":109146,"Delta":483716989},{"NoteNumber":44,"Velocity":71,"Duration":109146,"SoundDuration":109146,"Delta":483716989},{"NoteNumber":82,"Velocity":80,"Duration":109146,"SoundDuration":109146,"Delta":483826135},{"NoteNumber":51,"Velocity":66,"Duration":109146,"SoundDuration":109146,"Delta":483826135},{"NoteNumber":80,"Velocity":81,"Duration":109146,"SoundDuration":109146,"Delta":483935282},{"NoteNumber":44,"Velocity":72,"Duration":109146,"SoundDuration":109146,"Delta":483935282},{"NoteNumber":78,"Velocity":79,"Duration":111640,"SoundDuration":111640,"Delta":484044428},{"NoteNumber":37,"Velocity":67,"Duration":576549,"SoundDuration":576549,"Delta":484044428},{"NoteNumber":89,"Velocity":96,"Duration":235830,"SoundDuration":235830,"Delta":484156069},{"NoteNumber":85,"Velocity":96,"Duration":235830,"SoundDuration":235830,"Delta":484156069},{"NoteNumber":77,"Velocity":96,"Duration":235830,"SoundDuration":235830,"Delta":484156069},{"NoteNumber":44,"Velocity":80,"Duration":235830,"SoundDuration":235830,"Delta":484156069},{"NoteNumber":49,"Velocity":80,"Duration":235830,"SoundDuration":235830,"Delta":484156069},{"NoteNumber":101,"Velocity":96,"Duration":114687,"SoundDuration":114687,"Delta":484391899},{"NoteNumber":97,"Velocity":81,"Duration":114687,"SoundDuration":114687,"Delta":484391899},{"NoteNumber":92,"Velocity":81,"Duration":114687,"SoundDuration":114687,"Delta":484391899},{"NoteNumber":88,"Velocity":70,"Duration":114390,"SoundDuration":114390,"Delta":484506587},{"NoteNumber":91,"Velocity":82,"Duration":114390,"SoundDuration":114390,"Delta":484506587},{"NoteNumber":97,"Velocity":90,"Duration":114094,"SoundDuration":114094,"Delta":484620978},{"NoteNumber":92,"Velocity":76,"Duration":114094,"SoundDuration":114094,"Delta":484620978},{"NoteNumber":89,"Velocity":76,"Duration":114094,"SoundDuration":114094,"Delta":484620978},{"NoteNumber":84,"Velocity":66,"Duration":113727,"SoundDuration":113727,"Delta":484735072},{"NoteNumber":88,"Velocity":80,"Duration":113727,"SoundDuration":113727,"Delta":484735072},{"NoteNumber":85,"Velocity":72,"Duration":113361,"SoundDuration":113361,"Delta":484848800},{"NoteNumber":89,"Velocity":72,"Duration":113361,"SoundDuration":113361,"Delta":484848800},{"NoteNumber":92,"Velocity":86,"Duration":113361,"SoundDuration":113361,"Delta":484848800},{"NoteNumber":79,"Velocity":63,"Duration":112854,"SoundDuration":112854,"Delta":484962161},{"NoteNumber":82,"Velocity":76,"Duration":112854,"SoundDuration":112854,"Delta":484962161},{"NoteNumber":89,"Velocity":89,"Duration":112494,"SoundDuration":112494,"Delta":485075016},{"NoteNumber":85,"Velocity":74,"Duration":112494,"SoundDuration":112494,"Delta":485075016},{"NoteNumber":80,"Velocity":74,"Duration":112494,"SoundDuration":112494,"Delta":485075016},{"NoteNumber":76,"Velocity":64,"Duration":112494,"SoundDuration":112494,"Delta":485187510},{"NoteNumber":79,"Velocity":77,"Duration":112494,"SoundDuration":112494,"Delta":485187510},{"NoteNumber":85,"Velocity":87,"Duration":112494,"SoundDuration":112494,"Delta":485300005},{"NoteNumber":80,"Velocity":73,"Duration":112494,"SoundDuration":112494,"Delta":485300005},{"NoteNumber":77,"Velocity":73,"Duration":112494,"SoundDuration":112494,"Delta":485300005},{"NoteNumber":72,"Velocity":62,"Duration":112494,"SoundDuration":112494,"Delta":485412499},{"NoteNumber":76,"Velocity":73,"Duration":112494,"SoundDuration":112494,"Delta":485412499},{"NoteNumber":73,"Velocity":72,"Duration":112494,"SoundDuration":112494,"Delta":485524994},{"NoteNumber":77,"Velocity":72,"Duration":112494,"SoundDuration":112494,"Delta":485524994},{"NoteNumber":80,"Velocity":86,"Duration":112494,"SoundDuration":112494,"Delta":485524994},{"NoteNumber":67,"Velocity":62,"Duration":112494,"SoundDuration":112494,"Delta":485637488},{"NoteNumber":70,"Velocity":74,"Duration":112494,"SoundDuration":112494,"Delta":485637488},{"NoteNumber":68,"Velocity":71,"Duration":113591,"SoundDuration":113591,"Delta":485749983},{"NoteNumber":73,"Velocity":71,"Duration":113591,"SoundDuration":113591,"Delta":485749983},{"NoteNumber":77,"Velocity":84,"Duration":113591,"SoundDuration":113591,"Delta":485749983},{"NoteNumber":64,"Velocity":60,"Duration":114770,"SoundDuration":114770,"Delta":485863574},{"NoteNumber":67,"Velocity":71,"Duration":114770,"SoundDuration":114770,"Delta":485863574},{"NoteNumber":65,"Velocity":71,"Duration":115444,"SoundDuration":115444,"Delta":485978344},{"NoteNumber":68,"Velocity":71,"Duration":115444,"SoundDuration":115444,"Delta":485978344},{"NoteNumber":73,"Velocity":84,"Duration":115444,"SoundDuration":115444,"Delta":485978344},{"NoteNumber":49,"Velocity":63,"Duration":114987,"SoundDuration":114987,"Delta":486093788},{"NoteNumber":61,"Velocity":76,"Duration":114987,"SoundDuration":114987,"Delta":486093788},{"NoteNumber":77,"Velocity":85,"Duration":114539,"SoundDuration":114539,"Delta":486208776},{"NoteNumber":73,"Velocity":72,"Duration":114539,"SoundDuration":114539,"Delta":486208776},{"NoteNumber":68,"Velocity":72,"Duration":114539,"SoundDuration":114539,"Delta":486208776},{"NoteNumber":64,"Velocity":62,"Duration":114094,"SoundDuration":114094,"Delta":486323315},{"NoteNumber":67,"Velocity":74,"Duration":114094,"SoundDuration":114094,"Delta":486323315},{"NoteNumber":73,"Velocity":81,"Duration":113507,"SoundDuration":113507,"Delta":486437410},{"NoteNumber":68,"Velocity":67,"Duration":113507,"SoundDuration":113507,"Delta":486437410},{"NoteNumber":65,"Velocity":67,"Duration":113507,"SoundDuration":113507,"Delta":486437410},{"NoteNumber":60,"Velocity":60,"Duration":113071,"SoundDuration":113071,"Delta":486550917},{"NoteNumber":64,"Velocity":71,"Duration":113071,"SoundDuration":113071,"Delta":486550917},{"NoteNumber":61,"Velocity":64,"Duration":112638,"SoundDuration":112638,"Delta":486663989},{"NoteNumber":65,"Velocity":64,"Duration":112638,"SoundDuration":112638,"Delta":486663989},{"NoteNumber":68,"Velocity":77,"Duration":112638,"SoundDuration":112638,"Delta":486663989},{"NoteNumber":55,"Velocity":57,"Duration":112208,"SoundDuration":112208,"Delta":486776627},{"NoteNumber":58,"Velocity":67,"Duration":112208,"SoundDuration":112208,"Delta":486776627},{"NoteNumber":65,"Velocity":80,"Duration":111640,"SoundDuration":111640,"Delta":486888836},{"NoteNumber":61,"Velocity":65,"Duration":111640,"SoundDuration":111640,"Delta":486888836},{"NoteNumber":56,"Velocity":65,"Duration":111640,"SoundDuration":111640,"Delta":486888836},{"NoteNumber":52,"Velocity":57,"Duration":111640,"SoundDuration":111640,"Delta":487000476},{"NoteNumber":55,"Velocity":69,"Duration":111640,"SoundDuration":111640,"Delta":487000476},{"NoteNumber":61,"Velocity":79,"Duration":111640,"SoundDuration":111640,"Delta":487112116},{"NoteNumber":56,"Velocity":65,"Duration":111640,"SoundDuration":111640,"Delta":487112116},{"NoteNumber":53,"Velocity":65,"Duration":111640,"SoundDuration":111640,"Delta":487112116},{"NoteNumber":48,"Velocity":55,"Duration":111640,"SoundDuration":111640,"Delta":487223757},{"NoteNumber":52,"Velocity":65,"Duration":111640,"SoundDuration":111640,"Delta":487223757},{"NoteNumber":49,"Velocity":64,"Duration":111640,"SoundDuration":111640,"Delta":487335397},{"NoteNumber":53,"Velocity":64,"Duration":111640,"SoundDuration":111640,"Delta":487335397},{"NoteNumber":56,"Velocity":77,"Duration":111640,"SoundDuration":111640,"Delta":487335397},{"NoteNumber":43,"Velocity":55,"Duration":111640,"SoundDuration":111640,"Delta":487447037},{"NoteNumber":46,"Velocity":65,"Duration":111640,"SoundDuration":111640,"Delta":487447037},{"NoteNumber":44,"Velocity":63,"Duration":111640,"SoundDuration":111640,"Delta":487558677},{"NoteNumber":49,"Velocity":63,"Duration":111640,"SoundDuration":111640,"Delta":487558677},{"NoteNumber":53,"Velocity":75,"Duration":111640,"SoundDuration":111640,"Delta":487558677},{"NoteNumber":40,"Velocity":53,"Duration":111640,"SoundDuration":111640,"Delta":487670318},{"NoteNumber":43,"Velocity":63,"Duration":111640,"SoundDuration":111640,"Delta":487670318},{"NoteNumber":41,"Velocity":63,"Duration":111640,"SoundDuration":111640,"Delta":487781958},{"NoteNumber":44,"Velocity":63,"Duration":111640,"SoundDuration":111640,"Delta":487781958},{"NoteNumber":49,"Velocity":75,"Duration":111640,"SoundDuration":111640,"Delta":487781958},{"NoteNumber":25,"Velocity":61,"Duration":110674,"SoundDuration":110674,"Delta":487893598},{"NoteNumber":37,"Velocity":75,"Duration":110674,"SoundDuration":110674,"Delta":487893598},{"NoteNumber":41,"Velocity":48,"Duration":113071,"SoundDuration":113071,"Delta":488004273},{"NoteNumber":49,"Velocity":46,"Duration":113071,"SoundDuration":113071,"Delta":488004273},{"NoteNumber":53,"Velocity":56,"Duration":113071,"SoundDuration":113071,"Delta":488004273},{"NoteNumber":36,"Velocity":61,"Duration":113361,"SoundDuration":113361,"Delta":488117344},{"NoteNumber":48,"Velocity":75,"Duration":113361,"SoundDuration":113361,"Delta":488117344},{"NoteNumber":41,"Velocity":48,"Duration":113361,"SoundDuration":113361,"Delta":488230705},{"NoteNumber":49,"Velocity":48,"Duration":113361,"SoundDuration":113361,"Delta":488230705},{"NoteNumber":53,"Velocity":58,"Duration":113361,"SoundDuration":113361,"Delta":488230705},{"NoteNumber":35,"Velocity":63,"Duration":113071,"SoundDuration":113071,"Delta":488344067},{"NoteNumber":47,"Velocity":76,"Duration":113071,"SoundDuration":113071,"Delta":488344067},{"NoteNumber":41,"Velocity":50,"Duration":112782,"SoundDuration":112782,"Delta":488457138},{"NoteNumber":49,"Velocity":50,"Duration":112782,"SoundDuration":112782,"Delta":488457138},{"NoteNumber":53,"Velocity":59,"Duration":112782,"SoundDuration":112782,"Delta":488457138},{"NoteNumber":34,"Velocity":67,"Duration":112494,"SoundDuration":112494,"Delta":488569921},{"NoteNumber":46,"Velocity":79,"Duration":112494,"SoundDuration":112494,"Delta":488569921},{"NoteNumber":41,"Velocity":52,"Duration":112065,"SoundDuration":112065,"Delta":488682415},{"NoteNumber":49,"Velocity":52,"Duration":112065,"SoundDuration":112065,"Delta":488682415},{"NoteNumber":53,"Velocity":61,"Duration":112065,"SoundDuration":112065,"Delta":488682415},{"NoteNumber":33,"Velocity":69,"Duration":111782,"SoundDuration":111782,"Delta":488794481},{"NoteNumber":45,"Velocity":81,"Duration":111782,"SoundDuration":111782,"Delta":488794481},{"NoteNumber":41,"Velocity":53,"Duration":111499,"SoundDuration":111499,"Delta":488906263},{"NoteNumber":49,"Velocity":53,"Duration":111499,"SoundDuration":111499,"Delta":488906263},{"NoteNumber":53,"Velocity":63,"Duration":111499,"SoundDuration":111499,"Delta":488906263},{"NoteNumber":32,"Velocity":71,"Duration":111218,"SoundDuration":111218,"Delta":489017763},{"NoteNumber":44,"Velocity":85,"Duration":111218,"SoundDuration":111218,"Delta":489017763},{"NoteNumber":41,"Velocity":56,"Duration":110799,"SoundDuration":110799,"Delta":489128981},{"NoteNumber":49,"Velocity":56,"Duration":110799,"SoundDuration":110799,"Delta":489128981},{"NoteNumber":53,"Velocity":66,"Duration":110799,"SoundDuration":110799,"Delta":489128981},{"NoteNumber":33,"Velocity":75,"Duration":110516,"SoundDuration":110516,"Delta":489239780},{"NoteNumber":45,"Velocity":87,"Duration":110516,"SoundDuration":110516,"Delta":489239780},{"NoteNumber":41,"Velocity":58,"Duration":110237,"SoundDuration":110237,"Delta":489350297},{"NoteNumber":49,"Velocity":58,"Duration":110237,"SoundDuration":110237,"Delta":489350297},{"NoteNumber":53,"Velocity":68,"Duration":110237,"SoundDuration":110237,"Delta":489350297},{"NoteNumber":34,"Velocity":76,"Duration":109962,"SoundDuration":109962,"Delta":489460534},{"NoteNumber":46,"Velocity":91,"Duration":109962,"SoundDuration":109962,"Delta":489460534},{"NoteNumber":41,"Velocity":58,"Duration":109962,"SoundDuration":109962,"Delta":489570497},{"NoteNumber":49,"Velocity":58,"Duration":109962,"SoundDuration":109962,"Delta":489570497},{"NoteNumber":53,"Velocity":69,"Duration":109962,"SoundDuration":109962,"Delta":489570497},{"NoteNumber":33,"Velocity":77,"Duration":109962,"SoundDuration":109962,"Delta":489680459},{"NoteNumber":45,"Velocity":92,"Duration":109962,"SoundDuration":109962,"Delta":489680459},{"NoteNumber":41,"Velocity":58,"Duration":110237,"SoundDuration":110237,"Delta":489790422},{"NoteNumber":49,"Velocity":58,"Duration":110237,"SoundDuration":110237,"Delta":489790422},{"NoteNumber":53,"Velocity":68,"Duration":110237,"SoundDuration":110237,"Delta":489790422},{"NoteNumber":32,"Velocity":76,"Duration":110375,"SoundDuration":110375,"Delta":489900659},{"NoteNumber":44,"Velocity":92,"Duration":110375,"SoundDuration":110375,"Delta":489900659},{"NoteNumber":41,"Velocity":57,"Duration":110516,"SoundDuration":110516,"Delta":490011035},{"NoteNumber":49,"Velocity":57,"Duration":110516,"SoundDuration":110516,"Delta":490011035},{"NoteNumber":53,"Velocity":67,"Duration":110516,"SoundDuration":110516,"Delta":490011035},{"NoteNumber":31,"Velocity":76,"Duration":110799,"SoundDuration":110799,"Delta":490121551},{"NoteNumber":43,"Velocity":90,"Duration":110799,"SoundDuration":110799,"Delta":490121551},{"NoteNumber":41,"Velocity":54,"Duration":110938,"SoundDuration":110938,"Delta":490232351},{"NoteNumber":49,"Velocity":54,"Duration":110938,"SoundDuration":110938,"Delta":490232351},{"NoteNumber":53,"Velocity":65,"Duration":110938,"SoundDuration":110938,"Delta":490232351},{"NoteNumber":30,"Velocity":76,"Duration":111218,"SoundDuration":111218,"Delta":490343289},{"NoteNumber":42,"Velocity":89,"Duration":111218,"SoundDuration":111218,"Delta":490343289},{"NoteNumber":41,"Velocity":53,"Duration":111218,"SoundDuration":111218,"Delta":490454508},{"NoteNumber":49,"Velocity":53,"Duration":111218,"SoundDuration":111218,"Delta":490454508},{"NoteNumber":53,"Velocity":63,"Duration":111218,"SoundDuration":111218,"Delta":490454508},{"NoteNumber":29,"Velocity":73,"Duration":111640,"SoundDuration":111640,"Delta":490565726},{"NoteNumber":41,"Velocity":85,"Duration":111640,"SoundDuration":111640,"Delta":490565726},{"NoteNumber":41,"Velocity":52,"Duration":111640,"SoundDuration":111640,"Delta":490677366},{"NoteNumber":49,"Velocity":52,"Duration":111640,"SoundDuration":111640,"Delta":490677366},{"NoteNumber":53,"Velocity":61,"Duration":111640,"SoundDuration":111640,"Delta":490677366},{"NoteNumber":28,"Velocity":70,"Duration":112065,"SoundDuration":112065,"Delta":490789006},{"NoteNumber":40,"Velocity":84,"Duration":112065,"SoundDuration":112065,"Delta":490789006},{"NoteNumber":41,"Velocity":51,"Duration":112065,"SoundDuration":112065,"Delta":490901072},{"NoteNumber":49,"Velocity":51,"Duration":112065,"SoundDuration":112065,"Delta":490901072},{"NoteNumber":53,"Velocity":59,"Duration":112065,"SoundDuration":112065,"Delta":490901072},{"NoteNumber":27,"Velocity":70,"Duration":112351,"SoundDuration":112351,"Delta":491013138},{"NoteNumber":39,"Velocity":84,"Duration":112351,"SoundDuration":112351,"Delta":491013138},{"NoteNumber":41,"Velocity":49,"Duration":112494,"SoundDuration":112494,"Delta":491125490},{"NoteNumber":49,"Velocity":49,"Duration":112494,"SoundDuration":112494,"Delta":491125490},{"NoteNumber":53,"Velocity":58,"Duration":112494,"SoundDuration":112494,"Delta":491125490},{"NoteNumber":26,"Velocity":68,"Duration":112782,"SoundDuration":112782,"Delta":491237984},{"NoteNumber":38,"Velocity":80,"Duration":112782,"SoundDuration":112782,"Delta":491237984},{"NoteNumber":41,"Velocity":48,"Duration":222441,"SoundDuration":222441,"Delta":491350766},{"NoteNumber":49,"Velocity":48,"Duration":222441,"SoundDuration":222441,"Delta":491350766},{"NoteNumber":53,"Velocity":58,"Duration":222441,"SoundDuration":222441,"Delta":491350766},{"NoteNumber":25,"Velocity":67,"Duration":222441,"SoundDuration":222441,"Delta":491350766},{"NoteNumber":37,"Velocity":79,"Duration":222441,"SoundDuration":222441,"Delta":491350766},{"NoteNumber":45,"Velocity":50,"Duration":324737,"SoundDuration":324737,"Delta":491691842},{"NoteNumber":53,"Velocity":52,"Duration":302494,"SoundDuration":302494,"Delta":491714085},{"NoteNumber":57,"Velocity":58,"Duration":280250,"SoundDuration":280250,"Delta":491736329},{"NoteNumber":63,"Velocity":61,"Duration":258007,"SoundDuration":258007,"Delta":491758572},{"NoteNumber":65,"Velocity":67,"Duration":235764,"SoundDuration":235764,"Delta":491780815},{"NoteNumber":72,"Velocity":71,"Duration":213520,"SoundDuration":213520,"Delta":491803059},{"NoteNumber":77,"Velocity":80,"Duration":191277,"SoundDuration":191277,"Delta":491825302},{"NoteNumber":85,"Velocity":79,"Duration":219924,"SoundDuration":219924,"Delta":492207857},{"NoteNumber":81,"Velocity":79,"Duration":219924,"SoundDuration":219924,"Delta":492207857},{"NoteNumber":73,"Velocity":67,"Duration":219924,"SoundDuration":219924,"Delta":492207857},{"NoteNumber":76,"Velocity":67,"Duration":219924,"SoundDuration":219924,"Delta":492207857},{"NoteNumber":64,"Velocity":76,"Duration":219924,"SoundDuration":219924,"Delta":492207857},{"NoteNumber":57,"Velocity":63,"Duration":219924,"SoundDuration":219924,"Delta":492207857},{"NoteNumber":52,"Velocity":63,"Duration":219924,"SoundDuration":219924,"Delta":492207857},{"NoteNumber":45,"Velocity":63,"Duration":219924,"SoundDuration":219924,"Delta":492207857},{"NoteNumber":42,"Velocity":63,"Duration":252479,"SoundDuration":252479,"Delta":492620216},{"NoteNumber":81,"Velocity":67,"Duration":224988,"SoundDuration":224988,"Delta":492647707},{"NoteNumber":85,"Velocity":67,"Duration":224988,"SoundDuration":224988,"Delta":492647707},{"NoteNumber":87,"Velocity":79,"Duration":224988,"SoundDuration":224988,"Delta":492647707},{"NoteNumber":93,"Velocity":79,"Duration":224988,"SoundDuration":224988,"Delta":492647707},{"NoteNumber":66,"Velocity":76,"Duration":224988,"SoundDuration":224988,"Delta":492647707},{"NoteNumber":61,"Velocity":76,"Duration":224988,"SoundDuration":224988,"Delta":492647707},{"NoteNumber":54,"Velocity":63,"Duration":224988,"SoundDuration":224988,"Delta":492647707},{"NoteNumber":37,"Velocity":67,"Duration":253112,"SoundDuration":253112,"Delta":493069561},{"NoteNumber":49,"Velocity":67,"Duration":253112,"SoundDuration":253112,"Delta":493069561},{"NoteNumber":101,"Velocity":84,"Duration":224988,"SoundDuration":224988,"Delta":493097685},{"NoteNumber":97,"Velocity":84,"Duration":224988,"SoundDuration":224988,"Delta":493097685},{"NoteNumber":92,"Velocity":70,"Duration":224988,"SoundDuration":224988,"Delta":493097685},{"NoteNumber":89,"Velocity":70,"Duration":224988,"SoundDuration":224988,"Delta":493097685},{"NoteNumber":68,"Velocity":80,"Duration":224988,"SoundDuration":224988,"Delta":493097685},{"NoteNumber":65,"Velocity":80,"Duration":224988,"SoundDuration":224988,"Delta":493097685},{"NoteNumber":61,"Velocity":80,"Duration":224988,"SoundDuration":224988,"Delta":493097685},{"NoteNumber":56,"Velocity":67,"Duration":224988,"SoundDuration":224988,"Delta":493097685},{"NoteNumber":97,"Velocity":90,"Duration":224988,"SoundDuration":224988,"Delta":493997641},{"NoteNumber":92,"Velocity":76,"Duration":224988,"SoundDuration":224988,"Delta":493997641},{"NoteNumber":85,"Velocity":76,"Duration":224988,"SoundDuration":224988,"Delta":493997641},{"NoteNumber":65,"Velocity":70,"Duration":224988,"SoundDuration":224988,"Delta":493997641},{"NoteNumber":68,"Velocity":70,"Duration":224988,"SoundDuration":224988,"Delta":493997641},{"NoteNumber":73,"Velocity":84,"Duration":224988,"SoundDuration":224988,"Delta":493997641},{"NoteNumber":77,"Velocity":84,"Duration":224988,"SoundDuration":224988,"Delta":493997641},{"NoteNumber":80,"Velocity":81,"Duration":55187,"SoundDuration":55187,"Delta":494727796},{"NoteNumber":56,"Velocity":76,"Duration":55187,"SoundDuration":55187,"Delta":494727796},{"NoteNumber":81,"Velocity":82,"Duration":55187,"SoundDuration":55187,"Delta":494782983},{"NoteNumber":57,"Velocity":76,"Duration":55187,"SoundDuration":55187,"Delta":494782983},{"NoteNumber":84,"Velocity":82,"Duration":55187,"SoundDuration":55187,"Delta":494838171},{"NoteNumber":60,"Velocity":76,"Duration":55187,"SoundDuration":55187,"Delta":494838171},{"NoteNumber":73,"Velocity":82,"Duration":110375,"SoundDuration":110375,"Delta":494893358},{"NoteNumber":85,"Velocity":92,"Duration":110375,"SoundDuration":110375,"Delta":494893358},{"NoteNumber":49,"Velocity":75,"Duration":110375,"SoundDuration":110375,"Delta":494893358},{"NoteNumber":61,"Velocity":82,"Duration":110375,"SoundDuration":110375,"Delta":494893358},{"NoteNumber":49,"Velocity":85,"Duration":220750,"SoundDuration":220750,"Delta":495114109},{"NoteNumber":25,"Velocity":69,"Duration":220750,"SoundDuration":220750,"Delta":495114109},{"NoteNumber":37,"Velocity":76,"Duration":220750,"SoundDuration":220750,"Delta":495114109}],"license":{"name":"Creative Commons Attribution-ShareAlike 3.0 Germany","url":"http://creativecommons.org/licenses/by-sa/3.0/de/deed.en","text":"The MIDI, audio (MP3, OGG) and video files of Bernd Krueger are licensed under the cc-by-sa Germany License. This means that you can use and adapt the files, as long as you attribute the copyright holder.\n\nName: Bernd Krueger\nSource: http://www.piano-midi.de\n\nThe distribution or public playback of the files is only allowed under identical license conditions.\n\nThe scores are open source.","attribution":"MIDI files by Bernd Krueger (piano-midi.de)","attributionUrl":"http://www.piano-midi.de"}}