{"title":"Allegro con fuoco","artist":"Rachmaninoff","durationMs":108416,"midiSha256":"e9112d6f6b5c7296ccaa2ba7182113ee36ab868fefd957f8d3e50ce85833beb5","midiObject":[{"NoteNumber":75,"Velocity":68,"Duration":1100210,"SoundDuration":1100210,"Delta":0},{"NoteNumber":79,"Velocity":80,"Duration":1100210,"SoundDuration":1100210,"Delta":0},{"NoteNumber":63,"Velocity":51,"Duration":1100210,"SoundDuration":1100210,"Delta":0},{"NoteNumber":67,"Velocity":60,"Duration":1100210,"SoundDuration":1100210,"Delta":0},{"NoteNumber":75,"Velocity":68,"Duration":825157,"SoundDuration":825157,"Delta":1100210},{"NoteNumber":79,"Velocity":80,"Duration":825157,"SoundDuration":825157,"Delta":1100210},{"NoteNumber":63,"Velocity":51,"Duration":825157,"SoundDuration":825157,"Delta":1100210},{"NoteNumber":67,"Velocity":60,"Duration":825157,"SoundDuration":825157,"Delta":1100210},{"NoteNumber":72,"Velocity":72,"Duration":275052,"SoundDuration":275052,"Delta":1925367},{"NoteNumber":60,"Velocity":54,"Duration":275052,"SoundDuration":275052,"Delta":1925367},{"NoteNumber":75,"Velocity":68,"Duration":825157,"SoundDuration":825157,"Delta":2200420},{"NoteNumber":79,"Velocity":80,"Duration":825157,"SoundDuration":825157,"Delta":2200420},{"NoteNumber":63,"Velocity":51,"Duration":825157,"SoundDuration":825157,"Delta":2200420},{"NoteNumber":67,"Velocity":60,"Duration":825157,"SoundDuration":825157,"Delta":2200420},{"NoteNumber":70,"Velocity":72,"Duration":275052,"SoundDuration":275052,"Delta":3025577},{"NoteNumber":58,"Velocity":54,"Duration":275052,"SoundDuration":275052,"Delta":3025577},{"NoteNumber":75,"Velocity":74,"Duration":550104,"SoundDuration":550104,"Delta":3300630},{"NoteNumber":79,"Velocity":88,"Duration":550104,"SoundDuration":550104,"Delta":3300630},{"NoteNumber":63,"Velocity":56,"Duration":550104,"SoundDuration":550104,"Delta":3300630},{"NoteNumber":67,"Velocity":66,"Duration":550104,"SoundDuration":550104,"Delta":3300630},{"NoteNumber":67,"Velocity":76,"Duration":109906,"SoundDuration":109906,"Delta":3850735},{"NoteNumber":55,"Velocity":57,"Duration":109906,"SoundDuration":109906,"Delta":3850735},{"NoteNumber":70,"Velocity":68,"Duration":109906,"SoundDuration":109906,"Delta":3960641},{"NoteNumber":58,"Velocity":51,"Duration":109906,"SoundDuration":109906,"Delta":3960641},{"NoteNumber":74,"Velocity":81,"Duration":136973,"SoundDuration":136973,"Delta":4070547},{"NoteNumber":62,"Velocity":61,"Duration":136973,"SoundDuration":136973,"Delta":4070547},{"NoteNumber":79,"Velocity":88,"Duration":221434,"SoundDuration":221434,"Delta":4344495},{"NoteNumber":75,"Velocity":74,"Duration":221434,"SoundDuration":221434,"Delta":4344495},{"NoteNumber":67,"Velocity":66,"Duration":221434,"SoundDuration":221434,"Delta":4344495},{"NoteNumber":63,"Velocity":55,"Duration":221434,"SoundDuration":221434,"Delta":4344495},{"NoteNumber":63,"Velocity":74,"Duration":116287,"SoundDuration":116287,"Delta":4565930},{"NoteNumber":51,"Velocity":55,"Duration":116287,"SoundDuration":116287,"Delta":4565930},{"NoteNumber":67,"Velocity":76,"Duration":116287,"SoundDuration":116287,"Delta":4682218},{"NoteNumber":55,"Velocity":56,"Duration":116287,"SoundDuration":116287,"Delta":4682218},{"NoteNumber":70,"Velocity":88,"Duration":131567,"SoundDuration":131567,"Delta":4798506},{"NoteNumber":58,"Velocity":66,"Duration":131567,"SoundDuration":131567,"Delta":4798506},{"NoteNumber":72,"Velocity":81,"Duration":143526,"SoundDuration":143526,"Delta":5061641},{"NoteNumber":60,"Velocity":61,"Duration":143526,"SoundDuration":143526,"Delta":5061641},{"NoteNumber":75,"Velocity":78,"Duration":269034,"SoundDuration":269034,"Delta":5348695},{"NoteNumber":79,"Velocity":92,"Duration":269034,"SoundDuration":269034,"Delta":5348695},{"NoteNumber":63,"Velocity":58,"Duration":269034,"SoundDuration":269034,"Delta":5348695},{"NoteNumber":67,"Velocity":69,"Duration":269034,"SoundDuration":269034,"Delta":5348695},{"NoteNumber":60,"Velocity":87,"Duration":123987,"SoundDuration":123987,"Delta":5617729},{"NoteNumber":48,"Velocity":64,"Duration":123987,"SoundDuration":123987,"Delta":5617729},{"NoteNumber":63,"Velocity":88,"Duration":123987,"SoundDuration":123987,"Delta":5741716},{"NoteNumber":51,"Velocity":65,"Duration":123987,"SoundDuration":123987,"Delta":5741716},{"NoteNumber":67,"Velocity":96,"Duration":144913,"SoundDuration":144913,"Delta":5865704},{"NoteNumber":55,"Velocity":72,"Duration":144913,"SoundDuration":144913,"Delta":5865704},{"NoteNumber":70,"Velocity":103,"Duration":166648,"SoundDuration":166648,"Delta":6155531},{"NoteNumber":58,"Velocity":87,"Duration":166648,"SoundDuration":166648,"Delta":6155531},{"NoteNumber":39,"Velocity":77,"Duration":166648,"SoundDuration":166648,"Delta":6155531},{"NoteNumber":27,"Velocity":65,"Duration":166648,"SoundDuration":166648,"Delta":6155531},{"NoteNumber":79,"Velocity":112,"Duration":885343,"SoundDuration":885343,"Delta":6488827},{"NoteNumber":75,"Velocity":94,"Duration":885343,"SoundDuration":885343,"Delta":6488827},{"NoteNumber":70,"Velocity":94,"Duration":885343,"SoundDuration":885343,"Delta":6488827},{"NoteNumber":67,"Velocity":94,"Duration":885343,"SoundDuration":885343,"Delta":6488827},{"NoteNumber":58,"Velocity":83,"Duration":636195,"SoundDuration":636195,"Delta":6488827},{"NoteNumber":55,"Velocity":70,"Duration":511621,"SoundDuration":511621,"Delta":6488827},{"NoteNumber":51,"Velocity":70,"Duration":511621,"SoundDuration":511621,"Delta":6488827},{"NoteNumber":46,"Velocity":70,"Duration":885343,"SoundDuration":885343,"Delta":6488827},{"NoteNumber":55,"Velocity":39,"Duration":373722,"SoundDuration":373722,"Delta":6875874},{"NoteNumber":51,"Velocity":33,"Duration":373722,"SoundDuration":373722,"Delta":6875874},{"NoteNumber":58,"Velocity":30,"Duration":373722,"SoundDuration":373722,"Delta":7000448},{"NoteNumber":55,"Velocity":41,"Duration":249148,"SoundDuration":249148,"Delta":7125023},{"NoteNumber":51,"Velocity":34,"Duration":249148,"SoundDuration":249148,"Delta":7125023},{"NoteNumber":58,"Velocity":30,"Duration":124574,"SoundDuration":124574,"Delta":7249597},{"NoteNumber":56,"Velocity":48,"Duration":115021,"SoundDuration":115021,"Delta":7374171},{"NoteNumber":53,"Velocity":40,"Duration":115021,"SoundDuration":115021,"Delta":7374171},{"NoteNumber":34,"Velocity":30,"Duration":115021,"SoundDuration":115021,"Delta":7374171},{"NoteNumber":58,"Velocity":30,"Duration":135857,"SoundDuration":135857,"Delta":7489193},{"NoteNumber":55,"Velocity":41,"Duration":121546,"SoundDuration":121546,"Delta":7625050},{"NoteNumber":51,"Velocity":34,"Duration":121546,"SoundDuration":121546,"Delta":7625050},{"NoteNumber":39,"Velocity":41,"Duration":729275,"SoundDuration":729275,"Delta":7625050},{"NoteNumber":46,"Velocity":41,"Duration":974711,"SoundDuration":974711,"Delta":7625050},{"NoteNumber":58,"Velocity":30,"Duration":121545,"SoundDuration":121545,"Delta":7746596},{"NoteNumber":51,"Velocity":33,"Duration":121546,"SoundDuration":121546,"Delta":7868142},{"NoteNumber":55,"Velocity":39,"Duration":121546,"SoundDuration":121546,"Delta":7868142},{"NoteNumber":58,"Velocity":30,"Duration":121546,"SoundDuration":121546,"Delta":7989688},{"NoteNumber":55,"Velocity":40,"Duration":121545,"SoundDuration":121545,"Delta":8111234},{"NoteNumber":51,"Velocity":34,"Duration":121545,"SoundDuration":121545,"Delta":8111234},{"NoteNumber":58,"Velocity":30,"Duration":121546,"SoundDuration":121546,"Delta":8232780},{"NoteNumber":53,"Velocity":39,"Duration":115464,"SoundDuration":115464,"Delta":8354326},{"NoteNumber":56,"Velocity":47,"Duration":115464,"SoundDuration":115464,"Delta":8354326},{"NoteNumber":34,"Velocity":30,"Duration":115464,"SoundDuration":115464,"Delta":8354326},{"NoteNumber":58,"Velocity":30,"Duration":129971,"SoundDuration":129971,"Delta":8469791},{"NoteNumber":55,"Velocity":41,"Duration":121546,"SoundDuration":121546,"Delta":8599762},{"NoteNumber":51,"Velocity":34,"Duration":121546,"SoundDuration":121546,"Delta":8599762},{"NoteNumber":39,"Velocity":41,"Duration":486183,"SoundDuration":486183,"Delta":8599762},{"NoteNumber":46,"Velocity":41,"Duration":976743,"SoundDuration":976743,"Delta":8599762},{"NoteNumber":58,"Velocity":30,"Duration":121546,"SoundDuration":121546,"Delta":8721308},{"NoteNumber":51,"Velocity":33,"Duration":121545,"SoundDuration":121545,"Delta":8842854},{"NoteNumber":55,"Velocity":39,"Duration":121545,"SoundDuration":121545,"Delta":8842854},{"NoteNumber":58,"Velocity":30,"Duration":121546,"SoundDuration":121546,"Delta":8964400},{"NoteNumber":55,"Velocity":40,"Duration":121546,"SoundDuration":121546,"Delta":9085946},{"NoteNumber":51,"Velocity":34,"Duration":121546,"SoundDuration":121546,"Delta":9085946},{"NoteNumber":34,"Velocity":30,"Duration":121546,"SoundDuration":121546,"Delta":9085946},{"NoteNumber":58,"Velocity":30,"Duration":121546,"SoundDuration":121546,"Delta":9207492},{"NoteNumber":53,"Velocity":39,"Duration":116360,"SoundDuration":116360,"Delta":9329038},{"NoteNumber":56,"Velocity":47,"Duration":116360,"SoundDuration":116360,"Delta":9329038},{"NoteNumber":38,"Velocity":30,"Duration":116360,"SoundDuration":116360,"Delta":9329038},{"NoteNumber":58,"Velocity":30,"Duration":131107,"SoundDuration":131107,"Delta":9445398},{"NoteNumber":55,"Velocity":41,"Duration":120568,"SoundDuration":120568,"Delta":9576506},{"NoteNumber":51,"Velocity":34,"Duration":120568,"SoundDuration":120568,"Delta":9576506},{"NoteNumber":39,"Velocity":41,"Duration":723414,"SoundDuration":723414,"Delta":9576506},{"NoteNumber":46,"Velocity":41,"Duration":972914,"SoundDuration":972914,"Delta":9576506},{"NoteNumber":58,"Velocity":30,"Duration":120568,"SoundDuration":120568,"Delta":9697075},{"NoteNumber":51,"Velocity":33,"Duration":120568,"SoundDuration":120568,"Delta":9817644},{"NoteNumber":55,"Velocity":39,"Duration":120568,"SoundDuration":120568,"Delta":9817644},{"NoteNumber":58,"Velocity":30,"Duration":120569,"SoundDuration":120569,"Delta":9938213},{"NoteNumber":55,"Velocity":40,"Duration":120568,"SoundDuration":120568,"Delta":10058782},{"NoteNumber":51,"Velocity":34,"Duration":120568,"SoundDuration":120568,"Delta":10058782},{"NoteNumber":58,"Velocity":30,"Duration":120568,"SoundDuration":120568,"Delta":10179351},{"NoteNumber":53,"Velocity":39,"Duration":115464,"SoundDuration":115464,"Delta":10299920},{"NoteNumber":56,"Velocity":47,"Duration":115464,"SoundDuration":115464,"Delta":10299920},{"NoteNumber":34,"Velocity":30,"Duration":115464,"SoundDuration":115464,"Delta":10299920},{"NoteNumber":58,"Velocity":30,"Duration":134036,"SoundDuration":134036,"Delta":10415384},{"NoteNumber":51,"Velocity":34,"Duration":116984,"SoundDuration":116984,"Delta":10549421},{"NoteNumber":55,"Velocity":41,"Duration":116984,"SoundDuration":116984,"Delta":10549421},{"NoteNumber":27,"Velocity":41,"Duration":1836429,"SoundDuration":1836429,"Delta":10549421},{"NoteNumber":39,"Velocity":41,"Duration":463282,"SoundDuration":463282,"Delta":10549421},{"NoteNumber":58,"Velocity":33,"Duration":116756,"SoundDuration":116756,"Delta":10666405},{"NoteNumber":55,"Velocity":44,"Duration":116360,"SoundDuration":116360,"Delta":10783162},{"NoteNumber":51,"Velocity":37,"Duration":116360,"SoundDuration":116360,"Delta":10783162},{"NoteNumber":46,"Velocity":51,"Duration":116360,"SoundDuration":116360,"Delta":10783162},{"NoteNumber":63,"Velocity":39,"Duration":116079,"SoundDuration":116079,"Delta":10899522},{"NoteNumber":56,"Velocity":45,"Duration":115854,"SoundDuration":115854,"Delta":11015601},{"NoteNumber":53,"Velocity":38,"Duration":115854,"SoundDuration":115854,"Delta":11015601},{"NoteNumber":51,"Velocity":68,"Duration":690366,"SoundDuration":690366,"Delta":11015601},{"NoteNumber":39,"Velocity":56,"Duration":690366,"SoundDuration":690366,"Delta":11015601},{"NoteNumber":63,"Velocity":41,"Duration":115464,"SoundDuration":115464,"Delta":11131456},{"NoteNumber":55,"Velocity":38,"Duration":115187,"SoundDuration":115187,"Delta":11246921},{"NoteNumber":58,"Velocity":45,"Duration":115187,"SoundDuration":115187,"Delta":11246921},{"NoteNumber":63,"Velocity":40,"Duration":114966,"SoundDuration":114966,"Delta":11362108},{"NoteNumber":56,"Velocity":39,"Duration":114582,"SoundDuration":114582,"Delta":11477075},{"NoteNumber":60,"Velocity":46,"Duration":114582,"SoundDuration":114582,"Delta":11477075},{"NoteNumber":63,"Velocity":42,"Duration":114309,"SoundDuration":114309,"Delta":11591658},{"NoteNumber":58,"Velocity":40,"Duration":114092,"SoundDuration":114092,"Delta":11705968},{"NoteNumber":62,"Velocity":49,"Duration":114092,"SoundDuration":114092,"Delta":11705968},{"NoteNumber":51,"Velocity":53,"Duration":114092,"SoundDuration":114092,"Delta":11705968},{"NoteNumber":70,"Velocity":43,"Duration":113713,"SoundDuration":113713,"Delta":11820060},{"NoteNumber":55,"Velocity":52,"Duration":113713,"SoundDuration":113713,"Delta":11820060},{"NoteNumber":63,"Velocity":52,"Duration":113445,"SoundDuration":113445,"Delta":11933774},{"NoteNumber":60,"Velocity":44,"Duration":113445,"SoundDuration":113445,"Delta":11933774},{"NoteNumber":58,"Velocity":79,"Duration":452076,"SoundDuration":452076,"Delta":11933774},{"NoteNumber":46,"Velocity":68,"Duration":452076,"SoundDuration":452076,"Delta":11933774},{"NoteNumber":70,"Velocity":44,"Duration":113231,"SoundDuration":113231,"Delta":12047220},{"NoteNumber":65,"Velocity":54,"Duration":112858,"SoundDuration":112858,"Delta":12160451},{"NoteNumber":62,"Velocity":45,"Duration":112858,"SoundDuration":112858,"Delta":12160451},{"NoteNumber":70,"Velocity":50,"Duration":112540,"SoundDuration":112540,"Delta":12273309},{"NoteNumber":67,"Velocity":57,"Duration":111185,"SoundDuration":111185,"Delta":12385850},{"NoteNumber":63,"Velocity":47,"Duration":111185,"SoundDuration":111185,"Delta":12385850},{"NoteNumber":27,"Velocity":47,"Duration":884579,"SoundDuration":884579,"Delta":12385850},{"NoteNumber":39,"Velocity":47,"Duration":884579,"SoundDuration":884579,"Delta":12385850},{"NoteNumber":70,"Velocity":50,"Duration":111185,"SoundDuration":111185,"Delta":12497036},{"NoteNumber":67,"Velocity":61,"Duration":110774,"SoundDuration":110774,"Delta":12608221},{"NoteNumber":63,"Velocity":51,"Duration":110774,"SoundDuration":110774,"Delta":12608221},{"NoteNumber":58,"Velocity":59,"Duration":110774,"SoundDuration":110774,"Delta":12608221},{"NoteNumber":75,"Velocity":53,"Duration":110774,"SoundDuration":110774,"Delta":12718996},{"NoteNumber":68,"Velocity":62,"Duration":110367,"SoundDuration":110367,"Delta":12829770},{"NoteNumber":65,"Velocity":52,"Duration":110367,"SoundDuration":110367,"Delta":12829770},{"NoteNumber":63,"Velocity":78,"Duration":659367,"SoundDuration":659367,"Delta":12829770},{"NoteNumber":51,"Velocity":63,"Duration":659367,"SoundDuration":659367,"Delta":12829770},{"NoteNumber":75,"Velocity":57,"Duration":110367,"SoundDuration":110367,"Delta":12940138},{"NoteNumber":67,"Velocity":53,"Duration":109962,"SoundDuration":109962,"Delta":13050505},{"NoteNumber":70,"Velocity":63,"Duration":109962,"SoundDuration":109962,"Delta":13050505},{"NoteNumber":75,"Velocity":57,"Duration":109962,"SoundDuration":109962,"Delta":13160467},{"NoteNumber":72,"Velocity":64,"Duration":109560,"SoundDuration":109560,"Delta":13270430},{"NoteNumber":68,"Velocity":53,"Duration":109560,"SoundDuration":109560,"Delta":13270430},{"NoteNumber":75,"Velocity":59,"Duration":109146,"SoundDuration":109146,"Delta":13379991},{"NoteNumber":70,"Velocity":57,"Duration":108038,"SoundDuration":108038,"Delta":13489137},{"NoteNumber":74,"Velocity":67,"Duration":108038,"SoundDuration":108038,"Delta":13489137},{"NoteNumber":63,"Velocity":60,"Duration":108038,"SoundDuration":108038,"Delta":13489137},{"NoteNumber":82,"Velocity":64,"Duration":107116,"SoundDuration":107116,"Delta":13597176},{"NoteNumber":67,"Velocity":60,"Duration":107116,"SoundDuration":107116,"Delta":13597176},{"NoteNumber":75,"Velocity":73,"Duration":106262,"SoundDuration":106262,"Delta":13704292},{"NoteNumber":72,"Velocity":61,"Duration":106262,"SoundDuration":106262,"Delta":13704292},{"NoteNumber":70,"Velocity":90,"Duration":726589,"SoundDuration":726589,"Delta":13704292},{"NoteNumber":58,"Velocity":78,"Duration":2070192,"SoundDuration":2070192,"Delta":13704292},{"NoteNumber":82,"Velocity":67,"Duration":105336,"SoundDuration":105336,"Delta":13810555},{"NoteNumber":77,"Velocity":74,"Duration":104504,"SoundDuration":104504,"Delta":13915891},{"NoteNumber":74,"Velocity":62,"Duration":104504,"SoundDuration":104504,"Delta":13915891},{"NoteNumber":82,"Velocity":68,"Duration":103652,"SoundDuration":103652,"Delta":14020395},{"NoteNumber":79,"Velocity":82,"Duration":101701,"SoundDuration":101701,"Delta":14124048},{"NoteNumber":75,"Velocity":69,"Duration":101701,"SoundDuration":101701,"Delta":14124048},{"NoteNumber":82,"Velocity":59,"Duration":102923,"SoundDuration":102923,"Delta":14225750},{"NoteNumber":77,"Velocity":53,"Duration":102207,"SoundDuration":102207,"Delta":14328673},{"NoteNumber":74,"Velocity":34,"Duration":102207,"SoundDuration":102207,"Delta":14328673},{"NoteNumber":70,"Velocity":34,"Duration":507428,"SoundDuration":507428,"Delta":14328673},{"NoteNumber":78,"Velocity":43,"Duration":101860,"SoundDuration":101860,"Delta":14430881},{"NoteNumber":84,"Velocity":51,"Duration":101860,"SoundDuration":101860,"Delta":14430881},{"NoteNumber":75,"Velocity":56,"Duration":101516,"SoundDuration":101516,"Delta":14532742},{"NoteNumber":79,"Velocity":66,"Duration":101516,"SoundDuration":101516,"Delta":14532742},{"NoteNumber":80,"Velocity":49,"Duration":101173,"SoundDuration":101173,"Delta":14634259},{"NoteNumber":82,"Velocity":58,"Duration":101173,"SoundDuration":101173,"Delta":14634259},{"NoteNumber":77,"Velocity":51,"Duration":100669,"SoundDuration":100669,"Delta":14735432},{"NoteNumber":74,"Velocity":31,"Duration":100669,"SoundDuration":100669,"Delta":14735432},{"NoteNumber":70,"Velocity":31,"Duration":502450,"SoundDuration":502450,"Delta":14735432},{"NoteNumber":78,"Velocity":40,"Duration":99993,"SoundDuration":99993,"Delta":14836102},{"NoteNumber":84,"Velocity":48,"Duration":99993,"SoundDuration":99993,"Delta":14836102},{"NoteNumber":79,"Velocity":70,"Duration":100285,"SoundDuration":100285,"Delta":14936095},{"NoteNumber":75,"Velocity":50,"Duration":100285,"SoundDuration":100285,"Delta":14936095},{"NoteNumber":82,"Velocity":64,"Duration":100411,"SoundDuration":100411,"Delta":15036381},{"NoteNumber":80,"Velocity":54,"Duration":100411,"SoundDuration":100411,"Delta":15036381},{"NoteNumber":77,"Velocity":57,"Duration":101089,"SoundDuration":101089,"Delta":15136793},{"NoteNumber":74,"Velocity":48,"Duration":101089,"SoundDuration":101089,"Delta":15136793},{"NoteNumber":70,"Velocity":48,"Duration":523374,"SoundDuration":523374,"Delta":15136793},{"NoteNumber":78,"Velocity":45,"Duration":102252,"SoundDuration":102252,"Delta":15237882},{"NoteNumber":84,"Velocity":55,"Duration":102252,"SoundDuration":102252,"Delta":15237882},{"NoteNumber":75,"Velocity":53,"Duration":103531,"SoundDuration":103531,"Delta":15340135},{"NoteNumber":79,"Velocity":73,"Duration":103531,"SoundDuration":103531,"Delta":15340135},{"NoteNumber":80,"Velocity":52,"Duration":105641,"SoundDuration":105641,"Delta":15443667},{"NoteNumber":82,"Velocity":61,"Duration":105641,"SoundDuration":105641,"Delta":15443667},{"NoteNumber":77,"Velocity":60,"Duration":110858,"SoundDuration":110858,"Delta":15549308},{"NoteNumber":74,"Velocity":51,"Duration":110858,"SoundDuration":110858,"Delta":15549308},{"NoteNumber":70,"Velocity":51,"Duration":225175,"SoundDuration":225175,"Delta":15549308},{"NoteNumber":78,"Velocity":51,"Duration":114317,"SoundDuration":114317,"Delta":15660167},{"NoteNumber":84,"Velocity":61,"Duration":114317,"SoundDuration":114317,"Delta":15660167},{"NoteNumber":75,"Velocity":58,"Duration":256453,"SoundDuration":256453,"Delta":15774484},{"NoteNumber":79,"Velocity":91,"Duration":256453,"SoundDuration":256453,"Delta":15774484},{"NoteNumber":82,"Velocity":80,"Duration":118595,"SoundDuration":118595,"Delta":16030938},{"NoteNumber":79,"Velocity":68,"Duration":118595,"SoundDuration":118595,"Delta":16030938},{"NoteNumber":75,"Velocity":68,"Duration":118595,"SoundDuration":118595,"Delta":16030938},{"NoteNumber":70,"Velocity":68,"Duration":118595,"SoundDuration":118595,"Delta":16030938},{"NoteNumber":67,"Velocity":64,"Duration":118595,"SoundDuration":118595,"Delta":16030938},{"NoteNumber":58,"Velocity":54,"Duration":118595,"SoundDuration":118595,"Delta":16030938},{"NoteNumber":82,"Velocity":80,"Duration":117730,"SoundDuration":117730,"Delta":16268130},{"NoteNumber":79,"Velocity":68,"Duration":117730,"SoundDuration":117730,"Delta":16268130},{"NoteNumber":75,"Velocity":68,"Duration":117730,"SoundDuration":117730,"Delta":16268130},{"NoteNumber":70,"Velocity":68,"Duration":117730,"SoundDuration":117730,"Delta":16268130},{"NoteNumber":67,"Velocity":64,"Duration":117730,"SoundDuration":117730,"Delta":16268130},{"NoteNumber":63,"Velocity":54,"Duration":117730,"SoundDuration":117730,"Delta":16268130},{"NoteNumber":82,"Velocity":80,"Duration":117730,"SoundDuration":117730,"Delta":16503590},{"NoteNumber":79,"Velocity":68,"Duration":117730,"SoundDuration":117730,"Delta":16503590},{"NoteNumber":75,"Velocity":68,"Duration":117730,"SoundDuration":117730,"Delta":16503590},{"NoteNumber":70,"Velocity":68,"Duration":117730,"SoundDuration":117730,"Delta":16503590},{"NoteNumber":67,"Velocity":64,"Duration":117730,"SoundDuration":117730,"Delta":16503590},{"NoteNumber":75,"Velocity":77,"Duration":258821,"SoundDuration":258821,"Delta":16739051},{"NoteNumber":79,"Velocity":77,"Duration":258821,"SoundDuration":258821,"Delta":16739051},{"NoteNumber":82,"Velocity":91,"Duration":258821,"SoundDuration":258821,"Delta":16739051},{"NoteNumber":70,"Velocity":70,"Duration":258821,"SoundDuration":258821,"Delta":16739051},{"NoteNumber":79,"Velocity":77,"Duration":310848,"SoundDuration":310848,"Delta":17256694},{"NoteNumber":82,"Velocity":91,"Duration":310848,"SoundDuration":310848,"Delta":17256694},{"NoteNumber":75,"Velocity":70,"Duration":310848,"SoundDuration":310848,"Delta":17256694},{"NoteNumber":82,"Velocity":91,"Duration":1890059,"SoundDuration":1890059,"Delta":17878391},{"NoteNumber":79,"Velocity":76,"Duration":1890059,"SoundDuration":1890059,"Delta":17878391},{"NoteNumber":79,"Velocity":68,"Duration":1100210,"SoundDuration":1100210,"Delta":19768451},{"NoteNumber":82,"Velocity":80,"Duration":1100210,"SoundDuration":1100210,"Delta":19768451},{"NoteNumber":67,"Velocity":51,"Duration":1100210,"SoundDuration":1100210,"Delta":19768451},{"NoteNumber":70,"Velocity":60,"Duration":1100210,"SoundDuration":1100210,"Delta":19768451},{"NoteNumber":79,"Velocity":68,"Duration":825157,"SoundDuration":825157,"Delta":20868661},{"NoteNumber":82,"Velocity":80,"Duration":825157,"SoundDuration":825157,"Delta":20868661},{"NoteNumber":67,"Velocity":51,"Duration":825157,"SoundDuration":825157,"Delta":20868661},{"NoteNumber":70,"Velocity":60,"Duration":825157,"SoundDuration":825157,"Delta":20868661},{"NoteNumber":75,"Velocity":72,"Duration":275052,"SoundDuration":275052,"Delta":21693818},{"NoteNumber":63,"Velocity":54,"Duration":275052,"SoundDuration":275052,"Delta":21693818},{"NoteNumber":79,"Velocity":68,"Duration":825157,"SoundDuration":825157,"Delta":21968871},{"NoteNumber":82,"Velocity":80,"Duration":825157,"SoundDuration":825157,"Delta":21968871},{"NoteNumber":67,"Velocity":51,"Duration":825157,"SoundDuration":825157,"Delta":21968871},{"NoteNumber":70,"Velocity":60,"Duration":825157,"SoundDuration":825157,"Delta":21968871},{"NoteNumber":74,"Velocity":72,"Duration":275052,"SoundDuration":275052,"Delta":22794028},{"NoteNumber":62,"Velocity":54,"Duration":275052,"SoundDuration":275052,"Delta":22794028},{"NoteNumber":79,"Velocity":74,"Duration":550104,"SoundDuration":550104,"Delta":23069081},{"NoteNumber":82,"Velocity":88,"Duration":550104,"SoundDuration":550104,"Delta":23069081},{"NoteNumber":67,"Velocity":56,"Duration":550104,"SoundDuration":550104,"Delta":23069081},{"NoteNumber":70,"Velocity":66,"Duration":550104,"SoundDuration":550104,"Delta":23069081},{"NoteNumber":70,"Velocity":76,"Duration":109906,"SoundDuration":109906,"Delta":23619186},{"NoteNumber":58,"Velocity":57,"Duration":109906,"SoundDuration":109906,"Delta":23619186},{"NoteNumber":74,"Velocity":68,"Duration":109906,"SoundDuration":109906,"Delta":23729092},{"NoteNumber":62,"Velocity":51,"Duration":109906,"SoundDuration":109906,"Delta":23729092},{"NoteNumber":77,"Velocity":81,"Duration":136973,"SoundDuration":136973,"Delta":23838998},{"NoteNumber":65,"Velocity":61,"Duration":136973,"SoundDuration":136973,"Delta":23838998},{"NoteNumber":82,"Velocity":88,"Duration":221434,"SoundDuration":221434,"Delta":24112946},{"NoteNumber":79,"Velocity":74,"Duration":221434,"SoundDuration":221434,"Delta":24112946},{"NoteNumber":70,"Velocity":66,"Duration":221434,"SoundDuration":221434,"Delta":24112946},{"NoteNumber":67,"Velocity":55,"Duration":221434,"SoundDuration":221434,"Delta":24112946},{"NoteNumber":67,"Velocity":74,"Duration":116740,"SoundDuration":116740,"Delta":24334381},{"NoteNumber":55,"Velocity":55,"Duration":116740,"SoundDuration":116740,"Delta":24334381},{"NoteNumber":70,"Velocity":76,"Duration":116740,"SoundDuration":116740,"Delta":24451121},{"NoteNumber":58,"Velocity":56,"Duration":116740,"SoundDuration":116740,"Delta":24451121},{"NoteNumber":74,"Velocity":88,"Duration":131590,"SoundDuration":131590,"Delta":24567862},{"NoteNumber":62,"Velocity":66,"Duration":131590,"SoundDuration":131590,"Delta":24567862},{"NoteNumber":75,"Velocity":81,"Duration":143526,"SoundDuration":143526,"Delta":24831043},{"NoteNumber":63,"Velocity":61,"Duration":143526,"SoundDuration":143526,"Delta":24831043},{"NoteNumber":79,"Velocity":78,"Duration":269034,"SoundDuration":269034,"Delta":25118097},{"NoteNumber":82,"Velocity":92,"Duration":269034,"SoundDuration":269034,"Delta":25118097},{"NoteNumber":67,"Velocity":58,"Duration":269034,"SoundDuration":269034,"Delta":25118097},{"NoteNumber":70,"Velocity":69,"Duration":269034,"SoundDuration":269034,"Delta":25118097},{"NoteNumber":63,"Velocity":87,"Duration":123987,"SoundDuration":123987,"Delta":25387131},{"NoteNumber":51,"Velocity":64,"Duration":123987,"SoundDuration":123987,"Delta":25387131},{"NoteNumber":67,"Velocity":88,"Duration":123987,"SoundDuration":123987,"Delta":25511118},{"NoteNumber":55,"Velocity":65,"Duration":123987,"SoundDuration":123987,"Delta":25511118},{"NoteNumber":70,"Velocity":96,"Duration":153877,"SoundDuration":153877,"Delta":25635106},{"NoteNumber":58,"Velocity":72,"Duration":153877,"SoundDuration":153877,"Delta":25635106},{"NoteNumber":74,"Velocity":103,"Duration":187546,"SoundDuration":187546,"Delta":25942861},{"NoteNumber":62,"Velocity":87,"Duration":187546,"SoundDuration":187546,"Delta":25942861},{"NoteNumber":43,"Velocity":77,"Duration":187546,"SoundDuration":187546,"Delta":25942861},{"NoteNumber":31,"Velocity":65,"Duration":187546,"SoundDuration":187546,"Delta":25942861},{"NoteNumber":83,"Velocity":112,"Duration":515109,"SoundDuration":515109,"Delta":26317955},{"NoteNumber":79,"Velocity":94,"Duration":515109,"SoundDuration":515109,"Delta":26317955},{"NoteNumber":74,"Velocity":94,"Duration":515109,"SoundDuration":515109,"Delta":26317955},{"NoteNumber":71,"Velocity":94,"Duration":515109,"SoundDuration":515109,"Delta":26317955},{"NoteNumber":62,"Velocity":83,"Duration":515109,"SoundDuration":515109,"Delta":26317955},{"NoteNumber":59,"Velocity":70,"Duration":515109,"SoundDuration":515109,"Delta":26317955},{"NoteNumber":55,"Velocity":70,"Duration":515109,"SoundDuration":515109,"Delta":26317955},{"NoteNumber":50,"Velocity":70,"Duration":515109,"SoundDuration":515109,"Delta":26317955},{"NoteNumber":50,"Velocity":63,"Duration":479026,"SoundDuration":479026,"Delta":26833065},{"NoteNumber":38,"Velocity":53,"Duration":479026,"SoundDuration":479026,"Delta":26833065},{"NoteNumber":52,"Velocity":70,"Duration":466998,"SoundDuration":466998,"Delta":27312092},{"NoteNumber":40,"Velocity":59,"Duration":466998,"SoundDuration":466998,"Delta":27312092},{"NoteNumber":67,"Velocity":52,"Duration":116749,"SoundDuration":116749,"Delta":27545592},{"NoteNumber":59,"Velocity":44,"Duration":116749,"SoundDuration":116749,"Delta":27545592},{"NoteNumber":59,"Velocity":46,"Duration":109106,"SoundDuration":109106,"Delta":27779091},{"NoteNumber":67,"Velocity":55,"Duration":109106,"SoundDuration":109106,"Delta":27779091},{"NoteNumber":50,"Velocity":63,"Duration":109106,"SoundDuration":109106,"Delta":27779091},{"NoteNumber":38,"Velocity":53,"Duration":109106,"SoundDuration":109106,"Delta":27779091},{"NoteNumber":69,"Velocity":46,"Duration":113224,"SoundDuration":113224,"Delta":27997305},{"NoteNumber":67,"Velocity":39,"Duration":113224,"SoundDuration":113224,"Delta":27997305},{"NoteNumber":64,"Velocity":39,"Duration":113224,"SoundDuration":113224,"Delta":27997305},{"NoteNumber":48,"Velocity":59,"Duration":113224,"SoundDuration":113224,"Delta":27997305},{"NoteNumber":36,"Velocity":50,"Duration":113224,"SoundDuration":113224,"Delta":27997305},{"NoteNumber":71,"Velocity":51,"Duration":116749,"SoundDuration":116749,"Delta":28223754},{"NoteNumber":67,"Velocity":43,"Duration":116749,"SoundDuration":116749,"Delta":28223754},{"NoteNumber":62,"Velocity":43,"Duration":116749,"SoundDuration":116749,"Delta":28223754},{"NoteNumber":47,"Velocity":63,"Duration":234878,"SoundDuration":234878,"Delta":28223754},{"NoteNumber":35,"Velocity":53,"Duration":234878,"SoundDuration":234878,"Delta":28223754},{"NoteNumber":64,"Velocity":36,"Duration":120501,"SoundDuration":120501,"Delta":28458633},{"NoteNumber":62,"Velocity":30,"Duration":120501,"SoundDuration":120501,"Delta":28458633},{"NoteNumber":55,"Velocity":30,"Duration":120501,"SoundDuration":120501,"Delta":28458633},{"NoteNumber":64,"Velocity":36,"Duration":120501,"SoundDuration":120501,"Delta":28699635},{"NoteNumber":62,"Velocity":30,"Duration":120501,"SoundDuration":120501,"Delta":28699635},{"NoteNumber":55,"Velocity":30,"Duration":120501,"SoundDuration":120501,"Delta":28699635},{"NoteNumber":45,"Velocity":55,"Duration":245003,"SoundDuration":245003,"Delta":28699635},{"NoteNumber":33,"Velocity":46,"Duration":245003,"SoundDuration":245003,"Delta":28699635},{"NoteNumber":66,"Velocity":35,"Duration":124501,"SoundDuration":124501,"Delta":28944638},{"NoteNumber":62,"Velocity":29,"Duration":124501,"SoundDuration":124501,"Delta":28944638},{"NoteNumber":60,"Velocity":29,"Duration":124501,"SoundDuration":124501,"Delta":28944638},{"NoteNumber":59,"Velocity":31,"Duration":249003,"SoundDuration":249003,"Delta":29193642},{"NoteNumber":62,"Velocity":31,"Duration":249003,"SoundDuration":249003,"Delta":29193642},{"NoteNumber":67,"Velocity":37,"Duration":249003,"SoundDuration":249003,"Delta":29193642},{"NoteNumber":43,"Velocity":59,"Duration":747301,"SoundDuration":747301,"Delta":29193642},{"NoteNumber":31,"Velocity":50,"Duration":747301,"SoundDuration":747301,"Delta":29193642},{"NoteNumber":59,"Velocity":39,"Duration":124574,"SoundDuration":124574,"Delta":29442646},{"NoteNumber":55,"Velocity":33,"Duration":124574,"SoundDuration":124574,"Delta":29442646},{"NoteNumber":62,"Velocity":30,"Duration":124574,"SoundDuration":124574,"Delta":29567221},{"NoteNumber":59,"Velocity":41,"Duration":124574,"SoundDuration":124574,"Delta":29691795},{"NoteNumber":55,"Velocity":34,"Duration":124574,"SoundDuration":124574,"Delta":29691795},{"NoteNumber":62,"Velocity":30,"Duration":124574,"SoundDuration":124574,"Delta":29816369},{"NoteNumber":60,"Velocity":48,"Duration":115021,"SoundDuration":115021,"Delta":29940943},{"NoteNumber":57,"Velocity":40,"Duration":115021,"SoundDuration":115021,"Delta":29940943},{"NoteNumber":38,"Velocity":30,"Duration":115021,"SoundDuration":115021,"Delta":29940943},{"NoteNumber":62,"Velocity":30,"Duration":135857,"SoundDuration":135857,"Delta":30055965},{"NoteNumber":59,"Velocity":41,"Duration":121545,"SoundDuration":121545,"Delta":30191822},{"NoteNumber":55,"Velocity":34,"Duration":121545,"SoundDuration":121545,"Delta":30191822},{"NoteNumber":43,"Velocity":41,"Duration":486184,"SoundDuration":486184,"Delta":30191822},{"NoteNumber":50,"Velocity":41,"Duration":974712,"SoundDuration":974712,"Delta":30191822},{"NoteNumber":62,"Velocity":30,"Duration":121546,"SoundDuration":121546,"Delta":30313368},{"NoteNumber":55,"Velocity":33,"Duration":121545,"SoundDuration":121545,"Delta":30434914},{"NoteNumber":59,"Velocity":39,"Duration":121545,"SoundDuration":121545,"Delta":30434914},{"NoteNumber":62,"Velocity":30,"Duration":121546,"SoundDuration":121546,"Delta":30556460},{"NoteNumber":59,"Velocity":40,"Duration":121545,"SoundDuration":121545,"Delta":30678006},{"NoteNumber":55,"Velocity":34,"Duration":121545,"SoundDuration":121545,"Delta":30678006},{"NoteNumber":38,"Velocity":30,"Duration":121545,"SoundDuration":121545,"Delta":30678006},{"NoteNumber":62,"Velocity":30,"Duration":121545,"SoundDuration":121545,"Delta":30799552},{"NoteNumber":57,"Velocity":39,"Duration":115464,"SoundDuration":115464,"Delta":30921098},{"NoteNumber":60,"Velocity":47,"Duration":115464,"SoundDuration":115464,"Delta":30921098},{"NoteNumber":42,"Velocity":30,"Duration":115464,"SoundDuration":115464,"Delta":30921098},{"NoteNumber":62,"Velocity":30,"Duration":129971,"SoundDuration":129971,"Delta":31036563},{"NoteNumber":59,"Velocity":41,"Duration":121545,"SoundDuration":121545,"Delta":31166534},{"NoteNumber":55,"Velocity":34,"Duration":121545,"SoundDuration":121545,"Delta":31166534},{"NoteNumber":43,"Velocity":41,"Duration":729275,"SoundDuration":729275,"Delta":31166534},{"NoteNumber":50,"Velocity":41,"Duration":976743,"SoundDuration":976743,"Delta":31166534},{"NoteNumber":62,"Velocity":30,"Duration":121546,"SoundDuration":121546,"Delta":31288080},{"NoteNumber":55,"Velocity":33,"Duration":121545,"SoundDuration":121545,"Delta":31409626},{"NoteNumber":59,"Velocity":39,"Duration":121545,"SoundDuration":121545,"Delta":31409626},{"NoteNumber":62,"Velocity":30,"Duration":121546,"SoundDuration":121546,"Delta":31531172},{"NoteNumber":59,"Velocity":40,"Duration":121545,"SoundDuration":121545,"Delta":31652718},{"NoteNumber":55,"Velocity":34,"Duration":121545,"SoundDuration":121545,"Delta":31652718},{"NoteNumber":62,"Velocity":30,"Duration":121545,"SoundDuration":121545,"Delta":31774264},{"NoteNumber":57,"Velocity":39,"Duration":116360,"SoundDuration":116360,"Delta":31895810},{"NoteNumber":60,"Velocity":47,"Duration":116360,"SoundDuration":116360,"Delta":31895810},{"NoteNumber":38,"Velocity":30,"Duration":116360,"SoundDuration":116360,"Delta":31895810},{"NoteNumber":62,"Velocity":30,"Duration":131107,"SoundDuration":131107,"Delta":32012171},{"NoteNumber":59,"Velocity":41,"Duration":120569,"SoundDuration":120569,"Delta":32143278},{"NoteNumber":55,"Velocity":34,"Duration":120569,"SoundDuration":120569,"Delta":32143278},{"NoteNumber":43,"Velocity":41,"Duration":482275,"SoundDuration":482275,"Delta":32143278},{"NoteNumber":50,"Velocity":41,"Duration":972914,"SoundDuration":972914,"Delta":32143278},{"NoteNumber":62,"Velocity":30,"Duration":120568,"SoundDuration":120568,"Delta":32263847},{"NoteNumber":55,"Velocity":33,"Duration":120569,"SoundDuration":120569,"Delta":32384416},{"NoteNumber":59,"Velocity":39,"Duration":120569,"SoundDuration":120569,"Delta":32384416},{"NoteNumber":62,"Velocity":30,"Duration":120568,"SoundDuration":120568,"Delta":32504985},{"NoteNumber":59,"Velocity":40,"Duration":120569,"SoundDuration":120569,"Delta":32625554},{"NoteNumber":55,"Velocity":34,"Duration":120569,"SoundDuration":120569,"Delta":32625554},{"NoteNumber":35,"Velocity":47,"Duration":120569,"SoundDuration":120569,"Delta":32625554},{"NoteNumber":62,"Velocity":30,"Duration":120568,"SoundDuration":120568,"Delta":32746123},{"NoteNumber":38,"Velocity":38,"Duration":120568,"SoundDuration":120568,"Delta":32746123},{"NoteNumber":57,"Velocity":39,"Duration":115464,"SoundDuration":115464,"Delta":32866692},{"NoteNumber":60,"Velocity":47,"Duration":115464,"SoundDuration":115464,"Delta":32866692},{"NoteNumber":42,"Velocity":48,"Duration":115464,"SoundDuration":115464,"Delta":32866692},{"NoteNumber":62,"Velocity":30,"Duration":134036,"SoundDuration":134036,"Delta":32982157},{"NoteNumber":55,"Velocity":34,"Duration":116984,"SoundDuration":116984,"Delta":33116193},{"NoteNumber":59,"Velocity":41,"Duration":116984,"SoundDuration":116984,"Delta":33116193},{"NoteNumber":31,"Velocity":41,"Duration":1836429,"SoundDuration":1836429,"Delta":33116193},{"NoteNumber":43,"Velocity":41,"Duration":463282,"SoundDuration":463282,"Delta":33116193},{"NoteNumber":62,"Velocity":33,"Duration":116756,"SoundDuration":116756,"Delta":33233177},{"NoteNumber":59,"Velocity":44,"Duration":116360,"SoundDuration":116360,"Delta":33349934},{"NoteNumber":55,"Velocity":37,"Duration":116360,"SoundDuration":116360,"Delta":33349934},{"NoteNumber":50,"Velocity":51,"Duration":116360,"SoundDuration":116360,"Delta":33349934},{"NoteNumber":67,"Velocity":39,"Duration":116079,"SoundDuration":116079,"Delta":33466294},{"NoteNumber":60,"Velocity":45,"Duration":115854,"SoundDuration":115854,"Delta":33582374},{"NoteNumber":57,"Velocity":38,"Duration":115854,"SoundDuration":115854,"Delta":33582374},{"NoteNumber":55,"Velocity":68,"Duration":690366,"SoundDuration":690366,"Delta":33582374},{"NoteNumber":43,"Velocity":56,"Duration":690366,"SoundDuration":690366,"Delta":33582374},{"NoteNumber":67,"Velocity":41,"Duration":115464,"SoundDuration":115464,"Delta":33698229},{"NoteNumber":59,"Velocity":38,"Duration":115187,"SoundDuration":115187,"Delta":33813693},{"NoteNumber":62,"Velocity":45,"Duration":115187,"SoundDuration":115187,"Delta":33813693},{"NoteNumber":67,"Velocity":40,"Duration":114966,"SoundDuration":114966,"Delta":33928881},{"NoteNumber":60,"Velocity":39,"Duration":114582,"SoundDuration":114582,"Delta":34043848},{"NoteNumber":64,"Velocity":46,"Duration":114582,"SoundDuration":114582,"Delta":34043848},{"NoteNumber":67,"Velocity":42,"Duration":114310,"SoundDuration":114310,"Delta":34158430},{"NoteNumber":62,"Velocity":40,"Duration":114092,"SoundDuration":114092,"Delta":34272740},{"NoteNumber":66,"Velocity":49,"Duration":114092,"SoundDuration":114092,"Delta":34272740},{"NoteNumber":55,"Velocity":53,"Duration":114092,"SoundDuration":114092,"Delta":34272740},{"NoteNumber":74,"Velocity":43,"Duration":113713,"SoundDuration":113713,"Delta":34386833},{"NoteNumber":59,"Velocity":52,"Duration":113713,"SoundDuration":113713,"Delta":34386833},{"NoteNumber":67,"Velocity":52,"Duration":113445,"SoundDuration":113445,"Delta":34500547},{"NoteNumber":64,"Velocity":44,"Duration":113445,"SoundDuration":113445,"Delta":34500547},{"NoteNumber":62,"Velocity":79,"Duration":452076,"SoundDuration":452076,"Delta":34500547},{"NoteNumber":50,"Velocity":68,"Duration":452076,"SoundDuration":452076,"Delta":34500547},{"NoteNumber":74,"Velocity":44,"Duration":113231,"SoundDuration":113231,"Delta":34613992},{"NoteNumber":69,"Velocity":54,"Duration":112858,"SoundDuration":112858,"Delta":34727223},{"NoteNumber":66,"Velocity":45,"Duration":112858,"SoundDuration":112858,"Delta":34727223},{"NoteNumber":74,"Velocity":50,"Duration":112541,"SoundDuration":112541,"Delta":34840082},{"NoteNumber":71,"Velocity":57,"Duration":111185,"SoundDuration":111185,"Delta":34952623},{"NoteNumber":67,"Velocity":47,"Duration":111185,"SoundDuration":111185,"Delta":34952623},{"NoteNumber":31,"Velocity":47,"Duration":884579,"SoundDuration":884579,"Delta":34952623},{"NoteNumber":43,"Velocity":47,"Duration":884579,"SoundDuration":884579,"Delta":34952623},{"NoteNumber":74,"Velocity":50,"Duration":111185,"SoundDuration":111185,"Delta":35063808},{"NoteNumber":71,"Velocity":61,"Duration":110774,"SoundDuration":110774,"Delta":35174993},{"NoteNumber":67,"Velocity":51,"Duration":110774,"SoundDuration":110774,"Delta":35174993},{"NoteNumber":50,"Velocity":51,"Duration":110774,"SoundDuration":110774,"Delta":35174993},{"NoteNumber":62,"Velocity":59,"Duration":110774,"SoundDuration":110774,"Delta":35174993},{"NoteNumber":79,"Velocity":53,"Duration":110774,"SoundDuration":110774,"Delta":35285768},{"NoteNumber":72,"Velocity":62,"Duration":110367,"SoundDuration":110367,"Delta":35396543},{"NoteNumber":69,"Velocity":52,"Duration":110367,"SoundDuration":110367,"Delta":35396543},{"NoteNumber":67,"Velocity":78,"Duration":659367,"SoundDuration":659367,"Delta":35396543},{"NoteNumber":55,"Velocity":63,"Duration":659367,"SoundDuration":659367,"Delta":35396543},{"NoteNumber":79,"Velocity":57,"Duration":110367,"SoundDuration":110367,"Delta":35506910},{"NoteNumber":71,"Velocity":53,"Duration":109962,"SoundDuration":109962,"Delta":35617277},{"NoteNumber":74,"Velocity":63,"Duration":109962,"SoundDuration":109962,"Delta":35617277},{"NoteNumber":79,"Velocity":57,"Duration":109962,"SoundDuration":109962,"Delta":35727240},{"NoteNumber":76,"Velocity":64,"Duration":109560,"SoundDuration":109560,"Delta":35837202},{"NoteNumber":72,"Velocity":53,"Duration":109560,"SoundDuration":109560,"Delta":35837202},{"NoteNumber":79,"Velocity":59,"Duration":109146,"SoundDuration":109146,"Delta":35946763},{"NoteNumber":74,"Velocity":57,"Duration":108038,"SoundDuration":108038,"Delta":36055910},{"NoteNumber":78,"Velocity":67,"Duration":108038,"SoundDuration":108038,"Delta":36055910},{"NoteNumber":67,"Velocity":60,"Duration":108038,"SoundDuration":108038,"Delta":36055910},{"NoteNumber":86,"Velocity":64,"Duration":107116,"SoundDuration":107116,"Delta":36163948},{"NoteNumber":71,"Velocity":60,"Duration":107116,"SoundDuration":107116,"Delta":36163948},{"NoteNumber":79,"Velocity":73,"Duration":106262,"SoundDuration":106262,"Delta":36271065},{"NoteNumber":76,"Velocity":61,"Duration":106262,"SoundDuration":106262,"Delta":36271065},{"NoteNumber":74,"Velocity":90,"Duration":726589,"SoundDuration":726589,"Delta":36271065},{"NoteNumber":62,"Velocity":78,"Duration":2070192,"SoundDuration":2070192,"Delta":36271065},{"NoteNumber":86,"Velocity":67,"Duration":105336,"SoundDuration":105336,"Delta":36377327},{"NoteNumber":81,"Velocity":74,"Duration":104504,"SoundDuration":104504,"Delta":36482663},{"NoteNumber":78,"Velocity":62,"Duration":104504,"SoundDuration":104504,"Delta":36482663},{"NoteNumber":86,"Velocity":68,"Duration":103652,"SoundDuration":103652,"Delta":36587167},{"NoteNumber":83,"Velocity":82,"Duration":101701,"SoundDuration":101701,"Delta":36690820},{"NoteNumber":79,"Velocity":69,"Duration":101701,"SoundDuration":101701,"Delta":36690820},{"NoteNumber":86,"Velocity":59,"Duration":102923,"SoundDuration":102923,"Delta":36792522},{"NoteNumber":81,"Velocity":53,"Duration":102208,"SoundDuration":102208,"Delta":36895446},{"NoteNumber":78,"Velocity":34,"Duration":102208,"SoundDuration":102208,"Delta":36895446},{"NoteNumber":74,"Velocity":34,"Duration":507428,"SoundDuration":507428,"Delta":36895446},{"NoteNumber":82,"Velocity":43,"Duration":101860,"SoundDuration":101860,"Delta":36997654},{"NoteNumber":88,"Velocity":51,"Duration":101860,"SoundDuration":101860,"Delta":36997654},{"NoteNumber":79,"Velocity":56,"Duration":101516,"SoundDuration":101516,"Delta":37099515},{"NoteNumber":83,"Velocity":66,"Duration":101516,"SoundDuration":101516,"Delta":37099515},{"NoteNumber":84,"Velocity":49,"Duration":101173,"SoundDuration":101173,"Delta":37201031},{"NoteNumber":86,"Velocity":58,"Duration":101173,"SoundDuration":101173,"Delta":37201031},{"NoteNumber":81,"Velocity":51,"Duration":100669,"SoundDuration":100669,"Delta":37302205},{"NoteNumber":78,"Velocity":31,"Duration":100669,"SoundDuration":100669,"Delta":37302205},{"NoteNumber":74,"Velocity":31,"Duration":502450,"SoundDuration":502450,"Delta":37302205},{"NoteNumber":82,"Velocity":40,"Duration":99993,"SoundDuration":99993,"Delta":37402874},{"NoteNumber":88,"Velocity":48,"Duration":99993,"SoundDuration":99993,"Delta":37402874},{"NoteNumber":83,"Velocity":70,"Duration":100285,"SoundDuration":100285,"Delta":37502867},{"NoteNumber":79,"Velocity":50,"Duration":100285,"SoundDuration":100285,"Delta":37502867},{"NoteNumber":86,"Velocity":64,"Duration":100411,"SoundDuration":100411,"Delta":37603153},{"NoteNumber":84,"Velocity":54,"Duration":100411,"SoundDuration":100411,"Delta":37603153},{"NoteNumber":81,"Velocity":57,"Duration":101089,"SoundDuration":101089,"Delta":37703565},{"NoteNumber":78,"Velocity":48,"Duration":101089,"SoundDuration":101089,"Delta":37703565},{"NoteNumber":74,"Velocity":48,"Duration":523374,"SoundDuration":523374,"Delta":37703565},{"NoteNumber":82,"Velocity":45,"Duration":102252,"SoundDuration":102252,"Delta":37804655},{"NoteNumber":88,"Velocity":55,"Duration":102252,"SoundDuration":102252,"Delta":37804655},{"NoteNumber":79,"Velocity":53,"Duration":103531,"SoundDuration":103531,"Delta":37906907},{"NoteNumber":83,"Velocity":73,"Duration":103531,"SoundDuration":103531,"Delta":37906907},{"NoteNumber":84,"Velocity":52,"Duration":105641,"SoundDuration":105641,"Delta":38010439},{"NoteNumber":86,"Velocity":61,"Duration":105641,"SoundDuration":105641,"Delta":38010439},{"NoteNumber":81,"Velocity":60,"Duration":110858,"SoundDuration":110858,"Delta":38116081},{"NoteNumber":78,"Velocity":51,"Duration":110858,"SoundDuration":110858,"Delta":38116081},{"NoteNumber":74,"Velocity":51,"Duration":225175,"SoundDuration":225175,"Delta":38116081},{"NoteNumber":82,"Velocity":51,"Duration":114317,"SoundDuration":114317,"Delta":38226940},{"NoteNumber":88,"Velocity":61,"Duration":114317,"SoundDuration":114317,"Delta":38226940},{"NoteNumber":79,"Velocity":58,"Duration":256453,"SoundDuration":256453,"Delta":38341257},{"NoteNumber":83,"Velocity":91,"Duration":256453,"SoundDuration":256453,"Delta":38341257},{"NoteNumber":86,"Velocity":80,"Duration":118595,"SoundDuration":118595,"Delta":38597711},{"NoteNumber":83,"Velocity":68,"Duration":118595,"SoundDuration":118595,"Delta":38597711},{"NoteNumber":79,"Velocity":68,"Duration":118595,"SoundDuration":118595,"Delta":38597711},{"NoteNumber":74,"Velocity":68,"Duration":118595,"SoundDuration":118595,"Delta":38597711},{"NoteNumber":71,"Velocity":64,"Duration":118595,"SoundDuration":118595,"Delta":38597711},{"NoteNumber":62,"Velocity":54,"Duration":118595,"SoundDuration":118595,"Delta":38597711},{"NoteNumber":86,"Velocity":80,"Duration":117730,"SoundDuration":117730,"Delta":38834902},{"NoteNumber":83,"Velocity":68,"Duration":117730,"SoundDuration":117730,"Delta":38834902},{"NoteNumber":79,"Velocity":68,"Duration":117730,"SoundDuration":117730,"Delta":38834902},{"NoteNumber":74,"Velocity":68,"Duration":117730,"SoundDuration":117730,"Delta":38834902},{"NoteNumber":71,"Velocity":64,"Duration":117730,"SoundDuration":117730,"Delta":38834902},{"NoteNumber":67,"Velocity":54,"Duration":117730,"SoundDuration":117730,"Delta":38834902},{"NoteNumber":86,"Velocity":80,"Duration":117730,"SoundDuration":117730,"Delta":39070363},{"NoteNumber":83,"Velocity":68,"Duration":117730,"SoundDuration":117730,"Delta":39070363},{"NoteNumber":79,"Velocity":68,"Duration":117730,"SoundDuration":117730,"Delta":39070363},{"NoteNumber":74,"Velocity":68,"Duration":117730,"SoundDuration":117730,"Delta":39070363},{"NoteNumber":71,"Velocity":64,"Duration":117730,"SoundDuration":117730,"Delta":39070363},{"NoteNumber":79,"Velocity":77,"Duration":258821,"SoundDuration":258821,"Delta":39305823},{"NoteNumber":83,"Velocity":77,"Duration":258821,"SoundDuration":258821,"Delta":39305823},{"NoteNumber":86,"Velocity":91,"Duration":258821,"SoundDuration":258821,"Delta":39305823},{"NoteNumber":74,"Velocity":70,"Duration":258821,"SoundDuration":258821,"Delta":39305823},{"NoteNumber":83,"Velocity":77,"Duration":310848,"SoundDuration":310848,"Delta":39823466},{"NoteNumber":86,"Velocity":91,"Duration":310848,"SoundDuration":310848,"Delta":39823466},{"NoteNumber":79,"Velocity":70,"Duration":310848,"SoundDuration":310848,"Delta":39823466},{"NoteNumber":86,"Velocity":91,"Duration":1400711,"SoundDuration":1400711,"Delta":40445163},{"NoteNumber":83,"Velocity":76,"Duration":1400711,"SoundDuration":1400711,"Delta":40445163},{"NoteNumber":79,"Velocity":45,"Duration":99687,"SoundDuration":99687,"Delta":41845875},{"NoteNumber":83,"Velocity":54,"Duration":99687,"SoundDuration":99687,"Delta":41845875},{"NoteNumber":81,"Velocity":47,"Duration":98181,"SoundDuration":98181,"Delta":41945563},{"NoteNumber":84,"Velocity":56,"Duration":98181,"SoundDuration":98181,"Delta":41945563},{"NoteNumber":82,"Velocity":51,"Duration":96792,"SoundDuration":96792,"Delta":42043744},{"NoteNumber":85,"Velocity":60,"Duration":96792,"SoundDuration":96792,"Delta":42043744},{"NoteNumber":83,"Velocity":52,"Duration":95372,"SoundDuration":95372,"Delta":42140537},{"NoteNumber":86,"Velocity":62,"Duration":95372,"SoundDuration":95372,"Delta":42140537},{"NoteNumber":84,"Velocity":54,"Duration":125020,"SoundDuration":125020,"Delta":42235909},{"NoteNumber":87,"Velocity":54,"Duration":125020,"SoundDuration":125020,"Delta":42235909},{"NoteNumber":91,"Velocity":64,"Duration":125020,"SoundDuration":125020,"Delta":42235909},{"NoteNumber":74,"Velocity":36,"Duration":125020,"SoundDuration":125020,"Delta":42735992},{"NoteNumber":79,"Velocity":36,"Duration":125020,"SoundDuration":125020,"Delta":42735992},{"NoteNumber":83,"Velocity":43,"Duration":125020,"SoundDuration":125020,"Delta":42735992},{"NoteNumber":71,"Velocity":39,"Duration":125020,"SoundDuration":125020,"Delta":42735992},{"NoteNumber":67,"Velocity":33,"Duration":125020,"SoundDuration":125020,"Delta":42735992},{"NoteNumber":75,"Velocity":41,"Duration":472515,"SoundDuration":472515,"Delta":43293788},{"NoteNumber":80,"Velocity":41,"Duration":863864,"SoundDuration":863864,"Delta":43293788},{"NoteNumber":84,"Velocity":49,"Duration":863864,"SoundDuration":863864,"Delta":43293788},{"NoteNumber":72,"Velocity":47,"Duration":863864,"SoundDuration":863864,"Delta":43293788},{"NoteNumber":68,"Velocity":39,"Duration":863864,"SoundDuration":863864,"Delta":43293788},{"NoteNumber":65,"Velocity":39,"Duration":472515,"SoundDuration":472515,"Delta":43293788},{"NoteNumber":74,"Velocity":44,"Duration":100003,"SoundDuration":100003,"Delta":43766303},{"NoteNumber":62,"Velocity":39,"Duration":100003,"SoundDuration":100003,"Delta":43766303},{"NoteNumber":75,"Velocity":48,"Duration":98325,"SoundDuration":98325,"Delta":43866306},{"NoteNumber":63,"Velocity":40,"Duration":98325,"SoundDuration":98325,"Delta":43866306},{"NoteNumber":77,"Velocity":52,"Duration":97105,"SoundDuration":97105,"Delta":43964632},{"NoteNumber":65,"Velocity":41,"Duration":97105,"SoundDuration":97105,"Delta":43964632},{"NoteNumber":78,"Velocity":54,"Duration":95915,"SoundDuration":95915,"Delta":44061737},{"NoteNumber":66,"Velocity":42,"Duration":95915,"SoundDuration":95915,"Delta":44061737},{"NoteNumber":79,"Velocity":47,"Duration":124501,"SoundDuration":124501,"Delta":44157653},{"NoteNumber":74,"Velocity":47,"Duration":124501,"SoundDuration":124501,"Delta":44157653},{"NoteNumber":82,"Velocity":56,"Duration":124501,"SoundDuration":124501,"Delta":44157653},{"NoteNumber":67,"Velocity":37,"Duration":124501,"SoundDuration":124501,"Delta":44157653},{"NoteNumber":70,"Velocity":44,"Duration":124501,"SoundDuration":124501,"Delta":44157653},{"NoteNumber":70,"Velocity":42,"Duration":144258,"SoundDuration":144258,"Delta":44655661},{"NoteNumber":75,"Velocity":42,"Duration":144258,"SoundDuration":144258,"Delta":44655661},{"NoteNumber":79,"Velocity":50,"Duration":144258,"SoundDuration":144258,"Delta":44655661},{"NoteNumber":67,"Velocity":41,"Duration":144258,"SoundDuration":144258,"Delta":44655661},{"NoteNumber":63,"Velocity":34,"Duration":144258,"SoundDuration":144258,"Delta":44655661},{"NoteNumber":58,"Velocity":34,"Duration":144258,"SoundDuration":144258,"Delta":44655661},{"NoteNumber":67,"Velocity":42,"Duration":255362,"SoundDuration":255362,"Delta":45232695},{"NoteNumber":72,"Velocity":42,"Duration":255362,"SoundDuration":255362,"Delta":45232695},{"NoteNumber":75,"Velocity":50,"Duration":255362,"SoundDuration":255362,"Delta":45232695},{"NoteNumber":60,"Velocity":34,"Duration":255362,"SoundDuration":255362,"Delta":45232695},{"NoteNumber":63,"Velocity":41,"Duration":255362,"SoundDuration":255362,"Delta":45232695},{"NoteNumber":65,"Velocity":42,"Duration":113653,"SoundDuration":113653,"Delta":45743420},{"NoteNumber":68,"Velocity":50,"Duration":113653,"SoundDuration":113653,"Delta":45743420},{"NoteNumber":60,"Velocity":42,"Duration":113653,"SoundDuration":113653,"Delta":45743420},{"NoteNumber":56,"Velocity":42,"Duration":113653,"SoundDuration":113653,"Delta":45743420},{"NoteNumber":70,"Velocity":56,"Duration":121477,"SoundDuration":121477,"Delta":45970727},{"NoteNumber":67,"Velocity":47,"Duration":121477,"SoundDuration":121477,"Delta":45970727},{"NoteNumber":62,"Velocity":47,"Duration":121477,"SoundDuration":121477,"Delta":45970727},{"NoteNumber":55,"Velocity":40,"Duration":121477,"SoundDuration":121477,"Delta":45970727},{"NoteNumber":58,"Velocity":48,"Duration":121477,"SoundDuration":121477,"Delta":45970727},{"NoteNumber":72,"Velocity":63,"Duration":900539,"SoundDuration":900539,"Delta":46213681},{"NoteNumber":68,"Velocity":53,"Duration":900539,"SoundDuration":900539,"Delta":46213681},{"NoteNumber":63,"Velocity":53,"Duration":684681,"SoundDuration":684681,"Delta":46213681},{"NoteNumber":53,"Velocity":45,"Duration":900539,"SoundDuration":900539,"Delta":46213681},{"NoteNumber":56,"Velocity":45,"Duration":900539,"SoundDuration":900539,"Delta":46213681},{"NoteNumber":60,"Velocity":54,"Duration":900539,"SoundDuration":900539,"Delta":46213681},{"NoteNumber":62,"Velocity":46,"Duration":107929,"SoundDuration":107929,"Delta":46682504},{"NoteNumber":50,"Velocity":33,"Duration":107929,"SoundDuration":107929,"Delta":46682504},{"NoteNumber":63,"Velocity":47,"Duration":323787,"SoundDuration":323787,"Delta":46790434},{"NoteNumber":51,"Velocity":37,"Duration":107929,"SoundDuration":107929,"Delta":46790434},{"NoteNumber":64,"Velocity":48,"Duration":107929,"SoundDuration":107929,"Delta":46898363},{"NoteNumber":52,"Velocity":39,"Duration":107929,"SoundDuration":107929,"Delta":46898363},{"NoteNumber":65,"Velocity":52,"Duration":107929,"SoundDuration":107929,"Delta":47006292},{"NoteNumber":53,"Velocity":44,"Duration":107929,"SoundDuration":107929,"Delta":47006292},{"NoteNumber":66,"Velocity":55,"Duration":470661,"SoundDuration":470661,"Delta":47114221},{"NoteNumber":54,"Velocity":46,"Duration":470661,"SoundDuration":470661,"Delta":47114221},{"NoteNumber":62,"Velocity":42,"Duration":976027,"SoundDuration":976027,"Delta":47584883},{"NoteNumber":67,"Velocity":42,"Duration":976027,"SoundDuration":976027,"Delta":47584883},{"NoteNumber":70,"Velocity":50,"Duration":976027,"SoundDuration":976027,"Delta":47584883},{"NoteNumber":58,"Velocity":41,"Duration":976027,"SoundDuration":976027,"Delta":47584883},{"NoteNumber":55,"Velocity":34,"Duration":120019,"SoundDuration":120019,"Delta":47584883},{"NoteNumber":50,"Velocity":33,"Duration":123987,"SoundDuration":123987,"Delta":48064960},{"NoteNumber":67,"Velocity":33,"Duration":123987,"SoundDuration":123987,"Delta":48560910},{"NoteNumber":61,"Velocity":28,"Duration":123987,"SoundDuration":123987,"Delta":48560910},{"NoteNumber":58,"Velocity":28,"Duration":123987,"SoundDuration":123987,"Delta":48560910},{"NoteNumber":55,"Velocity":31,"Duration":123987,"SoundDuration":123987,"Delta":48560910},{"NoteNumber":51,"Velocity":26,"Duration":123987,"SoundDuration":123987,"Delta":48560910},{"NoteNumber":72,"Velocity":43,"Duration":1066856,"SoundDuration":1066856,"Delta":49084969},{"NoteNumber":68,"Velocity":36,"Duration":1066856,"SoundDuration":1066856,"Delta":49084969},{"NoteNumber":63,"Velocity":36,"Duration":1066856,"SoundDuration":1066856,"Delta":49084969},{"NoteNumber":60,"Velocity":36,"Duration":1066856,"SoundDuration":1066856,"Delta":49084969},{"NoteNumber":56,"Velocity":41,"Duration":1066856,"SoundDuration":1066856,"Delta":49084969},{"NoteNumber":51,"Velocity":34,"Duration":1066856,"SoundDuration":1066856,"Delta":49084969},{"NoteNumber":44,"Velocity":34,"Duration":1066856,"SoundDuration":1066856,"Delta":49084969},{"NoteNumber":67,"Velocity":33,"Duration":1066856,"SoundDuration":1066856,"Delta":50151825},{"NoteNumber":60,"Velocity":28,"Duration":1066856,"SoundDuration":1066856,"Delta":50151825},{"NoteNumber":55,"Velocity":28,"Duration":1066856,"SoundDuration":1066856,"Delta":50151825},{"NoteNumber":52,"Velocity":32,"Duration":1066856,"SoundDuration":1066856,"Delta":50151825},{"NoteNumber":48,"Velocity":27,"Duration":1066856,"SoundDuration":1066856,"Delta":50151825},{"NoteNumber":40,"Velocity":27,"Duration":1066856,"SoundDuration":1066856,"Delta":50151825},{"NoteNumber":72,"Velocity":40,"Duration":800142,"SoundDuration":800142,"Delta":51218681},{"NoteNumber":68,"Velocity":34,"Duration":800142,"SoundDuration":800142,"Delta":51218681},{"NoteNumber":63,"Velocity":34,"Duration":800142,"SoundDuration":800142,"Delta":51218681},{"NoteNumber":60,"Velocity":34,"Duration":800142,"SoundDuration":800142,"Delta":51218681},{"NoteNumber":56,"Velocity":37,"Duration":800142,"SoundDuration":800142,"Delta":51218681},{"NoteNumber":51,"Velocity":31,"Duration":800142,"SoundDuration":800142,"Delta":51218681},{"NoteNumber":44,"Velocity":31,"Duration":800142,"SoundDuration":800142,"Delta":51218681},{"NoteNumber":39,"Velocity":34,"Duration":115847,"SoundDuration":115847,"Delta":52018823},{"NoteNumber":51,"Velocity":40,"Duration":115847,"SoundDuration":115847,"Delta":52018823},{"NoteNumber":36,"Velocity":41,"Duration":115847,"SoundDuration":115847,"Delta":52134671},{"NoteNumber":48,"Velocity":49,"Duration":115847,"SoundDuration":115847,"Delta":52134671},{"NoteNumber":32,"Velocity":34,"Duration":126603,"SoundDuration":126603,"Delta":52250519},{"NoteNumber":44,"Velocity":40,"Duration":126603,"SoundDuration":126603,"Delta":52250519},{"NoteNumber":44,"Velocity":42,"Duration":126603,"SoundDuration":126603,"Delta":52503726},{"NoteNumber":32,"Velocity":35,"Duration":126603,"SoundDuration":126603,"Delta":52503726},{"NoteNumber":32,"Velocity":34,"Duration":126603,"SoundDuration":126603,"Delta":52756934},{"NoteNumber":44,"Velocity":41,"Duration":126603,"SoundDuration":126603,"Delta":52756934},{"NoteNumber":51,"Velocity":34,"Duration":229920,"SoundDuration":229920,"Delta":53009609},{"NoteNumber":63,"Velocity":41,"Duration":229920,"SoundDuration":229920,"Delta":53009609},{"NoteNumber":56,"Velocity":41,"Duration":114960,"SoundDuration":114960,"Delta":53009609},{"NoteNumber":41,"Velocity":41,"Duration":114960,"SoundDuration":114960,"Delta":53009609},{"NoteNumber":58,"Velocity":48,"Duration":114960,"SoundDuration":114960,"Delta":53124569},{"NoteNumber":43,"Velocity":33,"Duration":114960,"SoundDuration":114960,"Delta":53124569},{"NoteNumber":63,"Velocity":49,"Duration":126592,"SoundDuration":126592,"Delta":53239530},{"NoteNumber":60,"Velocity":41,"Duration":126592,"SoundDuration":126592,"Delta":53239530},{"NoteNumber":51,"Velocity":41,"Duration":126592,"SoundDuration":126592,"Delta":53239530},{"NoteNumber":36,"Velocity":34,"Duration":126592,"SoundDuration":126592,"Delta":53239530},{"NoteNumber":44,"Velocity":41,"Duration":126592,"SoundDuration":126592,"Delta":53239530},{"NoteNumber":56,"Velocity":34,"Duration":121477,"SoundDuration":121477,"Delta":53492716},{"NoteNumber":68,"Velocity":41,"Duration":121477,"SoundDuration":121477,"Delta":53492716},{"NoteNumber":65,"Velocity":34,"Duration":121477,"SoundDuration":121477,"Delta":53492716},{"NoteNumber":46,"Velocity":34,"Duration":121477,"SoundDuration":121477,"Delta":53492716},{"NoteNumber":38,"Velocity":28,"Duration":121477,"SoundDuration":121477,"Delta":53492716},{"NoteNumber":68,"Velocity":45,"Duration":121477,"SoundDuration":121477,"Delta":53735670},{"NoteNumber":63,"Velocity":38,"Duration":121477,"SoundDuration":121477,"Delta":53735670},{"NoteNumber":56,"Velocity":38,"Duration":121477,"SoundDuration":121477,"Delta":53735670},{"NoteNumber":39,"Velocity":34,"Duration":121477,"SoundDuration":121477,"Delta":53735670},{"NoteNumber":48,"Velocity":41,"Duration":121477,"SoundDuration":121477,"Delta":53735670},{"NoteNumber":60,"Velocity":34,"Duration":144955,"SoundDuration":144955,"Delta":53978625},{"NoteNumber":68,"Velocity":34,"Duration":144955,"SoundDuration":144955,"Delta":53978625},{"NoteNumber":72,"Velocity":41,"Duration":144955,"SoundDuration":144955,"Delta":53978625},{"NoteNumber":50,"Velocity":34,"Duration":144955,"SoundDuration":144955,"Delta":53978625},{"NoteNumber":41,"Velocity":28,"Duration":144955,"SoundDuration":144955,"Delta":53978625},{"NoteNumber":60,"Velocity":42,"Duration":247974,"SoundDuration":247974,"Delta":54268536},{"NoteNumber":68,"Velocity":42,"Duration":743924,"SoundDuration":743924,"Delta":54268536},{"NoteNumber":72,"Velocity":50,"Duration":743924,"SoundDuration":743924,"Delta":54268536},{"NoteNumber":44,"Velocity":34,"Duration":247974,"SoundDuration":247974,"Delta":54268536},{"NoteNumber":51,"Velocity":41,"Duration":247974,"SoundDuration":247974,"Delta":54268536},{"NoteNumber":60,"Velocity":24,"Duration":123987,"SoundDuration":123987,"Delta":54516511},{"NoteNumber":62,"Velocity":29,"Duration":123987,"SoundDuration":123987,"Delta":54516511},{"NoteNumber":53,"Velocity":34,"Duration":123987,"SoundDuration":123987,"Delta":54516511},{"NoteNumber":48,"Velocity":28,"Duration":123987,"SoundDuration":123987,"Delta":54516511},{"NoteNumber":55,"Velocity":29,"Duration":123987,"SoundDuration":123987,"Delta":54640498},{"NoteNumber":60,"Velocity":24,"Duration":123987,"SoundDuration":123987,"Delta":54764486},{"NoteNumber":62,"Velocity":29,"Duration":123987,"SoundDuration":123987,"Delta":54764486},{"NoteNumber":56,"Velocity":38,"Duration":123987,"SoundDuration":123987,"Delta":54764486},{"NoteNumber":53,"Velocity":32,"Duration":123987,"SoundDuration":123987,"Delta":54764486},{"NoteNumber":51,"Velocity":37,"Duration":232593,"SoundDuration":232593,"Delta":55012461},{"NoteNumber":63,"Velocity":45,"Duration":232593,"SoundDuration":232593,"Delta":55012461},{"NoteNumber":56,"Velocity":45,"Duration":116297,"SoundDuration":116297,"Delta":55012461},{"NoteNumber":41,"Velocity":45,"Duration":116297,"SoundDuration":116297,"Delta":55012461},{"NoteNumber":58,"Velocity":52,"Duration":116296,"SoundDuration":116296,"Delta":55128758},{"NoteNumber":43,"Velocity":36,"Duration":116296,"SoundDuration":116296,"Delta":55128758},{"NoteNumber":63,"Velocity":53,"Duration":123466,"SoundDuration":123466,"Delta":55245055},{"NoteNumber":60,"Velocity":45,"Duration":123466,"SoundDuration":123466,"Delta":55245055},{"NoteNumber":51,"Velocity":45,"Duration":123466,"SoundDuration":123466,"Delta":55245055},{"NoteNumber":36,"Velocity":37,"Duration":123466,"SoundDuration":123466,"Delta":55245055},{"NoteNumber":44,"Velocity":45,"Duration":123466,"SoundDuration":123466,"Delta":55245055},{"NoteNumber":56,"Velocity":37,"Duration":120987,"SoundDuration":120987,"Delta":55491989},{"NoteNumber":68,"Velocity":45,"Duration":120987,"SoundDuration":120987,"Delta":55491989},{"NoteNumber":65,"Velocity":37,"Duration":120987,"SoundDuration":120987,"Delta":55491989},{"NoteNumber":46,"Velocity":37,"Duration":120987,"SoundDuration":120987,"Delta":55491989},{"NoteNumber":38,"Velocity":30,"Duration":120987,"SoundDuration":120987,"Delta":55491989},{"NoteNumber":68,"Velocity":49,"Duration":120019,"SoundDuration":120019,"Delta":55732995},{"NoteNumber":63,"Velocity":41,"Duration":120019,"SoundDuration":120019,"Delta":55732995},{"NoteNumber":56,"Velocity":41,"Duration":120019,"SoundDuration":120019,"Delta":55732995},{"NoteNumber":39,"Velocity":37,"Duration":120019,"SoundDuration":120019,"Delta":55732995},{"NoteNumber":48,"Velocity":45,"Duration":120019,"SoundDuration":120019,"Delta":55732995},{"NoteNumber":60,"Velocity":37,"Duration":132755,"SoundDuration":132755,"Delta":55973034},{"NoteNumber":68,"Velocity":37,"Duration":132755,"SoundDuration":132755,"Delta":55973034},{"NoteNumber":72,"Velocity":45,"Duration":132755,"SoundDuration":132755,"Delta":55973034},{"NoteNumber":50,"Velocity":37,"Duration":132755,"SoundDuration":132755,"Delta":55973034},{"NoteNumber":41,"Velocity":30,"Duration":132755,"SoundDuration":132755,"Delta":55973034},{"NoteNumber":60,"Velocity":46,"Duration":247974,"SoundDuration":247974,"Delta":56238544},{"NoteNumber":68,"Velocity":46,"Duration":743924,"SoundDuration":743924,"Delta":56238544},{"NoteNumber":72,"Velocity":55,"Duration":743924,"SoundDuration":743924,"Delta":56238544},{"NoteNumber":44,"Velocity":37,"Duration":247974,"SoundDuration":247974,"Delta":56238544},{"NoteNumber":51,"Velocity":45,"Duration":247974,"SoundDuration":247974,"Delta":56238544},{"NoteNumber":60,"Velocity":26,"Duration":123987,"SoundDuration":123987,"Delta":56486519},{"NoteNumber":62,"Velocity":31,"Duration":123987,"SoundDuration":123987,"Delta":56486519},{"NoteNumber":53,"Velocity":37,"Duration":123987,"SoundDuration":123987,"Delta":56486519},{"NoteNumber":48,"Velocity":30,"Duration":123987,"SoundDuration":123987,"Delta":56486519},{"NoteNumber":55,"Velocity":31,"Duration":123987,"SoundDuration":123987,"Delta":56610506},{"NoteNumber":60,"Velocity":26,"Duration":123987,"SoundDuration":123987,"Delta":56734494},{"NoteNumber":62,"Velocity":31,"Duration":123987,"SoundDuration":123987,"Delta":56734494},{"NoteNumber":56,"Velocity":41,"Duration":123987,"SoundDuration":123987,"Delta":56734494},{"NoteNumber":53,"Velocity":35,"Duration":123987,"SoundDuration":123987,"Delta":56734494},{"NoteNumber":68,"Velocity":56,"Duration":123987,"SoundDuration":123987,"Delta":56982469},{"NoteNumber":74,"Velocity":56,"Duration":123987,"SoundDuration":123987,"Delta":56982469},{"NoteNumber":62,"Velocity":54,"Duration":123987,"SoundDuration":123987,"Delta":56982469},{"NoteNumber":53,"Velocity":54,"Duration":123987,"SoundDuration":123987,"Delta":56982469},{"NoteNumber":70,"Velocity":59,"Duration":123987,"SoundDuration":123987,"Delta":57106456},{"NoteNumber":56,"Velocity":48,"Duration":123987,"SoundDuration":123987,"Delta":57106456},{"NoteNumber":75,"Velocity":62,"Duration":722623,"SoundDuration":722623,"Delta":57230444},{"NoteNumber":72,"Velocity":62,"Duration":355753,"SoundDuration":355753,"Delta":57230444},{"NoteNumber":63,"Velocity":57,"Duration":722623,"SoundDuration":722623,"Delta":57230444},{"NoteNumber":60,"Velocity":57,"Duration":722623,"SoundDuration":722623,"Delta":57230444},{"NoteNumber":84,"Velocity":67,"Duration":112799,"SoundDuration":112799,"Delta":57473398},{"NoteNumber":72,"Velocity":57,"Duration":479669,"SoundDuration":479669,"Delta":57473398},{"NoteNumber":79,"Velocity":63,"Duration":112798,"SoundDuration":112798,"Delta":57586197},{"NoteNumber":67,"Velocity":51,"Duration":112798,"SoundDuration":112798,"Delta":57586197},{"NoteNumber":77,"Velocity":70,"Duration":254071,"SoundDuration":254071,"Delta":57698996},{"NoteNumber":65,"Velocity":57,"Duration":122469,"SoundDuration":122469,"Delta":57698996},{"NoteNumber":68,"Velocity":56,"Duration":131602,"SoundDuration":131602,"Delta":57953067},{"NoteNumber":74,"Velocity":56,"Duration":254071,"SoundDuration":254071,"Delta":57953067},{"NoteNumber":62,"Velocity":52,"Duration":254071,"SoundDuration":254071,"Delta":57953067},{"NoteNumber":53,"Velocity":54,"Duration":131602,"SoundDuration":131602,"Delta":57953067},{"NoteNumber":70,"Velocity":59,"Duration":122469,"SoundDuration":122469,"Delta":58084669},{"NoteNumber":56,"Velocity":48,"Duration":122469,"SoundDuration":122469,"Delta":58084669},{"NoteNumber":75,"Velocity":62,"Duration":708710,"SoundDuration":708710,"Delta":58207138},{"NoteNumber":72,"Velocity":62,"Duration":355331,"SoundDuration":355331,"Delta":58207138},{"NoteNumber":63,"Velocity":57,"Duration":708710,"SoundDuration":708710,"Delta":58207138},{"NoteNumber":60,"Velocity":57,"Duration":708710,"SoundDuration":708710,"Delta":58207138},{"NoteNumber":84,"Velocity":67,"Duration":112376,"SoundDuration":112376,"Delta":58450093},{"NoteNumber":72,"Velocity":57,"Duration":465755,"SoundDuration":465755,"Delta":58450093},{"NoteNumber":79,"Velocity":63,"Duration":112376,"SoundDuration":112376,"Delta":58562469},{"NoteNumber":67,"Velocity":51,"Duration":112376,"SoundDuration":112376,"Delta":58562469},{"NoteNumber":77,"Velocity":70,"Duration":241002,"SoundDuration":241002,"Delta":58674846},{"NoteNumber":65,"Velocity":57,"Duration":120501,"SoundDuration":120501,"Delta":58674846},{"NoteNumber":68,"Velocity":56,"Duration":120501,"SoundDuration":120501,"Delta":58915848},{"NoteNumber":74,"Velocity":56,"Duration":241002,"SoundDuration":241002,"Delta":58915848},{"NoteNumber":62,"Velocity":54,"Duration":241002,"SoundDuration":241002,"Delta":58915848},{"NoteNumber":53,"Velocity":54,"Duration":120501,"SoundDuration":120501,"Delta":58915848},{"NoteNumber":70,"Velocity":59,"Duration":120501,"SoundDuration":120501,"Delta":59036349},{"NoteNumber":56,"Velocity":48,"Duration":120501,"SoundDuration":120501,"Delta":59036349},{"NoteNumber":75,"Velocity":62,"Duration":748910,"SoundDuration":748910,"Delta":59156851},{"NoteNumber":72,"Velocity":62,"Duration":256453,"SoundDuration":256453,"Delta":59156851},{"NoteNumber":63,"Velocity":57,"Duration":256453,"SoundDuration":256453,"Delta":59156851},{"NoteNumber":60,"Velocity":57,"Duration":256453,"SoundDuration":256453,"Delta":59156851},{"NoteNumber":80,"Velocity":62,"Duration":249947,"SoundDuration":249947,"Delta":59413305},{"NoteNumber":84,"Velocity":62,"Duration":249947,"SoundDuration":249947,"Delta":59413305},{"NoteNumber":72,"Velocity":62,"Duration":249947,"SoundDuration":249947,"Delta":59413305},{"NoteNumber":51,"Velocity":40,"Duration":128227,"SoundDuration":128227,"Delta":59413305},{"NoteNumber":56,"Velocity":42,"Duration":121720,"SoundDuration":121720,"Delta":59541532},{"NoteNumber":72,"Velocity":65,"Duration":242509,"SoundDuration":242509,"Delta":59663252},{"NoteNumber":80,"Velocity":65,"Duration":242509,"SoundDuration":242509,"Delta":59663252},{"NoteNumber":84,"Velocity":65,"Duration":242509,"SoundDuration":242509,"Delta":59663252},{"NoteNumber":60,"Velocity":42,"Duration":121477,"SoundDuration":121477,"Delta":59663252},{"NoteNumber":63,"Velocity":42,"Duration":121032,"SoundDuration":121032,"Delta":59784729},{"NoteNumber":85,"Velocity":66,"Duration":241092,"SoundDuration":241092,"Delta":59905761},{"NoteNumber":84,"Velocity":66,"Duration":241092,"SoundDuration":241092,"Delta":59905761},{"NoteNumber":80,"Velocity":66,"Duration":241092,"SoundDuration":241092,"Delta":59905761},{"NoteNumber":73,"Velocity":66,"Duration":241092,"SoundDuration":241092,"Delta":59905761},{"NoteNumber":65,"Velocity":46,"Duration":120707,"SoundDuration":120707,"Delta":59905761},{"NoteNumber":67,"Velocity":47,"Duration":120384,"SoundDuration":120384,"Delta":60026469},{"NoteNumber":85,"Velocity":70,"Duration":239604,"SoundDuration":239604,"Delta":60146854},{"NoteNumber":84,"Velocity":70,"Duration":239604,"SoundDuration":239604,"Delta":60146854},{"NoteNumber":80,"Velocity":70,"Duration":239604,"SoundDuration":239604,"Delta":60146854},{"NoteNumber":73,"Velocity":70,"Duration":239604,"SoundDuration":239604,"Delta":60146854},{"NoteNumber":68,"Velocity":51,"Duration":120019,"SoundDuration":120019,"Delta":60146854},{"NoteNumber":70,"Velocity":51,"Duration":119584,"SoundDuration":119584,"Delta":60266873},{"NoteNumber":86,"Velocity":72,"Duration":238461,"SoundDuration":238461,"Delta":60386458},{"NoteNumber":84,"Velocity":72,"Duration":238461,"SoundDuration":238461,"Delta":60386458},{"NoteNumber":80,"Velocity":72,"Duration":238461,"SoundDuration":238461,"Delta":60386458},{"NoteNumber":74,"Velocity":72,"Duration":238461,"SoundDuration":238461,"Delta":60386458},{"NoteNumber":72,"Velocity":54,"Duration":119394,"SoundDuration":119394,"Delta":60386458},{"NoteNumber":75,"Velocity":55,"Duration":119066,"SoundDuration":119066,"Delta":60505852},{"NoteNumber":86,"Velocity":77,"Duration":237203,"SoundDuration":237203,"Delta":60624919},{"NoteNumber":84,"Velocity":77,"Duration":237203,"SoundDuration":237203,"Delta":60624919},{"NoteNumber":80,"Velocity":77,"Duration":237203,"SoundDuration":237203,"Delta":60624919},{"NoteNumber":77,"Velocity":55,"Duration":118607,"SoundDuration":118607,"Delta":60624919},{"NoteNumber":79,"Velocity":55,"Duration":118595,"SoundDuration":118595,"Delta":60743526},{"NoteNumber":87,"Velocity":79,"Duration":249639,"SoundDuration":249639,"Delta":60862122},{"NoteNumber":84,"Velocity":79,"Duration":249639,"SoundDuration":249639,"Delta":60862122},{"NoteNumber":80,"Velocity":57,"Duration":118595,"SoundDuration":118595,"Delta":60862122},{"NoteNumber":82,"Velocity":62,"Duration":131043,"SoundDuration":131043,"Delta":60980718},{"NoteNumber":87,"Velocity":97,"Duration":250041,"SoundDuration":250041,"Delta":61111762},{"NoteNumber":84,"Velocity":66,"Duration":250041,"SoundDuration":250041,"Delta":61111762},{"NoteNumber":63,"Velocity":77,"Duration":361503,"SoundDuration":361503,"Delta":61611845},{"NoteNumber":72,"Velocity":77,"Duration":361503,"SoundDuration":361503,"Delta":61611845},{"NoteNumber":67,"Velocity":77,"Duration":361503,"SoundDuration":361503,"Delta":61611845},{"NoteNumber":75,"Velocity":90,"Duration":361503,"SoundDuration":361503,"Delta":61611845},{"NoteNumber":60,"Velocity":63,"Duration":361503,"SoundDuration":361503,"Delta":61611845},{"NoteNumber":55,"Velocity":52,"Duration":361503,"SoundDuration":361503,"Delta":61611845},{"NoteNumber":51,"Velocity":52,"Duration":361503,"SoundDuration":361503,"Delta":61611845},{"NoteNumber":48,"Velocity":52,"Duration":361503,"SoundDuration":361503,"Delta":61611845},{"NoteNumber":63,"Velocity":97,"Duration":472515,"SoundDuration":472515,"Delta":62093850},{"NoteNumber":51,"Velocity":74,"Duration":472515,"SoundDuration":472515,"Delta":62093850},{"NoteNumber":59,"Velocity":71,"Duration":512908,"SoundDuration":512908,"Delta":62566365},{"NoteNumber":63,"Velocity":71,"Duration":512908,"SoundDuration":512908,"Delta":62566365},{"NoteNumber":67,"Velocity":71,"Duration":512908,"SoundDuration":512908,"Delta":62566365},{"NoteNumber":71,"Velocity":85,"Duration":512908,"SoundDuration":512908,"Delta":62566365},{"NoteNumber":43,"Velocity":54,"Duration":512908,"SoundDuration":512908,"Delta":62566365},{"NoteNumber":47,"Velocity":54,"Duration":512908,"SoundDuration":512908,"Delta":62566365},{"NoteNumber":51,"Velocity":54,"Duration":512908,"SoundDuration":512908,"Delta":62566365},{"NoteNumber":55,"Velocity":64,"Duration":512908,"SoundDuration":512908,"Delta":62566365},{"NoteNumber":51,"Velocity":83,"Duration":476266,"SoundDuration":476266,"Delta":63079273},{"NoteNumber":39,"Velocity":71,"Duration":714399,"SoundDuration":714399,"Delta":63079273},{"NoteNumber":75,"Velocity":76,"Duration":469829,"SoundDuration":469829,"Delta":63555539},{"NoteNumber":72,"Velocity":64,"Duration":469829,"SoundDuration":469829,"Delta":63555539},{"NoteNumber":67,"Velocity":64,"Duration":469829,"SoundDuration":469829,"Delta":63555539},{"NoteNumber":63,"Velocity":64,"Duration":469829,"SoundDuration":469829,"Delta":63555539},{"NoteNumber":60,"Velocity":76,"Duration":469829,"SoundDuration":469829,"Delta":63555539},{"NoteNumber":55,"Velocity":64,"Duration":353980,"SoundDuration":353980,"Delta":63555539},{"NoteNumber":51,"Velocity":64,"Duration":469829,"SoundDuration":469829,"Delta":63555539},{"NoteNumber":48,"Velocity":64,"Duration":469829,"SoundDuration":469829,"Delta":63555539},{"NoteNumber":43,"Velocity":44,"Duration":115847,"SoundDuration":115847,"Delta":63793672},{"NoteNumber":55,"Velocity":52,"Duration":231696,"SoundDuration":231696,"Delta":63793672},{"NoteNumber":39,"Velocity":53,"Duration":115848,"SoundDuration":115848,"Delta":63909520},{"NoteNumber":51,"Velocity":63,"Duration":115848,"SoundDuration":115848,"Delta":63909520},{"NoteNumber":36,"Velocity":44,"Duration":126603,"SoundDuration":126603,"Delta":64025368},{"NoteNumber":48,"Velocity":52,"Duration":126603,"SoundDuration":126603,"Delta":64025368},{"NoteNumber":48,"Velocity":54,"Duration":126603,"SoundDuration":126603,"Delta":64278575},{"NoteNumber":36,"Velocity":45,"Duration":126603,"SoundDuration":126603,"Delta":64278575},{"NoteNumber":36,"Velocity":44,"Duration":126603,"SoundDuration":126603,"Delta":64531783},{"NoteNumber":48,"Velocity":53,"Duration":126603,"SoundDuration":126603,"Delta":64531783},{"NoteNumber":55,"Velocity":34,"Duration":229920,"SoundDuration":229920,"Delta":64784458},{"NoteNumber":67,"Velocity":41,"Duration":229920,"SoundDuration":229920,"Delta":64784458},{"NoteNumber":60,"Velocity":41,"Duration":114960,"SoundDuration":114960,"Delta":64784458},{"NoteNumber":45,"Velocity":41,"Duration":114960,"SoundDuration":114960,"Delta":64784458},{"NoteNumber":62,"Velocity":48,"Duration":114960,"SoundDuration":114960,"Delta":64899418},{"NoteNumber":47,"Velocity":33,"Duration":114960,"SoundDuration":114960,"Delta":64899418},{"NoteNumber":67,"Velocity":49,"Duration":121961,"SoundDuration":121961,"Delta":65014378},{"NoteNumber":63,"Velocity":41,"Duration":121961,"SoundDuration":121961,"Delta":65014378},{"NoteNumber":55,"Velocity":41,"Duration":121961,"SoundDuration":121961,"Delta":65014378},{"NoteNumber":39,"Velocity":34,"Duration":121961,"SoundDuration":121961,"Delta":65014378},{"NoteNumber":48,"Velocity":41,"Duration":121961,"SoundDuration":121961,"Delta":65014378},{"NoteNumber":60,"Velocity":34,"Duration":118595,"SoundDuration":118595,"Delta":65258301},{"NoteNumber":72,"Velocity":41,"Duration":118595,"SoundDuration":118595,"Delta":65258301},{"NoteNumber":66,"Velocity":34,"Duration":118595,"SoundDuration":118595,"Delta":65258301},{"NoteNumber":50,"Velocity":34,"Duration":118595,"SoundDuration":118595,"Delta":65258301},{"NoteNumber":41,"Velocity":28,"Duration":118595,"SoundDuration":118595,"Delta":65258301},{"NoteNumber":72,"Velocity":45,"Duration":119066,"SoundDuration":119066,"Delta":65495963},{"NoteNumber":67,"Velocity":38,"Duration":119066,"SoundDuration":119066,"Delta":65495963},{"NoteNumber":60,"Velocity":38,"Duration":119066,"SoundDuration":119066,"Delta":65495963},{"NoteNumber":43,"Velocity":34,"Duration":119066,"SoundDuration":119066,"Delta":65495963},{"NoteNumber":51,"Velocity":41,"Duration":119066,"SoundDuration":119066,"Delta":65495963},{"NoteNumber":63,"Velocity":34,"Duration":144258,"SoundDuration":144258,"Delta":65734096},{"NoteNumber":72,"Velocity":34,"Duration":144258,"SoundDuration":144258,"Delta":65734096},{"NoteNumber":75,"Velocity":41,"Duration":144258,"SoundDuration":144258,"Delta":65734096},{"NoteNumber":54,"Velocity":34,"Duration":144258,"SoundDuration":144258,"Delta":65734096},{"NoteNumber":48,"Velocity":28,"Duration":144258,"SoundDuration":144258,"Delta":65734096},{"NoteNumber":63,"Velocity":42,"Duration":247974,"SoundDuration":247974,"Delta":66022613},{"NoteNumber":72,"Velocity":42,"Duration":743925,"SoundDuration":743925,"Delta":66022613},{"NoteNumber":75,"Velocity":50,"Duration":743925,"SoundDuration":743925,"Delta":66022613},{"NoteNumber":48,"Velocity":34,"Duration":247974,"SoundDuration":247974,"Delta":66022613},{"NoteNumber":55,"Velocity":41,"Duration":247974,"SoundDuration":247974,"Delta":66022613},{"NoteNumber":63,"Velocity":24,"Duration":123987,"SoundDuration":123987,"Delta":66270588},{"NoteNumber":65,"Velocity":29,"Duration":123987,"SoundDuration":123987,"Delta":66270588},{"NoteNumber":59,"Velocity":34,"Duration":123987,"SoundDuration":123987,"Delta":66270588},{"NoteNumber":51,"Velocity":28,"Duration":123987,"SoundDuration":123987,"Delta":66270588},{"NoteNumber":55,"Velocity":29,"Duration":123987,"SoundDuration":123987,"Delta":66394576},{"NoteNumber":63,"Velocity":24,"Duration":123987,"SoundDuration":123987,"Delta":66518563},{"NoteNumber":65,"Velocity":29,"Duration":123987,"SoundDuration":123987,"Delta":66518563},{"NoteNumber":59,"Velocity":38,"Duration":123987,"SoundDuration":123987,"Delta":66518563},{"NoteNumber":56,"Velocity":32,"Duration":123987,"SoundDuration":123987,"Delta":66518563},{"NoteNumber":54,"Velocity":40,"Duration":232594,"SoundDuration":232594,"Delta":66766538},{"NoteNumber":66,"Velocity":49,"Duration":232594,"SoundDuration":232594,"Delta":66766538},{"NoteNumber":59,"Velocity":49,"Duration":116297,"SoundDuration":116297,"Delta":66766538},{"NoteNumber":39,"Velocity":45,"Duration":232594,"SoundDuration":232594,"Delta":66766538},{"NoteNumber":44,"Velocity":49,"Duration":116297,"SoundDuration":116297,"Delta":66766538},{"NoteNumber":61,"Velocity":57,"Duration":116297,"SoundDuration":116297,"Delta":66882835},{"NoteNumber":46,"Velocity":39,"Duration":116297,"SoundDuration":116297,"Delta":66882835},{"NoteNumber":66,"Velocity":59,"Duration":123977,"SoundDuration":123977,"Delta":66999132},{"NoteNumber":63,"Velocity":50,"Duration":123977,"SoundDuration":123977,"Delta":66999132},{"NoteNumber":54,"Velocity":50,"Duration":123977,"SoundDuration":123977,"Delta":66999132},{"NoteNumber":39,"Velocity":41,"Duration":123977,"SoundDuration":123977,"Delta":66999132},{"NoteNumber":47,"Velocity":50,"Duration":123977,"SoundDuration":123977,"Delta":66999132},{"NoteNumber":59,"Velocity":42,"Duration":120019,"SoundDuration":120019,"Delta":67247087},{"NoteNumber":71,"Velocity":51,"Duration":120019,"SoundDuration":120019,"Delta":67247087},{"NoteNumber":64,"Velocity":42,"Duration":120019,"SoundDuration":120019,"Delta":67247087},{"NoteNumber":49,"Velocity":42,"Duration":120019,"SoundDuration":120019,"Delta":67247087},{"NoteNumber":42,"Velocity":34,"Duration":120019,"SoundDuration":120019,"Delta":67247087},{"NoteNumber":71,"Velocity":57,"Duration":120501,"SoundDuration":120501,"Delta":67487607},{"NoteNumber":66,"Velocity":48,"Duration":120501,"SoundDuration":120501,"Delta":67487607},{"NoteNumber":59,"Velocity":48,"Duration":120501,"SoundDuration":120501,"Delta":67487607},{"NoteNumber":42,"Velocity":43,"Duration":120501,"SoundDuration":120501,"Delta":67487607},{"NoteNumber":51,"Velocity":53,"Duration":120501,"SoundDuration":120501,"Delta":67487607},{"NoteNumber":63,"Velocity":44,"Duration":135159,"SoundDuration":135159,"Delta":67728610},{"NoteNumber":71,"Velocity":44,"Duration":135159,"SoundDuration":135159,"Delta":67728610},{"NoteNumber":75,"Velocity":54,"Duration":135159,"SoundDuration":135159,"Delta":67728610},{"NoteNumber":53,"Velocity":44,"Duration":135159,"SoundDuration":135159,"Delta":67728610},{"NoteNumber":47,"Velocity":36,"Duration":135159,"SoundDuration":135159,"Delta":67728610},{"NoteNumber":63,"Velocity":56,"Duration":247974,"SoundDuration":247974,"Delta":67998929},{"NoteNumber":72,"Velocity":56,"Duration":743925,"SoundDuration":743925,"Delta":67998929},{"NoteNumber":75,"Velocity":67,"Duration":743925,"SoundDuration":743925,"Delta":67998929},{"NoteNumber":47,"Velocity":45,"Duration":247974,"SoundDuration":247974,"Delta":67998929},{"NoteNumber":54,"Velocity":55,"Duration":247974,"SoundDuration":247974,"Delta":67998929},{"NoteNumber":63,"Velocity":32,"Duration":123987,"SoundDuration":123987,"Delta":68246904},{"NoteNumber":65,"Velocity":39,"Duration":123987,"SoundDuration":123987,"Delta":68246904},{"NoteNumber":51,"Velocity":46,"Duration":123987,"SoundDuration":123987,"Delta":68246904},{"NoteNumber":59,"Velocity":37,"Duration":123987,"SoundDuration":123987,"Delta":68246904},{"NoteNumber":55,"Velocity":39,"Duration":123987,"SoundDuration":123987,"Delta":68370891},{"NoteNumber":63,"Velocity":33,"Duration":123987,"SoundDuration":123987,"Delta":68494879},{"NoteNumber":65,"Velocity":39,"Duration":123987,"SoundDuration":123987,"Delta":68494879},{"NoteNumber":59,"Velocity":52,"Duration":123987,"SoundDuration":123987,"Delta":68494879},{"NoteNumber":56,"Velocity":44,"Duration":123987,"SoundDuration":123987,"Delta":68494879},{"NoteNumber":71,"Velocity":56,"Duration":123987,"SoundDuration":123987,"Delta":68742854},{"NoteNumber":77,"Velocity":66,"Duration":123987,"SoundDuration":123987,"Delta":68742854},{"NoteNumber":65,"Velocity":63,"Duration":123987,"SoundDuration":123987,"Delta":68742854},{"NoteNumber":59,"Velocity":53,"Duration":123987,"SoundDuration":123987,"Delta":68742854},{"NoteNumber":73,"Velocity":69,"Duration":123987,"SoundDuration":123987,"Delta":68866841},{"NoteNumber":61,"Velocity":57,"Duration":123987,"SoundDuration":123987,"Delta":68866841},{"NoteNumber":71,"Velocity":62,"Duration":722623,"SoundDuration":722623,"Delta":68990829},{"NoteNumber":78,"Velocity":73,"Duration":722623,"SoundDuration":722623,"Delta":68990829},{"NoteNumber":75,"Velocity":62,"Duration":355753,"SoundDuration":355753,"Delta":68990829},{"NoteNumber":59,"Velocity":56,"Duration":722623,"SoundDuration":722623,"Delta":68990829},{"NoteNumber":66,"Velocity":67,"Duration":722623,"SoundDuration":722623,"Delta":68990829},{"NoteNumber":63,"Velocity":56,"Duration":722623,"SoundDuration":722623,"Delta":68990829},{"NoteNumber":87,"Velocity":78,"Duration":112798,"SoundDuration":112798,"Delta":69233783},{"NoteNumber":75,"Velocity":67,"Duration":348067,"SoundDuration":348067,"Delta":69233783},{"NoteNumber":82,"Velocity":74,"Duration":112799,"SoundDuration":112799,"Delta":69346582},{"NoteNumber":70,"Velocity":59,"Duration":112799,"SoundDuration":112799,"Delta":69346582},{"NoteNumber":87,"Velocity":78,"Duration":122468,"SoundDuration":122468,"Delta":69459381},{"NoteNumber":80,"Velocity":71,"Duration":254070,"SoundDuration":254070,"Delta":69459381},{"NoteNumber":75,"Velocity":67,"Duration":254070,"SoundDuration":254070,"Delta":69459381},{"NoteNumber":68,"Velocity":67,"Duration":122468,"SoundDuration":122468,"Delta":69459381},{"NoteNumber":71,"Velocity":59,"Duration":131602,"SoundDuration":131602,"Delta":69713452},{"NoteNumber":77,"Velocity":70,"Duration":254070,"SoundDuration":254070,"Delta":69713452},{"NoteNumber":59,"Velocity":56,"Duration":131602,"SoundDuration":131602,"Delta":69713452},{"NoteNumber":65,"Velocity":67,"Duration":254070,"SoundDuration":254070,"Delta":69713452},{"NoteNumber":73,"Velocity":73,"Duration":122468,"SoundDuration":122468,"Delta":69845054},{"NoteNumber":61,"Velocity":60,"Duration":122468,"SoundDuration":122468,"Delta":69845054},{"NoteNumber":71,"Velocity":65,"Duration":708709,"SoundDuration":708709,"Delta":69967523},{"NoteNumber":78,"Velocity":77,"Duration":708709,"SoundDuration":708709,"Delta":69967523},{"NoteNumber":75,"Velocity":65,"Duration":355330,"SoundDuration":355330,"Delta":69967523},{"NoteNumber":59,"Velocity":60,"Duration":708709,"SoundDuration":708709,"Delta":69967523},{"NoteNumber":66,"Velocity":71,"Duration":708709,"SoundDuration":708709,"Delta":69967523},{"NoteNumber":63,"Velocity":60,"Duration":708709,"SoundDuration":708709,"Delta":69967523},{"NoteNumber":87,"Velocity":83,"Duration":112376,"SoundDuration":112376,"Delta":70210478},{"NoteNumber":75,"Velocity":71,"Duration":345254,"SoundDuration":345254,"Delta":70210478},{"NoteNumber":82,"Velocity":78,"Duration":112376,"SoundDuration":112376,"Delta":70322854},{"NoteNumber":70,"Velocity":63,"Duration":112376,"SoundDuration":112376,"Delta":70322854},{"NoteNumber":87,"Velocity":83,"Duration":120501,"SoundDuration":120501,"Delta":70435231},{"NoteNumber":80,"Velocity":72,"Duration":241002,"SoundDuration":241002,"Delta":70435231},{"NoteNumber":75,"Velocity":71,"Duration":241002,"SoundDuration":241002,"Delta":70435231},{"NoteNumber":68,"Velocity":71,"Duration":120501,"SoundDuration":120501,"Delta":70435231},{"NoteNumber":71,"Velocity":70,"Duration":120501,"SoundDuration":120501,"Delta":70676233},{"NoteNumber":77,"Velocity":70,"Duration":241002,"SoundDuration":241002,"Delta":70676233},{"NoteNumber":59,"Velocity":67,"Duration":120501,"SoundDuration":120501,"Delta":70676233},{"NoteNumber":65,"Velocity":67,"Duration":241002,"SoundDuration":241002,"Delta":70676233},{"NoteNumber":73,"Velocity":73,"Duration":120501,"SoundDuration":120501,"Delta":70796734},{"NoteNumber":61,"Velocity":60,"Duration":120501,"SoundDuration":120501,"Delta":70796734},{"NoteNumber":71,"Velocity":65,"Duration":487966,"SoundDuration":487966,"Delta":70917236},{"NoteNumber":78,"Velocity":77,"Duration":487966,"SoundDuration":487966,"Delta":70917236},{"NoteNumber":75,"Velocity":65,"Duration":487966,"SoundDuration":487966,"Delta":70917236},{"NoteNumber":59,"Velocity":60,"Duration":487966,"SoundDuration":487966,"Delta":70917236},{"NoteNumber":66,"Velocity":71,"Duration":487966,"SoundDuration":487966,"Delta":70917236},{"NoteNumber":63,"Velocity":60,"Duration":487966,"SoundDuration":487966,"Delta":70917236},{"NoteNumber":62,"Velocity":55,"Duration":119582,"SoundDuration":119582,"Delta":71172529},{"NoteNumber":74,"Velocity":66,"Duration":119582,"SoundDuration":119582,"Delta":71172529},{"NoteNumber":63,"Velocity":58,"Duration":113091,"SoundDuration":113091,"Delta":71292111},{"NoteNumber":75,"Velocity":69,"Duration":113091,"SoundDuration":113091,"Delta":71292111},{"NoteNumber":66,"Velocity":61,"Duration":110244,"SoundDuration":110244,"Delta":71405203},{"NoteNumber":78,"Velocity":72,"Duration":110244,"SoundDuration":110244,"Delta":71405203},{"NoteNumber":68,"Velocity":61,"Duration":109906,"SoundDuration":109906,"Delta":71515448},{"NoteNumber":80,"Velocity":73,"Duration":109906,"SoundDuration":109906,"Delta":71515448},{"NoteNumber":71,"Velocity":63,"Duration":109906,"SoundDuration":109906,"Delta":71625354},{"NoteNumber":83,"Velocity":75,"Duration":109906,"SoundDuration":109906,"Delta":71625354},{"NoteNumber":75,"Velocity":66,"Duration":110602,"SoundDuration":110602,"Delta":71735260},{"NoteNumber":87,"Velocity":78,"Duration":110602,"SoundDuration":110602,"Delta":71735260},{"NoteNumber":78,"Velocity":80,"Duration":118128,"SoundDuration":118128,"Delta":71845863},{"NoteNumber":90,"Velocity":94,"Duration":118128,"SoundDuration":118128,"Delta":71845863},{"NoteNumber":56,"Velocity":73,"Duration":110310,"SoundDuration":110310,"Delta":72082121},{"NoteNumber":44,"Velocity":61,"Duration":110310,"SoundDuration":110310,"Delta":72082121},{"NoteNumber":59,"Velocity":64,"Duration":110310,"SoundDuration":110310,"Delta":72192431},{"NoteNumber":47,"Velocity":51,"Duration":110310,"SoundDuration":110310,"Delta":72192431},{"NoteNumber":63,"Velocity":77,"Duration":116297,"SoundDuration":116297,"Delta":72302741},{"NoteNumber":51,"Velocity":64,"Duration":116297,"SoundDuration":116297,"Delta":72302741},{"NoteNumber":66,"Velocity":73,"Duration":120019,"SoundDuration":120019,"Delta":72535335},{"NoteNumber":54,"Velocity":58,"Duration":120019,"SoundDuration":120019,"Delta":72535335},{"NoteNumber":71,"Velocity":72,"Duration":235331,"SoundDuration":235331,"Delta":72775374},{"NoteNumber":59,"Velocity":61,"Duration":235331,"SoundDuration":235331,"Delta":72775374},{"NoteNumber":75,"Velocity":85,"Duration":112798,"SoundDuration":112798,"Delta":73010705},{"NoteNumber":63,"Velocity":71,"Duration":112798,"SoundDuration":112798,"Delta":73010705},{"NoteNumber":55,"Velocity":71,"Duration":112798,"SoundDuration":112798,"Delta":73010705},{"NoteNumber":43,"Velocity":60,"Duration":112798,"SoundDuration":112798,"Delta":73010705},{"NoteNumber":79,"Velocity":80,"Duration":684595,"SoundDuration":684595,"Delta":73236728},{"NoteNumber":75,"Velocity":67,"Duration":684595,"SoundDuration":684595,"Delta":73236728},{"NoteNumber":67,"Velocity":67,"Duration":684595,"SoundDuration":684595,"Delta":73236728},{"NoteNumber":71,"Velocity":67,"Duration":452899,"SoundDuration":452899,"Delta":73236728},{"NoteNumber":63,"Velocity":67,"Duration":452899,"SoundDuration":452899,"Delta":73236728},{"NoteNumber":59,"Velocity":56,"Duration":452899,"SoundDuration":452899,"Delta":73236728},{"NoteNumber":53,"Velocity":56,"Duration":452899,"SoundDuration":452899,"Delta":73236728},{"NoteNumber":55,"Velocity":56,"Duration":452899,"SoundDuration":452899,"Delta":73236728},{"NoteNumber":72,"Velocity":80,"Duration":463391,"SoundDuration":463391,"Delta":73689627},{"NoteNumber":48,"Velocity":53,"Duration":231695,"SoundDuration":231695,"Delta":73689627},{"NoteNumber":51,"Velocity":53,"Duration":231695,"SoundDuration":231695,"Delta":73689627},{"NoteNumber":55,"Velocity":53,"Duration":231695,"SoundDuration":231695,"Delta":73689627},{"NoteNumber":60,"Velocity":59,"Duration":231695,"SoundDuration":231695,"Delta":73689627},{"NoteNumber":67,"Velocity":63,"Duration":115847,"SoundDuration":115847,"Delta":73921323},{"NoteNumber":79,"Velocity":76,"Duration":115847,"SoundDuration":115847,"Delta":73921323},{"NoteNumber":39,"Velocity":57,"Duration":115847,"SoundDuration":115847,"Delta":73921323},{"NoteNumber":51,"Velocity":63,"Duration":115847,"SoundDuration":115847,"Delta":73921323},{"NoteNumber":71,"Velocity":68,"Duration":695986,"SoundDuration":695986,"Delta":74153019},{"NoteNumber":75,"Velocity":68,"Duration":695986,"SoundDuration":695986,"Delta":74153019},{"NoteNumber":79,"Velocity":68,"Duration":695986,"SoundDuration":695986,"Delta":74153019},{"NoteNumber":83,"Velocity":81,"Duration":695986,"SoundDuration":695986,"Delta":74153019},{"NoteNumber":55,"Velocity":57,"Duration":463391,"SoundDuration":463391,"Delta":74153019},{"NoteNumber":61,"Velocity":57,"Duration":463391,"SoundDuration":463391,"Delta":74153019},{"NoteNumber":67,"Velocity":57,"Duration":463391,"SoundDuration":463391,"Delta":74153019},{"NoteNumber":63,"Velocity":68,"Duration":463391,"SoundDuration":463391,"Delta":74153019},{"NoteNumber":44,"Velocity":56,"Duration":232594,"SoundDuration":232594,"Delta":74616411},{"NoteNumber":51,"Velocity":56,"Duration":232594,"SoundDuration":232594,"Delta":74616411},{"NoteNumber":56,"Velocity":56,"Duration":232594,"SoundDuration":232594,"Delta":74616411},{"NoteNumber":59,"Velocity":61,"Duration":232594,"SoundDuration":232594,"Delta":74616411},{"NoteNumber":83,"Velocity":77,"Duration":116296,"SoundDuration":116296,"Delta":74849005},{"NoteNumber":71,"Velocity":65,"Duration":116296,"SoundDuration":116296,"Delta":74849005},{"NoteNumber":47,"Velocity":65,"Duration":116296,"SoundDuration":116296,"Delta":74849005},{"NoteNumber":35,"Velocity":55,"Duration":116296,"SoundDuration":116296,"Delta":74849005},{"NoteNumber":87,"Velocity":91,"Duration":704269,"SoundDuration":704269,"Delta":75081599},{"NoteNumber":83,"Velocity":77,"Duration":465187,"SoundDuration":465187,"Delta":75081599},{"NoteNumber":75,"Velocity":77,"Duration":704269,"SoundDuration":704269,"Delta":75081599},{"NoteNumber":79,"Velocity":77,"Duration":704269,"SoundDuration":704269,"Delta":75081599},{"NoteNumber":67,"Velocity":77,"Duration":465187,"SoundDuration":465187,"Delta":75081599},{"NoteNumber":63,"Velocity":65,"Duration":465187,"SoundDuration":465187,"Delta":75081599},{"NoteNumber":57,"Velocity":65,"Duration":465187,"SoundDuration":465187,"Delta":75081599},{"NoteNumber":59,"Velocity":65,"Duration":465187,"SoundDuration":465187,"Delta":75081599},{"NoteNumber":84,"Velocity":87,"Duration":239081,"SoundDuration":239081,"Delta":75546787},{"NoteNumber":39,"Velocity":61,"Duration":239081,"SoundDuration":239081,"Delta":75546787},{"NoteNumber":48,"Velocity":61,"Duration":239081,"SoundDuration":239081,"Delta":75546787},{"NoteNumber":55,"Velocity":67,"Duration":239081,"SoundDuration":239081,"Delta":75546787},{"NoteNumber":87,"Velocity":77,"Duration":123476,"SoundDuration":123476,"Delta":75785869},{"NoteNumber":75,"Velocity":65,"Duration":123476,"SoundDuration":123476,"Delta":75785869},{"NoteNumber":43,"Velocity":65,"Duration":123476,"SoundDuration":123476,"Delta":75785869},{"NoteNumber":31,"Velocity":55,"Duration":123476,"SoundDuration":123476,"Delta":75785869},{"NoteNumber":91,"Velocity":98,"Duration":391372,"SoundDuration":391372,"Delta":76032823},{"NoteNumber":87,"Velocity":98,"Duration":391372,"SoundDuration":391372,"Delta":76032823},{"NoteNumber":83,"Velocity":83,"Duration":391372,"SoundDuration":391372,"Delta":76032823},{"NoteNumber":79,"Velocity":83,"Duration":391372,"SoundDuration":391372,"Delta":76032823},{"NoteNumber":67,"Velocity":83,"Duration":391372,"SoundDuration":391372,"Delta":76032823},{"NoteNumber":63,"Velocity":83,"Duration":391372,"SoundDuration":391372,"Delta":76032823},{"NoteNumber":59,"Velocity":70,"Duration":391372,"SoundDuration":391372,"Delta":76032823},{"NoteNumber":53,"Velocity":70,"Duration":391372,"SoundDuration":391372,"Delta":76032823},{"NoteNumber":34,"Velocity":71,"Duration":183868,"SoundDuration":183868,"Delta":76424196},{"NoteNumber":46,"Velocity":84,"Duration":183868,"SoundDuration":183868,"Delta":76424196},{"NoteNumber":75,"Velocity":73,"Duration":232594,"SoundDuration":232594,"Delta":76608064},{"NoteNumber":70,"Velocity":73,"Duration":232594,"SoundDuration":232594,"Delta":76608064},{"NoteNumber":79,"Velocity":73,"Duration":232594,"SoundDuration":232594,"Delta":76608064},{"NoteNumber":82,"Velocity":86,"Duration":232594,"SoundDuration":232594,"Delta":76608064},{"NoteNumber":55,"Velocity":68,"Duration":689460,"SoundDuration":689460,"Delta":76608064},{"NoteNumber":63,"Velocity":68,"Duration":689460,"SoundDuration":689460,"Delta":76608064},{"NoteNumber":58,"Velocity":68,"Duration":689460,"SoundDuration":689460,"Delta":76608064},{"NoteNumber":67,"Velocity":80,"Duration":689460,"SoundDuration":689460,"Delta":76608064},{"NoteNumber":80,"Velocity":65,"Duration":114434,"SoundDuration":114434,"Delta":76840658},{"NoteNumber":75,"Velocity":65,"Duration":114434,"SoundDuration":114434,"Delta":76840658},{"NoteNumber":72,"Velocity":65,"Duration":114434,"SoundDuration":114434,"Delta":76840658},{"NoteNumber":82,"Velocity":61,"Duration":114434,"SoundDuration":114434,"Delta":76955092},{"NoteNumber":79,"Velocity":69,"Duration":113999,"SoundDuration":113999,"Delta":77069526},{"NoteNumber":75,"Velocity":69,"Duration":113999,"SoundDuration":113999,"Delta":77069526},{"NoteNumber":70,"Velocity":69,"Duration":113999,"SoundDuration":113999,"Delta":77069526},{"NoteNumber":82,"Velocity":60,"Duration":113998,"SoundDuration":113998,"Delta":77183525},{"NoteNumber":75,"Velocity":64,"Duration":113999,"SoundDuration":113999,"Delta":77297524},{"NoteNumber":77,"Velocity":64,"Duration":113999,"SoundDuration":113999,"Delta":77297524},{"NoteNumber":68,"Velocity":64,"Duration":113999,"SoundDuration":113999,"Delta":77297524},{"NoteNumber":65,"Velocity":63,"Duration":113999,"SoundDuration":113999,"Delta":77297524},{"NoteNumber":63,"Velocity":53,"Duration":113999,"SoundDuration":113999,"Delta":77297524},{"NoteNumber":60,"Velocity":53,"Duration":113999,"SoundDuration":113999,"Delta":77297524},{"NoteNumber":82,"Velocity":57,"Duration":113998,"SoundDuration":113998,"Delta":77411523},{"NoteNumber":70,"Velocity":70,"Duration":117114,"SoundDuration":117114,"Delta":77525522},{"NoteNumber":75,"Velocity":70,"Duration":117114,"SoundDuration":117114,"Delta":77525522},{"NoteNumber":79,"Velocity":70,"Duration":117114,"SoundDuration":117114,"Delta":77525522},{"NoteNumber":58,"Velocity":56,"Duration":692840,"SoundDuration":692840,"Delta":77525522},{"NoteNumber":63,"Velocity":56,"Duration":692840,"SoundDuration":692840,"Delta":77525522},{"NoteNumber":67,"Velocity":85,"Duration":692840,"SoundDuration":692840,"Delta":77525522},{"NoteNumber":82,"Velocity":57,"Duration":117114,"SoundDuration":117114,"Delta":77642637},{"NoteNumber":80,"Velocity":64,"Duration":114872,"SoundDuration":114872,"Delta":77759751},{"NoteNumber":75,"Velocity":64,"Duration":114872,"SoundDuration":114872,"Delta":77759751},{"NoteNumber":72,"Velocity":64,"Duration":114872,"SoundDuration":114872,"Delta":77759751},{"NoteNumber":46,"Velocity":72,"Duration":687479,"SoundDuration":687479,"Delta":77759751},{"NoteNumber":34,"Velocity":72,"Duration":687479,"SoundDuration":687479,"Delta":77759751},{"NoteNumber":82,"Velocity":57,"Duration":114871,"SoundDuration":114871,"Delta":77874623},{"NoteNumber":79,"Velocity":62,"Duration":114434,"SoundDuration":114434,"Delta":77989495},{"NoteNumber":75,"Velocity":62,"Duration":114434,"SoundDuration":114434,"Delta":77989495},{"NoteNumber":70,"Velocity":62,"Duration":114434,"SoundDuration":114434,"Delta":77989495},{"NoteNumber":82,"Velocity":54,"Duration":114434,"SoundDuration":114434,"Delta":78103929},{"NoteNumber":75,"Velocity":63,"Duration":114433,"SoundDuration":114433,"Delta":78218363},{"NoteNumber":77,"Velocity":63,"Duration":114433,"SoundDuration":114433,"Delta":78218363},{"NoteNumber":68,"Velocity":63,"Duration":114433,"SoundDuration":114433,"Delta":78218363},{"NoteNumber":63,"Velocity":56,"Duration":114433,"SoundDuration":114433,"Delta":78218363},{"NoteNumber":60,"Velocity":47,"Duration":114433,"SoundDuration":114433,"Delta":78218363},{"NoteNumber":56,"Velocity":47,"Duration":114433,"SoundDuration":114433,"Delta":78218363},{"NoteNumber":82,"Velocity":55,"Duration":114434,"SoundDuration":114434,"Delta":78332797},{"NoteNumber":70,"Velocity":70,"Duration":117114,"SoundDuration":117114,"Delta":78447231},{"NoteNumber":75,"Velocity":70,"Duration":117114,"SoundDuration":117114,"Delta":78447231},{"NoteNumber":79,"Velocity":70,"Duration":117114,"SoundDuration":117114,"Delta":78447231},{"NoteNumber":58,"Velocity":56,"Duration":692840,"SoundDuration":692840,"Delta":78447231},{"NoteNumber":63,"Velocity":56,"Duration":692840,"SoundDuration":692840,"Delta":78447231},{"NoteNumber":67,"Velocity":85,"Duration":692840,"SoundDuration":692840,"Delta":78447231},{"NoteNumber":82,"Velocity":57,"Duration":117114,"SoundDuration":117114,"Delta":78564345},{"NoteNumber":80,"Velocity":64,"Duration":114872,"SoundDuration":114872,"Delta":78681459},{"NoteNumber":75,"Velocity":64,"Duration":114872,"SoundDuration":114872,"Delta":78681459},{"NoteNumber":72,"Velocity":64,"Duration":114872,"SoundDuration":114872,"Delta":78681459},{"NoteNumber":46,"Velocity":72,"Duration":687479,"SoundDuration":687479,"Delta":78681459},{"NoteNumber":34,"Velocity":72,"Duration":687479,"SoundDuration":687479,"Delta":78681459},{"NoteNumber":82,"Velocity":57,"Duration":114871,"SoundDuration":114871,"Delta":78796331},{"NoteNumber":79,"Velocity":62,"Duration":114434,"SoundDuration":114434,"Delta":78911203},{"NoteNumber":75,"Velocity":62,"Duration":114434,"SoundDuration":114434,"Delta":78911203},{"NoteNumber":70,"Velocity":62,"Duration":114434,"SoundDuration":114434,"Delta":78911203},{"NoteNumber":82,"Velocity":54,"Duration":114434,"SoundDuration":114434,"Delta":79025637},{"NoteNumber":75,"Velocity":63,"Duration":114433,"SoundDuration":114433,"Delta":79140071},{"NoteNumber":77,"Velocity":63,"Duration":114433,"SoundDuration":114433,"Delta":79140071},{"NoteNumber":68,"Velocity":63,"Duration":114433,"SoundDuration":114433,"Delta":79140071},{"NoteNumber":60,"Velocity":56,"Duration":114433,"SoundDuration":114433,"Delta":79140071},{"NoteNumber":56,"Velocity":47,"Duration":114433,"SoundDuration":114433,"Delta":79140071},{"NoteNumber":53,"Velocity":47,"Duration":114433,"SoundDuration":114433,"Delta":79140071},{"NoteNumber":82,"Velocity":55,"Duration":114434,"SoundDuration":114434,"Delta":79254505},{"NoteNumber":70,"Velocity":70,"Duration":117114,"SoundDuration":117114,"Delta":79368939},{"NoteNumber":75,"Velocity":70,"Duration":117114,"SoundDuration":117114,"Delta":79368939},{"NoteNumber":79,"Velocity":70,"Duration":117114,"SoundDuration":117114,"Delta":79368939},{"NoteNumber":58,"Velocity":56,"Duration":234228,"SoundDuration":234228,"Delta":79368939},{"NoteNumber":63,"Velocity":56,"Duration":234228,"SoundDuration":234228,"Delta":79368939},{"NoteNumber":67,"Velocity":85,"Duration":234228,"SoundDuration":234228,"Delta":79368939},{"NoteNumber":82,"Velocity":57,"Duration":117114,"SoundDuration":117114,"Delta":79486054},{"NoteNumber":80,"Velocity":64,"Duration":114872,"SoundDuration":114872,"Delta":79603168},{"NoteNumber":75,"Velocity":64,"Duration":114872,"SoundDuration":114872,"Delta":79603168},{"NoteNumber":72,"Velocity":64,"Duration":114872,"SoundDuration":114872,"Delta":79603168},{"NoteNumber":51,"Velocity":65,"Duration":114872,"SoundDuration":114872,"Delta":79603168},{"NoteNumber":82,"Velocity":57,"Duration":114871,"SoundDuration":114871,"Delta":79718040},{"NoteNumber":55,"Velocity":71,"Duration":114871,"SoundDuration":114871,"Delta":79718040},{"NoteNumber":79,"Velocity":62,"Duration":114434,"SoundDuration":114434,"Delta":79832912},{"NoteNumber":75,"Velocity":62,"Duration":114434,"SoundDuration":114434,"Delta":79832912},{"NoteNumber":70,"Velocity":62,"Duration":114434,"SoundDuration":114434,"Delta":79832912},{"NoteNumber":58,"Velocity":80,"Duration":114434,"SoundDuration":114434,"Delta":79832912},{"NoteNumber":82,"Velocity":54,"Duration":114434,"SoundDuration":114434,"Delta":79947346},{"NoteNumber":75,"Velocity":63,"Duration":114433,"SoundDuration":114433,"Delta":80061780},{"NoteNumber":77,"Velocity":63,"Duration":114433,"SoundDuration":114433,"Delta":80061780},{"NoteNumber":68,"Velocity":63,"Duration":114433,"SoundDuration":114433,"Delta":80061780},{"NoteNumber":60,"Velocity":56,"Duration":114433,"SoundDuration":114433,"Delta":80061780},{"NoteNumber":56,"Velocity":47,"Duration":114433,"SoundDuration":114433,"Delta":80061780},{"NoteNumber":53,"Velocity":47,"Duration":114433,"SoundDuration":114433,"Delta":80061780},{"NoteNumber":82,"Velocity":55,"Duration":114434,"SoundDuration":114434,"Delta":80176214},{"NoteNumber":70,"Velocity":70,"Duration":228868,"SoundDuration":228868,"Delta":80290648},{"NoteNumber":75,"Velocity":70,"Duration":228868,"SoundDuration":228868,"Delta":80290648},{"NoteNumber":79,"Velocity":70,"Duration":228868,"SoundDuration":228868,"Delta":80290648},{"NoteNumber":58,"Velocity":66,"Duration":228868,"SoundDuration":228868,"Delta":80290648},{"NoteNumber":63,"Velocity":66,"Duration":228868,"SoundDuration":228868,"Delta":80290648},{"NoteNumber":67,"Velocity":74,"Duration":228868,"SoundDuration":228868,"Delta":80290648},{"NoteNumber":62,"Velocity":70,"Duration":111444,"SoundDuration":111444,"Delta":80519516},{"NoteNumber":67,"Velocity":70,"Duration":111444,"SoundDuration":111444,"Delta":80519516},{"NoteNumber":46,"Velocity":56,"Duration":221461,"SoundDuration":221461,"Delta":80519516},{"NoteNumber":34,"Velocity":47,"Duration":221461,"SoundDuration":221461,"Delta":80519516},{"NoteNumber":63,"Velocity":70,"Duration":110017,"SoundDuration":110017,"Delta":80630960},{"NoteNumber":66,"Velocity":70,"Duration":109615,"SoundDuration":109615,"Delta":80740977},{"NoteNumber":70,"Velocity":70,"Duration":109615,"SoundDuration":109615,"Delta":80740977},{"NoteNumber":55,"Velocity":70,"Duration":651699,"SoundDuration":651699,"Delta":80740977},{"NoteNumber":51,"Velocity":59,"Duration":651699,"SoundDuration":651699,"Delta":80740977},{"NoteNumber":46,"Velocity":59,"Duration":651699,"SoundDuration":651699,"Delta":80740977},{"NoteNumber":67,"Velocity":70,"Duration":109216,"SoundDuration":109216,"Delta":80850593},{"NoteNumber":72,"Velocity":70,"Duration":108820,"SoundDuration":108820,"Delta":80959809},{"NoteNumber":75,"Velocity":70,"Duration":108820,"SoundDuration":108820,"Delta":80959809},{"NoteNumber":70,"Velocity":70,"Duration":108426,"SoundDuration":108426,"Delta":81068629},{"NoteNumber":79,"Velocity":70,"Duration":108036,"SoundDuration":108036,"Delta":81177056},{"NoteNumber":75,"Velocity":70,"Duration":108036,"SoundDuration":108036,"Delta":81177056},{"NoteNumber":69,"Velocity":70,"Duration":107584,"SoundDuration":107584,"Delta":81285093},{"NoteNumber":66,"Velocity":70,"Duration":107199,"SoundDuration":107199,"Delta":81392677},{"NoteNumber":70,"Velocity":70,"Duration":107199,"SoundDuration":107199,"Delta":81392677},{"NoteNumber":58,"Velocity":48,"Duration":214017,"SoundDuration":214017,"Delta":81392677},{"NoteNumber":55,"Velocity":48,"Duration":214017,"SoundDuration":214017,"Delta":81392677},{"NoteNumber":51,"Velocity":48,"Duration":214017,"SoundDuration":214017,"Delta":81392677},{"NoteNumber":67,"Velocity":70,"Duration":106818,"SoundDuration":106818,"Delta":81499877},{"NoteNumber":72,"Velocity":70,"Duration":106439,"SoundDuration":106439,"Delta":81606695},{"NoteNumber":75,"Velocity":70,"Duration":106439,"SoundDuration":106439,"Delta":81606695},{"NoteNumber":55,"Velocity":63,"Duration":649107,"SoundDuration":649107,"Delta":81606695},{"NoteNumber":58,"Velocity":63,"Duration":649107,"SoundDuration":649107,"Delta":81606695},{"NoteNumber":63,"Velocity":75,"Duration":649107,"SoundDuration":649107,"Delta":81606695},{"NoteNumber":70,"Velocity":70,"Duration":106062,"SoundDuration":106062,"Delta":81713134},{"NoteNumber":75,"Velocity":70,"Duration":105689,"SoundDuration":105689,"Delta":81819196},{"NoteNumber":79,"Velocity":70,"Duration":105689,"SoundDuration":105689,"Delta":81819196},{"NoteNumber":74,"Velocity":70,"Duration":105318,"SoundDuration":105318,"Delta":81924886},{"NoteNumber":82,"Velocity":70,"Duration":225598,"SoundDuration":225598,"Delta":82030204},{"NoteNumber":79,"Velocity":70,"Duration":225598,"SoundDuration":225598,"Delta":82030204},{"NoteNumber":75,"Velocity":70,"Duration":225598,"SoundDuration":225598,"Delta":82030204},{"NoteNumber":74,"Velocity":68,"Duration":104544,"SoundDuration":104544,"Delta":82255802},{"NoteNumber":79,"Velocity":68,"Duration":104544,"SoundDuration":104544,"Delta":82255802},{"NoteNumber":67,"Velocity":57,"Duration":209088,"SoundDuration":209088,"Delta":82255802},{"NoteNumber":63,"Velocity":48,"Duration":209088,"SoundDuration":209088,"Delta":82255802},{"NoteNumber":58,"Velocity":48,"Duration":209088,"SoundDuration":209088,"Delta":82255802},{"NoteNumber":75,"Velocity":61,"Duration":104544,"SoundDuration":104544,"Delta":82360346},{"NoteNumber":78,"Velocity":68,"Duration":104544,"SoundDuration":104544,"Delta":82464890},{"NoteNumber":82,"Velocity":68,"Duration":104544,"SoundDuration":104544,"Delta":82464890},{"NoteNumber":67,"Velocity":58,"Duration":208484,"SoundDuration":208484,"Delta":82464890},{"NoteNumber":63,"Velocity":49,"Duration":208484,"SoundDuration":208484,"Delta":82464890},{"NoteNumber":58,"Velocity":49,"Duration":208484,"SoundDuration":208484,"Delta":82464890},{"NoteNumber":79,"Velocity":60,"Duration":103940,"SoundDuration":103940,"Delta":82569435},{"NoteNumber":87,"Velocity":68,"Duration":103462,"SoundDuration":103462,"Delta":82673375},{"NoteNumber":84,"Velocity":68,"Duration":103462,"SoundDuration":103462,"Delta":82673375},{"NoteNumber":70,"Velocity":58,"Duration":206924,"SoundDuration":206924,"Delta":82673375},{"NoteNumber":67,"Velocity":49,"Duration":206924,"SoundDuration":206924,"Delta":82673375},{"NoteNumber":63,"Velocity":49,"Duration":206924,"SoundDuration":206924,"Delta":82673375},{"NoteNumber":82,"Velocity":62,"Duration":103462,"SoundDuration":103462,"Delta":82776837},{"NoteNumber":91,"Velocity":68,"Duration":103462,"SoundDuration":103462,"Delta":82880300},{"NoteNumber":87,"Velocity":68,"Duration":103462,"SoundDuration":103462,"Delta":82880300},{"NoteNumber":63,"Velocity":52,"Duration":206924,"SoundDuration":206924,"Delta":82880300},{"NoteNumber":67,"Velocity":52,"Duration":206924,"SoundDuration":206924,"Delta":82880300},{"NoteNumber":70,"Velocity":62,"Duration":206924,"SoundDuration":206924,"Delta":82880300},{"NoteNumber":81,"Velocity":61,"Duration":103462,"SoundDuration":103462,"Delta":82983762},{"NoteNumber":78,"Velocity":68,"Duration":103462,"SoundDuration":103462,"Delta":83087225},{"NoteNumber":82,"Velocity":68,"Duration":103462,"SoundDuration":103462,"Delta":83087225},{"NoteNumber":75,"Velocity":58,"Duration":206650,"SoundDuration":206650,"Delta":83087225},{"NoteNumber":70,"Velocity":49,"Duration":206650,"SoundDuration":206650,"Delta":83087225},{"NoteNumber":67,"Velocity":49,"Duration":206650,"SoundDuration":206650,"Delta":83087225},{"NoteNumber":79,"Velocity":62,"Duration":103187,"SoundDuration":103187,"Delta":83190687},{"NoteNumber":87,"Velocity":68,"Duration":104858,"SoundDuration":104858,"Delta":83293875},{"NoteNumber":84,"Velocity":68,"Duration":104858,"SoundDuration":104858,"Delta":83293875},{"NoteNumber":75,"Velocity":58,"Duration":211621,"SoundDuration":211621,"Delta":83293875},{"NoteNumber":70,"Velocity":49,"Duration":211621,"SoundDuration":211621,"Delta":83293875},{"NoteNumber":67,"Velocity":49,"Duration":211621,"SoundDuration":211621,"Delta":83293875},{"NoteNumber":82,"Velocity":58,"Duration":106762,"SoundDuration":106762,"Delta":83398734},{"NoteNumber":87,"Velocity":75,"Duration":109569,"SoundDuration":109569,"Delta":83505497},{"NoteNumber":91,"Velocity":75,"Duration":109569,"SoundDuration":109569,"Delta":83505497},{"NoteNumber":70,"Velocity":55,"Duration":236173,"SoundDuration":236173,"Delta":83505497},{"NoteNumber":75,"Velocity":55,"Duration":236173,"SoundDuration":236173,"Delta":83505497},{"NoteNumber":79,"Velocity":65,"Duration":236173,"SoundDuration":236173,"Delta":83505497},{"NoteNumber":86,"Velocity":65,"Duration":126603,"SoundDuration":126603,"Delta":83615066},{"NoteNumber":94,"Velocity":87,"Duration":213553,"SoundDuration":213553,"Delta":83741670},{"NoteNumber":91,"Velocity":73,"Duration":213553,"SoundDuration":213553,"Delta":83741670},{"NoteNumber":87,"Velocity":73,"Duration":213553,"SoundDuration":213553,"Delta":83741670},{"NoteNumber":82,"Velocity":84,"Duration":213553,"SoundDuration":213553,"Delta":83741670},{"NoteNumber":79,"Velocity":71,"Duration":213553,"SoundDuration":213553,"Delta":83741670},{"NoteNumber":75,"Velocity":71,"Duration":213553,"SoundDuration":213553,"Delta":83741670},{"NoteNumber":70,"Velocity":71,"Duration":213553,"SoundDuration":213553,"Delta":83741670},{"NoteNumber":68,"Velocity":83,"Duration":496413,"SoundDuration":496413,"Delta":84595884},{"NoteNumber":70,"Velocity":83,"Duration":496413,"SoundDuration":496413,"Delta":84595884},{"NoteNumber":74,"Velocity":83,"Duration":496413,"SoundDuration":496413,"Delta":84595884},{"NoteNumber":77,"Velocity":100,"Duration":496413,"SoundDuration":496413,"Delta":84595884},{"NoteNumber":82,"Velocity":100,"Duration":496413,"SoundDuration":496413,"Delta":84595884},{"NoteNumber":62,"Velocity":78,"Duration":134553,"SoundDuration":134553,"Delta":84595884},{"NoteNumber":58,"Velocity":65,"Duration":134553,"SoundDuration":134553,"Delta":84595884},{"NoteNumber":56,"Velocity":65,"Duration":134553,"SoundDuration":134553,"Delta":84595884},{"NoteNumber":53,"Velocity":65,"Duration":134553,"SoundDuration":134553,"Delta":84595884},{"NoteNumber":46,"Velocity":117,"Duration":361860,"SoundDuration":361860,"Delta":84730437},{"NoteNumber":34,"Velocity":98,"Duration":361860,"SoundDuration":361860,"Delta":84730437},{"NoteNumber":27,"Velocity":85,"Duration":1451518,"SoundDuration":1451518,"Delta":85546911},{"NoteNumber":39,"Velocity":95,"Duration":1451518,"SoundDuration":1451518,"Delta":85546911},{"NoteNumber":51,"Velocity":95,"Duration":531186,"SoundDuration":531186,"Delta":85546911},{"NoteNumber":63,"Velocity":104,"Duration":531186,"SoundDuration":531186,"Delta":85546911},{"NoteNumber":87,"Velocity":70,"Duration":129858,"SoundDuration":129858,"Delta":85818380},{"NoteNumber":82,"Velocity":59,"Duration":129858,"SoundDuration":129858,"Delta":85818380},{"NoteNumber":79,"Velocity":59,"Duration":129858,"SoundDuration":129858,"Delta":85818380},{"NoteNumber":91,"Velocity":63,"Duration":129859,"SoundDuration":129859,"Delta":85948239},{"NoteNumber":87,"Velocity":70,"Duration":120491,"SoundDuration":120491,"Delta":86078098},{"NoteNumber":82,"Velocity":59,"Duration":120491,"SoundDuration":120491,"Delta":86078098},{"NoteNumber":79,"Velocity":59,"Duration":120491,"SoundDuration":120491,"Delta":86078098},{"NoteNumber":58,"Velocity":88,"Duration":467432,"SoundDuration":467432,"Delta":86078098},{"NoteNumber":46,"Velocity":88,"Duration":467432,"SoundDuration":467432,"Delta":86078098},{"NoteNumber":91,"Velocity":65,"Duration":120491,"SoundDuration":120491,"Delta":86198589},{"NoteNumber":89,"Velocity":70,"Duration":113224,"SoundDuration":113224,"Delta":86319081},{"NoteNumber":87,"Velocity":59,"Duration":113224,"SoundDuration":113224,"Delta":86319081},{"NoteNumber":80,"Velocity":59,"Duration":113224,"SoundDuration":113224,"Delta":86319081},{"NoteNumber":92,"Velocity":63,"Duration":113224,"SoundDuration":113224,"Delta":86432306},{"NoteNumber":91,"Velocity":70,"Duration":113224,"SoundDuration":113224,"Delta":86545530},{"NoteNumber":87,"Velocity":59,"Duration":113224,"SoundDuration":113224,"Delta":86545530},{"NoteNumber":82,"Velocity":59,"Duration":113224,"SoundDuration":113224,"Delta":86545530},{"NoteNumber":63,"Velocity":88,"Duration":684252,"SoundDuration":684252,"Delta":86545530},{"NoteNumber":58,"Velocity":88,"Duration":684252,"SoundDuration":684252,"Delta":86545530},{"NoteNumber":51,"Velocity":88,"Duration":684252,"SoundDuration":684252,"Delta":86545530},{"NoteNumber":94,"Velocity":64,"Duration":113224,"SoundDuration":113224,"Delta":86658755},{"NoteNumber":87,"Velocity":70,"Duration":113224,"SoundDuration":113224,"Delta":86771980},{"NoteNumber":82,"Velocity":59,"Duration":113224,"SoundDuration":113224,"Delta":86771980},{"NoteNumber":79,"Velocity":59,"Duration":113224,"SoundDuration":113224,"Delta":86771980},{"NoteNumber":91,"Velocity":63,"Duration":113224,"SoundDuration":113224,"Delta":86885205},{"NoteNumber":87,"Velocity":70,"Duration":113224,"SoundDuration":113224,"Delta":86998429},{"NoteNumber":82,"Velocity":59,"Duration":113224,"SoundDuration":113224,"Delta":86998429},{"NoteNumber":79,"Velocity":59,"Duration":113224,"SoundDuration":113224,"Delta":86998429},{"NoteNumber":27,"Velocity":76,"Duration":467611,"SoundDuration":467611,"Delta":86998429},{"NoteNumber":34,"Velocity":76,"Duration":467611,"SoundDuration":467611,"Delta":86998429},{"NoteNumber":39,"Velocity":76,"Duration":467611,"SoundDuration":467611,"Delta":86998429},{"NoteNumber":91,"Velocity":65,"Duration":118128,"SoundDuration":118128,"Delta":87111654},{"NoteNumber":89,"Velocity":70,"Duration":118128,"SoundDuration":118128,"Delta":87229783},{"NoteNumber":87,"Velocity":59,"Duration":118128,"SoundDuration":118128,"Delta":87229783},{"NoteNumber":80,"Velocity":59,"Duration":118128,"SoundDuration":118128,"Delta":87229783},{"NoteNumber":48,"Velocity":77,"Duration":118128,"SoundDuration":118128,"Delta":87229783},{"NoteNumber":92,"Velocity":63,"Duration":118128,"SoundDuration":118128,"Delta":87347912},{"NoteNumber":51,"Velocity":84,"Duration":118128,"SoundDuration":118128,"Delta":87347912},{"NoteNumber":91,"Velocity":70,"Duration":113653,"SoundDuration":113653,"Delta":87466040},{"NoteNumber":87,"Velocity":59,"Duration":113653,"SoundDuration":113653,"Delta":87466040},{"NoteNumber":82,"Velocity":59,"Duration":113653,"SoundDuration":113653,"Delta":87466040},{"NoteNumber":43,"Velocity":88,"Duration":227306,"SoundDuration":227306,"Delta":87466040},{"NoteNumber":55,"Velocity":88,"Duration":227306,"SoundDuration":227306,"Delta":87466040},{"NoteNumber":94,"Velocity":64,"Duration":113653,"SoundDuration":113653,"Delta":87579694},{"NoteNumber":87,"Velocity":70,"Duration":109106,"SoundDuration":109106,"Delta":87693347},{"NoteNumber":82,"Velocity":59,"Duration":109106,"SoundDuration":109106,"Delta":87693347},{"NoteNumber":79,"Velocity":59,"Duration":109106,"SoundDuration":109106,"Delta":87693347},{"NoteNumber":58,"Velocity":77,"Duration":109106,"SoundDuration":109106,"Delta":87693347},{"NoteNumber":46,"Velocity":77,"Duration":109106,"SoundDuration":109106,"Delta":87693347},{"NoteNumber":91,"Velocity":63,"Duration":109106,"SoundDuration":109106,"Delta":87802454},{"NoteNumber":87,"Velocity":70,"Duration":109106,"SoundDuration":109106,"Delta":87911561},{"NoteNumber":82,"Velocity":59,"Duration":109106,"SoundDuration":109106,"Delta":87911561},{"NoteNumber":79,"Velocity":59,"Duration":109106,"SoundDuration":109106,"Delta":87911561},{"NoteNumber":46,"Velocity":81,"Duration":109106,"SoundDuration":109106,"Delta":87911561},{"NoteNumber":58,"Velocity":81,"Duration":109106,"SoundDuration":109106,"Delta":87911561},{"NoteNumber":91,"Velocity":65,"Duration":109106,"SoundDuration":109106,"Delta":88020668},{"NoteNumber":89,"Velocity":70,"Duration":118128,"SoundDuration":118128,"Delta":88129774},{"NoteNumber":87,"Velocity":59,"Duration":118128,"SoundDuration":118128,"Delta":88129774},{"NoteNumber":80,"Velocity":59,"Duration":118128,"SoundDuration":118128,"Delta":88129774},{"NoteNumber":51,"Velocity":77,"Duration":118128,"SoundDuration":118128,"Delta":88129774},{"NoteNumber":58,"Velocity":77,"Duration":118128,"SoundDuration":118128,"Delta":88129774},{"NoteNumber":63,"Velocity":77,"Duration":118128,"SoundDuration":118128,"Delta":88129774},{"NoteNumber":92,"Velocity":63,"Duration":118128,"SoundDuration":118128,"Delta":88247903},{"NoteNumber":91,"Velocity":70,"Duration":112376,"SoundDuration":112376,"Delta":88366032},{"NoteNumber":87,"Velocity":59,"Duration":112376,"SoundDuration":112376,"Delta":88366032},{"NoteNumber":82,"Velocity":59,"Duration":112376,"SoundDuration":112376,"Delta":88366032},{"NoteNumber":51,"Velocity":88,"Duration":674259,"SoundDuration":674259,"Delta":88366032},{"NoteNumber":58,"Velocity":88,"Duration":674259,"SoundDuration":674259,"Delta":88366032},{"NoteNumber":63,"Velocity":88,"Duration":674259,"SoundDuration":674259,"Delta":88366032},{"NoteNumber":94,"Velocity":64,"Duration":112376,"SoundDuration":112376,"Delta":88478408},{"NoteNumber":87,"Velocity":70,"Duration":112376,"SoundDuration":112376,"Delta":88590785},{"NoteNumber":82,"Velocity":59,"Duration":112376,"SoundDuration":112376,"Delta":88590785},{"NoteNumber":79,"Velocity":59,"Duration":112376,"SoundDuration":112376,"Delta":88590785},{"NoteNumber":91,"Velocity":63,"Duration":112376,"SoundDuration":112376,"Delta":88703161},{"NoteNumber":87,"Velocity":70,"Duration":112376,"SoundDuration":112376,"Delta":88815538},{"NoteNumber":82,"Velocity":59,"Duration":112376,"SoundDuration":112376,"Delta":88815538},{"NoteNumber":79,"Velocity":59,"Duration":112376,"SoundDuration":112376,"Delta":88815538},{"NoteNumber":27,"Velocity":76,"Duration":449505,"SoundDuration":449505,"Delta":88815538},{"NoteNumber":34,"Velocity":76,"Duration":449505,"SoundDuration":449505,"Delta":88815538},{"NoteNumber":39,"Velocity":76,"Duration":449505,"SoundDuration":449505,"Delta":88815538},{"NoteNumber":91,"Velocity":65,"Duration":112376,"SoundDuration":112376,"Delta":88927914},{"NoteNumber":89,"Velocity":70,"Duration":112376,"SoundDuration":112376,"Delta":89040291},{"NoteNumber":87,"Velocity":59,"Duration":112376,"SoundDuration":112376,"Delta":89040291},{"NoteNumber":80,"Velocity":59,"Duration":112376,"SoundDuration":112376,"Delta":89040291},{"NoteNumber":48,"Velocity":69,"Duration":112376,"SoundDuration":112376,"Delta":89040291},{"NoteNumber":92,"Velocity":63,"Duration":112376,"SoundDuration":112376,"Delta":89152667},{"NoteNumber":51,"Velocity":71,"Duration":112376,"SoundDuration":112376,"Delta":89152667},{"NoteNumber":91,"Velocity":70,"Duration":114521,"SoundDuration":114521,"Delta":89265044},{"NoteNumber":87,"Velocity":59,"Duration":114521,"SoundDuration":114521,"Delta":89265044},{"NoteNumber":82,"Velocity":59,"Duration":114521,"SoundDuration":114521,"Delta":89265044},{"NoteNumber":43,"Velocity":77,"Duration":114521,"SoundDuration":114521,"Delta":89265044},{"NoteNumber":55,"Velocity":77,"Duration":114521,"SoundDuration":114521,"Delta":89265044},{"NoteNumber":94,"Velocity":64,"Duration":114521,"SoundDuration":114521,"Delta":89379565},{"NoteNumber":87,"Velocity":70,"Duration":110310,"SoundDuration":110310,"Delta":89494086},{"NoteNumber":82,"Velocity":59,"Duration":110310,"SoundDuration":110310,"Delta":89494086},{"NoteNumber":79,"Velocity":59,"Duration":110310,"SoundDuration":110310,"Delta":89494086},{"NoteNumber":46,"Velocity":69,"Duration":110310,"SoundDuration":110310,"Delta":89494086},{"NoteNumber":58,"Velocity":69,"Duration":110310,"SoundDuration":110310,"Delta":89494086},{"NoteNumber":91,"Velocity":63,"Duration":110310,"SoundDuration":110310,"Delta":89604397},{"NoteNumber":87,"Velocity":70,"Duration":110310,"SoundDuration":110310,"Delta":89714707},{"NoteNumber":82,"Velocity":59,"Duration":110310,"SoundDuration":110310,"Delta":89714707},{"NoteNumber":79,"Velocity":59,"Duration":110310,"SoundDuration":110310,"Delta":89714707},{"NoteNumber":58,"Velocity":70,"Duration":110310,"SoundDuration":110310,"Delta":89714707},{"NoteNumber":46,"Velocity":70,"Duration":110310,"SoundDuration":110310,"Delta":89714707},{"NoteNumber":91,"Velocity":65,"Duration":110310,"SoundDuration":110310,"Delta":89825017},{"NoteNumber":89,"Velocity":70,"Duration":118128,"SoundDuration":118128,"Delta":89935327},{"NoteNumber":87,"Velocity":59,"Duration":118128,"SoundDuration":118128,"Delta":89935327},{"NoteNumber":80,"Velocity":59,"Duration":118128,"SoundDuration":118128,"Delta":89935327},{"NoteNumber":51,"Velocity":66,"Duration":118128,"SoundDuration":118128,"Delta":89935327},{"NoteNumber":63,"Velocity":66,"Duration":118128,"SoundDuration":118128,"Delta":89935327},{"NoteNumber":58,"Velocity":66,"Duration":118128,"SoundDuration":118128,"Delta":89935327},{"NoteNumber":92,"Velocity":63,"Duration":118128,"SoundDuration":118128,"Delta":90053456},{"NoteNumber":91,"Velocity":70,"Duration":117665,"SoundDuration":117665,"Delta":90171585},{"NoteNumber":87,"Velocity":59,"Duration":117665,"SoundDuration":117665,"Delta":90171585},{"NoteNumber":82,"Velocity":59,"Duration":117665,"SoundDuration":117665,"Delta":90171585},{"NoteNumber":51,"Velocity":77,"Duration":510558,"SoundDuration":510558,"Delta":90171585},{"NoteNumber":63,"Velocity":77,"Duration":510558,"SoundDuration":510558,"Delta":90171585},{"NoteNumber":58,"Velocity":77,"Duration":510558,"SoundDuration":510558,"Delta":90171585},{"NoteNumber":94,"Velocity":64,"Duration":117665,"SoundDuration":117665,"Delta":90289250},{"NoteNumber":75,"Velocity":70,"Duration":138875,"SoundDuration":138875,"Delta":90406916},{"NoteNumber":82,"Velocity":70,"Duration":138875,"SoundDuration":138875,"Delta":90406916},{"NoteNumber":87,"Velocity":61,"Duration":136351,"SoundDuration":136351,"Delta":90545792},{"NoteNumber":82,"Velocity":70,"Duration":136351,"SoundDuration":136351,"Delta":90682143},{"NoteNumber":75,"Velocity":70,"Duration":136351,"SoundDuration":136351,"Delta":90682143},{"NoteNumber":67,"Velocity":77,"Duration":505234,"SoundDuration":505234,"Delta":90682143},{"NoteNumber":55,"Velocity":77,"Duration":505234,"SoundDuration":505234,"Delta":90682143},{"NoteNumber":87,"Velocity":63,"Duration":122961,"SoundDuration":122961,"Delta":90818494},{"NoteNumber":74,"Velocity":70,"Duration":122960,"SoundDuration":122960,"Delta":90941455},{"NoteNumber":75,"Velocity":70,"Duration":122960,"SoundDuration":122960,"Delta":90941455},{"NoteNumber":82,"Velocity":70,"Duration":122960,"SoundDuration":122960,"Delta":90941455},{"NoteNumber":39,"Velocity":69,"Duration":245921,"SoundDuration":245921,"Delta":90941455},{"NoteNumber":27,"Velocity":69,"Duration":245921,"SoundDuration":245921,"Delta":90941455},{"NoteNumber":86,"Velocity":60,"Duration":122961,"SoundDuration":122961,"Delta":91064416},{"NoteNumber":82,"Velocity":65,"Duration":107921,"SoundDuration":107921,"Delta":91187377},{"NoteNumber":75,"Velocity":65,"Duration":107921,"SoundDuration":107921,"Delta":91187377},{"NoteNumber":74,"Velocity":65,"Duration":107921,"SoundDuration":107921,"Delta":91187377},{"NoteNumber":48,"Velocity":77,"Duration":455881,"SoundDuration":455881,"Delta":91187377},{"NoteNumber":60,"Velocity":77,"Duration":455881,"SoundDuration":455881,"Delta":91187377},{"NoteNumber":86,"Velocity":59,"Duration":107921,"SoundDuration":107921,"Delta":91295299},{"NoteNumber":80,"Velocity":63,"Duration":120019,"SoundDuration":120019,"Delta":91403220},{"NoteNumber":75,"Velocity":63,"Duration":120019,"SoundDuration":120019,"Delta":91403220},{"NoteNumber":72,"Velocity":63,"Duration":120019,"SoundDuration":120019,"Delta":91403220},{"NoteNumber":84,"Velocity":57,"Duration":120019,"SoundDuration":120019,"Delta":91523240},{"NoteNumber":80,"Velocity":65,"Duration":120019,"SoundDuration":120019,"Delta":91643259},{"NoteNumber":75,"Velocity":65,"Duration":120019,"SoundDuration":120019,"Delta":91643259},{"NoteNumber":72,"Velocity":65,"Duration":120019,"SoundDuration":120019,"Delta":91643259},{"NoteNumber":63,"Velocity":77,"Duration":480077,"SoundDuration":480077,"Delta":91643259},{"NoteNumber":51,"Velocity":77,"Duration":480077,"SoundDuration":480077,"Delta":91643259},{"NoteNumber":84,"Velocity":57,"Duration":120019,"SoundDuration":120019,"Delta":91763278},{"NoteNumber":79,"Velocity":64,"Duration":120019,"SoundDuration":120019,"Delta":91883297},{"NoteNumber":75,"Velocity":64,"Duration":120019,"SoundDuration":120019,"Delta":91883297},{"NoteNumber":70,"Velocity":64,"Duration":120019,"SoundDuration":120019,"Delta":91883297},{"NoteNumber":39,"Velocity":70,"Duration":240038,"SoundDuration":240038,"Delta":91883297},{"NoteNumber":27,"Velocity":70,"Duration":240038,"SoundDuration":240038,"Delta":91883297},{"NoteNumber":82,"Velocity":56,"Duration":120019,"SoundDuration":120019,"Delta":92003317},{"NoteNumber":79,"Velocity":65,"Duration":116749,"SoundDuration":116749,"Delta":92123336},{"NoteNumber":75,"Velocity":65,"Duration":116749,"SoundDuration":116749,"Delta":92123336},{"NoteNumber":70,"Velocity":65,"Duration":116749,"SoundDuration":116749,"Delta":92123336},{"NoteNumber":46,"Velocity":88,"Duration":461790,"SoundDuration":461790,"Delta":92123336},{"NoteNumber":58,"Velocity":88,"Duration":461790,"SoundDuration":461790,"Delta":92123336},{"NoteNumber":82,"Velocity":57,"Duration":116749,"SoundDuration":116749,"Delta":92240086},{"NoteNumber":68,"Velocity":62,"Duration":116749,"SoundDuration":116749,"Delta":92356835},{"NoteNumber":75,"Velocity":62,"Duration":116749,"SoundDuration":116749,"Delta":92356835},{"NoteNumber":80,"Velocity":57,"Duration":111540,"SoundDuration":111540,"Delta":92473585},{"NoteNumber":68,"Velocity":66,"Duration":111540,"SoundDuration":111540,"Delta":92585126},{"NoteNumber":75,"Velocity":66,"Duration":111540,"SoundDuration":111540,"Delta":92585126},{"NoteNumber":48,"Velocity":81,"Duration":111540,"SoundDuration":111540,"Delta":92585126},{"NoteNumber":60,"Velocity":81,"Duration":111540,"SoundDuration":111540,"Delta":92585126},{"NoteNumber":80,"Velocity":57,"Duration":111821,"SoundDuration":111821,"Delta":92696667},{"NoteNumber":75,"Velocity":63,"Duration":112240,"SoundDuration":112240,"Delta":92808488},{"NoteNumber":67,"Velocity":63,"Duration":112240,"SoundDuration":112240,"Delta":92808488},{"NoteNumber":58,"Velocity":69,"Duration":112240,"SoundDuration":112240,"Delta":92808488},{"NoteNumber":46,"Velocity":69,"Duration":112240,"SoundDuration":112240,"Delta":92808488},{"NoteNumber":79,"Velocity":54,"Duration":112591,"SoundDuration":112591,"Delta":92920729},{"NoteNumber":70,"Velocity":63,"Duration":113015,"SoundDuration":113015,"Delta":93033320},{"NoteNumber":44,"Velocity":80,"Duration":113015,"SoundDuration":113015,"Delta":93033320},{"NoteNumber":56,"Velocity":80,"Duration":113015,"SoundDuration":113015,"Delta":93033320},{"NoteNumber":65,"Velocity":55,"Duration":113371,"SoundDuration":113371,"Delta":93146335},{"NoteNumber":72,"Velocity":63,"Duration":113801,"SoundDuration":113801,"Delta":93259707},{"NoteNumber":70,"Velocity":63,"Duration":113801,"SoundDuration":113801,"Delta":93259707},{"NoteNumber":55,"Velocity":69,"Duration":113801,"SoundDuration":113801,"Delta":93259707},{"NoteNumber":43,"Velocity":69,"Duration":113801,"SoundDuration":113801,"Delta":93259707},{"NoteNumber":60,"Velocity":55,"Duration":114234,"SoundDuration":114234,"Delta":93373508},{"NoteNumber":72,"Velocity":59,"Duration":118595,"SoundDuration":118595,"Delta":93487742},{"NoteNumber":70,"Velocity":59,"Duration":118595,"SoundDuration":118595,"Delta":93487742},{"NoteNumber":41,"Velocity":79,"Duration":474383,"SoundDuration":474383,"Delta":93487742},{"NoteNumber":53,"Velocity":79,"Duration":474383,"SoundDuration":474383,"Delta":93487742},{"NoteNumber":60,"Velocity":50,"Duration":118595,"SoundDuration":118595,"Delta":93606338},{"NoteNumber":74,"Velocity":58,"Duration":118595,"SoundDuration":118595,"Delta":93724934},{"NoteNumber":68,"Velocity":58,"Duration":118595,"SoundDuration":118595,"Delta":93724934},{"NoteNumber":62,"Velocity":53,"Duration":118595,"SoundDuration":118595,"Delta":93843530},{"NoteNumber":75,"Velocity":57,"Duration":112376,"SoundDuration":112376,"Delta":93962125},{"NoteNumber":67,"Velocity":57,"Duration":112376,"SoundDuration":112376,"Delta":93962125},{"NoteNumber":51,"Velocity":78,"Duration":224753,"SoundDuration":224753,"Delta":93962125},{"NoteNumber":39,"Velocity":78,"Duration":224753,"SoundDuration":224753,"Delta":93962125},{"NoteNumber":63,"Velocity":50,"Duration":112376,"SoundDuration":112376,"Delta":94074502},{"NoteNumber":75,"Velocity":57,"Duration":112376,"SoundDuration":112376,"Delta":94186878},{"NoteNumber":70,"Velocity":57,"Duration":112376,"SoundDuration":112376,"Delta":94186878},{"NoteNumber":63,"Velocity":50,"Duration":110310,"SoundDuration":110310,"Delta":94299255},{"NoteNumber":75,"Velocity":55,"Duration":110310,"SoundDuration":110310,"Delta":94409565},{"NoteNumber":70,"Velocity":55,"Duration":110310,"SoundDuration":110310,"Delta":94409565},{"NoteNumber":43,"Velocity":69,"Duration":436463,"SoundDuration":436463,"Delta":94409565},{"NoteNumber":55,"Velocity":69,"Duration":436463,"SoundDuration":436463,"Delta":94409565},{"NoteNumber":63,"Velocity":48,"Duration":110310,"SoundDuration":110310,"Delta":94519875},{"NoteNumber":77,"Velocity":56,"Duration":107921,"SoundDuration":107921,"Delta":94630186},{"NoteNumber":70,"Velocity":56,"Duration":107921,"SoundDuration":107921,"Delta":94630186},{"NoteNumber":65,"Velocity":51,"Duration":107921,"SoundDuration":107921,"Delta":94738107},{"NoteNumber":79,"Velocity":57,"Duration":101483,"SoundDuration":101483,"Delta":94846029},{"NoteNumber":67,"Velocity":57,"Duration":101483,"SoundDuration":101483,"Delta":94846029},{"NoteNumber":50,"Velocity":77,"Duration":442836,"SoundDuration":442836,"Delta":94846029},{"NoteNumber":38,"Velocity":77,"Duration":442836,"SoundDuration":442836,"Delta":94846029},{"NoteNumber":67,"Velocity":49,"Duration":101483,"SoundDuration":101483,"Delta":94956738},{"NoteNumber":67,"Velocity":56,"Duration":110709,"SoundDuration":110709,"Delta":95067447},{"NoteNumber":63,"Velocity":56,"Duration":110709,"SoundDuration":110709,"Delta":95067447},{"NoteNumber":58,"Velocity":48,"Duration":110709,"SoundDuration":110709,"Delta":95178156},{"NoteNumber":67,"Velocity":55,"Duration":111957,"SoundDuration":111957,"Delta":95288866},{"NoteNumber":63,"Velocity":55,"Duration":111957,"SoundDuration":111957,"Delta":95288866},{"NoteNumber":36,"Velocity":69,"Duration":447828,"SoundDuration":447828,"Delta":95288866},{"NoteNumber":48,"Velocity":69,"Duration":447828,"SoundDuration":447828,"Delta":95288866},{"NoteNumber":58,"Velocity":49,"Duration":111956,"SoundDuration":111956,"Delta":95400823},{"NoteNumber":65,"Velocity":57,"Duration":111957,"SoundDuration":111957,"Delta":95512780},{"NoteNumber":68,"Velocity":57,"Duration":111957,"SoundDuration":111957,"Delta":95512780},{"NoteNumber":60,"Velocity":49,"Duration":111957,"SoundDuration":111957,"Delta":95624737},{"NoteNumber":70,"Velocity":59,"Duration":116749,"SoundDuration":116749,"Delta":95736694},{"NoteNumber":67,"Velocity":59,"Duration":116749,"SoundDuration":116749,"Delta":95736694},{"NoteNumber":46,"Velocity":77,"Duration":687378,"SoundDuration":687378,"Delta":95736694},{"NoteNumber":34,"Velocity":77,"Duration":687378,"SoundDuration":687378,"Delta":95736694},{"NoteNumber":62,"Velocity":50,"Duration":116749,"SoundDuration":116749,"Delta":95853443},{"NoteNumber":63,"Velocity":58,"Duration":116749,"SoundDuration":116749,"Delta":95970193},{"NoteNumber":60,"Velocity":58,"Duration":116749,"SoundDuration":116749,"Delta":95970193},{"NoteNumber":55,"Velocity":51,"Duration":112376,"SoundDuration":112376,"Delta":96086943},{"NoteNumber":63,"Velocity":57,"Duration":112376,"SoundDuration":112376,"Delta":96199319},{"NoteNumber":60,"Velocity":57,"Duration":112376,"SoundDuration":112376,"Delta":96199319},{"NoteNumber":53,"Velocity":48,"Duration":112376,"SoundDuration":112376,"Delta":96311696},{"NoteNumber":63,"Velocity":56,"Duration":112376,"SoundDuration":112376,"Delta":96424072},{"NoteNumber":65,"Velocity":56,"Duration":112376,"SoundDuration":112376,"Delta":96424072},{"NoteNumber":32,"Velocity":60,"Duration":112376,"SoundDuration":112376,"Delta":96424072},{"NoteNumber":44,"Velocity":60,"Duration":112376,"SoundDuration":112376,"Delta":96424072},{"NoteNumber":60,"Velocity":48,"Duration":112376,"SoundDuration":112376,"Delta":96536449},{"NoteNumber":67,"Velocity":53,"Duration":116297,"SoundDuration":116297,"Delta":96648825},{"NoteNumber":63,"Velocity":53,"Duration":116297,"SoundDuration":116297,"Delta":96648825},{"NoteNumber":43,"Velocity":60,"Duration":116297,"SoundDuration":116297,"Delta":96648825},{"NoteNumber":31,"Velocity":60,"Duration":116297,"SoundDuration":116297,"Delta":96648825},{"NoteNumber":58,"Velocity":46,"Duration":116297,"SoundDuration":116297,"Delta":96765122},{"NoteNumber":60,"Velocity":52,"Duration":116296,"SoundDuration":116296,"Delta":96881419},{"NoteNumber":46,"Velocity":57,"Duration":116296,"SoundDuration":116296,"Delta":96881419},{"NoteNumber":34,"Velocity":57,"Duration":116296,"SoundDuration":116296,"Delta":96881419},{"NoteNumber":57,"Velocity":45,"Duration":116297,"SoundDuration":116297,"Delta":96997716},{"NoteNumber":60,"Velocity":49,"Duration":119540,"SoundDuration":119540,"Delta":97114013},{"NoteNumber":29,"Velocity":44,"Duration":239081,"SoundDuration":239081,"Delta":97114013},{"NoteNumber":41,"Velocity":44,"Duration":239081,"SoundDuration":239081,"Delta":97114013},{"NoteNumber":56,"Velocity":42,"Duration":119540,"SoundDuration":119540,"Delta":97233554},{"NoteNumber":62,"Velocity":46,"Duration":119540,"SoundDuration":119540,"Delta":97353095},{"NoteNumber":58,"Velocity":40,"Duration":119541,"SoundDuration":119541,"Delta":97472636},{"NoteNumber":55,"Velocity":45,"Duration":239081,"SoundDuration":239081,"Delta":97592177},{"NoteNumber":63,"Velocity":54,"Duration":239081,"SoundDuration":239081,"Delta":97592177},{"NoteNumber":27,"Velocity":46,"Duration":708084,"SoundDuration":708084,"Delta":97592177},{"NoteNumber":39,"Velocity":55,"Duration":708084,"SoundDuration":708084,"Delta":97592177},{"NoteNumber":51,"Velocity":31,"Duration":119540,"SoundDuration":119540,"Delta":97831259},{"NoteNumber":55,"Velocity":37,"Duration":119540,"SoundDuration":119540,"Delta":97831259},{"NoteNumber":58,"Velocity":31,"Duration":119540,"SoundDuration":119540,"Delta":97950800},{"NoteNumber":51,"Velocity":31,"Duration":114960,"SoundDuration":114960,"Delta":98070341},{"NoteNumber":55,"Velocity":37,"Duration":114960,"SoundDuration":114960,"Delta":98070341},{"NoteNumber":58,"Velocity":31,"Duration":114960,"SoundDuration":114960,"Delta":98185302},{"NoteNumber":56,"Velocity":41,"Duration":114960,"SoundDuration":114960,"Delta":98300262},{"NoteNumber":53,"Velocity":34,"Duration":114960,"SoundDuration":114960,"Delta":98300262},{"NoteNumber":34,"Velocity":39,"Duration":229920,"SoundDuration":229920,"Delta":98300262},{"NoteNumber":58,"Velocity":32,"Duration":114960,"SoundDuration":114960,"Delta":98415222},{"NoteNumber":51,"Velocity":31,"Duration":114960,"SoundDuration":114960,"Delta":98530182},{"NoteNumber":55,"Velocity":37,"Duration":114960,"SoundDuration":114960,"Delta":98530182},{"NoteNumber":39,"Velocity":38,"Duration":692930,"SoundDuration":692930,"Delta":98530182},{"NoteNumber":46,"Velocity":45,"Duration":692930,"SoundDuration":692930,"Delta":98530182},{"NoteNumber":58,"Velocity":32,"Duration":114960,"SoundDuration":114960,"Delta":98645143},{"NoteNumber":51,"Velocity":31,"Duration":114960,"SoundDuration":114960,"Delta":98760103},{"NoteNumber":55,"Velocity":37,"Duration":114960,"SoundDuration":114960,"Delta":98760103},{"NoteNumber":58,"Velocity":32,"Duration":114960,"SoundDuration":114960,"Delta":98875063},{"NoteNumber":51,"Velocity":31,"Duration":114960,"SoundDuration":114960,"Delta":98990023},{"NoteNumber":55,"Velocity":37,"Duration":114960,"SoundDuration":114960,"Delta":98990023},{"NoteNumber":58,"Velocity":30,"Duration":118128,"SoundDuration":118128,"Delta":99104984},{"NoteNumber":56,"Velocity":40,"Duration":118128,"SoundDuration":118128,"Delta":99223112},{"NoteNumber":53,"Velocity":34,"Duration":118128,"SoundDuration":118128,"Delta":99223112},{"NoteNumber":70,"Velocity":50,"Duration":118128,"SoundDuration":118128,"Delta":99223112},{"NoteNumber":58,"Velocity":33,"Duration":118128,"SoundDuration":118128,"Delta":99341241},{"NoteNumber":51,"Velocity":31,"Duration":114960,"SoundDuration":114960,"Delta":99459370},{"NoteNumber":55,"Velocity":37,"Duration":114960,"SoundDuration":114960,"Delta":99459370},{"NoteNumber":63,"Velocity":45,"Duration":459840,"SoundDuration":459840,"Delta":99459370},{"NoteNumber":58,"Velocity":30,"Duration":114960,"SoundDuration":114960,"Delta":99574330},{"NoteNumber":51,"Velocity":31,"Duration":114960,"SoundDuration":114960,"Delta":99689290},{"NoteNumber":55,"Velocity":37,"Duration":114960,"SoundDuration":114960,"Delta":99689290},{"NoteNumber":58,"Velocity":32,"Duration":114960,"SoundDuration":114960,"Delta":99804251},{"NoteNumber":51,"Velocity":31,"Duration":114960,"SoundDuration":114960,"Delta":99919211},{"NoteNumber":55,"Velocity":37,"Duration":114960,"SoundDuration":114960,"Delta":99919211},{"NoteNumber":34,"Velocity":45,"Duration":229920,"SoundDuration":229920,"Delta":99919211},{"NoteNumber":58,"Velocity":33,"Duration":114960,"SoundDuration":114960,"Delta":100034171},{"NoteNumber":56,"Velocity":41,"Duration":118128,"SoundDuration":118128,"Delta":100149131},{"NoteNumber":50,"Velocity":34,"Duration":118128,"SoundDuration":118128,"Delta":100149131},{"NoteNumber":46,"Velocity":39,"Duration":236257,"SoundDuration":236257,"Delta":100149131},{"NoteNumber":41,"Velocity":33,"Duration":236257,"SoundDuration":236257,"Delta":100149131},{"NoteNumber":58,"Velocity":32,"Duration":118128,"SoundDuration":118128,"Delta":100267260},{"NoteNumber":51,"Velocity":31,"Duration":114960,"SoundDuration":114960,"Delta":100385389},{"NoteNumber":55,"Velocity":37,"Duration":114960,"SoundDuration":114960,"Delta":100385389},{"NoteNumber":46,"Velocity":50,"Duration":459840,"SoundDuration":459840,"Delta":100385389},{"NoteNumber":39,"Velocity":42,"Duration":459840,"SoundDuration":459840,"Delta":100385389},{"NoteNumber":58,"Velocity":30,"Duration":114960,"SoundDuration":114960,"Delta":100500349},{"NoteNumber":51,"Velocity":31,"Duration":114960,"SoundDuration":114960,"Delta":100615309},{"NoteNumber":55,"Velocity":37,"Duration":114960,"SoundDuration":114960,"Delta":100615309},{"NoteNumber":58,"Velocity":32,"Duration":114960,"SoundDuration":114960,"Delta":100730270},{"NoteNumber":51,"Velocity":31,"Duration":133321,"SoundDuration":133321,"Delta":100845230},{"NoteNumber":55,"Velocity":37,"Duration":133321,"SoundDuration":133321,"Delta":100845230},{"NoteNumber":70,"Velocity":50,"Duration":133321,"SoundDuration":133321,"Delta":100845230},{"NoteNumber":58,"Velocity":32,"Duration":133321,"SoundDuration":133321,"Delta":100978551},{"NoteNumber":56,"Velocity":42,"Duration":142166,"SoundDuration":142166,"Delta":101111873},{"NoteNumber":53,"Velocity":35,"Duration":142166,"SoundDuration":142166,"Delta":101111873},{"NoteNumber":72,"Velocity":46,"Duration":142166,"SoundDuration":142166,"Delta":101111873},{"NoteNumber":58,"Velocity":35,"Duration":142166,"SoundDuration":142166,"Delta":101254039},{"NoteNumber":51,"Velocity":37,"Duration":320821,"SoundDuration":320821,"Delta":101396206},{"NoteNumber":55,"Velocity":37,"Duration":320821,"SoundDuration":320821,"Delta":101396206},{"NoteNumber":63,"Velocity":50,"Duration":320821,"SoundDuration":320821,"Delta":101396206},{"NoteNumber":80,"Velocity":32,"Duration":144017,"SoundDuration":144017,"Delta":101717027},{"NoteNumber":89,"Velocity":38,"Duration":144017,"SoundDuration":144017,"Delta":101717027},{"NoteNumber":27,"Velocity":35,"Duration":274207,"SoundDuration":274207,"Delta":101717027},{"NoteNumber":39,"Velocity":42,"Duration":274207,"SoundDuration":274207,"Delta":101717027},{"NoteNumber":91,"Velocity":34,"Duration":130190,"SoundDuration":130190,"Delta":101861045},{"NoteNumber":79,"Velocity":34,"Duration":123155,"SoundDuration":123155,"Delta":101991235},{"NoteNumber":87,"Velocity":41,"Duration":123155,"SoundDuration":123155,"Delta":101991235},{"NoteNumber":46,"Velocity":53,"Duration":243915,"SoundDuration":243915,"Delta":101991235},{"NoteNumber":34,"Velocity":44,"Duration":243915,"SoundDuration":243915,"Delta":101991235},{"NoteNumber":91,"Velocity":42,"Duration":120760,"SoundDuration":120760,"Delta":102114391},{"NoteNumber":80,"Velocity":40,"Duration":119724,"SoundDuration":119724,"Delta":102235151},{"NoteNumber":89,"Velocity":48,"Duration":119724,"SoundDuration":119724,"Delta":102235151},{"NoteNumber":51,"Velocity":54,"Duration":238415,"SoundDuration":238415,"Delta":102235151},{"NoteNumber":39,"Velocity":45,"Duration":238415,"SoundDuration":238415,"Delta":102235151},{"NoteNumber":91,"Velocity":45,"Duration":118690,"SoundDuration":118690,"Delta":102354876},{"NoteNumber":79,"Velocity":43,"Duration":116804,"SoundDuration":116804,"Delta":102473566},{"NoteNumber":87,"Velocity":51,"Duration":116804,"SoundDuration":116804,"Delta":102473566},{"NoteNumber":58,"Velocity":56,"Duration":231275,"SoundDuration":231275,"Delta":102473566},{"NoteNumber":46,"Velocity":47,"Duration":231275,"SoundDuration":231275,"Delta":102473566},{"NoteNumber":91,"Velocity":46,"Duration":114470,"SoundDuration":114470,"Delta":102590371},{"NoteNumber":80,"Velocity":48,"Duration":113876,"SoundDuration":113876,"Delta":102704842},{"NoteNumber":89,"Velocity":57,"Duration":113876,"SoundDuration":113876,"Delta":102704842},{"NoteNumber":60,"Velocity":60,"Duration":113876,"SoundDuration":113876,"Delta":102704842},{"NoteNumber":91,"Velocity":54,"Duration":113303,"SoundDuration":113303,"Delta":102818718},{"NoteNumber":63,"Velocity":63,"Duration":113303,"SoundDuration":113303,"Delta":102818718},{"NoteNumber":79,"Velocity":54,"Duration":112672,"SoundDuration":112672,"Delta":102932022},{"NoteNumber":87,"Velocity":64,"Duration":112672,"SoundDuration":112672,"Delta":102932022},{"NoteNumber":55,"Velocity":61,"Duration":112672,"SoundDuration":112672,"Delta":102932022},{"NoteNumber":67,"Velocity":73,"Duration":112672,"SoundDuration":112672,"Delta":102932022},{"NoteNumber":91,"Velocity":58,"Duration":112103,"SoundDuration":112103,"Delta":103044694},{"NoteNumber":89,"Velocity":68,"Duration":111555,"SoundDuration":111555,"Delta":103156798},{"NoteNumber":80,"Velocity":58,"Duration":111555,"SoundDuration":111555,"Delta":103156798},{"NoteNumber":58,"Velocity":62,"Duration":111555,"SoundDuration":111555,"Delta":103156798},{"NoteNumber":70,"Velocity":73,"Duration":111555,"SoundDuration":111555,"Delta":103156798},{"NoteNumber":91,"Velocity":61,"Duration":111127,"SoundDuration":111127,"Delta":103268353},{"NoteNumber":87,"Velocity":76,"Duration":111127,"SoundDuration":111127,"Delta":103379480},{"NoteNumber":79,"Velocity":64,"Duration":111127,"SoundDuration":111127,"Delta":103379480},{"NoteNumber":63,"Velocity":56,"Duration":111127,"SoundDuration":111127,"Delta":103379480},{"NoteNumber":75,"Velocity":78,"Duration":111127,"SoundDuration":111127,"Delta":103379480},{"NoteNumber":91,"Velocity":69,"Duration":111127,"SoundDuration":111127,"Delta":103490608},{"NoteNumber":80,"Velocity":67,"Duration":111127,"SoundDuration":111127,"Delta":103601735},{"NoteNumber":89,"Velocity":79,"Duration":111127,"SoundDuration":111127,"Delta":103601735},{"NoteNumber":58,"Velocity":55,"Duration":111127,"SoundDuration":111127,"Delta":103601735},{"NoteNumber":70,"Velocity":77,"Duration":111127,"SoundDuration":111127,"Delta":103601735},{"NoteNumber":91,"Velocity":70,"Duration":115402,"SoundDuration":115402,"Delta":103712863},{"NoteNumber":79,"Velocity":66,"Duration":242312,"SoundDuration":242312,"Delta":103828265},{"NoteNumber":87,"Velocity":78,"Duration":242312,"SoundDuration":242312,"Delta":103828265},{"NoteNumber":67,"Velocity":81,"Duration":128226,"SoundDuration":128226,"Delta":103828265},{"NoteNumber":55,"Velocity":57,"Duration":128226,"SoundDuration":128226,"Delta":103828265},{"NoteNumber":77,"Velocity":78,"Duration":114085,"SoundDuration":114085,"Delta":104070578},{"NoteNumber":68,"Velocity":66,"Duration":114085,"SoundDuration":114085,"Delta":104070578},{"NoteNumber":63,"Velocity":73,"Duration":114085,"SoundDuration":114085,"Delta":104070578},{"NoteNumber":51,"Velocity":62,"Duration":114085,"SoundDuration":114085,"Delta":104070578},{"NoteNumber":79,"Velocity":69,"Duration":114085,"SoundDuration":114085,"Delta":104184664},{"NoteNumber":75,"Velocity":78,"Duration":111957,"SoundDuration":111957,"Delta":104298749},{"NoteNumber":67,"Velocity":66,"Duration":111957,"SoundDuration":111957,"Delta":104298749},{"NoteNumber":48,"Velocity":68,"Duration":111957,"SoundDuration":111957,"Delta":104298749},{"NoteNumber":60,"Velocity":81,"Duration":111957,"SoundDuration":111957,"Delta":104298749},{"NoteNumber":79,"Velocity":69,"Duration":111956,"SoundDuration":111956,"Delta":104410706},{"NoteNumber":77,"Velocity":69,"Duration":111957,"SoundDuration":111957,"Delta":104522663},{"NoteNumber":68,"Velocity":58,"Duration":111957,"SoundDuration":111957,"Delta":104522663},{"NoteNumber":58,"Velocity":71,"Duration":111957,"SoundDuration":111957,"Delta":104522663},{"NoteNumber":46,"Velocity":60,"Duration":111957,"SoundDuration":111957,"Delta":104522663},{"NoteNumber":79,"Velocity":61,"Duration":111957,"SoundDuration":111957,"Delta":104634620},{"NoteNumber":55,"Velocity":63,"Duration":111957,"SoundDuration":111957,"Delta":104634620},{"NoteNumber":67,"Velocity":68,"Duration":241849,"SoundDuration":241849,"Delta":104746577},{"NoteNumber":75,"Velocity":81,"Duration":241849,"SoundDuration":241849,"Delta":104746577},{"NoteNumber":51,"Velocity":77,"Duration":111957,"SoundDuration":111957,"Delta":104746577},{"NoteNumber":65,"Velocity":73,"Duration":114085,"SoundDuration":114085,"Delta":104988427},{"NoteNumber":56,"Velocity":62,"Duration":114085,"SoundDuration":114085,"Delta":104988427},{"NoteNumber":48,"Velocity":76,"Duration":228171,"SoundDuration":228171,"Delta":104988427},{"NoteNumber":36,"Velocity":64,"Duration":228171,"SoundDuration":228171,"Delta":104988427},{"NoteNumber":67,"Velocity":64,"Duration":114085,"SoundDuration":114085,"Delta":105102513},{"NoteNumber":55,"Velocity":74,"Duration":483948,"SoundDuration":483948,"Delta":105216598},{"NoteNumber":63,"Velocity":89,"Duration":483948,"SoundDuration":483948,"Delta":105216598},{"NoteNumber":34,"Velocity":74,"Duration":483948,"SoundDuration":483948,"Delta":105216598},{"NoteNumber":46,"Velocity":89,"Duration":483948,"SoundDuration":483948,"Delta":105216598},{"NoteNumber":63,"Velocity":78,"Duration":483949,"SoundDuration":483949,"Delta":105700547},{"NoteNumber":67,"Velocity":78,"Duration":483949,"SoundDuration":483949,"Delta":105700547},{"NoteNumber":72,"Velocity":78,"Duration":483949,"SoundDuration":483949,"Delta":105700547},{"NoteNumber":75,"Velocity":92,"Duration":483949,"SoundDuration":483949,"Delta":105700547},{"NoteNumber":48,"Velocity":76,"Duration":483949,"SoundDuration":483949,"Delta":105700547},{"NoteNumber":51,"Velocity":76,"Duration":483949,"SoundDuration":483949,"Delta":105700547},{"NoteNumber":55,"Velocity":76,"Duration":483949,"SoundDuration":483949,"Delta":105700547},{"NoteNumber":60,"Velocity":91,"Duration":483949,"SoundDuration":483949,"Delta":105700547},{"NoteNumber":70,"Velocity":92,"Duration":397983,"SoundDuration":397983,"Delta":106184496},{"NoteNumber":67,"Velocity":78,"Duration":397983,"SoundDuration":397983,"Delta":106184496},{"NoteNumber":62,"Velocity":78,"Duration":397983,"SoundDuration":397983,"Delta":106184496},{"NoteNumber":58,"Velocity":78,"Duration":397983,"SoundDuration":397983,"Delta":106184496},{"NoteNumber":43,"Velocity":78,"Duration":397983,"SoundDuration":397983,"Delta":106184496},{"NoteNumber":46,"Velocity":78,"Duration":397983,"SoundDuration":397983,"Delta":106184496},{"NoteNumber":50,"Velocity":78,"Duration":397983,"SoundDuration":397983,"Delta":106184496},{"NoteNumber":55,"Velocity":92,"Duration":397983,"SoundDuration":397983,"Delta":106184496},{"NoteNumber":34,"Velocity":75,"Duration":132661,"SoundDuration":132661,"Delta":106582480},{"NoteNumber":46,"Velocity":84,"Duration":132661,"SoundDuration":132661,"Delta":106582480},{"NoteNumber":82,"Velocity":93,"Duration":573778,"SoundDuration":573778,"Delta":106715141},{"NoteNumber":77,"Velocity":79,"Duration":573778,"SoundDuration":573778,"Delta":106715141},{"NoteNumber":74,"Velocity":79,"Duration":573778,"SoundDuration":573778,"Delta":106715141},{"NoteNumber":70,"Velocity":79,"Duration":573778,"SoundDuration":573778,"Delta":106715141},{"NoteNumber":68,"Velocity":79,"Duration":573778,"SoundDuration":573778,"Delta":106715141},{"NoteNumber":53,"Velocity":81,"Duration":573778,"SoundDuration":573778,"Delta":106715141},{"NoteNumber":56,"Velocity":81,"Duration":573778,"SoundDuration":573778,"Delta":106715141},{"NoteNumber":58,"Velocity":81,"Duration":573778,"SoundDuration":573778,"Delta":106715141},{"NoteNumber":62,"Velocity":81,"Duration":573778,"SoundDuration":573778,"Delta":106715141},{"NoteNumber":65,"Velocity":96,"Duration":573778,"SoundDuration":573778,"Delta":106715141},{"NoteNumber":63,"Velocity":80,"Duration":241114,"SoundDuration":241114,"Delta":107288919},{"NoteNumber":67,"Velocity":80,"Duration":241114,"SoundDuration":241114,"Delta":107288919},{"NoteNumber":70,"Velocity":80,"Duration":241114,"SoundDuration":241114,"Delta":107288919},{"NoteNumber":75,"Velocity":95,"Duration":241114,"SoundDuration":241114,"Delta":107288919},{"NoteNumber":27,"Velocity":80,"Duration":241114,"SoundDuration":241114,"Delta":107288919},{"NoteNumber":39,"Velocity":95,"Duration":241114,"SoundDuration":241114,"Delta":107288919},{"NoteNumber":75,"Velocity":80,"Duration":62245,"SoundDuration":62245,"Delta":107556824},{"NoteNumber":70,"Velocity":66,"Duration":62245,"SoundDuration":62245,"Delta":107556824},{"NoteNumber":67,"Velocity":66,"Duration":62245,"SoundDuration":62245,"Delta":107556824},{"NoteNumber":63,"Velocity":66,"Duration":62245,"SoundDuration":62245,"Delta":107556824},{"NoteNumber":58,"Velocity":82,"Duration":62245,"SoundDuration":62245,"Delta":107556824},{"NoteNumber":55,"Velocity":69,"Duration":62245,"SoundDuration":62245,"Delta":107556824},{"NoteNumber":51,"Velocity":69,"Duration":62245,"SoundDuration":62245,"Delta":107556824},{"NoteNumber":46,"Velocity":69,"Duration":62245,"SoundDuration":62245,"Delta":107556824},{"NoteNumber":75,"Velocity":80,"Duration":73543,"SoundDuration":73543,"Delta":107681316},{"NoteNumber":70,"Velocity":66,"Duration":73543,"SoundDuration":73543,"Delta":107681316},{"NoteNumber":67,"Velocity":66,"Duration":73543,"SoundDuration":73543,"Delta":107681316},{"NoteNumber":63,"Velocity":66,"Duration":73543,"SoundDuration":73543,"Delta":107681316},{"NoteNumber":58,"Velocity":82,"Duration":73543,"SoundDuration":73543,"Delta":107681316},{"NoteNumber":55,"Velocity":69,"Duration":73543,"SoundDuration":73543,"Delta":107681316},{"NoteNumber":51,"Velocity":69,"Duration":73543,"SoundDuration":73543,"Delta":107681316},{"NoteNumber":46,"Velocity":69,"Duration":73543,"SoundDuration":73543,"Delta":107681316},{"NoteNumber":75,"Velocity":86,"Duration":588351,"SoundDuration":588351,"Delta":107828404},{"NoteNumber":70,"Velocity":72,"Duration":588351,"SoundDuration":588351,"Delta":107828404},{"NoteNumber":67,"Velocity":72,"Duration":588351,"SoundDuration":588351,"Delta":107828404},{"NoteNumber":63,"Velocity":72,"Duration":588351,"SoundDuration":588351,"Delta":107828404},{"NoteNumber":58,"Velocity":94,"Duration":588351,"SoundDuration":588351,"Delta":107828404},{"NoteNumber":55,"Velocity":80,"Duration":588351,"SoundDuration":588351,"Delta":107828404},{"NoteNumber":51,"Velocity":80,"Duration":588351,"SoundDuration":588351,"Delta":107828404},{"NoteNumber":46,"Velocity":80,"Duration":588351,"SoundDuration":588351,"Delta":107828404}],"license":{"name":"Creative Commons Attribution-ShareAlike 3.0 Germany","url":"http://creativecommons.org/licenses/by-sa/3.0/de/deed.en","text":"The MIDI, audio (MP3, OGG) and video files of Bernd Krueger are licensed under the cc-by-sa Germany License. This means that you can use and adapt the files, as long as you attribute the copyright holder.\n\nName: Bernd Krueger\nSource: http://www.piano-midi.de\n\nThe distribution or public playback of the files is only allowed under identical license conditions.\n\nThe scores are open source.","attribution":"MIDI files by Bernd Krueger (piano-midi.de)","attributionUrl":"http://www.piano-midi.de"}}