{"title":"Grave","artist":"Rachmaninoff","durationMs":143680,"midiSha256":"778c42822fe9c89a3c279b3cfd18b673cda2fd108d86c051a6e69957e955ee3b","midiObject":[{"NoteNumber":61,"Velocity":95,"Duration":1769424,"SoundDuration":1769424,"Delta":0},{"NoteNumber":49,"Velocity":90,"Duration":1769424,"SoundDuration":1769424,"Delta":0},{"NoteNumber":37,"Velocity":77,"Duration":1769424,"SoundDuration":1769424,"Delta":0},{"NoteNumber":52,"Velocity":69,"Duration":943693,"SoundDuration":943693,"Delta":929930},{"NoteNumber":64,"Velocity":82,"Duration":943693,"SoundDuration":943693,"Delta":937794},{"NoteNumber":73,"Velocity":98,"Duration":943693,"SoundDuration":943693,"Delta":943693},{"NoteNumber":68,"Velocity":82,"Duration":943693,"SoundDuration":943693,"Delta":943693},{"NoteNumber":56,"Velocity":69,"Duration":943693,"SoundDuration":943693,"Delta":943693},{"NoteNumber":51,"Velocity":92,"Duration":117961,"SoundDuration":117961,"Delta":1769424},{"NoteNumber":39,"Velocity":79,"Duration":117961,"SoundDuration":117961,"Delta":1769424},{"NoteNumber":27,"Velocity":66,"Duration":117961,"SoundDuration":117961,"Delta":1769424},{"NoteNumber":55,"Velocity":98,"Duration":1042028,"SoundDuration":1042028,"Delta":1887386},{"NoteNumber":43,"Velocity":88,"Duration":1042028,"SoundDuration":1042028,"Delta":1887386},{"NoteNumber":31,"Velocity":74,"Duration":1042028,"SoundDuration":1042028,"Delta":1887386},{"NoteNumber":73,"Velocity":75,"Duration":521014,"SoundDuration":521014,"Delta":2408400},{"NoteNumber":71,"Velocity":75,"Duration":521014,"SoundDuration":521014,"Delta":2408400},{"NoteNumber":76,"Velocity":90,"Duration":521014,"SoundDuration":521014,"Delta":2408400},{"NoteNumber":64,"Velocity":75,"Duration":521014,"SoundDuration":521014,"Delta":2408400},{"NoteNumber":61,"Velocity":84,"Duration":521014,"SoundDuration":521014,"Delta":2408400},{"NoteNumber":59,"Velocity":70,"Duration":521014,"SoundDuration":521014,"Delta":2408400},{"NoteNumber":52,"Velocity":70,"Duration":521014,"SoundDuration":521014,"Delta":2408400},{"NoteNumber":49,"Velocity":70,"Duration":521014,"SoundDuration":521014,"Delta":2408400},{"NoteNumber":66,"Velocity":95,"Duration":1769424,"SoundDuration":1769424,"Delta":3971441},{"NoteNumber":54,"Velocity":90,"Duration":1769424,"SoundDuration":1769424,"Delta":3971441},{"NoteNumber":42,"Velocity":77,"Duration":1769424,"SoundDuration":1769424,"Delta":3971441},{"NoteNumber":78,"Velocity":98,"Duration":943693,"SoundDuration":943693,"Delta":4915134},{"NoteNumber":73,"Velocity":82,"Duration":943693,"SoundDuration":943693,"Delta":4915134},{"NoteNumber":69,"Velocity":82,"Duration":943693,"SoundDuration":943693,"Delta":4915134},{"NoteNumber":57,"Velocity":69,"Duration":943693,"SoundDuration":943693,"Delta":4915134},{"NoteNumber":61,"Velocity":69,"Duration":943693,"SoundDuration":943693,"Delta":4915134},{"NoteNumber":56,"Velocity":92,"Duration":117961,"SoundDuration":117961,"Delta":5740866},{"NoteNumber":44,"Velocity":79,"Duration":117961,"SoundDuration":117961,"Delta":5740866},{"NoteNumber":32,"Velocity":66,"Duration":117961,"SoundDuration":117961,"Delta":5740866},{"NoteNumber":60,"Velocity":98,"Duration":1042028,"SoundDuration":1042028,"Delta":5858828},{"NoteNumber":48,"Velocity":88,"Duration":1042028,"SoundDuration":1042028,"Delta":5858828},{"NoteNumber":36,"Velocity":74,"Duration":1042028,"SoundDuration":1042028,"Delta":5858828},{"NoteNumber":78,"Velocity":75,"Duration":521014,"SoundDuration":521014,"Delta":6379842},{"NoteNumber":76,"Velocity":75,"Duration":521014,"SoundDuration":521014,"Delta":6379842},{"NoteNumber":81,"Velocity":90,"Duration":521014,"SoundDuration":521014,"Delta":6379842},{"NoteNumber":69,"Velocity":75,"Duration":521014,"SoundDuration":521014,"Delta":6379842},{"NoteNumber":66,"Velocity":84,"Duration":521014,"SoundDuration":521014,"Delta":6379842},{"NoteNumber":64,"Velocity":70,"Duration":521014,"SoundDuration":521014,"Delta":6379842},{"NoteNumber":57,"Velocity":70,"Duration":521014,"SoundDuration":521014,"Delta":6379842},{"NoteNumber":54,"Velocity":70,"Duration":521014,"SoundDuration":521014,"Delta":6379842},{"NoteNumber":76,"Velocity":95,"Duration":2222633,"SoundDuration":2222633,"Delta":7942883},{"NoteNumber":52,"Velocity":95,"Duration":2222633,"SoundDuration":2222633,"Delta":7942883},{"NoteNumber":64,"Velocity":95,"Duration":2222633,"SoundDuration":2222633,"Delta":7942883},{"NoteNumber":80,"Velocity":76,"Duration":1111316,"SoundDuration":1111316,"Delta":9054200},{"NoteNumber":82,"Velocity":91,"Duration":1111316,"SoundDuration":1111316,"Delta":9054200},{"NoteNumber":73,"Velocity":76,"Duration":1111316,"SoundDuration":1111316,"Delta":9054200},{"NoteNumber":70,"Velocity":76,"Duration":1111316,"SoundDuration":1111316,"Delta":9054200},{"NoteNumber":58,"Velocity":67,"Duration":1111316,"SoundDuration":1111316,"Delta":9054200},{"NoteNumber":56,"Velocity":67,"Duration":1111316,"SoundDuration":1111316,"Delta":9054200},{"NoteNumber":61,"Velocity":67,"Duration":1111316,"SoundDuration":1111316,"Delta":9054200},{"NoteNumber":68,"Velocity":78,"Duration":1111316,"SoundDuration":1111316,"Delta":9054200},{"NoteNumber":63,"Velocity":95,"Duration":2323682,"SoundDuration":2323682,"Delta":10165517},{"NoteNumber":75,"Velocity":95,"Duration":2323682,"SoundDuration":2323682,"Delta":10165517},{"NoteNumber":39,"Velocity":95,"Duration":2323682,"SoundDuration":2323682,"Delta":10165517},{"NoteNumber":51,"Velocity":95,"Duration":2323682,"SoundDuration":2323682,"Delta":10165517},{"NoteNumber":80,"Velocity":76,"Duration":1212365,"SoundDuration":1212365,"Delta":11276834},{"NoteNumber":78,"Velocity":76,"Duration":1212365,"SoundDuration":1212365,"Delta":11276834},{"NoteNumber":84,"Velocity":90,"Duration":1212365,"SoundDuration":1212365,"Delta":11276834},{"NoteNumber":72,"Velocity":76,"Duration":1212365,"SoundDuration":1212365,"Delta":11276834},{"NoteNumber":60,"Velocity":69,"Duration":1212365,"SoundDuration":1212365,"Delta":11276834},{"NoteNumber":56,"Velocity":69,"Duration":1212365,"SoundDuration":1212365,"Delta":11276834},{"NoteNumber":54,"Velocity":69,"Duration":1212365,"SoundDuration":1212365,"Delta":11276834},{"NoteNumber":66,"Velocity":82,"Duration":1212365,"SoundDuration":1212365,"Delta":11276834},{"NoteNumber":61,"Velocity":95,"Duration":2424732,"SoundDuration":2424732,"Delta":12489200},{"NoteNumber":73,"Velocity":95,"Duration":606183,"SoundDuration":606183,"Delta":12489200},{"NoteNumber":37,"Velocity":95,"Duration":2424732,"SoundDuration":2424732,"Delta":12489200},{"NoteNumber":49,"Velocity":95,"Duration":2424732,"SoundDuration":2424732,"Delta":12489200},{"NoteNumber":76,"Velocity":80,"Duration":1818548,"SoundDuration":1818548,"Delta":13095384},{"NoteNumber":80,"Velocity":80,"Duration":1818548,"SoundDuration":1818548,"Delta":13095384},{"NoteNumber":85,"Velocity":96,"Duration":1818548,"SoundDuration":1818548,"Delta":13095384},{"NoteNumber":73,"Velocity":80,"Duration":1818548,"SoundDuration":1818548,"Delta":13095384},{"NoteNumber":56,"Velocity":72,"Duration":1818548,"SoundDuration":1818548,"Delta":13095384},{"NoteNumber":52,"Velocity":72,"Duration":1818548,"SoundDuration":1818548,"Delta":13095384},{"NoteNumber":61,"Velocity":72,"Duration":1818548,"SoundDuration":1818548,"Delta":13095384},{"NoteNumber":64,"Velocity":86,"Duration":1818548,"SoundDuration":1818548,"Delta":13095384},{"NoteNumber":37,"Velocity":77,"Duration":250536,"SoundDuration":250536,"Delta":15641029},{"NoteNumber":25,"Velocity":77,"Duration":250536,"SoundDuration":250536,"Delta":15641029},{"NoteNumber":56,"Velocity":87,"Duration":168662,"SoundDuration":168662,"Delta":15891565},{"NoteNumber":44,"Velocity":87,"Duration":168662,"SoundDuration":168662,"Delta":15891565},{"NoteNumber":49,"Velocity":63,"Duration":167622,"SoundDuration":167622,"Delta":16060228},{"NoteNumber":44,"Velocity":69,"Duration":167043,"SoundDuration":167043,"Delta":16227850},{"NoteNumber":37,"Velocity":69,"Duration":165865,"SoundDuration":165865,"Delta":16394894},{"NoteNumber":25,"Velocity":62,"Duration":165080,"SoundDuration":165080,"Delta":16560759},{"NoteNumber":44,"Velocity":69,"Duration":164500,"SoundDuration":164500,"Delta":16725839},{"NoteNumber":64,"Velocity":81,"Duration":978111,"SoundDuration":978111,"Delta":16890340},{"NoteNumber":52,"Velocity":69,"Duration":978111,"SoundDuration":978111,"Delta":16890340},{"NoteNumber":56,"Velocity":80,"Duration":163158,"SoundDuration":163158,"Delta":16890340},{"NoteNumber":49,"Velocity":63,"Duration":163158,"SoundDuration":163158,"Delta":17053499},{"NoteNumber":44,"Velocity":68,"Duration":163158,"SoundDuration":163158,"Delta":17216658},{"NoteNumber":37,"Velocity":69,"Duration":163158,"SoundDuration":163158,"Delta":17379816},{"NoteNumber":25,"Velocity":62,"Duration":163158,"SoundDuration":163158,"Delta":17542975},{"NoteNumber":44,"Velocity":72,"Duration":162317,"SoundDuration":162317,"Delta":17706134},{"NoteNumber":64,"Velocity":86,"Duration":937443,"SoundDuration":937443,"Delta":17868451},{"NoteNumber":52,"Velocity":73,"Duration":937443,"SoundDuration":937443,"Delta":17868451},{"NoteNumber":56,"Velocity":85,"Duration":162202,"SoundDuration":162202,"Delta":17868451},{"NoteNumber":49,"Velocity":67,"Duration":159886,"SoundDuration":159886,"Delta":18030654},{"NoteNumber":44,"Velocity":74,"Duration":157414,"SoundDuration":157414,"Delta":18190540},{"NoteNumber":37,"Velocity":75,"Duration":155113,"SoundDuration":155113,"Delta":18347955},{"NoteNumber":25,"Velocity":66,"Duration":152990,"SoundDuration":152990,"Delta":18503068},{"NoteNumber":44,"Velocity":77,"Duration":149836,"SoundDuration":149836,"Delta":18656058},{"NoteNumber":64,"Velocity":83,"Duration":934684,"SoundDuration":934684,"Delta":18805895},{"NoteNumber":52,"Velocity":71,"Duration":934684,"SoundDuration":934684,"Delta":18805895},{"NoteNumber":56,"Velocity":83,"Duration":149723,"SoundDuration":149723,"Delta":18805895},{"NoteNumber":49,"Velocity":64,"Duration":149722,"SoundDuration":149722,"Delta":18955618},{"NoteNumber":44,"Velocity":67,"Duration":149723,"SoundDuration":149723,"Delta":19105341},{"NoteNumber":37,"Velocity":68,"Duration":161838,"SoundDuration":161838,"Delta":19255064},{"NoteNumber":25,"Velocity":58,"Duration":161838,"SoundDuration":161838,"Delta":19416902},{"NoteNumber":44,"Velocity":65,"Duration":161838,"SoundDuration":161838,"Delta":19578741},{"NoteNumber":64,"Velocity":77,"Duration":1033307,"SoundDuration":1033307,"Delta":19740579},{"NoteNumber":52,"Velocity":64,"Duration":1033307,"SoundDuration":1033307,"Delta":19740579},{"NoteNumber":56,"Velocity":76,"Duration":164500,"SoundDuration":164500,"Delta":19740579},{"NoteNumber":49,"Velocity":58,"Duration":164500,"SoundDuration":164500,"Delta":19905080},{"NoteNumber":44,"Velocity":63,"Duration":164500,"SoundDuration":164500,"Delta":20069581},{"NoteNumber":37,"Velocity":61,"Duration":164500,"SoundDuration":164500,"Delta":20234081},{"NoteNumber":25,"Velocity":54,"Duration":187652,"SoundDuration":187652,"Delta":20398582},{"NoteNumber":44,"Velocity":59,"Duration":187652,"SoundDuration":187652,"Delta":20586234},{"NoteNumber":61,"Velocity":68,"Duration":2028430,"SoundDuration":2028430,"Delta":20773887},{"NoteNumber":56,"Velocity":58,"Duration":1183335,"SoundDuration":1183335,"Delta":20773887},{"NoteNumber":49,"Velocity":68,"Duration":1020582,"SoundDuration":1020582,"Delta":20773887},{"NoteNumber":44,"Velocity":39,"Duration":170097,"SoundDuration":170097,"Delta":20943984},{"NoteNumber":65,"Velocity":44,"Duration":170096,"SoundDuration":170096,"Delta":21114081},{"NoteNumber":69,"Velocity":44,"Duration":170096,"SoundDuration":170096,"Delta":21114081},{"NoteNumber":77,"Velocity":52,"Duration":170096,"SoundDuration":170096,"Delta":21114081},{"NoteNumber":37,"Velocity":43,"Duration":170096,"SoundDuration":170096,"Delta":21114081},{"NoteNumber":64,"Velocity":44,"Duration":844600,"SoundDuration":844600,"Delta":21284178},{"NoteNumber":73,"Velocity":44,"Duration":844600,"SoundDuration":844600,"Delta":21284178},{"NoteNumber":76,"Velocity":53,"Duration":844600,"SoundDuration":844600,"Delta":21284178},{"NoteNumber":25,"Velocity":44,"Duration":170097,"SoundDuration":170097,"Delta":21284178},{"NoteNumber":37,"Velocity":39,"Duration":170096,"SoundDuration":170096,"Delta":21454275},{"NoteNumber":44,"Velocity":45,"Duration":170097,"SoundDuration":170097,"Delta":21624372},{"NoteNumber":56,"Velocity":50,"Duration":1007848,"SoundDuration":1007848,"Delta":21794469},{"NoteNumber":49,"Velocity":44,"Duration":171555,"SoundDuration":171555,"Delta":21957222},{"NoteNumber":65,"Velocity":49,"Duration":170407,"SoundDuration":170407,"Delta":22128778},{"NoteNumber":69,"Velocity":49,"Duration":170407,"SoundDuration":170407,"Delta":22128778},{"NoteNumber":77,"Velocity":58,"Duration":170407,"SoundDuration":170407,"Delta":22128778},{"NoteNumber":44,"Velocity":48,"Duration":170407,"SoundDuration":170407,"Delta":22128778},{"NoteNumber":64,"Velocity":51,"Duration":832449,"SoundDuration":832449,"Delta":22299185},{"NoteNumber":73,"Velocity":51,"Duration":832449,"SoundDuration":832449,"Delta":22299185},{"NoteNumber":76,"Velocity":61,"Duration":832449,"SoundDuration":832449,"Delta":22299185},{"NoteNumber":37,"Velocity":49,"Duration":168895,"SoundDuration":168895,"Delta":22299185},{"NoteNumber":25,"Velocity":43,"Duration":167851,"SoundDuration":167851,"Delta":22468081},{"NoteNumber":44,"Velocity":50,"Duration":166385,"SoundDuration":166385,"Delta":22635933},{"NoteNumber":56,"Velocity":55,"Duration":165370,"SoundDuration":165370,"Delta":22802318},{"NoteNumber":49,"Velocity":47,"Duration":163947,"SoundDuration":163947,"Delta":22967688},{"NoteNumber":65,"Velocity":55,"Duration":162531,"SoundDuration":162531,"Delta":23131635},{"NoteNumber":69,"Velocity":55,"Duration":162531,"SoundDuration":162531,"Delta":23131635},{"NoteNumber":77,"Velocity":66,"Duration":162531,"SoundDuration":162531,"Delta":23131635},{"NoteNumber":44,"Velocity":52,"Duration":162531,"SoundDuration":162531,"Delta":23131635},{"NoteNumber":64,"Velocity":57,"Duration":795610,"SoundDuration":795610,"Delta":23294167},{"NoteNumber":73,"Velocity":57,"Duration":795610,"SoundDuration":795610,"Delta":23294167},{"NoteNumber":76,"Velocity":68,"Duration":795610,"SoundDuration":795610,"Delta":23294167},{"NoteNumber":37,"Velocity":52,"Duration":161562,"SoundDuration":161562,"Delta":23294167},{"NoteNumber":25,"Velocity":47,"Duration":160203,"SoundDuration":160203,"Delta":23455729},{"NoteNumber":44,"Velocity":55,"Duration":159261,"SoundDuration":159261,"Delta":23615933},{"NoteNumber":56,"Velocity":58,"Duration":157940,"SoundDuration":157940,"Delta":23775194},{"NoteNumber":49,"Velocity":51,"Duration":156642,"SoundDuration":156642,"Delta":23933135},{"NoteNumber":65,"Velocity":61,"Duration":155545,"SoundDuration":155545,"Delta":24089777},{"NoteNumber":69,"Velocity":61,"Duration":155545,"SoundDuration":155545,"Delta":24089777},{"NoteNumber":77,"Velocity":73,"Duration":155545,"SoundDuration":155545,"Delta":24089777},{"NoteNumber":44,"Velocity":55,"Duration":155545,"SoundDuration":155545,"Delta":24089777},{"NoteNumber":64,"Velocity":63,"Duration":683654,"SoundDuration":683654,"Delta":24245323},{"NoteNumber":73,"Velocity":63,"Duration":683654,"SoundDuration":683654,"Delta":24245323},{"NoteNumber":76,"Velocity":75,"Duration":683654,"SoundDuration":683654,"Delta":24245323},{"NoteNumber":37,"Velocity":57,"Duration":154914,"SoundDuration":154914,"Delta":24245323},{"NoteNumber":25,"Velocity":50,"Duration":154344,"SoundDuration":154344,"Delta":24400238},{"NoteNumber":44,"Velocity":58,"Duration":152980,"SoundDuration":152980,"Delta":24554582},{"NoteNumber":56,"Velocity":64,"Duration":148062,"SoundDuration":148062,"Delta":24707563},{"NoteNumber":49,"Velocity":54,"Duration":146316,"SoundDuration":146316,"Delta":24855625},{"NoteNumber":65,"Velocity":67,"Duration":217381,"SoundDuration":217381,"Delta":24928977},{"NoteNumber":69,"Velocity":67,"Duration":217381,"SoundDuration":217381,"Delta":24928977},{"NoteNumber":77,"Velocity":81,"Duration":217381,"SoundDuration":217381,"Delta":24928977},{"NoteNumber":44,"Velocity":59,"Duration":144417,"SoundDuration":144417,"Delta":25001942},{"NoteNumber":64,"Velocity":68,"Duration":213205,"SoundDuration":213205,"Delta":25146359},{"NoteNumber":73,"Velocity":68,"Duration":213205,"SoundDuration":213205,"Delta":25146359},{"NoteNumber":76,"Velocity":81,"Duration":213205,"SoundDuration":213205,"Delta":25146359},{"NoteNumber":37,"Velocity":60,"Duration":142574,"SoundDuration":142574,"Delta":25146359},{"NoteNumber":25,"Velocity":54,"Duration":140781,"SoundDuration":140781,"Delta":25288933},{"NoteNumber":65,"Velocity":72,"Duration":209011,"SoundDuration":209011,"Delta":25359564},{"NoteNumber":69,"Velocity":72,"Duration":209011,"SoundDuration":209011,"Delta":25359564},{"NoteNumber":77,"Velocity":84,"Duration":209011,"SoundDuration":209011,"Delta":25359564},{"NoteNumber":44,"Velocity":62,"Duration":138861,"SoundDuration":138861,"Delta":25429714},{"NoteNumber":64,"Velocity":72,"Duration":205536,"SoundDuration":205536,"Delta":25568576},{"NoteNumber":73,"Velocity":72,"Duration":205536,"SoundDuration":205536,"Delta":25568576},{"NoteNumber":76,"Velocity":86,"Duration":205536,"SoundDuration":205536,"Delta":25568576},{"NoteNumber":56,"Velocity":65,"Duration":137372,"SoundDuration":137372,"Delta":25568576},{"NoteNumber":49,"Velocity":58,"Duration":135707,"SoundDuration":135707,"Delta":25705948},{"NoteNumber":65,"Velocity":74,"Duration":201599,"SoundDuration":201599,"Delta":25774112},{"NoteNumber":69,"Velocity":74,"Duration":201599,"SoundDuration":201599,"Delta":25774112},{"NoteNumber":77,"Velocity":87,"Duration":201599,"SoundDuration":201599,"Delta":25774112},{"NoteNumber":44,"Velocity":64,"Duration":134056,"SoundDuration":134056,"Delta":25841655},{"NoteNumber":64,"Velocity":75,"Duration":198042,"SoundDuration":198042,"Delta":25975712},{"NoteNumber":73,"Velocity":75,"Duration":198042,"SoundDuration":198042,"Delta":25975712},{"NoteNumber":76,"Velocity":90,"Duration":198042,"SoundDuration":198042,"Delta":25975712},{"NoteNumber":37,"Velocity":64,"Duration":132502,"SoundDuration":132502,"Delta":25975712},{"NoteNumber":25,"Velocity":58,"Duration":131078,"SoundDuration":131078,"Delta":26108214},{"NoteNumber":65,"Velocity":76,"Duration":197401,"SoundDuration":197401,"Delta":26173754},{"NoteNumber":69,"Velocity":76,"Duration":197401,"SoundDuration":197401,"Delta":26173754},{"NoteNumber":77,"Velocity":91,"Duration":197401,"SoundDuration":197401,"Delta":26173754},{"NoteNumber":44,"Velocity":65,"Duration":131862,"SoundDuration":131862,"Delta":26239293},{"NoteNumber":64,"Velocity":78,"Duration":200117,"SoundDuration":200117,"Delta":26371156},{"NoteNumber":73,"Velocity":78,"Duration":200117,"SoundDuration":200117,"Delta":26371156},{"NoteNumber":76,"Velocity":92,"Duration":200117,"SoundDuration":200117,"Delta":26371156},{"NoteNumber":56,"Velocity":70,"Duration":133263,"SoundDuration":133263,"Delta":26371156},{"NoteNumber":49,"Velocity":61,"Duration":133707,"SoundDuration":133707,"Delta":26504419},{"NoteNumber":65,"Velocity":81,"Duration":201394,"SoundDuration":201394,"Delta":26571273},{"NoteNumber":69,"Velocity":81,"Duration":201394,"SoundDuration":201394,"Delta":26571273},{"NoteNumber":77,"Velocity":95,"Duration":201394,"SoundDuration":201394,"Delta":26571273},{"NoteNumber":44,"Velocity":67,"Duration":134540,"SoundDuration":134540,"Delta":26638127},{"NoteNumber":64,"Velocity":81,"Duration":208957,"SoundDuration":208957,"Delta":26772667},{"NoteNumber":73,"Velocity":81,"Duration":208957,"SoundDuration":208957,"Delta":26772667},{"NoteNumber":76,"Velocity":96,"Duration":208957,"SoundDuration":208957,"Delta":26772667},{"NoteNumber":37,"Velocity":68,"Duration":136797,"SoundDuration":136797,"Delta":26772667},{"NoteNumber":25,"Velocity":60,"Duration":163418,"SoundDuration":163418,"Delta":26909464},{"NoteNumber":65,"Velocity":83,"Duration":273772,"SoundDuration":273772,"Delta":26981625},{"NoteNumber":69,"Velocity":83,"Duration":273772,"SoundDuration":273772,"Delta":26981625},{"NoteNumber":77,"Velocity":99,"Duration":273772,"SoundDuration":273772,"Delta":26981625},{"NoteNumber":44,"Velocity":68,"Duration":182514,"SoundDuration":182514,"Delta":27072882},{"NoteNumber":64,"Velocity":96,"Duration":482715,"SoundDuration":482715,"Delta":27255397},{"NoteNumber":73,"Velocity":96,"Duration":482715,"SoundDuration":482715,"Delta":27255397},{"NoteNumber":76,"Velocity":114,"Duration":482715,"SoundDuration":482715,"Delta":27255397},{"NoteNumber":56,"Velocity":85,"Duration":482715,"SoundDuration":482715,"Delta":27255397},{"NoteNumber":52,"Velocity":71,"Duration":482715,"SoundDuration":482715,"Delta":27255397},{"NoteNumber":49,"Velocity":71,"Duration":482715,"SoundDuration":482715,"Delta":27255397},{"NoteNumber":64,"Velocity":95,"Duration":1651462,"SoundDuration":1651462,"Delta":30088522},{"NoteNumber":52,"Velocity":90,"Duration":1651462,"SoundDuration":1651462,"Delta":30088522},{"NoteNumber":40,"Velocity":77,"Duration":1651462,"SoundDuration":1651462,"Delta":30088522},{"NoteNumber":73,"Velocity":80,"Duration":117961,"SoundDuration":117961,"Delta":30914253},{"NoteNumber":68,"Velocity":80,"Duration":117961,"SoundDuration":117961,"Delta":30914253},{"NoteNumber":61,"Velocity":68,"Duration":117961,"SoundDuration":117961,"Delta":30914253},{"NoteNumber":56,"Velocity":63,"Duration":117961,"SoundDuration":117961,"Delta":30914253},{"NoteNumber":49,"Velocity":53,"Duration":117961,"SoundDuration":117961,"Delta":30914253},{"NoteNumber":61,"Velocity":82,"Duration":943692,"SoundDuration":943692,"Delta":31032215},{"NoteNumber":73,"Velocity":98,"Duration":943692,"SoundDuration":943692,"Delta":31032215},{"NoteNumber":68,"Velocity":82,"Duration":943692,"SoundDuration":943692,"Delta":31032215},{"NoteNumber":56,"Velocity":82,"Duration":943692,"SoundDuration":943692,"Delta":31032215},{"NoteNumber":53,"Velocity":80,"Duration":78641,"SoundDuration":78641,"Delta":31739985},{"NoteNumber":41,"Velocity":68,"Duration":78641,"SoundDuration":78641,"Delta":31739985},{"NoteNumber":54,"Velocity":85,"Duration":78641,"SoundDuration":78641,"Delta":31818626},{"NoteNumber":42,"Velocity":72,"Duration":78641,"SoundDuration":78641,"Delta":31818626},{"NoteNumber":56,"Velocity":86,"Duration":78641,"SoundDuration":78641,"Delta":31897267},{"NoteNumber":44,"Velocity":76,"Duration":78641,"SoundDuration":78641,"Delta":31897267},{"NoteNumber":57,"Velocity":98,"Duration":1042028,"SoundDuration":1042028,"Delta":31975908},{"NoteNumber":45,"Velocity":88,"Duration":1042028,"SoundDuration":1042028,"Delta":31975908},{"NoteNumber":33,"Velocity":74,"Duration":1042028,"SoundDuration":1042028,"Delta":31975908},{"NoteNumber":81,"Velocity":75,"Duration":521014,"SoundDuration":521014,"Delta":32496922},{"NoteNumber":76,"Velocity":75,"Duration":521014,"SoundDuration":521014,"Delta":32496922},{"NoteNumber":85,"Velocity":90,"Duration":521014,"SoundDuration":521014,"Delta":32496922},{"NoteNumber":73,"Velocity":75,"Duration":521014,"SoundDuration":521014,"Delta":32496922},{"NoteNumber":64,"Velocity":84,"Duration":521014,"SoundDuration":521014,"Delta":32496922},{"NoteNumber":61,"Velocity":70,"Duration":521014,"SoundDuration":521014,"Delta":32496922},{"NoteNumber":57,"Velocity":70,"Duration":521014,"SoundDuration":521014,"Delta":32496922},{"NoteNumber":52,"Velocity":70,"Duration":521014,"SoundDuration":521014,"Delta":32496922},{"NoteNumber":61,"Velocity":84,"Duration":1651462,"SoundDuration":1651462,"Delta":34059964},{"NoteNumber":73,"Velocity":95,"Duration":1651462,"SoundDuration":1651462,"Delta":34059964},{"NoteNumber":49,"Velocity":90,"Duration":1651462,"SoundDuration":1651462,"Delta":34059964},{"NoteNumber":76,"Velocity":80,"Duration":117961,"SoundDuration":117961,"Delta":34885695},{"NoteNumber":69,"Velocity":80,"Duration":117961,"SoundDuration":117961,"Delta":34885695},{"NoteNumber":64,"Velocity":68,"Duration":117961,"SoundDuration":117961,"Delta":34885695},{"NoteNumber":57,"Velocity":63,"Duration":117961,"SoundDuration":117961,"Delta":34885695},{"NoteNumber":52,"Velocity":53,"Duration":117961,"SoundDuration":117961,"Delta":34885695},{"NoteNumber":64,"Velocity":82,"Duration":865051,"SoundDuration":865051,"Delta":35003657},{"NoteNumber":76,"Velocity":98,"Duration":943692,"SoundDuration":943692,"Delta":35003657},{"NoteNumber":69,"Velocity":82,"Duration":943692,"SoundDuration":943692,"Delta":35003657},{"NoteNumber":52,"Velocity":69,"Duration":865051,"SoundDuration":865051,"Delta":35003657},{"NoteNumber":57,"Velocity":82,"Duration":943692,"SoundDuration":943692,"Delta":35003657},{"NoteNumber":49,"Velocity":69,"Duration":943692,"SoundDuration":943692,"Delta":35003657},{"NoteNumber":63,"Velocity":80,"Duration":78641,"SoundDuration":78641,"Delta":35711427},{"NoteNumber":51,"Velocity":68,"Duration":78641,"SoundDuration":78641,"Delta":35711427},{"NoteNumber":64,"Velocity":85,"Duration":157282,"SoundDuration":157282,"Delta":35790068},{"NoteNumber":52,"Velocity":72,"Duration":157282,"SoundDuration":157282,"Delta":35790068},{"NoteNumber":66,"Velocity":86,"Duration":78641,"SoundDuration":78641,"Delta":35868709},{"NoteNumber":54,"Velocity":76,"Duration":78641,"SoundDuration":78641,"Delta":35868709},{"NoteNumber":67,"Velocity":98,"Duration":1042028,"SoundDuration":1042028,"Delta":35947350},{"NoteNumber":55,"Velocity":88,"Duration":1042028,"SoundDuration":1042028,"Delta":35947350},{"NoteNumber":43,"Velocity":74,"Duration":1042028,"SoundDuration":1042028,"Delta":35947350},{"NoteNumber":85,"Velocity":75,"Duration":521014,"SoundDuration":521014,"Delta":36468364},{"NoteNumber":83,"Velocity":75,"Duration":521014,"SoundDuration":521014,"Delta":36468364},{"NoteNumber":88,"Velocity":90,"Duration":521014,"SoundDuration":521014,"Delta":36468364},{"NoteNumber":76,"Velocity":75,"Duration":521014,"SoundDuration":521014,"Delta":36468364},{"NoteNumber":71,"Velocity":84,"Duration":521014,"SoundDuration":521014,"Delta":36468364},{"NoteNumber":64,"Velocity":70,"Duration":521014,"SoundDuration":521014,"Delta":36468364},{"NoteNumber":61,"Velocity":70,"Duration":521014,"SoundDuration":521014,"Delta":36468364},{"NoteNumber":71,"Velocity":77,"Duration":86835,"SoundDuration":86835,"Delta":37770899},{"NoteNumber":47,"Velocity":72,"Duration":86835,"SoundDuration":86835,"Delta":37770899},{"NoteNumber":59,"Velocity":72,"Duration":86835,"SoundDuration":86835,"Delta":37770899},{"NoteNumber":76,"Velocity":79,"Duration":86835,"SoundDuration":86835,"Delta":37857735},{"NoteNumber":64,"Velocity":78,"Duration":86835,"SoundDuration":86835,"Delta":37857735},{"NoteNumber":79,"Velocity":80,"Duration":86835,"SoundDuration":86835,"Delta":37944570},{"NoteNumber":67,"Velocity":80,"Duration":86835,"SoundDuration":86835,"Delta":37944570},{"NoteNumber":83,"Velocity":95,"Duration":2222633,"SoundDuration":2222633,"Delta":38031406},{"NoteNumber":59,"Velocity":95,"Duration":2222633,"SoundDuration":2222633,"Delta":38031406},{"NoteNumber":71,"Velocity":95,"Duration":2222633,"SoundDuration":2222633,"Delta":38031406},{"NoteNumber":89,"Velocity":91,"Duration":1111316,"SoundDuration":1111316,"Delta":39142723},{"NoteNumber":87,"Velocity":76,"Duration":1111316,"SoundDuration":1111316,"Delta":39142723},{"NoteNumber":80,"Velocity":76,"Duration":1111316,"SoundDuration":1111316,"Delta":39142723},{"NoteNumber":77,"Velocity":76,"Duration":1111316,"SoundDuration":1111316,"Delta":39142723},{"NoteNumber":65,"Velocity":67,"Duration":1111316,"SoundDuration":1111316,"Delta":39142723},{"NoteNumber":63,"Velocity":67,"Duration":1111316,"SoundDuration":1111316,"Delta":39142723},{"NoteNumber":68,"Velocity":67,"Duration":1111316,"SoundDuration":1111316,"Delta":39142723},{"NoteNumber":75,"Velocity":78,"Duration":1111316,"SoundDuration":1111316,"Delta":39142723},{"NoteNumber":82,"Velocity":95,"Duration":2323683,"SoundDuration":2323683,"Delta":40254040},{"NoteNumber":58,"Velocity":95,"Duration":2323683,"SoundDuration":2323683,"Delta":40254040},{"NoteNumber":70,"Velocity":95,"Duration":2323683,"SoundDuration":2323683,"Delta":40254040},{"NoteNumber":87,"Velocity":76,"Duration":1212366,"SoundDuration":1212366,"Delta":41365357},{"NoteNumber":85,"Velocity":76,"Duration":1212366,"SoundDuration":1212366,"Delta":41365357},{"NoteNumber":91,"Velocity":90,"Duration":1212366,"SoundDuration":1212366,"Delta":41365357},{"NoteNumber":79,"Velocity":76,"Duration":1212366,"SoundDuration":1212366,"Delta":41365357},{"NoteNumber":61,"Velocity":69,"Duration":1212366,"SoundDuration":1212366,"Delta":41365357},{"NoteNumber":67,"Velocity":69,"Duration":1212366,"SoundDuration":1212366,"Delta":41365357},{"NoteNumber":63,"Velocity":69,"Duration":1212366,"SoundDuration":1212366,"Delta":41365357},{"NoteNumber":73,"Velocity":82,"Duration":1212366,"SoundDuration":1212366,"Delta":41365357},{"NoteNumber":68,"Velocity":87,"Duration":3637097,"SoundDuration":3637097,"Delta":42577723},{"NoteNumber":75,"Velocity":87,"Duration":3637097,"SoundDuration":3637097,"Delta":42577723},{"NoteNumber":80,"Velocity":95,"Duration":580925,"SoundDuration":580925,"Delta":42577723},{"NoteNumber":56,"Velocity":87,"Duration":3637097,"SoundDuration":3637097,"Delta":42577723},{"NoteNumber":63,"Velocity":87,"Duration":3637097,"SoundDuration":3637097,"Delta":42577723},{"NoteNumber":71,"Velocity":95,"Duration":2424731,"SoundDuration":2424731,"Delta":42577723},{"NoteNumber":80,"Velocity":84,"Duration":3030915,"SoundDuration":3030915,"Delta":43183906},{"NoteNumber":87,"Velocity":84,"Duration":3030915,"SoundDuration":3030915,"Delta":43183906},{"NoteNumber":92,"Velocity":101,"Duration":3030915,"SoundDuration":3030915,"Delta":43183906},{"NoteNumber":68,"Velocity":75,"Duration":3030915,"SoundDuration":3030915,"Delta":43183906},{"NoteNumber":75,"Velocity":75,"Duration":3030915,"SoundDuration":3030915,"Delta":43183906},{"NoteNumber":83,"Velocity":90,"Duration":3030915,"SoundDuration":3030915,"Delta":43183906},{"NoteNumber":88,"Velocity":84,"Duration":127685,"SoundDuration":127685,"Delta":46517913},{"NoteNumber":76,"Velocity":71,"Duration":127685,"SoundDuration":127685,"Delta":46517913},{"NoteNumber":87,"Velocity":76,"Duration":126005,"SoundDuration":126005,"Delta":46645598},{"NoteNumber":75,"Velocity":64,"Duration":126005,"SoundDuration":126005,"Delta":46645598},{"NoteNumber":85,"Velocity":78,"Duration":124059,"SoundDuration":124059,"Delta":46771603},{"NoteNumber":73,"Velocity":66,"Duration":124059,"SoundDuration":124059,"Delta":46771603},{"NoteNumber":83,"Velocity":75,"Duration":121910,"SoundDuration":121910,"Delta":46895663},{"NoteNumber":71,"Velocity":63,"Duration":121910,"SoundDuration":121910,"Delta":46895663},{"NoteNumber":82,"Velocity":81,"Duration":119830,"SoundDuration":119830,"Delta":47017574},{"NoteNumber":70,"Velocity":68,"Duration":119830,"SoundDuration":119830,"Delta":47017574},{"NoteNumber":80,"Velocity":73,"Duration":118070,"SoundDuration":118070,"Delta":47137404},{"NoteNumber":68,"Velocity":62,"Duration":118070,"SoundDuration":118070,"Delta":47137404},{"NoteNumber":79,"Velocity":76,"Duration":116121,"SoundDuration":116121,"Delta":47255475},{"NoteNumber":67,"Velocity":64,"Duration":116121,"SoundDuration":116121,"Delta":47255475},{"NoteNumber":80,"Velocity":74,"Duration":147783,"SoundDuration":147783,"Delta":47371597},{"NoteNumber":68,"Velocity":62,"Duration":147783,"SoundDuration":147783,"Delta":47371597},{"NoteNumber":88,"Velocity":84,"Duration":126404,"SoundDuration":126404,"Delta":47519380},{"NoteNumber":76,"Velocity":71,"Duration":126404,"SoundDuration":126404,"Delta":47519380},{"NoteNumber":87,"Velocity":76,"Duration":118510,"SoundDuration":118510,"Delta":47645785},{"NoteNumber":75,"Velocity":64,"Duration":118510,"SoundDuration":118510,"Delta":47645785},{"NoteNumber":85,"Velocity":77,"Duration":115056,"SoundDuration":115056,"Delta":47764295},{"NoteNumber":73,"Velocity":65,"Duration":115056,"SoundDuration":115056,"Delta":47764295},{"NoteNumber":83,"Velocity":71,"Duration":111853,"SoundDuration":111853,"Delta":47879352},{"NoteNumber":71,"Velocity":60,"Duration":111853,"SoundDuration":111853,"Delta":47879352},{"NoteNumber":82,"Velocity":81,"Duration":108853,"SoundDuration":108853,"Delta":47991206},{"NoteNumber":70,"Velocity":68,"Duration":108853,"SoundDuration":108853,"Delta":47991206},{"NoteNumber":80,"Velocity":81,"Duration":108287,"SoundDuration":108287,"Delta":48100059},{"NoteNumber":68,"Velocity":68,"Duration":108287,"SoundDuration":108287,"Delta":48100059},{"NoteNumber":78,"Velocity":81,"Duration":107512,"SoundDuration":107512,"Delta":48208347},{"NoteNumber":66,"Velocity":68,"Duration":107512,"SoundDuration":107512,"Delta":48208347},{"NoteNumber":76,"Velocity":79,"Duration":106748,"SoundDuration":106748,"Delta":48315860},{"NoteNumber":64,"Velocity":67,"Duration":106748,"SoundDuration":106748,"Delta":48315860},{"NoteNumber":75,"Velocity":78,"Duration":106148,"SoundDuration":106148,"Delta":48422608},{"NoteNumber":63,"Velocity":66,"Duration":106148,"SoundDuration":106148,"Delta":48422608},{"NoteNumber":73,"Velocity":77,"Duration":105412,"SoundDuration":105412,"Delta":48528757},{"NoteNumber":61,"Velocity":65,"Duration":105412,"SoundDuration":105412,"Delta":48528757},{"NoteNumber":71,"Velocity":77,"Duration":104675,"SoundDuration":104675,"Delta":48634169},{"NoteNumber":59,"Velocity":65,"Duration":104675,"SoundDuration":104675,"Delta":48634169},{"NoteNumber":70,"Velocity":76,"Duration":103806,"SoundDuration":103806,"Delta":48738844},{"NoteNumber":58,"Velocity":64,"Duration":103806,"SoundDuration":103806,"Delta":48738844},{"NoteNumber":69,"Velocity":73,"Duration":103245,"SoundDuration":103245,"Delta":48842651},{"NoteNumber":57,"Velocity":62,"Duration":103245,"SoundDuration":103245,"Delta":48842651},{"NoteNumber":68,"Velocity":71,"Duration":102544,"SoundDuration":102544,"Delta":48945896},{"NoteNumber":56,"Velocity":60,"Duration":102544,"SoundDuration":102544,"Delta":48945896},{"NoteNumber":67,"Velocity":69,"Duration":102706,"SoundDuration":102706,"Delta":49048441},{"NoteNumber":55,"Velocity":58,"Duration":102706,"SoundDuration":102706,"Delta":49048441},{"NoteNumber":68,"Velocity":71,"Duration":125607,"SoundDuration":125607,"Delta":49151147},{"NoteNumber":56,"Velocity":60,"Duration":125607,"SoundDuration":125607,"Delta":49151147},{"NoteNumber":76,"Velocity":83,"Duration":108331,"SoundDuration":108331,"Delta":49276754},{"NoteNumber":64,"Velocity":70,"Duration":108331,"SoundDuration":108331,"Delta":49276754},{"NoteNumber":75,"Velocity":80,"Duration":99694,"SoundDuration":99694,"Delta":49385086},{"NoteNumber":63,"Velocity":68,"Duration":99694,"SoundDuration":99694,"Delta":49385086},{"NoteNumber":73,"Velocity":78,"Duration":98905,"SoundDuration":98905,"Delta":49484780},{"NoteNumber":61,"Velocity":66,"Duration":98905,"SoundDuration":98905,"Delta":49484780},{"NoteNumber":71,"Velocity":78,"Duration":98517,"SoundDuration":98517,"Delta":49583686},{"NoteNumber":59,"Velocity":66,"Duration":98517,"SoundDuration":98517,"Delta":49583686},{"NoteNumber":70,"Velocity":76,"Duration":98129,"SoundDuration":98129,"Delta":49682203},{"NoteNumber":58,"Velocity":64,"Duration":98129,"SoundDuration":98129,"Delta":49682203},{"NoteNumber":68,"Velocity":73,"Duration":97492,"SoundDuration":97492,"Delta":49780332},{"NoteNumber":56,"Velocity":62,"Duration":97492,"SoundDuration":97492,"Delta":49780332},{"NoteNumber":66,"Velocity":73,"Duration":97117,"SoundDuration":97117,"Delta":49877824},{"NoteNumber":54,"Velocity":62,"Duration":97117,"SoundDuration":97117,"Delta":49877824},{"NoteNumber":64,"Velocity":70,"Duration":96624,"SoundDuration":96624,"Delta":49974942},{"NoteNumber":52,"Velocity":59,"Duration":96624,"SoundDuration":96624,"Delta":49974942},{"NoteNumber":63,"Velocity":72,"Duration":96130,"SoundDuration":96130,"Delta":50071567},{"NoteNumber":51,"Velocity":61,"Duration":96130,"SoundDuration":96130,"Delta":50071567},{"NoteNumber":61,"Velocity":72,"Duration":95761,"SoundDuration":95761,"Delta":50167697},{"NoteNumber":49,"Velocity":61,"Duration":95761,"SoundDuration":95761,"Delta":50167697},{"NoteNumber":59,"Velocity":72,"Duration":95153,"SoundDuration":95153,"Delta":50263459},{"NoteNumber":47,"Velocity":61,"Duration":95153,"SoundDuration":95153,"Delta":50263459},{"NoteNumber":58,"Velocity":72,"Duration":94799,"SoundDuration":94799,"Delta":50358612},{"NoteNumber":46,"Velocity":61,"Duration":94799,"SoundDuration":94799,"Delta":50358612},{"NoteNumber":57,"Velocity":71,"Duration":94446,"SoundDuration":94446,"Delta":50453412},{"NoteNumber":45,"Velocity":60,"Duration":94446,"SoundDuration":94446,"Delta":50453412},{"NoteNumber":56,"Velocity":70,"Duration":93738,"SoundDuration":93738,"Delta":50547859},{"NoteNumber":44,"Velocity":59,"Duration":93738,"SoundDuration":93738,"Delta":50547859},{"NoteNumber":55,"Velocity":70,"Duration":93986,"SoundDuration":93986,"Delta":50641597},{"NoteNumber":43,"Velocity":59,"Duration":93986,"SoundDuration":93986,"Delta":50641597},{"NoteNumber":56,"Velocity":70,"Duration":117389,"SoundDuration":117389,"Delta":50735584},{"NoteNumber":44,"Velocity":59,"Duration":117389,"SoundDuration":117389,"Delta":50735584},{"NoteNumber":64,"Velocity":72,"Duration":102393,"SoundDuration":102393,"Delta":50852973},{"NoteNumber":52,"Velocity":61,"Duration":102393,"SoundDuration":102393,"Delta":50852973},{"NoteNumber":63,"Velocity":69,"Duration":94446,"SoundDuration":94446,"Delta":50955367},{"NoteNumber":51,"Velocity":58,"Duration":94446,"SoundDuration":94446,"Delta":50955367},{"NoteNumber":61,"Velocity":68,"Duration":92927,"SoundDuration":92927,"Delta":51049813},{"NoteNumber":49,"Velocity":57,"Duration":92927,"SoundDuration":92927,"Delta":51049813},{"NoteNumber":59,"Velocity":64,"Duration":91353,"SoundDuration":91353,"Delta":51142740},{"NoteNumber":47,"Velocity":54,"Duration":91353,"SoundDuration":91353,"Delta":51142740},{"NoteNumber":53,"Velocity":62,"Duration":93256,"SoundDuration":93256,"Delta":51234094},{"NoteNumber":41,"Velocity":52,"Duration":93256,"SoundDuration":93256,"Delta":51234094},{"NoteNumber":54,"Velocity":62,"Duration":111160,"SoundDuration":111160,"Delta":51327350},{"NoteNumber":42,"Velocity":52,"Duration":111160,"SoundDuration":111160,"Delta":51327350},{"NoteNumber":62,"Velocity":72,"Duration":98622,"SoundDuration":98622,"Delta":51438510},{"NoteNumber":50,"Velocity":61,"Duration":98622,"SoundDuration":98622,"Delta":51438510},{"NoteNumber":61,"Velocity":68,"Duration":92353,"SoundDuration":92353,"Delta":51537133},{"NoteNumber":49,"Velocity":57,"Duration":92353,"SoundDuration":92353,"Delta":51537133},{"NoteNumber":59,"Velocity":66,"Duration":92353,"SoundDuration":92353,"Delta":51629486},{"NoteNumber":47,"Velocity":56,"Duration":92353,"SoundDuration":92353,"Delta":51629486},{"NoteNumber":57,"Velocity":63,"Duration":92353,"SoundDuration":92353,"Delta":51721839},{"NoteNumber":45,"Velocity":53,"Duration":92353,"SoundDuration":92353,"Delta":51721839},{"NoteNumber":52,"Velocity":62,"Duration":92242,"SoundDuration":92242,"Delta":51814192},{"NoteNumber":40,"Velocity":52,"Duration":92242,"SoundDuration":92242,"Delta":51814192},{"NoteNumber":54,"Velocity":61,"Duration":112157,"SoundDuration":112157,"Delta":51906434},{"NoteNumber":42,"Velocity":51,"Duration":112157,"SoundDuration":112157,"Delta":51906434},{"NoteNumber":61,"Velocity":71,"Duration":93152,"SoundDuration":93152,"Delta":52018592},{"NoteNumber":49,"Velocity":60,"Duration":93152,"SoundDuration":93152,"Delta":52018592},{"NoteNumber":59,"Velocity":68,"Duration":91687,"SoundDuration":91687,"Delta":52111745},{"NoteNumber":47,"Velocity":57,"Duration":91687,"SoundDuration":91687,"Delta":52111745},{"NoteNumber":57,"Velocity":69,"Duration":92589,"SoundDuration":92589,"Delta":52203432},{"NoteNumber":45,"Velocity":58,"Duration":92589,"SoundDuration":92589,"Delta":52203432},{"NoteNumber":56,"Velocity":66,"Duration":93156,"SoundDuration":93156,"Delta":52296021},{"NoteNumber":44,"Velocity":56,"Duration":93156,"SoundDuration":93156,"Delta":52296021},{"NoteNumber":54,"Velocity":65,"Duration":93738,"SoundDuration":93738,"Delta":52389178},{"NoteNumber":42,"Velocity":55,"Duration":93738,"SoundDuration":93738,"Delta":52389178},{"NoteNumber":52,"Velocity":63,"Duration":94210,"SoundDuration":94210,"Delta":52482916},{"NoteNumber":40,"Velocity":53,"Duration":94210,"SoundDuration":94210,"Delta":52482916},{"NoteNumber":50,"Velocity":61,"Duration":94682,"SoundDuration":94682,"Delta":52577127},{"NoteNumber":38,"Velocity":51,"Duration":94682,"SoundDuration":94682,"Delta":52577127},{"NoteNumber":51,"Velocity":59,"Duration":113156,"SoundDuration":113156,"Delta":52671809},{"NoteNumber":39,"Velocity":50,"Duration":113156,"SoundDuration":113156,"Delta":52671809},{"NoteNumber":59,"Velocity":70,"Duration":99749,"SoundDuration":99749,"Delta":52784965},{"NoteNumber":47,"Velocity":59,"Duration":99749,"SoundDuration":99749,"Delta":52784965},{"NoteNumber":58,"Velocity":70,"Duration":95763,"SoundDuration":95763,"Delta":52884715},{"NoteNumber":46,"Velocity":59,"Duration":95763,"SoundDuration":95763,"Delta":52884715},{"NoteNumber":56,"Velocity":68,"Duration":94092,"SoundDuration":94092,"Delta":52980479},{"NoteNumber":44,"Velocity":57,"Duration":94092,"SoundDuration":94092,"Delta":52980479},{"NoteNumber":54,"Velocity":66,"Duration":92474,"SoundDuration":92474,"Delta":53074571},{"NoteNumber":42,"Velocity":56,"Duration":92474,"SoundDuration":92474,"Delta":53074571},{"NoteNumber":52,"Velocity":66,"Duration":94846,"SoundDuration":94846,"Delta":53167046},{"NoteNumber":40,"Velocity":56,"Duration":94846,"SoundDuration":94846,"Delta":53167046},{"NoteNumber":51,"Velocity":66,"Duration":102444,"SoundDuration":102444,"Delta":53261893},{"NoteNumber":39,"Velocity":56,"Duration":102444,"SoundDuration":102444,"Delta":53261893},{"NoteNumber":49,"Velocity":66,"Duration":106613,"SoundDuration":106613,"Delta":53364337},{"NoteNumber":37,"Velocity":56,"Duration":106613,"SoundDuration":106613,"Delta":53364337},{"NoteNumber":47,"Velocity":66,"Duration":110521,"SoundDuration":110521,"Delta":53470950},{"NoteNumber":35,"Velocity":56,"Duration":110521,"SoundDuration":110521,"Delta":53470950},{"NoteNumber":46,"Velocity":66,"Duration":114901,"SoundDuration":114901,"Delta":53581472},{"NoteNumber":34,"Velocity":56,"Duration":114901,"SoundDuration":114901,"Delta":53581472},{"NoteNumber":45,"Velocity":66,"Duration":119462,"SoundDuration":119462,"Delta":53696373},{"NoteNumber":33,"Velocity":56,"Duration":119462,"SoundDuration":119462,"Delta":53696373},{"NoteNumber":44,"Velocity":95,"Duration":1644803,"SoundDuration":1644803,"Delta":53815835},{"NoteNumber":32,"Velocity":80,"Duration":1809884,"SoundDuration":1809884,"Delta":53815835},{"NoteNumber":51,"Velocity":77,"Duration":243902,"SoundDuration":243902,"Delta":54547543},{"NoteNumber":63,"Velocity":87,"Duration":168662,"SoundDuration":168662,"Delta":54791445},{"NoteNumber":56,"Velocity":63,"Duration":167622,"SoundDuration":167622,"Delta":54960108},{"NoteNumber":51,"Velocity":69,"Duration":167043,"SoundDuration":167043,"Delta":55127730},{"NoteNumber":44,"Velocity":69,"Duration":1150246,"SoundDuration":1150246,"Delta":55294774},{"NoteNumber":32,"Velocity":62,"Duration":1149461,"SoundDuration":1149461,"Delta":55460639},{"NoteNumber":51,"Velocity":69,"Duration":164864,"SoundDuration":164864,"Delta":55625720},{"NoteNumber":63,"Velocity":87,"Duration":168662,"SoundDuration":168662,"Delta":55775826},{"NoteNumber":56,"Velocity":63,"Duration":167622,"SoundDuration":167622,"Delta":55944489},{"NoteNumber":51,"Velocity":69,"Duration":167043,"SoundDuration":167043,"Delta":56112111},{"NoteNumber":44,"Velocity":69,"Duration":1173779,"SoundDuration":1173779,"Delta":56279155},{"NoteNumber":32,"Velocity":62,"Duration":1172994,"SoundDuration":1172994,"Delta":56445020},{"NoteNumber":51,"Velocity":69,"Duration":164500,"SoundDuration":164500,"Delta":56610101},{"NoteNumber":63,"Velocity":87,"Duration":164500,"SoundDuration":164500,"Delta":56788995},{"NoteNumber":56,"Velocity":63,"Duration":166529,"SoundDuration":166529,"Delta":56953496},{"NoteNumber":51,"Velocity":69,"Duration":167043,"SoundDuration":167043,"Delta":57120026},{"NoteNumber":44,"Velocity":69,"Duration":495446,"SoundDuration":495446,"Delta":57287070},{"NoteNumber":32,"Velocity":62,"Duration":329581,"SoundDuration":329581,"Delta":57452935},{"NoteNumber":51,"Velocity":69,"Duration":164500,"SoundDuration":164500,"Delta":57618015},{"NoteNumber":71,"Velocity":81,"Duration":978111,"SoundDuration":978111,"Delta":57782516},{"NoteNumber":59,"Velocity":69,"Duration":978111,"SoundDuration":978111,"Delta":57782516},{"NoteNumber":63,"Velocity":80,"Duration":163158,"SoundDuration":163158,"Delta":57782516},{"NoteNumber":56,"Velocity":63,"Duration":163158,"SoundDuration":163158,"Delta":57945675},{"NoteNumber":51,"Velocity":69,"Duration":163158,"SoundDuration":163158,"Delta":58108833},{"NoteNumber":44,"Velocity":70,"Duration":163158,"SoundDuration":163158,"Delta":58271992},{"NoteNumber":32,"Velocity":63,"Duration":163158,"SoundDuration":163158,"Delta":58435151},{"NoteNumber":51,"Velocity":73,"Duration":162317,"SoundDuration":162317,"Delta":58598310},{"NoteNumber":71,"Velocity":87,"Duration":937443,"SoundDuration":937443,"Delta":58760627},{"NoteNumber":59,"Velocity":75,"Duration":937443,"SoundDuration":937443,"Delta":58760627},{"NoteNumber":63,"Velocity":86,"Duration":162202,"SoundDuration":162202,"Delta":58760627},{"NoteNumber":56,"Velocity":69,"Duration":159886,"SoundDuration":159886,"Delta":58922830},{"NoteNumber":51,"Velocity":76,"Duration":157414,"SoundDuration":157414,"Delta":59082716},{"NoteNumber":44,"Velocity":77,"Duration":155113,"SoundDuration":155113,"Delta":59240130},{"NoteNumber":32,"Velocity":69,"Duration":152990,"SoundDuration":152990,"Delta":59395244},{"NoteNumber":51,"Velocity":79,"Duration":149836,"SoundDuration":149836,"Delta":59548234},{"NoteNumber":71,"Velocity":86,"Duration":934684,"SoundDuration":934684,"Delta":59698071},{"NoteNumber":59,"Velocity":73,"Duration":934684,"SoundDuration":934684,"Delta":59698071},{"NoteNumber":63,"Velocity":86,"Duration":149722,"SoundDuration":149722,"Delta":59698071},{"NoteNumber":56,"Velocity":66,"Duration":149723,"SoundDuration":149723,"Delta":59847794},{"NoteNumber":51,"Velocity":70,"Duration":149723,"SoundDuration":149723,"Delta":59997517},{"NoteNumber":44,"Velocity":71,"Duration":161838,"SoundDuration":161838,"Delta":60147240},{"NoteNumber":32,"Velocity":61,"Duration":161838,"SoundDuration":161838,"Delta":60309078},{"NoteNumber":51,"Velocity":69,"Duration":161838,"SoundDuration":161838,"Delta":60470917},{"NoteNumber":71,"Velocity":81,"Duration":1033307,"SoundDuration":1033307,"Delta":60632755},{"NoteNumber":59,"Velocity":68,"Duration":1033307,"SoundDuration":1033307,"Delta":60632755},{"NoteNumber":63,"Velocity":80,"Duration":164500,"SoundDuration":164500,"Delta":60632755},{"NoteNumber":56,"Velocity":61,"Duration":164500,"SoundDuration":164500,"Delta":60797256},{"NoteNumber":51,"Velocity":67,"Duration":164500,"SoundDuration":164500,"Delta":60961756},{"NoteNumber":44,"Velocity":65,"Duration":164500,"SoundDuration":164500,"Delta":61126257},{"NoteNumber":32,"Velocity":57,"Duration":187652,"SoundDuration":187652,"Delta":61290758},{"NoteNumber":51,"Velocity":63,"Duration":187652,"SoundDuration":187652,"Delta":61478410},{"NoteNumber":68,"Velocity":73,"Duration":2028430,"SoundDuration":2028430,"Delta":61666063},{"NoteNumber":63,"Velocity":62,"Duration":1183335,"SoundDuration":1183335,"Delta":61666063},{"NoteNumber":56,"Velocity":73,"Duration":1020581,"SoundDuration":1020581,"Delta":61666063},{"NoteNumber":51,"Velocity":39,"Duration":170096,"SoundDuration":170096,"Delta":61836160},{"NoteNumber":72,"Velocity":44,"Duration":170097,"SoundDuration":170097,"Delta":62006257},{"NoteNumber":76,"Velocity":44,"Duration":170097,"SoundDuration":170097,"Delta":62006257},{"NoteNumber":84,"Velocity":52,"Duration":170097,"SoundDuration":170097,"Delta":62006257},{"NoteNumber":44,"Velocity":43,"Duration":170097,"SoundDuration":170097,"Delta":62006257},{"NoteNumber":71,"Velocity":44,"Duration":844600,"SoundDuration":844600,"Delta":62176354},{"NoteNumber":80,"Velocity":44,"Duration":844600,"SoundDuration":844600,"Delta":62176354},{"NoteNumber":83,"Velocity":53,"Duration":844600,"SoundDuration":844600,"Delta":62176354},{"NoteNumber":32,"Velocity":44,"Duration":170096,"SoundDuration":170096,"Delta":62176354},{"NoteNumber":44,"Velocity":39,"Duration":170096,"SoundDuration":170096,"Delta":62346451},{"NoteNumber":51,"Velocity":45,"Duration":170096,"SoundDuration":170096,"Delta":62516548},{"NoteNumber":63,"Velocity":50,"Duration":1007848,"SoundDuration":1007848,"Delta":62686645},{"NoteNumber":56,"Velocity":44,"Duration":171556,"SoundDuration":171556,"Delta":62849398},{"NoteNumber":72,"Velocity":49,"Duration":170407,"SoundDuration":170407,"Delta":63020954},{"NoteNumber":76,"Velocity":49,"Duration":170407,"SoundDuration":170407,"Delta":63020954},{"NoteNumber":84,"Velocity":58,"Duration":170407,"SoundDuration":170407,"Delta":63020954},{"NoteNumber":51,"Velocity":48,"Duration":170407,"SoundDuration":170407,"Delta":63020954},{"NoteNumber":71,"Velocity":51,"Duration":832449,"SoundDuration":832449,"Delta":63191361},{"NoteNumber":80,"Velocity":51,"Duration":832449,"SoundDuration":832449,"Delta":63191361},{"NoteNumber":83,"Velocity":61,"Duration":832449,"SoundDuration":832449,"Delta":63191361},{"NoteNumber":44,"Velocity":49,"Duration":168895,"SoundDuration":168895,"Delta":63191361},{"NoteNumber":32,"Velocity":43,"Duration":167851,"SoundDuration":167851,"Delta":63360257},{"NoteNumber":51,"Velocity":50,"Duration":166385,"SoundDuration":166385,"Delta":63528108},{"NoteNumber":63,"Velocity":55,"Duration":165370,"SoundDuration":165370,"Delta":63694493},{"NoteNumber":56,"Velocity":47,"Duration":163947,"SoundDuration":163947,"Delta":63859864},{"NoteNumber":72,"Velocity":55,"Duration":162531,"SoundDuration":162531,"Delta":64023811},{"NoteNumber":76,"Velocity":55,"Duration":162531,"SoundDuration":162531,"Delta":64023811},{"NoteNumber":84,"Velocity":66,"Duration":162531,"SoundDuration":162531,"Delta":64023811},{"NoteNumber":51,"Velocity":52,"Duration":162531,"SoundDuration":162531,"Delta":64023811},{"NoteNumber":71,"Velocity":57,"Duration":795610,"SoundDuration":795610,"Delta":64186343},{"NoteNumber":80,"Velocity":57,"Duration":795610,"SoundDuration":795610,"Delta":64186343},{"NoteNumber":83,"Velocity":68,"Duration":795610,"SoundDuration":795610,"Delta":64186343},{"NoteNumber":44,"Velocity":52,"Duration":161562,"SoundDuration":161562,"Delta":64186343},{"NoteNumber":32,"Velocity":47,"Duration":160203,"SoundDuration":160203,"Delta":64347905},{"NoteNumber":51,"Velocity":55,"Duration":159260,"SoundDuration":159260,"Delta":64508109},{"NoteNumber":63,"Velocity":58,"Duration":157940,"SoundDuration":157940,"Delta":64667370},{"NoteNumber":56,"Velocity":51,"Duration":156642,"SoundDuration":156642,"Delta":64825311},{"NoteNumber":72,"Velocity":61,"Duration":155545,"SoundDuration":155545,"Delta":64981953},{"NoteNumber":76,"Velocity":61,"Duration":155545,"SoundDuration":155545,"Delta":64981953},{"NoteNumber":84,"Velocity":73,"Duration":155545,"SoundDuration":155545,"Delta":64981953},{"NoteNumber":51,"Velocity":55,"Duration":155545,"SoundDuration":155545,"Delta":64981953},{"NoteNumber":71,"Velocity":63,"Duration":683654,"SoundDuration":683654,"Delta":65137498},{"NoteNumber":80,"Velocity":63,"Duration":683654,"SoundDuration":683654,"Delta":65137498},{"NoteNumber":83,"Velocity":75,"Duration":683654,"SoundDuration":683654,"Delta":65137498},{"NoteNumber":44,"Velocity":57,"Duration":154914,"SoundDuration":154914,"Delta":65137498},{"NoteNumber":32,"Velocity":50,"Duration":154344,"SoundDuration":154344,"Delta":65292413},{"NoteNumber":51,"Velocity":58,"Duration":152980,"SoundDuration":152980,"Delta":65446758},{"NoteNumber":63,"Velocity":64,"Duration":148062,"SoundDuration":148062,"Delta":65599738},{"NoteNumber":56,"Velocity":54,"Duration":146316,"SoundDuration":146316,"Delta":65747801},{"NoteNumber":72,"Velocity":67,"Duration":217381,"SoundDuration":217381,"Delta":65821153},{"NoteNumber":76,"Velocity":67,"Duration":217381,"SoundDuration":217381,"Delta":65821153},{"NoteNumber":84,"Velocity":81,"Duration":217381,"SoundDuration":217381,"Delta":65821153},{"NoteNumber":51,"Velocity":59,"Duration":144417,"SoundDuration":144417,"Delta":65894117},{"NoteNumber":71,"Velocity":68,"Duration":213205,"SoundDuration":213205,"Delta":66038535},{"NoteNumber":80,"Velocity":68,"Duration":213205,"SoundDuration":213205,"Delta":66038535},{"NoteNumber":83,"Velocity":81,"Duration":213205,"SoundDuration":213205,"Delta":66038535},{"NoteNumber":44,"Velocity":60,"Duration":142574,"SoundDuration":142574,"Delta":66038535},{"NoteNumber":32,"Velocity":54,"Duration":140781,"SoundDuration":140781,"Delta":66181109},{"NoteNumber":72,"Velocity":72,"Duration":209011,"SoundDuration":209011,"Delta":66251740},{"NoteNumber":76,"Velocity":72,"Duration":209011,"SoundDuration":209011,"Delta":66251740},{"NoteNumber":84,"Velocity":84,"Duration":209011,"SoundDuration":209011,"Delta":66251740},{"NoteNumber":51,"Velocity":62,"Duration":138861,"SoundDuration":138861,"Delta":66321890},{"NoteNumber":71,"Velocity":72,"Duration":205536,"SoundDuration":205536,"Delta":66460751},{"NoteNumber":80,"Velocity":72,"Duration":205536,"SoundDuration":205536,"Delta":66460751},{"NoteNumber":83,"Velocity":86,"Duration":205536,"SoundDuration":205536,"Delta":66460751},{"NoteNumber":63,"Velocity":65,"Duration":137372,"SoundDuration":137372,"Delta":66460751},{"NoteNumber":56,"Velocity":58,"Duration":135707,"SoundDuration":135707,"Delta":66598123},{"NoteNumber":72,"Velocity":74,"Duration":201599,"SoundDuration":201599,"Delta":66666288},{"NoteNumber":76,"Velocity":74,"Duration":201599,"SoundDuration":201599,"Delta":66666288},{"NoteNumber":84,"Velocity":87,"Duration":201599,"SoundDuration":201599,"Delta":66666288},{"NoteNumber":51,"Velocity":64,"Duration":134056,"SoundDuration":134056,"Delta":66733831},{"NoteNumber":71,"Velocity":75,"Duration":198042,"SoundDuration":198042,"Delta":66867887},{"NoteNumber":80,"Velocity":75,"Duration":198042,"SoundDuration":198042,"Delta":66867887},{"NoteNumber":83,"Velocity":90,"Duration":198042,"SoundDuration":198042,"Delta":66867887},{"NoteNumber":44,"Velocity":64,"Duration":132502,"SoundDuration":132502,"Delta":66867887},{"NoteNumber":32,"Velocity":58,"Duration":131078,"SoundDuration":131078,"Delta":67000390},{"NoteNumber":72,"Velocity":76,"Duration":197401,"SoundDuration":197401,"Delta":67065930},{"NoteNumber":76,"Velocity":76,"Duration":197401,"SoundDuration":197401,"Delta":67065930},{"NoteNumber":84,"Velocity":91,"Duration":197401,"SoundDuration":197401,"Delta":67065930},{"NoteNumber":51,"Velocity":64,"Duration":131862,"SoundDuration":131862,"Delta":67131469},{"NoteNumber":71,"Velocity":78,"Duration":200117,"SoundDuration":200117,"Delta":67263331},{"NoteNumber":80,"Velocity":78,"Duration":200117,"SoundDuration":200117,"Delta":67263331},{"NoteNumber":83,"Velocity":92,"Duration":200117,"SoundDuration":200117,"Delta":67263331},{"NoteNumber":63,"Velocity":70,"Duration":133263,"SoundDuration":133263,"Delta":67263331},{"NoteNumber":56,"Velocity":61,"Duration":133707,"SoundDuration":133707,"Delta":67396595},{"NoteNumber":72,"Velocity":81,"Duration":201394,"SoundDuration":201394,"Delta":67463449},{"NoteNumber":76,"Velocity":81,"Duration":201394,"SoundDuration":201394,"Delta":67463449},{"NoteNumber":84,"Velocity":95,"Duration":201394,"SoundDuration":201394,"Delta":67463449},{"NoteNumber":51,"Velocity":67,"Duration":134540,"SoundDuration":134540,"Delta":67530303},{"NoteNumber":71,"Velocity":81,"Duration":208957,"SoundDuration":208957,"Delta":67664843},{"NoteNumber":80,"Velocity":81,"Duration":208957,"SoundDuration":208957,"Delta":67664843},{"NoteNumber":83,"Velocity":96,"Duration":208957,"SoundDuration":208957,"Delta":67664843},{"NoteNumber":44,"Velocity":68,"Duration":136797,"SoundDuration":136797,"Delta":67664843},{"NoteNumber":32,"Velocity":60,"Duration":163417,"SoundDuration":163417,"Delta":67801640},{"NoteNumber":72,"Velocity":83,"Duration":273772,"SoundDuration":273772,"Delta":67873801},{"NoteNumber":76,"Velocity":83,"Duration":273772,"SoundDuration":273772,"Delta":67873801},{"NoteNumber":84,"Velocity":99,"Duration":273772,"SoundDuration":273772,"Delta":67873801},{"NoteNumber":51,"Velocity":68,"Duration":182515,"SoundDuration":182515,"Delta":67965058},{"NoteNumber":71,"Velocity":96,"Duration":482715,"SoundDuration":482715,"Delta":68147573},{"NoteNumber":80,"Velocity":96,"Duration":482715,"SoundDuration":482715,"Delta":68147573},{"NoteNumber":83,"Velocity":114,"Duration":482715,"SoundDuration":482715,"Delta":68147573},{"NoteNumber":63,"Velocity":85,"Duration":482715,"SoundDuration":482715,"Delta":68147573},{"NoteNumber":59,"Velocity":71,"Duration":482715,"SoundDuration":482715,"Delta":68147573},{"NoteNumber":56,"Velocity":71,"Duration":482715,"SoundDuration":482715,"Delta":68147573},{"NoteNumber":68,"Velocity":81,"Duration":109774,"SoundDuration":109774,"Delta":69048174},{"NoteNumber":70,"Velocity":82,"Duration":104774,"SoundDuration":104774,"Delta":69157949},{"NoteNumber":71,"Velocity":83,"Duration":104934,"SoundDuration":104934,"Delta":69262723},{"NoteNumber":73,"Velocity":83,"Duration":103600,"SoundDuration":103600,"Delta":69366147},{"NoteNumber":75,"Velocity":85,"Duration":100809,"SoundDuration":100809,"Delta":69469748},{"NoteNumber":77,"Velocity":87,"Duration":101015,"SoundDuration":101015,"Delta":69570557},{"NoteNumber":79,"Velocity":89,"Duration":98322,"SoundDuration":98322,"Delta":69671573},{"NoteNumber":80,"Velocity":91,"Duration":98539,"SoundDuration":98539,"Delta":69769895},{"NoteNumber":82,"Velocity":92,"Duration":97339,"SoundDuration":97339,"Delta":69867019},{"NoteNumber":83,"Velocity":93,"Duration":94790,"SoundDuration":94790,"Delta":69964358},{"NoteNumber":85,"Velocity":94,"Duration":95054,"SoundDuration":95054,"Delta":70059149},{"NoteNumber":87,"Velocity":95,"Duration":92589,"SoundDuration":92589,"Delta":70154203},{"NoteNumber":89,"Velocity":97,"Duration":98599,"SoundDuration":98599,"Delta":70246793},{"NoteNumber":91,"Velocity":99,"Duration":130196,"SoundDuration":130196,"Delta":70343796},{"NoteNumber":92,"Velocity":106,"Duration":438483,"SoundDuration":438483,"Delta":70473992},{"NoteNumber":40,"Velocity":78,"Duration":297220,"SoundDuration":297220,"Delta":70473992},{"NoteNumber":33,"Velocity":66,"Duration":297220,"SoundDuration":297220,"Delta":70473992},{"NoteNumber":49,"Velocity":71,"Duration":141262,"SoundDuration":141262,"Delta":70771213},{"NoteNumber":40,"Velocity":60,"Duration":141262,"SoundDuration":141262,"Delta":70771213},{"NoteNumber":52,"Velocity":78,"Duration":282525,"SoundDuration":282525,"Delta":70912476},{"NoteNumber":85,"Velocity":81,"Duration":134607,"SoundDuration":134607,"Delta":71195002},{"NoteNumber":49,"Velocity":60,"Duration":134607,"SoundDuration":134607,"Delta":71195002},{"NoteNumber":52,"Velocity":71,"Duration":134607,"SoundDuration":134607,"Delta":71195002},{"NoteNumber":80,"Velocity":90,"Duration":1614433,"SoundDuration":1614433,"Delta":71329609},{"NoteNumber":61,"Velocity":78,"Duration":297220,"SoundDuration":297220,"Delta":71329609},{"NoteNumber":52,"Velocity":59,"Duration":142267,"SoundDuration":142267,"Delta":71626830},{"NoteNumber":61,"Velocity":70,"Duration":142267,"SoundDuration":142267,"Delta":71626830},{"NoteNumber":64,"Velocity":78,"Duration":284535,"SoundDuration":284535,"Delta":71769098},{"NoteNumber":61,"Velocity":59,"Duration":135519,"SoundDuration":135519,"Delta":72053633},{"NoteNumber":64,"Velocity":70,"Duration":135519,"SoundDuration":135519,"Delta":72053633},{"NoteNumber":69,"Velocity":84,"Duration":297220,"SoundDuration":297220,"Delta":72189153},{"NoteNumber":52,"Velocity":58,"Duration":141262,"SoundDuration":141262,"Delta":72486374},{"NoteNumber":61,"Velocity":69,"Duration":141262,"SoundDuration":141262,"Delta":72486374},{"NoteNumber":64,"Velocity":77,"Duration":141262,"SoundDuration":141262,"Delta":72627637},{"NoteNumber":61,"Velocity":70,"Duration":141262,"SoundDuration":141262,"Delta":72768900},{"NoteNumber":52,"Velocity":70,"Duration":1893247,"SoundDuration":1893247,"Delta":72910162},{"NoteNumber":80,"Velocity":64,"Duration":101639,"SoundDuration":101639,"Delta":72944042},{"NoteNumber":75,"Velocity":64,"Duration":101639,"SoundDuration":101639,"Delta":72944042},{"NoteNumber":87,"Velocity":76,"Duration":101639,"SoundDuration":101639,"Delta":72944042},{"NoteNumber":80,"Velocity":75,"Duration":1757728,"SoundDuration":1757728,"Delta":73045682},{"NoteNumber":85,"Velocity":89,"Duration":1757728,"SoundDuration":1757728,"Delta":73045682},{"NoteNumber":73,"Velocity":75,"Duration":1757728,"SoundDuration":1757728,"Delta":73045682},{"NoteNumber":58,"Velocity":68,"Duration":730145,"SoundDuration":730145,"Delta":73045682},{"NoteNumber":61,"Velocity":68,"Duration":1611293,"SoundDuration":1611293,"Delta":73045682},{"NoteNumber":68,"Velocity":80,"Duration":1611293,"SoundDuration":1611293,"Delta":73045682},{"NoteNumber":59,"Velocity":64,"Duration":135519,"SoundDuration":135519,"Delta":73340711},{"NoteNumber":55,"Velocity":54,"Duration":135519,"SoundDuration":135519,"Delta":73340711},{"NoteNumber":50,"Velocity":62,"Duration":135519,"SoundDuration":135519,"Delta":73340711},{"NoteNumber":56,"Velocity":59,"Duration":299597,"SoundDuration":299597,"Delta":73476230},{"NoteNumber":58,"Velocity":71,"Duration":1180745,"SoundDuration":1180745,"Delta":73476230},{"NoteNumber":46,"Velocity":59,"Duration":299597,"SoundDuration":299597,"Delta":73476230},{"NoteNumber":49,"Velocity":71,"Duration":299597,"SoundDuration":299597,"Delta":73476230},{"NoteNumber":40,"Velocity":66,"Duration":146434,"SoundDuration":146434,"Delta":73775828},{"NoteNumber":56,"Velocity":76,"Duration":292868,"SoundDuration":292868,"Delta":73922262},{"NoteNumber":71,"Velocity":60,"Duration":135519,"SoundDuration":135519,"Delta":74215131},{"NoteNumber":67,"Velocity":51,"Duration":135519,"SoundDuration":135519,"Delta":74215131},{"NoteNumber":62,"Velocity":59,"Duration":135519,"SoundDuration":135519,"Delta":74215131},{"NoteNumber":70,"Velocity":69,"Duration":306325,"SoundDuration":306325,"Delta":74350650},{"NoteNumber":68,"Velocity":58,"Duration":452759,"SoundDuration":452759,"Delta":74350650},{"NoteNumber":58,"Velocity":59,"Duration":452759,"SoundDuration":452759,"Delta":74350650},{"NoteNumber":61,"Velocity":71,"Duration":452759,"SoundDuration":452759,"Delta":74350650},{"NoteNumber":52,"Velocity":68,"Duration":146434,"SoundDuration":146434,"Delta":74656976},{"NoteNumber":68,"Velocity":76,"Duration":292868,"SoundDuration":292868,"Delta":74803410},{"NoteNumber":83,"Velocity":69,"Duration":135519,"SoundDuration":135519,"Delta":75096279},{"NoteNumber":79,"Velocity":58,"Duration":135519,"SoundDuration":135519,"Delta":75096279},{"NoteNumber":74,"Velocity":68,"Duration":135519,"SoundDuration":135519,"Delta":75096279},{"NoteNumber":80,"Velocity":63,"Duration":298433,"SoundDuration":298433,"Delta":75231799},{"NoteNumber":82,"Velocity":75,"Duration":298433,"SoundDuration":298433,"Delta":75231799},{"NoteNumber":70,"Velocity":63,"Duration":298433,"SoundDuration":298433,"Delta":75231799},{"NoteNumber":73,"Velocity":75,"Duration":298433,"SoundDuration":298433,"Delta":75231799},{"NoteNumber":64,"Velocity":70,"Duration":146434,"SoundDuration":146434,"Delta":75530232},{"NoteNumber":80,"Velocity":106,"Duration":297220,"SoundDuration":297220,"Delta":75676666},{"NoteNumber":40,"Velocity":78,"Duration":297220,"SoundDuration":297220,"Delta":75676666},{"NoteNumber":33,"Velocity":66,"Duration":297220,"SoundDuration":297220,"Delta":75676666},{"NoteNumber":97,"Velocity":81,"Duration":141262,"SoundDuration":141262,"Delta":75973887},{"NoteNumber":92,"Velocity":68,"Duration":141262,"SoundDuration":141262,"Delta":75973887},{"NoteNumber":85,"Velocity":68,"Duration":141262,"SoundDuration":141262,"Delta":75973887},{"NoteNumber":49,"Velocity":71,"Duration":141262,"SoundDuration":141262,"Delta":75973887},{"NoteNumber":40,"Velocity":60,"Duration":141262,"SoundDuration":141262,"Delta":75973887},{"NoteNumber":92,"Velocity":90,"Duration":714354,"SoundDuration":714354,"Delta":76115150},{"NoteNumber":85,"Velocity":76,"Duration":714354,"SoundDuration":714354,"Delta":76115150},{"NoteNumber":80,"Velocity":76,"Duration":714354,"SoundDuration":714354,"Delta":76115150},{"NoteNumber":52,"Velocity":78,"Duration":282525,"SoundDuration":282525,"Delta":76115150},{"NoteNumber":49,"Velocity":60,"Duration":134607,"SoundDuration":134607,"Delta":76397676},{"NoteNumber":52,"Velocity":71,"Duration":134607,"SoundDuration":134607,"Delta":76397676},{"NoteNumber":61,"Velocity":78,"Duration":297220,"SoundDuration":297220,"Delta":76532283},{"NoteNumber":80,"Velocity":81,"Duration":142267,"SoundDuration":142267,"Delta":76829504},{"NoteNumber":73,"Velocity":68,"Duration":142267,"SoundDuration":142267,"Delta":76829504},{"NoteNumber":85,"Velocity":81,"Duration":142267,"SoundDuration":142267,"Delta":76829504},{"NoteNumber":52,"Velocity":59,"Duration":142267,"SoundDuration":142267,"Delta":76829504},{"NoteNumber":61,"Velocity":70,"Duration":142267,"SoundDuration":142267,"Delta":76829504},{"NoteNumber":68,"Velocity":76,"Duration":648053,"SoundDuration":648053,"Delta":76971772},{"NoteNumber":73,"Velocity":76,"Duration":648053,"SoundDuration":648053,"Delta":76971772},{"NoteNumber":80,"Velocity":90,"Duration":648053,"SoundDuration":648053,"Delta":76971772},{"NoteNumber":64,"Velocity":78,"Duration":284535,"SoundDuration":284535,"Delta":76971772},{"NoteNumber":61,"Velocity":59,"Duration":135519,"SoundDuration":135519,"Delta":77256307},{"NoteNumber":64,"Velocity":70,"Duration":135519,"SoundDuration":135519,"Delta":77256307},{"NoteNumber":73,"Velocity":84,"Duration":306999,"SoundDuration":306999,"Delta":77391827},{"NoteNumber":75,"Velocity":60,"Duration":237004,"SoundDuration":237004,"Delta":77619825},{"NoteNumber":80,"Velocity":60,"Duration":237004,"SoundDuration":237004,"Delta":77619825},{"NoteNumber":87,"Velocity":71,"Duration":237004,"SoundDuration":237004,"Delta":77619825},{"NoteNumber":52,"Velocity":49,"Duration":158002,"SoundDuration":158002,"Delta":77698827},{"NoteNumber":61,"Velocity":58,"Duration":158002,"SoundDuration":158002,"Delta":77698827},{"NoteNumber":75,"Velocity":58,"Duration":237004,"SoundDuration":237004,"Delta":77856829},{"NoteNumber":80,"Velocity":58,"Duration":237004,"SoundDuration":237004,"Delta":77856829},{"NoteNumber":87,"Velocity":69,"Duration":237004,"SoundDuration":237004,"Delta":77856829},{"NoteNumber":64,"Velocity":65,"Duration":158002,"SoundDuration":158002,"Delta":77856829},{"NoteNumber":61,"Velocity":59,"Duration":171099,"SoundDuration":171099,"Delta":78014832},{"NoteNumber":85,"Velocity":81,"Duration":276293,"SoundDuration":276293,"Delta":78093834},{"NoteNumber":80,"Velocity":68,"Duration":276293,"SoundDuration":276293,"Delta":78093834},{"NoteNumber":73,"Velocity":68,"Duration":276293,"SoundDuration":276293,"Delta":78093834},{"NoteNumber":52,"Velocity":59,"Duration":1941924,"SoundDuration":1941924,"Delta":78185932},{"NoteNumber":80,"Velocity":75,"Duration":1757728,"SoundDuration":1757728,"Delta":78370128},{"NoteNumber":85,"Velocity":89,"Duration":1757728,"SoundDuration":1757728,"Delta":78370128},{"NoteNumber":73,"Velocity":75,"Duration":1757728,"SoundDuration":1757728,"Delta":78370128},{"NoteNumber":58,"Velocity":68,"Duration":730145,"SoundDuration":730145,"Delta":78370128},{"NoteNumber":61,"Velocity":68,"Duration":1611293,"SoundDuration":1611293,"Delta":78370128},{"NoteNumber":68,"Velocity":80,"Duration":1611293,"SoundDuration":1611293,"Delta":78370128},{"NoteNumber":59,"Velocity":64,"Duration":135519,"SoundDuration":135519,"Delta":78665156},{"NoteNumber":55,"Velocity":54,"Duration":135519,"SoundDuration":135519,"Delta":78665156},{"NoteNumber":50,"Velocity":62,"Duration":135519,"SoundDuration":135519,"Delta":78665156},{"NoteNumber":56,"Velocity":59,"Duration":299597,"SoundDuration":299597,"Delta":78800676},{"NoteNumber":58,"Velocity":71,"Duration":1180745,"SoundDuration":1180745,"Delta":78800676},{"NoteNumber":46,"Velocity":59,"Duration":299597,"SoundDuration":299597,"Delta":78800676},{"NoteNumber":49,"Velocity":71,"Duration":299597,"SoundDuration":299597,"Delta":78800676},{"NoteNumber":40,"Velocity":66,"Duration":146434,"SoundDuration":146434,"Delta":79100273},{"NoteNumber":56,"Velocity":76,"Duration":292868,"SoundDuration":292868,"Delta":79246708},{"NoteNumber":71,"Velocity":60,"Duration":135519,"SoundDuration":135519,"Delta":79539576},{"NoteNumber":67,"Velocity":51,"Duration":135519,"SoundDuration":135519,"Delta":79539576},{"NoteNumber":62,"Velocity":59,"Duration":135519,"SoundDuration":135519,"Delta":79539576},{"NoteNumber":70,"Velocity":69,"Duration":306325,"SoundDuration":306325,"Delta":79675096},{"NoteNumber":68,"Velocity":58,"Duration":452759,"SoundDuration":452759,"Delta":79675096},{"NoteNumber":58,"Velocity":59,"Duration":452759,"SoundDuration":452759,"Delta":79675096},{"NoteNumber":61,"Velocity":71,"Duration":452759,"SoundDuration":452759,"Delta":79675096},{"NoteNumber":52,"Velocity":68,"Duration":146434,"SoundDuration":146434,"Delta":79981422},{"NoteNumber":68,"Velocity":76,"Duration":292868,"SoundDuration":292868,"Delta":80127856},{"NoteNumber":83,"Velocity":69,"Duration":135519,"SoundDuration":135519,"Delta":80420725},{"NoteNumber":79,"Velocity":58,"Duration":135519,"SoundDuration":135519,"Delta":80420725},{"NoteNumber":74,"Velocity":68,"Duration":135519,"SoundDuration":135519,"Delta":80420725},{"NoteNumber":80,"Velocity":63,"Duration":298433,"SoundDuration":298433,"Delta":80556244},{"NoteNumber":82,"Velocity":75,"Duration":298433,"SoundDuration":298433,"Delta":80556244},{"NoteNumber":70,"Velocity":63,"Duration":298433,"SoundDuration":298433,"Delta":80556244},{"NoteNumber":73,"Velocity":75,"Duration":298433,"SoundDuration":298433,"Delta":80556244},{"NoteNumber":64,"Velocity":70,"Duration":146434,"SoundDuration":146434,"Delta":80854677},{"NoteNumber":80,"Velocity":87,"Duration":438483,"SoundDuration":438483,"Delta":81001112},{"NoteNumber":40,"Velocity":78,"Duration":297220,"SoundDuration":297220,"Delta":81001112},{"NoteNumber":33,"Velocity":66,"Duration":297220,"SoundDuration":297220,"Delta":81001112},{"NoteNumber":49,"Velocity":60,"Duration":141262,"SoundDuration":141262,"Delta":81298333},{"NoteNumber":40,"Velocity":51,"Duration":141262,"SoundDuration":141262,"Delta":81298333},{"NoteNumber":80,"Velocity":80,"Duration":856622,"SoundDuration":856622,"Delta":81439596},{"NoteNumber":85,"Velocity":80,"Duration":856622,"SoundDuration":856622,"Delta":81439596},{"NoteNumber":92,"Velocity":95,"Duration":856622,"SoundDuration":856622,"Delta":81439596},{"NoteNumber":52,"Velocity":66,"Duration":282525,"SoundDuration":282525,"Delta":81439596},{"NoteNumber":49,"Velocity":51,"Duration":134607,"SoundDuration":134607,"Delta":81722121},{"NoteNumber":52,"Velocity":60,"Duration":134607,"SoundDuration":134607,"Delta":81722121},{"NoteNumber":61,"Velocity":66,"Duration":297220,"SoundDuration":297220,"Delta":81856729},{"NoteNumber":52,"Velocity":50,"Duration":142267,"SoundDuration":142267,"Delta":82153950},{"NoteNumber":61,"Velocity":59,"Duration":142267,"SoundDuration":142267,"Delta":82153950},{"NoteNumber":80,"Velocity":68,"Duration":648053,"SoundDuration":648053,"Delta":82296218},{"NoteNumber":85,"Velocity":68,"Duration":648053,"SoundDuration":648053,"Delta":82296218},{"NoteNumber":92,"Velocity":80,"Duration":648053,"SoundDuration":648053,"Delta":82296218},{"NoteNumber":64,"Velocity":66,"Duration":284535,"SoundDuration":284535,"Delta":82296218},{"NoteNumber":56,"Velocity":50,"Duration":135519,"SoundDuration":135519,"Delta":82580753},{"NoteNumber":61,"Velocity":59,"Duration":135519,"SoundDuration":135519,"Delta":82580753},{"NoteNumber":68,"Velocity":71,"Duration":306999,"SoundDuration":306999,"Delta":82716273},{"NoteNumber":80,"Velocity":72,"Duration":237004,"SoundDuration":237004,"Delta":82944271},{"NoteNumber":85,"Velocity":72,"Duration":237004,"SoundDuration":237004,"Delta":82944271},{"NoteNumber":92,"Velocity":85,"Duration":237004,"SoundDuration":237004,"Delta":82944271},{"NoteNumber":52,"Velocity":49,"Duration":158002,"SoundDuration":158002,"Delta":83023272},{"NoteNumber":61,"Velocity":58,"Duration":158002,"SoundDuration":158002,"Delta":83023272},{"NoteNumber":80,"Velocity":73,"Duration":916297,"SoundDuration":916297,"Delta":83181275},{"NoteNumber":85,"Velocity":73,"Duration":916297,"SoundDuration":916297,"Delta":83181275},{"NoteNumber":92,"Velocity":86,"Duration":916297,"SoundDuration":916297,"Delta":83181275},{"NoteNumber":64,"Velocity":65,"Duration":317273,"SoundDuration":317273,"Delta":83181275},{"NoteNumber":32,"Velocity":50,"Duration":160539,"SoundDuration":160539,"Delta":83498549},{"NoteNumber":40,"Velocity":59,"Duration":160539,"SoundDuration":160539,"Delta":83498549},{"NoteNumber":44,"Velocity":66,"Duration":297220,"SoundDuration":297220,"Delta":83659088},{"NoteNumber":49,"Velocity":61,"Duration":141262,"SoundDuration":141262,"Delta":83956309},{"NoteNumber":40,"Velocity":51,"Duration":141262,"SoundDuration":141262,"Delta":83956309},{"NoteNumber":80,"Velocity":79,"Duration":417133,"SoundDuration":417133,"Delta":84097572},{"NoteNumber":85,"Velocity":79,"Duration":417133,"SoundDuration":417133,"Delta":84097572},{"NoteNumber":92,"Velocity":93,"Duration":417133,"SoundDuration":417133,"Delta":84097572},{"NoteNumber":52,"Velocity":67,"Duration":282525,"SoundDuration":282525,"Delta":84097572},{"NoteNumber":49,"Velocity":53,"Duration":134607,"SoundDuration":134607,"Delta":84380098},{"NoteNumber":52,"Velocity":63,"Duration":134607,"SoundDuration":134607,"Delta":84380098},{"NoteNumber":80,"Velocity":80,"Duration":297220,"SoundDuration":297220,"Delta":84514705},{"NoteNumber":85,"Velocity":80,"Duration":297220,"SoundDuration":297220,"Delta":84514705},{"NoteNumber":92,"Velocity":95,"Duration":297220,"SoundDuration":297220,"Delta":84514705},{"NoteNumber":61,"Velocity":69,"Duration":297220,"SoundDuration":297220,"Delta":84514705},{"NoteNumber":80,"Velocity":84,"Duration":284535,"SoundDuration":284535,"Delta":84811926},{"NoteNumber":85,"Velocity":84,"Duration":284535,"SoundDuration":284535,"Delta":84811926},{"NoteNumber":92,"Velocity":99,"Duration":284535,"SoundDuration":284535,"Delta":84811926},{"NoteNumber":52,"Velocity":53,"Duration":142267,"SoundDuration":142267,"Delta":84811926},{"NoteNumber":61,"Velocity":63,"Duration":142267,"SoundDuration":142267,"Delta":84811926},{"NoteNumber":64,"Velocity":71,"Duration":282703,"SoundDuration":282703,"Delta":84954194},{"NoteNumber":80,"Velocity":85,"Duration":276897,"SoundDuration":276897,"Delta":85096462},{"NoteNumber":85,"Velocity":85,"Duration":276897,"SoundDuration":276897,"Delta":85096462},{"NoteNumber":92,"Velocity":100,"Duration":276897,"SoundDuration":276897,"Delta":85096462},{"NoteNumber":57,"Velocity":55,"Duration":136461,"SoundDuration":136461,"Delta":85236897},{"NoteNumber":61,"Velocity":65,"Duration":136461,"SoundDuration":136461,"Delta":85236897},{"NoteNumber":80,"Velocity":86,"Duration":196182,"SoundDuration":196182,"Delta":85373359},{"NoteNumber":85,"Velocity":86,"Duration":196182,"SoundDuration":196182,"Delta":85373359},{"NoteNumber":92,"Velocity":102,"Duration":196182,"SoundDuration":196182,"Delta":85373359},{"NoteNumber":69,"Velocity":79,"Duration":259512,"SoundDuration":259512,"Delta":85373359},{"NoteNumber":80,"Velocity":88,"Duration":188400,"SoundDuration":188400,"Delta":85569542},{"NoteNumber":85,"Velocity":88,"Duration":188400,"SoundDuration":188400,"Delta":85569542},{"NoteNumber":92,"Velocity":104,"Duration":188400,"SoundDuration":188400,"Delta":85569542},{"NoteNumber":61,"Velocity":68,"Duration":125070,"SoundDuration":125070,"Delta":85632872},{"NoteNumber":52,"Velocity":57,"Duration":125070,"SoundDuration":125070,"Delta":85632872},{"NoteNumber":80,"Velocity":89,"Duration":183601,"SoundDuration":183601,"Delta":85757942},{"NoteNumber":85,"Velocity":89,"Duration":183601,"SoundDuration":183601,"Delta":85757942},{"NoteNumber":92,"Velocity":105,"Duration":183601,"SoundDuration":183601,"Delta":85757942},{"NoteNumber":64,"Velocity":75,"Duration":259028,"SoundDuration":259028,"Delta":85757942},{"NoteNumber":92,"Velocity":107,"Duration":226278,"SoundDuration":226278,"Delta":85941544},{"NoteNumber":85,"Velocity":90,"Duration":226278,"SoundDuration":226278,"Delta":85941544},{"NoteNumber":80,"Velocity":90,"Duration":226278,"SoundDuration":226278,"Delta":85941544},{"NoteNumber":33,"Velocity":58,"Duration":150852,"SoundDuration":150852,"Delta":86016970},{"NoteNumber":40,"Velocity":69,"Duration":150852,"SoundDuration":150852,"Delta":86016970},{"NoteNumber":80,"Velocity":90,"Duration":222915,"SoundDuration":222915,"Delta":86167823},{"NoteNumber":85,"Velocity":90,"Duration":222915,"SoundDuration":222915,"Delta":86167823},{"NoteNumber":92,"Velocity":107,"Duration":222915,"SoundDuration":222915,"Delta":86167823},{"NoteNumber":42,"Velocity":66,"Duration":297220,"SoundDuration":297220,"Delta":86167823},{"NoteNumber":87,"Velocity":99,"Duration":215568,"SoundDuration":215568,"Delta":86390739},{"NoteNumber":80,"Velocity":84,"Duration":215568,"SoundDuration":215568,"Delta":86390739},{"NoteNumber":75,"Velocity":84,"Duration":215568,"SoundDuration":215568,"Delta":86390739},{"NoteNumber":42,"Velocity":61,"Duration":141262,"SoundDuration":141262,"Delta":86465044},{"NoteNumber":87,"Velocity":99,"Duration":211894,"SoundDuration":211894,"Delta":86606307},{"NoteNumber":80,"Velocity":84,"Duration":211894,"SoundDuration":211894,"Delta":86606307},{"NoteNumber":75,"Velocity":84,"Duration":211894,"SoundDuration":211894,"Delta":86606307},{"NoteNumber":58,"Velocity":67,"Duration":282525,"SoundDuration":282525,"Delta":86606307},{"NoteNumber":52,"Velocity":67,"Duration":282525,"SoundDuration":282525,"Delta":86606307},{"NoteNumber":73,"Velocity":80,"Duration":205239,"SoundDuration":205239,"Delta":86818201},{"NoteNumber":80,"Velocity":80,"Duration":205239,"SoundDuration":205239,"Delta":86818201},{"NoteNumber":85,"Velocity":95,"Duration":205239,"SoundDuration":205239,"Delta":86818201},{"NoteNumber":52,"Velocity":63,"Duration":134607,"SoundDuration":134607,"Delta":86888832},{"NoteNumber":73,"Velocity":89,"Duration":222915,"SoundDuration":222915,"Delta":87023440},{"NoteNumber":80,"Velocity":89,"Duration":222915,"SoundDuration":222915,"Delta":87023440},{"NoteNumber":85,"Velocity":105,"Duration":222915,"SoundDuration":222915,"Delta":87023440},{"NoteNumber":58,"Velocity":64,"Duration":297220,"SoundDuration":297220,"Delta":87023440},{"NoteNumber":64,"Velocity":69,"Duration":297220,"SoundDuration":297220,"Delta":87023440},{"NoteNumber":68,"Velocity":79,"Duration":216572,"SoundDuration":216572,"Delta":87246356},{"NoteNumber":75,"Velocity":79,"Duration":216572,"SoundDuration":216572,"Delta":87246356},{"NoteNumber":80,"Velocity":93,"Duration":216572,"SoundDuration":216572,"Delta":87246356},{"NoteNumber":58,"Velocity":63,"Duration":142267,"SoundDuration":142267,"Delta":87320661},{"NoteNumber":68,"Velocity":79,"Duration":201911,"SoundDuration":201911,"Delta":87462929},{"NoteNumber":75,"Velocity":79,"Duration":201911,"SoundDuration":201911,"Delta":87462929},{"NoteNumber":80,"Velocity":93,"Duration":201911,"SoundDuration":201911,"Delta":87462929},{"NoteNumber":64,"Velocity":67,"Duration":270255,"SoundDuration":270255,"Delta":87462929},{"NoteNumber":70,"Velocity":71,"Duration":270255,"SoundDuration":270255,"Delta":87462929},{"NoteNumber":63,"Velocity":77,"Duration":200744,"SoundDuration":200744,"Delta":87664840},{"NoteNumber":68,"Velocity":77,"Duration":200744,"SoundDuration":200744,"Delta":87664840},{"NoteNumber":75,"Velocity":91,"Duration":200744,"SoundDuration":200744,"Delta":87664840},{"NoteNumber":52,"Velocity":65,"Duration":132400,"SoundDuration":132400,"Delta":87733184},{"NoteNumber":63,"Velocity":77,"Duration":195596,"SoundDuration":195596,"Delta":87865585},{"NoteNumber":68,"Velocity":77,"Duration":195596,"SoundDuration":195596,"Delta":87865585},{"NoteNumber":75,"Velocity":91,"Duration":195596,"SoundDuration":195596,"Delta":87865585},{"NoteNumber":58,"Velocity":74,"Duration":259461,"SoundDuration":259461,"Delta":87865585},{"NoteNumber":64,"Velocity":79,"Duration":259461,"SoundDuration":259461,"Delta":87865585},{"NoteNumber":73,"Velocity":87,"Duration":191595,"SoundDuration":191595,"Delta":88061181},{"NoteNumber":68,"Velocity":73,"Duration":191595,"SoundDuration":191595,"Delta":88061181},{"NoteNumber":61,"Velocity":73,"Duration":191595,"SoundDuration":191595,"Delta":88061181},{"NoteNumber":42,"Velocity":68,"Duration":127730,"SoundDuration":127730,"Delta":88125046},{"NoteNumber":73,"Velocity":87,"Duration":191271,"SoundDuration":191271,"Delta":88252776},{"NoteNumber":68,"Velocity":73,"Duration":191271,"SoundDuration":191271,"Delta":88252776},{"NoteNumber":61,"Velocity":73,"Duration":191271,"SoundDuration":191271,"Delta":88252776},{"NoteNumber":52,"Velocity":75,"Duration":760568,"SoundDuration":760568,"Delta":88252776},{"NoteNumber":58,"Velocity":75,"Duration":760568,"SoundDuration":760568,"Delta":88252776},{"NoteNumber":68,"Velocity":81,"Duration":190379,"SoundDuration":190379,"Delta":88444048},{"NoteNumber":61,"Velocity":68,"Duration":190379,"SoundDuration":190379,"Delta":88444048},{"NoteNumber":56,"Velocity":68,"Duration":190379,"SoundDuration":190379,"Delta":88444048},{"NoteNumber":68,"Velocity":81,"Duration":189739,"SoundDuration":189739,"Delta":88634427},{"NoteNumber":61,"Velocity":68,"Duration":189739,"SoundDuration":189739,"Delta":88634427},{"NoteNumber":56,"Velocity":68,"Duration":189739,"SoundDuration":189739,"Delta":88634427},{"NoteNumber":51,"Velocity":66,"Duration":189178,"SoundDuration":189178,"Delta":88824166},{"NoteNumber":56,"Velocity":66,"Duration":189178,"SoundDuration":189178,"Delta":88824166},{"NoteNumber":63,"Velocity":78,"Duration":189178,"SoundDuration":189178,"Delta":88824166},{"NoteNumber":51,"Velocity":66,"Duration":189856,"SoundDuration":189856,"Delta":89013345},{"NoteNumber":56,"Velocity":66,"Duration":189856,"SoundDuration":189856,"Delta":89013345},{"NoteNumber":63,"Velocity":78,"Duration":189856,"SoundDuration":189856,"Delta":89013345},{"NoteNumber":42,"Velocity":69,"Duration":125489,"SoundDuration":125489,"Delta":89013345},{"NoteNumber":52,"Velocity":79,"Duration":330844,"SoundDuration":330844,"Delta":89138834},{"NoteNumber":61,"Velocity":75,"Duration":133238,"SoundDuration":133238,"Delta":89203202},{"NoteNumber":56,"Velocity":63,"Duration":133238,"SoundDuration":133238,"Delta":89203202},{"NoteNumber":49,"Velocity":63,"Duration":133238,"SoundDuration":133238,"Delta":89203202},{"NoteNumber":60,"Velocity":78,"Duration":133238,"SoundDuration":133238,"Delta":89336440},{"NoteNumber":48,"Velocity":66,"Duration":133238,"SoundDuration":133238,"Delta":89336440},{"NoteNumber":59,"Velocity":89,"Duration":559189,"SoundDuration":559189,"Delta":89469679},{"NoteNumber":56,"Velocity":75,"Duration":417926,"SoundDuration":417926,"Delta":89469679},{"NoteNumber":47,"Velocity":75,"Duration":276663,"SoundDuration":276663,"Delta":89469679},{"NoteNumber":28,"Velocity":65,"Duration":2584528,"SoundDuration":2584528,"Delta":89469679},{"NoteNumber":40,"Velocity":69,"Duration":2287307,"SoundDuration":2287307,"Delta":89469679},{"NoteNumber":47,"Velocity":72,"Duration":2000364,"SoundDuration":2000364,"Delta":89608010},{"NoteNumber":56,"Velocity":75,"Duration":423788,"SoundDuration":423788,"Delta":89746342},{"NoteNumber":59,"Velocity":78,"Duration":1276677,"SoundDuration":1276677,"Delta":89887605},{"NoteNumber":56,"Velocity":69,"Duration":2025339,"SoundDuration":2025339,"Delta":90028868},{"NoteNumber":93,"Velocity":81,"Duration":134607,"SoundDuration":134607,"Delta":90170131},{"NoteNumber":84,"Velocity":68,"Duration":134607,"SoundDuration":134607,"Delta":90170131},{"NoteNumber":81,"Velocity":68,"Duration":134607,"SoundDuration":134607,"Delta":90170131},{"NoteNumber":64,"Velocity":69,"Duration":134607,"SoundDuration":134607,"Delta":90170131},{"NoteNumber":92,"Velocity":90,"Duration":724024,"SoundDuration":724024,"Delta":90304738},{"NoteNumber":88,"Velocity":76,"Duration":724024,"SoundDuration":724024,"Delta":90304738},{"NoteNumber":80,"Velocity":76,"Duration":724024,"SoundDuration":724024,"Delta":90304738},{"NoteNumber":76,"Velocity":69,"Duration":148610,"SoundDuration":148610,"Delta":90453349},{"NoteNumber":68,"Velocity":69,"Duration":142267,"SoundDuration":142267,"Delta":90601959},{"NoteNumber":71,"Velocity":78,"Duration":142267,"SoundDuration":142267,"Delta":90744227},{"NoteNumber":64,"Velocity":69,"Duration":142267,"SoundDuration":142267,"Delta":90886495},{"NoteNumber":72,"Velocity":81,"Duration":135519,"SoundDuration":135519,"Delta":91028762},{"NoteNumber":69,"Velocity":68,"Duration":135519,"SoundDuration":135519,"Delta":91028762},{"NoteNumber":81,"Velocity":81,"Duration":135519,"SoundDuration":135519,"Delta":91028762},{"NoteNumber":59,"Velocity":66,"Duration":1025444,"SoundDuration":1025444,"Delta":91028762},{"NoteNumber":68,"Velocity":76,"Duration":592703,"SoundDuration":592703,"Delta":91164282},{"NoteNumber":76,"Velocity":76,"Duration":592703,"SoundDuration":592703,"Delta":91164282},{"NoteNumber":80,"Velocity":90,"Duration":592703,"SoundDuration":592703,"Delta":91164282},{"NoteNumber":52,"Velocity":69,"Duration":151161,"SoundDuration":151161,"Delta":91308603},{"NoteNumber":47,"Velocity":69,"Duration":594442,"SoundDuration":594442,"Delta":91459765},{"NoteNumber":40,"Velocity":77,"Duration":297220,"SoundDuration":297220,"Delta":91608375},{"NoteNumber":46,"Velocity":58,"Duration":148610,"SoundDuration":148610,"Delta":91756986},{"NoteNumber":58,"Velocity":69,"Duration":148610,"SoundDuration":148610,"Delta":91756986},{"NoteNumber":40,"Velocity":69,"Duration":297221,"SoundDuration":297221,"Delta":91756986},{"NoteNumber":57,"Velocity":81,"Duration":148610,"SoundDuration":148610,"Delta":91905596},{"NoteNumber":45,"Velocity":68,"Duration":148610,"SoundDuration":148610,"Delta":91905596},{"NoteNumber":28,"Velocity":69,"Duration":148610,"SoundDuration":148610,"Delta":91905596},{"NoteNumber":44,"Velocity":70,"Duration":276663,"SoundDuration":276663,"Delta":92054207},{"NoteNumber":56,"Velocity":84,"Duration":700451,"SoundDuration":700451,"Delta":92054207},{"NoteNumber":54,"Velocity":70,"Duration":417926,"SoundDuration":417926,"Delta":92054207},{"NoteNumber":48,"Velocity":70,"Duration":2620758,"SoundDuration":2620758,"Delta":92054207},{"NoteNumber":27,"Velocity":65,"Duration":2620758,"SoundDuration":2620758,"Delta":92054207},{"NoteNumber":39,"Velocity":69,"Duration":2620758,"SoundDuration":2620758,"Delta":92054207},{"NoteNumber":44,"Velocity":72,"Duration":2015269,"SoundDuration":2015269,"Delta":92192539},{"NoteNumber":54,"Velocity":75,"Duration":1724939,"SoundDuration":1724939,"Delta":92330870},{"NoteNumber":60,"Velocity":78,"Duration":141262,"SoundDuration":141262,"Delta":92472133},{"NoteNumber":56,"Velocity":69,"Duration":1135414,"SoundDuration":1135414,"Delta":92613396},{"NoteNumber":81,"Velocity":81,"Duration":134607,"SoundDuration":134607,"Delta":92754659},{"NoteNumber":78,"Velocity":68,"Duration":134607,"SoundDuration":134607,"Delta":92754659},{"NoteNumber":69,"Velocity":68,"Duration":134607,"SoundDuration":134607,"Delta":92754659},{"NoteNumber":66,"Velocity":69,"Duration":134607,"SoundDuration":134607,"Delta":92754659},{"NoteNumber":80,"Velocity":90,"Duration":724024,"SoundDuration":724024,"Delta":92889266},{"NoteNumber":72,"Velocity":76,"Duration":581756,"SoundDuration":581756,"Delta":92889266},{"NoteNumber":68,"Velocity":76,"Duration":439488,"SoundDuration":439488,"Delta":92889266},{"NoteNumber":78,"Velocity":69,"Duration":148610,"SoundDuration":148610,"Delta":93037877},{"NoteNumber":68,"Velocity":69,"Duration":426803,"SoundDuration":426803,"Delta":93186487},{"NoteNumber":72,"Velocity":78,"Duration":284535,"SoundDuration":284535,"Delta":93328755},{"NoteNumber":66,"Velocity":69,"Duration":142267,"SoundDuration":142267,"Delta":93471023},{"NoteNumber":90,"Velocity":81,"Duration":135519,"SoundDuration":135519,"Delta":93613290},{"NoteNumber":81,"Velocity":68,"Duration":135519,"SoundDuration":135519,"Delta":93613290},{"NoteNumber":93,"Velocity":81,"Duration":135519,"SoundDuration":135519,"Delta":93613290},{"NoteNumber":56,"Velocity":66,"Duration":1061674,"SoundDuration":1061674,"Delta":93613290},{"NoteNumber":80,"Velocity":76,"Duration":610997,"SoundDuration":610997,"Delta":93748810},{"NoteNumber":84,"Velocity":76,"Duration":610997,"SoundDuration":610997,"Delta":93748810},{"NoteNumber":92,"Velocity":90,"Duration":610997,"SoundDuration":610997,"Delta":93748810},{"NoteNumber":54,"Velocity":69,"Duration":610997,"SoundDuration":610997,"Delta":93900809},{"NoteNumber":44,"Velocity":69,"Duration":303997,"SoundDuration":303997,"Delta":94055810},{"NoteNumber":44,"Velocity":77,"Duration":467156,"SoundDuration":467156,"Delta":94207809},{"NoteNumber":42,"Velocity":58,"Duration":151998,"SoundDuration":151998,"Delta":94359807},{"NoteNumber":54,"Velocity":69,"Duration":315157,"SoundDuration":315157,"Delta":94359807},{"NoteNumber":32,"Velocity":69,"Duration":151998,"SoundDuration":151998,"Delta":94359807},{"NoteNumber":53,"Velocity":81,"Duration":163158,"SoundDuration":163158,"Delta":94511806},{"NoteNumber":41,"Velocity":68,"Duration":163158,"SoundDuration":163158,"Delta":94511806},{"NoteNumber":40,"Velocity":69,"Duration":878606,"SoundDuration":878606,"Delta":94674965},{"NoteNumber":52,"Velocity":73,"Duration":878606,"SoundDuration":878606,"Delta":94674965},{"NoteNumber":25,"Velocity":69,"Duration":439302,"SoundDuration":439302,"Delta":94674965},{"NoteNumber":37,"Velocity":69,"Duration":439302,"SoundDuration":439302,"Delta":94674965},{"NoteNumber":37,"Velocity":64,"Duration":146434,"SoundDuration":146434,"Delta":95114268},{"NoteNumber":44,"Velocity":64,"Duration":146434,"SoundDuration":146434,"Delta":95260702},{"NoteNumber":49,"Velocity":64,"Duration":146434,"SoundDuration":146434,"Delta":95407137},{"NoteNumber":64,"Velocity":73,"Duration":1650392,"SoundDuration":1650392,"Delta":95553571},{"NoteNumber":56,"Velocity":71,"Duration":149722,"SoundDuration":149722,"Delta":95553571},{"NoteNumber":49,"Velocity":63,"Duration":149723,"SoundDuration":149723,"Delta":95703294},{"NoteNumber":44,"Velocity":63,"Duration":149722,"SoundDuration":149722,"Delta":95853017},{"NoteNumber":37,"Velocity":62,"Duration":149723,"SoundDuration":149723,"Delta":96002740},{"NoteNumber":25,"Velocity":62,"Duration":149722,"SoundDuration":149722,"Delta":96152463},{"NoteNumber":44,"Velocity":62,"Duration":149722,"SoundDuration":149722,"Delta":96302186},{"NoteNumber":56,"Velocity":69,"Duration":149723,"SoundDuration":149723,"Delta":96451909},{"NoteNumber":49,"Velocity":62,"Duration":149722,"SoundDuration":149722,"Delta":96601632},{"NoteNumber":44,"Velocity":62,"Duration":149722,"SoundDuration":149722,"Delta":96751355},{"NoteNumber":37,"Velocity":69,"Duration":149723,"SoundDuration":149723,"Delta":96901078},{"NoteNumber":25,"Velocity":62,"Duration":153162,"SoundDuration":153162,"Delta":97050801},{"NoteNumber":63,"Velocity":68,"Duration":49777,"SoundDuration":49777,"Delta":97203964},{"NoteNumber":43,"Velocity":63,"Duration":153162,"SoundDuration":153162,"Delta":97203964},{"NoteNumber":61,"Velocity":70,"Duration":49777,"SoundDuration":49777,"Delta":97253742},{"NoteNumber":59,"Velocity":72,"Duration":53606,"SoundDuration":53606,"Delta":97303520},{"NoteNumber":58,"Velocity":78,"Duration":2604712,"SoundDuration":2604712,"Delta":97357127},{"NoteNumber":55,"Velocity":69,"Duration":146434,"SoundDuration":146434,"Delta":97357127},{"NoteNumber":49,"Velocity":61,"Duration":146434,"SoundDuration":146434,"Delta":97503561},{"NoteNumber":47,"Velocity":73,"Duration":138331,"SoundDuration":138331,"Delta":97649995},{"NoteNumber":43,"Velocity":61,"Duration":138331,"SoundDuration":138331,"Delta":97649995},{"NoteNumber":46,"Velocity":87,"Duration":872219,"SoundDuration":872219,"Delta":97788327},{"NoteNumber":37,"Velocity":68,"Duration":145369,"SoundDuration":145369,"Delta":97788327},{"NoteNumber":25,"Velocity":62,"Duration":145369,"SoundDuration":145369,"Delta":97933697},{"NoteNumber":43,"Velocity":59,"Duration":145369,"SoundDuration":145369,"Delta":98079067},{"NoteNumber":55,"Velocity":69,"Duration":145369,"SoundDuration":145369,"Delta":98224437},{"NoteNumber":49,"Velocity":62,"Duration":145369,"SoundDuration":145369,"Delta":98369807},{"NoteNumber":43,"Velocity":62,"Duration":145369,"SoundDuration":145369,"Delta":98515177},{"NoteNumber":34,"Velocity":88,"Duration":726849,"SoundDuration":726849,"Delta":98660547},{"NoteNumber":37,"Velocity":69,"Duration":145369,"SoundDuration":145369,"Delta":98660547},{"NoteNumber":25,"Velocity":64,"Duration":145369,"SoundDuration":145369,"Delta":98805917},{"NoteNumber":43,"Velocity":65,"Duration":145369,"SoundDuration":145369,"Delta":98951287},{"NoteNumber":55,"Velocity":69,"Duration":145369,"SoundDuration":145369,"Delta":99096657},{"NoteNumber":49,"Velocity":63,"Duration":145369,"SoundDuration":145369,"Delta":99242027},{"NoteNumber":47,"Velocity":73,"Duration":138331,"SoundDuration":138331,"Delta":99387397},{"NoteNumber":43,"Velocity":63,"Duration":138331,"SoundDuration":138331,"Delta":99387397},{"NoteNumber":46,"Velocity":83,"Duration":436109,"SoundDuration":436109,"Delta":99525729},{"NoteNumber":37,"Velocity":69,"Duration":145369,"SoundDuration":145369,"Delta":99525729},{"NoteNumber":25,"Velocity":61,"Duration":145369,"SoundDuration":145369,"Delta":99671099},{"NoteNumber":54,"Velocity":62,"Duration":72685,"SoundDuration":72685,"Delta":99816469},{"NoteNumber":42,"Velocity":61,"Duration":145369,"SoundDuration":145369,"Delta":99816469},{"NoteNumber":57,"Velocity":70,"Duration":72684,"SoundDuration":72684,"Delta":99889154},{"NoteNumber":69,"Velocity":81,"Duration":2481465,"SoundDuration":2481465,"Delta":99961839},{"NoteNumber":54,"Velocity":69,"Duration":145369,"SoundDuration":145369,"Delta":99961839},{"NoteNumber":45,"Velocity":62,"Duration":145369,"SoundDuration":145369,"Delta":100107209},{"NoteNumber":42,"Velocity":62,"Duration":145369,"SoundDuration":145369,"Delta":100252579},{"NoteNumber":37,"Velocity":64,"Duration":145369,"SoundDuration":145369,"Delta":100397949},{"NoteNumber":25,"Velocity":59,"Duration":145369,"SoundDuration":145369,"Delta":100543319},{"NoteNumber":42,"Velocity":59,"Duration":145369,"SoundDuration":145369,"Delta":100688689},{"NoteNumber":54,"Velocity":69,"Duration":145369,"SoundDuration":145369,"Delta":100834059},{"NoteNumber":45,"Velocity":62,"Duration":145369,"SoundDuration":145369,"Delta":100979429},{"NoteNumber":42,"Velocity":58,"Duration":145369,"SoundDuration":145369,"Delta":101124799},{"NoteNumber":37,"Velocity":68,"Duration":145369,"SoundDuration":145369,"Delta":101270169},{"NoteNumber":25,"Velocity":59,"Duration":145369,"SoundDuration":145369,"Delta":101415539},{"NoteNumber":42,"Velocity":59,"Duration":145369,"SoundDuration":145369,"Delta":101560909},{"NoteNumber":54,"Velocity":69,"Duration":145369,"SoundDuration":145369,"Delta":101706279},{"NoteNumber":45,"Velocity":59,"Duration":145369,"SoundDuration":145369,"Delta":101851649},{"NoteNumber":42,"Velocity":59,"Duration":145369,"SoundDuration":145369,"Delta":101997019},{"NoteNumber":37,"Velocity":65,"Duration":145370,"SoundDuration":145370,"Delta":102142389},{"NoteNumber":25,"Velocity":59,"Duration":155545,"SoundDuration":155545,"Delta":102287759},{"NoteNumber":68,"Velocity":68,"Duration":50552,"SoundDuration":50552,"Delta":102443304},{"NoteNumber":43,"Velocity":59,"Duration":155545,"SoundDuration":155545,"Delta":102443304},{"NoteNumber":66,"Velocity":70,"Duration":50552,"SoundDuration":50552,"Delta":102493856},{"NoteNumber":64,"Velocity":72,"Duration":54440,"SoundDuration":54440,"Delta":102544408},{"NoteNumber":63,"Velocity":78,"Duration":2572219,"SoundDuration":2572219,"Delta":102598849},{"NoteNumber":55,"Velocity":69,"Duration":145369,"SoundDuration":145369,"Delta":102598849},{"NoteNumber":45,"Velocity":58,"Duration":145369,"SoundDuration":145369,"Delta":102744219},{"NoteNumber":52,"Velocity":73,"Duration":136444,"SoundDuration":136444,"Delta":102889589},{"NoteNumber":43,"Velocity":58,"Duration":136444,"SoundDuration":136444,"Delta":102889589},{"NoteNumber":51,"Velocity":87,"Duration":721604,"SoundDuration":721604,"Delta":103026033},{"NoteNumber":37,"Velocity":65,"Duration":144321,"SoundDuration":144321,"Delta":103026033},{"NoteNumber":25,"Velocity":56,"Duration":144320,"SoundDuration":144320,"Delta":103170354},{"NoteNumber":43,"Velocity":56,"Duration":144321,"SoundDuration":144321,"Delta":103314675},{"NoteNumber":55,"Velocity":70,"Duration":144321,"SoundDuration":144321,"Delta":103458996},{"NoteNumber":45,"Velocity":58,"Duration":144320,"SoundDuration":144320,"Delta":103603317},{"NoteNumber":40,"Velocity":73,"Duration":136444,"SoundDuration":136444,"Delta":103747638},{"NoteNumber":43,"Velocity":55,"Duration":136444,"SoundDuration":136444,"Delta":103747638},{"NoteNumber":39,"Velocity":88,"Duration":721604,"SoundDuration":721604,"Delta":103884083},{"NoteNumber":37,"Velocity":62,"Duration":144321,"SoundDuration":144321,"Delta":103884083},{"NoteNumber":25,"Velocity":53,"Duration":144320,"SoundDuration":144320,"Delta":104028404},{"NoteNumber":43,"Velocity":53,"Duration":144321,"SoundDuration":144321,"Delta":104172725},{"NoteNumber":55,"Velocity":69,"Duration":144321,"SoundDuration":144321,"Delta":104317046},{"NoteNumber":45,"Velocity":57,"Duration":144320,"SoundDuration":144320,"Delta":104461367},{"NoteNumber":52,"Velocity":73,"Duration":135519,"SoundDuration":135519,"Delta":104605688},{"NoteNumber":43,"Velocity":57,"Duration":135519,"SoundDuration":135519,"Delta":104605688},{"NoteNumber":51,"Velocity":83,"Duration":429861,"SoundDuration":429861,"Delta":104741207},{"NoteNumber":37,"Velocity":63,"Duration":143287,"SoundDuration":143287,"Delta":104741207},{"NoteNumber":25,"Velocity":55,"Duration":143287,"SoundDuration":143287,"Delta":104884494},{"NoteNumber":56,"Velocity":73,"Duration":53732,"SoundDuration":53732,"Delta":105009870},{"NoteNumber":44,"Velocity":55,"Duration":143287,"SoundDuration":143287,"Delta":105027781},{"NoteNumber":61,"Velocity":76,"Duration":53732,"SoundDuration":53732,"Delta":105063603},{"NoteNumber":64,"Velocity":77,"Duration":53732,"SoundDuration":53732,"Delta":105117336},{"NoteNumber":76,"Velocity":82,"Duration":2387637,"SoundDuration":2387637,"Delta":105171068},{"NoteNumber":56,"Velocity":69,"Duration":143287,"SoundDuration":143287,"Delta":105171068},{"NoteNumber":49,"Velocity":58,"Duration":143287,"SoundDuration":143287,"Delta":105314355},{"NoteNumber":44,"Velocity":58,"Duration":141964,"SoundDuration":141964,"Delta":105457642},{"NoteNumber":37,"Velocity":65,"Duration":141239,"SoundDuration":141239,"Delta":105599607},{"NoteNumber":25,"Velocity":56,"Duration":140469,"SoundDuration":140469,"Delta":105740846},{"NoteNumber":44,"Velocity":56,"Duration":139758,"SoundDuration":139758,"Delta":105881315},{"NoteNumber":56,"Velocity":69,"Duration":139272,"SoundDuration":139272,"Delta":106021074},{"NoteNumber":49,"Velocity":58,"Duration":138523,"SoundDuration":138523,"Delta":106160346},{"NoteNumber":44,"Velocity":58,"Duration":138523,"SoundDuration":138523,"Delta":106298869},{"NoteNumber":37,"Velocity":63,"Duration":138523,"SoundDuration":138523,"Delta":106437393},{"NoteNumber":25,"Velocity":57,"Duration":138523,"SoundDuration":138523,"Delta":106575916},{"NoteNumber":44,"Velocity":57,"Duration":139223,"SoundDuration":139223,"Delta":106714439},{"NoteNumber":56,"Velocity":69,"Duration":139489,"SoundDuration":139489,"Delta":106853663},{"NoteNumber":49,"Velocity":59,"Duration":139489,"SoundDuration":139489,"Delta":106993153},{"NoteNumber":44,"Velocity":59,"Duration":139489,"SoundDuration":139489,"Delta":107132642},{"NoteNumber":37,"Velocity":64,"Duration":143287,"SoundDuration":143287,"Delta":107272132},{"NoteNumber":25,"Velocity":59,"Duration":143287,"SoundDuration":143287,"Delta":107415419},{"NoteNumber":75,"Velocity":61,"Duration":34910,"SoundDuration":34910,"Delta":107558706},{"NoteNumber":46,"Velocity":59,"Duration":174550,"SoundDuration":174550,"Delta":107558706},{"NoteNumber":73,"Velocity":63,"Duration":34910,"SoundDuration":34910,"Delta":107593616},{"NoteNumber":71,"Velocity":64,"Duration":34910,"SoundDuration":34910,"Delta":107630708},{"NoteNumber":70,"Velocity":67,"Duration":34910,"SoundDuration":34910,"Delta":107665618},{"NoteNumber":68,"Velocity":71,"Duration":32728,"SoundDuration":32728,"Delta":107700528},{"NoteNumber":67,"Velocity":78,"Duration":2535818,"SoundDuration":2535818,"Delta":107733256},{"NoteNumber":58,"Velocity":69,"Duration":142267,"SoundDuration":142267,"Delta":107733256},{"NoteNumber":49,"Velocity":59,"Duration":142267,"SoundDuration":142267,"Delta":107875524},{"NoteNumber":56,"Velocity":73,"Duration":131943,"SoundDuration":131943,"Delta":108017792},{"NoteNumber":46,"Velocity":59,"Duration":131943,"SoundDuration":131943,"Delta":108017792},{"NoteNumber":55,"Velocity":87,"Duration":716434,"SoundDuration":716434,"Delta":108149735},{"NoteNumber":37,"Velocity":64,"Duration":143287,"SoundDuration":143287,"Delta":108149735},{"NoteNumber":25,"Velocity":58,"Duration":143287,"SoundDuration":143287,"Delta":108293022},{"NoteNumber":46,"Velocity":58,"Duration":143287,"SoundDuration":143287,"Delta":108436309},{"NoteNumber":58,"Velocity":69,"Duration":143287,"SoundDuration":143287,"Delta":108579596},{"NoteNumber":49,"Velocity":58,"Duration":143286,"SoundDuration":143286,"Delta":108722883},{"NoteNumber":44,"Velocity":73,"Duration":132819,"SoundDuration":132819,"Delta":108866170},{"NoteNumber":46,"Velocity":58,"Duration":132819,"SoundDuration":132819,"Delta":108866170},{"NoteNumber":43,"Velocity":88,"Duration":711338,"SoundDuration":711338,"Delta":108998990},{"NoteNumber":37,"Velocity":63,"Duration":142267,"SoundDuration":142267,"Delta":108998990},{"NoteNumber":25,"Velocity":57,"Duration":142267,"SoundDuration":142267,"Delta":109141258},{"NoteNumber":46,"Velocity":57,"Duration":142267,"SoundDuration":142267,"Delta":109283525},{"NoteNumber":58,"Velocity":69,"Duration":142267,"SoundDuration":142267,"Delta":109425793},{"NoteNumber":49,"Velocity":58,"Duration":142267,"SoundDuration":142267,"Delta":109568061},{"NoteNumber":56,"Velocity":73,"Duration":131943,"SoundDuration":131943,"Delta":109710328},{"NoteNumber":46,"Velocity":58,"Duration":131943,"SoundDuration":131943,"Delta":109710328},{"NoteNumber":55,"Velocity":83,"Duration":426803,"SoundDuration":426803,"Delta":109842272},{"NoteNumber":37,"Velocity":63,"Duration":142267,"SoundDuration":142267,"Delta":109842272},{"NoteNumber":25,"Velocity":58,"Duration":142267,"SoundDuration":142267,"Delta":109984539},{"NoteNumber":59,"Velocity":73,"Duration":53350,"SoundDuration":53350,"Delta":110109024},{"NoteNumber":47,"Velocity":58,"Duration":142267,"SoundDuration":142267,"Delta":110126807},{"NoteNumber":64,"Velocity":76,"Duration":53350,"SoundDuration":53350,"Delta":110162374},{"NoteNumber":67,"Velocity":77,"Duration":53350,"SoundDuration":53350,"Delta":110215724},{"NoteNumber":79,"Velocity":91,"Duration":1646435,"SoundDuration":1646435,"Delta":110269075},{"NoteNumber":59,"Velocity":69,"Duration":140721,"SoundDuration":140721,"Delta":110269075},{"NoteNumber":52,"Velocity":62,"Duration":139295,"SoundDuration":139295,"Delta":110409796},{"NoteNumber":47,"Velocity":62,"Duration":139030,"SoundDuration":139030,"Delta":110549092},{"NoteNumber":47,"Velocity":71,"Duration":138331,"SoundDuration":138331,"Delta":110688122},{"NoteNumber":37,"Velocity":63,"Duration":137880,"SoundDuration":137880,"Delta":110826453},{"NoteNumber":47,"Velocity":64,"Duration":137381,"SoundDuration":137381,"Delta":110964334},{"NoteNumber":59,"Velocity":78,"Duration":136748,"SoundDuration":136748,"Delta":111101715},{"NoteNumber":52,"Velocity":67,"Duration":136444,"SoundDuration":136444,"Delta":111238464},{"NoteNumber":47,"Velocity":67,"Duration":135820,"SoundDuration":135820,"Delta":111374909},{"NoteNumber":47,"Velocity":74,"Duration":135519,"SoundDuration":135519,"Delta":111510729},{"NoteNumber":37,"Velocity":69,"Duration":134721,"SoundDuration":134721,"Delta":111646248},{"NoteNumber":48,"Velocity":69,"Duration":134540,"SoundDuration":134540,"Delta":111780970},{"NoteNumber":78,"Velocity":90,"Duration":1623613,"SoundDuration":1623613,"Delta":111915510},{"NoteNumber":60,"Velocity":81,"Duration":133707,"SoundDuration":133707,"Delta":111915510},{"NoteNumber":51,"Velocity":72,"Duration":133707,"SoundDuration":133707,"Delta":112049218},{"NoteNumber":48,"Velocity":73,"Duration":133707,"SoundDuration":133707,"Delta":112182926},{"NoteNumber":48,"Velocity":83,"Duration":133707,"SoundDuration":133707,"Delta":112316633},{"NoteNumber":37,"Velocity":74,"Duration":133707,"SoundDuration":133707,"Delta":112450341},{"NoteNumber":48,"Velocity":74,"Duration":133108,"SoundDuration":133108,"Delta":112584049},{"NoteNumber":60,"Velocity":84,"Duration":133664,"SoundDuration":133664,"Delta":112717157},{"NoteNumber":51,"Velocity":74,"Duration":135040,"SoundDuration":135040,"Delta":112850821},{"NoteNumber":48,"Velocity":75,"Duration":136214,"SoundDuration":136214,"Delta":112985862},{"NoteNumber":48,"Velocity":80,"Duration":137642,"SoundDuration":137642,"Delta":113122076},{"NoteNumber":37,"Velocity":73,"Duration":138982,"SoundDuration":138982,"Delta":113259719},{"NoteNumber":47,"Velocity":73,"Duration":140422,"SoundDuration":140422,"Delta":113398701},{"NoteNumber":77,"Velocity":104,"Duration":837018,"SoundDuration":837018,"Delta":113539123},{"NoteNumber":61,"Velocity":82,"Duration":151998,"SoundDuration":151998,"Delta":113539123},{"NoteNumber":53,"Velocity":68,"Duration":167423,"SoundDuration":167423,"Delta":113691122},{"NoteNumber":47,"Velocity":68,"Duration":182848,"SoundDuration":182848,"Delta":113858546},{"NoteNumber":69,"Velocity":96,"Duration":1874207,"SoundDuration":1874207,"Delta":114041395},{"NoteNumber":57,"Velocity":96,"Duration":1874207,"SoundDuration":1874207,"Delta":114041395},{"NoteNumber":37,"Velocity":76,"Duration":149947,"SoundDuration":149947,"Delta":114041395},{"NoteNumber":25,"Velocity":68,"Duration":148190,"SoundDuration":148190,"Delta":114191342},{"NoteNumber":47,"Velocity":68,"Duration":146434,"SoundDuration":146434,"Delta":114339533},{"NoteNumber":78,"Velocity":92,"Duration":109825,"SoundDuration":109825,"Delta":114376142},{"NoteNumber":77,"Velocity":103,"Duration":1798042,"SoundDuration":1798042,"Delta":114485968},{"NoteNumber":61,"Velocity":82,"Duration":158002,"SoundDuration":158002,"Delta":114485968},{"NoteNumber":53,"Velocity":68,"Duration":158002,"SoundDuration":158002,"Delta":114643970},{"NoteNumber":47,"Velocity":68,"Duration":158002,"SoundDuration":158002,"Delta":114801973},{"NoteNumber":37,"Velocity":76,"Duration":158002,"SoundDuration":158002,"Delta":114959976},{"NoteNumber":25,"Velocity":68,"Duration":158002,"SoundDuration":158002,"Delta":115117979},{"NoteNumber":47,"Velocity":68,"Duration":158002,"SoundDuration":158002,"Delta":115275982},{"NoteNumber":61,"Velocity":82,"Duration":160539,"SoundDuration":160539,"Delta":115433985},{"NoteNumber":53,"Velocity":68,"Duration":160539,"SoundDuration":160539,"Delta":115594524},{"NoteNumber":47,"Velocity":68,"Duration":160539,"SoundDuration":160539,"Delta":115755063},{"NoteNumber":56,"Velocity":92,"Duration":954587,"SoundDuration":954587,"Delta":115915603},{"NoteNumber":68,"Velocity":92,"Duration":954587,"SoundDuration":954587,"Delta":115915603},{"NoteNumber":37,"Velocity":76,"Duration":173340,"SoundDuration":173340,"Delta":115915603},{"NoteNumber":25,"Velocity":68,"Duration":158934,"SoundDuration":158934,"Delta":116088943},{"NoteNumber":83,"Velocity":82,"Duration":36132,"SoundDuration":36132,"Delta":116247878},{"NoteNumber":47,"Velocity":68,"Duration":144529,"SoundDuration":144529,"Delta":116247878},{"NoteNumber":81,"Velocity":85,"Duration":36132,"SoundDuration":36132,"Delta":116284010},{"NoteNumber":80,"Velocity":87,"Duration":36132,"SoundDuration":36132,"Delta":116320143},{"NoteNumber":78,"Velocity":92,"Duration":36132,"SoundDuration":36132,"Delta":116356275},{"NoteNumber":77,"Velocity":94,"Duration":845546,"SoundDuration":845546,"Delta":116392407},{"NoteNumber":61,"Velocity":82,"Duration":159261,"SoundDuration":159261,"Delta":116392407},{"NoteNumber":53,"Velocity":68,"Duration":159261,"SoundDuration":159261,"Delta":116551668},{"NoteNumber":47,"Velocity":68,"Duration":159261,"SoundDuration":159261,"Delta":116710929},{"NoteNumber":55,"Velocity":98,"Duration":477749,"SoundDuration":477749,"Delta":116870190},{"NoteNumber":67,"Velocity":98,"Duration":477749,"SoundDuration":477749,"Delta":116870190},{"NoteNumber":37,"Velocity":76,"Duration":171850,"SoundDuration":171850,"Delta":116870190},{"NoteNumber":25,"Velocity":68,"Duration":159249,"SoundDuration":159249,"Delta":117042041},{"NoteNumber":76,"Velocity":85,"Duration":45827,"SoundDuration":45827,"Delta":117201291},{"NoteNumber":49,"Velocity":68,"Duration":146648,"SoundDuration":146648,"Delta":117201291},{"NoteNumber":75,"Velocity":91,"Duration":45827,"SoundDuration":45827,"Delta":117247119},{"NoteNumber":74,"Velocity":94,"Duration":54993,"SoundDuration":54993,"Delta":117292947},{"NoteNumber":73,"Velocity":104,"Duration":848177,"SoundDuration":848177,"Delta":117347940},{"NoteNumber":61,"Velocity":82,"Duration":151998,"SoundDuration":151998,"Delta":117347940},{"NoteNumber":55,"Velocity":68,"Duration":170002,"SoundDuration":170002,"Delta":117499939},{"NoteNumber":45,"Velocity":68,"Duration":188005,"SoundDuration":188005,"Delta":117669941},{"NoteNumber":57,"Velocity":96,"Duration":1877631,"SoundDuration":1877631,"Delta":117857946},{"NoteNumber":69,"Velocity":96,"Duration":1877631,"SoundDuration":1877631,"Delta":117857946},{"NoteNumber":37,"Velocity":76,"Duration":152230,"SoundDuration":152230,"Delta":117857946},{"NoteNumber":25,"Velocity":68,"Duration":149332,"SoundDuration":149332,"Delta":118010177},{"NoteNumber":49,"Velocity":68,"Duration":146434,"SoundDuration":146434,"Delta":118159509},{"NoteNumber":74,"Velocity":92,"Duration":109825,"SoundDuration":109825,"Delta":118196117},{"NoteNumber":73,"Velocity":103,"Duration":1799632,"SoundDuration":1799632,"Delta":118305943},{"NoteNumber":61,"Velocity":82,"Duration":158002,"SoundDuration":158002,"Delta":118305943},{"NoteNumber":55,"Velocity":68,"Duration":158002,"SoundDuration":158002,"Delta":118463946},{"NoteNumber":45,"Velocity":68,"Duration":158002,"SoundDuration":158002,"Delta":118621949},{"NoteNumber":37,"Velocity":76,"Duration":158002,"SoundDuration":158002,"Delta":118779952},{"NoteNumber":25,"Velocity":68,"Duration":158002,"SoundDuration":158002,"Delta":118937954},{"NoteNumber":49,"Velocity":68,"Duration":158002,"SoundDuration":158002,"Delta":119095957},{"NoteNumber":61,"Velocity":82,"Duration":160539,"SoundDuration":160539,"Delta":119253960},{"NoteNumber":55,"Velocity":68,"Duration":160539,"SoundDuration":160539,"Delta":119414499},{"NoteNumber":45,"Velocity":68,"Duration":160539,"SoundDuration":160539,"Delta":119575039},{"NoteNumber":68,"Velocity":92,"Duration":957767,"SoundDuration":957767,"Delta":119735578},{"NoteNumber":56,"Velocity":92,"Duration":957767,"SoundDuration":957767,"Delta":119735578},{"NoteNumber":37,"Velocity":76,"Duration":173340,"SoundDuration":173340,"Delta":119735578},{"NoteNumber":25,"Velocity":68,"Duration":159994,"SoundDuration":159994,"Delta":119908918},{"NoteNumber":80,"Velocity":82,"Duration":36662,"SoundDuration":36662,"Delta":120068913},{"NoteNumber":49,"Velocity":68,"Duration":146648,"SoundDuration":146648,"Delta":120068913},{"NoteNumber":77,"Velocity":85,"Duration":36662,"SoundDuration":36662,"Delta":120105575},{"NoteNumber":76,"Velocity":87,"Duration":36662,"SoundDuration":36662,"Delta":120142238},{"NoteNumber":74,"Velocity":92,"Duration":36662,"SoundDuration":36662,"Delta":120178900},{"NoteNumber":73,"Velocity":94,"Duration":828298,"SoundDuration":828298,"Delta":120215562},{"NoteNumber":61,"Velocity":82,"Duration":159261,"SoundDuration":159261,"Delta":120215562},{"NoteNumber":55,"Velocity":68,"Duration":159261,"SoundDuration":159261,"Delta":120374823},{"NoteNumber":45,"Velocity":68,"Duration":159261,"SoundDuration":159261,"Delta":120534084},{"NoteNumber":63,"Velocity":98,"Duration":462138,"SoundDuration":462138,"Delta":120693345},{"NoteNumber":51,"Velocity":98,"Duration":462138,"SoundDuration":462138,"Delta":120693345},{"NoteNumber":37,"Velocity":76,"Duration":159261,"SoundDuration":159261,"Delta":120693345},{"NoteNumber":25,"Velocity":68,"Duration":154046,"SoundDuration":154046,"Delta":120852606},{"NoteNumber":74,"Velocity":82,"Duration":37207,"SoundDuration":37207,"Delta":121006652},{"NoteNumber":46,"Velocity":68,"Duration":148831,"SoundDuration":148831,"Delta":121006652},{"NoteNumber":73,"Velocity":85,"Duration":37207,"SoundDuration":37207,"Delta":121043860},{"NoteNumber":72,"Velocity":87,"Duration":37207,"SoundDuration":37207,"Delta":121081068},{"NoteNumber":71,"Velocity":92,"Duration":37207,"SoundDuration":37207,"Delta":121118276},{"NoteNumber":70,"Velocity":104,"Duration":857470,"SoundDuration":857470,"Delta":121155484},{"NoteNumber":58,"Velocity":82,"Duration":151998,"SoundDuration":151998,"Delta":121155484},{"NoteNumber":52,"Velocity":68,"Duration":173674,"SoundDuration":173674,"Delta":121307483},{"NoteNumber":42,"Velocity":68,"Duration":195350,"SoundDuration":195350,"Delta":121481158},{"NoteNumber":50,"Velocity":96,"Duration":1875906,"SoundDuration":1875906,"Delta":121676508},{"NoteNumber":62,"Velocity":96,"Duration":1875906,"SoundDuration":1875906,"Delta":121676508},{"NoteNumber":37,"Velocity":76,"Duration":151080,"SoundDuration":151080,"Delta":121676508},{"NoteNumber":25,"Velocity":68,"Duration":148757,"SoundDuration":148757,"Delta":121827589},{"NoteNumber":46,"Velocity":68,"Duration":146434,"SoundDuration":146434,"Delta":121976346},{"NoteNumber":71,"Velocity":92,"Duration":109825,"SoundDuration":109825,"Delta":122012954},{"NoteNumber":70,"Velocity":103,"Duration":1780430,"SoundDuration":1780430,"Delta":122122780},{"NoteNumber":58,"Velocity":82,"Duration":158002,"SoundDuration":158002,"Delta":122122780},{"NoteNumber":52,"Velocity":68,"Duration":158002,"SoundDuration":158002,"Delta":122280783},{"NoteNumber":42,"Velocity":68,"Duration":158002,"SoundDuration":158002,"Delta":122438786},{"NoteNumber":37,"Velocity":76,"Duration":158002,"SoundDuration":158002,"Delta":122596789},{"NoteNumber":25,"Velocity":68,"Duration":158002,"SoundDuration":158002,"Delta":122754791},{"NoteNumber":46,"Velocity":68,"Duration":158002,"SoundDuration":158002,"Delta":122912794},{"NoteNumber":58,"Velocity":82,"Duration":160539,"SoundDuration":160539,"Delta":123070797},{"NoteNumber":52,"Velocity":68,"Duration":160539,"SoundDuration":160539,"Delta":123231336},{"NoteNumber":42,"Velocity":68,"Duration":160539,"SoundDuration":160539,"Delta":123391876},{"NoteNumber":49,"Velocity":92,"Duration":938565,"SoundDuration":938565,"Delta":123552415},{"NoteNumber":61,"Velocity":92,"Duration":938565,"SoundDuration":938565,"Delta":123552415},{"NoteNumber":37,"Velocity":76,"Duration":160539,"SoundDuration":160539,"Delta":123552415},{"NoteNumber":25,"Velocity":68,"Duration":153594,"SoundDuration":153594,"Delta":123712954},{"NoteNumber":76,"Velocity":82,"Duration":36662,"SoundDuration":36662,"Delta":123866549},{"NoteNumber":46,"Velocity":68,"Duration":146648,"SoundDuration":146648,"Delta":123866549},{"NoteNumber":74,"Velocity":85,"Duration":36662,"SoundDuration":36662,"Delta":123903211},{"NoteNumber":73,"Velocity":87,"Duration":36662,"SoundDuration":36662,"Delta":123939873},{"NoteNumber":71,"Velocity":92,"Duration":36662,"SoundDuration":36662,"Delta":123976535},{"NoteNumber":70,"Velocity":94,"Duration":829135,"SoundDuration":829135,"Delta":124013198},{"NoteNumber":58,"Velocity":82,"Duration":159261,"SoundDuration":159261,"Delta":124013198},{"NoteNumber":52,"Velocity":68,"Duration":159261,"SoundDuration":159261,"Delta":124172459},{"NoteNumber":42,"Velocity":68,"Duration":159261,"SoundDuration":159261,"Delta":124331720},{"NoteNumber":48,"Velocity":98,"Duration":463812,"SoundDuration":463812,"Delta":124490981},{"NoteNumber":60,"Velocity":98,"Duration":463812,"SoundDuration":463812,"Delta":124490981},{"NoteNumber":37,"Velocity":76,"Duration":159261,"SoundDuration":159261,"Delta":124490981},{"NoteNumber":25,"Velocity":68,"Duration":154604,"SoundDuration":154604,"Delta":124650242},{"NoteNumber":71,"Velocity":82,"Duration":37486,"SoundDuration":37486,"Delta":124804846},{"NoteNumber":43,"Velocity":68,"Duration":149947,"SoundDuration":149947,"Delta":124804846},{"NoteNumber":70,"Velocity":85,"Duration":37486,"SoundDuration":37486,"Delta":124842333},{"NoteNumber":69,"Velocity":87,"Duration":37486,"SoundDuration":37486,"Delta":124879820},{"NoteNumber":68,"Velocity":92,"Duration":37486,"SoundDuration":37486,"Delta":124917306},{"NoteNumber":67,"Velocity":94,"Duration":827166,"SoundDuration":827166,"Delta":124954793},{"NoteNumber":55,"Velocity":82,"Duration":474008,"SoundDuration":474008,"Delta":124954793},{"NoteNumber":49,"Velocity":68,"Duration":158002,"SoundDuration":158002,"Delta":125112796},{"NoteNumber":43,"Velocity":68,"Duration":158002,"SoundDuration":158002,"Delta":125270799},{"NoteNumber":47,"Velocity":91,"Duration":1412633,"SoundDuration":1412633,"Delta":125428802},{"NoteNumber":59,"Velocity":96,"Duration":1412633,"SoundDuration":1412633,"Delta":125428802},{"NoteNumber":37,"Velocity":76,"Duration":158002,"SoundDuration":158002,"Delta":125428802},{"NoteNumber":25,"Velocity":68,"Duration":158002,"SoundDuration":158002,"Delta":125586805},{"NoteNumber":73,"Velocity":82,"Duration":37152,"SoundDuration":37152,"Delta":125744808},{"NoteNumber":43,"Velocity":68,"Duration":148610,"SoundDuration":148610,"Delta":125744808},{"NoteNumber":71,"Velocity":85,"Duration":37152,"SoundDuration":37152,"Delta":125781960},{"NoteNumber":70,"Velocity":87,"Duration":37152,"SoundDuration":37152,"Delta":125819113},{"NoteNumber":68,"Velocity":92,"Duration":37152,"SoundDuration":37152,"Delta":125856265},{"NoteNumber":67,"Velocity":103,"Duration":1316250,"SoundDuration":1316250,"Delta":125893418},{"NoteNumber":55,"Velocity":82,"Duration":158002,"SoundDuration":158002,"Delta":125893418},{"NoteNumber":49,"Velocity":68,"Duration":158002,"SoundDuration":158002,"Delta":126051421},{"NoteNumber":43,"Velocity":68,"Duration":158002,"SoundDuration":158002,"Delta":126209424},{"NoteNumber":37,"Velocity":76,"Duration":158002,"SoundDuration":158002,"Delta":126367427},{"NoteNumber":25,"Velocity":68,"Duration":158002,"SoundDuration":158002,"Delta":126525429},{"NoteNumber":43,"Velocity":68,"Duration":158002,"SoundDuration":158002,"Delta":126683432},{"NoteNumber":58,"Velocity":84,"Duration":995151,"SoundDuration":995151,"Delta":126841435},{"NoteNumber":46,"Velocity":73,"Duration":159261,"SoundDuration":159261,"Delta":126841435},{"NoteNumber":55,"Velocity":82,"Duration":159261,"SoundDuration":159261,"Delta":126841435},{"NoteNumber":49,"Velocity":68,"Duration":159261,"SoundDuration":159261,"Delta":127000696},{"NoteNumber":61,"Velocity":82,"Duration":49711,"SoundDuration":49711,"Delta":127159957},{"NoteNumber":43,"Velocity":68,"Duration":198846,"SoundDuration":198846,"Delta":127159957},{"NoteNumber":63,"Velocity":85,"Duration":49711,"SoundDuration":49711,"Delta":127209669},{"NoteNumber":64,"Velocity":87,"Duration":49711,"SoundDuration":49711,"Delta":127259380},{"NoteNumber":66,"Velocity":92,"Duration":49711,"SoundDuration":49711,"Delta":127309092},{"NoteNumber":67,"Velocity":100,"Duration":1335311,"SoundDuration":1335311,"Delta":127358804},{"NoteNumber":37,"Velocity":76,"Duration":159261,"SoundDuration":159261,"Delta":127358804},{"NoteNumber":25,"Velocity":68,"Duration":159261,"SoundDuration":159261,"Delta":127518065},{"NoteNumber":43,"Velocity":68,"Duration":159261,"SoundDuration":159261,"Delta":127677326},{"NoteNumber":57,"Velocity":91,"Duration":1094507,"SoundDuration":1094507,"Delta":127836587},{"NoteNumber":45,"Velocity":73,"Duration":165865,"SoundDuration":165865,"Delta":127836587},{"NoteNumber":55,"Velocity":82,"Duration":165865,"SoundDuration":165865,"Delta":127836587},{"NoteNumber":49,"Velocity":68,"Duration":165864,"SoundDuration":165864,"Delta":128002452},{"NoteNumber":43,"Velocity":68,"Duration":165864,"SoundDuration":165864,"Delta":128168317},{"NoteNumber":37,"Velocity":76,"Duration":165864,"SoundDuration":165864,"Delta":128334182},{"NoteNumber":25,"Velocity":68,"Duration":194068,"SoundDuration":194068,"Delta":128500047},{"NoteNumber":66,"Velocity":68,"Duration":114997,"SoundDuration":114997,"Delta":128694115},{"NoteNumber":56,"Velocity":68,"Duration":114997,"SoundDuration":114997,"Delta":128694115},{"NoteNumber":44,"Velocity":68,"Duration":114997,"SoundDuration":114997,"Delta":128694115},{"NoteNumber":65,"Velocity":68,"Duration":121981,"SoundDuration":121981,"Delta":128809113},{"NoteNumber":43,"Velocity":68,"Duration":121981,"SoundDuration":121981,"Delta":128809113},{"NoteNumber":55,"Velocity":68,"Duration":121981,"SoundDuration":121981,"Delta":128809113},{"NoteNumber":57,"Velocity":68,"Duration":1000167,"SoundDuration":1000167,"Delta":128931094},{"NoteNumber":61,"Velocity":68,"Duration":1000167,"SoundDuration":1000167,"Delta":128931094},{"NoteNumber":64,"Velocity":80,"Duration":1000167,"SoundDuration":1000167,"Delta":128931094},{"NoteNumber":42,"Velocity":77,"Duration":166694,"SoundDuration":166694,"Delta":128931094},{"NoteNumber":54,"Velocity":82,"Duration":166694,"SoundDuration":166694,"Delta":128931094},{"NoteNumber":49,"Velocity":68,"Duration":166694,"SoundDuration":166694,"Delta":129097788},{"NoteNumber":42,"Velocity":68,"Duration":166694,"SoundDuration":166694,"Delta":129264483},{"NoteNumber":37,"Velocity":76,"Duration":166694,"SoundDuration":166694,"Delta":129431177},{"NoteNumber":25,"Velocity":68,"Duration":166694,"SoundDuration":166694,"Delta":129597872},{"NoteNumber":42,"Velocity":68,"Duration":166694,"SoundDuration":166694,"Delta":129764566},{"NoteNumber":64,"Velocity":73,"Duration":1019404,"SoundDuration":1019404,"Delta":129931261},{"NoteNumber":61,"Velocity":62,"Duration":1019404,"SoundDuration":1019404,"Delta":129931261},{"NoteNumber":52,"Velocity":62,"Duration":1019404,"SoundDuration":1019404,"Delta":129931261},{"NoteNumber":57,"Velocity":62,"Duration":1019404,"SoundDuration":1019404,"Delta":129931261},{"NoteNumber":54,"Velocity":82,"Duration":166694,"SoundDuration":166694,"Delta":129931261},{"NoteNumber":49,"Velocity":68,"Duration":166694,"SoundDuration":166694,"Delta":130097955},{"NoteNumber":42,"Velocity":68,"Duration":166694,"SoundDuration":166694,"Delta":130264650},{"NoteNumber":37,"Velocity":76,"Duration":166694,"SoundDuration":166694,"Delta":130431344},{"NoteNumber":25,"Velocity":68,"Duration":166694,"SoundDuration":166694,"Delta":130598039},{"NoteNumber":43,"Velocity":68,"Duration":185932,"SoundDuration":185932,"Delta":130764733},{"NoteNumber":64,"Velocity":79,"Duration":1000167,"SoundDuration":1000167,"Delta":130950665},{"NoteNumber":57,"Velocity":67,"Duration":1000167,"SoundDuration":1000167,"Delta":130950665},{"NoteNumber":60,"Velocity":67,"Duration":1000167,"SoundDuration":1000167,"Delta":130950665},{"NoteNumber":52,"Velocity":67,"Duration":1000167,"SoundDuration":1000167,"Delta":130950665},{"NoteNumber":55,"Velocity":82,"Duration":166694,"SoundDuration":166694,"Delta":130950665},{"NoteNumber":48,"Velocity":68,"Duration":166694,"SoundDuration":166694,"Delta":131117360},{"NoteNumber":43,"Velocity":68,"Duration":166694,"SoundDuration":166694,"Delta":131284054},{"NoteNumber":37,"Velocity":76,"Duration":166694,"SoundDuration":166694,"Delta":131450749},{"NoteNumber":25,"Velocity":68,"Duration":166694,"SoundDuration":166694,"Delta":131617443},{"NoteNumber":43,"Velocity":68,"Duration":166694,"SoundDuration":166694,"Delta":131784138},{"NoteNumber":64,"Velocity":80,"Duration":1022233,"SoundDuration":1022233,"Delta":131950832},{"NoteNumber":57,"Velocity":68,"Duration":1022233,"SoundDuration":1022233,"Delta":131950832},{"NoteNumber":60,"Velocity":68,"Duration":1022233,"SoundDuration":1022233,"Delta":131950832},{"NoteNumber":52,"Velocity":68,"Duration":1022233,"SoundDuration":1022233,"Delta":131950832},{"NoteNumber":55,"Velocity":82,"Duration":166694,"SoundDuration":166694,"Delta":131950832},{"NoteNumber":49,"Velocity":68,"Duration":166694,"SoundDuration":166694,"Delta":132117527},{"NoteNumber":43,"Velocity":68,"Duration":166694,"SoundDuration":166694,"Delta":132284221},{"NoteNumber":37,"Velocity":76,"Duration":166694,"SoundDuration":166694,"Delta":132450916},{"NoteNumber":25,"Velocity":68,"Duration":166694,"SoundDuration":166694,"Delta":132617610},{"NoteNumber":44,"Velocity":68,"Duration":188761,"SoundDuration":188761,"Delta":132784305},{"NoteNumber":52,"Velocity":80,"Duration":372087,"SoundDuration":372087,"Delta":132973066},{"NoteNumber":61,"Velocity":80,"Duration":372087,"SoundDuration":372087,"Delta":132973066},{"NoteNumber":56,"Velocity":65,"Duration":170096,"SoundDuration":170096,"Delta":132973066},{"NoteNumber":49,"Velocity":55,"Duration":170096,"SoundDuration":170096,"Delta":133143163},{"NoteNumber":65,"Velocity":61,"Duration":170096,"SoundDuration":170096,"Delta":133313260},{"NoteNumber":69,"Velocity":61,"Duration":170096,"SoundDuration":170096,"Delta":133313260},{"NoteNumber":77,"Velocity":61,"Duration":170096,"SoundDuration":170096,"Delta":133313260},{"NoteNumber":44,"Velocity":55,"Duration":170096,"SoundDuration":170096,"Delta":133313260},{"NoteNumber":64,"Velocity":67,"Duration":469108,"SoundDuration":469108,"Delta":133483357},{"NoteNumber":73,"Velocity":67,"Duration":469108,"SoundDuration":469108,"Delta":133483357},{"NoteNumber":76,"Velocity":67,"Duration":469108,"SoundDuration":469108,"Delta":133483357},{"NoteNumber":37,"Velocity":63,"Duration":170096,"SoundDuration":170096,"Delta":133483357},{"NoteNumber":25,"Velocity":57,"Duration":170097,"SoundDuration":170097,"Delta":133653454},{"NoteNumber":61,"Velocity":72,"Duration":57407,"SoundDuration":57407,"Delta":133738503},{"NoteNumber":44,"Velocity":58,"Duration":128914,"SoundDuration":128914,"Delta":133823551},{"NoteNumber":61,"Velocity":72,"Duration":41416,"SoundDuration":41416,"Delta":133860430},{"NoteNumber":61,"Velocity":81,"Duration":366476,"SoundDuration":366476,"Delta":133952466},{"NoteNumber":56,"Velocity":71,"Duration":162753,"SoundDuration":162753,"Delta":133952466},{"NoteNumber":49,"Velocity":59,"Duration":171555,"SoundDuration":171555,"Delta":134115219},{"NoteNumber":77,"Velocity":62,"Duration":170407,"SoundDuration":170407,"Delta":134286775},{"NoteNumber":69,"Velocity":62,"Duration":170407,"SoundDuration":170407,"Delta":134286775},{"NoteNumber":65,"Velocity":62,"Duration":170407,"SoundDuration":170407,"Delta":134286775},{"NoteNumber":44,"Velocity":61,"Duration":170407,"SoundDuration":170407,"Delta":134286775},{"NoteNumber":76,"Velocity":69,"Duration":464830,"SoundDuration":464830,"Delta":134457182},{"NoteNumber":73,"Velocity":69,"Duration":464830,"SoundDuration":464830,"Delta":134457182},{"NoteNumber":64,"Velocity":69,"Duration":464830,"SoundDuration":464830,"Delta":134457182},{"NoteNumber":37,"Velocity":69,"Duration":168895,"SoundDuration":168895,"Delta":134457182},{"NoteNumber":25,"Velocity":62,"Duration":167851,"SoundDuration":167851,"Delta":134626078},{"NoteNumber":61,"Velocity":76,"Duration":56447,"SoundDuration":56447,"Delta":134710303},{"NoteNumber":44,"Velocity":63,"Duration":128083,"SoundDuration":128083,"Delta":134793929},{"NoteNumber":61,"Velocity":76,"Duration":41163,"SoundDuration":41163,"Delta":134830538},{"NoteNumber":61,"Velocity":88,"Duration":359909,"SoundDuration":359909,"Delta":134922012},{"NoteNumber":56,"Velocity":77,"Duration":165370,"SoundDuration":165370,"Delta":134922012},{"NoteNumber":49,"Velocity":65,"Duration":163947,"SoundDuration":163947,"Delta":135087383},{"NoteNumber":77,"Velocity":70,"Duration":162531,"SoundDuration":162531,"Delta":135251330},{"NoteNumber":69,"Velocity":70,"Duration":162531,"SoundDuration":162531,"Delta":135251330},{"NoteNumber":65,"Velocity":70,"Duration":162531,"SoundDuration":162531,"Delta":135251330},{"NoteNumber":44,"Velocity":65,"Duration":162531,"SoundDuration":162531,"Delta":135251330},{"NoteNumber":76,"Velocity":77,"Duration":447164,"SoundDuration":447164,"Delta":135413862},{"NoteNumber":73,"Velocity":77,"Duration":447164,"SoundDuration":447164,"Delta":135413862},{"NoteNumber":64,"Velocity":77,"Duration":447164,"SoundDuration":447164,"Delta":135413862},{"NoteNumber":37,"Velocity":74,"Duration":161562,"SoundDuration":161562,"Delta":135413862},{"NoteNumber":25,"Velocity":68,"Duration":160203,"SoundDuration":160203,"Delta":135575424},{"NoteNumber":61,"Velocity":85,"Duration":54054,"SoundDuration":54054,"Delta":135655694},{"NoteNumber":44,"Velocity":68,"Duration":125398,"SoundDuration":125398,"Delta":135735628},{"NoteNumber":61,"Velocity":85,"Duration":40424,"SoundDuration":40424,"Delta":135771195},{"NoteNumber":61,"Velocity":104,"Duration":342282,"SoundDuration":342282,"Delta":135861026},{"NoteNumber":56,"Velocity":83,"Duration":157572,"SoundDuration":157572,"Delta":135861026},{"NoteNumber":49,"Velocity":70,"Duration":155545,"SoundDuration":155545,"Delta":136018599},{"NoteNumber":77,"Velocity":73,"Duration":155095,"SoundDuration":155095,"Delta":136174144},{"NoteNumber":69,"Velocity":73,"Duration":155095,"SoundDuration":155095,"Delta":136174144},{"NoteNumber":65,"Velocity":73,"Duration":155095,"SoundDuration":155095,"Delta":136174144},{"NoteNumber":44,"Velocity":70,"Duration":155095,"SoundDuration":155095,"Delta":136174144},{"NoteNumber":64,"Velocity":86,"Duration":459229,"SoundDuration":459229,"Delta":136329239},{"NoteNumber":73,"Velocity":86,"Duration":459229,"SoundDuration":459229,"Delta":136329239},{"NoteNumber":76,"Velocity":86,"Duration":459229,"SoundDuration":459229,"Delta":136329239},{"NoteNumber":37,"Velocity":80,"Duration":154344,"SoundDuration":154344,"Delta":136329239},{"NoteNumber":25,"Velocity":72,"Duration":153428,"SoundDuration":153428,"Delta":136483584},{"NoteNumber":61,"Velocity":86,"Duration":441131,"SoundDuration":441131,"Delta":136788468},{"NoteNumber":77,"Velocity":70,"Duration":219174,"SoundDuration":219174,"Delta":137010425},{"NoteNumber":73,"Velocity":59,"Duration":219174,"SoundDuration":219174,"Delta":137010425},{"NoteNumber":69,"Velocity":59,"Duration":219174,"SoundDuration":219174,"Delta":137010425},{"NoteNumber":57,"Velocity":55,"Duration":219174,"SoundDuration":219174,"Delta":137010425},{"NoteNumber":61,"Velocity":55,"Duration":436024,"SoundDuration":436024,"Delta":137010425},{"NoteNumber":65,"Velocity":65,"Duration":219174,"SoundDuration":219174,"Delta":137010425},{"NoteNumber":76,"Velocity":71,"Duration":216849,"SoundDuration":216849,"Delta":137229599},{"NoteNumber":73,"Velocity":60,"Duration":216849,"SoundDuration":216849,"Delta":137229599},{"NoteNumber":68,"Velocity":60,"Duration":216849,"SoundDuration":216849,"Delta":137229599},{"NoteNumber":64,"Velocity":65,"Duration":216849,"SoundDuration":216849,"Delta":137229599},{"NoteNumber":61,"Velocity":55,"Duration":430990,"SoundDuration":430990,"Delta":137229599},{"NoteNumber":56,"Velocity":55,"Duration":216849,"SoundDuration":216849,"Delta":137229599},{"NoteNumber":77,"Velocity":72,"Duration":214140,"SoundDuration":214140,"Delta":137446449},{"NoteNumber":73,"Velocity":61,"Duration":214140,"SoundDuration":214140,"Delta":137446449},{"NoteNumber":69,"Velocity":61,"Duration":214140,"SoundDuration":214140,"Delta":137446449},{"NoteNumber":57,"Velocity":55,"Duration":214140,"SoundDuration":214140,"Delta":137446449},{"NoteNumber":61,"Velocity":55,"Duration":425988,"SoundDuration":425988,"Delta":137446449},{"NoteNumber":65,"Velocity":65,"Duration":214140,"SoundDuration":214140,"Delta":137446449},{"NoteNumber":76,"Velocity":72,"Duration":211847,"SoundDuration":211847,"Delta":137660590},{"NoteNumber":73,"Velocity":61,"Duration":211847,"SoundDuration":211847,"Delta":137660590},{"NoteNumber":68,"Velocity":61,"Duration":211847,"SoundDuration":211847,"Delta":137660590},{"NoteNumber":64,"Velocity":65,"Duration":211847,"SoundDuration":211847,"Delta":137660590},{"NoteNumber":61,"Velocity":55,"Duration":421303,"SoundDuration":421303,"Delta":137660590},{"NoteNumber":56,"Velocity":55,"Duration":211847,"SoundDuration":211847,"Delta":137660590},{"NoteNumber":77,"Velocity":72,"Duration":209455,"SoundDuration":209455,"Delta":137872438},{"NoteNumber":73,"Velocity":61,"Duration":209455,"SoundDuration":209455,"Delta":137872438},{"NoteNumber":69,"Velocity":61,"Duration":209455,"SoundDuration":209455,"Delta":137872438},{"NoteNumber":65,"Velocity":65,"Duration":209455,"SoundDuration":209455,"Delta":137872438},{"NoteNumber":61,"Velocity":55,"Duration":416335,"SoundDuration":416335,"Delta":137872438},{"NoteNumber":57,"Velocity":55,"Duration":209455,"SoundDuration":209455,"Delta":137872438},{"NoteNumber":76,"Velocity":72,"Duration":206880,"SoundDuration":206880,"Delta":138081893},{"NoteNumber":73,"Velocity":61,"Duration":206880,"SoundDuration":206880,"Delta":138081893},{"NoteNumber":68,"Velocity":61,"Duration":206880,"SoundDuration":206880,"Delta":138081893},{"NoteNumber":64,"Velocity":68,"Duration":206880,"SoundDuration":206880,"Delta":138081893},{"NoteNumber":61,"Velocity":57,"Duration":412952,"SoundDuration":412952,"Delta":138081893},{"NoteNumber":56,"Velocity":57,"Duration":206880,"SoundDuration":206880,"Delta":138081893},{"NoteNumber":77,"Velocity":72,"Duration":206072,"SoundDuration":206072,"Delta":138288773},{"NoteNumber":73,"Velocity":61,"Duration":206072,"SoundDuration":206072,"Delta":138288773},{"NoteNumber":69,"Velocity":61,"Duration":206072,"SoundDuration":206072,"Delta":138288773},{"NoteNumber":65,"Velocity":69,"Duration":206072,"SoundDuration":206072,"Delta":138288773},{"NoteNumber":61,"Velocity":58,"Duration":429986,"SoundDuration":429986,"Delta":138288773},{"NoteNumber":57,"Velocity":58,"Duration":206072,"SoundDuration":206072,"Delta":138288773},{"NoteNumber":76,"Velocity":72,"Duration":223914,"SoundDuration":223914,"Delta":138494846},{"NoteNumber":73,"Velocity":61,"Duration":223914,"SoundDuration":223914,"Delta":138494846},{"NoteNumber":68,"Velocity":61,"Duration":223914,"SoundDuration":223914,"Delta":138494846},{"NoteNumber":56,"Velocity":59,"Duration":223914,"SoundDuration":223914,"Delta":138494846},{"NoteNumber":61,"Velocity":59,"Duration":1707071,"SoundDuration":1707071,"Delta":138494846},{"NoteNumber":64,"Velocity":70,"Duration":223914,"SoundDuration":223914,"Delta":138494846},{"NoteNumber":89,"Velocity":76,"Duration":212019,"SoundDuration":212019,"Delta":138718760},{"NoteNumber":77,"Velocity":64,"Duration":212019,"SoundDuration":212019,"Delta":138718760},{"NoteNumber":81,"Velocity":64,"Duration":212019,"SoundDuration":212019,"Delta":138718760},{"NoteNumber":57,"Velocity":74,"Duration":212019,"SoundDuration":212019,"Delta":138718760},{"NoteNumber":49,"Velocity":62,"Duration":212019,"SoundDuration":212019,"Delta":138718760},{"NoteNumber":45,"Velocity":62,"Duration":212019,"SoundDuration":212019,"Delta":138718760},{"NoteNumber":76,"Velocity":62,"Duration":206072,"SoundDuration":206072,"Delta":138930779},{"NoteNumber":85,"Velocity":62,"Duration":206072,"SoundDuration":206072,"Delta":138930779},{"NoteNumber":88,"Velocity":74,"Duration":206072,"SoundDuration":206072,"Delta":138930779},{"NoteNumber":56,"Velocity":75,"Duration":206072,"SoundDuration":206072,"Delta":138930779},{"NoteNumber":49,"Velocity":63,"Duration":206072,"SoundDuration":206072,"Delta":138930779},{"NoteNumber":44,"Velocity":63,"Duration":206072,"SoundDuration":206072,"Delta":138930779},{"NoteNumber":81,"Velocity":63,"Duration":206072,"SoundDuration":206072,"Delta":139136851},{"NoteNumber":77,"Velocity":63,"Duration":206072,"SoundDuration":206072,"Delta":139136851},{"NoteNumber":89,"Velocity":75,"Duration":206072,"SoundDuration":206072,"Delta":139136851},{"NoteNumber":57,"Velocity":76,"Duration":206072,"SoundDuration":206072,"Delta":139136851},{"NoteNumber":49,"Velocity":64,"Duration":206072,"SoundDuration":206072,"Delta":139136851},{"NoteNumber":45,"Velocity":64,"Duration":206072,"SoundDuration":206072,"Delta":139136851},{"NoteNumber":76,"Velocity":66,"Duration":206072,"SoundDuration":206072,"Delta":139342924},{"NoteNumber":85,"Velocity":66,"Duration":206072,"SoundDuration":206072,"Delta":139342924},{"NoteNumber":88,"Velocity":78,"Duration":206072,"SoundDuration":206072,"Delta":139342924},{"NoteNumber":56,"Velocity":77,"Duration":206072,"SoundDuration":206072,"Delta":139342924},{"NoteNumber":49,"Velocity":65,"Duration":206072,"SoundDuration":206072,"Delta":139342924},{"NoteNumber":44,"Velocity":65,"Duration":206072,"SoundDuration":206072,"Delta":139342924},{"NoteNumber":81,"Velocity":70,"Duration":209953,"SoundDuration":209953,"Delta":139548996},{"NoteNumber":77,"Velocity":70,"Duration":209953,"SoundDuration":209953,"Delta":139548996},{"NoteNumber":89,"Velocity":83,"Duration":209953,"SoundDuration":209953,"Delta":139548996},{"NoteNumber":57,"Velocity":77,"Duration":209953,"SoundDuration":209953,"Delta":139548996},{"NoteNumber":49,"Velocity":65,"Duration":209953,"SoundDuration":209953,"Delta":139548996},{"NoteNumber":45,"Velocity":65,"Duration":209953,"SoundDuration":209953,"Delta":139548996},{"NoteNumber":88,"Velocity":84,"Duration":216688,"SoundDuration":216688,"Delta":139758950},{"NoteNumber":85,"Velocity":71,"Duration":216688,"SoundDuration":216688,"Delta":139758950},{"NoteNumber":76,"Velocity":71,"Duration":216688,"SoundDuration":216688,"Delta":139758950},{"NoteNumber":56,"Velocity":77,"Duration":216688,"SoundDuration":216688,"Delta":139758950},{"NoteNumber":49,"Velocity":65,"Duration":216688,"SoundDuration":216688,"Delta":139758950},{"NoteNumber":44,"Velocity":65,"Duration":216688,"SoundDuration":216688,"Delta":139758950},{"NoteNumber":89,"Velocity":86,"Duration":226278,"SoundDuration":226278,"Delta":139975639},{"NoteNumber":77,"Velocity":73,"Duration":226278,"SoundDuration":226278,"Delta":139975639},{"NoteNumber":81,"Velocity":73,"Duration":226278,"SoundDuration":226278,"Delta":139975639},{"NoteNumber":57,"Velocity":77,"Duration":226278,"SoundDuration":226278,"Delta":139975639},{"NoteNumber":49,"Velocity":65,"Duration":226278,"SoundDuration":226278,"Delta":139975639},{"NoteNumber":45,"Velocity":65,"Duration":226278,"SoundDuration":226278,"Delta":139975639},{"NoteNumber":37,"Velocity":104,"Duration":3478276,"SoundDuration":3478276,"Delta":140201917},{"NoteNumber":25,"Velocity":104,"Duration":3478276,"SoundDuration":3478276,"Delta":140201917},{"NoteNumber":76,"Velocity":65,"Duration":221657,"SoundDuration":221657,"Delta":140423633},{"NoteNumber":80,"Velocity":65,"Duration":221657,"SoundDuration":221657,"Delta":140423633},{"NoteNumber":85,"Velocity":65,"Duration":221657,"SoundDuration":221657,"Delta":140423633},{"NoteNumber":88,"Velocity":77,"Duration":221657,"SoundDuration":221657,"Delta":140423633},{"NoteNumber":44,"Velocity":57,"Duration":221657,"SoundDuration":221657,"Delta":140423633},{"NoteNumber":56,"Velocity":68,"Duration":221657,"SoundDuration":221657,"Delta":140423633},{"NoteNumber":52,"Velocity":57,"Duration":221657,"SoundDuration":221657,"Delta":140423633},{"NoteNumber":49,"Velocity":57,"Duration":221657,"SoundDuration":221657,"Delta":140423633},{"NoteNumber":76,"Velocity":70,"Duration":218641,"SoundDuration":218641,"Delta":140645291},{"NoteNumber":80,"Velocity":70,"Duration":218641,"SoundDuration":218641,"Delta":140645291},{"NoteNumber":85,"Velocity":70,"Duration":218641,"SoundDuration":218641,"Delta":140645291},{"NoteNumber":88,"Velocity":82,"Duration":218641,"SoundDuration":218641,"Delta":140645291},{"NoteNumber":64,"Velocity":70,"Duration":218641,"SoundDuration":218641,"Delta":140645291},{"NoteNumber":61,"Velocity":58,"Duration":218641,"SoundDuration":218641,"Delta":140645291},{"NoteNumber":56,"Velocity":58,"Duration":218641,"SoundDuration":218641,"Delta":140645291},{"NoteNumber":52,"Velocity":58,"Duration":218641,"SoundDuration":218641,"Delta":140645291},{"NoteNumber":88,"Velocity":88,"Duration":215680,"SoundDuration":215680,"Delta":140863932},{"NoteNumber":85,"Velocity":74,"Duration":215680,"SoundDuration":215680,"Delta":140863932},{"NoteNumber":80,"Velocity":74,"Duration":215680,"SoundDuration":215680,"Delta":140863932},{"NoteNumber":76,"Velocity":74,"Duration":215680,"SoundDuration":215680,"Delta":140863932},{"NoteNumber":52,"Velocity":63,"Duration":215680,"SoundDuration":215680,"Delta":140863932},{"NoteNumber":56,"Velocity":63,"Duration":215680,"SoundDuration":215680,"Delta":140863932},{"NoteNumber":61,"Velocity":63,"Duration":215680,"SoundDuration":215680,"Delta":140863932},{"NoteNumber":64,"Velocity":74,"Duration":215680,"SoundDuration":215680,"Delta":140863932},{"NoteNumber":76,"Velocity":79,"Duration":142117,"SoundDuration":142117,"Delta":141079612},{"NoteNumber":80,"Velocity":79,"Duration":142117,"SoundDuration":142117,"Delta":141079612},{"NoteNumber":85,"Velocity":79,"Duration":142117,"SoundDuration":142117,"Delta":141079612},{"NoteNumber":88,"Velocity":93,"Duration":142117,"SoundDuration":142117,"Delta":141079612},{"NoteNumber":52,"Velocity":64,"Duration":142117,"SoundDuration":142117,"Delta":141079612},{"NoteNumber":56,"Velocity":64,"Duration":142117,"SoundDuration":142117,"Delta":141079612},{"NoteNumber":61,"Velocity":64,"Duration":142117,"SoundDuration":142117,"Delta":141079612},{"NoteNumber":64,"Velocity":77,"Duration":142117,"SoundDuration":142117,"Delta":141079612},{"NoteNumber":76,"Velocity":82,"Duration":140891,"SoundDuration":140891,"Delta":141221730},{"NoteNumber":80,"Velocity":82,"Duration":140891,"SoundDuration":140891,"Delta":141221730},{"NoteNumber":85,"Velocity":82,"Duration":140891,"SoundDuration":140891,"Delta":141221730},{"NoteNumber":88,"Velocity":97,"Duration":140891,"SoundDuration":140891,"Delta":141221730},{"NoteNumber":52,"Velocity":67,"Duration":140891,"SoundDuration":140891,"Delta":141221730},{"NoteNumber":56,"Velocity":67,"Duration":140891,"SoundDuration":140891,"Delta":141221730},{"NoteNumber":61,"Velocity":67,"Duration":140891,"SoundDuration":140891,"Delta":141221730},{"NoteNumber":64,"Velocity":80,"Duration":140891,"SoundDuration":140891,"Delta":141221730},{"NoteNumber":76,"Velocity":85,"Duration":139710,"SoundDuration":139710,"Delta":141362621},{"NoteNumber":80,"Velocity":85,"Duration":139710,"SoundDuration":139710,"Delta":141362621},{"NoteNumber":85,"Velocity":85,"Duration":139710,"SoundDuration":139710,"Delta":141362621},{"NoteNumber":88,"Velocity":101,"Duration":139710,"SoundDuration":139710,"Delta":141362621},{"NoteNumber":52,"Velocity":70,"Duration":139710,"SoundDuration":139710,"Delta":141362621},{"NoteNumber":56,"Velocity":70,"Duration":139710,"SoundDuration":139710,"Delta":141362621},{"NoteNumber":61,"Velocity":70,"Duration":139710,"SoundDuration":139710,"Delta":141362621},{"NoteNumber":64,"Velocity":82,"Duration":139710,"SoundDuration":139710,"Delta":141362621},{"NoteNumber":76,"Velocity":86,"Duration":139295,"SoundDuration":139295,"Delta":141502331},{"NoteNumber":80,"Velocity":86,"Duration":139295,"SoundDuration":139295,"Delta":141502331},{"NoteNumber":85,"Velocity":86,"Duration":139295,"SoundDuration":139295,"Delta":141502331},{"NoteNumber":88,"Velocity":102,"Duration":139295,"SoundDuration":139295,"Delta":141502331},{"NoteNumber":52,"Velocity":73,"Duration":139295,"SoundDuration":139295,"Delta":141502331},{"NoteNumber":56,"Velocity":73,"Duration":139295,"SoundDuration":139295,"Delta":141502331},{"NoteNumber":61,"Velocity":73,"Duration":139295,"SoundDuration":139295,"Delta":141502331},{"NoteNumber":64,"Velocity":87,"Duration":139295,"SoundDuration":139295,"Delta":141502331},{"NoteNumber":76,"Velocity":90,"Duration":139295,"SoundDuration":139295,"Delta":141641626},{"NoteNumber":80,"Velocity":90,"Duration":139295,"SoundDuration":139295,"Delta":141641626},{"NoteNumber":85,"Velocity":90,"Duration":139295,"SoundDuration":139295,"Delta":141641626},{"NoteNumber":88,"Velocity":106,"Duration":139295,"SoundDuration":139295,"Delta":141641626},{"NoteNumber":52,"Velocity":78,"Duration":139295,"SoundDuration":139295,"Delta":141641626},{"NoteNumber":56,"Velocity":78,"Duration":139295,"SoundDuration":139295,"Delta":141641626},{"NoteNumber":61,"Velocity":78,"Duration":139295,"SoundDuration":139295,"Delta":141641626},{"NoteNumber":64,"Velocity":92,"Duration":139295,"SoundDuration":139295,"Delta":141641626},{"NoteNumber":76,"Velocity":93,"Duration":239291,"SoundDuration":239291,"Delta":141780922},{"NoteNumber":80,"Velocity":93,"Duration":239291,"SoundDuration":239291,"Delta":141780922},{"NoteNumber":85,"Velocity":93,"Duration":239291,"SoundDuration":239291,"Delta":141780922},{"NoteNumber":88,"Velocity":111,"Duration":239291,"SoundDuration":239291,"Delta":141780922},{"NoteNumber":52,"Velocity":80,"Duration":239291,"SoundDuration":239291,"Delta":141780922},{"NoteNumber":56,"Velocity":80,"Duration":239291,"SoundDuration":239291,"Delta":141780922},{"NoteNumber":61,"Velocity":80,"Duration":239291,"SoundDuration":239291,"Delta":141780922},{"NoteNumber":64,"Velocity":95,"Duration":239291,"SoundDuration":239291,"Delta":141780922},{"NoteNumber":85,"Velocity":111,"Duration":1659979,"SoundDuration":1659979,"Delta":142020213},{"NoteNumber":97,"Velocity":127,"Duration":1659979,"SoundDuration":1659979,"Delta":142020213},{"NoteNumber":61,"Velocity":94,"Duration":1659979,"SoundDuration":1659979,"Delta":142020213},{"NoteNumber":73,"Velocity":113,"Duration":1659979,"SoundDuration":1659979,"Delta":142020213}],"license":{"name":"Creative Commons Attribution-ShareAlike 3.0 Germany","url":"http://creativecommons.org/licenses/by-sa/3.0/de/deed.en","text":"The MIDI, audio (MP3, OGG) and video files of Bernd Krueger are licensed under the cc-by-sa Germany License. This means that you can use and adapt the files, as long as you attribute the copyright holder.\n\nName: Bernd Krueger\nSource: http://www.piano-midi.de\n\nThe distribution or public playback of the files is only allowed under identical license conditions.\n\nThe scores are open source.","attribution":"MIDI files by Bernd Krueger (piano-midi.de)","attributionUrl":"http://www.piano-midi.de"}}