{"title":"Non allegro - Presto","artist":"Rachmaninoff","durationMs":92933,"midiSha256":"c84758172549fede254f799de200a265fec2ddea55ad50b9b77017c09bee23a3","midiObject":[{"NoteNumber":78,"Velocity":39,"Duration":1482702,"SoundDuration":1482702,"Delta":0},{"NoteNumber":75,"Velocity":33,"Duration":1482702,"SoundDuration":1482702,"Delta":0},{"NoteNumber":72,"Velocity":34,"Duration":1482702,"SoundDuration":1482702,"Delta":1482702},{"NoteNumber":69,"Velocity":28,"Duration":1482702,"SoundDuration":1482702,"Delta":1482702},{"NoteNumber":62,"Velocity":36,"Duration":1482702,"SoundDuration":1482702,"Delta":2965404},{"NoteNumber":58,"Velocity":30,"Duration":1482702,"SoundDuration":1482702,"Delta":2965404},{"NoteNumber":54,"Velocity":28,"Duration":4891306,"SoundDuration":4891306,"Delta":4448106},{"NoteNumber":51,"Velocity":23,"Duration":4891306,"SoundDuration":4891306,"Delta":4448106},{"NoteNumber":39,"Velocity":18,"Duration":4347828,"SoundDuration":4347828,"Delta":4991584},{"NoteNumber":46,"Velocity":21,"Duration":4347828,"SoundDuration":4347828,"Delta":4991584},{"NoteNumber":58,"Velocity":37,"Duration":112346,"SoundDuration":112346,"Delta":9339412},{"NoteNumber":59,"Velocity":42,"Duration":110233,"SoundDuration":110233,"Delta":9451758},{"NoteNumber":57,"Velocity":43,"Duration":108042,"SoundDuration":108042,"Delta":9561992},{"NoteNumber":58,"Velocity":48,"Duration":105943,"SoundDuration":105943,"Delta":9670035},{"NoteNumber":63,"Velocity":49,"Duration":103931,"SoundDuration":103931,"Delta":9775979},{"NoteNumber":61,"Velocity":47,"Duration":100373,"SoundDuration":100373,"Delta":9879910},{"NoteNumber":62,"Velocity":54,"Duration":97658,"SoundDuration":97658,"Delta":9980284},{"NoteNumber":63,"Velocity":57,"Duration":95023,"SoundDuration":95023,"Delta":10077943},{"NoteNumber":66,"Velocity":51,"Duration":92527,"SoundDuration":92527,"Delta":10172966},{"NoteNumber":67,"Velocity":63,"Duration":90158,"SoundDuration":90158,"Delta":10265493},{"NoteNumber":70,"Velocity":64,"Duration":87910,"SoundDuration":87910,"Delta":10355651},{"NoteNumber":68,"Velocity":59,"Duration":85764,"SoundDuration":85764,"Delta":10443562},{"NoteNumber":71,"Velocity":69,"Duration":82873,"SoundDuration":82873,"Delta":10529327},{"NoteNumber":74,"Velocity":71,"Duration":81285,"SoundDuration":81285,"Delta":10612200},{"NoteNumber":75,"Velocity":75,"Duration":80537,"SoundDuration":80537,"Delta":10693486},{"NoteNumber":78,"Velocity":75,"Duration":79810,"SoundDuration":79810,"Delta":10774023},{"NoteNumber":75,"Velocity":80,"Duration":79560,"SoundDuration":79560,"Delta":10853834},{"NoteNumber":74,"Velocity":74,"Duration":79560,"SoundDuration":79560,"Delta":10933395},{"NoteNumber":77,"Velocity":92,"Duration":79560,"SoundDuration":79560,"Delta":11012956},{"NoteNumber":78,"Velocity":89,"Duration":1441008,"SoundDuration":1441008,"Delta":11012956},{"NoteNumber":66,"Velocity":89,"Duration":1441008,"SoundDuration":1441008,"Delta":11012956},{"NoteNumber":74,"Velocity":81,"Duration":79214,"SoundDuration":79214,"Delta":11092517},{"NoteNumber":73,"Velocity":75,"Duration":79214,"SoundDuration":79214,"Delta":11171731},{"NoteNumber":76,"Velocity":87,"Duration":79214,"SoundDuration":79214,"Delta":11250945},{"NoteNumber":73,"Velocity":75,"Duration":78900,"SoundDuration":78900,"Delta":11330159},{"NoteNumber":72,"Velocity":69,"Duration":78952,"SoundDuration":78952,"Delta":11409060},{"NoteNumber":75,"Velocity":81,"Duration":79214,"SoundDuration":79214,"Delta":11488012},{"NoteNumber":72,"Velocity":75,"Duration":79491,"SoundDuration":79491,"Delta":11567226},{"NoteNumber":71,"Velocity":71,"Duration":79685,"SoundDuration":79685,"Delta":11646718},{"NoteNumber":70,"Velocity":78,"Duration":79904,"SoundDuration":79904,"Delta":11726403},{"NoteNumber":71,"Velocity":75,"Duration":80142,"SoundDuration":80142,"Delta":11806307},{"NoteNumber":69,"Velocity":70,"Duration":80339,"SoundDuration":80339,"Delta":11886449},{"NoteNumber":75,"Velocity":78,"Duration":80606,"SoundDuration":80606,"Delta":11966789},{"NoteNumber":70,"Velocity":71,"Duration":80893,"SoundDuration":80893,"Delta":12047395},{"NoteNumber":65,"Velocity":64,"Duration":81005,"SoundDuration":81005,"Delta":12128289},{"NoteNumber":66,"Velocity":75,"Duration":81327,"SoundDuration":81327,"Delta":12209295},{"NoteNumber":63,"Velocity":71,"Duration":81569,"SoundDuration":81569,"Delta":12290622},{"NoteNumber":65,"Velocity":66,"Duration":81773,"SoundDuration":81773,"Delta":12372191},{"NoteNumber":62,"Velocity":77,"Duration":82054,"SoundDuration":82054,"Delta":12453965},{"NoteNumber":54,"Velocity":85,"Duration":984656,"SoundDuration":984656,"Delta":12453965},{"NoteNumber":66,"Velocity":93,"Duration":984656,"SoundDuration":984656,"Delta":12453965},{"NoteNumber":61,"Velocity":74,"Duration":82054,"SoundDuration":82054,"Delta":12536020},{"NoteNumber":64,"Velocity":70,"Duration":82054,"SoundDuration":82054,"Delta":12618074},{"NoteNumber":61,"Velocity":63,"Duration":82054,"SoundDuration":82054,"Delta":12700129},{"NoteNumber":60,"Velocity":58,"Duration":82054,"SoundDuration":82054,"Delta":12782184},{"NoteNumber":63,"Velocity":56,"Duration":82054,"SoundDuration":82054,"Delta":12864238},{"NoteNumber":60,"Velocity":60,"Duration":82054,"SoundDuration":82054,"Delta":12946293},{"NoteNumber":59,"Velocity":52,"Duration":82054,"SoundDuration":82054,"Delta":13028348},{"NoteNumber":62,"Velocity":50,"Duration":82054,"SoundDuration":82054,"Delta":13110402},{"NoteNumber":59,"Velocity":50,"Duration":82054,"SoundDuration":82054,"Delta":13192457},{"NoteNumber":58,"Velocity":49,"Duration":82054,"SoundDuration":82054,"Delta":13274512},{"NoteNumber":61,"Velocity":48,"Duration":82054,"SoundDuration":82054,"Delta":13356566},{"NoteNumber":57,"Velocity":56,"Duration":82054,"SoundDuration":82054,"Delta":13438621},{"NoteNumber":34,"Velocity":71,"Duration":1985152,"SoundDuration":1985152,"Delta":13438621},{"NoteNumber":46,"Velocity":78,"Duration":1985152,"SoundDuration":1985152,"Delta":13438621},{"NoteNumber":60,"Velocity":46,"Duration":82054,"SoundDuration":82054,"Delta":13520676},{"NoteNumber":56,"Velocity":44,"Duration":82054,"SoundDuration":82054,"Delta":13602730},{"NoteNumber":59,"Velocity":43,"Duration":82054,"SoundDuration":82054,"Delta":13684785},{"NoteNumber":55,"Velocity":40,"Duration":82054,"SoundDuration":82054,"Delta":13766840},{"NoteNumber":58,"Velocity":36,"Duration":82054,"SoundDuration":82054,"Delta":13848894},{"NoteNumber":54,"Velocity":41,"Duration":82054,"SoundDuration":82054,"Delta":13930949},{"NoteNumber":53,"Velocity":35,"Duration":82054,"SoundDuration":82054,"Delta":14013004},{"NoteNumber":56,"Velocity":35,"Duration":82054,"SoundDuration":82054,"Delta":14095058},{"NoteNumber":54,"Velocity":41,"Duration":82054,"SoundDuration":82054,"Delta":14177113},{"NoteNumber":52,"Velocity":36,"Duration":82054,"SoundDuration":82054,"Delta":14259168},{"NoteNumber":56,"Velocity":36,"Duration":82054,"SoundDuration":82054,"Delta":14341222},{"NoteNumber":54,"Velocity":40,"Duration":81685,"SoundDuration":81685,"Delta":14423277},{"NoteNumber":51,"Velocity":35,"Duration":81980,"SoundDuration":81980,"Delta":14504963},{"NoteNumber":56,"Velocity":34,"Duration":82273,"SoundDuration":82273,"Delta":14586944},{"NoteNumber":54,"Velocity":39,"Duration":82569,"SoundDuration":82569,"Delta":14669218},{"NoteNumber":53,"Velocity":34,"Duration":82870,"SoundDuration":82870,"Delta":14751788},{"NoteNumber":46,"Velocity":32,"Duration":83173,"SoundDuration":83173,"Delta":14834659},{"NoteNumber":58,"Velocity":37,"Duration":83549,"SoundDuration":83549,"Delta":14917832},{"NoteNumber":54,"Velocity":37,"Duration":83857,"SoundDuration":83857,"Delta":15001382},{"NoteNumber":56,"Velocity":33,"Duration":84164,"SoundDuration":84164,"Delta":15085239},{"NoteNumber":57,"Velocity":37,"Duration":84474,"SoundDuration":84474,"Delta":15169403},{"NoteNumber":59,"Velocity":34,"Duration":84789,"SoundDuration":84789,"Delta":15253877},{"NoteNumber":58,"Velocity":34,"Duration":85106,"SoundDuration":85106,"Delta":15338667},{"NoteNumber":65,"Velocity":31,"Duration":85091,"SoundDuration":85091,"Delta":15423773},{"NoteNumber":59,"Velocity":34,"Duration":84680,"SoundDuration":84680,"Delta":15508864},{"NoteNumber":57,"Velocity":35,"Duration":84178,"SoundDuration":84178,"Delta":15593545},{"NoteNumber":58,"Velocity":40,"Duration":83780,"SoundDuration":83780,"Delta":15677723},{"NoteNumber":63,"Velocity":42,"Duration":83295,"SoundDuration":83295,"Delta":15761504},{"NoteNumber":61,"Velocity":40,"Duration":82904,"SoundDuration":82904,"Delta":15844800},{"NoteNumber":62,"Velocity":48,"Duration":82406,"SoundDuration":82406,"Delta":15927704},{"NoteNumber":63,"Velocity":50,"Duration":82027,"SoundDuration":82027,"Delta":16010110},{"NoteNumber":66,"Velocity":47,"Duration":81555,"SoundDuration":81555,"Delta":16092137},{"NoteNumber":67,"Velocity":57,"Duration":81182,"SoundDuration":81182,"Delta":16173693},{"NoteNumber":70,"Velocity":59,"Duration":80722,"SoundDuration":80722,"Delta":16254875},{"NoteNumber":68,"Velocity":56,"Duration":80357,"SoundDuration":80357,"Delta":16335598},{"NoteNumber":71,"Velocity":65,"Duration":81825,"SoundDuration":81825,"Delta":16415955},{"NoteNumber":74,"Velocity":70,"Duration":81285,"SoundDuration":81285,"Delta":16497780},{"NoteNumber":75,"Velocity":74,"Duration":80537,"SoundDuration":80537,"Delta":16579066},{"NoteNumber":78,"Velocity":77,"Duration":79810,"SoundDuration":79810,"Delta":16659604},{"NoteNumber":75,"Velocity":80,"Duration":79560,"SoundDuration":79560,"Delta":16739415},{"NoteNumber":74,"Velocity":75,"Duration":79560,"SoundDuration":79560,"Delta":16818976},{"NoteNumber":77,"Velocity":92,"Duration":79560,"SoundDuration":79560,"Delta":16898537},{"NoteNumber":90,"Velocity":100,"Duration":59670,"SoundDuration":59670,"Delta":16898537},{"NoteNumber":74,"Velocity":81,"Duration":79214,"SoundDuration":79214,"Delta":16978098},{"NoteNumber":73,"Velocity":75,"Duration":79214,"SoundDuration":79214,"Delta":17057312},{"NoteNumber":76,"Velocity":87,"Duration":79214,"SoundDuration":79214,"Delta":17136526},{"NoteNumber":78,"Velocity":87,"Duration":59410,"SoundDuration":59410,"Delta":17136526},{"NoteNumber":73,"Velocity":75,"Duration":79214,"SoundDuration":79214,"Delta":17215740},{"NoteNumber":72,"Velocity":69,"Duration":79214,"SoundDuration":79214,"Delta":17294954},{"NoteNumber":75,"Velocity":81,"Duration":82054,"SoundDuration":82054,"Delta":17374168},{"NoteNumber":72,"Velocity":85,"Duration":61540,"SoundDuration":61540,"Delta":17374168},{"NoteNumber":72,"Velocity":75,"Duration":82054,"SoundDuration":82054,"Delta":17456223},{"NoteNumber":71,"Velocity":71,"Duration":82054,"SoundDuration":82054,"Delta":17538278},{"NoteNumber":70,"Velocity":89,"Duration":78536,"SoundDuration":78536,"Delta":17620332},{"NoteNumber":78,"Velocity":98,"Duration":58902,"SoundDuration":58902,"Delta":17620332},{"NoteNumber":71,"Velocity":75,"Duration":78536,"SoundDuration":78536,"Delta":17698869},{"NoteNumber":69,"Velocity":70,"Duration":78536,"SoundDuration":78536,"Delta":17777405},{"NoteNumber":75,"Velocity":88,"Duration":78536,"SoundDuration":78536,"Delta":17855941},{"NoteNumber":63,"Velocity":81,"Duration":58902,"SoundDuration":58902,"Delta":17855941},{"NoteNumber":70,"Velocity":74,"Duration":78536,"SoundDuration":78536,"Delta":17934477},{"NoteNumber":65,"Velocity":64,"Duration":78536,"SoundDuration":78536,"Delta":18013013},{"NoteNumber":66,"Velocity":81,"Duration":85903,"SoundDuration":85903,"Delta":18091549},{"NoteNumber":63,"Velocity":72,"Duration":85903,"SoundDuration":85903,"Delta":18177453},{"NoteNumber":65,"Velocity":66,"Duration":85903,"SoundDuration":85903,"Delta":18263356},{"NoteNumber":62,"Velocity":77,"Duration":78870,"SoundDuration":78870,"Delta":18349259},{"NoteNumber":66,"Velocity":92,"Duration":236611,"SoundDuration":236611,"Delta":18349259},{"NoteNumber":54,"Velocity":92,"Duration":236611,"SoundDuration":236611,"Delta":18349259},{"NoteNumber":61,"Velocity":75,"Duration":78870,"SoundDuration":78870,"Delta":18428130},{"NoteNumber":64,"Velocity":71,"Duration":78870,"SoundDuration":78870,"Delta":18507000},{"NoteNumber":61,"Velocity":65,"Duration":78870,"SoundDuration":78870,"Delta":18585871},{"NoteNumber":57,"Velocity":74,"Duration":236611,"SoundDuration":236611,"Delta":18585871},{"NoteNumber":45,"Velocity":74,"Duration":236611,"SoundDuration":236611,"Delta":18585871},{"NoteNumber":60,"Velocity":60,"Duration":78870,"SoundDuration":78870,"Delta":18664741},{"NoteNumber":63,"Velocity":59,"Duration":78870,"SoundDuration":78870,"Delta":18743612},{"NoteNumber":60,"Velocity":71,"Duration":83173,"SoundDuration":83173,"Delta":18822482},{"NoteNumber":59,"Velocity":57,"Duration":83173,"SoundDuration":83173,"Delta":18905656},{"NoteNumber":62,"Velocity":55,"Duration":83173,"SoundDuration":83173,"Delta":18988830},{"NoteNumber":59,"Velocity":64,"Duration":78536,"SoundDuration":78536,"Delta":19072004},{"NoteNumber":37,"Velocity":86,"Duration":235608,"SoundDuration":235608,"Delta":19072004},{"NoteNumber":49,"Velocity":86,"Duration":235608,"SoundDuration":235608,"Delta":19072004},{"NoteNumber":58,"Velocity":55,"Duration":78536,"SoundDuration":78536,"Delta":19150540},{"NoteNumber":61,"Velocity":55,"Duration":78536,"SoundDuration":78536,"Delta":19229076},{"NoteNumber":58,"Velocity":66,"Duration":78536,"SoundDuration":78536,"Delta":19307612},{"NoteNumber":42,"Velocity":70,"Duration":235608,"SoundDuration":235608,"Delta":19307612},{"NoteNumber":30,"Velocity":70,"Duration":235608,"SoundDuration":235608,"Delta":19307612},{"NoteNumber":57,"Velocity":49,"Duration":78536,"SoundDuration":78536,"Delta":19386149},{"NoteNumber":61,"Velocity":49,"Duration":78536,"SoundDuration":78536,"Delta":19464685},{"NoteNumber":57,"Velocity":63,"Duration":78536,"SoundDuration":78536,"Delta":19543221},{"NoteNumber":56,"Velocity":52,"Duration":78536,"SoundDuration":78536,"Delta":19621757},{"NoteNumber":57,"Velocity":51,"Duration":78536,"SoundDuration":78536,"Delta":19700293},{"NoteNumber":58,"Velocity":51,"Duration":78536,"SoundDuration":78536,"Delta":19778829},{"NoteNumber":59,"Velocity":46,"Duration":78536,"SoundDuration":78536,"Delta":19857366},{"NoteNumber":57,"Velocity":43,"Duration":78536,"SoundDuration":78536,"Delta":19935902},{"NoteNumber":58,"Velocity":49,"Duration":78536,"SoundDuration":78536,"Delta":20014438},{"NoteNumber":61,"Velocity":64,"Duration":708763,"SoundDuration":708763,"Delta":20014438},{"NoteNumber":66,"Velocity":64,"Duration":708763,"SoundDuration":708763,"Delta":20014438},{"NoteNumber":73,"Velocity":64,"Duration":708763,"SoundDuration":708763,"Delta":20014438},{"NoteNumber":59,"Velocity":42,"Duration":78536,"SoundDuration":78536,"Delta":20092974},{"NoteNumber":56,"Velocity":40,"Duration":78536,"SoundDuration":78536,"Delta":20171510},{"NoteNumber":58,"Velocity":47,"Duration":78536,"SoundDuration":78536,"Delta":20250046},{"NoteNumber":59,"Velocity":40,"Duration":78561,"SoundDuration":78561,"Delta":20328583},{"NoteNumber":49,"Velocity":40,"Duration":78870,"SoundDuration":78870,"Delta":20407144},{"NoteNumber":54,"Velocity":43,"Duration":78870,"SoundDuration":78870,"Delta":20486014},{"NoteNumber":58,"Velocity":37,"Duration":79102,"SoundDuration":79102,"Delta":20564885},{"NoteNumber":61,"Velocity":36,"Duration":79214,"SoundDuration":79214,"Delta":20643987},{"NoteNumber":63,"Velocity":41,"Duration":79227,"SoundDuration":79227,"Delta":20723201},{"NoteNumber":65,"Velocity":35,"Duration":79560,"SoundDuration":79560,"Delta":20802429},{"NoteNumber":66,"Velocity":33,"Duration":79560,"SoundDuration":79560,"Delta":20881989},{"NoteNumber":68,"Velocity":39,"Duration":79779,"SoundDuration":79779,"Delta":20961550},{"NoteNumber":70,"Velocity":37,"Duration":79904,"SoundDuration":79904,"Delta":21041330},{"NoteNumber":71,"Velocity":33,"Duration":79987,"SoundDuration":79987,"Delta":21121234},{"NoteNumber":73,"Velocity":36,"Duration":80256,"SoundDuration":80256,"Delta":21201222},{"NoteNumber":75,"Velocity":32,"Duration":80936,"SoundDuration":80936,"Delta":21281479},{"NoteNumber":77,"Velocity":32,"Duration":81761,"SoundDuration":81761,"Delta":21362416},{"NoteNumber":78,"Velocity":35,"Duration":82674,"SoundDuration":82674,"Delta":21444177},{"NoteNumber":80,"Velocity":32,"Duration":83504,"SoundDuration":83504,"Delta":21526852},{"NoteNumber":81,"Velocity":32,"Duration":84393,"SoundDuration":84393,"Delta":21610356},{"NoteNumber":82,"Velocity":38,"Duration":87130,"SoundDuration":87130,"Delta":21694750},{"NoteNumber":89,"Velocity":45,"Duration":261392,"SoundDuration":261392,"Delta":21694750},{"NoteNumber":86,"Velocity":45,"Duration":261392,"SoundDuration":261392,"Delta":21694750},{"NoteNumber":77,"Velocity":32,"Duration":87130,"SoundDuration":87130,"Delta":21781881},{"NoteNumber":73,"Velocity":30,"Duration":87130,"SoundDuration":87130,"Delta":21869012},{"NoteNumber":77,"Velocity":30,"Duration":87130,"SoundDuration":87130,"Delta":21956143},{"NoteNumber":87,"Velocity":41,"Duration":261392,"SoundDuration":261392,"Delta":21956143},{"NoteNumber":94,"Velocity":41,"Duration":261392,"SoundDuration":261392,"Delta":21956143},{"NoteNumber":78,"Velocity":31,"Duration":87130,"SoundDuration":87130,"Delta":22043273},{"NoteNumber":80,"Velocity":31,"Duration":87130,"SoundDuration":87130,"Delta":22130404},{"NoteNumber":82,"Velocity":35,"Duration":87130,"SoundDuration":87130,"Delta":22217535},{"NoteNumber":89,"Velocity":45,"Duration":261392,"SoundDuration":261392,"Delta":22217535},{"NoteNumber":86,"Velocity":45,"Duration":261392,"SoundDuration":261392,"Delta":22217535},{"NoteNumber":77,"Velocity":32,"Duration":87130,"SoundDuration":87130,"Delta":22304666},{"NoteNumber":70,"Velocity":32,"Duration":87130,"SoundDuration":87130,"Delta":22391797},{"NoteNumber":77,"Velocity":31,"Duration":91937,"SoundDuration":91937,"Delta":22478928},{"NoteNumber":87,"Velocity":40,"Duration":275811,"SoundDuration":275811,"Delta":22478928},{"NoteNumber":94,"Velocity":40,"Duration":275811,"SoundDuration":275811,"Delta":22478928},{"NoteNumber":78,"Velocity":33,"Duration":91937,"SoundDuration":91937,"Delta":22570865},{"NoteNumber":80,"Velocity":34,"Duration":91937,"SoundDuration":91937,"Delta":22662802},{"NoteNumber":82,"Velocity":37,"Duration":531067,"SoundDuration":531067,"Delta":22754739},{"NoteNumber":89,"Velocity":45,"Duration":531067,"SoundDuration":531067,"Delta":22754739},{"NoteNumber":86,"Velocity":45,"Duration":531067,"SoundDuration":531067,"Delta":22754739},{"NoteNumber":50,"Velocity":64,"Duration":85601,"SoundDuration":85601,"Delta":23285807},{"NoteNumber":22,"Velocity":85,"Duration":504085,"SoundDuration":504085,"Delta":23285807},{"NoteNumber":34,"Velocity":85,"Duration":504085,"SoundDuration":504085,"Delta":23285807},{"NoteNumber":56,"Velocity":67,"Duration":85601,"SoundDuration":85601,"Delta":23371408},{"NoteNumber":58,"Velocity":68,"Duration":85601,"SoundDuration":85601,"Delta":23457010},{"NoteNumber":62,"Velocity":72,"Duration":82426,"SoundDuration":82426,"Delta":23542612},{"NoteNumber":68,"Velocity":73,"Duration":82426,"SoundDuration":82426,"Delta":23625039},{"NoteNumber":70,"Velocity":75,"Duration":82426,"SoundDuration":82426,"Delta":23707465},{"NoteNumber":75,"Velocity":84,"Duration":81089,"SoundDuration":81089,"Delta":23789892},{"NoteNumber":63,"Velocity":84,"Duration":81089,"SoundDuration":81089,"Delta":23789892},{"NoteNumber":35,"Velocity":86,"Duration":1003411,"SoundDuration":1003411,"Delta":23789892},{"NoteNumber":47,"Velocity":86,"Duration":1003411,"SoundDuration":1003411,"Delta":23789892},{"NoteNumber":68,"Velocity":71,"Duration":81089,"SoundDuration":81089,"Delta":23870982},{"NoteNumber":67,"Velocity":70,"Duration":81089,"SoundDuration":81089,"Delta":23952072},{"NoteNumber":66,"Velocity":71,"Duration":81089,"SoundDuration":81089,"Delta":24033161},{"NoteNumber":68,"Velocity":71,"Duration":81089,"SoundDuration":81089,"Delta":24033161},{"NoteNumber":65,"Velocity":60,"Duration":81089,"SoundDuration":81089,"Delta":24114251},{"NoteNumber":64,"Velocity":60,"Duration":80946,"SoundDuration":80946,"Delta":24195341},{"NoteNumber":63,"Velocity":65,"Duration":80995,"SoundDuration":80995,"Delta":24276288},{"NoteNumber":58,"Velocity":57,"Duration":81507,"SoundDuration":81507,"Delta":24357283},{"NoteNumber":56,"Velocity":57,"Duration":81962,"SoundDuration":81962,"Delta":24438791},{"NoteNumber":55,"Velocity":65,"Duration":82546,"SoundDuration":82546,"Delta":24520754},{"NoteNumber":54,"Velocity":58,"Duration":82987,"SoundDuration":82987,"Delta":24603300},{"NoteNumber":53,"Velocity":58,"Duration":107016,"SoundDuration":107016,"Delta":24686287},{"NoteNumber":37,"Velocity":85,"Duration":505922,"SoundDuration":505922,"Delta":24793303},{"NoteNumber":49,"Velocity":85,"Duration":505922,"SoundDuration":505922,"Delta":24793303},{"NoteNumber":59,"Velocity":67,"Duration":86214,"SoundDuration":86214,"Delta":24879517},{"NoteNumber":64,"Velocity":68,"Duration":86214,"SoundDuration":86214,"Delta":24965732},{"NoteNumber":65,"Velocity":72,"Duration":82426,"SoundDuration":82426,"Delta":25051946},{"NoteNumber":71,"Velocity":73,"Duration":82426,"SoundDuration":82426,"Delta":25134373},{"NoteNumber":73,"Velocity":75,"Duration":82426,"SoundDuration":82426,"Delta":25216799},{"NoteNumber":78,"Velocity":86,"Duration":81089,"SoundDuration":81089,"Delta":25299226},{"NoteNumber":66,"Velocity":86,"Duration":81089,"SoundDuration":81089,"Delta":25299226},{"NoteNumber":50,"Velocity":90,"Duration":795588,"SoundDuration":795588,"Delta":25299226},{"NoteNumber":62,"Velocity":90,"Duration":795588,"SoundDuration":795588,"Delta":25299226},{"NoteNumber":73,"Velocity":71,"Duration":81089,"SoundDuration":81089,"Delta":25380316},{"NoteNumber":71,"Velocity":70,"Duration":81089,"SoundDuration":81089,"Delta":25461406},{"NoteNumber":69,"Velocity":71,"Duration":81089,"SoundDuration":81089,"Delta":25542496},{"NoteNumber":68,"Velocity":60,"Duration":81089,"SoundDuration":81089,"Delta":25623585},{"NoteNumber":67,"Velocity":60,"Duration":81072,"SoundDuration":81072,"Delta":25704675},{"NoteNumber":66,"Velocity":65,"Duration":82708,"SoundDuration":82708,"Delta":25785747},{"NoteNumber":65,"Velocity":57,"Duration":85120,"SoundDuration":85120,"Delta":25868455},{"NoteNumber":64,"Velocity":57,"Duration":141238,"SoundDuration":141238,"Delta":25953576},{"NoteNumber":63,"Velocity":87,"Duration":208324,"SoundDuration":208324,"Delta":26094814},{"NoteNumber":51,"Velocity":87,"Duration":208324,"SoundDuration":208324,"Delta":26094814},{"NoteNumber":99,"Velocity":72,"Duration":80006,"SoundDuration":80006,"Delta":26514377},{"NoteNumber":79,"Velocity":36,"Duration":120009,"SoundDuration":120009,"Delta":26514377},{"NoteNumber":82,"Velocity":43,"Duration":120009,"SoundDuration":120009,"Delta":26514377},{"NoteNumber":75,"Velocity":36,"Duration":120009,"SoundDuration":120009,"Delta":26514377},{"NoteNumber":70,"Velocity":36,"Duration":120009,"SoundDuration":120009,"Delta":26514377},{"NoteNumber":87,"Velocity":49,"Duration":80006,"SoundDuration":80006,"Delta":26594383},{"NoteNumber":99,"Velocity":40,"Duration":80006,"SoundDuration":80006,"Delta":26674389},{"NoteNumber":97,"Velocity":63,"Duration":84040,"SoundDuration":84040,"Delta":26754396},{"NoteNumber":71,"Velocity":28,"Duration":126060,"SoundDuration":126060,"Delta":26754396},{"NoteNumber":76,"Velocity":28,"Duration":126060,"SoundDuration":126060,"Delta":26754396},{"NoteNumber":80,"Velocity":28,"Duration":126060,"SoundDuration":126060,"Delta":26754396},{"NoteNumber":83,"Velocity":34,"Duration":126060,"SoundDuration":126060,"Delta":26754396},{"NoteNumber":85,"Velocity":40,"Duration":84040,"SoundDuration":84040,"Delta":26838436},{"NoteNumber":97,"Velocity":47,"Duration":84040,"SoundDuration":84040,"Delta":26922477},{"NoteNumber":99,"Velocity":64,"Duration":80006,"SoundDuration":80006,"Delta":27006518},{"NoteNumber":63,"Velocity":30,"Duration":120009,"SoundDuration":120009,"Delta":27006518},{"NoteNumber":87,"Velocity":48,"Duration":80006,"SoundDuration":80006,"Delta":27086524},{"NoteNumber":99,"Velocity":48,"Duration":80006,"SoundDuration":80006,"Delta":27166530},{"NoteNumber":87,"Velocity":64,"Duration":130446,"SoundDuration":130446,"Delta":27246537},{"NoteNumber":80,"Velocity":45,"Duration":130446,"SoundDuration":130446,"Delta":27246537},{"NoteNumber":76,"Velocity":38,"Duration":130446,"SoundDuration":130446,"Delta":27246537},{"NoteNumber":73,"Velocity":38,"Duration":130446,"SoundDuration":130446,"Delta":27246537},{"NoteNumber":68,"Velocity":38,"Duration":130446,"SoundDuration":130446,"Delta":27246537},{"NoteNumber":97,"Velocity":59,"Duration":81639,"SoundDuration":81639,"Delta":27507429},{"NoteNumber":70,"Velocity":28,"Duration":122458,"SoundDuration":122458,"Delta":27507429},{"NoteNumber":75,"Velocity":28,"Duration":122458,"SoundDuration":122458,"Delta":27507429},{"NoteNumber":78,"Velocity":28,"Duration":122458,"SoundDuration":122458,"Delta":27507429},{"NoteNumber":82,"Velocity":34,"Duration":122458,"SoundDuration":122458,"Delta":27507429},{"NoteNumber":85,"Velocity":45,"Duration":81639,"SoundDuration":81639,"Delta":27589068},{"NoteNumber":97,"Velocity":45,"Duration":81639,"SoundDuration":81639,"Delta":27670708},{"NoteNumber":99,"Velocity":69,"Duration":79057,"SoundDuration":79057,"Delta":27752347},{"NoteNumber":63,"Velocity":30,"Duration":118586,"SoundDuration":118586,"Delta":27752347},{"NoteNumber":87,"Velocity":46,"Duration":79057,"SoundDuration":79057,"Delta":27831405},{"NoteNumber":99,"Velocity":40,"Duration":79057,"SoundDuration":79057,"Delta":27910462},{"NoteNumber":87,"Velocity":57,"Duration":129321,"SoundDuration":129321,"Delta":27989520},{"NoteNumber":78,"Velocity":45,"Duration":129321,"SoundDuration":129321,"Delta":27989520},{"NoteNumber":75,"Velocity":38,"Duration":129321,"SoundDuration":129321,"Delta":27989520},{"NoteNumber":71,"Velocity":38,"Duration":129321,"SoundDuration":129321,"Delta":27989520},{"NoteNumber":66,"Velocity":38,"Duration":129321,"SoundDuration":129321,"Delta":27989520},{"NoteNumber":97,"Velocity":68,"Duration":80978,"SoundDuration":80978,"Delta":28248163},{"NoteNumber":68,"Velocity":28,"Duration":121467,"SoundDuration":121467,"Delta":28248163},{"NoteNumber":73,"Velocity":28,"Duration":121467,"SoundDuration":121467,"Delta":28248163},{"NoteNumber":76,"Velocity":28,"Duration":121467,"SoundDuration":121467,"Delta":28248163},{"NoteNumber":80,"Velocity":34,"Duration":121467,"SoundDuration":121467,"Delta":28248163},{"NoteNumber":85,"Velocity":45,"Duration":80978,"SoundDuration":80978,"Delta":28329141},{"NoteNumber":97,"Velocity":45,"Duration":80978,"SoundDuration":80978,"Delta":28410119},{"NoteNumber":99,"Velocity":71,"Duration":78437,"SoundDuration":78437,"Delta":28491098},{"NoteNumber":63,"Velocity":33,"Duration":117656,"SoundDuration":117656,"Delta":28491098},{"NoteNumber":87,"Velocity":46,"Duration":78437,"SoundDuration":78437,"Delta":28569535},{"NoteNumber":99,"Velocity":46,"Duration":78437,"SoundDuration":78437,"Delta":28647973},{"NoteNumber":87,"Velocity":57,"Duration":123467,"SoundDuration":123467,"Delta":28726410},{"NoteNumber":64,"Velocity":39,"Duration":123467,"SoundDuration":123467,"Delta":28726410},{"NoteNumber":68,"Velocity":33,"Duration":123467,"SoundDuration":123467,"Delta":28726410},{"NoteNumber":71,"Velocity":33,"Duration":123467,"SoundDuration":123467,"Delta":28726410},{"NoteNumber":76,"Velocity":39,"Duration":123467,"SoundDuration":123467,"Delta":28726410},{"NoteNumber":63,"Velocity":62,"Duration":82311,"SoundDuration":82311,"Delta":28973344},{"NoteNumber":78,"Velocity":34,"Duration":123467,"SoundDuration":123467,"Delta":28973344},{"NoteNumber":75,"Velocity":23,"Duration":123467,"SoundDuration":123467,"Delta":28973344},{"NoteNumber":70,"Velocity":23,"Duration":123467,"SoundDuration":123467,"Delta":28973344},{"NoteNumber":66,"Velocity":23,"Duration":123467,"SoundDuration":123467,"Delta":28973344},{"NoteNumber":61,"Velocity":65,"Duration":82311,"SoundDuration":82311,"Delta":29055655},{"NoteNumber":59,"Velocity":67,"Duration":82311,"SoundDuration":82311,"Delta":29137967},{"NoteNumber":58,"Velocity":66,"Duration":81441,"SoundDuration":81441,"Delta":29220278},{"NoteNumber":59,"Velocity":56,"Duration":81639,"SoundDuration":81639,"Delta":29301720},{"NoteNumber":57,"Velocity":57,"Duration":81307,"SoundDuration":81307,"Delta":29383359},{"NoteNumber":58,"Velocity":64,"Duration":81241,"SoundDuration":81241,"Delta":29464667},{"NoteNumber":54,"Velocity":85,"Duration":243067,"SoundDuration":243067,"Delta":29464667},{"NoteNumber":63,"Velocity":59,"Duration":80978,"SoundDuration":80978,"Delta":29545908},{"NoteNumber":61,"Velocity":60,"Duration":80847,"SoundDuration":80847,"Delta":29626886},{"NoteNumber":62,"Velocity":68,"Duration":80651,"SoundDuration":80651,"Delta":29707734},{"NoteNumber":47,"Velocity":77,"Duration":241436,"SoundDuration":241436,"Delta":29707734},{"NoteNumber":63,"Velocity":60,"Duration":80457,"SoundDuration":80457,"Delta":29788386},{"NoteNumber":66,"Velocity":60,"Duration":80327,"SoundDuration":80327,"Delta":29868843},{"NoteNumber":67,"Velocity":69,"Duration":80070,"SoundDuration":80070,"Delta":29949171},{"NoteNumber":38,"Velocity":86,"Duration":240083,"SoundDuration":240083,"Delta":29949171},{"NoteNumber":70,"Velocity":61,"Duration":80006,"SoundDuration":80006,"Delta":30029241},{"NoteNumber":68,"Velocity":62,"Duration":80006,"SoundDuration":80006,"Delta":30109248},{"NoteNumber":71,"Velocity":72,"Duration":80006,"SoundDuration":80006,"Delta":30189254},{"NoteNumber":42,"Velocity":76,"Duration":240019,"SoundDuration":240019,"Delta":30189254},{"NoteNumber":74,"Velocity":63,"Duration":80006,"SoundDuration":80006,"Delta":30269260},{"NoteNumber":75,"Velocity":64,"Duration":80006,"SoundDuration":80006,"Delta":30349267},{"NoteNumber":78,"Velocity":79,"Duration":80006,"SoundDuration":80006,"Delta":30429273},{"NoteNumber":33,"Velocity":89,"Duration":240019,"SoundDuration":240019,"Delta":30429273},{"NoteNumber":75,"Velocity":65,"Duration":80006,"SoundDuration":80006,"Delta":30509279},{"NoteNumber":74,"Velocity":66,"Duration":80006,"SoundDuration":80006,"Delta":30589286},{"NoteNumber":77,"Velocity":86,"Duration":84040,"SoundDuration":84040,"Delta":30669292},{"NoteNumber":27,"Velocity":80,"Duration":1490079,"SoundDuration":1490079,"Delta":30669292},{"NoteNumber":39,"Velocity":80,"Duration":1490079,"SoundDuration":1490079,"Delta":30669292},{"NoteNumber":74,"Velocity":67,"Duration":84040,"SoundDuration":84040,"Delta":30753333},{"NoteNumber":73,"Velocity":67,"Duration":84040,"SoundDuration":84040,"Delta":30837373},{"NoteNumber":76,"Velocity":78,"Duration":80651,"SoundDuration":80651,"Delta":30921414},{"NoteNumber":45,"Velocity":94,"Duration":493021,"SoundDuration":493021,"Delta":30921414},{"NoteNumber":57,"Velocity":94,"Duration":493021,"SoundDuration":493021,"Delta":30921414},{"NoteNumber":73,"Velocity":67,"Duration":80651,"SoundDuration":80651,"Delta":31002066},{"NoteNumber":72,"Velocity":67,"Duration":80651,"SoundDuration":80651,"Delta":31082717},{"NoteNumber":75,"Velocity":79,"Duration":83688,"SoundDuration":83688,"Delta":31163369},{"NoteNumber":72,"Velocity":67,"Duration":83688,"SoundDuration":83688,"Delta":31247058},{"NoteNumber":71,"Velocity":67,"Duration":83688,"SoundDuration":83688,"Delta":31330747},{"NoteNumber":70,"Velocity":78,"Duration":83688,"SoundDuration":83688,"Delta":31414436},{"NoteNumber":54,"Velocity":97,"Duration":744935,"SoundDuration":744935,"Delta":31414436},{"NoteNumber":66,"Velocity":97,"Duration":498001,"SoundDuration":498001,"Delta":31414436},{"NoteNumber":71,"Velocity":67,"Duration":83688,"SoundDuration":83688,"Delta":31498125},{"NoteNumber":69,"Velocity":67,"Duration":83689,"SoundDuration":83689,"Delta":31581814},{"NoteNumber":75,"Velocity":77,"Duration":82311,"SoundDuration":82311,"Delta":31665503},{"NoteNumber":70,"Velocity":67,"Duration":82311,"SoundDuration":82311,"Delta":31747814},{"NoteNumber":65,"Velocity":67,"Duration":82311,"SoundDuration":82311,"Delta":31830126},{"NoteNumber":66,"Velocity":66,"Duration":82311,"SoundDuration":82311,"Delta":31912437},{"NoteNumber":58,"Velocity":60,"Duration":82311,"SoundDuration":82311,"Delta":31994748},{"NoteNumber":51,"Velocity":60,"Duration":1070121,"SoundDuration":1070121,"Delta":32077060},{"NoteNumber":77,"Velocity":64,"Duration":987810,"SoundDuration":987810,"Delta":32159371},{"NoteNumber":67,"Velocity":54,"Duration":82311,"SoundDuration":82311,"Delta":32159371},{"NoteNumber":59,"Velocity":64,"Duration":246934,"SoundDuration":246934,"Delta":32159371},{"NoteNumber":73,"Velocity":45,"Duration":82311,"SoundDuration":82311,"Delta":32241682},{"NoteNumber":72,"Velocity":45,"Duration":82311,"SoundDuration":82311,"Delta":32323994},{"NoteNumber":71,"Velocity":53,"Duration":82311,"SoundDuration":82311,"Delta":32406305},{"NoteNumber":60,"Velocity":64,"Duration":246799,"SoundDuration":246799,"Delta":32406305},{"NoteNumber":72,"Velocity":47,"Duration":82311,"SoundDuration":82311,"Delta":32488616},{"NoteNumber":73,"Velocity":47,"Duration":82176,"SoundDuration":82176,"Delta":32570928},{"NoteNumber":69,"Velocity":53,"Duration":81974,"SoundDuration":81974,"Delta":32653104},{"NoteNumber":61,"Velocity":60,"Duration":246360,"SoundDuration":246360,"Delta":32653104},{"NoteNumber":70,"Velocity":47,"Duration":82075,"SoundDuration":82075,"Delta":32735078},{"NoteNumber":73,"Velocity":47,"Duration":82311,"SoundDuration":82311,"Delta":32817153},{"NoteNumber":67,"Velocity":53,"Duration":82379,"SoundDuration":82379,"Delta":32899464},{"NoteNumber":62,"Velocity":60,"Duration":247716,"SoundDuration":247716,"Delta":32899464},{"NoteNumber":68,"Velocity":47,"Duration":82651,"SoundDuration":82651,"Delta":32981844},{"NoteNumber":71,"Velocity":47,"Duration":82685,"SoundDuration":82685,"Delta":33064495},{"NoteNumber":80,"Velocity":73,"Duration":249329,"SoundDuration":249329,"Delta":33147181},{"NoteNumber":83,"Velocity":77,"Duration":249329,"SoundDuration":249329,"Delta":33147181},{"NoteNumber":59,"Velocity":62,"Duration":1004291,"SoundDuration":1004291,"Delta":33147181},{"NoteNumber":63,"Velocity":52,"Duration":82994,"SoundDuration":82994,"Delta":33147181},{"NoteNumber":65,"Velocity":48,"Duration":82994,"SoundDuration":82994,"Delta":33230176},{"NoteNumber":67,"Velocity":49,"Duration":83340,"SoundDuration":83340,"Delta":33313170},{"NoteNumber":75,"Velocity":67,"Duration":250718,"SoundDuration":250718,"Delta":33396510},{"NoteNumber":68,"Velocity":55,"Duration":83340,"SoundDuration":83340,"Delta":33396510},{"NoteNumber":70,"Velocity":49,"Duration":83654,"SoundDuration":83654,"Delta":33479851},{"NoteNumber":71,"Velocity":49,"Duration":83724,"SoundDuration":83724,"Delta":33563505},{"NoteNumber":65,"Velocity":58,"Duration":84040,"SoundDuration":84040,"Delta":33647229},{"NoteNumber":74,"Velocity":69,"Duration":996088,"SoundDuration":996088,"Delta":33647229},{"NoteNumber":56,"Velocity":62,"Duration":252121,"SoundDuration":252121,"Delta":33647229},{"NoteNumber":51,"Velocity":62,"Duration":996088,"SoundDuration":996088,"Delta":33647229},{"NoteNumber":71,"Velocity":51,"Duration":84040,"SoundDuration":84040,"Delta":33731270},{"NoteNumber":70,"Velocity":50,"Duration":84040,"SoundDuration":84040,"Delta":33815310},{"NoteNumber":69,"Velocity":50,"Duration":84040,"SoundDuration":84040,"Delta":33899351},{"NoteNumber":58,"Velocity":58,"Duration":252121,"SoundDuration":252121,"Delta":33899351},{"NoteNumber":70,"Velocity":46,"Duration":84040,"SoundDuration":84040,"Delta":33983392},{"NoteNumber":71,"Velocity":45,"Duration":84040,"SoundDuration":84040,"Delta":34067432},{"NoteNumber":67,"Velocity":47,"Duration":81974,"SoundDuration":81974,"Delta":34151473},{"NoteNumber":59,"Velocity":55,"Duration":245922,"SoundDuration":245922,"Delta":34151473},{"NoteNumber":68,"Velocity":42,"Duration":81973,"SoundDuration":81973,"Delta":34233447},{"NoteNumber":71,"Velocity":41,"Duration":81974,"SoundDuration":81974,"Delta":34315421},{"NoteNumber":64,"Velocity":45,"Duration":81974,"SoundDuration":81974,"Delta":34397395},{"NoteNumber":62,"Velocity":52,"Duration":245922,"SoundDuration":245922,"Delta":34397395},{"NoteNumber":65,"Velocity":39,"Duration":81973,"SoundDuration":81973,"Delta":34479369},{"NoteNumber":68,"Velocity":38,"Duration":327896,"SoundDuration":327896,"Delta":34561343},{"NoteNumber":75,"Velocity":65,"Duration":491844,"SoundDuration":491844,"Delta":34643317},{"NoteNumber":59,"Velocity":49,"Duration":491844,"SoundDuration":491844,"Delta":34643317},{"NoteNumber":63,"Velocity":49,"Duration":81974,"SoundDuration":81974,"Delta":34643317},{"NoteNumber":64,"Velocity":48,"Duration":81973,"SoundDuration":81973,"Delta":34725291},{"NoteNumber":65,"Velocity":47,"Duration":81974,"SoundDuration":81974,"Delta":34807265},{"NoteNumber":69,"Velocity":40,"Duration":245922,"SoundDuration":245922,"Delta":34889239},{"NoteNumber":66,"Velocity":46,"Duration":81974,"SoundDuration":81974,"Delta":34889239},{"NoteNumber":68,"Velocity":45,"Duration":81973,"SoundDuration":81973,"Delta":34971213},{"NoteNumber":69,"Velocity":44,"Duration":81974,"SoundDuration":81974,"Delta":35053187},{"NoteNumber":70,"Velocity":45,"Duration":81974,"SoundDuration":81974,"Delta":35135161},{"NoteNumber":58,"Velocity":39,"Duration":245922,"SoundDuration":245922,"Delta":35135161},{"NoteNumber":63,"Velocity":39,"Duration":245922,"SoundDuration":245922,"Delta":35135161},{"NoteNumber":66,"Velocity":46,"Duration":245922,"SoundDuration":245922,"Delta":35135161},{"NoteNumber":67,"Velocity":41,"Duration":81973,"SoundDuration":81973,"Delta":35217135},{"NoteNumber":68,"Velocity":41,"Duration":81974,"SoundDuration":81974,"Delta":35299109},{"NoteNumber":69,"Velocity":45,"Duration":81973,"SoundDuration":81973,"Delta":35381083},{"NoteNumber":70,"Velocity":42,"Duration":81974,"SoundDuration":81974,"Delta":35463057},{"NoteNumber":71,"Velocity":42,"Duration":81974,"SoundDuration":81974,"Delta":35545031},{"NoteNumber":75,"Velocity":55,"Duration":132755,"SoundDuration":132755,"Delta":35627005},{"NoteNumber":72,"Velocity":45,"Duration":132755,"SoundDuration":132755,"Delta":35627005},{"NoteNumber":67,"Velocity":38,"Duration":132755,"SoundDuration":132755,"Delta":35627005},{"NoteNumber":63,"Velocity":38,"Duration":132755,"SoundDuration":132755,"Delta":35627005},{"NoteNumber":73,"Velocity":45,"Duration":88503,"SoundDuration":88503,"Delta":35715508},{"NoteNumber":74,"Velocity":45,"Duration":88503,"SoundDuration":88503,"Delta":35804012},{"NoteNumber":75,"Velocity":45,"Duration":81974,"SoundDuration":81974,"Delta":35892515},{"NoteNumber":77,"Velocity":63,"Duration":122960,"SoundDuration":122960,"Delta":35892515},{"NoteNumber":71,"Velocity":45,"Duration":122960,"SoundDuration":122960,"Delta":35892515},{"NoteNumber":68,"Velocity":38,"Duration":122960,"SoundDuration":122960,"Delta":35892515},{"NoteNumber":63,"Velocity":38,"Duration":122960,"SoundDuration":122960,"Delta":35892515},{"NoteNumber":58,"Velocity":38,"Duration":122960,"SoundDuration":122960,"Delta":35892515},{"NoteNumber":69,"Velocity":45,"Duration":81973,"SoundDuration":81973,"Delta":35974489},{"NoteNumber":70,"Velocity":45,"Duration":81974,"SoundDuration":81974,"Delta":36056463},{"NoteNumber":71,"Velocity":45,"Duration":82311,"SoundDuration":82311,"Delta":36138437},{"NoteNumber":72,"Velocity":42,"Duration":82311,"SoundDuration":82311,"Delta":36220748},{"NoteNumber":73,"Velocity":42,"Duration":82311,"SoundDuration":82311,"Delta":36303060},{"NoteNumber":79,"Velocity":55,"Duration":128766,"SoundDuration":128766,"Delta":36385371},{"NoteNumber":72,"Velocity":45,"Duration":128766,"SoundDuration":128766,"Delta":36385371},{"NoteNumber":67,"Velocity":38,"Duration":128766,"SoundDuration":128766,"Delta":36385371},{"NoteNumber":64,"Velocity":38,"Duration":128766,"SoundDuration":128766,"Delta":36385371},{"NoteNumber":73,"Velocity":41,"Duration":85844,"SoundDuration":85844,"Delta":36471215},{"NoteNumber":74,"Velocity":41,"Duration":85844,"SoundDuration":85844,"Delta":36557060},{"NoteNumber":75,"Velocity":45,"Duration":82311,"SoundDuration":82311,"Delta":36642904},{"NoteNumber":80,"Velocity":64,"Duration":123466,"SoundDuration":123466,"Delta":36642904},{"NoteNumber":71,"Velocity":47,"Duration":123466,"SoundDuration":123466,"Delta":36642904},{"NoteNumber":68,"Velocity":39,"Duration":123466,"SoundDuration":123466,"Delta":36642904},{"NoteNumber":63,"Velocity":39,"Duration":123466,"SoundDuration":123466,"Delta":36642904},{"NoteNumber":58,"Velocity":39,"Duration":123466,"SoundDuration":123466,"Delta":36642904},{"NoteNumber":71,"Velocity":45,"Duration":82311,"SoundDuration":82311,"Delta":36725215},{"NoteNumber":73,"Velocity":45,"Duration":82311,"SoundDuration":82311,"Delta":36807527},{"NoteNumber":75,"Velocity":45,"Duration":83688,"SoundDuration":83688,"Delta":36889838},{"NoteNumber":76,"Velocity":42,"Duration":83688,"SoundDuration":83688,"Delta":36973527},{"NoteNumber":77,"Velocity":42,"Duration":83688,"SoundDuration":83688,"Delta":37057216},{"NoteNumber":78,"Velocity":45,"Duration":84752,"SoundDuration":84752,"Delta":37140905},{"NoteNumber":81,"Velocity":55,"Duration":95347,"SoundDuration":95347,"Delta":37140905},{"NoteNumber":63,"Velocity":34,"Duration":95347,"SoundDuration":95347,"Delta":37140905},{"NoteNumber":69,"Velocity":34,"Duration":95347,"SoundDuration":95347,"Delta":37140905},{"NoteNumber":72,"Velocity":41,"Duration":95347,"SoundDuration":95347,"Delta":37140905},{"NoteNumber":77,"Velocity":42,"Duration":84752,"SoundDuration":84752,"Delta":37225658},{"NoteNumber":78,"Velocity":42,"Duration":171340,"SoundDuration":171340,"Delta":37310411},{"NoteNumber":82,"Velocity":61,"Duration":97411,"SoundDuration":97411,"Delta":37395164},{"NoteNumber":58,"Velocity":39,"Duration":97411,"SoundDuration":97411,"Delta":37395164},{"NoteNumber":63,"Velocity":39,"Duration":97411,"SoundDuration":97411,"Delta":37395164},{"NoteNumber":67,"Velocity":39,"Duration":97411,"SoundDuration":97411,"Delta":37395164},{"NoteNumber":70,"Velocity":46,"Duration":97411,"SoundDuration":97411,"Delta":37395164},{"NoteNumber":77,"Velocity":42,"Duration":86587,"SoundDuration":86587,"Delta":37481752},{"NoteNumber":78,"Velocity":41,"Duration":86587,"SoundDuration":86587,"Delta":37568339},{"NoteNumber":79,"Velocity":45,"Duration":89694,"SoundDuration":89694,"Delta":37654927},{"NoteNumber":84,"Velocity":58,"Duration":100905,"SoundDuration":100905,"Delta":37654927},{"NoteNumber":63,"Velocity":36,"Duration":100905,"SoundDuration":100905,"Delta":37654927},{"NoteNumber":69,"Velocity":36,"Duration":100905,"SoundDuration":100905,"Delta":37654927},{"NoteNumber":72,"Velocity":43,"Duration":100905,"SoundDuration":100905,"Delta":37654927},{"NoteNumber":80,"Velocity":42,"Duration":89694,"SoundDuration":89694,"Delta":37744621},{"NoteNumber":81,"Velocity":42,"Duration":89694,"SoundDuration":89694,"Delta":37834315},{"NoteNumber":82,"Velocity":45,"Duration":98048,"SoundDuration":98048,"Delta":37924010},{"NoteNumber":86,"Velocity":60,"Duration":110304,"SoundDuration":110304,"Delta":37924010},{"NoteNumber":58,"Velocity":39,"Duration":110304,"SoundDuration":110304,"Delta":37924010},{"NoteNumber":62,"Velocity":39,"Duration":110304,"SoundDuration":110304,"Delta":37924010},{"NoteNumber":70,"Velocity":46,"Duration":110304,"SoundDuration":110304,"Delta":37924010},{"NoteNumber":80,"Velocity":40,"Duration":98048,"SoundDuration":98048,"Delta":38022058},{"NoteNumber":78,"Velocity":40,"Duration":461729,"SoundDuration":461729,"Delta":38120107},{"NoteNumber":87,"Velocity":66,"Duration":363680,"SoundDuration":363680,"Delta":38218156},{"NoteNumber":75,"Velocity":52,"Duration":363680,"SoundDuration":363680,"Delta":38218156},{"NoteNumber":70,"Velocity":44,"Duration":363680,"SoundDuration":363680,"Delta":38218156},{"NoteNumber":63,"Velocity":44,"Duration":363680,"SoundDuration":363680,"Delta":38218156},{"NoteNumber":83,"Velocity":49,"Duration":81703,"SoundDuration":81703,"Delta":38581837},{"NoteNumber":87,"Velocity":49,"Duration":61293,"SoundDuration":61293,"Delta":38581837},{"NoteNumber":79,"Velocity":43,"Duration":81639,"SoundDuration":81639,"Delta":38663540},{"NoteNumber":75,"Velocity":41,"Duration":61267,"SoundDuration":61267,"Delta":38704359},{"NoteNumber":74,"Velocity":43,"Duration":81927,"SoundDuration":81927,"Delta":38745179},{"NoteNumber":82,"Velocity":49,"Duration":81995,"SoundDuration":81995,"Delta":38827107},{"NoteNumber":87,"Velocity":49,"Duration":61480,"SoundDuration":61480,"Delta":38827107},{"NoteNumber":78,"Velocity":42,"Duration":82311,"SoundDuration":82311,"Delta":38909102},{"NoteNumber":75,"Velocity":42,"Duration":61733,"SoundDuration":61733,"Delta":38950258},{"NoteNumber":73,"Velocity":42,"Duration":82400,"SoundDuration":82400,"Delta":38991413},{"NoteNumber":81,"Velocity":49,"Duration":82651,"SoundDuration":82651,"Delta":39073814},{"NoteNumber":87,"Velocity":49,"Duration":61988,"SoundDuration":61988,"Delta":39073814},{"NoteNumber":77,"Velocity":43,"Duration":82810,"SoundDuration":82810,"Delta":39156466},{"NoteNumber":75,"Velocity":41,"Duration":62233,"SoundDuration":62233,"Delta":39197791},{"NoteNumber":72,"Velocity":43,"Duration":82994,"SoundDuration":82994,"Delta":39239276},{"NoteNumber":80,"Velocity":49,"Duration":83223,"SoundDuration":83223,"Delta":39322270},{"NoteNumber":87,"Velocity":49,"Duration":62388,"SoundDuration":62388,"Delta":39322270},{"NoteNumber":76,"Velocity":42,"Duration":83340,"SoundDuration":83340,"Delta":39405494},{"NoteNumber":75,"Velocity":40,"Duration":62544,"SoundDuration":62544,"Delta":39447164},{"NoteNumber":71,"Velocity":42,"Duration":83641,"SoundDuration":83641,"Delta":39488834},{"NoteNumber":79,"Velocity":49,"Duration":83710,"SoundDuration":83710,"Delta":39572475},{"NoteNumber":87,"Velocity":49,"Duration":62766,"SoundDuration":62766,"Delta":39572475},{"NoteNumber":71,"Velocity":43,"Duration":84040,"SoundDuration":84040,"Delta":39656186},{"NoteNumber":75,"Velocity":42,"Duration":63030,"SoundDuration":63030,"Delta":39698207},{"NoteNumber":69,"Velocity":43,"Duration":84040,"SoundDuration":84040,"Delta":39740227},{"NoteNumber":78,"Velocity":49,"Duration":84752,"SoundDuration":84752,"Delta":39824268},{"NoteNumber":87,"Velocity":49,"Duration":63564,"SoundDuration":63564,"Delta":39824268},{"NoteNumber":73,"Velocity":42,"Duration":84752,"SoundDuration":84752,"Delta":39909021},{"NoteNumber":75,"Velocity":41,"Duration":66302,"SoundDuration":66302,"Delta":39951397},{"NoteNumber":66,"Velocity":42,"Duration":94531,"SoundDuration":94531,"Delta":39993774},{"NoteNumber":71,"Velocity":49,"Duration":82311,"SoundDuration":82311,"Delta":40088305},{"NoteNumber":75,"Velocity":49,"Duration":61733,"SoundDuration":61733,"Delta":40088305},{"NoteNumber":67,"Velocity":44,"Duration":82511,"SoundDuration":82511,"Delta":40170616},{"NoteNumber":63,"Velocity":40,"Duration":61988,"SoundDuration":61988,"Delta":40211802},{"NoteNumber":62,"Velocity":44,"Duration":82681,"SoundDuration":82681,"Delta":40253127},{"NoteNumber":70,"Velocity":49,"Duration":82994,"SoundDuration":82994,"Delta":40335809},{"NoteNumber":75,"Velocity":49,"Duration":62245,"SoundDuration":62245,"Delta":40335809},{"NoteNumber":66,"Velocity":42,"Duration":83197,"SoundDuration":83197,"Delta":40418803},{"NoteNumber":63,"Velocity":42,"Duration":62505,"SoundDuration":62505,"Delta":40460331},{"NoteNumber":61,"Velocity":42,"Duration":83370,"SoundDuration":83370,"Delta":40502001},{"NoteNumber":69,"Velocity":49,"Duration":83688,"SoundDuration":83688,"Delta":40585372},{"NoteNumber":75,"Velocity":49,"Duration":62766,"SoundDuration":62766,"Delta":40585372},{"NoteNumber":65,"Velocity":40,"Duration":83961,"SoundDuration":83961,"Delta":40669061},{"NoteNumber":63,"Velocity":42,"Duration":63030,"SoundDuration":63030,"Delta":40711002},{"NoteNumber":60,"Velocity":40,"Duration":84138,"SoundDuration":84138,"Delta":40753022},{"NoteNumber":68,"Velocity":50,"Duration":84395,"SoundDuration":84395,"Delta":40837161},{"NoteNumber":75,"Velocity":49,"Duration":63296,"SoundDuration":63296,"Delta":40837161},{"NoteNumber":64,"Velocity":44,"Duration":84672,"SoundDuration":84672,"Delta":40921556},{"NoteNumber":63,"Velocity":44,"Duration":63564,"SoundDuration":63564,"Delta":40963852},{"NoteNumber":59,"Velocity":44,"Duration":84852,"SoundDuration":84852,"Delta":41006228},{"NoteNumber":67,"Velocity":50,"Duration":85113,"SoundDuration":85113,"Delta":41091081},{"NoteNumber":75,"Velocity":49,"Duration":63835,"SoundDuration":63835,"Delta":41091081},{"NoteNumber":59,"Velocity":43,"Duration":85395,"SoundDuration":85395,"Delta":41176194},{"NoteNumber":63,"Velocity":43,"Duration":64108,"SoundDuration":64108,"Delta":41218851},{"NoteNumber":57,"Velocity":43,"Duration":85647,"SoundDuration":85647,"Delta":41261590},{"NoteNumber":66,"Velocity":50,"Duration":85844,"SoundDuration":85844,"Delta":41347237},{"NoteNumber":75,"Velocity":49,"Duration":64383,"SoundDuration":64383,"Delta":41347237},{"NoteNumber":58,"Velocity":42,"Duration":85844,"SoundDuration":85844,"Delta":41433081},{"NoteNumber":63,"Velocity":41,"Duration":70397,"SoundDuration":70397,"Delta":41476003},{"NoteNumber":51,"Velocity":44,"Duration":109902,"SoundDuration":109902,"Delta":41518926},{"NoteNumber":63,"Velocity":73,"Duration":271518,"SoundDuration":271518,"Delta":41628828},{"NoteNumber":67,"Velocity":50,"Duration":81307,"SoundDuration":81307,"Delta":41900346},{"NoteNumber":75,"Velocity":48,"Duration":60980,"SoundDuration":60980,"Delta":41900346},{"NoteNumber":59,"Velocity":43,"Duration":81307,"SoundDuration":81307,"Delta":41981653},{"NoteNumber":63,"Velocity":43,"Duration":60980,"SoundDuration":60980,"Delta":42022307},{"NoteNumber":57,"Velocity":43,"Duration":81307,"SoundDuration":81307,"Delta":42062961},{"NoteNumber":66,"Velocity":50,"Duration":84040,"SoundDuration":84040,"Delta":42144268},{"NoteNumber":75,"Velocity":48,"Duration":63030,"SoundDuration":63030,"Delta":42144268},{"NoteNumber":58,"Velocity":46,"Duration":84040,"SoundDuration":84040,"Delta":42228309},{"NoteNumber":63,"Velocity":41,"Duration":69801,"SoundDuration":69801,"Delta":42270329},{"NoteNumber":51,"Velocity":46,"Duration":111123,"SoundDuration":111123,"Delta":42312350},{"NoteNumber":63,"Velocity":71,"Duration":265509,"SoundDuration":265509,"Delta":42423473},{"NoteNumber":67,"Velocity":50,"Duration":81639,"SoundDuration":81639,"Delta":42688983},{"NoteNumber":75,"Velocity":49,"Duration":61229,"SoundDuration":61229,"Delta":42688983},{"NoteNumber":59,"Velocity":46,"Duration":81639,"SoundDuration":81639,"Delta":42770622},{"NoteNumber":63,"Velocity":42,"Duration":61229,"SoundDuration":61229,"Delta":42811442},{"NoteNumber":57,"Velocity":46,"Duration":81639,"SoundDuration":81639,"Delta":42852262},{"NoteNumber":66,"Velocity":50,"Duration":85844,"SoundDuration":85844,"Delta":42933901},{"NoteNumber":75,"Velocity":49,"Duration":64383,"SoundDuration":64383,"Delta":42933901},{"NoteNumber":58,"Velocity":46,"Duration":85844,"SoundDuration":85844,"Delta":43019745},{"NoteNumber":63,"Velocity":42,"Duration":76030,"SoundDuration":76030,"Delta":43062668},{"NoteNumber":51,"Velocity":47,"Duration":132432,"SoundDuration":132432,"Delta":43105590},{"NoteNumber":63,"Velocity":100,"Duration":845856,"SoundDuration":845856,"Delta":43238023},{"NoteNumber":39,"Velocity":67,"Duration":273947,"SoundDuration":273947,"Delta":43238023},{"NoteNumber":51,"Velocity":80,"Duration":273947,"SoundDuration":273947,"Delta":43238023},{"NoteNumber":59,"Velocity":86,"Duration":280347,"SoundDuration":280347,"Delta":43511970},{"NoteNumber":47,"Velocity":73,"Duration":280347,"SoundDuration":280347,"Delta":43511970},{"NoteNumber":35,"Velocity":62,"Duration":280347,"SoundDuration":280347,"Delta":43511970},{"NoteNumber":56,"Velocity":97,"Duration":291561,"SoundDuration":291561,"Delta":43792318},{"NoteNumber":32,"Velocity":67,"Duration":291561,"SoundDuration":291561,"Delta":43792318},{"NoteNumber":44,"Velocity":80,"Duration":291561,"SoundDuration":291561,"Delta":43792318},{"NoteNumber":53,"Velocity":80,"Duration":150367,"SoundDuration":150367,"Delta":44083879},{"NoteNumber":41,"Velocity":79,"Duration":150367,"SoundDuration":150367,"Delta":44083879},{"NoteNumber":29,"Velocity":66,"Duration":150367,"SoundDuration":150367,"Delta":44083879},{"NoteNumber":51,"Velocity":86,"Duration":154125,"SoundDuration":154125,"Delta":44234247},{"NoteNumber":39,"Velocity":82,"Duration":154125,"SoundDuration":154125,"Delta":44234247},{"NoteNumber":27,"Velocity":70,"Duration":154125,"SoundDuration":154125,"Delta":44234247},{"NoteNumber":50,"Velocity":90,"Duration":158473,"SoundDuration":158473,"Delta":44388373},{"NoteNumber":38,"Velocity":88,"Duration":158473,"SoundDuration":158473,"Delta":44388373},{"NoteNumber":26,"Velocity":74,"Duration":158473,"SoundDuration":158473,"Delta":44388373},{"NoteNumber":48,"Velocity":93,"Duration":168937,"SoundDuration":168937,"Delta":44546846},{"NoteNumber":36,"Velocity":90,"Duration":168937,"SoundDuration":168937,"Delta":44546846},{"NoteNumber":24,"Velocity":77,"Duration":168937,"SoundDuration":168937,"Delta":44546846},{"NoteNumber":46,"Velocity":98,"Duration":277803,"SoundDuration":277803,"Delta":44715784},{"NoteNumber":34,"Velocity":95,"Duration":782549,"SoundDuration":782549,"Delta":44715784},{"NoteNumber":22,"Velocity":80,"Duration":782549,"SoundDuration":782549,"Delta":44715784},{"NoteNumber":38,"Velocity":63,"Duration":84764,"SoundDuration":84764,"Delta":44993588},{"NoteNumber":44,"Velocity":64,"Duration":84852,"SoundDuration":84852,"Delta":45078353},{"NoteNumber":46,"Velocity":65,"Duration":84382,"SoundDuration":84382,"Delta":45163205},{"NoteNumber":50,"Velocity":67,"Duration":83926,"SoundDuration":83926,"Delta":45247587},{"NoteNumber":56,"Velocity":68,"Duration":83479,"SoundDuration":83479,"Delta":45331513},{"NoteNumber":58,"Velocity":73,"Duration":83340,"SoundDuration":83340,"Delta":45414993},{"NoteNumber":63,"Velocity":80,"Duration":83340,"SoundDuration":83340,"Delta":45498333},{"NoteNumber":51,"Velocity":80,"Duration":83340,"SoundDuration":83340,"Delta":45498333},{"NoteNumber":44,"Velocity":73,"Duration":249839,"SoundDuration":249839,"Delta":45498333},{"NoteNumber":35,"Velocity":49,"Duration":760063,"SoundDuration":760063,"Delta":45498333},{"NoteNumber":39,"Velocity":49,"Duration":760063,"SoundDuration":760063,"Delta":45498333},{"NoteNumber":47,"Velocity":62,"Duration":760063,"SoundDuration":760063,"Delta":45498333},{"NoteNumber":56,"Velocity":76,"Duration":83340,"SoundDuration":83340,"Delta":45581674},{"NoteNumber":55,"Velocity":69,"Duration":83158,"SoundDuration":83158,"Delta":45665014},{"NoteNumber":54,"Velocity":65,"Duration":83189,"SoundDuration":83189,"Delta":45748173},{"NoteNumber":43,"Velocity":69,"Duration":250963,"SoundDuration":250963,"Delta":45748173},{"NoteNumber":53,"Velocity":63,"Duration":83676,"SoundDuration":83676,"Delta":45831362},{"NoteNumber":52,"Velocity":65,"Duration":84098,"SoundDuration":84098,"Delta":45915038},{"NoteNumber":51,"Velocity":64,"Duration":84551,"SoundDuration":84551,"Delta":45999136},{"NoteNumber":42,"Velocity":62,"Duration":259260,"SoundDuration":259260,"Delta":45999136},{"NoteNumber":46,"Velocity":62,"Duration":85014,"SoundDuration":85014,"Delta":46083688},{"NoteNumber":44,"Velocity":61,"Duration":89694,"SoundDuration":89694,"Delta":46168703},{"NoteNumber":43,"Velocity":61,"Duration":82994,"SoundDuration":82994,"Delta":46258397},{"NoteNumber":25,"Velocity":87,"Duration":753729,"SoundDuration":753729,"Delta":46258397},{"NoteNumber":37,"Velocity":95,"Duration":753729,"SoundDuration":753729,"Delta":46258397},{"NoteNumber":42,"Velocity":58,"Duration":82994,"SoundDuration":82994,"Delta":46341391},{"NoteNumber":41,"Velocity":59,"Duration":82994,"SoundDuration":82994,"Delta":46424386},{"NoteNumber":47,"Velocity":64,"Duration":84852,"SoundDuration":84852,"Delta":46592145},{"NoteNumber":49,"Velocity":65,"Duration":84382,"SoundDuration":84382,"Delta":46676997},{"NoteNumber":53,"Velocity":67,"Duration":83926,"SoundDuration":83926,"Delta":46761379},{"NoteNumber":59,"Velocity":68,"Duration":83479,"SoundDuration":83479,"Delta":46845306},{"NoteNumber":61,"Velocity":73,"Duration":83340,"SoundDuration":83340,"Delta":46928786},{"NoteNumber":66,"Velocity":80,"Duration":83340,"SoundDuration":83340,"Delta":47012126},{"NoteNumber":54,"Velocity":80,"Duration":83340,"SoundDuration":83340,"Delta":47012126},{"NoteNumber":47,"Velocity":73,"Duration":249839,"SoundDuration":249839,"Delta":47012126},{"NoteNumber":38,"Velocity":62,"Duration":760063,"SoundDuration":760063,"Delta":47012126},{"NoteNumber":42,"Velocity":62,"Duration":760063,"SoundDuration":760063,"Delta":47012126},{"NoteNumber":50,"Velocity":62,"Duration":760063,"SoundDuration":760063,"Delta":47012126},{"NoteNumber":61,"Velocity":77,"Duration":83340,"SoundDuration":83340,"Delta":47095466},{"NoteNumber":59,"Velocity":74,"Duration":83158,"SoundDuration":83158,"Delta":47178807},{"NoteNumber":57,"Velocity":73,"Duration":83189,"SoundDuration":83189,"Delta":47261965},{"NoteNumber":45,"Velocity":69,"Duration":250963,"SoundDuration":250963,"Delta":47261965},{"NoteNumber":56,"Velocity":72,"Duration":83676,"SoundDuration":83676,"Delta":47345154},{"NoteNumber":55,"Velocity":72,"Duration":84098,"SoundDuration":84098,"Delta":47428831},{"NoteNumber":54,"Velocity":71,"Duration":84551,"SoundDuration":84551,"Delta":47512929},{"NoteNumber":44,"Velocity":62,"Duration":259260,"SoundDuration":259260,"Delta":47512929},{"NoteNumber":53,"Velocity":70,"Duration":85014,"SoundDuration":85014,"Delta":47597481},{"NoteNumber":52,"Velocity":70,"Duration":89694,"SoundDuration":89694,"Delta":47682495},{"NoteNumber":43,"Velocity":76,"Duration":760161,"SoundDuration":760161,"Delta":47772189},{"NoteNumber":39,"Velocity":76,"Duration":760161,"SoundDuration":760161,"Delta":47772189},{"NoteNumber":51,"Velocity":83,"Duration":760161,"SoundDuration":760161,"Delta":47772189},{"NoteNumber":54,"Velocity":61,"Duration":84382,"SoundDuration":84382,"Delta":47940036},{"NoteNumber":55,"Velocity":61,"Duration":83926,"SoundDuration":83926,"Delta":48024418},{"NoteNumber":61,"Velocity":61,"Duration":83479,"SoundDuration":83479,"Delta":48108345},{"NoteNumber":63,"Velocity":64,"Duration":83340,"SoundDuration":83340,"Delta":48191824},{"NoteNumber":67,"Velocity":67,"Duration":83340,"SoundDuration":83340,"Delta":48275165},{"NoteNumber":55,"Velocity":68,"Duration":257186,"SoundDuration":257186,"Delta":48275165},{"NoteNumber":51,"Velocity":62,"Duration":257186,"SoundDuration":257186,"Delta":48275165},{"NoteNumber":63,"Velocity":87,"Duration":257186,"SoundDuration":257186,"Delta":48275165},{"NoteNumber":73,"Velocity":70,"Duration":83340,"SoundDuration":83340,"Delta":48358505},{"NoteNumber":75,"Velocity":75,"Duration":90505,"SoundDuration":90505,"Delta":48441845},{"NoteNumber":80,"Velocity":80,"Duration":86337,"SoundDuration":86337,"Delta":48532351},{"NoteNumber":68,"Velocity":80,"Duration":86337,"SoundDuration":86337,"Delta":48532351},{"NoteNumber":52,"Velocity":52,"Duration":773570,"SoundDuration":773570,"Delta":48532351},{"NoteNumber":61,"Velocity":72,"Duration":773570,"SoundDuration":773570,"Delta":48532351},{"NoteNumber":64,"Velocity":92,"Duration":773570,"SoundDuration":773570,"Delta":48532351},{"NoteNumber":56,"Velocity":55,"Duration":252675,"SoundDuration":252675,"Delta":48532351},{"NoteNumber":73,"Velocity":77,"Duration":82814,"SoundDuration":82814,"Delta":48618689},{"NoteNumber":72,"Velocity":71,"Duration":83523,"SoundDuration":83523,"Delta":48701503},{"NoteNumber":71,"Velocity":73,"Duration":84085,"SoundDuration":84085,"Delta":48785027},{"NoteNumber":57,"Velocity":62,"Duration":254230,"SoundDuration":254230,"Delta":48785027},{"NoteNumber":70,"Velocity":72,"Duration":84739,"SoundDuration":84739,"Delta":48869112},{"NoteNumber":69,"Velocity":72,"Duration":85405,"SoundDuration":85405,"Delta":48953852},{"NoteNumber":68,"Velocity":71,"Duration":86006,"SoundDuration":86006,"Delta":49039257},{"NoteNumber":58,"Velocity":62,"Duration":266664,"SoundDuration":266664,"Delta":49039257},{"NoteNumber":67,"Velocity":70,"Duration":86752,"SoundDuration":86752,"Delta":49125264},{"NoteNumber":66,"Velocity":70,"Duration":93905,"SoundDuration":93905,"Delta":49212016},{"NoteNumber":53,"Velocity":76,"Duration":499716,"SoundDuration":499716,"Delta":49305922},{"NoteNumber":57,"Velocity":76,"Duration":499716,"SoundDuration":499716,"Delta":49305922},{"NoteNumber":63,"Velocity":76,"Duration":499716,"SoundDuration":499716,"Delta":49305922},{"NoteNumber":60,"Velocity":76,"Duration":499716,"SoundDuration":499716,"Delta":49305922},{"NoteNumber":65,"Velocity":83,"Duration":499716,"SoundDuration":499716,"Delta":49305922},{"NoteNumber":69,"Velocity":68,"Duration":83688,"SoundDuration":83688,"Delta":49389962},{"NoteNumber":75,"Velocity":70,"Duration":83340,"SoundDuration":83340,"Delta":49473651},{"NoteNumber":77,"Velocity":72,"Duration":83340,"SoundDuration":83340,"Delta":49556992},{"NoteNumber":81,"Velocity":73,"Duration":82994,"SoundDuration":82994,"Delta":49640332},{"NoteNumber":87,"Velocity":78,"Duration":82311,"SoundDuration":82311,"Delta":49723326},{"NoteNumber":93,"Velocity":81,"Duration":82311,"SoundDuration":82311,"Delta":49805638},{"NoteNumber":81,"Velocity":81,"Duration":82311,"SoundDuration":82311,"Delta":49805638},{"NoteNumber":65,"Velocity":62,"Duration":245924,"SoundDuration":245924,"Delta":49805638},{"NoteNumber":69,"Velocity":62,"Duration":245924,"SoundDuration":245924,"Delta":49805638},{"NoteNumber":72,"Velocity":73,"Duration":245924,"SoundDuration":245924,"Delta":49805638},{"NoteNumber":77,"Velocity":87,"Duration":245924,"SoundDuration":245924,"Delta":49805638},{"NoteNumber":75,"Velocity":73,"Duration":245924,"SoundDuration":245924,"Delta":49805638},{"NoteNumber":89,"Velocity":84,"Duration":81973,"SoundDuration":81973,"Delta":49887949},{"NoteNumber":87,"Velocity":86,"Duration":81639,"SoundDuration":81639,"Delta":49969923},{"NoteNumber":94,"Velocity":85,"Duration":81639,"SoundDuration":81639,"Delta":50051562},{"NoteNumber":82,"Velocity":85,"Duration":81639,"SoundDuration":81639,"Delta":50051562},{"NoteNumber":66,"Velocity":66,"Duration":745791,"SoundDuration":745791,"Delta":50051562},{"NoteNumber":70,"Velocity":66,"Duration":745791,"SoundDuration":745791,"Delta":50051562},{"NoteNumber":72,"Velocity":78,"Duration":745791,"SoundDuration":745791,"Delta":50051562},{"NoteNumber":75,"Velocity":78,"Duration":745791,"SoundDuration":745791,"Delta":50051562},{"NoteNumber":78,"Velocity":92,"Duration":745791,"SoundDuration":745791,"Delta":50051562},{"NoteNumber":89,"Velocity":78,"Duration":81639,"SoundDuration":81639,"Delta":50133202},{"NoteNumber":87,"Velocity":81,"Duration":81639,"SoundDuration":81639,"Delta":50214841},{"NoteNumber":73,"Velocity":81,"Duration":81639,"SoundDuration":81639,"Delta":50296480},{"NoteNumber":84,"Velocity":81,"Duration":81639,"SoundDuration":81639,"Delta":50378120},{"NoteNumber":87,"Velocity":81,"Duration":81639,"SoundDuration":81639,"Delta":50459759},{"NoteNumber":94,"Velocity":80,"Duration":82311,"SoundDuration":82311,"Delta":50541398},{"NoteNumber":96,"Velocity":80,"Duration":82311,"SoundDuration":82311,"Delta":50623710},{"NoteNumber":99,"Velocity":79,"Duration":91332,"SoundDuration":91332,"Delta":50706021},{"NoteNumber":106,"Velocity":89,"Duration":252121,"SoundDuration":252121,"Delta":50797354},{"NoteNumber":94,"Velocity":89,"Duration":252121,"SoundDuration":252121,"Delta":50797354},{"NoteNumber":58,"Velocity":76,"Duration":252121,"SoundDuration":252121,"Delta":50797354},{"NoteNumber":70,"Velocity":83,"Duration":252121,"SoundDuration":252121,"Delta":50797354},{"NoteNumber":106,"Velocity":72,"Duration":80006,"SoundDuration":80006,"Delta":51049476},{"NoteNumber":74,"Velocity":36,"Duration":120009,"SoundDuration":120009,"Delta":51049476},{"NoteNumber":77,"Velocity":43,"Duration":120009,"SoundDuration":120009,"Delta":51049476},{"NoteNumber":70,"Velocity":36,"Duration":120009,"SoundDuration":120009,"Delta":51049476},{"NoteNumber":65,"Velocity":36,"Duration":120009,"SoundDuration":120009,"Delta":51049476},{"NoteNumber":94,"Velocity":49,"Duration":80006,"SoundDuration":80006,"Delta":51129482},{"NoteNumber":106,"Velocity":40,"Duration":80006,"SoundDuration":80006,"Delta":51209488},{"NoteNumber":104,"Velocity":63,"Duration":84040,"SoundDuration":84040,"Delta":51289495},{"NoteNumber":66,"Velocity":28,"Duration":126060,"SoundDuration":126060,"Delta":51289495},{"NoteNumber":71,"Velocity":28,"Duration":126060,"SoundDuration":126060,"Delta":51289495},{"NoteNumber":75,"Velocity":28,"Duration":126060,"SoundDuration":126060,"Delta":51289495},{"NoteNumber":78,"Velocity":34,"Duration":126060,"SoundDuration":126060,"Delta":51289495},{"NoteNumber":92,"Velocity":40,"Duration":84040,"SoundDuration":84040,"Delta":51373535},{"NoteNumber":104,"Velocity":50,"Duration":84040,"SoundDuration":84040,"Delta":51457576},{"NoteNumber":106,"Velocity":60,"Duration":80006,"SoundDuration":80006,"Delta":51541617},{"NoteNumber":58,"Velocity":30,"Duration":120009,"SoundDuration":120009,"Delta":51541617},{"NoteNumber":94,"Velocity":48,"Duration":80006,"SoundDuration":80006,"Delta":51621623},{"NoteNumber":106,"Velocity":48,"Duration":80006,"SoundDuration":80006,"Delta":51701629},{"NoteNumber":94,"Velocity":64,"Duration":130446,"SoundDuration":130446,"Delta":51781636},{"NoteNumber":75,"Velocity":45,"Duration":130446,"SoundDuration":130446,"Delta":51781636},{"NoteNumber":71,"Velocity":38,"Duration":130446,"SoundDuration":130446,"Delta":51781636},{"NoteNumber":68,"Velocity":38,"Duration":130446,"SoundDuration":130446,"Delta":51781636},{"NoteNumber":63,"Velocity":38,"Duration":130446,"SoundDuration":130446,"Delta":51781636},{"NoteNumber":104,"Velocity":59,"Duration":81639,"SoundDuration":81639,"Delta":52042528},{"NoteNumber":65,"Velocity":28,"Duration":122458,"SoundDuration":122458,"Delta":52042528},{"NoteNumber":70,"Velocity":28,"Duration":122458,"SoundDuration":122458,"Delta":52042528},{"NoteNumber":73,"Velocity":28,"Duration":122458,"SoundDuration":122458,"Delta":52042528},{"NoteNumber":77,"Velocity":34,"Duration":122458,"SoundDuration":122458,"Delta":52042528},{"NoteNumber":92,"Velocity":45,"Duration":81639,"SoundDuration":81639,"Delta":52124167},{"NoteNumber":104,"Velocity":45,"Duration":81639,"SoundDuration":81639,"Delta":52205807},{"NoteNumber":106,"Velocity":69,"Duration":79057,"SoundDuration":79057,"Delta":52287446},{"NoteNumber":58,"Velocity":30,"Duration":118586,"SoundDuration":118586,"Delta":52287446},{"NoteNumber":94,"Velocity":46,"Duration":79057,"SoundDuration":79057,"Delta":52366504},{"NoteNumber":106,"Velocity":40,"Duration":79057,"SoundDuration":79057,"Delta":52445561},{"NoteNumber":94,"Velocity":57,"Duration":129321,"SoundDuration":129321,"Delta":52524619},{"NoteNumber":73,"Velocity":45,"Duration":129321,"SoundDuration":129321,"Delta":52524619},{"NoteNumber":70,"Velocity":38,"Duration":129321,"SoundDuration":129321,"Delta":52524619},{"NoteNumber":66,"Velocity":38,"Duration":129321,"SoundDuration":129321,"Delta":52524619},{"NoteNumber":61,"Velocity":38,"Duration":129321,"SoundDuration":129321,"Delta":52524619},{"NoteNumber":104,"Velocity":68,"Duration":80978,"SoundDuration":80978,"Delta":52783262},{"NoteNumber":63,"Velocity":28,"Duration":121467,"SoundDuration":121467,"Delta":52783262},{"NoteNumber":68,"Velocity":28,"Duration":121467,"SoundDuration":121467,"Delta":52783262},{"NoteNumber":71,"Velocity":28,"Duration":121467,"SoundDuration":121467,"Delta":52783262},{"NoteNumber":75,"Velocity":34,"Duration":121467,"SoundDuration":121467,"Delta":52783262},{"NoteNumber":92,"Velocity":45,"Duration":80978,"SoundDuration":80978,"Delta":52864240},{"NoteNumber":104,"Velocity":45,"Duration":80978,"SoundDuration":80978,"Delta":52945218},{"NoteNumber":106,"Velocity":71,"Duration":78437,"SoundDuration":78437,"Delta":53026197},{"NoteNumber":58,"Velocity":33,"Duration":117656,"SoundDuration":117656,"Delta":53026197},{"NoteNumber":94,"Velocity":46,"Duration":78437,"SoundDuration":78437,"Delta":53104634},{"NoteNumber":106,"Velocity":46,"Duration":78437,"SoundDuration":78437,"Delta":53183072},{"NoteNumber":94,"Velocity":57,"Duration":123466,"SoundDuration":123466,"Delta":53261509},{"NoteNumber":59,"Velocity":39,"Duration":123466,"SoundDuration":123466,"Delta":53261509},{"NoteNumber":63,"Velocity":33,"Duration":123466,"SoundDuration":123466,"Delta":53261509},{"NoteNumber":66,"Velocity":33,"Duration":123466,"SoundDuration":123466,"Delta":53261509},{"NoteNumber":71,"Velocity":39,"Duration":123466,"SoundDuration":123466,"Delta":53261509},{"NoteNumber":61,"Velocity":54,"Duration":82311,"SoundDuration":82311,"Delta":53508443},{"NoteNumber":73,"Velocity":34,"Duration":123466,"SoundDuration":123466,"Delta":53508443},{"NoteNumber":70,"Velocity":23,"Duration":123466,"SoundDuration":123466,"Delta":53508443},{"NoteNumber":65,"Velocity":23,"Duration":123466,"SoundDuration":123466,"Delta":53508443},{"NoteNumber":60,"Velocity":57,"Duration":82311,"SoundDuration":82311,"Delta":53590754},{"NoteNumber":59,"Velocity":58,"Duration":82311,"SoundDuration":82311,"Delta":53673066},{"NoteNumber":58,"Velocity":56,"Duration":81441,"SoundDuration":81441,"Delta":53755377},{"NoteNumber":59,"Velocity":47,"Duration":81639,"SoundDuration":81639,"Delta":53836819},{"NoteNumber":57,"Velocity":48,"Duration":81307,"SoundDuration":81307,"Delta":53918458},{"NoteNumber":58,"Velocity":55,"Duration":81241,"SoundDuration":81241,"Delta":53999766},{"NoteNumber":63,"Velocity":50,"Duration":80978,"SoundDuration":80978,"Delta":54081007},{"NoteNumber":61,"Velocity":52,"Duration":80847,"SoundDuration":80847,"Delta":54161986},{"NoteNumber":62,"Velocity":59,"Duration":80651,"SoundDuration":80651,"Delta":54242833},{"NoteNumber":47,"Velocity":45,"Duration":241436,"SoundDuration":241436,"Delta":54242833},{"NoteNumber":50,"Velocity":62,"Duration":241436,"SoundDuration":241436,"Delta":54242833},{"NoteNumber":63,"Velocity":49,"Duration":80457,"SoundDuration":80457,"Delta":54323485},{"NoteNumber":66,"Velocity":50,"Duration":80327,"SoundDuration":80327,"Delta":54403942},{"NoteNumber":67,"Velocity":60,"Duration":80070,"SoundDuration":80070,"Delta":54484270},{"NoteNumber":46,"Velocity":45,"Duration":240083,"SoundDuration":240083,"Delta":54484270},{"NoteNumber":51,"Velocity":62,"Duration":240083,"SoundDuration":240083,"Delta":54484270},{"NoteNumber":70,"Velocity":51,"Duration":80006,"SoundDuration":80006,"Delta":54564340},{"NoteNumber":68,"Velocity":52,"Duration":80006,"SoundDuration":80006,"Delta":54644347},{"NoteNumber":71,"Velocity":64,"Duration":80006,"SoundDuration":80006,"Delta":54724353},{"NoteNumber":53,"Velocity":66,"Duration":263650,"SoundDuration":263650,"Delta":54724353},{"NoteNumber":45,"Velocity":49,"Duration":263650,"SoundDuration":263650,"Delta":54724353},{"NoteNumber":74,"Velocity":53,"Duration":80006,"SoundDuration":80006,"Delta":54804359},{"NoteNumber":75,"Velocity":53,"Duration":103637,"SoundDuration":103637,"Delta":54884366},{"NoteNumber":78,"Velocity":63,"Duration":80940,"SoundDuration":80940,"Delta":54988003},{"NoteNumber":54,"Velocity":94,"Duration":483542,"SoundDuration":483542,"Delta":54988003},{"NoteNumber":46,"Velocity":62,"Duration":483542,"SoundDuration":483542,"Delta":54988003},{"NoteNumber":75,"Velocity":55,"Duration":80327,"SoundDuration":80327,"Delta":55068943},{"NoteNumber":74,"Velocity":55,"Duration":80327,"SoundDuration":80327,"Delta":55149271},{"NoteNumber":77,"Velocity":66,"Duration":80643,"SoundDuration":80643,"Delta":55229599},{"NoteNumber":39,"Velocity":57,"Duration":712120,"SoundDuration":712120,"Delta":55229599},{"NoteNumber":27,"Velocity":48,"Duration":712120,"SoundDuration":712120,"Delta":55229599},{"NoteNumber":74,"Velocity":53,"Duration":80651,"SoundDuration":80651,"Delta":55310242},{"NoteNumber":73,"Velocity":53,"Duration":80651,"SoundDuration":80651,"Delta":55390894},{"NoteNumber":76,"Velocity":65,"Duration":78746,"SoundDuration":78746,"Delta":55471546},{"NoteNumber":56,"Velocity":67,"Duration":236238,"SoundDuration":236238,"Delta":55471546},{"NoteNumber":52,"Velocity":50,"Duration":236238,"SoundDuration":236238,"Delta":55471546},{"NoteNumber":73,"Velocity":53,"Duration":78746,"SoundDuration":78746,"Delta":55550292},{"NoteNumber":72,"Velocity":53,"Duration":78746,"SoundDuration":78746,"Delta":55629038},{"NoteNumber":75,"Velocity":66,"Duration":77636,"SoundDuration":77636,"Delta":55707785},{"NoteNumber":51,"Velocity":51,"Duration":233934,"SoundDuration":233934,"Delta":55707785},{"NoteNumber":57,"Velocity":70,"Duration":233934,"SoundDuration":233934,"Delta":55707785},{"NoteNumber":70,"Velocity":57,"Duration":77990,"SoundDuration":77990,"Delta":55785421},{"NoteNumber":71,"Velocity":57,"Duration":78307,"SoundDuration":78307,"Delta":55863412},{"NoteNumber":74,"Velocity":67,"Duration":78626,"SoundDuration":78626,"Delta":55941719},{"NoteNumber":50,"Velocity":52,"Duration":236848,"SoundDuration":236848,"Delta":55941719},{"NoteNumber":58,"Velocity":71,"Duration":236848,"SoundDuration":236848,"Delta":55941719},{"NoteNumber":75,"Velocity":58,"Duration":78948,"SoundDuration":78948,"Delta":56020346},{"NoteNumber":78,"Velocity":59,"Duration":79273,"SoundDuration":79273,"Delta":56099295},{"NoteNumber":79,"Velocity":73,"Duration":79525,"SoundDuration":79525,"Delta":56178568},{"NoteNumber":49,"Velocity":53,"Duration":239575,"SoundDuration":239575,"Delta":56178568},{"NoteNumber":53,"Velocity":53,"Duration":239575,"SoundDuration":239575,"Delta":56178568},{"NoteNumber":59,"Velocity":72,"Duration":239575,"SoundDuration":239575,"Delta":56178568},{"NoteNumber":82,"Velocity":60,"Duration":79858,"SoundDuration":79858,"Delta":56258093},{"NoteNumber":80,"Velocity":61,"Duration":80191,"SoundDuration":80191,"Delta":56337952},{"NoteNumber":83,"Velocity":70,"Duration":80526,"SoundDuration":80526,"Delta":56418143},{"NoteNumber":47,"Velocity":55,"Duration":265027,"SoundDuration":265027,"Delta":56418143},{"NoteNumber":55,"Velocity":55,"Duration":265027,"SoundDuration":265027,"Delta":56418143},{"NoteNumber":61,"Velocity":74,"Duration":265027,"SoundDuration":265027,"Delta":56418143},{"NoteNumber":80,"Velocity":63,"Duration":80863,"SoundDuration":80863,"Delta":56498670},{"NoteNumber":79,"Velocity":63,"Duration":103637,"SoundDuration":103637,"Delta":56579533},{"NoteNumber":82,"Velocity":79,"Duration":81307,"SoundDuration":81307,"Delta":56683171},{"NoteNumber":46,"Velocity":72,"Duration":487696,"SoundDuration":487696,"Delta":56683171},{"NoteNumber":56,"Velocity":72,"Duration":487696,"SoundDuration":487696,"Delta":56683171},{"NoteNumber":62,"Velocity":97,"Duration":487696,"SoundDuration":487696,"Delta":56683171},{"NoteNumber":79,"Velocity":70,"Duration":81307,"SoundDuration":81307,"Delta":56764479},{"NoteNumber":78,"Velocity":66,"Duration":81307,"SoundDuration":81307,"Delta":56845786},{"NoteNumber":81,"Velocity":78,"Duration":81307,"SoundDuration":81307,"Delta":56927094},{"NoteNumber":39,"Velocity":69,"Duration":727094,"SoundDuration":727094,"Delta":56927094},{"NoteNumber":27,"Velocity":58,"Duration":727094,"SoundDuration":727094,"Delta":56927094},{"NoteNumber":78,"Velocity":67,"Duration":81307,"SoundDuration":81307,"Delta":57008401},{"NoteNumber":77,"Velocity":67,"Duration":81159,"SoundDuration":81159,"Delta":57089709},{"NoteNumber":80,"Velocity":78,"Duration":80978,"SoundDuration":80978,"Delta":57170868},{"NoteNumber":63,"Velocity":82,"Duration":242432,"SoundDuration":242432,"Delta":57170868},{"NoteNumber":59,"Velocity":61,"Duration":242432,"SoundDuration":242432,"Delta":57170868},{"NoteNumber":75,"Velocity":69,"Duration":80802,"SoundDuration":80802,"Delta":57251846},{"NoteNumber":76,"Velocity":69,"Duration":80651,"SoundDuration":80651,"Delta":57332649},{"NoteNumber":79,"Velocity":70,"Duration":80453,"SoundDuration":80453,"Delta":57413300},{"NoteNumber":64,"Velocity":86,"Duration":240887,"SoundDuration":240887,"Delta":57413300},{"NoteNumber":61,"Velocity":63,"Duration":240887,"SoundDuration":240887,"Delta":57413300},{"NoteNumber":58,"Velocity":63,"Duration":240887,"SoundDuration":240887,"Delta":57413300},{"NoteNumber":80,"Velocity":63,"Duration":80327,"SoundDuration":80327,"Delta":57493754},{"NoteNumber":83,"Velocity":63,"Duration":80106,"SoundDuration":80106,"Delta":57574081},{"NoteNumber":84,"Velocity":71,"Duration":80006,"SoundDuration":80006,"Delta":57654188},{"NoteNumber":65,"Velocity":89,"Duration":239453,"SoundDuration":239453,"Delta":57654188},{"NoteNumber":60,"Velocity":66,"Duration":239453,"SoundDuration":239453,"Delta":57654188},{"NoteNumber":57,"Velocity":66,"Duration":239453,"SoundDuration":239453,"Delta":57654188},{"NoteNumber":87,"Velocity":63,"Duration":79759,"SoundDuration":79759,"Delta":57734194},{"NoteNumber":85,"Velocity":64,"Duration":79687,"SoundDuration":79687,"Delta":57813954},{"NoteNumber":88,"Velocity":73,"Duration":79418,"SoundDuration":79418,"Delta":57893641},{"NoteNumber":66,"Velocity":94,"Duration":237867,"SoundDuration":237867,"Delta":57893641},{"NoteNumber":59,"Velocity":69,"Duration":237867,"SoundDuration":237867,"Delta":57893641},{"NoteNumber":56,"Velocity":69,"Duration":237867,"SoundDuration":237867,"Delta":57893641},{"NoteNumber":85,"Velocity":66,"Duration":79371,"SoundDuration":79371,"Delta":57973060},{"NoteNumber":84,"Velocity":66,"Duration":79077,"SoundDuration":79077,"Delta":58052432},{"NoteNumber":87,"Velocity":74,"Duration":79053,"SoundDuration":79053,"Delta":58131509},{"NoteNumber":67,"Velocity":96,"Duration":236519,"SoundDuration":236519,"Delta":58131509},{"NoteNumber":58,"Velocity":71,"Duration":481771,"SoundDuration":481771,"Delta":58131509},{"NoteNumber":55,"Velocity":71,"Duration":236519,"SoundDuration":236519,"Delta":58131509},{"NoteNumber":84,"Velocity":68,"Duration":78746,"SoundDuration":78746,"Delta":58210563},{"NoteNumber":83,"Velocity":68,"Duration":78719,"SoundDuration":78719,"Delta":58289309},{"NoteNumber":86,"Velocity":76,"Duration":78437,"SoundDuration":78437,"Delta":58368028},{"NoteNumber":68,"Velocity":101,"Duration":245251,"SoundDuration":245251,"Delta":58368028},{"NoteNumber":54,"Velocity":74,"Duration":245251,"SoundDuration":245251,"Delta":58368028},{"NoteNumber":82,"Velocity":70,"Duration":78311,"SoundDuration":78311,"Delta":58446466},{"NoteNumber":86,"Velocity":70,"Duration":88503,"SoundDuration":88503,"Delta":58524777},{"NoteNumber":78,"Velocity":73,"Duration":77826,"SoundDuration":77826,"Delta":58613280},{"NoteNumber":90,"Velocity":87,"Duration":77826,"SoundDuration":77826,"Delta":58613280},{"NoteNumber":69,"Velocity":102,"Duration":234455,"SoundDuration":234455,"Delta":58613280},{"NoteNumber":63,"Velocity":75,"Duration":234455,"SoundDuration":234455,"Delta":58613280},{"NoteNumber":60,"Velocity":75,"Duration":234455,"SoundDuration":234455,"Delta":58613280},{"NoteNumber":57,"Velocity":75,"Duration":234455,"SoundDuration":234455,"Delta":58613280},{"NoteNumber":53,"Velocity":75,"Duration":234455,"SoundDuration":234455,"Delta":58613280},{"NoteNumber":87,"Velocity":70,"Duration":77226,"SoundDuration":77226,"Delta":58691107},{"NoteNumber":86,"Velocity":72,"Duration":79402,"SoundDuration":79402,"Delta":58768333},{"NoteNumber":77,"Velocity":78,"Duration":83806,"SoundDuration":83806,"Delta":58847736},{"NoteNumber":89,"Velocity":92,"Duration":83806,"SoundDuration":83806,"Delta":58847736},{"NoteNumber":39,"Velocity":83,"Duration":773069,"SoundDuration":773069,"Delta":58847736},{"NoteNumber":27,"Velocity":70,"Duration":773069,"SoundDuration":773069,"Delta":58847736},{"NoteNumber":86,"Velocity":72,"Duration":84172,"SoundDuration":84172,"Delta":58931543},{"NoteNumber":85,"Velocity":72,"Duration":84541,"SoundDuration":84541,"Delta":59015715},{"NoteNumber":76,"Velocity":80,"Duration":84914,"SoundDuration":84914,"Delta":59100257},{"NoteNumber":88,"Velocity":95,"Duration":84914,"SoundDuration":84914,"Delta":59100257},{"NoteNumber":85,"Velocity":73,"Duration":85381,"SoundDuration":85381,"Delta":59185171},{"NoteNumber":84,"Velocity":74,"Duration":85760,"SoundDuration":85760,"Delta":59270552},{"NoteNumber":75,"Velocity":82,"Duration":86144,"SoundDuration":86144,"Delta":59356313},{"NoteNumber":87,"Velocity":97,"Duration":86144,"SoundDuration":86144,"Delta":59356313},{"NoteNumber":70,"Velocity":78,"Duration":264492,"SoundDuration":264492,"Delta":59356313},{"NoteNumber":63,"Velocity":66,"Duration":264492,"SoundDuration":264492,"Delta":59356313},{"NoteNumber":58,"Velocity":66,"Duration":264492,"SoundDuration":264492,"Delta":59356313},{"NoteNumber":54,"Velocity":66,"Duration":264492,"SoundDuration":264492,"Delta":59356313},{"NoteNumber":83,"Velocity":75,"Duration":86596,"SoundDuration":86596,"Delta":59442457},{"NoteNumber":82,"Velocity":76,"Duration":91751,"SoundDuration":91751,"Delta":59529054},{"NoteNumber":76,"Velocity":95,"Duration":732030,"SoundDuration":732030,"Delta":59620805},{"NoteNumber":88,"Velocity":104,"Duration":732030,"SoundDuration":732030,"Delta":59620805},{"NoteNumber":71,"Velocity":92,"Duration":732030,"SoundDuration":732030,"Delta":59620805},{"NoteNumber":67,"Velocity":78,"Duration":732030,"SoundDuration":732030,"Delta":59620805},{"NoteNumber":64,"Velocity":78,"Duration":732030,"SoundDuration":732030,"Delta":59620805},{"NoteNumber":61,"Velocity":78,"Duration":732030,"SoundDuration":732030,"Delta":59620805},{"NoteNumber":59,"Velocity":78,"Duration":732030,"SoundDuration":732030,"Delta":59620805},{"NoteNumber":85,"Velocity":68,"Duration":78006,"SoundDuration":78006,"Delta":59698936},{"NoteNumber":84,"Velocity":69,"Duration":78425,"SoundDuration":78425,"Delta":59776943},{"NoteNumber":83,"Velocity":71,"Duration":78552,"SoundDuration":78552,"Delta":59855368},{"NoteNumber":82,"Velocity":70,"Duration":78734,"SoundDuration":78734,"Delta":59933921},{"NoteNumber":81,"Velocity":72,"Duration":78811,"SoundDuration":78811,"Delta":60012655},{"NoteNumber":80,"Velocity":72,"Duration":79045,"SoundDuration":79045,"Delta":60091466},{"NoteNumber":79,"Velocity":72,"Duration":79241,"SoundDuration":79241,"Delta":60170512},{"NoteNumber":78,"Velocity":69,"Duration":103082,"SoundDuration":103082,"Delta":60249754},{"NoteNumber":77,"Velocity":90,"Duration":833478,"SoundDuration":833478,"Delta":60352836},{"NoteNumber":89,"Velocity":104,"Duration":315977,"SoundDuration":315977,"Delta":60352836},{"NoteNumber":50,"Velocity":78,"Duration":833478,"SoundDuration":833478,"Delta":60352836},{"NoteNumber":53,"Velocity":78,"Duration":833478,"SoundDuration":833478,"Delta":60352836},{"NoteNumber":56,"Velocity":78,"Duration":833478,"SoundDuration":833478,"Delta":60352836},{"NoteNumber":59,"Velocity":78,"Duration":833478,"SoundDuration":833478,"Delta":60352836},{"NoteNumber":62,"Velocity":92,"Duration":833478,"SoundDuration":833478,"Delta":60352836},{"NoteNumber":83,"Velocity":81,"Duration":78572,"SoundDuration":78572,"Delta":60430766},{"NoteNumber":88,"Velocity":81,"Duration":79327,"SoundDuration":79327,"Delta":60509339},{"NoteNumber":89,"Velocity":94,"Duration":597646,"SoundDuration":597646,"Delta":60588667},{"NoteNumber":27,"Velocity":78,"Duration":597646,"SoundDuration":597646,"Delta":60588667},{"NoteNumber":39,"Velocity":78,"Duration":597646,"SoundDuration":597646,"Delta":60588667},{"NoteNumber":95,"Velocity":87,"Duration":80908,"SoundDuration":80908,"Delta":60668813},{"NoteNumber":100,"Velocity":91,"Duration":81706,"SoundDuration":81706,"Delta":60749722},{"NoteNumber":101,"Velocity":96,"Duration":81307,"SoundDuration":81307,"Delta":60831428},{"NoteNumber":95,"Velocity":89,"Duration":81307,"SoundDuration":81307,"Delta":60912736},{"NoteNumber":89,"Velocity":81,"Duration":192270,"SoundDuration":192270,"Delta":60994043},{"NoteNumber":74,"Velocity":95,"Duration":749619,"SoundDuration":749619,"Delta":61186314},{"NoteNumber":86,"Velocity":104,"Duration":749619,"SoundDuration":749619,"Delta":61186314},{"NoteNumber":66,"Velocity":92,"Duration":749619,"SoundDuration":749619,"Delta":61186314},{"NoteNumber":62,"Velocity":78,"Duration":749619,"SoundDuration":749619,"Delta":61186314},{"NoteNumber":59,"Velocity":78,"Duration":749619,"SoundDuration":749619,"Delta":61186314},{"NoteNumber":56,"Velocity":78,"Duration":749619,"SoundDuration":749619,"Delta":61186314},{"NoteNumber":54,"Velocity":78,"Duration":749619,"SoundDuration":749619,"Delta":61186314},{"NoteNumber":83,"Velocity":68,"Duration":79966,"SoundDuration":79966,"Delta":61265642},{"NoteNumber":82,"Velocity":68,"Duration":80436,"SoundDuration":80436,"Delta":61345608},{"NoteNumber":81,"Velocity":68,"Duration":80850,"SoundDuration":80850,"Delta":61426044},{"NoteNumber":80,"Velocity":70,"Duration":81344,"SoundDuration":81344,"Delta":61506895},{"NoteNumber":79,"Velocity":70,"Duration":81793,"SoundDuration":81793,"Delta":61588239},{"NoteNumber":78,"Velocity":70,"Duration":82230,"SoundDuration":82230,"Delta":61670032},{"NoteNumber":77,"Velocity":70,"Duration":82158,"SoundDuration":82158,"Delta":61752263},{"NoteNumber":76,"Velocity":76,"Duration":101512,"SoundDuration":101512,"Delta":61834421},{"NoteNumber":75,"Velocity":90,"Duration":866362,"SoundDuration":866362,"Delta":61935934},{"NoteNumber":87,"Velocity":104,"Duration":866362,"SoundDuration":866362,"Delta":61935934},{"NoteNumber":45,"Velocity":78,"Duration":866362,"SoundDuration":866362,"Delta":61935934},{"NoteNumber":48,"Velocity":78,"Duration":866362,"SoundDuration":866362,"Delta":61935934},{"NoteNumber":51,"Velocity":78,"Duration":866362,"SoundDuration":866362,"Delta":61935934},{"NoteNumber":54,"Velocity":78,"Duration":866362,"SoundDuration":866362,"Delta":61935934},{"NoteNumber":57,"Velocity":92,"Duration":866362,"SoundDuration":866362,"Delta":61935934},{"NoteNumber":78,"Velocity":81,"Duration":78255,"SoundDuration":78255,"Delta":62013761},{"NoteNumber":83,"Velocity":81,"Duration":79768,"SoundDuration":79768,"Delta":62092016},{"NoteNumber":84,"Velocity":93,"Duration":81118,"SoundDuration":81118,"Delta":62171785},{"NoteNumber":27,"Velocity":78,"Duration":630511,"SoundDuration":630511,"Delta":62171785},{"NoteNumber":39,"Velocity":78,"Duration":630511,"SoundDuration":630511,"Delta":62171785},{"NoteNumber":90,"Velocity":85,"Duration":82520,"SoundDuration":82520,"Delta":62252904},{"NoteNumber":95,"Velocity":101,"Duration":83811,"SoundDuration":83811,"Delta":62335424},{"NoteNumber":96,"Velocity":103,"Duration":84026,"SoundDuration":84026,"Delta":62419236},{"NoteNumber":90,"Velocity":89,"Duration":84026,"SoundDuration":84026,"Delta":62503262},{"NoteNumber":84,"Velocity":81,"Duration":215007,"SoundDuration":215007,"Delta":62587289},{"NoteNumber":82,"Velocity":70,"Duration":519435,"SoundDuration":519435,"Delta":62802296},{"NoteNumber":70,"Velocity":70,"Duration":86572,"SoundDuration":86572,"Delta":62802296},{"NoteNumber":63,"Velocity":80,"Duration":259717,"SoundDuration":259717,"Delta":62802296},{"NoteNumber":54,"Velocity":68,"Duration":259717,"SoundDuration":259717,"Delta":62802296},{"NoteNumber":51,"Velocity":68,"Duration":259717,"SoundDuration":259717,"Delta":62802296},{"NoteNumber":78,"Velocity":65,"Duration":86572,"SoundDuration":86572,"Delta":62888869},{"NoteNumber":70,"Velocity":64,"Duration":86572,"SoundDuration":86572,"Delta":62975442},{"NoteNumber":50,"Velocity":65,"Duration":259717,"SoundDuration":259717,"Delta":63062014},{"NoteNumber":53,"Velocity":65,"Duration":259717,"SoundDuration":259717,"Delta":63062014},{"NoteNumber":62,"Velocity":77,"Duration":259717,"SoundDuration":259717,"Delta":63062014},{"NoteNumber":69,"Velocity":60,"Duration":86572,"SoundDuration":86572,"Delta":63148587},{"NoteNumber":70,"Velocity":58,"Duration":86572,"SoundDuration":86572,"Delta":63235160},{"NoteNumber":71,"Velocity":64,"Duration":265721,"SoundDuration":265721,"Delta":63321732},{"NoteNumber":52,"Velocity":58,"Duration":265721,"SoundDuration":265721,"Delta":63321732},{"NoteNumber":49,"Velocity":58,"Duration":265721,"SoundDuration":265721,"Delta":63321732},{"NoteNumber":61,"Velocity":70,"Duration":265721,"SoundDuration":265721,"Delta":63321732},{"NoteNumber":76,"Velocity":58,"Duration":88503,"SoundDuration":88503,"Delta":63409729},{"NoteNumber":83,"Velocity":58,"Duration":89221,"SoundDuration":89221,"Delta":63498232},{"NoteNumber":79,"Velocity":62,"Duration":566730,"SoundDuration":566730,"Delta":63587454},{"NoteNumber":52,"Velocity":57,"Duration":276509,"SoundDuration":276509,"Delta":63587454},{"NoteNumber":48,"Velocity":57,"Duration":566730,"SoundDuration":566730,"Delta":63587454},{"NoteNumber":60,"Velocity":68,"Duration":566730,"SoundDuration":566730,"Delta":63587454},{"NoteNumber":76,"Velocity":56,"Duration":92230,"SoundDuration":92230,"Delta":63678110},{"NoteNumber":67,"Velocity":55,"Duration":93622,"SoundDuration":93622,"Delta":63770341},{"NoteNumber":51,"Velocity":66,"Duration":584367,"SoundDuration":584367,"Delta":63863963},{"NoteNumber":66,"Velocity":51,"Duration":96935,"SoundDuration":96935,"Delta":63959200},{"NoteNumber":67,"Velocity":50,"Duration":98048,"SoundDuration":98048,"Delta":64056136},{"NoteNumber":68,"Velocity":55,"Duration":294146,"SoundDuration":294146,"Delta":64154185},{"NoteNumber":47,"Velocity":53,"Duration":294146,"SoundDuration":294146,"Delta":64154185},{"NoteNumber":59,"Velocity":63,"Duration":294146,"SoundDuration":294146,"Delta":64154185},{"NoteNumber":75,"Velocity":50,"Duration":98048,"SoundDuration":98048,"Delta":64252233},{"NoteNumber":80,"Velocity":49,"Duration":98048,"SoundDuration":98048,"Delta":64350282},{"NoteNumber":46,"Velocity":39,"Duration":245921,"SoundDuration":245921,"Delta":64448331},{"NoteNumber":51,"Velocity":39,"Duration":245921,"SoundDuration":245921,"Delta":64448331},{"NoteNumber":54,"Velocity":39,"Duration":245921,"SoundDuration":245921,"Delta":64448331},{"NoteNumber":58,"Velocity":46,"Duration":245921,"SoundDuration":245921,"Delta":64448331},{"NoteNumber":66,"Velocity":41,"Duration":81974,"SoundDuration":81974,"Delta":64530305},{"NoteNumber":68,"Velocity":41,"Duration":81973,"SoundDuration":81973,"Delta":64612279},{"NoteNumber":69,"Velocity":45,"Duration":81974,"SoundDuration":81974,"Delta":64694253},{"NoteNumber":70,"Velocity":42,"Duration":81974,"SoundDuration":81974,"Delta":64776227},{"NoteNumber":71,"Velocity":42,"Duration":81974,"SoundDuration":81974,"Delta":64858201},{"NoteNumber":75,"Velocity":55,"Duration":132755,"SoundDuration":132755,"Delta":64940175},{"NoteNumber":72,"Velocity":45,"Duration":132755,"SoundDuration":132755,"Delta":64940175},{"NoteNumber":67,"Velocity":38,"Duration":132755,"SoundDuration":132755,"Delta":64940175},{"NoteNumber":63,"Velocity":38,"Duration":132755,"SoundDuration":132755,"Delta":64940175},{"NoteNumber":73,"Velocity":45,"Duration":83774,"SoundDuration":83774,"Delta":65028678},{"NoteNumber":74,"Velocity":45,"Duration":79045,"SoundDuration":79045,"Delta":65112453},{"NoteNumber":75,"Velocity":45,"Duration":80965,"SoundDuration":80965,"Delta":65191498},{"NoteNumber":77,"Velocity":63,"Duration":121447,"SoundDuration":121447,"Delta":65191498},{"NoteNumber":71,"Velocity":45,"Duration":121447,"SoundDuration":121447,"Delta":65191498},{"NoteNumber":68,"Velocity":38,"Duration":121447,"SoundDuration":121447,"Delta":65191498},{"NoteNumber":63,"Velocity":38,"Duration":121447,"SoundDuration":121447,"Delta":65191498},{"NoteNumber":58,"Velocity":38,"Duration":121447,"SoundDuration":121447,"Delta":65191498},{"NoteNumber":69,"Velocity":45,"Duration":80965,"SoundDuration":80965,"Delta":65272463},{"NoteNumber":70,"Velocity":45,"Duration":80965,"SoundDuration":80965,"Delta":65353428},{"NoteNumber":71,"Velocity":45,"Duration":82311,"SoundDuration":82311,"Delta":65434393},{"NoteNumber":72,"Velocity":42,"Duration":82311,"SoundDuration":82311,"Delta":65516705},{"NoteNumber":73,"Velocity":42,"Duration":82311,"SoundDuration":82311,"Delta":65599016},{"NoteNumber":79,"Velocity":55,"Duration":128766,"SoundDuration":128766,"Delta":65681327},{"NoteNumber":72,"Velocity":45,"Duration":128766,"SoundDuration":128766,"Delta":65681327},{"NoteNumber":67,"Velocity":38,"Duration":128766,"SoundDuration":128766,"Delta":65681327},{"NoteNumber":64,"Velocity":38,"Duration":128766,"SoundDuration":128766,"Delta":65681327},{"NoteNumber":73,"Velocity":41,"Duration":85844,"SoundDuration":85844,"Delta":65767172},{"NoteNumber":74,"Velocity":41,"Duration":85844,"SoundDuration":85844,"Delta":65853016},{"NoteNumber":75,"Velocity":45,"Duration":82311,"SoundDuration":82311,"Delta":65938860},{"NoteNumber":80,"Velocity":64,"Duration":123467,"SoundDuration":123467,"Delta":65938860},{"NoteNumber":71,"Velocity":47,"Duration":123467,"SoundDuration":123467,"Delta":65938860},{"NoteNumber":68,"Velocity":39,"Duration":123467,"SoundDuration":123467,"Delta":65938860},{"NoteNumber":63,"Velocity":39,"Duration":123467,"SoundDuration":123467,"Delta":65938860},{"NoteNumber":58,"Velocity":39,"Duration":123467,"SoundDuration":123467,"Delta":65938860},{"NoteNumber":71,"Velocity":45,"Duration":82311,"SoundDuration":82311,"Delta":66021172},{"NoteNumber":73,"Velocity":45,"Duration":82311,"SoundDuration":82311,"Delta":66103483},{"NoteNumber":75,"Velocity":45,"Duration":83689,"SoundDuration":83689,"Delta":66185794},{"NoteNumber":76,"Velocity":42,"Duration":83688,"SoundDuration":83688,"Delta":66269483},{"NoteNumber":77,"Velocity":42,"Duration":83689,"SoundDuration":83689,"Delta":66353172},{"NoteNumber":78,"Velocity":45,"Duration":89277,"SoundDuration":89277,"Delta":66436861},{"NoteNumber":81,"Velocity":55,"Duration":100437,"SoundDuration":100437,"Delta":66436861},{"NoteNumber":63,"Velocity":34,"Duration":100437,"SoundDuration":100437,"Delta":66436861},{"NoteNumber":69,"Velocity":34,"Duration":100437,"SoundDuration":100437,"Delta":66436861},{"NoteNumber":72,"Velocity":41,"Duration":100437,"SoundDuration":100437,"Delta":66436861},{"NoteNumber":77,"Velocity":42,"Duration":89277,"SoundDuration":89277,"Delta":66526139},{"NoteNumber":78,"Velocity":42,"Duration":181861,"SoundDuration":181861,"Delta":66615417},{"NoteNumber":82,"Velocity":61,"Duration":104157,"SoundDuration":104157,"Delta":66704694},{"NoteNumber":58,"Velocity":39,"Duration":104157,"SoundDuration":104157,"Delta":66704694},{"NoteNumber":63,"Velocity":39,"Duration":104157,"SoundDuration":104157,"Delta":66704694},{"NoteNumber":67,"Velocity":39,"Duration":104157,"SoundDuration":104157,"Delta":66704694},{"NoteNumber":70,"Velocity":46,"Duration":104157,"SoundDuration":104157,"Delta":66704694},{"NoteNumber":77,"Velocity":42,"Duration":92584,"SoundDuration":92584,"Delta":66797278},{"NoteNumber":78,"Velocity":41,"Duration":92584,"SoundDuration":92584,"Delta":66889862},{"NoteNumber":79,"Velocity":45,"Duration":97077,"SoundDuration":97077,"Delta":66982446},{"NoteNumber":84,"Velocity":58,"Duration":109212,"SoundDuration":109212,"Delta":66982446},{"NoteNumber":63,"Velocity":36,"Duration":109212,"SoundDuration":109212,"Delta":66982446},{"NoteNumber":69,"Velocity":36,"Duration":109212,"SoundDuration":109212,"Delta":66982446},{"NoteNumber":72,"Velocity":43,"Duration":109212,"SoundDuration":109212,"Delta":66982446},{"NoteNumber":80,"Velocity":42,"Duration":97078,"SoundDuration":97078,"Delta":67079524},{"NoteNumber":81,"Velocity":42,"Duration":97077,"SoundDuration":97077,"Delta":67176602},{"NoteNumber":82,"Velocity":45,"Duration":103616,"SoundDuration":103616,"Delta":67273680},{"NoteNumber":86,"Velocity":60,"Duration":116568,"SoundDuration":116568,"Delta":67273680},{"NoteNumber":58,"Velocity":39,"Duration":116568,"SoundDuration":116568,"Delta":67273680},{"NoteNumber":62,"Velocity":39,"Duration":116568,"SoundDuration":116568,"Delta":67273680},{"NoteNumber":70,"Velocity":46,"Duration":116568,"SoundDuration":116568,"Delta":67273680},{"NoteNumber":80,"Velocity":40,"Duration":103616,"SoundDuration":103616,"Delta":67377297},{"NoteNumber":78,"Velocity":40,"Duration":460652,"SoundDuration":460652,"Delta":67480913},{"NoteNumber":87,"Velocity":66,"Duration":357036,"SoundDuration":357036,"Delta":67584529},{"NoteNumber":75,"Velocity":52,"Duration":357036,"SoundDuration":357036,"Delta":67584529},{"NoteNumber":70,"Velocity":44,"Duration":357036,"SoundDuration":357036,"Delta":67584529},{"NoteNumber":63,"Velocity":44,"Duration":357036,"SoundDuration":357036,"Delta":67584529},{"NoteNumber":82,"Velocity":44,"Duration":114582,"SoundDuration":114582,"Delta":67826983},{"NoteNumber":87,"Velocity":53,"Duration":101599,"SoundDuration":101599,"Delta":67941565},{"NoteNumber":27,"Velocity":46,"Duration":585906,"SoundDuration":585906,"Delta":67941565},{"NoteNumber":39,"Velocity":46,"Duration":1656687,"SoundDuration":1656687,"Delta":67941565},{"NoteNumber":90,"Velocity":44,"Duration":99931,"SoundDuration":99931,"Delta":68043165},{"NoteNumber":94,"Velocity":44,"Duration":98346,"SoundDuration":98346,"Delta":68143096},{"NoteNumber":99,"Velocity":53,"Duration":96851,"SoundDuration":96851,"Delta":68241442},{"NoteNumber":44,"Velocity":44,"Duration":286029,"SoundDuration":286029,"Delta":68241442},{"NoteNumber":91,"Velocity":44,"Duration":95287,"SoundDuration":95287,"Delta":68338294},{"NoteNumber":90,"Velocity":44,"Duration":93889,"SoundDuration":93889,"Delta":68433582},{"NoteNumber":98,"Velocity":52,"Duration":92430,"SoundDuration":92430,"Delta":68527472},{"NoteNumber":45,"Velocity":51,"Duration":543018,"SoundDuration":543018,"Delta":68527472},{"NoteNumber":90,"Velocity":45,"Duration":91010,"SoundDuration":91010,"Delta":68619902},{"NoteNumber":89,"Velocity":45,"Duration":90489,"SoundDuration":90489,"Delta":68710913},{"NoteNumber":97,"Velocity":54,"Duration":90066,"SoundDuration":90066,"Delta":68801403},{"NoteNumber":89,"Velocity":45,"Duration":89677,"SoundDuration":89677,"Delta":68891470},{"NoteNumber":88,"Velocity":46,"Duration":89342,"SoundDuration":89342,"Delta":68981148},{"NoteNumber":96,"Velocity":53,"Duration":88930,"SoundDuration":88930,"Delta":69070490},{"NoteNumber":46,"Velocity":51,"Duration":266035,"SoundDuration":266035,"Delta":69070490},{"NoteNumber":88,"Velocity":46,"Duration":88802,"SoundDuration":88802,"Delta":69159421},{"NoteNumber":87,"Velocity":46,"Duration":88302,"SoundDuration":88302,"Delta":69248223},{"NoteNumber":78,"Velocity":54,"Duration":87793,"SoundDuration":87793,"Delta":69336526},{"NoteNumber":48,"Velocity":57,"Duration":519576,"SoundDuration":519576,"Delta":69336526},{"NoteNumber":81,"Velocity":47,"Duration":87210,"SoundDuration":87210,"Delta":69424320},{"NoteNumber":82,"Velocity":47,"Duration":86723,"SoundDuration":86723,"Delta":69511530},{"NoteNumber":86,"Velocity":57,"Duration":86190,"SoundDuration":86190,"Delta":69598253},{"NoteNumber":27,"Velocity":47,"Duration":515338,"SoundDuration":515338,"Delta":69598253},{"NoteNumber":39,"Velocity":47,"Duration":515338,"SoundDuration":515338,"Delta":69598253},{"NoteNumber":87,"Velocity":47,"Duration":85829,"SoundDuration":85829,"Delta":69684444},{"NoteNumber":90,"Velocity":47,"Duration":85829,"SoundDuration":85829,"Delta":69770273},{"NoteNumber":94,"Velocity":58,"Duration":85829,"SoundDuration":85829,"Delta":69856103},{"NoteNumber":50,"Velocity":52,"Duration":257488,"SoundDuration":257488,"Delta":69856103},{"NoteNumber":39,"Velocity":52,"Duration":1043124,"SoundDuration":1043124,"Delta":69856103},{"NoteNumber":86,"Velocity":48,"Duration":85829,"SoundDuration":85829,"Delta":69941932},{"NoteNumber":85,"Velocity":48,"Duration":85829,"SoundDuration":85829,"Delta":70027762},{"NoteNumber":93,"Velocity":59,"Duration":85829,"SoundDuration":85829,"Delta":70113591},{"NoteNumber":51,"Velocity":59,"Duration":514976,"SoundDuration":514976,"Delta":70113591},{"NoteNumber":85,"Velocity":49,"Duration":85829,"SoundDuration":85829,"Delta":70199421},{"NoteNumber":84,"Velocity":49,"Duration":85829,"SoundDuration":85829,"Delta":70285250},{"NoteNumber":92,"Velocity":61,"Duration":85829,"SoundDuration":85829,"Delta":70371080},{"NoteNumber":84,"Velocity":49,"Duration":85829,"SoundDuration":85829,"Delta":70456909},{"NoteNumber":83,"Velocity":50,"Duration":85829,"SoundDuration":85829,"Delta":70542739},{"NoteNumber":91,"Velocity":60,"Duration":85829,"SoundDuration":85829,"Delta":70628568},{"NoteNumber":53,"Velocity":55,"Duration":270659,"SoundDuration":270659,"Delta":70628568},{"NoteNumber":83,"Velocity":50,"Duration":85829,"SoundDuration":85829,"Delta":70714398},{"NoteNumber":82,"Velocity":50,"Duration":99000,"SoundDuration":99000,"Delta":70800227},{"NoteNumber":72,"Velocity":61,"Duration":88473,"SoundDuration":88473,"Delta":70899227},{"NoteNumber":54,"Velocity":60,"Duration":264210,"SoundDuration":264210,"Delta":70899227},{"NoteNumber":48,"Velocity":51,"Duration":264210,"SoundDuration":264210,"Delta":70899227},{"NoteNumber":45,"Velocity":51,"Duration":264210,"SoundDuration":264210,"Delta":70899227},{"NoteNumber":75,"Velocity":54,"Duration":88069,"SoundDuration":88069,"Delta":70987700},{"NoteNumber":78,"Velocity":56,"Duration":87668,"SoundDuration":87668,"Delta":71075769},{"NoteNumber":80,"Velocity":62,"Duration":87176,"SoundDuration":87176,"Delta":71163438},{"NoteNumber":27,"Velocity":53,"Duration":517365,"SoundDuration":517365,"Delta":71163438},{"NoteNumber":39,"Velocity":53,"Duration":517365,"SoundDuration":517365,"Delta":71163438},{"NoteNumber":81,"Velocity":51,"Duration":86784,"SoundDuration":86784,"Delta":71250615},{"NoteNumber":84,"Velocity":51,"Duration":86395,"SoundDuration":86395,"Delta":71337399},{"NoteNumber":87,"Velocity":62,"Duration":86009,"SoundDuration":86009,"Delta":71423794},{"NoteNumber":53,"Velocity":43,"Duration":257008,"SoundDuration":257008,"Delta":71423794},{"NoteNumber":56,"Velocity":51,"Duration":257008,"SoundDuration":257008,"Delta":71423794},{"NoteNumber":79,"Velocity":52,"Duration":85536,"SoundDuration":85536,"Delta":71509804},{"NoteNumber":78,"Velocity":52,"Duration":85462,"SoundDuration":85462,"Delta":71595341},{"NoteNumber":86,"Velocity":61,"Duration":85462,"SoundDuration":85462,"Delta":71680803},{"NoteNumber":48,"Velocity":50,"Duration":512776,"SoundDuration":512776,"Delta":71680803},{"NoteNumber":51,"Velocity":50,"Duration":512776,"SoundDuration":512776,"Delta":71680803},{"NoteNumber":57,"Velocity":60,"Duration":512776,"SoundDuration":512776,"Delta":71680803},{"NoteNumber":78,"Velocity":52,"Duration":85462,"SoundDuration":85462,"Delta":71766266},{"NoteNumber":77,"Velocity":53,"Duration":85462,"SoundDuration":85462,"Delta":71851729},{"NoteNumber":85,"Velocity":62,"Duration":85462,"SoundDuration":85462,"Delta":71937192},{"NoteNumber":77,"Velocity":53,"Duration":85462,"SoundDuration":85462,"Delta":72022655},{"NoteNumber":76,"Velocity":53,"Duration":85462,"SoundDuration":85462,"Delta":72108118},{"NoteNumber":84,"Velocity":62,"Duration":85462,"SoundDuration":85462,"Delta":72193580},{"NoteNumber":54,"Velocity":50,"Duration":773607,"SoundDuration":773607,"Delta":72193580},{"NoteNumber":58,"Velocity":60,"Duration":256388,"SoundDuration":256388,"Delta":72193580},{"NoteNumber":76,"Velocity":54,"Duration":85462,"SoundDuration":85462,"Delta":72279043},{"NoteNumber":75,"Velocity":54,"Duration":85462,"SoundDuration":85462,"Delta":72364506},{"NoteNumber":66,"Velocity":78,"Duration":85462,"SoundDuration":85462,"Delta":72449969},{"NoteNumber":51,"Velocity":69,"Duration":517219,"SoundDuration":517219,"Delta":72449969},{"NoteNumber":60,"Velocity":69,"Duration":517219,"SoundDuration":517219,"Delta":72449969},{"NoteNumber":69,"Velocity":54,"Duration":85462,"SoundDuration":85462,"Delta":72535432},{"NoteNumber":70,"Velocity":54,"Duration":86079,"SoundDuration":86079,"Delta":72620895},{"NoteNumber":74,"Velocity":64,"Duration":86437,"SoundDuration":86437,"Delta":72706974},{"NoteNumber":39,"Velocity":53,"Duration":523303,"SoundDuration":523303,"Delta":72706974},{"NoteNumber":75,"Velocity":52,"Duration":86737,"SoundDuration":86737,"Delta":72793412},{"NoteNumber":78,"Velocity":51,"Duration":87039,"SoundDuration":87039,"Delta":72880149},{"NoteNumber":82,"Velocity":62,"Duration":87343,"SoundDuration":87343,"Delta":72967188},{"NoteNumber":58,"Velocity":46,"Duration":263089,"SoundDuration":263089,"Delta":72967188},{"NoteNumber":62,"Velocity":56,"Duration":263089,"SoundDuration":263089,"Delta":72967188},{"NoteNumber":74,"Velocity":51,"Duration":87711,"SoundDuration":87711,"Delta":73054531},{"NoteNumber":73,"Velocity":50,"Duration":88035,"SoundDuration":88035,"Delta":73142243},{"NoteNumber":81,"Velocity":61,"Duration":88346,"SoundDuration":88346,"Delta":73230278},{"NoteNumber":54,"Velocity":50,"Duration":535347,"SoundDuration":535347,"Delta":73230278},{"NoteNumber":57,"Velocity":50,"Duration":535347,"SoundDuration":535347,"Delta":73230278},{"NoteNumber":63,"Velocity":61,"Duration":535347,"SoundDuration":535347,"Delta":73230278},{"NoteNumber":73,"Velocity":48,"Duration":88753,"SoundDuration":88753,"Delta":73318625},{"NoteNumber":72,"Velocity":48,"Duration":89069,"SoundDuration":89069,"Delta":73407378},{"NoteNumber":80,"Velocity":58,"Duration":89387,"SoundDuration":89387,"Delta":73496447},{"NoteNumber":72,"Velocity":47,"Duration":89708,"SoundDuration":89708,"Delta":73585835},{"NoteNumber":71,"Velocity":46,"Duration":90081,"SoundDuration":90081,"Delta":73675543},{"NoteNumber":79,"Velocity":55,"Duration":90438,"SoundDuration":90438,"Delta":73765625},{"NoteNumber":62,"Velocity":42,"Duration":272402,"SoundDuration":272402,"Delta":73765625},{"NoteNumber":65,"Velocity":50,"Duration":272402,"SoundDuration":272402,"Delta":73765625},{"NoteNumber":71,"Velocity":45,"Duration":90767,"SoundDuration":90767,"Delta":73856064},{"NoteNumber":70,"Velocity":44,"Duration":91196,"SoundDuration":91196,"Delta":73946831},{"NoteNumber":78,"Velocity":55,"Duration":104701,"SoundDuration":104701,"Delta":74038027},{"NoteNumber":66,"Velocity":61,"Duration":314103,"SoundDuration":314103,"Delta":74038027},{"NoteNumber":63,"Velocity":51,"Duration":314103,"SoundDuration":314103,"Delta":74038027},{"NoteNumber":58,"Velocity":51,"Duration":314103,"SoundDuration":314103,"Delta":74038027},{"NoteNumber":70,"Velocity":51,"Duration":104700,"SoundDuration":104700,"Delta":74142728},{"NoteNumber":75,"Velocity":51,"Duration":104701,"SoundDuration":104701,"Delta":74247429},{"NoteNumber":83,"Velocity":49,"Duration":81703,"SoundDuration":81703,"Delta":74352130},{"NoteNumber":87,"Velocity":49,"Duration":61293,"SoundDuration":61293,"Delta":74352130},{"NoteNumber":79,"Velocity":43,"Duration":81639,"SoundDuration":81639,"Delta":74433834},{"NoteNumber":75,"Velocity":41,"Duration":61267,"SoundDuration":61267,"Delta":74474653},{"NoteNumber":74,"Velocity":43,"Duration":81927,"SoundDuration":81927,"Delta":74515473},{"NoteNumber":82,"Velocity":49,"Duration":81995,"SoundDuration":81995,"Delta":74597401},{"NoteNumber":87,"Velocity":49,"Duration":61480,"SoundDuration":61480,"Delta":74597401},{"NoteNumber":78,"Velocity":42,"Duration":82311,"SoundDuration":82311,"Delta":74679396},{"NoteNumber":75,"Velocity":42,"Duration":61733,"SoundDuration":61733,"Delta":74720552},{"NoteNumber":73,"Velocity":42,"Duration":82400,"SoundDuration":82400,"Delta":74761707},{"NoteNumber":81,"Velocity":49,"Duration":82651,"SoundDuration":82651,"Delta":74844108},{"NoteNumber":87,"Velocity":49,"Duration":61988,"SoundDuration":61988,"Delta":74844108},{"NoteNumber":77,"Velocity":43,"Duration":82810,"SoundDuration":82810,"Delta":74926759},{"NoteNumber":75,"Velocity":41,"Duration":62233,"SoundDuration":62233,"Delta":74968085},{"NoteNumber":72,"Velocity":43,"Duration":82994,"SoundDuration":82994,"Delta":75009570},{"NoteNumber":80,"Velocity":49,"Duration":83223,"SoundDuration":83223,"Delta":75092564},{"NoteNumber":87,"Velocity":49,"Duration":62388,"SoundDuration":62388,"Delta":75092564},{"NoteNumber":76,"Velocity":42,"Duration":83340,"SoundDuration":83340,"Delta":75175788},{"NoteNumber":75,"Velocity":40,"Duration":62544,"SoundDuration":62544,"Delta":75217458},{"NoteNumber":71,"Velocity":42,"Duration":83641,"SoundDuration":83641,"Delta":75259128},{"NoteNumber":79,"Velocity":49,"Duration":83710,"SoundDuration":83710,"Delta":75342769},{"NoteNumber":87,"Velocity":49,"Duration":62766,"SoundDuration":62766,"Delta":75342769},{"NoteNumber":71,"Velocity":43,"Duration":84040,"SoundDuration":84040,"Delta":75426480},{"NoteNumber":75,"Velocity":42,"Duration":63030,"SoundDuration":63030,"Delta":75468500},{"NoteNumber":69,"Velocity":43,"Duration":84040,"SoundDuration":84040,"Delta":75510521},{"NoteNumber":78,"Velocity":49,"Duration":84753,"SoundDuration":84753,"Delta":75594561},{"NoteNumber":87,"Velocity":49,"Duration":63564,"SoundDuration":63564,"Delta":75594561},{"NoteNumber":73,"Velocity":42,"Duration":84752,"SoundDuration":84752,"Delta":75679314},{"NoteNumber":75,"Velocity":41,"Duration":66302,"SoundDuration":66302,"Delta":75721691},{"NoteNumber":66,"Velocity":42,"Duration":94531,"SoundDuration":94531,"Delta":75764067},{"NoteNumber":71,"Velocity":49,"Duration":82311,"SoundDuration":82311,"Delta":75858599},{"NoteNumber":75,"Velocity":49,"Duration":61733,"SoundDuration":61733,"Delta":75858599},{"NoteNumber":67,"Velocity":44,"Duration":82511,"SoundDuration":82511,"Delta":75940910},{"NoteNumber":63,"Velocity":40,"Duration":61988,"SoundDuration":61988,"Delta":75982095},{"NoteNumber":62,"Velocity":44,"Duration":82681,"SoundDuration":82681,"Delta":76023421},{"NoteNumber":70,"Velocity":49,"Duration":82994,"SoundDuration":82994,"Delta":76106103},{"NoteNumber":75,"Velocity":49,"Duration":62245,"SoundDuration":62245,"Delta":76106103},{"NoteNumber":66,"Velocity":42,"Duration":83197,"SoundDuration":83197,"Delta":76189097},{"NoteNumber":63,"Velocity":42,"Duration":62505,"SoundDuration":62505,"Delta":76230625},{"NoteNumber":61,"Velocity":42,"Duration":83370,"SoundDuration":83370,"Delta":76272295},{"NoteNumber":69,"Velocity":49,"Duration":83688,"SoundDuration":83688,"Delta":76355666},{"NoteNumber":75,"Velocity":49,"Duration":62766,"SoundDuration":62766,"Delta":76355666},{"NoteNumber":65,"Velocity":40,"Duration":83961,"SoundDuration":83961,"Delta":76439355},{"NoteNumber":63,"Velocity":42,"Duration":63030,"SoundDuration":63030,"Delta":76481296},{"NoteNumber":60,"Velocity":40,"Duration":84138,"SoundDuration":84138,"Delta":76523316},{"NoteNumber":68,"Velocity":50,"Duration":84395,"SoundDuration":84395,"Delta":76607454},{"NoteNumber":75,"Velocity":49,"Duration":63296,"SoundDuration":63296,"Delta":76607454},{"NoteNumber":64,"Velocity":44,"Duration":84672,"SoundDuration":84672,"Delta":76691850},{"NoteNumber":63,"Velocity":44,"Duration":63564,"SoundDuration":63564,"Delta":76734146},{"NoteNumber":59,"Velocity":44,"Duration":84852,"SoundDuration":84852,"Delta":76776522},{"NoteNumber":67,"Velocity":50,"Duration":85113,"SoundDuration":85113,"Delta":76861374},{"NoteNumber":75,"Velocity":49,"Duration":63835,"SoundDuration":63835,"Delta":76861374},{"NoteNumber":59,"Velocity":43,"Duration":85395,"SoundDuration":85395,"Delta":76946488},{"NoteNumber":63,"Velocity":43,"Duration":64107,"SoundDuration":64107,"Delta":76989145},{"NoteNumber":57,"Velocity":43,"Duration":85647,"SoundDuration":85647,"Delta":77031884},{"NoteNumber":66,"Velocity":50,"Duration":85844,"SoundDuration":85844,"Delta":77117531},{"NoteNumber":75,"Velocity":49,"Duration":64383,"SoundDuration":64383,"Delta":77117531},{"NoteNumber":58,"Velocity":42,"Duration":85844,"SoundDuration":85844,"Delta":77203375},{"NoteNumber":46,"Velocity":42,"Duration":85844,"SoundDuration":85844,"Delta":77289219},{"NoteNumber":39,"Velocity":42,"Duration":85844,"SoundDuration":85844,"Delta":77289219},{"NoteNumber":51,"Velocity":38,"Duration":42922,"SoundDuration":42922,"Delta":77375064},{"NoteNumber":54,"Velocity":38,"Duration":42922,"SoundDuration":42922,"Delta":77417986},{"NoteNumber":57,"Velocity":39,"Duration":42922,"SoundDuration":42922,"Delta":77461981},{"NoteNumber":58,"Velocity":40,"Duration":42922,"SoundDuration":42922,"Delta":77504903},{"NoteNumber":62,"Velocity":40,"Duration":42922,"SoundDuration":42922,"Delta":77547825},{"NoteNumber":63,"Velocity":42,"Duration":42922,"SoundDuration":42922,"Delta":77589674},{"NoteNumber":66,"Velocity":42,"Duration":85844,"SoundDuration":85844,"Delta":77632597},{"NoteNumber":65,"Velocity":38,"Duration":85113,"SoundDuration":85113,"Delta":77718441},{"NoteNumber":70,"Velocity":38,"Duration":85113,"SoundDuration":85113,"Delta":77803555},{"NoteNumber":58,"Velocity":42,"Duration":85113,"SoundDuration":85113,"Delta":77888668},{"NoteNumber":66,"Velocity":42,"Duration":85113,"SoundDuration":85113,"Delta":77888668},{"NoteNumber":63,"Velocity":42,"Duration":85113,"SoundDuration":85113,"Delta":77888668},{"NoteNumber":68,"Velocity":37,"Duration":85113,"SoundDuration":85113,"Delta":77973782},{"NoteNumber":69,"Velocity":38,"Duration":84174,"SoundDuration":84174,"Delta":78058896},{"NoteNumber":70,"Velocity":42,"Duration":83776,"SoundDuration":83776,"Delta":78143070},{"NoteNumber":74,"Velocity":39,"Duration":83471,"SoundDuration":83471,"Delta":78226847},{"NoteNumber":75,"Velocity":39,"Duration":83167,"SoundDuration":83167,"Delta":78310318},{"NoteNumber":78,"Velocity":42,"Duration":82865,"SoundDuration":82865,"Delta":78393486},{"NoteNumber":77,"Velocity":40,"Duration":82566,"SoundDuration":82566,"Delta":78476352},{"NoteNumber":82,"Velocity":40,"Duration":82269,"SoundDuration":82269,"Delta":78558918},{"NoteNumber":70,"Velocity":42,"Duration":81974,"SoundDuration":81974,"Delta":78641187},{"NoteNumber":75,"Velocity":42,"Duration":81974,"SoundDuration":81974,"Delta":78641187},{"NoteNumber":78,"Velocity":42,"Duration":81974,"SoundDuration":81974,"Delta":78641187},{"NoteNumber":80,"Velocity":38,"Duration":81639,"SoundDuration":81639,"Delta":78723161},{"NoteNumber":81,"Velocity":38,"Duration":81639,"SoundDuration":81639,"Delta":78804801},{"NoteNumber":82,"Velocity":42,"Duration":81639,"SoundDuration":81639,"Delta":78886440},{"NoteNumber":86,"Velocity":38,"Duration":81639,"SoundDuration":81639,"Delta":78968079},{"NoteNumber":87,"Velocity":38,"Duration":81639,"SoundDuration":81639,"Delta":79049719},{"NoteNumber":90,"Velocity":42,"Duration":81639,"SoundDuration":81639,"Delta":79131358},{"NoteNumber":89,"Velocity":40,"Duration":81639,"SoundDuration":81639,"Delta":79212997},{"NoteNumber":94,"Velocity":40,"Duration":81639,"SoundDuration":81639,"Delta":79294637},{"NoteNumber":90,"Velocity":42,"Duration":81639,"SoundDuration":81639,"Delta":79376276},{"NoteNumber":87,"Velocity":42,"Duration":244917,"SoundDuration":244917,"Delta":79376276},{"NoteNumber":82,"Velocity":42,"Duration":244917,"SoundDuration":244917,"Delta":79376276},{"NoteNumber":91,"Velocity":44,"Duration":81639,"SoundDuration":81639,"Delta":79457915},{"NoteNumber":92,"Velocity":47,"Duration":81639,"SoundDuration":81639,"Delta":79539555},{"NoteNumber":93,"Velocity":48,"Duration":81639,"SoundDuration":81639,"Delta":79621194},{"NoteNumber":91,"Velocity":42,"Duration":245809,"SoundDuration":245809,"Delta":79621194},{"NoteNumber":88,"Velocity":42,"Duration":245809,"SoundDuration":245809,"Delta":79621194},{"NoteNumber":94,"Velocity":50,"Duration":81514,"SoundDuration":81514,"Delta":79702833},{"NoteNumber":95,"Velocity":53,"Duration":82655,"SoundDuration":82655,"Delta":79784348},{"NoteNumber":96,"Velocity":54,"Duration":84352,"SoundDuration":84352,"Delta":79867004},{"NoteNumber":89,"Velocity":45,"Duration":258109,"SoundDuration":258109,"Delta":79867004},{"NoteNumber":92,"Velocity":45,"Duration":258109,"SoundDuration":258109,"Delta":79867004},{"NoteNumber":97,"Velocity":55,"Duration":86125,"SoundDuration":86125,"Delta":79951357},{"NoteNumber":98,"Velocity":56,"Duration":87631,"SoundDuration":87631,"Delta":80037482},{"NoteNumber":99,"Velocity":65,"Duration":255341,"SoundDuration":255341,"Delta":80125114},{"NoteNumber":87,"Velocity":48,"Duration":255341,"SoundDuration":255341,"Delta":80125114},{"NoteNumber":90,"Velocity":48,"Duration":255341,"SoundDuration":255341,"Delta":80125114},{"NoteNumber":94,"Velocity":48,"Duration":255341,"SoundDuration":255341,"Delta":80125114},{"NoteNumber":90,"Velocity":57,"Duration":129562,"SoundDuration":129562,"Delta":80380455},{"NoteNumber":87,"Velocity":57,"Duration":129562,"SoundDuration":129562,"Delta":80380455},{"NoteNumber":78,"Velocity":53,"Duration":133345,"SoundDuration":133345,"Delta":80643362},{"NoteNumber":75,"Velocity":53,"Duration":133345,"SoundDuration":133345,"Delta":80643362},{"NoteNumber":72,"Velocity":44,"Duration":147073,"SoundDuration":147073,"Delta":80910053},{"NoteNumber":69,"Velocity":44,"Duration":147073,"SoundDuration":147073,"Delta":80910053},{"NoteNumber":60,"Velocity":40,"Duration":170473,"SoundDuration":170473,"Delta":81204199},{"NoteNumber":57,"Velocity":40,"Duration":170473,"SoundDuration":170473,"Delta":81204199},{"NoteNumber":50,"Velocity":34,"Duration":215858,"SoundDuration":215858,"Delta":81545147},{"NoteNumber":46,"Velocity":34,"Duration":215858,"SoundDuration":215858,"Delta":81545147},{"NoteNumber":42,"Velocity":34,"Duration":10956344,"SoundDuration":10956344,"Delta":81976864},{"NoteNumber":39,"Velocity":34,"Duration":10956344,"SoundDuration":10956344,"Delta":81976864},{"NoteNumber":27,"Velocity":34,"Duration":9976446,"SoundDuration":9976446,"Delta":82460813},{"NoteNumber":46,"Velocity":54,"Duration":122714,"SoundDuration":122714,"Delta":83542089},{"NoteNumber":47,"Velocity":48,"Duration":122714,"SoundDuration":122714,"Delta":83664804},{"NoteNumber":45,"Velocity":46,"Duration":122714,"SoundDuration":122714,"Delta":83787518},{"NoteNumber":46,"Velocity":54,"Duration":368143,"SoundDuration":368143,"Delta":83910233},{"NoteNumber":46,"Velocity":46,"Duration":122714,"SoundDuration":122714,"Delta":84646520},{"NoteNumber":47,"Velocity":40,"Duration":130735,"SoundDuration":130735,"Delta":84769234},{"NoteNumber":45,"Velocity":41,"Duration":130735,"SoundDuration":130735,"Delta":84899970},{"NoteNumber":46,"Velocity":47,"Duration":392207,"SoundDuration":392207,"Delta":85030706},{"NoteNumber":46,"Velocity":34,"Duration":166689,"SoundDuration":166689,"Delta":86607710},{"NoteNumber":47,"Velocity":32,"Duration":166689,"SoundDuration":166689,"Delta":86746619},{"NoteNumber":45,"Velocity":31,"Duration":168109,"SoundDuration":168109,"Delta":86885527},{"NoteNumber":46,"Velocity":35,"Duration":175207,"SoundDuration":175207,"Delta":87024435},{"NoteNumber":47,"Velocity":31,"Duration":178269,"SoundDuration":178269,"Delta":87170442},{"NoteNumber":45,"Velocity":31,"Duration":194379,"SoundDuration":194379,"Delta":87316448},{"NoteNumber":46,"Velocity":41,"Duration":495949,"SoundDuration":495949,"Delta":87477765},{"NoteNumber":46,"Velocity":32,"Duration":2975696,"SoundDuration":2975696,"Delta":89957512}]}