{"title":"Prelude Opus 23 Nr. 3","artist":"Rachmaninoff","durationMs":231401,"midiSha256":"9b5b157843327f387c4603a464986d04f65bfb9bf4a730672b83b98ece52bc8d","midiObject":[{"NoteNumber":58,"Velocity":48,"Duration":1294219,"SoundDuration":1294219,"Delta":0},{"NoteNumber":62,"Velocity":48,"Duration":1294219,"SoundDuration":1294219,"Delta":0},{"NoteNumber":64,"Velocity":48,"Duration":1294219,"SoundDuration":1294219,"Delta":0},{"NoteNumber":70,"Velocity":60,"Duration":1294219,"SoundDuration":1294219,"Delta":0},{"NoteNumber":55,"Velocity":51,"Duration":1294219,"SoundDuration":1294219,"Delta":0},{"NoteNumber":52,"Velocity":40,"Duration":1294219,"SoundDuration":1294219,"Delta":0},{"NoteNumber":50,"Velocity":40,"Duration":1294219,"SoundDuration":1294219,"Delta":0},{"NoteNumber":43,"Velocity":40,"Duration":1294219,"SoundDuration":1294219,"Delta":0},{"NoteNumber":69,"Velocity":54,"Duration":103734,"SoundDuration":103734,"Delta":1294219},{"NoteNumber":64,"Velocity":54,"Duration":103734,"SoundDuration":103734,"Delta":1294219},{"NoteNumber":61,"Velocity":43,"Duration":103734,"SoundDuration":103734,"Delta":1294219},{"NoteNumber":57,"Velocity":43,"Duration":103734,"SoundDuration":103734,"Delta":1294219},{"NoteNumber":52,"Velocity":45,"Duration":103734,"SoundDuration":103734,"Delta":1294219},{"NoteNumber":45,"Velocity":38,"Duration":103734,"SoundDuration":103734,"Delta":1294219},{"NoteNumber":65,"Velocity":54,"Duration":104895,"SoundDuration":104895,"Delta":1709157},{"NoteNumber":62,"Velocity":43,"Duration":104895,"SoundDuration":104895,"Delta":1709157},{"NoteNumber":57,"Velocity":43,"Duration":104895,"SoundDuration":104895,"Delta":1709157},{"NoteNumber":50,"Velocity":45,"Duration":104895,"SoundDuration":104895,"Delta":1709157},{"NoteNumber":38,"Velocity":38,"Duration":104895,"SoundDuration":104895,"Delta":1709157},{"NoteNumber":58,"Velocity":40,"Duration":113122,"SoundDuration":113122,"Delta":2128738},{"NoteNumber":62,"Velocity":40,"Duration":113122,"SoundDuration":113122,"Delta":2128738},{"NoteNumber":67,"Velocity":51,"Duration":113122,"SoundDuration":113122,"Delta":2128738},{"NoteNumber":43,"Velocity":34,"Duration":113122,"SoundDuration":113122,"Delta":2128738},{"NoteNumber":50,"Velocity":41,"Duration":113122,"SoundDuration":113122,"Delta":2128738},{"NoteNumber":57,"Velocity":43,"Duration":640267,"SoundDuration":640267,"Delta":2581226},{"NoteNumber":62,"Velocity":43,"Duration":640267,"SoundDuration":640267,"Delta":2581226},{"NoteNumber":65,"Velocity":54,"Duration":640267,"SoundDuration":640267,"Delta":2581226},{"NoteNumber":38,"Velocity":38,"Duration":645542,"SoundDuration":645542,"Delta":2581226},{"NoteNumber":50,"Velocity":45,"Duration":645542,"SoundDuration":645542,"Delta":2581226},{"NoteNumber":57,"Velocity":43,"Duration":197893,"SoundDuration":197893,"Delta":3226768},{"NoteNumber":62,"Velocity":43,"Duration":197893,"SoundDuration":197893,"Delta":3226768},{"NoteNumber":65,"Velocity":54,"Duration":197893,"SoundDuration":197893,"Delta":3226768},{"NoteNumber":45,"Velocity":53,"Duration":70133,"SoundDuration":70133,"Delta":3226768},{"NoteNumber":47,"Velocity":60,"Duration":69375,"SoundDuration":69375,"Delta":3296901},{"NoteNumber":49,"Velocity":64,"Duration":68638,"SoundDuration":68638,"Delta":3366277},{"NoteNumber":57,"Velocity":43,"Duration":814664,"SoundDuration":814664,"Delta":3434916},{"NoteNumber":62,"Velocity":43,"Duration":814664,"SoundDuration":814664,"Delta":3434916},{"NoteNumber":65,"Velocity":54,"Duration":814664,"SoundDuration":814664,"Delta":3434916},{"NoteNumber":50,"Velocity":68,"Duration":101833,"SoundDuration":101833,"Delta":3434916},{"NoteNumber":48,"Velocity":55,"Duration":101832,"SoundDuration":101832,"Delta":3638582},{"NoteNumber":46,"Velocity":41,"Duration":101833,"SoundDuration":101833,"Delta":3842248},{"NoteNumber":45,"Velocity":45,"Duration":101833,"SoundDuration":101833,"Delta":4045914},{"NoteNumber":46,"Velocity":39,"Duration":103263,"SoundDuration":103263,"Delta":4249580},{"NoteNumber":45,"Velocity":45,"Duration":102852,"SoundDuration":102852,"Delta":4456106},{"NoteNumber":43,"Velocity":44,"Duration":104452,"SoundDuration":104452,"Delta":4660041},{"NoteNumber":41,"Velocity":44,"Duration":126518,"SoundDuration":126518,"Delta":4872713},{"NoteNumber":57,"Velocity":48,"Duration":1294219,"SoundDuration":1294219,"Delta":5125749},{"NoteNumber":60,"Velocity":48,"Duration":1294219,"SoundDuration":1294219,"Delta":5125749},{"NoteNumber":65,"Velocity":48,"Duration":1294219,"SoundDuration":1294219,"Delta":5125749},{"NoteNumber":69,"Velocity":60,"Duration":1294219,"SoundDuration":1294219,"Delta":5125749},{"NoteNumber":53,"Velocity":51,"Duration":1294219,"SoundDuration":1294219,"Delta":5125749},{"NoteNumber":48,"Velocity":40,"Duration":1294219,"SoundDuration":1294219,"Delta":5125749},{"NoteNumber":41,"Velocity":40,"Duration":1294219,"SoundDuration":1294219,"Delta":5125749},{"NoteNumber":67,"Velocity":54,"Duration":103734,"SoundDuration":103734,"Delta":6419969},{"NoteNumber":62,"Velocity":54,"Duration":103734,"SoundDuration":103734,"Delta":6419969},{"NoteNumber":58,"Velocity":43,"Duration":103734,"SoundDuration":103734,"Delta":6419969},{"NoteNumber":55,"Velocity":43,"Duration":103734,"SoundDuration":103734,"Delta":6419969},{"NoteNumber":50,"Velocity":45,"Duration":103734,"SoundDuration":103734,"Delta":6419969},{"NoteNumber":43,"Velocity":38,"Duration":103734,"SoundDuration":103734,"Delta":6419969},{"NoteNumber":61,"Velocity":43,"Duration":104166,"SoundDuration":104166,"Delta":6834907},{"NoteNumber":64,"Velocity":54,"Duration":104166,"SoundDuration":104166,"Delta":6834907},{"NoteNumber":57,"Velocity":43,"Duration":104166,"SoundDuration":104166,"Delta":6834907},{"NoteNumber":52,"Velocity":43,"Duration":104166,"SoundDuration":104166,"Delta":6834907},{"NoteNumber":45,"Velocity":45,"Duration":104166,"SoundDuration":104166,"Delta":6834907},{"NoteNumber":57,"Velocity":40,"Duration":111441,"SoundDuration":111441,"Delta":7251573},{"NoteNumber":53,"Velocity":40,"Duration":111441,"SoundDuration":111441,"Delta":7251573},{"NoteNumber":62,"Velocity":40,"Duration":111441,"SoundDuration":111441,"Delta":7251573},{"NoteNumber":65,"Velocity":51,"Duration":111441,"SoundDuration":111441,"Delta":7251573},{"NoteNumber":38,"Velocity":34,"Duration":111441,"SoundDuration":111441,"Delta":7251573},{"NoteNumber":45,"Velocity":41,"Duration":111441,"SoundDuration":111441,"Delta":7251573},{"NoteNumber":52,"Velocity":43,"Duration":640156,"SoundDuration":640156,"Delta":7697338},{"NoteNumber":57,"Velocity":43,"Duration":640156,"SoundDuration":640156,"Delta":7697338},{"NoteNumber":61,"Velocity":43,"Duration":640156,"SoundDuration":640156,"Delta":7697338},{"NoteNumber":64,"Velocity":54,"Duration":640156,"SoundDuration":640156,"Delta":7697338},{"NoteNumber":33,"Velocity":38,"Duration":645470,"SoundDuration":645470,"Delta":7697338},{"NoteNumber":45,"Velocity":45,"Duration":645470,"SoundDuration":645470,"Delta":7697338},{"NoteNumber":52,"Velocity":43,"Duration":199230,"SoundDuration":199230,"Delta":8342808},{"NoteNumber":57,"Velocity":43,"Duration":199230,"SoundDuration":199230,"Delta":8342808},{"NoteNumber":61,"Velocity":43,"Duration":199230,"SoundDuration":199230,"Delta":8342808},{"NoteNumber":64,"Velocity":54,"Duration":199230,"SoundDuration":199230,"Delta":8342808},{"NoteNumber":40,"Velocity":53,"Duration":70398,"SoundDuration":70398,"Delta":8342808},{"NoteNumber":41,"Velocity":60,"Duration":69869,"SoundDuration":69869,"Delta":8413206},{"NoteNumber":43,"Velocity":64,"Duration":69363,"SoundDuration":69363,"Delta":8483076},{"NoteNumber":52,"Velocity":43,"Duration":826105,"SoundDuration":826105,"Delta":8552440},{"NoteNumber":57,"Velocity":43,"Duration":826105,"SoundDuration":826105,"Delta":8552440},{"NoteNumber":61,"Velocity":43,"Duration":826105,"SoundDuration":826105,"Delta":8552440},{"NoteNumber":64,"Velocity":54,"Duration":826105,"SoundDuration":826105,"Delta":8552440},{"NoteNumber":45,"Velocity":68,"Duration":103263,"SoundDuration":103263,"Delta":8552440},{"NoteNumber":43,"Velocity":55,"Duration":103263,"SoundDuration":103263,"Delta":8758966},{"NoteNumber":41,"Velocity":41,"Duration":103263,"SoundDuration":103263,"Delta":8965492},{"NoteNumber":40,"Velocity":45,"Duration":103263,"SoundDuration":103263,"Delta":9172018},{"NoteNumber":41,"Velocity":39,"Duration":103263,"SoundDuration":103263,"Delta":9378545},{"NoteNumber":40,"Velocity":45,"Duration":104651,"SoundDuration":104651,"Delta":9585605},{"NoteNumber":38,"Velocity":44,"Duration":106677,"SoundDuration":106677,"Delta":9796131},{"NoteNumber":37,"Velocity":44,"Duration":110554,"SoundDuration":110554,"Delta":10010753},{"NoteNumber":53,"Velocity":38,"Duration":103263,"SoundDuration":103263,"Delta":10231861},{"NoteNumber":62,"Velocity":45,"Duration":103263,"SoundDuration":103263,"Delta":10231861},{"NoteNumber":38,"Velocity":33,"Duration":103263,"SoundDuration":103263,"Delta":10231861},{"NoteNumber":53,"Velocity":34,"Duration":1239658,"SoundDuration":1239658,"Delta":10644914},{"NoteNumber":62,"Velocity":34,"Duration":216668,"SoundDuration":216668,"Delta":10644914},{"NoteNumber":65,"Velocity":40,"Duration":216668,"SoundDuration":216668,"Delta":10644914},{"NoteNumber":46,"Velocity":53,"Duration":840669,"SoundDuration":840669,"Delta":10644914},{"NoteNumber":34,"Velocity":45,"Duration":840669,"SoundDuration":840669,"Delta":10644914},{"NoteNumber":64,"Velocity":44,"Duration":216668,"SoundDuration":216668,"Delta":10861583},{"NoteNumber":61,"Velocity":37,"Duration":216668,"SoundDuration":216668,"Delta":10861583},{"NoteNumber":65,"Velocity":57,"Duration":1199519,"SoundDuration":1199519,"Delta":11078252},{"NoteNumber":62,"Velocity":48,"Duration":1199519,"SoundDuration":1199519,"Delta":11078252},{"NoteNumber":45,"Velocity":35,"Duration":99747,"SoundDuration":99747,"Delta":11485584},{"NoteNumber":33,"Velocity":29,"Duration":99747,"SoundDuration":99747,"Delta":11485584},{"NoteNumber":58,"Velocity":46,"Duration":190331,"SoundDuration":190331,"Delta":11884573},{"NoteNumber":29,"Velocity":32,"Duration":95165,"SoundDuration":95165,"Delta":11884573},{"NoteNumber":41,"Velocity":38,"Duration":95165,"SoundDuration":95165,"Delta":11884573},{"NoteNumber":57,"Velocity":40,"Duration":202867,"SoundDuration":202867,"Delta":12074904},{"NoteNumber":53,"Velocity":41,"Duration":202867,"SoundDuration":202867,"Delta":12277771},{"NoteNumber":58,"Velocity":36,"Duration":101433,"SoundDuration":101433,"Delta":12277771},{"NoteNumber":61,"Velocity":44,"Duration":101433,"SoundDuration":101433,"Delta":12277771},{"NoteNumber":43,"Velocity":35,"Duration":101433,"SoundDuration":101433,"Delta":12277771},{"NoteNumber":31,"Velocity":29,"Duration":101433,"SoundDuration":101433,"Delta":12277771},{"NoteNumber":55,"Velocity":40,"Duration":217928,"SoundDuration":217928,"Delta":12480639},{"NoteNumber":57,"Velocity":39,"Duration":104748,"SoundDuration":104748,"Delta":12698567},{"NoteNumber":53,"Velocity":39,"Duration":104748,"SoundDuration":104748,"Delta":12698567},{"NoteNumber":62,"Velocity":46,"Duration":104748,"SoundDuration":104748,"Delta":12698567},{"NoteNumber":45,"Velocity":33,"Duration":104748,"SoundDuration":104748,"Delta":12698567},{"NoteNumber":38,"Velocity":33,"Duration":104748,"SoundDuration":104748,"Delta":12698567},{"NoteNumber":53,"Velocity":34,"Duration":1269588,"SoundDuration":1269588,"Delta":13117561},{"NoteNumber":62,"Velocity":34,"Duration":221631,"SoundDuration":221631,"Delta":13117561},{"NoteNumber":65,"Velocity":40,"Duration":221631,"SoundDuration":221631,"Delta":13117561},{"NoteNumber":46,"Velocity":41,"Duration":862256,"SoundDuration":862256,"Delta":13117561},{"NoteNumber":34,"Velocity":34,"Duration":862256,"SoundDuration":862256,"Delta":13117561},{"NoteNumber":64,"Velocity":44,"Duration":221631,"SoundDuration":221631,"Delta":13339193},{"NoteNumber":61,"Velocity":37,"Duration":221631,"SoundDuration":221631,"Delta":13339193},{"NoteNumber":65,"Velocity":57,"Duration":1219269,"SoundDuration":1219269,"Delta":13560824},{"NoteNumber":62,"Velocity":48,"Duration":1219269,"SoundDuration":1219269,"Delta":13560824},{"NoteNumber":45,"Velocity":35,"Duration":101832,"SoundDuration":101832,"Delta":13979818},{"NoteNumber":33,"Velocity":29,"Duration":101832,"SoundDuration":101832,"Delta":13979818},{"NoteNumber":58,"Velocity":46,"Duration":192702,"SoundDuration":192702,"Delta":14387150},{"NoteNumber":29,"Velocity":32,"Duration":96351,"SoundDuration":96351,"Delta":14387150},{"NoteNumber":41,"Velocity":38,"Duration":96351,"SoundDuration":96351,"Delta":14387150},{"NoteNumber":57,"Velocity":40,"Duration":200240,"SoundDuration":200240,"Delta":14579853},{"NoteNumber":53,"Velocity":41,"Duration":211267,"SoundDuration":211267,"Delta":14780094},{"NoteNumber":58,"Velocity":36,"Duration":105633,"SoundDuration":105633,"Delta":14780094},{"NoteNumber":61,"Velocity":44,"Duration":105633,"SoundDuration":105633,"Delta":14780094},{"NoteNumber":43,"Velocity":35,"Duration":105633,"SoundDuration":105633,"Delta":14780094},{"NoteNumber":31,"Velocity":29,"Duration":105633,"SoundDuration":105633,"Delta":14780094},{"NoteNumber":55,"Velocity":40,"Duration":224315,"SoundDuration":224315,"Delta":14991361},{"NoteNumber":57,"Velocity":39,"Duration":104007,"SoundDuration":104007,"Delta":15215677},{"NoteNumber":53,"Velocity":39,"Duration":104007,"SoundDuration":104007,"Delta":15215677},{"NoteNumber":62,"Velocity":46,"Duration":104007,"SoundDuration":104007,"Delta":15215677},{"NoteNumber":45,"Velocity":33,"Duration":104007,"SoundDuration":104007,"Delta":15215677},{"NoteNumber":38,"Velocity":33,"Duration":104007,"SoundDuration":104007,"Delta":15215677},{"NoteNumber":64,"Velocity":54,"Duration":100441,"SoundDuration":100441,"Delta":15631708},{"NoteNumber":57,"Velocity":45,"Duration":100441,"SoundDuration":100441,"Delta":15631708},{"NoteNumber":55,"Velocity":45,"Duration":100441,"SoundDuration":100441,"Delta":15631708},{"NoteNumber":50,"Velocity":43,"Duration":200884,"SoundDuration":200884,"Delta":15631708},{"NoteNumber":49,"Velocity":41,"Duration":200884,"SoundDuration":200884,"Delta":15832592},{"NoteNumber":65,"Velocity":61,"Duration":1189779,"SoundDuration":1189779,"Delta":16033476},{"NoteNumber":57,"Velocity":50,"Duration":1189779,"SoundDuration":1189779,"Delta":16033476},{"NoteNumber":53,"Velocity":50,"Duration":1189779,"SoundDuration":1189779,"Delta":16033476},{"NoteNumber":50,"Velocity":54,"Duration":149045,"SoundDuration":149045,"Delta":16033476},{"NoteNumber":49,"Velocity":49,"Duration":148612,"SoundDuration":148612,"Delta":16232059},{"NoteNumber":50,"Velocity":52,"Duration":148612,"SoundDuration":148612,"Delta":16430210},{"NoteNumber":49,"Velocity":57,"Duration":148612,"SoundDuration":148612,"Delta":16628360},{"NoteNumber":50,"Velocity":66,"Duration":197508,"SoundDuration":197508,"Delta":16826511},{"NoteNumber":48,"Velocity":56,"Duration":199236,"SoundDuration":199236,"Delta":17024019},{"NoteNumber":60,"Velocity":45,"Duration":407343,"SoundDuration":407343,"Delta":17223256},{"NoteNumber":62,"Velocity":45,"Duration":407343,"SoundDuration":407343,"Delta":17223256},{"NoteNumber":66,"Velocity":54,"Duration":407343,"SoundDuration":407343,"Delta":17223256},{"NoteNumber":46,"Velocity":61,"Duration":202316,"SoundDuration":202316,"Delta":17223256},{"NoteNumber":45,"Velocity":45,"Duration":205027,"SoundDuration":205027,"Delta":17425572},{"NoteNumber":67,"Velocity":60,"Duration":417968,"SoundDuration":417968,"Delta":17630599},{"NoteNumber":62,"Velocity":51,"Duration":417968,"SoundDuration":417968,"Delta":17630599},{"NoteNumber":58,"Velocity":51,"Duration":417968,"SoundDuration":417968,"Delta":17630599},{"NoteNumber":43,"Velocity":45,"Duration":202265,"SoundDuration":202265,"Delta":17630599},{"NoteNumber":41,"Velocity":37,"Duration":215703,"SoundDuration":215703,"Delta":17832865},{"NoteNumber":68,"Velocity":56,"Duration":201531,"SoundDuration":201531,"Delta":18048568},{"NoteNumber":62,"Velocity":47,"Duration":418828,"SoundDuration":418828,"Delta":18048568},{"NoteNumber":59,"Velocity":47,"Duration":418828,"SoundDuration":418828,"Delta":18048568},{"NoteNumber":40,"Velocity":45,"Duration":418828,"SoundDuration":418828,"Delta":18048568},{"NoteNumber":69,"Velocity":54,"Duration":217296,"SoundDuration":217296,"Delta":18250100},{"NoteNumber":68,"Velocity":63,"Duration":920809,"SoundDuration":920809,"Delta":18467396},{"NoteNumber":62,"Velocity":53,"Duration":920809,"SoundDuration":920809,"Delta":18467396},{"NoteNumber":59,"Velocity":53,"Duration":920809,"SoundDuration":920809,"Delta":18467396},{"NoteNumber":45,"Velocity":35,"Duration":1900401,"SoundDuration":1900401,"Delta":18467396},{"NoteNumber":53,"Velocity":45,"Duration":920809,"SoundDuration":920809,"Delta":18467396},{"NoteNumber":57,"Velocity":45,"Duration":979592,"SoundDuration":979592,"Delta":19388206},{"NoteNumber":61,"Velocity":45,"Duration":979592,"SoundDuration":979592,"Delta":19388206},{"NoteNumber":69,"Velocity":54,"Duration":979592,"SoundDuration":979592,"Delta":19388206},{"NoteNumber":52,"Velocity":38,"Duration":979592,"SoundDuration":979592,"Delta":19388206},{"NoteNumber":58,"Velocity":48,"Duration":1294219,"SoundDuration":1294219,"Delta":20367798},{"NoteNumber":62,"Velocity":48,"Duration":1294219,"SoundDuration":1294219,"Delta":20367798},{"NoteNumber":64,"Velocity":48,"Duration":1294219,"SoundDuration":1294219,"Delta":20367798},{"NoteNumber":70,"Velocity":60,"Duration":1294219,"SoundDuration":1294219,"Delta":20367798},{"NoteNumber":55,"Velocity":51,"Duration":1294219,"SoundDuration":1294219,"Delta":20367798},{"NoteNumber":52,"Velocity":40,"Duration":1294219,"SoundDuration":1294219,"Delta":20367798},{"NoteNumber":50,"Velocity":40,"Duration":1294219,"SoundDuration":1294219,"Delta":20367798},{"NoteNumber":43,"Velocity":40,"Duration":1294219,"SoundDuration":1294219,"Delta":20367798},{"NoteNumber":69,"Velocity":54,"Duration":103021,"SoundDuration":103021,"Delta":21662018},{"NoteNumber":64,"Velocity":54,"Duration":103021,"SoundDuration":103021,"Delta":21662018},{"NoteNumber":61,"Velocity":43,"Duration":103021,"SoundDuration":103021,"Delta":21662018},{"NoteNumber":57,"Velocity":43,"Duration":103021,"SoundDuration":103021,"Delta":21662018},{"NoteNumber":52,"Velocity":45,"Duration":103021,"SoundDuration":103021,"Delta":21662018},{"NoteNumber":45,"Velocity":38,"Duration":103021,"SoundDuration":103021,"Delta":21662018},{"NoteNumber":65,"Velocity":54,"Duration":103448,"SoundDuration":103448,"Delta":22074106},{"NoteNumber":62,"Velocity":43,"Duration":103448,"SoundDuration":103448,"Delta":22074106},{"NoteNumber":57,"Velocity":43,"Duration":103448,"SoundDuration":103448,"Delta":22074106},{"NoteNumber":50,"Velocity":45,"Duration":103448,"SoundDuration":103448,"Delta":22074106},{"NoteNumber":58,"Velocity":40,"Duration":111441,"SoundDuration":111441,"Delta":22487899},{"NoteNumber":62,"Velocity":40,"Duration":111441,"SoundDuration":111441,"Delta":22487899},{"NoteNumber":67,"Velocity":51,"Duration":111441,"SoundDuration":111441,"Delta":22487899},{"NoteNumber":43,"Velocity":34,"Duration":111441,"SoundDuration":111441,"Delta":22487899},{"NoteNumber":50,"Velocity":41,"Duration":111441,"SoundDuration":111441,"Delta":22487899},{"NoteNumber":57,"Velocity":43,"Duration":640267,"SoundDuration":640267,"Delta":22933664},{"NoteNumber":62,"Velocity":43,"Duration":640267,"SoundDuration":640267,"Delta":22933664},{"NoteNumber":65,"Velocity":54,"Duration":640267,"SoundDuration":640267,"Delta":22933664},{"NoteNumber":38,"Velocity":38,"Duration":645542,"SoundDuration":645542,"Delta":22933664},{"NoteNumber":50,"Velocity":45,"Duration":645542,"SoundDuration":645542,"Delta":22933664},{"NoteNumber":57,"Velocity":43,"Duration":197893,"SoundDuration":197893,"Delta":23579206},{"NoteNumber":62,"Velocity":43,"Duration":197893,"SoundDuration":197893,"Delta":23579206},{"NoteNumber":65,"Velocity":54,"Duration":197893,"SoundDuration":197893,"Delta":23579206},{"NoteNumber":45,"Velocity":53,"Duration":70133,"SoundDuration":70133,"Delta":23579206},{"NoteNumber":47,"Velocity":60,"Duration":69375,"SoundDuration":69375,"Delta":23649339},{"NoteNumber":49,"Velocity":64,"Duration":68638,"SoundDuration":68638,"Delta":23718715},{"NoteNumber":57,"Velocity":43,"Duration":814664,"SoundDuration":814664,"Delta":23787354},{"NoteNumber":62,"Velocity":43,"Duration":814664,"SoundDuration":814664,"Delta":23787354},{"NoteNumber":65,"Velocity":54,"Duration":814664,"SoundDuration":814664,"Delta":23787354},{"NoteNumber":50,"Velocity":68,"Duration":101832,"SoundDuration":101832,"Delta":23787354},{"NoteNumber":48,"Velocity":55,"Duration":101833,"SoundDuration":101833,"Delta":23991020},{"NoteNumber":46,"Velocity":41,"Duration":101832,"SoundDuration":101832,"Delta":24194686},{"NoteNumber":45,"Velocity":45,"Duration":101833,"SoundDuration":101833,"Delta":24398352},{"NoteNumber":46,"Velocity":39,"Duration":103263,"SoundDuration":103263,"Delta":24602018},{"NoteNumber":45,"Velocity":45,"Duration":102852,"SoundDuration":102852,"Delta":24808544},{"NoteNumber":43,"Velocity":44,"Duration":104452,"SoundDuration":104452,"Delta":25012479},{"NoteNumber":41,"Velocity":44,"Duration":126518,"SoundDuration":126518,"Delta":25225151},{"NoteNumber":57,"Velocity":48,"Duration":1294219,"SoundDuration":1294219,"Delta":25478187},{"NoteNumber":60,"Velocity":48,"Duration":1294219,"SoundDuration":1294219,"Delta":25478187},{"NoteNumber":63,"Velocity":48,"Duration":1294219,"SoundDuration":1294219,"Delta":25478187},{"NoteNumber":69,"Velocity":60,"Duration":1294219,"SoundDuration":1294219,"Delta":25478187},{"NoteNumber":51,"Velocity":51,"Duration":1294219,"SoundDuration":1294219,"Delta":25478187},{"NoteNumber":42,"Velocity":40,"Duration":1294219,"SoundDuration":1294219,"Delta":25478187},{"NoteNumber":67,"Velocity":54,"Duration":104456,"SoundDuration":104456,"Delta":26772407},{"NoteNumber":62,"Velocity":54,"Duration":104456,"SoundDuration":104456,"Delta":26772407},{"NoteNumber":58,"Velocity":43,"Duration":104456,"SoundDuration":104456,"Delta":26772407},{"NoteNumber":55,"Velocity":43,"Duration":104456,"SoundDuration":104456,"Delta":26772407},{"NoteNumber":50,"Velocity":45,"Duration":104456,"SoundDuration":104456,"Delta":26772407},{"NoteNumber":43,"Velocity":38,"Duration":104456,"SoundDuration":104456,"Delta":26772407},{"NoteNumber":61,"Velocity":43,"Duration":104895,"SoundDuration":104895,"Delta":27190234},{"NoteNumber":64,"Velocity":54,"Duration":104895,"SoundDuration":104895,"Delta":27190234},{"NoteNumber":57,"Velocity":43,"Duration":104895,"SoundDuration":104895,"Delta":27190234},{"NoteNumber":52,"Velocity":43,"Duration":104895,"SoundDuration":104895,"Delta":27190234},{"NoteNumber":45,"Velocity":45,"Duration":104895,"SoundDuration":104895,"Delta":27190234},{"NoteNumber":57,"Velocity":40,"Duration":111441,"SoundDuration":111441,"Delta":27609815},{"NoteNumber":53,"Velocity":40,"Duration":111441,"SoundDuration":111441,"Delta":27609815},{"NoteNumber":62,"Velocity":40,"Duration":111441,"SoundDuration":111441,"Delta":27609815},{"NoteNumber":65,"Velocity":51,"Duration":111441,"SoundDuration":111441,"Delta":27609815},{"NoteNumber":38,"Velocity":34,"Duration":111441,"SoundDuration":111441,"Delta":27609815},{"NoteNumber":45,"Velocity":41,"Duration":111441,"SoundDuration":111441,"Delta":27609815},{"NoteNumber":52,"Velocity":43,"Duration":640156,"SoundDuration":640156,"Delta":28055580},{"NoteNumber":57,"Velocity":43,"Duration":640156,"SoundDuration":640156,"Delta":28055580},{"NoteNumber":61,"Velocity":43,"Duration":640156,"SoundDuration":640156,"Delta":28055580},{"NoteNumber":64,"Velocity":54,"Duration":640156,"SoundDuration":640156,"Delta":28055580},{"NoteNumber":33,"Velocity":38,"Duration":645470,"SoundDuration":645470,"Delta":28055580},{"NoteNumber":45,"Velocity":45,"Duration":645470,"SoundDuration":645470,"Delta":28055580},{"NoteNumber":52,"Velocity":43,"Duration":199230,"SoundDuration":199230,"Delta":28701050},{"NoteNumber":57,"Velocity":43,"Duration":199230,"SoundDuration":199230,"Delta":28701050},{"NoteNumber":61,"Velocity":43,"Duration":199230,"SoundDuration":199230,"Delta":28701050},{"NoteNumber":64,"Velocity":54,"Duration":199230,"SoundDuration":199230,"Delta":28701050},{"NoteNumber":40,"Velocity":53,"Duration":70398,"SoundDuration":70398,"Delta":28701050},{"NoteNumber":41,"Velocity":60,"Duration":69869,"SoundDuration":69869,"Delta":28771448},{"NoteNumber":43,"Velocity":64,"Duration":69363,"SoundDuration":69363,"Delta":28841318},{"NoteNumber":52,"Velocity":43,"Duration":826105,"SoundDuration":826105,"Delta":28910681},{"NoteNumber":57,"Velocity":43,"Duration":826105,"SoundDuration":826105,"Delta":28910681},{"NoteNumber":61,"Velocity":43,"Duration":826105,"SoundDuration":826105,"Delta":28910681},{"NoteNumber":64,"Velocity":54,"Duration":826105,"SoundDuration":826105,"Delta":28910681},{"NoteNumber":45,"Velocity":68,"Duration":103263,"SoundDuration":103263,"Delta":28910681},{"NoteNumber":43,"Velocity":55,"Duration":103263,"SoundDuration":103263,"Delta":29117207},{"NoteNumber":41,"Velocity":41,"Duration":103263,"SoundDuration":103263,"Delta":29323734},{"NoteNumber":40,"Velocity":45,"Duration":103263,"SoundDuration":103263,"Delta":29530260},{"NoteNumber":41,"Velocity":39,"Duration":103263,"SoundDuration":103263,"Delta":29736786},{"NoteNumber":40,"Velocity":45,"Duration":104651,"SoundDuration":104651,"Delta":29943846},{"NoteNumber":38,"Velocity":44,"Duration":106677,"SoundDuration":106677,"Delta":30154373},{"NoteNumber":37,"Velocity":44,"Duration":110554,"SoundDuration":110554,"Delta":30368994},{"NoteNumber":53,"Velocity":38,"Duration":103263,"SoundDuration":103263,"Delta":30590103},{"NoteNumber":62,"Velocity":45,"Duration":103263,"SoundDuration":103263,"Delta":30590103},{"NoteNumber":38,"Velocity":33,"Duration":103263,"SoundDuration":103263,"Delta":30590103},{"NoteNumber":53,"Velocity":34,"Duration":1236428,"SoundDuration":1236428,"Delta":31003155},{"NoteNumber":62,"Velocity":34,"Duration":215053,"SoundDuration":215053,"Delta":31003155},{"NoteNumber":65,"Velocity":40,"Duration":215053,"SoundDuration":215053,"Delta":31003155},{"NoteNumber":46,"Velocity":53,"Duration":837439,"SoundDuration":837439,"Delta":31003155},{"NoteNumber":34,"Velocity":45,"Duration":837439,"SoundDuration":837439,"Delta":31003155},{"NoteNumber":64,"Velocity":44,"Duration":215053,"SoundDuration":215053,"Delta":31218209},{"NoteNumber":61,"Velocity":37,"Duration":215053,"SoundDuration":215053,"Delta":31218209},{"NoteNumber":65,"Velocity":57,"Duration":1201397,"SoundDuration":1201397,"Delta":31433263},{"NoteNumber":62,"Velocity":48,"Duration":1201397,"SoundDuration":1201397,"Delta":31433263},{"NoteNumber":45,"Velocity":35,"Duration":99747,"SoundDuration":99747,"Delta":31840595},{"NoteNumber":33,"Velocity":29,"Duration":99747,"SoundDuration":99747,"Delta":31840595},{"NoteNumber":58,"Velocity":46,"Duration":192208,"SoundDuration":192208,"Delta":32239584},{"NoteNumber":29,"Velocity":32,"Duration":96104,"SoundDuration":96104,"Delta":32239584},{"NoteNumber":41,"Velocity":38,"Duration":96104,"SoundDuration":96104,"Delta":32239584},{"NoteNumber":57,"Velocity":40,"Duration":202867,"SoundDuration":202867,"Delta":32431793},{"NoteNumber":53,"Velocity":41,"Duration":202867,"SoundDuration":202867,"Delta":32634660},{"NoteNumber":58,"Velocity":36,"Duration":101433,"SoundDuration":101433,"Delta":32634660},{"NoteNumber":61,"Velocity":44,"Duration":101433,"SoundDuration":101433,"Delta":32634660},{"NoteNumber":43,"Velocity":35,"Duration":101433,"SoundDuration":101433,"Delta":32634660},{"NoteNumber":31,"Velocity":29,"Duration":101433,"SoundDuration":101433,"Delta":32634660},{"NoteNumber":55,"Velocity":40,"Duration":217928,"SoundDuration":217928,"Delta":32837527},{"NoteNumber":57,"Velocity":39,"Duration":200240,"SoundDuration":200240,"Delta":33055456},{"NoteNumber":53,"Velocity":39,"Duration":395400,"SoundDuration":395400,"Delta":33055456},{"NoteNumber":62,"Velocity":48,"Duration":200240,"SoundDuration":200240,"Delta":33055456},{"NoteNumber":45,"Velocity":33,"Duration":100120,"SoundDuration":100120,"Delta":33055456},{"NoteNumber":38,"Velocity":33,"Duration":100120,"SoundDuration":100120,"Delta":33055456},{"NoteNumber":64,"Velocity":58,"Duration":195160,"SoundDuration":195160,"Delta":33255696},{"NoteNumber":61,"Velocity":49,"Duration":195160,"SoundDuration":195160,"Delta":33255696},{"NoteNumber":53,"Velocity":45,"Duration":1219923,"SoundDuration":1219923,"Delta":33450856},{"NoteNumber":62,"Velocity":45,"Duration":196798,"SoundDuration":196798,"Delta":33450856},{"NoteNumber":65,"Velocity":54,"Duration":196798,"SoundDuration":196798,"Delta":33450856},{"NoteNumber":46,"Velocity":63,"Duration":812591,"SoundDuration":812591,"Delta":33450856},{"NoteNumber":34,"Velocity":53,"Duration":812591,"SoundDuration":812591,"Delta":33450856},{"NoteNumber":64,"Velocity":58,"Duration":196798,"SoundDuration":196798,"Delta":33647655},{"NoteNumber":61,"Velocity":49,"Duration":196798,"SoundDuration":196798,"Delta":33647655},{"NoteNumber":65,"Velocity":70,"Duration":1219269,"SoundDuration":1219269,"Delta":33844453},{"NoteNumber":62,"Velocity":59,"Duration":1219269,"SoundDuration":1219269,"Delta":33844453},{"NoteNumber":45,"Velocity":35,"Duration":101832,"SoundDuration":101832,"Delta":34263448},{"NoteNumber":33,"Velocity":29,"Duration":101832,"SoundDuration":101832,"Delta":34263448},{"NoteNumber":58,"Velocity":46,"Duration":192703,"SoundDuration":192703,"Delta":34670780},{"NoteNumber":29,"Velocity":32,"Duration":96351,"SoundDuration":96351,"Delta":34670780},{"NoteNumber":41,"Velocity":38,"Duration":96351,"SoundDuration":96351,"Delta":34670780},{"NoteNumber":57,"Velocity":40,"Duration":200240,"SoundDuration":200240,"Delta":34863483},{"NoteNumber":53,"Velocity":41,"Duration":211267,"SoundDuration":211267,"Delta":35063723},{"NoteNumber":58,"Velocity":36,"Duration":105633,"SoundDuration":105633,"Delta":35063723},{"NoteNumber":61,"Velocity":44,"Duration":105633,"SoundDuration":105633,"Delta":35063723},{"NoteNumber":43,"Velocity":35,"Duration":105633,"SoundDuration":105633,"Delta":35063723},{"NoteNumber":31,"Velocity":29,"Duration":105633,"SoundDuration":105633,"Delta":35063723},{"NoteNumber":55,"Velocity":40,"Duration":224315,"SoundDuration":224315,"Delta":35274991},{"NoteNumber":57,"Velocity":39,"Duration":104007,"SoundDuration":104007,"Delta":35499306},{"NoteNumber":53,"Velocity":39,"Duration":104007,"SoundDuration":104007,"Delta":35499306},{"NoteNumber":62,"Velocity":46,"Duration":104007,"SoundDuration":104007,"Delta":35499306},{"NoteNumber":45,"Velocity":33,"Duration":104007,"SoundDuration":104007,"Delta":35499306},{"NoteNumber":38,"Velocity":33,"Duration":104007,"SoundDuration":104007,"Delta":35499306},{"NoteNumber":45,"Velocity":53,"Duration":70133,"SoundDuration":70133,"Delta":35707322},{"NoteNumber":47,"Velocity":60,"Duration":69375,"SoundDuration":69375,"Delta":35777455},{"NoteNumber":49,"Velocity":64,"Duration":68638,"SoundDuration":68638,"Delta":35846830},{"NoteNumber":64,"Velocity":54,"Duration":102543,"SoundDuration":102543,"Delta":35915469},{"NoteNumber":57,"Velocity":45,"Duration":102543,"SoundDuration":102543,"Delta":35915469},{"NoteNumber":55,"Velocity":45,"Duration":102543,"SoundDuration":102543,"Delta":35915469},{"NoteNumber":50,"Velocity":68,"Duration":102543,"SoundDuration":102543,"Delta":35915469},{"NoteNumber":49,"Velocity":54,"Duration":102543,"SoundDuration":102543,"Delta":36120556},{"NoteNumber":65,"Velocity":61,"Duration":1190445,"SoundDuration":1190445,"Delta":36325642},{"NoteNumber":57,"Velocity":50,"Duration":1190445,"SoundDuration":1190445,"Delta":36325642},{"NoteNumber":53,"Velocity":50,"Duration":1190445,"SoundDuration":1190445,"Delta":36325642},{"NoteNumber":50,"Velocity":54,"Duration":149711,"SoundDuration":149711,"Delta":36325642},{"NoteNumber":49,"Velocity":49,"Duration":148612,"SoundDuration":148612,"Delta":36524890},{"NoteNumber":50,"Velocity":52,"Duration":148612,"SoundDuration":148612,"Delta":36723041},{"NoteNumber":49,"Velocity":57,"Duration":148612,"SoundDuration":148612,"Delta":36921191},{"NoteNumber":50,"Velocity":66,"Duration":197508,"SoundDuration":197508,"Delta":37119342},{"NoteNumber":48,"Velocity":56,"Duration":199236,"SoundDuration":199236,"Delta":37316850},{"NoteNumber":60,"Velocity":45,"Duration":407343,"SoundDuration":407343,"Delta":37516087},{"NoteNumber":62,"Velocity":45,"Duration":407343,"SoundDuration":407343,"Delta":37516087},{"NoteNumber":66,"Velocity":54,"Duration":407343,"SoundDuration":407343,"Delta":37516087},{"NoteNumber":46,"Velocity":61,"Duration":202316,"SoundDuration":202316,"Delta":37516087},{"NoteNumber":45,"Velocity":45,"Duration":205027,"SoundDuration":205027,"Delta":37718404},{"NoteNumber":67,"Velocity":60,"Duration":417968,"SoundDuration":417968,"Delta":37923431},{"NoteNumber":62,"Velocity":51,"Duration":417968,"SoundDuration":417968,"Delta":37923431},{"NoteNumber":58,"Velocity":51,"Duration":417968,"SoundDuration":417968,"Delta":37923431},{"NoteNumber":43,"Velocity":45,"Duration":202265,"SoundDuration":202265,"Delta":37923431},{"NoteNumber":40,"Velocity":37,"Duration":214135,"SoundDuration":214135,"Delta":38102098},{"NoteNumber":69,"Velocity":56,"Duration":502736,"SoundDuration":502736,"Delta":38341399},{"NoteNumber":62,"Velocity":47,"Duration":502736,"SoundDuration":502736,"Delta":38341399},{"NoteNumber":57,"Velocity":47,"Duration":502736,"SoundDuration":502736,"Delta":38341399},{"NoteNumber":41,"Velocity":45,"Duration":502736,"SoundDuration":502736,"Delta":38341399},{"NoteNumber":73,"Velocity":63,"Duration":1038061,"SoundDuration":1038061,"Delta":38844136},{"NoteNumber":67,"Velocity":53,"Duration":1038061,"SoundDuration":1038061,"Delta":38844136},{"NoteNumber":61,"Velocity":53,"Duration":1038061,"SoundDuration":1038061,"Delta":38844136},{"NoteNumber":45,"Velocity":35,"Duration":1038061,"SoundDuration":1038061,"Delta":38844136},{"NoteNumber":55,"Velocity":45,"Duration":1038061,"SoundDuration":1038061,"Delta":38844136},{"NoteNumber":52,"Velocity":35,"Duration":1038061,"SoundDuration":1038061,"Delta":38844136},{"NoteNumber":62,"Velocity":36,"Duration":1102536,"SoundDuration":1102536,"Delta":39882198},{"NoteNumber":65,"Velocity":36,"Duration":1102536,"SoundDuration":1102536,"Delta":39882198},{"NoteNumber":69,"Velocity":36,"Duration":1102536,"SoundDuration":1102536,"Delta":39882198},{"NoteNumber":74,"Velocity":43,"Duration":1102536,"SoundDuration":1102536,"Delta":39882198},{"NoteNumber":38,"Velocity":28,"Duration":1102536,"SoundDuration":1102536,"Delta":39882198},{"NoteNumber":45,"Velocity":28,"Duration":1102536,"SoundDuration":1102536,"Delta":39882198},{"NoteNumber":53,"Velocity":30,"Duration":1102536,"SoundDuration":1102536,"Delta":39882198},{"NoteNumber":58,"Velocity":48,"Duration":1294219,"SoundDuration":1294219,"Delta":40984734},{"NoteNumber":62,"Velocity":48,"Duration":1294219,"SoundDuration":1294219,"Delta":40984734},{"NoteNumber":64,"Velocity":48,"Duration":1294219,"SoundDuration":1294219,"Delta":40984734},{"NoteNumber":70,"Velocity":60,"Duration":1294219,"SoundDuration":1294219,"Delta":40984734},{"NoteNumber":55,"Velocity":51,"Duration":1294219,"SoundDuration":1294219,"Delta":40984734},{"NoteNumber":52,"Velocity":40,"Duration":1294219,"SoundDuration":1294219,"Delta":40984734},{"NoteNumber":50,"Velocity":40,"Duration":1294219,"SoundDuration":1294219,"Delta":40984734},{"NoteNumber":43,"Velocity":40,"Duration":1294219,"SoundDuration":1294219,"Delta":40984734},{"NoteNumber":69,"Velocity":54,"Duration":103734,"SoundDuration":103734,"Delta":42278953},{"NoteNumber":64,"Velocity":54,"Duration":103734,"SoundDuration":103734,"Delta":42278953},{"NoteNumber":61,"Velocity":43,"Duration":103734,"SoundDuration":103734,"Delta":42278953},{"NoteNumber":57,"Velocity":43,"Duration":103734,"SoundDuration":103734,"Delta":42278953},{"NoteNumber":52,"Velocity":45,"Duration":103734,"SoundDuration":103734,"Delta":42278953},{"NoteNumber":45,"Velocity":38,"Duration":103734,"SoundDuration":103734,"Delta":42278953},{"NoteNumber":65,"Velocity":54,"Duration":105633,"SoundDuration":105633,"Delta":42693891},{"NoteNumber":62,"Velocity":43,"Duration":105633,"SoundDuration":105633,"Delta":42693891},{"NoteNumber":57,"Velocity":43,"Duration":105633,"SoundDuration":105633,"Delta":42693891},{"NoteNumber":50,"Velocity":45,"Duration":105633,"SoundDuration":105633,"Delta":42693891},{"NoteNumber":38,"Velocity":38,"Duration":105633,"SoundDuration":105633,"Delta":42693891},{"NoteNumber":58,"Velocity":40,"Duration":113981,"SoundDuration":113981,"Delta":43116426},{"NoteNumber":62,"Velocity":40,"Duration":113981,"SoundDuration":113981,"Delta":43116426},{"NoteNumber":67,"Velocity":51,"Duration":113981,"SoundDuration":113981,"Delta":43116426},{"NoteNumber":43,"Velocity":34,"Duration":113981,"SoundDuration":113981,"Delta":43116426},{"NoteNumber":50,"Velocity":41,"Duration":113981,"SoundDuration":113981,"Delta":43116426},{"NoteNumber":57,"Velocity":43,"Duration":640267,"SoundDuration":640267,"Delta":43572353},{"NoteNumber":62,"Velocity":43,"Duration":640267,"SoundDuration":640267,"Delta":43572353},{"NoteNumber":65,"Velocity":54,"Duration":640267,"SoundDuration":640267,"Delta":43572353},{"NoteNumber":38,"Velocity":38,"Duration":645542,"SoundDuration":645542,"Delta":43572353},{"NoteNumber":50,"Velocity":45,"Duration":645542,"SoundDuration":645542,"Delta":43572353},{"NoteNumber":57,"Velocity":43,"Duration":197893,"SoundDuration":197893,"Delta":44217896},{"NoteNumber":62,"Velocity":43,"Duration":197893,"SoundDuration":197893,"Delta":44217896},{"NoteNumber":65,"Velocity":54,"Duration":197893,"SoundDuration":197893,"Delta":44217896},{"NoteNumber":45,"Velocity":53,"Duration":70133,"SoundDuration":70133,"Delta":44217896},{"NoteNumber":47,"Velocity":60,"Duration":69375,"SoundDuration":69375,"Delta":44288029},{"NoteNumber":49,"Velocity":64,"Duration":68638,"SoundDuration":68638,"Delta":44357404},{"NoteNumber":57,"Velocity":43,"Duration":814664,"SoundDuration":814664,"Delta":44426043},{"NoteNumber":62,"Velocity":43,"Duration":814664,"SoundDuration":814664,"Delta":44426043},{"NoteNumber":65,"Velocity":54,"Duration":814664,"SoundDuration":814664,"Delta":44426043},{"NoteNumber":50,"Velocity":68,"Duration":101832,"SoundDuration":101832,"Delta":44426043},{"NoteNumber":48,"Velocity":55,"Duration":101832,"SoundDuration":101832,"Delta":44629709},{"NoteNumber":46,"Velocity":41,"Duration":101833,"SoundDuration":101833,"Delta":44833375},{"NoteNumber":45,"Velocity":45,"Duration":101832,"SoundDuration":101832,"Delta":45037041},{"NoteNumber":46,"Velocity":39,"Duration":103263,"SoundDuration":103263,"Delta":45240707},{"NoteNumber":45,"Velocity":45,"Duration":102852,"SoundDuration":102852,"Delta":45447233},{"NoteNumber":43,"Velocity":44,"Duration":104452,"SoundDuration":104452,"Delta":45651168},{"NoteNumber":41,"Velocity":44,"Duration":126518,"SoundDuration":126518,"Delta":45863840},{"NoteNumber":57,"Velocity":48,"Duration":1294219,"SoundDuration":1294219,"Delta":46116876},{"NoteNumber":60,"Velocity":48,"Duration":1294219,"SoundDuration":1294219,"Delta":46116876},{"NoteNumber":65,"Velocity":48,"Duration":1294219,"SoundDuration":1294219,"Delta":46116876},{"NoteNumber":69,"Velocity":60,"Duration":1294219,"SoundDuration":1294219,"Delta":46116876},{"NoteNumber":53,"Velocity":51,"Duration":1294219,"SoundDuration":1294219,"Delta":46116876},{"NoteNumber":48,"Velocity":40,"Duration":1294219,"SoundDuration":1294219,"Delta":46116876},{"NoteNumber":41,"Velocity":40,"Duration":1294219,"SoundDuration":1294219,"Delta":46116876},{"NoteNumber":67,"Velocity":54,"Duration":103022,"SoundDuration":103022,"Delta":47411096},{"NoteNumber":62,"Velocity":54,"Duration":103022,"SoundDuration":103022,"Delta":47411096},{"NoteNumber":58,"Velocity":43,"Duration":103022,"SoundDuration":103022,"Delta":47411096},{"NoteNumber":55,"Velocity":43,"Duration":103022,"SoundDuration":103022,"Delta":47411096},{"NoteNumber":50,"Velocity":45,"Duration":103022,"SoundDuration":103022,"Delta":47411096},{"NoteNumber":43,"Velocity":38,"Duration":103022,"SoundDuration":103022,"Delta":47411096},{"NoteNumber":61,"Velocity":43,"Duration":105633,"SoundDuration":105633,"Delta":47823184},{"NoteNumber":64,"Velocity":54,"Duration":105633,"SoundDuration":105633,"Delta":47823184},{"NoteNumber":57,"Velocity":43,"Duration":105633,"SoundDuration":105633,"Delta":47823184},{"NoteNumber":52,"Velocity":43,"Duration":105633,"SoundDuration":105633,"Delta":47823184},{"NoteNumber":45,"Velocity":45,"Duration":105633,"SoundDuration":105633,"Delta":47823184},{"NoteNumber":57,"Velocity":40,"Duration":113981,"SoundDuration":113981,"Delta":48245719},{"NoteNumber":53,"Velocity":40,"Duration":113981,"SoundDuration":113981,"Delta":48245719},{"NoteNumber":62,"Velocity":40,"Duration":113981,"SoundDuration":113981,"Delta":48245719},{"NoteNumber":65,"Velocity":51,"Duration":113981,"SoundDuration":113981,"Delta":48245719},{"NoteNumber":38,"Velocity":34,"Duration":113981,"SoundDuration":113981,"Delta":48245719},{"NoteNumber":45,"Velocity":41,"Duration":113981,"SoundDuration":113981,"Delta":48245719},{"NoteNumber":52,"Velocity":43,"Duration":640156,"SoundDuration":640156,"Delta":48701646},{"NoteNumber":57,"Velocity":43,"Duration":640156,"SoundDuration":640156,"Delta":48701646},{"NoteNumber":61,"Velocity":43,"Duration":640156,"SoundDuration":640156,"Delta":48701646},{"NoteNumber":64,"Velocity":54,"Duration":640156,"SoundDuration":640156,"Delta":48701646},{"NoteNumber":33,"Velocity":38,"Duration":645470,"SoundDuration":645470,"Delta":48701646},{"NoteNumber":45,"Velocity":45,"Duration":645470,"SoundDuration":645470,"Delta":48701646},{"NoteNumber":52,"Velocity":43,"Duration":199230,"SoundDuration":199230,"Delta":49347116},{"NoteNumber":57,"Velocity":43,"Duration":199230,"SoundDuration":199230,"Delta":49347116},{"NoteNumber":61,"Velocity":43,"Duration":199230,"SoundDuration":199230,"Delta":49347116},{"NoteNumber":64,"Velocity":54,"Duration":199230,"SoundDuration":199230,"Delta":49347116},{"NoteNumber":40,"Velocity":53,"Duration":70398,"SoundDuration":70398,"Delta":49347116},{"NoteNumber":41,"Velocity":60,"Duration":69869,"SoundDuration":69869,"Delta":49417514},{"NoteNumber":43,"Velocity":64,"Duration":69363,"SoundDuration":69363,"Delta":49487384},{"NoteNumber":52,"Velocity":43,"Duration":826104,"SoundDuration":826104,"Delta":49556747},{"NoteNumber":57,"Velocity":43,"Duration":826104,"SoundDuration":826104,"Delta":49556747},{"NoteNumber":61,"Velocity":43,"Duration":826104,"SoundDuration":826104,"Delta":49556747},{"NoteNumber":64,"Velocity":54,"Duration":826104,"SoundDuration":826104,"Delta":49556747},{"NoteNumber":45,"Velocity":68,"Duration":103263,"SoundDuration":103263,"Delta":49556747},{"NoteNumber":43,"Velocity":55,"Duration":103263,"SoundDuration":103263,"Delta":49763274},{"NoteNumber":41,"Velocity":41,"Duration":103263,"SoundDuration":103263,"Delta":49969800},{"NoteNumber":40,"Velocity":45,"Duration":103263,"SoundDuration":103263,"Delta":50176326},{"NoteNumber":41,"Velocity":39,"Duration":103263,"SoundDuration":103263,"Delta":50382852},{"NoteNumber":40,"Velocity":45,"Duration":104651,"SoundDuration":104651,"Delta":50589912},{"NoteNumber":38,"Velocity":44,"Duration":106677,"SoundDuration":106677,"Delta":50800439},{"NoteNumber":37,"Velocity":44,"Duration":110554,"SoundDuration":110554,"Delta":51015061},{"NoteNumber":53,"Velocity":38,"Duration":103263,"SoundDuration":103263,"Delta":51236169},{"NoteNumber":62,"Velocity":45,"Duration":103263,"SoundDuration":103263,"Delta":51236169},{"NoteNumber":38,"Velocity":33,"Duration":103263,"SoundDuration":103263,"Delta":51236169},{"NoteNumber":53,"Velocity":34,"Duration":1233245,"SoundDuration":1233245,"Delta":51649222},{"NoteNumber":62,"Velocity":34,"Duration":213462,"SoundDuration":213462,"Delta":51649222},{"NoteNumber":65,"Velocity":40,"Duration":213462,"SoundDuration":213462,"Delta":51649222},{"NoteNumber":46,"Velocity":41,"Duration":834256,"SoundDuration":834256,"Delta":51649222},{"NoteNumber":34,"Velocity":34,"Duration":834256,"SoundDuration":834256,"Delta":51649222},{"NoteNumber":64,"Velocity":44,"Duration":213462,"SoundDuration":213462,"Delta":51862684},{"NoteNumber":61,"Velocity":37,"Duration":213462,"SoundDuration":213462,"Delta":51862684},{"NoteNumber":65,"Velocity":57,"Duration":1201397,"SoundDuration":1201397,"Delta":52076146},{"NoteNumber":62,"Velocity":48,"Duration":1201397,"SoundDuration":1201397,"Delta":52076146},{"NoteNumber":45,"Velocity":35,"Duration":99747,"SoundDuration":99747,"Delta":52483478},{"NoteNumber":33,"Velocity":29,"Duration":99747,"SoundDuration":99747,"Delta":52483478},{"NoteNumber":58,"Velocity":46,"Duration":192208,"SoundDuration":192208,"Delta":52882467},{"NoteNumber":29,"Velocity":32,"Duration":96104,"SoundDuration":96104,"Delta":52882467},{"NoteNumber":41,"Velocity":38,"Duration":96104,"SoundDuration":96104,"Delta":52882467},{"NoteNumber":57,"Velocity":40,"Duration":202867,"SoundDuration":202867,"Delta":53074676},{"NoteNumber":53,"Velocity":41,"Duration":202867,"SoundDuration":202867,"Delta":53277543},{"NoteNumber":58,"Velocity":36,"Duration":101433,"SoundDuration":101433,"Delta":53277543},{"NoteNumber":61,"Velocity":44,"Duration":101433,"SoundDuration":101433,"Delta":53277543},{"NoteNumber":43,"Velocity":35,"Duration":101433,"SoundDuration":101433,"Delta":53277543},{"NoteNumber":31,"Velocity":29,"Duration":101433,"SoundDuration":101433,"Delta":53277543},{"NoteNumber":55,"Velocity":40,"Duration":217928,"SoundDuration":217928,"Delta":53480411},{"NoteNumber":57,"Velocity":39,"Duration":104748,"SoundDuration":104748,"Delta":53698339},{"NoteNumber":53,"Velocity":39,"Duration":104748,"SoundDuration":104748,"Delta":53698339},{"NoteNumber":62,"Velocity":46,"Duration":104748,"SoundDuration":104748,"Delta":53698339},{"NoteNumber":45,"Velocity":33,"Duration":104748,"SoundDuration":104748,"Delta":53698339},{"NoteNumber":38,"Velocity":33,"Duration":104748,"SoundDuration":104748,"Delta":53698339},{"NoteNumber":53,"Velocity":34,"Duration":1259664,"SoundDuration":1259664,"Delta":54117333},{"NoteNumber":62,"Velocity":34,"Duration":216669,"SoundDuration":216669,"Delta":54117333},{"NoteNumber":65,"Velocity":40,"Duration":216669,"SoundDuration":216669,"Delta":54117333},{"NoteNumber":46,"Velocity":41,"Duration":852332,"SoundDuration":852332,"Delta":54117333},{"NoteNumber":34,"Velocity":34,"Duration":852332,"SoundDuration":852332,"Delta":54117333},{"NoteNumber":64,"Velocity":44,"Duration":216668,"SoundDuration":216668,"Delta":54334002},{"NoteNumber":61,"Velocity":37,"Duration":216668,"SoundDuration":216668,"Delta":54334002},{"NoteNumber":65,"Velocity":57,"Duration":1221346,"SoundDuration":1221346,"Delta":54550671},{"NoteNumber":62,"Velocity":48,"Duration":1221346,"SoundDuration":1221346,"Delta":54550671},{"NoteNumber":45,"Velocity":35,"Duration":101832,"SoundDuration":101832,"Delta":54969666},{"NoteNumber":33,"Velocity":29,"Duration":101832,"SoundDuration":101832,"Delta":54969666},{"NoteNumber":58,"Velocity":46,"Duration":194780,"SoundDuration":194780,"Delta":55376998},{"NoteNumber":29,"Velocity":32,"Duration":97389,"SoundDuration":97389,"Delta":55376998},{"NoteNumber":41,"Velocity":38,"Duration":97389,"SoundDuration":97389,"Delta":55376998},{"NoteNumber":57,"Velocity":40,"Duration":200240,"SoundDuration":200240,"Delta":55571778},{"NoteNumber":53,"Velocity":41,"Duration":211267,"SoundDuration":211267,"Delta":55772018},{"NoteNumber":58,"Velocity":36,"Duration":105633,"SoundDuration":105633,"Delta":55772018},{"NoteNumber":61,"Velocity":44,"Duration":105633,"SoundDuration":105633,"Delta":55772018},{"NoteNumber":43,"Velocity":35,"Duration":105633,"SoundDuration":105633,"Delta":55772018},{"NoteNumber":31,"Velocity":29,"Duration":105633,"SoundDuration":105633,"Delta":55772018},{"NoteNumber":55,"Velocity":40,"Duration":224315,"SoundDuration":224315,"Delta":55983286},{"NoteNumber":57,"Velocity":39,"Duration":104007,"SoundDuration":104007,"Delta":56207601},{"NoteNumber":53,"Velocity":39,"Duration":104007,"SoundDuration":104007,"Delta":56207601},{"NoteNumber":62,"Velocity":46,"Duration":104007,"SoundDuration":104007,"Delta":56207601},{"NoteNumber":45,"Velocity":33,"Duration":104007,"SoundDuration":104007,"Delta":56207601},{"NoteNumber":38,"Velocity":33,"Duration":104007,"SoundDuration":104007,"Delta":56207601},{"NoteNumber":64,"Velocity":54,"Duration":100442,"SoundDuration":100442,"Delta":56623632},{"NoteNumber":57,"Velocity":45,"Duration":100442,"SoundDuration":100442,"Delta":56623632},{"NoteNumber":55,"Velocity":45,"Duration":100442,"SoundDuration":100442,"Delta":56623632},{"NoteNumber":50,"Velocity":43,"Duration":200884,"SoundDuration":200884,"Delta":56623632},{"NoteNumber":49,"Velocity":41,"Duration":200883,"SoundDuration":200883,"Delta":56824516},{"NoteNumber":65,"Velocity":61,"Duration":1189779,"SoundDuration":1189779,"Delta":57025400},{"NoteNumber":57,"Velocity":50,"Duration":1189779,"SoundDuration":1189779,"Delta":57025400},{"NoteNumber":53,"Velocity":50,"Duration":1189779,"SoundDuration":1189779,"Delta":57025400},{"NoteNumber":50,"Velocity":54,"Duration":149045,"SoundDuration":149045,"Delta":57025400},{"NoteNumber":49,"Velocity":49,"Duration":148612,"SoundDuration":148612,"Delta":57223984},{"NoteNumber":50,"Velocity":52,"Duration":148612,"SoundDuration":148612,"Delta":57422134},{"NoteNumber":49,"Velocity":57,"Duration":148612,"SoundDuration":148612,"Delta":57620285},{"NoteNumber":50,"Velocity":66,"Duration":197508,"SoundDuration":197508,"Delta":57818435},{"NoteNumber":48,"Velocity":56,"Duration":199236,"SoundDuration":199236,"Delta":58015944},{"NoteNumber":60,"Velocity":45,"Duration":407343,"SoundDuration":407343,"Delta":58215180},{"NoteNumber":62,"Velocity":45,"Duration":407343,"SoundDuration":407343,"Delta":58215180},{"NoteNumber":66,"Velocity":54,"Duration":407343,"SoundDuration":407343,"Delta":58215180},{"NoteNumber":46,"Velocity":61,"Duration":202316,"SoundDuration":202316,"Delta":58215180},{"NoteNumber":45,"Velocity":45,"Duration":205027,"SoundDuration":205027,"Delta":58417497},{"NoteNumber":67,"Velocity":60,"Duration":417968,"SoundDuration":417968,"Delta":58622524},{"NoteNumber":62,"Velocity":51,"Duration":417968,"SoundDuration":417968,"Delta":58622524},{"NoteNumber":58,"Velocity":51,"Duration":417968,"SoundDuration":417968,"Delta":58622524},{"NoteNumber":43,"Velocity":45,"Duration":202265,"SoundDuration":202265,"Delta":58622524},{"NoteNumber":41,"Velocity":37,"Duration":215703,"SoundDuration":215703,"Delta":58824789},{"NoteNumber":68,"Velocity":56,"Duration":201531,"SoundDuration":201531,"Delta":59040492},{"NoteNumber":62,"Velocity":47,"Duration":418828,"SoundDuration":418828,"Delta":59040492},{"NoteNumber":59,"Velocity":47,"Duration":418828,"SoundDuration":418828,"Delta":59040492},{"NoteNumber":40,"Velocity":45,"Duration":418828,"SoundDuration":418828,"Delta":59040492},{"NoteNumber":69,"Velocity":54,"Duration":217296,"SoundDuration":217296,"Delta":59242024},{"NoteNumber":68,"Velocity":63,"Duration":920810,"SoundDuration":920810,"Delta":59459321},{"NoteNumber":62,"Velocity":53,"Duration":920810,"SoundDuration":920810,"Delta":59459321},{"NoteNumber":59,"Velocity":53,"Duration":920810,"SoundDuration":920810,"Delta":59459321},{"NoteNumber":45,"Velocity":35,"Duration":1900401,"SoundDuration":1900401,"Delta":59459321},{"NoteNumber":53,"Velocity":45,"Duration":920810,"SoundDuration":920810,"Delta":59459321},{"NoteNumber":57,"Velocity":45,"Duration":979591,"SoundDuration":979591,"Delta":60380131},{"NoteNumber":61,"Velocity":45,"Duration":979591,"SoundDuration":979591,"Delta":60380131},{"NoteNumber":69,"Velocity":54,"Duration":979591,"SoundDuration":979591,"Delta":60380131},{"NoteNumber":52,"Velocity":38,"Duration":979591,"SoundDuration":979591,"Delta":60380131},{"NoteNumber":58,"Velocity":48,"Duration":1294219,"SoundDuration":1294219,"Delta":61359723},{"NoteNumber":62,"Velocity":48,"Duration":1294219,"SoundDuration":1294219,"Delta":61359723},{"NoteNumber":64,"Velocity":48,"Duration":1294219,"SoundDuration":1294219,"Delta":61359723},{"NoteNumber":70,"Velocity":60,"Duration":1294219,"SoundDuration":1294219,"Delta":61359723},{"NoteNumber":55,"Velocity":51,"Duration":1294219,"SoundDuration":1294219,"Delta":61359723},{"NoteNumber":52,"Velocity":40,"Duration":1294219,"SoundDuration":1294219,"Delta":61359723},{"NoteNumber":50,"Velocity":40,"Duration":1294219,"SoundDuration":1294219,"Delta":61359723},{"NoteNumber":43,"Velocity":40,"Duration":1294219,"SoundDuration":1294219,"Delta":61359723},{"NoteNumber":69,"Velocity":54,"Duration":103734,"SoundDuration":103734,"Delta":62653942},{"NoteNumber":64,"Velocity":54,"Duration":103734,"SoundDuration":103734,"Delta":62653942},{"NoteNumber":61,"Velocity":43,"Duration":103734,"SoundDuration":103734,"Delta":62653942},{"NoteNumber":57,"Velocity":43,"Duration":103734,"SoundDuration":103734,"Delta":62653942},{"NoteNumber":52,"Velocity":45,"Duration":103734,"SoundDuration":103734,"Delta":62653942},{"NoteNumber":45,"Velocity":38,"Duration":103734,"SoundDuration":103734,"Delta":62653942},{"NoteNumber":65,"Velocity":54,"Duration":104895,"SoundDuration":104895,"Delta":63068880},{"NoteNumber":62,"Velocity":43,"Duration":104895,"SoundDuration":104895,"Delta":63068880},{"NoteNumber":57,"Velocity":43,"Duration":104895,"SoundDuration":104895,"Delta":63068880},{"NoteNumber":50,"Velocity":45,"Duration":104895,"SoundDuration":104895,"Delta":63068880},{"NoteNumber":58,"Velocity":40,"Duration":112275,"SoundDuration":112275,"Delta":63488461},{"NoteNumber":62,"Velocity":40,"Duration":112275,"SoundDuration":112275,"Delta":63488461},{"NoteNumber":67,"Velocity":51,"Duration":112275,"SoundDuration":112275,"Delta":63488461},{"NoteNumber":43,"Velocity":34,"Duration":112275,"SoundDuration":112275,"Delta":63488461},{"NoteNumber":50,"Velocity":41,"Duration":112275,"SoundDuration":112275,"Delta":63488461},{"NoteNumber":57,"Velocity":43,"Duration":640267,"SoundDuration":640267,"Delta":63937563},{"NoteNumber":62,"Velocity":43,"Duration":640267,"SoundDuration":640267,"Delta":63937563},{"NoteNumber":65,"Velocity":54,"Duration":640267,"SoundDuration":640267,"Delta":63937563},{"NoteNumber":38,"Velocity":38,"Duration":645542,"SoundDuration":645542,"Delta":63937563},{"NoteNumber":50,"Velocity":45,"Duration":645542,"SoundDuration":645542,"Delta":63937563},{"NoteNumber":57,"Velocity":43,"Duration":197893,"SoundDuration":197893,"Delta":64583105},{"NoteNumber":62,"Velocity":43,"Duration":197893,"SoundDuration":197893,"Delta":64583105},{"NoteNumber":65,"Velocity":54,"Duration":197893,"SoundDuration":197893,"Delta":64583105},{"NoteNumber":45,"Velocity":53,"Duration":70133,"SoundDuration":70133,"Delta":64583105},{"NoteNumber":47,"Velocity":60,"Duration":69375,"SoundDuration":69375,"Delta":64653238},{"NoteNumber":49,"Velocity":64,"Duration":68638,"SoundDuration":68638,"Delta":64722614},{"NoteNumber":57,"Velocity":43,"Duration":814663,"SoundDuration":814663,"Delta":64791253},{"NoteNumber":62,"Velocity":43,"Duration":814663,"SoundDuration":814663,"Delta":64791253},{"NoteNumber":65,"Velocity":54,"Duration":814663,"SoundDuration":814663,"Delta":64791253},{"NoteNumber":50,"Velocity":68,"Duration":101832,"SoundDuration":101832,"Delta":64791253},{"NoteNumber":48,"Velocity":55,"Duration":101832,"SoundDuration":101832,"Delta":64994919},{"NoteNumber":46,"Velocity":41,"Duration":101832,"SoundDuration":101832,"Delta":65198585},{"NoteNumber":45,"Velocity":45,"Duration":101832,"SoundDuration":101832,"Delta":65402251},{"NoteNumber":46,"Velocity":39,"Duration":103263,"SoundDuration":103263,"Delta":65605917},{"NoteNumber":45,"Velocity":45,"Duration":102852,"SoundDuration":102852,"Delta":65812443},{"NoteNumber":43,"Velocity":44,"Duration":104452,"SoundDuration":104452,"Delta":66016378},{"NoteNumber":41,"Velocity":44,"Duration":126518,"SoundDuration":126518,"Delta":66229050},{"NoteNumber":57,"Velocity":48,"Duration":1294219,"SoundDuration":1294219,"Delta":66482086},{"NoteNumber":60,"Velocity":48,"Duration":1294219,"SoundDuration":1294219,"Delta":66482086},{"NoteNumber":63,"Velocity":48,"Duration":1294219,"SoundDuration":1294219,"Delta":66482086},{"NoteNumber":69,"Velocity":60,"Duration":1294219,"SoundDuration":1294219,"Delta":66482086},{"NoteNumber":51,"Velocity":51,"Duration":1294219,"SoundDuration":1294219,"Delta":66482086},{"NoteNumber":42,"Velocity":40,"Duration":1294219,"SoundDuration":1294219,"Delta":66482086},{"NoteNumber":67,"Velocity":54,"Duration":103734,"SoundDuration":103734,"Delta":67776306},{"NoteNumber":62,"Velocity":54,"Duration":103734,"SoundDuration":103734,"Delta":67776306},{"NoteNumber":58,"Velocity":43,"Duration":103734,"SoundDuration":103734,"Delta":67776306},{"NoteNumber":55,"Velocity":43,"Duration":103734,"SoundDuration":103734,"Delta":67776306},{"NoteNumber":50,"Velocity":45,"Duration":103734,"SoundDuration":103734,"Delta":67776306},{"NoteNumber":43,"Velocity":38,"Duration":103734,"SoundDuration":103734,"Delta":67776306},{"NoteNumber":61,"Velocity":43,"Duration":104166,"SoundDuration":104166,"Delta":68191244},{"NoteNumber":64,"Velocity":54,"Duration":104166,"SoundDuration":104166,"Delta":68191244},{"NoteNumber":57,"Velocity":43,"Duration":104166,"SoundDuration":104166,"Delta":68191244},{"NoteNumber":52,"Velocity":43,"Duration":104166,"SoundDuration":104166,"Delta":68191244},{"NoteNumber":45,"Velocity":45,"Duration":104166,"SoundDuration":104166,"Delta":68191244},{"NoteNumber":57,"Velocity":40,"Duration":112275,"SoundDuration":112275,"Delta":68607910},{"NoteNumber":53,"Velocity":40,"Duration":112275,"SoundDuration":112275,"Delta":68607910},{"NoteNumber":62,"Velocity":40,"Duration":112275,"SoundDuration":112275,"Delta":68607910},{"NoteNumber":65,"Velocity":51,"Duration":112275,"SoundDuration":112275,"Delta":68607910},{"NoteNumber":38,"Velocity":34,"Duration":112275,"SoundDuration":112275,"Delta":68607910},{"NoteNumber":45,"Velocity":41,"Duration":112275,"SoundDuration":112275,"Delta":68607910},{"NoteNumber":52,"Velocity":43,"Duration":640156,"SoundDuration":640156,"Delta":69057012},{"NoteNumber":57,"Velocity":43,"Duration":640156,"SoundDuration":640156,"Delta":69057012},{"NoteNumber":61,"Velocity":43,"Duration":640156,"SoundDuration":640156,"Delta":69057012},{"NoteNumber":64,"Velocity":54,"Duration":640156,"SoundDuration":640156,"Delta":69057012},{"NoteNumber":33,"Velocity":38,"Duration":645470,"SoundDuration":645470,"Delta":69057012},{"NoteNumber":45,"Velocity":45,"Duration":645470,"SoundDuration":645470,"Delta":69057012},{"NoteNumber":52,"Velocity":43,"Duration":199230,"SoundDuration":199230,"Delta":69702482},{"NoteNumber":57,"Velocity":43,"Duration":199230,"SoundDuration":199230,"Delta":69702482},{"NoteNumber":61,"Velocity":43,"Duration":199230,"SoundDuration":199230,"Delta":69702482},{"NoteNumber":64,"Velocity":54,"Duration":199230,"SoundDuration":199230,"Delta":69702482},{"NoteNumber":40,"Velocity":53,"Duration":70398,"SoundDuration":70398,"Delta":69702482},{"NoteNumber":41,"Velocity":60,"Duration":69869,"SoundDuration":69869,"Delta":69772880},{"NoteNumber":43,"Velocity":64,"Duration":69363,"SoundDuration":69363,"Delta":69842750},{"NoteNumber":52,"Velocity":43,"Duration":826104,"SoundDuration":826104,"Delta":69912114},{"NoteNumber":57,"Velocity":43,"Duration":826104,"SoundDuration":826104,"Delta":69912114},{"NoteNumber":61,"Velocity":43,"Duration":826104,"SoundDuration":826104,"Delta":69912114},{"NoteNumber":64,"Velocity":54,"Duration":826104,"SoundDuration":826104,"Delta":69912114},{"NoteNumber":45,"Velocity":68,"Duration":103263,"SoundDuration":103263,"Delta":69912114},{"NoteNumber":43,"Velocity":55,"Duration":103263,"SoundDuration":103263,"Delta":70118640},{"NoteNumber":41,"Velocity":41,"Duration":103263,"SoundDuration":103263,"Delta":70325166},{"NoteNumber":40,"Velocity":45,"Duration":103263,"SoundDuration":103263,"Delta":70531692},{"NoteNumber":41,"Velocity":39,"Duration":103263,"SoundDuration":103263,"Delta":70738219},{"NoteNumber":40,"Velocity":45,"Duration":104651,"SoundDuration":104651,"Delta":70945279},{"NoteNumber":38,"Velocity":44,"Duration":106677,"SoundDuration":106677,"Delta":71155805},{"NoteNumber":37,"Velocity":44,"Duration":110554,"SoundDuration":110554,"Delta":71370427},{"NoteNumber":53,"Velocity":38,"Duration":103263,"SoundDuration":103263,"Delta":71591535},{"NoteNumber":62,"Velocity":45,"Duration":103263,"SoundDuration":103263,"Delta":71591535},{"NoteNumber":38,"Velocity":33,"Duration":103263,"SoundDuration":103263,"Delta":71591535},{"NoteNumber":53,"Velocity":34,"Duration":1239659,"SoundDuration":1239659,"Delta":72004588},{"NoteNumber":62,"Velocity":34,"Duration":216668,"SoundDuration":216668,"Delta":72004588},{"NoteNumber":65,"Velocity":40,"Duration":216668,"SoundDuration":216668,"Delta":72004588},{"NoteNumber":46,"Velocity":53,"Duration":840670,"SoundDuration":840670,"Delta":72004588},{"NoteNumber":34,"Velocity":45,"Duration":840670,"SoundDuration":840670,"Delta":72004588},{"NoteNumber":64,"Velocity":44,"Duration":216669,"SoundDuration":216669,"Delta":72221257},{"NoteNumber":61,"Velocity":37,"Duration":216669,"SoundDuration":216669,"Delta":72221257},{"NoteNumber":65,"Velocity":57,"Duration":1199519,"SoundDuration":1199519,"Delta":72437926},{"NoteNumber":62,"Velocity":48,"Duration":1199519,"SoundDuration":1199519,"Delta":72437926},{"NoteNumber":45,"Velocity":35,"Duration":99747,"SoundDuration":99747,"Delta":72845258},{"NoteNumber":33,"Velocity":29,"Duration":99747,"SoundDuration":99747,"Delta":72845258},{"NoteNumber":58,"Velocity":46,"Duration":190331,"SoundDuration":190331,"Delta":73244247},{"NoteNumber":29,"Velocity":32,"Duration":95165,"SoundDuration":95165,"Delta":73244247},{"NoteNumber":41,"Velocity":38,"Duration":95165,"SoundDuration":95165,"Delta":73244247},{"NoteNumber":57,"Velocity":40,"Duration":202867,"SoundDuration":202867,"Delta":73434578},{"NoteNumber":53,"Velocity":41,"Duration":202867,"SoundDuration":202867,"Delta":73637445},{"NoteNumber":58,"Velocity":36,"Duration":101433,"SoundDuration":101433,"Delta":73637445},{"NoteNumber":61,"Velocity":44,"Duration":101433,"SoundDuration":101433,"Delta":73637445},{"NoteNumber":43,"Velocity":35,"Duration":101433,"SoundDuration":101433,"Delta":73637445},{"NoteNumber":31,"Velocity":29,"Duration":101433,"SoundDuration":101433,"Delta":73637445},{"NoteNumber":55,"Velocity":40,"Duration":217928,"SoundDuration":217928,"Delta":73840313},{"NoteNumber":57,"Velocity":39,"Duration":200240,"SoundDuration":200240,"Delta":74058241},{"NoteNumber":53,"Velocity":39,"Duration":395400,"SoundDuration":395400,"Delta":74058241},{"NoteNumber":62,"Velocity":48,"Duration":200240,"SoundDuration":200240,"Delta":74058241},{"NoteNumber":45,"Velocity":33,"Duration":100120,"SoundDuration":100120,"Delta":74058241},{"NoteNumber":38,"Velocity":33,"Duration":100120,"SoundDuration":100120,"Delta":74058241},{"NoteNumber":64,"Velocity":58,"Duration":195160,"SoundDuration":195160,"Delta":74258481},{"NoteNumber":61,"Velocity":49,"Duration":195160,"SoundDuration":195160,"Delta":74258481},{"NoteNumber":53,"Velocity":45,"Duration":1261182,"SoundDuration":1261182,"Delta":74453641},{"NoteNumber":62,"Velocity":45,"Duration":196798,"SoundDuration":196798,"Delta":74453641},{"NoteNumber":65,"Velocity":54,"Duration":196798,"SoundDuration":196798,"Delta":74453641},{"NoteNumber":46,"Velocity":63,"Duration":853850,"SoundDuration":853850,"Delta":74453641},{"NoteNumber":34,"Velocity":53,"Duration":853850,"SoundDuration":853850,"Delta":74453641},{"NoteNumber":64,"Velocity":58,"Duration":238057,"SoundDuration":238057,"Delta":74650440},{"NoteNumber":61,"Velocity":49,"Duration":238057,"SoundDuration":238057,"Delta":74650440},{"NoteNumber":65,"Velocity":70,"Duration":1219269,"SoundDuration":1219269,"Delta":74888497},{"NoteNumber":62,"Velocity":59,"Duration":1219269,"SoundDuration":1219269,"Delta":74888497},{"NoteNumber":45,"Velocity":35,"Duration":101832,"SoundDuration":101832,"Delta":75307492},{"NoteNumber":33,"Velocity":29,"Duration":101832,"SoundDuration":101832,"Delta":75307492},{"NoteNumber":58,"Velocity":46,"Duration":192702,"SoundDuration":192702,"Delta":75714824},{"NoteNumber":29,"Velocity":32,"Duration":96351,"SoundDuration":96351,"Delta":75714824},{"NoteNumber":41,"Velocity":38,"Duration":96351,"SoundDuration":96351,"Delta":75714824},{"NoteNumber":57,"Velocity":40,"Duration":200240,"SoundDuration":200240,"Delta":75907527},{"NoteNumber":53,"Velocity":41,"Duration":211267,"SoundDuration":211267,"Delta":76107767},{"NoteNumber":58,"Velocity":36,"Duration":105633,"SoundDuration":105633,"Delta":76107767},{"NoteNumber":61,"Velocity":44,"Duration":105633,"SoundDuration":105633,"Delta":76107767},{"NoteNumber":43,"Velocity":35,"Duration":105633,"SoundDuration":105633,"Delta":76107767},{"NoteNumber":31,"Velocity":29,"Duration":105633,"SoundDuration":105633,"Delta":76107767},{"NoteNumber":55,"Velocity":40,"Duration":224315,"SoundDuration":224315,"Delta":76319035},{"NoteNumber":57,"Velocity":39,"Duration":104007,"SoundDuration":104007,"Delta":76543350},{"NoteNumber":53,"Velocity":39,"Duration":104007,"SoundDuration":104007,"Delta":76543350},{"NoteNumber":62,"Velocity":46,"Duration":104007,"SoundDuration":104007,"Delta":76543350},{"NoteNumber":45,"Velocity":33,"Duration":104007,"SoundDuration":104007,"Delta":76543350},{"NoteNumber":38,"Velocity":33,"Duration":104007,"SoundDuration":104007,"Delta":76543350},{"NoteNumber":45,"Velocity":53,"Duration":70133,"SoundDuration":70133,"Delta":76751366},{"NoteNumber":47,"Velocity":60,"Duration":69375,"SoundDuration":69375,"Delta":76821499},{"NoteNumber":49,"Velocity":64,"Duration":68638,"SoundDuration":68638,"Delta":76890874},{"NoteNumber":64,"Velocity":54,"Duration":102543,"SoundDuration":102543,"Delta":76959513},{"NoteNumber":57,"Velocity":45,"Duration":102543,"SoundDuration":102543,"Delta":76959513},{"NoteNumber":55,"Velocity":45,"Duration":102543,"SoundDuration":102543,"Delta":76959513},{"NoteNumber":50,"Velocity":68,"Duration":102543,"SoundDuration":102543,"Delta":76959513},{"NoteNumber":49,"Velocity":54,"Duration":102543,"SoundDuration":102543,"Delta":77164600},{"NoteNumber":65,"Velocity":61,"Duration":1190445,"SoundDuration":1190445,"Delta":77369686},{"NoteNumber":57,"Velocity":50,"Duration":1190445,"SoundDuration":1190445,"Delta":77369686},{"NoteNumber":53,"Velocity":50,"Duration":1190445,"SoundDuration":1190445,"Delta":77369686},{"NoteNumber":50,"Velocity":54,"Duration":149711,"SoundDuration":149711,"Delta":77369686},{"NoteNumber":49,"Velocity":49,"Duration":148612,"SoundDuration":148612,"Delta":77568934},{"NoteNumber":50,"Velocity":52,"Duration":148612,"SoundDuration":148612,"Delta":77767085},{"NoteNumber":49,"Velocity":57,"Duration":148612,"SoundDuration":148612,"Delta":77965235},{"NoteNumber":50,"Velocity":66,"Duration":197508,"SoundDuration":197508,"Delta":78163386},{"NoteNumber":48,"Velocity":56,"Duration":199236,"SoundDuration":199236,"Delta":78360894},{"NoteNumber":60,"Velocity":45,"Duration":407343,"SoundDuration":407343,"Delta":78560131},{"NoteNumber":62,"Velocity":45,"Duration":407343,"SoundDuration":407343,"Delta":78560131},{"NoteNumber":66,"Velocity":54,"Duration":407343,"SoundDuration":407343,"Delta":78560131},{"NoteNumber":46,"Velocity":61,"Duration":202316,"SoundDuration":202316,"Delta":78560131},{"NoteNumber":45,"Velocity":45,"Duration":205027,"SoundDuration":205027,"Delta":78762448},{"NoteNumber":67,"Velocity":60,"Duration":417968,"SoundDuration":417968,"Delta":78967475},{"NoteNumber":62,"Velocity":51,"Duration":417968,"SoundDuration":417968,"Delta":78967475},{"NoteNumber":58,"Velocity":51,"Duration":417968,"SoundDuration":417968,"Delta":78967475},{"NoteNumber":43,"Velocity":45,"Duration":202265,"SoundDuration":202265,"Delta":78967475},{"NoteNumber":40,"Velocity":37,"Duration":214135,"SoundDuration":214135,"Delta":79146142},{"NoteNumber":69,"Velocity":56,"Duration":477774,"SoundDuration":477774,"Delta":79385443},{"NoteNumber":62,"Velocity":47,"Duration":477774,"SoundDuration":477774,"Delta":79385443},{"NoteNumber":57,"Velocity":47,"Duration":477774,"SoundDuration":477774,"Delta":79385443},{"NoteNumber":41,"Velocity":45,"Duration":477774,"SoundDuration":477774,"Delta":79385443},{"NoteNumber":73,"Velocity":63,"Duration":1046206,"SoundDuration":1046206,"Delta":79863218},{"NoteNumber":67,"Velocity":53,"Duration":1046206,"SoundDuration":1046206,"Delta":79863218},{"NoteNumber":61,"Velocity":53,"Duration":1046206,"SoundDuration":1046206,"Delta":79863218},{"NoteNumber":45,"Velocity":35,"Duration":1046206,"SoundDuration":1046206,"Delta":79863218},{"NoteNumber":55,"Velocity":45,"Duration":1046206,"SoundDuration":1046206,"Delta":79863218},{"NoteNumber":52,"Velocity":35,"Duration":1046206,"SoundDuration":1046206,"Delta":79863218},{"NoteNumber":62,"Velocity":36,"Duration":1102536,"SoundDuration":1102536,"Delta":80909425},{"NoteNumber":65,"Velocity":36,"Duration":1102536,"SoundDuration":1102536,"Delta":80909425},{"NoteNumber":69,"Velocity":36,"Duration":1102536,"SoundDuration":1102536,"Delta":80909425},{"NoteNumber":74,"Velocity":43,"Duration":1102536,"SoundDuration":1102536,"Delta":80909425},{"NoteNumber":38,"Velocity":28,"Duration":1102536,"SoundDuration":1102536,"Delta":80909425},{"NoteNumber":45,"Velocity":28,"Duration":1102536,"SoundDuration":1102536,"Delta":80909425},{"NoteNumber":53,"Velocity":30,"Duration":1102536,"SoundDuration":1102536,"Delta":80909425},{"NoteNumber":77,"Velocity":78,"Duration":420256,"SoundDuration":420256,"Delta":82011961},{"NoteNumber":74,"Velocity":62,"Duration":420256,"SoundDuration":420256,"Delta":82011961},{"NoteNumber":71,"Velocity":62,"Duration":420256,"SoundDuration":420256,"Delta":82011961},{"NoteNumber":69,"Velocity":62,"Duration":420256,"SoundDuration":420256,"Delta":82011961},{"NoteNumber":65,"Velocity":62,"Duration":420256,"SoundDuration":420256,"Delta":82011961},{"NoteNumber":50,"Velocity":48,"Duration":420256,"SoundDuration":420256,"Delta":82011961},{"NoteNumber":57,"Velocity":48,"Duration":420256,"SoundDuration":420256,"Delta":82011961},{"NoteNumber":62,"Velocity":61,"Duration":420256,"SoundDuration":420256,"Delta":82011961},{"NoteNumber":59,"Velocity":48,"Duration":420256,"SoundDuration":420256,"Delta":82011961},{"NoteNumber":76,"Velocity":70,"Duration":420256,"SoundDuration":420256,"Delta":82435750},{"NoteNumber":74,"Velocity":55,"Duration":420256,"SoundDuration":420256,"Delta":82435750},{"NoteNumber":71,"Velocity":55,"Duration":420256,"SoundDuration":420256,"Delta":82435750},{"NoteNumber":68,"Velocity":55,"Duration":420256,"SoundDuration":420256,"Delta":82435750},{"NoteNumber":64,"Velocity":55,"Duration":420256,"SoundDuration":420256,"Delta":82435750},{"NoteNumber":62,"Velocity":53,"Duration":420256,"SoundDuration":420256,"Delta":82435750},{"NoteNumber":59,"Velocity":42,"Duration":420256,"SoundDuration":420256,"Delta":82435750},{"NoteNumber":56,"Velocity":42,"Duration":420256,"SoundDuration":420256,"Delta":82435750},{"NoteNumber":52,"Velocity":42,"Duration":420256,"SoundDuration":420256,"Delta":82435750},{"NoteNumber":73,"Velocity":71,"Duration":405866,"SoundDuration":405866,"Delta":82859538},{"NoteNumber":69,"Velocity":60,"Duration":405866,"SoundDuration":405866,"Delta":82859538},{"NoteNumber":61,"Velocity":60,"Duration":405866,"SoundDuration":405866,"Delta":82859538},{"NoteNumber":45,"Velocity":51,"Duration":405866,"SoundDuration":405866,"Delta":82859538},{"NoteNumber":52,"Velocity":51,"Duration":405866,"SoundDuration":405866,"Delta":82859538},{"NoteNumber":57,"Velocity":61,"Duration":405866,"SoundDuration":405866,"Delta":82859538},{"NoteNumber":65,"Velocity":57,"Duration":189154,"SoundDuration":189154,"Delta":83268815},{"NoteNumber":62,"Velocity":44,"Duration":378309,"SoundDuration":378309,"Delta":83268815},{"NoteNumber":53,"Velocity":44,"Duration":378309,"SoundDuration":378309,"Delta":83268815},{"NoteNumber":45,"Velocity":44,"Duration":378309,"SoundDuration":378309,"Delta":83268815},{"NoteNumber":38,"Velocity":37,"Duration":378309,"SoundDuration":378309,"Delta":83268815},{"NoteNumber":67,"Velocity":52,"Duration":189154,"SoundDuration":189154,"Delta":83457970},{"NoteNumber":52,"Velocity":36,"Duration":423728,"SoundDuration":423728,"Delta":83647125},{"NoteNumber":61,"Velocity":36,"Duration":423728,"SoundDuration":423728,"Delta":83647125},{"NoteNumber":64,"Velocity":43,"Duration":423728,"SoundDuration":423728,"Delta":83647125},{"NoteNumber":45,"Velocity":40,"Duration":423728,"SoundDuration":423728,"Delta":83647125},{"NoteNumber":33,"Velocity":34,"Duration":423728,"SoundDuration":423728,"Delta":83647125},{"NoteNumber":64,"Velocity":35,"Duration":196592,"SoundDuration":196592,"Delta":84070854},{"NoteNumber":65,"Velocity":40,"Duration":196592,"SoundDuration":196592,"Delta":84267447},{"NoteNumber":67,"Velocity":44,"Duration":190355,"SoundDuration":190355,"Delta":84464039},{"NoteNumber":61,"Velocity":32,"Duration":592458,"SoundDuration":592458,"Delta":84654394},{"NoteNumber":77,"Velocity":55,"Duration":194049,"SoundDuration":194049,"Delta":84858754},{"NoteNumber":62,"Velocity":34,"Duration":194049,"SoundDuration":194049,"Delta":84858754},{"NoteNumber":76,"Velocity":48,"Duration":194049,"SoundDuration":194049,"Delta":85052803},{"NoteNumber":64,"Velocity":39,"Duration":194049,"SoundDuration":194049,"Delta":85052803},{"NoteNumber":74,"Velocity":58,"Duration":1174603,"SoundDuration":1174603,"Delta":85246853},{"NoteNumber":69,"Velocity":58,"Duration":776196,"SoundDuration":776196,"Delta":85246853},{"NoteNumber":60,"Velocity":39,"Duration":776196,"SoundDuration":776196,"Delta":85246853},{"NoteNumber":65,"Velocity":46,"Duration":194049,"SoundDuration":194049,"Delta":85246853},{"NoteNumber":64,"Velocity":40,"Duration":194049,"SoundDuration":194049,"Delta":85440902},{"NoteNumber":62,"Velocity":41,"Duration":194049,"SoundDuration":194049,"Delta":85634951},{"NoteNumber":64,"Velocity":34,"Duration":194049,"SoundDuration":194049,"Delta":85829000},{"NoteNumber":67,"Velocity":53,"Duration":1552788,"SoundDuration":1552788,"Delta":86023050},{"NoteNumber":58,"Velocity":28,"Duration":1169646,"SoundDuration":1169646,"Delta":86023050},{"NoteNumber":62,"Velocity":40,"Duration":398406,"SoundDuration":398406,"Delta":86023050},{"NoteNumber":76,"Velocity":56,"Duration":388098,"SoundDuration":388098,"Delta":86421456},{"NoteNumber":60,"Velocity":34,"Duration":194049,"SoundDuration":194049,"Delta":86421456},{"NoteNumber":62,"Velocity":39,"Duration":194049,"SoundDuration":194049,"Delta":86615505},{"NoteNumber":72,"Velocity":58,"Duration":1177776,"SoundDuration":1177776,"Delta":86809555},{"NoteNumber":58,"Velocity":39,"Duration":766283,"SoundDuration":766283,"Delta":86809555},{"NoteNumber":64,"Velocity":46,"Duration":191570,"SoundDuration":191570,"Delta":86809555},{"NoteNumber":62,"Velocity":40,"Duration":191571,"SoundDuration":191571,"Delta":87001126},{"NoteNumber":60,"Velocity":41,"Duration":191570,"SoundDuration":191570,"Delta":87192697},{"NoteNumber":62,"Velocity":34,"Duration":191570,"SoundDuration":191570,"Delta":87384268},{"NoteNumber":65,"Velocity":45,"Duration":411492,"SoundDuration":411492,"Delta":87575839},{"NoteNumber":57,"Velocity":39,"Duration":411492,"SoundDuration":411492,"Delta":87575839},{"NoteNumber":60,"Velocity":40,"Duration":799590,"SoundDuration":799590,"Delta":87575839},{"NoteNumber":74,"Velocity":54,"Duration":388098,"SoundDuration":388098,"Delta":87987331},{"NoteNumber":63,"Velocity":54,"Duration":388098,"SoundDuration":388098,"Delta":87987331},{"NoteNumber":55,"Velocity":34,"Duration":194049,"SoundDuration":194049,"Delta":87987331},{"NoteNumber":57,"Velocity":39,"Duration":194049,"SoundDuration":194049,"Delta":88181380},{"NoteNumber":70,"Velocity":49,"Duration":388098,"SoundDuration":388098,"Delta":88375429},{"NoteNumber":62,"Velocity":49,"Duration":797047,"SoundDuration":797047,"Delta":88375429},{"NoteNumber":58,"Velocity":46,"Duration":194049,"SoundDuration":194049,"Delta":88375429},{"NoteNumber":57,"Velocity":38,"Duration":194049,"SoundDuration":194049,"Delta":88569479},{"NoteNumber":69,"Velocity":46,"Duration":408949,"SoundDuration":408949,"Delta":88763528},{"NoteNumber":55,"Velocity":44,"Duration":194049,"SoundDuration":194049,"Delta":88763528},{"NoteNumber":57,"Velocity":40,"Duration":214899,"SoundDuration":214899,"Delta":88957577},{"NoteNumber":68,"Velocity":57,"Duration":390625,"SoundDuration":390625,"Delta":89172477},{"NoteNumber":62,"Velocity":48,"Duration":968702,"SoundDuration":968702,"Delta":89172477},{"NoteNumber":45,"Velocity":48,"Duration":1522705,"SoundDuration":1522705,"Delta":89172477},{"NoteNumber":53,"Velocity":48,"Duration":781005,"SoundDuration":781005,"Delta":89172477},{"NoteNumber":67,"Velocity":50,"Duration":195312,"SoundDuration":195312,"Delta":89563102},{"NoteNumber":68,"Velocity":46,"Duration":195067,"SoundDuration":195067,"Delta":89758414},{"NoteNumber":69,"Velocity":55,"Duration":741700,"SoundDuration":741700,"Delta":89953482},{"NoteNumber":52,"Velocity":48,"Duration":741700,"SoundDuration":741700,"Delta":89953482},{"NoteNumber":61,"Velocity":46,"Duration":186298,"SoundDuration":186298,"Delta":90141179},{"NoteNumber":64,"Velocity":46,"Duration":184730,"SoundDuration":184730,"Delta":90327477},{"NoteNumber":67,"Velocity":46,"Duration":182974,"SoundDuration":182974,"Delta":90512208},{"NoteNumber":69,"Velocity":54,"Duration":181645,"SoundDuration":181645,"Delta":90695182},{"NoteNumber":61,"Velocity":51,"Duration":181645,"SoundDuration":181645,"Delta":90695182},{"NoteNumber":73,"Velocity":59,"Duration":181117,"SoundDuration":181117,"Delta":90876828},{"NoteNumber":64,"Velocity":55,"Duration":181117,"SoundDuration":181117,"Delta":90876828},{"NoteNumber":76,"Velocity":63,"Duration":184767,"SoundDuration":184767,"Delta":91057946},{"NoteNumber":67,"Velocity":61,"Duration":184767,"SoundDuration":184767,"Delta":91057946},{"NoteNumber":79,"Velocity":71,"Duration":188667,"SoundDuration":188667,"Delta":91242713},{"NoteNumber":69,"Velocity":68,"Duration":188667,"SoundDuration":188667,"Delta":91242713},{"NoteNumber":82,"Velocity":78,"Duration":420256,"SoundDuration":420256,"Delta":91431381},{"NoteNumber":79,"Velocity":62,"Duration":420256,"SoundDuration":420256,"Delta":91431381},{"NoteNumber":76,"Velocity":62,"Duration":420256,"SoundDuration":420256,"Delta":91431381},{"NoteNumber":74,"Velocity":62,"Duration":420256,"SoundDuration":420256,"Delta":91431381},{"NoteNumber":70,"Velocity":62,"Duration":420256,"SoundDuration":420256,"Delta":91431381},{"NoteNumber":55,"Velocity":48,"Duration":420256,"SoundDuration":420256,"Delta":91431381},{"NoteNumber":62,"Velocity":48,"Duration":420256,"SoundDuration":420256,"Delta":91431381},{"NoteNumber":67,"Velocity":61,"Duration":420256,"SoundDuration":420256,"Delta":91431381},{"NoteNumber":64,"Velocity":48,"Duration":420256,"SoundDuration":420256,"Delta":91431381},{"NoteNumber":81,"Velocity":70,"Duration":420256,"SoundDuration":420256,"Delta":91855169},{"NoteNumber":79,"Velocity":55,"Duration":420256,"SoundDuration":420256,"Delta":91855169},{"NoteNumber":76,"Velocity":55,"Duration":420256,"SoundDuration":420256,"Delta":91855169},{"NoteNumber":73,"Velocity":55,"Duration":420256,"SoundDuration":420256,"Delta":91855169},{"NoteNumber":69,"Velocity":55,"Duration":420256,"SoundDuration":420256,"Delta":91855169},{"NoteNumber":67,"Velocity":53,"Duration":420256,"SoundDuration":420256,"Delta":91855169},{"NoteNumber":64,"Velocity":42,"Duration":420256,"SoundDuration":420256,"Delta":91855169},{"NoteNumber":61,"Velocity":42,"Duration":420256,"SoundDuration":420256,"Delta":91855169},{"NoteNumber":57,"Velocity":42,"Duration":420256,"SoundDuration":420256,"Delta":91855169},{"NoteNumber":72,"Velocity":60,"Duration":405866,"SoundDuration":405866,"Delta":92278958},{"NoteNumber":78,"Velocity":71,"Duration":405866,"SoundDuration":405866,"Delta":92278958},{"NoteNumber":74,"Velocity":60,"Duration":405866,"SoundDuration":405866,"Delta":92278958},{"NoteNumber":66,"Velocity":60,"Duration":405866,"SoundDuration":405866,"Delta":92278958},{"NoteNumber":50,"Velocity":51,"Duration":405866,"SoundDuration":405866,"Delta":92278958},{"NoteNumber":57,"Velocity":51,"Duration":405866,"SoundDuration":405866,"Delta":92278958},{"NoteNumber":62,"Velocity":61,"Duration":405866,"SoundDuration":405866,"Delta":92278958},{"NoteNumber":55,"Velocity":44,"Duration":378309,"SoundDuration":378309,"Delta":92688235},{"NoteNumber":67,"Velocity":59,"Duration":189154,"SoundDuration":189154,"Delta":92688235},{"NoteNumber":60,"Velocity":44,"Duration":378309,"SoundDuration":378309,"Delta":92688235},{"NoteNumber":51,"Velocity":44,"Duration":378309,"SoundDuration":378309,"Delta":92688235},{"NoteNumber":45,"Velocity":37,"Duration":378309,"SoundDuration":378309,"Delta":92688235},{"NoteNumber":69,"Velocity":52,"Duration":189154,"SoundDuration":189154,"Delta":92877390},{"NoteNumber":54,"Velocity":36,"Duration":423728,"SoundDuration":423728,"Delta":93066545},{"NoteNumber":60,"Velocity":36,"Duration":423728,"SoundDuration":423728,"Delta":93066545},{"NoteNumber":66,"Velocity":43,"Duration":423728,"SoundDuration":423728,"Delta":93066545},{"NoteNumber":45,"Velocity":34,"Duration":423728,"SoundDuration":423728,"Delta":93066545},{"NoteNumber":50,"Velocity":40,"Duration":423728,"SoundDuration":423728,"Delta":93066545},{"NoteNumber":38,"Velocity":34,"Duration":423728,"SoundDuration":423728,"Delta":93066545},{"NoteNumber":69,"Velocity":35,"Duration":196592,"SoundDuration":196592,"Delta":93490274},{"NoteNumber":70,"Velocity":40,"Duration":196592,"SoundDuration":196592,"Delta":93686866},{"NoteNumber":72,"Velocity":44,"Duration":190355,"SoundDuration":190355,"Delta":93883459},{"NoteNumber":84,"Velocity":48,"Duration":183374,"SoundDuration":183374,"Delta":94073814},{"NoteNumber":66,"Velocity":32,"Duration":571472,"SoundDuration":571472,"Delta":94073814},{"NoteNumber":82,"Velocity":55,"Duration":194049,"SoundDuration":194049,"Delta":94257188},{"NoteNumber":67,"Velocity":34,"Duration":194049,"SoundDuration":194049,"Delta":94257188},{"NoteNumber":81,"Velocity":48,"Duration":194049,"SoundDuration":194049,"Delta":94451237},{"NoteNumber":69,"Velocity":39,"Duration":194049,"SoundDuration":194049,"Delta":94451237},{"NoteNumber":79,"Velocity":58,"Duration":1174603,"SoundDuration":1174603,"Delta":94645286},{"NoteNumber":74,"Velocity":58,"Duration":776196,"SoundDuration":776196,"Delta":94645286},{"NoteNumber":65,"Velocity":39,"Duration":776196,"SoundDuration":776196,"Delta":94645286},{"NoteNumber":70,"Velocity":46,"Duration":194049,"SoundDuration":194049,"Delta":94645286},{"NoteNumber":69,"Velocity":40,"Duration":194049,"SoundDuration":194049,"Delta":94839336},{"NoteNumber":67,"Velocity":41,"Duration":194049,"SoundDuration":194049,"Delta":95033385},{"NoteNumber":69,"Velocity":34,"Duration":194049,"SoundDuration":194049,"Delta":95227434},{"NoteNumber":72,"Velocity":53,"Duration":1552788,"SoundDuration":1552788,"Delta":95421483},{"NoteNumber":63,"Velocity":28,"Duration":1552788,"SoundDuration":1552788,"Delta":95421483},{"NoteNumber":67,"Velocity":40,"Duration":398406,"SoundDuration":398406,"Delta":95421483},{"NoteNumber":81,"Velocity":56,"Duration":388098,"SoundDuration":388098,"Delta":95819890},{"NoteNumber":65,"Velocity":34,"Duration":194049,"SoundDuration":194049,"Delta":95819890},{"NoteNumber":67,"Velocity":39,"Duration":194049,"SoundDuration":194049,"Delta":96013939},{"NoteNumber":77,"Velocity":58,"Duration":1177776,"SoundDuration":1177776,"Delta":96207988},{"NoteNumber":69,"Velocity":46,"Duration":191570,"SoundDuration":191570,"Delta":96207988},{"NoteNumber":67,"Velocity":40,"Duration":191571,"SoundDuration":191571,"Delta":96399559},{"NoteNumber":65,"Velocity":41,"Duration":191570,"SoundDuration":191570,"Delta":96591130},{"NoteNumber":67,"Velocity":34,"Duration":191570,"SoundDuration":191570,"Delta":96782701},{"NoteNumber":70,"Velocity":45,"Duration":411492,"SoundDuration":411492,"Delta":96974272},{"NoteNumber":62,"Velocity":39,"Duration":411492,"SoundDuration":411492,"Delta":96974272},{"NoteNumber":65,"Velocity":40,"Duration":799590,"SoundDuration":799590,"Delta":96974272},{"NoteNumber":79,"Velocity":54,"Duration":388098,"SoundDuration":388098,"Delta":97385765},{"NoteNumber":68,"Velocity":54,"Duration":388098,"SoundDuration":388098,"Delta":97385765},{"NoteNumber":60,"Velocity":34,"Duration":194049,"SoundDuration":194049,"Delta":97385765},{"NoteNumber":62,"Velocity":39,"Duration":194049,"SoundDuration":194049,"Delta":97579814},{"NoteNumber":75,"Velocity":49,"Duration":388098,"SoundDuration":388098,"Delta":97773863},{"NoteNumber":67,"Velocity":49,"Duration":797047,"SoundDuration":797047,"Delta":97773863},{"NoteNumber":63,"Velocity":46,"Duration":194049,"SoundDuration":194049,"Delta":97773863},{"NoteNumber":62,"Velocity":38,"Duration":194049,"SoundDuration":194049,"Delta":97967912},{"NoteNumber":74,"Velocity":46,"Duration":408949,"SoundDuration":408949,"Delta":98161962},{"NoteNumber":58,"Velocity":44,"Duration":194049,"SoundDuration":194049,"Delta":98161962},{"NoteNumber":60,"Velocity":40,"Duration":214899,"SoundDuration":214899,"Delta":98356011},{"NoteNumber":73,"Velocity":57,"Duration":390625,"SoundDuration":390625,"Delta":98570911},{"NoteNumber":67,"Velocity":48,"Duration":968702,"SoundDuration":968702,"Delta":98570911},{"NoteNumber":50,"Velocity":48,"Duration":1522705,"SoundDuration":1522705,"Delta":98570911},{"NoteNumber":58,"Velocity":48,"Duration":781005,"SoundDuration":781005,"Delta":98570911},{"NoteNumber":72,"Velocity":50,"Duration":195312,"SoundDuration":195312,"Delta":98961536},{"NoteNumber":73,"Velocity":46,"Duration":195067,"SoundDuration":195067,"Delta":99156848},{"NoteNumber":74,"Velocity":55,"Duration":741700,"SoundDuration":741700,"Delta":99351916},{"NoteNumber":57,"Velocity":48,"Duration":741700,"SoundDuration":741700,"Delta":99351916},{"NoteNumber":65,"Velocity":46,"Duration":186298,"SoundDuration":186298,"Delta":99539613},{"NoteNumber":69,"Velocity":49,"Duration":184730,"SoundDuration":184730,"Delta":99725911},{"NoteNumber":73,"Velocity":46,"Duration":182974,"SoundDuration":182974,"Delta":99910641},{"NoteNumber":74,"Velocity":56,"Duration":181645,"SoundDuration":181645,"Delta":100093616},{"NoteNumber":62,"Velocity":51,"Duration":363912,"SoundDuration":363912,"Delta":100093616},{"NoteNumber":77,"Velocity":49,"Duration":182267,"SoundDuration":182267,"Delta":100275262},{"NoteNumber":81,"Velocity":49,"Duration":189190,"SoundDuration":189190,"Delta":100457529},{"NoteNumber":60,"Velocity":57,"Duration":422472,"SoundDuration":422472,"Delta":100457529},{"NoteNumber":85,"Velocity":51,"Duration":233281,"SoundDuration":233281,"Delta":100646720},{"NoteNumber":74,"Velocity":44,"Duration":368192,"SoundDuration":368192,"Delta":100880001},{"NoteNumber":77,"Velocity":44,"Duration":1101639,"SoundDuration":1101639,"Delta":100880001},{"NoteNumber":79,"Velocity":44,"Duration":918713,"SoundDuration":918713,"Delta":100880001},{"NoteNumber":86,"Velocity":64,"Duration":1101639,"SoundDuration":1101639,"Delta":100880001},{"NoteNumber":58,"Velocity":31,"Duration":1101639,"SoundDuration":1101639,"Delta":100880001},{"NoteNumber":62,"Velocity":31,"Duration":1101639,"SoundDuration":1101639,"Delta":100880001},{"NoteNumber":67,"Velocity":39,"Duration":1101639,"SoundDuration":1101639,"Delta":100880001},{"NoteNumber":74,"Velocity":52,"Duration":92821,"SoundDuration":92821,"Delta":101251288},{"NoteNumber":74,"Velocity":53,"Duration":92821,"SoundDuration":92821,"Delta":101436932},{"NoteNumber":79,"Velocity":56,"Duration":359065,"SoundDuration":359065,"Delta":101622575},{"NoteNumber":77,"Velocity":47,"Duration":182926,"SoundDuration":182926,"Delta":101798714},{"NoteNumber":84,"Velocity":60,"Duration":88610,"SoundDuration":88610,"Delta":101981641},{"NoteNumber":76,"Velocity":56,"Duration":88610,"SoundDuration":88610,"Delta":101981641},{"NoteNumber":60,"Velocity":48,"Duration":88610,"SoundDuration":88610,"Delta":101981641},{"NoteNumber":72,"Velocity":46,"Duration":266390,"SoundDuration":266390,"Delta":102158862},{"NoteNumber":60,"Velocity":41,"Duration":88610,"SoundDuration":88610,"Delta":102158862},{"NoteNumber":77,"Velocity":46,"Duration":89168,"SoundDuration":89168,"Delta":102336083},{"NoteNumber":81,"Velocity":57,"Duration":89168,"SoundDuration":89168,"Delta":102336083},{"NoteNumber":65,"Velocity":48,"Duration":178337,"SoundDuration":178337,"Delta":102336083},{"NoteNumber":63,"Velocity":40,"Duration":178337,"SoundDuration":178337,"Delta":102514421},{"NoteNumber":70,"Velocity":46,"Duration":94494,"SoundDuration":94494,"Delta":102692759},{"NoteNumber":77,"Velocity":46,"Duration":94494,"SoundDuration":94494,"Delta":102692759},{"NoteNumber":82,"Velocity":54,"Duration":94494,"SoundDuration":94494,"Delta":102692759},{"NoteNumber":62,"Velocity":48,"Duration":188988,"SoundDuration":188988,"Delta":102692759},{"NoteNumber":58,"Velocity":42,"Duration":188988,"SoundDuration":188988,"Delta":102881748},{"NoteNumber":72,"Velocity":44,"Duration":360474,"SoundDuration":360474,"Delta":103070736},{"NoteNumber":75,"Velocity":44,"Duration":1084843,"SoundDuration":1084843,"Delta":103070736},{"NoteNumber":77,"Velocity":44,"Duration":904229,"SoundDuration":904229,"Delta":103070736},{"NoteNumber":84,"Velocity":64,"Duration":1084843,"SoundDuration":1084843,"Delta":103070736},{"NoteNumber":57,"Velocity":31,"Duration":1084843,"SoundDuration":1084843,"Delta":103070736},{"NoteNumber":60,"Velocity":31,"Duration":1084843,"SoundDuration":1084843,"Delta":103070736},{"NoteNumber":65,"Velocity":39,"Duration":1084843,"SoundDuration":1084843,"Delta":103070736},{"NoteNumber":72,"Velocity":52,"Duration":90875,"SoundDuration":90875,"Delta":103434240},{"NoteNumber":72,"Velocity":53,"Duration":90876,"SoundDuration":90876,"Delta":103615992},{"NoteNumber":77,"Velocity":56,"Duration":357835,"SoundDuration":357835,"Delta":103797744},{"NoteNumber":75,"Velocity":47,"Duration":180614,"SoundDuration":180614,"Delta":103974965},{"NoteNumber":82,"Velocity":60,"Duration":86986,"SoundDuration":86986,"Delta":104155579},{"NoteNumber":74,"Velocity":56,"Duration":86986,"SoundDuration":86986,"Delta":104155579},{"NoteNumber":58,"Velocity":48,"Duration":86986,"SoundDuration":86986,"Delta":104155579},{"NoteNumber":70,"Velocity":46,"Duration":265831,"SoundDuration":265831,"Delta":104329553},{"NoteNumber":58,"Velocity":41,"Duration":88610,"SoundDuration":88610,"Delta":104329553},{"NoteNumber":75,"Velocity":46,"Duration":88610,"SoundDuration":88610,"Delta":104506774},{"NoteNumber":79,"Velocity":57,"Duration":88610,"SoundDuration":88610,"Delta":104506774},{"NoteNumber":63,"Velocity":48,"Duration":177221,"SoundDuration":177221,"Delta":104506774},{"NoteNumber":62,"Velocity":40,"Duration":177221,"SoundDuration":177221,"Delta":104683995},{"NoteNumber":69,"Velocity":46,"Duration":95773,"SoundDuration":95773,"Delta":104861216},{"NoteNumber":75,"Velocity":46,"Duration":95773,"SoundDuration":95773,"Delta":104861216},{"NoteNumber":81,"Velocity":54,"Duration":95773,"SoundDuration":95773,"Delta":104861216},{"NoteNumber":60,"Velocity":48,"Duration":191546,"SoundDuration":191546,"Delta":104861216},{"NoteNumber":57,"Velocity":42,"Duration":191546,"SoundDuration":191546,"Delta":105052763},{"NoteNumber":70,"Velocity":44,"Duration":360474,"SoundDuration":360474,"Delta":105244309},{"NoteNumber":79,"Velocity":44,"Duration":1085981,"SoundDuration":1085981,"Delta":105244309},{"NoteNumber":82,"Velocity":64,"Duration":1085981,"SoundDuration":1085981,"Delta":105244309},{"NoteNumber":55,"Velocity":31,"Duration":1085981,"SoundDuration":1085981,"Delta":105244309},{"NoteNumber":62,"Velocity":39,"Duration":1085981,"SoundDuration":1085981,"Delta":105244309},{"NoteNumber":70,"Velocity":52,"Duration":90875,"SoundDuration":90875,"Delta":105607813},{"NoteNumber":70,"Velocity":53,"Duration":90876,"SoundDuration":90876,"Delta":105789565},{"NoteNumber":75,"Velocity":56,"Duration":177221,"SoundDuration":177221,"Delta":105971317},{"NoteNumber":74,"Velocity":47,"Duration":181752,"SoundDuration":181752,"Delta":106148539},{"NoteNumber":82,"Velocity":60,"Duration":87524,"SoundDuration":87524,"Delta":106330291},{"NoteNumber":73,"Velocity":56,"Duration":87524,"SoundDuration":87524,"Delta":106330291},{"NoteNumber":57,"Velocity":48,"Duration":87524,"SoundDuration":87524,"Delta":106330291},{"NoteNumber":69,"Velocity":46,"Duration":263660,"SoundDuration":263660,"Delta":106505340},{"NoteNumber":57,"Velocity":41,"Duration":87524,"SoundDuration":87524,"Delta":106505340},{"NoteNumber":74,"Velocity":46,"Duration":88610,"SoundDuration":88610,"Delta":106680390},{"NoteNumber":77,"Velocity":57,"Duration":88610,"SoundDuration":88610,"Delta":106680390},{"NoteNumber":62,"Velocity":48,"Duration":177221,"SoundDuration":177221,"Delta":106680390},{"NoteNumber":60,"Velocity":40,"Duration":177221,"SoundDuration":177221,"Delta":106857611},{"NoteNumber":67,"Velocity":46,"Duration":93879,"SoundDuration":93879,"Delta":107034832},{"NoteNumber":74,"Velocity":46,"Duration":93879,"SoundDuration":93879,"Delta":107034832},{"NoteNumber":79,"Velocity":54,"Duration":93879,"SoundDuration":93879,"Delta":107034832},{"NoteNumber":58,"Velocity":48,"Duration":187758,"SoundDuration":187758,"Delta":107034832},{"NoteNumber":55,"Velocity":42,"Duration":187758,"SoundDuration":187758,"Delta":107222590},{"NoteNumber":69,"Velocity":44,"Duration":715782,"SoundDuration":715782,"Delta":107410349},{"NoteNumber":76,"Velocity":44,"Duration":443153,"SoundDuration":443153,"Delta":107410349},{"NoteNumber":81,"Velocity":56,"Duration":176139,"SoundDuration":176139,"Delta":107410349},{"NoteNumber":61,"Velocity":47,"Duration":715782,"SoundDuration":715782,"Delta":107410349},{"NoteNumber":57,"Velocity":42,"Duration":715782,"SoundDuration":715782,"Delta":107410349},{"NoteNumber":79,"Velocity":45,"Duration":176138,"SoundDuration":176138,"Delta":107586488},{"NoteNumber":76,"Velocity":48,"Duration":363504,"SoundDuration":363504,"Delta":107762627},{"NoteNumber":77,"Velocity":45,"Duration":90875,"SoundDuration":90875,"Delta":107944379},{"NoteNumber":81,"Velocity":61,"Duration":177221,"SoundDuration":177221,"Delta":108126131},{"NoteNumber":69,"Velocity":52,"Duration":354442,"SoundDuration":354442,"Delta":108126131},{"NoteNumber":79,"Velocity":49,"Duration":177221,"SoundDuration":177221,"Delta":108303352},{"NoteNumber":76,"Velocity":56,"Duration":91463,"SoundDuration":91463,"Delta":108480573},{"NoteNumber":67,"Velocity":49,"Duration":365853,"SoundDuration":365853,"Delta":108480573},{"NoteNumber":77,"Velocity":58,"Duration":91463,"SoundDuration":91463,"Delta":108663500},{"NoteNumber":81,"Velocity":68,"Duration":176139,"SoundDuration":176139,"Delta":108846427},{"NoteNumber":74,"Velocity":65,"Duration":354477,"SoundDuration":354477,"Delta":108846427},{"NoteNumber":79,"Velocity":60,"Duration":178337,"SoundDuration":178337,"Delta":109022566},{"NoteNumber":76,"Velocity":63,"Duration":89168,"SoundDuration":89168,"Delta":109200904},{"NoteNumber":73,"Velocity":55,"Duration":389814,"SoundDuration":389814,"Delta":109200904},{"NoteNumber":77,"Velocity":58,"Duration":105738,"SoundDuration":105738,"Delta":109379242},{"NoteNumber":79,"Velocity":66,"Duration":640243,"SoundDuration":640243,"Delta":109590718},{"NoteNumber":82,"Velocity":84,"Duration":182926,"SoundDuration":182926,"Delta":109590718},{"NoteNumber":33,"Velocity":89,"Duration":1452003,"SoundDuration":1452003,"Delta":109590718},{"NoteNumber":81,"Velocity":59,"Duration":182926,"SoundDuration":182926,"Delta":109773644},{"NoteNumber":77,"Velocity":68,"Duration":365853,"SoundDuration":365853,"Delta":109956571},{"NoteNumber":79,"Velocity":60,"Duration":182926,"SoundDuration":182926,"Delta":110139498},{"NoteNumber":82,"Velocity":61,"Duration":177221,"SoundDuration":177221,"Delta":110322425},{"NoteNumber":74,"Velocity":52,"Duration":354442,"SoundDuration":354442,"Delta":110322425},{"NoteNumber":81,"Velocity":49,"Duration":177221,"SoundDuration":177221,"Delta":110499646},{"NoteNumber":77,"Velocity":56,"Duration":91463,"SoundDuration":91463,"Delta":110676867},{"NoteNumber":73,"Velocity":49,"Duration":365853,"SoundDuration":365853,"Delta":110676867},{"NoteNumber":79,"Velocity":58,"Duration":91463,"SoundDuration":91463,"Delta":110859794},{"NoteNumber":82,"Velocity":61,"Duration":177221,"SoundDuration":177221,"Delta":111042721},{"NoteNumber":67,"Velocity":44,"Duration":354442,"SoundDuration":354442,"Delta":111042721},{"NoteNumber":70,"Velocity":52,"Duration":354442,"SoundDuration":354442,"Delta":111042721},{"NoteNumber":81,"Velocity":49,"Duration":177221,"SoundDuration":177221,"Delta":111219942},{"NoteNumber":77,"Velocity":56,"Duration":91463,"SoundDuration":91463,"Delta":111397163},{"NoteNumber":65,"Velocity":41,"Duration":365853,"SoundDuration":365853,"Delta":111397163},{"NoteNumber":69,"Velocity":49,"Duration":365853,"SoundDuration":365853,"Delta":111397163},{"NoteNumber":79,"Velocity":58,"Duration":91463,"SoundDuration":91463,"Delta":111580090},{"NoteNumber":81,"Velocity":61,"Duration":177221,"SoundDuration":177221,"Delta":111763017},{"NoteNumber":62,"Velocity":44,"Duration":354442,"SoundDuration":354442,"Delta":111763017},{"NoteNumber":65,"Velocity":52,"Duration":354442,"SoundDuration":354442,"Delta":111763017},{"NoteNumber":79,"Velocity":49,"Duration":177221,"SoundDuration":177221,"Delta":111940238},{"NoteNumber":76,"Velocity":56,"Duration":91463,"SoundDuration":91463,"Delta":112117459},{"NoteNumber":64,"Velocity":41,"Duration":365853,"SoundDuration":365853,"Delta":112117459},{"NoteNumber":61,"Velocity":49,"Duration":365853,"SoundDuration":365853,"Delta":112117459},{"NoteNumber":77,"Velocity":58,"Duration":91463,"SoundDuration":91463,"Delta":112300386},{"NoteNumber":73,"Velocity":57,"Duration":347624,"SoundDuration":347624,"Delta":112483313},{"NoteNumber":81,"Velocity":67,"Duration":173812,"SoundDuration":173812,"Delta":112483313},{"NoteNumber":58,"Velocity":48,"Duration":347624,"SoundDuration":347624,"Delta":112483313},{"NoteNumber":79,"Velocity":53,"Duration":173812,"SoundDuration":173812,"Delta":112657125},{"NoteNumber":72,"Velocity":54,"Duration":365853,"SoundDuration":365853,"Delta":112830937},{"NoteNumber":76,"Velocity":62,"Duration":91463,"SoundDuration":91463,"Delta":112830937},{"NoteNumber":57,"Velocity":45,"Duration":365853,"SoundDuration":365853,"Delta":112830937},{"NoteNumber":77,"Velocity":64,"Duration":91463,"SoundDuration":91463,"Delta":113013864},{"NoteNumber":69,"Velocity":58,"Duration":347624,"SoundDuration":347624,"Delta":113196791},{"NoteNumber":81,"Velocity":68,"Duration":173812,"SoundDuration":173812,"Delta":113196791},{"NoteNumber":53,"Velocity":49,"Duration":347624,"SoundDuration":347624,"Delta":113196791},{"NoteNumber":79,"Velocity":55,"Duration":173812,"SoundDuration":173812,"Delta":113370603},{"NoteNumber":67,"Velocity":56,"Duration":365853,"SoundDuration":365853,"Delta":113544415},{"NoteNumber":76,"Velocity":64,"Duration":91463,"SoundDuration":91463,"Delta":113544415},{"NoteNumber":52,"Velocity":47,"Duration":365853,"SoundDuration":365853,"Delta":113544415},{"NoteNumber":77,"Velocity":67,"Duration":91463,"SoundDuration":91463,"Delta":113727342},{"NoteNumber":64,"Velocity":60,"Duration":343642,"SoundDuration":343642,"Delta":113910269},{"NoteNumber":79,"Velocity":71,"Duration":171821,"SoundDuration":171821,"Delta":113910269},{"NoteNumber":33,"Velocity":44,"Duration":694179,"SoundDuration":694179,"Delta":113910269},{"NoteNumber":48,"Velocity":51,"Duration":343642,"SoundDuration":343642,"Delta":113910269},{"NoteNumber":77,"Velocity":57,"Duration":171821,"SoundDuration":171821,"Delta":114082090},{"NoteNumber":62,"Velocity":58,"Duration":357995,"SoundDuration":357995,"Delta":114253911},{"NoteNumber":74,"Velocity":66,"Duration":178997,"SoundDuration":178997,"Delta":114253911},{"NoteNumber":46,"Velocity":48,"Duration":357995,"SoundDuration":357995,"Delta":114253911},{"NoteNumber":76,"Velocity":69,"Duration":178997,"SoundDuration":178997,"Delta":114432909},{"NoteNumber":70,"Velocity":62,"Duration":339751,"SoundDuration":339751,"Delta":114611906},{"NoteNumber":77,"Velocity":73,"Duration":169875,"SoundDuration":169875,"Delta":114611906},{"NoteNumber":33,"Velocity":45,"Duration":686154,"SoundDuration":686154,"Delta":114611906},{"NoteNumber":43,"Velocity":53,"Duration":339751,"SoundDuration":339751,"Delta":114611906},{"NoteNumber":76,"Velocity":59,"Duration":169875,"SoundDuration":169875,"Delta":114781782},{"NoteNumber":69,"Velocity":60,"Duration":353773,"SoundDuration":353773,"Delta":114951657},{"NoteNumber":73,"Velocity":68,"Duration":176886,"SoundDuration":176886,"Delta":114951657},{"NoteNumber":41,"Velocity":50,"Duration":353773,"SoundDuration":353773,"Delta":114951657},{"NoteNumber":74,"Velocity":71,"Duration":176886,"SoundDuration":176886,"Delta":115128544},{"NoteNumber":68,"Velocity":65,"Duration":335946,"SoundDuration":335946,"Delta":115305431},{"NoteNumber":76,"Velocity":76,"Duration":167973,"SoundDuration":167973,"Delta":115305431},{"NoteNumber":33,"Velocity":47,"Duration":678312,"SoundDuration":678312,"Delta":115305431},{"NoteNumber":40,"Velocity":55,"Duration":335946,"SoundDuration":335946,"Delta":115305431},{"NoteNumber":74,"Velocity":61,"Duration":167973,"SoundDuration":167973,"Delta":115473404},{"NoteNumber":67,"Velocity":61,"Duration":349650,"SoundDuration":349650,"Delta":115641377},{"NoteNumber":71,"Velocity":70,"Duration":174825,"SoundDuration":174825,"Delta":115641377},{"NoteNumber":52,"Velocity":51,"Duration":349650,"SoundDuration":349650,"Delta":115641377},{"NoteNumber":73,"Velocity":73,"Duration":174825,"SoundDuration":174825,"Delta":115816202},{"NoteNumber":66,"Velocity":66,"Duration":335946,"SoundDuration":335946,"Delta":115991027},{"NoteNumber":74,"Velocity":78,"Duration":167973,"SoundDuration":167973,"Delta":115991027},{"NoteNumber":45,"Velocity":48,"Duration":676328,"SoundDuration":676328,"Delta":115991027},{"NoteNumber":50,"Velocity":56,"Duration":335946,"SoundDuration":335946,"Delta":115991027},{"NoteNumber":72,"Velocity":63,"Duration":167973,"SoundDuration":167973,"Delta":116159000},{"NoteNumber":65,"Velocity":63,"Duration":347624,"SoundDuration":347624,"Delta":116326973},{"NoteNumber":69,"Velocity":72,"Duration":173812,"SoundDuration":173812,"Delta":116326973},{"NoteNumber":57,"Velocity":53,"Duration":347624,"SoundDuration":347624,"Delta":116326973},{"NoteNumber":70,"Velocity":75,"Duration":173812,"SoundDuration":173812,"Delta":116500785},{"NoteNumber":64,"Velocity":68,"Duration":328586,"SoundDuration":328586,"Delta":116674598},{"NoteNumber":72,"Velocity":80,"Duration":164293,"SoundDuration":164293,"Delta":116674598},{"NoteNumber":45,"Velocity":50,"Duration":665070,"SoundDuration":665070,"Delta":116674598},{"NoteNumber":55,"Velocity":58,"Duration":328586,"SoundDuration":328586,"Delta":116674598},{"NoteNumber":70,"Velocity":65,"Duration":164293,"SoundDuration":164293,"Delta":116838891},{"NoteNumber":63,"Velocity":65,"Duration":343642,"SoundDuration":343642,"Delta":117003185},{"NoteNumber":67,"Velocity":75,"Duration":171821,"SoundDuration":171821,"Delta":117003185},{"NoteNumber":60,"Velocity":54,"Duration":343642,"SoundDuration":343642,"Delta":117003185},{"NoteNumber":69,"Velocity":78,"Duration":171821,"SoundDuration":171821,"Delta":117175006},{"NoteNumber":62,"Velocity":70,"Duration":664778,"SoundDuration":664778,"Delta":117346827},{"NoteNumber":70,"Velocity":82,"Duration":162513,"SoundDuration":162513,"Delta":117346827},{"NoteNumber":53,"Velocity":51,"Duration":657699,"SoundDuration":657699,"Delta":117346827},{"NoteNumber":58,"Velocity":59,"Duration":325027,"SoundDuration":325027,"Delta":117346827},{"NoteNumber":69,"Velocity":67,"Duration":162513,"SoundDuration":162513,"Delta":117509341},{"NoteNumber":65,"Velocity":77,"Duration":169875,"SoundDuration":169875,"Delta":117671854},{"NoteNumber":62,"Velocity":56,"Duration":339751,"SoundDuration":339751,"Delta":117671854},{"NoteNumber":67,"Velocity":80,"Duration":169875,"SoundDuration":169875,"Delta":117841730},{"NoteNumber":69,"Velocity":85,"Duration":160771,"SoundDuration":160771,"Delta":118011605},{"NoteNumber":57,"Velocity":53,"Duration":646848,"SoundDuration":646848,"Delta":118011605},{"NoteNumber":61,"Velocity":61,"Duration":653769,"SoundDuration":653769,"Delta":118011605},{"NoteNumber":67,"Velocity":68,"Duration":160771,"SoundDuration":160771,"Delta":118172377},{"NoteNumber":64,"Velocity":78,"Duration":166112,"SoundDuration":166112,"Delta":118333149},{"NoteNumber":65,"Velocity":81,"Duration":166113,"SoundDuration":166113,"Delta":118499262},{"NoteNumber":69,"Velocity":72,"Duration":165198,"SoundDuration":165198,"Delta":118665375},{"NoteNumber":81,"Velocity":85,"Duration":165198,"SoundDuration":165198,"Delta":118665375},{"NoteNumber":57,"Velocity":72,"Duration":165198,"SoundDuration":165198,"Delta":118665375},{"NoteNumber":79,"Velocity":68,"Duration":165198,"SoundDuration":165198,"Delta":118830573},{"NoteNumber":55,"Velocity":57,"Duration":165198,"SoundDuration":165198,"Delta":118830573},{"NoteNumber":76,"Velocity":78,"Duration":171821,"SoundDuration":171821,"Delta":118995771},{"NoteNumber":52,"Velocity":66,"Duration":171821,"SoundDuration":171821,"Delta":118995771},{"NoteNumber":77,"Velocity":81,"Duration":171821,"SoundDuration":171821,"Delta":119167592},{"NoteNumber":53,"Velocity":68,"Duration":171821,"SoundDuration":171821,"Delta":119167592},{"NoteNumber":81,"Velocity":72,"Duration":169875,"SoundDuration":169875,"Delta":119339414},{"NoteNumber":93,"Velocity":85,"Duration":169875,"SoundDuration":169875,"Delta":119339414},{"NoteNumber":69,"Velocity":72,"Duration":169875,"SoundDuration":169875,"Delta":119339414},{"NoteNumber":91,"Velocity":68,"Duration":169875,"SoundDuration":169875,"Delta":119509289},{"NoteNumber":67,"Velocity":57,"Duration":169875,"SoundDuration":169875,"Delta":119509289},{"NoteNumber":88,"Velocity":78,"Duration":189154,"SoundDuration":189154,"Delta":119679165},{"NoteNumber":64,"Velocity":66,"Duration":189154,"SoundDuration":189154,"Delta":119679165},{"NoteNumber":89,"Velocity":81,"Duration":63051,"SoundDuration":63051,"Delta":119868320},{"NoteNumber":65,"Velocity":62,"Duration":63051,"SoundDuration":63051,"Delta":119868320},{"NoteNumber":91,"Velocity":84,"Duration":63051,"SoundDuration":63051,"Delta":119931371},{"NoteNumber":67,"Velocity":65,"Duration":63051,"SoundDuration":63051,"Delta":119931371},{"NoteNumber":93,"Velocity":87,"Duration":63342,"SoundDuration":63342,"Delta":119994423},{"NoteNumber":69,"Velocity":68,"Duration":63342,"SoundDuration":63342,"Delta":119994423},{"NoteNumber":82,"Velocity":77,"Duration":98588,"SoundDuration":98588,"Delta":120057766},{"NoteNumber":94,"Velocity":91,"Duration":98588,"SoundDuration":98588,"Delta":120057766},{"NoteNumber":70,"Velocity":71,"Duration":98588,"SoundDuration":98588,"Delta":120057766},{"NoteNumber":81,"Velocity":74,"Duration":94860,"SoundDuration":94860,"Delta":120253133},{"NoteNumber":93,"Velocity":88,"Duration":94860,"SoundDuration":94860,"Delta":120253133},{"NoteNumber":69,"Velocity":68,"Duration":94860,"SoundDuration":94860,"Delta":120253133},{"NoteNumber":91,"Velocity":85,"Duration":91820,"SoundDuration":91820,"Delta":120441521},{"NoteNumber":79,"Velocity":72,"Duration":91820,"SoundDuration":91820,"Delta":120441521},{"NoteNumber":67,"Velocity":68,"Duration":91820,"SoundDuration":91820,"Delta":120441521},{"NoteNumber":89,"Velocity":82,"Duration":88994,"SoundDuration":88994,"Delta":120623435},{"NoteNumber":77,"Velocity":69,"Duration":88994,"SoundDuration":88994,"Delta":120623435},{"NoteNumber":65,"Velocity":68,"Duration":88994,"SoundDuration":88994,"Delta":120623435},{"NoteNumber":76,"Velocity":69,"Duration":89268,"SoundDuration":89268,"Delta":120801928},{"NoteNumber":88,"Velocity":82,"Duration":89268,"SoundDuration":89268,"Delta":120801928},{"NoteNumber":64,"Velocity":74,"Duration":89268,"SoundDuration":89268,"Delta":120801928},{"NoteNumber":74,"Velocity":69,"Duration":88530,"SoundDuration":88530,"Delta":120980165},{"NoteNumber":86,"Velocity":82,"Duration":88530,"SoundDuration":88530,"Delta":120980165},{"NoteNumber":62,"Velocity":68,"Duration":88530,"SoundDuration":88530,"Delta":120980165},{"NoteNumber":72,"Velocity":68,"Duration":87924,"SoundDuration":87924,"Delta":121157018},{"NoteNumber":84,"Velocity":81,"Duration":87924,"SoundDuration":87924,"Delta":121157018},{"NoteNumber":60,"Velocity":68,"Duration":87924,"SoundDuration":87924,"Delta":121157018},{"NoteNumber":70,"Velocity":68,"Duration":87924,"SoundDuration":87924,"Delta":121332868},{"NoteNumber":82,"Velocity":81,"Duration":87924,"SoundDuration":87924,"Delta":121332868},{"NoteNumber":58,"Velocity":65,"Duration":87924,"SoundDuration":87924,"Delta":121332868},{"NoteNumber":81,"Velocity":81,"Duration":87924,"SoundDuration":87924,"Delta":121508718},{"NoteNumber":69,"Velocity":68,"Duration":87924,"SoundDuration":87924,"Delta":121508718},{"NoteNumber":57,"Velocity":67,"Duration":87924,"SoundDuration":87924,"Delta":121508718},{"NoteNumber":67,"Velocity":70,"Duration":88203,"SoundDuration":88203,"Delta":121684329},{"NoteNumber":79,"Velocity":83,"Duration":88203,"SoundDuration":88203,"Delta":121684329},{"NoteNumber":55,"Velocity":68,"Duration":88203,"SoundDuration":88203,"Delta":121684329},{"NoteNumber":77,"Velocity":86,"Duration":90855,"SoundDuration":90855,"Delta":121861918},{"NoteNumber":65,"Velocity":73,"Duration":90855,"SoundDuration":90855,"Delta":121861918},{"NoteNumber":53,"Velocity":73,"Duration":90855,"SoundDuration":90855,"Delta":121861918},{"NoteNumber":76,"Velocity":88,"Duration":93614,"SoundDuration":93614,"Delta":122044971},{"NoteNumber":64,"Velocity":74,"Duration":93614,"SoundDuration":93614,"Delta":122044971},{"NoteNumber":52,"Velocity":77,"Duration":93614,"SoundDuration":93614,"Delta":122044971},{"NoteNumber":38,"Velocity":58,"Duration":1040279,"SoundDuration":1040279,"Delta":122138585},{"NoteNumber":45,"Velocity":58,"Duration":992861,"SoundDuration":992861,"Delta":122186004},{"NoteNumber":70,"Velocity":91,"Duration":170842,"SoundDuration":170842,"Delta":122233826},{"NoteNumber":62,"Velocity":77,"Duration":1030950,"SoundDuration":1030950,"Delta":122233826},{"NoteNumber":74,"Velocity":91,"Duration":1030950,"SoundDuration":1030950,"Delta":122233826},{"NoteNumber":53,"Velocity":76,"Duration":945039,"SoundDuration":945039,"Delta":122233826},{"NoteNumber":69,"Velocity":77,"Duration":170842,"SoundDuration":170842,"Delta":122404669},{"NoteNumber":65,"Velocity":77,"Duration":86405,"SoundDuration":86405,"Delta":122575512},{"NoteNumber":67,"Velocity":73,"Duration":86405,"SoundDuration":86405,"Delta":122748323},{"NoteNumber":70,"Velocity":85,"Duration":171821,"SoundDuration":171821,"Delta":122921134},{"NoteNumber":69,"Velocity":77,"Duration":171821,"SoundDuration":171821,"Delta":123092955},{"NoteNumber":41,"Velocity":58,"Duration":1046248,"SoundDuration":1046248,"Delta":123178865},{"NoteNumber":48,"Velocity":58,"Duration":1003293,"SoundDuration":1003293,"Delta":123221821},{"NoteNumber":72,"Velocity":77,"Duration":1049305,"SoundDuration":1049305,"Delta":123264776},{"NoteNumber":60,"Velocity":65,"Duration":1049305,"SoundDuration":1049305,"Delta":123264776},{"NoteNumber":65,"Velocity":77,"Duration":88967,"SoundDuration":88967,"Delta":123264776},{"NoteNumber":57,"Velocity":75,"Duration":960337,"SoundDuration":960337,"Delta":123264776},{"NoteNumber":67,"Velocity":74,"Duration":86906,"SoundDuration":86906,"Delta":123442712},{"NoteNumber":70,"Velocity":91,"Duration":170842,"SoundDuration":170842,"Delta":123616524},{"NoteNumber":69,"Velocity":77,"Duration":170842,"SoundDuration":170842,"Delta":123787367},{"NoteNumber":65,"Velocity":77,"Duration":88967,"SoundDuration":88967,"Delta":123958210},{"NoteNumber":67,"Velocity":74,"Duration":88967,"SoundDuration":88967,"Delta":124136146},{"NoteNumber":45,"Velocity":58,"Duration":617874,"SoundDuration":617874,"Delta":124225114},{"NoteNumber":52,"Velocity":58,"Duration":573390,"SoundDuration":573390,"Delta":124269598},{"NoteNumber":69,"Velocity":87,"Duration":339751,"SoundDuration":339751,"Delta":124314082},{"NoteNumber":60,"Velocity":75,"Duration":528906,"SoundDuration":528906,"Delta":124314082},{"NoteNumber":67,"Velocity":75,"Duration":169875,"SoundDuration":169875,"Delta":124483957},{"NoteNumber":64,"Velocity":78,"Duration":189154,"SoundDuration":189154,"Delta":124653833},{"NoteNumber":52,"Velocity":66,"Duration":189154,"SoundDuration":189154,"Delta":124653833},{"NoteNumber":76,"Velocity":81,"Duration":63051,"SoundDuration":63051,"Delta":124842988},{"NoteNumber":52,"Velocity":62,"Duration":63051,"SoundDuration":63051,"Delta":124842988},{"NoteNumber":77,"Velocity":84,"Duration":63051,"SoundDuration":63051,"Delta":124906039},{"NoteNumber":53,"Velocity":65,"Duration":63051,"SoundDuration":63051,"Delta":124906039},{"NoteNumber":79,"Velocity":87,"Duration":63342,"SoundDuration":63342,"Delta":124969091},{"NoteNumber":55,"Velocity":68,"Duration":63342,"SoundDuration":63342,"Delta":124969091},{"NoteNumber":69,"Velocity":77,"Duration":98588,"SoundDuration":98588,"Delta":125032434},{"NoteNumber":81,"Velocity":91,"Duration":98588,"SoundDuration":98588,"Delta":125032434},{"NoteNumber":57,"Velocity":71,"Duration":98588,"SoundDuration":98588,"Delta":125032434},{"NoteNumber":67,"Velocity":74,"Duration":94860,"SoundDuration":94860,"Delta":125227801},{"NoteNumber":79,"Velocity":88,"Duration":94860,"SoundDuration":94860,"Delta":125227801},{"NoteNumber":55,"Velocity":68,"Duration":94860,"SoundDuration":94860,"Delta":125227801},{"NoteNumber":77,"Velocity":85,"Duration":91820,"SoundDuration":91820,"Delta":125416190},{"NoteNumber":65,"Velocity":72,"Duration":91820,"SoundDuration":91820,"Delta":125416190},{"NoteNumber":53,"Velocity":68,"Duration":91820,"SoundDuration":91820,"Delta":125416190},{"NoteNumber":76,"Velocity":82,"Duration":88994,"SoundDuration":88994,"Delta":125598103},{"NoteNumber":64,"Velocity":69,"Duration":88994,"SoundDuration":88994,"Delta":125598103},{"NoteNumber":52,"Velocity":68,"Duration":88994,"SoundDuration":88994,"Delta":125598103},{"NoteNumber":62,"Velocity":69,"Duration":89268,"SoundDuration":89268,"Delta":125776597},{"NoteNumber":74,"Velocity":82,"Duration":89268,"SoundDuration":89268,"Delta":125776597},{"NoteNumber":50,"Velocity":74,"Duration":89268,"SoundDuration":89268,"Delta":125776597},{"NoteNumber":60,"Velocity":69,"Duration":88530,"SoundDuration":88530,"Delta":125954833},{"NoteNumber":72,"Velocity":82,"Duration":88530,"SoundDuration":88530,"Delta":125954833},{"NoteNumber":48,"Velocity":68,"Duration":88530,"SoundDuration":88530,"Delta":125954833},{"NoteNumber":58,"Velocity":68,"Duration":87924,"SoundDuration":87924,"Delta":126131687},{"NoteNumber":70,"Velocity":81,"Duration":87924,"SoundDuration":87924,"Delta":126131687},{"NoteNumber":46,"Velocity":68,"Duration":87924,"SoundDuration":87924,"Delta":126131687},{"NoteNumber":57,"Velocity":68,"Duration":87924,"SoundDuration":87924,"Delta":126307537},{"NoteNumber":69,"Velocity":81,"Duration":87924,"SoundDuration":87924,"Delta":126307537},{"NoteNumber":45,"Velocity":65,"Duration":87924,"SoundDuration":87924,"Delta":126307537},{"NoteNumber":36,"Velocity":58,"Duration":1050388,"SoundDuration":1050388,"Delta":126395462},{"NoteNumber":43,"Velocity":58,"Duration":1002969,"SoundDuration":1002969,"Delta":126442880},{"NoteNumber":68,"Velocity":91,"Duration":171821,"SoundDuration":171821,"Delta":126490702},{"NoteNumber":60,"Velocity":77,"Duration":1041058,"SoundDuration":1041058,"Delta":126490702},{"NoteNumber":72,"Velocity":91,"Duration":1041058,"SoundDuration":1041058,"Delta":126490702},{"NoteNumber":51,"Velocity":75,"Duration":955147,"SoundDuration":955147,"Delta":126490702},{"NoteNumber":67,"Velocity":77,"Duration":171821,"SoundDuration":171821,"Delta":126662523},{"NoteNumber":63,"Velocity":77,"Duration":88443,"SoundDuration":88443,"Delta":126834345},{"NoteNumber":65,"Velocity":73,"Duration":88443,"SoundDuration":88443,"Delta":127011231},{"NoteNumber":68,"Velocity":85,"Duration":171821,"SoundDuration":171821,"Delta":127188118},{"NoteNumber":67,"Velocity":77,"Duration":171821,"SoundDuration":171821,"Delta":127359939},{"NoteNumber":39,"Velocity":58,"Duration":1055900,"SoundDuration":1055900,"Delta":127445850},{"NoteNumber":46,"Velocity":58,"Duration":1012945,"SoundDuration":1012945,"Delta":127488805},{"NoteNumber":70,"Velocity":77,"Duration":1059488,"SoundDuration":1059488,"Delta":127531761},{"NoteNumber":58,"Velocity":65,"Duration":1059488,"SoundDuration":1059488,"Delta":127531761},{"NoteNumber":63,"Velocity":77,"Duration":88967,"SoundDuration":88967,"Delta":127531761},{"NoteNumber":55,"Velocity":75,"Duration":969990,"SoundDuration":969990,"Delta":127531761},{"NoteNumber":65,"Velocity":74,"Duration":88967,"SoundDuration":88967,"Delta":127709697},{"NoteNumber":68,"Velocity":91,"Duration":172810,"SoundDuration":172810,"Delta":127887633},{"NoteNumber":67,"Velocity":77,"Duration":172810,"SoundDuration":172810,"Delta":128060444},{"NoteNumber":63,"Velocity":77,"Duration":89498,"SoundDuration":89498,"Delta":128233255},{"NoteNumber":65,"Velocity":74,"Duration":89498,"SoundDuration":89498,"Delta":128412252},{"NoteNumber":43,"Velocity":58,"Duration":618404,"SoundDuration":618404,"Delta":128501751},{"NoteNumber":50,"Velocity":58,"Duration":573655,"SoundDuration":573655,"Delta":128546500},{"NoteNumber":67,"Velocity":87,"Duration":339751,"SoundDuration":339751,"Delta":128591250},{"NoteNumber":58,"Velocity":73,"Duration":528906,"SoundDuration":528906,"Delta":128591250},{"NoteNumber":65,"Velocity":75,"Duration":169875,"SoundDuration":169875,"Delta":128761125},{"NoteNumber":62,"Velocity":78,"Duration":189154,"SoundDuration":189154,"Delta":128931001},{"NoteNumber":50,"Velocity":66,"Duration":189154,"SoundDuration":189154,"Delta":128931001},{"NoteNumber":74,"Velocity":81,"Duration":63051,"SoundDuration":63051,"Delta":129120156},{"NoteNumber":50,"Velocity":62,"Duration":63051,"SoundDuration":63051,"Delta":129120156},{"NoteNumber":75,"Velocity":84,"Duration":63051,"SoundDuration":63051,"Delta":129183207},{"NoteNumber":51,"Velocity":65,"Duration":63051,"SoundDuration":63051,"Delta":129183207},{"NoteNumber":77,"Velocity":87,"Duration":63342,"SoundDuration":63342,"Delta":129246259},{"NoteNumber":53,"Velocity":68,"Duration":63342,"SoundDuration":63342,"Delta":129246259},{"NoteNumber":67,"Velocity":77,"Duration":98588,"SoundDuration":98588,"Delta":129309602},{"NoteNumber":79,"Velocity":91,"Duration":98588,"SoundDuration":98588,"Delta":129309602},{"NoteNumber":55,"Velocity":71,"Duration":98588,"SoundDuration":98588,"Delta":129309602},{"NoteNumber":65,"Velocity":74,"Duration":94860,"SoundDuration":94860,"Delta":129504969},{"NoteNumber":77,"Velocity":88,"Duration":94860,"SoundDuration":94860,"Delta":129504969},{"NoteNumber":53,"Velocity":68,"Duration":94860,"SoundDuration":94860,"Delta":129504969},{"NoteNumber":75,"Velocity":85,"Duration":91820,"SoundDuration":91820,"Delta":129693357},{"NoteNumber":63,"Velocity":72,"Duration":91820,"SoundDuration":91820,"Delta":129693357},{"NoteNumber":51,"Velocity":68,"Duration":91820,"SoundDuration":91820,"Delta":129693357},{"NoteNumber":74,"Velocity":82,"Duration":88994,"SoundDuration":88994,"Delta":129875271},{"NoteNumber":62,"Velocity":69,"Duration":88994,"SoundDuration":88994,"Delta":129875271},{"NoteNumber":50,"Velocity":68,"Duration":88994,"SoundDuration":88994,"Delta":129875271},{"NoteNumber":60,"Velocity":69,"Duration":89268,"SoundDuration":89268,"Delta":130053764},{"NoteNumber":72,"Velocity":82,"Duration":89268,"SoundDuration":89268,"Delta":130053764},{"NoteNumber":48,"Velocity":74,"Duration":89268,"SoundDuration":89268,"Delta":130053764},{"NoteNumber":58,"Velocity":69,"Duration":88530,"SoundDuration":88530,"Delta":130232001},{"NoteNumber":70,"Velocity":82,"Duration":88530,"SoundDuration":88530,"Delta":130232001},{"NoteNumber":46,"Velocity":68,"Duration":88530,"SoundDuration":88530,"Delta":130232001},{"NoteNumber":57,"Velocity":68,"Duration":87925,"SoundDuration":87925,"Delta":130408854},{"NoteNumber":69,"Velocity":81,"Duration":87925,"SoundDuration":87925,"Delta":130408854},{"NoteNumber":45,"Velocity":68,"Duration":87925,"SoundDuration":87925,"Delta":130408854},{"NoteNumber":55,"Velocity":68,"Duration":87924,"SoundDuration":87924,"Delta":130584704},{"NoteNumber":67,"Velocity":81,"Duration":87924,"SoundDuration":87924,"Delta":130584704},{"NoteNumber":43,"Velocity":65,"Duration":87924,"SoundDuration":87924,"Delta":130584704},{"NoteNumber":34,"Velocity":58,"Duration":716255,"SoundDuration":716255,"Delta":130672629},{"NoteNumber":41,"Velocity":58,"Duration":668836,"SoundDuration":668836,"Delta":130720048},{"NoteNumber":70,"Velocity":91,"Duration":716255,"SoundDuration":716255,"Delta":130767870},{"NoteNumber":58,"Velocity":77,"Duration":716255,"SoundDuration":716255,"Delta":130767870},{"NoteNumber":67,"Velocity":91,"Duration":173812,"SoundDuration":173812,"Delta":130767870},{"NoteNumber":50,"Velocity":75,"Duration":621014,"SoundDuration":621014,"Delta":130767870},{"NoteNumber":65,"Velocity":77,"Duration":173812,"SoundDuration":173812,"Delta":130941682},{"NoteNumber":62,"Velocity":77,"Duration":182260,"SoundDuration":182260,"Delta":131115495},{"NoteNumber":64,"Velocity":73,"Duration":91129,"SoundDuration":91129,"Delta":131297755},{"NoteNumber":67,"Velocity":73,"Duration":95240,"SoundDuration":95240,"Delta":131388885},{"NoteNumber":36,"Velocity":58,"Duration":716255,"SoundDuration":716255,"Delta":131388885},{"NoteNumber":45,"Velocity":58,"Duration":668836,"SoundDuration":668836,"Delta":131436303},{"NoteNumber":57,"Velocity":77,"Duration":621014,"SoundDuration":621014,"Delta":131484125},{"NoteNumber":69,"Velocity":91,"Duration":716255,"SoundDuration":716255,"Delta":131484125},{"NoteNumber":52,"Velocity":75,"Duration":621014,"SoundDuration":621014,"Delta":131484125},{"NoteNumber":67,"Velocity":77,"Duration":86906,"SoundDuration":86906,"Delta":131657937},{"NoteNumber":65,"Velocity":77,"Duration":91129,"SoundDuration":91129,"Delta":131831750},{"NoteNumber":57,"Velocity":69,"Duration":186370,"SoundDuration":186370,"Delta":132014010},{"NoteNumber":64,"Velocity":73,"Duration":91129,"SoundDuration":91129,"Delta":132014010},{"NoteNumber":60,"Velocity":73,"Duration":95240,"SoundDuration":95240,"Delta":132105140},{"NoteNumber":38,"Velocity":58,"Duration":625125,"SoundDuration":625125,"Delta":132105140},{"NoteNumber":45,"Velocity":58,"Duration":577706,"SoundDuration":577706,"Delta":132152558},{"NoteNumber":62,"Velocity":91,"Duration":86906,"SoundDuration":86906,"Delta":132200380},{"NoteNumber":65,"Velocity":91,"Duration":719330,"SoundDuration":719330,"Delta":132200380},{"NoteNumber":53,"Velocity":69,"Duration":529884,"SoundDuration":529884,"Delta":132200380},{"NoteNumber":60,"Velocity":77,"Duration":86906,"SoundDuration":86906,"Delta":132374193},{"NoteNumber":58,"Velocity":77,"Duration":91129,"SoundDuration":91129,"Delta":132548005},{"NoteNumber":57,"Velocity":73,"Duration":94577,"SoundDuration":94577,"Delta":132730265},{"NoteNumber":50,"Velocity":62,"Duration":63051,"SoundDuration":63051,"Delta":132730265},{"NoteNumber":52,"Velocity":65,"Duration":63051,"SoundDuration":63051,"Delta":132793316},{"NoteNumber":53,"Velocity":68,"Duration":63342,"SoundDuration":63342,"Delta":132856368},{"NoteNumber":58,"Velocity":69,"Duration":744162,"SoundDuration":744162,"Delta":132919711},{"NoteNumber":62,"Velocity":69,"Duration":744162,"SoundDuration":744162,"Delta":132919711},{"NoteNumber":67,"Velocity":82,"Duration":744162,"SoundDuration":744162,"Delta":132919711},{"NoteNumber":43,"Velocity":60,"Duration":98588,"SoundDuration":98588,"Delta":132919711},{"NoteNumber":55,"Velocity":71,"Duration":98588,"SoundDuration":98588,"Delta":132919711},{"NoteNumber":53,"Velocity":68,"Duration":94860,"SoundDuration":94860,"Delta":133115078},{"NoteNumber":52,"Velocity":68,"Duration":91820,"SoundDuration":91820,"Delta":133303467},{"NoteNumber":50,"Velocity":57,"Duration":88994,"SoundDuration":88994,"Delta":133485380},{"NoteNumber":53,"Velocity":63,"Duration":710069,"SoundDuration":710069,"Delta":133663874},{"NoteNumber":60,"Velocity":63,"Duration":710069,"SoundDuration":710069,"Delta":133663874},{"NoteNumber":65,"Velocity":75,"Duration":710069,"SoundDuration":710069,"Delta":133663874},{"NoteNumber":45,"Velocity":68,"Duration":89268,"SoundDuration":89268,"Delta":133663874},{"NoteNumber":48,"Velocity":68,"Duration":89268,"SoundDuration":89268,"Delta":133663874},{"NoteNumber":46,"Velocity":62,"Duration":88530,"SoundDuration":88530,"Delta":133842110},{"NoteNumber":45,"Velocity":59,"Duration":87976,"SoundDuration":87976,"Delta":134018964},{"NoteNumber":43,"Velocity":58,"Duration":89056,"SoundDuration":89056,"Delta":134195280},{"NoteNumber":50,"Velocity":57,"Duration":780967,"SoundDuration":780967,"Delta":134373943},{"NoteNumber":58,"Velocity":57,"Duration":780967,"SoundDuration":780967,"Delta":134373943},{"NoteNumber":62,"Velocity":68,"Duration":780967,"SoundDuration":780967,"Delta":134373943},{"NoteNumber":34,"Velocity":52,"Duration":184785,"SoundDuration":184785,"Delta":134373943},{"NoteNumber":41,"Velocity":58,"Duration":184785,"SoundDuration":184785,"Delta":134373943},{"NoteNumber":42,"Velocity":58,"Duration":190825,"SoundDuration":190825,"Delta":134558729},{"NoteNumber":43,"Velocity":58,"Duration":98332,"SoundDuration":98332,"Delta":134749554},{"NoteNumber":44,"Velocity":58,"Duration":102533,"SoundDuration":102533,"Delta":134948270},{"NoteNumber":61,"Velocity":73,"Duration":371286,"SoundDuration":371286,"Delta":135154910},{"NoteNumber":52,"Velocity":62,"Duration":371286,"SoundDuration":371286,"Delta":135154910},{"NoteNumber":57,"Velocity":73,"Duration":185643,"SoundDuration":185643,"Delta":135154910},{"NoteNumber":33,"Velocity":26,"Duration":371286,"SoundDuration":371286,"Delta":135154910},{"NoteNumber":45,"Velocity":39,"Duration":371286,"SoundDuration":371286,"Delta":135154910},{"NoteNumber":55,"Velocity":56,"Duration":185643,"SoundDuration":185643,"Delta":135340554},{"NoteNumber":52,"Velocity":52,"Duration":92821,"SoundDuration":92821,"Delta":135526197},{"NoteNumber":53,"Velocity":53,"Duration":92821,"SoundDuration":92821,"Delta":135711841},{"NoteNumber":52,"Velocity":56,"Duration":176139,"SoundDuration":176139,"Delta":135897484},{"NoteNumber":53,"Velocity":47,"Duration":182926,"SoundDuration":182926,"Delta":136073623},{"NoteNumber":65,"Velocity":64,"Duration":88610,"SoundDuration":88610,"Delta":136256550},{"NoteNumber":59,"Velocity":54,"Duration":88610,"SoundDuration":88610,"Delta":136256550},{"NoteNumber":55,"Velocity":51,"Duration":88610,"SoundDuration":88610,"Delta":136256550},{"NoteNumber":38,"Velocity":33,"Duration":88610,"SoundDuration":88610,"Delta":136256550},{"NoteNumber":50,"Velocity":39,"Duration":88610,"SoundDuration":88610,"Delta":136256550},{"NoteNumber":56,"Velocity":46,"Duration":88610,"SoundDuration":88610,"Delta":136433771},{"NoteNumber":60,"Velocity":54,"Duration":89168,"SoundDuration":89168,"Delta":136610993},{"NoteNumber":64,"Velocity":64,"Duration":89168,"SoundDuration":89168,"Delta":136610993},{"NoteNumber":57,"Velocity":48,"Duration":89168,"SoundDuration":89168,"Delta":136610993},{"NoteNumber":45,"Velocity":33,"Duration":89168,"SoundDuration":89168,"Delta":136610993},{"NoteNumber":55,"Velocity":39,"Duration":89168,"SoundDuration":89168,"Delta":136610993},{"NoteNumber":64,"Velocity":57,"Duration":89168,"SoundDuration":89168,"Delta":136789331},{"NoteNumber":69,"Velocity":64,"Duration":94494,"SoundDuration":94494,"Delta":136967669},{"NoteNumber":63,"Velocity":54,"Duration":94494,"SoundDuration":94494,"Delta":136967669},{"NoteNumber":53,"Velocity":33,"Duration":94494,"SoundDuration":94494,"Delta":136967669},{"NoteNumber":57,"Velocity":39,"Duration":94494,"SoundDuration":94494,"Delta":136967669},{"NoteNumber":62,"Velocity":54,"Duration":104166,"SoundDuration":104166,"Delta":137156657},{"NoteNumber":61,"Velocity":62,"Duration":372670,"SoundDuration":372670,"Delta":137364990},{"NoteNumber":69,"Velocity":73,"Duration":372670,"SoundDuration":372670,"Delta":137364990},{"NoteNumber":52,"Velocity":26,"Duration":372670,"SoundDuration":372670,"Delta":137364990},{"NoteNumber":45,"Velocity":26,"Duration":372670,"SoundDuration":372670,"Delta":137364990},{"NoteNumber":57,"Velocity":39,"Duration":372670,"SoundDuration":372670,"Delta":137364990},{"NoteNumber":67,"Velocity":55,"Duration":186335,"SoundDuration":186335,"Delta":137551326},{"NoteNumber":64,"Velocity":50,"Duration":93167,"SoundDuration":93167,"Delta":137737661},{"NoteNumber":65,"Velocity":50,"Duration":93167,"SoundDuration":93167,"Delta":137923997},{"NoteNumber":64,"Velocity":52,"Duration":179640,"SoundDuration":179640,"Delta":138110332},{"NoteNumber":65,"Velocity":43,"Duration":194805,"SoundDuration":194805,"Delta":138289973},{"NoteNumber":77,"Velocity":57,"Duration":91463,"SoundDuration":91463,"Delta":138484778},{"NoteNumber":71,"Velocity":48,"Duration":91463,"SoundDuration":91463,"Delta":138484778},{"NoteNumber":67,"Velocity":45,"Duration":91463,"SoundDuration":91463,"Delta":138484778},{"NoteNumber":60,"Velocity":29,"Duration":91463,"SoundDuration":91463,"Delta":138484778},{"NoteNumber":65,"Velocity":35,"Duration":91463,"SoundDuration":91463,"Delta":138484778},{"NoteNumber":68,"Velocity":40,"Duration":91463,"SoundDuration":91463,"Delta":138667705},{"NoteNumber":72,"Velocity":46,"Duration":89168,"SoundDuration":89168,"Delta":138850632},{"NoteNumber":76,"Velocity":55,"Duration":89168,"SoundDuration":89168,"Delta":138850632},{"NoteNumber":69,"Velocity":41,"Duration":89168,"SoundDuration":89168,"Delta":138850632},{"NoteNumber":57,"Velocity":28,"Duration":89168,"SoundDuration":89168,"Delta":138850632},{"NoteNumber":64,"Velocity":33,"Duration":89168,"SoundDuration":89168,"Delta":138850632},{"NoteNumber":76,"Velocity":48,"Duration":89168,"SoundDuration":89168,"Delta":139028970},{"NoteNumber":81,"Velocity":53,"Duration":99337,"SoundDuration":99337,"Delta":139207308},{"NoteNumber":75,"Velocity":45,"Duration":99337,"SoundDuration":99337,"Delta":139207308},{"NoteNumber":65,"Velocity":27,"Duration":99337,"SoundDuration":99337,"Delta":139207308},{"NoteNumber":69,"Velocity":32,"Duration":99337,"SoundDuration":99337,"Delta":139207308},{"NoteNumber":74,"Velocity":44,"Duration":99337,"SoundDuration":99337,"Delta":139405983},{"NoteNumber":73,"Velocity":45,"Duration":188679,"SoundDuration":188679,"Delta":139604659},{"NoteNumber":79,"Velocity":53,"Duration":94339,"SoundDuration":94339,"Delta":139604659},{"NoteNumber":57,"Velocity":32,"Duration":188679,"SoundDuration":188679,"Delta":139604659},{"NoteNumber":64,"Velocity":32,"Duration":188679,"SoundDuration":188679,"Delta":139604659},{"NoteNumber":69,"Velocity":32,"Duration":188679,"SoundDuration":188679,"Delta":139604659},{"NoteNumber":81,"Velocity":53,"Duration":94339,"SoundDuration":94339,"Delta":139610948},{"NoteNumber":70,"Velocity":45,"Duration":188679,"SoundDuration":188679,"Delta":139793338},{"NoteNumber":69,"Velocity":45,"Duration":94339,"SoundDuration":94339,"Delta":139982017},{"NoteNumber":70,"Velocity":40,"Duration":94339,"SoundDuration":94339,"Delta":140170696},{"NoteNumber":69,"Velocity":45,"Duration":194805,"SoundDuration":194805,"Delta":140359376},{"NoteNumber":67,"Velocity":45,"Duration":194805,"SoundDuration":194805,"Delta":140554181},{"NoteNumber":64,"Velocity":41,"Duration":99337,"SoundDuration":99337,"Delta":140748986},{"NoteNumber":67,"Velocity":41,"Duration":99999,"SoundDuration":99999,"Delta":140947662},{"NoteNumber":64,"Velocity":45,"Duration":194805,"SoundDuration":194805,"Delta":141147662},{"NoteNumber":62,"Velocity":45,"Duration":194805,"SoundDuration":194805,"Delta":141342467},{"NoteNumber":61,"Velocity":39,"Duration":97402,"SoundDuration":97402,"Delta":141537272},{"NoteNumber":62,"Velocity":39,"Duration":97402,"SoundDuration":97402,"Delta":141732077},{"NoteNumber":55,"Velocity":38,"Duration":97402,"SoundDuration":97402,"Delta":141732077},{"NoteNumber":57,"Velocity":39,"Duration":97402,"SoundDuration":97402,"Delta":141829480},{"NoteNumber":61,"Velocity":45,"Duration":98684,"SoundDuration":98684,"Delta":141926883},{"NoteNumber":58,"Velocity":45,"Duration":98684,"SoundDuration":98684,"Delta":141926883},{"NoteNumber":57,"Velocity":39,"Duration":98684,"SoundDuration":98684,"Delta":142124251},{"NoteNumber":55,"Velocity":39,"Duration":98684,"SoundDuration":98684,"Delta":142321620},{"NoteNumber":49,"Velocity":36,"Duration":104166,"SoundDuration":104166,"Delta":142518988},{"NoteNumber":53,"Velocity":35,"Duration":104166,"SoundDuration":104166,"Delta":142518988},{"NoteNumber":57,"Velocity":35,"Duration":104166,"SoundDuration":104166,"Delta":142518988},{"NoteNumber":50,"Velocity":37,"Duration":104166,"SoundDuration":104166,"Delta":142623155},{"NoteNumber":52,"Velocity":38,"Duration":104166,"SoundDuration":104166,"Delta":142727321},{"NoteNumber":50,"Velocity":36,"Duration":104166,"SoundDuration":104166,"Delta":142935655},{"NoteNumber":49,"Velocity":37,"Duration":104166,"SoundDuration":104166,"Delta":143143988},{"NoteNumber":50,"Velocity":35,"Duration":110294,"SoundDuration":110294,"Delta":143352321},{"NoteNumber":43,"Velocity":30,"Duration":110294,"SoundDuration":110294,"Delta":143352321},{"NoteNumber":45,"Velocity":31,"Duration":110431,"SoundDuration":110431,"Delta":143462615},{"NoteNumber":49,"Velocity":45,"Duration":127118,"SoundDuration":127118,"Delta":143573046},{"NoteNumber":46,"Velocity":36,"Duration":127118,"SoundDuration":127118,"Delta":143573046},{"NoteNumber":45,"Velocity":31,"Duration":147058,"SoundDuration":147058,"Delta":143827284},{"NoteNumber":43,"Velocity":31,"Duration":163043,"SoundDuration":163043,"Delta":144121401},{"NoteNumber":45,"Velocity":28,"Duration":187500,"SoundDuration":187500,"Delta":144447488},{"NoteNumber":58,"Velocity":43,"Duration":1294219,"SoundDuration":1294219,"Delta":144822488},{"NoteNumber":62,"Velocity":43,"Duration":1294219,"SoundDuration":1294219,"Delta":144822488},{"NoteNumber":64,"Velocity":43,"Duration":1294219,"SoundDuration":1294219,"Delta":144822488},{"NoteNumber":70,"Velocity":54,"Duration":1294219,"SoundDuration":1294219,"Delta":144822488},{"NoteNumber":55,"Velocity":45,"Duration":1294219,"SoundDuration":1294219,"Delta":144822488},{"NoteNumber":52,"Velocity":36,"Duration":1294219,"SoundDuration":1294219,"Delta":144822488},{"NoteNumber":50,"Velocity":36,"Duration":1294219,"SoundDuration":1294219,"Delta":144822488},{"NoteNumber":43,"Velocity":36,"Duration":1294219,"SoundDuration":1294219,"Delta":144822488},{"NoteNumber":69,"Velocity":48,"Duration":103734,"SoundDuration":103734,"Delta":146116708},{"NoteNumber":64,"Velocity":48,"Duration":103734,"SoundDuration":103734,"Delta":146116708},{"NoteNumber":61,"Velocity":38,"Duration":103734,"SoundDuration":103734,"Delta":146116708},{"NoteNumber":57,"Velocity":38,"Duration":103734,"SoundDuration":103734,"Delta":146116708},{"NoteNumber":52,"Velocity":40,"Duration":103734,"SoundDuration":103734,"Delta":146116708},{"NoteNumber":45,"Velocity":34,"Duration":103734,"SoundDuration":103734,"Delta":146116708},{"NoteNumber":65,"Velocity":48,"Duration":104456,"SoundDuration":104456,"Delta":146531646},{"NoteNumber":62,"Velocity":38,"Duration":104456,"SoundDuration":104456,"Delta":146531646},{"NoteNumber":57,"Velocity":38,"Duration":104456,"SoundDuration":104456,"Delta":146531646},{"NoteNumber":50,"Velocity":40,"Duration":104456,"SoundDuration":104456,"Delta":146531646},{"NoteNumber":58,"Velocity":36,"Duration":113122,"SoundDuration":113122,"Delta":146949473},{"NoteNumber":62,"Velocity":36,"Duration":113122,"SoundDuration":113122,"Delta":146949473},{"NoteNumber":67,"Velocity":45,"Duration":113122,"SoundDuration":113122,"Delta":146949473},{"NoteNumber":43,"Velocity":30,"Duration":113122,"SoundDuration":113122,"Delta":146949473},{"NoteNumber":50,"Velocity":36,"Duration":113122,"SoundDuration":113122,"Delta":146949473},{"NoteNumber":57,"Velocity":38,"Duration":640267,"SoundDuration":640267,"Delta":147401962},{"NoteNumber":62,"Velocity":38,"Duration":640267,"SoundDuration":640267,"Delta":147401962},{"NoteNumber":65,"Velocity":48,"Duration":640267,"SoundDuration":640267,"Delta":147401962},{"NoteNumber":38,"Velocity":34,"Duration":645542,"SoundDuration":645542,"Delta":147401962},{"NoteNumber":50,"Velocity":40,"Duration":645542,"SoundDuration":645542,"Delta":147401962},{"NoteNumber":57,"Velocity":43,"Duration":197893,"SoundDuration":197893,"Delta":148047504},{"NoteNumber":62,"Velocity":43,"Duration":197893,"SoundDuration":197893,"Delta":148047504},{"NoteNumber":65,"Velocity":54,"Duration":197893,"SoundDuration":197893,"Delta":148047504},{"NoteNumber":45,"Velocity":53,"Duration":70133,"SoundDuration":70133,"Delta":148047504},{"NoteNumber":47,"Velocity":60,"Duration":69375,"SoundDuration":69375,"Delta":148117637},{"NoteNumber":49,"Velocity":64,"Duration":68638,"SoundDuration":68638,"Delta":148187013},{"NoteNumber":57,"Velocity":43,"Duration":814663,"SoundDuration":814663,"Delta":148255652},{"NoteNumber":62,"Velocity":43,"Duration":814663,"SoundDuration":814663,"Delta":148255652},{"NoteNumber":65,"Velocity":54,"Duration":814663,"SoundDuration":814663,"Delta":148255652},{"NoteNumber":50,"Velocity":68,"Duration":101832,"SoundDuration":101832,"Delta":148255652},{"NoteNumber":48,"Velocity":55,"Duration":101832,"SoundDuration":101832,"Delta":148459318},{"NoteNumber":46,"Velocity":41,"Duration":101832,"SoundDuration":101832,"Delta":148662984},{"NoteNumber":45,"Velocity":45,"Duration":101832,"SoundDuration":101832,"Delta":148866650},{"NoteNumber":46,"Velocity":39,"Duration":103263,"SoundDuration":103263,"Delta":149070316},{"NoteNumber":45,"Velocity":45,"Duration":102852,"SoundDuration":102852,"Delta":149276842},{"NoteNumber":43,"Velocity":44,"Duration":104452,"SoundDuration":104452,"Delta":149480777},{"NoteNumber":41,"Velocity":44,"Duration":126518,"SoundDuration":126518,"Delta":149693449},{"NoteNumber":57,"Velocity":48,"Duration":1294219,"SoundDuration":1294219,"Delta":149946485},{"NoteNumber":60,"Velocity":48,"Duration":1294219,"SoundDuration":1294219,"Delta":149946485},{"NoteNumber":62,"Velocity":48,"Duration":1294219,"SoundDuration":1294219,"Delta":149946485},{"NoteNumber":69,"Velocity":60,"Duration":1294219,"SoundDuration":1294219,"Delta":149946485},{"NoteNumber":50,"Velocity":51,"Duration":1294219,"SoundDuration":1294219,"Delta":149946485},{"NoteNumber":41,"Velocity":40,"Duration":1294219,"SoundDuration":1294219,"Delta":149946485},{"NoteNumber":67,"Velocity":54,"Duration":103734,"SoundDuration":103734,"Delta":151240705},{"NoteNumber":62,"Velocity":54,"Duration":103734,"SoundDuration":103734,"Delta":151240705},{"NoteNumber":58,"Velocity":43,"Duration":103734,"SoundDuration":103734,"Delta":151240705},{"NoteNumber":55,"Velocity":43,"Duration":103734,"SoundDuration":103734,"Delta":151240705},{"NoteNumber":50,"Velocity":45,"Duration":103734,"SoundDuration":103734,"Delta":151240705},{"NoteNumber":43,"Velocity":38,"Duration":103734,"SoundDuration":103734,"Delta":151240705},{"NoteNumber":60,"Velocity":43,"Duration":103734,"SoundDuration":103734,"Delta":151655643},{"NoteNumber":64,"Velocity":54,"Duration":103734,"SoundDuration":103734,"Delta":151655643},{"NoteNumber":55,"Velocity":43,"Duration":103734,"SoundDuration":103734,"Delta":151655643},{"NoteNumber":48,"Velocity":45,"Duration":103734,"SoundDuration":103734,"Delta":151655643},{"NoteNumber":60,"Velocity":40,"Duration":111441,"SoundDuration":111441,"Delta":152070581},{"NoteNumber":57,"Velocity":40,"Duration":111441,"SoundDuration":111441,"Delta":152070581},{"NoteNumber":65,"Velocity":51,"Duration":111441,"SoundDuration":111441,"Delta":152070581},{"NoteNumber":41,"Velocity":34,"Duration":111441,"SoundDuration":111441,"Delta":152070581},{"NoteNumber":48,"Velocity":41,"Duration":111441,"SoundDuration":111441,"Delta":152070581},{"NoteNumber":55,"Velocity":43,"Duration":640156,"SoundDuration":640156,"Delta":152516346},{"NoteNumber":60,"Velocity":43,"Duration":640156,"SoundDuration":640156,"Delta":152516346},{"NoteNumber":64,"Velocity":54,"Duration":640156,"SoundDuration":640156,"Delta":152516346},{"NoteNumber":36,"Velocity":38,"Duration":645470,"SoundDuration":645470,"Delta":152516346},{"NoteNumber":48,"Velocity":45,"Duration":645470,"SoundDuration":645470,"Delta":152516346},{"NoteNumber":55,"Velocity":43,"Duration":199230,"SoundDuration":199230,"Delta":153161816},{"NoteNumber":60,"Velocity":43,"Duration":199230,"SoundDuration":199230,"Delta":153161816},{"NoteNumber":64,"Velocity":54,"Duration":199230,"SoundDuration":199230,"Delta":153161816},{"NoteNumber":43,"Velocity":53,"Duration":70398,"SoundDuration":70398,"Delta":153161816},{"NoteNumber":45,"Velocity":60,"Duration":69869,"SoundDuration":69869,"Delta":153232214},{"NoteNumber":46,"Velocity":64,"Duration":69363,"SoundDuration":69363,"Delta":153302084},{"NoteNumber":55,"Velocity":43,"Duration":826105,"SoundDuration":826105,"Delta":153371447},{"NoteNumber":60,"Velocity":43,"Duration":826105,"SoundDuration":826105,"Delta":153371447},{"NoteNumber":64,"Velocity":54,"Duration":826105,"SoundDuration":826105,"Delta":153371447},{"NoteNumber":48,"Velocity":68,"Duration":103263,"SoundDuration":103263,"Delta":153371447},{"NoteNumber":46,"Velocity":55,"Duration":103263,"SoundDuration":103263,"Delta":153577973},{"NoteNumber":45,"Velocity":41,"Duration":103263,"SoundDuration":103263,"Delta":153784500},{"NoteNumber":43,"Velocity":45,"Duration":103263,"SoundDuration":103263,"Delta":153991026},{"NoteNumber":45,"Velocity":39,"Duration":103263,"SoundDuration":103263,"Delta":154197552},{"NoteNumber":43,"Velocity":45,"Duration":104651,"SoundDuration":104651,"Delta":154404612},{"NoteNumber":41,"Velocity":44,"Duration":106677,"SoundDuration":106677,"Delta":154615139},{"NoteNumber":40,"Velocity":44,"Duration":110554,"SoundDuration":110554,"Delta":154829760},{"NoteNumber":58,"Velocity":45,"Duration":629370,"SoundDuration":629370,"Delta":155050869},{"NoteNumber":55,"Velocity":45,"Duration":624125,"SoundDuration":624125,"Delta":155050869},{"NoteNumber":62,"Velocity":45,"Duration":624125,"SoundDuration":624125,"Delta":155050869},{"NoteNumber":67,"Velocity":54,"Duration":624125,"SoundDuration":624125,"Delta":155050869},{"NoteNumber":50,"Velocity":49,"Duration":629370,"SoundDuration":629370,"Delta":155050869},{"NoteNumber":43,"Velocity":41,"Duration":629370,"SoundDuration":629370,"Delta":155050869},{"NoteNumber":67,"Velocity":46,"Duration":208029,"SoundDuration":208029,"Delta":155680240},{"NoteNumber":62,"Velocity":39,"Duration":208029,"SoundDuration":208029,"Delta":155680240},{"NoteNumber":55,"Velocity":39,"Duration":208029,"SoundDuration":208029,"Delta":155680240},{"NoteNumber":58,"Velocity":39,"Duration":218977,"SoundDuration":218977,"Delta":155680240},{"NoteNumber":38,"Velocity":39,"Duration":208029,"SoundDuration":208029,"Delta":155680240},{"NoteNumber":50,"Velocity":47,"Duration":208029,"SoundDuration":208029,"Delta":155680240},{"NoteNumber":67,"Velocity":51,"Duration":223880,"SoundDuration":223880,"Delta":155899218},{"NoteNumber":62,"Velocity":43,"Duration":223880,"SoundDuration":223880,"Delta":155899218},{"NoteNumber":58,"Velocity":43,"Duration":223880,"SoundDuration":223880,"Delta":155899218},{"NoteNumber":55,"Velocity":43,"Duration":223880,"SoundDuration":223880,"Delta":155899218},{"NoteNumber":43,"Velocity":36,"Duration":223880,"SoundDuration":223880,"Delta":155899218},{"NoteNumber":50,"Velocity":43,"Duration":223880,"SoundDuration":223880,"Delta":155899218},{"NoteNumber":65,"Velocity":48,"Duration":227272,"SoundDuration":227272,"Delta":156346979},{"NoteNumber":60,"Velocity":40,"Duration":227272,"SoundDuration":227272,"Delta":156346979},{"NoteNumber":53,"Velocity":40,"Duration":227272,"SoundDuration":227272,"Delta":156346979},{"NoteNumber":45,"Velocity":39,"Duration":227272,"SoundDuration":227272,"Delta":156346979},{"NoteNumber":48,"Velocity":47,"Duration":227272,"SoundDuration":227272,"Delta":156346979},{"NoteNumber":53,"Velocity":41,"Duration":879699,"SoundDuration":879699,"Delta":156801524},{"NoteNumber":58,"Velocity":41,"Duration":879699,"SoundDuration":879699,"Delta":156801524},{"NoteNumber":62,"Velocity":49,"Duration":879699,"SoundDuration":879699,"Delta":156801524},{"NoteNumber":46,"Velocity":39,"Duration":214285,"SoundDuration":214285,"Delta":156801524},{"NoteNumber":45,"Velocity":37,"Duration":214285,"SoundDuration":214285,"Delta":157015810},{"NoteNumber":41,"Velocity":42,"Duration":112782,"SoundDuration":112782,"Delta":157230096},{"NoteNumber":43,"Velocity":38,"Duration":112782,"SoundDuration":112782,"Delta":157455660},{"NoteNumber":57,"Velocity":45,"Duration":629370,"SoundDuration":629370,"Delta":157681224},{"NoteNumber":53,"Velocity":45,"Duration":624125,"SoundDuration":624125,"Delta":157681224},{"NoteNumber":65,"Velocity":54,"Duration":624125,"SoundDuration":624125,"Delta":157681224},{"NoteNumber":48,"Velocity":49,"Duration":629370,"SoundDuration":629370,"Delta":157681224},{"NoteNumber":41,"Velocity":41,"Duration":629370,"SoundDuration":629370,"Delta":157681224},{"NoteNumber":65,"Velocity":46,"Duration":208029,"SoundDuration":208029,"Delta":158310594},{"NoteNumber":53,"Velocity":39,"Duration":208029,"SoundDuration":208029,"Delta":158310594},{"NoteNumber":57,"Velocity":39,"Duration":218977,"SoundDuration":218977,"Delta":158310594},{"NoteNumber":36,"Velocity":39,"Duration":208029,"SoundDuration":208029,"Delta":158310594},{"NoteNumber":48,"Velocity":47,"Duration":208029,"SoundDuration":208029,"Delta":158310594},{"NoteNumber":65,"Velocity":51,"Duration":225563,"SoundDuration":225563,"Delta":158529572},{"NoteNumber":57,"Velocity":43,"Duration":225563,"SoundDuration":225563,"Delta":158529572},{"NoteNumber":53,"Velocity":43,"Duration":225563,"SoundDuration":225563,"Delta":158529572},{"NoteNumber":41,"Velocity":36,"Duration":225563,"SoundDuration":225563,"Delta":158529572},{"NoteNumber":48,"Velocity":43,"Duration":225563,"SoundDuration":225563,"Delta":158529572},{"NoteNumber":64,"Velocity":48,"Duration":227272,"SoundDuration":227272,"Delta":158980700},{"NoteNumber":58,"Velocity":40,"Duration":227272,"SoundDuration":227272,"Delta":158980700},{"NoteNumber":52,"Velocity":40,"Duration":227272,"SoundDuration":227272,"Delta":158980700},{"NoteNumber":43,"Velocity":39,"Duration":227272,"SoundDuration":227272,"Delta":158980700},{"NoteNumber":46,"Velocity":47,"Duration":227272,"SoundDuration":227272,"Delta":158980700},{"NoteNumber":52,"Velocity":41,"Duration":879699,"SoundDuration":879699,"Delta":159435246},{"NoteNumber":57,"Velocity":41,"Duration":879699,"SoundDuration":879699,"Delta":159435246},{"NoteNumber":61,"Velocity":49,"Duration":879699,"SoundDuration":879699,"Delta":159435246},{"NoteNumber":45,"Velocity":39,"Duration":214285,"SoundDuration":214285,"Delta":159435246},{"NoteNumber":43,"Velocity":37,"Duration":214285,"SoundDuration":214285,"Delta":159649532},{"NoteNumber":40,"Velocity":42,"Duration":112782,"SoundDuration":112782,"Delta":159863817},{"NoteNumber":41,"Velocity":38,"Duration":112782,"SoundDuration":112782,"Delta":160089381},{"NoteNumber":53,"Velocity":45,"Duration":103263,"SoundDuration":103263,"Delta":160314945},{"NoteNumber":62,"Velocity":54,"Duration":103263,"SoundDuration":103263,"Delta":160314945},{"NoteNumber":38,"Velocity":39,"Duration":103263,"SoundDuration":103263,"Delta":160314945},{"NoteNumber":53,"Velocity":34,"Duration":1236428,"SoundDuration":1236428,"Delta":160727998},{"NoteNumber":62,"Velocity":34,"Duration":215053,"SoundDuration":215053,"Delta":160727998},{"NoteNumber":65,"Velocity":40,"Duration":215053,"SoundDuration":215053,"Delta":160727998},{"NoteNumber":46,"Velocity":53,"Duration":837439,"SoundDuration":837439,"Delta":160727998},{"NoteNumber":34,"Velocity":45,"Duration":837439,"SoundDuration":837439,"Delta":160727998},{"NoteNumber":64,"Velocity":44,"Duration":215053,"SoundDuration":215053,"Delta":160943052},{"NoteNumber":61,"Velocity":37,"Duration":215053,"SoundDuration":215053,"Delta":160943052},{"NoteNumber":65,"Velocity":57,"Duration":1201397,"SoundDuration":1201397,"Delta":161158105},{"NoteNumber":62,"Velocity":48,"Duration":1201397,"SoundDuration":1201397,"Delta":161158105},{"NoteNumber":45,"Velocity":35,"Duration":99747,"SoundDuration":99747,"Delta":161565437},{"NoteNumber":33,"Velocity":29,"Duration":99747,"SoundDuration":99747,"Delta":161565437},{"NoteNumber":58,"Velocity":46,"Duration":192208,"SoundDuration":192208,"Delta":161964426},{"NoteNumber":29,"Velocity":32,"Duration":96104,"SoundDuration":96104,"Delta":161964426},{"NoteNumber":41,"Velocity":38,"Duration":96104,"SoundDuration":96104,"Delta":161964426},{"NoteNumber":57,"Velocity":40,"Duration":202867,"SoundDuration":202867,"Delta":162156635},{"NoteNumber":53,"Velocity":41,"Duration":202867,"SoundDuration":202867,"Delta":162359503},{"NoteNumber":58,"Velocity":36,"Duration":101433,"SoundDuration":101433,"Delta":162359503},{"NoteNumber":61,"Velocity":44,"Duration":101433,"SoundDuration":101433,"Delta":162359503},{"NoteNumber":43,"Velocity":35,"Duration":101433,"SoundDuration":101433,"Delta":162359503},{"NoteNumber":31,"Velocity":29,"Duration":101433,"SoundDuration":101433,"Delta":162359503},{"NoteNumber":55,"Velocity":40,"Duration":217928,"SoundDuration":217928,"Delta":162562370},{"NoteNumber":53,"Velocity":39,"Duration":100120,"SoundDuration":100120,"Delta":162780298},{"NoteNumber":62,"Velocity":48,"Duration":100120,"SoundDuration":100120,"Delta":162780298},{"NoteNumber":45,"Velocity":33,"Duration":100120,"SoundDuration":100120,"Delta":162780298},{"NoteNumber":38,"Velocity":33,"Duration":100120,"SoundDuration":100120,"Delta":162780298},{"NoteNumber":53,"Velocity":38,"Duration":1219923,"SoundDuration":1219923,"Delta":163175698},{"NoteNumber":62,"Velocity":38,"Duration":196798,"SoundDuration":196798,"Delta":163175698},{"NoteNumber":65,"Velocity":45,"Duration":196798,"SoundDuration":196798,"Delta":163175698},{"NoteNumber":46,"Velocity":53,"Duration":812591,"SoundDuration":812591,"Delta":163175698},{"NoteNumber":34,"Velocity":45,"Duration":812591,"SoundDuration":812591,"Delta":163175698},{"NoteNumber":64,"Velocity":49,"Duration":196798,"SoundDuration":196798,"Delta":163372497},{"NoteNumber":61,"Velocity":41,"Duration":196798,"SoundDuration":196798,"Delta":163372497},{"NoteNumber":65,"Velocity":60,"Duration":1219269,"SoundDuration":1219269,"Delta":163569296},{"NoteNumber":62,"Velocity":51,"Duration":1219269,"SoundDuration":1219269,"Delta":163569296},{"NoteNumber":45,"Velocity":35,"Duration":101832,"SoundDuration":101832,"Delta":163988290},{"NoteNumber":33,"Velocity":29,"Duration":101832,"SoundDuration":101832,"Delta":163988290},{"NoteNumber":58,"Velocity":46,"Duration":192702,"SoundDuration":192702,"Delta":164395622},{"NoteNumber":29,"Velocity":32,"Duration":96351,"SoundDuration":96351,"Delta":164395622},{"NoteNumber":41,"Velocity":38,"Duration":96351,"SoundDuration":96351,"Delta":164395622},{"NoteNumber":57,"Velocity":40,"Duration":200240,"SoundDuration":200240,"Delta":164588325},{"NoteNumber":53,"Velocity":41,"Duration":211267,"SoundDuration":211267,"Delta":164788566},{"NoteNumber":58,"Velocity":36,"Duration":105633,"SoundDuration":105633,"Delta":164788566},{"NoteNumber":61,"Velocity":44,"Duration":105633,"SoundDuration":105633,"Delta":164788566},{"NoteNumber":43,"Velocity":35,"Duration":105633,"SoundDuration":105633,"Delta":164788566},{"NoteNumber":31,"Velocity":29,"Duration":105633,"SoundDuration":105633,"Delta":164788566},{"NoteNumber":55,"Velocity":40,"Duration":224315,"SoundDuration":224315,"Delta":164999833},{"NoteNumber":53,"Velocity":39,"Duration":104007,"SoundDuration":104007,"Delta":165224149},{"NoteNumber":62,"Velocity":46,"Duration":104007,"SoundDuration":104007,"Delta":165224149},{"NoteNumber":45,"Velocity":33,"Duration":104007,"SoundDuration":104007,"Delta":165224149},{"NoteNumber":38,"Velocity":33,"Duration":104007,"SoundDuration":104007,"Delta":165224149},{"NoteNumber":64,"Velocity":54,"Duration":102543,"SoundDuration":102543,"Delta":165640312},{"NoteNumber":57,"Velocity":45,"Duration":102543,"SoundDuration":102543,"Delta":165640312},{"NoteNumber":55,"Velocity":45,"Duration":102543,"SoundDuration":102543,"Delta":165640312},{"NoteNumber":50,"Velocity":68,"Duration":205086,"SoundDuration":205086,"Delta":165640312},{"NoteNumber":49,"Velocity":54,"Duration":205086,"SoundDuration":205086,"Delta":165845398},{"NoteNumber":62,"Velocity":50,"Duration":1190445,"SoundDuration":1190445,"Delta":166050484},{"NoteNumber":65,"Velocity":61,"Duration":1190445,"SoundDuration":1190445,"Delta":166050484},{"NoteNumber":57,"Velocity":50,"Duration":1190445,"SoundDuration":1190445,"Delta":166050484},{"NoteNumber":53,"Velocity":50,"Duration":1190445,"SoundDuration":1190445,"Delta":166050484},{"NoteNumber":50,"Velocity":54,"Duration":149711,"SoundDuration":149711,"Delta":166050484},{"NoteNumber":49,"Velocity":49,"Duration":148612,"SoundDuration":148612,"Delta":166249733},{"NoteNumber":50,"Velocity":52,"Duration":148612,"SoundDuration":148612,"Delta":166447883},{"NoteNumber":49,"Velocity":57,"Duration":148612,"SoundDuration":148612,"Delta":166646034},{"NoteNumber":50,"Velocity":66,"Duration":197508,"SoundDuration":197508,"Delta":166844184},{"NoteNumber":48,"Velocity":56,"Duration":199236,"SoundDuration":199236,"Delta":167041693},{"NoteNumber":60,"Velocity":45,"Duration":407343,"SoundDuration":407343,"Delta":167240930},{"NoteNumber":62,"Velocity":45,"Duration":407343,"SoundDuration":407343,"Delta":167240930},{"NoteNumber":66,"Velocity":54,"Duration":407343,"SoundDuration":407343,"Delta":167240930},{"NoteNumber":46,"Velocity":61,"Duration":202316,"SoundDuration":202316,"Delta":167240930},{"NoteNumber":45,"Velocity":45,"Duration":205027,"SoundDuration":205027,"Delta":167443246},{"NoteNumber":67,"Velocity":60,"Duration":417968,"SoundDuration":417968,"Delta":167648273},{"NoteNumber":62,"Velocity":51,"Duration":417968,"SoundDuration":417968,"Delta":167648273},{"NoteNumber":58,"Velocity":51,"Duration":417968,"SoundDuration":417968,"Delta":167648273},{"NoteNumber":43,"Velocity":45,"Duration":202265,"SoundDuration":202265,"Delta":167648273},{"NoteNumber":40,"Velocity":37,"Duration":214135,"SoundDuration":214135,"Delta":167826941},{"NoteNumber":69,"Velocity":56,"Duration":502736,"SoundDuration":502736,"Delta":168066242},{"NoteNumber":62,"Velocity":47,"Duration":502736,"SoundDuration":502736,"Delta":168066242},{"NoteNumber":57,"Velocity":47,"Duration":502736,"SoundDuration":502736,"Delta":168066242},{"NoteNumber":41,"Velocity":45,"Duration":502736,"SoundDuration":502736,"Delta":168066242},{"NoteNumber":73,"Velocity":63,"Duration":1038061,"SoundDuration":1038061,"Delta":168568978},{"NoteNumber":67,"Velocity":53,"Duration":1038061,"SoundDuration":1038061,"Delta":168568978},{"NoteNumber":61,"Velocity":53,"Duration":1038061,"SoundDuration":1038061,"Delta":168568978},{"NoteNumber":45,"Velocity":35,"Duration":1038061,"SoundDuration":1038061,"Delta":168568978},{"NoteNumber":55,"Velocity":45,"Duration":1038061,"SoundDuration":1038061,"Delta":168568978},{"NoteNumber":52,"Velocity":35,"Duration":1038061,"SoundDuration":1038061,"Delta":168568978},{"NoteNumber":62,"Velocity":36,"Duration":1102535,"SoundDuration":1102535,"Delta":169607040},{"NoteNumber":65,"Velocity":36,"Duration":1102535,"SoundDuration":1102535,"Delta":169607040},{"NoteNumber":74,"Velocity":43,"Duration":1102535,"SoundDuration":1102535,"Delta":169607040},{"NoteNumber":38,"Velocity":28,"Duration":1102535,"SoundDuration":1102535,"Delta":169607040},{"NoteNumber":45,"Velocity":28,"Duration":1102535,"SoundDuration":1102535,"Delta":169607040},{"NoteNumber":53,"Velocity":30,"Duration":1102535,"SoundDuration":1102535,"Delta":169607040},{"NoteNumber":38,"Velocity":30,"Duration":616438,"SoundDuration":616438,"Delta":170709576},{"NoteNumber":38,"Velocity":30,"Duration":205479,"SoundDuration":205479,"Delta":171326015},{"NoteNumber":86,"Velocity":44,"Duration":419580,"SoundDuration":419580,"Delta":171531494},{"NoteNumber":38,"Velocity":30,"Duration":8338891,"SoundDuration":8338891,"Delta":171531494},{"NoteNumber":84,"Velocity":39,"Duration":419580,"SoundDuration":419580,"Delta":171951075},{"NoteNumber":77,"Velocity":33,"Duration":1258741,"SoundDuration":1258741,"Delta":172370655},{"NoteNumber":81,"Velocity":44,"Duration":419580,"SoundDuration":419580,"Delta":172370655},{"NoteNumber":82,"Velocity":40,"Duration":419580,"SoundDuration":419580,"Delta":172790236},{"NoteNumber":84,"Velocity":44,"Duration":839160,"SoundDuration":839160,"Delta":173209816},{"NoteNumber":76,"Velocity":39,"Duration":419580,"SoundDuration":419580,"Delta":173629397},{"NoteNumber":72,"Velocity":39,"Duration":419580,"SoundDuration":419580,"Delta":174048977},{"NoteNumber":84,"Velocity":42,"Duration":419580,"SoundDuration":419580,"Delta":174048977},{"NoteNumber":74,"Velocity":35,"Duration":417937,"SoundDuration":417937,"Delta":174468558},{"NoteNumber":82,"Velocity":32,"Duration":417937,"SoundDuration":417937,"Delta":174468558},{"NoteNumber":67,"Velocity":28,"Duration":70133,"SoundDuration":70133,"Delta":174678348},{"NoteNumber":69,"Velocity":30,"Duration":69375,"SoundDuration":69375,"Delta":174748481},{"NoteNumber":70,"Velocity":32,"Duration":68638,"SoundDuration":68638,"Delta":174817857},{"NoteNumber":79,"Velocity":43,"Duration":407331,"SoundDuration":407331,"Delta":174886495},{"NoteNumber":75,"Velocity":33,"Duration":1231330,"SoundDuration":1231330,"Delta":174886495},{"NoteNumber":72,"Velocity":35,"Duration":610997,"SoundDuration":610997,"Delta":174886495},{"NoteNumber":81,"Velocity":37,"Duration":407331,"SoundDuration":407331,"Delta":175293827},{"NoteNumber":72,"Velocity":38,"Duration":203665,"SoundDuration":203665,"Delta":175497493},{"NoteNumber":82,"Velocity":45,"Duration":833333,"SoundDuration":833333,"Delta":175701159},{"NoteNumber":72,"Velocity":38,"Duration":208333,"SoundDuration":208333,"Delta":175701159},{"NoteNumber":70,"Velocity":38,"Duration":208333,"SoundDuration":208333,"Delta":175909493},{"NoteNumber":74,"Velocity":39,"Duration":416666,"SoundDuration":416666,"Delta":176117826},{"NoteNumber":67,"Velocity":38,"Duration":208333,"SoundDuration":208333,"Delta":176117826},{"NoteNumber":69,"Velocity":38,"Duration":208333,"SoundDuration":208333,"Delta":176326159},{"NoteNumber":82,"Velocity":44,"Duration":416666,"SoundDuration":416666,"Delta":176534492},{"NoteNumber":70,"Velocity":39,"Duration":416666,"SoundDuration":416666,"Delta":176534492},{"NoteNumber":67,"Velocity":35,"Duration":624999,"SoundDuration":624999,"Delta":176534492},{"NoteNumber":81,"Velocity":39,"Duration":416480,"SoundDuration":416480,"Delta":176951159},{"NoteNumber":72,"Velocity":35,"Duration":416480,"SoundDuration":416480,"Delta":176951159},{"NoteNumber":65,"Velocity":28,"Duration":70133,"SoundDuration":70133,"Delta":177159492},{"NoteNumber":67,"Velocity":30,"Duration":69375,"SoundDuration":69375,"Delta":177229625},{"NoteNumber":69,"Velocity":32,"Duration":68638,"SoundDuration":68638,"Delta":177299001},{"NoteNumber":74,"Velocity":33,"Duration":1231330,"SoundDuration":1231330,"Delta":177367640},{"NoteNumber":77,"Velocity":44,"Duration":407331,"SoundDuration":407331,"Delta":177367640},{"NoteNumber":70,"Velocity":35,"Duration":610997,"SoundDuration":610997,"Delta":177367640},{"NoteNumber":79,"Velocity":44,"Duration":407331,"SoundDuration":407331,"Delta":177774972},{"NoteNumber":70,"Velocity":38,"Duration":203665,"SoundDuration":203665,"Delta":177978638},{"NoteNumber":81,"Velocity":45,"Duration":850563,"SoundDuration":850563,"Delta":178182304},{"NoteNumber":70,"Velocity":38,"Duration":208333,"SoundDuration":208333,"Delta":178182304},{"NoteNumber":69,"Velocity":38,"Duration":208333,"SoundDuration":208333,"Delta":178390637},{"NoteNumber":73,"Velocity":39,"Duration":433897,"SoundDuration":433897,"Delta":178598970},{"NoteNumber":65,"Velocity":38,"Duration":208333,"SoundDuration":208333,"Delta":178598970},{"NoteNumber":67,"Velocity":38,"Duration":225563,"SoundDuration":225563,"Delta":178807303},{"NoteNumber":81,"Velocity":44,"Duration":419580,"SoundDuration":419580,"Delta":179032867},{"NoteNumber":69,"Velocity":39,"Duration":419580,"SoundDuration":419580,"Delta":179032867},{"NoteNumber":65,"Velocity":35,"Duration":629370,"SoundDuration":629370,"Delta":179032867},{"NoteNumber":79,"Velocity":39,"Duration":417937,"SoundDuration":417937,"Delta":179452448},{"NoteNumber":70,"Velocity":35,"Duration":417937,"SoundDuration":417937,"Delta":179452448},{"NoteNumber":67,"Velocity":28,"Duration":208147,"SoundDuration":208147,"Delta":179662238},{"NoteNumber":73,"Velocity":33,"Duration":827605,"SoundDuration":827605,"Delta":179870386},{"NoteNumber":69,"Velocity":44,"Duration":407331,"SoundDuration":407331,"Delta":179870386},{"NoteNumber":69,"Velocity":35,"Duration":407331,"SoundDuration":407331,"Delta":179870386},{"NoteNumber":67,"Velocity":44,"Duration":420273,"SoundDuration":420273,"Delta":180277718},{"NoteNumber":45,"Velocity":30,"Duration":101832,"SoundDuration":101832,"Delta":180277718},{"NoteNumber":46,"Velocity":31,"Duration":107509,"SoundDuration":107509,"Delta":180379551},{"NoteNumber":48,"Velocity":31,"Duration":106614,"SoundDuration":106614,"Delta":180487061},{"NoteNumber":50,"Velocity":32,"Duration":104316,"SoundDuration":104316,"Delta":180593675},{"NoteNumber":66,"Velocity":47,"Duration":1363636,"SoundDuration":1363636,"Delta":180697991},{"NoteNumber":51,"Velocity":35,"Duration":629370,"SoundDuration":629370,"Delta":180697991},{"NoteNumber":51,"Velocity":34,"Duration":209790,"SoundDuration":209790,"Delta":181327362},{"NoteNumber":72,"Velocity":48,"Duration":845809,"SoundDuration":845809,"Delta":181537152},{"NoteNumber":51,"Velocity":38,"Duration":419580,"SoundDuration":419580,"Delta":181537152},{"NoteNumber":50,"Velocity":34,"Duration":426229,"SoundDuration":426229,"Delta":181956733},{"NoteNumber":62,"Velocity":37,"Duration":108909,"SoundDuration":108909,"Delta":182061628},{"NoteNumber":64,"Velocity":39,"Duration":107378,"SoundDuration":107378,"Delta":182170538},{"NoteNumber":66,"Velocity":41,"Duration":105046,"SoundDuration":105046,"Delta":182277916},{"NoteNumber":67,"Velocity":48,"Duration":622407,"SoundDuration":622407,"Delta":182382962},{"NoteNumber":70,"Velocity":48,"Duration":831615,"SoundDuration":831615,"Delta":182382962},{"NoteNumber":46,"Velocity":38,"Duration":411006,"SoundDuration":411006,"Delta":182382962},{"NoteNumber":48,"Velocity":32,"Duration":105654,"SoundDuration":105654,"Delta":182793969},{"NoteNumber":45,"Velocity":34,"Duration":105746,"SoundDuration":105746,"Delta":182899623},{"NoteNumber":67,"Velocity":38,"Duration":209208,"SoundDuration":209208,"Delta":183005369},{"NoteNumber":46,"Velocity":36,"Duration":104981,"SoundDuration":104981,"Delta":183005369},{"NoteNumber":48,"Velocity":38,"Duration":104227,"SoundDuration":104227,"Delta":183110351},{"NoteNumber":67,"Velocity":48,"Duration":425532,"SoundDuration":425532,"Delta":183214578},{"NoteNumber":69,"Velocity":47,"Duration":1740903,"SoundDuration":1740903,"Delta":183214578},{"NoteNumber":38,"Velocity":30,"Duration":2602740,"SoundDuration":2602740,"Delta":183214578},{"NoteNumber":50,"Velocity":35,"Duration":638297,"SoundDuration":638297,"Delta":183214578},{"NoteNumber":65,"Velocity":48,"Duration":448986,"SoundDuration":448986,"Delta":183640110},{"NoteNumber":50,"Velocity":34,"Duration":236220,"SoundDuration":236220,"Delta":183852876},{"NoteNumber":62,"Velocity":48,"Duration":428571,"SoundDuration":428571,"Delta":184089097},{"NoteNumber":50,"Velocity":38,"Duration":428571,"SoundDuration":428571,"Delta":184089097},{"NoteNumber":64,"Velocity":40,"Duration":107142,"SoundDuration":107142,"Delta":184517668},{"NoteNumber":48,"Velocity":34,"Duration":437813,"SoundDuration":437813,"Delta":184517668},{"NoteNumber":60,"Velocity":37,"Duration":112052,"SoundDuration":112052,"Delta":184624811},{"NoteNumber":62,"Velocity":39,"Duration":110543,"SoundDuration":110543,"Delta":184736864},{"NoteNumber":64,"Velocity":41,"Duration":108074,"SoundDuration":108074,"Delta":184847407},{"NoteNumber":65,"Velocity":48,"Duration":644189,"SoundDuration":644189,"Delta":184955481},{"NoteNumber":69,"Velocity":48,"Duration":861837,"SoundDuration":861837,"Delta":184955481},{"NoteNumber":45,"Velocity":38,"Duration":425532,"SoundDuration":425532,"Delta":184955481},{"NoteNumber":46,"Velocity":32,"Duration":107309,"SoundDuration":107309,"Delta":185381013},{"NoteNumber":43,"Velocity":34,"Duration":111348,"SoundDuration":111348,"Delta":185488323},{"NoteNumber":65,"Velocity":38,"Duration":217647,"SoundDuration":217647,"Delta":185599671},{"NoteNumber":45,"Velocity":36,"Duration":109639,"SoundDuration":109639,"Delta":185599671},{"NoteNumber":46,"Velocity":38,"Duration":108008,"SoundDuration":108008,"Delta":185709311},{"NoteNumber":65,"Velocity":48,"Duration":425532,"SoundDuration":425532,"Delta":185817319},{"NoteNumber":67,"Velocity":47,"Duration":1731119,"SoundDuration":1731119,"Delta":185817319},{"NoteNumber":38,"Velocity":30,"Duration":2594975,"SoundDuration":2594975,"Delta":185817319},{"NoteNumber":48,"Velocity":35,"Duration":638297,"SoundDuration":638297,"Delta":185817319},{"NoteNumber":64,"Velocity":48,"Duration":440038,"SoundDuration":440038,"Delta":186242851},{"NoteNumber":48,"Velocity":34,"Duration":227272,"SoundDuration":227272,"Delta":186455617},{"NoteNumber":60,"Velocity":48,"Duration":425532,"SoundDuration":425532,"Delta":186682889},{"NoteNumber":48,"Velocity":38,"Duration":425532,"SoundDuration":425532,"Delta":186682889},{"NoteNumber":62,"Velocity":40,"Duration":110566,"SoundDuration":110566,"Delta":187108421},{"NoteNumber":46,"Velocity":34,"Duration":440016,"SoundDuration":440016,"Delta":187108421},{"NoteNumber":58,"Velocity":37,"Duration":111072,"SoundDuration":111072,"Delta":187218988},{"NoteNumber":60,"Velocity":39,"Duration":109837,"SoundDuration":109837,"Delta":187330060},{"NoteNumber":62,"Velocity":41,"Duration":108540,"SoundDuration":108540,"Delta":187439898},{"NoteNumber":63,"Velocity":48,"Duration":645382,"SoundDuration":645382,"Delta":187548438},{"NoteNumber":67,"Velocity":48,"Duration":863856,"SoundDuration":863856,"Delta":187548438},{"NoteNumber":43,"Velocity":38,"Duration":426561,"SoundDuration":426561,"Delta":187548438},{"NoteNumber":45,"Velocity":32,"Duration":107309,"SoundDuration":107309,"Delta":187974999},{"NoteNumber":41,"Velocity":34,"Duration":111511,"SoundDuration":111511,"Delta":188082309},{"NoteNumber":63,"Velocity":38,"Duration":218473,"SoundDuration":218473,"Delta":188193820},{"NoteNumber":43,"Velocity":36,"Duration":109933,"SoundDuration":109933,"Delta":188193820},{"NoteNumber":45,"Velocity":38,"Duration":108540,"SoundDuration":108540,"Delta":188303754},{"NoteNumber":63,"Velocity":47,"Duration":451128,"SoundDuration":451128,"Delta":188412294},{"NoteNumber":65,"Velocity":47,"Duration":1374696,"SoundDuration":1374696,"Delta":188412294},{"NoteNumber":38,"Velocity":30,"Duration":1374696,"SoundDuration":1374696,"Delta":188412294},{"NoteNumber":46,"Velocity":35,"Duration":676692,"SoundDuration":676692,"Delta":188412294},{"NoteNumber":62,"Velocity":40,"Duration":451127,"SoundDuration":451127,"Delta":188863422},{"NoteNumber":45,"Velocity":25,"Duration":225563,"SoundDuration":225563,"Delta":189088986},{"NoteNumber":58,"Velocity":39,"Duration":472441,"SoundDuration":472441,"Delta":189314550},{"NoteNumber":43,"Velocity":31,"Duration":472441,"SoundDuration":472441,"Delta":189314550},{"NoteNumber":61,"Velocity":30,"Duration":536783,"SoundDuration":536783,"Delta":189786991},{"NoteNumber":55,"Velocity":25,"Duration":536783,"SoundDuration":536783,"Delta":189786991},{"NoteNumber":45,"Velocity":26,"Duration":1097531,"SoundDuration":1097531,"Delta":189786991},{"NoteNumber":62,"Velocity":37,"Duration":560747,"SoundDuration":560747,"Delta":190323775},{"NoteNumber":53,"Velocity":31,"Duration":560747,"SoundDuration":560747,"Delta":190323775},{"NoteNumber":38,"Velocity":24,"Duration":560747,"SoundDuration":560747,"Delta":190323775},{"NoteNumber":57,"Velocity":36,"Duration":111111,"SoundDuration":111111,"Delta":190884522},{"NoteNumber":61,"Velocity":39,"Duration":111111,"SoundDuration":111111,"Delta":191106745},{"NoteNumber":62,"Velocity":48,"Duration":1564778,"SoundDuration":1564778,"Delta":191328967},{"NoteNumber":74,"Velocity":38,"Duration":96165,"SoundDuration":96165,"Delta":191751849},{"NoteNumber":65,"Velocity":38,"Duration":96165,"SoundDuration":96165,"Delta":191751849},{"NoteNumber":70,"Velocity":33,"Duration":96165,"SoundDuration":96165,"Delta":191751849},{"NoteNumber":58,"Velocity":33,"Duration":96165,"SoundDuration":96165,"Delta":191751849},{"NoteNumber":77,"Velocity":34,"Duration":95785,"SoundDuration":95785,"Delta":191944405},{"NoteNumber":65,"Velocity":50,"Duration":95177,"SoundDuration":95177,"Delta":192135723},{"NoteNumber":74,"Velocity":50,"Duration":95177,"SoundDuration":95177,"Delta":192135723},{"NoteNumber":58,"Velocity":42,"Duration":95177,"SoundDuration":95177,"Delta":192135723},{"NoteNumber":69,"Velocity":42,"Duration":95177,"SoundDuration":95177,"Delta":192135723},{"NoteNumber":77,"Velocity":45,"Duration":94449,"SoundDuration":94449,"Delta":192325588},{"NoteNumber":74,"Velocity":54,"Duration":93265,"SoundDuration":93265,"Delta":192514022},{"NoteNumber":65,"Velocity":54,"Duration":93265,"SoundDuration":93265,"Delta":192514022},{"NoteNumber":68,"Velocity":42,"Duration":93265,"SoundDuration":93265,"Delta":192514022},{"NoteNumber":58,"Velocity":42,"Duration":93265,"SoundDuration":93265,"Delta":192514022},{"NoteNumber":77,"Velocity":36,"Duration":95261,"SoundDuration":95261,"Delta":192700690},{"NoteNumber":65,"Velocity":44,"Duration":99453,"SoundDuration":99453,"Delta":192893745},{"NoteNumber":74,"Velocity":44,"Duration":99453,"SoundDuration":99453,"Delta":192893745},{"NoteNumber":67,"Velocity":34,"Duration":99453,"SoundDuration":99453,"Delta":192893745},{"NoteNumber":58,"Velocity":34,"Duration":99453,"SoundDuration":99453,"Delta":192893745},{"NoteNumber":77,"Velocity":34,"Duration":99999,"SoundDuration":99999,"Delta":193093199},{"NoteNumber":57,"Velocity":36,"Duration":107142,"SoundDuration":107142,"Delta":193293199},{"NoteNumber":61,"Velocity":39,"Duration":107913,"SoundDuration":107913,"Delta":193507484},{"NoteNumber":62,"Velocity":48,"Duration":1575908,"SoundDuration":1575908,"Delta":193723312},{"NoteNumber":74,"Velocity":38,"Duration":98750,"SoundDuration":98750,"Delta":194139826},{"NoteNumber":65,"Velocity":38,"Duration":98750,"SoundDuration":98750,"Delta":194139826},{"NoteNumber":70,"Velocity":33,"Duration":98750,"SoundDuration":98750,"Delta":194139826},{"NoteNumber":58,"Velocity":33,"Duration":98750,"SoundDuration":98750,"Delta":194139826},{"NoteNumber":77,"Velocity":34,"Duration":97656,"SoundDuration":97656,"Delta":194336862},{"NoteNumber":65,"Velocity":50,"Duration":96941,"SoundDuration":96941,"Delta":194531911},{"NoteNumber":74,"Velocity":50,"Duration":96941,"SoundDuration":96941,"Delta":194531911},{"NoteNumber":58,"Velocity":42,"Duration":96941,"SoundDuration":96941,"Delta":194531911},{"NoteNumber":69,"Velocity":42,"Duration":96941,"SoundDuration":96941,"Delta":194531911},{"NoteNumber":77,"Velocity":45,"Duration":96072,"SoundDuration":96072,"Delta":194725254},{"NoteNumber":74,"Velocity":54,"Duration":95177,"SoundDuration":95177,"Delta":194916960},{"NoteNumber":65,"Velocity":54,"Duration":95177,"SoundDuration":95177,"Delta":194916960},{"NoteNumber":68,"Velocity":42,"Duration":95177,"SoundDuration":95177,"Delta":194916960},{"NoteNumber":58,"Velocity":42,"Duration":95177,"SoundDuration":95177,"Delta":194916960},{"NoteNumber":77,"Velocity":36,"Duration":95633,"SoundDuration":95633,"Delta":195106925},{"NoteNumber":65,"Velocity":44,"Duration":97604,"SoundDuration":97604,"Delta":195299220},{"NoteNumber":74,"Velocity":44,"Duration":97604,"SoundDuration":97604,"Delta":195299220},{"NoteNumber":67,"Velocity":34,"Duration":97604,"SoundDuration":97604,"Delta":195299220},{"NoteNumber":58,"Velocity":34,"Duration":97604,"SoundDuration":97604,"Delta":195299220},{"NoteNumber":77,"Velocity":34,"Duration":101351,"SoundDuration":101351,"Delta":195495846},{"NoteNumber":57,"Velocity":41,"Duration":115384,"SoundDuration":115384,"Delta":195698549},{"NoteNumber":61,"Velocity":48,"Duration":122950,"SoundDuration":122950,"Delta":195929318},{"NoteNumber":62,"Velocity":53,"Duration":522666,"SoundDuration":522666,"Delta":196175220},{"NoteNumber":62,"Velocity":48,"Duration":296910,"SoundDuration":296910,"Delta":196597755},{"NoteNumber":74,"Velocity":55,"Duration":100131,"SoundDuration":100131,"Delta":196597755},{"NoteNumber":68,"Velocity":48,"Duration":100131,"SoundDuration":100131,"Delta":196597755},{"NoteNumber":56,"Velocity":47,"Duration":100131,"SoundDuration":100131,"Delta":196597755},{"NoteNumber":47,"Velocity":41,"Duration":100131,"SoundDuration":100131,"Delta":196597755},{"NoteNumber":77,"Velocity":51,"Duration":98050,"SoundDuration":98050,"Delta":196796615},{"NoteNumber":65,"Velocity":45,"Duration":98050,"SoundDuration":98050,"Delta":196796615},{"NoteNumber":62,"Velocity":47,"Duration":673557,"SoundDuration":673557,"Delta":196796615},{"NoteNumber":70,"Velocity":60,"Duration":96743,"SoundDuration":96743,"Delta":196992059},{"NoteNumber":63,"Velocity":60,"Duration":96743,"SoundDuration":96743,"Delta":196992059},{"NoteNumber":75,"Velocity":69,"Duration":96743,"SoundDuration":96743,"Delta":196992059},{"NoteNumber":46,"Velocity":50,"Duration":96743,"SoundDuration":96743,"Delta":196992059},{"NoteNumber":55,"Velocity":57,"Duration":96743,"SoundDuration":96743,"Delta":196992059},{"NoteNumber":79,"Velocity":58,"Duration":95653,"SoundDuration":95653,"Delta":197185091},{"NoteNumber":67,"Velocity":51,"Duration":95653,"SoundDuration":95653,"Delta":197185091},{"NoteNumber":63,"Velocity":57,"Duration":95653,"SoundDuration":95653,"Delta":197185091},{"NoteNumber":70,"Velocity":59,"Duration":94399,"SoundDuration":94399,"Delta":197375773},{"NoteNumber":74,"Velocity":67,"Duration":94399,"SoundDuration":94399,"Delta":197375773},{"NoteNumber":62,"Velocity":59,"Duration":283579,"SoundDuration":283579,"Delta":197375773},{"NoteNumber":44,"Velocity":51,"Duration":94399,"SoundDuration":94399,"Delta":197375773},{"NoteNumber":53,"Velocity":58,"Duration":94399,"SoundDuration":94399,"Delta":197375773},{"NoteNumber":65,"Velocity":49,"Duration":94997,"SoundDuration":94997,"Delta":197564355},{"NoteNumber":77,"Velocity":56,"Duration":94997,"SoundDuration":94997,"Delta":197564355},{"NoteNumber":62,"Velocity":56,"Duration":190682,"SoundDuration":190682,"Delta":197564355},{"NoteNumber":62,"Velocity":64,"Duration":96484,"SoundDuration":96484,"Delta":197755037},{"NoteNumber":69,"Velocity":64,"Duration":96484,"SoundDuration":96484,"Delta":197755037},{"NoteNumber":74,"Velocity":73,"Duration":96484,"SoundDuration":96484,"Delta":197755037},{"NoteNumber":45,"Velocity":53,"Duration":96484,"SoundDuration":96484,"Delta":197755037},{"NoteNumber":53,"Velocity":60,"Duration":96484,"SoundDuration":96484,"Delta":197755037},{"NoteNumber":65,"Velocity":55,"Duration":98200,"SoundDuration":98200,"Delta":197948862},{"NoteNumber":77,"Velocity":63,"Duration":98200,"SoundDuration":98200,"Delta":197948862},{"NoteNumber":62,"Velocity":55,"Duration":98200,"SoundDuration":98200,"Delta":197948862},{"NoteNumber":61,"Velocity":67,"Duration":98296,"SoundDuration":98296,"Delta":198145359},{"NoteNumber":69,"Velocity":67,"Duration":98296,"SoundDuration":98296,"Delta":198145359},{"NoteNumber":73,"Velocity":77,"Duration":98296,"SoundDuration":98296,"Delta":198145359},{"NoteNumber":45,"Velocity":62,"Duration":98296,"SoundDuration":98296,"Delta":198145359},{"NoteNumber":52,"Velocity":62,"Duration":98296,"SoundDuration":98296,"Delta":198145359},{"NoteNumber":57,"Velocity":71,"Duration":98296,"SoundDuration":98296,"Delta":198145359},{"NoteNumber":64,"Velocity":61,"Duration":109488,"SoundDuration":109488,"Delta":198353144},{"NoteNumber":76,"Velocity":70,"Duration":109488,"SoundDuration":109488,"Delta":198353144},{"NoteNumber":61,"Velocity":69,"Duration":109488,"SoundDuration":109488,"Delta":198353144},{"NoteNumber":65,"Velocity":57,"Duration":422535,"SoundDuration":422535,"Delta":198578017},{"NoteNumber":69,"Velocity":57,"Duration":422535,"SoundDuration":422535,"Delta":198578017},{"NoteNumber":74,"Velocity":80,"Duration":422535,"SoundDuration":422535,"Delta":198578017},{"NoteNumber":62,"Velocity":78,"Duration":523452,"SoundDuration":523452,"Delta":198578017},{"NoteNumber":57,"Velocity":68,"Duration":422535,"SoundDuration":422535,"Delta":198578017},{"NoteNumber":50,"Velocity":68,"Duration":422535,"SoundDuration":422535,"Delta":198578017},{"NoteNumber":62,"Velocity":51,"Duration":297264,"SoundDuration":297264,"Delta":199000552},{"NoteNumber":74,"Velocity":60,"Duration":100917,"SoundDuration":100917,"Delta":199000552},{"NoteNumber":68,"Velocity":51,"Duration":100917,"SoundDuration":100917,"Delta":199000552},{"NoteNumber":47,"Velocity":49,"Duration":100917,"SoundDuration":100917,"Delta":199000552},{"NoteNumber":56,"Velocity":58,"Duration":100917,"SoundDuration":100917,"Delta":199000552},{"NoteNumber":77,"Velocity":48,"Duration":98050,"SoundDuration":98050,"Delta":199199766},{"NoteNumber":65,"Velocity":40,"Duration":98050,"SoundDuration":98050,"Delta":199199766},{"NoteNumber":62,"Velocity":47,"Duration":679844,"SoundDuration":679844,"Delta":199199766},{"NoteNumber":75,"Velocity":59,"Duration":97372,"SoundDuration":97372,"Delta":199395473},{"NoteNumber":63,"Velocity":50,"Duration":97372,"SoundDuration":97372,"Delta":199395473},{"NoteNumber":70,"Velocity":50,"Duration":97372,"SoundDuration":97372,"Delta":199395473},{"NoteNumber":55,"Velocity":58,"Duration":97372,"SoundDuration":97372,"Delta":199395473},{"NoteNumber":46,"Velocity":49,"Duration":97372,"SoundDuration":97372,"Delta":199395473},{"NoteNumber":79,"Velocity":48,"Duration":96692,"SoundDuration":96692,"Delta":199589870},{"NoteNumber":67,"Velocity":40,"Duration":96692,"SoundDuration":96692,"Delta":199589870},{"NoteNumber":63,"Velocity":47,"Duration":96692,"SoundDuration":96692,"Delta":199589870},{"NoteNumber":70,"Velocity":48,"Duration":96647,"SoundDuration":96647,"Delta":199782963},{"NoteNumber":74,"Velocity":57,"Duration":96647,"SoundDuration":96647,"Delta":199782963},{"NoteNumber":62,"Velocity":48,"Duration":295119,"SoundDuration":295119,"Delta":199782963},{"NoteNumber":44,"Velocity":48,"Duration":96647,"SoundDuration":96647,"Delta":199782963},{"NoteNumber":53,"Velocity":57,"Duration":96647,"SoundDuration":96647,"Delta":199782963},{"NoteNumber":77,"Velocity":43,"Duration":99580,"SoundDuration":99580,"Delta":199978502},{"NoteNumber":65,"Velocity":36,"Duration":99580,"SoundDuration":99580,"Delta":199978502},{"NoteNumber":62,"Velocity":47,"Duration":199636,"SoundDuration":199636,"Delta":199978502},{"NoteNumber":74,"Velocity":53,"Duration":100750,"SoundDuration":100750,"Delta":200178139},{"NoteNumber":69,"Velocity":45,"Duration":100750,"SoundDuration":100750,"Delta":200178139},{"NoteNumber":62,"Velocity":45,"Duration":100750,"SoundDuration":100750,"Delta":200178139},{"NoteNumber":45,"Velocity":45,"Duration":100750,"SoundDuration":100750,"Delta":200178139},{"NoteNumber":53,"Velocity":53,"Duration":100750,"SoundDuration":100750,"Delta":200178139},{"NoteNumber":65,"Velocity":31,"Duration":102040,"SoundDuration":102040,"Delta":200380355},{"NoteNumber":77,"Velocity":44,"Duration":102040,"SoundDuration":102040,"Delta":200380355},{"NoteNumber":62,"Velocity":45,"Duration":102040,"SoundDuration":102040,"Delta":200380355},{"NoteNumber":61,"Velocity":43,"Duration":117187,"SoundDuration":117187,"Delta":200584437},{"NoteNumber":69,"Velocity":43,"Duration":117187,"SoundDuration":117187,"Delta":200584437},{"NoteNumber":73,"Velocity":51,"Duration":117187,"SoundDuration":117187,"Delta":200584437},{"NoteNumber":57,"Velocity":54,"Duration":117187,"SoundDuration":117187,"Delta":200584437},{"NoteNumber":52,"Velocity":45,"Duration":117187,"SoundDuration":117187,"Delta":200584437},{"NoteNumber":45,"Velocity":45,"Duration":117187,"SoundDuration":117187,"Delta":200584437},{"NoteNumber":76,"Velocity":40,"Duration":127118,"SoundDuration":127118,"Delta":200818812},{"NoteNumber":64,"Velocity":34,"Duration":127118,"SoundDuration":127118,"Delta":200818812},{"NoteNumber":61,"Velocity":57,"Duration":127118,"SoundDuration":127118,"Delta":200818812},{"NoteNumber":74,"Velocity":58,"Duration":254237,"SoundDuration":254237,"Delta":201073049},{"NoteNumber":69,"Velocity":58,"Duration":254237,"SoundDuration":254237,"Delta":201073049},{"NoteNumber":65,"Velocity":58,"Duration":254237,"SoundDuration":254237,"Delta":201073049},{"NoteNumber":62,"Velocity":54,"Duration":2514616,"SoundDuration":2514616,"Delta":201073049},{"NoteNumber":50,"Velocity":45,"Duration":254237,"SoundDuration":254237,"Delta":201073049},{"NoteNumber":57,"Velocity":54,"Duration":254237,"SoundDuration":254237,"Delta":201073049},{"NoteNumber":80,"Velocity":42,"Duration":195312,"SoundDuration":195312,"Delta":201581524},{"NoteNumber":76,"Velocity":40,"Duration":195312,"SoundDuration":195312,"Delta":201581524},{"NoteNumber":77,"Velocity":41,"Duration":203251,"SoundDuration":203251,"Delta":201776836},{"NoteNumber":81,"Velocity":45,"Duration":203251,"SoundDuration":203251,"Delta":201776836},{"NoteNumber":74,"Velocity":35,"Duration":203251,"SoundDuration":203251,"Delta":201776836},{"NoteNumber":88,"Velocity":40,"Duration":192802,"SoundDuration":192802,"Delta":201980088},{"NoteNumber":85,"Velocity":34,"Duration":192802,"SoundDuration":192802,"Delta":201980088},{"NoteNumber":69,"Velocity":40,"Duration":192802,"SoundDuration":192802,"Delta":201980088},{"NoteNumber":86,"Velocity":40,"Duration":207469,"SoundDuration":207469,"Delta":202172890},{"NoteNumber":89,"Velocity":40,"Duration":207469,"SoundDuration":207469,"Delta":202172890},{"NoteNumber":74,"Velocity":37,"Duration":207469,"SoundDuration":207469,"Delta":202172890},{"NoteNumber":76,"Velocity":47,"Duration":189154,"SoundDuration":189154,"Delta":202380359},{"NoteNumber":73,"Velocity":40,"Duration":189154,"SoundDuration":189154,"Delta":202380359},{"NoteNumber":70,"Velocity":40,"Duration":189154,"SoundDuration":189154,"Delta":202380359},{"NoteNumber":74,"Velocity":34,"Duration":196592,"SoundDuration":196592,"Delta":202569514},{"NoteNumber":77,"Velocity":40,"Duration":196592,"SoundDuration":196592,"Delta":202569514},{"NoteNumber":69,"Velocity":36,"Duration":196592,"SoundDuration":196592,"Delta":202569514},{"NoteNumber":82,"Velocity":36,"Duration":190355,"SoundDuration":190355,"Delta":202766107},{"NoteNumber":85,"Velocity":44,"Duration":190355,"SoundDuration":190355,"Delta":202766107},{"NoteNumber":67,"Velocity":40,"Duration":190355,"SoundDuration":190355,"Delta":202766107},{"NoteNumber":81,"Velocity":34,"Duration":217391,"SoundDuration":217391,"Delta":202956462},{"NoteNumber":86,"Velocity":40,"Duration":217391,"SoundDuration":217391,"Delta":202956462},{"NoteNumber":65,"Velocity":36,"Duration":217391,"SoundDuration":217391,"Delta":202956462},{"NoteNumber":73,"Velocity":47,"Duration":205479,"SoundDuration":205479,"Delta":203173853},{"NoteNumber":70,"Velocity":40,"Duration":205479,"SoundDuration":205479,"Delta":203173853},{"NoteNumber":67,"Velocity":40,"Duration":205479,"SoundDuration":205479,"Delta":203173853},{"NoteNumber":69,"Velocity":34,"Duration":208333,"SoundDuration":208333,"Delta":203379333},{"NoteNumber":74,"Velocity":40,"Duration":208333,"SoundDuration":208333,"Delta":203379333},{"NoteNumber":65,"Velocity":36,"Duration":208333,"SoundDuration":208333,"Delta":203379333},{"NoteNumber":80,"Velocity":44,"Duration":205479,"SoundDuration":205479,"Delta":203587666},{"NoteNumber":76,"Velocity":36,"Duration":205479,"SoundDuration":205479,"Delta":203587666},{"NoteNumber":64,"Velocity":40,"Duration":205479,"SoundDuration":205479,"Delta":203587666},{"NoteNumber":77,"Velocity":34,"Duration":217391,"SoundDuration":217391,"Delta":203793146},{"NoteNumber":81,"Velocity":40,"Duration":217391,"SoundDuration":217391,"Delta":203793146},{"NoteNumber":62,"Velocity":36,"Duration":217391,"SoundDuration":217391,"Delta":203793146},{"NoteNumber":68,"Velocity":42,"Duration":196592,"SoundDuration":196592,"Delta":204010537},{"NoteNumber":64,"Velocity":40,"Duration":196592,"SoundDuration":196592,"Delta":204010537},{"NoteNumber":65,"Velocity":37,"Duration":196592,"SoundDuration":196592,"Delta":204207129},{"NoteNumber":69,"Velocity":45,"Duration":196592,"SoundDuration":196592,"Delta":204207129},{"NoteNumber":62,"Velocity":35,"Duration":196592,"SoundDuration":196592,"Delta":204207129},{"NoteNumber":73,"Velocity":34,"Duration":196592,"SoundDuration":196592,"Delta":204403722},{"NoteNumber":76,"Velocity":40,"Duration":196592,"SoundDuration":196592,"Delta":204403722},{"NoteNumber":57,"Velocity":40,"Duration":196592,"SoundDuration":196592,"Delta":204403722},{"NoteNumber":74,"Velocity":37,"Duration":212765,"SoundDuration":212765,"Delta":204600314},{"NoteNumber":77,"Velocity":40,"Duration":212765,"SoundDuration":212765,"Delta":204600314},{"NoteNumber":62,"Velocity":37,"Duration":212765,"SoundDuration":212765,"Delta":204600314},{"NoteNumber":64,"Velocity":47,"Duration":199999,"SoundDuration":199999,"Delta":204813080},{"NoteNumber":61,"Velocity":40,"Duration":199999,"SoundDuration":199999,"Delta":204813080},{"NoteNumber":58,"Velocity":40,"Duration":199999,"SoundDuration":199999,"Delta":204813080},{"NoteNumber":62,"Velocity":34,"Duration":200000,"SoundDuration":200000,"Delta":205013080},{"NoteNumber":65,"Velocity":40,"Duration":200000,"SoundDuration":200000,"Delta":205013080},{"NoteNumber":57,"Velocity":36,"Duration":200000,"SoundDuration":200000,"Delta":205013080},{"NoteNumber":70,"Velocity":36,"Duration":199999,"SoundDuration":199999,"Delta":205213080},{"NoteNumber":73,"Velocity":44,"Duration":199999,"SoundDuration":199999,"Delta":205213080},{"NoteNumber":55,"Velocity":40,"Duration":199999,"SoundDuration":199999,"Delta":205213080},{"NoteNumber":74,"Velocity":40,"Duration":220588,"SoundDuration":220588,"Delta":205413080},{"NoteNumber":69,"Velocity":34,"Duration":220588,"SoundDuration":220588,"Delta":205413080},{"NoteNumber":53,"Velocity":36,"Duration":220588,"SoundDuration":220588,"Delta":205413080},{"NoteNumber":45,"Velocity":40,"Duration":211267,"SoundDuration":211267,"Delta":205633669},{"NoteNumber":49,"Velocity":40,"Duration":238095,"SoundDuration":238095,"Delta":205844936},{"NoteNumber":50,"Velocity":43,"Duration":2406877,"SoundDuration":2406877,"Delta":206083031},{"NoteNumber":68,"Velocity":37,"Duration":189154,"SoundDuration":189154,"Delta":206493990},{"NoteNumber":64,"Velocity":36,"Duration":189154,"SoundDuration":189154,"Delta":206493990},{"NoteNumber":65,"Velocity":32,"Duration":197889,"SoundDuration":197889,"Delta":206683145},{"NoteNumber":69,"Velocity":40,"Duration":197889,"SoundDuration":197889,"Delta":206683145},{"NoteNumber":62,"Velocity":31,"Duration":197889,"SoundDuration":197889,"Delta":206683145},{"NoteNumber":76,"Velocity":36,"Duration":189154,"SoundDuration":189154,"Delta":206881035},{"NoteNumber":73,"Velocity":30,"Duration":189154,"SoundDuration":189154,"Delta":206881035},{"NoteNumber":57,"Velocity":36,"Duration":189154,"SoundDuration":189154,"Delta":206881035},{"NoteNumber":74,"Velocity":33,"Duration":207469,"SoundDuration":207469,"Delta":207070190},{"NoteNumber":77,"Velocity":36,"Duration":207469,"SoundDuration":207469,"Delta":207070190},{"NoteNumber":62,"Velocity":33,"Duration":207469,"SoundDuration":207469,"Delta":207070190},{"NoteNumber":64,"Velocity":42,"Duration":192802,"SoundDuration":192802,"Delta":207277659},{"NoteNumber":61,"Velocity":36,"Duration":192802,"SoundDuration":192802,"Delta":207277659},{"NoteNumber":58,"Velocity":36,"Duration":192802,"SoundDuration":192802,"Delta":207277659},{"NoteNumber":62,"Velocity":30,"Duration":197889,"SoundDuration":197889,"Delta":207470461},{"NoteNumber":65,"Velocity":36,"Duration":197889,"SoundDuration":197889,"Delta":207470461},{"NoteNumber":57,"Velocity":32,"Duration":197889,"SoundDuration":197889,"Delta":207470461},{"NoteNumber":70,"Velocity":32,"Duration":190355,"SoundDuration":190355,"Delta":207668350},{"NoteNumber":73,"Velocity":39,"Duration":190355,"SoundDuration":190355,"Delta":207668350},{"NoteNumber":55,"Velocity":36,"Duration":190355,"SoundDuration":190355,"Delta":207668350},{"NoteNumber":69,"Velocity":30,"Duration":217391,"SoundDuration":217391,"Delta":207858705},{"NoteNumber":74,"Velocity":36,"Duration":217391,"SoundDuration":217391,"Delta":207858705},{"NoteNumber":53,"Velocity":32,"Duration":217391,"SoundDuration":217391,"Delta":207858705},{"NoteNumber":61,"Velocity":42,"Duration":205479,"SoundDuration":205479,"Delta":208076096},{"NoteNumber":58,"Velocity":36,"Duration":205479,"SoundDuration":205479,"Delta":208076096},{"NoteNumber":55,"Velocity":36,"Duration":205479,"SoundDuration":205479,"Delta":208076096},{"NoteNumber":57,"Velocity":30,"Duration":208333,"SoundDuration":208333,"Delta":208281576},{"NoteNumber":62,"Velocity":36,"Duration":208333,"SoundDuration":208333,"Delta":208281576},{"NoteNumber":53,"Velocity":32,"Duration":208333,"SoundDuration":208333,"Delta":208281576},{"NoteNumber":68,"Velocity":39,"Duration":205479,"SoundDuration":205479,"Delta":208489909},{"NoteNumber":64,"Velocity":32,"Duration":205479,"SoundDuration":205479,"Delta":208489909},{"NoteNumber":52,"Velocity":36,"Duration":205479,"SoundDuration":205479,"Delta":208489909},{"NoteNumber":65,"Velocity":30,"Duration":212765,"SoundDuration":212765,"Delta":208695389},{"NoteNumber":69,"Velocity":36,"Duration":212765,"SoundDuration":212765,"Delta":208695389},{"NoteNumber":50,"Velocity":32,"Duration":212765,"SoundDuration":212765,"Delta":208695389},{"NoteNumber":56,"Velocity":37,"Duration":199203,"SoundDuration":199203,"Delta":208908155},{"NoteNumber":52,"Velocity":36,"Duration":199203,"SoundDuration":199203,"Delta":208908155},{"NoteNumber":53,"Velocity":36,"Duration":199203,"SoundDuration":199203,"Delta":209107358},{"NoteNumber":57,"Velocity":40,"Duration":199203,"SoundDuration":199203,"Delta":209107358},{"NoteNumber":50,"Velocity":31,"Duration":199203,"SoundDuration":199203,"Delta":209107358},{"NoteNumber":61,"Velocity":30,"Duration":199203,"SoundDuration":199203,"Delta":209306561},{"NoteNumber":64,"Velocity":36,"Duration":199203,"SoundDuration":199203,"Delta":209306561},{"NoteNumber":45,"Velocity":36,"Duration":199203,"SoundDuration":199203,"Delta":209306561},{"NoteNumber":62,"Velocity":32,"Duration":212765,"SoundDuration":212765,"Delta":209505764},{"NoteNumber":65,"Velocity":36,"Duration":212765,"SoundDuration":212765,"Delta":209505764},{"NoteNumber":50,"Velocity":33,"Duration":212765,"SoundDuration":212765,"Delta":209505764},{"NoteNumber":52,"Velocity":42,"Duration":205479,"SoundDuration":205479,"Delta":209718530},{"NoteNumber":49,"Velocity":36,"Duration":205479,"SoundDuration":205479,"Delta":209718530},{"NoteNumber":46,"Velocity":36,"Duration":205479,"SoundDuration":205479,"Delta":209718530},{"NoteNumber":50,"Velocity":30,"Duration":205479,"SoundDuration":205479,"Delta":209924010},{"NoteNumber":53,"Velocity":36,"Duration":205479,"SoundDuration":205479,"Delta":209924010},{"NoteNumber":45,"Velocity":32,"Duration":205479,"SoundDuration":205479,"Delta":209924010},{"NoteNumber":58,"Velocity":32,"Duration":205479,"SoundDuration":205479,"Delta":210129489},{"NoteNumber":61,"Velocity":39,"Duration":205479,"SoundDuration":205479,"Delta":210129489},{"NoteNumber":43,"Velocity":36,"Duration":205479,"SoundDuration":205479,"Delta":210129489},{"NoteNumber":62,"Velocity":36,"Duration":220588,"SoundDuration":220588,"Delta":210334969},{"NoteNumber":57,"Velocity":30,"Duration":220588,"SoundDuration":220588,"Delta":210334969},{"NoteNumber":41,"Velocity":32,"Duration":220588,"SoundDuration":220588,"Delta":210334969},{"NoteNumber":33,"Velocity":41,"Duration":211267,"SoundDuration":211267,"Delta":210555557},{"NoteNumber":37,"Velocity":41,"Duration":229007,"SoundDuration":229007,"Delta":210766825},{"NoteNumber":38,"Velocity":39,"Duration":2045532,"SoundDuration":2045532,"Delta":210995832},{"NoteNumber":52,"Velocity":34,"Duration":197926,"SoundDuration":197926,"Delta":211406791},{"NoteNumber":49,"Velocity":28,"Duration":197926,"SoundDuration":197926,"Delta":211406791},{"NoteNumber":44,"Velocity":28,"Duration":197926,"SoundDuration":197926,"Delta":211406791},{"NoteNumber":53,"Velocity":36,"Duration":195920,"SoundDuration":195920,"Delta":211604717},{"NoteNumber":50,"Velocity":31,"Duration":195920,"SoundDuration":195920,"Delta":211604717},{"NoteNumber":45,"Velocity":31,"Duration":195920,"SoundDuration":195920,"Delta":211604717},{"NoteNumber":52,"Velocity":34,"Duration":194429,"SoundDuration":194429,"Delta":211800638},{"NoteNumber":56,"Velocity":40,"Duration":194429,"SoundDuration":194429,"Delta":211800638},{"NoteNumber":46,"Velocity":35,"Duration":194429,"SoundDuration":194429,"Delta":211800638},{"NoteNumber":57,"Velocity":37,"Duration":212765,"SoundDuration":212765,"Delta":211995067},{"NoteNumber":53,"Velocity":32,"Duration":212765,"SoundDuration":212765,"Delta":211995067},{"NoteNumber":45,"Velocity":31,"Duration":212765,"SoundDuration":212765,"Delta":211995067},{"NoteNumber":56,"Velocity":37,"Duration":202562,"SoundDuration":202562,"Delta":212207833},{"NoteNumber":52,"Velocity":26,"Duration":202562,"SoundDuration":202562,"Delta":212207833},{"NoteNumber":49,"Velocity":32,"Duration":202562,"SoundDuration":202562,"Delta":212207833},{"NoteNumber":53,"Velocity":22,"Duration":202702,"SoundDuration":202702,"Delta":212410395},{"NoteNumber":57,"Velocity":32,"Duration":202702,"SoundDuration":202702,"Delta":212410395},{"NoteNumber":50,"Velocity":28,"Duration":202702,"SoundDuration":202702,"Delta":212410395},{"NoteNumber":61,"Velocity":24,"Duration":202702,"SoundDuration":202702,"Delta":212613098},{"NoteNumber":64,"Velocity":35,"Duration":202702,"SoundDuration":202702,"Delta":212613098},{"NoteNumber":46,"Velocity":32,"Duration":202702,"SoundDuration":202702,"Delta":212613098},{"NoteNumber":65,"Velocity":32,"Duration":225563,"SoundDuration":225563,"Delta":212815801},{"NoteNumber":62,"Velocity":22,"Duration":225563,"SoundDuration":225563,"Delta":212815801},{"NoteNumber":45,"Velocity":28,"Duration":225563,"SoundDuration":225563,"Delta":212815801},{"NoteNumber":33,"Velocity":36,"Duration":211267,"SoundDuration":211267,"Delta":213041365},{"NoteNumber":37,"Velocity":36,"Duration":229007,"SoundDuration":229007,"Delta":213252632},{"NoteNumber":38,"Velocity":39,"Duration":2045453,"SoundDuration":2045453,"Delta":213481640},{"NoteNumber":52,"Velocity":34,"Duration":195312,"SoundDuration":195312,"Delta":213884984},{"NoteNumber":49,"Velocity":28,"Duration":195312,"SoundDuration":195312,"Delta":213884984},{"NoteNumber":44,"Velocity":28,"Duration":195312,"SoundDuration":195312,"Delta":213884984},{"NoteNumber":53,"Velocity":36,"Duration":194649,"SoundDuration":194649,"Delta":214080297},{"NoteNumber":50,"Velocity":31,"Duration":194649,"SoundDuration":194649,"Delta":214080297},{"NoteNumber":45,"Velocity":31,"Duration":194649,"SoundDuration":194649,"Delta":214080297},{"NoteNumber":52,"Velocity":34,"Duration":193934,"SoundDuration":193934,"Delta":214274946},{"NoteNumber":56,"Velocity":40,"Duration":193934,"SoundDuration":193934,"Delta":214274946},{"NoteNumber":46,"Velocity":35,"Duration":193934,"SoundDuration":193934,"Delta":214274946},{"NoteNumber":57,"Velocity":37,"Duration":212765,"SoundDuration":212765,"Delta":214468881},{"NoteNumber":53,"Velocity":32,"Duration":212765,"SoundDuration":212765,"Delta":214468881},{"NoteNumber":45,"Velocity":31,"Duration":212765,"SoundDuration":212765,"Delta":214468881},{"NoteNumber":56,"Velocity":37,"Duration":205479,"SoundDuration":205479,"Delta":214681647},{"NoteNumber":52,"Velocity":26,"Duration":205479,"SoundDuration":205479,"Delta":214681647},{"NoteNumber":49,"Velocity":32,"Duration":205479,"SoundDuration":205479,"Delta":214681647},{"NoteNumber":53,"Velocity":22,"Duration":205479,"SoundDuration":205479,"Delta":214887126},{"NoteNumber":57,"Velocity":32,"Duration":205479,"SoundDuration":205479,"Delta":214887126},{"NoteNumber":50,"Velocity":28,"Duration":205479,"SoundDuration":205479,"Delta":214887126},{"NoteNumber":61,"Velocity":24,"Duration":205479,"SoundDuration":205479,"Delta":215092606},{"NoteNumber":64,"Velocity":35,"Duration":205479,"SoundDuration":205479,"Delta":215092606},{"NoteNumber":46,"Velocity":32,"Duration":205479,"SoundDuration":205479,"Delta":215092606},{"NoteNumber":65,"Velocity":32,"Duration":229007,"SoundDuration":229007,"Delta":215298085},{"NoteNumber":62,"Velocity":22,"Duration":229007,"SoundDuration":229007,"Delta":215298085},{"NoteNumber":45,"Velocity":28,"Duration":229007,"SoundDuration":229007,"Delta":215298085},{"NoteNumber":33,"Velocity":36,"Duration":211267,"SoundDuration":211267,"Delta":215527093},{"NoteNumber":37,"Velocity":36,"Duration":229007,"SoundDuration":229007,"Delta":215738361},{"NoteNumber":38,"Velocity":39,"Duration":2011524,"SoundDuration":2011524,"Delta":215967368},{"NoteNumber":52,"Velocity":34,"Duration":198551,"SoundDuration":198551,"Delta":216378086},{"NoteNumber":49,"Velocity":28,"Duration":198551,"SoundDuration":198551,"Delta":216378086},{"NoteNumber":44,"Velocity":28,"Duration":198551,"SoundDuration":198551,"Delta":216378086},{"NoteNumber":53,"Velocity":36,"Duration":197208,"SoundDuration":197208,"Delta":216576637},{"NoteNumber":50,"Velocity":31,"Duration":197208,"SoundDuration":197208,"Delta":216576637},{"NoteNumber":45,"Velocity":31,"Duration":197208,"SoundDuration":197208,"Delta":216576637},{"NoteNumber":52,"Velocity":34,"Duration":196069,"SoundDuration":196069,"Delta":216773846},{"NoteNumber":56,"Velocity":40,"Duration":196069,"SoundDuration":196069,"Delta":216773846},{"NoteNumber":46,"Velocity":35,"Duration":196069,"SoundDuration":196069,"Delta":216773846},{"NoteNumber":57,"Velocity":37,"Duration":195312,"SoundDuration":195312,"Delta":216969915},{"NoteNumber":53,"Velocity":32,"Duration":195312,"SoundDuration":195312,"Delta":216969915},{"NoteNumber":45,"Velocity":31,"Duration":195312,"SoundDuration":195312,"Delta":216969915},{"NoteNumber":56,"Velocity":37,"Duration":197806,"SoundDuration":197806,"Delta":217165228},{"NoteNumber":52,"Velocity":26,"Duration":197806,"SoundDuration":197806,"Delta":217165228},{"NoteNumber":49,"Velocity":32,"Duration":197806,"SoundDuration":197806,"Delta":217165228},{"NoteNumber":53,"Velocity":22,"Duration":210378,"SoundDuration":210378,"Delta":217363035},{"NoteNumber":57,"Velocity":32,"Duration":210378,"SoundDuration":210378,"Delta":217363035},{"NoteNumber":50,"Velocity":28,"Duration":210378,"SoundDuration":210378,"Delta":217363035},{"NoteNumber":61,"Velocity":24,"Duration":199999,"SoundDuration":199999,"Delta":217573413},{"NoteNumber":64,"Velocity":35,"Duration":199999,"SoundDuration":199999,"Delta":217573413},{"NoteNumber":46,"Velocity":32,"Duration":199999,"SoundDuration":199999,"Delta":217573413},{"NoteNumber":65,"Velocity":32,"Duration":205479,"SoundDuration":205479,"Delta":217773413},{"NoteNumber":62,"Velocity":22,"Duration":205479,"SoundDuration":205479,"Delta":217773413},{"NoteNumber":45,"Velocity":28,"Duration":205479,"SoundDuration":205479,"Delta":217773413},{"NoteNumber":57,"Velocity":24,"Duration":201613,"SoundDuration":201613,"Delta":217978893},{"NoteNumber":61,"Velocity":24,"Duration":201613,"SoundDuration":201613,"Delta":217978893},{"NoteNumber":58,"Velocity":22,"Duration":206043,"SoundDuration":206043,"Delta":218180506},{"NoteNumber":62,"Velocity":32,"Duration":206043,"SoundDuration":206043,"Delta":218180506},{"NoteNumber":52,"Velocity":30,"Duration":204081,"SoundDuration":204081,"Delta":218386550},{"NoteNumber":56,"Velocity":36,"Duration":204081,"SoundDuration":204081,"Delta":218386550},{"NoteNumber":53,"Velocity":28,"Duration":204081,"SoundDuration":204081,"Delta":218590632},{"NoteNumber":57,"Velocity":33,"Duration":204081,"SoundDuration":204081,"Delta":218590632},{"NoteNumber":49,"Velocity":25,"Duration":204081,"SoundDuration":204081,"Delta":218794713},{"NoteNumber":52,"Velocity":30,"Duration":204081,"SoundDuration":204081,"Delta":218794713},{"NoteNumber":50,"Velocity":27,"Duration":225563,"SoundDuration":225563,"Delta":218998795},{"NoteNumber":53,"Velocity":32,"Duration":225563,"SoundDuration":225563,"Delta":218998795},{"NoteNumber":40,"Velocity":27,"Duration":206896,"SoundDuration":206896,"Delta":219224359},{"NoteNumber":44,"Velocity":32,"Duration":206896,"SoundDuration":206896,"Delta":219224359},{"NoteNumber":41,"Velocity":25,"Duration":206896,"SoundDuration":206896,"Delta":219431256},{"NoteNumber":45,"Velocity":29,"Duration":206896,"SoundDuration":206896,"Delta":219431256},{"NoteNumber":37,"Velocity":22,"Duration":206896,"SoundDuration":206896,"Delta":219638152},{"NoteNumber":40,"Velocity":27,"Duration":206896,"SoundDuration":206896,"Delta":219638152},{"NoteNumber":38,"Velocity":24,"Duration":280373,"SoundDuration":280373,"Delta":219845049},{"NoteNumber":41,"Velocity":28,"Duration":280373,"SoundDuration":280373,"Delta":219845049},{"NoteNumber":38,"Velocity":37,"Duration":495868,"SoundDuration":495868,"Delta":220125422},{"NoteNumber":65,"Velocity":48,"Duration":1768518,"SoundDuration":1768518,"Delta":221117158},{"NoteNumber":58,"Velocity":48,"Duration":1768518,"SoundDuration":1768518,"Delta":221117158},{"NoteNumber":62,"Velocity":48,"Duration":1768518,"SoundDuration":1768518,"Delta":221117158},{"NoteNumber":70,"Velocity":57,"Duration":1768518,"SoundDuration":1768518,"Delta":221117158},{"NoteNumber":53,"Velocity":53,"Duration":1768518,"SoundDuration":1768518,"Delta":221117158},{"NoteNumber":50,"Velocity":45,"Duration":1768518,"SoundDuration":1768518,"Delta":221117158},{"NoteNumber":46,"Velocity":45,"Duration":1768518,"SoundDuration":1768518,"Delta":221117158},{"NoteNumber":69,"Velocity":51,"Duration":989583,"SoundDuration":989583,"Delta":222894936},{"NoteNumber":65,"Velocity":43,"Duration":989583,"SoundDuration":989583,"Delta":222894936},{"NoteNumber":60,"Velocity":43,"Duration":989583,"SoundDuration":989583,"Delta":222894936},{"NoteNumber":57,"Velocity":43,"Duration":989583,"SoundDuration":989583,"Delta":222894936},{"NoteNumber":53,"Velocity":41,"Duration":989583,"SoundDuration":989583,"Delta":222894936},{"NoteNumber":48,"Velocity":34,"Duration":989583,"SoundDuration":989583,"Delta":222894936},{"NoteNumber":41,"Velocity":34,"Duration":989583,"SoundDuration":989583,"Delta":222894936},{"NoteNumber":65,"Velocity":45,"Duration":2000000,"SoundDuration":2000000,"Delta":223894936},{"NoteNumber":62,"Velocity":38,"Duration":2000000,"SoundDuration":2000000,"Delta":223894936},{"NoteNumber":57,"Velocity":38,"Duration":2000000,"SoundDuration":2000000,"Delta":223894936},{"NoteNumber":53,"Velocity":38,"Duration":2000000,"SoundDuration":2000000,"Delta":223894936},{"NoteNumber":45,"Velocity":40,"Duration":2000000,"SoundDuration":2000000,"Delta":223894936},{"NoteNumber":33,"Velocity":34,"Duration":2000000,"SoundDuration":2000000,"Delta":223894936},{"NoteNumber":69,"Velocity":47,"Duration":252100,"SoundDuration":252100,"Delta":226440391},{"NoteNumber":61,"Velocity":39,"Duration":571249,"SoundDuration":571249,"Delta":226440391},{"NoteNumber":45,"Velocity":24,"Duration":571249,"SoundDuration":571249,"Delta":226440391},{"NoteNumber":55,"Velocity":29,"Duration":571249,"SoundDuration":571249,"Delta":226440391},{"NoteNumber":73,"Velocity":49,"Duration":319149,"SoundDuration":319149,"Delta":226692492},{"NoteNumber":74,"Velocity":54,"Duration":4390244,"SoundDuration":4390244,"Delta":227011641},{"NoteNumber":62,"Velocity":45,"Duration":4390244,"SoundDuration":4390244,"Delta":227011641},{"NoteNumber":38,"Velocity":31,"Duration":4390244,"SoundDuration":4390244,"Delta":227011641},{"NoteNumber":45,"Velocity":31,"Duration":4390244,"SoundDuration":4390244,"Delta":227011641},{"NoteNumber":53,"Velocity":37,"Duration":4390244,"SoundDuration":4390244,"Delta":227011641},{"NoteNumber":26,"Velocity":31,"Duration":2926829,"SoundDuration":2926829,"Delta":228475056}],"license":{"name":"Creative Commons Attribution-ShareAlike 3.0 Germany","url":"http://creativecommons.org/licenses/by-sa/3.0/de/deed.en","text":"The MIDI, audio (MP3, OGG) and video files of Bernd Krueger are licensed under the cc-by-sa Germany License. This means that you can use and adapt the files, as long as you attribute the copyright holder.\n\nName: Bernd Krueger\nSource: http://www.piano-midi.de\n\nThe distribution or public playback of the files is only allowed under identical license conditions.\n\nThe scores are open source.","attribution":"MIDI files by Bernd Krueger (piano-midi.de)","attributionUrl":"http://www.piano-midi.de"}}