{"title":"Prelude in C-sharp minor, Op. 3 No. 2","artist":"Rachmaninoff","durationMs":243458,"midiSha256":"bf38f32eec6bb564b2a3adb1b2b6b7e8a01893fe4d53426baa3e18a5ccb9db43","midiObject":[{"NoteNumber":57,"Velocity":94,"Duration":1999999,"SoundDuration":1999999,"Delta":0},{"NoteNumber":33,"Velocity":66,"Duration":1999999,"SoundDuration":1999999,"Delta":0},{"NoteNumber":45,"Velocity":78,"Duration":1999999,"SoundDuration":1999999,"Delta":0},{"NoteNumber":56,"Velocity":94,"Duration":2000000,"SoundDuration":2000000,"Delta":2000000},{"NoteNumber":32,"Velocity":66,"Duration":2000000,"SoundDuration":2000000,"Delta":2000000},{"NoteNumber":44,"Velocity":78,"Duration":2000000,"SoundDuration":2000000,"Delta":2000000},{"NoteNumber":49,"Velocity":98,"Duration":10444443,"SoundDuration":10444443,"Delta":4000000},{"NoteNumber":25,"Velocity":70,"Duration":10444443,"SoundDuration":10444443,"Delta":4000000},{"NoteNumber":37,"Velocity":82,"Duration":10444443,"SoundDuration":10444443,"Delta":4000000},{"NoteNumber":68,"Velocity":21,"Duration":991666,"SoundDuration":991666,"Delta":11444443},{"NoteNumber":61,"Velocity":21,"Duration":1041666,"SoundDuration":1041666,"Delta":11444443},{"NoteNumber":73,"Velocity":26,"Duration":1041666,"SoundDuration":1041666,"Delta":11444443},{"NoteNumber":64,"Velocity":23,"Duration":991666,"SoundDuration":991666,"Delta":11444443},{"NoteNumber":56,"Velocity":19,"Duration":1000000,"SoundDuration":1000000,"Delta":11444443},{"NoteNumber":52,"Velocity":19,"Duration":1041666,"SoundDuration":1041666,"Delta":11444443},{"NoteNumber":71,"Velocity":21,"Duration":1041666,"SoundDuration":1041666,"Delta":12444443},{"NoteNumber":64,"Velocity":21,"Duration":1041666,"SoundDuration":1041666,"Delta":12444443},{"NoteNumber":76,"Velocity":26,"Duration":1041666,"SoundDuration":1041666,"Delta":12444443},{"NoteNumber":68,"Velocity":23,"Duration":1041666,"SoundDuration":1041666,"Delta":12444443},{"NoteNumber":59,"Velocity":19,"Duration":1041666,"SoundDuration":1041666,"Delta":12444443},{"NoteNumber":56,"Velocity":19,"Duration":1041666,"SoundDuration":1041666,"Delta":12444443},{"NoteNumber":70,"Velocity":21,"Duration":1000000,"SoundDuration":1000000,"Delta":13444443},{"NoteNumber":75,"Velocity":26,"Duration":1000000,"SoundDuration":1000000,"Delta":13444443},{"NoteNumber":63,"Velocity":21,"Duration":1000000,"SoundDuration":1000000,"Delta":13444443},{"NoteNumber":67,"Velocity":23,"Duration":1000000,"SoundDuration":1000000,"Delta":13444443},{"NoteNumber":58,"Velocity":19,"Duration":1000000,"SoundDuration":1000000,"Delta":13444443},{"NoteNumber":55,"Velocity":19,"Duration":1000000,"SoundDuration":1000000,"Delta":13444443},{"NoteNumber":57,"Velocity":66,"Duration":2000000,"SoundDuration":2000000,"Delta":14444443},{"NoteNumber":33,"Velocity":48,"Duration":2000000,"SoundDuration":2000000,"Delta":14444443},{"NoteNumber":45,"Velocity":57,"Duration":2000000,"SoundDuration":2000000,"Delta":14444443},{"NoteNumber":69,"Velocity":22,"Duration":1000000,"SoundDuration":1000000,"Delta":15444443},{"NoteNumber":62,"Velocity":22,"Duration":1000000,"SoundDuration":1000000,"Delta":15444443},{"NoteNumber":74,"Velocity":27,"Duration":1000000,"SoundDuration":1000000,"Delta":15444443},{"NoteNumber":66,"Velocity":25,"Duration":1000000,"SoundDuration":1000000,"Delta":15444443},{"NoteNumber":60,"Velocity":21,"Duration":1000000,"SoundDuration":1000000,"Delta":15444443},{"NoteNumber":54,"Velocity":21,"Duration":1000000,"SoundDuration":1000000,"Delta":15444443},{"NoteNumber":56,"Velocity":66,"Duration":2071428,"SoundDuration":2071428,"Delta":16444443},{"NoteNumber":32,"Velocity":48,"Duration":2071428,"SoundDuration":2071428,"Delta":16444443},{"NoteNumber":44,"Velocity":58,"Duration":2071428,"SoundDuration":2071428,"Delta":16444443},{"NoteNumber":66,"Velocity":22,"Duration":1071428,"SoundDuration":1071428,"Delta":17444443},{"NoteNumber":72,"Velocity":27,"Duration":1071428,"SoundDuration":1071428,"Delta":17444443},{"NoteNumber":60,"Velocity":22,"Duration":1071428,"SoundDuration":1071428,"Delta":17444443},{"NoteNumber":63,"Velocity":27,"Duration":1071428,"SoundDuration":1071428,"Delta":17444443},{"NoteNumber":54,"Velocity":22,"Duration":1071428,"SoundDuration":1071428,"Delta":17444443},{"NoteNumber":51,"Velocity":22,"Duration":1071428,"SoundDuration":1071428,"Delta":17444443},{"NoteNumber":49,"Velocity":66,"Duration":4000000,"SoundDuration":4000000,"Delta":18515871},{"NoteNumber":25,"Velocity":48,"Duration":4000000,"SoundDuration":4000000,"Delta":18515871},{"NoteNumber":37,"Velocity":57,"Duration":4000000,"SoundDuration":4000000,"Delta":18515871},{"NoteNumber":68,"Velocity":25,"Duration":991666,"SoundDuration":991666,"Delta":19515871},{"NoteNumber":61,"Velocity":25,"Duration":1041666,"SoundDuration":1041666,"Delta":19515871},{"NoteNumber":73,"Velocity":31,"Duration":1041666,"SoundDuration":1041666,"Delta":19515871},{"NoteNumber":64,"Velocity":27,"Duration":991666,"SoundDuration":991666,"Delta":19515871},{"NoteNumber":56,"Velocity":23,"Duration":1000000,"SoundDuration":1000000,"Delta":19515871},{"NoteNumber":52,"Velocity":23,"Duration":1041666,"SoundDuration":1041666,"Delta":19515871},{"NoteNumber":71,"Velocity":25,"Duration":1041666,"SoundDuration":1041666,"Delta":20515871},{"NoteNumber":76,"Velocity":31,"Duration":1041666,"SoundDuration":1041666,"Delta":20515871},{"NoteNumber":64,"Velocity":25,"Duration":1041666,"SoundDuration":1041666,"Delta":20515871},{"NoteNumber":68,"Velocity":27,"Duration":1041666,"SoundDuration":1041666,"Delta":20515871},{"NoteNumber":59,"Velocity":23,"Duration":1041666,"SoundDuration":1041666,"Delta":20515871},{"NoteNumber":56,"Velocity":23,"Duration":1041666,"SoundDuration":1041666,"Delta":20515871},{"NoteNumber":75,"Velocity":31,"Duration":1000000,"SoundDuration":1000000,"Delta":21515871},{"NoteNumber":63,"Velocity":25,"Duration":1000000,"SoundDuration":1000000,"Delta":21515871},{"NoteNumber":70,"Velocity":25,"Duration":1000000,"SoundDuration":1000000,"Delta":21515871},{"NoteNumber":67,"Velocity":27,"Duration":1000000,"SoundDuration":1000000,"Delta":21515871},{"NoteNumber":58,"Velocity":23,"Duration":1000000,"SoundDuration":1000000,"Delta":21515871},{"NoteNumber":55,"Velocity":23,"Duration":1000000,"SoundDuration":1000000,"Delta":21515871},{"NoteNumber":57,"Velocity":73,"Duration":2000000,"SoundDuration":2000000,"Delta":22515871},{"NoteNumber":33,"Velocity":53,"Duration":2000000,"SoundDuration":2000000,"Delta":22515871},{"NoteNumber":45,"Velocity":64,"Duration":2000000,"SoundDuration":2000000,"Delta":22515871},{"NoteNumber":74,"Velocity":32,"Duration":1000000,"SoundDuration":1000000,"Delta":23515871},{"NoteNumber":69,"Velocity":27,"Duration":1000000,"SoundDuration":1000000,"Delta":23515871},{"NoteNumber":62,"Velocity":27,"Duration":1000000,"SoundDuration":1000000,"Delta":23515871},{"NoteNumber":66,"Velocity":30,"Duration":1000000,"SoundDuration":1000000,"Delta":23515871},{"NoteNumber":60,"Velocity":24,"Duration":1000000,"SoundDuration":1000000,"Delta":23515871},{"NoteNumber":54,"Velocity":24,"Duration":1000000,"SoundDuration":1000000,"Delta":23515871},{"NoteNumber":56,"Velocity":77,"Duration":2000000,"SoundDuration":2000000,"Delta":24515871},{"NoteNumber":32,"Velocity":57,"Duration":2000000,"SoundDuration":2000000,"Delta":24515871},{"NoteNumber":44,"Velocity":69,"Duration":2000000,"SoundDuration":2000000,"Delta":24515871},{"NoteNumber":72,"Velocity":33,"Duration":1000000,"SoundDuration":1000000,"Delta":25515871},{"NoteNumber":60,"Velocity":27,"Duration":1000000,"SoundDuration":1000000,"Delta":25515871},{"NoteNumber":66,"Velocity":27,"Duration":1000000,"SoundDuration":1000000,"Delta":25515871},{"NoteNumber":63,"Velocity":33,"Duration":1000000,"SoundDuration":1000000,"Delta":25515871},{"NoteNumber":54,"Velocity":27,"Duration":1000000,"SoundDuration":1000000,"Delta":25515871},{"NoteNumber":51,"Velocity":27,"Duration":1000000,"SoundDuration":1000000,"Delta":25515871},{"NoteNumber":49,"Velocity":77,"Duration":3880051,"SoundDuration":3880051,"Delta":26515871},{"NoteNumber":25,"Velocity":59,"Duration":3880051,"SoundDuration":3880051,"Delta":26515871},{"NoteNumber":37,"Velocity":70,"Duration":3880051,"SoundDuration":3880051,"Delta":26515871},{"NoteNumber":68,"Velocity":44,"Duration":915384,"SoundDuration":915384,"Delta":27532820},{"NoteNumber":73,"Velocity":55,"Duration":923076,"SoundDuration":923076,"Delta":27532820},{"NoteNumber":61,"Velocity":44,"Duration":915384,"SoundDuration":915384,"Delta":27532820},{"NoteNumber":64,"Velocity":48,"Duration":961538,"SoundDuration":961538,"Delta":27532820},{"NoteNumber":56,"Velocity":40,"Duration":961538,"SoundDuration":961538,"Delta":27532820},{"NoteNumber":52,"Velocity":40,"Duration":961538,"SoundDuration":961538,"Delta":27532820},{"NoteNumber":80,"Velocity":55,"Duration":965449,"SoundDuration":965449,"Delta":28455897},{"NoteNumber":68,"Velocity":44,"Duration":965449,"SoundDuration":965449,"Delta":28455897},{"NoteNumber":73,"Velocity":44,"Duration":923076,"SoundDuration":923076,"Delta":28455897},{"NoteNumber":71,"Velocity":48,"Duration":965449,"SoundDuration":965449,"Delta":28455897},{"NoteNumber":61,"Velocity":40,"Duration":923076,"SoundDuration":923076,"Delta":28455897},{"NoteNumber":59,"Velocity":40,"Duration":965449,"SoundDuration":965449,"Delta":28455897},{"NoteNumber":78,"Velocity":55,"Duration":1016949,"SoundDuration":1016949,"Delta":29378974},{"NoteNumber":73,"Velocity":44,"Duration":1016949,"SoundDuration":1016949,"Delta":29378974},{"NoteNumber":66,"Velocity":44,"Duration":1016949,"SoundDuration":1016949,"Delta":29378974},{"NoteNumber":69,"Velocity":48,"Duration":1016949,"SoundDuration":1016949,"Delta":29378974},{"NoteNumber":61,"Velocity":40,"Duration":1016949,"SoundDuration":1016949,"Delta":29378974},{"NoteNumber":57,"Velocity":40,"Duration":1016949,"SoundDuration":1016949,"Delta":29378974},{"NoteNumber":60,"Velocity":80,"Duration":1890819,"SoundDuration":1890819,"Delta":30395923},{"NoteNumber":36,"Velocity":59,"Duration":1890819,"SoundDuration":1890819,"Delta":30395923},{"NoteNumber":48,"Velocity":70,"Duration":1890819,"SoundDuration":1890819,"Delta":30395923},{"NoteNumber":64,"Velocity":51,"Duration":967742,"SoundDuration":967742,"Delta":31319000},{"NoteNumber":69,"Velocity":51,"Duration":967742,"SoundDuration":967742,"Delta":31319000},{"NoteNumber":76,"Velocity":61,"Duration":967742,"SoundDuration":967742,"Delta":31319000},{"NoteNumber":66,"Velocity":57,"Duration":967742,"SoundDuration":967742,"Delta":31319000},{"NoteNumber":57,"Velocity":46,"Duration":967742,"SoundDuration":967742,"Delta":31319000},{"NoteNumber":54,"Velocity":46,"Duration":967742,"SoundDuration":967742,"Delta":31319000},{"NoteNumber":59,"Velocity":80,"Duration":1935484,"SoundDuration":1935484,"Delta":32286742},{"NoteNumber":35,"Velocity":60,"Duration":1935484,"SoundDuration":1935484,"Delta":32286742},{"NoteNumber":47,"Velocity":71,"Duration":1935484,"SoundDuration":1935484,"Delta":32286742},{"NoteNumber":75,"Velocity":61,"Duration":967742,"SoundDuration":967742,"Delta":33254484},{"NoteNumber":63,"Velocity":51,"Duration":967742,"SoundDuration":967742,"Delta":33254484},{"NoteNumber":69,"Velocity":51,"Duration":967742,"SoundDuration":967742,"Delta":33254484},{"NoteNumber":66,"Velocity":61,"Duration":967742,"SoundDuration":967742,"Delta":33254484},{"NoteNumber":57,"Velocity":51,"Duration":967742,"SoundDuration":967742,"Delta":33254484},{"NoteNumber":54,"Velocity":51,"Duration":967742,"SoundDuration":967742,"Delta":33254484},{"NoteNumber":52,"Velocity":83,"Duration":3753665,"SoundDuration":3753665,"Delta":34222226},{"NoteNumber":28,"Velocity":59,"Duration":3753665,"SoundDuration":3753665,"Delta":34222226},{"NoteNumber":40,"Velocity":70,"Duration":3753665,"SoundDuration":3753665,"Delta":34222226},{"NoteNumber":76,"Velocity":72,"Duration":909090,"SoundDuration":909090,"Delta":35189968},{"NoteNumber":64,"Velocity":57,"Duration":901515,"SoundDuration":901515,"Delta":35189968},{"NoteNumber":71,"Velocity":57,"Duration":909090,"SoundDuration":909090,"Delta":35189968},{"NoteNumber":68,"Velocity":62,"Duration":946969,"SoundDuration":946969,"Delta":35189968},{"NoteNumber":59,"Velocity":52,"Duration":946969,"SoundDuration":946969,"Delta":35189968},{"NoteNumber":56,"Velocity":52,"Duration":946969,"SoundDuration":946969,"Delta":35189968},{"NoteNumber":83,"Velocity":75,"Duration":949413,"SoundDuration":949413,"Delta":36099059},{"NoteNumber":76,"Velocity":59,"Duration":909091,"SoundDuration":909091,"Delta":36099059},{"NoteNumber":71,"Velocity":59,"Duration":949413,"SoundDuration":949413,"Delta":36099059},{"NoteNumber":75,"Velocity":64,"Duration":949413,"SoundDuration":949413,"Delta":36099059},{"NoteNumber":64,"Velocity":55,"Duration":909091,"SoundDuration":909091,"Delta":36099059},{"NoteNumber":63,"Velocity":55,"Duration":949413,"SoundDuration":949413,"Delta":36099059},{"NoteNumber":76,"Velocity":59,"Duration":967742,"SoundDuration":967742,"Delta":37008150},{"NoteNumber":81,"Velocity":75,"Duration":967742,"SoundDuration":967742,"Delta":37008150},{"NoteNumber":69,"Velocity":59,"Duration":967742,"SoundDuration":967742,"Delta":37008150},{"NoteNumber":73,"Velocity":64,"Duration":967742,"SoundDuration":967742,"Delta":37008150},{"NoteNumber":64,"Velocity":55,"Duration":959677,"SoundDuration":959677,"Delta":37008150},{"NoteNumber":61,"Velocity":55,"Duration":967742,"SoundDuration":967742,"Delta":37008150},{"NoteNumber":64,"Velocity":88,"Duration":1849083,"SoundDuration":1849083,"Delta":37975892},{"NoteNumber":40,"Velocity":64,"Duration":1849083,"SoundDuration":1849083,"Delta":37975892},{"NoteNumber":52,"Velocity":78,"Duration":1849083,"SoundDuration":1849083,"Delta":37975892},{"NoteNumber":68,"Velocity":60,"Duration":966730,"SoundDuration":966730,"Delta":38858245},{"NoteNumber":80,"Velocity":73,"Duration":966730,"SoundDuration":966730,"Delta":38858245},{"NoteNumber":73,"Velocity":60,"Duration":966730,"SoundDuration":966730,"Delta":38858245},{"NoteNumber":70,"Velocity":67,"Duration":966730,"SoundDuration":966730,"Delta":38858245},{"NoteNumber":61,"Velocity":55,"Duration":966730,"SoundDuration":966730,"Delta":38858245},{"NoteNumber":58,"Velocity":55,"Duration":966730,"SoundDuration":966730,"Delta":38858245},{"NoteNumber":63,"Velocity":88,"Duration":1818182,"SoundDuration":1818182,"Delta":39824976},{"NoteNumber":39,"Velocity":66,"Duration":1818182,"SoundDuration":1818182,"Delta":39824976},{"NoteNumber":51,"Velocity":79,"Duration":1818182,"SoundDuration":1818182,"Delta":39824976},{"NoteNumber":73,"Velocity":60,"Duration":909091,"SoundDuration":909091,"Delta":40734067},{"NoteNumber":67,"Velocity":60,"Duration":909091,"SoundDuration":909091,"Delta":40734067},{"NoteNumber":79,"Velocity":73,"Duration":909091,"SoundDuration":909091,"Delta":40734067},{"NoteNumber":70,"Velocity":73,"Duration":909091,"SoundDuration":909091,"Delta":40734067},{"NoteNumber":61,"Velocity":60,"Duration":909091,"SoundDuration":909091,"Delta":40734067},{"NoteNumber":58,"Velocity":60,"Duration":909091,"SoundDuration":909091,"Delta":40734067},{"NoteNumber":56,"Velocity":92,"Duration":7394481,"SoundDuration":7394481,"Delta":41643158},{"NoteNumber":32,"Velocity":64,"Duration":7394481,"SoundDuration":7394481,"Delta":41643158},{"NoteNumber":44,"Velocity":77,"Duration":7394481,"SoundDuration":7394481,"Delta":41643158},{"NoteNumber":68,"Velocity":51,"Duration":867580,"SoundDuration":867580,"Delta":42580658},{"NoteNumber":80,"Velocity":60,"Duration":867580,"SoundDuration":867580,"Delta":42580658},{"NoteNumber":75,"Velocity":51,"Duration":867580,"SoundDuration":867580,"Delta":42580658},{"NoteNumber":71,"Velocity":41,"Duration":867580,"SoundDuration":867580,"Delta":42580658},{"NoteNumber":63,"Velocity":35,"Duration":867580,"SoundDuration":867580,"Delta":42580658},{"NoteNumber":59,"Velocity":35,"Duration":867580,"SoundDuration":867580,"Delta":42580658},{"NoteNumber":76,"Velocity":66,"Duration":815068,"SoundDuration":815068,"Delta":43413991},{"NoteNumber":81,"Velocity":66,"Duration":815068,"SoundDuration":815068,"Delta":43413991},{"NoteNumber":69,"Velocity":56,"Duration":815068,"SoundDuration":815068,"Delta":43413991},{"NoteNumber":73,"Velocity":56,"Duration":815068,"SoundDuration":815068,"Delta":43413991},{"NoteNumber":64,"Velocity":56,"Duration":815068,"SoundDuration":815068,"Delta":43413991},{"NoteNumber":61,"Velocity":47,"Duration":815068,"SoundDuration":815068,"Delta":43413991},{"NoteNumber":78,"Velocity":60,"Duration":854812,"SoundDuration":854812,"Delta":44235909},{"NoteNumber":66,"Velocity":51,"Duration":854812,"SoundDuration":854812,"Delta":44235909},{"NoteNumber":73,"Velocity":51,"Duration":854812,"SoundDuration":854812,"Delta":44235909},{"NoteNumber":69,"Velocity":52,"Duration":854812,"SoundDuration":854812,"Delta":44235909},{"NoteNumber":61,"Velocity":44,"Duration":854812,"SoundDuration":854812,"Delta":44235909},{"NoteNumber":57,"Velocity":44,"Duration":854812,"SoundDuration":854812,"Delta":44235909},{"NoteNumber":80,"Velocity":65,"Duration":782894,"SoundDuration":782894,"Delta":45057827},{"NoteNumber":68,"Velocity":55,"Duration":782894,"SoundDuration":782894,"Delta":45057827},{"NoteNumber":75,"Velocity":55,"Duration":782894,"SoundDuration":782894,"Delta":45057827},{"NoteNumber":71,"Velocity":54,"Duration":782894,"SoundDuration":782894,"Delta":45057827},{"NoteNumber":63,"Velocity":45,"Duration":782894,"SoundDuration":782894,"Delta":45057827},{"NoteNumber":59,"Velocity":45,"Duration":782894,"SoundDuration":782894,"Delta":45057827},{"NoteNumber":64,"Velocity":51,"Duration":854812,"SoundDuration":854812,"Delta":45847301},{"NoteNumber":71,"Velocity":51,"Duration":854812,"SoundDuration":854812,"Delta":45847301},{"NoteNumber":76,"Velocity":60,"Duration":854812,"SoundDuration":854812,"Delta":45847301},{"NoteNumber":68,"Velocity":52,"Duration":854812,"SoundDuration":854812,"Delta":45847301},{"NoteNumber":59,"Velocity":44,"Duration":854812,"SoundDuration":854812,"Delta":45847301},{"NoteNumber":56,"Velocity":44,"Duration":854812,"SoundDuration":854812,"Delta":45847301},{"NoteNumber":66,"Velocity":55,"Duration":782894,"SoundDuration":782894,"Delta":46669219},{"NoteNumber":78,"Velocity":65,"Duration":782894,"SoundDuration":782894,"Delta":46669219},{"NoteNumber":73,"Velocity":55,"Duration":782894,"SoundDuration":782894,"Delta":46669219},{"NoteNumber":69,"Velocity":54,"Duration":782894,"SoundDuration":782894,"Delta":46669219},{"NoteNumber":61,"Velocity":45,"Duration":782894,"SoundDuration":782894,"Delta":46669219},{"NoteNumber":57,"Velocity":45,"Duration":782894,"SoundDuration":782894,"Delta":46669219},{"NoteNumber":69,"Velocity":51,"Duration":822368,"SoundDuration":822368,"Delta":47458692},{"NoteNumber":75,"Velocity":51,"Duration":822368,"SoundDuration":822368,"Delta":47458692},{"NoteNumber":63,"Velocity":51,"Duration":822368,"SoundDuration":822368,"Delta":47458692},{"NoteNumber":66,"Velocity":52,"Duration":822368,"SoundDuration":822368,"Delta":47458692},{"NoteNumber":57,"Velocity":44,"Duration":822368,"SoundDuration":822368,"Delta":47458692},{"NoteNumber":54,"Velocity":44,"Duration":822368,"SoundDuration":822368,"Delta":47458692},{"NoteNumber":76,"Velocity":65,"Duration":749999,"SoundDuration":749999,"Delta":48248166},{"NoteNumber":64,"Velocity":55,"Duration":749999,"SoundDuration":749999,"Delta":48248166},{"NoteNumber":71,"Velocity":55,"Duration":749999,"SoundDuration":749999,"Delta":48248166},{"NoteNumber":68,"Velocity":55,"Duration":749999,"SoundDuration":749999,"Delta":48248166},{"NoteNumber":59,"Velocity":46,"Duration":749999,"SoundDuration":749999,"Delta":48248166},{"NoteNumber":56,"Velocity":46,"Duration":749999,"SoundDuration":749999,"Delta":48248166},{"NoteNumber":76,"Velocity":60,"Duration":822368,"SoundDuration":822368,"Delta":49037639},{"NoteNumber":64,"Velocity":51,"Duration":822368,"SoundDuration":822368,"Delta":49037639},{"NoteNumber":71,"Velocity":51,"Duration":822368,"SoundDuration":822368,"Delta":49037639},{"NoteNumber":68,"Velocity":52,"Duration":822368,"SoundDuration":822368,"Delta":49037639},{"NoteNumber":59,"Velocity":44,"Duration":822368,"SoundDuration":822368,"Delta":49037639},{"NoteNumber":56,"Velocity":44,"Duration":822368,"SoundDuration":822368,"Delta":49037639},{"NoteNumber":66,"Velocity":56,"Duration":788070,"SoundDuration":788070,"Delta":49827113},{"NoteNumber":73,"Velocity":56,"Duration":788070,"SoundDuration":788070,"Delta":49827113},{"NoteNumber":78,"Velocity":67,"Duration":788070,"SoundDuration":788070,"Delta":49827113},{"NoteNumber":69,"Velocity":55,"Duration":788070,"SoundDuration":788070,"Delta":49827113},{"NoteNumber":61,"Velocity":46,"Duration":788070,"SoundDuration":788070,"Delta":49827113},{"NoteNumber":57,"Velocity":46,"Duration":788070,"SoundDuration":788070,"Delta":49827113},{"NoteNumber":63,"Velocity":51,"Duration":851086,"SoundDuration":851086,"Delta":50621850},{"NoteNumber":75,"Velocity":60,"Duration":851086,"SoundDuration":851086,"Delta":50621850},{"NoteNumber":69,"Velocity":51,"Duration":851086,"SoundDuration":851086,"Delta":50621850},{"NoteNumber":66,"Velocity":52,"Duration":851086,"SoundDuration":851086,"Delta":50621850},{"NoteNumber":57,"Velocity":44,"Duration":851086,"SoundDuration":851086,"Delta":50621850},{"NoteNumber":54,"Velocity":44,"Duration":851086,"SoundDuration":851086,"Delta":50621850},{"NoteNumber":71,"Velocity":56,"Duration":820681,"SoundDuration":820681,"Delta":51438214},{"NoteNumber":76,"Velocity":66,"Duration":820681,"SoundDuration":820681,"Delta":51438214},{"NoteNumber":64,"Velocity":56,"Duration":820681,"SoundDuration":820681,"Delta":51438214},{"NoteNumber":68,"Velocity":56,"Duration":820681,"SoundDuration":820681,"Delta":51438214},{"NoteNumber":59,"Velocity":47,"Duration":820681,"SoundDuration":820681,"Delta":51438214},{"NoteNumber":56,"Velocity":47,"Duration":820681,"SoundDuration":820681,"Delta":51438214},{"NoteNumber":73,"Velocity":52,"Duration":882852,"SoundDuration":882852,"Delta":52265840},{"NoteNumber":61,"Velocity":44,"Duration":882852,"SoundDuration":882852,"Delta":52265840},{"NoteNumber":68,"Velocity":44,"Duration":882852,"SoundDuration":882852,"Delta":52265840},{"NoteNumber":64,"Velocity":45,"Duration":882852,"SoundDuration":882852,"Delta":52265840},{"NoteNumber":56,"Velocity":38,"Duration":882852,"SoundDuration":882852,"Delta":52265840},{"NoteNumber":52,"Velocity":38,"Duration":882852,"SoundDuration":882852,"Delta":52265840},{"NoteNumber":75,"Velocity":44,"Duration":864404,"SoundDuration":864404,"Delta":53112978},{"NoteNumber":63,"Velocity":36,"Duration":864404,"SoundDuration":864404,"Delta":53112978},{"NoteNumber":69,"Velocity":36,"Duration":864404,"SoundDuration":864404,"Delta":53112978},{"NoteNumber":66,"Velocity":40,"Duration":864404,"SoundDuration":864404,"Delta":53112978},{"NoteNumber":57,"Velocity":34,"Duration":864404,"SoundDuration":864404,"Delta":53112978},{"NoteNumber":54,"Velocity":34,"Duration":864404,"SoundDuration":864404,"Delta":53112978},{"NoteNumber":60,"Velocity":29,"Duration":936311,"SoundDuration":936311,"Delta":53984736},{"NoteNumber":66,"Velocity":29,"Duration":936311,"SoundDuration":936311,"Delta":53984736},{"NoteNumber":72,"Velocity":35,"Duration":936311,"SoundDuration":936311,"Delta":53984736},{"NoteNumber":63,"Velocity":30,"Duration":936311,"SoundDuration":936311,"Delta":53984736},{"NoteNumber":54,"Velocity":25,"Duration":936311,"SoundDuration":936311,"Delta":53984736},{"NoteNumber":51,"Velocity":25,"Duration":936311,"SoundDuration":936311,"Delta":53984736},{"NoteNumber":61,"Velocity":25,"Duration":876923,"SoundDuration":876923,"Delta":54882586},{"NoteNumber":73,"Velocity":29,"Duration":876923,"SoundDuration":876923,"Delta":54882586},{"NoteNumber":68,"Velocity":25,"Duration":876923,"SoundDuration":876923,"Delta":54882586},{"NoteNumber":52,"Velocity":22,"Duration":876923,"SoundDuration":876923,"Delta":54882586},{"NoteNumber":56,"Velocity":22,"Duration":876923,"SoundDuration":876923,"Delta":54882586},{"NoteNumber":64,"Velocity":27,"Duration":876923,"SoundDuration":876923,"Delta":54882586},{"NoteNumber":73,"Velocity":26,"Duration":962139,"SoundDuration":962139,"Delta":55805663},{"NoteNumber":68,"Velocity":21,"Duration":915384,"SoundDuration":915384,"Delta":55805663},{"NoteNumber":61,"Velocity":21,"Duration":962139,"SoundDuration":962139,"Delta":55805663},{"NoteNumber":64,"Velocity":23,"Duration":915384,"SoundDuration":915384,"Delta":55805663},{"NoteNumber":56,"Velocity":19,"Duration":923076,"SoundDuration":923076,"Delta":55805663},{"NoteNumber":52,"Velocity":19,"Duration":962139,"SoundDuration":962139,"Delta":55805663},{"NoteNumber":64,"Velocity":21,"Duration":976562,"SoundDuration":976562,"Delta":56728740},{"NoteNumber":71,"Velocity":21,"Duration":976562,"SoundDuration":976562,"Delta":56728740},{"NoteNumber":76,"Velocity":26,"Duration":976562,"SoundDuration":976562,"Delta":56728740},{"NoteNumber":68,"Velocity":23,"Duration":976562,"SoundDuration":976562,"Delta":56728740},{"NoteNumber":59,"Velocity":19,"Duration":976562,"SoundDuration":976562,"Delta":56728740},{"NoteNumber":56,"Velocity":19,"Duration":976562,"SoundDuration":976562,"Delta":56728740},{"NoteNumber":63,"Velocity":21,"Duration":978483,"SoundDuration":978483,"Delta":57666240},{"NoteNumber":75,"Velocity":26,"Duration":978483,"SoundDuration":978483,"Delta":57666240},{"NoteNumber":70,"Velocity":21,"Duration":978483,"SoundDuration":978483,"Delta":57666240},{"NoteNumber":67,"Velocity":23,"Duration":978483,"SoundDuration":978483,"Delta":57666240},{"NoteNumber":58,"Velocity":19,"Duration":978483,"SoundDuration":978483,"Delta":57666240},{"NoteNumber":55,"Velocity":19,"Duration":978483,"SoundDuration":978483,"Delta":57666240},{"NoteNumber":57,"Velocity":50,"Duration":1967213,"SoundDuration":1967213,"Delta":58603740},{"NoteNumber":33,"Velocity":36,"Duration":1967213,"SoundDuration":1967213,"Delta":58603740},{"NoteNumber":45,"Velocity":43,"Duration":1967213,"SoundDuration":1967213,"Delta":58603740},{"NoteNumber":62,"Velocity":22,"Duration":983606,"SoundDuration":983606,"Delta":59587347},{"NoteNumber":69,"Velocity":22,"Duration":983606,"SoundDuration":983606,"Delta":59587347},{"NoteNumber":74,"Velocity":27,"Duration":983606,"SoundDuration":983606,"Delta":59587347},{"NoteNumber":66,"Velocity":25,"Duration":983606,"SoundDuration":983606,"Delta":59587347},{"NoteNumber":60,"Velocity":21,"Duration":983606,"SoundDuration":983606,"Delta":59587347},{"NoteNumber":54,"Velocity":21,"Duration":983606,"SoundDuration":983606,"Delta":59587347},{"NoteNumber":56,"Velocity":55,"Duration":1967213,"SoundDuration":1967213,"Delta":60570953},{"NoteNumber":32,"Velocity":37,"Duration":1967213,"SoundDuration":1967213,"Delta":60570953},{"NoteNumber":44,"Velocity":46,"Duration":1967213,"SoundDuration":1967213,"Delta":60570953},{"NoteNumber":72,"Velocity":27,"Duration":983606,"SoundDuration":983606,"Delta":61554560},{"NoteNumber":66,"Velocity":22,"Duration":983606,"SoundDuration":983606,"Delta":61554560},{"NoteNumber":60,"Velocity":22,"Duration":983606,"SoundDuration":983606,"Delta":61554560},{"NoteNumber":63,"Velocity":27,"Duration":983606,"SoundDuration":983606,"Delta":61554560},{"NoteNumber":54,"Velocity":22,"Duration":983606,"SoundDuration":983606,"Delta":61554560},{"NoteNumber":51,"Velocity":22,"Duration":983606,"SoundDuration":983606,"Delta":61554560},{"NoteNumber":49,"Velocity":54,"Duration":4000000,"SoundDuration":4000000,"Delta":62538166},{"NoteNumber":25,"Velocity":37,"Duration":4000000,"SoundDuration":4000000,"Delta":62538166},{"NoteNumber":37,"Velocity":44,"Duration":4000000,"SoundDuration":4000000,"Delta":62538166},{"NoteNumber":61,"Velocity":28,"Duration":991666,"SoundDuration":991666,"Delta":63538166},{"NoteNumber":68,"Velocity":28,"Duration":1000000,"SoundDuration":1000000,"Delta":63538166},{"NoteNumber":73,"Velocity":37,"Duration":1000000,"SoundDuration":1000000,"Delta":63538166},{"NoteNumber":64,"Velocity":31,"Duration":1041666,"SoundDuration":1041666,"Delta":63538166},{"NoteNumber":56,"Velocity":27,"Duration":1041666,"SoundDuration":1041666,"Delta":63538166},{"NoteNumber":52,"Velocity":27,"Duration":1041666,"SoundDuration":1041666,"Delta":63538166},{"NoteNumber":68,"Velocity":32,"Duration":1041666,"SoundDuration":1041666,"Delta":64538166},{"NoteNumber":80,"Velocity":41,"Duration":1041666,"SoundDuration":1041666,"Delta":64538166},{"NoteNumber":73,"Velocity":32,"Duration":1000000,"SoundDuration":1000000,"Delta":64538166},{"NoteNumber":71,"Velocity":35,"Duration":1041666,"SoundDuration":1041666,"Delta":64538166},{"NoteNumber":61,"Velocity":30,"Duration":1000000,"SoundDuration":1000000,"Delta":64538166},{"NoteNumber":59,"Velocity":30,"Duration":1041666,"SoundDuration":1041666,"Delta":64538166},{"NoteNumber":73,"Velocity":32,"Duration":1000000,"SoundDuration":1000000,"Delta":65538166},{"NoteNumber":66,"Velocity":32,"Duration":1000000,"SoundDuration":1000000,"Delta":65538166},{"NoteNumber":78,"Velocity":41,"Duration":1000000,"SoundDuration":1000000,"Delta":65538166},{"NoteNumber":69,"Velocity":35,"Duration":1000000,"SoundDuration":1000000,"Delta":65538166},{"NoteNumber":61,"Velocity":30,"Duration":1000000,"SoundDuration":1000000,"Delta":65538166},{"NoteNumber":57,"Velocity":30,"Duration":991666,"SoundDuration":991666,"Delta":65538166},{"NoteNumber":57,"Velocity":62,"Duration":1969329,"SoundDuration":1969329,"Delta":66538166},{"NoteNumber":33,"Velocity":44,"Duration":1969329,"SoundDuration":1969329,"Delta":66538166},{"NoteNumber":45,"Velocity":55,"Duration":1969329,"SoundDuration":1969329,"Delta":66538166},{"NoteNumber":76,"Velocity":36,"Duration":1016948,"SoundDuration":1016948,"Delta":67490547},{"NoteNumber":69,"Velocity":29,"Duration":1016948,"SoundDuration":1016948,"Delta":67490547},{"NoteNumber":64,"Velocity":29,"Duration":1016948,"SoundDuration":1016948,"Delta":67490547},{"NoteNumber":66,"Velocity":32,"Duration":1016948,"SoundDuration":1016948,"Delta":67490547},{"NoteNumber":60,"Velocity":27,"Duration":1016948,"SoundDuration":1016948,"Delta":67490547},{"NoteNumber":54,"Velocity":27,"Duration":1016948,"SoundDuration":1016948,"Delta":67490547},{"NoteNumber":56,"Velocity":60,"Duration":1952381,"SoundDuration":1952381,"Delta":68507496},{"NoteNumber":32,"Velocity":40,"Duration":1952381,"SoundDuration":1952381,"Delta":68507496},{"NoteNumber":44,"Velocity":48,"Duration":1952381,"SoundDuration":1952381,"Delta":68507496},{"NoteNumber":66,"Velocity":27,"Duration":1000000,"SoundDuration":1000000,"Delta":69459877},{"NoteNumber":60,"Velocity":27,"Duration":1000000,"SoundDuration":1000000,"Delta":69459877},{"NoteNumber":72,"Velocity":33,"Duration":1000000,"SoundDuration":1000000,"Delta":69459877},{"NoteNumber":63,"Velocity":36,"Duration":1000000,"SoundDuration":1000000,"Delta":69459877},{"NoteNumber":54,"Velocity":29,"Duration":1000000,"SoundDuration":1000000,"Delta":69459877},{"NoteNumber":51,"Velocity":29,"Duration":1000000,"SoundDuration":1000000,"Delta":69459877},{"NoteNumber":49,"Velocity":57,"Duration":7721758,"SoundDuration":7721758,"Delta":70459877},{"NoteNumber":25,"Velocity":44,"Duration":7721758,"SoundDuration":7721758,"Delta":70459877},{"NoteNumber":37,"Velocity":44,"Duration":7721758,"SoundDuration":7721758,"Delta":70459877},{"NoteNumber":61,"Velocity":30,"Duration":856164,"SoundDuration":856164,"Delta":71412258},{"NoteNumber":73,"Velocity":36,"Duration":856164,"SoundDuration":856164,"Delta":71412258},{"NoteNumber":68,"Velocity":30,"Duration":856164,"SoundDuration":856164,"Delta":71412258},{"NoteNumber":64,"Velocity":30,"Duration":856164,"SoundDuration":856164,"Delta":71412258},{"NoteNumber":56,"Velocity":26,"Duration":856164,"SoundDuration":856164,"Delta":71412258},{"NoteNumber":52,"Velocity":26,"Duration":856164,"SoundDuration":856164,"Delta":71412258},{"NoteNumber":69,"Velocity":39,"Duration":815068,"SoundDuration":815068,"Delta":72234176},{"NoteNumber":62,"Velocity":33,"Duration":815068,"SoundDuration":815068,"Delta":72234176},{"NoteNumber":74,"Velocity":39,"Duration":815068,"SoundDuration":815068,"Delta":72234176},{"NoteNumber":66,"Velocity":33,"Duration":815068,"SoundDuration":815068,"Delta":72234176},{"NoteNumber":57,"Velocity":33,"Duration":815068,"SoundDuration":815068,"Delta":72234176},{"NoteNumber":54,"Velocity":27,"Duration":815068,"SoundDuration":815068,"Delta":72234176},{"NoteNumber":66,"Velocity":30,"Duration":856164,"SoundDuration":856164,"Delta":73056094},{"NoteNumber":59,"Velocity":30,"Duration":856164,"SoundDuration":856164,"Delta":73056094},{"NoteNumber":71,"Velocity":36,"Duration":856164,"SoundDuration":856164,"Delta":73056094},{"NoteNumber":62,"Velocity":30,"Duration":856164,"SoundDuration":856164,"Delta":73056094},{"NoteNumber":54,"Velocity":26,"Duration":856164,"SoundDuration":856164,"Delta":73056094},{"NoteNumber":50,"Velocity":26,"Duration":856164,"SoundDuration":856164,"Delta":73056094},{"NoteNumber":73,"Velocity":39,"Duration":815068,"SoundDuration":815068,"Delta":73878012},{"NoteNumber":68,"Velocity":33,"Duration":815068,"SoundDuration":815068,"Delta":73878012},{"NoteNumber":61,"Velocity":33,"Duration":815068,"SoundDuration":815068,"Delta":73878012},{"NoteNumber":64,"Velocity":32,"Duration":815068,"SoundDuration":815068,"Delta":73878012},{"NoteNumber":56,"Velocity":27,"Duration":815068,"SoundDuration":815068,"Delta":73878012},{"NoteNumber":52,"Velocity":27,"Duration":815068,"SoundDuration":815068,"Delta":73878012},{"NoteNumber":57,"Velocity":27,"Duration":852989,"SoundDuration":852989,"Delta":74699930},{"NoteNumber":64,"Velocity":27,"Duration":852989,"SoundDuration":852989,"Delta":74699930},{"NoteNumber":69,"Velocity":32,"Duration":852989,"SoundDuration":852989,"Delta":74699930},{"NoteNumber":61,"Velocity":27,"Duration":852989,"SoundDuration":852989,"Delta":74699930},{"NoteNumber":52,"Velocity":23,"Duration":852989,"SoundDuration":852989,"Delta":74699930},{"NoteNumber":49,"Velocity":23,"Duration":852989,"SoundDuration":852989,"Delta":74699930},{"NoteNumber":59,"Velocity":30,"Duration":843974,"SoundDuration":843974,"Delta":75518197},{"NoteNumber":71,"Velocity":35,"Duration":843974,"SoundDuration":843974,"Delta":75518197},{"NoteNumber":66,"Velocity":30,"Duration":843974,"SoundDuration":843974,"Delta":75518197},{"NoteNumber":62,"Velocity":29,"Duration":843974,"SoundDuration":843974,"Delta":75518197},{"NoteNumber":54,"Velocity":24,"Duration":843974,"SoundDuration":843974,"Delta":75518197},{"NoteNumber":50,"Velocity":24,"Duration":843974,"SoundDuration":843974,"Delta":75518197},{"NoteNumber":62,"Velocity":28,"Duration":926946,"SoundDuration":926946,"Delta":76369418},{"NoteNumber":56,"Velocity":28,"Duration":926946,"SoundDuration":926946,"Delta":76369418},{"NoteNumber":68,"Velocity":28,"Duration":926946,"SoundDuration":926946,"Delta":76369418},{"NoteNumber":59,"Velocity":29,"Duration":926946,"SoundDuration":926946,"Delta":76369418},{"NoteNumber":54,"Velocity":24,"Duration":926946,"SoundDuration":926946,"Delta":76369418},{"NoteNumber":47,"Velocity":24,"Duration":926946,"SoundDuration":926946,"Delta":76369418},{"NoteNumber":66,"Velocity":25,"Duration":876995,"SoundDuration":876995,"Delta":77258486},{"NoteNumber":57,"Velocity":25,"Duration":876995,"SoundDuration":876995,"Delta":77258486},{"NoteNumber":69,"Velocity":30,"Duration":876995,"SoundDuration":876995,"Delta":77258486},{"NoteNumber":49,"Velocity":23,"Duration":876995,"SoundDuration":876995,"Delta":77258486},{"NoteNumber":54,"Velocity":23,"Duration":876995,"SoundDuration":876995,"Delta":77258486},{"NoteNumber":61,"Velocity":28,"Duration":876995,"SoundDuration":876995,"Delta":77258486},{"NoteNumber":69,"Velocity":26,"Duration":946969,"SoundDuration":946969,"Delta":78181636},{"NoteNumber":57,"Velocity":21,"Duration":946969,"SoundDuration":946969,"Delta":78181636},{"NoteNumber":66,"Velocity":21,"Duration":909091,"SoundDuration":909091,"Delta":78181636},{"NoteNumber":61,"Velocity":23,"Duration":901515,"SoundDuration":901515,"Delta":78181636},{"NoteNumber":54,"Velocity":19,"Duration":909091,"SoundDuration":909091,"Delta":78181636},{"NoteNumber":49,"Velocity":19,"Duration":946969,"SoundDuration":946969,"Delta":78181636},{"NoteNumber":66,"Velocity":21,"Duration":909090,"SoundDuration":909090,"Delta":79090727},{"NoteNumber":61,"Velocity":21,"Duration":909090,"SoundDuration":909090,"Delta":79090727},{"NoteNumber":73,"Velocity":26,"Duration":946969,"SoundDuration":946969,"Delta":79090727},{"NoteNumber":64,"Velocity":23,"Duration":946969,"SoundDuration":946969,"Delta":79090727},{"NoteNumber":54,"Velocity":19,"Duration":909090,"SoundDuration":909090,"Delta":79090727},{"NoteNumber":52,"Velocity":19,"Duration":946969,"SoundDuration":946969,"Delta":79090727},{"NoteNumber":66,"Velocity":21,"Duration":909091,"SoundDuration":909091,"Delta":79999818},{"NoteNumber":59,"Velocity":21,"Duration":909091,"SoundDuration":909091,"Delta":79999818},{"NoteNumber":71,"Velocity":26,"Duration":909091,"SoundDuration":909091,"Delta":79999818},{"NoteNumber":62,"Velocity":23,"Duration":909091,"SoundDuration":909091,"Delta":79999818},{"NoteNumber":54,"Velocity":19,"Duration":909091,"SoundDuration":909091,"Delta":79999818},{"NoteNumber":50,"Velocity":19,"Duration":909091,"SoundDuration":909091,"Delta":79999818},{"NoteNumber":55,"Velocity":51,"Duration":1904762,"SoundDuration":1904762,"Delta":80908909},{"NoteNumber":31,"Velocity":34,"Duration":1904762,"SoundDuration":1904762,"Delta":80908909},{"NoteNumber":43,"Velocity":41,"Duration":1904762,"SoundDuration":1904762,"Delta":80908909},{"NoteNumber":64,"Velocity":22,"Duration":952381,"SoundDuration":952381,"Delta":81861290},{"NoteNumber":57,"Velocity":22,"Duration":952381,"SoundDuration":952381,"Delta":81861290},{"NoteNumber":69,"Velocity":27,"Duration":952381,"SoundDuration":952381,"Delta":81861290},{"NoteNumber":61,"Velocity":25,"Duration":952381,"SoundDuration":952381,"Delta":81861290},{"NoteNumber":52,"Velocity":21,"Duration":952381,"SoundDuration":952381,"Delta":81861290},{"NoteNumber":56,"Velocity":48,"Duration":1904761,"SoundDuration":1904761,"Delta":82813671},{"NoteNumber":32,"Velocity":34,"Duration":1904761,"SoundDuration":1904761,"Delta":82813671},{"NoteNumber":44,"Velocity":41,"Duration":1904761,"SoundDuration":1904761,"Delta":82813671},{"NoteNumber":56,"Velocity":22,"Duration":952381,"SoundDuration":952381,"Delta":83766052},{"NoteNumber":68,"Velocity":27,"Duration":952381,"SoundDuration":952381,"Delta":83766052},{"NoteNumber":63,"Velocity":22,"Duration":952381,"SoundDuration":952381,"Delta":83766052},{"NoteNumber":60,"Velocity":27,"Duration":952381,"SoundDuration":952381,"Delta":83766052},{"NoteNumber":54,"Velocity":22,"Duration":952381,"SoundDuration":952381,"Delta":83766052},{"NoteNumber":51,"Velocity":22,"Duration":952381,"SoundDuration":952381,"Delta":83766052},{"NoteNumber":49,"Velocity":47,"Duration":3809524,"SoundDuration":3809524,"Delta":84718433},{"NoteNumber":25,"Velocity":39,"Duration":3809524,"SoundDuration":3809524,"Delta":84718433},{"NoteNumber":37,"Velocity":39,"Duration":3809524,"SoundDuration":3809524,"Delta":84718433},{"NoteNumber":61,"Velocity":25,"Duration":992063,"SoundDuration":992063,"Delta":85670814},{"NoteNumber":52,"Velocity":25,"Duration":992063,"SoundDuration":992063,"Delta":85670814},{"NoteNumber":44,"Velocity":25,"Duration":992063,"SoundDuration":992063,"Delta":85670814},{"NoteNumber":56,"Velocity":25,"Duration":992063,"SoundDuration":992063,"Delta":86623195},{"NoteNumber":64,"Velocity":25,"Duration":992063,"SoundDuration":992063,"Delta":86623195},{"NoteNumber":47,"Velocity":25,"Duration":992063,"SoundDuration":992063,"Delta":86623195},{"NoteNumber":55,"Velocity":25,"Duration":952381,"SoundDuration":952381,"Delta":87575576},{"NoteNumber":63,"Velocity":25,"Duration":952381,"SoundDuration":952381,"Delta":87575576},{"NoteNumber":46,"Velocity":25,"Duration":952381,"SoundDuration":952381,"Delta":87575576},{"NoteNumber":57,"Velocity":37,"Duration":1904761,"SoundDuration":1904761,"Delta":88527957},{"NoteNumber":33,"Velocity":35,"Duration":1904761,"SoundDuration":1904761,"Delta":88527957},{"NoteNumber":45,"Velocity":35,"Duration":1904761,"SoundDuration":1904761,"Delta":88527957},{"NoteNumber":60,"Velocity":23,"Duration":952381,"SoundDuration":952381,"Delta":89480338},{"NoteNumber":54,"Velocity":23,"Duration":952381,"SoundDuration":952381,"Delta":89480338},{"NoteNumber":62,"Velocity":23,"Duration":952381,"SoundDuration":952381,"Delta":89480338},{"NoteNumber":56,"Velocity":34,"Duration":1904762,"SoundDuration":1904762,"Delta":90432719},{"NoteNumber":32,"Velocity":35,"Duration":1904762,"SoundDuration":1904762,"Delta":90432719},{"NoteNumber":44,"Velocity":35,"Duration":1904762,"SoundDuration":1904762,"Delta":90432719},{"NoteNumber":51,"Velocity":23,"Duration":952381,"SoundDuration":952381,"Delta":91385100},{"NoteNumber":60,"Velocity":23,"Duration":952381,"SoundDuration":952381,"Delta":91385100},{"NoteNumber":54,"Velocity":23,"Duration":952381,"SoundDuration":952381,"Delta":91385100},{"NoteNumber":49,"Velocity":43,"Duration":3840749,"SoundDuration":3840749,"Delta":92337481},{"NoteNumber":25,"Velocity":36,"Duration":3840749,"SoundDuration":3840749,"Delta":92337481},{"NoteNumber":37,"Velocity":36,"Duration":3840749,"SoundDuration":3840749,"Delta":92337481},{"NoteNumber":61,"Velocity":25,"Duration":1023289,"SoundDuration":1023289,"Delta":93289862},{"NoteNumber":52,"Velocity":25,"Duration":1023289,"SoundDuration":1023289,"Delta":93289862},{"NoteNumber":44,"Velocity":25,"Duration":1023289,"SoundDuration":1023289,"Delta":93289862},{"NoteNumber":56,"Velocity":25,"Duration":992063,"SoundDuration":992063,"Delta":94273468},{"NoteNumber":64,"Velocity":25,"Duration":992063,"SoundDuration":992063,"Delta":94273468},{"NoteNumber":47,"Velocity":25,"Duration":992063,"SoundDuration":992063,"Delta":94273468},{"NoteNumber":55,"Velocity":25,"Duration":952381,"SoundDuration":952381,"Delta":95225849},{"NoteNumber":63,"Velocity":25,"Duration":952381,"SoundDuration":952381,"Delta":95225849},{"NoteNumber":46,"Velocity":25,"Duration":952381,"SoundDuration":952381,"Delta":95225849},{"NoteNumber":57,"Velocity":37,"Duration":2000000,"SoundDuration":2000000,"Delta":96178230},{"NoteNumber":33,"Velocity":35,"Duration":2000000,"SoundDuration":2000000,"Delta":96178230},{"NoteNumber":45,"Velocity":35,"Duration":2000000,"SoundDuration":2000000,"Delta":96178230},{"NoteNumber":60,"Velocity":23,"Duration":1000000,"SoundDuration":1000000,"Delta":97178230},{"NoteNumber":54,"Velocity":23,"Duration":1000000,"SoundDuration":1000000,"Delta":97178230},{"NoteNumber":62,"Velocity":23,"Duration":1000000,"SoundDuration":1000000,"Delta":97178230},{"NoteNumber":56,"Velocity":34,"Duration":2111110,"SoundDuration":2111110,"Delta":98178230},{"NoteNumber":32,"Velocity":35,"Duration":2111110,"SoundDuration":2111110,"Delta":98178230},{"NoteNumber":44,"Velocity":35,"Duration":2111110,"SoundDuration":2111110,"Delta":98178230},{"NoteNumber":51,"Velocity":23,"Duration":1111110,"SoundDuration":1111110,"Delta":99178230},{"NoteNumber":60,"Velocity":23,"Duration":1111110,"SoundDuration":1111110,"Delta":99178230},{"NoteNumber":54,"Velocity":23,"Duration":1111110,"SoundDuration":1111110,"Delta":99178230},{"NoteNumber":64,"Velocity":42,"Duration":354380,"SoundDuration":354380,"Delta":100289341},{"NoteNumber":25,"Velocity":38,"Duration":1327259,"SoundDuration":1327259,"Delta":100289341},{"NoteNumber":37,"Velocity":38,"Duration":1327259,"SoundDuration":1327259,"Delta":100289341},{"NoteNumber":56,"Velocity":36,"Duration":118126,"SoundDuration":118126,"Delta":100407468},{"NoteNumber":61,"Velocity":36,"Duration":118126,"SoundDuration":118126,"Delta":100525595},{"NoteNumber":63,"Velocity":41,"Duration":321638,"SoundDuration":321638,"Delta":100643721},{"NoteNumber":46,"Velocity":35,"Duration":321638,"SoundDuration":321638,"Delta":100643721},{"NoteNumber":55,"Velocity":34,"Duration":107185,"SoundDuration":107185,"Delta":100750679},{"NoteNumber":61,"Velocity":34,"Duration":107495,"SoundDuration":107495,"Delta":100857865},{"NoteNumber":62,"Velocity":39,"Duration":324275,"SoundDuration":324275,"Delta":100965360},{"NoteNumber":45,"Velocity":34,"Duration":324275,"SoundDuration":324275,"Delta":100965360},{"NoteNumber":54,"Velocity":34,"Duration":108117,"SoundDuration":108117,"Delta":101073164},{"NoteNumber":60,"Velocity":34,"Duration":108354,"SoundDuration":108354,"Delta":101181281},{"NoteNumber":61,"Velocity":39,"Duration":326965,"SoundDuration":326965,"Delta":101289635},{"NoteNumber":44,"Velocity":32,"Duration":326965,"SoundDuration":326965,"Delta":101289635},{"NoteNumber":52,"Velocity":34,"Duration":108989,"SoundDuration":108989,"Delta":101398307},{"NoteNumber":56,"Velocity":34,"Duration":109304,"SoundDuration":109304,"Delta":101507296},{"NoteNumber":64,"Velocity":45,"Duration":328389,"SoundDuration":328389,"Delta":101616601},{"NoteNumber":47,"Velocity":37,"Duration":328389,"SoundDuration":328389,"Delta":101616601},{"NoteNumber":37,"Velocity":40,"Duration":1302690,"SoundDuration":1302690,"Delta":101616601},{"NoteNumber":56,"Velocity":38,"Duration":109462,"SoundDuration":109462,"Delta":101726064},{"NoteNumber":61,"Velocity":38,"Duration":109463,"SoundDuration":109463,"Delta":101835527},{"NoteNumber":63,"Velocity":44,"Duration":321792,"SoundDuration":321792,"Delta":101944990},{"NoteNumber":46,"Velocity":38,"Duration":321792,"SoundDuration":321792,"Delta":101944990},{"NoteNumber":55,"Velocity":37,"Duration":107261,"SoundDuration":107261,"Delta":102051948},{"NoteNumber":61,"Velocity":37,"Duration":107573,"SoundDuration":107573,"Delta":102159209},{"NoteNumber":62,"Velocity":43,"Duration":324748,"SoundDuration":324748,"Delta":102266782},{"NoteNumber":45,"Velocity":35,"Duration":324748,"SoundDuration":324748,"Delta":102266782},{"NoteNumber":54,"Velocity":36,"Duration":108275,"SoundDuration":108275,"Delta":102374663},{"NoteNumber":60,"Velocity":37,"Duration":108592,"SoundDuration":108592,"Delta":102482938},{"NoteNumber":61,"Velocity":41,"Duration":327761,"SoundDuration":327761,"Delta":102591531},{"NoteNumber":44,"Velocity":34,"Duration":327761,"SoundDuration":327761,"Delta":102591531},{"NoteNumber":52,"Velocity":36,"Duration":109225,"SoundDuration":109225,"Delta":102700441},{"NoteNumber":56,"Velocity":36,"Duration":109625,"SoundDuration":109625,"Delta":102809666},{"NoteNumber":68,"Velocity":49,"Duration":323642,"SoundDuration":323642,"Delta":102919292},{"NoteNumber":40,"Velocity":41,"Duration":323642,"SoundDuration":323642,"Delta":102919292},{"NoteNumber":56,"Velocity":43,"Duration":107880,"SoundDuration":107880,"Delta":103027172},{"NoteNumber":61,"Velocity":44,"Duration":107880,"SoundDuration":107880,"Delta":103135053},{"NoteNumber":66,"Velocity":50,"Duration":334261,"SoundDuration":334261,"Delta":103242934},{"NoteNumber":39,"Velocity":42,"Duration":334261,"SoundDuration":334261,"Delta":103242934},{"NoteNumber":57,"Velocity":42,"Duration":111420,"SoundDuration":111420,"Delta":103354354},{"NoteNumber":61,"Velocity":45,"Duration":111420,"SoundDuration":111420,"Delta":103465775},{"NoteNumber":69,"Velocity":52,"Duration":324588,"SoundDuration":324588,"Delta":103577196},{"NoteNumber":42,"Velocity":43,"Duration":324588,"SoundDuration":324588,"Delta":103577196},{"NoteNumber":54,"Velocity":45,"Duration":108195,"SoundDuration":108195,"Delta":103685392},{"NoteNumber":61,"Velocity":46,"Duration":108196,"SoundDuration":108196,"Delta":103793588},{"NoteNumber":68,"Velocity":53,"Duration":334261,"SoundDuration":334261,"Delta":103901784},{"NoteNumber":40,"Velocity":42,"Duration":334261,"SoundDuration":334261,"Delta":103901784},{"NoteNumber":56,"Velocity":47,"Duration":111420,"SoundDuration":111420,"Delta":104013204},{"NoteNumber":61,"Velocity":47,"Duration":111420,"SoundDuration":111420,"Delta":104124625},{"NoteNumber":66,"Velocity":63,"Duration":325537,"SoundDuration":325537,"Delta":104236046},{"NoteNumber":45,"Velocity":53,"Duration":325537,"SoundDuration":325537,"Delta":104236046},{"NoteNumber":54,"Velocity":54,"Duration":108512,"SoundDuration":108512,"Delta":104344558},{"NoteNumber":61,"Velocity":42,"Duration":108512,"SoundDuration":108512,"Delta":104453071},{"NoteNumber":64,"Velocity":54,"Duration":108512,"SoundDuration":108512,"Delta":104453071},{"NoteNumber":66,"Velocity":60,"Duration":335269,"SoundDuration":335269,"Delta":104561584},{"NoteNumber":39,"Velocity":51,"Duration":335269,"SoundDuration":335269,"Delta":104561584},{"NoteNumber":54,"Velocity":50,"Duration":111756,"SoundDuration":111756,"Delta":104673340},{"NoteNumber":61,"Velocity":50,"Duration":111756,"SoundDuration":111756,"Delta":104785097},{"NoteNumber":64,"Velocity":57,"Duration":326494,"SoundDuration":326494,"Delta":104896854},{"NoteNumber":44,"Velocity":48,"Duration":326494,"SoundDuration":326494,"Delta":104896854},{"NoteNumber":54,"Velocity":48,"Duration":108831,"SoundDuration":108831,"Delta":105005685},{"NoteNumber":63,"Velocity":48,"Duration":108831,"SoundDuration":108831,"Delta":105114517},{"NoteNumber":60,"Velocity":39,"Duration":108831,"SoundDuration":108831,"Delta":105114517},{"NoteNumber":64,"Velocity":53,"Duration":336285,"SoundDuration":336285,"Delta":105223349},{"NoteNumber":37,"Velocity":44,"Duration":1653004,"SoundDuration":1653004,"Delta":105223349},{"NoteNumber":52,"Velocity":46,"Duration":112094,"SoundDuration":112094,"Delta":105335444},{"NoteNumber":61,"Velocity":46,"Duration":112095,"SoundDuration":112095,"Delta":105447539},{"NoteNumber":64,"Velocity":66,"Duration":343840,"SoundDuration":343840,"Delta":105559634},{"NoteNumber":47,"Velocity":55,"Duration":343840,"SoundDuration":343840,"Delta":105559634},{"NoteNumber":56,"Velocity":57,"Duration":114613,"SoundDuration":114613,"Delta":105674247},{"NoteNumber":61,"Velocity":57,"Duration":114613,"SoundDuration":114613,"Delta":105788860},{"NoteNumber":63,"Velocity":64,"Duration":321638,"SoundDuration":321638,"Delta":105903474},{"NoteNumber":46,"Velocity":55,"Duration":321638,"SoundDuration":321638,"Delta":105903474},{"NoteNumber":55,"Velocity":54,"Duration":107185,"SoundDuration":107185,"Delta":106010431},{"NoteNumber":61,"Velocity":54,"Duration":107495,"SoundDuration":107495,"Delta":106117617},{"NoteNumber":62,"Velocity":62,"Duration":324275,"SoundDuration":324275,"Delta":106225112},{"NoteNumber":45,"Velocity":52,"Duration":324275,"SoundDuration":324275,"Delta":106225112},{"NoteNumber":54,"Velocity":53,"Duration":108117,"SoundDuration":108117,"Delta":106332916},{"NoteNumber":60,"Velocity":53,"Duration":108354,"SoundDuration":108354,"Delta":106441033},{"NoteNumber":61,"Velocity":60,"Duration":326965,"SoundDuration":326965,"Delta":106549387},{"NoteNumber":44,"Velocity":49,"Duration":326965,"SoundDuration":326965,"Delta":106549387},{"NoteNumber":52,"Velocity":52,"Duration":108988,"SoundDuration":108988,"Delta":106658060},{"NoteNumber":56,"Velocity":52,"Duration":109304,"SoundDuration":109304,"Delta":106767049},{"NoteNumber":64,"Velocity":66,"Duration":328389,"SoundDuration":328389,"Delta":106876353},{"NoteNumber":47,"Velocity":55,"Duration":328389,"SoundDuration":328389,"Delta":106876353},{"NoteNumber":37,"Velocity":60,"Duration":1302690,"SoundDuration":1302690,"Delta":106876353},{"NoteNumber":56,"Velocity":57,"Duration":109462,"SoundDuration":109462,"Delta":106985816},{"NoteNumber":61,"Velocity":57,"Duration":109463,"SoundDuration":109463,"Delta":107095279},{"NoteNumber":63,"Velocity":64,"Duration":321792,"SoundDuration":321792,"Delta":107204742},{"NoteNumber":46,"Velocity":55,"Duration":321792,"SoundDuration":321792,"Delta":107204742},{"NoteNumber":55,"Velocity":54,"Duration":107261,"SoundDuration":107261,"Delta":107311700},{"NoteNumber":61,"Velocity":54,"Duration":107573,"SoundDuration":107573,"Delta":107418962},{"NoteNumber":62,"Velocity":62,"Duration":324748,"SoundDuration":324748,"Delta":107526535},{"NoteNumber":45,"Velocity":52,"Duration":324748,"SoundDuration":324748,"Delta":107526535},{"NoteNumber":54,"Velocity":53,"Duration":108275,"SoundDuration":108275,"Delta":107634415},{"NoteNumber":60,"Velocity":53,"Duration":108592,"SoundDuration":108592,"Delta":107742690},{"NoteNumber":61,"Velocity":60,"Duration":327761,"SoundDuration":327761,"Delta":107851283},{"NoteNumber":44,"Velocity":49,"Duration":327761,"SoundDuration":327761,"Delta":107851283},{"NoteNumber":52,"Velocity":52,"Duration":109225,"SoundDuration":109225,"Delta":107960193},{"NoteNumber":56,"Velocity":52,"Duration":109625,"SoundDuration":109625,"Delta":108069419},{"NoteNumber":68,"Velocity":66,"Duration":323642,"SoundDuration":323642,"Delta":108179044},{"NoteNumber":40,"Velocity":55,"Duration":323642,"SoundDuration":323642,"Delta":108179044},{"NoteNumber":56,"Velocity":57,"Duration":107880,"SoundDuration":107880,"Delta":108286925},{"NoteNumber":61,"Velocity":58,"Duration":107880,"SoundDuration":107880,"Delta":108394805},{"NoteNumber":66,"Velocity":66,"Duration":334261,"SoundDuration":334261,"Delta":108502686},{"NoteNumber":39,"Velocity":54,"Duration":334261,"SoundDuration":334261,"Delta":108502686},{"NoteNumber":57,"Velocity":57,"Duration":111420,"SoundDuration":111420,"Delta":108614107},{"NoteNumber":61,"Velocity":60,"Duration":111420,"SoundDuration":111420,"Delta":108725527},{"NoteNumber":69,"Velocity":70,"Duration":324588,"SoundDuration":324588,"Delta":108836948},{"NoteNumber":42,"Velocity":58,"Duration":324588,"SoundDuration":324588,"Delta":108836948},{"NoteNumber":54,"Velocity":60,"Duration":108195,"SoundDuration":108195,"Delta":108945144},{"NoteNumber":61,"Velocity":62,"Duration":108196,"SoundDuration":108196,"Delta":109053340},{"NoteNumber":68,"Velocity":72,"Duration":334261,"SoundDuration":334261,"Delta":109161536},{"NoteNumber":40,"Velocity":55,"Duration":334261,"SoundDuration":334261,"Delta":109161536},{"NoteNumber":56,"Velocity":64,"Duration":111420,"SoundDuration":111420,"Delta":109272957},{"NoteNumber":61,"Velocity":65,"Duration":111420,"SoundDuration":111420,"Delta":109384377},{"NoteNumber":73,"Velocity":78,"Duration":325537,"SoundDuration":325537,"Delta":109495798},{"NoteNumber":45,"Velocity":60,"Duration":1323587,"SoundDuration":1323587,"Delta":109495798},{"NoteNumber":52,"Velocity":71,"Duration":325537,"SoundDuration":325537,"Delta":109495798},{"NoteNumber":61,"Velocity":63,"Duration":108512,"SoundDuration":108512,"Delta":109604311},{"NoteNumber":69,"Velocity":64,"Duration":108512,"SoundDuration":108512,"Delta":109712823},{"NoteNumber":71,"Velocity":81,"Duration":335269,"SoundDuration":335269,"Delta":109821336},{"NoteNumber":54,"Velocity":63,"Duration":335269,"SoundDuration":335269,"Delta":109821336},{"NoteNumber":62,"Velocity":69,"Duration":111756,"SoundDuration":111756,"Delta":109933093},{"NoteNumber":69,"Velocity":72,"Duration":111756,"SoundDuration":111756,"Delta":110044849},{"NoteNumber":74,"Velocity":83,"Duration":326494,"SoundDuration":326494,"Delta":110156606},{"NoteNumber":53,"Velocity":77,"Duration":326494,"SoundDuration":326494,"Delta":110156606},{"NoteNumber":62,"Velocity":71,"Duration":108831,"SoundDuration":108831,"Delta":110265438},{"NoteNumber":68,"Velocity":73,"Duration":108831,"SoundDuration":108831,"Delta":110374269},{"NoteNumber":73,"Velocity":87,"Duration":336285,"SoundDuration":336285,"Delta":110483101},{"NoteNumber":52,"Velocity":70,"Duration":336285,"SoundDuration":336285,"Delta":110483101},{"NoteNumber":61,"Velocity":79,"Duration":112094,"SoundDuration":112094,"Delta":110595196},{"NoteNumber":69,"Velocity":78,"Duration":112095,"SoundDuration":112095,"Delta":110707291},{"NoteNumber":78,"Velocity":90,"Duration":325537,"SoundDuration":325537,"Delta":110819386},{"NoteNumber":60,"Velocity":68,"Duration":325537,"SoundDuration":325537,"Delta":110819386},{"NoteNumber":63,"Velocity":81,"Duration":325537,"SoundDuration":325537,"Delta":110819386},{"NoteNumber":69,"Velocity":72,"Duration":108512,"SoundDuration":108512,"Delta":110927899},{"NoteNumber":75,"Velocity":71,"Duration":108512,"SoundDuration":108512,"Delta":111036411},{"NoteNumber":76,"Velocity":89,"Duration":329669,"SoundDuration":329669,"Delta":111144924},{"NoteNumber":61,"Velocity":67,"Duration":329669,"SoundDuration":329669,"Delta":111144924},{"NoteNumber":64,"Velocity":69,"Duration":329669,"SoundDuration":329669,"Delta":111144924},{"NoteNumber":68,"Velocity":75,"Duration":109890,"SoundDuration":109890,"Delta":111254814},{"NoteNumber":73,"Velocity":75,"Duration":109889,"SoundDuration":109889,"Delta":111364704},{"NoteNumber":74,"Velocity":85,"Duration":326494,"SoundDuration":326494,"Delta":111474594},{"NoteNumber":56,"Velocity":65,"Duration":326494,"SoundDuration":326494,"Delta":111474594},{"NoteNumber":59,"Velocity":78,"Duration":326494,"SoundDuration":326494,"Delta":111474594},{"NoteNumber":65,"Velocity":74,"Duration":108831,"SoundDuration":108831,"Delta":111583426},{"NoteNumber":71,"Velocity":72,"Duration":108831,"SoundDuration":108831,"Delta":111692257},{"NoteNumber":73,"Velocity":85,"Duration":331491,"SoundDuration":331491,"Delta":111801089},{"NoteNumber":57,"Velocity":64,"Duration":331491,"SoundDuration":331491,"Delta":111801089},{"NoteNumber":61,"Velocity":68,"Duration":331491,"SoundDuration":331491,"Delta":111801089},{"NoteNumber":66,"Velocity":75,"Duration":110497,"SoundDuration":110497,"Delta":111911586},{"NoteNumber":69,"Velocity":73,"Duration":110497,"SoundDuration":110497,"Delta":112022084},{"NoteNumber":74,"Velocity":81,"Duration":325537,"SoundDuration":325537,"Delta":112132581},{"NoteNumber":56,"Velocity":61,"Duration":325537,"SoundDuration":325537,"Delta":112132581},{"NoteNumber":59,"Velocity":73,"Duration":325537,"SoundDuration":325537,"Delta":112132581},{"NoteNumber":65,"Velocity":65,"Duration":108512,"SoundDuration":108512,"Delta":112241094},{"NoteNumber":71,"Velocity":65,"Duration":108512,"SoundDuration":108512,"Delta":112349606},{"NoteNumber":73,"Velocity":80,"Duration":330579,"SoundDuration":330579,"Delta":112458119},{"NoteNumber":57,"Velocity":60,"Duration":330579,"SoundDuration":330579,"Delta":112458119},{"NoteNumber":61,"Velocity":62,"Duration":330579,"SoundDuration":330579,"Delta":112458119},{"NoteNumber":66,"Velocity":68,"Duration":110193,"SoundDuration":110193,"Delta":112568312},{"NoteNumber":69,"Velocity":67,"Duration":110192,"SoundDuration":110192,"Delta":112678505},{"NoteNumber":71,"Velocity":76,"Duration":326494,"SoundDuration":326494,"Delta":112788698},{"NoteNumber":53,"Velocity":58,"Duration":326494,"SoundDuration":326494,"Delta":112788698},{"NoteNumber":56,"Velocity":71,"Duration":326494,"SoundDuration":326494,"Delta":112788698},{"NoteNumber":62,"Velocity":65,"Duration":108831,"SoundDuration":108831,"Delta":112897530},{"NoteNumber":68,"Velocity":65,"Duration":108831,"SoundDuration":108831,"Delta":113006361},{"NoteNumber":69,"Velocity":77,"Duration":331491,"SoundDuration":331491,"Delta":113115193},{"NoteNumber":54,"Velocity":57,"Duration":331491,"SoundDuration":331491,"Delta":113115193},{"NoteNumber":57,"Velocity":62,"Duration":331491,"SoundDuration":331491,"Delta":113115193},{"NoteNumber":61,"Velocity":66,"Duration":110497,"SoundDuration":110497,"Delta":113225690},{"NoteNumber":66,"Velocity":65,"Duration":110497,"SoundDuration":110497,"Delta":113336188},{"NoteNumber":69,"Velocity":73,"Duration":325537,"SoundDuration":325537,"Delta":113446685},{"NoteNumber":51,"Velocity":56,"Duration":325537,"SoundDuration":325537,"Delta":113446685},{"NoteNumber":54,"Velocity":66,"Duration":325537,"SoundDuration":325537,"Delta":113446685},{"NoteNumber":60,"Velocity":58,"Duration":108512,"SoundDuration":108512,"Delta":113555198},{"NoteNumber":66,"Velocity":58,"Duration":108512,"SoundDuration":108512,"Delta":113663710},{"NoteNumber":68,"Velocity":72,"Duration":335269,"SoundDuration":335269,"Delta":113772223},{"NoteNumber":52,"Velocity":55,"Duration":335269,"SoundDuration":335269,"Delta":113772223},{"NoteNumber":56,"Velocity":56,"Duration":335269,"SoundDuration":335269,"Delta":113772223},{"NoteNumber":61,"Velocity":61,"Duration":111756,"SoundDuration":111756,"Delta":113883980},{"NoteNumber":64,"Velocity":62,"Duration":111756,"SoundDuration":111756,"Delta":113995736},{"NoteNumber":66,"Velocity":70,"Duration":326494,"SoundDuration":326494,"Delta":114107493},{"NoteNumber":48,"Velocity":54,"Duration":326494,"SoundDuration":326494,"Delta":114107493},{"NoteNumber":51,"Velocity":65,"Duration":326494,"SoundDuration":326494,"Delta":114107493},{"NoteNumber":57,"Velocity":60,"Duration":108831,"SoundDuration":108831,"Delta":114216325},{"NoteNumber":63,"Velocity":60,"Duration":108831,"SoundDuration":108831,"Delta":114325156},{"NoteNumber":64,"Velocity":71,"Duration":336285,"SoundDuration":336285,"Delta":114433988},{"NoteNumber":49,"Velocity":53,"Duration":336285,"SoundDuration":336285,"Delta":114433988},{"NoteNumber":52,"Velocity":57,"Duration":336285,"SoundDuration":336285,"Delta":114433988},{"NoteNumber":56,"Velocity":63,"Duration":112094,"SoundDuration":112094,"Delta":114546083},{"NoteNumber":61,"Velocity":61,"Duration":112095,"SoundDuration":112095,"Delta":114658178},{"NoteNumber":62,"Velocity":73,"Duration":325537,"SoundDuration":325537,"Delta":114770273},{"NoteNumber":42,"Velocity":66,"Duration":660807,"SoundDuration":660807,"Delta":114770273},{"NoteNumber":57,"Velocity":58,"Duration":108512,"SoundDuration":108512,"Delta":114878786},{"NoteNumber":61,"Velocity":58,"Duration":108512,"SoundDuration":108512,"Delta":114987298},{"NoteNumber":69,"Velocity":73,"Duration":335269,"SoundDuration":335269,"Delta":115095811},{"NoteNumber":50,"Velocity":57,"Duration":335269,"SoundDuration":335269,"Delta":115095811},{"NoteNumber":57,"Velocity":63,"Duration":111756,"SoundDuration":111756,"Delta":115207568},{"NoteNumber":61,"Velocity":65,"Duration":111756,"SoundDuration":111756,"Delta":115319324},{"NoteNumber":63,"Velocity":75,"Duration":326494,"SoundDuration":326494,"Delta":115431081},{"NoteNumber":43,"Velocity":69,"Duration":662779,"SoundDuration":662779,"Delta":115431081},{"NoteNumber":58,"Velocity":65,"Duration":108831,"SoundDuration":108831,"Delta":115539913},{"NoteNumber":61,"Velocity":66,"Duration":108831,"SoundDuration":108831,"Delta":115648744},{"NoteNumber":70,"Velocity":79,"Duration":336285,"SoundDuration":336285,"Delta":115757576},{"NoteNumber":51,"Velocity":63,"Duration":336285,"SoundDuration":336285,"Delta":115757576},{"NoteNumber":58,"Velocity":71,"Duration":112094,"SoundDuration":112094,"Delta":115869671},{"NoteNumber":61,"Velocity":69,"Duration":112095,"SoundDuration":112095,"Delta":115981766},{"NoteNumber":64,"Velocity":85,"Duration":325537,"SoundDuration":325537,"Delta":116093861},{"NoteNumber":44,"Velocity":77,"Duration":660807,"SoundDuration":660807,"Delta":116093861},{"NoteNumber":59,"Velocity":68,"Duration":108512,"SoundDuration":108512,"Delta":116202374},{"NoteNumber":63,"Velocity":68,"Duration":108512,"SoundDuration":108512,"Delta":116310886},{"NoteNumber":71,"Velocity":87,"Duration":335269,"SoundDuration":335269,"Delta":116419399},{"NoteNumber":52,"Velocity":68,"Duration":335269,"SoundDuration":335269,"Delta":116419399},{"NoteNumber":59,"Velocity":75,"Duration":111756,"SoundDuration":111756,"Delta":116531156},{"NoteNumber":63,"Velocity":77,"Duration":111756,"SoundDuration":111756,"Delta":116642912},{"NoteNumber":72,"Velocity":88,"Duration":326494,"SoundDuration":326494,"Delta":116754669},{"NoteNumber":51,"Velocity":82,"Duration":326494,"SoundDuration":326494,"Delta":116754669},{"NoteNumber":60,"Velocity":75,"Duration":108831,"SoundDuration":108831,"Delta":116863501},{"NoteNumber":66,"Velocity":77,"Duration":108831,"SoundDuration":108831,"Delta":116972332},{"NoteNumber":73,"Velocity":93,"Duration":354565,"SoundDuration":354565,"Delta":117081164},{"NoteNumber":49,"Velocity":74,"Duration":354565,"SoundDuration":354565,"Delta":117081164},{"NoteNumber":61,"Velocity":83,"Duration":124306,"SoundDuration":124306,"Delta":117193259},{"NoteNumber":64,"Velocity":82,"Duration":118163,"SoundDuration":118163,"Delta":117317566},{"NoteNumber":37,"Velocity":86,"Duration":1335063,"SoundDuration":1335063,"Delta":117351695},{"NoteNumber":76,"Velocity":94,"Duration":333332,"SoundDuration":333332,"Delta":117435729},{"NoteNumber":59,"Velocity":79,"Duration":333332,"SoundDuration":333332,"Delta":117435729},{"NoteNumber":68,"Velocity":81,"Duration":111111,"SoundDuration":111111,"Delta":117546840},{"NoteNumber":73,"Velocity":81,"Duration":111110,"SoundDuration":111110,"Delta":117657951},{"NoteNumber":75,"Velocity":91,"Duration":321638,"SoundDuration":321638,"Delta":117769062},{"NoteNumber":58,"Velocity":79,"Duration":321638,"SoundDuration":321638,"Delta":117769062},{"NoteNumber":67,"Velocity":76,"Duration":107185,"SoundDuration":107185,"Delta":117876020},{"NoteNumber":73,"Velocity":76,"Duration":107495,"SoundDuration":107495,"Delta":117983205},{"NoteNumber":74,"Velocity":88,"Duration":324275,"SoundDuration":324275,"Delta":118090700},{"NoteNumber":57,"Velocity":74,"Duration":324275,"SoundDuration":324275,"Delta":118090700},{"NoteNumber":66,"Velocity":75,"Duration":108117,"SoundDuration":108117,"Delta":118198504},{"NoteNumber":72,"Velocity":75,"Duration":108354,"SoundDuration":108354,"Delta":118306621},{"NoteNumber":73,"Velocity":86,"Duration":353912,"SoundDuration":353912,"Delta":118414976},{"NoteNumber":56,"Velocity":69,"Duration":271783,"SoundDuration":271783,"Delta":118414976},{"NoteNumber":64,"Velocity":74,"Duration":126879,"SoundDuration":126879,"Delta":118523648},{"NoteNumber":68,"Velocity":74,"Duration":118360,"SoundDuration":118360,"Delta":118650528},{"NoteNumber":37,"Velocity":86,"Duration":1384819,"SoundDuration":1384819,"Delta":118686759},{"NoteNumber":76,"Velocity":94,"Duration":328389,"SoundDuration":328389,"Delta":118768888},{"NoteNumber":59,"Velocity":79,"Duration":328389,"SoundDuration":328389,"Delta":118768888},{"NoteNumber":68,"Velocity":81,"Duration":109462,"SoundDuration":109462,"Delta":118878351},{"NoteNumber":73,"Velocity":81,"Duration":109463,"SoundDuration":109463,"Delta":118987814},{"NoteNumber":75,"Velocity":91,"Duration":321792,"SoundDuration":321792,"Delta":119097277},{"NoteNumber":58,"Velocity":79,"Duration":321792,"SoundDuration":321792,"Delta":119097277},{"NoteNumber":67,"Velocity":76,"Duration":107261,"SoundDuration":107261,"Delta":119204235},{"NoteNumber":73,"Velocity":76,"Duration":107573,"SoundDuration":107573,"Delta":119311497},{"NoteNumber":74,"Velocity":88,"Duration":324748,"SoundDuration":324748,"Delta":119419070},{"NoteNumber":57,"Velocity":74,"Duration":324748,"SoundDuration":324748,"Delta":119419070},{"NoteNumber":66,"Velocity":75,"Duration":108275,"SoundDuration":108275,"Delta":119526950},{"NoteNumber":72,"Velocity":75,"Duration":108592,"SoundDuration":108592,"Delta":119635225},{"NoteNumber":73,"Velocity":86,"Duration":327761,"SoundDuration":327761,"Delta":119743818},{"NoteNumber":56,"Velocity":69,"Duration":327761,"SoundDuration":327761,"Delta":119743818},{"NoteNumber":64,"Velocity":74,"Duration":109225,"SoundDuration":109225,"Delta":119852728},{"NoteNumber":68,"Velocity":74,"Duration":109625,"SoundDuration":109625,"Delta":119961954},{"NoteNumber":80,"Velocity":94,"Duration":323642,"SoundDuration":323642,"Delta":120071579},{"NoteNumber":61,"Velocity":86,"Duration":1316754,"SoundDuration":1316754,"Delta":120071579},{"NoteNumber":52,"Velocity":79,"Duration":323642,"SoundDuration":323642,"Delta":120071579},{"NoteNumber":68,"Velocity":81,"Duration":107880,"SoundDuration":107880,"Delta":120179460},{"NoteNumber":73,"Velocity":82,"Duration":107880,"SoundDuration":107880,"Delta":120287340},{"NoteNumber":78,"Velocity":93,"Duration":334261,"SoundDuration":334261,"Delta":120395221},{"NoteNumber":51,"Velocity":80,"Duration":334261,"SoundDuration":334261,"Delta":120395221},{"NoteNumber":69,"Velocity":80,"Duration":111420,"SoundDuration":111420,"Delta":120506642},{"NoteNumber":73,"Velocity":81,"Duration":111420,"SoundDuration":111420,"Delta":120618062},{"NoteNumber":81,"Velocity":94,"Duration":324588,"SoundDuration":324588,"Delta":120729483},{"NoteNumber":54,"Velocity":79,"Duration":324588,"SoundDuration":324588,"Delta":120729483},{"NoteNumber":66,"Velocity":81,"Duration":108195,"SoundDuration":108195,"Delta":120837679},{"NoteNumber":73,"Velocity":82,"Duration":108196,"SoundDuration":108196,"Delta":120945875},{"NoteNumber":80,"Velocity":94,"Duration":334261,"SoundDuration":334261,"Delta":121054071},{"NoteNumber":52,"Velocity":76,"Duration":334261,"SoundDuration":334261,"Delta":121054071},{"NoteNumber":68,"Velocity":82,"Duration":111420,"SoundDuration":111420,"Delta":121165492},{"NoteNumber":73,"Velocity":82,"Duration":111420,"SoundDuration":111420,"Delta":121276912},{"NoteNumber":78,"Velocity":93,"Duration":325537,"SoundDuration":325537,"Delta":121388333},{"NoteNumber":57,"Velocity":80,"Duration":325537,"SoundDuration":325537,"Delta":121388333},{"NoteNumber":66,"Velocity":81,"Duration":108512,"SoundDuration":108512,"Delta":121496846},{"NoteNumber":73,"Velocity":81,"Duration":108512,"SoundDuration":108512,"Delta":121605358},{"NoteNumber":76,"Velocity":81,"Duration":108512,"SoundDuration":108512,"Delta":121605358},{"NoteNumber":78,"Velocity":91,"Duration":335269,"SoundDuration":335269,"Delta":121713871},{"NoteNumber":51,"Velocity":67,"Duration":335269,"SoundDuration":335269,"Delta":121713871},{"NoteNumber":66,"Velocity":80,"Duration":111756,"SoundDuration":111756,"Delta":121825628},{"NoteNumber":73,"Velocity":82,"Duration":111756,"SoundDuration":111756,"Delta":121937384},{"NoteNumber":76,"Velocity":88,"Duration":326494,"SoundDuration":326494,"Delta":122049141},{"NoteNumber":56,"Velocity":73,"Duration":326494,"SoundDuration":326494,"Delta":122049141},{"NoteNumber":66,"Velocity":80,"Duration":108831,"SoundDuration":108831,"Delta":122157973},{"NoteNumber":72,"Velocity":64,"Duration":108831,"SoundDuration":108831,"Delta":122266804},{"NoteNumber":75,"Velocity":79,"Duration":108831,"SoundDuration":108831,"Delta":122266804},{"NoteNumber":76,"Velocity":86,"Duration":357071,"SoundDuration":357071,"Delta":122375636},{"NoteNumber":49,"Velocity":66,"Duration":273037,"SoundDuration":273037,"Delta":122375636},{"NoteNumber":64,"Velocity":75,"Duration":125977,"SoundDuration":125977,"Delta":122487731},{"NoteNumber":73,"Velocity":75,"Duration":118998,"SoundDuration":118998,"Delta":122613708},{"NoteNumber":37,"Velocity":86,"Duration":1336696,"SoundDuration":1336696,"Delta":122648673},{"NoteNumber":76,"Velocity":94,"Duration":338027,"SoundDuration":338027,"Delta":122732707},{"NoteNumber":59,"Velocity":79,"Duration":338027,"SoundDuration":338027,"Delta":122732707},{"NoteNumber":68,"Velocity":81,"Duration":112676,"SoundDuration":112676,"Delta":122845383},{"NoteNumber":73,"Velocity":81,"Duration":112675,"SoundDuration":112675,"Delta":122958059},{"NoteNumber":75,"Velocity":91,"Duration":321638,"SoundDuration":321638,"Delta":123070735},{"NoteNumber":58,"Velocity":79,"Duration":321638,"SoundDuration":321638,"Delta":123070735},{"NoteNumber":67,"Velocity":76,"Duration":107185,"SoundDuration":107185,"Delta":123177693},{"NoteNumber":73,"Velocity":76,"Duration":107495,"SoundDuration":107495,"Delta":123284878},{"NoteNumber":74,"Velocity":88,"Duration":324275,"SoundDuration":324275,"Delta":123392373},{"NoteNumber":57,"Velocity":74,"Duration":324275,"SoundDuration":324275,"Delta":123392373},{"NoteNumber":66,"Velocity":75,"Duration":108117,"SoundDuration":108117,"Delta":123500177},{"NoteNumber":72,"Velocity":75,"Duration":108354,"SoundDuration":108354,"Delta":123608294},{"NoteNumber":73,"Velocity":86,"Duration":350775,"SoundDuration":350775,"Delta":123716649},{"NoteNumber":56,"Velocity":69,"Duration":268721,"SoundDuration":268721,"Delta":123716649},{"NoteNumber":64,"Velocity":74,"Duration":124838,"SoundDuration":124838,"Delta":123825321},{"NoteNumber":68,"Velocity":74,"Duration":117265,"SoundDuration":117265,"Delta":123950159},{"NoteNumber":37,"Velocity":86,"Duration":1384744,"SoundDuration":1384744,"Delta":123985370},{"NoteNumber":76,"Velocity":94,"Duration":328389,"SoundDuration":328389,"Delta":124067424},{"NoteNumber":59,"Velocity":79,"Duration":328389,"SoundDuration":328389,"Delta":124067424},{"NoteNumber":68,"Velocity":81,"Duration":109462,"SoundDuration":109462,"Delta":124176887},{"NoteNumber":73,"Velocity":81,"Duration":109463,"SoundDuration":109463,"Delta":124286350},{"NoteNumber":75,"Velocity":91,"Duration":321792,"SoundDuration":321792,"Delta":124395813},{"NoteNumber":58,"Velocity":79,"Duration":321792,"SoundDuration":321792,"Delta":124395813},{"NoteNumber":67,"Velocity":76,"Duration":107261,"SoundDuration":107261,"Delta":124502771},{"NoteNumber":73,"Velocity":76,"Duration":107573,"SoundDuration":107573,"Delta":124610033},{"NoteNumber":74,"Velocity":88,"Duration":324748,"SoundDuration":324748,"Delta":124717606},{"NoteNumber":57,"Velocity":74,"Duration":324748,"SoundDuration":324748,"Delta":124717606},{"NoteNumber":66,"Velocity":75,"Duration":108275,"SoundDuration":108275,"Delta":124825486},{"NoteNumber":72,"Velocity":75,"Duration":108592,"SoundDuration":108592,"Delta":124933762},{"NoteNumber":73,"Velocity":86,"Duration":327761,"SoundDuration":327761,"Delta":125042354},{"NoteNumber":56,"Velocity":69,"Duration":327761,"SoundDuration":327761,"Delta":125042354},{"NoteNumber":64,"Velocity":74,"Duration":109225,"SoundDuration":109225,"Delta":125151264},{"NoteNumber":68,"Velocity":74,"Duration":109625,"SoundDuration":109625,"Delta":125260490},{"NoteNumber":80,"Velocity":90,"Duration":323642,"SoundDuration":323642,"Delta":125370115},{"NoteNumber":61,"Velocity":82,"Duration":1316754,"SoundDuration":1316754,"Delta":125370115},{"NoteNumber":52,"Velocity":75,"Duration":323642,"SoundDuration":323642,"Delta":125370115},{"NoteNumber":68,"Velocity":78,"Duration":107880,"SoundDuration":107880,"Delta":125477996},{"NoteNumber":73,"Velocity":79,"Duration":107880,"SoundDuration":107880,"Delta":125585876},{"NoteNumber":78,"Velocity":90,"Duration":334261,"SoundDuration":334261,"Delta":125693757},{"NoteNumber":51,"Velocity":72,"Duration":334261,"SoundDuration":334261,"Delta":125693757},{"NoteNumber":69,"Velocity":77,"Duration":111420,"SoundDuration":111420,"Delta":125805178},{"NoteNumber":73,"Velocity":79,"Duration":111420,"SoundDuration":111420,"Delta":125916598},{"NoteNumber":81,"Velocity":92,"Duration":324588,"SoundDuration":324588,"Delta":126028019},{"NoteNumber":54,"Velocity":76,"Duration":324588,"SoundDuration":324588,"Delta":126028019},{"NoteNumber":66,"Velocity":79,"Duration":108195,"SoundDuration":108195,"Delta":126136215},{"NoteNumber":73,"Velocity":82,"Duration":108196,"SoundDuration":108196,"Delta":126244411},{"NoteNumber":80,"Velocity":94,"Duration":334261,"SoundDuration":334261,"Delta":126352607},{"NoteNumber":52,"Velocity":71,"Duration":334261,"SoundDuration":334261,"Delta":126352607},{"NoteNumber":68,"Velocity":82,"Duration":111420,"SoundDuration":111420,"Delta":126464028},{"NoteNumber":73,"Velocity":84,"Duration":111420,"SoundDuration":111420,"Delta":126575448},{"NoteNumber":83,"Velocity":99,"Duration":325538,"SoundDuration":325538,"Delta":126686869},{"NoteNumber":68,"Velocity":89,"Duration":325538,"SoundDuration":325538,"Delta":126686869},{"NoteNumber":65,"Velocity":75,"Duration":325538,"SoundDuration":325538,"Delta":126686869},{"NoteNumber":74,"Velocity":79,"Duration":108512,"SoundDuration":108512,"Delta":126795382},{"NoteNumber":80,"Velocity":81,"Duration":108512,"SoundDuration":108512,"Delta":126903894},{"NoteNumber":81,"Velocity":101,"Duration":335270,"SoundDuration":335270,"Delta":127012407},{"NoteNumber":69,"Velocity":79,"Duration":335270,"SoundDuration":335270,"Delta":127012407},{"NoteNumber":66,"Velocity":67,"Duration":335270,"SoundDuration":335270,"Delta":127012407},{"NoteNumber":73,"Velocity":86,"Duration":111756,"SoundDuration":111756,"Delta":127124164},{"NoteNumber":78,"Velocity":89,"Duration":111756,"SoundDuration":111756,"Delta":127235920},{"NoteNumber":86,"Velocity":101,"Duration":326494,"SoundDuration":326494,"Delta":127347677},{"NoteNumber":68,"Velocity":79,"Duration":326494,"SoundDuration":326494,"Delta":127347677},{"NoteNumber":71,"Velocity":93,"Duration":326494,"SoundDuration":326494,"Delta":127347677},{"NoteNumber":77,"Velocity":87,"Duration":108831,"SoundDuration":108831,"Delta":127456509},{"NoteNumber":83,"Velocity":88,"Duration":108831,"SoundDuration":108831,"Delta":127565340},{"NoteNumber":85,"Velocity":104,"Duration":336285,"SoundDuration":336285,"Delta":127674172},{"NoteNumber":69,"Velocity":71,"Duration":336285,"SoundDuration":336285,"Delta":127674172},{"NoteNumber":73,"Velocity":84,"Duration":336285,"SoundDuration":336285,"Delta":127674172},{"NoteNumber":78,"Velocity":93,"Duration":112094,"SoundDuration":112094,"Delta":127786267},{"NoteNumber":81,"Velocity":92,"Duration":112095,"SoundDuration":112095,"Delta":127898362},{"NoteNumber":90,"Velocity":104,"Duration":325537,"SoundDuration":325537,"Delta":128010457},{"NoteNumber":72,"Velocity":79,"Duration":325537,"SoundDuration":325537,"Delta":128010457},{"NoteNumber":75,"Velocity":94,"Duration":325537,"SoundDuration":325537,"Delta":128010457},{"NoteNumber":81,"Velocity":90,"Duration":108512,"SoundDuration":108512,"Delta":128118970},{"NoteNumber":87,"Velocity":90,"Duration":108512,"SoundDuration":108512,"Delta":128227482},{"NoteNumber":88,"Velocity":103,"Duration":341880,"SoundDuration":341880,"Delta":128335995},{"NoteNumber":73,"Velocity":78,"Duration":341880,"SoundDuration":341880,"Delta":128335995},{"NoteNumber":76,"Velocity":80,"Duration":341880,"SoundDuration":341880,"Delta":128335995},{"NoteNumber":80,"Velocity":95,"Duration":113960,"SoundDuration":113960,"Delta":128449955},{"NoteNumber":85,"Velocity":98,"Duration":113959,"SoundDuration":113959,"Delta":128563915},{"NoteNumber":84,"Velocity":91,"Duration":109588,"SoundDuration":109588,"Delta":128677875},{"NoteNumber":90,"Velocity":91,"Duration":109588,"SoundDuration":109588,"Delta":128677875},{"NoteNumber":93,"Velocity":108,"Duration":109588,"SoundDuration":109588,"Delta":128677875},{"NoteNumber":75,"Velocity":66,"Duration":109588,"SoundDuration":109588,"Delta":128787464},{"NoteNumber":78,"Velocity":78,"Duration":109588,"SoundDuration":109588,"Delta":128787464},{"NoteNumber":90,"Velocity":83,"Duration":109588,"SoundDuration":109588,"Delta":128897053},{"NoteNumber":93,"Velocity":98,"Duration":109588,"SoundDuration":109588,"Delta":128897053},{"NoteNumber":84,"Velocity":83,"Duration":109588,"SoundDuration":109588,"Delta":128897053},{"NoteNumber":76,"Velocity":75,"Duration":108400,"SoundDuration":108400,"Delta":129006642},{"NoteNumber":80,"Velocity":89,"Duration":108400,"SoundDuration":108400,"Delta":129006642},{"NoteNumber":92,"Velocity":99,"Duration":108401,"SoundDuration":108401,"Delta":129115043},{"NoteNumber":88,"Velocity":84,"Duration":108401,"SoundDuration":108401,"Delta":129115043},{"NoteNumber":85,"Velocity":84,"Duration":108401,"SoundDuration":108401,"Delta":129115043},{"NoteNumber":80,"Velocity":73,"Duration":108400,"SoundDuration":108400,"Delta":129223444},{"NoteNumber":76,"Velocity":62,"Duration":108400,"SoundDuration":108400,"Delta":129223444},{"NoteNumber":81,"Velocity":90,"Duration":108401,"SoundDuration":108401,"Delta":129331845},{"NoteNumber":87,"Velocity":90,"Duration":108401,"SoundDuration":108401,"Delta":129331845},{"NoteNumber":90,"Velocity":106,"Duration":108401,"SoundDuration":108401,"Delta":129331845},{"NoteNumber":72,"Velocity":63,"Duration":108400,"SoundDuration":108400,"Delta":129440246},{"NoteNumber":75,"Velocity":75,"Duration":108400,"SoundDuration":108400,"Delta":129440246},{"NoteNumber":87,"Velocity":80,"Duration":108401,"SoundDuration":108401,"Delta":129548647},{"NoteNumber":90,"Velocity":95,"Duration":108401,"SoundDuration":108401,"Delta":129548647},{"NoteNumber":81,"Velocity":68,"Duration":108401,"SoundDuration":108401,"Delta":129548647},{"NoteNumber":73,"Velocity":73,"Duration":108400,"SoundDuration":108400,"Delta":129657048},{"NoteNumber":76,"Velocity":86,"Duration":108400,"SoundDuration":108400,"Delta":129657048},{"NoteNumber":88,"Velocity":95,"Duration":108401,"SoundDuration":108401,"Delta":129765449},{"NoteNumber":85,"Velocity":80,"Duration":108401,"SoundDuration":108401,"Delta":129765449},{"NoteNumber":80,"Velocity":80,"Duration":108401,"SoundDuration":108401,"Delta":129765449},{"NoteNumber":76,"Velocity":73,"Duration":108400,"SoundDuration":108400,"Delta":129873850},{"NoteNumber":73,"Velocity":62,"Duration":108400,"SoundDuration":108400,"Delta":129873850},{"NoteNumber":77,"Velocity":88,"Duration":106952,"SoundDuration":106952,"Delta":129982251},{"NoteNumber":83,"Velocity":88,"Duration":106952,"SoundDuration":106952,"Delta":129982251},{"NoteNumber":86,"Velocity":104,"Duration":106952,"SoundDuration":106952,"Delta":129982251},{"NoteNumber":68,"Velocity":64,"Duration":106952,"SoundDuration":106952,"Delta":130089203},{"NoteNumber":71,"Velocity":76,"Duration":106952,"SoundDuration":106952,"Delta":130089203},{"NoteNumber":83,"Velocity":81,"Duration":106951,"SoundDuration":106951,"Delta":130196155},{"NoteNumber":86,"Velocity":96,"Duration":106951,"SoundDuration":106951,"Delta":130196155},{"NoteNumber":77,"Velocity":81,"Duration":106951,"SoundDuration":106951,"Delta":130196155},{"NoteNumber":69,"Velocity":73,"Duration":106952,"SoundDuration":106952,"Delta":130303107},{"NoteNumber":73,"Velocity":86,"Duration":106952,"SoundDuration":106952,"Delta":130303107},{"NoteNumber":85,"Velocity":93,"Duration":106952,"SoundDuration":106952,"Delta":130410059},{"NoteNumber":81,"Velocity":79,"Duration":106952,"SoundDuration":106952,"Delta":130410059},{"NoteNumber":78,"Velocity":79,"Duration":106952,"SoundDuration":106952,"Delta":130410059},{"NoteNumber":73,"Velocity":73,"Duration":106880,"SoundDuration":106880,"Delta":130517011},{"NoteNumber":69,"Velocity":62,"Duration":106880,"SoundDuration":106880,"Delta":130517011},{"NoteNumber":74,"Velocity":85,"Duration":106666,"SoundDuration":106666,"Delta":130623892},{"NoteNumber":80,"Velocity":85,"Duration":106666,"SoundDuration":106666,"Delta":130623892},{"NoteNumber":83,"Velocity":101,"Duration":106666,"SoundDuration":106666,"Delta":130623892},{"NoteNumber":65,"Velocity":63,"Duration":106666,"SoundDuration":106666,"Delta":130730558},{"NoteNumber":68,"Velocity":75,"Duration":106666,"SoundDuration":106666,"Delta":130730558},{"NoteNumber":80,"Velocity":79,"Duration":106382,"SoundDuration":106382,"Delta":130837225},{"NoteNumber":83,"Velocity":93,"Duration":106382,"SoundDuration":106382,"Delta":130837225},{"NoteNumber":74,"Velocity":79,"Duration":106382,"SoundDuration":106382,"Delta":130837225},{"NoteNumber":66,"Velocity":73,"Duration":106382,"SoundDuration":106382,"Delta":130943608},{"NoteNumber":69,"Velocity":87,"Duration":106382,"SoundDuration":106382,"Delta":130943608},{"NoteNumber":81,"Velocity":92,"Duration":106171,"SoundDuration":106171,"Delta":131049991},{"NoteNumber":78,"Velocity":78,"Duration":106171,"SoundDuration":106171,"Delta":131049991},{"NoteNumber":73,"Velocity":78,"Duration":106171,"SoundDuration":106171,"Delta":131049991},{"NoteNumber":66,"Velocity":61,"Duration":106100,"SoundDuration":106100,"Delta":131156162},{"NoteNumber":69,"Velocity":72,"Duration":106100,"SoundDuration":106100,"Delta":131156162},{"NoteNumber":72,"Velocity":84,"Duration":105890,"SoundDuration":105890,"Delta":131262263},{"NoteNumber":81,"Velocity":99,"Duration":105890,"SoundDuration":105890,"Delta":131262263},{"NoteNumber":78,"Velocity":84,"Duration":105890,"SoundDuration":105890,"Delta":131262263},{"NoteNumber":66,"Velocity":62,"Duration":105819,"SoundDuration":105819,"Delta":131368153},{"NoteNumber":63,"Velocity":73,"Duration":105819,"SoundDuration":105819,"Delta":131368153},{"NoteNumber":78,"Velocity":78,"Duration":105680,"SoundDuration":105680,"Delta":131473973},{"NoteNumber":81,"Velocity":92,"Duration":105680,"SoundDuration":105680,"Delta":131473973},{"NoteNumber":72,"Velocity":78,"Duration":105680,"SoundDuration":105680,"Delta":131473973},{"NoteNumber":64,"Velocity":73,"Duration":105540,"SoundDuration":105540,"Delta":131579654},{"NoteNumber":68,"Velocity":86,"Duration":105540,"SoundDuration":105540,"Delta":131579654},{"NoteNumber":73,"Velocity":77,"Duration":105401,"SoundDuration":105401,"Delta":131685195},{"NoteNumber":80,"Velocity":91,"Duration":105401,"SoundDuration":105401,"Delta":131685195},{"NoteNumber":76,"Velocity":77,"Duration":105401,"SoundDuration":105401,"Delta":131685195},{"NoteNumber":64,"Velocity":61,"Duration":105263,"SoundDuration":105263,"Delta":131790597},{"NoteNumber":68,"Velocity":72,"Duration":105263,"SoundDuration":105263,"Delta":131790597},{"NoteNumber":75,"Velocity":81,"Duration":105194,"SoundDuration":105194,"Delta":131895860},{"NoteNumber":69,"Velocity":81,"Duration":105194,"SoundDuration":105194,"Delta":131895860},{"NoteNumber":78,"Velocity":96,"Duration":105194,"SoundDuration":105194,"Delta":131895860},{"NoteNumber":63,"Velocity":74,"Duration":104986,"SoundDuration":104986,"Delta":132001054},{"NoteNumber":60,"Velocity":62,"Duration":104986,"SoundDuration":104986,"Delta":132001054},{"NoteNumber":78,"Velocity":91,"Duration":104986,"SoundDuration":104986,"Delta":132106041},{"NoteNumber":69,"Velocity":77,"Duration":104986,"SoundDuration":104986,"Delta":132106041},{"NoteNumber":75,"Velocity":77,"Duration":104986,"SoundDuration":104986,"Delta":132106041},{"NoteNumber":61,"Velocity":69,"Duration":104712,"SoundDuration":104712,"Delta":132211028},{"NoteNumber":64,"Velocity":82,"Duration":104712,"SoundDuration":104712,"Delta":132211028},{"NoteNumber":68,"Velocity":76,"Duration":104711,"SoundDuration":104711,"Delta":132315740},{"NoteNumber":76,"Velocity":76,"Duration":104711,"SoundDuration":104711,"Delta":132315740},{"NoteNumber":73,"Velocity":76,"Duration":104711,"SoundDuration":104711,"Delta":132315740},{"NoteNumber":61,"Velocity":60,"Duration":104438,"SoundDuration":104438,"Delta":132420452},{"NoteNumber":64,"Velocity":71,"Duration":104438,"SoundDuration":104438,"Delta":132420452},{"NoteNumber":71,"Velocity":79,"Duration":104438,"SoundDuration":104438,"Delta":132524890},{"NoteNumber":65,"Velocity":79,"Duration":104438,"SoundDuration":104438,"Delta":132524890},{"NoteNumber":74,"Velocity":94,"Duration":104438,"SoundDuration":104438,"Delta":132524890},{"NoteNumber":59,"Velocity":69,"Duration":104234,"SoundDuration":104234,"Delta":132629329},{"NoteNumber":56,"Velocity":58,"Duration":104234,"SoundDuration":104234,"Delta":132629329},{"NoteNumber":74,"Velocity":87,"Duration":104166,"SoundDuration":104166,"Delta":132733564},{"NoteNumber":65,"Velocity":73,"Duration":104166,"SoundDuration":104166,"Delta":132733564},{"NoteNumber":71,"Velocity":73,"Duration":104166,"SoundDuration":104166,"Delta":132733564},{"NoteNumber":57,"Velocity":68,"Duration":103963,"SoundDuration":103963,"Delta":132837730},{"NoteNumber":61,"Velocity":80,"Duration":103963,"SoundDuration":103963,"Delta":132837730},{"NoteNumber":66,"Velocity":73,"Duration":103895,"SoundDuration":103895,"Delta":132941694},{"NoteNumber":73,"Velocity":86,"Duration":103895,"SoundDuration":103895,"Delta":132941694},{"NoteNumber":69,"Velocity":73,"Duration":103895,"SoundDuration":103895,"Delta":132941694},{"NoteNumber":57,"Velocity":56,"Duration":111731,"SoundDuration":111731,"Delta":133045590},{"NoteNumber":61,"Velocity":67,"Duration":111731,"SoundDuration":111731,"Delta":133045590},{"NoteNumber":68,"Velocity":77,"Duration":103626,"SoundDuration":103626,"Delta":133157322},{"NoteNumber":62,"Velocity":77,"Duration":103626,"SoundDuration":103626,"Delta":133157322},{"NoteNumber":71,"Velocity":91,"Duration":103626,"SoundDuration":103626,"Delta":133157322},{"NoteNumber":56,"Velocity":64,"Duration":103627,"SoundDuration":103627,"Delta":133260949},{"NoteNumber":53,"Velocity":54,"Duration":103627,"SoundDuration":103627,"Delta":133260949},{"NoteNumber":71,"Velocity":83,"Duration":103626,"SoundDuration":103626,"Delta":133364576},{"NoteNumber":62,"Velocity":70,"Duration":103626,"SoundDuration":103626,"Delta":133364576},{"NoteNumber":68,"Velocity":70,"Duration":103626,"SoundDuration":103626,"Delta":133364576},{"NoteNumber":54,"Velocity":64,"Duration":103627,"SoundDuration":103627,"Delta":133468203},{"NoteNumber":57,"Velocity":76,"Duration":103627,"SoundDuration":103627,"Delta":133468203},{"NoteNumber":61,"Velocity":69,"Duration":103626,"SoundDuration":103626,"Delta":133571830},{"NoteNumber":69,"Velocity":82,"Duration":103626,"SoundDuration":103626,"Delta":133571830},{"NoteNumber":66,"Velocity":69,"Duration":103626,"SoundDuration":103626,"Delta":133571830},{"NoteNumber":54,"Velocity":54,"Duration":103626,"SoundDuration":103626,"Delta":133675457},{"NoteNumber":57,"Velocity":64,"Duration":103626,"SoundDuration":103626,"Delta":133675457},{"NoteNumber":60,"Velocity":75,"Duration":103627,"SoundDuration":103627,"Delta":133779084},{"NoteNumber":66,"Velocity":75,"Duration":103627,"SoundDuration":103627,"Delta":133779084},{"NoteNumber":69,"Velocity":89,"Duration":103627,"SoundDuration":103627,"Delta":133779084},{"NoteNumber":51,"Velocity":53,"Duration":103626,"SoundDuration":103626,"Delta":133882711},{"NoteNumber":54,"Velocity":63,"Duration":103626,"SoundDuration":103626,"Delta":133882711},{"NoteNumber":69,"Velocity":82,"Duration":103627,"SoundDuration":103627,"Delta":133986338},{"NoteNumber":66,"Velocity":69,"Duration":103627,"SoundDuration":103627,"Delta":133986338},{"NoteNumber":60,"Velocity":69,"Duration":103627,"SoundDuration":103627,"Delta":133986338},{"NoteNumber":56,"Velocity":73,"Duration":103626,"SoundDuration":103626,"Delta":134089965},{"NoteNumber":52,"Velocity":62,"Duration":103626,"SoundDuration":103626,"Delta":134089965},{"NoteNumber":64,"Velocity":68,"Duration":103626,"SoundDuration":103626,"Delta":134193592},{"NoteNumber":68,"Velocity":80,"Duration":103626,"SoundDuration":103626,"Delta":134193592},{"NoteNumber":61,"Velocity":68,"Duration":103626,"SoundDuration":103626,"Delta":134193592},{"NoteNumber":56,"Velocity":61,"Duration":112994,"SoundDuration":112994,"Delta":134297219},{"NoteNumber":52,"Velocity":51,"Duration":112994,"SoundDuration":112994,"Delta":134297219},{"NoteNumber":63,"Velocity":73,"Duration":103895,"SoundDuration":103895,"Delta":134410213},{"NoteNumber":66,"Velocity":86,"Duration":103895,"SoundDuration":103895,"Delta":134410213},{"NoteNumber":57,"Velocity":73,"Duration":103895,"SoundDuration":103895,"Delta":134410213},{"NoteNumber":48,"Velocity":52,"Duration":103896,"SoundDuration":103896,"Delta":134514109},{"NoteNumber":51,"Velocity":62,"Duration":103896,"SoundDuration":103896,"Delta":134514109},{"NoteNumber":57,"Velocity":66,"Duration":103895,"SoundDuration":103895,"Delta":134618005},{"NoteNumber":66,"Velocity":78,"Duration":103895,"SoundDuration":103895,"Delta":134618005},{"NoteNumber":63,"Velocity":66,"Duration":103895,"SoundDuration":103895,"Delta":134618005},{"NoteNumber":52,"Velocity":72,"Duration":103895,"SoundDuration":103895,"Delta":134721901},{"NoteNumber":49,"Velocity":61,"Duration":103895,"SoundDuration":103895,"Delta":134721901},{"NoteNumber":61,"Velocity":66,"Duration":103895,"SoundDuration":103895,"Delta":134825797},{"NoteNumber":64,"Velocity":78,"Duration":103895,"SoundDuration":103895,"Delta":134825797},{"NoteNumber":56,"Velocity":66,"Duration":103895,"SoundDuration":103895,"Delta":134825797},{"NoteNumber":52,"Velocity":59,"Duration":103896,"SoundDuration":103896,"Delta":134929693},{"NoteNumber":49,"Velocity":50,"Duration":103896,"SoundDuration":103896,"Delta":134929693},{"NoteNumber":66,"Velocity":72,"Duration":103895,"SoundDuration":103895,"Delta":135033589},{"NoteNumber":69,"Velocity":85,"Duration":103895,"SoundDuration":103895,"Delta":135033589},{"NoteNumber":60,"Velocity":72,"Duration":103895,"SoundDuration":103895,"Delta":135033589},{"NoteNumber":51,"Velocity":53,"Duration":103895,"SoundDuration":103895,"Delta":135137485},{"NoteNumber":54,"Velocity":63,"Duration":103895,"SoundDuration":103895,"Delta":135137485},{"NoteNumber":60,"Velocity":68,"Duration":103896,"SoundDuration":103896,"Delta":135241381},{"NoteNumber":69,"Velocity":80,"Duration":103896,"SoundDuration":103896,"Delta":135241381},{"NoteNumber":66,"Velocity":68,"Duration":103896,"SoundDuration":103896,"Delta":135241381},{"NoteNumber":56,"Velocity":75,"Duration":103895,"SoundDuration":103895,"Delta":135345277},{"NoteNumber":52,"Velocity":63,"Duration":103895,"SoundDuration":103895,"Delta":135345277},{"NoteNumber":64,"Velocity":69,"Duration":103895,"SoundDuration":103895,"Delta":135449173},{"NoteNumber":68,"Velocity":82,"Duration":103895,"SoundDuration":103895,"Delta":135449173},{"NoteNumber":61,"Velocity":69,"Duration":103895,"SoundDuration":103895,"Delta":135449173},{"NoteNumber":56,"Velocity":63,"Duration":112359,"SoundDuration":112359,"Delta":135553069},{"NoteNumber":52,"Velocity":53,"Duration":112359,"SoundDuration":112359,"Delta":135553069},{"NoteNumber":63,"Velocity":74,"Duration":103895,"SoundDuration":103895,"Delta":135665429},{"NoteNumber":66,"Velocity":88,"Duration":103895,"SoundDuration":103895,"Delta":135665429},{"NoteNumber":57,"Velocity":74,"Duration":103895,"SoundDuration":103895,"Delta":135665429},{"NoteNumber":48,"Velocity":53,"Duration":103896,"SoundDuration":103896,"Delta":135769325},{"NoteNumber":51,"Velocity":63,"Duration":103896,"SoundDuration":103896,"Delta":135769325},{"NoteNumber":57,"Velocity":70,"Duration":103895,"SoundDuration":103895,"Delta":135873221},{"NoteNumber":66,"Velocity":83,"Duration":103895,"SoundDuration":103895,"Delta":135873221},{"NoteNumber":63,"Velocity":70,"Duration":103895,"SoundDuration":103895,"Delta":135873221},{"NoteNumber":52,"Velocity":74,"Duration":103895,"SoundDuration":103895,"Delta":135977117},{"NoteNumber":49,"Velocity":62,"Duration":103895,"SoundDuration":103895,"Delta":135977117},{"NoteNumber":61,"Velocity":71,"Duration":103895,"SoundDuration":103895,"Delta":136081013},{"NoteNumber":64,"Velocity":84,"Duration":103895,"SoundDuration":103895,"Delta":136081013},{"NoteNumber":56,"Velocity":71,"Duration":103895,"SoundDuration":103895,"Delta":136081013},{"NoteNumber":52,"Velocity":62,"Duration":103896,"SoundDuration":103896,"Delta":136184909},{"NoteNumber":49,"Velocity":52,"Duration":103896,"SoundDuration":103896,"Delta":136184909},{"NoteNumber":66,"Velocity":92,"Duration":103895,"SoundDuration":103895,"Delta":136288805},{"NoteNumber":63,"Velocity":78,"Duration":103895,"SoundDuration":103895,"Delta":136288805},{"NoteNumber":57,"Velocity":78,"Duration":103895,"SoundDuration":103895,"Delta":136288805},{"NoteNumber":48,"Velocity":56,"Duration":103895,"SoundDuration":103895,"Delta":136392701},{"NoteNumber":51,"Velocity":67,"Duration":103895,"SoundDuration":103895,"Delta":136392701},{"NoteNumber":63,"Velocity":73,"Duration":103896,"SoundDuration":103896,"Delta":136496597},{"NoteNumber":57,"Velocity":73,"Duration":103896,"SoundDuration":103896,"Delta":136496597},{"NoteNumber":66,"Velocity":86,"Duration":103896,"SoundDuration":103896,"Delta":136496597},{"NoteNumber":52,"Velocity":79,"Duration":103895,"SoundDuration":103895,"Delta":136600493},{"NoteNumber":49,"Velocity":67,"Duration":103895,"SoundDuration":103895,"Delta":136600493},{"NoteNumber":64,"Velocity":90,"Duration":103895,"SoundDuration":103895,"Delta":136704389},{"NoteNumber":56,"Velocity":76,"Duration":103895,"SoundDuration":103895,"Delta":136704389},{"NoteNumber":61,"Velocity":76,"Duration":103895,"SoundDuration":103895,"Delta":136704389},{"NoteNumber":49,"Velocity":58,"Duration":112359,"SoundDuration":112359,"Delta":136808285},{"NoteNumber":52,"Velocity":69,"Duration":112359,"SoundDuration":112359,"Delta":136808285},{"NoteNumber":66,"Velocity":96,"Duration":103626,"SoundDuration":103626,"Delta":136920645},{"NoteNumber":63,"Velocity":81,"Duration":103626,"SoundDuration":103626,"Delta":136920645},{"NoteNumber":57,"Velocity":81,"Duration":103626,"SoundDuration":103626,"Delta":136920645},{"NoteNumber":48,"Velocity":58,"Duration":103828,"SoundDuration":103828,"Delta":137024272},{"NoteNumber":51,"Velocity":69,"Duration":103828,"SoundDuration":103828,"Delta":137024272},{"NoteNumber":63,"Velocity":76,"Duration":104031,"SoundDuration":104031,"Delta":137128100},{"NoteNumber":57,"Velocity":76,"Duration":104031,"SoundDuration":104031,"Delta":137128100},{"NoteNumber":66,"Velocity":90,"Duration":104031,"SoundDuration":104031,"Delta":137128100},{"NoteNumber":52,"Velocity":82,"Duration":104234,"SoundDuration":104234,"Delta":137232132},{"NoteNumber":49,"Velocity":70,"Duration":104234,"SoundDuration":104234,"Delta":137232132},{"NoteNumber":64,"Velocity":91,"Duration":104507,"SoundDuration":104507,"Delta":137336366},{"NoteNumber":56,"Velocity":77,"Duration":104507,"SoundDuration":104507,"Delta":137336366},{"NoteNumber":61,"Velocity":77,"Duration":104507,"SoundDuration":104507,"Delta":137336366},{"NoteNumber":49,"Velocity":58,"Duration":104712,"SoundDuration":104712,"Delta":137440873},{"NoteNumber":52,"Velocity":70,"Duration":104712,"SoundDuration":104712,"Delta":137440873},{"NoteNumber":66,"Velocity":100,"Duration":104986,"SoundDuration":104986,"Delta":137545585},{"NoteNumber":63,"Velocity":85,"Duration":104986,"SoundDuration":104986,"Delta":137545585},{"NoteNumber":57,"Velocity":85,"Duration":104986,"SoundDuration":104986,"Delta":137545585},{"NoteNumber":48,"Velocity":62,"Duration":105194,"SoundDuration":105194,"Delta":137650572},{"NoteNumber":51,"Velocity":74,"Duration":105194,"SoundDuration":105194,"Delta":137650572},{"NoteNumber":63,"Velocity":82,"Duration":105402,"SoundDuration":105402,"Delta":137755766},{"NoteNumber":57,"Velocity":82,"Duration":105402,"SoundDuration":105402,"Delta":137755766},{"NoteNumber":66,"Velocity":96,"Duration":105402,"SoundDuration":105402,"Delta":137755766},{"NoteNumber":52,"Velocity":90,"Duration":105680,"SoundDuration":105680,"Delta":137861168},{"NoteNumber":49,"Velocity":75,"Duration":105680,"SoundDuration":105680,"Delta":137861168},{"NoteNumber":64,"Velocity":97,"Duration":105819,"SoundDuration":105819,"Delta":137966849},{"NoteNumber":56,"Velocity":82,"Duration":105819,"SoundDuration":105819,"Delta":137966849},{"NoteNumber":61,"Velocity":82,"Duration":105819,"SoundDuration":105819,"Delta":137966849},{"NoteNumber":49,"Velocity":64,"Duration":154439,"SoundDuration":154439,"Delta":138072669},{"NoteNumber":52,"Velocity":75,"Duration":154439,"SoundDuration":154439,"Delta":138072669},{"NoteNumber":57,"Velocity":94,"Duration":1751823,"SoundDuration":1751823,"Delta":138227109},{"NoteNumber":69,"Velocity":111,"Duration":1751823,"SoundDuration":1751823,"Delta":138227109},{"NoteNumber":33,"Velocity":82,"Duration":1751823,"SoundDuration":1751823,"Delta":138227109},{"NoteNumber":45,"Velocity":97,"Duration":1751823,"SoundDuration":1751823,"Delta":138227109},{"NoteNumber":73,"Velocity":107,"Duration":875911,"SoundDuration":875911,"Delta":139103021},{"NoteNumber":66,"Velocity":91,"Duration":875911,"SoundDuration":875911,"Delta":139103021},{"NoteNumber":78,"Velocity":107,"Duration":875911,"SoundDuration":875911,"Delta":139103021},{"NoteNumber":49,"Velocity":75,"Duration":875911,"SoundDuration":875911,"Delta":139103021},{"NoteNumber":54,"Velocity":75,"Duration":875911,"SoundDuration":875911,"Delta":139103021},{"NoteNumber":61,"Velocity":90,"Duration":875911,"SoundDuration":875911,"Delta":139103021},{"NoteNumber":68,"Velocity":113,"Duration":1751823,"SoundDuration":1751823,"Delta":139978933},{"NoteNumber":56,"Velocity":82,"Duration":1751823,"SoundDuration":1751823,"Delta":139978933},{"NoteNumber":32,"Velocity":84,"Duration":1751823,"SoundDuration":1751823,"Delta":139978933},{"NoteNumber":44,"Velocity":93,"Duration":1751823,"SoundDuration":1751823,"Delta":139978933},{"NoteNumber":80,"Velocity":108,"Duration":875911,"SoundDuration":875911,"Delta":140854845},{"NoteNumber":68,"Velocity":77,"Duration":875911,"SoundDuration":875911,"Delta":140854845},{"NoteNumber":72,"Velocity":108,"Duration":875911,"SoundDuration":875911,"Delta":140854845},{"NoteNumber":66,"Velocity":90,"Duration":875911,"SoundDuration":875911,"Delta":140854845},{"NoteNumber":63,"Velocity":78,"Duration":875911,"SoundDuration":875911,"Delta":140854845},{"NoteNumber":60,"Velocity":71,"Duration":875911,"SoundDuration":875911,"Delta":140854845},{"NoteNumber":54,"Velocity":70,"Duration":875911,"SoundDuration":875911,"Delta":140854845},{"NoteNumber":49,"Velocity":82,"Duration":3118485,"SoundDuration":3118485,"Delta":141730757},{"NoteNumber":52,"Velocity":82,"Duration":3118485,"SoundDuration":3118485,"Delta":141730757},{"NoteNumber":56,"Velocity":107,"Duration":3118485,"SoundDuration":3118485,"Delta":141730757},{"NoteNumber":61,"Velocity":111,"Duration":3118485,"SoundDuration":3118485,"Delta":141730757},{"NoteNumber":25,"Velocity":58,"Duration":3118485,"SoundDuration":3118485,"Delta":141730757},{"NoteNumber":28,"Velocity":58,"Duration":3118485,"SoundDuration":3118485,"Delta":141730757},{"NoteNumber":32,"Velocity":78,"Duration":3118485,"SoundDuration":3118485,"Delta":141730757},{"NoteNumber":37,"Velocity":78,"Duration":3118485,"SoundDuration":3118485,"Delta":141730757},{"NoteNumber":85,"Velocity":102,"Duration":768639,"SoundDuration":768639,"Delta":142543324},{"NoteNumber":73,"Velocity":87,"Duration":768639,"SoundDuration":768639,"Delta":142543324},{"NoteNumber":80,"Velocity":102,"Duration":768639,"SoundDuration":768639,"Delta":142543324},{"NoteNumber":76,"Velocity":87,"Duration":768639,"SoundDuration":768639,"Delta":142543324},{"NoteNumber":64,"Velocity":76,"Duration":768639,"SoundDuration":768639,"Delta":142543324},{"NoteNumber":61,"Velocity":76,"Duration":768639,"SoundDuration":768639,"Delta":142543324},{"NoteNumber":56,"Velocity":65,"Duration":768639,"SoundDuration":768639,"Delta":142543324},{"NoteNumber":52,"Velocity":65,"Duration":768639,"SoundDuration":768639,"Delta":142543324},{"NoteNumber":80,"Velocity":91,"Duration":768639,"SoundDuration":768639,"Delta":143311964},{"NoteNumber":76,"Velocity":91,"Duration":768639,"SoundDuration":768639,"Delta":143311964},{"NoteNumber":85,"Velocity":107,"Duration":768639,"SoundDuration":768639,"Delta":143311964},{"NoteNumber":88,"Velocity":107,"Duration":768639,"SoundDuration":768639,"Delta":143311964},{"NoteNumber":68,"Velocity":81,"Duration":768639,"SoundDuration":768639,"Delta":143311964},{"NoteNumber":64,"Velocity":81,"Duration":768639,"SoundDuration":768639,"Delta":143311964},{"NoteNumber":59,"Velocity":67,"Duration":768639,"SoundDuration":768639,"Delta":143311964},{"NoteNumber":56,"Velocity":67,"Duration":768639,"SoundDuration":768639,"Delta":143311964},{"NoteNumber":82,"Velocity":107,"Duration":768639,"SoundDuration":768639,"Delta":144080603},{"NoteNumber":87,"Velocity":107,"Duration":768639,"SoundDuration":768639,"Delta":144080603},{"NoteNumber":79,"Velocity":91,"Duration":768639,"SoundDuration":768639,"Delta":144080603},{"NoteNumber":75,"Velocity":91,"Duration":768639,"SoundDuration":768639,"Delta":144080603},{"NoteNumber":67,"Velocity":79,"Duration":768639,"SoundDuration":768639,"Delta":144080603},{"NoteNumber":63,"Velocity":79,"Duration":768639,"SoundDuration":768639,"Delta":144080603},{"NoteNumber":58,"Velocity":67,"Duration":768639,"SoundDuration":768639,"Delta":144080603},{"NoteNumber":55,"Velocity":67,"Duration":768639,"SoundDuration":768639,"Delta":144080603},{"NoteNumber":57,"Velocity":92,"Duration":1537279,"SoundDuration":1537279,"Delta":144849243},{"NoteNumber":69,"Velocity":108,"Duration":1537279,"SoundDuration":1537279,"Delta":144849243},{"NoteNumber":33,"Velocity":67,"Duration":1537279,"SoundDuration":1537279,"Delta":144849243},{"NoteNumber":45,"Velocity":80,"Duration":1537279,"SoundDuration":1537279,"Delta":144849243},{"NoteNumber":86,"Velocity":102,"Duration":768639,"SoundDuration":768639,"Delta":145617882},{"NoteNumber":74,"Velocity":87,"Duration":768639,"SoundDuration":768639,"Delta":145617882},{"NoteNumber":84,"Velocity":102,"Duration":768639,"SoundDuration":768639,"Delta":145617882},{"NoteNumber":78,"Velocity":87,"Duration":768639,"SoundDuration":768639,"Delta":145617882},{"NoteNumber":66,"Velocity":76,"Duration":768639,"SoundDuration":768639,"Delta":145617882},{"NoteNumber":62,"Velocity":76,"Duration":768639,"SoundDuration":768639,"Delta":145617882},{"NoteNumber":60,"Velocity":65,"Duration":768639,"SoundDuration":768639,"Delta":145617882},{"NoteNumber":54,"Velocity":65,"Duration":768639,"SoundDuration":768639,"Delta":145617882},{"NoteNumber":56,"Velocity":92,"Duration":1537279,"SoundDuration":1537279,"Delta":146386522},{"NoteNumber":68,"Velocity":108,"Duration":1537279,"SoundDuration":1537279,"Delta":146386522},{"NoteNumber":32,"Velocity":67,"Duration":1537279,"SoundDuration":1537279,"Delta":146386522},{"NoteNumber":44,"Velocity":80,"Duration":1537279,"SoundDuration":1537279,"Delta":146386522},{"NoteNumber":84,"Velocity":102,"Duration":768639,"SoundDuration":768639,"Delta":147155161},{"NoteNumber":72,"Velocity":87,"Duration":768639,"SoundDuration":768639,"Delta":147155161},{"NoteNumber":78,"Velocity":102,"Duration":768639,"SoundDuration":768639,"Delta":147155161},{"NoteNumber":75,"Velocity":87,"Duration":768639,"SoundDuration":768639,"Delta":147155161},{"NoteNumber":63,"Velocity":76,"Duration":768639,"SoundDuration":768639,"Delta":147155161},{"NoteNumber":60,"Velocity":76,"Duration":768639,"SoundDuration":768639,"Delta":147155161},{"NoteNumber":54,"Velocity":65,"Duration":768639,"SoundDuration":768639,"Delta":147155161},{"NoteNumber":51,"Velocity":65,"Duration":768639,"SoundDuration":768639,"Delta":147155161},{"NoteNumber":49,"Velocity":79,"Duration":3149622,"SoundDuration":3149622,"Delta":147923801},{"NoteNumber":52,"Velocity":79,"Duration":3149622,"SoundDuration":3149622,"Delta":147923801},{"NoteNumber":56,"Velocity":104,"Duration":3149622,"SoundDuration":3149622,"Delta":147923801},{"NoteNumber":61,"Velocity":108,"Duration":3149622,"SoundDuration":3149622,"Delta":147923801},{"NoteNumber":25,"Velocity":56,"Duration":3149622,"SoundDuration":3149622,"Delta":147923801},{"NoteNumber":28,"Velocity":56,"Duration":3149622,"SoundDuration":3149622,"Delta":147923801},{"NoteNumber":32,"Velocity":76,"Duration":3149622,"SoundDuration":3149622,"Delta":147923801},{"NoteNumber":37,"Velocity":76,"Duration":3149622,"SoundDuration":3149622,"Delta":147923801},{"NoteNumber":76,"Velocity":87,"Duration":779018,"SoundDuration":779018,"Delta":148736368},{"NoteNumber":73,"Velocity":87,"Duration":779018,"SoundDuration":779018,"Delta":148736368},{"NoteNumber":85,"Velocity":102,"Duration":779018,"SoundDuration":779018,"Delta":148736368},{"NoteNumber":80,"Velocity":102,"Duration":779018,"SoundDuration":779018,"Delta":148736368},{"NoteNumber":64,"Velocity":76,"Duration":779018,"SoundDuration":779018,"Delta":148736368},{"NoteNumber":61,"Velocity":76,"Duration":779018,"SoundDuration":779018,"Delta":148736368},{"NoteNumber":56,"Velocity":65,"Duration":779018,"SoundDuration":779018,"Delta":148736368},{"NoteNumber":52,"Velocity":65,"Duration":779018,"SoundDuration":779018,"Delta":148736368},{"NoteNumber":88,"Velocity":107,"Duration":779018,"SoundDuration":779018,"Delta":149515387},{"NoteNumber":76,"Velocity":91,"Duration":779018,"SoundDuration":779018,"Delta":149515387},{"NoteNumber":85,"Velocity":107,"Duration":779018,"SoundDuration":779018,"Delta":149515387},{"NoteNumber":80,"Velocity":91,"Duration":779018,"SoundDuration":779018,"Delta":149515387},{"NoteNumber":68,"Velocity":81,"Duration":779018,"SoundDuration":779018,"Delta":149515387},{"NoteNumber":64,"Velocity":81,"Duration":779018,"SoundDuration":779018,"Delta":149515387},{"NoteNumber":59,"Velocity":67,"Duration":779018,"SoundDuration":779018,"Delta":149515387},{"NoteNumber":56,"Velocity":67,"Duration":779018,"SoundDuration":779018,"Delta":149515387},{"NoteNumber":79,"Velocity":91,"Duration":779018,"SoundDuration":779018,"Delta":150294405},{"NoteNumber":75,"Velocity":91,"Duration":779018,"SoundDuration":779018,"Delta":150294405},{"NoteNumber":87,"Velocity":107,"Duration":779018,"SoundDuration":779018,"Delta":150294405},{"NoteNumber":82,"Velocity":107,"Duration":779018,"SoundDuration":779018,"Delta":150294405},{"NoteNumber":67,"Velocity":79,"Duration":779018,"SoundDuration":779018,"Delta":150294405},{"NoteNumber":63,"Velocity":79,"Duration":779018,"SoundDuration":779018,"Delta":150294405},{"NoteNumber":55,"Velocity":67,"Duration":779018,"SoundDuration":779018,"Delta":150294405},{"NoteNumber":58,"Velocity":67,"Duration":779018,"SoundDuration":779018,"Delta":150294405},{"NoteNumber":57,"Velocity":93,"Duration":1558037,"SoundDuration":1558037,"Delta":151073424},{"NoteNumber":69,"Velocity":110,"Duration":1558037,"SoundDuration":1558037,"Delta":151073424},{"NoteNumber":33,"Velocity":68,"Duration":1558037,"SoundDuration":1558037,"Delta":151073424},{"NoteNumber":45,"Velocity":82,"Duration":1558037,"SoundDuration":1558037,"Delta":151073424},{"NoteNumber":78,"Velocity":87,"Duration":779018,"SoundDuration":779018,"Delta":151852442},{"NoteNumber":86,"Velocity":102,"Duration":779018,"SoundDuration":779018,"Delta":151852442},{"NoteNumber":84,"Velocity":102,"Duration":779018,"SoundDuration":779018,"Delta":151852442},{"NoteNumber":74,"Velocity":87,"Duration":779018,"SoundDuration":779018,"Delta":151852442},{"NoteNumber":66,"Velocity":76,"Duration":779018,"SoundDuration":779018,"Delta":151852442},{"NoteNumber":62,"Velocity":76,"Duration":779018,"SoundDuration":779018,"Delta":151852442},{"NoteNumber":60,"Velocity":65,"Duration":779018,"SoundDuration":779018,"Delta":151852442},{"NoteNumber":54,"Velocity":65,"Duration":779018,"SoundDuration":779018,"Delta":151852442},{"NoteNumber":56,"Velocity":92,"Duration":1558036,"SoundDuration":1558036,"Delta":152631461},{"NoteNumber":68,"Velocity":109,"Duration":1558036,"SoundDuration":1558036,"Delta":152631461},{"NoteNumber":32,"Velocity":67,"Duration":1558036,"SoundDuration":1558036,"Delta":152631461},{"NoteNumber":44,"Velocity":80,"Duration":1558036,"SoundDuration":1558036,"Delta":152631461},{"NoteNumber":75,"Velocity":87,"Duration":779018,"SoundDuration":779018,"Delta":153410479},{"NoteNumber":72,"Velocity":87,"Duration":779018,"SoundDuration":779018,"Delta":153410479},{"NoteNumber":78,"Velocity":102,"Duration":779018,"SoundDuration":779018,"Delta":153410479},{"NoteNumber":84,"Velocity":102,"Duration":779018,"SoundDuration":779018,"Delta":153410479},{"NoteNumber":63,"Velocity":76,"Duration":779018,"SoundDuration":779018,"Delta":153410479},{"NoteNumber":60,"Velocity":76,"Duration":779018,"SoundDuration":779018,"Delta":153410479},{"NoteNumber":54,"Velocity":65,"Duration":779018,"SoundDuration":779018,"Delta":153410479},{"NoteNumber":51,"Velocity":65,"Duration":779018,"SoundDuration":779018,"Delta":153410479},{"NoteNumber":49,"Velocity":93,"Duration":3228329,"SoundDuration":3228329,"Delta":154189498},{"NoteNumber":52,"Velocity":93,"Duration":3228329,"SoundDuration":3228329,"Delta":154189498},{"NoteNumber":56,"Velocity":107,"Duration":3228329,"SoundDuration":3228329,"Delta":154189498},{"NoteNumber":61,"Velocity":110,"Duration":3228329,"SoundDuration":3228329,"Delta":154189498},{"NoteNumber":25,"Velocity":66,"Duration":3228329,"SoundDuration":3228329,"Delta":154189498},{"NoteNumber":28,"Velocity":66,"Duration":3228329,"SoundDuration":3228329,"Delta":154189498},{"NoteNumber":32,"Velocity":77,"Duration":3228329,"SoundDuration":3228329,"Delta":154189498},{"NoteNumber":37,"Velocity":77,"Duration":3228329,"SoundDuration":3228329,"Delta":154189498},{"NoteNumber":76,"Velocity":87,"Duration":812567,"SoundDuration":812567,"Delta":155002065},{"NoteNumber":85,"Velocity":102,"Duration":812567,"SoundDuration":812567,"Delta":155002065},{"NoteNumber":80,"Velocity":102,"Duration":812567,"SoundDuration":812567,"Delta":155002065},{"NoteNumber":73,"Velocity":87,"Duration":812567,"SoundDuration":812567,"Delta":155002065},{"NoteNumber":64,"Velocity":76,"Duration":812567,"SoundDuration":812567,"Delta":155002065},{"NoteNumber":61,"Velocity":76,"Duration":812567,"SoundDuration":812567,"Delta":155002065},{"NoteNumber":56,"Velocity":65,"Duration":812567,"SoundDuration":812567,"Delta":155002065},{"NoteNumber":52,"Velocity":65,"Duration":812567,"SoundDuration":812567,"Delta":155002065},{"NoteNumber":85,"Velocity":107,"Duration":779018,"SoundDuration":779018,"Delta":155814633},{"NoteNumber":80,"Velocity":91,"Duration":779018,"SoundDuration":779018,"Delta":155814633},{"NoteNumber":92,"Velocity":107,"Duration":779018,"SoundDuration":779018,"Delta":155814633},{"NoteNumber":59,"Velocity":67,"Duration":779018,"SoundDuration":779018,"Delta":155814633},{"NoteNumber":71,"Velocity":81,"Duration":779018,"SoundDuration":779018,"Delta":155814633},{"NoteNumber":68,"Velocity":81,"Duration":779018,"SoundDuration":779018,"Delta":155814633},{"NoteNumber":61,"Velocity":67,"Duration":779018,"SoundDuration":779018,"Delta":155814633},{"NoteNumber":78,"Velocity":87,"Duration":824175,"SoundDuration":824175,"Delta":156593651},{"NoteNumber":90,"Velocity":102,"Duration":824175,"SoundDuration":824175,"Delta":156593651},{"NoteNumber":85,"Velocity":102,"Duration":824175,"SoundDuration":824175,"Delta":156593651},{"NoteNumber":57,"Velocity":65,"Duration":824175,"SoundDuration":824175,"Delta":156593651},{"NoteNumber":69,"Velocity":76,"Duration":824175,"SoundDuration":824175,"Delta":156593651},{"NoteNumber":66,"Velocity":76,"Duration":824175,"SoundDuration":824175,"Delta":156593651},{"NoteNumber":61,"Velocity":65,"Duration":824175,"SoundDuration":824175,"Delta":156593651},{"NoteNumber":60,"Velocity":92,"Duration":1558037,"SoundDuration":1558037,"Delta":157417827},{"NoteNumber":72,"Velocity":109,"Duration":1558037,"SoundDuration":1558037,"Delta":157417827},{"NoteNumber":36,"Velocity":67,"Duration":1558037,"SoundDuration":1558037,"Delta":157417827},{"NoteNumber":48,"Velocity":80,"Duration":1558037,"SoundDuration":1558037,"Delta":157417827},{"NoteNumber":78,"Velocity":87,"Duration":779018,"SoundDuration":779018,"Delta":158196846},{"NoteNumber":76,"Velocity":87,"Duration":779018,"SoundDuration":779018,"Delta":158196846},{"NoteNumber":88,"Velocity":102,"Duration":779018,"SoundDuration":779018,"Delta":158196846},{"NoteNumber":81,"Velocity":102,"Duration":779018,"SoundDuration":779018,"Delta":158196846},{"NoteNumber":66,"Velocity":76,"Duration":779018,"SoundDuration":779018,"Delta":158196846},{"NoteNumber":64,"Velocity":76,"Duration":779018,"SoundDuration":779018,"Delta":158196846},{"NoteNumber":57,"Velocity":65,"Duration":779018,"SoundDuration":779018,"Delta":158196846},{"NoteNumber":54,"Velocity":65,"Duration":779018,"SoundDuration":779018,"Delta":158196846},{"NoteNumber":59,"Velocity":91,"Duration":1558036,"SoundDuration":1558036,"Delta":158975864},{"NoteNumber":71,"Velocity":107,"Duration":1558036,"SoundDuration":1558036,"Delta":158975864},{"NoteNumber":35,"Velocity":66,"Duration":1558036,"SoundDuration":1558036,"Delta":158975864},{"NoteNumber":47,"Velocity":79,"Duration":1558036,"SoundDuration":1558036,"Delta":158975864},{"NoteNumber":87,"Velocity":102,"Duration":779018,"SoundDuration":779018,"Delta":159754883},{"NoteNumber":75,"Velocity":87,"Duration":779018,"SoundDuration":779018,"Delta":159754883},{"NoteNumber":81,"Velocity":102,"Duration":779018,"SoundDuration":779018,"Delta":159754883},{"NoteNumber":78,"Velocity":87,"Duration":779018,"SoundDuration":779018,"Delta":159754883},{"NoteNumber":66,"Velocity":76,"Duration":779018,"SoundDuration":779018,"Delta":159754883},{"NoteNumber":63,"Velocity":76,"Duration":779018,"SoundDuration":779018,"Delta":159754883},{"NoteNumber":57,"Velocity":65,"Duration":779018,"SoundDuration":779018,"Delta":159754883},{"NoteNumber":54,"Velocity":65,"Duration":779018,"SoundDuration":779018,"Delta":159754883},{"NoteNumber":52,"Velocity":92,"Duration":3250270,"SoundDuration":3250270,"Delta":160533901},{"NoteNumber":56,"Velocity":92,"Duration":3250270,"SoundDuration":3250270,"Delta":160533901},{"NoteNumber":59,"Velocity":108,"Duration":3250270,"SoundDuration":3250270,"Delta":160533901},{"NoteNumber":64,"Velocity":108,"Duration":3250270,"SoundDuration":3250270,"Delta":160533901},{"NoteNumber":28,"Velocity":65,"Duration":3250270,"SoundDuration":3250270,"Delta":160533901},{"NoteNumber":32,"Velocity":65,"Duration":3250270,"SoundDuration":3250270,"Delta":160533901},{"NoteNumber":35,"Velocity":76,"Duration":3250270,"SoundDuration":3250270,"Delta":160533901},{"NoteNumber":40,"Velocity":76,"Duration":3250270,"SoundDuration":3250270,"Delta":160533901},{"NoteNumber":80,"Velocity":90,"Duration":812567,"SoundDuration":812567,"Delta":161346469},{"NoteNumber":76,"Velocity":90,"Duration":812567,"SoundDuration":812567,"Delta":161346469},{"NoteNumber":88,"Velocity":106,"Duration":812567,"SoundDuration":812567,"Delta":161346469},{"NoteNumber":83,"Velocity":106,"Duration":812567,"SoundDuration":812567,"Delta":161346469},{"NoteNumber":68,"Velocity":79,"Duration":812567,"SoundDuration":812567,"Delta":161346469},{"NoteNumber":64,"Velocity":79,"Duration":812567,"SoundDuration":812567,"Delta":161346469},{"NoteNumber":59,"Velocity":67,"Duration":812567,"SoundDuration":812567,"Delta":161346469},{"NoteNumber":56,"Velocity":67,"Duration":812567,"SoundDuration":812567,"Delta":161346469},{"NoteNumber":83,"Velocity":94,"Duration":812567,"SoundDuration":812567,"Delta":162159036},{"NoteNumber":95,"Velocity":111,"Duration":812567,"SoundDuration":812567,"Delta":162159036},{"NoteNumber":88,"Velocity":111,"Duration":812567,"SoundDuration":812567,"Delta":162159036},{"NoteNumber":63,"Velocity":70,"Duration":812567,"SoundDuration":812567,"Delta":162159036},{"NoteNumber":75,"Velocity":83,"Duration":812567,"SoundDuration":812567,"Delta":162159036},{"NoteNumber":71,"Velocity":83,"Duration":812567,"SoundDuration":812567,"Delta":162159036},{"NoteNumber":64,"Velocity":70,"Duration":812567,"SoundDuration":812567,"Delta":162159036},{"NoteNumber":81,"Velocity":90,"Duration":812567,"SoundDuration":812567,"Delta":162971604},{"NoteNumber":88,"Velocity":106,"Duration":812567,"SoundDuration":812567,"Delta":162971604},{"NoteNumber":93,"Velocity":106,"Duration":812567,"SoundDuration":812567,"Delta":162971604},{"NoteNumber":64,"Velocity":67,"Duration":805796,"SoundDuration":805796,"Delta":162971604},{"NoteNumber":73,"Velocity":79,"Duration":812567,"SoundDuration":812567,"Delta":162971604},{"NoteNumber":69,"Velocity":79,"Duration":812567,"SoundDuration":812567,"Delta":162971604},{"NoteNumber":61,"Velocity":67,"Duration":812567,"SoundDuration":812567,"Delta":162971604},{"NoteNumber":64,"Velocity":92,"Duration":1558037,"SoundDuration":1558037,"Delta":163784171},{"NoteNumber":76,"Velocity":109,"Duration":1558037,"SoundDuration":1558037,"Delta":163784171},{"NoteNumber":40,"Velocity":67,"Duration":1558037,"SoundDuration":1558037,"Delta":163784171},{"NoteNumber":52,"Velocity":80,"Duration":1558037,"SoundDuration":1558037,"Delta":163784171},{"NoteNumber":85,"Velocity":103,"Duration":779018,"SoundDuration":779018,"Delta":164563190},{"NoteNumber":82,"Velocity":88,"Duration":779018,"SoundDuration":779018,"Delta":164563190},{"NoteNumber":92,"Velocity":103,"Duration":779018,"SoundDuration":779018,"Delta":164563190},{"NoteNumber":80,"Velocity":88,"Duration":779018,"SoundDuration":779018,"Delta":164563190},{"NoteNumber":70,"Velocity":77,"Duration":779018,"SoundDuration":779018,"Delta":164563190},{"NoteNumber":68,"Velocity":77,"Duration":779018,"SoundDuration":779018,"Delta":164563190},{"NoteNumber":61,"Velocity":66,"Duration":779018,"SoundDuration":779018,"Delta":164563190},{"NoteNumber":58,"Velocity":66,"Duration":779018,"SoundDuration":779018,"Delta":164563190},{"NoteNumber":63,"Velocity":92,"Duration":1558036,"SoundDuration":1558036,"Delta":165342208},{"NoteNumber":75,"Velocity":109,"Duration":1558036,"SoundDuration":1558036,"Delta":165342208},{"NoteNumber":39,"Velocity":67,"Duration":1558036,"SoundDuration":1558036,"Delta":165342208},{"NoteNumber":51,"Velocity":80,"Duration":1558036,"SoundDuration":1558036,"Delta":165342208},{"NoteNumber":85,"Velocity":102,"Duration":779018,"SoundDuration":779018,"Delta":166121227},{"NoteNumber":91,"Velocity":102,"Duration":779018,"SoundDuration":779018,"Delta":166121227},{"NoteNumber":79,"Velocity":87,"Duration":779018,"SoundDuration":779018,"Delta":166121227},{"NoteNumber":82,"Velocity":87,"Duration":779018,"SoundDuration":779018,"Delta":166121227},{"NoteNumber":70,"Velocity":76,"Duration":779018,"SoundDuration":779018,"Delta":166121227},{"NoteNumber":67,"Velocity":76,"Duration":779018,"SoundDuration":779018,"Delta":166121227},{"NoteNumber":61,"Velocity":65,"Duration":779018,"SoundDuration":779018,"Delta":166121227},{"NoteNumber":58,"Velocity":65,"Duration":779018,"SoundDuration":779018,"Delta":166121227},{"NoteNumber":56,"Velocity":83,"Duration":6314282,"SoundDuration":6314282,"Delta":166900245},{"NoteNumber":59,"Velocity":91,"Duration":6314282,"SoundDuration":6314282,"Delta":166900245},{"NoteNumber":63,"Velocity":107,"Duration":6314282,"SoundDuration":6314282,"Delta":166900245},{"NoteNumber":68,"Velocity":107,"Duration":6314282,"SoundDuration":6314282,"Delta":166900245},{"NoteNumber":32,"Velocity":65,"Duration":6314282,"SoundDuration":6314282,"Delta":166900245},{"NoteNumber":35,"Velocity":65,"Duration":6314282,"SoundDuration":6314282,"Delta":166900245},{"NoteNumber":39,"Velocity":75,"Duration":6314282,"SoundDuration":6314282,"Delta":166900245},{"NoteNumber":44,"Velocity":75,"Duration":6314282,"SoundDuration":6314282,"Delta":166900245},{"NoteNumber":83,"Velocity":85,"Duration":738552,"SoundDuration":738552,"Delta":167679264},{"NoteNumber":80,"Velocity":85,"Duration":738552,"SoundDuration":738552,"Delta":167679264},{"NoteNumber":87,"Velocity":99,"Duration":738552,"SoundDuration":738552,"Delta":167679264},{"NoteNumber":92,"Velocity":99,"Duration":738552,"SoundDuration":738552,"Delta":167679264},{"NoteNumber":59,"Velocity":64,"Duration":738552,"SoundDuration":738552,"Delta":167679264},{"NoteNumber":63,"Velocity":64,"Duration":738552,"SoundDuration":738552,"Delta":167679264},{"NoteNumber":68,"Velocity":75,"Duration":738552,"SoundDuration":738552,"Delta":167679264},{"NoteNumber":71,"Velocity":75,"Duration":738552,"SoundDuration":738552,"Delta":167679264},{"NoteNumber":93,"Velocity":103,"Duration":679534,"SoundDuration":679534,"Delta":168417816},{"NoteNumber":81,"Velocity":88,"Duration":679534,"SoundDuration":679534,"Delta":168417816},{"NoteNumber":85,"Velocity":88,"Duration":679534,"SoundDuration":679534,"Delta":168417816},{"NoteNumber":88,"Velocity":103,"Duration":679534,"SoundDuration":679534,"Delta":168417816},{"NoteNumber":73,"Velocity":78,"Duration":679534,"SoundDuration":679534,"Delta":168417816},{"NoteNumber":69,"Velocity":78,"Duration":679534,"SoundDuration":679534,"Delta":168417816},{"NoteNumber":64,"Velocity":66,"Duration":679534,"SoundDuration":679534,"Delta":168417816},{"NoteNumber":61,"Velocity":66,"Duration":679534,"SoundDuration":679534,"Delta":168417816},{"NoteNumber":85,"Velocity":100,"Duration":685244,"SoundDuration":685244,"Delta":169103061},{"NoteNumber":90,"Velocity":100,"Duration":685244,"SoundDuration":685244,"Delta":169103061},{"NoteNumber":81,"Velocity":85,"Duration":685244,"SoundDuration":685244,"Delta":169103061},{"NoteNumber":78,"Velocity":85,"Duration":685244,"SoundDuration":685244,"Delta":169103061},{"NoteNumber":69,"Velocity":75,"Duration":685244,"SoundDuration":685244,"Delta":169103061},{"NoteNumber":66,"Velocity":75,"Duration":685244,"SoundDuration":685244,"Delta":169103061},{"NoteNumber":61,"Velocity":64,"Duration":685244,"SoundDuration":685244,"Delta":169103061},{"NoteNumber":57,"Velocity":64,"Duration":685244,"SoundDuration":685244,"Delta":169103061},{"NoteNumber":92,"Velocity":103,"Duration":679534,"SoundDuration":679534,"Delta":169788305},{"NoteNumber":80,"Velocity":88,"Duration":679534,"SoundDuration":679534,"Delta":169788305},{"NoteNumber":87,"Velocity":103,"Duration":679534,"SoundDuration":679534,"Delta":169788305},{"NoteNumber":83,"Velocity":88,"Duration":679534,"SoundDuration":679534,"Delta":169788305},{"NoteNumber":71,"Velocity":78,"Duration":679534,"SoundDuration":679534,"Delta":169788305},{"NoteNumber":68,"Velocity":78,"Duration":679534,"SoundDuration":679534,"Delta":169788305},{"NoteNumber":63,"Velocity":66,"Duration":679534,"SoundDuration":679534,"Delta":169788305},{"NoteNumber":59,"Velocity":66,"Duration":679534,"SoundDuration":679534,"Delta":169788305},{"NoteNumber":88,"Velocity":100,"Duration":685244,"SoundDuration":685244,"Delta":170473550},{"NoteNumber":76,"Velocity":85,"Duration":685244,"SoundDuration":685244,"Delta":170473550},{"NoteNumber":83,"Velocity":100,"Duration":685244,"SoundDuration":685244,"Delta":170473550},{"NoteNumber":80,"Velocity":85,"Duration":685244,"SoundDuration":685244,"Delta":170473550},{"NoteNumber":68,"Velocity":75,"Duration":685244,"SoundDuration":685244,"Delta":170473550},{"NoteNumber":64,"Velocity":75,"Duration":685244,"SoundDuration":685244,"Delta":170473550},{"NoteNumber":59,"Velocity":64,"Duration":685244,"SoundDuration":685244,"Delta":170473550},{"NoteNumber":56,"Velocity":64,"Duration":685244,"SoundDuration":685244,"Delta":170473550},{"NoteNumber":81,"Velocity":88,"Duration":679534,"SoundDuration":679534,"Delta":171158794},{"NoteNumber":78,"Velocity":88,"Duration":679534,"SoundDuration":679534,"Delta":171158794},{"NoteNumber":90,"Velocity":103,"Duration":679534,"SoundDuration":679534,"Delta":171158794},{"NoteNumber":85,"Velocity":103,"Duration":679534,"SoundDuration":679534,"Delta":171158794},{"NoteNumber":69,"Velocity":78,"Duration":679534,"SoundDuration":679534,"Delta":171158794},{"NoteNumber":66,"Velocity":78,"Duration":679534,"SoundDuration":679534,"Delta":171158794},{"NoteNumber":61,"Velocity":66,"Duration":679534,"SoundDuration":679534,"Delta":171158794},{"NoteNumber":57,"Velocity":66,"Duration":679534,"SoundDuration":679534,"Delta":171158794},{"NoteNumber":87,"Velocity":100,"Duration":685244,"SoundDuration":685244,"Delta":171844039},{"NoteNumber":75,"Velocity":85,"Duration":685244,"SoundDuration":685244,"Delta":171844039},{"NoteNumber":81,"Velocity":100,"Duration":685244,"SoundDuration":685244,"Delta":171844039},{"NoteNumber":78,"Velocity":85,"Duration":685244,"SoundDuration":685244,"Delta":171844039},{"NoteNumber":66,"Velocity":75,"Duration":685244,"SoundDuration":685244,"Delta":171844039},{"NoteNumber":63,"Velocity":75,"Duration":685244,"SoundDuration":685244,"Delta":171844039},{"NoteNumber":57,"Velocity":64,"Duration":685244,"SoundDuration":685244,"Delta":171844039},{"NoteNumber":54,"Velocity":64,"Duration":685244,"SoundDuration":685244,"Delta":171844039},{"NoteNumber":80,"Velocity":87,"Duration":659547,"SoundDuration":659547,"Delta":172529283},{"NoteNumber":76,"Velocity":87,"Duration":659547,"SoundDuration":659547,"Delta":172529283},{"NoteNumber":88,"Velocity":103,"Duration":659547,"SoundDuration":659547,"Delta":172529283},{"NoteNumber":83,"Velocity":103,"Duration":659547,"SoundDuration":659547,"Delta":172529283},{"NoteNumber":68,"Velocity":77,"Duration":659547,"SoundDuration":659547,"Delta":172529283},{"NoteNumber":64,"Velocity":77,"Duration":659547,"SoundDuration":659547,"Delta":172529283},{"NoteNumber":59,"Velocity":66,"Duration":659547,"SoundDuration":659547,"Delta":172529283},{"NoteNumber":56,"Velocity":66,"Duration":659547,"SoundDuration":659547,"Delta":172529283},{"NoteNumber":80,"Velocity":85,"Duration":685244,"SoundDuration":685244,"Delta":173214528},{"NoteNumber":88,"Velocity":100,"Duration":685244,"SoundDuration":685244,"Delta":173214528},{"NoteNumber":83,"Velocity":100,"Duration":685244,"SoundDuration":685244,"Delta":173214528},{"NoteNumber":76,"Velocity":85,"Duration":685244,"SoundDuration":685244,"Delta":173214528},{"NoteNumber":68,"Velocity":75,"Duration":685244,"SoundDuration":685244,"Delta":173214528},{"NoteNumber":64,"Velocity":75,"Duration":685244,"SoundDuration":685244,"Delta":173214528},{"NoteNumber":59,"Velocity":64,"Duration":685244,"SoundDuration":685244,"Delta":173214528},{"NoteNumber":56,"Velocity":64,"Duration":685244,"SoundDuration":685244,"Delta":173214528},{"NoteNumber":81,"Velocity":87,"Duration":679534,"SoundDuration":679534,"Delta":173899772},{"NoteNumber":78,"Velocity":87,"Duration":679534,"SoundDuration":679534,"Delta":173899772},{"NoteNumber":85,"Velocity":103,"Duration":679534,"SoundDuration":679534,"Delta":173899772},{"NoteNumber":90,"Velocity":103,"Duration":679534,"SoundDuration":679534,"Delta":173899772},{"NoteNumber":69,"Velocity":77,"Duration":679534,"SoundDuration":679534,"Delta":173899772},{"NoteNumber":66,"Velocity":77,"Duration":679534,"SoundDuration":679534,"Delta":173899772},{"NoteNumber":61,"Velocity":66,"Duration":679534,"SoundDuration":679534,"Delta":173899772},{"NoteNumber":57,"Velocity":66,"Duration":679534,"SoundDuration":679534,"Delta":173899772},{"NoteNumber":78,"Velocity":85,"Duration":685244,"SoundDuration":685244,"Delta":174585017},{"NoteNumber":87,"Velocity":100,"Duration":685244,"SoundDuration":685244,"Delta":174585017},{"NoteNumber":81,"Velocity":100,"Duration":685244,"SoundDuration":685244,"Delta":174585017},{"NoteNumber":75,"Velocity":85,"Duration":685244,"SoundDuration":685244,"Delta":174585017},{"NoteNumber":66,"Velocity":75,"Duration":685244,"SoundDuration":685244,"Delta":174585017},{"NoteNumber":63,"Velocity":75,"Duration":685244,"SoundDuration":685244,"Delta":174585017},{"NoteNumber":57,"Velocity":64,"Duration":685244,"SoundDuration":685244,"Delta":174585017},{"NoteNumber":54,"Velocity":64,"Duration":685244,"SoundDuration":685244,"Delta":174585017},{"NoteNumber":83,"Velocity":103,"Duration":679534,"SoundDuration":679534,"Delta":175270261},{"NoteNumber":80,"Velocity":88,"Duration":679534,"SoundDuration":679534,"Delta":175270261},{"NoteNumber":88,"Velocity":103,"Duration":679534,"SoundDuration":679534,"Delta":175270261},{"NoteNumber":76,"Velocity":88,"Duration":679534,"SoundDuration":679534,"Delta":175270261},{"NoteNumber":68,"Velocity":78,"Duration":679534,"SoundDuration":679534,"Delta":175270261},{"NoteNumber":64,"Velocity":78,"Duration":679534,"SoundDuration":679534,"Delta":175270261},{"NoteNumber":59,"Velocity":66,"Duration":679534,"SoundDuration":679534,"Delta":175270261},{"NoteNumber":56,"Velocity":66,"Duration":679534,"SoundDuration":679534,"Delta":175270261},{"NoteNumber":80,"Velocity":100,"Duration":685244,"SoundDuration":685244,"Delta":175955506},{"NoteNumber":85,"Velocity":100,"Duration":685244,"SoundDuration":685244,"Delta":175955506},{"NoteNumber":73,"Velocity":85,"Duration":685244,"SoundDuration":685244,"Delta":175955506},{"NoteNumber":76,"Velocity":85,"Duration":685244,"SoundDuration":685244,"Delta":175955506},{"NoteNumber":64,"Velocity":75,"Duration":685244,"SoundDuration":685244,"Delta":175955506},{"NoteNumber":61,"Velocity":75,"Duration":685244,"SoundDuration":685244,"Delta":175955506},{"NoteNumber":56,"Velocity":64,"Duration":685244,"SoundDuration":685244,"Delta":175955506},{"NoteNumber":52,"Velocity":64,"Duration":685244,"SoundDuration":685244,"Delta":175955506},{"NoteNumber":78,"Velocity":86,"Duration":679534,"SoundDuration":679534,"Delta":176640750},{"NoteNumber":75,"Velocity":86,"Duration":679534,"SoundDuration":679534,"Delta":176640750},{"NoteNumber":81,"Velocity":102,"Duration":679534,"SoundDuration":679534,"Delta":176640750},{"NoteNumber":87,"Velocity":102,"Duration":679534,"SoundDuration":679534,"Delta":176640750},{"NoteNumber":66,"Velocity":76,"Duration":679534,"SoundDuration":679534,"Delta":176640750},{"NoteNumber":63,"Velocity":76,"Duration":679534,"SoundDuration":679534,"Delta":176640750},{"NoteNumber":57,"Velocity":66,"Duration":679534,"SoundDuration":679534,"Delta":176640750},{"NoteNumber":54,"Velocity":66,"Duration":679534,"SoundDuration":679534,"Delta":176640750},{"NoteNumber":75,"Velocity":85,"Duration":722843,"SoundDuration":722843,"Delta":177325995},{"NoteNumber":84,"Velocity":100,"Duration":722843,"SoundDuration":722843,"Delta":177325995},{"NoteNumber":78,"Velocity":100,"Duration":722843,"SoundDuration":722843,"Delta":177325995},{"NoteNumber":72,"Velocity":85,"Duration":722843,"SoundDuration":722843,"Delta":177325995},{"NoteNumber":63,"Velocity":75,"Duration":722843,"SoundDuration":722843,"Delta":177325995},{"NoteNumber":60,"Velocity":75,"Duration":722843,"SoundDuration":722843,"Delta":177325995},{"NoteNumber":54,"Velocity":64,"Duration":722843,"SoundDuration":722843,"Delta":177325995},{"NoteNumber":51,"Velocity":64,"Duration":722843,"SoundDuration":722843,"Delta":177325995},{"NoteNumber":49,"Velocity":89,"Duration":3099915,"SoundDuration":3099915,"Delta":177710315},{"NoteNumber":61,"Velocity":111,"Duration":3099915,"SoundDuration":3099915,"Delta":177710315},{"NoteNumber":25,"Velocity":68,"Duration":3099915,"SoundDuration":3099915,"Delta":177710315},{"NoteNumber":37,"Velocity":94,"Duration":3099915,"SoundDuration":3099915,"Delta":177710315},{"NoteNumber":73,"Velocity":86,"Duration":643195,"SoundDuration":643195,"Delta":178048839},{"NoteNumber":76,"Velocity":86,"Duration":643195,"SoundDuration":643195,"Delta":178048839},{"NoteNumber":80,"Velocity":101,"Duration":643195,"SoundDuration":643195,"Delta":178048839},{"NoteNumber":85,"Velocity":101,"Duration":643195,"SoundDuration":643195,"Delta":178048839},{"NoteNumber":52,"Velocity":65,"Duration":643195,"SoundDuration":643195,"Delta":178048839},{"NoteNumber":56,"Velocity":65,"Duration":643195,"SoundDuration":643195,"Delta":178048839},{"NoteNumber":61,"Velocity":76,"Duration":643195,"SoundDuration":643195,"Delta":178048839},{"NoteNumber":64,"Velocity":76,"Duration":643195,"SoundDuration":643195,"Delta":178048839},{"NoteNumber":80,"Velocity":101,"Duration":680177,"SoundDuration":680177,"Delta":178725887},{"NoteNumber":76,"Velocity":86,"Duration":680177,"SoundDuration":680177,"Delta":178725887},{"NoteNumber":85,"Velocity":101,"Duration":680177,"SoundDuration":680177,"Delta":178725887},{"NoteNumber":73,"Velocity":86,"Duration":680177,"SoundDuration":680177,"Delta":178725887},{"NoteNumber":64,"Velocity":76,"Duration":680177,"SoundDuration":680177,"Delta":178725887},{"NoteNumber":61,"Velocity":76,"Duration":680177,"SoundDuration":680177,"Delta":178725887},{"NoteNumber":56,"Velocity":65,"Duration":680177,"SoundDuration":680177,"Delta":178725887},{"NoteNumber":52,"Velocity":65,"Duration":680177,"SoundDuration":680177,"Delta":178725887},{"NoteNumber":85,"Velocity":106,"Duration":702083,"SoundDuration":702083,"Delta":179406064},{"NoteNumber":88,"Velocity":106,"Duration":702083,"SoundDuration":702083,"Delta":179406064},{"NoteNumber":76,"Velocity":90,"Duration":702083,"SoundDuration":702083,"Delta":179406064},{"NoteNumber":80,"Velocity":90,"Duration":702083,"SoundDuration":702083,"Delta":179406064},{"NoteNumber":68,"Velocity":80,"Duration":702083,"SoundDuration":702083,"Delta":179406064},{"NoteNumber":64,"Velocity":80,"Duration":702083,"SoundDuration":702083,"Delta":179406064},{"NoteNumber":59,"Velocity":67,"Duration":702083,"SoundDuration":702083,"Delta":179406064},{"NoteNumber":56,"Velocity":67,"Duration":702083,"SoundDuration":702083,"Delta":179406064},{"NoteNumber":82,"Velocity":106,"Duration":702082,"SoundDuration":702082,"Delta":180108147},{"NoteNumber":79,"Velocity":90,"Duration":702082,"SoundDuration":702082,"Delta":180108147},{"NoteNumber":87,"Velocity":106,"Duration":702082,"SoundDuration":702082,"Delta":180108147},{"NoteNumber":75,"Velocity":90,"Duration":702082,"SoundDuration":702082,"Delta":180108147},{"NoteNumber":67,"Velocity":79,"Duration":702082,"SoundDuration":702082,"Delta":180108147},{"NoteNumber":63,"Velocity":79,"Duration":702082,"SoundDuration":702082,"Delta":180108147},{"NoteNumber":55,"Velocity":67,"Duration":702082,"SoundDuration":702082,"Delta":180108147},{"NoteNumber":58,"Velocity":67,"Duration":702082,"SoundDuration":702082,"Delta":180108147},{"NoteNumber":57,"Velocity":92,"Duration":1477104,"SoundDuration":1477104,"Delta":180810230},{"NoteNumber":69,"Velocity":109,"Duration":1477104,"SoundDuration":1477104,"Delta":180810230},{"NoteNumber":33,"Velocity":68,"Duration":1477104,"SoundDuration":1477104,"Delta":180810230},{"NoteNumber":45,"Velocity":81,"Duration":1477104,"SoundDuration":1477104,"Delta":180810230},{"NoteNumber":84,"Velocity":101,"Duration":738552,"SoundDuration":738552,"Delta":181548783},{"NoteNumber":86,"Velocity":101,"Duration":738552,"SoundDuration":738552,"Delta":181548783},{"NoteNumber":74,"Velocity":86,"Duration":738552,"SoundDuration":738552,"Delta":181548783},{"NoteNumber":78,"Velocity":86,"Duration":738552,"SoundDuration":738552,"Delta":181548783},{"NoteNumber":66,"Velocity":76,"Duration":738552,"SoundDuration":738552,"Delta":181548783},{"NoteNumber":62,"Velocity":76,"Duration":738552,"SoundDuration":738552,"Delta":181548783},{"NoteNumber":60,"Velocity":65,"Duration":738552,"SoundDuration":738552,"Delta":181548783},{"NoteNumber":54,"Velocity":65,"Duration":738552,"SoundDuration":738552,"Delta":181548783},{"NoteNumber":56,"Velocity":91,"Duration":1477104,"SoundDuration":1477104,"Delta":182287335},{"NoteNumber":68,"Velocity":108,"Duration":1477104,"SoundDuration":1477104,"Delta":182287335},{"NoteNumber":32,"Velocity":67,"Duration":1477104,"SoundDuration":1477104,"Delta":182287335},{"NoteNumber":44,"Velocity":79,"Duration":1477104,"SoundDuration":1477104,"Delta":182287335},{"NoteNumber":78,"Velocity":101,"Duration":738552,"SoundDuration":738552,"Delta":183025888},{"NoteNumber":84,"Velocity":101,"Duration":738552,"SoundDuration":738552,"Delta":183025888},{"NoteNumber":75,"Velocity":86,"Duration":738552,"SoundDuration":738552,"Delta":183025888},{"NoteNumber":72,"Velocity":86,"Duration":738552,"SoundDuration":738552,"Delta":183025888},{"NoteNumber":63,"Velocity":76,"Duration":738552,"SoundDuration":738552,"Delta":183025888},{"NoteNumber":60,"Velocity":76,"Duration":738552,"SoundDuration":738552,"Delta":183025888},{"NoteNumber":51,"Velocity":65,"Duration":738552,"SoundDuration":738552,"Delta":183025888},{"NoteNumber":54,"Velocity":65,"Duration":738552,"SoundDuration":738552,"Delta":183025888},{"NoteNumber":49,"Velocity":89,"Duration":3159558,"SoundDuration":3159558,"Delta":183764440},{"NoteNumber":52,"Velocity":89,"Duration":3159558,"SoundDuration":3159558,"Delta":183764440},{"NoteNumber":56,"Velocity":101,"Duration":3159558,"SoundDuration":3159558,"Delta":183764440},{"NoteNumber":61,"Velocity":105,"Duration":3159558,"SoundDuration":3159558,"Delta":183764440},{"NoteNumber":25,"Velocity":66,"Duration":3159558,"SoundDuration":3159558,"Delta":183764440},{"NoteNumber":28,"Velocity":66,"Duration":3159558,"SoundDuration":3159558,"Delta":183764440},{"NoteNumber":32,"Velocity":77,"Duration":3159558,"SoundDuration":3159558,"Delta":183764440},{"NoteNumber":37,"Velocity":77,"Duration":3159558,"SoundDuration":3159558,"Delta":183764440},{"NoteNumber":85,"Velocity":101,"Duration":789889,"SoundDuration":789889,"Delta":184554330},{"NoteNumber":73,"Velocity":86,"Duration":789889,"SoundDuration":789889,"Delta":184554330},{"NoteNumber":76,"Velocity":86,"Duration":789889,"SoundDuration":789889,"Delta":184554330},{"NoteNumber":80,"Velocity":101,"Duration":789889,"SoundDuration":789889,"Delta":184554330},{"NoteNumber":64,"Velocity":76,"Duration":789889,"SoundDuration":789889,"Delta":184554330},{"NoteNumber":61,"Velocity":76,"Duration":789889,"SoundDuration":789889,"Delta":184554330},{"NoteNumber":56,"Velocity":65,"Duration":789889,"SoundDuration":789889,"Delta":184554330},{"NoteNumber":52,"Velocity":65,"Duration":789889,"SoundDuration":789889,"Delta":184554330},{"NoteNumber":85,"Velocity":106,"Duration":789889,"SoundDuration":789889,"Delta":185344219},{"NoteNumber":92,"Velocity":106,"Duration":789889,"SoundDuration":789889,"Delta":185344219},{"NoteNumber":80,"Velocity":90,"Duration":789889,"SoundDuration":789889,"Delta":185344219},{"NoteNumber":59,"Velocity":67,"Duration":789889,"SoundDuration":789889,"Delta":185344219},{"NoteNumber":71,"Velocity":80,"Duration":789889,"SoundDuration":789889,"Delta":185344219},{"NoteNumber":68,"Velocity":80,"Duration":789889,"SoundDuration":789889,"Delta":185344219},{"NoteNumber":61,"Velocity":67,"Duration":789889,"SoundDuration":789889,"Delta":185344219},{"NoteNumber":85,"Velocity":101,"Duration":789889,"SoundDuration":789889,"Delta":186134109},{"NoteNumber":90,"Velocity":101,"Duration":789889,"SoundDuration":789889,"Delta":186134109},{"NoteNumber":78,"Velocity":86,"Duration":789889,"SoundDuration":789889,"Delta":186134109},{"NoteNumber":57,"Velocity":65,"Duration":783307,"SoundDuration":783307,"Delta":186134109},{"NoteNumber":69,"Velocity":76,"Duration":783307,"SoundDuration":783307,"Delta":186134109},{"NoteNumber":66,"Velocity":76,"Duration":789889,"SoundDuration":789889,"Delta":186134109},{"NoteNumber":61,"Velocity":65,"Duration":789889,"SoundDuration":789889,"Delta":186134109},{"NoteNumber":57,"Velocity":91,"Duration":1579779,"SoundDuration":1579779,"Delta":186923998},{"NoteNumber":69,"Velocity":108,"Duration":1579779,"SoundDuration":1579779,"Delta":186923998},{"NoteNumber":33,"Velocity":67,"Duration":1579779,"SoundDuration":1579779,"Delta":186923998},{"NoteNumber":45,"Velocity":79,"Duration":1579779,"SoundDuration":1579779,"Delta":186923998},{"NoteNumber":84,"Velocity":101,"Duration":789889,"SoundDuration":789889,"Delta":187713888},{"NoteNumber":78,"Velocity":86,"Duration":789889,"SoundDuration":789889,"Delta":187713888},{"NoteNumber":88,"Velocity":101,"Duration":789889,"SoundDuration":789889,"Delta":187713888},{"NoteNumber":76,"Velocity":86,"Duration":789889,"SoundDuration":789889,"Delta":187713888},{"NoteNumber":66,"Velocity":76,"Duration":789889,"SoundDuration":789889,"Delta":187713888},{"NoteNumber":64,"Velocity":76,"Duration":789889,"SoundDuration":789889,"Delta":187713888},{"NoteNumber":60,"Velocity":65,"Duration":789889,"SoundDuration":789889,"Delta":187713888},{"NoteNumber":54,"Velocity":65,"Duration":789889,"SoundDuration":789889,"Delta":187713888},{"NoteNumber":56,"Velocity":90,"Duration":1184834,"SoundDuration":1184834,"Delta":188503777},{"NoteNumber":68,"Velocity":106,"Duration":1184834,"SoundDuration":1184834,"Delta":188503777},{"NoteNumber":32,"Velocity":66,"Duration":1184834,"SoundDuration":1184834,"Delta":188503777},{"NoteNumber":44,"Velocity":78,"Duration":1184834,"SoundDuration":1184834,"Delta":188503777},{"NoteNumber":78,"Velocity":101,"Duration":789889,"SoundDuration":789889,"Delta":189293667},{"NoteNumber":84,"Velocity":101,"Duration":789889,"SoundDuration":789889,"Delta":189293667},{"NoteNumber":72,"Velocity":86,"Duration":789889,"SoundDuration":789889,"Delta":189293667},{"NoteNumber":75,"Velocity":86,"Duration":789889,"SoundDuration":789889,"Delta":189293667},{"NoteNumber":63,"Velocity":76,"Duration":789889,"SoundDuration":789889,"Delta":189293667},{"NoteNumber":60,"Velocity":76,"Duration":789889,"SoundDuration":789889,"Delta":189293667},{"NoteNumber":54,"Velocity":65,"Duration":789889,"SoundDuration":789889,"Delta":189293667},{"NoteNumber":51,"Velocity":65,"Duration":789889,"SoundDuration":789889,"Delta":189293667},{"NoteNumber":49,"Velocity":85,"Duration":4028436,"SoundDuration":4028436,"Delta":189688611},{"NoteNumber":61,"Velocity":105,"Duration":4028436,"SoundDuration":4028436,"Delta":189688611},{"NoteNumber":25,"Velocity":63,"Duration":4028436,"SoundDuration":4028436,"Delta":189688611},{"NoteNumber":37,"Velocity":82,"Duration":4028436,"SoundDuration":4028436,"Delta":189688611},{"NoteNumber":76,"Velocity":87,"Duration":750395,"SoundDuration":750395,"Delta":190083556},{"NoteNumber":80,"Velocity":103,"Duration":750395,"SoundDuration":750395,"Delta":190083556},{"NoteNumber":73,"Velocity":87,"Duration":750395,"SoundDuration":750395,"Delta":190083556},{"NoteNumber":85,"Velocity":103,"Duration":750395,"SoundDuration":750395,"Delta":190083556},{"NoteNumber":52,"Velocity":65,"Duration":750395,"SoundDuration":750395,"Delta":190083556},{"NoteNumber":56,"Velocity":65,"Duration":750395,"SoundDuration":750395,"Delta":190083556},{"NoteNumber":61,"Velocity":77,"Duration":750395,"SoundDuration":750395,"Delta":190083556},{"NoteNumber":64,"Velocity":77,"Duration":750395,"SoundDuration":750395,"Delta":190083556},{"NoteNumber":68,"Velocity":64,"Duration":740521,"SoundDuration":740521,"Delta":190873446},{"NoteNumber":61,"Velocity":64,"Duration":740521,"SoundDuration":740521,"Delta":190873446},{"NoteNumber":73,"Velocity":75,"Duration":740521,"SoundDuration":740521,"Delta":190873446},{"NoteNumber":64,"Velocity":65,"Duration":740521,"SoundDuration":740521,"Delta":190873446},{"NoteNumber":56,"Velocity":54,"Duration":740521,"SoundDuration":740521,"Delta":190873446},{"NoteNumber":52,"Velocity":54,"Duration":740521,"SoundDuration":740521,"Delta":190873446},{"NoteNumber":69,"Velocity":77,"Duration":704976,"SoundDuration":704976,"Delta":191584346},{"NoteNumber":74,"Velocity":77,"Duration":704976,"SoundDuration":704976,"Delta":191584346},{"NoteNumber":62,"Velocity":67,"Duration":704976,"SoundDuration":704976,"Delta":191584346},{"NoteNumber":66,"Velocity":67,"Duration":704976,"SoundDuration":704976,"Delta":191584346},{"NoteNumber":57,"Velocity":67,"Duration":704976,"SoundDuration":704976,"Delta":191584346},{"NoteNumber":54,"Velocity":55,"Duration":704976,"SoundDuration":704976,"Delta":191584346},{"NoteNumber":71,"Velocity":71,"Duration":740521,"SoundDuration":740521,"Delta":192295247},{"NoteNumber":59,"Velocity":60,"Duration":740521,"SoundDuration":740521,"Delta":192295247},{"NoteNumber":66,"Velocity":60,"Duration":740521,"SoundDuration":740521,"Delta":192295247},{"NoteNumber":62,"Velocity":61,"Duration":740521,"SoundDuration":740521,"Delta":192295247},{"NoteNumber":54,"Velocity":52,"Duration":740521,"SoundDuration":740521,"Delta":192295247},{"NoteNumber":50,"Velocity":52,"Duration":740521,"SoundDuration":740521,"Delta":192295247},{"NoteNumber":73,"Velocity":74,"Duration":704976,"SoundDuration":704976,"Delta":193006147},{"NoteNumber":68,"Velocity":63,"Duration":704976,"SoundDuration":704976,"Delta":193006147},{"NoteNumber":61,"Velocity":63,"Duration":704976,"SoundDuration":704976,"Delta":193006147},{"NoteNumber":64,"Velocity":62,"Duration":704976,"SoundDuration":704976,"Delta":193006147},{"NoteNumber":56,"Velocity":52,"Duration":704976,"SoundDuration":704976,"Delta":193006147},{"NoteNumber":52,"Velocity":52,"Duration":704976,"SoundDuration":704976,"Delta":193006147},{"NoteNumber":64,"Velocity":50,"Duration":765479,"SoundDuration":765479,"Delta":193717048},{"NoteNumber":69,"Velocity":59,"Duration":765479,"SoundDuration":765479,"Delta":193717048},{"NoteNumber":57,"Velocity":50,"Duration":765479,"SoundDuration":765479,"Delta":193717048},{"NoteNumber":61,"Velocity":51,"Duration":765479,"SoundDuration":765479,"Delta":193717048},{"NoteNumber":52,"Velocity":43,"Duration":765479,"SoundDuration":765479,"Delta":193717048},{"NoteNumber":49,"Velocity":43,"Duration":765479,"SoundDuration":765479,"Delta":193717048},{"NoteNumber":71,"Velocity":57,"Duration":750372,"SoundDuration":750372,"Delta":194451754},{"NoteNumber":59,"Velocity":47,"Duration":750372,"SoundDuration":750372,"Delta":194451754},{"NoteNumber":66,"Velocity":47,"Duration":750372,"SoundDuration":750372,"Delta":194451754},{"NoteNumber":62,"Velocity":46,"Duration":750372,"SoundDuration":750372,"Delta":194451754},{"NoteNumber":54,"Velocity":39,"Duration":750372,"SoundDuration":750372,"Delta":194451754},{"NoteNumber":50,"Velocity":39,"Duration":750372,"SoundDuration":750372,"Delta":194451754},{"NoteNumber":68,"Velocity":39,"Duration":845755,"SoundDuration":845755,"Delta":195208619},{"NoteNumber":56,"Velocity":39,"Duration":845755,"SoundDuration":845755,"Delta":195208619},{"NoteNumber":62,"Velocity":39,"Duration":845755,"SoundDuration":845755,"Delta":195208619},{"NoteNumber":59,"Velocity":40,"Duration":845755,"SoundDuration":845755,"Delta":195208619},{"NoteNumber":50,"Velocity":33,"Duration":845755,"SoundDuration":845755,"Delta":195208619},{"NoteNumber":47,"Velocity":33,"Duration":845755,"SoundDuration":845755,"Delta":195208619},{"NoteNumber":57,"Velocity":34,"Duration":872539,"SoundDuration":872539,"Delta":196017609},{"NoteNumber":66,"Velocity":34,"Duration":872539,"SoundDuration":872539,"Delta":196017609},{"NoteNumber":69,"Velocity":40,"Duration":872539,"SoundDuration":872539,"Delta":196017609},{"NoteNumber":49,"Velocity":31,"Duration":872539,"SoundDuration":872539,"Delta":196017609},{"NoteNumber":54,"Velocity":31,"Duration":872539,"SoundDuration":872539,"Delta":196017609},{"NoteNumber":61,"Velocity":38,"Duration":872539,"SoundDuration":872539,"Delta":196017609},{"NoteNumber":57,"Velocity":29,"Duration":909090,"SoundDuration":909090,"Delta":196936303},{"NoteNumber":69,"Velocity":35,"Duration":909090,"SoundDuration":909090,"Delta":196936303},{"NoteNumber":66,"Velocity":29,"Duration":909090,"SoundDuration":909090,"Delta":196936303},{"NoteNumber":61,"Velocity":31,"Duration":909090,"SoundDuration":909090,"Delta":196936303},{"NoteNumber":54,"Velocity":26,"Duration":909090,"SoundDuration":909090,"Delta":196936303},{"NoteNumber":49,"Velocity":26,"Duration":909090,"SoundDuration":909090,"Delta":196936303},{"NoteNumber":66,"Velocity":29,"Duration":909091,"SoundDuration":909091,"Delta":197845394},{"NoteNumber":73,"Velocity":35,"Duration":909091,"SoundDuration":909091,"Delta":197845394},{"NoteNumber":61,"Velocity":29,"Duration":909091,"SoundDuration":909091,"Delta":197845394},{"NoteNumber":64,"Velocity":31,"Duration":909091,"SoundDuration":909091,"Delta":197845394},{"NoteNumber":54,"Velocity":26,"Duration":909091,"SoundDuration":909091,"Delta":197845394},{"NoteNumber":52,"Velocity":26,"Duration":909091,"SoundDuration":909091,"Delta":197845394},{"NoteNumber":71,"Velocity":35,"Duration":909090,"SoundDuration":909090,"Delta":198754485},{"NoteNumber":59,"Velocity":29,"Duration":909090,"SoundDuration":909090,"Delta":198754485},{"NoteNumber":66,"Velocity":29,"Duration":909090,"SoundDuration":909090,"Delta":198754485},{"NoteNumber":62,"Velocity":31,"Duration":909090,"SoundDuration":909090,"Delta":198754485},{"NoteNumber":54,"Velocity":26,"Duration":909090,"SoundDuration":909090,"Delta":198754485},{"NoteNumber":50,"Velocity":26,"Duration":909090,"SoundDuration":909090,"Delta":198754485},{"NoteNumber":55,"Velocity":72,"Duration":1904762,"SoundDuration":1904762,"Delta":199663576},{"NoteNumber":31,"Velocity":48,"Duration":1904762,"SoundDuration":1904762,"Delta":199663576},{"NoteNumber":43,"Velocity":57,"Duration":1904762,"SoundDuration":1904762,"Delta":199663576},{"NoteNumber":64,"Velocity":30,"Duration":952381,"SoundDuration":952381,"Delta":200615957},{"NoteNumber":69,"Velocity":36,"Duration":952381,"SoundDuration":952381,"Delta":200615957},{"NoteNumber":57,"Velocity":30,"Duration":952381,"SoundDuration":952381,"Delta":200615957},{"NoteNumber":61,"Velocity":34,"Duration":952381,"SoundDuration":952381,"Delta":200615957},{"NoteNumber":52,"Velocity":28,"Duration":952381,"SoundDuration":952381,"Delta":200615957},{"NoteNumber":56,"Velocity":67,"Duration":1904762,"SoundDuration":1904762,"Delta":201568338},{"NoteNumber":32,"Velocity":49,"Duration":1904762,"SoundDuration":1904762,"Delta":201568338},{"NoteNumber":44,"Velocity":58,"Duration":1904762,"SoundDuration":1904762,"Delta":201568338},{"NoteNumber":63,"Velocity":30,"Duration":952381,"SoundDuration":952381,"Delta":202520719},{"NoteNumber":56,"Velocity":30,"Duration":952381,"SoundDuration":952381,"Delta":202520719},{"NoteNumber":68,"Velocity":36,"Duration":952381,"SoundDuration":952381,"Delta":202520719},{"NoteNumber":60,"Velocity":36,"Duration":952381,"SoundDuration":952381,"Delta":202520719},{"NoteNumber":54,"Velocity":30,"Duration":952381,"SoundDuration":952381,"Delta":202520719},{"NoteNumber":51,"Velocity":30,"Duration":952381,"SoundDuration":952381,"Delta":202520719},{"NoteNumber":49,"Velocity":51,"Duration":5302979,"SoundDuration":5302979,"Delta":203473100},{"NoteNumber":25,"Velocity":38,"Duration":5302979,"SoundDuration":5302979,"Delta":203473100},{"NoteNumber":37,"Velocity":45,"Duration":5302979,"SoundDuration":5302979,"Delta":203473100},{"NoteNumber":73,"Velocity":45,"Duration":4137930,"SoundDuration":4137930,"Delta":204638149},{"NoteNumber":69,"Velocity":38,"Duration":4137930,"SoundDuration":4137930,"Delta":204638149},{"NoteNumber":61,"Velocity":38,"Duration":4137930,"SoundDuration":4137930,"Delta":204638149},{"NoteNumber":64,"Velocity":39,"Duration":4137930,"SoundDuration":4137930,"Delta":204638149},{"NoteNumber":57,"Velocity":34,"Duration":4137930,"SoundDuration":4137930,"Delta":204638149},{"NoteNumber":52,"Velocity":34,"Duration":4137930,"SoundDuration":4137930,"Delta":204638149},{"NoteNumber":49,"Velocity":48,"Duration":5209994,"SoundDuration":5209994,"Delta":208776079},{"NoteNumber":25,"Velocity":35,"Duration":5209994,"SoundDuration":5209994,"Delta":208776079},{"NoteNumber":37,"Velocity":43,"Duration":5209994,"SoundDuration":5209994,"Delta":208776079},{"NoteNumber":61,"Velocity":34,"Duration":4044945,"SoundDuration":4044945,"Delta":209941128},{"NoteNumber":68,"Velocity":34,"Duration":4044945,"SoundDuration":4044945,"Delta":209941128},{"NoteNumber":73,"Velocity":42,"Duration":4044945,"SoundDuration":4044945,"Delta":209941128},{"NoteNumber":64,"Velocity":37,"Duration":4044945,"SoundDuration":4044945,"Delta":209941128},{"NoteNumber":58,"Velocity":31,"Duration":4044945,"SoundDuration":4044945,"Delta":209941128},{"NoteNumber":52,"Velocity":31,"Duration":4044945,"SoundDuration":4044945,"Delta":209941128},{"NoteNumber":49,"Velocity":45,"Duration":5078092,"SoundDuration":5078092,"Delta":213986073},{"NoteNumber":25,"Velocity":33,"Duration":5078092,"SoundDuration":5078092,"Delta":213986073},{"NoteNumber":37,"Velocity":40,"Duration":5078092,"SoundDuration":5078092,"Delta":213986073},{"NoteNumber":61,"Velocity":32,"Duration":3913043,"SoundDuration":3913043,"Delta":215151122},{"NoteNumber":73,"Velocity":39,"Duration":3913043,"SoundDuration":3913043,"Delta":215151122},{"NoteNumber":69,"Velocity":32,"Duration":3913043,"SoundDuration":3913043,"Delta":215151122},{"NoteNumber":64,"Velocity":34,"Duration":3913043,"SoundDuration":3913043,"Delta":215151122},{"NoteNumber":52,"Velocity":29,"Duration":3913043,"SoundDuration":3913043,"Delta":215151122},{"NoteNumber":55,"Velocity":29,"Duration":3913043,"SoundDuration":3913043,"Delta":215151122},{"NoteNumber":49,"Velocity":44,"Duration":5176469,"SoundDuration":5176469,"Delta":219064166},{"NoteNumber":25,"Velocity":30,"Duration":5176469,"SoundDuration":5176469,"Delta":219064166},{"NoteNumber":37,"Velocity":37,"Duration":5176469,"SoundDuration":5176469,"Delta":219064166},{"NoteNumber":66,"Velocity":32,"Duration":3999999,"SoundDuration":3999999,"Delta":220240637},{"NoteNumber":61,"Velocity":32,"Duration":3999999,"SoundDuration":3999999,"Delta":220240637},{"NoteNumber":70,"Velocity":32,"Duration":3999999,"SoundDuration":3999999,"Delta":220240637},{"NoteNumber":73,"Velocity":37,"Duration":3999999,"SoundDuration":3999999,"Delta":220240637},{"NoteNumber":52,"Velocity":28,"Duration":3999999,"SoundDuration":3999999,"Delta":220240637},{"NoteNumber":54,"Velocity":28,"Duration":3999999,"SoundDuration":3999999,"Delta":220240637},{"NoteNumber":58,"Velocity":28,"Duration":3999999,"SoundDuration":3999999,"Delta":220240637},{"NoteNumber":64,"Velocity":33,"Duration":3999999,"SoundDuration":3999999,"Delta":220240637},{"NoteNumber":49,"Velocity":40,"Duration":5176469,"SoundDuration":5176469,"Delta":224240636},{"NoteNumber":25,"Velocity":28,"Duration":5176469,"SoundDuration":5176469,"Delta":224240636},{"NoteNumber":37,"Velocity":34,"Duration":5176469,"SoundDuration":5176469,"Delta":224240636},{"NoteNumber":61,"Velocity":29,"Duration":3999999,"SoundDuration":3999999,"Delta":225417107},{"NoteNumber":73,"Velocity":35,"Duration":3999999,"SoundDuration":3999999,"Delta":225417107},{"NoteNumber":69,"Velocity":29,"Duration":3999999,"SoundDuration":3999999,"Delta":225417107},{"NoteNumber":66,"Velocity":29,"Duration":3999999,"SoundDuration":3999999,"Delta":225417107},{"NoteNumber":63,"Velocity":31,"Duration":3999999,"SoundDuration":3999999,"Delta":225417107},{"NoteNumber":57,"Velocity":26,"Duration":3999999,"SoundDuration":3999999,"Delta":225417107},{"NoteNumber":54,"Velocity":26,"Duration":3999999,"SoundDuration":3999999,"Delta":225417107},{"NoteNumber":51,"Velocity":26,"Duration":3999999,"SoundDuration":3999999,"Delta":225417107},{"NoteNumber":49,"Velocity":39,"Duration":14041423,"SoundDuration":14041423,"Delta":229417106},{"NoteNumber":25,"Velocity":27,"Duration":14041423,"SoundDuration":14041423,"Delta":229417106},{"NoteNumber":37,"Velocity":32,"Duration":14041423,"SoundDuration":14041423,"Delta":229417106},{"NoteNumber":68,"Velocity":23,"Duration":2285257,"SoundDuration":2285257,"Delta":231900836},{"NoteNumber":73,"Velocity":27,"Duration":2285257,"SoundDuration":2285257,"Delta":231900836},{"NoteNumber":64,"Velocity":23,"Duration":2285257,"SoundDuration":2285257,"Delta":231900836},{"NoteNumber":61,"Velocity":23,"Duration":2285257,"SoundDuration":2285257,"Delta":231900836},{"NoteNumber":56,"Velocity":24,"Duration":2285257,"SoundDuration":2285257,"Delta":231900836},{"NoteNumber":52,"Velocity":19,"Duration":2285257,"SoundDuration":2285257,"Delta":231900836},{"NoteNumber":49,"Velocity":19,"Duration":2285257,"SoundDuration":2285257,"Delta":231900836},{"NoteNumber":44,"Velocity":19,"Duration":2285257,"SoundDuration":2285257,"Delta":231900836},{"NoteNumber":80,"Velocity":22,"Duration":1239583,"SoundDuration":1239583,"Delta":234208529},{"NoteNumber":68,"Velocity":18,"Duration":1239583,"SoundDuration":1239583,"Delta":234208529},{"NoteNumber":76,"Velocity":18,"Duration":1239583,"SoundDuration":1239583,"Delta":234208529},{"NoteNumber":73,"Velocity":18,"Duration":1239583,"SoundDuration":1239583,"Delta":234208529},{"NoteNumber":64,"Velocity":18,"Duration":1239583,"SoundDuration":1239583,"Delta":234208529},{"NoteNumber":61,"Velocity":16,"Duration":1239583,"SoundDuration":1239583,"Delta":234208529},{"NoteNumber":52,"Velocity":16,"Duration":1239583,"SoundDuration":1239583,"Delta":234208529},{"NoteNumber":56,"Velocity":16,"Duration":1239583,"SoundDuration":1239583,"Delta":234208529},{"NoteNumber":80,"Velocity":17,"Duration":8000000,"SoundDuration":8000000,"Delta":235458529},{"NoteNumber":68,"Velocity":14,"Duration":8000000,"SoundDuration":8000000,"Delta":235458529},{"NoteNumber":76,"Velocity":14,"Duration":8000000,"SoundDuration":8000000,"Delta":235458529},{"NoteNumber":73,"Velocity":14,"Duration":8000000,"SoundDuration":8000000,"Delta":235458529},{"NoteNumber":64,"Velocity":14,"Duration":8000000,"SoundDuration":8000000,"Delta":235458529},{"NoteNumber":61,"Velocity":12,"Duration":8000000,"SoundDuration":8000000,"Delta":235458529},{"NoteNumber":56,"Velocity":12,"Duration":8000000,"SoundDuration":8000000,"Delta":235458529},{"NoteNumber":52,"Velocity":12,"Duration":8000000,"SoundDuration":8000000,"Delta":235458529}],"license":{"name":"Creative Commons Attribution-ShareAlike 3.0 Germany","url":"http://creativecommons.org/licenses/by-sa/3.0/de/deed.en","text":"The MIDI files in this folder were downloaded from http://www.piano-midi.de and are licensed under the Creative Commons Attribution-ShareAlike 3.0 Germany license by Bernd Krueger.\n\nThe MIDI, audio(MP3, OGG) and video files of Bernd Krueger are licensed under the cc-by-sa Germany License . This means, that you can use and adapt the files, as long as you attribute to the copyright holder Name: Bernd Krueger Source: http://www.piano-midi.de The distribution or public playback of the files is only allowed under identical license conditions . The scores are open source.","attribution":"Bernd Krueger","attributionUrl":"http://www.piano-midi.de"}}