{"title":"Prelude No.5 in Es-Dur, Op. 23","artist":"Rachmaninoff","durationMs":197045,"midiSha256":"29c9377c6829856c07db0be135b84144348a1123847155fe05ce078f29149ae6","midiObject":[{"NoteNumber":55,"Velocity":56,"Duration":149253,"SoundDuration":149253,"Delta":0},{"NoteNumber":31,"Velocity":50,"Duration":149253,"SoundDuration":149253,"Delta":0},{"NoteNumber":43,"Velocity":50,"Duration":149253,"SoundDuration":149253,"Delta":0},{"NoteNumber":58,"Velocity":40,"Duration":53631,"SoundDuration":53631,"Delta":298507},{"NoteNumber":62,"Velocity":45,"Duration":53631,"SoundDuration":53631,"Delta":298507},{"NoteNumber":50,"Velocity":37,"Duration":53631,"SoundDuration":53631,"Delta":298507},{"NoteNumber":55,"Velocity":37,"Duration":53631,"SoundDuration":53631,"Delta":298507},{"NoteNumber":58,"Velocity":40,"Duration":53631,"SoundDuration":53631,"Delta":393150},{"NoteNumber":62,"Velocity":45,"Duration":53631,"SoundDuration":53631,"Delta":393150},{"NoteNumber":50,"Velocity":36,"Duration":53631,"SoundDuration":53631,"Delta":393150},{"NoteNumber":55,"Velocity":36,"Duration":53631,"SoundDuration":53631,"Delta":393150},{"NoteNumber":58,"Velocity":40,"Duration":72115,"SoundDuration":72115,"Delta":487793},{"NoteNumber":62,"Velocity":45,"Duration":72115,"SoundDuration":72115,"Delta":487793},{"NoteNumber":50,"Velocity":36,"Duration":72115,"SoundDuration":72115,"Delta":487793},{"NoteNumber":55,"Velocity":36,"Duration":72115,"SoundDuration":72115,"Delta":487793},{"NoteNumber":34,"Velocity":53,"Duration":105633,"SoundDuration":105633,"Delta":776255},{"NoteNumber":46,"Velocity":53,"Duration":105633,"SoundDuration":105633,"Delta":776255},{"NoteNumber":38,"Velocity":53,"Duration":103211,"SoundDuration":103211,"Delta":1057945},{"NoteNumber":50,"Velocity":53,"Duration":103211,"SoundDuration":103211,"Delta":1057945},{"NoteNumber":58,"Velocity":38,"Duration":135135,"SoundDuration":135135,"Delta":1333175},{"NoteNumber":62,"Velocity":43,"Duration":135135,"SoundDuration":135135,"Delta":1333175},{"NoteNumber":50,"Velocity":35,"Duration":135135,"SoundDuration":135135,"Delta":1333175},{"NoteNumber":55,"Velocity":35,"Duration":135135,"SoundDuration":135135,"Delta":1333175},{"NoteNumber":58,"Velocity":57,"Duration":102739,"SoundDuration":102739,"Delta":1603445},{"NoteNumber":34,"Velocity":52,"Duration":102739,"SoundDuration":102739,"Delta":1603445},{"NoteNumber":46,"Velocity":52,"Duration":102739,"SoundDuration":102739,"Delta":1603445},{"NoteNumber":58,"Velocity":39,"Duration":135135,"SoundDuration":135135,"Delta":1877418},{"NoteNumber":62,"Velocity":44,"Duration":135135,"SoundDuration":135135,"Delta":1877418},{"NoteNumber":50,"Velocity":36,"Duration":135135,"SoundDuration":135135,"Delta":1877418},{"NoteNumber":55,"Velocity":36,"Duration":135135,"SoundDuration":135135,"Delta":1877418},{"NoteNumber":55,"Velocity":62,"Duration":144230,"SoundDuration":144230,"Delta":2147688},{"NoteNumber":31,"Velocity":56,"Duration":144230,"SoundDuration":144230,"Delta":2147688},{"NoteNumber":43,"Velocity":56,"Duration":144230,"SoundDuration":144230,"Delta":2147688},{"NoteNumber":58,"Velocity":38,"Duration":53462,"SoundDuration":53462,"Delta":2436150},{"NoteNumber":62,"Velocity":43,"Duration":53462,"SoundDuration":53462,"Delta":2436150},{"NoteNumber":50,"Velocity":36,"Duration":53462,"SoundDuration":53462,"Delta":2436150},{"NoteNumber":55,"Velocity":36,"Duration":53462,"SoundDuration":53462,"Delta":2436150},{"NoteNumber":58,"Velocity":38,"Duration":53462,"SoundDuration":53462,"Delta":2530495},{"NoteNumber":62,"Velocity":43,"Duration":53462,"SoundDuration":53462,"Delta":2530495},{"NoteNumber":50,"Velocity":36,"Duration":53462,"SoundDuration":53462,"Delta":2530495},{"NoteNumber":55,"Velocity":36,"Duration":53462,"SoundDuration":53462,"Delta":2530495},{"NoteNumber":58,"Velocity":38,"Duration":70093,"SoundDuration":70093,"Delta":2624841},{"NoteNumber":62,"Velocity":43,"Duration":70093,"SoundDuration":70093,"Delta":2624841},{"NoteNumber":50,"Velocity":36,"Duration":70093,"SoundDuration":70093,"Delta":2624841},{"NoteNumber":55,"Velocity":36,"Duration":70093,"SoundDuration":70093,"Delta":2624841},{"NoteNumber":33,"Velocity":52,"Duration":129870,"SoundDuration":129870,"Delta":2905215},{"NoteNumber":45,"Velocity":52,"Duration":129870,"SoundDuration":129870,"Delta":2905215},{"NoteNumber":34,"Velocity":56,"Duration":129870,"SoundDuration":129870,"Delta":3035085},{"NoteNumber":46,"Velocity":56,"Duration":129870,"SoundDuration":129870,"Delta":3035085},{"NoteNumber":38,"Velocity":54,"Duration":275229,"SoundDuration":275229,"Delta":3164955},{"NoteNumber":50,"Velocity":56,"Duration":275229,"SoundDuration":275229,"Delta":3164955},{"NoteNumber":58,"Velocity":38,"Duration":133333,"SoundDuration":133333,"Delta":3440185},{"NoteNumber":62,"Velocity":43,"Duration":133333,"SoundDuration":133333,"Delta":3440185},{"NoteNumber":50,"Velocity":34,"Duration":133333,"SoundDuration":133333,"Delta":3440185},{"NoteNumber":55,"Velocity":34,"Duration":133333,"SoundDuration":133333,"Delta":3440185},{"NoteNumber":58,"Velocity":57,"Duration":103211,"SoundDuration":103211,"Delta":3706851},{"NoteNumber":34,"Velocity":53,"Duration":103211,"SoundDuration":103211,"Delta":3706851},{"NoteNumber":46,"Velocity":53,"Duration":103211,"SoundDuration":103211,"Delta":3706851},{"NoteNumber":58,"Velocity":38,"Duration":134529,"SoundDuration":134529,"Delta":3982081},{"NoteNumber":62,"Velocity":43,"Duration":134529,"SoundDuration":134529,"Delta":3982081},{"NoteNumber":50,"Velocity":34,"Duration":134529,"SoundDuration":134529,"Delta":3982081},{"NoteNumber":55,"Velocity":34,"Duration":134529,"SoundDuration":134529,"Delta":3982081},{"NoteNumber":55,"Velocity":57,"Duration":143540,"SoundDuration":143540,"Delta":4251139},{"NoteNumber":31,"Velocity":51,"Duration":143540,"SoundDuration":143540,"Delta":4251139},{"NoteNumber":43,"Velocity":51,"Duration":143540,"SoundDuration":143540,"Delta":4251139},{"NoteNumber":58,"Velocity":39,"Duration":53971,"SoundDuration":53971,"Delta":4538221},{"NoteNumber":62,"Velocity":44,"Duration":53971,"SoundDuration":53971,"Delta":4538221},{"NoteNumber":50,"Velocity":34,"Duration":53971,"SoundDuration":53971,"Delta":4538221},{"NoteNumber":55,"Velocity":34,"Duration":53971,"SoundDuration":53971,"Delta":4538221},{"NoteNumber":58,"Velocity":39,"Duration":53971,"SoundDuration":53971,"Delta":4633465},{"NoteNumber":62,"Velocity":44,"Duration":53971,"SoundDuration":53971,"Delta":4633465},{"NoteNumber":50,"Velocity":34,"Duration":53971,"SoundDuration":53971,"Delta":4633465},{"NoteNumber":55,"Velocity":34,"Duration":53971,"SoundDuration":53971,"Delta":4633465},{"NoteNumber":58,"Velocity":39,"Duration":53582,"SoundDuration":53582,"Delta":4728709},{"NoteNumber":62,"Velocity":44,"Duration":53582,"SoundDuration":53582,"Delta":4728709},{"NoteNumber":50,"Velocity":34,"Duration":53582,"SoundDuration":53582,"Delta":4728709},{"NoteNumber":55,"Velocity":34,"Duration":53582,"SoundDuration":53582,"Delta":4728709},{"NoteNumber":62,"Velocity":56,"Duration":137324,"SoundDuration":137324,"Delta":4978797},{"NoteNumber":50,"Velocity":50,"Duration":137324,"SoundDuration":137324,"Delta":4978797},{"NoteNumber":65,"Velocity":60,"Duration":137325,"SoundDuration":137325,"Delta":5116122},{"NoteNumber":53,"Velocity":53,"Duration":137325,"SoundDuration":137325,"Delta":5116122},{"NoteNumber":67,"Velocity":63,"Duration":332422,"SoundDuration":332422,"Delta":5253448},{"NoteNumber":43,"Velocity":56,"Duration":733619,"SoundDuration":733619,"Delta":5253448},{"NoteNumber":55,"Velocity":56,"Duration":733619,"SoundDuration":733619,"Delta":5253448},{"NoteNumber":70,"Velocity":46,"Duration":55924,"SoundDuration":55924,"Delta":5529945},{"NoteNumber":67,"Velocity":41,"Duration":154615,"SoundDuration":154615,"Delta":5529945},{"NoteNumber":50,"Velocity":36,"Duration":55924,"SoundDuration":55924,"Delta":5529945},{"NoteNumber":58,"Velocity":36,"Duration":55924,"SoundDuration":55924,"Delta":5529945},{"NoteNumber":62,"Velocity":36,"Duration":55924,"SoundDuration":55924,"Delta":5529945},{"NoteNumber":70,"Velocity":46,"Duration":55924,"SoundDuration":55924,"Delta":5628636},{"NoteNumber":67,"Velocity":41,"Duration":293496,"SoundDuration":293496,"Delta":5628636},{"NoteNumber":58,"Velocity":36,"Duration":55924,"SoundDuration":55924,"Delta":5628636},{"NoteNumber":62,"Velocity":36,"Duration":55924,"SoundDuration":55924,"Delta":5628636},{"NoteNumber":50,"Velocity":36,"Duration":55924,"SoundDuration":55924,"Delta":5628636},{"NoteNumber":70,"Velocity":46,"Duration":194805,"SoundDuration":194805,"Delta":5727326},{"NoteNumber":67,"Velocity":41,"Duration":259740,"SoundDuration":259740,"Delta":5727326},{"NoteNumber":50,"Velocity":36,"Duration":194805,"SoundDuration":194805,"Delta":5727326},{"NoteNumber":58,"Velocity":36,"Duration":193723,"SoundDuration":193723,"Delta":5727326},{"NoteNumber":62,"Velocity":36,"Duration":194805,"SoundDuration":194805,"Delta":5727326},{"NoteNumber":58,"Velocity":60,"Duration":136711,"SoundDuration":136711,"Delta":5987067},{"NoteNumber":46,"Velocity":54,"Duration":136711,"SoundDuration":136711,"Delta":5987067},{"NoteNumber":62,"Velocity":60,"Duration":136711,"SoundDuration":136711,"Delta":6123779},{"NoteNumber":50,"Velocity":54,"Duration":136711,"SoundDuration":136711,"Delta":6123779},{"NoteNumber":65,"Velocity":63,"Duration":732088,"SoundDuration":732088,"Delta":6260490},{"NoteNumber":41,"Velocity":58,"Duration":732088,"SoundDuration":732088,"Delta":6260490},{"NoteNumber":53,"Velocity":58,"Duration":732088,"SoundDuration":732088,"Delta":6260490},{"NoteNumber":70,"Velocity":45,"Duration":56482,"SoundDuration":56482,"Delta":6535720},{"NoteNumber":74,"Velocity":51,"Duration":56482,"SoundDuration":56482,"Delta":6535720},{"NoteNumber":50,"Velocity":40,"Duration":56482,"SoundDuration":56482,"Delta":6535720},{"NoteNumber":62,"Velocity":40,"Duration":56482,"SoundDuration":56482,"Delta":6535720},{"NoteNumber":58,"Velocity":40,"Duration":56482,"SoundDuration":56482,"Delta":6535720},{"NoteNumber":70,"Velocity":45,"Duration":56482,"SoundDuration":56482,"Delta":6635394},{"NoteNumber":74,"Velocity":51,"Duration":56482,"SoundDuration":56482,"Delta":6635394},{"NoteNumber":50,"Velocity":40,"Duration":56482,"SoundDuration":56482,"Delta":6635394},{"NoteNumber":62,"Velocity":40,"Duration":56482,"SoundDuration":56482,"Delta":6635394},{"NoteNumber":58,"Velocity":40,"Duration":56482,"SoundDuration":56482,"Delta":6635394},{"NoteNumber":70,"Velocity":45,"Duration":193132,"SoundDuration":193132,"Delta":6735069},{"NoteNumber":74,"Velocity":51,"Duration":193132,"SoundDuration":193132,"Delta":6735069},{"NoteNumber":50,"Velocity":40,"Duration":193132,"SoundDuration":193132,"Delta":6735069},{"NoteNumber":62,"Velocity":40,"Duration":192059,"SoundDuration":192059,"Delta":6735069},{"NoteNumber":58,"Velocity":40,"Duration":193132,"SoundDuration":193132,"Delta":6735069},{"NoteNumber":58,"Velocity":63,"Duration":134891,"SoundDuration":134891,"Delta":6992579},{"NoteNumber":46,"Velocity":56,"Duration":134891,"SoundDuration":134891,"Delta":6992579},{"NoteNumber":62,"Velocity":67,"Duration":134891,"SoundDuration":134891,"Delta":7127471},{"NoteNumber":50,"Velocity":61,"Duration":134891,"SoundDuration":134891,"Delta":7127471},{"NoteNumber":63,"Velocity":71,"Duration":729732,"SoundDuration":729732,"Delta":7262363},{"NoteNumber":39,"Velocity":63,"Duration":729732,"SoundDuration":729732,"Delta":7262363},{"NoteNumber":51,"Velocity":63,"Duration":729732,"SoundDuration":729732,"Delta":7262363},{"NoteNumber":79,"Velocity":51,"Duration":56482,"SoundDuration":56482,"Delta":7536336},{"NoteNumber":72,"Velocity":45,"Duration":56482,"SoundDuration":56482,"Delta":7536336},{"NoteNumber":67,"Velocity":45,"Duration":56482,"SoundDuration":56482,"Delta":7536336},{"NoteNumber":60,"Velocity":40,"Duration":56482,"SoundDuration":56482,"Delta":7536336},{"NoteNumber":57,"Velocity":40,"Duration":56482,"SoundDuration":56482,"Delta":7536336},{"NoteNumber":55,"Velocity":40,"Duration":56482,"SoundDuration":56482,"Delta":7536336},{"NoteNumber":79,"Velocity":51,"Duration":56482,"SoundDuration":56482,"Delta":7636010},{"NoteNumber":72,"Velocity":45,"Duration":56482,"SoundDuration":56482,"Delta":7636010},{"NoteNumber":67,"Velocity":45,"Duration":56482,"SoundDuration":56482,"Delta":7636010},{"NoteNumber":60,"Velocity":40,"Duration":56482,"SoundDuration":56482,"Delta":7636010},{"NoteNumber":57,"Velocity":40,"Duration":56482,"SoundDuration":56482,"Delta":7636010},{"NoteNumber":55,"Velocity":40,"Duration":56482,"SoundDuration":56482,"Delta":7636010},{"NoteNumber":67,"Velocity":45,"Duration":192307,"SoundDuration":192307,"Delta":7735685},{"NoteNumber":72,"Velocity":45,"Duration":192307,"SoundDuration":192307,"Delta":7735685},{"NoteNumber":79,"Velocity":51,"Duration":192307,"SoundDuration":192307,"Delta":7735685},{"NoteNumber":55,"Velocity":40,"Duration":191239,"SoundDuration":191239,"Delta":7735685},{"NoteNumber":57,"Velocity":40,"Duration":192307,"SoundDuration":192307,"Delta":7735685},{"NoteNumber":60,"Velocity":40,"Duration":192307,"SoundDuration":192307,"Delta":7735685},{"NoteNumber":55,"Velocity":68,"Duration":136091,"SoundDuration":136091,"Delta":7992095},{"NoteNumber":43,"Velocity":63,"Duration":136091,"SoundDuration":136091,"Delta":7992095},{"NoteNumber":57,"Velocity":68,"Duration":136091,"SoundDuration":136091,"Delta":8128187},{"NoteNumber":45,"Velocity":63,"Duration":136091,"SoundDuration":136091,"Delta":8128187},{"NoteNumber":62,"Velocity":77,"Duration":332901,"SoundDuration":332901,"Delta":8264278},{"NoteNumber":38,"Velocity":70,"Duration":748492,"SoundDuration":748492,"Delta":8264278},{"NoteNumber":50,"Velocity":70,"Duration":748492,"SoundDuration":748492,"Delta":8264278},{"NoteNumber":78,"Velocity":63,"Duration":60718,"SoundDuration":60718,"Delta":8536461},{"NoteNumber":74,"Velocity":56,"Duration":60718,"SoundDuration":60718,"Delta":8536461},{"NoteNumber":66,"Velocity":56,"Duration":60718,"SoundDuration":60718,"Delta":8536461},{"NoteNumber":54,"Velocity":50,"Duration":60718,"SoundDuration":60718,"Delta":8536461},{"NoteNumber":57,"Velocity":50,"Duration":60718,"SoundDuration":60718,"Delta":8536461},{"NoteNumber":62,"Velocity":50,"Duration":167869,"SoundDuration":167869,"Delta":8536461},{"NoteNumber":66,"Velocity":56,"Duration":60718,"SoundDuration":60718,"Delta":8643612},{"NoteNumber":74,"Velocity":56,"Duration":60718,"SoundDuration":60718,"Delta":8643612},{"NoteNumber":78,"Velocity":63,"Duration":60718,"SoundDuration":60718,"Delta":8643612},{"NoteNumber":54,"Velocity":50,"Duration":60718,"SoundDuration":60718,"Delta":8643612},{"NoteNumber":57,"Velocity":50,"Duration":60718,"SoundDuration":60718,"Delta":8643612},{"NoteNumber":62,"Velocity":50,"Duration":303656,"SoundDuration":303656,"Delta":8643612},{"NoteNumber":66,"Velocity":56,"Duration":196506,"SoundDuration":196506,"Delta":8750763},{"NoteNumber":74,"Velocity":56,"Duration":196506,"SoundDuration":196506,"Delta":8750763},{"NoteNumber":78,"Velocity":63,"Duration":196506,"SoundDuration":196506,"Delta":8750763},{"NoteNumber":54,"Velocity":50,"Duration":195414,"SoundDuration":195414,"Delta":8750763},{"NoteNumber":57,"Velocity":50,"Duration":195414,"SoundDuration":195414,"Delta":8750763},{"NoteNumber":62,"Velocity":50,"Duration":262008,"SoundDuration":262008,"Delta":8750763},{"NoteNumber":54,"Velocity":55,"Duration":137325,"SoundDuration":137325,"Delta":9012771},{"NoteNumber":30,"Velocity":48,"Duration":137325,"SoundDuration":137325,"Delta":9012771},{"NoteNumber":42,"Velocity":48,"Duration":137325,"SoundDuration":137325,"Delta":9012771},{"NoteNumber":58,"Velocity":55,"Duration":102993,"SoundDuration":102993,"Delta":9287421},{"NoteNumber":34,"Velocity":48,"Duration":102993,"SoundDuration":102993,"Delta":9287421},{"NoteNumber":46,"Velocity":48,"Duration":102993,"SoundDuration":102993,"Delta":9287421},{"NoteNumber":55,"Velocity":33,"Duration":137324,"SoundDuration":137324,"Delta":9562071},{"NoteNumber":62,"Velocity":33,"Duration":137324,"SoundDuration":137324,"Delta":9562071},{"NoteNumber":64,"Velocity":37,"Duration":137324,"SoundDuration":137324,"Delta":9562071},{"NoteNumber":50,"Velocity":29,"Duration":137324,"SoundDuration":137324,"Delta":9562071},{"NoteNumber":52,"Velocity":29,"Duration":137324,"SoundDuration":137324,"Delta":9562071},{"NoteNumber":55,"Velocity":50,"Duration":102739,"SoundDuration":102739,"Delta":9836721},{"NoteNumber":31,"Velocity":46,"Duration":102739,"SoundDuration":102739,"Delta":9836721},{"NoteNumber":43,"Velocity":46,"Duration":102739,"SoundDuration":102739,"Delta":9836721},{"NoteNumber":58,"Velocity":30,"Duration":136986,"SoundDuration":136986,"Delta":10110693},{"NoteNumber":62,"Velocity":30,"Duration":136986,"SoundDuration":136986,"Delta":10110693},{"NoteNumber":64,"Velocity":34,"Duration":136986,"SoundDuration":136986,"Delta":10110693},{"NoteNumber":50,"Velocity":27,"Duration":136986,"SoundDuration":136986,"Delta":10110693},{"NoteNumber":52,"Velocity":27,"Duration":136986,"SoundDuration":136986,"Delta":10110693},{"NoteNumber":50,"Velocity":61,"Duration":727843,"SoundDuration":727843,"Delta":10384666},{"NoteNumber":26,"Velocity":54,"Duration":727843,"SoundDuration":727843,"Delta":10384666},{"NoteNumber":38,"Velocity":54,"Duration":727843,"SoundDuration":727843,"Delta":10384666},{"NoteNumber":62,"Velocity":39,"Duration":53462,"SoundDuration":53462,"Delta":10661810},{"NoteNumber":66,"Velocity":39,"Duration":53462,"SoundDuration":53462,"Delta":10661810},{"NoteNumber":74,"Velocity":44,"Duration":53462,"SoundDuration":53462,"Delta":10661810},{"NoteNumber":45,"Velocity":32,"Duration":53462,"SoundDuration":53462,"Delta":10661810},{"NoteNumber":54,"Velocity":32,"Duration":53462,"SoundDuration":53462,"Delta":10661810},{"NoteNumber":57,"Velocity":32,"Duration":53462,"SoundDuration":53462,"Delta":10661810},{"NoteNumber":62,"Velocity":39,"Duration":53462,"SoundDuration":53462,"Delta":10756155},{"NoteNumber":66,"Velocity":39,"Duration":53462,"SoundDuration":53462,"Delta":10756155},{"NoteNumber":74,"Velocity":44,"Duration":53462,"SoundDuration":53462,"Delta":10756155},{"NoteNumber":45,"Velocity":32,"Duration":53462,"SoundDuration":53462,"Delta":10756155},{"NoteNumber":54,"Velocity":32,"Duration":53462,"SoundDuration":53462,"Delta":10756155},{"NoteNumber":57,"Velocity":32,"Duration":53462,"SoundDuration":53462,"Delta":10756155},{"NoteNumber":62,"Velocity":39,"Duration":196506,"SoundDuration":196506,"Delta":10850501},{"NoteNumber":66,"Velocity":39,"Duration":196506,"SoundDuration":196506,"Delta":10850501},{"NoteNumber":74,"Velocity":44,"Duration":196506,"SoundDuration":196506,"Delta":10850501},{"NoteNumber":45,"Velocity":32,"Duration":196506,"SoundDuration":196506,"Delta":10850501},{"NoteNumber":54,"Velocity":32,"Duration":196506,"SoundDuration":196506,"Delta":10850501},{"NoteNumber":57,"Velocity":32,"Duration":196506,"SoundDuration":196506,"Delta":10850501},{"NoteNumber":30,"Velocity":43,"Duration":136091,"SoundDuration":136091,"Delta":11112509},{"NoteNumber":42,"Velocity":43,"Duration":136091,"SoundDuration":136091,"Delta":11112509},{"NoteNumber":33,"Velocity":46,"Duration":136091,"SoundDuration":136091,"Delta":11248601},{"NoteNumber":45,"Velocity":46,"Duration":136091,"SoundDuration":136091,"Delta":11248601},{"NoteNumber":34,"Velocity":45,"Duration":272183,"SoundDuration":272183,"Delta":11384692},{"NoteNumber":46,"Velocity":45,"Duration":272183,"SoundDuration":272183,"Delta":11384692},{"NoteNumber":62,"Velocity":29,"Duration":133928,"SoundDuration":133928,"Delta":11656875},{"NoteNumber":55,"Velocity":29,"Duration":133928,"SoundDuration":133928,"Delta":11656875},{"NoteNumber":64,"Velocity":33,"Duration":133928,"SoundDuration":133928,"Delta":11656875},{"NoteNumber":50,"Velocity":27,"Duration":133928,"SoundDuration":133928,"Delta":11656875},{"NoteNumber":52,"Velocity":27,"Duration":133928,"SoundDuration":133928,"Delta":11656875},{"NoteNumber":55,"Velocity":45,"Duration":101809,"SoundDuration":101809,"Delta":11924732},{"NoteNumber":31,"Velocity":42,"Duration":101809,"SoundDuration":101809,"Delta":11924732},{"NoteNumber":43,"Velocity":42,"Duration":101809,"SoundDuration":101809,"Delta":11924732},{"NoteNumber":58,"Velocity":30,"Duration":135135,"SoundDuration":135135,"Delta":12196225},{"NoteNumber":62,"Velocity":30,"Duration":135135,"SoundDuration":135135,"Delta":12196225},{"NoteNumber":64,"Velocity":34,"Duration":135135,"SoundDuration":135135,"Delta":12196225},{"NoteNumber":50,"Velocity":26,"Duration":135135,"SoundDuration":135135,"Delta":12196225},{"NoteNumber":52,"Velocity":26,"Duration":135135,"SoundDuration":135135,"Delta":12196225},{"NoteNumber":50,"Velocity":45,"Duration":722750,"SoundDuration":722750,"Delta":12466496},{"NoteNumber":26,"Velocity":40,"Duration":722750,"SoundDuration":722750,"Delta":12466496},{"NoteNumber":38,"Velocity":40,"Duration":722750,"SoundDuration":722750,"Delta":12466496},{"NoteNumber":62,"Velocity":29,"Duration":53294,"SoundDuration":53294,"Delta":12737989},{"NoteNumber":66,"Velocity":33,"Duration":53294,"SoundDuration":53294,"Delta":12737989},{"NoteNumber":74,"Velocity":33,"Duration":53294,"SoundDuration":53294,"Delta":12737989},{"NoteNumber":45,"Velocity":27,"Duration":53294,"SoundDuration":53294,"Delta":12737989},{"NoteNumber":54,"Velocity":27,"Duration":53294,"SoundDuration":53294,"Delta":12737989},{"NoteNumber":57,"Velocity":27,"Duration":53294,"SoundDuration":53294,"Delta":12737989},{"NoteNumber":62,"Velocity":29,"Duration":53294,"SoundDuration":53294,"Delta":12832038},{"NoteNumber":66,"Velocity":33,"Duration":53294,"SoundDuration":53294,"Delta":12832038},{"NoteNumber":74,"Velocity":33,"Duration":53294,"SoundDuration":53294,"Delta":12832038},{"NoteNumber":45,"Velocity":27,"Duration":53294,"SoundDuration":53294,"Delta":12832038},{"NoteNumber":54,"Velocity":27,"Duration":53294,"SoundDuration":53294,"Delta":12832038},{"NoteNumber":57,"Velocity":27,"Duration":53294,"SoundDuration":53294,"Delta":12832038},{"NoteNumber":62,"Velocity":29,"Duration":197368,"SoundDuration":197368,"Delta":12926088},{"NoteNumber":66,"Velocity":33,"Duration":197368,"SoundDuration":197368,"Delta":12926088},{"NoteNumber":74,"Velocity":33,"Duration":197368,"SoundDuration":197368,"Delta":12926088},{"NoteNumber":45,"Velocity":27,"Duration":197368,"SoundDuration":197368,"Delta":12926088},{"NoteNumber":54,"Velocity":27,"Duration":196272,"SoundDuration":196272,"Delta":12926088},{"NoteNumber":57,"Velocity":27,"Duration":197368,"SoundDuration":197368,"Delta":12926088},{"NoteNumber":54,"Velocity":33,"Duration":136711,"SoundDuration":136711,"Delta":13189246},{"NoteNumber":57,"Velocity":37,"Duration":136711,"SoundDuration":136711,"Delta":13189246},{"NoteNumber":38,"Velocity":28,"Duration":136711,"SoundDuration":136711,"Delta":13189246},{"NoteNumber":50,"Velocity":28,"Duration":136711,"SoundDuration":136711,"Delta":13189246},{"NoteNumber":58,"Velocity":40,"Duration":136711,"SoundDuration":136711,"Delta":13325958},{"NoteNumber":51,"Velocity":40,"Duration":136711,"SoundDuration":136711,"Delta":13462670},{"NoteNumber":55,"Velocity":40,"Duration":136711,"SoundDuration":136711,"Delta":13462670},{"NoteNumber":60,"Velocity":45,"Duration":136711,"SoundDuration":136711,"Delta":13462670},{"NoteNumber":36,"Velocity":32,"Duration":136711,"SoundDuration":136711,"Delta":13462670},{"NoteNumber":48,"Velocity":32,"Duration":136711,"SoundDuration":136711,"Delta":13462670},{"NoteNumber":55,"Velocity":46,"Duration":100276,"SoundDuration":100276,"Delta":13736093},{"NoteNumber":60,"Velocity":46,"Duration":100276,"SoundDuration":100276,"Delta":13736093},{"NoteNumber":63,"Velocity":46,"Duration":100276,"SoundDuration":100276,"Delta":13736093},{"NoteNumber":34,"Velocity":39,"Duration":133701,"SoundDuration":133701,"Delta":13736093},{"NoteNumber":46,"Velocity":39,"Duration":133701,"SoundDuration":133701,"Delta":13736093},{"NoteNumber":33,"Velocity":45,"Duration":133701,"SoundDuration":133701,"Delta":13869795},{"NoteNumber":45,"Velocity":45,"Duration":133701,"SoundDuration":133701,"Delta":13869795},{"NoteNumber":57,"Velocity":45,"Duration":100276,"SoundDuration":100276,"Delta":14003497},{"NoteNumber":60,"Velocity":45,"Duration":100276,"SoundDuration":100276,"Delta":14003497},{"NoteNumber":63,"Velocity":45,"Duration":100276,"SoundDuration":100276,"Delta":14003497},{"NoteNumber":69,"Velocity":50,"Duration":100276,"SoundDuration":100276,"Delta":14003497},{"NoteNumber":30,"Velocity":45,"Duration":267403,"SoundDuration":267403,"Delta":14003497},{"NoteNumber":42,"Velocity":45,"Duration":267403,"SoundDuration":267403,"Delta":14003497},{"NoteNumber":57,"Velocity":41,"Duration":100276,"SoundDuration":100276,"Delta":14270900},{"NoteNumber":62,"Velocity":46,"Duration":100276,"SoundDuration":100276,"Delta":14270900},{"NoteNumber":66,"Velocity":46,"Duration":100276,"SoundDuration":100276,"Delta":14270900},{"NoteNumber":36,"Velocity":36,"Duration":100276,"SoundDuration":100276,"Delta":14270900},{"NoteNumber":48,"Velocity":36,"Duration":100276,"SoundDuration":100276,"Delta":14270900},{"NoteNumber":55,"Velocity":37,"Duration":100276,"SoundDuration":100276,"Delta":14538304},{"NoteNumber":62,"Velocity":37,"Duration":100276,"SoundDuration":100276,"Delta":14538304},{"NoteNumber":67,"Velocity":42,"Duration":100276,"SoundDuration":100276,"Delta":14538304},{"NoteNumber":34,"Velocity":34,"Duration":100276,"SoundDuration":100276,"Delta":14538304},{"NoteNumber":46,"Velocity":34,"Duration":100276,"SoundDuration":100276,"Delta":14538304},{"NoteNumber":58,"Velocity":36,"Duration":100276,"SoundDuration":100276,"Delta":14805707},{"NoteNumber":62,"Velocity":36,"Duration":100276,"SoundDuration":100276,"Delta":14805707},{"NoteNumber":70,"Velocity":40,"Duration":100276,"SoundDuration":100276,"Delta":14805707},{"NoteNumber":28,"Velocity":32,"Duration":100276,"SoundDuration":100276,"Delta":14805707},{"NoteNumber":40,"Velocity":32,"Duration":100276,"SoundDuration":100276,"Delta":14805707},{"NoteNumber":60,"Velocity":41,"Duration":107905,"SoundDuration":107905,"Delta":15073111},{"NoteNumber":62,"Velocity":41,"Duration":107905,"SoundDuration":107905,"Delta":15073111},{"NoteNumber":69,"Velocity":46,"Duration":107905,"SoundDuration":107905,"Delta":15073111},{"NoteNumber":30,"Velocity":38,"Duration":80929,"SoundDuration":80929,"Delta":15073111},{"NoteNumber":42,"Velocity":38,"Duration":80929,"SoundDuration":80929,"Delta":15073111},{"NoteNumber":60,"Velocity":38,"Duration":107905,"SoundDuration":107905,"Delta":15181017},{"NoteNumber":62,"Velocity":38,"Duration":107905,"SoundDuration":107905,"Delta":15181017},{"NoteNumber":69,"Velocity":43,"Duration":107905,"SoundDuration":107905,"Delta":15181017},{"NoteNumber":58,"Velocity":38,"Duration":138889,"SoundDuration":138889,"Delta":15288923},{"NoteNumber":62,"Velocity":38,"Duration":138889,"SoundDuration":138889,"Delta":15288923},{"NoteNumber":70,"Velocity":43,"Duration":138889,"SoundDuration":138889,"Delta":15288923},{"NoteNumber":31,"Velocity":35,"Duration":104166,"SoundDuration":104166,"Delta":15288923},{"NoteNumber":43,"Velocity":35,"Duration":104166,"SoundDuration":104166,"Delta":15288923},{"NoteNumber":57,"Velocity":36,"Duration":100276,"SoundDuration":100276,"Delta":15566701},{"NoteNumber":62,"Velocity":36,"Duration":100276,"SoundDuration":100276,"Delta":15566701},{"NoteNumber":66,"Velocity":40,"Duration":100276,"SoundDuration":100276,"Delta":15566701},{"NoteNumber":36,"Velocity":31,"Duration":100276,"SoundDuration":100276,"Delta":15566701},{"NoteNumber":48,"Velocity":31,"Duration":100276,"SoundDuration":100276,"Delta":15566701},{"NoteNumber":55,"Velocity":36,"Duration":102533,"SoundDuration":102533,"Delta":15834104},{"NoteNumber":62,"Velocity":36,"Duration":102533,"SoundDuration":102533,"Delta":15834104},{"NoteNumber":67,"Velocity":40,"Duration":102533,"SoundDuration":102533,"Delta":15834104},{"NoteNumber":34,"Velocity":31,"Duration":102533,"SoundDuration":102533,"Delta":15834104},{"NoteNumber":46,"Velocity":31,"Duration":102533,"SoundDuration":102533,"Delta":15834104},{"NoteNumber":55,"Velocity":38,"Duration":87541,"SoundDuration":87541,"Delta":16107528},{"NoteNumber":61,"Velocity":38,"Duration":87541,"SoundDuration":87541,"Delta":16107528},{"NoteNumber":63,"Velocity":43,"Duration":87541,"SoundDuration":87541,"Delta":16107528},{"NoteNumber":39,"Velocity":33,"Duration":87541,"SoundDuration":87541,"Delta":16107528},{"NoteNumber":46,"Velocity":33,"Duration":87541,"SoundDuration":87541,"Delta":16107528},{"NoteNumber":55,"Velocity":32,"Duration":87541,"SoundDuration":87541,"Delta":16224250},{"NoteNumber":61,"Velocity":32,"Duration":87541,"SoundDuration":87541,"Delta":16224250},{"NoteNumber":63,"Velocity":36,"Duration":87541,"SoundDuration":87541,"Delta":16224250},{"NoteNumber":39,"Velocity":28,"Duration":87541,"SoundDuration":87541,"Delta":16224250},{"NoteNumber":46,"Velocity":28,"Duration":87541,"SoundDuration":87541,"Delta":16224250},{"NoteNumber":55,"Velocity":33,"Duration":101809,"SoundDuration":101809,"Delta":16340973},{"NoteNumber":61,"Velocity":33,"Duration":101809,"SoundDuration":101809,"Delta":16340973},{"NoteNumber":63,"Velocity":37,"Duration":101809,"SoundDuration":101809,"Delta":16340973},{"NoteNumber":39,"Velocity":28,"Duration":101809,"SoundDuration":101809,"Delta":16340973},{"NoteNumber":46,"Velocity":28,"Duration":101809,"SoundDuration":101809,"Delta":16340973},{"NoteNumber":55,"Velocity":29,"Duration":110990,"SoundDuration":110990,"Delta":16612466},{"NoteNumber":61,"Velocity":29,"Duration":110990,"SoundDuration":110990,"Delta":16612466},{"NoteNumber":64,"Velocity":33,"Duration":110990,"SoundDuration":110990,"Delta":16612466},{"NoteNumber":34,"Velocity":25,"Duration":110990,"SoundDuration":110990,"Delta":16612466},{"NoteNumber":46,"Velocity":25,"Duration":110990,"SoundDuration":110990,"Delta":16612466},{"NoteNumber":54,"Velocity":29,"Duration":114329,"SoundDuration":114329,"Delta":16908440},{"NoteNumber":62,"Velocity":29,"Duration":114329,"SoundDuration":114329,"Delta":16908440},{"NoteNumber":66,"Velocity":33,"Duration":114329,"SoundDuration":114329,"Delta":16908440},{"NoteNumber":33,"Velocity":25,"Duration":114329,"SoundDuration":114329,"Delta":16908440},{"NoteNumber":45,"Velocity":25,"Duration":114329,"SoundDuration":114329,"Delta":16908440},{"NoteNumber":50,"Velocity":38,"Duration":326051,"SoundDuration":326051,"Delta":17213318},{"NoteNumber":38,"Velocity":31,"Duration":326051,"SoundDuration":326051,"Delta":17213318},{"NoteNumber":26,"Velocity":34,"Duration":163025,"SoundDuration":163025,"Delta":17539370},{"NoteNumber":38,"Velocity":34,"Duration":163025,"SoundDuration":163025,"Delta":17539370},{"NoteNumber":55,"Velocity":56,"Duration":141509,"SoundDuration":141509,"Delta":17865421},{"NoteNumber":31,"Velocity":50,"Duration":141509,"SoundDuration":141509,"Delta":17865421},{"NoteNumber":43,"Velocity":50,"Duration":141509,"SoundDuration":141509,"Delta":17865421},{"NoteNumber":58,"Velocity":40,"Duration":54522,"SoundDuration":54522,"Delta":18148440},{"NoteNumber":62,"Velocity":45,"Duration":54522,"SoundDuration":54522,"Delta":18148440},{"NoteNumber":50,"Velocity":37,"Duration":54522,"SoundDuration":54522,"Delta":18148440},{"NoteNumber":55,"Velocity":37,"Duration":54522,"SoundDuration":54522,"Delta":18148440},{"NoteNumber":58,"Velocity":40,"Duration":54522,"SoundDuration":54522,"Delta":18244656},{"NoteNumber":62,"Velocity":45,"Duration":54522,"SoundDuration":54522,"Delta":18244656},{"NoteNumber":50,"Velocity":36,"Duration":54522,"SoundDuration":54522,"Delta":18244656},{"NoteNumber":55,"Velocity":36,"Duration":54522,"SoundDuration":54522,"Delta":18244656},{"NoteNumber":58,"Velocity":40,"Duration":72463,"SoundDuration":72463,"Delta":18340871},{"NoteNumber":62,"Velocity":45,"Duration":72463,"SoundDuration":72463,"Delta":18340871},{"NoteNumber":50,"Velocity":36,"Duration":72463,"SoundDuration":72463,"Delta":18340871},{"NoteNumber":55,"Velocity":36,"Duration":72463,"SoundDuration":72463,"Delta":18340871},{"NoteNumber":46,"Velocity":53,"Duration":141509,"SoundDuration":141509,"Delta":18630726},{"NoteNumber":34,"Velocity":53,"Duration":141509,"SoundDuration":141509,"Delta":18630726},{"NoteNumber":38,"Velocity":53,"Duration":103686,"SoundDuration":103686,"Delta":18913745},{"NoteNumber":50,"Velocity":53,"Duration":103686,"SoundDuration":103686,"Delta":18913745},{"NoteNumber":58,"Velocity":38,"Duration":133928,"SoundDuration":133928,"Delta":19190243},{"NoteNumber":62,"Velocity":43,"Duration":133928,"SoundDuration":133928,"Delta":19190243},{"NoteNumber":50,"Velocity":35,"Duration":133928,"SoundDuration":133928,"Delta":19190243},{"NoteNumber":55,"Velocity":35,"Duration":133928,"SoundDuration":133928,"Delta":19190243},{"NoteNumber":58,"Velocity":57,"Duration":103686,"SoundDuration":103686,"Delta":19458100},{"NoteNumber":34,"Velocity":52,"Duration":103686,"SoundDuration":103686,"Delta":19458100},{"NoteNumber":46,"Velocity":52,"Duration":103686,"SoundDuration":103686,"Delta":19458100},{"NoteNumber":58,"Velocity":39,"Duration":135135,"SoundDuration":135135,"Delta":19734597},{"NoteNumber":62,"Velocity":44,"Duration":135135,"SoundDuration":135135,"Delta":19734597},{"NoteNumber":50,"Velocity":36,"Duration":135135,"SoundDuration":135135,"Delta":19734597},{"NoteNumber":55,"Velocity":36,"Duration":135135,"SoundDuration":135135,"Delta":19734597},{"NoteNumber":55,"Velocity":62,"Duration":140187,"SoundDuration":140187,"Delta":20004868},{"NoteNumber":43,"Velocity":56,"Duration":140187,"SoundDuration":140187,"Delta":20004868},{"NoteNumber":31,"Velocity":56,"Duration":140187,"SoundDuration":140187,"Delta":20004868},{"NoteNumber":58,"Velocity":38,"Duration":54522,"SoundDuration":54522,"Delta":20285242},{"NoteNumber":62,"Velocity":43,"Duration":54522,"SoundDuration":54522,"Delta":20285242},{"NoteNumber":50,"Velocity":36,"Duration":54522,"SoundDuration":54522,"Delta":20285242},{"NoteNumber":55,"Velocity":36,"Duration":54522,"SoundDuration":54522,"Delta":20285242},{"NoteNumber":58,"Velocity":38,"Duration":54522,"SoundDuration":54522,"Delta":20381457},{"NoteNumber":62,"Velocity":43,"Duration":54522,"SoundDuration":54522,"Delta":20381457},{"NoteNumber":50,"Velocity":36,"Duration":54522,"SoundDuration":54522,"Delta":20381457},{"NoteNumber":55,"Velocity":36,"Duration":54522,"SoundDuration":54522,"Delta":20381457},{"NoteNumber":58,"Velocity":38,"Duration":65502,"SoundDuration":65502,"Delta":20477673},{"NoteNumber":62,"Velocity":43,"Duration":65502,"SoundDuration":65502,"Delta":20477673},{"NoteNumber":50,"Velocity":36,"Duration":65502,"SoundDuration":65502,"Delta":20477673},{"NoteNumber":55,"Velocity":36,"Duration":65502,"SoundDuration":65502,"Delta":20477673},{"NoteNumber":33,"Velocity":52,"Duration":133333,"SoundDuration":133333,"Delta":20739681},{"NoteNumber":45,"Velocity":52,"Duration":133333,"SoundDuration":133333,"Delta":20739681},{"NoteNumber":34,"Velocity":56,"Duration":133333,"SoundDuration":133333,"Delta":20873014},{"NoteNumber":46,"Velocity":56,"Duration":133333,"SoundDuration":133333,"Delta":20873014},{"NoteNumber":38,"Velocity":54,"Duration":277778,"SoundDuration":277778,"Delta":21006348},{"NoteNumber":50,"Velocity":54,"Duration":277778,"SoundDuration":277778,"Delta":21006348},{"NoteNumber":58,"Velocity":38,"Duration":137614,"SoundDuration":137614,"Delta":21284126},{"NoteNumber":62,"Velocity":43,"Duration":137614,"SoundDuration":137614,"Delta":21284126},{"NoteNumber":50,"Velocity":34,"Duration":137614,"SoundDuration":137614,"Delta":21284126},{"NoteNumber":55,"Velocity":34,"Duration":137614,"SoundDuration":137614,"Delta":21284126},{"NoteNumber":58,"Velocity":57,"Duration":104166,"SoundDuration":104166,"Delta":21559355},{"NoteNumber":46,"Velocity":53,"Duration":104166,"SoundDuration":104166,"Delta":21559355},{"NoteNumber":34,"Velocity":53,"Duration":104166,"SoundDuration":104166,"Delta":21559355},{"NoteNumber":58,"Velocity":38,"Duration":136986,"SoundDuration":136986,"Delta":21837133},{"NoteNumber":62,"Velocity":43,"Duration":136986,"SoundDuration":136986,"Delta":21837133},{"NoteNumber":55,"Velocity":34,"Duration":136986,"SoundDuration":136986,"Delta":21837133},{"NoteNumber":50,"Velocity":34,"Duration":136986,"SoundDuration":136986,"Delta":21837133},{"NoteNumber":55,"Velocity":57,"Duration":140844,"SoundDuration":140844,"Delta":22111106},{"NoteNumber":43,"Velocity":51,"Duration":140844,"SoundDuration":140844,"Delta":22111106},{"NoteNumber":31,"Velocity":51,"Duration":140844,"SoundDuration":140844,"Delta":22111106},{"NoteNumber":58,"Velocity":39,"Duration":54309,"SoundDuration":54309,"Delta":22392796},{"NoteNumber":62,"Velocity":44,"Duration":54309,"SoundDuration":54309,"Delta":22392796},{"NoteNumber":50,"Velocity":34,"Duration":54309,"SoundDuration":54309,"Delta":22392796},{"NoteNumber":55,"Velocity":34,"Duration":54309,"SoundDuration":54309,"Delta":22392796},{"NoteNumber":58,"Velocity":39,"Duration":54309,"SoundDuration":54309,"Delta":22488636},{"NoteNumber":62,"Velocity":44,"Duration":54309,"SoundDuration":54309,"Delta":22488636},{"NoteNumber":55,"Velocity":34,"Duration":54309,"SoundDuration":54309,"Delta":22488636},{"NoteNumber":50,"Velocity":34,"Duration":54309,"SoundDuration":54309,"Delta":22488636},{"NoteNumber":58,"Velocity":39,"Duration":66964,"SoundDuration":66964,"Delta":22584477},{"NoteNumber":62,"Velocity":44,"Duration":66964,"SoundDuration":66964,"Delta":22584477},{"NoteNumber":55,"Velocity":34,"Duration":66964,"SoundDuration":66964,"Delta":22584477},{"NoteNumber":50,"Velocity":34,"Duration":66964,"SoundDuration":66964,"Delta":22584477},{"NoteNumber":62,"Velocity":56,"Duration":137325,"SoundDuration":137325,"Delta":22852334},{"NoteNumber":50,"Velocity":50,"Duration":137325,"SoundDuration":137325,"Delta":22852334},{"NoteNumber":65,"Velocity":60,"Duration":137325,"SoundDuration":137325,"Delta":22989659},{"NoteNumber":53,"Velocity":53,"Duration":137325,"SoundDuration":137325,"Delta":22989659},{"NoteNumber":67,"Velocity":63,"Duration":336348,"SoundDuration":336348,"Delta":23126984},{"NoteNumber":55,"Velocity":56,"Duration":734344,"SoundDuration":734344,"Delta":23126984},{"NoteNumber":43,"Velocity":56,"Duration":734344,"SoundDuration":734344,"Delta":23126984},{"NoteNumber":70,"Velocity":46,"Duration":54658,"SoundDuration":54658,"Delta":23408674},{"NoteNumber":67,"Velocity":41,"Duration":151115,"SoundDuration":151115,"Delta":23408674},{"NoteNumber":50,"Velocity":36,"Duration":54658,"SoundDuration":54658,"Delta":23408674},{"NoteNumber":62,"Velocity":36,"Duration":54658,"SoundDuration":54658,"Delta":23408674},{"NoteNumber":58,"Velocity":36,"Duration":54658,"SoundDuration":54658,"Delta":23408674},{"NoteNumber":70,"Velocity":46,"Duration":54658,"SoundDuration":54658,"Delta":23505131},{"NoteNumber":67,"Velocity":41,"Duration":291262,"SoundDuration":291262,"Delta":23505131},{"NoteNumber":62,"Velocity":36,"Duration":54658,"SoundDuration":54658,"Delta":23505131},{"NoteNumber":58,"Velocity":36,"Duration":54658,"SoundDuration":54658,"Delta":23505131},{"NoteNumber":50,"Velocity":36,"Duration":54658,"SoundDuration":54658,"Delta":23505131},{"NoteNumber":70,"Velocity":46,"Duration":194805,"SoundDuration":194805,"Delta":23601587},{"NoteNumber":67,"Velocity":41,"Duration":259740,"SoundDuration":259740,"Delta":23601587},{"NoteNumber":58,"Velocity":36,"Duration":193723,"SoundDuration":193723,"Delta":23601587},{"NoteNumber":62,"Velocity":36,"Duration":194805,"SoundDuration":194805,"Delta":23601587},{"NoteNumber":50,"Velocity":36,"Duration":194805,"SoundDuration":194805,"Delta":23601587},{"NoteNumber":58,"Velocity":60,"Duration":136091,"SoundDuration":136091,"Delta":23861328},{"NoteNumber":46,"Velocity":54,"Duration":136091,"SoundDuration":136091,"Delta":23861328},{"NoteNumber":62,"Velocity":60,"Duration":136091,"SoundDuration":136091,"Delta":23997419},{"NoteNumber":50,"Velocity":54,"Duration":136091,"SoundDuration":136091,"Delta":23997419},{"NoteNumber":65,"Velocity":63,"Duration":733487,"SoundDuration":733487,"Delta":24133511},{"NoteNumber":41,"Velocity":58,"Duration":733487,"SoundDuration":733487,"Delta":24133511},{"NoteNumber":53,"Velocity":58,"Duration":733487,"SoundDuration":733487,"Delta":24133511},{"NoteNumber":70,"Velocity":45,"Duration":56101,"SoundDuration":56101,"Delta":24412581},{"NoteNumber":74,"Velocity":51,"Duration":56101,"SoundDuration":56101,"Delta":24412581},{"NoteNumber":62,"Velocity":40,"Duration":56101,"SoundDuration":56101,"Delta":24412581},{"NoteNumber":50,"Velocity":40,"Duration":56101,"SoundDuration":56101,"Delta":24412581},{"NoteNumber":58,"Velocity":40,"Duration":56101,"SoundDuration":56101,"Delta":24412581},{"NoteNumber":70,"Velocity":45,"Duration":56101,"SoundDuration":56101,"Delta":24511584},{"NoteNumber":74,"Velocity":51,"Duration":56101,"SoundDuration":56101,"Delta":24511584},{"NoteNumber":50,"Velocity":40,"Duration":56101,"SoundDuration":56101,"Delta":24511584},{"NoteNumber":58,"Velocity":40,"Duration":56101,"SoundDuration":56101,"Delta":24511584},{"NoteNumber":62,"Velocity":40,"Duration":56101,"SoundDuration":56101,"Delta":24511584},{"NoteNumber":70,"Velocity":45,"Duration":192307,"SoundDuration":192307,"Delta":24610587},{"NoteNumber":74,"Velocity":51,"Duration":192307,"SoundDuration":192307,"Delta":24610587},{"NoteNumber":62,"Velocity":40,"Duration":192307,"SoundDuration":192307,"Delta":24610587},{"NoteNumber":58,"Velocity":40,"Duration":192307,"SoundDuration":192307,"Delta":24610587},{"NoteNumber":50,"Velocity":40,"Duration":192307,"SoundDuration":192307,"Delta":24610587},{"NoteNumber":65,"Velocity":66,"Duration":134892,"SoundDuration":134892,"Delta":24866998},{"NoteNumber":53,"Velocity":56,"Duration":134892,"SoundDuration":134892,"Delta":24866998},{"NoteNumber":69,"Velocity":70,"Duration":134892,"SoundDuration":134892,"Delta":25001890},{"NoteNumber":57,"Velocity":61,"Duration":134892,"SoundDuration":134892,"Delta":25001890},{"NoteNumber":70,"Velocity":74,"Duration":330423,"SoundDuration":330423,"Delta":25136782},{"NoteNumber":46,"Velocity":63,"Duration":727647,"SoundDuration":727647,"Delta":25136782},{"NoteNumber":58,"Velocity":63,"Duration":330423,"SoundDuration":330423,"Delta":25136782},{"NoteNumber":75,"Velocity":51,"Duration":56101,"SoundDuration":56101,"Delta":25411104},{"NoteNumber":70,"Velocity":45,"Duration":155105,"SoundDuration":155105,"Delta":25411104},{"NoteNumber":66,"Velocity":45,"Duration":56101,"SoundDuration":56101,"Delta":25411104},{"NoteNumber":58,"Velocity":40,"Duration":155105,"SoundDuration":155105,"Delta":25411104},{"NoteNumber":54,"Velocity":40,"Duration":56101,"SoundDuration":56101,"Delta":25411104},{"NoteNumber":63,"Velocity":40,"Duration":56101,"SoundDuration":56101,"Delta":25411104},{"NoteNumber":75,"Velocity":51,"Duration":56101,"SoundDuration":56101,"Delta":25510107},{"NoteNumber":70,"Velocity":45,"Duration":290492,"SoundDuration":290492,"Delta":25510107},{"NoteNumber":66,"Velocity":45,"Duration":56101,"SoundDuration":56101,"Delta":25510107},{"NoteNumber":63,"Velocity":40,"Duration":56101,"SoundDuration":56101,"Delta":25510107},{"NoteNumber":54,"Velocity":40,"Duration":56101,"SoundDuration":56101,"Delta":25510107},{"NoteNumber":58,"Velocity":40,"Duration":290492,"SoundDuration":290492,"Delta":25510107},{"NoteNumber":66,"Velocity":45,"Duration":191489,"SoundDuration":191489,"Delta":25609110},{"NoteNumber":70,"Velocity":45,"Duration":255319,"SoundDuration":255319,"Delta":25609110},{"NoteNumber":75,"Velocity":51,"Duration":191489,"SoundDuration":191489,"Delta":25609110},{"NoteNumber":58,"Velocity":40,"Duration":255319,"SoundDuration":255319,"Delta":25609110},{"NoteNumber":54,"Velocity":40,"Duration":191489,"SoundDuration":191489,"Delta":25609110},{"NoteNumber":63,"Velocity":40,"Duration":191489,"SoundDuration":191489,"Delta":25609110},{"NoteNumber":62,"Velocity":68,"Duration":131578,"SoundDuration":131578,"Delta":25864429},{"NoteNumber":50,"Velocity":63,"Duration":131578,"SoundDuration":131578,"Delta":25864429},{"NoteNumber":66,"Velocity":68,"Duration":131579,"SoundDuration":131579,"Delta":25996008},{"NoteNumber":54,"Velocity":63,"Duration":131579,"SoundDuration":131579,"Delta":25996008},{"NoteNumber":69,"Velocity":75,"Duration":737727,"SoundDuration":737727,"Delta":26127587},{"NoteNumber":57,"Velocity":70,"Duration":334821,"SoundDuration":334821,"Delta":26127587},{"NoteNumber":45,"Velocity":70,"Duration":737727,"SoundDuration":737727,"Delta":26127587},{"NoteNumber":78,"Velocity":60,"Duration":57043,"SoundDuration":57043,"Delta":26405365},{"NoteNumber":74,"Velocity":54,"Duration":57043,"SoundDuration":57043,"Delta":26405365},{"NoteNumber":66,"Velocity":54,"Duration":57043,"SoundDuration":57043,"Delta":26405365},{"NoteNumber":57,"Velocity":46,"Duration":157707,"SoundDuration":157707,"Delta":26405365},{"NoteNumber":62,"Velocity":46,"Duration":57043,"SoundDuration":57043,"Delta":26405365},{"NoteNumber":54,"Velocity":52,"Duration":57043,"SoundDuration":57043,"Delta":26405365},{"NoteNumber":66,"Velocity":54,"Duration":57043,"SoundDuration":57043,"Delta":26506030},{"NoteNumber":74,"Velocity":54,"Duration":57043,"SoundDuration":57043,"Delta":26506030},{"NoteNumber":78,"Velocity":60,"Duration":57043,"SoundDuration":57043,"Delta":26506030},{"NoteNumber":57,"Velocity":46,"Duration":294629,"SoundDuration":294629,"Delta":26506030},{"NoteNumber":54,"Velocity":52,"Duration":57043,"SoundDuration":57043,"Delta":26506030},{"NoteNumber":62,"Velocity":46,"Duration":57043,"SoundDuration":57043,"Delta":26506030},{"NoteNumber":66,"Velocity":54,"Duration":193965,"SoundDuration":193965,"Delta":26606694},{"NoteNumber":74,"Velocity":54,"Duration":193965,"SoundDuration":193965,"Delta":26606694},{"NoteNumber":78,"Velocity":60,"Duration":193965,"SoundDuration":193965,"Delta":26606694},{"NoteNumber":54,"Velocity":52,"Duration":193965,"SoundDuration":193965,"Delta":26606694},{"NoteNumber":62,"Velocity":46,"Duration":193965,"SoundDuration":193965,"Delta":26606694},{"NoteNumber":57,"Velocity":46,"Duration":258620,"SoundDuration":258620,"Delta":26606694},{"NoteNumber":69,"Velocity":72,"Duration":136091,"SoundDuration":136091,"Delta":26865315},{"NoteNumber":45,"Velocity":64,"Duration":136091,"SoundDuration":136091,"Delta":26865315},{"NoteNumber":57,"Velocity":64,"Duration":136091,"SoundDuration":136091,"Delta":26865315},{"NoteNumber":72,"Velocity":72,"Duration":136091,"SoundDuration":136091,"Delta":27001406},{"NoteNumber":60,"Velocity":64,"Duration":136091,"SoundDuration":136091,"Delta":27001406},{"NoteNumber":48,"Velocity":64,"Duration":136091,"SoundDuration":136091,"Delta":27001406},{"NoteNumber":74,"Velocity":77,"Duration":759560,"SoundDuration":759560,"Delta":27137498},{"NoteNumber":50,"Velocity":69,"Duration":759560,"SoundDuration":759560,"Delta":27137498},{"NoteNumber":62,"Velocity":69,"Duration":333926,"SoundDuration":333926,"Delta":27137498},{"NoteNumber":82,"Velocity":65,"Duration":57428,"SoundDuration":57428,"Delta":27413995},{"NoteNumber":79,"Velocity":58,"Duration":57428,"SoundDuration":57428,"Delta":27413995},{"NoteNumber":70,"Velocity":58,"Duration":57428,"SoundDuration":57428,"Delta":27413995},{"NoteNumber":62,"Velocity":52,"Duration":158773,"SoundDuration":158773,"Delta":27413995},{"NoteNumber":58,"Velocity":52,"Duration":57428,"SoundDuration":57428,"Delta":27413995},{"NoteNumber":67,"Velocity":52,"Duration":57428,"SoundDuration":57428,"Delta":27413995},{"NoteNumber":82,"Velocity":65,"Duration":57428,"SoundDuration":57428,"Delta":27515340},{"NoteNumber":79,"Velocity":58,"Duration":57428,"SoundDuration":57428,"Delta":27515340},{"NoteNumber":70,"Velocity":58,"Duration":57428,"SoundDuration":57428,"Delta":27515340},{"NoteNumber":58,"Velocity":52,"Duration":57428,"SoundDuration":57428,"Delta":27515340},{"NoteNumber":67,"Velocity":52,"Duration":57428,"SoundDuration":57428,"Delta":27515340},{"NoteNumber":62,"Velocity":52,"Duration":310456,"SoundDuration":310456,"Delta":27515340},{"NoteNumber":70,"Velocity":58,"Duration":210280,"SoundDuration":210280,"Delta":27616684},{"NoteNumber":79,"Velocity":58,"Duration":210280,"SoundDuration":210280,"Delta":27616684},{"NoteNumber":82,"Velocity":65,"Duration":210280,"SoundDuration":210280,"Delta":27616684},{"NoteNumber":62,"Velocity":52,"Duration":278037,"SoundDuration":278037,"Delta":27616684},{"NoteNumber":58,"Velocity":52,"Duration":210280,"SoundDuration":210280,"Delta":27616684},{"NoteNumber":67,"Velocity":52,"Duration":210280,"SoundDuration":210280,"Delta":27616684},{"NoteNumber":62,"Velocity":72,"Duration":131578,"SoundDuration":131578,"Delta":27897058},{"NoteNumber":38,"Velocity":64,"Duration":131578,"SoundDuration":131578,"Delta":27897058},{"NoteNumber":50,"Velocity":64,"Duration":131578,"SoundDuration":131578,"Delta":27897058},{"NoteNumber":61,"Velocity":72,"Duration":133333,"SoundDuration":133333,"Delta":28160216},{"NoteNumber":37,"Velocity":64,"Duration":133333,"SoundDuration":133333,"Delta":28160216},{"NoteNumber":49,"Velocity":64,"Duration":133333,"SoundDuration":133333,"Delta":28160216},{"NoteNumber":60,"Velocity":69,"Duration":132158,"SoundDuration":132158,"Delta":28426883},{"NoteNumber":36,"Velocity":63,"Duration":132158,"SoundDuration":132158,"Delta":28426883},{"NoteNumber":48,"Velocity":63,"Duration":132158,"SoundDuration":132158,"Delta":28426883},{"NoteNumber":69,"Velocity":62,"Duration":132743,"SoundDuration":132743,"Delta":28691200},{"NoteNumber":75,"Velocity":62,"Duration":132743,"SoundDuration":132743,"Delta":28691200},{"NoteNumber":81,"Velocity":69,"Duration":132743,"SoundDuration":132743,"Delta":28691200},{"NoteNumber":57,"Velocity":56,"Duration":132743,"SoundDuration":132743,"Delta":28691200},{"NoteNumber":63,"Velocity":56,"Duration":132743,"SoundDuration":132743,"Delta":28691200},{"NoteNumber":66,"Velocity":56,"Duration":132743,"SoundDuration":132743,"Delta":28691200},{"NoteNumber":66,"Velocity":64,"Duration":129870,"SoundDuration":129870,"Delta":28956686},{"NoteNumber":74,"Velocity":64,"Duration":129870,"SoundDuration":129870,"Delta":28956686},{"NoteNumber":78,"Velocity":72,"Duration":129870,"SoundDuration":129870,"Delta":28956686},{"NoteNumber":54,"Velocity":57,"Duration":129870,"SoundDuration":129870,"Delta":28956686},{"NoteNumber":62,"Velocity":57,"Duration":129870,"SoundDuration":129870,"Delta":28956686},{"NoteNumber":57,"Velocity":57,"Duration":129870,"SoundDuration":129870,"Delta":28956686},{"NoteNumber":67,"Velocity":71,"Duration":273423,"SoundDuration":273423,"Delta":29216427},{"NoteNumber":74,"Velocity":71,"Duration":273423,"SoundDuration":273423,"Delta":29216427},{"NoteNumber":79,"Velocity":79,"Duration":273423,"SoundDuration":273423,"Delta":29216427},{"NoteNumber":62,"Velocity":63,"Duration":273423,"SoundDuration":273423,"Delta":29216427},{"NoteNumber":55,"Velocity":63,"Duration":273423,"SoundDuration":273423,"Delta":29216427},{"NoteNumber":58,"Velocity":69,"Duration":130434,"SoundDuration":130434,"Delta":29489850},{"NoteNumber":46,"Velocity":61,"Duration":130434,"SoundDuration":130434,"Delta":29489850},{"NoteNumber":34,"Velocity":61,"Duration":130434,"SoundDuration":130434,"Delta":29489850},{"NoteNumber":59,"Velocity":69,"Duration":131578,"SoundDuration":131578,"Delta":29750720},{"NoteNumber":47,"Velocity":61,"Duration":131578,"SoundDuration":131578,"Delta":29750720},{"NoteNumber":35,"Velocity":61,"Duration":131578,"SoundDuration":131578,"Delta":29750720},{"NoteNumber":63,"Velocity":64,"Duration":132158,"SoundDuration":132158,"Delta":30013878},{"NoteNumber":67,"Velocity":64,"Duration":132158,"SoundDuration":132158,"Delta":30013878},{"NoteNumber":75,"Velocity":72,"Duration":132158,"SoundDuration":132158,"Delta":30013878},{"NoteNumber":55,"Velocity":57,"Duration":132158,"SoundDuration":132158,"Delta":30013878},{"NoteNumber":51,"Velocity":57,"Duration":132158,"SoundDuration":132158,"Delta":30013878},{"NoteNumber":60,"Velocity":72,"Duration":138568,"SoundDuration":138568,"Delta":30278195},{"NoteNumber":48,"Velocity":64,"Duration":138568,"SoundDuration":138568,"Delta":30278195},{"NoteNumber":36,"Velocity":64,"Duration":138568,"SoundDuration":138568,"Delta":30278195},{"NoteNumber":57,"Velocity":64,"Duration":138568,"SoundDuration":138568,"Delta":30555331},{"NoteNumber":60,"Velocity":64,"Duration":138568,"SoundDuration":138568,"Delta":30555331},{"NoteNumber":66,"Velocity":72,"Duration":138568,"SoundDuration":138568,"Delta":30555331},{"NoteNumber":50,"Velocity":57,"Duration":138568,"SoundDuration":138568,"Delta":30555331},{"NoteNumber":38,"Velocity":57,"Duration":138568,"SoundDuration":138568,"Delta":30555331},{"NoteNumber":55,"Velocity":70,"Duration":277136,"SoundDuration":277136,"Delta":30832468},{"NoteNumber":58,"Velocity":70,"Duration":277136,"SoundDuration":277136,"Delta":30832468},{"NoteNumber":67,"Velocity":78,"Duration":277136,"SoundDuration":277136,"Delta":30832468},{"NoteNumber":43,"Velocity":63,"Duration":277136,"SoundDuration":277136,"Delta":30832468},{"NoteNumber":31,"Velocity":63,"Duration":277136,"SoundDuration":277136,"Delta":30832468},{"NoteNumber":82,"Velocity":90,"Duration":277136,"SoundDuration":277136,"Delta":31386741},{"NoteNumber":79,"Velocity":90,"Duration":277136,"SoundDuration":277136,"Delta":31386741},{"NoteNumber":75,"Velocity":81,"Duration":277136,"SoundDuration":277136,"Delta":31386741},{"NoteNumber":70,"Velocity":81,"Duration":277136,"SoundDuration":277136,"Delta":31386741},{"NoteNumber":67,"Velocity":81,"Duration":277136,"SoundDuration":277136,"Delta":31386741},{"NoteNumber":58,"Velocity":72,"Duration":277136,"SoundDuration":277136,"Delta":31386741},{"NoteNumber":63,"Velocity":81,"Duration":277136,"SoundDuration":277136,"Delta":31386741},{"NoteNumber":55,"Velocity":72,"Duration":277136,"SoundDuration":277136,"Delta":31386741},{"NoteNumber":67,"Velocity":72,"Duration":62039,"SoundDuration":62039,"Delta":31663877},{"NoteNumber":70,"Velocity":72,"Duration":62039,"SoundDuration":62039,"Delta":31663877},{"NoteNumber":75,"Velocity":81,"Duration":62039,"SoundDuration":62039,"Delta":31663877},{"NoteNumber":79,"Velocity":81,"Duration":62039,"SoundDuration":62039,"Delta":31663877},{"NoteNumber":63,"Velocity":72,"Duration":62039,"SoundDuration":62039,"Delta":31663877},{"NoteNumber":55,"Velocity":64,"Duration":62039,"SoundDuration":62039,"Delta":31663877},{"NoteNumber":58,"Velocity":64,"Duration":62039,"SoundDuration":62039,"Delta":31663877},{"NoteNumber":67,"Velocity":72,"Duration":62039,"SoundDuration":62039,"Delta":31773358},{"NoteNumber":70,"Velocity":72,"Duration":62039,"SoundDuration":62039,"Delta":31773358},{"NoteNumber":75,"Velocity":81,"Duration":62039,"SoundDuration":62039,"Delta":31773358},{"NoteNumber":79,"Velocity":81,"Duration":62039,"SoundDuration":62039,"Delta":31773358},{"NoteNumber":55,"Velocity":64,"Duration":62039,"SoundDuration":62039,"Delta":31773358},{"NoteNumber":63,"Velocity":72,"Duration":62039,"SoundDuration":62039,"Delta":31773358},{"NoteNumber":58,"Velocity":64,"Duration":62039,"SoundDuration":62039,"Delta":31773358},{"NoteNumber":67,"Velocity":72,"Duration":76784,"SoundDuration":76784,"Delta":31882839},{"NoteNumber":70,"Velocity":72,"Duration":76784,"SoundDuration":76784,"Delta":31882839},{"NoteNumber":75,"Velocity":81,"Duration":76784,"SoundDuration":76784,"Delta":31882839},{"NoteNumber":79,"Velocity":81,"Duration":76784,"SoundDuration":76784,"Delta":31882839},{"NoteNumber":58,"Velocity":64,"Duration":76784,"SoundDuration":76784,"Delta":31882839},{"NoteNumber":63,"Velocity":72,"Duration":76784,"SoundDuration":76784,"Delta":31882839},{"NoteNumber":55,"Velocity":64,"Duration":76784,"SoundDuration":76784,"Delta":31882839},{"NoteNumber":55,"Velocity":60,"Duration":62726,"SoundDuration":62726,"Delta":32153842},{"NoteNumber":58,"Velocity":60,"Duration":62726,"SoundDuration":62726,"Delta":32153842},{"NoteNumber":63,"Velocity":67,"Duration":62726,"SoundDuration":62726,"Delta":32153842},{"NoteNumber":67,"Velocity":67,"Duration":62726,"SoundDuration":62726,"Delta":32153842},{"NoteNumber":39,"Velocity":61,"Duration":62726,"SoundDuration":62726,"Delta":32153842},{"NoteNumber":46,"Velocity":61,"Duration":62726,"SoundDuration":62726,"Delta":32153842},{"NoteNumber":55,"Velocity":60,"Duration":62726,"SoundDuration":62726,"Delta":32264535},{"NoteNumber":58,"Velocity":60,"Duration":62726,"SoundDuration":62726,"Delta":32264535},{"NoteNumber":63,"Velocity":67,"Duration":62726,"SoundDuration":62726,"Delta":32264535},{"NoteNumber":67,"Velocity":67,"Duration":62726,"SoundDuration":62726,"Delta":32264535},{"NoteNumber":46,"Velocity":61,"Duration":62726,"SoundDuration":62726,"Delta":32264535},{"NoteNumber":39,"Velocity":61,"Duration":62726,"SoundDuration":62726,"Delta":32264535},{"NoteNumber":55,"Velocity":60,"Duration":76103,"SoundDuration":76103,"Delta":32375228},{"NoteNumber":58,"Velocity":60,"Duration":76103,"SoundDuration":76103,"Delta":32375228},{"NoteNumber":63,"Velocity":67,"Duration":76103,"SoundDuration":76103,"Delta":32375228},{"NoteNumber":67,"Velocity":67,"Duration":76103,"SoundDuration":76103,"Delta":32375228},{"NoteNumber":46,"Velocity":61,"Duration":76103,"SoundDuration":76103,"Delta":32375228},{"NoteNumber":39,"Velocity":61,"Duration":76103,"SoundDuration":76103,"Delta":32375228},{"NoteNumber":79,"Velocity":86,"Duration":103926,"SoundDuration":103926,"Delta":32643828},{"NoteNumber":75,"Velocity":86,"Duration":103926,"SoundDuration":103926,"Delta":32643828},{"NoteNumber":70,"Velocity":77,"Duration":103926,"SoundDuration":103926,"Delta":32643828},{"NoteNumber":67,"Velocity":77,"Duration":103926,"SoundDuration":103926,"Delta":32643828},{"NoteNumber":58,"Velocity":77,"Duration":103926,"SoundDuration":103926,"Delta":32643828},{"NoteNumber":55,"Velocity":69,"Duration":103926,"SoundDuration":103926,"Delta":32643828},{"NoteNumber":63,"Velocity":77,"Duration":103926,"SoundDuration":103926,"Delta":32643828},{"NoteNumber":70,"Velocity":77,"Duration":128205,"SoundDuration":128205,"Delta":32920965},{"NoteNumber":82,"Velocity":86,"Duration":128205,"SoundDuration":128205,"Delta":32920965},{"NoteNumber":79,"Velocity":86,"Duration":128205,"SoundDuration":128205,"Delta":32920965},{"NoteNumber":58,"Velocity":77,"Duration":128205,"SoundDuration":128205,"Delta":32920965},{"NoteNumber":55,"Velocity":77,"Duration":128205,"SoundDuration":128205,"Delta":32920965},{"NoteNumber":84,"Velocity":86,"Duration":128205,"SoundDuration":128205,"Delta":33049170},{"NoteNumber":72,"Velocity":86,"Duration":128205,"SoundDuration":128205,"Delta":33049170},{"NoteNumber":60,"Velocity":77,"Duration":128205,"SoundDuration":128205,"Delta":33049170},{"NoteNumber":86,"Velocity":86,"Duration":130434,"SoundDuration":130434,"Delta":33177375},{"NoteNumber":74,"Velocity":86,"Duration":130434,"SoundDuration":130434,"Delta":33177375},{"NoteNumber":62,"Velocity":77,"Duration":130434,"SoundDuration":130434,"Delta":33177375},{"NoteNumber":87,"Velocity":86,"Duration":130434,"SoundDuration":130434,"Delta":33307810},{"NoteNumber":75,"Velocity":86,"Duration":130434,"SoundDuration":130434,"Delta":33307810},{"NoteNumber":63,"Velocity":77,"Duration":130434,"SoundDuration":130434,"Delta":33307810},{"NoteNumber":86,"Velocity":90,"Duration":277136,"SoundDuration":277136,"Delta":33438245},{"NoteNumber":82,"Velocity":90,"Duration":277136,"SoundDuration":277136,"Delta":33438245},{"NoteNumber":74,"Velocity":90,"Duration":277136,"SoundDuration":277136,"Delta":33438245},{"NoteNumber":53,"Velocity":72,"Duration":277136,"SoundDuration":277136,"Delta":33438245},{"NoteNumber":58,"Velocity":81,"Duration":277136,"SoundDuration":277136,"Delta":33438245},{"NoteNumber":62,"Velocity":81,"Duration":277136,"SoundDuration":277136,"Delta":33438245},{"NoteNumber":65,"Velocity":72,"Duration":61589,"SoundDuration":61589,"Delta":33715381},{"NoteNumber":70,"Velocity":72,"Duration":61589,"SoundDuration":61589,"Delta":33715381},{"NoteNumber":74,"Velocity":81,"Duration":61589,"SoundDuration":61589,"Delta":33715381},{"NoteNumber":77,"Velocity":81,"Duration":61589,"SoundDuration":61589,"Delta":33715381},{"NoteNumber":53,"Velocity":64,"Duration":61589,"SoundDuration":61589,"Delta":33715381},{"NoteNumber":62,"Velocity":72,"Duration":61589,"SoundDuration":61589,"Delta":33715381},{"NoteNumber":58,"Velocity":72,"Duration":61589,"SoundDuration":61589,"Delta":33715381},{"NoteNumber":65,"Velocity":72,"Duration":61589,"SoundDuration":61589,"Delta":33824069},{"NoteNumber":70,"Velocity":72,"Duration":61589,"SoundDuration":61589,"Delta":33824069},{"NoteNumber":74,"Velocity":81,"Duration":61589,"SoundDuration":61589,"Delta":33824069},{"NoteNumber":77,"Velocity":81,"Duration":61589,"SoundDuration":61589,"Delta":33824069},{"NoteNumber":58,"Velocity":72,"Duration":61589,"SoundDuration":61589,"Delta":33824069},{"NoteNumber":62,"Velocity":72,"Duration":61589,"SoundDuration":61589,"Delta":33824069},{"NoteNumber":53,"Velocity":64,"Duration":61589,"SoundDuration":61589,"Delta":33824069},{"NoteNumber":65,"Velocity":72,"Duration":76784,"SoundDuration":76784,"Delta":33932757},{"NoteNumber":70,"Velocity":72,"Duration":76784,"SoundDuration":76784,"Delta":33932757},{"NoteNumber":74,"Velocity":81,"Duration":76784,"SoundDuration":76784,"Delta":33932757},{"NoteNumber":77,"Velocity":81,"Duration":76784,"SoundDuration":76784,"Delta":33932757},{"NoteNumber":53,"Velocity":64,"Duration":76784,"SoundDuration":76784,"Delta":33932757},{"NoteNumber":62,"Velocity":72,"Duration":76784,"SoundDuration":76784,"Delta":33932757},{"NoteNumber":58,"Velocity":72,"Duration":76784,"SoundDuration":76784,"Delta":33932757},{"NoteNumber":53,"Velocity":59,"Duration":63192,"SoundDuration":63192,"Delta":34203759},{"NoteNumber":58,"Velocity":59,"Duration":63192,"SoundDuration":63192,"Delta":34203759},{"NoteNumber":62,"Velocity":66,"Duration":63192,"SoundDuration":63192,"Delta":34203759},{"NoteNumber":65,"Velocity":66,"Duration":63192,"SoundDuration":63192,"Delta":34203759},{"NoteNumber":34,"Velocity":59,"Duration":63192,"SoundDuration":63192,"Delta":34203759},{"NoteNumber":46,"Velocity":59,"Duration":63192,"SoundDuration":63192,"Delta":34203759},{"NoteNumber":53,"Velocity":59,"Duration":63192,"SoundDuration":63192,"Delta":34315275},{"NoteNumber":58,"Velocity":59,"Duration":63192,"SoundDuration":63192,"Delta":34315275},{"NoteNumber":62,"Velocity":66,"Duration":63192,"SoundDuration":63192,"Delta":34315275},{"NoteNumber":65,"Velocity":66,"Duration":63192,"SoundDuration":63192,"Delta":34315275},{"NoteNumber":34,"Velocity":59,"Duration":63192,"SoundDuration":63192,"Delta":34315275},{"NoteNumber":46,"Velocity":59,"Duration":63192,"SoundDuration":63192,"Delta":34315275},{"NoteNumber":53,"Velocity":59,"Duration":76784,"SoundDuration":76784,"Delta":34426791},{"NoteNumber":58,"Velocity":59,"Duration":76784,"SoundDuration":76784,"Delta":34426791},{"NoteNumber":62,"Velocity":66,"Duration":76784,"SoundDuration":76784,"Delta":34426791},{"NoteNumber":65,"Velocity":66,"Duration":76784,"SoundDuration":76784,"Delta":34426791},{"NoteNumber":34,"Velocity":59,"Duration":76784,"SoundDuration":76784,"Delta":34426791},{"NoteNumber":46,"Velocity":59,"Duration":76784,"SoundDuration":76784,"Delta":34426791},{"NoteNumber":65,"Velocity":76,"Duration":103467,"SoundDuration":103467,"Delta":34697793},{"NoteNumber":70,"Velocity":76,"Duration":103467,"SoundDuration":103467,"Delta":34697793},{"NoteNumber":74,"Velocity":85,"Duration":103467,"SoundDuration":103467,"Delta":34697793},{"NoteNumber":77,"Velocity":85,"Duration":103467,"SoundDuration":103467,"Delta":34697793},{"NoteNumber":53,"Velocity":67,"Duration":103467,"SoundDuration":103467,"Delta":34697793},{"NoteNumber":62,"Velocity":75,"Duration":103467,"SoundDuration":103467,"Delta":34697793},{"NoteNumber":58,"Velocity":75,"Duration":103467,"SoundDuration":103467,"Delta":34697793},{"NoteNumber":86,"Velocity":86,"Duration":129310,"SoundDuration":129310,"Delta":34973706},{"NoteNumber":82,"Velocity":86,"Duration":129310,"SoundDuration":129310,"Delta":34973706},{"NoteNumber":74,"Velocity":77,"Duration":129310,"SoundDuration":129310,"Delta":34973706},{"NoteNumber":58,"Velocity":77,"Duration":129310,"SoundDuration":129310,"Delta":34973706},{"NoteNumber":53,"Velocity":69,"Duration":129310,"SoundDuration":129310,"Delta":34973706},{"NoteNumber":62,"Velocity":77,"Duration":129310,"SoundDuration":129310,"Delta":34973706},{"NoteNumber":88,"Velocity":86,"Duration":129310,"SoundDuration":129310,"Delta":35103016},{"NoteNumber":64,"Velocity":77,"Duration":129310,"SoundDuration":129310,"Delta":35103016},{"NoteNumber":77,"Velocity":86,"Duration":129310,"SoundDuration":129310,"Delta":35232327},{"NoteNumber":89,"Velocity":86,"Duration":129310,"SoundDuration":129310,"Delta":35232327},{"NoteNumber":65,"Velocity":77,"Duration":129310,"SoundDuration":129310,"Delta":35232327},{"NoteNumber":91,"Velocity":86,"Duration":129310,"SoundDuration":129310,"Delta":35361637},{"NoteNumber":67,"Velocity":77,"Duration":129310,"SoundDuration":129310,"Delta":35361637},{"NoteNumber":77,"Velocity":81,"Duration":277136,"SoundDuration":277136,"Delta":35490947},{"NoteNumber":86,"Velocity":90,"Duration":277136,"SoundDuration":277136,"Delta":35490947},{"NoteNumber":89,"Velocity":90,"Duration":277136,"SoundDuration":277136,"Delta":35490947},{"NoteNumber":62,"Velocity":81,"Duration":277136,"SoundDuration":277136,"Delta":35490947},{"NoteNumber":65,"Velocity":81,"Duration":277136,"SoundDuration":277136,"Delta":35490947},{"NoteNumber":57,"Velocity":72,"Duration":277136,"SoundDuration":277136,"Delta":35490947},{"NoteNumber":69,"Velocity":72,"Duration":60927,"SoundDuration":60927,"Delta":35768084},{"NoteNumber":74,"Velocity":72,"Duration":60927,"SoundDuration":60927,"Delta":35768084},{"NoteNumber":77,"Velocity":81,"Duration":60927,"SoundDuration":60927,"Delta":35768084},{"NoteNumber":81,"Velocity":81,"Duration":60927,"SoundDuration":60927,"Delta":35768084},{"NoteNumber":57,"Velocity":64,"Duration":60927,"SoundDuration":60927,"Delta":35768084},{"NoteNumber":62,"Velocity":72,"Duration":60927,"SoundDuration":60927,"Delta":35768084},{"NoteNumber":65,"Velocity":72,"Duration":60927,"SoundDuration":60927,"Delta":35768084},{"NoteNumber":53,"Velocity":64,"Duration":60927,"SoundDuration":60927,"Delta":35768084},{"NoteNumber":69,"Velocity":72,"Duration":60927,"SoundDuration":60927,"Delta":35875603},{"NoteNumber":74,"Velocity":72,"Duration":60927,"SoundDuration":60927,"Delta":35875603},{"NoteNumber":77,"Velocity":81,"Duration":60927,"SoundDuration":60927,"Delta":35875603},{"NoteNumber":81,"Velocity":81,"Duration":60927,"SoundDuration":60927,"Delta":35875603},{"NoteNumber":57,"Velocity":64,"Duration":60927,"SoundDuration":60927,"Delta":35875603},{"NoteNumber":62,"Velocity":72,"Duration":60927,"SoundDuration":60927,"Delta":35875603},{"NoteNumber":65,"Velocity":72,"Duration":60927,"SoundDuration":60927,"Delta":35875603},{"NoteNumber":53,"Velocity":64,"Duration":60927,"SoundDuration":60927,"Delta":35875603},{"NoteNumber":69,"Velocity":72,"Duration":76784,"SoundDuration":76784,"Delta":35983122},{"NoteNumber":74,"Velocity":72,"Duration":76784,"SoundDuration":76784,"Delta":35983122},{"NoteNumber":77,"Velocity":81,"Duration":76784,"SoundDuration":76784,"Delta":35983122},{"NoteNumber":81,"Velocity":81,"Duration":76784,"SoundDuration":76784,"Delta":35983122},{"NoteNumber":53,"Velocity":64,"Duration":76784,"SoundDuration":76784,"Delta":35983122},{"NoteNumber":62,"Velocity":72,"Duration":76784,"SoundDuration":76784,"Delta":35983122},{"NoteNumber":65,"Velocity":72,"Duration":76784,"SoundDuration":76784,"Delta":35983122},{"NoteNumber":57,"Velocity":64,"Duration":76784,"SoundDuration":76784,"Delta":35983122},{"NoteNumber":57,"Velocity":59,"Duration":64389,"SoundDuration":64389,"Delta":36254125},{"NoteNumber":62,"Velocity":59,"Duration":64389,"SoundDuration":64389,"Delta":36254125},{"NoteNumber":65,"Velocity":66,"Duration":64389,"SoundDuration":64389,"Delta":36254125},{"NoteNumber":69,"Velocity":66,"Duration":64389,"SoundDuration":64389,"Delta":36254125},{"NoteNumber":38,"Velocity":59,"Duration":64389,"SoundDuration":64389,"Delta":36254125},{"NoteNumber":45,"Velocity":59,"Duration":64389,"SoundDuration":64389,"Delta":36254125},{"NoteNumber":57,"Velocity":59,"Duration":64389,"SoundDuration":64389,"Delta":36367752},{"NoteNumber":62,"Velocity":59,"Duration":64389,"SoundDuration":64389,"Delta":36367752},{"NoteNumber":65,"Velocity":66,"Duration":64389,"SoundDuration":64389,"Delta":36367752},{"NoteNumber":69,"Velocity":66,"Duration":64389,"SoundDuration":64389,"Delta":36367752},{"NoteNumber":45,"Velocity":59,"Duration":64389,"SoundDuration":64389,"Delta":36367752},{"NoteNumber":38,"Velocity":59,"Duration":64389,"SoundDuration":64389,"Delta":36367752},{"NoteNumber":57,"Velocity":59,"Duration":76103,"SoundDuration":76103,"Delta":36481380},{"NoteNumber":62,"Velocity":59,"Duration":76103,"SoundDuration":76103,"Delta":36481380},{"NoteNumber":65,"Velocity":66,"Duration":76103,"SoundDuration":76103,"Delta":36481380},{"NoteNumber":69,"Velocity":66,"Duration":76103,"SoundDuration":76103,"Delta":36481380},{"NoteNumber":45,"Velocity":59,"Duration":76103,"SoundDuration":76103,"Delta":36481380},{"NoteNumber":38,"Velocity":59,"Duration":76103,"SoundDuration":76103,"Delta":36481380},{"NoteNumber":65,"Velocity":76,"Duration":103926,"SoundDuration":103926,"Delta":36749981},{"NoteNumber":69,"Velocity":76,"Duration":103926,"SoundDuration":103926,"Delta":36749981},{"NoteNumber":74,"Velocity":85,"Duration":103926,"SoundDuration":103926,"Delta":36749981},{"NoteNumber":77,"Velocity":85,"Duration":103926,"SoundDuration":103926,"Delta":36749981},{"NoteNumber":57,"Velocity":76,"Duration":103926,"SoundDuration":103926,"Delta":36749981},{"NoteNumber":62,"Velocity":76,"Duration":103926,"SoundDuration":103926,"Delta":36749981},{"NoteNumber":53,"Velocity":68,"Duration":103926,"SoundDuration":103926,"Delta":36749981},{"NoteNumber":69,"Velocity":76,"Duration":133701,"SoundDuration":133701,"Delta":37027117},{"NoteNumber":77,"Velocity":85,"Duration":133701,"SoundDuration":133701,"Delta":37027117},{"NoteNumber":81,"Velocity":85,"Duration":133701,"SoundDuration":133701,"Delta":37027117},{"NoteNumber":57,"Velocity":76,"Duration":133701,"SoundDuration":133701,"Delta":37027117},{"NoteNumber":53,"Velocity":76,"Duration":133701,"SoundDuration":133701,"Delta":37027117},{"NoteNumber":83,"Velocity":85,"Duration":133701,"SoundDuration":133701,"Delta":37160819},{"NoteNumber":59,"Velocity":76,"Duration":133701,"SoundDuration":133701,"Delta":37160819},{"NoteNumber":72,"Velocity":85,"Duration":133701,"SoundDuration":133701,"Delta":37294521},{"NoteNumber":84,"Velocity":85,"Duration":133701,"SoundDuration":133701,"Delta":37294521},{"NoteNumber":60,"Velocity":76,"Duration":133701,"SoundDuration":133701,"Delta":37294521},{"NoteNumber":86,"Velocity":85,"Duration":133701,"SoundDuration":133701,"Delta":37428222},{"NoteNumber":62,"Velocity":76,"Duration":133701,"SoundDuration":133701,"Delta":37428222},{"NoteNumber":72,"Velocity":81,"Duration":275913,"SoundDuration":275913,"Delta":37561924},{"NoteNumber":81,"Velocity":90,"Duration":275913,"SoundDuration":275913,"Delta":37561924},{"NoteNumber":84,"Velocity":90,"Duration":275913,"SoundDuration":275913,"Delta":37561924},{"NoteNumber":53,"Velocity":72,"Duration":275913,"SoundDuration":275913,"Delta":37561924},{"NoteNumber":60,"Velocity":81,"Duration":275913,"SoundDuration":275913,"Delta":37561924},{"NoteNumber":57,"Velocity":81,"Duration":275913,"SoundDuration":275913,"Delta":37561924},{"NoteNumber":69,"Velocity":75,"Duration":62039,"SoundDuration":62039,"Delta":37837837},{"NoteNumber":72,"Velocity":75,"Duration":62039,"SoundDuration":62039,"Delta":37837837},{"NoteNumber":77,"Velocity":84,"Duration":62039,"SoundDuration":62039,"Delta":37837837},{"NoteNumber":81,"Velocity":84,"Duration":62039,"SoundDuration":62039,"Delta":37837837},{"NoteNumber":53,"Velocity":65,"Duration":62039,"SoundDuration":62039,"Delta":37837837},{"NoteNumber":60,"Velocity":73,"Duration":62039,"SoundDuration":62039,"Delta":37837837},{"NoteNumber":57,"Velocity":65,"Duration":62039,"SoundDuration":62039,"Delta":37837837},{"NoteNumber":65,"Velocity":73,"Duration":62039,"SoundDuration":62039,"Delta":37837837},{"NoteNumber":69,"Velocity":75,"Duration":62039,"SoundDuration":62039,"Delta":37947318},{"NoteNumber":72,"Velocity":75,"Duration":62039,"SoundDuration":62039,"Delta":37947318},{"NoteNumber":77,"Velocity":84,"Duration":62039,"SoundDuration":62039,"Delta":37947318},{"NoteNumber":81,"Velocity":84,"Duration":62039,"SoundDuration":62039,"Delta":37947318},{"NoteNumber":53,"Velocity":65,"Duration":62039,"SoundDuration":62039,"Delta":37947318},{"NoteNumber":60,"Velocity":73,"Duration":62039,"SoundDuration":62039,"Delta":37947318},{"NoteNumber":57,"Velocity":65,"Duration":62039,"SoundDuration":62039,"Delta":37947318},{"NoteNumber":65,"Velocity":73,"Duration":62039,"SoundDuration":62039,"Delta":37947318},{"NoteNumber":69,"Velocity":75,"Duration":77118,"SoundDuration":77118,"Delta":38056799},{"NoteNumber":72,"Velocity":75,"Duration":77118,"SoundDuration":77118,"Delta":38056799},{"NoteNumber":77,"Velocity":84,"Duration":77118,"SoundDuration":77118,"Delta":38056799},{"NoteNumber":81,"Velocity":84,"Duration":77118,"SoundDuration":77118,"Delta":38056799},{"NoteNumber":57,"Velocity":65,"Duration":77118,"SoundDuration":77118,"Delta":38056799},{"NoteNumber":60,"Velocity":73,"Duration":77118,"SoundDuration":77118,"Delta":38056799},{"NoteNumber":65,"Velocity":73,"Duration":77118,"SoundDuration":77118,"Delta":38056799},{"NoteNumber":53,"Velocity":65,"Duration":77118,"SoundDuration":77118,"Delta":38056799},{"NoteNumber":60,"Velocity":64,"Duration":64389,"SoundDuration":64389,"Delta":38328982},{"NoteNumber":65,"Velocity":64,"Duration":64389,"SoundDuration":64389,"Delta":38328982},{"NoteNumber":69,"Velocity":72,"Duration":64389,"SoundDuration":64389,"Delta":38328982},{"NoteNumber":72,"Velocity":72,"Duration":64389,"SoundDuration":64389,"Delta":38328982},{"NoteNumber":48,"Velocity":64,"Duration":64389,"SoundDuration":64389,"Delta":38328982},{"NoteNumber":41,"Velocity":64,"Duration":64389,"SoundDuration":64389,"Delta":38328982},{"NoteNumber":60,"Velocity":64,"Duration":64389,"SoundDuration":64389,"Delta":38442610},{"NoteNumber":65,"Velocity":64,"Duration":64389,"SoundDuration":64389,"Delta":38442610},{"NoteNumber":69,"Velocity":72,"Duration":64389,"SoundDuration":64389,"Delta":38442610},{"NoteNumber":72,"Velocity":72,"Duration":64389,"SoundDuration":64389,"Delta":38442610},{"NoteNumber":48,"Velocity":64,"Duration":64389,"SoundDuration":64389,"Delta":38442610},{"NoteNumber":41,"Velocity":64,"Duration":64389,"SoundDuration":64389,"Delta":38442610},{"NoteNumber":60,"Velocity":64,"Duration":77118,"SoundDuration":77118,"Delta":38556238},{"NoteNumber":65,"Velocity":64,"Duration":77118,"SoundDuration":77118,"Delta":38556238},{"NoteNumber":69,"Velocity":72,"Duration":77118,"SoundDuration":77118,"Delta":38556238},{"NoteNumber":72,"Velocity":72,"Duration":77118,"SoundDuration":77118,"Delta":38556238},{"NoteNumber":48,"Velocity":64,"Duration":77118,"SoundDuration":77118,"Delta":38556238},{"NoteNumber":41,"Velocity":64,"Duration":77118,"SoundDuration":77118,"Delta":38556238},{"NoteNumber":69,"Velocity":83,"Duration":103926,"SoundDuration":103926,"Delta":38828421},{"NoteNumber":72,"Velocity":83,"Duration":103926,"SoundDuration":103926,"Delta":38828421},{"NoteNumber":77,"Velocity":83,"Duration":103926,"SoundDuration":103926,"Delta":38828421},{"NoteNumber":81,"Velocity":83,"Duration":103926,"SoundDuration":103926,"Delta":38828421},{"NoteNumber":53,"Velocity":75,"Duration":103926,"SoundDuration":103926,"Delta":38828421},{"NoteNumber":60,"Velocity":75,"Duration":103926,"SoundDuration":103926,"Delta":38828421},{"NoteNumber":57,"Velocity":75,"Duration":103926,"SoundDuration":103926,"Delta":38828421},{"NoteNumber":72,"Velocity":83,"Duration":133120,"SoundDuration":133120,"Delta":39105557},{"NoteNumber":80,"Velocity":83,"Duration":133120,"SoundDuration":133120,"Delta":39105557},{"NoteNumber":84,"Velocity":83,"Duration":133120,"SoundDuration":133120,"Delta":39105557},{"NoteNumber":53,"Velocity":75,"Duration":133120,"SoundDuration":133120,"Delta":39105557},{"NoteNumber":60,"Velocity":75,"Duration":133120,"SoundDuration":133120,"Delta":39105557},{"NoteNumber":56,"Velocity":75,"Duration":133120,"SoundDuration":133120,"Delta":39105557},{"NoteNumber":86,"Velocity":83,"Duration":133120,"SoundDuration":133120,"Delta":39238677},{"NoteNumber":62,"Velocity":75,"Duration":133120,"SoundDuration":133120,"Delta":39238677},{"NoteNumber":75,"Velocity":83,"Duration":133120,"SoundDuration":133120,"Delta":39371798},{"NoteNumber":87,"Velocity":83,"Duration":133120,"SoundDuration":133120,"Delta":39371798},{"NoteNumber":63,"Velocity":75,"Duration":133120,"SoundDuration":133120,"Delta":39371798},{"NoteNumber":89,"Velocity":83,"Duration":133120,"SoundDuration":133120,"Delta":39504918},{"NoteNumber":65,"Velocity":75,"Duration":133120,"SoundDuration":133120,"Delta":39504918},{"NoteNumber":75,"Velocity":80,"Duration":277136,"SoundDuration":277136,"Delta":39638038},{"NoteNumber":84,"Velocity":89,"Duration":277136,"SoundDuration":277136,"Delta":39638038},{"NoteNumber":87,"Velocity":89,"Duration":277136,"SoundDuration":277136,"Delta":39638038},{"NoteNumber":55,"Velocity":72,"Duration":277136,"SoundDuration":277136,"Delta":39638038},{"NoteNumber":63,"Velocity":81,"Duration":277136,"SoundDuration":277136,"Delta":39638038},{"NoteNumber":60,"Velocity":81,"Duration":277136,"SoundDuration":277136,"Delta":39638038},{"NoteNumber":60,"Velocity":81,"Duration":64880,"SoundDuration":64880,"Delta":39915175},{"NoteNumber":67,"Velocity":81,"Duration":64880,"SoundDuration":64880,"Delta":39915175},{"NoteNumber":51,"Velocity":70,"Duration":64880,"SoundDuration":64880,"Delta":39915175},{"NoteNumber":43,"Velocity":70,"Duration":64880,"SoundDuration":64880,"Delta":39915175},{"NoteNumber":60,"Velocity":81,"Duration":64880,"SoundDuration":64880,"Delta":40029670},{"NoteNumber":67,"Velocity":81,"Duration":64880,"SoundDuration":64880,"Delta":40029670},{"NoteNumber":36,"Velocity":70,"Duration":64880,"SoundDuration":64880,"Delta":40029670},{"NoteNumber":60,"Velocity":81,"Duration":75221,"SoundDuration":75221,"Delta":40144165},{"NoteNumber":67,"Velocity":81,"Duration":75221,"SoundDuration":75221,"Delta":40144165},{"NoteNumber":43,"Velocity":70,"Duration":199114,"SoundDuration":199114,"Delta":40144165},{"NoteNumber":51,"Velocity":70,"Duration":199114,"SoundDuration":199114,"Delta":40144165},{"NoteNumber":87,"Velocity":86,"Duration":142450,"SoundDuration":142450,"Delta":40409651},{"NoteNumber":75,"Velocity":86,"Duration":142450,"SoundDuration":142450,"Delta":40409651},{"NoteNumber":63,"Velocity":77,"Duration":142450,"SoundDuration":142450,"Delta":40409651},{"NoteNumber":89,"Velocity":86,"Duration":142450,"SoundDuration":142450,"Delta":40552101},{"NoteNumber":77,"Velocity":86,"Duration":142450,"SoundDuration":142450,"Delta":40552101},{"NoteNumber":65,"Velocity":77,"Duration":142450,"SoundDuration":142450,"Delta":40552101},{"NoteNumber":91,"Velocity":90,"Duration":284900,"SoundDuration":284900,"Delta":40694552},{"NoteNumber":86,"Velocity":90,"Duration":284900,"SoundDuration":284900,"Delta":40694552},{"NoteNumber":82,"Velocity":81,"Duration":284900,"SoundDuration":284900,"Delta":40694552},{"NoteNumber":79,"Velocity":81,"Duration":284900,"SoundDuration":284900,"Delta":40694552},{"NoteNumber":58,"Velocity":72,"Duration":284900,"SoundDuration":284900,"Delta":40694552},{"NoteNumber":67,"Velocity":81,"Duration":284900,"SoundDuration":284900,"Delta":40694552},{"NoteNumber":62,"Velocity":81,"Duration":284900,"SoundDuration":284900,"Delta":40694552},{"NoteNumber":62,"Velocity":81,"Duration":78175,"SoundDuration":78175,"Delta":40979452},{"NoteNumber":67,"Velocity":81,"Duration":78175,"SoundDuration":78175,"Delta":40979452},{"NoteNumber":46,"Velocity":69,"Duration":78175,"SoundDuration":78175,"Delta":40979452},{"NoteNumber":55,"Velocity":69,"Duration":78175,"SoundDuration":78175,"Delta":40979452},{"NoteNumber":62,"Velocity":81,"Duration":78175,"SoundDuration":78175,"Delta":41117409},{"NoteNumber":67,"Velocity":81,"Duration":78175,"SoundDuration":78175,"Delta":41117409},{"NoteNumber":39,"Velocity":69,"Duration":78175,"SoundDuration":78175,"Delta":41117409},{"NoteNumber":62,"Velocity":81,"Duration":78175,"SoundDuration":78175,"Delta":41255365},{"NoteNumber":67,"Velocity":81,"Duration":78175,"SoundDuration":78175,"Delta":41255365},{"NoteNumber":55,"Velocity":69,"Duration":206934,"SoundDuration":206934,"Delta":41255365},{"NoteNumber":46,"Velocity":69,"Duration":206934,"SoundDuration":206934,"Delta":41255365},{"NoteNumber":86,"Velocity":90,"Duration":154766,"SoundDuration":154766,"Delta":41531278},{"NoteNumber":62,"Velocity":81,"Duration":154766,"SoundDuration":154766,"Delta":41531278},{"NoteNumber":91,"Velocity":90,"Duration":154766,"SoundDuration":154766,"Delta":41686045},{"NoteNumber":67,"Velocity":81,"Duration":154766,"SoundDuration":154766,"Delta":41686045},{"NoteNumber":86,"Velocity":95,"Duration":309533,"SoundDuration":309533,"Delta":41840812},{"NoteNumber":81,"Velocity":85,"Duration":309533,"SoundDuration":309533,"Delta":41840812},{"NoteNumber":93,"Velocity":95,"Duration":309533,"SoundDuration":309533,"Delta":41840812},{"NoteNumber":57,"Velocity":75,"Duration":309533,"SoundDuration":309533,"Delta":41840812},{"NoteNumber":69,"Velocity":84,"Duration":309533,"SoundDuration":309533,"Delta":41840812},{"NoteNumber":64,"Velocity":84,"Duration":309533,"SoundDuration":309533,"Delta":41840812},{"NoteNumber":74,"Velocity":83,"Duration":76233,"SoundDuration":76233,"Delta":42150345},{"NoteNumber":76,"Velocity":83,"Duration":76233,"SoundDuration":76233,"Delta":42150345},{"NoteNumber":81,"Velocity":83,"Duration":76233,"SoundDuration":76233,"Delta":42150345},{"NoteNumber":64,"Velocity":74,"Duration":76233,"SoundDuration":76233,"Delta":42150345},{"NoteNumber":57,"Velocity":66,"Duration":76233,"SoundDuration":76233,"Delta":42150345},{"NoteNumber":67,"Velocity":74,"Duration":76233,"SoundDuration":76233,"Delta":42150345},{"NoteNumber":74,"Velocity":82,"Duration":76233,"SoundDuration":76233,"Delta":42284874},{"NoteNumber":76,"Velocity":82,"Duration":76233,"SoundDuration":76233,"Delta":42284874},{"NoteNumber":81,"Velocity":82,"Duration":76233,"SoundDuration":76233,"Delta":42284874},{"NoteNumber":67,"Velocity":74,"Duration":76233,"SoundDuration":76233,"Delta":42284874},{"NoteNumber":64,"Velocity":74,"Duration":76233,"SoundDuration":76233,"Delta":42284874},{"NoteNumber":57,"Velocity":66,"Duration":76233,"SoundDuration":76233,"Delta":42284874},{"NoteNumber":74,"Velocity":82,"Duration":78703,"SoundDuration":78703,"Delta":42419404},{"NoteNumber":76,"Velocity":82,"Duration":78703,"SoundDuration":78703,"Delta":42419404},{"NoteNumber":81,"Velocity":82,"Duration":78703,"SoundDuration":78703,"Delta":42419404},{"NoteNumber":64,"Velocity":74,"Duration":78703,"SoundDuration":78703,"Delta":42419404},{"NoteNumber":57,"Velocity":66,"Duration":78703,"SoundDuration":78703,"Delta":42419404},{"NoteNumber":67,"Velocity":74,"Duration":78703,"SoundDuration":78703,"Delta":42419404},{"NoteNumber":62,"Velocity":69,"Duration":76233,"SoundDuration":76233,"Delta":42697182},{"NoteNumber":64,"Velocity":77,"Duration":76233,"SoundDuration":76233,"Delta":42697182},{"NoteNumber":69,"Velocity":77,"Duration":76233,"SoundDuration":76233,"Delta":42697182},{"NoteNumber":52,"Velocity":71,"Duration":76233,"SoundDuration":76233,"Delta":42697182},{"NoteNumber":55,"Velocity":71,"Duration":76233,"SoundDuration":76233,"Delta":42697182},{"NoteNumber":45,"Velocity":63,"Duration":76233,"SoundDuration":76233,"Delta":42697182},{"NoteNumber":62,"Velocity":69,"Duration":76233,"SoundDuration":76233,"Delta":42831711},{"NoteNumber":64,"Velocity":77,"Duration":76233,"SoundDuration":76233,"Delta":42831711},{"NoteNumber":69,"Velocity":77,"Duration":76233,"SoundDuration":76233,"Delta":42831711},{"NoteNumber":52,"Velocity":71,"Duration":76233,"SoundDuration":76233,"Delta":42831711},{"NoteNumber":45,"Velocity":63,"Duration":76233,"SoundDuration":76233,"Delta":42831711},{"NoteNumber":55,"Velocity":71,"Duration":76233,"SoundDuration":76233,"Delta":42831711},{"NoteNumber":62,"Velocity":69,"Duration":78703,"SoundDuration":78703,"Delta":42966240},{"NoteNumber":64,"Velocity":77,"Duration":78703,"SoundDuration":78703,"Delta":42966240},{"NoteNumber":69,"Velocity":77,"Duration":78703,"SoundDuration":78703,"Delta":42966240},{"NoteNumber":45,"Velocity":63,"Duration":78703,"SoundDuration":78703,"Delta":42966240},{"NoteNumber":55,"Velocity":71,"Duration":78703,"SoundDuration":78703,"Delta":42966240},{"NoteNumber":52,"Velocity":71,"Duration":78703,"SoundDuration":78703,"Delta":42966240},{"NoteNumber":49,"Velocity":62,"Duration":78703,"SoundDuration":78703,"Delta":43244018},{"NoteNumber":55,"Velocity":69,"Duration":78703,"SoundDuration":78703,"Delta":43244018},{"NoteNumber":57,"Velocity":69,"Duration":78703,"SoundDuration":78703,"Delta":43244018},{"NoteNumber":40,"Velocity":61,"Duration":78703,"SoundDuration":78703,"Delta":43244018},{"NoteNumber":33,"Velocity":61,"Duration":78703,"SoundDuration":78703,"Delta":43244018},{"NoteNumber":49,"Velocity":62,"Duration":78703,"SoundDuration":78703,"Delta":43382907},{"NoteNumber":55,"Velocity":69,"Duration":78703,"SoundDuration":78703,"Delta":43382907},{"NoteNumber":57,"Velocity":69,"Duration":78703,"SoundDuration":78703,"Delta":43382907},{"NoteNumber":33,"Velocity":61,"Duration":78703,"SoundDuration":78703,"Delta":43382907},{"NoteNumber":40,"Velocity":61,"Duration":78703,"SoundDuration":78703,"Delta":43382907},{"NoteNumber":49,"Velocity":62,"Duration":78703,"SoundDuration":78703,"Delta":43521796},{"NoteNumber":55,"Velocity":69,"Duration":78703,"SoundDuration":78703,"Delta":43521796},{"NoteNumber":57,"Velocity":69,"Duration":78703,"SoundDuration":78703,"Delta":43521796},{"NoteNumber":33,"Velocity":81,"Duration":78703,"SoundDuration":78703,"Delta":43521796},{"NoteNumber":40,"Velocity":81,"Duration":78703,"SoundDuration":78703,"Delta":43521796},{"NoteNumber":55,"Velocity":90,"Duration":145871,"SoundDuration":145871,"Delta":43799574},{"NoteNumber":31,"Velocity":81,"Duration":145871,"SoundDuration":145871,"Delta":43799574},{"NoteNumber":57,"Velocity":90,"Duration":145871,"SoundDuration":145871,"Delta":43945446},{"NoteNumber":33,"Velocity":81,"Duration":145871,"SoundDuration":145871,"Delta":43945446},{"NoteNumber":50,"Velocity":103,"Duration":2141911,"SoundDuration":2141911,"Delta":44091318},{"NoteNumber":62,"Velocity":103,"Duration":375000,"SoundDuration":375000,"Delta":44091318},{"NoteNumber":38,"Velocity":92,"Duration":2141911,"SoundDuration":2141911,"Delta":44091318},{"NoteNumber":26,"Velocity":92,"Duration":2141911,"SoundDuration":2141911,"Delta":44091318},{"NoteNumber":93,"Velocity":42,"Duration":102272,"SoundDuration":102272,"Delta":44364045},{"NoteNumber":90,"Velocity":42,"Duration":102272,"SoundDuration":102272,"Delta":44364045},{"NoteNumber":86,"Velocity":37,"Duration":102272,"SoundDuration":102272,"Delta":44364045},{"NoteNumber":81,"Velocity":37,"Duration":102272,"SoundDuration":102272,"Delta":44364045},{"NoteNumber":57,"Velocity":32,"Duration":102272,"SoundDuration":102272,"Delta":44364045},{"NoteNumber":66,"Velocity":36,"Duration":102272,"SoundDuration":102272,"Delta":44364045},{"NoteNumber":62,"Velocity":32,"Duration":238636,"SoundDuration":238636,"Delta":44364045},{"NoteNumber":69,"Velocity":36,"Duration":102272,"SoundDuration":102272,"Delta":44364045},{"NoteNumber":93,"Velocity":45,"Duration":102272,"SoundDuration":102272,"Delta":44500409},{"NoteNumber":90,"Velocity":45,"Duration":102272,"SoundDuration":102272,"Delta":44500409},{"NoteNumber":86,"Velocity":40,"Duration":102272,"SoundDuration":102272,"Delta":44500409},{"NoteNumber":81,"Velocity":40,"Duration":102272,"SoundDuration":102272,"Delta":44500409},{"NoteNumber":57,"Velocity":35,"Duration":102272,"SoundDuration":102272,"Delta":44500409},{"NoteNumber":66,"Velocity":39,"Duration":102272,"SoundDuration":102272,"Delta":44500409},{"NoteNumber":62,"Velocity":35,"Duration":238636,"SoundDuration":238636,"Delta":44500409},{"NoteNumber":69,"Velocity":39,"Duration":102272,"SoundDuration":102272,"Delta":44500409},{"NoteNumber":93,"Velocity":47,"Duration":102272,"SoundDuration":102272,"Delta":44636773},{"NoteNumber":90,"Velocity":47,"Duration":102272,"SoundDuration":102272,"Delta":44636773},{"NoteNumber":86,"Velocity":42,"Duration":102272,"SoundDuration":102272,"Delta":44636773},{"NoteNumber":81,"Velocity":42,"Duration":102272,"SoundDuration":102272,"Delta":44636773},{"NoteNumber":62,"Velocity":37,"Duration":238173,"SoundDuration":238173,"Delta":44636773},{"NoteNumber":66,"Velocity":42,"Duration":102272,"SoundDuration":102272,"Delta":44636773},{"NoteNumber":69,"Velocity":42,"Duration":102272,"SoundDuration":102272,"Delta":44636773},{"NoteNumber":57,"Velocity":37,"Duration":102272,"SoundDuration":102272,"Delta":44636773},{"NoteNumber":94,"Velocity":50,"Duration":101809,"SoundDuration":101809,"Delta":44773136},{"NoteNumber":90,"Velocity":50,"Duration":101809,"SoundDuration":101809,"Delta":44773136},{"NoteNumber":86,"Velocity":45,"Duration":101809,"SoundDuration":101809,"Delta":44773136},{"NoteNumber":82,"Velocity":45,"Duration":101809,"SoundDuration":101809,"Delta":44773136},{"NoteNumber":62,"Velocity":40,"Duration":237097,"SoundDuration":237097,"Delta":44773136},{"NoteNumber":66,"Velocity":45,"Duration":101809,"SoundDuration":101809,"Delta":44773136},{"NoteNumber":70,"Velocity":45,"Duration":101809,"SoundDuration":101809,"Delta":44773136},{"NoteNumber":58,"Velocity":40,"Duration":101809,"SoundDuration":101809,"Delta":44773136},{"NoteNumber":94,"Velocity":53,"Duration":101351,"SoundDuration":101351,"Delta":44908883},{"NoteNumber":90,"Velocity":53,"Duration":101351,"SoundDuration":101351,"Delta":44908883},{"NoteNumber":86,"Velocity":47,"Duration":101351,"SoundDuration":101351,"Delta":44908883},{"NoteNumber":82,"Velocity":47,"Duration":101351,"SoundDuration":101351,"Delta":44908883},{"NoteNumber":62,"Velocity":42,"Duration":236032,"SoundDuration":236032,"Delta":44908883},{"NoteNumber":66,"Velocity":47,"Duration":101351,"SoundDuration":101351,"Delta":44908883},{"NoteNumber":70,"Velocity":47,"Duration":101351,"SoundDuration":101351,"Delta":44908883},{"NoteNumber":58,"Velocity":42,"Duration":101351,"SoundDuration":101351,"Delta":44908883},{"NoteNumber":93,"Velocity":56,"Duration":100896,"SoundDuration":100896,"Delta":45044018},{"NoteNumber":90,"Velocity":56,"Duration":100896,"SoundDuration":100896,"Delta":45044018},{"NoteNumber":86,"Velocity":50,"Duration":100896,"SoundDuration":100896,"Delta":45044018},{"NoteNumber":81,"Velocity":50,"Duration":100896,"SoundDuration":100896,"Delta":45044018},{"NoteNumber":57,"Velocity":44,"Duration":100896,"SoundDuration":100896,"Delta":45044018},{"NoteNumber":66,"Velocity":49,"Duration":100896,"SoundDuration":100896,"Delta":45044018},{"NoteNumber":62,"Velocity":44,"Duration":234975,"SoundDuration":234975,"Delta":45044018},{"NoteNumber":69,"Velocity":49,"Duration":100896,"SoundDuration":100896,"Delta":45044018},{"NoteNumber":93,"Velocity":59,"Duration":100446,"SoundDuration":100446,"Delta":45178547},{"NoteNumber":90,"Velocity":59,"Duration":100446,"SoundDuration":100446,"Delta":45178547},{"NoteNumber":86,"Velocity":53,"Duration":100446,"SoundDuration":100446,"Delta":45178547},{"NoteNumber":81,"Velocity":53,"Duration":100446,"SoundDuration":100446,"Delta":45178547},{"NoteNumber":57,"Velocity":46,"Duration":100446,"SoundDuration":100446,"Delta":45178547},{"NoteNumber":66,"Velocity":52,"Duration":100446,"SoundDuration":100446,"Delta":45178547},{"NoteNumber":62,"Velocity":46,"Duration":233928,"SoundDuration":233928,"Delta":45178547},{"NoteNumber":69,"Velocity":52,"Duration":100446,"SoundDuration":100446,"Delta":45178547},{"NoteNumber":94,"Velocity":62,"Duration":99999,"SoundDuration":99999,"Delta":45312476},{"NoteNumber":90,"Velocity":62,"Duration":99999,"SoundDuration":99999,"Delta":45312476},{"NoteNumber":86,"Velocity":55,"Duration":99999,"SoundDuration":99999,"Delta":45312476},{"NoteNumber":82,"Velocity":55,"Duration":99999,"SoundDuration":99999,"Delta":45312476},{"NoteNumber":62,"Velocity":48,"Duration":232890,"SoundDuration":232890,"Delta":45312476},{"NoteNumber":66,"Velocity":54,"Duration":99999,"SoundDuration":99999,"Delta":45312476},{"NoteNumber":70,"Velocity":54,"Duration":99999,"SoundDuration":99999,"Delta":45312476},{"NoteNumber":58,"Velocity":48,"Duration":99999,"SoundDuration":99999,"Delta":45312476},{"NoteNumber":94,"Velocity":64,"Duration":99557,"SoundDuration":99557,"Delta":45445809},{"NoteNumber":90,"Velocity":64,"Duration":99557,"SoundDuration":99557,"Delta":45445809},{"NoteNumber":86,"Velocity":57,"Duration":99557,"SoundDuration":99557,"Delta":45445809},{"NoteNumber":82,"Velocity":57,"Duration":99557,"SoundDuration":99557,"Delta":45445809},{"NoteNumber":62,"Velocity":50,"Duration":231862,"SoundDuration":231862,"Delta":45445809},{"NoteNumber":66,"Velocity":56,"Duration":99557,"SoundDuration":99557,"Delta":45445809},{"NoteNumber":70,"Velocity":56,"Duration":99557,"SoundDuration":99557,"Delta":45445809},{"NoteNumber":58,"Velocity":50,"Duration":99557,"SoundDuration":99557,"Delta":45445809},{"NoteNumber":93,"Velocity":68,"Duration":99118,"SoundDuration":99118,"Delta":45578552},{"NoteNumber":90,"Velocity":68,"Duration":99118,"SoundDuration":99118,"Delta":45578552},{"NoteNumber":86,"Velocity":61,"Duration":99118,"SoundDuration":99118,"Delta":45578552},{"NoteNumber":81,"Velocity":61,"Duration":99118,"SoundDuration":99118,"Delta":45578552},{"NoteNumber":62,"Velocity":54,"Duration":230842,"SoundDuration":230842,"Delta":45578552},{"NoteNumber":66,"Velocity":60,"Duration":99118,"SoundDuration":99118,"Delta":45578552},{"NoteNumber":69,"Velocity":60,"Duration":99118,"SoundDuration":99118,"Delta":45578552},{"NoteNumber":57,"Velocity":54,"Duration":99118,"SoundDuration":99118,"Delta":45578552},{"NoteNumber":93,"Velocity":71,"Duration":98684,"SoundDuration":98684,"Delta":45710711},{"NoteNumber":90,"Velocity":71,"Duration":98684,"SoundDuration":98684,"Delta":45710711},{"NoteNumber":86,"Velocity":63,"Duration":98684,"SoundDuration":98684,"Delta":45710711},{"NoteNumber":81,"Velocity":63,"Duration":98684,"SoundDuration":98684,"Delta":45710711},{"NoteNumber":57,"Velocity":56,"Duration":98684,"SoundDuration":98684,"Delta":45710711},{"NoteNumber":66,"Velocity":63,"Duration":98684,"SoundDuration":98684,"Delta":45710711},{"NoteNumber":69,"Velocity":63,"Duration":98684,"SoundDuration":98684,"Delta":45710711},{"NoteNumber":62,"Velocity":56,"Duration":230023,"SoundDuration":230023,"Delta":45710711},{"NoteNumber":94,"Velocity":73,"Duration":98444,"SoundDuration":98444,"Delta":45842290},{"NoteNumber":90,"Velocity":73,"Duration":98444,"SoundDuration":98444,"Delta":45842290},{"NoteNumber":86,"Velocity":65,"Duration":98444,"SoundDuration":98444,"Delta":45842290},{"NoteNumber":82,"Velocity":65,"Duration":98444,"SoundDuration":98444,"Delta":45842290},{"NoteNumber":58,"Velocity":57,"Duration":98444,"SoundDuration":98444,"Delta":45842290},{"NoteNumber":66,"Velocity":64,"Duration":98444,"SoundDuration":98444,"Delta":45842290},{"NoteNumber":70,"Velocity":64,"Duration":98444,"SoundDuration":98444,"Delta":45842290},{"NoteNumber":62,"Velocity":57,"Duration":228974,"SoundDuration":228974,"Delta":45842290},{"NoteNumber":94,"Velocity":76,"Duration":97779,"SoundDuration":97779,"Delta":45973486},{"NoteNumber":90,"Velocity":76,"Duration":97779,"SoundDuration":97779,"Delta":45973486},{"NoteNumber":86,"Velocity":68,"Duration":97779,"SoundDuration":97779,"Delta":45973486},{"NoteNumber":82,"Velocity":68,"Duration":97779,"SoundDuration":97779,"Delta":45973486},{"NoteNumber":62,"Velocity":60,"Duration":227415,"SoundDuration":227415,"Delta":45973486},{"NoteNumber":58,"Velocity":60,"Duration":97779,"SoundDuration":97779,"Delta":45973486},{"NoteNumber":70,"Velocity":67,"Duration":97779,"SoundDuration":97779,"Delta":45973486},{"NoteNumber":66,"Velocity":67,"Duration":97779,"SoundDuration":97779,"Delta":45973486},{"NoteNumber":93,"Velocity":80,"Duration":97169,"SoundDuration":97169,"Delta":46103732},{"NoteNumber":90,"Velocity":80,"Duration":97169,"SoundDuration":97169,"Delta":46103732},{"NoteNumber":86,"Velocity":72,"Duration":97169,"SoundDuration":97169,"Delta":46103732},{"NoteNumber":81,"Velocity":72,"Duration":97169,"SoundDuration":97169,"Delta":46103732},{"NoteNumber":62,"Velocity":63,"Duration":129496,"SoundDuration":129496,"Delta":46103732},{"NoteNumber":57,"Velocity":63,"Duration":97169,"SoundDuration":97169,"Delta":46103732},{"NoteNumber":69,"Velocity":70,"Duration":97169,"SoundDuration":97169,"Delta":46103732},{"NoteNumber":66,"Velocity":70,"Duration":97169,"SoundDuration":97169,"Delta":46103732},{"NoteNumber":93,"Velocity":82,"Duration":96566,"SoundDuration":96566,"Delta":46233229},{"NoteNumber":90,"Velocity":82,"Duration":96566,"SoundDuration":96566,"Delta":46233229},{"NoteNumber":86,"Velocity":73,"Duration":96566,"SoundDuration":96566,"Delta":46233229},{"NoteNumber":81,"Velocity":73,"Duration":96566,"SoundDuration":96566,"Delta":46233229},{"NoteNumber":57,"Velocity":64,"Duration":96566,"SoundDuration":96566,"Delta":46233229},{"NoteNumber":66,"Velocity":72,"Duration":96566,"SoundDuration":96566,"Delta":46233229},{"NoteNumber":62,"Velocity":64,"Duration":96566,"SoundDuration":96566,"Delta":46233229},{"NoteNumber":69,"Velocity":72,"Duration":96566,"SoundDuration":96566,"Delta":46233229},{"NoteNumber":90,"Velocity":82,"Duration":96566,"SoundDuration":96566,"Delta":46490740},{"NoteNumber":78,"Velocity":82,"Duration":96566,"SoundDuration":96566,"Delta":46490740},{"NoteNumber":66,"Velocity":70,"Duration":96566,"SoundDuration":96566,"Delta":46490740},{"NoteNumber":87,"Velocity":82,"Duration":96566,"SoundDuration":96566,"Delta":46619495},{"NoteNumber":75,"Velocity":82,"Duration":96566,"SoundDuration":96566,"Delta":46619495},{"NoteNumber":63,"Velocity":70,"Duration":96566,"SoundDuration":96566,"Delta":46619495},{"NoteNumber":86,"Velocity":82,"Duration":96566,"SoundDuration":96566,"Delta":46748250},{"NoteNumber":74,"Velocity":82,"Duration":96566,"SoundDuration":96566,"Delta":46748250},{"NoteNumber":62,"Velocity":70,"Duration":96566,"SoundDuration":96566,"Delta":46748250},{"NoteNumber":84,"Velocity":82,"Duration":96566,"SoundDuration":96566,"Delta":46877005},{"NoteNumber":72,"Velocity":82,"Duration":96566,"SoundDuration":96566,"Delta":46877005},{"NoteNumber":60,"Velocity":70,"Duration":96566,"SoundDuration":96566,"Delta":46877005},{"NoteNumber":82,"Velocity":82,"Duration":96566,"SoundDuration":96566,"Delta":47005761},{"NoteNumber":70,"Velocity":82,"Duration":96566,"SoundDuration":96566,"Delta":47005761},{"NoteNumber":58,"Velocity":70,"Duration":96566,"SoundDuration":96566,"Delta":47005761},{"NoteNumber":81,"Velocity":82,"Duration":96566,"SoundDuration":96566,"Delta":47134516},{"NoteNumber":69,"Velocity":82,"Duration":96566,"SoundDuration":96566,"Delta":47134516},{"NoteNumber":57,"Velocity":70,"Duration":96566,"SoundDuration":96566,"Delta":47134516},{"NoteNumber":78,"Velocity":82,"Duration":96844,"SoundDuration":96844,"Delta":47263271},{"NoteNumber":66,"Velocity":82,"Duration":96844,"SoundDuration":96844,"Delta":47263271},{"NoteNumber":54,"Velocity":70,"Duration":96844,"SoundDuration":96844,"Delta":47263271},{"NoteNumber":75,"Velocity":82,"Duration":98063,"SoundDuration":98063,"Delta":47392583},{"NoteNumber":63,"Velocity":82,"Duration":98063,"SoundDuration":98063,"Delta":47392583},{"NoteNumber":51,"Velocity":70,"Duration":98063,"SoundDuration":98063,"Delta":47392583},{"NoteNumber":74,"Velocity":82,"Duration":98974,"SoundDuration":98974,"Delta":47523398},{"NoteNumber":62,"Velocity":82,"Duration":98974,"SoundDuration":98974,"Delta":47523398},{"NoteNumber":50,"Velocity":70,"Duration":98974,"SoundDuration":98974,"Delta":47523398},{"NoteNumber":72,"Velocity":82,"Duration":100247,"SoundDuration":100247,"Delta":47655558},{"NoteNumber":60,"Velocity":82,"Duration":100247,"SoundDuration":100247,"Delta":47655558},{"NoteNumber":48,"Velocity":70,"Duration":100247,"SoundDuration":100247,"Delta":47655558},{"NoteNumber":70,"Velocity":82,"Duration":101200,"SoundDuration":101200,"Delta":47789288},{"NoteNumber":58,"Velocity":82,"Duration":101200,"SoundDuration":101200,"Delta":47789288},{"NoteNumber":46,"Velocity":70,"Duration":101200,"SoundDuration":101200,"Delta":47789288},{"NoteNumber":69,"Velocity":82,"Duration":102532,"SoundDuration":102532,"Delta":47924425},{"NoteNumber":57,"Velocity":82,"Duration":102532,"SoundDuration":102532,"Delta":47924425},{"NoteNumber":45,"Velocity":70,"Duration":102532,"SoundDuration":102532,"Delta":47924425},{"NoteNumber":66,"Velocity":86,"Duration":138250,"SoundDuration":138250,"Delta":48061204},{"NoteNumber":42,"Velocity":74,"Duration":138250,"SoundDuration":138250,"Delta":48061204},{"NoteNumber":62,"Velocity":83,"Duration":139799,"SoundDuration":139799,"Delta":48199454},{"NoteNumber":38,"Velocity":70,"Duration":139799,"SoundDuration":139799,"Delta":48199454},{"NoteNumber":55,"Velocity":107,"Duration":339508,"SoundDuration":339508,"Delta":48339254},{"NoteNumber":43,"Velocity":97,"Duration":761290,"SoundDuration":761290,"Delta":48339254},{"NoteNumber":31,"Velocity":97,"Duration":761290,"SoundDuration":761290,"Delta":48339254},{"NoteNumber":67,"Velocity":67,"Duration":53794,"SoundDuration":53794,"Delta":48624969},{"NoteNumber":70,"Velocity":67,"Duration":53794,"SoundDuration":53794,"Delta":48624969},{"NoteNumber":74,"Velocity":75,"Duration":53794,"SoundDuration":53794,"Delta":48624969},{"NoteNumber":58,"Velocity":63,"Duration":53794,"SoundDuration":53794,"Delta":48624969},{"NoteNumber":50,"Velocity":56,"Duration":53794,"SoundDuration":53794,"Delta":48624969},{"NoteNumber":55,"Velocity":56,"Duration":148724,"SoundDuration":148724,"Delta":48624969},{"NoteNumber":62,"Velocity":63,"Duration":53794,"SoundDuration":53794,"Delta":48624969},{"NoteNumber":67,"Velocity":67,"Duration":53794,"SoundDuration":53794,"Delta":48719899},{"NoteNumber":70,"Velocity":67,"Duration":53794,"SoundDuration":53794,"Delta":48719899},{"NoteNumber":74,"Velocity":75,"Duration":53794,"SoundDuration":53794,"Delta":48719899},{"NoteNumber":58,"Velocity":63,"Duration":53794,"SoundDuration":53794,"Delta":48719899},{"NoteNumber":50,"Velocity":54,"Duration":53794,"SoundDuration":53794,"Delta":48719899},{"NoteNumber":55,"Velocity":54,"Duration":309216,"SoundDuration":309216,"Delta":48719899},{"NoteNumber":62,"Velocity":63,"Duration":53794,"SoundDuration":53794,"Delta":48719899},{"NoteNumber":67,"Velocity":67,"Duration":214285,"SoundDuration":214285,"Delta":48814830},{"NoteNumber":70,"Velocity":67,"Duration":214285,"SoundDuration":214285,"Delta":48814830},{"NoteNumber":74,"Velocity":75,"Duration":214285,"SoundDuration":214285,"Delta":48814830},{"NoteNumber":58,"Velocity":63,"Duration":213095,"SoundDuration":213095,"Delta":48814830},{"NoteNumber":50,"Velocity":54,"Duration":214285,"SoundDuration":214285,"Delta":48814830},{"NoteNumber":55,"Velocity":54,"Duration":285714,"SoundDuration":285714,"Delta":48814830},{"NoteNumber":62,"Velocity":63,"Duration":214285,"SoundDuration":214285,"Delta":48814830},{"NoteNumber":58,"Velocity":97,"Duration":104408,"SoundDuration":104408,"Delta":49100545},{"NoteNumber":34,"Velocity":87,"Duration":104408,"SoundDuration":104408,"Delta":49100545},{"NoteNumber":46,"Velocity":87,"Duration":104408,"SoundDuration":104408,"Delta":49100545},{"NoteNumber":62,"Velocity":97,"Duration":104408,"SoundDuration":104408,"Delta":49378967},{"NoteNumber":38,"Velocity":87,"Duration":104408,"SoundDuration":104408,"Delta":49378967},{"NoteNumber":50,"Velocity":87,"Duration":104408,"SoundDuration":104408,"Delta":49378967},{"NoteNumber":67,"Velocity":63,"Duration":135746,"SoundDuration":135746,"Delta":49657390},{"NoteNumber":70,"Velocity":71,"Duration":135746,"SoundDuration":135746,"Delta":49657390},{"NoteNumber":74,"Velocity":71,"Duration":135746,"SoundDuration":135746,"Delta":49657390},{"NoteNumber":62,"Velocity":64,"Duration":135746,"SoundDuration":135746,"Delta":49657390},{"NoteNumber":50,"Velocity":57,"Duration":135746,"SoundDuration":135746,"Delta":49657390},{"NoteNumber":55,"Velocity":57,"Duration":135746,"SoundDuration":135746,"Delta":49657390},{"NoteNumber":58,"Velocity":64,"Duration":134615,"SoundDuration":134615,"Delta":49657390},{"NoteNumber":58,"Velocity":94,"Duration":104166,"SoundDuration":104166,"Delta":49928883},{"NoteNumber":46,"Velocity":86,"Duration":104166,"SoundDuration":104166,"Delta":49928883},{"NoteNumber":34,"Velocity":86,"Duration":104166,"SoundDuration":104166,"Delta":49928883},{"NoteNumber":67,"Velocity":64,"Duration":135746,"SoundDuration":135746,"Delta":50206661},{"NoteNumber":70,"Velocity":72,"Duration":135746,"SoundDuration":135746,"Delta":50206661},{"NoteNumber":74,"Velocity":72,"Duration":135746,"SoundDuration":135746,"Delta":50206661},{"NoteNumber":58,"Velocity":65,"Duration":135746,"SoundDuration":135746,"Delta":50206661},{"NoteNumber":50,"Velocity":58,"Duration":135746,"SoundDuration":135746,"Delta":50206661},{"NoteNumber":55,"Velocity":58,"Duration":135746,"SoundDuration":135746,"Delta":50206661},{"NoteNumber":62,"Velocity":65,"Duration":135746,"SoundDuration":135746,"Delta":50206661},{"NoteNumber":55,"Velocity":92,"Duration":334857,"SoundDuration":334857,"Delta":50478154},{"NoteNumber":43,"Velocity":82,"Duration":750447,"SoundDuration":750447,"Delta":50478154},{"NoteNumber":31,"Velocity":82,"Duration":750447,"SoundDuration":750447,"Delta":50478154},{"NoteNumber":67,"Velocity":67,"Duration":54483,"SoundDuration":54483,"Delta":50758528},{"NoteNumber":74,"Velocity":75,"Duration":54483,"SoundDuration":54483,"Delta":50758528},{"NoteNumber":70,"Velocity":67,"Duration":54483,"SoundDuration":54483,"Delta":50758528},{"NoteNumber":62,"Velocity":63,"Duration":54483,"SoundDuration":54483,"Delta":50758528},{"NoteNumber":50,"Velocity":56,"Duration":54483,"SoundDuration":54483,"Delta":50758528},{"NoteNumber":55,"Velocity":56,"Duration":150631,"SoundDuration":150631,"Delta":50758528},{"NoteNumber":58,"Velocity":63,"Duration":54483,"SoundDuration":54483,"Delta":50758528},{"NoteNumber":67,"Velocity":67,"Duration":54483,"SoundDuration":54483,"Delta":50854675},{"NoteNumber":70,"Velocity":67,"Duration":54483,"SoundDuration":54483,"Delta":50854675},{"NoteNumber":74,"Velocity":75,"Duration":54483,"SoundDuration":54483,"Delta":50854675},{"NoteNumber":62,"Velocity":63,"Duration":54483,"SoundDuration":54483,"Delta":50854675},{"NoteNumber":50,"Velocity":54,"Duration":54483,"SoundDuration":54483,"Delta":50854675},{"NoteNumber":55,"Velocity":54,"Duration":304481,"SoundDuration":304481,"Delta":50854675},{"NoteNumber":58,"Velocity":63,"Duration":54483,"SoundDuration":54483,"Delta":50854675},{"NoteNumber":67,"Velocity":67,"Duration":208333,"SoundDuration":208333,"Delta":50950823},{"NoteNumber":70,"Velocity":67,"Duration":208333,"SoundDuration":208333,"Delta":50950823},{"NoteNumber":74,"Velocity":75,"Duration":208333,"SoundDuration":208333,"Delta":50950823},{"NoteNumber":58,"Velocity":63,"Duration":207176,"SoundDuration":207176,"Delta":50950823},{"NoteNumber":62,"Velocity":63,"Duration":208333,"SoundDuration":208333,"Delta":50950823},{"NoteNumber":55,"Velocity":54,"Duration":277777,"SoundDuration":277777,"Delta":50950823},{"NoteNumber":50,"Velocity":54,"Duration":208333,"SoundDuration":208333,"Delta":50950823},{"NoteNumber":58,"Velocity":97,"Duration":103467,"SoundDuration":103467,"Delta":51228601},{"NoteNumber":46,"Velocity":87,"Duration":103467,"SoundDuration":103467,"Delta":51228601},{"NoteNumber":34,"Velocity":87,"Duration":103467,"SoundDuration":103467,"Delta":51228601},{"NoteNumber":62,"Velocity":97,"Duration":103467,"SoundDuration":103467,"Delta":51504514},{"NoteNumber":50,"Velocity":87,"Duration":103467,"SoundDuration":103467,"Delta":51504514},{"NoteNumber":38,"Velocity":87,"Duration":103467,"SoundDuration":103467,"Delta":51504514},{"NoteNumber":70,"Velocity":71,"Duration":135135,"SoundDuration":135135,"Delta":51780427},{"NoteNumber":67,"Velocity":63,"Duration":135135,"SoundDuration":135135,"Delta":51780427},{"NoteNumber":74,"Velocity":71,"Duration":135135,"SoundDuration":135135,"Delta":51780427},{"NoteNumber":58,"Velocity":64,"Duration":135135,"SoundDuration":135135,"Delta":51780427},{"NoteNumber":62,"Velocity":64,"Duration":135135,"SoundDuration":135135,"Delta":51780427},{"NoteNumber":55,"Velocity":57,"Duration":135135,"SoundDuration":135135,"Delta":51780427},{"NoteNumber":50,"Velocity":57,"Duration":135135,"SoundDuration":135135,"Delta":51780427},{"NoteNumber":58,"Velocity":94,"Duration":102739,"SoundDuration":102739,"Delta":52050698},{"NoteNumber":34,"Velocity":86,"Duration":102739,"SoundDuration":102739,"Delta":52050698},{"NoteNumber":46,"Velocity":86,"Duration":102739,"SoundDuration":102739,"Delta":52050698},{"NoteNumber":67,"Velocity":64,"Duration":135135,"SoundDuration":135135,"Delta":52324670},{"NoteNumber":74,"Velocity":72,"Duration":135135,"SoundDuration":135135,"Delta":52324670},{"NoteNumber":70,"Velocity":72,"Duration":135135,"SoundDuration":135135,"Delta":52324670},{"NoteNumber":62,"Velocity":65,"Duration":135135,"SoundDuration":135135,"Delta":52324670},{"NoteNumber":55,"Velocity":58,"Duration":135135,"SoundDuration":135135,"Delta":52324670},{"NoteNumber":50,"Velocity":58,"Duration":135135,"SoundDuration":135135,"Delta":52324670},{"NoteNumber":58,"Velocity":65,"Duration":135135,"SoundDuration":135135,"Delta":52324670},{"NoteNumber":55,"Velocity":99,"Duration":333728,"SoundDuration":333728,"Delta":52594941},{"NoteNumber":31,"Velocity":88,"Duration":740446,"SoundDuration":740446,"Delta":52594941},{"NoteNumber":43,"Velocity":88,"Duration":740446,"SoundDuration":740446,"Delta":52594941},{"NoteNumber":67,"Velocity":57,"Duration":54658,"SoundDuration":54658,"Delta":52874011},{"NoteNumber":70,"Velocity":64,"Duration":54658,"SoundDuration":54658,"Delta":52874011},{"NoteNumber":74,"Velocity":72,"Duration":54658,"SoundDuration":54658,"Delta":52874011},{"NoteNumber":58,"Velocity":56,"Duration":54658,"SoundDuration":54658,"Delta":52874011},{"NoteNumber":62,"Velocity":56,"Duration":54658,"SoundDuration":54658,"Delta":52874011},{"NoteNumber":50,"Velocity":50,"Duration":54658,"SoundDuration":54658,"Delta":52874011},{"NoteNumber":55,"Velocity":50,"Duration":151115,"SoundDuration":151115,"Delta":52874011},{"NoteNumber":67,"Velocity":64,"Duration":54658,"SoundDuration":54658,"Delta":52970467},{"NoteNumber":74,"Velocity":72,"Duration":54658,"SoundDuration":54658,"Delta":52970467},{"NoteNumber":70,"Velocity":64,"Duration":54658,"SoundDuration":54658,"Delta":52970467},{"NoteNumber":62,"Velocity":56,"Duration":54658,"SoundDuration":54658,"Delta":52970467},{"NoteNumber":50,"Velocity":50,"Duration":54658,"SoundDuration":54658,"Delta":52970467},{"NoteNumber":58,"Velocity":56,"Duration":54658,"SoundDuration":54658,"Delta":52970467},{"NoteNumber":55,"Velocity":50,"Duration":297655,"SoundDuration":297655,"Delta":52970467},{"NoteNumber":67,"Velocity":57,"Duration":201198,"SoundDuration":201198,"Delta":53066924},{"NoteNumber":70,"Velocity":64,"Duration":201198,"SoundDuration":201198,"Delta":53066924},{"NoteNumber":74,"Velocity":72,"Duration":201198,"SoundDuration":201198,"Delta":53066924},{"NoteNumber":62,"Velocity":56,"Duration":200077,"SoundDuration":200077,"Delta":53066924},{"NoteNumber":55,"Velocity":50,"Duration":268463,"SoundDuration":268463,"Delta":53066924},{"NoteNumber":58,"Velocity":56,"Duration":201198,"SoundDuration":201198,"Delta":53066924},{"NoteNumber":50,"Velocity":50,"Duration":201198,"SoundDuration":201198,"Delta":53066924},{"NoteNumber":62,"Velocity":82,"Duration":137956,"SoundDuration":137956,"Delta":53335387},{"NoteNumber":50,"Velocity":73,"Duration":137956,"SoundDuration":137956,"Delta":53335387},{"NoteNumber":65,"Velocity":89,"Duration":137956,"SoundDuration":137956,"Delta":53473344},{"NoteNumber":53,"Velocity":78,"Duration":137956,"SoundDuration":137956,"Delta":53473344},{"NoteNumber":67,"Velocity":94,"Duration":351921,"SoundDuration":351921,"Delta":53611300},{"NoteNumber":55,"Velocity":82,"Duration":744088,"SoundDuration":744088,"Delta":53611300},{"NoteNumber":43,"Velocity":82,"Duration":744088,"SoundDuration":744088,"Delta":53611300},{"NoteNumber":70,"Velocity":76,"Duration":76008,"SoundDuration":76008,"Delta":53887213},{"NoteNumber":67,"Velocity":76,"Duration":177352,"SoundDuration":177352,"Delta":53887213},{"NoteNumber":62,"Velocity":68,"Duration":76008,"SoundDuration":76008,"Delta":53887213},{"NoteNumber":50,"Velocity":61,"Duration":76008,"SoundDuration":76008,"Delta":53887213},{"NoteNumber":58,"Velocity":68,"Duration":76008,"SoundDuration":76008,"Delta":53887213},{"NoteNumber":67,"Velocity":76,"Duration":300459,"SoundDuration":300459,"Delta":53988558},{"NoteNumber":70,"Velocity":76,"Duration":76008,"SoundDuration":76008,"Delta":53988558},{"NoteNumber":62,"Velocity":68,"Duration":76008,"SoundDuration":76008,"Delta":53988558},{"NoteNumber":58,"Velocity":68,"Duration":76008,"SoundDuration":76008,"Delta":53988558},{"NoteNumber":50,"Velocity":61,"Duration":76008,"SoundDuration":76008,"Delta":53988558},{"NoteNumber":70,"Velocity":76,"Duration":199114,"SoundDuration":199114,"Delta":54089902},{"NoteNumber":67,"Velocity":76,"Duration":265486,"SoundDuration":265486,"Delta":54089902},{"NoteNumber":58,"Velocity":68,"Duration":198008,"SoundDuration":198008,"Delta":54089902},{"NoteNumber":62,"Velocity":68,"Duration":199114,"SoundDuration":199114,"Delta":54089902},{"NoteNumber":50,"Velocity":61,"Duration":199114,"SoundDuration":199114,"Delta":54089902},{"NoteNumber":58,"Velocity":85,"Duration":137324,"SoundDuration":137324,"Delta":54355389},{"NoteNumber":46,"Velocity":76,"Duration":137324,"SoundDuration":137324,"Delta":54355389},{"NoteNumber":62,"Velocity":89,"Duration":137325,"SoundDuration":137325,"Delta":54492714},{"NoteNumber":50,"Velocity":81,"Duration":137325,"SoundDuration":137325,"Delta":54492714},{"NoteNumber":65,"Velocity":103,"Duration":730648,"SoundDuration":730648,"Delta":54630039},{"NoteNumber":53,"Velocity":90,"Duration":730648,"SoundDuration":730648,"Delta":54630039},{"NoteNumber":41,"Velocity":90,"Duration":730648,"SoundDuration":730648,"Delta":54630039},{"NoteNumber":70,"Velocity":84,"Duration":54309,"SoundDuration":54309,"Delta":54904689},{"NoteNumber":74,"Velocity":84,"Duration":54309,"SoundDuration":54309,"Delta":54904689},{"NoteNumber":58,"Velocity":73,"Duration":54309,"SoundDuration":54309,"Delta":54904689},{"NoteNumber":62,"Velocity":73,"Duration":54309,"SoundDuration":54309,"Delta":54904689},{"NoteNumber":50,"Velocity":65,"Duration":54309,"SoundDuration":54309,"Delta":54904689},{"NoteNumber":70,"Velocity":84,"Duration":54309,"SoundDuration":54309,"Delta":55000529},{"NoteNumber":74,"Velocity":84,"Duration":54309,"SoundDuration":54309,"Delta":55000529},{"NoteNumber":50,"Velocity":65,"Duration":54309,"SoundDuration":54309,"Delta":55000529},{"NoteNumber":62,"Velocity":73,"Duration":54309,"SoundDuration":54309,"Delta":55000529},{"NoteNumber":58,"Velocity":73,"Duration":54309,"SoundDuration":54309,"Delta":55000529},{"NoteNumber":74,"Velocity":84,"Duration":198237,"SoundDuration":198237,"Delta":55096370},{"NoteNumber":70,"Velocity":84,"Duration":198237,"SoundDuration":198237,"Delta":55096370},{"NoteNumber":50,"Velocity":65,"Duration":198237,"SoundDuration":198237,"Delta":55096370},{"NoteNumber":58,"Velocity":73,"Duration":197136,"SoundDuration":197136,"Delta":55096370},{"NoteNumber":62,"Velocity":73,"Duration":198237,"SoundDuration":198237,"Delta":55096370},{"NoteNumber":58,"Velocity":86,"Duration":136091,"SoundDuration":136091,"Delta":55360687},{"NoteNumber":46,"Velocity":77,"Duration":136091,"SoundDuration":136091,"Delta":55360687},{"NoteNumber":62,"Velocity":89,"Duration":136091,"SoundDuration":136091,"Delta":55496778},{"NoteNumber":50,"Velocity":81,"Duration":136091,"SoundDuration":136091,"Delta":55496778},{"NoteNumber":63,"Velocity":94,"Duration":735162,"SoundDuration":735162,"Delta":55632870},{"NoteNumber":51,"Velocity":85,"Duration":735162,"SoundDuration":735162,"Delta":55632870},{"NoteNumber":39,"Velocity":85,"Duration":735162,"SoundDuration":735162,"Delta":55632870},{"NoteNumber":72,"Velocity":81,"Duration":56287,"SoundDuration":56287,"Delta":55905053},{"NoteNumber":79,"Velocity":81,"Duration":56287,"SoundDuration":56287,"Delta":55905053},{"NoteNumber":67,"Velocity":72,"Duration":56287,"SoundDuration":56287,"Delta":55905053},{"NoteNumber":60,"Velocity":70,"Duration":56287,"SoundDuration":56287,"Delta":55905053},{"NoteNumber":55,"Velocity":63,"Duration":56287,"SoundDuration":56287,"Delta":55905053},{"NoteNumber":57,"Velocity":70,"Duration":56287,"SoundDuration":56287,"Delta":55905053},{"NoteNumber":79,"Velocity":81,"Duration":56287,"SoundDuration":56287,"Delta":56004384},{"NoteNumber":67,"Velocity":72,"Duration":56287,"SoundDuration":56287,"Delta":56004384},{"NoteNumber":72,"Velocity":81,"Duration":56287,"SoundDuration":56287,"Delta":56004384},{"NoteNumber":55,"Velocity":63,"Duration":56287,"SoundDuration":56287,"Delta":56004384},{"NoteNumber":60,"Velocity":70,"Duration":56287,"SoundDuration":56287,"Delta":56004384},{"NoteNumber":57,"Velocity":70,"Duration":56287,"SoundDuration":56287,"Delta":56004384},{"NoteNumber":72,"Velocity":81,"Duration":198237,"SoundDuration":198237,"Delta":56103715},{"NoteNumber":67,"Velocity":72,"Duration":198237,"SoundDuration":198237,"Delta":56103715},{"NoteNumber":79,"Velocity":81,"Duration":198237,"SoundDuration":198237,"Delta":56103715},{"NoteNumber":57,"Velocity":70,"Duration":198237,"SoundDuration":198237,"Delta":56103715},{"NoteNumber":55,"Velocity":63,"Duration":197136,"SoundDuration":197136,"Delta":56103715},{"NoteNumber":60,"Velocity":70,"Duration":198237,"SoundDuration":198237,"Delta":56103715},{"NoteNumber":55,"Velocity":90,"Duration":136091,"SoundDuration":136091,"Delta":56368032},{"NoteNumber":43,"Velocity":81,"Duration":136091,"SoundDuration":136091,"Delta":56368032},{"NoteNumber":57,"Velocity":91,"Duration":136091,"SoundDuration":136091,"Delta":56504124},{"NoteNumber":45,"Velocity":82,"Duration":136091,"SoundDuration":136091,"Delta":56504124},{"NoteNumber":62,"Velocity":97,"Duration":329418,"SoundDuration":329418,"Delta":56640215},{"NoteNumber":38,"Velocity":91,"Duration":738506,"SoundDuration":738506,"Delta":56640215},{"NoteNumber":50,"Velocity":91,"Duration":738506,"SoundDuration":738506,"Delta":56640215},{"NoteNumber":78,"Velocity":83,"Duration":57235,"SoundDuration":57235,"Delta":56912398},{"NoteNumber":74,"Velocity":83,"Duration":57235,"SoundDuration":57235,"Delta":56912398},{"NoteNumber":66,"Velocity":74,"Duration":57235,"SoundDuration":57235,"Delta":56912398},{"NoteNumber":57,"Velocity":73,"Duration":57235,"SoundDuration":57235,"Delta":56912398},{"NoteNumber":62,"Velocity":73,"Duration":158238,"SoundDuration":158238,"Delta":56912398},{"NoteNumber":54,"Velocity":65,"Duration":57235,"SoundDuration":57235,"Delta":56912398},{"NoteNumber":78,"Velocity":83,"Duration":57235,"SoundDuration":57235,"Delta":57013402},{"NoteNumber":66,"Velocity":74,"Duration":57235,"SoundDuration":57235,"Delta":57013402},{"NoteNumber":74,"Velocity":83,"Duration":57235,"SoundDuration":57235,"Delta":57013402},{"NoteNumber":62,"Velocity":73,"Duration":299241,"SoundDuration":299241,"Delta":57013402},{"NoteNumber":57,"Velocity":73,"Duration":57235,"SoundDuration":57235,"Delta":57013402},{"NoteNumber":54,"Velocity":65,"Duration":57235,"SoundDuration":57235,"Delta":57013402},{"NoteNumber":66,"Velocity":74,"Duration":198237,"SoundDuration":198237,"Delta":57114405},{"NoteNumber":74,"Velocity":83,"Duration":198237,"SoundDuration":198237,"Delta":57114405},{"NoteNumber":78,"Velocity":83,"Duration":198237,"SoundDuration":198237,"Delta":57114405},{"NoteNumber":57,"Velocity":73,"Duration":198237,"SoundDuration":198237,"Delta":57114405},{"NoteNumber":54,"Velocity":65,"Duration":198237,"SoundDuration":198237,"Delta":57114405},{"NoteNumber":62,"Velocity":73,"Duration":264316,"SoundDuration":264316,"Delta":57114405},{"NoteNumber":60,"Velocity":67,"Duration":136711,"SoundDuration":136711,"Delta":57378722},{"NoteNumber":48,"Velocity":59,"Duration":136711,"SoundDuration":136711,"Delta":57378722},{"NoteNumber":50,"Velocity":81,"Duration":785674,"SoundDuration":785674,"Delta":57652145},{"NoteNumber":38,"Velocity":72,"Duration":785674,"SoundDuration":785674,"Delta":57652145},{"NoteNumber":26,"Velocity":72,"Duration":785674,"SoundDuration":785674,"Delta":57652145},{"NoteNumber":63,"Velocity":65,"Duration":512250,"SoundDuration":512250,"Delta":57925569},{"NoteNumber":66,"Velocity":65,"Duration":512250,"SoundDuration":512250,"Delta":57925569},{"NoteNumber":69,"Velocity":73,"Duration":512250,"SoundDuration":512250,"Delta":57925569},{"NoteNumber":75,"Velocity":76,"Duration":512250,"SoundDuration":512250,"Delta":57925569},{"NoteNumber":54,"Velocity":57,"Duration":512250,"SoundDuration":512250,"Delta":57925569},{"NoteNumber":57,"Velocity":64,"Duration":512250,"SoundDuration":512250,"Delta":57925569},{"NoteNumber":60,"Velocity":64,"Duration":512250,"SoundDuration":512250,"Delta":57925569},{"NoteNumber":48,"Velocity":57,"Duration":512250,"SoundDuration":512250,"Delta":57925569},{"NoteNumber":59,"Velocity":63,"Duration":136711,"SoundDuration":136711,"Delta":58437820},{"NoteNumber":47,"Velocity":56,"Duration":136711,"SoundDuration":136711,"Delta":58437820},{"NoteNumber":50,"Velocity":72,"Duration":791011,"SoundDuration":791011,"Delta":58711243},{"NoteNumber":38,"Velocity":64,"Duration":791011,"SoundDuration":791011,"Delta":58711243},{"NoteNumber":26,"Velocity":64,"Duration":791011,"SoundDuration":791011,"Delta":58711243},{"NoteNumber":63,"Velocity":55,"Duration":517587,"SoundDuration":517587,"Delta":58984667},{"NoteNumber":67,"Velocity":55,"Duration":517587,"SoundDuration":517587,"Delta":58984667},{"NoteNumber":71,"Velocity":62,"Duration":517587,"SoundDuration":517587,"Delta":58984667},{"NoteNumber":75,"Velocity":65,"Duration":517587,"SoundDuration":517587,"Delta":58984667},{"NoteNumber":51,"Velocity":49,"Duration":517587,"SoundDuration":517587,"Delta":58984667},{"NoteNumber":55,"Velocity":55,"Duration":517587,"SoundDuration":517587,"Delta":58984667},{"NoteNumber":59,"Velocity":55,"Duration":517587,"SoundDuration":517587,"Delta":58984667},{"NoteNumber":47,"Velocity":49,"Duration":517587,"SoundDuration":517587,"Delta":58984667},{"NoteNumber":58,"Velocity":59,"Duration":136711,"SoundDuration":136711,"Delta":59502254},{"NoteNumber":46,"Velocity":54,"Duration":136711,"SoundDuration":136711,"Delta":59502254},{"NoteNumber":50,"Velocity":68,"Duration":793807,"SoundDuration":793807,"Delta":59775678},{"NoteNumber":26,"Velocity":62,"Duration":793807,"SoundDuration":793807,"Delta":59775678},{"NoteNumber":38,"Velocity":62,"Duration":793807,"SoundDuration":793807,"Delta":59775678},{"NoteNumber":62,"Velocity":48,"Duration":520384,"SoundDuration":520384,"Delta":60049101},{"NoteNumber":67,"Velocity":54,"Duration":520384,"SoundDuration":520384,"Delta":60049101},{"NoteNumber":74,"Velocity":57,"Duration":520384,"SoundDuration":520384,"Delta":60049101},{"NoteNumber":46,"Velocity":43,"Duration":520384,"SoundDuration":520384,"Delta":60049101},{"NoteNumber":55,"Velocity":48,"Duration":520384,"SoundDuration":520384,"Delta":60049101},{"NoteNumber":58,"Velocity":48,"Duration":520384,"SoundDuration":520384,"Delta":60049101},{"NoteNumber":50,"Velocity":43,"Duration":520384,"SoundDuration":520384,"Delta":60049101},{"NoteNumber":57,"Velocity":61,"Duration":136711,"SoundDuration":136711,"Delta":60569486},{"NoteNumber":45,"Velocity":53,"Duration":136711,"SoundDuration":136711,"Delta":60569486},{"NoteNumber":50,"Velocity":69,"Duration":366784,"SoundDuration":366784,"Delta":60842909},{"NoteNumber":26,"Velocity":63,"Duration":786702,"SoundDuration":786702,"Delta":60842909},{"NoteNumber":38,"Velocity":63,"Duration":786702,"SoundDuration":786702,"Delta":60842909},{"NoteNumber":62,"Velocity":43,"Duration":93360,"SoundDuration":93360,"Delta":61116333},{"NoteNumber":74,"Velocity":48,"Duration":93360,"SoundDuration":93360,"Delta":61116333},{"NoteNumber":67,"Velocity":48,"Duration":93360,"SoundDuration":93360,"Delta":61116333},{"NoteNumber":50,"Velocity":39,"Duration":217842,"SoundDuration":217842,"Delta":61116333},{"NoteNumber":55,"Velocity":44,"Duration":93360,"SoundDuration":93360,"Delta":61116333},{"NoteNumber":57,"Velocity":44,"Duration":93360,"SoundDuration":93360,"Delta":61116333},{"NoteNumber":45,"Velocity":39,"Duration":93360,"SoundDuration":93360,"Delta":61116333},{"NoteNumber":62,"Velocity":43,"Duration":93360,"SoundDuration":93360,"Delta":61240814},{"NoteNumber":67,"Velocity":48,"Duration":93360,"SoundDuration":93360,"Delta":61240814},{"NoteNumber":74,"Velocity":48,"Duration":93360,"SoundDuration":93360,"Delta":61240814},{"NoteNumber":45,"Velocity":39,"Duration":93360,"SoundDuration":93360,"Delta":61240814},{"NoteNumber":55,"Velocity":44,"Duration":93360,"SoundDuration":93360,"Delta":61240814},{"NoteNumber":57,"Velocity":44,"Duration":93360,"SoundDuration":93360,"Delta":61240814},{"NoteNumber":50,"Velocity":39,"Duration":388798,"SoundDuration":388798,"Delta":61240814},{"NoteNumber":62,"Velocity":43,"Duration":264316,"SoundDuration":264316,"Delta":61365295},{"NoteNumber":67,"Velocity":48,"Duration":264316,"SoundDuration":264316,"Delta":61365295},{"NoteNumber":74,"Velocity":48,"Duration":264316,"SoundDuration":264316,"Delta":61365295},{"NoteNumber":45,"Velocity":39,"Duration":264316,"SoundDuration":264316,"Delta":61365295},{"NoteNumber":55,"Velocity":44,"Duration":264316,"SoundDuration":264316,"Delta":61365295},{"NoteNumber":50,"Velocity":39,"Duration":264316,"SoundDuration":264316,"Delta":61365295},{"NoteNumber":57,"Velocity":60,"Duration":102533,"SoundDuration":102533,"Delta":61629612},{"NoteNumber":45,"Velocity":54,"Duration":102533,"SoundDuration":102533,"Delta":61629612},{"NoteNumber":50,"Velocity":63,"Duration":102533,"SoundDuration":102533,"Delta":61903036},{"NoteNumber":26,"Velocity":55,"Duration":102533,"SoundDuration":102533,"Delta":61903036},{"NoteNumber":38,"Velocity":55,"Duration":102533,"SoundDuration":102533,"Delta":61903036},{"NoteNumber":56,"Velocity":58,"Duration":100276,"SoundDuration":100276,"Delta":62176459},{"NoteNumber":44,"Velocity":53,"Duration":100276,"SoundDuration":100276,"Delta":62176459},{"NoteNumber":50,"Velocity":62,"Duration":100276,"SoundDuration":100276,"Delta":62443863},{"NoteNumber":38,"Velocity":56,"Duration":100276,"SoundDuration":100276,"Delta":62443863},{"NoteNumber":26,"Velocity":56,"Duration":100276,"SoundDuration":100276,"Delta":62443863},{"NoteNumber":55,"Velocity":53,"Duration":102533,"SoundDuration":102533,"Delta":62711266},{"NoteNumber":43,"Velocity":46,"Duration":102533,"SoundDuration":102533,"Delta":62711266},{"NoteNumber":50,"Velocity":61,"Duration":346073,"SoundDuration":346073,"Delta":62984690},{"NoteNumber":38,"Velocity":51,"Duration":797691,"SoundDuration":797691,"Delta":62984690},{"NoteNumber":26,"Velocity":51,"Duration":797691,"SoundDuration":797691,"Delta":62984690},{"NoteNumber":62,"Velocity":44,"Duration":72649,"SoundDuration":72649,"Delta":63258113},{"NoteNumber":67,"Velocity":49,"Duration":72649,"SoundDuration":72649,"Delta":63258113},{"NoteNumber":74,"Velocity":49,"Duration":72649,"SoundDuration":72649,"Delta":63258113},{"NoteNumber":45,"Velocity":40,"Duration":72649,"SoundDuration":72649,"Delta":63258113},{"NoteNumber":55,"Velocity":45,"Duration":72649,"SoundDuration":72649,"Delta":63258113},{"NoteNumber":50,"Velocity":45,"Duration":200854,"SoundDuration":200854,"Delta":63258113},{"NoteNumber":62,"Velocity":44,"Duration":72649,"SoundDuration":72649,"Delta":63386318},{"NoteNumber":67,"Velocity":49,"Duration":72649,"SoundDuration":72649,"Delta":63386318},{"NoteNumber":74,"Velocity":49,"Duration":72649,"SoundDuration":72649,"Delta":63386318},{"NoteNumber":50,"Velocity":45,"Duration":329098,"SoundDuration":329098,"Delta":63386318},{"NoteNumber":45,"Velocity":40,"Duration":72649,"SoundDuration":72649,"Delta":63386318},{"NoteNumber":55,"Velocity":45,"Duration":72649,"SoundDuration":72649,"Delta":63386318},{"NoteNumber":62,"Velocity":44,"Duration":200892,"SoundDuration":200892,"Delta":63514524},{"NoteNumber":67,"Velocity":49,"Duration":200892,"SoundDuration":200892,"Delta":63514524},{"NoteNumber":74,"Velocity":49,"Duration":200892,"SoundDuration":200892,"Delta":63514524},{"NoteNumber":50,"Velocity":45,"Duration":267856,"SoundDuration":267856,"Delta":63514524},{"NoteNumber":55,"Velocity":45,"Duration":199776,"SoundDuration":199776,"Delta":63514524},{"NoteNumber":45,"Velocity":40,"Duration":200892,"SoundDuration":200892,"Delta":63514524},{"NoteNumber":55,"Velocity":46,"Duration":136711,"SoundDuration":136711,"Delta":63782381},{"NoteNumber":43,"Velocity":43,"Duration":136711,"SoundDuration":136711,"Delta":63782381},{"NoteNumber":50,"Velocity":54,"Duration":349526,"SoundDuration":349526,"Delta":64055804},{"NoteNumber":38,"Velocity":48,"Duration":810624,"SoundDuration":810624,"Delta":64055804},{"NoteNumber":26,"Velocity":48,"Duration":810624,"SoundDuration":810624,"Delta":64055804},{"NoteNumber":62,"Velocity":46,"Duration":76103,"SoundDuration":76103,"Delta":64329228},{"NoteNumber":55,"Velocity":46,"Duration":76103,"SoundDuration":76103,"Delta":64329228},{"NoteNumber":50,"Velocity":40,"Duration":210403,"SoundDuration":210403,"Delta":64329228},{"NoteNumber":45,"Velocity":40,"Duration":76103,"SoundDuration":76103,"Delta":64329228},{"NoteNumber":55,"Velocity":46,"Duration":76103,"SoundDuration":76103,"Delta":64463528},{"NoteNumber":62,"Velocity":46,"Duration":76103,"SoundDuration":76103,"Delta":64463528},{"NoteNumber":45,"Velocity":40,"Duration":76103,"SoundDuration":76103,"Delta":64463528},{"NoteNumber":50,"Velocity":40,"Duration":335750,"SoundDuration":335750,"Delta":64463528},{"NoteNumber":55,"Velocity":46,"Duration":201450,"SoundDuration":201450,"Delta":64597828},{"NoteNumber":62,"Velocity":46,"Duration":201450,"SoundDuration":201450,"Delta":64597828},{"NoteNumber":45,"Velocity":40,"Duration":201450,"SoundDuration":201450,"Delta":64597828},{"NoteNumber":50,"Velocity":40,"Duration":268600,"SoundDuration":268600,"Delta":64597828},{"NoteNumber":54,"Velocity":42,"Duration":137956,"SoundDuration":137956,"Delta":64866429},{"NoteNumber":42,"Velocity":36,"Duration":137956,"SoundDuration":137956,"Delta":64866429},{"NoteNumber":50,"Velocity":51,"Duration":353031,"SoundDuration":353031,"Delta":65142342},{"NoteNumber":26,"Velocity":46,"Duration":820278,"SoundDuration":820278,"Delta":65142342},{"NoteNumber":38,"Velocity":46,"Duration":820278,"SoundDuration":820278,"Delta":65142342},{"NoteNumber":54,"Velocity":36,"Duration":77118,"SoundDuration":77118,"Delta":65418255},{"NoteNumber":62,"Velocity":36,"Duration":77118,"SoundDuration":77118,"Delta":65418255},{"NoteNumber":45,"Velocity":31,"Duration":77118,"SoundDuration":77118,"Delta":65418255},{"NoteNumber":50,"Velocity":31,"Duration":213210,"SoundDuration":213210,"Delta":65418255},{"NoteNumber":54,"Velocity":36,"Duration":77118,"SoundDuration":77118,"Delta":65554346},{"NoteNumber":62,"Velocity":36,"Duration":77118,"SoundDuration":77118,"Delta":65554346},{"NoteNumber":45,"Velocity":31,"Duration":77118,"SoundDuration":77118,"Delta":65554346},{"NoteNumber":50,"Velocity":31,"Duration":340228,"SoundDuration":340228,"Delta":65554346},{"NoteNumber":54,"Velocity":36,"Duration":204137,"SoundDuration":204137,"Delta":65690438},{"NoteNumber":62,"Velocity":36,"Duration":204137,"SoundDuration":204137,"Delta":65690438},{"NoteNumber":45,"Velocity":31,"Duration":204137,"SoundDuration":204137,"Delta":65690438},{"NoteNumber":50,"Velocity":31,"Duration":272182,"SoundDuration":272182,"Delta":65690438},{"NoteNumber":45,"Velocity":39,"Duration":137956,"SoundDuration":137956,"Delta":65962621},{"NoteNumber":38,"Velocity":45,"Duration":827738,"SoundDuration":827738,"Delta":66238534},{"NoteNumber":54,"Velocity":32,"Duration":78175,"SoundDuration":78175,"Delta":66514447},{"NoteNumber":62,"Velocity":32,"Duration":78175,"SoundDuration":78175,"Delta":66514447},{"NoteNumber":54,"Velocity":32,"Duration":78175,"SoundDuration":78175,"Delta":66652403},{"NoteNumber":62,"Velocity":32,"Duration":78175,"SoundDuration":78175,"Delta":66652403},{"NoteNumber":54,"Velocity":32,"Duration":206934,"SoundDuration":206934,"Delta":66790360},{"NoteNumber":62,"Velocity":32,"Duration":206934,"SoundDuration":206934,"Delta":66790360},{"NoteNumber":45,"Velocity":37,"Duration":137956,"SoundDuration":137956,"Delta":67066273},{"NoteNumber":38,"Velocity":44,"Duration":827738,"SoundDuration":827738,"Delta":67342186},{"NoteNumber":50,"Velocity":33,"Duration":78175,"SoundDuration":78175,"Delta":67618099},{"NoteNumber":50,"Velocity":33,"Duration":78175,"SoundDuration":78175,"Delta":67756055},{"NoteNumber":50,"Velocity":33,"Duration":206934,"SoundDuration":206934,"Delta":67894012},{"NoteNumber":45,"Velocity":36,"Duration":137956,"SoundDuration":137956,"Delta":68169925},{"NoteNumber":38,"Velocity":43,"Duration":827739,"SoundDuration":827739,"Delta":68445838},{"NoteNumber":50,"Velocity":33,"Duration":78175,"SoundDuration":78175,"Delta":68721751},{"NoteNumber":50,"Velocity":33,"Duration":78175,"SoundDuration":78175,"Delta":68859707},{"NoteNumber":50,"Velocity":33,"Duration":206934,"SoundDuration":206934,"Delta":68997664},{"NoteNumber":38,"Velocity":31,"Duration":103467,"SoundDuration":103467,"Delta":69273577},{"NoteNumber":26,"Velocity":31,"Duration":103467,"SoundDuration":103467,"Delta":69273577},{"NoteNumber":26,"Velocity":31,"Duration":103467,"SoundDuration":103467,"Delta":69411533},{"NoteNumber":38,"Velocity":31,"Duration":103467,"SoundDuration":103467,"Delta":69411533},{"NoteNumber":26,"Velocity":30,"Duration":131457,"SoundDuration":131457,"Delta":69549490},{"NoteNumber":38,"Velocity":30,"Duration":131457,"SoundDuration":131457,"Delta":69549490},{"NoteNumber":45,"Velocity":32,"Duration":131457,"SoundDuration":131457,"Delta":69680947},{"NoteNumber":50,"Velocity":35,"Duration":131457,"SoundDuration":131457,"Delta":69812405},{"NoteNumber":81,"Velocity":46,"Duration":392207,"SoundDuration":392207,"Delta":69943863},{"NoteNumber":78,"Velocity":32,"Duration":392207,"SoundDuration":392207,"Delta":69943863},{"NoteNumber":74,"Velocity":32,"Duration":392207,"SoundDuration":392207,"Delta":69943863},{"NoteNumber":69,"Velocity":32,"Duration":392207,"SoundDuration":392207,"Delta":69943863},{"NoteNumber":54,"Velocity":36,"Duration":130735,"SoundDuration":130735,"Delta":69943863},{"NoteNumber":60,"Velocity":39,"Duration":130735,"SoundDuration":130735,"Delta":70074599},{"NoteNumber":62,"Velocity":41,"Duration":130735,"SoundDuration":130735,"Delta":70205335},{"NoteNumber":69,"Velocity":33,"Duration":390168,"SoundDuration":390168,"Delta":70336071},{"NoteNumber":74,"Velocity":33,"Duration":390168,"SoundDuration":390168,"Delta":70336071},{"NoteNumber":78,"Velocity":33,"Duration":390168,"SoundDuration":390168,"Delta":70336071},{"NoteNumber":81,"Velocity":48,"Duration":390168,"SoundDuration":390168,"Delta":70336071},{"NoteNumber":66,"Velocity":44,"Duration":130055,"SoundDuration":130055,"Delta":70336071},{"NoteNumber":62,"Velocity":43,"Duration":130056,"SoundDuration":130056,"Delta":70466127},{"NoteNumber":60,"Velocity":41,"Duration":130055,"SoundDuration":130055,"Delta":70596183},{"NoteNumber":70,"Velocity":36,"Duration":388199,"SoundDuration":388199,"Delta":70726239},{"NoteNumber":74,"Velocity":36,"Duration":388199,"SoundDuration":388199,"Delta":70726239},{"NoteNumber":78,"Velocity":36,"Duration":388199,"SoundDuration":388199,"Delta":70726239},{"NoteNumber":82,"Velocity":54,"Duration":388199,"SoundDuration":388199,"Delta":70726239},{"NoteNumber":54,"Velocity":39,"Duration":129399,"SoundDuration":129399,"Delta":70726239},{"NoteNumber":50,"Velocity":38,"Duration":129399,"SoundDuration":129399,"Delta":70855639},{"NoteNumber":45,"Velocity":36,"Duration":129399,"SoundDuration":129399,"Delta":70985038},{"NoteNumber":74,"Velocity":40,"Duration":770078,"SoundDuration":770078,"Delta":71114438},{"NoteNumber":72,"Velocity":40,"Duration":770078,"SoundDuration":770078,"Delta":71114438},{"NoteNumber":78,"Velocity":40,"Duration":770078,"SoundDuration":770078,"Delta":71114438},{"NoteNumber":84,"Velocity":58,"Duration":770078,"SoundDuration":770078,"Delta":71114438},{"NoteNumber":38,"Velocity":35,"Duration":128733,"SoundDuration":128733,"Delta":71114438},{"NoteNumber":45,"Velocity":36,"Duration":128733,"SoundDuration":128733,"Delta":71243171},{"NoteNumber":50,"Velocity":36,"Duration":128733,"SoundDuration":128733,"Delta":71371905},{"NoteNumber":54,"Velocity":38,"Duration":128073,"SoundDuration":128073,"Delta":71500638},{"NoteNumber":60,"Velocity":39,"Duration":128073,"SoundDuration":128073,"Delta":71628712},{"NoteNumber":62,"Velocity":40,"Duration":127731,"SoundDuration":127731,"Delta":71756786},{"NoteNumber":70,"Velocity":36,"Duration":382850,"SoundDuration":382850,"Delta":71884517},{"NoteNumber":82,"Velocity":52,"Duration":382850,"SoundDuration":382850,"Delta":71884517},{"NoteNumber":74,"Velocity":32,"Duration":768391,"SoundDuration":768391,"Delta":71884517},{"NoteNumber":78,"Velocity":32,"Duration":768391,"SoundDuration":768391,"Delta":71884517},{"NoteNumber":66,"Velocity":43,"Duration":127388,"SoundDuration":127388,"Delta":71884517},{"NoteNumber":62,"Velocity":41,"Duration":127388,"SoundDuration":127388,"Delta":72011906},{"NoteNumber":60,"Velocity":40,"Duration":128073,"SoundDuration":128073,"Delta":72139294},{"NoteNumber":69,"Velocity":36,"Duration":385540,"SoundDuration":385540,"Delta":72267368},{"NoteNumber":81,"Velocity":52,"Duration":385540,"SoundDuration":385540,"Delta":72267368},{"NoteNumber":54,"Velocity":38,"Duration":128073,"SoundDuration":128073,"Delta":72267368},{"NoteNumber":50,"Velocity":37,"Duration":128733,"SoundDuration":128733,"Delta":72395442},{"NoteNumber":45,"Velocity":36,"Duration":128733,"SoundDuration":128733,"Delta":72524175},{"NoteNumber":67,"Velocity":36,"Duration":388855,"SoundDuration":388855,"Delta":72652908},{"NoteNumber":79,"Velocity":52,"Duration":388855,"SoundDuration":388855,"Delta":72652908},{"NoteNumber":72,"Velocity":32,"Duration":1573349,"SoundDuration":1573349,"Delta":72652908},{"NoteNumber":75,"Velocity":32,"Duration":1573349,"SoundDuration":1573349,"Delta":72652908},{"NoteNumber":38,"Velocity":33,"Duration":129399,"SoundDuration":129399,"Delta":72652908},{"NoteNumber":45,"Velocity":35,"Duration":129399,"SoundDuration":129399,"Delta":72782308},{"NoteNumber":50,"Velocity":36,"Duration":130055,"SoundDuration":130055,"Delta":72911708},{"NoteNumber":69,"Velocity":36,"Duration":391528,"SoundDuration":391528,"Delta":73041764},{"NoteNumber":81,"Velocity":52,"Duration":391528,"SoundDuration":391528,"Delta":73041764},{"NoteNumber":55,"Velocity":37,"Duration":130055,"SoundDuration":130055,"Delta":73041764},{"NoteNumber":60,"Velocity":39,"Duration":130735,"SoundDuration":130735,"Delta":73171820},{"NoteNumber":63,"Velocity":40,"Duration":130736,"SoundDuration":130736,"Delta":73302556},{"NoteNumber":70,"Velocity":39,"Duration":792966,"SoundDuration":792966,"Delta":73433292},{"NoteNumber":82,"Velocity":57,"Duration":792966,"SoundDuration":792966,"Delta":73433292},{"NoteNumber":67,"Velocity":39,"Duration":131457,"SoundDuration":131457,"Delta":73433292},{"NoteNumber":63,"Velocity":38,"Duration":131457,"SoundDuration":131457,"Delta":73564750},{"NoteNumber":60,"Velocity":37,"Duration":132170,"SoundDuration":132170,"Delta":73696207},{"NoteNumber":55,"Velocity":36,"Duration":132170,"SoundDuration":132170,"Delta":73828378},{"NoteNumber":50,"Velocity":35,"Duration":132855,"SoundDuration":132855,"Delta":73960548},{"NoteNumber":45,"Velocity":34,"Duration":132855,"SoundDuration":132855,"Delta":74093403},{"NoteNumber":66,"Velocity":34,"Duration":795991,"SoundDuration":795991,"Delta":74226258},{"NoteNumber":78,"Velocity":49,"Duration":799312,"SoundDuration":799312,"Delta":74226258},{"NoteNumber":74,"Velocity":30,"Duration":1590197,"SoundDuration":1590197,"Delta":74226258},{"NoteNumber":72,"Velocity":30,"Duration":1590197,"SoundDuration":1590197,"Delta":74226258},{"NoteNumber":38,"Velocity":35,"Duration":133582,"SoundDuration":133582,"Delta":74226258},{"NoteNumber":45,"Velocity":35,"Duration":133582,"SoundDuration":133582,"Delta":74359840},{"NoteNumber":50,"Velocity":35,"Duration":133582,"SoundDuration":133582,"Delta":74493423},{"NoteNumber":54,"Velocity":35,"Duration":132855,"SoundDuration":132855,"Delta":74627006},{"NoteNumber":60,"Velocity":35,"Duration":132854,"SoundDuration":132854,"Delta":74759861},{"NoteNumber":62,"Velocity":35,"Duration":132855,"SoundDuration":132855,"Delta":74892716},{"NoteNumber":69,"Velocity":34,"Duration":790884,"SoundDuration":790884,"Delta":75025571},{"NoteNumber":81,"Velocity":49,"Duration":790884,"SoundDuration":790884,"Delta":75025571},{"NoteNumber":66,"Velocity":34,"Duration":132170,"SoundDuration":132170,"Delta":75025571},{"NoteNumber":62,"Velocity":34,"Duration":132170,"SoundDuration":132170,"Delta":75157741},{"NoteNumber":60,"Velocity":33,"Duration":132170,"SoundDuration":132170,"Delta":75289911},{"NoteNumber":57,"Velocity":34,"Duration":197186,"SoundDuration":197186,"Delta":75422081},{"NoteNumber":54,"Velocity":32,"Duration":131457,"SoundDuration":131457,"Delta":75422081},{"NoteNumber":50,"Velocity":31,"Duration":131457,"SoundDuration":131457,"Delta":75553539},{"NoteNumber":60,"Velocity":34,"Duration":856560,"SoundDuration":856560,"Delta":75619268},{"NoteNumber":45,"Velocity":31,"Duration":131457,"SoundDuration":131457,"Delta":75684997},{"NoteNumber":54,"Velocity":45,"Duration":525790,"SoundDuration":525790,"Delta":75816455},{"NoteNumber":62,"Velocity":45,"Duration":792228,"SoundDuration":792228,"Delta":75816455},{"NoteNumber":38,"Velocity":35,"Duration":130735,"SoundDuration":130735,"Delta":75816455},{"NoteNumber":26,"Velocity":35,"Duration":130735,"SoundDuration":130735,"Delta":75816455},{"NoteNumber":45,"Velocity":36,"Duration":130735,"SoundDuration":130735,"Delta":75947191},{"NoteNumber":50,"Velocity":37,"Duration":130735,"SoundDuration":130735,"Delta":76077927},{"NoteNumber":81,"Velocity":50,"Duration":400020,"SoundDuration":400020,"Delta":76208663},{"NoteNumber":78,"Velocity":32,"Duration":400020,"SoundDuration":400020,"Delta":76208663},{"NoteNumber":74,"Velocity":32,"Duration":400020,"SoundDuration":400020,"Delta":76208663},{"NoteNumber":69,"Velocity":32,"Duration":400020,"SoundDuration":400020,"Delta":76208663},{"NoteNumber":54,"Velocity":39,"Duration":927257,"SoundDuration":927257,"Delta":76208663},{"NoteNumber":60,"Velocity":41,"Duration":662578,"SoundDuration":662578,"Delta":76342245},{"NoteNumber":62,"Velocity":43,"Duration":397537,"SoundDuration":397537,"Delta":76475828},{"NoteNumber":69,"Velocity":33,"Duration":396140,"SoundDuration":396140,"Delta":76608683},{"NoteNumber":74,"Velocity":33,"Duration":396140,"SoundDuration":396140,"Delta":76608683},{"NoteNumber":78,"Velocity":33,"Duration":396140,"SoundDuration":396140,"Delta":76608683},{"NoteNumber":81,"Velocity":52,"Duration":396140,"SoundDuration":396140,"Delta":76608683},{"NoteNumber":66,"Velocity":44,"Duration":132512,"SoundDuration":132512,"Delta":76608683},{"NoteNumber":62,"Velocity":43,"Duration":655856,"SoundDuration":655856,"Delta":76741196},{"NoteNumber":60,"Velocity":41,"Duration":523686,"SoundDuration":523686,"Delta":76873366},{"NoteNumber":70,"Velocity":36,"Duration":392228,"SoundDuration":392228,"Delta":77004824},{"NoteNumber":74,"Velocity":36,"Duration":392228,"SoundDuration":392228,"Delta":77004824},{"NoteNumber":78,"Velocity":36,"Duration":392228,"SoundDuration":392228,"Delta":77004824},{"NoteNumber":82,"Velocity":58,"Duration":392228,"SoundDuration":392228,"Delta":77004824},{"NoteNumber":54,"Velocity":39,"Duration":392228,"SoundDuration":392228,"Delta":77004824},{"NoteNumber":50,"Velocity":38,"Duration":130735,"SoundDuration":130735,"Delta":77135921},{"NoteNumber":45,"Velocity":36,"Duration":130395,"SoundDuration":130395,"Delta":77266657},{"NoteNumber":75,"Velocity":36,"Duration":773060,"SoundDuration":773060,"Delta":77397053},{"NoteNumber":72,"Velocity":40,"Duration":773060,"SoundDuration":773060,"Delta":77397053},{"NoteNumber":79,"Velocity":36,"Duration":773060,"SoundDuration":773060,"Delta":77397053},{"NoteNumber":84,"Velocity":63,"Duration":773060,"SoundDuration":773060,"Delta":77397053},{"NoteNumber":38,"Velocity":35,"Duration":130055,"SoundDuration":130055,"Delta":77397053},{"NoteNumber":45,"Velocity":36,"Duration":129399,"SoundDuration":129399,"Delta":77527109},{"NoteNumber":50,"Velocity":36,"Duration":129066,"SoundDuration":129066,"Delta":77656508},{"NoteNumber":55,"Velocity":38,"Duration":128733,"SoundDuration":128733,"Delta":77785575},{"NoteNumber":60,"Velocity":39,"Duration":128073,"SoundDuration":128073,"Delta":77914308},{"NoteNumber":63,"Velocity":40,"Duration":127731,"SoundDuration":127731,"Delta":78042382},{"NoteNumber":70,"Velocity":36,"Duration":382508,"SoundDuration":382508,"Delta":78170113},{"NoteNumber":82,"Velocity":57,"Duration":382508,"SoundDuration":382508,"Delta":78170113},{"NoteNumber":72,"Velocity":29,"Duration":767389,"SoundDuration":767389,"Delta":78170113},{"NoteNumber":75,"Velocity":32,"Duration":767389,"SoundDuration":767389,"Delta":78170113},{"NoteNumber":67,"Velocity":43,"Duration":127388,"SoundDuration":127388,"Delta":78170113},{"NoteNumber":63,"Velocity":41,"Duration":127388,"SoundDuration":127388,"Delta":78297502},{"NoteNumber":60,"Velocity":40,"Duration":127731,"SoundDuration":127731,"Delta":78424890},{"NoteNumber":69,"Velocity":36,"Duration":384881,"SoundDuration":384881,"Delta":78552621},{"NoteNumber":81,"Velocity":57,"Duration":384881,"SoundDuration":384881,"Delta":78552621},{"NoteNumber":55,"Velocity":38,"Duration":128073,"SoundDuration":128073,"Delta":78552621},{"NoteNumber":50,"Velocity":37,"Duration":128073,"SoundDuration":128073,"Delta":78680695},{"NoteNumber":45,"Velocity":36,"Duration":128733,"SoundDuration":128733,"Delta":78808769},{"NoteNumber":67,"Velocity":36,"Duration":387199,"SoundDuration":387199,"Delta":78937502},{"NoteNumber":79,"Velocity":57,"Duration":387199,"SoundDuration":387199,"Delta":78937502},{"NoteNumber":73,"Velocity":29,"Duration":1563308,"SoundDuration":1563308,"Delta":78937502},{"NoteNumber":76,"Velocity":33,"Duration":1563308,"SoundDuration":1563308,"Delta":78937502},{"NoteNumber":38,"Velocity":33,"Duration":128733,"SoundDuration":128733,"Delta":78937502},{"NoteNumber":45,"Velocity":35,"Duration":129066,"SoundDuration":129066,"Delta":79066236},{"NoteNumber":55,"Velocity":36,"Duration":129399,"SoundDuration":129399,"Delta":79195302},{"NoteNumber":69,"Velocity":36,"Duration":389511,"SoundDuration":389511,"Delta":79324702},{"NoteNumber":81,"Velocity":57,"Duration":389511,"SoundDuration":389511,"Delta":79324702},{"NoteNumber":57,"Velocity":37,"Duration":129399,"SoundDuration":129399,"Delta":79324702},{"NoteNumber":58,"Velocity":39,"Duration":130055,"SoundDuration":130055,"Delta":79454101},{"NoteNumber":61,"Velocity":40,"Duration":130056,"SoundDuration":130056,"Delta":79584157},{"NoteNumber":70,"Velocity":39,"Duration":786597,"SoundDuration":786597,"Delta":79714213},{"NoteNumber":82,"Velocity":62,"Duration":786597,"SoundDuration":786597,"Delta":79714213},{"NoteNumber":67,"Velocity":40,"Duration":130396,"SoundDuration":130396,"Delta":79714213},{"NoteNumber":61,"Velocity":39,"Duration":130735,"SoundDuration":130735,"Delta":79844609},{"NoteNumber":58,"Velocity":38,"Duration":130735,"SoundDuration":130735,"Delta":79975345},{"NoteNumber":55,"Velocity":37,"Duration":131457,"SoundDuration":131457,"Delta":80106081},{"NoteNumber":45,"Velocity":36,"Duration":131457,"SoundDuration":131457,"Delta":80237539},{"NoteNumber":38,"Velocity":35,"Duration":261330,"SoundDuration":261330,"Delta":80368997},{"NoteNumber":66,"Velocity":33,"Duration":773526,"SoundDuration":773526,"Delta":80500811},{"NoteNumber":78,"Velocity":52,"Duration":773526,"SoundDuration":773526,"Delta":80500811},{"NoteNumber":74,"Velocity":27,"Duration":1534086,"SoundDuration":1534086,"Delta":80500811},{"NoteNumber":72,"Velocity":27,"Duration":1534086,"SoundDuration":1534086,"Delta":80500811},{"NoteNumber":45,"Velocity":35,"Duration":129516,"SoundDuration":129516,"Delta":80630328},{"NoteNumber":50,"Velocity":35,"Duration":129158,"SoundDuration":129158,"Delta":80759845},{"NoteNumber":54,"Velocity":35,"Duration":128799,"SoundDuration":128799,"Delta":80889003},{"NoteNumber":60,"Velocity":35,"Duration":128444,"SoundDuration":128444,"Delta":81017803},{"NoteNumber":62,"Velocity":35,"Duration":128090,"SoundDuration":128090,"Delta":81146248},{"NoteNumber":69,"Velocity":33,"Duration":760559,"SoundDuration":760559,"Delta":81274338},{"NoteNumber":81,"Velocity":52,"Duration":760559,"SoundDuration":760559,"Delta":81274338},{"NoteNumber":65,"Velocity":34,"Duration":127715,"SoundDuration":127715,"Delta":81274338},{"NoteNumber":62,"Velocity":34,"Duration":127339,"SoundDuration":127339,"Delta":81402053},{"NoteNumber":60,"Velocity":33,"Duration":126985,"SoundDuration":126985,"Delta":81529393},{"NoteNumber":57,"Velocity":34,"Duration":189602,"SoundDuration":189602,"Delta":81656378},{"NoteNumber":54,"Velocity":32,"Duration":126630,"SoundDuration":126630,"Delta":81656378},{"NoteNumber":50,"Velocity":32,"Duration":125944,"SoundDuration":125944,"Delta":81783008},{"NoteNumber":60,"Velocity":34,"Duration":188917,"SoundDuration":188917,"Delta":81845980},{"NoteNumber":45,"Velocity":31,"Duration":125944,"SoundDuration":125944,"Delta":81908953},{"NoteNumber":58,"Velocity":56,"Duration":503829,"SoundDuration":503829,"Delta":82034897},{"NoteNumber":62,"Velocity":56,"Duration":632562,"SoundDuration":632562,"Delta":82034897},{"NoteNumber":43,"Velocity":30,"Duration":125250,"SoundDuration":125250,"Delta":82034897},{"NoteNumber":50,"Velocity":33,"Duration":125250,"SoundDuration":125250,"Delta":82160148},{"NoteNumber":55,"Velocity":36,"Duration":124594,"SoundDuration":124594,"Delta":82285398},{"NoteNumber":70,"Velocity":45,"Duration":382981,"SoundDuration":382981,"Delta":82409993},{"NoteNumber":82,"Velocity":67,"Duration":386200,"SoundDuration":386200,"Delta":82409993},{"NoteNumber":58,"Velocity":38,"Duration":901133,"SoundDuration":901133,"Delta":82409993},{"NoteNumber":62,"Velocity":41,"Duration":643666,"SoundDuration":643666,"Delta":82538727},{"NoteNumber":67,"Velocity":44,"Duration":128733,"SoundDuration":128733,"Delta":82667460},{"NoteNumber":74,"Velocity":45,"Duration":386200,"SoundDuration":386200,"Delta":82796193},{"NoteNumber":79,"Velocity":51,"Duration":386200,"SoundDuration":386200,"Delta":82796193},{"NoteNumber":82,"Velocity":67,"Duration":386200,"SoundDuration":386200,"Delta":82796193},{"NoteNumber":70,"Velocity":45,"Duration":386200,"SoundDuration":386200,"Delta":82796193},{"NoteNumber":67,"Velocity":45,"Duration":128733,"SoundDuration":128733,"Delta":82924927},{"NoteNumber":62,"Velocity":43,"Duration":514933,"SoundDuration":514933,"Delta":83053660},{"NoteNumber":72,"Velocity":44,"Duration":386200,"SoundDuration":386200,"Delta":83182393},{"NoteNumber":84,"Velocity":63,"Duration":386200,"SoundDuration":386200,"Delta":83182393},{"NoteNumber":58,"Velocity":43,"Duration":386200,"SoundDuration":386200,"Delta":83182393},{"NoteNumber":55,"Velocity":41,"Duration":128733,"SoundDuration":128733,"Delta":83311127},{"NoteNumber":50,"Velocity":40,"Duration":128733,"SoundDuration":128733,"Delta":83439860},{"NoteNumber":74,"Velocity":48,"Duration":772399,"SoundDuration":772399,"Delta":83568593},{"NoteNumber":86,"Velocity":70,"Duration":772399,"SoundDuration":772399,"Delta":83568593},{"NoteNumber":82,"Velocity":36,"Duration":772399,"SoundDuration":772399,"Delta":83568593},{"NoteNumber":79,"Velocity":36,"Duration":772399,"SoundDuration":772399,"Delta":83568593},{"NoteNumber":41,"Velocity":39,"Duration":128733,"SoundDuration":128733,"Delta":83568593},{"NoteNumber":50,"Velocity":40,"Duration":128733,"SoundDuration":128733,"Delta":83697327},{"NoteNumber":55,"Velocity":42,"Duration":128733,"SoundDuration":128733,"Delta":83826060},{"NoteNumber":57,"Velocity":43,"Duration":128733,"SoundDuration":128733,"Delta":83954793},{"NoteNumber":58,"Velocity":45,"Duration":128733,"SoundDuration":128733,"Delta":84083527},{"NoteNumber":62,"Velocity":45,"Duration":128733,"SoundDuration":128733,"Delta":84212260},{"NoteNumber":84,"Velocity":68,"Duration":385540,"SoundDuration":385540,"Delta":84340993},{"NoteNumber":72,"Velocity":46,"Duration":385540,"SoundDuration":385540,"Delta":84340993},{"NoteNumber":79,"Velocity":36,"Duration":769076,"SoundDuration":769076,"Delta":84340993},{"NoteNumber":67,"Velocity":47,"Duration":128733,"SoundDuration":128733,"Delta":84340993},{"NoteNumber":62,"Velocity":46,"Duration":128733,"SoundDuration":128733,"Delta":84469727},{"NoteNumber":57,"Velocity":45,"Duration":128073,"SoundDuration":128073,"Delta":84598460},{"NoteNumber":70,"Velocity":46,"Duration":383536,"SoundDuration":383536,"Delta":84726534},{"NoteNumber":82,"Velocity":68,"Duration":383536,"SoundDuration":383536,"Delta":84726534},{"NoteNumber":55,"Velocity":44,"Duration":128073,"SoundDuration":128073,"Delta":84726534},{"NoteNumber":50,"Velocity":43,"Duration":128073,"SoundDuration":128073,"Delta":84854608},{"NoteNumber":41,"Velocity":42,"Duration":127388,"SoundDuration":127388,"Delta":84982681},{"NoteNumber":84,"Velocity":76,"Duration":382165,"SoundDuration":382165,"Delta":85110070},{"NoteNumber":72,"Velocity":54,"Duration":382165,"SoundDuration":382165,"Delta":85110070},{"NoteNumber":79,"Velocity":40,"Duration":764330,"SoundDuration":764330,"Delta":85110070},{"NoteNumber":82,"Velocity":54,"Duration":764330,"SoundDuration":764330,"Delta":85110070},{"NoteNumber":39,"Velocity":43,"Duration":127388,"SoundDuration":127388,"Delta":85110070},{"NoteNumber":46,"Velocity":45,"Duration":127388,"SoundDuration":127388,"Delta":85237458},{"NoteNumber":55,"Velocity":45,"Duration":127388,"SoundDuration":127388,"Delta":85364847},{"NoteNumber":74,"Velocity":51,"Duration":382165,"SoundDuration":382165,"Delta":85492235},{"NoteNumber":86,"Velocity":70,"Duration":382165,"SoundDuration":382165,"Delta":85492235},{"NoteNumber":58,"Velocity":47,"Duration":127388,"SoundDuration":127388,"Delta":85492235},{"NoteNumber":63,"Velocity":48,"Duration":127388,"SoundDuration":127388,"Delta":85619624},{"NoteNumber":65,"Velocity":50,"Duration":127388,"SoundDuration":127388,"Delta":85747012},{"NoteNumber":87,"Velocity":77,"Duration":1152283,"SoundDuration":1152283,"Delta":85874401},{"NoteNumber":75,"Velocity":56,"Duration":1152283,"SoundDuration":1152283,"Delta":85874401},{"NoteNumber":82,"Velocity":45,"Duration":1556923,"SoundDuration":1556923,"Delta":85874401},{"NoteNumber":79,"Velocity":45,"Duration":1556923,"SoundDuration":1556923,"Delta":85874401},{"NoteNumber":67,"Velocity":51,"Duration":127388,"SoundDuration":127388,"Delta":85874401},{"NoteNumber":63,"Velocity":51,"Duration":127388,"SoundDuration":127388,"Delta":86001789},{"NoteNumber":58,"Velocity":50,"Duration":128073,"SoundDuration":128073,"Delta":86129178},{"NoteNumber":55,"Velocity":49,"Duration":128073,"SoundDuration":128073,"Delta":86257252},{"NoteNumber":46,"Velocity":48,"Duration":128073,"SoundDuration":128073,"Delta":86385326},{"NoteNumber":39,"Velocity":47,"Duration":128073,"SoundDuration":128073,"Delta":86513399},{"NoteNumber":38,"Velocity":44,"Duration":128073,"SoundDuration":128073,"Delta":86641473},{"NoteNumber":46,"Velocity":45,"Duration":128403,"SoundDuration":128403,"Delta":86769547},{"NoteNumber":55,"Velocity":46,"Duration":128733,"SoundDuration":128733,"Delta":86897951},{"NoteNumber":88,"Velocity":75,"Duration":404640,"SoundDuration":404640,"Delta":87026684},{"NoteNumber":76,"Velocity":57,"Duration":404640,"SoundDuration":404640,"Delta":87026684},{"NoteNumber":57,"Velocity":47,"Duration":134879,"SoundDuration":134879,"Delta":87026684},{"NoteNumber":58,"Velocity":49,"Duration":134880,"SoundDuration":134880,"Delta":87161564},{"NoteNumber":67,"Velocity":50,"Duration":134879,"SoundDuration":134879,"Delta":87296444},{"NoteNumber":90,"Velocity":78,"Duration":404640,"SoundDuration":404640,"Delta":87431324},{"NoteNumber":78,"Velocity":60,"Duration":404640,"SoundDuration":404640,"Delta":87431324},{"NoteNumber":87,"Velocity":48,"Duration":809280,"SoundDuration":809280,"Delta":87431324},{"NoteNumber":81,"Velocity":48,"Duration":809280,"SoundDuration":809280,"Delta":87431324},{"NoteNumber":37,"Velocity":49,"Duration":134879,"SoundDuration":134879,"Delta":87431324},{"NoteNumber":45,"Velocity":46,"Duration":134880,"SoundDuration":134880,"Delta":87566204},{"NoteNumber":55,"Velocity":44,"Duration":134879,"SoundDuration":134879,"Delta":87701084},{"NoteNumber":91,"Velocity":72,"Duration":404640,"SoundDuration":404640,"Delta":87835964},{"NoteNumber":79,"Velocity":55,"Duration":404640,"SoundDuration":404640,"Delta":87835964},{"NoteNumber":57,"Velocity":41,"Duration":134879,"SoundDuration":134879,"Delta":87835964},{"NoteNumber":67,"Velocity":38,"Duration":134880,"SoundDuration":134880,"Delta":87970844},{"NoteNumber":69,"Velocity":36,"Duration":134879,"SoundDuration":134879,"Delta":88105724},{"NoteNumber":78,"Velocity":56,"Duration":394220,"SoundDuration":394220,"Delta":88240604},{"NoteNumber":66,"Velocity":38,"Duration":394220,"SoundDuration":394220,"Delta":88240604},{"NoteNumber":69,"Velocity":32,"Duration":785765,"SoundDuration":785765,"Delta":88240604},{"NoteNumber":74,"Velocity":32,"Duration":785765,"SoundDuration":785765,"Delta":88240604},{"NoteNumber":38,"Velocity":32,"Duration":131630,"SoundDuration":131630,"Delta":88240604},{"NoteNumber":45,"Velocity":33,"Duration":131630,"SoundDuration":131630,"Delta":88372235},{"NoteNumber":50,"Velocity":35,"Duration":130958,"SoundDuration":130958,"Delta":88503866},{"NoteNumber":67,"Velocity":38,"Duration":391544,"SoundDuration":391544,"Delta":88634824},{"NoteNumber":79,"Velocity":56,"Duration":391544,"SoundDuration":391544,"Delta":88634824},{"NoteNumber":55,"Velocity":36,"Duration":130958,"SoundDuration":130958,"Delta":88634824},{"NoteNumber":57,"Velocity":37,"Duration":130293,"SoundDuration":130293,"Delta":88765783},{"NoteNumber":62,"Velocity":38,"Duration":130293,"SoundDuration":130293,"Delta":88896076},{"NoteNumber":69,"Velocity":41,"Duration":773740,"SoundDuration":773740,"Delta":89026369},{"NoteNumber":81,"Velocity":60,"Duration":2348521,"SoundDuration":2348521,"Delta":89026369},{"NoteNumber":74,"Velocity":41,"Duration":1549558,"SoundDuration":1549558,"Delta":89026369},{"NoteNumber":54,"Velocity":40,"Duration":129617,"SoundDuration":129617,"Delta":89026369},{"NoteNumber":57,"Velocity":36,"Duration":129617,"SoundDuration":129617,"Delta":89155987},{"NoteNumber":62,"Velocity":36,"Duration":128949,"SoundDuration":128949,"Delta":89285605},{"NoteNumber":66,"Velocity":36,"Duration":128948,"SoundDuration":128948,"Delta":89414554},{"NoteNumber":64,"Velocity":36,"Duration":128303,"SoundDuration":128303,"Delta":89543503},{"NoteNumber":66,"Velocity":36,"Duration":128303,"SoundDuration":128303,"Delta":89671806},{"NoteNumber":67,"Velocity":44,"Duration":1574780,"SoundDuration":1574780,"Delta":89800110},{"NoteNumber":64,"Velocity":36,"Duration":127648,"SoundDuration":127648,"Delta":89800110},{"NoteNumber":62,"Velocity":36,"Duration":128224,"SoundDuration":128224,"Delta":89927759},{"NoteNumber":64,"Velocity":36,"Duration":129158,"SoundDuration":129158,"Delta":90055983},{"NoteNumber":62,"Velocity":36,"Duration":129516,"SoundDuration":129516,"Delta":90185141},{"NoteNumber":57,"Velocity":36,"Duration":130259,"SoundDuration":130259,"Delta":90314658},{"NoteNumber":62,"Velocity":36,"Duration":131010,"SoundDuration":131010,"Delta":90444917},{"NoteNumber":73,"Velocity":44,"Duration":798963,"SoundDuration":798963,"Delta":90575928},{"NoteNumber":57,"Velocity":49,"Duration":396736,"SoundDuration":396736,"Delta":90575928},{"NoteNumber":55,"Velocity":35,"Duration":132119,"SoundDuration":132119,"Delta":90707663},{"NoteNumber":52,"Velocity":35,"Duration":132882,"SoundDuration":132882,"Delta":90839782},{"NoteNumber":58,"Velocity":49,"Duration":402226,"SoundDuration":402226,"Delta":90972664},{"NoteNumber":55,"Velocity":35,"Duration":134084,"SoundDuration":134084,"Delta":91105927},{"NoteNumber":52,"Velocity":35,"Duration":134879,"SoundDuration":134879,"Delta":91240011},{"NoteNumber":54,"Velocity":51,"Duration":522503,"SoundDuration":522503,"Delta":91374891},{"NoteNumber":60,"Velocity":49,"Duration":652121,"SoundDuration":652121,"Delta":91374891},{"NoteNumber":38,"Velocity":35,"Duration":130958,"SoundDuration":130958,"Delta":91374891},{"NoteNumber":45,"Velocity":36,"Duration":130958,"SoundDuration":130958,"Delta":91505849},{"NoteNumber":50,"Velocity":36,"Duration":130293,"SoundDuration":130293,"Delta":91636808},{"NoteNumber":69,"Velocity":40,"Duration":195101,"SoundDuration":195101,"Delta":91767101},{"NoteNumber":78,"Velocity":40,"Duration":389528,"SoundDuration":389528,"Delta":91767101},{"NoteNumber":81,"Velocity":58,"Duration":389528,"SoundDuration":389528,"Delta":91767101},{"NoteNumber":54,"Velocity":37,"Duration":386288,"SoundDuration":386288,"Delta":91767101},{"NoteNumber":60,"Velocity":39,"Duration":645437,"SoundDuration":645437,"Delta":91897394},{"NoteNumber":72,"Velocity":40,"Duration":194426,"SoundDuration":194426,"Delta":91962203},{"NoteNumber":62,"Velocity":40,"Duration":129617,"SoundDuration":129617,"Delta":92027012},{"NoteNumber":74,"Velocity":36,"Duration":769803,"SoundDuration":769803,"Delta":92156630},{"NoteNumber":78,"Velocity":36,"Duration":386201,"SoundDuration":386201,"Delta":92156630},{"NoteNumber":81,"Velocity":52,"Duration":386201,"SoundDuration":386201,"Delta":92156630},{"NoteNumber":66,"Velocity":42,"Duration":769803,"SoundDuration":769803,"Delta":92156630},{"NoteNumber":62,"Velocity":40,"Duration":128949,"SoundDuration":128949,"Delta":92285579},{"NoteNumber":60,"Velocity":39,"Duration":892948,"SoundDuration":892948,"Delta":92414528},{"NoteNumber":70,"Velocity":39,"Duration":383601,"SoundDuration":383601,"Delta":92542832},{"NoteNumber":74,"Velocity":39,"Duration":383601,"SoundDuration":383601,"Delta":92542832},{"NoteNumber":78,"Velocity":39,"Duration":383601,"SoundDuration":383601,"Delta":92542832},{"NoteNumber":82,"Velocity":57,"Duration":383601,"SoundDuration":383601,"Delta":92542832},{"NoteNumber":54,"Velocity":38,"Duration":128303,"SoundDuration":128303,"Delta":92542832},{"NoteNumber":50,"Velocity":36,"Duration":127648,"SoundDuration":127648,"Delta":92671135},{"NoteNumber":45,"Velocity":36,"Duration":127648,"SoundDuration":127648,"Delta":92798784},{"NoteNumber":74,"Velocity":45,"Duration":766586,"SoundDuration":766586,"Delta":92926433},{"NoteNumber":72,"Velocity":45,"Duration":766586,"SoundDuration":766586,"Delta":92926433},{"NoteNumber":78,"Velocity":45,"Duration":766586,"SoundDuration":766586,"Delta":92926433},{"NoteNumber":84,"Velocity":66,"Duration":766586,"SoundDuration":766586,"Delta":92926433},{"NoteNumber":38,"Velocity":35,"Duration":126895,"SoundDuration":126895,"Delta":92926433},{"NoteNumber":45,"Velocity":37,"Duration":126758,"SoundDuration":126758,"Delta":93053328},{"NoteNumber":50,"Velocity":41,"Duration":127388,"SoundDuration":127388,"Delta":93180087},{"NoteNumber":62,"Velocity":51,"Duration":385543,"SoundDuration":385543,"Delta":93307476},{"NoteNumber":60,"Velocity":37,"Duration":128403,"SoundDuration":128403,"Delta":93435550},{"NoteNumber":54,"Velocity":37,"Duration":129066,"SoundDuration":129066,"Delta":93563953},{"NoteNumber":70,"Velocity":40,"Duration":390191,"SoundDuration":390191,"Delta":93693020},{"NoteNumber":82,"Velocity":58,"Duration":390191,"SoundDuration":390191,"Delta":93693020},{"NoteNumber":74,"Velocity":32,"Duration":786391,"SoundDuration":786391,"Delta":93693020},{"NoteNumber":78,"Velocity":36,"Duration":786391,"SoundDuration":786391,"Delta":93693020},{"NoteNumber":64,"Velocity":53,"Duration":390191,"SoundDuration":390191,"Delta":93693020},{"NoteNumber":60,"Velocity":36,"Duration":130056,"SoundDuration":130056,"Delta":93822419},{"NoteNumber":54,"Velocity":36,"Duration":130735,"SoundDuration":130735,"Delta":93952475},{"NoteNumber":69,"Velocity":40,"Duration":396200,"SoundDuration":396200,"Delta":94083211},{"NoteNumber":81,"Velocity":58,"Duration":396200,"SoundDuration":396200,"Delta":94083211},{"NoteNumber":66,"Velocity":55,"Duration":396200,"SoundDuration":396200,"Delta":94083211},{"NoteNumber":60,"Velocity":36,"Duration":131813,"SoundDuration":131813,"Delta":94214308},{"NoteNumber":54,"Velocity":36,"Duration":133289,"SoundDuration":133289,"Delta":94346122},{"NoteNumber":79,"Velocity":54,"Duration":402174,"SoundDuration":402174,"Delta":94479412},{"NoteNumber":67,"Velocity":36,"Duration":402174,"SoundDuration":402174,"Delta":94479412},{"NoteNumber":72,"Velocity":30,"Duration":800187,"SoundDuration":800187,"Delta":94479412},{"NoteNumber":75,"Velocity":30,"Duration":800187,"SoundDuration":800187,"Delta":94479412},{"NoteNumber":38,"Velocity":57,"Duration":134408,"SoundDuration":134408,"Delta":94479412},{"NoteNumber":67,"Velocity":57,"Duration":800187,"SoundDuration":800187,"Delta":94479412},{"NoteNumber":45,"Velocity":36,"Duration":134058,"SoundDuration":134058,"Delta":94613820},{"NoteNumber":50,"Velocity":36,"Duration":133707,"SoundDuration":133707,"Delta":94747879},{"NoteNumber":69,"Velocity":36,"Duration":398012,"SoundDuration":398012,"Delta":94881586},{"NoteNumber":81,"Velocity":54,"Duration":398012,"SoundDuration":398012,"Delta":94881586},{"NoteNumber":55,"Velocity":36,"Duration":133014,"SoundDuration":133014,"Delta":94881586},{"NoteNumber":60,"Velocity":36,"Duration":132670,"SoundDuration":132670,"Delta":95014600},{"NoteNumber":63,"Velocity":36,"Duration":132327,"SoundDuration":132327,"Delta":95147271},{"NoteNumber":72,"Velocity":32,"Duration":783750,"SoundDuration":783750,"Delta":95279599},{"NoteNumber":75,"Velocity":32,"Duration":783750,"SoundDuration":783750,"Delta":95279599},{"NoteNumber":70,"Velocity":39,"Duration":783750,"SoundDuration":783750,"Delta":95279599},{"NoteNumber":82,"Velocity":57,"Duration":783750,"SoundDuration":783750,"Delta":95279599},{"NoteNumber":66,"Velocity":52,"Duration":393884,"SoundDuration":393884,"Delta":95279599},{"NoteNumber":63,"Velocity":36,"Duration":131294,"SoundDuration":131294,"Delta":95411230},{"NoteNumber":60,"Velocity":36,"Duration":130958,"SoundDuration":130958,"Delta":95542525},{"NoteNumber":67,"Velocity":52,"Duration":389866,"SoundDuration":389866,"Delta":95673483},{"NoteNumber":55,"Velocity":36,"Duration":130293,"SoundDuration":130293,"Delta":95673483},{"NoteNumber":50,"Velocity":36,"Duration":129955,"SoundDuration":129955,"Delta":95803776},{"NoteNumber":45,"Velocity":36,"Duration":129617,"SoundDuration":129617,"Delta":95933732},{"NoteNumber":69,"Velocity":53,"Duration":1567554,"SoundDuration":1567554,"Delta":96063349},{"NoteNumber":66,"Velocity":40,"Duration":387515,"SoundDuration":387515,"Delta":96063349},{"NoteNumber":72,"Velocity":40,"Duration":387515,"SoundDuration":387515,"Delta":96063349},{"NoteNumber":74,"Velocity":40,"Duration":387515,"SoundDuration":387515,"Delta":96063349},{"NoteNumber":78,"Velocity":58,"Duration":387515,"SoundDuration":387515,"Delta":96063349},{"NoteNumber":38,"Velocity":36,"Duration":128949,"SoundDuration":128949,"Delta":96063349},{"NoteNumber":45,"Velocity":36,"Duration":128949,"SoundDuration":128949,"Delta":96192298},{"NoteNumber":50,"Velocity":36,"Duration":97213,"SoundDuration":97213,"Delta":96321247},{"NoteNumber":67,"Velocity":36,"Duration":390203,"SoundDuration":390203,"Delta":96450865},{"NoteNumber":79,"Velocity":52,"Duration":390203,"SoundDuration":390203,"Delta":96450865},{"NoteNumber":50,"Velocity":36,"Duration":129617,"SoundDuration":129617,"Delta":96450865},{"NoteNumber":57,"Velocity":36,"Duration":130293,"SoundDuration":130293,"Delta":96580483},{"NoteNumber":62,"Velocity":36,"Duration":130293,"SoundDuration":130293,"Delta":96710776},{"NoteNumber":69,"Velocity":32,"Duration":789834,"SoundDuration":789834,"Delta":96841069},{"NoteNumber":72,"Velocity":32,"Duration":789834,"SoundDuration":789834,"Delta":96841069},{"NoteNumber":74,"Velocity":32,"Duration":789834,"SoundDuration":789834,"Delta":96841069},{"NoteNumber":81,"Velocity":46,"Duration":789834,"SoundDuration":789834,"Delta":96841069},{"NoteNumber":57,"Velocity":50,"Duration":393548,"SoundDuration":393548,"Delta":96841069},{"NoteNumber":54,"Velocity":36,"Duration":130958,"SoundDuration":130958,"Delta":96972028},{"NoteNumber":50,"Velocity":36,"Duration":131630,"SoundDuration":131630,"Delta":97102986},{"NoteNumber":58,"Velocity":54,"Duration":396286,"SoundDuration":396286,"Delta":97234617},{"NoteNumber":54,"Velocity":36,"Duration":132327,"SoundDuration":132327,"Delta":97366248},{"NoteNumber":50,"Velocity":36,"Duration":132327,"SoundDuration":132327,"Delta":97498576},{"NoteNumber":54,"Velocity":52,"Duration":526691,"SoundDuration":526691,"Delta":97630903},{"NoteNumber":60,"Velocity":58,"Duration":654994,"SoundDuration":654994,"Delta":97630903},{"NoteNumber":38,"Velocity":35,"Duration":133014,"SoundDuration":133014,"Delta":97630903},{"NoteNumber":45,"Velocity":36,"Duration":133014,"SoundDuration":133014,"Delta":97763918},{"NoteNumber":50,"Velocity":36,"Duration":132358,"SoundDuration":132358,"Delta":97896932},{"NoteNumber":69,"Velocity":36,"Duration":192455,"SoundDuration":192455,"Delta":98029291},{"NoteNumber":78,"Velocity":41,"Duration":384911,"SoundDuration":384911,"Delta":98029291},{"NoteNumber":81,"Velocity":60,"Duration":384911,"SoundDuration":384911,"Delta":98029291},{"NoteNumber":54,"Velocity":37,"Duration":381703,"SoundDuration":381703,"Delta":98029291},{"NoteNumber":60,"Velocity":39,"Duration":641519,"SoundDuration":641519,"Delta":98157595},{"NoteNumber":72,"Velocity":40,"Duration":192455,"SoundDuration":192455,"Delta":98221746},{"NoteNumber":62,"Velocity":40,"Duration":128303,"SoundDuration":128303,"Delta":98285898},{"NoteNumber":74,"Velocity":36,"Duration":769823,"SoundDuration":769823,"Delta":98414202},{"NoteNumber":78,"Velocity":36,"Duration":384911,"SoundDuration":384911,"Delta":98414202},{"NoteNumber":81,"Velocity":52,"Duration":384911,"SoundDuration":384911,"Delta":98414202},{"NoteNumber":66,"Velocity":42,"Duration":769823,"SoundDuration":769823,"Delta":98414202},{"NoteNumber":62,"Velocity":40,"Duration":128303,"SoundDuration":128303,"Delta":98542506},{"NoteNumber":60,"Velocity":39,"Duration":898126,"SoundDuration":898126,"Delta":98670810},{"NoteNumber":70,"Velocity":39,"Duration":384911,"SoundDuration":384911,"Delta":98799114},{"NoteNumber":74,"Velocity":39,"Duration":384911,"SoundDuration":384911,"Delta":98799114},{"NoteNumber":78,"Velocity":39,"Duration":384911,"SoundDuration":384911,"Delta":98799114},{"NoteNumber":82,"Velocity":57,"Duration":384911,"SoundDuration":384911,"Delta":98799114},{"NoteNumber":54,"Velocity":38,"Duration":128303,"SoundDuration":128303,"Delta":98799114},{"NoteNumber":50,"Velocity":36,"Duration":128303,"SoundDuration":128303,"Delta":98927418},{"NoteNumber":45,"Velocity":36,"Duration":128303,"SoundDuration":128303,"Delta":99055721},{"NoteNumber":75,"Velocity":45,"Duration":769823,"SoundDuration":769823,"Delta":99184025},{"NoteNumber":72,"Velocity":45,"Duration":769823,"SoundDuration":769823,"Delta":99184025},{"NoteNumber":79,"Velocity":45,"Duration":769823,"SoundDuration":769823,"Delta":99184025},{"NoteNumber":84,"Velocity":66,"Duration":769823,"SoundDuration":769823,"Delta":99184025},{"NoteNumber":38,"Velocity":35,"Duration":128303,"SoundDuration":128303,"Delta":99184025},{"NoteNumber":45,"Velocity":37,"Duration":128303,"SoundDuration":128303,"Delta":99312329},{"NoteNumber":55,"Velocity":41,"Duration":128303,"SoundDuration":128303,"Delta":99440633},{"NoteNumber":62,"Velocity":52,"Duration":384911,"SoundDuration":384911,"Delta":99568937},{"NoteNumber":60,"Velocity":37,"Duration":128303,"SoundDuration":128303,"Delta":99697241},{"NoteNumber":55,"Velocity":37,"Duration":128303,"SoundDuration":128303,"Delta":99825544},{"NoteNumber":70,"Velocity":40,"Duration":384911,"SoundDuration":384911,"Delta":99953848},{"NoteNumber":82,"Velocity":58,"Duration":384911,"SoundDuration":384911,"Delta":99953848},{"NoteNumber":72,"Velocity":32,"Duration":769822,"SoundDuration":769822,"Delta":99953848},{"NoteNumber":75,"Velocity":32,"Duration":769822,"SoundDuration":769822,"Delta":99953848},{"NoteNumber":63,"Velocity":53,"Duration":384911,"SoundDuration":384911,"Delta":99953848},{"NoteNumber":60,"Velocity":36,"Duration":128303,"SoundDuration":128303,"Delta":100082152},{"NoteNumber":55,"Velocity":36,"Duration":128303,"SoundDuration":128303,"Delta":100210456},{"NoteNumber":69,"Velocity":40,"Duration":384911,"SoundDuration":384911,"Delta":100338760},{"NoteNumber":81,"Velocity":58,"Duration":384911,"SoundDuration":384911,"Delta":100338760},{"NoteNumber":65,"Velocity":53,"Duration":384911,"SoundDuration":384911,"Delta":100338760},{"NoteNumber":60,"Velocity":36,"Duration":128303,"SoundDuration":128303,"Delta":100467064},{"NoteNumber":55,"Velocity":36,"Duration":128303,"SoundDuration":128303,"Delta":100595367},{"NoteNumber":79,"Velocity":54,"Duration":390777,"SoundDuration":390777,"Delta":100723671},{"NoteNumber":67,"Velocity":36,"Duration":390777,"SoundDuration":390777,"Delta":100723671},{"NoteNumber":73,"Velocity":30,"Duration":781554,"SoundDuration":781554,"Delta":100723671},{"NoteNumber":76,"Velocity":30,"Duration":781554,"SoundDuration":781554,"Delta":100723671},{"NoteNumber":67,"Velocity":56,"Duration":781554,"SoundDuration":781554,"Delta":100723671},{"NoteNumber":38,"Velocity":51,"Duration":130259,"SoundDuration":130259,"Delta":100723671},{"NoteNumber":45,"Velocity":36,"Duration":130259,"SoundDuration":130259,"Delta":100853930},{"NoteNumber":55,"Velocity":36,"Duration":130259,"SoundDuration":130259,"Delta":100984190},{"NoteNumber":69,"Velocity":36,"Duration":390777,"SoundDuration":390777,"Delta":101114449},{"NoteNumber":81,"Velocity":54,"Duration":390777,"SoundDuration":390777,"Delta":101114449},{"NoteNumber":57,"Velocity":36,"Duration":130259,"SoundDuration":130259,"Delta":101114449},{"NoteNumber":58,"Velocity":36,"Duration":130259,"SoundDuration":130259,"Delta":101244708},{"NoteNumber":61,"Velocity":36,"Duration":130259,"SoundDuration":130259,"Delta":101374967},{"NoteNumber":73,"Velocity":32,"Duration":781554,"SoundDuration":781554,"Delta":101505226},{"NoteNumber":76,"Velocity":32,"Duration":781554,"SoundDuration":781554,"Delta":101505226},{"NoteNumber":70,"Velocity":39,"Duration":781554,"SoundDuration":781554,"Delta":101505226},{"NoteNumber":82,"Velocity":57,"Duration":781554,"SoundDuration":781554,"Delta":101505226},{"NoteNumber":66,"Velocity":51,"Duration":390777,"SoundDuration":390777,"Delta":101505226},{"NoteNumber":61,"Velocity":36,"Duration":130259,"SoundDuration":130259,"Delta":101635485},{"NoteNumber":58,"Velocity":36,"Duration":130259,"SoundDuration":130259,"Delta":101765745},{"NoteNumber":67,"Velocity":52,"Duration":390777,"SoundDuration":390777,"Delta":101896004},{"NoteNumber":55,"Velocity":36,"Duration":130259,"SoundDuration":130259,"Delta":101896004},{"NoteNumber":45,"Velocity":36,"Duration":130259,"SoundDuration":130259,"Delta":102026263},{"NoteNumber":38,"Velocity":36,"Duration":260518,"SoundDuration":260518,"Delta":102156522},{"NoteNumber":69,"Velocity":53,"Duration":1172332,"SoundDuration":1172332,"Delta":102286781},{"NoteNumber":66,"Velocity":40,"Duration":390777,"SoundDuration":390777,"Delta":102286781},{"NoteNumber":72,"Velocity":40,"Duration":390777,"SoundDuration":390777,"Delta":102286781},{"NoteNumber":74,"Velocity":40,"Duration":390777,"SoundDuration":390777,"Delta":102286781},{"NoteNumber":78,"Velocity":58,"Duration":390777,"SoundDuration":390777,"Delta":102286781},{"NoteNumber":45,"Velocity":36,"Duration":130259,"SoundDuration":130259,"Delta":102417040},{"NoteNumber":50,"Velocity":36,"Duration":130259,"SoundDuration":130259,"Delta":102547300},{"NoteNumber":67,"Velocity":36,"Duration":390777,"SoundDuration":390777,"Delta":102677559},{"NoteNumber":79,"Velocity":52,"Duration":390777,"SoundDuration":390777,"Delta":102677559},{"NoteNumber":50,"Velocity":37,"Duration":130259,"SoundDuration":130259,"Delta":102677559},{"NoteNumber":57,"Velocity":38,"Duration":130259,"SoundDuration":130259,"Delta":102807818},{"NoteNumber":62,"Velocity":39,"Duration":130259,"SoundDuration":130259,"Delta":102938077},{"NoteNumber":69,"Velocity":32,"Duration":661706,"SoundDuration":661706,"Delta":103068336},{"NoteNumber":72,"Velocity":32,"Duration":796514,"SoundDuration":796514,"Delta":103068336},{"NoteNumber":74,"Velocity":32,"Duration":796514,"SoundDuration":796514,"Delta":103068336},{"NoteNumber":81,"Velocity":46,"Duration":796514,"SoundDuration":796514,"Delta":103068336},{"NoteNumber":60,"Velocity":40,"Duration":130259,"SoundDuration":130259,"Delta":103068336},{"NoteNumber":57,"Velocity":39,"Duration":130259,"SoundDuration":130259,"Delta":103198595},{"NoteNumber":50,"Velocity":38,"Duration":97694,"SoundDuration":97694,"Delta":103328854},{"NoteNumber":50,"Velocity":37,"Duration":135464,"SoundDuration":135464,"Delta":103459114},{"NoteNumber":69,"Velocity":39,"Duration":270271,"SoundDuration":270271,"Delta":103594578},{"NoteNumber":38,"Velocity":36,"Duration":135464,"SoundDuration":135464,"Delta":103594578},{"NoteNumber":72,"Velocity":39,"Duration":134807,"SoundDuration":134807,"Delta":103730043},{"NoteNumber":50,"Velocity":36,"Duration":134807,"SoundDuration":134807,"Delta":103730043},{"NoteNumber":62,"Velocity":45,"Duration":668168,"SoundDuration":668168,"Delta":103864850},{"NoteNumber":70,"Velocity":45,"Duration":797299,"SoundDuration":797299,"Delta":103864850},{"NoteNumber":74,"Velocity":45,"Duration":1195617,"SoundDuration":1195617,"Delta":103864850},{"NoteNumber":43,"Velocity":35,"Duration":134454,"SoundDuration":134454,"Delta":103864850},{"NoteNumber":50,"Velocity":36,"Duration":134102,"SoundDuration":134102,"Delta":103999305},{"NoteNumber":55,"Velocity":36,"Duration":133422,"SoundDuration":133422,"Delta":104133407},{"NoteNumber":70,"Velocity":41,"Duration":793638,"SoundDuration":793638,"Delta":104266829},{"NoteNumber":82,"Velocity":60,"Duration":398622,"SoundDuration":398622,"Delta":104266829},{"NoteNumber":58,"Velocity":37,"Duration":133422,"SoundDuration":133422,"Delta":104266829},{"NoteNumber":62,"Velocity":38,"Duration":660216,"SoundDuration":660216,"Delta":104400252},{"NoteNumber":67,"Velocity":39,"Duration":132433,"SoundDuration":132433,"Delta":104533019},{"NoteNumber":74,"Velocity":43,"Duration":786433,"SoundDuration":786433,"Delta":104665452},{"NoteNumber":79,"Velocity":43,"Duration":395015,"SoundDuration":395015,"Delta":104665452},{"NoteNumber":82,"Velocity":62,"Duration":395015,"SoundDuration":395015,"Delta":104665452},{"NoteNumber":70,"Velocity":41,"Duration":786433,"SoundDuration":786433,"Delta":104665452},{"NoteNumber":67,"Velocity":40,"Duration":131457,"SoundDuration":131457,"Delta":104797552},{"NoteNumber":62,"Velocity":38,"Duration":522875,"SoundDuration":522875,"Delta":104929010},{"NoteNumber":72,"Velocity":46,"Duration":391417,"SoundDuration":391417,"Delta":105060468},{"NoteNumber":84,"Velocity":68,"Duration":391417,"SoundDuration":391417,"Delta":105060468},{"NoteNumber":58,"Velocity":37,"Duration":130804,"SoundDuration":130804,"Delta":105060468},{"NoteNumber":55,"Velocity":36,"Duration":130472,"SoundDuration":130472,"Delta":105191273},{"NoteNumber":50,"Velocity":35,"Duration":130140,"SoundDuration":130140,"Delta":105321745},{"NoteNumber":74,"Velocity":49,"Duration":767262,"SoundDuration":767262,"Delta":105451886},{"NoteNumber":80,"Velocity":49,"Duration":767262,"SoundDuration":767262,"Delta":105451886},{"NoteNumber":82,"Velocity":49,"Duration":767262,"SoundDuration":767262,"Delta":105451886},{"NoteNumber":86,"Velocity":70,"Duration":767262,"SoundDuration":767262,"Delta":105451886},{"NoteNumber":41,"Velocity":35,"Duration":129533,"SoundDuration":129533,"Delta":105451886},{"NoteNumber":50,"Velocity":36,"Duration":129533,"SoundDuration":129533,"Delta":105581419},{"NoteNumber":55,"Velocity":37,"Duration":127048,"SoundDuration":127048,"Delta":105710953},{"NoteNumber":74,"Velocity":59,"Duration":381146,"SoundDuration":381146,"Delta":105838002},{"NoteNumber":56,"Velocity":39,"Duration":127048,"SoundDuration":127048,"Delta":105838002},{"NoteNumber":58,"Velocity":40,"Duration":127048,"SoundDuration":127048,"Delta":105965050},{"NoteNumber":62,"Velocity":42,"Duration":127048,"SoundDuration":127048,"Delta":106092099},{"NoteNumber":84,"Velocity":54,"Duration":381445,"SoundDuration":381445,"Delta":106219148},{"NoteNumber":72,"Velocity":40,"Duration":381445,"SoundDuration":381445,"Delta":106219148},{"NoteNumber":75,"Velocity":60,"Duration":381445,"SoundDuration":381445,"Delta":106219148},{"NoteNumber":68,"Velocity":42,"Duration":127048,"SoundDuration":127048,"Delta":106219148},{"NoteNumber":63,"Velocity":41,"Duration":127048,"SoundDuration":127048,"Delta":106346196},{"NoteNumber":58,"Velocity":39,"Duration":127348,"SoundDuration":127348,"Delta":106473245},{"NoteNumber":70,"Velocity":40,"Duration":390421,"SoundDuration":390421,"Delta":106600594},{"NoteNumber":82,"Velocity":54,"Duration":390421,"SoundDuration":390421,"Delta":106600594},{"NoteNumber":77,"Velocity":62,"Duration":390421,"SoundDuration":390421,"Delta":106600594},{"NoteNumber":62,"Velocity":38,"Duration":130140,"SoundDuration":130140,"Delta":106600594},{"NoteNumber":56,"Velocity":36,"Duration":130140,"SoundDuration":130140,"Delta":106730734},{"NoteNumber":46,"Velocity":36,"Duration":130140,"SoundDuration":130140,"Delta":106860875},{"NoteNumber":72,"Velocity":40,"Duration":390421,"SoundDuration":390421,"Delta":106991015},{"NoteNumber":75,"Velocity":40,"Duration":390421,"SoundDuration":390421,"Delta":106991015},{"NoteNumber":84,"Velocity":58,"Duration":390421,"SoundDuration":390421,"Delta":106991015},{"NoteNumber":79,"Velocity":64,"Duration":780843,"SoundDuration":780843,"Delta":106991015},{"NoteNumber":39,"Velocity":36,"Duration":130140,"SoundDuration":130140,"Delta":106991015},{"NoteNumber":46,"Velocity":37,"Duration":130140,"SoundDuration":130140,"Delta":107121156},{"NoteNumber":55,"Velocity":39,"Duration":130140,"SoundDuration":130140,"Delta":107251296},{"NoteNumber":86,"Velocity":66,"Duration":390421,"SoundDuration":390421,"Delta":107381437},{"NoteNumber":74,"Velocity":45,"Duration":390421,"SoundDuration":390421,"Delta":107381437},{"NoteNumber":58,"Velocity":40,"Duration":130140,"SoundDuration":130140,"Delta":107381437},{"NoteNumber":63,"Velocity":42,"Duration":130140,"SoundDuration":130140,"Delta":107511577},{"NoteNumber":65,"Velocity":43,"Duration":130140,"SoundDuration":130140,"Delta":107641718},{"NoteNumber":87,"Velocity":70,"Duration":390421,"SoundDuration":390421,"Delta":107771858},{"NoteNumber":75,"Velocity":48,"Duration":390421,"SoundDuration":390421,"Delta":107771858},{"NoteNumber":82,"Velocity":48,"Duration":779597,"SoundDuration":779597,"Delta":107771858},{"NoteNumber":79,"Velocity":48,"Duration":779597,"SoundDuration":779597,"Delta":107771858},{"NoteNumber":67,"Velocity":59,"Duration":1163525,"SoundDuration":1163525,"Delta":107771858},{"NoteNumber":63,"Velocity":44,"Duration":130140,"SoundDuration":130140,"Delta":107901999},{"NoteNumber":58,"Velocity":42,"Duration":130140,"SoundDuration":130140,"Delta":108032139},{"NoteNumber":77,"Velocity":54,"Duration":389175,"SoundDuration":389175,"Delta":108162280},{"NoteNumber":89,"Velocity":75,"Duration":389175,"SoundDuration":389175,"Delta":108162280},{"NoteNumber":55,"Velocity":40,"Duration":130140,"SoundDuration":130140,"Delta":108162280},{"NoteNumber":46,"Velocity":38,"Duration":130140,"SoundDuration":130140,"Delta":108292420},{"NoteNumber":39,"Velocity":36,"Duration":128894,"SoundDuration":128894,"Delta":108422561},{"NoteNumber":91,"Velocity":81,"Duration":383928,"SoundDuration":383928,"Delta":108551455},{"NoteNumber":79,"Velocity":59,"Duration":383928,"SoundDuration":383928,"Delta":108551455},{"NoteNumber":86,"Velocity":59,"Duration":1553533,"SoundDuration":1553533,"Delta":108551455},{"NoteNumber":82,"Velocity":59,"Duration":1553533,"SoundDuration":1553533,"Delta":108551455},{"NoteNumber":40,"Velocity":36,"Duration":127648,"SoundDuration":127648,"Delta":108551455},{"NoteNumber":55,"Velocity":37,"Duration":127976,"SoundDuration":127976,"Delta":108679104},{"NoteNumber":62,"Velocity":40,"Duration":128303,"SoundDuration":128303,"Delta":108807080},{"NoteNumber":58,"Velocity":40,"Duration":128303,"SoundDuration":128303,"Delta":108807080},{"NoteNumber":81,"Velocity":63,"Duration":776724,"SoundDuration":776724,"Delta":108935384},{"NoteNumber":93,"Velocity":81,"Duration":776724,"SoundDuration":776724,"Delta":108935384},{"NoteNumber":69,"Velocity":61,"Duration":386858,"SoundDuration":386858,"Delta":108935384},{"NoteNumber":67,"Velocity":43,"Duration":128948,"SoundDuration":128948,"Delta":109064010},{"NoteNumber":62,"Velocity":41,"Duration":129283,"SoundDuration":129283,"Delta":109192959},{"NoteNumber":70,"Velocity":68,"Duration":389866,"SoundDuration":389866,"Delta":109322243},{"NoteNumber":67,"Velocity":44,"Duration":129955,"SoundDuration":129955,"Delta":109451860},{"NoteNumber":62,"Velocity":43,"Duration":130293,"SoundDuration":130293,"Delta":109581816},{"NoteNumber":94,"Velocity":78,"Duration":392879,"SoundDuration":392879,"Delta":109712109},{"NoteNumber":82,"Velocity":57,"Duration":392879,"SoundDuration":392879,"Delta":109712109},{"NoteNumber":72,"Velocity":59,"Duration":392879,"SoundDuration":392879,"Delta":109712109},{"NoteNumber":67,"Velocity":41,"Duration":130958,"SoundDuration":130958,"Delta":109842735},{"NoteNumber":62,"Velocity":36,"Duration":131294,"SoundDuration":131294,"Delta":109973694},{"NoteNumber":66,"Velocity":72,"Duration":384763,"SoundDuration":384763,"Delta":110104988},{"NoteNumber":78,"Velocity":67,"Duration":384763,"SoundDuration":384763,"Delta":110104988},{"NoteNumber":74,"Velocity":40,"Duration":1550433,"SoundDuration":1550433,"Delta":110104988},{"NoteNumber":33,"Velocity":31,"Duration":128254,"SoundDuration":128254,"Delta":110104988},{"NoteNumber":45,"Velocity":32,"Duration":128254,"SoundDuration":128254,"Delta":110233243},{"NoteNumber":54,"Velocity":35,"Duration":128254,"SoundDuration":128254,"Delta":110361497},{"NoteNumber":69,"Velocity":47,"Duration":386647,"SoundDuration":386647,"Delta":110489752},{"NoteNumber":81,"Velocity":63,"Duration":386647,"SoundDuration":386647,"Delta":110489752},{"NoteNumber":57,"Velocity":37,"Duration":128882,"SoundDuration":128882,"Delta":110489752},{"NoteNumber":62,"Velocity":39,"Duration":128882,"SoundDuration":128882,"Delta":110618634},{"NoteNumber":64,"Velocity":41,"Duration":128882,"SoundDuration":128882,"Delta":110747517},{"NoteNumber":72,"Velocity":47,"Duration":779022,"SoundDuration":779022,"Delta":110876400},{"NoteNumber":84,"Velocity":63,"Duration":779022,"SoundDuration":779022,"Delta":110876400},{"NoteNumber":66,"Velocity":42,"Duration":129533,"SoundDuration":129533,"Delta":110876400},{"NoteNumber":62,"Velocity":41,"Duration":129533,"SoundDuration":129533,"Delta":111005933},{"NoteNumber":57,"Velocity":40,"Duration":129533,"SoundDuration":129533,"Delta":111135467},{"NoteNumber":54,"Velocity":39,"Duration":130140,"SoundDuration":130140,"Delta":111265001},{"NoteNumber":45,"Velocity":37,"Duration":130140,"SoundDuration":130140,"Delta":111395141},{"NoteNumber":33,"Velocity":36,"Duration":257789,"SoundDuration":257789,"Delta":111525282},{"NoteNumber":66,"Velocity":55,"Duration":382946,"SoundDuration":382946,"Delta":111655422},{"NoteNumber":78,"Velocity":66,"Duration":382946,"SoundDuration":382946,"Delta":111655422},{"NoteNumber":75,"Velocity":40,"Duration":2335048,"SoundDuration":2335048,"Delta":111655422},{"NoteNumber":45,"Velocity":34,"Duration":127648,"SoundDuration":127648,"Delta":111783071},{"NoteNumber":54,"Velocity":36,"Duration":127648,"SoundDuration":127648,"Delta":111910720},{"NoteNumber":69,"Velocity":54,"Duration":384763,"SoundDuration":384763,"Delta":112038368},{"NoteNumber":81,"Velocity":68,"Duration":384763,"SoundDuration":384763,"Delta":112038368},{"NoteNumber":57,"Velocity":37,"Duration":128254,"SoundDuration":128254,"Delta":112038368},{"NoteNumber":59,"Velocity":38,"Duration":128254,"SoundDuration":128254,"Delta":112166623},{"NoteNumber":63,"Velocity":40,"Duration":128254,"SoundDuration":128254,"Delta":112294877},{"NoteNumber":71,"Velocity":57,"Duration":775248,"SoundDuration":775248,"Delta":112423132},{"NoteNumber":83,"Velocity":72,"Duration":775248,"SoundDuration":775248,"Delta":112423132},{"NoteNumber":66,"Velocity":41,"Duration":128882,"SoundDuration":128882,"Delta":112423132},{"NoteNumber":63,"Velocity":40,"Duration":128882,"SoundDuration":128882,"Delta":112552014},{"NoteNumber":59,"Velocity":40,"Duration":128882,"SoundDuration":128882,"Delta":112680897},{"NoteNumber":57,"Velocity":39,"Duration":129533,"SoundDuration":129533,"Delta":112809780},{"NoteNumber":54,"Velocity":38,"Duration":129533,"SoundDuration":129533,"Delta":112939313},{"NoteNumber":45,"Velocity":37,"Duration":129533,"SoundDuration":129533,"Delta":113068847},{"NoteNumber":66,"Velocity":55,"Duration":390261,"SoundDuration":390261,"Delta":113198381},{"NoteNumber":78,"Velocity":64,"Duration":390261,"SoundDuration":390261,"Delta":113198381},{"NoteNumber":33,"Velocity":32,"Duration":129436,"SoundDuration":129436,"Delta":113198381},{"NoteNumber":45,"Velocity":32,"Duration":129727,"SoundDuration":129727,"Delta":113327818},{"NoteNumber":54,"Velocity":33,"Duration":131096,"SoundDuration":131096,"Delta":113457546},{"NoteNumber":67,"Velocity":47,"Duration":401828,"SoundDuration":401828,"Delta":113588642},{"NoteNumber":79,"Velocity":63,"Duration":401828,"SoundDuration":401828,"Delta":113588642},{"NoteNumber":55,"Velocity":34,"Duration":132512,"SoundDuration":132512,"Delta":113588642},{"NoteNumber":58,"Velocity":35,"Duration":133932,"SoundDuration":133932,"Delta":113721155},{"NoteNumber":63,"Velocity":36,"Duration":135383,"SoundDuration":135383,"Delta":113855088},{"NoteNumber":74,"Velocity":35,"Duration":848193,"SoundDuration":848193,"Delta":113990471},{"NoteNumber":76,"Velocity":35,"Duration":848193,"SoundDuration":848193,"Delta":113990471},{"NoteNumber":70,"Velocity":55,"Duration":1762825,"SoundDuration":1762825,"Delta":113990471},{"NoteNumber":82,"Velocity":46,"Duration":1762825,"SoundDuration":1762825,"Delta":113990471},{"NoteNumber":64,"Velocity":49,"Duration":136874,"SoundDuration":136874,"Delta":113990471},{"NoteNumber":62,"Velocity":45,"Duration":136874,"SoundDuration":136874,"Delta":113990471},{"NoteNumber":58,"Velocity":36,"Duration":138409,"SoundDuration":138409,"Delta":114127345},{"NoteNumber":55,"Velocity":36,"Duration":140776,"SoundDuration":140776,"Delta":114265755},{"NoteNumber":45,"Velocity":34,"Duration":142370,"SoundDuration":142370,"Delta":114406532},{"NoteNumber":55,"Velocity":31,"Duration":107935,"SoundDuration":107935,"Delta":114548902},{"NoteNumber":55,"Velocity":32,"Duration":145709,"SoundDuration":145709,"Delta":114692954},{"NoteNumber":73,"Velocity":45,"Duration":914632,"SoundDuration":914632,"Delta":114838664},{"NoteNumber":77,"Velocity":43,"Duration":914632,"SoundDuration":914632,"Delta":114838664},{"NoteNumber":65,"Velocity":44,"Duration":147439,"SoundDuration":147439,"Delta":114838664},{"NoteNumber":61,"Velocity":40,"Duration":147439,"SoundDuration":147439,"Delta":114838664},{"NoteNumber":58,"Velocity":28,"Duration":149232,"SoundDuration":149232,"Delta":114986103},{"NoteNumber":55,"Velocity":27,"Duration":151035,"SoundDuration":151035,"Delta":115135336},{"NoteNumber":45,"Velocity":27,"Duration":153391,"SoundDuration":153391,"Delta":115286372},{"NoteNumber":55,"Velocity":26,"Duration":116702,"SoundDuration":116702,"Delta":115439764},{"NoteNumber":55,"Velocity":27,"Duration":157767,"SoundDuration":157767,"Delta":115595529},{"NoteNumber":67,"Velocity":38,"Duration":991089,"SoundDuration":991089,"Delta":115753296},{"NoteNumber":69,"Velocity":30,"Duration":991089,"SoundDuration":991089,"Delta":115753296},{"NoteNumber":73,"Velocity":34,"Duration":991089,"SoundDuration":991089,"Delta":115753296},{"NoteNumber":78,"Velocity":30,"Duration":991089,"SoundDuration":991089,"Delta":115753296},{"NoteNumber":81,"Velocity":40,"Duration":991089,"SoundDuration":991089,"Delta":115753296},{"NoteNumber":66,"Velocity":38,"Duration":159809,"SoundDuration":159809,"Delta":115753296},{"NoteNumber":61,"Velocity":35,"Duration":159809,"SoundDuration":159809,"Delta":115753296},{"NoteNumber":57,"Velocity":24,"Duration":121249,"SoundDuration":121249,"Delta":115913106},{"NoteNumber":57,"Velocity":24,"Duration":164017,"SoundDuration":164017,"Delta":116074946},{"NoteNumber":55,"Velocity":23,"Duration":166197,"SoundDuration":166197,"Delta":116238963},{"NoteNumber":45,"Velocity":22,"Duration":126494,"SoundDuration":126494,"Delta":116405161},{"NoteNumber":45,"Velocity":21,"Duration":170183,"SoundDuration":170183,"Delta":116574202},{"NoteNumber":50,"Velocity":32,"Duration":352899,"SoundDuration":352899,"Delta":116744386},{"NoteNumber":38,"Velocity":28,"Duration":352899,"SoundDuration":352899,"Delta":116744386},{"NoteNumber":26,"Velocity":28,"Duration":352899,"SoundDuration":352899,"Delta":116744386},{"NoteNumber":62,"Velocity":21,"Duration":89937,"SoundDuration":89937,"Delta":117097285},{"NoteNumber":66,"Velocity":21,"Duration":89937,"SoundDuration":89937,"Delta":117097285},{"NoteNumber":74,"Velocity":24,"Duration":89937,"SoundDuration":89937,"Delta":117097285},{"NoteNumber":45,"Velocity":19,"Duration":89937,"SoundDuration":89937,"Delta":117097285},{"NoteNumber":57,"Velocity":19,"Duration":89937,"SoundDuration":89937,"Delta":117097285},{"NoteNumber":54,"Velocity":19,"Duration":89937,"SoundDuration":89937,"Delta":117097285},{"NoteNumber":62,"Velocity":21,"Duration":89937,"SoundDuration":89937,"Delta":117255998},{"NoteNumber":66,"Velocity":21,"Duration":89937,"SoundDuration":89937,"Delta":117255998},{"NoteNumber":74,"Velocity":24,"Duration":89937,"SoundDuration":89937,"Delta":117255998},{"NoteNumber":54,"Velocity":19,"Duration":89937,"SoundDuration":89937,"Delta":117255998},{"NoteNumber":57,"Velocity":19,"Duration":89937,"SoundDuration":89937,"Delta":117255998},{"NoteNumber":45,"Velocity":19,"Duration":89937,"SoundDuration":89937,"Delta":117255998},{"NoteNumber":62,"Velocity":21,"Duration":78938,"SoundDuration":78938,"Delta":117414712},{"NoteNumber":66,"Velocity":21,"Duration":78938,"SoundDuration":78938,"Delta":117414712},{"NoteNumber":74,"Velocity":24,"Duration":78938,"SoundDuration":78938,"Delta":117414712},{"NoteNumber":54,"Velocity":19,"Duration":78938,"SoundDuration":78938,"Delta":117414712},{"NoteNumber":45,"Velocity":19,"Duration":78938,"SoundDuration":78938,"Delta":117414712},{"NoteNumber":57,"Velocity":19,"Duration":78938,"SoundDuration":78938,"Delta":117414712},{"NoteNumber":54,"Velocity":28,"Duration":131563,"SoundDuration":131563,"Delta":117765548},{"NoteNumber":42,"Velocity":25,"Duration":131563,"SoundDuration":131563,"Delta":117765548},{"NoteNumber":30,"Velocity":25,"Duration":131563,"SoundDuration":131563,"Delta":117765548},{"NoteNumber":58,"Velocity":27,"Duration":127826,"SoundDuration":127826,"Delta":118116384},{"NoteNumber":46,"Velocity":25,"Duration":127826,"SoundDuration":127826,"Delta":118116384},{"NoteNumber":34,"Velocity":25,"Duration":127826,"SoundDuration":127826,"Delta":118116384},{"NoteNumber":55,"Velocity":18,"Duration":174398,"SoundDuration":174398,"Delta":118450735},{"NoteNumber":62,"Velocity":18,"Duration":174398,"SoundDuration":174398,"Delta":118450735},{"NoteNumber":64,"Velocity":20,"Duration":174398,"SoundDuration":174398,"Delta":118450735},{"NoteNumber":52,"Velocity":16,"Duration":174398,"SoundDuration":174398,"Delta":118450735},{"NoteNumber":50,"Velocity":16,"Duration":174398,"SoundDuration":174398,"Delta":118450735},{"NoteNumber":55,"Velocity":27,"Duration":126390,"SoundDuration":126390,"Delta":118799532},{"NoteNumber":43,"Velocity":26,"Duration":126390,"SoundDuration":126390,"Delta":118799532},{"NoteNumber":31,"Velocity":26,"Duration":126390,"SoundDuration":126390,"Delta":118799532},{"NoteNumber":58,"Velocity":18,"Duration":172393,"SoundDuration":172393,"Delta":119131969},{"NoteNumber":62,"Velocity":18,"Duration":172393,"SoundDuration":172393,"Delta":119131969},{"NoteNumber":64,"Velocity":20,"Duration":172393,"SoundDuration":172393,"Delta":119131969},{"NoteNumber":52,"Velocity":16,"Duration":172393,"SoundDuration":172393,"Delta":119131969},{"NoteNumber":50,"Velocity":16,"Duration":172393,"SoundDuration":172393,"Delta":119131969},{"NoteNumber":50,"Velocity":32,"Duration":337040,"SoundDuration":337040,"Delta":119476757},{"NoteNumber":38,"Velocity":28,"Duration":337040,"SoundDuration":337040,"Delta":119476757},{"NoteNumber":26,"Velocity":28,"Duration":337040,"SoundDuration":337040,"Delta":119476757},{"NoteNumber":62,"Velocity":22,"Duration":85849,"SoundDuration":85849,"Delta":119813798},{"NoteNumber":66,"Velocity":22,"Duration":85849,"SoundDuration":85849,"Delta":119813798},{"NoteNumber":74,"Velocity":25,"Duration":85849,"SoundDuration":85849,"Delta":119813798},{"NoteNumber":54,"Velocity":19,"Duration":85849,"SoundDuration":85849,"Delta":119813798},{"NoteNumber":57,"Velocity":19,"Duration":85849,"SoundDuration":85849,"Delta":119813798},{"NoteNumber":45,"Velocity":19,"Duration":85849,"SoundDuration":85849,"Delta":119813798},{"NoteNumber":62,"Velocity":22,"Duration":85849,"SoundDuration":85849,"Delta":119965298},{"NoteNumber":66,"Velocity":22,"Duration":85849,"SoundDuration":85849,"Delta":119965298},{"NoteNumber":74,"Velocity":25,"Duration":85849,"SoundDuration":85849,"Delta":119965298},{"NoteNumber":45,"Velocity":19,"Duration":85849,"SoundDuration":85849,"Delta":119965298},{"NoteNumber":57,"Velocity":19,"Duration":85849,"SoundDuration":85849,"Delta":119965298},{"NoteNumber":54,"Velocity":19,"Duration":85849,"SoundDuration":85849,"Delta":119965298},{"NoteNumber":62,"Velocity":22,"Duration":75834,"SoundDuration":75834,"Delta":120116797},{"NoteNumber":66,"Velocity":22,"Duration":75834,"SoundDuration":75834,"Delta":120116797},{"NoteNumber":74,"Velocity":25,"Duration":75834,"SoundDuration":75834,"Delta":120116797},{"NoteNumber":54,"Velocity":19,"Duration":75834,"SoundDuration":75834,"Delta":120116797},{"NoteNumber":45,"Velocity":19,"Duration":75834,"SoundDuration":75834,"Delta":120116797},{"NoteNumber":57,"Velocity":19,"Duration":75834,"SoundDuration":75834,"Delta":120116797},{"NoteNumber":54,"Velocity":28,"Duration":125684,"SoundDuration":125684,"Delta":120452897},{"NoteNumber":30,"Velocity":26,"Duration":125684,"SoundDuration":125684,"Delta":120452897},{"NoteNumber":42,"Velocity":26,"Duration":125684,"SoundDuration":125684,"Delta":120452897},{"NoteNumber":58,"Velocity":28,"Duration":122269,"SoundDuration":122269,"Delta":120788055},{"NoteNumber":34,"Velocity":26,"Duration":122269,"SoundDuration":122269,"Delta":120788055},{"NoteNumber":46,"Velocity":26,"Duration":122269,"SoundDuration":122269,"Delta":120788055},{"NoteNumber":55,"Velocity":18,"Duration":163025,"SoundDuration":163025,"Delta":121114106},{"NoteNumber":62,"Velocity":18,"Duration":163025,"SoundDuration":163025,"Delta":121114106},{"NoteNumber":64,"Velocity":21,"Duration":163025,"SoundDuration":163025,"Delta":121114106},{"NoteNumber":50,"Velocity":17,"Duration":163025,"SoundDuration":163025,"Delta":121114106},{"NoteNumber":52,"Velocity":17,"Duration":163025,"SoundDuration":163025,"Delta":121114106},{"NoteNumber":55,"Velocity":27,"Duration":122269,"SoundDuration":122269,"Delta":121440158},{"NoteNumber":31,"Velocity":25,"Duration":122269,"SoundDuration":122269,"Delta":121440158},{"NoteNumber":43,"Velocity":25,"Duration":122269,"SoundDuration":122269,"Delta":121440158},{"NoteNumber":58,"Velocity":18,"Duration":163025,"SoundDuration":163025,"Delta":121766209},{"NoteNumber":62,"Velocity":18,"Duration":163025,"SoundDuration":163025,"Delta":121766209},{"NoteNumber":64,"Velocity":21,"Duration":163025,"SoundDuration":163025,"Delta":121766209},{"NoteNumber":52,"Velocity":17,"Duration":163025,"SoundDuration":163025,"Delta":121766209},{"NoteNumber":50,"Velocity":17,"Duration":163025,"SoundDuration":163025,"Delta":121766209},{"NoteNumber":50,"Velocity":32,"Duration":326051,"SoundDuration":326051,"Delta":122092261},{"NoteNumber":38,"Velocity":28,"Duration":326051,"SoundDuration":326051,"Delta":122092261},{"NoteNumber":26,"Velocity":28,"Duration":326051,"SoundDuration":326051,"Delta":122092261},{"NoteNumber":62,"Velocity":23,"Duration":84568,"SoundDuration":84568,"Delta":122418312},{"NoteNumber":66,"Velocity":23,"Duration":84568,"SoundDuration":84568,"Delta":122418312},{"NoteNumber":74,"Velocity":26,"Duration":84568,"SoundDuration":84568,"Delta":122418312},{"NoteNumber":45,"Velocity":19,"Duration":84568,"SoundDuration":84568,"Delta":122418312},{"NoteNumber":57,"Velocity":19,"Duration":84568,"SoundDuration":84568,"Delta":122418312},{"NoteNumber":54,"Velocity":19,"Duration":84568,"SoundDuration":84568,"Delta":122418312},{"NoteNumber":62,"Velocity":24,"Duration":84568,"SoundDuration":84568,"Delta":122567551},{"NoteNumber":66,"Velocity":24,"Duration":84568,"SoundDuration":84568,"Delta":122567551},{"NoteNumber":74,"Velocity":27,"Duration":84568,"SoundDuration":84568,"Delta":122567551},{"NoteNumber":54,"Velocity":20,"Duration":84568,"SoundDuration":84568,"Delta":122567551},{"NoteNumber":57,"Velocity":20,"Duration":84568,"SoundDuration":84568,"Delta":122567551},{"NoteNumber":45,"Velocity":20,"Duration":84568,"SoundDuration":84568,"Delta":122567551},{"NoteNumber":62,"Velocity":24,"Duration":72965,"SoundDuration":72965,"Delta":122716790},{"NoteNumber":66,"Velocity":24,"Duration":72965,"SoundDuration":72965,"Delta":122716790},{"NoteNumber":74,"Velocity":27,"Duration":72965,"SoundDuration":72965,"Delta":122716790},{"NoteNumber":54,"Velocity":20,"Duration":72965,"SoundDuration":72965,"Delta":122716790},{"NoteNumber":45,"Velocity":20,"Duration":72965,"SoundDuration":72965,"Delta":122716790},{"NoteNumber":57,"Velocity":20,"Duration":72965,"SoundDuration":72965,"Delta":122716790},{"NoteNumber":62,"Velocity":31,"Duration":122342,"SoundDuration":122342,"Delta":123041961},{"NoteNumber":50,"Velocity":27,"Duration":122342,"SoundDuration":122342,"Delta":123041961},{"NoteNumber":51,"Velocity":36,"Duration":935122,"SoundDuration":935122,"Delta":123368568},{"NoteNumber":27,"Velocity":32,"Duration":935122,"SoundDuration":935122,"Delta":123368568},{"NoteNumber":39,"Velocity":32,"Duration":935122,"SoundDuration":935122,"Delta":123368568},{"NoteNumber":62,"Velocity":25,"Duration":85418,"SoundDuration":85418,"Delta":123691706},{"NoteNumber":67,"Velocity":28,"Duration":85418,"SoundDuration":85418,"Delta":123691706},{"NoteNumber":50,"Velocity":21,"Duration":85418,"SoundDuration":85418,"Delta":123691706},{"NoteNumber":55,"Velocity":21,"Duration":85418,"SoundDuration":85418,"Delta":123691706},{"NoteNumber":62,"Velocity":26,"Duration":85418,"SoundDuration":85418,"Delta":123842445},{"NoteNumber":67,"Velocity":29,"Duration":85418,"SoundDuration":85418,"Delta":123842445},{"NoteNumber":50,"Velocity":22,"Duration":85418,"SoundDuration":85418,"Delta":123842445},{"NoteNumber":55,"Velocity":22,"Duration":85418,"SoundDuration":85418,"Delta":123842445},{"NoteNumber":62,"Velocity":27,"Duration":69580,"SoundDuration":69580,"Delta":123993183},{"NoteNumber":67,"Velocity":30,"Duration":69580,"SoundDuration":69580,"Delta":123993183},{"NoteNumber":50,"Velocity":23,"Duration":69580,"SoundDuration":69580,"Delta":123993183},{"NoteNumber":55,"Velocity":23,"Duration":69580,"SoundDuration":69580,"Delta":123993183},{"NoteNumber":62,"Velocity":35,"Duration":118819,"SoundDuration":118819,"Delta":124303691},{"NoteNumber":50,"Velocity":29,"Duration":118819,"SoundDuration":118819,"Delta":124303691},{"NoteNumber":52,"Velocity":41,"Duration":917804,"SoundDuration":917804,"Delta":124619272},{"NoteNumber":40,"Velocity":36,"Duration":917804,"SoundDuration":917804,"Delta":124619272},{"NoteNumber":28,"Velocity":36,"Duration":917804,"SoundDuration":917804,"Delta":124619272},{"NoteNumber":62,"Velocity":30,"Duration":82516,"SoundDuration":82516,"Delta":124933375},{"NoteNumber":68,"Velocity":34,"Duration":82516,"SoundDuration":82516,"Delta":124933375},{"NoteNumber":50,"Velocity":27,"Duration":82516,"SoundDuration":82516,"Delta":124933375},{"NoteNumber":56,"Velocity":27,"Duration":82516,"SoundDuration":82516,"Delta":124933375},{"NoteNumber":62,"Velocity":30,"Duration":82516,"SoundDuration":82516,"Delta":125078992},{"NoteNumber":68,"Velocity":34,"Duration":82516,"SoundDuration":82516,"Delta":125078992},{"NoteNumber":50,"Velocity":27,"Duration":82516,"SoundDuration":82516,"Delta":125078992},{"NoteNumber":56,"Velocity":27,"Duration":82516,"SoundDuration":82516,"Delta":125078992},{"NoteNumber":62,"Velocity":31,"Duration":70305,"SoundDuration":70305,"Delta":125224609},{"NoteNumber":68,"Velocity":35,"Duration":70305,"SoundDuration":70305,"Delta":125224609},{"NoteNumber":50,"Velocity":28,"Duration":70305,"SoundDuration":70305,"Delta":125224609},{"NoteNumber":56,"Velocity":28,"Duration":70305,"SoundDuration":70305,"Delta":125224609},{"NoteNumber":62,"Velocity":39,"Duration":116966,"SoundDuration":116966,"Delta":125537077},{"NoteNumber":50,"Velocity":36,"Duration":116966,"SoundDuration":116966,"Delta":125537077},{"NoteNumber":53,"Velocity":40,"Duration":116568,"SoundDuration":116568,"Delta":125848323},{"NoteNumber":41,"Velocity":36,"Duration":116568,"SoundDuration":116568,"Delta":125848323},{"NoteNumber":29,"Velocity":36,"Duration":116568,"SoundDuration":116568,"Delta":125848323},{"NoteNumber":69,"Velocity":35,"Duration":115967,"SoundDuration":115967,"Delta":126158925},{"NoteNumber":62,"Velocity":35,"Duration":115967,"SoundDuration":115967,"Delta":126158925},{"NoteNumber":50,"Velocity":32,"Duration":115967,"SoundDuration":115967,"Delta":126158925},{"NoteNumber":54,"Velocity":42,"Duration":115967,"SoundDuration":115967,"Delta":126468171},{"NoteNumber":30,"Velocity":38,"Duration":115967,"SoundDuration":115967,"Delta":126468171},{"NoteNumber":42,"Velocity":38,"Duration":115967,"SoundDuration":115967,"Delta":126468171},{"NoteNumber":69,"Velocity":37,"Duration":115372,"SoundDuration":115372,"Delta":126776539},{"NoteNumber":62,"Velocity":37,"Duration":115372,"SoundDuration":115372,"Delta":126776539},{"NoteNumber":50,"Velocity":35,"Duration":115372,"SoundDuration":115372,"Delta":126776539},{"NoteNumber":55,"Velocity":51,"Duration":892291,"SoundDuration":892291,"Delta":127084200},{"NoteNumber":43,"Velocity":45,"Duration":892291,"SoundDuration":892291,"Delta":127084200},{"NoteNumber":31,"Velocity":45,"Duration":892291,"SoundDuration":892291,"Delta":127084200},{"NoteNumber":67,"Velocity":36,"Duration":79804,"SoundDuration":79804,"Delta":127390291},{"NoteNumber":70,"Velocity":40,"Duration":79804,"SoundDuration":79804,"Delta":127390291},{"NoteNumber":50,"Velocity":30,"Duration":79804,"SoundDuration":79804,"Delta":127390291},{"NoteNumber":62,"Velocity":30,"Duration":79804,"SoundDuration":79804,"Delta":127390291},{"NoteNumber":58,"Velocity":30,"Duration":79804,"SoundDuration":79804,"Delta":127390291},{"NoteNumber":67,"Velocity":36,"Duration":79804,"SoundDuration":79804,"Delta":127531123},{"NoteNumber":70,"Velocity":40,"Duration":79804,"SoundDuration":79804,"Delta":127531123},{"NoteNumber":58,"Velocity":32,"Duration":79804,"SoundDuration":79804,"Delta":127531123},{"NoteNumber":62,"Velocity":32,"Duration":79804,"SoundDuration":79804,"Delta":127531123},{"NoteNumber":50,"Velocity":32,"Duration":79804,"SoundDuration":79804,"Delta":127531123},{"NoteNumber":67,"Velocity":36,"Duration":228403,"SoundDuration":228403,"Delta":127671954},{"NoteNumber":70,"Velocity":41,"Duration":228403,"SoundDuration":228403,"Delta":127671954},{"NoteNumber":50,"Velocity":32,"Duration":228403,"SoundDuration":228403,"Delta":127671954},{"NoteNumber":62,"Velocity":32,"Duration":228403,"SoundDuration":228403,"Delta":127671954},{"NoteNumber":58,"Velocity":32,"Duration":227134,"SoundDuration":227134,"Delta":127671954},{"NoteNumber":58,"Velocity":49,"Duration":114002,"SoundDuration":114002,"Delta":127976492},{"NoteNumber":46,"Velocity":42,"Duration":114002,"SoundDuration":114002,"Delta":127976492},{"NoteNumber":34,"Velocity":42,"Duration":114002,"SoundDuration":114002,"Delta":127976492},{"NoteNumber":62,"Velocity":50,"Duration":113624,"SoundDuration":113624,"Delta":128279870},{"NoteNumber":50,"Velocity":43,"Duration":113624,"SoundDuration":113624,"Delta":128279870},{"NoteNumber":38,"Velocity":43,"Duration":113624,"SoundDuration":113624,"Delta":128279870},{"NoteNumber":67,"Velocity":45,"Duration":150738,"SoundDuration":150738,"Delta":128582634},{"NoteNumber":70,"Velocity":45,"Duration":150738,"SoundDuration":150738,"Delta":128582634},{"NoteNumber":58,"Velocity":38,"Duration":149482,"SoundDuration":149482,"Delta":128582634},{"NoteNumber":50,"Velocity":38,"Duration":150738,"SoundDuration":150738,"Delta":128582634},{"NoteNumber":62,"Velocity":38,"Duration":150738,"SoundDuration":150738,"Delta":128582634},{"NoteNumber":58,"Velocity":52,"Duration":113053,"SoundDuration":113053,"Delta":128884111},{"NoteNumber":46,"Velocity":45,"Duration":113053,"SoundDuration":113053,"Delta":128884111},{"NoteNumber":34,"Velocity":45,"Duration":113053,"SoundDuration":113053,"Delta":128884111},{"NoteNumber":67,"Velocity":47,"Duration":149985,"SoundDuration":149985,"Delta":129184753},{"NoteNumber":70,"Velocity":47,"Duration":149985,"SoundDuration":149985,"Delta":129184753},{"NoteNumber":58,"Velocity":39,"Duration":149985,"SoundDuration":149985,"Delta":129184753},{"NoteNumber":50,"Velocity":39,"Duration":149985,"SoundDuration":149985,"Delta":129184753},{"NoteNumber":62,"Velocity":39,"Duration":149985,"SoundDuration":149985,"Delta":129184753},{"NoteNumber":55,"Velocity":61,"Duration":149307,"SoundDuration":149307,"Delta":129484723},{"NoteNumber":31,"Velocity":54,"Duration":149307,"SoundDuration":149307,"Delta":129484723},{"NoteNumber":43,"Velocity":54,"Duration":149307,"SoundDuration":149307,"Delta":129484723},{"NoteNumber":67,"Velocity":44,"Duration":78696,"SoundDuration":78696,"Delta":129783270},{"NoteNumber":70,"Velocity":49,"Duration":78696,"SoundDuration":78696,"Delta":129783270},{"NoteNumber":58,"Velocity":36,"Duration":78696,"SoundDuration":78696,"Delta":129783270},{"NoteNumber":62,"Velocity":36,"Duration":78696,"SoundDuration":78696,"Delta":129783270},{"NoteNumber":50,"Velocity":36,"Duration":78696,"SoundDuration":78696,"Delta":129783270},{"NoteNumber":67,"Velocity":45,"Duration":78696,"SoundDuration":78696,"Delta":129922146},{"NoteNumber":70,"Velocity":50,"Duration":78696,"SoundDuration":78696,"Delta":129922146},{"NoteNumber":58,"Velocity":36,"Duration":78696,"SoundDuration":78696,"Delta":129922146},{"NoteNumber":50,"Velocity":36,"Duration":78696,"SoundDuration":78696,"Delta":129922146},{"NoteNumber":62,"Velocity":36,"Duration":78696,"SoundDuration":78696,"Delta":129922146},{"NoteNumber":67,"Velocity":45,"Duration":222750,"SoundDuration":222750,"Delta":130061022},{"NoteNumber":70,"Velocity":50,"Duration":222750,"SoundDuration":222750,"Delta":130061022},{"NoteNumber":50,"Velocity":36,"Duration":222750,"SoundDuration":222750,"Delta":130061022},{"NoteNumber":62,"Velocity":36,"Duration":222750,"SoundDuration":222750,"Delta":130061022},{"NoteNumber":58,"Velocity":36,"Duration":221512,"SoundDuration":221512,"Delta":130061022},{"NoteNumber":58,"Velocity":56,"Duration":148128,"SoundDuration":148128,"Delta":130358022},{"NoteNumber":46,"Velocity":51,"Duration":148128,"SoundDuration":148128,"Delta":130358022},{"NoteNumber":34,"Velocity":51,"Duration":148128,"SoundDuration":148128,"Delta":130358022},{"NoteNumber":62,"Velocity":57,"Duration":110826,"SoundDuration":110826,"Delta":130653919},{"NoteNumber":50,"Velocity":52,"Duration":110826,"SoundDuration":110826,"Delta":130653919},{"NoteNumber":38,"Velocity":52,"Duration":110826,"SoundDuration":110826,"Delta":130653919},{"NoteNumber":67,"Velocity":53,"Duration":147044,"SoundDuration":147044,"Delta":130949233},{"NoteNumber":70,"Velocity":53,"Duration":147044,"SoundDuration":147044,"Delta":130949233},{"NoteNumber":58,"Velocity":47,"Duration":145819,"SoundDuration":145819,"Delta":130949233},{"NoteNumber":62,"Velocity":47,"Duration":147044,"SoundDuration":147044,"Delta":130949233},{"NoteNumber":50,"Velocity":47,"Duration":147044,"SoundDuration":147044,"Delta":130949233},{"NoteNumber":58,"Velocity":59,"Duration":110283,"SoundDuration":110283,"Delta":131243322},{"NoteNumber":34,"Velocity":54,"Duration":146966,"SoundDuration":146966,"Delta":131243322},{"NoteNumber":46,"Velocity":54,"Duration":110283,"SoundDuration":110283,"Delta":131243322},{"NoteNumber":67,"Velocity":53,"Duration":146327,"SoundDuration":146327,"Delta":131536616},{"NoteNumber":70,"Velocity":53,"Duration":146327,"SoundDuration":146327,"Delta":131536616},{"NoteNumber":58,"Velocity":48,"Duration":146327,"SoundDuration":146327,"Delta":131536616},{"NoteNumber":62,"Velocity":48,"Duration":146327,"SoundDuration":146327,"Delta":131536616},{"NoteNumber":50,"Velocity":48,"Duration":146327,"SoundDuration":146327,"Delta":131536616},{"NoteNumber":55,"Velocity":70,"Duration":145682,"SoundDuration":145682,"Delta":131829271},{"NoteNumber":31,"Velocity":63,"Duration":145682,"SoundDuration":145682,"Delta":131829271},{"NoteNumber":43,"Velocity":63,"Duration":145682,"SoundDuration":145682,"Delta":131829271},{"NoteNumber":67,"Velocity":51,"Duration":76569,"SoundDuration":76569,"Delta":132120570},{"NoteNumber":70,"Velocity":57,"Duration":76569,"SoundDuration":76569,"Delta":132120570},{"NoteNumber":58,"Velocity":45,"Duration":76569,"SoundDuration":76569,"Delta":132120570},{"NoteNumber":50,"Velocity":45,"Duration":76569,"SoundDuration":76569,"Delta":132120570},{"NoteNumber":62,"Velocity":45,"Duration":76569,"SoundDuration":76569,"Delta":132120570},{"NoteNumber":67,"Velocity":51,"Duration":76569,"SoundDuration":76569,"Delta":132255693},{"NoteNumber":70,"Velocity":57,"Duration":76569,"SoundDuration":76569,"Delta":132255693},{"NoteNumber":58,"Velocity":45,"Duration":76569,"SoundDuration":76569,"Delta":132255693},{"NoteNumber":62,"Velocity":45,"Duration":76569,"SoundDuration":76569,"Delta":132255693},{"NoteNumber":50,"Velocity":45,"Duration":76569,"SoundDuration":76569,"Delta":132255693},{"NoteNumber":67,"Velocity":51,"Duration":216325,"SoundDuration":216325,"Delta":132390816},{"NoteNumber":70,"Velocity":57,"Duration":216325,"SoundDuration":216325,"Delta":132390816},{"NoteNumber":50,"Velocity":45,"Duration":216325,"SoundDuration":216325,"Delta":132390816},{"NoteNumber":62,"Velocity":45,"Duration":216325,"SoundDuration":216325,"Delta":132390816},{"NoteNumber":58,"Velocity":45,"Duration":216325,"SoundDuration":216325,"Delta":132390816},{"NoteNumber":67,"Velocity":66,"Duration":108162,"SoundDuration":108162,"Delta":132679250},{"NoteNumber":43,"Velocity":59,"Duration":108162,"SoundDuration":108162,"Delta":132679250},{"NoteNumber":55,"Velocity":59,"Duration":108162,"SoundDuration":108162,"Delta":132679250},{"NoteNumber":56,"Velocity":75,"Duration":831592,"SoundDuration":831592,"Delta":132967684},{"NoteNumber":44,"Velocity":67,"Duration":831592,"SoundDuration":831592,"Delta":132967684},{"NoteNumber":32,"Velocity":67,"Duration":831592,"SoundDuration":831592,"Delta":132967684},{"NoteNumber":60,"Velocity":54,"Duration":74229,"SoundDuration":74229,"Delta":133253397},{"NoteNumber":67,"Velocity":54,"Duration":74229,"SoundDuration":74229,"Delta":133253397},{"NoteNumber":72,"Velocity":61,"Duration":74229,"SoundDuration":74229,"Delta":133253397},{"NoteNumber":48,"Velocity":50,"Duration":74229,"SoundDuration":74229,"Delta":133253397},{"NoteNumber":55,"Velocity":50,"Duration":74229,"SoundDuration":74229,"Delta":133253397},{"NoteNumber":60,"Velocity":54,"Duration":74229,"SoundDuration":74229,"Delta":133384390},{"NoteNumber":67,"Velocity":54,"Duration":74229,"SoundDuration":74229,"Delta":133384390},{"NoteNumber":72,"Velocity":61,"Duration":74229,"SoundDuration":74229,"Delta":133384390},{"NoteNumber":48,"Velocity":50,"Duration":74229,"SoundDuration":74229,"Delta":133384390},{"NoteNumber":55,"Velocity":50,"Duration":74229,"SoundDuration":74229,"Delta":133384390},{"NoteNumber":60,"Velocity":55,"Duration":212471,"SoundDuration":212471,"Delta":133515383},{"NoteNumber":67,"Velocity":55,"Duration":212471,"SoundDuration":212471,"Delta":133515383},{"NoteNumber":72,"Velocity":62,"Duration":212471,"SoundDuration":212471,"Delta":133515383},{"NoteNumber":48,"Velocity":50,"Duration":212471,"SoundDuration":212471,"Delta":133515383},{"NoteNumber":55,"Velocity":50,"Duration":212471,"SoundDuration":212471,"Delta":133515383},{"NoteNumber":67,"Velocity":69,"Duration":107132,"SoundDuration":107132,"Delta":133799276},{"NoteNumber":55,"Velocity":63,"Duration":107132,"SoundDuration":107132,"Delta":133799276},{"NoteNumber":43,"Velocity":63,"Duration":107132,"SoundDuration":107132,"Delta":133799276},{"NoteNumber":57,"Velocity":80,"Duration":821602,"SoundDuration":821602,"Delta":134084963},{"NoteNumber":33,"Velocity":72,"Duration":821602,"SoundDuration":821602,"Delta":134084963},{"NoteNumber":45,"Velocity":72,"Duration":821602,"SoundDuration":821602,"Delta":134084963},{"NoteNumber":61,"Velocity":57,"Duration":72027,"SoundDuration":72027,"Delta":134369358},{"NoteNumber":67,"Velocity":57,"Duration":72027,"SoundDuration":72027,"Delta":134369358},{"NoteNumber":73,"Velocity":64,"Duration":72027,"SoundDuration":72027,"Delta":134369358},{"NoteNumber":49,"Velocity":50,"Duration":72027,"SoundDuration":72027,"Delta":134369358},{"NoteNumber":55,"Velocity":50,"Duration":72027,"SoundDuration":72027,"Delta":134369358},{"NoteNumber":61,"Velocity":57,"Duration":72027,"SoundDuration":72027,"Delta":134496466},{"NoteNumber":67,"Velocity":57,"Duration":72027,"SoundDuration":72027,"Delta":134496466},{"NoteNumber":73,"Velocity":64,"Duration":72027,"SoundDuration":72027,"Delta":134496466},{"NoteNumber":49,"Velocity":50,"Duration":72027,"SoundDuration":72027,"Delta":134496466},{"NoteNumber":55,"Velocity":50,"Duration":72027,"SoundDuration":72027,"Delta":134496466},{"NoteNumber":61,"Velocity":58,"Duration":212243,"SoundDuration":212243,"Delta":134623574},{"NoteNumber":67,"Velocity":58,"Duration":212243,"SoundDuration":212243,"Delta":134623574},{"NoteNumber":73,"Velocity":65,"Duration":212243,"SoundDuration":212243,"Delta":134623574},{"NoteNumber":55,"Velocity":50,"Duration":212243,"SoundDuration":212243,"Delta":134623574},{"NoteNumber":49,"Velocity":50,"Duration":212243,"SoundDuration":212243,"Delta":134623574},{"NoteNumber":67,"Velocity":74,"Duration":105950,"SoundDuration":105950,"Delta":134906566},{"NoteNumber":55,"Velocity":69,"Duration":105950,"SoundDuration":105950,"Delta":134906566},{"NoteNumber":58,"Velocity":75,"Duration":104156,"SoundDuration":104156,"Delta":135188556},{"NoteNumber":46,"Velocity":70,"Duration":104156,"SoundDuration":104156,"Delta":135188556},{"NoteNumber":34,"Velocity":70,"Duration":104156,"SoundDuration":104156,"Delta":135188556},{"NoteNumber":62,"Velocity":63,"Duration":105130,"SoundDuration":105130,"Delta":135466708},{"NoteNumber":67,"Velocity":63,"Duration":105130,"SoundDuration":105130,"Delta":135466708},{"NoteNumber":74,"Velocity":71,"Duration":105130,"SoundDuration":105130,"Delta":135466708},{"NoteNumber":55,"Velocity":53,"Duration":105130,"SoundDuration":105130,"Delta":135466708},{"NoteNumber":59,"Velocity":78,"Duration":105130,"SoundDuration":105130,"Delta":135747056},{"NoteNumber":35,"Velocity":70,"Duration":105130,"SoundDuration":105130,"Delta":135747056},{"NoteNumber":47,"Velocity":70,"Duration":105130,"SoundDuration":105130,"Delta":135747056},{"NoteNumber":62,"Velocity":64,"Duration":103201,"SoundDuration":103201,"Delta":136024761},{"NoteNumber":67,"Velocity":64,"Duration":103201,"SoundDuration":103201,"Delta":136024761},{"NoteNumber":74,"Velocity":72,"Duration":103201,"SoundDuration":103201,"Delta":136024761},{"NoteNumber":55,"Velocity":56,"Duration":103201,"SoundDuration":103201,"Delta":136024761},{"NoteNumber":60,"Velocity":81,"Duration":141136,"SoundDuration":141136,"Delta":136300188},{"NoteNumber":36,"Velocity":72,"Duration":141136,"SoundDuration":141136,"Delta":136300188},{"NoteNumber":48,"Velocity":72,"Duration":141136,"SoundDuration":141136,"Delta":136300188},{"NoteNumber":79,"Velocity":73,"Duration":66661,"SoundDuration":66661,"Delta":136582461},{"NoteNumber":75,"Velocity":65,"Duration":66661,"SoundDuration":66661,"Delta":136582461},{"NoteNumber":72,"Velocity":58,"Duration":66661,"SoundDuration":66661,"Delta":136582461},{"NoteNumber":67,"Velocity":58,"Duration":66661,"SoundDuration":66661,"Delta":136582461},{"NoteNumber":60,"Velocity":57,"Duration":66661,"SoundDuration":66661,"Delta":136582461},{"NoteNumber":55,"Velocity":51,"Duration":66661,"SoundDuration":66661,"Delta":136582461},{"NoteNumber":63,"Velocity":57,"Duration":66661,"SoundDuration":66661,"Delta":136582461},{"NoteNumber":79,"Velocity":73,"Duration":66661,"SoundDuration":66661,"Delta":136700098},{"NoteNumber":75,"Velocity":65,"Duration":66661,"SoundDuration":66661,"Delta":136700098},{"NoteNumber":72,"Velocity":58,"Duration":66661,"SoundDuration":66661,"Delta":136700098},{"NoteNumber":67,"Velocity":58,"Duration":66661,"SoundDuration":66661,"Delta":136700098},{"NoteNumber":63,"Velocity":57,"Duration":66661,"SoundDuration":66661,"Delta":136700098},{"NoteNumber":55,"Velocity":51,"Duration":66661,"SoundDuration":66661,"Delta":136700098},{"NoteNumber":60,"Velocity":57,"Duration":66661,"SoundDuration":66661,"Delta":136700098},{"NoteNumber":67,"Velocity":66,"Duration":213269,"SoundDuration":213269,"Delta":136817736},{"NoteNumber":72,"Velocity":66,"Duration":213269,"SoundDuration":213269,"Delta":136817736},{"NoteNumber":75,"Velocity":66,"Duration":213269,"SoundDuration":213269,"Delta":136817736},{"NoteNumber":79,"Velocity":74,"Duration":213269,"SoundDuration":213269,"Delta":136817736},{"NoteNumber":55,"Velocity":51,"Duration":213269,"SoundDuration":213269,"Delta":136817736},{"NoteNumber":63,"Velocity":57,"Duration":212085,"SoundDuration":212085,"Delta":136817736},{"NoteNumber":60,"Velocity":57,"Duration":213269,"SoundDuration":213269,"Delta":136817736},{"NoteNumber":63,"Velocity":76,"Duration":101809,"SoundDuration":101809,"Delta":137102096},{"NoteNumber":39,"Velocity":69,"Duration":101809,"SoundDuration":101809,"Delta":137102096},{"NoteNumber":51,"Velocity":69,"Duration":101809,"SoundDuration":101809,"Delta":137102096},{"NoteNumber":67,"Velocity":77,"Duration":104651,"SoundDuration":104651,"Delta":137374536},{"NoteNumber":43,"Velocity":70,"Duration":104651,"SoundDuration":104651,"Delta":137374536},{"NoteNumber":55,"Velocity":70,"Duration":104651,"SoundDuration":104651,"Delta":137374536},{"NoteNumber":79,"Velocity":72,"Duration":139534,"SoundDuration":139534,"Delta":137653606},{"NoteNumber":75,"Velocity":64,"Duration":139534,"SoundDuration":139534,"Delta":137653606},{"NoteNumber":72,"Velocity":57,"Duration":139534,"SoundDuration":139534,"Delta":137653606},{"NoteNumber":67,"Velocity":57,"Duration":139534,"SoundDuration":139534,"Delta":137653606},{"NoteNumber":60,"Velocity":57,"Duration":139534,"SoundDuration":139534,"Delta":137653606},{"NoteNumber":55,"Velocity":51,"Duration":139534,"SoundDuration":139534,"Delta":137653606},{"NoteNumber":63,"Velocity":57,"Duration":139534,"SoundDuration":139534,"Delta":137653606},{"NoteNumber":63,"Velocity":78,"Duration":104651,"SoundDuration":104651,"Delta":137932676},{"NoteNumber":39,"Velocity":71,"Duration":104651,"SoundDuration":104651,"Delta":137932676},{"NoteNumber":51,"Velocity":71,"Duration":104651,"SoundDuration":104651,"Delta":137932676},{"NoteNumber":80,"Velocity":74,"Duration":139534,"SoundDuration":139534,"Delta":138211746},{"NoteNumber":75,"Velocity":66,"Duration":139534,"SoundDuration":139534,"Delta":138211746},{"NoteNumber":72,"Velocity":59,"Duration":139534,"SoundDuration":139534,"Delta":138211746},{"NoteNumber":68,"Velocity":59,"Duration":139534,"SoundDuration":139534,"Delta":138211746},{"NoteNumber":63,"Velocity":57,"Duration":139534,"SoundDuration":139534,"Delta":138211746},{"NoteNumber":55,"Velocity":51,"Duration":139534,"SoundDuration":139534,"Delta":138211746},{"NoteNumber":60,"Velocity":57,"Duration":139534,"SoundDuration":139534,"Delta":138211746},{"NoteNumber":60,"Velocity":85,"Duration":139534,"SoundDuration":139534,"Delta":138490816},{"NoteNumber":48,"Velocity":76,"Duration":139534,"SoundDuration":139534,"Delta":138490816},{"NoteNumber":36,"Velocity":76,"Duration":139534,"SoundDuration":139534,"Delta":138490816},{"NoteNumber":81,"Velocity":76,"Duration":66929,"SoundDuration":66929,"Delta":138769886},{"NoteNumber":75,"Velocity":68,"Duration":66929,"SoundDuration":66929,"Delta":138769886},{"NoteNumber":72,"Velocity":61,"Duration":66929,"SoundDuration":66929,"Delta":138769886},{"NoteNumber":69,"Velocity":61,"Duration":66929,"SoundDuration":66929,"Delta":138769886},{"NoteNumber":60,"Velocity":62,"Duration":66929,"SoundDuration":66929,"Delta":138769886},{"NoteNumber":63,"Velocity":62,"Duration":66929,"SoundDuration":66929,"Delta":138769886},{"NoteNumber":55,"Velocity":55,"Duration":66929,"SoundDuration":66929,"Delta":138769886},{"NoteNumber":81,"Velocity":76,"Duration":66929,"SoundDuration":66929,"Delta":138887997},{"NoteNumber":75,"Velocity":68,"Duration":66929,"SoundDuration":66929,"Delta":138887997},{"NoteNumber":72,"Velocity":61,"Duration":66929,"SoundDuration":66929,"Delta":138887997},{"NoteNumber":69,"Velocity":61,"Duration":66929,"SoundDuration":66929,"Delta":138887997},{"NoteNumber":63,"Velocity":62,"Duration":66929,"SoundDuration":66929,"Delta":138887997},{"NoteNumber":55,"Velocity":55,"Duration":66929,"SoundDuration":66929,"Delta":138887997},{"NoteNumber":60,"Velocity":62,"Duration":66929,"SoundDuration":66929,"Delta":138887997},{"NoteNumber":69,"Velocity":62,"Duration":212264,"SoundDuration":212264,"Delta":139006107},{"NoteNumber":72,"Velocity":62,"Duration":212264,"SoundDuration":212264,"Delta":139006107},{"NoteNumber":75,"Velocity":69,"Duration":212264,"SoundDuration":212264,"Delta":139006107},{"NoteNumber":81,"Velocity":77,"Duration":212264,"SoundDuration":212264,"Delta":139006107},{"NoteNumber":60,"Velocity":63,"Duration":212264,"SoundDuration":212264,"Delta":139006107},{"NoteNumber":63,"Velocity":63,"Duration":211085,"SoundDuration":211085,"Delta":139006107},{"NoteNumber":55,"Velocity":56,"Duration":212264,"SoundDuration":212264,"Delta":139006107},{"NoteNumber":63,"Velocity":81,"Duration":103926,"SoundDuration":103926,"Delta":139289126},{"NoteNumber":39,"Velocity":73,"Duration":103926,"SoundDuration":103926,"Delta":139289126},{"NoteNumber":51,"Velocity":73,"Duration":103926,"SoundDuration":103926,"Delta":139289126},{"NoteNumber":67,"Velocity":82,"Duration":103926,"SoundDuration":103926,"Delta":139566262},{"NoteNumber":43,"Velocity":74,"Duration":103926,"SoundDuration":103926,"Delta":139566262},{"NoteNumber":55,"Velocity":74,"Duration":103926,"SoundDuration":103926,"Delta":139566262},{"NoteNumber":79,"Velocity":77,"Duration":138568,"SoundDuration":138568,"Delta":139843399},{"NoteNumber":75,"Velocity":69,"Duration":138568,"SoundDuration":138568,"Delta":139843399},{"NoteNumber":72,"Velocity":62,"Duration":138568,"SoundDuration":138568,"Delta":139843399},{"NoteNumber":67,"Velocity":62,"Duration":138568,"SoundDuration":138568,"Delta":139843399},{"NoteNumber":63,"Velocity":63,"Duration":137413,"SoundDuration":137413,"Delta":139843399},{"NoteNumber":55,"Velocity":56,"Duration":138568,"SoundDuration":138568,"Delta":139843399},{"NoteNumber":60,"Velocity":63,"Duration":138568,"SoundDuration":138568,"Delta":139843399},{"NoteNumber":63,"Velocity":83,"Duration":103926,"SoundDuration":103926,"Delta":140120535},{"NoteNumber":39,"Velocity":75,"Duration":103926,"SoundDuration":103926,"Delta":140120535},{"NoteNumber":51,"Velocity":75,"Duration":103926,"SoundDuration":103926,"Delta":140120535},{"NoteNumber":81,"Velocity":78,"Duration":138568,"SoundDuration":138568,"Delta":140397672},{"NoteNumber":75,"Velocity":70,"Duration":138568,"SoundDuration":138568,"Delta":140397672},{"NoteNumber":72,"Velocity":63,"Duration":138568,"SoundDuration":138568,"Delta":140397672},{"NoteNumber":69,"Velocity":63,"Duration":138568,"SoundDuration":138568,"Delta":140397672},{"NoteNumber":63,"Velocity":64,"Duration":138568,"SoundDuration":138568,"Delta":140397672},{"NoteNumber":55,"Velocity":57,"Duration":138568,"SoundDuration":138568,"Delta":140397672},{"NoteNumber":60,"Velocity":64,"Duration":138568,"SoundDuration":138568,"Delta":140397672},{"NoteNumber":61,"Velocity":90,"Duration":783088,"SoundDuration":783088,"Delta":140674808},{"NoteNumber":49,"Velocity":81,"Duration":783088,"SoundDuration":783088,"Delta":140674808},{"NoteNumber":37,"Velocity":81,"Duration":783088,"SoundDuration":783088,"Delta":140674808},{"NoteNumber":82,"Velocity":81,"Duration":67460,"SoundDuration":67460,"Delta":140951945},{"NoteNumber":75,"Velocity":72,"Duration":67460,"SoundDuration":67460,"Delta":140951945},{"NoteNumber":70,"Velocity":64,"Duration":67460,"SoundDuration":67460,"Delta":140951945},{"NoteNumber":58,"Velocity":64,"Duration":67460,"SoundDuration":67460,"Delta":140951945},{"NoteNumber":55,"Velocity":57,"Duration":67460,"SoundDuration":67460,"Delta":140951945},{"NoteNumber":63,"Velocity":64,"Duration":67460,"SoundDuration":67460,"Delta":140951945},{"NoteNumber":70,"Velocity":64,"Duration":67460,"SoundDuration":67460,"Delta":141070992},{"NoteNumber":75,"Velocity":72,"Duration":67460,"SoundDuration":67460,"Delta":141070992},{"NoteNumber":82,"Velocity":81,"Duration":67460,"SoundDuration":67460,"Delta":141070992},{"NoteNumber":58,"Velocity":64,"Duration":67460,"SoundDuration":67460,"Delta":141070992},{"NoteNumber":63,"Velocity":64,"Duration":67460,"SoundDuration":67460,"Delta":141070992},{"NoteNumber":55,"Velocity":57,"Duration":67460,"SoundDuration":67460,"Delta":141070992},{"NoteNumber":70,"Velocity":64,"Duration":200892,"SoundDuration":200892,"Delta":141190040},{"NoteNumber":75,"Velocity":72,"Duration":200892,"SoundDuration":200892,"Delta":141190040},{"NoteNumber":82,"Velocity":81,"Duration":200892,"SoundDuration":200892,"Delta":141190040},{"NoteNumber":55,"Velocity":57,"Duration":200892,"SoundDuration":200892,"Delta":141190040},{"NoteNumber":63,"Velocity":64,"Duration":200892,"SoundDuration":200892,"Delta":141190040},{"NoteNumber":58,"Velocity":64,"Duration":200892,"SoundDuration":200892,"Delta":141190040},{"NoteNumber":70,"Velocity":86,"Duration":103926,"SoundDuration":103926,"Delta":141457897},{"NoteNumber":58,"Velocity":76,"Duration":103926,"SoundDuration":103926,"Delta":141457897},{"NoteNumber":46,"Velocity":76,"Duration":103926,"SoundDuration":103926,"Delta":141457897},{"NoteNumber":62,"Velocity":91,"Duration":347384,"SoundDuration":347384,"Delta":141735033},{"NoteNumber":50,"Velocity":81,"Duration":801567,"SoundDuration":801567,"Delta":141735033},{"NoteNumber":38,"Velocity":81,"Duration":801567,"SoundDuration":801567,"Delta":141735033},{"NoteNumber":86,"Velocity":81,"Duration":70247,"SoundDuration":70247,"Delta":142012170},{"NoteNumber":79,"Velocity":72,"Duration":70247,"SoundDuration":70247,"Delta":142012170},{"NoteNumber":74,"Velocity":64,"Duration":70247,"SoundDuration":70247,"Delta":142012170},{"NoteNumber":67,"Velocity":66,"Duration":70247,"SoundDuration":70247,"Delta":142012170},{"NoteNumber":58,"Velocity":59,"Duration":70247,"SoundDuration":70247,"Delta":142012170},{"NoteNumber":62,"Velocity":66,"Duration":194214,"SoundDuration":194214,"Delta":142012170},{"NoteNumber":86,"Velocity":81,"Duration":70247,"SoundDuration":70247,"Delta":142136137},{"NoteNumber":79,"Velocity":72,"Duration":70247,"SoundDuration":70247,"Delta":142136137},{"NoteNumber":74,"Velocity":64,"Duration":70247,"SoundDuration":70247,"Delta":142136137},{"NoteNumber":62,"Velocity":66,"Duration":331340,"SoundDuration":331340,"Delta":142136137},{"NoteNumber":58,"Velocity":59,"Duration":70247,"SoundDuration":70247,"Delta":142136137},{"NoteNumber":67,"Velocity":66,"Duration":70247,"SoundDuration":70247,"Delta":142136137},{"NoteNumber":74,"Velocity":64,"Duration":207373,"SoundDuration":207373,"Delta":142260104},{"NoteNumber":79,"Velocity":72,"Duration":207373,"SoundDuration":207373,"Delta":142260104},{"NoteNumber":86,"Velocity":81,"Duration":207373,"SoundDuration":207373,"Delta":142260104},{"NoteNumber":62,"Velocity":66,"Duration":276497,"SoundDuration":276497,"Delta":142260104},{"NoteNumber":58,"Velocity":59,"Duration":207373,"SoundDuration":207373,"Delta":142260104},{"NoteNumber":67,"Velocity":66,"Duration":207373,"SoundDuration":207373,"Delta":142260104},{"NoteNumber":70,"Velocity":88,"Duration":103686,"SoundDuration":103686,"Delta":142536601},{"NoteNumber":58,"Velocity":83,"Duration":103686,"SoundDuration":103686,"Delta":142536601},{"NoteNumber":46,"Velocity":83,"Duration":103686,"SoundDuration":103686,"Delta":142536601},{"NoteNumber":64,"Velocity":97,"Duration":1658985,"SoundDuration":1658985,"Delta":142813099},{"NoteNumber":52,"Velocity":85,"Duration":1658985,"SoundDuration":1658985,"Delta":142813099},{"NoteNumber":40,"Velocity":85,"Duration":1658985,"SoundDuration":1658985,"Delta":142813099},{"NoteNumber":67,"Velocity":84,"Duration":552995,"SoundDuration":552995,"Delta":143089596},{"NoteNumber":70,"Velocity":94,"Duration":552995,"SoundDuration":552995,"Delta":143089596},{"NoteNumber":74,"Velocity":94,"Duration":276497,"SoundDuration":276497,"Delta":143089596},{"NoteNumber":55,"Velocity":75,"Duration":552995,"SoundDuration":552995,"Delta":143089596},{"NoteNumber":62,"Velocity":84,"Duration":276497,"SoundDuration":276497,"Delta":143089596},{"NoteNumber":58,"Velocity":84,"Duration":552995,"SoundDuration":552995,"Delta":143089596},{"NoteNumber":73,"Velocity":81,"Duration":276497,"SoundDuration":276497,"Delta":143366094},{"NoteNumber":61,"Velocity":72,"Duration":276497,"SoundDuration":276497,"Delta":143366094},{"NoteNumber":82,"Velocity":94,"Duration":552995,"SoundDuration":552995,"Delta":143642591},{"NoteNumber":79,"Velocity":94,"Duration":552995,"SoundDuration":552995,"Delta":143642591},{"NoteNumber":70,"Velocity":94,"Duration":552995,"SoundDuration":552995,"Delta":143642591},{"NoteNumber":74,"Velocity":94,"Duration":276497,"SoundDuration":276497,"Delta":143642591},{"NoteNumber":67,"Velocity":85,"Duration":552995,"SoundDuration":552995,"Delta":143642591},{"NoteNumber":58,"Velocity":85,"Duration":552995,"SoundDuration":552995,"Delta":143642591},{"NoteNumber":62,"Velocity":85,"Duration":276497,"SoundDuration":276497,"Delta":143642591},{"NoteNumber":73,"Velocity":84,"Duration":276497,"SoundDuration":276497,"Delta":143919089},{"NoteNumber":61,"Velocity":74,"Duration":276497,"SoundDuration":276497,"Delta":143919089},{"NoteNumber":82,"Velocity":94,"Duration":552994,"SoundDuration":552994,"Delta":144195586},{"NoteNumber":79,"Velocity":94,"Duration":552994,"SoundDuration":552994,"Delta":144195586},{"NoteNumber":86,"Velocity":94,"Duration":276497,"SoundDuration":276497,"Delta":144195586},{"NoteNumber":74,"Velocity":94,"Duration":276497,"SoundDuration":276497,"Delta":144195586},{"NoteNumber":70,"Velocity":83,"Duration":552994,"SoundDuration":552994,"Delta":144195586},{"NoteNumber":62,"Velocity":83,"Duration":276497,"SoundDuration":276497,"Delta":144195586},{"NoteNumber":67,"Velocity":83,"Duration":552994,"SoundDuration":552994,"Delta":144195586},{"NoteNumber":73,"Velocity":84,"Duration":276497,"SoundDuration":276497,"Delta":144472084},{"NoteNumber":85,"Velocity":84,"Duration":276497,"SoundDuration":276497,"Delta":144472084},{"NoteNumber":61,"Velocity":76,"Duration":276497,"SoundDuration":276497,"Delta":144472084},{"NoteNumber":91,"Velocity":100,"Duration":276497,"SoundDuration":276497,"Delta":144748581},{"NoteNumber":85,"Velocity":100,"Duration":276497,"SoundDuration":276497,"Delta":144748581},{"NoteNumber":82,"Velocity":90,"Duration":276497,"SoundDuration":276497,"Delta":144748581},{"NoteNumber":79,"Velocity":90,"Duration":276497,"SoundDuration":276497,"Delta":144748581},{"NoteNumber":39,"Velocity":90,"Duration":276497,"SoundDuration":276497,"Delta":144748581},{"NoteNumber":51,"Velocity":90,"Duration":276497,"SoundDuration":276497,"Delta":144748581},{"NoteNumber":38,"Velocity":102,"Duration":2095125,"SoundDuration":2095125,"Delta":145025079},{"NoteNumber":50,"Velocity":102,"Duration":2095125,"SoundDuration":2095125,"Delta":145025079},{"NoteNumber":94,"Velocity":87,"Duration":63291,"SoundDuration":63291,"Delta":145301576},{"NoteNumber":91,"Velocity":87,"Duration":63291,"SoundDuration":63291,"Delta":145301576},{"NoteNumber":86,"Velocity":78,"Duration":63291,"SoundDuration":63291,"Delta":145301576},{"NoteNumber":82,"Velocity":78,"Duration":63291,"SoundDuration":63291,"Delta":145301576},{"NoteNumber":67,"Velocity":77,"Duration":63291,"SoundDuration":63291,"Delta":145301576},{"NoteNumber":70,"Velocity":77,"Duration":63291,"SoundDuration":63291,"Delta":145301576},{"NoteNumber":62,"Velocity":69,"Duration":63291,"SoundDuration":63291,"Delta":145301576},{"NoteNumber":58,"Velocity":69,"Duration":63291,"SoundDuration":63291,"Delta":145301576},{"NoteNumber":94,"Velocity":86,"Duration":63291,"SoundDuration":63291,"Delta":145428159},{"NoteNumber":91,"Velocity":86,"Duration":63291,"SoundDuration":63291,"Delta":145428159},{"NoteNumber":86,"Velocity":77,"Duration":63291,"SoundDuration":63291,"Delta":145428159},{"NoteNumber":82,"Velocity":77,"Duration":63291,"SoundDuration":63291,"Delta":145428159},{"NoteNumber":70,"Velocity":77,"Duration":63291,"SoundDuration":63291,"Delta":145428159},{"NoteNumber":58,"Velocity":69,"Duration":63291,"SoundDuration":63291,"Delta":145428159},{"NoteNumber":67,"Velocity":77,"Duration":63291,"SoundDuration":63291,"Delta":145428159},{"NoteNumber":62,"Velocity":69,"Duration":63291,"SoundDuration":63291,"Delta":145428159},{"NoteNumber":94,"Velocity":86,"Duration":63291,"SoundDuration":63291,"Delta":145554741},{"NoteNumber":91,"Velocity":86,"Duration":63291,"SoundDuration":63291,"Delta":145554741},{"NoteNumber":86,"Velocity":77,"Duration":63291,"SoundDuration":63291,"Delta":145554741},{"NoteNumber":82,"Velocity":77,"Duration":63291,"SoundDuration":63291,"Delta":145554741},{"NoteNumber":70,"Velocity":77,"Duration":63291,"SoundDuration":63291,"Delta":145554741},{"NoteNumber":58,"Velocity":69,"Duration":63291,"SoundDuration":63291,"Delta":145554741},{"NoteNumber":67,"Velocity":77,"Duration":63291,"SoundDuration":63291,"Delta":145554741},{"NoteNumber":62,"Velocity":69,"Duration":63291,"SoundDuration":63291,"Delta":145554741},{"NoteNumber":94,"Velocity":86,"Duration":63291,"SoundDuration":63291,"Delta":145681323},{"NoteNumber":91,"Velocity":86,"Duration":63291,"SoundDuration":63291,"Delta":145681323},{"NoteNumber":86,"Velocity":77,"Duration":63291,"SoundDuration":63291,"Delta":145681323},{"NoteNumber":82,"Velocity":77,"Duration":63291,"SoundDuration":63291,"Delta":145681323},{"NoteNumber":67,"Velocity":77,"Duration":63291,"SoundDuration":63291,"Delta":145681323},{"NoteNumber":58,"Velocity":69,"Duration":63291,"SoundDuration":63291,"Delta":145681323},{"NoteNumber":62,"Velocity":69,"Duration":63291,"SoundDuration":63291,"Delta":145681323},{"NoteNumber":70,"Velocity":77,"Duration":63291,"SoundDuration":63291,"Delta":145681323},{"NoteNumber":94,"Velocity":86,"Duration":63291,"SoundDuration":63291,"Delta":145807905},{"NoteNumber":91,"Velocity":86,"Duration":63291,"SoundDuration":63291,"Delta":145807905},{"NoteNumber":86,"Velocity":77,"Duration":63291,"SoundDuration":63291,"Delta":145807905},{"NoteNumber":82,"Velocity":77,"Duration":63291,"SoundDuration":63291,"Delta":145807905},{"NoteNumber":67,"Velocity":77,"Duration":63291,"SoundDuration":63291,"Delta":145807905},{"NoteNumber":58,"Velocity":69,"Duration":63291,"SoundDuration":63291,"Delta":145807905},{"NoteNumber":62,"Velocity":69,"Duration":63291,"SoundDuration":63291,"Delta":145807905},{"NoteNumber":70,"Velocity":77,"Duration":63291,"SoundDuration":63291,"Delta":145807905},{"NoteNumber":94,"Velocity":86,"Duration":63291,"SoundDuration":63291,"Delta":145934488},{"NoteNumber":91,"Velocity":86,"Duration":63291,"SoundDuration":63291,"Delta":145934488},{"NoteNumber":86,"Velocity":77,"Duration":63291,"SoundDuration":63291,"Delta":145934488},{"NoteNumber":82,"Velocity":77,"Duration":63291,"SoundDuration":63291,"Delta":145934488},{"NoteNumber":67,"Velocity":77,"Duration":63291,"SoundDuration":63291,"Delta":145934488},{"NoteNumber":58,"Velocity":69,"Duration":63291,"SoundDuration":63291,"Delta":145934488},{"NoteNumber":62,"Velocity":69,"Duration":63291,"SoundDuration":63291,"Delta":145934488},{"NoteNumber":70,"Velocity":77,"Duration":63291,"SoundDuration":63291,"Delta":145934488},{"NoteNumber":82,"Velocity":77,"Duration":245689,"SoundDuration":245689,"Delta":146061070},{"NoteNumber":86,"Velocity":77,"Duration":245689,"SoundDuration":245689,"Delta":146061070},{"NoteNumber":91,"Velocity":86,"Duration":245689,"SoundDuration":245689,"Delta":146061070},{"NoteNumber":94,"Velocity":86,"Duration":245689,"SoundDuration":245689,"Delta":146061070},{"NoteNumber":62,"Velocity":69,"Duration":245689,"SoundDuration":245689,"Delta":146061070},{"NoteNumber":58,"Velocity":69,"Duration":245689,"SoundDuration":245689,"Delta":146061070},{"NoteNumber":70,"Velocity":77,"Duration":245689,"SoundDuration":245689,"Delta":146061070},{"NoteNumber":67,"Velocity":77,"Duration":245689,"SoundDuration":245689,"Delta":146061070},{"NoteNumber":82,"Velocity":95,"Duration":276497,"SoundDuration":276497,"Delta":146319690},{"NoteNumber":86,"Velocity":95,"Duration":276497,"SoundDuration":276497,"Delta":146319690},{"NoteNumber":74,"Velocity":85,"Duration":276497,"SoundDuration":276497,"Delta":146319690},{"NoteNumber":67,"Velocity":83,"Duration":276497,"SoundDuration":276497,"Delta":146319690},{"NoteNumber":62,"Velocity":74,"Duration":276497,"SoundDuration":276497,"Delta":146319690},{"NoteNumber":70,"Velocity":83,"Duration":276497,"SoundDuration":276497,"Delta":146319690},{"NoteNumber":82,"Velocity":95,"Duration":262008,"SoundDuration":262008,"Delta":146596188},{"NoteNumber":88,"Velocity":95,"Duration":262008,"SoundDuration":262008,"Delta":146596188},{"NoteNumber":76,"Velocity":85,"Duration":262008,"SoundDuration":262008,"Delta":146596188},{"NoteNumber":67,"Velocity":83,"Duration":262008,"SoundDuration":262008,"Delta":146596188},{"NoteNumber":61,"Velocity":74,"Duration":262008,"SoundDuration":262008,"Delta":146596188},{"NoteNumber":70,"Velocity":83,"Duration":262008,"SoundDuration":262008,"Delta":146596188},{"NoteNumber":86,"Velocity":95,"Duration":262008,"SoundDuration":262008,"Delta":146858196},{"NoteNumber":90,"Velocity":95,"Duration":262008,"SoundDuration":262008,"Delta":146858196},{"NoteNumber":78,"Velocity":85,"Duration":262008,"SoundDuration":262008,"Delta":146858196},{"NoteNumber":60,"Velocity":74,"Duration":262008,"SoundDuration":262008,"Delta":146858196},{"NoteNumber":69,"Velocity":83,"Duration":262008,"SoundDuration":262008,"Delta":146858196},{"NoteNumber":62,"Velocity":83,"Duration":262008,"SoundDuration":262008,"Delta":146858196},{"NoteNumber":91,"Velocity":96,"Duration":260869,"SoundDuration":260869,"Delta":147120205},{"NoteNumber":86,"Velocity":96,"Duration":260869,"SoundDuration":260869,"Delta":147120205},{"NoteNumber":79,"Velocity":86,"Duration":260869,"SoundDuration":260869,"Delta":147120205},{"NoteNumber":58,"Velocity":75,"Duration":260869,"SoundDuration":260869,"Delta":147120205},{"NoteNumber":62,"Velocity":84,"Duration":260869,"SoundDuration":260869,"Delta":147120205},{"NoteNumber":67,"Velocity":84,"Duration":260869,"SoundDuration":260869,"Delta":147120205},{"NoteNumber":62,"Velocity":86,"Duration":275229,"SoundDuration":275229,"Delta":147381074},{"NoteNumber":67,"Velocity":96,"Duration":275229,"SoundDuration":275229,"Delta":147381074},{"NoteNumber":74,"Velocity":96,"Duration":275229,"SoundDuration":275229,"Delta":147381074},{"NoteNumber":55,"Velocity":84,"Duration":275229,"SoundDuration":275229,"Delta":147381074},{"NoteNumber":47,"Velocity":84,"Duration":275229,"SoundDuration":275229,"Delta":147381074},{"NoteNumber":63,"Velocity":86,"Duration":275229,"SoundDuration":275229,"Delta":147656304},{"NoteNumber":72,"Velocity":96,"Duration":275229,"SoundDuration":275229,"Delta":147656304},{"NoteNumber":75,"Velocity":96,"Duration":275229,"SoundDuration":275229,"Delta":147656304},{"NoteNumber":55,"Velocity":84,"Duration":275229,"SoundDuration":275229,"Delta":147656304},{"NoteNumber":48,"Velocity":84,"Duration":275229,"SoundDuration":275229,"Delta":147656304},{"NoteNumber":56,"Velocity":101,"Duration":103211,"SoundDuration":103211,"Delta":147931533},{"NoteNumber":32,"Velocity":90,"Duration":103211,"SoundDuration":103211,"Delta":147931533},{"NoteNumber":44,"Velocity":90,"Duration":103211,"SoundDuration":103211,"Delta":147931533},{"NoteNumber":57,"Velocity":101,"Duration":103211,"SoundDuration":103211,"Delta":148206763},{"NoteNumber":45,"Velocity":90,"Duration":103211,"SoundDuration":103211,"Delta":148206763},{"NoteNumber":33,"Velocity":90,"Duration":103211,"SoundDuration":103211,"Delta":148206763},{"NoteNumber":57,"Velocity":88,"Duration":284900,"SoundDuration":284900,"Delta":148481992},{"NoteNumber":60,"Velocity":88,"Duration":284900,"SoundDuration":284900,"Delta":148481992},{"NoteNumber":66,"Velocity":98,"Duration":284900,"SoundDuration":284900,"Delta":148481992},{"NoteNumber":50,"Velocity":89,"Duration":284900,"SoundDuration":284900,"Delta":148481992},{"NoteNumber":38,"Velocity":89,"Duration":284900,"SoundDuration":284900,"Delta":148481992},{"NoteNumber":58,"Velocity":88,"Duration":284900,"SoundDuration":284900,"Delta":148766893},{"NoteNumber":62,"Velocity":88,"Duration":284900,"SoundDuration":284900,"Delta":148766893},{"NoteNumber":67,"Velocity":98,"Duration":284900,"SoundDuration":284900,"Delta":148766893},{"NoteNumber":43,"Velocity":89,"Duration":284900,"SoundDuration":284900,"Delta":148766893},{"NoteNumber":31,"Velocity":89,"Duration":284900,"SoundDuration":284900,"Delta":148766893},{"NoteNumber":82,"Velocity":99,"Duration":300000,"SoundDuration":300000,"Delta":149336694},{"NoteNumber":79,"Velocity":99,"Duration":300000,"SoundDuration":300000,"Delta":149336694},{"NoteNumber":75,"Velocity":89,"Duration":300000,"SoundDuration":300000,"Delta":149336694},{"NoteNumber":70,"Velocity":89,"Duration":300000,"SoundDuration":300000,"Delta":149336694},{"NoteNumber":67,"Velocity":89,"Duration":300000,"SoundDuration":300000,"Delta":149336694},{"NoteNumber":58,"Velocity":89,"Duration":300000,"SoundDuration":300000,"Delta":149336694},{"NoteNumber":63,"Velocity":89,"Duration":300000,"SoundDuration":300000,"Delta":149336694},{"NoteNumber":55,"Velocity":80,"Duration":300000,"SoundDuration":300000,"Delta":149336694},{"NoteNumber":67,"Velocity":81,"Duration":61146,"SoundDuration":61146,"Delta":149636694},{"NoteNumber":70,"Velocity":81,"Duration":61146,"SoundDuration":61146,"Delta":149636694},{"NoteNumber":75,"Velocity":90,"Duration":61146,"SoundDuration":61146,"Delta":149636694},{"NoteNumber":79,"Velocity":90,"Duration":61146,"SoundDuration":61146,"Delta":149636694},{"NoteNumber":63,"Velocity":80,"Duration":61146,"SoundDuration":61146,"Delta":149636694},{"NoteNumber":55,"Velocity":72,"Duration":61146,"SoundDuration":61146,"Delta":149636694},{"NoteNumber":58,"Velocity":80,"Duration":61146,"SoundDuration":61146,"Delta":149636694},{"NoteNumber":67,"Velocity":81,"Duration":61146,"SoundDuration":61146,"Delta":149744600},{"NoteNumber":70,"Velocity":81,"Duration":61146,"SoundDuration":61146,"Delta":149744600},{"NoteNumber":75,"Velocity":90,"Duration":61146,"SoundDuration":61146,"Delta":149744600},{"NoteNumber":79,"Velocity":90,"Duration":61146,"SoundDuration":61146,"Delta":149744600},{"NoteNumber":55,"Velocity":72,"Duration":61146,"SoundDuration":61146,"Delta":149744600},{"NoteNumber":63,"Velocity":80,"Duration":61146,"SoundDuration":61146,"Delta":149744600},{"NoteNumber":58,"Velocity":80,"Duration":61146,"SoundDuration":61146,"Delta":149744600},{"NoteNumber":67,"Velocity":81,"Duration":76784,"SoundDuration":76784,"Delta":149852506},{"NoteNumber":70,"Velocity":81,"Duration":76784,"SoundDuration":76784,"Delta":149852506},{"NoteNumber":75,"Velocity":90,"Duration":76784,"SoundDuration":76784,"Delta":149852506},{"NoteNumber":79,"Velocity":90,"Duration":76784,"SoundDuration":76784,"Delta":149852506},{"NoteNumber":58,"Velocity":80,"Duration":76784,"SoundDuration":76784,"Delta":149852506},{"NoteNumber":63,"Velocity":80,"Duration":76784,"SoundDuration":76784,"Delta":149852506},{"NoteNumber":55,"Velocity":72,"Duration":76784,"SoundDuration":76784,"Delta":149852506},{"NoteNumber":55,"Velocity":65,"Duration":63904,"SoundDuration":63904,"Delta":150123508},{"NoteNumber":58,"Velocity":65,"Duration":63904,"SoundDuration":63904,"Delta":150123508},{"NoteNumber":63,"Velocity":73,"Duration":63904,"SoundDuration":63904,"Delta":150123508},{"NoteNumber":67,"Velocity":73,"Duration":63904,"SoundDuration":63904,"Delta":150123508},{"NoteNumber":39,"Velocity":66,"Duration":63904,"SoundDuration":63904,"Delta":150123508},{"NoteNumber":46,"Velocity":66,"Duration":63904,"SoundDuration":63904,"Delta":150123508},{"NoteNumber":55,"Velocity":65,"Duration":63904,"SoundDuration":63904,"Delta":150236282},{"NoteNumber":58,"Velocity":65,"Duration":63904,"SoundDuration":63904,"Delta":150236282},{"NoteNumber":63,"Velocity":73,"Duration":63904,"SoundDuration":63904,"Delta":150236282},{"NoteNumber":67,"Velocity":73,"Duration":63904,"SoundDuration":63904,"Delta":150236282},{"NoteNumber":46,"Velocity":66,"Duration":63904,"SoundDuration":63904,"Delta":150236282},{"NoteNumber":39,"Velocity":66,"Duration":63904,"SoundDuration":63904,"Delta":150236282},{"NoteNumber":55,"Velocity":65,"Duration":76103,"SoundDuration":76103,"Delta":150349055},{"NoteNumber":58,"Velocity":65,"Duration":76103,"SoundDuration":76103,"Delta":150349055},{"NoteNumber":63,"Velocity":73,"Duration":76103,"SoundDuration":76103,"Delta":150349055},{"NoteNumber":67,"Velocity":73,"Duration":76103,"SoundDuration":76103,"Delta":150349055},{"NoteNumber":46,"Velocity":66,"Duration":76103,"SoundDuration":76103,"Delta":150349055},{"NoteNumber":39,"Velocity":66,"Duration":76103,"SoundDuration":76103,"Delta":150349055},{"NoteNumber":79,"Velocity":94,"Duration":103926,"SoundDuration":103926,"Delta":150617656},{"NoteNumber":75,"Velocity":94,"Duration":103926,"SoundDuration":103926,"Delta":150617656},{"NoteNumber":70,"Velocity":84,"Duration":103926,"SoundDuration":103926,"Delta":150617656},{"NoteNumber":67,"Velocity":84,"Duration":103926,"SoundDuration":103926,"Delta":150617656},{"NoteNumber":58,"Velocity":84,"Duration":103926,"SoundDuration":103926,"Delta":150617656},{"NoteNumber":55,"Velocity":75,"Duration":103926,"SoundDuration":103926,"Delta":150617656},{"NoteNumber":63,"Velocity":84,"Duration":103926,"SoundDuration":103926,"Delta":150617656},{"NoteNumber":70,"Velocity":94,"Duration":128205,"SoundDuration":128205,"Delta":150894792},{"NoteNumber":82,"Velocity":94,"Duration":128205,"SoundDuration":128205,"Delta":150894792},{"NoteNumber":79,"Velocity":94,"Duration":128205,"SoundDuration":128205,"Delta":150894792},{"NoteNumber":58,"Velocity":84,"Duration":128205,"SoundDuration":128205,"Delta":150894792},{"NoteNumber":55,"Velocity":84,"Duration":128205,"SoundDuration":128205,"Delta":150894792},{"NoteNumber":84,"Velocity":94,"Duration":128205,"SoundDuration":128205,"Delta":151022998},{"NoteNumber":72,"Velocity":94,"Duration":128205,"SoundDuration":128205,"Delta":151022998},{"NoteNumber":60,"Velocity":84,"Duration":128205,"SoundDuration":128205,"Delta":151022998},{"NoteNumber":86,"Velocity":94,"Duration":130434,"SoundDuration":130434,"Delta":151151203},{"NoteNumber":74,"Velocity":94,"Duration":130434,"SoundDuration":130434,"Delta":151151203},{"NoteNumber":62,"Velocity":84,"Duration":130434,"SoundDuration":130434,"Delta":151151203},{"NoteNumber":87,"Velocity":94,"Duration":130434,"SoundDuration":130434,"Delta":151281638},{"NoteNumber":75,"Velocity":94,"Duration":130434,"SoundDuration":130434,"Delta":151281638},{"NoteNumber":63,"Velocity":84,"Duration":130434,"SoundDuration":130434,"Delta":151281638},{"NoteNumber":86,"Velocity":99,"Duration":277136,"SoundDuration":277136,"Delta":151412072},{"NoteNumber":82,"Velocity":99,"Duration":277136,"SoundDuration":277136,"Delta":151412072},{"NoteNumber":74,"Velocity":89,"Duration":277136,"SoundDuration":277136,"Delta":151412072},{"NoteNumber":53,"Velocity":80,"Duration":277136,"SoundDuration":277136,"Delta":151412072},{"NoteNumber":58,"Velocity":89,"Duration":277136,"SoundDuration":277136,"Delta":151412072},{"NoteNumber":62,"Velocity":89,"Duration":277136,"SoundDuration":277136,"Delta":151412072},{"NoteNumber":65,"Velocity":81,"Duration":60927,"SoundDuration":60927,"Delta":151689209},{"NoteNumber":70,"Velocity":81,"Duration":60927,"SoundDuration":60927,"Delta":151689209},{"NoteNumber":74,"Velocity":90,"Duration":60927,"SoundDuration":60927,"Delta":151689209},{"NoteNumber":77,"Velocity":90,"Duration":60927,"SoundDuration":60927,"Delta":151689209},{"NoteNumber":58,"Velocity":81,"Duration":60927,"SoundDuration":60927,"Delta":151689209},{"NoteNumber":62,"Velocity":81,"Duration":60927,"SoundDuration":60927,"Delta":151689209},{"NoteNumber":53,"Velocity":72,"Duration":60927,"SoundDuration":60927,"Delta":151689209},{"NoteNumber":65,"Velocity":81,"Duration":60927,"SoundDuration":60927,"Delta":151796728},{"NoteNumber":70,"Velocity":81,"Duration":60927,"SoundDuration":60927,"Delta":151796728},{"NoteNumber":74,"Velocity":90,"Duration":60927,"SoundDuration":60927,"Delta":151796728},{"NoteNumber":77,"Velocity":90,"Duration":60927,"SoundDuration":60927,"Delta":151796728},{"NoteNumber":58,"Velocity":81,"Duration":60927,"SoundDuration":60927,"Delta":151796728},{"NoteNumber":53,"Velocity":72,"Duration":60927,"SoundDuration":60927,"Delta":151796728},{"NoteNumber":62,"Velocity":81,"Duration":60927,"SoundDuration":60927,"Delta":151796728},{"NoteNumber":65,"Velocity":81,"Duration":76784,"SoundDuration":76784,"Delta":151904247},{"NoteNumber":70,"Velocity":81,"Duration":76784,"SoundDuration":76784,"Delta":151904247},{"NoteNumber":74,"Velocity":90,"Duration":76784,"SoundDuration":76784,"Delta":151904247},{"NoteNumber":77,"Velocity":90,"Duration":76784,"SoundDuration":76784,"Delta":151904247},{"NoteNumber":53,"Velocity":72,"Duration":76784,"SoundDuration":76784,"Delta":151904247},{"NoteNumber":62,"Velocity":81,"Duration":76784,"SoundDuration":76784,"Delta":151904247},{"NoteNumber":58,"Velocity":81,"Duration":76784,"SoundDuration":76784,"Delta":151904247},{"NoteNumber":53,"Velocity":64,"Duration":64389,"SoundDuration":64389,"Delta":152175250},{"NoteNumber":58,"Velocity":64,"Duration":64389,"SoundDuration":64389,"Delta":152175250},{"NoteNumber":62,"Velocity":72,"Duration":64389,"SoundDuration":64389,"Delta":152175250},{"NoteNumber":65,"Velocity":72,"Duration":64389,"SoundDuration":64389,"Delta":152175250},{"NoteNumber":46,"Velocity":64,"Duration":64389,"SoundDuration":64389,"Delta":152175250},{"NoteNumber":34,"Velocity":64,"Duration":64389,"SoundDuration":64389,"Delta":152175250},{"NoteNumber":53,"Velocity":64,"Duration":64389,"SoundDuration":64389,"Delta":152288878},{"NoteNumber":58,"Velocity":64,"Duration":64389,"SoundDuration":64389,"Delta":152288878},{"NoteNumber":62,"Velocity":72,"Duration":64389,"SoundDuration":64389,"Delta":152288878},{"NoteNumber":65,"Velocity":72,"Duration":64389,"SoundDuration":64389,"Delta":152288878},{"NoteNumber":34,"Velocity":64,"Duration":64389,"SoundDuration":64389,"Delta":152288878},{"NoteNumber":46,"Velocity":64,"Duration":64389,"SoundDuration":64389,"Delta":152288878},{"NoteNumber":53,"Velocity":64,"Duration":76784,"SoundDuration":76784,"Delta":152402505},{"NoteNumber":58,"Velocity":64,"Duration":76784,"SoundDuration":76784,"Delta":152402505},{"NoteNumber":62,"Velocity":72,"Duration":76784,"SoundDuration":76784,"Delta":152402505},{"NoteNumber":65,"Velocity":72,"Duration":76784,"SoundDuration":76784,"Delta":152402505},{"NoteNumber":34,"Velocity":64,"Duration":76784,"SoundDuration":76784,"Delta":152402505},{"NoteNumber":46,"Velocity":64,"Duration":76784,"SoundDuration":76784,"Delta":152402505},{"NoteNumber":65,"Velocity":83,"Duration":103467,"SoundDuration":103467,"Delta":152673508},{"NoteNumber":70,"Velocity":83,"Duration":103467,"SoundDuration":103467,"Delta":152673508},{"NoteNumber":74,"Velocity":93,"Duration":103467,"SoundDuration":103467,"Delta":152673508},{"NoteNumber":77,"Velocity":93,"Duration":103467,"SoundDuration":103467,"Delta":152673508},{"NoteNumber":53,"Velocity":73,"Duration":103467,"SoundDuration":103467,"Delta":152673508},{"NoteNumber":62,"Velocity":82,"Duration":103467,"SoundDuration":103467,"Delta":152673508},{"NoteNumber":58,"Velocity":82,"Duration":103467,"SoundDuration":103467,"Delta":152673508},{"NoteNumber":86,"Velocity":94,"Duration":132543,"SoundDuration":132543,"Delta":152949421},{"NoteNumber":82,"Velocity":94,"Duration":132543,"SoundDuration":132543,"Delta":152949421},{"NoteNumber":74,"Velocity":84,"Duration":132543,"SoundDuration":132543,"Delta":152949421},{"NoteNumber":58,"Velocity":84,"Duration":132543,"SoundDuration":132543,"Delta":152949421},{"NoteNumber":62,"Velocity":84,"Duration":132543,"SoundDuration":132543,"Delta":152949421},{"NoteNumber":53,"Velocity":75,"Duration":132543,"SoundDuration":132543,"Delta":152949421},{"NoteNumber":88,"Velocity":94,"Duration":132543,"SoundDuration":132543,"Delta":153081965},{"NoteNumber":64,"Velocity":84,"Duration":132543,"SoundDuration":132543,"Delta":153081965},{"NoteNumber":77,"Velocity":94,"Duration":132543,"SoundDuration":132543,"Delta":153214509},{"NoteNumber":89,"Velocity":94,"Duration":132543,"SoundDuration":132543,"Delta":153214509},{"NoteNumber":65,"Velocity":84,"Duration":132543,"SoundDuration":132543,"Delta":153214509},{"NoteNumber":91,"Velocity":94,"Duration":132544,"SoundDuration":132544,"Delta":153347053},{"NoteNumber":67,"Velocity":84,"Duration":132544,"SoundDuration":132544,"Delta":153347053},{"NoteNumber":77,"Velocity":99,"Duration":277136,"SoundDuration":277136,"Delta":153479597},{"NoteNumber":86,"Velocity":99,"Duration":277136,"SoundDuration":277136,"Delta":153479597},{"NoteNumber":89,"Velocity":99,"Duration":277136,"SoundDuration":277136,"Delta":153479597},{"NoteNumber":57,"Velocity":80,"Duration":277136,"SoundDuration":277136,"Delta":153479597},{"NoteNumber":65,"Velocity":89,"Duration":277136,"SoundDuration":277136,"Delta":153479597},{"NoteNumber":62,"Velocity":89,"Duration":277136,"SoundDuration":277136,"Delta":153479597},{"NoteNumber":69,"Velocity":81,"Duration":62039,"SoundDuration":62039,"Delta":153756733},{"NoteNumber":74,"Velocity":81,"Duration":62039,"SoundDuration":62039,"Delta":153756733},{"NoteNumber":77,"Velocity":90,"Duration":62039,"SoundDuration":62039,"Delta":153756733},{"NoteNumber":81,"Velocity":90,"Duration":62039,"SoundDuration":62039,"Delta":153756733},{"NoteNumber":53,"Velocity":72,"Duration":62039,"SoundDuration":62039,"Delta":153756733},{"NoteNumber":62,"Velocity":80,"Duration":62039,"SoundDuration":62039,"Delta":153756733},{"NoteNumber":65,"Velocity":80,"Duration":62039,"SoundDuration":62039,"Delta":153756733},{"NoteNumber":57,"Velocity":72,"Duration":62039,"SoundDuration":62039,"Delta":153756733},{"NoteNumber":69,"Velocity":81,"Duration":62039,"SoundDuration":62039,"Delta":153866214},{"NoteNumber":74,"Velocity":81,"Duration":62039,"SoundDuration":62039,"Delta":153866214},{"NoteNumber":77,"Velocity":90,"Duration":62039,"SoundDuration":62039,"Delta":153866214},{"NoteNumber":81,"Velocity":90,"Duration":62039,"SoundDuration":62039,"Delta":153866214},{"NoteNumber":53,"Velocity":72,"Duration":62039,"SoundDuration":62039,"Delta":153866214},{"NoteNumber":62,"Velocity":80,"Duration":62039,"SoundDuration":62039,"Delta":153866214},{"NoteNumber":65,"Velocity":80,"Duration":62039,"SoundDuration":62039,"Delta":153866214},{"NoteNumber":57,"Velocity":72,"Duration":62039,"SoundDuration":62039,"Delta":153866214},{"NoteNumber":69,"Velocity":81,"Duration":76784,"SoundDuration":76784,"Delta":153975695},{"NoteNumber":74,"Velocity":81,"Duration":76784,"SoundDuration":76784,"Delta":153975695},{"NoteNumber":77,"Velocity":90,"Duration":76784,"SoundDuration":76784,"Delta":153975695},{"NoteNumber":81,"Velocity":90,"Duration":76784,"SoundDuration":76784,"Delta":153975695},{"NoteNumber":57,"Velocity":72,"Duration":76784,"SoundDuration":76784,"Delta":153975695},{"NoteNumber":53,"Velocity":72,"Duration":76784,"SoundDuration":76784,"Delta":153975695},{"NoteNumber":65,"Velocity":80,"Duration":76784,"SoundDuration":76784,"Delta":153975695},{"NoteNumber":62,"Velocity":80,"Duration":76784,"SoundDuration":76784,"Delta":153975695},{"NoteNumber":57,"Velocity":64,"Duration":66661,"SoundDuration":66661,"Delta":154246698},{"NoteNumber":62,"Velocity":64,"Duration":66661,"SoundDuration":66661,"Delta":154246698},{"NoteNumber":65,"Velocity":72,"Duration":66661,"SoundDuration":66661,"Delta":154246698},{"NoteNumber":69,"Velocity":72,"Duration":66661,"SoundDuration":66661,"Delta":154246698},{"NoteNumber":45,"Velocity":64,"Duration":66661,"SoundDuration":66661,"Delta":154246698},{"NoteNumber":38,"Velocity":64,"Duration":66661,"SoundDuration":66661,"Delta":154246698},{"NoteNumber":57,"Velocity":64,"Duration":66661,"SoundDuration":66661,"Delta":154364336},{"NoteNumber":62,"Velocity":64,"Duration":66661,"SoundDuration":66661,"Delta":154364336},{"NoteNumber":65,"Velocity":72,"Duration":66661,"SoundDuration":66661,"Delta":154364336},{"NoteNumber":69,"Velocity":72,"Duration":66661,"SoundDuration":66661,"Delta":154364336},{"NoteNumber":45,"Velocity":64,"Duration":66661,"SoundDuration":66661,"Delta":154364336},{"NoteNumber":38,"Velocity":64,"Duration":66661,"SoundDuration":66661,"Delta":154364336},{"NoteNumber":57,"Velocity":64,"Duration":76103,"SoundDuration":76103,"Delta":154481973},{"NoteNumber":62,"Velocity":64,"Duration":76103,"SoundDuration":76103,"Delta":154481973},{"NoteNumber":65,"Velocity":72,"Duration":76103,"SoundDuration":76103,"Delta":154481973},{"NoteNumber":69,"Velocity":72,"Duration":76103,"SoundDuration":76103,"Delta":154481973},{"NoteNumber":38,"Velocity":64,"Duration":76103,"SoundDuration":76103,"Delta":154481973},{"NoteNumber":45,"Velocity":64,"Duration":76103,"SoundDuration":76103,"Delta":154481973},{"NoteNumber":65,"Velocity":83,"Duration":103926,"SoundDuration":103926,"Delta":154750574},{"NoteNumber":69,"Velocity":83,"Duration":103926,"SoundDuration":103926,"Delta":154750574},{"NoteNumber":74,"Velocity":93,"Duration":103926,"SoundDuration":103926,"Delta":154750574},{"NoteNumber":77,"Velocity":93,"Duration":103926,"SoundDuration":103926,"Delta":154750574},{"NoteNumber":53,"Velocity":74,"Duration":103926,"SoundDuration":103926,"Delta":154750574},{"NoteNumber":62,"Velocity":83,"Duration":103926,"SoundDuration":103926,"Delta":154750574},{"NoteNumber":57,"Velocity":83,"Duration":103926,"SoundDuration":103926,"Delta":154750574},{"NoteNumber":69,"Velocity":83,"Duration":133701,"SoundDuration":133701,"Delta":155027710},{"NoteNumber":77,"Velocity":93,"Duration":133701,"SoundDuration":133701,"Delta":155027710},{"NoteNumber":81,"Velocity":93,"Duration":133701,"SoundDuration":133701,"Delta":155027710},{"NoteNumber":53,"Velocity":83,"Duration":133701,"SoundDuration":133701,"Delta":155027710},{"NoteNumber":57,"Velocity":83,"Duration":133701,"SoundDuration":133701,"Delta":155027710},{"NoteNumber":83,"Velocity":93,"Duration":133701,"SoundDuration":133701,"Delta":155161412},{"NoteNumber":59,"Velocity":83,"Duration":133701,"SoundDuration":133701,"Delta":155161412},{"NoteNumber":72,"Velocity":93,"Duration":133701,"SoundDuration":133701,"Delta":155295114},{"NoteNumber":84,"Velocity":93,"Duration":133701,"SoundDuration":133701,"Delta":155295114},{"NoteNumber":60,"Velocity":83,"Duration":133701,"SoundDuration":133701,"Delta":155295114},{"NoteNumber":86,"Velocity":93,"Duration":133701,"SoundDuration":133701,"Delta":155428816},{"NoteNumber":62,"Velocity":83,"Duration":133701,"SoundDuration":133701,"Delta":155428816},{"NoteNumber":72,"Velocity":89,"Duration":275913,"SoundDuration":275913,"Delta":155562517},{"NoteNumber":81,"Velocity":99,"Duration":275913,"SoundDuration":275913,"Delta":155562517},{"NoteNumber":84,"Velocity":99,"Duration":275913,"SoundDuration":275913,"Delta":155562517},{"NoteNumber":57,"Velocity":89,"Duration":275913,"SoundDuration":275913,"Delta":155562517},{"NoteNumber":60,"Velocity":89,"Duration":275913,"SoundDuration":275913,"Delta":155562517},{"NoteNumber":53,"Velocity":80,"Duration":275913,"SoundDuration":275913,"Delta":155562517},{"NoteNumber":69,"Velocity":82,"Duration":62726,"SoundDuration":62726,"Delta":155838430},{"NoteNumber":72,"Velocity":82,"Duration":62726,"SoundDuration":62726,"Delta":155838430},{"NoteNumber":77,"Velocity":92,"Duration":62726,"SoundDuration":62726,"Delta":155838430},{"NoteNumber":81,"Velocity":92,"Duration":62726,"SoundDuration":62726,"Delta":155838430},{"NoteNumber":57,"Velocity":72,"Duration":62726,"SoundDuration":62726,"Delta":155838430},{"NoteNumber":60,"Velocity":81,"Duration":62726,"SoundDuration":62726,"Delta":155838430},{"NoteNumber":65,"Velocity":81,"Duration":62726,"SoundDuration":62726,"Delta":155838430},{"NoteNumber":53,"Velocity":72,"Duration":62726,"SoundDuration":62726,"Delta":155838430},{"NoteNumber":69,"Velocity":82,"Duration":62726,"SoundDuration":62726,"Delta":155949123},{"NoteNumber":72,"Velocity":82,"Duration":62726,"SoundDuration":62726,"Delta":155949123},{"NoteNumber":77,"Velocity":92,"Duration":62726,"SoundDuration":62726,"Delta":155949123},{"NoteNumber":81,"Velocity":92,"Duration":62726,"SoundDuration":62726,"Delta":155949123},{"NoteNumber":57,"Velocity":72,"Duration":62726,"SoundDuration":62726,"Delta":155949123},{"NoteNumber":60,"Velocity":81,"Duration":62726,"SoundDuration":62726,"Delta":155949123},{"NoteNumber":65,"Velocity":81,"Duration":62726,"SoundDuration":62726,"Delta":155949123},{"NoteNumber":53,"Velocity":72,"Duration":62726,"SoundDuration":62726,"Delta":155949123},{"NoteNumber":69,"Velocity":82,"Duration":77118,"SoundDuration":77118,"Delta":156059816},{"NoteNumber":72,"Velocity":82,"Duration":77118,"SoundDuration":77118,"Delta":156059816},{"NoteNumber":77,"Velocity":92,"Duration":77118,"SoundDuration":77118,"Delta":156059816},{"NoteNumber":81,"Velocity":92,"Duration":77118,"SoundDuration":77118,"Delta":156059816},{"NoteNumber":57,"Velocity":72,"Duration":77118,"SoundDuration":77118,"Delta":156059816},{"NoteNumber":60,"Velocity":81,"Duration":77118,"SoundDuration":77118,"Delta":156059816},{"NoteNumber":65,"Velocity":81,"Duration":77118,"SoundDuration":77118,"Delta":156059816},{"NoteNumber":53,"Velocity":72,"Duration":77118,"SoundDuration":77118,"Delta":156059816},{"NoteNumber":60,"Velocity":72,"Duration":66142,"SoundDuration":66142,"Delta":156331999},{"NoteNumber":65,"Velocity":72,"Duration":66142,"SoundDuration":66142,"Delta":156331999},{"NoteNumber":69,"Velocity":80,"Duration":66142,"SoundDuration":66142,"Delta":156331999},{"NoteNumber":72,"Velocity":80,"Duration":66142,"SoundDuration":66142,"Delta":156331999},{"NoteNumber":48,"Velocity":72,"Duration":66142,"SoundDuration":66142,"Delta":156331999},{"NoteNumber":41,"Velocity":72,"Duration":66142,"SoundDuration":66142,"Delta":156331999},{"NoteNumber":60,"Velocity":72,"Duration":66142,"SoundDuration":66142,"Delta":156448722},{"NoteNumber":65,"Velocity":72,"Duration":66142,"SoundDuration":66142,"Delta":156448722},{"NoteNumber":69,"Velocity":80,"Duration":66142,"SoundDuration":66142,"Delta":156448722},{"NoteNumber":72,"Velocity":80,"Duration":66142,"SoundDuration":66142,"Delta":156448722},{"NoteNumber":48,"Velocity":72,"Duration":66142,"SoundDuration":66142,"Delta":156448722},{"NoteNumber":41,"Velocity":72,"Duration":66142,"SoundDuration":66142,"Delta":156448722},{"NoteNumber":60,"Velocity":72,"Duration":77118,"SoundDuration":77118,"Delta":156565444},{"NoteNumber":65,"Velocity":72,"Duration":77118,"SoundDuration":77118,"Delta":156565444},{"NoteNumber":69,"Velocity":80,"Duration":77118,"SoundDuration":77118,"Delta":156565444},{"NoteNumber":72,"Velocity":80,"Duration":77118,"SoundDuration":77118,"Delta":156565444},{"NoteNumber":48,"Velocity":72,"Duration":77118,"SoundDuration":77118,"Delta":156565444},{"NoteNumber":41,"Velocity":72,"Duration":77118,"SoundDuration":77118,"Delta":156565444},{"NoteNumber":69,"Velocity":81,"Duration":103926,"SoundDuration":103926,"Delta":156837627},{"NoteNumber":72,"Velocity":81,"Duration":103926,"SoundDuration":103926,"Delta":156837627},{"NoteNumber":77,"Velocity":91,"Duration":103926,"SoundDuration":103926,"Delta":156837627},{"NoteNumber":81,"Velocity":91,"Duration":103926,"SoundDuration":103926,"Delta":156837627},{"NoteNumber":57,"Velocity":82,"Duration":103926,"SoundDuration":103926,"Delta":156837627},{"NoteNumber":60,"Velocity":82,"Duration":103926,"SoundDuration":103926,"Delta":156837627},{"NoteNumber":53,"Velocity":82,"Duration":103926,"SoundDuration":103926,"Delta":156837627},{"NoteNumber":72,"Velocity":81,"Duration":133120,"SoundDuration":133120,"Delta":157114764},{"NoteNumber":80,"Velocity":91,"Duration":133120,"SoundDuration":133120,"Delta":157114764},{"NoteNumber":84,"Velocity":91,"Duration":133120,"SoundDuration":133120,"Delta":157114764},{"NoteNumber":53,"Velocity":73,"Duration":133120,"SoundDuration":133120,"Delta":157114764},{"NoteNumber":60,"Velocity":82,"Duration":133120,"SoundDuration":133120,"Delta":157114764},{"NoteNumber":56,"Velocity":82,"Duration":133120,"SoundDuration":133120,"Delta":157114764},{"NoteNumber":86,"Velocity":91,"Duration":133120,"SoundDuration":133120,"Delta":157247884},{"NoteNumber":62,"Velocity":82,"Duration":133120,"SoundDuration":133120,"Delta":157247884},{"NoteNumber":75,"Velocity":91,"Duration":133120,"SoundDuration":133120,"Delta":157381004},{"NoteNumber":87,"Velocity":91,"Duration":133120,"SoundDuration":133120,"Delta":157381004},{"NoteNumber":63,"Velocity":82,"Duration":133120,"SoundDuration":133120,"Delta":157381004},{"NoteNumber":89,"Velocity":91,"Duration":133120,"SoundDuration":133120,"Delta":157514125},{"NoteNumber":65,"Velocity":82,"Duration":133120,"SoundDuration":133120,"Delta":157514125},{"NoteNumber":75,"Velocity":87,"Duration":277136,"SoundDuration":277136,"Delta":157647245},{"NoteNumber":84,"Velocity":97,"Duration":277136,"SoundDuration":277136,"Delta":157647245},{"NoteNumber":87,"Velocity":97,"Duration":277136,"SoundDuration":277136,"Delta":157647245},{"NoteNumber":55,"Velocity":80,"Duration":277136,"SoundDuration":277136,"Delta":157647245},{"NoteNumber":63,"Velocity":89,"Duration":277136,"SoundDuration":277136,"Delta":157647245},{"NoteNumber":60,"Velocity":89,"Duration":277136,"SoundDuration":277136,"Delta":157647245},{"NoteNumber":60,"Velocity":89,"Duration":69105,"SoundDuration":69105,"Delta":157924381},{"NoteNumber":67,"Velocity":89,"Duration":69105,"SoundDuration":69105,"Delta":157924381},{"NoteNumber":51,"Velocity":76,"Duration":69105,"SoundDuration":69105,"Delta":157924381},{"NoteNumber":43,"Velocity":76,"Duration":69105,"SoundDuration":69105,"Delta":157924381},{"NoteNumber":60,"Velocity":89,"Duration":69105,"SoundDuration":69105,"Delta":158046333},{"NoteNumber":67,"Velocity":89,"Duration":69105,"SoundDuration":69105,"Delta":158046333},{"NoteNumber":36,"Velocity":76,"Duration":69105,"SoundDuration":69105,"Delta":158046333},{"NoteNumber":60,"Velocity":89,"Duration":75221,"SoundDuration":75221,"Delta":158168284},{"NoteNumber":67,"Velocity":89,"Duration":75221,"SoundDuration":75221,"Delta":158168284},{"NoteNumber":51,"Velocity":76,"Duration":199114,"SoundDuration":199114,"Delta":158168284},{"NoteNumber":43,"Velocity":76,"Duration":199114,"SoundDuration":199114,"Delta":158168284},{"NoteNumber":87,"Velocity":94,"Duration":142450,"SoundDuration":142450,"Delta":158433770},{"NoteNumber":75,"Velocity":94,"Duration":142450,"SoundDuration":142450,"Delta":158433770},{"NoteNumber":63,"Velocity":84,"Duration":142450,"SoundDuration":142450,"Delta":158433770},{"NoteNumber":89,"Velocity":94,"Duration":142450,"SoundDuration":142450,"Delta":158576221},{"NoteNumber":77,"Velocity":94,"Duration":142450,"SoundDuration":142450,"Delta":158576221},{"NoteNumber":65,"Velocity":84,"Duration":142450,"SoundDuration":142450,"Delta":158576221},{"NoteNumber":91,"Velocity":99,"Duration":284900,"SoundDuration":284900,"Delta":158718671},{"NoteNumber":86,"Velocity":99,"Duration":284900,"SoundDuration":284900,"Delta":158718671},{"NoteNumber":82,"Velocity":89,"Duration":284900,"SoundDuration":284900,"Delta":158718671},{"NoteNumber":79,"Velocity":89,"Duration":284900,"SoundDuration":284900,"Delta":158718671},{"NoteNumber":62,"Velocity":89,"Duration":284900,"SoundDuration":284900,"Delta":158718671},{"NoteNumber":58,"Velocity":80,"Duration":284900,"SoundDuration":284900,"Delta":158718671},{"NoteNumber":67,"Velocity":89,"Duration":284900,"SoundDuration":284900,"Delta":158718671},{"NoteNumber":62,"Velocity":89,"Duration":78175,"SoundDuration":78175,"Delta":159003571},{"NoteNumber":67,"Velocity":89,"Duration":78175,"SoundDuration":78175,"Delta":159003571},{"NoteNumber":55,"Velocity":75,"Duration":78175,"SoundDuration":78175,"Delta":159003571},{"NoteNumber":46,"Velocity":75,"Duration":78175,"SoundDuration":78175,"Delta":159003571},{"NoteNumber":62,"Velocity":89,"Duration":78175,"SoundDuration":78175,"Delta":159141528},{"NoteNumber":67,"Velocity":89,"Duration":78175,"SoundDuration":78175,"Delta":159141528},{"NoteNumber":39,"Velocity":75,"Duration":78175,"SoundDuration":78175,"Delta":159141528},{"NoteNumber":62,"Velocity":89,"Duration":78175,"SoundDuration":78175,"Delta":159279484},{"NoteNumber":67,"Velocity":89,"Duration":78175,"SoundDuration":78175,"Delta":159279484},{"NoteNumber":46,"Velocity":75,"Duration":206934,"SoundDuration":206934,"Delta":159279484},{"NoteNumber":55,"Velocity":75,"Duration":206934,"SoundDuration":206934,"Delta":159279484},{"NoteNumber":86,"Velocity":99,"Duration":154766,"SoundDuration":154766,"Delta":159555397},{"NoteNumber":62,"Velocity":89,"Duration":154766,"SoundDuration":154766,"Delta":159555397},{"NoteNumber":91,"Velocity":99,"Duration":154766,"SoundDuration":154766,"Delta":159710164},{"NoteNumber":67,"Velocity":89,"Duration":154766,"SoundDuration":154766,"Delta":159710164},{"NoteNumber":86,"Velocity":104,"Duration":309533,"SoundDuration":309533,"Delta":159864931},{"NoteNumber":81,"Velocity":104,"Duration":309533,"SoundDuration":309533,"Delta":159864931},{"NoteNumber":93,"Velocity":104,"Duration":309533,"SoundDuration":309533,"Delta":159864931},{"NoteNumber":64,"Velocity":92,"Duration":309533,"SoundDuration":309533,"Delta":159864931},{"NoteNumber":57,"Velocity":82,"Duration":309533,"SoundDuration":309533,"Delta":159864931},{"NoteNumber":69,"Velocity":92,"Duration":309533,"SoundDuration":309533,"Delta":159864931},{"NoteNumber":74,"Velocity":81,"Duration":78886,"SoundDuration":78886,"Delta":160174464},{"NoteNumber":76,"Velocity":91,"Duration":78886,"SoundDuration":78886,"Delta":160174464},{"NoteNumber":81,"Velocity":91,"Duration":78886,"SoundDuration":78886,"Delta":160174464},{"NoteNumber":67,"Velocity":81,"Duration":78886,"SoundDuration":78886,"Delta":160174464},{"NoteNumber":57,"Velocity":72,"Duration":78886,"SoundDuration":78886,"Delta":160174464},{"NoteNumber":64,"Velocity":81,"Duration":78886,"SoundDuration":78886,"Delta":160174464},{"NoteNumber":74,"Velocity":81,"Duration":78886,"SoundDuration":78886,"Delta":160313676},{"NoteNumber":76,"Velocity":90,"Duration":78886,"SoundDuration":78886,"Delta":160313676},{"NoteNumber":81,"Velocity":90,"Duration":78886,"SoundDuration":78886,"Delta":160313676},{"NoteNumber":64,"Velocity":81,"Duration":78886,"SoundDuration":78886,"Delta":160313676},{"NoteNumber":57,"Velocity":72,"Duration":78886,"SoundDuration":78886,"Delta":160313676},{"NoteNumber":67,"Velocity":81,"Duration":78886,"SoundDuration":78886,"Delta":160313676},{"NoteNumber":74,"Velocity":81,"Duration":78886,"SoundDuration":78886,"Delta":160452887},{"NoteNumber":76,"Velocity":90,"Duration":78886,"SoundDuration":78886,"Delta":160452887},{"NoteNumber":81,"Velocity":90,"Duration":78886,"SoundDuration":78886,"Delta":160452887},{"NoteNumber":67,"Velocity":81,"Duration":78886,"SoundDuration":78886,"Delta":160452887},{"NoteNumber":57,"Velocity":72,"Duration":78886,"SoundDuration":78886,"Delta":160452887},{"NoteNumber":64,"Velocity":81,"Duration":78886,"SoundDuration":78886,"Delta":160452887},{"NoteNumber":62,"Velocity":75,"Duration":78886,"SoundDuration":78886,"Delta":160731309},{"NoteNumber":64,"Velocity":84,"Duration":78886,"SoundDuration":78886,"Delta":160731309},{"NoteNumber":69,"Velocity":84,"Duration":78886,"SoundDuration":78886,"Delta":160731309},{"NoteNumber":45,"Velocity":69,"Duration":78886,"SoundDuration":78886,"Delta":160731309},{"NoteNumber":55,"Velocity":77,"Duration":78886,"SoundDuration":78886,"Delta":160731309},{"NoteNumber":52,"Velocity":77,"Duration":78886,"SoundDuration":78886,"Delta":160731309},{"NoteNumber":62,"Velocity":75,"Duration":78886,"SoundDuration":78886,"Delta":160870521},{"NoteNumber":64,"Velocity":84,"Duration":78886,"SoundDuration":78886,"Delta":160870521},{"NoteNumber":69,"Velocity":84,"Duration":78886,"SoundDuration":78886,"Delta":160870521},{"NoteNumber":45,"Velocity":69,"Duration":78886,"SoundDuration":78886,"Delta":160870521},{"NoteNumber":55,"Velocity":77,"Duration":78886,"SoundDuration":78886,"Delta":160870521},{"NoteNumber":52,"Velocity":77,"Duration":78886,"SoundDuration":78886,"Delta":160870521},{"NoteNumber":62,"Velocity":75,"Duration":78886,"SoundDuration":78886,"Delta":161009732},{"NoteNumber":64,"Velocity":84,"Duration":78886,"SoundDuration":78886,"Delta":161009732},{"NoteNumber":69,"Velocity":84,"Duration":78886,"SoundDuration":78886,"Delta":161009732},{"NoteNumber":52,"Velocity":77,"Duration":78886,"SoundDuration":78886,"Delta":161009732},{"NoteNumber":55,"Velocity":77,"Duration":78886,"SoundDuration":78886,"Delta":161009732},{"NoteNumber":45,"Velocity":69,"Duration":78886,"SoundDuration":78886,"Delta":161009732},{"NoteNumber":49,"Velocity":67,"Duration":78886,"SoundDuration":78886,"Delta":161288154},{"NoteNumber":55,"Velocity":75,"Duration":78886,"SoundDuration":78886,"Delta":161288154},{"NoteNumber":57,"Velocity":75,"Duration":78886,"SoundDuration":78886,"Delta":161288154},{"NoteNumber":33,"Velocity":66,"Duration":78886,"SoundDuration":78886,"Delta":161288154},{"NoteNumber":40,"Velocity":66,"Duration":78886,"SoundDuration":78886,"Delta":161288154},{"NoteNumber":49,"Velocity":67,"Duration":78886,"SoundDuration":78886,"Delta":161427366},{"NoteNumber":55,"Velocity":75,"Duration":78886,"SoundDuration":78886,"Delta":161427366},{"NoteNumber":57,"Velocity":75,"Duration":78886,"SoundDuration":78886,"Delta":161427366},{"NoteNumber":40,"Velocity":66,"Duration":78886,"SoundDuration":78886,"Delta":161427366},{"NoteNumber":33,"Velocity":66,"Duration":78886,"SoundDuration":78886,"Delta":161427366},{"NoteNumber":49,"Velocity":67,"Duration":78886,"SoundDuration":78886,"Delta":161566577},{"NoteNumber":55,"Velocity":75,"Duration":78886,"SoundDuration":78886,"Delta":161566577},{"NoteNumber":57,"Velocity":75,"Duration":78886,"SoundDuration":78886,"Delta":161566577},{"NoteNumber":33,"Velocity":89,"Duration":78886,"SoundDuration":78886,"Delta":161566577},{"NoteNumber":40,"Velocity":89,"Duration":78886,"SoundDuration":78886,"Delta":161566577},{"NoteNumber":55,"Velocity":99,"Duration":145871,"SoundDuration":145871,"Delta":161844999},{"NoteNumber":31,"Velocity":89,"Duration":145871,"SoundDuration":145871,"Delta":161844999},{"NoteNumber":57,"Velocity":99,"Duration":145871,"SoundDuration":145871,"Delta":161990871},{"NoteNumber":33,"Velocity":89,"Duration":145871,"SoundDuration":145871,"Delta":161990871},{"NoteNumber":50,"Velocity":113,"Duration":2141911,"SoundDuration":2141911,"Delta":162136743},{"NoteNumber":62,"Velocity":113,"Duration":375000,"SoundDuration":375000,"Delta":162136743},{"NoteNumber":38,"Velocity":101,"Duration":2141911,"SoundDuration":2141911,"Delta":162136743},{"NoteNumber":26,"Velocity":101,"Duration":2141911,"SoundDuration":2141911,"Delta":162136743},{"NoteNumber":93,"Velocity":45,"Duration":102272,"SoundDuration":102272,"Delta":162409470},{"NoteNumber":90,"Velocity":45,"Duration":102272,"SoundDuration":102272,"Delta":162409470},{"NoteNumber":86,"Velocity":40,"Duration":102272,"SoundDuration":102272,"Delta":162409470},{"NoteNumber":81,"Velocity":40,"Duration":102272,"SoundDuration":102272,"Delta":162409470},{"NoteNumber":62,"Velocity":36,"Duration":238636,"SoundDuration":238636,"Delta":162409470},{"NoteNumber":66,"Velocity":40,"Duration":102272,"SoundDuration":102272,"Delta":162409470},{"NoteNumber":69,"Velocity":40,"Duration":102272,"SoundDuration":102272,"Delta":162409470},{"NoteNumber":57,"Velocity":36,"Duration":102272,"SoundDuration":102272,"Delta":162409470},{"NoteNumber":93,"Velocity":49,"Duration":102272,"SoundDuration":102272,"Delta":162545834},{"NoteNumber":90,"Velocity":49,"Duration":102272,"SoundDuration":102272,"Delta":162545834},{"NoteNumber":86,"Velocity":44,"Duration":102272,"SoundDuration":102272,"Delta":162545834},{"NoteNumber":81,"Velocity":44,"Duration":102272,"SoundDuration":102272,"Delta":162545834},{"NoteNumber":57,"Velocity":37,"Duration":102272,"SoundDuration":102272,"Delta":162545834},{"NoteNumber":66,"Velocity":42,"Duration":102272,"SoundDuration":102272,"Delta":162545834},{"NoteNumber":69,"Velocity":42,"Duration":102272,"SoundDuration":102272,"Delta":162545834},{"NoteNumber":62,"Velocity":37,"Duration":238636,"SoundDuration":238636,"Delta":162545834},{"NoteNumber":93,"Velocity":52,"Duration":102272,"SoundDuration":102272,"Delta":162682198},{"NoteNumber":90,"Velocity":52,"Duration":102272,"SoundDuration":102272,"Delta":162682198},{"NoteNumber":86,"Velocity":46,"Duration":102272,"SoundDuration":102272,"Delta":162682198},{"NoteNumber":81,"Velocity":46,"Duration":102272,"SoundDuration":102272,"Delta":162682198},{"NoteNumber":57,"Velocity":41,"Duration":102272,"SoundDuration":102272,"Delta":162682198},{"NoteNumber":66,"Velocity":46,"Duration":102272,"SoundDuration":102272,"Delta":162682198},{"NoteNumber":69,"Velocity":46,"Duration":102272,"SoundDuration":102272,"Delta":162682198},{"NoteNumber":62,"Velocity":41,"Duration":238173,"SoundDuration":238173,"Delta":162682198},{"NoteNumber":94,"Velocity":54,"Duration":101809,"SoundDuration":101809,"Delta":162818562},{"NoteNumber":90,"Velocity":54,"Duration":101809,"SoundDuration":101809,"Delta":162818562},{"NoteNumber":86,"Velocity":48,"Duration":101809,"SoundDuration":101809,"Delta":162818562},{"NoteNumber":82,"Velocity":48,"Duration":101809,"SoundDuration":101809,"Delta":162818562},{"NoteNumber":62,"Velocity":43,"Duration":237097,"SoundDuration":237097,"Delta":162818562},{"NoteNumber":58,"Velocity":43,"Duration":101809,"SoundDuration":101809,"Delta":162818562},{"NoteNumber":70,"Velocity":48,"Duration":101809,"SoundDuration":101809,"Delta":162818562},{"NoteNumber":66,"Velocity":48,"Duration":101809,"SoundDuration":101809,"Delta":162818562},{"NoteNumber":94,"Velocity":57,"Duration":101351,"SoundDuration":101351,"Delta":162954308},{"NoteNumber":90,"Velocity":57,"Duration":101351,"SoundDuration":101351,"Delta":162954308},{"NoteNumber":86,"Velocity":51,"Duration":101351,"SoundDuration":101351,"Delta":162954308},{"NoteNumber":82,"Velocity":51,"Duration":101351,"SoundDuration":101351,"Delta":162954308},{"NoteNumber":62,"Velocity":45,"Duration":236032,"SoundDuration":236032,"Delta":162954308},{"NoteNumber":58,"Velocity":45,"Duration":101351,"SoundDuration":101351,"Delta":162954308},{"NoteNumber":70,"Velocity":51,"Duration":101351,"SoundDuration":101351,"Delta":162954308},{"NoteNumber":66,"Velocity":51,"Duration":101351,"SoundDuration":101351,"Delta":162954308},{"NoteNumber":93,"Velocity":62,"Duration":100896,"SoundDuration":100896,"Delta":163089443},{"NoteNumber":90,"Velocity":62,"Duration":100896,"SoundDuration":100896,"Delta":163089443},{"NoteNumber":86,"Velocity":55,"Duration":100896,"SoundDuration":100896,"Delta":163089443},{"NoteNumber":81,"Velocity":55,"Duration":100896,"SoundDuration":100896,"Delta":163089443},{"NoteNumber":57,"Velocity":48,"Duration":100896,"SoundDuration":100896,"Delta":163089443},{"NoteNumber":66,"Velocity":54,"Duration":100896,"SoundDuration":100896,"Delta":163089443},{"NoteNumber":62,"Velocity":48,"Duration":234975,"SoundDuration":234975,"Delta":163089443},{"NoteNumber":69,"Velocity":54,"Duration":100896,"SoundDuration":100896,"Delta":163089443},{"NoteNumber":93,"Velocity":64,"Duration":100446,"SoundDuration":100446,"Delta":163223973},{"NoteNumber":90,"Velocity":64,"Duration":100446,"SoundDuration":100446,"Delta":163223973},{"NoteNumber":86,"Velocity":57,"Duration":100446,"SoundDuration":100446,"Delta":163223973},{"NoteNumber":81,"Velocity":57,"Duration":100446,"SoundDuration":100446,"Delta":163223973},{"NoteNumber":57,"Velocity":50,"Duration":100446,"SoundDuration":100446,"Delta":163223973},{"NoteNumber":66,"Velocity":56,"Duration":100446,"SoundDuration":100446,"Delta":163223973},{"NoteNumber":62,"Velocity":50,"Duration":233928,"SoundDuration":233928,"Delta":163223973},{"NoteNumber":69,"Velocity":56,"Duration":100446,"SoundDuration":100446,"Delta":163223973},{"NoteNumber":94,"Velocity":67,"Duration":99999,"SoundDuration":99999,"Delta":163357901},{"NoteNumber":90,"Velocity":67,"Duration":99999,"SoundDuration":99999,"Delta":163357901},{"NoteNumber":86,"Velocity":60,"Duration":99999,"SoundDuration":99999,"Delta":163357901},{"NoteNumber":82,"Velocity":60,"Duration":99999,"SoundDuration":99999,"Delta":163357901},{"NoteNumber":62,"Velocity":53,"Duration":232890,"SoundDuration":232890,"Delta":163357901},{"NoteNumber":66,"Velocity":59,"Duration":99999,"SoundDuration":99999,"Delta":163357901},{"NoteNumber":70,"Velocity":59,"Duration":99999,"SoundDuration":99999,"Delta":163357901},{"NoteNumber":58,"Velocity":53,"Duration":99999,"SoundDuration":99999,"Delta":163357901},{"NoteNumber":94,"Velocity":71,"Duration":99557,"SoundDuration":99557,"Delta":163491234},{"NoteNumber":90,"Velocity":71,"Duration":99557,"SoundDuration":99557,"Delta":163491234},{"NoteNumber":86,"Velocity":63,"Duration":99557,"SoundDuration":99557,"Delta":163491234},{"NoteNumber":82,"Velocity":63,"Duration":99557,"SoundDuration":99557,"Delta":163491234},{"NoteNumber":62,"Velocity":56,"Duration":231862,"SoundDuration":231862,"Delta":163491234},{"NoteNumber":66,"Velocity":63,"Duration":99557,"SoundDuration":99557,"Delta":163491234},{"NoteNumber":70,"Velocity":63,"Duration":99557,"SoundDuration":99557,"Delta":163491234},{"NoteNumber":58,"Velocity":56,"Duration":99557,"SoundDuration":99557,"Delta":163491234},{"NoteNumber":93,"Velocity":74,"Duration":99118,"SoundDuration":99118,"Delta":163623978},{"NoteNumber":90,"Velocity":74,"Duration":99118,"SoundDuration":99118,"Delta":163623978},{"NoteNumber":86,"Velocity":66,"Duration":99118,"SoundDuration":99118,"Delta":163623978},{"NoteNumber":81,"Velocity":66,"Duration":99118,"SoundDuration":99118,"Delta":163623978},{"NoteNumber":62,"Velocity":58,"Duration":230842,"SoundDuration":230842,"Delta":163623978},{"NoteNumber":66,"Velocity":65,"Duration":99118,"SoundDuration":99118,"Delta":163623978},{"NoteNumber":69,"Velocity":65,"Duration":99118,"SoundDuration":99118,"Delta":163623978},{"NoteNumber":57,"Velocity":58,"Duration":99118,"SoundDuration":99118,"Delta":163623978},{"NoteNumber":93,"Velocity":77,"Duration":98684,"SoundDuration":98684,"Delta":163756136},{"NoteNumber":90,"Velocity":77,"Duration":98684,"SoundDuration":98684,"Delta":163756136},{"NoteNumber":86,"Velocity":69,"Duration":98684,"SoundDuration":98684,"Delta":163756136},{"NoteNumber":81,"Velocity":69,"Duration":98684,"SoundDuration":98684,"Delta":163756136},{"NoteNumber":57,"Velocity":61,"Duration":98684,"SoundDuration":98684,"Delta":163756136},{"NoteNumber":66,"Velocity":68,"Duration":98684,"SoundDuration":98684,"Delta":163756136},{"NoteNumber":69,"Velocity":68,"Duration":98684,"SoundDuration":98684,"Delta":163756136},{"NoteNumber":62,"Velocity":61,"Duration":230023,"SoundDuration":230023,"Delta":163756136},{"NoteNumber":94,"Velocity":81,"Duration":98444,"SoundDuration":98444,"Delta":163887715},{"NoteNumber":90,"Velocity":81,"Duration":98444,"SoundDuration":98444,"Delta":163887715},{"NoteNumber":86,"Velocity":72,"Duration":98444,"SoundDuration":98444,"Delta":163887715},{"NoteNumber":82,"Velocity":72,"Duration":98444,"SoundDuration":98444,"Delta":163887715},{"NoteNumber":58,"Velocity":64,"Duration":98444,"SoundDuration":98444,"Delta":163887715},{"NoteNumber":66,"Velocity":72,"Duration":98444,"SoundDuration":98444,"Delta":163887715},{"NoteNumber":70,"Velocity":72,"Duration":98444,"SoundDuration":98444,"Delta":163887715},{"NoteNumber":62,"Velocity":64,"Duration":228974,"SoundDuration":228974,"Delta":163887715},{"NoteNumber":94,"Velocity":83,"Duration":97779,"SoundDuration":97779,"Delta":164018911},{"NoteNumber":90,"Velocity":83,"Duration":97779,"SoundDuration":97779,"Delta":164018911},{"NoteNumber":86,"Velocity":74,"Duration":97779,"SoundDuration":97779,"Delta":164018911},{"NoteNumber":82,"Velocity":74,"Duration":97779,"SoundDuration":97779,"Delta":164018911},{"NoteNumber":62,"Velocity":65,"Duration":227415,"SoundDuration":227415,"Delta":164018911},{"NoteNumber":58,"Velocity":65,"Duration":97779,"SoundDuration":97779,"Delta":164018911},{"NoteNumber":70,"Velocity":73,"Duration":97779,"SoundDuration":97779,"Delta":164018911},{"NoteNumber":66,"Velocity":73,"Duration":97779,"SoundDuration":97779,"Delta":164018911},{"NoteNumber":93,"Velocity":87,"Duration":97169,"SoundDuration":97169,"Delta":164149157},{"NoteNumber":90,"Velocity":87,"Duration":97169,"SoundDuration":97169,"Delta":164149157},{"NoteNumber":86,"Velocity":78,"Duration":97169,"SoundDuration":97169,"Delta":164149157},{"NoteNumber":81,"Velocity":78,"Duration":97169,"SoundDuration":97169,"Delta":164149157},{"NoteNumber":62,"Velocity":68,"Duration":129496,"SoundDuration":129496,"Delta":164149157},{"NoteNumber":57,"Velocity":68,"Duration":97169,"SoundDuration":97169,"Delta":164149157},{"NoteNumber":69,"Velocity":76,"Duration":97169,"SoundDuration":97169,"Delta":164149157},{"NoteNumber":66,"Velocity":76,"Duration":97169,"SoundDuration":97169,"Delta":164149157},{"NoteNumber":93,"Velocity":90,"Duration":96566,"SoundDuration":96566,"Delta":164278654},{"NoteNumber":90,"Velocity":90,"Duration":96566,"SoundDuration":96566,"Delta":164278654},{"NoteNumber":86,"Velocity":81,"Duration":96566,"SoundDuration":96566,"Delta":164278654},{"NoteNumber":81,"Velocity":81,"Duration":96566,"SoundDuration":96566,"Delta":164278654},{"NoteNumber":57,"Velocity":72,"Duration":96566,"SoundDuration":96566,"Delta":164278654},{"NoteNumber":66,"Velocity":80,"Duration":96566,"SoundDuration":96566,"Delta":164278654},{"NoteNumber":62,"Velocity":72,"Duration":96566,"SoundDuration":96566,"Delta":164278654},{"NoteNumber":69,"Velocity":80,"Duration":96566,"SoundDuration":96566,"Delta":164278654},{"NoteNumber":90,"Velocity":90,"Duration":96566,"SoundDuration":96566,"Delta":164536165},{"NoteNumber":78,"Velocity":90,"Duration":96566,"SoundDuration":96566,"Delta":164536165},{"NoteNumber":66,"Velocity":76,"Duration":96566,"SoundDuration":96566,"Delta":164536165},{"NoteNumber":87,"Velocity":90,"Duration":96566,"SoundDuration":96566,"Delta":164664920},{"NoteNumber":75,"Velocity":90,"Duration":96566,"SoundDuration":96566,"Delta":164664920},{"NoteNumber":63,"Velocity":76,"Duration":96566,"SoundDuration":96566,"Delta":164664920},{"NoteNumber":86,"Velocity":90,"Duration":96566,"SoundDuration":96566,"Delta":164793675},{"NoteNumber":74,"Velocity":90,"Duration":96566,"SoundDuration":96566,"Delta":164793675},{"NoteNumber":62,"Velocity":76,"Duration":96566,"SoundDuration":96566,"Delta":164793675},{"NoteNumber":84,"Velocity":90,"Duration":96566,"SoundDuration":96566,"Delta":164922431},{"NoteNumber":72,"Velocity":90,"Duration":96566,"SoundDuration":96566,"Delta":164922431},{"NoteNumber":60,"Velocity":76,"Duration":96566,"SoundDuration":96566,"Delta":164922431},{"NoteNumber":82,"Velocity":90,"Duration":96566,"SoundDuration":96566,"Delta":165051186},{"NoteNumber":70,"Velocity":90,"Duration":96566,"SoundDuration":96566,"Delta":165051186},{"NoteNumber":58,"Velocity":76,"Duration":96566,"SoundDuration":96566,"Delta":165051186},{"NoteNumber":81,"Velocity":90,"Duration":96566,"SoundDuration":96566,"Delta":165179941},{"NoteNumber":69,"Velocity":90,"Duration":96566,"SoundDuration":96566,"Delta":165179941},{"NoteNumber":57,"Velocity":76,"Duration":96566,"SoundDuration":96566,"Delta":165179941},{"NoteNumber":78,"Velocity":90,"Duration":96844,"SoundDuration":96844,"Delta":165308696},{"NoteNumber":66,"Velocity":90,"Duration":96844,"SoundDuration":96844,"Delta":165308696},{"NoteNumber":54,"Velocity":76,"Duration":96844,"SoundDuration":96844,"Delta":165308696},{"NoteNumber":75,"Velocity":90,"Duration":98063,"SoundDuration":98063,"Delta":165438008},{"NoteNumber":63,"Velocity":90,"Duration":98063,"SoundDuration":98063,"Delta":165438008},{"NoteNumber":51,"Velocity":76,"Duration":98063,"SoundDuration":98063,"Delta":165438008},{"NoteNumber":74,"Velocity":90,"Duration":98974,"SoundDuration":98974,"Delta":165568823},{"NoteNumber":62,"Velocity":90,"Duration":98974,"SoundDuration":98974,"Delta":165568823},{"NoteNumber":50,"Velocity":76,"Duration":98974,"SoundDuration":98974,"Delta":165568823},{"NoteNumber":72,"Velocity":90,"Duration":100247,"SoundDuration":100247,"Delta":165700983},{"NoteNumber":60,"Velocity":90,"Duration":100247,"SoundDuration":100247,"Delta":165700983},{"NoteNumber":48,"Velocity":76,"Duration":100247,"SoundDuration":100247,"Delta":165700983},{"NoteNumber":70,"Velocity":90,"Duration":101200,"SoundDuration":101200,"Delta":165834713},{"NoteNumber":58,"Velocity":90,"Duration":101200,"SoundDuration":101200,"Delta":165834713},{"NoteNumber":46,"Velocity":76,"Duration":101200,"SoundDuration":101200,"Delta":165834713},{"NoteNumber":69,"Velocity":90,"Duration":102532,"SoundDuration":102532,"Delta":165969850},{"NoteNumber":57,"Velocity":90,"Duration":102532,"SoundDuration":102532,"Delta":165969850},{"NoteNumber":45,"Velocity":76,"Duration":102532,"SoundDuration":102532,"Delta":165969850},{"NoteNumber":66,"Velocity":94,"Duration":138250,"SoundDuration":138250,"Delta":166106629},{"NoteNumber":42,"Velocity":81,"Duration":138250,"SoundDuration":138250,"Delta":166106629},{"NoteNumber":62,"Velocity":91,"Duration":139799,"SoundDuration":139799,"Delta":166244880},{"NoteNumber":38,"Velocity":76,"Duration":139799,"SoundDuration":139799,"Delta":166244880},{"NoteNumber":55,"Velocity":108,"Duration":277363,"SoundDuration":277363,"Delta":166384679},{"NoteNumber":31,"Velocity":97,"Duration":279694,"SoundDuration":279694,"Delta":166384679},{"NoteNumber":43,"Velocity":97,"Duration":279694,"SoundDuration":279694,"Delta":166384679},{"NoteNumber":79,"Velocity":82,"Duration":57623,"SoundDuration":57623,"Delta":166664373},{"NoteNumber":74,"Velocity":82,"Duration":57623,"SoundDuration":57623,"Delta":166664373},{"NoteNumber":70,"Velocity":73,"Duration":57623,"SoundDuration":57623,"Delta":166664373},{"NoteNumber":67,"Velocity":73,"Duration":57623,"SoundDuration":57623,"Delta":166664373},{"NoteNumber":58,"Velocity":72,"Duration":57623,"SoundDuration":57623,"Delta":166664373},{"NoteNumber":55,"Velocity":64,"Duration":57623,"SoundDuration":57623,"Delta":166664373},{"NoteNumber":50,"Velocity":64,"Duration":57623,"SoundDuration":57623,"Delta":166664373},{"NoteNumber":62,"Velocity":72,"Duration":57623,"SoundDuration":57623,"Delta":166664373},{"NoteNumber":79,"Velocity":82,"Duration":57623,"SoundDuration":57623,"Delta":166766061},{"NoteNumber":74,"Velocity":82,"Duration":57623,"SoundDuration":57623,"Delta":166766061},{"NoteNumber":70,"Velocity":73,"Duration":57623,"SoundDuration":57623,"Delta":166766061},{"NoteNumber":67,"Velocity":73,"Duration":57623,"SoundDuration":57623,"Delta":166766061},{"NoteNumber":62,"Velocity":72,"Duration":57623,"SoundDuration":57623,"Delta":166766061},{"NoteNumber":55,"Velocity":64,"Duration":57623,"SoundDuration":57623,"Delta":166766061},{"NoteNumber":50,"Velocity":64,"Duration":57623,"SoundDuration":57623,"Delta":166766061},{"NoteNumber":58,"Velocity":72,"Duration":57623,"SoundDuration":57623,"Delta":166766061},{"NoteNumber":67,"Velocity":73,"Duration":214285,"SoundDuration":214285,"Delta":166867749},{"NoteNumber":70,"Velocity":73,"Duration":214285,"SoundDuration":214285,"Delta":166867749},{"NoteNumber":74,"Velocity":82,"Duration":214285,"SoundDuration":214285,"Delta":166867749},{"NoteNumber":79,"Velocity":82,"Duration":214285,"SoundDuration":214285,"Delta":166867749},{"NoteNumber":50,"Velocity":64,"Duration":214285,"SoundDuration":214285,"Delta":166867749},{"NoteNumber":58,"Velocity":72,"Duration":214285,"SoundDuration":214285,"Delta":166867749},{"NoteNumber":62,"Velocity":72,"Duration":214285,"SoundDuration":214285,"Delta":166867749},{"NoteNumber":55,"Velocity":64,"Duration":214285,"SoundDuration":214285,"Delta":166867749},{"NoteNumber":57,"Velocity":88,"Duration":136091,"SoundDuration":136091,"Delta":167153464},{"NoteNumber":45,"Velocity":78,"Duration":136091,"SoundDuration":136091,"Delta":167153464},{"NoteNumber":58,"Velocity":93,"Duration":136091,"SoundDuration":136091,"Delta":167289555},{"NoteNumber":46,"Velocity":82,"Duration":136091,"SoundDuration":136091,"Delta":167289555},{"NoteNumber":62,"Velocity":100,"Duration":273613,"SoundDuration":273613,"Delta":167425647},{"NoteNumber":38,"Velocity":90,"Duration":1064103,"SoundDuration":1064103,"Delta":167425647},{"NoteNumber":50,"Velocity":90,"Duration":1064103,"SoundDuration":1064103,"Delta":167425647},{"NoteNumber":74,"Velocity":60,"Duration":74561,"SoundDuration":74561,"Delta":167701560},{"NoteNumber":70,"Velocity":60,"Duration":74561,"SoundDuration":74561,"Delta":167701560},{"NoteNumber":67,"Velocity":54,"Duration":74561,"SoundDuration":74561,"Delta":167701560},{"NoteNumber":58,"Velocity":55,"Duration":74561,"SoundDuration":74561,"Delta":167701560},{"NoteNumber":62,"Velocity":55,"Duration":74561,"SoundDuration":74561,"Delta":167701560},{"NoteNumber":55,"Velocity":49,"Duration":74561,"SoundDuration":74561,"Delta":167701560},{"NoteNumber":75,"Velocity":67,"Duration":74102,"SoundDuration":74102,"Delta":167832947},{"NoteNumber":70,"Velocity":67,"Duration":74102,"SoundDuration":74102,"Delta":167832947},{"NoteNumber":67,"Velocity":60,"Duration":74102,"SoundDuration":74102,"Delta":167832947},{"NoteNumber":58,"Velocity":58,"Duration":74102,"SoundDuration":74102,"Delta":167832947},{"NoteNumber":63,"Velocity":58,"Duration":74102,"SoundDuration":74102,"Delta":167832947},{"NoteNumber":55,"Velocity":52,"Duration":74102,"SoundDuration":74102,"Delta":167832947},{"NoteNumber":67,"Velocity":65,"Duration":73593,"SoundDuration":73593,"Delta":167963572},{"NoteNumber":70,"Velocity":73,"Duration":73593,"SoundDuration":73593,"Delta":167963572},{"NoteNumber":75,"Velocity":73,"Duration":73593,"SoundDuration":73593,"Delta":167963572},{"NoteNumber":63,"Velocity":64,"Duration":73593,"SoundDuration":73593,"Delta":167963572},{"NoteNumber":55,"Velocity":57,"Duration":73593,"SoundDuration":73593,"Delta":167963572},{"NoteNumber":58,"Velocity":64,"Duration":73593,"SoundDuration":73593,"Delta":167963572},{"NoteNumber":67,"Velocity":72,"Duration":73146,"SoundDuration":73146,"Delta":168093255},{"NoteNumber":70,"Velocity":80,"Duration":73146,"SoundDuration":73146,"Delta":168093255},{"NoteNumber":76,"Velocity":80,"Duration":73146,"SoundDuration":73146,"Delta":168093255},{"NoteNumber":58,"Velocity":71,"Duration":73146,"SoundDuration":73146,"Delta":168093255},{"NoteNumber":55,"Velocity":63,"Duration":73146,"SoundDuration":73146,"Delta":168093255},{"NoteNumber":64,"Velocity":71,"Duration":73146,"SoundDuration":73146,"Delta":168093255},{"NoteNumber":67,"Velocity":77,"Duration":200109,"SoundDuration":200109,"Delta":168222196},{"NoteNumber":70,"Velocity":86,"Duration":200109,"SoundDuration":200109,"Delta":168222196},{"NoteNumber":76,"Velocity":86,"Duration":200109,"SoundDuration":200109,"Delta":168222196},{"NoteNumber":58,"Velocity":76,"Duration":200109,"SoundDuration":200109,"Delta":168222196},{"NoteNumber":55,"Velocity":68,"Duration":200109,"SoundDuration":200109,"Delta":168222196},{"NoteNumber":64,"Velocity":76,"Duration":200109,"SoundDuration":200109,"Delta":168222196},{"NoteNumber":55,"Velocity":108,"Duration":275913,"SoundDuration":275913,"Delta":168489751},{"NoteNumber":43,"Velocity":97,"Duration":275913,"SoundDuration":275913,"Delta":168489751},{"NoteNumber":31,"Velocity":97,"Duration":275913,"SoundDuration":275913,"Delta":168489751},{"NoteNumber":77,"Velocity":81,"Duration":58616,"SoundDuration":58616,"Delta":168765664},{"NoteNumber":74,"Velocity":81,"Duration":58616,"SoundDuration":58616,"Delta":168765664},{"NoteNumber":70,"Velocity":81,"Duration":58616,"SoundDuration":58616,"Delta":168765664},{"NoteNumber":65,"Velocity":72,"Duration":58616,"SoundDuration":58616,"Delta":168765664},{"NoteNumber":58,"Velocity":72,"Duration":58616,"SoundDuration":58616,"Delta":168765664},{"NoteNumber":50,"Velocity":64,"Duration":58616,"SoundDuration":58616,"Delta":168765664},{"NoteNumber":53,"Velocity":64,"Duration":58616,"SoundDuration":58616,"Delta":168765664},{"NoteNumber":62,"Velocity":72,"Duration":58616,"SoundDuration":58616,"Delta":168765664},{"NoteNumber":77,"Velocity":81,"Duration":58616,"SoundDuration":58616,"Delta":168869105},{"NoteNumber":74,"Velocity":81,"Duration":58616,"SoundDuration":58616,"Delta":168869105},{"NoteNumber":70,"Velocity":81,"Duration":58616,"SoundDuration":58616,"Delta":168869105},{"NoteNumber":65,"Velocity":72,"Duration":58616,"SoundDuration":58616,"Delta":168869105},{"NoteNumber":58,"Velocity":72,"Duration":58616,"SoundDuration":58616,"Delta":168869105},{"NoteNumber":53,"Velocity":64,"Duration":58616,"SoundDuration":58616,"Delta":168869105},{"NoteNumber":50,"Velocity":64,"Duration":58616,"SoundDuration":58616,"Delta":168869105},{"NoteNumber":62,"Velocity":72,"Duration":58616,"SoundDuration":58616,"Delta":168869105},{"NoteNumber":77,"Velocity":81,"Duration":207852,"SoundDuration":207852,"Delta":168972546},{"NoteNumber":74,"Velocity":81,"Duration":207852,"SoundDuration":207852,"Delta":168972546},{"NoteNumber":70,"Velocity":81,"Duration":207852,"SoundDuration":207852,"Delta":168972546},{"NoteNumber":65,"Velocity":72,"Duration":207852,"SoundDuration":207852,"Delta":168972546},{"NoteNumber":58,"Velocity":72,"Duration":207852,"SoundDuration":207852,"Delta":168972546},{"NoteNumber":53,"Velocity":64,"Duration":207852,"SoundDuration":207852,"Delta":168972546},{"NoteNumber":50,"Velocity":64,"Duration":207852,"SoundDuration":207852,"Delta":168972546},{"NoteNumber":62,"Velocity":72,"Duration":207852,"SoundDuration":207852,"Delta":168972546},{"NoteNumber":57,"Velocity":85,"Duration":138568,"SoundDuration":138568,"Delta":169249683},{"NoteNumber":45,"Velocity":77,"Duration":138568,"SoundDuration":138568,"Delta":169249683},{"NoteNumber":58,"Velocity":91,"Duration":138568,"SoundDuration":138568,"Delta":169388251},{"NoteNumber":46,"Velocity":81,"Duration":138568,"SoundDuration":138568,"Delta":169388251},{"NoteNumber":62,"Velocity":100,"Duration":274735,"SoundDuration":274735,"Delta":169526819},{"NoteNumber":50,"Velocity":89,"Duration":1069441,"SoundDuration":1069441,"Delta":169526819},{"NoteNumber":38,"Velocity":89,"Duration":1069441,"SoundDuration":1069441,"Delta":169526819},{"NoteNumber":72,"Velocity":62,"Duration":74561,"SoundDuration":74561,"Delta":169803854},{"NoteNumber":70,"Velocity":62,"Duration":74561,"SoundDuration":74561,"Delta":169803854},{"NoteNumber":67,"Velocity":55,"Duration":74561,"SoundDuration":74561,"Delta":169803854},{"NoteNumber":58,"Velocity":55,"Duration":74561,"SoundDuration":74561,"Delta":169803854},{"NoteNumber":55,"Velocity":49,"Duration":74561,"SoundDuration":74561,"Delta":169803854},{"NoteNumber":60,"Velocity":55,"Duration":74561,"SoundDuration":74561,"Delta":169803854},{"NoteNumber":73,"Velocity":66,"Duration":74235,"SoundDuration":74235,"Delta":169935433},{"NoteNumber":70,"Velocity":66,"Duration":74235,"SoundDuration":74235,"Delta":169935433},{"NoteNumber":67,"Velocity":59,"Duration":74235,"SoundDuration":74235,"Delta":169935433},{"NoteNumber":58,"Velocity":59,"Duration":74235,"SoundDuration":74235,"Delta":169935433},{"NoteNumber":61,"Velocity":59,"Duration":74235,"SoundDuration":74235,"Delta":169935433},{"NoteNumber":55,"Velocity":53,"Duration":74235,"SoundDuration":74235,"Delta":169935433},{"NoteNumber":73,"Velocity":71,"Duration":73913,"SoundDuration":73913,"Delta":170066247},{"NoteNumber":70,"Velocity":71,"Duration":73913,"SoundDuration":73913,"Delta":170066247},{"NoteNumber":67,"Velocity":63,"Duration":73913,"SoundDuration":73913,"Delta":170066247},{"NoteNumber":61,"Velocity":63,"Duration":73913,"SoundDuration":73913,"Delta":170066247},{"NoteNumber":55,"Velocity":56,"Duration":73913,"SoundDuration":73913,"Delta":170066247},{"NoteNumber":58,"Velocity":63,"Duration":73913,"SoundDuration":73913,"Delta":170066247},{"NoteNumber":74,"Velocity":75,"Duration":73462,"SoundDuration":73462,"Delta":170196494},{"NoteNumber":70,"Velocity":75,"Duration":73462,"SoundDuration":73462,"Delta":170196494},{"NoteNumber":67,"Velocity":67,"Duration":73462,"SoundDuration":73462,"Delta":170196494},{"NoteNumber":58,"Velocity":66,"Duration":73462,"SoundDuration":73462,"Delta":170196494},{"NoteNumber":55,"Velocity":59,"Duration":73462,"SoundDuration":73462,"Delta":170196494},{"NoteNumber":62,"Velocity":66,"Duration":73462,"SoundDuration":73462,"Delta":170196494},{"NoteNumber":74,"Velocity":80,"Duration":202702,"SoundDuration":202702,"Delta":170325991},{"NoteNumber":70,"Velocity":80,"Duration":202702,"SoundDuration":202702,"Delta":170325991},{"NoteNumber":67,"Velocity":72,"Duration":202702,"SoundDuration":202702,"Delta":170325991},{"NoteNumber":58,"Velocity":70,"Duration":202702,"SoundDuration":202702,"Delta":170325991},{"NoteNumber":62,"Velocity":70,"Duration":202702,"SoundDuration":202702,"Delta":170325991},{"NoteNumber":55,"Velocity":63,"Duration":202702,"SoundDuration":202702,"Delta":170325991},{"NoteNumber":55,"Velocity":108,"Duration":276102,"SoundDuration":276102,"Delta":170596261},{"NoteNumber":43,"Velocity":97,"Duration":761024,"SoundDuration":761024,"Delta":170596261},{"NoteNumber":31,"Velocity":97,"Duration":761024,"SoundDuration":761024,"Delta":170596261},{"NoteNumber":75,"Velocity":84,"Duration":58215,"SoundDuration":58215,"Delta":170874684},{"NoteNumber":70,"Velocity":84,"Duration":58215,"SoundDuration":58215,"Delta":170874684},{"NoteNumber":67,"Velocity":75,"Duration":58215,"SoundDuration":58215,"Delta":170874684},{"NoteNumber":58,"Velocity":73,"Duration":58215,"SoundDuration":58215,"Delta":170874684},{"NoteNumber":55,"Velocity":65,"Duration":58215,"SoundDuration":58215,"Delta":170874684},{"NoteNumber":63,"Velocity":73,"Duration":58215,"SoundDuration":58215,"Delta":170874684},{"NoteNumber":75,"Velocity":84,"Duration":58215,"SoundDuration":58215,"Delta":170977416},{"NoteNumber":70,"Velocity":84,"Duration":58215,"SoundDuration":58215,"Delta":170977416},{"NoteNumber":67,"Velocity":75,"Duration":58215,"SoundDuration":58215,"Delta":170977416},{"NoteNumber":63,"Velocity":73,"Duration":58215,"SoundDuration":58215,"Delta":170977416},{"NoteNumber":55,"Velocity":65,"Duration":58215,"SoundDuration":58215,"Delta":170977416},{"NoteNumber":58,"Velocity":73,"Duration":58215,"SoundDuration":58215,"Delta":170977416},{"NoteNumber":67,"Velocity":75,"Duration":103926,"SoundDuration":103926,"Delta":171080149},{"NoteNumber":70,"Velocity":84,"Duration":103926,"SoundDuration":103926,"Delta":171080149},{"NoteNumber":75,"Velocity":84,"Duration":103926,"SoundDuration":103926,"Delta":171080149},{"NoteNumber":58,"Velocity":73,"Duration":103926,"SoundDuration":103926,"Delta":171080149},{"NoteNumber":55,"Velocity":65,"Duration":103926,"SoundDuration":103926,"Delta":171080149},{"NoteNumber":63,"Velocity":73,"Duration":103926,"SoundDuration":103926,"Delta":171080149},{"NoteNumber":63,"Velocity":99,"Duration":103926,"SoundDuration":103926,"Delta":171357286},{"NoteNumber":51,"Velocity":89,"Duration":103926,"SoundDuration":103926,"Delta":171357286},{"NoteNumber":55,"Velocity":108,"Duration":274827,"SoundDuration":274827,"Delta":171634422},{"NoteNumber":43,"Velocity":96,"Duration":766811,"SoundDuration":766811,"Delta":171634422},{"NoteNumber":31,"Velocity":96,"Duration":766811,"SoundDuration":766811,"Delta":171634422},{"NoteNumber":74,"Velocity":83,"Duration":59854,"SoundDuration":59854,"Delta":171911559},{"NoteNumber":67,"Velocity":83,"Duration":59854,"SoundDuration":59854,"Delta":171911559},{"NoteNumber":62,"Velocity":74,"Duration":59854,"SoundDuration":59854,"Delta":171911559},{"NoteNumber":52,"Velocity":64,"Duration":59854,"SoundDuration":59854,"Delta":171911559},{"NoteNumber":58,"Velocity":72,"Duration":59854,"SoundDuration":59854,"Delta":171911559},{"NoteNumber":55,"Velocity":72,"Duration":59854,"SoundDuration":59854,"Delta":171911559},{"NoteNumber":62,"Velocity":74,"Duration":59854,"SoundDuration":59854,"Delta":172017185},{"NoteNumber":67,"Velocity":83,"Duration":59854,"SoundDuration":59854,"Delta":172017185},{"NoteNumber":74,"Velocity":83,"Duration":59854,"SoundDuration":59854,"Delta":172017185},{"NoteNumber":55,"Velocity":72,"Duration":59854,"SoundDuration":59854,"Delta":172017185},{"NoteNumber":58,"Velocity":72,"Duration":59854,"SoundDuration":59854,"Delta":172017185},{"NoteNumber":52,"Velocity":64,"Duration":59854,"SoundDuration":59854,"Delta":172017185},{"NoteNumber":62,"Velocity":74,"Duration":104408,"SoundDuration":104408,"Delta":172122811},{"NoteNumber":67,"Velocity":83,"Duration":104408,"SoundDuration":104408,"Delta":172122811},{"NoteNumber":74,"Velocity":83,"Duration":104408,"SoundDuration":104408,"Delta":172122811},{"NoteNumber":55,"Velocity":72,"Duration":104408,"SoundDuration":104408,"Delta":172122811},{"NoteNumber":52,"Velocity":64,"Duration":104408,"SoundDuration":104408,"Delta":172122811},{"NoteNumber":58,"Velocity":72,"Duration":104408,"SoundDuration":104408,"Delta":172122811},{"NoteNumber":64,"Velocity":99,"Duration":104408,"SoundDuration":104408,"Delta":172401234},{"NoteNumber":52,"Velocity":89,"Duration":104408,"SoundDuration":104408,"Delta":172401234},{"NoteNumber":55,"Velocity":108,"Duration":276102,"SoundDuration":276102,"Delta":172679656},{"NoteNumber":31,"Velocity":97,"Duration":768309,"SoundDuration":768309,"Delta":172679656},{"NoteNumber":43,"Velocity":97,"Duration":768309,"SoundDuration":768309,"Delta":172679656},{"NoteNumber":73,"Velocity":81,"Duration":60279,"SoundDuration":60279,"Delta":172958079},{"NoteNumber":67,"Velocity":81,"Duration":60279,"SoundDuration":60279,"Delta":172958079},{"NoteNumber":61,"Velocity":72,"Duration":60279,"SoundDuration":60279,"Delta":172958079},{"NoteNumber":58,"Velocity":72,"Duration":60279,"SoundDuration":60279,"Delta":172958079},{"NoteNumber":55,"Velocity":72,"Duration":60279,"SoundDuration":60279,"Delta":172958079},{"NoteNumber":53,"Velocity":64,"Duration":60279,"SoundDuration":60279,"Delta":172958079},{"NoteNumber":61,"Velocity":72,"Duration":60279,"SoundDuration":60279,"Delta":173064454},{"NoteNumber":67,"Velocity":81,"Duration":60279,"SoundDuration":60279,"Delta":173064454},{"NoteNumber":73,"Velocity":81,"Duration":60279,"SoundDuration":60279,"Delta":173064454},{"NoteNumber":55,"Velocity":72,"Duration":60279,"SoundDuration":60279,"Delta":173064454},{"NoteNumber":58,"Velocity":72,"Duration":60279,"SoundDuration":60279,"Delta":173064454},{"NoteNumber":53,"Velocity":64,"Duration":60279,"SoundDuration":60279,"Delta":173064454},{"NoteNumber":61,"Velocity":72,"Duration":103926,"SoundDuration":103926,"Delta":173170830},{"NoteNumber":67,"Velocity":81,"Duration":103926,"SoundDuration":103926,"Delta":173170830},{"NoteNumber":73,"Velocity":81,"Duration":103926,"SoundDuration":103926,"Delta":173170830},{"NoteNumber":53,"Velocity":64,"Duration":103926,"SoundDuration":103926,"Delta":173170830},{"NoteNumber":58,"Velocity":72,"Duration":103926,"SoundDuration":103926,"Delta":173170830},{"NoteNumber":55,"Velocity":72,"Duration":103926,"SoundDuration":103926,"Delta":173170830},{"NoteNumber":65,"Velocity":99,"Duration":98253,"SoundDuration":98253,"Delta":173447966},{"NoteNumber":53,"Velocity":89,"Duration":98253,"SoundDuration":98253,"Delta":173447966},{"NoteNumber":55,"Velocity":99,"Duration":103686,"SoundDuration":103686,"Delta":173709975},{"NoteNumber":31,"Velocity":89,"Duration":103686,"SoundDuration":103686,"Delta":173709975},{"NoteNumber":43,"Velocity":89,"Duration":103686,"SoundDuration":103686,"Delta":173709975},{"NoteNumber":60,"Velocity":77,"Duration":102533,"SoundDuration":102533,"Delta":173986472},{"NoteNumber":69,"Velocity":86,"Duration":102533,"SoundDuration":102533,"Delta":173986472},{"NoteNumber":72,"Velocity":86,"Duration":102533,"SoundDuration":102533,"Delta":173986472},{"NoteNumber":66,"Velocity":86,"Duration":102533,"SoundDuration":102533,"Delta":173986472},{"NoteNumber":54,"Velocity":76,"Duration":102533,"SoundDuration":102533,"Delta":173986472},{"NoteNumber":55,"Velocity":99,"Duration":102533,"SoundDuration":102533,"Delta":174259896},{"NoteNumber":43,"Velocity":89,"Duration":102533,"SoundDuration":102533,"Delta":174259896},{"NoteNumber":31,"Velocity":89,"Duration":102533,"SoundDuration":102533,"Delta":174259896},{"NoteNumber":59,"Velocity":75,"Duration":102533,"SoundDuration":102533,"Delta":174533319},{"NoteNumber":65,"Velocity":75,"Duration":102533,"SoundDuration":102533,"Delta":174533319},{"NoteNumber":71,"Velocity":84,"Duration":102533,"SoundDuration":102533,"Delta":174533319},{"NoteNumber":67,"Velocity":84,"Duration":102533,"SoundDuration":102533,"Delta":174533319},{"NoteNumber":55,"Velocity":76,"Duration":102533,"SoundDuration":102533,"Delta":174533319},{"NoteNumber":55,"Velocity":108,"Duration":277136,"SoundDuration":277136,"Delta":174806743},{"NoteNumber":43,"Velocity":97,"Duration":277136,"SoundDuration":277136,"Delta":174806743},{"NoteNumber":31,"Velocity":97,"Duration":277136,"SoundDuration":277136,"Delta":174806743},{"NoteNumber":72,"Velocity":83,"Duration":57043,"SoundDuration":57043,"Delta":175083879},{"NoteNumber":67,"Velocity":83,"Duration":57043,"SoundDuration":57043,"Delta":175083879},{"NoteNumber":63,"Velocity":74,"Duration":57043,"SoundDuration":57043,"Delta":175083879},{"NoteNumber":60,"Velocity":74,"Duration":57043,"SoundDuration":57043,"Delta":175083879},{"NoteNumber":55,"Velocity":72,"Duration":57043,"SoundDuration":57043,"Delta":175083879},{"NoteNumber":51,"Velocity":72,"Duration":57043,"SoundDuration":57043,"Delta":175083879},{"NoteNumber":72,"Velocity":83,"Duration":57043,"SoundDuration":57043,"Delta":175184544},{"NoteNumber":67,"Velocity":83,"Duration":57043,"SoundDuration":57043,"Delta":175184544},{"NoteNumber":63,"Velocity":74,"Duration":57043,"SoundDuration":57043,"Delta":175184544},{"NoteNumber":60,"Velocity":74,"Duration":57043,"SoundDuration":57043,"Delta":175184544},{"NoteNumber":55,"Velocity":72,"Duration":57043,"SoundDuration":57043,"Delta":175184544},{"NoteNumber":51,"Velocity":72,"Duration":57043,"SoundDuration":57043,"Delta":175184544},{"NoteNumber":60,"Velocity":74,"Duration":207852,"SoundDuration":207852,"Delta":175285208},{"NoteNumber":63,"Velocity":74,"Duration":207852,"SoundDuration":207852,"Delta":175285208},{"NoteNumber":67,"Velocity":83,"Duration":207852,"SoundDuration":207852,"Delta":175285208},{"NoteNumber":72,"Velocity":83,"Duration":207852,"SoundDuration":207852,"Delta":175285208},{"NoteNumber":51,"Velocity":72,"Duration":207852,"SoundDuration":207852,"Delta":175285208},{"NoteNumber":55,"Velocity":72,"Duration":207852,"SoundDuration":207852,"Delta":175285208},{"NoteNumber":59,"Velocity":86,"Duration":135501,"SoundDuration":135501,"Delta":175562345},{"NoteNumber":47,"Velocity":78,"Duration":135501,"SoundDuration":135501,"Delta":175562345},{"NoteNumber":60,"Velocity":92,"Duration":135501,"SoundDuration":135501,"Delta":175697846},{"NoteNumber":48,"Velocity":82,"Duration":135501,"SoundDuration":135501,"Delta":175697846},{"NoteNumber":63,"Velocity":101,"Duration":275913,"SoundDuration":275913,"Delta":175833347},{"NoteNumber":51,"Velocity":90,"Duration":275913,"SoundDuration":275913,"Delta":175833347},{"NoteNumber":39,"Velocity":90,"Duration":1068848,"SoundDuration":1068848,"Delta":175833347},{"NoteNumber":67,"Velocity":73,"Duration":75221,"SoundDuration":75221,"Delta":176109260},{"NoteNumber":63,"Velocity":73,"Duration":75221,"SoundDuration":75221,"Delta":176109260},{"NoteNumber":60,"Velocity":65,"Duration":75221,"SoundDuration":75221,"Delta":176109260},{"NoteNumber":51,"Velocity":64,"Duration":75221,"SoundDuration":75221,"Delta":176109260},{"NoteNumber":55,"Velocity":64,"Duration":75221,"SoundDuration":75221,"Delta":176109260},{"NoteNumber":68,"Velocity":78,"Duration":74754,"SoundDuration":74754,"Delta":176241808},{"NoteNumber":63,"Velocity":78,"Duration":74754,"SoundDuration":74754,"Delta":176241808},{"NoteNumber":60,"Velocity":70,"Duration":74754,"SoundDuration":74754,"Delta":176241808},{"NoteNumber":56,"Velocity":69,"Duration":74754,"SoundDuration":74754,"Delta":176241808},{"NoteNumber":51,"Velocity":69,"Duration":74754,"SoundDuration":74754,"Delta":176241808},{"NoteNumber":60,"Velocity":73,"Duration":74102,"SoundDuration":74102,"Delta":176373389},{"NoteNumber":63,"Velocity":82,"Duration":74102,"SoundDuration":74102,"Delta":176373389},{"NoteNumber":68,"Velocity":82,"Duration":74102,"SoundDuration":74102,"Delta":176373389},{"NoteNumber":51,"Velocity":72,"Duration":74102,"SoundDuration":74102,"Delta":176373389},{"NoteNumber":56,"Velocity":72,"Duration":74102,"SoundDuration":74102,"Delta":176373389},{"NoteNumber":60,"Velocity":78,"Duration":73462,"SoundDuration":73462,"Delta":176503825},{"NoteNumber":63,"Velocity":87,"Duration":73462,"SoundDuration":73462,"Delta":176503825},{"NoteNumber":69,"Velocity":87,"Duration":73462,"SoundDuration":73462,"Delta":176503825},{"NoteNumber":51,"Velocity":77,"Duration":73462,"SoundDuration":73462,"Delta":176503825},{"NoteNumber":57,"Velocity":77,"Duration":73462,"SoundDuration":73462,"Delta":176503825},{"NoteNumber":60,"Velocity":81,"Duration":100896,"SoundDuration":100896,"Delta":176633137},{"NoteNumber":63,"Velocity":90,"Duration":100896,"SoundDuration":100896,"Delta":176633137},{"NoteNumber":69,"Velocity":90,"Duration":100896,"SoundDuration":100896,"Delta":176633137},{"NoteNumber":57,"Velocity":81,"Duration":100896,"SoundDuration":100896,"Delta":176633137},{"NoteNumber":51,"Velocity":81,"Duration":100896,"SoundDuration":100896,"Delta":176633137},{"NoteNumber":55,"Velocity":108,"Duration":277136,"SoundDuration":277136,"Delta":176902196},{"NoteNumber":31,"Velocity":97,"Duration":277136,"SoundDuration":277136,"Delta":176902196},{"NoteNumber":43,"Velocity":97,"Duration":277136,"SoundDuration":277136,"Delta":176902196},{"NoteNumber":70,"Velocity":81,"Duration":57819,"SoundDuration":57819,"Delta":177179332},{"NoteNumber":63,"Velocity":81,"Duration":57819,"SoundDuration":57819,"Delta":177179332},{"NoteNumber":58,"Velocity":72,"Duration":57819,"SoundDuration":57819,"Delta":177179332},{"NoteNumber":51,"Velocity":72,"Duration":57819,"SoundDuration":57819,"Delta":177179332},{"NoteNumber":70,"Velocity":81,"Duration":57819,"SoundDuration":57819,"Delta":177281366},{"NoteNumber":63,"Velocity":81,"Duration":57819,"SoundDuration":57819,"Delta":177281366},{"NoteNumber":58,"Velocity":72,"Duration":57819,"SoundDuration":57819,"Delta":177281366},{"NoteNumber":51,"Velocity":72,"Duration":57819,"SoundDuration":57819,"Delta":177281366},{"NoteNumber":70,"Velocity":81,"Duration":207852,"SoundDuration":207852,"Delta":177383400},{"NoteNumber":63,"Velocity":81,"Duration":207852,"SoundDuration":207852,"Delta":177383400},{"NoteNumber":58,"Velocity":72,"Duration":207852,"SoundDuration":207852,"Delta":177383400},{"NoteNumber":51,"Velocity":72,"Duration":207852,"SoundDuration":207852,"Delta":177383400},{"NoteNumber":57,"Velocity":87,"Duration":135501,"SoundDuration":135501,"Delta":177660537},{"NoteNumber":45,"Velocity":78,"Duration":135501,"SoundDuration":135501,"Delta":177660537},{"NoteNumber":58,"Velocity":93,"Duration":135501,"SoundDuration":135501,"Delta":177796038},{"NoteNumber":46,"Velocity":82,"Duration":135501,"SoundDuration":135501,"Delta":177796038},{"NoteNumber":63,"Velocity":101,"Duration":275913,"SoundDuration":275913,"Delta":177931539},{"NoteNumber":39,"Velocity":90,"Duration":1070096,"SoundDuration":1070096,"Delta":177931539},{"NoteNumber":51,"Velocity":90,"Duration":275913,"SoundDuration":275913,"Delta":177931539},{"NoteNumber":65,"Velocity":76,"Duration":76958,"SoundDuration":76958,"Delta":178207452},{"NoteNumber":63,"Velocity":76,"Duration":76958,"SoundDuration":76958,"Delta":178207452},{"NoteNumber":60,"Velocity":68,"Duration":76958,"SoundDuration":76958,"Delta":178207452},{"NoteNumber":51,"Velocity":68,"Duration":76958,"SoundDuration":76958,"Delta":178207452},{"NoteNumber":53,"Velocity":68,"Duration":76958,"SoundDuration":76958,"Delta":178207452},{"NoteNumber":66,"Velocity":79,"Duration":74427,"SoundDuration":74427,"Delta":178341738},{"NoteNumber":63,"Velocity":79,"Duration":74427,"SoundDuration":74427,"Delta":178341738},{"NoteNumber":60,"Velocity":71,"Duration":74427,"SoundDuration":74427,"Delta":178341738},{"NoteNumber":51,"Velocity":72,"Duration":74427,"SoundDuration":74427,"Delta":178341738},{"NoteNumber":54,"Velocity":72,"Duration":74427,"SoundDuration":74427,"Delta":178341738},{"NoteNumber":66,"Velocity":85,"Duration":73275,"SoundDuration":73275,"Delta":178472744},{"NoteNumber":63,"Velocity":85,"Duration":73275,"SoundDuration":73275,"Delta":178472744},{"NoteNumber":60,"Velocity":76,"Duration":73275,"SoundDuration":73275,"Delta":178472744},{"NoteNumber":51,"Velocity":76,"Duration":73275,"SoundDuration":73275,"Delta":178472744},{"NoteNumber":54,"Velocity":76,"Duration":73275,"SoundDuration":73275,"Delta":178472744},{"NoteNumber":67,"Velocity":89,"Duration":73275,"SoundDuration":73275,"Delta":178602055},{"NoteNumber":63,"Velocity":89,"Duration":73275,"SoundDuration":73275,"Delta":178602055},{"NoteNumber":60,"Velocity":79,"Duration":73275,"SoundDuration":73275,"Delta":178602055},{"NoteNumber":55,"Velocity":79,"Duration":73275,"SoundDuration":73275,"Delta":178602055},{"NoteNumber":51,"Velocity":79,"Duration":73275,"SoundDuration":73275,"Delta":178602055},{"NoteNumber":67,"Velocity":94,"Duration":101351,"SoundDuration":101351,"Delta":178731365},{"NoteNumber":63,"Velocity":94,"Duration":101351,"SoundDuration":101351,"Delta":178731365},{"NoteNumber":60,"Velocity":84,"Duration":101351,"SoundDuration":101351,"Delta":178731365},{"NoteNumber":55,"Velocity":84,"Duration":101351,"SoundDuration":101351,"Delta":178731365},{"NoteNumber":51,"Velocity":84,"Duration":101351,"SoundDuration":101351,"Delta":178731365},{"NoteNumber":55,"Velocity":102,"Duration":763157,"SoundDuration":763157,"Delta":179001635},{"NoteNumber":43,"Velocity":88,"Duration":763157,"SoundDuration":763157,"Delta":179001635},{"NoteNumber":31,"Velocity":88,"Duration":763157,"SoundDuration":763157,"Delta":179001635},{"NoteNumber":68,"Velocity":81,"Duration":77849,"SoundDuration":77849,"Delta":179278772},{"NoteNumber":60,"Velocity":72,"Duration":77849,"SoundDuration":77849,"Delta":179278772},{"NoteNumber":63,"Velocity":81,"Duration":77849,"SoundDuration":77849,"Delta":179278772},{"NoteNumber":56,"Velocity":72,"Duration":77849,"SoundDuration":77849,"Delta":179278772},{"NoteNumber":51,"Velocity":72,"Duration":77849,"SoundDuration":77849,"Delta":179278772},{"NoteNumber":60,"Velocity":72,"Duration":77849,"SoundDuration":77849,"Delta":179382571},{"NoteNumber":63,"Velocity":81,"Duration":77849,"SoundDuration":77849,"Delta":179382571},{"NoteNumber":68,"Velocity":81,"Duration":77849,"SoundDuration":77849,"Delta":179382571},{"NoteNumber":56,"Velocity":72,"Duration":77849,"SoundDuration":77849,"Delta":179382571},{"NoteNumber":51,"Velocity":72,"Duration":77849,"SoundDuration":77849,"Delta":179382571},{"NoteNumber":60,"Velocity":81,"Duration":278422,"SoundDuration":278422,"Delta":179486370},{"NoteNumber":63,"Velocity":81,"Duration":278422,"SoundDuration":278422,"Delta":179486370},{"NoteNumber":68,"Velocity":81,"Duration":278422,"SoundDuration":278422,"Delta":179486370},{"NoteNumber":56,"Velocity":72,"Duration":278422,"SoundDuration":278422,"Delta":179486370},{"NoteNumber":51,"Velocity":72,"Duration":278422,"SoundDuration":278422,"Delta":179486370},{"NoteNumber":68,"Velocity":90,"Duration":78886,"SoundDuration":78886,"Delta":179764792},{"NoteNumber":56,"Velocity":81,"Duration":78886,"SoundDuration":78886,"Delta":179764792},{"NoteNumber":44,"Velocity":81,"Duration":78886,"SoundDuration":78886,"Delta":179764792},{"NoteNumber":55,"Velocity":101,"Duration":771648,"SoundDuration":771648,"Delta":180043215},{"NoteNumber":43,"Velocity":88,"Duration":771648,"SoundDuration":771648,"Delta":180043215},{"NoteNumber":31,"Velocity":88,"Duration":771648,"SoundDuration":771648,"Delta":180043215},{"NoteNumber":60,"Velocity":72,"Duration":61589,"SoundDuration":61589,"Delta":180320351},{"NoteNumber":63,"Velocity":81,"Duration":61589,"SoundDuration":61589,"Delta":180320351},{"NoteNumber":67,"Velocity":81,"Duration":61589,"SoundDuration":61589,"Delta":180320351},{"NoteNumber":51,"Velocity":72,"Duration":61589,"SoundDuration":61589,"Delta":180320351},{"NoteNumber":57,"Velocity":72,"Duration":61589,"SoundDuration":61589,"Delta":180320351},{"NoteNumber":60,"Velocity":72,"Duration":61589,"SoundDuration":61589,"Delta":180429039},{"NoteNumber":63,"Velocity":81,"Duration":61589,"SoundDuration":61589,"Delta":180429039},{"NoteNumber":67,"Velocity":81,"Duration":61589,"SoundDuration":61589,"Delta":180429039},{"NoteNumber":51,"Velocity":72,"Duration":61589,"SoundDuration":61589,"Delta":180429039},{"NoteNumber":57,"Velocity":72,"Duration":61589,"SoundDuration":61589,"Delta":180429039},{"NoteNumber":60,"Velocity":72,"Duration":207852,"SoundDuration":207852,"Delta":180537727},{"NoteNumber":63,"Velocity":81,"Duration":207852,"SoundDuration":207852,"Delta":180537727},{"NoteNumber":67,"Velocity":81,"Duration":207852,"SoundDuration":207852,"Delta":180537727},{"NoteNumber":51,"Velocity":72,"Duration":207852,"SoundDuration":207852,"Delta":180537727},{"NoteNumber":57,"Velocity":72,"Duration":207852,"SoundDuration":207852,"Delta":180537727},{"NoteNumber":69,"Velocity":90,"Duration":78522,"SoundDuration":78522,"Delta":180814863},{"NoteNumber":57,"Velocity":81,"Duration":78522,"SoundDuration":78522,"Delta":180814863},{"NoteNumber":45,"Velocity":81,"Duration":78522,"SoundDuration":78522,"Delta":180814863},{"NoteNumber":51,"Velocity":102,"Duration":336991,"SoundDuration":336991,"Delta":181092000},{"NoteNumber":27,"Velocity":88,"Duration":764302,"SoundDuration":764302,"Delta":181092000},{"NoteNumber":39,"Velocity":88,"Duration":764302,"SoundDuration":764302,"Delta":181092000},{"NoteNumber":66,"Velocity":81,"Duration":59854,"SoundDuration":59854,"Delta":181369136},{"NoteNumber":60,"Velocity":81,"Duration":59854,"SoundDuration":59854,"Delta":181369136},{"NoteNumber":63,"Velocity":81,"Duration":59854,"SoundDuration":59854,"Delta":181369136},{"NoteNumber":57,"Velocity":72,"Duration":59854,"SoundDuration":59854,"Delta":181369136},{"NoteNumber":51,"Velocity":72,"Duration":165481,"SoundDuration":165481,"Delta":181369136},{"NoteNumber":60,"Velocity":81,"Duration":59854,"SoundDuration":59854,"Delta":181474763},{"NoteNumber":63,"Velocity":81,"Duration":59854,"SoundDuration":59854,"Delta":181474763},{"NoteNumber":66,"Velocity":81,"Duration":59854,"SoundDuration":59854,"Delta":181474763},{"NoteNumber":57,"Velocity":72,"Duration":59854,"SoundDuration":59854,"Delta":181474763},{"NoteNumber":51,"Velocity":72,"Duration":312560,"SoundDuration":312560,"Delta":181474763},{"NoteNumber":60,"Velocity":81,"Duration":206934,"SoundDuration":206934,"Delta":181580389},{"NoteNumber":63,"Velocity":81,"Duration":206934,"SoundDuration":206934,"Delta":181580389},{"NoteNumber":66,"Velocity":81,"Duration":206934,"SoundDuration":206934,"Delta":181580389},{"NoteNumber":57,"Velocity":72,"Duration":206934,"SoundDuration":206934,"Delta":181580389},{"NoteNumber":51,"Velocity":72,"Duration":275913,"SoundDuration":275913,"Delta":181580389},{"NoteNumber":70,"Velocity":90,"Duration":78175,"SoundDuration":78175,"Delta":181856302},{"NoteNumber":46,"Velocity":81,"Duration":78175,"SoundDuration":78175,"Delta":181856302},{"NoteNumber":58,"Velocity":81,"Duration":78175,"SoundDuration":78175,"Delta":181856302},{"NoteNumber":50,"Velocity":101,"Duration":337059,"SoundDuration":337059,"Delta":182132215},{"NoteNumber":26,"Velocity":88,"Duration":768861,"SoundDuration":768861,"Delta":182132215},{"NoteNumber":38,"Velocity":88,"Duration":768861,"SoundDuration":768861,"Delta":182132215},{"NoteNumber":60,"Velocity":79,"Duration":61146,"SoundDuration":61146,"Delta":182408128},{"NoteNumber":62,"Velocity":79,"Duration":61146,"SoundDuration":61146,"Delta":182408128},{"NoteNumber":66,"Velocity":79,"Duration":61146,"SoundDuration":61146,"Delta":182408128},{"NoteNumber":58,"Velocity":72,"Duration":61146,"SoundDuration":61146,"Delta":182408128},{"NoteNumber":50,"Velocity":72,"Duration":169052,"SoundDuration":169052,"Delta":182408128},{"NoteNumber":60,"Velocity":79,"Duration":61146,"SoundDuration":61146,"Delta":182516034},{"NoteNumber":62,"Velocity":79,"Duration":61146,"SoundDuration":61146,"Delta":182516034},{"NoteNumber":66,"Velocity":79,"Duration":61146,"SoundDuration":61146,"Delta":182516034},{"NoteNumber":50,"Velocity":72,"Duration":315758,"SoundDuration":315758,"Delta":182516034},{"NoteNumber":58,"Velocity":72,"Duration":61146,"SoundDuration":61146,"Delta":182516034},{"NoteNumber":60,"Velocity":79,"Duration":207852,"SoundDuration":207852,"Delta":182623940},{"NoteNumber":62,"Velocity":79,"Duration":207852,"SoundDuration":207852,"Delta":182623940},{"NoteNumber":66,"Velocity":79,"Duration":207852,"SoundDuration":207852,"Delta":182623940},{"NoteNumber":50,"Velocity":72,"Duration":277136,"SoundDuration":277136,"Delta":182623940},{"NoteNumber":58,"Velocity":72,"Duration":207852,"SoundDuration":207852,"Delta":182623940},{"NoteNumber":62,"Velocity":90,"Duration":81872,"SoundDuration":81872,"Delta":182901076},{"NoteNumber":74,"Velocity":90,"Duration":81872,"SoundDuration":81872,"Delta":182901076},{"NoteNumber":50,"Velocity":81,"Duration":81872,"SoundDuration":81872,"Delta":182901076},{"NoteNumber":55,"Velocity":90,"Duration":139211,"SoundDuration":139211,"Delta":183190038},{"NoteNumber":31,"Velocity":81,"Duration":139211,"SoundDuration":139211,"Delta":183190038},{"NoteNumber":43,"Velocity":81,"Duration":139211,"SoundDuration":139211,"Delta":183190038},{"NoteNumber":55,"Velocity":65,"Duration":59854,"SoundDuration":59854,"Delta":183468460},{"NoteNumber":58,"Velocity":73,"Duration":59854,"SoundDuration":59854,"Delta":183468460},{"NoteNumber":67,"Velocity":73,"Duration":59854,"SoundDuration":59854,"Delta":183468460},{"NoteNumber":43,"Velocity":64,"Duration":59854,"SoundDuration":59854,"Delta":183468460},{"NoteNumber":50,"Velocity":64,"Duration":59854,"SoundDuration":59854,"Delta":183468460},{"NoteNumber":55,"Velocity":65,"Duration":59854,"SoundDuration":59854,"Delta":183574087},{"NoteNumber":58,"Velocity":73,"Duration":59854,"SoundDuration":59854,"Delta":183574087},{"NoteNumber":67,"Velocity":73,"Duration":59854,"SoundDuration":59854,"Delta":183574087},{"NoteNumber":43,"Velocity":64,"Duration":59854,"SoundDuration":59854,"Delta":183574087},{"NoteNumber":50,"Velocity":64,"Duration":59854,"SoundDuration":59854,"Delta":183574087},{"NoteNumber":55,"Velocity":65,"Duration":208816,"SoundDuration":208816,"Delta":183679713},{"NoteNumber":58,"Velocity":73,"Duration":208816,"SoundDuration":208816,"Delta":183679713},{"NoteNumber":67,"Velocity":73,"Duration":208816,"SoundDuration":208816,"Delta":183679713},{"NoteNumber":43,"Velocity":64,"Duration":208816,"SoundDuration":208816,"Delta":183679713},{"NoteNumber":50,"Velocity":64,"Duration":208816,"SoundDuration":208816,"Delta":183679713},{"NoteNumber":55,"Velocity":62,"Duration":67723,"SoundDuration":67723,"Delta":183958135},{"NoteNumber":61,"Velocity":69,"Duration":67723,"SoundDuration":67723,"Delta":183958135},{"NoteNumber":63,"Velocity":69,"Duration":67723,"SoundDuration":67723,"Delta":183958135},{"NoteNumber":51,"Velocity":62,"Duration":67723,"SoundDuration":67723,"Delta":183958135},{"NoteNumber":46,"Velocity":62,"Duration":67723,"SoundDuration":67723,"Delta":183958135},{"NoteNumber":55,"Velocity":62,"Duration":67723,"SoundDuration":67723,"Delta":184077648},{"NoteNumber":61,"Velocity":69,"Duration":67723,"SoundDuration":67723,"Delta":184077648},{"NoteNumber":63,"Velocity":69,"Duration":67723,"SoundDuration":67723,"Delta":184077648},{"NoteNumber":51,"Velocity":62,"Duration":67723,"SoundDuration":67723,"Delta":184077648},{"NoteNumber":46,"Velocity":62,"Duration":67723,"SoundDuration":67723,"Delta":184077648},{"NoteNumber":55,"Velocity":62,"Duration":208816,"SoundDuration":208816,"Delta":184197160},{"NoteNumber":61,"Velocity":69,"Duration":208816,"SoundDuration":208816,"Delta":184197160},{"NoteNumber":63,"Velocity":69,"Duration":208816,"SoundDuration":208816,"Delta":184197160},{"NoteNumber":51,"Velocity":62,"Duration":208816,"SoundDuration":208816,"Delta":184197160},{"NoteNumber":46,"Velocity":62,"Duration":208816,"SoundDuration":208816,"Delta":184197160},{"NoteNumber":55,"Velocity":60,"Duration":78886,"SoundDuration":78886,"Delta":184475583},{"NoteNumber":61,"Velocity":67,"Duration":78886,"SoundDuration":78886,"Delta":184475583},{"NoteNumber":64,"Velocity":67,"Duration":78886,"SoundDuration":78886,"Delta":184475583},{"NoteNumber":34,"Velocity":60,"Duration":78886,"SoundDuration":78886,"Delta":184475583},{"NoteNumber":46,"Velocity":60,"Duration":78886,"SoundDuration":78886,"Delta":184475583},{"NoteNumber":50,"Velocity":64,"Duration":104408,"SoundDuration":104408,"Delta":184754005},{"NoteNumber":38,"Velocity":64,"Duration":104408,"SoundDuration":104408,"Delta":184754005},{"NoteNumber":54,"Velocity":57,"Duration":106837,"SoundDuration":106837,"Delta":185032428},{"NoteNumber":66,"Velocity":64,"Duration":106837,"SoundDuration":106837,"Delta":185032428},{"NoteNumber":60,"Velocity":57,"Duration":106837,"SoundDuration":106837,"Delta":185032428},{"NoteNumber":62,"Velocity":64,"Duration":106837,"SoundDuration":106837,"Delta":185032428},{"NoteNumber":45,"Velocity":57,"Duration":106837,"SoundDuration":106837,"Delta":185032428},{"NoteNumber":33,"Velocity":57,"Duration":106837,"SoundDuration":106837,"Delta":185032428},{"NoteNumber":43,"Velocity":64,"Duration":139211,"SoundDuration":139211,"Delta":185317328},{"NoteNumber":31,"Velocity":64,"Duration":139211,"SoundDuration":139211,"Delta":185317328},{"NoteNumber":58,"Velocity":62,"Duration":61146,"SoundDuration":61146,"Delta":185595751},{"NoteNumber":67,"Velocity":62,"Duration":61146,"SoundDuration":61146,"Delta":185595751},{"NoteNumber":55,"Velocity":54,"Duration":61146,"SoundDuration":61146,"Delta":185595751},{"NoteNumber":50,"Velocity":54,"Duration":61146,"SoundDuration":61146,"Delta":185595751},{"NoteNumber":58,"Velocity":62,"Duration":61146,"SoundDuration":61146,"Delta":185703657},{"NoteNumber":67,"Velocity":62,"Duration":61146,"SoundDuration":61146,"Delta":185703657},{"NoteNumber":50,"Velocity":54,"Duration":61146,"SoundDuration":61146,"Delta":185703657},{"NoteNumber":55,"Velocity":54,"Duration":61146,"SoundDuration":61146,"Delta":185703657},{"NoteNumber":58,"Velocity":62,"Duration":206934,"SoundDuration":206934,"Delta":185811563},{"NoteNumber":67,"Velocity":62,"Duration":206934,"SoundDuration":206934,"Delta":185811563},{"NoteNumber":50,"Velocity":54,"Duration":206934,"SoundDuration":206934,"Delta":185811563},{"NoteNumber":55,"Velocity":54,"Duration":205785,"SoundDuration":205785,"Delta":185811563},{"NoteNumber":55,"Velocity":57,"Duration":69100,"SoundDuration":69100,"Delta":186087476},{"NoteNumber":61,"Velocity":57,"Duration":69100,"SoundDuration":69100,"Delta":186087476},{"NoteNumber":63,"Velocity":57,"Duration":69100,"SoundDuration":69100,"Delta":186087476},{"NoteNumber":46,"Velocity":51,"Duration":69100,"SoundDuration":69100,"Delta":186087476},{"NoteNumber":39,"Velocity":51,"Duration":69100,"SoundDuration":69100,"Delta":186087476},{"NoteNumber":55,"Velocity":57,"Duration":69100,"SoundDuration":69100,"Delta":186209417},{"NoteNumber":61,"Velocity":57,"Duration":69100,"SoundDuration":69100,"Delta":186209417},{"NoteNumber":63,"Velocity":57,"Duration":69100,"SoundDuration":69100,"Delta":186209417},{"NoteNumber":39,"Velocity":50,"Duration":69100,"SoundDuration":69100,"Delta":186209417},{"NoteNumber":46,"Velocity":50,"Duration":69100,"SoundDuration":69100,"Delta":186209417},{"NoteNumber":55,"Velocity":57,"Duration":208816,"SoundDuration":208816,"Delta":186331358},{"NoteNumber":61,"Velocity":57,"Duration":208816,"SoundDuration":208816,"Delta":186331358},{"NoteNumber":63,"Velocity":57,"Duration":208816,"SoundDuration":208816,"Delta":186331358},{"NoteNumber":46,"Velocity":50,"Duration":208816,"SoundDuration":208816,"Delta":186331358},{"NoteNumber":39,"Velocity":50,"Duration":208816,"SoundDuration":208816,"Delta":186331358},{"NoteNumber":55,"Velocity":54,"Duration":78886,"SoundDuration":78886,"Delta":186609781},{"NoteNumber":61,"Velocity":54,"Duration":78886,"SoundDuration":78886,"Delta":186609781},{"NoteNumber":64,"Velocity":54,"Duration":78886,"SoundDuration":78886,"Delta":186609781},{"NoteNumber":34,"Velocity":46,"Duration":78886,"SoundDuration":78886,"Delta":186609781},{"NoteNumber":38,"Velocity":51,"Duration":105852,"SoundDuration":105852,"Delta":186888203},{"NoteNumber":54,"Velocity":51,"Duration":107347,"SoundDuration":107347,"Delta":187170476},{"NoteNumber":66,"Velocity":51,"Duration":107347,"SoundDuration":107347,"Delta":187170476},{"NoteNumber":60,"Velocity":51,"Duration":107347,"SoundDuration":107347,"Delta":187170476},{"NoteNumber":62,"Velocity":51,"Duration":107347,"SoundDuration":107347,"Delta":187170476},{"NoteNumber":33,"Velocity":44,"Duration":107347,"SoundDuration":107347,"Delta":187170476},{"NoteNumber":31,"Velocity":48,"Duration":138568,"SoundDuration":138568,"Delta":187456736},{"NoteNumber":55,"Velocity":37,"Duration":61367,"SoundDuration":61367,"Delta":187733872},{"NoteNumber":58,"Velocity":37,"Duration":61367,"SoundDuration":61367,"Delta":187733872},{"NoteNumber":67,"Velocity":42,"Duration":61367,"SoundDuration":61367,"Delta":187733872},{"NoteNumber":43,"Velocity":33,"Duration":61367,"SoundDuration":61367,"Delta":187733872},{"NoteNumber":50,"Velocity":33,"Duration":61367,"SoundDuration":61367,"Delta":187733872},{"NoteNumber":55,"Velocity":37,"Duration":61367,"SoundDuration":61367,"Delta":187842168},{"NoteNumber":58,"Velocity":37,"Duration":61367,"SoundDuration":61367,"Delta":187842168},{"NoteNumber":67,"Velocity":42,"Duration":61367,"SoundDuration":61367,"Delta":187842168},{"NoteNumber":50,"Velocity":33,"Duration":61367,"SoundDuration":61367,"Delta":187842168},{"NoteNumber":43,"Velocity":33,"Duration":61367,"SoundDuration":61367,"Delta":187842168},{"NoteNumber":55,"Velocity":37,"Duration":207852,"SoundDuration":207852,"Delta":187950463},{"NoteNumber":58,"Velocity":37,"Duration":207852,"SoundDuration":207852,"Delta":187950463},{"NoteNumber":67,"Velocity":42,"Duration":207852,"SoundDuration":207852,"Delta":187950463},{"NoteNumber":50,"Velocity":33,"Duration":207852,"SoundDuration":207852,"Delta":187950463},{"NoteNumber":43,"Velocity":33,"Duration":207852,"SoundDuration":207852,"Delta":187950463},{"NoteNumber":45,"Velocity":45,"Duration":125512,"SoundDuration":125512,"Delta":188227600},{"NoteNumber":33,"Velocity":41,"Duration":125512,"SoundDuration":125512,"Delta":188227600},{"NoteNumber":46,"Velocity":49,"Duration":125512,"SoundDuration":125512,"Delta":188353112},{"NoteNumber":34,"Velocity":45,"Duration":125512,"SoundDuration":125512,"Delta":188353112},{"NoteNumber":50,"Velocity":54,"Duration":278422,"SoundDuration":278422,"Delta":188478625},{"NoteNumber":38,"Velocity":48,"Duration":1116586,"SoundDuration":1116586,"Delta":188478625},{"NoteNumber":53,"Velocity":38,"Duration":101625,"SoundDuration":101625,"Delta":188757047},{"NoteNumber":62,"Velocity":43,"Duration":101625,"SoundDuration":101625,"Delta":188757047},{"NoteNumber":58,"Velocity":38,"Duration":101625,"SoundDuration":101625,"Delta":188757047},{"NoteNumber":50,"Velocity":32,"Duration":101625,"SoundDuration":101625,"Delta":188757047},{"NoteNumber":46,"Velocity":32,"Duration":101625,"SoundDuration":101625,"Delta":188757047},{"NoteNumber":54,"Velocity":38,"Duration":106342,"SoundDuration":106342,"Delta":189028050},{"NoteNumber":60,"Velocity":38,"Duration":106342,"SoundDuration":106342,"Delta":189028050},{"NoteNumber":62,"Velocity":43,"Duration":106342,"SoundDuration":106342,"Delta":189028050},{"NoteNumber":50,"Velocity":33,"Duration":106342,"SoundDuration":106342,"Delta":189028050},{"NoteNumber":45,"Velocity":33,"Duration":106342,"SoundDuration":106342,"Delta":189028050},{"NoteNumber":31,"Velocity":44,"Duration":278422,"SoundDuration":278422,"Delta":189595211},{"NoteNumber":58,"Velocity":36,"Duration":92975,"SoundDuration":92975,"Delta":189873633},{"NoteNumber":55,"Velocity":32,"Duration":92975,"SoundDuration":92975,"Delta":189873633},{"NoteNumber":43,"Velocity":28,"Duration":92975,"SoundDuration":92975,"Delta":189873633},{"NoteNumber":50,"Velocity":28,"Duration":92975,"SoundDuration":92975,"Delta":189873633},{"NoteNumber":55,"Velocity":32,"Duration":92975,"SoundDuration":92975,"Delta":189997600},{"NoteNumber":58,"Velocity":36,"Duration":92975,"SoundDuration":92975,"Delta":189997600},{"NoteNumber":50,"Velocity":28,"Duration":92975,"SoundDuration":92975,"Delta":189997600},{"NoteNumber":43,"Velocity":28,"Duration":92975,"SoundDuration":92975,"Delta":189997600},{"NoteNumber":55,"Velocity":32,"Duration":277136,"SoundDuration":277136,"Delta":190121567},{"NoteNumber":58,"Velocity":36,"Duration":277136,"SoundDuration":277136,"Delta":190121567},{"NoteNumber":43,"Velocity":28,"Duration":277136,"SoundDuration":277136,"Delta":190121567},{"NoteNumber":50,"Velocity":28,"Duration":277136,"SoundDuration":277136,"Delta":190121567},{"NoteNumber":33,"Velocity":39,"Duration":130992,"SoundDuration":130992,"Delta":190398704},{"NoteNumber":34,"Velocity":42,"Duration":130993,"SoundDuration":130993,"Delta":190529697},{"NoteNumber":38,"Velocity":45,"Duration":1115151,"SoundDuration":1115151,"Delta":190660690},{"NoteNumber":50,"Velocity":36,"Duration":102068,"SoundDuration":102068,"Delta":190939112},{"NoteNumber":53,"Velocity":36,"Duration":102068,"SoundDuration":102068,"Delta":190939112},{"NoteNumber":46,"Velocity":31,"Duration":102068,"SoundDuration":102068,"Delta":190939112},{"NoteNumber":50,"Velocity":36,"Duration":105852,"SoundDuration":105852,"Delta":191211295},{"NoteNumber":54,"Velocity":36,"Duration":105852,"SoundDuration":105852,"Delta":191211295},{"NoteNumber":45,"Velocity":31,"Duration":105852,"SoundDuration":105852,"Delta":191211295},{"NoteNumber":31,"Velocity":33,"Duration":282273,"SoundDuration":282273,"Delta":191775841},{"NoteNumber":43,"Velocity":28,"Duration":141136,"SoundDuration":141136,"Delta":192058114},{"NoteNumber":45,"Velocity":29,"Duration":141136,"SoundDuration":141136,"Delta":192199251},{"NoteNumber":46,"Velocity":30,"Duration":141136,"SoundDuration":141136,"Delta":192340387},{"NoteNumber":50,"Velocity":31,"Duration":141136,"SoundDuration":141136,"Delta":192481524},{"NoteNumber":45,"Velocity":32,"Duration":141136,"SoundDuration":141136,"Delta":192622660},{"NoteNumber":38,"Velocity":29,"Duration":282273,"SoundDuration":282273,"Delta":192622660},{"NoteNumber":50,"Velocity":33,"Duration":141136,"SoundDuration":141136,"Delta":192763797},{"NoteNumber":46,"Velocity":31,"Duration":141136,"SoundDuration":141136,"Delta":192904933},{"NoteNumber":55,"Velocity":31,"Duration":141136,"SoundDuration":141136,"Delta":192904933},{"NoteNumber":31,"Velocity":29,"Duration":282273,"SoundDuration":282273,"Delta":192904933},{"NoteNumber":38,"Velocity":29,"Duration":282273,"SoundDuration":282273,"Delta":192904933},{"NoteNumber":50,"Velocity":31,"Duration":141136,"SoundDuration":141136,"Delta":193046070},{"NoteNumber":55,"Velocity":32,"Duration":105852,"SoundDuration":105852,"Delta":193187206},{"NoteNumber":55,"Velocity":32,"Duration":141136,"SoundDuration":141136,"Delta":193328343},{"NoteNumber":58,"Velocity":33,"Duration":141136,"SoundDuration":141136,"Delta":193469479},{"NoteNumber":50,"Velocity":27,"Duration":141136,"SoundDuration":141136,"Delta":193469479},{"NoteNumber":62,"Velocity":33,"Duration":141136,"SoundDuration":141136,"Delta":193610616},{"NoteNumber":52,"Velocity":28,"Duration":141136,"SoundDuration":141136,"Delta":193610616},{"NoteNumber":57,"Velocity":34,"Duration":141136,"SoundDuration":141136,"Delta":193751752},{"NoteNumber":54,"Velocity":30,"Duration":282273,"SoundDuration":282273,"Delta":193751752},{"NoteNumber":62,"Velocity":34,"Duration":141136,"SoundDuration":141136,"Delta":193892889},{"NoteNumber":58,"Velocity":31,"Duration":141136,"SoundDuration":141136,"Delta":194034025},{"NoteNumber":67,"Velocity":31,"Duration":141136,"SoundDuration":141136,"Delta":194034025},{"NoteNumber":50,"Velocity":33,"Duration":282273,"SoundDuration":282273,"Delta":194034025},{"NoteNumber":43,"Velocity":33,"Duration":282273,"SoundDuration":282273,"Delta":194034025},{"NoteNumber":55,"Velocity":33,"Duration":282273,"SoundDuration":282273,"Delta":194034025},{"NoteNumber":62,"Velocity":32,"Duration":141136,"SoundDuration":141136,"Delta":194175162},{"NoteNumber":67,"Velocity":33,"Duration":105852,"SoundDuration":105852,"Delta":194316298},{"NoteNumber":67,"Velocity":35,"Duration":141136,"SoundDuration":141136,"Delta":194457435},{"NoteNumber":70,"Velocity":36,"Duration":141136,"SoundDuration":141136,"Delta":194598571},{"NoteNumber":62,"Velocity":27,"Duration":141136,"SoundDuration":141136,"Delta":194598571},{"NoteNumber":74,"Velocity":37,"Duration":141136,"SoundDuration":141136,"Delta":194739708},{"NoteNumber":64,"Velocity":28,"Duration":141136,"SoundDuration":141136,"Delta":194739708},{"NoteNumber":69,"Velocity":38,"Duration":141136,"SoundDuration":141136,"Delta":194880844},{"NoteNumber":66,"Velocity":30,"Duration":282273,"SoundDuration":282273,"Delta":194880844},{"NoteNumber":74,"Velocity":39,"Duration":141136,"SoundDuration":141136,"Delta":195021981},{"NoteNumber":70,"Velocity":31,"Duration":142857,"SoundDuration":142857,"Delta":195163117},{"NoteNumber":79,"Velocity":31,"Duration":142857,"SoundDuration":142857,"Delta":195163117},{"NoteNumber":55,"Velocity":33,"Duration":285714,"SoundDuration":285714,"Delta":195163117},{"NoteNumber":67,"Velocity":33,"Duration":285714,"SoundDuration":285714,"Delta":195163117},{"NoteNumber":62,"Velocity":33,"Duration":285714,"SoundDuration":285714,"Delta":195163117},{"NoteNumber":74,"Velocity":33,"Duration":142857,"SoundDuration":142857,"Delta":195305975},{"NoteNumber":79,"Velocity":35,"Duration":107142,"SoundDuration":107142,"Delta":195448832},{"NoteNumber":79,"Velocity":36,"Duration":142857,"SoundDuration":142857,"Delta":195591689},{"NoteNumber":82,"Velocity":38,"Duration":145631,"SoundDuration":145631,"Delta":195734546},{"NoteNumber":74,"Velocity":27,"Duration":145631,"SoundDuration":145631,"Delta":195734546},{"NoteNumber":86,"Velocity":40,"Duration":145630,"SoundDuration":145630,"Delta":195880177},{"NoteNumber":76,"Velocity":28,"Duration":145630,"SoundDuration":145630,"Delta":195880177},{"NoteNumber":81,"Velocity":42,"Duration":145631,"SoundDuration":145631,"Delta":196025808},{"NoteNumber":78,"Velocity":30,"Duration":291262,"SoundDuration":291262,"Delta":196025808},{"NoteNumber":86,"Velocity":44,"Duration":145631,"SoundDuration":145631,"Delta":196171439},{"NoteNumber":82,"Velocity":45,"Duration":145630,"SoundDuration":145630,"Delta":196317070},{"NoteNumber":91,"Velocity":45,"Duration":145630,"SoundDuration":145630,"Delta":196317070},{"NoteNumber":74,"Velocity":36,"Duration":145630,"SoundDuration":145630,"Delta":196317070},{"NoteNumber":79,"Velocity":36,"Duration":145630,"SoundDuration":145630,"Delta":196317070},{"NoteNumber":67,"Velocity":36,"Duration":145630,"SoundDuration":145630,"Delta":196317070},{"NoteNumber":67,"Velocity":36,"Duration":145630,"SoundDuration":145630,"Delta":196899594},{"NoteNumber":55,"Velocity":32,"Duration":145630,"SoundDuration":145630,"Delta":196899594}],"license":{"name":"Creative Commons Attribution-ShareAlike 3.0 Germany","url":"http://creativecommons.org/licenses/by-sa/3.0/de/deed.en","text":"The MIDI, audio (MP3, OGG) and video files of Bernd Krueger are licensed under the cc-by-sa Germany License. This means that you can use and adapt the files, as long as you attribute the copyright holder.\n\nName: Bernd Krueger\nSource: http://www.piano-midi.de\n\nThe distribution or public playback of the files is only allowed under identical license conditions.\n\nThe scores are open source.","attribution":"MIDI files by Bernd Krueger (piano-midi.de)","attributionUrl":"http://www.piano-midi.de"}}