{"title":"Prelude Opus 32 No. 1","artist":"Rachmaninoff","durationMs":66532,"midiSha256":"d0cc2c47ba8b2fbb5e55f6bba2b538b698246fcafa324fbe40e0166a7aa86a55","midiObject":[{"NoteNumber":24,"Velocity":80,"Duration":140331,"SoundDuration":140331,"Delta":0},{"NoteNumber":36,"Velocity":80,"Duration":136229,"SoundDuration":136229,"Delta":140332},{"NoteNumber":43,"Velocity":76,"Duration":132289,"SoundDuration":132289,"Delta":276561},{"NoteNumber":48,"Velocity":82,"Duration":128637,"SoundDuration":128637,"Delta":408851},{"NoteNumber":52,"Velocity":84,"Duration":125180,"SoundDuration":125180,"Delta":537488},{"NoteNumber":55,"Velocity":88,"Duration":121906,"SoundDuration":121906,"Delta":662669},{"NoteNumber":44,"Velocity":92,"Duration":1002033,"SoundDuration":1002033,"Delta":784576},{"NoteNumber":56,"Velocity":99,"Duration":1513333,"SoundDuration":1513333,"Delta":784576},{"NoteNumber":61,"Velocity":46,"Duration":64737,"SoundDuration":64737,"Delta":1043526},{"NoteNumber":64,"Velocity":54,"Duration":64737,"SoundDuration":64737,"Delta":1043526},{"NoteNumber":61,"Velocity":51,"Duration":118962,"SoundDuration":118962,"Delta":1173001},{"NoteNumber":64,"Velocity":60,"Duration":118962,"SoundDuration":118962,"Delta":1173001},{"NoteNumber":49,"Velocity":53,"Duration":118962,"SoundDuration":118962,"Delta":1173001},{"NoteNumber":60,"Velocity":55,"Duration":59481,"SoundDuration":59481,"Delta":1291964},{"NoteNumber":48,"Velocity":50,"Duration":59481,"SoundDuration":59481,"Delta":1291964},{"NoteNumber":61,"Velocity":47,"Duration":69185,"SoundDuration":69185,"Delta":1410926},{"NoteNumber":65,"Velocity":56,"Duration":69185,"SoundDuration":69185,"Delta":1410926},{"NoteNumber":47,"Velocity":51,"Duration":69185,"SoundDuration":69185,"Delta":1410926},{"NoteNumber":61,"Velocity":55,"Duration":119403,"SoundDuration":119403,"Delta":1549296},{"NoteNumber":65,"Velocity":64,"Duration":119403,"SoundDuration":119403,"Delta":1549296},{"NoteNumber":46,"Velocity":57,"Duration":119403,"SoundDuration":119403,"Delta":1549296},{"NoteNumber":60,"Velocity":58,"Duration":59701,"SoundDuration":59701,"Delta":1668699},{"NoteNumber":45,"Velocity":53,"Duration":59701,"SoundDuration":59701,"Delta":1668699},{"NoteNumber":62,"Velocity":50,"Duration":68596,"SoundDuration":68596,"Delta":1788102},{"NoteNumber":66,"Velocity":59,"Duration":68596,"SoundDuration":68596,"Delta":1788102},{"NoteNumber":44,"Velocity":54,"Duration":68596,"SoundDuration":68596,"Delta":1788102},{"NoteNumber":62,"Velocity":58,"Duration":118001,"SoundDuration":118001,"Delta":1925295},{"NoteNumber":66,"Velocity":68,"Duration":118001,"SoundDuration":118001,"Delta":1925295},{"NoteNumber":36,"Velocity":61,"Duration":118001,"SoundDuration":118001,"Delta":1925295},{"NoteNumber":60,"Velocity":60,"Duration":59000,"SoundDuration":59000,"Delta":2043296},{"NoteNumber":44,"Velocity":53,"Duration":59000,"SoundDuration":59000,"Delta":2043296},{"NoteNumber":63,"Velocity":52,"Duration":68306,"SoundDuration":68306,"Delta":2161297},{"NoteNumber":67,"Velocity":62,"Duration":68306,"SoundDuration":68306,"Delta":2161297},{"NoteNumber":51,"Velocity":55,"Duration":68306,"SoundDuration":68306,"Delta":2161297},{"NoteNumber":63,"Velocity":61,"Duration":116966,"SoundDuration":116966,"Delta":2297909},{"NoteNumber":67,"Velocity":72,"Duration":116966,"SoundDuration":116966,"Delta":2297909},{"NoteNumber":60,"Velocity":63,"Duration":116966,"SoundDuration":116966,"Delta":2297909},{"NoteNumber":62,"Velocity":63,"Duration":58482,"SoundDuration":58482,"Delta":2414875},{"NoteNumber":58,"Velocity":55,"Duration":58482,"SoundDuration":58482,"Delta":2414875},{"NoteNumber":63,"Velocity":53,"Duration":67732,"SoundDuration":67732,"Delta":2531841},{"NoteNumber":67,"Velocity":64,"Duration":67732,"SoundDuration":67732,"Delta":2531841},{"NoteNumber":56,"Velocity":60,"Duration":67732,"SoundDuration":67732,"Delta":2531841},{"NoteNumber":64,"Velocity":64,"Duration":115948,"SoundDuration":115948,"Delta":2667306},{"NoteNumber":67,"Velocity":76,"Duration":115948,"SoundDuration":115948,"Delta":2667306},{"NoteNumber":55,"Velocity":67,"Duration":115948,"SoundDuration":115948,"Delta":2667306},{"NoteNumber":62,"Velocity":66,"Duration":115948,"SoundDuration":115948,"Delta":2783255},{"NoteNumber":53,"Velocity":61,"Duration":115948,"SoundDuration":115948,"Delta":2783255},{"NoteNumber":64,"Velocity":56,"Duration":495040,"SoundDuration":495040,"Delta":2899203},{"NoteNumber":67,"Velocity":67,"Duration":495040,"SoundDuration":495040,"Delta":2899203},{"NoteNumber":52,"Velocity":62,"Duration":136612,"SoundDuration":136612,"Delta":2899203},{"NoteNumber":60,"Velocity":79,"Duration":358428,"SoundDuration":358428,"Delta":3035815},{"NoteNumber":72,"Velocity":96,"Duration":358428,"SoundDuration":358428,"Delta":3035815},{"NoteNumber":52,"Velocity":75,"Duration":118962,"SoundDuration":118962,"Delta":3035815},{"NoteNumber":43,"Velocity":64,"Duration":118962,"SoundDuration":118962,"Delta":3154778},{"NoteNumber":36,"Velocity":66,"Duration":120502,"SoundDuration":120502,"Delta":3273741},{"NoteNumber":43,"Velocity":76,"Duration":93202,"SoundDuration":93202,"Delta":3394243},{"NoteNumber":48,"Velocity":76,"Duration":91732,"SoundDuration":91732,"Delta":3487445},{"NoteNumber":52,"Velocity":76,"Duration":90307,"SoundDuration":90307,"Delta":3579178},{"NoteNumber":55,"Velocity":76,"Duration":88923,"SoundDuration":88923,"Delta":3669486},{"NoteNumber":44,"Velocity":92,"Duration":974916,"SoundDuration":974916,"Delta":3758409},{"NoteNumber":56,"Velocity":99,"Duration":1484118,"SoundDuration":1484118,"Delta":3758409},{"NoteNumber":61,"Velocity":46,"Duration":59923,"SoundDuration":59923,"Delta":3998103},{"NoteNumber":64,"Velocity":54,"Duration":59923,"SoundDuration":59923,"Delta":3998103},{"NoteNumber":61,"Velocity":51,"Duration":119846,"SoundDuration":119846,"Delta":4117949},{"NoteNumber":64,"Velocity":60,"Duration":119846,"SoundDuration":119846,"Delta":4117949},{"NoteNumber":49,"Velocity":53,"Duration":119846,"SoundDuration":119846,"Delta":4117949},{"NoteNumber":60,"Velocity":55,"Duration":59923,"SoundDuration":59923,"Delta":4237796},{"NoteNumber":48,"Velocity":50,"Duration":59923,"SoundDuration":59923,"Delta":4237796},{"NoteNumber":61,"Velocity":47,"Duration":69185,"SoundDuration":69185,"Delta":4357643},{"NoteNumber":65,"Velocity":56,"Duration":69185,"SoundDuration":69185,"Delta":4357643},{"NoteNumber":47,"Velocity":51,"Duration":69185,"SoundDuration":69185,"Delta":4357643},{"NoteNumber":61,"Velocity":55,"Duration":119403,"SoundDuration":119403,"Delta":4496013},{"NoteNumber":65,"Velocity":64,"Duration":119403,"SoundDuration":119403,"Delta":4496013},{"NoteNumber":46,"Velocity":57,"Duration":119403,"SoundDuration":119403,"Delta":4496013},{"NoteNumber":60,"Velocity":58,"Duration":59701,"SoundDuration":59701,"Delta":4615416},{"NoteNumber":45,"Velocity":53,"Duration":59701,"SoundDuration":59701,"Delta":4615416},{"NoteNumber":62,"Velocity":50,"Duration":68596,"SoundDuration":68596,"Delta":4734819},{"NoteNumber":66,"Velocity":59,"Duration":68596,"SoundDuration":68596,"Delta":4734819},{"NoteNumber":44,"Velocity":54,"Duration":68596,"SoundDuration":68596,"Delta":4734819},{"NoteNumber":62,"Velocity":57,"Duration":116952,"SoundDuration":116952,"Delta":4872012},{"NoteNumber":66,"Velocity":68,"Duration":116952,"SoundDuration":116952,"Delta":4872012},{"NoteNumber":36,"Velocity":60,"Duration":116952,"SoundDuration":116952,"Delta":4872012},{"NoteNumber":60,"Velocity":60,"Duration":58476,"SoundDuration":58476,"Delta":4988964},{"NoteNumber":44,"Velocity":53,"Duration":58476,"SoundDuration":58476,"Delta":4988964},{"NoteNumber":63,"Velocity":52,"Duration":68305,"SoundDuration":68305,"Delta":5105916},{"NoteNumber":67,"Velocity":62,"Duration":68305,"SoundDuration":68305,"Delta":5105916},{"NoteNumber":51,"Velocity":55,"Duration":68305,"SoundDuration":68305,"Delta":5105916},{"NoteNumber":63,"Velocity":61,"Duration":114279,"SoundDuration":114279,"Delta":5242528},{"NoteNumber":67,"Velocity":72,"Duration":114279,"SoundDuration":114279,"Delta":5242528},{"NoteNumber":60,"Velocity":63,"Duration":114279,"SoundDuration":114279,"Delta":5242528},{"NoteNumber":62,"Velocity":63,"Duration":57139,"SoundDuration":57139,"Delta":5356808},{"NoteNumber":58,"Velocity":55,"Duration":57139,"SoundDuration":57139,"Delta":5356808},{"NoteNumber":63,"Velocity":53,"Duration":67732,"SoundDuration":67732,"Delta":5471087},{"NoteNumber":67,"Velocity":64,"Duration":67732,"SoundDuration":67732,"Delta":5471087},{"NoteNumber":56,"Velocity":60,"Duration":67732,"SoundDuration":67732,"Delta":5471087},{"NoteNumber":64,"Velocity":64,"Duration":112669,"SoundDuration":112669,"Delta":5606552},{"NoteNumber":67,"Velocity":76,"Duration":112669,"SoundDuration":112669,"Delta":5606552},{"NoteNumber":55,"Velocity":67,"Duration":112669,"SoundDuration":112669,"Delta":5606552},{"NoteNumber":62,"Velocity":66,"Duration":112669,"SoundDuration":112669,"Delta":5719221},{"NoteNumber":53,"Velocity":61,"Duration":112669,"SoundDuration":112669,"Delta":5719221},{"NoteNumber":64,"Velocity":56,"Duration":547078,"SoundDuration":547078,"Delta":5831891},{"NoteNumber":67,"Velocity":67,"Duration":547078,"SoundDuration":547078,"Delta":5831891},{"NoteNumber":52,"Velocity":62,"Duration":144393,"SoundDuration":144393,"Delta":5831891},{"NoteNumber":60,"Velocity":79,"Duration":402684,"SoundDuration":402684,"Delta":5976285},{"NoteNumber":72,"Velocity":96,"Duration":402684,"SoundDuration":402684,"Delta":5976285},{"NoteNumber":52,"Velocity":75,"Duration":134228,"SoundDuration":134228,"Delta":5976285},{"NoteNumber":43,"Velocity":64,"Duration":134228,"SoundDuration":134228,"Delta":6110513},{"NoteNumber":36,"Velocity":66,"Duration":134228,"SoundDuration":134228,"Delta":6244742},{"NoteNumber":35,"Velocity":66,"Duration":125502,"SoundDuration":125502,"Delta":6378970},{"NoteNumber":47,"Velocity":78,"Duration":125502,"SoundDuration":125502,"Delta":6378970},{"NoteNumber":34,"Velocity":69,"Duration":123765,"SoundDuration":123765,"Delta":6504472},{"NoteNumber":46,"Velocity":82,"Duration":123765,"SoundDuration":123765,"Delta":6504472},{"NoteNumber":33,"Velocity":72,"Duration":121851,"SoundDuration":121851,"Delta":6628238},{"NoteNumber":45,"Velocity":85,"Duration":121851,"SoundDuration":121851,"Delta":6628238},{"NoteNumber":32,"Velocity":78,"Duration":1550167,"SoundDuration":1550167,"Delta":6750090},{"NoteNumber":44,"Velocity":99,"Duration":1014314,"SoundDuration":1014314,"Delta":6750090},{"NoteNumber":71,"Velocity":54,"Duration":122925,"SoundDuration":122925,"Delta":7217016},{"NoteNumber":76,"Velocity":64,"Duration":366891,"SoundDuration":366891,"Delta":7217016},{"NoteNumber":52,"Velocity":45,"Duration":366891,"SoundDuration":366891,"Delta":7217016},{"NoteNumber":60,"Velocity":53,"Duration":366891,"SoundDuration":366891,"Delta":7217016},{"NoteNumber":72,"Velocity":54,"Duration":122324,"SoundDuration":122324,"Delta":7339941},{"NoteNumber":55,"Velocity":40,"Duration":122324,"SoundDuration":122324,"Delta":7339941},{"NoteNumber":64,"Velocity":58,"Duration":121641,"SoundDuration":121641,"Delta":7462266},{"NoteNumber":56,"Velocity":40,"Duration":121641,"SoundDuration":121641,"Delta":7462266},{"NoteNumber":72,"Velocity":58,"Duration":121008,"SoundDuration":121008,"Delta":7583907},{"NoteNumber":77,"Velocity":69,"Duration":361021,"SoundDuration":361021,"Delta":7583907},{"NoteNumber":53,"Velocity":47,"Duration":361021,"SoundDuration":361021,"Delta":7583907},{"NoteNumber":61,"Velocity":56,"Duration":361021,"SoundDuration":361021,"Delta":7583907},{"NoteNumber":73,"Velocity":61,"Duration":120323,"SoundDuration":120323,"Delta":7704916},{"NoteNumber":44,"Velocity":43,"Duration":535100,"SoundDuration":535100,"Delta":7765157},{"NoteNumber":65,"Velocity":62,"Duration":119689,"SoundDuration":119689,"Delta":7825239},{"NoteNumber":73,"Velocity":62,"Duration":119074,"SoundDuration":119074,"Delta":7944929},{"NoteNumber":78,"Velocity":73,"Duration":355328,"SoundDuration":355328,"Delta":7944929},{"NoteNumber":54,"Velocity":49,"Duration":355328,"SoundDuration":355328,"Delta":7944929},{"NoteNumber":62,"Velocity":58,"Duration":355328,"SoundDuration":355328,"Delta":7944929},{"NoteNumber":74,"Velocity":65,"Duration":118426,"SoundDuration":118426,"Delta":8064003},{"NoteNumber":58,"Velocity":48,"Duration":118426,"SoundDuration":118426,"Delta":8064003},{"NoteNumber":66,"Velocity":66,"Duration":117827,"SoundDuration":117827,"Delta":8182430},{"NoteNumber":59,"Velocity":48,"Duration":117827,"SoundDuration":117827,"Delta":8182430},{"NoteNumber":74,"Velocity":66,"Duration":117302,"SoundDuration":117302,"Delta":8300257},{"NoteNumber":79,"Velocity":78,"Duration":351905,"SoundDuration":351905,"Delta":8300257},{"NoteNumber":55,"Velocity":51,"Duration":351905,"SoundDuration":351905,"Delta":8300257},{"NoteNumber":63,"Velocity":61,"Duration":351905,"SoundDuration":351905,"Delta":8300257},{"NoteNumber":75,"Velocity":68,"Duration":117301,"SoundDuration":117301,"Delta":8417559},{"NoteNumber":59,"Velocity":50,"Duration":117301,"SoundDuration":117301,"Delta":8417559},{"NoteNumber":67,"Velocity":68,"Duration":117302,"SoundDuration":117302,"Delta":8534861},{"NoteNumber":60,"Velocity":61,"Duration":117302,"SoundDuration":117302,"Delta":8534861},{"NoteNumber":75,"Velocity":70,"Duration":116958,"SoundDuration":116958,"Delta":8652163},{"NoteNumber":80,"Velocity":83,"Duration":365931,"SoundDuration":365931,"Delta":8652163},{"NoteNumber":56,"Velocity":53,"Duration":116958,"SoundDuration":116958,"Delta":8652163},{"NoteNumber":64,"Velocity":63,"Duration":365931,"SoundDuration":365931,"Delta":8652163},{"NoteNumber":76,"Velocity":71,"Duration":116959,"SoundDuration":116959,"Delta":8769122},{"NoteNumber":60,"Velocity":53,"Duration":116959,"SoundDuration":116959,"Delta":8769122},{"NoteNumber":68,"Velocity":71,"Duration":132013,"SoundDuration":132013,"Delta":8886081},{"NoteNumber":61,"Velocity":53,"Duration":132013,"SoundDuration":132013,"Delta":8886081},{"NoteNumber":85,"Velocity":88,"Duration":351905,"SoundDuration":351905,"Delta":9018094},{"NoteNumber":65,"Velocity":65,"Duration":351905,"SoundDuration":351905,"Delta":9018094},{"NoteNumber":68,"Velocity":41,"Duration":117301,"SoundDuration":117301,"Delta":9135396},{"NoteNumber":72,"Velocity":49,"Duration":117301,"SoundDuration":117301,"Delta":9135396},{"NoteNumber":77,"Velocity":41,"Duration":117302,"SoundDuration":117302,"Delta":9252698},{"NoteNumber":80,"Velocity":49,"Duration":117302,"SoundDuration":117302,"Delta":9252698},{"NoteNumber":73,"Velocity":41,"Duration":117302,"SoundDuration":117302,"Delta":9252698},{"NoteNumber":84,"Velocity":84,"Duration":351905,"SoundDuration":351905,"Delta":9370000},{"NoteNumber":66,"Velocity":65,"Duration":351886,"SoundDuration":351886,"Delta":9372200},{"NoteNumber":69,"Velocity":41,"Duration":117302,"SoundDuration":117302,"Delta":9487302},{"NoteNumber":74,"Velocity":49,"Duration":117302,"SoundDuration":117302,"Delta":9487302},{"NoteNumber":72,"Velocity":41,"Duration":117301,"SoundDuration":117301,"Delta":9604604},{"NoteNumber":75,"Velocity":41,"Duration":117301,"SoundDuration":117301,"Delta":9604604},{"NoteNumber":81,"Velocity":49,"Duration":117301,"SoundDuration":117301,"Delta":9604604},{"NoteNumber":79,"Velocity":89,"Duration":116279,"SoundDuration":116279,"Delta":9721906},{"NoteNumber":55,"Velocity":50,"Duration":364137,"SoundDuration":364137,"Delta":9721906},{"NoteNumber":60,"Velocity":50,"Duration":364137,"SoundDuration":364137,"Delta":9721906},{"NoteNumber":64,"Velocity":59,"Duration":364137,"SoundDuration":364137,"Delta":9721906},{"NoteNumber":72,"Velocity":63,"Duration":116279,"SoundDuration":116279,"Delta":9838185},{"NoteNumber":67,"Velocity":63,"Duration":131579,"SoundDuration":131579,"Delta":9954464},{"NoteNumber":66,"Velocity":75,"Duration":115942,"SoundDuration":115942,"Delta":10086043},{"NoteNumber":69,"Velocity":61,"Duration":115941,"SoundDuration":115941,"Delta":10201985},{"NoteNumber":67,"Velocity":61,"Duration":115942,"SoundDuration":115942,"Delta":10317927},{"NoteNumber":64,"Velocity":65,"Duration":115942,"SoundDuration":115942,"Delta":10433869},{"NoteNumber":60,"Velocity":59,"Duration":122316,"SoundDuration":122316,"Delta":10549811},{"NoteNumber":59,"Velocity":59,"Duration":511691,"SoundDuration":511691,"Delta":10672128},{"NoteNumber":65,"Velocity":47,"Duration":389375,"SoundDuration":389375,"Delta":10794445},{"NoteNumber":67,"Velocity":53,"Duration":389375,"SoundDuration":389375,"Delta":10794445},{"NoteNumber":57,"Velocity":49,"Duration":136976,"SoundDuration":136976,"Delta":10794445},{"NoteNumber":55,"Velocity":41,"Duration":136976,"SoundDuration":136976,"Delta":10931422},{"NoteNumber":53,"Velocity":41,"Duration":115421,"SoundDuration":115421,"Delta":11068399},{"NoteNumber":55,"Velocity":49,"Duration":1087834,"SoundDuration":1087834,"Delta":11183820},{"NoteNumber":60,"Velocity":49,"Duration":1087834,"SoundDuration":1087834,"Delta":11183820},{"NoteNumber":67,"Velocity":58,"Duration":1087834,"SoundDuration":1087834,"Delta":11183820},{"NoteNumber":52,"Velocity":46,"Duration":115968,"SoundDuration":115968,"Delta":11183820},{"NoteNumber":48,"Velocity":36,"Duration":117152,"SoundDuration":117152,"Delta":11299788},{"NoteNumber":43,"Velocity":36,"Duration":118317,"SoundDuration":118317,"Delta":11416940},{"NoteNumber":42,"Velocity":45,"Duration":119562,"SoundDuration":119562,"Delta":11535258},{"NoteNumber":45,"Velocity":34,"Duration":120774,"SoundDuration":120774,"Delta":11654821},{"NoteNumber":43,"Velocity":35,"Duration":122057,"SoundDuration":122057,"Delta":11775595},{"NoteNumber":36,"Velocity":45,"Duration":123336,"SoundDuration":123336,"Delta":11897652},{"NoteNumber":42,"Velocity":36,"Duration":124658,"SoundDuration":124658,"Delta":12020989},{"NoteNumber":43,"Velocity":38,"Duration":126007,"SoundDuration":126007,"Delta":12145647},{"NoteNumber":43,"Velocity":76,"Duration":93202,"SoundDuration":93202,"Delta":12271655},{"NoteNumber":48,"Velocity":76,"Duration":91732,"SoundDuration":91732,"Delta":12364857},{"NoteNumber":52,"Velocity":76,"Duration":90307,"SoundDuration":90307,"Delta":12456590},{"NoteNumber":55,"Velocity":76,"Duration":88923,"SoundDuration":88923,"Delta":12546897},{"NoteNumber":47,"Velocity":92,"Duration":695535,"SoundDuration":695535,"Delta":12635821},{"NoteNumber":59,"Velocity":99,"Duration":1140719,"SoundDuration":1140719,"Delta":12635821},{"NoteNumber":61,"Velocity":46,"Duration":64737,"SoundDuration":64737,"Delta":12894771},{"NoteNumber":64,"Velocity":54,"Duration":64737,"SoundDuration":64737,"Delta":12894771},{"NoteNumber":61,"Velocity":51,"Duration":118962,"SoundDuration":118962,"Delta":13024246},{"NoteNumber":64,"Velocity":60,"Duration":118962,"SoundDuration":118962,"Delta":13024246},{"NoteNumber":49,"Velocity":53,"Duration":118962,"SoundDuration":118962,"Delta":13024246},{"NoteNumber":60,"Velocity":55,"Duration":59481,"SoundDuration":59481,"Delta":13143209},{"NoteNumber":48,"Velocity":50,"Duration":59481,"SoundDuration":59481,"Delta":13143209},{"NoteNumber":61,"Velocity":47,"Duration":69184,"SoundDuration":69184,"Delta":13262171},{"NoteNumber":65,"Velocity":56,"Duration":69184,"SoundDuration":69184,"Delta":13262171},{"NoteNumber":47,"Velocity":51,"Duration":138370,"SoundDuration":138370,"Delta":13262171},{"NoteNumber":61,"Velocity":55,"Duration":119403,"SoundDuration":119403,"Delta":13400541},{"NoteNumber":65,"Velocity":64,"Duration":119403,"SoundDuration":119403,"Delta":13400541},{"NoteNumber":46,"Velocity":57,"Duration":119403,"SoundDuration":119403,"Delta":13400541},{"NoteNumber":60,"Velocity":58,"Duration":59701,"SoundDuration":59701,"Delta":13519944},{"NoteNumber":45,"Velocity":53,"Duration":59701,"SoundDuration":59701,"Delta":13519944},{"NoteNumber":62,"Velocity":50,"Duration":68596,"SoundDuration":68596,"Delta":13639347},{"NoteNumber":66,"Velocity":59,"Duration":68596,"SoundDuration":68596,"Delta":13639347},{"NoteNumber":44,"Velocity":54,"Duration":509085,"SoundDuration":509085,"Delta":13639347},{"NoteNumber":62,"Velocity":58,"Duration":117639,"SoundDuration":117639,"Delta":13776540},{"NoteNumber":66,"Velocity":68,"Duration":117639,"SoundDuration":117639,"Delta":13776540},{"NoteNumber":56,"Velocity":61,"Duration":739901,"SoundDuration":739901,"Delta":13776540},{"NoteNumber":60,"Velocity":60,"Duration":58820,"SoundDuration":58820,"Delta":13894180},{"NoteNumber":63,"Velocity":52,"Duration":68305,"SoundDuration":68305,"Delta":14011820},{"NoteNumber":67,"Velocity":62,"Duration":68305,"SoundDuration":68305,"Delta":14011820},{"NoteNumber":63,"Velocity":61,"Duration":116272,"SoundDuration":116272,"Delta":14148432},{"NoteNumber":67,"Velocity":72,"Duration":116272,"SoundDuration":116272,"Delta":14148432},{"NoteNumber":46,"Velocity":63,"Duration":116272,"SoundDuration":116272,"Delta":14148432},{"NoteNumber":62,"Velocity":63,"Duration":58136,"SoundDuration":58136,"Delta":14264705},{"NoteNumber":44,"Velocity":55,"Duration":58136,"SoundDuration":58136,"Delta":14264705},{"NoteNumber":63,"Velocity":53,"Duration":67732,"SoundDuration":67732,"Delta":14380977},{"NoteNumber":67,"Velocity":64,"Duration":67732,"SoundDuration":67732,"Delta":14380977},{"NoteNumber":43,"Velocity":60,"Duration":505356,"SoundDuration":505356,"Delta":14380977},{"NoteNumber":64,"Velocity":64,"Duration":114279,"SoundDuration":114279,"Delta":14516442},{"NoteNumber":67,"Velocity":76,"Duration":114279,"SoundDuration":114279,"Delta":14516442},{"NoteNumber":55,"Velocity":67,"Duration":114279,"SoundDuration":114279,"Delta":14516442},{"NoteNumber":62,"Velocity":66,"Duration":114279,"SoundDuration":114279,"Delta":14630721},{"NoteNumber":53,"Velocity":61,"Duration":114279,"SoundDuration":114279,"Delta":14630721},{"NoteNumber":64,"Velocity":56,"Duration":499760,"SoundDuration":499760,"Delta":14745000},{"NoteNumber":67,"Velocity":67,"Duration":499760,"SoundDuration":499760,"Delta":14745000},{"NoteNumber":52,"Velocity":62,"Duration":141332,"SoundDuration":141332,"Delta":14745000},{"NoteNumber":60,"Velocity":79,"Duration":358428,"SoundDuration":358428,"Delta":14886333},{"NoteNumber":72,"Velocity":96,"Duration":358428,"SoundDuration":358428,"Delta":14886333},{"NoteNumber":52,"Velocity":75,"Duration":89221,"SoundDuration":89221,"Delta":14886333},{"NoteNumber":48,"Velocity":64,"Duration":89222,"SoundDuration":89222,"Delta":14975555},{"NoteNumber":43,"Velocity":66,"Duration":89221,"SoundDuration":89221,"Delta":15064777},{"NoteNumber":36,"Velocity":66,"Duration":90762,"SoundDuration":90762,"Delta":15153999},{"NoteNumber":43,"Velocity":76,"Duration":93202,"SoundDuration":93202,"Delta":15244761},{"NoteNumber":48,"Velocity":76,"Duration":91732,"SoundDuration":91732,"Delta":15337963},{"NoteNumber":24,"Velocity":56,"Duration":179231,"SoundDuration":179231,"Delta":15429696},{"NoteNumber":36,"Velocity":66,"Duration":179231,"SoundDuration":179231,"Delta":15429696},{"NoteNumber":52,"Velocity":76,"Duration":90307,"SoundDuration":90307,"Delta":15429696},{"NoteNumber":55,"Velocity":76,"Duration":88923,"SoundDuration":88923,"Delta":15520004},{"NoteNumber":46,"Velocity":87,"Duration":737603,"SoundDuration":737603,"Delta":15608927},{"NoteNumber":58,"Velocity":102,"Duration":1113602,"SoundDuration":1113602,"Delta":15608927},{"NoteNumber":61,"Velocity":46,"Duration":59923,"SoundDuration":59923,"Delta":15848620},{"NoteNumber":64,"Velocity":54,"Duration":59923,"SoundDuration":59923,"Delta":15848620},{"NoteNumber":61,"Velocity":51,"Duration":119846,"SoundDuration":119846,"Delta":15968467},{"NoteNumber":64,"Velocity":60,"Duration":119846,"SoundDuration":119846,"Delta":15968467},{"NoteNumber":49,"Velocity":53,"Duration":119846,"SoundDuration":119846,"Delta":15968467},{"NoteNumber":60,"Velocity":55,"Duration":59923,"SoundDuration":59923,"Delta":16088314},{"NoteNumber":48,"Velocity":50,"Duration":59923,"SoundDuration":59923,"Delta":16088314},{"NoteNumber":61,"Velocity":47,"Duration":69185,"SoundDuration":69185,"Delta":16208160},{"NoteNumber":65,"Velocity":56,"Duration":69185,"SoundDuration":69185,"Delta":16208160},{"NoteNumber":47,"Velocity":51,"Duration":69185,"SoundDuration":69185,"Delta":16208160},{"NoteNumber":61,"Velocity":55,"Duration":119402,"SoundDuration":119402,"Delta":16346530},{"NoteNumber":65,"Velocity":64,"Duration":119402,"SoundDuration":119402,"Delta":16346530},{"NoteNumber":46,"Velocity":57,"Duration":119402,"SoundDuration":119402,"Delta":16346530},{"NoteNumber":60,"Velocity":58,"Duration":59701,"SoundDuration":59701,"Delta":16465933},{"NoteNumber":45,"Velocity":53,"Duration":59701,"SoundDuration":59701,"Delta":16465933},{"NoteNumber":62,"Velocity":50,"Duration":68596,"SoundDuration":68596,"Delta":16585336},{"NoteNumber":66,"Velocity":59,"Duration":68596,"SoundDuration":68596,"Delta":16585336},{"NoteNumber":44,"Velocity":54,"Duration":512610,"SoundDuration":512610,"Delta":16585336},{"NoteNumber":62,"Velocity":57,"Duration":119402,"SoundDuration":119402,"Delta":16722529},{"NoteNumber":66,"Velocity":68,"Duration":119402,"SoundDuration":119402,"Delta":16722529},{"NoteNumber":56,"Velocity":60,"Duration":746190,"SoundDuration":746190,"Delta":16722529},{"NoteNumber":60,"Velocity":60,"Duration":59701,"SoundDuration":59701,"Delta":16841932},{"NoteNumber":63,"Velocity":52,"Duration":68305,"SoundDuration":68305,"Delta":16961335},{"NoteNumber":67,"Velocity":62,"Duration":68305,"SoundDuration":68305,"Delta":16961335},{"NoteNumber":63,"Velocity":61,"Duration":117654,"SoundDuration":117654,"Delta":17097947},{"NoteNumber":67,"Velocity":72,"Duration":117654,"SoundDuration":117654,"Delta":17097947},{"NoteNumber":46,"Velocity":63,"Duration":117654,"SoundDuration":117654,"Delta":17097947},{"NoteNumber":62,"Velocity":63,"Duration":58826,"SoundDuration":58826,"Delta":17215601},{"NoteNumber":44,"Velocity":55,"Duration":58826,"SoundDuration":58826,"Delta":17215601},{"NoteNumber":63,"Velocity":53,"Duration":67732,"SoundDuration":67732,"Delta":17333255},{"NoteNumber":67,"Velocity":64,"Duration":67732,"SoundDuration":67732,"Delta":17333255},{"NoteNumber":43,"Velocity":60,"Duration":510208,"SoundDuration":510208,"Delta":17333255},{"NoteNumber":64,"Velocity":64,"Duration":115948,"SoundDuration":115948,"Delta":17468720},{"NoteNumber":67,"Velocity":76,"Duration":115948,"SoundDuration":115948,"Delta":17468720},{"NoteNumber":55,"Velocity":67,"Duration":115948,"SoundDuration":115948,"Delta":17468720},{"NoteNumber":62,"Velocity":66,"Duration":115948,"SoundDuration":115948,"Delta":17584669},{"NoteNumber":53,"Velocity":61,"Duration":115948,"SoundDuration":115948,"Delta":17584669},{"NoteNumber":64,"Velocity":56,"Duration":544994,"SoundDuration":544994,"Delta":17700617},{"NoteNumber":67,"Velocity":67,"Duration":544994,"SoundDuration":544994,"Delta":17700617},{"NoteNumber":52,"Velocity":62,"Duration":142846,"SoundDuration":142846,"Delta":17700617},{"NoteNumber":60,"Velocity":79,"Duration":402147,"SoundDuration":402147,"Delta":17843464},{"NoteNumber":72,"Velocity":96,"Duration":402147,"SoundDuration":402147,"Delta":17843464},{"NoteNumber":52,"Velocity":75,"Duration":402147,"SoundDuration":402147,"Delta":17843464},{"NoteNumber":43,"Velocity":64,"Duration":134228,"SoundDuration":134228,"Delta":17977693},{"NoteNumber":36,"Velocity":66,"Duration":133690,"SoundDuration":133690,"Delta":18111921},{"NoteNumber":37,"Velocity":66,"Duration":128596,"SoundDuration":128596,"Delta":18245612},{"NoteNumber":49,"Velocity":78,"Duration":128596,"SoundDuration":128596,"Delta":18245612},{"NoteNumber":36,"Velocity":69,"Duration":126773,"SoundDuration":126773,"Delta":18374208},{"NoteNumber":48,"Velocity":82,"Duration":126773,"SoundDuration":126773,"Delta":18374208},{"NoteNumber":35,"Velocity":72,"Duration":124997,"SoundDuration":124997,"Delta":18500981},{"NoteNumber":47,"Velocity":85,"Duration":124997,"SoundDuration":124997,"Delta":18500981},{"NoteNumber":34,"Velocity":78,"Duration":1553829,"SoundDuration":1553829,"Delta":18625979},{"NoteNumber":46,"Velocity":99,"Duration":1018729,"SoundDuration":1018729,"Delta":18625979},{"NoteNumber":73,"Velocity":54,"Duration":122925,"SoundDuration":122925,"Delta":19096567},{"NoteNumber":78,"Velocity":64,"Duration":366891,"SoundDuration":366891,"Delta":19096567},{"NoteNumber":54,"Velocity":45,"Duration":366891,"SoundDuration":366891,"Delta":19096567},{"NoteNumber":62,"Velocity":53,"Duration":366891,"SoundDuration":366891,"Delta":19096567},{"NoteNumber":74,"Velocity":54,"Duration":122324,"SoundDuration":122324,"Delta":19219493},{"NoteNumber":57,"Velocity":40,"Duration":122324,"SoundDuration":122324,"Delta":19219493},{"NoteNumber":66,"Velocity":58,"Duration":121641,"SoundDuration":121641,"Delta":19341817},{"NoteNumber":58,"Velocity":40,"Duration":121641,"SoundDuration":121641,"Delta":19341817},{"NoteNumber":74,"Velocity":58,"Duration":121008,"SoundDuration":121008,"Delta":19463458},{"NoteNumber":79,"Velocity":69,"Duration":361021,"SoundDuration":361021,"Delta":19463458},{"NoteNumber":55,"Velocity":47,"Duration":361021,"SoundDuration":361021,"Delta":19463458},{"NoteNumber":63,"Velocity":56,"Duration":361021,"SoundDuration":361021,"Delta":19463458},{"NoteNumber":75,"Velocity":61,"Duration":120323,"SoundDuration":120323,"Delta":19584467},{"NoteNumber":46,"Velocity":43,"Duration":535100,"SoundDuration":535100,"Delta":19644708},{"NoteNumber":67,"Velocity":62,"Duration":119689,"SoundDuration":119689,"Delta":19704791},{"NoteNumber":75,"Velocity":62,"Duration":119074,"SoundDuration":119074,"Delta":19824480},{"NoteNumber":80,"Velocity":73,"Duration":355328,"SoundDuration":355328,"Delta":19824480},{"NoteNumber":56,"Velocity":49,"Duration":355328,"SoundDuration":355328,"Delta":19824480},{"NoteNumber":64,"Velocity":58,"Duration":355328,"SoundDuration":355328,"Delta":19824480},{"NoteNumber":76,"Velocity":65,"Duration":118426,"SoundDuration":118426,"Delta":19943554},{"NoteNumber":60,"Velocity":48,"Duration":118426,"SoundDuration":118426,"Delta":19943554},{"NoteNumber":68,"Velocity":66,"Duration":117827,"SoundDuration":117827,"Delta":20061981},{"NoteNumber":61,"Velocity":48,"Duration":117827,"SoundDuration":117827,"Delta":20061981},{"NoteNumber":76,"Velocity":66,"Duration":117301,"SoundDuration":117301,"Delta":20179808},{"NoteNumber":81,"Velocity":78,"Duration":351905,"SoundDuration":351905,"Delta":20179808},{"NoteNumber":57,"Velocity":51,"Duration":351905,"SoundDuration":351905,"Delta":20179808},{"NoteNumber":65,"Velocity":61,"Duration":351905,"SoundDuration":351905,"Delta":20179808},{"NoteNumber":77,"Velocity":68,"Duration":117302,"SoundDuration":117302,"Delta":20297110},{"NoteNumber":61,"Velocity":50,"Duration":117302,"SoundDuration":117302,"Delta":20297110},{"NoteNumber":69,"Velocity":68,"Duration":117301,"SoundDuration":117301,"Delta":20414412},{"NoteNumber":62,"Velocity":61,"Duration":117301,"SoundDuration":117301,"Delta":20414412},{"NoteNumber":77,"Velocity":70,"Duration":116959,"SoundDuration":116959,"Delta":20531714},{"NoteNumber":82,"Velocity":83,"Duration":365931,"SoundDuration":365931,"Delta":20531714},{"NoteNumber":58,"Velocity":53,"Duration":116959,"SoundDuration":116959,"Delta":20531714},{"NoteNumber":66,"Velocity":63,"Duration":365931,"SoundDuration":365931,"Delta":20531714},{"NoteNumber":78,"Velocity":71,"Duration":116958,"SoundDuration":116958,"Delta":20648673},{"NoteNumber":62,"Velocity":53,"Duration":116958,"SoundDuration":116958,"Delta":20648673},{"NoteNumber":70,"Velocity":71,"Duration":132013,"SoundDuration":132013,"Delta":20765632},{"NoteNumber":63,"Velocity":53,"Duration":132013,"SoundDuration":132013,"Delta":20765632},{"NoteNumber":87,"Velocity":91,"Duration":351905,"SoundDuration":351905,"Delta":20897646},{"NoteNumber":67,"Velocity":65,"Duration":351905,"SoundDuration":351905,"Delta":20897646},{"NoteNumber":70,"Velocity":41,"Duration":117302,"SoundDuration":117302,"Delta":21014948},{"NoteNumber":74,"Velocity":49,"Duration":117302,"SoundDuration":117302,"Delta":21014948},{"NoteNumber":79,"Velocity":41,"Duration":117301,"SoundDuration":117301,"Delta":21132250},{"NoteNumber":83,"Velocity":49,"Duration":117301,"SoundDuration":117301,"Delta":21132250},{"NoteNumber":75,"Velocity":41,"Duration":117301,"SoundDuration":117301,"Delta":21132250},{"NoteNumber":86,"Velocity":84,"Duration":351905,"SoundDuration":351905,"Delta":21249552},{"NoteNumber":68,"Velocity":65,"Duration":351905,"SoundDuration":351905,"Delta":21249552},{"NoteNumber":72,"Velocity":41,"Duration":117302,"SoundDuration":117302,"Delta":21366854},{"NoteNumber":76,"Velocity":49,"Duration":117302,"SoundDuration":117302,"Delta":21366854},{"NoteNumber":74,"Velocity":41,"Duration":117301,"SoundDuration":117301,"Delta":21484156},{"NoteNumber":77,"Velocity":41,"Duration":117301,"SoundDuration":117301,"Delta":21484156},{"NoteNumber":80,"Velocity":49,"Duration":117301,"SoundDuration":117301,"Delta":21484156},{"NoteNumber":79,"Velocity":89,"Duration":116278,"SoundDuration":116278,"Delta":21601458},{"NoteNumber":55,"Velocity":50,"Duration":364137,"SoundDuration":364137,"Delta":21601458},{"NoteNumber":60,"Velocity":50,"Duration":364137,"SoundDuration":364137,"Delta":21601458},{"NoteNumber":64,"Velocity":59,"Duration":364137,"SoundDuration":364137,"Delta":21601458},{"NoteNumber":72,"Velocity":63,"Duration":116279,"SoundDuration":116279,"Delta":21717737},{"NoteNumber":67,"Velocity":63,"Duration":131579,"SoundDuration":131579,"Delta":21834016},{"NoteNumber":66,"Velocity":75,"Duration":115942,"SoundDuration":115942,"Delta":21965595},{"NoteNumber":69,"Velocity":61,"Duration":115942,"SoundDuration":115942,"Delta":22081537},{"NoteNumber":67,"Velocity":61,"Duration":115942,"SoundDuration":115942,"Delta":22197479},{"NoteNumber":71,"Velocity":75,"Duration":115942,"SoundDuration":115942,"Delta":22313421},{"NoteNumber":72,"Velocity":62,"Duration":115941,"SoundDuration":115941,"Delta":22429363},{"NoteNumber":76,"Velocity":62,"Duration":115942,"SoundDuration":115942,"Delta":22545305},{"NoteNumber":75,"Velocity":67,"Duration":115942,"SoundDuration":115942,"Delta":22661247},{"NoteNumber":76,"Velocity":58,"Duration":115942,"SoundDuration":115942,"Delta":22777189},{"NoteNumber":78,"Velocity":51,"Duration":115421,"SoundDuration":115421,"Delta":22893131},{"NoteNumber":79,"Velocity":61,"Duration":119402,"SoundDuration":119402,"Delta":23008552},{"NoteNumber":83,"Velocity":46,"Duration":119403,"SoundDuration":119403,"Delta":23127955},{"NoteNumber":84,"Velocity":46,"Duration":119402,"SoundDuration":119402,"Delta":23247358},{"NoteNumber":90,"Velocity":55,"Duration":126574,"SoundDuration":126574,"Delta":23366761},{"NoteNumber":67,"Velocity":40,"Duration":189861,"SoundDuration":189861,"Delta":23366761},{"NoteNumber":74,"Velocity":40,"Duration":189861,"SoundDuration":189861,"Delta":23366761},{"NoteNumber":77,"Velocity":40,"Duration":189861,"SoundDuration":189861,"Delta":23366761},{"NoteNumber":91,"Velocity":42,"Duration":126574,"SoundDuration":126574,"Delta":23493335},{"NoteNumber":79,"Velocity":42,"Duration":134679,"SoundDuration":134679,"Delta":23619909},{"NoteNumber":84,"Velocity":50,"Duration":269359,"SoundDuration":269359,"Delta":23754589},{"NoteNumber":72,"Velocity":40,"Duration":202020,"SoundDuration":202020,"Delta":23754589},{"NoteNumber":76,"Velocity":40,"Duration":202020,"SoundDuration":202020,"Delta":23754589},{"NoteNumber":95,"Velocity":44,"Duration":131183,"SoundDuration":131183,"Delta":24023949},{"NoteNumber":84,"Velocity":50,"Duration":118293,"SoundDuration":118293,"Delta":24155132},{"NoteNumber":96,"Velocity":50,"Duration":118293,"SoundDuration":118293,"Delta":24155132},{"NoteNumber":94,"Velocity":44,"Duration":117799,"SoundDuration":117799,"Delta":24273426},{"NoteNumber":93,"Velocity":44,"Duration":117210,"SoundDuration":117210,"Delta":24391225},{"NoteNumber":84,"Velocity":47,"Duration":116725,"SoundDuration":116725,"Delta":24508436},{"NoteNumber":96,"Velocity":47,"Duration":116725,"SoundDuration":116725,"Delta":24508436},{"NoteNumber":56,"Velocity":46,"Duration":87568,"SoundDuration":87568,"Delta":24508436},{"NoteNumber":93,"Velocity":42,"Duration":116470,"SoundDuration":116470,"Delta":24625161},{"NoteNumber":63,"Velocity":40,"Duration":87229,"SoundDuration":87229,"Delta":24683473},{"NoteNumber":66,"Velocity":48,"Duration":87229,"SoundDuration":87229,"Delta":24683473},{"NoteNumber":92,"Velocity":42,"Duration":116174,"SoundDuration":116174,"Delta":24741631},{"NoteNumber":84,"Velocity":49,"Duration":115879,"SoundDuration":115879,"Delta":24857805},{"NoteNumber":96,"Velocity":49,"Duration":115879,"SoundDuration":115879,"Delta":24857805},{"NoteNumber":72,"Velocity":50,"Duration":86961,"SoundDuration":86961,"Delta":24857805},{"NoteNumber":92,"Velocity":46,"Duration":115586,"SoundDuration":115586,"Delta":24973684},{"NoteNumber":66,"Velocity":45,"Duration":86599,"SoundDuration":86599,"Delta":25031491},{"NoteNumber":71,"Velocity":53,"Duration":86599,"SoundDuration":86599,"Delta":25031491},{"NoteNumber":91,"Velocity":46,"Duration":115143,"SoundDuration":115143,"Delta":25089271},{"NoteNumber":84,"Velocity":51,"Duration":114513,"SoundDuration":114513,"Delta":25204415},{"NoteNumber":96,"Velocity":51,"Duration":114513,"SoundDuration":114513,"Delta":25204415},{"NoteNumber":63,"Velocity":46,"Duration":85940,"SoundDuration":85940,"Delta":25204415},{"NoteNumber":72,"Velocity":55,"Duration":85940,"SoundDuration":85940,"Delta":25204415},{"NoteNumber":91,"Velocity":47,"Duration":113849,"SoundDuration":113849,"Delta":25318928},{"NoteNumber":68,"Velocity":49,"Duration":85167,"SoundDuration":85167,"Delta":25375940},{"NoteNumber":73,"Velocity":58,"Duration":85167,"SoundDuration":85167,"Delta":25375940},{"NoteNumber":90,"Velocity":47,"Duration":113136,"SoundDuration":113136,"Delta":25432778},{"NoteNumber":84,"Velocity":53,"Duration":112500,"SoundDuration":112500,"Delta":25545915},{"NoteNumber":96,"Velocity":53,"Duration":112500,"SoundDuration":112500,"Delta":25545915},{"NoteNumber":66,"Velocity":51,"Duration":84420,"SoundDuration":84420,"Delta":25545915},{"NoteNumber":74,"Velocity":60,"Duration":84420,"SoundDuration":84420,"Delta":25545915},{"NoteNumber":90,"Velocity":49,"Duration":113149,"SoundDuration":113149,"Delta":25658415},{"NoteNumber":72,"Velocity":52,"Duration":89642,"SoundDuration":89642,"Delta":25714390},{"NoteNumber":75,"Velocity":62,"Duration":89642,"SoundDuration":89642,"Delta":25714390},{"NoteNumber":89,"Velocity":49,"Duration":129869,"SoundDuration":129869,"Delta":25771565},{"NoteNumber":88,"Velocity":55,"Duration":228729,"SoundDuration":228729,"Delta":25901435},{"NoteNumber":100,"Velocity":55,"Duration":171583,"SoundDuration":171583,"Delta":25901435},{"NoteNumber":64,"Velocity":55,"Duration":85864,"SoundDuration":85864,"Delta":25901435},{"NoteNumber":68,"Velocity":55,"Duration":85864,"SoundDuration":85864,"Delta":25901435},{"NoteNumber":76,"Velocity":65,"Duration":85864,"SoundDuration":85864,"Delta":25901435},{"NoteNumber":71,"Velocity":50,"Duration":88396,"SoundDuration":88396,"Delta":26073018},{"NoteNumber":78,"Velocity":59,"Duration":88396,"SoundDuration":88396,"Delta":26073018},{"NoteNumber":87,"Velocity":48,"Duration":125000,"SoundDuration":125000,"Delta":26130165},{"NoteNumber":92,"Velocity":51,"Duration":114830,"SoundDuration":114830,"Delta":26255165},{"NoteNumber":88,"Velocity":57,"Duration":114830,"SoundDuration":114830,"Delta":26255165},{"NoteNumber":76,"Velocity":50,"Duration":344070,"SoundDuration":344070,"Delta":26255165},{"NoteNumber":80,"Velocity":59,"Duration":344070,"SoundDuration":344070,"Delta":26255165},{"NoteNumber":87,"Velocity":52,"Duration":114619,"SoundDuration":114619,"Delta":26369995},{"NoteNumber":86,"Velocity":52,"Duration":114619,"SoundDuration":114619,"Delta":26484615},{"NoteNumber":85,"Velocity":51,"Duration":116456,"SoundDuration":116456,"Delta":26599235},{"NoteNumber":92,"Velocity":51,"Duration":116456,"SoundDuration":116456,"Delta":26599235},{"NoteNumber":65,"Velocity":46,"Duration":87719,"SoundDuration":87719,"Delta":26599235},{"NoteNumber":68,"Velocity":55,"Duration":87719,"SoundDuration":87719,"Delta":26599235},{"NoteNumber":84,"Velocity":47,"Duration":115278,"SoundDuration":115278,"Delta":26715691},{"NoteNumber":72,"Velocity":58,"Duration":86000,"SoundDuration":86000,"Delta":26773543},{"NoteNumber":83,"Velocity":47,"Duration":114292,"SoundDuration":114292,"Delta":26830970},{"NoteNumber":82,"Velocity":54,"Duration":86417,"SoundDuration":86417,"Delta":26945262},{"NoteNumber":92,"Velocity":54,"Duration":115237,"SoundDuration":115237,"Delta":26945262},{"NoteNumber":68,"Velocity":52,"Duration":86417,"SoundDuration":86417,"Delta":26945262},{"NoteNumber":73,"Velocity":61,"Duration":86417,"SoundDuration":86417,"Delta":26945262},{"NoteNumber":83,"Velocity":55,"Duration":86460,"SoundDuration":86460,"Delta":27031679},{"NoteNumber":84,"Velocity":55,"Duration":90289,"SoundDuration":90289,"Delta":27118140},{"NoteNumber":71,"Velocity":54,"Duration":90289,"SoundDuration":90289,"Delta":27118140},{"NoteNumber":74,"Velocity":65,"Duration":90289,"SoundDuration":90289,"Delta":27118140},{"NoteNumber":88,"Velocity":56,"Duration":97402,"SoundDuration":97402,"Delta":27208429},{"NoteNumber":96,"Velocity":64,"Duration":175438,"SoundDuration":175438,"Delta":27305832},{"NoteNumber":60,"Velocity":64,"Duration":87719,"SoundDuration":87719,"Delta":27305832},{"NoteNumber":67,"Velocity":75,"Duration":87719,"SoundDuration":87719,"Delta":27305832},{"NoteNumber":67,"Velocity":59,"Duration":89729,"SoundDuration":89729,"Delta":27481270},{"NoteNumber":75,"Velocity":69,"Duration":89729,"SoundDuration":89729,"Delta":27481270},{"NoteNumber":83,"Velocity":57,"Duration":125000,"SoundDuration":125000,"Delta":27539750},{"NoteNumber":88,"Velocity":63,"Duration":116617,"SoundDuration":116617,"Delta":27664750},{"NoteNumber":84,"Velocity":63,"Duration":116617,"SoundDuration":116617,"Delta":27664750},{"NoteNumber":72,"Velocity":55,"Duration":349854,"SoundDuration":349854,"Delta":27664750},{"NoteNumber":76,"Velocity":65,"Duration":349854,"SoundDuration":349854,"Delta":27664750},{"NoteNumber":85,"Velocity":58,"Duration":116618,"SoundDuration":116618,"Delta":27781368},{"NoteNumber":86,"Velocity":58,"Duration":116617,"SoundDuration":116617,"Delta":27897986},{"NoteNumber":93,"Velocity":82,"Duration":1018188,"SoundDuration":1018188,"Delta":28014604},{"NoteNumber":87,"Velocity":78,"Duration":111117,"SoundDuration":111117,"Delta":28014604},{"NoteNumber":65,"Velocity":63,"Duration":166675,"SoundDuration":166675,"Delta":28014604},{"NoteNumber":69,"Velocity":63,"Duration":166675,"SoundDuration":166675,"Delta":28014604},{"NoteNumber":75,"Velocity":80,"Duration":166675,"SoundDuration":166675,"Delta":28014604},{"NoteNumber":81,"Velocity":64,"Duration":112379,"SoundDuration":112379,"Delta":28125721},{"NoteNumber":61,"Velocity":67,"Duration":85232,"SoundDuration":85232,"Delta":28181280},{"NoteNumber":85,"Velocity":62,"Duration":113642,"SoundDuration":113642,"Delta":28238101},{"NoteNumber":86,"Velocity":79,"Duration":110809,"SoundDuration":110809,"Delta":28351744},{"NoteNumber":66,"Velocity":60,"Duration":166214,"SoundDuration":166214,"Delta":28351744},{"NoteNumber":69,"Velocity":60,"Duration":166214,"SoundDuration":166214,"Delta":28351744},{"NoteNumber":74,"Velocity":78,"Duration":166214,"SoundDuration":166214,"Delta":28351744},{"NoteNumber":78,"Velocity":61,"Duration":113041,"SoundDuration":113041,"Delta":28462553},{"NoteNumber":62,"Velocity":66,"Duration":86455,"SoundDuration":86455,"Delta":28517958},{"NoteNumber":84,"Velocity":60,"Duration":115273,"SoundDuration":115273,"Delta":28575595},{"NoteNumber":85,"Velocity":74,"Duration":112676,"SoundDuration":112676,"Delta":28690868},{"NoteNumber":65,"Velocity":59,"Duration":169014,"SoundDuration":169014,"Delta":28690868},{"NoteNumber":69,"Velocity":59,"Duration":169014,"SoundDuration":169014,"Delta":28690868},{"NoteNumber":73,"Velocity":74,"Duration":169014,"SoundDuration":169014,"Delta":28690868},{"NoteNumber":77,"Velocity":58,"Duration":113974,"SoundDuration":113974,"Delta":28803544},{"NoteNumber":63,"Velocity":64,"Duration":86455,"SoundDuration":86455,"Delta":28859882},{"NoteNumber":79,"Velocity":58,"Duration":115273,"SoundDuration":115273,"Delta":28917519},{"NoteNumber":84,"Velocity":78,"Duration":173440,"SoundDuration":173440,"Delta":29032793},{"NoteNumber":80,"Velocity":73,"Duration":115509,"SoundDuration":115509,"Delta":29032793},{"NoteNumber":64,"Velocity":50,"Duration":173440,"SoundDuration":173440,"Delta":29032793},{"NoteNumber":69,"Velocity":50,"Duration":173440,"SoundDuration":173440,"Delta":29032793},{"NoteNumber":72,"Velocity":63,"Duration":173440,"SoundDuration":173440,"Delta":29032793},{"NoteNumber":81,"Velocity":55,"Duration":116053,"SoundDuration":116053,"Delta":29148302},{"NoteNumber":57,"Velocity":52,"Duration":87277,"SoundDuration":87277,"Delta":29206234},{"NoteNumber":82,"Velocity":55,"Duration":116837,"SoundDuration":116837,"Delta":29264356},{"NoteNumber":88,"Velocity":77,"Duration":1091443,"SoundDuration":1091443,"Delta":29381194},{"NoteNumber":83,"Velocity":68,"Duration":117636,"SoundDuration":117636,"Delta":29381194},{"NoteNumber":62,"Velocity":54,"Duration":176725,"SoundDuration":176725,"Delta":29381194},{"NoteNumber":64,"Velocity":54,"Duration":176725,"SoundDuration":176725,"Delta":29381194},{"NoteNumber":68,"Velocity":54,"Duration":176725,"SoundDuration":176725,"Delta":29381194},{"NoteNumber":71,"Velocity":66,"Duration":176725,"SoundDuration":176725,"Delta":29381194},{"NoteNumber":76,"Velocity":53,"Duration":118402,"SoundDuration":118402,"Delta":29498831},{"NoteNumber":59,"Velocity":54,"Duration":89049,"SoundDuration":89049,"Delta":29557919},{"NoteNumber":81,"Velocity":51,"Duration":119207,"SoundDuration":119207,"Delta":29617234},{"NoteNumber":82,"Velocity":63,"Duration":122699,"SoundDuration":122699,"Delta":29736442},{"NoteNumber":61,"Velocity":46,"Duration":184049,"SoundDuration":184049,"Delta":29736442},{"NoteNumber":64,"Velocity":46,"Duration":184049,"SoundDuration":184049,"Delta":29736442},{"NoteNumber":67,"Velocity":46,"Duration":184049,"SoundDuration":184049,"Delta":29736442},{"NoteNumber":70,"Velocity":54,"Duration":184049,"SoundDuration":184049,"Delta":29736442},{"NoteNumber":79,"Velocity":49,"Duration":122699,"SoundDuration":122699,"Delta":29859141},{"NoteNumber":60,"Velocity":48,"Duration":552146,"SoundDuration":552146,"Delta":29920491},{"NoteNumber":80,"Velocity":49,"Duration":122699,"SoundDuration":122699,"Delta":29981840},{"NoteNumber":81,"Velocity":58,"Duration":245398,"SoundDuration":245398,"Delta":30104540},{"NoteNumber":64,"Velocity":61,"Duration":368097,"SoundDuration":368097,"Delta":30104540},{"NoteNumber":69,"Velocity":61,"Duration":368097,"SoundDuration":368097,"Delta":30104540},{"NoteNumber":80,"Velocity":46,"Duration":122699,"SoundDuration":122699,"Delta":30349938},{"NoteNumber":84,"Velocity":59,"Duration":348873,"SoundDuration":348873,"Delta":30472638},{"NoteNumber":81,"Velocity":50,"Duration":117301,"SoundDuration":117301,"Delta":30472638},{"NoteNumber":64,"Velocity":56,"Duration":87976,"SoundDuration":87976,"Delta":30472638},{"NoteNumber":69,"Velocity":56,"Duration":87976,"SoundDuration":87976,"Delta":30472638},{"NoteNumber":80,"Velocity":45,"Duration":116291,"SoundDuration":116291,"Delta":30589940},{"NoteNumber":60,"Velocity":46,"Duration":1401495,"SoundDuration":1401495,"Delta":30648591},{"NoteNumber":79,"Velocity":45,"Duration":115280,"SoundDuration":115280,"Delta":30706231},{"NoteNumber":84,"Velocity":59,"Duration":356406,"SoundDuration":356406,"Delta":30821511},{"NoteNumber":78,"Velocity":50,"Duration":115280,"SoundDuration":115280,"Delta":30821511},{"NoteNumber":64,"Velocity":53,"Duration":86460,"SoundDuration":86460,"Delta":30821511},{"NoteNumber":68,"Velocity":53,"Duration":86460,"SoundDuration":86460,"Delta":30821511},{"NoteNumber":77,"Velocity":44,"Duration":118802,"SoundDuration":118802,"Delta":30936791},{"NoteNumber":59,"Velocity":43,"Duration":183486,"SoundDuration":183486,"Delta":30994432},{"NoteNumber":76,"Velocity":44,"Duration":122324,"SoundDuration":122324,"Delta":31055594},{"NoteNumber":75,"Velocity":50,"Duration":116959,"SoundDuration":116959,"Delta":31177918},{"NoteNumber":84,"Velocity":59,"Duration":350876,"SoundDuration":350876,"Delta":31177918},{"NoteNumber":64,"Velocity":53,"Duration":87719,"SoundDuration":87719,"Delta":31177918},{"NoteNumber":67,"Velocity":53,"Duration":87719,"SoundDuration":87719,"Delta":31177918},{"NoteNumber":76,"Velocity":47,"Duration":116959,"SoundDuration":116959,"Delta":31294877},{"NoteNumber":58,"Velocity":43,"Duration":175438,"SoundDuration":175438,"Delta":31353356},{"NoteNumber":77,"Velocity":44,"Duration":116958,"SoundDuration":116958,"Delta":31411836},{"NoteNumber":78,"Velocity":50,"Duration":116959,"SoundDuration":116959,"Delta":31528795},{"NoteNumber":87,"Velocity":59,"Duration":347368,"SoundDuration":347368,"Delta":31528795},{"NoteNumber":63,"Velocity":54,"Duration":87719,"SoundDuration":87719,"Delta":31528795},{"NoteNumber":66,"Velocity":54,"Duration":87719,"SoundDuration":87719,"Delta":31528795},{"NoteNumber":77,"Velocity":46,"Duration":115789,"SoundDuration":115789,"Delta":31645754},{"NoteNumber":57,"Velocity":46,"Duration":85964,"SoundDuration":85964,"Delta":31704233},{"NoteNumber":76,"Velocity":46,"Duration":114619,"SoundDuration":114619,"Delta":31761543},{"NoteNumber":80,"Velocity":59,"Duration":347845,"SoundDuration":347845,"Delta":31876163},{"NoteNumber":75,"Velocity":50,"Duration":115948,"SoundDuration":115948,"Delta":31876163},{"NoteNumber":48,"Velocity":56,"Duration":86961,"SoundDuration":86961,"Delta":31876163},{"NoteNumber":56,"Velocity":56,"Duration":86961,"SoundDuration":86961,"Delta":31876163},{"NoteNumber":74,"Velocity":45,"Duration":115948,"SoundDuration":115948,"Delta":31992111},{"NoteNumber":60,"Velocity":46,"Duration":1402229,"SoundDuration":1402229,"Delta":32050086},{"NoteNumber":73,"Velocity":45,"Duration":115948,"SoundDuration":115948,"Delta":32108060},{"NoteNumber":80,"Velocity":59,"Duration":357409,"SoundDuration":357409,"Delta":32224009},{"NoteNumber":72,"Velocity":50,"Duration":115948,"SoundDuration":115948,"Delta":32224009},{"NoteNumber":65,"Velocity":53,"Duration":86961,"SoundDuration":86961,"Delta":32224009},{"NoteNumber":70,"Velocity":44,"Duration":119136,"SoundDuration":119136,"Delta":32339957},{"NoteNumber":56,"Velocity":43,"Duration":183486,"SoundDuration":183486,"Delta":32397932},{"NoteNumber":71,"Velocity":44,"Duration":122323,"SoundDuration":122323,"Delta":32459094},{"NoteNumber":72,"Velocity":50,"Duration":116959,"SoundDuration":116959,"Delta":32581418},{"NoteNumber":80,"Velocity":59,"Duration":350876,"SoundDuration":350876,"Delta":32581418},{"NoteNumber":63,"Velocity":53,"Duration":87719,"SoundDuration":87719,"Delta":32581418},{"NoteNumber":73,"Velocity":47,"Duration":116959,"SoundDuration":116959,"Delta":32698377},{"NoteNumber":55,"Velocity":43,"Duration":175438,"SoundDuration":175438,"Delta":32756856},{"NoteNumber":74,"Velocity":44,"Duration":116958,"SoundDuration":116958,"Delta":32815336},{"NoteNumber":75,"Velocity":50,"Duration":116539,"SoundDuration":116539,"Delta":32932295},{"NoteNumber":84,"Velocity":59,"Duration":347100,"SoundDuration":347100,"Delta":32932295},{"NoteNumber":63,"Velocity":54,"Duration":87719,"SoundDuration":87719,"Delta":32932295},{"NoteNumber":74,"Velocity":46,"Duration":115280,"SoundDuration":115280,"Delta":33048834},{"NoteNumber":54,"Velocity":46,"Duration":86460,"SoundDuration":86460,"Delta":33106474},{"NoteNumber":73,"Velocity":46,"Duration":115280,"SoundDuration":115280,"Delta":33164114},{"NoteNumber":72,"Velocity":59,"Duration":230560,"SoundDuration":230560,"Delta":33279395},{"NoteNumber":75,"Velocity":59,"Duration":358064,"SoundDuration":358064,"Delta":33279395},{"NoteNumber":79,"Velocity":59,"Duration":358064,"SoundDuration":358064,"Delta":33279395},{"NoteNumber":55,"Velocity":49,"Duration":115280,"SoundDuration":115280,"Delta":33279395},{"NoteNumber":47,"Velocity":42,"Duration":115280,"SoundDuration":115280,"Delta":33394675},{"NoteNumber":67,"Velocity":59,"Duration":127504,"SoundDuration":127504,"Delta":33509955},{"NoteNumber":48,"Velocity":42,"Duration":127504,"SoundDuration":127504,"Delta":33509955},{"NoteNumber":70,"Velocity":45,"Duration":400219,"SoundDuration":400219,"Delta":33588118},{"NoteNumber":75,"Velocity":47,"Duration":383771,"SoundDuration":383771,"Delta":33604565},{"NoteNumber":79,"Velocity":49,"Duration":367324,"SoundDuration":367324,"Delta":33621012},{"NoteNumber":82,"Velocity":59,"Duration":350876,"SoundDuration":350876,"Delta":33637460},{"NoteNumber":41,"Velocity":49,"Duration":116959,"SoundDuration":116959,"Delta":33637460},{"NoteNumber":49,"Velocity":42,"Duration":116959,"SoundDuration":116959,"Delta":33754419},{"NoteNumber":53,"Velocity":42,"Duration":116958,"SoundDuration":116958,"Delta":33871378},{"NoteNumber":68,"Velocity":53,"Duration":318502,"SoundDuration":318502,"Delta":33988337},{"NoteNumber":73,"Velocity":53,"Duration":318502,"SoundDuration":318502,"Delta":33988337},{"NoteNumber":77,"Velocity":53,"Duration":318502,"SoundDuration":318502,"Delta":33988337},{"NoteNumber":56,"Velocity":48,"Duration":119047,"SoundDuration":119047,"Delta":33988337},{"NoteNumber":61,"Velocity":42,"Duration":116180,"SoundDuration":116180,"Delta":34107384},{"NoteNumber":60,"Velocity":42,"Duration":138218,"SoundDuration":138218,"Delta":34223565},{"NoteNumber":65,"Velocity":43,"Duration":411049,"SoundDuration":411049,"Delta":34306839},{"NoteNumber":68,"Velocity":45,"Duration":397312,"SoundDuration":397312,"Delta":34320575},{"NoteNumber":73,"Velocity":48,"Duration":383576,"SoundDuration":383576,"Delta":34334311},{"NoteNumber":77,"Velocity":52,"Duration":369840,"SoundDuration":369840,"Delta":34348048},{"NoteNumber":80,"Velocity":64,"Duration":356104,"SoundDuration":356104,"Delta":34361784},{"NoteNumber":59,"Velocity":55,"Duration":118701,"SoundDuration":118701,"Delta":34361784},{"NoteNumber":56,"Velocity":41,"Duration":118701,"SoundDuration":118701,"Delta":34480485},{"NoteNumber":53,"Velocity":41,"Duration":118701,"SoundDuration":118701,"Delta":34599187},{"NoteNumber":67,"Velocity":51,"Duration":366742,"SoundDuration":366742,"Delta":34717888},{"NoteNumber":72,"Velocity":51,"Duration":366742,"SoundDuration":366742,"Delta":34717888},{"NoteNumber":76,"Velocity":51,"Duration":366742,"SoundDuration":366742,"Delta":34717888},{"NoteNumber":52,"Velocity":49,"Duration":118701,"SoundDuration":118701,"Delta":34717888},{"NoteNumber":48,"Velocity":40,"Duration":122247,"SoundDuration":122247,"Delta":34836589},{"NoteNumber":43,"Velocity":40,"Duration":247013,"SoundDuration":247013,"Delta":34958837},{"NoteNumber":72,"Velocity":48,"Duration":363658,"SoundDuration":363658,"Delta":35084631},{"NoteNumber":65,"Velocity":48,"Duration":753031,"SoundDuration":753031,"Delta":35084631},{"NoteNumber":67,"Velocity":48,"Duration":753031,"SoundDuration":753031,"Delta":35084631},{"NoteNumber":79,"Velocity":57,"Duration":753031,"SoundDuration":753031,"Delta":35084631},{"NoteNumber":77,"Velocity":48,"Duration":753031,"SoundDuration":753031,"Delta":35084631},{"NoteNumber":50,"Velocity":47,"Duration":121219,"SoundDuration":121219,"Delta":35084631},{"NoteNumber":56,"Velocity":34,"Duration":121219,"SoundDuration":121219,"Delta":35205850},{"NoteNumber":57,"Velocity":34,"Duration":121219,"SoundDuration":121219,"Delta":35327070},{"NoteNumber":74,"Velocity":49,"Duration":389373,"SoundDuration":389373,"Delta":35448289},{"NoteNumber":58,"Velocity":45,"Duration":125793,"SoundDuration":125793,"Delta":35448289},{"NoteNumber":59,"Velocity":34,"Duration":129791,"SoundDuration":129791,"Delta":35574083},{"NoteNumber":67,"Velocity":35,"Duration":133788,"SoundDuration":133788,"Delta":35703874},{"NoteNumber":72,"Velocity":42,"Duration":390904,"SoundDuration":390904,"Delta":35837662},{"NoteNumber":64,"Velocity":46,"Duration":390904,"SoundDuration":390904,"Delta":35837662},{"NoteNumber":60,"Velocity":46,"Duration":390904,"SoundDuration":390904,"Delta":35837662},{"NoteNumber":24,"Velocity":64,"Duration":70753,"SoundDuration":70753,"Delta":36228567},{"NoteNumber":36,"Velocity":64,"Duration":69578,"SoundDuration":69578,"Delta":36299321},{"NoteNumber":43,"Velocity":60,"Duration":68620,"SoundDuration":68620,"Delta":36368899},{"NoteNumber":48,"Velocity":65,"Duration":67609,"SoundDuration":67609,"Delta":36437520},{"NoteNumber":52,"Velocity":67,"Duration":66601,"SoundDuration":66601,"Delta":36505129},{"NoteNumber":55,"Velocity":70,"Duration":65688,"SoundDuration":65688,"Delta":36571730},{"NoteNumber":44,"Velocity":73,"Duration":884123,"SoundDuration":884123,"Delta":36637418},{"NoteNumber":56,"Velocity":79,"Duration":1511921,"SoundDuration":1511921,"Delta":36637418},{"NoteNumber":61,"Velocity":37,"Duration":64737,"SoundDuration":64737,"Delta":36896368},{"NoteNumber":64,"Velocity":43,"Duration":64737,"SoundDuration":64737,"Delta":36896368},{"NoteNumber":61,"Velocity":41,"Duration":118962,"SoundDuration":118962,"Delta":37025843},{"NoteNumber":64,"Velocity":48,"Duration":118962,"SoundDuration":118962,"Delta":37025843},{"NoteNumber":49,"Velocity":42,"Duration":118962,"SoundDuration":118962,"Delta":37025843},{"NoteNumber":60,"Velocity":44,"Duration":59481,"SoundDuration":59481,"Delta":37144806},{"NoteNumber":48,"Velocity":40,"Duration":59481,"SoundDuration":59481,"Delta":37144806},{"NoteNumber":61,"Velocity":38,"Duration":69184,"SoundDuration":69184,"Delta":37263768},{"NoteNumber":65,"Velocity":45,"Duration":69184,"SoundDuration":69184,"Delta":37263768},{"NoteNumber":47,"Velocity":41,"Duration":69184,"SoundDuration":69184,"Delta":37263768},{"NoteNumber":61,"Velocity":45,"Duration":119402,"SoundDuration":119402,"Delta":37402138},{"NoteNumber":65,"Velocity":52,"Duration":119402,"SoundDuration":119402,"Delta":37402138},{"NoteNumber":46,"Velocity":46,"Duration":119402,"SoundDuration":119402,"Delta":37402138},{"NoteNumber":60,"Velocity":47,"Duration":59701,"SoundDuration":59701,"Delta":37521541},{"NoteNumber":45,"Velocity":43,"Duration":59701,"SoundDuration":59701,"Delta":37521541},{"NoteNumber":62,"Velocity":41,"Duration":68596,"SoundDuration":68596,"Delta":37640944},{"NoteNumber":66,"Velocity":48,"Duration":68596,"SoundDuration":68596,"Delta":37640944},{"NoteNumber":44,"Velocity":44,"Duration":137192,"SoundDuration":137192,"Delta":37640944},{"NoteNumber":62,"Velocity":48,"Duration":117295,"SoundDuration":117295,"Delta":37778137},{"NoteNumber":66,"Velocity":56,"Duration":117295,"SoundDuration":117295,"Delta":37778137},{"NoteNumber":36,"Velocity":50,"Duration":117295,"SoundDuration":117295,"Delta":37778137},{"NoteNumber":60,"Velocity":49,"Duration":58647,"SoundDuration":58647,"Delta":37895433},{"NoteNumber":44,"Velocity":43,"Duration":58647,"SoundDuration":58647,"Delta":37895433},{"NoteNumber":63,"Velocity":43,"Duration":68305,"SoundDuration":68305,"Delta":38012728},{"NoteNumber":67,"Velocity":51,"Duration":68305,"SoundDuration":68305,"Delta":38012728},{"NoteNumber":51,"Velocity":45,"Duration":68305,"SoundDuration":68305,"Delta":38012728},{"NoteNumber":63,"Velocity":51,"Duration":115600,"SoundDuration":115600,"Delta":38149340},{"NoteNumber":67,"Velocity":60,"Duration":115600,"SoundDuration":115600,"Delta":38149340},{"NoteNumber":60,"Velocity":52,"Duration":115600,"SoundDuration":115600,"Delta":38149340},{"NoteNumber":62,"Velocity":52,"Duration":57633,"SoundDuration":57633,"Delta":38264940},{"NoteNumber":58,"Velocity":46,"Duration":57633,"SoundDuration":57633,"Delta":38264940},{"NoteNumber":63,"Velocity":44,"Duration":67732,"SoundDuration":67732,"Delta":38380207},{"NoteNumber":67,"Velocity":53,"Duration":67732,"SoundDuration":67732,"Delta":38380207},{"NoteNumber":56,"Velocity":50,"Duration":67732,"SoundDuration":67732,"Delta":38380207},{"NoteNumber":64,"Velocity":53,"Duration":112988,"SoundDuration":112988,"Delta":38515672},{"NoteNumber":67,"Velocity":63,"Duration":112988,"SoundDuration":112988,"Delta":38515672},{"NoteNumber":55,"Velocity":56,"Duration":112988,"SoundDuration":112988,"Delta":38515672},{"NoteNumber":62,"Velocity":56,"Duration":112988,"SoundDuration":112988,"Delta":38628660},{"NoteNumber":53,"Velocity":51,"Duration":112988,"SoundDuration":112988,"Delta":38628660},{"NoteNumber":64,"Velocity":47,"Duration":498278,"SoundDuration":498278,"Delta":38741648},{"NoteNumber":67,"Velocity":56,"Duration":498278,"SoundDuration":498278,"Delta":38741648},{"NoteNumber":52,"Velocity":52,"Duration":139850,"SoundDuration":139850,"Delta":38741648},{"NoteNumber":60,"Velocity":67,"Duration":358428,"SoundDuration":358428,"Delta":38881498},{"NoteNumber":72,"Velocity":81,"Duration":358428,"SoundDuration":358428,"Delta":38881498},{"NoteNumber":52,"Velocity":63,"Duration":118962,"SoundDuration":118962,"Delta":38881498},{"NoteNumber":43,"Velocity":54,"Duration":118962,"SoundDuration":118962,"Delta":39000461},{"NoteNumber":36,"Velocity":56,"Duration":120502,"SoundDuration":120502,"Delta":39119424},{"NoteNumber":43,"Velocity":65,"Duration":93202,"SoundDuration":93202,"Delta":39239926},{"NoteNumber":48,"Velocity":65,"Duration":91732,"SoundDuration":91732,"Delta":39333129},{"NoteNumber":52,"Velocity":65,"Duration":90307,"SoundDuration":90307,"Delta":39424862},{"NoteNumber":55,"Velocity":66,"Duration":88923,"SoundDuration":88923,"Delta":39515169},{"NoteNumber":46,"Velocity":80,"Duration":857006,"SoundDuration":857006,"Delta":39604093},{"NoteNumber":58,"Velocity":90,"Duration":1489006,"SoundDuration":1489006,"Delta":39604093},{"NoteNumber":63,"Velocity":40,"Duration":59923,"SoundDuration":59923,"Delta":39843786},{"NoteNumber":67,"Velocity":46,"Duration":59923,"SoundDuration":59923,"Delta":39843786},{"NoteNumber":63,"Velocity":44,"Duration":119846,"SoundDuration":119846,"Delta":39963633},{"NoteNumber":67,"Velocity":52,"Duration":119846,"SoundDuration":119846,"Delta":39963633},{"NoteNumber":51,"Velocity":46,"Duration":119846,"SoundDuration":119846,"Delta":39963633},{"NoteNumber":62,"Velocity":48,"Duration":59923,"SoundDuration":59923,"Delta":40083479},{"NoteNumber":50,"Velocity":44,"Duration":59923,"SoundDuration":59923,"Delta":40083479},{"NoteNumber":64,"Velocity":41,"Duration":69184,"SoundDuration":69184,"Delta":40203326},{"NoteNumber":68,"Velocity":49,"Duration":69184,"SoundDuration":69184,"Delta":40203326},{"NoteNumber":49,"Velocity":44,"Duration":69184,"SoundDuration":69184,"Delta":40203326},{"NoteNumber":64,"Velocity":48,"Duration":119402,"SoundDuration":119402,"Delta":40341696},{"NoteNumber":68,"Velocity":56,"Duration":119402,"SoundDuration":119402,"Delta":40341696},{"NoteNumber":48,"Velocity":50,"Duration":119402,"SoundDuration":119402,"Delta":40341696},{"NoteNumber":62,"Velocity":51,"Duration":59701,"SoundDuration":59701,"Delta":40461099},{"NoteNumber":46,"Velocity":47,"Duration":59701,"SoundDuration":59701,"Delta":40461099},{"NoteNumber":65,"Velocity":44,"Duration":68596,"SoundDuration":68596,"Delta":40580502},{"NoteNumber":69,"Velocity":52,"Duration":68596,"SoundDuration":68596,"Delta":40580502},{"NoteNumber":45,"Velocity":48,"Duration":256588,"SoundDuration":256588,"Delta":40580502},{"NoteNumber":65,"Velocity":50,"Duration":119396,"SoundDuration":119396,"Delta":40717695},{"NoteNumber":69,"Velocity":60,"Duration":119396,"SoundDuration":119396,"Delta":40717695},{"NoteNumber":57,"Velocity":55,"Duration":375404,"SoundDuration":375404,"Delta":40717695},{"NoteNumber":62,"Velocity":53,"Duration":59697,"SoundDuration":59697,"Delta":40837091},{"NoteNumber":46,"Velocity":47,"Duration":59697,"SoundDuration":59697,"Delta":40837091},{"NoteNumber":66,"Velocity":46,"Duration":68305,"SoundDuration":68305,"Delta":40956487},{"NoteNumber":70,"Velocity":55,"Duration":68305,"SoundDuration":68305,"Delta":40956487},{"NoteNumber":45,"Velocity":49,"Duration":68305,"SoundDuration":68305,"Delta":40956487},{"NoteNumber":66,"Velocity":54,"Duration":116965,"SoundDuration":116965,"Delta":41093099},{"NoteNumber":70,"Velocity":64,"Duration":116965,"SoundDuration":116965,"Delta":41093099},{"NoteNumber":44,"Velocity":56,"Duration":116965,"SoundDuration":116965,"Delta":41093099},{"NoteNumber":62,"Velocity":56,"Duration":58483,"SoundDuration":58483,"Delta":41210065},{"NoteNumber":43,"Velocity":49,"Duration":620940,"SoundDuration":620940,"Delta":41210065},{"NoteNumber":66,"Velocity":47,"Duration":67732,"SoundDuration":67732,"Delta":41327031},{"NoteNumber":71,"Velocity":57,"Duration":67732,"SoundDuration":67732,"Delta":41327031},{"NoteNumber":56,"Velocity":54,"Duration":67732,"SoundDuration":67732,"Delta":41327031},{"NoteNumber":67,"Velocity":58,"Duration":115948,"SoundDuration":115948,"Delta":41462496},{"NoteNumber":71,"Velocity":69,"Duration":115948,"SoundDuration":115948,"Delta":41462496},{"NoteNumber":55,"Velocity":60,"Duration":115948,"SoundDuration":115948,"Delta":41462496},{"NoteNumber":62,"Velocity":60,"Duration":115948,"SoundDuration":115948,"Delta":41578444},{"NoteNumber":53,"Velocity":55,"Duration":115948,"SoundDuration":115948,"Delta":41578444},{"NoteNumber":67,"Velocity":50,"Duration":539296,"SoundDuration":539296,"Delta":41694393},{"NoteNumber":71,"Velocity":60,"Duration":136611,"SoundDuration":136611,"Delta":41694393},{"NoteNumber":52,"Velocity":56,"Duration":136611,"SoundDuration":136611,"Delta":41694393},{"NoteNumber":64,"Velocity":72,"Duration":402684,"SoundDuration":402684,"Delta":41831005},{"NoteNumber":72,"Velocity":69,"Duration":402684,"SoundDuration":402684,"Delta":41831005},{"NoteNumber":76,"Velocity":88,"Duration":402684,"SoundDuration":402684,"Delta":41831005},{"NoteNumber":52,"Velocity":69,"Duration":402684,"SoundDuration":402684,"Delta":41831005},{"NoteNumber":43,"Velocity":58,"Duration":134228,"SoundDuration":134228,"Delta":41965233},{"NoteNumber":36,"Velocity":60,"Duration":134228,"SoundDuration":134228,"Delta":42099462},{"NoteNumber":43,"Velocity":63,"Duration":93202,"SoundDuration":93202,"Delta":42233690},{"NoteNumber":48,"Velocity":66,"Duration":91732,"SoundDuration":91732,"Delta":42326892},{"NoteNumber":24,"Velocity":57,"Duration":179231,"SoundDuration":179231,"Delta":42418625},{"NoteNumber":36,"Velocity":68,"Duration":179231,"SoundDuration":179231,"Delta":42418625},{"NoteNumber":52,"Velocity":68,"Duration":90307,"SoundDuration":90307,"Delta":42418625},{"NoteNumber":55,"Velocity":69,"Duration":88923,"SoundDuration":88923,"Delta":42508933},{"NoteNumber":58,"Velocity":67,"Duration":626350,"SoundDuration":626350,"Delta":42597856},{"NoteNumber":53,"Velocity":67,"Duration":626350,"SoundDuration":626350,"Delta":42597856},{"NoteNumber":50,"Velocity":67,"Duration":626350,"SoundDuration":626350,"Delta":42597856},{"NoteNumber":62,"Velocity":67,"Duration":626350,"SoundDuration":626350,"Delta":42597856},{"NoteNumber":67,"Velocity":43,"Duration":129474,"SoundDuration":129474,"Delta":42856806},{"NoteNumber":70,"Velocity":50,"Duration":129474,"SoundDuration":129474,"Delta":42856806},{"NoteNumber":67,"Velocity":47,"Duration":118962,"SoundDuration":118962,"Delta":42986281},{"NoteNumber":70,"Velocity":56,"Duration":118962,"SoundDuration":118962,"Delta":42986281},{"NoteNumber":65,"Velocity":51,"Duration":59481,"SoundDuration":59481,"Delta":43105244},{"NoteNumber":68,"Velocity":44,"Duration":69184,"SoundDuration":69184,"Delta":43224207},{"NoteNumber":71,"Velocity":52,"Duration":69184,"SoundDuration":69184,"Delta":43224207},{"NoteNumber":44,"Velocity":47,"Duration":138369,"SoundDuration":138369,"Delta":43224207},{"NoteNumber":68,"Velocity":53,"Duration":118350,"SoundDuration":118350,"Delta":43362577},{"NoteNumber":71,"Velocity":61,"Duration":118350,"SoundDuration":118350,"Delta":43362577},{"NoteNumber":53,"Velocity":55,"Duration":236700,"SoundDuration":236700,"Delta":43362577},{"NoteNumber":61,"Velocity":58,"Duration":236700,"SoundDuration":236700,"Delta":43362577},{"NoteNumber":65,"Velocity":56,"Duration":59175,"SoundDuration":59175,"Delta":43480927},{"NoteNumber":69,"Velocity":48,"Duration":68596,"SoundDuration":68596,"Delta":43599277},{"NoteNumber":72,"Velocity":57,"Duration":68596,"SoundDuration":68596,"Delta":43599277},{"NoteNumber":45,"Velocity":52,"Duration":137192,"SoundDuration":137192,"Delta":43599277},{"NoteNumber":69,"Velocity":56,"Duration":116611,"SoundDuration":116611,"Delta":43736470},{"NoteNumber":72,"Velocity":66,"Duration":116611,"SoundDuration":116611,"Delta":43736470},{"NoteNumber":51,"Velocity":59,"Duration":233222,"SoundDuration":233222,"Delta":43736470},{"NoteNumber":60,"Velocity":63,"Duration":233222,"SoundDuration":233222,"Delta":43736470},{"NoteNumber":65,"Velocity":58,"Duration":58305,"SoundDuration":58305,"Delta":43853082},{"NoteNumber":70,"Velocity":50,"Duration":68305,"SoundDuration":68305,"Delta":43969693},{"NoteNumber":73,"Velocity":61,"Duration":68305,"SoundDuration":68305,"Delta":43969693},{"NoteNumber":41,"Velocity":49,"Duration":136611,"SoundDuration":136611,"Delta":43969693},{"NoteNumber":70,"Velocity":54,"Duration":114606,"SoundDuration":114606,"Delta":44106305},{"NoteNumber":73,"Velocity":63,"Duration":114606,"SoundDuration":114606,"Delta":44106305},{"NoteNumber":49,"Velocity":56,"Duration":229213,"SoundDuration":229213,"Delta":44106305},{"NoteNumber":58,"Velocity":60,"Duration":229213,"SoundDuration":229213,"Delta":44106305},{"NoteNumber":65,"Velocity":58,"Duration":57303,"SoundDuration":57303,"Delta":44220912},{"NoteNumber":71,"Velocity":50,"Duration":68596,"SoundDuration":68596,"Delta":44335518},{"NoteNumber":74,"Velocity":59,"Duration":68596,"SoundDuration":68596,"Delta":44335518},{"NoteNumber":44,"Velocity":54,"Duration":137192,"SoundDuration":137192,"Delta":44335518},{"NoteNumber":71,"Velocity":59,"Duration":122699,"SoundDuration":122699,"Delta":44472711},{"NoteNumber":74,"Velocity":69,"Duration":122699,"SoundDuration":122699,"Delta":44472711},{"NoteNumber":47,"Velocity":63,"Duration":245398,"SoundDuration":245398,"Delta":44472711},{"NoteNumber":56,"Velocity":67,"Duration":245398,"SoundDuration":245398,"Delta":44472711},{"NoteNumber":65,"Velocity":62,"Duration":61349,"SoundDuration":61349,"Delta":44595411},{"NoteNumber":72,"Velocity":55,"Duration":68305,"SoundDuration":68305,"Delta":44718110},{"NoteNumber":75,"Velocity":65,"Duration":68305,"SoundDuration":68305,"Delta":44718110},{"NoteNumber":39,"Velocity":54,"Duration":136611,"SoundDuration":136611,"Delta":44718110},{"NoteNumber":72,"Velocity":58,"Duration":126182,"SoundDuration":126182,"Delta":44854722},{"NoteNumber":75,"Velocity":68,"Duration":126182,"SoundDuration":126182,"Delta":44854722},{"NoteNumber":45,"Velocity":60,"Duration":252366,"SoundDuration":252366,"Delta":44854722},{"NoteNumber":54,"Velocity":65,"Duration":252366,"SoundDuration":252366,"Delta":44854722},{"NoteNumber":66,"Velocity":63,"Duration":63091,"SoundDuration":63091,"Delta":44980905},{"NoteNumber":73,"Velocity":54,"Duration":68596,"SoundDuration":68596,"Delta":45107088},{"NoteNumber":80,"Velocity":65,"Duration":68596,"SoundDuration":68596,"Delta":45107088},{"NoteNumber":41,"Velocity":58,"Duration":137192,"SoundDuration":137192,"Delta":45107088},{"NoteNumber":73,"Velocity":65,"Duration":128617,"SoundDuration":128617,"Delta":45244281},{"NoteNumber":80,"Velocity":77,"Duration":128617,"SoundDuration":128617,"Delta":45244281},{"NoteNumber":44,"Velocity":57,"Duration":257234,"SoundDuration":257234,"Delta":45244281},{"NoteNumber":49,"Velocity":57,"Duration":257234,"SoundDuration":257234,"Delta":45244281},{"NoteNumber":53,"Velocity":73,"Duration":257234,"SoundDuration":257234,"Delta":45244281},{"NoteNumber":68,"Velocity":69,"Duration":64308,"SoundDuration":64308,"Delta":45372898},{"NoteNumber":72,"Velocity":60,"Duration":168053,"SoundDuration":168053,"Delta":45501516},{"NoteNumber":75,"Velocity":72,"Duration":168053,"SoundDuration":168053,"Delta":45501516},{"NoteNumber":48,"Velocity":49,"Duration":168053,"SoundDuration":168053,"Delta":45501516},{"NoteNumber":51,"Velocity":59,"Duration":168053,"SoundDuration":168053,"Delta":45501516},{"NoteNumber":42,"Velocity":49,"Duration":168053,"SoundDuration":168053,"Delta":45501516},{"NoteNumber":67,"Velocity":67,"Duration":389609,"SoundDuration":389609,"Delta":45669569},{"NoteNumber":72,"Velocity":67,"Duration":389609,"SoundDuration":389609,"Delta":45669569},{"NoteNumber":76,"Velocity":79,"Duration":389609,"SoundDuration":389609,"Delta":45669569},{"NoteNumber":79,"Velocity":93,"Duration":389609,"SoundDuration":389609,"Delta":45669569},{"NoteNumber":43,"Velocity":53,"Duration":389609,"SoundDuration":389609,"Delta":45669569},{"NoteNumber":48,"Velocity":53,"Duration":389609,"SoundDuration":389609,"Delta":45669569},{"NoteNumber":52,"Velocity":63,"Duration":389609,"SoundDuration":389609,"Delta":45669569},{"NoteNumber":55,"Velocity":75,"Duration":389609,"SoundDuration":389609,"Delta":45669569},{"NoteNumber":72,"Velocity":57,"Duration":387871,"SoundDuration":387871,"Delta":46059179},{"NoteNumber":71,"Velocity":57,"Duration":128266,"SoundDuration":128266,"Delta":46059179},{"NoteNumber":76,"Velocity":68,"Duration":387871,"SoundDuration":387871,"Delta":46059179},{"NoteNumber":55,"Velocity":49,"Duration":387871,"SoundDuration":387871,"Delta":46059179},{"NoteNumber":60,"Velocity":49,"Duration":387871,"SoundDuration":387871,"Delta":46059179},{"NoteNumber":64,"Velocity":58,"Duration":386232,"SoundDuration":386232,"Delta":46059179},{"NoteNumber":69,"Velocity":58,"Duration":129220,"SoundDuration":129220,"Delta":46187445},{"NoteNumber":67,"Velocity":58,"Duration":130384,"SoundDuration":130384,"Delta":46316666},{"NoteNumber":64,"Velocity":64,"Duration":131582,"SoundDuration":131582,"Delta":46447050},{"NoteNumber":62,"Velocity":54,"Duration":132808,"SoundDuration":132808,"Delta":46578633},{"NoteNumber":60,"Velocity":55,"Duration":134035,"SoundDuration":134035,"Delta":46711442},{"NoteNumber":65,"Velocity":45,"Duration":436210,"SoundDuration":436210,"Delta":46845477},{"NoteNumber":67,"Velocity":49,"Duration":436210,"SoundDuration":436210,"Delta":46845477},{"NoteNumber":59,"Velocity":54,"Duration":135100,"SoundDuration":135100,"Delta":46845477},{"NoteNumber":57,"Velocity":47,"Duration":135134,"SoundDuration":135134,"Delta":46980578},{"NoteNumber":55,"Velocity":49,"Duration":615413,"SoundDuration":615413,"Delta":47115713},{"NoteNumber":60,"Velocity":49,"Duration":449438,"SoundDuration":449438,"Delta":47281688},{"NoteNumber":64,"Velocity":49,"Duration":449438,"SoundDuration":449438,"Delta":47281688},{"NoteNumber":72,"Velocity":58,"Duration":449438,"SoundDuration":449438,"Delta":47281688},{"NoteNumber":48,"Velocity":50,"Duration":449438,"SoundDuration":449438,"Delta":47281688},{"NoteNumber":60,"Velocity":44,"Duration":149812,"SoundDuration":149812,"Delta":47581314},{"NoteNumber":72,"Velocity":62,"Duration":129869,"SoundDuration":129869,"Delta":47731126},{"NoteNumber":76,"Velocity":62,"Duration":129869,"SoundDuration":129869,"Delta":47731126},{"NoteNumber":59,"Velocity":39,"Duration":129869,"SoundDuration":129869,"Delta":47731126},{"NoteNumber":67,"Velocity":55,"Duration":129869,"SoundDuration":129869,"Delta":47860996},{"NoteNumber":57,"Velocity":35,"Duration":129869,"SoundDuration":129869,"Delta":47860996},{"NoteNumber":74,"Velocity":56,"Duration":69929,"SoundDuration":69929,"Delta":47990866},{"NoteNumber":77,"Velocity":56,"Duration":69929,"SoundDuration":69929,"Delta":47990866},{"NoteNumber":55,"Velocity":35,"Duration":139860,"SoundDuration":139860,"Delta":47990866},{"NoteNumber":74,"Velocity":64,"Duration":127795,"SoundDuration":127795,"Delta":48130726},{"NoteNumber":77,"Velocity":64,"Duration":127795,"SoundDuration":127795,"Delta":48130726},{"NoteNumber":52,"Velocity":41,"Duration":127795,"SoundDuration":127795,"Delta":48130726},{"NoteNumber":69,"Velocity":57,"Duration":127795,"SoundDuration":127795,"Delta":48258522},{"NoteNumber":50,"Velocity":33,"Duration":127795,"SoundDuration":127795,"Delta":48258522},{"NoteNumber":75,"Velocity":57,"Duration":69686,"SoundDuration":69686,"Delta":48386318},{"NoteNumber":78,"Velocity":57,"Duration":69686,"SoundDuration":69686,"Delta":48386318},{"NoteNumber":48,"Velocity":33,"Duration":139372,"SoundDuration":139372,"Delta":48386318},{"NoteNumber":75,"Velocity":66,"Duration":124223,"SoundDuration":124223,"Delta":48525690},{"NoteNumber":78,"Velocity":66,"Duration":124223,"SoundDuration":124223,"Delta":48525690},{"NoteNumber":47,"Velocity":43,"Duration":124223,"SoundDuration":124223,"Delta":48525690},{"NoteNumber":71,"Velocity":58,"Duration":124223,"SoundDuration":124223,"Delta":48649914},{"NoteNumber":45,"Velocity":39,"Duration":124223,"SoundDuration":124223,"Delta":48649914},{"NoteNumber":76,"Velocity":60,"Duration":67796,"SoundDuration":67796,"Delta":48774138},{"NoteNumber":79,"Velocity":60,"Duration":67796,"SoundDuration":67796,"Delta":48774138},{"NoteNumber":43,"Velocity":40,"Duration":135593,"SoundDuration":135593,"Delta":48774138},{"NoteNumber":76,"Velocity":69,"Duration":121951,"SoundDuration":121951,"Delta":48909731},{"NoteNumber":79,"Velocity":69,"Duration":121951,"SoundDuration":121951,"Delta":48909731},{"NoteNumber":36,"Velocity":45,"Duration":121951,"SoundDuration":121951,"Delta":48909731},{"NoteNumber":72,"Velocity":63,"Duration":121951,"SoundDuration":121951,"Delta":49031682},{"NoteNumber":43,"Velocity":38,"Duration":121951,"SoundDuration":121951,"Delta":49031682},{"NoteNumber":77,"Velocity":63,"Duration":65789,"SoundDuration":65789,"Delta":49153634},{"NoteNumber":80,"Velocity":63,"Duration":65789,"SoundDuration":65789,"Delta":49153634},{"NoteNumber":52,"Velocity":39,"Duration":131579,"SoundDuration":131579,"Delta":49153634},{"NoteNumber":80,"Velocity":72,"Duration":120120,"SoundDuration":120120,"Delta":49285213},{"NoteNumber":77,"Velocity":72,"Duration":120120,"SoundDuration":120120,"Delta":49285213},{"NoteNumber":53,"Velocity":47,"Duration":120120,"SoundDuration":120120,"Delta":49285213},{"NoteNumber":73,"Velocity":65,"Duration":120120,"SoundDuration":120120,"Delta":49405333},{"NoteNumber":57,"Velocity":42,"Duration":120120,"SoundDuration":120120,"Delta":49405333},{"NoteNumber":81,"Velocity":66,"Duration":65573,"SoundDuration":65573,"Delta":49525453},{"NoteNumber":77,"Velocity":66,"Duration":65573,"SoundDuration":65573,"Delta":49525453},{"NoteNumber":60,"Velocity":43,"Duration":131147,"SoundDuration":131147,"Delta":49525453},{"NoteNumber":81,"Velocity":74,"Duration":120846,"SoundDuration":120846,"Delta":49656600},{"NoteNumber":77,"Velocity":74,"Duration":120846,"SoundDuration":120846,"Delta":49656600},{"NoteNumber":61,"Velocity":48,"Duration":120846,"SoundDuration":120846,"Delta":49656600},{"NoteNumber":74,"Velocity":68,"Duration":120845,"SoundDuration":120845,"Delta":49777446},{"NoteNumber":62,"Velocity":44,"Duration":120845,"SoundDuration":120845,"Delta":49777446},{"NoteNumber":82,"Velocity":69,"Duration":67340,"SoundDuration":67340,"Delta":49898292},{"NoteNumber":79,"Velocity":69,"Duration":67340,"SoundDuration":67340,"Delta":49898292},{"NoteNumber":65,"Velocity":44,"Duration":134680,"SoundDuration":134680,"Delta":49898292},{"NoteNumber":83,"Velocity":77,"Duration":383056,"SoundDuration":383056,"Delta":50032972},{"NoteNumber":80,"Velocity":77,"Duration":122323,"SoundDuration":122323,"Delta":50032972},{"NoteNumber":66,"Velocity":50,"Duration":122323,"SoundDuration":122323,"Delta":50032972},{"NoteNumber":79,"Velocity":68,"Duration":122323,"SoundDuration":122323,"Delta":50155296},{"NoteNumber":67,"Velocity":45,"Duration":122323,"SoundDuration":122323,"Delta":50155296},{"NoteNumber":77,"Velocity":70,"Duration":138408,"SoundDuration":138408,"Delta":50277620},{"NoteNumber":71,"Velocity":46,"Duration":138408,"SoundDuration":138408,"Delta":50277620},{"NoteNumber":76,"Velocity":69,"Duration":130293,"SoundDuration":130293,"Delta":50416029},{"NoteNumber":84,"Velocity":80,"Duration":130293,"SoundDuration":130293,"Delta":50416029},{"NoteNumber":60,"Velocity":49,"Duration":390878,"SoundDuration":390878,"Delta":50416029},{"NoteNumber":67,"Velocity":58,"Duration":390878,"SoundDuration":390878,"Delta":50416029},{"NoteNumber":72,"Velocity":55,"Duration":130292,"SoundDuration":130292,"Delta":50546322},{"NoteNumber":75,"Velocity":55,"Duration":65146,"SoundDuration":65146,"Delta":50676615},{"NoteNumber":71,"Velocity":46,"Duration":65146,"SoundDuration":65146,"Delta":50676615},{"NoteNumber":72,"Velocity":52,"Duration":127388,"SoundDuration":127388,"Delta":50806908},{"NoteNumber":76,"Velocity":62,"Duration":127388,"SoundDuration":127388,"Delta":50806908},{"NoteNumber":67,"Velocity":49,"Duration":127388,"SoundDuration":127388,"Delta":50934296},{"NoteNumber":75,"Velocity":41,"Duration":69929,"SoundDuration":69929,"Delta":51061685},{"NoteNumber":78,"Velocity":49,"Duration":69929,"SoundDuration":69929,"Delta":51061685},{"NoteNumber":76,"Velocity":52,"Duration":127795,"SoundDuration":127795,"Delta":51201545},{"NoteNumber":79,"Velocity":62,"Duration":127795,"SoundDuration":127795,"Delta":51201545},{"NoteNumber":72,"Velocity":50,"Duration":127795,"SoundDuration":127795,"Delta":51329341},{"NoteNumber":76,"Velocity":42,"Duration":69686,"SoundDuration":69686,"Delta":51457136},{"NoteNumber":80,"Velocity":50,"Duration":69686,"SoundDuration":69686,"Delta":51457136},{"NoteNumber":77,"Velocity":54,"Duration":124223,"SoundDuration":124223,"Delta":51596509},{"NoteNumber":81,"Velocity":64,"Duration":124223,"SoundDuration":124223,"Delta":51596509},{"NoteNumber":74,"Velocity":48,"Duration":124223,"SoundDuration":124223,"Delta":51720733},{"NoteNumber":80,"Velocity":40,"Duration":67796,"SoundDuration":67796,"Delta":51844956},{"NoteNumber":83,"Velocity":48,"Duration":67796,"SoundDuration":67796,"Delta":51844956},{"NoteNumber":81,"Velocity":55,"Duration":126182,"SoundDuration":126182,"Delta":51980550},{"NoteNumber":84,"Velocity":65,"Duration":126182,"SoundDuration":126182,"Delta":51980550},{"NoteNumber":76,"Velocity":53,"Duration":126182,"SoundDuration":126182,"Delta":52106733},{"NoteNumber":85,"Velocity":53,"Duration":66889,"SoundDuration":66889,"Delta":52232916},{"NoteNumber":82,"Velocity":45,"Duration":66889,"SoundDuration":66889,"Delta":52232916},{"NoteNumber":83,"Velocity":51,"Duration":126984,"SoundDuration":126984,"Delta":52366695},{"NoteNumber":86,"Velocity":60,"Duration":126984,"SoundDuration":126984,"Delta":52366695},{"NoteNumber":77,"Velocity":47,"Duration":126983,"SoundDuration":126983,"Delta":52493679},{"NoteNumber":83,"Velocity":39,"Duration":69929,"SoundDuration":69929,"Delta":52620663},{"NoteNumber":87,"Velocity":47,"Duration":69929,"SoundDuration":69929,"Delta":52620663},{"NoteNumber":84,"Velocity":48,"Duration":127795,"SoundDuration":127795,"Delta":52760523},{"NoteNumber":88,"Velocity":57,"Duration":127795,"SoundDuration":127795,"Delta":52760523},{"NoteNumber":78,"Velocity":50,"Duration":127795,"SoundDuration":127795,"Delta":52888319},{"NoteNumber":86,"Velocity":42,"Duration":69686,"SoundDuration":69686,"Delta":53016114},{"NoteNumber":89,"Velocity":50,"Duration":69686,"SoundDuration":69686,"Delta":53016114},{"NoteNumber":87,"Velocity":49,"Duration":128205,"SoundDuration":128205,"Delta":53155487},{"NoteNumber":90,"Velocity":58,"Duration":128205,"SoundDuration":128205,"Delta":53155487},{"NoteNumber":79,"Velocity":48,"Duration":128204,"SoundDuration":128204,"Delta":53283692},{"NoteNumber":88,"Velocity":40,"Duration":76628,"SoundDuration":76628,"Delta":53411897},{"NoteNumber":91,"Velocity":48,"Duration":76628,"SoundDuration":76628,"Delta":53411897},{"NoteNumber":84,"Velocity":56,"Duration":459770,"SoundDuration":459770,"Delta":53565154},{"NoteNumber":96,"Velocity":66,"Duration":459770,"SoundDuration":459770,"Delta":53565154},{"NoteNumber":55,"Velocity":39,"Duration":919540,"SoundDuration":919540,"Delta":54484694},{"NoteNumber":59,"Velocity":39,"Duration":919540,"SoundDuration":919540,"Delta":54484694},{"NoteNumber":64,"Velocity":39,"Duration":919540,"SoundDuration":919540,"Delta":54484694},{"NoteNumber":67,"Velocity":46,"Duration":1875716,"SoundDuration":1875716,"Delta":54484694},{"NoteNumber":40,"Velocity":36,"Duration":919540,"SoundDuration":919540,"Delta":54484694},{"NoteNumber":47,"Velocity":43,"Duration":919540,"SoundDuration":919540,"Delta":54484694},{"NoteNumber":64,"Velocity":33,"Duration":956175,"SoundDuration":956175,"Delta":55404234},{"NoteNumber":69,"Velocity":33,"Duration":956175,"SoundDuration":956175,"Delta":55404234},{"NoteNumber":72,"Velocity":33,"Duration":956175,"SoundDuration":956175,"Delta":55404234},{"NoteNumber":76,"Velocity":39,"Duration":956175,"SoundDuration":956175,"Delta":55404234},{"NoteNumber":52,"Velocity":31,"Duration":956175,"SoundDuration":956175,"Delta":55404234},{"NoteNumber":60,"Velocity":37,"Duration":954183,"SoundDuration":954183,"Delta":55404234},{"NoteNumber":45,"Velocity":31,"Duration":956175,"SoundDuration":956175,"Delta":55404234},{"NoteNumber":54,"Velocity":41,"Duration":923076,"SoundDuration":923076,"Delta":56360410},{"NoteNumber":60,"Velocity":41,"Duration":921152,"SoundDuration":921152,"Delta":56360410},{"NoteNumber":64,"Velocity":41,"Duration":923076,"SoundDuration":923076,"Delta":56360410},{"NoteNumber":66,"Velocity":49,"Duration":1966554,"SoundDuration":1966554,"Delta":56360410},{"NoteNumber":38,"Velocity":37,"Duration":923076,"SoundDuration":923076,"Delta":56360410},{"NoteNumber":45,"Velocity":44,"Duration":923076,"SoundDuration":923076,"Delta":56360410},{"NoteNumber":64,"Velocity":33,"Duration":1043478,"SoundDuration":1043478,"Delta":57283486},{"NoteNumber":69,"Velocity":33,"Duration":1043478,"SoundDuration":1043478,"Delta":57283486},{"NoteNumber":72,"Velocity":33,"Duration":1043478,"SoundDuration":1043478,"Delta":57283486},{"NoteNumber":76,"Velocity":39,"Duration":1043478,"SoundDuration":1043478,"Delta":57283486},{"NoteNumber":60,"Velocity":37,"Duration":1041304,"SoundDuration":1041304,"Delta":57283486},{"NoteNumber":52,"Velocity":31,"Duration":1043478,"SoundDuration":1043478,"Delta":57283486},{"NoteNumber":45,"Velocity":31,"Duration":1043478,"SoundDuration":1043478,"Delta":57283486},{"NoteNumber":53,"Velocity":35,"Duration":1074087,"SoundDuration":1074087,"Delta":58326964},{"NoteNumber":60,"Velocity":35,"Duration":1076329,"SoundDuration":1076329,"Delta":58326964},{"NoteNumber":65,"Velocity":41,"Duration":2894695,"SoundDuration":2894695,"Delta":58326964},{"NoteNumber":37,"Velocity":34,"Duration":1076329,"SoundDuration":1076329,"Delta":58326964},{"NoteNumber":44,"Velocity":40,"Duration":1076329,"SoundDuration":1076329,"Delta":58326964},{"NoteNumber":64,"Velocity":27,"Duration":1818365,"SoundDuration":1818365,"Delta":59403294},{"NoteNumber":67,"Velocity":27,"Duration":1818365,"SoundDuration":1818365,"Delta":59403294},{"NoteNumber":71,"Velocity":27,"Duration":1818365,"SoundDuration":1818365,"Delta":59403294},{"NoteNumber":76,"Velocity":33,"Duration":1818365,"SoundDuration":1818365,"Delta":59403294},{"NoteNumber":43,"Velocity":25,"Duration":1818365,"SoundDuration":1818365,"Delta":59403294},{"NoteNumber":53,"Velocity":25,"Duration":1818365,"SoundDuration":1818365,"Delta":59403294},{"NoteNumber":59,"Velocity":31,"Duration":1818365,"SoundDuration":1818365,"Delta":59403294},{"NoteNumber":60,"Velocity":26,"Duration":1276867,"SoundDuration":1276867,"Delta":61221660},{"NoteNumber":64,"Velocity":26,"Duration":1276867,"SoundDuration":1276867,"Delta":61221660},{"NoteNumber":67,"Velocity":26,"Duration":1276867,"SoundDuration":1276867,"Delta":61221660},{"NoteNumber":72,"Velocity":31,"Duration":1276867,"SoundDuration":1276867,"Delta":61221660},{"NoteNumber":36,"Velocity":23,"Duration":1276867,"SoundDuration":1276867,"Delta":61221660},{"NoteNumber":43,"Velocity":23,"Duration":1276867,"SoundDuration":1276867,"Delta":61221660},{"NoteNumber":52,"Velocity":28,"Duration":1276867,"SoundDuration":1276867,"Delta":61221660},{"NoteNumber":60,"Velocity":24,"Duration":4034291,"SoundDuration":4034291,"Delta":62498527},{"NoteNumber":64,"Velocity":24,"Duration":4034291,"SoundDuration":4034291,"Delta":62498527},{"NoteNumber":67,"Velocity":24,"Duration":4034291,"SoundDuration":4034291,"Delta":62498527},{"NoteNumber":72,"Velocity":29,"Duration":4034291,"SoundDuration":4034291,"Delta":62498527},{"NoteNumber":36,"Velocity":22,"Duration":4034291,"SoundDuration":4034291,"Delta":62498527},{"NoteNumber":43,"Velocity":22,"Duration":4034291,"SoundDuration":4034291,"Delta":62498527},{"NoteNumber":52,"Velocity":27,"Duration":4034291,"SoundDuration":4034291,"Delta":62498527}]}