{"title":"Prelude Opus 23 Nr. 7","artist":"Rachmaninoff","durationMs":130584,"midiSha256":"59b460e924120c1511943ed6acf8d77f3035b13095d6760cb345d98b792a4774","midiObject":[{"NoteNumber":60,"Velocity":42,"Duration":83240,"SoundDuration":83240,"Delta":0},{"NoteNumber":63,"Velocity":35,"Duration":83240,"SoundDuration":83240,"Delta":83240},{"NoteNumber":66,"Velocity":39,"Duration":83240,"SoundDuration":83240,"Delta":166481},{"NoteNumber":67,"Velocity":34,"Duration":83240,"SoundDuration":83240,"Delta":249722},{"NoteNumber":68,"Velocity":46,"Duration":83240,"SoundDuration":83240,"Delta":332963},{"NoteNumber":67,"Velocity":42,"Duration":83240,"SoundDuration":83240,"Delta":416203},{"NoteNumber":66,"Velocity":45,"Duration":83240,"SoundDuration":83240,"Delta":499444},{"NoteNumber":67,"Velocity":49,"Duration":88915,"SoundDuration":88915,"Delta":582685},{"NoteNumber":75,"Velocity":71,"Duration":332963,"SoundDuration":332963,"Delta":671600},{"NoteNumber":36,"Velocity":73,"Duration":3355827,"SoundDuration":3355827,"Delta":671600},{"NoteNumber":74,"Velocity":39,"Duration":83240,"SoundDuration":83240,"Delta":754841},{"NoteNumber":72,"Velocity":45,"Duration":83240,"SoundDuration":83240,"Delta":838082},{"NoteNumber":67,"Velocity":35,"Duration":83240,"SoundDuration":83240,"Delta":921322},{"NoteNumber":68,"Velocity":42,"Duration":83360,"SoundDuration":83360,"Delta":1004563},{"NoteNumber":67,"Velocity":32,"Duration":83732,"SoundDuration":83732,"Delta":1087923},{"NoteNumber":66,"Velocity":37,"Duration":84080,"SoundDuration":84080,"Delta":1171656},{"NoteNumber":67,"Velocity":32,"Duration":84477,"SoundDuration":84477,"Delta":1255737},{"NoteNumber":59,"Velocity":42,"Duration":84411,"SoundDuration":84411,"Delta":1340215},{"NoteNumber":63,"Velocity":34,"Duration":84204,"SoundDuration":84204,"Delta":1424627},{"NoteNumber":66,"Velocity":38,"Duration":83996,"SoundDuration":83996,"Delta":1508831},{"NoteNumber":67,"Velocity":34,"Duration":83789,"SoundDuration":83789,"Delta":1592828},{"NoteNumber":68,"Velocity":46,"Duration":83584,"SoundDuration":83584,"Delta":1676617},{"NoteNumber":67,"Velocity":42,"Duration":83379,"SoundDuration":83379,"Delta":1760202},{"NoteNumber":66,"Velocity":45,"Duration":83177,"SoundDuration":83177,"Delta":1843582},{"NoteNumber":67,"Velocity":49,"Duration":88652,"SoundDuration":88652,"Delta":1926759},{"NoteNumber":75,"Velocity":72,"Duration":333189,"SoundDuration":333189,"Delta":2015412},{"NoteNumber":72,"Velocity":39,"Duration":83139,"SoundDuration":83139,"Delta":2098572},{"NoteNumber":71,"Velocity":45,"Duration":83343,"SoundDuration":83343,"Delta":2181711},{"NoteNumber":67,"Velocity":37,"Duration":83546,"SoundDuration":83546,"Delta":2265054},{"NoteNumber":68,"Velocity":40,"Duration":83752,"SoundDuration":83752,"Delta":2348601},{"NoteNumber":67,"Velocity":33,"Duration":83957,"SoundDuration":83957,"Delta":2432353},{"NoteNumber":66,"Velocity":39,"Duration":84174,"SoundDuration":84174,"Delta":2516310},{"NoteNumber":67,"Velocity":33,"Duration":84402,"SoundDuration":84402,"Delta":2600485},{"NoteNumber":58,"Velocity":42,"Duration":84612,"SoundDuration":84612,"Delta":2684887},{"NoteNumber":63,"Velocity":34,"Duration":84441,"SoundDuration":84441,"Delta":2769499},{"NoteNumber":66,"Velocity":39,"Duration":84194,"SoundDuration":84194,"Delta":2853941},{"NoteNumber":67,"Velocity":34,"Duration":83949,"SoundDuration":83949,"Delta":2938136},{"NoteNumber":68,"Velocity":46,"Duration":83695,"SoundDuration":83695,"Delta":3022085},{"NoteNumber":67,"Velocity":42,"Duration":83455,"SoundDuration":83455,"Delta":3105781},{"NoteNumber":66,"Velocity":45,"Duration":83177,"SoundDuration":83177,"Delta":3189236},{"NoteNumber":67,"Velocity":49,"Duration":87873,"SoundDuration":87873,"Delta":3272413},{"NoteNumber":75,"Velocity":67,"Duration":331719,"SoundDuration":331719,"Delta":3360287},{"NoteNumber":71,"Velocity":39,"Duration":82716,"SoundDuration":82716,"Delta":3443139},{"NoteNumber":70,"Velocity":42,"Duration":82955,"SoundDuration":82955,"Delta":3525856},{"NoteNumber":67,"Velocity":34,"Duration":83194,"SoundDuration":83194,"Delta":3608811},{"NoteNumber":68,"Velocity":42,"Duration":83482,"SoundDuration":83482,"Delta":3692006},{"NoteNumber":67,"Velocity":33,"Duration":83722,"SoundDuration":83722,"Delta":3775488},{"NoteNumber":66,"Velocity":38,"Duration":83966,"SoundDuration":83966,"Delta":3859211},{"NoteNumber":67,"Velocity":34,"Duration":84250,"SoundDuration":84250,"Delta":3943178},{"NoteNumber":58,"Velocity":42,"Duration":84402,"SoundDuration":84402,"Delta":4027428},{"NoteNumber":63,"Velocity":35,"Duration":84175,"SoundDuration":84175,"Delta":4111830},{"NoteNumber":66,"Velocity":39,"Duration":83959,"SoundDuration":83959,"Delta":4196005},{"NoteNumber":67,"Velocity":34,"Duration":83789,"SoundDuration":83789,"Delta":4279964},{"NoteNumber":68,"Velocity":46,"Duration":83584,"SoundDuration":83584,"Delta":4363753},{"NoteNumber":67,"Velocity":42,"Duration":83416,"SoundDuration":83416,"Delta":4447338},{"NoteNumber":66,"Velocity":45,"Duration":83213,"SoundDuration":83213,"Delta":4530755},{"NoteNumber":67,"Velocity":49,"Duration":88391,"SoundDuration":88391,"Delta":4613969},{"NoteNumber":74,"Velocity":66,"Duration":332816,"SoundDuration":332816,"Delta":4702360},{"NoteNumber":72,"Velocity":39,"Duration":83102,"SoundDuration":83102,"Delta":4785370},{"NoteNumber":70,"Velocity":45,"Duration":83240,"SoundDuration":83240,"Delta":4868473},{"NoteNumber":67,"Velocity":34,"Duration":83462,"SoundDuration":83462,"Delta":4951714},{"NoteNumber":68,"Velocity":42,"Duration":83592,"SoundDuration":83592,"Delta":5035177},{"NoteNumber":67,"Velocity":33,"Duration":83722,"SoundDuration":83722,"Delta":5118769},{"NoteNumber":66,"Velocity":38,"Duration":84678,"SoundDuration":84678,"Delta":5202492},{"NoteNumber":67,"Velocity":33,"Duration":85811,"SoundDuration":85811,"Delta":5287170},{"NoteNumber":58,"Velocity":47,"Duration":84402,"SoundDuration":84402,"Delta":5372982},{"NoteNumber":61,"Velocity":39,"Duration":84157,"SoundDuration":84157,"Delta":5457384},{"NoteNumber":64,"Velocity":46,"Duration":83912,"SoundDuration":83912,"Delta":5541542},{"NoteNumber":65,"Velocity":41,"Duration":83668,"SoundDuration":83668,"Delta":5625454},{"NoteNumber":66,"Velocity":50,"Duration":83426,"SoundDuration":83426,"Delta":5709122},{"NoteNumber":65,"Velocity":50,"Duration":83185,"SoundDuration":83185,"Delta":5792548},{"NoteNumber":64,"Velocity":53,"Duration":82947,"SoundDuration":82947,"Delta":5875733},{"NoteNumber":65,"Velocity":58,"Duration":88131,"SoundDuration":88131,"Delta":5958681},{"NoteNumber":73,"Velocity":73,"Duration":331935,"SoundDuration":331935,"Delta":6046812},{"NoteNumber":36,"Velocity":87,"Duration":3353937,"SoundDuration":3353937,"Delta":6046812},{"NoteNumber":72,"Velocity":46,"Duration":82798,"SoundDuration":82798,"Delta":6129819},{"NoteNumber":70,"Velocity":53,"Duration":83010,"SoundDuration":83010,"Delta":6212617},{"NoteNumber":65,"Velocity":42,"Duration":83119,"SoundDuration":83119,"Delta":6295628},{"NoteNumber":66,"Velocity":50,"Duration":83250,"SoundDuration":83250,"Delta":6378748},{"NoteNumber":65,"Velocity":38,"Duration":83472,"SoundDuration":83472,"Delta":6461998},{"NoteNumber":64,"Velocity":44,"Duration":83575,"SoundDuration":83575,"Delta":6545471},{"NoteNumber":65,"Velocity":38,"Duration":83705,"SoundDuration":83705,"Delta":6629046},{"NoteNumber":57,"Velocity":50,"Duration":83939,"SoundDuration":83939,"Delta":6712751},{"NoteNumber":61,"Velocity":40,"Duration":83845,"SoundDuration":83845,"Delta":6796691},{"NoteNumber":64,"Velocity":45,"Duration":83705,"SoundDuration":83705,"Delta":6880536},{"NoteNumber":65,"Velocity":40,"Duration":83519,"SoundDuration":83519,"Delta":6964242},{"NoteNumber":66,"Velocity":55,"Duration":83426,"SoundDuration":83426,"Delta":7047761},{"NoteNumber":65,"Velocity":50,"Duration":83240,"SoundDuration":83240,"Delta":7131187},{"NoteNumber":64,"Velocity":53,"Duration":83102,"SoundDuration":83102,"Delta":7214428},{"NoteNumber":65,"Velocity":58,"Duration":87873,"SoundDuration":87873,"Delta":7297530},{"NoteNumber":73,"Velocity":77,"Duration":333631,"SoundDuration":333631,"Delta":7385404},{"NoteNumber":70,"Velocity":47,"Duration":83296,"SoundDuration":83296,"Delta":7468644},{"NoteNumber":69,"Velocity":54,"Duration":83472,"SoundDuration":83472,"Delta":7551941},{"NoteNumber":65,"Velocity":44,"Duration":83621,"SoundDuration":83621,"Delta":7635414},{"NoteNumber":66,"Velocity":48,"Duration":83705,"SoundDuration":83705,"Delta":7719036},{"NoteNumber":65,"Velocity":39,"Duration":83910,"SoundDuration":83910,"Delta":7802741},{"NoteNumber":64,"Velocity":46,"Duration":84031,"SoundDuration":84031,"Delta":7886651},{"NoteNumber":65,"Velocity":39,"Duration":85217,"SoundDuration":85217,"Delta":7970683},{"NoteNumber":56,"Velocity":42,"Duration":84412,"SoundDuration":84412,"Delta":8055900},{"NoteNumber":61,"Velocity":34,"Duration":84279,"SoundDuration":84279,"Delta":8140312},{"NoteNumber":64,"Velocity":39,"Duration":84110,"SoundDuration":84110,"Delta":8224592},{"NoteNumber":65,"Velocity":34,"Duration":83939,"SoundDuration":83939,"Delta":8308702},{"NoteNumber":66,"Velocity":46,"Duration":83742,"SoundDuration":83742,"Delta":8392642},{"NoteNumber":65,"Velocity":42,"Duration":83575,"SoundDuration":83575,"Delta":8476384},{"NoteNumber":64,"Velocity":45,"Duration":83408,"SoundDuration":83408,"Delta":8559959},{"NoteNumber":65,"Velocity":49,"Duration":87616,"SoundDuration":87616,"Delta":8643368},{"NoteNumber":73,"Velocity":68,"Duration":333705,"SoundDuration":333705,"Delta":8730985},{"NoteNumber":69,"Velocity":39,"Duration":83258,"SoundDuration":83258,"Delta":8814337},{"NoteNumber":68,"Velocity":42,"Duration":83472,"SoundDuration":83472,"Delta":8897596},{"NoteNumber":65,"Velocity":34,"Duration":83621,"SoundDuration":83621,"Delta":8981068},{"NoteNumber":66,"Velocity":42,"Duration":83752,"SoundDuration":83752,"Delta":9064690},{"NoteNumber":65,"Velocity":33,"Duration":83939,"SoundDuration":83939,"Delta":9148442},{"NoteNumber":64,"Velocity":38,"Duration":84118,"SoundDuration":84118,"Delta":9232382},{"NoteNumber":65,"Velocity":34,"Duration":84250,"SoundDuration":84250,"Delta":9316500},{"NoteNumber":56,"Velocity":42,"Duration":84412,"SoundDuration":84412,"Delta":9400750},{"NoteNumber":60,"Velocity":35,"Duration":84204,"SoundDuration":84204,"Delta":9485162},{"NoteNumber":64,"Velocity":39,"Duration":84033,"SoundDuration":84033,"Delta":9569366},{"NoteNumber":65,"Velocity":34,"Duration":83902,"SoundDuration":83902,"Delta":9653400},{"NoteNumber":67,"Velocity":46,"Duration":83705,"SoundDuration":83705,"Delta":9737302},{"NoteNumber":65,"Velocity":42,"Duration":83501,"SoundDuration":83501,"Delta":9821008},{"NoteNumber":64,"Velocity":45,"Duration":83333,"SoundDuration":83333,"Delta":9904509},{"NoteNumber":65,"Velocity":49,"Duration":87361,"SoundDuration":87361,"Delta":9987843},{"NoteNumber":72,"Velocity":67,"Duration":333890,"SoundDuration":333890,"Delta":10075204},{"NoteNumber":70,"Velocity":39,"Duration":83472,"SoundDuration":83472,"Delta":10158677},{"NoteNumber":68,"Velocity":45,"Duration":83472,"SoundDuration":83472,"Delta":10242149},{"NoteNumber":65,"Velocity":34,"Duration":83472,"SoundDuration":83472,"Delta":10325622},{"NoteNumber":67,"Velocity":42,"Duration":83472,"SoundDuration":83472,"Delta":10409094},{"NoteNumber":65,"Velocity":33,"Duration":83472,"SoundDuration":83472,"Delta":10492567},{"NoteNumber":64,"Velocity":38,"Duration":83472,"SoundDuration":83472,"Delta":10576039},{"NoteNumber":65,"Velocity":33,"Duration":83472,"SoundDuration":83472,"Delta":10659512},{"NoteNumber":56,"Velocity":42,"Duration":83240,"SoundDuration":83240,"Delta":10742984},{"NoteNumber":59,"Velocity":35,"Duration":83240,"SoundDuration":83240,"Delta":10826225},{"NoteNumber":61,"Velocity":39,"Duration":83240,"SoundDuration":83240,"Delta":10909466},{"NoteNumber":62,"Velocity":34,"Duration":83240,"SoundDuration":83240,"Delta":10992707},{"NoteNumber":63,"Velocity":46,"Duration":83240,"SoundDuration":83240,"Delta":11075947},{"NoteNumber":62,"Velocity":42,"Duration":83240,"SoundDuration":83240,"Delta":11159188},{"NoteNumber":61,"Velocity":45,"Duration":83240,"SoundDuration":83240,"Delta":11242429},{"NoteNumber":62,"Velocity":49,"Duration":88915,"SoundDuration":88915,"Delta":11325670},{"NoteNumber":71,"Velocity":66,"Duration":332962,"SoundDuration":332962,"Delta":11414585},{"NoteNumber":36,"Velocity":71,"Duration":668614,"SoundDuration":668614,"Delta":11414585},{"NoteNumber":67,"Velocity":39,"Duration":83240,"SoundDuration":83240,"Delta":11497826},{"NoteNumber":65,"Velocity":45,"Duration":83240,"SoundDuration":83240,"Delta":11581066},{"NoteNumber":62,"Velocity":35,"Duration":83240,"SoundDuration":83240,"Delta":11664307},{"NoteNumber":63,"Velocity":42,"Duration":83360,"SoundDuration":83360,"Delta":11747548},{"NoteNumber":62,"Velocity":32,"Duration":83732,"SoundDuration":83732,"Delta":11830908},{"NoteNumber":61,"Velocity":37,"Duration":84080,"SoundDuration":84080,"Delta":11914641},{"NoteNumber":62,"Velocity":32,"Duration":84477,"SoundDuration":84477,"Delta":11998722},{"NoteNumber":55,"Velocity":42,"Duration":85766,"SoundDuration":85766,"Delta":12083199},{"NoteNumber":62,"Velocity":38,"Duration":85728,"SoundDuration":85728,"Delta":12168965},{"NoteNumber":65,"Velocity":47,"Duration":85166,"SoundDuration":85166,"Delta":12254694},{"NoteNumber":71,"Velocity":55,"Duration":87120,"SoundDuration":87120,"Delta":12339860},{"NoteNumber":79,"Velocity":71,"Duration":676328,"SoundDuration":676328,"Delta":12426981},{"NoteNumber":72,"Velocity":41,"Duration":84412,"SoundDuration":84412,"Delta":12511639},{"NoteNumber":71,"Velocity":49,"Duration":84411,"SoundDuration":84411,"Delta":12596051},{"NoteNumber":67,"Velocity":43,"Duration":84412,"SoundDuration":84412,"Delta":12680463},{"NoteNumber":65,"Velocity":38,"Duration":84412,"SoundDuration":84412,"Delta":12764875},{"NoteNumber":63,"Velocity":34,"Duration":84412,"SoundDuration":84412,"Delta":12849287},{"NoteNumber":67,"Velocity":33,"Duration":84412,"SoundDuration":84412,"Delta":12933699},{"NoteNumber":68,"Velocity":26,"Duration":85199,"SoundDuration":85199,"Delta":13018111},{"NoteNumber":80,"Velocity":60,"Duration":342466,"SoundDuration":342466,"Delta":13103310},{"NoteNumber":72,"Velocity":33,"Duration":171232,"SoundDuration":171232,"Delta":13103310},{"NoteNumber":71,"Velocity":31,"Duration":85616,"SoundDuration":85616,"Delta":13188926},{"NoteNumber":72,"Velocity":42,"Duration":85616,"SoundDuration":85616,"Delta":13274543},{"NoteNumber":75,"Velocity":34,"Duration":85616,"SoundDuration":85616,"Delta":13360159},{"NoteNumber":56,"Velocity":42,"Duration":83240,"SoundDuration":83240,"Delta":13445776},{"NoteNumber":59,"Velocity":35,"Duration":83240,"SoundDuration":83240,"Delta":13529017},{"NoteNumber":61,"Velocity":39,"Duration":83240,"SoundDuration":83240,"Delta":13612257},{"NoteNumber":62,"Velocity":34,"Duration":83240,"SoundDuration":83240,"Delta":13695498},{"NoteNumber":63,"Velocity":46,"Duration":83240,"SoundDuration":83240,"Delta":13778739},{"NoteNumber":62,"Velocity":42,"Duration":83240,"SoundDuration":83240,"Delta":13861980},{"NoteNumber":61,"Velocity":45,"Duration":83240,"SoundDuration":83240,"Delta":13945220},{"NoteNumber":62,"Velocity":49,"Duration":88915,"SoundDuration":88915,"Delta":14028461},{"NoteNumber":71,"Velocity":66,"Duration":332962,"SoundDuration":332962,"Delta":14117376},{"NoteNumber":36,"Velocity":54,"Duration":668614,"SoundDuration":668614,"Delta":14117376},{"NoteNumber":67,"Velocity":39,"Duration":83240,"SoundDuration":83240,"Delta":14200617},{"NoteNumber":65,"Velocity":45,"Duration":83240,"SoundDuration":83240,"Delta":14283858},{"NoteNumber":62,"Velocity":35,"Duration":83240,"SoundDuration":83240,"Delta":14367099},{"NoteNumber":63,"Velocity":42,"Duration":83360,"SoundDuration":83360,"Delta":14450339},{"NoteNumber":62,"Velocity":32,"Duration":83732,"SoundDuration":83732,"Delta":14533700},{"NoteNumber":61,"Velocity":37,"Duration":84080,"SoundDuration":84080,"Delta":14617433},{"NoteNumber":62,"Velocity":32,"Duration":84477,"SoundDuration":84477,"Delta":14701513},{"NoteNumber":55,"Velocity":42,"Duration":85766,"SoundDuration":85766,"Delta":14785991},{"NoteNumber":62,"Velocity":38,"Duration":85728,"SoundDuration":85728,"Delta":14871757},{"NoteNumber":65,"Velocity":47,"Duration":85166,"SoundDuration":85166,"Delta":14957486},{"NoteNumber":71,"Velocity":55,"Duration":87120,"SoundDuration":87120,"Delta":15042652},{"NoteNumber":79,"Velocity":70,"Duration":676328,"SoundDuration":676328,"Delta":15129773},{"NoteNumber":72,"Velocity":41,"Duration":84412,"SoundDuration":84412,"Delta":15214430},{"NoteNumber":71,"Velocity":49,"Duration":84411,"SoundDuration":84411,"Delta":15298842},{"NoteNumber":67,"Velocity":43,"Duration":84412,"SoundDuration":84412,"Delta":15383254},{"NoteNumber":65,"Velocity":38,"Duration":84412,"SoundDuration":84412,"Delta":15467666},{"NoteNumber":63,"Velocity":34,"Duration":84412,"SoundDuration":84412,"Delta":15552078},{"NoteNumber":67,"Velocity":33,"Duration":84412,"SoundDuration":84412,"Delta":15636490},{"NoteNumber":68,"Velocity":26,"Duration":85199,"SoundDuration":85199,"Delta":15720902},{"NoteNumber":80,"Velocity":56,"Duration":346612,"SoundDuration":346612,"Delta":15806101},{"NoteNumber":72,"Velocity":33,"Duration":171425,"SoundDuration":171425,"Delta":15806101},{"NoteNumber":71,"Velocity":31,"Duration":85808,"SoundDuration":85808,"Delta":15891718},{"NoteNumber":72,"Velocity":42,"Duration":86949,"SoundDuration":86949,"Delta":15977527},{"NoteNumber":75,"Velocity":34,"Duration":704910,"SoundDuration":704910,"Delta":16064476},{"NoteNumber":79,"Velocity":56,"Duration":706219,"SoundDuration":706219,"Delta":16152713},{"NoteNumber":41,"Velocity":30,"Duration":90954,"SoundDuration":90954,"Delta":16152713},{"NoteNumber":49,"Velocity":25,"Duration":90067,"SoundDuration":90067,"Delta":16243668},{"NoteNumber":56,"Velocity":26,"Duration":88387,"SoundDuration":88387,"Delta":16333736},{"NoteNumber":61,"Velocity":27,"Duration":87361,"SoundDuration":87361,"Delta":16422124},{"NoteNumber":67,"Velocity":30,"Duration":87361,"SoundDuration":87361,"Delta":16509486},{"NoteNumber":68,"Velocity":28,"Duration":87361,"SoundDuration":87361,"Delta":16596847},{"NoteNumber":72,"Velocity":28,"Duration":87361,"SoundDuration":87361,"Delta":16684209},{"NoteNumber":75,"Velocity":35,"Duration":87361,"SoundDuration":87361,"Delta":16771571},{"NoteNumber":77,"Velocity":45,"Duration":690852,"SoundDuration":690852,"Delta":16858933},{"NoteNumber":73,"Velocity":45,"Duration":690852,"SoundDuration":690852,"Delta":16858933},{"NoteNumber":68,"Velocity":32,"Duration":114481,"SoundDuration":114481,"Delta":16973094},{"NoteNumber":65,"Velocity":32,"Duration":114790,"SoundDuration":114790,"Delta":17087576},{"NoteNumber":68,"Velocity":31,"Duration":115257,"SoundDuration":115257,"Delta":17202366},{"NoteNumber":61,"Velocity":26,"Duration":115791,"SoundDuration":115791,"Delta":17317624},{"NoteNumber":56,"Velocity":26,"Duration":116370,"SoundDuration":116370,"Delta":17433415},{"NoteNumber":69,"Velocity":41,"Duration":699149,"SoundDuration":699149,"Delta":17549785},{"NoteNumber":73,"Velocity":48,"Duration":699149,"SoundDuration":699149,"Delta":17549785},{"NoteNumber":42,"Velocity":30,"Duration":118473,"SoundDuration":118473,"Delta":17549785},{"NoteNumber":51,"Velocity":25,"Duration":117240,"SoundDuration":117240,"Delta":17668259},{"NoteNumber":57,"Velocity":26,"Duration":116011,"SoundDuration":116011,"Delta":17785500},{"NoteNumber":61,"Velocity":35,"Duration":86855,"SoundDuration":86855,"Delta":17901512},{"NoteNumber":63,"Velocity":32,"Duration":86855,"SoundDuration":86855,"Delta":17988368},{"NoteNumber":66,"Velocity":32,"Duration":86855,"SoundDuration":86855,"Delta":18075223},{"NoteNumber":69,"Velocity":31,"Duration":86855,"SoundDuration":86855,"Delta":18162079},{"NoteNumber":72,"Velocity":40,"Duration":690764,"SoundDuration":690764,"Delta":18248935},{"NoteNumber":68,"Velocity":40,"Duration":690764,"SoundDuration":690764,"Delta":18248935},{"NoteNumber":63,"Velocity":28,"Duration":114481,"SoundDuration":114481,"Delta":18363096},{"NoteNumber":60,"Velocity":28,"Duration":114790,"SoundDuration":114790,"Delta":18477578},{"NoteNumber":63,"Velocity":27,"Duration":115257,"SoundDuration":115257,"Delta":18592369},{"NoteNumber":57,"Velocity":22,"Duration":115653,"SoundDuration":115653,"Delta":18707626},{"NoteNumber":51,"Velocity":22,"Duration":116420,"SoundDuration":116420,"Delta":18823279},{"NoteNumber":68,"Velocity":36,"Duration":710889,"SoundDuration":710889,"Delta":18939699},{"NoteNumber":72,"Velocity":36,"Duration":1419220,"SoundDuration":1419220,"Delta":18939699},{"NoteNumber":43,"Velocity":22,"Duration":89575,"SoundDuration":89575,"Delta":18939699},{"NoteNumber":53,"Velocity":22,"Duration":89657,"SoundDuration":89657,"Delta":19029275},{"NoteNumber":60,"Velocity":24,"Duration":89336,"SoundDuration":89336,"Delta":19118932},{"NoteNumber":62,"Velocity":25,"Duration":89018,"SoundDuration":89018,"Delta":19208269},{"NoteNumber":63,"Velocity":27,"Duration":88700,"SoundDuration":88700,"Delta":19297288},{"NoteNumber":62,"Velocity":25,"Duration":88337,"SoundDuration":88337,"Delta":19385988},{"NoteNumber":60,"Velocity":25,"Duration":88131,"SoundDuration":88131,"Delta":19474325},{"NoteNumber":62,"Velocity":22,"Duration":88131,"SoundDuration":88131,"Delta":19562457},{"NoteNumber":68,"Velocity":32,"Duration":708331,"SoundDuration":708331,"Delta":19650588},{"NoteNumber":67,"Velocity":27,"Duration":87546,"SoundDuration":87546,"Delta":19738348},{"NoteNumber":65,"Velocity":27,"Duration":87935,"SoundDuration":87935,"Delta":19825895},{"NoteNumber":60,"Velocity":28,"Duration":88289,"SoundDuration":88289,"Delta":19913830},{"NoteNumber":62,"Velocity":23,"Duration":88646,"SoundDuration":88646,"Delta":20002120},{"NoteNumber":60,"Velocity":20,"Duration":89012,"SoundDuration":89012,"Delta":20090766},{"NoteNumber":59,"Velocity":22,"Duration":89372,"SoundDuration":89372,"Delta":20179778},{"NoteNumber":60,"Velocity":22,"Duration":89769,"SoundDuration":89769,"Delta":20269151},{"NoteNumber":67,"Velocity":36,"Duration":718814,"SoundDuration":718814,"Delta":20358920},{"NoteNumber":71,"Velocity":36,"Duration":1456498,"SoundDuration":1456498,"Delta":20358920},{"NoteNumber":43,"Velocity":22,"Duration":91189,"SoundDuration":91189,"Delta":20358920},{"NoteNumber":53,"Velocity":22,"Duration":90929,"SoundDuration":90929,"Delta":20450110},{"NoteNumber":59,"Velocity":23,"Duration":90491,"SoundDuration":90491,"Delta":20541040},{"NoteNumber":62,"Velocity":23,"Duration":90088,"SoundDuration":90088,"Delta":20631531},{"NoteNumber":63,"Velocity":25,"Duration":89635,"SoundDuration":89635,"Delta":20721619},{"NoteNumber":62,"Velocity":22,"Duration":89252,"SoundDuration":89252,"Delta":20811254},{"NoteNumber":61,"Velocity":22,"Duration":88807,"SoundDuration":88807,"Delta":20900507},{"NoteNumber":62,"Velocity":20,"Duration":88419,"SoundDuration":88419,"Delta":20989315},{"NoteNumber":67,"Velocity":28,"Duration":737683,"SoundDuration":737683,"Delta":21077734},{"NoteNumber":65,"Velocity":23,"Duration":88541,"SoundDuration":88541,"Delta":21165850},{"NoteNumber":62,"Velocity":22,"Duration":89450,"SoundDuration":89450,"Delta":21254391},{"NoteNumber":59,"Velocity":23,"Duration":90331,"SoundDuration":90331,"Delta":21343841},{"NoteNumber":60,"Velocity":22,"Duration":91836,"SoundDuration":91836,"Delta":21434172},{"NoteNumber":59,"Velocity":19,"Duration":94496,"SoundDuration":94496,"Delta":21526009},{"NoteNumber":58,"Velocity":21,"Duration":96638,"SoundDuration":96638,"Delta":21620506},{"NoteNumber":59,"Velocity":20,"Duration":98273,"SoundDuration":98273,"Delta":21717144},{"NoteNumber":60,"Velocity":37,"Duration":94532,"SoundDuration":94532,"Delta":21815418},{"NoteNumber":72,"Velocity":45,"Duration":743024,"SoundDuration":743024,"Delta":21815418},{"NoteNumber":84,"Velocity":56,"Duration":1444938,"SoundDuration":1444938,"Delta":21815418},{"NoteNumber":63,"Velocity":31,"Duration":94185,"SoundDuration":94185,"Delta":21909950},{"NoteNumber":66,"Velocity":35,"Duration":93842,"SoundDuration":93842,"Delta":22004136},{"NoteNumber":67,"Velocity":30,"Duration":93403,"SoundDuration":93403,"Delta":22097978},{"NoteNumber":68,"Velocity":41,"Duration":93065,"SoundDuration":93065,"Delta":22191382},{"NoteNumber":67,"Velocity":37,"Duration":92730,"SoundDuration":92730,"Delta":22284448},{"NoteNumber":66,"Velocity":40,"Duration":92349,"SoundDuration":92349,"Delta":22377178},{"NoteNumber":67,"Velocity":44,"Duration":88915,"SoundDuration":88915,"Delta":22469527},{"NoteNumber":75,"Velocity":71,"Duration":348911,"SoundDuration":348911,"Delta":22558443},{"NoteNumber":24,"Velocity":46,"Duration":3479553,"SoundDuration":3479553,"Delta":22558443},{"NoteNumber":36,"Velocity":58,"Duration":3479553,"SoundDuration":3479553,"Delta":22558443},{"NoteNumber":74,"Velocity":35,"Duration":87361,"SoundDuration":87361,"Delta":22645804},{"NoteNumber":72,"Velocity":40,"Duration":87361,"SoundDuration":87361,"Delta":22733166},{"NoteNumber":67,"Velocity":31,"Duration":86825,"SoundDuration":86825,"Delta":22820528},{"NoteNumber":68,"Velocity":37,"Duration":87416,"SoundDuration":87416,"Delta":22907354},{"NoteNumber":67,"Velocity":28,"Duration":87971,"SoundDuration":87971,"Delta":22994770},{"NoteNumber":66,"Velocity":33,"Duration":88534,"SoundDuration":88534,"Delta":23082742},{"NoteNumber":67,"Velocity":28,"Duration":89080,"SoundDuration":89080,"Delta":23171276},{"NoteNumber":59,"Velocity":37,"Duration":88526,"SoundDuration":88526,"Delta":23260357},{"NoteNumber":71,"Velocity":55,"Duration":699156,"SoundDuration":699156,"Delta":23260357},{"NoteNumber":83,"Velocity":69,"Duration":2078778,"SoundDuration":2078778,"Delta":23260357},{"NoteNumber":63,"Velocity":30,"Duration":88078,"SoundDuration":88078,"Delta":23348883},{"NoteNumber":66,"Velocity":34,"Duration":87666,"SoundDuration":87666,"Delta":23436961},{"NoteNumber":67,"Velocity":30,"Duration":87207,"SoundDuration":87207,"Delta":23524627},{"NoteNumber":68,"Velocity":41,"Duration":86782,"SoundDuration":86782,"Delta":23611835},{"NoteNumber":67,"Velocity":37,"Duration":86343,"SoundDuration":86343,"Delta":23698617},{"NoteNumber":66,"Velocity":40,"Duration":85899,"SoundDuration":85899,"Delta":23784961},{"NoteNumber":67,"Velocity":49,"Duration":88652,"SoundDuration":88652,"Delta":23870861},{"NoteNumber":75,"Velocity":72,"Duration":339483,"SoundDuration":339483,"Delta":23959513},{"NoteNumber":72,"Velocity":35,"Duration":84624,"SoundDuration":84624,"Delta":24043620},{"NoteNumber":71,"Velocity":40,"Duration":85122,"SoundDuration":85122,"Delta":24128245},{"NoteNumber":67,"Velocity":33,"Duration":85629,"SoundDuration":85629,"Delta":24213367},{"NoteNumber":68,"Velocity":36,"Duration":86141,"SoundDuration":86141,"Delta":24298997},{"NoteNumber":67,"Velocity":29,"Duration":86657,"SoundDuration":86657,"Delta":24385138},{"NoteNumber":66,"Velocity":35,"Duration":87182,"SoundDuration":87182,"Delta":24471795},{"NoteNumber":67,"Velocity":29,"Duration":87647,"SoundDuration":87647,"Delta":24558977},{"NoteNumber":58,"Velocity":37,"Duration":87319,"SoundDuration":87319,"Delta":24646624},{"NoteNumber":63,"Velocity":30,"Duration":87015,"SoundDuration":87015,"Delta":24733944},{"NoteNumber":66,"Velocity":35,"Duration":86713,"SoundDuration":86713,"Delta":24820959},{"NoteNumber":67,"Velocity":30,"Duration":86413,"SoundDuration":86413,"Delta":24907673},{"NoteNumber":68,"Velocity":41,"Duration":86075,"SoundDuration":86075,"Delta":24994087},{"NoteNumber":67,"Velocity":37,"Duration":85771,"SoundDuration":85771,"Delta":25080162},{"NoteNumber":66,"Velocity":40,"Duration":85327,"SoundDuration":85327,"Delta":25165934},{"NoteNumber":67,"Velocity":44,"Duration":87873,"SoundDuration":87873,"Delta":25251262},{"NoteNumber":75,"Velocity":67,"Duration":345105,"SoundDuration":345105,"Delta":25339135},{"NoteNumber":82,"Velocity":68,"Duration":698860,"SoundDuration":698860,"Delta":25339135},{"NoteNumber":70,"Velocity":54,"Duration":163953,"SoundDuration":163953,"Delta":25339135},{"NoteNumber":71,"Velocity":35,"Duration":86161,"SoundDuration":86161,"Delta":25424132},{"NoteNumber":70,"Velocity":37,"Duration":86700,"SoundDuration":86700,"Delta":25510293},{"NoteNumber":67,"Velocity":30,"Duration":87246,"SoundDuration":87246,"Delta":25596994},{"NoteNumber":68,"Velocity":37,"Duration":87757,"SoundDuration":87757,"Delta":25684241},{"NoteNumber":67,"Velocity":29,"Duration":88360,"SoundDuration":88360,"Delta":25771998},{"NoteNumber":66,"Velocity":34,"Duration":88883,"SoundDuration":88883,"Delta":25860358},{"NoteNumber":67,"Velocity":30,"Duration":88753,"SoundDuration":88753,"Delta":25949242},{"NoteNumber":58,"Velocity":37,"Duration":88316,"SoundDuration":88316,"Delta":26037996},{"NoteNumber":87,"Velocity":72,"Duration":698141,"SoundDuration":698141,"Delta":26037996},{"NoteNumber":75,"Velocity":57,"Duration":698141,"SoundDuration":698141,"Delta":26037996},{"NoteNumber":63,"Velocity":31,"Duration":88014,"SoundDuration":88014,"Delta":26126313},{"NoteNumber":66,"Velocity":35,"Duration":87671,"SoundDuration":87671,"Delta":26214327},{"NoteNumber":67,"Velocity":30,"Duration":87416,"SoundDuration":87416,"Delta":26301999},{"NoteNumber":68,"Velocity":41,"Duration":87120,"SoundDuration":87120,"Delta":26389415},{"NoteNumber":67,"Velocity":37,"Duration":86825,"SoundDuration":86825,"Delta":26476535},{"NoteNumber":66,"Velocity":40,"Duration":86533,"SoundDuration":86533,"Delta":26563361},{"NoteNumber":67,"Velocity":44,"Duration":86243,"SoundDuration":86243,"Delta":26649894},{"NoteNumber":74,"Velocity":66,"Duration":679650,"SoundDuration":679650,"Delta":26736138},{"NoteNumber":86,"Velocity":69,"Duration":679650,"SoundDuration":679650,"Delta":26736138},{"NoteNumber":72,"Velocity":35,"Duration":84412,"SoundDuration":84412,"Delta":26820445},{"NoteNumber":70,"Velocity":40,"Duration":84423,"SoundDuration":84423,"Delta":26904857},{"NoteNumber":67,"Velocity":30,"Duration":84649,"SoundDuration":84649,"Delta":26989281},{"NoteNumber":68,"Velocity":37,"Duration":84649,"SoundDuration":84649,"Delta":27073931},{"NoteNumber":67,"Velocity":29,"Duration":84729,"SoundDuration":84729,"Delta":27158581},{"NoteNumber":66,"Velocity":34,"Duration":85656,"SoundDuration":85656,"Delta":27243311},{"NoteNumber":67,"Velocity":29,"Duration":86821,"SoundDuration":86821,"Delta":27328967},{"NoteNumber":58,"Velocity":42,"Duration":87316,"SoundDuration":87316,"Delta":27415788},{"NoteNumber":82,"Velocity":67,"Duration":1373342,"SoundDuration":1373342,"Delta":27415788},{"NoteNumber":70,"Velocity":54,"Duration":694002,"SoundDuration":694002,"Delta":27415788},{"NoteNumber":61,"Velocity":35,"Duration":87162,"SoundDuration":87162,"Delta":27503105},{"NoteNumber":64,"Velocity":41,"Duration":86867,"SoundDuration":86867,"Delta":27590267},{"NoteNumber":65,"Velocity":36,"Duration":86575,"SoundDuration":86575,"Delta":27677135},{"NoteNumber":66,"Velocity":45,"Duration":86284,"SoundDuration":86284,"Delta":27763710},{"NoteNumber":65,"Velocity":45,"Duration":85996,"SoundDuration":85996,"Delta":27849995},{"NoteNumber":64,"Velocity":47,"Duration":85668,"SoundDuration":85668,"Delta":27935991},{"NoteNumber":65,"Velocity":52,"Duration":88131,"SoundDuration":88131,"Delta":28021660},{"NoteNumber":73,"Velocity":73,"Duration":337379,"SoundDuration":337379,"Delta":28109791},{"NoteNumber":24,"Velocity":49,"Duration":3410623,"SoundDuration":3410623,"Delta":28109791},{"NoteNumber":36,"Velocity":69,"Duration":3410623,"SoundDuration":3410623,"Delta":28109791},{"NoteNumber":72,"Velocity":41,"Duration":84186,"SoundDuration":84186,"Delta":28193740},{"NoteNumber":70,"Velocity":47,"Duration":84462,"SoundDuration":84462,"Delta":28277927},{"NoteNumber":65,"Velocity":37,"Duration":84780,"SoundDuration":84780,"Delta":28362389},{"NoteNumber":66,"Velocity":45,"Duration":85061,"SoundDuration":85061,"Delta":28447170},{"NoteNumber":65,"Velocity":34,"Duration":85343,"SoundDuration":85343,"Delta":28532232},{"NoteNumber":64,"Velocity":39,"Duration":85628,"SoundDuration":85628,"Delta":28617576},{"NoteNumber":65,"Velocity":34,"Duration":85926,"SoundDuration":85926,"Delta":28703204},{"NoteNumber":57,"Velocity":45,"Duration":85861,"SoundDuration":85861,"Delta":28789131},{"NoteNumber":81,"Velocity":80,"Duration":2037800,"SoundDuration":2037800,"Delta":28789131},{"NoteNumber":69,"Velocity":64,"Duration":684518,"SoundDuration":684518,"Delta":28789131},{"NoteNumber":61,"Velocity":36,"Duration":85663,"SoundDuration":85663,"Delta":28874992},{"NoteNumber":64,"Velocity":40,"Duration":85449,"SoundDuration":85449,"Delta":28960656},{"NoteNumber":65,"Velocity":36,"Duration":85235,"SoundDuration":85235,"Delta":29046106},{"NoteNumber":66,"Velocity":49,"Duration":85022,"SoundDuration":85022,"Delta":29131341},{"NoteNumber":65,"Velocity":45,"Duration":84811,"SoundDuration":84811,"Delta":29216363},{"NoteNumber":64,"Velocity":47,"Duration":84600,"SoundDuration":84600,"Delta":29301175},{"NoteNumber":65,"Velocity":52,"Duration":87873,"SoundDuration":87873,"Delta":29385775},{"NoteNumber":73,"Velocity":77,"Duration":333631,"SoundDuration":333631,"Delta":29473649},{"NoteNumber":70,"Velocity":42,"Duration":83296,"SoundDuration":83296,"Delta":29556890},{"NoteNumber":69,"Velocity":48,"Duration":83472,"SoundDuration":83472,"Delta":29640186},{"NoteNumber":65,"Velocity":39,"Duration":83621,"SoundDuration":83621,"Delta":29723659},{"NoteNumber":66,"Velocity":43,"Duration":83705,"SoundDuration":83705,"Delta":29807281},{"NoteNumber":65,"Velocity":35,"Duration":83910,"SoundDuration":83910,"Delta":29890986},{"NoteNumber":64,"Velocity":41,"Duration":84031,"SoundDuration":84031,"Delta":29974896},{"NoteNumber":65,"Velocity":35,"Duration":85217,"SoundDuration":85217,"Delta":30058928},{"NoteNumber":56,"Velocity":37,"Duration":85335,"SoundDuration":85335,"Delta":30144145},{"NoteNumber":61,"Velocity":30,"Duration":85498,"SoundDuration":85498,"Delta":30229481},{"NoteNumber":64,"Velocity":35,"Duration":85322,"SoundDuration":85322,"Delta":30314980},{"NoteNumber":65,"Velocity":30,"Duration":85130,"SoundDuration":85130,"Delta":30400302},{"NoteNumber":66,"Velocity":41,"Duration":84907,"SoundDuration":84907,"Delta":30485432},{"NoteNumber":65,"Velocity":37,"Duration":84733,"SoundDuration":84733,"Delta":30570340},{"NoteNumber":64,"Velocity":40,"Duration":84240,"SoundDuration":84240,"Delta":30655074},{"NoteNumber":65,"Velocity":44,"Duration":87616,"SoundDuration":87616,"Delta":30739315},{"NoteNumber":73,"Velocity":68,"Duration":343342,"SoundDuration":343342,"Delta":30826931},{"NoteNumber":80,"Velocity":71,"Duration":693483,"SoundDuration":693483,"Delta":30826931},{"NoteNumber":68,"Velocity":56,"Duration":163546,"SoundDuration":163546,"Delta":30826931},{"NoteNumber":69,"Velocity":35,"Duration":85587,"SoundDuration":85587,"Delta":30912033},{"NoteNumber":68,"Velocity":37,"Duration":86078,"SoundDuration":86078,"Delta":30997621},{"NoteNumber":65,"Velocity":30,"Duration":86575,"SoundDuration":86575,"Delta":31083699},{"NoteNumber":66,"Velocity":37,"Duration":86993,"SoundDuration":86993,"Delta":31170274},{"NoteNumber":65,"Velocity":29,"Duration":87331,"SoundDuration":87331,"Delta":31257268},{"NoteNumber":64,"Velocity":34,"Duration":87714,"SoundDuration":87714,"Delta":31344599},{"NoteNumber":65,"Velocity":30,"Duration":88100,"SoundDuration":88100,"Delta":31432314},{"NoteNumber":56,"Velocity":37,"Duration":88446,"SoundDuration":88446,"Delta":31520415},{"NoteNumber":85,"Velocity":77,"Duration":702448,"SoundDuration":702448,"Delta":31520415},{"NoteNumber":73,"Velocity":61,"Duration":702448,"SoundDuration":702448,"Delta":31520415},{"NoteNumber":60,"Velocity":31,"Duration":88186,"SoundDuration":88186,"Delta":31608861},{"NoteNumber":64,"Velocity":35,"Duration":87885,"SoundDuration":87885,"Delta":31697048},{"NoteNumber":65,"Velocity":30,"Duration":87586,"SoundDuration":87586,"Delta":31784934},{"NoteNumber":67,"Velocity":41,"Duration":87289,"SoundDuration":87289,"Delta":31872520},{"NoteNumber":65,"Velocity":37,"Duration":86993,"SoundDuration":86993,"Delta":31959809},{"NoteNumber":64,"Velocity":40,"Duration":86779,"SoundDuration":86779,"Delta":32046803},{"NoteNumber":65,"Velocity":44,"Duration":89280,"SoundDuration":89280,"Delta":32133583},{"NoteNumber":72,"Velocity":65,"Duration":679071,"SoundDuration":679071,"Delta":32222863},{"NoteNumber":84,"Velocity":68,"Duration":679071,"SoundDuration":679071,"Delta":32222863},{"NoteNumber":70,"Velocity":35,"Duration":84889,"SoundDuration":84889,"Delta":32307647},{"NoteNumber":68,"Velocity":40,"Duration":84889,"SoundDuration":84889,"Delta":32392536},{"NoteNumber":65,"Velocity":30,"Duration":84889,"SoundDuration":84889,"Delta":32477426},{"NoteNumber":67,"Velocity":37,"Duration":84889,"SoundDuration":84889,"Delta":32562316},{"NoteNumber":65,"Velocity":29,"Duration":84889,"SoundDuration":84889,"Delta":32647206},{"NoteNumber":64,"Velocity":34,"Duration":84889,"SoundDuration":84889,"Delta":32732095},{"NoteNumber":65,"Velocity":29,"Duration":84949,"SoundDuration":84949,"Delta":32816985},{"NoteNumber":56,"Velocity":37,"Duration":85130,"SoundDuration":85130,"Delta":32901935},{"NoteNumber":80,"Velocity":71,"Duration":1359582,"SoundDuration":1359582,"Delta":32901935},{"NoteNumber":68,"Velocity":56,"Duration":1359582,"SoundDuration":1359582,"Delta":32901935},{"NoteNumber":59,"Velocity":31,"Duration":85128,"SoundDuration":85128,"Delta":32987065},{"NoteNumber":61,"Velocity":35,"Duration":84889,"SoundDuration":84889,"Delta":33072194},{"NoteNumber":62,"Velocity":30,"Duration":84889,"SoundDuration":84889,"Delta":33157084},{"NoteNumber":63,"Velocity":41,"Duration":84705,"SoundDuration":84705,"Delta":33241973},{"NoteNumber":62,"Velocity":37,"Duration":84650,"SoundDuration":84650,"Delta":33326679},{"NoteNumber":61,"Velocity":40,"Duration":84487,"SoundDuration":84487,"Delta":33411329},{"NoteNumber":62,"Velocity":44,"Duration":88915,"SoundDuration":88915,"Delta":33495817},{"NoteNumber":71,"Velocity":66,"Duration":336843,"SoundDuration":336843,"Delta":33584732},{"NoteNumber":36,"Velocity":71,"Duration":676785,"SoundDuration":676785,"Delta":33584732},{"NoteNumber":67,"Velocity":35,"Duration":84175,"SoundDuration":84175,"Delta":33668689},{"NoteNumber":65,"Velocity":40,"Duration":84299,"SoundDuration":84299,"Delta":33752864},{"NoteNumber":62,"Velocity":31,"Duration":84412,"SoundDuration":84412,"Delta":33837163},{"NoteNumber":63,"Velocity":37,"Duration":84519,"SoundDuration":84519,"Delta":33921575},{"NoteNumber":62,"Velocity":28,"Duration":84805,"SoundDuration":84805,"Delta":34006095},{"NoteNumber":61,"Velocity":33,"Duration":85144,"SoundDuration":85144,"Delta":34090900},{"NoteNumber":62,"Velocity":28,"Duration":85472,"SoundDuration":85472,"Delta":34176045},{"NoteNumber":55,"Velocity":42,"Duration":85804,"SoundDuration":85804,"Delta":34261518},{"NoteNumber":62,"Velocity":38,"Duration":85728,"SoundDuration":85728,"Delta":34347322},{"NoteNumber":65,"Velocity":47,"Duration":85166,"SoundDuration":85166,"Delta":34433051},{"NoteNumber":71,"Velocity":55,"Duration":87120,"SoundDuration":87120,"Delta":34518217},{"NoteNumber":79,"Velocity":72,"Duration":676328,"SoundDuration":676328,"Delta":34605338},{"NoteNumber":72,"Velocity":41,"Duration":84412,"SoundDuration":84412,"Delta":34689995},{"NoteNumber":71,"Velocity":49,"Duration":84412,"SoundDuration":84412,"Delta":34774407},{"NoteNumber":67,"Velocity":43,"Duration":84412,"SoundDuration":84412,"Delta":34858819},{"NoteNumber":65,"Velocity":38,"Duration":84412,"SoundDuration":84412,"Delta":34943231},{"NoteNumber":63,"Velocity":34,"Duration":84412,"SoundDuration":84412,"Delta":35027643},{"NoteNumber":67,"Velocity":33,"Duration":84412,"SoundDuration":84412,"Delta":35112055},{"NoteNumber":68,"Velocity":26,"Duration":85199,"SoundDuration":85199,"Delta":35196467},{"NoteNumber":80,"Velocity":61,"Duration":340325,"SoundDuration":340325,"Delta":35281666},{"NoteNumber":72,"Velocity":33,"Duration":171233,"SoundDuration":171233,"Delta":35281666},{"NoteNumber":71,"Velocity":31,"Duration":85616,"SoundDuration":85616,"Delta":35367283},{"NoteNumber":72,"Velocity":42,"Duration":85616,"SoundDuration":85616,"Delta":35452899},{"NoteNumber":75,"Velocity":34,"Duration":85616,"SoundDuration":85616,"Delta":35538516},{"NoteNumber":56,"Velocity":37,"Duration":84889,"SoundDuration":84889,"Delta":35624132},{"NoteNumber":80,"Velocity":72,"Duration":1362853,"SoundDuration":1362853,"Delta":35624132},{"NoteNumber":68,"Velocity":56,"Duration":1362853,"SoundDuration":1362853,"Delta":35624132},{"NoteNumber":59,"Velocity":31,"Duration":84889,"SoundDuration":84889,"Delta":35709022},{"NoteNumber":61,"Velocity":35,"Duration":84889,"SoundDuration":84889,"Delta":35793912},{"NoteNumber":62,"Velocity":30,"Duration":84889,"SoundDuration":84889,"Delta":35878801},{"NoteNumber":63,"Velocity":41,"Duration":84889,"SoundDuration":84889,"Delta":35963691},{"NoteNumber":62,"Velocity":37,"Duration":84889,"SoundDuration":84889,"Delta":36048581},{"NoteNumber":61,"Velocity":40,"Duration":84889,"SoundDuration":84889,"Delta":36133471},{"NoteNumber":62,"Velocity":44,"Duration":88915,"SoundDuration":88915,"Delta":36218360},{"NoteNumber":71,"Velocity":66,"Duration":340222,"SoundDuration":340222,"Delta":36307276},{"NoteNumber":36,"Velocity":54,"Duration":679709,"SoundDuration":679709,"Delta":36307276},{"NoteNumber":67,"Velocity":35,"Duration":85130,"SoundDuration":85130,"Delta":36392406},{"NoteNumber":65,"Velocity":40,"Duration":85130,"SoundDuration":85130,"Delta":36477537},{"NoteNumber":62,"Velocity":31,"Duration":84831,"SoundDuration":84831,"Delta":36562667},{"NoteNumber":63,"Velocity":37,"Duration":83977,"SoundDuration":83977,"Delta":36647499},{"NoteNumber":62,"Velocity":28,"Duration":84664,"SoundDuration":84664,"Delta":36731476},{"NoteNumber":61,"Velocity":33,"Duration":85163,"SoundDuration":85163,"Delta":36816140},{"NoteNumber":62,"Velocity":28,"Duration":85682,"SoundDuration":85682,"Delta":36901303},{"NoteNumber":55,"Velocity":42,"Duration":86062,"SoundDuration":86062,"Delta":36986985},{"NoteNumber":62,"Velocity":38,"Duration":85728,"SoundDuration":85728,"Delta":37073048},{"NoteNumber":65,"Velocity":47,"Duration":85166,"SoundDuration":85166,"Delta":37158777},{"NoteNumber":71,"Velocity":55,"Duration":87120,"SoundDuration":87120,"Delta":37243943},{"NoteNumber":79,"Velocity":66,"Duration":676328,"SoundDuration":676328,"Delta":37331064},{"NoteNumber":72,"Velocity":41,"Duration":84412,"SoundDuration":84412,"Delta":37415721},{"NoteNumber":71,"Velocity":49,"Duration":84412,"SoundDuration":84412,"Delta":37500133},{"NoteNumber":67,"Velocity":43,"Duration":84412,"SoundDuration":84412,"Delta":37584545},{"NoteNumber":65,"Velocity":38,"Duration":84412,"SoundDuration":84412,"Delta":37668957},{"NoteNumber":63,"Velocity":34,"Duration":84412,"SoundDuration":84412,"Delta":37753369},{"NoteNumber":67,"Velocity":33,"Duration":84412,"SoundDuration":84412,"Delta":37837781},{"NoteNumber":68,"Velocity":26,"Duration":85199,"SoundDuration":85199,"Delta":37922193},{"NoteNumber":80,"Velocity":56,"Duration":346612,"SoundDuration":346612,"Delta":38007393},{"NoteNumber":72,"Velocity":33,"Duration":171425,"SoundDuration":171425,"Delta":38007393},{"NoteNumber":71,"Velocity":31,"Duration":85808,"SoundDuration":85808,"Delta":38093009},{"NoteNumber":72,"Velocity":42,"Duration":86949,"SoundDuration":86949,"Delta":38178818},{"NoteNumber":75,"Velocity":34,"Duration":88237,"SoundDuration":88237,"Delta":38265768},{"NoteNumber":85,"Velocity":74,"Duration":1381871,"SoundDuration":1381871,"Delta":38354005},{"NoteNumber":80,"Velocity":62,"Duration":1381871,"SoundDuration":1381871,"Delta":38354005},{"NoteNumber":73,"Velocity":62,"Duration":1287533,"SoundDuration":1287533,"Delta":38354005},{"NoteNumber":41,"Velocity":54,"Duration":88915,"SoundDuration":88915,"Delta":38354005},{"NoteNumber":49,"Velocity":42,"Duration":86771,"SoundDuration":86771,"Delta":38442920},{"NoteNumber":56,"Velocity":42,"Duration":85616,"SoundDuration":85616,"Delta":38529691},{"NoteNumber":60,"Velocity":42,"Duration":85616,"SoundDuration":85616,"Delta":38615308},{"NoteNumber":63,"Velocity":49,"Duration":85616,"SoundDuration":85616,"Delta":38700924},{"NoteNumber":61,"Velocity":42,"Duration":85616,"SoundDuration":85616,"Delta":38786541},{"NoteNumber":60,"Velocity":42,"Duration":85616,"SoundDuration":85616,"Delta":38872157},{"NoteNumber":61,"Velocity":42,"Duration":89445,"SoundDuration":89445,"Delta":38957774},{"NoteNumber":65,"Velocity":49,"Duration":85616,"SoundDuration":85616,"Delta":39047219},{"NoteNumber":56,"Velocity":42,"Duration":85616,"SoundDuration":85616,"Delta":39132836},{"NoteNumber":61,"Velocity":42,"Duration":85616,"SoundDuration":85616,"Delta":39218452},{"NoteNumber":65,"Velocity":42,"Duration":85653,"SoundDuration":85653,"Delta":39304069},{"NoteNumber":68,"Velocity":48,"Duration":85980,"SoundDuration":85980,"Delta":39389722},{"NoteNumber":70,"Velocity":42,"Duration":86347,"SoundDuration":86347,"Delta":39475702},{"NoteNumber":72,"Velocity":44,"Duration":86726,"SoundDuration":86726,"Delta":39562050},{"NoteNumber":73,"Velocity":46,"Duration":87099,"SoundDuration":87099,"Delta":39648776},{"NoteNumber":72,"Velocity":58,"Duration":1200828,"SoundDuration":1200828,"Delta":39735876},{"NoteNumber":84,"Velocity":70,"Duration":1381871,"SoundDuration":1381871,"Delta":39735876},{"NoteNumber":81,"Velocity":58,"Duration":1381871,"SoundDuration":1381871,"Delta":39735876},{"NoteNumber":75,"Velocity":58,"Duration":1200828,"SoundDuration":1200828,"Delta":39735876},{"NoteNumber":42,"Velocity":51,"Duration":88915,"SoundDuration":88915,"Delta":39735876},{"NoteNumber":51,"Velocity":39,"Duration":86771,"SoundDuration":86771,"Delta":39824791},{"NoteNumber":57,"Velocity":39,"Duration":85616,"SoundDuration":85616,"Delta":39911562},{"NoteNumber":60,"Velocity":39,"Duration":85616,"SoundDuration":85616,"Delta":39997179},{"NoteNumber":62,"Velocity":45,"Duration":85616,"SoundDuration":85616,"Delta":40082795},{"NoteNumber":60,"Velocity":38,"Duration":85616,"SoundDuration":85616,"Delta":40168412},{"NoteNumber":59,"Velocity":37,"Duration":85616,"SoundDuration":85616,"Delta":40254028},{"NoteNumber":60,"Velocity":37,"Duration":89445,"SoundDuration":89445,"Delta":40339645},{"NoteNumber":63,"Velocity":43,"Duration":85616,"SoundDuration":85616,"Delta":40429090},{"NoteNumber":57,"Velocity":36,"Duration":85616,"SoundDuration":85616,"Delta":40514707},{"NoteNumber":60,"Velocity":36,"Duration":85616,"SoundDuration":85616,"Delta":40600323},{"NoteNumber":63,"Velocity":35,"Duration":85653,"SoundDuration":85653,"Delta":40685940},{"NoteNumber":69,"Velocity":40,"Duration":85980,"SoundDuration":85980,"Delta":40771593},{"NoteNumber":71,"Velocity":34,"Duration":86347,"SoundDuration":86347,"Delta":40857574},{"NoteNumber":72,"Velocity":36,"Duration":86726,"SoundDuration":86726,"Delta":40943922},{"NoteNumber":75,"Velocity":37,"Duration":87099,"SoundDuration":87099,"Delta":41030648},{"NoteNumber":72,"Velocity":57,"Duration":710889,"SoundDuration":710889,"Delta":41117748},{"NoteNumber":68,"Velocity":57,"Duration":710889,"SoundDuration":710889,"Delta":41117748},{"NoteNumber":43,"Velocity":29,"Duration":89575,"SoundDuration":89575,"Delta":41117748},{"NoteNumber":53,"Velocity":29,"Duration":89657,"SoundDuration":89657,"Delta":41207323},{"NoteNumber":56,"Velocity":31,"Duration":89336,"SoundDuration":89336,"Delta":41296980},{"NoteNumber":60,"Velocity":33,"Duration":89018,"SoundDuration":89018,"Delta":41386317},{"NoteNumber":63,"Velocity":35,"Duration":88700,"SoundDuration":88700,"Delta":41475336},{"NoteNumber":62,"Velocity":33,"Duration":88337,"SoundDuration":88337,"Delta":41564037},{"NoteNumber":61,"Velocity":33,"Duration":88131,"SoundDuration":88131,"Delta":41652374},{"NoteNumber":62,"Velocity":29,"Duration":88131,"SoundDuration":88131,"Delta":41740505},{"NoteNumber":71,"Velocity":50,"Duration":708331,"SoundDuration":708331,"Delta":41828637},{"NoteNumber":67,"Velocity":50,"Duration":708331,"SoundDuration":708331,"Delta":41828637},{"NoteNumber":55,"Velocity":29,"Duration":87759,"SoundDuration":87759,"Delta":41828637},{"NoteNumber":62,"Velocity":29,"Duration":87546,"SoundDuration":87546,"Delta":41916396},{"NoteNumber":65,"Velocity":31,"Duration":87935,"SoundDuration":87935,"Delta":42003943},{"NoteNumber":66,"Velocity":33,"Duration":88289,"SoundDuration":88289,"Delta":42091879},{"NoteNumber":68,"Velocity":35,"Duration":88646,"SoundDuration":88646,"Delta":42180168},{"NoteNumber":67,"Velocity":33,"Duration":89012,"SoundDuration":89012,"Delta":42268815},{"NoteNumber":66,"Velocity":33,"Duration":89372,"SoundDuration":89372,"Delta":42357827},{"NoteNumber":67,"Velocity":29,"Duration":89769,"SoundDuration":89769,"Delta":42447199},{"NoteNumber":63,"Velocity":57,"Duration":691628,"SoundDuration":691628,"Delta":42536968},{"NoteNumber":72,"Velocity":57,"Duration":691628,"SoundDuration":691628,"Delta":42536968},{"NoteNumber":48,"Velocity":29,"Duration":86364,"SoundDuration":86364,"Delta":42536968},{"NoteNumber":55,"Velocity":29,"Duration":86108,"SoundDuration":86108,"Delta":42623333},{"NoteNumber":60,"Velocity":29,"Duration":86107,"SoundDuration":86107,"Delta":42709441},{"NoteNumber":62,"Velocity":25,"Duration":86108,"SoundDuration":86108,"Delta":42795549},{"NoteNumber":63,"Velocity":37,"Duration":86107,"SoundDuration":86107,"Delta":42881657},{"NoteNumber":67,"Velocity":41,"Duration":86108,"SoundDuration":86108,"Delta":42967765},{"NoteNumber":74,"Velocity":48,"Duration":86071,"SoundDuration":86071,"Delta":43053873},{"NoteNumber":72,"Velocity":50,"Duration":88652,"SoundDuration":88652,"Delta":43139944},{"NoteNumber":75,"Velocity":46,"Duration":86127,"SoundDuration":86127,"Delta":43228597},{"NoteNumber":72,"Velocity":29,"Duration":85616,"SoundDuration":85616,"Delta":43314724},{"NoteNumber":67,"Velocity":32,"Duration":85857,"SoundDuration":85857,"Delta":43400340},{"NoteNumber":63,"Velocity":29,"Duration":85980,"SoundDuration":85980,"Delta":43486198},{"NoteNumber":60,"Velocity":34,"Duration":86145,"SoundDuration":86145,"Delta":43572178},{"NoteNumber":55,"Velocity":26,"Duration":86355,"SoundDuration":86355,"Delta":43658324},{"NoteNumber":51,"Velocity":29,"Duration":86517,"SoundDuration":86517,"Delta":43744679},{"NoteNumber":48,"Velocity":26,"Duration":86684,"SoundDuration":86684,"Delta":43831197},{"NoteNumber":43,"Velocity":32,"Duration":86609,"SoundDuration":86609,"Delta":43917881},{"NoteNumber":50,"Velocity":32,"Duration":86359,"SoundDuration":86359,"Delta":44004491},{"NoteNumber":59,"Velocity":35,"Duration":86075,"SoundDuration":86075,"Delta":44090851},{"NoteNumber":60,"Velocity":40,"Duration":85861,"SoundDuration":85861,"Delta":44176926},{"NoteNumber":61,"Velocity":44,"Duration":85861,"SoundDuration":85861,"Delta":44262787},{"NoteNumber":62,"Velocity":49,"Duration":85861,"SoundDuration":85861,"Delta":44348649},{"NoteNumber":63,"Velocity":54,"Duration":85861,"SoundDuration":85861,"Delta":44434510},{"NoteNumber":64,"Velocity":61,"Duration":85861,"SoundDuration":85861,"Delta":44520372},{"NoteNumber":65,"Velocity":61,"Duration":688612,"SoundDuration":688612,"Delta":44606233},{"NoteNumber":68,"Velocity":31,"Duration":85861,"SoundDuration":85861,"Delta":44692095},{"NoteNumber":71,"Velocity":38,"Duration":85861,"SoundDuration":85861,"Delta":44777956},{"NoteNumber":74,"Velocity":32,"Duration":85861,"SoundDuration":85861,"Delta":44863818},{"NoteNumber":75,"Velocity":40,"Duration":85783,"SoundDuration":85783,"Delta":44949679},{"NoteNumber":80,"Velocity":47,"Duration":85894,"SoundDuration":85894,"Delta":45035463},{"NoteNumber":74,"Velocity":43,"Duration":86472,"SoundDuration":86472,"Delta":45121358},{"NoteNumber":71,"Velocity":29,"Duration":87015,"SoundDuration":87015,"Delta":45207830},{"NoteNumber":63,"Velocity":53,"Duration":684810,"SoundDuration":684810,"Delta":45294845},{"NoteNumber":67,"Velocity":29,"Duration":86157,"SoundDuration":86157,"Delta":45381239},{"NoteNumber":70,"Velocity":29,"Duration":85665,"SoundDuration":85665,"Delta":45467397},{"NoteNumber":71,"Velocity":30,"Duration":85179,"SoundDuration":85179,"Delta":45553062},{"NoteNumber":74,"Velocity":35,"Duration":84889,"SoundDuration":84889,"Delta":45638242},{"NoteNumber":79,"Velocity":43,"Duration":85094,"SoundDuration":85094,"Delta":45723131},{"NoteNumber":72,"Velocity":29,"Duration":85415,"SoundDuration":85415,"Delta":45808226},{"NoteNumber":67,"Velocity":29,"Duration":86015,"SoundDuration":86015,"Delta":45893641},{"NoteNumber":62,"Velocity":47,"Duration":686912,"SoundDuration":686912,"Delta":45979656},{"NoteNumber":65,"Velocity":29,"Duration":85743,"SoundDuration":85743,"Delta":46065700},{"NoteNumber":72,"Velocity":32,"Duration":85539,"SoundDuration":85539,"Delta":46151443},{"NoteNumber":71,"Velocity":36,"Duration":85336,"SoundDuration":85336,"Delta":46236982},{"NoteNumber":68,"Velocity":38,"Duration":85324,"SoundDuration":85324,"Delta":46322319},{"NoteNumber":67,"Velocity":42,"Duration":85812,"SoundDuration":85812,"Delta":46407643},{"NoteNumber":71,"Velocity":34,"Duration":86306,"SoundDuration":86306,"Delta":46493456},{"NoteNumber":77,"Velocity":35,"Duration":86805,"SoundDuration":86805,"Delta":46579763},{"NoteNumber":60,"Velocity":51,"Duration":685779,"SoundDuration":685779,"Delta":46666568},{"NoteNumber":63,"Velocity":31,"Duration":86108,"SoundDuration":86108,"Delta":46752693},{"NoteNumber":66,"Velocity":39,"Duration":85906,"SoundDuration":85906,"Delta":46838801},{"NoteNumber":67,"Velocity":44,"Duration":85702,"SoundDuration":85702,"Delta":46924708},{"NoteNumber":75,"Velocity":53,"Duration":341937,"SoundDuration":341937,"Delta":47010410},{"NoteNumber":72,"Velocity":29,"Duration":85488,"SoundDuration":85488,"Delta":47095868},{"NoteNumber":70,"Velocity":31,"Duration":85374,"SoundDuration":85374,"Delta":47181357},{"NoteNumber":67,"Velocity":30,"Duration":85616,"SoundDuration":85616,"Delta":47266731},{"NoteNumber":58,"Velocity":47,"Duration":687830,"SoundDuration":687830,"Delta":47352348},{"NoteNumber":62,"Velocity":37,"Duration":86107,"SoundDuration":86107,"Delta":47438249},{"NoteNumber":66,"Velocity":41,"Duration":85906,"SoundDuration":85906,"Delta":47524357},{"NoteNumber":67,"Velocity":46,"Duration":85743,"SoundDuration":85743,"Delta":47610263},{"NoteNumber":74,"Velocity":53,"Duration":344171,"SoundDuration":344171,"Delta":47696006},{"NoteNumber":70,"Velocity":29,"Duration":85939,"SoundDuration":85939,"Delta":47781700},{"NoteNumber":68,"Velocity":29,"Duration":86145,"SoundDuration":86145,"Delta":47867640},{"NoteNumber":67,"Velocity":29,"Duration":86393,"SoundDuration":86393,"Delta":47953785},{"NoteNumber":56,"Velocity":51,"Duration":341038,"SoundDuration":341038,"Delta":48040178},{"NoteNumber":60,"Velocity":29,"Duration":85130,"SoundDuration":85130,"Delta":48125825},{"NoteNumber":63,"Velocity":33,"Duration":85130,"SoundDuration":85130,"Delta":48210955},{"NoteNumber":72,"Velocity":29,"Duration":85130,"SoundDuration":85130,"Delta":48296086},{"NoteNumber":55,"Velocity":52,"Duration":691198,"SoundDuration":691198,"Delta":48381216},{"NoteNumber":58,"Velocity":29,"Duration":86605,"SoundDuration":86605,"Delta":48467673},{"NoteNumber":60,"Velocity":34,"Duration":86442,"SoundDuration":86442,"Delta":48554278},{"NoteNumber":61,"Velocity":29,"Duration":86355,"SoundDuration":86355,"Delta":48640721},{"NoteNumber":62,"Velocity":38,"Duration":86194,"SoundDuration":86194,"Delta":48727077},{"NoteNumber":65,"Velocity":29,"Duration":86186,"SoundDuration":86186,"Delta":48813271},{"NoteNumber":70,"Velocity":32,"Duration":86355,"SoundDuration":86355,"Delta":48899458},{"NoteNumber":64,"Velocity":29,"Duration":86600,"SoundDuration":86600,"Delta":48985814},{"NoteNumber":53,"Velocity":47,"Duration":347377,"SoundDuration":347377,"Delta":49072414},{"NoteNumber":56,"Velocity":29,"Duration":86855,"SoundDuration":86855,"Delta":49159224},{"NoteNumber":60,"Velocity":34,"Duration":86855,"SoundDuration":86855,"Delta":49246080},{"NoteNumber":68,"Velocity":29,"Duration":43427,"SoundDuration":43427,"Delta":49332936},{"NoteNumber":51,"Velocity":39,"Duration":388333,"SoundDuration":388333,"Delta":49376364},{"NoteNumber":60,"Velocity":43,"Duration":366619,"SoundDuration":366619,"Delta":49398077},{"NoteNumber":67,"Velocity":47,"Duration":344905,"SoundDuration":344905,"Delta":49419791},{"NoteNumber":31,"Velocity":32,"Duration":1375400,"SoundDuration":1375400,"Delta":49419791},{"NoteNumber":43,"Velocity":42,"Duration":1375400,"SoundDuration":1375400,"Delta":49419791},{"NoteNumber":53,"Velocity":35,"Duration":86075,"SoundDuration":86075,"Delta":49592761},{"NoteNumber":54,"Velocity":40,"Duration":85861,"SoundDuration":85861,"Delta":49678836},{"NoteNumber":55,"Velocity":44,"Duration":85861,"SoundDuration":85861,"Delta":49764697},{"NoteNumber":57,"Velocity":49,"Duration":85861,"SoundDuration":85861,"Delta":49850559},{"NoteNumber":59,"Velocity":54,"Duration":85861,"SoundDuration":85861,"Delta":49936420},{"NoteNumber":60,"Velocity":61,"Duration":85861,"SoundDuration":85861,"Delta":50022282},{"NoteNumber":62,"Velocity":61,"Duration":687048,"SoundDuration":687048,"Delta":50108143},{"NoteNumber":65,"Velocity":31,"Duration":85861,"SoundDuration":85861,"Delta":50194005},{"NoteNumber":67,"Velocity":38,"Duration":85861,"SoundDuration":85861,"Delta":50279866},{"NoteNumber":71,"Velocity":32,"Duration":85861,"SoundDuration":85861,"Delta":50365728},{"NoteNumber":72,"Velocity":40,"Duration":85783,"SoundDuration":85783,"Delta":50451589},{"NoteNumber":77,"Velocity":46,"Duration":85616,"SoundDuration":85616,"Delta":50537373},{"NoteNumber":71,"Velocity":40,"Duration":85616,"SoundDuration":85616,"Delta":50622990},{"NoteNumber":67,"Velocity":29,"Duration":86585,"SoundDuration":86585,"Delta":50708606},{"NoteNumber":60,"Velocity":53,"Duration":686702,"SoundDuration":686702,"Delta":50795192},{"NoteNumber":63,"Velocity":29,"Duration":86157,"SoundDuration":86157,"Delta":50881586},{"NoteNumber":66,"Velocity":29,"Duration":85665,"SoundDuration":85665,"Delta":50967743},{"NoteNumber":67,"Velocity":30,"Duration":85179,"SoundDuration":85179,"Delta":51053409},{"NoteNumber":70,"Velocity":35,"Duration":85082,"SoundDuration":85082,"Delta":51138588},{"NoteNumber":75,"Velocity":43,"Duration":85567,"SoundDuration":85567,"Delta":51223671},{"NoteNumber":68,"Velocity":29,"Duration":86058,"SoundDuration":86058,"Delta":51309239},{"NoteNumber":63,"Velocity":29,"Duration":86597,"SoundDuration":86597,"Delta":51395298},{"NoteNumber":58,"Velocity":47,"Duration":686912,"SoundDuration":686912,"Delta":51481895},{"NoteNumber":62,"Velocity":29,"Duration":85743,"SoundDuration":85743,"Delta":51567939},{"NoteNumber":68,"Velocity":32,"Duration":85539,"SoundDuration":85539,"Delta":51653682},{"NoteNumber":67,"Velocity":36,"Duration":85336,"SoundDuration":85336,"Delta":51739221},{"NoteNumber":65,"Velocity":38,"Duration":85324,"SoundDuration":85324,"Delta":51824557},{"NoteNumber":63,"Velocity":42,"Duration":85812,"SoundDuration":85812,"Delta":51909882},{"NoteNumber":67,"Velocity":34,"Duration":86306,"SoundDuration":86306,"Delta":51995695},{"NoteNumber":74,"Velocity":35,"Duration":86805,"SoundDuration":86805,"Delta":52082001},{"NoteNumber":56,"Velocity":51,"Duration":686710,"SoundDuration":686710,"Delta":52168807},{"NoteNumber":60,"Velocity":31,"Duration":86108,"SoundDuration":86108,"Delta":52254932},{"NoteNumber":62,"Velocity":39,"Duration":85906,"SoundDuration":85906,"Delta":52341040},{"NoteNumber":63,"Velocity":44,"Duration":85702,"SoundDuration":85702,"Delta":52426946},{"NoteNumber":72,"Velocity":52,"Duration":342868,"SoundDuration":342868,"Delta":52512649},{"NoteNumber":68,"Velocity":29,"Duration":85531,"SoundDuration":85531,"Delta":52598107},{"NoteNumber":65,"Velocity":31,"Duration":85816,"SoundDuration":85816,"Delta":52683638},{"NoteNumber":63,"Velocity":30,"Duration":86062,"SoundDuration":86062,"Delta":52769454},{"NoteNumber":55,"Velocity":47,"Duration":688202,"SoundDuration":688202,"Delta":52855517},{"NoteNumber":58,"Velocity":37,"Duration":86107,"SoundDuration":86107,"Delta":52941790},{"NoteNumber":62,"Velocity":41,"Duration":85906,"SoundDuration":85906,"Delta":53027898},{"NoteNumber":63,"Velocity":46,"Duration":85743,"SoundDuration":85743,"Delta":53113805},{"NoteNumber":70,"Velocity":53,"Duration":344171,"SoundDuration":344171,"Delta":53199548},{"NoteNumber":67,"Velocity":29,"Duration":85939,"SoundDuration":85939,"Delta":53285242},{"NoteNumber":65,"Velocity":29,"Duration":86145,"SoundDuration":86145,"Delta":53371182},{"NoteNumber":63,"Velocity":29,"Duration":86393,"SoundDuration":86393,"Delta":53457327},{"NoteNumber":53,"Velocity":51,"Duration":341038,"SoundDuration":341038,"Delta":53543720},{"NoteNumber":56,"Velocity":29,"Duration":85130,"SoundDuration":85130,"Delta":53629367},{"NoteNumber":60,"Velocity":33,"Duration":85130,"SoundDuration":85130,"Delta":53714497},{"NoteNumber":68,"Velocity":29,"Duration":85130,"SoundDuration":85130,"Delta":53799628},{"NoteNumber":51,"Velocity":52,"Duration":691198,"SoundDuration":691198,"Delta":53884758},{"NoteNumber":55,"Velocity":29,"Duration":86605,"SoundDuration":86605,"Delta":53971215},{"NoteNumber":57,"Velocity":34,"Duration":86442,"SoundDuration":86442,"Delta":54057820},{"NoteNumber":58,"Velocity":29,"Duration":86355,"SoundDuration":86355,"Delta":54144263},{"NoteNumber":59,"Velocity":38,"Duration":86194,"SoundDuration":86194,"Delta":54230618},{"NoteNumber":62,"Velocity":29,"Duration":86186,"SoundDuration":86186,"Delta":54316813},{"NoteNumber":67,"Velocity":32,"Duration":86355,"SoundDuration":86355,"Delta":54403000},{"NoteNumber":60,"Velocity":29,"Duration":86600,"SoundDuration":86600,"Delta":54489355},{"NoteNumber":49,"Velocity":47,"Duration":347377,"SoundDuration":347377,"Delta":54575956},{"NoteNumber":55,"Velocity":29,"Duration":86855,"SoundDuration":86855,"Delta":54662766},{"NoteNumber":58,"Velocity":34,"Duration":86855,"SoundDuration":86855,"Delta":54749622},{"NoteNumber":64,"Velocity":29,"Duration":43427,"SoundDuration":43427,"Delta":54836477},{"NoteNumber":48,"Velocity":37,"Duration":388333,"SoundDuration":388333,"Delta":54879905},{"NoteNumber":56,"Velocity":42,"Duration":366619,"SoundDuration":366619,"Delta":54901619},{"NoteNumber":65,"Velocity":47,"Duration":344905,"SoundDuration":344905,"Delta":54923333},{"NoteNumber":29,"Velocity":32,"Duration":1374431,"SoundDuration":1374431,"Delta":54923333},{"NoteNumber":41,"Velocity":42,"Duration":1374431,"SoundDuration":1374431,"Delta":54923333},{"NoteNumber":50,"Velocity":38,"Duration":86075,"SoundDuration":86075,"Delta":55096302},{"NoteNumber":52,"Velocity":43,"Duration":85861,"SoundDuration":85861,"Delta":55182377},{"NoteNumber":53,"Velocity":46,"Duration":85861,"SoundDuration":85861,"Delta":55268239},{"NoteNumber":55,"Velocity":48,"Duration":85861,"SoundDuration":85861,"Delta":55354100},{"NoteNumber":56,"Velocity":49,"Duration":85861,"SoundDuration":85861,"Delta":55439962},{"NoteNumber":57,"Velocity":50,"Duration":85861,"SoundDuration":85861,"Delta":55525823},{"NoteNumber":58,"Velocity":58,"Duration":514846,"SoundDuration":514846,"Delta":55611685},{"NoteNumber":61,"Velocity":31,"Duration":85861,"SoundDuration":85861,"Delta":55697546},{"NoteNumber":64,"Velocity":38,"Duration":85861,"SoundDuration":85861,"Delta":55783408},{"NoteNumber":67,"Velocity":32,"Duration":85861,"SoundDuration":85861,"Delta":55869269},{"NoteNumber":68,"Velocity":40,"Duration":85783,"SoundDuration":85783,"Delta":55955131},{"NoteNumber":73,"Velocity":50,"Duration":85616,"SoundDuration":85616,"Delta":56040915},{"NoteNumber":67,"Velocity":43,"Duration":85616,"SoundDuration":85616,"Delta":56126531},{"NoteNumber":60,"Velocity":47,"Duration":171233,"SoundDuration":171233,"Delta":56126531},{"NoteNumber":64,"Velocity":29,"Duration":85616,"SoundDuration":85616,"Delta":56212148},{"NoteNumber":56,"Velocity":53,"Duration":683506,"SoundDuration":683506,"Delta":56297764},{"NoteNumber":60,"Velocity":29,"Duration":85372,"SoundDuration":85372,"Delta":56383137},{"NoteNumber":63,"Velocity":29,"Duration":85372,"SoundDuration":85372,"Delta":56468510},{"NoteNumber":64,"Velocity":30,"Duration":85372,"SoundDuration":85372,"Delta":56553883},{"NoteNumber":67,"Velocity":35,"Duration":85251,"SoundDuration":85251,"Delta":56639255},{"NoteNumber":72,"Velocity":43,"Duration":85531,"SoundDuration":85531,"Delta":56724507},{"NoteNumber":65,"Velocity":29,"Duration":85616,"SoundDuration":85616,"Delta":56810038},{"NoteNumber":60,"Velocity":29,"Duration":85616,"SoundDuration":85616,"Delta":56895655},{"NoteNumber":55,"Velocity":47,"Duration":686885,"SoundDuration":686885,"Delta":56981271},{"NoteNumber":58,"Velocity":29,"Duration":85616,"SoundDuration":85616,"Delta":57066888},{"NoteNumber":65,"Velocity":32,"Duration":85616,"SoundDuration":85616,"Delta":57152504},{"NoteNumber":64,"Velocity":36,"Duration":85616,"SoundDuration":85616,"Delta":57238121},{"NoteNumber":61,"Velocity":38,"Duration":85494,"SoundDuration":85494,"Delta":57323737},{"NoteNumber":60,"Velocity":42,"Duration":85812,"SoundDuration":85812,"Delta":57409232},{"NoteNumber":64,"Velocity":34,"Duration":86306,"SoundDuration":86306,"Delta":57495045},{"NoteNumber":70,"Velocity":35,"Duration":86805,"SoundDuration":86805,"Delta":57581351},{"NoteNumber":53,"Velocity":51,"Duration":686710,"SoundDuration":686710,"Delta":57668157},{"NoteNumber":56,"Velocity":33,"Duration":86108,"SoundDuration":86108,"Delta":57754281},{"NoteNumber":59,"Velocity":36,"Duration":85906,"SoundDuration":85906,"Delta":57840389},{"NoteNumber":60,"Velocity":35,"Duration":85702,"SoundDuration":85702,"Delta":57926296},{"NoteNumber":68,"Velocity":42,"Duration":342868,"SoundDuration":342868,"Delta":58011998},{"NoteNumber":65,"Velocity":29,"Duration":85531,"SoundDuration":85531,"Delta":58097456},{"NoteNumber":61,"Velocity":31,"Duration":85816,"SoundDuration":85816,"Delta":58182988},{"NoteNumber":60,"Velocity":30,"Duration":86062,"SoundDuration":86062,"Delta":58268804},{"NoteNumber":51,"Velocity":47,"Duration":688244,"SoundDuration":688244,"Delta":58354867},{"NoteNumber":55,"Velocity":34,"Duration":86107,"SoundDuration":86107,"Delta":58441140},{"NoteNumber":59,"Velocity":37,"Duration":85906,"SoundDuration":85906,"Delta":58527248},{"NoteNumber":60,"Velocity":33,"Duration":85743,"SoundDuration":85743,"Delta":58613155},{"NoteNumber":67,"Velocity":41,"Duration":344213,"SoundDuration":344213,"Delta":58698898},{"NoteNumber":63,"Velocity":29,"Duration":85939,"SoundDuration":85939,"Delta":58784592},{"NoteNumber":62,"Velocity":29,"Duration":86145,"SoundDuration":86145,"Delta":58870532},{"NoteNumber":60,"Velocity":29,"Duration":86434,"SoundDuration":86434,"Delta":58956677},{"NoteNumber":50,"Velocity":51,"Duration":349498,"SoundDuration":349498,"Delta":59043111},{"NoteNumber":53,"Velocity":29,"Duration":87061,"SoundDuration":87061,"Delta":59130493},{"NoteNumber":56,"Velocity":33,"Duration":87438,"SoundDuration":87438,"Delta":59217555},{"NoteNumber":65,"Velocity":29,"Duration":87616,"SoundDuration":87616,"Delta":59304993},{"NoteNumber":48,"Velocity":58,"Duration":701564,"SoundDuration":701564,"Delta":59392610},{"NoteNumber":51,"Velocity":29,"Duration":87616,"SoundDuration":87616,"Delta":59480227},{"NoteNumber":53,"Velocity":34,"Duration":87616,"SoundDuration":87616,"Delta":59567843},{"NoteNumber":54,"Velocity":29,"Duration":87616,"SoundDuration":87616,"Delta":59655460},{"NoteNumber":55,"Velocity":38,"Duration":87616,"SoundDuration":87616,"Delta":59743077},{"NoteNumber":58,"Velocity":29,"Duration":87217,"SoundDuration":87217,"Delta":59830694},{"NoteNumber":63,"Velocity":35,"Duration":88131,"SoundDuration":88131,"Delta":59917911},{"NoteNumber":56,"Velocity":29,"Duration":88131,"SoundDuration":88131,"Delta":60006043},{"NoteNumber":44,"Velocity":68,"Duration":352526,"SoundDuration":352526,"Delta":60094174},{"NoteNumber":48,"Velocity":33,"Duration":88131,"SoundDuration":88131,"Delta":60182306},{"NoteNumber":53,"Velocity":43,"Duration":88131,"SoundDuration":88131,"Delta":60270437},{"NoteNumber":60,"Velocity":34,"Duration":88131,"SoundDuration":88131,"Delta":60358569},{"NoteNumber":47,"Velocity":90,"Duration":1374297,"SoundDuration":1374297,"Delta":60446700},{"NoteNumber":29,"Velocity":74,"Duration":1374297,"SoundDuration":1374297,"Delta":60446700},{"NoteNumber":41,"Velocity":74,"Duration":1374297,"SoundDuration":1374297,"Delta":60446700},{"NoteNumber":50,"Velocity":40,"Duration":86372,"SoundDuration":86372,"Delta":60621714},{"NoteNumber":56,"Velocity":41,"Duration":85878,"SoundDuration":85878,"Delta":60708087},{"NoteNumber":58,"Velocity":44,"Duration":85308,"SoundDuration":85308,"Delta":60793965},{"NoteNumber":59,"Velocity":53,"Duration":84814,"SoundDuration":84814,"Delta":60879274},{"NoteNumber":62,"Velocity":55,"Duration":84412,"SoundDuration":84412,"Delta":60964088},{"NoteNumber":68,"Velocity":56,"Duration":84412,"SoundDuration":84412,"Delta":61048500},{"NoteNumber":74,"Velocity":71,"Duration":688086,"SoundDuration":688086,"Delta":61132912},{"NoteNumber":68,"Velocity":58,"Duration":84412,"SoundDuration":84412,"Delta":61217324},{"NoteNumber":62,"Velocity":57,"Duration":84293,"SoundDuration":84293,"Delta":61301736},{"NoteNumber":58,"Velocity":57,"Duration":84634,"SoundDuration":84634,"Delta":61386029},{"NoteNumber":59,"Velocity":57,"Duration":85247,"SoundDuration":85247,"Delta":61470664},{"NoteNumber":56,"Velocity":55,"Duration":85845,"SoundDuration":85845,"Delta":61555911},{"NoteNumber":50,"Velocity":48,"Duration":86476,"SoundDuration":86476,"Delta":61641757},{"NoteNumber":41,"Velocity":48,"Duration":92764,"SoundDuration":92764,"Delta":61728233},{"NoteNumber":48,"Velocity":90,"Duration":1374862,"SoundDuration":1374862,"Delta":61820998},{"NoteNumber":30,"Velocity":74,"Duration":1374862,"SoundDuration":1374862,"Delta":61820998},{"NoteNumber":42,"Velocity":74,"Duration":1374862,"SoundDuration":1374862,"Delta":61820998},{"NoteNumber":51,"Velocity":40,"Duration":86372,"SoundDuration":86372,"Delta":61996012},{"NoteNumber":57,"Velocity":41,"Duration":85878,"SoundDuration":85878,"Delta":62082385},{"NoteNumber":59,"Velocity":44,"Duration":85308,"SoundDuration":85308,"Delta":62168263},{"NoteNumber":60,"Velocity":54,"Duration":84814,"SoundDuration":84814,"Delta":62253571},{"NoteNumber":63,"Velocity":58,"Duration":84412,"SoundDuration":84412,"Delta":62338386},{"NoteNumber":69,"Velocity":61,"Duration":84412,"SoundDuration":84412,"Delta":62422798},{"NoteNumber":75,"Velocity":71,"Duration":688651,"SoundDuration":688651,"Delta":62507210},{"NoteNumber":69,"Velocity":57,"Duration":84412,"SoundDuration":84412,"Delta":62591622},{"NoteNumber":63,"Velocity":56,"Duration":84293,"SoundDuration":84293,"Delta":62676034},{"NoteNumber":59,"Velocity":53,"Duration":84634,"SoundDuration":84634,"Delta":62760327},{"NoteNumber":60,"Velocity":48,"Duration":85247,"SoundDuration":85247,"Delta":62844962},{"NoteNumber":57,"Velocity":48,"Duration":85845,"SoundDuration":85845,"Delta":62930209},{"NoteNumber":51,"Velocity":48,"Duration":86463,"SoundDuration":86463,"Delta":63016055},{"NoteNumber":41,"Velocity":48,"Duration":93341,"SoundDuration":93341,"Delta":63102519},{"NoteNumber":50,"Velocity":90,"Duration":1379501,"SoundDuration":1379501,"Delta":63195861},{"NoteNumber":31,"Velocity":74,"Duration":1024220,"SoundDuration":1024220,"Delta":63195861},{"NoteNumber":43,"Velocity":74,"Duration":1024220,"SoundDuration":1024220,"Delta":63195861},{"NoteNumber":53,"Velocity":40,"Duration":86372,"SoundDuration":86372,"Delta":63370875},{"NoteNumber":58,"Velocity":41,"Duration":85878,"SoundDuration":85878,"Delta":63457248},{"NoteNumber":59,"Velocity":44,"Duration":85308,"SoundDuration":85308,"Delta":63543126},{"NoteNumber":61,"Velocity":55,"Duration":84814,"SoundDuration":84814,"Delta":63628434},{"NoteNumber":62,"Velocity":59,"Duration":84412,"SoundDuration":84412,"Delta":63713248},{"NoteNumber":65,"Velocity":62,"Duration":84412,"SoundDuration":84412,"Delta":63797660},{"NoteNumber":71,"Velocity":73,"Duration":693290,"SoundDuration":693290,"Delta":63882072},{"NoteNumber":65,"Velocity":58,"Duration":84412,"SoundDuration":84412,"Delta":63966484},{"NoteNumber":62,"Velocity":58,"Duration":84293,"SoundDuration":84293,"Delta":64050896},{"NoteNumber":60,"Velocity":55,"Duration":84891,"SoundDuration":84891,"Delta":64135190},{"NoteNumber":62,"Velocity":49,"Duration":86805,"SoundDuration":86805,"Delta":64220081},{"NoteNumber":32,"Velocity":61,"Duration":355281,"SoundDuration":355281,"Delta":64220081},{"NoteNumber":44,"Velocity":79,"Duration":355281,"SoundDuration":355281,"Delta":64220081},{"NoteNumber":59,"Velocity":50,"Duration":87311,"SoundDuration":87311,"Delta":64306887},{"NoteNumber":53,"Velocity":50,"Duration":87822,"SoundDuration":87822,"Delta":64394198},{"NoteNumber":50,"Velocity":50,"Duration":93341,"SoundDuration":93341,"Delta":64482021},{"NoteNumber":51,"Velocity":95,"Duration":1441182,"SoundDuration":1441182,"Delta":64575363},{"NoteNumber":33,"Velocity":78,"Duration":1441182,"SoundDuration":1441182,"Delta":64575363},{"NoteNumber":45,"Velocity":78,"Duration":1441182,"SoundDuration":1441182,"Delta":64575363},{"NoteNumber":54,"Velocity":42,"Duration":86372,"SoundDuration":86372,"Delta":64750377},{"NoteNumber":59,"Velocity":43,"Duration":85878,"SoundDuration":85878,"Delta":64836750},{"NoteNumber":60,"Velocity":47,"Duration":85308,"SoundDuration":85308,"Delta":64922628},{"NoteNumber":62,"Velocity":58,"Duration":84814,"SoundDuration":84814,"Delta":65007936},{"NoteNumber":63,"Velocity":63,"Duration":84412,"SoundDuration":84412,"Delta":65092750},{"NoteNumber":66,"Velocity":66,"Duration":84412,"SoundDuration":84412,"Delta":65177162},{"NoteNumber":72,"Velocity":77,"Duration":754970,"SoundDuration":754970,"Delta":65261574},{"NoteNumber":66,"Velocity":62,"Duration":84412,"SoundDuration":84412,"Delta":65345986},{"NoteNumber":63,"Velocity":61,"Duration":84293,"SoundDuration":84293,"Delta":65430398},{"NoteNumber":62,"Velocity":58,"Duration":84666,"SoundDuration":84666,"Delta":65514692},{"NoteNumber":63,"Velocity":53,"Duration":86057,"SoundDuration":86057,"Delta":65599358},{"NoteNumber":60,"Velocity":53,"Duration":88078,"SoundDuration":88078,"Delta":65685415},{"NoteNumber":54,"Velocity":53,"Duration":90005,"SoundDuration":90005,"Delta":65773494},{"NoteNumber":51,"Velocity":53,"Duration":153045,"SoundDuration":153045,"Delta":65863500},{"NoteNumber":27,"Velocity":83,"Duration":1384799,"SoundDuration":1384799,"Delta":66016545},{"NoteNumber":39,"Velocity":83,"Duration":1384799,"SoundDuration":1384799,"Delta":66016545},{"NoteNumber":55,"Velocity":102,"Duration":174723,"SoundDuration":174723,"Delta":66016545},{"NoteNumber":46,"Velocity":48,"Duration":87361,"SoundDuration":87361,"Delta":66103907},{"NoteNumber":51,"Velocity":52,"Duration":86743,"SoundDuration":86743,"Delta":66191269},{"NoteNumber":55,"Velocity":55,"Duration":86401,"SoundDuration":86401,"Delta":66278012},{"NoteNumber":67,"Velocity":49,"Duration":86153,"SoundDuration":86153,"Delta":66364414},{"NoteNumber":58,"Velocity":60,"Duration":86153,"SoundDuration":86153,"Delta":66364414},{"NoteNumber":70,"Velocity":53,"Duration":85865,"SoundDuration":85865,"Delta":66450567},{"NoteNumber":63,"Velocity":64,"Duration":85865,"SoundDuration":85865,"Delta":66450567},{"NoteNumber":75,"Velocity":57,"Duration":85620,"SoundDuration":85620,"Delta":66536433},{"NoteNumber":67,"Velocity":68,"Duration":170961,"SoundDuration":170961,"Delta":66536433},{"NoteNumber":79,"Velocity":61,"Duration":85340,"SoundDuration":85340,"Delta":66622053},{"NoteNumber":91,"Velocity":64,"Duration":85427,"SoundDuration":85427,"Delta":66707394},{"NoteNumber":87,"Velocity":57,"Duration":85523,"SoundDuration":85523,"Delta":66792822},{"NoteNumber":82,"Velocity":56,"Duration":86579,"SoundDuration":86579,"Delta":66878346},{"NoteNumber":75,"Velocity":42,"Duration":86579,"SoundDuration":86579,"Delta":66878346},{"NoteNumber":79,"Velocity":56,"Duration":90516,"SoundDuration":90516,"Delta":66964925},{"NoteNumber":77,"Velocity":40,"Duration":90516,"SoundDuration":90516,"Delta":66964925},{"NoteNumber":75,"Velocity":50,"Duration":87493,"SoundDuration":87493,"Delta":67055441},{"NoteNumber":70,"Velocity":50,"Duration":87493,"SoundDuration":87493,"Delta":67055441},{"NoteNumber":78,"Velocity":50,"Duration":87493,"SoundDuration":87493,"Delta":67055441},{"NoteNumber":79,"Velocity":41,"Duration":86780,"SoundDuration":86780,"Delta":67142935},{"NoteNumber":78,"Velocity":49,"Duration":86120,"SoundDuration":86120,"Delta":67229716},{"NoteNumber":81,"Velocity":49,"Duration":86120,"SoundDuration":86120,"Delta":67229716},{"NoteNumber":82,"Velocity":41,"Duration":85507,"SoundDuration":85507,"Delta":67315837},{"NoteNumber":79,"Velocity":41,"Duration":85507,"SoundDuration":85507,"Delta":67315837},{"NoteNumber":87,"Velocity":58,"Duration":85324,"SoundDuration":85324,"Delta":67401344},{"NoteNumber":82,"Velocity":43,"Duration":85853,"SoundDuration":85853,"Delta":67486669},{"NoteNumber":79,"Velocity":53,"Duration":86389,"SoundDuration":86389,"Delta":67572523},{"NoteNumber":70,"Velocity":45,"Duration":86389,"SoundDuration":86389,"Delta":67572523},{"NoteNumber":75,"Velocity":46,"Duration":86851,"SoundDuration":86851,"Delta":67658912},{"NoteNumber":72,"Velocity":39,"Duration":86851,"SoundDuration":86851,"Delta":67658912},{"NoteNumber":70,"Velocity":51,"Duration":87023,"SoundDuration":87023,"Delta":67745763},{"NoteNumber":67,"Velocity":51,"Duration":87023,"SoundDuration":87023,"Delta":67745763},{"NoteNumber":74,"Velocity":51,"Duration":87023,"SoundDuration":87023,"Delta":67745763},{"NoteNumber":75,"Velocity":42,"Duration":86655,"SoundDuration":86655,"Delta":67832787},{"NoteNumber":74,"Velocity":49,"Duration":86236,"SoundDuration":86236,"Delta":67919443},{"NoteNumber":78,"Velocity":49,"Duration":86236,"SoundDuration":86236,"Delta":67919443},{"NoteNumber":79,"Velocity":41,"Duration":85829,"SoundDuration":85829,"Delta":68005679},{"NoteNumber":75,"Velocity":41,"Duration":85829,"SoundDuration":85829,"Delta":68005679},{"NoteNumber":82,"Velocity":58,"Duration":85812,"SoundDuration":85812,"Delta":68091508},{"NoteNumber":79,"Velocity":43,"Duration":86306,"SoundDuration":86306,"Delta":68177321},{"NoteNumber":75,"Velocity":53,"Duration":86924,"SoundDuration":86924,"Delta":68263627},{"NoteNumber":67,"Velocity":45,"Duration":86924,"SoundDuration":86924,"Delta":68263627},{"NoteNumber":70,"Velocity":46,"Duration":88747,"SoundDuration":88747,"Delta":68350551},{"NoteNumber":68,"Velocity":40,"Duration":88747,"SoundDuration":88747,"Delta":68350551},{"NoteNumber":67,"Velocity":51,"Duration":87243,"SoundDuration":87243,"Delta":68439298},{"NoteNumber":63,"Velocity":51,"Duration":87243,"SoundDuration":87243,"Delta":68439298},{"NoteNumber":69,"Velocity":51,"Duration":87243,"SoundDuration":87243,"Delta":68439298},{"NoteNumber":70,"Velocity":42,"Duration":86701,"SoundDuration":86701,"Delta":68526542},{"NoteNumber":71,"Velocity":49,"Duration":86157,"SoundDuration":86157,"Delta":68613243},{"NoteNumber":74,"Velocity":49,"Duration":86157,"SoundDuration":86157,"Delta":68613243},{"NoteNumber":75,"Velocity":41,"Duration":85625,"SoundDuration":85625,"Delta":68699401},{"NoteNumber":70,"Velocity":41,"Duration":85625,"SoundDuration":85625,"Delta":68699401},{"NoteNumber":79,"Velocity":58,"Duration":85567,"SoundDuration":85567,"Delta":68785026},{"NoteNumber":75,"Velocity":43,"Duration":86141,"SoundDuration":86141,"Delta":68870594},{"NoteNumber":70,"Velocity":53,"Duration":86759,"SoundDuration":86759,"Delta":68956735},{"NoteNumber":63,"Velocity":48,"Duration":86759,"SoundDuration":86759,"Delta":68956735},{"NoteNumber":67,"Velocity":46,"Duration":87926,"SoundDuration":87926,"Delta":69043495},{"NoteNumber":65,"Velocity":41,"Duration":87926,"SoundDuration":87926,"Delta":69043495},{"NoteNumber":63,"Velocity":50,"Duration":89366,"SoundDuration":89366,"Delta":69131421},{"NoteNumber":58,"Velocity":50,"Duration":89366,"SoundDuration":89366,"Delta":69131421},{"NoteNumber":66,"Velocity":50,"Duration":89366,"SoundDuration":89366,"Delta":69131421},{"NoteNumber":67,"Velocity":43,"Duration":87417,"SoundDuration":87417,"Delta":69220788},{"NoteNumber":66,"Velocity":49,"Duration":86822,"SoundDuration":86822,"Delta":69308205},{"NoteNumber":69,"Velocity":49,"Duration":86822,"SoundDuration":86822,"Delta":69308205},{"NoteNumber":70,"Velocity":41,"Duration":86166,"SoundDuration":86166,"Delta":69395028},{"NoteNumber":67,"Velocity":41,"Duration":86166,"SoundDuration":86166,"Delta":69395028},{"NoteNumber":75,"Velocity":58,"Duration":85853,"SoundDuration":85853,"Delta":69481194},{"NoteNumber":70,"Velocity":43,"Duration":86593,"SoundDuration":86593,"Delta":69567048},{"NoteNumber":67,"Velocity":53,"Duration":87222,"SoundDuration":87222,"Delta":69653641},{"NoteNumber":58,"Velocity":47,"Duration":87222,"SoundDuration":87222,"Delta":69653641},{"NoteNumber":63,"Velocity":46,"Duration":87955,"SoundDuration":87955,"Delta":69740863},{"NoteNumber":60,"Velocity":41,"Duration":87955,"SoundDuration":87955,"Delta":69740863},{"NoteNumber":58,"Velocity":52,"Duration":87668,"SoundDuration":87668,"Delta":69828819},{"NoteNumber":55,"Velocity":52,"Duration":87668,"SoundDuration":87668,"Delta":69828819},{"NoteNumber":62,"Velocity":52,"Duration":87668,"SoundDuration":87668,"Delta":69828819},{"NoteNumber":63,"Velocity":42,"Duration":87158,"SoundDuration":87158,"Delta":69916487},{"NoteNumber":66,"Velocity":49,"Duration":86655,"SoundDuration":86655,"Delta":70003646},{"NoteNumber":67,"Velocity":41,"Duration":86116,"SoundDuration":86116,"Delta":70090302},{"NoteNumber":59,"Velocity":78,"Duration":1485606,"SoundDuration":1485606,"Delta":70176418},{"NoteNumber":31,"Velocity":77,"Duration":1485606,"SoundDuration":1485606,"Delta":70176418},{"NoteNumber":43,"Velocity":83,"Duration":1485606,"SoundDuration":1485606,"Delta":70176418},{"NoteNumber":63,"Velocity":52,"Duration":87239,"SoundDuration":87239,"Delta":70266131},{"NoteNumber":66,"Velocity":52,"Duration":86944,"SoundDuration":86944,"Delta":70353370},{"NoteNumber":53,"Velocity":50,"Duration":173636,"SoundDuration":173636,"Delta":70353370},{"NoteNumber":67,"Velocity":50,"Duration":86692,"SoundDuration":86692,"Delta":70440314},{"NoteNumber":68,"Velocity":52,"Duration":86401,"SoundDuration":86401,"Delta":70527007},{"NoteNumber":59,"Velocity":52,"Duration":172513,"SoundDuration":172513,"Delta":70527007},{"NoteNumber":67,"Velocity":55,"Duration":86112,"SoundDuration":86112,"Delta":70613408},{"NoteNumber":66,"Velocity":57,"Duration":85828,"SoundDuration":85828,"Delta":70699520},{"NoteNumber":63,"Velocity":49,"Duration":171291,"SoundDuration":171291,"Delta":70699520},{"NoteNumber":67,"Velocity":58,"Duration":85462,"SoundDuration":85462,"Delta":70785349},{"NoteNumber":79,"Velocity":62,"Duration":85402,"SoundDuration":85402,"Delta":70870812},{"NoteNumber":65,"Velocity":62,"Duration":172029,"SoundDuration":172029,"Delta":70870812},{"NoteNumber":75,"Velocity":46,"Duration":86627,"SoundDuration":86627,"Delta":70956214},{"NoteNumber":71,"Velocity":52,"Duration":87896,"SoundDuration":87896,"Delta":71042841},{"NoteNumber":63,"Velocity":50,"Duration":177184,"SoundDuration":177184,"Delta":71042841},{"NoteNumber":67,"Velocity":46,"Duration":89288,"SoundDuration":89288,"Delta":71130738},{"NoteNumber":68,"Velocity":52,"Duration":91316,"SoundDuration":91316,"Delta":71220026},{"NoteNumber":59,"Velocity":52,"Duration":185204,"SoundDuration":185204,"Delta":71220026},{"NoteNumber":67,"Velocity":46,"Duration":93888,"SoundDuration":93888,"Delta":71311342},{"NoteNumber":66,"Velocity":49,"Duration":98063,"SoundDuration":98063,"Delta":71405231},{"NoteNumber":55,"Velocity":50,"Duration":256794,"SoundDuration":256794,"Delta":71405231},{"NoteNumber":67,"Velocity":46,"Duration":158730,"SoundDuration":158730,"Delta":71503294},{"NoteNumber":48,"Velocity":74,"Duration":1396912,"SoundDuration":1396912,"Delta":71662025},{"NoteNumber":60,"Velocity":78,"Duration":1396912,"SoundDuration":1396912,"Delta":71662025},{"NoteNumber":36,"Velocity":83,"Duration":1396912,"SoundDuration":1396912,"Delta":71662025},{"NoteNumber":24,"Velocity":77,"Duration":1396912,"SoundDuration":1396912,"Delta":71666602},{"NoteNumber":63,"Velocity":52,"Duration":89076,"SoundDuration":89076,"Delta":71752721},{"NoteNumber":66,"Velocity":52,"Duration":87516,"SoundDuration":87516,"Delta":71841797},{"NoteNumber":43,"Velocity":50,"Duration":174125,"SoundDuration":174125,"Delta":71841797},{"NoteNumber":67,"Velocity":50,"Duration":86609,"SoundDuration":86609,"Delta":71929314},{"NoteNumber":68,"Velocity":52,"Duration":86401,"SoundDuration":86401,"Delta":72015923},{"NoteNumber":51,"Velocity":52,"Duration":172513,"SoundDuration":172513,"Delta":72015923},{"NoteNumber":67,"Velocity":55,"Duration":86112,"SoundDuration":86112,"Delta":72102325},{"NoteNumber":66,"Velocity":57,"Duration":85828,"SoundDuration":85828,"Delta":72188437},{"NoteNumber":55,"Velocity":49,"Duration":171291,"SoundDuration":171291,"Delta":72188437},{"NoteNumber":67,"Velocity":58,"Duration":85462,"SoundDuration":85462,"Delta":72274266},{"NoteNumber":75,"Velocity":62,"Duration":85130,"SoundDuration":85130,"Delta":72359728},{"NoteNumber":63,"Velocity":62,"Duration":170458,"SoundDuration":170458,"Delta":72359728},{"NoteNumber":74,"Velocity":46,"Duration":85328,"SoundDuration":85328,"Delta":72444859},{"NoteNumber":72,"Velocity":52,"Duration":85490,"SoundDuration":85490,"Delta":72530187},{"NoteNumber":55,"Velocity":50,"Duration":171143,"SoundDuration":171143,"Delta":72530187},{"NoteNumber":67,"Velocity":46,"Duration":85653,"SoundDuration":85653,"Delta":72615678},{"NoteNumber":68,"Velocity":52,"Duration":86337,"SoundDuration":86337,"Delta":72701331},{"NoteNumber":51,"Velocity":52,"Duration":174611,"SoundDuration":174611,"Delta":72701331},{"NoteNumber":67,"Velocity":46,"Duration":88274,"SoundDuration":88274,"Delta":72787668},{"NoteNumber":66,"Velocity":49,"Duration":90402,"SoundDuration":90402,"Delta":72875943},{"NoteNumber":48,"Velocity":50,"Duration":182994,"SoundDuration":182994,"Delta":72875943},{"NoteNumber":67,"Velocity":46,"Duration":92592,"SoundDuration":92592,"Delta":72966345},{"NoteNumber":55,"Velocity":78,"Duration":1291325,"SoundDuration":1291325,"Delta":73058937},{"NoteNumber":31,"Velocity":77,"Duration":1479367,"SoundDuration":1479367,"Delta":73058937},{"NoteNumber":43,"Velocity":83,"Duration":1479367,"SoundDuration":1479367,"Delta":73058937},{"NoteNumber":59,"Velocity":52,"Duration":89076,"SoundDuration":89076,"Delta":73149634},{"NoteNumber":63,"Velocity":52,"Duration":87516,"SoundDuration":87516,"Delta":73238710},{"NoteNumber":51,"Velocity":50,"Duration":174125,"SoundDuration":174125,"Delta":73238710},{"NoteNumber":67,"Velocity":50,"Duration":86609,"SoundDuration":86609,"Delta":73326226},{"NoteNumber":68,"Velocity":52,"Duration":86401,"SoundDuration":86401,"Delta":73412836},{"NoteNumber":55,"Velocity":52,"Duration":172513,"SoundDuration":172513,"Delta":73412836},{"NoteNumber":67,"Velocity":55,"Duration":86112,"SoundDuration":86112,"Delta":73499237},{"NoteNumber":66,"Velocity":57,"Duration":85828,"SoundDuration":85828,"Delta":73585349},{"NoteNumber":59,"Velocity":49,"Duration":171291,"SoundDuration":171291,"Delta":73585349},{"NoteNumber":67,"Velocity":58,"Duration":85462,"SoundDuration":85462,"Delta":73671178},{"NoteNumber":75,"Velocity":62,"Duration":85130,"SoundDuration":85130,"Delta":73756641},{"NoteNumber":63,"Velocity":62,"Duration":170458,"SoundDuration":170458,"Delta":73756641},{"NoteNumber":72,"Velocity":46,"Duration":85328,"SoundDuration":85328,"Delta":73841771},{"NoteNumber":71,"Velocity":52,"Duration":85490,"SoundDuration":85490,"Delta":73927100},{"NoteNumber":55,"Velocity":50,"Duration":171143,"SoundDuration":171143,"Delta":73927100},{"NoteNumber":67,"Velocity":46,"Duration":85653,"SoundDuration":85653,"Delta":74012590},{"NoteNumber":68,"Velocity":52,"Duration":85626,"SoundDuration":85626,"Delta":74098243},{"NoteNumber":51,"Velocity":52,"Duration":171958,"SoundDuration":171958,"Delta":74098243},{"NoteNumber":67,"Velocity":46,"Duration":86332,"SoundDuration":86332,"Delta":74183869},{"NoteNumber":66,"Velocity":49,"Duration":87379,"SoundDuration":87379,"Delta":74270202},{"NoteNumber":47,"Velocity":50,"Duration":268102,"SoundDuration":268102,"Delta":74270202},{"NoteNumber":55,"Velocity":78,"Duration":1622933,"SoundDuration":1622933,"Delta":74357581},{"NoteNumber":67,"Velocity":46,"Duration":180723,"SoundDuration":180723,"Delta":74357581},{"NoteNumber":63,"Velocity":78,"Duration":1442210,"SoundDuration":1442210,"Delta":74538304},{"NoteNumber":27,"Velocity":77,"Duration":1442210,"SoundDuration":1442210,"Delta":74538304},{"NoteNumber":39,"Velocity":83,"Duration":1442210,"SoundDuration":1442210,"Delta":74538304},{"NoteNumber":46,"Velocity":50,"Duration":174125,"SoundDuration":174125,"Delta":74718077},{"NoteNumber":67,"Velocity":50,"Duration":86609,"SoundDuration":86609,"Delta":74805594},{"NoteNumber":68,"Velocity":52,"Duration":86401,"SoundDuration":86401,"Delta":74892203},{"NoteNumber":55,"Velocity":52,"Duration":172513,"SoundDuration":172513,"Delta":74892203},{"NoteNumber":67,"Velocity":55,"Duration":86112,"SoundDuration":86112,"Delta":74978604},{"NoteNumber":66,"Velocity":57,"Duration":85828,"SoundDuration":85828,"Delta":75064716},{"NoteNumber":58,"Velocity":49,"Duration":171291,"SoundDuration":171291,"Delta":75064716},{"NoteNumber":67,"Velocity":58,"Duration":85462,"SoundDuration":85462,"Delta":75150545},{"NoteNumber":75,"Velocity":62,"Duration":85130,"SoundDuration":85130,"Delta":75236008},{"NoteNumber":63,"Velocity":62,"Duration":170458,"SoundDuration":170458,"Delta":75236008},{"NoteNumber":71,"Velocity":46,"Duration":85328,"SoundDuration":85328,"Delta":75321138},{"NoteNumber":70,"Velocity":52,"Duration":85490,"SoundDuration":85490,"Delta":75406467},{"NoteNumber":58,"Velocity":50,"Duration":171143,"SoundDuration":171143,"Delta":75406467},{"NoteNumber":67,"Velocity":46,"Duration":85653,"SoundDuration":85653,"Delta":75491957},{"NoteNumber":68,"Velocity":52,"Duration":85861,"SoundDuration":85861,"Delta":75577610},{"NoteNumber":55,"Velocity":52,"Duration":171883,"SoundDuration":171883,"Delta":75577610},{"NoteNumber":67,"Velocity":46,"Duration":86021,"SoundDuration":86021,"Delta":75663472},{"NoteNumber":66,"Velocity":49,"Duration":86107,"SoundDuration":86107,"Delta":75749494},{"NoteNumber":51,"Velocity":50,"Duration":231021,"SoundDuration":231021,"Delta":75749494},{"NoteNumber":67,"Velocity":46,"Duration":144913,"SoundDuration":144913,"Delta":75835602},{"NoteNumber":58,"Velocity":54,"Duration":2767463,"SoundDuration":2767463,"Delta":75980515},{"NoteNumber":46,"Velocity":56,"Duration":1383731,"SoundDuration":1383731,"Delta":75980515},{"NoteNumber":34,"Velocity":56,"Duration":1383731,"SoundDuration":1383731,"Delta":75980515},{"NoteNumber":62,"Velocity":37,"Duration":87516,"SoundDuration":87516,"Delta":76160288},{"NoteNumber":50,"Velocity":37,"Duration":174125,"SoundDuration":174125,"Delta":76160288},{"NoteNumber":67,"Velocity":36,"Duration":86609,"SoundDuration":86609,"Delta":76247804},{"NoteNumber":68,"Velocity":38,"Duration":86401,"SoundDuration":86401,"Delta":76334414},{"NoteNumber":55,"Velocity":38,"Duration":172513,"SoundDuration":172513,"Delta":76334414},{"NoteNumber":67,"Velocity":40,"Duration":86112,"SoundDuration":86112,"Delta":76420815},{"NoteNumber":66,"Velocity":41,"Duration":85828,"SoundDuration":85828,"Delta":76506927},{"NoteNumber":58,"Velocity":35,"Duration":171291,"SoundDuration":171291,"Delta":76506927},{"NoteNumber":67,"Velocity":41,"Duration":85462,"SoundDuration":85462,"Delta":76592756},{"NoteNumber":74,"Velocity":44,"Duration":85130,"SoundDuration":85130,"Delta":76678219},{"NoteNumber":62,"Velocity":44,"Duration":170458,"SoundDuration":170458,"Delta":76678219},{"NoteNumber":72,"Velocity":32,"Duration":85328,"SoundDuration":85328,"Delta":76763349},{"NoteNumber":70,"Velocity":37,"Duration":85490,"SoundDuration":85490,"Delta":76848677},{"NoteNumber":58,"Velocity":35,"Duration":171143,"SoundDuration":171143,"Delta":76848677},{"NoteNumber":67,"Velocity":32,"Duration":85653,"SoundDuration":85653,"Delta":76934168},{"NoteNumber":68,"Velocity":37,"Duration":85861,"SoundDuration":85861,"Delta":77019821},{"NoteNumber":55,"Velocity":37,"Duration":171883,"SoundDuration":171883,"Delta":77019821},{"NoteNumber":67,"Velocity":31,"Duration":86021,"SoundDuration":86021,"Delta":77105683},{"NoteNumber":66,"Velocity":33,"Duration":86186,"SoundDuration":86186,"Delta":77191704},{"NoteNumber":50,"Velocity":34,"Duration":172542,"SoundDuration":172542,"Delta":77191704},{"NoteNumber":67,"Velocity":31,"Duration":86355,"SoundDuration":86355,"Delta":77277891},{"NoteNumber":46,"Velocity":45,"Duration":1383731,"SoundDuration":1383731,"Delta":77364247},{"NoteNumber":34,"Velocity":47,"Duration":1383731,"SoundDuration":1383731,"Delta":77364247},{"NoteNumber":22,"Velocity":47,"Duration":1383731,"SoundDuration":1383731,"Delta":77364247},{"NoteNumber":61,"Velocity":28,"Duration":89076,"SoundDuration":89076,"Delta":77454943},{"NoteNumber":64,"Velocity":28,"Duration":87516,"SoundDuration":87516,"Delta":77544019},{"NoteNumber":41,"Velocity":31,"Duration":174125,"SoundDuration":174125,"Delta":77544019},{"NoteNumber":65,"Velocity":28,"Duration":86609,"SoundDuration":86609,"Delta":77631536},{"NoteNumber":66,"Velocity":29,"Duration":86401,"SoundDuration":86401,"Delta":77718145},{"NoteNumber":49,"Velocity":33,"Duration":172513,"SoundDuration":172513,"Delta":77718145},{"NoteNumber":65,"Velocity":30,"Duration":86112,"SoundDuration":86112,"Delta":77804547},{"NoteNumber":64,"Velocity":31,"Duration":85828,"SoundDuration":85828,"Delta":77890659},{"NoteNumber":53,"Velocity":30,"Duration":171291,"SoundDuration":171291,"Delta":77890659},{"NoteNumber":65,"Velocity":32,"Duration":85462,"SoundDuration":85462,"Delta":77976488},{"NoteNumber":73,"Velocity":34,"Duration":85130,"SoundDuration":85130,"Delta":78061950},{"NoteNumber":61,"Velocity":39,"Duration":170458,"SoundDuration":170458,"Delta":78061950},{"NoteNumber":72,"Velocity":28,"Duration":85328,"SoundDuration":85328,"Delta":78147081},{"NoteNumber":70,"Velocity":33,"Duration":85490,"SoundDuration":85490,"Delta":78232409},{"NoteNumber":53,"Velocity":31,"Duration":171143,"SoundDuration":171143,"Delta":78232409},{"NoteNumber":65,"Velocity":28,"Duration":85653,"SoundDuration":85653,"Delta":78317900},{"NoteNumber":66,"Velocity":33,"Duration":85861,"SoundDuration":85861,"Delta":78403553},{"NoteNumber":49,"Velocity":33,"Duration":171883,"SoundDuration":171883,"Delta":78403553},{"NoteNumber":65,"Velocity":28,"Duration":86021,"SoundDuration":86021,"Delta":78489414},{"NoteNumber":64,"Velocity":30,"Duration":86186,"SoundDuration":86186,"Delta":78575436},{"NoteNumber":46,"Velocity":31,"Duration":172542,"SoundDuration":172542,"Delta":78575436},{"NoteNumber":65,"Velocity":28,"Duration":86355,"SoundDuration":86355,"Delta":78661622},{"NoteNumber":53,"Velocity":45,"Duration":1290179,"SoundDuration":1290179,"Delta":78747978},{"NoteNumber":41,"Velocity":47,"Duration":1383731,"SoundDuration":1383731,"Delta":78747978},{"NoteNumber":29,"Velocity":47,"Duration":1383731,"SoundDuration":1383731,"Delta":78747978},{"NoteNumber":57,"Velocity":28,"Duration":89076,"SoundDuration":89076,"Delta":78838675},{"NoteNumber":61,"Velocity":28,"Duration":87516,"SoundDuration":87516,"Delta":78927751},{"NoteNumber":49,"Velocity":31,"Duration":174125,"SoundDuration":174125,"Delta":78927751},{"NoteNumber":65,"Velocity":28,"Duration":86609,"SoundDuration":86609,"Delta":79015267},{"NoteNumber":66,"Velocity":29,"Duration":86401,"SoundDuration":86401,"Delta":79101877},{"NoteNumber":53,"Velocity":33,"Duration":172513,"SoundDuration":172513,"Delta":79101877},{"NoteNumber":65,"Velocity":30,"Duration":86112,"SoundDuration":86112,"Delta":79188278},{"NoteNumber":64,"Velocity":31,"Duration":85828,"SoundDuration":85828,"Delta":79274390},{"NoteNumber":57,"Velocity":30,"Duration":171291,"SoundDuration":171291,"Delta":79274390},{"NoteNumber":65,"Velocity":32,"Duration":85462,"SoundDuration":85462,"Delta":79360219},{"NoteNumber":73,"Velocity":34,"Duration":85130,"SoundDuration":85130,"Delta":79445682},{"NoteNumber":61,"Velocity":39,"Duration":170458,"SoundDuration":170458,"Delta":79445682},{"NoteNumber":70,"Velocity":28,"Duration":85328,"SoundDuration":85328,"Delta":79530812},{"NoteNumber":69,"Velocity":33,"Duration":85490,"SoundDuration":85490,"Delta":79616140},{"NoteNumber":53,"Velocity":31,"Duration":171143,"SoundDuration":171143,"Delta":79616140},{"NoteNumber":65,"Velocity":28,"Duration":85653,"SoundDuration":85653,"Delta":79701631},{"NoteNumber":66,"Velocity":33,"Duration":85861,"SoundDuration":85861,"Delta":79787284},{"NoteNumber":51,"Velocity":33,"Duration":171883,"SoundDuration":171883,"Delta":79787284},{"NoteNumber":65,"Velocity":28,"Duration":86021,"SoundDuration":86021,"Delta":79873146},{"NoteNumber":64,"Velocity":30,"Duration":86186,"SoundDuration":86186,"Delta":79959168},{"NoteNumber":45,"Velocity":31,"Duration":172542,"SoundDuration":172542,"Delta":79959168},{"NoteNumber":53,"Velocity":45,"Duration":1470087,"SoundDuration":1470087,"Delta":80045354},{"NoteNumber":65,"Velocity":28,"Duration":86355,"SoundDuration":86355,"Delta":80045354},{"NoteNumber":61,"Velocity":45,"Duration":1383731,"SoundDuration":1383731,"Delta":80131710},{"NoteNumber":37,"Velocity":47,"Duration":1383731,"SoundDuration":1383731,"Delta":80131710},{"NoteNumber":25,"Velocity":47,"Duration":1383731,"SoundDuration":1383731,"Delta":80131710},{"NoteNumber":44,"Velocity":31,"Duration":174125,"SoundDuration":174125,"Delta":80311482},{"NoteNumber":65,"Velocity":28,"Duration":86609,"SoundDuration":86609,"Delta":80398999},{"NoteNumber":66,"Velocity":29,"Duration":86401,"SoundDuration":86401,"Delta":80485608},{"NoteNumber":53,"Velocity":33,"Duration":172513,"SoundDuration":172513,"Delta":80485608},{"NoteNumber":65,"Velocity":30,"Duration":86112,"SoundDuration":86112,"Delta":80572010},{"NoteNumber":64,"Velocity":31,"Duration":85828,"SoundDuration":85828,"Delta":80658122},{"NoteNumber":56,"Velocity":30,"Duration":171291,"SoundDuration":171291,"Delta":80658122},{"NoteNumber":65,"Velocity":32,"Duration":85462,"SoundDuration":85462,"Delta":80743951},{"NoteNumber":73,"Velocity":34,"Duration":85130,"SoundDuration":85130,"Delta":80829413},{"NoteNumber":61,"Velocity":39,"Duration":170458,"SoundDuration":170458,"Delta":80829413},{"NoteNumber":69,"Velocity":28,"Duration":85328,"SoundDuration":85328,"Delta":80914544},{"NoteNumber":68,"Velocity":33,"Duration":85490,"SoundDuration":85490,"Delta":80999872},{"NoteNumber":56,"Velocity":31,"Duration":171143,"SoundDuration":171143,"Delta":80999872},{"NoteNumber":65,"Velocity":28,"Duration":85653,"SoundDuration":85653,"Delta":81085363},{"NoteNumber":66,"Velocity":33,"Duration":85861,"SoundDuration":85861,"Delta":81171016},{"NoteNumber":53,"Velocity":33,"Duration":171883,"SoundDuration":171883,"Delta":81171016},{"NoteNumber":65,"Velocity":28,"Duration":86021,"SoundDuration":86021,"Delta":81256877},{"NoteNumber":64,"Velocity":30,"Duration":86186,"SoundDuration":86186,"Delta":81342899},{"NoteNumber":50,"Velocity":31,"Duration":172542,"SoundDuration":172542,"Delta":81342899},{"NoteNumber":65,"Velocity":28,"Duration":86355,"SoundDuration":86355,"Delta":81429085},{"NoteNumber":56,"Velocity":45,"Duration":1383731,"SoundDuration":1383731,"Delta":81515441},{"NoteNumber":44,"Velocity":47,"Duration":1383731,"SoundDuration":1383731,"Delta":81515441},{"NoteNumber":32,"Velocity":47,"Duration":1383731,"SoundDuration":1383731,"Delta":81515441},{"NoteNumber":60,"Velocity":28,"Duration":87516,"SoundDuration":87516,"Delta":81695214},{"NoteNumber":48,"Velocity":31,"Duration":174125,"SoundDuration":174125,"Delta":81695214},{"NoteNumber":65,"Velocity":28,"Duration":86609,"SoundDuration":86609,"Delta":81782730},{"NoteNumber":67,"Velocity":29,"Duration":86401,"SoundDuration":86401,"Delta":81869340},{"NoteNumber":53,"Velocity":33,"Duration":172513,"SoundDuration":172513,"Delta":81869340},{"NoteNumber":65,"Velocity":30,"Duration":86112,"SoundDuration":86112,"Delta":81955741},{"NoteNumber":64,"Velocity":31,"Duration":85828,"SoundDuration":85828,"Delta":82041853},{"NoteNumber":56,"Velocity":30,"Duration":171291,"SoundDuration":171291,"Delta":82041853},{"NoteNumber":65,"Velocity":32,"Duration":85462,"SoundDuration":85462,"Delta":82127682},{"NoteNumber":72,"Velocity":34,"Duration":85130,"SoundDuration":85130,"Delta":82213145},{"NoteNumber":60,"Velocity":39,"Duration":170458,"SoundDuration":170458,"Delta":82213145},{"NoteNumber":70,"Velocity":28,"Duration":85328,"SoundDuration":85328,"Delta":82298275},{"NoteNumber":68,"Velocity":33,"Duration":85490,"SoundDuration":85490,"Delta":82383604},{"NoteNumber":56,"Velocity":31,"Duration":171143,"SoundDuration":171143,"Delta":82383604},{"NoteNumber":65,"Velocity":28,"Duration":85653,"SoundDuration":85653,"Delta":82469094},{"NoteNumber":67,"Velocity":33,"Duration":85861,"SoundDuration":85861,"Delta":82554747},{"NoteNumber":53,"Velocity":33,"Duration":171883,"SoundDuration":171883,"Delta":82554747},{"NoteNumber":65,"Velocity":28,"Duration":86021,"SoundDuration":86021,"Delta":82640609},{"NoteNumber":64,"Velocity":30,"Duration":86186,"SoundDuration":86186,"Delta":82726631},{"NoteNumber":48,"Velocity":31,"Duration":172542,"SoundDuration":172542,"Delta":82726631},{"NoteNumber":65,"Velocity":28,"Duration":86355,"SoundDuration":86355,"Delta":82812817},{"NoteNumber":56,"Velocity":45,"Duration":1383731,"SoundDuration":1383731,"Delta":82899173},{"NoteNumber":43,"Velocity":47,"Duration":1383731,"SoundDuration":1383731,"Delta":82899173},{"NoteNumber":31,"Velocity":47,"Duration":1383731,"SoundDuration":1383731,"Delta":82899173},{"NoteNumber":59,"Velocity":28,"Duration":89076,"SoundDuration":89076,"Delta":82989869},{"NoteNumber":61,"Velocity":28,"Duration":87516,"SoundDuration":87516,"Delta":83078945},{"NoteNumber":53,"Velocity":52,"Duration":346639,"SoundDuration":346639,"Delta":83078945},{"NoteNumber":62,"Velocity":28,"Duration":86609,"SoundDuration":86609,"Delta":83166462},{"NoteNumber":63,"Velocity":29,"Duration":86401,"SoundDuration":86401,"Delta":83253071},{"NoteNumber":62,"Velocity":30,"Duration":86112,"SoundDuration":86112,"Delta":83339473},{"NoteNumber":61,"Velocity":31,"Duration":85828,"SoundDuration":85828,"Delta":83425585},{"NoteNumber":56,"Velocity":50,"Duration":341750,"SoundDuration":341750,"Delta":83425585},{"NoteNumber":62,"Velocity":32,"Duration":85462,"SoundDuration":85462,"Delta":83511414},{"NoteNumber":71,"Velocity":40,"Duration":341602,"SoundDuration":341602,"Delta":83596876},{"NoteNumber":67,"Velocity":28,"Duration":85328,"SoundDuration":85328,"Delta":83682007},{"NoteNumber":65,"Velocity":38,"Duration":85490,"SoundDuration":85490,"Delta":83767335},{"NoteNumber":59,"Velocity":54,"Duration":343027,"SoundDuration":343027,"Delta":83767335},{"NoteNumber":62,"Velocity":32,"Duration":85653,"SoundDuration":85653,"Delta":83852826},{"NoteNumber":63,"Velocity":39,"Duration":85861,"SoundDuration":85861,"Delta":83938479},{"NoteNumber":62,"Velocity":32,"Duration":86021,"SoundDuration":86021,"Delta":84024340},{"NoteNumber":61,"Velocity":38,"Duration":86186,"SoundDuration":86186,"Delta":84110362},{"NoteNumber":65,"Velocity":58,"Duration":172542,"SoundDuration":172542,"Delta":84110362},{"NoteNumber":62,"Velocity":28,"Duration":86355,"SoundDuration":86355,"Delta":84196549},{"NoteNumber":55,"Velocity":65,"Duration":85766,"SoundDuration":85766,"Delta":84282904},{"NoteNumber":62,"Velocity":38,"Duration":85728,"SoundDuration":85728,"Delta":84368670},{"NoteNumber":65,"Velocity":47,"Duration":85166,"SoundDuration":85166,"Delta":84454399},{"NoteNumber":71,"Velocity":55,"Duration":87120,"SoundDuration":87120,"Delta":84539565},{"NoteNumber":79,"Velocity":70,"Duration":676328,"SoundDuration":676328,"Delta":84626686},{"NoteNumber":72,"Velocity":41,"Duration":84412,"SoundDuration":84412,"Delta":84711344},{"NoteNumber":71,"Velocity":49,"Duration":84412,"SoundDuration":84412,"Delta":84795756},{"NoteNumber":67,"Velocity":43,"Duration":84412,"SoundDuration":84412,"Delta":84880168},{"NoteNumber":65,"Velocity":38,"Duration":84412,"SoundDuration":84412,"Delta":84964580},{"NoteNumber":63,"Velocity":34,"Duration":84411,"SoundDuration":84411,"Delta":85048992},{"NoteNumber":67,"Velocity":33,"Duration":84412,"SoundDuration":84412,"Delta":85133404},{"NoteNumber":68,"Velocity":26,"Duration":85199,"SoundDuration":85199,"Delta":85217816},{"NoteNumber":80,"Velocity":56,"Duration":346612,"SoundDuration":346612,"Delta":85303015},{"NoteNumber":72,"Velocity":33,"Duration":171425,"SoundDuration":171425,"Delta":85303015},{"NoteNumber":71,"Velocity":31,"Duration":85808,"SoundDuration":85808,"Delta":85388631},{"NoteNumber":72,"Velocity":42,"Duration":86949,"SoundDuration":86949,"Delta":85474440},{"NoteNumber":75,"Velocity":34,"Duration":88237,"SoundDuration":88237,"Delta":85561390},{"NoteNumber":56,"Velocity":54,"Duration":1383731,"SoundDuration":1383731,"Delta":85649627},{"NoteNumber":43,"Velocity":65,"Duration":1383731,"SoundDuration":1383731,"Delta":85649627},{"NoteNumber":31,"Velocity":65,"Duration":1383731,"SoundDuration":1383731,"Delta":85649627},{"NoteNumber":59,"Velocity":33,"Duration":87516,"SoundDuration":87516,"Delta":85829399},{"NoteNumber":53,"Velocity":62,"Duration":346639,"SoundDuration":346639,"Delta":85829399},{"NoteNumber":62,"Velocity":34,"Duration":86609,"SoundDuration":86609,"Delta":85916916},{"NoteNumber":63,"Velocity":35,"Duration":86401,"SoundDuration":86401,"Delta":86003525},{"NoteNumber":62,"Velocity":37,"Duration":86112,"SoundDuration":86112,"Delta":86089927},{"NoteNumber":61,"Velocity":38,"Duration":85828,"SoundDuration":85828,"Delta":86176039},{"NoteNumber":56,"Velocity":62,"Duration":341750,"SoundDuration":341750,"Delta":86176039},{"NoteNumber":62,"Velocity":40,"Duration":85462,"SoundDuration":85462,"Delta":86261868},{"NoteNumber":71,"Velocity":50,"Duration":341602,"SoundDuration":341602,"Delta":86347330},{"NoteNumber":67,"Velocity":35,"Duration":85328,"SoundDuration":85328,"Delta":86432461},{"NoteNumber":65,"Velocity":49,"Duration":85490,"SoundDuration":85490,"Delta":86517789},{"NoteNumber":59,"Velocity":69,"Duration":343027,"SoundDuration":343027,"Delta":86517789},{"NoteNumber":62,"Velocity":41,"Duration":85653,"SoundDuration":85653,"Delta":86603280},{"NoteNumber":63,"Velocity":51,"Duration":85861,"SoundDuration":85861,"Delta":86688933},{"NoteNumber":62,"Velocity":42,"Duration":86021,"SoundDuration":86021,"Delta":86774794},{"NoteNumber":61,"Velocity":50,"Duration":86186,"SoundDuration":86186,"Delta":86860816},{"NoteNumber":65,"Velocity":77,"Duration":172542,"SoundDuration":172542,"Delta":86860816},{"NoteNumber":62,"Velocity":37,"Duration":86355,"SoundDuration":86355,"Delta":86947002},{"NoteNumber":55,"Velocity":82,"Duration":85766,"SoundDuration":85766,"Delta":87033358},{"NoteNumber":61,"Velocity":51,"Duration":85728,"SoundDuration":85728,"Delta":87119124},{"NoteNumber":65,"Velocity":64,"Duration":85166,"SoundDuration":85166,"Delta":87204853},{"NoteNumber":70,"Velocity":75,"Duration":87120,"SoundDuration":87120,"Delta":87290019},{"NoteNumber":82,"Velocity":77,"Duration":676328,"SoundDuration":676328,"Delta":87377140},{"NoteNumber":75,"Velocity":55,"Duration":84412,"SoundDuration":84412,"Delta":87461797},{"NoteNumber":73,"Velocity":66,"Duration":84412,"SoundDuration":84412,"Delta":87546209},{"NoteNumber":70,"Velocity":58,"Duration":84412,"SoundDuration":84412,"Delta":87630621},{"NoteNumber":68,"Velocity":51,"Duration":84412,"SoundDuration":84412,"Delta":87715033},{"NoteNumber":67,"Velocity":45,"Duration":84411,"SoundDuration":84411,"Delta":87799445},{"NoteNumber":70,"Velocity":44,"Duration":84412,"SoundDuration":84412,"Delta":87883857},{"NoteNumber":72,"Velocity":35,"Duration":85199,"SoundDuration":85199,"Delta":87968269},{"NoteNumber":84,"Velocity":75,"Duration":357276,"SoundDuration":357276,"Delta":88053469},{"NoteNumber":76,"Velocity":44,"Duration":171425,"SoundDuration":171425,"Delta":88053469},{"NoteNumber":75,"Velocity":41,"Duration":85808,"SoundDuration":85808,"Delta":88139085},{"NoteNumber":76,"Velocity":56,"Duration":86949,"SoundDuration":86949,"Delta":88224894},{"NoteNumber":79,"Velocity":45,"Duration":98901,"SoundDuration":98901,"Delta":88311844},{"NoteNumber":73,"Velocity":50,"Duration":1377478,"SoundDuration":1377478,"Delta":88410745},{"NoteNumber":77,"Velocity":50,"Duration":1377478,"SoundDuration":1377478,"Delta":88410745},{"NoteNumber":85,"Velocity":59,"Duration":1377478,"SoundDuration":1377478,"Delta":88410745},{"NoteNumber":80,"Velocity":50,"Duration":1377478,"SoundDuration":1377478,"Delta":88410745},{"NoteNumber":41,"Velocity":60,"Duration":88915,"SoundDuration":88915,"Delta":88410745},{"NoteNumber":29,"Velocity":60,"Duration":88915,"SoundDuration":88915,"Delta":88410745},{"NoteNumber":49,"Velocity":50,"Duration":86564,"SoundDuration":86564,"Delta":88499660},{"NoteNumber":56,"Velocity":51,"Duration":86194,"SoundDuration":86194,"Delta":88586225},{"NoteNumber":60,"Velocity":48,"Duration":85788,"SoundDuration":85788,"Delta":88672419},{"NoteNumber":63,"Velocity":56,"Duration":85421,"SoundDuration":85421,"Delta":88758207},{"NoteNumber":61,"Velocity":50,"Duration":85130,"SoundDuration":85130,"Delta":88843629},{"NoteNumber":60,"Velocity":50,"Duration":85130,"SoundDuration":85130,"Delta":88928760},{"NoteNumber":61,"Velocity":50,"Duration":93925,"SoundDuration":93925,"Delta":89013890},{"NoteNumber":65,"Velocity":57,"Duration":84259,"SoundDuration":84259,"Delta":89107816},{"NoteNumber":56,"Velocity":49,"Duration":84175,"SoundDuration":84175,"Delta":89192075},{"NoteNumber":61,"Velocity":49,"Duration":84174,"SoundDuration":84174,"Delta":89276250},{"NoteNumber":65,"Velocity":49,"Duration":84175,"SoundDuration":84175,"Delta":89360425},{"NoteNumber":68,"Velocity":57,"Duration":84408,"SoundDuration":84408,"Delta":89444600},{"NoteNumber":70,"Velocity":49,"Duration":84412,"SoundDuration":84412,"Delta":89529008},{"NoteNumber":72,"Velocity":51,"Duration":84412,"SoundDuration":84412,"Delta":89613420},{"NoteNumber":73,"Velocity":47,"Duration":90391,"SoundDuration":90391,"Delta":89697832},{"NoteNumber":75,"Velocity":57,"Duration":84649,"SoundDuration":84649,"Delta":89788223},{"NoteNumber":73,"Velocity":47,"Duration":84650,"SoundDuration":84650,"Delta":89872873},{"NoteNumber":72,"Velocity":49,"Duration":84649,"SoundDuration":84649,"Delta":89957523},{"NoteNumber":73,"Velocity":46,"Duration":94816,"SoundDuration":94816,"Delta":90042173},{"NoteNumber":77,"Velocity":53,"Duration":86855,"SoundDuration":86855,"Delta":90136990},{"NoteNumber":68,"Velocity":45,"Duration":86855,"SoundDuration":86855,"Delta":90223846},{"NoteNumber":73,"Velocity":47,"Duration":86855,"SoundDuration":86855,"Delta":90310702},{"NoteNumber":77,"Velocity":43,"Duration":86855,"SoundDuration":86855,"Delta":90397557},{"NoteNumber":80,"Velocity":51,"Duration":94538,"SoundDuration":94538,"Delta":90484413},{"NoteNumber":79,"Velocity":41,"Duration":96053,"SoundDuration":96053,"Delta":90578952},{"NoteNumber":80,"Velocity":46,"Duration":97557,"SoundDuration":97557,"Delta":90675005},{"NoteNumber":82,"Velocity":40,"Duration":102230,"SoundDuration":102230,"Delta":90772563},{"NoteNumber":66,"Velocity":29,"Duration":1469610,"SoundDuration":1469610,"Delta":90797180},{"NoteNumber":72,"Velocity":29,"Duration":1444987,"SoundDuration":1444987,"Delta":90821803},{"NoteNumber":75,"Velocity":29,"Duration":1420365,"SoundDuration":1420365,"Delta":90846425},{"NoteNumber":84,"Velocity":50,"Duration":124547,"SoundDuration":124547,"Delta":90874794},{"NoteNumber":81,"Velocity":35,"Duration":1391996,"SoundDuration":1391996,"Delta":90874794},{"NoteNumber":86,"Velocity":38,"Duration":126917,"SoundDuration":126917,"Delta":90999341},{"NoteNumber":87,"Velocity":38,"Duration":171448,"SoundDuration":171448,"Delta":91126259},{"NoteNumber":96,"Velocity":58,"Duration":969083,"SoundDuration":969083,"Delta":91297707},{"NoteNumber":68,"Velocity":36,"Duration":710889,"SoundDuration":710889,"Delta":92735540},{"NoteNumber":72,"Velocity":36,"Duration":1419220,"SoundDuration":1419220,"Delta":92735540},{"NoteNumber":31,"Velocity":27,"Duration":1419220,"SoundDuration":1419220,"Delta":92735540},{"NoteNumber":43,"Velocity":27,"Duration":1419220,"SoundDuration":1419220,"Delta":92735540},{"NoteNumber":62,"Velocity":29,"Duration":107172,"SoundDuration":107172,"Delta":92914773},{"NoteNumber":53,"Velocity":27,"Duration":178355,"SoundDuration":178355,"Delta":92914773},{"NoteNumber":63,"Velocity":30,"Duration":106799,"SoundDuration":106799,"Delta":93004110},{"NoteNumber":67,"Velocity":32,"Duration":106378,"SoundDuration":106378,"Delta":93093129},{"NoteNumber":56,"Velocity":27,"Duration":177037,"SoundDuration":177037,"Delta":93093129},{"NoteNumber":65,"Velocity":30,"Duration":105963,"SoundDuration":105963,"Delta":93181830},{"NoteNumber":63,"Velocity":30,"Duration":105757,"SoundDuration":105757,"Delta":93270167},{"NoteNumber":59,"Velocity":27,"Duration":176262,"SoundDuration":176262,"Delta":93270167},{"NoteNumber":65,"Velocity":27,"Duration":88131,"SoundDuration":88131,"Delta":93358298},{"NoteNumber":68,"Velocity":32,"Duration":708331,"SoundDuration":708331,"Delta":93446430},{"NoteNumber":60,"Velocity":27,"Duration":175306,"SoundDuration":175306,"Delta":93446430},{"NoteNumber":67,"Velocity":27,"Duration":105121,"SoundDuration":105121,"Delta":93534189},{"NoteNumber":65,"Velocity":27,"Duration":105562,"SoundDuration":105562,"Delta":93621736},{"NoteNumber":56,"Velocity":27,"Duration":353883,"SoundDuration":353883,"Delta":93621736},{"NoteNumber":67,"Velocity":28,"Duration":105969,"SoundDuration":105969,"Delta":93709672},{"NoteNumber":65,"Velocity":28,"Duration":106429,"SoundDuration":106429,"Delta":93797961},{"NoteNumber":63,"Velocity":24,"Duration":106848,"SoundDuration":106848,"Delta":93886608},{"NoteNumber":62,"Velocity":27,"Duration":107294,"SoundDuration":107294,"Delta":93975620},{"NoteNumber":53,"Velocity":27,"Duration":179141,"SoundDuration":179141,"Delta":93975620},{"NoteNumber":63,"Velocity":26,"Duration":89769,"SoundDuration":89769,"Delta":94064992},{"NoteNumber":67,"Velocity":28,"Duration":717780,"SoundDuration":717780,"Delta":94154761},{"NoteNumber":71,"Velocity":28,"Duration":1493317,"SoundDuration":1493317,"Delta":94154761},{"NoteNumber":43,"Velocity":21,"Duration":1493317,"SoundDuration":1493317,"Delta":94154761},{"NoteNumber":62,"Velocity":23,"Duration":108287,"SoundDuration":108287,"Delta":94335702},{"NoteNumber":53,"Velocity":21,"Duration":180224,"SoundDuration":180224,"Delta":94335702},{"NoteNumber":63,"Velocity":24,"Duration":107917,"SoundDuration":107917,"Delta":94425972},{"NoteNumber":65,"Velocity":25,"Duration":107545,"SoundDuration":107545,"Delta":94515926},{"NoteNumber":55,"Velocity":21,"Duration":178970,"SoundDuration":178970,"Delta":94515926},{"NoteNumber":63,"Velocity":24,"Duration":107136,"SoundDuration":107136,"Delta":94605567},{"NoteNumber":62,"Velocity":24,"Duration":106730,"SoundDuration":106730,"Delta":94694896},{"NoteNumber":58,"Velocity":21,"Duration":177645,"SoundDuration":177645,"Delta":94694896},{"NoteNumber":63,"Velocity":21,"Duration":88664,"SoundDuration":88664,"Delta":94783877},{"NoteNumber":67,"Velocity":25,"Duration":775536,"SoundDuration":775536,"Delta":94872542},{"NoteNumber":59,"Velocity":21,"Duration":179292,"SoundDuration":179292,"Delta":94872542},{"NoteNumber":65,"Velocity":21,"Duration":108243,"SoundDuration":108243,"Delta":94961721},{"NoteNumber":63,"Velocity":21,"Duration":109371,"SoundDuration":109371,"Delta":95051834},{"NoteNumber":55,"Velocity":21,"Duration":596244,"SoundDuration":596244,"Delta":95051834},{"NoteNumber":65,"Velocity":22,"Duration":110522,"SoundDuration":110522,"Delta":95142863},{"NoteNumber":63,"Velocity":22,"Duration":112373,"SoundDuration":112373,"Delta":95234868},{"NoteNumber":62,"Velocity":19,"Duration":118522,"SoundDuration":118522,"Delta":95328248},{"NoteNumber":59,"Velocity":21,"Duration":128421,"SoundDuration":128421,"Delta":95426221},{"NoteNumber":62,"Velocity":20,"Duration":115743,"SoundDuration":115743,"Delta":95532335},{"NoteNumber":60,"Velocity":28,"Duration":112555,"SoundDuration":112555,"Delta":95648078},{"NoteNumber":48,"Velocity":19,"Duration":450875,"SoundDuration":450875,"Delta":95648078},{"NoteNumber":55,"Velocity":24,"Duration":450875,"SoundDuration":450875,"Delta":95648078},{"NoteNumber":63,"Velocity":28,"Duration":112773,"SoundDuration":112773,"Delta":95760634},{"NoteNumber":66,"Velocity":28,"Duration":112773,"SoundDuration":112773,"Delta":95873407},{"NoteNumber":67,"Velocity":33,"Duration":112773,"SoundDuration":112773,"Delta":95986181},{"NoteNumber":71,"Velocity":33,"Duration":189043,"SoundDuration":189043,"Delta":96098954},{"NoteNumber":75,"Velocity":28,"Duration":92586,"SoundDuration":92586,"Delta":96195411},{"NoteNumber":78,"Velocity":28,"Duration":90834,"SoundDuration":90834,"Delta":96287998},{"NoteNumber":72,"Velocity":25,"Duration":181295,"SoundDuration":181295,"Delta":96287998},{"NoteNumber":79,"Velocity":28,"Duration":90461,"SoundDuration":90461,"Delta":96378832},{"NoteNumber":80,"Velocity":34,"Duration":89560,"SoundDuration":89560,"Delta":96469294},{"NoteNumber":60,"Velocity":30,"Duration":364964,"SoundDuration":364964,"Delta":96469294},{"NoteNumber":79,"Velocity":28,"Duration":88938,"SoundDuration":88938,"Delta":96558855},{"NoteNumber":78,"Velocity":28,"Duration":88752,"SoundDuration":88752,"Delta":96647793},{"NoteNumber":63,"Velocity":24,"Duration":186465,"SoundDuration":186465,"Delta":96647793},{"NoteNumber":79,"Velocity":31,"Duration":97713,"SoundDuration":97713,"Delta":96736545},{"NoteNumber":87,"Velocity":42,"Duration":88752,"SoundDuration":88752,"Delta":96834258},{"NoteNumber":66,"Velocity":29,"Duration":177504,"SoundDuration":177504,"Delta":96834258},{"NoteNumber":86,"Velocity":30,"Duration":88752,"SoundDuration":88752,"Delta":96923011},{"NoteNumber":84,"Velocity":37,"Duration":88752,"SoundDuration":88752,"Delta":97011763},{"NoteNumber":67,"Velocity":24,"Duration":185833,"SoundDuration":185833,"Delta":97011763},{"NoteNumber":79,"Velocity":33,"Duration":97081,"SoundDuration":97081,"Delta":97100515},{"NoteNumber":80,"Velocity":36,"Duration":88490,"SoundDuration":88490,"Delta":97197596},{"NoteNumber":63,"Velocity":31,"Duration":366474,"SoundDuration":366474,"Delta":97197596},{"NoteNumber":79,"Velocity":28,"Duration":88490,"SoundDuration":88490,"Delta":97286086},{"NoteNumber":78,"Velocity":33,"Duration":88490,"SoundDuration":88490,"Delta":97374577},{"NoteNumber":67,"Velocity":28,"Duration":189493,"SoundDuration":189493,"Delta":97374577},{"NoteNumber":79,"Velocity":28,"Duration":101003,"SoundDuration":101003,"Delta":97463067},{"NoteNumber":70,"Velocity":33,"Duration":183471,"SoundDuration":183471,"Delta":97564070},{"NoteNumber":75,"Velocity":28,"Duration":91467,"SoundDuration":91467,"Delta":97656074},{"NoteNumber":78,"Velocity":28,"Duration":91000,"SoundDuration":91000,"Delta":97747541},{"NoteNumber":71,"Velocity":25,"Duration":181415,"SoundDuration":181415,"Delta":97747541},{"NoteNumber":79,"Velocity":28,"Duration":90415,"SoundDuration":90415,"Delta":97838542},{"NoteNumber":80,"Velocity":34,"Duration":89560,"SoundDuration":89560,"Delta":97928957},{"NoteNumber":55,"Velocity":30,"Duration":364964,"SoundDuration":364964,"Delta":97928957},{"NoteNumber":59,"Velocity":30,"Duration":178499,"SoundDuration":178499,"Delta":97928957},{"NoteNumber":79,"Velocity":28,"Duration":88938,"SoundDuration":88938,"Delta":98018518},{"NoteNumber":78,"Velocity":28,"Duration":88752,"SoundDuration":88752,"Delta":98107456},{"NoteNumber":63,"Velocity":24,"Duration":186465,"SoundDuration":186465,"Delta":98107456},{"NoteNumber":79,"Velocity":31,"Duration":97713,"SoundDuration":97713,"Delta":98196209},{"NoteNumber":87,"Velocity":42,"Duration":88752,"SoundDuration":88752,"Delta":98293922},{"NoteNumber":66,"Velocity":29,"Duration":177504,"SoundDuration":177504,"Delta":98293922},{"NoteNumber":86,"Velocity":30,"Duration":88752,"SoundDuration":88752,"Delta":98382674},{"NoteNumber":83,"Velocity":37,"Duration":88752,"SoundDuration":88752,"Delta":98471427},{"NoteNumber":67,"Velocity":24,"Duration":185833,"SoundDuration":185833,"Delta":98471427},{"NoteNumber":79,"Velocity":33,"Duration":97081,"SoundDuration":97081,"Delta":98560179},{"NoteNumber":80,"Velocity":36,"Duration":88490,"SoundDuration":88490,"Delta":98657260},{"NoteNumber":63,"Velocity":31,"Duration":353960,"SoundDuration":353960,"Delta":98657260},{"NoteNumber":79,"Velocity":28,"Duration":88490,"SoundDuration":88490,"Delta":98745750},{"NoteNumber":78,"Velocity":33,"Duration":88490,"SoundDuration":88490,"Delta":98834240},{"NoteNumber":67,"Velocity":28,"Duration":176980,"SoundDuration":176980,"Delta":98834240},{"NoteNumber":79,"Velocity":28,"Duration":88490,"SoundDuration":88490,"Delta":98922731},{"NoteNumber":69,"Velocity":33,"Duration":183471,"SoundDuration":183471,"Delta":99011221},{"NoteNumber":75,"Velocity":28,"Duration":91467,"SoundDuration":91467,"Delta":99103225},{"NoteNumber":78,"Velocity":28,"Duration":91000,"SoundDuration":91000,"Delta":99194692},{"NoteNumber":70,"Velocity":25,"Duration":181415,"SoundDuration":181415,"Delta":99194692},{"NoteNumber":79,"Velocity":28,"Duration":90415,"SoundDuration":90415,"Delta":99285692},{"NoteNumber":80,"Velocity":34,"Duration":89560,"SoundDuration":89560,"Delta":99376108},{"NoteNumber":51,"Velocity":30,"Duration":364964,"SoundDuration":364964,"Delta":99376108},{"NoteNumber":58,"Velocity":30,"Duration":178499,"SoundDuration":178499,"Delta":99376108},{"NoteNumber":79,"Velocity":28,"Duration":88938,"SoundDuration":88938,"Delta":99465669},{"NoteNumber":78,"Velocity":28,"Duration":88752,"SoundDuration":88752,"Delta":99554607},{"NoteNumber":62,"Velocity":24,"Duration":186465,"SoundDuration":186465,"Delta":99554607},{"NoteNumber":79,"Velocity":31,"Duration":97713,"SoundDuration":97713,"Delta":99643359},{"NoteNumber":87,"Velocity":42,"Duration":88752,"SoundDuration":88752,"Delta":99741073},{"NoteNumber":63,"Velocity":29,"Duration":177504,"SoundDuration":177504,"Delta":99741073},{"NoteNumber":83,"Velocity":30,"Duration":88752,"SoundDuration":88752,"Delta":99829825},{"NoteNumber":82,"Velocity":37,"Duration":88752,"SoundDuration":88752,"Delta":99918577},{"NoteNumber":67,"Velocity":24,"Duration":185833,"SoundDuration":185833,"Delta":99918577},{"NoteNumber":79,"Velocity":33,"Duration":97081,"SoundDuration":97081,"Delta":100007330},{"NoteNumber":79,"Velocity":36,"Duration":88490,"SoundDuration":88490,"Delta":100104411},{"NoteNumber":56,"Velocity":31,"Duration":176980,"SoundDuration":176980,"Delta":100104411},{"NoteNumber":53,"Velocity":31,"Duration":353960,"SoundDuration":353960,"Delta":100104411},{"NoteNumber":77,"Velocity":28,"Duration":88490,"SoundDuration":88490,"Delta":100192901},{"NoteNumber":76,"Velocity":33,"Duration":88490,"SoundDuration":88490,"Delta":100281391},{"NoteNumber":60,"Velocity":28,"Duration":176980,"SoundDuration":176980,"Delta":100281391},{"NoteNumber":77,"Velocity":28,"Duration":88490,"SoundDuration":88490,"Delta":100369881},{"NoteNumber":86,"Velocity":42,"Duration":88752,"SoundDuration":88752,"Delta":100458372},{"NoteNumber":62,"Velocity":29,"Duration":177504,"SoundDuration":177504,"Delta":100458372},{"NoteNumber":82,"Velocity":30,"Duration":88752,"SoundDuration":88752,"Delta":100547124},{"NoteNumber":80,"Velocity":37,"Duration":88752,"SoundDuration":88752,"Delta":100635876},{"NoteNumber":68,"Velocity":24,"Duration":185833,"SoundDuration":185833,"Delta":100635876},{"NoteNumber":77,"Velocity":33,"Duration":97081,"SoundDuration":97081,"Delta":100724628},{"NoteNumber":75,"Velocity":36,"Duration":88490,"SoundDuration":88490,"Delta":100821709},{"NoteNumber":55,"Velocity":31,"Duration":353960,"SoundDuration":353960,"Delta":100821709},{"NoteNumber":74,"Velocity":28,"Duration":88490,"SoundDuration":88490,"Delta":100910200},{"NoteNumber":73,"Velocity":33,"Duration":88490,"SoundDuration":88490,"Delta":100998690},{"NoteNumber":59,"Velocity":28,"Duration":176980,"SoundDuration":176980,"Delta":100998690},{"NoteNumber":74,"Velocity":28,"Duration":88490,"SoundDuration":88490,"Delta":101087180},{"NoteNumber":83,"Velocity":42,"Duration":88752,"SoundDuration":88752,"Delta":101175670},{"NoteNumber":62,"Velocity":29,"Duration":177504,"SoundDuration":177504,"Delta":101175670},{"NoteNumber":79,"Velocity":30,"Duration":88752,"SoundDuration":88752,"Delta":101264423},{"NoteNumber":77,"Velocity":37,"Duration":88752,"SoundDuration":88752,"Delta":101353175},{"NoteNumber":67,"Velocity":24,"Duration":362813,"SoundDuration":362813,"Delta":101353175},{"NoteNumber":74,"Velocity":33,"Duration":97081,"SoundDuration":97081,"Delta":101441927},{"NoteNumber":72,"Velocity":36,"Duration":88490,"SoundDuration":88490,"Delta":101539008},{"NoteNumber":74,"Velocity":28,"Duration":88490,"SoundDuration":88490,"Delta":101627498},{"NoteNumber":71,"Velocity":33,"Duration":88490,"SoundDuration":88490,"Delta":101715989},{"NoteNumber":65,"Velocity":28,"Duration":176980,"SoundDuration":176980,"Delta":101715989},{"NoteNumber":68,"Velocity":28,"Duration":88490,"SoundDuration":88490,"Delta":101804479},{"NoteNumber":67,"Velocity":36,"Duration":92003,"SoundDuration":92003,"Delta":101892969},{"NoteNumber":63,"Velocity":33,"Duration":183471,"SoundDuration":183471,"Delta":101892969},{"NoteNumber":72,"Velocity":28,"Duration":91467,"SoundDuration":91467,"Delta":101984973},{"NoteNumber":74,"Velocity":28,"Duration":91000,"SoundDuration":91000,"Delta":102076440},{"NoteNumber":62,"Velocity":25,"Duration":181415,"SoundDuration":181415,"Delta":102076440},{"NoteNumber":75,"Velocity":28,"Duration":90415,"SoundDuration":90415,"Delta":102167440},{"NoteNumber":77,"Velocity":34,"Duration":89560,"SoundDuration":89560,"Delta":102257856},{"NoteNumber":55,"Velocity":30,"Duration":364964,"SoundDuration":364964,"Delta":102257856},{"NoteNumber":75,"Velocity":28,"Duration":88938,"SoundDuration":88938,"Delta":102347417},{"NoteNumber":74,"Velocity":28,"Duration":88752,"SoundDuration":88752,"Delta":102436355},{"NoteNumber":60,"Velocity":24,"Duration":186465,"SoundDuration":186465,"Delta":102436355},{"NoteNumber":75,"Velocity":31,"Duration":97713,"SoundDuration":97713,"Delta":102525107},{"NoteNumber":84,"Velocity":42,"Duration":88752,"SoundDuration":88752,"Delta":102622821},{"NoteNumber":62,"Velocity":29,"Duration":177504,"SoundDuration":177504,"Delta":102622821},{"NoteNumber":80,"Velocity":30,"Duration":88752,"SoundDuration":88752,"Delta":102711573},{"NoteNumber":79,"Velocity":37,"Duration":88752,"SoundDuration":88752,"Delta":102800325},{"NoteNumber":63,"Velocity":24,"Duration":137292,"SoundDuration":137292,"Delta":102800325},{"NoteNumber":75,"Velocity":33,"Duration":97081,"SoundDuration":97081,"Delta":102889078},{"NoteNumber":48,"Velocity":31,"Duration":402501,"SoundDuration":402501,"Delta":102937618},{"NoteNumber":55,"Velocity":31,"Duration":378231,"SoundDuration":378231,"Delta":102961888},{"NoteNumber":77,"Velocity":36,"Duration":88490,"SoundDuration":88490,"Delta":102986159},{"NoteNumber":60,"Velocity":31,"Duration":176980,"SoundDuration":176980,"Delta":102986159},{"NoteNumber":75,"Velocity":28,"Duration":88490,"SoundDuration":88490,"Delta":103074649},{"NoteNumber":74,"Velocity":33,"Duration":88490,"SoundDuration":88490,"Delta":103163139},{"NoteNumber":63,"Velocity":28,"Duration":176980,"SoundDuration":176980,"Delta":103163139},{"NoteNumber":75,"Velocity":28,"Duration":88490,"SoundDuration":88490,"Delta":103251629},{"NoteNumber":66,"Velocity":33,"Duration":183471,"SoundDuration":183471,"Delta":103340120},{"NoteNumber":71,"Velocity":28,"Duration":91467,"SoundDuration":91467,"Delta":103432124},{"NoteNumber":74,"Velocity":28,"Duration":91000,"SoundDuration":91000,"Delta":103523591},{"NoteNumber":67,"Velocity":25,"Duration":181415,"SoundDuration":181415,"Delta":103523591},{"NoteNumber":75,"Velocity":28,"Duration":90415,"SoundDuration":90415,"Delta":103614591},{"NoteNumber":77,"Velocity":34,"Duration":89560,"SoundDuration":89560,"Delta":103705007},{"NoteNumber":55,"Velocity":30,"Duration":364964,"SoundDuration":364964,"Delta":103705007},{"NoteNumber":75,"Velocity":28,"Duration":88938,"SoundDuration":88938,"Delta":103794568},{"NoteNumber":74,"Velocity":28,"Duration":88752,"SoundDuration":88752,"Delta":103883506},{"NoteNumber":59,"Velocity":24,"Duration":186465,"SoundDuration":186465,"Delta":103883506},{"NoteNumber":75,"Velocity":31,"Duration":97713,"SoundDuration":97713,"Delta":103972258},{"NoteNumber":83,"Velocity":42,"Duration":88752,"SoundDuration":88752,"Delta":104069972},{"NoteNumber":62,"Velocity":29,"Duration":177504,"SoundDuration":177504,"Delta":104069972},{"NoteNumber":80,"Velocity":30,"Duration":88752,"SoundDuration":88752,"Delta":104158724},{"NoteNumber":79,"Velocity":37,"Duration":88752,"SoundDuration":88752,"Delta":104247476},{"NoteNumber":63,"Velocity":24,"Duration":137292,"SoundDuration":137292,"Delta":104247476},{"NoteNumber":75,"Velocity":33,"Duration":97081,"SoundDuration":97081,"Delta":104336228},{"NoteNumber":43,"Velocity":31,"Duration":402501,"SoundDuration":402501,"Delta":104384769},{"NoteNumber":51,"Velocity":31,"Duration":378231,"SoundDuration":378231,"Delta":104409039},{"NoteNumber":77,"Velocity":36,"Duration":88490,"SoundDuration":88490,"Delta":104433309},{"NoteNumber":59,"Velocity":31,"Duration":353960,"SoundDuration":353960,"Delta":104433309},{"NoteNumber":75,"Velocity":28,"Duration":88490,"SoundDuration":88490,"Delta":104521800},{"NoteNumber":74,"Velocity":33,"Duration":88490,"SoundDuration":88490,"Delta":104610290},{"NoteNumber":63,"Velocity":28,"Duration":176980,"SoundDuration":176980,"Delta":104610290},{"NoteNumber":75,"Velocity":28,"Duration":88490,"SoundDuration":88490,"Delta":104698780},{"NoteNumber":66,"Velocity":33,"Duration":183471,"SoundDuration":183471,"Delta":104787270},{"NoteNumber":70,"Velocity":28,"Duration":91467,"SoundDuration":91467,"Delta":104879274},{"NoteNumber":74,"Velocity":28,"Duration":91000,"SoundDuration":91000,"Delta":104970741},{"NoteNumber":67,"Velocity":25,"Duration":136319,"SoundDuration":136319,"Delta":104970741},{"NoteNumber":75,"Velocity":28,"Duration":90415,"SoundDuration":90415,"Delta":105061742},{"NoteNumber":39,"Velocity":31,"Duration":410061,"SoundDuration":410061,"Delta":105107061},{"NoteNumber":46,"Velocity":31,"Duration":387486,"SoundDuration":387486,"Delta":105129636},{"NoteNumber":77,"Velocity":34,"Duration":89560,"SoundDuration":89560,"Delta":105152157},{"NoteNumber":55,"Velocity":30,"Duration":364964,"SoundDuration":364964,"Delta":105152157},{"NoteNumber":75,"Velocity":28,"Duration":88938,"SoundDuration":88938,"Delta":105241718},{"NoteNumber":74,"Velocity":28,"Duration":88752,"SoundDuration":88752,"Delta":105330656},{"NoteNumber":58,"Velocity":24,"Duration":186465,"SoundDuration":186465,"Delta":105330656},{"NoteNumber":75,"Velocity":31,"Duration":97713,"SoundDuration":97713,"Delta":105419409},{"NoteNumber":82,"Velocity":42,"Duration":88752,"SoundDuration":88752,"Delta":105517122},{"NoteNumber":62,"Velocity":29,"Duration":177504,"SoundDuration":177504,"Delta":105517122},{"NoteNumber":79,"Velocity":30,"Duration":88752,"SoundDuration":88752,"Delta":105605874},{"NoteNumber":77,"Velocity":37,"Duration":88752,"SoundDuration":88752,"Delta":105694627},{"NoteNumber":63,"Velocity":24,"Duration":137292,"SoundDuration":137292,"Delta":105694627},{"NoteNumber":75,"Velocity":33,"Duration":80900,"SoundDuration":80900,"Delta":105783379},{"NoteNumber":41,"Velocity":31,"Duration":402501,"SoundDuration":402501,"Delta":105831919},{"NoteNumber":48,"Velocity":31,"Duration":378231,"SoundDuration":378231,"Delta":105856190},{"NoteNumber":75,"Velocity":36,"Duration":88490,"SoundDuration":88490,"Delta":105880460},{"NoteNumber":56,"Velocity":31,"Duration":353960,"SoundDuration":353960,"Delta":105880460},{"NoteNumber":74,"Velocity":28,"Duration":88490,"SoundDuration":88490,"Delta":105968950},{"NoteNumber":73,"Velocity":33,"Duration":88490,"SoundDuration":88490,"Delta":106057440},{"NoteNumber":59,"Velocity":28,"Duration":176980,"SoundDuration":176980,"Delta":106057440},{"NoteNumber":74,"Velocity":28,"Duration":88490,"SoundDuration":88490,"Delta":106145931},{"NoteNumber":80,"Velocity":42,"Duration":92003,"SoundDuration":92003,"Delta":106234421},{"NoteNumber":60,"Velocity":33,"Duration":183471,"SoundDuration":183471,"Delta":106234421},{"NoteNumber":77,"Velocity":28,"Duration":91467,"SoundDuration":91467,"Delta":106326425},{"NoteNumber":75,"Velocity":28,"Duration":91000,"SoundDuration":91000,"Delta":106417892},{"NoteNumber":62,"Velocity":25,"Duration":181415,"SoundDuration":181415,"Delta":106417892},{"NoteNumber":72,"Velocity":28,"Duration":75401,"SoundDuration":75401,"Delta":106508892},{"NoteNumber":72,"Velocity":34,"Duration":89560,"SoundDuration":89560,"Delta":106599308},{"NoteNumber":43,"Velocity":31,"Duration":178499,"SoundDuration":178499,"Delta":106599308},{"NoteNumber":50,"Velocity":31,"Duration":178499,"SoundDuration":178499,"Delta":106599308},{"NoteNumber":55,"Velocity":30,"Duration":178499,"SoundDuration":178499,"Delta":106599308},{"NoteNumber":71,"Velocity":28,"Duration":88938,"SoundDuration":88938,"Delta":106688869},{"NoteNumber":70,"Velocity":28,"Duration":88752,"SoundDuration":88752,"Delta":106777807},{"NoteNumber":62,"Velocity":24,"Duration":363970,"SoundDuration":363970,"Delta":106777807},{"NoteNumber":71,"Velocity":31,"Duration":97713,"SoundDuration":97713,"Delta":106866559},{"NoteNumber":79,"Velocity":42,"Duration":88752,"SoundDuration":88752,"Delta":106964273},{"NoteNumber":77,"Velocity":30,"Duration":88752,"SoundDuration":88752,"Delta":107053025},{"NoteNumber":74,"Velocity":37,"Duration":88752,"SoundDuration":88752,"Delta":107141777},{"NoteNumber":67,"Velocity":24,"Duration":185833,"SoundDuration":185833,"Delta":107141777},{"NoteNumber":71,"Velocity":33,"Duration":97081,"SoundDuration":97081,"Delta":107230530},{"NoteNumber":68,"Velocity":37,"Duration":92586,"SoundDuration":92586,"Delta":107327611},{"NoteNumber":67,"Velocity":32,"Duration":92587,"SoundDuration":92587,"Delta":107420198},{"NoteNumber":65,"Velocity":34,"Duration":92586,"SoundDuration":92586,"Delta":107512785},{"NoteNumber":62,"Velocity":29,"Duration":92587,"SoundDuration":92587,"Delta":107605372},{"NoteNumber":55,"Velocity":31,"Duration":92586,"SoundDuration":92586,"Delta":107697959},{"NoteNumber":60,"Velocity":35,"Duration":91655,"SoundDuration":91655,"Delta":107790546},{"NoteNumber":62,"Velocity":37,"Duration":90894,"SoundDuration":90894,"Delta":107882201},{"NoteNumber":63,"Velocity":32,"Duration":90392,"SoundDuration":90392,"Delta":107973096},{"NoteNumber":65,"Velocity":38,"Duration":89896,"SoundDuration":89896,"Delta":108063488},{"NoteNumber":63,"Velocity":33,"Duration":89546,"SoundDuration":89546,"Delta":108153384},{"NoteNumber":62,"Velocity":33,"Duration":89546,"SoundDuration":89546,"Delta":108242931},{"NoteNumber":60,"Velocity":29,"Duration":185387,"SoundDuration":185387,"Delta":108242931},{"NoteNumber":63,"Velocity":37,"Duration":95840,"SoundDuration":95840,"Delta":108332478},{"NoteNumber":72,"Velocity":42,"Duration":89546,"SoundDuration":89546,"Delta":108428319},{"NoteNumber":56,"Velocity":30,"Duration":179094,"SoundDuration":179094,"Delta":108428319},{"NoteNumber":68,"Velocity":35,"Duration":89547,"SoundDuration":89547,"Delta":108517866},{"NoteNumber":65,"Velocity":37,"Duration":89546,"SoundDuration":89546,"Delta":108607413},{"NoteNumber":51,"Velocity":24,"Duration":184477,"SoundDuration":184477,"Delta":108607413},{"NoteNumber":62,"Velocity":34,"Duration":94930,"SoundDuration":94930,"Delta":108696960},{"NoteNumber":65,"Velocity":37,"Duration":89546,"SoundDuration":89546,"Delta":108791891},{"NoteNumber":44,"Velocity":35,"Duration":179094,"SoundDuration":179094,"Delta":108791891},{"NoteNumber":63,"Velocity":34,"Duration":89547,"SoundDuration":89547,"Delta":108881438},{"NoteNumber":62,"Velocity":36,"Duration":89546,"SoundDuration":89546,"Delta":108970985},{"NoteNumber":51,"Velocity":29,"Duration":363336,"SoundDuration":363336,"Delta":108970985},{"NoteNumber":63,"Velocity":32,"Duration":89546,"SoundDuration":89546,"Delta":109060532},{"NoteNumber":60,"Velocity":32,"Duration":92586,"SoundDuration":92586,"Delta":109150079},{"NoteNumber":63,"Velocity":36,"Duration":91655,"SoundDuration":91655,"Delta":109242666},{"NoteNumber":65,"Velocity":38,"Duration":90894,"SoundDuration":90894,"Delta":109334321},{"NoteNumber":56,"Velocity":25,"Duration":181287,"SoundDuration":181287,"Delta":109334321},{"NoteNumber":67,"Velocity":33,"Duration":90392,"SoundDuration":90392,"Delta":109425216},{"NoteNumber":70,"Velocity":39,"Duration":89896,"SoundDuration":89896,"Delta":109515608},{"NoteNumber":60,"Velocity":31,"Duration":179443,"SoundDuration":179443,"Delta":109515608},{"NoteNumber":68,"Velocity":34,"Duration":89546,"SoundDuration":89546,"Delta":109605504},{"NoteNumber":67,"Velocity":34,"Duration":89546,"SoundDuration":89546,"Delta":109695051},{"NoteNumber":58,"Velocity":30,"Duration":185387,"SoundDuration":185387,"Delta":109695051},{"NoteNumber":68,"Velocity":38,"Duration":95840,"SoundDuration":95840,"Delta":109784598},{"NoteNumber":77,"Velocity":44,"Duration":89546,"SoundDuration":89546,"Delta":109880439},{"NoteNumber":56,"Velocity":31,"Duration":179094,"SoundDuration":179094,"Delta":109880439},{"NoteNumber":72,"Velocity":36,"Duration":89547,"SoundDuration":89547,"Delta":109969986},{"NoteNumber":70,"Velocity":38,"Duration":89546,"SoundDuration":89546,"Delta":110059533},{"NoteNumber":53,"Velocity":25,"Duration":184477,"SoundDuration":184477,"Delta":110059533},{"NoteNumber":67,"Velocity":35,"Duration":94930,"SoundDuration":94930,"Delta":110149080},{"NoteNumber":70,"Velocity":38,"Duration":89546,"SoundDuration":89546,"Delta":110244011},{"NoteNumber":41,"Velocity":36,"Duration":179094,"SoundDuration":179094,"Delta":110244011},{"NoteNumber":48,"Velocity":36,"Duration":179094,"SoundDuration":179094,"Delta":110244011},{"NoteNumber":68,"Velocity":35,"Duration":89547,"SoundDuration":89547,"Delta":110333558},{"NoteNumber":67,"Velocity":35,"Duration":89546,"SoundDuration":89546,"Delta":110423105},{"NoteNumber":53,"Velocity":30,"Duration":179093,"SoundDuration":179093,"Delta":110423105},{"NoteNumber":68,"Velocity":33,"Duration":89546,"SoundDuration":89546,"Delta":110512652},{"NoteNumber":56,"Velocity":34,"Duration":184242,"SoundDuration":184242,"Delta":110602199},{"NoteNumber":65,"Velocity":39,"Duration":91655,"SoundDuration":91655,"Delta":110694786},{"NoteNumber":68,"Velocity":41,"Duration":90894,"SoundDuration":90894,"Delta":110786441},{"NoteNumber":60,"Velocity":27,"Duration":181287,"SoundDuration":181287,"Delta":110786441},{"NoteNumber":72,"Velocity":36,"Duration":90392,"SoundDuration":90392,"Delta":110877336},{"NoteNumber":75,"Velocity":42,"Duration":89896,"SoundDuration":89896,"Delta":110967728},{"NoteNumber":65,"Velocity":34,"Duration":179443,"SoundDuration":179443,"Delta":110967728},{"NoteNumber":73,"Velocity":37,"Duration":89546,"SoundDuration":89546,"Delta":111057624},{"NoteNumber":72,"Velocity":37,"Duration":89546,"SoundDuration":89546,"Delta":111147171},{"NoteNumber":63,"Velocity":33,"Duration":185387,"SoundDuration":185387,"Delta":111147171},{"NoteNumber":73,"Velocity":41,"Duration":95840,"SoundDuration":95840,"Delta":111236718},{"NoteNumber":80,"Velocity":48,"Duration":89546,"SoundDuration":89546,"Delta":111332559},{"NoteNumber":61,"Velocity":34,"Duration":179094,"SoundDuration":179094,"Delta":111332559},{"NoteNumber":77,"Velocity":39,"Duration":89547,"SoundDuration":89547,"Delta":111422106},{"NoteNumber":75,"Velocity":41,"Duration":89546,"SoundDuration":89546,"Delta":111511653},{"NoteNumber":53,"Velocity":27,"Duration":184477,"SoundDuration":184477,"Delta":111511653},{"NoteNumber":72,"Velocity":38,"Duration":94930,"SoundDuration":94930,"Delta":111601200},{"NoteNumber":75,"Velocity":41,"Duration":89546,"SoundDuration":89546,"Delta":111696131},{"NoteNumber":37,"Velocity":39,"Duration":179094,"SoundDuration":179094,"Delta":111696131},{"NoteNumber":44,"Velocity":39,"Duration":179094,"SoundDuration":179094,"Delta":111696131},{"NoteNumber":73,"Velocity":38,"Duration":89547,"SoundDuration":89547,"Delta":111785678},{"NoteNumber":72,"Velocity":38,"Duration":89546,"SoundDuration":89546,"Delta":111875225},{"NoteNumber":53,"Velocity":33,"Duration":179093,"SoundDuration":179093,"Delta":111875225},{"NoteNumber":73,"Velocity":36,"Duration":89546,"SoundDuration":89546,"Delta":111964772},{"NoteNumber":56,"Velocity":37,"Duration":184242,"SoundDuration":184242,"Delta":112054319},{"NoteNumber":68,"Velocity":42,"Duration":91655,"SoundDuration":91655,"Delta":112146906},{"NoteNumber":73,"Velocity":45,"Duration":90894,"SoundDuration":90894,"Delta":112238561},{"NoteNumber":61,"Velocity":29,"Duration":181287,"SoundDuration":181287,"Delta":112238561},{"NoteNumber":77,"Velocity":39,"Duration":90392,"SoundDuration":90392,"Delta":112329456},{"NoteNumber":80,"Velocity":46,"Duration":89896,"SoundDuration":89896,"Delta":112419848},{"NoteNumber":60,"Velocity":37,"Duration":179443,"SoundDuration":179443,"Delta":112419848},{"NoteNumber":79,"Velocity":40,"Duration":89546,"SoundDuration":89546,"Delta":112509744},{"NoteNumber":78,"Velocity":40,"Duration":89546,"SoundDuration":89546,"Delta":112599291},{"NoteNumber":59,"Velocity":36,"Duration":185387,"SoundDuration":185387,"Delta":112599291},{"NoteNumber":79,"Velocity":45,"Duration":95840,"SoundDuration":95840,"Delta":112688838},{"NoteNumber":86,"Velocity":52,"Duration":89546,"SoundDuration":89546,"Delta":112784679},{"NoteNumber":53,"Velocity":37,"Duration":179094,"SoundDuration":179094,"Delta":112784679},{"NoteNumber":83,"Velocity":42,"Duration":89547,"SoundDuration":89547,"Delta":112874226},{"NoteNumber":79,"Velocity":45,"Duration":89546,"SoundDuration":89546,"Delta":112963773},{"NoteNumber":43,"Velocity":29,"Duration":184477,"SoundDuration":184477,"Delta":112963773},{"NoteNumber":77,"Velocity":41,"Duration":94930,"SoundDuration":94930,"Delta":113053320},{"NoteNumber":82,"Velocity":52,"Duration":89546,"SoundDuration":89546,"Delta":113148251},{"NoteNumber":31,"Velocity":42,"Duration":179094,"SoundDuration":179094,"Delta":113148251},{"NoteNumber":80,"Velocity":41,"Duration":89547,"SoundDuration":89547,"Delta":113237798},{"NoteNumber":79,"Velocity":41,"Duration":89546,"SoundDuration":89546,"Delta":113327345},{"NoteNumber":43,"Velocity":36,"Duration":179093,"SoundDuration":179093,"Delta":113327345},{"NoteNumber":80,"Velocity":39,"Duration":89546,"SoundDuration":89546,"Delta":113416892},{"NoteNumber":89,"Velocity":52,"Duration":89546,"SoundDuration":89546,"Delta":113511662},{"NoteNumber":84,"Velocity":45,"Duration":89547,"SoundDuration":89547,"Delta":113595986},{"NoteNumber":83,"Velocity":49,"Duration":89546,"SoundDuration":89546,"Delta":113685533},{"NoteNumber":50,"Velocity":39,"Duration":184778,"SoundDuration":184778,"Delta":113685533},{"NoteNumber":79,"Velocity":49,"Duration":95231,"SoundDuration":95231,"Delta":113775080},{"NoteNumber":84,"Velocity":57,"Duration":89546,"SoundDuration":89546,"Delta":113870312},{"NoteNumber":53,"Velocity":50,"Duration":179094,"SoundDuration":179094,"Delta":113870312},{"NoteNumber":83,"Velocity":50,"Duration":89547,"SoundDuration":89547,"Delta":113959859},{"NoteNumber":82,"Velocity":50,"Duration":89546,"SoundDuration":89546,"Delta":114049406},{"NoteNumber":62,"Velocity":39,"Duration":179093,"SoundDuration":179093,"Delta":114049406},{"NoteNumber":83,"Velocity":50,"Duration":89546,"SoundDuration":89546,"Delta":114138953},{"NoteNumber":91,"Velocity":57,"Duration":89546,"SoundDuration":89546,"Delta":114228500},{"NoteNumber":89,"Velocity":50,"Duration":89547,"SoundDuration":89547,"Delta":114318047},{"NoteNumber":86,"Velocity":55,"Duration":89546,"SoundDuration":89546,"Delta":114407594},{"NoteNumber":59,"Velocity":42,"Duration":184778,"SoundDuration":184778,"Delta":114407594},{"NoteNumber":83,"Velocity":55,"Duration":95231,"SoundDuration":95231,"Delta":114497141},{"NoteNumber":87,"Velocity":62,"Duration":89815,"SoundDuration":89815,"Delta":114592373},{"NoteNumber":65,"Velocity":53,"Duration":179630,"SoundDuration":179630,"Delta":114592373},{"NoteNumber":86,"Velocity":55,"Duration":89815,"SoundDuration":89815,"Delta":114682188},{"NoteNumber":85,"Velocity":55,"Duration":89815,"SoundDuration":89815,"Delta":114772003},{"NoteNumber":71,"Velocity":42,"Duration":179630,"SoundDuration":179630,"Delta":114772003},{"NoteNumber":86,"Velocity":55,"Duration":89815,"SoundDuration":89815,"Delta":114861818},{"NoteNumber":92,"Velocity":62,"Duration":89814,"SoundDuration":89814,"Delta":114951633},{"NoteNumber":89,"Velocity":55,"Duration":89815,"SoundDuration":89815,"Delta":115041448},{"NoteNumber":86,"Velocity":55,"Duration":89815,"SoundDuration":89815,"Delta":115131263},{"NoteNumber":65,"Velocity":42,"Duration":184745,"SoundDuration":184745,"Delta":115131263},{"NoteNumber":83,"Velocity":55,"Duration":94930,"SoundDuration":94930,"Delta":115221078},{"NoteNumber":93,"Velocity":66,"Duration":89546,"SoundDuration":89546,"Delta":115316008},{"NoteNumber":71,"Velocity":53,"Duration":179094,"SoundDuration":179094,"Delta":115316008},{"NoteNumber":89,"Velocity":55,"Duration":89547,"SoundDuration":89547,"Delta":115405555},{"NoteNumber":86,"Velocity":55,"Duration":89546,"SoundDuration":89546,"Delta":115495102},{"NoteNumber":77,"Velocity":42,"Duration":179093,"SoundDuration":179093,"Delta":115495102},{"NoteNumber":83,"Velocity":55,"Duration":89546,"SoundDuration":89546,"Delta":115584649},{"NoteNumber":94,"Velocity":69,"Duration":89546,"SoundDuration":89546,"Delta":115674196},{"NoteNumber":91,"Velocity":62,"Duration":89547,"SoundDuration":89547,"Delta":115763743},{"NoteNumber":86,"Velocity":62,"Duration":89546,"SoundDuration":89546,"Delta":115853290},{"NoteNumber":59,"Velocity":53,"Duration":179125,"SoundDuration":179125,"Delta":115853290},{"NoteNumber":62,"Velocity":53,"Duration":179125,"SoundDuration":179125,"Delta":115853290},{"NoteNumber":83,"Velocity":62,"Duration":89578,"SoundDuration":89578,"Delta":115942837},{"NoteNumber":91,"Velocity":71,"Duration":89280,"SoundDuration":89280,"Delta":116032416},{"NoteNumber":71,"Velocity":64,"Duration":178663,"SoundDuration":178663,"Delta":116032416},{"NoteNumber":67,"Velocity":54,"Duration":178663,"SoundDuration":178663,"Delta":116032416},{"NoteNumber":95,"Velocity":56,"Duration":89382,"SoundDuration":89382,"Delta":116121697},{"NoteNumber":86,"Velocity":56,"Duration":89546,"SoundDuration":89546,"Delta":116211079},{"NoteNumber":59,"Velocity":53,"Duration":179286,"SoundDuration":179286,"Delta":116211079},{"NoteNumber":62,"Velocity":53,"Duration":179286,"SoundDuration":179286,"Delta":116211079},{"NoteNumber":83,"Velocity":56,"Duration":89739,"SoundDuration":89739,"Delta":116300626},{"NoteNumber":91,"Velocity":76,"Duration":89828,"SoundDuration":89828,"Delta":116390366},{"NoteNumber":71,"Velocity":63,"Duration":179913,"SoundDuration":179913,"Delta":116390366},{"NoteNumber":67,"Velocity":53,"Duration":179913,"SoundDuration":179913,"Delta":116390366},{"NoteNumber":95,"Velocity":59,"Duration":90084,"SoundDuration":90084,"Delta":116480194},{"NoteNumber":87,"Velocity":59,"Duration":90188,"SoundDuration":90188,"Delta":116570279},{"NoteNumber":60,"Velocity":53,"Duration":180544,"SoundDuration":180544,"Delta":116570279},{"NoteNumber":63,"Velocity":53,"Duration":180544,"SoundDuration":180544,"Delta":116570279},{"NoteNumber":84,"Velocity":59,"Duration":90355,"SoundDuration":90355,"Delta":116660468},{"NoteNumber":91,"Velocity":78,"Duration":90551,"SoundDuration":90551,"Delta":116750824},{"NoteNumber":71,"Velocity":61,"Duration":181180,"SoundDuration":181180,"Delta":116750824},{"NoteNumber":67,"Velocity":51,"Duration":181180,"SoundDuration":181180,"Delta":116750824},{"NoteNumber":95,"Velocity":59,"Duration":90628,"SoundDuration":90628,"Delta":116841375},{"NoteNumber":88,"Velocity":59,"Duration":90629,"SoundDuration":90629,"Delta":116932004},{"NoteNumber":61,"Velocity":53,"Duration":181257,"SoundDuration":181257,"Delta":116932004},{"NoteNumber":64,"Velocity":53,"Duration":181257,"SoundDuration":181257,"Delta":116932004},{"NoteNumber":85,"Velocity":59,"Duration":90628,"SoundDuration":90628,"Delta":117022633},{"NoteNumber":91,"Velocity":76,"Duration":90779,"SoundDuration":90779,"Delta":117113262},{"NoteNumber":67,"Velocity":54,"Duration":181683,"SoundDuration":181683,"Delta":117113262},{"NoteNumber":71,"Velocity":64,"Duration":181683,"SoundDuration":181683,"Delta":117113262},{"NoteNumber":95,"Velocity":58,"Duration":90903,"SoundDuration":90903,"Delta":117204042},{"NoteNumber":89,"Velocity":58,"Duration":90903,"SoundDuration":90903,"Delta":117294946},{"NoteNumber":62,"Velocity":53,"Duration":181820,"SoundDuration":181820,"Delta":117294946},{"NoteNumber":65,"Velocity":53,"Duration":181820,"SoundDuration":181820,"Delta":117294946},{"NoteNumber":86,"Velocity":58,"Duration":90917,"SoundDuration":90917,"Delta":117385849},{"NoteNumber":91,"Velocity":77,"Duration":91179,"SoundDuration":91179,"Delta":117476766},{"NoteNumber":71,"Velocity":63,"Duration":182373,"SoundDuration":182373,"Delta":117476766},{"NoteNumber":67,"Velocity":53,"Duration":182373,"SoundDuration":182373,"Delta":117476766},{"NoteNumber":95,"Velocity":65,"Duration":91193,"SoundDuration":91193,"Delta":117567946},{"NoteNumber":92,"Velocity":65,"Duration":91457,"SoundDuration":91457,"Delta":117659140},{"NoteNumber":63,"Velocity":45,"Duration":182976,"SoundDuration":182976,"Delta":117659140},{"NoteNumber":68,"Velocity":53,"Duration":182976,"SoundDuration":182976,"Delta":117659140},{"NoteNumber":87,"Velocity":65,"Duration":91518,"SoundDuration":91518,"Delta":117750598},{"NoteNumber":91,"Velocity":76,"Duration":91737,"SoundDuration":91737,"Delta":117842116},{"NoteNumber":71,"Velocity":64,"Duration":183582,"SoundDuration":183582,"Delta":117842116},{"NoteNumber":67,"Velocity":54,"Duration":183582,"SoundDuration":183582,"Delta":117842116},{"NoteNumber":95,"Velocity":63,"Duration":91845,"SoundDuration":91845,"Delta":117933853},{"NoteNumber":92,"Velocity":64,"Duration":92018,"SoundDuration":92018,"Delta":118025699},{"NoteNumber":64,"Velocity":45,"Duration":184193,"SoundDuration":184193,"Delta":118025699},{"NoteNumber":68,"Velocity":53,"Duration":184193,"SoundDuration":184193,"Delta":118025699},{"NoteNumber":88,"Velocity":64,"Duration":92174,"SoundDuration":92174,"Delta":118117718},{"NoteNumber":91,"Velocity":81,"Duration":93106,"SoundDuration":93106,"Delta":118209893},{"NoteNumber":71,"Velocity":64,"Duration":187980,"SoundDuration":187980,"Delta":118209893},{"NoteNumber":67,"Velocity":54,"Duration":187980,"SoundDuration":187980,"Delta":118209893},{"NoteNumber":95,"Velocity":69,"Duration":94873,"SoundDuration":94873,"Delta":118302999},{"NoteNumber":92,"Velocity":67,"Duration":99280,"SoundDuration":99280,"Delta":118397873},{"NoteNumber":65,"Velocity":45,"Duration":207910,"SoundDuration":207910,"Delta":118397873},{"NoteNumber":68,"Velocity":53,"Duration":207910,"SoundDuration":207910,"Delta":118397873},{"NoteNumber":89,"Velocity":69,"Duration":108630,"SoundDuration":108630,"Delta":118497153},{"NoteNumber":96,"Velocity":95,"Duration":166685,"SoundDuration":166685,"Delta":118605784},{"NoteNumber":36,"Velocity":85,"Duration":454524,"SoundDuration":454524,"Delta":118605784},{"NoteNumber":24,"Velocity":72,"Duration":454524,"SoundDuration":454524,"Delta":118605784},{"NoteNumber":92,"Velocity":70,"Duration":93755,"SoundDuration":93755,"Delta":118772469},{"NoteNumber":91,"Velocity":70,"Duration":93755,"SoundDuration":93755,"Delta":118866225},{"NoteNumber":84,"Velocity":70,"Duration":100327,"SoundDuration":100327,"Delta":118959980},{"NoteNumber":88,"Velocity":84,"Duration":92586,"SoundDuration":92586,"Delta":119060308},{"NoteNumber":58,"Velocity":65,"Duration":1439819,"SoundDuration":1439819,"Delta":119060308},{"NoteNumber":64,"Velocity":65,"Duration":1439819,"SoundDuration":1439819,"Delta":119060308},{"NoteNumber":72,"Velocity":77,"Duration":1439819,"SoundDuration":1439819,"Delta":119060308},{"NoteNumber":85,"Velocity":68,"Duration":92587,"SoundDuration":92587,"Delta":119152895},{"NoteNumber":82,"Velocity":68,"Duration":92586,"SoundDuration":92586,"Delta":119245482},{"NoteNumber":79,"Velocity":68,"Duration":92587,"SoundDuration":92587,"Delta":119338069},{"NoteNumber":84,"Velocity":79,"Duration":90629,"SoundDuration":90629,"Delta":119430656},{"NoteNumber":80,"Velocity":68,"Duration":90628,"SoundDuration":90628,"Delta":119521285},{"NoteNumber":79,"Velocity":68,"Duration":90629,"SoundDuration":90629,"Delta":119611914},{"NoteNumber":72,"Velocity":68,"Duration":89280,"SoundDuration":89280,"Delta":119702543},{"NoteNumber":76,"Velocity":78,"Duration":89015,"SoundDuration":89015,"Delta":119791824},{"NoteNumber":73,"Velocity":65,"Duration":89015,"SoundDuration":89015,"Delta":119880839},{"NoteNumber":70,"Velocity":65,"Duration":89015,"SoundDuration":89015,"Delta":119969855},{"NoteNumber":67,"Velocity":65,"Duration":89015,"SoundDuration":89015,"Delta":120058870},{"NoteNumber":68,"Velocity":75,"Duration":87204,"SoundDuration":87204,"Delta":120147886},{"NoteNumber":72,"Velocity":66,"Duration":87204,"SoundDuration":87204,"Delta":120235090},{"NoteNumber":67,"Velocity":66,"Duration":87204,"SoundDuration":87204,"Delta":120322294},{"NoteNumber":60,"Velocity":66,"Duration":90629,"SoundDuration":90629,"Delta":120409498},{"NoteNumber":61,"Velocity":75,"Duration":104341,"SoundDuration":104341,"Delta":120500127},{"NoteNumber":64,"Velocity":59,"Duration":104341,"SoundDuration":104341,"Delta":120587079},{"NoteNumber":58,"Velocity":59,"Duration":105243,"SoundDuration":105243,"Delta":120674030},{"NoteNumber":55,"Velocity":59,"Duration":91457,"SoundDuration":91457,"Delta":120760982},{"NoteNumber":56,"Velocity":69,"Duration":104341,"SoundDuration":104341,"Delta":120852440},{"NoteNumber":60,"Velocity":56,"Duration":104341,"SoundDuration":104341,"Delta":120939391},{"NoteNumber":55,"Velocity":56,"Duration":105299,"SoundDuration":105299,"Delta":121026343},{"NoteNumber":48,"Velocity":56,"Duration":91737,"SoundDuration":91737,"Delta":121113294},{"NoteNumber":49,"Velocity":71,"Duration":104645,"SoundDuration":104645,"Delta":121205032},{"NoteNumber":52,"Velocity":57,"Duration":104645,"SoundDuration":104645,"Delta":121292236},{"NoteNumber":46,"Velocity":56,"Duration":105221,"SoundDuration":105221,"Delta":121379440},{"NoteNumber":43,"Velocity":56,"Duration":90084,"SoundDuration":90084,"Delta":121466644},{"NoteNumber":44,"Velocity":71,"Duration":104950,"SoundDuration":104950,"Delta":121556729},{"NoteNumber":48,"Velocity":61,"Duration":104950,"SoundDuration":104950,"Delta":121644188},{"NoteNumber":43,"Velocity":61,"Duration":107457,"SoundDuration":107457,"Delta":121731646},{"NoteNumber":36,"Velocity":62,"Duration":99993,"SoundDuration":99993,"Delta":121819105},{"NoteNumber":24,"Velocity":87,"Duration":697633,"SoundDuration":697633,"Delta":121919098},{"NoteNumber":72,"Velocity":82,"Duration":1395268,"SoundDuration":1395268,"Delta":122616732},{"NoteNumber":69,"Velocity":82,"Duration":1395268,"SoundDuration":1395268,"Delta":122616732},{"NoteNumber":63,"Velocity":69,"Duration":1395268,"SoundDuration":1395268,"Delta":122616732},{"NoteNumber":60,"Velocity":69,"Duration":1395268,"SoundDuration":1395268,"Delta":122616732},{"NoteNumber":57,"Velocity":72,"Duration":1395268,"SoundDuration":1395268,"Delta":122616732},{"NoteNumber":51,"Velocity":63,"Duration":1395268,"SoundDuration":1395268,"Delta":122616732},{"NoteNumber":42,"Velocity":63,"Duration":1395268,"SoundDuration":1395268,"Delta":122616732},{"NoteNumber":62,"Velocity":77,"Duration":697634,"SoundDuration":697634,"Delta":124012000},{"NoteNumber":60,"Velocity":65,"Duration":697634,"SoundDuration":697634,"Delta":124012000},{"NoteNumber":56,"Velocity":65,"Duration":697634,"SoundDuration":697634,"Delta":124012000},{"NoteNumber":50,"Velocity":63,"Duration":697634,"SoundDuration":697634,"Delta":124012000},{"NoteNumber":48,"Velocity":53,"Duration":697634,"SoundDuration":697634,"Delta":124012000},{"NoteNumber":41,"Velocity":53,"Duration":697634,"SoundDuration":697634,"Delta":124012000},{"NoteNumber":67,"Velocity":78,"Duration":530074,"SoundDuration":530074,"Delta":124709634},{"NoteNumber":60,"Velocity":66,"Duration":530074,"SoundDuration":530074,"Delta":124709634},{"NoteNumber":55,"Velocity":78,"Duration":530074,"SoundDuration":530074,"Delta":124709634},{"NoteNumber":40,"Velocity":45,"Duration":530074,"SoundDuration":530074,"Delta":124709634},{"NoteNumber":43,"Velocity":45,"Duration":530074,"SoundDuration":530074,"Delta":124709634},{"NoteNumber":48,"Velocity":63,"Duration":530074,"SoundDuration":530074,"Delta":124709634},{"NoteNumber":56,"Velocity":79,"Duration":181257,"SoundDuration":181257,"Delta":125239709},{"NoteNumber":54,"Velocity":67,"Duration":181257,"SoundDuration":181257,"Delta":125239709},{"NoteNumber":48,"Velocity":69,"Duration":181257,"SoundDuration":181257,"Delta":125239709},{"NoteNumber":42,"Velocity":58,"Duration":181257,"SoundDuration":181257,"Delta":125239709},{"NoteNumber":39,"Velocity":58,"Duration":181257,"SoundDuration":181257,"Delta":125239709},{"NoteNumber":60,"Velocity":84,"Duration":1458876,"SoundDuration":1458876,"Delta":125420967},{"NoteNumber":53,"Velocity":71,"Duration":1458876,"SoundDuration":1458876,"Delta":125420967},{"NoteNumber":48,"Velocity":71,"Duration":1458876,"SoundDuration":1458876,"Delta":125420967},{"NoteNumber":41,"Velocity":60,"Duration":1458876,"SoundDuration":1458876,"Delta":125420967},{"NoteNumber":38,"Velocity":60,"Duration":1458876,"SoundDuration":1458876,"Delta":125420967},{"NoteNumber":55,"Velocity":84,"Duration":795267,"SoundDuration":795267,"Delta":126879843},{"NoteNumber":53,"Velocity":71,"Duration":795267,"SoundDuration":795267,"Delta":126879843},{"NoteNumber":47,"Velocity":71,"Duration":795267,"SoundDuration":795267,"Delta":126879843},{"NoteNumber":43,"Velocity":67,"Duration":795267,"SoundDuration":795267,"Delta":126879843},{"NoteNumber":38,"Velocity":56,"Duration":795267,"SoundDuration":795267,"Delta":126879843},{"NoteNumber":31,"Velocity":56,"Duration":795267,"SoundDuration":795267,"Delta":126879843},{"NoteNumber":48,"Velocity":102,"Duration":2909444,"SoundDuration":2909444,"Delta":127675111},{"NoteNumber":24,"Velocity":64,"Duration":2909444,"SoundDuration":2909444,"Delta":127675111},{"NoteNumber":36,"Velocity":76,"Duration":2909444,"SoundDuration":2909444,"Delta":127675111},{"NoteNumber":72,"Velocity":76,"Duration":2182083,"SoundDuration":2182083,"Delta":128402472},{"NoteNumber":76,"Velocity":76,"Duration":2182083,"SoundDuration":2182083,"Delta":128402472},{"NoteNumber":79,"Velocity":76,"Duration":2182083,"SoundDuration":2182083,"Delta":128402472},{"NoteNumber":84,"Velocity":90,"Duration":2182083,"SoundDuration":2182083,"Delta":128402472},{"NoteNumber":64,"Velocity":73,"Duration":2182083,"SoundDuration":2182083,"Delta":128402472},{"NoteNumber":60,"Velocity":62,"Duration":2182083,"SoundDuration":2182083,"Delta":128402472},{"NoteNumber":55,"Velocity":62,"Duration":2182083,"SoundDuration":2182083,"Delta":128402472},{"NoteNumber":52,"Velocity":62,"Duration":2182083,"SoundDuration":2182083,"Delta":128402472}]}