{"title":"Allegretto","artist":"Schubert","durationMs":310442,"midiSha256":"da84aa9044694004aa5d54a4c937234203654d3c6347178165cea5584c71d37f","midiObject":[{"NoteNumber":72,"Velocity":57,"Duration":599160,"SoundDuration":599160,"Delta":0},{"NoteNumber":63,"Velocity":45,"Duration":599160,"SoundDuration":599160,"Delta":0},{"NoteNumber":68,"Velocity":45,"Duration":599160,"SoundDuration":599160,"Delta":0},{"NoteNumber":56,"Velocity":40,"Duration":599160,"SoundDuration":599160,"Delta":0},{"NoteNumber":65,"Velocity":47,"Duration":1860752,"SoundDuration":1860752,"Delta":599161},{"NoteNumber":68,"Velocity":47,"Duration":1860752,"SoundDuration":1860752,"Delta":599161},{"NoteNumber":72,"Velocity":59,"Duration":1395564,"SoundDuration":1395564,"Delta":599161},{"NoteNumber":61,"Velocity":42,"Duration":1860752,"SoundDuration":1860752,"Delta":599161},{"NoteNumber":70,"Velocity":56,"Duration":465187,"SoundDuration":465187,"Delta":1994725},{"NoteNumber":77,"Velocity":63,"Duration":608273,"SoundDuration":608273,"Delta":2925101},{"NoteNumber":67,"Velocity":50,"Duration":608273,"SoundDuration":608273,"Delta":2925101},{"NoteNumber":70,"Velocity":50,"Duration":608273,"SoundDuration":608273,"Delta":2925101},{"NoteNumber":65,"Velocity":45,"Duration":608273,"SoundDuration":608273,"Delta":2925101},{"NoteNumber":61,"Velocity":40,"Duration":608273,"SoundDuration":608273,"Delta":2925101},{"NoteNumber":77,"Velocity":65,"Duration":1395564,"SoundDuration":1395564,"Delta":3533374},{"NoteNumber":72,"Velocity":52,"Duration":1860752,"SoundDuration":1860752,"Delta":3533374},{"NoteNumber":68,"Velocity":52,"Duration":1860752,"SoundDuration":1860752,"Delta":3533374},{"NoteNumber":60,"Velocity":40,"Duration":1860752,"SoundDuration":1860752,"Delta":3533374},{"NoteNumber":65,"Velocity":45,"Duration":1395564,"SoundDuration":1395564,"Delta":3533374},{"NoteNumber":75,"Velocity":60,"Duration":465188,"SoundDuration":465188,"Delta":4928938},{"NoteNumber":63,"Velocity":43,"Duration":465188,"SoundDuration":465188,"Delta":4928938},{"NoteNumber":60,"Velocity":43,"Duration":602530,"SoundDuration":602530,"Delta":5626720},{"NoteNumber":63,"Velocity":54,"Duration":200843,"SoundDuration":200843,"Delta":5626720},{"NoteNumber":56,"Velocity":42,"Duration":200843,"SoundDuration":200843,"Delta":5626720},{"NoteNumber":68,"Velocity":56,"Duration":200843,"SoundDuration":200843,"Delta":5827563},{"NoteNumber":51,"Velocity":44,"Duration":200843,"SoundDuration":200843,"Delta":5827563},{"NoteNumber":72,"Velocity":58,"Duration":200843,"SoundDuration":200843,"Delta":6028407},{"NoteNumber":48,"Velocity":45,"Duration":200843,"SoundDuration":200843,"Delta":6028407},{"NoteNumber":67,"Velocity":48,"Duration":892194,"SoundDuration":892194,"Delta":6229250},{"NoteNumber":73,"Velocity":60,"Duration":892194,"SoundDuration":892194,"Delta":6229250},{"NoteNumber":61,"Velocity":48,"Duration":892194,"SoundDuration":892194,"Delta":6229250},{"NoteNumber":63,"Velocity":48,"Duration":892194,"SoundDuration":892194,"Delta":6229250},{"NoteNumber":46,"Velocity":37,"Duration":892194,"SoundDuration":892194,"Delta":6229250},{"NoteNumber":55,"Velocity":42,"Duration":892194,"SoundDuration":892194,"Delta":6229250},{"NoteNumber":51,"Velocity":37,"Duration":892194,"SoundDuration":892194,"Delta":6229250},{"NoteNumber":60,"Velocity":50,"Duration":521739,"SoundDuration":521739,"Delta":7121444},{"NoteNumber":72,"Velocity":63,"Duration":521739,"SoundDuration":521739,"Delta":7121444},{"NoteNumber":68,"Velocity":50,"Duration":521739,"SoundDuration":521739,"Delta":7121444},{"NoteNumber":63,"Velocity":50,"Duration":521739,"SoundDuration":521739,"Delta":7121444},{"NoteNumber":44,"Velocity":40,"Duration":521739,"SoundDuration":521739,"Delta":7121444},{"NoteNumber":56,"Velocity":45,"Duration":521739,"SoundDuration":521739,"Delta":7121444},{"NoteNumber":51,"Velocity":40,"Duration":521739,"SoundDuration":521739,"Delta":7121444},{"NoteNumber":58,"Velocity":51,"Duration":868935,"SoundDuration":868935,"Delta":7643183},{"NoteNumber":70,"Velocity":64,"Duration":868935,"SoundDuration":868935,"Delta":7643183},{"NoteNumber":63,"Velocity":51,"Duration":868935,"SoundDuration":868935,"Delta":7643183},{"NoteNumber":43,"Velocity":41,"Duration":868935,"SoundDuration":868935,"Delta":7643183},{"NoteNumber":51,"Velocity":41,"Duration":868935,"SoundDuration":868935,"Delta":7643183},{"NoteNumber":55,"Velocity":46,"Duration":868935,"SoundDuration":868935,"Delta":7643183},{"NoteNumber":68,"Velocity":54,"Duration":633981,"SoundDuration":633981,"Delta":8512119},{"NoteNumber":70,"Velocity":54,"Duration":633981,"SoundDuration":633981,"Delta":8512119},{"NoteNumber":62,"Velocity":54,"Duration":633981,"SoundDuration":633981,"Delta":8512119},{"NoteNumber":74,"Velocity":67,"Duration":633981,"SoundDuration":633981,"Delta":8512119},{"NoteNumber":41,"Velocity":43,"Duration":633981,"SoundDuration":633981,"Delta":8512119},{"NoteNumber":46,"Velocity":43,"Duration":633981,"SoundDuration":633981,"Delta":8512119},{"NoteNumber":53,"Velocity":48,"Duration":633981,"SoundDuration":633981,"Delta":8512119},{"NoteNumber":68,"Velocity":56,"Duration":1520654,"SoundDuration":1520654,"Delta":9146100},{"NoteNumber":70,"Velocity":56,"Duration":1985842,"SoundDuration":1985842,"Delta":9146100},{"NoteNumber":62,"Velocity":56,"Duration":1520654,"SoundDuration":1520654,"Delta":9146100},{"NoteNumber":74,"Velocity":70,"Duration":1520654,"SoundDuration":1520654,"Delta":9146100},{"NoteNumber":46,"Velocity":45,"Duration":1985842,"SoundDuration":1985842,"Delta":9146100},{"NoteNumber":51,"Velocity":51,"Duration":1985842,"SoundDuration":1985842,"Delta":9146100},{"NoteNumber":39,"Velocity":45,"Duration":1985842,"SoundDuration":1985842,"Delta":9146100},{"NoteNumber":75,"Velocity":51,"Duration":465187,"SoundDuration":465187,"Delta":10666755},{"NoteNumber":67,"Velocity":40,"Duration":465187,"SoundDuration":465187,"Delta":10666755},{"NoteNumber":63,"Velocity":40,"Duration":465187,"SoundDuration":465187,"Delta":10666755},{"NoteNumber":72,"Velocity":53,"Duration":602168,"SoundDuration":602168,"Delta":11597131},{"NoteNumber":68,"Velocity":42,"Duration":602168,"SoundDuration":602168,"Delta":11597131},{"NoteNumber":63,"Velocity":42,"Duration":602168,"SoundDuration":602168,"Delta":11597131},{"NoteNumber":56,"Velocity":37,"Duration":602168,"SoundDuration":602168,"Delta":11597131},{"NoteNumber":72,"Velocity":58,"Duration":1395564,"SoundDuration":1395564,"Delta":12199299},{"NoteNumber":68,"Velocity":46,"Duration":1860751,"SoundDuration":1860751,"Delta":12199299},{"NoteNumber":65,"Velocity":46,"Duration":1860751,"SoundDuration":1860751,"Delta":12199299},{"NoteNumber":61,"Velocity":41,"Duration":1860751,"SoundDuration":1860751,"Delta":12199299},{"NoteNumber":70,"Velocity":50,"Duration":465187,"SoundDuration":465187,"Delta":13594863},{"NoteNumber":67,"Velocity":63,"Duration":633980,"SoundDuration":633980,"Delta":14525239},{"NoteNumber":77,"Velocity":79,"Duration":633980,"SoundDuration":633980,"Delta":14525239},{"NoteNumber":71,"Velocity":63,"Duration":633980,"SoundDuration":633980,"Delta":14525239},{"NoteNumber":37,"Velocity":40,"Duration":633980,"SoundDuration":633980,"Delta":14525239},{"NoteNumber":49,"Velocity":45,"Duration":633980,"SoundDuration":633980,"Delta":14525239},{"NoteNumber":67,"Velocity":68,"Duration":1849802,"SoundDuration":1849802,"Delta":15159220},{"NoteNumber":72,"Velocity":68,"Duration":1849802,"SoundDuration":1849802,"Delta":15159220},{"NoteNumber":77,"Velocity":85,"Duration":1384613,"SoundDuration":1384613,"Delta":15159220},{"NoteNumber":36,"Velocity":44,"Duration":1849802,"SoundDuration":1849802,"Delta":15159220},{"NoteNumber":48,"Velocity":49,"Duration":1849802,"SoundDuration":1849802,"Delta":15159220},{"NoteNumber":76,"Velocity":51,"Duration":465188,"SoundDuration":465188,"Delta":16543834},{"NoteNumber":67,"Velocity":41,"Duration":537634,"SoundDuration":537634,"Delta":17474210},{"NoteNumber":72,"Velocity":46,"Duration":537634,"SoundDuration":537634,"Delta":17474210},{"NoteNumber":76,"Velocity":52,"Duration":537634,"SoundDuration":537634,"Delta":17474210},{"NoteNumber":64,"Velocity":36,"Duration":537634,"SoundDuration":537634,"Delta":17474210},{"NoteNumber":60,"Velocity":32,"Duration":537634,"SoundDuration":537634,"Delta":17474210},{"NoteNumber":75,"Velocity":57,"Duration":946221,"SoundDuration":946221,"Delta":18011844},{"NoteNumber":73,"Velocity":45,"Duration":946221,"SoundDuration":946221,"Delta":18011844},{"NoteNumber":67,"Velocity":45,"Duration":946221,"SoundDuration":946221,"Delta":18011844},{"NoteNumber":58,"Velocity":40,"Duration":946221,"SoundDuration":946221,"Delta":18011844},{"NoteNumber":63,"Velocity":40,"Duration":946221,"SoundDuration":946221,"Delta":18011844},{"NoteNumber":68,"Velocity":47,"Duration":521785,"SoundDuration":521785,"Delta":18958066},{"NoteNumber":72,"Velocity":47,"Duration":521785,"SoundDuration":521785,"Delta":18958066},{"NoteNumber":75,"Velocity":59,"Duration":521785,"SoundDuration":521785,"Delta":18958066},{"NoteNumber":63,"Velocity":42,"Duration":521785,"SoundDuration":521785,"Delta":18958066},{"NoteNumber":56,"Velocity":42,"Duration":521785,"SoundDuration":521785,"Delta":18958066},{"NoteNumber":73,"Velocity":64,"Duration":930375,"SoundDuration":930375,"Delta":19479851},{"NoteNumber":70,"Velocity":51,"Duration":930375,"SoundDuration":930375,"Delta":19479851},{"NoteNumber":65,"Velocity":51,"Duration":930375,"SoundDuration":930375,"Delta":19479851},{"NoteNumber":49,"Velocity":45,"Duration":930375,"SoundDuration":930375,"Delta":19479851},{"NoteNumber":67,"Velocity":42,"Duration":627270,"SoundDuration":627270,"Delta":20410227},{"NoteNumber":72,"Velocity":53,"Duration":254215,"SoundDuration":254215,"Delta":20410227},{"NoteNumber":61,"Velocity":47,"Duration":627270,"SoundDuration":627270,"Delta":20410227},{"NoteNumber":51,"Velocity":38,"Duration":627270,"SoundDuration":627270,"Delta":20410227},{"NoteNumber":70,"Velocity":51,"Duration":373054,"SoundDuration":373054,"Delta":20664443},{"NoteNumber":61,"Velocity":34,"Duration":1475408,"SoundDuration":1475408,"Delta":21037497},{"NoteNumber":67,"Velocity":34,"Duration":1475408,"SoundDuration":1475408,"Delta":21037497},{"NoteNumber":70,"Velocity":44,"Duration":1475408,"SoundDuration":1475408,"Delta":21037497},{"NoteNumber":51,"Velocity":31,"Duration":1967212,"SoundDuration":1967212,"Delta":21037497},{"NoteNumber":44,"Velocity":28,"Duration":1967212,"SoundDuration":1967212,"Delta":21037497},{"NoteNumber":60,"Velocity":25,"Duration":491803,"SoundDuration":491803,"Delta":22512906},{"NoteNumber":68,"Velocity":33,"Duration":491803,"SoundDuration":491803,"Delta":22512906},{"NoteNumber":62,"Velocity":32,"Duration":640751,"SoundDuration":640751,"Delta":23566741},{"NoteNumber":68,"Velocity":32,"Duration":640751,"SoundDuration":640751,"Delta":23566741},{"NoteNumber":71,"Velocity":40,"Duration":640751,"SoundDuration":640751,"Delta":23566741},{"NoteNumber":52,"Velocity":25,"Duration":640751,"SoundDuration":640751,"Delta":23566741},{"NoteNumber":56,"Velocity":25,"Duration":640751,"SoundDuration":640751,"Delta":23566741},{"NoteNumber":59,"Velocity":28,"Duration":640751,"SoundDuration":640751,"Delta":23566741},{"NoteNumber":62,"Velocity":32,"Duration":1388459,"SoundDuration":1388459,"Delta":24207493},{"NoteNumber":68,"Velocity":32,"Duration":1851279,"SoundDuration":1851279,"Delta":24207493},{"NoteNumber":71,"Velocity":40,"Duration":1851279,"SoundDuration":1851279,"Delta":24207493},{"NoteNumber":52,"Velocity":25,"Duration":1388459,"SoundDuration":1388459,"Delta":24207493},{"NoteNumber":56,"Velocity":25,"Duration":1851279,"SoundDuration":1851279,"Delta":24207493},{"NoteNumber":59,"Velocity":28,"Duration":1851279,"SoundDuration":1851279,"Delta":24207493},{"NoteNumber":63,"Velocity":28,"Duration":462820,"SoundDuration":462820,"Delta":25595953},{"NoteNumber":51,"Velocity":22,"Duration":462820,"SoundDuration":462820,"Delta":25595953},{"NoteNumber":64,"Velocity":36,"Duration":573738,"SoundDuration":573738,"Delta":26521593},{"NoteNumber":68,"Velocity":36,"Duration":573738,"SoundDuration":573738,"Delta":26521593},{"NoteNumber":71,"Velocity":45,"Duration":573738,"SoundDuration":573738,"Delta":26521593},{"NoteNumber":49,"Velocity":27,"Duration":573738,"SoundDuration":573738,"Delta":26521593},{"NoteNumber":56,"Velocity":27,"Duration":573738,"SoundDuration":573738,"Delta":26521593},{"NoteNumber":59,"Velocity":30,"Duration":573738,"SoundDuration":573738,"Delta":26521593},{"NoteNumber":64,"Velocity":39,"Duration":1388459,"SoundDuration":1388459,"Delta":27095332},{"NoteNumber":68,"Velocity":39,"Duration":1851279,"SoundDuration":1851279,"Delta":27095332},{"NoteNumber":71,"Velocity":49,"Duration":1851279,"SoundDuration":1851279,"Delta":27095332},{"NoteNumber":49,"Velocity":28,"Duration":1388459,"SoundDuration":1388459,"Delta":27095332},{"NoteNumber":56,"Velocity":28,"Duration":1851279,"SoundDuration":1851279,"Delta":27095332},{"NoteNumber":59,"Velocity":32,"Duration":1851279,"SoundDuration":1851279,"Delta":27095332},{"NoteNumber":63,"Velocity":29,"Duration":462820,"SoundDuration":462820,"Delta":28483792},{"NoteNumber":47,"Velocity":21,"Duration":462820,"SoundDuration":462820,"Delta":28483792},{"NoteNumber":63,"Velocity":41,"Duration":515021,"SoundDuration":515021,"Delta":29409432},{"NoteNumber":68,"Velocity":41,"Duration":515021,"SoundDuration":515021,"Delta":29409432},{"NoteNumber":71,"Velocity":52,"Duration":515021,"SoundDuration":515021,"Delta":29409432},{"NoteNumber":47,"Velocity":33,"Duration":515021,"SoundDuration":515021,"Delta":29409432},{"NoteNumber":56,"Velocity":29,"Duration":515021,"SoundDuration":515021,"Delta":29409432},{"NoteNumber":59,"Velocity":33,"Duration":515021,"SoundDuration":515021,"Delta":29409432},{"NoteNumber":70,"Velocity":58,"Duration":515021,"SoundDuration":515021,"Delta":29924453},{"NoteNumber":64,"Velocity":46,"Duration":2391081,"SoundDuration":2391081,"Delta":29924453},{"NoteNumber":68,"Velocity":46,"Duration":2391081,"SoundDuration":2391081,"Delta":29924453},{"NoteNumber":49,"Velocity":35,"Duration":1440660,"SoundDuration":1440660,"Delta":29924453},{"NoteNumber":58,"Velocity":39,"Duration":2391081,"SoundDuration":2391081,"Delta":29924453},{"NoteNumber":56,"Velocity":35,"Duration":2391081,"SoundDuration":2391081,"Delta":29924453},{"NoteNumber":76,"Velocity":65,"Duration":694230,"SoundDuration":694230,"Delta":30439474},{"NoteNumber":70,"Velocity":51,"Duration":231409,"SoundDuration":231409,"Delta":31133704},{"NoteNumber":75,"Velocity":57,"Duration":237605,"SoundDuration":237605,"Delta":31365114},{"NoteNumber":46,"Velocity":36,"Duration":475209,"SoundDuration":475209,"Delta":31365114},{"NoteNumber":73,"Velocity":55,"Duration":237604,"SoundDuration":237604,"Delta":31602719},{"NoteNumber":71,"Velocity":55,"Duration":475210,"SoundDuration":475210,"Delta":31840324},{"NoteNumber":47,"Velocity":37,"Duration":475210,"SoundDuration":475210,"Delta":31840324},{"NoteNumber":61,"Velocity":41,"Duration":552283,"SoundDuration":552283,"Delta":32315534},{"NoteNumber":64,"Velocity":41,"Duration":552283,"SoundDuration":552283,"Delta":32315534},{"NoteNumber":70,"Velocity":52,"Duration":552283,"SoundDuration":552283,"Delta":32315534},{"NoteNumber":49,"Velocity":35,"Duration":552283,"SoundDuration":552283,"Delta":32315534},{"NoteNumber":63,"Velocity":39,"Duration":1851280,"SoundDuration":1851280,"Delta":32867817},{"NoteNumber":59,"Velocity":39,"Duration":1388460,"SoundDuration":1388460,"Delta":32867817},{"NoteNumber":68,"Velocity":49,"Duration":1388460,"SoundDuration":1388460,"Delta":32867817},{"NoteNumber":51,"Velocity":35,"Duration":1851280,"SoundDuration":1851280,"Delta":32867817},{"NoteNumber":58,"Velocity":27,"Duration":462820,"SoundDuration":462820,"Delta":34256277},{"NoteNumber":67,"Velocity":35,"Duration":462820,"SoundDuration":462820,"Delta":34256277},{"NoteNumber":62,"Velocity":28,"Duration":573394,"SoundDuration":573394,"Delta":35181917},{"NoteNumber":68,"Velocity":28,"Duration":573394,"SoundDuration":573394,"Delta":35181917},{"NoteNumber":71,"Velocity":36,"Duration":573394,"SoundDuration":573394,"Delta":35181917},{"NoteNumber":52,"Velocity":22,"Duration":573394,"SoundDuration":573394,"Delta":35181917},{"NoteNumber":56,"Velocity":22,"Duration":573394,"SoundDuration":573394,"Delta":35181917},{"NoteNumber":59,"Velocity":25,"Duration":573394,"SoundDuration":573394,"Delta":35181917},{"NoteNumber":62,"Velocity":28,"Duration":1388460,"SoundDuration":1388460,"Delta":35755311},{"NoteNumber":68,"Velocity":28,"Duration":1851280,"SoundDuration":1851280,"Delta":35755311},{"NoteNumber":71,"Velocity":36,"Duration":1851280,"SoundDuration":1851280,"Delta":35755311},{"NoteNumber":52,"Velocity":22,"Duration":1388460,"SoundDuration":1388460,"Delta":35755311},{"NoteNumber":56,"Velocity":22,"Duration":1851280,"SoundDuration":1851280,"Delta":35755311},{"NoteNumber":59,"Velocity":25,"Duration":1851280,"SoundDuration":1851280,"Delta":35755311},{"NoteNumber":63,"Velocity":25,"Duration":462820,"SoundDuration":462820,"Delta":37143771},{"NoteNumber":51,"Velocity":19,"Duration":462820,"SoundDuration":462820,"Delta":37143771},{"NoteNumber":64,"Velocity":38,"Duration":576146,"SoundDuration":576146,"Delta":38069411},{"NoteNumber":68,"Velocity":38,"Duration":576146,"SoundDuration":576146,"Delta":38069411},{"NoteNumber":71,"Velocity":48,"Duration":576146,"SoundDuration":576146,"Delta":38069411},{"NoteNumber":49,"Velocity":28,"Duration":576146,"SoundDuration":576146,"Delta":38069411},{"NoteNumber":56,"Velocity":28,"Duration":576146,"SoundDuration":576146,"Delta":38069411},{"NoteNumber":59,"Velocity":32,"Duration":576146,"SoundDuration":576146,"Delta":38069411},{"NoteNumber":64,"Velocity":35,"Duration":1388460,"SoundDuration":1388460,"Delta":38645558},{"NoteNumber":68,"Velocity":35,"Duration":1851280,"SoundDuration":1851280,"Delta":38645558},{"NoteNumber":71,"Velocity":44,"Duration":1851280,"SoundDuration":1851280,"Delta":38645558},{"NoteNumber":49,"Velocity":27,"Duration":1388460,"SoundDuration":1388460,"Delta":38645558},{"NoteNumber":56,"Velocity":27,"Duration":1851280,"SoundDuration":1851280,"Delta":38645558},{"NoteNumber":59,"Velocity":31,"Duration":1851280,"SoundDuration":1851280,"Delta":38645558},{"NoteNumber":63,"Velocity":30,"Duration":462820,"SoundDuration":462820,"Delta":40034018},{"NoteNumber":47,"Velocity":18,"Duration":462820,"SoundDuration":462820,"Delta":40034018},{"NoteNumber":64,"Velocity":40,"Duration":521738,"SoundDuration":521738,"Delta":40959658},{"NoteNumber":68,"Velocity":40,"Duration":521738,"SoundDuration":521738,"Delta":40959658},{"NoteNumber":71,"Velocity":50,"Duration":521738,"SoundDuration":521738,"Delta":40959658},{"NoteNumber":52,"Velocity":34,"Duration":521738,"SoundDuration":521738,"Delta":40959658},{"NoteNumber":47,"Velocity":34,"Duration":521738,"SoundDuration":521738,"Delta":40959658},{"NoteNumber":56,"Velocity":34,"Duration":521738,"SoundDuration":521738,"Delta":40959658},{"NoteNumber":59,"Velocity":38,"Duration":521738,"SoundDuration":521738,"Delta":40959658},{"NoteNumber":71,"Velocity":56,"Duration":533332,"SoundDuration":533332,"Delta":41481397},{"NoteNumber":64,"Velocity":45,"Duration":2992975,"SoundDuration":2992975,"Delta":41481397},{"NoteNumber":68,"Velocity":45,"Duration":1547718,"SoundDuration":1547718,"Delta":41481397},{"NoteNumber":47,"Velocity":39,"Duration":1547718,"SoundDuration":1547718,"Delta":41481397},{"NoteNumber":52,"Velocity":39,"Duration":1547718,"SoundDuration":1547718,"Delta":41481397},{"NoteNumber":56,"Velocity":39,"Duration":1547718,"SoundDuration":1547718,"Delta":41481397},{"NoteNumber":59,"Velocity":44,"Duration":1547718,"SoundDuration":1547718,"Delta":41481397},{"NoteNumber":76,"Velocity":70,"Duration":692306,"SoundDuration":692306,"Delta":42014730},{"NoteNumber":71,"Velocity":60,"Duration":188679,"SoundDuration":188679,"Delta":42707037},{"NoteNumber":71,"Velocity":55,"Duration":133399,"SoundDuration":133399,"Delta":42895716},{"NoteNumber":75,"Velocity":73,"Duration":237546,"SoundDuration":237546,"Delta":43029115},{"NoteNumber":47,"Velocity":37,"Duration":1445256,"SoundDuration":1445256,"Delta":43029115},{"NoteNumber":52,"Velocity":37,"Duration":1445256,"SoundDuration":1445256,"Delta":43029115},{"NoteNumber":56,"Velocity":37,"Duration":1445256,"SoundDuration":1445256,"Delta":43029115},{"NoteNumber":59,"Velocity":42,"Duration":1445256,"SoundDuration":1445256,"Delta":43029115},{"NoteNumber":73,"Velocity":70,"Duration":238886,"SoundDuration":238886,"Delta":43266661},{"NoteNumber":71,"Velocity":67,"Duration":482338,"SoundDuration":482338,"Delta":43505548},{"NoteNumber":68,"Velocity":65,"Duration":486485,"SoundDuration":486485,"Delta":43987886},{"NoteNumber":65,"Velocity":62,"Duration":506329,"SoundDuration":506329,"Delta":44474372},{"NoteNumber":61,"Velocity":49,"Duration":1447504,"SoundDuration":1447504,"Delta":44474372},{"NoteNumber":47,"Velocity":35,"Duration":1447504,"SoundDuration":1447504,"Delta":44474372},{"NoteNumber":53,"Velocity":35,"Duration":1447504,"SoundDuration":1447504,"Delta":44474372},{"NoteNumber":56,"Velocity":39,"Duration":1447504,"SoundDuration":1447504,"Delta":44474372},{"NoteNumber":73,"Velocity":70,"Duration":705882,"SoundDuration":705882,"Delta":44980701},{"NoteNumber":65,"Velocity":58,"Duration":235293,"SoundDuration":235293,"Delta":45686583},{"NoteNumber":61,"Velocity":56,"Duration":472679,"SoundDuration":472679,"Delta":45921877},{"NoteNumber":66,"Velocity":56,"Duration":472679,"SoundDuration":472679,"Delta":45921877},{"NoteNumber":73,"Velocity":70,"Duration":235680,"SoundDuration":235680,"Delta":45921877},{"NoteNumber":47,"Velocity":38,"Duration":1435132,"SoundDuration":1435132,"Delta":45921877},{"NoteNumber":54,"Velocity":38,"Duration":472679,"SoundDuration":472679,"Delta":45921877},{"NoteNumber":57,"Velocity":43,"Duration":472679,"SoundDuration":472679,"Delta":45921877},{"NoteNumber":69,"Velocity":70,"Duration":236999,"SoundDuration":236999,"Delta":46157557},{"NoteNumber":64,"Velocity":56,"Duration":478331,"SoundDuration":478331,"Delta":46394556},{"NoteNumber":68,"Velocity":70,"Duration":478331,"SoundDuration":478331,"Delta":46394556},{"NoteNumber":56,"Velocity":38,"Duration":478331,"SoundDuration":478331,"Delta":46394556},{"NoteNumber":59,"Velocity":43,"Duration":478331,"SoundDuration":478331,"Delta":46394556},{"NoteNumber":63,"Velocity":54,"Duration":484121,"SoundDuration":484121,"Delta":46872888},{"NoteNumber":66,"Velocity":67,"Duration":484121,"SoundDuration":484121,"Delta":46872888},{"NoteNumber":57,"Velocity":38,"Duration":484121,"SoundDuration":484121,"Delta":46872888},{"NoteNumber":59,"Velocity":43,"Duration":484121,"SoundDuration":484121,"Delta":46872888},{"NoteNumber":56,"Velocity":53,"Duration":975610,"SoundDuration":975610,"Delta":47357009},{"NoteNumber":59,"Velocity":53,"Duration":975610,"SoundDuration":975610,"Delta":47357009},{"NoteNumber":64,"Velocity":66,"Duration":975610,"SoundDuration":975610,"Delta":47357009},{"NoteNumber":40,"Velocity":41,"Duration":1401682,"SoundDuration":1401682,"Delta":47357009},{"NoteNumber":47,"Velocity":41,"Duration":1401682,"SoundDuration":1401682,"Delta":47357009},{"NoteNumber":52,"Velocity":46,"Duration":1401682,"SoundDuration":1401682,"Delta":47357009},{"NoteNumber":64,"Velocity":51,"Duration":132397,"SoundDuration":132397,"Delta":48332619},{"NoteNumber":68,"Velocity":55,"Duration":132397,"SoundDuration":132397,"Delta":48465017},{"NoteNumber":71,"Velocity":59,"Duration":161277,"SoundDuration":161277,"Delta":48597414},{"NoteNumber":70,"Velocity":69,"Duration":925640,"SoundDuration":925640,"Delta":48758692},{"NoteNumber":67,"Velocity":55,"Duration":925640,"SoundDuration":925640,"Delta":48758692},{"NoteNumber":64,"Velocity":55,"Duration":925640,"SoundDuration":925640,"Delta":48758692},{"NoteNumber":61,"Velocity":55,"Duration":925640,"SoundDuration":925640,"Delta":48758692},{"NoteNumber":40,"Velocity":46,"Duration":1407732,"SoundDuration":1407732,"Delta":48758692},{"NoteNumber":71,"Velocity":57,"Duration":241935,"SoundDuration":241935,"Delta":49684332},{"NoteNumber":68,"Velocity":45,"Duration":241935,"SoundDuration":241935,"Delta":49684332},{"NoteNumber":64,"Velocity":45,"Duration":241935,"SoundDuration":241935,"Delta":49684332},{"NoteNumber":59,"Velocity":45,"Duration":241935,"SoundDuration":241935,"Delta":49684332},{"NoteNumber":66,"Velocity":44,"Duration":120967,"SoundDuration":120967,"Delta":49926267},{"NoteNumber":68,"Velocity":44,"Duration":119188,"SoundDuration":119188,"Delta":50047235},{"NoteNumber":60,"Velocity":44,"Duration":675049,"SoundDuration":675049,"Delta":50166424},{"NoteNumber":69,"Velocity":49,"Duration":675049,"SoundDuration":675049,"Delta":50166424},{"NoteNumber":63,"Velocity":49,"Duration":1382529,"SoundDuration":1382529,"Delta":50166424},{"NoteNumber":40,"Velocity":33,"Duration":1382529,"SoundDuration":1382529,"Delta":50166424},{"NoteNumber":45,"Velocity":37,"Duration":675049,"SoundDuration":675049,"Delta":50166424},{"NoteNumber":59,"Velocity":42,"Duration":232188,"SoundDuration":232188,"Delta":50841474},{"NoteNumber":68,"Velocity":47,"Duration":232188,"SoundDuration":232188,"Delta":50841474},{"NoteNumber":47,"Velocity":35,"Duration":232188,"SoundDuration":232188,"Delta":50841474},{"NoteNumber":57,"Velocity":39,"Duration":475291,"SoundDuration":475291,"Delta":51073662},{"NoteNumber":66,"Velocity":44,"Duration":475291,"SoundDuration":475291,"Delta":51073662},{"NoteNumber":48,"Velocity":33,"Duration":475291,"SoundDuration":475291,"Delta":51073662},{"NoteNumber":56,"Velocity":32,"Duration":917642,"SoundDuration":917642,"Delta":51548954},{"NoteNumber":64,"Velocity":41,"Duration":917642,"SoundDuration":917642,"Delta":51548954},{"NoteNumber":47,"Velocity":27,"Duration":1343714,"SoundDuration":1343714,"Delta":51548954},{"NoteNumber":40,"Velocity":24,"Duration":1343714,"SoundDuration":1343714,"Delta":51548954},{"NoteNumber":64,"Velocity":51,"Duration":132397,"SoundDuration":132397,"Delta":52466596},{"NoteNumber":68,"Velocity":55,"Duration":132397,"SoundDuration":132397,"Delta":52598993},{"NoteNumber":71,"Velocity":59,"Duration":161277,"SoundDuration":161277,"Delta":52731391},{"NoteNumber":70,"Velocity":69,"Duration":925640,"SoundDuration":925640,"Delta":52892668},{"NoteNumber":67,"Velocity":62,"Duration":925640,"SoundDuration":925640,"Delta":52892668},{"NoteNumber":64,"Velocity":55,"Duration":925640,"SoundDuration":925640,"Delta":52892668},{"NoteNumber":61,"Velocity":55,"Duration":925640,"SoundDuration":925640,"Delta":52892668},{"NoteNumber":40,"Velocity":46,"Duration":1415435,"SoundDuration":1415435,"Delta":52892668},{"NoteNumber":71,"Velocity":51,"Duration":244897,"SoundDuration":244897,"Delta":53818308},{"NoteNumber":68,"Velocity":40,"Duration":244897,"SoundDuration":244897,"Delta":53818308},{"NoteNumber":64,"Velocity":40,"Duration":244897,"SoundDuration":244897,"Delta":53818308},{"NoteNumber":59,"Velocity":40,"Duration":244897,"SoundDuration":244897,"Delta":53818308},{"NoteNumber":66,"Velocity":43,"Duration":122449,"SoundDuration":122449,"Delta":54063206},{"NoteNumber":68,"Velocity":43,"Duration":122448,"SoundDuration":122448,"Delta":54185655},{"NoteNumber":60,"Velocity":41,"Duration":716010,"SoundDuration":716010,"Delta":54308104},{"NoteNumber":69,"Velocity":46,"Duration":716010,"SoundDuration":716010,"Delta":54308104},{"NoteNumber":63,"Velocity":41,"Duration":1485026,"SoundDuration":1485026,"Delta":54308104},{"NoteNumber":40,"Velocity":31,"Duration":1485026,"SoundDuration":1485026,"Delta":54308104},{"NoteNumber":45,"Velocity":35,"Duration":716010,"SoundDuration":716010,"Delta":54308104},{"NoteNumber":59,"Velocity":36,"Duration":250534,"SoundDuration":250534,"Delta":55024115},{"NoteNumber":68,"Velocity":41,"Duration":250534,"SoundDuration":250534,"Delta":55024115},{"NoteNumber":47,"Velocity":32,"Duration":250534,"SoundDuration":250534,"Delta":55024115},{"NoteNumber":57,"Velocity":37,"Duration":518481,"SoundDuration":518481,"Delta":55274649},{"NoteNumber":66,"Velocity":37,"Duration":518481,"SoundDuration":518481,"Delta":55274649},{"NoteNumber":48,"Velocity":29,"Duration":518481,"SoundDuration":518481,"Delta":55274649},{"NoteNumber":56,"Velocity":31,"Duration":923076,"SoundDuration":923076,"Delta":55793130},{"NoteNumber":64,"Velocity":35,"Duration":923076,"SoundDuration":923076,"Delta":55793130},{"NoteNumber":47,"Velocity":26,"Duration":1410881,"SoundDuration":1410881,"Delta":55793130},{"NoteNumber":40,"Velocity":23,"Duration":1410881,"SoundDuration":1410881,"Delta":55793130},{"NoteNumber":68,"Velocity":43,"Duration":487805,"SoundDuration":487805,"Delta":56716206},{"NoteNumber":64,"Velocity":39,"Duration":937500,"SoundDuration":937500,"Delta":57204011},{"NoteNumber":68,"Velocity":49,"Duration":937500,"SoundDuration":937500,"Delta":57204011},{"NoteNumber":52,"Velocity":28,"Duration":937500,"SoundDuration":937500,"Delta":57204011},{"NoteNumber":59,"Velocity":32,"Duration":937500,"SoundDuration":937500,"Delta":57204011},{"NoteNumber":64,"Velocity":35,"Duration":512821,"SoundDuration":512821,"Delta":58141511},{"NoteNumber":68,"Velocity":44,"Duration":512821,"SoundDuration":512821,"Delta":58141511},{"NoteNumber":52,"Velocity":23,"Duration":512821,"SoundDuration":512821,"Delta":58141511},{"NoteNumber":59,"Velocity":26,"Duration":512821,"SoundDuration":512821,"Delta":58141511},{"NoteNumber":64,"Velocity":50,"Duration":699954,"SoundDuration":699954,"Delta":58654332},{"NoteNumber":68,"Velocity":50,"Duration":936099,"SoundDuration":936099,"Delta":58654332},{"NoteNumber":52,"Velocity":28,"Duration":936099,"SoundDuration":936099,"Delta":58654332},{"NoteNumber":59,"Velocity":32,"Duration":936099,"SoundDuration":936099,"Delta":58654332},{"NoteNumber":63,"Velocity":45,"Duration":236144,"SoundDuration":236144,"Delta":59354287},{"NoteNumber":62,"Velocity":42,"Duration":570667,"SoundDuration":570667,"Delta":59590431},{"NoteNumber":68,"Velocity":42,"Duration":570667,"SoundDuration":570667,"Delta":59590431},{"NoteNumber":52,"Velocity":22,"Duration":570667,"SoundDuration":570667,"Delta":59590431},{"NoteNumber":56,"Velocity":25,"Duration":570667,"SoundDuration":570667,"Delta":59590431},{"NoteNumber":63,"Velocity":35,"Duration":2284533,"SoundDuration":2284533,"Delta":60161099},{"NoteNumber":68,"Velocity":44,"Duration":1384613,"SoundDuration":1384613,"Delta":60161099},{"NoteNumber":51,"Velocity":28,"Duration":2284533,"SoundDuration":2284533,"Delta":60161099},{"NoteNumber":58,"Velocity":32,"Duration":2284533,"SoundDuration":2284533,"Delta":60161099},{"NoteNumber":67,"Velocity":39,"Duration":692306,"SoundDuration":692306,"Delta":61545713},{"NoteNumber":68,"Velocity":39,"Duration":207612,"SoundDuration":207612,"Delta":62238020},{"NoteNumber":70,"Velocity":42,"Duration":207612,"SoundDuration":207612,"Delta":62445633},{"NoteNumber":72,"Velocity":45,"Duration":207612,"SoundDuration":207612,"Delta":62653245},{"NoteNumber":65,"Velocity":38,"Duration":860216,"SoundDuration":860216,"Delta":62860858},{"NoteNumber":68,"Velocity":38,"Duration":860216,"SoundDuration":860216,"Delta":62860858},{"NoteNumber":73,"Velocity":48,"Duration":860216,"SoundDuration":860216,"Delta":62860858},{"NoteNumber":51,"Velocity":28,"Duration":860216,"SoundDuration":860216,"Delta":62860858},{"NoteNumber":53,"Velocity":28,"Duration":860216,"SoundDuration":860216,"Delta":62860858},{"NoteNumber":56,"Velocity":28,"Duration":860216,"SoundDuration":860216,"Delta":62860858},{"NoteNumber":61,"Velocity":32,"Duration":860216,"SoundDuration":860216,"Delta":62860858},{"NoteNumber":65,"Velocity":39,"Duration":430108,"SoundDuration":430108,"Delta":63721074},{"NoteNumber":68,"Velocity":39,"Duration":430108,"SoundDuration":430108,"Delta":63721074},{"NoteNumber":73,"Velocity":49,"Duration":430108,"SoundDuration":430108,"Delta":63721074},{"NoteNumber":51,"Velocity":28,"Duration":430108,"SoundDuration":430108,"Delta":63721074},{"NoteNumber":53,"Velocity":28,"Duration":430108,"SoundDuration":430108,"Delta":63721074},{"NoteNumber":56,"Velocity":28,"Duration":430108,"SoundDuration":430108,"Delta":63721074},{"NoteNumber":61,"Velocity":32,"Duration":430108,"SoundDuration":430108,"Delta":63721074},{"NoteNumber":75,"Velocity":55,"Duration":115830,"SoundDuration":115830,"Delta":64151182},{"NoteNumber":67,"Velocity":40,"Duration":893428,"SoundDuration":893428,"Delta":64151182},{"NoteNumber":70,"Velocity":40,"Duration":893428,"SoundDuration":893428,"Delta":64151182},{"NoteNumber":61,"Velocity":36,"Duration":893428,"SoundDuration":893428,"Delta":64151182},{"NoteNumber":58,"Velocity":32,"Duration":893428,"SoundDuration":893428,"Delta":64151182},{"NoteNumber":55,"Velocity":32,"Duration":893428,"SoundDuration":893428,"Delta":64151182},{"NoteNumber":51,"Velocity":32,"Duration":893428,"SoundDuration":893428,"Delta":64151182},{"NoteNumber":73,"Velocity":50,"Duration":115830,"SoundDuration":115830,"Delta":64267012},{"NoteNumber":72,"Velocity":50,"Duration":115829,"SoundDuration":115829,"Delta":64382842},{"NoteNumber":73,"Velocity":50,"Duration":115830,"SoundDuration":115830,"Delta":64498672},{"NoteNumber":75,"Velocity":51,"Duration":430108,"SoundDuration":430108,"Delta":64614502},{"NoteNumber":67,"Velocity":39,"Duration":525670,"SoundDuration":525670,"Delta":65044610},{"NoteNumber":70,"Velocity":49,"Duration":525670,"SoundDuration":525670,"Delta":65044610},{"NoteNumber":63,"Velocity":31,"Duration":525670,"SoundDuration":525670,"Delta":65044610},{"NoteNumber":51,"Velocity":27,"Duration":525670,"SoundDuration":525670,"Delta":65044610},{"NoteNumber":67,"Velocity":40,"Duration":1389960,"SoundDuration":1389960,"Delta":65570280},{"NoteNumber":70,"Velocity":40,"Duration":1389960,"SoundDuration":1389960,"Delta":65570280},{"NoteNumber":73,"Velocity":50,"Duration":1389960,"SoundDuration":1389960,"Delta":65570280},{"NoteNumber":63,"Velocity":33,"Duration":1853279,"SoundDuration":1853279,"Delta":65570280},{"NoteNumber":56,"Velocity":29,"Duration":1853279,"SoundDuration":1853279,"Delta":65570280},{"NoteNumber":68,"Velocity":36,"Duration":463319,"SoundDuration":463319,"Delta":66960240},{"NoteNumber":72,"Velocity":45,"Duration":463319,"SoundDuration":463319,"Delta":66960240},{"NoteNumber":68,"Velocity":64,"Duration":521105,"SoundDuration":521105,"Delta":67886880},{"NoteNumber":72,"Velocity":64,"Duration":521105,"SoundDuration":521105,"Delta":67886880},{"NoteNumber":77,"Velocity":80,"Duration":521105,"SoundDuration":521105,"Delta":67886880},{"NoteNumber":56,"Velocity":51,"Duration":521105,"SoundDuration":521105,"Delta":67886880},{"NoteNumber":60,"Velocity":51,"Duration":521105,"SoundDuration":521105,"Delta":67886880},{"NoteNumber":65,"Velocity":57,"Duration":521105,"SoundDuration":521105,"Delta":67886880},{"NoteNumber":68,"Velocity":64,"Duration":909090,"SoundDuration":909090,"Delta":68407985},{"NoteNumber":72,"Velocity":64,"Duration":909090,"SoundDuration":909090,"Delta":68407985},{"NoteNumber":77,"Velocity":80,"Duration":909090,"SoundDuration":909090,"Delta":68407985},{"NoteNumber":56,"Velocity":51,"Duration":909090,"SoundDuration":909090,"Delta":68407985},{"NoteNumber":60,"Velocity":51,"Duration":909090,"SoundDuration":909090,"Delta":68407985},{"NoteNumber":65,"Velocity":57,"Duration":909090,"SoundDuration":909090,"Delta":68407985},{"NoteNumber":68,"Velocity":64,"Duration":573393,"SoundDuration":573393,"Delta":69317075},{"NoteNumber":72,"Velocity":64,"Duration":573393,"SoundDuration":573393,"Delta":69317075},{"NoteNumber":77,"Velocity":80,"Duration":573393,"SoundDuration":573393,"Delta":69317075},{"NoteNumber":56,"Velocity":51,"Duration":573393,"SoundDuration":573393,"Delta":69317075},{"NoteNumber":60,"Velocity":51,"Duration":573393,"SoundDuration":573393,"Delta":69317075},{"NoteNumber":65,"Velocity":57,"Duration":573393,"SoundDuration":573393,"Delta":69317075},{"NoteNumber":80,"Velocity":86,"Duration":681817,"SoundDuration":681817,"Delta":69890469},{"NoteNumber":68,"Velocity":69,"Duration":909090,"SoundDuration":909090,"Delta":69890469},{"NoteNumber":72,"Velocity":69,"Duration":909090,"SoundDuration":909090,"Delta":69890469},{"NoteNumber":56,"Velocity":54,"Duration":909090,"SoundDuration":909090,"Delta":69890469},{"NoteNumber":60,"Velocity":61,"Duration":909090,"SoundDuration":909090,"Delta":69890469},{"NoteNumber":67,"Velocity":64,"Duration":227272,"SoundDuration":227272,"Delta":70572286},{"NoteNumber":79,"Velocity":80,"Duration":227272,"SoundDuration":227272,"Delta":70572286},{"NoteNumber":77,"Velocity":75,"Duration":518851,"SoundDuration":518851,"Delta":70799559},{"NoteNumber":72,"Velocity":60,"Duration":518851,"SoundDuration":518851,"Delta":70799559},{"NoteNumber":68,"Velocity":60,"Duration":518851,"SoundDuration":518851,"Delta":70799559},{"NoteNumber":65,"Velocity":60,"Duration":518851,"SoundDuration":518851,"Delta":70799559},{"NoteNumber":56,"Velocity":48,"Duration":518851,"SoundDuration":518851,"Delta":70799559},{"NoteNumber":60,"Velocity":54,"Duration":518851,"SoundDuration":518851,"Delta":70799559},{"NoteNumber":77,"Velocity":80,"Duration":2272724,"SoundDuration":2272724,"Delta":71318411},{"NoteNumber":73,"Velocity":64,"Duration":2835365,"SoundDuration":2835365,"Delta":71318411},{"NoteNumber":70,"Velocity":64,"Duration":2835365,"SoundDuration":2835365,"Delta":71318411},{"NoteNumber":67,"Velocity":64,"Duration":2835365,"SoundDuration":2835365,"Delta":71318411},{"NoteNumber":65,"Velocity":57,"Duration":2272724,"SoundDuration":2272724,"Delta":71318411},{"NoteNumber":61,"Velocity":51,"Duration":2835365,"SoundDuration":2835365,"Delta":71318411},{"NoteNumber":58,"Velocity":51,"Duration":2835365,"SoundDuration":2835365,"Delta":71318411},{"NoteNumber":55,"Velocity":51,"Duration":2835365,"SoundDuration":2835365,"Delta":71318411},{"NoteNumber":76,"Velocity":54,"Duration":562640,"SoundDuration":562640,"Delta":73591136},{"NoteNumber":64,"Velocity":44,"Duration":562640,"SoundDuration":562640,"Delta":73591136},{"NoteNumber":70,"Velocity":42,"Duration":2625222,"SoundDuration":2625222,"Delta":74153777},{"NoteNumber":75,"Velocity":47,"Duration":1016949,"SoundDuration":1016949,"Delta":74153777},{"NoteNumber":63,"Velocity":36,"Duration":2625222,"SoundDuration":2625222,"Delta":74153777},{"NoteNumber":55,"Velocity":32,"Duration":2625222,"SoundDuration":2625222,"Delta":74153777},{"NoteNumber":74,"Velocity":43,"Duration":608272,"SoundDuration":608272,"Delta":75170727},{"NoteNumber":73,"Velocity":37,"Duration":1000000,"SoundDuration":1000000,"Delta":75779000},{"NoteNumber":63,"Velocity":36,"Duration":608272,"SoundDuration":608272,"Delta":76779000},{"NoteNumber":68,"Velocity":36,"Duration":608272,"SoundDuration":608272,"Delta":76779000},{"NoteNumber":72,"Velocity":45,"Duration":608272,"SoundDuration":608272,"Delta":76779000},{"NoteNumber":56,"Velocity":32,"Duration":608272,"SoundDuration":608272,"Delta":76779000},{"NoteNumber":65,"Velocity":37,"Duration":1860752,"SoundDuration":1860752,"Delta":77387273},{"NoteNumber":68,"Velocity":37,"Duration":1860752,"SoundDuration":1860752,"Delta":77387273},{"NoteNumber":72,"Velocity":47,"Duration":1395563,"SoundDuration":1395563,"Delta":77387273},{"NoteNumber":61,"Velocity":33,"Duration":1860752,"SoundDuration":1860752,"Delta":77387273},{"NoteNumber":70,"Velocity":44,"Duration":465188,"SoundDuration":465188,"Delta":78782837},{"NoteNumber":77,"Velocity":50,"Duration":590318,"SoundDuration":590318,"Delta":79713213},{"NoteNumber":70,"Velocity":40,"Duration":590318,"SoundDuration":590318,"Delta":79713213},{"NoteNumber":67,"Velocity":40,"Duration":590318,"SoundDuration":590318,"Delta":79713213},{"NoteNumber":65,"Velocity":36,"Duration":590318,"SoundDuration":590318,"Delta":79713213},{"NoteNumber":61,"Velocity":32,"Duration":590318,"SoundDuration":590318,"Delta":79713213},{"NoteNumber":68,"Velocity":41,"Duration":1860752,"SoundDuration":1860752,"Delta":80303532},{"NoteNumber":72,"Velocity":41,"Duration":1860752,"SoundDuration":1860752,"Delta":80303532},{"NoteNumber":77,"Velocity":52,"Duration":1395563,"SoundDuration":1395563,"Delta":80303532},{"NoteNumber":65,"Velocity":36,"Duration":1395563,"SoundDuration":1395563,"Delta":80303532},{"NoteNumber":60,"Velocity":32,"Duration":1860752,"SoundDuration":1860752,"Delta":80303532},{"NoteNumber":75,"Velocity":48,"Duration":465188,"SoundDuration":465188,"Delta":81699096},{"NoteNumber":63,"Velocity":34,"Duration":465188,"SoundDuration":465188,"Delta":81699096},{"NoteNumber":60,"Velocity":38,"Duration":602530,"SoundDuration":602530,"Delta":82396878},{"NoteNumber":63,"Velocity":48,"Duration":200843,"SoundDuration":200843,"Delta":82396878},{"NoteNumber":56,"Velocity":37,"Duration":602530,"SoundDuration":602530,"Delta":82396878},{"NoteNumber":68,"Velocity":50,"Duration":200843,"SoundDuration":200843,"Delta":82597721},{"NoteNumber":51,"Velocity":39,"Duration":200843,"SoundDuration":200843,"Delta":82597721},{"NoteNumber":72,"Velocity":52,"Duration":200843,"SoundDuration":200843,"Delta":82798565},{"NoteNumber":48,"Velocity":40,"Duration":200843,"SoundDuration":200843,"Delta":82798565},{"NoteNumber":61,"Velocity":43,"Duration":892194,"SoundDuration":892194,"Delta":82999408},{"NoteNumber":63,"Velocity":43,"Duration":892194,"SoundDuration":892194,"Delta":82999408},{"NoteNumber":67,"Velocity":43,"Duration":892194,"SoundDuration":892194,"Delta":82999408},{"NoteNumber":73,"Velocity":54,"Duration":892194,"SoundDuration":892194,"Delta":82999408},{"NoteNumber":46,"Velocity":33,"Duration":892194,"SoundDuration":892194,"Delta":82999408},{"NoteNumber":51,"Velocity":33,"Duration":892194,"SoundDuration":892194,"Delta":82999408},{"NoteNumber":55,"Velocity":37,"Duration":892194,"SoundDuration":892194,"Delta":82999408},{"NoteNumber":60,"Velocity":45,"Duration":560015,"SoundDuration":560015,"Delta":83891602},{"NoteNumber":63,"Velocity":45,"Duration":560015,"SoundDuration":560015,"Delta":83891602},{"NoteNumber":68,"Velocity":45,"Duration":560015,"SoundDuration":560015,"Delta":83891602},{"NoteNumber":72,"Velocity":56,"Duration":560015,"SoundDuration":560015,"Delta":83891602},{"NoteNumber":44,"Velocity":36,"Duration":560015,"SoundDuration":560015,"Delta":83891602},{"NoteNumber":51,"Velocity":36,"Duration":560015,"SoundDuration":560015,"Delta":83891602},{"NoteNumber":56,"Velocity":40,"Duration":560015,"SoundDuration":560015,"Delta":83891602},{"NoteNumber":58,"Velocity":45,"Duration":868936,"SoundDuration":868936,"Delta":84451617},{"NoteNumber":63,"Velocity":45,"Duration":868936,"SoundDuration":868936,"Delta":84451617},{"NoteNumber":70,"Velocity":57,"Duration":868936,"SoundDuration":868936,"Delta":84451617},{"NoteNumber":43,"Velocity":36,"Duration":868936,"SoundDuration":868936,"Delta":84451617},{"NoteNumber":51,"Velocity":36,"Duration":868936,"SoundDuration":868936,"Delta":84451617},{"NoteNumber":55,"Velocity":41,"Duration":868936,"SoundDuration":868936,"Delta":84451617},{"NoteNumber":62,"Velocity":49,"Duration":627352,"SoundDuration":627352,"Delta":85320553},{"NoteNumber":70,"Velocity":49,"Duration":627352,"SoundDuration":627352,"Delta":85320553},{"NoteNumber":68,"Velocity":49,"Duration":627352,"SoundDuration":627352,"Delta":85320553},{"NoteNumber":74,"Velocity":62,"Duration":627352,"SoundDuration":627352,"Delta":85320553},{"NoteNumber":41,"Velocity":40,"Duration":627352,"SoundDuration":627352,"Delta":85320553},{"NoteNumber":46,"Velocity":40,"Duration":627352,"SoundDuration":627352,"Delta":85320553},{"NoteNumber":53,"Velocity":45,"Duration":627352,"SoundDuration":627352,"Delta":85320553},{"NoteNumber":62,"Velocity":55,"Duration":1520655,"SoundDuration":1520655,"Delta":85947906},{"NoteNumber":70,"Velocity":55,"Duration":1985843,"SoundDuration":1985843,"Delta":85947906},{"NoteNumber":68,"Velocity":55,"Duration":1520655,"SoundDuration":1520655,"Delta":85947906},{"NoteNumber":74,"Velocity":69,"Duration":1520655,"SoundDuration":1520655,"Delta":85947906},{"NoteNumber":39,"Velocity":43,"Duration":1985843,"SoundDuration":1985843,"Delta":85947906},{"NoteNumber":46,"Velocity":43,"Duration":1985843,"SoundDuration":1985843,"Delta":85947906},{"NoteNumber":51,"Velocity":48,"Duration":1985843,"SoundDuration":1985843,"Delta":85947906},{"NoteNumber":67,"Velocity":36,"Duration":465187,"SoundDuration":465187,"Delta":87468561},{"NoteNumber":63,"Velocity":36,"Duration":465187,"SoundDuration":465187,"Delta":87468561},{"NoteNumber":75,"Velocity":45,"Duration":465187,"SoundDuration":465187,"Delta":87468561},{"NoteNumber":63,"Velocity":58,"Duration":611372,"SoundDuration":611372,"Delta":88398937},{"NoteNumber":68,"Velocity":58,"Duration":611372,"SoundDuration":611372,"Delta":88398937},{"NoteNumber":72,"Velocity":73,"Duration":611372,"SoundDuration":611372,"Delta":88398937},{"NoteNumber":32,"Velocity":45,"Duration":611372,"SoundDuration":611372,"Delta":88398937},{"NoteNumber":44,"Velocity":50,"Duration":611372,"SoundDuration":611372,"Delta":88398937},{"NoteNumber":64,"Velocity":64,"Duration":1814922,"SoundDuration":1814922,"Delta":89010309},{"NoteNumber":68,"Velocity":64,"Duration":1814922,"SoundDuration":1814922,"Delta":89010309},{"NoteNumber":72,"Velocity":81,"Duration":1127819,"SoundDuration":1127819,"Delta":89010309},{"NoteNumber":37,"Velocity":51,"Duration":1814922,"SoundDuration":1814922,"Delta":89010309},{"NoteNumber":49,"Velocity":57,"Duration":1814922,"SoundDuration":1814922,"Delta":89010309},{"NoteNumber":71,"Velocity":53,"Duration":225564,"SoundDuration":225564,"Delta":90138129},{"NoteNumber":70,"Velocity":50,"Duration":461538,"SoundDuration":461538,"Delta":90363693},{"NoteNumber":63,"Velocity":58,"Duration":539860,"SoundDuration":539860,"Delta":91286769},{"NoteNumber":68,"Velocity":58,"Duration":539860,"SoundDuration":539860,"Delta":91286769},{"NoteNumber":72,"Velocity":73,"Duration":539860,"SoundDuration":539860,"Delta":91286769},{"NoteNumber":32,"Velocity":45,"Duration":539860,"SoundDuration":539860,"Delta":91286769},{"NoteNumber":44,"Velocity":50,"Duration":539860,"SoundDuration":539860,"Delta":91286769},{"NoteNumber":64,"Velocity":64,"Duration":1796188,"SoundDuration":1796188,"Delta":91826629},{"NoteNumber":68,"Velocity":64,"Duration":1796188,"SoundDuration":1796188,"Delta":91826629},{"NoteNumber":72,"Velocity":81,"Duration":1127819,"SoundDuration":1127819,"Delta":91826629},{"NoteNumber":37,"Velocity":51,"Duration":1796188,"SoundDuration":1796188,"Delta":91826629},{"NoteNumber":49,"Velocity":57,"Duration":1796188,"SoundDuration":1796188,"Delta":91826629},{"NoteNumber":71,"Velocity":54,"Duration":225564,"SoundDuration":225564,"Delta":92954449},{"NoteNumber":70,"Velocity":51,"Duration":442803,"SoundDuration":442803,"Delta":93180013},{"NoteNumber":64,"Velocity":72,"Duration":914422,"SoundDuration":914422,"Delta":94062377},{"NoteNumber":68,"Velocity":72,"Duration":914422,"SoundDuration":914422,"Delta":94062377},{"NoteNumber":71,"Velocity":89,"Duration":914422,"SoundDuration":914422,"Delta":94062377},{"NoteNumber":38,"Velocity":55,"Duration":914422,"SoundDuration":914422,"Delta":94062377},{"NoteNumber":50,"Velocity":62,"Duration":914422,"SoundDuration":914422,"Delta":94062377},{"NoteNumber":64,"Velocity":72,"Duration":426966,"SoundDuration":426966,"Delta":94985453},{"NoteNumber":68,"Velocity":72,"Duration":426966,"SoundDuration":426966,"Delta":94985453},{"NoteNumber":71,"Velocity":90,"Duration":426966,"SoundDuration":426966,"Delta":94985453},{"NoteNumber":38,"Velocity":56,"Duration":426966,"SoundDuration":426966,"Delta":94985453},{"NoteNumber":50,"Velocity":63,"Duration":426966,"SoundDuration":426966,"Delta":94985453},{"NoteNumber":64,"Velocity":71,"Duration":426966,"SoundDuration":426966,"Delta":95434891},{"NoteNumber":68,"Velocity":71,"Duration":426966,"SoundDuration":426966,"Delta":95434891},{"NoteNumber":71,"Velocity":88,"Duration":426966,"SoundDuration":426966,"Delta":95434891},{"NoteNumber":38,"Velocity":56,"Duration":426966,"SoundDuration":426966,"Delta":95434891},{"NoteNumber":50,"Velocity":63,"Duration":426966,"SoundDuration":426966,"Delta":95434891},{"NoteNumber":64,"Velocity":66,"Duration":417581,"SoundDuration":417581,"Delta":95884329},{"NoteNumber":68,"Velocity":68,"Duration":417581,"SoundDuration":417581,"Delta":95884329},{"NoteNumber":71,"Velocity":85,"Duration":417581,"SoundDuration":417581,"Delta":95884329},{"NoteNumber":38,"Velocity":54,"Duration":417581,"SoundDuration":417581,"Delta":95884329},{"NoteNumber":50,"Velocity":61,"Duration":417581,"SoundDuration":417581,"Delta":95884329},{"NoteNumber":64,"Velocity":70,"Duration":444444,"SoundDuration":444444,"Delta":96323889},{"NoteNumber":69,"Velocity":74,"Duration":444444,"SoundDuration":444444,"Delta":96323889},{"NoteNumber":73,"Velocity":93,"Duration":444444,"SoundDuration":444444,"Delta":96323889},{"NoteNumber":37,"Velocity":60,"Duration":444444,"SoundDuration":444444,"Delta":96323889},{"NoteNumber":49,"Velocity":67,"Duration":444444,"SoundDuration":444444,"Delta":96323889},{"NoteNumber":64,"Velocity":73,"Duration":447760,"SoundDuration":447760,"Delta":96768333},{"NoteNumber":71,"Velocity":79,"Duration":447760,"SoundDuration":447760,"Delta":96768333},{"NoteNumber":74,"Velocity":98,"Duration":447760,"SoundDuration":447760,"Delta":96768333},{"NoteNumber":35,"Velocity":63,"Duration":447760,"SoundDuration":447760,"Delta":96768333},{"NoteNumber":47,"Velocity":70,"Duration":447760,"SoundDuration":447760,"Delta":96768333},{"NoteNumber":64,"Velocity":77,"Duration":451127,"SoundDuration":451127,"Delta":97216094},{"NoteNumber":73,"Velocity":79,"Duration":451127,"SoundDuration":451127,"Delta":97216094},{"NoteNumber":76,"Velocity":102,"Duration":451127,"SoundDuration":451127,"Delta":97216094},{"NoteNumber":33,"Velocity":61,"Duration":451127,"SoundDuration":451127,"Delta":97216094},{"NoteNumber":45,"Velocity":72,"Duration":451127,"SoundDuration":451127,"Delta":97216094},{"NoteNumber":64,"Velocity":71,"Duration":451127,"SoundDuration":451127,"Delta":97667222},{"NoteNumber":71,"Velocity":74,"Duration":451127,"SoundDuration":451127,"Delta":97667222},{"NoteNumber":74,"Velocity":93,"Duration":451127,"SoundDuration":451127,"Delta":97667222},{"NoteNumber":47,"Velocity":66,"Duration":451127,"SoundDuration":451127,"Delta":97667222},{"NoteNumber":35,"Velocity":59,"Duration":451127,"SoundDuration":451127,"Delta":97667222},{"NoteNumber":64,"Velocity":64,"Duration":525670,"SoundDuration":525670,"Delta":98118350},{"NoteNumber":69,"Velocity":64,"Duration":525670,"SoundDuration":525670,"Delta":98118350},{"NoteNumber":73,"Velocity":72,"Duration":525670,"SoundDuration":525670,"Delta":98118350},{"NoteNumber":37,"Velocity":51,"Duration":525670,"SoundDuration":525670,"Delta":98118350},{"NoteNumber":49,"Velocity":57,"Duration":525670,"SoundDuration":525670,"Delta":98118350},{"NoteNumber":63,"Velocity":46,"Duration":2263605,"SoundDuration":2263605,"Delta":98644020},{"NoteNumber":68,"Velocity":46,"Duration":1333331,"SoundDuration":1333331,"Delta":98644020},{"NoteNumber":71,"Velocity":58,"Duration":1333331,"SoundDuration":1333331,"Delta":98644020},{"NoteNumber":39,"Velocity":35,"Duration":2263605,"SoundDuration":2263605,"Delta":98644020},{"NoteNumber":51,"Velocity":39,"Duration":2263605,"SoundDuration":2263605,"Delta":98644020},{"NoteNumber":67,"Velocity":42,"Duration":930273,"SoundDuration":930273,"Delta":99977352},{"NoteNumber":70,"Velocity":47,"Duration":930273,"SoundDuration":930273,"Delta":99977352},{"NoteNumber":52,"Velocity":48,"Duration":904806,"SoundDuration":904806,"Delta":100907626},{"NoteNumber":50,"Velocity":48,"Duration":904806,"SoundDuration":904806,"Delta":100907626},{"NoteNumber":56,"Velocity":48,"Duration":904806,"SoundDuration":904806,"Delta":100907626},{"NoteNumber":59,"Velocity":60,"Duration":904806,"SoundDuration":904806,"Delta":100907626},{"NoteNumber":50,"Velocity":35,"Duration":426966,"SoundDuration":426966,"Delta":101830702},{"NoteNumber":52,"Velocity":35,"Duration":426966,"SoundDuration":426966,"Delta":101830702},{"NoteNumber":56,"Velocity":35,"Duration":426966,"SoundDuration":426966,"Delta":101830702},{"NoteNumber":59,"Velocity":44,"Duration":426966,"SoundDuration":426966,"Delta":101830702},{"NoteNumber":50,"Velocity":35,"Duration":426966,"SoundDuration":426966,"Delta":102280140},{"NoteNumber":52,"Velocity":35,"Duration":426966,"SoundDuration":426966,"Delta":102280140},{"NoteNumber":56,"Velocity":35,"Duration":426966,"SoundDuration":426966,"Delta":102280140},{"NoteNumber":59,"Velocity":44,"Duration":426966,"SoundDuration":426966,"Delta":102280140},{"NoteNumber":50,"Velocity":32,"Duration":449438,"SoundDuration":449438,"Delta":102729578},{"NoteNumber":52,"Velocity":32,"Duration":449438,"SoundDuration":449438,"Delta":102729578},{"NoteNumber":56,"Velocity":32,"Duration":449438,"SoundDuration":449438,"Delta":102729578},{"NoteNumber":59,"Velocity":41,"Duration":449438,"SoundDuration":449438,"Delta":102729578},{"NoteNumber":49,"Velocity":35,"Duration":459770,"SoundDuration":459770,"Delta":103179016},{"NoteNumber":52,"Velocity":35,"Duration":459770,"SoundDuration":459770,"Delta":103179016},{"NoteNumber":57,"Velocity":35,"Duration":459770,"SoundDuration":459770,"Delta":103179016},{"NoteNumber":61,"Velocity":44,"Duration":459770,"SoundDuration":459770,"Delta":103179016},{"NoteNumber":47,"Velocity":35,"Duration":401797,"SoundDuration":401797,"Delta":103638786},{"NoteNumber":52,"Velocity":35,"Duration":401797,"SoundDuration":401797,"Delta":103638786},{"NoteNumber":62,"Velocity":44,"Duration":401797,"SoundDuration":401797,"Delta":103638786},{"NoteNumber":59,"Velocity":35,"Duration":401797,"SoundDuration":401797,"Delta":103638786},{"NoteNumber":66,"Velocity":48,"Duration":120000,"SoundDuration":120000,"Delta":104040584},{"NoteNumber":45,"Velocity":36,"Duration":459770,"SoundDuration":459770,"Delta":104160584},{"NoteNumber":52,"Velocity":36,"Duration":459770,"SoundDuration":459770,"Delta":104160584},{"NoteNumber":61,"Velocity":41,"Duration":459770,"SoundDuration":459770,"Delta":104160584},{"NoteNumber":64,"Velocity":46,"Duration":459770,"SoundDuration":459770,"Delta":104160584},{"NoteNumber":47,"Velocity":35,"Duration":459769,"SoundDuration":459769,"Delta":104620354},{"NoteNumber":52,"Velocity":35,"Duration":459769,"SoundDuration":459769,"Delta":104620354},{"NoteNumber":59,"Velocity":35,"Duration":459769,"SoundDuration":459769,"Delta":104620354},{"NoteNumber":62,"Velocity":44,"Duration":459769,"SoundDuration":459769,"Delta":104620354},{"NoteNumber":49,"Velocity":31,"Duration":562640,"SoundDuration":562640,"Delta":105080124},{"NoteNumber":52,"Velocity":31,"Duration":562640,"SoundDuration":562640,"Delta":105080124},{"NoteNumber":57,"Velocity":31,"Duration":562640,"SoundDuration":562640,"Delta":105080124},{"NoteNumber":61,"Velocity":39,"Duration":562640,"SoundDuration":562640,"Delta":105080124},{"NoteNumber":51,"Velocity":30,"Duration":3001877,"SoundDuration":3001877,"Delta":105642765},{"NoteNumber":56,"Velocity":30,"Duration":1463414,"SoundDuration":1463414,"Delta":105642765},{"NoteNumber":59,"Velocity":34,"Duration":1463414,"SoundDuration":1463414,"Delta":105642765},{"NoteNumber":39,"Velocity":25,"Duration":1538462,"SoundDuration":1538462,"Delta":107106180},{"NoteNumber":55,"Velocity":25,"Duration":1538462,"SoundDuration":1538462,"Delta":107106180},{"NoteNumber":58,"Velocity":28,"Duration":1538462,"SoundDuration":1538462,"Delta":107106180},{"NoteNumber":32,"Velocity":25,"Duration":2564105,"SoundDuration":2564105,"Delta":108644643},{"NoteNumber":44,"Velocity":25,"Duration":2564105,"SoundDuration":2564105,"Delta":108644643},{"NoteNumber":56,"Velocity":28,"Duration":2564105,"SoundDuration":2564105,"Delta":108644643},{"NoteNumber":65,"Velocity":45,"Duration":489795,"SoundDuration":489795,"Delta":111208748},{"NoteNumber":37,"Velocity":27,"Duration":489795,"SoundDuration":489795,"Delta":111208748},{"NoteNumber":44,"Velocity":27,"Duration":489795,"SoundDuration":489795,"Delta":111208748},{"NoteNumber":49,"Velocity":27,"Duration":489795,"SoundDuration":489795,"Delta":111208748},{"NoteNumber":53,"Velocity":27,"Duration":489795,"SoundDuration":489795,"Delta":111208748},{"NoteNumber":56,"Velocity":34,"Duration":489795,"SoundDuration":489795,"Delta":111208748},{"NoteNumber":65,"Velocity":45,"Duration":959999,"SoundDuration":959999,"Delta":111698544},{"NoteNumber":37,"Velocity":27,"Duration":1439999,"SoundDuration":1439999,"Delta":111698544},{"NoteNumber":44,"Velocity":27,"Duration":1439999,"SoundDuration":1439999,"Delta":111698544},{"NoteNumber":49,"Velocity":27,"Duration":1439999,"SoundDuration":1439999,"Delta":111698544},{"NoteNumber":53,"Velocity":27,"Duration":1439999,"SoundDuration":1439999,"Delta":111698544},{"NoteNumber":56,"Velocity":34,"Duration":1439999,"SoundDuration":1439999,"Delta":111698544},{"NoteNumber":66,"Velocity":47,"Duration":240000,"SoundDuration":240000,"Delta":112658544},{"NoteNumber":65,"Velocity":45,"Duration":239999,"SoundDuration":239999,"Delta":112898544},{"NoteNumber":63,"Velocity":46,"Duration":959999,"SoundDuration":959999,"Delta":113138544},{"NoteNumber":39,"Velocity":27,"Duration":1439999,"SoundDuration":1439999,"Delta":113138544},{"NoteNumber":44,"Velocity":30,"Duration":1439999,"SoundDuration":1439999,"Delta":113138544},{"NoteNumber":48,"Velocity":27,"Duration":1439999,"SoundDuration":1439999,"Delta":113138544},{"NoteNumber":56,"Velocity":34,"Duration":1439999,"SoundDuration":1439999,"Delta":113138544},{"NoteNumber":54,"Velocity":27,"Duration":1439999,"SoundDuration":1439999,"Delta":113138544},{"NoteNumber":65,"Velocity":44,"Duration":240000,"SoundDuration":240000,"Delta":114098544},{"NoteNumber":63,"Velocity":42,"Duration":239999,"SoundDuration":239999,"Delta":114338544},{"NoteNumber":41,"Velocity":27,"Duration":357142,"SoundDuration":357142,"Delta":114578544},{"NoteNumber":44,"Velocity":27,"Duration":357142,"SoundDuration":357142,"Delta":114578544},{"NoteNumber":49,"Velocity":30,"Duration":357142,"SoundDuration":357142,"Delta":114578544},{"NoteNumber":61,"Velocity":34,"Duration":357142,"SoundDuration":357142,"Delta":114578544},{"NoteNumber":53,"Velocity":30,"Duration":357142,"SoundDuration":357142,"Delta":114578544},{"NoteNumber":56,"Velocity":30,"Duration":357142,"SoundDuration":357142,"Delta":114578544},{"NoteNumber":42,"Velocity":28,"Duration":357142,"SoundDuration":357142,"Delta":115054734},{"NoteNumber":46,"Velocity":28,"Duration":357142,"SoundDuration":357142,"Delta":115054734},{"NoteNumber":49,"Velocity":28,"Duration":357142,"SoundDuration":357142,"Delta":115054734},{"NoteNumber":61,"Velocity":36,"Duration":357142,"SoundDuration":357142,"Delta":115054734},{"NoteNumber":58,"Velocity":28,"Duration":357142,"SoundDuration":357142,"Delta":115054734},{"NoteNumber":54,"Velocity":28,"Duration":357142,"SoundDuration":357142,"Delta":115054734},{"NoteNumber":43,"Velocity":30,"Duration":394737,"SoundDuration":394737,"Delta":115530924},{"NoteNumber":46,"Velocity":30,"Duration":394737,"SoundDuration":394737,"Delta":115530924},{"NoteNumber":49,"Velocity":30,"Duration":526315,"SoundDuration":526315,"Delta":115530924},{"NoteNumber":63,"Velocity":38,"Duration":394737,"SoundDuration":394737,"Delta":115530924},{"NoteNumber":61,"Velocity":34,"Duration":394737,"SoundDuration":394737,"Delta":115530924},{"NoteNumber":58,"Velocity":30,"Duration":394737,"SoundDuration":394737,"Delta":115530924},{"NoteNumber":51,"Velocity":30,"Duration":394737,"SoundDuration":394737,"Delta":115530924},{"NoteNumber":44,"Velocity":31,"Duration":1004183,"SoundDuration":1004183,"Delta":116057240},{"NoteNumber":48,"Velocity":31,"Duration":1004183,"SoundDuration":1004183,"Delta":116057240},{"NoteNumber":51,"Velocity":31,"Duration":1004183,"SoundDuration":1004183,"Delta":116057240},{"NoteNumber":56,"Velocity":35,"Duration":1004183,"SoundDuration":1004183,"Delta":116057240},{"NoteNumber":56,"Velocity":40,"Duration":471074,"SoundDuration":471074,"Delta":117061424},{"NoteNumber":61,"Velocity":40,"Duration":471074,"SoundDuration":471074,"Delta":117061424},{"NoteNumber":68,"Velocity":50,"Duration":471074,"SoundDuration":471074,"Delta":117061424},{"NoteNumber":41,"Velocity":29,"Duration":471074,"SoundDuration":471074,"Delta":117061424},{"NoteNumber":49,"Velocity":29,"Duration":471074,"SoundDuration":471074,"Delta":117061424},{"NoteNumber":53,"Velocity":33,"Duration":471074,"SoundDuration":471074,"Delta":117061424},{"NoteNumber":56,"Velocity":40,"Duration":923075,"SoundDuration":923075,"Delta":117557292},{"NoteNumber":61,"Velocity":40,"Duration":923075,"SoundDuration":923075,"Delta":117557292},{"NoteNumber":68,"Velocity":50,"Duration":923075,"SoundDuration":923075,"Delta":117557292},{"NoteNumber":41,"Velocity":29,"Duration":923075,"SoundDuration":923075,"Delta":117557292},{"NoteNumber":49,"Velocity":29,"Duration":923075,"SoundDuration":923075,"Delta":117557292},{"NoteNumber":53,"Velocity":33,"Duration":923075,"SoundDuration":923075,"Delta":117557292},{"NoteNumber":58,"Velocity":44,"Duration":230769,"SoundDuration":230769,"Delta":118480368},{"NoteNumber":70,"Velocity":55,"Duration":230769,"SoundDuration":230769,"Delta":118480368},{"NoteNumber":61,"Velocity":44,"Duration":461538,"SoundDuration":461538,"Delta":118480368},{"NoteNumber":42,"Velocity":32,"Duration":230769,"SoundDuration":230769,"Delta":118480368},{"NoteNumber":54,"Velocity":36,"Duration":230769,"SoundDuration":230769,"Delta":118480368},{"NoteNumber":49,"Velocity":32,"Duration":461538,"SoundDuration":461538,"Delta":118480368},{"NoteNumber":56,"Velocity":40,"Duration":230768,"SoundDuration":230768,"Delta":118711137},{"NoteNumber":68,"Velocity":51,"Duration":230768,"SoundDuration":230768,"Delta":118711137},{"NoteNumber":41,"Velocity":28,"Duration":230768,"SoundDuration":230768,"Delta":118711137},{"NoteNumber":53,"Velocity":32,"Duration":230768,"SoundDuration":230768,"Delta":118711137},{"NoteNumber":56,"Velocity":40,"Duration":472441,"SoundDuration":472441,"Delta":118941906},{"NoteNumber":61,"Velocity":40,"Duration":472441,"SoundDuration":472441,"Delta":118941906},{"NoteNumber":68,"Velocity":51,"Duration":472441,"SoundDuration":472441,"Delta":118941906},{"NoteNumber":41,"Velocity":28,"Duration":472441,"SoundDuration":472441,"Delta":118941906},{"NoteNumber":49,"Velocity":28,"Duration":472441,"SoundDuration":472441,"Delta":118941906},{"NoteNumber":53,"Velocity":32,"Duration":472441,"SoundDuration":472441,"Delta":118941906},{"NoteNumber":61,"Velocity":45,"Duration":461538,"SoundDuration":461538,"Delta":119414347},{"NoteNumber":73,"Velocity":56,"Duration":461538,"SoundDuration":461538,"Delta":119414347},{"NoteNumber":46,"Velocity":35,"Duration":461538,"SoundDuration":461538,"Delta":119414347},{"NoteNumber":58,"Velocity":39,"Duration":461538,"SoundDuration":461538,"Delta":119414347},{"NoteNumber":58,"Velocity":42,"Duration":461537,"SoundDuration":461537,"Delta":119875885},{"NoteNumber":70,"Velocity":53,"Duration":461537,"SoundDuration":461537,"Delta":119875885},{"NoteNumber":42,"Velocity":32,"Duration":461537,"SoundDuration":461537,"Delta":119875885},{"NoteNumber":54,"Velocity":36,"Duration":461537,"SoundDuration":461537,"Delta":119875885},{"NoteNumber":54,"Velocity":40,"Duration":491803,"SoundDuration":491803,"Delta":120337423},{"NoteNumber":66,"Velocity":50,"Duration":491803,"SoundDuration":491803,"Delta":120337423},{"NoteNumber":39,"Velocity":30,"Duration":491803,"SoundDuration":491803,"Delta":120337423},{"NoteNumber":51,"Velocity":34,"Duration":491803,"SoundDuration":491803,"Delta":120337423},{"NoteNumber":57,"Velocity":42,"Duration":480000,"SoundDuration":480000,"Delta":120829226},{"NoteNumber":63,"Velocity":42,"Duration":480000,"SoundDuration":480000,"Delta":120829226},{"NoteNumber":66,"Velocity":42,"Duration":480000,"SoundDuration":480000,"Delta":120829226},{"NoteNumber":69,"Velocity":53,"Duration":480000,"SoundDuration":480000,"Delta":120829226},{"NoteNumber":36,"Velocity":34,"Duration":480000,"SoundDuration":480000,"Delta":120829226},{"NoteNumber":48,"Velocity":38,"Duration":480000,"SoundDuration":480000,"Delta":120829226},{"NoteNumber":56,"Velocity":40,"Duration":500000,"SoundDuration":500000,"Delta":121309226},{"NoteNumber":60,"Velocity":40,"Duration":500000,"SoundDuration":500000,"Delta":121309226},{"NoteNumber":63,"Velocity":40,"Duration":500000,"SoundDuration":500000,"Delta":121309226},{"NoteNumber":66,"Velocity":40,"Duration":500000,"SoundDuration":500000,"Delta":121309226},{"NoteNumber":68,"Velocity":51,"Duration":500000,"SoundDuration":500000,"Delta":121309226},{"NoteNumber":32,"Velocity":32,"Duration":500000,"SoundDuration":500000,"Delta":121309226},{"NoteNumber":44,"Velocity":36,"Duration":500000,"SoundDuration":500000,"Delta":121309226},{"NoteNumber":56,"Velocity":38,"Duration":1033332,"SoundDuration":1033332,"Delta":121809226},{"NoteNumber":61,"Velocity":38,"Duration":1033332,"SoundDuration":1033332,"Delta":121809226},{"NoteNumber":65,"Velocity":48,"Duration":1033332,"SoundDuration":1033332,"Delta":121809226},{"NoteNumber":37,"Velocity":32,"Duration":1033332,"SoundDuration":1033332,"Delta":121809226},{"NoteNumber":49,"Velocity":36,"Duration":1033332,"SoundDuration":1033332,"Delta":121809226},{"NoteNumber":65,"Velocity":34,"Duration":465306,"SoundDuration":465306,"Delta":122842559},{"NoteNumber":68,"Velocity":34,"Duration":465306,"SoundDuration":465306,"Delta":122842559},{"NoteNumber":77,"Velocity":45,"Duration":465306,"SoundDuration":465306,"Delta":122842559},{"NoteNumber":49,"Velocity":27,"Duration":465306,"SoundDuration":465306,"Delta":122842559},{"NoteNumber":56,"Velocity":27,"Duration":465306,"SoundDuration":465306,"Delta":122842559},{"NoteNumber":61,"Velocity":30,"Duration":465306,"SoundDuration":465306,"Delta":122842559},{"NoteNumber":65,"Velocity":34,"Duration":1439999,"SoundDuration":1439999,"Delta":123332355},{"NoteNumber":68,"Velocity":34,"Duration":1439999,"SoundDuration":1439999,"Delta":123332355},{"NoteNumber":77,"Velocity":45,"Duration":959999,"SoundDuration":959999,"Delta":123332355},{"NoteNumber":49,"Velocity":27,"Duration":1439999,"SoundDuration":1439999,"Delta":123332355},{"NoteNumber":56,"Velocity":27,"Duration":1439999,"SoundDuration":1439999,"Delta":123332355},{"NoteNumber":61,"Velocity":30,"Duration":1439999,"SoundDuration":1439999,"Delta":123332355},{"NoteNumber":78,"Velocity":47,"Duration":240000,"SoundDuration":240000,"Delta":124292355},{"NoteNumber":77,"Velocity":45,"Duration":239999,"SoundDuration":239999,"Delta":124532355},{"NoteNumber":66,"Velocity":34,"Duration":1441927,"SoundDuration":1441927,"Delta":124772355},{"NoteNumber":68,"Velocity":34,"Duration":1441927,"SoundDuration":1441927,"Delta":124772355},{"NoteNumber":75,"Velocity":46,"Duration":959999,"SoundDuration":959999,"Delta":124772355},{"NoteNumber":51,"Velocity":27,"Duration":1441927,"SoundDuration":1441927,"Delta":124772355},{"NoteNumber":56,"Velocity":27,"Duration":1441927,"SoundDuration":1441927,"Delta":124772355},{"NoteNumber":60,"Velocity":30,"Duration":1441927,"SoundDuration":1441927,"Delta":124772355},{"NoteNumber":77,"Velocity":44,"Duration":240964,"SoundDuration":240964,"Delta":125732355},{"NoteNumber":75,"Velocity":42,"Duration":240963,"SoundDuration":240963,"Delta":125973319},{"NoteNumber":65,"Velocity":34,"Duration":357142,"SoundDuration":357142,"Delta":126214283},{"NoteNumber":73,"Velocity":43,"Duration":357142,"SoundDuration":357142,"Delta":126214283},{"NoteNumber":68,"Velocity":34,"Duration":357142,"SoundDuration":357142,"Delta":126214283},{"NoteNumber":53,"Velocity":27,"Duration":357142,"SoundDuration":357142,"Delta":126214283},{"NoteNumber":56,"Velocity":27,"Duration":357142,"SoundDuration":357142,"Delta":126214283},{"NoteNumber":61,"Velocity":30,"Duration":357142,"SoundDuration":357142,"Delta":126214283},{"NoteNumber":73,"Velocity":45,"Duration":352941,"SoundDuration":352941,"Delta":126690473},{"NoteNumber":70,"Velocity":36,"Duration":352941,"SoundDuration":352941,"Delta":126690473},{"NoteNumber":66,"Velocity":36,"Duration":352941,"SoundDuration":352941,"Delta":126690473},{"NoteNumber":54,"Velocity":28,"Duration":352941,"SoundDuration":352941,"Delta":126690473},{"NoteNumber":58,"Velocity":28,"Duration":352941,"SoundDuration":352941,"Delta":126690473},{"NoteNumber":61,"Velocity":32,"Duration":352941,"SoundDuration":352941,"Delta":126690473},{"NoteNumber":75,"Velocity":48,"Duration":394736,"SoundDuration":394736,"Delta":127161061},{"NoteNumber":73,"Velocity":38,"Duration":394736,"SoundDuration":394736,"Delta":127161061},{"NoteNumber":70,"Velocity":38,"Duration":394736,"SoundDuration":394736,"Delta":127161061},{"NoteNumber":55,"Velocity":30,"Duration":394736,"SoundDuration":394736,"Delta":127161061},{"NoteNumber":58,"Velocity":30,"Duration":394736,"SoundDuration":394736,"Delta":127161061},{"NoteNumber":61,"Velocity":30,"Duration":394736,"SoundDuration":394736,"Delta":127161061},{"NoteNumber":63,"Velocity":34,"Duration":394736,"SoundDuration":394736,"Delta":127161061},{"NoteNumber":68,"Velocity":44,"Duration":1004184,"SoundDuration":1004184,"Delta":127687377},{"NoteNumber":56,"Velocity":31,"Duration":1004184,"SoundDuration":1004184,"Delta":127687377},{"NoteNumber":60,"Velocity":31,"Duration":1004184,"SoundDuration":1004184,"Delta":127687377},{"NoteNumber":63,"Velocity":35,"Duration":1004184,"SoundDuration":1004184,"Delta":127687377},{"NoteNumber":68,"Velocity":47,"Duration":471074,"SoundDuration":471074,"Delta":128691561},{"NoteNumber":73,"Velocity":47,"Duration":471074,"SoundDuration":471074,"Delta":128691561},{"NoteNumber":80,"Velocity":59,"Duration":471074,"SoundDuration":471074,"Delta":128691561},{"NoteNumber":53,"Velocity":38,"Duration":471074,"SoundDuration":471074,"Delta":128691561},{"NoteNumber":61,"Velocity":38,"Duration":471074,"SoundDuration":471074,"Delta":128691561},{"NoteNumber":65,"Velocity":43,"Duration":471074,"SoundDuration":471074,"Delta":128691561},{"NoteNumber":68,"Velocity":47,"Duration":923076,"SoundDuration":923076,"Delta":129187429},{"NoteNumber":73,"Velocity":47,"Duration":923076,"SoundDuration":923076,"Delta":129187429},{"NoteNumber":80,"Velocity":59,"Duration":923076,"SoundDuration":923076,"Delta":129187429},{"NoteNumber":53,"Velocity":38,"Duration":923076,"SoundDuration":923076,"Delta":129187429},{"NoteNumber":61,"Velocity":38,"Duration":923076,"SoundDuration":923076,"Delta":129187429},{"NoteNumber":65,"Velocity":43,"Duration":923076,"SoundDuration":923076,"Delta":129187429},{"NoteNumber":70,"Velocity":53,"Duration":230768,"SoundDuration":230768,"Delta":130110505},{"NoteNumber":82,"Velocity":66,"Duration":230768,"SoundDuration":230768,"Delta":130110505},{"NoteNumber":73,"Velocity":53,"Duration":461537,"SoundDuration":461537,"Delta":130110505},{"NoteNumber":54,"Velocity":41,"Duration":230768,"SoundDuration":230768,"Delta":130110505},{"NoteNumber":66,"Velocity":46,"Duration":230768,"SoundDuration":230768,"Delta":130110505},{"NoteNumber":61,"Velocity":41,"Duration":461537,"SoundDuration":461537,"Delta":130110505},{"NoteNumber":68,"Velocity":49,"Duration":230769,"SoundDuration":230769,"Delta":130341274},{"NoteNumber":80,"Velocity":62,"Duration":230769,"SoundDuration":230769,"Delta":130341274},{"NoteNumber":53,"Velocity":36,"Duration":230769,"SoundDuration":230769,"Delta":130341274},{"NoteNumber":65,"Velocity":41,"Duration":230769,"SoundDuration":230769,"Delta":130341274},{"NoteNumber":68,"Velocity":49,"Duration":468750,"SoundDuration":468750,"Delta":130572043},{"NoteNumber":73,"Velocity":49,"Duration":468750,"SoundDuration":468750,"Delta":130572043},{"NoteNumber":80,"Velocity":62,"Duration":468750,"SoundDuration":468750,"Delta":130572043},{"NoteNumber":53,"Velocity":36,"Duration":468750,"SoundDuration":468750,"Delta":130572043},{"NoteNumber":61,"Velocity":36,"Duration":468750,"SoundDuration":468750,"Delta":130572043},{"NoteNumber":65,"Velocity":41,"Duration":468750,"SoundDuration":468750,"Delta":130572043},{"NoteNumber":73,"Velocity":60,"Duration":449437,"SoundDuration":449437,"Delta":131040793},{"NoteNumber":85,"Velocity":75,"Duration":449437,"SoundDuration":449437,"Delta":131040793},{"NoteNumber":58,"Velocity":46,"Duration":449437,"SoundDuration":449437,"Delta":131040793},{"NoteNumber":70,"Velocity":52,"Duration":449437,"SoundDuration":449437,"Delta":131040793},{"NoteNumber":70,"Velocity":55,"Duration":449438,"SoundDuration":449438,"Delta":131490231},{"NoteNumber":82,"Velocity":69,"Duration":449438,"SoundDuration":449438,"Delta":131490231},{"NoteNumber":54,"Velocity":41,"Duration":449438,"SoundDuration":449438,"Delta":131490231},{"NoteNumber":66,"Velocity":46,"Duration":449438,"SoundDuration":449438,"Delta":131490231},{"NoteNumber":66,"Velocity":51,"Duration":468750,"SoundDuration":468750,"Delta":131939669},{"NoteNumber":78,"Velocity":64,"Duration":468750,"SoundDuration":468750,"Delta":131939669},{"NoteNumber":51,"Velocity":38,"Duration":468750,"SoundDuration":468750,"Delta":131939669},{"NoteNumber":63,"Velocity":43,"Duration":468750,"SoundDuration":468750,"Delta":131939669},{"NoteNumber":69,"Velocity":58,"Duration":454544,"SoundDuration":454544,"Delta":132408419},{"NoteNumber":75,"Velocity":58,"Duration":454544,"SoundDuration":454544,"Delta":132408419},{"NoteNumber":78,"Velocity":65,"Duration":454544,"SoundDuration":454544,"Delta":132408419},{"NoteNumber":81,"Velocity":73,"Duration":454544,"SoundDuration":454544,"Delta":132408419},{"NoteNumber":48,"Velocity":45,"Duration":454544,"SoundDuration":454544,"Delta":132408419},{"NoteNumber":60,"Velocity":51,"Duration":454544,"SoundDuration":454544,"Delta":132408419},{"NoteNumber":68,"Velocity":55,"Duration":468750,"SoundDuration":468750,"Delta":132862964},{"NoteNumber":72,"Velocity":55,"Duration":468750,"SoundDuration":468750,"Delta":132862964},{"NoteNumber":75,"Velocity":55,"Duration":468750,"SoundDuration":468750,"Delta":132862964},{"NoteNumber":78,"Velocity":62,"Duration":468750,"SoundDuration":468750,"Delta":132862964},{"NoteNumber":80,"Velocity":69,"Duration":468750,"SoundDuration":468750,"Delta":132862964},{"NoteNumber":44,"Velocity":45,"Duration":468750,"SoundDuration":468750,"Delta":132862964},{"NoteNumber":56,"Velocity":50,"Duration":468750,"SoundDuration":468750,"Delta":132862964},{"NoteNumber":68,"Velocity":51,"Duration":960000,"SoundDuration":960000,"Delta":133331714},{"NoteNumber":73,"Velocity":51,"Duration":960000,"SoundDuration":960000,"Delta":133331714},{"NoteNumber":77,"Velocity":64,"Duration":960000,"SoundDuration":960000,"Delta":133331714},{"NoteNumber":49,"Velocity":40,"Duration":960000,"SoundDuration":960000,"Delta":133331714},{"NoteNumber":61,"Velocity":45,"Duration":960000,"SoundDuration":960000,"Delta":133331714},{"NoteNumber":63,"Velocity":64,"Duration":455999,"SoundDuration":455999,"Delta":134291714},{"NoteNumber":75,"Velocity":80,"Duration":455999,"SoundDuration":455999,"Delta":134291714},{"NoteNumber":68,"Velocity":64,"Duration":455999,"SoundDuration":455999,"Delta":134291714},{"NoteNumber":48,"Velocity":51,"Duration":455999,"SoundDuration":455999,"Delta":134291714},{"NoteNumber":56,"Velocity":51,"Duration":455999,"SoundDuration":455999,"Delta":134291714},{"NoteNumber":60,"Velocity":57,"Duration":455999,"SoundDuration":455999,"Delta":134291714},{"NoteNumber":63,"Velocity":64,"Duration":923076,"SoundDuration":923076,"Delta":134771714},{"NoteNumber":68,"Velocity":64,"Duration":923076,"SoundDuration":923076,"Delta":134771714},{"NoteNumber":75,"Velocity":80,"Duration":923076,"SoundDuration":923076,"Delta":134771714},{"NoteNumber":48,"Velocity":51,"Duration":923076,"SoundDuration":923076,"Delta":134771714},{"NoteNumber":56,"Velocity":51,"Duration":923076,"SoundDuration":923076,"Delta":134771714},{"NoteNumber":60,"Velocity":57,"Duration":923076,"SoundDuration":923076,"Delta":134771714},{"NoteNumber":61,"Velocity":64,"Duration":230769,"SoundDuration":230769,"Delta":135694790},{"NoteNumber":73,"Velocity":81,"Duration":230769,"SoundDuration":230769,"Delta":135694790},{"NoteNumber":68,"Velocity":64,"Duration":461537,"SoundDuration":461537,"Delta":135694790},{"NoteNumber":46,"Velocity":50,"Duration":230769,"SoundDuration":230769,"Delta":135694790},{"NoteNumber":58,"Velocity":56,"Duration":230769,"SoundDuration":230769,"Delta":135694790},{"NoteNumber":56,"Velocity":56,"Duration":461537,"SoundDuration":461537,"Delta":135694790},{"NoteNumber":63,"Velocity":64,"Duration":230768,"SoundDuration":230768,"Delta":135925559},{"NoteNumber":75,"Velocity":81,"Duration":230768,"SoundDuration":230768,"Delta":135925559},{"NoteNumber":48,"Velocity":50,"Duration":230768,"SoundDuration":230768,"Delta":135925559},{"NoteNumber":60,"Velocity":56,"Duration":230768,"SoundDuration":230768,"Delta":135925559},{"NoteNumber":60,"Velocity":65,"Duration":461538,"SoundDuration":461538,"Delta":136156328},{"NoteNumber":68,"Velocity":65,"Duration":461538,"SoundDuration":461538,"Delta":136156328},{"NoteNumber":72,"Velocity":82,"Duration":461538,"SoundDuration":461538,"Delta":136156328},{"NoteNumber":44,"Velocity":51,"Duration":461538,"SoundDuration":461538,"Delta":136156328},{"NoteNumber":56,"Velocity":57,"Duration":461538,"SoundDuration":461538,"Delta":136156328},{"NoteNumber":63,"Velocity":68,"Duration":461537,"SoundDuration":461537,"Delta":136617866},{"NoteNumber":68,"Velocity":68,"Duration":461537,"SoundDuration":461537,"Delta":136617866},{"NoteNumber":75,"Velocity":85,"Duration":461537,"SoundDuration":461537,"Delta":136617866},{"NoteNumber":48,"Velocity":54,"Duration":461537,"SoundDuration":461537,"Delta":136617866},{"NoteNumber":60,"Velocity":61,"Duration":461537,"SoundDuration":461537,"Delta":136617866},{"NoteNumber":56,"Velocity":54,"Duration":461537,"SoundDuration":461537,"Delta":136617866},{"NoteNumber":65,"Velocity":70,"Duration":461537,"SoundDuration":461537,"Delta":137079404},{"NoteNumber":68,"Velocity":70,"Duration":461537,"SoundDuration":461537,"Delta":137079404},{"NoteNumber":77,"Velocity":87,"Duration":461537,"SoundDuration":461537,"Delta":137079404},{"NoteNumber":61,"Velocity":61,"Duration":461537,"SoundDuration":461537,"Delta":137079404},{"NoteNumber":56,"Velocity":54,"Duration":461537,"SoundDuration":461537,"Delta":137079404},{"NoteNumber":49,"Velocity":54,"Duration":461537,"SoundDuration":461537,"Delta":137079404},{"NoteNumber":66,"Velocity":72,"Duration":461538,"SoundDuration":461538,"Delta":137540942},{"NoteNumber":68,"Velocity":72,"Duration":461538,"SoundDuration":461538,"Delta":137540942},{"NoteNumber":78,"Velocity":89,"Duration":461538,"SoundDuration":461538,"Delta":137540942},{"NoteNumber":63,"Velocity":63,"Duration":461538,"SoundDuration":461538,"Delta":137540942},{"NoteNumber":56,"Velocity":56,"Duration":461538,"SoundDuration":461538,"Delta":137540942},{"NoteNumber":51,"Velocity":56,"Duration":461538,"SoundDuration":461538,"Delta":137540942},{"NoteNumber":80,"Velocity":90,"Duration":478088,"SoundDuration":478088,"Delta":138002480},{"NoteNumber":68,"Velocity":72,"Duration":478088,"SoundDuration":478088,"Delta":138002480},{"NoteNumber":65,"Velocity":66,"Duration":478088,"SoundDuration":478088,"Delta":138002480},{"NoteNumber":56,"Velocity":59,"Duration":478088,"SoundDuration":478088,"Delta":138002480},{"NoteNumber":53,"Velocity":59,"Duration":478088,"SoundDuration":478088,"Delta":138002480},{"NoteNumber":82,"Velocity":95,"Duration":507871,"SoundDuration":507871,"Delta":138480568},{"NoteNumber":70,"Velocity":76,"Duration":507871,"SoundDuration":507871,"Delta":138480568},{"NoteNumber":68,"Velocity":76,"Duration":507871,"SoundDuration":507871,"Delta":138480568},{"NoteNumber":54,"Velocity":54,"Duration":507871,"SoundDuration":507871,"Delta":138480568},{"NoteNumber":56,"Velocity":54,"Duration":507871,"SoundDuration":507871,"Delta":138480568},{"NoteNumber":66,"Velocity":61,"Duration":507871,"SoundDuration":507871,"Delta":138480568},{"NoteNumber":63,"Velocity":53,"Duration":923076,"SoundDuration":923076,"Delta":138988440},{"NoteNumber":75,"Velocity":66,"Duration":923076,"SoundDuration":923076,"Delta":138988440},{"NoteNumber":68,"Velocity":53,"Duration":923076,"SoundDuration":923076,"Delta":138988440},{"NoteNumber":48,"Velocity":44,"Duration":1470322,"SoundDuration":1470322,"Delta":138988440},{"NoteNumber":60,"Velocity":49,"Duration":1470322,"SoundDuration":1470322,"Delta":138988440},{"NoteNumber":56,"Velocity":44,"Duration":1470322,"SoundDuration":1470322,"Delta":138988440},{"NoteNumber":64,"Velocity":40,"Duration":547246,"SoundDuration":547246,"Delta":139911516},{"NoteNumber":68,"Velocity":40,"Duration":547246,"SoundDuration":547246,"Delta":139911516},{"NoteNumber":76,"Velocity":50,"Duration":547246,"SoundDuration":547246,"Delta":139911516},{"NoteNumber":77,"Velocity":56,"Duration":923076,"SoundDuration":923076,"Delta":140458762},{"NoteNumber":65,"Velocity":45,"Duration":1403075,"SoundDuration":1403075,"Delta":140458762},{"NoteNumber":68,"Velocity":45,"Duration":1403075,"SoundDuration":1403075,"Delta":140458762},{"NoteNumber":49,"Velocity":35,"Duration":1403075,"SoundDuration":1403075,"Delta":140458762},{"NoteNumber":56,"Velocity":35,"Duration":1403075,"SoundDuration":1403075,"Delta":140458762},{"NoteNumber":61,"Velocity":39,"Duration":1403075,"SoundDuration":1403075,"Delta":140458762},{"NoteNumber":78,"Velocity":53,"Duration":240000,"SoundDuration":240000,"Delta":141381838},{"NoteNumber":77,"Velocity":53,"Duration":239999,"SoundDuration":239999,"Delta":141621838},{"NoteNumber":63,"Velocity":43,"Duration":923076,"SoundDuration":923076,"Delta":141861838},{"NoteNumber":75,"Velocity":54,"Duration":923076,"SoundDuration":923076,"Delta":141861838},{"NoteNumber":68,"Velocity":43,"Duration":1405004,"SoundDuration":1405004,"Delta":141861838},{"NoteNumber":56,"Velocity":35,"Duration":1405004,"SoundDuration":1405004,"Delta":141861838},{"NoteNumber":48,"Velocity":35,"Duration":923076,"SoundDuration":923076,"Delta":141861838},{"NoteNumber":60,"Velocity":39,"Duration":923076,"SoundDuration":923076,"Delta":141861838},{"NoteNumber":62,"Velocity":40,"Duration":481928,"SoundDuration":481928,"Delta":142784914},{"NoteNumber":74,"Velocity":51,"Duration":481928,"SoundDuration":481928,"Delta":142784914},{"NoteNumber":47,"Velocity":32,"Duration":481928,"SoundDuration":481928,"Delta":142784914},{"NoteNumber":59,"Velocity":36,"Duration":481928,"SoundDuration":481928,"Delta":142784914},{"NoteNumber":61,"Velocity":42,"Duration":923076,"SoundDuration":923076,"Delta":143266842},{"NoteNumber":67,"Velocity":47,"Duration":923076,"SoundDuration":923076,"Delta":143266842},{"NoteNumber":73,"Velocity":53,"Duration":923076,"SoundDuration":923076,"Delta":143266842},{"NoteNumber":46,"Velocity":33,"Duration":923076,"SoundDuration":923076,"Delta":143266842},{"NoteNumber":51,"Velocity":33,"Duration":923076,"SoundDuration":923076,"Delta":143266842},{"NoteNumber":58,"Velocity":37,"Duration":923076,"SoundDuration":923076,"Delta":143266842},{"NoteNumber":72,"Velocity":50,"Duration":233463,"SoundDuration":233463,"Delta":144189918},{"NoteNumber":61,"Velocity":40,"Duration":466926,"SoundDuration":466926,"Delta":144189918},{"NoteNumber":67,"Velocity":45,"Duration":466926,"SoundDuration":466926,"Delta":144189918},{"NoteNumber":51,"Velocity":36,"Duration":466926,"SoundDuration":466926,"Delta":144189918},{"NoteNumber":70,"Velocity":49,"Duration":233463,"SoundDuration":233463,"Delta":144423381},{"NoteNumber":66,"Velocity":42,"Duration":923076,"SoundDuration":923076,"Delta":144656844},{"NoteNumber":63,"Velocity":42,"Duration":923076,"SoundDuration":923076,"Delta":144656844},{"NoteNumber":75,"Velocity":53,"Duration":923076,"SoundDuration":923076,"Delta":144656844},{"NoteNumber":45,"Velocity":34,"Duration":923076,"SoundDuration":923076,"Delta":144656844},{"NoteNumber":51,"Velocity":34,"Duration":923076,"SoundDuration":923076,"Delta":144656844},{"NoteNumber":57,"Velocity":38,"Duration":923076,"SoundDuration":923076,"Delta":144656844},{"NoteNumber":73,"Velocity":48,"Duration":236220,"SoundDuration":236220,"Delta":145579920},{"NoteNumber":63,"Velocity":38,"Duration":472441,"SoundDuration":472441,"Delta":145579920},{"NoteNumber":66,"Velocity":38,"Duration":472441,"SoundDuration":472441,"Delta":145579920},{"NoteNumber":51,"Velocity":29,"Duration":472441,"SoundDuration":472441,"Delta":145579920},{"NoteNumber":57,"Velocity":33,"Duration":472441,"SoundDuration":472441,"Delta":145579920},{"NoteNumber":72,"Velocity":48,"Duration":236220,"SoundDuration":236220,"Delta":145816140},{"NoteNumber":61,"Velocity":41,"Duration":923076,"SoundDuration":923076,"Delta":146052361},{"NoteNumber":67,"Velocity":41,"Duration":923076,"SoundDuration":923076,"Delta":146052361},{"NoteNumber":73,"Velocity":52,"Duration":923076,"SoundDuration":923076,"Delta":146052361},{"NoteNumber":46,"Velocity":32,"Duration":923076,"SoundDuration":923076,"Delta":146052361},{"NoteNumber":51,"Velocity":32,"Duration":923076,"SoundDuration":923076,"Delta":146052361},{"NoteNumber":58,"Velocity":36,"Duration":923076,"SoundDuration":923076,"Delta":146052361},{"NoteNumber":72,"Velocity":47,"Duration":257510,"SoundDuration":257510,"Delta":146975437},{"NoteNumber":61,"Velocity":37,"Duration":515020,"SoundDuration":515020,"Delta":146975437},{"NoteNumber":67,"Velocity":42,"Duration":515020,"SoundDuration":515020,"Delta":146975437},{"NoteNumber":51,"Velocity":31,"Duration":515020,"SoundDuration":515020,"Delta":146975437},{"NoteNumber":70,"Velocity":47,"Duration":257510,"SoundDuration":257510,"Delta":147232947},{"NoteNumber":60,"Velocity":36,"Duration":1658343,"SoundDuration":1658343,"Delta":147490458},{"NoteNumber":68,"Velocity":45,"Duration":515021,"SoundDuration":515021,"Delta":147490458},{"NoteNumber":51,"Velocity":30,"Duration":1053138,"SoundDuration":1053138,"Delta":147490458},{"NoteNumber":44,"Velocity":27,"Duration":1658343,"SoundDuration":1658343,"Delta":147490458},{"NoteNumber":67,"Velocity":40,"Duration":538116,"SoundDuration":538116,"Delta":148005479},{"NoteNumber":66,"Velocity":36,"Duration":605205,"SoundDuration":605205,"Delta":148543596},{"NoteNumber":56,"Velocity":29,"Duration":605205,"SoundDuration":605205,"Delta":148543596},{"NoteNumber":65,"Velocity":38,"Duration":960000,"SoundDuration":960000,"Delta":149148801},{"NoteNumber":53,"Velocity":22,"Duration":1439999,"SoundDuration":1439999,"Delta":149148801},{"NoteNumber":37,"Velocity":22,"Duration":1439999,"SoundDuration":1439999,"Delta":149148801},{"NoteNumber":44,"Velocity":22,"Duration":1439999,"SoundDuration":1439999,"Delta":149148801},{"NoteNumber":49,"Velocity":22,"Duration":1439999,"SoundDuration":1439999,"Delta":149148801},{"NoteNumber":56,"Velocity":25,"Duration":1439999,"SoundDuration":1439999,"Delta":149148801},{"NoteNumber":66,"Velocity":39,"Duration":239999,"SoundDuration":239999,"Delta":150108801},{"NoteNumber":65,"Velocity":38,"Duration":240000,"SoundDuration":240000,"Delta":150348801},{"NoteNumber":63,"Velocity":39,"Duration":960000,"SoundDuration":960000,"Delta":150588801},{"NoteNumber":44,"Velocity":22,"Duration":1439999,"SoundDuration":1439999,"Delta":150588801},{"NoteNumber":39,"Velocity":22,"Duration":1439999,"SoundDuration":1439999,"Delta":150588801},{"NoteNumber":56,"Velocity":25,"Duration":1439999,"SoundDuration":1439999,"Delta":150588801},{"NoteNumber":48,"Velocity":22,"Duration":1439999,"SoundDuration":1439999,"Delta":150588801},{"NoteNumber":54,"Velocity":22,"Duration":1439999,"SoundDuration":1439999,"Delta":150588801},{"NoteNumber":65,"Velocity":37,"Duration":239999,"SoundDuration":239999,"Delta":151548801},{"NoteNumber":63,"Velocity":35,"Duration":240000,"SoundDuration":240000,"Delta":151788801},{"NoteNumber":56,"Velocity":22,"Duration":360000,"SoundDuration":360000,"Delta":152028801},{"NoteNumber":41,"Velocity":22,"Duration":360000,"SoundDuration":360000,"Delta":152028801},{"NoteNumber":44,"Velocity":22,"Duration":360000,"SoundDuration":360000,"Delta":152028801},{"NoteNumber":49,"Velocity":22,"Duration":360000,"SoundDuration":360000,"Delta":152028801},{"NoteNumber":61,"Velocity":28,"Duration":360000,"SoundDuration":360000,"Delta":152028801},{"NoteNumber":53,"Velocity":22,"Duration":360000,"SoundDuration":360000,"Delta":152028801},{"NoteNumber":61,"Velocity":30,"Duration":360000,"SoundDuration":360000,"Delta":152508801},{"NoteNumber":42,"Velocity":24,"Duration":360000,"SoundDuration":360000,"Delta":152508801},{"NoteNumber":46,"Velocity":24,"Duration":360000,"SoundDuration":360000,"Delta":152508801},{"NoteNumber":49,"Velocity":24,"Duration":360000,"SoundDuration":360000,"Delta":152508801},{"NoteNumber":54,"Velocity":24,"Duration":360000,"SoundDuration":360000,"Delta":152508801},{"NoteNumber":58,"Velocity":24,"Duration":360000,"SoundDuration":360000,"Delta":152508801},{"NoteNumber":49,"Velocity":25,"Duration":410434,"SoundDuration":410434,"Delta":152988801},{"NoteNumber":43,"Velocity":25,"Duration":410434,"SoundDuration":410434,"Delta":152988801},{"NoteNumber":46,"Velocity":25,"Duration":410434,"SoundDuration":410434,"Delta":152988801},{"NoteNumber":51,"Velocity":25,"Duration":410434,"SoundDuration":410434,"Delta":152988801},{"NoteNumber":63,"Velocity":32,"Duration":410434,"SoundDuration":410434,"Delta":152988801},{"NoteNumber":61,"Velocity":25,"Duration":410434,"SoundDuration":410434,"Delta":152988801},{"NoteNumber":58,"Velocity":25,"Duration":410434,"SoundDuration":410434,"Delta":152988801},{"NoteNumber":56,"Velocity":29,"Duration":1004184,"SoundDuration":1004184,"Delta":153536047},{"NoteNumber":44,"Velocity":23,"Duration":1004184,"SoundDuration":1004184,"Delta":153536047},{"NoteNumber":48,"Velocity":23,"Duration":1004184,"SoundDuration":1004184,"Delta":153536047},{"NoteNumber":51,"Velocity":23,"Duration":1004184,"SoundDuration":1004184,"Delta":153536047},{"NoteNumber":56,"Velocity":48,"Duration":471074,"SoundDuration":471074,"Delta":154540231},{"NoteNumber":61,"Velocity":48,"Duration":471074,"SoundDuration":471074,"Delta":154540231},{"NoteNumber":68,"Velocity":61,"Duration":471074,"SoundDuration":471074,"Delta":154540231},{"NoteNumber":41,"Velocity":38,"Duration":471074,"SoundDuration":471074,"Delta":154540231},{"NoteNumber":53,"Velocity":43,"Duration":471074,"SoundDuration":471074,"Delta":154540231},{"NoteNumber":49,"Velocity":38,"Duration":471074,"SoundDuration":471074,"Delta":154540231},{"NoteNumber":56,"Velocity":48,"Duration":923076,"SoundDuration":923076,"Delta":155036099},{"NoteNumber":61,"Velocity":48,"Duration":923076,"SoundDuration":923076,"Delta":155036099},{"NoteNumber":68,"Velocity":61,"Duration":923076,"SoundDuration":923076,"Delta":155036099},{"NoteNumber":49,"Velocity":38,"Duration":923076,"SoundDuration":923076,"Delta":155036099},{"NoteNumber":41,"Velocity":38,"Duration":923076,"SoundDuration":923076,"Delta":155036099},{"NoteNumber":53,"Velocity":43,"Duration":923076,"SoundDuration":923076,"Delta":155036099},{"NoteNumber":58,"Velocity":54,"Duration":230768,"SoundDuration":230768,"Delta":155959175},{"NoteNumber":70,"Velocity":68,"Duration":230768,"SoundDuration":230768,"Delta":155959175},{"NoteNumber":61,"Velocity":54,"Duration":461537,"SoundDuration":461537,"Delta":155959175},{"NoteNumber":49,"Velocity":38,"Duration":461537,"SoundDuration":461537,"Delta":155959175},{"NoteNumber":42,"Velocity":38,"Duration":230768,"SoundDuration":230768,"Delta":155959175},{"NoteNumber":54,"Velocity":43,"Duration":230768,"SoundDuration":230768,"Delta":155959175},{"NoteNumber":56,"Velocity":48,"Duration":230769,"SoundDuration":230769,"Delta":156189944},{"NoteNumber":68,"Velocity":60,"Duration":230769,"SoundDuration":230769,"Delta":156189944},{"NoteNumber":53,"Velocity":39,"Duration":230769,"SoundDuration":230769,"Delta":156189944},{"NoteNumber":41,"Velocity":39,"Duration":230769,"SoundDuration":230769,"Delta":156189944},{"NoteNumber":56,"Velocity":47,"Duration":487805,"SoundDuration":487805,"Delta":156420713},{"NoteNumber":61,"Velocity":47,"Duration":487805,"SoundDuration":487805,"Delta":156420713},{"NoteNumber":68,"Velocity":59,"Duration":487805,"SoundDuration":487805,"Delta":156420713},{"NoteNumber":49,"Velocity":35,"Duration":487805,"SoundDuration":487805,"Delta":156420713},{"NoteNumber":41,"Velocity":39,"Duration":487805,"SoundDuration":487805,"Delta":156420713},{"NoteNumber":53,"Velocity":39,"Duration":487805,"SoundDuration":487805,"Delta":156420713},{"NoteNumber":65,"Velocity":62,"Duration":474308,"SoundDuration":474308,"Delta":156908518},{"NoteNumber":68,"Velocity":62,"Duration":474308,"SoundDuration":474308,"Delta":156908518},{"NoteNumber":77,"Velocity":77,"Duration":474308,"SoundDuration":474308,"Delta":156908518},{"NoteNumber":61,"Velocity":54,"Duration":474308,"SoundDuration":474308,"Delta":156908518},{"NoteNumber":56,"Velocity":54,"Duration":474308,"SoundDuration":474308,"Delta":156908518},{"NoteNumber":49,"Velocity":48,"Duration":474308,"SoundDuration":474308,"Delta":156908518},{"NoteNumber":63,"Velocity":56,"Duration":474307,"SoundDuration":474307,"Delta":157382826},{"NoteNumber":68,"Velocity":56,"Duration":474307,"SoundDuration":474307,"Delta":157382826},{"NoteNumber":75,"Velocity":71,"Duration":474307,"SoundDuration":474307,"Delta":157382826},{"NoteNumber":56,"Velocity":45,"Duration":474307,"SoundDuration":474307,"Delta":157382826},{"NoteNumber":60,"Velocity":51,"Duration":474307,"SoundDuration":474307,"Delta":157382826},{"NoteNumber":48,"Velocity":45,"Duration":474307,"SoundDuration":474307,"Delta":157382826},{"NoteNumber":61,"Velocity":64,"Duration":948616,"SoundDuration":948616,"Delta":157857134},{"NoteNumber":65,"Velocity":64,"Duration":948616,"SoundDuration":948616,"Delta":157857134},{"NoteNumber":73,"Velocity":80,"Duration":948616,"SoundDuration":948616,"Delta":157857134},{"NoteNumber":53,"Velocity":51,"Duration":948616,"SoundDuration":948616,"Delta":157857134},{"NoteNumber":46,"Velocity":51,"Duration":948616,"SoundDuration":948616,"Delta":157857134},{"NoteNumber":58,"Velocity":57,"Duration":948616,"SoundDuration":948616,"Delta":157857134},{"NoteNumber":60,"Velocity":61,"Duration":491803,"SoundDuration":491803,"Delta":158805750},{"NoteNumber":63,"Velocity":61,"Duration":491803,"SoundDuration":491803,"Delta":158805750},{"NoteNumber":68,"Velocity":61,"Duration":491803,"SoundDuration":491803,"Delta":158805750},{"NoteNumber":72,"Velocity":76,"Duration":491803,"SoundDuration":491803,"Delta":158805750},{"NoteNumber":54,"Velocity":48,"Duration":491803,"SoundDuration":491803,"Delta":158805750},{"NoteNumber":44,"Velocity":48,"Duration":491803,"SoundDuration":491803,"Delta":158805750},{"NoteNumber":56,"Velocity":54,"Duration":491803,"SoundDuration":491803,"Delta":158805750},{"NoteNumber":61,"Velocity":64,"Duration":923076,"SoundDuration":923076,"Delta":159297553},{"NoteNumber":65,"Velocity":64,"Duration":923076,"SoundDuration":923076,"Delta":159297553},{"NoteNumber":68,"Velocity":64,"Duration":923076,"SoundDuration":923076,"Delta":159297553},{"NoteNumber":73,"Velocity":81,"Duration":923076,"SoundDuration":923076,"Delta":159297553},{"NoteNumber":49,"Velocity":51,"Duration":923076,"SoundDuration":923076,"Delta":159297553},{"NoteNumber":56,"Velocity":57,"Duration":923076,"SoundDuration":923076,"Delta":159297553},{"NoteNumber":53,"Velocity":51,"Duration":923076,"SoundDuration":923076,"Delta":159297553},{"NoteNumber":68,"Velocity":66,"Duration":457831,"SoundDuration":457831,"Delta":160220629},{"NoteNumber":80,"Velocity":83,"Duration":457831,"SoundDuration":457831,"Delta":160220629},{"NoteNumber":73,"Velocity":66,"Duration":457831,"SoundDuration":457831,"Delta":160220629},{"NoteNumber":61,"Velocity":53,"Duration":457831,"SoundDuration":457831,"Delta":160220629},{"NoteNumber":65,"Velocity":59,"Duration":457831,"SoundDuration":457831,"Delta":160220629},{"NoteNumber":53,"Velocity":53,"Duration":457831,"SoundDuration":457831,"Delta":160220629},{"NoteNumber":68,"Velocity":66,"Duration":902255,"SoundDuration":902255,"Delta":160702557},{"NoteNumber":73,"Velocity":66,"Duration":902255,"SoundDuration":902255,"Delta":160702557},{"NoteNumber":80,"Velocity":83,"Duration":902255,"SoundDuration":902255,"Delta":160702557},{"NoteNumber":65,"Velocity":57,"Duration":902255,"SoundDuration":902255,"Delta":160702557},{"NoteNumber":53,"Velocity":51,"Duration":902255,"SoundDuration":902255,"Delta":160702557},{"NoteNumber":61,"Velocity":51,"Duration":902255,"SoundDuration":902255,"Delta":160702557},{"NoteNumber":70,"Velocity":71,"Duration":225563,"SoundDuration":225563,"Delta":161604813},{"NoteNumber":82,"Velocity":88,"Duration":225563,"SoundDuration":225563,"Delta":161604813},{"NoteNumber":73,"Velocity":71,"Duration":451128,"SoundDuration":451128,"Delta":161604813},{"NoteNumber":54,"Velocity":54,"Duration":225563,"SoundDuration":225563,"Delta":161604813},{"NoteNumber":66,"Velocity":61,"Duration":225563,"SoundDuration":225563,"Delta":161604813},{"NoteNumber":61,"Velocity":54,"Duration":451128,"SoundDuration":451128,"Delta":161604813},{"NoteNumber":68,"Velocity":66,"Duration":225564,"SoundDuration":225564,"Delta":161830377},{"NoteNumber":80,"Velocity":83,"Duration":225564,"SoundDuration":225564,"Delta":161830377},{"NoteNumber":65,"Velocity":57,"Duration":225564,"SoundDuration":225564,"Delta":161830377},{"NoteNumber":53,"Velocity":51,"Duration":225564,"SoundDuration":225564,"Delta":161830377},{"NoteNumber":68,"Velocity":66,"Duration":483870,"SoundDuration":483870,"Delta":162055941},{"NoteNumber":73,"Velocity":66,"Duration":483870,"SoundDuration":483870,"Delta":162055941},{"NoteNumber":80,"Velocity":83,"Duration":483870,"SoundDuration":483870,"Delta":162055941},{"NoteNumber":65,"Velocity":59,"Duration":483870,"SoundDuration":483870,"Delta":162055941},{"NoteNumber":53,"Velocity":53,"Duration":483870,"SoundDuration":483870,"Delta":162055941},{"NoteNumber":61,"Velocity":53,"Duration":483870,"SoundDuration":483870,"Delta":162055941},{"NoteNumber":61,"Velocity":73,"Duration":461537,"SoundDuration":461537,"Delta":162539812},{"NoteNumber":68,"Velocity":73,"Duration":461537,"SoundDuration":461537,"Delta":162539812},{"NoteNumber":73,"Velocity":73,"Duration":461537,"SoundDuration":461537,"Delta":162539812},{"NoteNumber":89,"Velocity":92,"Duration":461537,"SoundDuration":461537,"Delta":162539812},{"NoteNumber":80,"Velocity":73,"Duration":461537,"SoundDuration":461537,"Delta":162539812},{"NoteNumber":77,"Velocity":73,"Duration":461537,"SoundDuration":461537,"Delta":162539812},{"NoteNumber":60,"Velocity":72,"Duration":478088,"SoundDuration":478088,"Delta":163001350},{"NoteNumber":68,"Velocity":72,"Duration":478088,"SoundDuration":478088,"Delta":163001350},{"NoteNumber":72,"Velocity":72,"Duration":478088,"SoundDuration":478088,"Delta":163001350},{"NoteNumber":75,"Velocity":72,"Duration":478088,"SoundDuration":478088,"Delta":163001350},{"NoteNumber":80,"Velocity":72,"Duration":478088,"SoundDuration":478088,"Delta":163001350},{"NoteNumber":87,"Velocity":89,"Duration":478088,"SoundDuration":478088,"Delta":163001350},{"NoteNumber":58,"Velocity":72,"Duration":956175,"SoundDuration":956175,"Delta":163479438},{"NoteNumber":65,"Velocity":72,"Duration":956175,"SoundDuration":956175,"Delta":163479438},{"NoteNumber":70,"Velocity":72,"Duration":956175,"SoundDuration":956175,"Delta":163479438},{"NoteNumber":73,"Velocity":72,"Duration":956175,"SoundDuration":956175,"Delta":163479438},{"NoteNumber":77,"Velocity":72,"Duration":956175,"SoundDuration":956175,"Delta":163479438},{"NoteNumber":85,"Velocity":90,"Duration":956175,"SoundDuration":956175,"Delta":163479438},{"NoteNumber":56,"Velocity":71,"Duration":510638,"SoundDuration":510638,"Delta":164435614},{"NoteNumber":66,"Velocity":71,"Duration":510638,"SoundDuration":510638,"Delta":164435614},{"NoteNumber":68,"Velocity":71,"Duration":510638,"SoundDuration":510638,"Delta":164435614},{"NoteNumber":72,"Velocity":71,"Duration":510638,"SoundDuration":510638,"Delta":164435614},{"NoteNumber":75,"Velocity":71,"Duration":510638,"SoundDuration":510638,"Delta":164435614},{"NoteNumber":80,"Velocity":71,"Duration":510638,"SoundDuration":510638,"Delta":164435614},{"NoteNumber":84,"Velocity":88,"Duration":510638,"SoundDuration":510638,"Delta":164435614},{"NoteNumber":61,"Velocity":66,"Duration":1021276,"SoundDuration":1021276,"Delta":164946252},{"NoteNumber":65,"Velocity":66,"Duration":1021276,"SoundDuration":1021276,"Delta":164946252},{"NoteNumber":68,"Velocity":72,"Duration":1021276,"SoundDuration":1021276,"Delta":164946252},{"NoteNumber":73,"Velocity":72,"Duration":1021276,"SoundDuration":1021276,"Delta":164946252},{"NoteNumber":77,"Velocity":72,"Duration":1021276,"SoundDuration":1021276,"Delta":164946252},{"NoteNumber":80,"Velocity":72,"Duration":1021276,"SoundDuration":1021276,"Delta":164946252},{"NoteNumber":85,"Velocity":91,"Duration":1021276,"SoundDuration":1021276,"Delta":164946252},{"NoteNumber":63,"Velocity":64,"Duration":455999,"SoundDuration":455999,"Delta":165967528},{"NoteNumber":75,"Velocity":80,"Duration":455999,"SoundDuration":455999,"Delta":165967528},{"NoteNumber":68,"Velocity":64,"Duration":455999,"SoundDuration":455999,"Delta":165967528},{"NoteNumber":60,"Velocity":57,"Duration":455999,"SoundDuration":455999,"Delta":165967528},{"NoteNumber":48,"Velocity":51,"Duration":455999,"SoundDuration":455999,"Delta":165967528},{"NoteNumber":56,"Velocity":51,"Duration":455999,"SoundDuration":455999,"Delta":165967528},{"NoteNumber":63,"Velocity":64,"Duration":923076,"SoundDuration":923076,"Delta":166447528},{"NoteNumber":68,"Velocity":64,"Duration":923076,"SoundDuration":923076,"Delta":166447528},{"NoteNumber":75,"Velocity":80,"Duration":923076,"SoundDuration":923076,"Delta":166447528},{"NoteNumber":48,"Velocity":51,"Duration":923076,"SoundDuration":923076,"Delta":166447528},{"NoteNumber":56,"Velocity":51,"Duration":923076,"SoundDuration":923076,"Delta":166447528},{"NoteNumber":60,"Velocity":57,"Duration":923076,"SoundDuration":923076,"Delta":166447528},{"NoteNumber":61,"Velocity":64,"Duration":230769,"SoundDuration":230769,"Delta":167370604},{"NoteNumber":73,"Velocity":81,"Duration":230769,"SoundDuration":230769,"Delta":167370604},{"NoteNumber":68,"Velocity":64,"Duration":461537,"SoundDuration":461537,"Delta":167370604},{"NoteNumber":46,"Velocity":50,"Duration":230769,"SoundDuration":230769,"Delta":167370604},{"NoteNumber":58,"Velocity":56,"Duration":230769,"SoundDuration":230769,"Delta":167370604},{"NoteNumber":56,"Velocity":50,"Duration":461537,"SoundDuration":461537,"Delta":167370604},{"NoteNumber":63,"Velocity":64,"Duration":230768,"SoundDuration":230768,"Delta":167601373},{"NoteNumber":75,"Velocity":81,"Duration":230768,"SoundDuration":230768,"Delta":167601373},{"NoteNumber":48,"Velocity":50,"Duration":230768,"SoundDuration":230768,"Delta":167601373},{"NoteNumber":60,"Velocity":56,"Duration":230768,"SoundDuration":230768,"Delta":167601373},{"NoteNumber":60,"Velocity":65,"Duration":461538,"SoundDuration":461538,"Delta":167832142},{"NoteNumber":68,"Velocity":65,"Duration":461538,"SoundDuration":461538,"Delta":167832142},{"NoteNumber":72,"Velocity":82,"Duration":461538,"SoundDuration":461538,"Delta":167832142},{"NoteNumber":44,"Velocity":51,"Duration":461538,"SoundDuration":461538,"Delta":167832142},{"NoteNumber":56,"Velocity":57,"Duration":461538,"SoundDuration":461538,"Delta":167832142},{"NoteNumber":63,"Velocity":68,"Duration":461537,"SoundDuration":461537,"Delta":168293680},{"NoteNumber":68,"Velocity":68,"Duration":461537,"SoundDuration":461537,"Delta":168293680},{"NoteNumber":75,"Velocity":85,"Duration":461537,"SoundDuration":461537,"Delta":168293680},{"NoteNumber":48,"Velocity":54,"Duration":461537,"SoundDuration":461537,"Delta":168293680},{"NoteNumber":60,"Velocity":61,"Duration":461537,"SoundDuration":461537,"Delta":168293680},{"NoteNumber":56,"Velocity":54,"Duration":461537,"SoundDuration":461537,"Delta":168293680},{"NoteNumber":65,"Velocity":70,"Duration":461537,"SoundDuration":461537,"Delta":168755218},{"NoteNumber":68,"Velocity":70,"Duration":461537,"SoundDuration":461537,"Delta":168755218},{"NoteNumber":77,"Velocity":87,"Duration":461537,"SoundDuration":461537,"Delta":168755218},{"NoteNumber":61,"Velocity":61,"Duration":461537,"SoundDuration":461537,"Delta":168755218},{"NoteNumber":56,"Velocity":54,"Duration":461537,"SoundDuration":461537,"Delta":168755218},{"NoteNumber":49,"Velocity":54,"Duration":461537,"SoundDuration":461537,"Delta":168755218},{"NoteNumber":66,"Velocity":72,"Duration":461538,"SoundDuration":461538,"Delta":169216756},{"NoteNumber":68,"Velocity":72,"Duration":461538,"SoundDuration":461538,"Delta":169216756},{"NoteNumber":78,"Velocity":89,"Duration":461538,"SoundDuration":461538,"Delta":169216756},{"NoteNumber":63,"Velocity":63,"Duration":461538,"SoundDuration":461538,"Delta":169216756},{"NoteNumber":56,"Velocity":56,"Duration":461538,"SoundDuration":461538,"Delta":169216756},{"NoteNumber":51,"Velocity":56,"Duration":461538,"SoundDuration":461538,"Delta":169216756},{"NoteNumber":80,"Velocity":90,"Duration":487805,"SoundDuration":487805,"Delta":169678294},{"NoteNumber":68,"Velocity":72,"Duration":487805,"SoundDuration":487805,"Delta":169678294},{"NoteNumber":65,"Velocity":66,"Duration":487805,"SoundDuration":487805,"Delta":169678294},{"NoteNumber":56,"Velocity":59,"Duration":487805,"SoundDuration":487805,"Delta":169678294},{"NoteNumber":53,"Velocity":59,"Duration":487805,"SoundDuration":487805,"Delta":169678294},{"NoteNumber":82,"Velocity":95,"Duration":581734,"SoundDuration":581734,"Delta":170166099},{"NoteNumber":70,"Velocity":76,"Duration":581734,"SoundDuration":581734,"Delta":170166099},{"NoteNumber":68,"Velocity":76,"Duration":581734,"SoundDuration":581734,"Delta":170166099},{"NoteNumber":54,"Velocity":54,"Duration":581734,"SoundDuration":581734,"Delta":170166099},{"NoteNumber":56,"Velocity":54,"Duration":581734,"SoundDuration":581734,"Delta":170166099},{"NoteNumber":66,"Velocity":61,"Duration":581734,"SoundDuration":581734,"Delta":170166099},{"NoteNumber":63,"Velocity":53,"Duration":923076,"SoundDuration":923076,"Delta":170747833},{"NoteNumber":75,"Velocity":66,"Duration":923076,"SoundDuration":923076,"Delta":170747833},{"NoteNumber":68,"Velocity":53,"Duration":923076,"SoundDuration":923076,"Delta":170747833},{"NoteNumber":48,"Velocity":44,"Duration":1448745,"SoundDuration":1448745,"Delta":170747833},{"NoteNumber":60,"Velocity":49,"Duration":1448745,"SoundDuration":1448745,"Delta":170747833},{"NoteNumber":56,"Velocity":44,"Duration":1448745,"SoundDuration":1448745,"Delta":170747833},{"NoteNumber":64,"Velocity":40,"Duration":525669,"SoundDuration":525669,"Delta":171670909},{"NoteNumber":68,"Velocity":40,"Duration":525669,"SoundDuration":525669,"Delta":171670909},{"NoteNumber":76,"Velocity":50,"Duration":525669,"SoundDuration":525669,"Delta":171670909},{"NoteNumber":77,"Velocity":56,"Duration":923076,"SoundDuration":923076,"Delta":172196579},{"NoteNumber":65,"Velocity":45,"Duration":1403075,"SoundDuration":1403075,"Delta":172196579},{"NoteNumber":68,"Velocity":45,"Duration":1403075,"SoundDuration":1403075,"Delta":172196579},{"NoteNumber":49,"Velocity":35,"Duration":1403075,"SoundDuration":1403075,"Delta":172196579},{"NoteNumber":56,"Velocity":35,"Duration":1403075,"SoundDuration":1403075,"Delta":172196579},{"NoteNumber":61,"Velocity":39,"Duration":1403075,"SoundDuration":1403075,"Delta":172196579},{"NoteNumber":78,"Velocity":53,"Duration":240000,"SoundDuration":240000,"Delta":173119655},{"NoteNumber":77,"Velocity":53,"Duration":239999,"SoundDuration":239999,"Delta":173359655},{"NoteNumber":63,"Velocity":43,"Duration":923076,"SoundDuration":923076,"Delta":173599655},{"NoteNumber":75,"Velocity":54,"Duration":923076,"SoundDuration":923076,"Delta":173599655},{"NoteNumber":68,"Velocity":43,"Duration":1405004,"SoundDuration":1405004,"Delta":173599655},{"NoteNumber":56,"Velocity":35,"Duration":1405004,"SoundDuration":1405004,"Delta":173599655},{"NoteNumber":48,"Velocity":35,"Duration":923076,"SoundDuration":923076,"Delta":173599655},{"NoteNumber":60,"Velocity":39,"Duration":923076,"SoundDuration":923076,"Delta":173599655},{"NoteNumber":62,"Velocity":40,"Duration":481928,"SoundDuration":481928,"Delta":174522731},{"NoteNumber":74,"Velocity":51,"Duration":481928,"SoundDuration":481928,"Delta":174522731},{"NoteNumber":47,"Velocity":32,"Duration":481928,"SoundDuration":481928,"Delta":174522731},{"NoteNumber":59,"Velocity":36,"Duration":481928,"SoundDuration":481928,"Delta":174522731},{"NoteNumber":61,"Velocity":42,"Duration":923076,"SoundDuration":923076,"Delta":175004659},{"NoteNumber":67,"Velocity":42,"Duration":923076,"SoundDuration":923076,"Delta":175004659},{"NoteNumber":73,"Velocity":53,"Duration":923076,"SoundDuration":923076,"Delta":175004659},{"NoteNumber":46,"Velocity":33,"Duration":923076,"SoundDuration":923076,"Delta":175004659},{"NoteNumber":51,"Velocity":33,"Duration":923076,"SoundDuration":923076,"Delta":175004659},{"NoteNumber":58,"Velocity":37,"Duration":923076,"SoundDuration":923076,"Delta":175004659},{"NoteNumber":72,"Velocity":50,"Duration":233463,"SoundDuration":233463,"Delta":175927735},{"NoteNumber":61,"Velocity":40,"Duration":466926,"SoundDuration":466926,"Delta":175927735},{"NoteNumber":67,"Velocity":45,"Duration":466926,"SoundDuration":466926,"Delta":175927735},{"NoteNumber":51,"Velocity":36,"Duration":466926,"SoundDuration":466926,"Delta":175927735},{"NoteNumber":70,"Velocity":49,"Duration":233463,"SoundDuration":233463,"Delta":176161198},{"NoteNumber":66,"Velocity":42,"Duration":923076,"SoundDuration":923076,"Delta":176394661},{"NoteNumber":63,"Velocity":42,"Duration":923076,"SoundDuration":923076,"Delta":176394661},{"NoteNumber":75,"Velocity":53,"Duration":923076,"SoundDuration":923076,"Delta":176394661},{"NoteNumber":45,"Velocity":34,"Duration":923076,"SoundDuration":923076,"Delta":176394661},{"NoteNumber":51,"Velocity":34,"Duration":923076,"SoundDuration":923076,"Delta":176394661},{"NoteNumber":57,"Velocity":38,"Duration":923076,"SoundDuration":923076,"Delta":176394661},{"NoteNumber":73,"Velocity":48,"Duration":236220,"SoundDuration":236220,"Delta":177317737},{"NoteNumber":63,"Velocity":38,"Duration":472441,"SoundDuration":472441,"Delta":177317737},{"NoteNumber":66,"Velocity":38,"Duration":472441,"SoundDuration":472441,"Delta":177317737},{"NoteNumber":51,"Velocity":29,"Duration":472441,"SoundDuration":472441,"Delta":177317737},{"NoteNumber":57,"Velocity":33,"Duration":472441,"SoundDuration":472441,"Delta":177317737},{"NoteNumber":72,"Velocity":48,"Duration":236220,"SoundDuration":236220,"Delta":177553957},{"NoteNumber":61,"Velocity":41,"Duration":923076,"SoundDuration":923076,"Delta":177790178},{"NoteNumber":67,"Velocity":52,"Duration":923076,"SoundDuration":923076,"Delta":177790178},{"NoteNumber":73,"Velocity":52,"Duration":923076,"SoundDuration":923076,"Delta":177790178},{"NoteNumber":46,"Velocity":32,"Duration":923076,"SoundDuration":923076,"Delta":177790178},{"NoteNumber":51,"Velocity":32,"Duration":923076,"SoundDuration":923076,"Delta":177790178},{"NoteNumber":58,"Velocity":36,"Duration":923076,"SoundDuration":923076,"Delta":177790178},{"NoteNumber":72,"Velocity":47,"Duration":257510,"SoundDuration":257510,"Delta":178713254},{"NoteNumber":61,"Velocity":37,"Duration":515020,"SoundDuration":515020,"Delta":178713254},{"NoteNumber":67,"Velocity":37,"Duration":515020,"SoundDuration":515020,"Delta":178713254},{"NoteNumber":51,"Velocity":31,"Duration":515020,"SoundDuration":515020,"Delta":178713254},{"NoteNumber":70,"Velocity":47,"Duration":257510,"SoundDuration":257510,"Delta":178970764},{"NoteNumber":60,"Velocity":36,"Duration":1733137,"SoundDuration":1733137,"Delta":179228275},{"NoteNumber":68,"Velocity":45,"Duration":515021,"SoundDuration":515021,"Delta":179228275},{"NoteNumber":51,"Velocity":30,"Duration":1078401,"SoundDuration":1078401,"Delta":179228275},{"NoteNumber":44,"Velocity":27,"Duration":1733137,"SoundDuration":1733137,"Delta":179228275},{"NoteNumber":67,"Velocity":40,"Duration":563379,"SoundDuration":563379,"Delta":179743296},{"NoteNumber":66,"Velocity":36,"Duration":654736,"SoundDuration":654736,"Delta":180306676},{"NoteNumber":56,"Velocity":29,"Duration":654736,"SoundDuration":654736,"Delta":180306676},{"NoteNumber":65,"Velocity":38,"Duration":960000,"SoundDuration":960000,"Delta":180961412},{"NoteNumber":37,"Velocity":22,"Duration":1439999,"SoundDuration":1439999,"Delta":180961412},{"NoteNumber":44,"Velocity":22,"Duration":1439999,"SoundDuration":1439999,"Delta":180961412},{"NoteNumber":49,"Velocity":22,"Duration":1439999,"SoundDuration":1439999,"Delta":180961412},{"NoteNumber":53,"Velocity":22,"Duration":1439999,"SoundDuration":1439999,"Delta":180961412},{"NoteNumber":56,"Velocity":25,"Duration":1439999,"SoundDuration":1439999,"Delta":180961412},{"NoteNumber":66,"Velocity":39,"Duration":239999,"SoundDuration":239999,"Delta":181921412},{"NoteNumber":65,"Velocity":38,"Duration":240000,"SoundDuration":240000,"Delta":182161412},{"NoteNumber":63,"Velocity":39,"Duration":960000,"SoundDuration":960000,"Delta":182401412},{"NoteNumber":39,"Velocity":22,"Duration":1439999,"SoundDuration":1439999,"Delta":182401412},{"NoteNumber":44,"Velocity":22,"Duration":1439999,"SoundDuration":1439999,"Delta":182401412},{"NoteNumber":48,"Velocity":22,"Duration":1439999,"SoundDuration":1439999,"Delta":182401412},{"NoteNumber":56,"Velocity":25,"Duration":1439999,"SoundDuration":1439999,"Delta":182401412},{"NoteNumber":54,"Velocity":22,"Duration":1439999,"SoundDuration":1439999,"Delta":182401412},{"NoteNumber":65,"Velocity":37,"Duration":239999,"SoundDuration":239999,"Delta":183361412},{"NoteNumber":63,"Velocity":35,"Duration":240000,"SoundDuration":240000,"Delta":183601412},{"NoteNumber":49,"Velocity":22,"Duration":360000,"SoundDuration":360000,"Delta":183841412},{"NoteNumber":41,"Velocity":22,"Duration":360000,"SoundDuration":360000,"Delta":183841412},{"NoteNumber":44,"Velocity":22,"Duration":360000,"SoundDuration":360000,"Delta":183841412},{"NoteNumber":61,"Velocity":28,"Duration":360000,"SoundDuration":360000,"Delta":183841412},{"NoteNumber":53,"Velocity":22,"Duration":360000,"SoundDuration":360000,"Delta":183841412},{"NoteNumber":56,"Velocity":22,"Duration":360000,"SoundDuration":360000,"Delta":183841412},{"NoteNumber":49,"Velocity":24,"Duration":360000,"SoundDuration":360000,"Delta":184321412},{"NoteNumber":42,"Velocity":24,"Duration":360000,"SoundDuration":360000,"Delta":184321412},{"NoteNumber":46,"Velocity":24,"Duration":360000,"SoundDuration":360000,"Delta":184321412},{"NoteNumber":61,"Velocity":30,"Duration":360000,"SoundDuration":360000,"Delta":184321412},{"NoteNumber":58,"Velocity":24,"Duration":360000,"SoundDuration":360000,"Delta":184321412},{"NoteNumber":54,"Velocity":24,"Duration":360000,"SoundDuration":360000,"Delta":184321412},{"NoteNumber":43,"Velocity":25,"Duration":394736,"SoundDuration":394736,"Delta":184801412},{"NoteNumber":46,"Velocity":25,"Duration":394736,"SoundDuration":394736,"Delta":184801412},{"NoteNumber":49,"Velocity":25,"Duration":394736,"SoundDuration":394736,"Delta":184801412},{"NoteNumber":63,"Velocity":32,"Duration":394736,"SoundDuration":394736,"Delta":184801412},{"NoteNumber":61,"Velocity":25,"Duration":394736,"SoundDuration":394736,"Delta":184801412},{"NoteNumber":58,"Velocity":25,"Duration":394736,"SoundDuration":394736,"Delta":184801412},{"NoteNumber":51,"Velocity":25,"Duration":394736,"SoundDuration":394736,"Delta":184801412},{"NoteNumber":44,"Velocity":23,"Duration":1004184,"SoundDuration":1004184,"Delta":185327728},{"NoteNumber":48,"Velocity":23,"Duration":1004184,"SoundDuration":1004184,"Delta":185327728},{"NoteNumber":51,"Velocity":23,"Duration":1004184,"SoundDuration":1004184,"Delta":185327728},{"NoteNumber":56,"Velocity":29,"Duration":1004184,"SoundDuration":1004184,"Delta":185327728},{"NoteNumber":56,"Velocity":48,"Duration":471074,"SoundDuration":471074,"Delta":186331912},{"NoteNumber":61,"Velocity":48,"Duration":471074,"SoundDuration":471074,"Delta":186331912},{"NoteNumber":68,"Velocity":61,"Duration":471074,"SoundDuration":471074,"Delta":186331912},{"NoteNumber":41,"Velocity":38,"Duration":471074,"SoundDuration":471074,"Delta":186331912},{"NoteNumber":49,"Velocity":38,"Duration":471074,"SoundDuration":471074,"Delta":186331912},{"NoteNumber":53,"Velocity":43,"Duration":471074,"SoundDuration":471074,"Delta":186331912},{"NoteNumber":56,"Velocity":48,"Duration":923076,"SoundDuration":923076,"Delta":186827780},{"NoteNumber":61,"Velocity":48,"Duration":923076,"SoundDuration":923076,"Delta":186827780},{"NoteNumber":68,"Velocity":61,"Duration":923076,"SoundDuration":923076,"Delta":186827780},{"NoteNumber":41,"Velocity":38,"Duration":923076,"SoundDuration":923076,"Delta":186827780},{"NoteNumber":49,"Velocity":38,"Duration":923076,"SoundDuration":923076,"Delta":186827780},{"NoteNumber":53,"Velocity":43,"Duration":923076,"SoundDuration":923076,"Delta":186827780},{"NoteNumber":58,"Velocity":54,"Duration":230768,"SoundDuration":230768,"Delta":187750856},{"NoteNumber":70,"Velocity":68,"Duration":230768,"SoundDuration":230768,"Delta":187750856},{"NoteNumber":61,"Velocity":54,"Duration":461537,"SoundDuration":461537,"Delta":187750856},{"NoteNumber":42,"Velocity":38,"Duration":230768,"SoundDuration":230768,"Delta":187750856},{"NoteNumber":54,"Velocity":43,"Duration":230768,"SoundDuration":230768,"Delta":187750856},{"NoteNumber":49,"Velocity":38,"Duration":461537,"SoundDuration":461537,"Delta":187750856},{"NoteNumber":56,"Velocity":48,"Duration":230769,"SoundDuration":230769,"Delta":187981625},{"NoteNumber":68,"Velocity":60,"Duration":230769,"SoundDuration":230769,"Delta":187981625},{"NoteNumber":41,"Velocity":35,"Duration":230769,"SoundDuration":230769,"Delta":187981625},{"NoteNumber":53,"Velocity":39,"Duration":230769,"SoundDuration":230769,"Delta":187981625},{"NoteNumber":56,"Velocity":47,"Duration":487805,"SoundDuration":487805,"Delta":188212394},{"NoteNumber":61,"Velocity":47,"Duration":487805,"SoundDuration":487805,"Delta":188212394},{"NoteNumber":68,"Velocity":59,"Duration":487805,"SoundDuration":487805,"Delta":188212394},{"NoteNumber":41,"Velocity":35,"Duration":487805,"SoundDuration":487805,"Delta":188212394},{"NoteNumber":49,"Velocity":35,"Duration":487805,"SoundDuration":487805,"Delta":188212394},{"NoteNumber":53,"Velocity":39,"Duration":487805,"SoundDuration":487805,"Delta":188212394},{"NoteNumber":65,"Velocity":62,"Duration":474308,"SoundDuration":474308,"Delta":188700199},{"NoteNumber":68,"Velocity":62,"Duration":474308,"SoundDuration":474308,"Delta":188700199},{"NoteNumber":77,"Velocity":77,"Duration":474308,"SoundDuration":474308,"Delta":188700199},{"NoteNumber":56,"Velocity":48,"Duration":474308,"SoundDuration":474308,"Delta":188700199},{"NoteNumber":49,"Velocity":48,"Duration":474308,"SoundDuration":474308,"Delta":188700199},{"NoteNumber":61,"Velocity":54,"Duration":474308,"SoundDuration":474308,"Delta":188700199},{"NoteNumber":63,"Velocity":56,"Duration":474307,"SoundDuration":474307,"Delta":189174507},{"NoteNumber":68,"Velocity":56,"Duration":474307,"SoundDuration":474307,"Delta":189174507},{"NoteNumber":75,"Velocity":71,"Duration":474307,"SoundDuration":474307,"Delta":189174507},{"NoteNumber":56,"Velocity":45,"Duration":474307,"SoundDuration":474307,"Delta":189174507},{"NoteNumber":48,"Velocity":45,"Duration":474307,"SoundDuration":474307,"Delta":189174507},{"NoteNumber":60,"Velocity":51,"Duration":474307,"SoundDuration":474307,"Delta":189174507},{"NoteNumber":61,"Velocity":64,"Duration":948616,"SoundDuration":948616,"Delta":189648815},{"NoteNumber":65,"Velocity":64,"Duration":948616,"SoundDuration":948616,"Delta":189648815},{"NoteNumber":73,"Velocity":80,"Duration":948616,"SoundDuration":948616,"Delta":189648815},{"NoteNumber":46,"Velocity":51,"Duration":948616,"SoundDuration":948616,"Delta":189648815},{"NoteNumber":53,"Velocity":51,"Duration":948616,"SoundDuration":948616,"Delta":189648815},{"NoteNumber":58,"Velocity":57,"Duration":948616,"SoundDuration":948616,"Delta":189648815},{"NoteNumber":60,"Velocity":61,"Duration":491803,"SoundDuration":491803,"Delta":190597431},{"NoteNumber":63,"Velocity":61,"Duration":491803,"SoundDuration":491803,"Delta":190597431},{"NoteNumber":68,"Velocity":61,"Duration":491803,"SoundDuration":491803,"Delta":190597431},{"NoteNumber":72,"Velocity":76,"Duration":491803,"SoundDuration":491803,"Delta":190597431},{"NoteNumber":44,"Velocity":48,"Duration":491803,"SoundDuration":491803,"Delta":190597431},{"NoteNumber":56,"Velocity":54,"Duration":491803,"SoundDuration":491803,"Delta":190597431},{"NoteNumber":54,"Velocity":48,"Duration":491803,"SoundDuration":491803,"Delta":190597431},{"NoteNumber":61,"Velocity":64,"Duration":923076,"SoundDuration":923076,"Delta":191089234},{"NoteNumber":65,"Velocity":64,"Duration":923076,"SoundDuration":923076,"Delta":191089234},{"NoteNumber":68,"Velocity":64,"Duration":923076,"SoundDuration":923076,"Delta":191089234},{"NoteNumber":73,"Velocity":81,"Duration":923076,"SoundDuration":923076,"Delta":191089234},{"NoteNumber":49,"Velocity":51,"Duration":923076,"SoundDuration":923076,"Delta":191089234},{"NoteNumber":53,"Velocity":51,"Duration":923076,"SoundDuration":923076,"Delta":191089234},{"NoteNumber":56,"Velocity":57,"Duration":923076,"SoundDuration":923076,"Delta":191089234},{"NoteNumber":68,"Velocity":66,"Duration":457831,"SoundDuration":457831,"Delta":192012310},{"NoteNumber":80,"Velocity":83,"Duration":457831,"SoundDuration":457831,"Delta":192012310},{"NoteNumber":73,"Velocity":66,"Duration":457831,"SoundDuration":457831,"Delta":192012310},{"NoteNumber":65,"Velocity":59,"Duration":457831,"SoundDuration":457831,"Delta":192012310},{"NoteNumber":61,"Velocity":53,"Duration":457831,"SoundDuration":457831,"Delta":192012310},{"NoteNumber":53,"Velocity":53,"Duration":457831,"SoundDuration":457831,"Delta":192012310},{"NoteNumber":68,"Velocity":66,"Duration":902255,"SoundDuration":902255,"Delta":192494238},{"NoteNumber":73,"Velocity":66,"Duration":902255,"SoundDuration":902255,"Delta":192494238},{"NoteNumber":80,"Velocity":83,"Duration":902255,"SoundDuration":902255,"Delta":192494238},{"NoteNumber":53,"Velocity":51,"Duration":902255,"SoundDuration":902255,"Delta":192494238},{"NoteNumber":61,"Velocity":51,"Duration":902255,"SoundDuration":902255,"Delta":192494238},{"NoteNumber":65,"Velocity":57,"Duration":902255,"SoundDuration":902255,"Delta":192494238},{"NoteNumber":70,"Velocity":71,"Duration":225563,"SoundDuration":225563,"Delta":193396494},{"NoteNumber":82,"Velocity":88,"Duration":225563,"SoundDuration":225563,"Delta":193396494},{"NoteNumber":73,"Velocity":71,"Duration":451128,"SoundDuration":451128,"Delta":193396494},{"NoteNumber":66,"Velocity":61,"Duration":225563,"SoundDuration":225563,"Delta":193396494},{"NoteNumber":54,"Velocity":54,"Duration":225563,"SoundDuration":225563,"Delta":193396494},{"NoteNumber":61,"Velocity":54,"Duration":451128,"SoundDuration":451128,"Delta":193396494},{"NoteNumber":68,"Velocity":66,"Duration":225564,"SoundDuration":225564,"Delta":193622058},{"NoteNumber":80,"Velocity":83,"Duration":225564,"SoundDuration":225564,"Delta":193622058},{"NoteNumber":65,"Velocity":57,"Duration":225564,"SoundDuration":225564,"Delta":193622058},{"NoteNumber":53,"Velocity":51,"Duration":225564,"SoundDuration":225564,"Delta":193622058},{"NoteNumber":68,"Velocity":66,"Duration":493827,"SoundDuration":493827,"Delta":193847622},{"NoteNumber":73,"Velocity":66,"Duration":493827,"SoundDuration":493827,"Delta":193847622},{"NoteNumber":80,"Velocity":83,"Duration":493827,"SoundDuration":493827,"Delta":193847622},{"NoteNumber":65,"Velocity":59,"Duration":493827,"SoundDuration":493827,"Delta":193847622},{"NoteNumber":61,"Velocity":53,"Duration":493827,"SoundDuration":493827,"Delta":193847622},{"NoteNumber":53,"Velocity":53,"Duration":493827,"SoundDuration":493827,"Delta":193847622},{"NoteNumber":61,"Velocity":73,"Duration":472441,"SoundDuration":472441,"Delta":194341449},{"NoteNumber":68,"Velocity":73,"Duration":472441,"SoundDuration":472441,"Delta":194341449},{"NoteNumber":73,"Velocity":73,"Duration":472441,"SoundDuration":472441,"Delta":194341449},{"NoteNumber":89,"Velocity":92,"Duration":472441,"SoundDuration":472441,"Delta":194341449},{"NoteNumber":80,"Velocity":73,"Duration":472441,"SoundDuration":472441,"Delta":194341449},{"NoteNumber":77,"Velocity":73,"Duration":472441,"SoundDuration":472441,"Delta":194341449},{"NoteNumber":60,"Velocity":72,"Duration":493827,"SoundDuration":493827,"Delta":194813890},{"NoteNumber":68,"Velocity":72,"Duration":493827,"SoundDuration":493827,"Delta":194813890},{"NoteNumber":72,"Velocity":72,"Duration":493827,"SoundDuration":493827,"Delta":194813890},{"NoteNumber":75,"Velocity":72,"Duration":493827,"SoundDuration":493827,"Delta":194813890},{"NoteNumber":80,"Velocity":72,"Duration":493827,"SoundDuration":493827,"Delta":194813890},{"NoteNumber":87,"Velocity":89,"Duration":493827,"SoundDuration":493827,"Delta":194813890},{"NoteNumber":58,"Velocity":72,"Duration":987653,"SoundDuration":987653,"Delta":195307717},{"NoteNumber":65,"Velocity":72,"Duration":987653,"SoundDuration":987653,"Delta":195307717},{"NoteNumber":70,"Velocity":72,"Duration":987653,"SoundDuration":987653,"Delta":195307717},{"NoteNumber":73,"Velocity":72,"Duration":987653,"SoundDuration":987653,"Delta":195307717},{"NoteNumber":77,"Velocity":72,"Duration":987653,"SoundDuration":987653,"Delta":195307717},{"NoteNumber":85,"Velocity":90,"Duration":987653,"SoundDuration":987653,"Delta":195307717},{"NoteNumber":56,"Velocity":71,"Duration":530972,"SoundDuration":530972,"Delta":196295371},{"NoteNumber":66,"Velocity":71,"Duration":530972,"SoundDuration":530972,"Delta":196295371},{"NoteNumber":68,"Velocity":71,"Duration":530972,"SoundDuration":530972,"Delta":196295371},{"NoteNumber":72,"Velocity":71,"Duration":530972,"SoundDuration":530972,"Delta":196295371},{"NoteNumber":75,"Velocity":71,"Duration":530972,"SoundDuration":530972,"Delta":196295371},{"NoteNumber":80,"Velocity":71,"Duration":530972,"SoundDuration":530972,"Delta":196295371},{"NoteNumber":84,"Velocity":88,"Duration":530972,"SoundDuration":530972,"Delta":196295371},{"NoteNumber":61,"Velocity":65,"Duration":857143,"SoundDuration":857143,"Delta":196826344},{"NoteNumber":65,"Velocity":65,"Duration":857143,"SoundDuration":857143,"Delta":196826344},{"NoteNumber":68,"Velocity":72,"Duration":857143,"SoundDuration":857143,"Delta":196826344},{"NoteNumber":73,"Velocity":72,"Duration":857143,"SoundDuration":857143,"Delta":196826344},{"NoteNumber":77,"Velocity":72,"Duration":857143,"SoundDuration":857143,"Delta":196826344},{"NoteNumber":80,"Velocity":72,"Duration":857143,"SoundDuration":857143,"Delta":196826344},{"NoteNumber":85,"Velocity":91,"Duration":857143,"SoundDuration":857143,"Delta":196826344},{"NoteNumber":63,"Velocity":38,"Duration":614501,"SoundDuration":614501,"Delta":197969202},{"NoteNumber":68,"Velocity":38,"Duration":614501,"SoundDuration":614501,"Delta":197969202},{"NoteNumber":72,"Velocity":48,"Duration":614501,"SoundDuration":614501,"Delta":197969202},{"NoteNumber":56,"Velocity":36,"Duration":614501,"SoundDuration":614501,"Delta":197969202},{"NoteNumber":65,"Velocity":43,"Duration":1860751,"SoundDuration":1860751,"Delta":198583704},{"NoteNumber":68,"Velocity":43,"Duration":1860751,"SoundDuration":1860751,"Delta":198583704},{"NoteNumber":72,"Velocity":54,"Duration":1395564,"SoundDuration":1395564,"Delta":198583704},{"NoteNumber":61,"Velocity":38,"Duration":1860751,"SoundDuration":1860751,"Delta":198583704},{"NoteNumber":70,"Velocity":51,"Duration":465187,"SoundDuration":465187,"Delta":199979268},{"NoteNumber":77,"Velocity":63,"Duration":587428,"SoundDuration":587428,"Delta":200909644},{"NoteNumber":70,"Velocity":50,"Duration":587428,"SoundDuration":587428,"Delta":200909644},{"NoteNumber":67,"Velocity":50,"Duration":587428,"SoundDuration":587428,"Delta":200909644},{"NoteNumber":65,"Velocity":45,"Duration":587428,"SoundDuration":587428,"Delta":200909644},{"NoteNumber":61,"Velocity":40,"Duration":587428,"SoundDuration":587428,"Delta":200909644},{"NoteNumber":68,"Velocity":52,"Duration":1860751,"SoundDuration":1860751,"Delta":201497073},{"NoteNumber":72,"Velocity":52,"Duration":1860751,"SoundDuration":1860751,"Delta":201497073},{"NoteNumber":77,"Velocity":65,"Duration":1395564,"SoundDuration":1395564,"Delta":201497073},{"NoteNumber":65,"Velocity":45,"Duration":1395564,"SoundDuration":1395564,"Delta":201497073},{"NoteNumber":60,"Velocity":40,"Duration":1860751,"SoundDuration":1860751,"Delta":201497073},{"NoteNumber":75,"Velocity":60,"Duration":465187,"SoundDuration":465187,"Delta":202892637},{"NoteNumber":63,"Velocity":43,"Duration":465187,"SoundDuration":465187,"Delta":202892637},{"NoteNumber":60,"Velocity":43,"Duration":602530,"SoundDuration":602530,"Delta":203590419},{"NoteNumber":63,"Velocity":48,"Duration":200843,"SoundDuration":200843,"Delta":203590419},{"NoteNumber":56,"Velocity":42,"Duration":200843,"SoundDuration":200843,"Delta":203590419},{"NoteNumber":68,"Velocity":56,"Duration":200843,"SoundDuration":200843,"Delta":203791262},{"NoteNumber":51,"Velocity":44,"Duration":200843,"SoundDuration":200843,"Delta":203791262},{"NoteNumber":72,"Velocity":58,"Duration":200843,"SoundDuration":200843,"Delta":203992106},{"NoteNumber":48,"Velocity":45,"Duration":200843,"SoundDuration":200843,"Delta":203992106},{"NoteNumber":61,"Velocity":48,"Duration":892193,"SoundDuration":892193,"Delta":204192949},{"NoteNumber":63,"Velocity":48,"Duration":892193,"SoundDuration":892193,"Delta":204192949},{"NoteNumber":67,"Velocity":48,"Duration":892193,"SoundDuration":892193,"Delta":204192949},{"NoteNumber":73,"Velocity":60,"Duration":892193,"SoundDuration":892193,"Delta":204192949},{"NoteNumber":46,"Velocity":37,"Duration":892193,"SoundDuration":892193,"Delta":204192949},{"NoteNumber":51,"Velocity":37,"Duration":892193,"SoundDuration":892193,"Delta":204192949},{"NoteNumber":55,"Velocity":42,"Duration":892193,"SoundDuration":892193,"Delta":204192949},{"NoteNumber":60,"Velocity":50,"Duration":521738,"SoundDuration":521738,"Delta":205085143},{"NoteNumber":63,"Velocity":50,"Duration":521738,"SoundDuration":521738,"Delta":205085143},{"NoteNumber":68,"Velocity":50,"Duration":521738,"SoundDuration":521738,"Delta":205085143},{"NoteNumber":72,"Velocity":63,"Duration":521738,"SoundDuration":521738,"Delta":205085143},{"NoteNumber":44,"Velocity":40,"Duration":521738,"SoundDuration":521738,"Delta":205085143},{"NoteNumber":51,"Velocity":40,"Duration":521738,"SoundDuration":521738,"Delta":205085143},{"NoteNumber":56,"Velocity":45,"Duration":521738,"SoundDuration":521738,"Delta":205085143},{"NoteNumber":58,"Velocity":51,"Duration":868935,"SoundDuration":868935,"Delta":205606882},{"NoteNumber":63,"Velocity":51,"Duration":868935,"SoundDuration":868935,"Delta":205606882},{"NoteNumber":70,"Velocity":64,"Duration":868935,"SoundDuration":868935,"Delta":205606882},{"NoteNumber":43,"Velocity":41,"Duration":868935,"SoundDuration":868935,"Delta":205606882},{"NoteNumber":51,"Velocity":41,"Duration":868935,"SoundDuration":868935,"Delta":205606882},{"NoteNumber":55,"Velocity":46,"Duration":868935,"SoundDuration":868935,"Delta":205606882},{"NoteNumber":62,"Velocity":52,"Duration":627352,"SoundDuration":627352,"Delta":206475818},{"NoteNumber":70,"Velocity":52,"Duration":627352,"SoundDuration":627352,"Delta":206475818},{"NoteNumber":68,"Velocity":52,"Duration":627352,"SoundDuration":627352,"Delta":206475818},{"NoteNumber":74,"Velocity":65,"Duration":627352,"SoundDuration":627352,"Delta":206475818},{"NoteNumber":41,"Velocity":43,"Duration":627352,"SoundDuration":627352,"Delta":206475818},{"NoteNumber":46,"Velocity":43,"Duration":627352,"SoundDuration":627352,"Delta":206475818},{"NoteNumber":53,"Velocity":48,"Duration":627352,"SoundDuration":627352,"Delta":206475818},{"NoteNumber":62,"Velocity":55,"Duration":1520655,"SoundDuration":1520655,"Delta":207103171},{"NoteNumber":70,"Velocity":55,"Duration":1985843,"SoundDuration":1985843,"Delta":207103171},{"NoteNumber":68,"Velocity":55,"Duration":1520655,"SoundDuration":1520655,"Delta":207103171},{"NoteNumber":74,"Velocity":69,"Duration":1520655,"SoundDuration":1520655,"Delta":207103171},{"NoteNumber":39,"Velocity":45,"Duration":1985843,"SoundDuration":1985843,"Delta":207103171},{"NoteNumber":46,"Velocity":45,"Duration":1985843,"SoundDuration":1985843,"Delta":207103171},{"NoteNumber":51,"Velocity":51,"Duration":1985843,"SoundDuration":1985843,"Delta":207103171},{"NoteNumber":67,"Velocity":40,"Duration":465188,"SoundDuration":465188,"Delta":208623826},{"NoteNumber":63,"Velocity":40,"Duration":465188,"SoundDuration":465188,"Delta":208623826},{"NoteNumber":75,"Velocity":51,"Duration":465188,"SoundDuration":465188,"Delta":208623826},{"NoteNumber":63,"Velocity":42,"Duration":590318,"SoundDuration":590318,"Delta":209554202},{"NoteNumber":68,"Velocity":42,"Duration":590318,"SoundDuration":590318,"Delta":209554202},{"NoteNumber":72,"Velocity":53,"Duration":590318,"SoundDuration":590318,"Delta":209554202},{"NoteNumber":56,"Velocity":37,"Duration":590318,"SoundDuration":590318,"Delta":209554202},{"NoteNumber":65,"Velocity":46,"Duration":1860751,"SoundDuration":1860751,"Delta":210144521},{"NoteNumber":68,"Velocity":46,"Duration":1860751,"SoundDuration":1860751,"Delta":210144521},{"NoteNumber":72,"Velocity":58,"Duration":1395564,"SoundDuration":1395564,"Delta":210144521},{"NoteNumber":61,"Velocity":41,"Duration":1860751,"SoundDuration":1860751,"Delta":210144521},{"NoteNumber":70,"Velocity":50,"Duration":465187,"SoundDuration":465187,"Delta":211540085},{"NoteNumber":77,"Velocity":79,"Duration":630650,"SoundDuration":630650,"Delta":212470461},{"NoteNumber":71,"Velocity":71,"Duration":630650,"SoundDuration":630650,"Delta":212470461},{"NoteNumber":67,"Velocity":63,"Duration":630650,"SoundDuration":630650,"Delta":212470461},{"NoteNumber":37,"Velocity":40,"Duration":630650,"SoundDuration":630650,"Delta":212470461},{"NoteNumber":49,"Velocity":45,"Duration":630650,"SoundDuration":630650,"Delta":212470461},{"NoteNumber":67,"Velocity":68,"Duration":1849802,"SoundDuration":1849802,"Delta":213101111},{"NoteNumber":72,"Velocity":68,"Duration":1849802,"SoundDuration":1849802,"Delta":213101111},{"NoteNumber":77,"Velocity":85,"Duration":1384613,"SoundDuration":1384613,"Delta":213101111},{"NoteNumber":36,"Velocity":44,"Duration":1849802,"SoundDuration":1849802,"Delta":213101111},{"NoteNumber":48,"Velocity":49,"Duration":1849802,"SoundDuration":1849802,"Delta":213101111},{"NoteNumber":76,"Velocity":51,"Duration":465188,"SoundDuration":465188,"Delta":214485725},{"NoteNumber":67,"Velocity":41,"Duration":570668,"SoundDuration":570668,"Delta":215416101},{"NoteNumber":72,"Velocity":41,"Duration":570668,"SoundDuration":570668,"Delta":215416101},{"NoteNumber":76,"Velocity":52,"Duration":570668,"SoundDuration":570668,"Delta":215416101},{"NoteNumber":64,"Velocity":36,"Duration":570668,"SoundDuration":570668,"Delta":215416101},{"NoteNumber":60,"Velocity":32,"Duration":570668,"SoundDuration":570668,"Delta":215416101},{"NoteNumber":67,"Velocity":45,"Duration":946222,"SoundDuration":946222,"Delta":215986769},{"NoteNumber":73,"Velocity":57,"Duration":946222,"SoundDuration":946222,"Delta":215986769},{"NoteNumber":75,"Velocity":57,"Duration":946222,"SoundDuration":946222,"Delta":215986769},{"NoteNumber":63,"Velocity":40,"Duration":946222,"SoundDuration":946222,"Delta":215986769},{"NoteNumber":58,"Velocity":36,"Duration":946222,"SoundDuration":946222,"Delta":215986769},{"NoteNumber":68,"Velocity":47,"Duration":537441,"SoundDuration":537441,"Delta":216932991},{"NoteNumber":72,"Velocity":47,"Duration":537441,"SoundDuration":537441,"Delta":216932991},{"NoteNumber":75,"Velocity":59,"Duration":537441,"SoundDuration":537441,"Delta":216932991},{"NoteNumber":63,"Velocity":42,"Duration":537441,"SoundDuration":537441,"Delta":216932991},{"NoteNumber":56,"Velocity":37,"Duration":537441,"SoundDuration":537441,"Delta":216932991},{"NoteNumber":65,"Velocity":51,"Duration":930375,"SoundDuration":930375,"Delta":217470433},{"NoteNumber":70,"Velocity":51,"Duration":930375,"SoundDuration":930375,"Delta":217470433},{"NoteNumber":73,"Velocity":64,"Duration":930375,"SoundDuration":930375,"Delta":217470433},{"NoteNumber":49,"Velocity":51,"Duration":930375,"SoundDuration":930375,"Delta":217470433},{"NoteNumber":72,"Velocity":53,"Duration":254215,"SoundDuration":254215,"Delta":218400809},{"NoteNumber":61,"Velocity":47,"Duration":622572,"SoundDuration":622572,"Delta":218400809},{"NoteNumber":67,"Velocity":47,"Duration":622572,"SoundDuration":622572,"Delta":218400809},{"NoteNumber":51,"Velocity":43,"Duration":622572,"SoundDuration":622572,"Delta":218400809},{"NoteNumber":70,"Velocity":51,"Duration":368356,"SoundDuration":368356,"Delta":218655025},{"NoteNumber":61,"Velocity":39,"Duration":1475409,"SoundDuration":1475409,"Delta":219023381},{"NoteNumber":67,"Velocity":39,"Duration":1475409,"SoundDuration":1475409,"Delta":219023381},{"NoteNumber":70,"Velocity":44,"Duration":1475409,"SoundDuration":1475409,"Delta":219023381},{"NoteNumber":44,"Velocity":31,"Duration":1967211,"SoundDuration":1967211,"Delta":219023381},{"NoteNumber":51,"Velocity":35,"Duration":1967211,"SoundDuration":1967211,"Delta":219023381},{"NoteNumber":60,"Velocity":28,"Duration":491802,"SoundDuration":491802,"Delta":220498790},{"NoteNumber":68,"Velocity":33,"Duration":491802,"SoundDuration":491802,"Delta":220498790},{"NoteNumber":62,"Velocity":32,"Duration":570956,"SoundDuration":570956,"Delta":221552625},{"NoteNumber":68,"Velocity":32,"Duration":570956,"SoundDuration":570956,"Delta":221552625},{"NoteNumber":71,"Velocity":40,"Duration":570956,"SoundDuration":570956,"Delta":221552625},{"NoteNumber":52,"Velocity":25,"Duration":570956,"SoundDuration":570956,"Delta":221552625},{"NoteNumber":56,"Velocity":25,"Duration":570956,"SoundDuration":570956,"Delta":221552625},{"NoteNumber":59,"Velocity":28,"Duration":570956,"SoundDuration":570956,"Delta":221552625},{"NoteNumber":62,"Velocity":32,"Duration":1388460,"SoundDuration":1388460,"Delta":222154307},{"NoteNumber":68,"Velocity":32,"Duration":1851280,"SoundDuration":1851280,"Delta":222154307},{"NoteNumber":71,"Velocity":40,"Duration":1851280,"SoundDuration":1851280,"Delta":222154307},{"NoteNumber":52,"Velocity":25,"Duration":1388460,"SoundDuration":1388460,"Delta":222154307},{"NoteNumber":56,"Velocity":25,"Duration":1851280,"SoundDuration":1851280,"Delta":222154307},{"NoteNumber":59,"Velocity":28,"Duration":1851280,"SoundDuration":1851280,"Delta":222154307},{"NoteNumber":63,"Velocity":28,"Duration":462819,"SoundDuration":462819,"Delta":223542767},{"NoteNumber":51,"Velocity":22,"Duration":462819,"SoundDuration":462819,"Delta":223542767},{"NoteNumber":64,"Velocity":36,"Duration":563575,"SoundDuration":563575,"Delta":224468407},{"NoteNumber":68,"Velocity":36,"Duration":563575,"SoundDuration":563575,"Delta":224468407},{"NoteNumber":71,"Velocity":45,"Duration":563575,"SoundDuration":563575,"Delta":224468407},{"NoteNumber":49,"Velocity":27,"Duration":563575,"SoundDuration":563575,"Delta":224468407},{"NoteNumber":56,"Velocity":27,"Duration":563575,"SoundDuration":563575,"Delta":224468407},{"NoteNumber":59,"Velocity":30,"Duration":563575,"SoundDuration":563575,"Delta":224468407},{"NoteNumber":64,"Velocity":39,"Duration":1388460,"SoundDuration":1388460,"Delta":225061644},{"NoteNumber":68,"Velocity":39,"Duration":1851280,"SoundDuration":1851280,"Delta":225061644},{"NoteNumber":71,"Velocity":49,"Duration":1851280,"SoundDuration":1851280,"Delta":225061644},{"NoteNumber":49,"Velocity":28,"Duration":1388460,"SoundDuration":1388460,"Delta":225061644},{"NoteNumber":56,"Velocity":28,"Duration":1851280,"SoundDuration":1851280,"Delta":225061644},{"NoteNumber":59,"Velocity":32,"Duration":1851280,"SoundDuration":1851280,"Delta":225061644},{"NoteNumber":63,"Velocity":29,"Duration":462819,"SoundDuration":462819,"Delta":226450104},{"NoteNumber":47,"Velocity":21,"Duration":462819,"SoundDuration":462819,"Delta":226450104},{"NoteNumber":63,"Velocity":41,"Duration":515020,"SoundDuration":515020,"Delta":227375744},{"NoteNumber":68,"Velocity":46,"Duration":515020,"SoundDuration":515020,"Delta":227375744},{"NoteNumber":71,"Velocity":52,"Duration":515020,"SoundDuration":515020,"Delta":227375744},{"NoteNumber":47,"Velocity":29,"Duration":515020,"SoundDuration":515020,"Delta":227375744},{"NoteNumber":56,"Velocity":29,"Duration":515020,"SoundDuration":515020,"Delta":227375744},{"NoteNumber":59,"Velocity":33,"Duration":515020,"SoundDuration":515020,"Delta":227375744},{"NoteNumber":70,"Velocity":58,"Duration":515020,"SoundDuration":515020,"Delta":227890765},{"NoteNumber":64,"Velocity":46,"Duration":2391080,"SoundDuration":2391080,"Delta":227890765},{"NoteNumber":68,"Velocity":52,"Duration":2391080,"SoundDuration":2391080,"Delta":227890765},{"NoteNumber":49,"Velocity":35,"Duration":1440660,"SoundDuration":1440660,"Delta":227890765},{"NoteNumber":58,"Velocity":39,"Duration":2391080,"SoundDuration":2391080,"Delta":227890765},{"NoteNumber":56,"Velocity":35,"Duration":2391080,"SoundDuration":2391080,"Delta":227890765},{"NoteNumber":76,"Velocity":65,"Duration":694230,"SoundDuration":694230,"Delta":228405786},{"NoteNumber":70,"Velocity":51,"Duration":231409,"SoundDuration":231409,"Delta":229100016},{"NoteNumber":75,"Velocity":57,"Duration":237605,"SoundDuration":237605,"Delta":229331426},{"NoteNumber":46,"Velocity":40,"Duration":475210,"SoundDuration":475210,"Delta":229331426},{"NoteNumber":73,"Velocity":55,"Duration":237605,"SoundDuration":237605,"Delta":229569031},{"NoteNumber":71,"Velocity":55,"Duration":475210,"SoundDuration":475210,"Delta":229806636},{"NoteNumber":47,"Velocity":37,"Duration":475210,"SoundDuration":475210,"Delta":229806636},{"NoteNumber":64,"Velocity":41,"Duration":565291,"SoundDuration":565291,"Delta":230281846},{"NoteNumber":61,"Velocity":41,"Duration":565291,"SoundDuration":565291,"Delta":230281846},{"NoteNumber":70,"Velocity":52,"Duration":565291,"SoundDuration":565291,"Delta":230281846},{"NoteNumber":49,"Velocity":35,"Duration":565291,"SoundDuration":565291,"Delta":230281846},{"NoteNumber":63,"Velocity":39,"Duration":1851280,"SoundDuration":1851280,"Delta":230847137},{"NoteNumber":59,"Velocity":39,"Duration":1388460,"SoundDuration":1388460,"Delta":230847137},{"NoteNumber":68,"Velocity":49,"Duration":1388460,"SoundDuration":1388460,"Delta":230847137},{"NoteNumber":51,"Velocity":35,"Duration":1851280,"SoundDuration":1851280,"Delta":230847137},{"NoteNumber":58,"Velocity":27,"Duration":462819,"SoundDuration":462819,"Delta":232235597},{"NoteNumber":67,"Velocity":35,"Duration":462819,"SoundDuration":462819,"Delta":232235597},{"NoteNumber":62,"Velocity":28,"Duration":552647,"SoundDuration":552647,"Delta":233161237},{"NoteNumber":68,"Velocity":28,"Duration":552647,"SoundDuration":552647,"Delta":233161237},{"NoteNumber":71,"Velocity":36,"Duration":552647,"SoundDuration":552647,"Delta":233161237},{"NoteNumber":52,"Velocity":22,"Duration":552647,"SoundDuration":552647,"Delta":233161237},{"NoteNumber":56,"Velocity":22,"Duration":552647,"SoundDuration":552647,"Delta":233161237},{"NoteNumber":59,"Velocity":25,"Duration":552647,"SoundDuration":552647,"Delta":233161237},{"NoteNumber":62,"Velocity":28,"Duration":1388460,"SoundDuration":1388460,"Delta":233742971},{"NoteNumber":68,"Velocity":28,"Duration":1851280,"SoundDuration":1851280,"Delta":233742971},{"NoteNumber":71,"Velocity":36,"Duration":1851280,"SoundDuration":1851280,"Delta":233742971},{"NoteNumber":52,"Velocity":22,"Duration":1388460,"SoundDuration":1388460,"Delta":233742971},{"NoteNumber":56,"Velocity":22,"Duration":1851280,"SoundDuration":1851280,"Delta":233742971},{"NoteNumber":59,"Velocity":25,"Duration":1851280,"SoundDuration":1851280,"Delta":233742971},{"NoteNumber":63,"Velocity":25,"Duration":462819,"SoundDuration":462819,"Delta":235131431},{"NoteNumber":51,"Velocity":19,"Duration":462819,"SoundDuration":462819,"Delta":235131431},{"NoteNumber":64,"Velocity":38,"Duration":552647,"SoundDuration":552647,"Delta":236057071},{"NoteNumber":68,"Velocity":38,"Duration":552647,"SoundDuration":552647,"Delta":236057071},{"NoteNumber":71,"Velocity":48,"Duration":552647,"SoundDuration":552647,"Delta":236057071},{"NoteNumber":49,"Velocity":28,"Duration":552647,"SoundDuration":552647,"Delta":236057071},{"NoteNumber":56,"Velocity":28,"Duration":552647,"SoundDuration":552647,"Delta":236057071},{"NoteNumber":59,"Velocity":32,"Duration":552647,"SoundDuration":552647,"Delta":236057071},{"NoteNumber":64,"Velocity":35,"Duration":1388460,"SoundDuration":1388460,"Delta":236638805},{"NoteNumber":68,"Velocity":35,"Duration":1851280,"SoundDuration":1851280,"Delta":236638805},{"NoteNumber":71,"Velocity":44,"Duration":1851280,"SoundDuration":1851280,"Delta":236638805},{"NoteNumber":49,"Velocity":27,"Duration":1388460,"SoundDuration":1388460,"Delta":236638805},{"NoteNumber":56,"Velocity":27,"Duration":1851280,"SoundDuration":1851280,"Delta":236638805},{"NoteNumber":59,"Velocity":31,"Duration":1851280,"SoundDuration":1851280,"Delta":236638805},{"NoteNumber":63,"Velocity":30,"Duration":462819,"SoundDuration":462819,"Delta":238027265},{"NoteNumber":47,"Velocity":18,"Duration":462819,"SoundDuration":462819,"Delta":238027265},{"NoteNumber":64,"Velocity":40,"Duration":521738,"SoundDuration":521738,"Delta":238952905},{"NoteNumber":68,"Velocity":40,"Duration":521738,"SoundDuration":521738,"Delta":238952905},{"NoteNumber":71,"Velocity":45,"Duration":521738,"SoundDuration":521738,"Delta":238952905},{"NoteNumber":52,"Velocity":34,"Duration":521738,"SoundDuration":521738,"Delta":238952905},{"NoteNumber":47,"Velocity":34,"Duration":521738,"SoundDuration":521738,"Delta":238952905},{"NoteNumber":56,"Velocity":34,"Duration":521738,"SoundDuration":521738,"Delta":238952905},{"NoteNumber":59,"Velocity":38,"Duration":521738,"SoundDuration":521738,"Delta":238952905},{"NoteNumber":71,"Velocity":50,"Duration":533332,"SoundDuration":533332,"Delta":239474644},{"NoteNumber":64,"Velocity":45,"Duration":2991796,"SoundDuration":2991796,"Delta":239474644},{"NoteNumber":68,"Velocity":45,"Duration":1546539,"SoundDuration":1546539,"Delta":239474644},{"NoteNumber":47,"Velocity":39,"Duration":1546539,"SoundDuration":1546539,"Delta":239474644},{"NoteNumber":52,"Velocity":39,"Duration":1546539,"SoundDuration":1546539,"Delta":239474644},{"NoteNumber":56,"Velocity":39,"Duration":1546539,"SoundDuration":1546539,"Delta":239474644},{"NoteNumber":59,"Velocity":44,"Duration":1546539,"SoundDuration":1546539,"Delta":239474644},{"NoteNumber":76,"Velocity":70,"Duration":692306,"SoundDuration":692306,"Delta":240007977},{"NoteNumber":71,"Velocity":60,"Duration":187500,"SoundDuration":187500,"Delta":240700284},{"NoteNumber":71,"Velocity":55,"Duration":133399,"SoundDuration":133399,"Delta":240887784},{"NoteNumber":75,"Velocity":73,"Duration":237546,"SoundDuration":237546,"Delta":241021183},{"NoteNumber":47,"Velocity":37,"Duration":1445256,"SoundDuration":1445256,"Delta":241021183},{"NoteNumber":52,"Velocity":37,"Duration":1445256,"SoundDuration":1445256,"Delta":241021183},{"NoteNumber":56,"Velocity":37,"Duration":1445256,"SoundDuration":1445256,"Delta":241021183},{"NoteNumber":59,"Velocity":42,"Duration":1445256,"SoundDuration":1445256,"Delta":241021183},{"NoteNumber":73,"Velocity":70,"Duration":238886,"SoundDuration":238886,"Delta":241258730},{"NoteNumber":71,"Velocity":67,"Duration":482338,"SoundDuration":482338,"Delta":241497616},{"NoteNumber":68,"Velocity":65,"Duration":486485,"SoundDuration":486485,"Delta":241979954},{"NoteNumber":65,"Velocity":62,"Duration":506328,"SoundDuration":506328,"Delta":242466440},{"NoteNumber":61,"Velocity":55,"Duration":1447504,"SoundDuration":1447504,"Delta":242466440},{"NoteNumber":47,"Velocity":35,"Duration":1447504,"SoundDuration":1447504,"Delta":242466440},{"NoteNumber":53,"Velocity":35,"Duration":1447504,"SoundDuration":1447504,"Delta":242466440},{"NoteNumber":56,"Velocity":39,"Duration":1447504,"SoundDuration":1447504,"Delta":242466440},{"NoteNumber":73,"Velocity":70,"Duration":705882,"SoundDuration":705882,"Delta":242972769},{"NoteNumber":65,"Velocity":58,"Duration":235293,"SoundDuration":235293,"Delta":243678651},{"NoteNumber":61,"Velocity":56,"Duration":472679,"SoundDuration":472679,"Delta":243913945},{"NoteNumber":66,"Velocity":56,"Duration":472679,"SoundDuration":472679,"Delta":243913945},{"NoteNumber":73,"Velocity":70,"Duration":235680,"SoundDuration":235680,"Delta":243913945},{"NoteNumber":47,"Velocity":43,"Duration":1435132,"SoundDuration":1435132,"Delta":243913945},{"NoteNumber":54,"Velocity":38,"Duration":472679,"SoundDuration":472679,"Delta":243913945},{"NoteNumber":57,"Velocity":43,"Duration":472679,"SoundDuration":472679,"Delta":243913945},{"NoteNumber":69,"Velocity":70,"Duration":236999,"SoundDuration":236999,"Delta":244149625},{"NoteNumber":64,"Velocity":56,"Duration":478331,"SoundDuration":478331,"Delta":244386624},{"NoteNumber":68,"Velocity":70,"Duration":478331,"SoundDuration":478331,"Delta":244386624},{"NoteNumber":56,"Velocity":38,"Duration":478331,"SoundDuration":478331,"Delta":244386624},{"NoteNumber":59,"Velocity":43,"Duration":478331,"SoundDuration":478331,"Delta":244386624},{"NoteNumber":63,"Velocity":60,"Duration":484121,"SoundDuration":484121,"Delta":244864956},{"NoteNumber":66,"Velocity":67,"Duration":484121,"SoundDuration":484121,"Delta":244864956},{"NoteNumber":57,"Velocity":38,"Duration":484121,"SoundDuration":484121,"Delta":244864956},{"NoteNumber":59,"Velocity":43,"Duration":484121,"SoundDuration":484121,"Delta":244864956},{"NoteNumber":56,"Velocity":53,"Duration":975610,"SoundDuration":975610,"Delta":245349077},{"NoteNumber":59,"Velocity":53,"Duration":975610,"SoundDuration":975610,"Delta":245349077},{"NoteNumber":64,"Velocity":66,"Duration":975610,"SoundDuration":975610,"Delta":245349077},{"NoteNumber":40,"Velocity":41,"Duration":1401682,"SoundDuration":1401682,"Delta":245349077},{"NoteNumber":47,"Velocity":41,"Duration":1401682,"SoundDuration":1401682,"Delta":245349077},{"NoteNumber":52,"Velocity":46,"Duration":1401682,"SoundDuration":1401682,"Delta":245349077},{"NoteNumber":64,"Velocity":51,"Duration":132397,"SoundDuration":132397,"Delta":246324687},{"NoteNumber":68,"Velocity":55,"Duration":132397,"SoundDuration":132397,"Delta":246457085},{"NoteNumber":71,"Velocity":59,"Duration":161277,"SoundDuration":161277,"Delta":246589483},{"NoteNumber":70,"Velocity":69,"Duration":918554,"SoundDuration":918554,"Delta":246750760},{"NoteNumber":67,"Velocity":55,"Duration":918554,"SoundDuration":918554,"Delta":246750760},{"NoteNumber":64,"Velocity":55,"Duration":918554,"SoundDuration":918554,"Delta":246750760},{"NoteNumber":61,"Velocity":55,"Duration":918554,"SoundDuration":918554,"Delta":246750760},{"NoteNumber":40,"Velocity":46,"Duration":1400646,"SoundDuration":1400646,"Delta":246750760},{"NoteNumber":71,"Velocity":57,"Duration":241935,"SoundDuration":241935,"Delta":247669314},{"NoteNumber":68,"Velocity":45,"Duration":241935,"SoundDuration":241935,"Delta":247669314},{"NoteNumber":64,"Velocity":45,"Duration":241935,"SoundDuration":241935,"Delta":247669314},{"NoteNumber":59,"Velocity":45,"Duration":241935,"SoundDuration":241935,"Delta":247669314},{"NoteNumber":66,"Velocity":44,"Duration":120967,"SoundDuration":120967,"Delta":247911250},{"NoteNumber":68,"Velocity":44,"Duration":119188,"SoundDuration":119188,"Delta":248032217},{"NoteNumber":60,"Velocity":39,"Duration":675049,"SoundDuration":675049,"Delta":248151406},{"NoteNumber":69,"Velocity":49,"Duration":675049,"SoundDuration":675049,"Delta":248151406},{"NoteNumber":63,"Velocity":44,"Duration":1382529,"SoundDuration":1382529,"Delta":248151406},{"NoteNumber":40,"Velocity":33,"Duration":1382529,"SoundDuration":1382529,"Delta":248151406},{"NoteNumber":45,"Velocity":37,"Duration":675049,"SoundDuration":675049,"Delta":248151406},{"NoteNumber":59,"Velocity":42,"Duration":232188,"SoundDuration":232188,"Delta":248826456},{"NoteNumber":68,"Velocity":47,"Duration":232188,"SoundDuration":232188,"Delta":248826456},{"NoteNumber":47,"Velocity":35,"Duration":232188,"SoundDuration":232188,"Delta":248826456},{"NoteNumber":57,"Velocity":39,"Duration":475291,"SoundDuration":475291,"Delta":249058644},{"NoteNumber":66,"Velocity":44,"Duration":475291,"SoundDuration":475291,"Delta":249058644},{"NoteNumber":48,"Velocity":33,"Duration":475291,"SoundDuration":475291,"Delta":249058644},{"NoteNumber":56,"Velocity":32,"Duration":917642,"SoundDuration":917642,"Delta":249533936},{"NoteNumber":64,"Velocity":41,"Duration":917642,"SoundDuration":917642,"Delta":249533936},{"NoteNumber":47,"Velocity":27,"Duration":1343714,"SoundDuration":1343714,"Delta":249533936},{"NoteNumber":40,"Velocity":24,"Duration":1343714,"SoundDuration":1343714,"Delta":249533936},{"NoteNumber":64,"Velocity":51,"Duration":132397,"SoundDuration":132397,"Delta":250451578},{"NoteNumber":68,"Velocity":55,"Duration":132397,"SoundDuration":132397,"Delta":250583975},{"NoteNumber":71,"Velocity":59,"Duration":161277,"SoundDuration":161277,"Delta":250716373},{"NoteNumber":70,"Velocity":69,"Duration":925639,"SoundDuration":925639,"Delta":250877650},{"NoteNumber":67,"Velocity":62,"Duration":925639,"SoundDuration":925639,"Delta":250877650},{"NoteNumber":64,"Velocity":55,"Duration":925639,"SoundDuration":925639,"Delta":250877650},{"NoteNumber":61,"Velocity":55,"Duration":925639,"SoundDuration":925639,"Delta":250877650},{"NoteNumber":40,"Velocity":46,"Duration":1425639,"SoundDuration":1425639,"Delta":250877650},{"NoteNumber":71,"Velocity":51,"Duration":250000,"SoundDuration":250000,"Delta":251803290},{"NoteNumber":68,"Velocity":45,"Duration":250000,"SoundDuration":250000,"Delta":251803290},{"NoteNumber":64,"Velocity":40,"Duration":250000,"SoundDuration":250000,"Delta":251803290},{"NoteNumber":59,"Velocity":40,"Duration":250000,"SoundDuration":250000,"Delta":251803290},{"NoteNumber":66,"Velocity":43,"Duration":125000,"SoundDuration":125000,"Delta":252053290},{"NoteNumber":68,"Velocity":43,"Duration":125000,"SoundDuration":125000,"Delta":252178290},{"NoteNumber":60,"Velocity":41,"Duration":716010,"SoundDuration":716010,"Delta":252303290},{"NoteNumber":69,"Velocity":46,"Duration":716010,"SoundDuration":716010,"Delta":252303290},{"NoteNumber":63,"Velocity":36,"Duration":1485026,"SoundDuration":1485026,"Delta":252303290},{"NoteNumber":40,"Velocity":27,"Duration":1485026,"SoundDuration":1485026,"Delta":252303290},{"NoteNumber":45,"Velocity":35,"Duration":716010,"SoundDuration":716010,"Delta":252303290},{"NoteNumber":59,"Velocity":36,"Duration":250534,"SoundDuration":250534,"Delta":253019301},{"NoteNumber":68,"Velocity":41,"Duration":250534,"SoundDuration":250534,"Delta":253019301},{"NoteNumber":47,"Velocity":32,"Duration":250534,"SoundDuration":250534,"Delta":253019301},{"NoteNumber":57,"Velocity":33,"Duration":518481,"SoundDuration":518481,"Delta":253269836},{"NoteNumber":66,"Velocity":37,"Duration":518481,"SoundDuration":518481,"Delta":253269836},{"NoteNumber":48,"Velocity":29,"Duration":518481,"SoundDuration":518481,"Delta":253269836},{"NoteNumber":56,"Velocity":31,"Duration":923076,"SoundDuration":923076,"Delta":253788317},{"NoteNumber":64,"Velocity":35,"Duration":923076,"SoundDuration":923076,"Delta":253788317},{"NoteNumber":47,"Velocity":23,"Duration":1410880,"SoundDuration":1410880,"Delta":253788317},{"NoteNumber":40,"Velocity":20,"Duration":1410880,"SoundDuration":1410880,"Delta":253788317},{"NoteNumber":68,"Velocity":43,"Duration":487804,"SoundDuration":487804,"Delta":254711393},{"NoteNumber":64,"Velocity":39,"Duration":937500,"SoundDuration":937500,"Delta":255199198},{"NoteNumber":68,"Velocity":49,"Duration":937500,"SoundDuration":937500,"Delta":255199198},{"NoteNumber":52,"Velocity":28,"Duration":937500,"SoundDuration":937500,"Delta":255199198},{"NoteNumber":59,"Velocity":32,"Duration":937500,"SoundDuration":937500,"Delta":255199198},{"NoteNumber":64,"Velocity":35,"Duration":514403,"SoundDuration":514403,"Delta":256136698},{"NoteNumber":68,"Velocity":44,"Duration":514403,"SoundDuration":514403,"Delta":256136698},{"NoteNumber":52,"Velocity":23,"Duration":514403,"SoundDuration":514403,"Delta":256136698},{"NoteNumber":59,"Velocity":26,"Duration":514403,"SoundDuration":514403,"Delta":256136698},{"NoteNumber":64,"Velocity":45,"Duration":699954,"SoundDuration":699954,"Delta":256651101},{"NoteNumber":68,"Velocity":50,"Duration":936099,"SoundDuration":936099,"Delta":256651101},{"NoteNumber":52,"Velocity":28,"Duration":936099,"SoundDuration":936099,"Delta":256651101},{"NoteNumber":59,"Velocity":32,"Duration":936099,"SoundDuration":936099,"Delta":256651101},{"NoteNumber":63,"Velocity":40,"Duration":236144,"SoundDuration":236144,"Delta":257351055},{"NoteNumber":62,"Velocity":33,"Duration":581733,"SoundDuration":581733,"Delta":257587200},{"NoteNumber":68,"Velocity":42,"Duration":581733,"SoundDuration":581733,"Delta":257587200},{"NoteNumber":52,"Velocity":25,"Duration":581733,"SoundDuration":581733,"Delta":257587200},{"NoteNumber":56,"Velocity":25,"Duration":581733,"SoundDuration":581733,"Delta":257587200},{"NoteNumber":63,"Velocity":35,"Duration":2284533,"SoundDuration":2284533,"Delta":258168934},{"NoteNumber":68,"Velocity":44,"Duration":1384613,"SoundDuration":1384613,"Delta":258168934},{"NoteNumber":51,"Velocity":28,"Duration":2284533,"SoundDuration":2284533,"Delta":258168934},{"NoteNumber":58,"Velocity":32,"Duration":2284533,"SoundDuration":2284533,"Delta":258168934},{"NoteNumber":67,"Velocity":39,"Duration":692307,"SoundDuration":692307,"Delta":259553548},{"NoteNumber":68,"Velocity":39,"Duration":207612,"SoundDuration":207612,"Delta":260245855},{"NoteNumber":70,"Velocity":42,"Duration":207612,"SoundDuration":207612,"Delta":260453467},{"NoteNumber":72,"Velocity":45,"Duration":207612,"SoundDuration":207612,"Delta":260661080},{"NoteNumber":65,"Velocity":38,"Duration":860215,"SoundDuration":860215,"Delta":260868692},{"NoteNumber":68,"Velocity":38,"Duration":860215,"SoundDuration":860215,"Delta":260868692},{"NoteNumber":73,"Velocity":48,"Duration":860215,"SoundDuration":860215,"Delta":260868692},{"NoteNumber":51,"Velocity":28,"Duration":860215,"SoundDuration":860215,"Delta":260868692},{"NoteNumber":53,"Velocity":28,"Duration":860215,"SoundDuration":860215,"Delta":260868692},{"NoteNumber":56,"Velocity":28,"Duration":860215,"SoundDuration":860215,"Delta":260868692},{"NoteNumber":61,"Velocity":32,"Duration":860215,"SoundDuration":860215,"Delta":260868692},{"NoteNumber":65,"Velocity":39,"Duration":430108,"SoundDuration":430108,"Delta":261728908},{"NoteNumber":68,"Velocity":39,"Duration":430108,"SoundDuration":430108,"Delta":261728908},{"NoteNumber":73,"Velocity":49,"Duration":430108,"SoundDuration":430108,"Delta":261728908},{"NoteNumber":51,"Velocity":28,"Duration":430108,"SoundDuration":430108,"Delta":261728908},{"NoteNumber":53,"Velocity":28,"Duration":430108,"SoundDuration":430108,"Delta":261728908},{"NoteNumber":56,"Velocity":28,"Duration":430108,"SoundDuration":430108,"Delta":261728908},{"NoteNumber":61,"Velocity":32,"Duration":430108,"SoundDuration":430108,"Delta":261728908},{"NoteNumber":75,"Velocity":55,"Duration":115830,"SoundDuration":115830,"Delta":262159016},{"NoteNumber":67,"Velocity":40,"Duration":893428,"SoundDuration":893428,"Delta":262159016},{"NoteNumber":70,"Velocity":45,"Duration":893428,"SoundDuration":893428,"Delta":262159016},{"NoteNumber":61,"Velocity":36,"Duration":893428,"SoundDuration":893428,"Delta":262159016},{"NoteNumber":58,"Velocity":32,"Duration":893428,"SoundDuration":893428,"Delta":262159016},{"NoteNumber":55,"Velocity":32,"Duration":893428,"SoundDuration":893428,"Delta":262159016},{"NoteNumber":51,"Velocity":32,"Duration":893428,"SoundDuration":893428,"Delta":262159016},{"NoteNumber":73,"Velocity":50,"Duration":115829,"SoundDuration":115829,"Delta":262274846},{"NoteNumber":72,"Velocity":50,"Duration":115830,"SoundDuration":115830,"Delta":262390676},{"NoteNumber":73,"Velocity":50,"Duration":115830,"SoundDuration":115830,"Delta":262506506},{"NoteNumber":75,"Velocity":51,"Duration":430108,"SoundDuration":430108,"Delta":262622336},{"NoteNumber":67,"Velocity":39,"Duration":518851,"SoundDuration":518851,"Delta":263052444},{"NoteNumber":70,"Velocity":49,"Duration":518851,"SoundDuration":518851,"Delta":263052444},{"NoteNumber":63,"Velocity":31,"Duration":518851,"SoundDuration":518851,"Delta":263052444},{"NoteNumber":51,"Velocity":27,"Duration":518851,"SoundDuration":518851,"Delta":263052444},{"NoteNumber":67,"Velocity":40,"Duration":1389959,"SoundDuration":1389959,"Delta":263571296},{"NoteNumber":70,"Velocity":40,"Duration":1389959,"SoundDuration":1389959,"Delta":263571296},{"NoteNumber":73,"Velocity":50,"Duration":1389959,"SoundDuration":1389959,"Delta":263571296},{"NoteNumber":63,"Velocity":33,"Duration":1853279,"SoundDuration":1853279,"Delta":263571296},{"NoteNumber":56,"Velocity":29,"Duration":1853279,"SoundDuration":1853279,"Delta":263571296},{"NoteNumber":68,"Velocity":36,"Duration":463320,"SoundDuration":463320,"Delta":264961256},{"NoteNumber":72,"Velocity":45,"Duration":463320,"SoundDuration":463320,"Delta":264961256},{"NoteNumber":68,"Velocity":64,"Duration":492909,"SoundDuration":492909,"Delta":265887896},{"NoteNumber":72,"Velocity":64,"Duration":492909,"SoundDuration":492909,"Delta":265887896},{"NoteNumber":77,"Velocity":80,"Duration":492909,"SoundDuration":492909,"Delta":265887896},{"NoteNumber":56,"Velocity":51,"Duration":492909,"SoundDuration":492909,"Delta":265887896},{"NoteNumber":60,"Velocity":51,"Duration":492909,"SoundDuration":492909,"Delta":265887896},{"NoteNumber":65,"Velocity":57,"Duration":492909,"SoundDuration":492909,"Delta":265887896},{"NoteNumber":68,"Velocity":64,"Duration":909089,"SoundDuration":909089,"Delta":266406748},{"NoteNumber":72,"Velocity":64,"Duration":909089,"SoundDuration":909089,"Delta":266406748},{"NoteNumber":77,"Velocity":80,"Duration":909089,"SoundDuration":909089,"Delta":266406748},{"NoteNumber":56,"Velocity":51,"Duration":909089,"SoundDuration":909089,"Delta":266406748},{"NoteNumber":60,"Velocity":51,"Duration":909089,"SoundDuration":909089,"Delta":266406748},{"NoteNumber":65,"Velocity":57,"Duration":909089,"SoundDuration":909089,"Delta":266406748},{"NoteNumber":68,"Velocity":64,"Duration":542299,"SoundDuration":542299,"Delta":267315838},{"NoteNumber":72,"Velocity":64,"Duration":542299,"SoundDuration":542299,"Delta":267315838},{"NoteNumber":77,"Velocity":80,"Duration":542299,"SoundDuration":542299,"Delta":267315838},{"NoteNumber":56,"Velocity":51,"Duration":542299,"SoundDuration":542299,"Delta":267315838},{"NoteNumber":60,"Velocity":51,"Duration":542299,"SoundDuration":542299,"Delta":267315838},{"NoteNumber":65,"Velocity":57,"Duration":542299,"SoundDuration":542299,"Delta":267315838},{"NoteNumber":80,"Velocity":86,"Duration":681817,"SoundDuration":681817,"Delta":267858137},{"NoteNumber":68,"Velocity":69,"Duration":909089,"SoundDuration":909089,"Delta":267858137},{"NoteNumber":72,"Velocity":69,"Duration":909089,"SoundDuration":909089,"Delta":267858137},{"NoteNumber":56,"Velocity":54,"Duration":909089,"SoundDuration":909089,"Delta":267858137},{"NoteNumber":60,"Velocity":61,"Duration":909089,"SoundDuration":909089,"Delta":267858137},{"NoteNumber":67,"Velocity":64,"Duration":227272,"SoundDuration":227272,"Delta":268539955},{"NoteNumber":79,"Velocity":80,"Duration":227272,"SoundDuration":227272,"Delta":268539955},{"NoteNumber":77,"Velocity":75,"Duration":510031,"SoundDuration":510031,"Delta":268767227},{"NoteNumber":72,"Velocity":60,"Duration":510031,"SoundDuration":510031,"Delta":268767227},{"NoteNumber":68,"Velocity":60,"Duration":510031,"SoundDuration":510031,"Delta":268767227},{"NoteNumber":65,"Velocity":60,"Duration":510031,"SoundDuration":510031,"Delta":268767227},{"NoteNumber":56,"Velocity":48,"Duration":510031,"SoundDuration":510031,"Delta":268767227},{"NoteNumber":60,"Velocity":54,"Duration":510031,"SoundDuration":510031,"Delta":268767227},{"NoteNumber":77,"Velocity":80,"Duration":2272724,"SoundDuration":2272724,"Delta":269277258},{"NoteNumber":73,"Velocity":67,"Duration":2815023,"SoundDuration":2815023,"Delta":269277258},{"NoteNumber":70,"Velocity":64,"Duration":2815023,"SoundDuration":2815023,"Delta":269277258},{"NoteNumber":67,"Velocity":64,"Duration":2815023,"SoundDuration":2815023,"Delta":269277258},{"NoteNumber":65,"Velocity":57,"Duration":2272724,"SoundDuration":2272724,"Delta":269277258},{"NoteNumber":61,"Velocity":51,"Duration":2815023,"SoundDuration":2815023,"Delta":269277258},{"NoteNumber":58,"Velocity":51,"Duration":2815023,"SoundDuration":2815023,"Delta":269277258},{"NoteNumber":55,"Velocity":51,"Duration":2815023,"SoundDuration":2815023,"Delta":269277258},{"NoteNumber":76,"Velocity":54,"Duration":542299,"SoundDuration":542299,"Delta":271549983},{"NoteNumber":64,"Velocity":44,"Duration":542299,"SoundDuration":542299,"Delta":271549983},{"NoteNumber":70,"Velocity":37,"Duration":2622155,"SoundDuration":2622155,"Delta":272092282},{"NoteNumber":75,"Velocity":47,"Duration":1016950,"SoundDuration":1016950,"Delta":272092282},{"NoteNumber":63,"Velocity":32,"Duration":2622155,"SoundDuration":2622155,"Delta":272092282},{"NoteNumber":55,"Velocity":28,"Duration":2622155,"SoundDuration":2622155,"Delta":272092282},{"NoteNumber":74,"Velocity":43,"Duration":605205,"SoundDuration":605205,"Delta":273109232},{"NoteNumber":73,"Velocity":37,"Duration":1000000,"SoundDuration":1000000,"Delta":273714437},{"NoteNumber":63,"Velocity":36,"Duration":617664,"SoundDuration":617664,"Delta":274714437},{"NoteNumber":68,"Velocity":36,"Duration":617664,"SoundDuration":617664,"Delta":274714437},{"NoteNumber":72,"Velocity":45,"Duration":617664,"SoundDuration":617664,"Delta":274714437},{"NoteNumber":56,"Velocity":32,"Duration":617664,"SoundDuration":617664,"Delta":274714437},{"NoteNumber":65,"Velocity":37,"Duration":1860751,"SoundDuration":1860751,"Delta":275332102},{"NoteNumber":68,"Velocity":37,"Duration":1860751,"SoundDuration":1860751,"Delta":275332102},{"NoteNumber":72,"Velocity":47,"Duration":1395563,"SoundDuration":1395563,"Delta":275332102},{"NoteNumber":61,"Velocity":33,"Duration":1860751,"SoundDuration":1860751,"Delta":275332102},{"NoteNumber":70,"Velocity":44,"Duration":465188,"SoundDuration":465188,"Delta":276727666},{"NoteNumber":77,"Velocity":50,"Duration":599160,"SoundDuration":599160,"Delta":277658042},{"NoteNumber":70,"Velocity":40,"Duration":599160,"SoundDuration":599160,"Delta":277658042},{"NoteNumber":67,"Velocity":40,"Duration":599160,"SoundDuration":599160,"Delta":277658042},{"NoteNumber":65,"Velocity":36,"Duration":599160,"SoundDuration":599160,"Delta":277658042},{"NoteNumber":61,"Velocity":32,"Duration":599160,"SoundDuration":599160,"Delta":277658042},{"NoteNumber":68,"Velocity":41,"Duration":1860751,"SoundDuration":1860751,"Delta":278257203},{"NoteNumber":72,"Velocity":41,"Duration":1860751,"SoundDuration":1860751,"Delta":278257203},{"NoteNumber":77,"Velocity":52,"Duration":1395563,"SoundDuration":1395563,"Delta":278257203},{"NoteNumber":65,"Velocity":36,"Duration":1395563,"SoundDuration":1395563,"Delta":278257203},{"NoteNumber":60,"Velocity":32,"Duration":1860751,"SoundDuration":1860751,"Delta":278257203},{"NoteNumber":75,"Velocity":48,"Duration":465188,"SoundDuration":465188,"Delta":279652767},{"NoteNumber":63,"Velocity":34,"Duration":465188,"SoundDuration":465188,"Delta":279652767},{"NoteNumber":60,"Velocity":38,"Duration":602530,"SoundDuration":602530,"Delta":280350549},{"NoteNumber":63,"Velocity":43,"Duration":200843,"SoundDuration":200843,"Delta":280350549},{"NoteNumber":56,"Velocity":37,"Duration":602530,"SoundDuration":602530,"Delta":280350549},{"NoteNumber":68,"Velocity":50,"Duration":200843,"SoundDuration":200843,"Delta":280551393},{"NoteNumber":51,"Velocity":39,"Duration":200843,"SoundDuration":200843,"Delta":280551393},{"NoteNumber":72,"Velocity":52,"Duration":200843,"SoundDuration":200843,"Delta":280752236},{"NoteNumber":48,"Velocity":40,"Duration":200843,"SoundDuration":200843,"Delta":280752236},{"NoteNumber":61,"Velocity":43,"Duration":892194,"SoundDuration":892194,"Delta":280953080},{"NoteNumber":63,"Velocity":43,"Duration":892194,"SoundDuration":892194,"Delta":280953080},{"NoteNumber":67,"Velocity":43,"Duration":892194,"SoundDuration":892194,"Delta":280953080},{"NoteNumber":73,"Velocity":54,"Duration":892194,"SoundDuration":892194,"Delta":280953080},{"NoteNumber":46,"Velocity":33,"Duration":892194,"SoundDuration":892194,"Delta":280953080},{"NoteNumber":51,"Velocity":33,"Duration":892194,"SoundDuration":892194,"Delta":280953080},{"NoteNumber":55,"Velocity":37,"Duration":892194,"SoundDuration":892194,"Delta":280953080},{"NoteNumber":60,"Velocity":45,"Duration":565291,"SoundDuration":565291,"Delta":281845274},{"NoteNumber":63,"Velocity":45,"Duration":565291,"SoundDuration":565291,"Delta":281845274},{"NoteNumber":68,"Velocity":45,"Duration":565291,"SoundDuration":565291,"Delta":281845274},{"NoteNumber":72,"Velocity":56,"Duration":565291,"SoundDuration":565291,"Delta":281845274},{"NoteNumber":44,"Velocity":36,"Duration":565291,"SoundDuration":565291,"Delta":281845274},{"NoteNumber":51,"Velocity":36,"Duration":565291,"SoundDuration":565291,"Delta":281845274},{"NoteNumber":56,"Velocity":40,"Duration":565291,"SoundDuration":565291,"Delta":281845274},{"NoteNumber":58,"Velocity":45,"Duration":868936,"SoundDuration":868936,"Delta":282410565},{"NoteNumber":63,"Velocity":45,"Duration":868936,"SoundDuration":868936,"Delta":282410565},{"NoteNumber":70,"Velocity":57,"Duration":868936,"SoundDuration":868936,"Delta":282410565},{"NoteNumber":43,"Velocity":36,"Duration":868936,"SoundDuration":868936,"Delta":282410565},{"NoteNumber":51,"Velocity":36,"Duration":868936,"SoundDuration":868936,"Delta":282410565},{"NoteNumber":55,"Velocity":41,"Duration":868936,"SoundDuration":868936,"Delta":282410565},{"NoteNumber":62,"Velocity":49,"Duration":651183,"SoundDuration":651183,"Delta":283279501},{"NoteNumber":70,"Velocity":49,"Duration":651183,"SoundDuration":651183,"Delta":283279501},{"NoteNumber":68,"Velocity":49,"Duration":651183,"SoundDuration":651183,"Delta":283279501},{"NoteNumber":74,"Velocity":62,"Duration":651183,"SoundDuration":651183,"Delta":283279501},{"NoteNumber":41,"Velocity":40,"Duration":651183,"SoundDuration":651183,"Delta":283279501},{"NoteNumber":46,"Velocity":40,"Duration":651183,"SoundDuration":651183,"Delta":283279501},{"NoteNumber":53,"Velocity":45,"Duration":651183,"SoundDuration":651183,"Delta":283279501},{"NoteNumber":62,"Velocity":55,"Duration":1520654,"SoundDuration":1520654,"Delta":283930684},{"NoteNumber":70,"Velocity":55,"Duration":1985842,"SoundDuration":1985842,"Delta":283930684},{"NoteNumber":68,"Velocity":55,"Duration":1520654,"SoundDuration":1520654,"Delta":283930684},{"NoteNumber":74,"Velocity":69,"Duration":1520654,"SoundDuration":1520654,"Delta":283930684},{"NoteNumber":39,"Velocity":43,"Duration":1985842,"SoundDuration":1985842,"Delta":283930684},{"NoteNumber":46,"Velocity":43,"Duration":1985842,"SoundDuration":1985842,"Delta":283930684},{"NoteNumber":51,"Velocity":48,"Duration":1985842,"SoundDuration":1985842,"Delta":283930684},{"NoteNumber":67,"Velocity":36,"Duration":465188,"SoundDuration":465188,"Delta":285451339},{"NoteNumber":63,"Velocity":36,"Duration":465188,"SoundDuration":465188,"Delta":285451339},{"NoteNumber":75,"Velocity":45,"Duration":465188,"SoundDuration":465188,"Delta":285451339},{"NoteNumber":63,"Velocity":58,"Duration":608272,"SoundDuration":608272,"Delta":286381715},{"NoteNumber":68,"Velocity":58,"Duration":608272,"SoundDuration":608272,"Delta":286381715},{"NoteNumber":72,"Velocity":73,"Duration":608272,"SoundDuration":608272,"Delta":286381715},{"NoteNumber":32,"Velocity":45,"Duration":608272,"SoundDuration":608272,"Delta":286381715},{"NoteNumber":44,"Velocity":50,"Duration":608272,"SoundDuration":608272,"Delta":286381715},{"NoteNumber":64,"Velocity":64,"Duration":1825332,"SoundDuration":1825332,"Delta":286989988},{"NoteNumber":68,"Velocity":64,"Duration":1825332,"SoundDuration":1825332,"Delta":286989988},{"NoteNumber":72,"Velocity":81,"Duration":1133025,"SoundDuration":1133025,"Delta":286989988},{"NoteNumber":37,"Velocity":51,"Duration":1825332,"SoundDuration":1825332,"Delta":286989988},{"NoteNumber":49,"Velocity":57,"Duration":1825332,"SoundDuration":1825332,"Delta":286989988},{"NoteNumber":71,"Velocity":53,"Duration":230769,"SoundDuration":230769,"Delta":288123013},{"NoteNumber":70,"Velocity":50,"Duration":461538,"SoundDuration":461538,"Delta":288353782},{"NoteNumber":63,"Velocity":58,"Duration":549753,"SoundDuration":549753,"Delta":289276858},{"NoteNumber":68,"Velocity":58,"Duration":549753,"SoundDuration":549753,"Delta":289276858},{"NoteNumber":72,"Velocity":73,"Duration":549753,"SoundDuration":549753,"Delta":289276858},{"NoteNumber":32,"Velocity":45,"Duration":549753,"SoundDuration":549753,"Delta":289276858},{"NoteNumber":44,"Velocity":50,"Duration":549753,"SoundDuration":549753,"Delta":289276858},{"NoteNumber":64,"Velocity":64,"Duration":1810176,"SoundDuration":1810176,"Delta":289826611},{"NoteNumber":68,"Velocity":64,"Duration":1810176,"SoundDuration":1810176,"Delta":289826611},{"NoteNumber":72,"Velocity":81,"Duration":1134814,"SoundDuration":1134814,"Delta":289826611},{"NoteNumber":37,"Velocity":51,"Duration":1810176,"SoundDuration":1810176,"Delta":289826611},{"NoteNumber":49,"Velocity":57,"Duration":1810176,"SoundDuration":1810176,"Delta":289826611},{"NoteNumber":71,"Velocity":54,"Duration":232558,"SoundDuration":232558,"Delta":290961425},{"NoteNumber":70,"Velocity":51,"Duration":442804,"SoundDuration":442804,"Delta":291193983},{"NoteNumber":64,"Velocity":72,"Duration":914422,"SoundDuration":914422,"Delta":292076347},{"NoteNumber":68,"Velocity":72,"Duration":914422,"SoundDuration":914422,"Delta":292076347},{"NoteNumber":71,"Velocity":89,"Duration":914422,"SoundDuration":914422,"Delta":292076347},{"NoteNumber":38,"Velocity":55,"Duration":914422,"SoundDuration":914422,"Delta":292076347},{"NoteNumber":50,"Velocity":62,"Duration":914422,"SoundDuration":914422,"Delta":292076347},{"NoteNumber":64,"Velocity":72,"Duration":426966,"SoundDuration":426966,"Delta":292999423},{"NoteNumber":68,"Velocity":72,"Duration":426966,"SoundDuration":426966,"Delta":292999423},{"NoteNumber":71,"Velocity":90,"Duration":426966,"SoundDuration":426966,"Delta":292999423},{"NoteNumber":38,"Velocity":56,"Duration":426966,"SoundDuration":426966,"Delta":292999423},{"NoteNumber":50,"Velocity":63,"Duration":426966,"SoundDuration":426966,"Delta":292999423},{"NoteNumber":64,"Velocity":71,"Duration":426966,"SoundDuration":426966,"Delta":293448861},{"NoteNumber":68,"Velocity":71,"Duration":426966,"SoundDuration":426966,"Delta":293448861},{"NoteNumber":71,"Velocity":88,"Duration":426966,"SoundDuration":426966,"Delta":293448861},{"NoteNumber":38,"Velocity":56,"Duration":426966,"SoundDuration":426966,"Delta":293448861},{"NoteNumber":50,"Velocity":63,"Duration":426966,"SoundDuration":426966,"Delta":293448861},{"NoteNumber":64,"Velocity":68,"Duration":417581,"SoundDuration":417581,"Delta":293898299},{"NoteNumber":68,"Velocity":68,"Duration":417581,"SoundDuration":417581,"Delta":293898299},{"NoteNumber":71,"Velocity":85,"Duration":417581,"SoundDuration":417581,"Delta":293898299},{"NoteNumber":38,"Velocity":54,"Duration":417581,"SoundDuration":417581,"Delta":293898299},{"NoteNumber":50,"Velocity":61,"Duration":417581,"SoundDuration":417581,"Delta":293898299},{"NoteNumber":64,"Velocity":72,"Duration":451127,"SoundDuration":451127,"Delta":294337859},{"NoteNumber":69,"Velocity":74,"Duration":451127,"SoundDuration":451127,"Delta":294337859},{"NoteNumber":73,"Velocity":93,"Duration":451127,"SoundDuration":451127,"Delta":294337859},{"NoteNumber":37,"Velocity":60,"Duration":451127,"SoundDuration":451127,"Delta":294337859},{"NoteNumber":49,"Velocity":67,"Duration":451127,"SoundDuration":451127,"Delta":294337859},{"NoteNumber":64,"Velocity":72,"Duration":456274,"SoundDuration":456274,"Delta":294788987},{"NoteNumber":71,"Velocity":79,"Duration":456274,"SoundDuration":456274,"Delta":294788987},{"NoteNumber":74,"Velocity":98,"Duration":456274,"SoundDuration":456274,"Delta":294788987},{"NoteNumber":35,"Velocity":63,"Duration":456274,"SoundDuration":456274,"Delta":294788987},{"NoteNumber":47,"Velocity":70,"Duration":456274,"SoundDuration":456274,"Delta":294788987},{"NoteNumber":64,"Velocity":69,"Duration":451127,"SoundDuration":451127,"Delta":295245261},{"NoteNumber":73,"Velocity":81,"Duration":451127,"SoundDuration":451127,"Delta":295245261},{"NoteNumber":76,"Velocity":102,"Duration":451127,"SoundDuration":451127,"Delta":295245261},{"NoteNumber":33,"Velocity":64,"Duration":451127,"SoundDuration":451127,"Delta":295245261},{"NoteNumber":45,"Velocity":72,"Duration":451127,"SoundDuration":451127,"Delta":295245261},{"NoteNumber":64,"Velocity":63,"Duration":451128,"SoundDuration":451128,"Delta":295696389},{"NoteNumber":71,"Velocity":74,"Duration":451128,"SoundDuration":451128,"Delta":295696389},{"NoteNumber":74,"Velocity":93,"Duration":451128,"SoundDuration":451128,"Delta":295696389},{"NoteNumber":47,"Velocity":66,"Duration":451128,"SoundDuration":451128,"Delta":295696389},{"NoteNumber":35,"Velocity":59,"Duration":451128,"SoundDuration":451128,"Delta":295696389},{"NoteNumber":64,"Velocity":54,"Duration":530316,"SoundDuration":530316,"Delta":296147517},{"NoteNumber":69,"Velocity":64,"Duration":530316,"SoundDuration":530316,"Delta":296147517},{"NoteNumber":73,"Velocity":80,"Duration":530316,"SoundDuration":530316,"Delta":296147517},{"NoteNumber":37,"Velocity":51,"Duration":530316,"SoundDuration":530316,"Delta":296147517},{"NoteNumber":49,"Velocity":57,"Duration":530316,"SoundDuration":530316,"Delta":296147517},{"NoteNumber":63,"Velocity":46,"Duration":2292179,"SoundDuration":2292179,"Delta":296677833},{"NoteNumber":68,"Velocity":46,"Duration":1333331,"SoundDuration":1333331,"Delta":296677833},{"NoteNumber":71,"Velocity":58,"Duration":1333331,"SoundDuration":1333331,"Delta":296677833},{"NoteNumber":39,"Velocity":35,"Duration":2292179,"SoundDuration":2292179,"Delta":296677833},{"NoteNumber":51,"Velocity":39,"Duration":2292179,"SoundDuration":2292179,"Delta":296677833},{"NoteNumber":67,"Velocity":37,"Duration":958847,"SoundDuration":958847,"Delta":298011165},{"NoteNumber":70,"Velocity":47,"Duration":958847,"SoundDuration":958847,"Delta":298011165},{"NoteNumber":52,"Velocity":48,"Duration":914422,"SoundDuration":914422,"Delta":298970012},{"NoteNumber":50,"Velocity":48,"Duration":914422,"SoundDuration":914422,"Delta":298970012},{"NoteNumber":56,"Velocity":48,"Duration":914422,"SoundDuration":914422,"Delta":298970012},{"NoteNumber":59,"Velocity":60,"Duration":914422,"SoundDuration":914422,"Delta":298970012},{"NoteNumber":50,"Velocity":35,"Duration":426966,"SoundDuration":426966,"Delta":299893088},{"NoteNumber":52,"Velocity":35,"Duration":426966,"SoundDuration":426966,"Delta":299893088},{"NoteNumber":56,"Velocity":35,"Duration":426966,"SoundDuration":426966,"Delta":299893088},{"NoteNumber":59,"Velocity":44,"Duration":426966,"SoundDuration":426966,"Delta":299893088},{"NoteNumber":50,"Velocity":35,"Duration":426966,"SoundDuration":426966,"Delta":300342526},{"NoteNumber":52,"Velocity":35,"Duration":426966,"SoundDuration":426966,"Delta":300342526},{"NoteNumber":56,"Velocity":35,"Duration":426966,"SoundDuration":426966,"Delta":300342526},{"NoteNumber":59,"Velocity":44,"Duration":426966,"SoundDuration":426966,"Delta":300342526},{"NoteNumber":50,"Velocity":32,"Duration":426966,"SoundDuration":426966,"Delta":300791964},{"NoteNumber":52,"Velocity":32,"Duration":426966,"SoundDuration":426966,"Delta":300791964},{"NoteNumber":56,"Velocity":32,"Duration":426966,"SoundDuration":426966,"Delta":300791964},{"NoteNumber":59,"Velocity":41,"Duration":426966,"SoundDuration":426966,"Delta":300791964},{"NoteNumber":49,"Velocity":35,"Duration":459769,"SoundDuration":459769,"Delta":301241402},{"NoteNumber":52,"Velocity":35,"Duration":459769,"SoundDuration":459769,"Delta":301241402},{"NoteNumber":57,"Velocity":35,"Duration":459769,"SoundDuration":459769,"Delta":301241402},{"NoteNumber":61,"Velocity":44,"Duration":459769,"SoundDuration":459769,"Delta":301241402},{"NoteNumber":47,"Velocity":35,"Duration":431402,"SoundDuration":431402,"Delta":301701172},{"NoteNumber":52,"Velocity":35,"Duration":431402,"SoundDuration":431402,"Delta":301701172},{"NoteNumber":62,"Velocity":44,"Duration":431402,"SoundDuration":431402,"Delta":301701172},{"NoteNumber":59,"Velocity":35,"Duration":431402,"SoundDuration":431402,"Delta":301701172},{"NoteNumber":66,"Velocity":48,"Duration":141509,"SoundDuration":141509,"Delta":302132574},{"NoteNumber":45,"Velocity":33,"Duration":459769,"SoundDuration":459769,"Delta":302274084},{"NoteNumber":52,"Velocity":33,"Duration":459769,"SoundDuration":459769,"Delta":302274084},{"NoteNumber":61,"Velocity":33,"Duration":459769,"SoundDuration":459769,"Delta":302274084},{"NoteNumber":64,"Velocity":42,"Duration":459769,"SoundDuration":459769,"Delta":302274084},{"NoteNumber":47,"Velocity":32,"Duration":493259,"SoundDuration":493259,"Delta":302733854},{"NoteNumber":52,"Velocity":32,"Duration":493259,"SoundDuration":493259,"Delta":302733854},{"NoteNumber":59,"Velocity":32,"Duration":493259,"SoundDuration":493259,"Delta":302733854},{"NoteNumber":62,"Velocity":40,"Duration":493259,"SoundDuration":493259,"Delta":302733854},{"NoteNumber":49,"Velocity":28,"Duration":596183,"SoundDuration":596183,"Delta":303227113},{"NoteNumber":52,"Velocity":28,"Duration":596183,"SoundDuration":596183,"Delta":303227113},{"NoteNumber":57,"Velocity":28,"Duration":596183,"SoundDuration":596183,"Delta":303227113},{"NoteNumber":61,"Velocity":36,"Duration":596183,"SoundDuration":596183,"Delta":303227113},{"NoteNumber":51,"Velocity":27,"Duration":3499167,"SoundDuration":3499167,"Delta":303823297},{"NoteNumber":56,"Velocity":27,"Duration":1626896,"SoundDuration":1626896,"Delta":303823297},{"NoteNumber":59,"Velocity":31,"Duration":1626896,"SoundDuration":1626896,"Delta":303823297},{"NoteNumber":39,"Velocity":25,"Duration":1872270,"SoundDuration":1872270,"Delta":305450194},{"NoteNumber":55,"Velocity":28,"Duration":1872270,"SoundDuration":1872270,"Delta":305450194},{"NoteNumber":58,"Velocity":28,"Duration":1872270,"SoundDuration":1872270,"Delta":305450194},{"NoteNumber":32,"Velocity":25,"Duration":3120450,"SoundDuration":3120450,"Delta":307322464},{"NoteNumber":44,"Velocity":25,"Duration":3120450,"SoundDuration":3120450,"Delta":307322464},{"NoteNumber":56,"Velocity":28,"Duration":3120450,"SoundDuration":3120450,"Delta":307322464}],"license":{"name":"Creative Commons Attribution-ShareAlike 3.0 Germany","url":"http://creativecommons.org/licenses/by-sa/3.0/de/deed.en","text":"The MIDI, audio (MP3, OGG) and video files of Bernd Krueger are licensed under the cc-by-sa Germany License. This means that you can use and adapt the files, as long as you attribute the copyright holder.\n\nName: Bernd Krueger\nSource: http://www.piano-midi.de\n\nThe distribution or public playback of the files is only allowed under identical license conditions.\n\nThe scores are open source.","attribution":"MIDI files by Bernd Krueger (piano-midi.de)","attributionUrl":"http://www.piano-midi.de"}}