{"title":"Impromptu D 935 No. 1","artist":"Schubert","durationMs":514220,"midiSha256":"0de87fe77fbbcfea73cc79efae7cea128a1c7a25bd9e3383814974a3ed7991a3","midiObject":[{"NoteNumber":60,"Velocity":55,"Duration":103092,"SoundDuration":103092,"Delta":0},{"NoteNumber":48,"Velocity":51,"Duration":2346461,"SoundDuration":2346461,"Delta":0},{"NoteNumber":41,"Velocity":43,"Duration":5534701,"SoundDuration":5534701,"Delta":0},{"NoteNumber":56,"Velocity":51,"Duration":1817827,"SoundDuration":1817827,"Delta":0},{"NoteNumber":65,"Velocity":60,"Duration":103092,"SoundDuration":103092,"Delta":103092},{"NoteNumber":68,"Velocity":66,"Duration":103092,"SoundDuration":103092,"Delta":206185},{"NoteNumber":72,"Velocity":75,"Duration":821917,"SoundDuration":821917,"Delta":309278},{"NoteNumber":70,"Velocity":57,"Duration":148514,"SoundDuration":148514,"Delta":1131195},{"NoteNumber":68,"Velocity":67,"Duration":403587,"SoundDuration":403587,"Delta":1279710},{"NoteNumber":70,"Velocity":58,"Duration":134529,"SoundDuration":134529,"Delta":1683298},{"NoteNumber":67,"Velocity":68,"Duration":396475,"SoundDuration":396475,"Delta":1817827},{"NoteNumber":52,"Velocity":43,"Duration":528633,"SoundDuration":528633,"Delta":1817827},{"NoteNumber":43,"Velocity":36,"Duration":528633,"SoundDuration":528633,"Delta":1817827},{"NoteNumber":68,"Velocity":51,"Duration":132158,"SoundDuration":132158,"Delta":2214303},{"NoteNumber":65,"Velocity":60,"Duration":398229,"SoundDuration":398229,"Delta":2346461},{"NoteNumber":53,"Velocity":43,"Duration":3188240,"SoundDuration":3188240,"Delta":2346461},{"NoteNumber":44,"Velocity":43,"Duration":530972,"SoundDuration":530972,"Delta":2346461},{"NoteNumber":66,"Velocity":51,"Duration":132743,"SoundDuration":132743,"Delta":2744691},{"NoteNumber":63,"Velocity":62,"Duration":396475,"SoundDuration":396475,"Delta":2877434},{"NoteNumber":45,"Velocity":39,"Duration":528633,"SoundDuration":528633,"Delta":2877434},{"NoteNumber":65,"Velocity":52,"Duration":132158,"SoundDuration":132158,"Delta":3273910},{"NoteNumber":61,"Velocity":60,"Duration":401785,"SoundDuration":401785,"Delta":3406068},{"NoteNumber":43,"Velocity":43,"Duration":535714,"SoundDuration":535714,"Delta":3406068},{"NoteNumber":63,"Velocity":51,"Duration":133928,"SoundDuration":133928,"Delta":3807853},{"NoteNumber":60,"Velocity":60,"Duration":398229,"SoundDuration":398229,"Delta":3941782},{"NoteNumber":45,"Velocity":40,"Duration":530973,"SoundDuration":530973,"Delta":3941782},{"NoteNumber":61,"Velocity":51,"Duration":132743,"SoundDuration":132743,"Delta":4340012},{"NoteNumber":58,"Velocity":60,"Duration":398229,"SoundDuration":398229,"Delta":4472755},{"NoteNumber":49,"Velocity":44,"Duration":530972,"SoundDuration":530972,"Delta":4472755},{"NoteNumber":60,"Velocity":53,"Duration":132743,"SoundDuration":132743,"Delta":4870985},{"NoteNumber":56,"Velocity":63,"Duration":398229,"SoundDuration":398229,"Delta":5003728},{"NoteNumber":48,"Velocity":41,"Duration":530973,"SoundDuration":530973,"Delta":5003728},{"NoteNumber":58,"Velocity":60,"Duration":132743,"SoundDuration":132743,"Delta":5401958},{"NoteNumber":54,"Velocity":68,"Duration":409091,"SoundDuration":409091,"Delta":5534701},{"NoteNumber":46,"Velocity":41,"Duration":545454,"SoundDuration":545454,"Delta":5534701},{"NoteNumber":49,"Velocity":49,"Duration":545454,"SoundDuration":545454,"Delta":5534701},{"NoteNumber":56,"Velocity":63,"Duration":136363,"SoundDuration":136363,"Delta":5943792},{"NoteNumber":53,"Velocity":72,"Duration":426540,"SoundDuration":426540,"Delta":6080156},{"NoteNumber":48,"Velocity":45,"Duration":568719,"SoundDuration":568719,"Delta":6080156},{"NoteNumber":44,"Velocity":38,"Duration":568719,"SoundDuration":568719,"Delta":6080156},{"NoteNumber":55,"Velocity":67,"Duration":142179,"SoundDuration":142179,"Delta":6506696},{"NoteNumber":52,"Velocity":78,"Duration":298507,"SoundDuration":298507,"Delta":6648876},{"NoteNumber":46,"Velocity":57,"Duration":298507,"SoundDuration":298507,"Delta":6648876},{"NoteNumber":43,"Velocity":47,"Duration":298507,"SoundDuration":298507,"Delta":6648876},{"NoteNumber":73,"Velocity":79,"Duration":298507,"SoundDuration":298507,"Delta":7245891},{"NoteNumber":67,"Velocity":66,"Duration":298507,"SoundDuration":298507,"Delta":7245891},{"NoteNumber":70,"Velocity":66,"Duration":298507,"SoundDuration":298507,"Delta":7245891},{"NoteNumber":52,"Velocity":48,"Duration":298507,"SoundDuration":298507,"Delta":7245891},{"NoteNumber":55,"Velocity":48,"Duration":298507,"SoundDuration":298507,"Delta":7245891},{"NoteNumber":58,"Velocity":48,"Duration":298507,"SoundDuration":298507,"Delta":7245891},{"NoteNumber":61,"Velocity":57,"Duration":298507,"SoundDuration":298507,"Delta":7245891},{"NoteNumber":72,"Velocity":41,"Duration":64102,"SoundDuration":64102,"Delta":8390851},{"NoteNumber":73,"Velocity":41,"Duration":64102,"SoundDuration":64102,"Delta":8454954},{"NoteNumber":75,"Velocity":41,"Duration":64102,"SoundDuration":64102,"Delta":8519056},{"NoteNumber":73,"Velocity":47,"Duration":402684,"SoundDuration":402684,"Delta":8583159},{"NoteNumber":72,"Velocity":41,"Duration":151515,"SoundDuration":151515,"Delta":8985843},{"NoteNumber":72,"Velocity":47,"Duration":584507,"SoundDuration":584507,"Delta":9137358},{"NoteNumber":56,"Velocity":35,"Duration":584507,"SoundDuration":584507,"Delta":9137358},{"NoteNumber":53,"Velocity":29,"Duration":584507,"SoundDuration":584507,"Delta":9137358},{"NoteNumber":77,"Velocity":53,"Duration":731454,"SoundDuration":731454,"Delta":9721866},{"NoteNumber":46,"Velocity":27,"Duration":542985,"SoundDuration":542985,"Delta":10272325},{"NoteNumber":49,"Velocity":27,"Duration":542985,"SoundDuration":542985,"Delta":10272325},{"NoteNumber":55,"Velocity":32,"Duration":542985,"SoundDuration":542985,"Delta":10272325},{"NoteNumber":67,"Velocity":39,"Duration":180995,"SoundDuration":180995,"Delta":10453321},{"NoteNumber":70,"Velocity":39,"Duration":180995,"SoundDuration":180995,"Delta":10634316},{"NoteNumber":73,"Velocity":44,"Duration":180995,"SoundDuration":180995,"Delta":10815311},{"NoteNumber":70,"Velocity":38,"Duration":185735,"SoundDuration":185735,"Delta":10996307},{"NoteNumber":67,"Velocity":37,"Duration":190476,"SoundDuration":190476,"Delta":11182043},{"NoteNumber":65,"Velocity":46,"Duration":1194834,"SoundDuration":1194834,"Delta":11372519},{"NoteNumber":48,"Velocity":29,"Duration":1495914,"SoundDuration":1495914,"Delta":11372519},{"NoteNumber":53,"Velocity":32,"Duration":180995,"SoundDuration":180995,"Delta":11561198},{"NoteNumber":56,"Velocity":34,"Duration":180995,"SoundDuration":180995,"Delta":11742194},{"NoteNumber":60,"Velocity":37,"Duration":180995,"SoundDuration":180995,"Delta":11923189},{"NoteNumber":58,"Velocity":31,"Duration":214721,"SoundDuration":214721,"Delta":12104184},{"NoteNumber":56,"Velocity":31,"Duration":248447,"SoundDuration":248447,"Delta":12318906},{"NoteNumber":64,"Velocity":41,"Duration":301080,"SoundDuration":301080,"Delta":12567353},{"NoteNumber":55,"Velocity":35,"Duration":301080,"SoundDuration":301080,"Delta":12567353},{"NoteNumber":78,"Velocity":51,"Duration":145127,"SoundDuration":145127,"Delta":12868434},{"NoteNumber":79,"Velocity":53,"Duration":143679,"SoundDuration":143679,"Delta":13013561},{"NoteNumber":80,"Velocity":56,"Duration":142260,"SoundDuration":142260,"Delta":13157241},{"NoteNumber":81,"Velocity":58,"Duration":140874,"SoundDuration":140874,"Delta":13299501},{"NoteNumber":82,"Velocity":61,"Duration":139509,"SoundDuration":139509,"Delta":13440376},{"NoteNumber":83,"Velocity":63,"Duration":138176,"SoundDuration":138176,"Delta":13579885},{"NoteNumber":72,"Velocity":55,"Duration":103092,"SoundDuration":103092,"Delta":13718061},{"NoteNumber":48,"Velocity":51,"Duration":2313841,"SoundDuration":2313841,"Delta":13718061},{"NoteNumber":56,"Velocity":51,"Duration":1800152,"SoundDuration":1800152,"Delta":13718061},{"NoteNumber":41,"Velocity":43,"Duration":4652240,"SoundDuration":4652240,"Delta":13718061},{"NoteNumber":77,"Velocity":60,"Duration":103092,"SoundDuration":103092,"Delta":13821154},{"NoteNumber":80,"Velocity":66,"Duration":103092,"SoundDuration":103092,"Delta":13924247},{"NoteNumber":84,"Velocity":76,"Duration":821917,"SoundDuration":821917,"Delta":14027339},{"NoteNumber":82,"Velocity":47,"Duration":148514,"SoundDuration":148514,"Delta":14849257},{"NoteNumber":80,"Velocity":60,"Duration":134529,"SoundDuration":134529,"Delta":14997772},{"NoteNumber":82,"Velocity":50,"Duration":63025,"SoundDuration":63025,"Delta":15132301},{"NoteNumber":80,"Velocity":50,"Duration":63025,"SoundDuration":63025,"Delta":15195326},{"NoteNumber":79,"Velocity":46,"Duration":63559,"SoundDuration":63559,"Delta":15258351},{"NoteNumber":80,"Velocity":46,"Duration":63559,"SoundDuration":63559,"Delta":15321911},{"NoteNumber":82,"Velocity":54,"Duration":132743,"SoundDuration":132743,"Delta":15385470},{"NoteNumber":79,"Velocity":60,"Duration":129310,"SoundDuration":129310,"Delta":15518213},{"NoteNumber":52,"Velocity":43,"Duration":513689,"SoundDuration":513689,"Delta":15518213},{"NoteNumber":43,"Velocity":36,"Duration":513689,"SoundDuration":513689,"Delta":15518213},{"NoteNumber":80,"Velocity":49,"Duration":62761,"SoundDuration":62761,"Delta":15647524},{"NoteNumber":79,"Velocity":49,"Duration":62761,"SoundDuration":62761,"Delta":15710285},{"NoteNumber":77,"Velocity":45,"Duration":62761,"SoundDuration":62761,"Delta":15773047},{"NoteNumber":79,"Velocity":45,"Duration":62761,"SoundDuration":62761,"Delta":15835808},{"NoteNumber":80,"Velocity":51,"Duration":133333,"SoundDuration":133333,"Delta":15898570},{"NoteNumber":77,"Velocity":60,"Duration":132743,"SoundDuration":132743,"Delta":16031903},{"NoteNumber":53,"Velocity":43,"Duration":2338398,"SoundDuration":2338398,"Delta":16031903},{"NoteNumber":44,"Velocity":43,"Duration":519724,"SoundDuration":519724,"Delta":16031903},{"NoteNumber":79,"Velocity":48,"Duration":63559,"SoundDuration":63559,"Delta":16164646},{"NoteNumber":77,"Velocity":48,"Duration":63559,"SoundDuration":63559,"Delta":16228206},{"NoteNumber":76,"Velocity":43,"Duration":63559,"SoundDuration":63559,"Delta":16291765},{"NoteNumber":77,"Velocity":43,"Duration":63559,"SoundDuration":63559,"Delta":16355324},{"NoteNumber":78,"Velocity":49,"Duration":132743,"SoundDuration":132743,"Delta":16418884},{"NoteNumber":75,"Velocity":62,"Duration":132158,"SoundDuration":132158,"Delta":16551627},{"NoteNumber":45,"Velocity":39,"Duration":519139,"SoundDuration":519139,"Delta":16551627},{"NoteNumber":77,"Velocity":49,"Duration":63559,"SoundDuration":63559,"Delta":16683785},{"NoteNumber":75,"Velocity":49,"Duration":63559,"SoundDuration":63559,"Delta":16747345},{"NoteNumber":74,"Velocity":44,"Duration":63559,"SoundDuration":63559,"Delta":16810904},{"NoteNumber":75,"Velocity":44,"Duration":63559,"SoundDuration":63559,"Delta":16874464},{"NoteNumber":77,"Velocity":52,"Duration":132743,"SoundDuration":132743,"Delta":16938023},{"NoteNumber":73,"Velocity":60,"Duration":133928,"SoundDuration":133928,"Delta":17070766},{"NoteNumber":43,"Velocity":43,"Duration":523175,"SoundDuration":523175,"Delta":17070766},{"NoteNumber":75,"Velocity":49,"Duration":63829,"SoundDuration":63829,"Delta":17204695},{"NoteNumber":73,"Velocity":49,"Duration":63829,"SoundDuration":63829,"Delta":17268524},{"NoteNumber":72,"Velocity":47,"Duration":63829,"SoundDuration":63829,"Delta":17332354},{"NoteNumber":73,"Velocity":47,"Duration":63829,"SoundDuration":63829,"Delta":17396184},{"NoteNumber":75,"Velocity":51,"Duration":133928,"SoundDuration":133928,"Delta":17460014},{"NoteNumber":72,"Velocity":60,"Duration":132743,"SoundDuration":132743,"Delta":17593942},{"NoteNumber":45,"Velocity":40,"Duration":523082,"SoundDuration":523082,"Delta":17593942},{"NoteNumber":73,"Velocity":50,"Duration":64102,"SoundDuration":64102,"Delta":17726685},{"NoteNumber":72,"Velocity":50,"Duration":64102,"SoundDuration":64102,"Delta":17790788},{"NoteNumber":71,"Velocity":44,"Duration":64102,"SoundDuration":64102,"Delta":17854891},{"NoteNumber":72,"Velocity":44,"Duration":64102,"SoundDuration":64102,"Delta":17918993},{"NoteNumber":73,"Velocity":51,"Duration":133928,"SoundDuration":133928,"Delta":17983096},{"NoteNumber":70,"Velocity":60,"Duration":123967,"SoundDuration":123967,"Delta":18117024},{"NoteNumber":49,"Velocity":44,"Duration":253277,"SoundDuration":253277,"Delta":18117024},{"NoteNumber":73,"Velocity":52,"Duration":129310,"SoundDuration":129310,"Delta":18240991},{"NoteNumber":70,"Velocity":52,"Duration":123967,"SoundDuration":123967,"Delta":18370302},{"NoteNumber":49,"Velocity":32,"Duration":123967,"SoundDuration":123967,"Delta":18370302},{"NoteNumber":53,"Velocity":37,"Duration":123967,"SoundDuration":123967,"Delta":18370302},{"NoteNumber":73,"Velocity":48,"Duration":129310,"SoundDuration":129310,"Delta":18494269},{"NoteNumber":68,"Velocity":63,"Duration":123967,"SoundDuration":123967,"Delta":18623579},{"NoteNumber":51,"Velocity":41,"Duration":123967,"SoundDuration":123967,"Delta":18623579},{"NoteNumber":48,"Velocity":32,"Duration":123967,"SoundDuration":123967,"Delta":18623579},{"NoteNumber":73,"Velocity":56,"Duration":129310,"SoundDuration":129310,"Delta":18747546},{"NoteNumber":68,"Velocity":57,"Duration":125000,"SoundDuration":125000,"Delta":18876856},{"NoteNumber":48,"Velocity":36,"Duration":125000,"SoundDuration":125000,"Delta":18876856},{"NoteNumber":51,"Velocity":44,"Duration":125000,"SoundDuration":125000,"Delta":18876856},{"NoteNumber":73,"Velocity":55,"Duration":129870,"SoundDuration":129870,"Delta":19001856},{"NoteNumber":66,"Velocity":68,"Duration":126582,"SoundDuration":126582,"Delta":19131726},{"NoteNumber":49,"Velocity":47,"Duration":126582,"SoundDuration":126582,"Delta":19131726},{"NoteNumber":46,"Velocity":39,"Duration":126582,"SoundDuration":126582,"Delta":19131726},{"NoteNumber":73,"Velocity":62,"Duration":132743,"SoundDuration":132743,"Delta":19258309},{"NoteNumber":66,"Velocity":63,"Duration":128755,"SoundDuration":128755,"Delta":19391052},{"NoteNumber":46,"Velocity":43,"Duration":128755,"SoundDuration":128755,"Delta":19391052},{"NoteNumber":49,"Velocity":51,"Duration":128755,"SoundDuration":128755,"Delta":19391052},{"NoteNumber":73,"Velocity":59,"Duration":134529,"SoundDuration":134529,"Delta":19519807},{"NoteNumber":65,"Velocity":72,"Duration":142179,"SoundDuration":142179,"Delta":19654336},{"NoteNumber":48,"Velocity":55,"Duration":142179,"SoundDuration":142179,"Delta":19654336},{"NoteNumber":44,"Velocity":46,"Duration":142179,"SoundDuration":142179,"Delta":19654336},{"NoteNumber":73,"Velocity":65,"Duration":142179,"SoundDuration":142179,"Delta":19796516},{"NoteNumber":65,"Velocity":67,"Duration":142179,"SoundDuration":142179,"Delta":19938696},{"NoteNumber":48,"Velocity":60,"Duration":142179,"SoundDuration":142179,"Delta":19938696},{"NoteNumber":44,"Velocity":49,"Duration":142179,"SoundDuration":142179,"Delta":19938696},{"NoteNumber":73,"Velocity":67,"Duration":142179,"SoundDuration":142179,"Delta":20080876},{"NoteNumber":64,"Velocity":90,"Duration":298507,"SoundDuration":298507,"Delta":20223056},{"NoteNumber":46,"Velocity":64,"Duration":298507,"SoundDuration":298507,"Delta":20223056},{"NoteNumber":43,"Velocity":54,"Duration":298507,"SoundDuration":298507,"Delta":20223056},{"NoteNumber":82,"Velocity":75,"Duration":298507,"SoundDuration":298507,"Delta":20820071},{"NoteNumber":85,"Velocity":90,"Duration":298507,"SoundDuration":298507,"Delta":20820071},{"NoteNumber":79,"Velocity":75,"Duration":298507,"SoundDuration":298507,"Delta":20820071},{"NoteNumber":55,"Velocity":55,"Duration":298507,"SoundDuration":298507,"Delta":20820071},{"NoteNumber":58,"Velocity":55,"Duration":298507,"SoundDuration":298507,"Delta":20820071},{"NoteNumber":52,"Velocity":55,"Duration":298507,"SoundDuration":298507,"Delta":20820071},{"NoteNumber":61,"Velocity":65,"Duration":298507,"SoundDuration":298507,"Delta":20820071},{"NoteNumber":72,"Velocity":41,"Duration":64102,"SoundDuration":64102,"Delta":21965031},{"NoteNumber":73,"Velocity":41,"Duration":64102,"SoundDuration":64102,"Delta":22029134},{"NoteNumber":75,"Velocity":41,"Duration":64102,"SoundDuration":64102,"Delta":22093237},{"NoteNumber":73,"Velocity":47,"Duration":402684,"SoundDuration":402684,"Delta":22157339},{"NoteNumber":72,"Velocity":41,"Duration":151515,"SoundDuration":151515,"Delta":22560024},{"NoteNumber":72,"Velocity":46,"Duration":197044,"SoundDuration":197044,"Delta":22711539},{"NoteNumber":53,"Velocity":29,"Duration":575940,"SoundDuration":575940,"Delta":22711539},{"NoteNumber":56,"Velocity":35,"Duration":575940,"SoundDuration":575940,"Delta":22711539},{"NoteNumber":80,"Velocity":53,"Duration":191980,"SoundDuration":191980,"Delta":22908583},{"NoteNumber":79,"Velocity":47,"Duration":186916,"SoundDuration":186916,"Delta":23100563},{"NoteNumber":77,"Velocity":47,"Duration":186916,"SoundDuration":186916,"Delta":23287479},{"NoteNumber":72,"Velocity":43,"Duration":186916,"SoundDuration":186916,"Delta":23474395},{"NoteNumber":68,"Velocity":38,"Duration":186916,"SoundDuration":186916,"Delta":23661311},{"NoteNumber":67,"Velocity":47,"Duration":196078,"SoundDuration":196078,"Delta":23848227},{"NoteNumber":55,"Velocity":32,"Duration":566844,"SoundDuration":566844,"Delta":23848227},{"NoteNumber":49,"Velocity":27,"Duration":566844,"SoundDuration":566844,"Delta":23848227},{"NoteNumber":46,"Velocity":27,"Duration":566844,"SoundDuration":566844,"Delta":23848227},{"NoteNumber":75,"Velocity":52,"Duration":188948,"SoundDuration":188948,"Delta":24044306},{"NoteNumber":72,"Velocity":39,"Duration":181818,"SoundDuration":181818,"Delta":24233254},{"NoteNumber":73,"Velocity":44,"Duration":181818,"SoundDuration":181818,"Delta":24415072},{"NoteNumber":70,"Velocity":38,"Duration":186147,"SoundDuration":186147,"Delta":24596891},{"NoteNumber":67,"Velocity":34,"Duration":190476,"SoundDuration":190476,"Delta":24783038},{"NoteNumber":65,"Velocity":53,"Duration":188679,"SoundDuration":188679,"Delta":24973514},{"NoteNumber":56,"Velocity":43,"Duration":279177,"SoundDuration":279177,"Delta":24973514},{"NoteNumber":48,"Velocity":35,"Duration":279177,"SoundDuration":279177,"Delta":24973514},{"NoteNumber":53,"Velocity":35,"Duration":279177,"SoundDuration":279177,"Delta":24973514},{"NoteNumber":60,"Velocity":48,"Duration":180995,"SoundDuration":180995,"Delta":25162194},{"NoteNumber":65,"Velocity":49,"Duration":180995,"SoundDuration":180995,"Delta":25343189},{"NoteNumber":68,"Velocity":58,"Duration":176991,"SoundDuration":176991,"Delta":25524184},{"NoteNumber":56,"Velocity":54,"Duration":176991,"SoundDuration":176991,"Delta":25524184},{"NoteNumber":65,"Velocity":50,"Duration":180180,"SoundDuration":180180,"Delta":25701175},{"NoteNumber":53,"Velocity":46,"Duration":180180,"SoundDuration":180180,"Delta":25701175},{"NoteNumber":73,"Velocity":51,"Duration":188679,"SoundDuration":188679,"Delta":25881356},{"NoteNumber":61,"Velocity":48,"Duration":188679,"SoundDuration":188679,"Delta":25881356},{"NoteNumber":72,"Velocity":66,"Duration":303030,"SoundDuration":303030,"Delta":26070035},{"NoteNumber":60,"Velocity":54,"Duration":303030,"SoundDuration":303030,"Delta":26070035},{"NoteNumber":76,"Velocity":78,"Duration":226130,"SoundDuration":226130,"Delta":26676096},{"NoteNumber":67,"Velocity":66,"Duration":226130,"SoundDuration":226130,"Delta":26676096},{"NoteNumber":72,"Velocity":66,"Duration":226130,"SoundDuration":226130,"Delta":26676096},{"NoteNumber":48,"Velocity":50,"Duration":226130,"SoundDuration":226130,"Delta":26676096},{"NoteNumber":60,"Velocity":60,"Duration":226130,"SoundDuration":226130,"Delta":26676096},{"NoteNumber":77,"Velocity":78,"Duration":230769,"SoundDuration":230769,"Delta":27279111},{"NoteNumber":68,"Velocity":66,"Duration":230769,"SoundDuration":230769,"Delta":27279111},{"NoteNumber":72,"Velocity":66,"Duration":230769,"SoundDuration":230769,"Delta":27279111},{"NoteNumber":41,"Velocity":50,"Duration":230769,"SoundDuration":230769,"Delta":27279111},{"NoteNumber":53,"Velocity":60,"Duration":230769,"SoundDuration":230769,"Delta":27279111},{"NoteNumber":68,"Velocity":45,"Duration":119521,"SoundDuration":119521,"Delta":27586804},{"NoteNumber":72,"Velocity":28,"Duration":119521,"SoundDuration":119521,"Delta":27706326},{"NoteNumber":68,"Velocity":39,"Duration":119521,"SoundDuration":119521,"Delta":27825848},{"NoteNumber":65,"Velocity":27,"Duration":482022,"SoundDuration":482022,"Delta":27825848},{"NoteNumber":53,"Velocity":22,"Duration":482022,"SoundDuration":482022,"Delta":27825848},{"NoteNumber":72,"Velocity":28,"Duration":119521,"SoundDuration":119521,"Delta":27945370},{"NoteNumber":68,"Velocity":38,"Duration":119521,"SoundDuration":119521,"Delta":28064892},{"NoteNumber":72,"Velocity":31,"Duration":123456,"SoundDuration":123456,"Delta":28184414},{"NoteNumber":67,"Velocity":45,"Duration":119047,"SoundDuration":119047,"Delta":28307870},{"NoteNumber":71,"Velocity":30,"Duration":119047,"SoundDuration":119047,"Delta":28426918},{"NoteNumber":68,"Velocity":45,"Duration":119047,"SoundDuration":119047,"Delta":28545965},{"NoteNumber":72,"Velocity":32,"Duration":119047,"SoundDuration":119047,"Delta":28665013},{"NoteNumber":68,"Velocity":39,"Duration":119047,"SoundDuration":119047,"Delta":28784060},{"NoteNumber":53,"Velocity":22,"Duration":485897,"SoundDuration":485897,"Delta":28784060},{"NoteNumber":65,"Velocity":27,"Duration":485897,"SoundDuration":485897,"Delta":28784060},{"NoteNumber":72,"Velocity":27,"Duration":119047,"SoundDuration":119047,"Delta":28903108},{"NoteNumber":68,"Velocity":40,"Duration":119047,"SoundDuration":119047,"Delta":29022155},{"NoteNumber":72,"Velocity":30,"Duration":128755,"SoundDuration":128755,"Delta":29141203},{"NoteNumber":69,"Velocity":45,"Duration":118110,"SoundDuration":118110,"Delta":29269958},{"NoteNumber":75,"Velocity":31,"Duration":118110,"SoundDuration":118110,"Delta":29388068},{"NoteNumber":70,"Velocity":38,"Duration":117647,"SoundDuration":117647,"Delta":29506179},{"NoteNumber":73,"Velocity":30,"Duration":117646,"SoundDuration":117646,"Delta":29623826},{"NoteNumber":70,"Velocity":38,"Duration":117647,"SoundDuration":117647,"Delta":29741473},{"NoteNumber":65,"Velocity":27,"Duration":484519,"SoundDuration":484519,"Delta":29741473},{"NoteNumber":53,"Velocity":22,"Duration":484519,"SoundDuration":484519,"Delta":29741473},{"NoteNumber":73,"Velocity":32,"Duration":117646,"SoundDuration":117646,"Delta":29859120},{"NoteNumber":70,"Velocity":40,"Duration":117647,"SoundDuration":117647,"Delta":29976767},{"NoteNumber":73,"Velocity":28,"Duration":131578,"SoundDuration":131578,"Delta":30094414},{"NoteNumber":73,"Velocity":47,"Duration":117187,"SoundDuration":117187,"Delta":30225993},{"NoteNumber":77,"Velocity":38,"Duration":117187,"SoundDuration":117187,"Delta":30343180},{"NoteNumber":70,"Velocity":45,"Duration":117187,"SoundDuration":117187,"Delta":30460368},{"NoteNumber":73,"Velocity":32,"Duration":117187,"SoundDuration":117187,"Delta":30577555},{"NoteNumber":68,"Velocity":40,"Duration":117187,"SoundDuration":117187,"Delta":30694743},{"NoteNumber":53,"Velocity":22,"Duration":476310,"SoundDuration":476310,"Delta":30694743},{"NoteNumber":65,"Velocity":27,"Duration":476310,"SoundDuration":476310,"Delta":30694743},{"NoteNumber":73,"Velocity":31,"Duration":117187,"SoundDuration":117187,"Delta":30811930},{"NoteNumber":67,"Velocity":37,"Duration":120967,"SoundDuration":120967,"Delta":30929118},{"NoteNumber":73,"Velocity":31,"Duration":120967,"SoundDuration":120967,"Delta":31050085},{"NoteNumber":68,"Velocity":45,"Duration":117187,"SoundDuration":117187,"Delta":31171053},{"NoteNumber":73,"Velocity":30,"Duration":117187,"SoundDuration":117187,"Delta":31288241},{"NoteNumber":68,"Velocity":36,"Duration":117187,"SoundDuration":117187,"Delta":31405428},{"NoteNumber":72,"Velocity":27,"Duration":117187,"SoundDuration":117187,"Delta":31522616},{"NoteNumber":68,"Velocity":38,"Duration":117187,"SoundDuration":117187,"Delta":31639803},{"NoteNumber":53,"Velocity":22,"Duration":468750,"SoundDuration":468750,"Delta":31639803},{"NoteNumber":65,"Velocity":27,"Duration":468750,"SoundDuration":468750,"Delta":31639803},{"NoteNumber":72,"Velocity":31,"Duration":117187,"SoundDuration":117187,"Delta":31756991},{"NoteNumber":68,"Velocity":33,"Duration":117187,"SoundDuration":117187,"Delta":31874178},{"NoteNumber":72,"Velocity":28,"Duration":117187,"SoundDuration":117187,"Delta":31991366},{"NoteNumber":68,"Velocity":47,"Duration":118577,"SoundDuration":118577,"Delta":32108553},{"NoteNumber":46,"Velocity":27,"Duration":237153,"SoundDuration":237153,"Delta":32108553},{"NoteNumber":72,"Velocity":30,"Duration":118576,"SoundDuration":118576,"Delta":32227130},{"NoteNumber":66,"Velocity":35,"Duration":118577,"SoundDuration":118577,"Delta":32345707},{"NoteNumber":70,"Velocity":31,"Duration":118577,"SoundDuration":118577,"Delta":32464284},{"NoteNumber":66,"Velocity":40,"Duration":118577,"SoundDuration":118577,"Delta":32582861},{"NoteNumber":54,"Velocity":22,"Duration":237153,"SoundDuration":237153,"Delta":32582861},{"NoteNumber":58,"Velocity":27,"Duration":237153,"SoundDuration":237153,"Delta":32582861},{"NoteNumber":70,"Velocity":28,"Duration":118576,"SoundDuration":118576,"Delta":32701438},{"NoteNumber":66,"Velocity":36,"Duration":118577,"SoundDuration":118577,"Delta":32820015},{"NoteNumber":70,"Velocity":29,"Duration":129870,"SoundDuration":129870,"Delta":32938592},{"NoteNumber":66,"Velocity":45,"Duration":118577,"SoundDuration":118577,"Delta":33068462},{"NoteNumber":48,"Velocity":27,"Duration":237153,"SoundDuration":237153,"Delta":33068462},{"NoteNumber":70,"Velocity":27,"Duration":118576,"SoundDuration":118576,"Delta":33187039},{"NoteNumber":65,"Velocity":34,"Duration":118577,"SoundDuration":118577,"Delta":33305616},{"NoteNumber":68,"Velocity":27,"Duration":118577,"SoundDuration":118577,"Delta":33424193},{"NoteNumber":65,"Velocity":36,"Duration":118577,"SoundDuration":118577,"Delta":33542770},{"NoteNumber":53,"Velocity":22,"Duration":237153,"SoundDuration":237153,"Delta":33542770},{"NoteNumber":56,"Velocity":27,"Duration":237153,"SoundDuration":237153,"Delta":33542770},{"NoteNumber":68,"Velocity":27,"Duration":118576,"SoundDuration":118576,"Delta":33661347},{"NoteNumber":65,"Velocity":32,"Duration":118577,"SoundDuration":118577,"Delta":33779924},{"NoteNumber":68,"Velocity":28,"Duration":129870,"SoundDuration":129870,"Delta":33898501},{"NoteNumber":65,"Velocity":45,"Duration":119522,"SoundDuration":119522,"Delta":34028372},{"NoteNumber":48,"Velocity":27,"Duration":239043,"SoundDuration":239043,"Delta":34028372},{"NoteNumber":68,"Velocity":27,"Duration":119521,"SoundDuration":119521,"Delta":34147894},{"NoteNumber":64,"Velocity":33,"Duration":119522,"SoundDuration":119522,"Delta":34267416},{"NoteNumber":67,"Velocity":27,"Duration":119521,"SoundDuration":119521,"Delta":34386938},{"NoteNumber":64,"Velocity":39,"Duration":119522,"SoundDuration":119522,"Delta":34506460},{"NoteNumber":52,"Velocity":22,"Duration":239043,"SoundDuration":239043,"Delta":34506460},{"NoteNumber":55,"Velocity":27,"Duration":239043,"SoundDuration":239043,"Delta":34506460},{"NoteNumber":67,"Velocity":28,"Duration":119521,"SoundDuration":119521,"Delta":34625982},{"NoteNumber":64,"Velocity":36,"Duration":119522,"SoundDuration":119522,"Delta":34745504},{"NoteNumber":67,"Velocity":29,"Duration":119521,"SoundDuration":119521,"Delta":34865026},{"NoteNumber":65,"Velocity":60,"Duration":267856,"SoundDuration":267856,"Delta":34984548},{"NoteNumber":41,"Velocity":40,"Duration":267856,"SoundDuration":267856,"Delta":34984548},{"NoteNumber":68,"Velocity":45,"Duration":119522,"SoundDuration":119522,"Delta":35252405},{"NoteNumber":72,"Velocity":28,"Duration":119521,"SoundDuration":119521,"Delta":35371927},{"NoteNumber":68,"Velocity":39,"Duration":119522,"SoundDuration":119522,"Delta":35491449},{"NoteNumber":65,"Velocity":27,"Duration":482022,"SoundDuration":482022,"Delta":35491449},{"NoteNumber":53,"Velocity":22,"Duration":482022,"SoundDuration":482022,"Delta":35491449},{"NoteNumber":72,"Velocity":28,"Duration":119521,"SoundDuration":119521,"Delta":35610971},{"NoteNumber":68,"Velocity":38,"Duration":119522,"SoundDuration":119522,"Delta":35730493},{"NoteNumber":72,"Velocity":31,"Duration":123456,"SoundDuration":123456,"Delta":35850015},{"NoteNumber":67,"Velocity":45,"Duration":119047,"SoundDuration":119047,"Delta":35973471},{"NoteNumber":71,"Velocity":30,"Duration":119047,"SoundDuration":119047,"Delta":36092519},{"NoteNumber":68,"Velocity":45,"Duration":119047,"SoundDuration":119047,"Delta":36211566},{"NoteNumber":72,"Velocity":32,"Duration":119047,"SoundDuration":119047,"Delta":36330614},{"NoteNumber":68,"Velocity":39,"Duration":119047,"SoundDuration":119047,"Delta":36449661},{"NoteNumber":65,"Velocity":27,"Duration":485897,"SoundDuration":485897,"Delta":36449661},{"NoteNumber":53,"Velocity":22,"Duration":485897,"SoundDuration":485897,"Delta":36449661},{"NoteNumber":72,"Velocity":27,"Duration":119047,"SoundDuration":119047,"Delta":36568709},{"NoteNumber":68,"Velocity":40,"Duration":119047,"SoundDuration":119047,"Delta":36687756},{"NoteNumber":72,"Velocity":30,"Duration":128755,"SoundDuration":128755,"Delta":36806804},{"NoteNumber":69,"Velocity":45,"Duration":118110,"SoundDuration":118110,"Delta":36935559},{"NoteNumber":75,"Velocity":31,"Duration":118110,"SoundDuration":118110,"Delta":37053669},{"NoteNumber":70,"Velocity":38,"Duration":116731,"SoundDuration":116731,"Delta":37171780},{"NoteNumber":73,"Velocity":30,"Duration":116731,"SoundDuration":116731,"Delta":37288511},{"NoteNumber":70,"Velocity":38,"Duration":116731,"SoundDuration":116731,"Delta":37405243},{"NoteNumber":65,"Velocity":27,"Duration":481773,"SoundDuration":481773,"Delta":37405243},{"NoteNumber":58,"Velocity":22,"Duration":481773,"SoundDuration":481773,"Delta":37405243},{"NoteNumber":73,"Velocity":31,"Duration":116731,"SoundDuration":116731,"Delta":37521974},{"NoteNumber":70,"Velocity":33,"Duration":116731,"SoundDuration":116731,"Delta":37638706},{"NoteNumber":73,"Velocity":28,"Duration":131579,"SoundDuration":131579,"Delta":37755437},{"NoteNumber":73,"Velocity":47,"Duration":116278,"SoundDuration":116278,"Delta":37887016},{"NoteNumber":77,"Velocity":38,"Duration":116278,"SoundDuration":116278,"Delta":38003295},{"NoteNumber":70,"Velocity":45,"Duration":116279,"SoundDuration":116279,"Delta":38119574},{"NoteNumber":73,"Velocity":32,"Duration":116278,"SoundDuration":116278,"Delta":38235853},{"NoteNumber":68,"Velocity":40,"Duration":116278,"SoundDuration":116278,"Delta":38352132},{"NoteNumber":51,"Velocity":22,"Duration":474493,"SoundDuration":474493,"Delta":38352132},{"NoteNumber":63,"Velocity":27,"Duration":474493,"SoundDuration":474493,"Delta":38352132},{"NoteNumber":73,"Velocity":31,"Duration":116278,"SoundDuration":116278,"Delta":38468411},{"NoteNumber":67,"Velocity":37,"Duration":120967,"SoundDuration":120967,"Delta":38584690},{"NoteNumber":73,"Velocity":31,"Duration":120967,"SoundDuration":120967,"Delta":38705658},{"NoteNumber":68,"Velocity":45,"Duration":117187,"SoundDuration":117187,"Delta":38826626},{"NoteNumber":73,"Velocity":30,"Duration":117187,"SoundDuration":117187,"Delta":38943813},{"NoteNumber":68,"Velocity":36,"Duration":117187,"SoundDuration":117187,"Delta":39061001},{"NoteNumber":72,"Velocity":27,"Duration":117187,"SoundDuration":117187,"Delta":39178188},{"NoteNumber":68,"Velocity":38,"Duration":117187,"SoundDuration":117187,"Delta":39295376},{"NoteNumber":56,"Velocity":22,"Duration":468750,"SoundDuration":468750,"Delta":39295376},{"NoteNumber":63,"Velocity":27,"Duration":468750,"SoundDuration":468750,"Delta":39295376},{"NoteNumber":72,"Velocity":31,"Duration":117187,"SoundDuration":117187,"Delta":39412563},{"NoteNumber":68,"Velocity":33,"Duration":117187,"SoundDuration":117187,"Delta":39529751},{"NoteNumber":72,"Velocity":28,"Duration":117187,"SoundDuration":117187,"Delta":39646938},{"NoteNumber":72,"Velocity":47,"Duration":118577,"SoundDuration":118577,"Delta":39764126},{"NoteNumber":49,"Velocity":27,"Duration":237153,"SoundDuration":237153,"Delta":39764126},{"NoteNumber":75,"Velocity":30,"Duration":118576,"SoundDuration":118576,"Delta":39882703},{"NoteNumber":65,"Velocity":35,"Duration":118577,"SoundDuration":118577,"Delta":40001280},{"NoteNumber":70,"Velocity":31,"Duration":118577,"SoundDuration":118577,"Delta":40119857},{"NoteNumber":73,"Velocity":50,"Duration":114503,"SoundDuration":114503,"Delta":40238434},{"NoteNumber":61,"Velocity":22,"Duration":229007,"SoundDuration":229007,"Delta":40238434},{"NoteNumber":65,"Velocity":27,"Duration":229007,"SoundDuration":229007,"Delta":40238434},{"NoteNumber":77,"Velocity":34,"Duration":114503,"SoundDuration":114503,"Delta":40352937},{"NoteNumber":75,"Velocity":43,"Duration":114503,"SoundDuration":114503,"Delta":40467441},{"NoteNumber":73,"Velocity":35,"Duration":129870,"SoundDuration":129870,"Delta":40581945},{"NoteNumber":70,"Velocity":45,"Duration":118577,"SoundDuration":118577,"Delta":40711815},{"NoteNumber":51,"Velocity":27,"Duration":237153,"SoundDuration":237153,"Delta":40711815},{"NoteNumber":73,"Velocity":27,"Duration":118576,"SoundDuration":118576,"Delta":40830392},{"NoteNumber":63,"Velocity":34,"Duration":118577,"SoundDuration":118577,"Delta":40948969},{"NoteNumber":68,"Velocity":27,"Duration":118577,"SoundDuration":118577,"Delta":41067546},{"NoteNumber":72,"Velocity":47,"Duration":114942,"SoundDuration":114942,"Delta":41186123},{"NoteNumber":63,"Velocity":27,"Duration":229885,"SoundDuration":229885,"Delta":41186123},{"NoteNumber":60,"Velocity":22,"Duration":229885,"SoundDuration":229885,"Delta":41186123},{"NoteNumber":75,"Velocity":35,"Duration":114942,"SoundDuration":114942,"Delta":41301066},{"NoteNumber":73,"Velocity":41,"Duration":114942,"SoundDuration":114942,"Delta":41416008},{"NoteNumber":72,"Velocity":36,"Duration":129870,"SoundDuration":129870,"Delta":41530951},{"NoteNumber":69,"Velocity":45,"Duration":119522,"SoundDuration":119522,"Delta":41660821},{"NoteNumber":51,"Velocity":27,"Duration":239043,"SoundDuration":239043,"Delta":41660821},{"NoteNumber":72,"Velocity":27,"Duration":119521,"SoundDuration":119521,"Delta":41780343},{"NoteNumber":63,"Velocity":33,"Duration":119522,"SoundDuration":119522,"Delta":41899865},{"NoteNumber":67,"Velocity":27,"Duration":119521,"SoundDuration":119521,"Delta":42019387},{"NoteNumber":70,"Velocity":46,"Duration":115384,"SoundDuration":115384,"Delta":42138909},{"NoteNumber":55,"Velocity":22,"Duration":230769,"SoundDuration":230769,"Delta":42138909},{"NoteNumber":61,"Velocity":27,"Duration":230769,"SoundDuration":230769,"Delta":42138909},{"NoteNumber":73,"Velocity":36,"Duration":115384,"SoundDuration":115384,"Delta":42254293},{"NoteNumber":72,"Velocity":40,"Duration":115384,"SoundDuration":115384,"Delta":42369678},{"NoteNumber":70,"Velocity":34,"Duration":115384,"SoundDuration":115384,"Delta":42485062},{"NoteNumber":68,"Velocity":50,"Duration":267856,"SoundDuration":267856,"Delta":42600447},{"NoteNumber":56,"Velocity":41,"Duration":267856,"SoundDuration":267856,"Delta":42600447},{"NoteNumber":60,"Velocity":41,"Duration":267856,"SoundDuration":267856,"Delta":42600447},{"NoteNumber":68,"Velocity":45,"Duration":119522,"SoundDuration":119522,"Delta":42868304},{"NoteNumber":63,"Velocity":27,"Duration":119522,"SoundDuration":119522,"Delta":42868304},{"NoteNumber":72,"Velocity":28,"Duration":119521,"SoundDuration":119521,"Delta":42987826},{"NoteNumber":68,"Velocity":39,"Duration":119522,"SoundDuration":119522,"Delta":43107348},{"NoteNumber":63,"Velocity":30,"Duration":119522,"SoundDuration":119522,"Delta":43107348},{"NoteNumber":72,"Velocity":28,"Duration":119521,"SoundDuration":119521,"Delta":43226870},{"NoteNumber":68,"Velocity":38,"Duration":119522,"SoundDuration":119522,"Delta":43346392},{"NoteNumber":63,"Velocity":27,"Duration":119522,"SoundDuration":119522,"Delta":43346392},{"NoteNumber":72,"Velocity":31,"Duration":123456,"SoundDuration":123456,"Delta":43465914},{"NoteNumber":71,"Velocity":45,"Duration":119047,"SoundDuration":119047,"Delta":43589371},{"NoteNumber":64,"Velocity":37,"Duration":238095,"SoundDuration":238095,"Delta":43589371},{"NoteNumber":74,"Velocity":30,"Duration":119047,"SoundDuration":119047,"Delta":43708418},{"NoteNumber":72,"Velocity":45,"Duration":119047,"SoundDuration":119047,"Delta":43827466},{"NoteNumber":63,"Velocity":27,"Duration":238095,"SoundDuration":238095,"Delta":43827466},{"NoteNumber":75,"Velocity":32,"Duration":119047,"SoundDuration":119047,"Delta":43946513},{"NoteNumber":72,"Velocity":39,"Duration":119047,"SoundDuration":119047,"Delta":44065561},{"NoteNumber":63,"Velocity":30,"Duration":119047,"SoundDuration":119047,"Delta":44065561},{"NoteNumber":75,"Velocity":27,"Duration":119047,"SoundDuration":119047,"Delta":44184608},{"NoteNumber":72,"Velocity":40,"Duration":119047,"SoundDuration":119047,"Delta":44303656},{"NoteNumber":63,"Velocity":27,"Duration":119047,"SoundDuration":119047,"Delta":44303656},{"NoteNumber":75,"Velocity":30,"Duration":128755,"SoundDuration":128755,"Delta":44422703},{"NoteNumber":72,"Velocity":45,"Duration":122950,"SoundDuration":122950,"Delta":44551458},{"NoteNumber":51,"Velocity":38,"Duration":241061,"SoundDuration":241061,"Delta":44551458},{"NoteNumber":75,"Velocity":37,"Duration":118110,"SoundDuration":118110,"Delta":44674409},{"NoteNumber":73,"Velocity":44,"Duration":118110,"SoundDuration":118110,"Delta":44792519},{"NoteNumber":63,"Velocity":27,"Duration":118110,"SoundDuration":118110,"Delta":44792519},{"NoteNumber":76,"Velocity":39,"Duration":118110,"SoundDuration":118110,"Delta":44910630},{"NoteNumber":79,"Velocity":52,"Duration":118110,"SoundDuration":118110,"Delta":45028740},{"NoteNumber":63,"Velocity":27,"Duration":118110,"SoundDuration":118110,"Delta":45028740},{"NoteNumber":82,"Velocity":46,"Duration":118110,"SoundDuration":118110,"Delta":45146850},{"NoteNumber":72,"Velocity":44,"Duration":118110,"SoundDuration":118110,"Delta":45264960},{"NoteNumber":63,"Velocity":27,"Duration":118110,"SoundDuration":118110,"Delta":45264960},{"NoteNumber":75,"Velocity":36,"Duration":118110,"SoundDuration":118110,"Delta":45383071},{"NoteNumber":73,"Velocity":48,"Duration":116278,"SoundDuration":116278,"Delta":45501181},{"NoteNumber":51,"Velocity":44,"Duration":232557,"SoundDuration":232557,"Delta":45501181},{"NoteNumber":76,"Velocity":51,"Duration":116278,"SoundDuration":116278,"Delta":45617460},{"NoteNumber":79,"Velocity":55,"Duration":116279,"SoundDuration":116279,"Delta":45733739},{"NoteNumber":63,"Velocity":37,"Duration":116279,"SoundDuration":116279,"Delta":45733739},{"NoteNumber":82,"Velocity":58,"Duration":116278,"SoundDuration":116278,"Delta":45850018},{"NoteNumber":80,"Velocity":61,"Duration":116278,"SoundDuration":116278,"Delta":45966297},{"NoteNumber":63,"Velocity":40,"Duration":116278,"SoundDuration":116278,"Delta":45966297},{"NoteNumber":79,"Velocity":59,"Duration":116278,"SoundDuration":116278,"Delta":46082576},{"NoteNumber":77,"Velocity":57,"Duration":116278,"SoundDuration":116278,"Delta":46198855},{"NoteNumber":51,"Velocity":44,"Duration":116278,"SoundDuration":116278,"Delta":46198855},{"NoteNumber":61,"Velocity":44,"Duration":116278,"SoundDuration":116278,"Delta":46198855},{"NoteNumber":63,"Velocity":44,"Duration":116278,"SoundDuration":116278,"Delta":46198855},{"NoteNumber":79,"Velocity":62,"Duration":125523,"SoundDuration":125523,"Delta":46315134},{"NoteNumber":80,"Velocity":72,"Duration":231659,"SoundDuration":231659,"Delta":46440657},{"NoteNumber":56,"Velocity":48,"Duration":231659,"SoundDuration":231659,"Delta":46440657},{"NoteNumber":63,"Velocity":48,"Duration":231659,"SoundDuration":231659,"Delta":46440657},{"NoteNumber":60,"Velocity":48,"Duration":231659,"SoundDuration":231659,"Delta":46440657},{"NoteNumber":68,"Velocity":51,"Duration":119522,"SoundDuration":119522,"Delta":46672317},{"NoteNumber":63,"Velocity":31,"Duration":119522,"SoundDuration":119522,"Delta":46672317},{"NoteNumber":72,"Velocity":32,"Duration":119521,"SoundDuration":119521,"Delta":46791839},{"NoteNumber":68,"Velocity":44,"Duration":119522,"SoundDuration":119522,"Delta":46911361},{"NoteNumber":63,"Velocity":34,"Duration":119522,"SoundDuration":119522,"Delta":46911361},{"NoteNumber":72,"Velocity":32,"Duration":119521,"SoundDuration":119521,"Delta":47030883},{"NoteNumber":68,"Velocity":43,"Duration":119522,"SoundDuration":119522,"Delta":47150405},{"NoteNumber":63,"Velocity":31,"Duration":119522,"SoundDuration":119522,"Delta":47150405},{"NoteNumber":72,"Velocity":35,"Duration":123456,"SoundDuration":123456,"Delta":47269927},{"NoteNumber":71,"Velocity":51,"Duration":119047,"SoundDuration":119047,"Delta":47393384},{"NoteNumber":64,"Velocity":42,"Duration":238095,"SoundDuration":238095,"Delta":47393384},{"NoteNumber":74,"Velocity":34,"Duration":119047,"SoundDuration":119047,"Delta":47512431},{"NoteNumber":72,"Velocity":51,"Duration":119047,"SoundDuration":119047,"Delta":47631479},{"NoteNumber":63,"Velocity":31,"Duration":119047,"SoundDuration":119047,"Delta":47631479},{"NoteNumber":75,"Velocity":36,"Duration":119047,"SoundDuration":119047,"Delta":47750526},{"NoteNumber":72,"Velocity":44,"Duration":119047,"SoundDuration":119047,"Delta":47869574},{"NoteNumber":63,"Velocity":34,"Duration":119047,"SoundDuration":119047,"Delta":47869574},{"NoteNumber":75,"Velocity":31,"Duration":119047,"SoundDuration":119047,"Delta":47988621},{"NoteNumber":72,"Velocity":46,"Duration":119047,"SoundDuration":119047,"Delta":48107669},{"NoteNumber":66,"Velocity":31,"Duration":119047,"SoundDuration":119047,"Delta":48107669},{"NoteNumber":75,"Velocity":34,"Duration":128755,"SoundDuration":128755,"Delta":48226716},{"NoteNumber":74,"Velocity":51,"Duration":122950,"SoundDuration":122950,"Delta":48355471},{"NoteNumber":53,"Velocity":43,"Duration":241061,"SoundDuration":241061,"Delta":48355471},{"NoteNumber":77,"Velocity":42,"Duration":118110,"SoundDuration":118110,"Delta":48478422},{"NoteNumber":75,"Velocity":50,"Duration":118110,"SoundDuration":118110,"Delta":48596532},{"NoteNumber":65,"Velocity":31,"Duration":118110,"SoundDuration":118110,"Delta":48596532},{"NoteNumber":78,"Velocity":44,"Duration":118110,"SoundDuration":118110,"Delta":48714643},{"NoteNumber":81,"Velocity":59,"Duration":118110,"SoundDuration":118110,"Delta":48832753},{"NoteNumber":65,"Velocity":31,"Duration":118110,"SoundDuration":118110,"Delta":48832753},{"NoteNumber":84,"Velocity":52,"Duration":118110,"SoundDuration":118110,"Delta":48950863},{"NoteNumber":74,"Velocity":50,"Duration":118110,"SoundDuration":118110,"Delta":49068973},{"NoteNumber":65,"Velocity":31,"Duration":118110,"SoundDuration":118110,"Delta":49068973},{"NoteNumber":77,"Velocity":41,"Duration":118110,"SoundDuration":118110,"Delta":49187084},{"NoteNumber":75,"Velocity":55,"Duration":116278,"SoundDuration":116278,"Delta":49305194},{"NoteNumber":53,"Velocity":50,"Duration":232557,"SoundDuration":232557,"Delta":49305194},{"NoteNumber":78,"Velocity":58,"Duration":116278,"SoundDuration":116278,"Delta":49421473},{"NoteNumber":81,"Velocity":63,"Duration":116279,"SoundDuration":116279,"Delta":49537752},{"NoteNumber":65,"Velocity":42,"Duration":116279,"SoundDuration":116279,"Delta":49537752},{"NoteNumber":84,"Velocity":66,"Duration":116278,"SoundDuration":116278,"Delta":49654031},{"NoteNumber":82,"Velocity":70,"Duration":116278,"SoundDuration":116278,"Delta":49770310},{"NoteNumber":65,"Velocity":46,"Duration":116278,"SoundDuration":116278,"Delta":49770310},{"NoteNumber":81,"Velocity":67,"Duration":116278,"SoundDuration":116278,"Delta":49886589},{"NoteNumber":79,"Velocity":65,"Duration":116278,"SoundDuration":116278,"Delta":50002868},{"NoteNumber":65,"Velocity":50,"Duration":116278,"SoundDuration":116278,"Delta":50002868},{"NoteNumber":63,"Velocity":50,"Duration":116278,"SoundDuration":116278,"Delta":50002868},{"NoteNumber":53,"Velocity":50,"Duration":116278,"SoundDuration":116278,"Delta":50002868},{"NoteNumber":81,"Velocity":71,"Duration":125523,"SoundDuration":125523,"Delta":50119147},{"NoteNumber":82,"Velocity":77,"Duration":231659,"SoundDuration":231659,"Delta":50244670},{"NoteNumber":58,"Velocity":55,"Duration":231659,"SoundDuration":231659,"Delta":50244670},{"NoteNumber":61,"Velocity":55,"Duration":231659,"SoundDuration":231659,"Delta":50244670},{"NoteNumber":65,"Velocity":55,"Duration":231659,"SoundDuration":231659,"Delta":50244670},{"NoteNumber":73,"Velocity":51,"Duration":119522,"SoundDuration":119522,"Delta":50476330},{"NoteNumber":65,"Velocity":31,"Duration":119522,"SoundDuration":119522,"Delta":50476330},{"NoteNumber":77,"Velocity":32,"Duration":119521,"SoundDuration":119521,"Delta":50595852},{"NoteNumber":73,"Velocity":44,"Duration":119522,"SoundDuration":119522,"Delta":50715374},{"NoteNumber":65,"Velocity":34,"Duration":119522,"SoundDuration":119522,"Delta":50715374},{"NoteNumber":77,"Velocity":32,"Duration":119521,"SoundDuration":119521,"Delta":50834896},{"NoteNumber":73,"Velocity":43,"Duration":119522,"SoundDuration":119522,"Delta":50954418},{"NoteNumber":65,"Velocity":31,"Duration":119522,"SoundDuration":119522,"Delta":50954418},{"NoteNumber":77,"Velocity":35,"Duration":123456,"SoundDuration":123456,"Delta":51073940},{"NoteNumber":72,"Velocity":51,"Duration":119047,"SoundDuration":119047,"Delta":51197397},{"NoteNumber":66,"Velocity":42,"Duration":238095,"SoundDuration":238095,"Delta":51197397},{"NoteNumber":76,"Velocity":34,"Duration":119047,"SoundDuration":119047,"Delta":51316444},{"NoteNumber":73,"Velocity":51,"Duration":119047,"SoundDuration":119047,"Delta":51435492},{"NoteNumber":65,"Velocity":31,"Duration":119047,"SoundDuration":119047,"Delta":51435492},{"NoteNumber":77,"Velocity":36,"Duration":119047,"SoundDuration":119047,"Delta":51554539},{"NoteNumber":73,"Velocity":44,"Duration":119047,"SoundDuration":119047,"Delta":51673587},{"NoteNumber":65,"Velocity":34,"Duration":119047,"SoundDuration":119047,"Delta":51673587},{"NoteNumber":77,"Velocity":31,"Duration":119047,"SoundDuration":119047,"Delta":51792634},{"NoteNumber":73,"Velocity":46,"Duration":119047,"SoundDuration":119047,"Delta":51911682},{"NoteNumber":65,"Velocity":31,"Duration":119047,"SoundDuration":119047,"Delta":51911682},{"NoteNumber":77,"Velocity":34,"Duration":128755,"SoundDuration":128755,"Delta":52030729},{"NoteNumber":82,"Velocity":72,"Duration":115830,"SoundDuration":115830,"Delta":52159484},{"NoteNumber":55,"Velocity":49,"Duration":956418,"SoundDuration":956418,"Delta":52159484},{"NoteNumber":73,"Velocity":35,"Duration":119522,"SoundDuration":119522,"Delta":52275314},{"NoteNumber":76,"Velocity":46,"Duration":119522,"SoundDuration":119522,"Delta":52394836},{"NoteNumber":61,"Velocity":31,"Duration":721066,"SoundDuration":721066,"Delta":52394836},{"NoteNumber":64,"Velocity":31,"Duration":239043,"SoundDuration":239043,"Delta":52394836},{"NoteNumber":73,"Velocity":32,"Duration":119521,"SoundDuration":119521,"Delta":52514358},{"NoteNumber":75,"Velocity":44,"Duration":119522,"SoundDuration":119522,"Delta":52633880},{"NoteNumber":63,"Velocity":34,"Duration":239043,"SoundDuration":239043,"Delta":52633880},{"NoteNumber":73,"Velocity":32,"Duration":119521,"SoundDuration":119521,"Delta":52753402},{"NoteNumber":76,"Velocity":43,"Duration":119522,"SoundDuration":119522,"Delta":52872924},{"NoteNumber":64,"Velocity":31,"Duration":242978,"SoundDuration":242978,"Delta":52872924},{"NoteNumber":73,"Velocity":35,"Duration":123456,"SoundDuration":123456,"Delta":52992446},{"NoteNumber":80,"Velocity":67,"Duration":116278,"SoundDuration":116278,"Delta":53115903},{"NoteNumber":56,"Velocity":50,"Duration":962166,"SoundDuration":962166,"Delta":53115903},{"NoteNumber":72,"Velocity":34,"Duration":119522,"SoundDuration":119522,"Delta":53232182},{"NoteNumber":77,"Velocity":45,"Duration":119521,"SoundDuration":119521,"Delta":53351704},{"NoteNumber":65,"Velocity":31,"Duration":239043,"SoundDuration":239043,"Delta":53351704},{"NoteNumber":60,"Velocity":31,"Duration":726365,"SoundDuration":726365,"Delta":53351704},{"NoteNumber":72,"Velocity":36,"Duration":119522,"SoundDuration":119522,"Delta":53471226},{"NoteNumber":75,"Velocity":44,"Duration":119521,"SoundDuration":119521,"Delta":53590748},{"NoteNumber":63,"Velocity":34,"Duration":239043,"SoundDuration":239043,"Delta":53590748},{"NoteNumber":72,"Velocity":31,"Duration":119522,"SoundDuration":119522,"Delta":53710270},{"NoteNumber":80,"Velocity":63,"Duration":119521,"SoundDuration":119521,"Delta":53829792},{"NoteNumber":68,"Velocity":31,"Duration":248277,"SoundDuration":248277,"Delta":53829792},{"NoteNumber":72,"Velocity":34,"Duration":128755,"SoundDuration":128755,"Delta":53949314},{"NoteNumber":85,"Velocity":72,"Duration":115830,"SoundDuration":115830,"Delta":54078069},{"NoteNumber":82,"Velocity":61,"Duration":115830,"SoundDuration":115830,"Delta":54078069},{"NoteNumber":55,"Velocity":49,"Duration":956418,"SoundDuration":956418,"Delta":54078069},{"NoteNumber":73,"Velocity":35,"Duration":119522,"SoundDuration":119522,"Delta":54193899},{"NoteNumber":76,"Velocity":46,"Duration":119522,"SoundDuration":119522,"Delta":54313421},{"NoteNumber":61,"Velocity":31,"Duration":721066,"SoundDuration":721066,"Delta":54313421},{"NoteNumber":64,"Velocity":31,"Duration":239043,"SoundDuration":239043,"Delta":54313421},{"NoteNumber":73,"Velocity":32,"Duration":119521,"SoundDuration":119521,"Delta":54432943},{"NoteNumber":75,"Velocity":44,"Duration":119522,"SoundDuration":119522,"Delta":54552465},{"NoteNumber":63,"Velocity":34,"Duration":239043,"SoundDuration":239043,"Delta":54552465},{"NoteNumber":73,"Velocity":32,"Duration":119521,"SoundDuration":119521,"Delta":54671987},{"NoteNumber":76,"Velocity":43,"Duration":119522,"SoundDuration":119522,"Delta":54791509},{"NoteNumber":64,"Velocity":31,"Duration":242978,"SoundDuration":242978,"Delta":54791509},{"NoteNumber":73,"Velocity":35,"Duration":123456,"SoundDuration":123456,"Delta":54911031},{"NoteNumber":84,"Velocity":67,"Duration":116278,"SoundDuration":116278,"Delta":55034488},{"NoteNumber":80,"Velocity":56,"Duration":116278,"SoundDuration":116278,"Delta":55034488},{"NoteNumber":56,"Velocity":50,"Duration":962166,"SoundDuration":962166,"Delta":55034488},{"NoteNumber":72,"Velocity":34,"Duration":119522,"SoundDuration":119522,"Delta":55150767},{"NoteNumber":77,"Velocity":45,"Duration":119521,"SoundDuration":119521,"Delta":55270289},{"NoteNumber":65,"Velocity":31,"Duration":239043,"SoundDuration":239043,"Delta":55270289},{"NoteNumber":60,"Velocity":31,"Duration":726365,"SoundDuration":726365,"Delta":55270289},{"NoteNumber":72,"Velocity":36,"Duration":119522,"SoundDuration":119522,"Delta":55389811},{"NoteNumber":75,"Velocity":44,"Duration":119521,"SoundDuration":119521,"Delta":55509333},{"NoteNumber":63,"Velocity":34,"Duration":239043,"SoundDuration":239043,"Delta":55509333},{"NoteNumber":72,"Velocity":31,"Duration":119522,"SoundDuration":119522,"Delta":55628855},{"NoteNumber":80,"Velocity":63,"Duration":119521,"SoundDuration":119521,"Delta":55748377},{"NoteNumber":68,"Velocity":31,"Duration":248277,"SoundDuration":248277,"Delta":55748377},{"NoteNumber":72,"Velocity":34,"Duration":128755,"SoundDuration":128755,"Delta":55867899},{"NoteNumber":84,"Velocity":70,"Duration":128755,"SoundDuration":128755,"Delta":55996654},{"NoteNumber":49,"Velocity":60,"Duration":128755,"SoundDuration":128755,"Delta":55996654},{"NoteNumber":87,"Velocity":52,"Duration":128755,"SoundDuration":128755,"Delta":56125410},{"NoteNumber":77,"Velocity":57,"Duration":128755,"SoundDuration":128755,"Delta":56254165},{"NoteNumber":65,"Velocity":53,"Duration":497510,"SoundDuration":497510,"Delta":56254165},{"NoteNumber":61,"Velocity":53,"Duration":497510,"SoundDuration":497510,"Delta":56254165},{"NoteNumber":82,"Velocity":53,"Duration":128755,"SoundDuration":128755,"Delta":56382920},{"NoteNumber":85,"Velocity":62,"Duration":119999,"SoundDuration":119999,"Delta":56511675},{"NoteNumber":89,"Velocity":69,"Duration":120000,"SoundDuration":120000,"Delta":56631675},{"NoteNumber":87,"Velocity":57,"Duration":119999,"SoundDuration":119999,"Delta":56751675},{"NoteNumber":61,"Velocity":44,"Duration":239999,"SoundDuration":239999,"Delta":56751675},{"NoteNumber":65,"Velocity":44,"Duration":239999,"SoundDuration":239999,"Delta":56751675},{"NoteNumber":85,"Velocity":57,"Duration":119999,"SoundDuration":119999,"Delta":56871675},{"NoteNumber":82,"Velocity":63,"Duration":128205,"SoundDuration":128205,"Delta":56991675},{"NoteNumber":51,"Velocity":60,"Duration":128205,"SoundDuration":128205,"Delta":56991675},{"NoteNumber":85,"Velocity":53,"Duration":128205,"SoundDuration":128205,"Delta":57119881},{"NoteNumber":75,"Velocity":53,"Duration":119047,"SoundDuration":119047,"Delta":57248086},{"NoteNumber":60,"Velocity":52,"Duration":476190,"SoundDuration":476190,"Delta":57248086},{"NoteNumber":63,"Velocity":52,"Duration":476190,"SoundDuration":476190,"Delta":57248086},{"NoteNumber":80,"Velocity":48,"Duration":119047,"SoundDuration":119047,"Delta":57367133},{"NoteNumber":84,"Velocity":62,"Duration":119047,"SoundDuration":119047,"Delta":57486181},{"NoteNumber":87,"Velocity":67,"Duration":119047,"SoundDuration":119047,"Delta":57605228},{"NoteNumber":85,"Velocity":53,"Duration":119047,"SoundDuration":119047,"Delta":57724276},{"NoteNumber":63,"Velocity":45,"Duration":247802,"SoundDuration":247802,"Delta":57724276},{"NoteNumber":60,"Velocity":45,"Duration":247802,"SoundDuration":247802,"Delta":57724276},{"NoteNumber":84,"Velocity":53,"Duration":128755,"SoundDuration":128755,"Delta":57843323},{"NoteNumber":81,"Velocity":66,"Duration":128755,"SoundDuration":128755,"Delta":57972079},{"NoteNumber":51,"Velocity":60,"Duration":128755,"SoundDuration":128755,"Delta":57972079},{"NoteNumber":84,"Velocity":47,"Duration":128755,"SoundDuration":128755,"Delta":58100834},{"NoteNumber":75,"Velocity":53,"Duration":119999,"SoundDuration":119999,"Delta":58229589},{"NoteNumber":61,"Velocity":46,"Duration":957153,"SoundDuration":957153,"Delta":58229589},{"NoteNumber":55,"Velocity":46,"Duration":479999,"SoundDuration":479999,"Delta":58229589},{"NoteNumber":63,"Velocity":46,"Duration":957153,"SoundDuration":957153,"Delta":58229589},{"NoteNumber":79,"Velocity":50,"Duration":120000,"SoundDuration":120000,"Delta":58349589},{"NoteNumber":82,"Velocity":61,"Duration":119999,"SoundDuration":119999,"Delta":58469589},{"NoteNumber":85,"Velocity":58,"Duration":119999,"SoundDuration":119999,"Delta":58589589},{"NoteNumber":84,"Velocity":53,"Duration":120000,"SoundDuration":120000,"Delta":58709589},{"NoteNumber":56,"Velocity":46,"Duration":240000,"SoundDuration":240000,"Delta":58709589},{"NoteNumber":82,"Velocity":53,"Duration":119999,"SoundDuration":119999,"Delta":58829589},{"NoteNumber":80,"Velocity":67,"Duration":118577,"SoundDuration":118577,"Delta":58949589},{"NoteNumber":58,"Velocity":46,"Duration":237153,"SoundDuration":237153,"Delta":58949589},{"NoteNumber":79,"Velocity":57,"Duration":118576,"SoundDuration":118576,"Delta":59068166},{"NoteNumber":77,"Velocity":64,"Duration":118577,"SoundDuration":118577,"Delta":59186743},{"NoteNumber":63,"Velocity":47,"Duration":118577,"SoundDuration":118577,"Delta":59186743},{"NoteNumber":61,"Velocity":47,"Duration":118577,"SoundDuration":118577,"Delta":59186743},{"NoteNumber":56,"Velocity":47,"Duration":118577,"SoundDuration":118577,"Delta":59186743},{"NoteNumber":76,"Velocity":65,"Duration":118510,"SoundDuration":118510,"Delta":59305320},{"NoteNumber":75,"Velocity":67,"Duration":119046,"SoundDuration":119046,"Delta":59423831},{"NoteNumber":63,"Velocity":51,"Duration":119046,"SoundDuration":119046,"Delta":59423831},{"NoteNumber":61,"Velocity":51,"Duration":119046,"SoundDuration":119046,"Delta":59423831},{"NoteNumber":55,"Velocity":51,"Duration":119046,"SoundDuration":119046,"Delta":59423831},{"NoteNumber":73,"Velocity":68,"Duration":121044,"SoundDuration":121044,"Delta":59542878},{"NoteNumber":72,"Velocity":69,"Duration":123114,"SoundDuration":123114,"Delta":59663922},{"NoteNumber":63,"Velocity":55,"Duration":123114,"SoundDuration":123114,"Delta":59663922},{"NoteNumber":51,"Velocity":55,"Duration":123114,"SoundDuration":123114,"Delta":59663922},{"NoteNumber":61,"Velocity":55,"Duration":123114,"SoundDuration":123114,"Delta":59663922},{"NoteNumber":70,"Velocity":71,"Duration":125326,"SoundDuration":125326,"Delta":59787036},{"NoteNumber":68,"Velocity":75,"Duration":253164,"SoundDuration":253164,"Delta":59912363},{"NoteNumber":60,"Velocity":59,"Duration":253164,"SoundDuration":253164,"Delta":59912363},{"NoteNumber":63,"Velocity":59,"Duration":253164,"SoundDuration":253164,"Delta":59912363},{"NoteNumber":56,"Velocity":59,"Duration":253164,"SoundDuration":253164,"Delta":59912363},{"NoteNumber":56,"Velocity":72,"Duration":120482,"SoundDuration":120482,"Delta":60165527},{"NoteNumber":44,"Velocity":66,"Duration":120482,"SoundDuration":120482,"Delta":60165527},{"NoteNumber":56,"Velocity":72,"Duration":120482,"SoundDuration":120482,"Delta":60406491},{"NoteNumber":44,"Velocity":66,"Duration":120482,"SoundDuration":120482,"Delta":60406491},{"NoteNumber":56,"Velocity":72,"Duration":131004,"SoundDuration":131004,"Delta":60647455},{"NoteNumber":44,"Velocity":66,"Duration":131004,"SoundDuration":131004,"Delta":60647455},{"NoteNumber":55,"Velocity":78,"Duration":240963,"SoundDuration":240963,"Delta":60909464},{"NoteNumber":43,"Velocity":69,"Duration":240963,"SoundDuration":240963,"Delta":60909464},{"NoteNumber":56,"Velocity":69,"Duration":120482,"SoundDuration":120482,"Delta":61150428},{"NoteNumber":44,"Velocity":65,"Duration":120482,"SoundDuration":120482,"Delta":61150428},{"NoteNumber":56,"Velocity":69,"Duration":120481,"SoundDuration":120481,"Delta":61391392},{"NoteNumber":44,"Velocity":65,"Duration":120481,"SoundDuration":120481,"Delta":61391392},{"NoteNumber":56,"Velocity":69,"Duration":126050,"SoundDuration":126050,"Delta":61632356},{"NoteNumber":44,"Velocity":65,"Duration":126050,"SoundDuration":126050,"Delta":61632356},{"NoteNumber":57,"Velocity":72,"Duration":358566,"SoundDuration":358566,"Delta":61884457},{"NoteNumber":45,"Velocity":68,"Duration":358566,"SoundDuration":358566,"Delta":61884457},{"NoteNumber":58,"Velocity":64,"Duration":59760,"SoundDuration":59760,"Delta":62243023},{"NoteNumber":46,"Velocity":60,"Duration":59760,"SoundDuration":59760,"Delta":62243023},{"NoteNumber":60,"Velocity":59,"Duration":59761,"SoundDuration":59761,"Delta":62302784},{"NoteNumber":48,"Velocity":57,"Duration":59761,"SoundDuration":59761,"Delta":62302784},{"NoteNumber":58,"Velocity":72,"Duration":358566,"SoundDuration":358566,"Delta":62362545},{"NoteNumber":46,"Velocity":68,"Duration":358566,"SoundDuration":358566,"Delta":62362545},{"NoteNumber":60,"Velocity":65,"Duration":59760,"SoundDuration":59760,"Delta":62721111},{"NoteNumber":48,"Velocity":62,"Duration":59760,"SoundDuration":59760,"Delta":62721111},{"NoteNumber":61,"Velocity":61,"Duration":58310,"SoundDuration":58310,"Delta":62780872},{"NoteNumber":49,"Velocity":58,"Duration":58310,"SoundDuration":58310,"Delta":62780872},{"NoteNumber":63,"Velocity":72,"Duration":114715,"SoundDuration":114715,"Delta":62839183},{"NoteNumber":51,"Velocity":68,"Duration":114715,"SoundDuration":114715,"Delta":62839183},{"NoteNumber":67,"Velocity":70,"Duration":113622,"SoundDuration":113622,"Delta":63068090},{"NoteNumber":58,"Velocity":56,"Duration":226695,"SoundDuration":226695,"Delta":63068090},{"NoteNumber":51,"Velocity":56,"Duration":226695,"SoundDuration":226695,"Delta":63068090},{"NoteNumber":61,"Velocity":66,"Duration":226695,"SoundDuration":226695,"Delta":63068090},{"NoteNumber":70,"Velocity":70,"Duration":113072,"SoundDuration":113072,"Delta":63181713},{"NoteNumber":75,"Velocity":67,"Duration":112563,"SoundDuration":112563,"Delta":63294785},{"NoteNumber":51,"Velocity":56,"Duration":225391,"SoundDuration":225391,"Delta":63294785},{"NoteNumber":61,"Velocity":66,"Duration":225391,"SoundDuration":225391,"Delta":63294785},{"NoteNumber":58,"Velocity":56,"Duration":225391,"SoundDuration":225391,"Delta":63294785},{"NoteNumber":79,"Velocity":70,"Duration":112828,"SoundDuration":112828,"Delta":63407349},{"NoteNumber":82,"Velocity":73,"Duration":115431,"SoundDuration":115431,"Delta":63520177},{"NoteNumber":51,"Velocity":56,"Duration":233702,"SoundDuration":233702,"Delta":63520177},{"NoteNumber":61,"Velocity":66,"Duration":233702,"SoundDuration":233702,"Delta":63520177},{"NoteNumber":58,"Velocity":56,"Duration":233702,"SoundDuration":233702,"Delta":63520177},{"NoteNumber":87,"Velocity":75,"Duration":118271,"SoundDuration":118271,"Delta":63635608},{"NoteNumber":80,"Velocity":78,"Duration":238095,"SoundDuration":238095,"Delta":63753880},{"NoteNumber":60,"Velocity":72,"Duration":238095,"SoundDuration":238095,"Delta":63753880},{"NoteNumber":56,"Velocity":61,"Duration":238095,"SoundDuration":238095,"Delta":63753880},{"NoteNumber":56,"Velocity":72,"Duration":120482,"SoundDuration":120482,"Delta":63991975},{"NoteNumber":44,"Velocity":66,"Duration":120482,"SoundDuration":120482,"Delta":63991975},{"NoteNumber":56,"Velocity":72,"Duration":120481,"SoundDuration":120481,"Delta":64232939},{"NoteNumber":44,"Velocity":66,"Duration":120481,"SoundDuration":120481,"Delta":64232939},{"NoteNumber":56,"Velocity":72,"Duration":131004,"SoundDuration":131004,"Delta":64473903},{"NoteNumber":44,"Velocity":66,"Duration":131004,"SoundDuration":131004,"Delta":64473903},{"NoteNumber":55,"Velocity":78,"Duration":240964,"SoundDuration":240964,"Delta":64735911},{"NoteNumber":43,"Velocity":69,"Duration":240964,"SoundDuration":240964,"Delta":64735911},{"NoteNumber":56,"Velocity":69,"Duration":120481,"SoundDuration":120481,"Delta":64976875},{"NoteNumber":44,"Velocity":65,"Duration":120481,"SoundDuration":120481,"Delta":64976875},{"NoteNumber":56,"Velocity":69,"Duration":120482,"SoundDuration":120482,"Delta":65217839},{"NoteNumber":44,"Velocity":65,"Duration":120482,"SoundDuration":120482,"Delta":65217839},{"NoteNumber":56,"Velocity":69,"Duration":126050,"SoundDuration":126050,"Delta":65458803},{"NoteNumber":44,"Velocity":65,"Duration":126050,"SoundDuration":126050,"Delta":65458803},{"NoteNumber":57,"Velocity":72,"Duration":358565,"SoundDuration":358565,"Delta":65710904},{"NoteNumber":45,"Velocity":68,"Duration":358565,"SoundDuration":358565,"Delta":65710904},{"NoteNumber":58,"Velocity":64,"Duration":59761,"SoundDuration":59761,"Delta":66069470},{"NoteNumber":46,"Velocity":60,"Duration":59761,"SoundDuration":59761,"Delta":66069470},{"NoteNumber":60,"Velocity":59,"Duration":59760,"SoundDuration":59760,"Delta":66129231},{"NoteNumber":48,"Velocity":56,"Duration":59760,"SoundDuration":59760,"Delta":66129231},{"NoteNumber":58,"Velocity":72,"Duration":358565,"SoundDuration":358565,"Delta":66188992},{"NoteNumber":46,"Velocity":68,"Duration":358565,"SoundDuration":358565,"Delta":66188992},{"NoteNumber":60,"Velocity":65,"Duration":59761,"SoundDuration":59761,"Delta":66547558},{"NoteNumber":48,"Velocity":62,"Duration":59761,"SoundDuration":59761,"Delta":66547558},{"NoteNumber":61,"Velocity":59,"Duration":58310,"SoundDuration":58310,"Delta":66607319},{"NoteNumber":49,"Velocity":58,"Duration":58310,"SoundDuration":58310,"Delta":66607319},{"NoteNumber":63,"Velocity":72,"Duration":114715,"SoundDuration":114715,"Delta":66665630},{"NoteNumber":51,"Velocity":68,"Duration":114715,"SoundDuration":114715,"Delta":66665630},{"NoteNumber":64,"Velocity":70,"Duration":113622,"SoundDuration":113622,"Delta":66894538},{"NoteNumber":55,"Velocity":56,"Duration":226695,"SoundDuration":226695,"Delta":66894538},{"NoteNumber":58,"Velocity":66,"Duration":226695,"SoundDuration":226695,"Delta":66894538},{"NoteNumber":48,"Velocity":56,"Duration":226695,"SoundDuration":226695,"Delta":66894538},{"NoteNumber":67,"Velocity":70,"Duration":113072,"SoundDuration":113072,"Delta":67008160},{"NoteNumber":72,"Velocity":67,"Duration":112563,"SoundDuration":112563,"Delta":67121233},{"NoteNumber":48,"Velocity":56,"Duration":225391,"SoundDuration":225391,"Delta":67121233},{"NoteNumber":58,"Velocity":66,"Duration":225391,"SoundDuration":225391,"Delta":67121233},{"NoteNumber":55,"Velocity":56,"Duration":225391,"SoundDuration":225391,"Delta":67121233},{"NoteNumber":76,"Velocity":70,"Duration":112828,"SoundDuration":112828,"Delta":67233796},{"NoteNumber":79,"Velocity":73,"Duration":115431,"SoundDuration":115431,"Delta":67346625},{"NoteNumber":48,"Velocity":56,"Duration":233702,"SoundDuration":233702,"Delta":67346625},{"NoteNumber":58,"Velocity":66,"Duration":233702,"SoundDuration":233702,"Delta":67346625},{"NoteNumber":55,"Velocity":56,"Duration":233702,"SoundDuration":233702,"Delta":67346625},{"NoteNumber":84,"Velocity":75,"Duration":118271,"SoundDuration":118271,"Delta":67462056},{"NoteNumber":77,"Velocity":78,"Duration":238095,"SoundDuration":238095,"Delta":67580327},{"NoteNumber":53,"Velocity":61,"Duration":238095,"SoundDuration":238095,"Delta":67580327},{"NoteNumber":56,"Velocity":72,"Duration":238095,"SoundDuration":238095,"Delta":67580327},{"NoteNumber":65,"Velocity":72,"Duration":120481,"SoundDuration":120481,"Delta":67818422},{"NoteNumber":56,"Velocity":61,"Duration":120481,"SoundDuration":120481,"Delta":67818422},{"NoteNumber":49,"Velocity":56,"Duration":120481,"SoundDuration":120481,"Delta":67818422},{"NoteNumber":53,"Velocity":66,"Duration":120481,"SoundDuration":120481,"Delta":67818422},{"NoteNumber":56,"Velocity":61,"Duration":120481,"SoundDuration":120481,"Delta":68059386},{"NoteNumber":65,"Velocity":72,"Duration":120481,"SoundDuration":120481,"Delta":68059386},{"NoteNumber":53,"Velocity":66,"Duration":120481,"SoundDuration":120481,"Delta":68059386},{"NoteNumber":49,"Velocity":56,"Duration":120481,"SoundDuration":120481,"Delta":68059386},{"NoteNumber":56,"Velocity":61,"Duration":125523,"SoundDuration":125523,"Delta":68300350},{"NoteNumber":65,"Velocity":72,"Duration":125523,"SoundDuration":125523,"Delta":68300350},{"NoteNumber":49,"Velocity":56,"Duration":125523,"SoundDuration":125523,"Delta":68300350},{"NoteNumber":53,"Velocity":66,"Duration":125523,"SoundDuration":125523,"Delta":68300350},{"NoteNumber":56,"Velocity":61,"Duration":361446,"SoundDuration":361446,"Delta":68551396},{"NoteNumber":64,"Velocity":78,"Duration":240964,"SoundDuration":240964,"Delta":68551396},{"NoteNumber":48,"Velocity":58,"Duration":240964,"SoundDuration":240964,"Delta":68551396},{"NoteNumber":52,"Velocity":69,"Duration":240964,"SoundDuration":240964,"Delta":68551396},{"NoteNumber":65,"Velocity":69,"Duration":120481,"SoundDuration":120481,"Delta":68792360},{"NoteNumber":53,"Velocity":65,"Duration":120481,"SoundDuration":120481,"Delta":68792360},{"NoteNumber":49,"Velocity":55,"Duration":120481,"SoundDuration":120481,"Delta":68792360},{"NoteNumber":56,"Velocity":58,"Duration":120482,"SoundDuration":120482,"Delta":69033324},{"NoteNumber":65,"Velocity":69,"Duration":120482,"SoundDuration":120482,"Delta":69033324},{"NoteNumber":49,"Velocity":55,"Duration":120482,"SoundDuration":120482,"Delta":69033324},{"NoteNumber":53,"Velocity":65,"Duration":120482,"SoundDuration":120482,"Delta":69033324},{"NoteNumber":56,"Velocity":58,"Duration":126050,"SoundDuration":126050,"Delta":69274288},{"NoteNumber":65,"Velocity":69,"Duration":126050,"SoundDuration":126050,"Delta":69274288},{"NoteNumber":49,"Velocity":55,"Duration":126050,"SoundDuration":126050,"Delta":69274288},{"NoteNumber":53,"Velocity":65,"Duration":126050,"SoundDuration":126050,"Delta":69274288},{"NoteNumber":65,"Velocity":72,"Duration":358565,"SoundDuration":358565,"Delta":69526389},{"NoteNumber":59,"Velocity":61,"Duration":478087,"SoundDuration":478087,"Delta":69526389},{"NoteNumber":50,"Velocity":57,"Duration":478087,"SoundDuration":478087,"Delta":69526389},{"NoteNumber":53,"Velocity":68,"Duration":358565,"SoundDuration":358565,"Delta":69526389},{"NoteNumber":66,"Velocity":64,"Duration":59761,"SoundDuration":59761,"Delta":69884955},{"NoteNumber":54,"Velocity":60,"Duration":59761,"SoundDuration":59761,"Delta":69884955},{"NoteNumber":68,"Velocity":62,"Duration":59760,"SoundDuration":59760,"Delta":69944716},{"NoteNumber":56,"Velocity":57,"Duration":59760,"SoundDuration":59760,"Delta":69944716},{"NoteNumber":66,"Velocity":72,"Duration":358565,"SoundDuration":358565,"Delta":70004477},{"NoteNumber":58,"Velocity":61,"Duration":239044,"SoundDuration":239044,"Delta":70004477},{"NoteNumber":51,"Velocity":57,"Duration":476637,"SoundDuration":476637,"Delta":70004477},{"NoteNumber":54,"Velocity":68,"Duration":358565,"SoundDuration":358565,"Delta":70004477},{"NoteNumber":68,"Velocity":65,"Duration":59761,"SoundDuration":59761,"Delta":70363043},{"NoteNumber":56,"Velocity":62,"Duration":59761,"SoundDuration":59761,"Delta":70363043},{"NoteNumber":69,"Velocity":62,"Duration":58310,"SoundDuration":58310,"Delta":70422804},{"NoteNumber":57,"Velocity":59,"Duration":58310,"SoundDuration":58310,"Delta":70422804},{"NoteNumber":68,"Velocity":72,"Duration":114715,"SoundDuration":114715,"Delta":70481115},{"NoteNumber":66,"Velocity":61,"Duration":114715,"SoundDuration":114715,"Delta":70481115},{"NoteNumber":60,"Velocity":61,"Duration":114715,"SoundDuration":114715,"Delta":70481115},{"NoteNumber":44,"Velocity":57,"Duration":114715,"SoundDuration":114715,"Delta":70481115},{"NoteNumber":51,"Velocity":68,"Duration":114715,"SoundDuration":114715,"Delta":70481115},{"NoteNumber":72,"Velocity":70,"Duration":113622,"SoundDuration":113622,"Delta":70710022},{"NoteNumber":56,"Velocity":56,"Duration":226695,"SoundDuration":226695,"Delta":70710022},{"NoteNumber":66,"Velocity":66,"Duration":226695,"SoundDuration":226695,"Delta":70710022},{"NoteNumber":63,"Velocity":56,"Duration":226695,"SoundDuration":226695,"Delta":70710022},{"NoteNumber":75,"Velocity":70,"Duration":113072,"SoundDuration":113072,"Delta":70823645},{"NoteNumber":80,"Velocity":67,"Duration":112563,"SoundDuration":112563,"Delta":70936717},{"NoteNumber":66,"Velocity":66,"Duration":225391,"SoundDuration":225391,"Delta":70936717},{"NoteNumber":56,"Velocity":56,"Duration":225391,"SoundDuration":225391,"Delta":70936717},{"NoteNumber":63,"Velocity":56,"Duration":225391,"SoundDuration":225391,"Delta":70936717},{"NoteNumber":84,"Velocity":70,"Duration":112828,"SoundDuration":112828,"Delta":71049281},{"NoteNumber":87,"Velocity":73,"Duration":115431,"SoundDuration":115431,"Delta":71162109},{"NoteNumber":56,"Velocity":56,"Duration":233702,"SoundDuration":233702,"Delta":71162109},{"NoteNumber":66,"Velocity":66,"Duration":233702,"SoundDuration":233702,"Delta":71162109},{"NoteNumber":63,"Velocity":56,"Duration":233702,"SoundDuration":233702,"Delta":71162109},{"NoteNumber":92,"Velocity":75,"Duration":118271,"SoundDuration":118271,"Delta":71277540},{"NoteNumber":85,"Velocity":78,"Duration":238095,"SoundDuration":238095,"Delta":71395812},{"NoteNumber":65,"Velocity":72,"Duration":238095,"SoundDuration":238095,"Delta":71395812},{"NoteNumber":61,"Velocity":61,"Duration":238095,"SoundDuration":238095,"Delta":71395812},{"NoteNumber":65,"Velocity":72,"Duration":120481,"SoundDuration":120481,"Delta":71633907},{"NoteNumber":56,"Velocity":61,"Duration":120481,"SoundDuration":120481,"Delta":71633907},{"NoteNumber":53,"Velocity":66,"Duration":120481,"SoundDuration":120481,"Delta":71633907},{"NoteNumber":49,"Velocity":56,"Duration":120481,"SoundDuration":120481,"Delta":71633907},{"NoteNumber":56,"Velocity":61,"Duration":120481,"SoundDuration":120481,"Delta":71874871},{"NoteNumber":65,"Velocity":72,"Duration":120481,"SoundDuration":120481,"Delta":71874871},{"NoteNumber":53,"Velocity":66,"Duration":120481,"SoundDuration":120481,"Delta":71874871},{"NoteNumber":49,"Velocity":56,"Duration":120481,"SoundDuration":120481,"Delta":71874871},{"NoteNumber":56,"Velocity":61,"Duration":123456,"SoundDuration":123456,"Delta":72115835},{"NoteNumber":65,"Velocity":72,"Duration":123456,"SoundDuration":123456,"Delta":72115835},{"NoteNumber":53,"Velocity":66,"Duration":123456,"SoundDuration":123456,"Delta":72115835},{"NoteNumber":49,"Velocity":56,"Duration":123456,"SoundDuration":123456,"Delta":72115835},{"NoteNumber":64,"Velocity":78,"Duration":240964,"SoundDuration":240964,"Delta":72362748},{"NoteNumber":56,"Velocity":61,"Duration":361446,"SoundDuration":361446,"Delta":72362748},{"NoteNumber":48,"Velocity":58,"Duration":240964,"SoundDuration":240964,"Delta":72362748},{"NoteNumber":52,"Velocity":69,"Duration":240964,"SoundDuration":240964,"Delta":72362748},{"NoteNumber":65,"Velocity":69,"Duration":120481,"SoundDuration":120481,"Delta":72603712},{"NoteNumber":49,"Velocity":55,"Duration":120481,"SoundDuration":120481,"Delta":72603712},{"NoteNumber":53,"Velocity":65,"Duration":120481,"SoundDuration":120481,"Delta":72603712},{"NoteNumber":56,"Velocity":58,"Duration":120482,"SoundDuration":120482,"Delta":72844676},{"NoteNumber":65,"Velocity":69,"Duration":120482,"SoundDuration":120482,"Delta":72844676},{"NoteNumber":49,"Velocity":55,"Duration":120482,"SoundDuration":120482,"Delta":72844676},{"NoteNumber":53,"Velocity":65,"Duration":120482,"SoundDuration":120482,"Delta":72844676},{"NoteNumber":65,"Velocity":69,"Duration":126050,"SoundDuration":126050,"Delta":73085640},{"NoteNumber":56,"Velocity":58,"Duration":126050,"SoundDuration":126050,"Delta":73085640},{"NoteNumber":53,"Velocity":65,"Duration":126050,"SoundDuration":126050,"Delta":73085640},{"NoteNumber":49,"Velocity":55,"Duration":126050,"SoundDuration":126050,"Delta":73085640},{"NoteNumber":62,"Velocity":61,"Duration":236220,"SoundDuration":236220,"Delta":73337741},{"NoteNumber":65,"Velocity":61,"Duration":236220,"SoundDuration":236220,"Delta":73337741},{"NoteNumber":71,"Velocity":78,"Duration":236220,"SoundDuration":236220,"Delta":73337741},{"NoteNumber":56,"Velocity":69,"Duration":236220,"SoundDuration":236220,"Delta":73337741},{"NoteNumber":47,"Velocity":58,"Duration":236220,"SoundDuration":236220,"Delta":73337741},{"NoteNumber":53,"Velocity":58,"Duration":236220,"SoundDuration":236220,"Delta":73337741},{"NoteNumber":65,"Velocity":58,"Duration":120000,"SoundDuration":120000,"Delta":73573962},{"NoteNumber":62,"Velocity":58,"Duration":120000,"SoundDuration":120000,"Delta":73573962},{"NoteNumber":70,"Velocity":69,"Duration":120000,"SoundDuration":120000,"Delta":73573962},{"NoteNumber":46,"Velocity":55,"Duration":120000,"SoundDuration":120000,"Delta":73573962},{"NoteNumber":53,"Velocity":55,"Duration":120000,"SoundDuration":120000,"Delta":73573962},{"NoteNumber":56,"Velocity":65,"Duration":120000,"SoundDuration":120000,"Delta":73573962},{"NoteNumber":62,"Velocity":58,"Duration":118110,"SoundDuration":118110,"Delta":73813962},{"NoteNumber":70,"Velocity":69,"Duration":118110,"SoundDuration":118110,"Delta":73813962},{"NoteNumber":65,"Velocity":58,"Duration":118110,"SoundDuration":118110,"Delta":73813962},{"NoteNumber":56,"Velocity":65,"Duration":118110,"SoundDuration":118110,"Delta":73813962},{"NoteNumber":53,"Velocity":55,"Duration":118110,"SoundDuration":118110,"Delta":73813962},{"NoteNumber":46,"Velocity":55,"Duration":118110,"SoundDuration":118110,"Delta":73813962},{"NoteNumber":62,"Velocity":58,"Duration":121951,"SoundDuration":121951,"Delta":74050182},{"NoteNumber":65,"Velocity":58,"Duration":121951,"SoundDuration":121951,"Delta":74050182},{"NoteNumber":70,"Velocity":69,"Duration":121951,"SoundDuration":121951,"Delta":74050182},{"NoteNumber":56,"Velocity":65,"Duration":121951,"SoundDuration":121951,"Delta":74050182},{"NoteNumber":46,"Velocity":55,"Duration":121951,"SoundDuration":121951,"Delta":74050182},{"NoteNumber":53,"Velocity":55,"Duration":121951,"SoundDuration":121951,"Delta":74050182},{"NoteNumber":63,"Velocity":61,"Duration":114715,"SoundDuration":114715,"Delta":74294085},{"NoteNumber":67,"Velocity":72,"Duration":114715,"SoundDuration":114715,"Delta":74294085},{"NoteNumber":51,"Velocity":57,"Duration":114715,"SoundDuration":114715,"Delta":74294085},{"NoteNumber":55,"Velocity":68,"Duration":114715,"SoundDuration":114715,"Delta":74294085},{"NoteNumber":67,"Velocity":70,"Duration":226695,"SoundDuration":226695,"Delta":74522992},{"NoteNumber":63,"Velocity":56,"Duration":226695,"SoundDuration":226695,"Delta":74522992},{"NoteNumber":70,"Velocity":70,"Duration":113072,"SoundDuration":113072,"Delta":74636615},{"NoteNumber":75,"Velocity":67,"Duration":112563,"SoundDuration":112563,"Delta":74749687},{"NoteNumber":63,"Velocity":56,"Duration":225391,"SoundDuration":225391,"Delta":74749687},{"NoteNumber":67,"Velocity":66,"Duration":225391,"SoundDuration":225391,"Delta":74749687},{"NoteNumber":79,"Velocity":70,"Duration":112828,"SoundDuration":112828,"Delta":74862251},{"NoteNumber":82,"Velocity":73,"Duration":115431,"SoundDuration":115431,"Delta":74975079},{"NoteNumber":63,"Velocity":56,"Duration":233702,"SoundDuration":233702,"Delta":74975079},{"NoteNumber":67,"Velocity":66,"Duration":233702,"SoundDuration":233702,"Delta":74975079},{"NoteNumber":87,"Velocity":75,"Duration":118271,"SoundDuration":118271,"Delta":75090510},{"NoteNumber":73,"Velocity":78,"Duration":232557,"SoundDuration":232557,"Delta":75208782},{"NoteNumber":67,"Velocity":61,"Duration":232557,"SoundDuration":232557,"Delta":75208782},{"NoteNumber":64,"Velocity":61,"Duration":232557,"SoundDuration":232557,"Delta":75208782},{"NoteNumber":58,"Velocity":69,"Duration":232557,"SoundDuration":232557,"Delta":75208782},{"NoteNumber":49,"Velocity":58,"Duration":232557,"SoundDuration":232557,"Delta":75208782},{"NoteNumber":55,"Velocity":58,"Duration":232557,"SoundDuration":232557,"Delta":75208782},{"NoteNumber":72,"Velocity":69,"Duration":119047,"SoundDuration":119047,"Delta":75441340},{"NoteNumber":67,"Velocity":58,"Duration":119047,"SoundDuration":119047,"Delta":75441340},{"NoteNumber":64,"Velocity":58,"Duration":119047,"SoundDuration":119047,"Delta":75441340},{"NoteNumber":55,"Velocity":55,"Duration":119047,"SoundDuration":119047,"Delta":75441340},{"NoteNumber":58,"Velocity":65,"Duration":119047,"SoundDuration":119047,"Delta":75441340},{"NoteNumber":48,"Velocity":55,"Duration":119047,"SoundDuration":119047,"Delta":75441340},{"NoteNumber":67,"Velocity":58,"Duration":116731,"SoundDuration":116731,"Delta":75679435},{"NoteNumber":72,"Velocity":69,"Duration":116731,"SoundDuration":116731,"Delta":75679435},{"NoteNumber":64,"Velocity":58,"Duration":116731,"SoundDuration":116731,"Delta":75679435},{"NoteNumber":48,"Velocity":55,"Duration":116731,"SoundDuration":116731,"Delta":75679435},{"NoteNumber":58,"Velocity":65,"Duration":116731,"SoundDuration":116731,"Delta":75679435},{"NoteNumber":55,"Velocity":55,"Duration":116731,"SoundDuration":116731,"Delta":75679435},{"NoteNumber":67,"Velocity":58,"Duration":126050,"SoundDuration":126050,"Delta":75912898},{"NoteNumber":64,"Velocity":58,"Duration":126050,"SoundDuration":126050,"Delta":75912898},{"NoteNumber":72,"Velocity":69,"Duration":126050,"SoundDuration":126050,"Delta":75912898},{"NoteNumber":48,"Velocity":55,"Duration":126050,"SoundDuration":126050,"Delta":75912898},{"NoteNumber":58,"Velocity":65,"Duration":126050,"SoundDuration":126050,"Delta":75912898},{"NoteNumber":55,"Velocity":55,"Duration":126050,"SoundDuration":126050,"Delta":75912898},{"NoteNumber":65,"Velocity":61,"Duration":114715,"SoundDuration":114715,"Delta":76164999},{"NoteNumber":69,"Velocity":72,"Duration":114715,"SoundDuration":114715,"Delta":76164999},{"NoteNumber":53,"Velocity":57,"Duration":114715,"SoundDuration":114715,"Delta":76164999},{"NoteNumber":57,"Velocity":68,"Duration":114715,"SoundDuration":114715,"Delta":76164999},{"NoteNumber":69,"Velocity":70,"Duration":226695,"SoundDuration":226695,"Delta":76393906},{"NoteNumber":65,"Velocity":56,"Duration":226695,"SoundDuration":226695,"Delta":76393906},{"NoteNumber":72,"Velocity":70,"Duration":113072,"SoundDuration":113072,"Delta":76507529},{"NoteNumber":77,"Velocity":67,"Duration":112563,"SoundDuration":112563,"Delta":76620601},{"NoteNumber":69,"Velocity":66,"Duration":225391,"SoundDuration":225391,"Delta":76620601},{"NoteNumber":65,"Velocity":56,"Duration":225391,"SoundDuration":225391,"Delta":76620601},{"NoteNumber":81,"Velocity":70,"Duration":112828,"SoundDuration":112828,"Delta":76733165},{"NoteNumber":84,"Velocity":73,"Duration":115431,"SoundDuration":115431,"Delta":76845993},{"NoteNumber":65,"Velocity":56,"Duration":233702,"SoundDuration":233702,"Delta":76845993},{"NoteNumber":69,"Velocity":66,"Duration":233702,"SoundDuration":233702,"Delta":76845993},{"NoteNumber":89,"Velocity":75,"Duration":118271,"SoundDuration":118271,"Delta":76961424},{"NoteNumber":78,"Velocity":73,"Duration":258620,"SoundDuration":258620,"Delta":77079696},{"NoteNumber":90,"Velocity":87,"Duration":258620,"SoundDuration":258620,"Delta":77079696},{"NoteNumber":54,"Velocity":51,"Duration":258620,"SoundDuration":258620,"Delta":77079696},{"NoteNumber":66,"Velocity":60,"Duration":258620,"SoundDuration":258620,"Delta":77079696},{"NoteNumber":89,"Velocity":75,"Duration":177165,"SoundDuration":177165,"Delta":77338316},{"NoteNumber":77,"Velocity":63,"Duration":177165,"SoundDuration":177165,"Delta":77338316},{"NoteNumber":65,"Velocity":52,"Duration":177165,"SoundDuration":177165,"Delta":77338316},{"NoteNumber":53,"Velocity":44,"Duration":177165,"SoundDuration":177165,"Delta":77338316},{"NoteNumber":77,"Velocity":73,"Duration":229884,"SoundDuration":229884,"Delta":77574537},{"NoteNumber":89,"Velocity":87,"Duration":229884,"SoundDuration":229884,"Delta":77574537},{"NoteNumber":53,"Velocity":51,"Duration":229884,"SoundDuration":229884,"Delta":77574537},{"NoteNumber":65,"Velocity":60,"Duration":229884,"SoundDuration":229884,"Delta":77574537},{"NoteNumber":88,"Velocity":75,"Duration":177165,"SoundDuration":177165,"Delta":77804422},{"NoteNumber":76,"Velocity":63,"Duration":177165,"SoundDuration":177165,"Delta":77804422},{"NoteNumber":52,"Velocity":44,"Duration":177165,"SoundDuration":177165,"Delta":77804422},{"NoteNumber":64,"Velocity":52,"Duration":177165,"SoundDuration":177165,"Delta":77804422},{"NoteNumber":88,"Velocity":86,"Duration":229007,"SoundDuration":229007,"Delta":78040642},{"NoteNumber":76,"Velocity":73,"Duration":229007,"SoundDuration":229007,"Delta":78040642},{"NoteNumber":64,"Velocity":60,"Duration":229007,"SoundDuration":229007,"Delta":78040642},{"NoteNumber":52,"Velocity":51,"Duration":229007,"SoundDuration":229007,"Delta":78040642},{"NoteNumber":89,"Velocity":70,"Duration":172413,"SoundDuration":172413,"Delta":78269650},{"NoteNumber":77,"Velocity":59,"Duration":172413,"SoundDuration":172413,"Delta":78269650},{"NoteNumber":65,"Velocity":49,"Duration":172413,"SoundDuration":172413,"Delta":78269650},{"NoteNumber":53,"Velocity":41,"Duration":172413,"SoundDuration":172413,"Delta":78269650},{"NoteNumber":89,"Velocity":78,"Duration":226415,"SoundDuration":226415,"Delta":78499535},{"NoteNumber":77,"Velocity":66,"Duration":226415,"SoundDuration":226415,"Delta":78499535},{"NoteNumber":65,"Velocity":54,"Duration":226415,"SoundDuration":226415,"Delta":78499535},{"NoteNumber":53,"Velocity":46,"Duration":226415,"SoundDuration":226415,"Delta":78499535},{"NoteNumber":72,"Velocity":59,"Duration":171755,"SoundDuration":171755,"Delta":78725950},{"NoteNumber":84,"Velocity":70,"Duration":171755,"SoundDuration":171755,"Delta":78725950},{"NoteNumber":48,"Velocity":41,"Duration":171755,"SoundDuration":171755,"Delta":78725950},{"NoteNumber":60,"Velocity":49,"Duration":171755,"SoundDuration":171755,"Delta":78725950},{"NoteNumber":82,"Velocity":77,"Duration":220995,"SoundDuration":220995,"Delta":78954957},{"NoteNumber":70,"Velocity":65,"Duration":220995,"SoundDuration":220995,"Delta":78954957},{"NoteNumber":46,"Velocity":45,"Duration":220995,"SoundDuration":220995,"Delta":78954957},{"NoteNumber":58,"Velocity":53,"Duration":220995,"SoundDuration":220995,"Delta":78954957},{"NoteNumber":81,"Velocity":68,"Duration":170454,"SoundDuration":170454,"Delta":79175952},{"NoteNumber":69,"Velocity":57,"Duration":170454,"SoundDuration":170454,"Delta":79175952},{"NoteNumber":45,"Velocity":39,"Duration":170454,"SoundDuration":170454,"Delta":79175952},{"NoteNumber":57,"Velocity":47,"Duration":170454,"SoundDuration":170454,"Delta":79175952},{"NoteNumber":69,"Velocity":57,"Duration":224718,"SoundDuration":224718,"Delta":79403225},{"NoteNumber":81,"Velocity":68,"Duration":224718,"SoundDuration":224718,"Delta":79403225},{"NoteNumber":57,"Velocity":47,"Duration":224718,"SoundDuration":224718,"Delta":79403225},{"NoteNumber":45,"Velocity":39,"Duration":224718,"SoundDuration":224718,"Delta":79403225},{"NoteNumber":79,"Velocity":68,"Duration":177165,"SoundDuration":177165,"Delta":79627944},{"NoteNumber":67,"Velocity":57,"Duration":177165,"SoundDuration":177165,"Delta":79627944},{"NoteNumber":55,"Velocity":47,"Duration":177165,"SoundDuration":177165,"Delta":79627944},{"NoteNumber":43,"Velocity":39,"Duration":177165,"SoundDuration":177165,"Delta":79627944},{"NoteNumber":79,"Velocity":74,"Duration":228137,"SoundDuration":228137,"Delta":79864164},{"NoteNumber":67,"Velocity":62,"Duration":228137,"SoundDuration":228137,"Delta":79864164},{"NoteNumber":43,"Velocity":43,"Duration":228137,"SoundDuration":228137,"Delta":79864164},{"NoteNumber":55,"Velocity":51,"Duration":228137,"SoundDuration":228137,"Delta":79864164},{"NoteNumber":77,"Velocity":64,"Duration":116795,"SoundDuration":116795,"Delta":80092301},{"NoteNumber":65,"Velocity":54,"Duration":116795,"SoundDuration":116795,"Delta":80092301},{"NoteNumber":41,"Velocity":37,"Duration":116795,"SoundDuration":116795,"Delta":80092301},{"NoteNumber":53,"Velocity":44,"Duration":116795,"SoundDuration":116795,"Delta":80092301},{"NoteNumber":77,"Velocity":67,"Duration":115019,"SoundDuration":115019,"Delta":80323961},{"NoteNumber":65,"Velocity":56,"Duration":115019,"SoundDuration":115019,"Delta":80323961},{"NoteNumber":41,"Velocity":39,"Duration":115019,"SoundDuration":115019,"Delta":80323961},{"NoteNumber":53,"Velocity":46,"Duration":115019,"SoundDuration":115019,"Delta":80323961},{"NoteNumber":65,"Velocity":54,"Duration":120039,"SoundDuration":120039,"Delta":80552098},{"NoteNumber":77,"Velocity":64,"Duration":120039,"SoundDuration":120039,"Delta":80552098},{"NoteNumber":41,"Velocity":37,"Duration":120039,"SoundDuration":120039,"Delta":80552098},{"NoteNumber":53,"Velocity":44,"Duration":120039,"SoundDuration":120039,"Delta":80552098},{"NoteNumber":66,"Velocity":58,"Duration":224718,"SoundDuration":224718,"Delta":80790193},{"NoteNumber":78,"Velocity":69,"Duration":224718,"SoundDuration":224718,"Delta":80790193},{"NoteNumber":54,"Velocity":48,"Duration":224718,"SoundDuration":224718,"Delta":80790193},{"NoteNumber":42,"Velocity":40,"Duration":224718,"SoundDuration":224718,"Delta":80790193},{"NoteNumber":65,"Velocity":50,"Duration":173076,"SoundDuration":173076,"Delta":81014912},{"NoteNumber":77,"Velocity":60,"Duration":173076,"SoundDuration":173076,"Delta":81014912},{"NoteNumber":53,"Velocity":41,"Duration":173076,"SoundDuration":173076,"Delta":81014912},{"NoteNumber":41,"Velocity":35,"Duration":173076,"SoundDuration":173076,"Delta":81014912},{"NoteNumber":77,"Velocity":69,"Duration":225564,"SoundDuration":225564,"Delta":81245681},{"NoteNumber":65,"Velocity":58,"Duration":225564,"SoundDuration":225564,"Delta":81245681},{"NoteNumber":53,"Velocity":48,"Duration":225564,"SoundDuration":225564,"Delta":81245681},{"NoteNumber":41,"Velocity":40,"Duration":225564,"SoundDuration":225564,"Delta":81245681},{"NoteNumber":76,"Velocity":60,"Duration":172413,"SoundDuration":172413,"Delta":81471245},{"NoteNumber":64,"Velocity":50,"Duration":172413,"SoundDuration":172413,"Delta":81471245},{"NoteNumber":52,"Velocity":41,"Duration":172413,"SoundDuration":172413,"Delta":81471245},{"NoteNumber":40,"Velocity":35,"Duration":172413,"SoundDuration":172413,"Delta":81471245},{"NoteNumber":64,"Velocity":58,"Duration":225564,"SoundDuration":225564,"Delta":81701130},{"NoteNumber":76,"Velocity":68,"Duration":225564,"SoundDuration":225564,"Delta":81701130},{"NoteNumber":52,"Velocity":48,"Duration":225564,"SoundDuration":225564,"Delta":81701130},{"NoteNumber":40,"Velocity":40,"Duration":225564,"SoundDuration":225564,"Delta":81701130},{"NoteNumber":65,"Velocity":47,"Duration":172413,"SoundDuration":172413,"Delta":81926694},{"NoteNumber":77,"Velocity":56,"Duration":172413,"SoundDuration":172413,"Delta":81926694},{"NoteNumber":53,"Velocity":39,"Duration":172413,"SoundDuration":172413,"Delta":81926694},{"NoteNumber":41,"Velocity":32,"Duration":172413,"SoundDuration":172413,"Delta":81926694},{"NoteNumber":77,"Velocity":62,"Duration":223880,"SoundDuration":223880,"Delta":82156579},{"NoteNumber":65,"Velocity":52,"Duration":223880,"SoundDuration":223880,"Delta":82156579},{"NoteNumber":41,"Velocity":36,"Duration":223880,"SoundDuration":223880,"Delta":82156579},{"NoteNumber":53,"Velocity":43,"Duration":223880,"SoundDuration":223880,"Delta":82156579},{"NoteNumber":72,"Velocity":56,"Duration":171755,"SoundDuration":171755,"Delta":82380460},{"NoteNumber":60,"Velocity":47,"Duration":171755,"SoundDuration":171755,"Delta":82380460},{"NoteNumber":48,"Velocity":39,"Duration":171755,"SoundDuration":171755,"Delta":82380460},{"NoteNumber":36,"Velocity":32,"Duration":171755,"SoundDuration":171755,"Delta":82380460},{"NoteNumber":58,"Velocity":49,"Duration":220995,"SoundDuration":220995,"Delta":82609467},{"NoteNumber":70,"Velocity":57,"Duration":220995,"SoundDuration":220995,"Delta":82609467},{"NoteNumber":46,"Velocity":39,"Duration":220995,"SoundDuration":220995,"Delta":82609467},{"NoteNumber":34,"Velocity":34,"Duration":220995,"SoundDuration":220995,"Delta":82609467},{"NoteNumber":57,"Velocity":42,"Duration":170454,"SoundDuration":170454,"Delta":82830462},{"NoteNumber":69,"Velocity":50,"Duration":170454,"SoundDuration":170454,"Delta":82830462},{"NoteNumber":33,"Velocity":29,"Duration":170454,"SoundDuration":170454,"Delta":82830462},{"NoteNumber":45,"Velocity":34,"Duration":170454,"SoundDuration":170454,"Delta":82830462},{"NoteNumber":57,"Velocity":41,"Duration":222222,"SoundDuration":222222,"Delta":83057735},{"NoteNumber":69,"Velocity":49,"Duration":222222,"SoundDuration":222222,"Delta":83057735},{"NoteNumber":33,"Velocity":28,"Duration":222222,"SoundDuration":222222,"Delta":83057735},{"NoteNumber":45,"Velocity":34,"Duration":222222,"SoundDuration":222222,"Delta":83057735},{"NoteNumber":67,"Velocity":48,"Duration":173076,"SoundDuration":173076,"Delta":83279957},{"NoteNumber":55,"Velocity":40,"Duration":173076,"SoundDuration":173076,"Delta":83279957},{"NoteNumber":43,"Velocity":33,"Duration":173076,"SoundDuration":173076,"Delta":83279957},{"NoteNumber":31,"Velocity":27,"Duration":173076,"SoundDuration":173076,"Delta":83279957},{"NoteNumber":67,"Velocity":51,"Duration":225564,"SoundDuration":225564,"Delta":83510726},{"NoteNumber":55,"Velocity":43,"Duration":225564,"SoundDuration":225564,"Delta":83510726},{"NoteNumber":43,"Velocity":35,"Duration":225564,"SoundDuration":225564,"Delta":83510726},{"NoteNumber":31,"Velocity":29,"Duration":225564,"SoundDuration":225564,"Delta":83510726},{"NoteNumber":53,"Velocity":36,"Duration":116795,"SoundDuration":116795,"Delta":83736290},{"NoteNumber":65,"Velocity":43,"Duration":116795,"SoundDuration":116795,"Delta":83736290},{"NoteNumber":29,"Velocity":24,"Duration":116795,"SoundDuration":116795,"Delta":83736290},{"NoteNumber":41,"Velocity":30,"Duration":116795,"SoundDuration":116795,"Delta":83736290},{"NoteNumber":53,"Velocity":36,"Duration":113721,"SoundDuration":113721,"Delta":83967950},{"NoteNumber":65,"Velocity":44,"Duration":113721,"SoundDuration":113721,"Delta":83967950},{"NoteNumber":41,"Velocity":30,"Duration":113721,"SoundDuration":113721,"Delta":83967950},{"NoteNumber":29,"Velocity":26,"Duration":113721,"SoundDuration":113721,"Delta":83967950},{"NoteNumber":53,"Velocity":35,"Duration":117704,"SoundDuration":117704,"Delta":84193514},{"NoteNumber":65,"Velocity":41,"Duration":117704,"SoundDuration":117704,"Delta":84193514},{"NoteNumber":41,"Velocity":28,"Duration":117704,"SoundDuration":117704,"Delta":84193514},{"NoteNumber":29,"Velocity":23,"Duration":117704,"SoundDuration":117704,"Delta":84193514},{"NoteNumber":53,"Velocity":32,"Duration":113721,"SoundDuration":113721,"Delta":84426977},{"NoteNumber":65,"Velocity":39,"Duration":113721,"SoundDuration":113721,"Delta":84426977},{"NoteNumber":41,"Velocity":27,"Duration":113721,"SoundDuration":113721,"Delta":84426977},{"NoteNumber":65,"Velocity":36,"Duration":117704,"SoundDuration":117704,"Delta":84652541},{"NoteNumber":53,"Velocity":31,"Duration":117704,"SoundDuration":117704,"Delta":84652541},{"NoteNumber":41,"Velocity":25,"Duration":117704,"SoundDuration":117704,"Delta":84652541},{"NoteNumber":53,"Velocity":32,"Duration":113721,"SoundDuration":113721,"Delta":84886004},{"NoteNumber":65,"Velocity":39,"Duration":113721,"SoundDuration":113721,"Delta":84886004},{"NoteNumber":41,"Velocity":27,"Duration":113721,"SoundDuration":113721,"Delta":84886004},{"NoteNumber":53,"Velocity":31,"Duration":117704,"SoundDuration":117704,"Delta":85111568},{"NoteNumber":65,"Velocity":36,"Duration":117704,"SoundDuration":117704,"Delta":85111568},{"NoteNumber":41,"Velocity":25,"Duration":117704,"SoundDuration":117704,"Delta":85111568},{"NoteNumber":65,"Velocity":39,"Duration":113721,"SoundDuration":113721,"Delta":85345031},{"NoteNumber":53,"Velocity":32,"Duration":113721,"SoundDuration":113721,"Delta":85345031},{"NoteNumber":41,"Velocity":27,"Duration":113721,"SoundDuration":113721,"Delta":85345031},{"NoteNumber":53,"Velocity":31,"Duration":120039,"SoundDuration":120039,"Delta":85570595},{"NoteNumber":65,"Velocity":36,"Duration":120039,"SoundDuration":120039,"Delta":85570595},{"NoteNumber":41,"Velocity":25,"Duration":120039,"SoundDuration":120039,"Delta":85570595},{"NoteNumber":65,"Velocity":39,"Duration":116795,"SoundDuration":116795,"Delta":85808690},{"NoteNumber":53,"Velocity":32,"Duration":116795,"SoundDuration":116795,"Delta":85808690},{"NoteNumber":41,"Velocity":27,"Duration":116795,"SoundDuration":116795,"Delta":85808690},{"NoteNumber":65,"Velocity":36,"Duration":124485,"SoundDuration":124485,"Delta":86040350},{"NoteNumber":53,"Velocity":31,"Duration":124485,"SoundDuration":124485,"Delta":86040350},{"NoteNumber":41,"Velocity":25,"Duration":124485,"SoundDuration":124485,"Delta":86040350},{"NoteNumber":58,"Velocity":21,"Duration":488095,"SoundDuration":488095,"Delta":86287263},{"NoteNumber":64,"Velocity":33,"Duration":238095,"SoundDuration":238095,"Delta":86287263},{"NoteNumber":55,"Velocity":21,"Duration":488095,"SoundDuration":488095,"Delta":86287263},{"NoteNumber":61,"Velocity":21,"Duration":488095,"SoundDuration":488095,"Delta":86287263},{"NoteNumber":52,"Velocity":22,"Duration":238095,"SoundDuration":238095,"Delta":86287263},{"NoteNumber":63,"Velocity":30,"Duration":126041,"SoundDuration":126041,"Delta":86525358},{"NoteNumber":51,"Velocity":21,"Duration":126041,"SoundDuration":126041,"Delta":86525358},{"NoteNumber":63,"Velocity":33,"Duration":120999,"SoundDuration":120999,"Delta":86775358},{"NoteNumber":58,"Velocity":21,"Duration":120000,"SoundDuration":120000,"Delta":86775358},{"NoteNumber":55,"Velocity":21,"Duration":120000,"SoundDuration":120000,"Delta":86775358},{"NoteNumber":61,"Velocity":21,"Duration":120999,"SoundDuration":120999,"Delta":86775358},{"NoteNumber":51,"Velocity":22,"Duration":120999,"SoundDuration":120999,"Delta":86775358},{"NoteNumber":63,"Velocity":30,"Duration":121993,"SoundDuration":121993,"Delta":87015334},{"NoteNumber":61,"Velocity":20,"Duration":121993,"SoundDuration":121993,"Delta":87015334},{"NoteNumber":55,"Velocity":20,"Duration":120972,"SoundDuration":120972,"Delta":87015334},{"NoteNumber":58,"Velocity":20,"Duration":120972,"SoundDuration":120972,"Delta":87015334},{"NoteNumber":51,"Velocity":21,"Duration":121993,"SoundDuration":121993,"Delta":87015334},{"NoteNumber":61,"Velocity":21,"Duration":127710,"SoundDuration":127710,"Delta":87260033},{"NoteNumber":63,"Velocity":33,"Duration":127710,"SoundDuration":127710,"Delta":87260033},{"NoteNumber":55,"Velocity":21,"Duration":126642,"SoundDuration":126642,"Delta":87260033},{"NoteNumber":58,"Velocity":21,"Duration":126642,"SoundDuration":126642,"Delta":87260033},{"NoteNumber":51,"Velocity":22,"Duration":127710,"SoundDuration":127710,"Delta":87260033},{"NoteNumber":61,"Velocity":20,"Duration":134047,"SoundDuration":134047,"Delta":87516392},{"NoteNumber":58,"Velocity":20,"Duration":132926,"SoundDuration":132926,"Delta":87516392},{"NoteNumber":55,"Velocity":20,"Duration":132926,"SoundDuration":132926,"Delta":87516392},{"NoteNumber":63,"Velocity":30,"Duration":134047,"SoundDuration":134047,"Delta":87516392},{"NoteNumber":51,"Velocity":21,"Duration":134047,"SoundDuration":134047,"Delta":87516392},{"NoteNumber":63,"Velocity":33,"Duration":139205,"SoundDuration":139205,"Delta":87785629},{"NoteNumber":58,"Velocity":21,"Duration":138048,"SoundDuration":138048,"Delta":87785629},{"NoteNumber":55,"Velocity":21,"Duration":138048,"SoundDuration":138048,"Delta":87785629},{"NoteNumber":61,"Velocity":21,"Duration":139205,"SoundDuration":139205,"Delta":87785629},{"NoteNumber":51,"Velocity":22,"Duration":139205,"SoundDuration":139205,"Delta":87785629},{"NoteNumber":55,"Velocity":20,"Duration":141813,"SoundDuration":141813,"Delta":88063443},{"NoteNumber":61,"Velocity":20,"Duration":143102,"SoundDuration":143102,"Delta":88063443},{"NoteNumber":58,"Velocity":20,"Duration":141813,"SoundDuration":141813,"Delta":88063443},{"NoteNumber":63,"Velocity":30,"Duration":143102,"SoundDuration":143102,"Delta":88063443},{"NoteNumber":51,"Velocity":21,"Duration":143102,"SoundDuration":143102,"Delta":88063443},{"NoteNumber":56,"Velocity":28,"Duration":279070,"SoundDuration":279070,"Delta":88359896},{"NoteNumber":60,"Velocity":28,"Duration":279070,"SoundDuration":279070,"Delta":88359896},{"NoteNumber":63,"Velocity":35,"Duration":279070,"SoundDuration":279070,"Delta":88359896},{"NoteNumber":44,"Velocity":33,"Duration":2127258,"SoundDuration":2127258,"Delta":88359896},{"NoteNumber":68,"Velocity":23,"Duration":194805,"SoundDuration":194805,"Delta":88638966},{"NoteNumber":63,"Velocity":23,"Duration":194805,"SoundDuration":194805,"Delta":88638966},{"NoteNumber":72,"Velocity":29,"Duration":194805,"SoundDuration":194805,"Delta":88638966},{"NoteNumber":51,"Velocity":25,"Duration":194805,"SoundDuration":194805,"Delta":88638966},{"NoteNumber":68,"Velocity":23,"Duration":194805,"SoundDuration":194805,"Delta":88898706},{"NoteNumber":63,"Velocity":23,"Duration":194805,"SoundDuration":194805,"Delta":88898706},{"NoteNumber":72,"Velocity":29,"Duration":194805,"SoundDuration":194805,"Delta":88898706},{"NoteNumber":51,"Velocity":25,"Duration":194805,"SoundDuration":194805,"Delta":88898706},{"NoteNumber":63,"Velocity":23,"Duration":199114,"SoundDuration":199114,"Delta":89158447},{"NoteNumber":68,"Velocity":23,"Duration":199114,"SoundDuration":199114,"Delta":89158447},{"NoteNumber":72,"Velocity":29,"Duration":199114,"SoundDuration":199114,"Delta":89158447},{"NoteNumber":51,"Velocity":25,"Duration":199114,"SoundDuration":199114,"Delta":89158447},{"NoteNumber":71,"Velocity":33,"Duration":264317,"SoundDuration":264317,"Delta":89423933},{"NoteNumber":68,"Velocity":26,"Duration":264317,"SoundDuration":264317,"Delta":89423933},{"NoteNumber":62,"Velocity":26,"Duration":264317,"SoundDuration":264317,"Delta":89423933},{"NoteNumber":51,"Velocity":33,"Duration":264317,"SoundDuration":264317,"Delta":89423933},{"NoteNumber":72,"Velocity":28,"Duration":198237,"SoundDuration":198237,"Delta":89688250},{"NoteNumber":63,"Velocity":22,"Duration":198237,"SoundDuration":198237,"Delta":89688250},{"NoteNumber":68,"Velocity":22,"Duration":198237,"SoundDuration":198237,"Delta":89688250},{"NoteNumber":56,"Velocity":26,"Duration":198237,"SoundDuration":198237,"Delta":89688250},{"NoteNumber":72,"Velocity":31,"Duration":198237,"SoundDuration":198237,"Delta":89952567},{"NoteNumber":68,"Velocity":24,"Duration":198237,"SoundDuration":198237,"Delta":89952567},{"NoteNumber":63,"Velocity":24,"Duration":198237,"SoundDuration":198237,"Delta":89952567},{"NoteNumber":56,"Velocity":27,"Duration":198237,"SoundDuration":198237,"Delta":89952567},{"NoteNumber":68,"Velocity":27,"Duration":202702,"SoundDuration":202702,"Delta":90216884},{"NoteNumber":72,"Velocity":34,"Duration":202702,"SoundDuration":202702,"Delta":90216884},{"NoteNumber":63,"Velocity":27,"Duration":202702,"SoundDuration":202702,"Delta":90216884},{"NoteNumber":56,"Velocity":29,"Duration":202702,"SoundDuration":202702,"Delta":90216884},{"NoteNumber":75,"Velocity":38,"Duration":288461,"SoundDuration":288461,"Delta":90487155},{"NoteNumber":68,"Velocity":30,"Duration":288461,"SoundDuration":288461,"Delta":90487155},{"NoteNumber":66,"Velocity":30,"Duration":288461,"SoundDuration":288461,"Delta":90487155},{"NoteNumber":49,"Velocity":38,"Duration":1845151,"SoundDuration":1845151,"Delta":90487155},{"NoteNumber":73,"Velocity":32,"Duration":189075,"SoundDuration":189075,"Delta":90775616},{"NoteNumber":65,"Velocity":25,"Duration":189075,"SoundDuration":189075,"Delta":90775616},{"NoteNumber":68,"Velocity":25,"Duration":189075,"SoundDuration":189075,"Delta":90775616},{"NoteNumber":56,"Velocity":25,"Duration":189075,"SoundDuration":189075,"Delta":90775616},{"NoteNumber":68,"Velocity":25,"Duration":193132,"SoundDuration":193132,"Delta":91027717},{"NoteNumber":73,"Velocity":32,"Duration":193132,"SoundDuration":193132,"Delta":91027717},{"NoteNumber":65,"Velocity":25,"Duration":193132,"SoundDuration":193132,"Delta":91027717},{"NoteNumber":56,"Velocity":25,"Duration":193132,"SoundDuration":193132,"Delta":91027717},{"NoteNumber":65,"Velocity":25,"Duration":200892,"SoundDuration":200892,"Delta":91285228},{"NoteNumber":68,"Velocity":25,"Duration":200892,"SoundDuration":200892,"Delta":91285228},{"NoteNumber":73,"Velocity":32,"Duration":200892,"SoundDuration":200892,"Delta":91285228},{"NoteNumber":56,"Velocity":27,"Duration":200892,"SoundDuration":200892,"Delta":91285228},{"NoteNumber":73,"Velocity":33,"Duration":259740,"SoundDuration":259740,"Delta":91553085},{"NoteNumber":65,"Velocity":20,"Duration":259740,"SoundDuration":259740,"Delta":91553085},{"NoteNumber":68,"Velocity":26,"Duration":259740,"SoundDuration":259740,"Delta":91553085},{"NoteNumber":56,"Velocity":33,"Duration":259740,"SoundDuration":259740,"Delta":91553085},{"NoteNumber":72,"Velocity":30,"Duration":259740,"SoundDuration":259740,"Delta":91812825},{"NoteNumber":65,"Velocity":24,"Duration":259740,"SoundDuration":259740,"Delta":91812825},{"NoteNumber":63,"Velocity":24,"Duration":259740,"SoundDuration":259740,"Delta":91812825},{"NoteNumber":57,"Velocity":27,"Duration":259740,"SoundDuration":259740,"Delta":91812825},{"NoteNumber":65,"Velocity":24,"Duration":259740,"SoundDuration":259740,"Delta":92072566},{"NoteNumber":70,"Velocity":30,"Duration":259740,"SoundDuration":259740,"Delta":92072566},{"NoteNumber":61,"Velocity":24,"Duration":259740,"SoundDuration":259740,"Delta":92072566},{"NoteNumber":58,"Velocity":27,"Duration":259740,"SoundDuration":259740,"Delta":92072566},{"NoteNumber":68,"Velocity":30,"Duration":267857,"SoundDuration":267857,"Delta":92332306},{"NoteNumber":65,"Velocity":24,"Duration":267857,"SoundDuration":267857,"Delta":92332306},{"NoteNumber":60,"Velocity":24,"Duration":267857,"SoundDuration":267857,"Delta":92332306},{"NoteNumber":50,"Velocity":27,"Duration":267857,"SoundDuration":267857,"Delta":92332306},{"NoteNumber":53,"Velocity":27,"Duration":267857,"SoundDuration":267857,"Delta":92332306},{"NoteNumber":63,"Velocity":28,"Duration":264317,"SoundDuration":264317,"Delta":92600163},{"NoteNumber":60,"Velocity":28,"Duration":264317,"SoundDuration":264317,"Delta":92600163},{"NoteNumber":68,"Velocity":35,"Duration":264317,"SoundDuration":264317,"Delta":92600163},{"NoteNumber":39,"Velocity":33,"Duration":2138322,"SoundDuration":2138322,"Delta":92600163},{"NoteNumber":67,"Velocity":29,"Duration":194805,"SoundDuration":194805,"Delta":92864480},{"NoteNumber":58,"Velocity":23,"Duration":194805,"SoundDuration":194805,"Delta":92864480},{"NoteNumber":63,"Velocity":23,"Duration":194805,"SoundDuration":194805,"Delta":92864480},{"NoteNumber":51,"Velocity":25,"Duration":194805,"SoundDuration":194805,"Delta":92864480},{"NoteNumber":67,"Velocity":29,"Duration":194805,"SoundDuration":194805,"Delta":93124221},{"NoteNumber":58,"Velocity":23,"Duration":194805,"SoundDuration":194805,"Delta":93124221},{"NoteNumber":63,"Velocity":23,"Duration":194805,"SoundDuration":194805,"Delta":93124221},{"NoteNumber":51,"Velocity":25,"Duration":194805,"SoundDuration":194805,"Delta":93124221},{"NoteNumber":63,"Velocity":23,"Duration":199114,"SoundDuration":199114,"Delta":93383961},{"NoteNumber":67,"Velocity":29,"Duration":199114,"SoundDuration":199114,"Delta":93383961},{"NoteNumber":58,"Velocity":23,"Duration":199114,"SoundDuration":199114,"Delta":93383961},{"NoteNumber":51,"Velocity":25,"Duration":199114,"SoundDuration":199114,"Delta":93383961},{"NoteNumber":58,"Velocity":26,"Duration":198237,"SoundDuration":198237,"Delta":93649448},{"NoteNumber":67,"Velocity":33,"Duration":198237,"SoundDuration":198237,"Delta":93649448},{"NoteNumber":63,"Velocity":26,"Duration":198237,"SoundDuration":198237,"Delta":93649448},{"NoteNumber":51,"Velocity":33,"Duration":198237,"SoundDuration":198237,"Delta":93649448},{"NoteNumber":63,"Velocity":22,"Duration":201793,"SoundDuration":201793,"Delta":93913765},{"NoteNumber":67,"Velocity":28,"Duration":201793,"SoundDuration":201793,"Delta":93913765},{"NoteNumber":58,"Velocity":22,"Duration":201793,"SoundDuration":201793,"Delta":93913765},{"NoteNumber":51,"Velocity":26,"Duration":201793,"SoundDuration":201793,"Delta":93913765},{"NoteNumber":63,"Velocity":24,"Duration":273972,"SoundDuration":273972,"Delta":94182823},{"NoteNumber":60,"Velocity":24,"Duration":273972,"SoundDuration":273972,"Delta":94182823},{"NoteNumber":68,"Velocity":31,"Duration":273972,"SoundDuration":273972,"Delta":94182823},{"NoteNumber":51,"Velocity":27,"Duration":273972,"SoundDuration":273972,"Delta":94182823},{"NoteNumber":70,"Velocity":34,"Duration":281689,"SoundDuration":281689,"Delta":94456796},{"NoteNumber":61,"Velocity":27,"Duration":281689,"SoundDuration":281689,"Delta":94456796},{"NoteNumber":63,"Velocity":27,"Duration":281689,"SoundDuration":281689,"Delta":94456796},{"NoteNumber":51,"Velocity":29,"Duration":281689,"SoundDuration":281689,"Delta":94456796},{"NoteNumber":61,"Velocity":30,"Duration":291262,"SoundDuration":291262,"Delta":94738486},{"NoteNumber":63,"Velocity":38,"Duration":291262,"SoundDuration":291262,"Delta":94738486},{"NoteNumber":44,"Velocity":38,"Duration":1611490,"SoundDuration":1611490,"Delta":94738486},{"NoteNumber":68,"Velocity":32,"Duration":189075,"SoundDuration":189075,"Delta":95029748},{"NoteNumber":63,"Velocity":25,"Duration":189075,"SoundDuration":189075,"Delta":95029748},{"NoteNumber":60,"Velocity":25,"Duration":189075,"SoundDuration":189075,"Delta":95029748},{"NoteNumber":51,"Velocity":25,"Duration":189075,"SoundDuration":189075,"Delta":95029748},{"NoteNumber":63,"Velocity":25,"Duration":193132,"SoundDuration":193132,"Delta":95281849},{"NoteNumber":60,"Velocity":25,"Duration":193132,"SoundDuration":193132,"Delta":95281849},{"NoteNumber":68,"Velocity":32,"Duration":193132,"SoundDuration":193132,"Delta":95281849},{"NoteNumber":51,"Velocity":25,"Duration":193132,"SoundDuration":193132,"Delta":95281849},{"NoteNumber":68,"Velocity":32,"Duration":200892,"SoundDuration":200892,"Delta":95539359},{"NoteNumber":63,"Velocity":25,"Duration":200892,"SoundDuration":200892,"Delta":95539359},{"NoteNumber":60,"Velocity":25,"Duration":200892,"SoundDuration":200892,"Delta":95539359},{"NoteNumber":51,"Velocity":27,"Duration":200892,"SoundDuration":200892,"Delta":95539359},{"NoteNumber":60,"Velocity":20,"Duration":194805,"SoundDuration":194805,"Delta":95807216},{"NoteNumber":68,"Velocity":33,"Duration":194805,"SoundDuration":194805,"Delta":95807216},{"NoteNumber":63,"Velocity":26,"Duration":194805,"SoundDuration":194805,"Delta":95807216},{"NoteNumber":51,"Velocity":33,"Duration":194805,"SoundDuration":194805,"Delta":95807216},{"NoteNumber":63,"Velocity":24,"Duration":212264,"SoundDuration":212264,"Delta":96066957},{"NoteNumber":60,"Velocity":24,"Duration":212264,"SoundDuration":212264,"Delta":96066957},{"NoteNumber":68,"Velocity":30,"Duration":212264,"SoundDuration":212264,"Delta":96066957},{"NoteNumber":51,"Velocity":27,"Duration":212264,"SoundDuration":212264,"Delta":96066957},{"NoteNumber":68,"Velocity":30,"Duration":396104,"SoundDuration":396104,"Delta":96349976},{"NoteNumber":51,"Velocity":27,"Duration":259740,"SoundDuration":259740,"Delta":96349976},{"NoteNumber":44,"Velocity":27,"Duration":259740,"SoundDuration":259740,"Delta":96349976},{"NoteNumber":72,"Velocity":42,"Duration":331169,"SoundDuration":331169,"Delta":96414911},{"NoteNumber":63,"Velocity":35,"Duration":331169,"SoundDuration":331169,"Delta":96414911},{"NoteNumber":51,"Velocity":27,"Duration":272727,"SoundDuration":272727,"Delta":96609716},{"NoteNumber":48,"Velocity":27,"Duration":272727,"SoundDuration":272727,"Delta":96609716},{"NoteNumber":63,"Velocity":24,"Duration":136363,"SoundDuration":136363,"Delta":96746080},{"NoteNumber":60,"Velocity":24,"Duration":136363,"SoundDuration":136363,"Delta":96746080},{"NoteNumber":68,"Velocity":30,"Duration":136363,"SoundDuration":136363,"Delta":96746080},{"NoteNumber":60,"Velocity":28,"Duration":289855,"SoundDuration":289855,"Delta":96882444},{"NoteNumber":68,"Velocity":35,"Duration":289855,"SoundDuration":289855,"Delta":96882444},{"NoteNumber":63,"Velocity":28,"Duration":289855,"SoundDuration":289855,"Delta":96882444},{"NoteNumber":39,"Velocity":33,"Duration":2164340,"SoundDuration":2164340,"Delta":96882444},{"NoteNumber":63,"Velocity":23,"Duration":199999,"SoundDuration":199999,"Delta":97172299},{"NoteNumber":58,"Velocity":23,"Duration":199999,"SoundDuration":199999,"Delta":97172299},{"NoteNumber":67,"Velocity":29,"Duration":199999,"SoundDuration":199999,"Delta":97172299},{"NoteNumber":51,"Velocity":25,"Duration":199999,"SoundDuration":199999,"Delta":97172299},{"NoteNumber":58,"Velocity":23,"Duration":196506,"SoundDuration":196506,"Delta":97438965},{"NoteNumber":63,"Velocity":23,"Duration":196506,"SoundDuration":196506,"Delta":97438965},{"NoteNumber":67,"Velocity":29,"Duration":196506,"SoundDuration":196506,"Delta":97438965},{"NoteNumber":51,"Velocity":25,"Duration":196506,"SoundDuration":196506,"Delta":97438965},{"NoteNumber":67,"Velocity":29,"Duration":199114,"SoundDuration":199114,"Delta":97700974},{"NoteNumber":63,"Velocity":23,"Duration":199114,"SoundDuration":199114,"Delta":97700974},{"NoteNumber":58,"Velocity":23,"Duration":199114,"SoundDuration":199114,"Delta":97700974},{"NoteNumber":51,"Velocity":25,"Duration":199114,"SoundDuration":199114,"Delta":97700974},{"NoteNumber":67,"Velocity":33,"Duration":198237,"SoundDuration":198237,"Delta":97966460},{"NoteNumber":58,"Velocity":26,"Duration":198237,"SoundDuration":198237,"Delta":97966460},{"NoteNumber":63,"Velocity":26,"Duration":198237,"SoundDuration":198237,"Delta":97966460},{"NoteNumber":51,"Velocity":33,"Duration":198237,"SoundDuration":198237,"Delta":97966460},{"NoteNumber":63,"Velocity":22,"Duration":199999,"SoundDuration":199999,"Delta":98230777},{"NoteNumber":67,"Velocity":28,"Duration":199999,"SoundDuration":199999,"Delta":98230777},{"NoteNumber":58,"Velocity":22,"Duration":199999,"SoundDuration":199999,"Delta":98230777},{"NoteNumber":51,"Velocity":26,"Duration":199999,"SoundDuration":199999,"Delta":98230777},{"NoteNumber":60,"Velocity":24,"Duration":270270,"SoundDuration":270270,"Delta":98497444},{"NoteNumber":63,"Velocity":24,"Duration":270270,"SoundDuration":270270,"Delta":98497444},{"NoteNumber":68,"Velocity":31,"Duration":270270,"SoundDuration":270270,"Delta":98497444},{"NoteNumber":51,"Velocity":27,"Duration":270270,"SoundDuration":270270,"Delta":98497444},{"NoteNumber":70,"Velocity":34,"Duration":279070,"SoundDuration":279070,"Delta":98767714},{"NoteNumber":61,"Velocity":27,"Duration":279070,"SoundDuration":279070,"Delta":98767714},{"NoteNumber":63,"Velocity":27,"Duration":279070,"SoundDuration":279070,"Delta":98767714},{"NoteNumber":51,"Velocity":29,"Duration":279070,"SoundDuration":279070,"Delta":98767714},{"NoteNumber":61,"Velocity":30,"Duration":276497,"SoundDuration":276497,"Delta":99046784},{"NoteNumber":63,"Velocity":38,"Duration":276497,"SoundDuration":276497,"Delta":99046784},{"NoteNumber":44,"Velocity":38,"Duration":1266230,"SoundDuration":1266230,"Delta":99046784},{"NoteNumber":68,"Velocity":32,"Duration":189075,"SoundDuration":189075,"Delta":99323282},{"NoteNumber":60,"Velocity":25,"Duration":189075,"SoundDuration":189075,"Delta":99323282},{"NoteNumber":63,"Velocity":25,"Duration":189075,"SoundDuration":189075,"Delta":99323282},{"NoteNumber":51,"Velocity":25,"Duration":189075,"SoundDuration":189075,"Delta":99323282},{"NoteNumber":60,"Velocity":25,"Duration":193132,"SoundDuration":193132,"Delta":99575383},{"NoteNumber":63,"Velocity":25,"Duration":193132,"SoundDuration":193132,"Delta":99575383},{"NoteNumber":68,"Velocity":32,"Duration":193132,"SoundDuration":193132,"Delta":99575383},{"NoteNumber":48,"Velocity":25,"Duration":193132,"SoundDuration":193132,"Delta":99575383},{"NoteNumber":60,"Velocity":25,"Duration":200892,"SoundDuration":200892,"Delta":99832893},{"NoteNumber":63,"Velocity":25,"Duration":200892,"SoundDuration":200892,"Delta":99832893},{"NoteNumber":68,"Velocity":32,"Duration":200892,"SoundDuration":200892,"Delta":99832893},{"NoteNumber":51,"Velocity":27,"Duration":200892,"SoundDuration":200892,"Delta":99832893},{"NoteNumber":68,"Velocity":33,"Duration":212264,"SoundDuration":212264,"Delta":100100750},{"NoteNumber":60,"Velocity":20,"Duration":212264,"SoundDuration":212264,"Delta":100100750},{"NoteNumber":63,"Velocity":26,"Duration":212264,"SoundDuration":212264,"Delta":100100750},{"NoteNumber":56,"Velocity":33,"Duration":212264,"SoundDuration":212264,"Delta":100100750},{"NoteNumber":75,"Velocity":34,"Duration":272727,"SoundDuration":272727,"Delta":100383769},{"NoteNumber":72,"Velocity":27,"Duration":272727,"SoundDuration":272727,"Delta":100383769},{"NoteNumber":63,"Velocity":31,"Duration":272727,"SoundDuration":272727,"Delta":100383769},{"NoteNumber":60,"Velocity":31,"Duration":272727,"SoundDuration":272727,"Delta":100383769},{"NoteNumber":72,"Velocity":27,"Duration":259740,"SoundDuration":259740,"Delta":100656497},{"NoteNumber":80,"Velocity":42,"Duration":259740,"SoundDuration":259740,"Delta":100656497},{"NoteNumber":75,"Velocity":27,"Duration":259740,"SoundDuration":259740,"Delta":100656497},{"NoteNumber":68,"Velocity":31,"Duration":259740,"SoundDuration":259740,"Delta":100656497},{"NoteNumber":60,"Velocity":31,"Duration":259740,"SoundDuration":259740,"Delta":100656497},{"NoteNumber":63,"Velocity":31,"Duration":259740,"SoundDuration":259740,"Delta":100656497},{"NoteNumber":75,"Velocity":27,"Duration":267857,"SoundDuration":267857,"Delta":100916237},{"NoteNumber":82,"Velocity":34,"Duration":267857,"SoundDuration":267857,"Delta":100916237},{"NoteNumber":79,"Velocity":27,"Duration":267857,"SoundDuration":267857,"Delta":100916237},{"NoteNumber":67,"Velocity":31,"Duration":267857,"SoundDuration":267857,"Delta":100916237},{"NoteNumber":70,"Velocity":31,"Duration":267857,"SoundDuration":267857,"Delta":100916237},{"NoteNumber":63,"Velocity":31,"Duration":267857,"SoundDuration":267857,"Delta":100916237},{"NoteNumber":56,"Velocity":46,"Duration":139534,"SoundDuration":139534,"Delta":101184094},{"NoteNumber":75,"Velocity":26,"Duration":194805,"SoundDuration":194805,"Delta":101463164},{"NoteNumber":84,"Velocity":33,"Duration":194805,"SoundDuration":194805,"Delta":101463164},{"NoteNumber":80,"Velocity":26,"Duration":194805,"SoundDuration":194805,"Delta":101463164},{"NoteNumber":72,"Velocity":28,"Duration":194805,"SoundDuration":194805,"Delta":101463164},{"NoteNumber":68,"Velocity":23,"Duration":194805,"SoundDuration":194805,"Delta":101463164},{"NoteNumber":63,"Velocity":23,"Duration":194805,"SoundDuration":194805,"Delta":101463164},{"NoteNumber":84,"Velocity":33,"Duration":194805,"SoundDuration":194805,"Delta":101722905},{"NoteNumber":80,"Velocity":26,"Duration":194805,"SoundDuration":194805,"Delta":101722905},{"NoteNumber":75,"Velocity":26,"Duration":194805,"SoundDuration":194805,"Delta":101722905},{"NoteNumber":68,"Velocity":23,"Duration":194805,"SoundDuration":194805,"Delta":101722905},{"NoteNumber":72,"Velocity":28,"Duration":194805,"SoundDuration":194805,"Delta":101722905},{"NoteNumber":63,"Velocity":23,"Duration":194805,"SoundDuration":194805,"Delta":101722905},{"NoteNumber":84,"Velocity":33,"Duration":199114,"SoundDuration":199114,"Delta":101982645},{"NoteNumber":80,"Velocity":26,"Duration":199114,"SoundDuration":199114,"Delta":101982645},{"NoteNumber":75,"Velocity":26,"Duration":199114,"SoundDuration":199114,"Delta":101982645},{"NoteNumber":72,"Velocity":28,"Duration":199114,"SoundDuration":199114,"Delta":101982645},{"NoteNumber":63,"Velocity":23,"Duration":199114,"SoundDuration":199114,"Delta":101982645},{"NoteNumber":68,"Velocity":23,"Duration":199114,"SoundDuration":199114,"Delta":101982645},{"NoteNumber":80,"Velocity":29,"Duration":264317,"SoundDuration":264317,"Delta":102248132},{"NoteNumber":74,"Velocity":29,"Duration":264317,"SoundDuration":264317,"Delta":102248132},{"NoteNumber":83,"Velocity":37,"Duration":264317,"SoundDuration":264317,"Delta":102248132},{"NoteNumber":68,"Velocity":31,"Duration":264317,"SoundDuration":264317,"Delta":102248132},{"NoteNumber":62,"Velocity":31,"Duration":264317,"SoundDuration":264317,"Delta":102248132},{"NoteNumber":71,"Velocity":37,"Duration":264317,"SoundDuration":264317,"Delta":102248132},{"NoteNumber":75,"Velocity":25,"Duration":198237,"SoundDuration":198237,"Delta":102512449},{"NoteNumber":80,"Velocity":25,"Duration":198237,"SoundDuration":198237,"Delta":102512449},{"NoteNumber":84,"Velocity":32,"Duration":198237,"SoundDuration":198237,"Delta":102512449},{"NoteNumber":68,"Velocity":24,"Duration":198237,"SoundDuration":198237,"Delta":102512449},{"NoteNumber":63,"Velocity":24,"Duration":198237,"SoundDuration":198237,"Delta":102512449},{"NoteNumber":72,"Velocity":29,"Duration":198237,"SoundDuration":198237,"Delta":102512449},{"NoteNumber":84,"Velocity":35,"Duration":198237,"SoundDuration":198237,"Delta":102776766},{"NoteNumber":80,"Velocity":27,"Duration":198237,"SoundDuration":198237,"Delta":102776766},{"NoteNumber":75,"Velocity":27,"Duration":198237,"SoundDuration":198237,"Delta":102776766},{"NoteNumber":63,"Velocity":26,"Duration":198237,"SoundDuration":198237,"Delta":102776766},{"NoteNumber":68,"Velocity":26,"Duration":198237,"SoundDuration":198237,"Delta":102776766},{"NoteNumber":72,"Velocity":31,"Duration":198237,"SoundDuration":198237,"Delta":102776766},{"NoteNumber":84,"Velocity":39,"Duration":202702,"SoundDuration":202702,"Delta":103041083},{"NoteNumber":75,"Velocity":31,"Duration":202702,"SoundDuration":202702,"Delta":103041083},{"NoteNumber":80,"Velocity":31,"Duration":202702,"SoundDuration":202702,"Delta":103041083},{"NoteNumber":72,"Velocity":33,"Duration":202702,"SoundDuration":202702,"Delta":103041083},{"NoteNumber":68,"Velocity":28,"Duration":202702,"SoundDuration":202702,"Delta":103041083},{"NoteNumber":63,"Velocity":28,"Duration":202702,"SoundDuration":202702,"Delta":103041083},{"NoteNumber":87,"Velocity":43,"Duration":287081,"SoundDuration":287081,"Delta":103311353},{"NoteNumber":80,"Velocity":34,"Duration":287081,"SoundDuration":287081,"Delta":103311353},{"NoteNumber":78,"Velocity":34,"Duration":287081,"SoundDuration":287081,"Delta":103311353},{"NoteNumber":61,"Velocity":43,"Duration":1843771,"SoundDuration":1843771,"Delta":103311353},{"NoteNumber":80,"Velocity":28,"Duration":189075,"SoundDuration":189075,"Delta":103598435},{"NoteNumber":77,"Velocity":28,"Duration":189075,"SoundDuration":189075,"Delta":103598435},{"NoteNumber":85,"Velocity":36,"Duration":189075,"SoundDuration":189075,"Delta":103598435},{"NoteNumber":68,"Velocity":23,"Duration":189075,"SoundDuration":189075,"Delta":103598435},{"NoteNumber":73,"Velocity":28,"Duration":189075,"SoundDuration":189075,"Delta":103598435},{"NoteNumber":65,"Velocity":23,"Duration":189075,"SoundDuration":189075,"Delta":103598435},{"NoteNumber":85,"Velocity":36,"Duration":193132,"SoundDuration":193132,"Delta":103850536},{"NoteNumber":80,"Velocity":28,"Duration":193132,"SoundDuration":193132,"Delta":103850536},{"NoteNumber":77,"Velocity":28,"Duration":193132,"SoundDuration":193132,"Delta":103850536},{"NoteNumber":65,"Velocity":23,"Duration":193132,"SoundDuration":193132,"Delta":103850536},{"NoteNumber":73,"Velocity":28,"Duration":193132,"SoundDuration":193132,"Delta":103850536},{"NoteNumber":68,"Velocity":23,"Duration":193132,"SoundDuration":193132,"Delta":103850536},{"NoteNumber":77,"Velocity":28,"Duration":200892,"SoundDuration":200892,"Delta":104108046},{"NoteNumber":85,"Velocity":36,"Duration":200892,"SoundDuration":200892,"Delta":104108046},{"NoteNumber":80,"Velocity":28,"Duration":200892,"SoundDuration":200892,"Delta":104108046},{"NoteNumber":68,"Velocity":26,"Duration":200892,"SoundDuration":200892,"Delta":104108046},{"NoteNumber":65,"Velocity":26,"Duration":200892,"SoundDuration":200892,"Delta":104108046},{"NoteNumber":73,"Velocity":31,"Duration":200892,"SoundDuration":200892,"Delta":104108046},{"NoteNumber":80,"Velocity":29,"Duration":259740,"SoundDuration":259740,"Delta":104375903},{"NoteNumber":85,"Velocity":37,"Duration":259740,"SoundDuration":259740,"Delta":104375903},{"NoteNumber":77,"Velocity":23,"Duration":259740,"SoundDuration":259740,"Delta":104375903},{"NoteNumber":73,"Velocity":37,"Duration":259740,"SoundDuration":259740,"Delta":104375903},{"NoteNumber":68,"Velocity":31,"Duration":259740,"SoundDuration":259740,"Delta":104375903},{"NoteNumber":65,"Velocity":31,"Duration":259740,"SoundDuration":259740,"Delta":104375903},{"NoteNumber":75,"Velocity":27,"Duration":259740,"SoundDuration":259740,"Delta":104635644},{"NoteNumber":77,"Velocity":27,"Duration":259740,"SoundDuration":259740,"Delta":104635644},{"NoteNumber":84,"Velocity":34,"Duration":259740,"SoundDuration":259740,"Delta":104635644},{"NoteNumber":65,"Velocity":26,"Duration":259740,"SoundDuration":259740,"Delta":104635644},{"NoteNumber":69,"Velocity":26,"Duration":259740,"SoundDuration":259740,"Delta":104635644},{"NoteNumber":72,"Velocity":31,"Duration":259740,"SoundDuration":259740,"Delta":104635644},{"NoteNumber":77,"Velocity":27,"Duration":259740,"SoundDuration":259740,"Delta":104895384},{"NoteNumber":73,"Velocity":27,"Duration":259740,"SoundDuration":259740,"Delta":104895384},{"NoteNumber":82,"Velocity":34,"Duration":259740,"SoundDuration":259740,"Delta":104895384},{"NoteNumber":65,"Velocity":26,"Duration":259740,"SoundDuration":259740,"Delta":104895384},{"NoteNumber":70,"Velocity":31,"Duration":259740,"SoundDuration":259740,"Delta":104895384},{"NoteNumber":77,"Velocity":27,"Duration":267857,"SoundDuration":267857,"Delta":105155125},{"NoteNumber":80,"Velocity":34,"Duration":267857,"SoundDuration":267857,"Delta":105155125},{"NoteNumber":72,"Velocity":27,"Duration":267857,"SoundDuration":267857,"Delta":105155125},{"NoteNumber":65,"Velocity":26,"Duration":267857,"SoundDuration":267857,"Delta":105155125},{"NoteNumber":62,"Velocity":26,"Duration":267857,"SoundDuration":267857,"Delta":105155125},{"NoteNumber":68,"Velocity":31,"Duration":267857,"SoundDuration":267857,"Delta":105155125},{"NoteNumber":80,"Velocity":40,"Duration":264317,"SoundDuration":264317,"Delta":105422982},{"NoteNumber":72,"Velocity":32,"Duration":264317,"SoundDuration":264317,"Delta":105422982},{"NoteNumber":75,"Velocity":32,"Duration":264317,"SoundDuration":264317,"Delta":105422982},{"NoteNumber":51,"Velocity":37,"Duration":264317,"SoundDuration":264317,"Delta":105422982},{"NoteNumber":75,"Velocity":26,"Duration":194805,"SoundDuration":194805,"Delta":105687299},{"NoteNumber":70,"Velocity":26,"Duration":194805,"SoundDuration":194805,"Delta":105687299},{"NoteNumber":79,"Velocity":33,"Duration":194805,"SoundDuration":194805,"Delta":105687299},{"NoteNumber":63,"Velocity":23,"Duration":194805,"SoundDuration":194805,"Delta":105687299},{"NoteNumber":58,"Velocity":23,"Duration":194805,"SoundDuration":194805,"Delta":105687299},{"NoteNumber":67,"Velocity":28,"Duration":194805,"SoundDuration":194805,"Delta":105687299},{"NoteNumber":79,"Velocity":33,"Duration":194805,"SoundDuration":194805,"Delta":105947039},{"NoteNumber":75,"Velocity":26,"Duration":194805,"SoundDuration":194805,"Delta":105947039},{"NoteNumber":70,"Velocity":26,"Duration":194805,"SoundDuration":194805,"Delta":105947039},{"NoteNumber":58,"Velocity":23,"Duration":194805,"SoundDuration":194805,"Delta":105947039},{"NoteNumber":63,"Velocity":23,"Duration":194805,"SoundDuration":194805,"Delta":105947039},{"NoteNumber":67,"Velocity":28,"Duration":194805,"SoundDuration":194805,"Delta":105947039},{"NoteNumber":75,"Velocity":26,"Duration":199114,"SoundDuration":199114,"Delta":106206780},{"NoteNumber":79,"Velocity":33,"Duration":199114,"SoundDuration":199114,"Delta":106206780},{"NoteNumber":70,"Velocity":26,"Duration":199114,"SoundDuration":199114,"Delta":106206780},{"NoteNumber":63,"Velocity":23,"Duration":199114,"SoundDuration":199114,"Delta":106206780},{"NoteNumber":67,"Velocity":28,"Duration":199114,"SoundDuration":199114,"Delta":106206780},{"NoteNumber":58,"Velocity":23,"Duration":199114,"SoundDuration":199114,"Delta":106206780},{"NoteNumber":75,"Velocity":29,"Duration":210280,"SoundDuration":210280,"Delta":106472266},{"NoteNumber":70,"Velocity":29,"Duration":210280,"SoundDuration":210280,"Delta":106472266},{"NoteNumber":79,"Velocity":37,"Duration":210280,"SoundDuration":210280,"Delta":106472266},{"NoteNumber":63,"Velocity":31,"Duration":210280,"SoundDuration":210280,"Delta":106472266},{"NoteNumber":67,"Velocity":37,"Duration":210280,"SoundDuration":210280,"Delta":106472266},{"NoteNumber":58,"Velocity":31,"Duration":210280,"SoundDuration":210280,"Delta":106472266},{"NoteNumber":75,"Velocity":25,"Duration":203619,"SoundDuration":203619,"Delta":106752640},{"NoteNumber":79,"Velocity":32,"Duration":203619,"SoundDuration":203619,"Delta":106752640},{"NoteNumber":70,"Velocity":25,"Duration":203619,"SoundDuration":203619,"Delta":106752640},{"NoteNumber":58,"Velocity":24,"Duration":203619,"SoundDuration":203619,"Delta":106752640},{"NoteNumber":63,"Velocity":24,"Duration":203619,"SoundDuration":203619,"Delta":106752640},{"NoteNumber":67,"Velocity":29,"Duration":203619,"SoundDuration":203619,"Delta":106752640},{"NoteNumber":72,"Velocity":27,"Duration":275229,"SoundDuration":275229,"Delta":107024133},{"NoteNumber":75,"Velocity":27,"Duration":275229,"SoundDuration":275229,"Delta":107024133},{"NoteNumber":80,"Velocity":35,"Duration":275229,"SoundDuration":275229,"Delta":107024133},{"NoteNumber":68,"Velocity":31,"Duration":275229,"SoundDuration":275229,"Delta":107024133},{"NoteNumber":60,"Velocity":26,"Duration":275229,"SoundDuration":275229,"Delta":107024133},{"NoteNumber":63,"Velocity":26,"Duration":275229,"SoundDuration":275229,"Delta":107024133},{"NoteNumber":75,"Velocity":31,"Duration":281689,"SoundDuration":281689,"Delta":107299363},{"NoteNumber":82,"Velocity":39,"Duration":281689,"SoundDuration":281689,"Delta":107299363},{"NoteNumber":73,"Velocity":31,"Duration":281689,"SoundDuration":281689,"Delta":107299363},{"NoteNumber":63,"Velocity":28,"Duration":281689,"SoundDuration":281689,"Delta":107299363},{"NoteNumber":61,"Velocity":28,"Duration":281689,"SoundDuration":281689,"Delta":107299363},{"NoteNumber":70,"Velocity":33,"Duration":281689,"SoundDuration":281689,"Delta":107299363},{"NoteNumber":73,"Velocity":34,"Duration":285714,"SoundDuration":285714,"Delta":107581053},{"NoteNumber":75,"Velocity":43,"Duration":285714,"SoundDuration":285714,"Delta":107581053},{"NoteNumber":56,"Velocity":43,"Duration":1322923,"SoundDuration":1322923,"Delta":107581053},{"NoteNumber":75,"Velocity":28,"Duration":189075,"SoundDuration":189075,"Delta":107866767},{"NoteNumber":80,"Velocity":36,"Duration":189075,"SoundDuration":189075,"Delta":107866767},{"NoteNumber":72,"Velocity":28,"Duration":189075,"SoundDuration":189075,"Delta":107866767},{"NoteNumber":63,"Velocity":23,"Duration":189075,"SoundDuration":189075,"Delta":107866767},{"NoteNumber":60,"Velocity":23,"Duration":189075,"SoundDuration":189075,"Delta":107866767},{"NoteNumber":68,"Velocity":28,"Duration":189075,"SoundDuration":189075,"Delta":107866767},{"NoteNumber":80,"Velocity":36,"Duration":193132,"SoundDuration":193132,"Delta":108118868},{"NoteNumber":72,"Velocity":28,"Duration":193132,"SoundDuration":193132,"Delta":108118868},{"NoteNumber":75,"Velocity":28,"Duration":193132,"SoundDuration":193132,"Delta":108118868},{"NoteNumber":68,"Velocity":28,"Duration":193132,"SoundDuration":193132,"Delta":108118868},{"NoteNumber":63,"Velocity":23,"Duration":193132,"SoundDuration":193132,"Delta":108118868},{"NoteNumber":60,"Velocity":23,"Duration":193132,"SoundDuration":193132,"Delta":108118868},{"NoteNumber":75,"Velocity":28,"Duration":200892,"SoundDuration":200892,"Delta":108376379},{"NoteNumber":80,"Velocity":36,"Duration":200892,"SoundDuration":200892,"Delta":108376379},{"NoteNumber":72,"Velocity":28,"Duration":200892,"SoundDuration":200892,"Delta":108376379},{"NoteNumber":60,"Velocity":26,"Duration":200892,"SoundDuration":200892,"Delta":108376379},{"NoteNumber":68,"Velocity":31,"Duration":200892,"SoundDuration":200892,"Delta":108376379},{"NoteNumber":63,"Velocity":26,"Duration":200892,"SoundDuration":200892,"Delta":108376379},{"NoteNumber":80,"Velocity":37,"Duration":194805,"SoundDuration":194805,"Delta":108644236},{"NoteNumber":75,"Velocity":29,"Duration":194805,"SoundDuration":194805,"Delta":108644236},{"NoteNumber":72,"Velocity":23,"Duration":194805,"SoundDuration":194805,"Delta":108644236},{"NoteNumber":68,"Velocity":37,"Duration":194805,"SoundDuration":194805,"Delta":108644236},{"NoteNumber":63,"Velocity":31,"Duration":194805,"SoundDuration":194805,"Delta":108644236},{"NoteNumber":60,"Velocity":31,"Duration":194805,"SoundDuration":194805,"Delta":108644236},{"NoteNumber":80,"Velocity":34,"Duration":219512,"SoundDuration":219512,"Delta":108903976},{"NoteNumber":75,"Velocity":27,"Duration":219512,"SoundDuration":219512,"Delta":108903976},{"NoteNumber":72,"Velocity":27,"Duration":219512,"SoundDuration":219512,"Delta":108903976},{"NoteNumber":60,"Velocity":26,"Duration":219512,"SoundDuration":219512,"Delta":108903976},{"NoteNumber":68,"Velocity":31,"Duration":219512,"SoundDuration":219512,"Delta":108903976},{"NoteNumber":63,"Velocity":26,"Duration":219512,"SoundDuration":219512,"Delta":108903976},{"NoteNumber":80,"Velocity":39,"Duration":393669,"SoundDuration":393669,"Delta":109196659},{"NoteNumber":63,"Velocity":26,"Duration":259740,"SoundDuration":259740,"Delta":109196659},{"NoteNumber":72,"Velocity":31,"Duration":259740,"SoundDuration":259740,"Delta":109196659},{"NoteNumber":68,"Velocity":26,"Duration":259740,"SoundDuration":259740,"Delta":109196659},{"NoteNumber":75,"Velocity":44,"Duration":328733,"SoundDuration":328733,"Delta":109261594},{"NoteNumber":84,"Velocity":52,"Duration":328733,"SoundDuration":328733,"Delta":109261594},{"NoteNumber":63,"Velocity":26,"Duration":267857,"SoundDuration":267857,"Delta":109456400},{"NoteNumber":60,"Velocity":26,"Duration":267857,"SoundDuration":267857,"Delta":109456400},{"NoteNumber":68,"Velocity":31,"Duration":267857,"SoundDuration":267857,"Delta":109456400},{"NoteNumber":75,"Velocity":27,"Duration":133928,"SoundDuration":133928,"Delta":109590328},{"NoteNumber":72,"Velocity":27,"Duration":133928,"SoundDuration":133928,"Delta":109590328},{"NoteNumber":80,"Velocity":34,"Duration":133928,"SoundDuration":133928,"Delta":109590328},{"NoteNumber":75,"Velocity":32,"Duration":264317,"SoundDuration":264317,"Delta":109724257},{"NoteNumber":80,"Velocity":40,"Duration":264317,"SoundDuration":264317,"Delta":109724257},{"NoteNumber":72,"Velocity":32,"Duration":264317,"SoundDuration":264317,"Delta":109724257},{"NoteNumber":51,"Velocity":37,"Duration":264317,"SoundDuration":264317,"Delta":109724257},{"NoteNumber":75,"Velocity":26,"Duration":194805,"SoundDuration":194805,"Delta":109988574},{"NoteNumber":70,"Velocity":26,"Duration":194805,"SoundDuration":194805,"Delta":109988574},{"NoteNumber":79,"Velocity":33,"Duration":194805,"SoundDuration":194805,"Delta":109988574},{"NoteNumber":63,"Velocity":23,"Duration":194805,"SoundDuration":194805,"Delta":109988574},{"NoteNumber":58,"Velocity":23,"Duration":194805,"SoundDuration":194805,"Delta":109988574},{"NoteNumber":67,"Velocity":28,"Duration":194805,"SoundDuration":194805,"Delta":109988574},{"NoteNumber":75,"Velocity":26,"Duration":194805,"SoundDuration":194805,"Delta":110248314},{"NoteNumber":70,"Velocity":26,"Duration":194805,"SoundDuration":194805,"Delta":110248314},{"NoteNumber":79,"Velocity":33,"Duration":194805,"SoundDuration":194805,"Delta":110248314},{"NoteNumber":67,"Velocity":28,"Duration":194805,"SoundDuration":194805,"Delta":110248314},{"NoteNumber":63,"Velocity":23,"Duration":194805,"SoundDuration":194805,"Delta":110248314},{"NoteNumber":58,"Velocity":23,"Duration":194805,"SoundDuration":194805,"Delta":110248314},{"NoteNumber":70,"Velocity":26,"Duration":199114,"SoundDuration":199114,"Delta":110508055},{"NoteNumber":75,"Velocity":26,"Duration":199114,"SoundDuration":199114,"Delta":110508055},{"NoteNumber":79,"Velocity":33,"Duration":199114,"SoundDuration":199114,"Delta":110508055},{"NoteNumber":63,"Velocity":23,"Duration":199114,"SoundDuration":199114,"Delta":110508055},{"NoteNumber":67,"Velocity":28,"Duration":199114,"SoundDuration":199114,"Delta":110508055},{"NoteNumber":58,"Velocity":23,"Duration":199114,"SoundDuration":199114,"Delta":110508055},{"NoteNumber":70,"Velocity":29,"Duration":198237,"SoundDuration":198237,"Delta":110773541},{"NoteNumber":79,"Velocity":37,"Duration":198237,"SoundDuration":198237,"Delta":110773541},{"NoteNumber":75,"Velocity":29,"Duration":198237,"SoundDuration":198237,"Delta":110773541},{"NoteNumber":58,"Velocity":31,"Duration":198237,"SoundDuration":198237,"Delta":110773541},{"NoteNumber":67,"Velocity":37,"Duration":198237,"SoundDuration":198237,"Delta":110773541},{"NoteNumber":63,"Velocity":31,"Duration":198237,"SoundDuration":198237,"Delta":110773541},{"NoteNumber":75,"Velocity":25,"Duration":198237,"SoundDuration":198237,"Delta":111037858},{"NoteNumber":79,"Velocity":32,"Duration":198237,"SoundDuration":198237,"Delta":111037858},{"NoteNumber":70,"Velocity":25,"Duration":198237,"SoundDuration":198237,"Delta":111037858},{"NoteNumber":63,"Velocity":24,"Duration":198237,"SoundDuration":198237,"Delta":111037858},{"NoteNumber":67,"Velocity":29,"Duration":198237,"SoundDuration":198237,"Delta":111037858},{"NoteNumber":58,"Velocity":24,"Duration":198237,"SoundDuration":198237,"Delta":111037858},{"NoteNumber":80,"Velocity":35,"Duration":264317,"SoundDuration":264317,"Delta":111302175},{"NoteNumber":75,"Velocity":27,"Duration":264317,"SoundDuration":264317,"Delta":111302175},{"NoteNumber":72,"Velocity":27,"Duration":264317,"SoundDuration":264317,"Delta":111302175},{"NoteNumber":60,"Velocity":26,"Duration":264317,"SoundDuration":264317,"Delta":111302175},{"NoteNumber":63,"Velocity":26,"Duration":264317,"SoundDuration":264317,"Delta":111302175},{"NoteNumber":68,"Velocity":31,"Duration":264317,"SoundDuration":264317,"Delta":111302175},{"NoteNumber":75,"Velocity":31,"Duration":270270,"SoundDuration":270270,"Delta":111566492},{"NoteNumber":82,"Velocity":39,"Duration":270270,"SoundDuration":270270,"Delta":111566492},{"NoteNumber":73,"Velocity":31,"Duration":270270,"SoundDuration":270270,"Delta":111566492},{"NoteNumber":70,"Velocity":33,"Duration":270270,"SoundDuration":270270,"Delta":111566492},{"NoteNumber":61,"Velocity":28,"Duration":270270,"SoundDuration":270270,"Delta":111566492},{"NoteNumber":63,"Velocity":28,"Duration":270270,"SoundDuration":270270,"Delta":111566492},{"NoteNumber":73,"Velocity":34,"Duration":283018,"SoundDuration":283018,"Delta":111836763},{"NoteNumber":75,"Velocity":43,"Duration":283018,"SoundDuration":283018,"Delta":111836763},{"NoteNumber":56,"Velocity":43,"Duration":1255292,"SoundDuration":1255292,"Delta":111836763},{"NoteNumber":80,"Velocity":36,"Duration":189075,"SoundDuration":189075,"Delta":112119782},{"NoteNumber":75,"Velocity":28,"Duration":189075,"SoundDuration":189075,"Delta":112119782},{"NoteNumber":72,"Velocity":28,"Duration":189075,"SoundDuration":189075,"Delta":112119782},{"NoteNumber":68,"Velocity":28,"Duration":189075,"SoundDuration":189075,"Delta":112119782},{"NoteNumber":63,"Velocity":23,"Duration":189075,"SoundDuration":189075,"Delta":112119782},{"NoteNumber":60,"Velocity":23,"Duration":189075,"SoundDuration":189075,"Delta":112119782},{"NoteNumber":75,"Velocity":28,"Duration":193132,"SoundDuration":193132,"Delta":112371883},{"NoteNumber":72,"Velocity":28,"Duration":193132,"SoundDuration":193132,"Delta":112371883},{"NoteNumber":80,"Velocity":36,"Duration":193132,"SoundDuration":193132,"Delta":112371883},{"NoteNumber":63,"Velocity":23,"Duration":193132,"SoundDuration":193132,"Delta":112371883},{"NoteNumber":60,"Velocity":23,"Duration":193132,"SoundDuration":193132,"Delta":112371883},{"NoteNumber":68,"Velocity":28,"Duration":193132,"SoundDuration":193132,"Delta":112371883},{"NoteNumber":80,"Velocity":36,"Duration":200892,"SoundDuration":200892,"Delta":112629393},{"NoteNumber":75,"Velocity":28,"Duration":200892,"SoundDuration":200892,"Delta":112629393},{"NoteNumber":72,"Velocity":28,"Duration":200892,"SoundDuration":200892,"Delta":112629393},{"NoteNumber":60,"Velocity":26,"Duration":200892,"SoundDuration":200892,"Delta":112629393},{"NoteNumber":63,"Velocity":26,"Duration":200892,"SoundDuration":200892,"Delta":112629393},{"NoteNumber":68,"Velocity":31,"Duration":200892,"SoundDuration":200892,"Delta":112629393},{"NoteNumber":80,"Velocity":37,"Duration":194805,"SoundDuration":194805,"Delta":112897250},{"NoteNumber":75,"Velocity":29,"Duration":194805,"SoundDuration":194805,"Delta":112897250},{"NoteNumber":72,"Velocity":23,"Duration":194805,"SoundDuration":194805,"Delta":112897250},{"NoteNumber":60,"Velocity":31,"Duration":194805,"SoundDuration":194805,"Delta":112897250},{"NoteNumber":63,"Velocity":31,"Duration":194805,"SoundDuration":194805,"Delta":112897250},{"NoteNumber":68,"Velocity":37,"Duration":194805,"SoundDuration":194805,"Delta":112897250},{"NoteNumber":75,"Velocity":43,"Duration":136363,"SoundDuration":136363,"Delta":113156991},{"NoteNumber":63,"Velocity":31,"Duration":272727,"SoundDuration":272727,"Delta":113156991},{"NoteNumber":60,"Velocity":31,"Duration":272727,"SoundDuration":272727,"Delta":113156991},{"NoteNumber":87,"Velocity":36,"Duration":136363,"SoundDuration":136363,"Delta":113293355},{"NoteNumber":80,"Velocity":43,"Duration":129870,"SoundDuration":129870,"Delta":113429718},{"NoteNumber":60,"Velocity":31,"Duration":259740,"SoundDuration":259740,"Delta":113429718},{"NoteNumber":68,"Velocity":31,"Duration":259740,"SoundDuration":259740,"Delta":113429718},{"NoteNumber":63,"Velocity":31,"Duration":259740,"SoundDuration":259740,"Delta":113429718},{"NoteNumber":87,"Velocity":36,"Duration":129870,"SoundDuration":129870,"Delta":113559589},{"NoteNumber":82,"Velocity":44,"Duration":133928,"SoundDuration":133928,"Delta":113689459},{"NoteNumber":67,"Velocity":31,"Duration":267857,"SoundDuration":267857,"Delta":113689459},{"NoteNumber":63,"Velocity":31,"Duration":267857,"SoundDuration":267857,"Delta":113689459},{"NoteNumber":70,"Velocity":31,"Duration":267857,"SoundDuration":267857,"Delta":113689459},{"NoteNumber":87,"Velocity":36,"Duration":133928,"SoundDuration":133928,"Delta":113823387},{"NoteNumber":75,"Velocity":47,"Duration":139534,"SoundDuration":139534,"Delta":113957316},{"NoteNumber":56,"Velocity":46,"Duration":139534,"SoundDuration":139534,"Delta":113957316},{"NoteNumber":87,"Velocity":36,"Duration":139535,"SoundDuration":139535,"Delta":114096851},{"NoteNumber":84,"Velocity":43,"Duration":129870,"SoundDuration":129870,"Delta":114236386},{"NoteNumber":63,"Velocity":23,"Duration":194805,"SoundDuration":194805,"Delta":114236386},{"NoteNumber":68,"Velocity":23,"Duration":194805,"SoundDuration":194805,"Delta":114236386},{"NoteNumber":72,"Velocity":28,"Duration":194805,"SoundDuration":194805,"Delta":114236386},{"NoteNumber":75,"Velocity":36,"Duration":129870,"SoundDuration":129870,"Delta":114366256},{"NoteNumber":75,"Velocity":43,"Duration":129870,"SoundDuration":129870,"Delta":114496126},{"NoteNumber":63,"Velocity":23,"Duration":194805,"SoundDuration":194805,"Delta":114496126},{"NoteNumber":68,"Velocity":23,"Duration":194805,"SoundDuration":194805,"Delta":114496126},{"NoteNumber":72,"Velocity":28,"Duration":194805,"SoundDuration":194805,"Delta":114496126},{"NoteNumber":87,"Velocity":36,"Duration":129870,"SoundDuration":129870,"Delta":114625997},{"NoteNumber":84,"Velocity":43,"Duration":132743,"SoundDuration":132743,"Delta":114755867},{"NoteNumber":63,"Velocity":23,"Duration":199114,"SoundDuration":199114,"Delta":114755867},{"NoteNumber":68,"Velocity":23,"Duration":199114,"SoundDuration":199114,"Delta":114755867},{"NoteNumber":72,"Velocity":28,"Duration":199114,"SoundDuration":199114,"Delta":114755867},{"NoteNumber":75,"Velocity":36,"Duration":132743,"SoundDuration":132743,"Delta":114888610},{"NoteNumber":75,"Velocity":46,"Duration":132158,"SoundDuration":132158,"Delta":115021353},{"NoteNumber":68,"Velocity":31,"Duration":264317,"SoundDuration":264317,"Delta":115021353},{"NoteNumber":62,"Velocity":31,"Duration":264317,"SoundDuration":264317,"Delta":115021353},{"NoteNumber":71,"Velocity":37,"Duration":264317,"SoundDuration":264317,"Delta":115021353},{"NoteNumber":87,"Velocity":36,"Duration":132158,"SoundDuration":132158,"Delta":115153512},{"NoteNumber":84,"Velocity":45,"Duration":132158,"SoundDuration":132158,"Delta":115285670},{"NoteNumber":63,"Velocity":24,"Duration":198237,"SoundDuration":198237,"Delta":115285670},{"NoteNumber":68,"Velocity":24,"Duration":198237,"SoundDuration":198237,"Delta":115285670},{"NoteNumber":72,"Velocity":29,"Duration":198237,"SoundDuration":198237,"Delta":115285670},{"NoteNumber":75,"Velocity":36,"Duration":132158,"SoundDuration":132158,"Delta":115417829},{"NoteNumber":75,"Velocity":45,"Duration":132158,"SoundDuration":132158,"Delta":115549987},{"NoteNumber":63,"Velocity":26,"Duration":198237,"SoundDuration":198237,"Delta":115549987},{"NoteNumber":68,"Velocity":26,"Duration":198237,"SoundDuration":198237,"Delta":115549987},{"NoteNumber":72,"Velocity":31,"Duration":198237,"SoundDuration":198237,"Delta":115549987},{"NoteNumber":87,"Velocity":39,"Duration":132158,"SoundDuration":132158,"Delta":115682146},{"NoteNumber":80,"Velocity":46,"Duration":135135,"SoundDuration":135135,"Delta":115814304},{"NoteNumber":72,"Velocity":33,"Duration":202702,"SoundDuration":202702,"Delta":115814304},{"NoteNumber":63,"Velocity":28,"Duration":202702,"SoundDuration":202702,"Delta":115814304},{"NoteNumber":68,"Velocity":28,"Duration":202702,"SoundDuration":202702,"Delta":115814304},{"NoteNumber":92,"Velocity":36,"Duration":135135,"SoundDuration":135135,"Delta":115949440},{"NoteNumber":80,"Velocity":50,"Duration":143540,"SoundDuration":143540,"Delta":116084575},{"NoteNumber":61,"Velocity":43,"Duration":1324290,"SoundDuration":1324290,"Delta":116084575},{"NoteNumber":75,"Velocity":37,"Duration":287081,"SoundDuration":287081,"Delta":116084575},{"NoteNumber":68,"Velocity":31,"Duration":287081,"SoundDuration":287081,"Delta":116084575},{"NoteNumber":66,"Velocity":31,"Duration":287081,"SoundDuration":287081,"Delta":116084575},{"NoteNumber":92,"Velocity":36,"Duration":143540,"SoundDuration":143540,"Delta":116228116},{"NoteNumber":89,"Velocity":43,"Duration":126050,"SoundDuration":126050,"Delta":116371656},{"NoteNumber":68,"Velocity":23,"Duration":189075,"SoundDuration":189075,"Delta":116371656},{"NoteNumber":65,"Velocity":23,"Duration":189075,"SoundDuration":189075,"Delta":116371656},{"NoteNumber":73,"Velocity":28,"Duration":189075,"SoundDuration":189075,"Delta":116371656},{"NoteNumber":80,"Velocity":36,"Duration":126050,"SoundDuration":126050,"Delta":116497707},{"NoteNumber":80,"Velocity":50,"Duration":128755,"SoundDuration":128755,"Delta":116623757},{"NoteNumber":68,"Velocity":23,"Duration":193132,"SoundDuration":193132,"Delta":116623757},{"NoteNumber":73,"Velocity":28,"Duration":193132,"SoundDuration":193132,"Delta":116623757},{"NoteNumber":65,"Velocity":23,"Duration":193132,"SoundDuration":193132,"Delta":116623757},{"NoteNumber":92,"Velocity":36,"Duration":128755,"SoundDuration":128755,"Delta":116752513},{"NoteNumber":89,"Velocity":42,"Duration":133928,"SoundDuration":133928,"Delta":116881268},{"NoteNumber":65,"Velocity":26,"Duration":200892,"SoundDuration":200892,"Delta":116881268},{"NoteNumber":68,"Velocity":26,"Duration":200892,"SoundDuration":200892,"Delta":116881268},{"NoteNumber":73,"Velocity":31,"Duration":200892,"SoundDuration":200892,"Delta":116881268},{"NoteNumber":80,"Velocity":36,"Duration":133928,"SoundDuration":133928,"Delta":117015196},{"NoteNumber":80,"Velocity":46,"Duration":129870,"SoundDuration":129870,"Delta":117149125},{"NoteNumber":65,"Velocity":31,"Duration":259740,"SoundDuration":259740,"Delta":117149125},{"NoteNumber":73,"Velocity":37,"Duration":259740,"SoundDuration":259740,"Delta":117149125},{"NoteNumber":68,"Velocity":31,"Duration":259740,"SoundDuration":259740,"Delta":117149125},{"NoteNumber":92,"Velocity":36,"Duration":129870,"SoundDuration":129870,"Delta":117278995},{"NoteNumber":81,"Velocity":47,"Duration":129870,"SoundDuration":129870,"Delta":117408865},{"NoteNumber":63,"Velocity":26,"Duration":259740,"SoundDuration":259740,"Delta":117408865},{"NoteNumber":72,"Velocity":31,"Duration":259740,"SoundDuration":259740,"Delta":117408865},{"NoteNumber":65,"Velocity":26,"Duration":259740,"SoundDuration":259740,"Delta":117408865},{"NoteNumber":93,"Velocity":40,"Duration":129870,"SoundDuration":129870,"Delta":117538736},{"NoteNumber":82,"Velocity":52,"Duration":129870,"SoundDuration":129870,"Delta":117668606},{"NoteNumber":70,"Velocity":32,"Duration":259740,"SoundDuration":259740,"Delta":117668606},{"NoteNumber":61,"Velocity":27,"Duration":259740,"SoundDuration":259740,"Delta":117668606},{"NoteNumber":65,"Velocity":27,"Duration":259740,"SoundDuration":259740,"Delta":117668606},{"NoteNumber":94,"Velocity":36,"Duration":129870,"SoundDuration":129870,"Delta":117798476},{"NoteNumber":96,"Velocity":48,"Duration":133928,"SoundDuration":133928,"Delta":117928346},{"NoteNumber":84,"Velocity":48,"Duration":133928,"SoundDuration":133928,"Delta":117928346},{"NoteNumber":68,"Velocity":33,"Duration":267857,"SoundDuration":267857,"Delta":117928346},{"NoteNumber":60,"Velocity":28,"Duration":267857,"SoundDuration":267857,"Delta":117928346},{"NoteNumber":63,"Velocity":28,"Duration":267857,"SoundDuration":267857,"Delta":117928346},{"NoteNumber":97,"Velocity":53,"Duration":133928,"SoundDuration":133928,"Delta":118062275},{"NoteNumber":85,"Velocity":53,"Duration":133928,"SoundDuration":133928,"Delta":118062275},{"NoteNumber":87,"Velocity":67,"Duration":132158,"SoundDuration":132158,"Delta":118196203},{"NoteNumber":51,"Velocity":41,"Duration":264317,"SoundDuration":264317,"Delta":118196203},{"NoteNumber":99,"Velocity":53,"Duration":132158,"SoundDuration":132158,"Delta":118328362},{"NoteNumber":97,"Velocity":60,"Duration":129870,"SoundDuration":129870,"Delta":118460520},{"NoteNumber":67,"Velocity":32,"Duration":194805,"SoundDuration":194805,"Delta":118460520},{"NoteNumber":58,"Velocity":26,"Duration":194805,"SoundDuration":194805,"Delta":118460520},{"NoteNumber":63,"Velocity":26,"Duration":194805,"SoundDuration":194805,"Delta":118460520},{"NoteNumber":87,"Velocity":53,"Duration":129870,"SoundDuration":129870,"Delta":118590391},{"NoteNumber":87,"Velocity":63,"Duration":129870,"SoundDuration":129870,"Delta":118720261},{"NoteNumber":63,"Velocity":26,"Duration":194805,"SoundDuration":194805,"Delta":118720261},{"NoteNumber":67,"Velocity":32,"Duration":194805,"SoundDuration":194805,"Delta":118720261},{"NoteNumber":58,"Velocity":26,"Duration":194805,"SoundDuration":194805,"Delta":118720261},{"NoteNumber":99,"Velocity":53,"Duration":129870,"SoundDuration":129870,"Delta":118850131},{"NoteNumber":97,"Velocity":60,"Duration":132743,"SoundDuration":132743,"Delta":118980001},{"NoteNumber":67,"Velocity":32,"Duration":199114,"SoundDuration":199114,"Delta":118980001},{"NoteNumber":58,"Velocity":26,"Duration":199114,"SoundDuration":199114,"Delta":118980001},{"NoteNumber":63,"Velocity":26,"Duration":199114,"SoundDuration":199114,"Delta":118980001},{"NoteNumber":87,"Velocity":50,"Duration":132743,"SoundDuration":132743,"Delta":119112745},{"NoteNumber":87,"Velocity":59,"Duration":140186,"SoundDuration":140186,"Delta":119245488},{"NoteNumber":58,"Velocity":35,"Duration":210280,"SoundDuration":210280,"Delta":119245488},{"NoteNumber":63,"Velocity":35,"Duration":210280,"SoundDuration":210280,"Delta":119245488},{"NoteNumber":67,"Velocity":42,"Duration":210280,"SoundDuration":210280,"Delta":119245488},{"NoteNumber":99,"Velocity":45,"Duration":140186,"SoundDuration":140186,"Delta":119385675},{"NoteNumber":97,"Velocity":56,"Duration":135746,"SoundDuration":135746,"Delta":119525862},{"NoteNumber":63,"Velocity":27,"Duration":203619,"SoundDuration":203619,"Delta":119525862},{"NoteNumber":67,"Velocity":33,"Duration":203619,"SoundDuration":203619,"Delta":119525862},{"NoteNumber":58,"Velocity":27,"Duration":203619,"SoundDuration":203619,"Delta":119525862},{"NoteNumber":87,"Velocity":48,"Duration":135746,"SoundDuration":135746,"Delta":119661608},{"NoteNumber":96,"Velocity":58,"Duration":137614,"SoundDuration":137614,"Delta":119797355},{"NoteNumber":60,"Velocity":29,"Duration":275229,"SoundDuration":275229,"Delta":119797355},{"NoteNumber":63,"Velocity":29,"Duration":275229,"SoundDuration":275229,"Delta":119797355},{"NoteNumber":68,"Velocity":35,"Duration":275229,"SoundDuration":275229,"Delta":119797355},{"NoteNumber":99,"Velocity":47,"Duration":137614,"SoundDuration":137614,"Delta":119934970},{"NoteNumber":94,"Velocity":59,"Duration":140844,"SoundDuration":140844,"Delta":120072584},{"NoteNumber":70,"Velocity":37,"Duration":281689,"SoundDuration":281689,"Delta":120072584},{"NoteNumber":61,"Velocity":32,"Duration":281689,"SoundDuration":281689,"Delta":120072584},{"NoteNumber":63,"Velocity":32,"Duration":281689,"SoundDuration":281689,"Delta":120072584},{"NoteNumber":99,"Velocity":52,"Duration":140844,"SoundDuration":140844,"Delta":120213429},{"NoteNumber":87,"Velocity":64,"Duration":132743,"SoundDuration":132743,"Delta":120354274},{"NoteNumber":56,"Velocity":43,"Duration":1049474,"SoundDuration":1049474,"Delta":120354274},{"NoteNumber":61,"Velocity":31,"Duration":265486,"SoundDuration":265486,"Delta":120354274},{"NoteNumber":63,"Velocity":37,"Duration":265486,"SoundDuration":265486,"Delta":120354274},{"NoteNumber":99,"Velocity":43,"Duration":132743,"SoundDuration":132743,"Delta":120487018},{"NoteNumber":96,"Velocity":55,"Duration":129310,"SoundDuration":129310,"Delta":120619761},{"NoteNumber":68,"Velocity":32,"Duration":193965,"SoundDuration":193965,"Delta":120619761},{"NoteNumber":63,"Velocity":26,"Duration":193965,"SoundDuration":193965,"Delta":120619761},{"NoteNumber":60,"Velocity":26,"Duration":193965,"SoundDuration":193965,"Delta":120619761},{"NoteNumber":87,"Velocity":44,"Duration":129310,"SoundDuration":129310,"Delta":120749071},{"NoteNumber":75,"Velocity":51,"Duration":128755,"SoundDuration":128755,"Delta":120878381},{"NoteNumber":68,"Velocity":32,"Duration":193132,"SoundDuration":193132,"Delta":120878381},{"NoteNumber":60,"Velocity":26,"Duration":193132,"SoundDuration":193132,"Delta":120878381},{"NoteNumber":63,"Velocity":26,"Duration":193132,"SoundDuration":193132,"Delta":120878381},{"NoteNumber":87,"Velocity":43,"Duration":128755,"SoundDuration":128755,"Delta":121007137},{"NoteNumber":84,"Velocity":47,"Duration":133928,"SoundDuration":133928,"Delta":121135892},{"NoteNumber":68,"Velocity":35,"Duration":200892,"SoundDuration":200892,"Delta":121135892},{"NoteNumber":63,"Velocity":29,"Duration":200892,"SoundDuration":200892,"Delta":121135892},{"NoteNumber":60,"Velocity":29,"Duration":200892,"SoundDuration":200892,"Delta":121135892},{"NoteNumber":75,"Velocity":41,"Duration":133928,"SoundDuration":133928,"Delta":121269820},{"NoteNumber":75,"Velocity":47,"Duration":129870,"SoundDuration":129870,"Delta":121403749},{"NoteNumber":68,"Velocity":35,"Duration":259740,"SoundDuration":259740,"Delta":121403749},{"NoteNumber":72,"Velocity":42,"Duration":194805,"SoundDuration":194805,"Delta":121468684},{"NoteNumber":63,"Velocity":35,"Duration":194805,"SoundDuration":194805,"Delta":121468684},{"NoteNumber":87,"Velocity":39,"Duration":129870,"SoundDuration":129870,"Delta":121533619},{"NoteNumber":84,"Velocity":41,"Duration":146341,"SoundDuration":146341,"Delta":121663489},{"NoteNumber":60,"Velocity":26,"Duration":219512,"SoundDuration":219512,"Delta":121663489},{"NoteNumber":68,"Velocity":31,"Duration":219512,"SoundDuration":219512,"Delta":121663489},{"NoteNumber":63,"Velocity":26,"Duration":219512,"SoundDuration":219512,"Delta":121663489},{"NoteNumber":75,"Velocity":38,"Duration":146341,"SoundDuration":146341,"Delta":121809831},{"NoteNumber":80,"Velocity":47,"Duration":129870,"SoundDuration":129870,"Delta":121956172},{"NoteNumber":60,"Velocity":26,"Duration":194805,"SoundDuration":194805,"Delta":121956172},{"NoteNumber":68,"Velocity":31,"Duration":194805,"SoundDuration":194805,"Delta":121956172},{"NoteNumber":63,"Velocity":26,"Duration":194805,"SoundDuration":194805,"Delta":121956172},{"NoteNumber":92,"Velocity":42,"Duration":129870,"SoundDuration":129870,"Delta":122086043},{"NoteNumber":75,"Velocity":43,"Duration":133928,"SoundDuration":133928,"Delta":122215913},{"NoteNumber":63,"Velocity":26,"Duration":200892,"SoundDuration":200892,"Delta":122215913},{"NoteNumber":68,"Velocity":31,"Duration":200892,"SoundDuration":200892,"Delta":122215913},{"NoteNumber":60,"Velocity":26,"Duration":200892,"SoundDuration":200892,"Delta":122215913},{"NoteNumber":87,"Velocity":37,"Duration":133928,"SoundDuration":133928,"Delta":122349841},{"NoteNumber":75,"Velocity":50,"Duration":132158,"SoundDuration":132158,"Delta":122483770},{"NoteNumber":51,"Velocity":37,"Duration":264317,"SoundDuration":264317,"Delta":122483770},{"NoteNumber":87,"Velocity":37,"Duration":132158,"SoundDuration":132158,"Delta":122615928},{"NoteNumber":85,"Velocity":44,"Duration":129870,"SoundDuration":129870,"Delta":122748087},{"NoteNumber":67,"Velocity":28,"Duration":194805,"SoundDuration":194805,"Delta":122748087},{"NoteNumber":58,"Velocity":23,"Duration":194805,"SoundDuration":194805,"Delta":122748087},{"NoteNumber":63,"Velocity":23,"Duration":194805,"SoundDuration":194805,"Delta":122748087},{"NoteNumber":75,"Velocity":37,"Duration":129870,"SoundDuration":129870,"Delta":122877957},{"NoteNumber":75,"Velocity":48,"Duration":129870,"SoundDuration":129870,"Delta":123007827},{"NoteNumber":63,"Velocity":23,"Duration":194805,"SoundDuration":194805,"Delta":123007827},{"NoteNumber":58,"Velocity":23,"Duration":194805,"SoundDuration":194805,"Delta":123007827},{"NoteNumber":67,"Velocity":28,"Duration":194805,"SoundDuration":194805,"Delta":123007827},{"NoteNumber":87,"Velocity":37,"Duration":129870,"SoundDuration":129870,"Delta":123137698},{"NoteNumber":85,"Velocity":43,"Duration":132743,"SoundDuration":132743,"Delta":123267568},{"NoteNumber":63,"Velocity":23,"Duration":199114,"SoundDuration":199114,"Delta":123267568},{"NoteNumber":58,"Velocity":23,"Duration":199114,"SoundDuration":199114,"Delta":123267568},{"NoteNumber":67,"Velocity":28,"Duration":199114,"SoundDuration":199114,"Delta":123267568},{"NoteNumber":75,"Velocity":37,"Duration":132743,"SoundDuration":132743,"Delta":123400311},{"NoteNumber":75,"Velocity":48,"Duration":132158,"SoundDuration":132158,"Delta":123533054},{"NoteNumber":58,"Velocity":31,"Duration":198237,"SoundDuration":198237,"Delta":123533054},{"NoteNumber":63,"Velocity":31,"Duration":198237,"SoundDuration":198237,"Delta":123533054},{"NoteNumber":67,"Velocity":37,"Duration":198237,"SoundDuration":198237,"Delta":123533054},{"NoteNumber":87,"Velocity":37,"Duration":132158,"SoundDuration":132158,"Delta":123665213},{"NoteNumber":85,"Velocity":48,"Duration":132158,"SoundDuration":132158,"Delta":123797371},{"NoteNumber":63,"Velocity":24,"Duration":198237,"SoundDuration":198237,"Delta":123797371},{"NoteNumber":67,"Velocity":29,"Duration":198237,"SoundDuration":198237,"Delta":123797371},{"NoteNumber":58,"Velocity":24,"Duration":198237,"SoundDuration":198237,"Delta":123797371},{"NoteNumber":75,"Velocity":44,"Duration":132158,"SoundDuration":132158,"Delta":123929530},{"NoteNumber":84,"Velocity":53,"Duration":132158,"SoundDuration":132158,"Delta":124061688},{"NoteNumber":68,"Velocity":31,"Duration":264317,"SoundDuration":264317,"Delta":124061688},{"NoteNumber":63,"Velocity":26,"Duration":264317,"SoundDuration":264317,"Delta":124061688},{"NoteNumber":60,"Velocity":26,"Duration":264317,"SoundDuration":264317,"Delta":124061688},{"NoteNumber":87,"Velocity":46,"Duration":132158,"SoundDuration":132158,"Delta":124193847},{"NoteNumber":82,"Velocity":52,"Duration":135135,"SoundDuration":135135,"Delta":124326005},{"NoteNumber":61,"Velocity":28,"Duration":270270,"SoundDuration":270270,"Delta":124326005},{"NoteNumber":70,"Velocity":33,"Duration":270270,"SoundDuration":270270,"Delta":124326005},{"NoteNumber":63,"Velocity":28,"Duration":270270,"SoundDuration":270270,"Delta":124326005},{"NoteNumber":87,"Velocity":47,"Duration":135135,"SoundDuration":135135,"Delta":124461141},{"NoteNumber":75,"Velocity":58,"Duration":141509,"SoundDuration":141509,"Delta":124596276},{"NoteNumber":61,"Velocity":29,"Duration":283018,"SoundDuration":283018,"Delta":124596276},{"NoteNumber":63,"Velocity":33,"Duration":283018,"SoundDuration":283018,"Delta":124596276},{"NoteNumber":56,"Velocity":43,"Duration":1063705,"SoundDuration":1063705,"Delta":124596276},{"NoteNumber":87,"Velocity":36,"Duration":141509,"SoundDuration":141509,"Delta":124737785},{"NoteNumber":84,"Velocity":44,"Duration":127659,"SoundDuration":127659,"Delta":124879295},{"NoteNumber":63,"Velocity":23,"Duration":191489,"SoundDuration":191489,"Delta":124879295},{"NoteNumber":68,"Velocity":28,"Duration":191489,"SoundDuration":191489,"Delta":124879295},{"NoteNumber":60,"Velocity":23,"Duration":191489,"SoundDuration":191489,"Delta":124879295},{"NoteNumber":75,"Velocity":36,"Duration":127659,"SoundDuration":127659,"Delta":125006954},{"NoteNumber":75,"Velocity":50,"Duration":128755,"SoundDuration":128755,"Delta":125134614},{"NoteNumber":63,"Velocity":23,"Duration":193132,"SoundDuration":193132,"Delta":125134614},{"NoteNumber":68,"Velocity":28,"Duration":193132,"SoundDuration":193132,"Delta":125134614},{"NoteNumber":60,"Velocity":23,"Duration":193132,"SoundDuration":193132,"Delta":125134614},{"NoteNumber":87,"Velocity":36,"Duration":128755,"SoundDuration":128755,"Delta":125263369},{"NoteNumber":84,"Velocity":43,"Duration":133928,"SoundDuration":133928,"Delta":125392124},{"NoteNumber":68,"Velocity":31,"Duration":200892,"SoundDuration":200892,"Delta":125392124},{"NoteNumber":60,"Velocity":26,"Duration":200892,"SoundDuration":200892,"Delta":125392124},{"NoteNumber":63,"Velocity":26,"Duration":200892,"SoundDuration":200892,"Delta":125392124},{"NoteNumber":75,"Velocity":36,"Duration":133928,"SoundDuration":133928,"Delta":125526053},{"NoteNumber":75,"Velocity":50,"Duration":129870,"SoundDuration":129870,"Delta":125659981},{"NoteNumber":68,"Velocity":31,"Duration":259740,"SoundDuration":259740,"Delta":125659981},{"NoteNumber":72,"Velocity":37,"Duration":194805,"SoundDuration":194805,"Delta":125724916},{"NoteNumber":63,"Velocity":31,"Duration":194805,"SoundDuration":194805,"Delta":125724916},{"NoteNumber":87,"Velocity":36,"Duration":129870,"SoundDuration":129870,"Delta":125789852},{"NoteNumber":84,"Velocity":44,"Duration":146341,"SoundDuration":146341,"Delta":125919722},{"NoteNumber":63,"Velocity":26,"Duration":219512,"SoundDuration":219512,"Delta":125919722},{"NoteNumber":68,"Velocity":31,"Duration":219512,"SoundDuration":219512,"Delta":125919722},{"NoteNumber":60,"Velocity":26,"Duration":219512,"SoundDuration":219512,"Delta":125919722},{"NoteNumber":75,"Velocity":36,"Duration":146341,"SoundDuration":146341,"Delta":126066063},{"NoteNumber":80,"Velocity":53,"Duration":129870,"SoundDuration":129870,"Delta":126212405},{"NoteNumber":68,"Velocity":31,"Duration":194805,"SoundDuration":194805,"Delta":126212405},{"NoteNumber":60,"Velocity":26,"Duration":194805,"SoundDuration":194805,"Delta":126212405},{"NoteNumber":63,"Velocity":26,"Duration":194805,"SoundDuration":194805,"Delta":126212405},{"NoteNumber":92,"Velocity":44,"Duration":129870,"SoundDuration":129870,"Delta":126342275},{"NoteNumber":75,"Velocity":53,"Duration":133928,"SoundDuration":133928,"Delta":126472145},{"NoteNumber":68,"Velocity":31,"Duration":200892,"SoundDuration":200892,"Delta":126472145},{"NoteNumber":60,"Velocity":26,"Duration":200892,"SoundDuration":200892,"Delta":126472145},{"NoteNumber":63,"Velocity":26,"Duration":200892,"SoundDuration":200892,"Delta":126472145},{"NoteNumber":87,"Velocity":47,"Duration":133928,"SoundDuration":133928,"Delta":126606074},{"NoteNumber":87,"Velocity":63,"Duration":132158,"SoundDuration":132158,"Delta":126740002},{"NoteNumber":51,"Velocity":37,"Duration":264317,"SoundDuration":264317,"Delta":126740002},{"NoteNumber":99,"Velocity":52,"Duration":132158,"SoundDuration":132158,"Delta":126872161},{"NoteNumber":97,"Velocity":62,"Duration":129870,"SoundDuration":129870,"Delta":127004319},{"NoteNumber":58,"Velocity":23,"Duration":194805,"SoundDuration":194805,"Delta":127004319},{"NoteNumber":63,"Velocity":23,"Duration":194805,"SoundDuration":194805,"Delta":127004319},{"NoteNumber":67,"Velocity":28,"Duration":194805,"SoundDuration":194805,"Delta":127004319},{"NoteNumber":87,"Velocity":50,"Duration":129903,"SoundDuration":129903,"Delta":127134190},{"NoteNumber":87,"Velocity":63,"Duration":130672,"SoundDuration":130672,"Delta":127264093},{"NoteNumber":67,"Velocity":28,"Duration":196332,"SoundDuration":196332,"Delta":127264093},{"NoteNumber":63,"Velocity":23,"Duration":196332,"SoundDuration":196332,"Delta":127264093},{"NoteNumber":58,"Velocity":23,"Duration":196332,"SoundDuration":196332,"Delta":127264093},{"NoteNumber":99,"Velocity":54,"Duration":131526,"SoundDuration":131526,"Delta":127394765},{"NoteNumber":97,"Velocity":59,"Duration":132446,"SoundDuration":132446,"Delta":127526292},{"NoteNumber":63,"Velocity":23,"Duration":199029,"SoundDuration":199029,"Delta":127526292},{"NoteNumber":67,"Velocity":28,"Duration":199029,"SoundDuration":199029,"Delta":127526292},{"NoteNumber":58,"Velocity":23,"Duration":199029,"SoundDuration":199029,"Delta":127526292},{"NoteNumber":87,"Velocity":51,"Duration":133705,"SoundDuration":133705,"Delta":127658738},{"NoteNumber":87,"Velocity":64,"Duration":140624,"SoundDuration":140624,"Delta":127792443},{"NoteNumber":58,"Velocity":31,"Duration":212087,"SoundDuration":212087,"Delta":127792443},{"NoteNumber":67,"Velocity":37,"Duration":212087,"SoundDuration":212087,"Delta":127792443},{"NoteNumber":63,"Velocity":31,"Duration":212087,"SoundDuration":212087,"Delta":127792443},{"NoteNumber":99,"Velocity":48,"Duration":143642,"SoundDuration":143642,"Delta":127933068},{"NoteNumber":97,"Velocity":57,"Duration":146799,"SoundDuration":146799,"Delta":128076711},{"NoteNumber":63,"Velocity":24,"Duration":221465,"SoundDuration":221465,"Delta":128076711},{"NoteNumber":67,"Velocity":29,"Duration":221465,"SoundDuration":221465,"Delta":128076711},{"NoteNumber":58,"Velocity":24,"Duration":221465,"SoundDuration":221465,"Delta":128076711},{"NoteNumber":87,"Velocity":46,"Duration":150157,"SoundDuration":150157,"Delta":128223511},{"NoteNumber":96,"Velocity":63,"Duration":152284,"SoundDuration":152284,"Delta":128373669},{"NoteNumber":68,"Velocity":31,"Duration":304568,"SoundDuration":304568,"Delta":128373669},{"NoteNumber":63,"Velocity":26,"Duration":304568,"SoundDuration":304568,"Delta":128373669},{"NoteNumber":60,"Velocity":26,"Duration":304568,"SoundDuration":304568,"Delta":128373669},{"NoteNumber":99,"Velocity":52,"Duration":152284,"SoundDuration":152284,"Delta":128525953},{"NoteNumber":94,"Velocity":59,"Duration":168539,"SoundDuration":168539,"Delta":128678237},{"NoteNumber":70,"Velocity":33,"Duration":337078,"SoundDuration":337078,"Delta":128678237},{"NoteNumber":63,"Velocity":28,"Duration":337078,"SoundDuration":337078,"Delta":128678237},{"NoteNumber":61,"Velocity":28,"Duration":337078,"SoundDuration":337078,"Delta":128678237},{"NoteNumber":99,"Velocity":48,"Duration":168539,"SoundDuration":168539,"Delta":128846776},{"NoteNumber":94,"Velocity":59,"Duration":1439705,"SoundDuration":1439705,"Delta":129015316},{"NoteNumber":51,"Velocity":33,"Duration":291261,"SoundDuration":291261,"Delta":129015316},{"NoteNumber":70,"Velocity":33,"Duration":3853922,"SoundDuration":3853922,"Delta":129597840},{"NoteNumber":63,"Velocity":33,"Duration":3853922,"SoundDuration":3853922,"Delta":129597840},{"NoteNumber":61,"Velocity":33,"Duration":3853922,"SoundDuration":3853922,"Delta":129597840},{"NoteNumber":96,"Velocity":66,"Duration":288461,"SoundDuration":288461,"Delta":130455021},{"NoteNumber":97,"Velocity":71,"Duration":301507,"SoundDuration":301507,"Delta":130743483},{"NoteNumber":98,"Velocity":75,"Duration":301507,"SoundDuration":301507,"Delta":131044990},{"NoteNumber":99,"Velocity":79,"Duration":1578947,"SoundDuration":1578947,"Delta":131346498},{"NoteNumber":91,"Velocity":66,"Duration":526316,"SoundDuration":526316,"Delta":132925446},{"NoteNumber":96,"Velocity":56,"Duration":126050,"SoundDuration":126050,"Delta":133451762},{"NoteNumber":68,"Velocity":33,"Duration":1512606,"SoundDuration":1512606,"Delta":133451762},{"NoteNumber":56,"Velocity":33,"Duration":1512606,"SoundDuration":1512606,"Delta":133451762},{"NoteNumber":63,"Velocity":33,"Duration":1512606,"SoundDuration":1512606,"Delta":133451762},{"NoteNumber":60,"Velocity":33,"Duration":1512606,"SoundDuration":1512606,"Delta":133451762},{"NoteNumber":99,"Velocity":49,"Duration":126050,"SoundDuration":126050,"Delta":133577812},{"NoteNumber":92,"Velocity":49,"Duration":126050,"SoundDuration":126050,"Delta":133703863},{"NoteNumber":96,"Velocity":45,"Duration":126050,"SoundDuration":126050,"Delta":133829913},{"NoteNumber":87,"Velocity":56,"Duration":126050,"SoundDuration":126050,"Delta":133955964},{"NoteNumber":92,"Velocity":50,"Duration":126050,"SoundDuration":126050,"Delta":134082014},{"NoteNumber":84,"Velocity":50,"Duration":126050,"SoundDuration":126050,"Delta":134208065},{"NoteNumber":87,"Velocity":45,"Duration":126050,"SoundDuration":126050,"Delta":134334115},{"NoteNumber":80,"Velocity":56,"Duration":126050,"SoundDuration":126050,"Delta":134460166},{"NoteNumber":84,"Velocity":50,"Duration":126050,"SoundDuration":126050,"Delta":134586216},{"NoteNumber":75,"Velocity":50,"Duration":126050,"SoundDuration":126050,"Delta":134712267},{"NoteNumber":80,"Velocity":50,"Duration":126050,"SoundDuration":126050,"Delta":134838317},{"NoteNumber":72,"Velocity":56,"Duration":126050,"SoundDuration":126050,"Delta":134964368},{"NoteNumber":75,"Velocity":50,"Duration":126050,"SoundDuration":126050,"Delta":135090418},{"NoteNumber":68,"Velocity":50,"Duration":126050,"SoundDuration":126050,"Delta":135216469},{"NoteNumber":72,"Velocity":45,"Duration":134529,"SoundDuration":134529,"Delta":135342519},{"NoteNumber":63,"Velocity":53,"Duration":124481,"SoundDuration":124481,"Delta":135477048},{"NoteNumber":68,"Velocity":44,"Duration":124481,"SoundDuration":124481,"Delta":135601530},{"NoteNumber":60,"Velocity":44,"Duration":124481,"SoundDuration":124481,"Delta":135726011},{"NoteNumber":63,"Velocity":40,"Duration":124481,"SoundDuration":124481,"Delta":135850492},{"NoteNumber":56,"Velocity":46,"Duration":124481,"SoundDuration":124481,"Delta":135974973},{"NoteNumber":60,"Velocity":39,"Duration":124481,"SoundDuration":124481,"Delta":136099455},{"NoteNumber":51,"Velocity":39,"Duration":124481,"SoundDuration":124481,"Delta":136223936},{"NoteNumber":56,"Velocity":35,"Duration":133333,"SoundDuration":133333,"Delta":136348417},{"NoteNumber":60,"Velocity":44,"Duration":123966,"SoundDuration":123966,"Delta":136481750},{"NoteNumber":63,"Velocity":37,"Duration":123966,"SoundDuration":123966,"Delta":136605717},{"NoteNumber":51,"Velocity":37,"Duration":123967,"SoundDuration":123967,"Delta":136729684},{"NoteNumber":56,"Velocity":33,"Duration":123966,"SoundDuration":123966,"Delta":136853651},{"NoteNumber":60,"Velocity":43,"Duration":123966,"SoundDuration":123966,"Delta":136977618},{"NoteNumber":63,"Velocity":35,"Duration":123966,"SoundDuration":123966,"Delta":137101585},{"NoteNumber":51,"Velocity":35,"Duration":123967,"SoundDuration":123967,"Delta":137225552},{"NoteNumber":56,"Velocity":30,"Duration":129456,"SoundDuration":129456,"Delta":137349519},{"NoteNumber":60,"Velocity":41,"Duration":124541,"SoundDuration":124541,"Delta":137478976},{"NoteNumber":63,"Velocity":34,"Duration":125000,"SoundDuration":125000,"Delta":137603518},{"NoteNumber":51,"Velocity":34,"Duration":125357,"SoundDuration":125357,"Delta":137728518},{"NoteNumber":56,"Velocity":28,"Duration":125650,"SoundDuration":125650,"Delta":137853875},{"NoteNumber":60,"Velocity":40,"Duration":126050,"SoundDuration":126050,"Delta":137979526},{"NoteNumber":63,"Velocity":31,"Duration":126475,"SoundDuration":126475,"Delta":138105576},{"NoteNumber":51,"Velocity":31,"Duration":126774,"SoundDuration":126774,"Delta":138232052},{"NoteNumber":56,"Velocity":27,"Duration":127118,"SoundDuration":127118,"Delta":138358827},{"NoteNumber":60,"Velocity":38,"Duration":128428,"SoundDuration":128428,"Delta":138485945},{"NoteNumber":63,"Velocity":31,"Duration":130755,"SoundDuration":130755,"Delta":138614374},{"NoteNumber":51,"Velocity":30,"Duration":133193,"SoundDuration":133193,"Delta":138745130},{"NoteNumber":56,"Velocity":28,"Duration":135803,"SoundDuration":135803,"Delta":138878323},{"NoteNumber":60,"Velocity":38,"Duration":138508,"SoundDuration":138508,"Delta":139014127},{"NoteNumber":63,"Velocity":29,"Duration":141219,"SoundDuration":141219,"Delta":139152635},{"NoteNumber":51,"Velocity":29,"Duration":144068,"SoundDuration":144068,"Delta":139293855},{"NoteNumber":56,"Velocity":25,"Duration":147764,"SoundDuration":147764,"Delta":139437923},{"NoteNumber":44,"Velocity":37,"Duration":498443,"SoundDuration":498443,"Delta":139585687},{"NoteNumber":59,"Velocity":37,"Duration":125000,"SoundDuration":125000,"Delta":139585687},{"NoteNumber":32,"Velocity":28,"Duration":498443,"SoundDuration":498443,"Delta":139585687},{"NoteNumber":63,"Velocity":29,"Duration":124502,"SoundDuration":124502,"Delta":139705479},{"NoteNumber":51,"Velocity":29,"Duration":124481,"SoundDuration":124481,"Delta":139835169},{"NoteNumber":56,"Velocity":25,"Duration":124481,"SoundDuration":124481,"Delta":139959650},{"NoteNumber":59,"Velocity":37,"Duration":127659,"SoundDuration":127659,"Delta":140084131},{"NoteNumber":63,"Velocity":29,"Duration":123966,"SoundDuration":123966,"Delta":140211791},{"NoteNumber":51,"Velocity":29,"Duration":125522,"SoundDuration":125522,"Delta":140335758},{"NoteNumber":56,"Velocity":25,"Duration":125000,"SoundDuration":125000,"Delta":140461281},{"NoteNumber":59,"Velocity":37,"Duration":126582,"SoundDuration":126582,"Delta":140586281},{"NoteNumber":63,"Velocity":29,"Duration":124481,"SoundDuration":124481,"Delta":140712863},{"NoteNumber":51,"Velocity":29,"Duration":129310,"SoundDuration":129310,"Delta":140837344},{"NoteNumber":56,"Velocity":26,"Duration":129310,"SoundDuration":129310,"Delta":140966654},{"NoteNumber":71,"Velocity":45,"Duration":252101,"SoundDuration":252101,"Delta":141095965},{"NoteNumber":68,"Velocity":38,"Duration":252101,"SoundDuration":252101,"Delta":141095965},{"NoteNumber":59,"Velocity":37,"Duration":126050,"SoundDuration":126050,"Delta":141095965},{"NoteNumber":63,"Velocity":29,"Duration":126050,"SoundDuration":126050,"Delta":141222015},{"NoteNumber":70,"Velocity":40,"Duration":291148,"SoundDuration":291148,"Delta":141348066},{"NoteNumber":73,"Velocity":48,"Duration":291148,"SoundDuration":291148,"Delta":141348066},{"NoteNumber":61,"Velocity":36,"Duration":132158,"SoundDuration":132158,"Delta":141348066},{"NoteNumber":63,"Velocity":39,"Duration":158989,"SoundDuration":158989,"Delta":141480224},{"NoteNumber":75,"Velocity":50,"Duration":495953,"SoundDuration":495953,"Delta":141639214},{"NoteNumber":71,"Velocity":42,"Duration":495953,"SoundDuration":495953,"Delta":141639214},{"NoteNumber":59,"Velocity":47,"Duration":123277,"SoundDuration":123277,"Delta":141639214},{"NoteNumber":63,"Velocity":36,"Duration":124182,"SoundDuration":124182,"Delta":141762491},{"NoteNumber":51,"Velocity":36,"Duration":125036,"SoundDuration":125036,"Delta":141886674},{"NoteNumber":56,"Velocity":32,"Duration":123456,"SoundDuration":123456,"Delta":142011711},{"NoteNumber":59,"Velocity":40,"Duration":124447,"SoundDuration":124447,"Delta":142135167},{"NoteNumber":63,"Velocity":36,"Duration":123456,"SoundDuration":123456,"Delta":142259615},{"NoteNumber":51,"Velocity":36,"Duration":124407,"SoundDuration":124407,"Delta":142383072},{"NoteNumber":56,"Velocity":33,"Duration":124075,"SoundDuration":124075,"Delta":142507479},{"NoteNumber":59,"Velocity":45,"Duration":134529,"SoundDuration":134529,"Delta":142631554},{"NoteNumber":63,"Velocity":35,"Duration":134529,"SoundDuration":134529,"Delta":142766083},{"NoteNumber":47,"Velocity":44,"Duration":250000,"SoundDuration":250000,"Delta":142900613},{"NoteNumber":51,"Velocity":37,"Duration":250000,"SoundDuration":250000,"Delta":142900613},{"NoteNumber":56,"Velocity":35,"Duration":125000,"SoundDuration":125000,"Delta":142900613},{"NoteNumber":59,"Velocity":35,"Duration":125000,"SoundDuration":125000,"Delta":142900613},{"NoteNumber":63,"Velocity":35,"Duration":125000,"SoundDuration":125000,"Delta":143025613},{"NoteNumber":51,"Velocity":39,"Duration":249858,"SoundDuration":249858,"Delta":143150613},{"NoteNumber":46,"Velocity":47,"Duration":249858,"SoundDuration":249858,"Delta":143150613},{"NoteNumber":55,"Velocity":44,"Duration":124591,"SoundDuration":124591,"Delta":143150613},{"NoteNumber":61,"Velocity":44,"Duration":124591,"SoundDuration":124591,"Delta":143150613},{"NoteNumber":63,"Velocity":29,"Duration":125267,"SoundDuration":125267,"Delta":143275204},{"NoteNumber":44,"Velocity":50,"Duration":250581,"SoundDuration":250581,"Delta":143400471},{"NoteNumber":51,"Velocity":42,"Duration":250581,"SoundDuration":250581,"Delta":143400471},{"NoteNumber":59,"Velocity":31,"Duration":125633,"SoundDuration":125633,"Delta":143400471},{"NoteNumber":56,"Velocity":31,"Duration":125633,"SoundDuration":125633,"Delta":143400471},{"NoteNumber":63,"Velocity":27,"Duration":124948,"SoundDuration":124948,"Delta":143526105},{"NoteNumber":39,"Velocity":55,"Duration":248469,"SoundDuration":248469,"Delta":143651053},{"NoteNumber":51,"Velocity":39,"Duration":248469,"SoundDuration":248469,"Delta":143651053},{"NoteNumber":58,"Velocity":37,"Duration":124280,"SoundDuration":124280,"Delta":143651053},{"NoteNumber":55,"Velocity":37,"Duration":124280,"SoundDuration":124280,"Delta":143651053},{"NoteNumber":63,"Velocity":29,"Duration":124317,"SoundDuration":124317,"Delta":143770081},{"NoteNumber":51,"Velocity":29,"Duration":124746,"SoundDuration":124746,"Delta":143899522},{"NoteNumber":55,"Velocity":26,"Duration":123411,"SoundDuration":123411,"Delta":144024269},{"NoteNumber":58,"Velocity":37,"Duration":124639,"SoundDuration":124639,"Delta":144147680},{"NoteNumber":63,"Velocity":29,"Duration":123720,"SoundDuration":123720,"Delta":144272320},{"NoteNumber":51,"Velocity":29,"Duration":124389,"SoundDuration":124389,"Delta":144396040},{"NoteNumber":55,"Velocity":24,"Duration":125690,"SoundDuration":125690,"Delta":144520430},{"NoteNumber":58,"Velocity":37,"Duration":124587,"SoundDuration":124587,"Delta":144646120},{"NoteNumber":63,"Velocity":29,"Duration":125104,"SoundDuration":125104,"Delta":144770708},{"NoteNumber":51,"Velocity":29,"Duration":129310,"SoundDuration":129310,"Delta":144895812},{"NoteNumber":55,"Velocity":26,"Duration":129310,"SoundDuration":129310,"Delta":145025123},{"NoteNumber":70,"Velocity":54,"Duration":252101,"SoundDuration":252101,"Delta":145154433},{"NoteNumber":73,"Velocity":64,"Duration":252101,"SoundDuration":252101,"Delta":145154433},{"NoteNumber":58,"Velocity":42,"Duration":126050,"SoundDuration":126050,"Delta":145154433},{"NoteNumber":63,"Velocity":31,"Duration":126050,"SoundDuration":126050,"Delta":145280483},{"NoteNumber":76,"Velocity":61,"Duration":291732,"SoundDuration":291732,"Delta":145406534},{"NoteNumber":73,"Velocity":51,"Duration":291732,"SoundDuration":291732,"Delta":145406534},{"NoteNumber":61,"Velocity":31,"Duration":132158,"SoundDuration":132158,"Delta":145406534},{"NoteNumber":63,"Velocity":27,"Duration":159574,"SoundDuration":159574,"Delta":145538692},{"NoteNumber":75,"Velocity":57,"Duration":494894,"SoundDuration":494894,"Delta":145698267},{"NoteNumber":71,"Velocity":48,"Duration":494894,"SoundDuration":494894,"Delta":145698267},{"NoteNumber":59,"Velocity":39,"Duration":124177,"SoundDuration":124177,"Delta":145698267},{"NoteNumber":63,"Velocity":29,"Duration":125077,"SoundDuration":125077,"Delta":145829706},{"NoteNumber":51,"Velocity":29,"Duration":123002,"SoundDuration":123002,"Delta":145959949},{"NoteNumber":56,"Velocity":25,"Duration":122355,"SoundDuration":122355,"Delta":146082951},{"NoteNumber":59,"Velocity":42,"Duration":123163,"SoundDuration":123163,"Delta":146205307},{"NoteNumber":63,"Velocity":34,"Duration":122503,"SoundDuration":122503,"Delta":146328470},{"NoteNumber":51,"Velocity":34,"Duration":124327,"SoundDuration":124327,"Delta":146450974},{"NoteNumber":56,"Velocity":27,"Duration":125434,"SoundDuration":125434,"Delta":146575301},{"NoteNumber":59,"Velocity":41,"Duration":134529,"SoundDuration":134529,"Delta":146700736},{"NoteNumber":63,"Velocity":33,"Duration":133576,"SoundDuration":133576,"Delta":146835265},{"NoteNumber":51,"Velocity":33,"Duration":125000,"SoundDuration":125000,"Delta":146956342},{"NoteNumber":56,"Velocity":29,"Duration":124948,"SoundDuration":124948,"Delta":147081342},{"NoteNumber":51,"Velocity":41,"Duration":248266,"SoundDuration":248266,"Delta":147206290},{"NoteNumber":47,"Velocity":57,"Duration":248266,"SoundDuration":248266,"Delta":147206290},{"NoteNumber":59,"Velocity":37,"Duration":123663,"SoundDuration":123663,"Delta":147206290},{"NoteNumber":63,"Velocity":29,"Duration":124349,"SoundDuration":124349,"Delta":147342402},{"NoteNumber":46,"Velocity":47,"Duration":250182,"SoundDuration":250182,"Delta":147454556},{"NoteNumber":51,"Velocity":39,"Duration":250182,"SoundDuration":250182,"Delta":147454556},{"NoteNumber":61,"Velocity":29,"Duration":125482,"SoundDuration":125482,"Delta":147454556},{"NoteNumber":55,"Velocity":29,"Duration":125482,"SoundDuration":125482,"Delta":147454556},{"NoteNumber":63,"Velocity":26,"Duration":112094,"SoundDuration":112094,"Delta":147592644},{"NoteNumber":44,"Velocity":50,"Duration":245628,"SoundDuration":245628,"Delta":147704739},{"NoteNumber":51,"Velocity":42,"Duration":243644,"SoundDuration":243644,"Delta":147704739},{"NoteNumber":59,"Velocity":37,"Duration":124380,"SoundDuration":124380,"Delta":147704739},{"NoteNumber":56,"Velocity":37,"Duration":124380,"SoundDuration":124380,"Delta":147704739},{"NoteNumber":63,"Velocity":29,"Duration":121453,"SoundDuration":121453,"Delta":147823954},{"NoteNumber":51,"Velocity":29,"Duration":121519,"SoundDuration":121519,"Delta":147950367},{"NoteNumber":56,"Velocity":24,"Duration":123872,"SoundDuration":123872,"Delta":148071887},{"NoteNumber":59,"Velocity":38,"Duration":123161,"SoundDuration":123161,"Delta":148195760},{"NoteNumber":63,"Velocity":30,"Duration":124328,"SoundDuration":124328,"Delta":148318922},{"NoteNumber":51,"Velocity":31,"Duration":125615,"SoundDuration":125615,"Delta":148443250},{"NoteNumber":56,"Velocity":31,"Duration":125003,"SoundDuration":125003,"Delta":148568865},{"NoteNumber":59,"Velocity":40,"Duration":125892,"SoundDuration":125892,"Delta":148693869},{"NoteNumber":63,"Velocity":32,"Duration":124176,"SoundDuration":124176,"Delta":148819761},{"NoteNumber":51,"Velocity":32,"Duration":129310,"SoundDuration":129310,"Delta":148943937},{"NoteNumber":56,"Velocity":28,"Duration":129310,"SoundDuration":129310,"Delta":149073248},{"NoteNumber":71,"Velocity":51,"Duration":252101,"SoundDuration":252101,"Delta":149202558},{"NoteNumber":68,"Velocity":43,"Duration":252101,"SoundDuration":252101,"Delta":149202558},{"NoteNumber":59,"Velocity":42,"Duration":126050,"SoundDuration":126050,"Delta":149202558},{"NoteNumber":63,"Velocity":33,"Duration":126050,"SoundDuration":126050,"Delta":149328608},{"NoteNumber":73,"Velocity":55,"Duration":291732,"SoundDuration":291732,"Delta":149454659},{"NoteNumber":70,"Velocity":46,"Duration":291732,"SoundDuration":291732,"Delta":149454659},{"NoteNumber":54,"Velocity":41,"Duration":132158,"SoundDuration":132158,"Delta":149454659},{"NoteNumber":61,"Velocity":41,"Duration":132158,"SoundDuration":132158,"Delta":149454659},{"NoteNumber":66,"Velocity":44,"Duration":159574,"SoundDuration":159574,"Delta":149586817},{"NoteNumber":71,"Velocity":48,"Duration":496839,"SoundDuration":496839,"Delta":149746392},{"NoteNumber":75,"Velocity":57,"Duration":496839,"SoundDuration":496839,"Delta":149746392},{"NoteNumber":63,"Velocity":54,"Duration":123616,"SoundDuration":123616,"Delta":149746392},{"NoteNumber":59,"Velocity":54,"Duration":123616,"SoundDuration":123616,"Delta":149746392},{"NoteNumber":66,"Velocity":41,"Duration":125580,"SoundDuration":125580,"Delta":149870008},{"NoteNumber":54,"Velocity":41,"Duration":124156,"SoundDuration":124156,"Delta":149997655},{"NoteNumber":59,"Velocity":35,"Duration":123512,"SoundDuration":123512,"Delta":150119719},{"NoteNumber":63,"Velocity":46,"Duration":125159,"SoundDuration":125159,"Delta":150243231},{"NoteNumber":66,"Velocity":41,"Duration":124023,"SoundDuration":124023,"Delta":150368390},{"NoteNumber":54,"Velocity":41,"Duration":124283,"SoundDuration":124283,"Delta":150492413},{"NoteNumber":59,"Velocity":36,"Duration":124122,"SoundDuration":124122,"Delta":150616697},{"NoteNumber":63,"Velocity":51,"Duration":134529,"SoundDuration":134529,"Delta":150740819},{"NoteNumber":66,"Velocity":44,"Duration":134529,"SoundDuration":134529,"Delta":150875348},{"NoteNumber":51,"Velocity":50,"Duration":248663,"SoundDuration":248663,"Delta":151009878},{"NoteNumber":54,"Velocity":42,"Duration":248663,"SoundDuration":248663,"Delta":151009878},{"NoteNumber":59,"Velocity":46,"Duration":124948,"SoundDuration":124948,"Delta":151009878},{"NoteNumber":63,"Velocity":46,"Duration":124948,"SoundDuration":124948,"Delta":151009878},{"NoteNumber":66,"Velocity":47,"Duration":123715,"SoundDuration":123715,"Delta":151134826},{"NoteNumber":49,"Velocity":51,"Duration":249402,"SoundDuration":249402,"Delta":151258541},{"NoteNumber":54,"Velocity":42,"Duration":249402,"SoundDuration":249402,"Delta":151258541},{"NoteNumber":58,"Velocity":55,"Duration":124640,"SoundDuration":124640,"Delta":151258541},{"NoteNumber":64,"Velocity":55,"Duration":124640,"SoundDuration":124640,"Delta":151258541},{"NoteNumber":66,"Velocity":48,"Duration":124761,"SoundDuration":124761,"Delta":151383182},{"NoteNumber":47,"Velocity":54,"Duration":249123,"SoundDuration":249123,"Delta":151507944},{"NoteNumber":54,"Velocity":45,"Duration":249123,"SoundDuration":249123,"Delta":151507944},{"NoteNumber":63,"Velocity":50,"Duration":124640,"SoundDuration":124640,"Delta":151507944},{"NoteNumber":59,"Velocity":50,"Duration":124640,"SoundDuration":124640,"Delta":151507944},{"NoteNumber":66,"Velocity":54,"Duration":124482,"SoundDuration":124482,"Delta":151632584},{"NoteNumber":42,"Velocity":63,"Duration":246874,"SoundDuration":246874,"Delta":151757067},{"NoteNumber":54,"Velocity":44,"Duration":246874,"SoundDuration":246874,"Delta":151757067},{"NoteNumber":61,"Velocity":60,"Duration":123059,"SoundDuration":123059,"Delta":151757067},{"NoteNumber":58,"Velocity":60,"Duration":123059,"SoundDuration":123059,"Delta":151757067},{"NoteNumber":66,"Velocity":49,"Duration":123814,"SoundDuration":123814,"Delta":151880127},{"NoteNumber":54,"Velocity":49,"Duration":124486,"SoundDuration":124486,"Delta":152003941},{"NoteNumber":58,"Velocity":42,"Duration":124745,"SoundDuration":124745,"Delta":152128428},{"NoteNumber":61,"Velocity":52,"Duration":124643,"SoundDuration":124643,"Delta":152253173},{"NoteNumber":66,"Velocity":42,"Duration":124696,"SoundDuration":124696,"Delta":152377817},{"NoteNumber":54,"Velocity":42,"Duration":124747,"SoundDuration":124747,"Delta":152502513},{"NoteNumber":58,"Velocity":36,"Duration":124585,"SoundDuration":124585,"Delta":152627261},{"NoteNumber":61,"Velocity":58,"Duration":123662,"SoundDuration":123662,"Delta":152751846},{"NoteNumber":66,"Velocity":45,"Duration":121951,"SoundDuration":121951,"Delta":152875508},{"NoteNumber":54,"Velocity":45,"Duration":129310,"SoundDuration":129310,"Delta":152997459},{"NoteNumber":58,"Velocity":40,"Duration":129310,"SoundDuration":129310,"Delta":153126770},{"NoteNumber":76,"Velocity":73,"Duration":252101,"SoundDuration":252101,"Delta":153256080},{"NoteNumber":73,"Velocity":62,"Duration":252101,"SoundDuration":252101,"Delta":153256080},{"NoteNumber":61,"Velocity":56,"Duration":126050,"SoundDuration":126050,"Delta":153256080},{"NoteNumber":66,"Velocity":41,"Duration":126050,"SoundDuration":126050,"Delta":153382130},{"NoteNumber":80,"Velocity":70,"Duration":291732,"SoundDuration":291732,"Delta":153508181},{"NoteNumber":76,"Velocity":58,"Duration":291732,"SoundDuration":291732,"Delta":153508181},{"NoteNumber":64,"Velocity":41,"Duration":132158,"SoundDuration":132158,"Delta":153508181},{"NoteNumber":66,"Velocity":35,"Duration":159574,"SoundDuration":159574,"Delta":153640339},{"NoteNumber":75,"Velocity":69,"Duration":499165,"SoundDuration":499165,"Delta":153799914},{"NoteNumber":78,"Velocity":65,"Duration":499165,"SoundDuration":499165,"Delta":153799914},{"NoteNumber":63,"Velocity":53,"Duration":124756,"SoundDuration":124756,"Delta":153799914},{"NoteNumber":66,"Velocity":43,"Duration":124748,"SoundDuration":124748,"Delta":153924670},{"NoteNumber":54,"Velocity":43,"Duration":124906,"SoundDuration":124906,"Delta":154049418},{"NoteNumber":59,"Velocity":38,"Duration":124754,"SoundDuration":124754,"Delta":154174325},{"NoteNumber":63,"Velocity":48,"Duration":123821,"SoundDuration":123821,"Delta":154299080},{"NoteNumber":66,"Velocity":38,"Duration":124899,"SoundDuration":124899,"Delta":154422901},{"NoteNumber":54,"Velocity":38,"Duration":123824,"SoundDuration":123824,"Delta":154547801},{"NoteNumber":59,"Velocity":33,"Duration":124793,"SoundDuration":124793,"Delta":154671625},{"NoteNumber":63,"Velocity":45,"Duration":134529,"SoundDuration":134529,"Delta":154796419},{"NoteNumber":66,"Velocity":35,"Duration":134529,"SoundDuration":134529,"Delta":154930948},{"NoteNumber":54,"Velocity":35,"Duration":125000,"SoundDuration":125000,"Delta":155065477},{"NoteNumber":59,"Velocity":31,"Duration":125000,"SoundDuration":125000,"Delta":155190477},{"NoteNumber":51,"Velocity":59,"Duration":242164,"SoundDuration":242164,"Delta":155315477},{"NoteNumber":54,"Velocity":43,"Duration":242164,"SoundDuration":242164,"Delta":155315477},{"NoteNumber":59,"Velocity":38,"Duration":121674,"SoundDuration":121674,"Delta":155315477},{"NoteNumber":63,"Velocity":38,"Duration":121674,"SoundDuration":121674,"Delta":155315477},{"NoteNumber":66,"Velocity":30,"Duration":120490,"SoundDuration":120490,"Delta":155437152},{"NoteNumber":49,"Velocity":48,"Duration":242385,"SoundDuration":242385,"Delta":155557642},{"NoteNumber":54,"Velocity":40,"Duration":242385,"SoundDuration":242385,"Delta":155557642},{"NoteNumber":64,"Velocity":29,"Duration":120889,"SoundDuration":120889,"Delta":155557642},{"NoteNumber":58,"Velocity":29,"Duration":120889,"SoundDuration":120889,"Delta":155557642},{"NoteNumber":66,"Velocity":26,"Duration":108996,"SoundDuration":108996,"Delta":155678531},{"NoteNumber":54,"Velocity":42,"Duration":246327,"SoundDuration":246327,"Delta":155800028},{"NoteNumber":47,"Velocity":50,"Duration":248368,"SoundDuration":248368,"Delta":155800028},{"NoteNumber":63,"Velocity":37,"Duration":124030,"SoundDuration":124030,"Delta":155800028},{"NoteNumber":59,"Velocity":37,"Duration":124030,"SoundDuration":124030,"Delta":155800028},{"NoteNumber":66,"Velocity":29,"Duration":124337,"SoundDuration":124337,"Delta":155924058},{"NoteNumber":54,"Velocity":29,"Duration":123211,"SoundDuration":123211,"Delta":156048396},{"NoteNumber":59,"Velocity":25,"Duration":126696,"SoundDuration":126696,"Delta":156171607},{"NoteNumber":63,"Velocity":38,"Duration":123719,"SoundDuration":123719,"Delta":156298304},{"NoteNumber":66,"Velocity":30,"Duration":123023,"SoundDuration":123023,"Delta":156422023},{"NoteNumber":54,"Velocity":31,"Duration":125272,"SoundDuration":125272,"Delta":156545047},{"NoteNumber":59,"Velocity":26,"Duration":123819,"SoundDuration":123819,"Delta":156670319},{"NoteNumber":63,"Velocity":40,"Duration":125164,"SoundDuration":125164,"Delta":156794139},{"NoteNumber":66,"Velocity":32,"Duration":126582,"SoundDuration":126582,"Delta":156919303},{"NoteNumber":75,"Velocity":61,"Duration":258620,"SoundDuration":258620,"Delta":157045886},{"NoteNumber":54,"Velocity":32,"Duration":129310,"SoundDuration":129310,"Delta":157045886},{"NoteNumber":59,"Velocity":28,"Duration":129310,"SoundDuration":129310,"Delta":157175196},{"NoteNumber":73,"Velocity":64,"Duration":252101,"SoundDuration":252101,"Delta":157304506},{"NoteNumber":63,"Velocity":42,"Duration":126050,"SoundDuration":126050,"Delta":157304506},{"NoteNumber":66,"Velocity":33,"Duration":126050,"SoundDuration":126050,"Delta":157430557},{"NoteNumber":71,"Velocity":66,"Duration":318494,"SoundDuration":318494,"Delta":157556607},{"NoteNumber":54,"Velocity":41,"Duration":132158,"SoundDuration":132158,"Delta":157556607},{"NoteNumber":59,"Velocity":44,"Duration":186335,"SoundDuration":186335,"Delta":157688766},{"NoteNumber":68,"Velocity":66,"Duration":492241,"SoundDuration":492241,"Delta":157875101},{"NoteNumber":64,"Velocity":50,"Duration":123409,"SoundDuration":123409,"Delta":157875101},{"NoteNumber":59,"Velocity":36,"Duration":123969,"SoundDuration":123969,"Delta":157998510},{"NoteNumber":56,"Velocity":36,"Duration":122157,"SoundDuration":122157,"Delta":158122480},{"NoteNumber":59,"Velocity":32,"Duration":122705,"SoundDuration":122705,"Delta":158244637},{"NoteNumber":64,"Velocity":45,"Duration":125177,"SoundDuration":125177,"Delta":158367343},{"NoteNumber":68,"Velocity":36,"Duration":123280,"SoundDuration":123280,"Delta":158492521},{"NoteNumber":56,"Velocity":36,"Duration":123466,"SoundDuration":123466,"Delta":158615801},{"NoteNumber":59,"Velocity":33,"Duration":123062,"SoundDuration":123062,"Delta":158739268},{"NoteNumber":64,"Velocity":44,"Duration":125107,"SoundDuration":125107,"Delta":158862331},{"NoteNumber":68,"Velocity":37,"Duration":123966,"SoundDuration":123966,"Delta":158987438},{"NoteNumber":52,"Velocity":65,"Duration":258620,"SoundDuration":258620,"Delta":159111405},{"NoteNumber":56,"Velocity":37,"Duration":129310,"SoundDuration":129310,"Delta":159111405},{"NoteNumber":61,"Velocity":37,"Duration":129310,"SoundDuration":129310,"Delta":159240716},{"NoteNumber":51,"Velocity":68,"Duration":252101,"SoundDuration":252101,"Delta":159370026},{"NoteNumber":64,"Velocity":48,"Duration":126050,"SoundDuration":126050,"Delta":159370026},{"NoteNumber":68,"Velocity":38,"Duration":126050,"SoundDuration":126050,"Delta":159496076},{"NoteNumber":49,"Velocity":71,"Duration":317343,"SoundDuration":317343,"Delta":159622127},{"NoteNumber":56,"Velocity":41,"Duration":132158,"SoundDuration":132158,"Delta":159622127},{"NoteNumber":61,"Velocity":44,"Duration":185185,"SoundDuration":185185,"Delta":159754285},{"NoteNumber":46,"Velocity":76,"Duration":993461,"SoundDuration":993461,"Delta":159939471},{"NoteNumber":64,"Velocity":56,"Duration":123158,"SoundDuration":123158,"Delta":159939471},{"NoteNumber":66,"Velocity":42,"Duration":125487,"SoundDuration":125487,"Delta":160062629},{"NoteNumber":54,"Velocity":42,"Duration":124383,"SoundDuration":124383,"Delta":160188117},{"NoteNumber":61,"Velocity":35,"Duration":123818,"SoundDuration":123818,"Delta":160312500},{"NoteNumber":64,"Velocity":52,"Duration":123541,"SoundDuration":123541,"Delta":160436318},{"NoteNumber":66,"Velocity":42,"Duration":123725,"SoundDuration":123725,"Delta":160559859},{"NoteNumber":54,"Velocity":42,"Duration":124595,"SoundDuration":124595,"Delta":160683585},{"NoteNumber":61,"Velocity":36,"Duration":124752,"SoundDuration":124752,"Delta":160808180},{"NoteNumber":47,"Velocity":61,"Duration":248356,"SoundDuration":248356,"Delta":160932932},{"NoteNumber":63,"Velocity":50,"Duration":124592,"SoundDuration":124592,"Delta":160932932},{"NoteNumber":66,"Velocity":40,"Duration":123764,"SoundDuration":123764,"Delta":161057525},{"NoteNumber":75,"Velocity":68,"Duration":258620,"SoundDuration":258620,"Delta":161181289},{"NoteNumber":54,"Velocity":40,"Duration":129310,"SoundDuration":129310,"Delta":161181289},{"NoteNumber":59,"Velocity":36,"Duration":129310,"SoundDuration":129310,"Delta":161310599},{"NoteNumber":76,"Velocity":73,"Duration":252101,"SoundDuration":252101,"Delta":161439910},{"NoteNumber":63,"Velocity":42,"Duration":126050,"SoundDuration":126050,"Delta":161439910},{"NoteNumber":66,"Velocity":33,"Duration":126050,"SoundDuration":126050,"Delta":161565960},{"NoteNumber":77,"Velocity":77,"Duration":286797,"SoundDuration":286797,"Delta":161692011},{"NoteNumber":54,"Velocity":41,"Duration":132158,"SoundDuration":132158,"Delta":161692011},{"NoteNumber":59,"Velocity":44,"Duration":154639,"SoundDuration":154639,"Delta":161824169},{"NoteNumber":78,"Velocity":82,"Duration":2031332,"SoundDuration":2031332,"Delta":161978808},{"NoteNumber":61,"Velocity":54,"Duration":122966,"SoundDuration":122966,"Delta":161978808},{"NoteNumber":66,"Velocity":41,"Duration":125811,"SoundDuration":125811,"Delta":162101775},{"NoteNumber":54,"Velocity":41,"Duration":124389,"SoundDuration":124389,"Delta":162227587},{"NoteNumber":59,"Velocity":35,"Duration":125639,"SoundDuration":125639,"Delta":162351976},{"NoteNumber":61,"Velocity":48,"Duration":123563,"SoundDuration":123563,"Delta":162477616},{"NoteNumber":66,"Velocity":39,"Duration":125000,"SoundDuration":125000,"Delta":162601180},{"NoteNumber":54,"Velocity":39,"Duration":124123,"SoundDuration":124123,"Delta":162726180},{"NoteNumber":59,"Velocity":39,"Duration":125843,"SoundDuration":125843,"Delta":162850303},{"NoteNumber":61,"Velocity":48,"Duration":123765,"SoundDuration":123765,"Delta":162976147},{"NoteNumber":66,"Velocity":32,"Duration":125839,"SoundDuration":125839,"Delta":163099912},{"NoteNumber":54,"Velocity":37,"Duration":129310,"SoundDuration":129310,"Delta":163225751},{"NoteNumber":58,"Velocity":35,"Duration":129310,"SoundDuration":129310,"Delta":163355062},{"NoteNumber":61,"Velocity":42,"Duration":126050,"SoundDuration":126050,"Delta":163484372},{"NoteNumber":66,"Velocity":29,"Duration":126050,"SoundDuration":126050,"Delta":163610422},{"NoteNumber":54,"Velocity":29,"Duration":132158,"SoundDuration":132158,"Delta":163736473},{"NoteNumber":58,"Velocity":25,"Duration":141509,"SoundDuration":141509,"Delta":163868631},{"NoteNumber":75,"Velocity":66,"Duration":496643,"SoundDuration":496643,"Delta":164010141},{"NoteNumber":63,"Velocity":37,"Duration":123210,"SoundDuration":123210,"Delta":164010141},{"NoteNumber":66,"Velocity":29,"Duration":124399,"SoundDuration":124399,"Delta":164133352},{"NoteNumber":54,"Velocity":29,"Duration":124433,"SoundDuration":124433,"Delta":164257751},{"NoteNumber":59,"Velocity":25,"Duration":124600,"SoundDuration":124600,"Delta":164382185},{"NoteNumber":63,"Velocity":38,"Duration":124952,"SoundDuration":124952,"Delta":164506785},{"NoteNumber":66,"Velocity":30,"Duration":125159,"SoundDuration":125159,"Delta":164631737},{"NoteNumber":54,"Velocity":31,"Duration":123262,"SoundDuration":123262,"Delta":164756897},{"NoteNumber":59,"Velocity":28,"Duration":124953,"SoundDuration":124953,"Delta":164880160},{"NoteNumber":62,"Velocity":40,"Duration":123819,"SoundDuration":123819,"Delta":165005114},{"NoteNumber":66,"Velocity":32,"Duration":125000,"SoundDuration":125000,"Delta":165128933},{"NoteNumber":47,"Velocity":44,"Duration":258620,"SoundDuration":258620,"Delta":165253933},{"NoteNumber":54,"Velocity":32,"Duration":129310,"SoundDuration":129310,"Delta":165253933},{"NoteNumber":59,"Velocity":28,"Duration":129310,"SoundDuration":129310,"Delta":165383243},{"NoteNumber":49,"Velocity":48,"Duration":252101,"SoundDuration":252101,"Delta":165512554},{"NoteNumber":62,"Velocity":42,"Duration":126050,"SoundDuration":126050,"Delta":165512554},{"NoteNumber":66,"Velocity":33,"Duration":126050,"SoundDuration":126050,"Delta":165638604},{"NoteNumber":50,"Velocity":45,"Duration":283833,"SoundDuration":283833,"Delta":165764655},{"NoteNumber":54,"Velocity":33,"Duration":132158,"SoundDuration":132158,"Delta":165764655},{"NoteNumber":59,"Velocity":28,"Duration":151675,"SoundDuration":151675,"Delta":165896813},{"NoteNumber":42,"Velocity":48,"Duration":2034521,"SoundDuration":2034521,"Delta":166048488},{"NoteNumber":61,"Velocity":37,"Duration":123258,"SoundDuration":123258,"Delta":166048488},{"NoteNumber":66,"Velocity":29,"Duration":125694,"SoundDuration":125694,"Delta":166171747},{"NoteNumber":54,"Velocity":29,"Duration":124399,"SoundDuration":124399,"Delta":166297441},{"NoteNumber":59,"Velocity":24,"Duration":124104,"SoundDuration":124104,"Delta":166421841},{"NoteNumber":61,"Velocity":38,"Duration":125315,"SoundDuration":125315,"Delta":166545946},{"NoteNumber":66,"Velocity":29,"Duration":124448,"SoundDuration":124448,"Delta":166671261},{"NoteNumber":54,"Velocity":29,"Duration":127046,"SoundDuration":127046,"Delta":166795709},{"NoteNumber":59,"Velocity":24,"Duration":123322,"SoundDuration":123322,"Delta":166922756},{"NoteNumber":61,"Velocity":40,"Duration":125681,"SoundDuration":125681,"Delta":167046078},{"NoteNumber":66,"Velocity":28,"Duration":125945,"SoundDuration":125945,"Delta":167171759},{"NoteNumber":54,"Velocity":28,"Duration":125522,"SoundDuration":125522,"Delta":167297705},{"NoteNumber":58,"Velocity":28,"Duration":125523,"SoundDuration":125523,"Delta":167423228},{"NoteNumber":61,"Velocity":41,"Duration":126050,"SoundDuration":126050,"Delta":167548751},{"NoteNumber":66,"Velocity":29,"Duration":126050,"SoundDuration":126050,"Delta":167674801},{"NoteNumber":54,"Velocity":29,"Duration":132158,"SoundDuration":132158,"Delta":167800852},{"NoteNumber":58,"Velocity":25,"Duration":150000,"SoundDuration":150000,"Delta":167933010},{"NoteNumber":35,"Velocity":44,"Duration":497957,"SoundDuration":497957,"Delta":168083010},{"NoteNumber":59,"Velocity":37,"Duration":124227,"SoundDuration":124227,"Delta":168083010},{"NoteNumber":63,"Velocity":29,"Duration":125261,"SoundDuration":125261,"Delta":168207238},{"NoteNumber":51,"Velocity":29,"Duration":122575,"SoundDuration":122575,"Delta":168332500},{"NoteNumber":54,"Velocity":25,"Duration":125892,"SoundDuration":125892,"Delta":168455075},{"NoteNumber":59,"Velocity":38,"Duration":123361,"SoundDuration":123361,"Delta":168580968},{"NoteNumber":63,"Velocity":30,"Duration":124795,"SoundDuration":124795,"Delta":168704330},{"NoteNumber":51,"Velocity":31,"Duration":124232,"SoundDuration":124232,"Delta":168829125},{"NoteNumber":54,"Velocity":28,"Duration":124857,"SoundDuration":124857,"Delta":168953357},{"NoteNumber":39,"Velocity":48,"Duration":759423,"SoundDuration":759423,"Delta":169078215},{"NoteNumber":61,"Velocity":40,"Duration":123421,"SoundDuration":123421,"Delta":169078215},{"NoteNumber":63,"Velocity":32,"Duration":125280,"SoundDuration":125280,"Delta":169201636},{"NoteNumber":51,"Velocity":32,"Duration":129310,"SoundDuration":129310,"Delta":169326916},{"NoteNumber":55,"Velocity":28,"Duration":129310,"SoundDuration":129310,"Delta":169456227},{"NoteNumber":61,"Velocity":42,"Duration":126050,"SoundDuration":126050,"Delta":169585537},{"NoteNumber":63,"Velocity":29,"Duration":126050,"SoundDuration":126050,"Delta":169706335},{"NoteNumber":37,"Velocity":41,"Duration":88105,"SoundDuration":88105,"Delta":169837638},{"NoteNumber":51,"Velocity":29,"Duration":132158,"SoundDuration":132158,"Delta":169837638},{"NoteNumber":35,"Velocity":35,"Duration":105781,"SoundDuration":105781,"Delta":169925743},{"NoteNumber":55,"Velocity":26,"Duration":185185,"SoundDuration":185185,"Delta":169969796},{"NoteNumber":34,"Velocity":35,"Duration":123456,"SoundDuration":123456,"Delta":170031525},{"NoteNumber":32,"Velocity":28,"Duration":495832,"SoundDuration":495832,"Delta":170154982},{"NoteNumber":44,"Velocity":37,"Duration":495832,"SoundDuration":495832,"Delta":170154982},{"NoteNumber":59,"Velocity":37,"Duration":123826,"SoundDuration":123826,"Delta":170154982},{"NoteNumber":63,"Velocity":29,"Duration":122832,"SoundDuration":122832,"Delta":170273726},{"NoteNumber":51,"Velocity":29,"Duration":125851,"SoundDuration":125851,"Delta":170401856},{"NoteNumber":56,"Velocity":26,"Duration":123106,"SoundDuration":123106,"Delta":170527708},{"NoteNumber":59,"Velocity":37,"Duration":125366,"SoundDuration":125366,"Delta":170650814},{"NoteNumber":63,"Velocity":29,"Duration":122460,"SoundDuration":122460,"Delta":170776180},{"NoteNumber":51,"Velocity":29,"Duration":125116,"SoundDuration":125116,"Delta":170898641},{"NoteNumber":56,"Velocity":26,"Duration":124027,"SoundDuration":124027,"Delta":171023758},{"NoteNumber":59,"Velocity":37,"Duration":124594,"SoundDuration":124594,"Delta":171147785},{"NoteNumber":63,"Velocity":29,"Duration":124793,"SoundDuration":124793,"Delta":171272380},{"NoteNumber":51,"Velocity":29,"Duration":129310,"SoundDuration":129310,"Delta":171397174},{"NoteNumber":56,"Velocity":26,"Duration":129310,"SoundDuration":129310,"Delta":171526484},{"NoteNumber":68,"Velocity":38,"Duration":252101,"SoundDuration":252101,"Delta":171655794},{"NoteNumber":71,"Velocity":45,"Duration":252101,"SoundDuration":252101,"Delta":171655794},{"NoteNumber":59,"Velocity":37,"Duration":126050,"SoundDuration":126050,"Delta":171655794},{"NoteNumber":63,"Velocity":29,"Duration":126050,"SoundDuration":126050,"Delta":171781845},{"NoteNumber":70,"Velocity":40,"Duration":291732,"SoundDuration":291732,"Delta":171907895},{"NoteNumber":73,"Velocity":48,"Duration":291732,"SoundDuration":291732,"Delta":171907895},{"NoteNumber":61,"Velocity":36,"Duration":132158,"SoundDuration":132158,"Delta":171907895},{"NoteNumber":63,"Velocity":39,"Duration":159574,"SoundDuration":159574,"Delta":172040054},{"NoteNumber":75,"Velocity":50,"Duration":496676,"SoundDuration":496676,"Delta":172199628},{"NoteNumber":71,"Velocity":42,"Duration":496676,"SoundDuration":496676,"Delta":172199628},{"NoteNumber":59,"Velocity":47,"Duration":124327,"SoundDuration":124327,"Delta":172199628},{"NoteNumber":63,"Velocity":36,"Duration":124281,"SoundDuration":124281,"Delta":172323956},{"NoteNumber":51,"Velocity":36,"Duration":123262,"SoundDuration":123262,"Delta":172448238},{"NoteNumber":56,"Velocity":32,"Duration":124804,"SoundDuration":124804,"Delta":172571500},{"NoteNumber":59,"Velocity":40,"Duration":123318,"SoundDuration":123318,"Delta":172696305},{"NoteNumber":63,"Velocity":36,"Duration":125211,"SoundDuration":125211,"Delta":172819623},{"NoteNumber":51,"Velocity":36,"Duration":124911,"SoundDuration":124911,"Delta":172944835},{"NoteNumber":56,"Velocity":32,"Duration":124481,"SoundDuration":124481,"Delta":173069747},{"NoteNumber":59,"Velocity":45,"Duration":134529,"SoundDuration":134529,"Delta":173194228},{"NoteNumber":63,"Velocity":35,"Duration":134529,"SoundDuration":134529,"Delta":173328757},{"NoteNumber":47,"Velocity":44,"Duration":250000,"SoundDuration":250000,"Delta":173463286},{"NoteNumber":51,"Velocity":37,"Duration":250000,"SoundDuration":250000,"Delta":173463286},{"NoteNumber":59,"Velocity":35,"Duration":125000,"SoundDuration":125000,"Delta":173463286},{"NoteNumber":56,"Velocity":35,"Duration":125000,"SoundDuration":125000,"Delta":173463286},{"NoteNumber":63,"Velocity":29,"Duration":125000,"SoundDuration":125000,"Delta":173588286},{"NoteNumber":51,"Velocity":39,"Duration":248419,"SoundDuration":248419,"Delta":173713286},{"NoteNumber":46,"Velocity":47,"Duration":248419,"SoundDuration":248419,"Delta":173713286},{"NoteNumber":61,"Velocity":44,"Duration":123407,"SoundDuration":123407,"Delta":173713286},{"NoteNumber":55,"Velocity":44,"Duration":123407,"SoundDuration":123407,"Delta":173713286},{"NoteNumber":63,"Velocity":29,"Duration":125012,"SoundDuration":125012,"Delta":173836694},{"NoteNumber":44,"Velocity":50,"Duration":248352,"SoundDuration":248352,"Delta":173961706},{"NoteNumber":51,"Velocity":42,"Duration":248352,"SoundDuration":248352,"Delta":173961706},{"NoteNumber":56,"Velocity":31,"Duration":123714,"SoundDuration":123714,"Delta":173961706},{"NoteNumber":59,"Velocity":31,"Duration":123714,"SoundDuration":123714,"Delta":173961706},{"NoteNumber":63,"Velocity":28,"Duration":124637,"SoundDuration":124637,"Delta":174085420},{"NoteNumber":39,"Velocity":55,"Duration":250811,"SoundDuration":250811,"Delta":174210058},{"NoteNumber":51,"Velocity":39,"Duration":248745,"SoundDuration":248745,"Delta":174210058},{"NoteNumber":55,"Velocity":37,"Duration":124913,"SoundDuration":124913,"Delta":174210058},{"NoteNumber":58,"Velocity":37,"Duration":124913,"SoundDuration":124913,"Delta":174210058},{"NoteNumber":63,"Velocity":29,"Duration":126006,"SoundDuration":126006,"Delta":174329698},{"NoteNumber":51,"Velocity":29,"Duration":122953,"SoundDuration":122953,"Delta":174460870},{"NoteNumber":55,"Velocity":24,"Duration":123359,"SoundDuration":123359,"Delta":174583823},{"NoteNumber":58,"Velocity":37,"Duration":126264,"SoundDuration":126264,"Delta":174707183},{"NoteNumber":63,"Velocity":29,"Duration":123512,"SoundDuration":123512,"Delta":174833447},{"NoteNumber":51,"Velocity":29,"Duration":124030,"SoundDuration":124030,"Delta":174956960},{"NoteNumber":55,"Velocity":25,"Duration":125892,"SoundDuration":125892,"Delta":175080991},{"NoteNumber":58,"Velocity":37,"Duration":125000,"SoundDuration":125000,"Delta":175206883},{"NoteNumber":63,"Velocity":29,"Duration":124330,"SoundDuration":124330,"Delta":175331883},{"NoteNumber":51,"Velocity":29,"Duration":129310,"SoundDuration":129310,"Delta":175456213},{"NoteNumber":55,"Velocity":26,"Duration":129310,"SoundDuration":129310,"Delta":175585523},{"NoteNumber":73,"Velocity":64,"Duration":252101,"SoundDuration":252101,"Delta":175714834},{"NoteNumber":70,"Velocity":54,"Duration":252101,"SoundDuration":252101,"Delta":175714834},{"NoteNumber":58,"Velocity":42,"Duration":126050,"SoundDuration":126050,"Delta":175714834},{"NoteNumber":63,"Velocity":31,"Duration":126050,"SoundDuration":126050,"Delta":175840884},{"NoteNumber":73,"Velocity":51,"Duration":291732,"SoundDuration":291732,"Delta":175966935},{"NoteNumber":76,"Velocity":61,"Duration":291732,"SoundDuration":291732,"Delta":175966935},{"NoteNumber":61,"Velocity":31,"Duration":132158,"SoundDuration":132158,"Delta":175966935},{"NoteNumber":63,"Velocity":29,"Duration":159574,"SoundDuration":159574,"Delta":176099093},{"NoteNumber":75,"Velocity":57,"Duration":498447,"SoundDuration":498447,"Delta":176258668},{"NoteNumber":71,"Velocity":48,"Duration":498447,"SoundDuration":498447,"Delta":176258668},{"NoteNumber":59,"Velocity":39,"Duration":124283,"SoundDuration":124283,"Delta":176258668},{"NoteNumber":63,"Velocity":29,"Duration":125169,"SoundDuration":125169,"Delta":176390335},{"NoteNumber":51,"Velocity":29,"Duration":125110,"SoundDuration":125110,"Delta":176520670},{"NoteNumber":56,"Velocity":24,"Duration":123629,"SoundDuration":123629,"Delta":176645781},{"NoteNumber":59,"Velocity":42,"Duration":124902,"SoundDuration":124902,"Delta":176769410},{"NoteNumber":63,"Velocity":34,"Duration":123895,"SoundDuration":123895,"Delta":176894313},{"NoteNumber":51,"Velocity":34,"Duration":125370,"SoundDuration":125370,"Delta":177018209},{"NoteNumber":56,"Velocity":28,"Duration":126113,"SoundDuration":126113,"Delta":177143579},{"NoteNumber":59,"Velocity":41,"Duration":134529,"SoundDuration":134529,"Delta":177269693},{"NoteNumber":63,"Velocity":33,"Duration":133576,"SoundDuration":133576,"Delta":177404222},{"NoteNumber":51,"Velocity":33,"Duration":125000,"SoundDuration":125000,"Delta":177525298},{"NoteNumber":56,"Velocity":29,"Duration":125000,"SoundDuration":125000,"Delta":177650298},{"NoteNumber":47,"Velocity":57,"Duration":250238,"SoundDuration":250238,"Delta":177775298},{"NoteNumber":51,"Velocity":41,"Duration":250238,"SoundDuration":250238,"Delta":177775298},{"NoteNumber":59,"Velocity":37,"Duration":124173,"SoundDuration":124173,"Delta":177775298},{"NoteNumber":63,"Velocity":29,"Duration":126168,"SoundDuration":126168,"Delta":177911868},{"NoteNumber":51,"Velocity":39,"Duration":248065,"SoundDuration":248065,"Delta":178025537},{"NoteNumber":46,"Velocity":47,"Duration":248065,"SoundDuration":248065,"Delta":178025537},{"NoteNumber":61,"Velocity":29,"Duration":123465,"SoundDuration":123465,"Delta":178025537},{"NoteNumber":55,"Velocity":29,"Duration":123465,"SoundDuration":123465,"Delta":178025537},{"NoteNumber":63,"Velocity":25,"Duration":112355,"SoundDuration":112355,"Delta":178161247},{"NoteNumber":51,"Velocity":42,"Duration":249079,"SoundDuration":249079,"Delta":178273602},{"NoteNumber":44,"Velocity":50,"Duration":249079,"SoundDuration":249079,"Delta":178273602},{"NoteNumber":59,"Velocity":37,"Duration":124590,"SoundDuration":124590,"Delta":178273602},{"NoteNumber":56,"Velocity":37,"Duration":124590,"SoundDuration":124590,"Delta":178273602},{"NoteNumber":63,"Velocity":29,"Duration":124402,"SoundDuration":124402,"Delta":178393049},{"NoteNumber":51,"Velocity":29,"Duration":123310,"SoundDuration":123310,"Delta":178522681},{"NoteNumber":56,"Velocity":25,"Duration":124093,"SoundDuration":124093,"Delta":178645992},{"NoteNumber":59,"Velocity":38,"Duration":126876,"SoundDuration":126876,"Delta":178770086},{"NoteNumber":63,"Velocity":30,"Duration":123102,"SoundDuration":123102,"Delta":178896962},{"NoteNumber":51,"Velocity":31,"Duration":122553,"SoundDuration":122553,"Delta":179020064},{"NoteNumber":56,"Velocity":28,"Duration":121911,"SoundDuration":121911,"Delta":179142618},{"NoteNumber":59,"Velocity":40,"Duration":123559,"SoundDuration":123559,"Delta":179264529},{"NoteNumber":63,"Velocity":32,"Duration":124948,"SoundDuration":124948,"Delta":179388089},{"NoteNumber":51,"Velocity":32,"Duration":129310,"SoundDuration":129310,"Delta":179513037},{"NoteNumber":56,"Velocity":27,"Duration":129310,"SoundDuration":129310,"Delta":179642347},{"NoteNumber":68,"Velocity":43,"Duration":252101,"SoundDuration":252101,"Delta":179771657},{"NoteNumber":71,"Velocity":51,"Duration":252101,"SoundDuration":252101,"Delta":179771657},{"NoteNumber":59,"Velocity":42,"Duration":126050,"SoundDuration":126050,"Delta":179771657},{"NoteNumber":63,"Velocity":33,"Duration":126050,"SoundDuration":126050,"Delta":179897708},{"NoteNumber":70,"Velocity":46,"Duration":291732,"SoundDuration":291732,"Delta":180023758},{"NoteNumber":73,"Velocity":55,"Duration":291732,"SoundDuration":291732,"Delta":180023758},{"NoteNumber":61,"Velocity":41,"Duration":132158,"SoundDuration":132158,"Delta":180023758},{"NoteNumber":54,"Velocity":41,"Duration":132158,"SoundDuration":132158,"Delta":180023758},{"NoteNumber":66,"Velocity":44,"Duration":159574,"SoundDuration":159574,"Delta":180155917},{"NoteNumber":71,"Velocity":48,"Duration":498336,"SoundDuration":498336,"Delta":180315491},{"NoteNumber":75,"Velocity":57,"Duration":498336,"SoundDuration":498336,"Delta":180315491},{"NoteNumber":63,"Velocity":54,"Duration":123665,"SoundDuration":123665,"Delta":180315491},{"NoteNumber":59,"Velocity":54,"Duration":123665,"SoundDuration":123665,"Delta":180315491},{"NoteNumber":66,"Velocity":41,"Duration":125281,"SoundDuration":125281,"Delta":180439157},{"NoteNumber":54,"Velocity":41,"Duration":123944,"SoundDuration":123944,"Delta":180566495},{"NoteNumber":59,"Velocity":36,"Duration":125470,"SoundDuration":125470,"Delta":180688357},{"NoteNumber":63,"Velocity":46,"Duration":123719,"SoundDuration":123719,"Delta":180813828},{"NoteNumber":66,"Velocity":41,"Duration":126057,"SoundDuration":126057,"Delta":180937548},{"NoteNumber":54,"Velocity":41,"Duration":124276,"SoundDuration":124276,"Delta":181063605},{"NoteNumber":59,"Velocity":36,"Duration":125104,"SoundDuration":125104,"Delta":181187882},{"NoteNumber":63,"Velocity":51,"Duration":134529,"SoundDuration":134529,"Delta":181312987},{"NoteNumber":66,"Velocity":44,"Duration":134529,"SoundDuration":134529,"Delta":181447516},{"NoteNumber":51,"Velocity":50,"Duration":250000,"SoundDuration":250000,"Delta":181582045},{"NoteNumber":54,"Velocity":42,"Duration":250000,"SoundDuration":250000,"Delta":181582045},{"NoteNumber":63,"Velocity":46,"Duration":125000,"SoundDuration":125000,"Delta":181582045},{"NoteNumber":59,"Velocity":46,"Duration":125000,"SoundDuration":125000,"Delta":181582045},{"NoteNumber":66,"Velocity":47,"Duration":125000,"SoundDuration":125000,"Delta":181707045},{"NoteNumber":54,"Velocity":42,"Duration":249151,"SoundDuration":249151,"Delta":181832045},{"NoteNumber":49,"Velocity":51,"Duration":249151,"SoundDuration":249151,"Delta":181832045},{"NoteNumber":64,"Velocity":55,"Duration":123357,"SoundDuration":123357,"Delta":181832045},{"NoteNumber":58,"Velocity":55,"Duration":123357,"SoundDuration":123357,"Delta":181832045},{"NoteNumber":66,"Velocity":48,"Duration":125794,"SoundDuration":125794,"Delta":181955402},{"NoteNumber":47,"Velocity":54,"Duration":248818,"SoundDuration":248818,"Delta":182081197},{"NoteNumber":54,"Velocity":45,"Duration":248818,"SoundDuration":248818,"Delta":182081197},{"NoteNumber":59,"Velocity":50,"Duration":125002,"SoundDuration":125002,"Delta":182081197},{"NoteNumber":63,"Velocity":50,"Duration":125002,"SoundDuration":125002,"Delta":182081197},{"NoteNumber":66,"Velocity":54,"Duration":123816,"SoundDuration":123816,"Delta":182206199},{"NoteNumber":54,"Velocity":44,"Duration":248731,"SoundDuration":248731,"Delta":182330016},{"NoteNumber":42,"Velocity":63,"Duration":248731,"SoundDuration":248731,"Delta":182330016},{"NoteNumber":61,"Velocity":60,"Duration":123517,"SoundDuration":123517,"Delta":182330016},{"NoteNumber":58,"Velocity":60,"Duration":123517,"SoundDuration":123517,"Delta":182330016},{"NoteNumber":66,"Velocity":49,"Duration":125213,"SoundDuration":125213,"Delta":182453533},{"NoteNumber":54,"Velocity":49,"Duration":122603,"SoundDuration":122603,"Delta":182578747},{"NoteNumber":58,"Velocity":43,"Duration":125478,"SoundDuration":125478,"Delta":182701350},{"NoteNumber":61,"Velocity":52,"Duration":123003,"SoundDuration":123003,"Delta":182826829},{"NoteNumber":66,"Velocity":42,"Duration":124123,"SoundDuration":124123,"Delta":182949833},{"NoteNumber":54,"Velocity":42,"Duration":122307,"SoundDuration":122307,"Delta":183073956},{"NoteNumber":58,"Velocity":36,"Duration":124186,"SoundDuration":124186,"Delta":183196264},{"NoteNumber":61,"Velocity":58,"Duration":126480,"SoundDuration":126480,"Delta":183320451},{"NoteNumber":66,"Velocity":45,"Duration":123917,"SoundDuration":123917,"Delta":183446931},{"NoteNumber":54,"Velocity":45,"Duration":129310,"SoundDuration":129310,"Delta":183570848},{"NoteNumber":58,"Velocity":36,"Duration":129310,"SoundDuration":129310,"Delta":183700158},{"NoteNumber":76,"Velocity":73,"Duration":252101,"SoundDuration":252101,"Delta":183829469},{"NoteNumber":73,"Velocity":62,"Duration":252101,"SoundDuration":252101,"Delta":183829469},{"NoteNumber":61,"Velocity":56,"Duration":126050,"SoundDuration":126050,"Delta":183829469},{"NoteNumber":66,"Velocity":41,"Duration":126050,"SoundDuration":126050,"Delta":183955519},{"NoteNumber":80,"Velocity":70,"Duration":291732,"SoundDuration":291732,"Delta":184081570},{"NoteNumber":76,"Velocity":58,"Duration":291732,"SoundDuration":291732,"Delta":184081570},{"NoteNumber":64,"Velocity":41,"Duration":132158,"SoundDuration":132158,"Delta":184081570},{"NoteNumber":66,"Velocity":36,"Duration":159574,"SoundDuration":159574,"Delta":184213728},{"NoteNumber":78,"Velocity":65,"Duration":493828,"SoundDuration":493828,"Delta":184373303},{"NoteNumber":75,"Velocity":69,"Duration":493828,"SoundDuration":493828,"Delta":184373303},{"NoteNumber":63,"Velocity":53,"Duration":123002,"SoundDuration":123002,"Delta":184373303},{"NoteNumber":66,"Velocity":43,"Duration":124332,"SoundDuration":124332,"Delta":184496305},{"NoteNumber":54,"Velocity":43,"Duration":122704,"SoundDuration":122704,"Delta":184620638},{"NoteNumber":59,"Velocity":38,"Duration":123787,"SoundDuration":123787,"Delta":184743343},{"NoteNumber":63,"Velocity":48,"Duration":123160,"SoundDuration":123160,"Delta":184867131},{"NoteNumber":66,"Velocity":38,"Duration":124485,"SoundDuration":124485,"Delta":184990291},{"NoteNumber":54,"Velocity":38,"Duration":125319,"SoundDuration":125319,"Delta":185114777},{"NoteNumber":59,"Velocity":33,"Duration":124122,"SoundDuration":124122,"Delta":185240096},{"NoteNumber":63,"Velocity":45,"Duration":134529,"SoundDuration":134529,"Delta":185364219},{"NoteNumber":66,"Velocity":35,"Duration":134529,"SoundDuration":134529,"Delta":185498748},{"NoteNumber":54,"Velocity":35,"Duration":123719,"SoundDuration":123719,"Delta":185633277},{"NoteNumber":59,"Velocity":32,"Duration":123158,"SoundDuration":123158,"Delta":185756997},{"NoteNumber":54,"Velocity":43,"Duration":249142,"SoundDuration":249142,"Delta":185880155},{"NoteNumber":51,"Velocity":59,"Duration":249142,"SoundDuration":249142,"Delta":185880155},{"NoteNumber":59,"Velocity":38,"Duration":123821,"SoundDuration":123821,"Delta":185880155},{"NoteNumber":63,"Velocity":38,"Duration":123821,"SoundDuration":123821,"Delta":185880155},{"NoteNumber":66,"Velocity":30,"Duration":125321,"SoundDuration":125321,"Delta":186003977},{"NoteNumber":54,"Velocity":40,"Duration":248153,"SoundDuration":248153,"Delta":186129298},{"NoteNumber":49,"Velocity":48,"Duration":248153,"SoundDuration":248153,"Delta":186129298},{"NoteNumber":64,"Velocity":29,"Duration":123671,"SoundDuration":123671,"Delta":186129298},{"NoteNumber":58,"Velocity":29,"Duration":123671,"SoundDuration":123671,"Delta":186129298},{"NoteNumber":66,"Velocity":25,"Duration":112033,"SoundDuration":112033,"Delta":186252970},{"NoteNumber":54,"Velocity":42,"Duration":246879,"SoundDuration":246879,"Delta":186377451},{"NoteNumber":47,"Velocity":50,"Duration":246879,"SoundDuration":246879,"Delta":186377451},{"NoteNumber":63,"Velocity":37,"Duration":122855,"SoundDuration":122855,"Delta":186377451},{"NoteNumber":59,"Velocity":37,"Duration":122855,"SoundDuration":122855,"Delta":186377451},{"NoteNumber":66,"Velocity":29,"Duration":124024,"SoundDuration":124024,"Delta":186500307},{"NoteNumber":54,"Velocity":29,"Duration":123059,"SoundDuration":123059,"Delta":186624331},{"NoteNumber":59,"Velocity":23,"Duration":125642,"SoundDuration":125642,"Delta":186747390},{"NoteNumber":63,"Velocity":38,"Duration":123627,"SoundDuration":123627,"Delta":186873032},{"NoteNumber":66,"Velocity":30,"Duration":125318,"SoundDuration":125318,"Delta":186996659},{"NoteNumber":54,"Velocity":31,"Duration":124567,"SoundDuration":124567,"Delta":187121978},{"NoteNumber":59,"Velocity":26,"Duration":124827,"SoundDuration":124827,"Delta":187246545},{"NoteNumber":63,"Velocity":40,"Duration":126158,"SoundDuration":126158,"Delta":187371372},{"NoteNumber":66,"Velocity":32,"Duration":125418,"SoundDuration":125418,"Delta":187497530},{"NoteNumber":75,"Velocity":61,"Duration":258620,"SoundDuration":258620,"Delta":187622949},{"NoteNumber":54,"Velocity":32,"Duration":129310,"SoundDuration":129310,"Delta":187622949},{"NoteNumber":59,"Velocity":28,"Duration":129310,"SoundDuration":129310,"Delta":187752259},{"NoteNumber":73,"Velocity":64,"Duration":252101,"SoundDuration":252101,"Delta":187881569},{"NoteNumber":63,"Velocity":42,"Duration":126050,"SoundDuration":126050,"Delta":187881569},{"NoteNumber":66,"Velocity":33,"Duration":126050,"SoundDuration":126050,"Delta":188007620},{"NoteNumber":71,"Velocity":66,"Duration":312360,"SoundDuration":312360,"Delta":188133670},{"NoteNumber":54,"Velocity":41,"Duration":132158,"SoundDuration":132158,"Delta":188133670},{"NoteNumber":59,"Velocity":44,"Duration":180201,"SoundDuration":180201,"Delta":188265829},{"NoteNumber":68,"Velocity":66,"Duration":494534,"SoundDuration":494534,"Delta":188446031},{"NoteNumber":64,"Velocity":50,"Duration":123718,"SoundDuration":123718,"Delta":188446031},{"NoteNumber":59,"Velocity":36,"Duration":124592,"SoundDuration":124592,"Delta":188569749},{"NoteNumber":56,"Velocity":36,"Duration":123212,"SoundDuration":123212,"Delta":188694341},{"NoteNumber":59,"Velocity":31,"Duration":123010,"SoundDuration":123010,"Delta":188817554},{"NoteNumber":64,"Velocity":45,"Duration":124213,"SoundDuration":124213,"Delta":188940565},{"NoteNumber":68,"Velocity":36,"Duration":120386,"SoundDuration":120386,"Delta":189064779},{"NoteNumber":56,"Velocity":36,"Duration":120485,"SoundDuration":120485,"Delta":189185166},{"NoteNumber":59,"Velocity":31,"Duration":122358,"SoundDuration":122358,"Delta":189305651},{"NoteNumber":64,"Velocity":44,"Duration":123572,"SoundDuration":123572,"Delta":189428009},{"NoteNumber":68,"Velocity":37,"Duration":123660,"SoundDuration":123660,"Delta":189551582},{"NoteNumber":52,"Velocity":65,"Duration":258620,"SoundDuration":258620,"Delta":189675243},{"NoteNumber":56,"Velocity":37,"Duration":129310,"SoundDuration":129310,"Delta":189675243},{"NoteNumber":61,"Velocity":34,"Duration":129310,"SoundDuration":129310,"Delta":189804553},{"NoteNumber":51,"Velocity":68,"Duration":252101,"SoundDuration":252101,"Delta":189933863},{"NoteNumber":64,"Velocity":48,"Duration":126050,"SoundDuration":126050,"Delta":189933863},{"NoteNumber":68,"Velocity":38,"Duration":126050,"SoundDuration":126050,"Delta":190059914},{"NoteNumber":49,"Velocity":71,"Duration":317343,"SoundDuration":317343,"Delta":190185964},{"NoteNumber":56,"Velocity":41,"Duration":132158,"SoundDuration":132158,"Delta":190185964},{"NoteNumber":61,"Velocity":44,"Duration":185185,"SoundDuration":185185,"Delta":190318123},{"NoteNumber":46,"Velocity":76,"Duration":992090,"SoundDuration":992090,"Delta":190503308},{"NoteNumber":64,"Velocity":56,"Duration":123727,"SoundDuration":123727,"Delta":190503308},{"NoteNumber":66,"Velocity":42,"Duration":122683,"SoundDuration":122683,"Delta":190627035},{"NoteNumber":54,"Velocity":42,"Duration":123307,"SoundDuration":123307,"Delta":190749719},{"NoteNumber":61,"Velocity":37,"Duration":125159,"SoundDuration":125159,"Delta":190873026},{"NoteNumber":64,"Velocity":52,"Duration":122966,"SoundDuration":122966,"Delta":190998185},{"NoteNumber":66,"Velocity":42,"Duration":124809,"SoundDuration":124809,"Delta":191121152},{"NoteNumber":54,"Velocity":42,"Duration":123471,"SoundDuration":123471,"Delta":191245961},{"NoteNumber":61,"Velocity":36,"Duration":125965,"SoundDuration":125965,"Delta":191369433},{"NoteNumber":47,"Velocity":61,"Duration":249338,"SoundDuration":249338,"Delta":191495398},{"NoteNumber":63,"Velocity":50,"Duration":124544,"SoundDuration":124544,"Delta":191495398},{"NoteNumber":66,"Velocity":40,"Duration":124793,"SoundDuration":124793,"Delta":191619942},{"NoteNumber":75,"Velocity":68,"Duration":258620,"SoundDuration":258620,"Delta":191744736},{"NoteNumber":54,"Velocity":40,"Duration":129310,"SoundDuration":129310,"Delta":191744736},{"NoteNumber":59,"Velocity":36,"Duration":129310,"SoundDuration":129310,"Delta":191874047},{"NoteNumber":76,"Velocity":73,"Duration":252101,"SoundDuration":252101,"Delta":192003357},{"NoteNumber":63,"Velocity":42,"Duration":126050,"SoundDuration":126050,"Delta":192003357},{"NoteNumber":66,"Velocity":33,"Duration":126050,"SoundDuration":126050,"Delta":192129407},{"NoteNumber":77,"Velocity":77,"Duration":286797,"SoundDuration":286797,"Delta":192255458},{"NoteNumber":54,"Velocity":41,"Duration":132158,"SoundDuration":132158,"Delta":192255458},{"NoteNumber":59,"Velocity":44,"Duration":154639,"SoundDuration":154639,"Delta":192387616},{"NoteNumber":78,"Velocity":82,"Duration":2027253,"SoundDuration":2027253,"Delta":192542256},{"NoteNumber":61,"Velocity":54,"Duration":123423,"SoundDuration":123423,"Delta":192542256},{"NoteNumber":66,"Velocity":41,"Duration":124111,"SoundDuration":124111,"Delta":192665679},{"NoteNumber":54,"Velocity":41,"Duration":123925,"SoundDuration":123925,"Delta":192789790},{"NoteNumber":59,"Velocity":36,"Duration":125632,"SoundDuration":125632,"Delta":192913715},{"NoteNumber":61,"Velocity":48,"Duration":122602,"SoundDuration":122602,"Delta":193039347},{"NoteNumber":66,"Velocity":39,"Duration":125221,"SoundDuration":125221,"Delta":193161950},{"NoteNumber":54,"Velocity":39,"Duration":123976,"SoundDuration":123976,"Delta":193287171},{"NoteNumber":59,"Velocity":36,"Duration":124540,"SoundDuration":124540,"Delta":193411148},{"NoteNumber":61,"Velocity":48,"Duration":124948,"SoundDuration":124948,"Delta":193535689},{"NoteNumber":66,"Velocity":32,"Duration":124482,"SoundDuration":124482,"Delta":193660637},{"NoteNumber":54,"Velocity":37,"Duration":129310,"SoundDuration":129310,"Delta":193785119},{"NoteNumber":58,"Velocity":37,"Duration":129310,"SoundDuration":129310,"Delta":193914430},{"NoteNumber":61,"Velocity":42,"Duration":126050,"SoundDuration":126050,"Delta":194043740},{"NoteNumber":66,"Velocity":29,"Duration":126050,"SoundDuration":126050,"Delta":194169790},{"NoteNumber":54,"Velocity":29,"Duration":132158,"SoundDuration":132158,"Delta":194295841},{"NoteNumber":58,"Velocity":29,"Duration":141509,"SoundDuration":141509,"Delta":194427999},{"NoteNumber":75,"Velocity":66,"Duration":494701,"SoundDuration":494701,"Delta":194569509},{"NoteNumber":63,"Velocity":37,"Duration":123169,"SoundDuration":123169,"Delta":194569509},{"NoteNumber":66,"Velocity":29,"Duration":121759,"SoundDuration":121759,"Delta":194692678},{"NoteNumber":54,"Velocity":29,"Duration":125640,"SoundDuration":125640,"Delta":194814438},{"NoteNumber":59,"Velocity":25,"Duration":124132,"SoundDuration":124132,"Delta":194940078},{"NoteNumber":63,"Velocity":38,"Duration":125428,"SoundDuration":125428,"Delta":195064211},{"NoteNumber":66,"Velocity":30,"Duration":123162,"SoundDuration":123162,"Delta":195189639},{"NoteNumber":54,"Velocity":31,"Duration":125000,"SoundDuration":125000,"Delta":195312802},{"NoteNumber":59,"Velocity":26,"Duration":124696,"SoundDuration":124696,"Delta":195437802},{"NoteNumber":62,"Velocity":40,"Duration":123933,"SoundDuration":123933,"Delta":195562499},{"NoteNumber":66,"Velocity":32,"Duration":125211,"SoundDuration":125211,"Delta":195686433},{"NoteNumber":47,"Velocity":44,"Duration":258620,"SoundDuration":258620,"Delta":195811644},{"NoteNumber":54,"Velocity":32,"Duration":129310,"SoundDuration":129310,"Delta":195811644},{"NoteNumber":59,"Velocity":29,"Duration":129310,"SoundDuration":129310,"Delta":195940955},{"NoteNumber":49,"Velocity":48,"Duration":252101,"SoundDuration":252101,"Delta":196070265},{"NoteNumber":62,"Velocity":42,"Duration":126050,"SoundDuration":126050,"Delta":196070265},{"NoteNumber":66,"Velocity":33,"Duration":126050,"SoundDuration":126050,"Delta":196196315},{"NoteNumber":50,"Velocity":45,"Duration":286797,"SoundDuration":286797,"Delta":196322366},{"NoteNumber":54,"Velocity":33,"Duration":132158,"SoundDuration":132158,"Delta":196322366},{"NoteNumber":59,"Velocity":28,"Duration":154639,"SoundDuration":154639,"Delta":196454524},{"NoteNumber":42,"Velocity":48,"Duration":2042250,"SoundDuration":2042250,"Delta":196609164},{"NoteNumber":61,"Velocity":37,"Duration":124793,"SoundDuration":124793,"Delta":196609164},{"NoteNumber":66,"Velocity":29,"Duration":125860,"SoundDuration":125860,"Delta":196733958},{"NoteNumber":54,"Velocity":29,"Duration":124494,"SoundDuration":124494,"Delta":196859818},{"NoteNumber":59,"Velocity":26,"Duration":126283,"SoundDuration":126283,"Delta":196984312},{"NoteNumber":61,"Velocity":38,"Duration":124351,"SoundDuration":124351,"Delta":197110595},{"NoteNumber":66,"Velocity":29,"Duration":126290,"SoundDuration":126290,"Delta":197234947},{"NoteNumber":54,"Velocity":29,"Duration":123165,"SoundDuration":123165,"Delta":197361238},{"NoteNumber":59,"Velocity":27,"Duration":125319,"SoundDuration":125319,"Delta":197484403},{"NoteNumber":61,"Velocity":40,"Duration":124225,"SoundDuration":124225,"Delta":197609722},{"NoteNumber":66,"Velocity":28,"Duration":124586,"SoundDuration":124586,"Delta":197733948},{"NoteNumber":54,"Velocity":28,"Duration":129310,"SoundDuration":129310,"Delta":197858534},{"NoteNumber":58,"Velocity":26,"Duration":129310,"SoundDuration":129310,"Delta":197987844},{"NoteNumber":61,"Velocity":41,"Duration":126050,"SoundDuration":126050,"Delta":198117155},{"NoteNumber":66,"Velocity":29,"Duration":126050,"SoundDuration":126050,"Delta":198243205},{"NoteNumber":54,"Velocity":29,"Duration":132158,"SoundDuration":132158,"Delta":198369256},{"NoteNumber":58,"Velocity":26,"Duration":150000,"SoundDuration":150000,"Delta":198501414},{"NoteNumber":35,"Velocity":44,"Duration":500990,"SoundDuration":500990,"Delta":198651414},{"NoteNumber":63,"Velocity":37,"Duration":124278,"SoundDuration":124278,"Delta":198651414},{"NoteNumber":66,"Velocity":29,"Duration":126586,"SoundDuration":126586,"Delta":198775692},{"NoteNumber":54,"Velocity":29,"Duration":124019,"SoundDuration":124019,"Delta":198902279},{"NoteNumber":59,"Velocity":25,"Duration":126106,"SoundDuration":126106,"Delta":199026298},{"NoteNumber":63,"Velocity":38,"Duration":124081,"SoundDuration":124081,"Delta":199152404},{"NoteNumber":66,"Velocity":30,"Duration":124336,"SoundDuration":124336,"Delta":199276486},{"NoteNumber":54,"Velocity":31,"Duration":125115,"SoundDuration":125115,"Delta":199400823},{"NoteNumber":59,"Velocity":24,"Duration":125492,"SoundDuration":125492,"Delta":199525938},{"NoteNumber":63,"Velocity":45,"Duration":124795,"SoundDuration":124795,"Delta":199651430},{"NoteNumber":66,"Velocity":32,"Duration":126050,"SoundDuration":126050,"Delta":199776225},{"NoteNumber":75,"Velocity":55,"Duration":258620,"SoundDuration":258620,"Delta":199902276},{"NoteNumber":54,"Velocity":32,"Duration":129310,"SoundDuration":129310,"Delta":199902276},{"NoteNumber":59,"Velocity":32,"Duration":129310,"SoundDuration":129310,"Delta":200031586},{"NoteNumber":75,"Velocity":55,"Duration":252101,"SoundDuration":252101,"Delta":200160896},{"NoteNumber":63,"Velocity":47,"Duration":126050,"SoundDuration":126050,"Delta":200160896},{"NoteNumber":66,"Velocity":34,"Duration":126050,"SoundDuration":126050,"Delta":200286947},{"NoteNumber":76,"Velocity":55,"Duration":273109,"SoundDuration":273109,"Delta":200412997},{"NoteNumber":54,"Velocity":38,"Duration":126050,"SoundDuration":126050,"Delta":200412997},{"NoteNumber":59,"Velocity":38,"Duration":147058,"SoundDuration":147058,"Delta":200539048},{"NoteNumber":75,"Velocity":60,"Duration":492692,"SoundDuration":492692,"Delta":200686106},{"NoteNumber":73,"Velocity":51,"Duration":492692,"SoundDuration":492692,"Delta":200686106},{"NoteNumber":70,"Velocity":51,"Duration":492692,"SoundDuration":492692,"Delta":200686106},{"NoteNumber":63,"Velocity":50,"Duration":123110,"SoundDuration":123110,"Delta":200686106},{"NoteNumber":67,"Velocity":39,"Duration":126491,"SoundDuration":126491,"Delta":200809217},{"NoteNumber":55,"Velocity":39,"Duration":121718,"SoundDuration":121718,"Delta":200935708},{"NoteNumber":58,"Velocity":34,"Duration":121372,"SoundDuration":121372,"Delta":201057427},{"NoteNumber":70,"Velocity":55,"Duration":243524,"SoundDuration":243524,"Delta":201178799},{"NoteNumber":63,"Velocity":51,"Duration":122155,"SoundDuration":122155,"Delta":201178799},{"NoteNumber":67,"Velocity":39,"Duration":121369,"SoundDuration":121369,"Delta":201300955},{"NoteNumber":55,"Velocity":40,"Duration":123306,"SoundDuration":123306,"Delta":201422324},{"NoteNumber":58,"Velocity":35,"Duration":123820,"SoundDuration":123820,"Delta":201545631},{"NoteNumber":63,"Velocity":49,"Duration":122860,"SoundDuration":122860,"Delta":201669451},{"NoteNumber":67,"Velocity":38,"Duration":124796,"SoundDuration":124796,"Delta":201792312},{"NoteNumber":51,"Velocity":55,"Duration":258620,"SoundDuration":258620,"Delta":201917108},{"NoteNumber":39,"Velocity":46,"Duration":258620,"SoundDuration":258620,"Delta":201917108},{"NoteNumber":55,"Velocity":38,"Duration":129310,"SoundDuration":129310,"Delta":201917108},{"NoteNumber":58,"Velocity":33,"Duration":129310,"SoundDuration":129310,"Delta":202046418},{"NoteNumber":39,"Velocity":46,"Duration":252101,"SoundDuration":252101,"Delta":202175728},{"NoteNumber":51,"Velocity":55,"Duration":252101,"SoundDuration":252101,"Delta":202175728},{"NoteNumber":63,"Velocity":51,"Duration":126050,"SoundDuration":126050,"Delta":202175728},{"NoteNumber":67,"Velocity":40,"Duration":126050,"SoundDuration":126050,"Delta":202301779},{"NoteNumber":34,"Velocity":46,"Duration":273109,"SoundDuration":273109,"Delta":202427829},{"NoteNumber":46,"Velocity":55,"Duration":273109,"SoundDuration":273109,"Delta":202427829},{"NoteNumber":55,"Velocity":41,"Duration":126050,"SoundDuration":126050,"Delta":202427829},{"NoteNumber":58,"Velocity":35,"Duration":147058,"SoundDuration":147058,"Delta":202553880},{"NoteNumber":47,"Velocity":60,"Duration":496830,"SoundDuration":496830,"Delta":202700939},{"NoteNumber":35,"Velocity":51,"Duration":496830,"SoundDuration":496830,"Delta":202700939},{"NoteNumber":63,"Velocity":59,"Duration":123969,"SoundDuration":123969,"Delta":202700939},{"NoteNumber":68,"Velocity":45,"Duration":124085,"SoundDuration":124085,"Delta":202824908},{"NoteNumber":56,"Velocity":46,"Duration":123975,"SoundDuration":123975,"Delta":202948994},{"NoteNumber":59,"Velocity":42,"Duration":124800,"SoundDuration":124800,"Delta":203072969},{"NoteNumber":44,"Velocity":59,"Duration":248461,"SoundDuration":248461,"Delta":203197770},{"NoteNumber":32,"Velocity":50,"Duration":248461,"SoundDuration":248461,"Delta":203197770},{"NoteNumber":63,"Velocity":64,"Duration":124647,"SoundDuration":124647,"Delta":203197770},{"NoteNumber":68,"Velocity":48,"Duration":123813,"SoundDuration":123813,"Delta":203322417},{"NoteNumber":56,"Velocity":50,"Duration":122358,"SoundDuration":122358,"Delta":203446231},{"NoteNumber":59,"Velocity":47,"Duration":126375,"SoundDuration":126375,"Delta":203568590},{"NoteNumber":63,"Velocity":58,"Duration":124433,"SoundDuration":124433,"Delta":203694966},{"NoteNumber":68,"Velocity":47,"Duration":124586,"SoundDuration":124586,"Delta":203819400},{"NoteNumber":71,"Velocity":58,"Duration":258620,"SoundDuration":258620,"Delta":203943986},{"NoteNumber":75,"Velocity":69,"Duration":258620,"SoundDuration":258620,"Delta":203943986},{"NoteNumber":56,"Velocity":47,"Duration":129310,"SoundDuration":129310,"Delta":203943986},{"NoteNumber":59,"Velocity":44,"Duration":129310,"SoundDuration":129310,"Delta":204073297},{"NoteNumber":75,"Velocity":69,"Duration":252101,"SoundDuration":252101,"Delta":204202607},{"NoteNumber":71,"Velocity":58,"Duration":252101,"SoundDuration":252101,"Delta":204202607},{"NoteNumber":63,"Velocity":54,"Duration":126050,"SoundDuration":126050,"Delta":204202607},{"NoteNumber":68,"Velocity":46,"Duration":126050,"SoundDuration":126050,"Delta":204328657},{"NoteNumber":71,"Velocity":58,"Duration":273109,"SoundDuration":273109,"Delta":204454708},{"NoteNumber":76,"Velocity":69,"Duration":273109,"SoundDuration":273109,"Delta":204454708},{"NoteNumber":56,"Velocity":46,"Duration":126050,"SoundDuration":126050,"Delta":204454708},{"NoteNumber":59,"Velocity":44,"Duration":147058,"SoundDuration":147058,"Delta":204580758},{"NoteNumber":70,"Velocity":53,"Duration":493296,"SoundDuration":493296,"Delta":204727817},{"NoteNumber":73,"Velocity":53,"Duration":493296,"SoundDuration":493296,"Delta":204727817},{"NoteNumber":75,"Velocity":75,"Duration":493296,"SoundDuration":493296,"Delta":204727817},{"NoteNumber":63,"Velocity":57,"Duration":123525,"SoundDuration":123525,"Delta":204727817},{"NoteNumber":67,"Velocity":44,"Duration":122806,"SoundDuration":122806,"Delta":204851343},{"NoteNumber":55,"Velocity":44,"Duration":124699,"SoundDuration":124699,"Delta":204974149},{"NoteNumber":58,"Velocity":40,"Duration":122265,"SoundDuration":122265,"Delta":205098848},{"NoteNumber":70,"Velocity":69,"Duration":245423,"SoundDuration":245423,"Delta":205221114},{"NoteNumber":63,"Velocity":58,"Duration":122504,"SoundDuration":122504,"Delta":205221114},{"NoteNumber":67,"Velocity":44,"Duration":122918,"SoundDuration":122918,"Delta":205343618},{"NoteNumber":55,"Velocity":46,"Duration":124905,"SoundDuration":124905,"Delta":205466537},{"NoteNumber":58,"Velocity":42,"Duration":122051,"SoundDuration":122051,"Delta":205591443},{"NoteNumber":63,"Velocity":56,"Duration":123925,"SoundDuration":123925,"Delta":205713494},{"NoteNumber":67,"Velocity":43,"Duration":123256,"SoundDuration":123256,"Delta":205837420},{"NoteNumber":51,"Velocity":63,"Duration":258620,"SoundDuration":258620,"Delta":205960677},{"NoteNumber":39,"Velocity":52,"Duration":258620,"SoundDuration":258620,"Delta":205960677},{"NoteNumber":55,"Velocity":43,"Duration":129310,"SoundDuration":129310,"Delta":205960677},{"NoteNumber":58,"Velocity":39,"Duration":129310,"SoundDuration":129310,"Delta":206089987},{"NoteNumber":51,"Velocity":63,"Duration":248977,"SoundDuration":248977,"Delta":206219297},{"NoteNumber":39,"Velocity":52,"Duration":248977,"SoundDuration":248977,"Delta":206219297},{"NoteNumber":63,"Velocity":58,"Duration":124901,"SoundDuration":124901,"Delta":206219297},{"NoteNumber":67,"Velocity":46,"Duration":124075,"SoundDuration":124075,"Delta":206344199},{"NoteNumber":34,"Velocity":52,"Duration":271753,"SoundDuration":271753,"Delta":206468274},{"NoteNumber":46,"Velocity":63,"Duration":271753,"SoundDuration":271753,"Delta":206468274},{"NoteNumber":55,"Velocity":47,"Duration":124694,"SoundDuration":124694,"Delta":206468274},{"NoteNumber":58,"Velocity":42,"Duration":147058,"SoundDuration":147058,"Delta":206592969},{"NoteNumber":35,"Velocity":58,"Duration":495395,"SoundDuration":495395,"Delta":206740028},{"NoteNumber":47,"Velocity":69,"Duration":495395,"SoundDuration":495395,"Delta":206740028},{"NoteNumber":63,"Velocity":67,"Duration":123920,"SoundDuration":123920,"Delta":206740028},{"NoteNumber":68,"Velocity":51,"Duration":123461,"SoundDuration":123461,"Delta":206863948},{"NoteNumber":56,"Velocity":51,"Duration":124335,"SoundDuration":124335,"Delta":206987409},{"NoteNumber":59,"Velocity":47,"Duration":123677,"SoundDuration":123677,"Delta":207111745},{"NoteNumber":44,"Velocity":64,"Duration":248927,"SoundDuration":248927,"Delta":207235423},{"NoteNumber":32,"Velocity":54,"Duration":248927,"SoundDuration":248927,"Delta":207235423},{"NoteNumber":63,"Velocity":69,"Duration":125261,"SoundDuration":125261,"Delta":207235423},{"NoteNumber":68,"Velocity":51,"Duration":123665,"SoundDuration":123665,"Delta":207360685},{"NoteNumber":56,"Velocity":51,"Duration":123918,"SoundDuration":123918,"Delta":207484350},{"NoteNumber":59,"Velocity":45,"Duration":124392,"SoundDuration":124392,"Delta":207608269},{"NoteNumber":63,"Velocity":60,"Duration":125219,"SoundDuration":125219,"Delta":207732662},{"NoteNumber":68,"Velocity":49,"Duration":124949,"SoundDuration":124949,"Delta":207857881},{"NoteNumber":75,"Velocity":72,"Duration":258620,"SoundDuration":258620,"Delta":207982831},{"NoteNumber":56,"Velocity":49,"Duration":129310,"SoundDuration":129310,"Delta":207982831},{"NoteNumber":59,"Velocity":44,"Duration":129310,"SoundDuration":129310,"Delta":208112141},{"NoteNumber":75,"Velocity":75,"Duration":262008,"SoundDuration":262008,"Delta":208241451},{"NoteNumber":63,"Velocity":59,"Duration":131004,"SoundDuration":131004,"Delta":208241451},{"NoteNumber":68,"Velocity":51,"Duration":131004,"SoundDuration":131004,"Delta":208372456},{"NoteNumber":75,"Velocity":79,"Duration":304414,"SoundDuration":304414,"Delta":208503460},{"NoteNumber":56,"Velocity":51,"Duration":131004,"SoundDuration":131004,"Delta":208503460},{"NoteNumber":59,"Velocity":46,"Duration":173410,"SoundDuration":173410,"Delta":208634464},{"NoteNumber":76,"Velocity":83,"Duration":250000,"SoundDuration":250000,"Delta":208807875},{"NoteNumber":64,"Velocity":65,"Duration":125000,"SoundDuration":125000,"Delta":208807875},{"NoteNumber":68,"Velocity":53,"Duration":125000,"SoundDuration":125000,"Delta":208932875},{"NoteNumber":56,"Velocity":53,"Duration":125000,"SoundDuration":125000,"Delta":209057875},{"NoteNumber":59,"Velocity":51,"Duration":125000,"SoundDuration":125000,"Delta":209182875},{"NoteNumber":40,"Velocity":77,"Duration":1002094,"SoundDuration":1002094,"Delta":209307875},{"NoteNumber":64,"Velocity":62,"Duration":124080,"SoundDuration":124080,"Delta":209307875},{"NoteNumber":68,"Velocity":53,"Duration":122968,"SoundDuration":122968,"Delta":209431955},{"NoteNumber":56,"Velocity":53,"Duration":122460,"SoundDuration":122460,"Delta":209554924},{"NoteNumber":59,"Velocity":48,"Duration":122507,"SoundDuration":122507,"Delta":209677384},{"NoteNumber":64,"Velocity":62,"Duration":123003,"SoundDuration":123003,"Delta":209799892},{"NoteNumber":69,"Velocity":53,"Duration":122756,"SoundDuration":122756,"Delta":209922895},{"NoteNumber":57,"Velocity":53,"Duration":132158,"SoundDuration":132158,"Delta":210045652},{"NoteNumber":60,"Velocity":48,"Duration":132158,"SoundDuration":132158,"Delta":210177810},{"NoteNumber":72,"Velocity":70,"Duration":376568,"SoundDuration":376568,"Delta":210309969},{"NoteNumber":64,"Velocity":62,"Duration":125522,"SoundDuration":125522,"Delta":210309969},{"NoteNumber":69,"Velocity":53,"Duration":125523,"SoundDuration":125523,"Delta":210435492},{"NoteNumber":57,"Velocity":53,"Duration":125522,"SoundDuration":125522,"Delta":210561015},{"NoteNumber":74,"Velocity":67,"Duration":125523,"SoundDuration":125523,"Delta":210686538},{"NoteNumber":60,"Velocity":47,"Duration":125523,"SoundDuration":125523,"Delta":210686538},{"NoteNumber":76,"Velocity":79,"Duration":244898,"SoundDuration":244898,"Delta":210812061},{"NoteNumber":64,"Velocity":65,"Duration":122448,"SoundDuration":122448,"Delta":210812061},{"NoteNumber":68,"Velocity":53,"Duration":122449,"SoundDuration":122449,"Delta":210934510},{"NoteNumber":56,"Velocity":53,"Duration":122448,"SoundDuration":122448,"Delta":211056959},{"NoteNumber":59,"Velocity":49,"Duration":122449,"SoundDuration":122449,"Delta":211179408},{"NoteNumber":40,"Velocity":77,"Duration":999046,"SoundDuration":999046,"Delta":211301857},{"NoteNumber":64,"Velocity":62,"Duration":126050,"SoundDuration":126050,"Delta":211301857},{"NoteNumber":68,"Velocity":53,"Duration":124188,"SoundDuration":124188,"Delta":211427907},{"NoteNumber":56,"Velocity":53,"Duration":122161,"SoundDuration":122161,"Delta":211552096},{"NoteNumber":59,"Velocity":48,"Duration":122204,"SoundDuration":122204,"Delta":211674257},{"NoteNumber":64,"Velocity":62,"Duration":122412,"SoundDuration":122412,"Delta":211796462},{"NoteNumber":69,"Velocity":53,"Duration":123407,"SoundDuration":123407,"Delta":211918874},{"NoteNumber":57,"Velocity":53,"Duration":129310,"SoundDuration":129310,"Delta":212042282},{"NoteNumber":60,"Velocity":48,"Duration":129310,"SoundDuration":129310,"Delta":212171592},{"NoteNumber":72,"Velocity":70,"Duration":375000,"SoundDuration":375000,"Delta":212300903},{"NoteNumber":64,"Velocity":62,"Duration":125000,"SoundDuration":125000,"Delta":212300903},{"NoteNumber":69,"Velocity":53,"Duration":125000,"SoundDuration":125000,"Delta":212425903},{"NoteNumber":57,"Velocity":53,"Duration":125000,"SoundDuration":125000,"Delta":212550903},{"NoteNumber":74,"Velocity":67,"Duration":125000,"SoundDuration":125000,"Delta":212675903},{"NoteNumber":60,"Velocity":47,"Duration":125000,"SoundDuration":125000,"Delta":212675903},{"NoteNumber":76,"Velocity":77,"Duration":264317,"SoundDuration":264317,"Delta":212800903},{"NoteNumber":64,"Velocity":65,"Duration":132158,"SoundDuration":132158,"Delta":212800903},{"NoteNumber":68,"Velocity":46,"Duration":132158,"SoundDuration":132158,"Delta":212933061},{"NoteNumber":56,"Velocity":46,"Duration":132158,"SoundDuration":132158,"Delta":213065220},{"NoteNumber":59,"Velocity":41,"Duration":132158,"SoundDuration":132158,"Delta":213197378},{"NoteNumber":40,"Velocity":66,"Duration":1067426,"SoundDuration":1067426,"Delta":213329537},{"NoteNumber":64,"Velocity":55,"Duration":129870,"SoundDuration":129870,"Delta":213329537},{"NoteNumber":68,"Velocity":40,"Duration":129870,"SoundDuration":129870,"Delta":213459407},{"NoteNumber":56,"Velocity":40,"Duration":129870,"SoundDuration":129870,"Delta":213589277},{"NoteNumber":59,"Velocity":36,"Duration":129870,"SoundDuration":129870,"Delta":213719147},{"NoteNumber":64,"Velocity":40,"Duration":136986,"SoundDuration":136986,"Delta":213849018},{"NoteNumber":68,"Velocity":46,"Duration":136986,"SoundDuration":136986,"Delta":213986004},{"NoteNumber":56,"Velocity":37,"Duration":136986,"SoundDuration":136986,"Delta":214122990},{"NoteNumber":59,"Velocity":37,"Duration":136986,"SoundDuration":136986,"Delta":214259976},{"NoteNumber":39,"Velocity":49,"Duration":586029,"SoundDuration":586029,"Delta":214396963},{"NoteNumber":63,"Velocity":37,"Duration":143540,"SoundDuration":143540,"Delta":214396963},{"NoteNumber":68,"Velocity":43,"Duration":143540,"SoundDuration":143540,"Delta":214540503},{"NoteNumber":56,"Velocity":37,"Duration":145380,"SoundDuration":145380,"Delta":214684044},{"NoteNumber":59,"Velocity":34,"Duration":153567,"SoundDuration":153567,"Delta":214829425},{"NoteNumber":38,"Velocity":56,"Duration":264317,"SoundDuration":264317,"Delta":214982992},{"NoteNumber":65,"Velocity":37,"Duration":132158,"SoundDuration":132158,"Delta":214982992},{"NoteNumber":68,"Velocity":29,"Duration":132158,"SoundDuration":132158,"Delta":215115151},{"NoteNumber":56,"Velocity":29,"Duration":132158,"SoundDuration":132158,"Delta":215247309},{"NoteNumber":58,"Velocity":26,"Duration":132158,"SoundDuration":132158,"Delta":215379468},{"NoteNumber":77,"Velocity":55,"Duration":769231,"SoundDuration":769231,"Delta":215511626},{"NoteNumber":65,"Velocity":38,"Duration":128205,"SoundDuration":128205,"Delta":215511626},{"NoteNumber":68,"Velocity":30,"Duration":128205,"SoundDuration":128205,"Delta":215639832},{"NoteNumber":56,"Velocity":31,"Duration":128205,"SoundDuration":128205,"Delta":215768037},{"NoteNumber":58,"Velocity":28,"Duration":128205,"SoundDuration":128205,"Delta":215896242},{"NoteNumber":65,"Velocity":41,"Duration":128205,"SoundDuration":128205,"Delta":216024447},{"NoteNumber":68,"Velocity":31,"Duration":128205,"SoundDuration":128205,"Delta":216152653},{"NoteNumber":77,"Velocity":50,"Duration":273972,"SoundDuration":273972,"Delta":216280858},{"NoteNumber":56,"Velocity":31,"Duration":136986,"SoundDuration":136986,"Delta":216280858},{"NoteNumber":58,"Velocity":25,"Duration":136986,"SoundDuration":136986,"Delta":216417844},{"NoteNumber":79,"Velocity":53,"Duration":264317,"SoundDuration":264317,"Delta":216554830},{"NoteNumber":65,"Velocity":40,"Duration":132158,"SoundDuration":132158,"Delta":216554830},{"NoteNumber":68,"Velocity":29,"Duration":132158,"SoundDuration":132158,"Delta":216686989},{"NoteNumber":80,"Velocity":56,"Duration":279217,"SoundDuration":279217,"Delta":216819147},{"NoteNumber":56,"Velocity":32,"Duration":132158,"SoundDuration":132158,"Delta":216819147},{"NoteNumber":58,"Velocity":30,"Duration":147058,"SoundDuration":147058,"Delta":216951306},{"NoteNumber":79,"Velocity":63,"Duration":255318,"SoundDuration":255318,"Delta":217098365},{"NoteNumber":63,"Velocity":44,"Duration":127659,"SoundDuration":127659,"Delta":217098365},{"NoteNumber":67,"Velocity":32,"Duration":127659,"SoundDuration":127659,"Delta":217226024},{"NoteNumber":55,"Velocity":32,"Duration":127659,"SoundDuration":127659,"Delta":217353684},{"NoteNumber":58,"Velocity":28,"Duration":127659,"SoundDuration":127659,"Delta":217481343},{"NoteNumber":39,"Velocity":42,"Duration":510638,"SoundDuration":510638,"Delta":217609003},{"NoteNumber":63,"Velocity":44,"Duration":127659,"SoundDuration":127659,"Delta":217609003},{"NoteNumber":67,"Velocity":34,"Duration":127659,"SoundDuration":127659,"Delta":217736662},{"NoteNumber":55,"Velocity":34,"Duration":127659,"SoundDuration":127659,"Delta":217864322},{"NoteNumber":58,"Velocity":33,"Duration":127659,"SoundDuration":127659,"Delta":217991981},{"NoteNumber":63,"Velocity":41,"Duration":128205,"SoundDuration":128205,"Delta":218119641},{"NoteNumber":67,"Velocity":31,"Duration":128205,"SoundDuration":128205,"Delta":218247846},{"NoteNumber":77,"Velocity":57,"Duration":273972,"SoundDuration":273972,"Delta":218376051},{"NoteNumber":55,"Velocity":31,"Duration":136986,"SoundDuration":136986,"Delta":218376051},{"NoteNumber":58,"Velocity":25,"Duration":136986,"SoundDuration":136986,"Delta":218513037},{"NoteNumber":75,"Velocity":50,"Duration":269972,"SoundDuration":269972,"Delta":218650024},{"NoteNumber":63,"Velocity":40,"Duration":134837,"SoundDuration":134837,"Delta":218650024},{"NoteNumber":67,"Velocity":29,"Duration":135135,"SoundDuration":135135,"Delta":218784861},{"NoteNumber":74,"Velocity":50,"Duration":291385,"SoundDuration":291385,"Delta":218919996},{"NoteNumber":55,"Velocity":31,"Duration":135135,"SoundDuration":135135,"Delta":218919996},{"NoteNumber":58,"Velocity":26,"Duration":156250,"SoundDuration":156250,"Delta":219055132},{"NoteNumber":72,"Velocity":59,"Duration":260869,"SoundDuration":260869,"Delta":219211382},{"NoteNumber":63,"Velocity":37,"Duration":130434,"SoundDuration":130434,"Delta":219211382},{"NoteNumber":68,"Velocity":27,"Duration":130434,"SoundDuration":130434,"Delta":219341816},{"NoteNumber":56,"Velocity":27,"Duration":130434,"SoundDuration":130434,"Delta":219472251},{"NoteNumber":60,"Velocity":24,"Duration":130434,"SoundDuration":130434,"Delta":219602686},{"NoteNumber":44,"Velocity":29,"Duration":515020,"SoundDuration":515020,"Delta":219733121},{"NoteNumber":63,"Velocity":37,"Duration":128755,"SoundDuration":128755,"Delta":219733121},{"NoteNumber":68,"Velocity":28,"Duration":128755,"SoundDuration":128755,"Delta":219861876},{"NoteNumber":56,"Velocity":28,"Duration":128755,"SoundDuration":128755,"Delta":219990631},{"NoteNumber":60,"Velocity":24,"Duration":128755,"SoundDuration":128755,"Delta":220119386},{"NoteNumber":41,"Velocity":26,"Duration":254302,"SoundDuration":254302,"Delta":220248142},{"NoteNumber":65,"Velocity":37,"Duration":126858,"SoundDuration":126858,"Delta":220248142},{"NoteNumber":68,"Velocity":27,"Duration":127444,"SoundDuration":127444,"Delta":220375000},{"NoteNumber":56,"Velocity":27,"Duration":127453,"SoundDuration":127453,"Delta":220502444},{"NoteNumber":60,"Velocity":25,"Duration":126745,"SoundDuration":126745,"Delta":220629897},{"NoteNumber":72,"Velocity":47,"Duration":519481,"SoundDuration":519481,"Delta":220756643},{"NoteNumber":65,"Velocity":37,"Duration":129870,"SoundDuration":129870,"Delta":220756643},{"NoteNumber":68,"Velocity":28,"Duration":129870,"SoundDuration":129870,"Delta":220886513},{"NoteNumber":56,"Velocity":28,"Duration":129870,"SoundDuration":129870,"Delta":221016384},{"NoteNumber":60,"Velocity":24,"Duration":129870,"SoundDuration":129870,"Delta":221146254},{"NoteNumber":74,"Velocity":51,"Duration":260869,"SoundDuration":260869,"Delta":221276124},{"NoteNumber":65,"Velocity":37,"Duration":130434,"SoundDuration":130434,"Delta":221276124},{"NoteNumber":68,"Velocity":27,"Duration":130434,"SoundDuration":130434,"Delta":221406559},{"NoteNumber":56,"Velocity":27,"Duration":130434,"SoundDuration":130434,"Delta":221536994},{"NoteNumber":62,"Velocity":24,"Duration":130434,"SoundDuration":130434,"Delta":221667428},{"NoteNumber":46,"Velocity":34,"Duration":515020,"SoundDuration":515020,"Delta":221797863},{"NoteNumber":65,"Velocity":37,"Duration":128755,"SoundDuration":128755,"Delta":221797863},{"NoteNumber":68,"Velocity":28,"Duration":128755,"SoundDuration":128755,"Delta":221926618},{"NoteNumber":56,"Velocity":28,"Duration":128755,"SoundDuration":128755,"Delta":222055374},{"NoteNumber":62,"Velocity":25,"Duration":128755,"SoundDuration":128755,"Delta":222184129},{"NoteNumber":47,"Velocity":39,"Duration":515021,"SoundDuration":515021,"Delta":222312884},{"NoteNumber":65,"Velocity":37,"Duration":128755,"SoundDuration":128755,"Delta":222312884},{"NoteNumber":68,"Velocity":27,"Duration":128755,"SoundDuration":128755,"Delta":222441639},{"NoteNumber":56,"Velocity":27,"Duration":128755,"SoundDuration":128755,"Delta":222570395},{"NoteNumber":62,"Velocity":24,"Duration":128755,"SoundDuration":128755,"Delta":222699150},{"NoteNumber":46,"Velocity":35,"Duration":519481,"SoundDuration":519481,"Delta":222827905},{"NoteNumber":65,"Velocity":37,"Duration":129870,"SoundDuration":129870,"Delta":222827905},{"NoteNumber":68,"Velocity":29,"Duration":129870,"SoundDuration":129870,"Delta":222957775},{"NoteNumber":56,"Velocity":29,"Duration":129870,"SoundDuration":129870,"Delta":223087646},{"NoteNumber":62,"Velocity":26,"Duration":129870,"SoundDuration":129870,"Delta":223217516},{"NoteNumber":75,"Velocity":46,"Duration":521738,"SoundDuration":521738,"Delta":223347386},{"NoteNumber":63,"Velocity":40,"Duration":130434,"SoundDuration":130434,"Delta":223347386},{"NoteNumber":67,"Velocity":29,"Duration":130434,"SoundDuration":130434,"Delta":223477821},{"NoteNumber":55,"Velocity":29,"Duration":130434,"SoundDuration":130434,"Delta":223608256},{"NoteNumber":58,"Velocity":23,"Duration":130434,"SoundDuration":130434,"Delta":223738690},{"NoteNumber":63,"Velocity":38,"Duration":128755,"SoundDuration":128755,"Delta":223869125},{"NoteNumber":67,"Velocity":30,"Duration":128755,"SoundDuration":128755,"Delta":223997880},{"NoteNumber":55,"Velocity":30,"Duration":128755,"SoundDuration":128755,"Delta":224126636},{"NoteNumber":58,"Velocity":28,"Duration":128755,"SoundDuration":128755,"Delta":224255391},{"NoteNumber":39,"Velocity":49,"Duration":1034502,"SoundDuration":1034502,"Delta":224384146},{"NoteNumber":63,"Velocity":30,"Duration":128755,"SoundDuration":128755,"Delta":224384146},{"NoteNumber":67,"Velocity":27,"Duration":128755,"SoundDuration":128755,"Delta":224512901},{"NoteNumber":55,"Velocity":27,"Duration":128755,"SoundDuration":128755,"Delta":224641657},{"NoteNumber":58,"Velocity":27,"Duration":128755,"SoundDuration":128755,"Delta":224770412},{"NoteNumber":63,"Velocity":45,"Duration":129870,"SoundDuration":129870,"Delta":224899167},{"NoteNumber":67,"Velocity":32,"Duration":129870,"SoundDuration":129870,"Delta":225029037},{"NoteNumber":55,"Velocity":35,"Duration":129870,"SoundDuration":129870,"Delta":225158908},{"NoteNumber":58,"Velocity":39,"Duration":129870,"SoundDuration":129870,"Delta":225288778},{"NoteNumber":41,"Velocity":61,"Duration":1036759,"SoundDuration":1036759,"Delta":225418648},{"NoteNumber":62,"Velocity":49,"Duration":130434,"SoundDuration":130434,"Delta":225418648},{"NoteNumber":68,"Velocity":36,"Duration":130434,"SoundDuration":130434,"Delta":225549083},{"NoteNumber":56,"Velocity":36,"Duration":130434,"SoundDuration":130434,"Delta":225679518},{"NoteNumber":58,"Velocity":30,"Duration":130434,"SoundDuration":130434,"Delta":225809952},{"NoteNumber":62,"Velocity":46,"Duration":128755,"SoundDuration":128755,"Delta":225940387},{"NoteNumber":68,"Velocity":33,"Duration":128755,"SoundDuration":128755,"Delta":226069142},{"NoteNumber":56,"Velocity":31,"Duration":128755,"SoundDuration":128755,"Delta":226197898},{"NoteNumber":58,"Velocity":26,"Duration":128755,"SoundDuration":128755,"Delta":226326653},{"NoteNumber":43,"Velocity":39,"Duration":1034502,"SoundDuration":1034502,"Delta":226455408},{"NoteNumber":61,"Velocity":37,"Duration":128755,"SoundDuration":128755,"Delta":226455408},{"NoteNumber":63,"Velocity":27,"Duration":128755,"SoundDuration":128755,"Delta":226584163},{"NoteNumber":51,"Velocity":27,"Duration":128755,"SoundDuration":128755,"Delta":226712919},{"NoteNumber":58,"Velocity":24,"Duration":128755,"SoundDuration":128755,"Delta":226841674},{"NoteNumber":61,"Velocity":37,"Duration":129870,"SoundDuration":129870,"Delta":226970429},{"NoteNumber":63,"Velocity":28,"Duration":129870,"SoundDuration":129870,"Delta":227100299},{"NoteNumber":51,"Velocity":28,"Duration":129870,"SoundDuration":129870,"Delta":227230170},{"NoteNumber":58,"Velocity":24,"Duration":129870,"SoundDuration":129870,"Delta":227360040},{"NoteNumber":44,"Velocity":39,"Duration":515020,"SoundDuration":515020,"Delta":227489910},{"NoteNumber":60,"Velocity":37,"Duration":128755,"SoundDuration":128755,"Delta":227489910},{"NoteNumber":63,"Velocity":27,"Duration":128755,"SoundDuration":128755,"Delta":227618665},{"NoteNumber":51,"Velocity":27,"Duration":128755,"SoundDuration":128755,"Delta":227747421},{"NoteNumber":56,"Velocity":24,"Duration":128755,"SoundDuration":128755,"Delta":227876176},{"NoteNumber":60,"Velocity":37,"Duration":130558,"SoundDuration":130558,"Delta":228004931},{"NoteNumber":63,"Velocity":28,"Duration":131382,"SoundDuration":131382,"Delta":228135490},{"NoteNumber":51,"Velocity":28,"Duration":132372,"SoundDuration":132372,"Delta":228266872},{"NoteNumber":56,"Velocity":28,"Duration":133319,"SoundDuration":133319,"Delta":228399245},{"NoteNumber":60,"Velocity":37,"Duration":134293,"SoundDuration":134293,"Delta":228532565},{"NoteNumber":63,"Velocity":28,"Duration":135313,"SoundDuration":135313,"Delta":228666859},{"NoteNumber":51,"Velocity":28,"Duration":136204,"SoundDuration":136204,"Delta":228802173},{"NoteNumber":56,"Velocity":25,"Duration":137342,"SoundDuration":137342,"Delta":228938377},{"NoteNumber":68,"Velocity":45,"Duration":258620,"SoundDuration":258620,"Delta":229075720},{"NoteNumber":60,"Velocity":37,"Duration":129310,"SoundDuration":129310,"Delta":229075720},{"NoteNumber":63,"Velocity":29,"Duration":129310,"SoundDuration":129310,"Delta":229205030},{"NoteNumber":70,"Velocity":48,"Duration":291732,"SoundDuration":291732,"Delta":229334340},{"NoteNumber":67,"Velocity":40,"Duration":291732,"SoundDuration":291732,"Delta":229334340},{"NoteNumber":58,"Velocity":36,"Duration":132158,"SoundDuration":132158,"Delta":229334340},{"NoteNumber":63,"Velocity":39,"Duration":159574,"SoundDuration":159574,"Delta":229466499},{"NoteNumber":68,"Velocity":42,"Duration":493192,"SoundDuration":493192,"Delta":229626073},{"NoteNumber":72,"Velocity":50,"Duration":493192,"SoundDuration":493192,"Delta":229626073},{"NoteNumber":60,"Velocity":47,"Duration":125000,"SoundDuration":125000,"Delta":229626073},{"NoteNumber":63,"Velocity":36,"Duration":123856,"SoundDuration":123856,"Delta":229751073},{"NoteNumber":51,"Velocity":36,"Duration":122187,"SoundDuration":122187,"Delta":229874930},{"NoteNumber":56,"Velocity":31,"Duration":122148,"SoundDuration":122148,"Delta":229997117},{"NoteNumber":60,"Velocity":40,"Duration":121495,"SoundDuration":121495,"Delta":230119266},{"NoteNumber":63,"Velocity":36,"Duration":121530,"SoundDuration":121530,"Delta":230240762},{"NoteNumber":51,"Velocity":36,"Duration":122200,"SoundDuration":122200,"Delta":230362292},{"NoteNumber":56,"Velocity":32,"Duration":122482,"SoundDuration":122482,"Delta":230484493},{"NoteNumber":60,"Velocity":45,"Duration":134529,"SoundDuration":134529,"Delta":230606976},{"NoteNumber":63,"Velocity":35,"Duration":134529,"SoundDuration":134529,"Delta":230741505},{"NoteNumber":48,"Velocity":44,"Duration":246934,"SoundDuration":246934,"Delta":230876034},{"NoteNumber":51,"Velocity":37,"Duration":246934,"SoundDuration":246934,"Delta":230876034},{"NoteNumber":60,"Velocity":35,"Duration":123365,"SoundDuration":123365,"Delta":230876034},{"NoteNumber":56,"Velocity":35,"Duration":123365,"SoundDuration":123365,"Delta":230876034},{"NoteNumber":63,"Velocity":31,"Duration":123568,"SoundDuration":123568,"Delta":230999400},{"NoteNumber":51,"Velocity":39,"Duration":249104,"SoundDuration":249104,"Delta":231122968},{"NoteNumber":46,"Velocity":47,"Duration":249104,"SoundDuration":249104,"Delta":231122968},{"NoteNumber":55,"Velocity":44,"Duration":124991,"SoundDuration":124991,"Delta":231122968},{"NoteNumber":61,"Velocity":44,"Duration":124991,"SoundDuration":124991,"Delta":231122968},{"NoteNumber":63,"Velocity":29,"Duration":124113,"SoundDuration":124113,"Delta":231247960},{"NoteNumber":44,"Velocity":50,"Duration":254071,"SoundDuration":254071,"Delta":231372073},{"NoteNumber":51,"Velocity":42,"Duration":254071,"SoundDuration":254071,"Delta":231372073},{"NoteNumber":56,"Velocity":31,"Duration":126116,"SoundDuration":126116,"Delta":231372073},{"NoteNumber":60,"Velocity":31,"Duration":126116,"SoundDuration":126116,"Delta":231372073},{"NoteNumber":63,"Velocity":27,"Duration":127955,"SoundDuration":127955,"Delta":231498190},{"NoteNumber":51,"Velocity":39,"Duration":248931,"SoundDuration":248931,"Delta":231626145},{"NoteNumber":39,"Velocity":55,"Duration":248931,"SoundDuration":248931,"Delta":231626145},{"NoteNumber":55,"Velocity":37,"Duration":123499,"SoundDuration":123499,"Delta":231626145},{"NoteNumber":58,"Velocity":37,"Duration":123499,"SoundDuration":123499,"Delta":231626145},{"NoteNumber":63,"Velocity":29,"Duration":125303,"SoundDuration":125303,"Delta":231744543},{"NoteNumber":51,"Velocity":29,"Duration":123446,"SoundDuration":123446,"Delta":231875077},{"NoteNumber":55,"Velocity":25,"Duration":124690,"SoundDuration":124690,"Delta":231998524},{"NoteNumber":58,"Velocity":37,"Duration":123824,"SoundDuration":123824,"Delta":232123214},{"NoteNumber":63,"Velocity":29,"Duration":124508,"SoundDuration":124508,"Delta":232247039},{"NoteNumber":51,"Velocity":29,"Duration":124130,"SoundDuration":124130,"Delta":232371548},{"NoteNumber":55,"Velocity":25,"Duration":123729,"SoundDuration":123729,"Delta":232495679},{"NoteNumber":58,"Velocity":37,"Duration":124707,"SoundDuration":124707,"Delta":232619408},{"NoteNumber":63,"Velocity":29,"Duration":125000,"SoundDuration":125000,"Delta":232744116},{"NoteNumber":51,"Velocity":29,"Duration":129310,"SoundDuration":129310,"Delta":232869116},{"NoteNumber":55,"Velocity":24,"Duration":129310,"SoundDuration":129310,"Delta":232998426},{"NoteNumber":70,"Velocity":54,"Duration":252101,"SoundDuration":252101,"Delta":233127736},{"NoteNumber":73,"Velocity":64,"Duration":252101,"SoundDuration":252101,"Delta":233127736},{"NoteNumber":58,"Velocity":42,"Duration":126050,"SoundDuration":126050,"Delta":233127736},{"NoteNumber":63,"Velocity":31,"Duration":126050,"SoundDuration":126050,"Delta":233253787},{"NoteNumber":77,"Velocity":61,"Duration":291732,"SoundDuration":291732,"Delta":233379837},{"NoteNumber":73,"Velocity":51,"Duration":291732,"SoundDuration":291732,"Delta":233379837},{"NoteNumber":61,"Velocity":31,"Duration":132158,"SoundDuration":132158,"Delta":233379837},{"NoteNumber":63,"Velocity":28,"Duration":159574,"SoundDuration":159574,"Delta":233511996},{"NoteNumber":72,"Velocity":48,"Duration":487058,"SoundDuration":487058,"Delta":233671570},{"NoteNumber":75,"Velocity":57,"Duration":487058,"SoundDuration":487058,"Delta":233671570},{"NoteNumber":60,"Velocity":39,"Duration":123332,"SoundDuration":123332,"Delta":233671570},{"NoteNumber":63,"Velocity":29,"Duration":121783,"SoundDuration":121783,"Delta":233801988},{"NoteNumber":51,"Velocity":29,"Duration":120763,"SoundDuration":120763,"Delta":233928874},{"NoteNumber":56,"Velocity":25,"Duration":121055,"SoundDuration":121055,"Delta":234049637},{"NoteNumber":60,"Velocity":42,"Duration":119619,"SoundDuration":119619,"Delta":234170693},{"NoteNumber":63,"Velocity":34,"Duration":120058,"SoundDuration":120058,"Delta":234290312},{"NoteNumber":51,"Velocity":34,"Duration":120969,"SoundDuration":120969,"Delta":234410371},{"NoteNumber":56,"Velocity":29,"Duration":124091,"SoundDuration":124091,"Delta":234531340},{"NoteNumber":60,"Velocity":41,"Duration":134529,"SoundDuration":134529,"Delta":234641979},{"NoteNumber":63,"Velocity":33,"Duration":133576,"SoundDuration":133576,"Delta":234789961},{"NoteNumber":51,"Velocity":33,"Duration":125000,"SoundDuration":125000,"Delta":234911038},{"NoteNumber":56,"Velocity":29,"Duration":124286,"SoundDuration":124286,"Delta":235036038},{"NoteNumber":51,"Velocity":41,"Duration":244095,"SoundDuration":244095,"Delta":235160324},{"NoteNumber":48,"Velocity":57,"Duration":244095,"SoundDuration":244095,"Delta":235160324},{"NoteNumber":60,"Velocity":37,"Duration":120904,"SoundDuration":120904,"Delta":235160324},{"NoteNumber":63,"Velocity":29,"Duration":123324,"SoundDuration":123324,"Delta":235293424},{"NoteNumber":51,"Velocity":39,"Duration":251696,"SoundDuration":251696,"Delta":235404419},{"NoteNumber":46,"Velocity":47,"Duration":251696,"SoundDuration":251696,"Delta":235404419},{"NoteNumber":61,"Velocity":29,"Duration":126046,"SoundDuration":126046,"Delta":235404419},{"NoteNumber":55,"Velocity":29,"Duration":126046,"SoundDuration":126046,"Delta":235404419},{"NoteNumber":63,"Velocity":28,"Duration":113150,"SoundDuration":113150,"Delta":235542966},{"NoteNumber":44,"Velocity":50,"Duration":247668,"SoundDuration":247668,"Delta":235656116},{"NoteNumber":51,"Velocity":42,"Duration":245593,"SoundDuration":245593,"Delta":235656116},{"NoteNumber":60,"Velocity":37,"Duration":123094,"SoundDuration":123094,"Delta":235656116},{"NoteNumber":56,"Velocity":37,"Duration":123094,"SoundDuration":123094,"Delta":235656116},{"NoteNumber":63,"Velocity":29,"Duration":124489,"SoundDuration":124489,"Delta":235774108},{"NoteNumber":51,"Velocity":29,"Duration":123794,"SoundDuration":123794,"Delta":235903784},{"NoteNumber":56,"Velocity":27,"Duration":126070,"SoundDuration":126070,"Delta":236027579},{"NoteNumber":60,"Velocity":38,"Duration":123410,"SoundDuration":123410,"Delta":236153649},{"NoteNumber":63,"Velocity":30,"Duration":125336,"SoundDuration":125336,"Delta":236277060},{"NoteNumber":51,"Velocity":31,"Duration":124104,"SoundDuration":124104,"Delta":236402396},{"NoteNumber":56,"Velocity":29,"Duration":125000,"SoundDuration":125000,"Delta":236526501},{"NoteNumber":60,"Velocity":40,"Duration":125000,"SoundDuration":125000,"Delta":236651501},{"NoteNumber":63,"Velocity":32,"Duration":125000,"SoundDuration":125000,"Delta":236776501},{"NoteNumber":51,"Velocity":32,"Duration":129310,"SoundDuration":129310,"Delta":236901501},{"NoteNumber":56,"Velocity":29,"Duration":129310,"SoundDuration":129310,"Delta":237030811},{"NoteNumber":72,"Velocity":51,"Duration":252101,"SoundDuration":252101,"Delta":237160121},{"NoteNumber":68,"Velocity":43,"Duration":252101,"SoundDuration":252101,"Delta":237160121},{"NoteNumber":60,"Velocity":42,"Duration":126050,"SoundDuration":126050,"Delta":237160121},{"NoteNumber":63,"Velocity":33,"Duration":126050,"SoundDuration":126050,"Delta":237286172},{"NoteNumber":70,"Velocity":46,"Duration":291732,"SoundDuration":291732,"Delta":237412222},{"NoteNumber":73,"Velocity":55,"Duration":291732,"SoundDuration":291732,"Delta":237412222},{"NoteNumber":61,"Velocity":41,"Duration":132158,"SoundDuration":132158,"Delta":237412222},{"NoteNumber":63,"Velocity":44,"Duration":159574,"SoundDuration":159574,"Delta":237544381},{"NoteNumber":72,"Velocity":48,"Duration":498823,"SoundDuration":498823,"Delta":237703955},{"NoteNumber":75,"Velocity":57,"Duration":498823,"SoundDuration":498823,"Delta":237703955},{"NoteNumber":60,"Velocity":54,"Duration":125000,"SoundDuration":125000,"Delta":237703955},{"NoteNumber":63,"Velocity":41,"Duration":125000,"SoundDuration":125000,"Delta":237828955},{"NoteNumber":51,"Velocity":41,"Duration":125000,"SoundDuration":125000,"Delta":237953955},{"NoteNumber":56,"Velocity":37,"Duration":123823,"SoundDuration":123823,"Delta":238078955},{"NoteNumber":60,"Velocity":46,"Duration":122580,"SoundDuration":122580,"Delta":238202779},{"NoteNumber":63,"Velocity":41,"Duration":121647,"SoundDuration":121647,"Delta":238325360},{"NoteNumber":51,"Velocity":41,"Duration":124452,"SoundDuration":124452,"Delta":238447007},{"NoteNumber":56,"Velocity":36,"Duration":124602,"SoundDuration":124602,"Delta":238571459},{"NoteNumber":60,"Velocity":51,"Duration":134529,"SoundDuration":134529,"Delta":238696062},{"NoteNumber":63,"Velocity":44,"Duration":134529,"SoundDuration":134529,"Delta":238830591},{"NoteNumber":48,"Velocity":42,"Duration":249879,"SoundDuration":249879,"Delta":238965120},{"NoteNumber":44,"Velocity":42,"Duration":996492,"SoundDuration":996492,"Delta":238965120},{"NoteNumber":51,"Velocity":50,"Duration":249879,"SoundDuration":249879,"Delta":238965120},{"NoteNumber":60,"Velocity":46,"Duration":125000,"SoundDuration":125000,"Delta":238965120},{"NoteNumber":63,"Velocity":47,"Duration":124879,"SoundDuration":124879,"Delta":239090120},{"NoteNumber":49,"Velocity":42,"Duration":247353,"SoundDuration":247353,"Delta":239214999},{"NoteNumber":53,"Velocity":51,"Duration":247353,"SoundDuration":247353,"Delta":239214999},{"NoteNumber":61,"Velocity":55,"Duration":122268,"SoundDuration":122268,"Delta":239214999},{"NoteNumber":65,"Velocity":48,"Duration":125085,"SoundDuration":125085,"Delta":239337268},{"NoteNumber":55,"Velocity":54,"Duration":248347,"SoundDuration":248347,"Delta":239462353},{"NoteNumber":46,"Velocity":45,"Duration":248347,"SoundDuration":248347,"Delta":239462353},{"NoteNumber":58,"Velocity":50,"Duration":123574,"SoundDuration":123574,"Delta":239462353},{"NoteNumber":67,"Velocity":54,"Duration":124772,"SoundDuration":124772,"Delta":239585928},{"NoteNumber":56,"Velocity":44,"Duration":250912,"SoundDuration":250912,"Delta":239710700},{"NoteNumber":48,"Velocity":63,"Duration":250912,"SoundDuration":250912,"Delta":239710700},{"NoteNumber":60,"Velocity":60,"Duration":124872,"SoundDuration":124872,"Delta":239710700},{"NoteNumber":68,"Velocity":49,"Duration":126039,"SoundDuration":126039,"Delta":239835573},{"NoteNumber":56,"Velocity":49,"Duration":122537,"SoundDuration":122537,"Delta":239961613},{"NoteNumber":60,"Velocity":45,"Duration":125449,"SoundDuration":125449,"Delta":240084150},{"NoteNumber":63,"Velocity":52,"Duration":122870,"SoundDuration":122870,"Delta":240209599},{"NoteNumber":68,"Velocity":42,"Duration":123947,"SoundDuration":123947,"Delta":240332470},{"NoteNumber":56,"Velocity":42,"Duration":125472,"SoundDuration":125472,"Delta":240456417},{"NoteNumber":60,"Velocity":38,"Duration":123364,"SoundDuration":123364,"Delta":240581889},{"NoteNumber":63,"Velocity":58,"Duration":123495,"SoundDuration":123495,"Delta":240705254},{"NoteNumber":68,"Velocity":45,"Duration":125561,"SoundDuration":125561,"Delta":240828749},{"NoteNumber":80,"Velocity":69,"Duration":258620,"SoundDuration":258620,"Delta":240954311},{"NoteNumber":72,"Velocity":58,"Duration":258620,"SoundDuration":258620,"Delta":240954311},{"NoteNumber":60,"Velocity":45,"Duration":129310,"SoundDuration":129310,"Delta":240954311},{"NoteNumber":68,"Velocity":39,"Duration":129310,"SoundDuration":129310,"Delta":241083621},{"NoteNumber":75,"Velocity":55,"Duration":252101,"SoundDuration":252101,"Delta":241212931},{"NoteNumber":79,"Velocity":65,"Duration":252101,"SoundDuration":252101,"Delta":241212931},{"NoteNumber":63,"Velocity":56,"Duration":126050,"SoundDuration":126050,"Delta":241212931},{"NoteNumber":67,"Velocity":41,"Duration":126050,"SoundDuration":126050,"Delta":241338982},{"NoteNumber":77,"Velocity":63,"Duration":289428,"SoundDuration":289428,"Delta":241465032},{"NoteNumber":73,"Velocity":52,"Duration":289428,"SoundDuration":289428,"Delta":241465032},{"NoteNumber":61,"Velocity":41,"Duration":132158,"SoundDuration":132158,"Delta":241465032},{"NoteNumber":65,"Velocity":39,"Duration":157269,"SoundDuration":157269,"Delta":241597191},{"NoteNumber":75,"Velocity":61,"Duration":497692,"SoundDuration":497692,"Delta":241754460},{"NoteNumber":72,"Velocity":60,"Duration":497692,"SoundDuration":497692,"Delta":241754460},{"NoteNumber":60,"Velocity":53,"Duration":124211,"SoundDuration":124211,"Delta":241754460},{"NoteNumber":63,"Velocity":39,"Duration":124463,"SoundDuration":124463,"Delta":241878672},{"NoteNumber":51,"Velocity":39,"Duration":124477,"SoundDuration":124477,"Delta":242003136},{"NoteNumber":56,"Velocity":37,"Duration":124539,"SoundDuration":124539,"Delta":242127614},{"NoteNumber":60,"Velocity":46,"Duration":123681,"SoundDuration":123681,"Delta":242252153},{"NoteNumber":63,"Velocity":34,"Duration":126374,"SoundDuration":126374,"Delta":242375834},{"NoteNumber":51,"Velocity":34,"Duration":124020,"SoundDuration":124020,"Delta":242502209},{"NoteNumber":56,"Velocity":30,"Duration":124481,"SoundDuration":124481,"Delta":242626230},{"NoteNumber":60,"Velocity":40,"Duration":134529,"SoundDuration":134529,"Delta":242750711},{"NoteNumber":63,"Velocity":31,"Duration":134529,"SoundDuration":134529,"Delta":242885241},{"NoteNumber":48,"Velocity":48,"Duration":258620,"SoundDuration":258620,"Delta":243019770},{"NoteNumber":51,"Velocity":48,"Duration":258620,"SoundDuration":258620,"Delta":243019770},{"NoteNumber":60,"Velocity":31,"Duration":129310,"SoundDuration":129310,"Delta":243019770},{"NoteNumber":56,"Velocity":31,"Duration":129310,"SoundDuration":129310,"Delta":243019770},{"NoteNumber":63,"Velocity":27,"Duration":129310,"SoundDuration":129310,"Delta":243149080},{"NoteNumber":49,"Velocity":41,"Duration":252101,"SoundDuration":252101,"Delta":243278390},{"NoteNumber":46,"Velocity":34,"Duration":252101,"SoundDuration":252101,"Delta":243278390},{"NoteNumber":55,"Velocity":43,"Duration":126050,"SoundDuration":126050,"Delta":243278390},{"NoteNumber":61,"Velocity":43,"Duration":126050,"SoundDuration":126050,"Delta":243278390},{"NoteNumber":63,"Velocity":35,"Duration":126050,"SoundDuration":126050,"Delta":243404441},{"NoteNumber":39,"Velocity":33,"Duration":289393,"SoundDuration":289393,"Delta":243530491},{"NoteNumber":46,"Velocity":39,"Duration":289393,"SoundDuration":289393,"Delta":243530491},{"NoteNumber":58,"Velocity":35,"Duration":132158,"SoundDuration":132158,"Delta":243530491},{"NoteNumber":55,"Velocity":35,"Duration":132158,"SoundDuration":132158,"Delta":243530491},{"NoteNumber":63,"Velocity":33,"Duration":157234,"SoundDuration":157234,"Delta":243662650},{"NoteNumber":44,"Velocity":40,"Duration":246806,"SoundDuration":246806,"Delta":243819885},{"NoteNumber":48,"Velocity":48,"Duration":246806,"SoundDuration":246806,"Delta":243819885},{"NoteNumber":60,"Velocity":36,"Duration":123143,"SoundDuration":123143,"Delta":243819885},{"NoteNumber":56,"Velocity":36,"Duration":123143,"SoundDuration":123143,"Delta":243819885},{"NoteNumber":63,"Velocity":30,"Duration":123663,"SoundDuration":123663,"Delta":243943028},{"NoteNumber":51,"Velocity":30,"Duration":122926,"SoundDuration":122926,"Delta":244066692},{"NoteNumber":56,"Velocity":27,"Duration":124448,"SoundDuration":124448,"Delta":244189618},{"NoteNumber":60,"Velocity":27,"Duration":123629,"SoundDuration":123629,"Delta":244314067},{"NoteNumber":63,"Velocity":33,"Duration":125062,"SoundDuration":125062,"Delta":244437696},{"NoteNumber":51,"Velocity":33,"Duration":123950,"SoundDuration":123950,"Delta":244562758},{"NoteNumber":56,"Velocity":29,"Duration":124481,"SoundDuration":124481,"Delta":244686708},{"NoteNumber":60,"Velocity":45,"Duration":134529,"SoundDuration":134529,"Delta":244811190},{"NoteNumber":63,"Velocity":31,"Duration":134529,"SoundDuration":134529,"Delta":244945719},{"NoteNumber":51,"Velocity":31,"Duration":129310,"SoundDuration":129310,"Delta":245080248},{"NoteNumber":56,"Velocity":25,"Duration":129310,"SoundDuration":129310,"Delta":245209558},{"NoteNumber":72,"Velocity":36,"Duration":269058,"SoundDuration":269058,"Delta":245338869},{"NoteNumber":68,"Velocity":30,"Duration":269058,"SoundDuration":269058,"Delta":245338869},{"NoteNumber":60,"Velocity":25,"Duration":134529,"SoundDuration":134529,"Delta":245338869},{"NoteNumber":63,"Velocity":19,"Duration":134529,"SoundDuration":134529,"Delta":245473398},{"NoteNumber":73,"Velocity":38,"Duration":310028,"SoundDuration":310028,"Delta":245607927},{"NoteNumber":70,"Velocity":32,"Duration":310028,"SoundDuration":310028,"Delta":245607927},{"NoteNumber":61,"Velocity":24,"Duration":137614,"SoundDuration":137614,"Delta":245607927},{"NoteNumber":63,"Velocity":26,"Duration":172413,"SoundDuration":172413,"Delta":245745542},{"NoteNumber":72,"Velocity":34,"Duration":499195,"SoundDuration":499195,"Delta":245917956},{"NoteNumber":75,"Velocity":41,"Duration":499195,"SoundDuration":499195,"Delta":245917956},{"NoteNumber":60,"Velocity":32,"Duration":126050,"SoundDuration":126050,"Delta":245917956},{"NoteNumber":63,"Velocity":24,"Duration":124008,"SoundDuration":124008,"Delta":246044006},{"NoteNumber":51,"Velocity":24,"Duration":125229,"SoundDuration":125229,"Delta":246168014},{"NoteNumber":56,"Velocity":24,"Duration":123906,"SoundDuration":123906,"Delta":246293244},{"NoteNumber":60,"Velocity":27,"Duration":126415,"SoundDuration":126415,"Delta":246417151},{"NoteNumber":63,"Velocity":24,"Duration":125788,"SoundDuration":125788,"Delta":246543566},{"NoteNumber":51,"Velocity":24,"Duration":125983,"SoundDuration":125983,"Delta":246669355},{"NoteNumber":56,"Velocity":24,"Duration":125527,"SoundDuration":125527,"Delta":246795339},{"NoteNumber":60,"Velocity":30,"Duration":137614,"SoundDuration":137614,"Delta":246920866},{"NoteNumber":63,"Velocity":26,"Duration":137614,"SoundDuration":137614,"Delta":247058481},{"NoteNumber":51,"Velocity":30,"Duration":256303,"SoundDuration":256303,"Delta":247196095},{"NoteNumber":48,"Velocity":25,"Duration":256303,"SoundDuration":256303,"Delta":247196095},{"NoteNumber":44,"Velocity":25,"Duration":1042100,"SoundDuration":1042100,"Delta":247196095},{"NoteNumber":60,"Velocity":27,"Duration":128098,"SoundDuration":128098,"Delta":247196095},{"NoteNumber":63,"Velocity":28,"Duration":128205,"SoundDuration":128205,"Delta":247324194},{"NoteNumber":49,"Velocity":27,"Duration":262636,"SoundDuration":262636,"Delta":247452399},{"NoteNumber":53,"Velocity":32,"Duration":262636,"SoundDuration":262636,"Delta":247452399},{"NoteNumber":61,"Velocity":33,"Duration":130181,"SoundDuration":130181,"Delta":247452399},{"NoteNumber":65,"Velocity":28,"Duration":132455,"SoundDuration":132455,"Delta":247582581},{"NoteNumber":55,"Velocity":34,"Duration":268731,"SoundDuration":268731,"Delta":247715036},{"NoteNumber":46,"Velocity":28,"Duration":268731,"SoundDuration":268731,"Delta":247715036},{"NoteNumber":58,"Velocity":30,"Duration":133414,"SoundDuration":133414,"Delta":247715036},{"NoteNumber":67,"Velocity":32,"Duration":135317,"SoundDuration":135317,"Delta":247848450},{"NoteNumber":48,"Velocity":37,"Duration":254428,"SoundDuration":254428,"Delta":247983768},{"NoteNumber":56,"Velocity":44,"Duration":254428,"SoundDuration":254428,"Delta":247983768},{"NoteNumber":60,"Velocity":36,"Duration":127267,"SoundDuration":127267,"Delta":247983768},{"NoteNumber":68,"Velocity":29,"Duration":127160,"SoundDuration":127160,"Delta":248111035},{"NoteNumber":56,"Velocity":29,"Duration":126042,"SoundDuration":126042,"Delta":248238196},{"NoteNumber":60,"Velocity":29,"Duration":125554,"SoundDuration":125554,"Delta":248364239},{"NoteNumber":63,"Velocity":31,"Duration":124867,"SoundDuration":124867,"Delta":248489793},{"NoteNumber":68,"Velocity":25,"Duration":124486,"SoundDuration":124486,"Delta":248614660},{"NoteNumber":56,"Velocity":25,"Duration":124987,"SoundDuration":124987,"Delta":248739146},{"NoteNumber":60,"Velocity":25,"Duration":124602,"SoundDuration":124602,"Delta":248864134},{"NoteNumber":63,"Velocity":34,"Duration":133333,"SoundDuration":133333,"Delta":248988737},{"NoteNumber":68,"Velocity":24,"Duration":133333,"SoundDuration":133333,"Delta":249122070},{"NoteNumber":72,"Velocity":35,"Duration":258620,"SoundDuration":258620,"Delta":249255403},{"NoteNumber":80,"Velocity":42,"Duration":258620,"SoundDuration":258620,"Delta":249255403},{"NoteNumber":60,"Velocity":24,"Duration":129310,"SoundDuration":129310,"Delta":249255403},{"NoteNumber":68,"Velocity":24,"Duration":129310,"SoundDuration":129310,"Delta":249384713},{"NoteNumber":75,"Velocity":33,"Duration":252101,"SoundDuration":252101,"Delta":249514024},{"NoteNumber":79,"Velocity":39,"Duration":252101,"SoundDuration":252101,"Delta":249514024},{"NoteNumber":63,"Velocity":33,"Duration":126050,"SoundDuration":126050,"Delta":249514024},{"NoteNumber":67,"Velocity":24,"Duration":126050,"SoundDuration":126050,"Delta":249640074},{"NoteNumber":77,"Velocity":36,"Duration":291732,"SoundDuration":291732,"Delta":249766125},{"NoteNumber":73,"Velocity":30,"Duration":291732,"SoundDuration":291732,"Delta":249766125},{"NoteNumber":61,"Velocity":24,"Duration":132158,"SoundDuration":132158,"Delta":249766125},{"NoteNumber":65,"Velocity":24,"Duration":159574,"SoundDuration":159574,"Delta":249898283},{"NoteNumber":75,"Velocity":42,"Duration":500000,"SoundDuration":500000,"Delta":250057858},{"NoteNumber":72,"Velocity":35,"Duration":500000,"SoundDuration":500000,"Delta":250057858},{"NoteNumber":60,"Velocity":31,"Duration":125000,"SoundDuration":125000,"Delta":250057858},{"NoteNumber":63,"Velocity":24,"Duration":125000,"SoundDuration":125000,"Delta":250182858},{"NoteNumber":51,"Velocity":24,"Duration":125000,"SoundDuration":125000,"Delta":250307858},{"NoteNumber":56,"Velocity":24,"Duration":125000,"SoundDuration":125000,"Delta":250432858},{"NoteNumber":60,"Velocity":28,"Duration":129310,"SoundDuration":129310,"Delta":250557858},{"NoteNumber":63,"Velocity":22,"Duration":129310,"SoundDuration":129310,"Delta":250687168},{"NoteNumber":51,"Velocity":22,"Duration":129310,"SoundDuration":129310,"Delta":250816478},{"NoteNumber":56,"Velocity":22,"Duration":129310,"SoundDuration":129310,"Delta":250945788},{"NoteNumber":60,"Velocity":27,"Duration":134529,"SoundDuration":134529,"Delta":251075099},{"NoteNumber":63,"Velocity":21,"Duration":134529,"SoundDuration":134529,"Delta":251209628},{"NoteNumber":48,"Velocity":37,"Duration":258620,"SoundDuration":258620,"Delta":251344157},{"NoteNumber":51,"Velocity":37,"Duration":258620,"SoundDuration":258620,"Delta":251344157},{"NoteNumber":60,"Velocity":21,"Duration":129310,"SoundDuration":129310,"Delta":251344157},{"NoteNumber":56,"Velocity":21,"Duration":129310,"SoundDuration":129310,"Delta":251344157},{"NoteNumber":63,"Velocity":21,"Duration":129310,"SoundDuration":129310,"Delta":251473467},{"NoteNumber":46,"Velocity":28,"Duration":252101,"SoundDuration":252101,"Delta":251602778},{"NoteNumber":49,"Velocity":33,"Duration":252101,"SoundDuration":252101,"Delta":251602778},{"NoteNumber":55,"Velocity":33,"Duration":126050,"SoundDuration":126050,"Delta":251602778},{"NoteNumber":61,"Velocity":33,"Duration":126050,"SoundDuration":126050,"Delta":251602778},{"NoteNumber":63,"Velocity":24,"Duration":126050,"SoundDuration":126050,"Delta":251728828},{"NoteNumber":46,"Velocity":33,"Duration":289569,"SoundDuration":289569,"Delta":251854879},{"NoteNumber":39,"Velocity":28,"Duration":289569,"SoundDuration":289569,"Delta":251854879},{"NoteNumber":58,"Velocity":24,"Duration":132158,"SoundDuration":132158,"Delta":251854879},{"NoteNumber":55,"Velocity":24,"Duration":132158,"SoundDuration":132158,"Delta":251854879},{"NoteNumber":63,"Velocity":24,"Duration":157410,"SoundDuration":157410,"Delta":251987037},{"NoteNumber":48,"Velocity":37,"Duration":251623,"SoundDuration":251623,"Delta":252144448},{"NoteNumber":44,"Velocity":31,"Duration":251623,"SoundDuration":251623,"Delta":252144448},{"NoteNumber":60,"Velocity":31,"Duration":126007,"SoundDuration":126007,"Delta":252144448},{"NoteNumber":56,"Velocity":31,"Duration":126007,"SoundDuration":126007,"Delta":252144448},{"NoteNumber":63,"Velocity":25,"Duration":125615,"SoundDuration":125615,"Delta":252270456},{"NoteNumber":51,"Velocity":25,"Duration":124965,"SoundDuration":124965,"Delta":252396071},{"NoteNumber":56,"Velocity":24,"Duration":124368,"SoundDuration":124368,"Delta":252521037},{"NoteNumber":60,"Velocity":28,"Duration":124719,"SoundDuration":124719,"Delta":252645405},{"NoteNumber":63,"Velocity":22,"Duration":125181,"SoundDuration":125181,"Delta":252770125},{"NoteNumber":51,"Velocity":22,"Duration":125791,"SoundDuration":125791,"Delta":252895307},{"NoteNumber":56,"Velocity":22,"Duration":125840,"SoundDuration":125840,"Delta":253021098},{"NoteNumber":60,"Velocity":27,"Duration":134529,"SoundDuration":134529,"Delta":253146939},{"NoteNumber":63,"Velocity":21,"Duration":134529,"SoundDuration":134529,"Delta":253281468},{"NoteNumber":51,"Velocity":37,"Duration":258620,"SoundDuration":258620,"Delta":253415997},{"NoteNumber":48,"Velocity":37,"Duration":258620,"SoundDuration":258620,"Delta":253415997},{"NoteNumber":60,"Velocity":21,"Duration":129310,"SoundDuration":129310,"Delta":253415997},{"NoteNumber":56,"Velocity":21,"Duration":129310,"SoundDuration":129310,"Delta":253415997},{"NoteNumber":63,"Velocity":21,"Duration":129310,"SoundDuration":129310,"Delta":253545308},{"NoteNumber":46,"Velocity":28,"Duration":252101,"SoundDuration":252101,"Delta":253674618},{"NoteNumber":49,"Velocity":33,"Duration":252101,"SoundDuration":252101,"Delta":253674618},{"NoteNumber":61,"Velocity":33,"Duration":126050,"SoundDuration":126050,"Delta":253674618},{"NoteNumber":55,"Velocity":33,"Duration":126050,"SoundDuration":126050,"Delta":253674618},{"NoteNumber":63,"Velocity":24,"Duration":126050,"SoundDuration":126050,"Delta":253800668},{"NoteNumber":39,"Velocity":28,"Duration":291732,"SoundDuration":291732,"Delta":253926719},{"NoteNumber":46,"Velocity":33,"Duration":291732,"SoundDuration":291732,"Delta":253926719},{"NoteNumber":55,"Velocity":24,"Duration":132158,"SoundDuration":132158,"Delta":253926719},{"NoteNumber":58,"Velocity":24,"Duration":132158,"SoundDuration":132158,"Delta":253926719},{"NoteNumber":63,"Velocity":24,"Duration":159574,"SoundDuration":159574,"Delta":254058877},{"NoteNumber":44,"Velocity":31,"Duration":246779,"SoundDuration":246779,"Delta":254218452},{"NoteNumber":48,"Velocity":37,"Duration":246779,"SoundDuration":246779,"Delta":254218452},{"NoteNumber":60,"Velocity":31,"Duration":124107,"SoundDuration":124107,"Delta":254218452},{"NoteNumber":56,"Velocity":31,"Duration":124107,"SoundDuration":124107,"Delta":254218452},{"NoteNumber":63,"Velocity":24,"Duration":122672,"SoundDuration":122672,"Delta":254342559},{"NoteNumber":51,"Velocity":24,"Duration":123992,"SoundDuration":123992,"Delta":254465232},{"NoteNumber":56,"Velocity":20,"Duration":124146,"SoundDuration":124146,"Delta":254589224},{"NoteNumber":60,"Velocity":26,"Duration":126025,"SoundDuration":126025,"Delta":254713371},{"NoteNumber":63,"Velocity":20,"Duration":123954,"SoundDuration":123954,"Delta":254839397},{"NoteNumber":51,"Velocity":20,"Duration":124967,"SoundDuration":124967,"Delta":254963351},{"NoteNumber":56,"Velocity":20,"Duration":125823,"SoundDuration":125823,"Delta":255088319},{"NoteNumber":60,"Velocity":24,"Duration":134529,"SoundDuration":134529,"Delta":255214142},{"NoteNumber":63,"Velocity":18,"Duration":134529,"SoundDuration":134529,"Delta":255348672},{"NoteNumber":51,"Velocity":32,"Duration":258620,"SoundDuration":258620,"Delta":255483201},{"NoteNumber":48,"Velocity":32,"Duration":258620,"SoundDuration":258620,"Delta":255483201},{"NoteNumber":56,"Velocity":18,"Duration":129310,"SoundDuration":129310,"Delta":255483201},{"NoteNumber":60,"Velocity":18,"Duration":129310,"SoundDuration":129310,"Delta":255483201},{"NoteNumber":63,"Velocity":18,"Duration":129310,"SoundDuration":129310,"Delta":255612511},{"NoteNumber":46,"Velocity":23,"Duration":252101,"SoundDuration":252101,"Delta":255741821},{"NoteNumber":49,"Velocity":28,"Duration":252101,"SoundDuration":252101,"Delta":255741821},{"NoteNumber":61,"Velocity":28,"Duration":126050,"SoundDuration":126050,"Delta":255741821},{"NoteNumber":55,"Velocity":28,"Duration":126050,"SoundDuration":126050,"Delta":255741821},{"NoteNumber":63,"Velocity":20,"Duration":126050,"SoundDuration":126050,"Delta":255867872},{"NoteNumber":39,"Velocity":23,"Duration":291732,"SoundDuration":291732,"Delta":255993922},{"NoteNumber":46,"Velocity":27,"Duration":291732,"SoundDuration":291732,"Delta":255993922},{"NoteNumber":55,"Velocity":19,"Duration":132158,"SoundDuration":132158,"Delta":255993922},{"NoteNumber":58,"Velocity":19,"Duration":132158,"SoundDuration":132158,"Delta":255993922},{"NoteNumber":63,"Velocity":19,"Duration":159574,"SoundDuration":159574,"Delta":256126081},{"NoteNumber":32,"Velocity":24,"Duration":249901,"SoundDuration":249901,"Delta":256285655},{"NoteNumber":36,"Velocity":24,"Duration":249901,"SoundDuration":249901,"Delta":256285655},{"NoteNumber":44,"Velocity":29,"Duration":249901,"SoundDuration":249901,"Delta":256285655},{"NoteNumber":56,"Velocity":24,"Duration":125070,"SoundDuration":125070,"Delta":256285655},{"NoteNumber":60,"Velocity":20,"Duration":124831,"SoundDuration":124831,"Delta":256410725},{"NoteNumber":48,"Velocity":20,"Duration":123765,"SoundDuration":123765,"Delta":256535557},{"NoteNumber":51,"Velocity":20,"Duration":125166,"SoundDuration":125166,"Delta":256659322},{"NoteNumber":56,"Velocity":22,"Duration":124432,"SoundDuration":124432,"Delta":256784488},{"NoteNumber":60,"Velocity":17,"Duration":125938,"SoundDuration":125938,"Delta":256908921},{"NoteNumber":48,"Velocity":17,"Duration":124930,"SoundDuration":124930,"Delta":257034859},{"NoteNumber":51,"Velocity":17,"Duration":130434,"SoundDuration":130434,"Delta":257159790},{"NoteNumber":56,"Velocity":24,"Duration":123324,"SoundDuration":123324,"Delta":257290225},{"NoteNumber":60,"Velocity":20,"Duration":122371,"SoundDuration":122371,"Delta":257413549},{"NoteNumber":48,"Velocity":20,"Duration":125528,"SoundDuration":125528,"Delta":257535921},{"NoteNumber":51,"Velocity":20,"Duration":122666,"SoundDuration":122666,"Delta":257661449},{"NoteNumber":56,"Velocity":22,"Duration":125533,"SoundDuration":125533,"Delta":257784116},{"NoteNumber":60,"Velocity":17,"Duration":123952,"SoundDuration":123952,"Delta":257909649},{"NoteNumber":48,"Velocity":17,"Duration":125000,"SoundDuration":125000,"Delta":258033602},{"NoteNumber":51,"Velocity":17,"Duration":132158,"SoundDuration":132158,"Delta":258158602},{"NoteNumber":56,"Velocity":26,"Duration":123598,"SoundDuration":123598,"Delta":258290761},{"NoteNumber":60,"Velocity":22,"Duration":125786,"SoundDuration":125786,"Delta":258414359},{"NoteNumber":48,"Velocity":22,"Duration":123067,"SoundDuration":123067,"Delta":258540145},{"NoteNumber":51,"Velocity":22,"Duration":125034,"SoundDuration":125034,"Delta":258663212},{"NoteNumber":56,"Velocity":24,"Duration":124999,"SoundDuration":124999,"Delta":258788247},{"NoteNumber":32,"Velocity":31,"Duration":249505,"SoundDuration":249505,"Delta":258788247},{"NoteNumber":60,"Velocity":18,"Duration":124505,"SoundDuration":124505,"Delta":258913246},{"NoteNumber":48,"Velocity":18,"Duration":125593,"SoundDuration":125593,"Delta":259037752},{"NoteNumber":51,"Velocity":18,"Duration":130434,"SoundDuration":130434,"Delta":259163345},{"NoteNumber":56,"Velocity":26,"Duration":124481,"SoundDuration":124481,"Delta":259293780},{"NoteNumber":32,"Velocity":34,"Duration":248962,"SoundDuration":248962,"Delta":259293780},{"NoteNumber":60,"Velocity":22,"Duration":124481,"SoundDuration":124481,"Delta":259418261},{"NoteNumber":48,"Velocity":22,"Duration":124481,"SoundDuration":124481,"Delta":259542742},{"NoteNumber":51,"Velocity":22,"Duration":124481,"SoundDuration":124481,"Delta":259667224},{"NoteNumber":56,"Velocity":31,"Duration":124481,"SoundDuration":124481,"Delta":259791705},{"NoteNumber":32,"Velocity":36,"Duration":248962,"SoundDuration":248962,"Delta":259791705},{"NoteNumber":60,"Velocity":24,"Duration":124481,"SoundDuration":124481,"Delta":259916186},{"NoteNumber":48,"Velocity":24,"Duration":124481,"SoundDuration":124481,"Delta":260040667},{"NoteNumber":51,"Velocity":24,"Duration":128472,"SoundDuration":128472,"Delta":260165149},{"NoteNumber":58,"Velocity":34,"Duration":123966,"SoundDuration":123966,"Delta":260293621},{"NoteNumber":43,"Velocity":43,"Duration":2436865,"SoundDuration":2436865,"Delta":260293621},{"NoteNumber":31,"Velocity":36,"Duration":2436865,"SoundDuration":2436865,"Delta":260293621},{"NoteNumber":36,"Velocity":36,"Duration":2436865,"SoundDuration":2436865,"Delta":260293621},{"NoteNumber":60,"Velocity":24,"Duration":123618,"SoundDuration":123618,"Delta":260417588},{"NoteNumber":48,"Velocity":24,"Duration":123456,"SoundDuration":123456,"Delta":260541206},{"NoteNumber":52,"Velocity":24,"Duration":122988,"SoundDuration":122988,"Delta":260664663},{"NoteNumber":58,"Velocity":37,"Duration":122867,"SoundDuration":122867,"Delta":260787652},{"NoteNumber":60,"Velocity":29,"Duration":122449,"SoundDuration":122449,"Delta":260910519},{"NoteNumber":52,"Velocity":31,"Duration":122245,"SoundDuration":122245,"Delta":261032968},{"NoteNumber":58,"Velocity":31,"Duration":121951,"SoundDuration":121951,"Delta":261155214},{"NoteNumber":60,"Velocity":47,"Duration":121630,"SoundDuration":121630,"Delta":261277165},{"NoteNumber":64,"Velocity":33,"Duration":121457,"SoundDuration":121457,"Delta":261398795},{"NoteNumber":58,"Velocity":34,"Duration":121024,"SoundDuration":121024,"Delta":261520253},{"NoteNumber":60,"Velocity":35,"Duration":120907,"SoundDuration":120907,"Delta":261641277},{"NoteNumber":64,"Velocity":51,"Duration":120482,"SoundDuration":120482,"Delta":261762185},{"NoteNumber":70,"Velocity":39,"Duration":120305,"SoundDuration":120305,"Delta":261882667},{"NoteNumber":60,"Velocity":41,"Duration":120000,"SoundDuration":120000,"Delta":262002972},{"NoteNumber":64,"Velocity":42,"Duration":119709,"SoundDuration":119709,"Delta":262122972},{"NoteNumber":70,"Velocity":56,"Duration":121951,"SoundDuration":121951,"Delta":262242681},{"NoteNumber":72,"Velocity":45,"Duration":121951,"SoundDuration":121951,"Delta":262364632},{"NoteNumber":60,"Velocity":47,"Duration":121951,"SoundDuration":121951,"Delta":262486584},{"NoteNumber":64,"Velocity":49,"Duration":121951,"SoundDuration":121951,"Delta":262608535},{"NoteNumber":70,"Velocity":60,"Duration":121951,"SoundDuration":121951,"Delta":262730486},{"NoteNumber":55,"Velocity":39,"Duration":487805,"SoundDuration":487805,"Delta":262730486},{"NoteNumber":43,"Velocity":33,"Duration":487805,"SoundDuration":487805,"Delta":262730486},{"NoteNumber":48,"Velocity":33,"Duration":487805,"SoundDuration":487805,"Delta":262730486},{"NoteNumber":72,"Velocity":48,"Duration":121951,"SoundDuration":121951,"Delta":262852437},{"NoteNumber":60,"Velocity":50,"Duration":121951,"SoundDuration":121951,"Delta":262974389},{"NoteNumber":64,"Velocity":51,"Duration":121951,"SoundDuration":121951,"Delta":263096340},{"NoteNumber":70,"Velocity":64,"Duration":127570,"SoundDuration":127570,"Delta":263218291},{"NoteNumber":55,"Velocity":45,"Duration":510755,"SoundDuration":510755,"Delta":263218291},{"NoteNumber":48,"Velocity":38,"Duration":510755,"SoundDuration":510755,"Delta":263218291},{"NoteNumber":43,"Velocity":38,"Duration":510755,"SoundDuration":510755,"Delta":263218291},{"NoteNumber":72,"Velocity":50,"Duration":127659,"SoundDuration":127659,"Delta":263345862},{"NoteNumber":60,"Velocity":52,"Duration":127659,"SoundDuration":127659,"Delta":263473521},{"NoteNumber":64,"Velocity":55,"Duration":127865,"SoundDuration":127865,"Delta":263601181},{"NoteNumber":70,"Velocity":69,"Duration":130130,"SoundDuration":130130,"Delta":263729047},{"NoteNumber":43,"Velocity":42,"Duration":532099,"SoundDuration":532099,"Delta":263729047},{"NoteNumber":48,"Velocity":42,"Duration":532099,"SoundDuration":532099,"Delta":263729047},{"NoteNumber":55,"Velocity":50,"Duration":532099,"SoundDuration":532099,"Delta":263729047},{"NoteNumber":72,"Velocity":59,"Duration":131948,"SoundDuration":131948,"Delta":263859177},{"NoteNumber":60,"Velocity":61,"Duration":134060,"SoundDuration":134060,"Delta":263991126},{"NoteNumber":64,"Velocity":63,"Duration":135959,"SoundDuration":135959,"Delta":264125186},{"NoteNumber":60,"Velocity":55,"Duration":103092,"SoundDuration":103092,"Delta":264261146},{"NoteNumber":56,"Velocity":51,"Duration":1817827,"SoundDuration":1817827,"Delta":264261146},{"NoteNumber":48,"Velocity":51,"Duration":2346461,"SoundDuration":2346461,"Delta":264261146},{"NoteNumber":41,"Velocity":43,"Duration":5534701,"SoundDuration":5534701,"Delta":264261146},{"NoteNumber":65,"Velocity":60,"Duration":103092,"SoundDuration":103092,"Delta":264364239},{"NoteNumber":68,"Velocity":66,"Duration":103092,"SoundDuration":103092,"Delta":264467331},{"NoteNumber":72,"Velocity":76,"Duration":821917,"SoundDuration":821917,"Delta":264570424},{"NoteNumber":70,"Velocity":57,"Duration":148514,"SoundDuration":148514,"Delta":265392342},{"NoteNumber":68,"Velocity":67,"Duration":403587,"SoundDuration":403587,"Delta":265540856},{"NoteNumber":70,"Velocity":58,"Duration":134529,"SoundDuration":134529,"Delta":265944444},{"NoteNumber":67,"Velocity":68,"Duration":396475,"SoundDuration":396475,"Delta":266078973},{"NoteNumber":43,"Velocity":36,"Duration":528634,"SoundDuration":528634,"Delta":266078973},{"NoteNumber":52,"Velocity":43,"Duration":528634,"SoundDuration":528634,"Delta":266078973},{"NoteNumber":68,"Velocity":51,"Duration":132158,"SoundDuration":132158,"Delta":266475449},{"NoteNumber":65,"Velocity":60,"Duration":398229,"SoundDuration":398229,"Delta":266607607},{"NoteNumber":44,"Velocity":43,"Duration":530973,"SoundDuration":530973,"Delta":266607607},{"NoteNumber":53,"Velocity":43,"Duration":3188240,"SoundDuration":3188240,"Delta":266607607},{"NoteNumber":66,"Velocity":51,"Duration":132743,"SoundDuration":132743,"Delta":267005837},{"NoteNumber":63,"Velocity":62,"Duration":396475,"SoundDuration":396475,"Delta":267138580},{"NoteNumber":45,"Velocity":39,"Duration":528634,"SoundDuration":528634,"Delta":267138580},{"NoteNumber":65,"Velocity":52,"Duration":132158,"SoundDuration":132158,"Delta":267535056},{"NoteNumber":61,"Velocity":60,"Duration":401785,"SoundDuration":401785,"Delta":267667214},{"NoteNumber":43,"Velocity":43,"Duration":535713,"SoundDuration":535713,"Delta":267667214},{"NoteNumber":63,"Velocity":51,"Duration":133928,"SoundDuration":133928,"Delta":268069000},{"NoteNumber":60,"Velocity":60,"Duration":398229,"SoundDuration":398229,"Delta":268202928},{"NoteNumber":45,"Velocity":40,"Duration":530973,"SoundDuration":530973,"Delta":268202928},{"NoteNumber":61,"Velocity":51,"Duration":132743,"SoundDuration":132743,"Delta":268601158},{"NoteNumber":58,"Velocity":60,"Duration":398229,"SoundDuration":398229,"Delta":268733901},{"NoteNumber":49,"Velocity":44,"Duration":530972,"SoundDuration":530972,"Delta":268733901},{"NoteNumber":60,"Velocity":53,"Duration":132743,"SoundDuration":132743,"Delta":269132131},{"NoteNumber":56,"Velocity":63,"Duration":398229,"SoundDuration":398229,"Delta":269264874},{"NoteNumber":48,"Velocity":41,"Duration":530973,"SoundDuration":530973,"Delta":269264874},{"NoteNumber":58,"Velocity":60,"Duration":132743,"SoundDuration":132743,"Delta":269663104},{"NoteNumber":54,"Velocity":68,"Duration":409091,"SoundDuration":409091,"Delta":269795847},{"NoteNumber":49,"Velocity":49,"Duration":545455,"SoundDuration":545455,"Delta":269795847},{"NoteNumber":46,"Velocity":41,"Duration":545455,"SoundDuration":545455,"Delta":269795847},{"NoteNumber":56,"Velocity":63,"Duration":136363,"SoundDuration":136363,"Delta":270204939},{"NoteNumber":53,"Velocity":72,"Duration":426539,"SoundDuration":426539,"Delta":270341302},{"NoteNumber":44,"Velocity":38,"Duration":568719,"SoundDuration":568719,"Delta":270341302},{"NoteNumber":48,"Velocity":45,"Duration":568719,"SoundDuration":568719,"Delta":270341302},{"NoteNumber":55,"Velocity":67,"Duration":142179,"SoundDuration":142179,"Delta":270767842},{"NoteNumber":52,"Velocity":78,"Duration":298507,"SoundDuration":298507,"Delta":270910022},{"NoteNumber":43,"Velocity":47,"Duration":298507,"SoundDuration":298507,"Delta":270910022},{"NoteNumber":46,"Velocity":57,"Duration":298507,"SoundDuration":298507,"Delta":270910022},{"NoteNumber":73,"Velocity":79,"Duration":298507,"SoundDuration":298507,"Delta":271507037},{"NoteNumber":67,"Velocity":66,"Duration":298507,"SoundDuration":298507,"Delta":271507037},{"NoteNumber":70,"Velocity":66,"Duration":298507,"SoundDuration":298507,"Delta":271507037},{"NoteNumber":52,"Velocity":48,"Duration":298507,"SoundDuration":298507,"Delta":271507037},{"NoteNumber":61,"Velocity":57,"Duration":298507,"SoundDuration":298507,"Delta":271507037},{"NoteNumber":58,"Velocity":48,"Duration":298507,"SoundDuration":298507,"Delta":271507037},{"NoteNumber":55,"Velocity":48,"Duration":298507,"SoundDuration":298507,"Delta":271507037},{"NoteNumber":72,"Velocity":41,"Duration":64102,"SoundDuration":64102,"Delta":272651997},{"NoteNumber":73,"Velocity":41,"Duration":64102,"SoundDuration":64102,"Delta":272716100},{"NoteNumber":75,"Velocity":37,"Duration":64102,"SoundDuration":64102,"Delta":272780202},{"NoteNumber":73,"Velocity":47,"Duration":402684,"SoundDuration":402684,"Delta":272844305},{"NoteNumber":72,"Velocity":41,"Duration":151515,"SoundDuration":151515,"Delta":273246990},{"NoteNumber":72,"Velocity":47,"Duration":584508,"SoundDuration":584508,"Delta":273398505},{"NoteNumber":56,"Velocity":35,"Duration":584508,"SoundDuration":584508,"Delta":273398505},{"NoteNumber":53,"Velocity":29,"Duration":584508,"SoundDuration":584508,"Delta":273398505},{"NoteNumber":77,"Velocity":53,"Duration":731454,"SoundDuration":731454,"Delta":273983013},{"NoteNumber":49,"Velocity":27,"Duration":542985,"SoundDuration":542985,"Delta":274533472},{"NoteNumber":55,"Velocity":32,"Duration":542985,"SoundDuration":542985,"Delta":274533472},{"NoteNumber":46,"Velocity":27,"Duration":542985,"SoundDuration":542985,"Delta":274533472},{"NoteNumber":67,"Velocity":39,"Duration":180995,"SoundDuration":180995,"Delta":274714467},{"NoteNumber":70,"Velocity":39,"Duration":180995,"SoundDuration":180995,"Delta":274895462},{"NoteNumber":73,"Velocity":44,"Duration":180995,"SoundDuration":180995,"Delta":275076458},{"NoteNumber":70,"Velocity":38,"Duration":185735,"SoundDuration":185735,"Delta":275257453},{"NoteNumber":67,"Velocity":37,"Duration":190476,"SoundDuration":190476,"Delta":275443189},{"NoteNumber":65,"Velocity":46,"Duration":1194834,"SoundDuration":1194834,"Delta":275633665},{"NoteNumber":48,"Velocity":29,"Duration":1495914,"SoundDuration":1495914,"Delta":275633665},{"NoteNumber":53,"Velocity":32,"Duration":180995,"SoundDuration":180995,"Delta":275822345},{"NoteNumber":56,"Velocity":34,"Duration":180995,"SoundDuration":180995,"Delta":276003340},{"NoteNumber":60,"Velocity":37,"Duration":180995,"SoundDuration":180995,"Delta":276184335},{"NoteNumber":58,"Velocity":31,"Duration":214721,"SoundDuration":214721,"Delta":276365331},{"NoteNumber":56,"Velocity":28,"Duration":248447,"SoundDuration":248447,"Delta":276580052},{"NoteNumber":64,"Velocity":41,"Duration":301080,"SoundDuration":301080,"Delta":276828499},{"NoteNumber":55,"Velocity":35,"Duration":301080,"SoundDuration":301080,"Delta":276828499},{"NoteNumber":78,"Velocity":51,"Duration":145127,"SoundDuration":145127,"Delta":277129580},{"NoteNumber":79,"Velocity":53,"Duration":143679,"SoundDuration":143679,"Delta":277274708},{"NoteNumber":80,"Velocity":56,"Duration":142260,"SoundDuration":142260,"Delta":277418387},{"NoteNumber":81,"Velocity":58,"Duration":140874,"SoundDuration":140874,"Delta":277560648},{"NoteNumber":82,"Velocity":61,"Duration":139509,"SoundDuration":139509,"Delta":277701522},{"NoteNumber":83,"Velocity":63,"Duration":138176,"SoundDuration":138176,"Delta":277841031},{"NoteNumber":72,"Velocity":55,"Duration":103092,"SoundDuration":103092,"Delta":277979207},{"NoteNumber":56,"Velocity":51,"Duration":1799083,"SoundDuration":1799083,"Delta":277979207},{"NoteNumber":48,"Velocity":51,"Duration":2312773,"SoundDuration":2312773,"Delta":277979207},{"NoteNumber":41,"Velocity":43,"Duration":4651172,"SoundDuration":4651172,"Delta":277979207},{"NoteNumber":77,"Velocity":60,"Duration":103092,"SoundDuration":103092,"Delta":278082300},{"NoteNumber":80,"Velocity":66,"Duration":103092,"SoundDuration":103092,"Delta":278185393},{"NoteNumber":84,"Velocity":75,"Duration":821917,"SoundDuration":821917,"Delta":278288486},{"NoteNumber":82,"Velocity":47,"Duration":148514,"SoundDuration":148514,"Delta":279110403},{"NoteNumber":80,"Velocity":60,"Duration":386630,"SoundDuration":386630,"Delta":279258918},{"NoteNumber":92,"Velocity":60,"Duration":132743,"SoundDuration":132743,"Delta":279645548},{"NoteNumber":79,"Velocity":60,"Duration":380356,"SoundDuration":380356,"Delta":279778291},{"NoteNumber":43,"Velocity":36,"Duration":513689,"SoundDuration":513689,"Delta":279778291},{"NoteNumber":52,"Velocity":43,"Duration":513689,"SoundDuration":513689,"Delta":279778291},{"NoteNumber":91,"Velocity":58,"Duration":133333,"SoundDuration":133333,"Delta":280158648},{"NoteNumber":77,"Velocity":60,"Duration":386980,"SoundDuration":386980,"Delta":280291981},{"NoteNumber":53,"Velocity":43,"Duration":2338398,"SoundDuration":2338398,"Delta":280291981},{"NoteNumber":44,"Velocity":43,"Duration":519723,"SoundDuration":519723,"Delta":280291981},{"NoteNumber":89,"Velocity":58,"Duration":132743,"SoundDuration":132743,"Delta":280678962},{"NoteNumber":75,"Velocity":62,"Duration":386395,"SoundDuration":386395,"Delta":280811705},{"NoteNumber":45,"Velocity":39,"Duration":519139,"SoundDuration":519139,"Delta":280811705},{"NoteNumber":87,"Velocity":68,"Duration":132743,"SoundDuration":132743,"Delta":281198101},{"NoteNumber":73,"Velocity":60,"Duration":389247,"SoundDuration":389247,"Delta":281330844},{"NoteNumber":43,"Velocity":43,"Duration":523176,"SoundDuration":523176,"Delta":281330844},{"NoteNumber":85,"Velocity":65,"Duration":133928,"SoundDuration":133928,"Delta":281720092},{"NoteNumber":72,"Velocity":60,"Duration":389153,"SoundDuration":389153,"Delta":281854020},{"NoteNumber":45,"Velocity":40,"Duration":523082,"SoundDuration":523082,"Delta":281854020},{"NoteNumber":84,"Velocity":61,"Duration":133928,"SoundDuration":133928,"Delta":282243174},{"NoteNumber":70,"Velocity":60,"Duration":123966,"SoundDuration":123966,"Delta":282377102},{"NoteNumber":49,"Velocity":44,"Duration":253277,"SoundDuration":253277,"Delta":282377102},{"NoteNumber":82,"Velocity":52,"Duration":129043,"SoundDuration":129043,"Delta":282507535},{"NoteNumber":70,"Velocity":52,"Duration":123966,"SoundDuration":123966,"Delta":282630380},{"NoteNumber":49,"Velocity":32,"Duration":123966,"SoundDuration":123966,"Delta":282630380},{"NoteNumber":53,"Velocity":37,"Duration":123966,"SoundDuration":123966,"Delta":282630380},{"NoteNumber":82,"Velocity":47,"Duration":129310,"SoundDuration":129310,"Delta":282754347},{"NoteNumber":68,"Velocity":63,"Duration":123966,"SoundDuration":123966,"Delta":282883657},{"NoteNumber":48,"Velocity":32,"Duration":123966,"SoundDuration":123966,"Delta":282883657},{"NoteNumber":51,"Velocity":41,"Duration":123966,"SoundDuration":123966,"Delta":282883657},{"NoteNumber":80,"Velocity":56,"Duration":129310,"SoundDuration":129310,"Delta":283007624},{"NoteNumber":68,"Velocity":57,"Duration":125000,"SoundDuration":125000,"Delta":283136934},{"NoteNumber":48,"Velocity":36,"Duration":125000,"SoundDuration":125000,"Delta":283136934},{"NoteNumber":51,"Velocity":44,"Duration":125000,"SoundDuration":125000,"Delta":283136934},{"NoteNumber":80,"Velocity":60,"Duration":129870,"SoundDuration":129870,"Delta":283261934},{"NoteNumber":66,"Velocity":68,"Duration":126582,"SoundDuration":126582,"Delta":283391804},{"NoteNumber":46,"Velocity":39,"Duration":126582,"SoundDuration":126582,"Delta":283391804},{"NoteNumber":49,"Velocity":47,"Duration":126582,"SoundDuration":126582,"Delta":283391804},{"NoteNumber":78,"Velocity":62,"Duration":132743,"SoundDuration":132743,"Delta":283518387},{"NoteNumber":66,"Velocity":63,"Duration":128755,"SoundDuration":128755,"Delta":283651130},{"NoteNumber":49,"Velocity":51,"Duration":128755,"SoundDuration":128755,"Delta":283651130},{"NoteNumber":46,"Velocity":43,"Duration":128755,"SoundDuration":128755,"Delta":283651130},{"NoteNumber":78,"Velocity":58,"Duration":134529,"SoundDuration":134529,"Delta":283779885},{"NoteNumber":65,"Velocity":72,"Duration":142179,"SoundDuration":142179,"Delta":283914414},{"NoteNumber":48,"Velocity":41,"Duration":142179,"SoundDuration":142179,"Delta":283914414},{"NoteNumber":44,"Velocity":41,"Duration":142179,"SoundDuration":142179,"Delta":283914414},{"NoteNumber":49,"Velocity":55,"Duration":142179,"SoundDuration":142179,"Delta":283914414},{"NoteNumber":77,"Velocity":65,"Duration":142179,"SoundDuration":142179,"Delta":284056594},{"NoteNumber":65,"Velocity":67,"Duration":142179,"SoundDuration":142179,"Delta":284198774},{"NoteNumber":48,"Velocity":44,"Duration":142179,"SoundDuration":142179,"Delta":284198774},{"NoteNumber":49,"Velocity":60,"Duration":142179,"SoundDuration":142179,"Delta":284198774},{"NoteNumber":44,"Velocity":44,"Duration":142179,"SoundDuration":142179,"Delta":284198774},{"NoteNumber":77,"Velocity":62,"Duration":142179,"SoundDuration":142179,"Delta":284340954},{"NoteNumber":76,"Velocity":83,"Duration":298507,"SoundDuration":298507,"Delta":284483134},{"NoteNumber":64,"Velocity":70,"Duration":298507,"SoundDuration":298507,"Delta":284483134},{"NoteNumber":43,"Velocity":51,"Duration":298507,"SoundDuration":298507,"Delta":284483134},{"NoteNumber":49,"Velocity":64,"Duration":298507,"SoundDuration":298507,"Delta":284483134},{"NoteNumber":46,"Velocity":54,"Duration":298507,"SoundDuration":298507,"Delta":284483134},{"NoteNumber":85,"Velocity":90,"Duration":298507,"SoundDuration":298507,"Delta":285080149},{"NoteNumber":82,"Velocity":75,"Duration":298507,"SoundDuration":298507,"Delta":285080149},{"NoteNumber":79,"Velocity":75,"Duration":298507,"SoundDuration":298507,"Delta":285080149},{"NoteNumber":58,"Velocity":55,"Duration":298507,"SoundDuration":298507,"Delta":285080149},{"NoteNumber":55,"Velocity":55,"Duration":298507,"SoundDuration":298507,"Delta":285080149},{"NoteNumber":52,"Velocity":55,"Duration":298507,"SoundDuration":298507,"Delta":285080149},{"NoteNumber":61,"Velocity":65,"Duration":298507,"SoundDuration":298507,"Delta":285080149},{"NoteNumber":72,"Velocity":41,"Duration":64102,"SoundDuration":64102,"Delta":286225109},{"NoteNumber":73,"Velocity":41,"Duration":64102,"SoundDuration":64102,"Delta":286289212},{"NoteNumber":75,"Velocity":38,"Duration":64102,"SoundDuration":64102,"Delta":286353315},{"NoteNumber":73,"Velocity":47,"Duration":402684,"SoundDuration":402684,"Delta":286417417},{"NoteNumber":72,"Velocity":41,"Duration":151515,"SoundDuration":151515,"Delta":286820102},{"NoteNumber":72,"Velocity":46,"Duration":197044,"SoundDuration":197044,"Delta":286971617},{"NoteNumber":56,"Velocity":35,"Duration":575940,"SoundDuration":575940,"Delta":286971617},{"NoteNumber":53,"Velocity":29,"Duration":575940,"SoundDuration":575940,"Delta":286971617},{"NoteNumber":80,"Velocity":53,"Duration":191980,"SoundDuration":191980,"Delta":287168661},{"NoteNumber":79,"Velocity":47,"Duration":186915,"SoundDuration":186915,"Delta":287360641},{"NoteNumber":77,"Velocity":47,"Duration":186915,"SoundDuration":186915,"Delta":287547557},{"NoteNumber":72,"Velocity":43,"Duration":186915,"SoundDuration":186915,"Delta":287734473},{"NoteNumber":68,"Velocity":43,"Duration":186915,"SoundDuration":186915,"Delta":287921389},{"NoteNumber":67,"Velocity":47,"Duration":196078,"SoundDuration":196078,"Delta":288108305},{"NoteNumber":55,"Velocity":32,"Duration":566845,"SoundDuration":566845,"Delta":288108305},{"NoteNumber":46,"Velocity":27,"Duration":566845,"SoundDuration":566845,"Delta":288108305},{"NoteNumber":49,"Velocity":27,"Duration":566845,"SoundDuration":566845,"Delta":288108305},{"NoteNumber":75,"Velocity":52,"Duration":188948,"SoundDuration":188948,"Delta":288304384},{"NoteNumber":72,"Velocity":39,"Duration":181818,"SoundDuration":181818,"Delta":288493332},{"NoteNumber":73,"Velocity":44,"Duration":181818,"SoundDuration":181818,"Delta":288675150},{"NoteNumber":70,"Velocity":38,"Duration":186147,"SoundDuration":186147,"Delta":288856969},{"NoteNumber":67,"Velocity":37,"Duration":190476,"SoundDuration":190476,"Delta":289043116},{"NoteNumber":65,"Velocity":53,"Duration":188679,"SoundDuration":188679,"Delta":289233592},{"NoteNumber":53,"Velocity":35,"Duration":279177,"SoundDuration":279177,"Delta":289233592},{"NoteNumber":48,"Velocity":35,"Duration":279177,"SoundDuration":279177,"Delta":289233592},{"NoteNumber":56,"Velocity":43,"Duration":279177,"SoundDuration":279177,"Delta":289233592},{"NoteNumber":60,"Velocity":48,"Duration":180995,"SoundDuration":180995,"Delta":289422272},{"NoteNumber":65,"Velocity":49,"Duration":180995,"SoundDuration":180995,"Delta":289603267},{"NoteNumber":68,"Velocity":58,"Duration":176991,"SoundDuration":176991,"Delta":289784262},{"NoteNumber":56,"Velocity":54,"Duration":176991,"SoundDuration":176991,"Delta":289784262},{"NoteNumber":65,"Velocity":50,"Duration":180180,"SoundDuration":180180,"Delta":289961253},{"NoteNumber":53,"Velocity":46,"Duration":180180,"SoundDuration":180180,"Delta":289961253},{"NoteNumber":73,"Velocity":51,"Duration":188679,"SoundDuration":188679,"Delta":290141434},{"NoteNumber":61,"Velocity":48,"Duration":188679,"SoundDuration":188679,"Delta":290141434},{"NoteNumber":72,"Velocity":66,"Duration":303030,"SoundDuration":303030,"Delta":290330113},{"NoteNumber":60,"Velocity":54,"Duration":303030,"SoundDuration":303030,"Delta":290330113},{"NoteNumber":76,"Velocity":78,"Duration":226130,"SoundDuration":226130,"Delta":290936174},{"NoteNumber":72,"Velocity":66,"Duration":226130,"SoundDuration":226130,"Delta":290936174},{"NoteNumber":67,"Velocity":66,"Duration":226130,"SoundDuration":226130,"Delta":290936174},{"NoteNumber":60,"Velocity":60,"Duration":226130,"SoundDuration":226130,"Delta":290936174},{"NoteNumber":48,"Velocity":50,"Duration":226130,"SoundDuration":226130,"Delta":290936174},{"NoteNumber":68,"Velocity":66,"Duration":230769,"SoundDuration":230769,"Delta":291539189},{"NoteNumber":72,"Velocity":66,"Duration":230769,"SoundDuration":230769,"Delta":291539189},{"NoteNumber":77,"Velocity":78,"Duration":230769,"SoundDuration":230769,"Delta":291539189},{"NoteNumber":53,"Velocity":60,"Duration":230769,"SoundDuration":230769,"Delta":291539189},{"NoteNumber":41,"Velocity":50,"Duration":230769,"SoundDuration":230769,"Delta":291539189},{"NoteNumber":68,"Velocity":45,"Duration":119522,"SoundDuration":119522,"Delta":291846882},{"NoteNumber":72,"Velocity":28,"Duration":119522,"SoundDuration":119522,"Delta":291966404},{"NoteNumber":68,"Velocity":39,"Duration":118113,"SoundDuration":118113,"Delta":292085926},{"NoteNumber":53,"Velocity":22,"Duration":480294,"SoundDuration":480294,"Delta":292085926},{"NoteNumber":65,"Velocity":27,"Duration":480294,"SoundDuration":480294,"Delta":292085926},{"NoteNumber":72,"Velocity":28,"Duration":119675,"SoundDuration":119675,"Delta":292204040},{"NoteNumber":68,"Velocity":38,"Duration":119047,"SoundDuration":119047,"Delta":292323715},{"NoteNumber":72,"Velocity":31,"Duration":123456,"SoundDuration":123456,"Delta":292442763},{"NoteNumber":67,"Velocity":45,"Duration":117561,"SoundDuration":117561,"Delta":292566220},{"NoteNumber":71,"Velocity":30,"Duration":118588,"SoundDuration":118588,"Delta":292683781},{"NoteNumber":68,"Velocity":45,"Duration":116415,"SoundDuration":116415,"Delta":292802370},{"NoteNumber":72,"Velocity":32,"Duration":119502,"SoundDuration":119502,"Delta":292918785},{"NoteNumber":68,"Velocity":39,"Duration":118783,"SoundDuration":118783,"Delta":293038288},{"NoteNumber":65,"Velocity":27,"Duration":485122,"SoundDuration":485122,"Delta":293038288},{"NoteNumber":53,"Velocity":22,"Duration":485122,"SoundDuration":485122,"Delta":293038288},{"NoteNumber":72,"Velocity":27,"Duration":119332,"SoundDuration":119332,"Delta":293157071},{"NoteNumber":68,"Velocity":40,"Duration":118251,"SoundDuration":118251,"Delta":293276404},{"NoteNumber":72,"Velocity":30,"Duration":128755,"SoundDuration":128755,"Delta":293394655},{"NoteNumber":69,"Velocity":45,"Duration":118110,"SoundDuration":118110,"Delta":293523411},{"NoteNumber":75,"Velocity":31,"Duration":118110,"SoundDuration":118110,"Delta":293641521},{"NoteNumber":70,"Velocity":38,"Duration":117646,"SoundDuration":117646,"Delta":293759631},{"NoteNumber":73,"Velocity":30,"Duration":117647,"SoundDuration":117647,"Delta":293877278},{"NoteNumber":70,"Velocity":38,"Duration":116690,"SoundDuration":116690,"Delta":293994925},{"NoteNumber":53,"Velocity":22,"Duration":483211,"SoundDuration":483211,"Delta":293994925},{"NoteNumber":65,"Velocity":27,"Duration":483211,"SoundDuration":483211,"Delta":293994925},{"NoteNumber":73,"Velocity":31,"Duration":117843,"SoundDuration":117843,"Delta":294111616},{"NoteNumber":70,"Velocity":33,"Duration":117097,"SoundDuration":117097,"Delta":294229459},{"NoteNumber":73,"Velocity":28,"Duration":131578,"SoundDuration":131578,"Delta":294346557},{"NoteNumber":73,"Velocity":47,"Duration":117187,"SoundDuration":117187,"Delta":294478136},{"NoteNumber":77,"Velocity":38,"Duration":117187,"SoundDuration":117187,"Delta":294595324},{"NoteNumber":70,"Velocity":45,"Duration":117187,"SoundDuration":117187,"Delta":294712511},{"NoteNumber":73,"Velocity":32,"Duration":117187,"SoundDuration":117187,"Delta":294829699},{"NoteNumber":68,"Velocity":40,"Duration":117187,"SoundDuration":117187,"Delta":294946886},{"NoteNumber":65,"Velocity":27,"Duration":476310,"SoundDuration":476310,"Delta":294946886},{"NoteNumber":53,"Velocity":22,"Duration":476310,"SoundDuration":476310,"Delta":294946886},{"NoteNumber":73,"Velocity":31,"Duration":117187,"SoundDuration":117187,"Delta":295064074},{"NoteNumber":67,"Velocity":37,"Duration":120967,"SoundDuration":120967,"Delta":295181261},{"NoteNumber":73,"Velocity":31,"Duration":120967,"SoundDuration":120967,"Delta":295302229},{"NoteNumber":68,"Velocity":45,"Duration":115567,"SoundDuration":115567,"Delta":295423197},{"NoteNumber":75,"Velocity":30,"Duration":116926,"SoundDuration":116926,"Delta":295538764},{"NoteNumber":68,"Velocity":36,"Duration":116279,"SoundDuration":116279,"Delta":295655690},{"NoteNumber":72,"Velocity":27,"Duration":116690,"SoundDuration":116690,"Delta":295771969},{"NoteNumber":68,"Velocity":38,"Duration":117282,"SoundDuration":117282,"Delta":295888660},{"NoteNumber":53,"Velocity":22,"Duration":467672,"SoundDuration":467672,"Delta":295888660},{"NoteNumber":65,"Velocity":27,"Duration":467672,"SoundDuration":467672,"Delta":295888660},{"NoteNumber":72,"Velocity":31,"Duration":117695,"SoundDuration":117695,"Delta":296005943},{"NoteNumber":68,"Velocity":33,"Duration":116550,"SoundDuration":116550,"Delta":296123638},{"NoteNumber":72,"Velocity":28,"Duration":116144,"SoundDuration":116144,"Delta":296240189},{"NoteNumber":68,"Velocity":47,"Duration":118577,"SoundDuration":118577,"Delta":296356333},{"NoteNumber":46,"Velocity":27,"Duration":237201,"SoundDuration":237201,"Delta":296356333},{"NoteNumber":72,"Velocity":30,"Duration":118624,"SoundDuration":118624,"Delta":296474910},{"NoteNumber":66,"Velocity":35,"Duration":118254,"SoundDuration":118254,"Delta":296593535},{"NoteNumber":70,"Velocity":31,"Duration":118962,"SoundDuration":118962,"Delta":296711789},{"NoteNumber":66,"Velocity":40,"Duration":117838,"SoundDuration":117838,"Delta":296830752},{"NoteNumber":54,"Velocity":22,"Duration":236275,"SoundDuration":236275,"Delta":296830752},{"NoteNumber":58,"Velocity":27,"Duration":236275,"SoundDuration":236275,"Delta":296830752},{"NoteNumber":70,"Velocity":28,"Duration":118436,"SoundDuration":118436,"Delta":296948591},{"NoteNumber":66,"Velocity":36,"Duration":118859,"SoundDuration":118859,"Delta":297067028},{"NoteNumber":70,"Velocity":29,"Duration":129870,"SoundDuration":129870,"Delta":297185887},{"NoteNumber":66,"Velocity":45,"Duration":117654,"SoundDuration":117654,"Delta":297315757},{"NoteNumber":48,"Velocity":27,"Duration":236301,"SoundDuration":236301,"Delta":297315757},{"NoteNumber":70,"Velocity":27,"Duration":118647,"SoundDuration":118647,"Delta":297433412},{"NoteNumber":65,"Velocity":34,"Duration":120244,"SoundDuration":120244,"Delta":297552059},{"NoteNumber":68,"Velocity":27,"Duration":117880,"SoundDuration":117880,"Delta":297672304},{"NoteNumber":65,"Velocity":36,"Duration":118636,"SoundDuration":118636,"Delta":297790184},{"NoteNumber":56,"Velocity":27,"Duration":236842,"SoundDuration":236842,"Delta":297790184},{"NoteNumber":53,"Velocity":22,"Duration":236842,"SoundDuration":236842,"Delta":297790184},{"NoteNumber":68,"Velocity":27,"Duration":118206,"SoundDuration":118206,"Delta":297908820},{"NoteNumber":65,"Velocity":32,"Duration":118577,"SoundDuration":118577,"Delta":298027027},{"NoteNumber":68,"Velocity":28,"Duration":129870,"SoundDuration":129870,"Delta":298145604},{"NoteNumber":65,"Velocity":45,"Duration":118819,"SoundDuration":118819,"Delta":298275474},{"NoteNumber":48,"Velocity":27,"Duration":237882,"SoundDuration":237882,"Delta":298275474},{"NoteNumber":68,"Velocity":27,"Duration":119063,"SoundDuration":119063,"Delta":298394293},{"NoteNumber":64,"Velocity":33,"Duration":119192,"SoundDuration":119192,"Delta":298513357},{"NoteNumber":67,"Velocity":27,"Duration":119584,"SoundDuration":119584,"Delta":298632549},{"NoteNumber":64,"Velocity":39,"Duration":117417,"SoundDuration":117417,"Delta":298752134},{"NoteNumber":55,"Velocity":27,"Duration":236943,"SoundDuration":236943,"Delta":298752134},{"NoteNumber":52,"Velocity":22,"Duration":236943,"SoundDuration":236943,"Delta":298752134},{"NoteNumber":67,"Velocity":28,"Duration":119525,"SoundDuration":119525,"Delta":298869552},{"NoteNumber":64,"Velocity":36,"Duration":118625,"SoundDuration":118625,"Delta":298989078},{"NoteNumber":67,"Velocity":29,"Duration":119047,"SoundDuration":119047,"Delta":299107703},{"NoteNumber":65,"Velocity":54,"Duration":267856,"SoundDuration":267856,"Delta":299226751},{"NoteNumber":41,"Velocity":40,"Duration":267856,"SoundDuration":267856,"Delta":299226751},{"NoteNumber":69,"Velocity":45,"Duration":117973,"SoundDuration":117973,"Delta":299494608},{"NoteNumber":72,"Velocity":28,"Duration":118770,"SoundDuration":118770,"Delta":299612581},{"NoteNumber":69,"Velocity":39,"Duration":118773,"SoundDuration":118773,"Delta":299731352},{"NoteNumber":53,"Velocity":22,"Duration":481014,"SoundDuration":481014,"Delta":299731352},{"NoteNumber":65,"Velocity":27,"Duration":481014,"SoundDuration":481014,"Delta":299731352},{"NoteNumber":72,"Velocity":28,"Duration":119590,"SoundDuration":119590,"Delta":299850125},{"NoteNumber":69,"Velocity":38,"Duration":119194,"SoundDuration":119194,"Delta":299969715},{"NoteNumber":72,"Velocity":31,"Duration":123456,"SoundDuration":123456,"Delta":300088910},{"NoteNumber":68,"Velocity":45,"Duration":118814,"SoundDuration":118814,"Delta":300212367},{"NoteNumber":71,"Velocity":30,"Duration":117833,"SoundDuration":117833,"Delta":300331181},{"NoteNumber":69,"Velocity":45,"Duration":117744,"SoundDuration":117744,"Delta":300449015},{"NoteNumber":72,"Velocity":32,"Duration":119011,"SoundDuration":119011,"Delta":300566759},{"NoteNumber":69,"Velocity":39,"Duration":117145,"SoundDuration":117145,"Delta":300685771},{"NoteNumber":65,"Velocity":27,"Duration":484913,"SoundDuration":484913,"Delta":300685771},{"NoteNumber":53,"Velocity":22,"Duration":484913,"SoundDuration":484913,"Delta":300685771},{"NoteNumber":72,"Velocity":27,"Duration":120096,"SoundDuration":120096,"Delta":300802917},{"NoteNumber":69,"Velocity":40,"Duration":118915,"SoundDuration":118915,"Delta":300923014},{"NoteNumber":72,"Velocity":30,"Duration":128755,"SoundDuration":128755,"Delta":301041929},{"NoteNumber":69,"Velocity":45,"Duration":118110,"SoundDuration":118110,"Delta":301170684},{"NoteNumber":75,"Velocity":31,"Duration":118110,"SoundDuration":118110,"Delta":301288794},{"NoteNumber":70,"Velocity":38,"Duration":115966,"SoundDuration":115966,"Delta":301406905},{"NoteNumber":74,"Velocity":30,"Duration":116513,"SoundDuration":116513,"Delta":301522871},{"NoteNumber":70,"Velocity":38,"Duration":115651,"SoundDuration":115651,"Delta":301639384},{"NoteNumber":53,"Velocity":22,"Duration":480243,"SoundDuration":480243,"Delta":301639384},{"NoteNumber":65,"Velocity":27,"Duration":480243,"SoundDuration":480243,"Delta":301639384},{"NoteNumber":74,"Velocity":31,"Duration":116460,"SoundDuration":116460,"Delta":301755036},{"NoteNumber":70,"Velocity":33,"Duration":116551,"SoundDuration":116551,"Delta":301871497},{"NoteNumber":74,"Velocity":28,"Duration":131578,"SoundDuration":131578,"Delta":301988048},{"NoteNumber":74,"Velocity":47,"Duration":115037,"SoundDuration":115037,"Delta":302119627},{"NoteNumber":77,"Velocity":38,"Duration":115170,"SoundDuration":115170,"Delta":302234665},{"NoteNumber":70,"Velocity":45,"Duration":117149,"SoundDuration":117149,"Delta":302349835},{"NoteNumber":74,"Velocity":32,"Duration":115081,"SoundDuration":115081,"Delta":302466985},{"NoteNumber":69,"Velocity":40,"Duration":116523,"SoundDuration":116523,"Delta":302582067},{"NoteNumber":53,"Velocity":22,"Duration":474423,"SoundDuration":474423,"Delta":302582067},{"NoteNumber":65,"Velocity":27,"Duration":474423,"SoundDuration":474423,"Delta":302582067},{"NoteNumber":74,"Velocity":31,"Duration":115965,"SoundDuration":115965,"Delta":302698590},{"NoteNumber":68,"Velocity":37,"Duration":120967,"SoundDuration":120967,"Delta":302814555},{"NoteNumber":74,"Velocity":31,"Duration":120967,"SoundDuration":120967,"Delta":302935523},{"NoteNumber":69,"Velocity":45,"Duration":116056,"SoundDuration":116056,"Delta":303056491},{"NoteNumber":74,"Velocity":30,"Duration":116555,"SoundDuration":116555,"Delta":303178294},{"NoteNumber":69,"Velocity":36,"Duration":116513,"SoundDuration":116513,"Delta":303288968},{"NoteNumber":72,"Velocity":27,"Duration":116561,"SoundDuration":116561,"Delta":303405482},{"NoteNumber":69,"Velocity":38,"Duration":116696,"SoundDuration":116696,"Delta":303522043},{"NoteNumber":53,"Velocity":22,"Duration":466506,"SoundDuration":466506,"Delta":303522043},{"NoteNumber":65,"Velocity":27,"Duration":466529,"SoundDuration":466529,"Delta":303527926},{"NoteNumber":72,"Velocity":31,"Duration":115882,"SoundDuration":115882,"Delta":303638740},{"NoteNumber":69,"Velocity":33,"Duration":116916,"SoundDuration":116916,"Delta":303754622},{"NoteNumber":72,"Velocity":28,"Duration":117011,"SoundDuration":117011,"Delta":303871538},{"NoteNumber":69,"Velocity":47,"Duration":117463,"SoundDuration":117463,"Delta":303988549},{"NoteNumber":46,"Velocity":27,"Duration":235905,"SoundDuration":235905,"Delta":303988549},{"NoteNumber":72,"Velocity":30,"Duration":118441,"SoundDuration":118441,"Delta":304106013},{"NoteNumber":62,"Velocity":35,"Duration":118208,"SoundDuration":118208,"Delta":304224455},{"NoteNumber":67,"Velocity":31,"Duration":118485,"SoundDuration":118485,"Delta":304342663},{"NoteNumber":70,"Velocity":50,"Duration":114503,"SoundDuration":114503,"Delta":304461149},{"NoteNumber":55,"Velocity":22,"Duration":229007,"SoundDuration":229007,"Delta":304461149},{"NoteNumber":58,"Velocity":27,"Duration":229007,"SoundDuration":229007,"Delta":304461149},{"NoteNumber":74,"Velocity":34,"Duration":114503,"SoundDuration":114503,"Delta":304575652},{"NoteNumber":72,"Velocity":43,"Duration":114503,"SoundDuration":114503,"Delta":304690156},{"NoteNumber":70,"Velocity":35,"Duration":129870,"SoundDuration":129870,"Delta":304804660},{"NoteNumber":67,"Velocity":45,"Duration":118577,"SoundDuration":118577,"Delta":304934530},{"NoteNumber":48,"Velocity":27,"Duration":237153,"SoundDuration":237153,"Delta":304934530},{"NoteNumber":70,"Velocity":27,"Duration":118576,"SoundDuration":118576,"Delta":305053107},{"NoteNumber":60,"Velocity":34,"Duration":118577,"SoundDuration":118577,"Delta":305171684},{"NoteNumber":65,"Velocity":27,"Duration":118577,"SoundDuration":118577,"Delta":305290261},{"NoteNumber":69,"Velocity":47,"Duration":114942,"SoundDuration":114942,"Delta":305408838},{"NoteNumber":53,"Velocity":22,"Duration":229885,"SoundDuration":229885,"Delta":305408838},{"NoteNumber":57,"Velocity":27,"Duration":229885,"SoundDuration":229885,"Delta":305408838},{"NoteNumber":72,"Velocity":35,"Duration":114942,"SoundDuration":114942,"Delta":305523781},{"NoteNumber":70,"Velocity":41,"Duration":114942,"SoundDuration":114942,"Delta":305638723},{"NoteNumber":69,"Velocity":36,"Duration":129870,"SoundDuration":129870,"Delta":305753666},{"NoteNumber":66,"Velocity":45,"Duration":119522,"SoundDuration":119522,"Delta":305883536},{"NoteNumber":48,"Velocity":27,"Duration":239043,"SoundDuration":239043,"Delta":305883536},{"NoteNumber":69,"Velocity":27,"Duration":119521,"SoundDuration":119521,"Delta":306003058},{"NoteNumber":60,"Velocity":33,"Duration":119522,"SoundDuration":119522,"Delta":306122580},{"NoteNumber":64,"Velocity":27,"Duration":119522,"SoundDuration":119522,"Delta":306242102},{"NoteNumber":67,"Velocity":46,"Duration":115384,"SoundDuration":115384,"Delta":306361624},{"NoteNumber":58,"Velocity":27,"Duration":230769,"SoundDuration":230769,"Delta":306361624},{"NoteNumber":52,"Velocity":22,"Duration":230769,"SoundDuration":230769,"Delta":306361624},{"NoteNumber":70,"Velocity":36,"Duration":115384,"SoundDuration":115384,"Delta":306477008},{"NoteNumber":69,"Velocity":40,"Duration":115384,"SoundDuration":115384,"Delta":306592393},{"NoteNumber":67,"Velocity":34,"Duration":115384,"SoundDuration":115384,"Delta":306707777},{"NoteNumber":65,"Velocity":50,"Duration":267856,"SoundDuration":267856,"Delta":306823162},{"NoteNumber":53,"Velocity":41,"Duration":267856,"SoundDuration":267856,"Delta":306823162},{"NoteNumber":57,"Velocity":41,"Duration":267856,"SoundDuration":267856,"Delta":306823162},{"NoteNumber":69,"Velocity":45,"Duration":119522,"SoundDuration":119522,"Delta":307091019},{"NoteNumber":60,"Velocity":27,"Duration":119522,"SoundDuration":119522,"Delta":307091019},{"NoteNumber":72,"Velocity":28,"Duration":119522,"SoundDuration":119522,"Delta":307210541},{"NoteNumber":69,"Velocity":39,"Duration":119099,"SoundDuration":119099,"Delta":307330063},{"NoteNumber":60,"Velocity":30,"Duration":119099,"SoundDuration":119099,"Delta":307330063},{"NoteNumber":72,"Velocity":28,"Duration":119665,"SoundDuration":119665,"Delta":307449162},{"NoteNumber":69,"Velocity":38,"Duration":119665,"SoundDuration":119665,"Delta":307568828},{"NoteNumber":60,"Velocity":27,"Duration":119665,"SoundDuration":119665,"Delta":307568828},{"NoteNumber":72,"Velocity":31,"Duration":123456,"SoundDuration":123456,"Delta":307688494},{"NoteNumber":68,"Velocity":45,"Duration":118252,"SoundDuration":118252,"Delta":307811950},{"NoteNumber":61,"Velocity":37,"Duration":237600,"SoundDuration":237600,"Delta":307811950},{"NoteNumber":71,"Velocity":30,"Duration":119348,"SoundDuration":119348,"Delta":307930202},{"NoteNumber":69,"Velocity":45,"Duration":118678,"SoundDuration":118678,"Delta":308049550},{"NoteNumber":60,"Velocity":27,"Duration":236980,"SoundDuration":236980,"Delta":308049550},{"NoteNumber":72,"Velocity":32,"Duration":118301,"SoundDuration":118301,"Delta":308168229},{"NoteNumber":69,"Velocity":39,"Duration":120198,"SoundDuration":120198,"Delta":308286531},{"NoteNumber":60,"Velocity":30,"Duration":120198,"SoundDuration":120198,"Delta":308286531},{"NoteNumber":72,"Velocity":27,"Duration":118439,"SoundDuration":118439,"Delta":308406729},{"NoteNumber":69,"Velocity":40,"Duration":119194,"SoundDuration":119194,"Delta":308525169},{"NoteNumber":60,"Velocity":27,"Duration":119194,"SoundDuration":119194,"Delta":308525169},{"NoteNumber":72,"Velocity":30,"Duration":128755,"SoundDuration":128755,"Delta":308644363},{"NoteNumber":69,"Velocity":45,"Duration":122466,"SoundDuration":122466,"Delta":308773118},{"NoteNumber":48,"Velocity":38,"Duration":239610,"SoundDuration":239610,"Delta":308773118},{"NoteNumber":72,"Velocity":37,"Duration":117143,"SoundDuration":117143,"Delta":308895585},{"NoteNumber":70,"Velocity":44,"Duration":119479,"SoundDuration":119479,"Delta":309012729},{"NoteNumber":60,"Velocity":27,"Duration":119479,"SoundDuration":119479,"Delta":309012729},{"NoteNumber":73,"Velocity":39,"Duration":116465,"SoundDuration":116465,"Delta":309132208},{"NoteNumber":76,"Velocity":52,"Duration":118956,"SoundDuration":118956,"Delta":309248673},{"NoteNumber":60,"Velocity":27,"Duration":118956,"SoundDuration":118956,"Delta":309248673},{"NoteNumber":79,"Velocity":46,"Duration":117100,"SoundDuration":117100,"Delta":309367629},{"NoteNumber":69,"Velocity":44,"Duration":118535,"SoundDuration":118535,"Delta":309484730},{"NoteNumber":60,"Velocity":27,"Duration":118535,"SoundDuration":118535,"Delta":309484730},{"NoteNumber":72,"Velocity":36,"Duration":117555,"SoundDuration":117555,"Delta":309603265},{"NoteNumber":70,"Velocity":48,"Duration":114681,"SoundDuration":114681,"Delta":309720820},{"NoteNumber":48,"Velocity":44,"Duration":231600,"SoundDuration":231600,"Delta":309720820},{"NoteNumber":73,"Velocity":51,"Duration":116918,"SoundDuration":116918,"Delta":309835502},{"NoteNumber":76,"Velocity":55,"Duration":116460,"SoundDuration":116460,"Delta":309952421},{"NoteNumber":60,"Velocity":37,"Duration":116460,"SoundDuration":116460,"Delta":309952421},{"NoteNumber":79,"Velocity":58,"Duration":115652,"SoundDuration":115652,"Delta":310068881},{"NoteNumber":77,"Velocity":61,"Duration":114635,"SoundDuration":114635,"Delta":310184533},{"NoteNumber":60,"Velocity":40,"Duration":114635,"SoundDuration":114635,"Delta":310184533},{"NoteNumber":76,"Velocity":59,"Duration":116871,"SoundDuration":116871,"Delta":310299169},{"NoteNumber":74,"Velocity":57,"Duration":116414,"SoundDuration":116414,"Delta":310416040},{"NoteNumber":60,"Velocity":44,"Duration":116414,"SoundDuration":116414,"Delta":310416040},{"NoteNumber":48,"Velocity":44,"Duration":116414,"SoundDuration":116414,"Delta":310416040},{"NoteNumber":58,"Velocity":44,"Duration":116414,"SoundDuration":116414,"Delta":310416040},{"NoteNumber":76,"Velocity":62,"Duration":125522,"SoundDuration":125522,"Delta":310532455},{"NoteNumber":77,"Velocity":67,"Duration":231659,"SoundDuration":231659,"Delta":310657978},{"NoteNumber":57,"Velocity":48,"Duration":231659,"SoundDuration":231659,"Delta":310657978},{"NoteNumber":60,"Velocity":48,"Duration":231659,"SoundDuration":231659,"Delta":310657978},{"NoteNumber":53,"Velocity":48,"Duration":231659,"SoundDuration":231659,"Delta":310657978},{"NoteNumber":69,"Velocity":51,"Duration":118392,"SoundDuration":118392,"Delta":310889638},{"NoteNumber":60,"Velocity":31,"Duration":118392,"SoundDuration":118392,"Delta":310889638},{"NoteNumber":72,"Velocity":32,"Duration":118779,"SoundDuration":118779,"Delta":311008031},{"NoteNumber":69,"Velocity":44,"Duration":118927,"SoundDuration":118927,"Delta":311126810},{"NoteNumber":60,"Velocity":34,"Duration":118927,"SoundDuration":118927,"Delta":311126810},{"NoteNumber":72,"Velocity":32,"Duration":119489,"SoundDuration":119489,"Delta":311245738},{"NoteNumber":69,"Velocity":43,"Duration":118488,"SoundDuration":118488,"Delta":311365227},{"NoteNumber":60,"Velocity":31,"Duration":118488,"SoundDuration":118488,"Delta":311365227},{"NoteNumber":72,"Velocity":35,"Duration":123456,"SoundDuration":123456,"Delta":311483716},{"NoteNumber":68,"Velocity":51,"Duration":118718,"SoundDuration":118718,"Delta":311607173},{"NoteNumber":61,"Velocity":42,"Duration":237067,"SoundDuration":237067,"Delta":311607173},{"NoteNumber":71,"Velocity":34,"Duration":118349,"SoundDuration":118349,"Delta":311725891},{"NoteNumber":69,"Velocity":51,"Duration":118765,"SoundDuration":118765,"Delta":311844240},{"NoteNumber":60,"Velocity":31,"Duration":118765,"SoundDuration":118765,"Delta":311844240},{"NoteNumber":72,"Velocity":36,"Duration":118640,"SoundDuration":118640,"Delta":311963006},{"NoteNumber":69,"Velocity":44,"Duration":117236,"SoundDuration":117236,"Delta":312081647},{"NoteNumber":60,"Velocity":34,"Duration":117236,"SoundDuration":117236,"Delta":312081647},{"NoteNumber":72,"Velocity":31,"Duration":119006,"SoundDuration":119006,"Delta":312198883},{"NoteNumber":69,"Velocity":46,"Duration":118908,"SoundDuration":118908,"Delta":312317890},{"NoteNumber":63,"Velocity":31,"Duration":118908,"SoundDuration":118908,"Delta":312317890},{"NoteNumber":72,"Velocity":34,"Duration":128755,"SoundDuration":128755,"Delta":312436799},{"NoteNumber":71,"Velocity":51,"Duration":122950,"SoundDuration":122950,"Delta":312565554},{"NoteNumber":50,"Velocity":43,"Duration":239869,"SoundDuration":239869,"Delta":312565554},{"NoteNumber":74,"Velocity":42,"Duration":116918,"SoundDuration":116918,"Delta":312688505},{"NoteNumber":72,"Velocity":50,"Duration":117059,"SoundDuration":117059,"Delta":312805423},{"NoteNumber":62,"Velocity":31,"Duration":117059,"SoundDuration":117059,"Delta":312805423},{"NoteNumber":75,"Velocity":44,"Duration":116933,"SoundDuration":116933,"Delta":312922483},{"NoteNumber":78,"Velocity":59,"Duration":116837,"SoundDuration":116837,"Delta":313039416},{"NoteNumber":62,"Velocity":31,"Duration":116837,"SoundDuration":116837,"Delta":313039416},{"NoteNumber":81,"Velocity":52,"Duration":117240,"SoundDuration":117240,"Delta":313156254},{"NoteNumber":71,"Velocity":50,"Duration":117879,"SoundDuration":117879,"Delta":313273495},{"NoteNumber":62,"Velocity":31,"Duration":117879,"SoundDuration":117879,"Delta":313273495},{"NoteNumber":74,"Velocity":41,"Duration":117187,"SoundDuration":117187,"Delta":313391374},{"NoteNumber":72,"Velocity":55,"Duration":115522,"SoundDuration":115522,"Delta":313508561},{"NoteNumber":50,"Velocity":50,"Duration":230471,"SoundDuration":230471,"Delta":313508561},{"NoteNumber":75,"Velocity":58,"Duration":114949,"SoundDuration":114949,"Delta":313624084},{"NoteNumber":78,"Velocity":63,"Duration":115004,"SoundDuration":115004,"Delta":313739033},{"NoteNumber":62,"Velocity":42,"Duration":115004,"SoundDuration":115004,"Delta":313739033},{"NoteNumber":81,"Velocity":66,"Duration":115720,"SoundDuration":115720,"Delta":313854038},{"NoteNumber":79,"Velocity":70,"Duration":116967,"SoundDuration":116967,"Delta":313969758},{"NoteNumber":62,"Velocity":46,"Duration":116967,"SoundDuration":116967,"Delta":313969758},{"NoteNumber":78,"Velocity":67,"Duration":114681,"SoundDuration":114681,"Delta":314086726},{"NoteNumber":76,"Velocity":65,"Duration":115830,"SoundDuration":115830,"Delta":314201408},{"NoteNumber":60,"Velocity":50,"Duration":115830,"SoundDuration":115830,"Delta":314201408},{"NoteNumber":50,"Velocity":50,"Duration":115830,"SoundDuration":115830,"Delta":314201408},{"NoteNumber":62,"Velocity":50,"Duration":115830,"SoundDuration":115830,"Delta":314201408},{"NoteNumber":78,"Velocity":71,"Duration":125522,"SoundDuration":125522,"Delta":314317238},{"NoteNumber":79,"Velocity":77,"Duration":231659,"SoundDuration":231659,"Delta":314442761},{"NoteNumber":55,"Velocity":55,"Duration":231659,"SoundDuration":231659,"Delta":314442761},{"NoteNumber":62,"Velocity":55,"Duration":231659,"SoundDuration":231659,"Delta":314442761},{"NoteNumber":58,"Velocity":55,"Duration":231659,"SoundDuration":231659,"Delta":314442761},{"NoteNumber":70,"Velocity":51,"Duration":119190,"SoundDuration":119190,"Delta":314674421},{"NoteNumber":62,"Velocity":31,"Duration":119190,"SoundDuration":119190,"Delta":314674421},{"NoteNumber":74,"Velocity":32,"Duration":118865,"SoundDuration":118865,"Delta":314793611},{"NoteNumber":70,"Velocity":44,"Duration":118030,"SoundDuration":118030,"Delta":314912477},{"NoteNumber":62,"Velocity":34,"Duration":118030,"SoundDuration":118030,"Delta":314912477},{"NoteNumber":74,"Velocity":32,"Duration":119812,"SoundDuration":119812,"Delta":315030508},{"NoteNumber":70,"Velocity":43,"Duration":119237,"SoundDuration":119237,"Delta":315150321},{"NoteNumber":62,"Velocity":31,"Duration":119237,"SoundDuration":119237,"Delta":315150321},{"NoteNumber":74,"Velocity":35,"Duration":123456,"SoundDuration":123456,"Delta":315269558},{"NoteNumber":69,"Velocity":51,"Duration":118349,"SoundDuration":118349,"Delta":315393015},{"NoteNumber":63,"Velocity":42,"Duration":237971,"SoundDuration":237971,"Delta":315393015},{"NoteNumber":73,"Velocity":34,"Duration":119622,"SoundDuration":119622,"Delta":315511364},{"NoteNumber":70,"Velocity":51,"Duration":117700,"SoundDuration":117700,"Delta":315630987},{"NoteNumber":62,"Velocity":31,"Duration":117700,"SoundDuration":117700,"Delta":315630987},{"NoteNumber":74,"Velocity":36,"Duration":120481,"SoundDuration":120481,"Delta":315748687},{"NoteNumber":70,"Velocity":44,"Duration":119008,"SoundDuration":119008,"Delta":315869169},{"NoteNumber":62,"Velocity":34,"Duration":119008,"SoundDuration":119008,"Delta":315869169},{"NoteNumber":74,"Velocity":31,"Duration":119286,"SoundDuration":119286,"Delta":315988178},{"NoteNumber":70,"Velocity":46,"Duration":118110,"SoundDuration":118110,"Delta":316107464},{"NoteNumber":62,"Velocity":31,"Duration":118110,"SoundDuration":118110,"Delta":316107464},{"NoteNumber":74,"Velocity":34,"Duration":128755,"SoundDuration":128755,"Delta":316225575},{"NoteNumber":79,"Velocity":72,"Duration":115830,"SoundDuration":115830,"Delta":316354330},{"NoteNumber":52,"Velocity":49,"Duration":954801,"SoundDuration":954801,"Delta":316354330},{"NoteNumber":70,"Velocity":35,"Duration":118486,"SoundDuration":118486,"Delta":316470160},{"NoteNumber":73,"Velocity":46,"Duration":119622,"SoundDuration":119622,"Delta":316588646},{"NoteNumber":61,"Velocity":31,"Duration":238961,"SoundDuration":238961,"Delta":316588646},{"NoteNumber":58,"Velocity":31,"Duration":720484,"SoundDuration":720484,"Delta":316588646},{"NoteNumber":70,"Velocity":32,"Duration":119339,"SoundDuration":119339,"Delta":316708268},{"NoteNumber":72,"Velocity":44,"Duration":119910,"SoundDuration":119910,"Delta":316827608},{"NoteNumber":60,"Velocity":34,"Duration":238544,"SoundDuration":238544,"Delta":316827608},{"NoteNumber":70,"Velocity":32,"Duration":118634,"SoundDuration":118634,"Delta":316947518},{"NoteNumber":73,"Velocity":43,"Duration":119522,"SoundDuration":119522,"Delta":317066152},{"NoteNumber":61,"Velocity":31,"Duration":242978,"SoundDuration":242978,"Delta":317066152},{"NoteNumber":70,"Velocity":35,"Duration":123456,"SoundDuration":123456,"Delta":317185674},{"NoteNumber":77,"Velocity":67,"Duration":116279,"SoundDuration":116279,"Delta":317309131},{"NoteNumber":53,"Velocity":50,"Duration":958786,"SoundDuration":958786,"Delta":317309131},{"NoteNumber":69,"Velocity":34,"Duration":118718,"SoundDuration":118718,"Delta":317425410},{"NoteNumber":74,"Velocity":45,"Duration":118774,"SoundDuration":118774,"Delta":317544129},{"NoteNumber":57,"Velocity":31,"Duration":723789,"SoundDuration":723789,"Delta":317544129},{"NoteNumber":62,"Velocity":31,"Duration":237352,"SoundDuration":237352,"Delta":317544129},{"NoteNumber":69,"Velocity":36,"Duration":118578,"SoundDuration":118578,"Delta":317662903},{"NoteNumber":72,"Velocity":44,"Duration":119482,"SoundDuration":119482,"Delta":317781481},{"NoteNumber":60,"Velocity":34,"Duration":238015,"SoundDuration":238015,"Delta":317781481},{"NoteNumber":69,"Velocity":31,"Duration":118533,"SoundDuration":118533,"Delta":317900964},{"NoteNumber":77,"Velocity":63,"Duration":119665,"SoundDuration":119665,"Delta":318019497},{"NoteNumber":65,"Velocity":31,"Duration":248420,"SoundDuration":248420,"Delta":318019497},{"NoteNumber":69,"Velocity":34,"Duration":128755,"SoundDuration":128755,"Delta":318139163},{"NoteNumber":79,"Velocity":61,"Duration":115830,"SoundDuration":115830,"Delta":318267918},{"NoteNumber":82,"Velocity":72,"Duration":115830,"SoundDuration":115830,"Delta":318267918},{"NoteNumber":52,"Velocity":49,"Duration":953046,"SoundDuration":953046,"Delta":318267918},{"NoteNumber":70,"Velocity":35,"Duration":118438,"SoundDuration":118438,"Delta":318383748},{"NoteNumber":73,"Velocity":46,"Duration":119761,"SoundDuration":119761,"Delta":318502186},{"NoteNumber":61,"Velocity":31,"Duration":237921,"SoundDuration":237921,"Delta":318502186},{"NoteNumber":58,"Velocity":31,"Duration":718778,"SoundDuration":718778,"Delta":318502186},{"NoteNumber":70,"Velocity":32,"Duration":118159,"SoundDuration":118159,"Delta":318621947},{"NoteNumber":72,"Velocity":44,"Duration":119238,"SoundDuration":119238,"Delta":318740107},{"NoteNumber":60,"Velocity":34,"Duration":237582,"SoundDuration":237582,"Delta":318740107},{"NoteNumber":70,"Velocity":32,"Duration":118343,"SoundDuration":118343,"Delta":318859345},{"NoteNumber":73,"Velocity":43,"Duration":119818,"SoundDuration":119818,"Delta":318977689},{"NoteNumber":61,"Velocity":31,"Duration":243275,"SoundDuration":243275,"Delta":318977689},{"NoteNumber":70,"Velocity":35,"Duration":123456,"SoundDuration":123456,"Delta":319097508},{"NoteNumber":81,"Velocity":67,"Duration":116279,"SoundDuration":116279,"Delta":319220965},{"NoteNumber":77,"Velocity":56,"Duration":116279,"SoundDuration":116279,"Delta":319220965},{"NoteNumber":53,"Velocity":50,"Duration":959124,"SoundDuration":959124,"Delta":319220965},{"NoteNumber":69,"Velocity":34,"Duration":118534,"SoundDuration":118534,"Delta":319337244},{"NoteNumber":74,"Velocity":45,"Duration":119191,"SoundDuration":119191,"Delta":319455778},{"NoteNumber":62,"Velocity":31,"Duration":237773,"SoundDuration":237773,"Delta":319455778},{"NoteNumber":57,"Velocity":31,"Duration":724310,"SoundDuration":724310,"Delta":319455778},{"NoteNumber":69,"Velocity":36,"Duration":118582,"SoundDuration":118582,"Delta":319574970},{"NoteNumber":72,"Velocity":44,"Duration":119820,"SoundDuration":119820,"Delta":319693552},{"NoteNumber":60,"Velocity":34,"Duration":238733,"SoundDuration":238733,"Delta":319693552},{"NoteNumber":69,"Velocity":31,"Duration":118912,"SoundDuration":118912,"Delta":319813373},{"NoteNumber":77,"Velocity":63,"Duration":119048,"SoundDuration":119048,"Delta":319932285},{"NoteNumber":65,"Velocity":31,"Duration":247803,"SoundDuration":247803,"Delta":319932285},{"NoteNumber":69,"Velocity":34,"Duration":128755,"SoundDuration":128755,"Delta":320051334},{"NoteNumber":81,"Velocity":70,"Duration":126242,"SoundDuration":126242,"Delta":320180089},{"NoteNumber":46,"Velocity":60,"Duration":126242,"SoundDuration":126242,"Delta":320180089},{"NoteNumber":84,"Velocity":52,"Duration":127836,"SoundDuration":127836,"Delta":320306332},{"NoteNumber":74,"Velocity":57,"Duration":127934,"SoundDuration":127934,"Delta":320434169},{"NoteNumber":62,"Velocity":53,"Duration":494122,"SoundDuration":494122,"Delta":320434169},{"NoteNumber":58,"Velocity":53,"Duration":494122,"SoundDuration":494122,"Delta":320434169},{"NoteNumber":79,"Velocity":53,"Duration":128260,"SoundDuration":128260,"Delta":320562103},{"NoteNumber":82,"Velocity":62,"Duration":118954,"SoundDuration":118954,"Delta":320690363},{"NoteNumber":86,"Velocity":69,"Duration":118974,"SoundDuration":118974,"Delta":320809317},{"NoteNumber":84,"Velocity":57,"Duration":119296,"SoundDuration":119296,"Delta":320928292},{"NoteNumber":58,"Velocity":44,"Duration":239491,"SoundDuration":239491,"Delta":320928292},{"NoteNumber":62,"Velocity":44,"Duration":239491,"SoundDuration":239491,"Delta":320928292},{"NoteNumber":82,"Velocity":57,"Duration":120194,"SoundDuration":120194,"Delta":321047588},{"NoteNumber":79,"Velocity":63,"Duration":128205,"SoundDuration":128205,"Delta":321167783},{"NoteNumber":48,"Velocity":60,"Duration":128205,"SoundDuration":128205,"Delta":321167783},{"NoteNumber":82,"Velocity":53,"Duration":128205,"SoundDuration":128205,"Delta":321295988},{"NoteNumber":72,"Velocity":53,"Duration":119047,"SoundDuration":119047,"Delta":321424193},{"NoteNumber":60,"Velocity":52,"Duration":475632,"SoundDuration":475632,"Delta":321424193},{"NoteNumber":57,"Velocity":52,"Duration":475632,"SoundDuration":475632,"Delta":321424193},{"NoteNumber":77,"Velocity":50,"Duration":119047,"SoundDuration":119047,"Delta":321543241},{"NoteNumber":81,"Velocity":62,"Duration":118626,"SoundDuration":118626,"Delta":321662288},{"NoteNumber":84,"Velocity":67,"Duration":118910,"SoundDuration":118910,"Delta":321780915},{"NoteNumber":82,"Velocity":53,"Duration":118576,"SoundDuration":118576,"Delta":321899825},{"NoteNumber":57,"Velocity":45,"Duration":247332,"SoundDuration":247332,"Delta":321899825},{"NoteNumber":60,"Velocity":45,"Duration":247332,"SoundDuration":247332,"Delta":321899825},{"NoteNumber":81,"Velocity":49,"Duration":128755,"SoundDuration":128755,"Delta":322018402},{"NoteNumber":78,"Velocity":66,"Duration":128755,"SoundDuration":128755,"Delta":322147158},{"NoteNumber":48,"Velocity":60,"Duration":128755,"SoundDuration":128755,"Delta":322147158},{"NoteNumber":81,"Velocity":47,"Duration":128755,"SoundDuration":128755,"Delta":322275913},{"NoteNumber":72,"Velocity":53,"Duration":120000,"SoundDuration":120000,"Delta":322404668},{"NoteNumber":52,"Velocity":46,"Duration":480000,"SoundDuration":480000,"Delta":322404668},{"NoteNumber":58,"Velocity":46,"Duration":957154,"SoundDuration":957154,"Delta":322404668},{"NoteNumber":60,"Velocity":46,"Duration":957154,"SoundDuration":957154,"Delta":322404668},{"NoteNumber":76,"Velocity":50,"Duration":120000,"SoundDuration":120000,"Delta":322524668},{"NoteNumber":79,"Velocity":61,"Duration":120000,"SoundDuration":120000,"Delta":322644668},{"NoteNumber":82,"Velocity":66,"Duration":120000,"SoundDuration":120000,"Delta":322764668},{"NoteNumber":81,"Velocity":53,"Duration":120000,"SoundDuration":120000,"Delta":322884668},{"NoteNumber":53,"Velocity":46,"Duration":240000,"SoundDuration":240000,"Delta":322884668},{"NoteNumber":79,"Velocity":49,"Duration":120000,"SoundDuration":120000,"Delta":323004668},{"NoteNumber":77,"Velocity":67,"Duration":118577,"SoundDuration":118577,"Delta":323124668},{"NoteNumber":55,"Velocity":46,"Duration":237153,"SoundDuration":237153,"Delta":323124668},{"NoteNumber":76,"Velocity":57,"Duration":118576,"SoundDuration":118576,"Delta":323243245},{"NoteNumber":74,"Velocity":64,"Duration":118577,"SoundDuration":118577,"Delta":323361822},{"NoteNumber":53,"Velocity":47,"Duration":118577,"SoundDuration":118577,"Delta":323361822},{"NoteNumber":60,"Velocity":47,"Duration":118577,"SoundDuration":118577,"Delta":323361822},{"NoteNumber":58,"Velocity":47,"Duration":118577,"SoundDuration":118577,"Delta":323361822},{"NoteNumber":73,"Velocity":65,"Duration":118510,"SoundDuration":118510,"Delta":323480399},{"NoteNumber":72,"Velocity":67,"Duration":119046,"SoundDuration":119046,"Delta":323598910},{"NoteNumber":58,"Velocity":51,"Duration":119046,"SoundDuration":119046,"Delta":323598910},{"NoteNumber":52,"Velocity":51,"Duration":119046,"SoundDuration":119046,"Delta":323598910},{"NoteNumber":60,"Velocity":51,"Duration":119046,"SoundDuration":119046,"Delta":323598910},{"NoteNumber":70,"Velocity":68,"Duration":121044,"SoundDuration":121044,"Delta":323717957},{"NoteNumber":69,"Velocity":69,"Duration":123114,"SoundDuration":123114,"Delta":323839001},{"NoteNumber":60,"Velocity":55,"Duration":123114,"SoundDuration":123114,"Delta":323839001},{"NoteNumber":58,"Velocity":55,"Duration":123114,"SoundDuration":123114,"Delta":323839001},{"NoteNumber":48,"Velocity":55,"Duration":123114,"SoundDuration":123114,"Delta":323839001},{"NoteNumber":67,"Velocity":71,"Duration":125326,"SoundDuration":125326,"Delta":323962115},{"NoteNumber":65,"Velocity":75,"Duration":253164,"SoundDuration":253164,"Delta":324087442},{"NoteNumber":53,"Velocity":59,"Duration":253164,"SoundDuration":253164,"Delta":324087442},{"NoteNumber":60,"Velocity":59,"Duration":253164,"SoundDuration":253164,"Delta":324087442},{"NoteNumber":57,"Velocity":59,"Duration":253164,"SoundDuration":253164,"Delta":324087442},{"NoteNumber":53,"Velocity":72,"Duration":120481,"SoundDuration":120481,"Delta":324340606},{"NoteNumber":41,"Velocity":66,"Duration":120481,"SoundDuration":120481,"Delta":324340606},{"NoteNumber":53,"Velocity":72,"Duration":120481,"SoundDuration":120481,"Delta":324581570},{"NoteNumber":41,"Velocity":66,"Duration":120481,"SoundDuration":120481,"Delta":324581570},{"NoteNumber":53,"Velocity":72,"Duration":131004,"SoundDuration":131004,"Delta":324822534},{"NoteNumber":41,"Velocity":66,"Duration":131004,"SoundDuration":131004,"Delta":324822534},{"NoteNumber":52,"Velocity":78,"Duration":240964,"SoundDuration":240964,"Delta":325084543},{"NoteNumber":40,"Velocity":69,"Duration":240964,"SoundDuration":240964,"Delta":325084543},{"NoteNumber":53,"Velocity":69,"Duration":120481,"SoundDuration":120481,"Delta":325325507},{"NoteNumber":41,"Velocity":65,"Duration":120481,"SoundDuration":120481,"Delta":325325507},{"NoteNumber":53,"Velocity":69,"Duration":120482,"SoundDuration":120482,"Delta":325566471},{"NoteNumber":41,"Velocity":65,"Duration":120482,"SoundDuration":120482,"Delta":325566471},{"NoteNumber":53,"Velocity":69,"Duration":126050,"SoundDuration":126050,"Delta":325807435},{"NoteNumber":41,"Velocity":65,"Duration":126050,"SoundDuration":126050,"Delta":325807435},{"NoteNumber":54,"Velocity":72,"Duration":358565,"SoundDuration":358565,"Delta":326059536},{"NoteNumber":42,"Velocity":68,"Duration":358565,"SoundDuration":358565,"Delta":326059536},{"NoteNumber":55,"Velocity":64,"Duration":59760,"SoundDuration":59760,"Delta":326418102},{"NoteNumber":43,"Velocity":60,"Duration":59760,"SoundDuration":59760,"Delta":326418102},{"NoteNumber":57,"Velocity":59,"Duration":59761,"SoundDuration":59761,"Delta":326477863},{"NoteNumber":45,"Velocity":56,"Duration":59761,"SoundDuration":59761,"Delta":326477863},{"NoteNumber":55,"Velocity":72,"Duration":358565,"SoundDuration":358565,"Delta":326537624},{"NoteNumber":43,"Velocity":68,"Duration":358565,"SoundDuration":358565,"Delta":326537624},{"NoteNumber":57,"Velocity":65,"Duration":59760,"SoundDuration":59760,"Delta":326896190},{"NoteNumber":45,"Velocity":62,"Duration":59760,"SoundDuration":59760,"Delta":326896190},{"NoteNumber":58,"Velocity":62,"Duration":58310,"SoundDuration":58310,"Delta":326955951},{"NoteNumber":46,"Velocity":58,"Duration":58310,"SoundDuration":58310,"Delta":326955951},{"NoteNumber":60,"Velocity":72,"Duration":114715,"SoundDuration":114715,"Delta":327014262},{"NoteNumber":48,"Velocity":68,"Duration":114715,"SoundDuration":114715,"Delta":327014262},{"NoteNumber":64,"Velocity":70,"Duration":113622,"SoundDuration":113622,"Delta":327243169},{"NoteNumber":58,"Velocity":66,"Duration":226695,"SoundDuration":226695,"Delta":327243169},{"NoteNumber":55,"Velocity":56,"Duration":226695,"SoundDuration":226695,"Delta":327243169},{"NoteNumber":48,"Velocity":56,"Duration":226695,"SoundDuration":226695,"Delta":327243169},{"NoteNumber":67,"Velocity":70,"Duration":113072,"SoundDuration":113072,"Delta":327356792},{"NoteNumber":72,"Velocity":67,"Duration":112563,"SoundDuration":112563,"Delta":327469864},{"NoteNumber":55,"Velocity":56,"Duration":225391,"SoundDuration":225391,"Delta":327469864},{"NoteNumber":58,"Velocity":66,"Duration":225391,"SoundDuration":225391,"Delta":327469864},{"NoteNumber":48,"Velocity":56,"Duration":225391,"SoundDuration":225391,"Delta":327469864},{"NoteNumber":76,"Velocity":70,"Duration":112828,"SoundDuration":112828,"Delta":327582428},{"NoteNumber":79,"Velocity":73,"Duration":115431,"SoundDuration":115431,"Delta":327695256},{"NoteNumber":48,"Velocity":56,"Duration":233702,"SoundDuration":233702,"Delta":327695256},{"NoteNumber":55,"Velocity":56,"Duration":233702,"SoundDuration":233702,"Delta":327695256},{"NoteNumber":58,"Velocity":66,"Duration":233702,"SoundDuration":233702,"Delta":327695256},{"NoteNumber":84,"Velocity":75,"Duration":118271,"SoundDuration":118271,"Delta":327810687},{"NoteNumber":77,"Velocity":78,"Duration":238094,"SoundDuration":238094,"Delta":327928959},{"NoteNumber":53,"Velocity":61,"Duration":238094,"SoundDuration":238094,"Delta":327928959},{"NoteNumber":57,"Velocity":72,"Duration":238094,"SoundDuration":238094,"Delta":327928959},{"NoteNumber":53,"Velocity":72,"Duration":120481,"SoundDuration":120481,"Delta":328167054},{"NoteNumber":41,"Velocity":66,"Duration":120481,"SoundDuration":120481,"Delta":328167054},{"NoteNumber":53,"Velocity":72,"Duration":120481,"SoundDuration":120481,"Delta":328408018},{"NoteNumber":41,"Velocity":66,"Duration":120481,"SoundDuration":120481,"Delta":328408018},{"NoteNumber":53,"Velocity":72,"Duration":131004,"SoundDuration":131004,"Delta":328648982},{"NoteNumber":41,"Velocity":66,"Duration":131004,"SoundDuration":131004,"Delta":328648982},{"NoteNumber":52,"Velocity":78,"Duration":240964,"SoundDuration":240964,"Delta":328910990},{"NoteNumber":40,"Velocity":69,"Duration":240964,"SoundDuration":240964,"Delta":328910990},{"NoteNumber":53,"Velocity":69,"Duration":120481,"SoundDuration":120481,"Delta":329151954},{"NoteNumber":41,"Velocity":65,"Duration":120481,"SoundDuration":120481,"Delta":329151954},{"NoteNumber":53,"Velocity":69,"Duration":120482,"SoundDuration":120482,"Delta":329392918},{"NoteNumber":41,"Velocity":65,"Duration":120482,"SoundDuration":120482,"Delta":329392918},{"NoteNumber":53,"Velocity":69,"Duration":126050,"SoundDuration":126050,"Delta":329633882},{"NoteNumber":41,"Velocity":65,"Duration":126050,"SoundDuration":126050,"Delta":329633882},{"NoteNumber":54,"Velocity":72,"Duration":358565,"SoundDuration":358565,"Delta":329885983},{"NoteNumber":42,"Velocity":68,"Duration":358565,"SoundDuration":358565,"Delta":329885983},{"NoteNumber":55,"Velocity":64,"Duration":59760,"SoundDuration":59760,"Delta":330244549},{"NoteNumber":43,"Velocity":60,"Duration":59760,"SoundDuration":59760,"Delta":330244549},{"NoteNumber":57,"Velocity":59,"Duration":59761,"SoundDuration":59761,"Delta":330304310},{"NoteNumber":45,"Velocity":55,"Duration":59761,"SoundDuration":59761,"Delta":330304310},{"NoteNumber":55,"Velocity":72,"Duration":358565,"SoundDuration":358565,"Delta":330364071},{"NoteNumber":43,"Velocity":68,"Duration":358565,"SoundDuration":358565,"Delta":330364071},{"NoteNumber":57,"Velocity":65,"Duration":59760,"SoundDuration":59760,"Delta":330722637},{"NoteNumber":45,"Velocity":62,"Duration":59760,"SoundDuration":59760,"Delta":330722637},{"NoteNumber":58,"Velocity":60,"Duration":58310,"SoundDuration":58310,"Delta":330782398},{"NoteNumber":46,"Velocity":57,"Duration":58310,"SoundDuration":58310,"Delta":330782398},{"NoteNumber":60,"Velocity":72,"Duration":114715,"SoundDuration":114715,"Delta":330840709},{"NoteNumber":48,"Velocity":68,"Duration":114715,"SoundDuration":114715,"Delta":330840709},{"NoteNumber":61,"Velocity":70,"Duration":113622,"SoundDuration":113622,"Delta":331069617},{"NoteNumber":55,"Velocity":66,"Duration":226695,"SoundDuration":226695,"Delta":331069617},{"NoteNumber":52,"Velocity":56,"Duration":226695,"SoundDuration":226695,"Delta":331069617},{"NoteNumber":45,"Velocity":56,"Duration":226695,"SoundDuration":226695,"Delta":331069617},{"NoteNumber":64,"Velocity":70,"Duration":113072,"SoundDuration":113072,"Delta":331183239},{"NoteNumber":69,"Velocity":67,"Duration":112563,"SoundDuration":112563,"Delta":331296312},{"NoteNumber":55,"Velocity":66,"Duration":225391,"SoundDuration":225391,"Delta":331296312},{"NoteNumber":45,"Velocity":56,"Duration":225391,"SoundDuration":225391,"Delta":331296312},{"NoteNumber":52,"Velocity":56,"Duration":225391,"SoundDuration":225391,"Delta":331296312},{"NoteNumber":73,"Velocity":70,"Duration":112828,"SoundDuration":112828,"Delta":331408875},{"NoteNumber":76,"Velocity":73,"Duration":115431,"SoundDuration":115431,"Delta":331521704},{"NoteNumber":55,"Velocity":66,"Duration":233702,"SoundDuration":233702,"Delta":331521704},{"NoteNumber":45,"Velocity":56,"Duration":233702,"SoundDuration":233702,"Delta":331521704},{"NoteNumber":52,"Velocity":56,"Duration":233702,"SoundDuration":233702,"Delta":331521704},{"NoteNumber":81,"Velocity":75,"Duration":118271,"SoundDuration":118271,"Delta":331637135},{"NoteNumber":74,"Velocity":78,"Duration":238094,"SoundDuration":238094,"Delta":331755406},{"NoteNumber":50,"Velocity":61,"Duration":238094,"SoundDuration":238094,"Delta":331755406},{"NoteNumber":53,"Velocity":72,"Duration":238094,"SoundDuration":238094,"Delta":331755406},{"NoteNumber":62,"Velocity":72,"Duration":120481,"SoundDuration":120481,"Delta":331993501},{"NoteNumber":53,"Velocity":61,"Duration":120481,"SoundDuration":120481,"Delta":331993501},{"NoteNumber":46,"Velocity":56,"Duration":120481,"SoundDuration":120481,"Delta":331993501},{"NoteNumber":50,"Velocity":66,"Duration":120481,"SoundDuration":120481,"Delta":331993501},{"NoteNumber":53,"Velocity":61,"Duration":120481,"SoundDuration":120481,"Delta":332234465},{"NoteNumber":62,"Velocity":72,"Duration":120481,"SoundDuration":120481,"Delta":332234465},{"NoteNumber":50,"Velocity":66,"Duration":120481,"SoundDuration":120481,"Delta":332234465},{"NoteNumber":46,"Velocity":56,"Duration":120481,"SoundDuration":120481,"Delta":332234465},{"NoteNumber":53,"Velocity":61,"Duration":125522,"SoundDuration":125522,"Delta":332475429},{"NoteNumber":62,"Velocity":72,"Duration":125522,"SoundDuration":125522,"Delta":332475429},{"NoteNumber":50,"Velocity":66,"Duration":125522,"SoundDuration":125522,"Delta":332475429},{"NoteNumber":46,"Velocity":56,"Duration":125522,"SoundDuration":125522,"Delta":332475429},{"NoteNumber":53,"Velocity":61,"Duration":240964,"SoundDuration":240964,"Delta":332726475},{"NoteNumber":61,"Velocity":78,"Duration":240964,"SoundDuration":240964,"Delta":332726475},{"NoteNumber":45,"Velocity":58,"Duration":240964,"SoundDuration":240964,"Delta":332726475},{"NoteNumber":49,"Velocity":69,"Duration":240964,"SoundDuration":240964,"Delta":332726475},{"NoteNumber":53,"Velocity":58,"Duration":120481,"SoundDuration":120481,"Delta":332967439},{"NoteNumber":62,"Velocity":69,"Duration":120481,"SoundDuration":120481,"Delta":332967439},{"NoteNumber":50,"Velocity":65,"Duration":120481,"SoundDuration":120481,"Delta":332967439},{"NoteNumber":46,"Velocity":55,"Duration":120481,"SoundDuration":120481,"Delta":332967439},{"NoteNumber":62,"Velocity":69,"Duration":120482,"SoundDuration":120482,"Delta":333208403},{"NoteNumber":53,"Velocity":58,"Duration":120482,"SoundDuration":120482,"Delta":333208403},{"NoteNumber":50,"Velocity":65,"Duration":120482,"SoundDuration":120482,"Delta":333208403},{"NoteNumber":46,"Velocity":55,"Duration":120482,"SoundDuration":120482,"Delta":333208403},{"NoteNumber":53,"Velocity":58,"Duration":126050,"SoundDuration":126050,"Delta":333449367},{"NoteNumber":62,"Velocity":69,"Duration":126050,"SoundDuration":126050,"Delta":333449367},{"NoteNumber":46,"Velocity":55,"Duration":126050,"SoundDuration":126050,"Delta":333449367},{"NoteNumber":50,"Velocity":65,"Duration":126050,"SoundDuration":126050,"Delta":333449367},{"NoteNumber":62,"Velocity":72,"Duration":358565,"SoundDuration":358565,"Delta":333701468},{"NoteNumber":56,"Velocity":61,"Duration":478088,"SoundDuration":478088,"Delta":333701468},{"NoteNumber":47,"Velocity":57,"Duration":478088,"SoundDuration":478088,"Delta":333701468},{"NoteNumber":50,"Velocity":68,"Duration":358565,"SoundDuration":358565,"Delta":333701468},{"NoteNumber":63,"Velocity":64,"Duration":59760,"SoundDuration":59760,"Delta":334060034},{"NoteNumber":51,"Velocity":60,"Duration":59760,"SoundDuration":59760,"Delta":334060034},{"NoteNumber":65,"Velocity":59,"Duration":59761,"SoundDuration":59761,"Delta":334119795},{"NoteNumber":53,"Velocity":56,"Duration":59761,"SoundDuration":59761,"Delta":334119795},{"NoteNumber":63,"Velocity":72,"Duration":358565,"SoundDuration":358565,"Delta":334179556},{"NoteNumber":55,"Velocity":61,"Duration":239043,"SoundDuration":239043,"Delta":334179556},{"NoteNumber":48,"Velocity":57,"Duration":476637,"SoundDuration":476637,"Delta":334179556},{"NoteNumber":51,"Velocity":68,"Duration":358565,"SoundDuration":358565,"Delta":334179556},{"NoteNumber":65,"Velocity":65,"Duration":59760,"SoundDuration":59760,"Delta":334538122},{"NoteNumber":53,"Velocity":62,"Duration":59760,"SoundDuration":59760,"Delta":334538122},{"NoteNumber":66,"Velocity":61,"Duration":58310,"SoundDuration":58310,"Delta":334597883},{"NoteNumber":54,"Velocity":58,"Duration":58310,"SoundDuration":58310,"Delta":334597883},{"NoteNumber":65,"Velocity":72,"Duration":114715,"SoundDuration":114715,"Delta":334656194},{"NoteNumber":63,"Velocity":61,"Duration":114715,"SoundDuration":114715,"Delta":334656194},{"NoteNumber":57,"Velocity":61,"Duration":114715,"SoundDuration":114715,"Delta":334656194},{"NoteNumber":41,"Velocity":57,"Duration":114715,"SoundDuration":114715,"Delta":334656194},{"NoteNumber":48,"Velocity":68,"Duration":114715,"SoundDuration":114715,"Delta":334656194},{"NoteNumber":69,"Velocity":70,"Duration":113622,"SoundDuration":113622,"Delta":334885101},{"NoteNumber":60,"Velocity":56,"Duration":226695,"SoundDuration":226695,"Delta":334885101},{"NoteNumber":53,"Velocity":56,"Duration":226695,"SoundDuration":226695,"Delta":334885101},{"NoteNumber":63,"Velocity":66,"Duration":226695,"SoundDuration":226695,"Delta":334885101},{"NoteNumber":72,"Velocity":70,"Duration":113072,"SoundDuration":113072,"Delta":334998724},{"NoteNumber":77,"Velocity":67,"Duration":112563,"SoundDuration":112563,"Delta":335111797},{"NoteNumber":60,"Velocity":56,"Duration":225391,"SoundDuration":225391,"Delta":335111797},{"NoteNumber":63,"Velocity":66,"Duration":225391,"SoundDuration":225391,"Delta":335111797},{"NoteNumber":53,"Velocity":56,"Duration":225391,"SoundDuration":225391,"Delta":335111797},{"NoteNumber":81,"Velocity":70,"Duration":112828,"SoundDuration":112828,"Delta":335224360},{"NoteNumber":84,"Velocity":73,"Duration":115431,"SoundDuration":115431,"Delta":335337188},{"NoteNumber":53,"Velocity":56,"Duration":233702,"SoundDuration":233702,"Delta":335337188},{"NoteNumber":60,"Velocity":56,"Duration":233702,"SoundDuration":233702,"Delta":335337188},{"NoteNumber":63,"Velocity":66,"Duration":233702,"SoundDuration":233702,"Delta":335337188},{"NoteNumber":89,"Velocity":75,"Duration":118271,"SoundDuration":118271,"Delta":335452619},{"NoteNumber":82,"Velocity":78,"Duration":238094,"SoundDuration":238094,"Delta":335570891},{"NoteNumber":58,"Velocity":61,"Duration":238094,"SoundDuration":238094,"Delta":335570891},{"NoteNumber":62,"Velocity":72,"Duration":238094,"SoundDuration":238094,"Delta":335570891},{"NoteNumber":62,"Velocity":72,"Duration":120481,"SoundDuration":120481,"Delta":335808986},{"NoteNumber":53,"Velocity":61,"Duration":120481,"SoundDuration":120481,"Delta":335808986},{"NoteNumber":50,"Velocity":66,"Duration":120481,"SoundDuration":120481,"Delta":335808986},{"NoteNumber":46,"Velocity":56,"Duration":120481,"SoundDuration":120481,"Delta":335808986},{"NoteNumber":53,"Velocity":61,"Duration":120481,"SoundDuration":120481,"Delta":336049950},{"NoteNumber":62,"Velocity":72,"Duration":120481,"SoundDuration":120481,"Delta":336049950},{"NoteNumber":46,"Velocity":56,"Duration":120481,"SoundDuration":120481,"Delta":336049950},{"NoteNumber":50,"Velocity":66,"Duration":120481,"SoundDuration":120481,"Delta":336049950},{"NoteNumber":53,"Velocity":61,"Duration":123456,"SoundDuration":123456,"Delta":336290914},{"NoteNumber":62,"Velocity":72,"Duration":123456,"SoundDuration":123456,"Delta":336290914},{"NoteNumber":46,"Velocity":56,"Duration":123456,"SoundDuration":123456,"Delta":336290914},{"NoteNumber":50,"Velocity":66,"Duration":123456,"SoundDuration":123456,"Delta":336290914},{"NoteNumber":61,"Velocity":78,"Duration":240964,"SoundDuration":240964,"Delta":336537827},{"NoteNumber":53,"Velocity":61,"Duration":240964,"SoundDuration":240964,"Delta":336537827},{"NoteNumber":49,"Velocity":69,"Duration":240964,"SoundDuration":240964,"Delta":336537827},{"NoteNumber":45,"Velocity":58,"Duration":240964,"SoundDuration":240964,"Delta":336537827},{"NoteNumber":53,"Velocity":58,"Duration":120481,"SoundDuration":120481,"Delta":336778791},{"NoteNumber":62,"Velocity":69,"Duration":120481,"SoundDuration":120481,"Delta":336778791},{"NoteNumber":50,"Velocity":65,"Duration":120481,"SoundDuration":120481,"Delta":336778791},{"NoteNumber":46,"Velocity":55,"Duration":120481,"SoundDuration":120481,"Delta":336778791},{"NoteNumber":62,"Velocity":69,"Duration":120482,"SoundDuration":120482,"Delta":337019755},{"NoteNumber":53,"Velocity":58,"Duration":120482,"SoundDuration":120482,"Delta":337019755},{"NoteNumber":50,"Velocity":65,"Duration":120482,"SoundDuration":120482,"Delta":337019755},{"NoteNumber":46,"Velocity":55,"Duration":120482,"SoundDuration":120482,"Delta":337019755},{"NoteNumber":53,"Velocity":58,"Duration":126050,"SoundDuration":126050,"Delta":337260719},{"NoteNumber":62,"Velocity":69,"Duration":126050,"SoundDuration":126050,"Delta":337260719},{"NoteNumber":46,"Velocity":55,"Duration":126050,"SoundDuration":126050,"Delta":337260719},{"NoteNumber":50,"Velocity":65,"Duration":126050,"SoundDuration":126050,"Delta":337260719},{"NoteNumber":68,"Velocity":78,"Duration":236220,"SoundDuration":236220,"Delta":337512820},{"NoteNumber":62,"Velocity":61,"Duration":236220,"SoundDuration":236220,"Delta":337512820},{"NoteNumber":59,"Velocity":61,"Duration":236220,"SoundDuration":236220,"Delta":337512820},{"NoteNumber":44,"Velocity":58,"Duration":236220,"SoundDuration":236220,"Delta":337512820},{"NoteNumber":50,"Velocity":58,"Duration":236220,"SoundDuration":236220,"Delta":337512820},{"NoteNumber":53,"Velocity":69,"Duration":236220,"SoundDuration":236220,"Delta":337512820},{"NoteNumber":59,"Velocity":58,"Duration":120000,"SoundDuration":120000,"Delta":337749041},{"NoteNumber":62,"Velocity":58,"Duration":120000,"SoundDuration":120000,"Delta":337749041},{"NoteNumber":67,"Velocity":69,"Duration":120000,"SoundDuration":120000,"Delta":337749041},{"NoteNumber":43,"Velocity":55,"Duration":120000,"SoundDuration":120000,"Delta":337749041},{"NoteNumber":53,"Velocity":65,"Duration":120000,"SoundDuration":120000,"Delta":337749041},{"NoteNumber":50,"Velocity":55,"Duration":120000,"SoundDuration":120000,"Delta":337749041},{"NoteNumber":59,"Velocity":58,"Duration":118110,"SoundDuration":118110,"Delta":337989041},{"NoteNumber":62,"Velocity":58,"Duration":118110,"SoundDuration":118110,"Delta":337989041},{"NoteNumber":67,"Velocity":69,"Duration":118110,"SoundDuration":118110,"Delta":337989041},{"NoteNumber":43,"Velocity":55,"Duration":118110,"SoundDuration":118110,"Delta":337989041},{"NoteNumber":53,"Velocity":65,"Duration":118110,"SoundDuration":118110,"Delta":337989041},{"NoteNumber":50,"Velocity":55,"Duration":118110,"SoundDuration":118110,"Delta":337989041},{"NoteNumber":62,"Velocity":58,"Duration":121951,"SoundDuration":121951,"Delta":338225261},{"NoteNumber":67,"Velocity":69,"Duration":121951,"SoundDuration":121951,"Delta":338225261},{"NoteNumber":59,"Velocity":58,"Duration":121951,"SoundDuration":121951,"Delta":338225261},{"NoteNumber":50,"Velocity":55,"Duration":121951,"SoundDuration":121951,"Delta":338225261},{"NoteNumber":53,"Velocity":65,"Duration":121951,"SoundDuration":121951,"Delta":338225261},{"NoteNumber":43,"Velocity":55,"Duration":121951,"SoundDuration":121951,"Delta":338225261},{"NoteNumber":64,"Velocity":72,"Duration":114715,"SoundDuration":114715,"Delta":338469164},{"NoteNumber":60,"Velocity":61,"Duration":114715,"SoundDuration":114715,"Delta":338469164},{"NoteNumber":48,"Velocity":57,"Duration":114715,"SoundDuration":114715,"Delta":338469164},{"NoteNumber":52,"Velocity":68,"Duration":114715,"SoundDuration":114715,"Delta":338469164},{"NoteNumber":64,"Velocity":70,"Duration":226695,"SoundDuration":226695,"Delta":338698071},{"NoteNumber":60,"Velocity":56,"Duration":226695,"SoundDuration":226695,"Delta":338698071},{"NoteNumber":67,"Velocity":70,"Duration":113072,"SoundDuration":113072,"Delta":338811694},{"NoteNumber":72,"Velocity":67,"Duration":112563,"SoundDuration":112563,"Delta":338924767},{"NoteNumber":64,"Velocity":66,"Duration":225391,"SoundDuration":225391,"Delta":338924767},{"NoteNumber":60,"Velocity":56,"Duration":225391,"SoundDuration":225391,"Delta":338924767},{"NoteNumber":76,"Velocity":70,"Duration":112828,"SoundDuration":112828,"Delta":339037330},{"NoteNumber":79,"Velocity":73,"Duration":115431,"SoundDuration":115431,"Delta":339150158},{"NoteNumber":64,"Velocity":66,"Duration":233702,"SoundDuration":233702,"Delta":339150158},{"NoteNumber":60,"Velocity":56,"Duration":233702,"SoundDuration":233702,"Delta":339150158},{"NoteNumber":84,"Velocity":75,"Duration":118271,"SoundDuration":118271,"Delta":339265589},{"NoteNumber":61,"Velocity":61,"Duration":232557,"SoundDuration":232557,"Delta":339383861},{"NoteNumber":70,"Velocity":78,"Duration":232557,"SoundDuration":232557,"Delta":339383861},{"NoteNumber":64,"Velocity":61,"Duration":232557,"SoundDuration":232557,"Delta":339383861},{"NoteNumber":46,"Velocity":58,"Duration":232557,"SoundDuration":232557,"Delta":339383861},{"NoteNumber":55,"Velocity":69,"Duration":232557,"SoundDuration":232557,"Delta":339383861},{"NoteNumber":52,"Velocity":58,"Duration":232557,"SoundDuration":232557,"Delta":339383861},{"NoteNumber":64,"Velocity":58,"Duration":119047,"SoundDuration":119047,"Delta":339616419},{"NoteNumber":69,"Velocity":69,"Duration":119047,"SoundDuration":119047,"Delta":339616419},{"NoteNumber":61,"Velocity":58,"Duration":119047,"SoundDuration":119047,"Delta":339616419},{"NoteNumber":55,"Velocity":65,"Duration":119047,"SoundDuration":119047,"Delta":339616419},{"NoteNumber":52,"Velocity":55,"Duration":119047,"SoundDuration":119047,"Delta":339616419},{"NoteNumber":45,"Velocity":55,"Duration":119047,"SoundDuration":119047,"Delta":339616419},{"NoteNumber":64,"Velocity":58,"Duration":116731,"SoundDuration":116731,"Delta":339854514},{"NoteNumber":69,"Velocity":69,"Duration":116731,"SoundDuration":116731,"Delta":339854514},{"NoteNumber":61,"Velocity":58,"Duration":116731,"SoundDuration":116731,"Delta":339854514},{"NoteNumber":55,"Velocity":65,"Duration":116731,"SoundDuration":116731,"Delta":339854514},{"NoteNumber":45,"Velocity":55,"Duration":116731,"SoundDuration":116731,"Delta":339854514},{"NoteNumber":52,"Velocity":55,"Duration":116731,"SoundDuration":116731,"Delta":339854514},{"NoteNumber":64,"Velocity":58,"Duration":126050,"SoundDuration":126050,"Delta":340087977},{"NoteNumber":61,"Velocity":58,"Duration":126050,"SoundDuration":126050,"Delta":340087977},{"NoteNumber":69,"Velocity":69,"Duration":126050,"SoundDuration":126050,"Delta":340087977},{"NoteNumber":45,"Velocity":55,"Duration":126050,"SoundDuration":126050,"Delta":340087977},{"NoteNumber":55,"Velocity":65,"Duration":126050,"SoundDuration":126050,"Delta":340087977},{"NoteNumber":52,"Velocity":55,"Duration":126050,"SoundDuration":126050,"Delta":340087977},{"NoteNumber":62,"Velocity":61,"Duration":114715,"SoundDuration":114715,"Delta":340340078},{"NoteNumber":66,"Velocity":72,"Duration":114715,"SoundDuration":114715,"Delta":340340078},{"NoteNumber":50,"Velocity":57,"Duration":114715,"SoundDuration":114715,"Delta":340340078},{"NoteNumber":54,"Velocity":68,"Duration":114715,"SoundDuration":114715,"Delta":340340078},{"NoteNumber":66,"Velocity":70,"Duration":226695,"SoundDuration":226695,"Delta":340568985},{"NoteNumber":62,"Velocity":56,"Duration":226695,"SoundDuration":226695,"Delta":340568985},{"NoteNumber":69,"Velocity":70,"Duration":113072,"SoundDuration":113072,"Delta":340682608},{"NoteNumber":74,"Velocity":67,"Duration":112563,"SoundDuration":112563,"Delta":340795681},{"NoteNumber":62,"Velocity":56,"Duration":225391,"SoundDuration":225391,"Delta":340795681},{"NoteNumber":66,"Velocity":66,"Duration":225391,"SoundDuration":225391,"Delta":340795681},{"NoteNumber":78,"Velocity":70,"Duration":112828,"SoundDuration":112828,"Delta":340908244},{"NoteNumber":81,"Velocity":73,"Duration":115431,"SoundDuration":115431,"Delta":341021072},{"NoteNumber":66,"Velocity":66,"Duration":233702,"SoundDuration":233702,"Delta":341021072},{"NoteNumber":62,"Velocity":56,"Duration":233702,"SoundDuration":233702,"Delta":341021072},{"NoteNumber":86,"Velocity":75,"Duration":118271,"SoundDuration":118271,"Delta":341136503},{"NoteNumber":75,"Velocity":73,"Duration":258620,"SoundDuration":258620,"Delta":341254775},{"NoteNumber":87,"Velocity":87,"Duration":258620,"SoundDuration":258620,"Delta":341254775},{"NoteNumber":51,"Velocity":51,"Duration":258620,"SoundDuration":258620,"Delta":341254775},{"NoteNumber":63,"Velocity":60,"Duration":258620,"SoundDuration":258620,"Delta":341254775},{"NoteNumber":86,"Velocity":75,"Duration":177165,"SoundDuration":177165,"Delta":341513395},{"NoteNumber":74,"Velocity":63,"Duration":177165,"SoundDuration":177165,"Delta":341513395},{"NoteNumber":62,"Velocity":52,"Duration":177165,"SoundDuration":177165,"Delta":341513395},{"NoteNumber":50,"Velocity":44,"Duration":177165,"SoundDuration":177165,"Delta":341513395},{"NoteNumber":86,"Velocity":87,"Duration":229885,"SoundDuration":229885,"Delta":341749616},{"NoteNumber":74,"Velocity":73,"Duration":229885,"SoundDuration":229885,"Delta":341749616},{"NoteNumber":62,"Velocity":60,"Duration":229885,"SoundDuration":229885,"Delta":341749616},{"NoteNumber":50,"Velocity":51,"Duration":229885,"SoundDuration":229885,"Delta":341749616},{"NoteNumber":85,"Velocity":75,"Duration":177165,"SoundDuration":177165,"Delta":341979501},{"NoteNumber":73,"Velocity":63,"Duration":177165,"SoundDuration":177165,"Delta":341979501},{"NoteNumber":49,"Velocity":44,"Duration":177165,"SoundDuration":177165,"Delta":341979501},{"NoteNumber":61,"Velocity":52,"Duration":177165,"SoundDuration":177165,"Delta":341979501},{"NoteNumber":73,"Velocity":73,"Duration":229007,"SoundDuration":229007,"Delta":342215721},{"NoteNumber":85,"Velocity":86,"Duration":229007,"SoundDuration":229007,"Delta":342215721},{"NoteNumber":49,"Velocity":51,"Duration":229007,"SoundDuration":229007,"Delta":342215721},{"NoteNumber":61,"Velocity":60,"Duration":229007,"SoundDuration":229007,"Delta":342215721},{"NoteNumber":86,"Velocity":70,"Duration":172413,"SoundDuration":172413,"Delta":342444729},{"NoteNumber":74,"Velocity":59,"Duration":172413,"SoundDuration":172413,"Delta":342444729},{"NoteNumber":50,"Velocity":41,"Duration":172413,"SoundDuration":172413,"Delta":342444729},{"NoteNumber":62,"Velocity":49,"Duration":172413,"SoundDuration":172413,"Delta":342444729},{"NoteNumber":86,"Velocity":78,"Duration":226414,"SoundDuration":226414,"Delta":342674614},{"NoteNumber":74,"Velocity":66,"Duration":226414,"SoundDuration":226414,"Delta":342674614},{"NoteNumber":62,"Velocity":54,"Duration":226414,"SoundDuration":226414,"Delta":342674614},{"NoteNumber":50,"Velocity":46,"Duration":226414,"SoundDuration":226414,"Delta":342674614},{"NoteNumber":69,"Velocity":59,"Duration":171755,"SoundDuration":171755,"Delta":342901029},{"NoteNumber":81,"Velocity":70,"Duration":171755,"SoundDuration":171755,"Delta":342901029},{"NoteNumber":57,"Velocity":49,"Duration":171755,"SoundDuration":171755,"Delta":342901029},{"NoteNumber":45,"Velocity":41,"Duration":171755,"SoundDuration":171755,"Delta":342901029},{"NoteNumber":79,"Velocity":77,"Duration":220995,"SoundDuration":220995,"Delta":343130036},{"NoteNumber":67,"Velocity":65,"Duration":220995,"SoundDuration":220995,"Delta":343130036},{"NoteNumber":43,"Velocity":45,"Duration":220995,"SoundDuration":220995,"Delta":343130036},{"NoteNumber":55,"Velocity":53,"Duration":220995,"SoundDuration":220995,"Delta":343130036},{"NoteNumber":78,"Velocity":68,"Duration":170454,"SoundDuration":170454,"Delta":343351031},{"NoteNumber":66,"Velocity":57,"Duration":170454,"SoundDuration":170454,"Delta":343351031},{"NoteNumber":42,"Velocity":39,"Duration":170454,"SoundDuration":170454,"Delta":343351031},{"NoteNumber":54,"Velocity":47,"Duration":170454,"SoundDuration":170454,"Delta":343351031},{"NoteNumber":78,"Velocity":68,"Duration":224718,"SoundDuration":224718,"Delta":343578304},{"NoteNumber":66,"Velocity":57,"Duration":224718,"SoundDuration":224718,"Delta":343578304},{"NoteNumber":54,"Velocity":47,"Duration":224718,"SoundDuration":224718,"Delta":343578304},{"NoteNumber":42,"Velocity":39,"Duration":224718,"SoundDuration":224718,"Delta":343578304},{"NoteNumber":64,"Velocity":57,"Duration":177165,"SoundDuration":177165,"Delta":343803023},{"NoteNumber":76,"Velocity":68,"Duration":177165,"SoundDuration":177165,"Delta":343803023},{"NoteNumber":52,"Velocity":47,"Duration":177165,"SoundDuration":177165,"Delta":343803023},{"NoteNumber":40,"Velocity":39,"Duration":177165,"SoundDuration":177165,"Delta":343803023},{"NoteNumber":64,"Velocity":62,"Duration":228137,"SoundDuration":228137,"Delta":344039243},{"NoteNumber":76,"Velocity":74,"Duration":228137,"SoundDuration":228137,"Delta":344039243},{"NoteNumber":52,"Velocity":51,"Duration":228137,"SoundDuration":228137,"Delta":344039243},{"NoteNumber":40,"Velocity":43,"Duration":228137,"SoundDuration":228137,"Delta":344039243},{"NoteNumber":62,"Velocity":54,"Duration":116795,"SoundDuration":116795,"Delta":344267380},{"NoteNumber":74,"Velocity":64,"Duration":116795,"SoundDuration":116795,"Delta":344267380},{"NoteNumber":50,"Velocity":44,"Duration":116795,"SoundDuration":116795,"Delta":344267380},{"NoteNumber":38,"Velocity":37,"Duration":116795,"SoundDuration":116795,"Delta":344267380},{"NoteNumber":62,"Velocity":56,"Duration":115019,"SoundDuration":115019,"Delta":344499040},{"NoteNumber":74,"Velocity":67,"Duration":115019,"SoundDuration":115019,"Delta":344499040},{"NoteNumber":38,"Velocity":39,"Duration":115019,"SoundDuration":115019,"Delta":344499040},{"NoteNumber":50,"Velocity":46,"Duration":115019,"SoundDuration":115019,"Delta":344499040},{"NoteNumber":74,"Velocity":64,"Duration":120039,"SoundDuration":120039,"Delta":344727177},{"NoteNumber":62,"Velocity":54,"Duration":120039,"SoundDuration":120039,"Delta":344727177},{"NoteNumber":50,"Velocity":44,"Duration":120039,"SoundDuration":120039,"Delta":344727177},{"NoteNumber":38,"Velocity":37,"Duration":120039,"SoundDuration":120039,"Delta":344727177},{"NoteNumber":63,"Velocity":58,"Duration":224718,"SoundDuration":224718,"Delta":344965272},{"NoteNumber":75,"Velocity":69,"Duration":224718,"SoundDuration":224718,"Delta":344965272},{"NoteNumber":51,"Velocity":48,"Duration":224718,"SoundDuration":224718,"Delta":344965272},{"NoteNumber":39,"Velocity":40,"Duration":224718,"SoundDuration":224718,"Delta":344965272},{"NoteNumber":74,"Velocity":60,"Duration":173076,"SoundDuration":173076,"Delta":345189991},{"NoteNumber":62,"Velocity":50,"Duration":173076,"SoundDuration":173076,"Delta":345189991},{"NoteNumber":38,"Velocity":35,"Duration":173076,"SoundDuration":173076,"Delta":345189991},{"NoteNumber":50,"Velocity":41,"Duration":173076,"SoundDuration":173076,"Delta":345189991},{"NoteNumber":62,"Velocity":58,"Duration":225564,"SoundDuration":225564,"Delta":345420760},{"NoteNumber":74,"Velocity":69,"Duration":225564,"SoundDuration":225564,"Delta":345420760},{"NoteNumber":50,"Velocity":48,"Duration":225564,"SoundDuration":225564,"Delta":345420760},{"NoteNumber":38,"Velocity":40,"Duration":225564,"SoundDuration":225564,"Delta":345420760},{"NoteNumber":73,"Velocity":60,"Duration":172413,"SoundDuration":172413,"Delta":345646324},{"NoteNumber":61,"Velocity":50,"Duration":172413,"SoundDuration":172413,"Delta":345646324},{"NoteNumber":37,"Velocity":35,"Duration":172413,"SoundDuration":172413,"Delta":345646324},{"NoteNumber":49,"Velocity":41,"Duration":172413,"SoundDuration":172413,"Delta":345646324},{"NoteNumber":73,"Velocity":68,"Duration":225564,"SoundDuration":225564,"Delta":345876209},{"NoteNumber":61,"Velocity":58,"Duration":225564,"SoundDuration":225564,"Delta":345876209},{"NoteNumber":37,"Velocity":40,"Duration":225564,"SoundDuration":225564,"Delta":345876209},{"NoteNumber":49,"Velocity":48,"Duration":225564,"SoundDuration":225564,"Delta":345876209},{"NoteNumber":62,"Velocity":47,"Duration":172413,"SoundDuration":172413,"Delta":346101773},{"NoteNumber":74,"Velocity":56,"Duration":172413,"SoundDuration":172413,"Delta":346101773},{"NoteNumber":50,"Velocity":39,"Duration":172413,"SoundDuration":172413,"Delta":346101773},{"NoteNumber":38,"Velocity":32,"Duration":172413,"SoundDuration":172413,"Delta":346101773},{"NoteNumber":74,"Velocity":62,"Duration":223880,"SoundDuration":223880,"Delta":346331658},{"NoteNumber":62,"Velocity":52,"Duration":223880,"SoundDuration":223880,"Delta":346331658},{"NoteNumber":50,"Velocity":43,"Duration":223880,"SoundDuration":223880,"Delta":346331658},{"NoteNumber":38,"Velocity":36,"Duration":223880,"SoundDuration":223880,"Delta":346331658},{"NoteNumber":57,"Velocity":47,"Duration":171755,"SoundDuration":171755,"Delta":346555539},{"NoteNumber":69,"Velocity":56,"Duration":171755,"SoundDuration":171755,"Delta":346555539},{"NoteNumber":45,"Velocity":39,"Duration":171755,"SoundDuration":171755,"Delta":346555539},{"NoteNumber":67,"Velocity":57,"Duration":220995,"SoundDuration":220995,"Delta":346784546},{"NoteNumber":55,"Velocity":49,"Duration":220995,"SoundDuration":220995,"Delta":346784546},{"NoteNumber":43,"Velocity":39,"Duration":220995,"SoundDuration":220995,"Delta":346784546},{"NoteNumber":66,"Velocity":50,"Duration":170454,"SoundDuration":170454,"Delta":347005541},{"NoteNumber":54,"Velocity":42,"Duration":170454,"SoundDuration":170454,"Delta":347005541},{"NoteNumber":42,"Velocity":34,"Duration":170454,"SoundDuration":170454,"Delta":347005541},{"NoteNumber":66,"Velocity":49,"Duration":222221,"SoundDuration":222221,"Delta":347232814},{"NoteNumber":54,"Velocity":41,"Duration":222221,"SoundDuration":222221,"Delta":347232814},{"NoteNumber":42,"Velocity":34,"Duration":222221,"SoundDuration":222221,"Delta":347232814},{"NoteNumber":64,"Velocity":48,"Duration":173076,"SoundDuration":173076,"Delta":347455036},{"NoteNumber":52,"Velocity":40,"Duration":173076,"SoundDuration":173076,"Delta":347455036},{"NoteNumber":40,"Velocity":33,"Duration":173076,"SoundDuration":173076,"Delta":347455036},{"NoteNumber":52,"Velocity":43,"Duration":225564,"SoundDuration":225564,"Delta":347685805},{"NoteNumber":64,"Velocity":51,"Duration":225564,"SoundDuration":225564,"Delta":347685805},{"NoteNumber":40,"Velocity":35,"Duration":225564,"SoundDuration":225564,"Delta":347685805},{"NoteNumber":62,"Velocity":43,"Duration":116795,"SoundDuration":116795,"Delta":347911369},{"NoteNumber":50,"Velocity":36,"Duration":116795,"SoundDuration":116795,"Delta":347911369},{"NoteNumber":38,"Velocity":30,"Duration":116795,"SoundDuration":116795,"Delta":347911369},{"NoteNumber":50,"Velocity":36,"Duration":113721,"SoundDuration":113721,"Delta":348143029},{"NoteNumber":62,"Velocity":44,"Duration":113721,"SoundDuration":113721,"Delta":348143029},{"NoteNumber":38,"Velocity":30,"Duration":113721,"SoundDuration":113721,"Delta":348143029},{"NoteNumber":62,"Velocity":41,"Duration":117704,"SoundDuration":117704,"Delta":348368593},{"NoteNumber":50,"Velocity":35,"Duration":117704,"SoundDuration":117704,"Delta":348368593},{"NoteNumber":38,"Velocity":28,"Duration":117704,"SoundDuration":117704,"Delta":348368593},{"NoteNumber":50,"Velocity":32,"Duration":113721,"SoundDuration":113721,"Delta":348602056},{"NoteNumber":62,"Velocity":39,"Duration":113721,"SoundDuration":113721,"Delta":348602056},{"NoteNumber":38,"Velocity":27,"Duration":113721,"SoundDuration":113721,"Delta":348602056},{"NoteNumber":62,"Velocity":36,"Duration":117704,"SoundDuration":117704,"Delta":348827620},{"NoteNumber":50,"Velocity":31,"Duration":117704,"SoundDuration":117704,"Delta":348827620},{"NoteNumber":38,"Velocity":25,"Duration":117704,"SoundDuration":117704,"Delta":348827620},{"NoteNumber":62,"Velocity":39,"Duration":113721,"SoundDuration":113721,"Delta":349061083},{"NoteNumber":50,"Velocity":32,"Duration":113721,"SoundDuration":113721,"Delta":349061083},{"NoteNumber":38,"Velocity":27,"Duration":113721,"SoundDuration":113721,"Delta":349061083},{"NoteNumber":50,"Velocity":31,"Duration":117704,"SoundDuration":117704,"Delta":349286647},{"NoteNumber":62,"Velocity":36,"Duration":117704,"SoundDuration":117704,"Delta":349286647},{"NoteNumber":38,"Velocity":25,"Duration":117704,"SoundDuration":117704,"Delta":349286647},{"NoteNumber":50,"Velocity":32,"Duration":113721,"SoundDuration":113721,"Delta":349520110},{"NoteNumber":62,"Velocity":39,"Duration":113721,"SoundDuration":113721,"Delta":349520110},{"NoteNumber":38,"Velocity":27,"Duration":113721,"SoundDuration":113721,"Delta":349520110},{"NoteNumber":50,"Velocity":31,"Duration":120039,"SoundDuration":120039,"Delta":349745674},{"NoteNumber":62,"Velocity":36,"Duration":120039,"SoundDuration":120039,"Delta":349745674},{"NoteNumber":38,"Velocity":25,"Duration":120039,"SoundDuration":120039,"Delta":349745674},{"NoteNumber":62,"Velocity":39,"Duration":116795,"SoundDuration":116795,"Delta":349983769},{"NoteNumber":50,"Velocity":32,"Duration":116795,"SoundDuration":116795,"Delta":349983769},{"NoteNumber":38,"Velocity":27,"Duration":116795,"SoundDuration":116795,"Delta":349983769},{"NoteNumber":62,"Velocity":36,"Duration":124485,"SoundDuration":124485,"Delta":350215429},{"NoteNumber":50,"Velocity":31,"Duration":124485,"SoundDuration":124485,"Delta":350215429},{"NoteNumber":38,"Velocity":25,"Duration":124485,"SoundDuration":124485,"Delta":350215429},{"NoteNumber":58,"Velocity":21,"Duration":238094,"SoundDuration":238094,"Delta":350462342},{"NoteNumber":61,"Velocity":33,"Duration":238094,"SoundDuration":238094,"Delta":350462342},{"NoteNumber":52,"Velocity":21,"Duration":238094,"SoundDuration":238094,"Delta":350462342},{"NoteNumber":55,"Velocity":21,"Duration":238094,"SoundDuration":238094,"Delta":350462342},{"NoteNumber":49,"Velocity":22,"Duration":238094,"SoundDuration":238094,"Delta":350462342},{"NoteNumber":52,"Velocity":21,"Duration":125000,"SoundDuration":125000,"Delta":350700437},{"NoteNumber":55,"Velocity":21,"Duration":125000,"SoundDuration":125000,"Delta":350700437},{"NoteNumber":58,"Velocity":21,"Duration":125000,"SoundDuration":125000,"Delta":350700437},{"NoteNumber":60,"Velocity":30,"Duration":126041,"SoundDuration":126041,"Delta":350700437},{"NoteNumber":48,"Velocity":21,"Duration":126041,"SoundDuration":126041,"Delta":350700437},{"NoteNumber":60,"Velocity":33,"Duration":120999,"SoundDuration":120999,"Delta":350950437},{"NoteNumber":55,"Velocity":21,"Duration":120000,"SoundDuration":120000,"Delta":350950437},{"NoteNumber":58,"Velocity":21,"Duration":120999,"SoundDuration":120999,"Delta":350950437},{"NoteNumber":52,"Velocity":21,"Duration":120000,"SoundDuration":120000,"Delta":350950437},{"NoteNumber":48,"Velocity":22,"Duration":120999,"SoundDuration":120999,"Delta":350950437},{"NoteNumber":58,"Velocity":20,"Duration":121993,"SoundDuration":121993,"Delta":351190413},{"NoteNumber":60,"Velocity":30,"Duration":121993,"SoundDuration":121993,"Delta":351190413},{"NoteNumber":55,"Velocity":20,"Duration":120972,"SoundDuration":120972,"Delta":351190413},{"NoteNumber":52,"Velocity":20,"Duration":120972,"SoundDuration":120972,"Delta":351190413},{"NoteNumber":48,"Velocity":21,"Duration":121993,"SoundDuration":121993,"Delta":351190413},{"NoteNumber":58,"Velocity":21,"Duration":127710,"SoundDuration":127710,"Delta":351435112},{"NoteNumber":52,"Velocity":21,"Duration":126642,"SoundDuration":126642,"Delta":351435112},{"NoteNumber":60,"Velocity":33,"Duration":127710,"SoundDuration":127710,"Delta":351435112},{"NoteNumber":55,"Velocity":21,"Duration":126642,"SoundDuration":126642,"Delta":351435112},{"NoteNumber":48,"Velocity":22,"Duration":127710,"SoundDuration":127710,"Delta":351435112},{"NoteNumber":55,"Velocity":20,"Duration":132926,"SoundDuration":132926,"Delta":351691471},{"NoteNumber":52,"Velocity":20,"Duration":132926,"SoundDuration":132926,"Delta":351691471},{"NoteNumber":58,"Velocity":20,"Duration":134047,"SoundDuration":134047,"Delta":351691471},{"NoteNumber":60,"Velocity":30,"Duration":134047,"SoundDuration":134047,"Delta":351691471},{"NoteNumber":48,"Velocity":21,"Duration":134047,"SoundDuration":134047,"Delta":351691471},{"NoteNumber":55,"Velocity":21,"Duration":138048,"SoundDuration":138048,"Delta":351960708},{"NoteNumber":52,"Velocity":21,"Duration":138048,"SoundDuration":138048,"Delta":351960708},{"NoteNumber":58,"Velocity":21,"Duration":139205,"SoundDuration":139205,"Delta":351960708},{"NoteNumber":60,"Velocity":33,"Duration":139205,"SoundDuration":139205,"Delta":351960708},{"NoteNumber":48,"Velocity":22,"Duration":139205,"SoundDuration":139205,"Delta":351960708},{"NoteNumber":52,"Velocity":20,"Duration":141813,"SoundDuration":141813,"Delta":352238522},{"NoteNumber":60,"Velocity":30,"Duration":143102,"SoundDuration":143102,"Delta":352238522},{"NoteNumber":55,"Velocity":20,"Duration":141813,"SoundDuration":141813,"Delta":352238522},{"NoteNumber":58,"Velocity":20,"Duration":143102,"SoundDuration":143102,"Delta":352238522},{"NoteNumber":48,"Velocity":21,"Duration":143102,"SoundDuration":143102,"Delta":352238522},{"NoteNumber":53,"Velocity":28,"Duration":279069,"SoundDuration":279069,"Delta":352534975},{"NoteNumber":60,"Velocity":35,"Duration":279069,"SoundDuration":279069,"Delta":352534975},{"NoteNumber":57,"Velocity":28,"Duration":279069,"SoundDuration":279069,"Delta":352534975},{"NoteNumber":41,"Velocity":33,"Duration":2127258,"SoundDuration":2127258,"Delta":352534975},{"NoteNumber":65,"Velocity":23,"Duration":194805,"SoundDuration":194805,"Delta":352814045},{"NoteNumber":69,"Velocity":29,"Duration":194805,"SoundDuration":194805,"Delta":352814045},{"NoteNumber":60,"Velocity":23,"Duration":194805,"SoundDuration":194805,"Delta":352814045},{"NoteNumber":48,"Velocity":25,"Duration":194805,"SoundDuration":194805,"Delta":352814045},{"NoteNumber":65,"Velocity":23,"Duration":194805,"SoundDuration":194805,"Delta":353073785},{"NoteNumber":69,"Velocity":29,"Duration":194805,"SoundDuration":194805,"Delta":353073785},{"NoteNumber":60,"Velocity":23,"Duration":194805,"SoundDuration":194805,"Delta":353073785},{"NoteNumber":48,"Velocity":25,"Duration":194805,"SoundDuration":194805,"Delta":353073785},{"NoteNumber":65,"Velocity":23,"Duration":199114,"SoundDuration":199114,"Delta":353333526},{"NoteNumber":69,"Velocity":29,"Duration":199114,"SoundDuration":199114,"Delta":353333526},{"NoteNumber":60,"Velocity":23,"Duration":199114,"SoundDuration":199114,"Delta":353333526},{"NoteNumber":48,"Velocity":25,"Duration":199114,"SoundDuration":199114,"Delta":353333526},{"NoteNumber":65,"Velocity":26,"Duration":264317,"SoundDuration":264317,"Delta":353599012},{"NoteNumber":68,"Velocity":33,"Duration":264317,"SoundDuration":264317,"Delta":353599012},{"NoteNumber":59,"Velocity":26,"Duration":264317,"SoundDuration":264317,"Delta":353599012},{"NoteNumber":48,"Velocity":33,"Duration":264317,"SoundDuration":264317,"Delta":353599012},{"NoteNumber":69,"Velocity":28,"Duration":198237,"SoundDuration":198237,"Delta":353863329},{"NoteNumber":65,"Velocity":22,"Duration":198237,"SoundDuration":198237,"Delta":353863329},{"NoteNumber":60,"Velocity":22,"Duration":198237,"SoundDuration":198237,"Delta":353863329},{"NoteNumber":53,"Velocity":26,"Duration":198237,"SoundDuration":198237,"Delta":353863329},{"NoteNumber":65,"Velocity":24,"Duration":198237,"SoundDuration":198237,"Delta":354127646},{"NoteNumber":69,"Velocity":31,"Duration":198237,"SoundDuration":198237,"Delta":354127646},{"NoteNumber":60,"Velocity":24,"Duration":198237,"SoundDuration":198237,"Delta":354127646},{"NoteNumber":53,"Velocity":27,"Duration":198237,"SoundDuration":198237,"Delta":354127646},{"NoteNumber":69,"Velocity":34,"Duration":202702,"SoundDuration":202702,"Delta":354391963},{"NoteNumber":65,"Velocity":27,"Duration":202702,"SoundDuration":202702,"Delta":354391963},{"NoteNumber":60,"Velocity":27,"Duration":202702,"SoundDuration":202702,"Delta":354391963},{"NoteNumber":53,"Velocity":29,"Duration":202702,"SoundDuration":202702,"Delta":354391963},{"NoteNumber":72,"Velocity":38,"Duration":288461,"SoundDuration":288461,"Delta":354662234},{"NoteNumber":65,"Velocity":30,"Duration":288461,"SoundDuration":288461,"Delta":354662234},{"NoteNumber":63,"Velocity":30,"Duration":288461,"SoundDuration":288461,"Delta":354662234},{"NoteNumber":46,"Velocity":38,"Duration":1845151,"SoundDuration":1845151,"Delta":354662234},{"NoteNumber":70,"Velocity":32,"Duration":189075,"SoundDuration":189075,"Delta":354950695},{"NoteNumber":62,"Velocity":25,"Duration":189075,"SoundDuration":189075,"Delta":354950695},{"NoteNumber":65,"Velocity":25,"Duration":189075,"SoundDuration":189075,"Delta":354950695},{"NoteNumber":53,"Velocity":25,"Duration":189075,"SoundDuration":189075,"Delta":354950695},{"NoteNumber":65,"Velocity":25,"Duration":193132,"SoundDuration":193132,"Delta":355202796},{"NoteNumber":62,"Velocity":25,"Duration":193132,"SoundDuration":193132,"Delta":355202796},{"NoteNumber":70,"Velocity":32,"Duration":193132,"SoundDuration":193132,"Delta":355202796},{"NoteNumber":53,"Velocity":25,"Duration":193132,"SoundDuration":193132,"Delta":355202796},{"NoteNumber":62,"Velocity":25,"Duration":200892,"SoundDuration":200892,"Delta":355460307},{"NoteNumber":70,"Velocity":32,"Duration":200892,"SoundDuration":200892,"Delta":355460307},{"NoteNumber":65,"Velocity":25,"Duration":200892,"SoundDuration":200892,"Delta":355460307},{"NoteNumber":53,"Velocity":27,"Duration":200892,"SoundDuration":200892,"Delta":355460307},{"NoteNumber":70,"Velocity":33,"Duration":259740,"SoundDuration":259740,"Delta":355728164},{"NoteNumber":65,"Velocity":26,"Duration":259740,"SoundDuration":259740,"Delta":355728164},{"NoteNumber":62,"Velocity":20,"Duration":259740,"SoundDuration":259740,"Delta":355728164},{"NoteNumber":53,"Velocity":33,"Duration":259740,"SoundDuration":259740,"Delta":355728164},{"NoteNumber":69,"Velocity":30,"Duration":259740,"SoundDuration":259740,"Delta":355987904},{"NoteNumber":60,"Velocity":24,"Duration":259740,"SoundDuration":259740,"Delta":355987904},{"NoteNumber":62,"Velocity":24,"Duration":259740,"SoundDuration":259740,"Delta":355987904},{"NoteNumber":54,"Velocity":27,"Duration":259740,"SoundDuration":259740,"Delta":355987904},{"NoteNumber":67,"Velocity":30,"Duration":259740,"SoundDuration":259740,"Delta":356247645},{"NoteNumber":58,"Velocity":24,"Duration":259740,"SoundDuration":259740,"Delta":356247645},{"NoteNumber":62,"Velocity":24,"Duration":259740,"SoundDuration":259740,"Delta":356247645},{"NoteNumber":55,"Velocity":27,"Duration":259740,"SoundDuration":259740,"Delta":356247645},{"NoteNumber":62,"Velocity":24,"Duration":267856,"SoundDuration":267856,"Delta":356507385},{"NoteNumber":65,"Velocity":30,"Duration":267856,"SoundDuration":267856,"Delta":356507385},{"NoteNumber":57,"Velocity":24,"Duration":267856,"SoundDuration":267856,"Delta":356507385},{"NoteNumber":50,"Velocity":27,"Duration":267856,"SoundDuration":267856,"Delta":356507385},{"NoteNumber":47,"Velocity":27,"Duration":267856,"SoundDuration":267856,"Delta":356507385},{"NoteNumber":57,"Velocity":28,"Duration":264317,"SoundDuration":264317,"Delta":356775242},{"NoteNumber":65,"Velocity":35,"Duration":264317,"SoundDuration":264317,"Delta":356775242},{"NoteNumber":60,"Velocity":28,"Duration":264317,"SoundDuration":264317,"Delta":356775242},{"NoteNumber":36,"Velocity":33,"Duration":2138322,"SoundDuration":2138322,"Delta":356775242},{"NoteNumber":64,"Velocity":29,"Duration":194805,"SoundDuration":194805,"Delta":357039559},{"NoteNumber":55,"Velocity":23,"Duration":194805,"SoundDuration":194805,"Delta":357039559},{"NoteNumber":60,"Velocity":23,"Duration":194805,"SoundDuration":194805,"Delta":357039559},{"NoteNumber":48,"Velocity":25,"Duration":194805,"SoundDuration":194805,"Delta":357039559},{"NoteNumber":64,"Velocity":29,"Duration":194805,"SoundDuration":194805,"Delta":357299300},{"NoteNumber":55,"Velocity":23,"Duration":194805,"SoundDuration":194805,"Delta":357299300},{"NoteNumber":60,"Velocity":23,"Duration":194805,"SoundDuration":194805,"Delta":357299300},{"NoteNumber":48,"Velocity":25,"Duration":194805,"SoundDuration":194805,"Delta":357299300},{"NoteNumber":64,"Velocity":29,"Duration":199114,"SoundDuration":199114,"Delta":357559040},{"NoteNumber":55,"Velocity":23,"Duration":199114,"SoundDuration":199114,"Delta":357559040},{"NoteNumber":60,"Velocity":23,"Duration":199114,"SoundDuration":199114,"Delta":357559040},{"NoteNumber":48,"Velocity":25,"Duration":199114,"SoundDuration":199114,"Delta":357559040},{"NoteNumber":60,"Velocity":26,"Duration":198237,"SoundDuration":198237,"Delta":357824527},{"NoteNumber":64,"Velocity":33,"Duration":198237,"SoundDuration":198237,"Delta":357824527},{"NoteNumber":55,"Velocity":26,"Duration":198237,"SoundDuration":198237,"Delta":357824527},{"NoteNumber":48,"Velocity":33,"Duration":198237,"SoundDuration":198237,"Delta":357824527},{"NoteNumber":60,"Velocity":22,"Duration":201793,"SoundDuration":201793,"Delta":358088844},{"NoteNumber":64,"Velocity":28,"Duration":201793,"SoundDuration":201793,"Delta":358088844},{"NoteNumber":55,"Velocity":22,"Duration":201793,"SoundDuration":201793,"Delta":358088844},{"NoteNumber":48,"Velocity":26,"Duration":201793,"SoundDuration":201793,"Delta":358088844},{"NoteNumber":60,"Velocity":24,"Duration":273972,"SoundDuration":273972,"Delta":358357902},{"NoteNumber":65,"Velocity":31,"Duration":273972,"SoundDuration":273972,"Delta":358357902},{"NoteNumber":57,"Velocity":24,"Duration":273972,"SoundDuration":273972,"Delta":358357902},{"NoteNumber":48,"Velocity":27,"Duration":273972,"SoundDuration":273972,"Delta":358357902},{"NoteNumber":58,"Velocity":27,"Duration":281690,"SoundDuration":281690,"Delta":358631875},{"NoteNumber":67,"Velocity":34,"Duration":281690,"SoundDuration":281690,"Delta":358631875},{"NoteNumber":60,"Velocity":27,"Duration":281690,"SoundDuration":281690,"Delta":358631875},{"NoteNumber":48,"Velocity":29,"Duration":281690,"SoundDuration":281690,"Delta":358631875},{"NoteNumber":60,"Velocity":38,"Duration":291262,"SoundDuration":291262,"Delta":358913565},{"NoteNumber":58,"Velocity":30,"Duration":291262,"SoundDuration":291262,"Delta":358913565},{"NoteNumber":41,"Velocity":38,"Duration":1611490,"SoundDuration":1611490,"Delta":358913565},{"NoteNumber":60,"Velocity":25,"Duration":189075,"SoundDuration":189075,"Delta":359204827},{"NoteNumber":65,"Velocity":32,"Duration":189075,"SoundDuration":189075,"Delta":359204827},{"NoteNumber":57,"Velocity":25,"Duration":189075,"SoundDuration":189075,"Delta":359204827},{"NoteNumber":48,"Velocity":25,"Duration":189075,"SoundDuration":189075,"Delta":359204827},{"NoteNumber":57,"Velocity":25,"Duration":193132,"SoundDuration":193132,"Delta":359456928},{"NoteNumber":65,"Velocity":32,"Duration":193132,"SoundDuration":193132,"Delta":359456928},{"NoteNumber":60,"Velocity":25,"Duration":193132,"SoundDuration":193132,"Delta":359456928},{"NoteNumber":48,"Velocity":25,"Duration":193132,"SoundDuration":193132,"Delta":359456928},{"NoteNumber":60,"Velocity":25,"Duration":200892,"SoundDuration":200892,"Delta":359714438},{"NoteNumber":65,"Velocity":32,"Duration":200892,"SoundDuration":200892,"Delta":359714438},{"NoteNumber":57,"Velocity":25,"Duration":200892,"SoundDuration":200892,"Delta":359714438},{"NoteNumber":48,"Velocity":27,"Duration":200892,"SoundDuration":200892,"Delta":359714438},{"NoteNumber":57,"Velocity":20,"Duration":194805,"SoundDuration":194805,"Delta":359982295},{"NoteNumber":60,"Velocity":26,"Duration":194805,"SoundDuration":194805,"Delta":359982295},{"NoteNumber":65,"Velocity":33,"Duration":194805,"SoundDuration":194805,"Delta":359982295},{"NoteNumber":48,"Velocity":33,"Duration":194805,"SoundDuration":194805,"Delta":359982295},{"NoteNumber":65,"Velocity":30,"Duration":212264,"SoundDuration":212264,"Delta":360242036},{"NoteNumber":60,"Velocity":24,"Duration":212264,"SoundDuration":212264,"Delta":360242036},{"NoteNumber":57,"Velocity":24,"Duration":212264,"SoundDuration":212264,"Delta":360242036},{"NoteNumber":48,"Velocity":27,"Duration":212264,"SoundDuration":212264,"Delta":360242036},{"NoteNumber":65,"Velocity":30,"Duration":396104,"SoundDuration":396104,"Delta":360525055},{"NoteNumber":48,"Velocity":27,"Duration":259740,"SoundDuration":259740,"Delta":360525055},{"NoteNumber":41,"Velocity":27,"Duration":259740,"SoundDuration":259740,"Delta":360525055},{"NoteNumber":60,"Velocity":35,"Duration":331169,"SoundDuration":331169,"Delta":360589990},{"NoteNumber":69,"Velocity":42,"Duration":331169,"SoundDuration":331169,"Delta":360589990},{"NoteNumber":45,"Velocity":27,"Duration":272727,"SoundDuration":272727,"Delta":360784795},{"NoteNumber":48,"Velocity":27,"Duration":272727,"SoundDuration":272727,"Delta":360784795},{"NoteNumber":60,"Velocity":24,"Duration":136363,"SoundDuration":136363,"Delta":360921159},{"NoteNumber":65,"Velocity":30,"Duration":136363,"SoundDuration":136363,"Delta":360921159},{"NoteNumber":57,"Velocity":24,"Duration":136363,"SoundDuration":136363,"Delta":360921159},{"NoteNumber":57,"Velocity":28,"Duration":289854,"SoundDuration":289854,"Delta":361057523},{"NoteNumber":60,"Velocity":28,"Duration":289854,"SoundDuration":289854,"Delta":361057523},{"NoteNumber":65,"Velocity":35,"Duration":289854,"SoundDuration":289854,"Delta":361057523},{"NoteNumber":36,"Velocity":33,"Duration":2164340,"SoundDuration":2164340,"Delta":361057523},{"NoteNumber":55,"Velocity":23,"Duration":199999,"SoundDuration":199999,"Delta":361347378},{"NoteNumber":64,"Velocity":29,"Duration":199999,"SoundDuration":199999,"Delta":361347378},{"NoteNumber":60,"Velocity":23,"Duration":199999,"SoundDuration":199999,"Delta":361347378},{"NoteNumber":48,"Velocity":25,"Duration":199999,"SoundDuration":199999,"Delta":361347378},{"NoteNumber":60,"Velocity":23,"Duration":196506,"SoundDuration":196506,"Delta":361614044},{"NoteNumber":55,"Velocity":23,"Duration":196506,"SoundDuration":196506,"Delta":361614044},{"NoteNumber":64,"Velocity":29,"Duration":196506,"SoundDuration":196506,"Delta":361614044},{"NoteNumber":48,"Velocity":25,"Duration":196506,"SoundDuration":196506,"Delta":361614044},{"NoteNumber":64,"Velocity":29,"Duration":199114,"SoundDuration":199114,"Delta":361876053},{"NoteNumber":55,"Velocity":23,"Duration":199114,"SoundDuration":199114,"Delta":361876053},{"NoteNumber":60,"Velocity":23,"Duration":199114,"SoundDuration":199114,"Delta":361876053},{"NoteNumber":48,"Velocity":25,"Duration":199114,"SoundDuration":199114,"Delta":361876053},{"NoteNumber":55,"Velocity":26,"Duration":198237,"SoundDuration":198237,"Delta":362141539},{"NoteNumber":64,"Velocity":33,"Duration":198237,"SoundDuration":198237,"Delta":362141539},{"NoteNumber":60,"Velocity":26,"Duration":198237,"SoundDuration":198237,"Delta":362141539},{"NoteNumber":48,"Velocity":33,"Duration":198237,"SoundDuration":198237,"Delta":362141539},{"NoteNumber":64,"Velocity":28,"Duration":199999,"SoundDuration":199999,"Delta":362405856},{"NoteNumber":60,"Velocity":22,"Duration":199999,"SoundDuration":199999,"Delta":362405856},{"NoteNumber":55,"Velocity":22,"Duration":199999,"SoundDuration":199999,"Delta":362405856},{"NoteNumber":48,"Velocity":26,"Duration":199999,"SoundDuration":199999,"Delta":362405856},{"NoteNumber":57,"Velocity":24,"Duration":270270,"SoundDuration":270270,"Delta":362672523},{"NoteNumber":60,"Velocity":24,"Duration":270270,"SoundDuration":270270,"Delta":362672523},{"NoteNumber":65,"Velocity":31,"Duration":270270,"SoundDuration":270270,"Delta":362672523},{"NoteNumber":48,"Velocity":27,"Duration":270270,"SoundDuration":270270,"Delta":362672523},{"NoteNumber":67,"Velocity":34,"Duration":279069,"SoundDuration":279069,"Delta":362942793},{"NoteNumber":58,"Velocity":27,"Duration":279069,"SoundDuration":279069,"Delta":362942793},{"NoteNumber":60,"Velocity":27,"Duration":279069,"SoundDuration":279069,"Delta":362942793},{"NoteNumber":48,"Velocity":29,"Duration":279069,"SoundDuration":279069,"Delta":362942793},{"NoteNumber":58,"Velocity":30,"Duration":276497,"SoundDuration":276497,"Delta":363221863},{"NoteNumber":60,"Velocity":38,"Duration":276497,"SoundDuration":276497,"Delta":363221863},{"NoteNumber":41,"Velocity":38,"Duration":1266230,"SoundDuration":1266230,"Delta":363221863},{"NoteNumber":57,"Velocity":25,"Duration":189075,"SoundDuration":189075,"Delta":363498361},{"NoteNumber":65,"Velocity":32,"Duration":189075,"SoundDuration":189075,"Delta":363498361},{"NoteNumber":60,"Velocity":25,"Duration":189075,"SoundDuration":189075,"Delta":363498361},{"NoteNumber":48,"Velocity":25,"Duration":189075,"SoundDuration":189075,"Delta":363498361},{"NoteNumber":57,"Velocity":25,"Duration":193132,"SoundDuration":193132,"Delta":363750462},{"NoteNumber":60,"Velocity":25,"Duration":193132,"SoundDuration":193132,"Delta":363750462},{"NoteNumber":65,"Velocity":32,"Duration":193132,"SoundDuration":193132,"Delta":363750462},{"NoteNumber":45,"Velocity":25,"Duration":193132,"SoundDuration":193132,"Delta":363750462},{"NoteNumber":57,"Velocity":25,"Duration":200892,"SoundDuration":200892,"Delta":364007972},{"NoteNumber":60,"Velocity":25,"Duration":200892,"SoundDuration":200892,"Delta":364007972},{"NoteNumber":65,"Velocity":32,"Duration":200892,"SoundDuration":200892,"Delta":364007972},{"NoteNumber":48,"Velocity":27,"Duration":200892,"SoundDuration":200892,"Delta":364007972},{"NoteNumber":65,"Velocity":33,"Duration":212264,"SoundDuration":212264,"Delta":364275829},{"NoteNumber":60,"Velocity":26,"Duration":212264,"SoundDuration":212264,"Delta":364275829},{"NoteNumber":57,"Velocity":20,"Duration":212264,"SoundDuration":212264,"Delta":364275829},{"NoteNumber":53,"Velocity":33,"Duration":212264,"SoundDuration":212264,"Delta":364275829},{"NoteNumber":72,"Velocity":34,"Duration":272727,"SoundDuration":272727,"Delta":364558848},{"NoteNumber":69,"Velocity":27,"Duration":272727,"SoundDuration":272727,"Delta":364558848},{"NoteNumber":60,"Velocity":31,"Duration":272727,"SoundDuration":272727,"Delta":364558848},{"NoteNumber":57,"Velocity":31,"Duration":272727,"SoundDuration":272727,"Delta":364558848},{"NoteNumber":69,"Velocity":27,"Duration":259740,"SoundDuration":259740,"Delta":364831576},{"NoteNumber":77,"Velocity":42,"Duration":259740,"SoundDuration":259740,"Delta":364831576},{"NoteNumber":72,"Velocity":27,"Duration":259740,"SoundDuration":259740,"Delta":364831576},{"NoteNumber":65,"Velocity":31,"Duration":259740,"SoundDuration":259740,"Delta":364831576},{"NoteNumber":57,"Velocity":31,"Duration":259740,"SoundDuration":259740,"Delta":364831576},{"NoteNumber":60,"Velocity":31,"Duration":259740,"SoundDuration":259740,"Delta":364831576},{"NoteNumber":79,"Velocity":34,"Duration":267856,"SoundDuration":267856,"Delta":365091316},{"NoteNumber":76,"Velocity":27,"Duration":267856,"SoundDuration":267856,"Delta":365091316},{"NoteNumber":72,"Velocity":27,"Duration":267856,"SoundDuration":267856,"Delta":365091316},{"NoteNumber":60,"Velocity":31,"Duration":267856,"SoundDuration":267856,"Delta":365091316},{"NoteNumber":67,"Velocity":31,"Duration":267856,"SoundDuration":267856,"Delta":365091316},{"NoteNumber":64,"Velocity":31,"Duration":267856,"SoundDuration":267856,"Delta":365091316},{"NoteNumber":53,"Velocity":46,"Duration":139535,"SoundDuration":139535,"Delta":365359173},{"NoteNumber":72,"Velocity":26,"Duration":194805,"SoundDuration":194805,"Delta":365638243},{"NoteNumber":81,"Velocity":33,"Duration":194805,"SoundDuration":194805,"Delta":365638243},{"NoteNumber":77,"Velocity":26,"Duration":194805,"SoundDuration":194805,"Delta":365638243},{"NoteNumber":60,"Velocity":23,"Duration":194805,"SoundDuration":194805,"Delta":365638243},{"NoteNumber":69,"Velocity":28,"Duration":194805,"SoundDuration":194805,"Delta":365638243},{"NoteNumber":65,"Velocity":23,"Duration":194805,"SoundDuration":194805,"Delta":365638243},{"NoteNumber":81,"Velocity":33,"Duration":194805,"SoundDuration":194805,"Delta":365897984},{"NoteNumber":72,"Velocity":26,"Duration":194805,"SoundDuration":194805,"Delta":365897984},{"NoteNumber":77,"Velocity":26,"Duration":194805,"SoundDuration":194805,"Delta":365897984},{"NoteNumber":69,"Velocity":28,"Duration":194805,"SoundDuration":194805,"Delta":365897984},{"NoteNumber":60,"Velocity":23,"Duration":194805,"SoundDuration":194805,"Delta":365897984},{"NoteNumber":65,"Velocity":23,"Duration":194805,"SoundDuration":194805,"Delta":365897984},{"NoteNumber":77,"Velocity":26,"Duration":199114,"SoundDuration":199114,"Delta":366157724},{"NoteNumber":81,"Velocity":33,"Duration":199114,"SoundDuration":199114,"Delta":366157724},{"NoteNumber":72,"Velocity":26,"Duration":199114,"SoundDuration":199114,"Delta":366157724},{"NoteNumber":69,"Velocity":28,"Duration":199114,"SoundDuration":199114,"Delta":366157724},{"NoteNumber":65,"Velocity":23,"Duration":199114,"SoundDuration":199114,"Delta":366157724},{"NoteNumber":60,"Velocity":23,"Duration":199114,"SoundDuration":199114,"Delta":366157724},{"NoteNumber":71,"Velocity":29,"Duration":264317,"SoundDuration":264317,"Delta":366423211},{"NoteNumber":77,"Velocity":29,"Duration":264317,"SoundDuration":264317,"Delta":366423211},{"NoteNumber":80,"Velocity":37,"Duration":264317,"SoundDuration":264317,"Delta":366423211},{"NoteNumber":68,"Velocity":37,"Duration":264317,"SoundDuration":264317,"Delta":366423211},{"NoteNumber":65,"Velocity":31,"Duration":264317,"SoundDuration":264317,"Delta":366423211},{"NoteNumber":59,"Velocity":31,"Duration":264317,"SoundDuration":264317,"Delta":366423211},{"NoteNumber":72,"Velocity":25,"Duration":198237,"SoundDuration":198237,"Delta":366687528},{"NoteNumber":77,"Velocity":25,"Duration":198237,"SoundDuration":198237,"Delta":366687528},{"NoteNumber":81,"Velocity":32,"Duration":198237,"SoundDuration":198237,"Delta":366687528},{"NoteNumber":69,"Velocity":29,"Duration":198237,"SoundDuration":198237,"Delta":366687528},{"NoteNumber":60,"Velocity":24,"Duration":198237,"SoundDuration":198237,"Delta":366687528},{"NoteNumber":65,"Velocity":24,"Duration":198237,"SoundDuration":198237,"Delta":366687528},{"NoteNumber":77,"Velocity":27,"Duration":198237,"SoundDuration":198237,"Delta":366951845},{"NoteNumber":81,"Velocity":35,"Duration":198237,"SoundDuration":198237,"Delta":366951845},{"NoteNumber":72,"Velocity":27,"Duration":198237,"SoundDuration":198237,"Delta":366951845},{"NoteNumber":65,"Velocity":26,"Duration":198237,"SoundDuration":198237,"Delta":366951845},{"NoteNumber":69,"Velocity":31,"Duration":198237,"SoundDuration":198237,"Delta":366951845},{"NoteNumber":60,"Velocity":26,"Duration":198237,"SoundDuration":198237,"Delta":366951845},{"NoteNumber":81,"Velocity":39,"Duration":202702,"SoundDuration":202702,"Delta":367216162},{"NoteNumber":77,"Velocity":31,"Duration":202702,"SoundDuration":202702,"Delta":367216162},{"NoteNumber":72,"Velocity":31,"Duration":202702,"SoundDuration":202702,"Delta":367216162},{"NoteNumber":65,"Velocity":28,"Duration":202702,"SoundDuration":202702,"Delta":367216162},{"NoteNumber":60,"Velocity":28,"Duration":202702,"SoundDuration":202702,"Delta":367216162},{"NoteNumber":69,"Velocity":33,"Duration":202702,"SoundDuration":202702,"Delta":367216162},{"NoteNumber":84,"Velocity":43,"Duration":287081,"SoundDuration":287081,"Delta":367486432},{"NoteNumber":75,"Velocity":34,"Duration":287081,"SoundDuration":287081,"Delta":367486432},{"NoteNumber":77,"Velocity":34,"Duration":287081,"SoundDuration":287081,"Delta":367486432},{"NoteNumber":58,"Velocity":43,"Duration":1843771,"SoundDuration":1843771,"Delta":367486432},{"NoteNumber":74,"Velocity":28,"Duration":189075,"SoundDuration":189075,"Delta":367773514},{"NoteNumber":82,"Velocity":36,"Duration":189075,"SoundDuration":189075,"Delta":367773514},{"NoteNumber":77,"Velocity":28,"Duration":189075,"SoundDuration":189075,"Delta":367773514},{"NoteNumber":65,"Velocity":23,"Duration":189075,"SoundDuration":189075,"Delta":367773514},{"NoteNumber":70,"Velocity":28,"Duration":189075,"SoundDuration":189075,"Delta":367773514},{"NoteNumber":62,"Velocity":23,"Duration":189075,"SoundDuration":189075,"Delta":367773514},{"NoteNumber":82,"Velocity":36,"Duration":193132,"SoundDuration":193132,"Delta":368025615},{"NoteNumber":74,"Velocity":28,"Duration":193132,"SoundDuration":193132,"Delta":368025615},{"NoteNumber":77,"Velocity":28,"Duration":193132,"SoundDuration":193132,"Delta":368025615},{"NoteNumber":65,"Velocity":23,"Duration":193132,"SoundDuration":193132,"Delta":368025615},{"NoteNumber":70,"Velocity":28,"Duration":193132,"SoundDuration":193132,"Delta":368025615},{"NoteNumber":62,"Velocity":23,"Duration":193132,"SoundDuration":193132,"Delta":368025615},{"NoteNumber":74,"Velocity":28,"Duration":200892,"SoundDuration":200892,"Delta":368283125},{"NoteNumber":77,"Velocity":28,"Duration":200892,"SoundDuration":200892,"Delta":368283125},{"NoteNumber":82,"Velocity":36,"Duration":200892,"SoundDuration":200892,"Delta":368283125},{"NoteNumber":65,"Velocity":26,"Duration":200892,"SoundDuration":200892,"Delta":368283125},{"NoteNumber":70,"Velocity":31,"Duration":200892,"SoundDuration":200892,"Delta":368283125},{"NoteNumber":62,"Velocity":26,"Duration":200892,"SoundDuration":200892,"Delta":368283125},{"NoteNumber":77,"Velocity":29,"Duration":259740,"SoundDuration":259740,"Delta":368550982},{"NoteNumber":74,"Velocity":23,"Duration":259740,"SoundDuration":259740,"Delta":368550982},{"NoteNumber":82,"Velocity":37,"Duration":259740,"SoundDuration":259740,"Delta":368550982},{"NoteNumber":65,"Velocity":31,"Duration":259740,"SoundDuration":259740,"Delta":368550982},{"NoteNumber":70,"Velocity":37,"Duration":259740,"SoundDuration":259740,"Delta":368550982},{"NoteNumber":62,"Velocity":31,"Duration":259740,"SoundDuration":259740,"Delta":368550982},{"NoteNumber":72,"Velocity":27,"Duration":259740,"SoundDuration":259740,"Delta":368810723},{"NoteNumber":74,"Velocity":27,"Duration":259740,"SoundDuration":259740,"Delta":368810723},{"NoteNumber":81,"Velocity":34,"Duration":259740,"SoundDuration":259740,"Delta":368810723},{"NoteNumber":69,"Velocity":31,"Duration":259740,"SoundDuration":259740,"Delta":368810723},{"NoteNumber":62,"Velocity":26,"Duration":259740,"SoundDuration":259740,"Delta":368810723},{"NoteNumber":66,"Velocity":26,"Duration":259740,"SoundDuration":259740,"Delta":368810723},{"NoteNumber":74,"Velocity":27,"Duration":259740,"SoundDuration":259740,"Delta":369070463},{"NoteNumber":70,"Velocity":27,"Duration":259740,"SoundDuration":259740,"Delta":369070463},{"NoteNumber":79,"Velocity":34,"Duration":259740,"SoundDuration":259740,"Delta":369070463},{"NoteNumber":67,"Velocity":31,"Duration":259740,"SoundDuration":259740,"Delta":369070463},{"NoteNumber":62,"Velocity":26,"Duration":259740,"SoundDuration":259740,"Delta":369070463},{"NoteNumber":74,"Velocity":27,"Duration":267856,"SoundDuration":267856,"Delta":369330204},{"NoteNumber":77,"Velocity":34,"Duration":267856,"SoundDuration":267856,"Delta":369330204},{"NoteNumber":69,"Velocity":27,"Duration":267856,"SoundDuration":267856,"Delta":369330204},{"NoteNumber":59,"Velocity":26,"Duration":267856,"SoundDuration":267856,"Delta":369330204},{"NoteNumber":65,"Velocity":31,"Duration":267856,"SoundDuration":267856,"Delta":369330204},{"NoteNumber":62,"Velocity":26,"Duration":267856,"SoundDuration":267856,"Delta":369330204},{"NoteNumber":77,"Velocity":40,"Duration":264317,"SoundDuration":264317,"Delta":369598061},{"NoteNumber":72,"Velocity":32,"Duration":264317,"SoundDuration":264317,"Delta":369598061},{"NoteNumber":69,"Velocity":32,"Duration":264317,"SoundDuration":264317,"Delta":369598061},{"NoteNumber":48,"Velocity":37,"Duration":264317,"SoundDuration":264317,"Delta":369598061},{"NoteNumber":72,"Velocity":26,"Duration":194805,"SoundDuration":194805,"Delta":369862378},{"NoteNumber":76,"Velocity":33,"Duration":194805,"SoundDuration":194805,"Delta":369862378},{"NoteNumber":67,"Velocity":26,"Duration":194805,"SoundDuration":194805,"Delta":369862378},{"NoteNumber":64,"Velocity":28,"Duration":194805,"SoundDuration":194805,"Delta":369862378},{"NoteNumber":55,"Velocity":23,"Duration":194805,"SoundDuration":194805,"Delta":369862378},{"NoteNumber":60,"Velocity":23,"Duration":194805,"SoundDuration":194805,"Delta":369862378},{"NoteNumber":76,"Velocity":33,"Duration":194805,"SoundDuration":194805,"Delta":370122118},{"NoteNumber":67,"Velocity":26,"Duration":194805,"SoundDuration":194805,"Delta":370122118},{"NoteNumber":72,"Velocity":26,"Duration":194805,"SoundDuration":194805,"Delta":370122118},{"NoteNumber":64,"Velocity":28,"Duration":194805,"SoundDuration":194805,"Delta":370122118},{"NoteNumber":55,"Velocity":23,"Duration":194805,"SoundDuration":194805,"Delta":370122118},{"NoteNumber":60,"Velocity":23,"Duration":194805,"SoundDuration":194805,"Delta":370122118},{"NoteNumber":72,"Velocity":26,"Duration":199114,"SoundDuration":199114,"Delta":370381859},{"NoteNumber":67,"Velocity":26,"Duration":199114,"SoundDuration":199114,"Delta":370381859},{"NoteNumber":76,"Velocity":33,"Duration":199114,"SoundDuration":199114,"Delta":370381859},{"NoteNumber":64,"Velocity":28,"Duration":199114,"SoundDuration":199114,"Delta":370381859},{"NoteNumber":60,"Velocity":23,"Duration":199114,"SoundDuration":199114,"Delta":370381859},{"NoteNumber":55,"Velocity":23,"Duration":199114,"SoundDuration":199114,"Delta":370381859},{"NoteNumber":67,"Velocity":29,"Duration":210280,"SoundDuration":210280,"Delta":370647345},{"NoteNumber":76,"Velocity":37,"Duration":210280,"SoundDuration":210280,"Delta":370647345},{"NoteNumber":72,"Velocity":29,"Duration":210280,"SoundDuration":210280,"Delta":370647345},{"NoteNumber":55,"Velocity":31,"Duration":210280,"SoundDuration":210280,"Delta":370647345},{"NoteNumber":64,"Velocity":37,"Duration":210280,"SoundDuration":210280,"Delta":370647345},{"NoteNumber":60,"Velocity":31,"Duration":210280,"SoundDuration":210280,"Delta":370647345},{"NoteNumber":76,"Velocity":32,"Duration":203619,"SoundDuration":203619,"Delta":370927719},{"NoteNumber":72,"Velocity":25,"Duration":203619,"SoundDuration":203619,"Delta":370927719},{"NoteNumber":67,"Velocity":25,"Duration":203619,"SoundDuration":203619,"Delta":370927719},{"NoteNumber":55,"Velocity":24,"Duration":203619,"SoundDuration":203619,"Delta":370927719},{"NoteNumber":64,"Velocity":29,"Duration":203619,"SoundDuration":203619,"Delta":370927719},{"NoteNumber":60,"Velocity":24,"Duration":203619,"SoundDuration":203619,"Delta":370927719},{"NoteNumber":69,"Velocity":27,"Duration":275229,"SoundDuration":275229,"Delta":371199212},{"NoteNumber":77,"Velocity":35,"Duration":275229,"SoundDuration":275229,"Delta":371199212},{"NoteNumber":72,"Velocity":27,"Duration":275229,"SoundDuration":275229,"Delta":371199212},{"NoteNumber":57,"Velocity":26,"Duration":275229,"SoundDuration":275229,"Delta":371199212},{"NoteNumber":60,"Velocity":26,"Duration":275229,"SoundDuration":275229,"Delta":371199212},{"NoteNumber":65,"Velocity":31,"Duration":275229,"SoundDuration":275229,"Delta":371199212},{"NoteNumber":79,"Velocity":39,"Duration":281690,"SoundDuration":281690,"Delta":371474442},{"NoteNumber":72,"Velocity":31,"Duration":281690,"SoundDuration":281690,"Delta":371474442},{"NoteNumber":70,"Velocity":31,"Duration":281690,"SoundDuration":281690,"Delta":371474442},{"NoteNumber":60,"Velocity":28,"Duration":281690,"SoundDuration":281690,"Delta":371474442},{"NoteNumber":67,"Velocity":33,"Duration":281690,"SoundDuration":281690,"Delta":371474442},{"NoteNumber":58,"Velocity":28,"Duration":281690,"SoundDuration":281690,"Delta":371474442},{"NoteNumber":72,"Velocity":43,"Duration":285714,"SoundDuration":285714,"Delta":371756132},{"NoteNumber":70,"Velocity":34,"Duration":285714,"SoundDuration":285714,"Delta":371756132},{"NoteNumber":53,"Velocity":43,"Duration":1322923,"SoundDuration":1322923,"Delta":371756132},{"NoteNumber":77,"Velocity":36,"Duration":189075,"SoundDuration":189075,"Delta":372041846},{"NoteNumber":72,"Velocity":28,"Duration":189075,"SoundDuration":189075,"Delta":372041846},{"NoteNumber":69,"Velocity":28,"Duration":189075,"SoundDuration":189075,"Delta":372041846},{"NoteNumber":60,"Velocity":23,"Duration":189075,"SoundDuration":189075,"Delta":372041846},{"NoteNumber":57,"Velocity":23,"Duration":189075,"SoundDuration":189075,"Delta":372041846},{"NoteNumber":65,"Velocity":28,"Duration":189075,"SoundDuration":189075,"Delta":372041846},{"NoteNumber":77,"Velocity":36,"Duration":193132,"SoundDuration":193132,"Delta":372293947},{"NoteNumber":72,"Velocity":28,"Duration":193132,"SoundDuration":193132,"Delta":372293947},{"NoteNumber":69,"Velocity":28,"Duration":193132,"SoundDuration":193132,"Delta":372293947},{"NoteNumber":57,"Velocity":23,"Duration":193132,"SoundDuration":193132,"Delta":372293947},{"NoteNumber":65,"Velocity":28,"Duration":193132,"SoundDuration":193132,"Delta":372293947},{"NoteNumber":60,"Velocity":23,"Duration":193132,"SoundDuration":193132,"Delta":372293947},{"NoteNumber":77,"Velocity":36,"Duration":200892,"SoundDuration":200892,"Delta":372551458},{"NoteNumber":72,"Velocity":28,"Duration":200892,"SoundDuration":200892,"Delta":372551458},{"NoteNumber":69,"Velocity":28,"Duration":200892,"SoundDuration":200892,"Delta":372551458},{"NoteNumber":65,"Velocity":31,"Duration":200892,"SoundDuration":200892,"Delta":372551458},{"NoteNumber":57,"Velocity":26,"Duration":200892,"SoundDuration":200892,"Delta":372551458},{"NoteNumber":60,"Velocity":26,"Duration":200892,"SoundDuration":200892,"Delta":372551458},{"NoteNumber":72,"Velocity":29,"Duration":194805,"SoundDuration":194805,"Delta":372819315},{"NoteNumber":77,"Velocity":37,"Duration":194805,"SoundDuration":194805,"Delta":372819315},{"NoteNumber":69,"Velocity":23,"Duration":194805,"SoundDuration":194805,"Delta":372819315},{"NoteNumber":57,"Velocity":31,"Duration":194805,"SoundDuration":194805,"Delta":372819315},{"NoteNumber":60,"Velocity":31,"Duration":194805,"SoundDuration":194805,"Delta":372819315},{"NoteNumber":65,"Velocity":37,"Duration":194805,"SoundDuration":194805,"Delta":372819315},{"NoteNumber":77,"Velocity":34,"Duration":219512,"SoundDuration":219512,"Delta":373079055},{"NoteNumber":72,"Velocity":27,"Duration":219512,"SoundDuration":219512,"Delta":373079055},{"NoteNumber":69,"Velocity":27,"Duration":219512,"SoundDuration":219512,"Delta":373079055},{"NoteNumber":65,"Velocity":31,"Duration":219512,"SoundDuration":219512,"Delta":373079055},{"NoteNumber":60,"Velocity":26,"Duration":219512,"SoundDuration":219512,"Delta":373079055},{"NoteNumber":57,"Velocity":26,"Duration":219512,"SoundDuration":219512,"Delta":373079055},{"NoteNumber":77,"Velocity":39,"Duration":393669,"SoundDuration":393669,"Delta":373371738},{"NoteNumber":65,"Velocity":26,"Duration":259740,"SoundDuration":259740,"Delta":373371738},{"NoteNumber":69,"Velocity":31,"Duration":259740,"SoundDuration":259740,"Delta":373371738},{"NoteNumber":60,"Velocity":26,"Duration":259740,"SoundDuration":259740,"Delta":373371738},{"NoteNumber":81,"Velocity":52,"Duration":328733,"SoundDuration":328733,"Delta":373436673},{"NoteNumber":72,"Velocity":44,"Duration":328733,"SoundDuration":328733,"Delta":373436673},{"NoteNumber":60,"Velocity":26,"Duration":267856,"SoundDuration":267856,"Delta":373631479},{"NoteNumber":57,"Velocity":26,"Duration":267856,"SoundDuration":267856,"Delta":373631479},{"NoteNumber":65,"Velocity":31,"Duration":267856,"SoundDuration":267856,"Delta":373631479},{"NoteNumber":72,"Velocity":27,"Duration":133928,"SoundDuration":133928,"Delta":373765407},{"NoteNumber":69,"Velocity":27,"Duration":133928,"SoundDuration":133928,"Delta":373765407},{"NoteNumber":77,"Velocity":34,"Duration":133928,"SoundDuration":133928,"Delta":373765407},{"NoteNumber":72,"Velocity":32,"Duration":264317,"SoundDuration":264317,"Delta":373899336},{"NoteNumber":69,"Velocity":32,"Duration":264317,"SoundDuration":264317,"Delta":373899336},{"NoteNumber":77,"Velocity":40,"Duration":264317,"SoundDuration":264317,"Delta":373899336},{"NoteNumber":48,"Velocity":37,"Duration":264317,"SoundDuration":264317,"Delta":373899336},{"NoteNumber":67,"Velocity":26,"Duration":194805,"SoundDuration":194805,"Delta":374163653},{"NoteNumber":72,"Velocity":26,"Duration":194805,"SoundDuration":194805,"Delta":374163653},{"NoteNumber":76,"Velocity":33,"Duration":194805,"SoundDuration":194805,"Delta":374163653},{"NoteNumber":60,"Velocity":23,"Duration":194805,"SoundDuration":194805,"Delta":374163653},{"NoteNumber":55,"Velocity":23,"Duration":194805,"SoundDuration":194805,"Delta":374163653},{"NoteNumber":64,"Velocity":28,"Duration":194805,"SoundDuration":194805,"Delta":374163653},{"NoteNumber":67,"Velocity":26,"Duration":194805,"SoundDuration":194805,"Delta":374423393},{"NoteNumber":72,"Velocity":26,"Duration":194805,"SoundDuration":194805,"Delta":374423393},{"NoteNumber":76,"Velocity":33,"Duration":194805,"SoundDuration":194805,"Delta":374423393},{"NoteNumber":60,"Velocity":23,"Duration":194805,"SoundDuration":194805,"Delta":374423393},{"NoteNumber":64,"Velocity":28,"Duration":194805,"SoundDuration":194805,"Delta":374423393},{"NoteNumber":55,"Velocity":23,"Duration":194805,"SoundDuration":194805,"Delta":374423393},{"NoteNumber":67,"Velocity":26,"Duration":199114,"SoundDuration":199114,"Delta":374683134},{"NoteNumber":72,"Velocity":26,"Duration":199114,"SoundDuration":199114,"Delta":374683134},{"NoteNumber":76,"Velocity":33,"Duration":199114,"SoundDuration":199114,"Delta":374683134},{"NoteNumber":64,"Velocity":28,"Duration":199114,"SoundDuration":199114,"Delta":374683134},{"NoteNumber":55,"Velocity":23,"Duration":199114,"SoundDuration":199114,"Delta":374683134},{"NoteNumber":60,"Velocity":23,"Duration":199114,"SoundDuration":199114,"Delta":374683134},{"NoteNumber":76,"Velocity":37,"Duration":198237,"SoundDuration":198237,"Delta":374948620},{"NoteNumber":67,"Velocity":29,"Duration":198237,"SoundDuration":198237,"Delta":374948620},{"NoteNumber":72,"Velocity":29,"Duration":198237,"SoundDuration":198237,"Delta":374948620},{"NoteNumber":55,"Velocity":31,"Duration":198237,"SoundDuration":198237,"Delta":374948620},{"NoteNumber":64,"Velocity":37,"Duration":198237,"SoundDuration":198237,"Delta":374948620},{"NoteNumber":60,"Velocity":31,"Duration":198237,"SoundDuration":198237,"Delta":374948620},{"NoteNumber":72,"Velocity":25,"Duration":198237,"SoundDuration":198237,"Delta":375212937},{"NoteNumber":67,"Velocity":25,"Duration":198237,"SoundDuration":198237,"Delta":375212937},{"NoteNumber":76,"Velocity":32,"Duration":198237,"SoundDuration":198237,"Delta":375212937},{"NoteNumber":55,"Velocity":24,"Duration":198237,"SoundDuration":198237,"Delta":375212937},{"NoteNumber":60,"Velocity":24,"Duration":198237,"SoundDuration":198237,"Delta":375212937},{"NoteNumber":64,"Velocity":29,"Duration":198237,"SoundDuration":198237,"Delta":375212937},{"NoteNumber":77,"Velocity":35,"Duration":264317,"SoundDuration":264317,"Delta":375477254},{"NoteNumber":69,"Velocity":27,"Duration":264317,"SoundDuration":264317,"Delta":375477254},{"NoteNumber":72,"Velocity":27,"Duration":264317,"SoundDuration":264317,"Delta":375477254},{"NoteNumber":60,"Velocity":26,"Duration":264317,"SoundDuration":264317,"Delta":375477254},{"NoteNumber":57,"Velocity":26,"Duration":264317,"SoundDuration":264317,"Delta":375477254},{"NoteNumber":65,"Velocity":31,"Duration":264317,"SoundDuration":264317,"Delta":375477254},{"NoteNumber":79,"Velocity":39,"Duration":270270,"SoundDuration":270270,"Delta":375741571},{"NoteNumber":70,"Velocity":31,"Duration":270270,"SoundDuration":270270,"Delta":375741571},{"NoteNumber":72,"Velocity":31,"Duration":270270,"SoundDuration":270270,"Delta":375741571},{"NoteNumber":60,"Velocity":28,"Duration":270270,"SoundDuration":270270,"Delta":375741571},{"NoteNumber":67,"Velocity":33,"Duration":270270,"SoundDuration":270270,"Delta":375741571},{"NoteNumber":58,"Velocity":28,"Duration":270270,"SoundDuration":270270,"Delta":375741571},{"NoteNumber":70,"Velocity":34,"Duration":283019,"SoundDuration":283019,"Delta":376011842},{"NoteNumber":72,"Velocity":43,"Duration":283019,"SoundDuration":283019,"Delta":376011842},{"NoteNumber":53,"Velocity":43,"Duration":1255292,"SoundDuration":1255292,"Delta":376011842},{"NoteNumber":77,"Velocity":36,"Duration":189075,"SoundDuration":189075,"Delta":376294861},{"NoteNumber":69,"Velocity":28,"Duration":189075,"SoundDuration":189075,"Delta":376294861},{"NoteNumber":72,"Velocity":28,"Duration":189075,"SoundDuration":189075,"Delta":376294861},{"NoteNumber":57,"Velocity":23,"Duration":189075,"SoundDuration":189075,"Delta":376294861},{"NoteNumber":60,"Velocity":23,"Duration":189075,"SoundDuration":189075,"Delta":376294861},{"NoteNumber":65,"Velocity":28,"Duration":189075,"SoundDuration":189075,"Delta":376294861},{"NoteNumber":77,"Velocity":36,"Duration":193132,"SoundDuration":193132,"Delta":376546962},{"NoteNumber":69,"Velocity":28,"Duration":193132,"SoundDuration":193132,"Delta":376546962},{"NoteNumber":72,"Velocity":28,"Duration":193132,"SoundDuration":193132,"Delta":376546962},{"NoteNumber":60,"Velocity":23,"Duration":193132,"SoundDuration":193132,"Delta":376546962},{"NoteNumber":65,"Velocity":28,"Duration":193132,"SoundDuration":193132,"Delta":376546962},{"NoteNumber":57,"Velocity":23,"Duration":193132,"SoundDuration":193132,"Delta":376546962},{"NoteNumber":72,"Velocity":28,"Duration":200892,"SoundDuration":200892,"Delta":376804472},{"NoteNumber":77,"Velocity":36,"Duration":200892,"SoundDuration":200892,"Delta":376804472},{"NoteNumber":69,"Velocity":28,"Duration":200892,"SoundDuration":200892,"Delta":376804472},{"NoteNumber":65,"Velocity":31,"Duration":200892,"SoundDuration":200892,"Delta":376804472},{"NoteNumber":60,"Velocity":26,"Duration":200892,"SoundDuration":200892,"Delta":376804472},{"NoteNumber":57,"Velocity":26,"Duration":200892,"SoundDuration":200892,"Delta":376804472},{"NoteNumber":72,"Velocity":29,"Duration":194805,"SoundDuration":194805,"Delta":377072329},{"NoteNumber":77,"Velocity":37,"Duration":194805,"SoundDuration":194805,"Delta":377072329},{"NoteNumber":69,"Velocity":23,"Duration":194805,"SoundDuration":194805,"Delta":377072329},{"NoteNumber":57,"Velocity":31,"Duration":194805,"SoundDuration":194805,"Delta":377072329},{"NoteNumber":60,"Velocity":31,"Duration":194805,"SoundDuration":194805,"Delta":377072329},{"NoteNumber":65,"Velocity":37,"Duration":194805,"SoundDuration":194805,"Delta":377072329},{"NoteNumber":72,"Velocity":43,"Duration":136363,"SoundDuration":136363,"Delta":377332070},{"NoteNumber":60,"Velocity":31,"Duration":272727,"SoundDuration":272727,"Delta":377332070},{"NoteNumber":57,"Velocity":31,"Duration":272727,"SoundDuration":272727,"Delta":377332070},{"NoteNumber":84,"Velocity":36,"Duration":136363,"SoundDuration":136363,"Delta":377468434},{"NoteNumber":77,"Velocity":43,"Duration":129870,"SoundDuration":129870,"Delta":377604797},{"NoteNumber":60,"Velocity":31,"Duration":259740,"SoundDuration":259740,"Delta":377604797},{"NoteNumber":65,"Velocity":31,"Duration":259740,"SoundDuration":259740,"Delta":377604797},{"NoteNumber":57,"Velocity":31,"Duration":259740,"SoundDuration":259740,"Delta":377604797},{"NoteNumber":84,"Velocity":36,"Duration":129870,"SoundDuration":129870,"Delta":377734668},{"NoteNumber":79,"Velocity":44,"Duration":133928,"SoundDuration":133928,"Delta":377864538},{"NoteNumber":64,"Velocity":31,"Duration":267856,"SoundDuration":267856,"Delta":377864538},{"NoteNumber":60,"Velocity":31,"Duration":267856,"SoundDuration":267856,"Delta":377864538},{"NoteNumber":67,"Velocity":31,"Duration":267856,"SoundDuration":267856,"Delta":377864538},{"NoteNumber":84,"Velocity":36,"Duration":133928,"SoundDuration":133928,"Delta":377998466},{"NoteNumber":72,"Velocity":47,"Duration":139535,"SoundDuration":139535,"Delta":378132395},{"NoteNumber":53,"Velocity":46,"Duration":139535,"SoundDuration":139535,"Delta":378132395},{"NoteNumber":84,"Velocity":36,"Duration":139534,"SoundDuration":139534,"Delta":378271930},{"NoteNumber":81,"Velocity":43,"Duration":129870,"SoundDuration":129870,"Delta":378411465},{"NoteNumber":69,"Velocity":28,"Duration":194805,"SoundDuration":194805,"Delta":378411465},{"NoteNumber":65,"Velocity":23,"Duration":194805,"SoundDuration":194805,"Delta":378411465},{"NoteNumber":60,"Velocity":23,"Duration":194805,"SoundDuration":194805,"Delta":378411465},{"NoteNumber":72,"Velocity":36,"Duration":129870,"SoundDuration":129870,"Delta":378541335},{"NoteNumber":72,"Velocity":43,"Duration":129870,"SoundDuration":129870,"Delta":378671205},{"NoteNumber":60,"Velocity":23,"Duration":194805,"SoundDuration":194805,"Delta":378671205},{"NoteNumber":65,"Velocity":23,"Duration":194805,"SoundDuration":194805,"Delta":378671205},{"NoteNumber":69,"Velocity":28,"Duration":194805,"SoundDuration":194805,"Delta":378671205},{"NoteNumber":84,"Velocity":36,"Duration":129870,"SoundDuration":129870,"Delta":378801076},{"NoteNumber":81,"Velocity":43,"Duration":132743,"SoundDuration":132743,"Delta":378930946},{"NoteNumber":69,"Velocity":28,"Duration":199114,"SoundDuration":199114,"Delta":378930946},{"NoteNumber":65,"Velocity":23,"Duration":199114,"SoundDuration":199114,"Delta":378930946},{"NoteNumber":60,"Velocity":23,"Duration":199114,"SoundDuration":199114,"Delta":378930946},{"NoteNumber":72,"Velocity":36,"Duration":132743,"SoundDuration":132743,"Delta":379063689},{"NoteNumber":72,"Velocity":46,"Duration":132158,"SoundDuration":132158,"Delta":379196432},{"NoteNumber":59,"Velocity":31,"Duration":264317,"SoundDuration":264317,"Delta":379196432},{"NoteNumber":65,"Velocity":31,"Duration":264317,"SoundDuration":264317,"Delta":379196432},{"NoteNumber":68,"Velocity":37,"Duration":264317,"SoundDuration":264317,"Delta":379196432},{"NoteNumber":84,"Velocity":36,"Duration":132158,"SoundDuration":132158,"Delta":379328591},{"NoteNumber":81,"Velocity":45,"Duration":132158,"SoundDuration":132158,"Delta":379460749},{"NoteNumber":60,"Velocity":24,"Duration":198237,"SoundDuration":198237,"Delta":379460749},{"NoteNumber":65,"Velocity":24,"Duration":198237,"SoundDuration":198237,"Delta":379460749},{"NoteNumber":69,"Velocity":29,"Duration":198237,"SoundDuration":198237,"Delta":379460749},{"NoteNumber":72,"Velocity":36,"Duration":132158,"SoundDuration":132158,"Delta":379592908},{"NoteNumber":72,"Velocity":45,"Duration":132158,"SoundDuration":132158,"Delta":379725066},{"NoteNumber":65,"Velocity":26,"Duration":198237,"SoundDuration":198237,"Delta":379725066},{"NoteNumber":69,"Velocity":31,"Duration":198237,"SoundDuration":198237,"Delta":379725066},{"NoteNumber":60,"Velocity":26,"Duration":198237,"SoundDuration":198237,"Delta":379725066},{"NoteNumber":84,"Velocity":39,"Duration":132158,"SoundDuration":132158,"Delta":379857225},{"NoteNumber":77,"Velocity":46,"Duration":135135,"SoundDuration":135135,"Delta":379989383},{"NoteNumber":65,"Velocity":28,"Duration":202702,"SoundDuration":202702,"Delta":379989383},{"NoteNumber":69,"Velocity":33,"Duration":202702,"SoundDuration":202702,"Delta":379989383},{"NoteNumber":60,"Velocity":28,"Duration":202702,"SoundDuration":202702,"Delta":379989383},{"NoteNumber":89,"Velocity":36,"Duration":135135,"SoundDuration":135135,"Delta":380124519},{"NoteNumber":77,"Velocity":50,"Duration":143540,"SoundDuration":143540,"Delta":380259654},{"NoteNumber":65,"Velocity":31,"Duration":287081,"SoundDuration":287081,"Delta":380259654},{"NoteNumber":58,"Velocity":43,"Duration":1324290,"SoundDuration":1324290,"Delta":380259654},{"NoteNumber":63,"Velocity":31,"Duration":287081,"SoundDuration":287081,"Delta":380259654},{"NoteNumber":72,"Velocity":37,"Duration":287081,"SoundDuration":287081,"Delta":380259654},{"NoteNumber":89,"Velocity":36,"Duration":143540,"SoundDuration":143540,"Delta":380403195},{"NoteNumber":86,"Velocity":43,"Duration":126050,"SoundDuration":126050,"Delta":380546735},{"NoteNumber":70,"Velocity":28,"Duration":189075,"SoundDuration":189075,"Delta":380546735},{"NoteNumber":62,"Velocity":23,"Duration":189075,"SoundDuration":189075,"Delta":380546735},{"NoteNumber":65,"Velocity":23,"Duration":189075,"SoundDuration":189075,"Delta":380546735},{"NoteNumber":77,"Velocity":36,"Duration":126050,"SoundDuration":126050,"Delta":380672786},{"NoteNumber":77,"Velocity":50,"Duration":128755,"SoundDuration":128755,"Delta":380798836},{"NoteNumber":70,"Velocity":28,"Duration":193132,"SoundDuration":193132,"Delta":380798836},{"NoteNumber":65,"Velocity":23,"Duration":193132,"SoundDuration":193132,"Delta":380798836},{"NoteNumber":62,"Velocity":23,"Duration":193132,"SoundDuration":193132,"Delta":380798836},{"NoteNumber":89,"Velocity":36,"Duration":128755,"SoundDuration":128755,"Delta":380927592},{"NoteNumber":86,"Velocity":42,"Duration":133928,"SoundDuration":133928,"Delta":381056347},{"NoteNumber":62,"Velocity":26,"Duration":200892,"SoundDuration":200892,"Delta":381056347},{"NoteNumber":70,"Velocity":31,"Duration":200892,"SoundDuration":200892,"Delta":381056347},{"NoteNumber":65,"Velocity":26,"Duration":200892,"SoundDuration":200892,"Delta":381056347},{"NoteNumber":77,"Velocity":36,"Duration":133928,"SoundDuration":133928,"Delta":381190275},{"NoteNumber":77,"Velocity":48,"Duration":129870,"SoundDuration":129870,"Delta":381324204},{"NoteNumber":62,"Velocity":31,"Duration":259740,"SoundDuration":259740,"Delta":381324204},{"NoteNumber":70,"Velocity":37,"Duration":259740,"SoundDuration":259740,"Delta":381324204},{"NoteNumber":65,"Velocity":31,"Duration":259740,"SoundDuration":259740,"Delta":381324204},{"NoteNumber":89,"Velocity":40,"Duration":129870,"SoundDuration":129870,"Delta":381454074},{"NoteNumber":78,"Velocity":51,"Duration":129870,"SoundDuration":129870,"Delta":381583944},{"NoteNumber":69,"Velocity":31,"Duration":259740,"SoundDuration":259740,"Delta":381583944},{"NoteNumber":60,"Velocity":26,"Duration":259740,"SoundDuration":259740,"Delta":381583944},{"NoteNumber":62,"Velocity":26,"Duration":259740,"SoundDuration":259740,"Delta":381583944},{"NoteNumber":90,"Velocity":42,"Duration":129870,"SoundDuration":129870,"Delta":381713815},{"NoteNumber":79,"Velocity":57,"Duration":129870,"SoundDuration":129870,"Delta":381843685},{"NoteNumber":62,"Velocity":27,"Duration":259740,"SoundDuration":259740,"Delta":381843685},{"NoteNumber":67,"Velocity":32,"Duration":259740,"SoundDuration":259740,"Delta":381843685},{"NoteNumber":58,"Velocity":27,"Duration":259740,"SoundDuration":259740,"Delta":381843685},{"NoteNumber":91,"Velocity":43,"Duration":129870,"SoundDuration":129870,"Delta":381973555},{"NoteNumber":81,"Velocity":53,"Duration":133928,"SoundDuration":133928,"Delta":382103425},{"NoteNumber":93,"Velocity":53,"Duration":133928,"SoundDuration":133928,"Delta":382103425},{"NoteNumber":57,"Velocity":28,"Duration":267856,"SoundDuration":267856,"Delta":382103425},{"NoteNumber":65,"Velocity":33,"Duration":267856,"SoundDuration":267856,"Delta":382103425},{"NoteNumber":60,"Velocity":28,"Duration":267856,"SoundDuration":267856,"Delta":382103425},{"NoteNumber":82,"Velocity":59,"Duration":133928,"SoundDuration":133928,"Delta":382237354},{"NoteNumber":94,"Velocity":59,"Duration":133928,"SoundDuration":133928,"Delta":382237354},{"NoteNumber":84,"Velocity":67,"Duration":132158,"SoundDuration":132158,"Delta":382371282},{"NoteNumber":48,"Velocity":41,"Duration":264317,"SoundDuration":264317,"Delta":382371282},{"NoteNumber":96,"Velocity":53,"Duration":132158,"SoundDuration":132158,"Delta":382503441},{"NoteNumber":94,"Velocity":60,"Duration":129870,"SoundDuration":129870,"Delta":382635599},{"NoteNumber":60,"Velocity":26,"Duration":194805,"SoundDuration":194805,"Delta":382635599},{"NoteNumber":55,"Velocity":26,"Duration":194805,"SoundDuration":194805,"Delta":382635599},{"NoteNumber":64,"Velocity":32,"Duration":194805,"SoundDuration":194805,"Delta":382635599},{"NoteNumber":84,"Velocity":53,"Duration":129870,"SoundDuration":129870,"Delta":382765470},{"NoteNumber":84,"Velocity":63,"Duration":129870,"SoundDuration":129870,"Delta":382895340},{"NoteNumber":64,"Velocity":32,"Duration":194805,"SoundDuration":194805,"Delta":382895340},{"NoteNumber":55,"Velocity":26,"Duration":194805,"SoundDuration":194805,"Delta":382895340},{"NoteNumber":60,"Velocity":26,"Duration":194805,"SoundDuration":194805,"Delta":382895340},{"NoteNumber":96,"Velocity":53,"Duration":129870,"SoundDuration":129870,"Delta":383025210},{"NoteNumber":94,"Velocity":60,"Duration":132743,"SoundDuration":132743,"Delta":383155080},{"NoteNumber":55,"Velocity":26,"Duration":199114,"SoundDuration":199114,"Delta":383155080},{"NoteNumber":64,"Velocity":32,"Duration":199114,"SoundDuration":199114,"Delta":383155080},{"NoteNumber":60,"Velocity":26,"Duration":199114,"SoundDuration":199114,"Delta":383155080},{"NoteNumber":84,"Velocity":50,"Duration":132743,"SoundDuration":132743,"Delta":383287824},{"NoteNumber":84,"Velocity":59,"Duration":140187,"SoundDuration":140187,"Delta":383420567},{"NoteNumber":60,"Velocity":35,"Duration":210280,"SoundDuration":210280,"Delta":383420567},{"NoteNumber":55,"Velocity":35,"Duration":210280,"SoundDuration":210280,"Delta":383420567},{"NoteNumber":64,"Velocity":42,"Duration":210280,"SoundDuration":210280,"Delta":383420567},{"NoteNumber":96,"Velocity":45,"Duration":140186,"SoundDuration":140186,"Delta":383560754},{"NoteNumber":94,"Velocity":56,"Duration":135746,"SoundDuration":135746,"Delta":383700941},{"NoteNumber":64,"Velocity":33,"Duration":203619,"SoundDuration":203619,"Delta":383700941},{"NoteNumber":55,"Velocity":27,"Duration":203619,"SoundDuration":203619,"Delta":383700941},{"NoteNumber":60,"Velocity":27,"Duration":203619,"SoundDuration":203619,"Delta":383700941},{"NoteNumber":84,"Velocity":48,"Duration":135746,"SoundDuration":135746,"Delta":383836687},{"NoteNumber":93,"Velocity":58,"Duration":137614,"SoundDuration":137614,"Delta":383972434},{"NoteNumber":65,"Velocity":35,"Duration":275229,"SoundDuration":275229,"Delta":383972434},{"NoteNumber":57,"Velocity":29,"Duration":275229,"SoundDuration":275229,"Delta":383972434},{"NoteNumber":60,"Velocity":29,"Duration":275229,"SoundDuration":275229,"Delta":383972434},{"NoteNumber":96,"Velocity":47,"Duration":137614,"SoundDuration":137614,"Delta":384110049},{"NoteNumber":91,"Velocity":59,"Duration":140845,"SoundDuration":140845,"Delta":384247663},{"NoteNumber":58,"Velocity":32,"Duration":281690,"SoundDuration":281690,"Delta":384247663},{"NoteNumber":67,"Velocity":37,"Duration":281690,"SoundDuration":281690,"Delta":384247663},{"NoteNumber":60,"Velocity":32,"Duration":281690,"SoundDuration":281690,"Delta":384247663},{"NoteNumber":96,"Velocity":52,"Duration":140845,"SoundDuration":140845,"Delta":384388508},{"NoteNumber":84,"Velocity":64,"Duration":142857,"SoundDuration":142857,"Delta":384529353},{"NoteNumber":53,"Velocity":43,"Duration":1322923,"SoundDuration":1322923,"Delta":384529353},{"NoteNumber":58,"Velocity":31,"Duration":285714,"SoundDuration":285714,"Delta":384529353},{"NoteNumber":60,"Velocity":37,"Duration":285714,"SoundDuration":285714,"Delta":384529353},{"NoteNumber":96,"Velocity":43,"Duration":142857,"SoundDuration":142857,"Delta":384672211},{"NoteNumber":93,"Velocity":55,"Duration":126050,"SoundDuration":126050,"Delta":384815068},{"NoteNumber":57,"Velocity":26,"Duration":189075,"SoundDuration":189075,"Delta":384815068},{"NoteNumber":65,"Velocity":32,"Duration":189075,"SoundDuration":189075,"Delta":384815068},{"NoteNumber":60,"Velocity":26,"Duration":189075,"SoundDuration":189075,"Delta":384815068},{"NoteNumber":84,"Velocity":44,"Duration":126050,"SoundDuration":126050,"Delta":384941118},{"NoteNumber":84,"Velocity":51,"Duration":128755,"SoundDuration":128755,"Delta":385067169},{"NoteNumber":65,"Velocity":32,"Duration":193132,"SoundDuration":193132,"Delta":385067169},{"NoteNumber":60,"Velocity":26,"Duration":193132,"SoundDuration":193132,"Delta":385067169},{"NoteNumber":57,"Velocity":26,"Duration":193132,"SoundDuration":193132,"Delta":385067169},{"NoteNumber":96,"Velocity":43,"Duration":128755,"SoundDuration":128755,"Delta":385195924},{"NoteNumber":93,"Velocity":47,"Duration":133928,"SoundDuration":133928,"Delta":385324679},{"NoteNumber":57,"Velocity":29,"Duration":200892,"SoundDuration":200892,"Delta":385324679},{"NoteNumber":60,"Velocity":29,"Duration":200892,"SoundDuration":200892,"Delta":385324679},{"NoteNumber":65,"Velocity":35,"Duration":200892,"SoundDuration":200892,"Delta":385324679},{"NoteNumber":84,"Velocity":41,"Duration":133928,"SoundDuration":133928,"Delta":385458608},{"NoteNumber":84,"Velocity":47,"Duration":129870,"SoundDuration":129870,"Delta":385592536},{"NoteNumber":65,"Velocity":35,"Duration":259740,"SoundDuration":259740,"Delta":385592536},{"NoteNumber":60,"Velocity":35,"Duration":194805,"SoundDuration":194805,"Delta":385657471},{"NoteNumber":69,"Velocity":42,"Duration":194805,"SoundDuration":194805,"Delta":385657471},{"NoteNumber":96,"Velocity":39,"Duration":129870,"SoundDuration":129870,"Delta":385722407},{"NoteNumber":93,"Velocity":41,"Duration":146341,"SoundDuration":146341,"Delta":385852277},{"NoteNumber":60,"Velocity":26,"Duration":219512,"SoundDuration":219512,"Delta":385852277},{"NoteNumber":65,"Velocity":31,"Duration":219512,"SoundDuration":219512,"Delta":385852277},{"NoteNumber":57,"Velocity":26,"Duration":219512,"SoundDuration":219512,"Delta":385852277},{"NoteNumber":84,"Velocity":38,"Duration":146341,"SoundDuration":146341,"Delta":385998618},{"NoteNumber":89,"Velocity":47,"Duration":129870,"SoundDuration":129870,"Delta":386144960},{"NoteNumber":57,"Velocity":26,"Duration":194805,"SoundDuration":194805,"Delta":386144960},{"NoteNumber":60,"Velocity":26,"Duration":194805,"SoundDuration":194805,"Delta":386144960},{"NoteNumber":65,"Velocity":31,"Duration":194805,"SoundDuration":194805,"Delta":386144960},{"NoteNumber":101,"Velocity":42,"Duration":129870,"SoundDuration":129870,"Delta":386274830},{"NoteNumber":84,"Velocity":43,"Duration":133928,"SoundDuration":133928,"Delta":386404700},{"NoteNumber":65,"Velocity":31,"Duration":200892,"SoundDuration":200892,"Delta":386404700},{"NoteNumber":57,"Velocity":26,"Duration":200892,"SoundDuration":200892,"Delta":386404700},{"NoteNumber":60,"Velocity":26,"Duration":200892,"SoundDuration":200892,"Delta":386404700},{"NoteNumber":96,"Velocity":37,"Duration":133928,"SoundDuration":133928,"Delta":386538629},{"NoteNumber":84,"Velocity":50,"Duration":132158,"SoundDuration":132158,"Delta":386672557},{"NoteNumber":48,"Velocity":37,"Duration":264317,"SoundDuration":264317,"Delta":386672557},{"NoteNumber":96,"Velocity":37,"Duration":132158,"SoundDuration":132158,"Delta":386804716},{"NoteNumber":94,"Velocity":44,"Duration":129870,"SoundDuration":129870,"Delta":386936874},{"NoteNumber":60,"Velocity":23,"Duration":194805,"SoundDuration":194805,"Delta":386936874},{"NoteNumber":55,"Velocity":23,"Duration":194805,"SoundDuration":194805,"Delta":386936874},{"NoteNumber":64,"Velocity":28,"Duration":194805,"SoundDuration":194805,"Delta":386936874},{"NoteNumber":84,"Velocity":37,"Duration":129870,"SoundDuration":129870,"Delta":387066745},{"NoteNumber":84,"Velocity":48,"Duration":129870,"SoundDuration":129870,"Delta":387196615},{"NoteNumber":64,"Velocity":28,"Duration":194805,"SoundDuration":194805,"Delta":387196615},{"NoteNumber":60,"Velocity":23,"Duration":194805,"SoundDuration":194805,"Delta":387196615},{"NoteNumber":55,"Velocity":23,"Duration":194805,"SoundDuration":194805,"Delta":387196615},{"NoteNumber":96,"Velocity":37,"Duration":129870,"SoundDuration":129870,"Delta":387326485},{"NoteNumber":94,"Velocity":43,"Duration":132743,"SoundDuration":132743,"Delta":387456355},{"NoteNumber":64,"Velocity":28,"Duration":199114,"SoundDuration":199114,"Delta":387456355},{"NoteNumber":55,"Velocity":23,"Duration":199114,"SoundDuration":199114,"Delta":387456355},{"NoteNumber":60,"Velocity":23,"Duration":199114,"SoundDuration":199114,"Delta":387456355},{"NoteNumber":84,"Velocity":37,"Duration":132743,"SoundDuration":132743,"Delta":387589099},{"NoteNumber":84,"Velocity":48,"Duration":132158,"SoundDuration":132158,"Delta":387721842},{"NoteNumber":55,"Velocity":31,"Duration":198237,"SoundDuration":198237,"Delta":387721842},{"NoteNumber":60,"Velocity":31,"Duration":198237,"SoundDuration":198237,"Delta":387721842},{"NoteNumber":64,"Velocity":37,"Duration":198237,"SoundDuration":198237,"Delta":387721842},{"NoteNumber":96,"Velocity":37,"Duration":132158,"SoundDuration":132158,"Delta":387854000},{"NoteNumber":94,"Velocity":48,"Duration":132158,"SoundDuration":132158,"Delta":387986159},{"NoteNumber":64,"Velocity":29,"Duration":198237,"SoundDuration":198237,"Delta":387986159},{"NoteNumber":55,"Velocity":24,"Duration":198237,"SoundDuration":198237,"Delta":387986159},{"NoteNumber":60,"Velocity":24,"Duration":198237,"SoundDuration":198237,"Delta":387986159},{"NoteNumber":84,"Velocity":44,"Duration":132158,"SoundDuration":132158,"Delta":388118317},{"NoteNumber":93,"Velocity":53,"Duration":132158,"SoundDuration":132158,"Delta":388250476},{"NoteNumber":65,"Velocity":31,"Duration":264317,"SoundDuration":264317,"Delta":388250476},{"NoteNumber":57,"Velocity":26,"Duration":264317,"SoundDuration":264317,"Delta":388250476},{"NoteNumber":60,"Velocity":26,"Duration":264317,"SoundDuration":264317,"Delta":388250476},{"NoteNumber":96,"Velocity":46,"Duration":132158,"SoundDuration":132158,"Delta":388382634},{"NoteNumber":91,"Velocity":52,"Duration":135135,"SoundDuration":135135,"Delta":388514793},{"NoteNumber":58,"Velocity":28,"Duration":270270,"SoundDuration":270270,"Delta":388514793},{"NoteNumber":60,"Velocity":28,"Duration":270270,"SoundDuration":270270,"Delta":388514793},{"NoteNumber":67,"Velocity":33,"Duration":270270,"SoundDuration":270270,"Delta":388514793},{"NoteNumber":96,"Velocity":47,"Duration":135135,"SoundDuration":135135,"Delta":388649928},{"NoteNumber":84,"Velocity":58,"Duration":141509,"SoundDuration":141509,"Delta":388785063},{"NoteNumber":60,"Velocity":33,"Duration":283019,"SoundDuration":283019,"Delta":388785063},{"NoteNumber":58,"Velocity":29,"Duration":283019,"SoundDuration":283019,"Delta":388785063},{"NoteNumber":53,"Velocity":43,"Duration":1320228,"SoundDuration":1320228,"Delta":388785063},{"NoteNumber":96,"Velocity":36,"Duration":141509,"SoundDuration":141509,"Delta":388926573},{"NoteNumber":93,"Velocity":48,"Duration":126050,"SoundDuration":126050,"Delta":389068082},{"NoteNumber":60,"Velocity":23,"Duration":189075,"SoundDuration":189075,"Delta":389068082},{"NoteNumber":57,"Velocity":23,"Duration":189075,"SoundDuration":189075,"Delta":389068082},{"NoteNumber":65,"Velocity":28,"Duration":189075,"SoundDuration":189075,"Delta":389068082},{"NoteNumber":84,"Velocity":41,"Duration":126050,"SoundDuration":126050,"Delta":389194133},{"NoteNumber":84,"Velocity":54,"Duration":128755,"SoundDuration":128755,"Delta":389320183},{"NoteNumber":60,"Velocity":23,"Duration":193132,"SoundDuration":193132,"Delta":389320183},{"NoteNumber":57,"Velocity":23,"Duration":193132,"SoundDuration":193132,"Delta":389320183},{"NoteNumber":65,"Velocity":28,"Duration":193132,"SoundDuration":193132,"Delta":389320183},{"NoteNumber":96,"Velocity":36,"Duration":128755,"SoundDuration":128755,"Delta":389448939},{"NoteNumber":93,"Velocity":48,"Duration":133928,"SoundDuration":133928,"Delta":389577694},{"NoteNumber":65,"Velocity":31,"Duration":200892,"SoundDuration":200892,"Delta":389577694},{"NoteNumber":60,"Velocity":26,"Duration":200892,"SoundDuration":200892,"Delta":389577694},{"NoteNumber":57,"Velocity":26,"Duration":200892,"SoundDuration":200892,"Delta":389577694},{"NoteNumber":84,"Velocity":42,"Duration":133928,"SoundDuration":133928,"Delta":389711622},{"NoteNumber":84,"Velocity":57,"Duration":129870,"SoundDuration":129870,"Delta":389845551},{"NoteNumber":65,"Velocity":31,"Duration":259740,"SoundDuration":259740,"Delta":389845551},{"NoteNumber":60,"Velocity":31,"Duration":194805,"SoundDuration":194805,"Delta":389910486},{"NoteNumber":69,"Velocity":37,"Duration":194805,"SoundDuration":194805,"Delta":389910486},{"NoteNumber":96,"Velocity":41,"Duration":129870,"SoundDuration":129870,"Delta":389975421},{"NoteNumber":93,"Velocity":48,"Duration":146341,"SoundDuration":146341,"Delta":390105291},{"NoteNumber":60,"Velocity":26,"Duration":219512,"SoundDuration":219512,"Delta":390105291},{"NoteNumber":65,"Velocity":31,"Duration":219512,"SoundDuration":219512,"Delta":390105291},{"NoteNumber":57,"Velocity":26,"Duration":219512,"SoundDuration":219512,"Delta":390105291},{"NoteNumber":84,"Velocity":42,"Duration":146341,"SoundDuration":146341,"Delta":390251633},{"NoteNumber":89,"Velocity":53,"Duration":129870,"SoundDuration":129870,"Delta":390397974},{"NoteNumber":57,"Velocity":26,"Duration":194805,"SoundDuration":194805,"Delta":390397974},{"NoteNumber":65,"Velocity":31,"Duration":194805,"SoundDuration":194805,"Delta":390397974},{"NoteNumber":60,"Velocity":26,"Duration":194805,"SoundDuration":194805,"Delta":390397974},{"NoteNumber":101,"Velocity":44,"Duration":129870,"SoundDuration":129870,"Delta":390527845},{"NoteNumber":84,"Velocity":53,"Duration":133928,"SoundDuration":133928,"Delta":390657715},{"NoteNumber":65,"Velocity":31,"Duration":200892,"SoundDuration":200892,"Delta":390657715},{"NoteNumber":57,"Velocity":26,"Duration":200892,"SoundDuration":200892,"Delta":390657715},{"NoteNumber":60,"Velocity":26,"Duration":200892,"SoundDuration":200892,"Delta":390657715},{"NoteNumber":96,"Velocity":47,"Duration":133928,"SoundDuration":133928,"Delta":390791643},{"NoteNumber":84,"Velocity":63,"Duration":132158,"SoundDuration":132158,"Delta":390925572},{"NoteNumber":48,"Velocity":37,"Duration":264317,"SoundDuration":264317,"Delta":390925572},{"NoteNumber":96,"Velocity":52,"Duration":132158,"SoundDuration":132158,"Delta":391057730},{"NoteNumber":94,"Velocity":62,"Duration":129870,"SoundDuration":129870,"Delta":391189889},{"NoteNumber":64,"Velocity":28,"Duration":194805,"SoundDuration":194805,"Delta":391189889},{"NoteNumber":55,"Velocity":23,"Duration":194805,"SoundDuration":194805,"Delta":391189889},{"NoteNumber":60,"Velocity":23,"Duration":194805,"SoundDuration":194805,"Delta":391189889},{"NoteNumber":84,"Velocity":50,"Duration":129903,"SoundDuration":129903,"Delta":391319759},{"NoteNumber":84,"Velocity":63,"Duration":130672,"SoundDuration":130672,"Delta":391449662},{"NoteNumber":55,"Velocity":23,"Duration":196332,"SoundDuration":196332,"Delta":391449662},{"NoteNumber":60,"Velocity":23,"Duration":196332,"SoundDuration":196332,"Delta":391449662},{"NoteNumber":64,"Velocity":28,"Duration":196332,"SoundDuration":196332,"Delta":391449662},{"NoteNumber":96,"Velocity":54,"Duration":131526,"SoundDuration":131526,"Delta":391580334},{"NoteNumber":94,"Velocity":59,"Duration":132446,"SoundDuration":132446,"Delta":391711861},{"NoteNumber":60,"Velocity":23,"Duration":199029,"SoundDuration":199029,"Delta":391711861},{"NoteNumber":55,"Velocity":23,"Duration":199029,"SoundDuration":199029,"Delta":391711861},{"NoteNumber":64,"Velocity":28,"Duration":199029,"SoundDuration":199029,"Delta":391711861},{"NoteNumber":84,"Velocity":51,"Duration":133705,"SoundDuration":133705,"Delta":391844307},{"NoteNumber":84,"Velocity":64,"Duration":140624,"SoundDuration":140624,"Delta":391978013},{"NoteNumber":55,"Velocity":31,"Duration":212087,"SoundDuration":212087,"Delta":391978013},{"NoteNumber":64,"Velocity":37,"Duration":212087,"SoundDuration":212087,"Delta":391978013},{"NoteNumber":60,"Velocity":31,"Duration":212087,"SoundDuration":212087,"Delta":391978013},{"NoteNumber":96,"Velocity":48,"Duration":143642,"SoundDuration":143642,"Delta":392118638},{"NoteNumber":94,"Velocity":57,"Duration":146799,"SoundDuration":146799,"Delta":392262280},{"NoteNumber":55,"Velocity":24,"Duration":221465,"SoundDuration":221465,"Delta":392262280},{"NoteNumber":64,"Velocity":29,"Duration":221465,"SoundDuration":221465,"Delta":392262280},{"NoteNumber":60,"Velocity":24,"Duration":221465,"SoundDuration":221465,"Delta":392262280},{"NoteNumber":84,"Velocity":46,"Duration":150157,"SoundDuration":150157,"Delta":392409080},{"NoteNumber":93,"Velocity":63,"Duration":152284,"SoundDuration":152284,"Delta":392559238},{"NoteNumber":57,"Velocity":26,"Duration":304568,"SoundDuration":304568,"Delta":392559238},{"NoteNumber":60,"Velocity":26,"Duration":304568,"SoundDuration":304568,"Delta":392559238},{"NoteNumber":65,"Velocity":31,"Duration":304568,"SoundDuration":304568,"Delta":392559238},{"NoteNumber":96,"Velocity":52,"Duration":152284,"SoundDuration":152284,"Delta":392711522},{"NoteNumber":91,"Velocity":59,"Duration":168539,"SoundDuration":168539,"Delta":392863807},{"NoteNumber":67,"Velocity":33,"Duration":337078,"SoundDuration":337078,"Delta":392863807},{"NoteNumber":60,"Velocity":28,"Duration":337078,"SoundDuration":337078,"Delta":392863807},{"NoteNumber":58,"Velocity":28,"Duration":337078,"SoundDuration":337078,"Delta":392863807},{"NoteNumber":96,"Velocity":48,"Duration":168539,"SoundDuration":168539,"Delta":393032346},{"NoteNumber":91,"Velocity":59,"Duration":1439705,"SoundDuration":1439705,"Delta":393200885},{"NoteNumber":48,"Velocity":33,"Duration":291262,"SoundDuration":291262,"Delta":393200885},{"NoteNumber":67,"Velocity":33,"Duration":3853922,"SoundDuration":3853922,"Delta":393783409},{"NoteNumber":58,"Velocity":33,"Duration":3853922,"SoundDuration":3853922,"Delta":393783409},{"NoteNumber":60,"Velocity":33,"Duration":3853922,"SoundDuration":3853922,"Delta":393783409},{"NoteNumber":93,"Velocity":66,"Duration":288461,"SoundDuration":288461,"Delta":394640591},{"NoteNumber":94,"Velocity":71,"Duration":301507,"SoundDuration":301507,"Delta":394929052},{"NoteNumber":95,"Velocity":75,"Duration":301507,"SoundDuration":301507,"Delta":395230560},{"NoteNumber":96,"Velocity":79,"Duration":1578948,"SoundDuration":1578948,"Delta":395532067},{"NoteNumber":88,"Velocity":66,"Duration":526315,"SoundDuration":526315,"Delta":397111015},{"NoteNumber":89,"Velocity":56,"Duration":126050,"SoundDuration":126050,"Delta":397637331},{"NoteNumber":53,"Velocity":33,"Duration":1512606,"SoundDuration":1512606,"Delta":397637331},{"NoteNumber":60,"Velocity":33,"Duration":1512606,"SoundDuration":1512606,"Delta":397637331},{"NoteNumber":57,"Velocity":33,"Duration":1512606,"SoundDuration":1512606,"Delta":397637331},{"NoteNumber":65,"Velocity":33,"Duration":1512606,"SoundDuration":1512606,"Delta":397637331},{"NoteNumber":93,"Velocity":49,"Duration":126050,"SoundDuration":126050,"Delta":397763382},{"NoteNumber":84,"Velocity":49,"Duration":126050,"SoundDuration":126050,"Delta":397889432},{"NoteNumber":89,"Velocity":49,"Duration":126050,"SoundDuration":126050,"Delta":398015483},{"NoteNumber":81,"Velocity":56,"Duration":126050,"SoundDuration":126050,"Delta":398141533},{"NoteNumber":84,"Velocity":44,"Duration":126050,"SoundDuration":126050,"Delta":398267584},{"NoteNumber":77,"Velocity":46,"Duration":126050,"SoundDuration":126050,"Delta":398393634},{"NoteNumber":81,"Velocity":46,"Duration":126050,"SoundDuration":126050,"Delta":398519685},{"NoteNumber":72,"Velocity":51,"Duration":126050,"SoundDuration":126050,"Delta":398645735},{"NoteNumber":77,"Velocity":44,"Duration":126050,"SoundDuration":126050,"Delta":398771786},{"NoteNumber":69,"Velocity":44,"Duration":126050,"SoundDuration":126050,"Delta":398897836},{"NoteNumber":72,"Velocity":44,"Duration":126050,"SoundDuration":126050,"Delta":399023887},{"NoteNumber":65,"Velocity":51,"Duration":126050,"SoundDuration":126050,"Delta":399149937},{"NoteNumber":69,"Velocity":43,"Duration":126050,"SoundDuration":126050,"Delta":399275988},{"NoteNumber":60,"Velocity":43,"Duration":126050,"SoundDuration":126050,"Delta":399402038},{"NoteNumber":65,"Velocity":43,"Duration":134529,"SoundDuration":134529,"Delta":399528089},{"NoteNumber":69,"Velocity":47,"Duration":124481,"SoundDuration":124481,"Delta":399662618},{"NoteNumber":72,"Velocity":38,"Duration":124481,"SoundDuration":124481,"Delta":399787099},{"NoteNumber":60,"Velocity":38,"Duration":124481,"SoundDuration":124481,"Delta":399911580},{"NoteNumber":65,"Velocity":38,"Duration":124481,"SoundDuration":124481,"Delta":400036062},{"NoteNumber":69,"Velocity":40,"Duration":124481,"SoundDuration":124481,"Delta":400160543},{"NoteNumber":72,"Velocity":36,"Duration":124481,"SoundDuration":124481,"Delta":400285024},{"NoteNumber":60,"Velocity":35,"Duration":124481,"SoundDuration":124481,"Delta":400409505},{"NoteNumber":65,"Velocity":34,"Duration":133333,"SoundDuration":133333,"Delta":400533987},{"NoteNumber":69,"Velocity":39,"Duration":123966,"SoundDuration":123966,"Delta":400667320},{"NoteNumber":72,"Velocity":31,"Duration":123966,"SoundDuration":123966,"Delta":400791287},{"NoteNumber":60,"Velocity":30,"Duration":123966,"SoundDuration":123966,"Delta":400915254},{"NoteNumber":65,"Velocity":30,"Duration":123966,"SoundDuration":123966,"Delta":401039221},{"NoteNumber":69,"Velocity":38,"Duration":123967,"SoundDuration":123967,"Delta":401163188},{"NoteNumber":72,"Velocity":29,"Duration":123966,"SoundDuration":123966,"Delta":401287155},{"NoteNumber":60,"Velocity":29,"Duration":123966,"SoundDuration":123966,"Delta":401411122},{"NoteNumber":65,"Velocity":29,"Duration":129456,"SoundDuration":129456,"Delta":401535089},{"NoteNumber":41,"Velocity":37,"Duration":500000,"SoundDuration":500000,"Delta":401664545},{"NoteNumber":68,"Velocity":37,"Duration":125000,"SoundDuration":125000,"Delta":401664545},{"NoteNumber":72,"Velocity":29,"Duration":125000,"SoundDuration":125000,"Delta":401784337},{"NoteNumber":60,"Velocity":29,"Duration":125000,"SoundDuration":125000,"Delta":401914545},{"NoteNumber":65,"Velocity":27,"Duration":125000,"SoundDuration":125000,"Delta":402039545},{"NoteNumber":68,"Velocity":37,"Duration":123026,"SoundDuration":123026,"Delta":402164545},{"NoteNumber":72,"Velocity":29,"Duration":124369,"SoundDuration":124369,"Delta":402287572},{"NoteNumber":60,"Velocity":29,"Duration":123971,"SoundDuration":123971,"Delta":402411941},{"NoteNumber":65,"Velocity":28,"Duration":124841,"SoundDuration":124841,"Delta":402535912},{"NoteNumber":68,"Velocity":37,"Duration":123476,"SoundDuration":123476,"Delta":402660754},{"NoteNumber":72,"Velocity":29,"Duration":123351,"SoundDuration":123351,"Delta":402784231},{"NoteNumber":60,"Velocity":29,"Duration":129310,"SoundDuration":129310,"Delta":402907582},{"NoteNumber":65,"Velocity":26,"Duration":129310,"SoundDuration":129310,"Delta":403036892},{"NoteNumber":80,"Velocity":45,"Duration":252100,"SoundDuration":252100,"Delta":403166202},{"NoteNumber":77,"Velocity":38,"Duration":252100,"SoundDuration":252100,"Delta":403166202},{"NoteNumber":68,"Velocity":37,"Duration":126050,"SoundDuration":126050,"Delta":403166202},{"NoteNumber":72,"Velocity":29,"Duration":126050,"SoundDuration":126050,"Delta":403292253},{"NoteNumber":82,"Velocity":48,"Duration":291733,"SoundDuration":291733,"Delta":403418303},{"NoteNumber":79,"Velocity":40,"Duration":291733,"SoundDuration":291733,"Delta":403418303},{"NoteNumber":70,"Velocity":36,"Duration":132158,"SoundDuration":132158,"Delta":403418303},{"NoteNumber":72,"Velocity":39,"Duration":159574,"SoundDuration":159574,"Delta":403550462},{"NoteNumber":84,"Velocity":50,"Duration":499589,"SoundDuration":499589,"Delta":403710036},{"NoteNumber":80,"Velocity":42,"Duration":499589,"SoundDuration":499589,"Delta":403710036},{"NoteNumber":68,"Velocity":47,"Duration":123181,"SoundDuration":123181,"Delta":403710036},{"NoteNumber":72,"Velocity":36,"Duration":126023,"SoundDuration":126023,"Delta":403833218},{"NoteNumber":60,"Velocity":36,"Duration":124654,"SoundDuration":124654,"Delta":403959242},{"NoteNumber":65,"Velocity":32,"Duration":125729,"SoundDuration":125729,"Delta":404083896},{"NoteNumber":68,"Velocity":40,"Duration":124684,"SoundDuration":124684,"Delta":404209625},{"NoteNumber":72,"Velocity":36,"Duration":123289,"SoundDuration":123289,"Delta":404334309},{"NoteNumber":60,"Velocity":36,"Duration":125313,"SoundDuration":125313,"Delta":404457599},{"NoteNumber":65,"Velocity":32,"Duration":124589,"SoundDuration":124589,"Delta":404582912},{"NoteNumber":68,"Velocity":45,"Duration":134529,"SoundDuration":134529,"Delta":404707502},{"NoteNumber":72,"Velocity":35,"Duration":134529,"SoundDuration":134529,"Delta":404842031},{"NoteNumber":56,"Velocity":44,"Duration":249297,"SoundDuration":249297,"Delta":404976560},{"NoteNumber":60,"Velocity":37,"Duration":249297,"SoundDuration":249297,"Delta":404976560},{"NoteNumber":65,"Velocity":35,"Duration":124249,"SoundDuration":124249,"Delta":404976560},{"NoteNumber":68,"Velocity":35,"Duration":124249,"SoundDuration":124249,"Delta":404976560},{"NoteNumber":72,"Velocity":31,"Duration":125047,"SoundDuration":125047,"Delta":405100810},{"NoteNumber":60,"Velocity":39,"Duration":247543,"SoundDuration":247543,"Delta":405225857},{"NoteNumber":55,"Velocity":47,"Duration":247543,"SoundDuration":247543,"Delta":405225857},{"NoteNumber":70,"Velocity":44,"Duration":123948,"SoundDuration":123948,"Delta":405225857},{"NoteNumber":64,"Velocity":44,"Duration":123948,"SoundDuration":123948,"Delta":405225857},{"NoteNumber":72,"Velocity":29,"Duration":123594,"SoundDuration":123594,"Delta":405349806},{"NoteNumber":53,"Velocity":50,"Duration":251341,"SoundDuration":251341,"Delta":405473401},{"NoteNumber":60,"Velocity":42,"Duration":251341,"SoundDuration":251341,"Delta":405473401},{"NoteNumber":68,"Velocity":31,"Duration":126529,"SoundDuration":126529,"Delta":405473401},{"NoteNumber":65,"Velocity":31,"Duration":126529,"SoundDuration":126529,"Delta":405473401},{"NoteNumber":72,"Velocity":28,"Duration":124812,"SoundDuration":124812,"Delta":405599930},{"NoteNumber":60,"Velocity":39,"Duration":245695,"SoundDuration":245695,"Delta":405724742},{"NoteNumber":48,"Velocity":55,"Duration":245695,"SoundDuration":245695,"Delta":405724742},{"NoteNumber":67,"Velocity":37,"Duration":122492,"SoundDuration":122492,"Delta":405724742},{"NoteNumber":64,"Velocity":37,"Duration":122492,"SoundDuration":122492,"Delta":405724742},{"NoteNumber":72,"Velocity":29,"Duration":123098,"SoundDuration":123098,"Delta":405842173},{"NoteNumber":60,"Velocity":29,"Duration":122801,"SoundDuration":122801,"Delta":405970437},{"NoteNumber":64,"Velocity":27,"Duration":124481,"SoundDuration":124481,"Delta":406093239},{"NoteNumber":67,"Velocity":37,"Duration":126044,"SoundDuration":126044,"Delta":406217720},{"NoteNumber":72,"Velocity":29,"Duration":124223,"SoundDuration":124223,"Delta":406343765},{"NoteNumber":60,"Velocity":29,"Duration":123961,"SoundDuration":123961,"Delta":406467989},{"NoteNumber":64,"Velocity":27,"Duration":127128,"SoundDuration":127128,"Delta":406591950},{"NoteNumber":67,"Velocity":37,"Duration":123617,"SoundDuration":123617,"Delta":406719079},{"NoteNumber":72,"Velocity":29,"Duration":124977,"SoundDuration":124977,"Delta":406842696},{"NoteNumber":60,"Velocity":29,"Duration":129310,"SoundDuration":129310,"Delta":406967673},{"NoteNumber":64,"Velocity":26,"Duration":129310,"SoundDuration":129310,"Delta":407096984},{"NoteNumber":79,"Velocity":54,"Duration":252100,"SoundDuration":252100,"Delta":407226294},{"NoteNumber":82,"Velocity":64,"Duration":252100,"SoundDuration":252100,"Delta":407226294},{"NoteNumber":67,"Velocity":42,"Duration":126050,"SoundDuration":126050,"Delta":407226294},{"NoteNumber":72,"Velocity":31,"Duration":126050,"SoundDuration":126050,"Delta":407352344},{"NoteNumber":85,"Velocity":61,"Duration":288611,"SoundDuration":288611,"Delta":407478395},{"NoteNumber":82,"Velocity":51,"Duration":288611,"SoundDuration":288611,"Delta":407478395},{"NoteNumber":70,"Velocity":31,"Duration":132158,"SoundDuration":132158,"Delta":407478395},{"NoteNumber":72,"Velocity":28,"Duration":156453,"SoundDuration":156453,"Delta":407610553},{"NoteNumber":84,"Velocity":57,"Duration":496749,"SoundDuration":496749,"Delta":407767007},{"NoteNumber":80,"Velocity":48,"Duration":496749,"SoundDuration":496749,"Delta":407767007},{"NoteNumber":68,"Velocity":39,"Duration":123186,"SoundDuration":123186,"Delta":407767007},{"NoteNumber":72,"Velocity":29,"Duration":124305,"SoundDuration":124305,"Delta":407897336},{"NoteNumber":60,"Velocity":29,"Duration":123478,"SoundDuration":123478,"Delta":408026849},{"NoteNumber":65,"Velocity":27,"Duration":126145,"SoundDuration":126145,"Delta":408150327},{"NoteNumber":68,"Velocity":42,"Duration":124246,"SoundDuration":124246,"Delta":408276472},{"NoteNumber":72,"Velocity":34,"Duration":123143,"SoundDuration":123143,"Delta":408400719},{"NoteNumber":60,"Velocity":34,"Duration":123974,"SoundDuration":123974,"Delta":408523862},{"NoteNumber":65,"Velocity":29,"Duration":125896,"SoundDuration":125896,"Delta":408647836},{"NoteNumber":68,"Velocity":41,"Duration":134529,"SoundDuration":134529,"Delta":408773733},{"NoteNumber":72,"Velocity":33,"Duration":132603,"SoundDuration":132603,"Delta":408908262},{"NoteNumber":60,"Velocity":33,"Duration":122827,"SoundDuration":122827,"Delta":409028417},{"NoteNumber":65,"Velocity":30,"Duration":124408,"SoundDuration":124408,"Delta":409151244},{"NoteNumber":56,"Velocity":57,"Duration":247784,"SoundDuration":247784,"Delta":409275653},{"NoteNumber":60,"Velocity":41,"Duration":247784,"SoundDuration":247784,"Delta":409275653},{"NoteNumber":68,"Velocity":37,"Duration":123428,"SoundDuration":123428,"Delta":409275653},{"NoteNumber":72,"Velocity":29,"Duration":124715,"SoundDuration":124715,"Delta":409411377},{"NoteNumber":55,"Velocity":47,"Duration":251453,"SoundDuration":251453,"Delta":409523438},{"NoteNumber":60,"Velocity":39,"Duration":251453,"SoundDuration":251453,"Delta":409523438},{"NoteNumber":70,"Velocity":29,"Duration":126911,"SoundDuration":126911,"Delta":409523438},{"NoteNumber":64,"Velocity":29,"Duration":126911,"SoundDuration":126911,"Delta":409523438},{"NoteNumber":72,"Velocity":26,"Duration":112037,"SoundDuration":112037,"Delta":409662854},{"NoteNumber":53,"Velocity":50,"Duration":247635,"SoundDuration":247635,"Delta":409774891},{"NoteNumber":60,"Velocity":42,"Duration":247635,"SoundDuration":247635,"Delta":409774891},{"NoteNumber":65,"Velocity":37,"Duration":124290,"SoundDuration":124290,"Delta":409774891},{"NoteNumber":68,"Velocity":37,"Duration":124290,"SoundDuration":124290,"Delta":409774891},{"NoteNumber":72,"Velocity":29,"Duration":123280,"SoundDuration":123280,"Delta":409894038},{"NoteNumber":60,"Velocity":29,"Duration":126586,"SoundDuration":126586,"Delta":410022527},{"NoteNumber":65,"Velocity":25,"Duration":122429,"SoundDuration":122429,"Delta":410149114},{"NoteNumber":68,"Velocity":38,"Duration":125911,"SoundDuration":125911,"Delta":410271543},{"NoteNumber":72,"Velocity":30,"Duration":125782,"SoundDuration":125782,"Delta":410397454},{"NoteNumber":60,"Velocity":31,"Duration":123707,"SoundDuration":123707,"Delta":410523236},{"NoteNumber":65,"Velocity":29,"Duration":126564,"SoundDuration":126564,"Delta":410646944},{"NoteNumber":68,"Velocity":40,"Duration":122886,"SoundDuration":122886,"Delta":410773509},{"NoteNumber":72,"Velocity":32,"Duration":124113,"SoundDuration":124113,"Delta":410896396},{"NoteNumber":60,"Velocity":32,"Duration":129310,"SoundDuration":129310,"Delta":411020510},{"NoteNumber":65,"Velocity":30,"Duration":129310,"SoundDuration":129310,"Delta":411149820},{"NoteNumber":77,"Velocity":43,"Duration":252100,"SoundDuration":252100,"Delta":411279130},{"NoteNumber":80,"Velocity":51,"Duration":252100,"SoundDuration":252100,"Delta":411279130},{"NoteNumber":68,"Velocity":42,"Duration":126050,"SoundDuration":126050,"Delta":411279130},{"NoteNumber":72,"Velocity":33,"Duration":126050,"SoundDuration":126050,"Delta":411405181},{"NoteNumber":79,"Velocity":46,"Duration":288516,"SoundDuration":288516,"Delta":411531231},{"NoteNumber":82,"Velocity":55,"Duration":288516,"SoundDuration":288516,"Delta":411531231},{"NoteNumber":63,"Velocity":41,"Duration":132158,"SoundDuration":132158,"Delta":411531231},{"NoteNumber":70,"Velocity":41,"Duration":132158,"SoundDuration":132158,"Delta":411531231},{"NoteNumber":75,"Velocity":44,"Duration":156357,"SoundDuration":156357,"Delta":411663390},{"NoteNumber":80,"Velocity":48,"Duration":497376,"SoundDuration":497376,"Delta":411819747},{"NoteNumber":84,"Velocity":57,"Duration":497376,"SoundDuration":497376,"Delta":411819747},{"NoteNumber":72,"Velocity":54,"Duration":123173,"SoundDuration":123173,"Delta":411819747},{"NoteNumber":68,"Velocity":54,"Duration":123173,"SoundDuration":123173,"Delta":411819747},{"NoteNumber":75,"Velocity":41,"Duration":124890,"SoundDuration":124890,"Delta":411942921},{"NoteNumber":63,"Velocity":41,"Duration":123314,"SoundDuration":123314,"Delta":412069882},{"NoteNumber":68,"Velocity":37,"Duration":126001,"SoundDuration":126001,"Delta":412191122},{"NoteNumber":72,"Velocity":46,"Duration":123455,"SoundDuration":123455,"Delta":412317124},{"NoteNumber":75,"Velocity":41,"Duration":127022,"SoundDuration":127022,"Delta":412440580},{"NoteNumber":63,"Velocity":41,"Duration":124078,"SoundDuration":124078,"Delta":412567602},{"NoteNumber":68,"Velocity":40,"Duration":124939,"SoundDuration":124939,"Delta":412691681},{"NoteNumber":72,"Velocity":51,"Duration":134529,"SoundDuration":134529,"Delta":412816620},{"NoteNumber":75,"Velocity":44,"Duration":134529,"SoundDuration":134529,"Delta":412951149},{"NoteNumber":63,"Velocity":42,"Duration":250000,"SoundDuration":250000,"Delta":413085679},{"NoteNumber":60,"Velocity":50,"Duration":250000,"SoundDuration":250000,"Delta":413085679},{"NoteNumber":68,"Velocity":46,"Duration":125000,"SoundDuration":125000,"Delta":413085679},{"NoteNumber":72,"Velocity":46,"Duration":125000,"SoundDuration":125000,"Delta":413085679},{"NoteNumber":75,"Velocity":44,"Duration":125000,"SoundDuration":125000,"Delta":413210679},{"NoteNumber":58,"Velocity":51,"Duration":248353,"SoundDuration":248353,"Delta":413335679},{"NoteNumber":63,"Velocity":42,"Duration":248353,"SoundDuration":248353,"Delta":413335679},{"NoteNumber":67,"Velocity":55,"Duration":123936,"SoundDuration":123936,"Delta":413335679},{"NoteNumber":73,"Velocity":55,"Duration":123936,"SoundDuration":123936,"Delta":413335679},{"NoteNumber":75,"Velocity":48,"Duration":124417,"SoundDuration":124417,"Delta":413459615},{"NoteNumber":56,"Velocity":54,"Duration":249681,"SoundDuration":249681,"Delta":413584032},{"NoteNumber":63,"Velocity":45,"Duration":249681,"SoundDuration":249681,"Delta":413584032},{"NoteNumber":72,"Velocity":50,"Duration":124866,"SoundDuration":124866,"Delta":413584032},{"NoteNumber":68,"Velocity":50,"Duration":124866,"SoundDuration":124866,"Delta":413584032},{"NoteNumber":75,"Velocity":54,"Duration":124814,"SoundDuration":124814,"Delta":413708899},{"NoteNumber":51,"Velocity":63,"Duration":248556,"SoundDuration":248556,"Delta":413833714},{"NoteNumber":63,"Velocity":44,"Duration":248556,"SoundDuration":248556,"Delta":413833714},{"NoteNumber":67,"Velocity":60,"Duration":124697,"SoundDuration":124697,"Delta":413833714},{"NoteNumber":70,"Velocity":60,"Duration":124697,"SoundDuration":124697,"Delta":413833714},{"NoteNumber":75,"Velocity":49,"Duration":123858,"SoundDuration":123858,"Delta":413958411},{"NoteNumber":63,"Velocity":49,"Duration":125439,"SoundDuration":125439,"Delta":414082270},{"NoteNumber":67,"Velocity":45,"Duration":123200,"SoundDuration":123200,"Delta":414207709},{"NoteNumber":70,"Velocity":52,"Duration":125934,"SoundDuration":125934,"Delta":414330909},{"NoteNumber":75,"Velocity":42,"Duration":123802,"SoundDuration":123802,"Delta":414456844},{"NoteNumber":63,"Velocity":42,"Duration":123901,"SoundDuration":123901,"Delta":414580646},{"NoteNumber":67,"Velocity":39,"Duration":125522,"SoundDuration":125522,"Delta":414704548},{"NoteNumber":70,"Velocity":58,"Duration":124393,"SoundDuration":124393,"Delta":414830071},{"NoteNumber":75,"Velocity":45,"Duration":124165,"SoundDuration":124165,"Delta":414954464},{"NoteNumber":63,"Velocity":45,"Duration":129310,"SoundDuration":129310,"Delta":415078630},{"NoteNumber":67,"Velocity":40,"Duration":129310,"SoundDuration":129310,"Delta":415207940},{"NoteNumber":85,"Velocity":73,"Duration":252100,"SoundDuration":252100,"Delta":415337250},{"NoteNumber":82,"Velocity":62,"Duration":252100,"SoundDuration":252100,"Delta":415337250},{"NoteNumber":70,"Velocity":56,"Duration":126050,"SoundDuration":126050,"Delta":415337250},{"NoteNumber":75,"Velocity":41,"Duration":126050,"SoundDuration":126050,"Delta":415463301},{"NoteNumber":85,"Velocity":58,"Duration":291733,"SoundDuration":291733,"Delta":415589351},{"NoteNumber":89,"Velocity":70,"Duration":291733,"SoundDuration":291733,"Delta":415589351},{"NoteNumber":73,"Velocity":41,"Duration":132158,"SoundDuration":132158,"Delta":415589351},{"NoteNumber":75,"Velocity":38,"Duration":159574,"SoundDuration":159574,"Delta":415721510},{"NoteNumber":84,"Velocity":69,"Duration":492262,"SoundDuration":492262,"Delta":415881084},{"NoteNumber":87,"Velocity":65,"Duration":492262,"SoundDuration":492262,"Delta":415881084},{"NoteNumber":72,"Velocity":53,"Duration":125000,"SoundDuration":125000,"Delta":415881084},{"NoteNumber":75,"Velocity":43,"Duration":123400,"SoundDuration":123400,"Delta":416006084},{"NoteNumber":63,"Velocity":43,"Duration":121061,"SoundDuration":121061,"Delta":416129485},{"NoteNumber":68,"Velocity":39,"Duration":122800,"SoundDuration":122800,"Delta":416250547},{"NoteNumber":72,"Velocity":48,"Duration":121366,"SoundDuration":121366,"Delta":416373347},{"NoteNumber":75,"Velocity":38,"Duration":121082,"SoundDuration":121082,"Delta":416494713},{"NoteNumber":63,"Velocity":38,"Duration":121594,"SoundDuration":121594,"Delta":416615796},{"NoteNumber":68,"Velocity":35,"Duration":122843,"SoundDuration":122843,"Delta":416737390},{"NoteNumber":72,"Velocity":45,"Duration":134529,"SoundDuration":134529,"Delta":416860233},{"NoteNumber":75,"Velocity":35,"Duration":134529,"SoundDuration":134529,"Delta":416994763},{"NoteNumber":63,"Velocity":35,"Duration":125000,"SoundDuration":125000,"Delta":417129292},{"NoteNumber":68,"Velocity":34,"Duration":124401,"SoundDuration":124401,"Delta":417254292},{"NoteNumber":60,"Velocity":59,"Duration":247429,"SoundDuration":247429,"Delta":417378693},{"NoteNumber":63,"Velocity":43,"Duration":247429,"SoundDuration":247429,"Delta":417378693},{"NoteNumber":68,"Velocity":38,"Duration":123647,"SoundDuration":123647,"Delta":417378693},{"NoteNumber":72,"Velocity":38,"Duration":123647,"SoundDuration":123647,"Delta":417378693},{"NoteNumber":75,"Velocity":30,"Duration":123781,"SoundDuration":123781,"Delta":417502340},{"NoteNumber":63,"Velocity":40,"Duration":250138,"SoundDuration":250138,"Delta":417626122},{"NoteNumber":58,"Velocity":48,"Duration":250138,"SoundDuration":250138,"Delta":417626122},{"NoteNumber":67,"Velocity":29,"Duration":124673,"SoundDuration":124673,"Delta":417626122},{"NoteNumber":73,"Velocity":29,"Duration":124673,"SoundDuration":124673,"Delta":417626122},{"NoteNumber":75,"Velocity":28,"Duration":113025,"SoundDuration":113025,"Delta":417750796},{"NoteNumber":56,"Velocity":50,"Duration":247873,"SoundDuration":247873,"Delta":417876261},{"NoteNumber":63,"Velocity":42,"Duration":247873,"SoundDuration":247873,"Delta":417876261},{"NoteNumber":68,"Velocity":37,"Duration":122682,"SoundDuration":122682,"Delta":417876261},{"NoteNumber":72,"Velocity":37,"Duration":122682,"SoundDuration":122682,"Delta":417876261},{"NoteNumber":75,"Velocity":29,"Duration":125191,"SoundDuration":125191,"Delta":417998943},{"NoteNumber":63,"Velocity":29,"Duration":123924,"SoundDuration":123924,"Delta":418124134},{"NoteNumber":68,"Velocity":26,"Duration":123392,"SoundDuration":123392,"Delta":418248059},{"NoteNumber":72,"Velocity":38,"Duration":124936,"SoundDuration":124936,"Delta":418371451},{"NoteNumber":75,"Velocity":30,"Duration":123650,"SoundDuration":123650,"Delta":418496387},{"NoteNumber":63,"Velocity":31,"Duration":124873,"SoundDuration":124873,"Delta":418620038},{"NoteNumber":68,"Velocity":29,"Duration":123758,"SoundDuration":123758,"Delta":418744912},{"NoteNumber":72,"Velocity":40,"Duration":126378,"SoundDuration":126378,"Delta":418868670},{"NoteNumber":75,"Velocity":32,"Duration":124481,"SoundDuration":124481,"Delta":418995048},{"NoteNumber":84,"Velocity":61,"Duration":258620,"SoundDuration":258620,"Delta":419119530},{"NoteNumber":63,"Velocity":32,"Duration":129310,"SoundDuration":129310,"Delta":419119530},{"NoteNumber":68,"Velocity":30,"Duration":129310,"SoundDuration":129310,"Delta":419248840},{"NoteNumber":82,"Velocity":64,"Duration":252100,"SoundDuration":252100,"Delta":419378150},{"NoteNumber":72,"Velocity":42,"Duration":126050,"SoundDuration":126050,"Delta":419378150},{"NoteNumber":75,"Velocity":33,"Duration":126050,"SoundDuration":126050,"Delta":419504201},{"NoteNumber":80,"Velocity":66,"Duration":312824,"SoundDuration":312824,"Delta":419630251},{"NoteNumber":63,"Velocity":41,"Duration":132158,"SoundDuration":132158,"Delta":419630251},{"NoteNumber":68,"Velocity":44,"Duration":180665,"SoundDuration":180665,"Delta":419762410},{"NoteNumber":77,"Velocity":66,"Duration":499524,"SoundDuration":499524,"Delta":419943075},{"NoteNumber":73,"Velocity":50,"Duration":123084,"SoundDuration":123084,"Delta":419943075},{"NoteNumber":68,"Velocity":36,"Duration":124942,"SoundDuration":124942,"Delta":420066160},{"NoteNumber":65,"Velocity":36,"Duration":125042,"SoundDuration":125042,"Delta":420191102},{"NoteNumber":68,"Velocity":35,"Duration":126454,"SoundDuration":126454,"Delta":420316145},{"NoteNumber":73,"Velocity":45,"Duration":123173,"SoundDuration":123173,"Delta":420442599},{"NoteNumber":77,"Velocity":36,"Duration":123449,"SoundDuration":123449,"Delta":420565773},{"NoteNumber":65,"Velocity":36,"Duration":124027,"SoundDuration":124027,"Delta":420689222},{"NoteNumber":68,"Velocity":33,"Duration":124847,"SoundDuration":124847,"Delta":420813249},{"NoteNumber":73,"Velocity":44,"Duration":124268,"SoundDuration":124268,"Delta":420938097},{"NoteNumber":77,"Velocity":37,"Duration":125523,"SoundDuration":125523,"Delta":421062365},{"NoteNumber":49,"Velocity":65,"Duration":258620,"SoundDuration":258620,"Delta":421187888},{"NoteNumber":65,"Velocity":37,"Duration":129310,"SoundDuration":129310,"Delta":421187888},{"NoteNumber":70,"Velocity":37,"Duration":129310,"SoundDuration":129310,"Delta":421317198},{"NoteNumber":48,"Velocity":68,"Duration":252100,"SoundDuration":252100,"Delta":421446509},{"NoteNumber":73,"Velocity":48,"Duration":126050,"SoundDuration":126050,"Delta":421446509},{"NoteNumber":77,"Velocity":38,"Duration":126050,"SoundDuration":126050,"Delta":421572559},{"NoteNumber":46,"Velocity":71,"Duration":311826,"SoundDuration":311826,"Delta":421698610},{"NoteNumber":65,"Velocity":41,"Duration":132158,"SoundDuration":132158,"Delta":421698610},{"NoteNumber":70,"Velocity":44,"Duration":179668,"SoundDuration":179668,"Delta":421830768},{"NoteNumber":43,"Velocity":76,"Duration":993460,"SoundDuration":993460,"Delta":422010436},{"NoteNumber":73,"Velocity":56,"Duration":124181,"SoundDuration":124181,"Delta":422010436},{"NoteNumber":75,"Velocity":42,"Duration":124066,"SoundDuration":124066,"Delta":422134618},{"NoteNumber":63,"Velocity":42,"Duration":124360,"SoundDuration":124360,"Delta":422258685},{"NoteNumber":70,"Velocity":40,"Duration":124936,"SoundDuration":124936,"Delta":422383045},{"NoteNumber":73,"Velocity":52,"Duration":125498,"SoundDuration":125498,"Delta":422507982},{"NoteNumber":75,"Velocity":42,"Duration":123316,"SoundDuration":123316,"Delta":422633481},{"NoteNumber":63,"Velocity":42,"Duration":124596,"SoundDuration":124596,"Delta":422756798},{"NoteNumber":70,"Velocity":39,"Duration":122503,"SoundDuration":122503,"Delta":422881394},{"NoteNumber":44,"Velocity":61,"Duration":250950,"SoundDuration":250950,"Delta":423003897},{"NoteNumber":72,"Velocity":50,"Duration":125771,"SoundDuration":125771,"Delta":423003897},{"NoteNumber":75,"Velocity":40,"Duration":125178,"SoundDuration":125178,"Delta":423129668},{"NoteNumber":84,"Velocity":68,"Duration":258620,"SoundDuration":258620,"Delta":423254847},{"NoteNumber":63,"Velocity":40,"Duration":129310,"SoundDuration":129310,"Delta":423254847},{"NoteNumber":68,"Velocity":38,"Duration":129310,"SoundDuration":129310,"Delta":423384157},{"NoteNumber":85,"Velocity":73,"Duration":252100,"SoundDuration":252100,"Delta":423513468},{"NoteNumber":72,"Velocity":42,"Duration":126050,"SoundDuration":126050,"Delta":423513468},{"NoteNumber":75,"Velocity":33,"Duration":126050,"SoundDuration":126050,"Delta":423639518},{"NoteNumber":86,"Velocity":77,"Duration":286797,"SoundDuration":286797,"Delta":423765569},{"NoteNumber":63,"Velocity":41,"Duration":132158,"SoundDuration":132158,"Delta":423765569},{"NoteNumber":68,"Velocity":44,"Duration":154639,"SoundDuration":154639,"Delta":423897727},{"NoteNumber":87,"Velocity":82,"Duration":2027514,"SoundDuration":2027514,"Delta":424052366},{"NoteNumber":70,"Velocity":54,"Duration":122546,"SoundDuration":122546,"Delta":424052366},{"NoteNumber":75,"Velocity":41,"Duration":124628,"SoundDuration":124628,"Delta":424174913},{"NoteNumber":63,"Velocity":41,"Duration":123176,"SoundDuration":123176,"Delta":424299541},{"NoteNumber":68,"Velocity":36,"Duration":125093,"SoundDuration":125093,"Delta":424422718},{"NoteNumber":70,"Velocity":48,"Duration":122235,"SoundDuration":122235,"Delta":424547811},{"NoteNumber":75,"Velocity":39,"Duration":124467,"SoundDuration":124467,"Delta":424670047},{"NoteNumber":63,"Velocity":39,"Duration":125076,"SoundDuration":125076,"Delta":424794514},{"NoteNumber":68,"Velocity":35,"Duration":124803,"SoundDuration":124803,"Delta":424919591},{"NoteNumber":70,"Velocity":48,"Duration":124628,"SoundDuration":124628,"Delta":425044395},{"NoteNumber":75,"Velocity":32,"Duration":126467,"SoundDuration":126467,"Delta":425169024},{"NoteNumber":63,"Velocity":37,"Duration":129310,"SoundDuration":129310,"Delta":425295491},{"NoteNumber":67,"Velocity":33,"Duration":129310,"SoundDuration":129310,"Delta":425424801},{"NoteNumber":70,"Velocity":42,"Duration":126050,"SoundDuration":126050,"Delta":425554112},{"NoteNumber":75,"Velocity":29,"Duration":126050,"SoundDuration":126050,"Delta":425680162},{"NoteNumber":63,"Velocity":29,"Duration":132158,"SoundDuration":132158,"Delta":425806213},{"NoteNumber":67,"Velocity":26,"Duration":141509,"SoundDuration":141509,"Delta":425938371},{"NoteNumber":84,"Velocity":66,"Duration":496331,"SoundDuration":496331,"Delta":426079881},{"NoteNumber":72,"Velocity":37,"Duration":123628,"SoundDuration":123628,"Delta":426079881},{"NoteNumber":75,"Velocity":29,"Duration":123653,"SoundDuration":123653,"Delta":426203510},{"NoteNumber":63,"Velocity":29,"Duration":125490,"SoundDuration":125490,"Delta":426327163},{"NoteNumber":68,"Velocity":27,"Duration":123558,"SoundDuration":123558,"Delta":426452653},{"NoteNumber":72,"Velocity":38,"Duration":125443,"SoundDuration":125443,"Delta":426576212},{"NoteNumber":75,"Velocity":30,"Duration":122507,"SoundDuration":122507,"Delta":426701655},{"NoteNumber":63,"Velocity":31,"Duration":125995,"SoundDuration":125995,"Delta":426824163},{"NoteNumber":68,"Velocity":28,"Duration":124754,"SoundDuration":124754,"Delta":426950158},{"NoteNumber":71,"Velocity":40,"Duration":124233,"SoundDuration":124233,"Delta":427074913},{"NoteNumber":75,"Velocity":32,"Duration":123863,"SoundDuration":123863,"Delta":427199146},{"NoteNumber":44,"Velocity":44,"Duration":258620,"SoundDuration":258620,"Delta":427323009},{"NoteNumber":63,"Velocity":32,"Duration":129310,"SoundDuration":129310,"Delta":427323009},{"NoteNumber":68,"Velocity":28,"Duration":129310,"SoundDuration":129310,"Delta":427452320},{"NoteNumber":46,"Velocity":48,"Duration":252100,"SoundDuration":252100,"Delta":427581630},{"NoteNumber":71,"Velocity":42,"Duration":126050,"SoundDuration":126050,"Delta":427581630},{"NoteNumber":75,"Velocity":33,"Duration":126050,"SoundDuration":126050,"Delta":427707680},{"NoteNumber":47,"Velocity":45,"Duration":286797,"SoundDuration":286797,"Delta":427833731},{"NoteNumber":63,"Velocity":33,"Duration":132158,"SoundDuration":132158,"Delta":427833731},{"NoteNumber":68,"Velocity":28,"Duration":154639,"SoundDuration":154639,"Delta":427965889},{"NoteNumber":39,"Velocity":48,"Duration":2029373,"SoundDuration":2029373,"Delta":428120529},{"NoteNumber":70,"Velocity":37,"Duration":123029,"SoundDuration":123029,"Delta":428120529},{"NoteNumber":75,"Velocity":29,"Duration":124791,"SoundDuration":124791,"Delta":428243558},{"NoteNumber":63,"Velocity":29,"Duration":123273,"SoundDuration":123273,"Delta":428368350},{"NoteNumber":68,"Velocity":26,"Duration":125104,"SoundDuration":125104,"Delta":428491623},{"NoteNumber":70,"Velocity":38,"Duration":121821,"SoundDuration":121821,"Delta":428616727},{"NoteNumber":75,"Velocity":29,"Duration":124781,"SoundDuration":124781,"Delta":428738548},{"NoteNumber":63,"Velocity":29,"Duration":123124,"SoundDuration":123124,"Delta":428863330},{"NoteNumber":68,"Velocity":27,"Duration":122831,"SoundDuration":122831,"Delta":428986454},{"NoteNumber":70,"Velocity":40,"Duration":125843,"SoundDuration":125843,"Delta":429109286},{"NoteNumber":75,"Velocity":28,"Duration":124233,"SoundDuration":124233,"Delta":429235129},{"NoteNumber":63,"Velocity":28,"Duration":129310,"SoundDuration":129310,"Delta":429359362},{"NoteNumber":67,"Velocity":26,"Duration":129310,"SoundDuration":129310,"Delta":429488672},{"NoteNumber":70,"Velocity":41,"Duration":126050,"SoundDuration":126050,"Delta":429617982},{"NoteNumber":75,"Velocity":29,"Duration":126050,"SoundDuration":126050,"Delta":429744033},{"NoteNumber":63,"Velocity":29,"Duration":132158,"SoundDuration":132158,"Delta":429870083},{"NoteNumber":67,"Velocity":25,"Duration":147660,"SoundDuration":147660,"Delta":430002242},{"NoteNumber":32,"Velocity":44,"Duration":495441,"SoundDuration":495441,"Delta":430149903},{"NoteNumber":72,"Velocity":37,"Duration":123574,"SoundDuration":123574,"Delta":430149903},{"NoteNumber":75,"Velocity":35,"Duration":124882,"SoundDuration":124882,"Delta":430273477},{"NoteNumber":63,"Velocity":29,"Duration":123786,"SoundDuration":123786,"Delta":430398360},{"NoteNumber":68,"Velocity":28,"Duration":123198,"SoundDuration":123198,"Delta":430522146},{"NoteNumber":72,"Velocity":38,"Duration":123914,"SoundDuration":123914,"Delta":430645345},{"NoteNumber":75,"Velocity":30,"Duration":121552,"SoundDuration":121552,"Delta":430769259},{"NoteNumber":63,"Velocity":31,"Duration":125283,"SoundDuration":125283,"Delta":430890812},{"NoteNumber":68,"Velocity":28,"Duration":123609,"SoundDuration":123609,"Delta":431016095},{"NoteNumber":72,"Velocity":45,"Duration":124209,"SoundDuration":124209,"Delta":431139705},{"NoteNumber":75,"Velocity":32,"Duration":124492,"SoundDuration":124492,"Delta":431263915},{"NoteNumber":80,"Velocity":46,"Duration":258620,"SoundDuration":258620,"Delta":431388408},{"NoteNumber":84,"Velocity":55,"Duration":258620,"SoundDuration":258620,"Delta":431388408},{"NoteNumber":63,"Velocity":32,"Duration":129310,"SoundDuration":129310,"Delta":431388408},{"NoteNumber":68,"Velocity":30,"Duration":129310,"SoundDuration":129310,"Delta":431517718},{"NoteNumber":84,"Velocity":55,"Duration":252100,"SoundDuration":252100,"Delta":431647028},{"NoteNumber":80,"Velocity":46,"Duration":252100,"SoundDuration":252100,"Delta":431647028},{"NoteNumber":72,"Velocity":47,"Duration":126050,"SoundDuration":126050,"Delta":431647028},{"NoteNumber":75,"Velocity":34,"Duration":126050,"SoundDuration":126050,"Delta":431773079},{"NoteNumber":80,"Velocity":46,"Duration":273109,"SoundDuration":273109,"Delta":431899129},{"NoteNumber":85,"Velocity":55,"Duration":273109,"SoundDuration":273109,"Delta":431899129},{"NoteNumber":63,"Velocity":38,"Duration":126050,"SoundDuration":126050,"Delta":431899129},{"NoteNumber":68,"Velocity":35,"Duration":147058,"SoundDuration":147058,"Delta":432025180},{"NoteNumber":82,"Velocity":51,"Duration":492738,"SoundDuration":492738,"Delta":432172239},{"NoteNumber":84,"Velocity":60,"Duration":492738,"SoundDuration":492738,"Delta":432172239},{"NoteNumber":79,"Velocity":51,"Duration":492738,"SoundDuration":492738,"Delta":432172239},{"NoteNumber":72,"Velocity":50,"Duration":123955,"SoundDuration":123955,"Delta":432172239},{"NoteNumber":76,"Velocity":39,"Duration":121990,"SoundDuration":121990,"Delta":432296194},{"NoteNumber":64,"Velocity":39,"Duration":124763,"SoundDuration":124763,"Delta":432418185},{"NoteNumber":67,"Velocity":34,"Duration":122028,"SoundDuration":122028,"Delta":432542949},{"NoteNumber":79,"Velocity":55,"Duration":243579,"SoundDuration":243579,"Delta":432664977},{"NoteNumber":72,"Velocity":51,"Duration":122380,"SoundDuration":122380,"Delta":432664977},{"NoteNumber":76,"Velocity":39,"Duration":121199,"SoundDuration":121199,"Delta":432787358},{"NoteNumber":64,"Velocity":40,"Duration":121257,"SoundDuration":121257,"Delta":432908557},{"NoteNumber":67,"Velocity":34,"Duration":120868,"SoundDuration":120868,"Delta":433029815},{"NoteNumber":72,"Velocity":49,"Duration":123727,"SoundDuration":123727,"Delta":433150684},{"NoteNumber":76,"Velocity":38,"Duration":123300,"SoundDuration":123300,"Delta":433274412},{"NoteNumber":60,"Velocity":55,"Duration":258620,"SoundDuration":258620,"Delta":433397713},{"NoteNumber":48,"Velocity":46,"Duration":258620,"SoundDuration":258620,"Delta":433397713},{"NoteNumber":64,"Velocity":38,"Duration":129310,"SoundDuration":129310,"Delta":433397713},{"NoteNumber":67,"Velocity":35,"Duration":129310,"SoundDuration":129310,"Delta":433527023},{"NoteNumber":60,"Velocity":55,"Duration":252100,"SoundDuration":252100,"Delta":433656333},{"NoteNumber":48,"Velocity":46,"Duration":252100,"SoundDuration":252100,"Delta":433656333},{"NoteNumber":72,"Velocity":51,"Duration":126050,"SoundDuration":126050,"Delta":433656333},{"NoteNumber":76,"Velocity":40,"Duration":126050,"SoundDuration":126050,"Delta":433782384},{"NoteNumber":55,"Velocity":55,"Duration":273109,"SoundDuration":273109,"Delta":433908434},{"NoteNumber":43,"Velocity":46,"Duration":273109,"SoundDuration":273109,"Delta":433908434},{"NoteNumber":64,"Velocity":41,"Duration":126050,"SoundDuration":126050,"Delta":433908434},{"NoteNumber":67,"Velocity":38,"Duration":147058,"SoundDuration":147058,"Delta":434034485},{"NoteNumber":56,"Velocity":60,"Duration":491254,"SoundDuration":491254,"Delta":434181544},{"NoteNumber":44,"Velocity":51,"Duration":491254,"SoundDuration":491254,"Delta":434181544},{"NoteNumber":72,"Velocity":59,"Duration":125000,"SoundDuration":125000,"Delta":434181544},{"NoteNumber":77,"Velocity":45,"Duration":122344,"SoundDuration":122344,"Delta":434306544},{"NoteNumber":65,"Velocity":46,"Duration":123388,"SoundDuration":123388,"Delta":434428888},{"NoteNumber":68,"Velocity":45,"Duration":120522,"SoundDuration":120522,"Delta":434552276},{"NoteNumber":53,"Velocity":59,"Duration":244397,"SoundDuration":244397,"Delta":434672798},{"NoteNumber":41,"Velocity":50,"Duration":244397,"SoundDuration":244397,"Delta":434672798},{"NoteNumber":72,"Velocity":64,"Duration":122580,"SoundDuration":122580,"Delta":434672798},{"NoteNumber":77,"Velocity":48,"Duration":121816,"SoundDuration":121816,"Delta":434795379},{"NoteNumber":65,"Velocity":50,"Duration":122559,"SoundDuration":122559,"Delta":434917196},{"NoteNumber":68,"Velocity":50,"Duration":123242,"SoundDuration":123242,"Delta":435039755},{"NoteNumber":72,"Velocity":58,"Duration":123932,"SoundDuration":123932,"Delta":435162997},{"NoteNumber":77,"Velocity":47,"Duration":123954,"SoundDuration":123954,"Delta":435286929},{"NoteNumber":80,"Velocity":58,"Duration":258620,"SoundDuration":258620,"Delta":435410883},{"NoteNumber":84,"Velocity":69,"Duration":258620,"SoundDuration":258620,"Delta":435410883},{"NoteNumber":65,"Velocity":47,"Duration":129310,"SoundDuration":129310,"Delta":435410883},{"NoteNumber":68,"Velocity":43,"Duration":129310,"SoundDuration":129310,"Delta":435540193},{"NoteNumber":84,"Velocity":69,"Duration":252100,"SoundDuration":252100,"Delta":435669504},{"NoteNumber":80,"Velocity":58,"Duration":252100,"SoundDuration":252100,"Delta":435669504},{"NoteNumber":72,"Velocity":54,"Duration":126050,"SoundDuration":126050,"Delta":435669504},{"NoteNumber":77,"Velocity":46,"Duration":126050,"SoundDuration":126050,"Delta":435795554},{"NoteNumber":85,"Velocity":69,"Duration":273109,"SoundDuration":273109,"Delta":435921605},{"NoteNumber":80,"Velocity":58,"Duration":273109,"SoundDuration":273109,"Delta":435921605},{"NoteNumber":65,"Velocity":46,"Duration":126050,"SoundDuration":126050,"Delta":435921605},{"NoteNumber":68,"Velocity":41,"Duration":147058,"SoundDuration":147058,"Delta":436047655},{"NoteNumber":79,"Velocity":53,"Duration":493625,"SoundDuration":493625,"Delta":436194714},{"NoteNumber":82,"Velocity":53,"Duration":493625,"SoundDuration":493625,"Delta":436194714},{"NoteNumber":84,"Velocity":75,"Duration":493625,"SoundDuration":493625,"Delta":436194714},{"NoteNumber":72,"Velocity":57,"Duration":125000,"SoundDuration":125000,"Delta":436194714},{"NoteNumber":76,"Velocity":44,"Duration":123658,"SoundDuration":123658,"Delta":436319714},{"NoteNumber":64,"Velocity":44,"Duration":122183,"SoundDuration":122183,"Delta":436443372},{"NoteNumber":67,"Velocity":40,"Duration":122783,"SoundDuration":122783,"Delta":436565556},{"NoteNumber":79,"Velocity":69,"Duration":246229,"SoundDuration":246229,"Delta":436688339},{"NoteNumber":72,"Velocity":58,"Duration":124255,"SoundDuration":124255,"Delta":436688339},{"NoteNumber":76,"Velocity":44,"Duration":121973,"SoundDuration":121973,"Delta":436812595},{"NoteNumber":64,"Velocity":46,"Duration":123397,"SoundDuration":123397,"Delta":436934569},{"NoteNumber":67,"Velocity":41,"Duration":122860,"SoundDuration":122860,"Delta":437057967},{"NoteNumber":72,"Velocity":56,"Duration":125188,"SoundDuration":125188,"Delta":437180827},{"NoteNumber":76,"Velocity":43,"Duration":124789,"SoundDuration":124789,"Delta":437306016},{"NoteNumber":60,"Velocity":63,"Duration":253160,"SoundDuration":253160,"Delta":437430805},{"NoteNumber":48,"Velocity":52,"Duration":253160,"SoundDuration":253160,"Delta":437430805},{"NoteNumber":64,"Velocity":43,"Duration":126577,"SoundDuration":126577,"Delta":437430805},{"NoteNumber":67,"Velocity":39,"Duration":126582,"SoundDuration":126582,"Delta":437557383},{"NoteNumber":60,"Velocity":63,"Duration":252100,"SoundDuration":252100,"Delta":437683965},{"NoteNumber":48,"Velocity":52,"Duration":252100,"SoundDuration":252100,"Delta":437683965},{"NoteNumber":72,"Velocity":58,"Duration":126050,"SoundDuration":126050,"Delta":437683965},{"NoteNumber":76,"Velocity":46,"Duration":126050,"SoundDuration":126050,"Delta":437810016},{"NoteNumber":55,"Velocity":63,"Duration":273109,"SoundDuration":273109,"Delta":437936066},{"NoteNumber":43,"Velocity":52,"Duration":273109,"SoundDuration":273109,"Delta":437936066},{"NoteNumber":64,"Velocity":47,"Duration":126050,"SoundDuration":126050,"Delta":437936066},{"NoteNumber":67,"Velocity":44,"Duration":147058,"SoundDuration":147058,"Delta":438062117},{"NoteNumber":44,"Velocity":58,"Duration":493789,"SoundDuration":493789,"Delta":438209176},{"NoteNumber":56,"Velocity":69,"Duration":493789,"SoundDuration":493789,"Delta":438209176},{"NoteNumber":72,"Velocity":67,"Duration":123447,"SoundDuration":123447,"Delta":438209176},{"NoteNumber":77,"Velocity":51,"Duration":121741,"SoundDuration":121741,"Delta":438332624},{"NoteNumber":65,"Velocity":51,"Duration":124441,"SoundDuration":124441,"Delta":438454365},{"NoteNumber":68,"Velocity":47,"Duration":124157,"SoundDuration":124157,"Delta":438578807},{"NoteNumber":53,"Velocity":64,"Duration":246234,"SoundDuration":246234,"Delta":438702965},{"NoteNumber":41,"Velocity":54,"Duration":246234,"SoundDuration":246234,"Delta":438702965},{"NoteNumber":72,"Velocity":69,"Duration":123396,"SoundDuration":123396,"Delta":438702965},{"NoteNumber":77,"Velocity":51,"Duration":122837,"SoundDuration":122837,"Delta":438826362},{"NoteNumber":65,"Velocity":51,"Duration":125716,"SoundDuration":125716,"Delta":438949200},{"NoteNumber":68,"Velocity":48,"Duration":125243,"SoundDuration":125243,"Delta":439074917},{"NoteNumber":72,"Velocity":60,"Duration":125722,"SoundDuration":125722,"Delta":439200160},{"NoteNumber":77,"Velocity":49,"Duration":126050,"SoundDuration":126050,"Delta":439325883},{"NoteNumber":84,"Velocity":72,"Duration":265486,"SoundDuration":265486,"Delta":439451933},{"NoteNumber":65,"Velocity":49,"Duration":132743,"SoundDuration":132743,"Delta":439451933},{"NoteNumber":68,"Velocity":48,"Duration":132743,"SoundDuration":132743,"Delta":439584676},{"NoteNumber":84,"Velocity":75,"Duration":276497,"SoundDuration":276497,"Delta":439717420},{"NoteNumber":72,"Velocity":59,"Duration":138248,"SoundDuration":138248,"Delta":439717420},{"NoteNumber":77,"Velocity":51,"Duration":138248,"SoundDuration":138248,"Delta":439855668},{"NoteNumber":84,"Velocity":79,"Duration":301292,"SoundDuration":301292,"Delta":439993917},{"NoteNumber":65,"Velocity":51,"Duration":138248,"SoundDuration":138248,"Delta":439993917},{"NoteNumber":68,"Velocity":47,"Duration":163043,"SoundDuration":163043,"Delta":440132166},{"NoteNumber":85,"Velocity":83,"Duration":514109,"SoundDuration":514109,"Delta":440295209},{"NoteNumber":73,"Velocity":65,"Duration":129870,"SoundDuration":129870,"Delta":440295209},{"NoteNumber":77,"Velocity":53,"Duration":129650,"SoundDuration":129650,"Delta":440425080},{"NoteNumber":65,"Velocity":53,"Duration":127627,"SoundDuration":127627,"Delta":440554731},{"NoteNumber":68,"Velocity":49,"Duration":126961,"SoundDuration":126961,"Delta":440682358},{"NoteNumber":49,"Velocity":77,"Duration":1002353,"SoundDuration":1002353,"Delta":440809319},{"NoteNumber":73,"Velocity":62,"Duration":124331,"SoundDuration":124331,"Delta":440809319},{"NoteNumber":77,"Velocity":53,"Duration":122286,"SoundDuration":122286,"Delta":440933650},{"NoteNumber":65,"Velocity":53,"Duration":121441,"SoundDuration":121441,"Delta":441055937},{"NoteNumber":68,"Velocity":49,"Duration":122445,"SoundDuration":122445,"Delta":441177378},{"NoteNumber":73,"Velocity":62,"Duration":122798,"SoundDuration":122798,"Delta":441299824},{"NoteNumber":78,"Velocity":53,"Duration":124732,"SoundDuration":124732,"Delta":441422623},{"NoteNumber":66,"Velocity":53,"Duration":132158,"SoundDuration":132158,"Delta":441547355},{"NoteNumber":69,"Velocity":49,"Duration":132158,"SoundDuration":132158,"Delta":441679514},{"NoteNumber":81,"Velocity":70,"Duration":376569,"SoundDuration":376569,"Delta":441811672},{"NoteNumber":73,"Velocity":62,"Duration":125522,"SoundDuration":125522,"Delta":441811672},{"NoteNumber":78,"Velocity":53,"Duration":125522,"SoundDuration":125522,"Delta":441937195},{"NoteNumber":66,"Velocity":53,"Duration":125523,"SoundDuration":125523,"Delta":442062718},{"NoteNumber":83,"Velocity":67,"Duration":125522,"SoundDuration":125522,"Delta":442188241},{"NoteNumber":69,"Velocity":49,"Duration":125522,"SoundDuration":125522,"Delta":442188241},{"NoteNumber":85,"Velocity":79,"Duration":489796,"SoundDuration":489796,"Delta":442313764},{"NoteNumber":73,"Velocity":65,"Duration":122449,"SoundDuration":122449,"Delta":442313764},{"NoteNumber":77,"Velocity":53,"Duration":122448,"SoundDuration":122448,"Delta":442436213},{"NoteNumber":65,"Velocity":53,"Duration":122449,"SoundDuration":122449,"Delta":442558662},{"NoteNumber":68,"Velocity":47,"Duration":122449,"SoundDuration":122449,"Delta":442681111},{"NoteNumber":49,"Velocity":77,"Duration":1002568,"SoundDuration":1002568,"Delta":442803560},{"NoteNumber":73,"Velocity":62,"Duration":126050,"SoundDuration":126050,"Delta":442803560},{"NoteNumber":77,"Velocity":53,"Duration":123206,"SoundDuration":123206,"Delta":442929611},{"NoteNumber":65,"Velocity":53,"Duration":123289,"SoundDuration":123289,"Delta":443052817},{"NoteNumber":68,"Velocity":48,"Duration":123763,"SoundDuration":123763,"Delta":443176107},{"NoteNumber":73,"Velocity":62,"Duration":123208,"SoundDuration":123208,"Delta":443299870},{"NoteNumber":78,"Velocity":53,"Duration":124429,"SoundDuration":124429,"Delta":443423078},{"NoteNumber":66,"Velocity":53,"Duration":129310,"SoundDuration":129310,"Delta":443547508},{"NoteNumber":69,"Velocity":49,"Duration":129310,"SoundDuration":129310,"Delta":443676818},{"NoteNumber":81,"Velocity":70,"Duration":375000,"SoundDuration":375000,"Delta":443806128},{"NoteNumber":73,"Velocity":62,"Duration":125000,"SoundDuration":125000,"Delta":443806128},{"NoteNumber":78,"Velocity":53,"Duration":125000,"SoundDuration":125000,"Delta":443931128},{"NoteNumber":66,"Velocity":53,"Duration":125000,"SoundDuration":125000,"Delta":444056128},{"NoteNumber":83,"Velocity":67,"Duration":125000,"SoundDuration":125000,"Delta":444181128},{"NoteNumber":69,"Velocity":48,"Duration":125000,"SoundDuration":125000,"Delta":444181128},{"NoteNumber":85,"Velocity":77,"Duration":528634,"SoundDuration":528634,"Delta":444306128},{"NoteNumber":73,"Velocity":65,"Duration":132158,"SoundDuration":132158,"Delta":444306128},{"NoteNumber":77,"Velocity":46,"Duration":132158,"SoundDuration":132158,"Delta":444438287},{"NoteNumber":65,"Velocity":46,"Duration":132158,"SoundDuration":132158,"Delta":444570445},{"NoteNumber":68,"Velocity":42,"Duration":132158,"SoundDuration":132158,"Delta":444702604},{"NoteNumber":49,"Velocity":66,"Duration":1067964,"SoundDuration":1067964,"Delta":444834762},{"NoteNumber":73,"Velocity":55,"Duration":129870,"SoundDuration":129870,"Delta":444834762},{"NoteNumber":77,"Velocity":40,"Duration":129870,"SoundDuration":129870,"Delta":444964633},{"NoteNumber":65,"Velocity":40,"Duration":129870,"SoundDuration":129870,"Delta":445094503},{"NoteNumber":68,"Velocity":36,"Duration":129870,"SoundDuration":129870,"Delta":445224373},{"NoteNumber":73,"Velocity":40,"Duration":136986,"SoundDuration":136986,"Delta":445354243},{"NoteNumber":77,"Velocity":46,"Duration":136986,"SoundDuration":136986,"Delta":445491230},{"NoteNumber":65,"Velocity":37,"Duration":136986,"SoundDuration":136986,"Delta":445628216},{"NoteNumber":68,"Velocity":35,"Duration":137524,"SoundDuration":137524,"Delta":445765202},{"NoteNumber":48,"Velocity":49,"Duration":596341,"SoundDuration":596341,"Delta":445902727},{"NoteNumber":72,"Velocity":37,"Duration":144214,"SoundDuration":144214,"Delta":445902727},{"NoteNumber":77,"Velocity":43,"Duration":147330,"SoundDuration":147330,"Delta":446046941},{"NoteNumber":65,"Velocity":37,"Duration":150653,"SoundDuration":150653,"Delta":446194271},{"NoteNumber":68,"Velocity":34,"Duration":154143,"SoundDuration":154143,"Delta":446344924},{"NoteNumber":47,"Velocity":56,"Duration":274904,"SoundDuration":274904,"Delta":446499068},{"NoteNumber":74,"Velocity":37,"Duration":139303,"SoundDuration":139303,"Delta":446499068},{"NoteNumber":77,"Velocity":29,"Duration":135601,"SoundDuration":135601,"Delta":446638371},{"NoteNumber":65,"Velocity":29,"Duration":132466,"SoundDuration":132466,"Delta":446773972},{"NoteNumber":67,"Velocity":27,"Duration":132158,"SoundDuration":132158,"Delta":446906439},{"NoteNumber":86,"Velocity":63,"Duration":769231,"SoundDuration":769231,"Delta":447038598},{"NoteNumber":74,"Velocity":38,"Duration":128205,"SoundDuration":128205,"Delta":447038598},{"NoteNumber":77,"Velocity":30,"Duration":128205,"SoundDuration":128205,"Delta":447166803},{"NoteNumber":65,"Velocity":31,"Duration":128205,"SoundDuration":128205,"Delta":447295008},{"NoteNumber":67,"Velocity":28,"Duration":128205,"SoundDuration":128205,"Delta":447423213},{"NoteNumber":74,"Velocity":41,"Duration":128205,"SoundDuration":128205,"Delta":447551419},{"NoteNumber":77,"Velocity":31,"Duration":128205,"SoundDuration":128205,"Delta":447679624},{"NoteNumber":86,"Velocity":57,"Duration":273972,"SoundDuration":273972,"Delta":447807829},{"NoteNumber":65,"Velocity":31,"Duration":136986,"SoundDuration":136986,"Delta":447807829},{"NoteNumber":67,"Velocity":29,"Duration":136986,"SoundDuration":136986,"Delta":447944815},{"NoteNumber":88,"Velocity":60,"Duration":264317,"SoundDuration":264317,"Delta":448081802},{"NoteNumber":74,"Velocity":40,"Duration":132158,"SoundDuration":132158,"Delta":448081802},{"NoteNumber":77,"Velocity":29,"Duration":132158,"SoundDuration":132158,"Delta":448213960},{"NoteNumber":89,"Velocity":60,"Duration":279217,"SoundDuration":279217,"Delta":448346119},{"NoteNumber":65,"Velocity":32,"Duration":132158,"SoundDuration":132158,"Delta":448346119},{"NoteNumber":67,"Velocity":28,"Duration":147058,"SoundDuration":147058,"Delta":448478277},{"NoteNumber":88,"Velocity":69,"Duration":255318,"SoundDuration":255318,"Delta":448625336},{"NoteNumber":72,"Velocity":44,"Duration":127659,"SoundDuration":127659,"Delta":448625336},{"NoteNumber":76,"Velocity":32,"Duration":127659,"SoundDuration":127659,"Delta":448752995},{"NoteNumber":64,"Velocity":32,"Duration":127659,"SoundDuration":127659,"Delta":448880655},{"NoteNumber":67,"Velocity":30,"Duration":127659,"SoundDuration":127659,"Delta":449008314},{"NoteNumber":48,"Velocity":42,"Duration":510638,"SoundDuration":510638,"Delta":449135974},{"NoteNumber":72,"Velocity":44,"Duration":127659,"SoundDuration":127659,"Delta":449135974},{"NoteNumber":76,"Velocity":34,"Duration":127659,"SoundDuration":127659,"Delta":449263633},{"NoteNumber":64,"Velocity":34,"Duration":127659,"SoundDuration":127659,"Delta":449391293},{"NoteNumber":67,"Velocity":31,"Duration":127659,"SoundDuration":127659,"Delta":449518952},{"NoteNumber":72,"Velocity":41,"Duration":128205,"SoundDuration":128205,"Delta":449646612},{"NoteNumber":76,"Velocity":31,"Duration":128205,"SoundDuration":128205,"Delta":449774817},{"NoteNumber":86,"Velocity":63,"Duration":273972,"SoundDuration":273972,"Delta":449903022},{"NoteNumber":64,"Velocity":31,"Duration":136986,"SoundDuration":136986,"Delta":449903022},{"NoteNumber":67,"Velocity":29,"Duration":136986,"SoundDuration":136986,"Delta":450040009},{"NoteNumber":84,"Velocity":56,"Duration":264317,"SoundDuration":264317,"Delta":450176995},{"NoteNumber":72,"Velocity":40,"Duration":132158,"SoundDuration":132158,"Delta":450176995},{"NoteNumber":76,"Velocity":29,"Duration":132158,"SoundDuration":132158,"Delta":450309153},{"NoteNumber":83,"Velocity":56,"Duration":279217,"SoundDuration":279217,"Delta":450441312},{"NoteNumber":64,"Velocity":31,"Duration":132158,"SoundDuration":132158,"Delta":450441312},{"NoteNumber":67,"Velocity":26,"Duration":147058,"SoundDuration":147058,"Delta":450573470},{"NoteNumber":81,"Velocity":64,"Duration":260869,"SoundDuration":260869,"Delta":450720529},{"NoteNumber":72,"Velocity":37,"Duration":130434,"SoundDuration":130434,"Delta":450720529},{"NoteNumber":77,"Velocity":27,"Duration":130434,"SoundDuration":130434,"Delta":450850964},{"NoteNumber":65,"Velocity":27,"Duration":130434,"SoundDuration":130434,"Delta":450981399},{"NoteNumber":69,"Velocity":24,"Duration":130434,"SoundDuration":130434,"Delta":451111833},{"NoteNumber":53,"Velocity":29,"Duration":515020,"SoundDuration":515020,"Delta":451242268},{"NoteNumber":72,"Velocity":37,"Duration":128755,"SoundDuration":128755,"Delta":451242268},{"NoteNumber":77,"Velocity":28,"Duration":128755,"SoundDuration":128755,"Delta":451371023},{"NoteNumber":65,"Velocity":28,"Duration":128755,"SoundDuration":128755,"Delta":451499779},{"NoteNumber":69,"Velocity":24,"Duration":128755,"SoundDuration":128755,"Delta":451628534},{"NoteNumber":50,"Velocity":26,"Duration":257510,"SoundDuration":257510,"Delta":451757289},{"NoteNumber":74,"Velocity":37,"Duration":128755,"SoundDuration":128755,"Delta":451757289},{"NoteNumber":77,"Velocity":27,"Duration":128755,"SoundDuration":128755,"Delta":451886044},{"NoteNumber":65,"Velocity":27,"Duration":128755,"SoundDuration":128755,"Delta":452014800},{"NoteNumber":69,"Velocity":25,"Duration":128755,"SoundDuration":128755,"Delta":452143555},{"NoteNumber":81,"Velocity":54,"Duration":519480,"SoundDuration":519480,"Delta":452272310},{"NoteNumber":74,"Velocity":37,"Duration":129870,"SoundDuration":129870,"Delta":452272310},{"NoteNumber":77,"Velocity":28,"Duration":129870,"SoundDuration":129870,"Delta":452402180},{"NoteNumber":65,"Velocity":28,"Duration":129870,"SoundDuration":129870,"Delta":452532051},{"NoteNumber":69,"Velocity":26,"Duration":129870,"SoundDuration":129870,"Delta":452661921},{"NoteNumber":83,"Velocity":58,"Duration":260869,"SoundDuration":260869,"Delta":452791791},{"NoteNumber":74,"Velocity":37,"Duration":130434,"SoundDuration":130434,"Delta":452791791},{"NoteNumber":77,"Velocity":27,"Duration":130434,"SoundDuration":130434,"Delta":452922226},{"NoteNumber":65,"Velocity":27,"Duration":130434,"SoundDuration":130434,"Delta":453052661},{"NoteNumber":71,"Velocity":24,"Duration":130434,"SoundDuration":130434,"Delta":453183095},{"NoteNumber":55,"Velocity":34,"Duration":515020,"SoundDuration":515020,"Delta":453313530},{"NoteNumber":74,"Velocity":37,"Duration":128755,"SoundDuration":128755,"Delta":453313530},{"NoteNumber":77,"Velocity":28,"Duration":128755,"SoundDuration":128755,"Delta":453442285},{"NoteNumber":65,"Velocity":28,"Duration":128755,"SoundDuration":128755,"Delta":453571041},{"NoteNumber":71,"Velocity":25,"Duration":128755,"SoundDuration":128755,"Delta":453699796},{"NoteNumber":56,"Velocity":39,"Duration":515020,"SoundDuration":515020,"Delta":453828551},{"NoteNumber":74,"Velocity":37,"Duration":128755,"SoundDuration":128755,"Delta":453828551},{"NoteNumber":77,"Velocity":27,"Duration":128755,"SoundDuration":128755,"Delta":453957306},{"NoteNumber":65,"Velocity":27,"Duration":128755,"SoundDuration":128755,"Delta":454086062},{"NoteNumber":71,"Velocity":24,"Duration":128755,"SoundDuration":128755,"Delta":454214817},{"NoteNumber":55,"Velocity":35,"Duration":519480,"SoundDuration":519480,"Delta":454343572},{"NoteNumber":74,"Velocity":37,"Duration":129870,"SoundDuration":129870,"Delta":454343572},{"NoteNumber":77,"Velocity":29,"Duration":129870,"SoundDuration":129870,"Delta":454473442},{"NoteNumber":65,"Velocity":29,"Duration":129870,"SoundDuration":129870,"Delta":454603313},{"NoteNumber":71,"Velocity":25,"Duration":129870,"SoundDuration":129870,"Delta":454733183},{"NoteNumber":84,"Velocity":52,"Duration":521739,"SoundDuration":521739,"Delta":454863053},{"NoteNumber":72,"Velocity":40,"Duration":130434,"SoundDuration":130434,"Delta":454863053},{"NoteNumber":76,"Velocity":29,"Duration":130434,"SoundDuration":130434,"Delta":454993488},{"NoteNumber":64,"Velocity":29,"Duration":130434,"SoundDuration":130434,"Delta":455123923},{"NoteNumber":67,"Velocity":26,"Duration":130434,"SoundDuration":130434,"Delta":455254357},{"NoteNumber":72,"Velocity":38,"Duration":128755,"SoundDuration":128755,"Delta":455384792},{"NoteNumber":76,"Velocity":30,"Duration":128755,"SoundDuration":128755,"Delta":455513547},{"NoteNumber":64,"Velocity":30,"Duration":128755,"SoundDuration":128755,"Delta":455642303},{"NoteNumber":67,"Velocity":27,"Duration":128755,"SoundDuration":128755,"Delta":455771058},{"NoteNumber":48,"Velocity":49,"Duration":1034501,"SoundDuration":1034501,"Delta":455899813},{"NoteNumber":72,"Velocity":30,"Duration":128755,"SoundDuration":128755,"Delta":455899813},{"NoteNumber":76,"Velocity":27,"Duration":128755,"SoundDuration":128755,"Delta":456028568},{"NoteNumber":64,"Velocity":27,"Duration":128755,"SoundDuration":128755,"Delta":456157324},{"NoteNumber":67,"Velocity":23,"Duration":128755,"SoundDuration":128755,"Delta":456286079},{"NoteNumber":72,"Velocity":45,"Duration":129870,"SoundDuration":129870,"Delta":456414834},{"NoteNumber":76,"Velocity":32,"Duration":129870,"SoundDuration":129870,"Delta":456544704},{"NoteNumber":64,"Velocity":35,"Duration":129870,"SoundDuration":129870,"Delta":456674575},{"NoteNumber":67,"Velocity":39,"Duration":129870,"SoundDuration":129870,"Delta":456804445},{"NoteNumber":50,"Velocity":61,"Duration":1036760,"SoundDuration":1036760,"Delta":456934315},{"NoteNumber":71,"Velocity":49,"Duration":130434,"SoundDuration":130434,"Delta":456934315},{"NoteNumber":77,"Velocity":36,"Duration":130434,"SoundDuration":130434,"Delta":457064750},{"NoteNumber":65,"Velocity":36,"Duration":130434,"SoundDuration":130434,"Delta":457195185},{"NoteNumber":67,"Velocity":33,"Duration":130434,"SoundDuration":130434,"Delta":457325619},{"NoteNumber":71,"Velocity":46,"Duration":128755,"SoundDuration":128755,"Delta":457456054},{"NoteNumber":77,"Velocity":33,"Duration":128755,"SoundDuration":128755,"Delta":457584809},{"NoteNumber":65,"Velocity":31,"Duration":128755,"SoundDuration":128755,"Delta":457713565},{"NoteNumber":67,"Velocity":29,"Duration":128755,"SoundDuration":128755,"Delta":457842320},{"NoteNumber":52,"Velocity":39,"Duration":1034501,"SoundDuration":1034501,"Delta":457971075},{"NoteNumber":70,"Velocity":37,"Duration":128755,"SoundDuration":128755,"Delta":457971075},{"NoteNumber":72,"Velocity":27,"Duration":128755,"SoundDuration":128755,"Delta":458099830},{"NoteNumber":60,"Velocity":27,"Duration":128755,"SoundDuration":128755,"Delta":458228586},{"NoteNumber":67,"Velocity":25,"Duration":128755,"SoundDuration":128755,"Delta":458357341},{"NoteNumber":70,"Velocity":37,"Duration":129870,"SoundDuration":129870,"Delta":458486096},{"NoteNumber":72,"Velocity":28,"Duration":129870,"SoundDuration":129870,"Delta":458615966},{"NoteNumber":60,"Velocity":28,"Duration":129870,"SoundDuration":129870,"Delta":458745837},{"NoteNumber":67,"Velocity":27,"Duration":129870,"SoundDuration":129870,"Delta":458875707},{"NoteNumber":53,"Velocity":39,"Duration":515020,"SoundDuration":515020,"Delta":459005577},{"NoteNumber":69,"Velocity":37,"Duration":128755,"SoundDuration":128755,"Delta":459005577},{"NoteNumber":72,"Velocity":27,"Duration":128755,"SoundDuration":128755,"Delta":459134332},{"NoteNumber":60,"Velocity":27,"Duration":128755,"SoundDuration":128755,"Delta":459263088},{"NoteNumber":65,"Velocity":24,"Duration":128755,"SoundDuration":128755,"Delta":459391843},{"NoteNumber":69,"Velocity":37,"Duration":130558,"SoundDuration":130558,"Delta":459520598},{"NoteNumber":72,"Velocity":28,"Duration":131382,"SoundDuration":131382,"Delta":459651157},{"NoteNumber":60,"Velocity":28,"Duration":132372,"SoundDuration":132372,"Delta":459782539},{"NoteNumber":65,"Velocity":23,"Duration":133319,"SoundDuration":133319,"Delta":459914912},{"NoteNumber":69,"Velocity":37,"Duration":134293,"SoundDuration":134293,"Delta":460048232},{"NoteNumber":72,"Velocity":28,"Duration":135313,"SoundDuration":135313,"Delta":460182526},{"NoteNumber":60,"Velocity":28,"Duration":136204,"SoundDuration":136204,"Delta":460317840},{"NoteNumber":65,"Velocity":25,"Duration":137342,"SoundDuration":137342,"Delta":460454044},{"NoteNumber":77,"Velocity":45,"Duration":258620,"SoundDuration":258620,"Delta":460591387},{"NoteNumber":69,"Velocity":37,"Duration":129310,"SoundDuration":129310,"Delta":460591387},{"NoteNumber":72,"Velocity":29,"Duration":129310,"SoundDuration":129310,"Delta":460720697},{"NoteNumber":76,"Velocity":40,"Duration":291733,"SoundDuration":291733,"Delta":460850007},{"NoteNumber":79,"Velocity":48,"Duration":291733,"SoundDuration":291733,"Delta":460850007},{"NoteNumber":67,"Velocity":36,"Duration":132158,"SoundDuration":132158,"Delta":460850007},{"NoteNumber":72,"Velocity":39,"Duration":159574,"SoundDuration":159574,"Delta":460982166},{"NoteNumber":77,"Velocity":42,"Duration":500000,"SoundDuration":500000,"Delta":461141740},{"NoteNumber":81,"Velocity":50,"Duration":500000,"SoundDuration":500000,"Delta":461141740},{"NoteNumber":69,"Velocity":47,"Duration":125000,"SoundDuration":125000,"Delta":461141740},{"NoteNumber":72,"Velocity":36,"Duration":125000,"SoundDuration":125000,"Delta":461266740},{"NoteNumber":60,"Velocity":36,"Duration":125000,"SoundDuration":125000,"Delta":461391740},{"NoteNumber":65,"Velocity":32,"Duration":125000,"SoundDuration":125000,"Delta":461516740},{"NoteNumber":69,"Velocity":40,"Duration":123730,"SoundDuration":123730,"Delta":461641740},{"NoteNumber":72,"Velocity":36,"Duration":125688,"SoundDuration":125688,"Delta":461765470},{"NoteNumber":60,"Velocity":36,"Duration":124485,"SoundDuration":124485,"Delta":461891159},{"NoteNumber":65,"Velocity":34,"Duration":125523,"SoundDuration":125523,"Delta":462015645},{"NoteNumber":69,"Velocity":45,"Duration":134529,"SoundDuration":134529,"Delta":462141168},{"NoteNumber":72,"Velocity":35,"Duration":134529,"SoundDuration":134529,"Delta":462275697},{"NoteNumber":57,"Velocity":44,"Duration":249982,"SoundDuration":249982,"Delta":462410226},{"NoteNumber":60,"Velocity":37,"Duration":249982,"SoundDuration":249982,"Delta":462410226},{"NoteNumber":69,"Velocity":35,"Duration":125000,"SoundDuration":125000,"Delta":462410226},{"NoteNumber":65,"Velocity":35,"Duration":125000,"SoundDuration":125000,"Delta":462410226},{"NoteNumber":72,"Velocity":31,"Duration":124982,"SoundDuration":124982,"Delta":462535226},{"NoteNumber":55,"Velocity":47,"Duration":250160,"SoundDuration":250160,"Delta":462660209},{"NoteNumber":60,"Velocity":39,"Duration":250160,"SoundDuration":250160,"Delta":462660209},{"NoteNumber":64,"Velocity":44,"Duration":123737,"SoundDuration":123737,"Delta":462660209},{"NoteNumber":70,"Velocity":44,"Duration":123737,"SoundDuration":123737,"Delta":462660209},{"NoteNumber":72,"Velocity":29,"Duration":126423,"SoundDuration":126423,"Delta":462783947},{"NoteNumber":60,"Velocity":42,"Duration":248594,"SoundDuration":248594,"Delta":462910370},{"NoteNumber":53,"Velocity":50,"Duration":248594,"SoundDuration":248594,"Delta":462910370},{"NoteNumber":69,"Velocity":31,"Duration":124093,"SoundDuration":124093,"Delta":462910370},{"NoteNumber":65,"Velocity":31,"Duration":124093,"SoundDuration":124093,"Delta":462910370},{"NoteNumber":72,"Velocity":28,"Duration":124500,"SoundDuration":124500,"Delta":463034463},{"NoteNumber":48,"Velocity":55,"Duration":247904,"SoundDuration":247904,"Delta":463158964},{"NoteNumber":60,"Velocity":39,"Duration":247904,"SoundDuration":247904,"Delta":463158964},{"NoteNumber":64,"Velocity":37,"Duration":124344,"SoundDuration":124344,"Delta":463158964},{"NoteNumber":67,"Velocity":37,"Duration":124344,"SoundDuration":124344,"Delta":463158964},{"NoteNumber":72,"Velocity":29,"Duration":123560,"SoundDuration":123560,"Delta":463283308},{"NoteNumber":60,"Velocity":29,"Duration":125129,"SoundDuration":125129,"Delta":463406868},{"NoteNumber":64,"Velocity":25,"Duration":123220,"SoundDuration":123220,"Delta":463531998},{"NoteNumber":67,"Velocity":37,"Duration":124349,"SoundDuration":124349,"Delta":463655218},{"NoteNumber":72,"Velocity":29,"Duration":125833,"SoundDuration":125833,"Delta":463779568},{"NoteNumber":60,"Velocity":29,"Duration":123493,"SoundDuration":123493,"Delta":463905402},{"NoteNumber":64,"Velocity":27,"Duration":125227,"SoundDuration":125227,"Delta":464028896},{"NoteNumber":67,"Velocity":37,"Duration":123864,"SoundDuration":123864,"Delta":464154124},{"NoteNumber":72,"Velocity":29,"Duration":123967,"SoundDuration":123967,"Delta":464277989},{"NoteNumber":60,"Velocity":29,"Duration":129310,"SoundDuration":129310,"Delta":464401956},{"NoteNumber":64,"Velocity":26,"Duration":129310,"SoundDuration":129310,"Delta":464531266},{"NoteNumber":79,"Velocity":54,"Duration":252100,"SoundDuration":252100,"Delta":464660576},{"NoteNumber":82,"Velocity":64,"Duration":252100,"SoundDuration":252100,"Delta":464660576},{"NoteNumber":67,"Velocity":42,"Duration":126050,"SoundDuration":126050,"Delta":464660576},{"NoteNumber":72,"Velocity":31,"Duration":126050,"SoundDuration":126050,"Delta":464786627},{"NoteNumber":82,"Velocity":51,"Duration":291733,"SoundDuration":291733,"Delta":464912677},{"NoteNumber":86,"Velocity":61,"Duration":291733,"SoundDuration":291733,"Delta":464912677},{"NoteNumber":70,"Velocity":31,"Duration":132158,"SoundDuration":132158,"Delta":464912677},{"NoteNumber":72,"Velocity":28,"Duration":159574,"SoundDuration":159574,"Delta":465044836},{"NoteNumber":81,"Velocity":48,"Duration":497639,"SoundDuration":497639,"Delta":465204410},{"NoteNumber":84,"Velocity":57,"Duration":497639,"SoundDuration":497639,"Delta":465204410},{"NoteNumber":69,"Velocity":39,"Duration":123469,"SoundDuration":123469,"Delta":465204410},{"NoteNumber":72,"Velocity":29,"Duration":123391,"SoundDuration":123391,"Delta":465327879},{"NoteNumber":60,"Velocity":29,"Duration":126637,"SoundDuration":126637,"Delta":465451271},{"NoteNumber":65,"Velocity":27,"Duration":124141,"SoundDuration":124141,"Delta":465577909},{"NoteNumber":69,"Velocity":42,"Duration":123682,"SoundDuration":123682,"Delta":465702050},{"NoteNumber":72,"Velocity":34,"Duration":123449,"SoundDuration":123449,"Delta":465825733},{"NoteNumber":60,"Velocity":34,"Duration":125522,"SoundDuration":125522,"Delta":465949182},{"NoteNumber":65,"Velocity":30,"Duration":124982,"SoundDuration":124982,"Delta":466074705},{"NoteNumber":69,"Velocity":41,"Duration":134529,"SoundDuration":134529,"Delta":466199688},{"NoteNumber":72,"Velocity":33,"Duration":134529,"SoundDuration":134529,"Delta":466334218},{"NoteNumber":60,"Velocity":33,"Duration":125000,"SoundDuration":125000,"Delta":466468747},{"NoteNumber":65,"Velocity":30,"Duration":124862,"SoundDuration":124862,"Delta":466593747},{"NoteNumber":60,"Velocity":41,"Duration":243660,"SoundDuration":243660,"Delta":466718609},{"NoteNumber":57,"Velocity":57,"Duration":243660,"SoundDuration":243660,"Delta":466718609},{"NoteNumber":69,"Velocity":37,"Duration":122194,"SoundDuration":122194,"Delta":466718609},{"NoteNumber":65,"Velocity":37,"Duration":122194,"SoundDuration":122194,"Delta":466718609},{"NoteNumber":72,"Velocity":29,"Duration":121465,"SoundDuration":121465,"Delta":466840804},{"NoteNumber":55,"Velocity":47,"Duration":249431,"SoundDuration":249431,"Delta":466962269},{"NoteNumber":60,"Velocity":39,"Duration":249431,"SoundDuration":249431,"Delta":466962269},{"NoteNumber":64,"Velocity":29,"Duration":125760,"SoundDuration":125760,"Delta":466962269},{"NoteNumber":70,"Velocity":29,"Duration":125760,"SoundDuration":125760,"Delta":466962269},{"NoteNumber":72,"Velocity":26,"Duration":111118,"SoundDuration":111118,"Delta":467100582},{"NoteNumber":60,"Velocity":42,"Duration":249793,"SoundDuration":249793,"Delta":467211701},{"NoteNumber":53,"Velocity":50,"Duration":249793,"SoundDuration":249793,"Delta":467211701},{"NoteNumber":69,"Velocity":37,"Duration":124125,"SoundDuration":124125,"Delta":467211701},{"NoteNumber":65,"Velocity":37,"Duration":124125,"SoundDuration":124125,"Delta":467211701},{"NoteNumber":72,"Velocity":29,"Duration":125755,"SoundDuration":125755,"Delta":467330552},{"NoteNumber":60,"Velocity":29,"Duration":123038,"SoundDuration":123038,"Delta":467461494},{"NoteNumber":65,"Velocity":28,"Duration":124907,"SoundDuration":124907,"Delta":467584532},{"NoteNumber":69,"Velocity":38,"Duration":125533,"SoundDuration":125533,"Delta":467709440},{"NoteNumber":72,"Velocity":30,"Duration":122868,"SoundDuration":122868,"Delta":467834973},{"NoteNumber":60,"Velocity":31,"Duration":123474,"SoundDuration":123474,"Delta":467957841},{"NoteNumber":65,"Velocity":29,"Duration":126339,"SoundDuration":126339,"Delta":468081316},{"NoteNumber":69,"Velocity":40,"Duration":124918,"SoundDuration":124918,"Delta":468207655},{"NoteNumber":72,"Velocity":32,"Duration":125859,"SoundDuration":125859,"Delta":468332573},{"NoteNumber":60,"Velocity":32,"Duration":129310,"SoundDuration":129310,"Delta":468458432},{"NoteNumber":65,"Velocity":29,"Duration":129310,"SoundDuration":129310,"Delta":468587743},{"NoteNumber":77,"Velocity":43,"Duration":252100,"SoundDuration":252100,"Delta":468717053},{"NoteNumber":81,"Velocity":51,"Duration":252100,"SoundDuration":252100,"Delta":468717053},{"NoteNumber":69,"Velocity":42,"Duration":126050,"SoundDuration":126050,"Delta":468717053},{"NoteNumber":72,"Velocity":33,"Duration":126050,"SoundDuration":126050,"Delta":468843103},{"NoteNumber":79,"Velocity":46,"Duration":291733,"SoundDuration":291733,"Delta":468969154},{"NoteNumber":82,"Velocity":55,"Duration":291733,"SoundDuration":291733,"Delta":468969154},{"NoteNumber":70,"Velocity":41,"Duration":132158,"SoundDuration":132158,"Delta":468969154},{"NoteNumber":72,"Velocity":44,"Duration":159574,"SoundDuration":159574,"Delta":469101312},{"NoteNumber":81,"Velocity":48,"Duration":497155,"SoundDuration":497155,"Delta":469260887},{"NoteNumber":84,"Velocity":57,"Duration":497155,"SoundDuration":497155,"Delta":469260887},{"NoteNumber":69,"Velocity":54,"Duration":123901,"SoundDuration":123901,"Delta":469260887},{"NoteNumber":72,"Velocity":41,"Duration":124549,"SoundDuration":124549,"Delta":469384788},{"NoteNumber":60,"Velocity":41,"Duration":124662,"SoundDuration":124662,"Delta":469509338},{"NoteNumber":65,"Velocity":36,"Duration":124041,"SoundDuration":124041,"Delta":469634001},{"NoteNumber":69,"Velocity":46,"Duration":125897,"SoundDuration":125897,"Delta":469758042},{"NoteNumber":72,"Velocity":41,"Duration":124661,"SoundDuration":124661,"Delta":469883940},{"NoteNumber":60,"Velocity":41,"Duration":125144,"SoundDuration":125144,"Delta":470008602},{"NoteNumber":65,"Velocity":40,"Duration":124707,"SoundDuration":124707,"Delta":470133746},{"NoteNumber":69,"Velocity":51,"Duration":134529,"SoundDuration":134529,"Delta":470258454},{"NoteNumber":72,"Velocity":44,"Duration":134529,"SoundDuration":134529,"Delta":470392983},{"NoteNumber":53,"Velocity":42,"Duration":994681,"SoundDuration":994681,"Delta":470527512},{"NoteNumber":60,"Velocity":50,"Duration":249982,"SoundDuration":249982,"Delta":470527512},{"NoteNumber":57,"Velocity":42,"Duration":249982,"SoundDuration":249982,"Delta":470527512},{"NoteNumber":69,"Velocity":46,"Duration":125000,"SoundDuration":125000,"Delta":470527512},{"NoteNumber":72,"Velocity":44,"Duration":124982,"SoundDuration":124982,"Delta":470652512},{"NoteNumber":62,"Velocity":51,"Duration":247431,"SoundDuration":247431,"Delta":470777495},{"NoteNumber":58,"Velocity":42,"Duration":247431,"SoundDuration":247431,"Delta":470777495},{"NoteNumber":70,"Velocity":55,"Duration":123075,"SoundDuration":123075,"Delta":470777495},{"NoteNumber":74,"Velocity":48,"Duration":124356,"SoundDuration":124356,"Delta":470900570},{"NoteNumber":55,"Velocity":45,"Duration":249919,"SoundDuration":249919,"Delta":471024926},{"NoteNumber":64,"Velocity":54,"Duration":249919,"SoundDuration":249919,"Delta":471024926},{"NoteNumber":67,"Velocity":50,"Duration":123965,"SoundDuration":123965,"Delta":471024926},{"NoteNumber":76,"Velocity":54,"Duration":125953,"SoundDuration":125953,"Delta":471148892},{"NoteNumber":65,"Velocity":44,"Duration":247349,"SoundDuration":247349,"Delta":471274845},{"NoteNumber":57,"Velocity":63,"Duration":247349,"SoundDuration":247349,"Delta":471274845},{"NoteNumber":69,"Velocity":60,"Duration":123583,"SoundDuration":123583,"Delta":471274845},{"NoteNumber":77,"Velocity":49,"Duration":123765,"SoundDuration":123765,"Delta":471398429},{"NoteNumber":65,"Velocity":49,"Duration":125533,"SoundDuration":125533,"Delta":471522194},{"NoteNumber":69,"Velocity":46,"Duration":125504,"SoundDuration":125504,"Delta":471647728},{"NoteNumber":72,"Velocity":52,"Duration":122300,"SoundDuration":122300,"Delta":471773232},{"NoteNumber":77,"Velocity":42,"Duration":126840,"SoundDuration":126840,"Delta":471895532},{"NoteNumber":65,"Velocity":42,"Duration":126417,"SoundDuration":126417,"Delta":472022373},{"NoteNumber":69,"Velocity":38,"Duration":123407,"SoundDuration":123407,"Delta":472148791},{"NoteNumber":72,"Velocity":58,"Duration":126107,"SoundDuration":126107,"Delta":472272199},{"NoteNumber":77,"Velocity":45,"Duration":125686,"SoundDuration":125686,"Delta":472398306},{"NoteNumber":81,"Velocity":58,"Duration":258620,"SoundDuration":258620,"Delta":472523992},{"NoteNumber":89,"Velocity":69,"Duration":258620,"SoundDuration":258620,"Delta":472523992},{"NoteNumber":69,"Velocity":45,"Duration":129310,"SoundDuration":129310,"Delta":472523992},{"NoteNumber":77,"Velocity":40,"Duration":129310,"SoundDuration":129310,"Delta":472653303},{"NoteNumber":84,"Velocity":55,"Duration":252100,"SoundDuration":252100,"Delta":472782613},{"NoteNumber":88,"Velocity":65,"Duration":252100,"SoundDuration":252100,"Delta":472782613},{"NoteNumber":72,"Velocity":56,"Duration":126050,"SoundDuration":126050,"Delta":472782613},{"NoteNumber":76,"Velocity":41,"Duration":126050,"SoundDuration":126050,"Delta":472908663},{"NoteNumber":82,"Velocity":52,"Duration":291733,"SoundDuration":291733,"Delta":473034714},{"NoteNumber":86,"Velocity":63,"Duration":291733,"SoundDuration":291733,"Delta":473034714},{"NoteNumber":70,"Velocity":41,"Duration":132158,"SoundDuration":132158,"Delta":473034714},{"NoteNumber":74,"Velocity":37,"Duration":159574,"SoundDuration":159574,"Delta":473166872},{"NoteNumber":81,"Velocity":60,"Duration":498788,"SoundDuration":498788,"Delta":473326447},{"NoteNumber":84,"Velocity":61,"Duration":498788,"SoundDuration":498788,"Delta":473326447},{"NoteNumber":69,"Velocity":53,"Duration":125000,"SoundDuration":125000,"Delta":473326447},{"NoteNumber":72,"Velocity":39,"Duration":124329,"SoundDuration":124329,"Delta":473451447},{"NoteNumber":60,"Velocity":39,"Duration":124683,"SoundDuration":124683,"Delta":473575776},{"NoteNumber":65,"Velocity":34,"Duration":124776,"SoundDuration":124776,"Delta":473700459},{"NoteNumber":69,"Velocity":46,"Duration":122900,"SoundDuration":122900,"Delta":473825235},{"NoteNumber":72,"Velocity":34,"Duration":124919,"SoundDuration":124919,"Delta":473948136},{"NoteNumber":60,"Velocity":34,"Duration":124364,"SoundDuration":124364,"Delta":474073056},{"NoteNumber":65,"Velocity":31,"Duration":123966,"SoundDuration":123966,"Delta":474197420},{"NoteNumber":69,"Velocity":40,"Duration":134529,"SoundDuration":134529,"Delta":474321387},{"NoteNumber":72,"Velocity":31,"Duration":134529,"SoundDuration":134529,"Delta":474455917},{"NoteNumber":60,"Velocity":48,"Duration":258620,"SoundDuration":258620,"Delta":474590446},{"NoteNumber":57,"Velocity":48,"Duration":258620,"SoundDuration":258620,"Delta":474590446},{"NoteNumber":69,"Velocity":31,"Duration":129310,"SoundDuration":129310,"Delta":474590446},{"NoteNumber":65,"Velocity":31,"Duration":129310,"SoundDuration":129310,"Delta":474590446},{"NoteNumber":72,"Velocity":30,"Duration":129310,"SoundDuration":129310,"Delta":474719756},{"NoteNumber":55,"Velocity":34,"Duration":252100,"SoundDuration":252100,"Delta":474849066},{"NoteNumber":58,"Velocity":41,"Duration":252100,"SoundDuration":252100,"Delta":474849066},{"NoteNumber":64,"Velocity":43,"Duration":126050,"SoundDuration":126050,"Delta":474849066},{"NoteNumber":70,"Velocity":43,"Duration":126050,"SoundDuration":126050,"Delta":474849066},{"NoteNumber":72,"Velocity":35,"Duration":126050,"SoundDuration":126050,"Delta":474975117},{"NoteNumber":48,"Velocity":33,"Duration":291733,"SoundDuration":291733,"Delta":475101167},{"NoteNumber":55,"Velocity":39,"Duration":291733,"SoundDuration":291733,"Delta":475101167},{"NoteNumber":67,"Velocity":35,"Duration":132158,"SoundDuration":132158,"Delta":475101167},{"NoteNumber":64,"Velocity":35,"Duration":132158,"SoundDuration":132158,"Delta":475101167},{"NoteNumber":72,"Velocity":33,"Duration":159574,"SoundDuration":159574,"Delta":475233326},{"NoteNumber":57,"Velocity":48,"Duration":250000,"SoundDuration":250000,"Delta":475392900},{"NoteNumber":53,"Velocity":40,"Duration":250000,"SoundDuration":250000,"Delta":475392900},{"NoteNumber":69,"Velocity":36,"Duration":125000,"SoundDuration":125000,"Delta":475392900},{"NoteNumber":65,"Velocity":36,"Duration":125000,"SoundDuration":125000,"Delta":475392900},{"NoteNumber":72,"Velocity":30,"Duration":125000,"SoundDuration":125000,"Delta":475517900},{"NoteNumber":60,"Velocity":30,"Duration":124982,"SoundDuration":124982,"Delta":475642900},{"NoteNumber":65,"Velocity":26,"Duration":124464,"SoundDuration":124464,"Delta":475767883},{"NoteNumber":69,"Velocity":30,"Duration":124351,"SoundDuration":124351,"Delta":475892347},{"NoteNumber":72,"Velocity":33,"Duration":126252,"SoundDuration":126252,"Delta":476016698},{"NoteNumber":60,"Velocity":33,"Duration":125341,"SoundDuration":125341,"Delta":476142951},{"NoteNumber":65,"Velocity":33,"Duration":126063,"SoundDuration":126063,"Delta":476268292},{"NoteNumber":69,"Velocity":45,"Duration":134529,"SoundDuration":134529,"Delta":476394355},{"NoteNumber":72,"Velocity":31,"Duration":134529,"SoundDuration":134529,"Delta":476528885},{"NoteNumber":60,"Velocity":31,"Duration":129310,"SoundDuration":129310,"Delta":476663414},{"NoteNumber":65,"Velocity":27,"Duration":129310,"SoundDuration":129310,"Delta":476792724},{"NoteNumber":81,"Velocity":36,"Duration":269058,"SoundDuration":269058,"Delta":476922034},{"NoteNumber":77,"Velocity":30,"Duration":269058,"SoundDuration":269058,"Delta":476922034},{"NoteNumber":69,"Velocity":25,"Duration":134529,"SoundDuration":134529,"Delta":476922034},{"NoteNumber":72,"Velocity":19,"Duration":134529,"SoundDuration":134529,"Delta":477056564},{"NoteNumber":82,"Velocity":38,"Duration":310028,"SoundDuration":310028,"Delta":477191093},{"NoteNumber":79,"Velocity":32,"Duration":310028,"SoundDuration":310028,"Delta":477191093},{"NoteNumber":70,"Velocity":24,"Duration":137614,"SoundDuration":137614,"Delta":477191093},{"NoteNumber":72,"Velocity":26,"Duration":172413,"SoundDuration":172413,"Delta":477328708},{"NoteNumber":81,"Velocity":34,"Duration":504343,"SoundDuration":504343,"Delta":477501121},{"NoteNumber":84,"Velocity":41,"Duration":504343,"SoundDuration":504343,"Delta":477501121},{"NoteNumber":69,"Velocity":32,"Duration":126050,"SoundDuration":126050,"Delta":477501121},{"NoteNumber":72,"Velocity":24,"Duration":126050,"SoundDuration":126050,"Delta":477627172},{"NoteNumber":60,"Velocity":24,"Duration":126050,"SoundDuration":126050,"Delta":477753222},{"NoteNumber":65,"Velocity":24,"Duration":126192,"SoundDuration":126192,"Delta":477879273},{"NoteNumber":69,"Velocity":27,"Duration":124966,"SoundDuration":124966,"Delta":478005465},{"NoteNumber":72,"Velocity":24,"Duration":126817,"SoundDuration":126817,"Delta":478130432},{"NoteNumber":60,"Velocity":24,"Duration":125824,"SoundDuration":125824,"Delta":478257250},{"NoteNumber":65,"Velocity":24,"Duration":125546,"SoundDuration":125546,"Delta":478383074},{"NoteNumber":69,"Velocity":30,"Duration":137614,"SoundDuration":137614,"Delta":478508620},{"NoteNumber":72,"Velocity":26,"Duration":137614,"SoundDuration":137614,"Delta":478646235},{"NoteNumber":57,"Velocity":25,"Duration":250088,"SoundDuration":250088,"Delta":478783850},{"NoteNumber":53,"Velocity":25,"Duration":1010726,"SoundDuration":1010726,"Delta":478783850},{"NoteNumber":60,"Velocity":30,"Duration":250088,"SoundDuration":250088,"Delta":478783850},{"NoteNumber":69,"Velocity":27,"Duration":125000,"SoundDuration":125000,"Delta":478783850},{"NoteNumber":72,"Velocity":28,"Duration":125088,"SoundDuration":125088,"Delta":478908850},{"NoteNumber":58,"Velocity":27,"Duration":255318,"SoundDuration":255318,"Delta":479033939},{"NoteNumber":62,"Velocity":32,"Duration":255318,"SoundDuration":255318,"Delta":479033939},{"NoteNumber":70,"Velocity":33,"Duration":127659,"SoundDuration":127659,"Delta":479033939},{"NoteNumber":74,"Velocity":28,"Duration":127659,"SoundDuration":127659,"Delta":479161598},{"NoteNumber":64,"Velocity":34,"Duration":255318,"SoundDuration":255318,"Delta":479289258},{"NoteNumber":55,"Velocity":28,"Duration":255318,"SoundDuration":255318,"Delta":479289258},{"NoteNumber":67,"Velocity":30,"Duration":127659,"SoundDuration":127659,"Delta":479289258},{"NoteNumber":76,"Velocity":32,"Duration":127659,"SoundDuration":127659,"Delta":479416917},{"NoteNumber":65,"Velocity":44,"Duration":250000,"SoundDuration":250000,"Delta":479544577},{"NoteNumber":57,"Velocity":37,"Duration":250000,"SoundDuration":250000,"Delta":479544577},{"NoteNumber":69,"Velocity":36,"Duration":125000,"SoundDuration":125000,"Delta":479544577},{"NoteNumber":77,"Velocity":29,"Duration":125000,"SoundDuration":125000,"Delta":479669577},{"NoteNumber":65,"Velocity":29,"Duration":125000,"SoundDuration":125000,"Delta":479794577},{"NoteNumber":69,"Velocity":27,"Duration":125000,"SoundDuration":125000,"Delta":479919577},{"NoteNumber":72,"Velocity":31,"Duration":125000,"SoundDuration":125000,"Delta":480044577},{"NoteNumber":77,"Velocity":25,"Duration":125000,"SoundDuration":125000,"Delta":480169577},{"NoteNumber":65,"Velocity":25,"Duration":125000,"SoundDuration":125000,"Delta":480294577},{"NoteNumber":69,"Velocity":25,"Duration":125000,"SoundDuration":125000,"Delta":480419577},{"NoteNumber":72,"Velocity":34,"Duration":137329,"SoundDuration":137329,"Delta":480544577},{"NoteNumber":77,"Velocity":24,"Duration":137452,"SoundDuration":137452,"Delta":480681906},{"NoteNumber":81,"Velocity":35,"Duration":265486,"SoundDuration":265486,"Delta":480819358},{"NoteNumber":89,"Velocity":42,"Duration":265486,"SoundDuration":265486,"Delta":480819358},{"NoteNumber":69,"Velocity":24,"Duration":132743,"SoundDuration":132743,"Delta":480819358},{"NoteNumber":77,"Velocity":21,"Duration":132743,"SoundDuration":132743,"Delta":480952102},{"NoteNumber":88,"Velocity":39,"Duration":258620,"SoundDuration":258620,"Delta":481084845},{"NoteNumber":84,"Velocity":33,"Duration":258620,"SoundDuration":258620,"Delta":481084845},{"NoteNumber":72,"Velocity":33,"Duration":129310,"SoundDuration":129310,"Delta":481084845},{"NoteNumber":76,"Velocity":24,"Duration":129310,"SoundDuration":129310,"Delta":481214155},{"NoteNumber":82,"Velocity":30,"Duration":291733,"SoundDuration":291733,"Delta":481343465},{"NoteNumber":86,"Velocity":36,"Duration":291733,"SoundDuration":291733,"Delta":481343465},{"NoteNumber":70,"Velocity":24,"Duration":132158,"SoundDuration":132158,"Delta":481343465},{"NoteNumber":74,"Velocity":23,"Duration":159574,"SoundDuration":159574,"Delta":481475624},{"NoteNumber":84,"Velocity":42,"Duration":508474,"SoundDuration":508474,"Delta":481635198},{"NoteNumber":81,"Velocity":35,"Duration":508474,"SoundDuration":508474,"Delta":481635198},{"NoteNumber":69,"Velocity":31,"Duration":127118,"SoundDuration":127118,"Delta":481635198},{"NoteNumber":72,"Velocity":24,"Duration":127118,"SoundDuration":127118,"Delta":481762317},{"NoteNumber":60,"Velocity":24,"Duration":127118,"SoundDuration":127118,"Delta":481889436},{"NoteNumber":65,"Velocity":24,"Duration":127118,"SoundDuration":127118,"Delta":482016555},{"NoteNumber":69,"Velocity":28,"Duration":129310,"SoundDuration":129310,"Delta":482143673},{"NoteNumber":72,"Velocity":22,"Duration":129310,"SoundDuration":129310,"Delta":482272984},{"NoteNumber":60,"Velocity":22,"Duration":129310,"SoundDuration":129310,"Delta":482402294},{"NoteNumber":65,"Velocity":22,"Duration":129310,"SoundDuration":129310,"Delta":482531604},{"NoteNumber":69,"Velocity":27,"Duration":137614,"SoundDuration":137614,"Delta":482660914},{"NoteNumber":72,"Velocity":21,"Duration":137614,"SoundDuration":137614,"Delta":482798529},{"NoteNumber":57,"Velocity":37,"Duration":266666,"SoundDuration":266666,"Delta":482936144},{"NoteNumber":60,"Velocity":37,"Duration":266666,"SoundDuration":266666,"Delta":482936144},{"NoteNumber":69,"Velocity":21,"Duration":133333,"SoundDuration":133333,"Delta":482936144},{"NoteNumber":65,"Velocity":21,"Duration":133333,"SoundDuration":133333,"Delta":482936144},{"NoteNumber":72,"Velocity":21,"Duration":133333,"SoundDuration":133333,"Delta":483069477},{"NoteNumber":55,"Velocity":28,"Duration":257510,"SoundDuration":257510,"Delta":483202810},{"NoteNumber":58,"Velocity":33,"Duration":257510,"SoundDuration":257510,"Delta":483202810},{"NoteNumber":70,"Velocity":33,"Duration":128755,"SoundDuration":128755,"Delta":483202810},{"NoteNumber":64,"Velocity":33,"Duration":128755,"SoundDuration":128755,"Delta":483202810},{"NoteNumber":72,"Velocity":24,"Duration":128755,"SoundDuration":128755,"Delta":483331566},{"NoteNumber":48,"Velocity":28,"Duration":291733,"SoundDuration":291733,"Delta":483460321},{"NoteNumber":55,"Velocity":33,"Duration":291733,"SoundDuration":291733,"Delta":483460321},{"NoteNumber":64,"Velocity":24,"Duration":132158,"SoundDuration":132158,"Delta":483460321},{"NoteNumber":67,"Velocity":24,"Duration":132158,"SoundDuration":132158,"Delta":483460321},{"NoteNumber":72,"Velocity":22,"Duration":159574,"SoundDuration":159574,"Delta":483592479},{"NoteNumber":53,"Velocity":31,"Duration":253701,"SoundDuration":253701,"Delta":483752054},{"NoteNumber":57,"Velocity":37,"Duration":253701,"SoundDuration":253701,"Delta":483752054},{"NoteNumber":65,"Velocity":31,"Duration":127118,"SoundDuration":127118,"Delta":483752054},{"NoteNumber":69,"Velocity":31,"Duration":127118,"SoundDuration":127118,"Delta":483752054},{"NoteNumber":72,"Velocity":25,"Duration":126582,"SoundDuration":126582,"Delta":483879173},{"NoteNumber":60,"Velocity":25,"Duration":125522,"SoundDuration":125522,"Delta":484005755},{"NoteNumber":65,"Velocity":24,"Duration":127659,"SoundDuration":127659,"Delta":484131278},{"NoteNumber":69,"Velocity":28,"Duration":127118,"SoundDuration":127118,"Delta":484258937},{"NoteNumber":72,"Velocity":22,"Duration":125522,"SoundDuration":125522,"Delta":484386056},{"NoteNumber":60,"Velocity":22,"Duration":123966,"SoundDuration":123966,"Delta":484511579},{"NoteNumber":65,"Velocity":22,"Duration":125000,"SoundDuration":125000,"Delta":484635546},{"NoteNumber":69,"Velocity":27,"Duration":134529,"SoundDuration":134529,"Delta":484760546},{"NoteNumber":72,"Velocity":21,"Duration":134529,"SoundDuration":134529,"Delta":484895075},{"NoteNumber":60,"Velocity":37,"Duration":269058,"SoundDuration":269058,"Delta":485029605},{"NoteNumber":57,"Velocity":37,"Duration":269058,"SoundDuration":269058,"Delta":485029605},{"NoteNumber":65,"Velocity":21,"Duration":134529,"SoundDuration":134529,"Delta":485029605},{"NoteNumber":69,"Velocity":21,"Duration":134529,"SoundDuration":134529,"Delta":485029605},{"NoteNumber":72,"Velocity":21,"Duration":134529,"SoundDuration":134529,"Delta":485164134},{"NoteNumber":55,"Velocity":28,"Duration":259740,"SoundDuration":259740,"Delta":485298663},{"NoteNumber":58,"Velocity":33,"Duration":259740,"SoundDuration":259740,"Delta":485298663},{"NoteNumber":70,"Velocity":33,"Duration":129870,"SoundDuration":129870,"Delta":485298663},{"NoteNumber":64,"Velocity":33,"Duration":129870,"SoundDuration":129870,"Delta":485298663},{"NoteNumber":72,"Velocity":24,"Duration":129870,"SoundDuration":129870,"Delta":485428533},{"NoteNumber":55,"Velocity":33,"Duration":296560,"SoundDuration":296560,"Delta":485558404},{"NoteNumber":48,"Velocity":28,"Duration":296560,"SoundDuration":296560,"Delta":485558404},{"NoteNumber":67,"Velocity":24,"Duration":136986,"SoundDuration":136986,"Delta":485558404},{"NoteNumber":64,"Velocity":24,"Duration":136986,"SoundDuration":136986,"Delta":485558404},{"NoteNumber":72,"Velocity":23,"Duration":159574,"SoundDuration":159574,"Delta":485695390},{"NoteNumber":57,"Velocity":37,"Duration":250522,"SoundDuration":250522,"Delta":485854964},{"NoteNumber":53,"Velocity":31,"Duration":250522,"SoundDuration":250522,"Delta":485854964},{"NoteNumber":69,"Velocity":31,"Duration":125522,"SoundDuration":125522,"Delta":485854964},{"NoteNumber":65,"Velocity":31,"Duration":125522,"SoundDuration":125522,"Delta":485854964},{"NoteNumber":72,"Velocity":24,"Duration":125000,"SoundDuration":125000,"Delta":485980487},{"NoteNumber":60,"Velocity":24,"Duration":126050,"SoundDuration":126050,"Delta":486105487},{"NoteNumber":65,"Velocity":25,"Duration":125000,"SoundDuration":125000,"Delta":486231538},{"NoteNumber":69,"Velocity":26,"Duration":125000,"SoundDuration":125000,"Delta":486356538},{"NoteNumber":72,"Velocity":20,"Duration":126582,"SoundDuration":126582,"Delta":486481538},{"NoteNumber":60,"Velocity":20,"Duration":126050,"SoundDuration":126050,"Delta":486608120},{"NoteNumber":65,"Velocity":20,"Duration":126582,"SoundDuration":126582,"Delta":486734171},{"NoteNumber":69,"Velocity":24,"Duration":130434,"SoundDuration":130434,"Delta":486860753},{"NoteNumber":72,"Velocity":18,"Duration":130434,"SoundDuration":130434,"Delta":486991188},{"NoteNumber":60,"Velocity":32,"Duration":265486,"SoundDuration":265486,"Delta":487121622},{"NoteNumber":57,"Velocity":32,"Duration":265486,"SoundDuration":265486,"Delta":487121622},{"NoteNumber":65,"Velocity":18,"Duration":132743,"SoundDuration":132743,"Delta":487121622},{"NoteNumber":69,"Velocity":18,"Duration":132743,"SoundDuration":132743,"Delta":487121622},{"NoteNumber":72,"Velocity":18,"Duration":132743,"SoundDuration":132743,"Delta":487254366},{"NoteNumber":58,"Velocity":28,"Duration":258620,"SoundDuration":258620,"Delta":487387109},{"NoteNumber":55,"Velocity":23,"Duration":258620,"SoundDuration":258620,"Delta":487387109},{"NoteNumber":70,"Velocity":28,"Duration":129310,"SoundDuration":129310,"Delta":487387109},{"NoteNumber":64,"Velocity":28,"Duration":129310,"SoundDuration":129310,"Delta":487387109},{"NoteNumber":72,"Velocity":20,"Duration":129310,"SoundDuration":129310,"Delta":487516419},{"NoteNumber":48,"Velocity":23,"Duration":292907,"SoundDuration":292907,"Delta":487645729},{"NoteNumber":55,"Velocity":27,"Duration":292907,"SoundDuration":292907,"Delta":487645729},{"NoteNumber":67,"Velocity":19,"Duration":133333,"SoundDuration":133333,"Delta":487645729},{"NoteNumber":64,"Velocity":19,"Duration":133333,"SoundDuration":133333,"Delta":487645729},{"NoteNumber":72,"Velocity":19,"Duration":159574,"SoundDuration":159574,"Delta":487779063},{"NoteNumber":45,"Velocity":24,"Duration":252100,"SoundDuration":252100,"Delta":487938637},{"NoteNumber":41,"Velocity":24,"Duration":252100,"SoundDuration":252100,"Delta":487938637},{"NoteNumber":53,"Velocity":29,"Duration":252100,"SoundDuration":252100,"Delta":487938637},{"NoteNumber":65,"Velocity":30,"Duration":126050,"SoundDuration":126050,"Delta":487938637},{"NoteNumber":69,"Velocity":22,"Duration":126050,"SoundDuration":126050,"Delta":488064688},{"NoteNumber":57,"Velocity":22,"Duration":126050,"SoundDuration":126050,"Delta":488190738},{"NoteNumber":60,"Velocity":20,"Duration":126050,"SoundDuration":126050,"Delta":488316789},{"NoteNumber":65,"Velocity":33,"Duration":126050,"SoundDuration":126050,"Delta":488442839},{"NoteNumber":69,"Velocity":25,"Duration":126050,"SoundDuration":126050,"Delta":488568890},{"NoteNumber":57,"Velocity":25,"Duration":126050,"SoundDuration":126050,"Delta":488694940},{"NoteNumber":60,"Velocity":24,"Duration":133333,"SoundDuration":133333,"Delta":488820991},{"NoteNumber":65,"Velocity":37,"Duration":127118,"SoundDuration":127118,"Delta":488954324},{"NoteNumber":69,"Velocity":26,"Duration":127118,"SoundDuration":127118,"Delta":489081443},{"NoteNumber":57,"Velocity":26,"Duration":127118,"SoundDuration":127118,"Delta":489208561},{"NoteNumber":60,"Velocity":25,"Duration":127118,"SoundDuration":127118,"Delta":489335680},{"NoteNumber":65,"Velocity":36,"Duration":127118,"SoundDuration":127118,"Delta":489462799},{"NoteNumber":69,"Velocity":27,"Duration":127118,"SoundDuration":127118,"Delta":489589918},{"NoteNumber":57,"Velocity":28,"Duration":127118,"SoundDuration":127118,"Delta":489717036},{"NoteNumber":60,"Velocity":28,"Duration":132158,"SoundDuration":132158,"Delta":489844155},{"NoteNumber":65,"Velocity":47,"Duration":121951,"SoundDuration":121951,"Delta":489976314},{"NoteNumber":68,"Velocity":39,"Duration":121951,"SoundDuration":121951,"Delta":490098265},{"NoteNumber":56,"Velocity":39,"Duration":121951,"SoundDuration":121951,"Delta":490220216},{"NoteNumber":40,"Velocity":39,"Duration":243902,"SoundDuration":243902,"Delta":490220216},{"NoteNumber":60,"Velocity":43,"Duration":121951,"SoundDuration":121951,"Delta":490342167},{"NoteNumber":65,"Velocity":54,"Duration":121951,"SoundDuration":121951,"Delta":490464119},{"NoteNumber":41,"Velocity":40,"Duration":243902,"SoundDuration":243902,"Delta":490464119},{"NoteNumber":68,"Velocity":45,"Duration":121951,"SoundDuration":121951,"Delta":490586070},{"NoteNumber":56,"Velocity":45,"Duration":121951,"SoundDuration":121951,"Delta":490708021},{"NoteNumber":44,"Velocity":42,"Duration":243902,"SoundDuration":243902,"Delta":490708021},{"NoteNumber":60,"Velocity":48,"Duration":121951,"SoundDuration":121951,"Delta":490829972},{"NoteNumber":65,"Velocity":64,"Duration":127570,"SoundDuration":127570,"Delta":490951924},{"NoteNumber":47,"Velocity":43,"Duration":255230,"SoundDuration":255230,"Delta":490951924},{"NoteNumber":68,"Velocity":50,"Duration":127659,"SoundDuration":127659,"Delta":491079494},{"NoteNumber":56,"Velocity":52,"Duration":127659,"SoundDuration":127659,"Delta":491207154},{"NoteNumber":48,"Velocity":44,"Duration":255525,"SoundDuration":255525,"Delta":491207154},{"NoteNumber":60,"Velocity":55,"Duration":127865,"SoundDuration":127865,"Delta":491334813},{"NoteNumber":68,"Velocity":69,"Duration":130130,"SoundDuration":130130,"Delta":491462679},{"NoteNumber":53,"Velocity":46,"Duration":262079,"SoundDuration":262079,"Delta":491462679},{"NoteNumber":72,"Velocity":59,"Duration":131948,"SoundDuration":131948,"Delta":491592810},{"NoteNumber":60,"Velocity":61,"Duration":134060,"SoundDuration":134060,"Delta":491724758},{"NoteNumber":55,"Velocity":47,"Duration":270020,"SoundDuration":270020,"Delta":491724758},{"NoteNumber":65,"Velocity":63,"Duration":135959,"SoundDuration":135959,"Delta":491858819},{"NoteNumber":60,"Velocity":55,"Duration":103092,"SoundDuration":103092,"Delta":491994778},{"NoteNumber":56,"Velocity":51,"Duration":1800152,"SoundDuration":1800152,"Delta":491994778},{"NoteNumber":48,"Velocity":51,"Duration":2313841,"SoundDuration":2313841,"Delta":491994778},{"NoteNumber":41,"Velocity":43,"Duration":4652240,"SoundDuration":4652240,"Delta":491994778},{"NoteNumber":65,"Velocity":60,"Duration":103092,"SoundDuration":103092,"Delta":492097871},{"NoteNumber":68,"Velocity":66,"Duration":103092,"SoundDuration":103092,"Delta":492200964},{"NoteNumber":72,"Velocity":77,"Duration":821917,"SoundDuration":821917,"Delta":492304057},{"NoteNumber":70,"Velocity":47,"Duration":148514,"SoundDuration":148514,"Delta":493125974},{"NoteNumber":68,"Velocity":60,"Duration":387698,"SoundDuration":387698,"Delta":493274489},{"NoteNumber":70,"Velocity":54,"Duration":132743,"SoundDuration":132743,"Delta":493662187},{"NoteNumber":67,"Velocity":60,"Duration":380356,"SoundDuration":380356,"Delta":493794931},{"NoteNumber":52,"Velocity":43,"Duration":513689,"SoundDuration":513689,"Delta":493794931},{"NoteNumber":43,"Velocity":36,"Duration":513689,"SoundDuration":513689,"Delta":493794931},{"NoteNumber":68,"Velocity":51,"Duration":133333,"SoundDuration":133333,"Delta":494175287},{"NoteNumber":65,"Velocity":60,"Duration":132743,"SoundDuration":132743,"Delta":494308620},{"NoteNumber":44,"Velocity":43,"Duration":519723,"SoundDuration":519723,"Delta":494308620},{"NoteNumber":53,"Velocity":43,"Duration":2338398,"SoundDuration":2338398,"Delta":494308620},{"NoteNumber":67,"Velocity":48,"Duration":63559,"SoundDuration":63559,"Delta":494441363},{"NoteNumber":65,"Velocity":48,"Duration":63559,"SoundDuration":63559,"Delta":494504923},{"NoteNumber":64,"Velocity":48,"Duration":63559,"SoundDuration":63559,"Delta":494568482},{"NoteNumber":65,"Velocity":45,"Duration":63559,"SoundDuration":63559,"Delta":494632041},{"NoteNumber":66,"Velocity":45,"Duration":132743,"SoundDuration":132743,"Delta":494695601},{"NoteNumber":63,"Velocity":62,"Duration":132158,"SoundDuration":132158,"Delta":494828344},{"NoteNumber":45,"Velocity":39,"Duration":519139,"SoundDuration":519139,"Delta":494828344},{"NoteNumber":65,"Velocity":49,"Duration":63559,"SoundDuration":63559,"Delta":494960503},{"NoteNumber":63,"Velocity":49,"Duration":63559,"SoundDuration":63559,"Delta":495024062},{"NoteNumber":62,"Velocity":49,"Duration":63559,"SoundDuration":63559,"Delta":495087621},{"NoteNumber":63,"Velocity":44,"Duration":63559,"SoundDuration":63559,"Delta":495151181},{"NoteNumber":65,"Velocity":47,"Duration":132743,"SoundDuration":132743,"Delta":495214740},{"NoteNumber":61,"Velocity":60,"Duration":133928,"SoundDuration":133928,"Delta":495347483},{"NoteNumber":43,"Velocity":43,"Duration":523176,"SoundDuration":523176,"Delta":495347483},{"NoteNumber":63,"Velocity":49,"Duration":63829,"SoundDuration":63829,"Delta":495481412},{"NoteNumber":61,"Velocity":49,"Duration":63829,"SoundDuration":63829,"Delta":495545242},{"NoteNumber":60,"Velocity":49,"Duration":63829,"SoundDuration":63829,"Delta":495609071},{"NoteNumber":61,"Velocity":46,"Duration":63829,"SoundDuration":63829,"Delta":495672901},{"NoteNumber":63,"Velocity":46,"Duration":133928,"SoundDuration":133928,"Delta":495736731},{"NoteNumber":60,"Velocity":60,"Duration":132743,"SoundDuration":132743,"Delta":495870659},{"NoteNumber":45,"Velocity":40,"Duration":523082,"SoundDuration":523082,"Delta":495870659},{"NoteNumber":61,"Velocity":50,"Duration":64102,"SoundDuration":64102,"Delta":496003403},{"NoteNumber":60,"Velocity":50,"Duration":64102,"SoundDuration":64102,"Delta":496067505},{"NoteNumber":59,"Velocity":50,"Duration":64102,"SoundDuration":64102,"Delta":496131608},{"NoteNumber":60,"Velocity":46,"Duration":64102,"SoundDuration":64102,"Delta":496195710},{"NoteNumber":61,"Velocity":46,"Duration":133928,"SoundDuration":133928,"Delta":496259813},{"NoteNumber":58,"Velocity":60,"Duration":123966,"SoundDuration":123966,"Delta":496393742},{"NoteNumber":49,"Velocity":44,"Duration":253277,"SoundDuration":253277,"Delta":496393742},{"NoteNumber":61,"Velocity":52,"Duration":129310,"SoundDuration":129310,"Delta":496517709},{"NoteNumber":58,"Velocity":52,"Duration":123966,"SoundDuration":123966,"Delta":496647019},{"NoteNumber":49,"Velocity":32,"Duration":123966,"SoundDuration":123966,"Delta":496647019},{"NoteNumber":53,"Velocity":37,"Duration":123966,"SoundDuration":123966,"Delta":496647019},{"NoteNumber":61,"Velocity":53,"Duration":129310,"SoundDuration":129310,"Delta":496770986},{"NoteNumber":56,"Velocity":63,"Duration":123966,"SoundDuration":123966,"Delta":496900296},{"NoteNumber":48,"Velocity":32,"Duration":123966,"SoundDuration":123966,"Delta":496900296},{"NoteNumber":51,"Velocity":41,"Duration":123966,"SoundDuration":123966,"Delta":496900296},{"NoteNumber":61,"Velocity":56,"Duration":129310,"SoundDuration":129310,"Delta":497024263},{"NoteNumber":56,"Velocity":57,"Duration":125000,"SoundDuration":125000,"Delta":497153573},{"NoteNumber":48,"Velocity":36,"Duration":125000,"SoundDuration":125000,"Delta":497153573},{"NoteNumber":51,"Velocity":44,"Duration":125000,"SoundDuration":125000,"Delta":497153573},{"NoteNumber":61,"Velocity":60,"Duration":129870,"SoundDuration":129870,"Delta":497278573},{"NoteNumber":54,"Velocity":68,"Duration":126582,"SoundDuration":126582,"Delta":497408444},{"NoteNumber":49,"Velocity":47,"Duration":126582,"SoundDuration":126582,"Delta":497408444},{"NoteNumber":46,"Velocity":39,"Duration":126582,"SoundDuration":126582,"Delta":497408444},{"NoteNumber":61,"Velocity":62,"Duration":132743,"SoundDuration":132743,"Delta":497535026},{"NoteNumber":54,"Velocity":63,"Duration":128755,"SoundDuration":128755,"Delta":497667769},{"NoteNumber":46,"Velocity":43,"Duration":128755,"SoundDuration":128755,"Delta":497667769},{"NoteNumber":49,"Velocity":51,"Duration":128755,"SoundDuration":128755,"Delta":497667769},{"NoteNumber":61,"Velocity":59,"Duration":134529,"SoundDuration":134529,"Delta":497796524},{"NoteNumber":53,"Velocity":72,"Duration":142179,"SoundDuration":142179,"Delta":497931054},{"NoteNumber":44,"Velocity":46,"Duration":142179,"SoundDuration":142179,"Delta":497931054},{"NoteNumber":48,"Velocity":55,"Duration":142179,"SoundDuration":142179,"Delta":497931054},{"NoteNumber":61,"Velocity":65,"Duration":142179,"SoundDuration":142179,"Delta":498073234},{"NoteNumber":53,"Velocity":67,"Duration":142179,"SoundDuration":142179,"Delta":498215414},{"NoteNumber":48,"Velocity":60,"Duration":142179,"SoundDuration":142179,"Delta":498215414},{"NoteNumber":44,"Velocity":49,"Duration":142179,"SoundDuration":142179,"Delta":498215414},{"NoteNumber":61,"Velocity":67,"Duration":142179,"SoundDuration":142179,"Delta":498357594},{"NoteNumber":52,"Velocity":90,"Duration":298507,"SoundDuration":298507,"Delta":498499774},{"NoteNumber":43,"Velocity":54,"Duration":298507,"SoundDuration":298507,"Delta":498499774},{"NoteNumber":46,"Velocity":64,"Duration":298507,"SoundDuration":298507,"Delta":498499774},{"NoteNumber":67,"Velocity":75,"Duration":298507,"SoundDuration":298507,"Delta":499096789},{"NoteNumber":70,"Velocity":75,"Duration":298507,"SoundDuration":298507,"Delta":499096789},{"NoteNumber":73,"Velocity":90,"Duration":298507,"SoundDuration":298507,"Delta":499096789},{"NoteNumber":52,"Velocity":55,"Duration":298507,"SoundDuration":298507,"Delta":499096789},{"NoteNumber":58,"Velocity":55,"Duration":298507,"SoundDuration":298507,"Delta":499096789},{"NoteNumber":61,"Velocity":65,"Duration":298507,"SoundDuration":298507,"Delta":499096789},{"NoteNumber":55,"Velocity":55,"Duration":298507,"SoundDuration":298507,"Delta":499096789},{"NoteNumber":72,"Velocity":41,"Duration":64102,"SoundDuration":64102,"Delta":500241749},{"NoteNumber":73,"Velocity":41,"Duration":64102,"SoundDuration":64102,"Delta":500305851},{"NoteNumber":75,"Velocity":36,"Duration":64102,"SoundDuration":64102,"Delta":500369954},{"NoteNumber":73,"Velocity":47,"Duration":402684,"SoundDuration":402684,"Delta":500434056},{"NoteNumber":72,"Velocity":41,"Duration":151515,"SoundDuration":151515,"Delta":500836741},{"NoteNumber":72,"Velocity":46,"Duration":197044,"SoundDuration":197044,"Delta":500988256},{"NoteNumber":53,"Velocity":29,"Duration":575940,"SoundDuration":575940,"Delta":500988256},{"NoteNumber":56,"Velocity":35,"Duration":575940,"SoundDuration":575940,"Delta":500988256},{"NoteNumber":80,"Velocity":53,"Duration":191980,"SoundDuration":191980,"Delta":501185300},{"NoteNumber":79,"Velocity":47,"Duration":186915,"SoundDuration":186915,"Delta":501377281},{"NoteNumber":77,"Velocity":47,"Duration":186915,"SoundDuration":186915,"Delta":501564197},{"NoteNumber":72,"Velocity":43,"Duration":186915,"SoundDuration":186915,"Delta":501751113},{"NoteNumber":68,"Velocity":43,"Duration":186915,"SoundDuration":186915,"Delta":501938029},{"NoteNumber":67,"Velocity":47,"Duration":196078,"SoundDuration":196078,"Delta":502124945},{"NoteNumber":49,"Velocity":27,"Duration":566845,"SoundDuration":566845,"Delta":502124945},{"NoteNumber":46,"Velocity":27,"Duration":566845,"SoundDuration":566845,"Delta":502124945},{"NoteNumber":55,"Velocity":32,"Duration":566845,"SoundDuration":566845,"Delta":502124945},{"NoteNumber":75,"Velocity":52,"Duration":188948,"SoundDuration":188948,"Delta":502321023},{"NoteNumber":72,"Velocity":39,"Duration":181818,"SoundDuration":181818,"Delta":502509971},{"NoteNumber":73,"Velocity":44,"Duration":181818,"SoundDuration":181818,"Delta":502691790},{"NoteNumber":70,"Velocity":38,"Duration":197860,"SoundDuration":197860,"Delta":502873608},{"NoteNumber":67,"Velocity":37,"Duration":213496,"SoundDuration":213496,"Delta":503071469},{"NoteNumber":65,"Velocity":44,"Duration":1251372,"SoundDuration":1251372,"Delta":503284965},{"NoteNumber":48,"Velocity":41,"Duration":1251372,"SoundDuration":1251372,"Delta":503284965},{"NoteNumber":56,"Velocity":36,"Duration":198246,"SoundDuration":198246,"Delta":503486672},{"NoteNumber":53,"Velocity":32,"Duration":198246,"SoundDuration":198246,"Delta":503486672},{"NoteNumber":58,"Velocity":37,"Duration":195291,"SoundDuration":195291,"Delta":503684919},{"NoteNumber":55,"Velocity":33,"Duration":195291,"SoundDuration":195291,"Delta":503684919},{"NoteNumber":60,"Velocity":38,"Duration":200428,"SoundDuration":200428,"Delta":503880210},{"NoteNumber":56,"Velocity":35,"Duration":200428,"SoundDuration":200428,"Delta":503880210},{"NoteNumber":58,"Velocity":36,"Duration":208785,"SoundDuration":208785,"Delta":504080639},{"NoteNumber":55,"Velocity":34,"Duration":208785,"SoundDuration":208785,"Delta":504080639},{"NoteNumber":56,"Velocity":34,"Duration":246913,"SoundDuration":246913,"Delta":504289424},{"NoteNumber":53,"Velocity":30,"Duration":246645,"SoundDuration":246645,"Delta":504290967},{"NoteNumber":61,"Velocity":32,"Duration":612244,"SoundDuration":612244,"Delta":504536338},{"NoteNumber":64,"Velocity":32,"Duration":1311075,"SoundDuration":1311075,"Delta":504536338},{"NoteNumber":48,"Velocity":40,"Duration":1311075,"SoundDuration":1311075,"Delta":504536338},{"NoteNumber":58,"Velocity":40,"Duration":612406,"SoundDuration":612406,"Delta":504541440},{"NoteNumber":60,"Velocity":44,"Duration":315789,"SoundDuration":315789,"Delta":505148583},{"NoteNumber":56,"Velocity":35,"Duration":315789,"SoundDuration":315789,"Delta":505148583},{"NoteNumber":58,"Velocity":40,"Duration":383040,"SoundDuration":383040,"Delta":505464372},{"NoteNumber":55,"Velocity":35,"Duration":383040,"SoundDuration":383040,"Delta":505464372},{"NoteNumber":65,"Velocity":38,"Duration":1415301,"SoundDuration":1415301,"Delta":505847413},{"NoteNumber":48,"Velocity":38,"Duration":1415301,"SoundDuration":1415301,"Delta":505847413},{"NoteNumber":56,"Velocity":28,"Duration":222986,"SoundDuration":222986,"Delta":506073380},{"NoteNumber":53,"Velocity":25,"Duration":222986,"SoundDuration":222986,"Delta":506073380},{"NoteNumber":58,"Velocity":31,"Duration":221694,"SoundDuration":221694,"Delta":506296367},{"NoteNumber":55,"Velocity":27,"Duration":221694,"SoundDuration":221694,"Delta":506296367},{"NoteNumber":60,"Velocity":31,"Duration":229084,"SoundDuration":229084,"Delta":506518061},{"NoteNumber":56,"Velocity":29,"Duration":229084,"SoundDuration":229084,"Delta":506518061},{"NoteNumber":58,"Velocity":29,"Duration":237790,"SoundDuration":237790,"Delta":506747146},{"NoteNumber":55,"Velocity":29,"Duration":237790,"SoundDuration":237790,"Delta":506747146},{"NoteNumber":56,"Velocity":27,"Duration":277777,"SoundDuration":277777,"Delta":506984937},{"NoteNumber":53,"Velocity":28,"Duration":277529,"SoundDuration":277529,"Delta":506986673},{"NoteNumber":64,"Velocity":25,"Duration":1663177,"SoundDuration":1663177,"Delta":507262715},{"NoteNumber":61,"Velocity":25,"Duration":732143,"SoundDuration":732143,"Delta":507262715},{"NoteNumber":48,"Velocity":35,"Duration":1663177,"SoundDuration":1663177,"Delta":507262715},{"NoteNumber":58,"Velocity":35,"Duration":733087,"SoundDuration":733087,"Delta":507268667},{"NoteNumber":60,"Velocity":35,"Duration":413792,"SoundDuration":413792,"Delta":507994858},{"NoteNumber":56,"Velocity":30,"Duration":413792,"SoundDuration":413792,"Delta":507994858},{"NoteNumber":58,"Velocity":29,"Duration":517241,"SoundDuration":517241,"Delta":508408651},{"NoteNumber":55,"Velocity":29,"Duration":517241,"SoundDuration":517241,"Delta":508408651},{"NoteNumber":56,"Velocity":26,"Duration":882353,"SoundDuration":882353,"Delta":508925892},{"NoteNumber":65,"Velocity":31,"Duration":882353,"SoundDuration":882353,"Delta":508925892},{"NoteNumber":41,"Velocity":22,"Duration":882353,"SoundDuration":882353,"Delta":508925892},{"NoteNumber":53,"Velocity":27,"Duration":882353,"SoundDuration":882353,"Delta":508925892},{"NoteNumber":56,"Velocity":25,"Duration":882353,"SoundDuration":882353,"Delta":510690598},{"NoteNumber":65,"Velocity":30,"Duration":882353,"SoundDuration":882353,"Delta":510690598},{"NoteNumber":60,"Velocity":25,"Duration":882353,"SoundDuration":882353,"Delta":510690598},{"NoteNumber":41,"Velocity":22,"Duration":882353,"SoundDuration":882353,"Delta":510690598},{"NoteNumber":48,"Velocity":22,"Duration":882353,"SoundDuration":882353,"Delta":510690598},{"NoteNumber":53,"Velocity":27,"Duration":882353,"SoundDuration":882353,"Delta":510690598},{"NoteNumber":56,"Velocity":23,"Duration":1764706,"SoundDuration":1764706,"Delta":512455304},{"NoteNumber":60,"Velocity":23,"Duration":1764706,"SoundDuration":1764706,"Delta":512455304},{"NoteNumber":65,"Velocity":28,"Duration":1764706,"SoundDuration":1764706,"Delta":512455304},{"NoteNumber":48,"Velocity":22,"Duration":1764706,"SoundDuration":1764706,"Delta":512455304},{"NoteNumber":53,"Velocity":26,"Duration":1764706,"SoundDuration":1764706,"Delta":512455304},{"NoteNumber":41,"Velocity":22,"Duration":1764706,"SoundDuration":1764706,"Delta":512455304}]}