{"title":"Impromptu Nr. 2 As-Dur","artist":"Schubert","durationMs":381532,"midiSha256":"529436e099daa12a8191ba7b962956ba8e0f36d553e8c919dfdaf3cef49174cb","midiObject":[{"NoteNumber":63,"Velocity":46,"Duration":590796,"SoundDuration":590796,"Delta":0},{"NoteNumber":51,"Velocity":27,"Duration":590796,"SoundDuration":590796,"Delta":0},{"NoteNumber":68,"Velocity":46,"Duration":590796,"SoundDuration":590796,"Delta":597014},{"NoteNumber":60,"Velocity":34,"Duration":590796,"SoundDuration":590796,"Delta":597014},{"NoteNumber":63,"Velocity":34,"Duration":590796,"SoundDuration":590796,"Delta":597014},{"NoteNumber":51,"Velocity":27,"Duration":590796,"SoundDuration":590796,"Delta":597014},{"NoteNumber":44,"Velocity":27,"Duration":1687925,"SoundDuration":1687925,"Delta":597014},{"NoteNumber":68,"Velocity":46,"Duration":818182,"SoundDuration":818182,"Delta":1194030},{"NoteNumber":60,"Velocity":34,"Duration":1090910,"SoundDuration":1090910,"Delta":1194030},{"NoteNumber":63,"Velocity":34,"Duration":1090910,"SoundDuration":1090910,"Delta":1194030},{"NoteNumber":51,"Velocity":27,"Duration":1090910,"SoundDuration":1090910,"Delta":1194030},{"NoteNumber":70,"Velocity":39,"Duration":272727,"SoundDuration":272727,"Delta":2012212},{"NoteNumber":61,"Velocity":34,"Duration":592954,"SoundDuration":592954,"Delta":2284940},{"NoteNumber":63,"Velocity":34,"Duration":592954,"SoundDuration":592954,"Delta":2284940},{"NoteNumber":68,"Velocity":46,"Duration":592954,"SoundDuration":592954,"Delta":2284940},{"NoteNumber":51,"Velocity":27,"Duration":592954,"SoundDuration":592954,"Delta":2284940},{"NoteNumber":46,"Velocity":27,"Duration":1689546,"SoundDuration":1689546,"Delta":2284940},{"NoteNumber":61,"Velocity":34,"Duration":1090910,"SoundDuration":1090910,"Delta":2883576},{"NoteNumber":67,"Velocity":46,"Duration":818182,"SoundDuration":818182,"Delta":2883576},{"NoteNumber":63,"Velocity":34,"Duration":1090910,"SoundDuration":1090910,"Delta":2883576},{"NoteNumber":51,"Velocity":27,"Duration":1090910,"SoundDuration":1090910,"Delta":2883576},{"NoteNumber":70,"Velocity":37,"Duration":270454,"SoundDuration":270454,"Delta":3701758},{"NoteNumber":70,"Velocity":46,"Duration":539773,"SoundDuration":539773,"Delta":3974486},{"NoteNumber":51,"Velocity":27,"Duration":539773,"SoundDuration":539773,"Delta":3974486},{"NoteNumber":48,"Velocity":27,"Duration":1090910,"SoundDuration":1090910,"Delta":3974486},{"NoteNumber":63,"Velocity":38,"Duration":539773,"SoundDuration":539773,"Delta":4519941},{"NoteNumber":68,"Velocity":51,"Duration":539773,"SoundDuration":539773,"Delta":4519941},{"NoteNumber":51,"Velocity":27,"Duration":539773,"SoundDuration":539773,"Delta":4519941},{"NoteNumber":63,"Velocity":39,"Duration":593750,"SoundDuration":593750,"Delta":5065396},{"NoteNumber":61,"Velocity":39,"Duration":593750,"SoundDuration":593750,"Delta":5065396},{"NoteNumber":70,"Velocity":52,"Duration":593750,"SoundDuration":593750,"Delta":5065396},{"NoteNumber":43,"Velocity":27,"Duration":599999,"SoundDuration":599999,"Delta":5065396},{"NoteNumber":51,"Velocity":27,"Duration":593750,"SoundDuration":593750,"Delta":5065396},{"NoteNumber":63,"Velocity":40,"Duration":1101743,"SoundDuration":1101743,"Delta":5665396},{"NoteNumber":60,"Velocity":40,"Duration":1101743,"SoundDuration":1101743,"Delta":5665396},{"NoteNumber":72,"Velocity":55,"Duration":1101743,"SoundDuration":1101743,"Delta":5665396},{"NoteNumber":44,"Velocity":27,"Duration":1101743,"SoundDuration":1101743,"Delta":5665396},{"NoteNumber":51,"Velocity":27,"Duration":1101743,"SoundDuration":1101743,"Delta":5665396},{"NoteNumber":63,"Velocity":55,"Duration":593750,"SoundDuration":593750,"Delta":6767140},{"NoteNumber":51,"Velocity":31,"Duration":593750,"SoundDuration":593750,"Delta":6767140},{"NoteNumber":72,"Velocity":66,"Duration":593750,"SoundDuration":593750,"Delta":7367140},{"NoteNumber":60,"Velocity":49,"Duration":593750,"SoundDuration":593750,"Delta":7367140},{"NoteNumber":63,"Velocity":49,"Duration":593750,"SoundDuration":593750,"Delta":7367140},{"NoteNumber":44,"Velocity":31,"Duration":1690951,"SoundDuration":1690951,"Delta":7367140},{"NoteNumber":51,"Velocity":31,"Duration":593750,"SoundDuration":593750,"Delta":7367140},{"NoteNumber":63,"Velocity":50,"Duration":818224,"SoundDuration":818224,"Delta":7967140},{"NoteNumber":60,"Velocity":50,"Duration":818224,"SoundDuration":818224,"Delta":7967140},{"NoteNumber":72,"Velocity":67,"Duration":818224,"SoundDuration":818224,"Delta":7967140},{"NoteNumber":51,"Velocity":31,"Duration":1090951,"SoundDuration":1090951,"Delta":7967140},{"NoteNumber":61,"Velocity":42,"Duration":272727,"SoundDuration":272727,"Delta":8785364},{"NoteNumber":73,"Velocity":57,"Duration":272727,"SoundDuration":272727,"Delta":8785364},{"NoteNumber":63,"Velocity":42,"Duration":272727,"SoundDuration":272727,"Delta":8785364},{"NoteNumber":63,"Velocity":48,"Duration":592840,"SoundDuration":592840,"Delta":9058091},{"NoteNumber":72,"Velocity":65,"Duration":592840,"SoundDuration":592840,"Delta":9058091},{"NoteNumber":60,"Velocity":48,"Duration":592840,"SoundDuration":592840,"Delta":9058091},{"NoteNumber":51,"Velocity":31,"Duration":592840,"SoundDuration":592840,"Delta":9058091},{"NoteNumber":49,"Velocity":31,"Duration":1694980,"SoundDuration":1694980,"Delta":9058091},{"NoteNumber":58,"Velocity":43,"Duration":821917,"SoundDuration":821917,"Delta":9657182},{"NoteNumber":63,"Velocity":43,"Duration":821917,"SoundDuration":821917,"Delta":9657182},{"NoteNumber":70,"Velocity":58,"Duration":821917,"SoundDuration":821917,"Delta":9657182},{"NoteNumber":51,"Velocity":31,"Duration":1095890,"SoundDuration":1095890,"Delta":9657182},{"NoteNumber":72,"Velocity":52,"Duration":273972,"SoundDuration":273972,"Delta":10479099},{"NoteNumber":63,"Velocity":39,"Duration":273972,"SoundDuration":273972,"Delta":10479099},{"NoteNumber":60,"Velocity":39,"Duration":273972,"SoundDuration":273972,"Delta":10479099},{"NoteNumber":58,"Velocity":41,"Duration":593750,"SoundDuration":593750,"Delta":10753072},{"NoteNumber":63,"Velocity":41,"Duration":593750,"SoundDuration":593750,"Delta":10753072},{"NoteNumber":70,"Velocity":56,"Duration":593750,"SoundDuration":593750,"Delta":10753072},{"NoteNumber":51,"Velocity":31,"Duration":593750,"SoundDuration":593750,"Delta":10753072},{"NoteNumber":48,"Velocity":31,"Duration":1238298,"SoundDuration":1238298,"Delta":10753072},{"NoteNumber":63,"Velocity":39,"Duration":631649,"SoundDuration":631649,"Delta":11353072},{"NoteNumber":68,"Velocity":52,"Duration":631649,"SoundDuration":631649,"Delta":11353072},{"NoteNumber":56,"Velocity":39,"Duration":631649,"SoundDuration":631649,"Delta":11353072},{"NoteNumber":51,"Velocity":31,"Duration":631649,"SoundDuration":631649,"Delta":11353072},{"NoteNumber":75,"Velocity":66,"Duration":478723,"SoundDuration":478723,"Delta":11991370},{"NoteNumber":63,"Velocity":49,"Duration":638297,"SoundDuration":638297,"Delta":11991370},{"NoteNumber":70,"Velocity":49,"Duration":638297,"SoundDuration":638297,"Delta":11991370},{"NoteNumber":43,"Velocity":31,"Duration":638297,"SoundDuration":638297,"Delta":11991370},{"NoteNumber":51,"Velocity":31,"Duration":638297,"SoundDuration":638297,"Delta":11991370},{"NoteNumber":73,"Velocity":59,"Duration":159574,"SoundDuration":159574,"Delta":12470093},{"NoteNumber":68,"Velocity":37,"Duration":1243524,"SoundDuration":1243524,"Delta":12629668},{"NoteNumber":72,"Velocity":50,"Duration":1243524,"SoundDuration":1243524,"Delta":12629668},{"NoteNumber":63,"Velocity":37,"Duration":1243524,"SoundDuration":1243524,"Delta":12629668},{"NoteNumber":44,"Velocity":29,"Duration":1243524,"SoundDuration":1243524,"Delta":12629668},{"NoteNumber":51,"Velocity":29,"Duration":1243524,"SoundDuration":1243524,"Delta":12629668},{"NoteNumber":75,"Velocity":56,"Duration":593706,"SoundDuration":593706,"Delta":13873192},{"NoteNumber":51,"Velocity":27,"Duration":593706,"SoundDuration":593706,"Delta":13873192},{"NoteNumber":75,"Velocity":34,"Duration":590796,"SoundDuration":590796,"Delta":14473117},{"NoteNumber":72,"Velocity":34,"Duration":590796,"SoundDuration":590796,"Delta":14473117},{"NoteNumber":80,"Velocity":54,"Duration":590796,"SoundDuration":590796,"Delta":14473117},{"NoteNumber":44,"Velocity":27,"Duration":1687925,"SoundDuration":1687925,"Delta":14473117},{"NoteNumber":51,"Velocity":27,"Duration":590796,"SoundDuration":590796,"Delta":14473117},{"NoteNumber":75,"Velocity":34,"Duration":1090910,"SoundDuration":1090910,"Delta":15070132},{"NoteNumber":72,"Velocity":34,"Duration":1090910,"SoundDuration":1090910,"Delta":15070132},{"NoteNumber":80,"Velocity":57,"Duration":818182,"SoundDuration":818182,"Delta":15070132},{"NoteNumber":51,"Velocity":27,"Duration":1090910,"SoundDuration":1090910,"Delta":15070132},{"NoteNumber":82,"Velocity":50,"Duration":272727,"SoundDuration":272727,"Delta":15888315},{"NoteNumber":73,"Velocity":34,"Duration":564664,"SoundDuration":564664,"Delta":16161042},{"NoteNumber":80,"Velocity":57,"Duration":564664,"SoundDuration":564664,"Delta":16161042},{"NoteNumber":75,"Velocity":34,"Duration":564664,"SoundDuration":564664,"Delta":16161042},{"NoteNumber":46,"Velocity":27,"Duration":1661256,"SoundDuration":1661256,"Delta":16161042},{"NoteNumber":51,"Velocity":27,"Duration":564664,"SoundDuration":564664,"Delta":16161042},{"NoteNumber":79,"Velocity":57,"Duration":818182,"SoundDuration":818182,"Delta":16731389},{"NoteNumber":75,"Velocity":34,"Duration":1090909,"SoundDuration":1090909,"Delta":16731389},{"NoteNumber":73,"Velocity":34,"Duration":1090909,"SoundDuration":1090909,"Delta":16731389},{"NoteNumber":51,"Velocity":27,"Duration":1090909,"SoundDuration":1090909,"Delta":16731389},{"NoteNumber":82,"Velocity":57,"Duration":272727,"SoundDuration":272727,"Delta":17549572},{"NoteNumber":82,"Velocity":57,"Duration":539773,"SoundDuration":539773,"Delta":17822299},{"NoteNumber":51,"Velocity":27,"Duration":539773,"SoundDuration":539773,"Delta":17822299},{"NoteNumber":48,"Velocity":27,"Duration":1091696,"SoundDuration":1091696,"Delta":17822299},{"NoteNumber":80,"Velocity":59,"Duration":540232,"SoundDuration":540232,"Delta":18367754},{"NoteNumber":75,"Velocity":35,"Duration":540232,"SoundDuration":540232,"Delta":18367754},{"NoteNumber":51,"Velocity":28,"Duration":540232,"SoundDuration":540232,"Delta":18367754},{"NoteNumber":73,"Velocity":37,"Duration":568182,"SoundDuration":568182,"Delta":18913996},{"NoteNumber":82,"Velocity":62,"Duration":568182,"SoundDuration":568182,"Delta":18913996},{"NoteNumber":75,"Velocity":37,"Duration":568182,"SoundDuration":568182,"Delta":18913996},{"NoteNumber":43,"Velocity":29,"Duration":568182,"SoundDuration":568182,"Delta":18913996},{"NoteNumber":51,"Velocity":29,"Duration":568182,"SoundDuration":568182,"Delta":18913996},{"NoteNumber":75,"Velocity":40,"Duration":1101313,"SoundDuration":1101313,"Delta":19488159},{"NoteNumber":72,"Velocity":40,"Duration":1101313,"SoundDuration":1101313,"Delta":19488159},{"NoteNumber":84,"Velocity":66,"Duration":1101313,"SoundDuration":1101313,"Delta":19488159},{"NoteNumber":44,"Velocity":32,"Duration":1101313,"SoundDuration":1101313,"Delta":19488159},{"NoteNumber":51,"Velocity":32,"Duration":1101313,"SoundDuration":1101313,"Delta":19488159},{"NoteNumber":75,"Velocity":65,"Duration":593750,"SoundDuration":593750,"Delta":20589472},{"NoteNumber":51,"Velocity":31,"Duration":593750,"SoundDuration":593750,"Delta":20589472},{"NoteNumber":84,"Velocity":73,"Duration":593750,"SoundDuration":593750,"Delta":21189472},{"NoteNumber":75,"Velocity":44,"Duration":593750,"SoundDuration":593750,"Delta":21189472},{"NoteNumber":72,"Velocity":44,"Duration":593750,"SoundDuration":593750,"Delta":21189472},{"NoteNumber":44,"Velocity":34,"Duration":1703678,"SoundDuration":1703678,"Delta":21189472},{"NoteNumber":51,"Velocity":34,"Duration":593750,"SoundDuration":593750,"Delta":21189472},{"NoteNumber":75,"Velocity":44,"Duration":1103678,"SoundDuration":1103678,"Delta":21789472},{"NoteNumber":72,"Velocity":44,"Duration":1103678,"SoundDuration":1103678,"Delta":21789472},{"NoteNumber":84,"Velocity":74,"Duration":818224,"SoundDuration":818224,"Delta":21789472},{"NoteNumber":51,"Velocity":35,"Duration":1103678,"SoundDuration":1103678,"Delta":21789472},{"NoteNumber":85,"Velocity":67,"Duration":285454,"SoundDuration":285454,"Delta":22607696},{"NoteNumber":72,"Velocity":37,"Duration":593749,"SoundDuration":593749,"Delta":22893151},{"NoteNumber":84,"Velocity":58,"Duration":593749,"SoundDuration":593749,"Delta":22893151},{"NoteNumber":76,"Velocity":37,"Duration":593749,"SoundDuration":593749,"Delta":22893151},{"NoteNumber":43,"Velocity":31,"Duration":1695889,"SoundDuration":1695889,"Delta":22893151},{"NoteNumber":48,"Velocity":31,"Duration":593749,"SoundDuration":593749,"Delta":22893151},{"NoteNumber":76,"Velocity":36,"Duration":1095890,"SoundDuration":1095890,"Delta":23493151},{"NoteNumber":72,"Velocity":36,"Duration":1095890,"SoundDuration":1095890,"Delta":23493151},{"NoteNumber":82,"Velocity":52,"Duration":821917,"SoundDuration":821917,"Delta":23493151},{"NoteNumber":48,"Velocity":31,"Duration":1095890,"SoundDuration":1095890,"Delta":23493151},{"NoteNumber":84,"Velocity":54,"Duration":273972,"SoundDuration":273972,"Delta":24315068},{"NoteNumber":72,"Velocity":36,"Duration":593750,"SoundDuration":593750,"Delta":24589041},{"NoteNumber":82,"Velocity":49,"Duration":593750,"SoundDuration":593750,"Delta":24589041},{"NoteNumber":77,"Velocity":36,"Duration":593750,"SoundDuration":593750,"Delta":24589041},{"NoteNumber":48,"Velocity":31,"Duration":593750,"SoundDuration":593750,"Delta":24589041},{"NoteNumber":41,"Velocity":31,"Duration":1179710,"SoundDuration":1179710,"Delta":24589041},{"NoteNumber":80,"Velocity":47,"Duration":193236,"SoundDuration":193236,"Delta":25189041},{"NoteNumber":72,"Velocity":34,"Duration":573671,"SoundDuration":573671,"Delta":25189041},{"NoteNumber":77,"Velocity":34,"Duration":573671,"SoundDuration":573671,"Delta":25189041},{"NoteNumber":48,"Velocity":31,"Duration":573671,"SoundDuration":573671,"Delta":25189041},{"NoteNumber":82,"Velocity":52,"Duration":96618,"SoundDuration":96618,"Delta":25382277},{"NoteNumber":80,"Velocity":52,"Duration":96618,"SoundDuration":96618,"Delta":25478896},{"NoteNumber":79,"Velocity":52,"Duration":96618,"SoundDuration":96618,"Delta":25575514},{"NoteNumber":80,"Velocity":52,"Duration":96618,"SoundDuration":96618,"Delta":25672132},{"NoteNumber":73,"Velocity":39,"Duration":643263,"SoundDuration":643263,"Delta":25768751},{"NoteNumber":79,"Velocity":39,"Duration":643263,"SoundDuration":643263,"Delta":25768751},{"NoteNumber":84,"Velocity":67,"Duration":469853,"SoundDuration":469853,"Delta":25768751},{"NoteNumber":51,"Velocity":31,"Duration":643263,"SoundDuration":643263,"Delta":25768751},{"NoteNumber":39,"Velocity":31,"Duration":643263,"SoundDuration":643263,"Delta":25768751},{"NoteNumber":82,"Velocity":63,"Duration":173410,"SoundDuration":173410,"Delta":26238604},{"NoteNumber":80,"Velocity":56,"Duration":1255912,"SoundDuration":1255912,"Delta":26412014},{"NoteNumber":72,"Velocity":36,"Duration":1255912,"SoundDuration":1255912,"Delta":26412014},{"NoteNumber":44,"Velocity":29,"Duration":1255912,"SoundDuration":1255912,"Delta":26412014},{"NoteNumber":51,"Velocity":29,"Duration":1255912,"SoundDuration":1255912,"Delta":26412014},{"NoteNumber":63,"Velocity":46,"Duration":596733,"SoundDuration":596733,"Delta":27667927},{"NoteNumber":51,"Velocity":27,"Duration":596733,"SoundDuration":596733,"Delta":27667927},{"NoteNumber":60,"Velocity":34,"Duration":593750,"SoundDuration":593750,"Delta":28270942},{"NoteNumber":63,"Velocity":34,"Duration":593750,"SoundDuration":593750,"Delta":28270942},{"NoteNumber":68,"Velocity":46,"Duration":593750,"SoundDuration":593750,"Delta":28270942},{"NoteNumber":44,"Velocity":27,"Duration":1690910,"SoundDuration":1690910,"Delta":28270942},{"NoteNumber":51,"Velocity":27,"Duration":593750,"SoundDuration":593750,"Delta":28270942},{"NoteNumber":68,"Velocity":46,"Duration":818182,"SoundDuration":818182,"Delta":28870942},{"NoteNumber":60,"Velocity":34,"Duration":1090910,"SoundDuration":1090910,"Delta":28870942},{"NoteNumber":63,"Velocity":34,"Duration":1090910,"SoundDuration":1090910,"Delta":28870942},{"NoteNumber":51,"Velocity":27,"Duration":1090910,"SoundDuration":1090910,"Delta":28870942},{"NoteNumber":70,"Velocity":39,"Duration":272727,"SoundDuration":272727,"Delta":29689124},{"NoteNumber":61,"Velocity":34,"Duration":592954,"SoundDuration":592954,"Delta":29961852},{"NoteNumber":68,"Velocity":46,"Duration":592954,"SoundDuration":592954,"Delta":29961852},{"NoteNumber":63,"Velocity":34,"Duration":592954,"SoundDuration":592954,"Delta":29961852},{"NoteNumber":46,"Velocity":27,"Duration":1689546,"SoundDuration":1689546,"Delta":29961852},{"NoteNumber":51,"Velocity":27,"Duration":592954,"SoundDuration":592954,"Delta":29961852},{"NoteNumber":67,"Velocity":46,"Duration":818182,"SoundDuration":818182,"Delta":30560488},{"NoteNumber":63,"Velocity":34,"Duration":1090909,"SoundDuration":1090909,"Delta":30560488},{"NoteNumber":61,"Velocity":34,"Duration":1090909,"SoundDuration":1090909,"Delta":30560488},{"NoteNumber":51,"Velocity":27,"Duration":1090909,"SoundDuration":1090909,"Delta":30560488},{"NoteNumber":70,"Velocity":37,"Duration":270454,"SoundDuration":270454,"Delta":31378671},{"NoteNumber":70,"Velocity":46,"Duration":539773,"SoundDuration":539773,"Delta":31651398},{"NoteNumber":51,"Velocity":27,"Duration":539773,"SoundDuration":539773,"Delta":31651398},{"NoteNumber":48,"Velocity":27,"Duration":1080682,"SoundDuration":1080682,"Delta":31651398},{"NoteNumber":63,"Velocity":38,"Duration":539773,"SoundDuration":539773,"Delta":32196853},{"NoteNumber":68,"Velocity":51,"Duration":539773,"SoundDuration":539773,"Delta":32196853},{"NoteNumber":51,"Velocity":27,"Duration":539773,"SoundDuration":539773,"Delta":32196853},{"NoteNumber":63,"Velocity":39,"Duration":593750,"SoundDuration":593750,"Delta":32742308},{"NoteNumber":61,"Velocity":39,"Duration":593750,"SoundDuration":593750,"Delta":32742308},{"NoteNumber":70,"Velocity":52,"Duration":593750,"SoundDuration":593750,"Delta":32742308},{"NoteNumber":51,"Velocity":27,"Duration":593750,"SoundDuration":593750,"Delta":32742308},{"NoteNumber":43,"Velocity":27,"Duration":593750,"SoundDuration":593750,"Delta":32742308},{"NoteNumber":72,"Velocity":55,"Duration":1101743,"SoundDuration":1101743,"Delta":33342308},{"NoteNumber":63,"Velocity":40,"Duration":1101743,"SoundDuration":1101743,"Delta":33342308},{"NoteNumber":60,"Velocity":40,"Duration":1101743,"SoundDuration":1101743,"Delta":33342308},{"NoteNumber":44,"Velocity":27,"Duration":1101743,"SoundDuration":1101743,"Delta":33342308},{"NoteNumber":51,"Velocity":27,"Duration":1101743,"SoundDuration":1101743,"Delta":33342308},{"NoteNumber":63,"Velocity":55,"Duration":593750,"SoundDuration":593750,"Delta":34444052},{"NoteNumber":51,"Velocity":31,"Duration":593750,"SoundDuration":593750,"Delta":34444052},{"NoteNumber":60,"Velocity":49,"Duration":593750,"SoundDuration":593750,"Delta":35044052},{"NoteNumber":63,"Velocity":49,"Duration":593750,"SoundDuration":593750,"Delta":35044052},{"NoteNumber":72,"Velocity":66,"Duration":593750,"SoundDuration":593750,"Delta":35044052},{"NoteNumber":51,"Velocity":31,"Duration":593750,"SoundDuration":593750,"Delta":35044052},{"NoteNumber":44,"Velocity":31,"Duration":1690951,"SoundDuration":1690951,"Delta":35044052},{"NoteNumber":63,"Velocity":50,"Duration":818224,"SoundDuration":818224,"Delta":35644052},{"NoteNumber":60,"Velocity":50,"Duration":818224,"SoundDuration":818224,"Delta":35644052},{"NoteNumber":72,"Velocity":67,"Duration":818224,"SoundDuration":818224,"Delta":35644052},{"NoteNumber":51,"Velocity":31,"Duration":1090951,"SoundDuration":1090951,"Delta":35644052},{"NoteNumber":63,"Velocity":42,"Duration":272727,"SoundDuration":272727,"Delta":36462276},{"NoteNumber":61,"Velocity":42,"Duration":272727,"SoundDuration":272727,"Delta":36462276},{"NoteNumber":73,"Velocity":57,"Duration":272727,"SoundDuration":272727,"Delta":36462276},{"NoteNumber":60,"Velocity":48,"Duration":592840,"SoundDuration":592840,"Delta":36735003},{"NoteNumber":63,"Velocity":48,"Duration":592840,"SoundDuration":592840,"Delta":36735003},{"NoteNumber":72,"Velocity":65,"Duration":592840,"SoundDuration":592840,"Delta":36735003},{"NoteNumber":51,"Velocity":31,"Duration":592840,"SoundDuration":592840,"Delta":36735003},{"NoteNumber":49,"Velocity":31,"Duration":1694980,"SoundDuration":1694980,"Delta":36735003},{"NoteNumber":70,"Velocity":58,"Duration":821917,"SoundDuration":821917,"Delta":37334094},{"NoteNumber":63,"Velocity":43,"Duration":821917,"SoundDuration":821917,"Delta":37334094},{"NoteNumber":58,"Velocity":43,"Duration":821917,"SoundDuration":821917,"Delta":37334094},{"NoteNumber":51,"Velocity":31,"Duration":1095889,"SoundDuration":1095889,"Delta":37334094},{"NoteNumber":72,"Velocity":52,"Duration":273972,"SoundDuration":273972,"Delta":38156012},{"NoteNumber":63,"Velocity":39,"Duration":273972,"SoundDuration":273972,"Delta":38156012},{"NoteNumber":60,"Velocity":39,"Duration":273972,"SoundDuration":273972,"Delta":38156012},{"NoteNumber":58,"Velocity":41,"Duration":593750,"SoundDuration":593750,"Delta":38429984},{"NoteNumber":63,"Velocity":41,"Duration":593750,"SoundDuration":593750,"Delta":38429984},{"NoteNumber":70,"Velocity":56,"Duration":593750,"SoundDuration":593750,"Delta":38429984},{"NoteNumber":48,"Velocity":31,"Duration":1238298,"SoundDuration":1238298,"Delta":38429984},{"NoteNumber":51,"Velocity":31,"Duration":593750,"SoundDuration":593750,"Delta":38429984},{"NoteNumber":56,"Velocity":39,"Duration":631649,"SoundDuration":631649,"Delta":39029984},{"NoteNumber":63,"Velocity":39,"Duration":631649,"SoundDuration":631649,"Delta":39029984},{"NoteNumber":68,"Velocity":52,"Duration":631649,"SoundDuration":631649,"Delta":39029984},{"NoteNumber":51,"Velocity":31,"Duration":631649,"SoundDuration":631649,"Delta":39029984},{"NoteNumber":70,"Velocity":56,"Duration":638297,"SoundDuration":638297,"Delta":39668282},{"NoteNumber":63,"Velocity":49,"Duration":638297,"SoundDuration":638297,"Delta":39668282},{"NoteNumber":75,"Velocity":66,"Duration":478723,"SoundDuration":478723,"Delta":39668282},{"NoteNumber":43,"Velocity":31,"Duration":638297,"SoundDuration":638297,"Delta":39668282},{"NoteNumber":51,"Velocity":31,"Duration":638297,"SoundDuration":638297,"Delta":39668282},{"NoteNumber":73,"Velocity":60,"Duration":159574,"SoundDuration":159574,"Delta":40147006},{"NoteNumber":63,"Velocity":37,"Duration":1230769,"SoundDuration":1230769,"Delta":40306580},{"NoteNumber":68,"Velocity":37,"Duration":1230769,"SoundDuration":1230769,"Delta":40306580},{"NoteNumber":72,"Velocity":50,"Duration":1230769,"SoundDuration":1230769,"Delta":40306580},{"NoteNumber":44,"Velocity":29,"Duration":1230769,"SoundDuration":1230769,"Delta":40306580},{"NoteNumber":51,"Velocity":29,"Duration":1230769,"SoundDuration":1230769,"Delta":40306580},{"NoteNumber":75,"Velocity":56,"Duration":593706,"SoundDuration":593706,"Delta":41537350},{"NoteNumber":51,"Velocity":27,"Duration":593706,"SoundDuration":593706,"Delta":41537350},{"NoteNumber":80,"Velocity":54,"Duration":590796,"SoundDuration":590796,"Delta":42137276},{"NoteNumber":75,"Velocity":34,"Duration":590796,"SoundDuration":590796,"Delta":42137276},{"NoteNumber":72,"Velocity":34,"Duration":590796,"SoundDuration":590796,"Delta":42137276},{"NoteNumber":51,"Velocity":27,"Duration":590796,"SoundDuration":590796,"Delta":42137276},{"NoteNumber":44,"Velocity":27,"Duration":1687925,"SoundDuration":1687925,"Delta":42137276},{"NoteNumber":72,"Velocity":34,"Duration":1090910,"SoundDuration":1090910,"Delta":42734291},{"NoteNumber":80,"Velocity":57,"Duration":818182,"SoundDuration":818182,"Delta":42734291},{"NoteNumber":75,"Velocity":34,"Duration":1090910,"SoundDuration":1090910,"Delta":42734291},{"NoteNumber":51,"Velocity":27,"Duration":1090910,"SoundDuration":1090910,"Delta":42734291},{"NoteNumber":82,"Velocity":53,"Duration":272727,"SoundDuration":272727,"Delta":43552473},{"NoteNumber":73,"Velocity":34,"Duration":564664,"SoundDuration":564664,"Delta":43825201},{"NoteNumber":80,"Velocity":57,"Duration":564664,"SoundDuration":564664,"Delta":43825201},{"NoteNumber":75,"Velocity":34,"Duration":564664,"SoundDuration":564664,"Delta":43825201},{"NoteNumber":51,"Velocity":27,"Duration":564664,"SoundDuration":564664,"Delta":43825201},{"NoteNumber":46,"Velocity":27,"Duration":1661256,"SoundDuration":1661256,"Delta":43825201},{"NoteNumber":73,"Velocity":34,"Duration":1090910,"SoundDuration":1090910,"Delta":44395547},{"NoteNumber":79,"Velocity":57,"Duration":818182,"SoundDuration":818182,"Delta":44395547},{"NoteNumber":75,"Velocity":34,"Duration":1090910,"SoundDuration":1090910,"Delta":44395547},{"NoteNumber":51,"Velocity":27,"Duration":1090910,"SoundDuration":1090910,"Delta":44395547},{"NoteNumber":82,"Velocity":57,"Duration":270454,"SoundDuration":270454,"Delta":45213730},{"NoteNumber":82,"Velocity":57,"Duration":539773,"SoundDuration":539773,"Delta":45486457},{"NoteNumber":51,"Velocity":27,"Duration":539773,"SoundDuration":539773,"Delta":45486457},{"NoteNumber":48,"Velocity":27,"Duration":1091696,"SoundDuration":1091696,"Delta":45486457},{"NoteNumber":75,"Velocity":35,"Duration":540232,"SoundDuration":540232,"Delta":46031912},{"NoteNumber":80,"Velocity":59,"Duration":540232,"SoundDuration":540232,"Delta":46031912},{"NoteNumber":51,"Velocity":28,"Duration":540232,"SoundDuration":540232,"Delta":46031912},{"NoteNumber":75,"Velocity":37,"Duration":568182,"SoundDuration":568182,"Delta":46578154},{"NoteNumber":82,"Velocity":62,"Duration":568182,"SoundDuration":568182,"Delta":46578154},{"NoteNumber":73,"Velocity":37,"Duration":568182,"SoundDuration":568182,"Delta":46578154},{"NoteNumber":43,"Velocity":29,"Duration":568182,"SoundDuration":568182,"Delta":46578154},{"NoteNumber":51,"Velocity":29,"Duration":568182,"SoundDuration":568182,"Delta":46578154},{"NoteNumber":75,"Velocity":40,"Duration":1101313,"SoundDuration":1101313,"Delta":47152317},{"NoteNumber":72,"Velocity":40,"Duration":1101313,"SoundDuration":1101313,"Delta":47152317},{"NoteNumber":84,"Velocity":66,"Duration":1101313,"SoundDuration":1101313,"Delta":47152317},{"NoteNumber":51,"Velocity":32,"Duration":1101313,"SoundDuration":1101313,"Delta":47152317},{"NoteNumber":44,"Velocity":32,"Duration":1101313,"SoundDuration":1101313,"Delta":47152317},{"NoteNumber":75,"Velocity":65,"Duration":593750,"SoundDuration":593750,"Delta":48253630},{"NoteNumber":51,"Velocity":31,"Duration":593750,"SoundDuration":593750,"Delta":48253630},{"NoteNumber":72,"Velocity":44,"Duration":593750,"SoundDuration":593750,"Delta":48853630},{"NoteNumber":84,"Velocity":73,"Duration":593750,"SoundDuration":593750,"Delta":48853630},{"NoteNumber":75,"Velocity":44,"Duration":593750,"SoundDuration":593750,"Delta":48853630},{"NoteNumber":51,"Velocity":34,"Duration":593750,"SoundDuration":593750,"Delta":48853630},{"NoteNumber":44,"Velocity":34,"Duration":1703678,"SoundDuration":1703678,"Delta":48853630},{"NoteNumber":75,"Velocity":44,"Duration":1103678,"SoundDuration":1103678,"Delta":49453630},{"NoteNumber":84,"Velocity":74,"Duration":818224,"SoundDuration":818224,"Delta":49453630},{"NoteNumber":72,"Velocity":44,"Duration":1103678,"SoundDuration":1103678,"Delta":49453630},{"NoteNumber":51,"Velocity":35,"Duration":1103678,"SoundDuration":1103678,"Delta":49453630},{"NoteNumber":85,"Velocity":65,"Duration":285454,"SoundDuration":285454,"Delta":50271854},{"NoteNumber":84,"Velocity":58,"Duration":593750,"SoundDuration":593750,"Delta":50557309},{"NoteNumber":76,"Velocity":37,"Duration":593750,"SoundDuration":593750,"Delta":50557309},{"NoteNumber":72,"Velocity":37,"Duration":593750,"SoundDuration":593750,"Delta":50557309},{"NoteNumber":43,"Velocity":31,"Duration":1695889,"SoundDuration":1695889,"Delta":50557309},{"NoteNumber":48,"Velocity":31,"Duration":593750,"SoundDuration":593750,"Delta":50557309},{"NoteNumber":82,"Velocity":52,"Duration":821917,"SoundDuration":821917,"Delta":51157309},{"NoteNumber":76,"Velocity":36,"Duration":1095889,"SoundDuration":1095889,"Delta":51157309},{"NoteNumber":72,"Velocity":36,"Duration":1095889,"SoundDuration":1095889,"Delta":51157309},{"NoteNumber":48,"Velocity":31,"Duration":1095889,"SoundDuration":1095889,"Delta":51157309},{"NoteNumber":84,"Velocity":54,"Duration":273972,"SoundDuration":273972,"Delta":51979226},{"NoteNumber":77,"Velocity":36,"Duration":600000,"SoundDuration":600000,"Delta":52253199},{"NoteNumber":82,"Velocity":49,"Duration":600000,"SoundDuration":600000,"Delta":52253199},{"NoteNumber":72,"Velocity":36,"Duration":600000,"SoundDuration":600000,"Delta":52253199},{"NoteNumber":41,"Velocity":31,"Duration":1179710,"SoundDuration":1179710,"Delta":52253199},{"NoteNumber":48,"Velocity":31,"Duration":600000,"SoundDuration":600000,"Delta":52253199},{"NoteNumber":80,"Velocity":47,"Duration":193236,"SoundDuration":193236,"Delta":52853199},{"NoteNumber":72,"Velocity":34,"Duration":579709,"SoundDuration":579709,"Delta":52853199},{"NoteNumber":77,"Velocity":34,"Duration":579709,"SoundDuration":579709,"Delta":52853199},{"NoteNumber":48,"Velocity":31,"Duration":579709,"SoundDuration":579709,"Delta":52853199},{"NoteNumber":82,"Velocity":52,"Duration":96618,"SoundDuration":96618,"Delta":53046436},{"NoteNumber":80,"Velocity":52,"Duration":96618,"SoundDuration":96618,"Delta":53143054},{"NoteNumber":79,"Velocity":52,"Duration":96618,"SoundDuration":96618,"Delta":53239672},{"NoteNumber":80,"Velocity":52,"Duration":96618,"SoundDuration":96618,"Delta":53336291},{"NoteNumber":73,"Velocity":39,"Duration":643263,"SoundDuration":643263,"Delta":53432909},{"NoteNumber":84,"Velocity":67,"Duration":469853,"SoundDuration":469853,"Delta":53432909},{"NoteNumber":79,"Velocity":39,"Duration":643263,"SoundDuration":643263,"Delta":53432909},{"NoteNumber":51,"Velocity":31,"Duration":643263,"SoundDuration":643263,"Delta":53432909},{"NoteNumber":39,"Velocity":31,"Duration":643263,"SoundDuration":643263,"Delta":53432909},{"NoteNumber":82,"Velocity":63,"Duration":173410,"SoundDuration":173410,"Delta":53902762},{"NoteNumber":72,"Velocity":36,"Duration":1256543,"SoundDuration":1256543,"Delta":54076173},{"NoteNumber":80,"Velocity":55,"Duration":1256543,"SoundDuration":1256543,"Delta":54076173},{"NoteNumber":44,"Velocity":28,"Duration":1256543,"SoundDuration":1256543,"Delta":54076173},{"NoteNumber":51,"Velocity":28,"Duration":1256543,"SoundDuration":1256543,"Delta":54076173},{"NoteNumber":63,"Velocity":68,"Duration":252118,"SoundDuration":252118,"Delta":55646853},{"NoteNumber":68,"Velocity":68,"Duration":252118,"SoundDuration":252118,"Delta":55646853},{"NoteNumber":75,"Velocity":80,"Duration":252118,"SoundDuration":252118,"Delta":55646853},{"NoteNumber":56,"Velocity":54,"Duration":252118,"SoundDuration":252118,"Delta":55646853},{"NoteNumber":60,"Velocity":64,"Duration":252118,"SoundDuration":252118,"Delta":55646853},{"NoteNumber":48,"Velocity":54,"Duration":252118,"SoundDuration":252118,"Delta":55646853},{"NoteNumber":63,"Velocity":77,"Duration":544725,"SoundDuration":544725,"Delta":55901090},{"NoteNumber":75,"Velocity":91,"Duration":544725,"SoundDuration":544725,"Delta":55901090},{"NoteNumber":68,"Velocity":77,"Duration":544725,"SoundDuration":544725,"Delta":55901090},{"NoteNumber":60,"Velocity":73,"Duration":544725,"SoundDuration":544725,"Delta":55901090},{"NoteNumber":48,"Velocity":62,"Duration":544725,"SoundDuration":544725,"Delta":55901090},{"NoteNumber":56,"Velocity":62,"Duration":544725,"SoundDuration":544725,"Delta":55901090},{"NoteNumber":68,"Velocity":74,"Duration":777056,"SoundDuration":777056,"Delta":56451549},{"NoteNumber":63,"Velocity":74,"Duration":777056,"SoundDuration":777056,"Delta":56451549},{"NoteNumber":75,"Velocity":88,"Duration":777056,"SoundDuration":777056,"Delta":56451549},{"NoteNumber":56,"Velocity":59,"Duration":777056,"SoundDuration":777056,"Delta":56451549},{"NoteNumber":60,"Velocity":70,"Duration":777056,"SoundDuration":777056,"Delta":56451549},{"NoteNumber":48,"Velocity":59,"Duration":777056,"SoundDuration":777056,"Delta":56451549},{"NoteNumber":63,"Velocity":68,"Duration":248953,"SoundDuration":248953,"Delta":57235928},{"NoteNumber":72,"Velocity":80,"Duration":248953,"SoundDuration":248953,"Delta":57235928},{"NoteNumber":60,"Velocity":68,"Duration":248953,"SoundDuration":248953,"Delta":57235928},{"NoteNumber":56,"Velocity":64,"Duration":248953,"SoundDuration":248953,"Delta":57235928},{"NoteNumber":51,"Velocity":54,"Duration":248953,"SoundDuration":248953,"Delta":57235928},{"NoteNumber":44,"Velocity":54,"Duration":248953,"SoundDuration":248953,"Delta":57235928},{"NoteNumber":63,"Velocity":77,"Duration":547234,"SoundDuration":547234,"Delta":57486974},{"NoteNumber":72,"Velocity":91,"Duration":547234,"SoundDuration":547234,"Delta":57486974},{"NoteNumber":60,"Velocity":77,"Duration":547234,"SoundDuration":547234,"Delta":57486974},{"NoteNumber":44,"Velocity":61,"Duration":547234,"SoundDuration":547234,"Delta":57486974},{"NoteNumber":51,"Velocity":61,"Duration":547234,"SoundDuration":547234,"Delta":57486974},{"NoteNumber":56,"Velocity":72,"Duration":547234,"SoundDuration":547234,"Delta":57486974},{"NoteNumber":60,"Velocity":73,"Duration":802311,"SoundDuration":802311,"Delta":58039969},{"NoteNumber":63,"Velocity":73,"Duration":802311,"SoundDuration":802311,"Delta":58039969},{"NoteNumber":72,"Velocity":86,"Duration":802311,"SoundDuration":802311,"Delta":58039969},{"NoteNumber":56,"Velocity":70,"Duration":802311,"SoundDuration":802311,"Delta":58039969},{"NoteNumber":51,"Velocity":59,"Duration":802311,"SoundDuration":802311,"Delta":58039969},{"NoteNumber":44,"Velocity":59,"Duration":802311,"SoundDuration":802311,"Delta":58039969},{"NoteNumber":65,"Velocity":67,"Duration":262008,"SoundDuration":262008,"Delta":58849923},{"NoteNumber":68,"Velocity":79,"Duration":262008,"SoundDuration":262008,"Delta":58849923},{"NoteNumber":60,"Velocity":67,"Duration":262008,"SoundDuration":262008,"Delta":58849923},{"NoteNumber":41,"Velocity":54,"Duration":262008,"SoundDuration":262008,"Delta":58849923},{"NoteNumber":53,"Velocity":64,"Duration":262008,"SoundDuration":262008,"Delta":58849923},{"NoteNumber":65,"Velocity":67,"Duration":391304,"SoundDuration":391304,"Delta":59111931},{"NoteNumber":68,"Velocity":79,"Duration":391304,"SoundDuration":391304,"Delta":59111931},{"NoteNumber":60,"Velocity":67,"Duration":391304,"SoundDuration":391304,"Delta":59111931},{"NoteNumber":41,"Velocity":54,"Duration":391304,"SoundDuration":391304,"Delta":59111931},{"NoteNumber":53,"Velocity":64,"Duration":391304,"SoundDuration":391304,"Delta":59111931},{"NoteNumber":61,"Velocity":68,"Duration":407239,"SoundDuration":407239,"Delta":59633670},{"NoteNumber":63,"Velocity":68,"Duration":407239,"SoundDuration":407239,"Delta":59633670},{"NoteNumber":70,"Velocity":80,"Duration":407239,"SoundDuration":407239,"Delta":59633670},{"NoteNumber":55,"Velocity":64,"Duration":407239,"SoundDuration":407239,"Delta":59633670},{"NoteNumber":43,"Velocity":54,"Duration":407239,"SoundDuration":407239,"Delta":59633670},{"NoteNumber":63,"Velocity":68,"Duration":422535,"SoundDuration":422535,"Delta":60176656},{"NoteNumber":61,"Velocity":68,"Duration":422535,"SoundDuration":422535,"Delta":60176656},{"NoteNumber":67,"Velocity":68,"Duration":422535,"SoundDuration":422535,"Delta":60176656},{"NoteNumber":73,"Velocity":80,"Duration":422535,"SoundDuration":422535,"Delta":60176656},{"NoteNumber":70,"Velocity":68,"Duration":422535,"SoundDuration":422535,"Delta":60176656},{"NoteNumber":39,"Velocity":54,"Duration":422535,"SoundDuration":422535,"Delta":60176656},{"NoteNumber":51,"Velocity":64,"Duration":422535,"SoundDuration":422535,"Delta":60176656},{"NoteNumber":72,"Velocity":80,"Duration":1346541,"SoundDuration":1346541,"Delta":60740036},{"NoteNumber":60,"Velocity":68,"Duration":1346541,"SoundDuration":1346541,"Delta":60740036},{"NoteNumber":63,"Velocity":68,"Duration":1346541,"SoundDuration":1346541,"Delta":60740036},{"NoteNumber":68,"Velocity":80,"Duration":1346541,"SoundDuration":1346541,"Delta":60740036},{"NoteNumber":56,"Velocity":64,"Duration":1346541,"SoundDuration":1346541,"Delta":60740036},{"NoteNumber":44,"Velocity":54,"Duration":1346541,"SoundDuration":1346541,"Delta":60740036},{"NoteNumber":51,"Velocity":54,"Duration":1346541,"SoundDuration":1346541,"Delta":60740036},{"NoteNumber":77,"Velocity":93,"Duration":271689,"SoundDuration":271689,"Delta":62086578},{"NoteNumber":65,"Velocity":79,"Duration":271689,"SoundDuration":271689,"Delta":62086578},{"NoteNumber":68,"Velocity":79,"Duration":271689,"SoundDuration":271689,"Delta":62086578},{"NoteNumber":44,"Velocity":68,"Duration":271689,"SoundDuration":271689,"Delta":62086578},{"NoteNumber":37,"Velocity":68,"Duration":271689,"SoundDuration":271689,"Delta":62086578},{"NoteNumber":49,"Velocity":80,"Duration":271689,"SoundDuration":271689,"Delta":62086578},{"NoteNumber":65,"Velocity":85,"Duration":542237,"SoundDuration":542237,"Delta":62360550},{"NoteNumber":77,"Velocity":100,"Duration":542237,"SoundDuration":542237,"Delta":62360550},{"NoteNumber":68,"Velocity":85,"Duration":542237,"SoundDuration":542237,"Delta":62360550},{"NoteNumber":44,"Velocity":68,"Duration":542237,"SoundDuration":542237,"Delta":62360550},{"NoteNumber":37,"Velocity":68,"Duration":542237,"SoundDuration":542237,"Delta":62360550},{"NoteNumber":49,"Velocity":80,"Duration":542237,"SoundDuration":542237,"Delta":62360550},{"NoteNumber":68,"Velocity":85,"Duration":813926,"SoundDuration":813926,"Delta":62908495},{"NoteNumber":65,"Velocity":85,"Duration":813926,"SoundDuration":813926,"Delta":62908495},{"NoteNumber":77,"Velocity":100,"Duration":813926,"SoundDuration":813926,"Delta":62908495},{"NoteNumber":37,"Velocity":68,"Duration":813926,"SoundDuration":813926,"Delta":62908495},{"NoteNumber":44,"Velocity":68,"Duration":813926,"SoundDuration":813926,"Delta":62908495},{"NoteNumber":49,"Velocity":80,"Duration":813926,"SoundDuration":813926,"Delta":62908495},{"NoteNumber":73,"Velocity":93,"Duration":256465,"SoundDuration":256465,"Delta":63730413},{"NoteNumber":65,"Velocity":79,"Duration":256465,"SoundDuration":256465,"Delta":63730413},{"NoteNumber":68,"Velocity":79,"Duration":256465,"SoundDuration":256465,"Delta":63730413},{"NoteNumber":37,"Velocity":68,"Duration":256465,"SoundDuration":256465,"Delta":63730413},{"NoteNumber":49,"Velocity":80,"Duration":256465,"SoundDuration":256465,"Delta":63730413},{"NoteNumber":44,"Velocity":68,"Duration":256465,"SoundDuration":256465,"Delta":63730413},{"NoteNumber":65,"Velocity":85,"Duration":542237,"SoundDuration":542237,"Delta":63989033},{"NoteNumber":68,"Velocity":85,"Duration":542237,"SoundDuration":542237,"Delta":63989033},{"NoteNumber":73,"Velocity":100,"Duration":542237,"SoundDuration":542237,"Delta":63989033},{"NoteNumber":44,"Velocity":68,"Duration":542237,"SoundDuration":542237,"Delta":63989033},{"NoteNumber":37,"Velocity":68,"Duration":542237,"SoundDuration":542237,"Delta":63989033},{"NoteNumber":49,"Velocity":80,"Duration":542237,"SoundDuration":542237,"Delta":63989033},{"NoteNumber":65,"Velocity":85,"Duration":813926,"SoundDuration":813926,"Delta":64536978},{"NoteNumber":68,"Velocity":85,"Duration":813926,"SoundDuration":813926,"Delta":64536978},{"NoteNumber":73,"Velocity":100,"Duration":813926,"SoundDuration":813926,"Delta":64536978},{"NoteNumber":49,"Velocity":80,"Duration":813926,"SoundDuration":813926,"Delta":64536978},{"NoteNumber":44,"Velocity":68,"Duration":813926,"SoundDuration":813926,"Delta":64536978},{"NoteNumber":37,"Velocity":68,"Duration":813926,"SoundDuration":813926,"Delta":64536978},{"NoteNumber":65,"Velocity":79,"Duration":271689,"SoundDuration":271689,"Delta":65358896},{"NoteNumber":68,"Velocity":93,"Duration":271689,"SoundDuration":271689,"Delta":65358896},{"NoteNumber":49,"Velocity":80,"Duration":271689,"SoundDuration":271689,"Delta":65358896},{"NoteNumber":37,"Velocity":68,"Duration":271689,"SoundDuration":271689,"Delta":65358896},{"NoteNumber":68,"Velocity":99,"Duration":432692,"SoundDuration":432692,"Delta":65632868},{"NoteNumber":65,"Velocity":84,"Duration":432692,"SoundDuration":432692,"Delta":65632868},{"NoteNumber":37,"Velocity":68,"Duration":432692,"SoundDuration":432692,"Delta":65632868},{"NoteNumber":49,"Velocity":80,"Duration":432692,"SoundDuration":432692,"Delta":65632868},{"NoteNumber":66,"Velocity":84,"Duration":432692,"SoundDuration":432692,"Delta":66209791},{"NoteNumber":69,"Velocity":84,"Duration":432692,"SoundDuration":432692,"Delta":66209791},{"NoteNumber":73,"Velocity":99,"Duration":432692,"SoundDuration":432692,"Delta":66209791},{"NoteNumber":45,"Velocity":80,"Duration":432692,"SoundDuration":432692,"Delta":66209791},{"NoteNumber":33,"Velocity":68,"Duration":432692,"SoundDuration":432692,"Delta":66209791},{"NoteNumber":66,"Velocity":84,"Duration":449615,"SoundDuration":449615,"Delta":66786714},{"NoteNumber":78,"Velocity":99,"Duration":449615,"SoundDuration":449615,"Delta":66786714},{"NoteNumber":69,"Velocity":84,"Duration":449615,"SoundDuration":449615,"Delta":66786714},{"NoteNumber":73,"Velocity":84,"Duration":449615,"SoundDuration":449615,"Delta":66786714},{"NoteNumber":30,"Velocity":68,"Duration":449615,"SoundDuration":449615,"Delta":66786714},{"NoteNumber":42,"Velocity":80,"Duration":449615,"SoundDuration":449615,"Delta":66786714},{"NoteNumber":77,"Velocity":99,"Duration":1356396,"SoundDuration":1356396,"Delta":67386330},{"NoteNumber":65,"Velocity":84,"Duration":1090909,"SoundDuration":1090909,"Delta":67386330},{"NoteNumber":68,"Velocity":84,"Duration":1356396,"SoundDuration":1356396,"Delta":67386330},{"NoteNumber":73,"Velocity":84,"Duration":1356396,"SoundDuration":1356396,"Delta":67386330},{"NoteNumber":37,"Velocity":68,"Duration":1356396,"SoundDuration":1356396,"Delta":67386330},{"NoteNumber":49,"Velocity":80,"Duration":1356396,"SoundDuration":1356396,"Delta":67386330},{"NoteNumber":78,"Velocity":102,"Duration":263274,"SoundDuration":263274,"Delta":68742726},{"NoteNumber":66,"Velocity":86,"Duration":263274,"SoundDuration":263274,"Delta":68742726},{"NoteNumber":73,"Velocity":86,"Duration":263274,"SoundDuration":263274,"Delta":68742726},{"NoteNumber":45,"Velocity":80,"Duration":263274,"SoundDuration":263274,"Delta":68742726},{"NoteNumber":33,"Velocity":68,"Duration":263274,"SoundDuration":263274,"Delta":68742726},{"NoteNumber":78,"Velocity":103,"Duration":1614350,"SoundDuration":1614350,"Delta":69008213},{"NoteNumber":73,"Velocity":87,"Duration":1614350,"SoundDuration":1614350,"Delta":69008213},{"NoteNumber":66,"Velocity":87,"Duration":1614350,"SoundDuration":1614350,"Delta":69008213},{"NoteNumber":45,"Velocity":80,"Duration":3023896,"SoundDuration":3023896,"Delta":69008213},{"NoteNumber":33,"Velocity":68,"Duration":3023896,"SoundDuration":3023896,"Delta":69008213},{"NoteNumber":76,"Velocity":61,"Duration":538116,"SoundDuration":538116,"Delta":70622564},{"NoteNumber":67,"Velocity":51,"Duration":1409545,"SoundDuration":1409545,"Delta":70622564},{"NoteNumber":73,"Velocity":51,"Duration":1109545,"SoundDuration":1109545,"Delta":70622564},{"NoteNumber":75,"Velocity":61,"Duration":571428,"SoundDuration":571428,"Delta":71160681},{"NoteNumber":73,"Velocity":60,"Duration":299999,"SoundDuration":299999,"Delta":71732110},{"NoteNumber":61,"Velocity":57,"Duration":150000,"SoundDuration":150000,"Delta":72032110},{"NoteNumber":68,"Velocity":68,"Duration":150000,"SoundDuration":150000,"Delta":72032110},{"NoteNumber":52,"Velocity":54,"Duration":150000,"SoundDuration":150000,"Delta":72032110},{"NoteNumber":40,"Velocity":45,"Duration":150000,"SoundDuration":150000,"Delta":72032110},{"NoteNumber":68,"Velocity":68,"Duration":1462500,"SoundDuration":1462500,"Delta":72330746},{"NoteNumber":61,"Velocity":57,"Duration":1837500,"SoundDuration":1837500,"Delta":72330746},{"NoteNumber":52,"Velocity":54,"Duration":3861936,"SoundDuration":3861936,"Delta":72330746},{"NoteNumber":40,"Velocity":45,"Duration":3861936,"SoundDuration":3861936,"Delta":72330746},{"NoteNumber":70,"Velocity":35,"Duration":93750,"SoundDuration":93750,"Delta":73793247},{"NoteNumber":68,"Velocity":35,"Duration":93750,"SoundDuration":93750,"Delta":73886997},{"NoteNumber":67,"Velocity":35,"Duration":93750,"SoundDuration":93750,"Delta":73980747},{"NoteNumber":68,"Velocity":35,"Duration":93750,"SoundDuration":93750,"Delta":74074497},{"NoteNumber":68,"Velocity":52,"Duration":2024435,"SoundDuration":2024435,"Delta":74168247},{"NoteNumber":62,"Velocity":52,"Duration":1884455,"SoundDuration":1884455,"Delta":74308227},{"NoteNumber":71,"Velocity":52,"Duration":596026,"SoundDuration":596026,"Delta":74308227},{"NoteNumber":70,"Velocity":53,"Duration":621762,"SoundDuration":621762,"Delta":74904254},{"NoteNumber":68,"Velocity":53,"Duration":666667,"SoundDuration":666667,"Delta":75526016},{"NoteNumber":60,"Velocity":34,"Duration":2000000,"SoundDuration":2000000,"Delta":76192683},{"NoteNumber":63,"Velocity":40,"Duration":659722,"SoundDuration":659722,"Delta":76192683},{"NoteNumber":56,"Velocity":34,"Duration":2000000,"SoundDuration":2000000,"Delta":76192683},{"NoteNumber":51,"Velocity":27,"Duration":659722,"SoundDuration":659722,"Delta":76192683},{"NoteNumber":39,"Velocity":27,"Duration":2000000,"SoundDuration":2000000,"Delta":76192683},{"NoteNumber":63,"Velocity":40,"Duration":1333333,"SoundDuration":1333333,"Delta":76859350},{"NoteNumber":51,"Velocity":27,"Duration":1333333,"SoundDuration":1333333,"Delta":76859350},{"NoteNumber":55,"Velocity":34,"Duration":1869697,"SoundDuration":1869697,"Delta":78192684},{"NoteNumber":58,"Velocity":34,"Duration":1869697,"SoundDuration":1869697,"Delta":78192684},{"NoteNumber":63,"Velocity":40,"Duration":659722,"SoundDuration":659722,"Delta":78192684},{"NoteNumber":61,"Velocity":34,"Duration":1869697,"SoundDuration":1869697,"Delta":78192684},{"NoteNumber":39,"Velocity":27,"Duration":1869697,"SoundDuration":1869697,"Delta":78192684},{"NoteNumber":51,"Velocity":27,"Duration":659722,"SoundDuration":659722,"Delta":78192684},{"NoteNumber":63,"Velocity":40,"Duration":1190403,"SoundDuration":1190403,"Delta":78859351},{"NoteNumber":51,"Velocity":27,"Duration":1190403,"SoundDuration":1190403,"Delta":78859351},{"NoteNumber":63,"Velocity":40,"Duration":728527,"SoundDuration":728527,"Delta":80062381},{"NoteNumber":51,"Velocity":27,"Duration":728527,"SoundDuration":728527,"Delta":80062381},{"NoteNumber":68,"Velocity":46,"Duration":590796,"SoundDuration":590796,"Delta":80798577},{"NoteNumber":63,"Velocity":34,"Duration":590796,"SoundDuration":590796,"Delta":80798577},{"NoteNumber":60,"Velocity":34,"Duration":590796,"SoundDuration":590796,"Delta":80798577},{"NoteNumber":51,"Velocity":27,"Duration":590796,"SoundDuration":590796,"Delta":80798577},{"NoteNumber":44,"Velocity":27,"Duration":1708508,"SoundDuration":1708508,"Delta":80798577},{"NoteNumber":68,"Velocity":46,"Duration":838765,"SoundDuration":838765,"Delta":81395592},{"NoteNumber":63,"Velocity":34,"Duration":1111493,"SoundDuration":1111493,"Delta":81395592},{"NoteNumber":60,"Velocity":34,"Duration":1111493,"SoundDuration":1111493,"Delta":81395592},{"NoteNumber":51,"Velocity":27,"Duration":1111493,"SoundDuration":1111493,"Delta":81395592},{"NoteNumber":70,"Velocity":39,"Duration":272727,"SoundDuration":272727,"Delta":82234357},{"NoteNumber":63,"Velocity":34,"Duration":592954,"SoundDuration":592954,"Delta":82507085},{"NoteNumber":61,"Velocity":34,"Duration":592954,"SoundDuration":592954,"Delta":82507085},{"NoteNumber":68,"Velocity":46,"Duration":592954,"SoundDuration":592954,"Delta":82507085},{"NoteNumber":46,"Velocity":27,"Duration":1689546,"SoundDuration":1689546,"Delta":82507085},{"NoteNumber":51,"Velocity":27,"Duration":592954,"SoundDuration":592954,"Delta":82507085},{"NoteNumber":61,"Velocity":34,"Duration":1090909,"SoundDuration":1090909,"Delta":83105721},{"NoteNumber":63,"Velocity":34,"Duration":1090909,"SoundDuration":1090909,"Delta":83105721},{"NoteNumber":67,"Velocity":46,"Duration":818182,"SoundDuration":818182,"Delta":83105721},{"NoteNumber":51,"Velocity":27,"Duration":1090909,"SoundDuration":1090909,"Delta":83105721},{"NoteNumber":70,"Velocity":37,"Duration":270454,"SoundDuration":270454,"Delta":83923904},{"NoteNumber":70,"Velocity":46,"Duration":539773,"SoundDuration":539773,"Delta":84196631},{"NoteNumber":51,"Velocity":27,"Duration":539773,"SoundDuration":539773,"Delta":84196631},{"NoteNumber":48,"Velocity":27,"Duration":1090910,"SoundDuration":1090910,"Delta":84196631},{"NoteNumber":63,"Velocity":38,"Duration":539773,"SoundDuration":539773,"Delta":84742086},{"NoteNumber":68,"Velocity":51,"Duration":539773,"SoundDuration":539773,"Delta":84742086},{"NoteNumber":51,"Velocity":27,"Duration":539773,"SoundDuration":539773,"Delta":84742086},{"NoteNumber":63,"Velocity":39,"Duration":593750,"SoundDuration":593750,"Delta":85287541},{"NoteNumber":70,"Velocity":52,"Duration":593750,"SoundDuration":593750,"Delta":85287541},{"NoteNumber":61,"Velocity":39,"Duration":593750,"SoundDuration":593750,"Delta":85287541},{"NoteNumber":51,"Velocity":27,"Duration":593750,"SoundDuration":593750,"Delta":85287541},{"NoteNumber":43,"Velocity":27,"Duration":593750,"SoundDuration":593750,"Delta":85287541},{"NoteNumber":63,"Velocity":40,"Duration":1230770,"SoundDuration":1230770,"Delta":85887541},{"NoteNumber":72,"Velocity":55,"Duration":1230770,"SoundDuration":1230770,"Delta":85887541},{"NoteNumber":60,"Velocity":40,"Duration":1230770,"SoundDuration":1230770,"Delta":85887541},{"NoteNumber":51,"Velocity":27,"Duration":1230770,"SoundDuration":1230770,"Delta":85887541},{"NoteNumber":44,"Velocity":27,"Duration":1230770,"SoundDuration":1230770,"Delta":85887541},{"NoteNumber":63,"Velocity":52,"Duration":593750,"SoundDuration":593750,"Delta":87118311},{"NoteNumber":51,"Velocity":29,"Duration":593750,"SoundDuration":593750,"Delta":87118311},{"NoteNumber":63,"Velocity":53,"Duration":590796,"SoundDuration":590796,"Delta":87718311},{"NoteNumber":60,"Velocity":53,"Duration":590796,"SoundDuration":590796,"Delta":87718311},{"NoteNumber":72,"Velocity":72,"Duration":590796,"SoundDuration":590796,"Delta":87718311},{"NoteNumber":51,"Velocity":36,"Duration":590796,"SoundDuration":590796,"Delta":87718311},{"NoteNumber":42,"Velocity":36,"Duration":1687924,"SoundDuration":1687924,"Delta":87718311},{"NoteNumber":72,"Velocity":72,"Duration":818182,"SoundDuration":818182,"Delta":88315326},{"NoteNumber":63,"Velocity":53,"Duration":818182,"SoundDuration":818182,"Delta":88315326},{"NoteNumber":60,"Velocity":53,"Duration":818182,"SoundDuration":818182,"Delta":88315326},{"NoteNumber":51,"Velocity":37,"Duration":1090909,"SoundDuration":1090909,"Delta":88315326},{"NoteNumber":61,"Velocity":51,"Duration":270454,"SoundDuration":270454,"Delta":89133509},{"NoteNumber":58,"Velocity":51,"Duration":270454,"SoundDuration":270454,"Delta":89133509},{"NoteNumber":70,"Velocity":70,"Duration":270454,"SoundDuration":270454,"Delta":89133509},{"NoteNumber":70,"Velocity":75,"Duration":564664,"SoundDuration":564664,"Delta":89406236},{"NoteNumber":58,"Velocity":56,"Duration":564664,"SoundDuration":564664,"Delta":89406236},{"NoteNumber":61,"Velocity":56,"Duration":564664,"SoundDuration":564664,"Delta":89406236},{"NoteNumber":41,"Velocity":37,"Duration":1388529,"SoundDuration":1388529,"Delta":89406236},{"NoteNumber":51,"Velocity":37,"Duration":564664,"SoundDuration":564664,"Delta":89406236},{"NoteNumber":60,"Velocity":53,"Duration":818182,"SoundDuration":818182,"Delta":89976583},{"NoteNumber":69,"Velocity":71,"Duration":818182,"SoundDuration":818182,"Delta":89976583},{"NoteNumber":57,"Velocity":53,"Duration":818182,"SoundDuration":818182,"Delta":89976583},{"NoteNumber":51,"Velocity":35,"Duration":818182,"SoundDuration":818182,"Delta":89976583},{"NoteNumber":61,"Velocity":50,"Duration":270506,"SoundDuration":270506,"Delta":90794765},{"NoteNumber":58,"Velocity":50,"Duration":270506,"SoundDuration":270506,"Delta":90794765},{"NoteNumber":70,"Velocity":67,"Duration":270506,"SoundDuration":270506,"Delta":90794765},{"NoteNumber":40,"Velocity":35,"Duration":270506,"SoundDuration":270506,"Delta":90794765},{"NoteNumber":49,"Velocity":35,"Duration":270506,"SoundDuration":270506,"Delta":90794765},{"NoteNumber":61,"Velocity":52,"Duration":559100,"SoundDuration":559100,"Delta":91067555},{"NoteNumber":70,"Velocity":71,"Duration":559100,"SoundDuration":559100,"Delta":91067555},{"NoteNumber":58,"Velocity":52,"Duration":559100,"SoundDuration":559100,"Delta":91067555},{"NoteNumber":40,"Velocity":35,"Duration":559100,"SoundDuration":559100,"Delta":91067555},{"NoteNumber":49,"Velocity":35,"Duration":559100,"SoundDuration":559100,"Delta":91067555},{"NoteNumber":68,"Velocity":59,"Duration":585529,"SoundDuration":585529,"Delta":91626655},{"NoteNumber":60,"Velocity":43,"Duration":585529,"SoundDuration":585529,"Delta":91626655},{"NoteNumber":56,"Velocity":43,"Duration":585529,"SoundDuration":585529,"Delta":91626655},{"NoteNumber":51,"Velocity":29,"Duration":585529,"SoundDuration":585529,"Delta":91626655},{"NoteNumber":39,"Velocity":28,"Duration":585529,"SoundDuration":585529,"Delta":91626655},{"NoteNumber":67,"Velocity":60,"Duration":551384,"SoundDuration":551384,"Delta":92212185},{"NoteNumber":55,"Velocity":44,"Duration":551384,"SoundDuration":551384,"Delta":92212185},{"NoteNumber":58,"Velocity":44,"Duration":551384,"SoundDuration":551384,"Delta":92212185},{"NoteNumber":51,"Velocity":30,"Duration":551384,"SoundDuration":551384,"Delta":92212185},{"NoteNumber":49,"Velocity":30,"Duration":551384,"SoundDuration":551384,"Delta":92212185},{"NoteNumber":39,"Velocity":30,"Duration":551384,"SoundDuration":551384,"Delta":92212185},{"NoteNumber":60,"Velocity":43,"Duration":1243523,"SoundDuration":1243523,"Delta":92825745},{"NoteNumber":68,"Velocity":59,"Duration":1243523,"SoundDuration":1243523,"Delta":92825745},{"NoteNumber":56,"Velocity":43,"Duration":1243523,"SoundDuration":1243523,"Delta":92825745},{"NoteNumber":48,"Velocity":28,"Duration":1243523,"SoundDuration":1243523,"Delta":92825745},{"NoteNumber":51,"Velocity":28,"Duration":1243523,"SoundDuration":1243523,"Delta":92825745},{"NoteNumber":44,"Velocity":28,"Duration":1243523,"SoundDuration":1243523,"Delta":92825745},{"NoteNumber":75,"Velocity":56,"Duration":593706,"SoundDuration":593706,"Delta":94069269},{"NoteNumber":51,"Velocity":27,"Duration":593706,"SoundDuration":593706,"Delta":94069269},{"NoteNumber":80,"Velocity":54,"Duration":590796,"SoundDuration":590796,"Delta":94669195},{"NoteNumber":72,"Velocity":34,"Duration":590796,"SoundDuration":590796,"Delta":94669195},{"NoteNumber":75,"Velocity":34,"Duration":590796,"SoundDuration":590796,"Delta":94669195},{"NoteNumber":51,"Velocity":27,"Duration":590796,"SoundDuration":590796,"Delta":94669195},{"NoteNumber":44,"Velocity":27,"Duration":1687924,"SoundDuration":1687924,"Delta":94669195},{"NoteNumber":80,"Velocity":57,"Duration":818182,"SoundDuration":818182,"Delta":95266210},{"NoteNumber":75,"Velocity":34,"Duration":1090909,"SoundDuration":1090909,"Delta":95266210},{"NoteNumber":72,"Velocity":34,"Duration":1090909,"SoundDuration":1090909,"Delta":95266210},{"NoteNumber":51,"Velocity":27,"Duration":1090909,"SoundDuration":1090909,"Delta":95266210},{"NoteNumber":82,"Velocity":52,"Duration":270454,"SoundDuration":270454,"Delta":96084392},{"NoteNumber":80,"Velocity":57,"Duration":564664,"SoundDuration":564664,"Delta":96357120},{"NoteNumber":73,"Velocity":34,"Duration":564664,"SoundDuration":564664,"Delta":96357120},{"NoteNumber":75,"Velocity":34,"Duration":564664,"SoundDuration":564664,"Delta":96357120},{"NoteNumber":51,"Velocity":27,"Duration":564664,"SoundDuration":564664,"Delta":96357120},{"NoteNumber":46,"Velocity":27,"Duration":1661256,"SoundDuration":1661256,"Delta":96357120},{"NoteNumber":75,"Velocity":34,"Duration":1090909,"SoundDuration":1090909,"Delta":96927467},{"NoteNumber":73,"Velocity":34,"Duration":1090909,"SoundDuration":1090909,"Delta":96927467},{"NoteNumber":79,"Velocity":57,"Duration":818182,"SoundDuration":818182,"Delta":96927467},{"NoteNumber":51,"Velocity":27,"Duration":1090909,"SoundDuration":1090909,"Delta":96927467},{"NoteNumber":82,"Velocity":57,"Duration":270454,"SoundDuration":270454,"Delta":97745649},{"NoteNumber":82,"Velocity":57,"Duration":539773,"SoundDuration":539773,"Delta":98018377},{"NoteNumber":51,"Velocity":27,"Duration":539773,"SoundDuration":539773,"Delta":98018377},{"NoteNumber":48,"Velocity":27,"Duration":1091696,"SoundDuration":1091696,"Delta":98018377},{"NoteNumber":80,"Velocity":59,"Duration":540232,"SoundDuration":540232,"Delta":98563832},{"NoteNumber":75,"Velocity":35,"Duration":540232,"SoundDuration":540232,"Delta":98563832},{"NoteNumber":51,"Velocity":28,"Duration":540232,"SoundDuration":540232,"Delta":98563832},{"NoteNumber":82,"Velocity":62,"Duration":568182,"SoundDuration":568182,"Delta":99110073},{"NoteNumber":75,"Velocity":37,"Duration":568182,"SoundDuration":568182,"Delta":99110073},{"NoteNumber":73,"Velocity":37,"Duration":568182,"SoundDuration":568182,"Delta":99110073},{"NoteNumber":43,"Velocity":29,"Duration":568182,"SoundDuration":568182,"Delta":99110073},{"NoteNumber":51,"Velocity":29,"Duration":568182,"SoundDuration":568182,"Delta":99110073},{"NoteNumber":75,"Velocity":40,"Duration":1101313,"SoundDuration":1101313,"Delta":99684236},{"NoteNumber":72,"Velocity":40,"Duration":1101313,"SoundDuration":1101313,"Delta":99684236},{"NoteNumber":84,"Velocity":66,"Duration":1101313,"SoundDuration":1101313,"Delta":99684236},{"NoteNumber":44,"Velocity":32,"Duration":1101313,"SoundDuration":1101313,"Delta":99684236},{"NoteNumber":51,"Velocity":32,"Duration":1101313,"SoundDuration":1101313,"Delta":99684236},{"NoteNumber":75,"Velocity":72,"Duration":593750,"SoundDuration":593750,"Delta":100785549},{"NoteNumber":51,"Velocity":37,"Duration":593750,"SoundDuration":593750,"Delta":100785549},{"NoteNumber":75,"Velocity":53,"Duration":590796,"SoundDuration":590796,"Delta":101385549},{"NoteNumber":84,"Velocity":72,"Duration":590796,"SoundDuration":590796,"Delta":101385549},{"NoteNumber":72,"Velocity":53,"Duration":590796,"SoundDuration":590796,"Delta":101385549},{"NoteNumber":51,"Velocity":36,"Duration":590796,"SoundDuration":590796,"Delta":101385549},{"NoteNumber":42,"Velocity":36,"Duration":1687924,"SoundDuration":1687924,"Delta":101385549},{"NoteNumber":72,"Velocity":53,"Duration":818182,"SoundDuration":818182,"Delta":101982564},{"NoteNumber":75,"Velocity":53,"Duration":818182,"SoundDuration":818182,"Delta":101982564},{"NoteNumber":84,"Velocity":72,"Duration":818182,"SoundDuration":818182,"Delta":101982564},{"NoteNumber":51,"Velocity":37,"Duration":1090909,"SoundDuration":1090909,"Delta":101982564},{"NoteNumber":82,"Velocity":70,"Duration":270454,"SoundDuration":270454,"Delta":102800747},{"NoteNumber":73,"Velocity":51,"Duration":270454,"SoundDuration":270454,"Delta":102800747},{"NoteNumber":70,"Velocity":51,"Duration":270454,"SoundDuration":270454,"Delta":102800747},{"NoteNumber":70,"Velocity":56,"Duration":564664,"SoundDuration":564664,"Delta":103073474},{"NoteNumber":82,"Velocity":75,"Duration":564664,"SoundDuration":564664,"Delta":103073474},{"NoteNumber":73,"Velocity":56,"Duration":564664,"SoundDuration":564664,"Delta":103073474},{"NoteNumber":41,"Velocity":37,"Duration":1388529,"SoundDuration":1388529,"Delta":103073474},{"NoteNumber":51,"Velocity":37,"Duration":564664,"SoundDuration":564664,"Delta":103073474},{"NoteNumber":81,"Velocity":71,"Duration":810227,"SoundDuration":810227,"Delta":103643821},{"NoteNumber":69,"Velocity":53,"Duration":810227,"SoundDuration":810227,"Delta":103643821},{"NoteNumber":72,"Velocity":53,"Duration":810227,"SoundDuration":810227,"Delta":103643821},{"NoteNumber":51,"Velocity":35,"Duration":810227,"SoundDuration":810227,"Delta":103643821},{"NoteNumber":82,"Velocity":67,"Duration":270506,"SoundDuration":270506,"Delta":104462004},{"NoteNumber":70,"Velocity":50,"Duration":270506,"SoundDuration":270506,"Delta":104462004},{"NoteNumber":73,"Velocity":50,"Duration":270506,"SoundDuration":270506,"Delta":104462004},{"NoteNumber":49,"Velocity":35,"Duration":270506,"SoundDuration":270506,"Delta":104462004},{"NoteNumber":40,"Velocity":35,"Duration":270506,"SoundDuration":270506,"Delta":104462004},{"NoteNumber":70,"Velocity":52,"Duration":553147,"SoundDuration":553147,"Delta":104734793},{"NoteNumber":73,"Velocity":52,"Duration":553147,"SoundDuration":553147,"Delta":104734793},{"NoteNumber":82,"Velocity":71,"Duration":553147,"SoundDuration":553147,"Delta":104734793},{"NoteNumber":49,"Velocity":35,"Duration":553147,"SoundDuration":553147,"Delta":104734793},{"NoteNumber":40,"Velocity":35,"Duration":553147,"SoundDuration":553147,"Delta":104734793},{"NoteNumber":80,"Velocity":59,"Duration":579279,"SoundDuration":579279,"Delta":105293893},{"NoteNumber":72,"Velocity":43,"Duration":579279,"SoundDuration":579279,"Delta":105293893},{"NoteNumber":68,"Velocity":43,"Duration":579279,"SoundDuration":579279,"Delta":105293893},{"NoteNumber":51,"Velocity":29,"Duration":579279,"SoundDuration":579279,"Delta":105293893},{"NoteNumber":39,"Velocity":28,"Duration":579279,"SoundDuration":579279,"Delta":105293893},{"NoteNumber":79,"Velocity":60,"Duration":551735,"SoundDuration":551735,"Delta":105879423},{"NoteNumber":70,"Velocity":44,"Duration":551735,"SoundDuration":551735,"Delta":105879423},{"NoteNumber":67,"Velocity":44,"Duration":551735,"SoundDuration":551735,"Delta":105879423},{"NoteNumber":51,"Velocity":30,"Duration":551735,"SoundDuration":551735,"Delta":105879423},{"NoteNumber":49,"Velocity":30,"Duration":551735,"SoundDuration":551735,"Delta":105879423},{"NoteNumber":39,"Velocity":30,"Duration":551735,"SoundDuration":551735,"Delta":105879423},{"NoteNumber":68,"Velocity":43,"Duration":1250000,"SoundDuration":1250000,"Delta":106493658},{"NoteNumber":80,"Velocity":59,"Duration":1250000,"SoundDuration":1250000,"Delta":106493658},{"NoteNumber":72,"Velocity":43,"Duration":1250000,"SoundDuration":1250000,"Delta":106493658},{"NoteNumber":48,"Velocity":28,"Duration":1250000,"SoundDuration":1250000,"Delta":106493658},{"NoteNumber":51,"Velocity":28,"Duration":1250000,"SoundDuration":1250000,"Delta":106493658},{"NoteNumber":44,"Velocity":28,"Duration":1250000,"SoundDuration":1250000,"Delta":106493658},{"NoteNumber":75,"Velocity":80,"Duration":250000,"SoundDuration":250000,"Delta":108056158},{"NoteNumber":63,"Velocity":68,"Duration":250000,"SoundDuration":250000,"Delta":108056158},{"NoteNumber":68,"Velocity":68,"Duration":250000,"SoundDuration":250000,"Delta":108056158},{"NoteNumber":56,"Velocity":54,"Duration":250000,"SoundDuration":250000,"Delta":108056158},{"NoteNumber":60,"Velocity":64,"Duration":250000,"SoundDuration":250000,"Delta":108056158},{"NoteNumber":48,"Velocity":54,"Duration":250000,"SoundDuration":250000,"Delta":108056158},{"NoteNumber":63,"Velocity":77,"Duration":544725,"SoundDuration":544725,"Delta":108308259},{"NoteNumber":68,"Velocity":77,"Duration":544725,"SoundDuration":544725,"Delta":108308259},{"NoteNumber":75,"Velocity":91,"Duration":544725,"SoundDuration":544725,"Delta":108308259},{"NoteNumber":56,"Velocity":62,"Duration":544725,"SoundDuration":544725,"Delta":108308259},{"NoteNumber":48,"Velocity":62,"Duration":544725,"SoundDuration":544725,"Delta":108308259},{"NoteNumber":60,"Velocity":73,"Duration":544725,"SoundDuration":544725,"Delta":108308259},{"NoteNumber":63,"Velocity":74,"Duration":777056,"SoundDuration":777056,"Delta":108858718},{"NoteNumber":75,"Velocity":88,"Duration":777056,"SoundDuration":777056,"Delta":108858718},{"NoteNumber":68,"Velocity":74,"Duration":777056,"SoundDuration":777056,"Delta":108858718},{"NoteNumber":48,"Velocity":59,"Duration":777056,"SoundDuration":777056,"Delta":108858718},{"NoteNumber":56,"Velocity":59,"Duration":777056,"SoundDuration":777056,"Delta":108858718},{"NoteNumber":60,"Velocity":70,"Duration":777056,"SoundDuration":777056,"Delta":108858718},{"NoteNumber":60,"Velocity":68,"Duration":248953,"SoundDuration":248953,"Delta":109643097},{"NoteNumber":63,"Velocity":68,"Duration":248953,"SoundDuration":248953,"Delta":109643097},{"NoteNumber":72,"Velocity":80,"Duration":248953,"SoundDuration":248953,"Delta":109643097},{"NoteNumber":51,"Velocity":54,"Duration":248953,"SoundDuration":248953,"Delta":109643097},{"NoteNumber":44,"Velocity":54,"Duration":248953,"SoundDuration":248953,"Delta":109643097},{"NoteNumber":56,"Velocity":64,"Duration":248953,"SoundDuration":248953,"Delta":109643097},{"NoteNumber":60,"Velocity":77,"Duration":547234,"SoundDuration":547234,"Delta":109894143},{"NoteNumber":72,"Velocity":91,"Duration":547234,"SoundDuration":547234,"Delta":109894143},{"NoteNumber":63,"Velocity":77,"Duration":547234,"SoundDuration":547234,"Delta":109894143},{"NoteNumber":51,"Velocity":61,"Duration":547234,"SoundDuration":547234,"Delta":109894143},{"NoteNumber":56,"Velocity":72,"Duration":547234,"SoundDuration":547234,"Delta":109894143},{"NoteNumber":44,"Velocity":61,"Duration":547234,"SoundDuration":547234,"Delta":109894143},{"NoteNumber":72,"Velocity":86,"Duration":802311,"SoundDuration":802311,"Delta":110447138},{"NoteNumber":63,"Velocity":73,"Duration":802311,"SoundDuration":802311,"Delta":110447138},{"NoteNumber":60,"Velocity":73,"Duration":802311,"SoundDuration":802311,"Delta":110447138},{"NoteNumber":51,"Velocity":59,"Duration":802311,"SoundDuration":802311,"Delta":110447138},{"NoteNumber":56,"Velocity":70,"Duration":802311,"SoundDuration":802311,"Delta":110447138},{"NoteNumber":44,"Velocity":59,"Duration":802311,"SoundDuration":802311,"Delta":110447138},{"NoteNumber":68,"Velocity":79,"Duration":259825,"SoundDuration":259825,"Delta":111257092},{"NoteNumber":65,"Velocity":67,"Duration":259825,"SoundDuration":259825,"Delta":111257092},{"NoteNumber":60,"Velocity":67,"Duration":259825,"SoundDuration":259825,"Delta":111257092},{"NoteNumber":41,"Velocity":54,"Duration":259825,"SoundDuration":259825,"Delta":111257092},{"NoteNumber":53,"Velocity":64,"Duration":259825,"SoundDuration":259825,"Delta":111257092},{"NoteNumber":60,"Velocity":67,"Duration":391304,"SoundDuration":391304,"Delta":111519100},{"NoteNumber":65,"Velocity":67,"Duration":391304,"SoundDuration":391304,"Delta":111519100},{"NoteNumber":68,"Velocity":79,"Duration":391304,"SoundDuration":391304,"Delta":111519100},{"NoteNumber":41,"Velocity":54,"Duration":391304,"SoundDuration":391304,"Delta":111519100},{"NoteNumber":53,"Velocity":64,"Duration":391304,"SoundDuration":391304,"Delta":111519100},{"NoteNumber":63,"Velocity":68,"Duration":407239,"SoundDuration":407239,"Delta":112040839},{"NoteNumber":61,"Velocity":68,"Duration":407239,"SoundDuration":407239,"Delta":112040839},{"NoteNumber":70,"Velocity":80,"Duration":407239,"SoundDuration":407239,"Delta":112040839},{"NoteNumber":55,"Velocity":64,"Duration":407239,"SoundDuration":407239,"Delta":112040839},{"NoteNumber":43,"Velocity":54,"Duration":407239,"SoundDuration":407239,"Delta":112040839},{"NoteNumber":61,"Velocity":68,"Duration":422534,"SoundDuration":422534,"Delta":112583825},{"NoteNumber":70,"Velocity":68,"Duration":422534,"SoundDuration":422534,"Delta":112583825},{"NoteNumber":73,"Velocity":80,"Duration":422534,"SoundDuration":422534,"Delta":112583825},{"NoteNumber":63,"Velocity":68,"Duration":422534,"SoundDuration":422534,"Delta":112583825},{"NoteNumber":67,"Velocity":68,"Duration":422534,"SoundDuration":422534,"Delta":112583825},{"NoteNumber":39,"Velocity":54,"Duration":422534,"SoundDuration":422534,"Delta":112583825},{"NoteNumber":51,"Velocity":64,"Duration":422534,"SoundDuration":422534,"Delta":112583825},{"NoteNumber":72,"Velocity":80,"Duration":1346541,"SoundDuration":1346541,"Delta":113147205},{"NoteNumber":60,"Velocity":68,"Duration":1346541,"SoundDuration":1346541,"Delta":113147205},{"NoteNumber":63,"Velocity":68,"Duration":1346541,"SoundDuration":1346541,"Delta":113147205},{"NoteNumber":68,"Velocity":80,"Duration":1346541,"SoundDuration":1346541,"Delta":113147205},{"NoteNumber":51,"Velocity":54,"Duration":1346541,"SoundDuration":1346541,"Delta":113147205},{"NoteNumber":56,"Velocity":64,"Duration":1346541,"SoundDuration":1346541,"Delta":113147205},{"NoteNumber":44,"Velocity":54,"Duration":1346541,"SoundDuration":1346541,"Delta":113147205},{"NoteNumber":68,"Velocity":79,"Duration":271689,"SoundDuration":271689,"Delta":114493747},{"NoteNumber":65,"Velocity":79,"Duration":271689,"SoundDuration":271689,"Delta":114493747},{"NoteNumber":77,"Velocity":93,"Duration":271689,"SoundDuration":271689,"Delta":114493747},{"NoteNumber":37,"Velocity":68,"Duration":271689,"SoundDuration":271689,"Delta":114493747},{"NoteNumber":44,"Velocity":68,"Duration":271689,"SoundDuration":271689,"Delta":114493747},{"NoteNumber":49,"Velocity":80,"Duration":271689,"SoundDuration":271689,"Delta":114493747},{"NoteNumber":68,"Velocity":85,"Duration":542237,"SoundDuration":542237,"Delta":114767719},{"NoteNumber":65,"Velocity":85,"Duration":542237,"SoundDuration":542237,"Delta":114767719},{"NoteNumber":77,"Velocity":100,"Duration":542237,"SoundDuration":542237,"Delta":114767719},{"NoteNumber":37,"Velocity":68,"Duration":542237,"SoundDuration":542237,"Delta":114767719},{"NoteNumber":49,"Velocity":80,"Duration":542237,"SoundDuration":542237,"Delta":114767719},{"NoteNumber":44,"Velocity":68,"Duration":542237,"SoundDuration":542237,"Delta":114767719},{"NoteNumber":65,"Velocity":85,"Duration":813926,"SoundDuration":813926,"Delta":115315664},{"NoteNumber":77,"Velocity":100,"Duration":813926,"SoundDuration":813926,"Delta":115315664},{"NoteNumber":68,"Velocity":85,"Duration":813926,"SoundDuration":813926,"Delta":115315664},{"NoteNumber":49,"Velocity":80,"Duration":813926,"SoundDuration":813926,"Delta":115315664},{"NoteNumber":37,"Velocity":68,"Duration":813926,"SoundDuration":813926,"Delta":115315664},{"NoteNumber":44,"Velocity":68,"Duration":813926,"SoundDuration":813926,"Delta":115315664},{"NoteNumber":65,"Velocity":79,"Duration":256465,"SoundDuration":256465,"Delta":116137582},{"NoteNumber":73,"Velocity":93,"Duration":256465,"SoundDuration":256465,"Delta":116137582},{"NoteNumber":68,"Velocity":79,"Duration":256465,"SoundDuration":256465,"Delta":116137582},{"NoteNumber":44,"Velocity":68,"Duration":256465,"SoundDuration":256465,"Delta":116137582},{"NoteNumber":49,"Velocity":80,"Duration":256465,"SoundDuration":256465,"Delta":116137582},{"NoteNumber":37,"Velocity":68,"Duration":256465,"SoundDuration":256465,"Delta":116137582},{"NoteNumber":65,"Velocity":85,"Duration":542237,"SoundDuration":542237,"Delta":116396202},{"NoteNumber":68,"Velocity":85,"Duration":542237,"SoundDuration":542237,"Delta":116396202},{"NoteNumber":73,"Velocity":100,"Duration":542237,"SoundDuration":542237,"Delta":116396202},{"NoteNumber":44,"Velocity":68,"Duration":542237,"SoundDuration":542237,"Delta":116396202},{"NoteNumber":49,"Velocity":80,"Duration":542237,"SoundDuration":542237,"Delta":116396202},{"NoteNumber":37,"Velocity":68,"Duration":542237,"SoundDuration":542237,"Delta":116396202},{"NoteNumber":73,"Velocity":100,"Duration":813926,"SoundDuration":813926,"Delta":116944147},{"NoteNumber":68,"Velocity":85,"Duration":813926,"SoundDuration":813926,"Delta":116944147},{"NoteNumber":65,"Velocity":85,"Duration":813926,"SoundDuration":813926,"Delta":116944147},{"NoteNumber":44,"Velocity":68,"Duration":813926,"SoundDuration":813926,"Delta":116944147},{"NoteNumber":49,"Velocity":80,"Duration":813926,"SoundDuration":813926,"Delta":116944147},{"NoteNumber":37,"Velocity":68,"Duration":813926,"SoundDuration":813926,"Delta":116944147},{"NoteNumber":65,"Velocity":79,"Duration":271689,"SoundDuration":271689,"Delta":117766065},{"NoteNumber":68,"Velocity":93,"Duration":271689,"SoundDuration":271689,"Delta":117766065},{"NoteNumber":37,"Velocity":68,"Duration":271689,"SoundDuration":271689,"Delta":117766065},{"NoteNumber":49,"Velocity":80,"Duration":271689,"SoundDuration":271689,"Delta":117766065},{"NoteNumber":68,"Velocity":99,"Duration":432692,"SoundDuration":432692,"Delta":118040037},{"NoteNumber":65,"Velocity":84,"Duration":432692,"SoundDuration":432692,"Delta":118040037},{"NoteNumber":49,"Velocity":80,"Duration":432692,"SoundDuration":432692,"Delta":118040037},{"NoteNumber":37,"Velocity":68,"Duration":432692,"SoundDuration":432692,"Delta":118040037},{"NoteNumber":73,"Velocity":99,"Duration":432692,"SoundDuration":432692,"Delta":118616960},{"NoteNumber":69,"Velocity":84,"Duration":432692,"SoundDuration":432692,"Delta":118616960},{"NoteNumber":66,"Velocity":84,"Duration":432692,"SoundDuration":432692,"Delta":118616960},{"NoteNumber":45,"Velocity":80,"Duration":432692,"SoundDuration":432692,"Delta":118616960},{"NoteNumber":33,"Velocity":68,"Duration":432692,"SoundDuration":432692,"Delta":118616960},{"NoteNumber":78,"Velocity":99,"Duration":449615,"SoundDuration":449615,"Delta":119193883},{"NoteNumber":66,"Velocity":84,"Duration":449615,"SoundDuration":449615,"Delta":119193883},{"NoteNumber":69,"Velocity":84,"Duration":449615,"SoundDuration":449615,"Delta":119193883},{"NoteNumber":73,"Velocity":99,"Duration":449615,"SoundDuration":449615,"Delta":119193883},{"NoteNumber":42,"Velocity":80,"Duration":449615,"SoundDuration":449615,"Delta":119193883},{"NoteNumber":30,"Velocity":68,"Duration":449615,"SoundDuration":449615,"Delta":119193883},{"NoteNumber":65,"Velocity":84,"Duration":1356396,"SoundDuration":1356396,"Delta":119793499},{"NoteNumber":68,"Velocity":84,"Duration":1356396,"SoundDuration":1356396,"Delta":119793499},{"NoteNumber":73,"Velocity":84,"Duration":1356396,"SoundDuration":1356396,"Delta":119793499},{"NoteNumber":77,"Velocity":99,"Duration":1356396,"SoundDuration":1356396,"Delta":119793499},{"NoteNumber":37,"Velocity":68,"Duration":1356396,"SoundDuration":1356396,"Delta":119793499},{"NoteNumber":49,"Velocity":80,"Duration":1356396,"SoundDuration":1356396,"Delta":119793499},{"NoteNumber":73,"Velocity":86,"Duration":263274,"SoundDuration":263274,"Delta":121149895},{"NoteNumber":78,"Velocity":102,"Duration":263274,"SoundDuration":263274,"Delta":121149895},{"NoteNumber":66,"Velocity":86,"Duration":263274,"SoundDuration":263274,"Delta":121149895},{"NoteNumber":33,"Velocity":68,"Duration":263274,"SoundDuration":263274,"Delta":121149895},{"NoteNumber":45,"Velocity":80,"Duration":263274,"SoundDuration":263274,"Delta":121149895},{"NoteNumber":78,"Velocity":103,"Duration":1614350,"SoundDuration":1614350,"Delta":121415382},{"NoteNumber":66,"Velocity":87,"Duration":1614350,"SoundDuration":1614350,"Delta":121415382},{"NoteNumber":73,"Velocity":87,"Duration":1614350,"SoundDuration":1614350,"Delta":121415382},{"NoteNumber":45,"Velocity":80,"Duration":3023896,"SoundDuration":3023896,"Delta":121415382},{"NoteNumber":33,"Velocity":68,"Duration":3023896,"SoundDuration":3023896,"Delta":121415382},{"NoteNumber":76,"Velocity":61,"Duration":538116,"SoundDuration":538116,"Delta":123029733},{"NoteNumber":73,"Velocity":51,"Duration":1109545,"SoundDuration":1109545,"Delta":123029733},{"NoteNumber":67,"Velocity":51,"Duration":1409545,"SoundDuration":1409545,"Delta":123029733},{"NoteNumber":75,"Velocity":61,"Duration":571428,"SoundDuration":571428,"Delta":123567850},{"NoteNumber":73,"Velocity":60,"Duration":299999,"SoundDuration":299999,"Delta":124139279},{"NoteNumber":61,"Velocity":57,"Duration":150000,"SoundDuration":150000,"Delta":124439279},{"NoteNumber":68,"Velocity":68,"Duration":150000,"SoundDuration":150000,"Delta":124439279},{"NoteNumber":52,"Velocity":54,"Duration":150000,"SoundDuration":150000,"Delta":124439279},{"NoteNumber":40,"Velocity":45,"Duration":150000,"SoundDuration":150000,"Delta":124439279},{"NoteNumber":61,"Velocity":57,"Duration":1837500,"SoundDuration":1837500,"Delta":124737915},{"NoteNumber":68,"Velocity":68,"Duration":1462500,"SoundDuration":1462500,"Delta":124737915},{"NoteNumber":40,"Velocity":45,"Duration":3861936,"SoundDuration":3861936,"Delta":124737915},{"NoteNumber":52,"Velocity":54,"Duration":3861936,"SoundDuration":3861936,"Delta":124737915},{"NoteNumber":70,"Velocity":35,"Duration":93750,"SoundDuration":93750,"Delta":126200416},{"NoteNumber":68,"Velocity":35,"Duration":93750,"SoundDuration":93750,"Delta":126294166},{"NoteNumber":67,"Velocity":35,"Duration":93750,"SoundDuration":93750,"Delta":126387916},{"NoteNumber":68,"Velocity":35,"Duration":93749,"SoundDuration":93749,"Delta":126481666},{"NoteNumber":68,"Velocity":52,"Duration":2024435,"SoundDuration":2024435,"Delta":126575416},{"NoteNumber":71,"Velocity":52,"Duration":596026,"SoundDuration":596026,"Delta":126715396},{"NoteNumber":62,"Velocity":52,"Duration":1884455,"SoundDuration":1884455,"Delta":126715396},{"NoteNumber":70,"Velocity":53,"Duration":621761,"SoundDuration":621761,"Delta":127311423},{"NoteNumber":68,"Velocity":53,"Duration":666666,"SoundDuration":666666,"Delta":127933185},{"NoteNumber":56,"Velocity":34,"Duration":2000000,"SoundDuration":2000000,"Delta":128599852},{"NoteNumber":63,"Velocity":40,"Duration":659722,"SoundDuration":659722,"Delta":128599852},{"NoteNumber":60,"Velocity":34,"Duration":2000000,"SoundDuration":2000000,"Delta":128599852},{"NoteNumber":51,"Velocity":27,"Duration":659722,"SoundDuration":659722,"Delta":128599852},{"NoteNumber":39,"Velocity":27,"Duration":2000000,"SoundDuration":2000000,"Delta":128599852},{"NoteNumber":63,"Velocity":40,"Duration":1333333,"SoundDuration":1333333,"Delta":129266519},{"NoteNumber":51,"Velocity":27,"Duration":1333333,"SoundDuration":1333333,"Delta":129266519},{"NoteNumber":61,"Velocity":40,"Duration":1869697,"SoundDuration":1869697,"Delta":130599853},{"NoteNumber":58,"Velocity":34,"Duration":1869697,"SoundDuration":1869697,"Delta":130599853},{"NoteNumber":55,"Velocity":34,"Duration":1869697,"SoundDuration":1869697,"Delta":130599853},{"NoteNumber":63,"Velocity":40,"Duration":659722,"SoundDuration":659722,"Delta":130599853},{"NoteNumber":51,"Velocity":27,"Duration":659722,"SoundDuration":659722,"Delta":130599853},{"NoteNumber":39,"Velocity":27,"Duration":1869697,"SoundDuration":1869697,"Delta":130599853},{"NoteNumber":63,"Velocity":40,"Duration":1190403,"SoundDuration":1190403,"Delta":131266520},{"NoteNumber":51,"Velocity":27,"Duration":1190403,"SoundDuration":1190403,"Delta":131266520},{"NoteNumber":63,"Velocity":40,"Duration":728527,"SoundDuration":728527,"Delta":132469550},{"NoteNumber":51,"Velocity":27,"Duration":728527,"SoundDuration":728527,"Delta":132469550},{"NoteNumber":60,"Velocity":34,"Duration":590796,"SoundDuration":590796,"Delta":133205746},{"NoteNumber":68,"Velocity":46,"Duration":590796,"SoundDuration":590796,"Delta":133205746},{"NoteNumber":63,"Velocity":34,"Duration":590796,"SoundDuration":590796,"Delta":133205746},{"NoteNumber":44,"Velocity":27,"Duration":1708507,"SoundDuration":1708507,"Delta":133205746},{"NoteNumber":51,"Velocity":27,"Duration":590796,"SoundDuration":590796,"Delta":133205746},{"NoteNumber":60,"Velocity":34,"Duration":1111492,"SoundDuration":1111492,"Delta":133802761},{"NoteNumber":63,"Velocity":34,"Duration":1111492,"SoundDuration":1111492,"Delta":133802761},{"NoteNumber":68,"Velocity":46,"Duration":838765,"SoundDuration":838765,"Delta":133802761},{"NoteNumber":51,"Velocity":27,"Duration":1111492,"SoundDuration":1111492,"Delta":133802761},{"NoteNumber":70,"Velocity":39,"Duration":272727,"SoundDuration":272727,"Delta":134641526},{"NoteNumber":63,"Velocity":34,"Duration":592954,"SoundDuration":592954,"Delta":134914254},{"NoteNumber":61,"Velocity":34,"Duration":592954,"SoundDuration":592954,"Delta":134914254},{"NoteNumber":68,"Velocity":46,"Duration":592954,"SoundDuration":592954,"Delta":134914254},{"NoteNumber":51,"Velocity":27,"Duration":592954,"SoundDuration":592954,"Delta":134914254},{"NoteNumber":46,"Velocity":27,"Duration":1689546,"SoundDuration":1689546,"Delta":134914254},{"NoteNumber":67,"Velocity":46,"Duration":818182,"SoundDuration":818182,"Delta":135512890},{"NoteNumber":61,"Velocity":34,"Duration":1090910,"SoundDuration":1090910,"Delta":135512890},{"NoteNumber":63,"Velocity":34,"Duration":1090910,"SoundDuration":1090910,"Delta":135512890},{"NoteNumber":51,"Velocity":27,"Duration":1090910,"SoundDuration":1090910,"Delta":135512890},{"NoteNumber":70,"Velocity":37,"Duration":272727,"SoundDuration":272727,"Delta":136331073},{"NoteNumber":70,"Velocity":46,"Duration":539773,"SoundDuration":539773,"Delta":136603800},{"NoteNumber":51,"Velocity":27,"Duration":539773,"SoundDuration":539773,"Delta":136603800},{"NoteNumber":48,"Velocity":27,"Duration":1080682,"SoundDuration":1080682,"Delta":136603800},{"NoteNumber":63,"Velocity":38,"Duration":539773,"SoundDuration":539773,"Delta":137149255},{"NoteNumber":68,"Velocity":51,"Duration":539773,"SoundDuration":539773,"Delta":137149255},{"NoteNumber":51,"Velocity":27,"Duration":539773,"SoundDuration":539773,"Delta":137149255},{"NoteNumber":61,"Velocity":39,"Duration":593750,"SoundDuration":593750,"Delta":137694710},{"NoteNumber":70,"Velocity":52,"Duration":593750,"SoundDuration":593750,"Delta":137694710},{"NoteNumber":63,"Velocity":39,"Duration":593750,"SoundDuration":593750,"Delta":137694710},{"NoteNumber":51,"Velocity":27,"Duration":593750,"SoundDuration":593750,"Delta":137694710},{"NoteNumber":43,"Velocity":27,"Duration":593750,"SoundDuration":593750,"Delta":137694710},{"NoteNumber":63,"Velocity":40,"Duration":1230770,"SoundDuration":1230770,"Delta":138294710},{"NoteNumber":60,"Velocity":40,"Duration":1230770,"SoundDuration":1230770,"Delta":138294710},{"NoteNumber":72,"Velocity":55,"Duration":1230770,"SoundDuration":1230770,"Delta":138294710},{"NoteNumber":51,"Velocity":27,"Duration":1230770,"SoundDuration":1230770,"Delta":138294710},{"NoteNumber":44,"Velocity":27,"Duration":1230770,"SoundDuration":1230770,"Delta":138294710},{"NoteNumber":63,"Velocity":52,"Duration":593750,"SoundDuration":593750,"Delta":139525480},{"NoteNumber":51,"Velocity":29,"Duration":593750,"SoundDuration":593750,"Delta":139525480},{"NoteNumber":72,"Velocity":72,"Duration":590796,"SoundDuration":590796,"Delta":140125480},{"NoteNumber":63,"Velocity":53,"Duration":590796,"SoundDuration":590796,"Delta":140125480},{"NoteNumber":60,"Velocity":53,"Duration":590796,"SoundDuration":590796,"Delta":140125480},{"NoteNumber":51,"Velocity":36,"Duration":590796,"SoundDuration":590796,"Delta":140125480},{"NoteNumber":42,"Velocity":36,"Duration":1687925,"SoundDuration":1687925,"Delta":140125480},{"NoteNumber":60,"Velocity":53,"Duration":818182,"SoundDuration":818182,"Delta":140722495},{"NoteNumber":63,"Velocity":53,"Duration":818182,"SoundDuration":818182,"Delta":140722495},{"NoteNumber":72,"Velocity":72,"Duration":818182,"SoundDuration":818182,"Delta":140722495},{"NoteNumber":51,"Velocity":37,"Duration":1090910,"SoundDuration":1090910,"Delta":140722495},{"NoteNumber":70,"Velocity":70,"Duration":270454,"SoundDuration":270454,"Delta":141540678},{"NoteNumber":61,"Velocity":51,"Duration":270454,"SoundDuration":270454,"Delta":141540678},{"NoteNumber":58,"Velocity":51,"Duration":270454,"SoundDuration":270454,"Delta":141540678},{"NoteNumber":58,"Velocity":56,"Duration":564664,"SoundDuration":564664,"Delta":141813405},{"NoteNumber":61,"Velocity":56,"Duration":564664,"SoundDuration":564664,"Delta":141813405},{"NoteNumber":70,"Velocity":75,"Duration":564664,"SoundDuration":564664,"Delta":141813405},{"NoteNumber":51,"Velocity":37,"Duration":564664,"SoundDuration":564664,"Delta":141813405},{"NoteNumber":41,"Velocity":37,"Duration":1388529,"SoundDuration":1388529,"Delta":141813405},{"NoteNumber":69,"Velocity":71,"Duration":818182,"SoundDuration":818182,"Delta":142383752},{"NoteNumber":60,"Velocity":53,"Duration":818182,"SoundDuration":818182,"Delta":142383752},{"NoteNumber":57,"Velocity":53,"Duration":818182,"SoundDuration":818182,"Delta":142383752},{"NoteNumber":51,"Velocity":35,"Duration":818182,"SoundDuration":818182,"Delta":142383752},{"NoteNumber":61,"Velocity":50,"Duration":270506,"SoundDuration":270506,"Delta":143201935},{"NoteNumber":70,"Velocity":67,"Duration":270506,"SoundDuration":270506,"Delta":143201935},{"NoteNumber":58,"Velocity":50,"Duration":270506,"SoundDuration":270506,"Delta":143201935},{"NoteNumber":40,"Velocity":35,"Duration":270506,"SoundDuration":270506,"Delta":143201935},{"NoteNumber":49,"Velocity":35,"Duration":270506,"SoundDuration":270506,"Delta":143201935},{"NoteNumber":61,"Velocity":52,"Duration":553147,"SoundDuration":553147,"Delta":143474724},{"NoteNumber":58,"Velocity":52,"Duration":553147,"SoundDuration":553147,"Delta":143474724},{"NoteNumber":70,"Velocity":71,"Duration":553147,"SoundDuration":553147,"Delta":143474724},{"NoteNumber":49,"Velocity":35,"Duration":553147,"SoundDuration":553147,"Delta":143474724},{"NoteNumber":40,"Velocity":35,"Duration":553147,"SoundDuration":553147,"Delta":143474724},{"NoteNumber":60,"Velocity":43,"Duration":579279,"SoundDuration":579279,"Delta":144033824},{"NoteNumber":68,"Velocity":59,"Duration":579279,"SoundDuration":579279,"Delta":144033824},{"NoteNumber":56,"Velocity":43,"Duration":579279,"SoundDuration":579279,"Delta":144033824},{"NoteNumber":39,"Velocity":28,"Duration":579279,"SoundDuration":579279,"Delta":144033824},{"NoteNumber":51,"Velocity":29,"Duration":579279,"SoundDuration":579279,"Delta":144033824},{"NoteNumber":58,"Velocity":44,"Duration":551384,"SoundDuration":551384,"Delta":144619354},{"NoteNumber":55,"Velocity":44,"Duration":551384,"SoundDuration":551384,"Delta":144619354},{"NoteNumber":67,"Velocity":60,"Duration":551384,"SoundDuration":551384,"Delta":144619354},{"NoteNumber":39,"Velocity":30,"Duration":551384,"SoundDuration":551384,"Delta":144619354},{"NoteNumber":49,"Velocity":30,"Duration":551384,"SoundDuration":551384,"Delta":144619354},{"NoteNumber":51,"Velocity":30,"Duration":551384,"SoundDuration":551384,"Delta":144619354},{"NoteNumber":56,"Velocity":43,"Duration":1243523,"SoundDuration":1243523,"Delta":145232915},{"NoteNumber":68,"Velocity":59,"Duration":1243523,"SoundDuration":1243523,"Delta":145232915},{"NoteNumber":60,"Velocity":43,"Duration":1243523,"SoundDuration":1243523,"Delta":145232915},{"NoteNumber":51,"Velocity":28,"Duration":1243523,"SoundDuration":1243523,"Delta":145232915},{"NoteNumber":48,"Velocity":28,"Duration":1243523,"SoundDuration":1243523,"Delta":145232915},{"NoteNumber":44,"Velocity":28,"Duration":1243523,"SoundDuration":1243523,"Delta":145232915},{"NoteNumber":75,"Velocity":56,"Duration":593706,"SoundDuration":593706,"Delta":146476439},{"NoteNumber":51,"Velocity":27,"Duration":593706,"SoundDuration":593706,"Delta":146476439},{"NoteNumber":75,"Velocity":34,"Duration":590796,"SoundDuration":590796,"Delta":147076364},{"NoteNumber":80,"Velocity":54,"Duration":590796,"SoundDuration":590796,"Delta":147076364},{"NoteNumber":72,"Velocity":34,"Duration":590796,"SoundDuration":590796,"Delta":147076364},{"NoteNumber":44,"Velocity":27,"Duration":1687925,"SoundDuration":1687925,"Delta":147076364},{"NoteNumber":51,"Velocity":27,"Duration":590796,"SoundDuration":590796,"Delta":147076364},{"NoteNumber":72,"Velocity":34,"Duration":1090910,"SoundDuration":1090910,"Delta":147673379},{"NoteNumber":75,"Velocity":34,"Duration":1090910,"SoundDuration":1090910,"Delta":147673379},{"NoteNumber":80,"Velocity":57,"Duration":818182,"SoundDuration":818182,"Delta":147673379},{"NoteNumber":51,"Velocity":27,"Duration":1090910,"SoundDuration":1090910,"Delta":147673379},{"NoteNumber":82,"Velocity":52,"Duration":272727,"SoundDuration":272727,"Delta":148491562},{"NoteNumber":75,"Velocity":34,"Duration":564664,"SoundDuration":564664,"Delta":148764289},{"NoteNumber":73,"Velocity":34,"Duration":564664,"SoundDuration":564664,"Delta":148764289},{"NoteNumber":80,"Velocity":57,"Duration":564664,"SoundDuration":564664,"Delta":148764289},{"NoteNumber":46,"Velocity":27,"Duration":1661256,"SoundDuration":1661256,"Delta":148764289},{"NoteNumber":51,"Velocity":27,"Duration":564664,"SoundDuration":564664,"Delta":148764289},{"NoteNumber":73,"Velocity":34,"Duration":1090910,"SoundDuration":1090910,"Delta":149334636},{"NoteNumber":79,"Velocity":57,"Duration":818182,"SoundDuration":818182,"Delta":149334636},{"NoteNumber":75,"Velocity":34,"Duration":1090910,"SoundDuration":1090910,"Delta":149334636},{"NoteNumber":51,"Velocity":27,"Duration":1090910,"SoundDuration":1090910,"Delta":149334636},{"NoteNumber":82,"Velocity":57,"Duration":270454,"SoundDuration":270454,"Delta":150152818},{"NoteNumber":82,"Velocity":57,"Duration":539773,"SoundDuration":539773,"Delta":150425546},{"NoteNumber":48,"Velocity":27,"Duration":1091696,"SoundDuration":1091696,"Delta":150425546},{"NoteNumber":51,"Velocity":27,"Duration":539773,"SoundDuration":539773,"Delta":150425546},{"NoteNumber":75,"Velocity":35,"Duration":540232,"SoundDuration":540232,"Delta":150971001},{"NoteNumber":80,"Velocity":59,"Duration":540232,"SoundDuration":540232,"Delta":150971001},{"NoteNumber":51,"Velocity":28,"Duration":540232,"SoundDuration":540232,"Delta":150971001},{"NoteNumber":75,"Velocity":37,"Duration":568182,"SoundDuration":568182,"Delta":151517242},{"NoteNumber":73,"Velocity":37,"Duration":568182,"SoundDuration":568182,"Delta":151517242},{"NoteNumber":82,"Velocity":62,"Duration":568182,"SoundDuration":568182,"Delta":151517242},{"NoteNumber":43,"Velocity":29,"Duration":568182,"SoundDuration":568182,"Delta":151517242},{"NoteNumber":51,"Velocity":29,"Duration":568182,"SoundDuration":568182,"Delta":151517242},{"NoteNumber":84,"Velocity":66,"Duration":1101313,"SoundDuration":1101313,"Delta":152091405},{"NoteNumber":75,"Velocity":40,"Duration":1101313,"SoundDuration":1101313,"Delta":152091405},{"NoteNumber":72,"Velocity":40,"Duration":1101313,"SoundDuration":1101313,"Delta":152091405},{"NoteNumber":44,"Velocity":32,"Duration":1101313,"SoundDuration":1101313,"Delta":152091405},{"NoteNumber":51,"Velocity":32,"Duration":1101313,"SoundDuration":1101313,"Delta":152091405},{"NoteNumber":75,"Velocity":72,"Duration":593750,"SoundDuration":593750,"Delta":153192719},{"NoteNumber":51,"Velocity":37,"Duration":593750,"SoundDuration":593750,"Delta":153192719},{"NoteNumber":72,"Velocity":53,"Duration":590796,"SoundDuration":590796,"Delta":153792719},{"NoteNumber":75,"Velocity":53,"Duration":590796,"SoundDuration":590796,"Delta":153792719},{"NoteNumber":84,"Velocity":72,"Duration":590796,"SoundDuration":590796,"Delta":153792719},{"NoteNumber":51,"Velocity":36,"Duration":590796,"SoundDuration":590796,"Delta":153792719},{"NoteNumber":42,"Velocity":36,"Duration":1687925,"SoundDuration":1687925,"Delta":153792719},{"NoteNumber":84,"Velocity":72,"Duration":818182,"SoundDuration":818182,"Delta":154389734},{"NoteNumber":75,"Velocity":53,"Duration":818182,"SoundDuration":818182,"Delta":154389734},{"NoteNumber":72,"Velocity":53,"Duration":818182,"SoundDuration":818182,"Delta":154389734},{"NoteNumber":51,"Velocity":37,"Duration":1090910,"SoundDuration":1090910,"Delta":154389734},{"NoteNumber":70,"Velocity":51,"Duration":270454,"SoundDuration":270454,"Delta":155207916},{"NoteNumber":73,"Velocity":51,"Duration":270454,"SoundDuration":270454,"Delta":155207916},{"NoteNumber":82,"Velocity":70,"Duration":270454,"SoundDuration":270454,"Delta":155207916},{"NoteNumber":82,"Velocity":75,"Duration":564664,"SoundDuration":564664,"Delta":155480644},{"NoteNumber":73,"Velocity":56,"Duration":564664,"SoundDuration":564664,"Delta":155480644},{"NoteNumber":70,"Velocity":56,"Duration":564664,"SoundDuration":564664,"Delta":155480644},{"NoteNumber":41,"Velocity":37,"Duration":1388529,"SoundDuration":1388529,"Delta":155480644},{"NoteNumber":51,"Velocity":37,"Duration":564664,"SoundDuration":564664,"Delta":155480644},{"NoteNumber":72,"Velocity":53,"Duration":818182,"SoundDuration":818182,"Delta":156050990},{"NoteNumber":81,"Velocity":71,"Duration":818182,"SoundDuration":818182,"Delta":156050990},{"NoteNumber":69,"Velocity":53,"Duration":818182,"SoundDuration":818182,"Delta":156050990},{"NoteNumber":51,"Velocity":35,"Duration":818182,"SoundDuration":818182,"Delta":156050990},{"NoteNumber":73,"Velocity":50,"Duration":270506,"SoundDuration":270506,"Delta":156869173},{"NoteNumber":70,"Velocity":50,"Duration":270506,"SoundDuration":270506,"Delta":156869173},{"NoteNumber":82,"Velocity":68,"Duration":270506,"SoundDuration":270506,"Delta":156869173},{"NoteNumber":40,"Velocity":36,"Duration":270506,"SoundDuration":270506,"Delta":156869173},{"NoteNumber":49,"Velocity":36,"Duration":270506,"SoundDuration":270506,"Delta":156869173},{"NoteNumber":82,"Velocity":71,"Duration":559100,"SoundDuration":559100,"Delta":157141963},{"NoteNumber":70,"Velocity":53,"Duration":559100,"SoundDuration":559100,"Delta":157141963},{"NoteNumber":73,"Velocity":53,"Duration":559100,"SoundDuration":559100,"Delta":157141963},{"NoteNumber":49,"Velocity":35,"Duration":559100,"SoundDuration":559100,"Delta":157141963},{"NoteNumber":40,"Velocity":35,"Duration":559100,"SoundDuration":559100,"Delta":157141963},{"NoteNumber":80,"Velocity":59,"Duration":585529,"SoundDuration":585529,"Delta":157701063},{"NoteNumber":68,"Velocity":43,"Duration":585529,"SoundDuration":585529,"Delta":157701063},{"NoteNumber":72,"Velocity":43,"Duration":585529,"SoundDuration":585529,"Delta":157701063},{"NoteNumber":51,"Velocity":29,"Duration":585529,"SoundDuration":585529,"Delta":157701063},{"NoteNumber":39,"Velocity":28,"Duration":585529,"SoundDuration":585529,"Delta":157701063},{"NoteNumber":70,"Velocity":45,"Duration":551735,"SoundDuration":551735,"Delta":158286592},{"NoteNumber":79,"Velocity":60,"Duration":551735,"SoundDuration":551735,"Delta":158286592},{"NoteNumber":67,"Velocity":45,"Duration":551735,"SoundDuration":551735,"Delta":158286592},{"NoteNumber":51,"Velocity":30,"Duration":551735,"SoundDuration":551735,"Delta":158286592},{"NoteNumber":49,"Velocity":30,"Duration":551735,"SoundDuration":551735,"Delta":158286592},{"NoteNumber":39,"Velocity":30,"Duration":551735,"SoundDuration":551735,"Delta":158286592},{"NoteNumber":72,"Velocity":44,"Duration":1249999,"SoundDuration":1249999,"Delta":158900827},{"NoteNumber":80,"Velocity":60,"Duration":1249999,"SoundDuration":1249999,"Delta":158900827},{"NoteNumber":68,"Velocity":44,"Duration":1249999,"SoundDuration":1249999,"Delta":158900827},{"NoteNumber":48,"Velocity":29,"Duration":1249999,"SoundDuration":1249999,"Delta":158900827},{"NoteNumber":51,"Velocity":29,"Duration":1249999,"SoundDuration":1249999,"Delta":158900827},{"NoteNumber":44,"Velocity":29,"Duration":1249999,"SoundDuration":1249999,"Delta":158900827},{"NoteNumber":56,"Velocity":52,"Duration":593999,"SoundDuration":593999,"Delta":160150827},{"NoteNumber":44,"Velocity":51,"Duration":593999,"SoundDuration":593999,"Delta":160150827},{"NoteNumber":53,"Velocity":52,"Duration":159904,"SoundDuration":159904,"Delta":160744827},{"NoteNumber":37,"Velocity":51,"Duration":1419290,"SoundDuration":1419290,"Delta":160744827},{"NoteNumber":56,"Velocity":52,"Duration":159267,"SoundDuration":159267,"Delta":160904732},{"NoteNumber":61,"Velocity":47,"Duration":158428,"SoundDuration":158428,"Delta":161064000},{"NoteNumber":65,"Velocity":59,"Duration":157803,"SoundDuration":157803,"Delta":161222428},{"NoteNumber":44,"Velocity":60,"Duration":1403227,"SoundDuration":1403227,"Delta":161222428},{"NoteNumber":61,"Velocity":52,"Duration":157183,"SoundDuration":157183,"Delta":161380231},{"NoteNumber":56,"Velocity":48,"Duration":156364,"SoundDuration":156364,"Delta":161537414},{"NoteNumber":53,"Velocity":52,"Duration":155665,"SoundDuration":155665,"Delta":161693779},{"NoteNumber":56,"Velocity":50,"Duration":156570,"SoundDuration":156570,"Delta":161849444},{"NoteNumber":61,"Velocity":50,"Duration":158102,"SoundDuration":158102,"Delta":162006015},{"NoteNumber":56,"Velocity":52,"Duration":153845,"SoundDuration":153845,"Delta":162164118},{"NoteNumber":41,"Velocity":51,"Duration":1384613,"SoundDuration":1384613,"Delta":162164118},{"NoteNumber":61,"Velocity":50,"Duration":153846,"SoundDuration":153846,"Delta":162317964},{"NoteNumber":65,"Velocity":50,"Duration":153845,"SoundDuration":153845,"Delta":162471810},{"NoteNumber":68,"Velocity":61,"Duration":153846,"SoundDuration":153846,"Delta":162625656},{"NoteNumber":44,"Velocity":61,"Duration":1384613,"SoundDuration":1384613,"Delta":162625656},{"NoteNumber":65,"Velocity":52,"Duration":153845,"SoundDuration":153845,"Delta":162779502},{"NoteNumber":61,"Velocity":49,"Duration":153846,"SoundDuration":153846,"Delta":162933348},{"NoteNumber":56,"Velocity":52,"Duration":153845,"SoundDuration":153845,"Delta":163087194},{"NoteNumber":61,"Velocity":50,"Duration":153846,"SoundDuration":153846,"Delta":163241040},{"NoteNumber":65,"Velocity":50,"Duration":153845,"SoundDuration":153845,"Delta":163394886},{"NoteNumber":62,"Velocity":52,"Duration":153845,"SoundDuration":153845,"Delta":163548732},{"NoteNumber":36,"Velocity":52,"Duration":1370642,"SoundDuration":1370642,"Delta":163548732},{"NoteNumber":65,"Velocity":49,"Duration":153846,"SoundDuration":153846,"Delta":163702578},{"NoteNumber":68,"Velocity":49,"Duration":153845,"SoundDuration":153845,"Delta":163856424},{"NoteNumber":63,"Velocity":52,"Duration":150943,"SoundDuration":150943,"Delta":164010270},{"NoteNumber":44,"Velocity":59,"Duration":1365378,"SoundDuration":1365378,"Delta":164010270},{"NoteNumber":66,"Velocity":52,"Duration":150943,"SoundDuration":150943,"Delta":164161213},{"NoteNumber":68,"Velocity":52,"Duration":150943,"SoundDuration":150943,"Delta":164312156},{"NoteNumber":63,"Velocity":54,"Duration":152091,"SoundDuration":152091,"Delta":164463100},{"NoteNumber":66,"Velocity":57,"Duration":152091,"SoundDuration":152091,"Delta":164615191},{"NoteNumber":69,"Velocity":57,"Duration":152091,"SoundDuration":152091,"Delta":164767282},{"NoteNumber":60,"Velocity":63,"Duration":152091,"SoundDuration":152091,"Delta":164919374},{"NoteNumber":32,"Velocity":52,"Duration":1392547,"SoundDuration":1392547,"Delta":164919374},{"NoteNumber":66,"Velocity":58,"Duration":152091,"SoundDuration":152091,"Delta":165071465},{"NoteNumber":70,"Velocity":55,"Duration":152091,"SoundDuration":152091,"Delta":165223556},{"NoteNumber":60,"Velocity":52,"Duration":152091,"SoundDuration":152091,"Delta":165375648},{"NoteNumber":44,"Velocity":59,"Duration":1396043,"SoundDuration":1396043,"Delta":165375648},{"NoteNumber":65,"Velocity":49,"Duration":152091,"SoundDuration":152091,"Delta":165527739},{"NoteNumber":68,"Velocity":50,"Duration":152091,"SoundDuration":152091,"Delta":165679830},{"NoteNumber":60,"Velocity":52,"Duration":159999,"SoundDuration":159999,"Delta":165831922},{"NoteNumber":63,"Velocity":49,"Duration":159999,"SoundDuration":159999,"Delta":165991922},{"NoteNumber":66,"Velocity":49,"Duration":159999,"SoundDuration":159999,"Delta":166151922},{"NoteNumber":65,"Velocity":52,"Duration":153256,"SoundDuration":153256,"Delta":166311922},{"NoteNumber":37,"Velocity":51,"Duration":1379310,"SoundDuration":1379310,"Delta":166311922},{"NoteNumber":68,"Velocity":49,"Duration":153256,"SoundDuration":153256,"Delta":166465178},{"NoteNumber":73,"Velocity":49,"Duration":153256,"SoundDuration":153256,"Delta":166618435},{"NoteNumber":77,"Velocity":59,"Duration":153256,"SoundDuration":153256,"Delta":166771692},{"NoteNumber":44,"Velocity":60,"Duration":1379310,"SoundDuration":1379310,"Delta":166771692},{"NoteNumber":73,"Velocity":50,"Duration":153256,"SoundDuration":153256,"Delta":166924948},{"NoteNumber":68,"Velocity":52,"Duration":153256,"SoundDuration":153256,"Delta":167078205},{"NoteNumber":65,"Velocity":52,"Duration":153256,"SoundDuration":153256,"Delta":167231462},{"NoteNumber":68,"Velocity":50,"Duration":153256,"SoundDuration":153256,"Delta":167384718},{"NoteNumber":73,"Velocity":50,"Duration":153256,"SoundDuration":153256,"Delta":167537975},{"NoteNumber":68,"Velocity":52,"Duration":153256,"SoundDuration":153256,"Delta":167691232},{"NoteNumber":41,"Velocity":51,"Duration":1379310,"SoundDuration":1379310,"Delta":167691232},{"NoteNumber":73,"Velocity":49,"Duration":153256,"SoundDuration":153256,"Delta":167844488},{"NoteNumber":77,"Velocity":49,"Duration":153256,"SoundDuration":153256,"Delta":167997745},{"NoteNumber":80,"Velocity":59,"Duration":153256,"SoundDuration":153256,"Delta":168151002},{"NoteNumber":44,"Velocity":61,"Duration":1379310,"SoundDuration":1379310,"Delta":168151002},{"NoteNumber":77,"Velocity":50,"Duration":153256,"SoundDuration":153256,"Delta":168304258},{"NoteNumber":73,"Velocity":50,"Duration":153256,"SoundDuration":153256,"Delta":168457515},{"NoteNumber":68,"Velocity":52,"Duration":153256,"SoundDuration":153256,"Delta":168610772},{"NoteNumber":73,"Velocity":49,"Duration":153256,"SoundDuration":153256,"Delta":168764028},{"NoteNumber":77,"Velocity":49,"Duration":153256,"SoundDuration":153256,"Delta":168917285},{"NoteNumber":74,"Velocity":52,"Duration":153256,"SoundDuration":153256,"Delta":169070542},{"NoteNumber":36,"Velocity":52,"Duration":1362025,"SoundDuration":1362025,"Delta":169070542},{"NoteNumber":77,"Velocity":50,"Duration":153256,"SoundDuration":153256,"Delta":169223798},{"NoteNumber":80,"Velocity":50,"Duration":153256,"SoundDuration":153256,"Delta":169377055},{"NoteNumber":75,"Velocity":52,"Duration":150375,"SoundDuration":150375,"Delta":169530312},{"NoteNumber":44,"Velocity":59,"Duration":1353384,"SoundDuration":1353384,"Delta":169530312},{"NoteNumber":78,"Velocity":49,"Duration":150375,"SoundDuration":150375,"Delta":169680688},{"NoteNumber":80,"Velocity":49,"Duration":150376,"SoundDuration":150376,"Delta":169831064},{"NoteNumber":75,"Velocity":54,"Duration":150375,"SoundDuration":150375,"Delta":169981440},{"NoteNumber":78,"Velocity":57,"Duration":150375,"SoundDuration":150375,"Delta":170131816},{"NoteNumber":81,"Velocity":59,"Duration":150375,"SoundDuration":150375,"Delta":170282192},{"NoteNumber":72,"Velocity":63,"Duration":150375,"SoundDuration":150375,"Delta":170432568},{"NoteNumber":32,"Velocity":52,"Duration":1370668,"SoundDuration":1370668,"Delta":170432568},{"NoteNumber":78,"Velocity":58,"Duration":150376,"SoundDuration":150376,"Delta":170582944},{"NoteNumber":82,"Velocity":55,"Duration":150375,"SoundDuration":150375,"Delta":170733320},{"NoteNumber":72,"Velocity":52,"Duration":153256,"SoundDuration":153256,"Delta":170883696},{"NoteNumber":44,"Velocity":59,"Duration":919540,"SoundDuration":919540,"Delta":170883696},{"NoteNumber":77,"Velocity":50,"Duration":153256,"SoundDuration":153256,"Delta":171036952},{"NoteNumber":80,"Velocity":50,"Duration":153256,"SoundDuration":153256,"Delta":171190209},{"NoteNumber":72,"Velocity":52,"Duration":153256,"SoundDuration":153256,"Delta":171343466},{"NoteNumber":75,"Velocity":49,"Duration":153256,"SoundDuration":153256,"Delta":171496722},{"NoteNumber":78,"Velocity":49,"Duration":153256,"SoundDuration":153256,"Delta":171649979},{"NoteNumber":72,"Velocity":51,"Duration":153256,"SoundDuration":153256,"Delta":171803236},{"NoteNumber":34,"Velocity":51,"Duration":1384655,"SoundDuration":1384655,"Delta":171803236},{"NoteNumber":75,"Velocity":48,"Duration":153256,"SoundDuration":153256,"Delta":171956492},{"NoteNumber":77,"Velocity":50,"Duration":153256,"SoundDuration":153256,"Delta":172109749},{"NoteNumber":70,"Velocity":49,"Duration":153256,"SoundDuration":153256,"Delta":172263006},{"NoteNumber":46,"Velocity":49,"Duration":924885,"SoundDuration":924885,"Delta":172263006},{"NoteNumber":73,"Velocity":44,"Duration":153256,"SoundDuration":153256,"Delta":172416262},{"NoteNumber":77,"Velocity":44,"Duration":153256,"SoundDuration":153256,"Delta":172569519},{"NoteNumber":68,"Velocity":46,"Duration":155038,"SoundDuration":155038,"Delta":172722776},{"NoteNumber":72,"Velocity":43,"Duration":155038,"SoundDuration":155038,"Delta":172877814},{"NoteNumber":77,"Velocity":43,"Duration":155038,"SoundDuration":155038,"Delta":173032853},{"NoteNumber":68,"Velocity":44,"Duration":152671,"SoundDuration":152671,"Delta":173187892},{"NoteNumber":39,"Velocity":44,"Duration":916030,"SoundDuration":916030,"Delta":173187892},{"NoteNumber":70,"Velocity":40,"Duration":152671,"SoundDuration":152671,"Delta":173340563},{"NoteNumber":77,"Velocity":41,"Duration":152671,"SoundDuration":152671,"Delta":173493235},{"NoteNumber":66,"Velocity":41,"Duration":152671,"SoundDuration":152671,"Delta":173645907},{"NoteNumber":51,"Velocity":41,"Duration":458015,"SoundDuration":458015,"Delta":173645907},{"NoteNumber":70,"Velocity":38,"Duration":152671,"SoundDuration":152671,"Delta":173798578},{"NoteNumber":75,"Velocity":38,"Duration":152671,"SoundDuration":152671,"Delta":173951250},{"NoteNumber":65,"Velocity":39,"Duration":152671,"SoundDuration":152671,"Delta":174103922},{"NoteNumber":54,"Velocity":39,"Duration":458014,"SoundDuration":458014,"Delta":174103922},{"NoteNumber":42,"Velocity":39,"Duration":458014,"SoundDuration":458014,"Delta":174103922},{"NoteNumber":70,"Velocity":34,"Duration":152671,"SoundDuration":152671,"Delta":174256593},{"NoteNumber":73,"Velocity":34,"Duration":152671,"SoundDuration":152671,"Delta":174409265},{"NoteNumber":63,"Velocity":36,"Duration":152671,"SoundDuration":152671,"Delta":174561937},{"NoteNumber":44,"Velocity":36,"Duration":1386479,"SoundDuration":1386479,"Delta":174561937},{"NoteNumber":68,"Velocity":35,"Duration":152671,"SoundDuration":152671,"Delta":174714608},{"NoteNumber":72,"Velocity":34,"Duration":152671,"SoundDuration":152671,"Delta":174867280},{"NoteNumber":65,"Velocity":34,"Duration":153845,"SoundDuration":153845,"Delta":175019952},{"NoteNumber":56,"Velocity":34,"Duration":1862315,"SoundDuration":1862315,"Delta":175019952},{"NoteNumber":68,"Velocity":33,"Duration":153846,"SoundDuration":153846,"Delta":175173798},{"NoteNumber":73,"Velocity":33,"Duration":153845,"SoundDuration":153845,"Delta":175327644},{"NoteNumber":66,"Velocity":34,"Duration":155642,"SoundDuration":155642,"Delta":175481490},{"NoteNumber":68,"Velocity":34,"Duration":155642,"SoundDuration":155642,"Delta":175637132},{"NoteNumber":75,"Velocity":34,"Duration":155642,"SoundDuration":155642,"Delta":175792774},{"NoteNumber":65,"Velocity":34,"Duration":155642,"SoundDuration":155642,"Delta":175948416},{"NoteNumber":49,"Velocity":34,"Duration":933852,"SoundDuration":933852,"Delta":175948416},{"NoteNumber":68,"Velocity":33,"Duration":155642,"SoundDuration":155642,"Delta":176104058},{"NoteNumber":73,"Velocity":33,"Duration":155642,"SoundDuration":155642,"Delta":176259700},{"NoteNumber":68,"Velocity":34,"Duration":155642,"SoundDuration":155642,"Delta":176415342},{"NoteNumber":65,"Velocity":31,"Duration":155642,"SoundDuration":155642,"Delta":176570984},{"NoteNumber":61,"Velocity":31,"Duration":155642,"SoundDuration":155642,"Delta":176726626},{"NoteNumber":65,"Velocity":34,"Duration":160642,"SoundDuration":160642,"Delta":176882268},{"NoteNumber":61,"Velocity":32,"Duration":160642,"SoundDuration":160642,"Delta":177042910},{"NoteNumber":56,"Velocity":32,"Duration":160642,"SoundDuration":160642,"Delta":177203553},{"NoteNumber":53,"Velocity":52,"Duration":154439,"SoundDuration":154439,"Delta":177364196},{"NoteNumber":37,"Velocity":51,"Duration":1389960,"SoundDuration":1389960,"Delta":177364196},{"NoteNumber":56,"Velocity":51,"Duration":154439,"SoundDuration":154439,"Delta":177518636},{"NoteNumber":61,"Velocity":51,"Duration":154440,"SoundDuration":154440,"Delta":177673076},{"NoteNumber":65,"Velocity":59,"Duration":154439,"SoundDuration":154439,"Delta":177827516},{"NoteNumber":44,"Velocity":60,"Duration":1389960,"SoundDuration":1389960,"Delta":177827516},{"NoteNumber":61,"Velocity":50,"Duration":154439,"SoundDuration":154439,"Delta":177981956},{"NoteNumber":56,"Velocity":50,"Duration":154439,"SoundDuration":154439,"Delta":178136396},{"NoteNumber":53,"Velocity":52,"Duration":154439,"SoundDuration":154439,"Delta":178290836},{"NoteNumber":56,"Velocity":49,"Duration":154440,"SoundDuration":154440,"Delta":178445276},{"NoteNumber":61,"Velocity":49,"Duration":154439,"SoundDuration":154439,"Delta":178599716},{"NoteNumber":56,"Velocity":52,"Duration":154439,"SoundDuration":154439,"Delta":178754156},{"NoteNumber":41,"Velocity":51,"Duration":1398300,"SoundDuration":1398300,"Delta":178754156},{"NoteNumber":61,"Velocity":49,"Duration":154439,"SoundDuration":154439,"Delta":178908596},{"NoteNumber":65,"Velocity":49,"Duration":154440,"SoundDuration":154440,"Delta":179063036},{"NoteNumber":68,"Velocity":61,"Duration":154439,"SoundDuration":154439,"Delta":179217476},{"NoteNumber":44,"Velocity":61,"Duration":1398300,"SoundDuration":1398300,"Delta":179217476},{"NoteNumber":65,"Velocity":49,"Duration":154439,"SoundDuration":154439,"Delta":179371916},{"NoteNumber":61,"Velocity":49,"Duration":154439,"SoundDuration":154439,"Delta":179526356},{"NoteNumber":56,"Velocity":52,"Duration":154439,"SoundDuration":154439,"Delta":179680796},{"NoteNumber":61,"Velocity":48,"Duration":157220,"SoundDuration":157220,"Delta":179835236},{"NoteNumber":65,"Velocity":48,"Duration":159999,"SoundDuration":159999,"Delta":179992456},{"NoteNumber":62,"Velocity":52,"Duration":154439,"SoundDuration":154439,"Delta":180152456},{"NoteNumber":36,"Velocity":52,"Duration":1379350,"SoundDuration":1379350,"Delta":180152456},{"NoteNumber":65,"Velocity":48,"Duration":154439,"SoundDuration":154439,"Delta":180306896},{"NoteNumber":68,"Velocity":48,"Duration":154440,"SoundDuration":154440,"Delta":180461336},{"NoteNumber":63,"Velocity":52,"Duration":152671,"SoundDuration":152671,"Delta":180615776},{"NoteNumber":44,"Velocity":59,"Duration":1374044,"SoundDuration":1374044,"Delta":180615776},{"NoteNumber":66,"Velocity":49,"Duration":152671,"SoundDuration":152671,"Delta":180768447},{"NoteNumber":68,"Velocity":50,"Duration":152671,"SoundDuration":152671,"Delta":180921119},{"NoteNumber":63,"Velocity":54,"Duration":152671,"SoundDuration":152671,"Delta":181073791},{"NoteNumber":66,"Velocity":57,"Duration":152671,"SoundDuration":152671,"Delta":181226462},{"NoteNumber":69,"Velocity":56,"Duration":152671,"SoundDuration":152671,"Delta":181379134},{"NoteNumber":60,"Velocity":63,"Duration":152671,"SoundDuration":152671,"Delta":181531806},{"NoteNumber":32,"Velocity":52,"Duration":1392220,"SoundDuration":1392220,"Delta":181531806},{"NoteNumber":66,"Velocity":58,"Duration":152671,"SoundDuration":152671,"Delta":181684477},{"NoteNumber":70,"Velocity":55,"Duration":152671,"SoundDuration":152671,"Delta":181837149},{"NoteNumber":60,"Velocity":52,"Duration":152671,"SoundDuration":152671,"Delta":181989821},{"NoteNumber":44,"Velocity":59,"Duration":1395743,"SoundDuration":1395743,"Delta":181989821},{"NoteNumber":65,"Velocity":49,"Duration":152671,"SoundDuration":152671,"Delta":182142492},{"NoteNumber":68,"Velocity":49,"Duration":152671,"SoundDuration":152671,"Delta":182295164},{"NoteNumber":60,"Velocity":52,"Duration":158729,"SoundDuration":158729,"Delta":182447836},{"NoteNumber":63,"Velocity":50,"Duration":158730,"SoundDuration":158730,"Delta":182606566},{"NoteNumber":66,"Velocity":50,"Duration":158729,"SoundDuration":158729,"Delta":182765296},{"NoteNumber":65,"Velocity":52,"Duration":153845,"SoundDuration":153845,"Delta":182924026},{"NoteNumber":37,"Velocity":51,"Duration":1384613,"SoundDuration":1384613,"Delta":182924026},{"NoteNumber":68,"Velocity":50,"Duration":153846,"SoundDuration":153846,"Delta":183077872},{"NoteNumber":73,"Velocity":50,"Duration":153845,"SoundDuration":153845,"Delta":183231718},{"NoteNumber":77,"Velocity":59,"Duration":153846,"SoundDuration":153846,"Delta":183385564},{"NoteNumber":44,"Velocity":60,"Duration":1384613,"SoundDuration":1384613,"Delta":183385564},{"NoteNumber":73,"Velocity":49,"Duration":153845,"SoundDuration":153845,"Delta":183539410},{"NoteNumber":68,"Velocity":49,"Duration":153846,"SoundDuration":153846,"Delta":183693256},{"NoteNumber":65,"Velocity":52,"Duration":153845,"SoundDuration":153845,"Delta":183847102},{"NoteNumber":68,"Velocity":49,"Duration":153846,"SoundDuration":153846,"Delta":184000948},{"NoteNumber":73,"Velocity":49,"Duration":153845,"SoundDuration":153845,"Delta":184154794},{"NoteNumber":68,"Velocity":52,"Duration":153845,"SoundDuration":153845,"Delta":184308640},{"NoteNumber":41,"Velocity":51,"Duration":1384613,"SoundDuration":1384613,"Delta":184308640},{"NoteNumber":73,"Velocity":49,"Duration":153846,"SoundDuration":153846,"Delta":184462486},{"NoteNumber":77,"Velocity":49,"Duration":153845,"SoundDuration":153845,"Delta":184616332},{"NoteNumber":80,"Velocity":61,"Duration":153846,"SoundDuration":153846,"Delta":184770178},{"NoteNumber":44,"Velocity":61,"Duration":1384613,"SoundDuration":1384613,"Delta":184770178},{"NoteNumber":77,"Velocity":49,"Duration":153845,"SoundDuration":153845,"Delta":184924024},{"NoteNumber":73,"Velocity":49,"Duration":153846,"SoundDuration":153846,"Delta":185077870},{"NoteNumber":68,"Velocity":52,"Duration":153845,"SoundDuration":153845,"Delta":185231716},{"NoteNumber":73,"Velocity":49,"Duration":153846,"SoundDuration":153846,"Delta":185385562},{"NoteNumber":77,"Velocity":49,"Duration":153845,"SoundDuration":153845,"Delta":185539408},{"NoteNumber":74,"Velocity":52,"Duration":153845,"SoundDuration":153845,"Delta":185693254},{"NoteNumber":36,"Velocity":52,"Duration":1377567,"SoundDuration":1377567,"Delta":185693254},{"NoteNumber":77,"Velocity":50,"Duration":153846,"SoundDuration":153846,"Delta":185847100},{"NoteNumber":80,"Velocity":50,"Duration":153845,"SoundDuration":153845,"Delta":186000946},{"NoteNumber":75,"Velocity":52,"Duration":152671,"SoundDuration":152671,"Delta":186154792},{"NoteNumber":44,"Velocity":59,"Duration":1372739,"SoundDuration":1372739,"Delta":186154792},{"NoteNumber":78,"Velocity":49,"Duration":152671,"SoundDuration":152671,"Delta":186307463},{"NoteNumber":80,"Velocity":49,"Duration":152671,"SoundDuration":152671,"Delta":186460135},{"NoteNumber":75,"Velocity":54,"Duration":152671,"SoundDuration":152671,"Delta":186612807},{"NoteNumber":78,"Velocity":57,"Duration":152671,"SoundDuration":152671,"Delta":186765478},{"NoteNumber":81,"Velocity":56,"Duration":152671,"SoundDuration":152671,"Delta":186918150},{"NoteNumber":72,"Velocity":63,"Duration":152526,"SoundDuration":152526,"Delta":187070822},{"NoteNumber":32,"Velocity":52,"Duration":1378044,"SoundDuration":1378044,"Delta":187070822},{"NoteNumber":78,"Velocity":58,"Duration":152091,"SoundDuration":152091,"Delta":187223348},{"NoteNumber":82,"Velocity":55,"Duration":152091,"SoundDuration":152091,"Delta":187375440},{"NoteNumber":72,"Velocity":52,"Duration":152671,"SoundDuration":152671,"Delta":187527531},{"NoteNumber":44,"Velocity":59,"Duration":921334,"SoundDuration":921334,"Delta":187527531},{"NoteNumber":77,"Velocity":48,"Duration":152671,"SoundDuration":152671,"Delta":187680203},{"NoteNumber":80,"Velocity":48,"Duration":152671,"SoundDuration":152671,"Delta":187832874},{"NoteNumber":72,"Velocity":52,"Duration":154439,"SoundDuration":154439,"Delta":187985546},{"NoteNumber":75,"Velocity":48,"Duration":154439,"SoundDuration":154439,"Delta":188139986},{"NoteNumber":78,"Velocity":48,"Duration":154440,"SoundDuration":154440,"Delta":188294426},{"NoteNumber":72,"Velocity":51,"Duration":152091,"SoundDuration":152091,"Delta":188448866},{"NoteNumber":34,"Velocity":51,"Duration":1368821,"SoundDuration":1368821,"Delta":188448866},{"NoteNumber":75,"Velocity":46,"Duration":152091,"SoundDuration":152091,"Delta":188600957},{"NoteNumber":77,"Velocity":46,"Duration":152091,"SoundDuration":152091,"Delta":188753049},{"NoteNumber":70,"Velocity":49,"Duration":152091,"SoundDuration":152091,"Delta":188905140},{"NoteNumber":46,"Velocity":49,"Duration":912547,"SoundDuration":912547,"Delta":188905140},{"NoteNumber":73,"Velocity":45,"Duration":152091,"SoundDuration":152091,"Delta":189057231},{"NoteNumber":77,"Velocity":45,"Duration":152091,"SoundDuration":152091,"Delta":189209323},{"NoteNumber":68,"Velocity":46,"Duration":152091,"SoundDuration":152091,"Delta":189361414},{"NoteNumber":72,"Velocity":42,"Duration":152091,"SoundDuration":152091,"Delta":189513505},{"NoteNumber":77,"Velocity":42,"Duration":152091,"SoundDuration":152091,"Delta":189665597},{"NoteNumber":68,"Velocity":44,"Duration":152091,"SoundDuration":152091,"Delta":189817688},{"NoteNumber":39,"Velocity":44,"Duration":912548,"SoundDuration":912548,"Delta":189817688},{"NoteNumber":70,"Velocity":41,"Duration":152091,"SoundDuration":152091,"Delta":189969779},{"NoteNumber":77,"Velocity":41,"Duration":152091,"SoundDuration":152091,"Delta":190121871},{"NoteNumber":66,"Velocity":41,"Duration":152091,"SoundDuration":152091,"Delta":190273962},{"NoteNumber":51,"Velocity":41,"Duration":456274,"SoundDuration":456274,"Delta":190273962},{"NoteNumber":70,"Velocity":40,"Duration":152091,"SoundDuration":152091,"Delta":190426053},{"NoteNumber":75,"Velocity":38,"Duration":152091,"SoundDuration":152091,"Delta":190578145},{"NoteNumber":65,"Velocity":39,"Duration":152091,"SoundDuration":152091,"Delta":190730236},{"NoteNumber":42,"Velocity":39,"Duration":456273,"SoundDuration":456273,"Delta":190730236},{"NoteNumber":54,"Velocity":39,"Duration":456273,"SoundDuration":456273,"Delta":190730236},{"NoteNumber":70,"Velocity":35,"Duration":152091,"SoundDuration":152091,"Delta":190882327},{"NoteNumber":73,"Velocity":34,"Duration":152091,"SoundDuration":152091,"Delta":191034419},{"NoteNumber":63,"Velocity":36,"Duration":153845,"SoundDuration":153845,"Delta":191186510},{"NoteNumber":44,"Velocity":36,"Duration":1384613,"SoundDuration":1384613,"Delta":191186510},{"NoteNumber":68,"Velocity":34,"Duration":153846,"SoundDuration":153846,"Delta":191340356},{"NoteNumber":72,"Velocity":34,"Duration":153845,"SoundDuration":153845,"Delta":191494202},{"NoteNumber":65,"Velocity":34,"Duration":153846,"SoundDuration":153846,"Delta":191648048},{"NoteNumber":56,"Velocity":34,"Duration":1853363,"SoundDuration":1853363,"Delta":191648048},{"NoteNumber":68,"Velocity":32,"Duration":153845,"SoundDuration":153845,"Delta":191801894},{"NoteNumber":73,"Velocity":32,"Duration":153846,"SoundDuration":153846,"Delta":191955740},{"NoteNumber":66,"Velocity":34,"Duration":153845,"SoundDuration":153845,"Delta":192109586},{"NoteNumber":68,"Velocity":32,"Duration":153846,"SoundDuration":153846,"Delta":192263432},{"NoteNumber":75,"Velocity":32,"Duration":153845,"SoundDuration":153845,"Delta":192417278},{"NoteNumber":65,"Velocity":34,"Duration":153845,"SoundDuration":153845,"Delta":192571124},{"NoteNumber":49,"Velocity":34,"Duration":930287,"SoundDuration":930287,"Delta":192571124},{"NoteNumber":68,"Velocity":32,"Duration":153846,"SoundDuration":153846,"Delta":192724970},{"NoteNumber":73,"Velocity":32,"Duration":153845,"SoundDuration":153845,"Delta":192878816},{"NoteNumber":68,"Velocity":34,"Duration":156250,"SoundDuration":156250,"Delta":193032662},{"NoteNumber":65,"Velocity":31,"Duration":156250,"SoundDuration":156250,"Delta":193188912},{"NoteNumber":61,"Velocity":31,"Duration":156250,"SoundDuration":156250,"Delta":193345162},{"NoteNumber":65,"Velocity":34,"Duration":156250,"SoundDuration":156250,"Delta":193501412},{"NoteNumber":61,"Velocity":32,"Duration":156250,"SoundDuration":156250,"Delta":193657662},{"NoteNumber":56,"Velocity":32,"Duration":156250,"SoundDuration":156250,"Delta":193813912},{"NoteNumber":52,"Velocity":74,"Duration":153256,"SoundDuration":153256,"Delta":193970162},{"NoteNumber":37,"Velocity":73,"Duration":1379310,"SoundDuration":1379310,"Delta":193970162},{"NoteNumber":56,"Velocity":68,"Duration":153256,"SoundDuration":153256,"Delta":194123419},{"NoteNumber":61,"Velocity":68,"Duration":153256,"SoundDuration":153256,"Delta":194276675},{"NoteNumber":64,"Velocity":84,"Duration":153256,"SoundDuration":153256,"Delta":194429932},{"NoteNumber":44,"Velocity":85,"Duration":1379310,"SoundDuration":1379310,"Delta":194429932},{"NoteNumber":61,"Velocity":69,"Duration":153256,"SoundDuration":153256,"Delta":194583189},{"NoteNumber":56,"Velocity":69,"Duration":153256,"SoundDuration":153256,"Delta":194736445},{"NoteNumber":52,"Velocity":74,"Duration":153256,"SoundDuration":153256,"Delta":194889702},{"NoteNumber":56,"Velocity":70,"Duration":153256,"SoundDuration":153256,"Delta":195042959},{"NoteNumber":61,"Velocity":70,"Duration":153256,"SoundDuration":153256,"Delta":195196215},{"NoteNumber":56,"Velocity":74,"Duration":153256,"SoundDuration":153256,"Delta":195349472},{"NoteNumber":40,"Velocity":73,"Duration":1379310,"SoundDuration":1379310,"Delta":195349472},{"NoteNumber":61,"Velocity":68,"Duration":153256,"SoundDuration":153256,"Delta":195502729},{"NoteNumber":64,"Velocity":68,"Duration":153256,"SoundDuration":153256,"Delta":195655985},{"NoteNumber":68,"Velocity":85,"Duration":153256,"SoundDuration":153256,"Delta":195809242},{"NoteNumber":44,"Velocity":86,"Duration":1379310,"SoundDuration":1379310,"Delta":195809242},{"NoteNumber":64,"Velocity":68,"Duration":153256,"SoundDuration":153256,"Delta":195962499},{"NoteNumber":61,"Velocity":68,"Duration":153256,"SoundDuration":153256,"Delta":196115755},{"NoteNumber":56,"Velocity":74,"Duration":153256,"SoundDuration":153256,"Delta":196269012},{"NoteNumber":61,"Velocity":68,"Duration":153256,"SoundDuration":153256,"Delta":196422269},{"NoteNumber":64,"Velocity":68,"Duration":153256,"SoundDuration":153256,"Delta":196575525},{"NoteNumber":62,"Velocity":74,"Duration":153256,"SoundDuration":153256,"Delta":196728782},{"NoteNumber":36,"Velocity":74,"Duration":1365430,"SoundDuration":1365430,"Delta":196728782},{"NoteNumber":65,"Velocity":69,"Duration":153256,"SoundDuration":153256,"Delta":196882039},{"NoteNumber":68,"Velocity":69,"Duration":153256,"SoundDuration":153256,"Delta":197035295},{"NoteNumber":63,"Velocity":74,"Duration":150943,"SoundDuration":150943,"Delta":197188552},{"NoteNumber":44,"Velocity":84,"Duration":1358489,"SoundDuration":1358489,"Delta":197188552},{"NoteNumber":66,"Velocity":67,"Duration":150943,"SoundDuration":150943,"Delta":197339495},{"NoteNumber":68,"Velocity":69,"Duration":150943,"SoundDuration":150943,"Delta":197490439},{"NoteNumber":62,"Velocity":76,"Duration":150943,"SoundDuration":150943,"Delta":197641382},{"NoteNumber":65,"Velocity":78,"Duration":150943,"SoundDuration":150943,"Delta":197792325},{"NoteNumber":68,"Velocity":81,"Duration":150943,"SoundDuration":150943,"Delta":197943269},{"NoteNumber":63,"Velocity":90,"Duration":150943,"SoundDuration":150943,"Delta":198094212},{"NoteNumber":32,"Velocity":74,"Duration":1390844,"SoundDuration":1390844,"Delta":198094212},{"NoteNumber":66,"Velocity":82,"Duration":150943,"SoundDuration":150943,"Delta":198245155},{"NoteNumber":69,"Velocity":78,"Duration":150943,"SoundDuration":150943,"Delta":198396099},{"NoteNumber":60,"Velocity":74,"Duration":152671,"SoundDuration":152671,"Delta":198547042},{"NoteNumber":44,"Velocity":84,"Duration":1399552,"SoundDuration":1399552,"Delta":198547042},{"NoteNumber":64,"Velocity":70,"Duration":152671,"SoundDuration":152671,"Delta":198699714},{"NoteNumber":68,"Velocity":70,"Duration":152671,"SoundDuration":152671,"Delta":198852385},{"NoteNumber":60,"Velocity":74,"Duration":159999,"SoundDuration":159999,"Delta":199005057},{"NoteNumber":63,"Velocity":69,"Duration":159999,"SoundDuration":159999,"Delta":199165057},{"NoteNumber":66,"Velocity":69,"Duration":159999,"SoundDuration":159999,"Delta":199325057},{"NoteNumber":64,"Velocity":74,"Duration":153845,"SoundDuration":153845,"Delta":199485057},{"NoteNumber":37,"Velocity":73,"Duration":1391939,"SoundDuration":1391939,"Delta":199485057},{"NoteNumber":68,"Velocity":68,"Duration":153846,"SoundDuration":153846,"Delta":199638903},{"NoteNumber":73,"Velocity":69,"Duration":153845,"SoundDuration":153845,"Delta":199792749},{"NoteNumber":76,"Velocity":84,"Duration":153846,"SoundDuration":153846,"Delta":199946595},{"NoteNumber":44,"Velocity":85,"Duration":1390171,"SoundDuration":1390171,"Delta":199946595},{"NoteNumber":73,"Velocity":69,"Duration":153845,"SoundDuration":153845,"Delta":200100441},{"NoteNumber":68,"Velocity":69,"Duration":153846,"SoundDuration":153846,"Delta":200254287},{"NoteNumber":64,"Velocity":74,"Duration":153845,"SoundDuration":153845,"Delta":200408133},{"NoteNumber":68,"Velocity":69,"Duration":156287,"SoundDuration":156287,"Delta":200561979},{"NoteNumber":73,"Velocity":69,"Duration":158729,"SoundDuration":158729,"Delta":200718267},{"NoteNumber":68,"Velocity":74,"Duration":153256,"SoundDuration":153256,"Delta":200876997},{"NoteNumber":40,"Velocity":73,"Duration":1367815,"SoundDuration":1367815,"Delta":200876997},{"NoteNumber":73,"Velocity":68,"Duration":153256,"SoundDuration":153256,"Delta":201030254},{"NoteNumber":76,"Velocity":68,"Duration":153256,"SoundDuration":153256,"Delta":201183510},{"NoteNumber":80,"Velocity":83,"Duration":153256,"SoundDuration":153256,"Delta":201336767},{"NoteNumber":44,"Velocity":86,"Duration":1370029,"SoundDuration":1370029,"Delta":201336767},{"NoteNumber":76,"Velocity":70,"Duration":153256,"SoundDuration":153256,"Delta":201490024},{"NoteNumber":73,"Velocity":70,"Duration":153256,"SoundDuration":153256,"Delta":201643280},{"NoteNumber":68,"Velocity":74,"Duration":151979,"SoundDuration":151979,"Delta":201796537},{"NoteNumber":73,"Velocity":69,"Duration":148147,"SoundDuration":148147,"Delta":201948516},{"NoteNumber":76,"Velocity":69,"Duration":148148,"SoundDuration":148148,"Delta":202096664},{"NoteNumber":75,"Velocity":74,"Duration":154291,"SoundDuration":154291,"Delta":202244812},{"NoteNumber":32,"Velocity":74,"Duration":1374531,"SoundDuration":1374531,"Delta":202244812},{"NoteNumber":78,"Velocity":69,"Duration":153845,"SoundDuration":153845,"Delta":202399104},{"NoteNumber":80,"Velocity":69,"Duration":153846,"SoundDuration":153846,"Delta":202552950},{"NoteNumber":75,"Velocity":74,"Duration":152091,"SoundDuration":152091,"Delta":202706796},{"NoteNumber":44,"Velocity":84,"Duration":1368821,"SoundDuration":1368821,"Delta":202706796},{"NoteNumber":78,"Velocity":70,"Duration":152091,"SoundDuration":152091,"Delta":202858887},{"NoteNumber":82,"Velocity":70,"Duration":152091,"SoundDuration":152091,"Delta":203010979},{"NoteNumber":75,"Velocity":76,"Duration":152091,"SoundDuration":152091,"Delta":203163070},{"NoteNumber":78,"Velocity":81,"Duration":152091,"SoundDuration":152091,"Delta":203315161},{"NoteNumber":84,"Velocity":87,"Duration":152091,"SoundDuration":152091,"Delta":203467253},{"NoteNumber":73,"Velocity":87,"Duration":152091,"SoundDuration":152091,"Delta":203619344},{"NoteNumber":37,"Velocity":73,"Duration":1365363,"SoundDuration":1365363,"Delta":203619344},{"NoteNumber":76,"Velocity":82,"Duration":152091,"SoundDuration":152091,"Delta":203771435},{"NoteNumber":85,"Velocity":82,"Duration":152091,"SoundDuration":152091,"Delta":203923527},{"NoteNumber":75,"Velocity":87,"Duration":151514,"SoundDuration":151514,"Delta":204075618},{"NoteNumber":44,"Velocity":87,"Duration":909089,"SoundDuration":909089,"Delta":204075618},{"NoteNumber":78,"Velocity":83,"Duration":151515,"SoundDuration":151515,"Delta":204227133},{"NoteNumber":87,"Velocity":83,"Duration":151514,"SoundDuration":151514,"Delta":204378648},{"NoteNumber":76,"Velocity":87,"Duration":151515,"SoundDuration":151515,"Delta":204530163},{"NoteNumber":80,"Velocity":82,"Duration":151514,"SoundDuration":151514,"Delta":204681678},{"NoteNumber":88,"Velocity":82,"Duration":151514,"SoundDuration":151514,"Delta":204833193},{"NoteNumber":78,"Velocity":87,"Duration":151515,"SoundDuration":151515,"Delta":204984708},{"NoteNumber":30,"Velocity":87,"Duration":1363635,"SoundDuration":1363635,"Delta":204984708},{"NoteNumber":81,"Velocity":84,"Duration":151514,"SoundDuration":151514,"Delta":205136223},{"NoteNumber":90,"Velocity":85,"Duration":151514,"SoundDuration":151514,"Delta":205287738},{"NoteNumber":80,"Velocity":92,"Duration":151515,"SoundDuration":151515,"Delta":205439253},{"NoteNumber":42,"Velocity":92,"Duration":909090,"SoundDuration":909090,"Delta":205439253},{"NoteNumber":83,"Velocity":90,"Duration":151514,"SoundDuration":151514,"Delta":205590768},{"NoteNumber":92,"Velocity":90,"Duration":151515,"SoundDuration":151515,"Delta":205742283},{"NoteNumber":81,"Velocity":98,"Duration":151514,"SoundDuration":151514,"Delta":205893798},{"NoteNumber":85,"Velocity":90,"Duration":151514,"SoundDuration":151514,"Delta":206045313},{"NoteNumber":93,"Velocity":94,"Duration":151515,"SoundDuration":151515,"Delta":206196828},{"NoteNumber":80,"Velocity":103,"Duration":151514,"SoundDuration":151514,"Delta":206348343},{"NoteNumber":40,"Velocity":94,"Duration":1375406,"SoundDuration":1375406,"Delta":206348343},{"NoteNumber":88,"Velocity":97,"Duration":151515,"SoundDuration":151515,"Delta":206499858},{"NoteNumber":92,"Velocity":97,"Duration":151514,"SoundDuration":151514,"Delta":206651373},{"NoteNumber":81,"Velocity":105,"Duration":151515,"SoundDuration":151515,"Delta":206802888},{"NoteNumber":52,"Velocity":99,"Duration":920861,"SoundDuration":920861,"Delta":206802888},{"NoteNumber":90,"Velocity":96,"Duration":151514,"SoundDuration":151514,"Delta":206954403},{"NoteNumber":93,"Velocity":96,"Duration":151514,"SoundDuration":151514,"Delta":207105918},{"NoteNumber":83,"Velocity":109,"Duration":151515,"SoundDuration":151515,"Delta":207257433},{"NoteNumber":92,"Velocity":101,"Duration":155438,"SoundDuration":155438,"Delta":207408948},{"NoteNumber":95,"Velocity":101,"Duration":159362,"SoundDuration":159362,"Delta":207564387},{"NoteNumber":85,"Velocity":114,"Duration":150943,"SoundDuration":150943,"Delta":207723749},{"NoteNumber":45,"Velocity":102,"Duration":226415,"SoundDuration":226415,"Delta":207723749},{"NoteNumber":40,"Velocity":86,"Duration":226415,"SoundDuration":226415,"Delta":207723749},{"NoteNumber":33,"Velocity":86,"Duration":226415,"SoundDuration":226415,"Delta":207723749},{"NoteNumber":88,"Velocity":103,"Duration":150943,"SoundDuration":150943,"Delta":207874693},{"NoteNumber":93,"Velocity":102,"Duration":150095,"SoundDuration":150095,"Delta":208025636},{"NoteNumber":97,"Velocity":114,"Duration":149396,"SoundDuration":149396,"Delta":208175731},{"NoteNumber":33,"Velocity":90,"Duration":900472,"SoundDuration":900472,"Delta":208175731},{"NoteNumber":40,"Velocity":90,"Duration":900472,"SoundDuration":900472,"Delta":208175731},{"NoteNumber":45,"Velocity":107,"Duration":900472,"SoundDuration":900472,"Delta":208175731},{"NoteNumber":93,"Velocity":99,"Duration":148147,"SoundDuration":148147,"Delta":208325128},{"NoteNumber":88,"Velocity":99,"Duration":148148,"SoundDuration":148148,"Delta":208473276},{"NoteNumber":93,"Velocity":106,"Duration":148147,"SoundDuration":148147,"Delta":208621424},{"NoteNumber":88,"Velocity":96,"Duration":151593,"SoundDuration":151593,"Delta":208769572},{"NoteNumber":85,"Velocity":101,"Duration":155038,"SoundDuration":155038,"Delta":208921165},{"NoteNumber":81,"Velocity":105,"Duration":145454,"SoundDuration":145454,"Delta":209076204},{"NoteNumber":45,"Velocity":102,"Duration":218182,"SoundDuration":218182,"Delta":209076204},{"NoteNumber":33,"Velocity":86,"Duration":218182,"SoundDuration":218182,"Delta":209076204},{"NoteNumber":40,"Velocity":86,"Duration":218182,"SoundDuration":218182,"Delta":209076204},{"NoteNumber":85,"Velocity":97,"Duration":145454,"SoundDuration":145454,"Delta":209221659},{"NoteNumber":88,"Velocity":100,"Duration":145454,"SoundDuration":145454,"Delta":209367113},{"NoteNumber":93,"Velocity":113,"Duration":145454,"SoundDuration":145454,"Delta":209512568},{"NoteNumber":33,"Velocity":92,"Duration":881818,"SoundDuration":881818,"Delta":209512568},{"NoteNumber":45,"Velocity":109,"Duration":881818,"SoundDuration":881818,"Delta":209512568},{"NoteNumber":40,"Velocity":92,"Duration":881818,"SoundDuration":881818,"Delta":209512568},{"NoteNumber":88,"Velocity":96,"Duration":145454,"SoundDuration":145454,"Delta":209658023},{"NoteNumber":85,"Velocity":96,"Duration":145454,"SoundDuration":145454,"Delta":209803477},{"NoteNumber":88,"Velocity":105,"Duration":145454,"SoundDuration":145454,"Delta":209948932},{"NoteNumber":85,"Velocity":100,"Duration":148484,"SoundDuration":148484,"Delta":210094387},{"NoteNumber":81,"Velocity":95,"Duration":151514,"SoundDuration":151514,"Delta":210242871},{"NoteNumber":73,"Velocity":104,"Duration":146520,"SoundDuration":146520,"Delta":210394386},{"NoteNumber":33,"Velocity":86,"Duration":219779,"SoundDuration":219779,"Delta":210394386},{"NoteNumber":45,"Velocity":102,"Duration":219779,"SoundDuration":219779,"Delta":210394386},{"NoteNumber":40,"Velocity":86,"Duration":219779,"SoundDuration":219779,"Delta":210394386},{"NoteNumber":76,"Velocity":100,"Duration":146519,"SoundDuration":146519,"Delta":210540906},{"NoteNumber":81,"Velocity":95,"Duration":146520,"SoundDuration":146520,"Delta":210687426},{"NoteNumber":85,"Velocity":114,"Duration":146520,"SoundDuration":146520,"Delta":210833946},{"NoteNumber":40,"Velocity":91,"Duration":879120,"SoundDuration":879120,"Delta":210833946},{"NoteNumber":45,"Velocity":108,"Duration":879120,"SoundDuration":879120,"Delta":210833946},{"NoteNumber":33,"Velocity":91,"Duration":879120,"SoundDuration":879120,"Delta":210833946},{"NoteNumber":81,"Velocity":95,"Duration":146519,"SoundDuration":146519,"Delta":210980466},{"NoteNumber":76,"Velocity":98,"Duration":146520,"SoundDuration":146520,"Delta":211126986},{"NoteNumber":81,"Velocity":103,"Duration":146520,"SoundDuration":146520,"Delta":211273506},{"NoteNumber":76,"Velocity":95,"Duration":146519,"SoundDuration":146519,"Delta":211420026},{"NoteNumber":73,"Velocity":95,"Duration":146520,"SoundDuration":146520,"Delta":211566546},{"NoteNumber":69,"Velocity":103,"Duration":146520,"SoundDuration":146520,"Delta":211713066},{"NoteNumber":33,"Velocity":86,"Duration":219779,"SoundDuration":219779,"Delta":211713066},{"NoteNumber":45,"Velocity":102,"Duration":219779,"SoundDuration":219779,"Delta":211713066},{"NoteNumber":40,"Velocity":86,"Duration":219779,"SoundDuration":219779,"Delta":211713066},{"NoteNumber":73,"Velocity":95,"Duration":146519,"SoundDuration":146519,"Delta":211859586},{"NoteNumber":76,"Velocity":95,"Duration":146520,"SoundDuration":146520,"Delta":212006106},{"NoteNumber":81,"Velocity":114,"Duration":146520,"SoundDuration":146520,"Delta":212152626},{"NoteNumber":40,"Velocity":92,"Duration":1320991,"SoundDuration":1320991,"Delta":212152626},{"NoteNumber":45,"Velocity":109,"Duration":1320991,"SoundDuration":1320991,"Delta":212152626},{"NoteNumber":33,"Velocity":92,"Duration":1320991,"SoundDuration":1320991,"Delta":212152626},{"NoteNumber":76,"Velocity":98,"Duration":146519,"SoundDuration":146519,"Delta":212299146},{"NoteNumber":73,"Velocity":98,"Duration":146520,"SoundDuration":146520,"Delta":212445666},{"NoteNumber":76,"Velocity":102,"Duration":146520,"SoundDuration":146520,"Delta":212592186},{"NoteNumber":73,"Velocity":98,"Duration":146519,"SoundDuration":146519,"Delta":212738706},{"NoteNumber":69,"Velocity":98,"Duration":146520,"SoundDuration":146520,"Delta":212885226},{"NoteNumber":76,"Velocity":102,"Duration":146748,"SoundDuration":146748,"Delta":213031746},{"NoteNumber":73,"Velocity":97,"Duration":147289,"SoundDuration":147289,"Delta":213178495},{"NoteNumber":69,"Velocity":97,"Duration":147833,"SoundDuration":147833,"Delta":213325785},{"NoteNumber":73,"Velocity":113,"Duration":148382,"SoundDuration":148382,"Delta":213473618},{"NoteNumber":45,"Velocity":84,"Duration":446808,"SoundDuration":446808,"Delta":213473618},{"NoteNumber":40,"Velocity":71,"Duration":446808,"SoundDuration":446808,"Delta":213473618},{"NoteNumber":33,"Velocity":71,"Duration":446808,"SoundDuration":446808,"Delta":213473618},{"NoteNumber":69,"Velocity":97,"Duration":148934,"SoundDuration":148934,"Delta":213622001},{"NoteNumber":64,"Velocity":97,"Duration":149491,"SoundDuration":149491,"Delta":213770935},{"NoteNumber":69,"Velocity":102,"Duration":150052,"SoundDuration":150052,"Delta":213920426},{"NoteNumber":45,"Velocity":86,"Duration":451855,"SoundDuration":451855,"Delta":213920426},{"NoteNumber":33,"Velocity":73,"Duration":451855,"SoundDuration":451855,"Delta":213920426},{"NoteNumber":40,"Velocity":73,"Duration":451855,"SoundDuration":451855,"Delta":213920426},{"NoteNumber":64,"Velocity":97,"Duration":150617,"SoundDuration":150617,"Delta":214070479},{"NoteNumber":61,"Velocity":97,"Duration":151186,"SoundDuration":151186,"Delta":214221096},{"NoteNumber":69,"Velocity":99,"Duration":151759,"SoundDuration":151759,"Delta":214372282},{"NoteNumber":40,"Velocity":68,"Duration":457018,"SoundDuration":457018,"Delta":214372282},{"NoteNumber":45,"Velocity":80,"Duration":457018,"SoundDuration":457018,"Delta":214372282},{"NoteNumber":33,"Velocity":68,"Duration":457018,"SoundDuration":457018,"Delta":214372282},{"NoteNumber":64,"Velocity":93,"Duration":152337,"SoundDuration":152337,"Delta":214524042},{"NoteNumber":61,"Velocity":87,"Duration":152920,"SoundDuration":152920,"Delta":214676380},{"NoteNumber":64,"Velocity":81,"Duration":153507,"SoundDuration":153507,"Delta":214829300},{"NoteNumber":33,"Velocity":64,"Duration":468166,"SoundDuration":468166,"Delta":214829300},{"NoteNumber":40,"Velocity":64,"Duration":468166,"SoundDuration":468166,"Delta":214829300},{"NoteNumber":45,"Velocity":76,"Duration":468166,"SoundDuration":468166,"Delta":214829300},{"NoteNumber":61,"Velocity":78,"Duration":154098,"SoundDuration":154098,"Delta":214982807},{"NoteNumber":57,"Velocity":72,"Duration":160561,"SoundDuration":160561,"Delta":215136906},{"NoteNumber":61,"Velocity":67,"Duration":167363,"SoundDuration":167363,"Delta":215297467},{"NoteNumber":40,"Velocity":61,"Duration":502092,"SoundDuration":502092,"Delta":215297467},{"NoteNumber":33,"Velocity":61,"Duration":502092,"SoundDuration":502092,"Delta":215297467},{"NoteNumber":45,"Velocity":72,"Duration":502092,"SoundDuration":502092,"Delta":215297467},{"NoteNumber":57,"Velocity":61,"Duration":167364,"SoundDuration":167364,"Delta":215464831},{"NoteNumber":52,"Velocity":54,"Duration":167363,"SoundDuration":167363,"Delta":215632195},{"NoteNumber":49,"Velocity":52,"Duration":154439,"SoundDuration":154439,"Delta":215799559},{"NoteNumber":33,"Velocity":68,"Duration":1390276,"SoundDuration":1390276,"Delta":215799559},{"NoteNumber":52,"Velocity":50,"Duration":154439,"SoundDuration":154439,"Delta":215953999},{"NoteNumber":57,"Velocity":50,"Duration":154440,"SoundDuration":154440,"Delta":216108439},{"NoteNumber":61,"Velocity":51,"Duration":154439,"SoundDuration":154439,"Delta":216262879},{"NoteNumber":57,"Velocity":47,"Duration":154439,"SoundDuration":154439,"Delta":216417319},{"NoteNumber":52,"Velocity":48,"Duration":154439,"SoundDuration":154439,"Delta":216571759},{"NoteNumber":49,"Velocity":51,"Duration":154439,"SoundDuration":154439,"Delta":216726199},{"NoteNumber":52,"Velocity":47,"Duration":154440,"SoundDuration":154440,"Delta":216880639},{"NoteNumber":57,"Velocity":47,"Duration":154756,"SoundDuration":154756,"Delta":217035079},{"NoteNumber":49,"Velocity":51,"Duration":154921,"SoundDuration":154921,"Delta":217189836},{"NoteNumber":30,"Velocity":38,"Duration":77761,"SoundDuration":77761,"Delta":217189836},{"NoteNumber":32,"Velocity":33,"Duration":77160,"SoundDuration":77160,"Delta":217267597},{"NoteNumber":54,"Velocity":49,"Duration":152558,"SoundDuration":152558,"Delta":217344758},{"NoteNumber":30,"Velocity":38,"Duration":76570,"SoundDuration":76570,"Delta":217344758},{"NoteNumber":32,"Velocity":32,"Duration":75995,"SoundDuration":75995,"Delta":217420374},{"NoteNumber":30,"Velocity":38,"Duration":75422,"SoundDuration":75422,"Delta":217496369},{"NoteNumber":57,"Velocity":49,"Duration":150363,"SoundDuration":150363,"Delta":217497316},{"NoteNumber":32,"Velocity":33,"Duration":74952,"SoundDuration":74952,"Delta":217571792},{"NoteNumber":30,"Velocity":38,"Duration":74906,"SoundDuration":74906,"Delta":217646744},{"NoteNumber":61,"Velocity":52,"Duration":149812,"SoundDuration":149812,"Delta":217647680},{"NoteNumber":32,"Velocity":34,"Duration":74906,"SoundDuration":74906,"Delta":217720714},{"NoteNumber":30,"Velocity":38,"Duration":74906,"SoundDuration":74906,"Delta":217796556},{"NoteNumber":57,"Velocity":49,"Duration":149812,"SoundDuration":149812,"Delta":217797493},{"NoteNumber":32,"Velocity":34,"Duration":74906,"SoundDuration":74906,"Delta":217870526},{"NoteNumber":30,"Velocity":38,"Duration":74906,"SoundDuration":74906,"Delta":217945433},{"NoteNumber":54,"Velocity":49,"Duration":149812,"SoundDuration":149812,"Delta":217947305},{"NoteNumber":32,"Velocity":34,"Duration":74906,"SoundDuration":74906,"Delta":218020339},{"NoteNumber":49,"Velocity":52,"Duration":150958,"SoundDuration":150958,"Delta":218097118},{"NoteNumber":30,"Velocity":38,"Duration":90481,"SoundDuration":90481,"Delta":218097118},{"NoteNumber":32,"Velocity":34,"Duration":90780,"SoundDuration":90780,"Delta":218187599},{"NoteNumber":54,"Velocity":48,"Duration":152005,"SoundDuration":152005,"Delta":218248077},{"NoteNumber":30,"Velocity":38,"Duration":91182,"SoundDuration":91182,"Delta":218278380},{"NoteNumber":29,"Velocity":35,"Duration":91632,"SoundDuration":91632,"Delta":218369562},{"NoteNumber":57,"Velocity":48,"Duration":153066,"SoundDuration":153066,"Delta":218400082},{"NoteNumber":30,"Velocity":35,"Duration":91954,"SoundDuration":91954,"Delta":218461195},{"NoteNumber":49,"Velocity":51,"Duration":154439,"SoundDuration":154439,"Delta":218553149},{"NoteNumber":32,"Velocity":43,"Duration":2849292,"SoundDuration":2849292,"Delta":218553149},{"NoteNumber":53,"Velocity":48,"Duration":154439,"SoundDuration":154439,"Delta":218707589},{"NoteNumber":56,"Velocity":48,"Duration":154439,"SoundDuration":154439,"Delta":218862029},{"NoteNumber":61,"Velocity":50,"Duration":154439,"SoundDuration":154439,"Delta":219016469},{"NoteNumber":56,"Velocity":45,"Duration":154440,"SoundDuration":154440,"Delta":219170909},{"NoteNumber":53,"Velocity":45,"Duration":154439,"SoundDuration":154439,"Delta":219325349},{"NoteNumber":49,"Velocity":48,"Duration":154439,"SoundDuration":154439,"Delta":219479789},{"NoteNumber":53,"Velocity":45,"Duration":154439,"SoundDuration":154439,"Delta":219634229},{"NoteNumber":56,"Velocity":45,"Duration":154440,"SoundDuration":154440,"Delta":219788669},{"NoteNumber":51,"Velocity":46,"Duration":155642,"SoundDuration":155642,"Delta":219943109},{"NoteNumber":54,"Velocity":42,"Duration":155642,"SoundDuration":155642,"Delta":220098751},{"NoteNumber":56,"Velocity":42,"Duration":155642,"SoundDuration":155642,"Delta":220254393},{"NoteNumber":60,"Velocity":45,"Duration":156101,"SoundDuration":156101,"Delta":220410035},{"NoteNumber":56,"Velocity":41,"Duration":157480,"SoundDuration":157480,"Delta":220566136},{"NoteNumber":54,"Velocity":41,"Duration":157480,"SoundDuration":157480,"Delta":220723617},{"NoteNumber":51,"Velocity":44,"Duration":162148,"SoundDuration":162148,"Delta":220881097},{"NoteNumber":54,"Velocity":40,"Duration":175287,"SoundDuration":175287,"Delta":221043246},{"NoteNumber":56,"Velocity":41,"Duration":183908,"SoundDuration":183908,"Delta":221218533},{"NoteNumber":53,"Velocity":52,"Duration":154439,"SoundDuration":154439,"Delta":221402441},{"NoteNumber":37,"Velocity":51,"Duration":1389960,"SoundDuration":1389960,"Delta":221402441},{"NoteNumber":56,"Velocity":47,"Duration":154439,"SoundDuration":154439,"Delta":221556881},{"NoteNumber":61,"Velocity":47,"Duration":154440,"SoundDuration":154440,"Delta":221711321},{"NoteNumber":65,"Velocity":59,"Duration":154439,"SoundDuration":154439,"Delta":221865761},{"NoteNumber":44,"Velocity":60,"Duration":1389960,"SoundDuration":1389960,"Delta":221865761},{"NoteNumber":61,"Velocity":48,"Duration":154439,"SoundDuration":154439,"Delta":222020201},{"NoteNumber":56,"Velocity":48,"Duration":154439,"SoundDuration":154439,"Delta":222174641},{"NoteNumber":53,"Velocity":52,"Duration":154439,"SoundDuration":154439,"Delta":222329081},{"NoteNumber":56,"Velocity":48,"Duration":154440,"SoundDuration":154440,"Delta":222483521},{"NoteNumber":61,"Velocity":48,"Duration":154439,"SoundDuration":154439,"Delta":222637961},{"NoteNumber":56,"Velocity":52,"Duration":154439,"SoundDuration":154439,"Delta":222792401},{"NoteNumber":41,"Velocity":51,"Duration":1378713,"SoundDuration":1378713,"Delta":222792401},{"NoteNumber":61,"Velocity":48,"Duration":154439,"SoundDuration":154439,"Delta":222946841},{"NoteNumber":65,"Velocity":48,"Duration":154440,"SoundDuration":154440,"Delta":223101281},{"NoteNumber":68,"Velocity":61,"Duration":154439,"SoundDuration":154439,"Delta":223255721},{"NoteNumber":44,"Velocity":61,"Duration":1376931,"SoundDuration":1376931,"Delta":223255721},{"NoteNumber":65,"Velocity":47,"Duration":154439,"SoundDuration":154439,"Delta":223410161},{"NoteNumber":61,"Velocity":47,"Duration":154439,"SoundDuration":154439,"Delta":223564601},{"NoteNumber":56,"Velocity":52,"Duration":153004,"SoundDuration":153004,"Delta":223719041},{"NoteNumber":61,"Velocity":47,"Duration":149255,"SoundDuration":149255,"Delta":223872046},{"NoteNumber":65,"Velocity":47,"Duration":149812,"SoundDuration":149812,"Delta":224021302},{"NoteNumber":62,"Velocity":52,"Duration":153845,"SoundDuration":153845,"Delta":224171114},{"NoteNumber":36,"Velocity":52,"Duration":1377621,"SoundDuration":1377621,"Delta":224171114},{"NoteNumber":65,"Velocity":48,"Duration":153846,"SoundDuration":153846,"Delta":224324960},{"NoteNumber":68,"Velocity":48,"Duration":153845,"SoundDuration":153845,"Delta":224478806},{"NoteNumber":63,"Velocity":52,"Duration":153846,"SoundDuration":153846,"Delta":224632652},{"NoteNumber":44,"Velocity":59,"Duration":1370628,"SoundDuration":1370628,"Delta":224632652},{"NoteNumber":66,"Velocity":48,"Duration":153845,"SoundDuration":153845,"Delta":224786498},{"NoteNumber":68,"Velocity":48,"Duration":153846,"SoundDuration":153846,"Delta":224940344},{"NoteNumber":63,"Velocity":54,"Duration":151514,"SoundDuration":151514,"Delta":225094190},{"NoteNumber":66,"Velocity":57,"Duration":151515,"SoundDuration":151515,"Delta":225245705},{"NoteNumber":69,"Velocity":56,"Duration":151514,"SoundDuration":151514,"Delta":225397220},{"NoteNumber":60,"Velocity":63,"Duration":151515,"SoundDuration":151515,"Delta":225548735},{"NoteNumber":32,"Velocity":52,"Duration":1385279,"SoundDuration":1385279,"Delta":225548735},{"NoteNumber":66,"Velocity":58,"Duration":151514,"SoundDuration":151514,"Delta":225700250},{"NoteNumber":70,"Velocity":55,"Duration":151514,"SoundDuration":151514,"Delta":225851765},{"NoteNumber":60,"Velocity":52,"Duration":151515,"SoundDuration":151515,"Delta":226003280},{"NoteNumber":44,"Velocity":59,"Duration":1390504,"SoundDuration":1390504,"Delta":226003280},{"NoteNumber":65,"Velocity":47,"Duration":151514,"SoundDuration":151514,"Delta":226154795},{"NoteNumber":68,"Velocity":47,"Duration":151514,"SoundDuration":151514,"Delta":226306310},{"NoteNumber":60,"Velocity":52,"Duration":158729,"SoundDuration":158729,"Delta":226457825},{"NoteNumber":63,"Velocity":49,"Duration":158730,"SoundDuration":158730,"Delta":226616555},{"NoteNumber":66,"Velocity":49,"Duration":158729,"SoundDuration":158729,"Delta":226775285},{"NoteNumber":65,"Velocity":52,"Duration":153256,"SoundDuration":153256,"Delta":226934015},{"NoteNumber":37,"Velocity":51,"Duration":1383800,"SoundDuration":1383800,"Delta":226934015},{"NoteNumber":68,"Velocity":49,"Duration":153256,"SoundDuration":153256,"Delta":227087272},{"NoteNumber":73,"Velocity":49,"Duration":153256,"SoundDuration":153256,"Delta":227240529},{"NoteNumber":77,"Velocity":59,"Duration":153256,"SoundDuration":153256,"Delta":227393785},{"NoteNumber":44,"Velocity":60,"Duration":1383800,"SoundDuration":1383800,"Delta":227393785},{"NoteNumber":73,"Velocity":49,"Duration":153256,"SoundDuration":153256,"Delta":227547042},{"NoteNumber":68,"Velocity":52,"Duration":153256,"SoundDuration":153256,"Delta":227700299},{"NoteNumber":65,"Velocity":52,"Duration":154004,"SoundDuration":154004,"Delta":227853555},{"NoteNumber":68,"Velocity":49,"Duration":156250,"SoundDuration":156250,"Delta":228007560},{"NoteNumber":73,"Velocity":49,"Duration":154005,"SoundDuration":154005,"Delta":228163810},{"NoteNumber":68,"Velocity":52,"Duration":153256,"SoundDuration":153256,"Delta":228317815},{"NoteNumber":41,"Velocity":51,"Duration":1379310,"SoundDuration":1379310,"Delta":228317815},{"NoteNumber":73,"Velocity":49,"Duration":153256,"SoundDuration":153256,"Delta":228471072},{"NoteNumber":77,"Velocity":49,"Duration":153256,"SoundDuration":153256,"Delta":228624329},{"NoteNumber":80,"Velocity":61,"Duration":153256,"SoundDuration":153256,"Delta":228777585},{"NoteNumber":44,"Velocity":61,"Duration":1377575,"SoundDuration":1377575,"Delta":228777585},{"NoteNumber":77,"Velocity":50,"Duration":153256,"SoundDuration":153256,"Delta":228930842},{"NoteNumber":73,"Velocity":50,"Duration":153256,"SoundDuration":153256,"Delta":229084099},{"NoteNumber":68,"Velocity":52,"Duration":153256,"SoundDuration":153256,"Delta":229237355},{"NoteNumber":73,"Velocity":48,"Duration":153256,"SoundDuration":153256,"Delta":229390612},{"NoteNumber":77,"Velocity":52,"Duration":153256,"SoundDuration":153256,"Delta":229543869},{"NoteNumber":74,"Velocity":52,"Duration":153256,"SoundDuration":153256,"Delta":229697125},{"NoteNumber":36,"Velocity":52,"Duration":1363695,"SoundDuration":1363695,"Delta":229697125},{"NoteNumber":77,"Velocity":49,"Duration":153256,"SoundDuration":153256,"Delta":229850382},{"NoteNumber":80,"Velocity":52,"Duration":151521,"SoundDuration":151521,"Delta":230003639},{"NoteNumber":75,"Velocity":52,"Duration":150943,"SoundDuration":150943,"Delta":230155160},{"NoteNumber":44,"Velocity":59,"Duration":1358489,"SoundDuration":1358489,"Delta":230155160},{"NoteNumber":78,"Velocity":49,"Duration":150943,"SoundDuration":150943,"Delta":230306104},{"NoteNumber":80,"Velocity":49,"Duration":150943,"SoundDuration":150943,"Delta":230457047},{"NoteNumber":75,"Velocity":54,"Duration":150943,"SoundDuration":150943,"Delta":230607990},{"NoteNumber":78,"Velocity":57,"Duration":150943,"SoundDuration":150943,"Delta":230758934},{"NoteNumber":81,"Velocity":57,"Duration":150943,"SoundDuration":150943,"Delta":230909877},{"NoteNumber":72,"Velocity":63,"Duration":150943,"SoundDuration":150943,"Delta":231060820},{"NoteNumber":32,"Velocity":52,"Duration":1365429,"SoundDuration":1365429,"Delta":231060820},{"NoteNumber":78,"Velocity":58,"Duration":150943,"SoundDuration":150943,"Delta":231211764},{"NoteNumber":82,"Velocity":55,"Duration":150943,"SoundDuration":150943,"Delta":231362707},{"NoteNumber":72,"Velocity":52,"Duration":150943,"SoundDuration":150943,"Delta":231513650},{"NoteNumber":44,"Velocity":59,"Duration":912599,"SoundDuration":912599,"Delta":231513650},{"NoteNumber":77,"Velocity":48,"Duration":150943,"SoundDuration":150943,"Delta":231664594},{"NoteNumber":80,"Velocity":48,"Duration":150943,"SoundDuration":150943,"Delta":231815537},{"NoteNumber":72,"Velocity":52,"Duration":153256,"SoundDuration":153256,"Delta":231966480},{"NoteNumber":75,"Velocity":49,"Duration":153256,"SoundDuration":153256,"Delta":232119737},{"NoteNumber":78,"Velocity":49,"Duration":153256,"SoundDuration":153256,"Delta":232272994},{"NoteNumber":72,"Velocity":51,"Duration":153256,"SoundDuration":153256,"Delta":232426250},{"NoteNumber":34,"Velocity":51,"Duration":1365430,"SoundDuration":1365430,"Delta":232426250},{"NoteNumber":75,"Velocity":46,"Duration":153256,"SoundDuration":153256,"Delta":232579507},{"NoteNumber":77,"Velocity":46,"Duration":153256,"SoundDuration":153256,"Delta":232732764},{"NoteNumber":70,"Velocity":49,"Duration":150943,"SoundDuration":150943,"Delta":232886020},{"NoteNumber":46,"Velocity":49,"Duration":905660,"SoundDuration":905660,"Delta":232886020},{"NoteNumber":73,"Velocity":45,"Duration":150943,"SoundDuration":150943,"Delta":233036964},{"NoteNumber":77,"Velocity":45,"Duration":150943,"SoundDuration":150943,"Delta":233187907},{"NoteNumber":68,"Velocity":46,"Duration":150943,"SoundDuration":150943,"Delta":233338850},{"NoteNumber":72,"Velocity":42,"Duration":150943,"SoundDuration":150943,"Delta":233489794},{"NoteNumber":77,"Velocity":42,"Duration":150943,"SoundDuration":150943,"Delta":233640737},{"NoteNumber":68,"Velocity":44,"Duration":150943,"SoundDuration":150943,"Delta":233791680},{"NoteNumber":39,"Velocity":44,"Duration":905659,"SoundDuration":905659,"Delta":233791680},{"NoteNumber":70,"Velocity":39,"Duration":150943,"SoundDuration":150943,"Delta":233942624},{"NoteNumber":77,"Velocity":39,"Duration":150943,"SoundDuration":150943,"Delta":234093567},{"NoteNumber":66,"Velocity":41,"Duration":150943,"SoundDuration":150943,"Delta":234244510},{"NoteNumber":51,"Velocity":41,"Duration":452830,"SoundDuration":452830,"Delta":234244510},{"NoteNumber":70,"Velocity":37,"Duration":150943,"SoundDuration":150943,"Delta":234395454},{"NoteNumber":75,"Velocity":37,"Duration":150943,"SoundDuration":150943,"Delta":234546397},{"NoteNumber":65,"Velocity":39,"Duration":150943,"SoundDuration":150943,"Delta":234697340},{"NoteNumber":42,"Velocity":39,"Duration":452830,"SoundDuration":452830,"Delta":234697340},{"NoteNumber":54,"Velocity":39,"Duration":452830,"SoundDuration":452830,"Delta":234697340},{"NoteNumber":70,"Velocity":35,"Duration":150943,"SoundDuration":150943,"Delta":234848284},{"NoteNumber":73,"Velocity":35,"Duration":150943,"SoundDuration":150943,"Delta":234999227},{"NoteNumber":63,"Velocity":36,"Duration":153994,"SoundDuration":153994,"Delta":235150170},{"NoteNumber":44,"Velocity":36,"Duration":1389514,"SoundDuration":1389514,"Delta":235150170},{"NoteNumber":68,"Velocity":32,"Duration":154439,"SoundDuration":154439,"Delta":235304165},{"NoteNumber":72,"Velocity":34,"Duration":154439,"SoundDuration":154439,"Delta":235458605},{"NoteNumber":65,"Velocity":34,"Duration":154439,"SoundDuration":154439,"Delta":235613045},{"NoteNumber":56,"Velocity":34,"Duration":1867816,"SoundDuration":1867816,"Delta":235613045},{"NoteNumber":68,"Velocity":33,"Duration":154440,"SoundDuration":154440,"Delta":235767485},{"NoteNumber":73,"Velocity":33,"Duration":154439,"SoundDuration":154439,"Delta":235921925},{"NoteNumber":66,"Velocity":34,"Duration":154439,"SoundDuration":154439,"Delta":236076365},{"NoteNumber":68,"Velocity":33,"Duration":154439,"SoundDuration":154439,"Delta":236230805},{"NoteNumber":75,"Velocity":33,"Duration":154440,"SoundDuration":154440,"Delta":236385245},{"NoteNumber":65,"Velocity":34,"Duration":156862,"SoundDuration":156862,"Delta":236539685},{"NoteNumber":49,"Velocity":34,"Duration":941176,"SoundDuration":941176,"Delta":236539685},{"NoteNumber":68,"Velocity":32,"Duration":156862,"SoundDuration":156862,"Delta":236696547},{"NoteNumber":73,"Velocity":31,"Duration":156862,"SoundDuration":156862,"Delta":236853410},{"NoteNumber":68,"Velocity":34,"Duration":156862,"SoundDuration":156862,"Delta":237010273},{"NoteNumber":65,"Velocity":29,"Duration":156862,"SoundDuration":156862,"Delta":237167135},{"NoteNumber":61,"Velocity":29,"Duration":156862,"SoundDuration":156862,"Delta":237323998},{"NoteNumber":65,"Velocity":34,"Duration":166666,"SoundDuration":166666,"Delta":237480861},{"NoteNumber":61,"Velocity":29,"Duration":166666,"SoundDuration":166666,"Delta":237647527},{"NoteNumber":56,"Velocity":29,"Duration":166666,"SoundDuration":166666,"Delta":237814194},{"NoteNumber":52,"Velocity":74,"Duration":153256,"SoundDuration":153256,"Delta":237980861},{"NoteNumber":37,"Velocity":73,"Duration":1379310,"SoundDuration":1379310,"Delta":237980861},{"NoteNumber":56,"Velocity":68,"Duration":153256,"SoundDuration":153256,"Delta":238134117},{"NoteNumber":61,"Velocity":68,"Duration":153256,"SoundDuration":153256,"Delta":238287374},{"NoteNumber":64,"Velocity":84,"Duration":153256,"SoundDuration":153256,"Delta":238440631},{"NoteNumber":44,"Velocity":85,"Duration":1379310,"SoundDuration":1379310,"Delta":238440631},{"NoteNumber":61,"Velocity":69,"Duration":153256,"SoundDuration":153256,"Delta":238593887},{"NoteNumber":56,"Velocity":69,"Duration":153256,"SoundDuration":153256,"Delta":238747144},{"NoteNumber":52,"Velocity":74,"Duration":153256,"SoundDuration":153256,"Delta":238900401},{"NoteNumber":56,"Velocity":70,"Duration":153256,"SoundDuration":153256,"Delta":239053657},{"NoteNumber":61,"Velocity":70,"Duration":153256,"SoundDuration":153256,"Delta":239206914},{"NoteNumber":56,"Velocity":74,"Duration":153256,"SoundDuration":153256,"Delta":239360171},{"NoteNumber":40,"Velocity":73,"Duration":1379310,"SoundDuration":1379310,"Delta":239360171},{"NoteNumber":61,"Velocity":68,"Duration":153256,"SoundDuration":153256,"Delta":239513427},{"NoteNumber":64,"Velocity":68,"Duration":153256,"SoundDuration":153256,"Delta":239666684},{"NoteNumber":68,"Velocity":85,"Duration":153256,"SoundDuration":153256,"Delta":239819941},{"NoteNumber":44,"Velocity":86,"Duration":1379310,"SoundDuration":1379310,"Delta":239819941},{"NoteNumber":64,"Velocity":68,"Duration":153256,"SoundDuration":153256,"Delta":239973197},{"NoteNumber":61,"Velocity":68,"Duration":153256,"SoundDuration":153256,"Delta":240126454},{"NoteNumber":56,"Velocity":74,"Duration":153256,"SoundDuration":153256,"Delta":240279711},{"NoteNumber":61,"Velocity":68,"Duration":153256,"SoundDuration":153256,"Delta":240432967},{"NoteNumber":64,"Velocity":68,"Duration":153256,"SoundDuration":153256,"Delta":240586224},{"NoteNumber":62,"Velocity":74,"Duration":153256,"SoundDuration":153256,"Delta":240739481},{"NoteNumber":36,"Velocity":74,"Duration":1365430,"SoundDuration":1365430,"Delta":240739481},{"NoteNumber":65,"Velocity":69,"Duration":153256,"SoundDuration":153256,"Delta":240892737},{"NoteNumber":68,"Velocity":69,"Duration":153256,"SoundDuration":153256,"Delta":241045994},{"NoteNumber":63,"Velocity":74,"Duration":150943,"SoundDuration":150943,"Delta":241199251},{"NoteNumber":44,"Velocity":84,"Duration":1358489,"SoundDuration":1358489,"Delta":241199251},{"NoteNumber":66,"Velocity":67,"Duration":150943,"SoundDuration":150943,"Delta":241350194},{"NoteNumber":68,"Velocity":69,"Duration":150943,"SoundDuration":150943,"Delta":241501137},{"NoteNumber":62,"Velocity":76,"Duration":150943,"SoundDuration":150943,"Delta":241652081},{"NoteNumber":65,"Velocity":78,"Duration":150943,"SoundDuration":150943,"Delta":241803024},{"NoteNumber":68,"Velocity":81,"Duration":150943,"SoundDuration":150943,"Delta":241953967},{"NoteNumber":63,"Velocity":90,"Duration":150943,"SoundDuration":150943,"Delta":242104911},{"NoteNumber":32,"Velocity":74,"Duration":1390844,"SoundDuration":1390844,"Delta":242104911},{"NoteNumber":66,"Velocity":82,"Duration":150943,"SoundDuration":150943,"Delta":242255854},{"NoteNumber":69,"Velocity":78,"Duration":150943,"SoundDuration":150943,"Delta":242406797},{"NoteNumber":60,"Velocity":74,"Duration":152671,"SoundDuration":152671,"Delta":242557741},{"NoteNumber":44,"Velocity":84,"Duration":1399552,"SoundDuration":1399552,"Delta":242557741},{"NoteNumber":64,"Velocity":70,"Duration":152671,"SoundDuration":152671,"Delta":242710412},{"NoteNumber":68,"Velocity":70,"Duration":152671,"SoundDuration":152671,"Delta":242863084},{"NoteNumber":60,"Velocity":74,"Duration":159999,"SoundDuration":159999,"Delta":243015756},{"NoteNumber":63,"Velocity":69,"Duration":159999,"SoundDuration":159999,"Delta":243175756},{"NoteNumber":66,"Velocity":69,"Duration":159999,"SoundDuration":159999,"Delta":243335756},{"NoteNumber":64,"Velocity":74,"Duration":153845,"SoundDuration":153845,"Delta":243495756},{"NoteNumber":37,"Velocity":73,"Duration":1391939,"SoundDuration":1391939,"Delta":243495756},{"NoteNumber":68,"Velocity":68,"Duration":153846,"SoundDuration":153846,"Delta":243649602},{"NoteNumber":73,"Velocity":69,"Duration":153845,"SoundDuration":153845,"Delta":243803448},{"NoteNumber":76,"Velocity":84,"Duration":153846,"SoundDuration":153846,"Delta":243957294},{"NoteNumber":44,"Velocity":85,"Duration":1390171,"SoundDuration":1390171,"Delta":243957294},{"NoteNumber":73,"Velocity":69,"Duration":153845,"SoundDuration":153845,"Delta":244111140},{"NoteNumber":68,"Velocity":69,"Duration":153846,"SoundDuration":153846,"Delta":244264986},{"NoteNumber":64,"Velocity":74,"Duration":153845,"SoundDuration":153845,"Delta":244418832},{"NoteNumber":68,"Velocity":69,"Duration":156287,"SoundDuration":156287,"Delta":244572678},{"NoteNumber":73,"Velocity":69,"Duration":158729,"SoundDuration":158729,"Delta":244728966},{"NoteNumber":68,"Velocity":74,"Duration":153256,"SoundDuration":153256,"Delta":244887696},{"NoteNumber":40,"Velocity":73,"Duration":1367815,"SoundDuration":1367815,"Delta":244887696},{"NoteNumber":73,"Velocity":68,"Duration":153256,"SoundDuration":153256,"Delta":245040952},{"NoteNumber":76,"Velocity":68,"Duration":153256,"SoundDuration":153256,"Delta":245194209},{"NoteNumber":80,"Velocity":83,"Duration":153256,"SoundDuration":153256,"Delta":245347466},{"NoteNumber":44,"Velocity":86,"Duration":1370029,"SoundDuration":1370029,"Delta":245347466},{"NoteNumber":76,"Velocity":70,"Duration":153256,"SoundDuration":153256,"Delta":245500722},{"NoteNumber":73,"Velocity":70,"Duration":153256,"SoundDuration":153256,"Delta":245653979},{"NoteNumber":68,"Velocity":74,"Duration":151979,"SoundDuration":151979,"Delta":245807236},{"NoteNumber":73,"Velocity":69,"Duration":148147,"SoundDuration":148147,"Delta":245959215},{"NoteNumber":76,"Velocity":69,"Duration":148148,"SoundDuration":148148,"Delta":246107363},{"NoteNumber":75,"Velocity":74,"Duration":154291,"SoundDuration":154291,"Delta":246255511},{"NoteNumber":32,"Velocity":74,"Duration":1374531,"SoundDuration":1374531,"Delta":246255511},{"NoteNumber":78,"Velocity":69,"Duration":153845,"SoundDuration":153845,"Delta":246409803},{"NoteNumber":80,"Velocity":69,"Duration":153846,"SoundDuration":153846,"Delta":246563649},{"NoteNumber":75,"Velocity":74,"Duration":152091,"SoundDuration":152091,"Delta":246717495},{"NoteNumber":44,"Velocity":84,"Duration":1368821,"SoundDuration":1368821,"Delta":246717495},{"NoteNumber":78,"Velocity":70,"Duration":152091,"SoundDuration":152091,"Delta":246869586},{"NoteNumber":82,"Velocity":70,"Duration":152091,"SoundDuration":152091,"Delta":247021677},{"NoteNumber":75,"Velocity":76,"Duration":152091,"SoundDuration":152091,"Delta":247173769},{"NoteNumber":78,"Velocity":81,"Duration":152091,"SoundDuration":152091,"Delta":247325860},{"NoteNumber":84,"Velocity":87,"Duration":152091,"SoundDuration":152091,"Delta":247477951},{"NoteNumber":73,"Velocity":87,"Duration":152091,"SoundDuration":152091,"Delta":247630043},{"NoteNumber":37,"Velocity":73,"Duration":1365363,"SoundDuration":1365363,"Delta":247630043},{"NoteNumber":76,"Velocity":82,"Duration":152091,"SoundDuration":152091,"Delta":247782134},{"NoteNumber":85,"Velocity":82,"Duration":152091,"SoundDuration":152091,"Delta":247934225},{"NoteNumber":75,"Velocity":87,"Duration":151514,"SoundDuration":151514,"Delta":248086317},{"NoteNumber":44,"Velocity":87,"Duration":909089,"SoundDuration":909089,"Delta":248086317},{"NoteNumber":78,"Velocity":83,"Duration":151515,"SoundDuration":151515,"Delta":248237832},{"NoteNumber":87,"Velocity":83,"Duration":151514,"SoundDuration":151514,"Delta":248389347},{"NoteNumber":76,"Velocity":87,"Duration":151515,"SoundDuration":151515,"Delta":248540862},{"NoteNumber":80,"Velocity":82,"Duration":151514,"SoundDuration":151514,"Delta":248692377},{"NoteNumber":88,"Velocity":82,"Duration":151514,"SoundDuration":151514,"Delta":248843892},{"NoteNumber":78,"Velocity":87,"Duration":151515,"SoundDuration":151515,"Delta":248995407},{"NoteNumber":30,"Velocity":87,"Duration":1363635,"SoundDuration":1363635,"Delta":248995407},{"NoteNumber":81,"Velocity":84,"Duration":151514,"SoundDuration":151514,"Delta":249146922},{"NoteNumber":90,"Velocity":85,"Duration":151514,"SoundDuration":151514,"Delta":249298437},{"NoteNumber":80,"Velocity":92,"Duration":151515,"SoundDuration":151515,"Delta":249449952},{"NoteNumber":42,"Velocity":92,"Duration":909090,"SoundDuration":909090,"Delta":249449952},{"NoteNumber":83,"Velocity":90,"Duration":151514,"SoundDuration":151514,"Delta":249601467},{"NoteNumber":92,"Velocity":90,"Duration":151515,"SoundDuration":151515,"Delta":249752982},{"NoteNumber":81,"Velocity":98,"Duration":151514,"SoundDuration":151514,"Delta":249904497},{"NoteNumber":85,"Velocity":90,"Duration":151514,"SoundDuration":151514,"Delta":250056012},{"NoteNumber":93,"Velocity":94,"Duration":151515,"SoundDuration":151515,"Delta":250207527},{"NoteNumber":80,"Velocity":103,"Duration":151514,"SoundDuration":151514,"Delta":250359042},{"NoteNumber":40,"Velocity":94,"Duration":1375406,"SoundDuration":1375406,"Delta":250359042},{"NoteNumber":88,"Velocity":97,"Duration":151515,"SoundDuration":151515,"Delta":250510557},{"NoteNumber":92,"Velocity":97,"Duration":151514,"SoundDuration":151514,"Delta":250662072},{"NoteNumber":81,"Velocity":105,"Duration":151515,"SoundDuration":151515,"Delta":250813587},{"NoteNumber":52,"Velocity":99,"Duration":920861,"SoundDuration":920861,"Delta":250813587},{"NoteNumber":90,"Velocity":96,"Duration":151514,"SoundDuration":151514,"Delta":250965102},{"NoteNumber":93,"Velocity":96,"Duration":151514,"SoundDuration":151514,"Delta":251116617},{"NoteNumber":83,"Velocity":109,"Duration":151515,"SoundDuration":151515,"Delta":251268132},{"NoteNumber":92,"Velocity":101,"Duration":155438,"SoundDuration":155438,"Delta":251419647},{"NoteNumber":95,"Velocity":101,"Duration":159362,"SoundDuration":159362,"Delta":251575086},{"NoteNumber":85,"Velocity":114,"Duration":150943,"SoundDuration":150943,"Delta":251734448},{"NoteNumber":33,"Velocity":86,"Duration":226415,"SoundDuration":226415,"Delta":251734448},{"NoteNumber":45,"Velocity":102,"Duration":226415,"SoundDuration":226415,"Delta":251734448},{"NoteNumber":40,"Velocity":86,"Duration":226415,"SoundDuration":226415,"Delta":251734448},{"NoteNumber":88,"Velocity":103,"Duration":150943,"SoundDuration":150943,"Delta":251885392},{"NoteNumber":93,"Velocity":102,"Duration":150095,"SoundDuration":150095,"Delta":252036335},{"NoteNumber":97,"Velocity":114,"Duration":149396,"SoundDuration":149396,"Delta":252186430},{"NoteNumber":45,"Velocity":107,"Duration":900472,"SoundDuration":900472,"Delta":252186430},{"NoteNumber":33,"Velocity":90,"Duration":900472,"SoundDuration":900472,"Delta":252186430},{"NoteNumber":40,"Velocity":90,"Duration":900472,"SoundDuration":900472,"Delta":252186430},{"NoteNumber":93,"Velocity":99,"Duration":148147,"SoundDuration":148147,"Delta":252335827},{"NoteNumber":88,"Velocity":99,"Duration":148148,"SoundDuration":148148,"Delta":252483975},{"NoteNumber":93,"Velocity":106,"Duration":148147,"SoundDuration":148147,"Delta":252632123},{"NoteNumber":88,"Velocity":96,"Duration":151593,"SoundDuration":151593,"Delta":252780271},{"NoteNumber":85,"Velocity":101,"Duration":155038,"SoundDuration":155038,"Delta":252931864},{"NoteNumber":81,"Velocity":105,"Duration":145454,"SoundDuration":145454,"Delta":253086903},{"NoteNumber":40,"Velocity":86,"Duration":218182,"SoundDuration":218182,"Delta":253086903},{"NoteNumber":45,"Velocity":102,"Duration":218182,"SoundDuration":218182,"Delta":253086903},{"NoteNumber":33,"Velocity":86,"Duration":218182,"SoundDuration":218182,"Delta":253086903},{"NoteNumber":85,"Velocity":97,"Duration":145454,"SoundDuration":145454,"Delta":253232357},{"NoteNumber":88,"Velocity":100,"Duration":145454,"SoundDuration":145454,"Delta":253377812},{"NoteNumber":93,"Velocity":113,"Duration":145454,"SoundDuration":145454,"Delta":253523267},{"NoteNumber":40,"Velocity":92,"Duration":881818,"SoundDuration":881818,"Delta":253523267},{"NoteNumber":33,"Velocity":92,"Duration":881818,"SoundDuration":881818,"Delta":253523267},{"NoteNumber":45,"Velocity":109,"Duration":881818,"SoundDuration":881818,"Delta":253523267},{"NoteNumber":88,"Velocity":96,"Duration":145454,"SoundDuration":145454,"Delta":253668721},{"NoteNumber":85,"Velocity":96,"Duration":145454,"SoundDuration":145454,"Delta":253814176},{"NoteNumber":88,"Velocity":105,"Duration":145454,"SoundDuration":145454,"Delta":253959631},{"NoteNumber":85,"Velocity":100,"Duration":148484,"SoundDuration":148484,"Delta":254105085},{"NoteNumber":81,"Velocity":95,"Duration":151514,"SoundDuration":151514,"Delta":254253570},{"NoteNumber":73,"Velocity":104,"Duration":146520,"SoundDuration":146520,"Delta":254405085},{"NoteNumber":40,"Velocity":86,"Duration":219779,"SoundDuration":219779,"Delta":254405085},{"NoteNumber":45,"Velocity":102,"Duration":219779,"SoundDuration":219779,"Delta":254405085},{"NoteNumber":33,"Velocity":86,"Duration":219779,"SoundDuration":219779,"Delta":254405085},{"NoteNumber":76,"Velocity":100,"Duration":146519,"SoundDuration":146519,"Delta":254551605},{"NoteNumber":81,"Velocity":95,"Duration":146520,"SoundDuration":146520,"Delta":254698125},{"NoteNumber":85,"Velocity":114,"Duration":146520,"SoundDuration":146520,"Delta":254844645},{"NoteNumber":40,"Velocity":91,"Duration":879120,"SoundDuration":879120,"Delta":254844645},{"NoteNumber":33,"Velocity":91,"Duration":879120,"SoundDuration":879120,"Delta":254844645},{"NoteNumber":45,"Velocity":108,"Duration":879120,"SoundDuration":879120,"Delta":254844645},{"NoteNumber":81,"Velocity":95,"Duration":146520,"SoundDuration":146520,"Delta":254991165},{"NoteNumber":76,"Velocity":98,"Duration":146519,"SoundDuration":146519,"Delta":255137685},{"NoteNumber":81,"Velocity":103,"Duration":146520,"SoundDuration":146520,"Delta":255284205},{"NoteNumber":76,"Velocity":95,"Duration":146520,"SoundDuration":146520,"Delta":255430725},{"NoteNumber":73,"Velocity":95,"Duration":146520,"SoundDuration":146520,"Delta":255577245},{"NoteNumber":69,"Velocity":103,"Duration":146520,"SoundDuration":146520,"Delta":255723765},{"NoteNumber":33,"Velocity":86,"Duration":219780,"SoundDuration":219780,"Delta":255723765},{"NoteNumber":40,"Velocity":86,"Duration":219780,"SoundDuration":219780,"Delta":255723765},{"NoteNumber":45,"Velocity":102,"Duration":219780,"SoundDuration":219780,"Delta":255723765},{"NoteNumber":73,"Velocity":95,"Duration":146520,"SoundDuration":146520,"Delta":255870285},{"NoteNumber":76,"Velocity":95,"Duration":146519,"SoundDuration":146519,"Delta":256016805},{"NoteNumber":81,"Velocity":114,"Duration":146520,"SoundDuration":146520,"Delta":256163325},{"NoteNumber":40,"Velocity":92,"Duration":1320991,"SoundDuration":1320991,"Delta":256163325},{"NoteNumber":33,"Velocity":92,"Duration":1320991,"SoundDuration":1320991,"Delta":256163325},{"NoteNumber":45,"Velocity":109,"Duration":1320991,"SoundDuration":1320991,"Delta":256163325},{"NoteNumber":76,"Velocity":98,"Duration":146520,"SoundDuration":146520,"Delta":256309845},{"NoteNumber":73,"Velocity":98,"Duration":146520,"SoundDuration":146520,"Delta":256456365},{"NoteNumber":76,"Velocity":102,"Duration":146520,"SoundDuration":146520,"Delta":256602885},{"NoteNumber":73,"Velocity":98,"Duration":146520,"SoundDuration":146520,"Delta":256749405},{"NoteNumber":69,"Velocity":98,"Duration":146520,"SoundDuration":146520,"Delta":256895925},{"NoteNumber":76,"Velocity":102,"Duration":146748,"SoundDuration":146748,"Delta":257042445},{"NoteNumber":73,"Velocity":97,"Duration":147289,"SoundDuration":147289,"Delta":257189194},{"NoteNumber":69,"Velocity":97,"Duration":147833,"SoundDuration":147833,"Delta":257336483},{"NoteNumber":73,"Velocity":113,"Duration":148382,"SoundDuration":148382,"Delta":257484317},{"NoteNumber":45,"Velocity":84,"Duration":446808,"SoundDuration":446808,"Delta":257484317},{"NoteNumber":40,"Velocity":71,"Duration":446808,"SoundDuration":446808,"Delta":257484317},{"NoteNumber":33,"Velocity":71,"Duration":446808,"SoundDuration":446808,"Delta":257484317},{"NoteNumber":69,"Velocity":97,"Duration":148934,"SoundDuration":148934,"Delta":257632699},{"NoteNumber":64,"Velocity":97,"Duration":149491,"SoundDuration":149491,"Delta":257781634},{"NoteNumber":69,"Velocity":102,"Duration":150052,"SoundDuration":150052,"Delta":257931125},{"NoteNumber":45,"Velocity":86,"Duration":451855,"SoundDuration":451855,"Delta":257931125},{"NoteNumber":33,"Velocity":73,"Duration":451855,"SoundDuration":451855,"Delta":257931125},{"NoteNumber":40,"Velocity":73,"Duration":451855,"SoundDuration":451855,"Delta":257931125},{"NoteNumber":64,"Velocity":97,"Duration":150617,"SoundDuration":150617,"Delta":258081177},{"NoteNumber":61,"Velocity":97,"Duration":151186,"SoundDuration":151186,"Delta":258231795},{"NoteNumber":69,"Velocity":99,"Duration":151759,"SoundDuration":151759,"Delta":258382981},{"NoteNumber":45,"Velocity":80,"Duration":457018,"SoundDuration":457018,"Delta":258382981},{"NoteNumber":40,"Velocity":68,"Duration":457018,"SoundDuration":457018,"Delta":258382981},{"NoteNumber":33,"Velocity":68,"Duration":457018,"SoundDuration":457018,"Delta":258382981},{"NoteNumber":64,"Velocity":93,"Duration":152337,"SoundDuration":152337,"Delta":258534741},{"NoteNumber":61,"Velocity":87,"Duration":152920,"SoundDuration":152920,"Delta":258687079},{"NoteNumber":64,"Velocity":81,"Duration":153507,"SoundDuration":153507,"Delta":258839999},{"NoteNumber":33,"Velocity":64,"Duration":468166,"SoundDuration":468166,"Delta":258839999},{"NoteNumber":45,"Velocity":76,"Duration":468166,"SoundDuration":468166,"Delta":258839999},{"NoteNumber":40,"Velocity":64,"Duration":468166,"SoundDuration":468166,"Delta":258839999},{"NoteNumber":61,"Velocity":78,"Duration":154098,"SoundDuration":154098,"Delta":258993506},{"NoteNumber":57,"Velocity":72,"Duration":160561,"SoundDuration":160561,"Delta":259147605},{"NoteNumber":61,"Velocity":67,"Duration":167364,"SoundDuration":167364,"Delta":259308166},{"NoteNumber":40,"Velocity":61,"Duration":502092,"SoundDuration":502092,"Delta":259308166},{"NoteNumber":45,"Velocity":72,"Duration":502092,"SoundDuration":502092,"Delta":259308166},{"NoteNumber":33,"Velocity":61,"Duration":502092,"SoundDuration":502092,"Delta":259308166},{"NoteNumber":57,"Velocity":61,"Duration":167363,"SoundDuration":167363,"Delta":259475530},{"NoteNumber":52,"Velocity":54,"Duration":167364,"SoundDuration":167364,"Delta":259642894},{"NoteNumber":49,"Velocity":52,"Duration":154440,"SoundDuration":154440,"Delta":259810258},{"NoteNumber":33,"Velocity":68,"Duration":1390276,"SoundDuration":1390276,"Delta":259810258},{"NoteNumber":52,"Velocity":50,"Duration":154439,"SoundDuration":154439,"Delta":259964698},{"NoteNumber":57,"Velocity":50,"Duration":154440,"SoundDuration":154440,"Delta":260119138},{"NoteNumber":61,"Velocity":51,"Duration":154439,"SoundDuration":154439,"Delta":260273578},{"NoteNumber":57,"Velocity":47,"Duration":154440,"SoundDuration":154440,"Delta":260428018},{"NoteNumber":52,"Velocity":48,"Duration":154440,"SoundDuration":154440,"Delta":260582458},{"NoteNumber":49,"Velocity":51,"Duration":154439,"SoundDuration":154439,"Delta":260736898},{"NoteNumber":52,"Velocity":47,"Duration":154440,"SoundDuration":154440,"Delta":260891338},{"NoteNumber":57,"Velocity":47,"Duration":154756,"SoundDuration":154756,"Delta":261045778},{"NoteNumber":49,"Velocity":51,"Duration":154921,"SoundDuration":154921,"Delta":261200535},{"NoteNumber":30,"Velocity":38,"Duration":77761,"SoundDuration":77761,"Delta":261200535},{"NoteNumber":32,"Velocity":33,"Duration":77160,"SoundDuration":77160,"Delta":261278296},{"NoteNumber":54,"Velocity":49,"Duration":152558,"SoundDuration":152558,"Delta":261355457},{"NoteNumber":30,"Velocity":38,"Duration":76570,"SoundDuration":76570,"Delta":261355457},{"NoteNumber":32,"Velocity":32,"Duration":75995,"SoundDuration":75995,"Delta":261431073},{"NoteNumber":30,"Velocity":38,"Duration":75422,"SoundDuration":75422,"Delta":261507068},{"NoteNumber":57,"Velocity":49,"Duration":150363,"SoundDuration":150363,"Delta":261508015},{"NoteNumber":32,"Velocity":33,"Duration":74952,"SoundDuration":74952,"Delta":261582490},{"NoteNumber":30,"Velocity":38,"Duration":74906,"SoundDuration":74906,"Delta":261657443},{"NoteNumber":61,"Velocity":52,"Duration":149812,"SoundDuration":149812,"Delta":261658379},{"NoteNumber":32,"Velocity":34,"Duration":74906,"SoundDuration":74906,"Delta":261731413},{"NoteNumber":30,"Velocity":38,"Duration":74906,"SoundDuration":74906,"Delta":261807255},{"NoteNumber":57,"Velocity":49,"Duration":149812,"SoundDuration":149812,"Delta":261808192},{"NoteNumber":32,"Velocity":34,"Duration":74906,"SoundDuration":74906,"Delta":261881225},{"NoteNumber":30,"Velocity":38,"Duration":74906,"SoundDuration":74906,"Delta":261956132},{"NoteNumber":54,"Velocity":49,"Duration":149812,"SoundDuration":149812,"Delta":261958004},{"NoteNumber":32,"Velocity":34,"Duration":74906,"SoundDuration":74906,"Delta":262031038},{"NoteNumber":49,"Velocity":52,"Duration":150958,"SoundDuration":150958,"Delta":262107817},{"NoteNumber":30,"Velocity":38,"Duration":90481,"SoundDuration":90481,"Delta":262107817},{"NoteNumber":32,"Velocity":34,"Duration":90780,"SoundDuration":90780,"Delta":262198298},{"NoteNumber":54,"Velocity":48,"Duration":152005,"SoundDuration":152005,"Delta":262258775},{"NoteNumber":30,"Velocity":38,"Duration":91182,"SoundDuration":91182,"Delta":262289078},{"NoteNumber":29,"Velocity":35,"Duration":91632,"SoundDuration":91632,"Delta":262380261},{"NoteNumber":57,"Velocity":48,"Duration":153066,"SoundDuration":153066,"Delta":262410781},{"NoteNumber":30,"Velocity":35,"Duration":91953,"SoundDuration":91953,"Delta":262471894},{"NoteNumber":49,"Velocity":51,"Duration":154440,"SoundDuration":154440,"Delta":262563848},{"NoteNumber":32,"Velocity":45,"Duration":2849292,"SoundDuration":2849292,"Delta":262563848},{"NoteNumber":53,"Velocity":48,"Duration":154440,"SoundDuration":154440,"Delta":262718288},{"NoteNumber":56,"Velocity":48,"Duration":154439,"SoundDuration":154439,"Delta":262872728},{"NoteNumber":61,"Velocity":50,"Duration":154440,"SoundDuration":154440,"Delta":263027168},{"NoteNumber":56,"Velocity":45,"Duration":154439,"SoundDuration":154439,"Delta":263181608},{"NoteNumber":53,"Velocity":45,"Duration":154440,"SoundDuration":154440,"Delta":263336048},{"NoteNumber":49,"Velocity":48,"Duration":154440,"SoundDuration":154440,"Delta":263490488},{"NoteNumber":53,"Velocity":45,"Duration":154439,"SoundDuration":154439,"Delta":263644928},{"NoteNumber":56,"Velocity":45,"Duration":154440,"SoundDuration":154440,"Delta":263799368},{"NoteNumber":51,"Velocity":46,"Duration":155642,"SoundDuration":155642,"Delta":263953808},{"NoteNumber":54,"Velocity":42,"Duration":155642,"SoundDuration":155642,"Delta":264109450},{"NoteNumber":56,"Velocity":42,"Duration":155642,"SoundDuration":155642,"Delta":264265092},{"NoteNumber":60,"Velocity":45,"Duration":156101,"SoundDuration":156101,"Delta":264420734},{"NoteNumber":56,"Velocity":41,"Duration":157480,"SoundDuration":157480,"Delta":264576835},{"NoteNumber":54,"Velocity":41,"Duration":157480,"SoundDuration":157480,"Delta":264734316},{"NoteNumber":51,"Velocity":44,"Duration":162148,"SoundDuration":162148,"Delta":264891796},{"NoteNumber":54,"Velocity":40,"Duration":175287,"SoundDuration":175287,"Delta":265053945},{"NoteNumber":56,"Velocity":41,"Duration":183908,"SoundDuration":183908,"Delta":265229232},{"NoteNumber":53,"Velocity":52,"Duration":154440,"SoundDuration":154440,"Delta":265413140},{"NoteNumber":37,"Velocity":51,"Duration":1389959,"SoundDuration":1389959,"Delta":265413140},{"NoteNumber":56,"Velocity":47,"Duration":154439,"SoundDuration":154439,"Delta":265567580},{"NoteNumber":61,"Velocity":47,"Duration":154440,"SoundDuration":154440,"Delta":265722020},{"NoteNumber":65,"Velocity":59,"Duration":154439,"SoundDuration":154439,"Delta":265876460},{"NoteNumber":44,"Velocity":60,"Duration":1389959,"SoundDuration":1389959,"Delta":265876460},{"NoteNumber":61,"Velocity":48,"Duration":154440,"SoundDuration":154440,"Delta":266030900},{"NoteNumber":56,"Velocity":48,"Duration":154440,"SoundDuration":154440,"Delta":266185340},{"NoteNumber":53,"Velocity":52,"Duration":154439,"SoundDuration":154439,"Delta":266339780},{"NoteNumber":56,"Velocity":48,"Duration":154440,"SoundDuration":154440,"Delta":266494220},{"NoteNumber":61,"Velocity":48,"Duration":154439,"SoundDuration":154439,"Delta":266648660},{"NoteNumber":56,"Velocity":52,"Duration":154440,"SoundDuration":154440,"Delta":266803100},{"NoteNumber":41,"Velocity":51,"Duration":1378713,"SoundDuration":1378713,"Delta":266803100},{"NoteNumber":61,"Velocity":48,"Duration":154440,"SoundDuration":154440,"Delta":266957540},{"NoteNumber":65,"Velocity":48,"Duration":154439,"SoundDuration":154439,"Delta":267111980},{"NoteNumber":68,"Velocity":61,"Duration":154440,"SoundDuration":154440,"Delta":267266420},{"NoteNumber":44,"Velocity":61,"Duration":1376931,"SoundDuration":1376931,"Delta":267266420},{"NoteNumber":65,"Velocity":47,"Duration":154440,"SoundDuration":154440,"Delta":267420860},{"NoteNumber":61,"Velocity":47,"Duration":154439,"SoundDuration":154439,"Delta":267575300},{"NoteNumber":56,"Velocity":52,"Duration":153004,"SoundDuration":153004,"Delta":267729740},{"NoteNumber":61,"Velocity":47,"Duration":149255,"SoundDuration":149255,"Delta":267882745},{"NoteNumber":65,"Velocity":47,"Duration":149812,"SoundDuration":149812,"Delta":268032000},{"NoteNumber":62,"Velocity":52,"Duration":153845,"SoundDuration":153845,"Delta":268181813},{"NoteNumber":36,"Velocity":52,"Duration":1377620,"SoundDuration":1377620,"Delta":268181813},{"NoteNumber":65,"Velocity":48,"Duration":153845,"SoundDuration":153845,"Delta":268335659},{"NoteNumber":68,"Velocity":48,"Duration":153846,"SoundDuration":153846,"Delta":268489505},{"NoteNumber":63,"Velocity":52,"Duration":153845,"SoundDuration":153845,"Delta":268643351},{"NoteNumber":44,"Velocity":59,"Duration":1370627,"SoundDuration":1370627,"Delta":268643351},{"NoteNumber":66,"Velocity":48,"Duration":153845,"SoundDuration":153845,"Delta":268797197},{"NoteNumber":68,"Velocity":48,"Duration":153845,"SoundDuration":153845,"Delta":268951043},{"NoteNumber":63,"Velocity":54,"Duration":151515,"SoundDuration":151515,"Delta":269104889},{"NoteNumber":66,"Velocity":57,"Duration":151514,"SoundDuration":151514,"Delta":269256404},{"NoteNumber":69,"Velocity":56,"Duration":151515,"SoundDuration":151515,"Delta":269407919},{"NoteNumber":60,"Velocity":63,"Duration":151515,"SoundDuration":151515,"Delta":269559434},{"NoteNumber":32,"Velocity":52,"Duration":1385279,"SoundDuration":1385279,"Delta":269559434},{"NoteNumber":66,"Velocity":58,"Duration":151514,"SoundDuration":151514,"Delta":269710949},{"NoteNumber":70,"Velocity":55,"Duration":151515,"SoundDuration":151515,"Delta":269862464},{"NoteNumber":60,"Velocity":52,"Duration":151515,"SoundDuration":151515,"Delta":270013979},{"NoteNumber":44,"Velocity":59,"Duration":1390504,"SoundDuration":1390504,"Delta":270013979},{"NoteNumber":65,"Velocity":47,"Duration":151515,"SoundDuration":151515,"Delta":270165494},{"NoteNumber":68,"Velocity":47,"Duration":151514,"SoundDuration":151514,"Delta":270317009},{"NoteNumber":60,"Velocity":52,"Duration":158729,"SoundDuration":158729,"Delta":270468524},{"NoteNumber":63,"Velocity":49,"Duration":158729,"SoundDuration":158729,"Delta":270627254},{"NoteNumber":66,"Velocity":49,"Duration":158729,"SoundDuration":158729,"Delta":270785984},{"NoteNumber":65,"Velocity":52,"Duration":153256,"SoundDuration":153256,"Delta":270944714},{"NoteNumber":37,"Velocity":51,"Duration":1383800,"SoundDuration":1383800,"Delta":270944714},{"NoteNumber":68,"Velocity":49,"Duration":153256,"SoundDuration":153256,"Delta":271097971},{"NoteNumber":73,"Velocity":49,"Duration":153256,"SoundDuration":153256,"Delta":271251227},{"NoteNumber":77,"Velocity":59,"Duration":153256,"SoundDuration":153256,"Delta":271404484},{"NoteNumber":44,"Velocity":60,"Duration":1383800,"SoundDuration":1383800,"Delta":271404484},{"NoteNumber":73,"Velocity":49,"Duration":153256,"SoundDuration":153256,"Delta":271557741},{"NoteNumber":68,"Velocity":52,"Duration":153256,"SoundDuration":153256,"Delta":271710997},{"NoteNumber":65,"Velocity":52,"Duration":154005,"SoundDuration":154005,"Delta":271864254},{"NoteNumber":68,"Velocity":49,"Duration":156250,"SoundDuration":156250,"Delta":272018259},{"NoteNumber":73,"Velocity":49,"Duration":154004,"SoundDuration":154004,"Delta":272174509},{"NoteNumber":68,"Velocity":52,"Duration":153256,"SoundDuration":153256,"Delta":272328514},{"NoteNumber":41,"Velocity":51,"Duration":1379309,"SoundDuration":1379309,"Delta":272328514},{"NoteNumber":73,"Velocity":49,"Duration":153256,"SoundDuration":153256,"Delta":272481771},{"NoteNumber":77,"Velocity":49,"Duration":153256,"SoundDuration":153256,"Delta":272635027},{"NoteNumber":80,"Velocity":61,"Duration":153256,"SoundDuration":153256,"Delta":272788284},{"NoteNumber":44,"Velocity":61,"Duration":1377574,"SoundDuration":1377574,"Delta":272788284},{"NoteNumber":77,"Velocity":50,"Duration":153256,"SoundDuration":153256,"Delta":272941541},{"NoteNumber":73,"Velocity":50,"Duration":153256,"SoundDuration":153256,"Delta":273094797},{"NoteNumber":68,"Velocity":52,"Duration":153256,"SoundDuration":153256,"Delta":273248054},{"NoteNumber":73,"Velocity":48,"Duration":153256,"SoundDuration":153256,"Delta":273401311},{"NoteNumber":77,"Velocity":52,"Duration":153256,"SoundDuration":153256,"Delta":273554567},{"NoteNumber":74,"Velocity":52,"Duration":153256,"SoundDuration":153256,"Delta":273707824},{"NoteNumber":36,"Velocity":52,"Duration":1363695,"SoundDuration":1363695,"Delta":273707824},{"NoteNumber":77,"Velocity":49,"Duration":153256,"SoundDuration":153256,"Delta":273861081},{"NoteNumber":80,"Velocity":52,"Duration":151521,"SoundDuration":151521,"Delta":274014337},{"NoteNumber":75,"Velocity":52,"Duration":150943,"SoundDuration":150943,"Delta":274165859},{"NoteNumber":44,"Velocity":59,"Duration":1358490,"SoundDuration":1358490,"Delta":274165859},{"NoteNumber":78,"Velocity":49,"Duration":150943,"SoundDuration":150943,"Delta":274316802},{"NoteNumber":80,"Velocity":49,"Duration":150943,"SoundDuration":150943,"Delta":274467746},{"NoteNumber":75,"Velocity":54,"Duration":150943,"SoundDuration":150943,"Delta":274618689},{"NoteNumber":78,"Velocity":57,"Duration":150943,"SoundDuration":150943,"Delta":274769632},{"NoteNumber":81,"Velocity":57,"Duration":150943,"SoundDuration":150943,"Delta":274920576},{"NoteNumber":72,"Velocity":63,"Duration":150943,"SoundDuration":150943,"Delta":275071519},{"NoteNumber":32,"Velocity":52,"Duration":1365430,"SoundDuration":1365430,"Delta":275071519},{"NoteNumber":78,"Velocity":58,"Duration":150943,"SoundDuration":150943,"Delta":275222462},{"NoteNumber":82,"Velocity":55,"Duration":150943,"SoundDuration":150943,"Delta":275373406},{"NoteNumber":72,"Velocity":52,"Duration":150943,"SoundDuration":150943,"Delta":275524349},{"NoteNumber":44,"Velocity":59,"Duration":912599,"SoundDuration":912599,"Delta":275524349},{"NoteNumber":77,"Velocity":48,"Duration":150943,"SoundDuration":150943,"Delta":275675292},{"NoteNumber":80,"Velocity":48,"Duration":150943,"SoundDuration":150943,"Delta":275826236},{"NoteNumber":72,"Velocity":52,"Duration":153256,"SoundDuration":153256,"Delta":275977179},{"NoteNumber":75,"Velocity":49,"Duration":153256,"SoundDuration":153256,"Delta":276130436},{"NoteNumber":78,"Velocity":49,"Duration":153256,"SoundDuration":153256,"Delta":276283692},{"NoteNumber":72,"Velocity":51,"Duration":153256,"SoundDuration":153256,"Delta":276436949},{"NoteNumber":34,"Velocity":51,"Duration":1365430,"SoundDuration":1365430,"Delta":276436949},{"NoteNumber":75,"Velocity":46,"Duration":153256,"SoundDuration":153256,"Delta":276590206},{"NoteNumber":77,"Velocity":46,"Duration":153256,"SoundDuration":153256,"Delta":276743462},{"NoteNumber":70,"Velocity":49,"Duration":150943,"SoundDuration":150943,"Delta":276896719},{"NoteNumber":46,"Velocity":49,"Duration":905660,"SoundDuration":905660,"Delta":276896719},{"NoteNumber":73,"Velocity":45,"Duration":150943,"SoundDuration":150943,"Delta":277047662},{"NoteNumber":77,"Velocity":45,"Duration":150943,"SoundDuration":150943,"Delta":277198606},{"NoteNumber":68,"Velocity":46,"Duration":150943,"SoundDuration":150943,"Delta":277349549},{"NoteNumber":72,"Velocity":42,"Duration":150943,"SoundDuration":150943,"Delta":277500492},{"NoteNumber":77,"Velocity":42,"Duration":150943,"SoundDuration":150943,"Delta":277651436},{"NoteNumber":68,"Velocity":44,"Duration":150943,"SoundDuration":150943,"Delta":277802379},{"NoteNumber":39,"Velocity":44,"Duration":905660,"SoundDuration":905660,"Delta":277802379},{"NoteNumber":70,"Velocity":39,"Duration":150943,"SoundDuration":150943,"Delta":277953322},{"NoteNumber":77,"Velocity":39,"Duration":150943,"SoundDuration":150943,"Delta":278104266},{"NoteNumber":66,"Velocity":41,"Duration":150943,"SoundDuration":150943,"Delta":278255209},{"NoteNumber":51,"Velocity":41,"Duration":452830,"SoundDuration":452830,"Delta":278255209},{"NoteNumber":70,"Velocity":37,"Duration":150943,"SoundDuration":150943,"Delta":278406152},{"NoteNumber":75,"Velocity":37,"Duration":150943,"SoundDuration":150943,"Delta":278557096},{"NoteNumber":65,"Velocity":39,"Duration":150943,"SoundDuration":150943,"Delta":278708039},{"NoteNumber":42,"Velocity":39,"Duration":452829,"SoundDuration":452829,"Delta":278708039},{"NoteNumber":54,"Velocity":39,"Duration":452829,"SoundDuration":452829,"Delta":278708039},{"NoteNumber":70,"Velocity":35,"Duration":150943,"SoundDuration":150943,"Delta":278858982},{"NoteNumber":73,"Velocity":35,"Duration":150943,"SoundDuration":150943,"Delta":279009926},{"NoteNumber":63,"Velocity":36,"Duration":153994,"SoundDuration":153994,"Delta":279160869},{"NoteNumber":44,"Velocity":36,"Duration":1389514,"SoundDuration":1389514,"Delta":279160869},{"NoteNumber":68,"Velocity":32,"Duration":154440,"SoundDuration":154440,"Delta":279314864},{"NoteNumber":72,"Velocity":34,"Duration":154439,"SoundDuration":154439,"Delta":279469304},{"NoteNumber":65,"Velocity":34,"Duration":154440,"SoundDuration":154440,"Delta":279623744},{"NoteNumber":56,"Velocity":34,"Duration":1867816,"SoundDuration":1867816,"Delta":279623744},{"NoteNumber":68,"Velocity":33,"Duration":154439,"SoundDuration":154439,"Delta":279778184},{"NoteNumber":73,"Velocity":33,"Duration":154440,"SoundDuration":154440,"Delta":279932624},{"NoteNumber":66,"Velocity":34,"Duration":154440,"SoundDuration":154440,"Delta":280087064},{"NoteNumber":68,"Velocity":33,"Duration":154439,"SoundDuration":154439,"Delta":280241504},{"NoteNumber":75,"Velocity":33,"Duration":154440,"SoundDuration":154440,"Delta":280395944},{"NoteNumber":65,"Velocity":34,"Duration":156862,"SoundDuration":156862,"Delta":280550384},{"NoteNumber":49,"Velocity":34,"Duration":941175,"SoundDuration":941175,"Delta":280550384},{"NoteNumber":68,"Velocity":32,"Duration":156862,"SoundDuration":156862,"Delta":280707246},{"NoteNumber":73,"Velocity":31,"Duration":156862,"SoundDuration":156862,"Delta":280864109},{"NoteNumber":68,"Velocity":34,"Duration":156862,"SoundDuration":156862,"Delta":281020972},{"NoteNumber":65,"Velocity":29,"Duration":156862,"SoundDuration":156862,"Delta":281177834},{"NoteNumber":61,"Velocity":29,"Duration":156862,"SoundDuration":156862,"Delta":281334697},{"NoteNumber":65,"Velocity":34,"Duration":166666,"SoundDuration":166666,"Delta":281491560},{"NoteNumber":61,"Velocity":29,"Duration":166666,"SoundDuration":166666,"Delta":281658226},{"NoteNumber":56,"Velocity":29,"Duration":166666,"SoundDuration":166666,"Delta":281824893},{"NoteNumber":53,"Velocity":36,"Duration":153845,"SoundDuration":153845,"Delta":281991560},{"NoteNumber":44,"Velocity":27,"Duration":2805614,"SoundDuration":2805614,"Delta":281991560},{"NoteNumber":37,"Velocity":27,"Duration":2805614,"SoundDuration":2805614,"Delta":281991560},{"NoteNumber":49,"Velocity":32,"Duration":2805614,"SoundDuration":2805614,"Delta":281991560},{"NoteNumber":56,"Velocity":32,"Duration":153845,"SoundDuration":153845,"Delta":282145406},{"NoteNumber":61,"Velocity":32,"Duration":153846,"SoundDuration":153846,"Delta":282299252},{"NoteNumber":65,"Velocity":36,"Duration":153845,"SoundDuration":153845,"Delta":282453098},{"NoteNumber":61,"Velocity":29,"Duration":153845,"SoundDuration":153845,"Delta":282606944},{"NoteNumber":56,"Velocity":31,"Duration":153845,"SoundDuration":153845,"Delta":282760790},{"NoteNumber":53,"Velocity":35,"Duration":153846,"SoundDuration":153846,"Delta":282914636},{"NoteNumber":56,"Velocity":31,"Duration":153845,"SoundDuration":153845,"Delta":283068482},{"NoteNumber":61,"Velocity":31,"Duration":153845,"SoundDuration":153845,"Delta":283222328},{"NoteNumber":53,"Velocity":34,"Duration":153845,"SoundDuration":153845,"Delta":283376174},{"NoteNumber":56,"Velocity":30,"Duration":153845,"SoundDuration":153845,"Delta":283530020},{"NoteNumber":61,"Velocity":30,"Duration":153846,"SoundDuration":153846,"Delta":283683866},{"NoteNumber":65,"Velocity":34,"Duration":153845,"SoundDuration":153845,"Delta":283837712},{"NoteNumber":61,"Velocity":30,"Duration":153845,"SoundDuration":153845,"Delta":283991558},{"NoteNumber":56,"Velocity":30,"Duration":153845,"SoundDuration":153845,"Delta":284145404},{"NoteNumber":53,"Velocity":34,"Duration":165975,"SoundDuration":165975,"Delta":284299250},{"NoteNumber":56,"Velocity":30,"Duration":165975,"SoundDuration":165975,"Delta":284465225},{"NoteNumber":61,"Velocity":30,"Duration":165975,"SoundDuration":165975,"Delta":284631200},{"NoteNumber":52,"Velocity":33,"Duration":152671,"SoundDuration":152671,"Delta":284797175},{"NoteNumber":49,"Velocity":31,"Duration":1375371,"SoundDuration":1375371,"Delta":284797175},{"NoteNumber":37,"Velocity":26,"Duration":1375371,"SoundDuration":1375371,"Delta":284797175},{"NoteNumber":56,"Velocity":28,"Duration":152671,"SoundDuration":152671,"Delta":284949846},{"NoteNumber":61,"Velocity":28,"Duration":152671,"SoundDuration":152671,"Delta":285102518},{"NoteNumber":64,"Velocity":32,"Duration":152671,"SoundDuration":152671,"Delta":285255190},{"NoteNumber":61,"Velocity":28,"Duration":152671,"SoundDuration":152671,"Delta":285407861},{"NoteNumber":56,"Velocity":28,"Duration":152671,"SoundDuration":152671,"Delta":285560533},{"NoteNumber":52,"Velocity":32,"Duration":152671,"SoundDuration":152671,"Delta":285713205},{"NoteNumber":56,"Velocity":27,"Duration":152671,"SoundDuration":152671,"Delta":285865876},{"NoteNumber":61,"Velocity":28,"Duration":153997,"SoundDuration":153997,"Delta":286018548},{"NoteNumber":52,"Velocity":31,"Duration":154439,"SoundDuration":154439,"Delta":286172546},{"NoteNumber":46,"Velocity":31,"Duration":1408567,"SoundDuration":1408567,"Delta":286172546},{"NoteNumber":34,"Velocity":26,"Duration":1408567,"SoundDuration":1408567,"Delta":286172546},{"NoteNumber":58,"Velocity":27,"Duration":154440,"SoundDuration":154440,"Delta":286326986},{"NoteNumber":61,"Velocity":27,"Duration":154440,"SoundDuration":154440,"Delta":286481426},{"NoteNumber":64,"Velocity":30,"Duration":154439,"SoundDuration":154439,"Delta":286635866},{"NoteNumber":61,"Velocity":27,"Duration":154440,"SoundDuration":154440,"Delta":286790306},{"NoteNumber":58,"Velocity":27,"Duration":154439,"SoundDuration":154439,"Delta":286944746},{"NoteNumber":52,"Velocity":29,"Duration":160642,"SoundDuration":160642,"Delta":287099186},{"NoteNumber":58,"Velocity":27,"Duration":160642,"SoundDuration":160642,"Delta":287259829},{"NoteNumber":61,"Velocity":27,"Duration":160642,"SoundDuration":160642,"Delta":287420471},{"NoteNumber":51,"Velocity":29,"Duration":155038,"SoundDuration":155038,"Delta":287581114},{"NoteNumber":39,"Velocity":26,"Duration":1395348,"SoundDuration":1395348,"Delta":287581114},{"NoteNumber":43,"Velocity":31,"Duration":1395348,"SoundDuration":1395348,"Delta":287581114},{"NoteNumber":31,"Velocity":26,"Duration":1395348,"SoundDuration":1395348,"Delta":287581114},{"NoteNumber":58,"Velocity":27,"Duration":155038,"SoundDuration":155038,"Delta":287736153},{"NoteNumber":61,"Velocity":27,"Duration":155038,"SoundDuration":155038,"Delta":287891191},{"NoteNumber":63,"Velocity":28,"Duration":155038,"SoundDuration":155038,"Delta":288046230},{"NoteNumber":61,"Velocity":27,"Duration":155038,"SoundDuration":155038,"Delta":288201269},{"NoteNumber":58,"Velocity":27,"Duration":155038,"SoundDuration":155038,"Delta":288356307},{"NoteNumber":51,"Velocity":28,"Duration":155038,"SoundDuration":155038,"Delta":288511346},{"NoteNumber":58,"Velocity":23,"Duration":155038,"SoundDuration":155038,"Delta":288666385},{"NoteNumber":61,"Velocity":23,"Duration":155038,"SoundDuration":155038,"Delta":288821423},{"NoteNumber":51,"Velocity":28,"Duration":160000,"SoundDuration":160000,"Delta":288976462},{"NoteNumber":31,"Velocity":26,"Duration":1439999,"SoundDuration":1439999,"Delta":288976462},{"NoteNumber":39,"Velocity":26,"Duration":1439999,"SoundDuration":1439999,"Delta":288976462},{"NoteNumber":43,"Velocity":31,"Duration":1439999,"SoundDuration":1439999,"Delta":288976462},{"NoteNumber":58,"Velocity":24,"Duration":159999,"SoundDuration":159999,"Delta":289136462},{"NoteNumber":61,"Velocity":24,"Duration":160000,"SoundDuration":160000,"Delta":289296462},{"NoteNumber":63,"Velocity":27,"Duration":159999,"SoundDuration":159999,"Delta":289456462},{"NoteNumber":61,"Velocity":25,"Duration":160000,"SoundDuration":160000,"Delta":289616462},{"NoteNumber":58,"Velocity":25,"Duration":159999,"SoundDuration":159999,"Delta":289776462},{"NoteNumber":51,"Velocity":26,"Duration":160000,"SoundDuration":160000,"Delta":289936462},{"NoteNumber":58,"Velocity":26,"Duration":159999,"SoundDuration":159999,"Delta":290096462},{"NoteNumber":61,"Velocity":26,"Duration":160000,"SoundDuration":160000,"Delta":290256462},{"NoteNumber":63,"Velocity":38,"Duration":496259,"SoundDuration":496259,"Delta":290416462},{"NoteNumber":43,"Velocity":22,"Duration":1036075,"SoundDuration":1036075,"Delta":290416462},{"NoteNumber":61,"Velocity":26,"Duration":1036075,"SoundDuration":1036075,"Delta":290416462},{"NoteNumber":51,"Velocity":26,"Duration":1036075,"SoundDuration":1036075,"Delta":290416462},{"NoteNumber":31,"Velocity":22,"Duration":1036075,"SoundDuration":1036075,"Delta":290416462},{"NoteNumber":39,"Velocity":22,"Duration":1036075,"SoundDuration":1036075,"Delta":290416462},{"NoteNumber":58,"Velocity":26,"Duration":1036075,"SoundDuration":1036075,"Delta":290416462},{"NoteNumber":63,"Velocity":39,"Duration":528692,"SoundDuration":528692,"Delta":290918137},{"NoteNumber":63,"Velocity":39,"Duration":560799,"SoundDuration":560799,"Delta":291452538},{"NoteNumber":51,"Velocity":27,"Duration":560799,"SoundDuration":560799,"Delta":291452538},{"NoteNumber":63,"Velocity":40,"Duration":603885,"SoundDuration":603885,"Delta":292019464},{"NoteNumber":51,"Velocity":27,"Duration":603885,"SoundDuration":603885,"Delta":292019464},{"NoteNumber":63,"Velocity":40,"Duration":654241,"SoundDuration":654241,"Delta":292629964},{"NoteNumber":51,"Velocity":27,"Duration":654241,"SoundDuration":654241,"Delta":292629964},{"NoteNumber":63,"Velocity":46,"Duration":596733,"SoundDuration":596733,"Delta":293291389},{"NoteNumber":51,"Velocity":27,"Duration":596733,"SoundDuration":596733,"Delta":293291389},{"NoteNumber":68,"Velocity":46,"Duration":593750,"SoundDuration":593750,"Delta":293894404},{"NoteNumber":63,"Velocity":34,"Duration":593750,"SoundDuration":593750,"Delta":293894404},{"NoteNumber":60,"Velocity":34,"Duration":593750,"SoundDuration":593750,"Delta":293894404},{"NoteNumber":51,"Velocity":27,"Duration":593750,"SoundDuration":593750,"Delta":293894404},{"NoteNumber":44,"Velocity":27,"Duration":1690910,"SoundDuration":1690910,"Delta":293894404},{"NoteNumber":63,"Velocity":34,"Duration":1090910,"SoundDuration":1090910,"Delta":294494404},{"NoteNumber":68,"Velocity":46,"Duration":818182,"SoundDuration":818182,"Delta":294494404},{"NoteNumber":60,"Velocity":34,"Duration":1090910,"SoundDuration":1090910,"Delta":294494404},{"NoteNumber":51,"Velocity":27,"Duration":1090910,"SoundDuration":1090910,"Delta":294494404},{"NoteNumber":70,"Velocity":39,"Duration":272727,"SoundDuration":272727,"Delta":295312586},{"NoteNumber":61,"Velocity":34,"Duration":592954,"SoundDuration":592954,"Delta":295585314},{"NoteNumber":68,"Velocity":46,"Duration":592954,"SoundDuration":592954,"Delta":295585314},{"NoteNumber":63,"Velocity":34,"Duration":592954,"SoundDuration":592954,"Delta":295585314},{"NoteNumber":46,"Velocity":27,"Duration":1689546,"SoundDuration":1689546,"Delta":295585314},{"NoteNumber":51,"Velocity":27,"Duration":592954,"SoundDuration":592954,"Delta":295585314},{"NoteNumber":63,"Velocity":34,"Duration":1090910,"SoundDuration":1090910,"Delta":296183950},{"NoteNumber":61,"Velocity":34,"Duration":1090910,"SoundDuration":1090910,"Delta":296183950},{"NoteNumber":67,"Velocity":46,"Duration":818182,"SoundDuration":818182,"Delta":296183950},{"NoteNumber":51,"Velocity":27,"Duration":1090910,"SoundDuration":1090910,"Delta":296183950},{"NoteNumber":70,"Velocity":37,"Duration":270454,"SoundDuration":270454,"Delta":297002133},{"NoteNumber":70,"Velocity":46,"Duration":539773,"SoundDuration":539773,"Delta":297274860},{"NoteNumber":48,"Velocity":27,"Duration":1090910,"SoundDuration":1090910,"Delta":297274860},{"NoteNumber":51,"Velocity":27,"Duration":539773,"SoundDuration":539773,"Delta":297274860},{"NoteNumber":63,"Velocity":38,"Duration":539773,"SoundDuration":539773,"Delta":297820315},{"NoteNumber":68,"Velocity":51,"Duration":539773,"SoundDuration":539773,"Delta":297820315},{"NoteNumber":51,"Velocity":27,"Duration":539773,"SoundDuration":539773,"Delta":297820315},{"NoteNumber":61,"Velocity":39,"Duration":593750,"SoundDuration":593750,"Delta":298365770},{"NoteNumber":63,"Velocity":39,"Duration":593750,"SoundDuration":593750,"Delta":298365770},{"NoteNumber":70,"Velocity":52,"Duration":593750,"SoundDuration":593750,"Delta":298365770},{"NoteNumber":51,"Velocity":27,"Duration":593750,"SoundDuration":593750,"Delta":298365770},{"NoteNumber":43,"Velocity":27,"Duration":593750,"SoundDuration":593750,"Delta":298365770},{"NoteNumber":72,"Velocity":55,"Duration":1101743,"SoundDuration":1101743,"Delta":298965770},{"NoteNumber":60,"Velocity":40,"Duration":1101743,"SoundDuration":1101743,"Delta":298965770},{"NoteNumber":63,"Velocity":40,"Duration":1101743,"SoundDuration":1101743,"Delta":298965770},{"NoteNumber":51,"Velocity":27,"Duration":1101743,"SoundDuration":1101743,"Delta":298965770},{"NoteNumber":44,"Velocity":27,"Duration":1101743,"SoundDuration":1101743,"Delta":298965770},{"NoteNumber":63,"Velocity":59,"Duration":593750,"SoundDuration":593750,"Delta":300067514},{"NoteNumber":51,"Velocity":33,"Duration":593750,"SoundDuration":593750,"Delta":300067514},{"NoteNumber":72,"Velocity":72,"Duration":593750,"SoundDuration":593750,"Delta":300667514},{"NoteNumber":60,"Velocity":54,"Duration":593750,"SoundDuration":593750,"Delta":300667514},{"NoteNumber":63,"Velocity":54,"Duration":593750,"SoundDuration":593750,"Delta":300667514},{"NoteNumber":51,"Velocity":33,"Duration":593750,"SoundDuration":593750,"Delta":300667514},{"NoteNumber":44,"Velocity":33,"Duration":1690951,"SoundDuration":1690951,"Delta":300667514},{"NoteNumber":63,"Velocity":55,"Duration":818223,"SoundDuration":818223,"Delta":301267514},{"NoteNumber":60,"Velocity":55,"Duration":818223,"SoundDuration":818223,"Delta":301267514},{"NoteNumber":72,"Velocity":73,"Duration":818223,"SoundDuration":818223,"Delta":301267514},{"NoteNumber":51,"Velocity":33,"Duration":1090951,"SoundDuration":1090951,"Delta":301267514},{"NoteNumber":61,"Velocity":46,"Duration":270454,"SoundDuration":270454,"Delta":302085738},{"NoteNumber":73,"Velocity":63,"Duration":270454,"SoundDuration":270454,"Delta":302085738},{"NoteNumber":63,"Velocity":46,"Duration":270454,"SoundDuration":270454,"Delta":302085738},{"NoteNumber":72,"Velocity":71,"Duration":592840,"SoundDuration":592840,"Delta":302358465},{"NoteNumber":60,"Velocity":52,"Duration":592840,"SoundDuration":592840,"Delta":302358465},{"NoteNumber":63,"Velocity":52,"Duration":592840,"SoundDuration":592840,"Delta":302358465},{"NoteNumber":49,"Velocity":33,"Duration":1694980,"SoundDuration":1694980,"Delta":302358465},{"NoteNumber":51,"Velocity":33,"Duration":592840,"SoundDuration":592840,"Delta":302358465},{"NoteNumber":70,"Velocity":64,"Duration":821917,"SoundDuration":821917,"Delta":302957556},{"NoteNumber":63,"Velocity":47,"Duration":821917,"SoundDuration":821917,"Delta":302957556},{"NoteNumber":58,"Velocity":47,"Duration":821917,"SoundDuration":821917,"Delta":302957556},{"NoteNumber":51,"Velocity":33,"Duration":1095889,"SoundDuration":1095889,"Delta":302957556},{"NoteNumber":60,"Velocity":39,"Duration":271689,"SoundDuration":271689,"Delta":303779474},{"NoteNumber":72,"Velocity":52,"Duration":271689,"SoundDuration":271689,"Delta":303779474},{"NoteNumber":63,"Velocity":39,"Duration":271689,"SoundDuration":271689,"Delta":303779474},{"NoteNumber":70,"Velocity":56,"Duration":593750,"SoundDuration":593750,"Delta":304053446},{"NoteNumber":63,"Velocity":41,"Duration":593750,"SoundDuration":593750,"Delta":304053446},{"NoteNumber":58,"Velocity":41,"Duration":593750,"SoundDuration":593750,"Delta":304053446},{"NoteNumber":51,"Velocity":31,"Duration":593750,"SoundDuration":593750,"Delta":304053446},{"NoteNumber":48,"Velocity":31,"Duration":1238298,"SoundDuration":1238298,"Delta":304053446},{"NoteNumber":68,"Velocity":52,"Duration":631649,"SoundDuration":631649,"Delta":304653446},{"NoteNumber":56,"Velocity":39,"Duration":631649,"SoundDuration":631649,"Delta":304653446},{"NoteNumber":63,"Velocity":39,"Duration":631649,"SoundDuration":631649,"Delta":304653446},{"NoteNumber":51,"Velocity":31,"Duration":631649,"SoundDuration":631649,"Delta":304653446},{"NoteNumber":70,"Velocity":56,"Duration":638297,"SoundDuration":638297,"Delta":305291744},{"NoteNumber":75,"Velocity":66,"Duration":478723,"SoundDuration":478723,"Delta":305291744},{"NoteNumber":63,"Velocity":49,"Duration":638297,"SoundDuration":638297,"Delta":305291744},{"NoteNumber":43,"Velocity":31,"Duration":638297,"SoundDuration":638297,"Delta":305291744},{"NoteNumber":51,"Velocity":31,"Duration":638297,"SoundDuration":638297,"Delta":305291744},{"NoteNumber":73,"Velocity":59,"Duration":159574,"SoundDuration":159574,"Delta":305770468},{"NoteNumber":63,"Velocity":36,"Duration":1230770,"SoundDuration":1230770,"Delta":305930042},{"NoteNumber":72,"Velocity":49,"Duration":1230770,"SoundDuration":1230770,"Delta":305930042},{"NoteNumber":68,"Velocity":36,"Duration":1230770,"SoundDuration":1230770,"Delta":305930042},{"NoteNumber":51,"Velocity":29,"Duration":1230770,"SoundDuration":1230770,"Delta":305930042},{"NoteNumber":44,"Velocity":29,"Duration":1230770,"SoundDuration":1230770,"Delta":305930042},{"NoteNumber":75,"Velocity":56,"Duration":593706,"SoundDuration":593706,"Delta":307160812},{"NoteNumber":51,"Velocity":27,"Duration":593706,"SoundDuration":593706,"Delta":307160812},{"NoteNumber":75,"Velocity":34,"Duration":590796,"SoundDuration":590796,"Delta":307760738},{"NoteNumber":80,"Velocity":54,"Duration":590796,"SoundDuration":590796,"Delta":307760738},{"NoteNumber":72,"Velocity":34,"Duration":590796,"SoundDuration":590796,"Delta":307760738},{"NoteNumber":44,"Velocity":27,"Duration":1687924,"SoundDuration":1687924,"Delta":307760738},{"NoteNumber":51,"Velocity":27,"Duration":590796,"SoundDuration":590796,"Delta":307760738},{"NoteNumber":75,"Velocity":34,"Duration":1090910,"SoundDuration":1090910,"Delta":308357753},{"NoteNumber":80,"Velocity":57,"Duration":818182,"SoundDuration":818182,"Delta":308357753},{"NoteNumber":72,"Velocity":34,"Duration":1090910,"SoundDuration":1090910,"Delta":308357753},{"NoteNumber":51,"Velocity":27,"Duration":1090910,"SoundDuration":1090910,"Delta":308357753},{"NoteNumber":82,"Velocity":53,"Duration":272727,"SoundDuration":272727,"Delta":309175935},{"NoteNumber":73,"Velocity":34,"Duration":564664,"SoundDuration":564664,"Delta":309448663},{"NoteNumber":80,"Velocity":57,"Duration":564664,"SoundDuration":564664,"Delta":309448663},{"NoteNumber":75,"Velocity":34,"Duration":564664,"SoundDuration":564664,"Delta":309448663},{"NoteNumber":46,"Velocity":27,"Duration":1661256,"SoundDuration":1661256,"Delta":309448663},{"NoteNumber":51,"Velocity":27,"Duration":564664,"SoundDuration":564664,"Delta":309448663},{"NoteNumber":79,"Velocity":57,"Duration":818182,"SoundDuration":818182,"Delta":310019010},{"NoteNumber":75,"Velocity":34,"Duration":1090910,"SoundDuration":1090910,"Delta":310019010},{"NoteNumber":73,"Velocity":34,"Duration":1090910,"SoundDuration":1090910,"Delta":310019010},{"NoteNumber":51,"Velocity":27,"Duration":545455,"SoundDuration":545455,"Delta":310019010},{"NoteNumber":82,"Velocity":57,"Duration":272727,"SoundDuration":272727,"Delta":310837192},{"NoteNumber":82,"Velocity":57,"Duration":539773,"SoundDuration":539773,"Delta":311109920},{"NoteNumber":51,"Velocity":27,"Duration":539773,"SoundDuration":539773,"Delta":311109920},{"NoteNumber":48,"Velocity":27,"Duration":1091696,"SoundDuration":1091696,"Delta":311109920},{"NoteNumber":75,"Velocity":35,"Duration":540232,"SoundDuration":540232,"Delta":311655375},{"NoteNumber":80,"Velocity":59,"Duration":540232,"SoundDuration":540232,"Delta":311655375},{"NoteNumber":51,"Velocity":28,"Duration":540232,"SoundDuration":540232,"Delta":311655375},{"NoteNumber":73,"Velocity":37,"Duration":568182,"SoundDuration":568182,"Delta":312201616},{"NoteNumber":82,"Velocity":62,"Duration":568182,"SoundDuration":568182,"Delta":312201616},{"NoteNumber":75,"Velocity":37,"Duration":568182,"SoundDuration":568182,"Delta":312201616},{"NoteNumber":51,"Velocity":29,"Duration":568182,"SoundDuration":568182,"Delta":312201616},{"NoteNumber":43,"Velocity":29,"Duration":568182,"SoundDuration":568182,"Delta":312201616},{"NoteNumber":75,"Velocity":40,"Duration":1101313,"SoundDuration":1101313,"Delta":312775779},{"NoteNumber":84,"Velocity":66,"Duration":1101313,"SoundDuration":1101313,"Delta":312775779},{"NoteNumber":72,"Velocity":40,"Duration":1101313,"SoundDuration":1101313,"Delta":312775779},{"NoteNumber":51,"Velocity":32,"Duration":1101313,"SoundDuration":1101313,"Delta":312775779},{"NoteNumber":44,"Velocity":32,"Duration":1101313,"SoundDuration":1101313,"Delta":312775779},{"NoteNumber":75,"Velocity":65,"Duration":593750,"SoundDuration":593750,"Delta":313877092},{"NoteNumber":51,"Velocity":31,"Duration":593750,"SoundDuration":593750,"Delta":313877092},{"NoteNumber":84,"Velocity":73,"Duration":593750,"SoundDuration":593750,"Delta":314477092},{"NoteNumber":72,"Velocity":44,"Duration":593750,"SoundDuration":593750,"Delta":314477092},{"NoteNumber":75,"Velocity":44,"Duration":593750,"SoundDuration":593750,"Delta":314477092},{"NoteNumber":44,"Velocity":34,"Duration":1703678,"SoundDuration":1703678,"Delta":314477092},{"NoteNumber":51,"Velocity":34,"Duration":593750,"SoundDuration":593750,"Delta":314477092},{"NoteNumber":72,"Velocity":44,"Duration":1103678,"SoundDuration":1103678,"Delta":315077092},{"NoteNumber":75,"Velocity":44,"Duration":1103678,"SoundDuration":1103678,"Delta":315077092},{"NoteNumber":84,"Velocity":74,"Duration":818223,"SoundDuration":818223,"Delta":315077092},{"NoteNumber":51,"Velocity":35,"Duration":1103678,"SoundDuration":1103678,"Delta":315077092},{"NoteNumber":85,"Velocity":70,"Duration":285454,"SoundDuration":285454,"Delta":315895316},{"NoteNumber":72,"Velocity":37,"Duration":593750,"SoundDuration":593750,"Delta":316180771},{"NoteNumber":84,"Velocity":59,"Duration":593750,"SoundDuration":593750,"Delta":316180771},{"NoteNumber":76,"Velocity":37,"Duration":593750,"SoundDuration":593750,"Delta":316180771},{"NoteNumber":43,"Velocity":31,"Duration":1695890,"SoundDuration":1695890,"Delta":316180771},{"NoteNumber":48,"Velocity":31,"Duration":593750,"SoundDuration":593750,"Delta":316180771},{"NoteNumber":76,"Velocity":36,"Duration":1095889,"SoundDuration":1095889,"Delta":316780771},{"NoteNumber":72,"Velocity":36,"Duration":1095889,"SoundDuration":1095889,"Delta":316780771},{"NoteNumber":82,"Velocity":52,"Duration":821917,"SoundDuration":821917,"Delta":316780771},{"NoteNumber":48,"Velocity":31,"Duration":1095889,"SoundDuration":1095889,"Delta":316780771},{"NoteNumber":84,"Velocity":54,"Duration":273972,"SoundDuration":273972,"Delta":317602688},{"NoteNumber":72,"Velocity":36,"Duration":593750,"SoundDuration":593750,"Delta":317876661},{"NoteNumber":77,"Velocity":36,"Duration":593750,"SoundDuration":593750,"Delta":317876661},{"NoteNumber":82,"Velocity":49,"Duration":593750,"SoundDuration":593750,"Delta":317876661},{"NoteNumber":41,"Velocity":31,"Duration":1179710,"SoundDuration":1179710,"Delta":317876661},{"NoteNumber":48,"Velocity":31,"Duration":593750,"SoundDuration":593750,"Delta":317876661},{"NoteNumber":72,"Velocity":34,"Duration":573671,"SoundDuration":573671,"Delta":318476661},{"NoteNumber":77,"Velocity":34,"Duration":573671,"SoundDuration":573671,"Delta":318476661},{"NoteNumber":80,"Velocity":47,"Duration":193236,"SoundDuration":193236,"Delta":318476661},{"NoteNumber":48,"Velocity":31,"Duration":573671,"SoundDuration":573671,"Delta":318476661},{"NoteNumber":82,"Velocity":52,"Duration":96618,"SoundDuration":96618,"Delta":318669898},{"NoteNumber":80,"Velocity":51,"Duration":96618,"SoundDuration":96618,"Delta":318766516},{"NoteNumber":79,"Velocity":51,"Duration":96618,"SoundDuration":96618,"Delta":318863134},{"NoteNumber":80,"Velocity":51,"Duration":96618,"SoundDuration":96618,"Delta":318959753},{"NoteNumber":73,"Velocity":37,"Duration":643263,"SoundDuration":643263,"Delta":319056371},{"NoteNumber":79,"Velocity":37,"Duration":643263,"SoundDuration":643263,"Delta":319056371},{"NoteNumber":84,"Velocity":64,"Duration":469853,"SoundDuration":469853,"Delta":319056371},{"NoteNumber":39,"Velocity":29,"Duration":643263,"SoundDuration":643263,"Delta":319056371},{"NoteNumber":51,"Velocity":29,"Duration":643263,"SoundDuration":643263,"Delta":319056371},{"NoteNumber":82,"Velocity":62,"Duration":173410,"SoundDuration":173410,"Delta":319526224},{"NoteNumber":72,"Velocity":35,"Duration":1256544,"SoundDuration":1256544,"Delta":319699635},{"NoteNumber":80,"Velocity":54,"Duration":1256544,"SoundDuration":1256544,"Delta":319699635},{"NoteNumber":51,"Velocity":28,"Duration":1256544,"SoundDuration":1256544,"Delta":319699635},{"NoteNumber":44,"Velocity":28,"Duration":1256544,"SoundDuration":1256544,"Delta":319699635},{"NoteNumber":75,"Velocity":80,"Duration":247916,"SoundDuration":247916,"Delta":321270315},{"NoteNumber":63,"Velocity":68,"Duration":247916,"SoundDuration":247916,"Delta":321270315},{"NoteNumber":68,"Velocity":68,"Duration":247916,"SoundDuration":247916,"Delta":321270315},{"NoteNumber":56,"Velocity":54,"Duration":247916,"SoundDuration":247916,"Delta":321270315},{"NoteNumber":60,"Velocity":64,"Duration":247916,"SoundDuration":247916,"Delta":321270315},{"NoteNumber":48,"Velocity":54,"Duration":247916,"SoundDuration":247916,"Delta":321270315},{"NoteNumber":75,"Velocity":91,"Duration":544725,"SoundDuration":544725,"Delta":321520315},{"NoteNumber":63,"Velocity":77,"Duration":544725,"SoundDuration":544725,"Delta":321520315},{"NoteNumber":68,"Velocity":77,"Duration":544725,"SoundDuration":544725,"Delta":321520315},{"NoteNumber":60,"Velocity":73,"Duration":544725,"SoundDuration":544725,"Delta":321520315},{"NoteNumber":56,"Velocity":62,"Duration":544725,"SoundDuration":544725,"Delta":321520315},{"NoteNumber":48,"Velocity":62,"Duration":544725,"SoundDuration":544725,"Delta":321520315},{"NoteNumber":68,"Velocity":74,"Duration":777056,"SoundDuration":777056,"Delta":322070774},{"NoteNumber":75,"Velocity":88,"Duration":777056,"SoundDuration":777056,"Delta":322070774},{"NoteNumber":63,"Velocity":74,"Duration":777056,"SoundDuration":777056,"Delta":322070774},{"NoteNumber":48,"Velocity":59,"Duration":777056,"SoundDuration":777056,"Delta":322070774},{"NoteNumber":56,"Velocity":59,"Duration":777056,"SoundDuration":777056,"Delta":322070774},{"NoteNumber":60,"Velocity":70,"Duration":777056,"SoundDuration":777056,"Delta":322070774},{"NoteNumber":60,"Velocity":68,"Duration":248953,"SoundDuration":248953,"Delta":322855153},{"NoteNumber":72,"Velocity":80,"Duration":248953,"SoundDuration":248953,"Delta":322855153},{"NoteNumber":63,"Velocity":68,"Duration":248953,"SoundDuration":248953,"Delta":322855153},{"NoteNumber":44,"Velocity":54,"Duration":248953,"SoundDuration":248953,"Delta":322855153},{"NoteNumber":51,"Velocity":54,"Duration":248953,"SoundDuration":248953,"Delta":322855153},{"NoteNumber":56,"Velocity":64,"Duration":248953,"SoundDuration":248953,"Delta":322855153},{"NoteNumber":72,"Velocity":91,"Duration":547234,"SoundDuration":547234,"Delta":323106199},{"NoteNumber":63,"Velocity":77,"Duration":547234,"SoundDuration":547234,"Delta":323106199},{"NoteNumber":60,"Velocity":77,"Duration":547234,"SoundDuration":547234,"Delta":323106199},{"NoteNumber":44,"Velocity":61,"Duration":547234,"SoundDuration":547234,"Delta":323106199},{"NoteNumber":56,"Velocity":72,"Duration":547234,"SoundDuration":547234,"Delta":323106199},{"NoteNumber":51,"Velocity":61,"Duration":547234,"SoundDuration":547234,"Delta":323106199},{"NoteNumber":63,"Velocity":73,"Duration":802311,"SoundDuration":802311,"Delta":323659194},{"NoteNumber":60,"Velocity":73,"Duration":802311,"SoundDuration":802311,"Delta":323659194},{"NoteNumber":72,"Velocity":86,"Duration":802311,"SoundDuration":802311,"Delta":323659194},{"NoteNumber":44,"Velocity":59,"Duration":802311,"SoundDuration":802311,"Delta":323659194},{"NoteNumber":51,"Velocity":59,"Duration":802311,"SoundDuration":802311,"Delta":323659194},{"NoteNumber":56,"Velocity":70,"Duration":802311,"SoundDuration":802311,"Delta":323659194},{"NoteNumber":65,"Velocity":67,"Duration":259825,"SoundDuration":259825,"Delta":324469147},{"NoteNumber":60,"Velocity":67,"Duration":259825,"SoundDuration":259825,"Delta":324469147},{"NoteNumber":68,"Velocity":79,"Duration":259825,"SoundDuration":259825,"Delta":324469147},{"NoteNumber":53,"Velocity":64,"Duration":259825,"SoundDuration":259825,"Delta":324469147},{"NoteNumber":41,"Velocity":54,"Duration":259825,"SoundDuration":259825,"Delta":324469147},{"NoteNumber":65,"Velocity":67,"Duration":391304,"SoundDuration":391304,"Delta":324731156},{"NoteNumber":68,"Velocity":79,"Duration":391304,"SoundDuration":391304,"Delta":324731156},{"NoteNumber":60,"Velocity":67,"Duration":391304,"SoundDuration":391304,"Delta":324731156},{"NoteNumber":41,"Velocity":54,"Duration":391304,"SoundDuration":391304,"Delta":324731156},{"NoteNumber":53,"Velocity":64,"Duration":391304,"SoundDuration":391304,"Delta":324731156},{"NoteNumber":61,"Velocity":68,"Duration":407239,"SoundDuration":407239,"Delta":325252895},{"NoteNumber":70,"Velocity":80,"Duration":407239,"SoundDuration":407239,"Delta":325252895},{"NoteNumber":63,"Velocity":68,"Duration":407239,"SoundDuration":407239,"Delta":325252895},{"NoteNumber":43,"Velocity":54,"Duration":407239,"SoundDuration":407239,"Delta":325252895},{"NoteNumber":55,"Velocity":64,"Duration":407239,"SoundDuration":407239,"Delta":325252895},{"NoteNumber":61,"Velocity":68,"Duration":422534,"SoundDuration":422534,"Delta":325795881},{"NoteNumber":67,"Velocity":68,"Duration":422534,"SoundDuration":422534,"Delta":325795881},{"NoteNumber":63,"Velocity":68,"Duration":422534,"SoundDuration":422534,"Delta":325795881},{"NoteNumber":73,"Velocity":80,"Duration":422534,"SoundDuration":422534,"Delta":325795881},{"NoteNumber":70,"Velocity":68,"Duration":422534,"SoundDuration":422534,"Delta":325795881},{"NoteNumber":39,"Velocity":54,"Duration":422534,"SoundDuration":422534,"Delta":325795881},{"NoteNumber":51,"Velocity":64,"Duration":422534,"SoundDuration":422534,"Delta":325795881},{"NoteNumber":60,"Velocity":68,"Duration":1346541,"SoundDuration":1346541,"Delta":326359261},{"NoteNumber":63,"Velocity":68,"Duration":1346541,"SoundDuration":1346541,"Delta":326359261},{"NoteNumber":68,"Velocity":80,"Duration":1346541,"SoundDuration":1346541,"Delta":326359261},{"NoteNumber":72,"Velocity":80,"Duration":1346541,"SoundDuration":1346541,"Delta":326359261},{"NoteNumber":44,"Velocity":54,"Duration":1346541,"SoundDuration":1346541,"Delta":326359261},{"NoteNumber":51,"Velocity":54,"Duration":1346541,"SoundDuration":1346541,"Delta":326359261},{"NoteNumber":56,"Velocity":64,"Duration":1346541,"SoundDuration":1346541,"Delta":326359261},{"NoteNumber":77,"Velocity":93,"Duration":271689,"SoundDuration":271689,"Delta":327705802},{"NoteNumber":65,"Velocity":79,"Duration":271689,"SoundDuration":271689,"Delta":327705802},{"NoteNumber":68,"Velocity":79,"Duration":271689,"SoundDuration":271689,"Delta":327705802},{"NoteNumber":37,"Velocity":68,"Duration":271689,"SoundDuration":271689,"Delta":327705802},{"NoteNumber":44,"Velocity":68,"Duration":271689,"SoundDuration":271689,"Delta":327705802},{"NoteNumber":49,"Velocity":80,"Duration":271689,"SoundDuration":271689,"Delta":327705802},{"NoteNumber":65,"Velocity":85,"Duration":542237,"SoundDuration":542237,"Delta":327979775},{"NoteNumber":77,"Velocity":100,"Duration":542237,"SoundDuration":542237,"Delta":327979775},{"NoteNumber":68,"Velocity":85,"Duration":542237,"SoundDuration":542237,"Delta":327979775},{"NoteNumber":49,"Velocity":80,"Duration":542237,"SoundDuration":542237,"Delta":327979775},{"NoteNumber":44,"Velocity":68,"Duration":542237,"SoundDuration":542237,"Delta":327979775},{"NoteNumber":37,"Velocity":68,"Duration":542237,"SoundDuration":542237,"Delta":327979775},{"NoteNumber":68,"Velocity":85,"Duration":813926,"SoundDuration":813926,"Delta":328527720},{"NoteNumber":77,"Velocity":100,"Duration":813926,"SoundDuration":813926,"Delta":328527720},{"NoteNumber":65,"Velocity":85,"Duration":813926,"SoundDuration":813926,"Delta":328527720},{"NoteNumber":44,"Velocity":68,"Duration":813926,"SoundDuration":813926,"Delta":328527720},{"NoteNumber":37,"Velocity":68,"Duration":813926,"SoundDuration":813926,"Delta":328527720},{"NoteNumber":49,"Velocity":80,"Duration":813926,"SoundDuration":813926,"Delta":328527720},{"NoteNumber":68,"Velocity":79,"Duration":256465,"SoundDuration":256465,"Delta":329349637},{"NoteNumber":73,"Velocity":93,"Duration":256465,"SoundDuration":256465,"Delta":329349637},{"NoteNumber":65,"Velocity":79,"Duration":256465,"SoundDuration":256465,"Delta":329349637},{"NoteNumber":49,"Velocity":80,"Duration":256465,"SoundDuration":256465,"Delta":329349637},{"NoteNumber":37,"Velocity":68,"Duration":256465,"SoundDuration":256465,"Delta":329349637},{"NoteNumber":44,"Velocity":68,"Duration":256465,"SoundDuration":256465,"Delta":329349637},{"NoteNumber":68,"Velocity":85,"Duration":542237,"SoundDuration":542237,"Delta":329608258},{"NoteNumber":73,"Velocity":100,"Duration":542237,"SoundDuration":542237,"Delta":329608258},{"NoteNumber":65,"Velocity":85,"Duration":542237,"SoundDuration":542237,"Delta":329608258},{"NoteNumber":49,"Velocity":80,"Duration":542237,"SoundDuration":542237,"Delta":329608258},{"NoteNumber":44,"Velocity":68,"Duration":542237,"SoundDuration":542237,"Delta":329608258},{"NoteNumber":37,"Velocity":68,"Duration":542237,"SoundDuration":542237,"Delta":329608258},{"NoteNumber":68,"Velocity":85,"Duration":813926,"SoundDuration":813926,"Delta":330156203},{"NoteNumber":73,"Velocity":100,"Duration":813926,"SoundDuration":813926,"Delta":330156203},{"NoteNumber":65,"Velocity":85,"Duration":813926,"SoundDuration":813926,"Delta":330156203},{"NoteNumber":37,"Velocity":68,"Duration":813926,"SoundDuration":813926,"Delta":330156203},{"NoteNumber":44,"Velocity":68,"Duration":813926,"SoundDuration":813926,"Delta":330156203},{"NoteNumber":49,"Velocity":80,"Duration":813926,"SoundDuration":813926,"Delta":330156203},{"NoteNumber":68,"Velocity":93,"Duration":271689,"SoundDuration":271689,"Delta":330978120},{"NoteNumber":65,"Velocity":79,"Duration":271689,"SoundDuration":271689,"Delta":330978120},{"NoteNumber":37,"Velocity":68,"Duration":271689,"SoundDuration":271689,"Delta":330978120},{"NoteNumber":49,"Velocity":80,"Duration":271689,"SoundDuration":271689,"Delta":330978120},{"NoteNumber":65,"Velocity":84,"Duration":432692,"SoundDuration":432692,"Delta":331252093},{"NoteNumber":68,"Velocity":99,"Duration":432692,"SoundDuration":432692,"Delta":331252093},{"NoteNumber":49,"Velocity":80,"Duration":432692,"SoundDuration":432692,"Delta":331252093},{"NoteNumber":37,"Velocity":68,"Duration":432692,"SoundDuration":432692,"Delta":331252093},{"NoteNumber":69,"Velocity":84,"Duration":432692,"SoundDuration":432692,"Delta":331829016},{"NoteNumber":66,"Velocity":84,"Duration":432692,"SoundDuration":432692,"Delta":331829016},{"NoteNumber":73,"Velocity":99,"Duration":432692,"SoundDuration":432692,"Delta":331829016},{"NoteNumber":33,"Velocity":68,"Duration":432692,"SoundDuration":432692,"Delta":331829016},{"NoteNumber":45,"Velocity":80,"Duration":432692,"SoundDuration":432692,"Delta":331829016},{"NoteNumber":69,"Velocity":84,"Duration":449615,"SoundDuration":449615,"Delta":332405939},{"NoteNumber":73,"Velocity":99,"Duration":449615,"SoundDuration":449615,"Delta":332405939},{"NoteNumber":78,"Velocity":99,"Duration":449615,"SoundDuration":449615,"Delta":332405939},{"NoteNumber":66,"Velocity":84,"Duration":449615,"SoundDuration":449615,"Delta":332405939},{"NoteNumber":42,"Velocity":80,"Duration":449615,"SoundDuration":449615,"Delta":332405939},{"NoteNumber":30,"Velocity":68,"Duration":449615,"SoundDuration":449615,"Delta":332405939},{"NoteNumber":68,"Velocity":84,"Duration":1356396,"SoundDuration":1356396,"Delta":333005554},{"NoteNumber":73,"Velocity":84,"Duration":1356396,"SoundDuration":1356396,"Delta":333005554},{"NoteNumber":65,"Velocity":84,"Duration":1356396,"SoundDuration":1356396,"Delta":333005554},{"NoteNumber":77,"Velocity":99,"Duration":1356396,"SoundDuration":1356396,"Delta":333005554},{"NoteNumber":49,"Velocity":80,"Duration":1356396,"SoundDuration":1356396,"Delta":333005554},{"NoteNumber":37,"Velocity":68,"Duration":1356396,"SoundDuration":1356396,"Delta":333005554},{"NoteNumber":66,"Velocity":86,"Duration":263274,"SoundDuration":263274,"Delta":334361951},{"NoteNumber":73,"Velocity":86,"Duration":263274,"SoundDuration":263274,"Delta":334361951},{"NoteNumber":78,"Velocity":102,"Duration":263274,"SoundDuration":263274,"Delta":334361951},{"NoteNumber":33,"Velocity":68,"Duration":263274,"SoundDuration":263274,"Delta":334361951},{"NoteNumber":45,"Velocity":80,"Duration":263274,"SoundDuration":263274,"Delta":334361951},{"NoteNumber":73,"Velocity":87,"Duration":1614350,"SoundDuration":1614350,"Delta":334627437},{"NoteNumber":78,"Velocity":103,"Duration":1614350,"SoundDuration":1614350,"Delta":334627437},{"NoteNumber":66,"Velocity":87,"Duration":1614350,"SoundDuration":1614350,"Delta":334627437},{"NoteNumber":33,"Velocity":68,"Duration":3023897,"SoundDuration":3023897,"Delta":334627437},{"NoteNumber":45,"Velocity":80,"Duration":3023897,"SoundDuration":3023897,"Delta":334627437},{"NoteNumber":76,"Velocity":61,"Duration":538116,"SoundDuration":538116,"Delta":336241788},{"NoteNumber":73,"Velocity":51,"Duration":1109546,"SoundDuration":1109546,"Delta":336241788},{"NoteNumber":67,"Velocity":51,"Duration":1409546,"SoundDuration":1409546,"Delta":336241788},{"NoteNumber":75,"Velocity":61,"Duration":571429,"SoundDuration":571429,"Delta":336779905},{"NoteNumber":73,"Velocity":60,"Duration":300000,"SoundDuration":300000,"Delta":337351334},{"NoteNumber":61,"Velocity":57,"Duration":149999,"SoundDuration":149999,"Delta":337651334},{"NoteNumber":68,"Velocity":68,"Duration":149999,"SoundDuration":149999,"Delta":337651334},{"NoteNumber":52,"Velocity":54,"Duration":149999,"SoundDuration":149999,"Delta":337651334},{"NoteNumber":40,"Velocity":45,"Duration":149999,"SoundDuration":149999,"Delta":337651334},{"NoteNumber":61,"Velocity":57,"Duration":1837500,"SoundDuration":1837500,"Delta":337949970},{"NoteNumber":68,"Velocity":68,"Duration":1462500,"SoundDuration":1462500,"Delta":337949970},{"NoteNumber":40,"Velocity":45,"Duration":3861936,"SoundDuration":3861936,"Delta":337949970},{"NoteNumber":52,"Velocity":54,"Duration":3861936,"SoundDuration":3861936,"Delta":337949970},{"NoteNumber":70,"Velocity":35,"Duration":93750,"SoundDuration":93750,"Delta":339412471},{"NoteNumber":68,"Velocity":35,"Duration":93750,"SoundDuration":93750,"Delta":339506221},{"NoteNumber":67,"Velocity":35,"Duration":93750,"SoundDuration":93750,"Delta":339599971},{"NoteNumber":68,"Velocity":35,"Duration":93750,"SoundDuration":93750,"Delta":339693721},{"NoteNumber":68,"Velocity":52,"Duration":2024435,"SoundDuration":2024435,"Delta":339787471},{"NoteNumber":71,"Velocity":52,"Duration":596026,"SoundDuration":596026,"Delta":339927452},{"NoteNumber":62,"Velocity":52,"Duration":1884455,"SoundDuration":1884455,"Delta":339927452},{"NoteNumber":70,"Velocity":53,"Duration":621761,"SoundDuration":621761,"Delta":340523478},{"NoteNumber":68,"Velocity":53,"Duration":666667,"SoundDuration":666667,"Delta":341145240},{"NoteNumber":60,"Velocity":34,"Duration":2000000,"SoundDuration":2000000,"Delta":341811907},{"NoteNumber":63,"Velocity":40,"Duration":659722,"SoundDuration":659722,"Delta":341811907},{"NoteNumber":56,"Velocity":34,"Duration":2000000,"SoundDuration":2000000,"Delta":341811907},{"NoteNumber":39,"Velocity":27,"Duration":2000000,"SoundDuration":2000000,"Delta":341811907},{"NoteNumber":51,"Velocity":27,"Duration":659722,"SoundDuration":659722,"Delta":341811907},{"NoteNumber":63,"Velocity":40,"Duration":1333334,"SoundDuration":1333334,"Delta":342478574},{"NoteNumber":51,"Velocity":27,"Duration":1333334,"SoundDuration":1333334,"Delta":342478574},{"NoteNumber":55,"Velocity":34,"Duration":1913812,"SoundDuration":1913812,"Delta":343811908},{"NoteNumber":58,"Velocity":34,"Duration":1913812,"SoundDuration":1913812,"Delta":343811908},{"NoteNumber":61,"Velocity":40,"Duration":1913812,"SoundDuration":1913812,"Delta":343811908},{"NoteNumber":63,"Velocity":40,"Duration":702662,"SoundDuration":702662,"Delta":343811908},{"NoteNumber":51,"Velocity":27,"Duration":702662,"SoundDuration":702662,"Delta":343811908},{"NoteNumber":39,"Velocity":27,"Duration":1913812,"SoundDuration":1913812,"Delta":343811908},{"NoteNumber":63,"Velocity":40,"Duration":1191127,"SoundDuration":1191127,"Delta":344521967},{"NoteNumber":51,"Velocity":27,"Duration":1191127,"SoundDuration":1191127,"Delta":344521967},{"NoteNumber":63,"Velocity":40,"Duration":728527,"SoundDuration":728527,"Delta":345725721},{"NoteNumber":51,"Velocity":27,"Duration":728527,"SoundDuration":728527,"Delta":345725721},{"NoteNumber":60,"Velocity":34,"Duration":590796,"SoundDuration":590796,"Delta":346461917},{"NoteNumber":63,"Velocity":34,"Duration":590796,"SoundDuration":590796,"Delta":346461917},{"NoteNumber":68,"Velocity":46,"Duration":590796,"SoundDuration":590796,"Delta":346461917},{"NoteNumber":44,"Velocity":27,"Duration":1708507,"SoundDuration":1708507,"Delta":346461917},{"NoteNumber":51,"Velocity":27,"Duration":590796,"SoundDuration":590796,"Delta":346461917},{"NoteNumber":68,"Velocity":46,"Duration":838765,"SoundDuration":838765,"Delta":347058932},{"NoteNumber":63,"Velocity":34,"Duration":1111492,"SoundDuration":1111492,"Delta":347058932},{"NoteNumber":60,"Velocity":34,"Duration":1111492,"SoundDuration":1111492,"Delta":347058932},{"NoteNumber":51,"Velocity":27,"Duration":1111492,"SoundDuration":1111492,"Delta":347058932},{"NoteNumber":70,"Velocity":39,"Duration":272727,"SoundDuration":272727,"Delta":347897697},{"NoteNumber":61,"Velocity":34,"Duration":592954,"SoundDuration":592954,"Delta":348170425},{"NoteNumber":63,"Velocity":34,"Duration":592954,"SoundDuration":592954,"Delta":348170425},{"NoteNumber":68,"Velocity":46,"Duration":592954,"SoundDuration":592954,"Delta":348170425},{"NoteNumber":51,"Velocity":27,"Duration":592954,"SoundDuration":592954,"Delta":348170425},{"NoteNumber":46,"Velocity":27,"Duration":1689546,"SoundDuration":1689546,"Delta":348170425},{"NoteNumber":67,"Velocity":46,"Duration":818182,"SoundDuration":818182,"Delta":348769061},{"NoteNumber":63,"Velocity":34,"Duration":1090910,"SoundDuration":1090910,"Delta":348769061},{"NoteNumber":61,"Velocity":34,"Duration":1090910,"SoundDuration":1090910,"Delta":348769061},{"NoteNumber":51,"Velocity":27,"Duration":1090910,"SoundDuration":1090910,"Delta":348769061},{"NoteNumber":70,"Velocity":37,"Duration":272727,"SoundDuration":272727,"Delta":349587243},{"NoteNumber":70,"Velocity":46,"Duration":539773,"SoundDuration":539773,"Delta":349859971},{"NoteNumber":48,"Velocity":27,"Duration":1080682,"SoundDuration":1080682,"Delta":349859971},{"NoteNumber":51,"Velocity":27,"Duration":539773,"SoundDuration":539773,"Delta":349859971},{"NoteNumber":68,"Velocity":51,"Duration":539773,"SoundDuration":539773,"Delta":350405426},{"NoteNumber":63,"Velocity":38,"Duration":539773,"SoundDuration":539773,"Delta":350405426},{"NoteNumber":51,"Velocity":27,"Duration":539773,"SoundDuration":539773,"Delta":350405426},{"NoteNumber":63,"Velocity":39,"Duration":593750,"SoundDuration":593750,"Delta":350950881},{"NoteNumber":70,"Velocity":52,"Duration":593750,"SoundDuration":593750,"Delta":350950881},{"NoteNumber":61,"Velocity":39,"Duration":593750,"SoundDuration":593750,"Delta":350950881},{"NoteNumber":51,"Velocity":27,"Duration":593750,"SoundDuration":593750,"Delta":350950881},{"NoteNumber":43,"Velocity":27,"Duration":593750,"SoundDuration":593750,"Delta":350950881},{"NoteNumber":60,"Velocity":40,"Duration":1230770,"SoundDuration":1230770,"Delta":351550881},{"NoteNumber":72,"Velocity":55,"Duration":1230770,"SoundDuration":1230770,"Delta":351550881},{"NoteNumber":63,"Velocity":40,"Duration":1230770,"SoundDuration":1230770,"Delta":351550881},{"NoteNumber":44,"Velocity":27,"Duration":1230770,"SoundDuration":1230770,"Delta":351550881},{"NoteNumber":51,"Velocity":27,"Duration":1230770,"SoundDuration":1230770,"Delta":351550881},{"NoteNumber":63,"Velocity":52,"Duration":593750,"SoundDuration":593750,"Delta":352781651},{"NoteNumber":51,"Velocity":29,"Duration":593750,"SoundDuration":593750,"Delta":352781651},{"NoteNumber":63,"Velocity":53,"Duration":590796,"SoundDuration":590796,"Delta":353381651},{"NoteNumber":72,"Velocity":72,"Duration":590796,"SoundDuration":590796,"Delta":353381651},{"NoteNumber":60,"Velocity":53,"Duration":590796,"SoundDuration":590796,"Delta":353381651},{"NoteNumber":51,"Velocity":36,"Duration":590796,"SoundDuration":590796,"Delta":353381651},{"NoteNumber":42,"Velocity":36,"Duration":1687925,"SoundDuration":1687925,"Delta":353381651},{"NoteNumber":72,"Velocity":72,"Duration":818182,"SoundDuration":818182,"Delta":353978666},{"NoteNumber":63,"Velocity":53,"Duration":818182,"SoundDuration":818182,"Delta":353978666},{"NoteNumber":60,"Velocity":53,"Duration":818182,"SoundDuration":818182,"Delta":353978666},{"NoteNumber":51,"Velocity":37,"Duration":1090910,"SoundDuration":1090910,"Delta":353978666},{"NoteNumber":61,"Velocity":51,"Duration":270454,"SoundDuration":270454,"Delta":354796848},{"NoteNumber":70,"Velocity":70,"Duration":270454,"SoundDuration":270454,"Delta":354796848},{"NoteNumber":58,"Velocity":51,"Duration":270454,"SoundDuration":270454,"Delta":354796848},{"NoteNumber":58,"Velocity":56,"Duration":564664,"SoundDuration":564664,"Delta":355069576},{"NoteNumber":70,"Velocity":75,"Duration":564664,"SoundDuration":564664,"Delta":355069576},{"NoteNumber":61,"Velocity":56,"Duration":564664,"SoundDuration":564664,"Delta":355069576},{"NoteNumber":51,"Velocity":37,"Duration":564664,"SoundDuration":564664,"Delta":355069576},{"NoteNumber":41,"Velocity":37,"Duration":1388529,"SoundDuration":1388529,"Delta":355069576},{"NoteNumber":60,"Velocity":53,"Duration":818182,"SoundDuration":818182,"Delta":355639923},{"NoteNumber":69,"Velocity":71,"Duration":818182,"SoundDuration":818182,"Delta":355639923},{"NoteNumber":57,"Velocity":53,"Duration":818182,"SoundDuration":818182,"Delta":355639923},{"NoteNumber":51,"Velocity":35,"Duration":818182,"SoundDuration":818182,"Delta":355639923},{"NoteNumber":58,"Velocity":50,"Duration":270506,"SoundDuration":270506,"Delta":356458105},{"NoteNumber":61,"Velocity":50,"Duration":270506,"SoundDuration":270506,"Delta":356458105},{"NoteNumber":70,"Velocity":67,"Duration":270506,"SoundDuration":270506,"Delta":356458105},{"NoteNumber":49,"Velocity":35,"Duration":270506,"SoundDuration":270506,"Delta":356458105},{"NoteNumber":40,"Velocity":35,"Duration":270506,"SoundDuration":270506,"Delta":356458105},{"NoteNumber":70,"Velocity":71,"Duration":559100,"SoundDuration":559100,"Delta":356730895},{"NoteNumber":58,"Velocity":52,"Duration":559100,"SoundDuration":559100,"Delta":356730895},{"NoteNumber":61,"Velocity":52,"Duration":559100,"SoundDuration":559100,"Delta":356730895},{"NoteNumber":40,"Velocity":35,"Duration":559100,"SoundDuration":559100,"Delta":356730895},{"NoteNumber":49,"Velocity":35,"Duration":559100,"SoundDuration":559100,"Delta":356730895},{"NoteNumber":56,"Velocity":43,"Duration":585529,"SoundDuration":585529,"Delta":357289995},{"NoteNumber":60,"Velocity":43,"Duration":585529,"SoundDuration":585529,"Delta":357289995},{"NoteNumber":68,"Velocity":59,"Duration":585529,"SoundDuration":585529,"Delta":357289995},{"NoteNumber":39,"Velocity":28,"Duration":585529,"SoundDuration":585529,"Delta":357289995},{"NoteNumber":51,"Velocity":29,"Duration":585529,"SoundDuration":585529,"Delta":357289995},{"NoteNumber":55,"Velocity":44,"Duration":551384,"SoundDuration":551384,"Delta":357875524},{"NoteNumber":58,"Velocity":44,"Duration":551384,"SoundDuration":551384,"Delta":357875524},{"NoteNumber":67,"Velocity":60,"Duration":551384,"SoundDuration":551384,"Delta":357875524},{"NoteNumber":39,"Velocity":30,"Duration":551384,"SoundDuration":551384,"Delta":357875524},{"NoteNumber":49,"Velocity":30,"Duration":551384,"SoundDuration":551384,"Delta":357875524},{"NoteNumber":51,"Velocity":30,"Duration":551384,"SoundDuration":551384,"Delta":357875524},{"NoteNumber":56,"Velocity":43,"Duration":1243524,"SoundDuration":1243524,"Delta":358489085},{"NoteNumber":68,"Velocity":59,"Duration":1243524,"SoundDuration":1243524,"Delta":358489085},{"NoteNumber":60,"Velocity":43,"Duration":1243524,"SoundDuration":1243524,"Delta":358489085},{"NoteNumber":51,"Velocity":28,"Duration":1243524,"SoundDuration":1243524,"Delta":358489085},{"NoteNumber":44,"Velocity":28,"Duration":1243524,"SoundDuration":1243524,"Delta":358489085},{"NoteNumber":48,"Velocity":28,"Duration":1243524,"SoundDuration":1243524,"Delta":358489085},{"NoteNumber":75,"Velocity":56,"Duration":593706,"SoundDuration":593706,"Delta":359732609},{"NoteNumber":51,"Velocity":27,"Duration":593706,"SoundDuration":593706,"Delta":359732609},{"NoteNumber":75,"Velocity":34,"Duration":590796,"SoundDuration":590796,"Delta":360332535},{"NoteNumber":80,"Velocity":54,"Duration":590796,"SoundDuration":590796,"Delta":360332535},{"NoteNumber":72,"Velocity":34,"Duration":590796,"SoundDuration":590796,"Delta":360332535},{"NoteNumber":44,"Velocity":27,"Duration":1687924,"SoundDuration":1687924,"Delta":360332535},{"NoteNumber":51,"Velocity":27,"Duration":590796,"SoundDuration":590796,"Delta":360332535},{"NoteNumber":75,"Velocity":34,"Duration":1090910,"SoundDuration":1090910,"Delta":360929550},{"NoteNumber":80,"Velocity":57,"Duration":818182,"SoundDuration":818182,"Delta":360929550},{"NoteNumber":72,"Velocity":34,"Duration":1090910,"SoundDuration":1090910,"Delta":360929550},{"NoteNumber":51,"Velocity":27,"Duration":1090910,"SoundDuration":1090910,"Delta":360929550},{"NoteNumber":82,"Velocity":52,"Duration":272727,"SoundDuration":272727,"Delta":361747732},{"NoteNumber":80,"Velocity":57,"Duration":564664,"SoundDuration":564664,"Delta":362020460},{"NoteNumber":73,"Velocity":34,"Duration":564664,"SoundDuration":564664,"Delta":362020460},{"NoteNumber":75,"Velocity":34,"Duration":564664,"SoundDuration":564664,"Delta":362020460},{"NoteNumber":46,"Velocity":27,"Duration":1661256,"SoundDuration":1661256,"Delta":362020460},{"NoteNumber":51,"Velocity":27,"Duration":564664,"SoundDuration":564664,"Delta":362020460},{"NoteNumber":73,"Velocity":34,"Duration":1090910,"SoundDuration":1090910,"Delta":362590806},{"NoteNumber":79,"Velocity":57,"Duration":818182,"SoundDuration":818182,"Delta":362590806},{"NoteNumber":75,"Velocity":34,"Duration":1090910,"SoundDuration":1090910,"Delta":362590806},{"NoteNumber":51,"Velocity":27,"Duration":1090910,"SoundDuration":1090910,"Delta":362590806},{"NoteNumber":82,"Velocity":57,"Duration":270454,"SoundDuration":270454,"Delta":363408989},{"NoteNumber":82,"Velocity":57,"Duration":539773,"SoundDuration":539773,"Delta":363681716},{"NoteNumber":51,"Velocity":27,"Duration":539773,"SoundDuration":539773,"Delta":363681716},{"NoteNumber":48,"Velocity":27,"Duration":1091696,"SoundDuration":1091696,"Delta":363681716},{"NoteNumber":80,"Velocity":59,"Duration":540232,"SoundDuration":540232,"Delta":364227171},{"NoteNumber":75,"Velocity":35,"Duration":540232,"SoundDuration":540232,"Delta":364227171},{"NoteNumber":51,"Velocity":28,"Duration":540232,"SoundDuration":540232,"Delta":364227171},{"NoteNumber":82,"Velocity":62,"Duration":568182,"SoundDuration":568182,"Delta":364773413},{"NoteNumber":75,"Velocity":37,"Duration":568182,"SoundDuration":568182,"Delta":364773413},{"NoteNumber":73,"Velocity":37,"Duration":568182,"SoundDuration":568182,"Delta":364773413},{"NoteNumber":43,"Velocity":29,"Duration":568182,"SoundDuration":568182,"Delta":364773413},{"NoteNumber":51,"Velocity":29,"Duration":568182,"SoundDuration":568182,"Delta":364773413},{"NoteNumber":75,"Velocity":40,"Duration":1101313,"SoundDuration":1101313,"Delta":365347576},{"NoteNumber":72,"Velocity":40,"Duration":1101313,"SoundDuration":1101313,"Delta":365347576},{"NoteNumber":84,"Velocity":66,"Duration":1101313,"SoundDuration":1101313,"Delta":365347576},{"NoteNumber":44,"Velocity":32,"Duration":1101313,"SoundDuration":1101313,"Delta":365347576},{"NoteNumber":51,"Velocity":32,"Duration":1101313,"SoundDuration":1101313,"Delta":365347576},{"NoteNumber":75,"Velocity":72,"Duration":593750,"SoundDuration":593750,"Delta":366448889},{"NoteNumber":51,"Velocity":37,"Duration":593750,"SoundDuration":593750,"Delta":366448889},{"NoteNumber":84,"Velocity":72,"Duration":590796,"SoundDuration":590796,"Delta":367048889},{"NoteNumber":75,"Velocity":53,"Duration":590796,"SoundDuration":590796,"Delta":367048889},{"NoteNumber":72,"Velocity":53,"Duration":590796,"SoundDuration":590796,"Delta":367048889},{"NoteNumber":51,"Velocity":36,"Duration":590796,"SoundDuration":590796,"Delta":367048889},{"NoteNumber":42,"Velocity":36,"Duration":1687925,"SoundDuration":1687925,"Delta":367048889},{"NoteNumber":72,"Velocity":53,"Duration":818182,"SoundDuration":818182,"Delta":367645904},{"NoteNumber":75,"Velocity":53,"Duration":818182,"SoundDuration":818182,"Delta":367645904},{"NoteNumber":84,"Velocity":72,"Duration":818182,"SoundDuration":818182,"Delta":367645904},{"NoteNumber":51,"Velocity":37,"Duration":1090910,"SoundDuration":1090910,"Delta":367645904},{"NoteNumber":73,"Velocity":51,"Duration":270454,"SoundDuration":270454,"Delta":368464087},{"NoteNumber":82,"Velocity":70,"Duration":270454,"SoundDuration":270454,"Delta":368464087},{"NoteNumber":70,"Velocity":51,"Duration":270454,"SoundDuration":270454,"Delta":368464087},{"NoteNumber":82,"Velocity":75,"Duration":564664,"SoundDuration":564664,"Delta":368736814},{"NoteNumber":73,"Velocity":56,"Duration":564664,"SoundDuration":564664,"Delta":368736814},{"NoteNumber":70,"Velocity":56,"Duration":564664,"SoundDuration":564664,"Delta":368736814},{"NoteNumber":41,"Velocity":37,"Duration":1388529,"SoundDuration":1388529,"Delta":368736814},{"NoteNumber":51,"Velocity":37,"Duration":564664,"SoundDuration":564664,"Delta":368736814},{"NoteNumber":72,"Velocity":53,"Duration":818182,"SoundDuration":818182,"Delta":369307161},{"NoteNumber":81,"Velocity":71,"Duration":818182,"SoundDuration":818182,"Delta":369307161},{"NoteNumber":69,"Velocity":53,"Duration":818182,"SoundDuration":818182,"Delta":369307161},{"NoteNumber":51,"Velocity":35,"Duration":818182,"SoundDuration":818182,"Delta":369307161},{"NoteNumber":70,"Velocity":50,"Duration":270506,"SoundDuration":270506,"Delta":370125343},{"NoteNumber":82,"Velocity":67,"Duration":270506,"SoundDuration":270506,"Delta":370125343},{"NoteNumber":73,"Velocity":50,"Duration":270506,"SoundDuration":270506,"Delta":370125343},{"NoteNumber":40,"Velocity":35,"Duration":270506,"SoundDuration":270506,"Delta":370125343},{"NoteNumber":49,"Velocity":35,"Duration":270506,"SoundDuration":270506,"Delta":370125343},{"NoteNumber":82,"Velocity":71,"Duration":553147,"SoundDuration":553147,"Delta":370398133},{"NoteNumber":73,"Velocity":52,"Duration":553147,"SoundDuration":553147,"Delta":370398133},{"NoteNumber":70,"Velocity":52,"Duration":553147,"SoundDuration":553147,"Delta":370398133},{"NoteNumber":49,"Velocity":35,"Duration":553147,"SoundDuration":553147,"Delta":370398133},{"NoteNumber":40,"Velocity":35,"Duration":553147,"SoundDuration":553147,"Delta":370398133},{"NoteNumber":68,"Velocity":43,"Duration":579279,"SoundDuration":579279,"Delta":370957233},{"NoteNumber":80,"Velocity":59,"Duration":579279,"SoundDuration":579279,"Delta":370957233},{"NoteNumber":72,"Velocity":43,"Duration":579279,"SoundDuration":579279,"Delta":370957233},{"NoteNumber":39,"Velocity":28,"Duration":579279,"SoundDuration":579279,"Delta":370957233},{"NoteNumber":51,"Velocity":29,"Duration":579279,"SoundDuration":579279,"Delta":370957233},{"NoteNumber":79,"Velocity":60,"Duration":551735,"SoundDuration":551735,"Delta":371542763},{"NoteNumber":70,"Velocity":44,"Duration":551735,"SoundDuration":551735,"Delta":371542763},{"NoteNumber":67,"Velocity":44,"Duration":551735,"SoundDuration":551735,"Delta":371542763},{"NoteNumber":39,"Velocity":30,"Duration":551735,"SoundDuration":551735,"Delta":371542763},{"NoteNumber":51,"Velocity":30,"Duration":551735,"SoundDuration":551735,"Delta":371542763},{"NoteNumber":49,"Velocity":30,"Duration":551735,"SoundDuration":551735,"Delta":371542763},{"NoteNumber":68,"Velocity":43,"Duration":1250000,"SoundDuration":1250000,"Delta":372156998},{"NoteNumber":80,"Velocity":59,"Duration":1250000,"SoundDuration":1250000,"Delta":372156998},{"NoteNumber":72,"Velocity":43,"Duration":1250000,"SoundDuration":1250000,"Delta":372156998},{"NoteNumber":51,"Velocity":28,"Duration":1250000,"SoundDuration":1250000,"Delta":372156998},{"NoteNumber":48,"Velocity":28,"Duration":1250000,"SoundDuration":1250000,"Delta":372156998},{"NoteNumber":44,"Velocity":28,"Duration":1250000,"SoundDuration":1250000,"Delta":372156998},{"NoteNumber":70,"Velocity":73,"Duration":309895,"SoundDuration":309895,"Delta":373719498},{"NoteNumber":61,"Velocity":51,"Duration":309895,"SoundDuration":309895,"Delta":373719498},{"NoteNumber":58,"Velocity":51,"Duration":309895,"SoundDuration":309895,"Delta":373719498},{"NoteNumber":40,"Velocity":35,"Duration":309895,"SoundDuration":309895,"Delta":373719498},{"NoteNumber":49,"Velocity":35,"Duration":309895,"SoundDuration":309895,"Delta":373719498},{"NoteNumber":61,"Velocity":50,"Duration":625000,"SoundDuration":625000,"Delta":374031998},{"NoteNumber":58,"Velocity":50,"Duration":625000,"SoundDuration":625000,"Delta":374031998},{"NoteNumber":70,"Velocity":72,"Duration":625000,"SoundDuration":625000,"Delta":374031998},{"NoteNumber":49,"Velocity":35,"Duration":625000,"SoundDuration":625000,"Delta":374031998},{"NoteNumber":40,"Velocity":35,"Duration":625000,"SoundDuration":625000,"Delta":374031998},{"NoteNumber":68,"Velocity":60,"Duration":625000,"SoundDuration":625000,"Delta":374656998},{"NoteNumber":56,"Velocity":42,"Duration":625000,"SoundDuration":625000,"Delta":374656998},{"NoteNumber":60,"Velocity":42,"Duration":625000,"SoundDuration":625000,"Delta":374656998},{"NoteNumber":39,"Velocity":28,"Duration":625000,"SoundDuration":625000,"Delta":374656998},{"NoteNumber":51,"Velocity":29,"Duration":625000,"SoundDuration":625000,"Delta":374656998},{"NoteNumber":55,"Velocity":39,"Duration":562500,"SoundDuration":562500,"Delta":375281998},{"NoteNumber":67,"Velocity":55,"Duration":562500,"SoundDuration":562500,"Delta":375281998},{"NoteNumber":58,"Velocity":39,"Duration":562500,"SoundDuration":562500,"Delta":375281998},{"NoteNumber":49,"Velocity":30,"Duration":562500,"SoundDuration":562500,"Delta":375281998},{"NoteNumber":51,"Velocity":30,"Duration":562500,"SoundDuration":562500,"Delta":375281998},{"NoteNumber":39,"Velocity":30,"Duration":562500,"SoundDuration":562500,"Delta":375281998},{"NoteNumber":68,"Velocity":53,"Duration":1572038,"SoundDuration":1572038,"Delta":375906998},{"NoteNumber":60,"Velocity":37,"Duration":1572038,"SoundDuration":1572038,"Delta":375906998},{"NoteNumber":56,"Velocity":37,"Duration":1572038,"SoundDuration":1572038,"Delta":375906998},{"NoteNumber":51,"Velocity":28,"Duration":1572038,"SoundDuration":1572038,"Delta":375906998},{"NoteNumber":44,"Velocity":28,"Duration":1572038,"SoundDuration":1572038,"Delta":375906998},{"NoteNumber":48,"Velocity":28,"Duration":1572038,"SoundDuration":1572038,"Delta":375906998},{"NoteNumber":61,"Velocity":56,"Duration":297500,"SoundDuration":297500,"Delta":377479037},{"NoteNumber":73,"Velocity":79,"Duration":297500,"SoundDuration":297500,"Delta":377479037},{"NoteNumber":70,"Velocity":67,"Duration":297500,"SoundDuration":297500,"Delta":377479037},{"NoteNumber":49,"Velocity":35,"Duration":297500,"SoundDuration":297500,"Delta":377479037},{"NoteNumber":46,"Velocity":35,"Duration":297500,"SoundDuration":297500,"Delta":377479037},{"NoteNumber":40,"Velocity":35,"Duration":297500,"SoundDuration":297500,"Delta":377479037},{"NoteNumber":61,"Velocity":56,"Duration":639844,"SoundDuration":639844,"Delta":377779037},{"NoteNumber":70,"Velocity":67,"Duration":639844,"SoundDuration":639844,"Delta":377779037},{"NoteNumber":73,"Velocity":79,"Duration":639844,"SoundDuration":639844,"Delta":377779037},{"NoteNumber":49,"Velocity":35,"Duration":639844,"SoundDuration":639844,"Delta":377779037},{"NoteNumber":40,"Velocity":35,"Duration":639844,"SoundDuration":639844,"Delta":377779037},{"NoteNumber":46,"Velocity":35,"Duration":639844,"SoundDuration":639844,"Delta":377779037},{"NoteNumber":68,"Velocity":59,"Duration":746052,"SoundDuration":746052,"Delta":378418881},{"NoteNumber":60,"Velocity":50,"Duration":746052,"SoundDuration":746052,"Delta":378418881},{"NoteNumber":72,"Velocity":70,"Duration":746052,"SoundDuration":746052,"Delta":378418881},{"NoteNumber":51,"Velocity":28,"Duration":746052,"SoundDuration":746052,"Delta":378418881},{"NoteNumber":39,"Velocity":27,"Duration":746052,"SoundDuration":746052,"Delta":378418881},{"NoteNumber":48,"Velocity":27,"Duration":746052,"SoundDuration":746052,"Delta":378418881},{"NoteNumber":58,"Velocity":45,"Duration":796860,"SoundDuration":796860,"Delta":379164934},{"NoteNumber":67,"Velocity":54,"Duration":796860,"SoundDuration":796860,"Delta":379164934},{"NoteNumber":70,"Velocity":64,"Duration":796860,"SoundDuration":796860,"Delta":379164934},{"NoteNumber":49,"Velocity":29,"Duration":796860,"SoundDuration":796860,"Delta":379164934},{"NoteNumber":39,"Velocity":29,"Duration":796860,"SoundDuration":796860,"Delta":379164934},{"NoteNumber":51,"Velocity":29,"Duration":796860,"SoundDuration":796860,"Delta":379164934},{"NoteNumber":56,"Velocity":43,"Duration":1472392,"SoundDuration":1472392,"Delta":380059761},{"NoteNumber":68,"Velocity":61,"Duration":1472392,"SoundDuration":1472392,"Delta":380059761},{"NoteNumber":51,"Velocity":28,"Duration":1472392,"SoundDuration":1472392,"Delta":380059761},{"NoteNumber":44,"Velocity":28,"Duration":1472392,"SoundDuration":1472392,"Delta":380059761},{"NoteNumber":48,"Velocity":28,"Duration":1472392,"SoundDuration":1472392,"Delta":380059761}]}