{"title":"Impromptu Nr. 2 Es-Dur","artist":"Schubert","durationMs":269864,"midiSha256":"69db8100c8cfd376a9f5e7fe141b0b0e8bc01d18324959eb1370c74e6ae96274","midiObject":[{"NoteNumber":82,"Velocity":48,"Duration":332410,"SoundDuration":332410,"Delta":0},{"NoteNumber":79,"Velocity":48,"Duration":110803,"SoundDuration":110803,"Delta":332410},{"NoteNumber":51,"Velocity":39,"Duration":932410,"SoundDuration":932410,"Delta":332410},{"NoteNumber":82,"Velocity":44,"Duration":110803,"SoundDuration":110803,"Delta":443213},{"NoteNumber":80,"Velocity":40,"Duration":110803,"SoundDuration":110803,"Delta":554016},{"NoteNumber":79,"Velocity":48,"Duration":100000,"SoundDuration":100000,"Delta":664820},{"NoteNumber":58,"Velocity":32,"Duration":600000,"SoundDuration":600000,"Delta":664820},{"NoteNumber":77,"Velocity":45,"Duration":99999,"SoundDuration":99999,"Delta":764820},{"NoteNumber":75,"Velocity":40,"Duration":100000,"SoundDuration":100000,"Delta":864820},{"NoteNumber":74,"Velocity":48,"Duration":99999,"SoundDuration":99999,"Delta":964820},{"NoteNumber":72,"Velocity":45,"Duration":100000,"SoundDuration":100000,"Delta":1064820},{"NoteNumber":70,"Velocity":42,"Duration":100000,"SoundDuration":100000,"Delta":1164820},{"NoteNumber":68,"Velocity":48,"Duration":101781,"SoundDuration":101781,"Delta":1264820},{"NoteNumber":53,"Velocity":36,"Duration":905343,"SoundDuration":905343,"Delta":1264820},{"NoteNumber":67,"Velocity":45,"Duration":101781,"SoundDuration":101781,"Delta":1366601},{"NoteNumber":65,"Velocity":45,"Duration":101781,"SoundDuration":101781,"Delta":1468382},{"NoteNumber":63,"Velocity":48,"Duration":100000,"SoundDuration":100000,"Delta":1570164},{"NoteNumber":58,"Velocity":31,"Duration":296875,"SoundDuration":296875,"Delta":1570164},{"NoteNumber":62,"Velocity":43,"Duration":100000,"SoundDuration":100000,"Delta":1670164},{"NoteNumber":60,"Velocity":43,"Duration":99999,"SoundDuration":99999,"Delta":1770164},{"NoteNumber":58,"Velocity":48,"Duration":300000,"SoundDuration":300000,"Delta":1870164},{"NoteNumber":60,"Velocity":44,"Duration":100000,"SoundDuration":100000,"Delta":1970164},{"NoteNumber":62,"Velocity":41,"Duration":100000,"SoundDuration":100000,"Delta":2070164},{"NoteNumber":63,"Velocity":48,"Duration":102301,"SoundDuration":102301,"Delta":2170164},{"NoteNumber":55,"Velocity":39,"Duration":906905,"SoundDuration":906905,"Delta":2170164},{"NoteNumber":62,"Velocity":44,"Duration":102301,"SoundDuration":102301,"Delta":2272465},{"NoteNumber":63,"Velocity":44,"Duration":102301,"SoundDuration":102301,"Delta":2374767},{"NoteNumber":64,"Velocity":53,"Duration":100000,"SoundDuration":100000,"Delta":2477069},{"NoteNumber":58,"Velocity":31,"Duration":600000,"SoundDuration":600000,"Delta":2477069},{"NoteNumber":63,"Velocity":50,"Duration":100000,"SoundDuration":100000,"Delta":2577069},{"NoteNumber":64,"Velocity":49,"Duration":99999,"SoundDuration":99999,"Delta":2677069},{"NoteNumber":65,"Velocity":55,"Duration":100000,"SoundDuration":100000,"Delta":2777069},{"NoteNumber":64,"Velocity":49,"Duration":100000,"SoundDuration":100000,"Delta":2877069},{"NoteNumber":65,"Velocity":50,"Duration":100000,"SoundDuration":100000,"Delta":2977069},{"NoteNumber":66,"Velocity":60,"Duration":101781,"SoundDuration":101781,"Delta":3077069},{"NoteNumber":50,"Velocity":39,"Duration":905343,"SoundDuration":905343,"Delta":3077069},{"NoteNumber":65,"Velocity":53,"Duration":101781,"SoundDuration":101781,"Delta":3178850},{"NoteNumber":66,"Velocity":53,"Duration":101781,"SoundDuration":101781,"Delta":3280631},{"NoteNumber":67,"Velocity":54,"Duration":99999,"SoundDuration":99999,"Delta":3382413},{"NoteNumber":58,"Velocity":30,"Duration":599999,"SoundDuration":599999,"Delta":3382413},{"NoteNumber":66,"Velocity":51,"Duration":100000,"SoundDuration":100000,"Delta":3482413},{"NoteNumber":67,"Velocity":50,"Duration":99999,"SoundDuration":99999,"Delta":3582413},{"NoteNumber":68,"Velocity":48,"Duration":100000,"SoundDuration":100000,"Delta":3682413},{"NoteNumber":67,"Velocity":45,"Duration":99999,"SoundDuration":99999,"Delta":3782413},{"NoteNumber":68,"Velocity":48,"Duration":99999,"SoundDuration":99999,"Delta":3882413},{"NoteNumber":67,"Velocity":48,"Duration":101523,"SoundDuration":101523,"Delta":3982413},{"NoteNumber":51,"Velocity":40,"Duration":904568,"SoundDuration":904568,"Delta":3982413},{"NoteNumber":70,"Velocity":51,"Duration":101522,"SoundDuration":101522,"Delta":4083936},{"NoteNumber":68,"Velocity":51,"Duration":101523,"SoundDuration":101523,"Delta":4185459},{"NoteNumber":67,"Velocity":50,"Duration":99999,"SoundDuration":99999,"Delta":4286982},{"NoteNumber":58,"Velocity":31,"Duration":599999,"SoundDuration":599999,"Delta":4286982},{"NoteNumber":68,"Velocity":47,"Duration":100000,"SoundDuration":100000,"Delta":4386982},{"NoteNumber":70,"Velocity":47,"Duration":99999,"SoundDuration":99999,"Delta":4486982},{"NoteNumber":72,"Velocity":49,"Duration":100000,"SoundDuration":100000,"Delta":4586982},{"NoteNumber":74,"Velocity":46,"Duration":99999,"SoundDuration":99999,"Delta":4686982},{"NoteNumber":75,"Velocity":46,"Duration":99999,"SoundDuration":99999,"Delta":4786982},{"NoteNumber":77,"Velocity":48,"Duration":102301,"SoundDuration":102301,"Delta":4886982},{"NoteNumber":44,"Velocity":40,"Duration":306905,"SoundDuration":306905,"Delta":4886982},{"NoteNumber":84,"Velocity":49,"Duration":102301,"SoundDuration":102301,"Delta":4989283},{"NoteNumber":82,"Velocity":49,"Duration":102301,"SoundDuration":102301,"Delta":5091585},{"NoteNumber":80,"Velocity":48,"Duration":99999,"SoundDuration":99999,"Delta":5193887},{"NoteNumber":60,"Velocity":32,"Duration":599999,"SoundDuration":599999,"Delta":5193887},{"NoteNumber":56,"Velocity":28,"Duration":599999,"SoundDuration":599999,"Delta":5193887},{"NoteNumber":79,"Velocity":45,"Duration":100000,"SoundDuration":100000,"Delta":5293887},{"NoteNumber":77,"Velocity":43,"Duration":99999,"SoundDuration":99999,"Delta":5393887},{"NoteNumber":75,"Velocity":48,"Duration":100000,"SoundDuration":100000,"Delta":5493887},{"NoteNumber":74,"Velocity":45,"Duration":99999,"SoundDuration":99999,"Delta":5593887},{"NoteNumber":72,"Velocity":43,"Duration":99999,"SoundDuration":99999,"Delta":5693887},{"NoteNumber":70,"Velocity":47,"Duration":101781,"SoundDuration":101781,"Delta":5793887},{"NoteNumber":46,"Velocity":48,"Duration":305343,"SoundDuration":305343,"Delta":5793887},{"NoteNumber":77,"Velocity":48,"Duration":101781,"SoundDuration":101781,"Delta":5895668},{"NoteNumber":75,"Velocity":45,"Duration":101781,"SoundDuration":101781,"Delta":5997449},{"NoteNumber":74,"Velocity":48,"Duration":99999,"SoundDuration":99999,"Delta":6099231},{"NoteNumber":62,"Velocity":37,"Duration":599999,"SoundDuration":599999,"Delta":6099231},{"NoteNumber":58,"Velocity":33,"Duration":599999,"SoundDuration":599999,"Delta":6099231},{"NoteNumber":56,"Velocity":33,"Duration":599999,"SoundDuration":599999,"Delta":6099231},{"NoteNumber":72,"Velocity":45,"Duration":100000,"SoundDuration":100000,"Delta":6199231},{"NoteNumber":70,"Velocity":43,"Duration":99999,"SoundDuration":99999,"Delta":6299231},{"NoteNumber":68,"Velocity":48,"Duration":100000,"SoundDuration":100000,"Delta":6399231},{"NoteNumber":67,"Velocity":43,"Duration":99999,"SoundDuration":99999,"Delta":6499231},{"NoteNumber":65,"Velocity":45,"Duration":99999,"SoundDuration":99999,"Delta":6599231},{"NoteNumber":63,"Velocity":48,"Duration":103359,"SoundDuration":103359,"Delta":6699231},{"NoteNumber":51,"Velocity":48,"Duration":310077,"SoundDuration":310077,"Delta":6699231},{"NoteNumber":65,"Velocity":45,"Duration":103359,"SoundDuration":103359,"Delta":6802590},{"NoteNumber":67,"Velocity":43,"Duration":103359,"SoundDuration":103359,"Delta":6905949},{"NoteNumber":68,"Velocity":52,"Duration":99999,"SoundDuration":99999,"Delta":7009309},{"NoteNumber":58,"Velocity":27,"Duration":599999,"SoundDuration":599999,"Delta":7009309},{"NoteNumber":55,"Velocity":27,"Duration":599999,"SoundDuration":599999,"Delta":7009309},{"NoteNumber":63,"Velocity":37,"Duration":599999,"SoundDuration":599999,"Delta":7009309},{"NoteNumber":70,"Velocity":51,"Duration":100000,"SoundDuration":100000,"Delta":7109309},{"NoteNumber":72,"Velocity":55,"Duration":99999,"SoundDuration":99999,"Delta":7209309},{"NoteNumber":74,"Velocity":59,"Duration":100000,"SoundDuration":100000,"Delta":7309309},{"NoteNumber":75,"Velocity":55,"Duration":99999,"SoundDuration":99999,"Delta":7409309},{"NoteNumber":77,"Velocity":58,"Duration":99999,"SoundDuration":99999,"Delta":7509309},{"NoteNumber":79,"Velocity":65,"Duration":110803,"SoundDuration":110803,"Delta":7609309},{"NoteNumber":51,"Velocity":55,"Duration":932409,"SoundDuration":932409,"Delta":7609309},{"NoteNumber":82,"Velocity":61,"Duration":110803,"SoundDuration":110803,"Delta":7720112},{"NoteNumber":80,"Velocity":58,"Duration":110803,"SoundDuration":110803,"Delta":7830915},{"NoteNumber":79,"Velocity":63,"Duration":99999,"SoundDuration":99999,"Delta":7941719},{"NoteNumber":58,"Velocity":46,"Duration":599999,"SoundDuration":599999,"Delta":7941719},{"NoteNumber":77,"Velocity":57,"Duration":99999,"SoundDuration":99999,"Delta":8041719},{"NoteNumber":75,"Velocity":54,"Duration":100000,"SoundDuration":100000,"Delta":8141719},{"NoteNumber":74,"Velocity":64,"Duration":99999,"SoundDuration":99999,"Delta":8241719},{"NoteNumber":72,"Velocity":59,"Duration":99999,"SoundDuration":99999,"Delta":8341719},{"NoteNumber":70,"Velocity":58,"Duration":99999,"SoundDuration":99999,"Delta":8441719},{"NoteNumber":68,"Velocity":63,"Duration":101265,"SoundDuration":101265,"Delta":8541719},{"NoteNumber":53,"Velocity":56,"Duration":903796,"SoundDuration":903796,"Delta":8541719},{"NoteNumber":67,"Velocity":59,"Duration":101265,"SoundDuration":101265,"Delta":8642984},{"NoteNumber":65,"Velocity":54,"Duration":101265,"SoundDuration":101265,"Delta":8744250},{"NoteNumber":63,"Velocity":63,"Duration":99999,"SoundDuration":99999,"Delta":8845516},{"NoteNumber":58,"Velocity":45,"Duration":298125,"SoundDuration":298125,"Delta":8845516},{"NoteNumber":62,"Velocity":53,"Duration":99999,"SoundDuration":99999,"Delta":8945516},{"NoteNumber":60,"Velocity":51,"Duration":100000,"SoundDuration":100000,"Delta":9045516},{"NoteNumber":58,"Velocity":63,"Duration":299999,"SoundDuration":299999,"Delta":9145516},{"NoteNumber":60,"Velocity":54,"Duration":99999,"SoundDuration":99999,"Delta":9245516},{"NoteNumber":62,"Velocity":51,"Duration":99999,"SoundDuration":99999,"Delta":9345516},{"NoteNumber":63,"Velocity":63,"Duration":101781,"SoundDuration":101781,"Delta":9445516},{"NoteNumber":55,"Velocity":56,"Duration":905343,"SoundDuration":905343,"Delta":9445516},{"NoteNumber":62,"Velocity":55,"Duration":101781,"SoundDuration":101781,"Delta":9547297},{"NoteNumber":63,"Velocity":51,"Duration":101781,"SoundDuration":101781,"Delta":9649078},{"NoteNumber":64,"Velocity":63,"Duration":99999,"SoundDuration":99999,"Delta":9750860},{"NoteNumber":58,"Velocity":45,"Duration":599999,"SoundDuration":599999,"Delta":9750860},{"NoteNumber":63,"Velocity":56,"Duration":99999,"SoundDuration":99999,"Delta":9850860},{"NoteNumber":64,"Velocity":54,"Duration":100000,"SoundDuration":100000,"Delta":9950860},{"NoteNumber":65,"Velocity":63,"Duration":99999,"SoundDuration":99999,"Delta":10050860},{"NoteNumber":64,"Velocity":59,"Duration":99999,"SoundDuration":99999,"Delta":10150860},{"NoteNumber":65,"Velocity":55,"Duration":99999,"SoundDuration":99999,"Delta":10250860},{"NoteNumber":66,"Velocity":68,"Duration":101265,"SoundDuration":101265,"Delta":10350860},{"NoteNumber":50,"Velocity":57,"Duration":903796,"SoundDuration":903796,"Delta":10350860},{"NoteNumber":65,"Velocity":61,"Duration":101265,"SoundDuration":101265,"Delta":10452125},{"NoteNumber":66,"Velocity":59,"Duration":101265,"SoundDuration":101265,"Delta":10553391},{"NoteNumber":67,"Velocity":64,"Duration":99999,"SoundDuration":99999,"Delta":10654657},{"NoteNumber":58,"Velocity":46,"Duration":599999,"SoundDuration":599999,"Delta":10654657},{"NoteNumber":66,"Velocity":61,"Duration":99999,"SoundDuration":99999,"Delta":10754657},{"NoteNumber":67,"Velocity":59,"Duration":100000,"SoundDuration":100000,"Delta":10854657},{"NoteNumber":68,"Velocity":63,"Duration":99999,"SoundDuration":99999,"Delta":10954657},{"NoteNumber":67,"Velocity":60,"Duration":99999,"SoundDuration":99999,"Delta":11054657},{"NoteNumber":68,"Velocity":57,"Duration":99999,"SoundDuration":99999,"Delta":11154657},{"NoteNumber":67,"Velocity":63,"Duration":101781,"SoundDuration":101781,"Delta":11254657},{"NoteNumber":51,"Velocity":56,"Duration":905343,"SoundDuration":905343,"Delta":11254657},{"NoteNumber":70,"Velocity":60,"Duration":101781,"SoundDuration":101781,"Delta":11356438},{"NoteNumber":68,"Velocity":58,"Duration":101781,"SoundDuration":101781,"Delta":11458219},{"NoteNumber":67,"Velocity":63,"Duration":99999,"SoundDuration":99999,"Delta":11560001},{"NoteNumber":58,"Velocity":45,"Duration":599999,"SoundDuration":599999,"Delta":11560001},{"NoteNumber":68,"Velocity":60,"Duration":99999,"SoundDuration":99999,"Delta":11660001},{"NoteNumber":70,"Velocity":60,"Duration":100000,"SoundDuration":100000,"Delta":11760001},{"NoteNumber":72,"Velocity":63,"Duration":99999,"SoundDuration":99999,"Delta":11860001},{"NoteNumber":74,"Velocity":58,"Duration":99999,"SoundDuration":99999,"Delta":11960001},{"NoteNumber":75,"Velocity":58,"Duration":99999,"SoundDuration":99999,"Delta":12060001},{"NoteNumber":77,"Velocity":63,"Duration":102563,"SoundDuration":102563,"Delta":12160001},{"NoteNumber":44,"Velocity":54,"Duration":307691,"SoundDuration":307691,"Delta":12160001},{"NoteNumber":84,"Velocity":64,"Duration":102564,"SoundDuration":102564,"Delta":12262565},{"NoteNumber":82,"Velocity":58,"Duration":102563,"SoundDuration":102563,"Delta":12365129},{"NoteNumber":80,"Velocity":64,"Duration":99999,"SoundDuration":99999,"Delta":12467693},{"NoteNumber":60,"Velocity":45,"Duration":599999,"SoundDuration":599999,"Delta":12467693},{"NoteNumber":56,"Velocity":34,"Duration":599999,"SoundDuration":599999,"Delta":12467693},{"NoteNumber":79,"Velocity":61,"Duration":99999,"SoundDuration":99999,"Delta":12567693},{"NoteNumber":77,"Velocity":57,"Duration":100000,"SoundDuration":100000,"Delta":12667693},{"NoteNumber":75,"Velocity":63,"Duration":99999,"SoundDuration":99999,"Delta":12767693},{"NoteNumber":74,"Velocity":60,"Duration":99999,"SoundDuration":99999,"Delta":12867693},{"NoteNumber":72,"Velocity":57,"Duration":99999,"SoundDuration":99999,"Delta":12967693},{"NoteNumber":70,"Velocity":62,"Duration":101781,"SoundDuration":101781,"Delta":13067693},{"NoteNumber":46,"Velocity":55,"Duration":305343,"SoundDuration":305343,"Delta":13067693},{"NoteNumber":77,"Velocity":63,"Duration":101781,"SoundDuration":101781,"Delta":13169474},{"NoteNumber":75,"Velocity":58,"Duration":101781,"SoundDuration":101781,"Delta":13271255},{"NoteNumber":74,"Velocity":63,"Duration":99999,"SoundDuration":99999,"Delta":13373037},{"NoteNumber":56,"Velocity":31,"Duration":599999,"SoundDuration":599999,"Delta":13373037},{"NoteNumber":62,"Velocity":42,"Duration":599999,"SoundDuration":599999,"Delta":13373037},{"NoteNumber":58,"Velocity":31,"Duration":599999,"SoundDuration":599999,"Delta":13373037},{"NoteNumber":75,"Velocity":59,"Duration":99999,"SoundDuration":99999,"Delta":13473037},{"NoteNumber":77,"Velocity":59,"Duration":100000,"SoundDuration":100000,"Delta":13573037},{"NoteNumber":79,"Velocity":63,"Duration":99999,"SoundDuration":99999,"Delta":13673037},{"NoteNumber":80,"Velocity":59,"Duration":99999,"SoundDuration":99999,"Delta":13773037},{"NoteNumber":82,"Velocity":59,"Duration":99999,"SoundDuration":99999,"Delta":13873037},{"NoteNumber":75,"Velocity":63,"Duration":102301,"SoundDuration":102301,"Delta":13973037},{"NoteNumber":51,"Velocity":58,"Duration":306905,"SoundDuration":306905,"Delta":13973037},{"NoteNumber":77,"Velocity":59,"Duration":102301,"SoundDuration":102301,"Delta":14075338},{"NoteNumber":79,"Velocity":59,"Duration":102301,"SoundDuration":102301,"Delta":14177640},{"NoteNumber":80,"Velocity":63,"Duration":99999,"SoundDuration":99999,"Delta":14279942},{"NoteNumber":63,"Velocity":47,"Duration":599999,"SoundDuration":599999,"Delta":14279942},{"NoteNumber":58,"Velocity":35,"Duration":599999,"SoundDuration":599999,"Delta":14279942},{"NoteNumber":55,"Velocity":35,"Duration":599999,"SoundDuration":599999,"Delta":14279942},{"NoteNumber":82,"Velocity":58,"Duration":99999,"SoundDuration":99999,"Delta":14379942},{"NoteNumber":84,"Velocity":58,"Duration":100000,"SoundDuration":100000,"Delta":14479942},{"NoteNumber":86,"Velocity":63,"Duration":99999,"SoundDuration":99999,"Delta":14579942},{"NoteNumber":87,"Velocity":58,"Duration":99999,"SoundDuration":99999,"Delta":14679942},{"NoteNumber":89,"Velocity":58,"Duration":99999,"SoundDuration":99999,"Delta":14779942},{"NoteNumber":91,"Velocity":67,"Duration":111420,"SoundDuration":111420,"Delta":14879942},{"NoteNumber":51,"Velocity":56,"Duration":935765,"SoundDuration":935765,"Delta":14879942},{"NoteNumber":94,"Velocity":63,"Duration":111420,"SoundDuration":111420,"Delta":14991362},{"NoteNumber":92,"Velocity":61,"Duration":111420,"SoundDuration":111420,"Delta":15102783},{"NoteNumber":91,"Velocity":67,"Duration":100250,"SoundDuration":100250,"Delta":15214204},{"NoteNumber":58,"Velocity":45,"Duration":601503,"SoundDuration":601503,"Delta":15214204},{"NoteNumber":89,"Velocity":63,"Duration":100250,"SoundDuration":100250,"Delta":15314454},{"NoteNumber":87,"Velocity":59,"Duration":100250,"SoundDuration":100250,"Delta":15414705},{"NoteNumber":86,"Velocity":64,"Duration":100250,"SoundDuration":100250,"Delta":15514956},{"NoteNumber":84,"Velocity":59,"Duration":100250,"SoundDuration":100250,"Delta":15615206},{"NoteNumber":82,"Velocity":56,"Duration":100250,"SoundDuration":100250,"Delta":15715457},{"NoteNumber":80,"Velocity":63,"Duration":102564,"SoundDuration":102564,"Delta":15815708},{"NoteNumber":53,"Velocity":56,"Duration":907692,"SoundDuration":907692,"Delta":15815708},{"NoteNumber":79,"Velocity":59,"Duration":102563,"SoundDuration":102563,"Delta":15918272},{"NoteNumber":77,"Velocity":57,"Duration":102564,"SoundDuration":102564,"Delta":16020836},{"NoteNumber":75,"Velocity":63,"Duration":100000,"SoundDuration":100000,"Delta":16123400},{"NoteNumber":58,"Velocity":44,"Duration":600000,"SoundDuration":600000,"Delta":16123400},{"NoteNumber":74,"Velocity":59,"Duration":99999,"SoundDuration":99999,"Delta":16223400},{"NoteNumber":72,"Velocity":56,"Duration":100000,"SoundDuration":100000,"Delta":16323400},{"NoteNumber":70,"Velocity":63,"Duration":99999,"SoundDuration":99999,"Delta":16423400},{"NoteNumber":72,"Velocity":59,"Duration":100000,"SoundDuration":100000,"Delta":16523400},{"NoteNumber":74,"Velocity":59,"Duration":100000,"SoundDuration":100000,"Delta":16623400},{"NoteNumber":75,"Velocity":66,"Duration":102564,"SoundDuration":102564,"Delta":16723400},{"NoteNumber":55,"Velocity":56,"Duration":907692,"SoundDuration":907692,"Delta":16723400},{"NoteNumber":74,"Velocity":61,"Duration":102563,"SoundDuration":102563,"Delta":16825964},{"NoteNumber":75,"Velocity":61,"Duration":102564,"SoundDuration":102564,"Delta":16928528},{"NoteNumber":76,"Velocity":66,"Duration":100000,"SoundDuration":100000,"Delta":17031092},{"NoteNumber":58,"Velocity":45,"Duration":600000,"SoundDuration":600000,"Delta":17031092},{"NoteNumber":75,"Velocity":63,"Duration":99999,"SoundDuration":99999,"Delta":17131092},{"NoteNumber":76,"Velocity":61,"Duration":100000,"SoundDuration":100000,"Delta":17231092},{"NoteNumber":77,"Velocity":70,"Duration":99999,"SoundDuration":99999,"Delta":17331092},{"NoteNumber":76,"Velocity":66,"Duration":100000,"SoundDuration":100000,"Delta":17431092},{"NoteNumber":77,"Velocity":63,"Duration":100000,"SoundDuration":100000,"Delta":17531092},{"NoteNumber":78,"Velocity":72,"Duration":102301,"SoundDuration":102301,"Delta":17631092},{"NoteNumber":50,"Velocity":65,"Duration":906905,"SoundDuration":906905,"Delta":17631092},{"NoteNumber":77,"Velocity":67,"Duration":102301,"SoundDuration":102301,"Delta":17733393},{"NoteNumber":78,"Velocity":65,"Duration":102301,"SoundDuration":102301,"Delta":17835695},{"NoteNumber":79,"Velocity":70,"Duration":100000,"SoundDuration":100000,"Delta":17937997},{"NoteNumber":58,"Velocity":46,"Duration":600000,"SoundDuration":600000,"Delta":17937997},{"NoteNumber":78,"Velocity":65,"Duration":99999,"SoundDuration":99999,"Delta":18037997},{"NoteNumber":79,"Velocity":63,"Duration":100000,"SoundDuration":100000,"Delta":18137997},{"NoteNumber":80,"Velocity":64,"Duration":99999,"SoundDuration":99999,"Delta":18237997},{"NoteNumber":79,"Velocity":61,"Duration":100000,"SoundDuration":100000,"Delta":18337997},{"NoteNumber":80,"Velocity":61,"Duration":100000,"SoundDuration":100000,"Delta":18437997},{"NoteNumber":79,"Velocity":63,"Duration":102301,"SoundDuration":102301,"Delta":18537997},{"NoteNumber":51,"Velocity":58,"Duration":906905,"SoundDuration":906905,"Delta":18537997},{"NoteNumber":82,"Velocity":59,"Duration":102301,"SoundDuration":102301,"Delta":18640298},{"NoteNumber":80,"Velocity":59,"Duration":102301,"SoundDuration":102301,"Delta":18742600},{"NoteNumber":79,"Velocity":63,"Duration":100000,"SoundDuration":100000,"Delta":18844902},{"NoteNumber":58,"Velocity":49,"Duration":600000,"SoundDuration":600000,"Delta":18844902},{"NoteNumber":80,"Velocity":59,"Duration":99999,"SoundDuration":99999,"Delta":18944902},{"NoteNumber":82,"Velocity":59,"Duration":100000,"SoundDuration":100000,"Delta":19044902},{"NoteNumber":84,"Velocity":63,"Duration":99999,"SoundDuration":99999,"Delta":19144902},{"NoteNumber":86,"Velocity":60,"Duration":100000,"SoundDuration":100000,"Delta":19244902},{"NoteNumber":87,"Velocity":60,"Duration":100000,"SoundDuration":100000,"Delta":19344902},{"NoteNumber":89,"Velocity":64,"Duration":110849,"SoundDuration":110849,"Delta":19444902},{"NoteNumber":44,"Velocity":47,"Duration":333690,"SoundDuration":333690,"Delta":19444902},{"NoteNumber":96,"Velocity":62,"Duration":111420,"SoundDuration":111420,"Delta":19555751},{"NoteNumber":94,"Velocity":59,"Duration":111420,"SoundDuration":111420,"Delta":19667172},{"NoteNumber":92,"Velocity":62,"Duration":100571,"SoundDuration":100571,"Delta":19778593},{"NoteNumber":56,"Velocity":30,"Duration":600571,"SoundDuration":600571,"Delta":19778593},{"NoteNumber":60,"Velocity":41,"Duration":600571,"SoundDuration":600571,"Delta":19778593},{"NoteNumber":91,"Velocity":56,"Duration":100000,"SoundDuration":100000,"Delta":19879164},{"NoteNumber":89,"Velocity":56,"Duration":100000,"SoundDuration":100000,"Delta":19979164},{"NoteNumber":87,"Velocity":59,"Duration":99999,"SoundDuration":99999,"Delta":20079164},{"NoteNumber":86,"Velocity":58,"Duration":100000,"SoundDuration":100000,"Delta":20179164},{"NoteNumber":84,"Velocity":53,"Duration":99999,"SoundDuration":99999,"Delta":20279164},{"NoteNumber":82,"Velocity":53,"Duration":101265,"SoundDuration":101265,"Delta":20379164},{"NoteNumber":46,"Velocity":47,"Duration":303796,"SoundDuration":303796,"Delta":20379164},{"NoteNumber":89,"Velocity":55,"Duration":101265,"SoundDuration":101265,"Delta":20480429},{"NoteNumber":87,"Velocity":51,"Duration":101265,"SoundDuration":101265,"Delta":20581695},{"NoteNumber":86,"Velocity":54,"Duration":100000,"SoundDuration":100000,"Delta":20682961},{"NoteNumber":62,"Velocity":40,"Duration":600000,"SoundDuration":600000,"Delta":20682961},{"NoteNumber":58,"Velocity":30,"Duration":600000,"SoundDuration":600000,"Delta":20682961},{"NoteNumber":56,"Velocity":30,"Duration":600000,"SoundDuration":600000,"Delta":20682961},{"NoteNumber":84,"Velocity":53,"Duration":99999,"SoundDuration":99999,"Delta":20782961},{"NoteNumber":82,"Velocity":48,"Duration":100000,"SoundDuration":100000,"Delta":20882961},{"NoteNumber":80,"Velocity":51,"Duration":99999,"SoundDuration":99999,"Delta":20982961},{"NoteNumber":79,"Velocity":50,"Duration":100000,"SoundDuration":100000,"Delta":21082961},{"NoteNumber":77,"Velocity":49,"Duration":100000,"SoundDuration":100000,"Delta":21182961},{"NoteNumber":75,"Velocity":48,"Duration":101781,"SoundDuration":101781,"Delta":21282961},{"NoteNumber":51,"Velocity":40,"Duration":305344,"SoundDuration":305344,"Delta":21282961},{"NoteNumber":79,"Velocity":47,"Duration":101781,"SoundDuration":101781,"Delta":21384742},{"NoteNumber":77,"Velocity":46,"Duration":101781,"SoundDuration":101781,"Delta":21486523},{"NoteNumber":75,"Velocity":45,"Duration":100000,"SoundDuration":100000,"Delta":21588305},{"NoteNumber":58,"Velocity":26,"Duration":600000,"SoundDuration":600000,"Delta":21588305},{"NoteNumber":55,"Velocity":26,"Duration":600000,"SoundDuration":600000,"Delta":21588305},{"NoteNumber":63,"Velocity":35,"Duration":600000,"SoundDuration":600000,"Delta":21588305},{"NoteNumber":74,"Velocity":45,"Duration":99999,"SoundDuration":99999,"Delta":21688305},{"NoteNumber":72,"Velocity":44,"Duration":100000,"SoundDuration":100000,"Delta":21788305},{"NoteNumber":70,"Velocity":43,"Duration":99999,"SoundDuration":99999,"Delta":21888305},{"NoteNumber":68,"Velocity":42,"Duration":100000,"SoundDuration":100000,"Delta":21988305},{"NoteNumber":65,"Velocity":41,"Duration":100000,"SoundDuration":100000,"Delta":22088305},{"NoteNumber":66,"Velocity":40,"Duration":109890,"SoundDuration":109890,"Delta":22188305},{"NoteNumber":39,"Velocity":44,"Duration":940357,"SoundDuration":940357,"Delta":22188305},{"NoteNumber":70,"Velocity":38,"Duration":109890,"SoundDuration":109890,"Delta":22298195},{"NoteNumber":68,"Velocity":39,"Duration":109890,"SoundDuration":109890,"Delta":22408085},{"NoteNumber":66,"Velocity":41,"Duration":101781,"SoundDuration":101781,"Delta":22517975},{"NoteNumber":51,"Velocity":32,"Duration":610687,"SoundDuration":610687,"Delta":22517975},{"NoteNumber":65,"Velocity":37,"Duration":101781,"SoundDuration":101781,"Delta":22619756},{"NoteNumber":63,"Velocity":32,"Duration":101781,"SoundDuration":101781,"Delta":22721537},{"NoteNumber":61,"Velocity":41,"Duration":101781,"SoundDuration":101781,"Delta":22823319},{"NoteNumber":59,"Velocity":37,"Duration":101781,"SoundDuration":101781,"Delta":22925100},{"NoteNumber":58,"Velocity":32,"Duration":101781,"SoundDuration":101781,"Delta":23026881},{"NoteNumber":59,"Velocity":41,"Duration":114285,"SoundDuration":114285,"Delta":23128663},{"NoteNumber":44,"Velocity":42,"Duration":991505,"SoundDuration":991505,"Delta":23128663},{"NoteNumber":63,"Velocity":39,"Duration":114285,"SoundDuration":114285,"Delta":23242948},{"NoteNumber":68,"Velocity":39,"Duration":114285,"SoundDuration":114285,"Delta":23357234},{"NoteNumber":71,"Velocity":44,"Duration":648648,"SoundDuration":648648,"Delta":23471520},{"NoteNumber":56,"Velocity":32,"Duration":648648,"SoundDuration":648648,"Delta":23471520},{"NoteNumber":63,"Velocity":37,"Duration":108107,"SoundDuration":108107,"Delta":23579628},{"NoteNumber":68,"Velocity":30,"Duration":108108,"SoundDuration":108108,"Delta":23687736},{"NoteNumber":66,"Velocity":37,"Duration":108107,"SoundDuration":108107,"Delta":23795844},{"NoteNumber":63,"Velocity":35,"Duration":108108,"SoundDuration":108108,"Delta":23903952},{"NoteNumber":66,"Velocity":32,"Duration":108108,"SoundDuration":108108,"Delta":24012060},{"NoteNumber":65,"Velocity":41,"Duration":100000,"SoundDuration":100000,"Delta":24120168},{"NoteNumber":37,"Velocity":44,"Duration":899999,"SoundDuration":899999,"Delta":24120168},{"NoteNumber":71,"Velocity":37,"Duration":99999,"SoundDuration":99999,"Delta":24220168},{"NoteNumber":70,"Velocity":32,"Duration":100000,"SoundDuration":100000,"Delta":24320168},{"NoteNumber":68,"Velocity":41,"Duration":99999,"SoundDuration":99999,"Delta":24420168},{"NoteNumber":49,"Velocity":32,"Duration":599999,"SoundDuration":599999,"Delta":24420168},{"NoteNumber":66,"Velocity":37,"Duration":100000,"SoundDuration":100000,"Delta":24520168},{"NoteNumber":65,"Velocity":31,"Duration":100000,"SoundDuration":100000,"Delta":24620168},{"NoteNumber":63,"Velocity":36,"Duration":99999,"SoundDuration":99999,"Delta":24720168},{"NoteNumber":61,"Velocity":36,"Duration":100000,"SoundDuration":100000,"Delta":24820168},{"NoteNumber":59,"Velocity":31,"Duration":99999,"SoundDuration":99999,"Delta":24920168},{"NoteNumber":58,"Velocity":41,"Duration":111111,"SoundDuration":111111,"Delta":25020168},{"NoteNumber":42,"Velocity":43,"Duration":965745,"SoundDuration":965745,"Delta":25020168},{"NoteNumber":61,"Velocity":38,"Duration":111110,"SoundDuration":111110,"Delta":25131279},{"NoteNumber":66,"Velocity":30,"Duration":110693,"SoundDuration":110693,"Delta":25242390},{"NoteNumber":70,"Velocity":44,"Duration":632830,"SoundDuration":632830,"Delta":25353083},{"NoteNumber":54,"Velocity":32,"Duration":632830,"SoundDuration":632830,"Delta":25353083},{"NoteNumber":61,"Velocity":38,"Duration":105540,"SoundDuration":105540,"Delta":25458624},{"NoteNumber":66,"Velocity":32,"Duration":105540,"SoundDuration":105540,"Delta":25564165},{"NoteNumber":65,"Velocity":36,"Duration":105541,"SoundDuration":105541,"Delta":25669706},{"NoteNumber":61,"Velocity":34,"Duration":105540,"SoundDuration":105540,"Delta":25775247},{"NoteNumber":65,"Velocity":31,"Duration":105125,"SoundDuration":105125,"Delta":25880788},{"NoteNumber":63,"Velocity":40,"Duration":100000,"SoundDuration":100000,"Delta":25985913},{"NoteNumber":35,"Velocity":44,"Duration":899999,"SoundDuration":899999,"Delta":25985913},{"NoteNumber":70,"Velocity":41,"Duration":99999,"SoundDuration":99999,"Delta":26085913},{"NoteNumber":68,"Velocity":37,"Duration":100000,"SoundDuration":100000,"Delta":26185913},{"NoteNumber":66,"Velocity":41,"Duration":99999,"SoundDuration":99999,"Delta":26285913},{"NoteNumber":47,"Velocity":32,"Duration":599999,"SoundDuration":599999,"Delta":26285913},{"NoteNumber":65,"Velocity":37,"Duration":100000,"SoundDuration":100000,"Delta":26385913},{"NoteNumber":63,"Velocity":31,"Duration":100000,"SoundDuration":100000,"Delta":26485913},{"NoteNumber":61,"Velocity":37,"Duration":99999,"SoundDuration":99999,"Delta":26585913},{"NoteNumber":59,"Velocity":34,"Duration":100000,"SoundDuration":100000,"Delta":26685913},{"NoteNumber":58,"Velocity":31,"Duration":99999,"SoundDuration":99999,"Delta":26785913},{"NoteNumber":56,"Velocity":41,"Duration":114285,"SoundDuration":114285,"Delta":26885913},{"NoteNumber":41,"Velocity":42,"Duration":988018,"SoundDuration":988018,"Delta":26885913},{"NoteNumber":59,"Velocity":37,"Duration":114285,"SoundDuration":114285,"Delta":27000199},{"NoteNumber":65,"Velocity":37,"Duration":114285,"SoundDuration":114285,"Delta":27114485},{"NoteNumber":68,"Velocity":44,"Duration":645161,"SoundDuration":645161,"Delta":27228770},{"NoteNumber":53,"Velocity":32,"Duration":645161,"SoundDuration":645161,"Delta":27228770},{"NoteNumber":59,"Velocity":39,"Duration":107526,"SoundDuration":107526,"Delta":27336297},{"NoteNumber":65,"Velocity":33,"Duration":107527,"SoundDuration":107527,"Delta":27443824},{"NoteNumber":63,"Velocity":37,"Duration":107527,"SoundDuration":107527,"Delta":27551351},{"NoteNumber":59,"Velocity":33,"Duration":107527,"SoundDuration":107527,"Delta":27658878},{"NoteNumber":63,"Velocity":34,"Duration":107526,"SoundDuration":107526,"Delta":27766405},{"NoteNumber":62,"Velocity":41,"Duration":100000,"SoundDuration":100000,"Delta":27873932},{"NoteNumber":34,"Velocity":44,"Duration":899999,"SoundDuration":899999,"Delta":27873932},{"NoteNumber":68,"Velocity":37,"Duration":99999,"SoundDuration":99999,"Delta":27973932},{"NoteNumber":66,"Velocity":37,"Duration":100000,"SoundDuration":100000,"Delta":28073932},{"NoteNumber":65,"Velocity":41,"Duration":99999,"SoundDuration":99999,"Delta":28173932},{"NoteNumber":46,"Velocity":32,"Duration":599999,"SoundDuration":599999,"Delta":28173932},{"NoteNumber":63,"Velocity":38,"Duration":100000,"SoundDuration":100000,"Delta":28273932},{"NoteNumber":62,"Velocity":33,"Duration":100000,"SoundDuration":100000,"Delta":28373932},{"NoteNumber":59,"Velocity":37,"Duration":99999,"SoundDuration":99999,"Delta":28473932},{"NoteNumber":58,"Velocity":35,"Duration":100000,"SoundDuration":100000,"Delta":28573932},{"NoteNumber":56,"Velocity":35,"Duration":99999,"SoundDuration":99999,"Delta":28673932},{"NoteNumber":54,"Velocity":41,"Duration":116278,"SoundDuration":116278,"Delta":28773932},{"NoteNumber":39,"Velocity":43,"Duration":1003878,"SoundDuration":1003878,"Delta":28773932},{"NoteNumber":58,"Velocity":37,"Duration":116279,"SoundDuration":116279,"Delta":28890211},{"NoteNumber":63,"Velocity":39,"Duration":116278,"SoundDuration":116278,"Delta":29006490},{"NoteNumber":66,"Velocity":44,"Duration":655041,"SoundDuration":655041,"Delta":29122769},{"NoteNumber":51,"Velocity":32,"Duration":655041,"SoundDuration":655041,"Delta":29122769},{"NoteNumber":58,"Velocity":35,"Duration":109289,"SoundDuration":109289,"Delta":29232059},{"NoteNumber":63,"Velocity":35,"Duration":109289,"SoundDuration":109289,"Delta":29341349},{"NoteNumber":61,"Velocity":40,"Duration":109289,"SoundDuration":109289,"Delta":29450638},{"NoteNumber":58,"Velocity":35,"Duration":109289,"SoundDuration":109289,"Delta":29559928},{"NoteNumber":61,"Velocity":35,"Duration":108592,"SoundDuration":108592,"Delta":29669218},{"NoteNumber":59,"Velocity":41,"Duration":111111,"SoundDuration":111111,"Delta":29777811},{"NoteNumber":44,"Velocity":43,"Duration":966161,"SoundDuration":966161,"Delta":29777811},{"NoteNumber":63,"Velocity":38,"Duration":111110,"SoundDuration":111110,"Delta":29888922},{"NoteNumber":68,"Velocity":38,"Duration":110693,"SoundDuration":110693,"Delta":30000033},{"NoteNumber":71,"Velocity":44,"Duration":633245,"SoundDuration":633245,"Delta":30110726},{"NoteNumber":56,"Velocity":32,"Duration":633245,"SoundDuration":633245,"Delta":30110726},{"NoteNumber":63,"Velocity":37,"Duration":105540,"SoundDuration":105540,"Delta":30216267},{"NoteNumber":68,"Velocity":37,"Duration":105540,"SoundDuration":105540,"Delta":30321808},{"NoteNumber":66,"Velocity":39,"Duration":105541,"SoundDuration":105541,"Delta":30427349},{"NoteNumber":63,"Velocity":36,"Duration":105540,"SoundDuration":105540,"Delta":30532890},{"NoteNumber":66,"Velocity":36,"Duration":105540,"SoundDuration":105540,"Delta":30638431},{"NoteNumber":71,"Velocity":48,"Duration":352335,"SoundDuration":352335,"Delta":30743972},{"NoteNumber":46,"Velocity":41,"Duration":1058217,"SoundDuration":1058217,"Delta":30743972},{"NoteNumber":65,"Velocity":41,"Duration":117646,"SoundDuration":117646,"Delta":30861014},{"NoteNumber":62,"Velocity":41,"Duration":117647,"SoundDuration":117647,"Delta":30978661},{"NoteNumber":70,"Velocity":47,"Duration":352941,"SoundDuration":352941,"Delta":31096308},{"NoteNumber":58,"Velocity":41,"Duration":1625534,"SoundDuration":1625534,"Delta":31096308},{"NoteNumber":65,"Velocity":41,"Duration":117647,"SoundDuration":117647,"Delta":31213955},{"NoteNumber":62,"Velocity":41,"Duration":117647,"SoundDuration":117647,"Delta":31331602},{"NoteNumber":74,"Velocity":47,"Duration":352940,"SoundDuration":352940,"Delta":31449249},{"NoteNumber":68,"Velocity":41,"Duration":117646,"SoundDuration":117646,"Delta":31566896},{"NoteNumber":65,"Velocity":41,"Duration":117646,"SoundDuration":117646,"Delta":31684543},{"NoteNumber":75,"Velocity":47,"Duration":117647,"SoundDuration":117647,"Delta":31802190},{"NoteNumber":51,"Velocity":40,"Duration":919652,"SoundDuration":919652,"Delta":31802190},{"NoteNumber":78,"Velocity":39,"Duration":100250,"SoundDuration":100250,"Delta":31919837},{"NoteNumber":77,"Velocity":39,"Duration":100250,"SoundDuration":100250,"Delta":32020087},{"NoteNumber":75,"Velocity":42,"Duration":100250,"SoundDuration":100250,"Delta":32120338},{"NoteNumber":73,"Velocity":36,"Duration":100250,"SoundDuration":100250,"Delta":32220589},{"NoteNumber":71,"Velocity":36,"Duration":100250,"SoundDuration":100250,"Delta":32320839},{"NoteNumber":70,"Velocity":43,"Duration":100250,"SoundDuration":100250,"Delta":32421090},{"NoteNumber":68,"Velocity":37,"Duration":100250,"SoundDuration":100250,"Delta":32521341},{"NoteNumber":65,"Velocity":36,"Duration":100250,"SoundDuration":100250,"Delta":32621591},{"NoteNumber":66,"Velocity":39,"Duration":100250,"SoundDuration":100250,"Delta":32721842},{"NoteNumber":42,"Velocity":41,"Duration":902256,"SoundDuration":902256,"Delta":32721842},{"NoteNumber":70,"Velocity":39,"Duration":100250,"SoundDuration":100250,"Delta":32822093},{"NoteNumber":68,"Velocity":36,"Duration":100250,"SoundDuration":100250,"Delta":32922343},{"NoteNumber":66,"Velocity":39,"Duration":100250,"SoundDuration":100250,"Delta":33022594},{"NoteNumber":49,"Velocity":33,"Duration":601503,"SoundDuration":601503,"Delta":33022594},{"NoteNumber":65,"Velocity":36,"Duration":100250,"SoundDuration":100250,"Delta":33122845},{"NoteNumber":63,"Velocity":36,"Duration":100250,"SoundDuration":100250,"Delta":33223095},{"NoteNumber":61,"Velocity":39,"Duration":100250,"SoundDuration":100250,"Delta":33323346},{"NoteNumber":59,"Velocity":36,"Duration":100250,"SoundDuration":100250,"Delta":33423597},{"NoteNumber":58,"Velocity":36,"Duration":100250,"SoundDuration":100250,"Delta":33523847},{"NoteNumber":59,"Velocity":40,"Duration":111111,"SoundDuration":111111,"Delta":33624098},{"NoteNumber":44,"Velocity":39,"Duration":1004216,"SoundDuration":1004216,"Delta":33624098},{"NoteNumber":62,"Velocity":40,"Duration":111111,"SoundDuration":111111,"Delta":33735209},{"NoteNumber":65,"Velocity":37,"Duration":111111,"SoundDuration":111111,"Delta":33846320},{"NoteNumber":71,"Velocity":44,"Duration":670883,"SoundDuration":670883,"Delta":33957431},{"NoteNumber":50,"Velocity":53,"Duration":353637,"SoundDuration":353637,"Delta":33957431},{"NoteNumber":65,"Velocity":40,"Duration":117993,"SoundDuration":117993,"Delta":34075081},{"NoteNumber":62,"Velocity":37,"Duration":117994,"SoundDuration":117994,"Delta":34193075},{"NoteNumber":65,"Velocity":40,"Duration":106163,"SoundDuration":106163,"Delta":34311069},{"NoteNumber":49,"Velocity":33,"Duration":317245,"SoundDuration":317245,"Delta":34311069},{"NoteNumber":61,"Velocity":37,"Duration":105541,"SoundDuration":105541,"Delta":34417232},{"NoteNumber":59,"Velocity":37,"Duration":105541,"SoundDuration":105541,"Delta":34522773},{"NoteNumber":58,"Velocity":40,"Duration":100277,"SoundDuration":100277,"Delta":34628314},{"NoteNumber":42,"Velocity":39,"Duration":900277,"SoundDuration":900277,"Delta":34628314},{"NoteNumber":70,"Velocity":40,"Duration":100000,"SoundDuration":100000,"Delta":34728592},{"NoteNumber":68,"Velocity":36,"Duration":100000,"SoundDuration":100000,"Delta":34828592},{"NoteNumber":66,"Velocity":40,"Duration":100000,"SoundDuration":100000,"Delta":34928592},{"NoteNumber":49,"Velocity":33,"Duration":600000,"SoundDuration":600000,"Delta":34928592},{"NoteNumber":65,"Velocity":40,"Duration":99999,"SoundDuration":99999,"Delta":35028592},{"NoteNumber":63,"Velocity":38,"Duration":100000,"SoundDuration":100000,"Delta":35128592},{"NoteNumber":61,"Velocity":40,"Duration":100000,"SoundDuration":100000,"Delta":35228592},{"NoteNumber":59,"Velocity":37,"Duration":100000,"SoundDuration":100000,"Delta":35328592},{"NoteNumber":58,"Velocity":35,"Duration":100000,"SoundDuration":100000,"Delta":35428592},{"NoteNumber":59,"Velocity":39,"Duration":111111,"SoundDuration":111111,"Delta":35528592},{"NoteNumber":44,"Velocity":40,"Duration":1002759,"SoundDuration":1002759,"Delta":35528592},{"NoteNumber":62,"Velocity":35,"Duration":111111,"SoundDuration":111111,"Delta":35639703},{"NoteNumber":65,"Velocity":36,"Duration":111111,"SoundDuration":111111,"Delta":35750814},{"NoteNumber":71,"Velocity":45,"Duration":669426,"SoundDuration":669426,"Delta":35861925},{"NoteNumber":50,"Velocity":55,"Duration":353637,"SoundDuration":353637,"Delta":35861925},{"NoteNumber":65,"Velocity":37,"Duration":117993,"SoundDuration":117993,"Delta":35979574},{"NoteNumber":62,"Velocity":37,"Duration":117994,"SoundDuration":117994,"Delta":36097568},{"NoteNumber":65,"Velocity":40,"Duration":105263,"SoundDuration":105263,"Delta":36215562},{"NoteNumber":49,"Velocity":33,"Duration":315789,"SoundDuration":315789,"Delta":36215562},{"NoteNumber":61,"Velocity":40,"Duration":105263,"SoundDuration":105263,"Delta":36320825},{"NoteNumber":59,"Velocity":36,"Duration":105263,"SoundDuration":105263,"Delta":36426088},{"NoteNumber":61,"Velocity":40,"Duration":111111,"SoundDuration":111111,"Delta":36531351},{"NoteNumber":42,"Velocity":39,"Duration":964472,"SoundDuration":964472,"Delta":36531351},{"NoteNumber":66,"Velocity":37,"Duration":111111,"SoundDuration":111111,"Delta":36642462},{"NoteNumber":70,"Velocity":37,"Duration":110672,"SoundDuration":110672,"Delta":36753573},{"NoteNumber":73,"Velocity":45,"Duration":631578,"SoundDuration":631578,"Delta":36864246},{"NoteNumber":54,"Velocity":43,"Duration":965840,"SoundDuration":965840,"Delta":36864246},{"NoteNumber":70,"Velocity":40,"Duration":105263,"SoundDuration":105263,"Delta":36969509},{"NoteNumber":66,"Velocity":36,"Duration":105263,"SoundDuration":105263,"Delta":37074772},{"NoteNumber":65,"Velocity":39,"Duration":105263,"SoundDuration":105263,"Delta":37180035},{"NoteNumber":66,"Velocity":37,"Duration":105262,"SoundDuration":105262,"Delta":37285298},{"NoteNumber":64,"Velocity":38,"Duration":105263,"SoundDuration":105263,"Delta":37390561},{"NoteNumber":63,"Velocity":39,"Duration":111420,"SoundDuration":111420,"Delta":37495824},{"NoteNumber":47,"Velocity":40,"Duration":966147,"SoundDuration":966147,"Delta":37495824},{"NoteNumber":68,"Velocity":39,"Duration":111420,"SoundDuration":111420,"Delta":37607244},{"NoteNumber":71,"Velocity":39,"Duration":111420,"SoundDuration":111420,"Delta":37718665},{"NoteNumber":75,"Velocity":46,"Duration":631885,"SoundDuration":631885,"Delta":37830086},{"NoteNumber":56,"Velocity":43,"Duration":965218,"SoundDuration":965218,"Delta":37830086},{"NoteNumber":71,"Velocity":38,"Duration":105262,"SoundDuration":105262,"Delta":37935657},{"NoteNumber":68,"Velocity":38,"Duration":105263,"SoundDuration":105263,"Delta":38040920},{"NoteNumber":67,"Velocity":40,"Duration":105263,"SoundDuration":105263,"Delta":38146183},{"NoteNumber":68,"Velocity":39,"Duration":105263,"SoundDuration":105263,"Delta":38251446},{"NoteNumber":66,"Velocity":39,"Duration":105263,"SoundDuration":105263,"Delta":38356709},{"NoteNumber":65,"Velocity":40,"Duration":111111,"SoundDuration":111111,"Delta":38461972},{"NoteNumber":49,"Velocity":43,"Duration":933333,"SoundDuration":933333,"Delta":38461972},{"NoteNumber":66,"Velocity":40,"Duration":111111,"SoundDuration":111111,"Delta":38573083},{"NoteNumber":67,"Velocity":38,"Duration":111111,"SoundDuration":111111,"Delta":38684194},{"NoteNumber":68,"Velocity":40,"Duration":100000,"SoundDuration":100000,"Delta":38795305},{"NoteNumber":59,"Velocity":37,"Duration":600000,"SoundDuration":600000,"Delta":38795305},{"NoteNumber":70,"Velocity":40,"Duration":100000,"SoundDuration":100000,"Delta":38895305},{"NoteNumber":71,"Velocity":39,"Duration":99999,"SoundDuration":99999,"Delta":38995305},{"NoteNumber":73,"Velocity":40,"Duration":100000,"SoundDuration":100000,"Delta":39095305},{"NoteNumber":75,"Velocity":40,"Duration":100000,"SoundDuration":100000,"Delta":39195305},{"NoteNumber":77,"Velocity":39,"Duration":100000,"SoundDuration":100000,"Delta":39295305},{"NoteNumber":78,"Velocity":39,"Duration":106383,"SoundDuration":106383,"Delta":39395305},{"NoteNumber":58,"Velocity":43,"Duration":619149,"SoundDuration":619149,"Delta":39395305},{"NoteNumber":54,"Velocity":32,"Duration":619149,"SoundDuration":619149,"Delta":39395305},{"NoteNumber":82,"Velocity":45,"Duration":106383,"SoundDuration":106383,"Delta":39501688},{"NoteNumber":80,"Velocity":42,"Duration":106383,"SoundDuration":106383,"Delta":39608071},{"NoteNumber":78,"Velocity":41,"Duration":100000,"SoundDuration":100000,"Delta":39714454},{"NoteNumber":77,"Velocity":41,"Duration":100000,"SoundDuration":100000,"Delta":39814454},{"NoteNumber":75,"Velocity":40,"Duration":99999,"SoundDuration":99999,"Delta":39914454},{"NoteNumber":73,"Velocity":40,"Duration":100000,"SoundDuration":100000,"Delta":40014454},{"NoteNumber":71,"Velocity":40,"Duration":100000,"SoundDuration":100000,"Delta":40114454},{"NoteNumber":70,"Velocity":39,"Duration":100000,"SoundDuration":100000,"Delta":40214454},{"NoteNumber":68,"Velocity":40,"Duration":110849,"SoundDuration":110849,"Delta":40314454},{"NoteNumber":46,"Velocity":43,"Duration":933690,"SoundDuration":933690,"Delta":40314454},{"NoteNumber":71,"Velocity":38,"Duration":111420,"SoundDuration":111420,"Delta":40425303},{"NoteNumber":70,"Velocity":38,"Duration":111420,"SoundDuration":111420,"Delta":40536724},{"NoteNumber":68,"Velocity":38,"Duration":100000,"SoundDuration":100000,"Delta":40648145},{"NoteNumber":59,"Velocity":33,"Duration":600000,"SoundDuration":600000,"Delta":40648145},{"NoteNumber":56,"Velocity":25,"Duration":600000,"SoundDuration":600000,"Delta":40648145},{"NoteNumber":53,"Velocity":25,"Duration":600000,"SoundDuration":600000,"Delta":40648145},{"NoteNumber":66,"Velocity":37,"Duration":100000,"SoundDuration":100000,"Delta":40748145},{"NoteNumber":65,"Velocity":35,"Duration":99999,"SoundDuration":99999,"Delta":40848145},{"NoteNumber":63,"Velocity":40,"Duration":100000,"SoundDuration":100000,"Delta":40948145},{"NoteNumber":62,"Velocity":33,"Duration":100000,"SoundDuration":100000,"Delta":41048145},{"NoteNumber":65,"Velocity":33,"Duration":100000,"SoundDuration":100000,"Delta":41148145},{"NoteNumber":68,"Velocity":33,"Duration":110849,"SoundDuration":110849,"Delta":41248145},{"NoteNumber":46,"Velocity":43,"Duration":932834,"SoundDuration":932834,"Delta":41248145},{"NoteNumber":71,"Velocity":33,"Duration":111420,"SoundDuration":111420,"Delta":41358994},{"NoteNumber":70,"Velocity":33,"Duration":110564,"SoundDuration":110564,"Delta":41470415},{"NoteNumber":68,"Velocity":33,"Duration":100000,"SoundDuration":100000,"Delta":41580979},{"NoteNumber":59,"Velocity":32,"Duration":600000,"SoundDuration":600000,"Delta":41580979},{"NoteNumber":56,"Velocity":24,"Duration":600000,"SoundDuration":600000,"Delta":41580979},{"NoteNumber":53,"Velocity":24,"Duration":600000,"SoundDuration":600000,"Delta":41580979},{"NoteNumber":66,"Velocity":33,"Duration":100000,"SoundDuration":100000,"Delta":41680979},{"NoteNumber":65,"Velocity":33,"Duration":99999,"SoundDuration":99999,"Delta":41780979},{"NoteNumber":63,"Velocity":40,"Duration":100000,"SoundDuration":100000,"Delta":41880979},{"NoteNumber":62,"Velocity":33,"Duration":100000,"SoundDuration":100000,"Delta":41980979},{"NoteNumber":65,"Velocity":33,"Duration":100000,"SoundDuration":100000,"Delta":42080979},{"NoteNumber":68,"Velocity":32,"Duration":116436,"SoundDuration":116436,"Delta":42180979},{"NoteNumber":46,"Velocity":43,"Duration":1851040,"SoundDuration":1851040,"Delta":42180979},{"NoteNumber":71,"Velocity":32,"Duration":117302,"SoundDuration":117302,"Delta":42297416},{"NoteNumber":70,"Velocity":32,"Duration":117301,"SoundDuration":117301,"Delta":42414718},{"NoteNumber":68,"Velocity":32,"Duration":100000,"SoundDuration":100000,"Delta":42532020},{"NoteNumber":53,"Velocity":24,"Duration":1500000,"SoundDuration":1500000,"Delta":42532020},{"NoteNumber":59,"Velocity":32,"Duration":1500000,"SoundDuration":1500000,"Delta":42532020},{"NoteNumber":56,"Velocity":24,"Duration":1500000,"SoundDuration":1500000,"Delta":42532020},{"NoteNumber":66,"Velocity":32,"Duration":100000,"SoundDuration":100000,"Delta":42632020},{"NoteNumber":65,"Velocity":32,"Duration":99999,"SoundDuration":99999,"Delta":42732020},{"NoteNumber":63,"Velocity":39,"Duration":100000,"SoundDuration":100000,"Delta":42832020},{"NoteNumber":62,"Velocity":32,"Duration":100000,"SoundDuration":100000,"Delta":42932020},{"NoteNumber":65,"Velocity":32,"Duration":100000,"SoundDuration":100000,"Delta":43032020},{"NoteNumber":68,"Velocity":32,"Duration":100000,"SoundDuration":100000,"Delta":43132020},{"NoteNumber":71,"Velocity":34,"Duration":99999,"SoundDuration":99999,"Delta":43232020},{"NoteNumber":74,"Velocity":36,"Duration":100000,"SoundDuration":100000,"Delta":43332020},{"NoteNumber":71,"Velocity":39,"Duration":100000,"SoundDuration":100000,"Delta":43432020},{"NoteNumber":74,"Velocity":40,"Duration":100000,"SoundDuration":100000,"Delta":43532020},{"NoteNumber":77,"Velocity":41,"Duration":100000,"SoundDuration":100000,"Delta":43632020},{"NoteNumber":74,"Velocity":43,"Duration":99999,"SoundDuration":99999,"Delta":43732020},{"NoteNumber":77,"Velocity":45,"Duration":100000,"SoundDuration":100000,"Delta":43832020},{"NoteNumber":78,"Velocity":46,"Duration":100000,"SoundDuration":100000,"Delta":43932020},{"NoteNumber":80,"Velocity":50,"Duration":110263,"SoundDuration":110263,"Delta":44032020},{"NoteNumber":58,"Velocity":43,"Duration":931892,"SoundDuration":931892,"Delta":44032020},{"NoteNumber":83,"Velocity":48,"Duration":110803,"SoundDuration":110803,"Delta":44142283},{"NoteNumber":82,"Velocity":48,"Duration":109993,"SoundDuration":109993,"Delta":44253086},{"NoteNumber":80,"Velocity":50,"Duration":100000,"SoundDuration":100000,"Delta":44363080},{"NoteNumber":68,"Velocity":24,"Duration":600833,"SoundDuration":600833,"Delta":44363080},{"NoteNumber":65,"Velocity":24,"Duration":600833,"SoundDuration":600833,"Delta":44363080},{"NoteNumber":71,"Velocity":32,"Duration":600833,"SoundDuration":600833,"Delta":44363080},{"NoteNumber":78,"Velocity":48,"Duration":100000,"SoundDuration":100000,"Delta":44463080},{"NoteNumber":77,"Velocity":48,"Duration":99999,"SoundDuration":99999,"Delta":44563080},{"NoteNumber":75,"Velocity":53,"Duration":100000,"SoundDuration":100000,"Delta":44663080},{"NoteNumber":74,"Velocity":47,"Duration":100000,"SoundDuration":100000,"Delta":44763080},{"NoteNumber":77,"Velocity":47,"Duration":100833,"SoundDuration":100833,"Delta":44863080},{"NoteNumber":80,"Velocity":47,"Duration":111111,"SoundDuration":111111,"Delta":44963913},{"NoteNumber":58,"Velocity":43,"Duration":2905282,"SoundDuration":2905282,"Delta":44963913},{"NoteNumber":83,"Velocity":47,"Duration":111110,"SoundDuration":111110,"Delta":45075024},{"NoteNumber":82,"Velocity":46,"Duration":111111,"SoundDuration":111111,"Delta":45186135},{"NoteNumber":80,"Velocity":47,"Duration":100000,"SoundDuration":100000,"Delta":45297246},{"NoteNumber":71,"Velocity":32,"Duration":1480197,"SoundDuration":1480197,"Delta":45297246},{"NoteNumber":68,"Velocity":24,"Duration":2571949,"SoundDuration":2571949,"Delta":45297246},{"NoteNumber":65,"Velocity":24,"Duration":2571949,"SoundDuration":2571949,"Delta":45297246},{"NoteNumber":78,"Velocity":45,"Duration":100000,"SoundDuration":100000,"Delta":45397246},{"NoteNumber":77,"Velocity":45,"Duration":99999,"SoundDuration":99999,"Delta":45497246},{"NoteNumber":75,"Velocity":52,"Duration":100000,"SoundDuration":100000,"Delta":45597246},{"NoteNumber":74,"Velocity":48,"Duration":100000,"SoundDuration":100000,"Delta":45697246},{"NoteNumber":77,"Velocity":48,"Duration":100000,"SoundDuration":100000,"Delta":45797246},{"NoteNumber":80,"Velocity":48,"Duration":97799,"SoundDuration":97799,"Delta":45897246},{"NoteNumber":83,"Velocity":48,"Duration":97799,"SoundDuration":97799,"Delta":45995046},{"NoteNumber":80,"Velocity":51,"Duration":97799,"SoundDuration":97799,"Delta":46092845},{"NoteNumber":83,"Velocity":53,"Duration":97799,"SoundDuration":97799,"Delta":46190645},{"NoteNumber":80,"Velocity":54,"Duration":97799,"SoundDuration":97799,"Delta":46288445},{"NoteNumber":83,"Velocity":56,"Duration":97799,"SoundDuration":97799,"Delta":46386244},{"NoteNumber":80,"Velocity":57,"Duration":97799,"SoundDuration":97799,"Delta":46484044},{"NoteNumber":83,"Velocity":60,"Duration":97799,"SoundDuration":97799,"Delta":46581844},{"NoteNumber":80,"Velocity":61,"Duration":97799,"SoundDuration":97799,"Delta":46679643},{"NoteNumber":82,"Velocity":61,"Duration":100015,"SoundDuration":100015,"Delta":46777443},{"NoteNumber":70,"Velocity":40,"Duration":1091752,"SoundDuration":1091752,"Delta":46777443},{"NoteNumber":80,"Velocity":56,"Duration":103341,"SoundDuration":103341,"Delta":46877458},{"NoteNumber":82,"Velocity":53,"Duration":108089,"SoundDuration":108089,"Delta":46980799},{"NoteNumber":80,"Velocity":48,"Duration":113333,"SoundDuration":113333,"Delta":47088889},{"NoteNumber":82,"Velocity":44,"Duration":119069,"SoundDuration":119069,"Delta":47202223},{"NoteNumber":80,"Velocity":40,"Duration":125469,"SoundDuration":125469,"Delta":47321292},{"NoteNumber":82,"Velocity":36,"Duration":132538,"SoundDuration":132538,"Delta":47446762},{"NoteNumber":80,"Velocity":32,"Duration":140452,"SoundDuration":140452,"Delta":47579300},{"NoteNumber":82,"Velocity":27,"Duration":149443,"SoundDuration":149443,"Delta":47719752},{"NoteNumber":79,"Velocity":48,"Duration":124649,"SoundDuration":124649,"Delta":47869196},{"NoteNumber":51,"Velocity":40,"Duration":974649,"SoundDuration":974649,"Delta":47869196},{"NoteNumber":82,"Velocity":45,"Duration":125000,"SoundDuration":125000,"Delta":47993845},{"NoteNumber":80,"Velocity":43,"Duration":125000,"SoundDuration":125000,"Delta":48118845},{"NoteNumber":79,"Velocity":48,"Duration":100000,"SoundDuration":100000,"Delta":48243845},{"NoteNumber":58,"Velocity":32,"Duration":600000,"SoundDuration":600000,"Delta":48243845},{"NoteNumber":77,"Velocity":45,"Duration":100000,"SoundDuration":100000,"Delta":48343845},{"NoteNumber":75,"Velocity":43,"Duration":99999,"SoundDuration":99999,"Delta":48443845},{"NoteNumber":74,"Velocity":48,"Duration":100000,"SoundDuration":100000,"Delta":48543845},{"NoteNumber":72,"Velocity":46,"Duration":100000,"SoundDuration":100000,"Delta":48643845},{"NoteNumber":70,"Velocity":45,"Duration":100000,"SoundDuration":100000,"Delta":48743845},{"NoteNumber":68,"Velocity":48,"Duration":103092,"SoundDuration":103092,"Delta":48843845},{"NoteNumber":53,"Velocity":41,"Duration":909278,"SoundDuration":909278,"Delta":48843845},{"NoteNumber":67,"Velocity":46,"Duration":103092,"SoundDuration":103092,"Delta":48946938},{"NoteNumber":65,"Velocity":44,"Duration":103092,"SoundDuration":103092,"Delta":49050031},{"NoteNumber":63,"Velocity":48,"Duration":100000,"SoundDuration":100000,"Delta":49153123},{"NoteNumber":58,"Velocity":31,"Duration":296875,"SoundDuration":296875,"Delta":49153123},{"NoteNumber":62,"Velocity":45,"Duration":100000,"SoundDuration":100000,"Delta":49253123},{"NoteNumber":60,"Velocity":45,"Duration":99999,"SoundDuration":99999,"Delta":49353123},{"NoteNumber":58,"Velocity":48,"Duration":300000,"SoundDuration":300000,"Delta":49453123},{"NoteNumber":60,"Velocity":46,"Duration":100000,"SoundDuration":100000,"Delta":49553123},{"NoteNumber":62,"Velocity":45,"Duration":100000,"SoundDuration":100000,"Delta":49653123},{"NoteNumber":63,"Velocity":48,"Duration":101781,"SoundDuration":101781,"Delta":49753123},{"NoteNumber":55,"Velocity":40,"Duration":905343,"SoundDuration":905343,"Delta":49753123},{"NoteNumber":62,"Velocity":46,"Duration":101781,"SoundDuration":101781,"Delta":49854905},{"NoteNumber":63,"Velocity":44,"Duration":101781,"SoundDuration":101781,"Delta":49956686},{"NoteNumber":64,"Velocity":50,"Duration":100000,"SoundDuration":100000,"Delta":50058467},{"NoteNumber":58,"Velocity":30,"Duration":600000,"SoundDuration":600000,"Delta":50058467},{"NoteNumber":63,"Velocity":49,"Duration":100000,"SoundDuration":100000,"Delta":50158467},{"NoteNumber":64,"Velocity":45,"Duration":99999,"SoundDuration":99999,"Delta":50258467},{"NoteNumber":65,"Velocity":54,"Duration":100000,"SoundDuration":100000,"Delta":50358467},{"NoteNumber":64,"Velocity":51,"Duration":100000,"SoundDuration":100000,"Delta":50458467},{"NoteNumber":65,"Velocity":46,"Duration":100000,"SoundDuration":100000,"Delta":50558467},{"NoteNumber":66,"Velocity":57,"Duration":101523,"SoundDuration":101523,"Delta":50658467},{"NoteNumber":50,"Velocity":43,"Duration":904569,"SoundDuration":904569,"Delta":50658467},{"NoteNumber":65,"Velocity":52,"Duration":101523,"SoundDuration":101523,"Delta":50759990},{"NoteNumber":66,"Velocity":48,"Duration":101523,"SoundDuration":101523,"Delta":50861513},{"NoteNumber":67,"Velocity":56,"Duration":100000,"SoundDuration":100000,"Delta":50963036},{"NoteNumber":58,"Velocity":32,"Duration":600000,"SoundDuration":600000,"Delta":50963036},{"NoteNumber":66,"Velocity":52,"Duration":100000,"SoundDuration":100000,"Delta":51063036},{"NoteNumber":67,"Velocity":48,"Duration":99999,"SoundDuration":99999,"Delta":51163036},{"NoteNumber":68,"Velocity":48,"Duration":100000,"SoundDuration":100000,"Delta":51263036},{"NoteNumber":67,"Velocity":45,"Duration":100000,"SoundDuration":100000,"Delta":51363036},{"NoteNumber":68,"Velocity":45,"Duration":100000,"SoundDuration":100000,"Delta":51463036},{"NoteNumber":67,"Velocity":48,"Duration":102827,"SoundDuration":102827,"Delta":51563036},{"NoteNumber":51,"Velocity":40,"Duration":908483,"SoundDuration":908483,"Delta":51563036},{"NoteNumber":70,"Velocity":48,"Duration":102827,"SoundDuration":102827,"Delta":51665864},{"NoteNumber":68,"Velocity":45,"Duration":102827,"SoundDuration":102827,"Delta":51768692},{"NoteNumber":67,"Velocity":48,"Duration":100000,"SoundDuration":100000,"Delta":51871519},{"NoteNumber":58,"Velocity":36,"Duration":600000,"SoundDuration":600000,"Delta":51871519},{"NoteNumber":68,"Velocity":45,"Duration":100000,"SoundDuration":100000,"Delta":51971519},{"NoteNumber":70,"Velocity":43,"Duration":99999,"SoundDuration":99999,"Delta":52071519},{"NoteNumber":72,"Velocity":48,"Duration":100000,"SoundDuration":100000,"Delta":52171519},{"NoteNumber":74,"Velocity":45,"Duration":100000,"SoundDuration":100000,"Delta":52271519},{"NoteNumber":75,"Velocity":44,"Duration":100000,"SoundDuration":100000,"Delta":52371519},{"NoteNumber":77,"Velocity":50,"Duration":106951,"SoundDuration":106951,"Delta":52471519},{"NoteNumber":44,"Velocity":41,"Duration":320855,"SoundDuration":320855,"Delta":52471519},{"NoteNumber":84,"Velocity":50,"Duration":106951,"SoundDuration":106951,"Delta":52578471},{"NoteNumber":82,"Velocity":46,"Duration":106951,"SoundDuration":106951,"Delta":52685423},{"NoteNumber":80,"Velocity":51,"Duration":100000,"SoundDuration":100000,"Delta":52792375},{"NoteNumber":60,"Velocity":32,"Duration":600000,"SoundDuration":600000,"Delta":52792375},{"NoteNumber":56,"Velocity":24,"Duration":600000,"SoundDuration":600000,"Delta":52792375},{"NoteNumber":79,"Velocity":48,"Duration":100000,"SoundDuration":100000,"Delta":52892375},{"NoteNumber":77,"Velocity":45,"Duration":99999,"SoundDuration":99999,"Delta":52992375},{"NoteNumber":75,"Velocity":48,"Duration":100000,"SoundDuration":100000,"Delta":53092375},{"NoteNumber":74,"Velocity":45,"Duration":100000,"SoundDuration":100000,"Delta":53192375},{"NoteNumber":72,"Velocity":45,"Duration":100000,"SoundDuration":100000,"Delta":53292375},{"NoteNumber":74,"Velocity":46,"Duration":102827,"SoundDuration":102827,"Delta":53392375},{"NoteNumber":46,"Velocity":40,"Duration":308483,"SoundDuration":308483,"Delta":53392375},{"NoteNumber":77,"Velocity":46,"Duration":102827,"SoundDuration":102827,"Delta":53495203},{"NoteNumber":75,"Velocity":46,"Duration":102827,"SoundDuration":102827,"Delta":53598031},{"NoteNumber":74,"Velocity":49,"Duration":100000,"SoundDuration":100000,"Delta":53700858},{"NoteNumber":56,"Velocity":23,"Duration":600000,"SoundDuration":600000,"Delta":53700858},{"NoteNumber":65,"Velocity":31,"Duration":600000,"SoundDuration":600000,"Delta":53700858},{"NoteNumber":58,"Velocity":23,"Duration":600000,"SoundDuration":600000,"Delta":53700858},{"NoteNumber":75,"Velocity":50,"Duration":100000,"SoundDuration":100000,"Delta":53800858},{"NoteNumber":77,"Velocity":48,"Duration":99999,"SoundDuration":99999,"Delta":53900858},{"NoteNumber":79,"Velocity":53,"Duration":100000,"SoundDuration":100000,"Delta":54000858},{"NoteNumber":80,"Velocity":51,"Duration":100000,"SoundDuration":100000,"Delta":54100858},{"NoteNumber":82,"Velocity":51,"Duration":100000,"SoundDuration":100000,"Delta":54200858},{"NoteNumber":75,"Velocity":55,"Duration":102827,"SoundDuration":102827,"Delta":54300858},{"NoteNumber":51,"Velocity":47,"Duration":308483,"SoundDuration":308483,"Delta":54300858},{"NoteNumber":77,"Velocity":56,"Duration":102827,"SoundDuration":102827,"Delta":54403686},{"NoteNumber":79,"Velocity":56,"Duration":102827,"SoundDuration":102827,"Delta":54506514},{"NoteNumber":80,"Velocity":58,"Duration":100000,"SoundDuration":100000,"Delta":54609341},{"NoteNumber":63,"Velocity":40,"Duration":600000,"SoundDuration":600000,"Delta":54609341},{"NoteNumber":55,"Velocity":30,"Duration":600000,"SoundDuration":600000,"Delta":54609341},{"NoteNumber":58,"Velocity":30,"Duration":600000,"SoundDuration":600000,"Delta":54609341},{"NoteNumber":82,"Velocity":59,"Duration":100000,"SoundDuration":100000,"Delta":54709341},{"NoteNumber":84,"Velocity":57,"Duration":99999,"SoundDuration":99999,"Delta":54809341},{"NoteNumber":86,"Velocity":61,"Duration":100000,"SoundDuration":100000,"Delta":54909341},{"NoteNumber":87,"Velocity":62,"Duration":100000,"SoundDuration":100000,"Delta":55009341},{"NoteNumber":89,"Velocity":59,"Duration":100000,"SoundDuration":100000,"Delta":55109341},{"NoteNumber":91,"Velocity":64,"Duration":111420,"SoundDuration":111420,"Delta":55209341},{"NoteNumber":51,"Velocity":46,"Duration":935766,"SoundDuration":935766,"Delta":55209341},{"NoteNumber":94,"Velocity":62,"Duration":111420,"SoundDuration":111420,"Delta":55320762},{"NoteNumber":92,"Velocity":58,"Duration":111420,"SoundDuration":111420,"Delta":55432183},{"NoteNumber":91,"Velocity":64,"Duration":100250,"SoundDuration":100250,"Delta":55543603},{"NoteNumber":58,"Velocity":40,"Duration":601503,"SoundDuration":601503,"Delta":55543603},{"NoteNumber":89,"Velocity":61,"Duration":100250,"SoundDuration":100250,"Delta":55643854},{"NoteNumber":87,"Velocity":60,"Duration":100250,"SoundDuration":100250,"Delta":55744105},{"NoteNumber":86,"Velocity":64,"Duration":100250,"SoundDuration":100250,"Delta":55844355},{"NoteNumber":84,"Velocity":58,"Duration":100250,"SoundDuration":100250,"Delta":55944606},{"NoteNumber":82,"Velocity":55,"Duration":100250,"SoundDuration":100250,"Delta":56044857},{"NoteNumber":80,"Velocity":64,"Duration":102301,"SoundDuration":102301,"Delta":56145107},{"NoteNumber":53,"Velocity":43,"Duration":906905,"SoundDuration":906905,"Delta":56145107},{"NoteNumber":79,"Velocity":62,"Duration":102301,"SoundDuration":102301,"Delta":56247409},{"NoteNumber":77,"Velocity":61,"Duration":102301,"SoundDuration":102301,"Delta":56349711},{"NoteNumber":75,"Velocity":59,"Duration":100000,"SoundDuration":100000,"Delta":56452012},{"NoteNumber":58,"Velocity":32,"Duration":600000,"SoundDuration":600000,"Delta":56452012},{"NoteNumber":74,"Velocity":57,"Duration":100000,"SoundDuration":100000,"Delta":56552012},{"NoteNumber":72,"Velocity":55,"Duration":99999,"SoundDuration":99999,"Delta":56652012},{"NoteNumber":70,"Velocity":54,"Duration":100000,"SoundDuration":100000,"Delta":56752012},{"NoteNumber":72,"Velocity":52,"Duration":100000,"SoundDuration":100000,"Delta":56852012},{"NoteNumber":74,"Velocity":50,"Duration":100000,"SoundDuration":100000,"Delta":56952012},{"NoteNumber":75,"Velocity":48,"Duration":102564,"SoundDuration":102564,"Delta":57052012},{"NoteNumber":55,"Velocity":43,"Duration":907692,"SoundDuration":907692,"Delta":57052012},{"NoteNumber":74,"Velocity":48,"Duration":102564,"SoundDuration":102564,"Delta":57154576},{"NoteNumber":75,"Velocity":48,"Duration":102564,"SoundDuration":102564,"Delta":57257140},{"NoteNumber":76,"Velocity":52,"Duration":100000,"SoundDuration":100000,"Delta":57359704},{"NoteNumber":58,"Velocity":32,"Duration":600000,"SoundDuration":600000,"Delta":57359704},{"NoteNumber":75,"Velocity":49,"Duration":100000,"SoundDuration":100000,"Delta":57459704},{"NoteNumber":76,"Velocity":49,"Duration":99999,"SoundDuration":99999,"Delta":57559704},{"NoteNumber":77,"Velocity":54,"Duration":100000,"SoundDuration":100000,"Delta":57659704},{"NoteNumber":76,"Velocity":50,"Duration":100000,"SoundDuration":100000,"Delta":57759704},{"NoteNumber":77,"Velocity":49,"Duration":100000,"SoundDuration":100000,"Delta":57859704},{"NoteNumber":78,"Velocity":56,"Duration":108401,"SoundDuration":108401,"Delta":57959704},{"NoteNumber":50,"Velocity":45,"Duration":925203,"SoundDuration":925203,"Delta":57959704},{"NoteNumber":77,"Velocity":52,"Duration":108401,"SoundDuration":108401,"Delta":58068105},{"NoteNumber":78,"Velocity":52,"Duration":108401,"SoundDuration":108401,"Delta":58176506},{"NoteNumber":79,"Velocity":56,"Duration":100000,"SoundDuration":100000,"Delta":58284907},{"NoteNumber":58,"Velocity":35,"Duration":600000,"SoundDuration":600000,"Delta":58284907},{"NoteNumber":78,"Velocity":51,"Duration":100000,"SoundDuration":100000,"Delta":58384907},{"NoteNumber":79,"Velocity":51,"Duration":99999,"SoundDuration":99999,"Delta":58484907},{"NoteNumber":80,"Velocity":51,"Duration":100000,"SoundDuration":100000,"Delta":58584907},{"NoteNumber":79,"Velocity":48,"Duration":100000,"SoundDuration":100000,"Delta":58684907},{"NoteNumber":80,"Velocity":48,"Duration":100000,"SoundDuration":100000,"Delta":58784907},{"NoteNumber":79,"Velocity":48,"Duration":101010,"SoundDuration":101010,"Delta":58884907},{"NoteNumber":49,"Velocity":45,"Duration":903030,"SoundDuration":903030,"Delta":58884907},{"NoteNumber":78,"Velocity":48,"Duration":101009,"SoundDuration":101009,"Delta":58985917},{"NoteNumber":79,"Velocity":48,"Duration":101010,"SoundDuration":101010,"Delta":59086927},{"NoteNumber":80,"Velocity":50,"Duration":100000,"SoundDuration":100000,"Delta":59187937},{"NoteNumber":51,"Velocity":28,"Duration":600000,"SoundDuration":600000,"Delta":59187937},{"NoteNumber":58,"Velocity":38,"Duration":600000,"SoundDuration":600000,"Delta":59187937},{"NoteNumber":79,"Velocity":51,"Duration":100000,"SoundDuration":100000,"Delta":59287937},{"NoteNumber":80,"Velocity":48,"Duration":99999,"SoundDuration":99999,"Delta":59387937},{"NoteNumber":82,"Velocity":53,"Duration":100000,"SoundDuration":100000,"Delta":59487937},{"NoteNumber":80,"Velocity":54,"Duration":100000,"SoundDuration":100000,"Delta":59587937},{"NoteNumber":82,"Velocity":52,"Duration":100000,"SoundDuration":100000,"Delta":59687937},{"NoteNumber":80,"Velocity":56,"Duration":102040,"SoundDuration":102040,"Delta":59787937},{"NoteNumber":48,"Velocity":62,"Duration":906122,"SoundDuration":906122,"Delta":59787937},{"NoteNumber":79,"Velocity":56,"Duration":102040,"SoundDuration":102040,"Delta":59889978},{"NoteNumber":80,"Velocity":53,"Duration":102040,"SoundDuration":102040,"Delta":59992019},{"NoteNumber":82,"Velocity":58,"Duration":100000,"SoundDuration":100000,"Delta":60094059},{"NoteNumber":51,"Velocity":30,"Duration":600000,"SoundDuration":600000,"Delta":60094059},{"NoteNumber":56,"Velocity":41,"Duration":600000,"SoundDuration":600000,"Delta":60094059},{"NoteNumber":80,"Velocity":59,"Duration":100000,"SoundDuration":100000,"Delta":60194059},{"NoteNumber":82,"Velocity":54,"Duration":99999,"SoundDuration":99999,"Delta":60294059},{"NoteNumber":84,"Velocity":61,"Duration":100000,"SoundDuration":100000,"Delta":60394059},{"NoteNumber":83,"Velocity":60,"Duration":100000,"SoundDuration":100000,"Delta":60494059},{"NoteNumber":84,"Velocity":60,"Duration":100000,"SoundDuration":100000,"Delta":60594059},{"NoteNumber":86,"Velocity":64,"Duration":101781,"SoundDuration":101781,"Delta":60694059},{"NoteNumber":48,"Velocity":71,"Duration":905343,"SoundDuration":905343,"Delta":60694059},{"NoteNumber":85,"Velocity":63,"Duration":101781,"SoundDuration":101781,"Delta":60795841},{"NoteNumber":86,"Velocity":63,"Duration":101781,"SoundDuration":101781,"Delta":60897622},{"NoteNumber":88,"Velocity":66,"Duration":100000,"SoundDuration":100000,"Delta":60999403},{"NoteNumber":57,"Velocity":44,"Duration":600000,"SoundDuration":600000,"Delta":60999403},{"NoteNumber":50,"Velocity":33,"Duration":600000,"SoundDuration":600000,"Delta":60999403},{"NoteNumber":86,"Velocity":65,"Duration":100000,"SoundDuration":100000,"Delta":61099403},{"NoteNumber":88,"Velocity":62,"Duration":99999,"SoundDuration":99999,"Delta":61199403},{"NoteNumber":90,"Velocity":69,"Duration":100000,"SoundDuration":100000,"Delta":61299403},{"NoteNumber":88,"Velocity":68,"Duration":100000,"SoundDuration":100000,"Delta":61399403},{"NoteNumber":90,"Velocity":65,"Duration":100000,"SoundDuration":100000,"Delta":61499403},{"NoteNumber":91,"Velocity":72,"Duration":102301,"SoundDuration":102301,"Delta":61599403},{"NoteNumber":47,"Velocity":72,"Duration":906905,"SoundDuration":906905,"Delta":61599403},{"NoteNumber":90,"Velocity":72,"Duration":102301,"SoundDuration":102301,"Delta":61701705},{"NoteNumber":91,"Velocity":68,"Duration":102301,"SoundDuration":102301,"Delta":61804007},{"NoteNumber":93,"Velocity":74,"Duration":100000,"SoundDuration":100000,"Delta":61906308},{"NoteNumber":50,"Velocity":31,"Duration":600000,"SoundDuration":600000,"Delta":61906308},{"NoteNumber":55,"Velocity":42,"Duration":600000,"SoundDuration":600000,"Delta":61906308},{"NoteNumber":91,"Velocity":73,"Duration":100000,"SoundDuration":100000,"Delta":62006308},{"NoteNumber":93,"Velocity":70,"Duration":99999,"SoundDuration":99999,"Delta":62106308},{"NoteNumber":95,"Velocity":77,"Duration":100000,"SoundDuration":100000,"Delta":62206308},{"NoteNumber":93,"Velocity":76,"Duration":100000,"SoundDuration":100000,"Delta":62306308},{"NoteNumber":95,"Velocity":72,"Duration":100000,"SoundDuration":100000,"Delta":62406308},{"NoteNumber":96,"Velocity":81,"Duration":102040,"SoundDuration":102040,"Delta":62506308},{"NoteNumber":46,"Velocity":72,"Duration":906122,"SoundDuration":906122,"Delta":62506308},{"NoteNumber":95,"Velocity":77,"Duration":102040,"SoundDuration":102040,"Delta":62608349},{"NoteNumber":96,"Velocity":73,"Duration":102040,"SoundDuration":102040,"Delta":62710390},{"NoteNumber":98,"Velocity":81,"Duration":100000,"SoundDuration":100000,"Delta":62812430},{"NoteNumber":48,"Velocity":34,"Duration":600000,"SoundDuration":600000,"Delta":62812430},{"NoteNumber":55,"Velocity":45,"Duration":600000,"SoundDuration":600000,"Delta":62812430},{"NoteNumber":96,"Velocity":77,"Duration":100000,"SoundDuration":100000,"Delta":62912430},{"NoteNumber":98,"Velocity":73,"Duration":99999,"SoundDuration":99999,"Delta":63012430},{"NoteNumber":100,"Velocity":81,"Duration":100000,"SoundDuration":100000,"Delta":63112430},{"NoteNumber":98,"Velocity":78,"Duration":100000,"SoundDuration":100000,"Delta":63212430},{"NoteNumber":100,"Velocity":73,"Duration":100000,"SoundDuration":100000,"Delta":63312430},{"NoteNumber":101,"Velocity":81,"Duration":106952,"SoundDuration":106952,"Delta":63412430},{"NoteNumber":44,"Velocity":72,"Duration":920856,"SoundDuration":920856,"Delta":63412430},{"NoteNumber":99,"Velocity":73,"Duration":106951,"SoundDuration":106951,"Delta":63519382},{"NoteNumber":97,"Velocity":70,"Duration":106952,"SoundDuration":106952,"Delta":63626334},{"NoteNumber":96,"Velocity":81,"Duration":99999,"SoundDuration":99999,"Delta":63733286},{"NoteNumber":48,"Velocity":34,"Duration":599999,"SoundDuration":599999,"Delta":63733286},{"NoteNumber":53,"Velocity":45,"Duration":599999,"SoundDuration":599999,"Delta":63733286},{"NoteNumber":94,"Velocity":74,"Duration":100000,"SoundDuration":100000,"Delta":63833286},{"NoteNumber":92,"Velocity":72,"Duration":99999,"SoundDuration":99999,"Delta":63933286},{"NoteNumber":91,"Velocity":81,"Duration":100000,"SoundDuration":100000,"Delta":64033286},{"NoteNumber":89,"Velocity":74,"Duration":99999,"SoundDuration":99999,"Delta":64133286},{"NoteNumber":87,"Velocity":71,"Duration":99999,"SoundDuration":99999,"Delta":64233286},{"NoteNumber":86,"Velocity":81,"Duration":101781,"SoundDuration":101781,"Delta":64333286},{"NoteNumber":46,"Velocity":71,"Duration":905343,"SoundDuration":905343,"Delta":64333286},{"NoteNumber":84,"Velocity":74,"Duration":101781,"SoundDuration":101781,"Delta":64435068},{"NoteNumber":82,"Velocity":67,"Duration":101781,"SoundDuration":101781,"Delta":64536849},{"NoteNumber":81,"Velocity":81,"Duration":99999,"SoundDuration":99999,"Delta":64638630},{"NoteNumber":56,"Velocity":47,"Duration":599999,"SoundDuration":599999,"Delta":64638630},{"NoteNumber":53,"Velocity":35,"Duration":599999,"SoundDuration":599999,"Delta":64638630},{"NoteNumber":82,"Velocity":74,"Duration":100000,"SoundDuration":100000,"Delta":64738630},{"NoteNumber":84,"Velocity":70,"Duration":99999,"SoundDuration":99999,"Delta":64838630},{"NoteNumber":86,"Velocity":81,"Duration":100000,"SoundDuration":100000,"Delta":64938630},{"NoteNumber":87,"Velocity":75,"Duration":99999,"SoundDuration":99999,"Delta":65038630},{"NoteNumber":89,"Velocity":70,"Duration":99999,"SoundDuration":99999,"Delta":65138630},{"NoteNumber":90,"Velocity":87,"Duration":111420,"SoundDuration":111420,"Delta":65238630},{"NoteNumber":51,"Velocity":72,"Duration":934833,"SoundDuration":934833,"Delta":65238630},{"NoteNumber":94,"Velocity":79,"Duration":111420,"SoundDuration":111420,"Delta":65350051},{"NoteNumber":92,"Velocity":77,"Duration":111420,"SoundDuration":111420,"Delta":65461472},{"NoteNumber":90,"Velocity":81,"Duration":100571,"SoundDuration":100571,"Delta":65572892},{"NoteNumber":63,"Velocity":57,"Duration":600571,"SoundDuration":600571,"Delta":65572892},{"NoteNumber":89,"Velocity":72,"Duration":99999,"SoundDuration":99999,"Delta":65673463},{"NoteNumber":87,"Velocity":69,"Duration":100000,"SoundDuration":100000,"Delta":65773463},{"NoteNumber":85,"Velocity":79,"Duration":99999,"SoundDuration":99999,"Delta":65873463},{"NoteNumber":83,"Velocity":72,"Duration":100000,"SoundDuration":100000,"Delta":65973463},{"NoteNumber":82,"Velocity":69,"Duration":99999,"SoundDuration":99999,"Delta":66073463},{"NoteNumber":83,"Velocity":87,"Duration":111420,"SoundDuration":111420,"Delta":66173463},{"NoteNumber":44,"Velocity":73,"Duration":934833,"SoundDuration":934833,"Delta":66173463},{"NoteNumber":87,"Velocity":78,"Duration":111420,"SoundDuration":111420,"Delta":66284884},{"NoteNumber":85,"Velocity":72,"Duration":111420,"SoundDuration":111420,"Delta":66396305},{"NoteNumber":83,"Velocity":81,"Duration":100571,"SoundDuration":100571,"Delta":66507725},{"NoteNumber":56,"Velocity":57,"Duration":600571,"SoundDuration":600571,"Delta":66507725},{"NoteNumber":82,"Velocity":75,"Duration":99999,"SoundDuration":99999,"Delta":66608297},{"NoteNumber":80,"Velocity":75,"Duration":100000,"SoundDuration":100000,"Delta":66708297},{"NoteNumber":78,"Velocity":81,"Duration":99999,"SoundDuration":99999,"Delta":66808297},{"NoteNumber":77,"Velocity":72,"Duration":100000,"SoundDuration":100000,"Delta":66908297},{"NoteNumber":75,"Velocity":68,"Duration":99999,"SoundDuration":99999,"Delta":67008297},{"NoteNumber":74,"Velocity":87,"Duration":111110,"SoundDuration":111110,"Delta":67108297},{"NoteNumber":46,"Velocity":72,"Duration":933332,"SoundDuration":933332,"Delta":67108297},{"NoteNumber":77,"Velocity":77,"Duration":111111,"SoundDuration":111111,"Delta":67219408},{"NoteNumber":75,"Velocity":74,"Duration":111110,"SoundDuration":111110,"Delta":67330519},{"NoteNumber":74,"Velocity":81,"Duration":99999,"SoundDuration":99999,"Delta":67441630},{"NoteNumber":58,"Velocity":56,"Duration":599999,"SoundDuration":599999,"Delta":67441630},{"NoteNumber":71,"Velocity":72,"Duration":100000,"SoundDuration":100000,"Delta":67541630},{"NoteNumber":70,"Velocity":69,"Duration":99999,"SoundDuration":99999,"Delta":67641630},{"NoteNumber":68,"Velocity":79,"Duration":100000,"SoundDuration":100000,"Delta":67741630},{"NoteNumber":66,"Velocity":68,"Duration":99999,"SoundDuration":99999,"Delta":67841630},{"NoteNumber":65,"Velocity":63,"Duration":99999,"SoundDuration":99999,"Delta":67941630},{"NoteNumber":78,"Velocity":89,"Duration":113960,"SoundDuration":113960,"Delta":68041630},{"NoteNumber":39,"Velocity":73,"Duration":941879,"SoundDuration":941879,"Delta":68041630},{"NoteNumber":82,"Velocity":75,"Duration":113959,"SoundDuration":113959,"Delta":68155590},{"NoteNumber":80,"Velocity":70,"Duration":113960,"SoundDuration":113960,"Delta":68269550},{"NoteNumber":78,"Velocity":80,"Duration":99999,"SoundDuration":99999,"Delta":68383510},{"NoteNumber":51,"Velocity":54,"Duration":599999,"SoundDuration":599999,"Delta":68383510},{"NoteNumber":77,"Velocity":73,"Duration":100000,"SoundDuration":100000,"Delta":68483510},{"NoteNumber":75,"Velocity":70,"Duration":99999,"SoundDuration":99999,"Delta":68583510},{"NoteNumber":73,"Velocity":79,"Duration":100000,"SoundDuration":100000,"Delta":68683510},{"NoteNumber":71,"Velocity":70,"Duration":99999,"SoundDuration":99999,"Delta":68783510},{"NoteNumber":70,"Velocity":64,"Duration":99999,"SoundDuration":99999,"Delta":68883510},{"NoteNumber":71,"Velocity":85,"Duration":120846,"SoundDuration":120846,"Delta":68983510},{"NoteNumber":32,"Velocity":75,"Duration":962537,"SoundDuration":962537,"Delta":68983510},{"NoteNumber":75,"Velocity":77,"Duration":120846,"SoundDuration":120846,"Delta":69104356},{"NoteNumber":73,"Velocity":74,"Duration":120846,"SoundDuration":120846,"Delta":69225202},{"NoteNumber":71,"Velocity":80,"Duration":99999,"SoundDuration":99999,"Delta":69346048},{"NoteNumber":44,"Velocity":64,"Duration":599999,"SoundDuration":599999,"Delta":69346048},{"NoteNumber":70,"Velocity":74,"Duration":100000,"SoundDuration":100000,"Delta":69446048},{"NoteNumber":68,"Velocity":71,"Duration":99999,"SoundDuration":99999,"Delta":69546048},{"NoteNumber":66,"Velocity":78,"Duration":100000,"SoundDuration":100000,"Delta":69646048},{"NoteNumber":65,"Velocity":70,"Duration":99999,"SoundDuration":99999,"Delta":69746048},{"NoteNumber":63,"Velocity":67,"Duration":99999,"SoundDuration":99999,"Delta":69846048},{"NoteNumber":62,"Velocity":89,"Duration":111110,"SoundDuration":111110,"Delta":69946048},{"NoteNumber":34,"Velocity":76,"Duration":933332,"SoundDuration":933332,"Delta":69946048},{"NoteNumber":65,"Velocity":77,"Duration":111111,"SoundDuration":111111,"Delta":70057159},{"NoteNumber":63,"Velocity":77,"Duration":111110,"SoundDuration":111110,"Delta":70168270},{"NoteNumber":62,"Velocity":81,"Duration":99999,"SoundDuration":99999,"Delta":70279381},{"NoteNumber":46,"Velocity":57,"Duration":599999,"SoundDuration":599999,"Delta":70279381},{"NoteNumber":59,"Velocity":77,"Duration":100000,"SoundDuration":100000,"Delta":70379381},{"NoteNumber":58,"Velocity":73,"Duration":99999,"SoundDuration":99999,"Delta":70479381},{"NoteNumber":56,"Velocity":81,"Duration":100000,"SoundDuration":100000,"Delta":70579381},{"NoteNumber":54,"Velocity":76,"Duration":99999,"SoundDuration":99999,"Delta":70679381},{"NoteNumber":53,"Velocity":72,"Duration":99999,"SoundDuration":99999,"Delta":70779381},{"NoteNumber":51,"Velocity":81,"Duration":100000,"SoundDuration":100000,"Delta":70879381},{"NoteNumber":39,"Velocity":58,"Duration":300000,"SoundDuration":300000,"Delta":70879381},{"NoteNumber":53,"Velocity":79,"Duration":99999,"SoundDuration":99999,"Delta":70979381},{"NoteNumber":54,"Velocity":79,"Duration":100000,"SoundDuration":100000,"Delta":71079381},{"NoteNumber":56,"Velocity":89,"Duration":110555,"SoundDuration":110555,"Delta":71179381},{"NoteNumber":50,"Velocity":72,"Duration":666110,"SoundDuration":666110,"Delta":71179381},{"NoteNumber":46,"Velocity":54,"Duration":666110,"SoundDuration":666110,"Delta":71179381},{"NoteNumber":59,"Velocity":81,"Duration":111111,"SoundDuration":111111,"Delta":71289936},{"NoteNumber":58,"Velocity":81,"Duration":111110,"SoundDuration":111110,"Delta":71401047},{"NoteNumber":56,"Velocity":81,"Duration":111110,"SoundDuration":111110,"Delta":71512158},{"NoteNumber":54,"Velocity":77,"Duration":111111,"SoundDuration":111111,"Delta":71623269},{"NoteNumber":53,"Velocity":77,"Duration":111110,"SoundDuration":111110,"Delta":71734380},{"NoteNumber":51,"Velocity":81,"Duration":100555,"SoundDuration":100555,"Delta":71845491},{"NoteNumber":39,"Velocity":56,"Duration":150555,"SoundDuration":150555,"Delta":71845491},{"NoteNumber":53,"Velocity":76,"Duration":99999,"SoundDuration":99999,"Delta":71946047},{"NoteNumber":54,"Velocity":76,"Duration":100000,"SoundDuration":100000,"Delta":72046047},{"NoteNumber":56,"Velocity":89,"Duration":110555,"SoundDuration":110555,"Delta":72146047},{"NoteNumber":50,"Velocity":81,"Duration":666110,"SoundDuration":666110,"Delta":72146047},{"NoteNumber":46,"Velocity":61,"Duration":666110,"SoundDuration":666110,"Delta":72146047},{"NoteNumber":59,"Velocity":77,"Duration":111111,"SoundDuration":111111,"Delta":72256602},{"NoteNumber":58,"Velocity":78,"Duration":111110,"SoundDuration":111110,"Delta":72367713},{"NoteNumber":56,"Velocity":81,"Duration":111110,"SoundDuration":111110,"Delta":72478824},{"NoteNumber":54,"Velocity":77,"Duration":111111,"SoundDuration":111111,"Delta":72589935},{"NoteNumber":53,"Velocity":77,"Duration":111110,"SoundDuration":111110,"Delta":72701046},{"NoteNumber":51,"Velocity":81,"Duration":100250,"SoundDuration":100250,"Delta":72812157},{"NoteNumber":39,"Velocity":64,"Duration":150375,"SoundDuration":150375,"Delta":72812157},{"NoteNumber":53,"Velocity":78,"Duration":100250,"SoundDuration":100250,"Delta":72912408},{"NoteNumber":54,"Velocity":78,"Duration":100250,"SoundDuration":100250,"Delta":73012658},{"NoteNumber":56,"Velocity":89,"Duration":111110,"SoundDuration":111110,"Delta":73112909},{"NoteNumber":46,"Velocity":61,"Duration":666666,"SoundDuration":666666,"Delta":73112909},{"NoteNumber":50,"Velocity":81,"Duration":666666,"SoundDuration":666666,"Delta":73112909},{"NoteNumber":59,"Velocity":78,"Duration":111111,"SoundDuration":111111,"Delta":73224020},{"NoteNumber":58,"Velocity":78,"Duration":111110,"SoundDuration":111110,"Delta":73335131},{"NoteNumber":56,"Velocity":81,"Duration":111111,"SoundDuration":111111,"Delta":73446242},{"NoteNumber":54,"Velocity":78,"Duration":111110,"SoundDuration":111110,"Delta":73557353},{"NoteNumber":53,"Velocity":78,"Duration":111111,"SoundDuration":111111,"Delta":73668464},{"NoteNumber":51,"Velocity":81,"Duration":99999,"SoundDuration":99999,"Delta":73779575},{"NoteNumber":39,"Velocity":72,"Duration":99999,"SoundDuration":99999,"Delta":73779575},{"NoteNumber":53,"Velocity":81,"Duration":100000,"SoundDuration":100000,"Delta":73879575},{"NoteNumber":41,"Velocity":72,"Duration":100000,"SoundDuration":100000,"Delta":73879575},{"NoteNumber":54,"Velocity":78,"Duration":99999,"SoundDuration":99999,"Delta":73979575},{"NoteNumber":42,"Velocity":72,"Duration":99999,"SoundDuration":99999,"Delta":73979575},{"NoteNumber":56,"Velocity":85,"Duration":100000,"SoundDuration":100000,"Delta":74079575},{"NoteNumber":44,"Velocity":76,"Duration":100000,"SoundDuration":100000,"Delta":74079575},{"NoteNumber":58,"Velocity":87,"Duration":99999,"SoundDuration":99999,"Delta":74179575},{"NoteNumber":46,"Velocity":78,"Duration":99999,"SoundDuration":99999,"Delta":74179575},{"NoteNumber":60,"Velocity":85,"Duration":99999,"SoundDuration":99999,"Delta":74279575},{"NoteNumber":48,"Velocity":74,"Duration":99999,"SoundDuration":99999,"Delta":74279575},{"NoteNumber":62,"Velocity":90,"Duration":100000,"SoundDuration":100000,"Delta":74379575},{"NoteNumber":50,"Velocity":81,"Duration":100000,"SoundDuration":100000,"Delta":74379575},{"NoteNumber":63,"Velocity":92,"Duration":99999,"SoundDuration":99999,"Delta":74479575},{"NoteNumber":51,"Velocity":82,"Duration":99999,"SoundDuration":99999,"Delta":74479575},{"NoteNumber":65,"Velocity":89,"Duration":100000,"SoundDuration":100000,"Delta":74579575},{"NoteNumber":53,"Velocity":79,"Duration":100000,"SoundDuration":100000,"Delta":74579575},{"NoteNumber":66,"Velocity":96,"Duration":599999,"SoundDuration":599999,"Delta":74679575},{"NoteNumber":54,"Velocity":86,"Duration":599999,"SoundDuration":599999,"Delta":74679575},{"NoteNumber":58,"Velocity":81,"Duration":600000,"SoundDuration":600000,"Delta":75579575},{"NoteNumber":61,"Velocity":81,"Duration":600000,"SoundDuration":600000,"Delta":75579575},{"NoteNumber":66,"Velocity":81,"Duration":600000,"SoundDuration":600000,"Delta":75579575},{"NoteNumber":70,"Velocity":97,"Duration":600000,"SoundDuration":600000,"Delta":75579575},{"NoteNumber":42,"Velocity":68,"Duration":600000,"SoundDuration":600000,"Delta":75579575},{"NoteNumber":54,"Velocity":68,"Duration":600000,"SoundDuration":600000,"Delta":75579575},{"NoteNumber":71,"Velocity":92,"Duration":999999,"SoundDuration":999999,"Delta":76523415},{"NoteNumber":35,"Velocity":65,"Duration":166666,"SoundDuration":166666,"Delta":76523415},{"NoteNumber":59,"Velocity":72,"Duration":111111,"SoundDuration":111111,"Delta":76856748},{"NoteNumber":47,"Velocity":53,"Duration":666666,"SoundDuration":666666,"Delta":76856748},{"NoteNumber":50,"Velocity":53,"Duration":666666,"SoundDuration":666666,"Delta":76856748},{"NoteNumber":54,"Velocity":59,"Duration":666666,"SoundDuration":666666,"Delta":76856748},{"NoteNumber":62,"Velocity":67,"Duration":111110,"SoundDuration":111110,"Delta":76967859},{"NoteNumber":66,"Velocity":67,"Duration":111111,"SoundDuration":111111,"Delta":77078970},{"NoteNumber":59,"Velocity":72,"Duration":333332,"SoundDuration":333332,"Delta":77190081},{"NoteNumber":71,"Velocity":91,"Duration":999999,"SoundDuration":999999,"Delta":77523414},{"NoteNumber":35,"Velocity":67,"Duration":166666,"SoundDuration":166666,"Delta":77523414},{"NoteNumber":59,"Velocity":72,"Duration":111111,"SoundDuration":111111,"Delta":77856747},{"NoteNumber":47,"Velocity":51,"Duration":666666,"SoundDuration":666666,"Delta":77856747},{"NoteNumber":49,"Velocity":51,"Duration":666666,"SoundDuration":666666,"Delta":77856747},{"NoteNumber":52,"Velocity":51,"Duration":666666,"SoundDuration":666666,"Delta":77856747},{"NoteNumber":55,"Velocity":57,"Duration":666666,"SoundDuration":666666,"Delta":77856747},{"NoteNumber":61,"Velocity":68,"Duration":111110,"SoundDuration":111110,"Delta":77967858},{"NoteNumber":67,"Velocity":68,"Duration":111110,"SoundDuration":111110,"Delta":78078969},{"NoteNumber":59,"Velocity":72,"Duration":333333,"SoundDuration":333333,"Delta":78190080},{"NoteNumber":71,"Velocity":85,"Duration":316623,"SoundDuration":316623,"Delta":78523413},{"NoteNumber":50,"Velocity":72,"Duration":316623,"SoundDuration":316623,"Delta":78523413},{"NoteNumber":62,"Velocity":64,"Duration":158311,"SoundDuration":158311,"Delta":78681724},{"NoteNumber":66,"Velocity":72,"Duration":158311,"SoundDuration":158311,"Delta":78681724},{"NoteNumber":54,"Velocity":52,"Duration":158311,"SoundDuration":158311,"Delta":78681724},{"NoteNumber":59,"Velocity":58,"Duration":158311,"SoundDuration":158311,"Delta":78681724},{"NoteNumber":73,"Velocity":92,"Duration":316622,"SoundDuration":316622,"Delta":78840036},{"NoteNumber":49,"Velocity":80,"Duration":316622,"SoundDuration":316622,"Delta":78840036},{"NoteNumber":64,"Velocity":71,"Duration":158311,"SoundDuration":158311,"Delta":78998347},{"NoteNumber":66,"Velocity":79,"Duration":158311,"SoundDuration":158311,"Delta":78998347},{"NoteNumber":54,"Velocity":55,"Duration":158311,"SoundDuration":158311,"Delta":78998347},{"NoteNumber":58,"Velocity":62,"Duration":158311,"SoundDuration":158311,"Delta":78998347},{"NoteNumber":74,"Velocity":85,"Duration":316623,"SoundDuration":316623,"Delta":79156659},{"NoteNumber":47,"Velocity":72,"Duration":316623,"SoundDuration":316623,"Delta":79156659},{"NoteNumber":62,"Velocity":64,"Duration":158311,"SoundDuration":158311,"Delta":79314970},{"NoteNumber":66,"Velocity":72,"Duration":158311,"SoundDuration":158311,"Delta":79314970},{"NoteNumber":54,"Velocity":51,"Duration":158311,"SoundDuration":158311,"Delta":79314970},{"NoteNumber":59,"Velocity":57,"Duration":158311,"SoundDuration":158311,"Delta":79314970},{"NoteNumber":73,"Velocity":88,"Duration":999999,"SoundDuration":999999,"Delta":79473282},{"NoteNumber":42,"Velocity":80,"Duration":333332,"SoundDuration":333332,"Delta":79473282},{"NoteNumber":61,"Velocity":72,"Duration":111111,"SoundDuration":111111,"Delta":79806615},{"NoteNumber":54,"Velocity":51,"Duration":666666,"SoundDuration":666666,"Delta":79806615},{"NoteNumber":58,"Velocity":57,"Duration":666666,"SoundDuration":666666,"Delta":79806615},{"NoteNumber":66,"Velocity":68,"Duration":111110,"SoundDuration":111110,"Delta":79917726},{"NoteNumber":70,"Velocity":68,"Duration":111111,"SoundDuration":111111,"Delta":80028837},{"NoteNumber":61,"Velocity":72,"Duration":333332,"SoundDuration":333332,"Delta":80139948},{"NoteNumber":78,"Velocity":95,"Duration":999999,"SoundDuration":999999,"Delta":80473281},{"NoteNumber":42,"Velocity":81,"Duration":333332,"SoundDuration":333332,"Delta":80473281},{"NoteNumber":66,"Velocity":81,"Duration":111111,"SoundDuration":111111,"Delta":80806614},{"NoteNumber":54,"Velocity":57,"Duration":666666,"SoundDuration":666666,"Delta":80806614},{"NoteNumber":58,"Velocity":57,"Duration":666666,"SoundDuration":666666,"Delta":80806614},{"NoteNumber":61,"Velocity":64,"Duration":666666,"SoundDuration":666666,"Delta":80806614},{"NoteNumber":70,"Velocity":75,"Duration":111110,"SoundDuration":111110,"Delta":80917725},{"NoteNumber":73,"Velocity":75,"Duration":111110,"SoundDuration":111110,"Delta":81028836},{"NoteNumber":66,"Velocity":81,"Duration":333333,"SoundDuration":333333,"Delta":81139947},{"NoteNumber":74,"Velocity":91,"Duration":999998,"SoundDuration":999998,"Delta":81473280},{"NoteNumber":47,"Velocity":80,"Duration":333332,"SoundDuration":333332,"Delta":81473280},{"NoteNumber":62,"Velocity":72,"Duration":111110,"SoundDuration":111110,"Delta":81806613},{"NoteNumber":54,"Velocity":50,"Duration":666665,"SoundDuration":666665,"Delta":81806613},{"NoteNumber":59,"Velocity":56,"Duration":666665,"SoundDuration":666665,"Delta":81806613},{"NoteNumber":66,"Velocity":68,"Duration":111111,"SoundDuration":111111,"Delta":81917724},{"NoteNumber":71,"Velocity":68,"Duration":111110,"SoundDuration":111110,"Delta":82028835},{"NoteNumber":62,"Velocity":72,"Duration":333332,"SoundDuration":333332,"Delta":82139946},{"NoteNumber":71,"Velocity":72,"Duration":161290,"SoundDuration":161290,"Delta":82473279},{"NoteNumber":73,"Velocity":85,"Duration":322580,"SoundDuration":322580,"Delta":82473279},{"NoteNumber":43,"Velocity":72,"Duration":161290,"SoundDuration":161290,"Delta":82473279},{"NoteNumber":64,"Velocity":72,"Duration":161290,"SoundDuration":161290,"Delta":82634569},{"NoteNumber":55,"Velocity":56,"Duration":161290,"SoundDuration":161290,"Delta":82634569},{"NoteNumber":71,"Velocity":74,"Duration":161290,"SoundDuration":161290,"Delta":82795860},{"NoteNumber":76,"Velocity":88,"Duration":322580,"SoundDuration":322580,"Delta":82795860},{"NoteNumber":40,"Velocity":79,"Duration":161290,"SoundDuration":161290,"Delta":82795860},{"NoteNumber":64,"Velocity":72,"Duration":161290,"SoundDuration":161290,"Delta":82957150},{"NoteNumber":52,"Velocity":59,"Duration":161290,"SoundDuration":161290,"Delta":82957150},{"NoteNumber":71,"Velocity":68,"Duration":161290,"SoundDuration":161290,"Delta":83118441},{"NoteNumber":73,"Velocity":89,"Duration":322580,"SoundDuration":322580,"Delta":83118441},{"NoteNumber":43,"Velocity":72,"Duration":161290,"SoundDuration":161290,"Delta":83118441},{"NoteNumber":64,"Velocity":72,"Duration":161290,"SoundDuration":161290,"Delta":83279731},{"NoteNumber":55,"Velocity":57,"Duration":161290,"SoundDuration":161290,"Delta":83279731},{"NoteNumber":74,"Velocity":93,"Duration":1031062,"SoundDuration":1031062,"Delta":83441022},{"NoteNumber":47,"Velocity":79,"Duration":334261,"SoundDuration":334261,"Delta":83441022},{"NoteNumber":62,"Velocity":72,"Duration":111420,"SoundDuration":111420,"Delta":83775284},{"NoteNumber":54,"Velocity":57,"Duration":696800,"SoundDuration":696800,"Delta":83775284},{"NoteNumber":59,"Velocity":64,"Duration":696800,"SoundDuration":696800,"Delta":83775284},{"NoteNumber":66,"Velocity":67,"Duration":111420,"SoundDuration":111420,"Delta":83886705},{"NoteNumber":71,"Velocity":67,"Duration":111420,"SoundDuration":111420,"Delta":83998125},{"NoteNumber":62,"Velocity":72,"Duration":181269,"SoundDuration":181269,"Delta":84109546},{"NoteNumber":71,"Velocity":54,"Duration":999999,"SoundDuration":999999,"Delta":84472084},{"NoteNumber":35,"Velocity":45,"Duration":166666,"SoundDuration":166666,"Delta":84472084},{"NoteNumber":59,"Velocity":32,"Duration":111111,"SoundDuration":111111,"Delta":84805417},{"NoteNumber":47,"Velocity":28,"Duration":666666,"SoundDuration":666666,"Delta":84805417},{"NoteNumber":50,"Velocity":28,"Duration":666666,"SoundDuration":666666,"Delta":84805417},{"NoteNumber":54,"Velocity":32,"Duration":666666,"SoundDuration":666666,"Delta":84805417},{"NoteNumber":62,"Velocity":33,"Duration":111110,"SoundDuration":111110,"Delta":84916528},{"NoteNumber":66,"Velocity":33,"Duration":111111,"SoundDuration":111111,"Delta":85027639},{"NoteNumber":59,"Velocity":33,"Duration":333332,"SoundDuration":333332,"Delta":85138750},{"NoteNumber":71,"Velocity":54,"Duration":999999,"SoundDuration":999999,"Delta":85472083},{"NoteNumber":35,"Velocity":43,"Duration":166666,"SoundDuration":166666,"Delta":85472083},{"NoteNumber":59,"Velocity":34,"Duration":111111,"SoundDuration":111111,"Delta":85805416},{"NoteNumber":47,"Velocity":28,"Duration":666666,"SoundDuration":666666,"Delta":85805416},{"NoteNumber":49,"Velocity":28,"Duration":666666,"SoundDuration":666666,"Delta":85805416},{"NoteNumber":52,"Velocity":28,"Duration":666666,"SoundDuration":666666,"Delta":85805416},{"NoteNumber":55,"Velocity":32,"Duration":666666,"SoundDuration":666666,"Delta":85805416},{"NoteNumber":61,"Velocity":33,"Duration":111110,"SoundDuration":111110,"Delta":85916527},{"NoteNumber":67,"Velocity":32,"Duration":111110,"SoundDuration":111110,"Delta":86027638},{"NoteNumber":59,"Velocity":32,"Duration":333333,"SoundDuration":333333,"Delta":86138749},{"NoteNumber":71,"Velocity":48,"Duration":321715,"SoundDuration":321715,"Delta":86472082},{"NoteNumber":50,"Velocity":45,"Duration":321715,"SoundDuration":321715,"Delta":86472082},{"NoteNumber":62,"Velocity":33,"Duration":160857,"SoundDuration":160857,"Delta":86632940},{"NoteNumber":66,"Velocity":37,"Duration":160857,"SoundDuration":160857,"Delta":86632940},{"NoteNumber":54,"Velocity":36,"Duration":160857,"SoundDuration":160857,"Delta":86632940},{"NoteNumber":59,"Velocity":40,"Duration":160857,"SoundDuration":160857,"Delta":86632940},{"NoteNumber":73,"Velocity":53,"Duration":321716,"SoundDuration":321716,"Delta":86793798},{"NoteNumber":49,"Velocity":48,"Duration":321716,"SoundDuration":321716,"Delta":86793798},{"NoteNumber":64,"Velocity":37,"Duration":160858,"SoundDuration":160858,"Delta":86954656},{"NoteNumber":66,"Velocity":42,"Duration":160858,"SoundDuration":160858,"Delta":86954656},{"NoteNumber":54,"Velocity":37,"Duration":160858,"SoundDuration":160858,"Delta":86954656},{"NoteNumber":58,"Velocity":42,"Duration":160858,"SoundDuration":160858,"Delta":86954656},{"NoteNumber":74,"Velocity":48,"Duration":321715,"SoundDuration":321715,"Delta":87115514},{"NoteNumber":47,"Velocity":45,"Duration":321715,"SoundDuration":321715,"Delta":87115514},{"NoteNumber":62,"Velocity":32,"Duration":160858,"SoundDuration":160858,"Delta":87276372},{"NoteNumber":66,"Velocity":36,"Duration":160858,"SoundDuration":160858,"Delta":87276372},{"NoteNumber":54,"Velocity":36,"Duration":160858,"SoundDuration":160858,"Delta":87276372},{"NoteNumber":59,"Velocity":40,"Duration":160858,"SoundDuration":160858,"Delta":87276372},{"NoteNumber":73,"Velocity":48,"Duration":999999,"SoundDuration":999999,"Delta":87437230},{"NoteNumber":42,"Velocity":44,"Duration":333332,"SoundDuration":333332,"Delta":87437230},{"NoteNumber":61,"Velocity":33,"Duration":111111,"SoundDuration":111111,"Delta":87770563},{"NoteNumber":54,"Velocity":31,"Duration":666666,"SoundDuration":666666,"Delta":87770563},{"NoteNumber":58,"Velocity":35,"Duration":666666,"SoundDuration":666666,"Delta":87770563},{"NoteNumber":66,"Velocity":34,"Duration":111110,"SoundDuration":111110,"Delta":87881674},{"NoteNumber":70,"Velocity":35,"Duration":111111,"SoundDuration":111111,"Delta":87992785},{"NoteNumber":61,"Velocity":35,"Duration":333332,"SoundDuration":333332,"Delta":88103896},{"NoteNumber":78,"Velocity":81,"Duration":999999,"SoundDuration":999999,"Delta":88437229},{"NoteNumber":42,"Velocity":74,"Duration":333332,"SoundDuration":333332,"Delta":88437229},{"NoteNumber":66,"Velocity":64,"Duration":111111,"SoundDuration":111111,"Delta":88770562},{"NoteNumber":54,"Velocity":57,"Duration":666666,"SoundDuration":666666,"Delta":88770562},{"NoteNumber":58,"Velocity":57,"Duration":666666,"SoundDuration":666666,"Delta":88770562},{"NoteNumber":61,"Velocity":64,"Duration":666666,"SoundDuration":666666,"Delta":88770562},{"NoteNumber":70,"Velocity":58,"Duration":111110,"SoundDuration":111110,"Delta":88881673},{"NoteNumber":73,"Velocity":58,"Duration":111111,"SoundDuration":111111,"Delta":88992784},{"NoteNumber":66,"Velocity":64,"Duration":333332,"SoundDuration":333332,"Delta":89103895},{"NoteNumber":74,"Velocity":81,"Duration":999999,"SoundDuration":999999,"Delta":89437228},{"NoteNumber":47,"Velocity":73,"Duration":333332,"SoundDuration":333332,"Delta":89437228},{"NoteNumber":62,"Velocity":64,"Duration":111111,"SoundDuration":111111,"Delta":89770561},{"NoteNumber":54,"Velocity":56,"Duration":666666,"SoundDuration":666666,"Delta":89770561},{"NoteNumber":59,"Velocity":63,"Duration":666666,"SoundDuration":666666,"Delta":89770561},{"NoteNumber":66,"Velocity":59,"Duration":111110,"SoundDuration":111110,"Delta":89881672},{"NoteNumber":71,"Velocity":64,"Duration":111110,"SoundDuration":111110,"Delta":89992783},{"NoteNumber":62,"Velocity":64,"Duration":333333,"SoundDuration":333333,"Delta":90103894},{"NoteNumber":71,"Velocity":80,"Duration":316081,"SoundDuration":316081,"Delta":90437227},{"NoteNumber":38,"Velocity":64,"Duration":158186,"SoundDuration":158186,"Delta":90437227},{"NoteNumber":68,"Velocity":64,"Duration":157894,"SoundDuration":157894,"Delta":90595414},{"NoteNumber":66,"Velocity":57,"Duration":157894,"SoundDuration":157894,"Delta":90595414},{"NoteNumber":50,"Velocity":57,"Duration":157894,"SoundDuration":157894,"Delta":90595414},{"NoteNumber":74,"Velocity":89,"Duration":315788,"SoundDuration":315788,"Delta":90753308},{"NoteNumber":35,"Velocity":72,"Duration":157894,"SoundDuration":157894,"Delta":90753308},{"NoteNumber":68,"Velocity":64,"Duration":157894,"SoundDuration":157894,"Delta":90911203},{"NoteNumber":66,"Velocity":57,"Duration":157894,"SoundDuration":157894,"Delta":90911203},{"NoteNumber":47,"Velocity":60,"Duration":157894,"SoundDuration":157894,"Delta":90911203},{"NoteNumber":71,"Velocity":81,"Duration":315789,"SoundDuration":315789,"Delta":91069097},{"NoteNumber":38,"Velocity":64,"Duration":157894,"SoundDuration":157894,"Delta":91069097},{"NoteNumber":68,"Velocity":64,"Duration":157894,"SoundDuration":157894,"Delta":91226992},{"NoteNumber":66,"Velocity":57,"Duration":157894,"SoundDuration":157894,"Delta":91226992},{"NoteNumber":50,"Velocity":57,"Duration":157894,"SoundDuration":157894,"Delta":91226992},{"NoteNumber":73,"Velocity":81,"Duration":1042225,"SoundDuration":1042225,"Delta":91384886},{"NoteNumber":37,"Velocity":81,"Duration":334261,"SoundDuration":334261,"Delta":91384886},{"NoteNumber":61,"Velocity":48,"Duration":117993,"SoundDuration":117993,"Delta":91719148},{"NoteNumber":49,"Velocity":43,"Duration":707964,"SoundDuration":707964,"Delta":91719148},{"NoteNumber":53,"Velocity":43,"Duration":707964,"SoundDuration":707964,"Delta":91719148},{"NoteNumber":56,"Velocity":48,"Duration":707964,"SoundDuration":707964,"Delta":91719148},{"NoteNumber":65,"Velocity":48,"Duration":117994,"SoundDuration":117994,"Delta":91837142},{"NoteNumber":68,"Velocity":48,"Duration":117993,"SoundDuration":117993,"Delta":91955136},{"NoteNumber":61,"Velocity":49,"Duration":353982,"SoundDuration":353982,"Delta":92073130},{"NoteNumber":69,"Velocity":48,"Duration":997589,"SoundDuration":997589,"Delta":92427112},{"NoteNumber":42,"Velocity":48,"Duration":166564,"SoundDuration":166564,"Delta":92427112},{"NoteNumber":57,"Velocity":32,"Duration":110803,"SoundDuration":110803,"Delta":92759882},{"NoteNumber":54,"Velocity":40,"Duration":664820,"SoundDuration":664820,"Delta":92759882},{"NoteNumber":61,"Velocity":32,"Duration":110803,"SoundDuration":110803,"Delta":92870685},{"NoteNumber":66,"Velocity":33,"Duration":110803,"SoundDuration":110803,"Delta":92981489},{"NoteNumber":57,"Velocity":33,"Duration":332410,"SoundDuration":332410,"Delta":93092292},{"NoteNumber":67,"Velocity":48,"Duration":997229,"SoundDuration":997229,"Delta":93424702},{"NoteNumber":35,"Velocity":48,"Duration":166204,"SoundDuration":166204,"Delta":93424702},{"NoteNumber":55,"Velocity":32,"Duration":110803,"SoundDuration":110803,"Delta":93757112},{"NoteNumber":47,"Velocity":36,"Duration":664819,"SoundDuration":664819,"Delta":93757112},{"NoteNumber":50,"Velocity":40,"Duration":664819,"SoundDuration":664819,"Delta":93757112},{"NoteNumber":59,"Velocity":32,"Duration":110803,"SoundDuration":110803,"Delta":93867915},{"NoteNumber":62,"Velocity":32,"Duration":110803,"SoundDuration":110803,"Delta":93978719},{"NoteNumber":55,"Velocity":33,"Duration":332409,"SoundDuration":332409,"Delta":94089522},{"NoteNumber":61,"Velocity":40,"Duration":158171,"SoundDuration":158171,"Delta":94421932},{"NoteNumber":65,"Velocity":49,"Duration":316066,"SoundDuration":316066,"Delta":94421932},{"NoteNumber":37,"Velocity":48,"Duration":316066,"SoundDuration":316066,"Delta":94421932},{"NoteNumber":56,"Velocity":40,"Duration":157894,"SoundDuration":157894,"Delta":94580103},{"NoteNumber":61,"Velocity":40,"Duration":157894,"SoundDuration":157894,"Delta":94737998},{"NoteNumber":68,"Velocity":49,"Duration":315788,"SoundDuration":315788,"Delta":94737998},{"NoteNumber":53,"Velocity":40,"Duration":315788,"SoundDuration":315788,"Delta":94737998},{"NoteNumber":49,"Velocity":36,"Duration":315788,"SoundDuration":315788,"Delta":94737998},{"NoteNumber":56,"Velocity":40,"Duration":157894,"SoundDuration":157894,"Delta":94895892},{"NoteNumber":61,"Velocity":40,"Duration":157894,"SoundDuration":157894,"Delta":95053787},{"NoteNumber":65,"Velocity":48,"Duration":315789,"SoundDuration":315789,"Delta":95053787},{"NoteNumber":37,"Velocity":40,"Duration":315789,"SoundDuration":315789,"Delta":95053787},{"NoteNumber":56,"Velocity":40,"Duration":157894,"SoundDuration":157894,"Delta":95211681},{"NoteNumber":66,"Velocity":48,"Duration":999999,"SoundDuration":999999,"Delta":95369576},{"NoteNumber":42,"Velocity":40,"Duration":333332,"SoundDuration":333332,"Delta":95369576},{"NoteNumber":54,"Velocity":32,"Duration":111111,"SoundDuration":111111,"Delta":95702909},{"NoteNumber":45,"Velocity":28,"Duration":666666,"SoundDuration":666666,"Delta":95702909},{"NoteNumber":49,"Velocity":32,"Duration":666666,"SoundDuration":666666,"Delta":95702909},{"NoteNumber":57,"Velocity":32,"Duration":111110,"SoundDuration":111110,"Delta":95814020},{"NoteNumber":61,"Velocity":32,"Duration":111111,"SoundDuration":111111,"Delta":95925131},{"NoteNumber":54,"Velocity":32,"Duration":333332,"SoundDuration":333332,"Delta":96036242},{"NoteNumber":66,"Velocity":85,"Duration":1068508,"SoundDuration":1068508,"Delta":96369575},{"NoteNumber":35,"Velocity":77,"Duration":398888,"SoundDuration":398888,"Delta":96369575},{"NoteNumber":54,"Velocity":72,"Duration":112516,"SoundDuration":112516,"Delta":96768464},{"NoteNumber":53,"Velocity":64,"Duration":669619,"SoundDuration":669619,"Delta":96768464},{"NoteNumber":50,"Velocity":57,"Duration":669619,"SoundDuration":669619,"Delta":96768464},{"NoteNumber":47,"Velocity":57,"Duration":669619,"SoundDuration":669619,"Delta":96768464},{"NoteNumber":59,"Velocity":64,"Duration":111420,"SoundDuration":111420,"Delta":96880980},{"NoteNumber":62,"Velocity":64,"Duration":111420,"SoundDuration":111420,"Delta":96992401},{"NoteNumber":54,"Velocity":72,"Duration":334261,"SoundDuration":334261,"Delta":97103821},{"NoteNumber":66,"Velocity":48,"Duration":1002786,"SoundDuration":1002786,"Delta":97438083},{"NoteNumber":30,"Velocity":64,"Duration":334261,"SoundDuration":334261,"Delta":97438083},{"NoteNumber":54,"Velocity":32,"Duration":111420,"SoundDuration":111420,"Delta":97772345},{"NoteNumber":49,"Velocity":42,"Duration":668524,"SoundDuration":668524,"Delta":97772345},{"NoteNumber":45,"Velocity":37,"Duration":668524,"SoundDuration":668524,"Delta":97772345},{"NoteNumber":57,"Velocity":32,"Duration":111420,"SoundDuration":111420,"Delta":97883766},{"NoteNumber":61,"Velocity":32,"Duration":111420,"SoundDuration":111420,"Delta":97995187},{"NoteNumber":54,"Velocity":32,"Duration":334261,"SoundDuration":334261,"Delta":98106607},{"NoteNumber":56,"Velocity":48,"Duration":105834,"SoundDuration":105834,"Delta":98440869},{"NoteNumber":65,"Velocity":64,"Duration":950162,"SoundDuration":950162,"Delta":98440869},{"NoteNumber":37,"Velocity":63,"Duration":316916,"SoundDuration":316916,"Delta":98440869},{"NoteNumber":57,"Velocity":50,"Duration":105541,"SoundDuration":105541,"Delta":98546704},{"NoteNumber":59,"Velocity":53,"Duration":105541,"SoundDuration":105541,"Delta":98652245},{"NoteNumber":61,"Velocity":55,"Duration":105541,"SoundDuration":105541,"Delta":98757786},{"NoteNumber":49,"Velocity":63,"Duration":633245,"SoundDuration":633245,"Delta":98757786},{"NoteNumber":62,"Velocity":57,"Duration":105540,"SoundDuration":105540,"Delta":98863327},{"NoteNumber":61,"Velocity":55,"Duration":105541,"SoundDuration":105541,"Delta":98968868},{"NoteNumber":59,"Velocity":53,"Duration":105541,"SoundDuration":105541,"Delta":99074409},{"NoteNumber":57,"Velocity":50,"Duration":105541,"SoundDuration":105541,"Delta":99179950},{"NoteNumber":56,"Velocity":48,"Duration":105541,"SoundDuration":105541,"Delta":99285491},{"NoteNumber":66,"Velocity":48,"Duration":999999,"SoundDuration":999999,"Delta":99391032},{"NoteNumber":30,"Velocity":64,"Duration":333332,"SoundDuration":333332,"Delta":99391032},{"NoteNumber":54,"Velocity":32,"Duration":111111,"SoundDuration":111111,"Delta":99724365},{"NoteNumber":49,"Velocity":48,"Duration":666666,"SoundDuration":666666,"Delta":99724365},{"NoteNumber":45,"Velocity":43,"Duration":666666,"SoundDuration":666666,"Delta":99724365},{"NoteNumber":42,"Velocity":43,"Duration":666666,"SoundDuration":666666,"Delta":99724365},{"NoteNumber":57,"Velocity":32,"Duration":111110,"SoundDuration":111110,"Delta":99835476},{"NoteNumber":61,"Velocity":32,"Duration":111111,"SoundDuration":111111,"Delta":99946587},{"NoteNumber":54,"Velocity":32,"Duration":333332,"SoundDuration":333332,"Delta":100057698},{"NoteNumber":66,"Velocity":84,"Duration":1069137,"SoundDuration":1069137,"Delta":100391031},{"NoteNumber":35,"Velocity":84,"Duration":401337,"SoundDuration":401337,"Delta":100391031},{"NoteNumber":54,"Velocity":72,"Duration":112244,"SoundDuration":112244,"Delta":100792369},{"NoteNumber":53,"Velocity":72,"Duration":667799,"SoundDuration":667799,"Delta":100792369},{"NoteNumber":50,"Velocity":64,"Duration":667799,"SoundDuration":667799,"Delta":100792369},{"NoteNumber":47,"Velocity":64,"Duration":667799,"SoundDuration":667799,"Delta":100792369},{"NoteNumber":59,"Velocity":66,"Duration":111111,"SoundDuration":111111,"Delta":100904614},{"NoteNumber":62,"Velocity":66,"Duration":111110,"SoundDuration":111110,"Delta":101015725},{"NoteNumber":54,"Velocity":72,"Duration":333332,"SoundDuration":333332,"Delta":101126836},{"NoteNumber":66,"Velocity":48,"Duration":999999,"SoundDuration":999999,"Delta":101460169},{"NoteNumber":30,"Velocity":64,"Duration":333333,"SoundDuration":333333,"Delta":101460169},{"NoteNumber":54,"Velocity":32,"Duration":111110,"SoundDuration":111110,"Delta":101793502},{"NoteNumber":49,"Velocity":44,"Duration":666666,"SoundDuration":666666,"Delta":101793502},{"NoteNumber":45,"Velocity":39,"Duration":666666,"SoundDuration":666666,"Delta":101793502},{"NoteNumber":57,"Velocity":32,"Duration":111110,"SoundDuration":111110,"Delta":101904613},{"NoteNumber":61,"Velocity":32,"Duration":111111,"SoundDuration":111111,"Delta":102015724},{"NoteNumber":54,"Velocity":32,"Duration":333333,"SoundDuration":333333,"Delta":102126835},{"NoteNumber":56,"Velocity":48,"Duration":107527,"SoundDuration":107527,"Delta":102460168},{"NoteNumber":65,"Velocity":64,"Duration":967742,"SoundDuration":967742,"Delta":102460168},{"NoteNumber":37,"Velocity":64,"Duration":322580,"SoundDuration":322580,"Delta":102460168},{"NoteNumber":57,"Velocity":50,"Duration":107526,"SoundDuration":107526,"Delta":102567695},{"NoteNumber":59,"Velocity":53,"Duration":107527,"SoundDuration":107527,"Delta":102675222},{"NoteNumber":61,"Velocity":55,"Duration":107527,"SoundDuration":107527,"Delta":102782749},{"NoteNumber":49,"Velocity":64,"Duration":645161,"SoundDuration":645161,"Delta":102782749},{"NoteNumber":62,"Velocity":57,"Duration":107526,"SoundDuration":107526,"Delta":102890276},{"NoteNumber":61,"Velocity":55,"Duration":107527,"SoundDuration":107527,"Delta":102997803},{"NoteNumber":59,"Velocity":53,"Duration":107527,"SoundDuration":107527,"Delta":103105330},{"NoteNumber":57,"Velocity":50,"Duration":107526,"SoundDuration":107526,"Delta":103212857},{"NoteNumber":56,"Velocity":48,"Duration":107527,"SoundDuration":107527,"Delta":103320384},{"NoteNumber":66,"Velocity":48,"Duration":1010326,"SoundDuration":1010326,"Delta":103427911},{"NoteNumber":30,"Velocity":64,"Duration":333153,"SoundDuration":333153,"Delta":103427911},{"NoteNumber":54,"Velocity":32,"Duration":111110,"SoundDuration":111110,"Delta":103761065},{"NoteNumber":49,"Velocity":40,"Duration":677173,"SoundDuration":677173,"Delta":103761065},{"NoteNumber":45,"Velocity":36,"Duration":677173,"SoundDuration":677173,"Delta":103761065},{"NoteNumber":42,"Velocity":36,"Duration":677173,"SoundDuration":677173,"Delta":103761065},{"NoteNumber":57,"Velocity":32,"Duration":111111,"SoundDuration":111111,"Delta":103872176},{"NoteNumber":61,"Velocity":32,"Duration":111111,"SoundDuration":111111,"Delta":103983287},{"NoteNumber":54,"Velocity":32,"Duration":343840,"SoundDuration":343840,"Delta":104094398},{"NoteNumber":73,"Velocity":81,"Duration":999999,"SoundDuration":999999,"Delta":104438238},{"NoteNumber":41,"Velocity":81,"Duration":333332,"SoundDuration":333332,"Delta":104438238},{"NoteNumber":61,"Velocity":64,"Duration":111111,"SoundDuration":111111,"Delta":104771571},{"NoteNumber":53,"Velocity":57,"Duration":666666,"SoundDuration":666666,"Delta":104771571},{"NoteNumber":56,"Velocity":64,"Duration":666666,"SoundDuration":666666,"Delta":104771571},{"NoteNumber":65,"Velocity":61,"Duration":111110,"SoundDuration":111110,"Delta":104882682},{"NoteNumber":68,"Velocity":61,"Duration":111111,"SoundDuration":111111,"Delta":104993793},{"NoteNumber":61,"Velocity":64,"Duration":333332,"SoundDuration":333332,"Delta":105104904},{"NoteNumber":70,"Velocity":89,"Duration":999999,"SoundDuration":999999,"Delta":105438237},{"NoteNumber":40,"Velocity":81,"Duration":333332,"SoundDuration":333332,"Delta":105438237},{"NoteNumber":58,"Velocity":76,"Duration":111111,"SoundDuration":111111,"Delta":105771570},{"NoteNumber":52,"Velocity":54,"Duration":666666,"SoundDuration":666666,"Delta":105771570},{"NoteNumber":55,"Velocity":61,"Duration":666666,"SoundDuration":666666,"Delta":105771570},{"NoteNumber":61,"Velocity":71,"Duration":111110,"SoundDuration":111110,"Delta":105882681},{"NoteNumber":67,"Velocity":71,"Duration":111110,"SoundDuration":111110,"Delta":105993792},{"NoteNumber":58,"Velocity":76,"Duration":333333,"SoundDuration":333333,"Delta":106104903},{"NoteNumber":71,"Velocity":81,"Duration":316081,"SoundDuration":316081,"Delta":106438236},{"NoteNumber":50,"Velocity":72,"Duration":316081,"SoundDuration":316081,"Delta":106438236},{"NoteNumber":62,"Velocity":57,"Duration":157894,"SoundDuration":157894,"Delta":106596423},{"NoteNumber":66,"Velocity":64,"Duration":157894,"SoundDuration":157894,"Delta":106596423},{"NoteNumber":54,"Velocity":51,"Duration":157894,"SoundDuration":157894,"Delta":106596423},{"NoteNumber":59,"Velocity":57,"Duration":157894,"SoundDuration":157894,"Delta":106596423},{"NoteNumber":73,"Velocity":81,"Duration":315788,"SoundDuration":315788,"Delta":106754317},{"NoteNumber":49,"Velocity":72,"Duration":315788,"SoundDuration":315788,"Delta":106754317},{"NoteNumber":64,"Velocity":57,"Duration":157894,"SoundDuration":157894,"Delta":106912212},{"NoteNumber":66,"Velocity":64,"Duration":157894,"SoundDuration":157894,"Delta":106912212},{"NoteNumber":54,"Velocity":51,"Duration":157894,"SoundDuration":157894,"Delta":106912212},{"NoteNumber":58,"Velocity":57,"Duration":157894,"SoundDuration":157894,"Delta":106912212},{"NoteNumber":74,"Velocity":81,"Duration":315789,"SoundDuration":315789,"Delta":107070106},{"NoteNumber":47,"Velocity":72,"Duration":315789,"SoundDuration":315789,"Delta":107070106},{"NoteNumber":62,"Velocity":57,"Duration":157894,"SoundDuration":157894,"Delta":107228001},{"NoteNumber":66,"Velocity":64,"Duration":157894,"SoundDuration":157894,"Delta":107228001},{"NoteNumber":54,"Velocity":51,"Duration":157894,"SoundDuration":157894,"Delta":107228001},{"NoteNumber":59,"Velocity":57,"Duration":157894,"SoundDuration":157894,"Delta":107228001},{"NoteNumber":73,"Velocity":81,"Duration":1066666,"SoundDuration":1066666,"Delta":107385895},{"NoteNumber":42,"Velocity":72,"Duration":333332,"SoundDuration":333332,"Delta":107385895},{"NoteNumber":61,"Velocity":64,"Duration":111111,"SoundDuration":111111,"Delta":107719228},{"NoteNumber":54,"Velocity":57,"Duration":733333,"SoundDuration":733333,"Delta":107719228},{"NoteNumber":58,"Velocity":64,"Duration":733333,"SoundDuration":733333,"Delta":107719228},{"NoteNumber":66,"Velocity":64,"Duration":111110,"SoundDuration":111110,"Delta":107830339},{"NoteNumber":70,"Velocity":64,"Duration":111111,"SoundDuration":111111,"Delta":107941450},{"NoteNumber":61,"Velocity":64,"Duration":400000,"SoundDuration":400000,"Delta":108052561},{"NoteNumber":78,"Velocity":81,"Duration":999999,"SoundDuration":999999,"Delta":108452561},{"NoteNumber":46,"Velocity":72,"Duration":333332,"SoundDuration":333332,"Delta":108452561},{"NoteNumber":66,"Velocity":64,"Duration":111111,"SoundDuration":111111,"Delta":108785894},{"NoteNumber":61,"Velocity":64,"Duration":666666,"SoundDuration":666666,"Delta":108785894},{"NoteNumber":58,"Velocity":57,"Duration":666666,"SoundDuration":666666,"Delta":108785894},{"NoteNumber":70,"Velocity":59,"Duration":111110,"SoundDuration":111110,"Delta":108897005},{"NoteNumber":73,"Velocity":59,"Duration":111111,"SoundDuration":111111,"Delta":109008116},{"NoteNumber":66,"Velocity":64,"Duration":333332,"SoundDuration":333332,"Delta":109119227},{"NoteNumber":75,"Velocity":90,"Duration":999999,"SoundDuration":999999,"Delta":109452560},{"NoteNumber":45,"Velocity":80,"Duration":333332,"SoundDuration":333332,"Delta":109452560},{"NoteNumber":63,"Velocity":76,"Duration":111111,"SoundDuration":111111,"Delta":109785893},{"NoteNumber":60,"Velocity":62,"Duration":666666,"SoundDuration":666666,"Delta":109785893},{"NoteNumber":57,"Velocity":54,"Duration":666666,"SoundDuration":666666,"Delta":109785893},{"NoteNumber":66,"Velocity":65,"Duration":111110,"SoundDuration":111110,"Delta":109897004},{"NoteNumber":72,"Velocity":61,"Duration":111110,"SoundDuration":111110,"Delta":110008115},{"NoteNumber":63,"Velocity":76,"Duration":333333,"SoundDuration":333333,"Delta":110119226},{"NoteNumber":76,"Velocity":86,"Duration":311688,"SoundDuration":311688,"Delta":110452559},{"NoteNumber":55,"Velocity":81,"Duration":311688,"SoundDuration":311688,"Delta":110452559},{"NoteNumber":67,"Velocity":64,"Duration":155844,"SoundDuration":155844,"Delta":110608403},{"NoteNumber":71,"Velocity":72,"Duration":155844,"SoundDuration":155844,"Delta":110608403},{"NoteNumber":64,"Velocity":72,"Duration":155844,"SoundDuration":155844,"Delta":110608403},{"NoteNumber":59,"Velocity":64,"Duration":155844,"SoundDuration":155844,"Delta":110608403},{"NoteNumber":78,"Velocity":86,"Duration":311687,"SoundDuration":311687,"Delta":110764247},{"NoteNumber":54,"Velocity":81,"Duration":311687,"SoundDuration":311687,"Delta":110764247},{"NoteNumber":69,"Velocity":64,"Duration":155843,"SoundDuration":155843,"Delta":110920091},{"NoteNumber":71,"Velocity":72,"Duration":155843,"SoundDuration":155843,"Delta":110920091},{"NoteNumber":63,"Velocity":72,"Duration":155843,"SoundDuration":155843,"Delta":110920091},{"NoteNumber":59,"Velocity":64,"Duration":155843,"SoundDuration":155843,"Delta":110920091},{"NoteNumber":79,"Velocity":86,"Duration":311688,"SoundDuration":311688,"Delta":111075935},{"NoteNumber":52,"Velocity":81,"Duration":311688,"SoundDuration":311688,"Delta":111075935},{"NoteNumber":67,"Velocity":64,"Duration":155844,"SoundDuration":155844,"Delta":111231779},{"NoteNumber":71,"Velocity":72,"Duration":155844,"SoundDuration":155844,"Delta":111231779},{"NoteNumber":59,"Velocity":64,"Duration":155844,"SoundDuration":155844,"Delta":111231779},{"NoteNumber":64,"Velocity":72,"Duration":155844,"SoundDuration":155844,"Delta":111231779},{"NoteNumber":78,"Velocity":84,"Duration":1021931,"SoundDuration":1021931,"Delta":111387623},{"NoteNumber":47,"Velocity":81,"Duration":334261,"SoundDuration":334261,"Delta":111387623},{"NoteNumber":66,"Velocity":68,"Duration":111420,"SoundDuration":111420,"Delta":111721885},{"NoteNumber":59,"Velocity":61,"Duration":687669,"SoundDuration":687669,"Delta":111721885},{"NoteNumber":62,"Velocity":68,"Duration":687669,"SoundDuration":687669,"Delta":111721885},{"NoteNumber":71,"Velocity":68,"Duration":111420,"SoundDuration":111420,"Delta":111833306},{"NoteNumber":74,"Velocity":68,"Duration":111887,"SoundDuration":111887,"Delta":111944726},{"NoteNumber":66,"Velocity":68,"Duration":352941,"SoundDuration":352941,"Delta":112056614},{"NoteNumber":74,"Velocity":81,"Duration":320856,"SoundDuration":320856,"Delta":112409555},{"NoteNumber":35,"Velocity":72,"Duration":160427,"SoundDuration":160427,"Delta":112409555},{"NoteNumber":68,"Velocity":64,"Duration":160428,"SoundDuration":160428,"Delta":112569983},{"NoteNumber":66,"Velocity":57,"Duration":160428,"SoundDuration":160428,"Delta":112569983},{"NoteNumber":47,"Velocity":58,"Duration":160428,"SoundDuration":160428,"Delta":112569983},{"NoteNumber":73,"Velocity":81,"Duration":320855,"SoundDuration":320855,"Delta":112730411},{"NoteNumber":37,"Velocity":72,"Duration":160427,"SoundDuration":160427,"Delta":112730411},{"NoteNumber":68,"Velocity":64,"Duration":160427,"SoundDuration":160427,"Delta":112890839},{"NoteNumber":66,"Velocity":57,"Duration":160427,"SoundDuration":160427,"Delta":112890839},{"NoteNumber":49,"Velocity":57,"Duration":160427,"SoundDuration":160427,"Delta":112890839},{"NoteNumber":71,"Velocity":81,"Duration":320856,"SoundDuration":320856,"Delta":113051267},{"NoteNumber":38,"Velocity":72,"Duration":160427,"SoundDuration":160427,"Delta":113051267},{"NoteNumber":68,"Velocity":64,"Duration":160428,"SoundDuration":160428,"Delta":113211695},{"NoteNumber":66,"Velocity":57,"Duration":160428,"SoundDuration":160428,"Delta":113211695},{"NoteNumber":50,"Velocity":57,"Duration":160428,"SoundDuration":160428,"Delta":113211695},{"NoteNumber":73,"Velocity":86,"Duration":1018262,"SoundDuration":1018262,"Delta":113372123},{"NoteNumber":37,"Velocity":72,"Duration":333332,"SoundDuration":333332,"Delta":113372123},{"NoteNumber":61,"Velocity":61,"Duration":111111,"SoundDuration":111111,"Delta":113705456},{"NoteNumber":49,"Velocity":53,"Duration":684929,"SoundDuration":684929,"Delta":113705456},{"NoteNumber":53,"Velocity":53,"Duration":684929,"SoundDuration":684929,"Delta":113705456},{"NoteNumber":56,"Velocity":60,"Duration":684929,"SoundDuration":684929,"Delta":113705456},{"NoteNumber":65,"Velocity":61,"Duration":111110,"SoundDuration":111110,"Delta":113816567},{"NoteNumber":68,"Velocity":61,"Duration":111111,"SoundDuration":111111,"Delta":113927678},{"NoteNumber":61,"Velocity":61,"Duration":351596,"SoundDuration":351596,"Delta":114038789},{"NoteNumber":69,"Velocity":81,"Duration":322580,"SoundDuration":322580,"Delta":114390385},{"NoteNumber":30,"Velocity":72,"Duration":161290,"SoundDuration":161290,"Delta":114390385},{"NoteNumber":61,"Velocity":57,"Duration":161290,"SoundDuration":161290,"Delta":114551676},{"NoteNumber":63,"Velocity":64,"Duration":161290,"SoundDuration":161290,"Delta":114551676},{"NoteNumber":42,"Velocity":57,"Duration":161290,"SoundDuration":161290,"Delta":114551676},{"NoteNumber":68,"Velocity":81,"Duration":322580,"SoundDuration":322580,"Delta":114712966},{"NoteNumber":32,"Velocity":72,"Duration":161290,"SoundDuration":161290,"Delta":114712966},{"NoteNumber":61,"Velocity":57,"Duration":161290,"SoundDuration":161290,"Delta":114874257},{"NoteNumber":63,"Velocity":64,"Duration":161290,"SoundDuration":161290,"Delta":114874257},{"NoteNumber":44,"Velocity":56,"Duration":161290,"SoundDuration":161290,"Delta":114874257},{"NoteNumber":66,"Velocity":81,"Duration":322580,"SoundDuration":322580,"Delta":115035547},{"NoteNumber":33,"Velocity":72,"Duration":161290,"SoundDuration":161290,"Delta":115035547},{"NoteNumber":61,"Velocity":57,"Duration":161290,"SoundDuration":161290,"Delta":115196838},{"NoteNumber":63,"Velocity":64,"Duration":161290,"SoundDuration":161290,"Delta":115196838},{"NoteNumber":45,"Velocity":56,"Duration":161290,"SoundDuration":161290,"Delta":115196838},{"NoteNumber":68,"Velocity":86,"Duration":1042842,"SoundDuration":1042842,"Delta":115358128},{"NoteNumber":32,"Velocity":72,"Duration":333332,"SoundDuration":333332,"Delta":115358128},{"NoteNumber":56,"Velocity":64,"Duration":111111,"SoundDuration":111111,"Delta":115691461},{"NoteNumber":51,"Velocity":65,"Duration":709509,"SoundDuration":709509,"Delta":115691461},{"NoteNumber":48,"Velocity":58,"Duration":709509,"SoundDuration":709509,"Delta":115691461},{"NoteNumber":44,"Velocity":58,"Duration":709509,"SoundDuration":709509,"Delta":115691461},{"NoteNumber":60,"Velocity":64,"Duration":111110,"SoundDuration":111110,"Delta":115802572},{"NoteNumber":63,"Velocity":64,"Duration":111111,"SoundDuration":111111,"Delta":115913683},{"NoteNumber":56,"Velocity":64,"Duration":376176,"SoundDuration":376176,"Delta":116024794},{"NoteNumber":65,"Velocity":64,"Duration":1000713,"SoundDuration":1000713,"Delta":116400970},{"NoteNumber":37,"Velocity":48,"Duration":334047,"SoundDuration":334047,"Delta":116400970},{"NoteNumber":53,"Velocity":50,"Duration":111110,"SoundDuration":111110,"Delta":116735017},{"NoteNumber":49,"Velocity":45,"Duration":666666,"SoundDuration":666666,"Delta":116735017},{"NoteNumber":56,"Velocity":32,"Duration":111111,"SoundDuration":111111,"Delta":116846128},{"NoteNumber":61,"Velocity":32,"Duration":111110,"SoundDuration":111110,"Delta":116957239},{"NoteNumber":53,"Velocity":32,"Duration":333333,"SoundDuration":333333,"Delta":117068350},{"NoteNumber":66,"Velocity":65,"Duration":1042842,"SoundDuration":1042842,"Delta":117401683},{"NoteNumber":33,"Velocity":48,"Duration":333332,"SoundDuration":333332,"Delta":117401683},{"NoteNumber":54,"Velocity":46,"Duration":111110,"SoundDuration":111110,"Delta":117735016},{"NoteNumber":45,"Velocity":37,"Duration":709509,"SoundDuration":709509,"Delta":117735016},{"NoteNumber":57,"Velocity":32,"Duration":111111,"SoundDuration":111111,"Delta":117846127},{"NoteNumber":61,"Velocity":32,"Duration":111111,"SoundDuration":111111,"Delta":117957238},{"NoteNumber":54,"Velocity":32,"Duration":376176,"SoundDuration":376176,"Delta":118068349},{"NoteNumber":55,"Velocity":68,"Duration":166666,"SoundDuration":166666,"Delta":118444525},{"NoteNumber":35,"Velocity":76,"Duration":166666,"SoundDuration":166666,"Delta":118444525},{"NoteNumber":59,"Velocity":76,"Duration":166666,"SoundDuration":166666,"Delta":118444525},{"NoteNumber":47,"Velocity":60,"Duration":166666,"SoundDuration":166666,"Delta":118611192},{"NoteNumber":62,"Velocity":60,"Duration":166666,"SoundDuration":166666,"Delta":118611192},{"NoteNumber":54,"Velocity":68,"Duration":166666,"SoundDuration":166666,"Delta":118777858},{"NoteNumber":57,"Velocity":76,"Duration":166666,"SoundDuration":166666,"Delta":118777858},{"NoteNumber":37,"Velocity":76,"Duration":166666,"SoundDuration":166666,"Delta":118777858},{"NoteNumber":61,"Velocity":60,"Duration":166666,"SoundDuration":166666,"Delta":118944525},{"NoteNumber":49,"Velocity":60,"Duration":166666,"SoundDuration":166666,"Delta":118944525},{"NoteNumber":53,"Velocity":68,"Duration":166666,"SoundDuration":166666,"Delta":119111191},{"NoteNumber":56,"Velocity":76,"Duration":166666,"SoundDuration":166666,"Delta":119111191},{"NoteNumber":37,"Velocity":76,"Duration":166666,"SoundDuration":166666,"Delta":119111191},{"NoteNumber":61,"Velocity":60,"Duration":166666,"SoundDuration":166666,"Delta":119277858},{"NoteNumber":49,"Velocity":60,"Duration":166666,"SoundDuration":166666,"Delta":119277858},{"NoteNumber":54,"Velocity":75,"Duration":111702,"SoundDuration":111702,"Delta":119444524},{"NoteNumber":42,"Velocity":67,"Duration":340522,"SoundDuration":340522,"Delta":119444524},{"NoteNumber":50,"Velocity":69,"Duration":113485,"SoundDuration":113485,"Delta":119556227},{"NoteNumber":49,"Velocity":74,"Duration":115334,"SoundDuration":115334,"Delta":119669712},{"NoteNumber":47,"Velocity":75,"Duration":117227,"SoundDuration":117227,"Delta":119785047},{"NoteNumber":45,"Velocity":69,"Duration":119219,"SoundDuration":119219,"Delta":119902274},{"NoteNumber":44,"Velocity":69,"Duration":121252,"SoundDuration":121252,"Delta":120021493},{"NoteNumber":42,"Velocity":79,"Duration":185660,"SoundDuration":185660,"Delta":120142746},{"NoteNumber":71,"Velocity":48,"Duration":999999,"SoundDuration":999999,"Delta":120543460},{"NoteNumber":35,"Velocity":48,"Duration":333332,"SoundDuration":333332,"Delta":120543460},{"NoteNumber":59,"Velocity":48,"Duration":111111,"SoundDuration":111111,"Delta":120876793},{"NoteNumber":47,"Velocity":28,"Duration":666666,"SoundDuration":666666,"Delta":120876793},{"NoteNumber":50,"Velocity":28,"Duration":666666,"SoundDuration":666666,"Delta":120876793},{"NoteNumber":54,"Velocity":32,"Duration":666666,"SoundDuration":666666,"Delta":120876793},{"NoteNumber":62,"Velocity":32,"Duration":111110,"SoundDuration":111110,"Delta":120987904},{"NoteNumber":66,"Velocity":32,"Duration":111111,"SoundDuration":111111,"Delta":121099015},{"NoteNumber":59,"Velocity":32,"Duration":333332,"SoundDuration":333332,"Delta":121210126},{"NoteNumber":71,"Velocity":48,"Duration":999999,"SoundDuration":999999,"Delta":121543459},{"NoteNumber":35,"Velocity":48,"Duration":333332,"SoundDuration":333332,"Delta":121543459},{"NoteNumber":59,"Velocity":32,"Duration":111111,"SoundDuration":111111,"Delta":121876792},{"NoteNumber":47,"Velocity":28,"Duration":666666,"SoundDuration":666666,"Delta":121876792},{"NoteNumber":49,"Velocity":28,"Duration":666666,"SoundDuration":666666,"Delta":121876792},{"NoteNumber":52,"Velocity":28,"Duration":666666,"SoundDuration":666666,"Delta":121876792},{"NoteNumber":55,"Velocity":32,"Duration":666666,"SoundDuration":666666,"Delta":121876792},{"NoteNumber":61,"Velocity":32,"Duration":111110,"SoundDuration":111110,"Delta":121987903},{"NoteNumber":67,"Velocity":32,"Duration":111110,"SoundDuration":111110,"Delta":122099014},{"NoteNumber":59,"Velocity":32,"Duration":333333,"SoundDuration":333333,"Delta":122210125},{"NoteNumber":71,"Velocity":48,"Duration":316081,"SoundDuration":316081,"Delta":122543458},{"NoteNumber":50,"Velocity":48,"Duration":316081,"SoundDuration":316081,"Delta":122543458},{"NoteNumber":62,"Velocity":28,"Duration":157894,"SoundDuration":157894,"Delta":122701645},{"NoteNumber":66,"Velocity":32,"Duration":157894,"SoundDuration":157894,"Delta":122701645},{"NoteNumber":54,"Velocity":28,"Duration":157894,"SoundDuration":157894,"Delta":122701645},{"NoteNumber":59,"Velocity":32,"Duration":157894,"SoundDuration":157894,"Delta":122701645},{"NoteNumber":73,"Velocity":48,"Duration":315788,"SoundDuration":315788,"Delta":122859540},{"NoteNumber":49,"Velocity":48,"Duration":315788,"SoundDuration":315788,"Delta":122859540},{"NoteNumber":64,"Velocity":28,"Duration":157894,"SoundDuration":157894,"Delta":123017434},{"NoteNumber":66,"Velocity":32,"Duration":157894,"SoundDuration":157894,"Delta":123017434},{"NoteNumber":54,"Velocity":28,"Duration":157894,"SoundDuration":157894,"Delta":123017434},{"NoteNumber":58,"Velocity":32,"Duration":157894,"SoundDuration":157894,"Delta":123017434},{"NoteNumber":74,"Velocity":48,"Duration":315788,"SoundDuration":315788,"Delta":123175329},{"NoteNumber":47,"Velocity":48,"Duration":315788,"SoundDuration":315788,"Delta":123175329},{"NoteNumber":62,"Velocity":28,"Duration":157894,"SoundDuration":157894,"Delta":123333223},{"NoteNumber":66,"Velocity":32,"Duration":157894,"SoundDuration":157894,"Delta":123333223},{"NoteNumber":54,"Velocity":28,"Duration":157894,"SoundDuration":157894,"Delta":123333223},{"NoteNumber":59,"Velocity":32,"Duration":157894,"SoundDuration":157894,"Delta":123333223},{"NoteNumber":73,"Velocity":48,"Duration":1043182,"SoundDuration":1043182,"Delta":123491118},{"NoteNumber":42,"Velocity":48,"Duration":332602,"SoundDuration":332602,"Delta":123491118},{"NoteNumber":61,"Velocity":32,"Duration":111110,"SoundDuration":111110,"Delta":123823720},{"NoteNumber":54,"Velocity":28,"Duration":710580,"SoundDuration":710580,"Delta":123823720},{"NoteNumber":58,"Velocity":32,"Duration":710580,"SoundDuration":710580,"Delta":123823720},{"NoteNumber":66,"Velocity":32,"Duration":111111,"SoundDuration":111111,"Delta":123934831},{"NoteNumber":70,"Velocity":32,"Duration":112182,"SoundDuration":112182,"Delta":124045942},{"NoteNumber":61,"Velocity":32,"Duration":376176,"SoundDuration":376176,"Delta":124158124},{"NoteNumber":78,"Velocity":55,"Duration":999999,"SoundDuration":999999,"Delta":124534300},{"NoteNumber":42,"Velocity":48,"Duration":333332,"SoundDuration":333332,"Delta":124534300},{"NoteNumber":66,"Velocity":32,"Duration":111111,"SoundDuration":111111,"Delta":124867633},{"NoteNumber":54,"Velocity":36,"Duration":666666,"SoundDuration":666666,"Delta":124867633},{"NoteNumber":58,"Velocity":36,"Duration":666666,"SoundDuration":666666,"Delta":124867633},{"NoteNumber":61,"Velocity":40,"Duration":666666,"SoundDuration":666666,"Delta":124867633},{"NoteNumber":70,"Velocity":32,"Duration":111110,"SoundDuration":111110,"Delta":124978744},{"NoteNumber":73,"Velocity":32,"Duration":111111,"SoundDuration":111111,"Delta":125089855},{"NoteNumber":66,"Velocity":32,"Duration":333332,"SoundDuration":333332,"Delta":125200966},{"NoteNumber":74,"Velocity":51,"Duration":999999,"SoundDuration":999999,"Delta":125534299},{"NoteNumber":47,"Velocity":48,"Duration":333332,"SoundDuration":333332,"Delta":125534299},{"NoteNumber":62,"Velocity":32,"Duration":111111,"SoundDuration":111111,"Delta":125867632},{"NoteNumber":54,"Velocity":28,"Duration":666666,"SoundDuration":666666,"Delta":125867632},{"NoteNumber":59,"Velocity":32,"Duration":666666,"SoundDuration":666666,"Delta":125867632},{"NoteNumber":66,"Velocity":32,"Duration":111110,"SoundDuration":111110,"Delta":125978743},{"NoteNumber":71,"Velocity":32,"Duration":111110,"SoundDuration":111110,"Delta":126089854},{"NoteNumber":62,"Velocity":32,"Duration":333333,"SoundDuration":333333,"Delta":126200965},{"NoteNumber":71,"Velocity":32,"Duration":158311,"SoundDuration":158311,"Delta":126534298},{"NoteNumber":73,"Velocity":48,"Duration":316623,"SoundDuration":316623,"Delta":126534298},{"NoteNumber":43,"Velocity":48,"Duration":158311,"SoundDuration":158311,"Delta":126534298},{"NoteNumber":64,"Velocity":32,"Duration":158311,"SoundDuration":158311,"Delta":126692609},{"NoteNumber":55,"Velocity":32,"Duration":158311,"SoundDuration":158311,"Delta":126692609},{"NoteNumber":71,"Velocity":32,"Duration":158311,"SoundDuration":158311,"Delta":126850921},{"NoteNumber":76,"Velocity":48,"Duration":316622,"SoundDuration":316622,"Delta":126850921},{"NoteNumber":40,"Velocity":48,"Duration":158311,"SoundDuration":158311,"Delta":126850921},{"NoteNumber":64,"Velocity":32,"Duration":158311,"SoundDuration":158311,"Delta":127009232},{"NoteNumber":52,"Velocity":32,"Duration":158311,"SoundDuration":158311,"Delta":127009232},{"NoteNumber":71,"Velocity":32,"Duration":158311,"SoundDuration":158311,"Delta":127167544},{"NoteNumber":73,"Velocity":48,"Duration":316622,"SoundDuration":316622,"Delta":127167544},{"NoteNumber":43,"Velocity":48,"Duration":158311,"SoundDuration":158311,"Delta":127167544},{"NoteNumber":64,"Velocity":32,"Duration":158311,"SoundDuration":158311,"Delta":127325855},{"NoteNumber":55,"Velocity":32,"Duration":158311,"SoundDuration":158311,"Delta":127325855},{"NoteNumber":74,"Velocity":48,"Duration":1066665,"SoundDuration":1066665,"Delta":127484167},{"NoteNumber":47,"Velocity":48,"Duration":333333,"SoundDuration":333333,"Delta":127484167},{"NoteNumber":62,"Velocity":32,"Duration":111110,"SoundDuration":111110,"Delta":127817500},{"NoteNumber":54,"Velocity":28,"Duration":733332,"SoundDuration":733332,"Delta":127817500},{"NoteNumber":59,"Velocity":32,"Duration":733332,"SoundDuration":733332,"Delta":127817500},{"NoteNumber":66,"Velocity":32,"Duration":111110,"SoundDuration":111110,"Delta":127928611},{"NoteNumber":71,"Velocity":32,"Duration":111110,"SoundDuration":111110,"Delta":128039722},{"NoteNumber":62,"Velocity":32,"Duration":400000,"SoundDuration":400000,"Delta":128150833},{"NoteNumber":76,"Velocity":79,"Duration":999999,"SoundDuration":999999,"Delta":128550833},{"NoteNumber":40,"Velocity":81,"Duration":166666,"SoundDuration":166666,"Delta":128550833},{"NoteNumber":64,"Velocity":64,"Duration":111110,"SoundDuration":111110,"Delta":128884166},{"NoteNumber":52,"Velocity":57,"Duration":666665,"SoundDuration":666665,"Delta":128884166},{"NoteNumber":55,"Velocity":57,"Duration":666665,"SoundDuration":666665,"Delta":128884166},{"NoteNumber":59,"Velocity":64,"Duration":666665,"SoundDuration":666665,"Delta":128884166},{"NoteNumber":67,"Velocity":58,"Duration":111110,"SoundDuration":111110,"Delta":128995277},{"NoteNumber":71,"Velocity":58,"Duration":111110,"SoundDuration":111110,"Delta":129106388},{"NoteNumber":64,"Velocity":64,"Duration":333333,"SoundDuration":333333,"Delta":129217499},{"NoteNumber":76,"Velocity":78,"Duration":999999,"SoundDuration":999999,"Delta":129550832},{"NoteNumber":40,"Velocity":81,"Duration":333333,"SoundDuration":333333,"Delta":129550832},{"NoteNumber":64,"Velocity":64,"Duration":111110,"SoundDuration":111110,"Delta":129884165},{"NoteNumber":52,"Velocity":57,"Duration":666665,"SoundDuration":666665,"Delta":129884165},{"NoteNumber":54,"Velocity":57,"Duration":666665,"SoundDuration":666665,"Delta":129884165},{"NoteNumber":57,"Velocity":57,"Duration":666665,"SoundDuration":666665,"Delta":129884165},{"NoteNumber":60,"Velocity":64,"Duration":666665,"SoundDuration":666665,"Delta":129884165},{"NoteNumber":66,"Velocity":59,"Duration":111110,"SoundDuration":111110,"Delta":129995276},{"NoteNumber":72,"Velocity":59,"Duration":111110,"SoundDuration":111110,"Delta":130106387},{"NoteNumber":64,"Velocity":64,"Duration":333333,"SoundDuration":333333,"Delta":130217498},{"NoteNumber":76,"Velocity":72,"Duration":322581,"SoundDuration":322581,"Delta":130550831},{"NoteNumber":55,"Velocity":64,"Duration":322581,"SoundDuration":322581,"Delta":130550831},{"NoteNumber":67,"Velocity":57,"Duration":161290,"SoundDuration":161290,"Delta":130712121},{"NoteNumber":71,"Velocity":64,"Duration":161290,"SoundDuration":161290,"Delta":130712121},{"NoteNumber":59,"Velocity":51,"Duration":161290,"SoundDuration":161290,"Delta":130712121},{"NoteNumber":64,"Velocity":57,"Duration":161290,"SoundDuration":161290,"Delta":130712121},{"NoteNumber":78,"Velocity":72,"Duration":322580,"SoundDuration":322580,"Delta":130873412},{"NoteNumber":54,"Velocity":64,"Duration":322580,"SoundDuration":322580,"Delta":130873412},{"NoteNumber":69,"Velocity":57,"Duration":161290,"SoundDuration":161290,"Delta":131034702},{"NoteNumber":71,"Velocity":64,"Duration":161290,"SoundDuration":161290,"Delta":131034702},{"NoteNumber":59,"Velocity":51,"Duration":161290,"SoundDuration":161290,"Delta":131034702},{"NoteNumber":63,"Velocity":57,"Duration":161290,"SoundDuration":161290,"Delta":131034702},{"NoteNumber":79,"Velocity":72,"Duration":322581,"SoundDuration":322581,"Delta":131195993},{"NoteNumber":52,"Velocity":64,"Duration":322581,"SoundDuration":322581,"Delta":131195993},{"NoteNumber":67,"Velocity":57,"Duration":161290,"SoundDuration":161290,"Delta":131357283},{"NoteNumber":71,"Velocity":64,"Duration":161290,"SoundDuration":161290,"Delta":131357283},{"NoteNumber":59,"Velocity":51,"Duration":161290,"SoundDuration":161290,"Delta":131357283},{"NoteNumber":64,"Velocity":57,"Duration":161290,"SoundDuration":161290,"Delta":131357283},{"NoteNumber":78,"Velocity":72,"Duration":1065336,"SoundDuration":1065336,"Delta":131518574},{"NoteNumber":47,"Velocity":64,"Duration":333333,"SoundDuration":333333,"Delta":131518574},{"NoteNumber":66,"Velocity":56,"Duration":111110,"SoundDuration":111110,"Delta":131851907},{"NoteNumber":63,"Velocity":56,"Duration":732003,"SoundDuration":732003,"Delta":131851907},{"NoteNumber":59,"Velocity":50,"Duration":732003,"SoundDuration":732003,"Delta":131851907},{"NoteNumber":71,"Velocity":56,"Duration":111110,"SoundDuration":111110,"Delta":131963018},{"NoteNumber":75,"Velocity":56,"Duration":111110,"SoundDuration":111110,"Delta":132074129},{"NoteNumber":66,"Velocity":56,"Duration":398671,"SoundDuration":398671,"Delta":132185240},{"NoteNumber":83,"Velocity":78,"Duration":999999,"SoundDuration":999999,"Delta":132583911},{"NoteNumber":47,"Velocity":81,"Duration":333333,"SoundDuration":333333,"Delta":132583911},{"NoteNumber":71,"Velocity":64,"Duration":111110,"SoundDuration":111110,"Delta":132917244},{"NoteNumber":59,"Velocity":57,"Duration":666665,"SoundDuration":666665,"Delta":132917244},{"NoteNumber":63,"Velocity":57,"Duration":666665,"SoundDuration":666665,"Delta":132917244},{"NoteNumber":66,"Velocity":64,"Duration":666665,"SoundDuration":666665,"Delta":132917244},{"NoteNumber":75,"Velocity":60,"Duration":111110,"SoundDuration":111110,"Delta":133028355},{"NoteNumber":78,"Velocity":60,"Duration":111110,"SoundDuration":111110,"Delta":133139466},{"NoteNumber":71,"Velocity":64,"Duration":333333,"SoundDuration":333333,"Delta":133250577},{"NoteNumber":79,"Velocity":78,"Duration":999999,"SoundDuration":999999,"Delta":133583910},{"NoteNumber":52,"Velocity":81,"Duration":333333,"SoundDuration":333333,"Delta":133583910},{"NoteNumber":67,"Velocity":64,"Duration":111110,"SoundDuration":111110,"Delta":133917243},{"NoteNumber":64,"Velocity":64,"Duration":666665,"SoundDuration":666665,"Delta":133917243},{"NoteNumber":59,"Velocity":57,"Duration":666665,"SoundDuration":666665,"Delta":133917243},{"NoteNumber":71,"Velocity":58,"Duration":111110,"SoundDuration":111110,"Delta":134028354},{"NoteNumber":76,"Velocity":58,"Duration":111110,"SoundDuration":111110,"Delta":134139465},{"NoteNumber":67,"Velocity":64,"Duration":333333,"SoundDuration":333333,"Delta":134250576},{"NoteNumber":76,"Velocity":64,"Duration":321716,"SoundDuration":321716,"Delta":134583909},{"NoteNumber":43,"Velocity":57,"Duration":160857,"SoundDuration":160857,"Delta":134583909},{"NoteNumber":69,"Velocity":45,"Duration":160858,"SoundDuration":160858,"Delta":134744767},{"NoteNumber":71,"Velocity":50,"Duration":160858,"SoundDuration":160858,"Delta":134744767},{"NoteNumber":55,"Velocity":45,"Duration":160858,"SoundDuration":160858,"Delta":134744767},{"NoteNumber":79,"Velocity":72,"Duration":321715,"SoundDuration":321715,"Delta":134905625},{"NoteNumber":40,"Velocity":64,"Duration":160857,"SoundDuration":160857,"Delta":134905625},{"NoteNumber":71,"Velocity":54,"Duration":160857,"SoundDuration":160857,"Delta":135066483},{"NoteNumber":73,"Velocity":61,"Duration":160857,"SoundDuration":160857,"Delta":135066483},{"NoteNumber":52,"Velocity":54,"Duration":160857,"SoundDuration":160857,"Delta":135066483},{"NoteNumber":76,"Velocity":64,"Duration":321716,"SoundDuration":321716,"Delta":135227341},{"NoteNumber":43,"Velocity":57,"Duration":160858,"SoundDuration":160858,"Delta":135227341},{"NoteNumber":73,"Velocity":50,"Duration":160857,"SoundDuration":160857,"Delta":135388199},{"NoteNumber":71,"Velocity":51,"Duration":160857,"SoundDuration":160857,"Delta":135388199},{"NoteNumber":55,"Velocity":45,"Duration":160857,"SoundDuration":160857,"Delta":135388199},{"NoteNumber":78,"Velocity":72,"Duration":1011493,"SoundDuration":1011493,"Delta":135549057},{"NoteNumber":42,"Velocity":64,"Duration":333333,"SoundDuration":333333,"Delta":135549057},{"NoteNumber":66,"Velocity":64,"Duration":111110,"SoundDuration":111110,"Delta":135882390},{"NoteNumber":54,"Velocity":50,"Duration":678160,"SoundDuration":678160,"Delta":135882390},{"NoteNumber":58,"Velocity":50,"Duration":678160,"SoundDuration":678160,"Delta":135882390},{"NoteNumber":61,"Velocity":56,"Duration":678160,"SoundDuration":678160,"Delta":135882390},{"NoteNumber":70,"Velocity":60,"Duration":111110,"SoundDuration":111110,"Delta":135993501},{"NoteNumber":73,"Velocity":60,"Duration":111110,"SoundDuration":111110,"Delta":136104612},{"NoteNumber":66,"Velocity":64,"Duration":344828,"SoundDuration":344828,"Delta":136215723},{"NoteNumber":74,"Velocity":52,"Duration":1048832,"SoundDuration":1048832,"Delta":136560551},{"NoteNumber":47,"Velocity":48,"Duration":333333,"SoundDuration":333333,"Delta":136560551},{"NoteNumber":62,"Velocity":32,"Duration":111110,"SoundDuration":111110,"Delta":136893884},{"NoteNumber":54,"Velocity":28,"Duration":715498,"SoundDuration":715498,"Delta":136893884},{"NoteNumber":59,"Velocity":32,"Duration":715498,"SoundDuration":715498,"Delta":136893884},{"NoteNumber":66,"Velocity":32,"Duration":111110,"SoundDuration":111110,"Delta":137004995},{"NoteNumber":71,"Velocity":32,"Duration":111110,"SoundDuration":111110,"Delta":137116106},{"NoteNumber":62,"Velocity":32,"Duration":382166,"SoundDuration":382166,"Delta":137227217},{"NoteNumber":72,"Velocity":48,"Duration":1000812,"SoundDuration":1000812,"Delta":137609383},{"NoteNumber":40,"Velocity":48,"Duration":334146,"SoundDuration":334146,"Delta":137609383},{"NoteNumber":60,"Velocity":32,"Duration":111110,"SoundDuration":111110,"Delta":137943530},{"NoteNumber":52,"Velocity":28,"Duration":666665,"SoundDuration":666665,"Delta":137943530},{"NoteNumber":55,"Velocity":32,"Duration":666665,"SoundDuration":666665,"Delta":137943530},{"NoteNumber":64,"Velocity":32,"Duration":111110,"SoundDuration":111110,"Delta":138054641},{"NoteNumber":67,"Velocity":32,"Duration":111110,"SoundDuration":111110,"Delta":138165752},{"NoteNumber":60,"Velocity":32,"Duration":333333,"SoundDuration":333333,"Delta":138276863},{"NoteNumber":66,"Velocity":47,"Duration":158590,"SoundDuration":158590,"Delta":138610196},{"NoteNumber":70,"Velocity":47,"Duration":316901,"SoundDuration":316901,"Delta":138610196},{"NoteNumber":42,"Velocity":48,"Duration":316901,"SoundDuration":316901,"Delta":138610196},{"NoteNumber":61,"Velocity":40,"Duration":158311,"SoundDuration":158311,"Delta":138768786},{"NoteNumber":66,"Velocity":47,"Duration":158311,"SoundDuration":158311,"Delta":138927097},{"NoteNumber":73,"Velocity":47,"Duration":316622,"SoundDuration":316622,"Delta":138927097},{"NoteNumber":54,"Velocity":28,"Duration":316622,"SoundDuration":316622,"Delta":138927097},{"NoteNumber":58,"Velocity":32,"Duration":316622,"SoundDuration":316622,"Delta":138927097},{"NoteNumber":61,"Velocity":39,"Duration":158311,"SoundDuration":158311,"Delta":139085409},{"NoteNumber":66,"Velocity":47,"Duration":158311,"SoundDuration":158311,"Delta":139243720},{"NoteNumber":70,"Velocity":47,"Duration":316622,"SoundDuration":316622,"Delta":139243720},{"NoteNumber":42,"Velocity":48,"Duration":316622,"SoundDuration":316622,"Delta":139243720},{"NoteNumber":61,"Velocity":38,"Duration":158311,"SoundDuration":158311,"Delta":139402032},{"NoteNumber":71,"Velocity":47,"Duration":1061124,"SoundDuration":1061124,"Delta":139560343},{"NoteNumber":35,"Velocity":48,"Duration":333054,"SoundDuration":333054,"Delta":139560343},{"NoteNumber":59,"Velocity":32,"Duration":111110,"SoundDuration":111110,"Delta":139893398},{"NoteNumber":47,"Velocity":28,"Duration":728069,"SoundDuration":728069,"Delta":139893398},{"NoteNumber":50,"Velocity":28,"Duration":728069,"SoundDuration":728069,"Delta":139893398},{"NoteNumber":54,"Velocity":32,"Duration":728069,"SoundDuration":728069,"Delta":139893398},{"NoteNumber":62,"Velocity":32,"Duration":111110,"SoundDuration":111110,"Delta":140004509},{"NoteNumber":66,"Velocity":32,"Duration":111110,"SoundDuration":111110,"Delta":140115620},{"NoteNumber":59,"Velocity":32,"Duration":394736,"SoundDuration":394736,"Delta":140226731},{"NoteNumber":71,"Velocity":85,"Duration":1043523,"SoundDuration":1043523,"Delta":140621468},{"NoteNumber":40,"Velocity":73,"Duration":167131,"SoundDuration":167131,"Delta":140621468},{"NoteNumber":59,"Velocity":67,"Duration":111420,"SoundDuration":111420,"Delta":140955730},{"NoteNumber":52,"Velocity":60,"Duration":709261,"SoundDuration":709261,"Delta":140955730},{"NoteNumber":55,"Velocity":60,"Duration":709261,"SoundDuration":709261,"Delta":140955730},{"NoteNumber":58,"Velocity":67,"Duration":709261,"SoundDuration":709261,"Delta":140955730},{"NoteNumber":64,"Velocity":61,"Duration":111420,"SoundDuration":111420,"Delta":141067150},{"NoteNumber":67,"Velocity":61,"Duration":111420,"SoundDuration":111420,"Delta":141178571},{"NoteNumber":59,"Velocity":67,"Duration":375000,"SoundDuration":375000,"Delta":141289992},{"NoteNumber":71,"Velocity":48,"Duration":1000693,"SoundDuration":1000693,"Delta":141664992},{"NoteNumber":35,"Velocity":48,"Duration":334027,"SoundDuration":334027,"Delta":141664992},{"NoteNumber":59,"Velocity":32,"Duration":111110,"SoundDuration":111110,"Delta":141999019},{"NoteNumber":50,"Velocity":28,"Duration":666665,"SoundDuration":666665,"Delta":141999019},{"NoteNumber":54,"Velocity":32,"Duration":666665,"SoundDuration":666665,"Delta":141999019},{"NoteNumber":62,"Velocity":32,"Duration":111110,"SoundDuration":111110,"Delta":142110130},{"NoteNumber":66,"Velocity":32,"Duration":111110,"SoundDuration":111110,"Delta":142221241},{"NoteNumber":59,"Velocity":32,"Duration":333333,"SoundDuration":333333,"Delta":142332352},{"NoteNumber":61,"Velocity":32,"Duration":107238,"SoundDuration":107238,"Delta":142665685},{"NoteNumber":70,"Velocity":48,"Duration":965147,"SoundDuration":965147,"Delta":142665685},{"NoteNumber":42,"Velocity":48,"Duration":321716,"SoundDuration":321716,"Delta":142665685},{"NoteNumber":62,"Velocity":34,"Duration":107238,"SoundDuration":107238,"Delta":142772924},{"NoteNumber":64,"Velocity":36,"Duration":107238,"SoundDuration":107238,"Delta":142880162},{"NoteNumber":66,"Velocity":39,"Duration":107238,"SoundDuration":107238,"Delta":142987401},{"NoteNumber":54,"Velocity":48,"Duration":643431,"SoundDuration":643431,"Delta":142987401},{"NoteNumber":67,"Velocity":41,"Duration":107238,"SoundDuration":107238,"Delta":143094640},{"NoteNumber":66,"Velocity":39,"Duration":107238,"SoundDuration":107238,"Delta":143201878},{"NoteNumber":64,"Velocity":36,"Duration":107238,"SoundDuration":107238,"Delta":143309117},{"NoteNumber":62,"Velocity":34,"Duration":107238,"SoundDuration":107238,"Delta":143416356},{"NoteNumber":61,"Velocity":32,"Duration":107238,"SoundDuration":107238,"Delta":143523594},{"NoteNumber":71,"Velocity":48,"Duration":1057545,"SoundDuration":1057545,"Delta":143630833},{"NoteNumber":35,"Velocity":48,"Duration":333333,"SoundDuration":333333,"Delta":143630833},{"NoteNumber":59,"Velocity":32,"Duration":111110,"SoundDuration":111110,"Delta":143964166},{"NoteNumber":47,"Velocity":28,"Duration":724211,"SoundDuration":724211,"Delta":143964166},{"NoteNumber":50,"Velocity":28,"Duration":724211,"SoundDuration":724211,"Delta":143964166},{"NoteNumber":54,"Velocity":32,"Duration":724211,"SoundDuration":724211,"Delta":143964166},{"NoteNumber":62,"Velocity":32,"Duration":111110,"SoundDuration":111110,"Delta":144075277},{"NoteNumber":66,"Velocity":32,"Duration":111110,"SoundDuration":111110,"Delta":144186388},{"NoteNumber":59,"Velocity":32,"Duration":390879,"SoundDuration":390879,"Delta":144297499},{"NoteNumber":71,"Velocity":79,"Duration":1039823,"SoundDuration":1039823,"Delta":144688378},{"NoteNumber":40,"Velocity":71,"Duration":166666,"SoundDuration":166666,"Delta":144688378},{"NoteNumber":59,"Velocity":64,"Duration":111110,"SoundDuration":111110,"Delta":145021711},{"NoteNumber":58,"Velocity":64,"Duration":706490,"SoundDuration":706490,"Delta":145021711},{"NoteNumber":55,"Velocity":57,"Duration":706490,"SoundDuration":706490,"Delta":145021711},{"NoteNumber":52,"Velocity":57,"Duration":706490,"SoundDuration":706490,"Delta":145021711},{"NoteNumber":64,"Velocity":58,"Duration":111110,"SoundDuration":111110,"Delta":145132822},{"NoteNumber":67,"Velocity":60,"Duration":111110,"SoundDuration":111110,"Delta":145243933},{"NoteNumber":59,"Velocity":64,"Duration":373157,"SoundDuration":373157,"Delta":145355044},{"NoteNumber":71,"Velocity":48,"Duration":1000673,"SoundDuration":1000673,"Delta":145728201},{"NoteNumber":35,"Velocity":48,"Duration":334007,"SoundDuration":334007,"Delta":145728201},{"NoteNumber":59,"Velocity":32,"Duration":111110,"SoundDuration":111110,"Delta":146062209},{"NoteNumber":50,"Velocity":28,"Duration":666665,"SoundDuration":666665,"Delta":146062209},{"NoteNumber":54,"Velocity":32,"Duration":666665,"SoundDuration":666665,"Delta":146062209},{"NoteNumber":62,"Velocity":32,"Duration":111110,"SoundDuration":111110,"Delta":146173320},{"NoteNumber":66,"Velocity":32,"Duration":111110,"SoundDuration":111110,"Delta":146284431},{"NoteNumber":59,"Velocity":32,"Duration":333333,"SoundDuration":333333,"Delta":146395542},{"NoteNumber":61,"Velocity":32,"Duration":108107,"SoundDuration":108107,"Delta":146728875},{"NoteNumber":70,"Velocity":48,"Duration":972971,"SoundDuration":972971,"Delta":146728875},{"NoteNumber":42,"Velocity":48,"Duration":324323,"SoundDuration":324323,"Delta":146728875},{"NoteNumber":62,"Velocity":34,"Duration":108108,"SoundDuration":108108,"Delta":146836983},{"NoteNumber":64,"Velocity":36,"Duration":108107,"SoundDuration":108107,"Delta":146945091},{"NoteNumber":66,"Velocity":39,"Duration":108108,"SoundDuration":108108,"Delta":147053199},{"NoteNumber":54,"Velocity":47,"Duration":648648,"SoundDuration":648648,"Delta":147053199},{"NoteNumber":67,"Velocity":41,"Duration":108107,"SoundDuration":108107,"Delta":147161307},{"NoteNumber":66,"Velocity":39,"Duration":108108,"SoundDuration":108108,"Delta":147269415},{"NoteNumber":64,"Velocity":36,"Duration":108107,"SoundDuration":108107,"Delta":147377523},{"NoteNumber":62,"Velocity":34,"Duration":108108,"SoundDuration":108108,"Delta":147485631},{"NoteNumber":61,"Velocity":32,"Duration":108107,"SoundDuration":108107,"Delta":147593739},{"NoteNumber":71,"Velocity":48,"Duration":1040971,"SoundDuration":1040971,"Delta":147701847},{"NoteNumber":35,"Velocity":48,"Duration":333333,"SoundDuration":333333,"Delta":147701847},{"NoteNumber":59,"Velocity":32,"Duration":111110,"SoundDuration":111110,"Delta":148035180},{"NoteNumber":47,"Velocity":28,"Duration":707638,"SoundDuration":707638,"Delta":148035180},{"NoteNumber":50,"Velocity":28,"Duration":707638,"SoundDuration":707638,"Delta":148035180},{"NoteNumber":54,"Velocity":32,"Duration":707638,"SoundDuration":707638,"Delta":148035180},{"NoteNumber":62,"Velocity":32,"Duration":111110,"SoundDuration":111110,"Delta":148146291},{"NoteNumber":66,"Velocity":32,"Duration":111110,"SoundDuration":111110,"Delta":148257402},{"NoteNumber":59,"Velocity":32,"Duration":374305,"SoundDuration":374305,"Delta":148368513},{"NoteNumber":71,"Velocity":81,"Duration":1041665,"SoundDuration":1041665,"Delta":148742819},{"NoteNumber":35,"Velocity":81,"Duration":333333,"SoundDuration":333333,"Delta":148742819},{"NoteNumber":59,"Velocity":60,"Duration":111110,"SoundDuration":111110,"Delta":149076152},{"NoteNumber":47,"Velocity":54,"Duration":708332,"SoundDuration":708332,"Delta":149076152},{"NoteNumber":50,"Velocity":54,"Duration":708332,"SoundDuration":708332,"Delta":149076152},{"NoteNumber":54,"Velocity":60,"Duration":708332,"SoundDuration":708332,"Delta":149076152},{"NoteNumber":62,"Velocity":54,"Duration":111110,"SoundDuration":111110,"Delta":149187263},{"NoteNumber":66,"Velocity":54,"Duration":111110,"SoundDuration":111110,"Delta":149298374},{"NoteNumber":59,"Velocity":60,"Duration":375000,"SoundDuration":375000,"Delta":149409485},{"NoteNumber":71,"Velocity":81,"Duration":1040971,"SoundDuration":1040971,"Delta":149784485},{"NoteNumber":35,"Velocity":81,"Duration":333333,"SoundDuration":333333,"Delta":149784485},{"NoteNumber":59,"Velocity":60,"Duration":111110,"SoundDuration":111110,"Delta":150117818},{"NoteNumber":47,"Velocity":54,"Duration":707638,"SoundDuration":707638,"Delta":150117818},{"NoteNumber":50,"Velocity":54,"Duration":707638,"SoundDuration":707638,"Delta":150117818},{"NoteNumber":54,"Velocity":60,"Duration":707638,"SoundDuration":707638,"Delta":150117818},{"NoteNumber":62,"Velocity":54,"Duration":111110,"SoundDuration":111110,"Delta":150228929},{"NoteNumber":66,"Velocity":54,"Duration":111110,"SoundDuration":111110,"Delta":150340040},{"NoteNumber":59,"Velocity":60,"Duration":374305,"SoundDuration":374305,"Delta":150451151},{"NoteNumber":62,"Velocity":81,"Duration":105555,"SoundDuration":105555,"Delta":150825456},{"NoteNumber":35,"Velocity":73,"Duration":316081,"SoundDuration":316081,"Delta":150825456},{"NoteNumber":66,"Velocity":64,"Duration":105263,"SoundDuration":105263,"Delta":150931012},{"NoteNumber":71,"Velocity":64,"Duration":105263,"SoundDuration":105263,"Delta":151036275},{"NoteNumber":59,"Velocity":74,"Duration":315788,"SoundDuration":315788,"Delta":151141538},{"NoteNumber":47,"Velocity":54,"Duration":315788,"SoundDuration":315788,"Delta":151141538},{"NoteNumber":50,"Velocity":54,"Duration":315788,"SoundDuration":315788,"Delta":151141538},{"NoteNumber":54,"Velocity":60,"Duration":315788,"SoundDuration":315788,"Delta":151141538},{"NoteNumber":62,"Velocity":81,"Duration":105263,"SoundDuration":105263,"Delta":151457327},{"NoteNumber":35,"Velocity":73,"Duration":315788,"SoundDuration":315788,"Delta":151457327},{"NoteNumber":66,"Velocity":64,"Duration":105262,"SoundDuration":105262,"Delta":151562590},{"NoteNumber":71,"Velocity":64,"Duration":105263,"SoundDuration":105263,"Delta":151667853},{"NoteNumber":59,"Velocity":71,"Duration":315788,"SoundDuration":315788,"Delta":151773116},{"NoteNumber":47,"Velocity":54,"Duration":315788,"SoundDuration":315788,"Delta":151773116},{"NoteNumber":50,"Velocity":54,"Duration":315788,"SoundDuration":315788,"Delta":151773116},{"NoteNumber":54,"Velocity":60,"Duration":315788,"SoundDuration":315788,"Delta":151773116},{"NoteNumber":62,"Velocity":81,"Duration":105263,"SoundDuration":105263,"Delta":152088905},{"NoteNumber":35,"Velocity":74,"Duration":315789,"SoundDuration":315789,"Delta":152088905},{"NoteNumber":66,"Velocity":64,"Duration":105263,"SoundDuration":105263,"Delta":152194168},{"NoteNumber":71,"Velocity":64,"Duration":105263,"SoundDuration":105263,"Delta":152299431},{"NoteNumber":62,"Velocity":72,"Duration":400000,"SoundDuration":400000,"Delta":152404694},{"NoteNumber":47,"Velocity":54,"Duration":400000,"SoundDuration":400000,"Delta":152404694},{"NoteNumber":50,"Velocity":54,"Duration":400000,"SoundDuration":400000,"Delta":152404694},{"NoteNumber":54,"Velocity":60,"Duration":400000,"SoundDuration":400000,"Delta":152404694},{"NoteNumber":70,"Velocity":81,"Duration":1042127,"SoundDuration":1042127,"Delta":152804694},{"NoteNumber":34,"Velocity":72,"Duration":333333,"SoundDuration":333333,"Delta":152804694},{"NoteNumber":58,"Velocity":60,"Duration":111110,"SoundDuration":111110,"Delta":153138027},{"NoteNumber":46,"Velocity":54,"Duration":708794,"SoundDuration":708794,"Delta":153138027},{"NoteNumber":51,"Velocity":54,"Duration":708794,"SoundDuration":708794,"Delta":153138027},{"NoteNumber":54,"Velocity":60,"Duration":708794,"SoundDuration":708794,"Delta":153138027},{"NoteNumber":63,"Velocity":55,"Duration":111110,"SoundDuration":111110,"Delta":153249138},{"NoteNumber":66,"Velocity":55,"Duration":111110,"SoundDuration":111110,"Delta":153360249},{"NoteNumber":58,"Velocity":60,"Duration":375461,"SoundDuration":375461,"Delta":153471360},{"NoteNumber":70,"Velocity":81,"Duration":1000713,"SoundDuration":1000713,"Delta":153846822},{"NoteNumber":34,"Velocity":81,"Duration":334047,"SoundDuration":334047,"Delta":153846822},{"NoteNumber":58,"Velocity":60,"Duration":111110,"SoundDuration":111110,"Delta":154180869},{"NoteNumber":46,"Velocity":54,"Duration":666665,"SoundDuration":666665,"Delta":154180869},{"NoteNumber":51,"Velocity":54,"Duration":666665,"SoundDuration":666665,"Delta":154180869},{"NoteNumber":54,"Velocity":60,"Duration":666665,"SoundDuration":666665,"Delta":154180869},{"NoteNumber":63,"Velocity":55,"Duration":111110,"SoundDuration":111110,"Delta":154291980},{"NoteNumber":66,"Velocity":55,"Duration":111110,"SoundDuration":111110,"Delta":154403091},{"NoteNumber":58,"Velocity":60,"Duration":333333,"SoundDuration":333333,"Delta":154514202},{"NoteNumber":63,"Velocity":83,"Duration":106382,"SoundDuration":106382,"Delta":154847535},{"NoteNumber":34,"Velocity":83,"Duration":319149,"SoundDuration":319149,"Delta":154847535},{"NoteNumber":66,"Velocity":62,"Duration":106382,"SoundDuration":106382,"Delta":154953918},{"NoteNumber":70,"Velocity":62,"Duration":106383,"SoundDuration":106383,"Delta":155060301},{"NoteNumber":58,"Velocity":74,"Duration":319148,"SoundDuration":319148,"Delta":155166684},{"NoteNumber":46,"Velocity":58,"Duration":319148,"SoundDuration":319148,"Delta":155166684},{"NoteNumber":51,"Velocity":58,"Duration":319148,"SoundDuration":319148,"Delta":155166684},{"NoteNumber":54,"Velocity":65,"Duration":319148,"SoundDuration":319148,"Delta":155166684},{"NoteNumber":63,"Velocity":89,"Duration":106383,"SoundDuration":106383,"Delta":155485833},{"NoteNumber":34,"Velocity":86,"Duration":319149,"SoundDuration":319149,"Delta":155485833},{"NoteNumber":66,"Velocity":66,"Duration":106382,"SoundDuration":106382,"Delta":155592216},{"NoteNumber":70,"Velocity":66,"Duration":106382,"SoundDuration":106382,"Delta":155698599},{"NoteNumber":58,"Velocity":77,"Duration":319149,"SoundDuration":319149,"Delta":155804982},{"NoteNumber":46,"Velocity":60,"Duration":319149,"SoundDuration":319149,"Delta":155804982},{"NoteNumber":51,"Velocity":60,"Duration":319149,"SoundDuration":319149,"Delta":155804982},{"NoteNumber":54,"Velocity":67,"Duration":319149,"SoundDuration":319149,"Delta":155804982},{"NoteNumber":63,"Velocity":90,"Duration":106382,"SoundDuration":106382,"Delta":156124131},{"NoteNumber":34,"Velocity":87,"Duration":320545,"SoundDuration":320545,"Delta":156124131},{"NoteNumber":66,"Velocity":71,"Duration":106382,"SoundDuration":106382,"Delta":156230514},{"NoteNumber":70,"Velocity":71,"Duration":107779,"SoundDuration":107779,"Delta":156336897},{"NoteNumber":58,"Velocity":78,"Duration":375000,"SoundDuration":375000,"Delta":156444676},{"NoteNumber":46,"Velocity":61,"Duration":375000,"SoundDuration":375000,"Delta":156444676},{"NoteNumber":51,"Velocity":61,"Duration":375000,"SoundDuration":375000,"Delta":156444676},{"NoteNumber":54,"Velocity":68,"Duration":375000,"SoundDuration":375000,"Delta":156444676},{"NoteNumber":63,"Velocity":82,"Duration":667360,"SoundDuration":667360,"Delta":156819676},{"NoteNumber":75,"Velocity":97,"Duration":667360,"SoundDuration":667360,"Delta":156819676},{"NoteNumber":32,"Velocity":75,"Duration":334027,"SoundDuration":334027,"Delta":156819676},{"NoteNumber":44,"Velocity":89,"Duration":334027,"SoundDuration":334027,"Delta":156819676},{"NoteNumber":53,"Velocity":80,"Duration":666665,"SoundDuration":666665,"Delta":157153703},{"NoteNumber":51,"Velocity":72,"Duration":666665,"SoundDuration":666665,"Delta":157153703},{"NoteNumber":47,"Velocity":72,"Duration":666665,"SoundDuration":666665,"Delta":157153703},{"NoteNumber":44,"Velocity":72,"Duration":666665,"SoundDuration":666665,"Delta":157153703},{"NoteNumber":87,"Velocity":105,"Duration":666665,"SoundDuration":666665,"Delta":157487036},{"NoteNumber":75,"Velocity":96,"Duration":666665,"SoundDuration":666665,"Delta":157487036},{"NoteNumber":47,"Velocity":63,"Duration":666665,"SoundDuration":666665,"Delta":157820369},{"NoteNumber":54,"Velocity":71,"Duration":666665,"SoundDuration":666665,"Delta":157820369},{"NoteNumber":51,"Velocity":63,"Duration":666665,"SoundDuration":666665,"Delta":157820369},{"NoteNumber":44,"Velocity":63,"Duration":666665,"SoundDuration":666665,"Delta":157820369},{"NoteNumber":71,"Velocity":77,"Duration":666666,"SoundDuration":666666,"Delta":158153702},{"NoteNumber":83,"Velocity":91,"Duration":666666,"SoundDuration":666666,"Delta":158153702},{"NoteNumber":54,"Velocity":76,"Duration":333333,"SoundDuration":333333,"Delta":158487035},{"NoteNumber":51,"Velocity":68,"Duration":333333,"SoundDuration":333333,"Delta":158487035},{"NoteNumber":47,"Velocity":68,"Duration":333333,"SoundDuration":333333,"Delta":158487035},{"NoteNumber":44,"Velocity":68,"Duration":333333,"SoundDuration":333333,"Delta":158487035},{"NoteNumber":80,"Velocity":81,"Duration":107816,"SoundDuration":107816,"Delta":158820368},{"NoteNumber":59,"Velocity":76,"Duration":1940970,"SoundDuration":1940970,"Delta":158820368},{"NoteNumber":56,"Velocity":68,"Duration":1940970,"SoundDuration":1940970,"Delta":158820368},{"NoteNumber":53,"Velocity":68,"Duration":1940970,"SoundDuration":1940970,"Delta":158820368},{"NoteNumber":46,"Velocity":68,"Duration":1940970,"SoundDuration":1940970,"Delta":158820368},{"NoteNumber":83,"Velocity":75,"Duration":107816,"SoundDuration":107816,"Delta":158928185},{"NoteNumber":80,"Velocity":80,"Duration":107816,"SoundDuration":107816,"Delta":159036002},{"NoteNumber":83,"Velocity":74,"Duration":107816,"SoundDuration":107816,"Delta":159143818},{"NoteNumber":80,"Velocity":78,"Duration":107816,"SoundDuration":107816,"Delta":159251635},{"NoteNumber":83,"Velocity":72,"Duration":107816,"SoundDuration":107816,"Delta":159359452},{"NoteNumber":80,"Velocity":77,"Duration":107816,"SoundDuration":107816,"Delta":159467268},{"NoteNumber":83,"Velocity":69,"Duration":107816,"SoundDuration":107816,"Delta":159575085},{"NoteNumber":80,"Velocity":75,"Duration":107816,"SoundDuration":107816,"Delta":159682902},{"NoteNumber":83,"Velocity":69,"Duration":107816,"SoundDuration":107816,"Delta":159790718},{"NoteNumber":80,"Velocity":74,"Duration":107816,"SoundDuration":107816,"Delta":159898535},{"NoteNumber":83,"Velocity":67,"Duration":107816,"SoundDuration":107816,"Delta":160006352},{"NoteNumber":80,"Velocity":72,"Duration":107816,"SoundDuration":107816,"Delta":160114168},{"NoteNumber":83,"Velocity":67,"Duration":107816,"SoundDuration":107816,"Delta":160221985},{"NoteNumber":80,"Velocity":72,"Duration":107816,"SoundDuration":107816,"Delta":160329802},{"NoteNumber":83,"Velocity":65,"Duration":107816,"SoundDuration":107816,"Delta":160437618},{"NoteNumber":80,"Velocity":70,"Duration":107816,"SoundDuration":107816,"Delta":160545435},{"NoteNumber":83,"Velocity":64,"Duration":108086,"SoundDuration":108086,"Delta":160653252},{"NoteNumber":80,"Velocity":70,"Duration":107925,"SoundDuration":107925,"Delta":160761339},{"NoteNumber":58,"Velocity":50,"Duration":2317036,"SoundDuration":2317036,"Delta":160761339},{"NoteNumber":56,"Velocity":45,"Duration":2317036,"SoundDuration":2317036,"Delta":160761339},{"NoteNumber":53,"Velocity":45,"Duration":2317036,"SoundDuration":2317036,"Delta":160761339},{"NoteNumber":46,"Velocity":45,"Duration":2317036,"SoundDuration":2317036,"Delta":160761339},{"NoteNumber":82,"Velocity":62,"Duration":108438,"SoundDuration":108438,"Delta":160869265},{"NoteNumber":80,"Velocity":64,"Duration":108954,"SoundDuration":108954,"Delta":160977703},{"NoteNumber":82,"Velocity":56,"Duration":109476,"SoundDuration":109476,"Delta":161086657},{"NoteNumber":80,"Velocity":58,"Duration":110041,"SoundDuration":110041,"Delta":161196134},{"NoteNumber":82,"Velocity":51,"Duration":110574,"SoundDuration":110574,"Delta":161306176},{"NoteNumber":80,"Velocity":53,"Duration":111111,"SoundDuration":111111,"Delta":161416750},{"NoteNumber":82,"Velocity":45,"Duration":111654,"SoundDuration":111654,"Delta":161527861},{"NoteNumber":80,"Velocity":47,"Duration":112202,"SoundDuration":112202,"Delta":161639516},{"NoteNumber":82,"Velocity":40,"Duration":115048,"SoundDuration":115048,"Delta":161751718},{"NoteNumber":80,"Velocity":41,"Duration":121102,"SoundDuration":121102,"Delta":161866766},{"NoteNumber":82,"Velocity":35,"Duration":127880,"SoundDuration":127880,"Delta":161987868},{"NoteNumber":80,"Velocity":36,"Duration":135402,"SoundDuration":135402,"Delta":162115749},{"NoteNumber":82,"Velocity":28,"Duration":143998,"SoundDuration":143998,"Delta":162251152},{"NoteNumber":80,"Velocity":30,"Duration":153607,"SoundDuration":153607,"Delta":162395150},{"NoteNumber":82,"Velocity":23,"Duration":164678,"SoundDuration":164678,"Delta":162548758},{"NoteNumber":80,"Velocity":24,"Duration":177471,"SoundDuration":177471,"Delta":162713436},{"NoteNumber":82,"Velocity":21,"Duration":187467,"SoundDuration":187467,"Delta":162890908},{"NoteNumber":79,"Velocity":24,"Duration":110803,"SoundDuration":110803,"Delta":163078375},{"NoteNumber":51,"Velocity":32,"Duration":932410,"SoundDuration":932410,"Delta":163078375},{"NoteNumber":82,"Velocity":44,"Duration":110803,"SoundDuration":110803,"Delta":163189179},{"NoteNumber":80,"Velocity":43,"Duration":110803,"SoundDuration":110803,"Delta":163299982},{"NoteNumber":79,"Velocity":43,"Duration":99999,"SoundDuration":99999,"Delta":163410785},{"NoteNumber":58,"Velocity":23,"Duration":599999,"SoundDuration":599999,"Delta":163410785},{"NoteNumber":77,"Velocity":42,"Duration":99999,"SoundDuration":99999,"Delta":163510785},{"NoteNumber":75,"Velocity":41,"Duration":100000,"SoundDuration":100000,"Delta":163610785},{"NoteNumber":74,"Velocity":40,"Duration":99999,"SoundDuration":99999,"Delta":163710785},{"NoteNumber":72,"Velocity":40,"Duration":99999,"SoundDuration":99999,"Delta":163810785},{"NoteNumber":70,"Velocity":40,"Duration":99999,"SoundDuration":99999,"Delta":163910785},{"NoteNumber":68,"Velocity":39,"Duration":102040,"SoundDuration":102040,"Delta":164010785},{"NoteNumber":53,"Velocity":36,"Duration":906121,"SoundDuration":906121,"Delta":164010785},{"NoteNumber":67,"Velocity":39,"Duration":102040,"SoundDuration":102040,"Delta":164112826},{"NoteNumber":65,"Velocity":38,"Duration":102040,"SoundDuration":102040,"Delta":164214867},{"NoteNumber":63,"Velocity":37,"Duration":99999,"SoundDuration":99999,"Delta":164316907},{"NoteNumber":58,"Velocity":27,"Duration":296875,"SoundDuration":296875,"Delta":164316907},{"NoteNumber":62,"Velocity":39,"Duration":99999,"SoundDuration":99999,"Delta":164416907},{"NoteNumber":60,"Velocity":38,"Duration":100000,"SoundDuration":100000,"Delta":164516907},{"NoteNumber":58,"Velocity":40,"Duration":299999,"SoundDuration":299999,"Delta":164616907},{"NoteNumber":60,"Velocity":41,"Duration":99999,"SoundDuration":99999,"Delta":164716907},{"NoteNumber":62,"Velocity":40,"Duration":99999,"SoundDuration":99999,"Delta":164816907},{"NoteNumber":63,"Velocity":44,"Duration":102301,"SoundDuration":102301,"Delta":164916907},{"NoteNumber":55,"Velocity":41,"Duration":906904,"SoundDuration":906904,"Delta":164916907},{"NoteNumber":62,"Velocity":45,"Duration":102301,"SoundDuration":102301,"Delta":165019209},{"NoteNumber":63,"Velocity":45,"Duration":102301,"SoundDuration":102301,"Delta":165121511},{"NoteNumber":64,"Velocity":48,"Duration":99999,"SoundDuration":99999,"Delta":165223812},{"NoteNumber":58,"Velocity":29,"Duration":599999,"SoundDuration":599999,"Delta":165223812},{"NoteNumber":63,"Velocity":47,"Duration":99999,"SoundDuration":99999,"Delta":165323812},{"NoteNumber":64,"Velocity":45,"Duration":100000,"SoundDuration":100000,"Delta":165423812},{"NoteNumber":65,"Velocity":53,"Duration":99999,"SoundDuration":99999,"Delta":165523812},{"NoteNumber":64,"Velocity":51,"Duration":99999,"SoundDuration":99999,"Delta":165623812},{"NoteNumber":65,"Velocity":48,"Duration":99999,"SoundDuration":99999,"Delta":165723812},{"NoteNumber":66,"Velocity":56,"Duration":101781,"SoundDuration":101781,"Delta":165823812},{"NoteNumber":50,"Velocity":45,"Duration":905343,"SoundDuration":905343,"Delta":165823812},{"NoteNumber":65,"Velocity":52,"Duration":101781,"SoundDuration":101781,"Delta":165925594},{"NoteNumber":66,"Velocity":48,"Duration":101781,"SoundDuration":101781,"Delta":166027375},{"NoteNumber":67,"Velocity":56,"Duration":99999,"SoundDuration":99999,"Delta":166129156},{"NoteNumber":58,"Velocity":31,"Duration":599999,"SoundDuration":599999,"Delta":166129156},{"NoteNumber":66,"Velocity":54,"Duration":99999,"SoundDuration":99999,"Delta":166229156},{"NoteNumber":67,"Velocity":49,"Duration":100000,"SoundDuration":100000,"Delta":166329156},{"NoteNumber":68,"Velocity":48,"Duration":99999,"SoundDuration":99999,"Delta":166429156},{"NoteNumber":67,"Velocity":45,"Duration":99999,"SoundDuration":99999,"Delta":166529156},{"NoteNumber":68,"Velocity":42,"Duration":99999,"SoundDuration":99999,"Delta":166629156},{"NoteNumber":67,"Velocity":48,"Duration":101522,"SoundDuration":101522,"Delta":166729156},{"NoteNumber":51,"Velocity":42,"Duration":904568,"SoundDuration":904568,"Delta":166729156},{"NoteNumber":70,"Velocity":45,"Duration":101523,"SoundDuration":101523,"Delta":166830679},{"NoteNumber":68,"Velocity":44,"Duration":101522,"SoundDuration":101522,"Delta":166932202},{"NoteNumber":67,"Velocity":48,"Duration":99999,"SoundDuration":99999,"Delta":167033725},{"NoteNumber":58,"Velocity":31,"Duration":599999,"SoundDuration":599999,"Delta":167033725},{"NoteNumber":68,"Velocity":45,"Duration":99999,"SoundDuration":99999,"Delta":167133725},{"NoteNumber":70,"Velocity":45,"Duration":100000,"SoundDuration":100000,"Delta":167233725},{"NoteNumber":72,"Velocity":48,"Duration":99999,"SoundDuration":99999,"Delta":167333725},{"NoteNumber":74,"Velocity":44,"Duration":99999,"SoundDuration":99999,"Delta":167433725},{"NoteNumber":75,"Velocity":44,"Duration":99999,"SoundDuration":99999,"Delta":167533725},{"NoteNumber":77,"Velocity":48,"Duration":104166,"SoundDuration":104166,"Delta":167633725},{"NoteNumber":44,"Velocity":41,"Duration":312500,"SoundDuration":312500,"Delta":167633725},{"NoteNumber":84,"Velocity":52,"Duration":104166,"SoundDuration":104166,"Delta":167737892},{"NoteNumber":82,"Velocity":46,"Duration":104166,"SoundDuration":104166,"Delta":167842059},{"NoteNumber":80,"Velocity":51,"Duration":99999,"SoundDuration":99999,"Delta":167946225},{"NoteNumber":60,"Velocity":29,"Duration":599999,"SoundDuration":599999,"Delta":167946225},{"NoteNumber":56,"Velocity":26,"Duration":599999,"SoundDuration":599999,"Delta":167946225},{"NoteNumber":79,"Velocity":47,"Duration":99999,"SoundDuration":99999,"Delta":168046225},{"NoteNumber":77,"Velocity":45,"Duration":100000,"SoundDuration":100000,"Delta":168146225},{"NoteNumber":75,"Velocity":48,"Duration":99999,"SoundDuration":99999,"Delta":168246225},{"NoteNumber":74,"Velocity":45,"Duration":99999,"SoundDuration":99999,"Delta":168346225},{"NoteNumber":72,"Velocity":45,"Duration":99999,"SoundDuration":99999,"Delta":168446225},{"NoteNumber":70,"Velocity":47,"Duration":101781,"SoundDuration":101781,"Delta":168546225},{"NoteNumber":46,"Velocity":40,"Duration":305343,"SoundDuration":305343,"Delta":168546225},{"NoteNumber":77,"Velocity":45,"Duration":101781,"SoundDuration":101781,"Delta":168648007},{"NoteNumber":75,"Velocity":45,"Duration":101781,"SoundDuration":101781,"Delta":168749788},{"NoteNumber":74,"Velocity":48,"Duration":99999,"SoundDuration":99999,"Delta":168851569},{"NoteNumber":56,"Velocity":27,"Duration":599999,"SoundDuration":599999,"Delta":168851569},{"NoteNumber":62,"Velocity":30,"Duration":599999,"SoundDuration":599999,"Delta":168851569},{"NoteNumber":58,"Velocity":27,"Duration":599999,"SoundDuration":599999,"Delta":168851569},{"NoteNumber":72,"Velocity":45,"Duration":99999,"SoundDuration":99999,"Delta":168951569},{"NoteNumber":70,"Velocity":45,"Duration":100000,"SoundDuration":100000,"Delta":169051569},{"NoteNumber":68,"Velocity":48,"Duration":99999,"SoundDuration":99999,"Delta":169151569},{"NoteNumber":67,"Velocity":44,"Duration":99999,"SoundDuration":99999,"Delta":169251569},{"NoteNumber":65,"Velocity":44,"Duration":99999,"SoundDuration":99999,"Delta":169351569},{"NoteNumber":63,"Velocity":48,"Duration":101522,"SoundDuration":101522,"Delta":169451569},{"NoteNumber":51,"Velocity":45,"Duration":304568,"SoundDuration":304568,"Delta":169451569},{"NoteNumber":65,"Velocity":48,"Duration":101523,"SoundDuration":101523,"Delta":169553092},{"NoteNumber":67,"Velocity":48,"Duration":101522,"SoundDuration":101522,"Delta":169654615},{"NoteNumber":68,"Velocity":48,"Duration":99999,"SoundDuration":99999,"Delta":169756138},{"NoteNumber":63,"Velocity":30,"Duration":599999,"SoundDuration":599999,"Delta":169756138},{"NoteNumber":58,"Velocity":27,"Duration":599999,"SoundDuration":599999,"Delta":169756138},{"NoteNumber":55,"Velocity":27,"Duration":599999,"SoundDuration":599999,"Delta":169756138},{"NoteNumber":70,"Velocity":51,"Duration":99999,"SoundDuration":99999,"Delta":169856138},{"NoteNumber":72,"Velocity":55,"Duration":100000,"SoundDuration":100000,"Delta":169956138},{"NoteNumber":74,"Velocity":56,"Duration":99999,"SoundDuration":99999,"Delta":170056138},{"NoteNumber":75,"Velocity":60,"Duration":99999,"SoundDuration":99999,"Delta":170156138},{"NoteNumber":77,"Velocity":63,"Duration":99999,"SoundDuration":99999,"Delta":170256138},{"NoteNumber":79,"Velocity":63,"Duration":110803,"SoundDuration":110803,"Delta":170356138},{"NoteNumber":51,"Velocity":48,"Duration":932410,"SoundDuration":932410,"Delta":170356138},{"NoteNumber":82,"Velocity":58,"Duration":110803,"SoundDuration":110803,"Delta":170466942},{"NoteNumber":80,"Velocity":53,"Duration":110803,"SoundDuration":110803,"Delta":170577745},{"NoteNumber":79,"Velocity":62,"Duration":99999,"SoundDuration":99999,"Delta":170688548},{"NoteNumber":58,"Velocity":41,"Duration":599999,"SoundDuration":599999,"Delta":170688548},{"NoteNumber":77,"Velocity":56,"Duration":99999,"SoundDuration":99999,"Delta":170788548},{"NoteNumber":75,"Velocity":54,"Duration":100000,"SoundDuration":100000,"Delta":170888548},{"NoteNumber":74,"Velocity":63,"Duration":99999,"SoundDuration":99999,"Delta":170988548},{"NoteNumber":72,"Velocity":58,"Duration":99999,"SoundDuration":99999,"Delta":171088548},{"NoteNumber":70,"Velocity":54,"Duration":99999,"SoundDuration":99999,"Delta":171188548},{"NoteNumber":68,"Velocity":63,"Duration":101781,"SoundDuration":101781,"Delta":171288548},{"NoteNumber":53,"Velocity":52,"Duration":905343,"SoundDuration":905343,"Delta":171288548},{"NoteNumber":67,"Velocity":59,"Duration":101781,"SoundDuration":101781,"Delta":171390330},{"NoteNumber":65,"Velocity":60,"Duration":101781,"SoundDuration":101781,"Delta":171492111},{"NoteNumber":63,"Velocity":63,"Duration":99999,"SoundDuration":99999,"Delta":171593892},{"NoteNumber":58,"Velocity":40,"Duration":296875,"SoundDuration":296875,"Delta":171593892},{"NoteNumber":62,"Velocity":59,"Duration":99999,"SoundDuration":99999,"Delta":171693892},{"NoteNumber":60,"Velocity":59,"Duration":100000,"SoundDuration":100000,"Delta":171793892},{"NoteNumber":58,"Velocity":63,"Duration":299999,"SoundDuration":299999,"Delta":171893892},{"NoteNumber":60,"Velocity":58,"Duration":99999,"SoundDuration":99999,"Delta":171993892},{"NoteNumber":62,"Velocity":58,"Duration":99999,"SoundDuration":99999,"Delta":172093892},{"NoteNumber":63,"Velocity":63,"Duration":101781,"SoundDuration":101781,"Delta":172193892},{"NoteNumber":55,"Velocity":56,"Duration":905343,"SoundDuration":905343,"Delta":172193892},{"NoteNumber":62,"Velocity":60,"Duration":101781,"SoundDuration":101781,"Delta":172295674},{"NoteNumber":63,"Velocity":60,"Duration":101781,"SoundDuration":101781,"Delta":172397455},{"NoteNumber":64,"Velocity":67,"Duration":99999,"SoundDuration":99999,"Delta":172499236},{"NoteNumber":58,"Velocity":45,"Duration":599999,"SoundDuration":599999,"Delta":172499236},{"NoteNumber":63,"Velocity":63,"Duration":99999,"SoundDuration":99999,"Delta":172599236},{"NoteNumber":64,"Velocity":63,"Duration":100000,"SoundDuration":100000,"Delta":172699236},{"NoteNumber":65,"Velocity":71,"Duration":99999,"SoundDuration":99999,"Delta":172799236},{"NoteNumber":64,"Velocity":68,"Duration":99999,"SoundDuration":99999,"Delta":172899236},{"NoteNumber":65,"Velocity":64,"Duration":99999,"SoundDuration":99999,"Delta":172999236},{"NoteNumber":66,"Velocity":73,"Duration":101522,"SoundDuration":101522,"Delta":173099236},{"NoteNumber":50,"Velocity":56,"Duration":904568,"SoundDuration":904568,"Delta":173099236},{"NoteNumber":65,"Velocity":70,"Duration":101523,"SoundDuration":101523,"Delta":173200759},{"NoteNumber":66,"Velocity":67,"Duration":101522,"SoundDuration":101522,"Delta":173302282},{"NoteNumber":67,"Velocity":72,"Duration":99999,"SoundDuration":99999,"Delta":173403805},{"NoteNumber":58,"Velocity":42,"Duration":599999,"SoundDuration":599999,"Delta":173403805},{"NoteNumber":66,"Velocity":70,"Duration":99999,"SoundDuration":99999,"Delta":173503805},{"NoteNumber":67,"Velocity":64,"Duration":100000,"SoundDuration":100000,"Delta":173603805},{"NoteNumber":68,"Velocity":63,"Duration":99999,"SoundDuration":99999,"Delta":173703805},{"NoteNumber":67,"Velocity":58,"Duration":99999,"SoundDuration":99999,"Delta":173803805},{"NoteNumber":68,"Velocity":58,"Duration":99999,"SoundDuration":99999,"Delta":173903805},{"NoteNumber":67,"Velocity":63,"Duration":101522,"SoundDuration":101522,"Delta":174003805},{"NoteNumber":51,"Velocity":51,"Duration":904568,"SoundDuration":904568,"Delta":174003805},{"NoteNumber":70,"Velocity":60,"Duration":101523,"SoundDuration":101523,"Delta":174105328},{"NoteNumber":68,"Velocity":60,"Duration":101522,"SoundDuration":101522,"Delta":174206851},{"NoteNumber":67,"Velocity":63,"Duration":99999,"SoundDuration":99999,"Delta":174308374},{"NoteNumber":58,"Velocity":40,"Duration":599999,"SoundDuration":599999,"Delta":174308374},{"NoteNumber":68,"Velocity":58,"Duration":99999,"SoundDuration":99999,"Delta":174408374},{"NoteNumber":70,"Velocity":58,"Duration":100000,"SoundDuration":100000,"Delta":174508374},{"NoteNumber":72,"Velocity":63,"Duration":99999,"SoundDuration":99999,"Delta":174608374},{"NoteNumber":74,"Velocity":58,"Duration":99999,"SoundDuration":99999,"Delta":174708374},{"NoteNumber":75,"Velocity":58,"Duration":99999,"SoundDuration":99999,"Delta":174808374},{"NoteNumber":77,"Velocity":63,"Duration":104166,"SoundDuration":104166,"Delta":174908374},{"NoteNumber":44,"Velocity":60,"Duration":312500,"SoundDuration":312500,"Delta":174908374},{"NoteNumber":84,"Velocity":66,"Duration":104166,"SoundDuration":104166,"Delta":175012541},{"NoteNumber":82,"Velocity":65,"Duration":104166,"SoundDuration":104166,"Delta":175116708},{"NoteNumber":80,"Velocity":64,"Duration":99999,"SoundDuration":99999,"Delta":175220874},{"NoteNumber":60,"Velocity":47,"Duration":599999,"SoundDuration":599999,"Delta":175220874},{"NoteNumber":56,"Velocity":42,"Duration":599999,"SoundDuration":599999,"Delta":175220874},{"NoteNumber":79,"Velocity":60,"Duration":99999,"SoundDuration":99999,"Delta":175320874},{"NoteNumber":77,"Velocity":60,"Duration":100000,"SoundDuration":100000,"Delta":175420874},{"NoteNumber":75,"Velocity":63,"Duration":99999,"SoundDuration":99999,"Delta":175520874},{"NoteNumber":74,"Velocity":58,"Duration":99999,"SoundDuration":99999,"Delta":175620874},{"NoteNumber":72,"Velocity":61,"Duration":99999,"SoundDuration":99999,"Delta":175720874},{"NoteNumber":70,"Velocity":59,"Duration":102301,"SoundDuration":102301,"Delta":175820874},{"NoteNumber":46,"Velocity":59,"Duration":306905,"SoundDuration":306905,"Delta":175820874},{"NoteNumber":77,"Velocity":62,"Duration":102301,"SoundDuration":102301,"Delta":175923176},{"NoteNumber":75,"Velocity":58,"Duration":102301,"SoundDuration":102301,"Delta":176025478},{"NoteNumber":74,"Velocity":63,"Duration":99999,"SoundDuration":99999,"Delta":176127779},{"NoteNumber":56,"Velocity":40,"Duration":599999,"SoundDuration":599999,"Delta":176127779},{"NoteNumber":62,"Velocity":45,"Duration":599999,"SoundDuration":599999,"Delta":176127779},{"NoteNumber":58,"Velocity":40,"Duration":599999,"SoundDuration":599999,"Delta":176127779},{"NoteNumber":75,"Velocity":59,"Duration":99999,"SoundDuration":99999,"Delta":176227779},{"NoteNumber":77,"Velocity":59,"Duration":100000,"SoundDuration":100000,"Delta":176327779},{"NoteNumber":79,"Velocity":63,"Duration":99999,"SoundDuration":99999,"Delta":176427779},{"NoteNumber":80,"Velocity":57,"Duration":99999,"SoundDuration":99999,"Delta":176527779},{"NoteNumber":82,"Velocity":57,"Duration":99999,"SoundDuration":99999,"Delta":176627779},{"NoteNumber":75,"Velocity":63,"Duration":102040,"SoundDuration":102040,"Delta":176727779},{"NoteNumber":51,"Velocity":60,"Duration":306121,"SoundDuration":306121,"Delta":176727779},{"NoteNumber":77,"Velocity":58,"Duration":102040,"SoundDuration":102040,"Delta":176829820},{"NoteNumber":79,"Velocity":58,"Duration":102040,"SoundDuration":102040,"Delta":176931861},{"NoteNumber":80,"Velocity":63,"Duration":99999,"SoundDuration":99999,"Delta":177033901},{"NoteNumber":63,"Velocity":46,"Duration":599999,"SoundDuration":599999,"Delta":177033901},{"NoteNumber":58,"Velocity":41,"Duration":599999,"SoundDuration":599999,"Delta":177033901},{"NoteNumber":55,"Velocity":41,"Duration":599999,"SoundDuration":599999,"Delta":177033901},{"NoteNumber":82,"Velocity":58,"Duration":99999,"SoundDuration":99999,"Delta":177133901},{"NoteNumber":84,"Velocity":58,"Duration":100000,"SoundDuration":100000,"Delta":177233901},{"NoteNumber":86,"Velocity":63,"Duration":99999,"SoundDuration":99999,"Delta":177333901},{"NoteNumber":87,"Velocity":58,"Duration":99999,"SoundDuration":99999,"Delta":177433901},{"NoteNumber":89,"Velocity":58,"Duration":99999,"SoundDuration":99999,"Delta":177533901},{"NoteNumber":91,"Velocity":63,"Duration":111420,"SoundDuration":111420,"Delta":177633901},{"NoteNumber":51,"Velocity":58,"Duration":935766,"SoundDuration":935766,"Delta":177633901},{"NoteNumber":94,"Velocity":63,"Duration":111420,"SoundDuration":111420,"Delta":177745322},{"NoteNumber":92,"Velocity":58,"Duration":111420,"SoundDuration":111420,"Delta":177856743},{"NoteNumber":91,"Velocity":64,"Duration":100250,"SoundDuration":100250,"Delta":177968163},{"NoteNumber":58,"Velocity":46,"Duration":601504,"SoundDuration":601504,"Delta":177968163},{"NoteNumber":89,"Velocity":62,"Duration":100250,"SoundDuration":100250,"Delta":178068414},{"NoteNumber":87,"Velocity":62,"Duration":100250,"SoundDuration":100250,"Delta":178168665},{"NoteNumber":86,"Velocity":63,"Duration":100250,"SoundDuration":100250,"Delta":178268915},{"NoteNumber":84,"Velocity":57,"Duration":100250,"SoundDuration":100250,"Delta":178369166},{"NoteNumber":82,"Velocity":58,"Duration":100250,"SoundDuration":100250,"Delta":178469417},{"NoteNumber":80,"Velocity":60,"Duration":102040,"SoundDuration":102040,"Delta":178569667},{"NoteNumber":53,"Velocity":56,"Duration":905866,"SoundDuration":905866,"Delta":178569667},{"NoteNumber":79,"Velocity":58,"Duration":102040,"SoundDuration":102040,"Delta":178671708},{"NoteNumber":77,"Velocity":58,"Duration":101785,"SoundDuration":101785,"Delta":178773749},{"NoteNumber":75,"Velocity":63,"Duration":100000,"SoundDuration":100000,"Delta":178875534},{"NoteNumber":58,"Velocity":45,"Duration":599999,"SoundDuration":599999,"Delta":178875534},{"NoteNumber":74,"Velocity":58,"Duration":99999,"SoundDuration":99999,"Delta":178975534},{"NoteNumber":72,"Velocity":58,"Duration":99999,"SoundDuration":99999,"Delta":179075534},{"NoteNumber":70,"Velocity":63,"Duration":99999,"SoundDuration":99999,"Delta":179175534},{"NoteNumber":72,"Velocity":58,"Duration":99999,"SoundDuration":99999,"Delta":179275534},{"NoteNumber":74,"Velocity":58,"Duration":99999,"SoundDuration":99999,"Delta":179375534},{"NoteNumber":75,"Velocity":63,"Duration":101781,"SoundDuration":101781,"Delta":179475534},{"NoteNumber":55,"Velocity":56,"Duration":905343,"SoundDuration":905343,"Delta":179475534},{"NoteNumber":74,"Velocity":59,"Duration":101781,"SoundDuration":101781,"Delta":179577316},{"NoteNumber":75,"Velocity":59,"Duration":101781,"SoundDuration":101781,"Delta":179679097},{"NoteNumber":76,"Velocity":64,"Duration":99999,"SoundDuration":99999,"Delta":179780878},{"NoteNumber":58,"Velocity":45,"Duration":599999,"SoundDuration":599999,"Delta":179780878},{"NoteNumber":75,"Velocity":61,"Duration":99999,"SoundDuration":99999,"Delta":179880878},{"NoteNumber":76,"Velocity":62,"Duration":100000,"SoundDuration":100000,"Delta":179980878},{"NoteNumber":77,"Velocity":66,"Duration":99999,"SoundDuration":99999,"Delta":180080878},{"NoteNumber":76,"Velocity":63,"Duration":99999,"SoundDuration":99999,"Delta":180180878},{"NoteNumber":77,"Velocity":63,"Duration":99999,"SoundDuration":99999,"Delta":180280878},{"NoteNumber":78,"Velocity":70,"Duration":102564,"SoundDuration":102564,"Delta":180380878},{"NoteNumber":50,"Velocity":70,"Duration":907691,"SoundDuration":907691,"Delta":180380878},{"NoteNumber":77,"Velocity":65,"Duration":102564,"SoundDuration":102564,"Delta":180483442},{"NoteNumber":78,"Velocity":65,"Duration":102564,"SoundDuration":102564,"Delta":180586006},{"NoteNumber":79,"Velocity":73,"Duration":99999,"SoundDuration":99999,"Delta":180688570},{"NoteNumber":58,"Velocity":54,"Duration":599999,"SoundDuration":599999,"Delta":180688570},{"NoteNumber":78,"Velocity":68,"Duration":99999,"SoundDuration":99999,"Delta":180788570},{"NoteNumber":79,"Velocity":63,"Duration":100000,"SoundDuration":100000,"Delta":180888570},{"NoteNumber":80,"Velocity":64,"Duration":99999,"SoundDuration":99999,"Delta":180988570},{"NoteNumber":79,"Velocity":61,"Duration":99999,"SoundDuration":99999,"Delta":181088570},{"NoteNumber":80,"Velocity":61,"Duration":99999,"SoundDuration":99999,"Delta":181188570},{"NoteNumber":79,"Velocity":63,"Duration":101781,"SoundDuration":101781,"Delta":181288570},{"NoteNumber":51,"Velocity":54,"Duration":905343,"SoundDuration":905343,"Delta":181288570},{"NoteNumber":82,"Velocity":59,"Duration":101781,"SoundDuration":101781,"Delta":181390352},{"NoteNumber":80,"Velocity":60,"Duration":101781,"SoundDuration":101781,"Delta":181492133},{"NoteNumber":79,"Velocity":63,"Duration":99999,"SoundDuration":99999,"Delta":181593914},{"NoteNumber":58,"Velocity":46,"Duration":599999,"SoundDuration":599999,"Delta":181593914},{"NoteNumber":80,"Velocity":60,"Duration":99999,"SoundDuration":99999,"Delta":181693914},{"NoteNumber":82,"Velocity":60,"Duration":100000,"SoundDuration":100000,"Delta":181793914},{"NoteNumber":84,"Velocity":63,"Duration":99999,"SoundDuration":99999,"Delta":181893914},{"NoteNumber":86,"Velocity":59,"Duration":99999,"SoundDuration":99999,"Delta":181993914},{"NoteNumber":87,"Velocity":59,"Duration":99999,"SoundDuration":99999,"Delta":182093914},{"NoteNumber":89,"Velocity":64,"Duration":110849,"SoundDuration":110849,"Delta":182193914},{"NoteNumber":44,"Velocity":47,"Duration":333690,"SoundDuration":333690,"Delta":182193914},{"NoteNumber":96,"Velocity":59,"Duration":111420,"SoundDuration":111420,"Delta":182304764},{"NoteNumber":94,"Velocity":59,"Duration":111420,"SoundDuration":111420,"Delta":182416185},{"NoteNumber":92,"Velocity":62,"Duration":100571,"SoundDuration":100571,"Delta":182527605},{"NoteNumber":60,"Velocity":41,"Duration":600571,"SoundDuration":600571,"Delta":182527605},{"NoteNumber":56,"Velocity":36,"Duration":600571,"SoundDuration":600571,"Delta":182527605},{"NoteNumber":91,"Velocity":61,"Duration":99999,"SoundDuration":99999,"Delta":182628176},{"NoteNumber":89,"Velocity":60,"Duration":99999,"SoundDuration":99999,"Delta":182728176},{"NoteNumber":87,"Velocity":59,"Duration":100000,"SoundDuration":100000,"Delta":182828176},{"NoteNumber":86,"Velocity":58,"Duration":99999,"SoundDuration":99999,"Delta":182928176},{"NoteNumber":84,"Velocity":57,"Duration":99999,"SoundDuration":99999,"Delta":183028176},{"NoteNumber":82,"Velocity":56,"Duration":102040,"SoundDuration":102040,"Delta":183128176},{"NoteNumber":46,"Velocity":47,"Duration":306121,"SoundDuration":306121,"Delta":183128176},{"NoteNumber":89,"Velocity":55,"Duration":102040,"SoundDuration":102040,"Delta":183230217},{"NoteNumber":87,"Velocity":54,"Duration":102040,"SoundDuration":102040,"Delta":183332258},{"NoteNumber":86,"Velocity":54,"Duration":99999,"SoundDuration":99999,"Delta":183434298},{"NoteNumber":56,"Velocity":36,"Duration":599999,"SoundDuration":599999,"Delta":183434298},{"NoteNumber":62,"Velocity":40,"Duration":599999,"SoundDuration":599999,"Delta":183434298},{"NoteNumber":58,"Velocity":36,"Duration":599999,"SoundDuration":599999,"Delta":183434298},{"NoteNumber":84,"Velocity":53,"Duration":99999,"SoundDuration":99999,"Delta":183534298},{"NoteNumber":82,"Velocity":52,"Duration":100000,"SoundDuration":100000,"Delta":183634298},{"NoteNumber":80,"Velocity":51,"Duration":99999,"SoundDuration":99999,"Delta":183734298},{"NoteNumber":79,"Velocity":50,"Duration":99999,"SoundDuration":99999,"Delta":183834298},{"NoteNumber":77,"Velocity":49,"Duration":99999,"SoundDuration":99999,"Delta":183934298},{"NoteNumber":75,"Velocity":48,"Duration":102040,"SoundDuration":102040,"Delta":184034298},{"NoteNumber":51,"Velocity":40,"Duration":306121,"SoundDuration":306121,"Delta":184034298},{"NoteNumber":79,"Velocity":47,"Duration":102040,"SoundDuration":102040,"Delta":184136339},{"NoteNumber":77,"Velocity":46,"Duration":102040,"SoundDuration":102040,"Delta":184238380},{"NoteNumber":75,"Velocity":45,"Duration":99999,"SoundDuration":99999,"Delta":184340420},{"NoteNumber":63,"Velocity":35,"Duration":599999,"SoundDuration":599999,"Delta":184340420},{"NoteNumber":58,"Velocity":31,"Duration":599999,"SoundDuration":599999,"Delta":184340420},{"NoteNumber":55,"Velocity":31,"Duration":599999,"SoundDuration":599999,"Delta":184340420},{"NoteNumber":74,"Velocity":45,"Duration":99999,"SoundDuration":99999,"Delta":184440420},{"NoteNumber":72,"Velocity":44,"Duration":100000,"SoundDuration":100000,"Delta":184540420},{"NoteNumber":70,"Velocity":43,"Duration":99999,"SoundDuration":99999,"Delta":184640420},{"NoteNumber":68,"Velocity":42,"Duration":99999,"SoundDuration":99999,"Delta":184740420},{"NoteNumber":65,"Velocity":41,"Duration":99999,"SoundDuration":99999,"Delta":184840420},{"NoteNumber":66,"Velocity":40,"Duration":102301,"SoundDuration":102301,"Delta":184940420},{"NoteNumber":39,"Velocity":44,"Duration":906904,"SoundDuration":906904,"Delta":184940420},{"NoteNumber":70,"Velocity":41,"Duration":102301,"SoundDuration":102301,"Delta":185042722},{"NoteNumber":68,"Velocity":41,"Duration":102301,"SoundDuration":102301,"Delta":185145024},{"NoteNumber":66,"Velocity":41,"Duration":99999,"SoundDuration":99999,"Delta":185247325},{"NoteNumber":51,"Velocity":32,"Duration":599999,"SoundDuration":599999,"Delta":185247325},{"NoteNumber":65,"Velocity":41,"Duration":99999,"SoundDuration":99999,"Delta":185347325},{"NoteNumber":63,"Velocity":41,"Duration":100000,"SoundDuration":100000,"Delta":185447325},{"NoteNumber":61,"Velocity":41,"Duration":99999,"SoundDuration":99999,"Delta":185547325},{"NoteNumber":59,"Velocity":41,"Duration":99999,"SoundDuration":99999,"Delta":185647325},{"NoteNumber":58,"Velocity":41,"Duration":99999,"SoundDuration":99999,"Delta":185747325},{"NoteNumber":59,"Velocity":41,"Duration":112994,"SoundDuration":112994,"Delta":185847325},{"NoteNumber":44,"Velocity":42,"Duration":978982,"SoundDuration":978982,"Delta":185847325},{"NoteNumber":63,"Velocity":41,"Duration":112994,"SoundDuration":112994,"Delta":185960320},{"NoteNumber":68,"Velocity":41,"Duration":112994,"SoundDuration":112994,"Delta":186073314},{"NoteNumber":71,"Velocity":44,"Duration":639999,"SoundDuration":639999,"Delta":186186308},{"NoteNumber":56,"Velocity":32,"Duration":639999,"SoundDuration":639999,"Delta":186186308},{"NoteNumber":63,"Velocity":41,"Duration":106666,"SoundDuration":106666,"Delta":186292975},{"NoteNumber":68,"Velocity":41,"Duration":106666,"SoundDuration":106666,"Delta":186399642},{"NoteNumber":66,"Velocity":41,"Duration":106666,"SoundDuration":106666,"Delta":186506308},{"NoteNumber":63,"Velocity":41,"Duration":106666,"SoundDuration":106666,"Delta":186612975},{"NoteNumber":66,"Velocity":41,"Duration":106666,"SoundDuration":106666,"Delta":186719642},{"NoteNumber":65,"Velocity":41,"Duration":99999,"SoundDuration":99999,"Delta":186826308},{"NoteNumber":37,"Velocity":44,"Duration":900000,"SoundDuration":900000,"Delta":186826308},{"NoteNumber":71,"Velocity":41,"Duration":99999,"SoundDuration":99999,"Delta":186926308},{"NoteNumber":70,"Velocity":41,"Duration":100000,"SoundDuration":100000,"Delta":187026308},{"NoteNumber":68,"Velocity":41,"Duration":99999,"SoundDuration":99999,"Delta":187126308},{"NoteNumber":49,"Velocity":32,"Duration":599999,"SoundDuration":599999,"Delta":187126308},{"NoteNumber":66,"Velocity":41,"Duration":99999,"SoundDuration":99999,"Delta":187226308},{"NoteNumber":65,"Velocity":41,"Duration":99999,"SoundDuration":99999,"Delta":187326308},{"NoteNumber":63,"Velocity":41,"Duration":99999,"SoundDuration":99999,"Delta":187426308},{"NoteNumber":61,"Velocity":41,"Duration":100000,"SoundDuration":100000,"Delta":187526308},{"NoteNumber":59,"Velocity":41,"Duration":99999,"SoundDuration":99999,"Delta":187626308},{"NoteNumber":58,"Velocity":41,"Duration":111110,"SoundDuration":111110,"Delta":187726308},{"NoteNumber":42,"Velocity":43,"Duration":965745,"SoundDuration":965745,"Delta":187726308},{"NoteNumber":61,"Velocity":41,"Duration":111110,"SoundDuration":111110,"Delta":187837419},{"NoteNumber":66,"Velocity":41,"Duration":110693,"SoundDuration":110693,"Delta":187948530},{"NoteNumber":70,"Velocity":44,"Duration":632830,"SoundDuration":632830,"Delta":188059223},{"NoteNumber":54,"Velocity":32,"Duration":632830,"SoundDuration":632830,"Delta":188059223},{"NoteNumber":61,"Velocity":41,"Duration":105541,"SoundDuration":105541,"Delta":188164764},{"NoteNumber":66,"Velocity":41,"Duration":105540,"SoundDuration":105540,"Delta":188270305},{"NoteNumber":65,"Velocity":41,"Duration":105541,"SoundDuration":105541,"Delta":188375846},{"NoteNumber":61,"Velocity":41,"Duration":105540,"SoundDuration":105540,"Delta":188481387},{"NoteNumber":65,"Velocity":41,"Duration":105125,"SoundDuration":105125,"Delta":188586928},{"NoteNumber":63,"Velocity":40,"Duration":99999,"SoundDuration":99999,"Delta":188692054},{"NoteNumber":35,"Velocity":44,"Duration":900000,"SoundDuration":900000,"Delta":188692054},{"NoteNumber":70,"Velocity":41,"Duration":99999,"SoundDuration":99999,"Delta":188792054},{"NoteNumber":68,"Velocity":41,"Duration":100000,"SoundDuration":100000,"Delta":188892054},{"NoteNumber":66,"Velocity":41,"Duration":99999,"SoundDuration":99999,"Delta":188992054},{"NoteNumber":47,"Velocity":32,"Duration":599999,"SoundDuration":599999,"Delta":188992054},{"NoteNumber":65,"Velocity":41,"Duration":99999,"SoundDuration":99999,"Delta":189092054},{"NoteNumber":63,"Velocity":41,"Duration":99999,"SoundDuration":99999,"Delta":189192054},{"NoteNumber":61,"Velocity":41,"Duration":99999,"SoundDuration":99999,"Delta":189292054},{"NoteNumber":59,"Velocity":41,"Duration":100000,"SoundDuration":100000,"Delta":189392054},{"NoteNumber":58,"Velocity":41,"Duration":99999,"SoundDuration":99999,"Delta":189492054},{"NoteNumber":56,"Velocity":41,"Duration":114613,"SoundDuration":114613,"Delta":189592054},{"NoteNumber":41,"Velocity":42,"Duration":992488,"SoundDuration":992488,"Delta":189592054},{"NoteNumber":59,"Velocity":41,"Duration":114613,"SoundDuration":114613,"Delta":189706667},{"NoteNumber":65,"Velocity":41,"Duration":114613,"SoundDuration":114613,"Delta":189821281},{"NoteNumber":68,"Velocity":44,"Duration":648648,"SoundDuration":648648,"Delta":189935894},{"NoteNumber":53,"Velocity":32,"Duration":648648,"SoundDuration":648648,"Delta":189935894},{"NoteNumber":59,"Velocity":38,"Duration":108108,"SoundDuration":108108,"Delta":190044002},{"NoteNumber":65,"Velocity":38,"Duration":108107,"SoundDuration":108107,"Delta":190152110},{"NoteNumber":63,"Velocity":41,"Duration":108108,"SoundDuration":108108,"Delta":190260218},{"NoteNumber":59,"Velocity":38,"Duration":108107,"SoundDuration":108107,"Delta":190368326},{"NoteNumber":63,"Velocity":38,"Duration":108108,"SoundDuration":108108,"Delta":190476434},{"NoteNumber":62,"Velocity":41,"Duration":99999,"SoundDuration":99999,"Delta":190584542},{"NoteNumber":34,"Velocity":44,"Duration":900000,"SoundDuration":900000,"Delta":190584542},{"NoteNumber":68,"Velocity":41,"Duration":99999,"SoundDuration":99999,"Delta":190684542},{"NoteNumber":66,"Velocity":41,"Duration":100000,"SoundDuration":100000,"Delta":190784542},{"NoteNumber":65,"Velocity":41,"Duration":99999,"SoundDuration":99999,"Delta":190884542},{"NoteNumber":46,"Velocity":32,"Duration":599999,"SoundDuration":599999,"Delta":190884542},{"NoteNumber":63,"Velocity":37,"Duration":99999,"SoundDuration":99999,"Delta":190984542},{"NoteNumber":62,"Velocity":37,"Duration":99999,"SoundDuration":99999,"Delta":191084542},{"NoteNumber":59,"Velocity":41,"Duration":99999,"SoundDuration":99999,"Delta":191184542},{"NoteNumber":58,"Velocity":37,"Duration":100000,"SoundDuration":100000,"Delta":191284542},{"NoteNumber":56,"Velocity":37,"Duration":99999,"SoundDuration":99999,"Delta":191384542},{"NoteNumber":54,"Velocity":41,"Duration":111110,"SoundDuration":111110,"Delta":191484542},{"NoteNumber":39,"Velocity":43,"Duration":965745,"SoundDuration":965745,"Delta":191484542},{"NoteNumber":58,"Velocity":41,"Duration":111110,"SoundDuration":111110,"Delta":191595653},{"NoteNumber":63,"Velocity":41,"Duration":110693,"SoundDuration":110693,"Delta":191706764},{"NoteNumber":66,"Velocity":44,"Duration":632830,"SoundDuration":632830,"Delta":191817457},{"NoteNumber":51,"Velocity":32,"Duration":632830,"SoundDuration":632830,"Delta":191817457},{"NoteNumber":58,"Velocity":41,"Duration":105541,"SoundDuration":105541,"Delta":191922998},{"NoteNumber":63,"Velocity":41,"Duration":105540,"SoundDuration":105540,"Delta":192028539},{"NoteNumber":61,"Velocity":44,"Duration":105541,"SoundDuration":105541,"Delta":192134080},{"NoteNumber":58,"Velocity":41,"Duration":105540,"SoundDuration":105540,"Delta":192239621},{"NoteNumber":61,"Velocity":41,"Duration":105125,"SoundDuration":105125,"Delta":192345162},{"NoteNumber":59,"Velocity":41,"Duration":111110,"SoundDuration":111110,"Delta":192450288},{"NoteNumber":44,"Velocity":43,"Duration":966161,"SoundDuration":966161,"Delta":192450288},{"NoteNumber":63,"Velocity":41,"Duration":111110,"SoundDuration":111110,"Delta":192561399},{"NoteNumber":68,"Velocity":41,"Duration":110693,"SoundDuration":110693,"Delta":192672510},{"NoteNumber":71,"Velocity":44,"Duration":633246,"SoundDuration":633246,"Delta":192783203},{"NoteNumber":56,"Velocity":32,"Duration":633246,"SoundDuration":633246,"Delta":192783203},{"NoteNumber":63,"Velocity":41,"Duration":105541,"SoundDuration":105541,"Delta":192888744},{"NoteNumber":68,"Velocity":41,"Duration":105540,"SoundDuration":105540,"Delta":192994285},{"NoteNumber":66,"Velocity":44,"Duration":105541,"SoundDuration":105541,"Delta":193099826},{"NoteNumber":63,"Velocity":41,"Duration":105540,"SoundDuration":105540,"Delta":193205367},{"NoteNumber":66,"Velocity":41,"Duration":105541,"SoundDuration":105541,"Delta":193310908},{"NoteNumber":71,"Velocity":48,"Duration":352335,"SoundDuration":352335,"Delta":193416449},{"NoteNumber":46,"Velocity":41,"Duration":1058217,"SoundDuration":1058217,"Delta":193416449},{"NoteNumber":65,"Velocity":41,"Duration":117647,"SoundDuration":117647,"Delta":193533491},{"NoteNumber":62,"Velocity":41,"Duration":117647,"SoundDuration":117647,"Delta":193651138},{"NoteNumber":70,"Velocity":47,"Duration":352940,"SoundDuration":352940,"Delta":193768785},{"NoteNumber":58,"Velocity":41,"Duration":1615160,"SoundDuration":1615160,"Delta":193768785},{"NoteNumber":65,"Velocity":41,"Duration":117646,"SoundDuration":117646,"Delta":193886432},{"NoteNumber":62,"Velocity":41,"Duration":117647,"SoundDuration":117647,"Delta":194004079},{"NoteNumber":74,"Velocity":47,"Duration":352941,"SoundDuration":352941,"Delta":194121726},{"NoteNumber":68,"Velocity":41,"Duration":117647,"SoundDuration":117647,"Delta":194239373},{"NoteNumber":65,"Velocity":41,"Duration":117647,"SoundDuration":117647,"Delta":194357020},{"NoteNumber":75,"Velocity":47,"Duration":103092,"SoundDuration":103092,"Delta":194474667},{"NoteNumber":51,"Velocity":40,"Duration":909278,"SoundDuration":909278,"Delta":194474667},{"NoteNumber":78,"Velocity":39,"Duration":103092,"SoundDuration":103092,"Delta":194577759},{"NoteNumber":77,"Velocity":39,"Duration":103092,"SoundDuration":103092,"Delta":194680852},{"NoteNumber":75,"Velocity":39,"Duration":99999,"SoundDuration":99999,"Delta":194783945},{"NoteNumber":73,"Velocity":39,"Duration":99999,"SoundDuration":99999,"Delta":194883945},{"NoteNumber":71,"Velocity":39,"Duration":100000,"SoundDuration":100000,"Delta":194983945},{"NoteNumber":70,"Velocity":39,"Duration":99999,"SoundDuration":99999,"Delta":195083945},{"NoteNumber":68,"Velocity":39,"Duration":99999,"SoundDuration":99999,"Delta":195183945},{"NoteNumber":65,"Velocity":39,"Duration":99999,"SoundDuration":99999,"Delta":195283945},{"NoteNumber":66,"Velocity":39,"Duration":99999,"SoundDuration":99999,"Delta":195383945},{"NoteNumber":42,"Velocity":41,"Duration":900000,"SoundDuration":900000,"Delta":195383945},{"NoteNumber":70,"Velocity":39,"Duration":100000,"SoundDuration":100000,"Delta":195483945},{"NoteNumber":68,"Velocity":39,"Duration":99999,"SoundDuration":99999,"Delta":195583945},{"NoteNumber":66,"Velocity":39,"Duration":99999,"SoundDuration":99999,"Delta":195683945},{"NoteNumber":49,"Velocity":33,"Duration":599999,"SoundDuration":599999,"Delta":195683945},{"NoteNumber":65,"Velocity":39,"Duration":99999,"SoundDuration":99999,"Delta":195783945},{"NoteNumber":63,"Velocity":39,"Duration":99999,"SoundDuration":99999,"Delta":195883945},{"NoteNumber":61,"Velocity":39,"Duration":100000,"SoundDuration":100000,"Delta":195983945},{"NoteNumber":59,"Velocity":39,"Duration":99999,"SoundDuration":99999,"Delta":196083945},{"NoteNumber":58,"Velocity":40,"Duration":99999,"SoundDuration":99999,"Delta":196183945},{"NoteNumber":59,"Velocity":40,"Duration":111110,"SoundDuration":111110,"Delta":196283945},{"NoteNumber":44,"Velocity":39,"Duration":1004216,"SoundDuration":1004216,"Delta":196283945},{"NoteNumber":62,"Velocity":40,"Duration":111110,"SoundDuration":111110,"Delta":196395056},{"NoteNumber":65,"Velocity":40,"Duration":111111,"SoundDuration":111111,"Delta":196506167},{"NoteNumber":71,"Velocity":44,"Duration":670883,"SoundDuration":670883,"Delta":196617278},{"NoteNumber":50,"Velocity":53,"Duration":353637,"SoundDuration":353637,"Delta":196617278},{"NoteNumber":65,"Velocity":38,"Duration":117994,"SoundDuration":117994,"Delta":196734927},{"NoteNumber":62,"Velocity":38,"Duration":117993,"SoundDuration":117993,"Delta":196852921},{"NoteNumber":65,"Velocity":40,"Duration":106163,"SoundDuration":106163,"Delta":196970915},{"NoteNumber":49,"Velocity":33,"Duration":317245,"SoundDuration":317245,"Delta":196970915},{"NoteNumber":61,"Velocity":38,"Duration":105540,"SoundDuration":105540,"Delta":197077079},{"NoteNumber":59,"Velocity":38,"Duration":105541,"SoundDuration":105541,"Delta":197182620},{"NoteNumber":58,"Velocity":40,"Duration":100277,"SoundDuration":100277,"Delta":197288161},{"NoteNumber":42,"Velocity":39,"Duration":900277,"SoundDuration":900277,"Delta":197288161},{"NoteNumber":70,"Velocity":40,"Duration":99999,"SoundDuration":99999,"Delta":197388438},{"NoteNumber":68,"Velocity":40,"Duration":99999,"SoundDuration":99999,"Delta":197488438},{"NoteNumber":66,"Velocity":40,"Duration":100000,"SoundDuration":100000,"Delta":197588438},{"NoteNumber":49,"Velocity":33,"Duration":600000,"SoundDuration":600000,"Delta":197588438},{"NoteNumber":65,"Velocity":36,"Duration":99999,"SoundDuration":99999,"Delta":197688438},{"NoteNumber":63,"Velocity":36,"Duration":99999,"SoundDuration":99999,"Delta":197788438},{"NoteNumber":61,"Velocity":40,"Duration":99999,"SoundDuration":99999,"Delta":197888438},{"NoteNumber":59,"Velocity":37,"Duration":99999,"SoundDuration":99999,"Delta":197988438},{"NoteNumber":58,"Velocity":37,"Duration":100000,"SoundDuration":100000,"Delta":198088438},{"NoteNumber":59,"Velocity":39,"Duration":111110,"SoundDuration":111110,"Delta":198188438},{"NoteNumber":44,"Velocity":40,"Duration":1002759,"SoundDuration":1002759,"Delta":198188438},{"NoteNumber":62,"Velocity":39,"Duration":111110,"SoundDuration":111110,"Delta":198299549},{"NoteNumber":65,"Velocity":39,"Duration":111111,"SoundDuration":111111,"Delta":198410660},{"NoteNumber":71,"Velocity":45,"Duration":669426,"SoundDuration":669426,"Delta":198521771},{"NoteNumber":50,"Velocity":55,"Duration":353637,"SoundDuration":353637,"Delta":198521771},{"NoteNumber":65,"Velocity":36,"Duration":117994,"SoundDuration":117994,"Delta":198639421},{"NoteNumber":62,"Velocity":36,"Duration":117994,"SoundDuration":117994,"Delta":198757415},{"NoteNumber":65,"Velocity":40,"Duration":105263,"SoundDuration":105263,"Delta":198875409},{"NoteNumber":49,"Velocity":33,"Duration":315788,"SoundDuration":315788,"Delta":198875409},{"NoteNumber":61,"Velocity":38,"Duration":105262,"SoundDuration":105262,"Delta":198980672},{"NoteNumber":59,"Velocity":38,"Duration":105263,"SoundDuration":105263,"Delta":199085935},{"NoteNumber":61,"Velocity":40,"Duration":111110,"SoundDuration":111110,"Delta":199191198},{"NoteNumber":46,"Velocity":39,"Duration":964472,"SoundDuration":964472,"Delta":199191198},{"NoteNumber":66,"Velocity":40,"Duration":111110,"SoundDuration":111110,"Delta":199302309},{"NoteNumber":70,"Velocity":40,"Duration":110672,"SoundDuration":110672,"Delta":199413420},{"NoteNumber":73,"Velocity":45,"Duration":631577,"SoundDuration":631577,"Delta":199524092},{"NoteNumber":54,"Velocity":43,"Duration":965839,"SoundDuration":965839,"Delta":199524092},{"NoteNumber":70,"Velocity":37,"Duration":105262,"SoundDuration":105262,"Delta":199629355},{"NoteNumber":66,"Velocity":37,"Duration":105263,"SoundDuration":105263,"Delta":199734618},{"NoteNumber":65,"Velocity":40,"Duration":105263,"SoundDuration":105263,"Delta":199839881},{"NoteNumber":66,"Velocity":38,"Duration":105263,"SoundDuration":105263,"Delta":199945144},{"NoteNumber":64,"Velocity":38,"Duration":105262,"SoundDuration":105262,"Delta":200050407},{"NoteNumber":63,"Velocity":39,"Duration":111420,"SoundDuration":111420,"Delta":200155670},{"NoteNumber":47,"Velocity":40,"Duration":966147,"SoundDuration":966147,"Delta":200155670},{"NoteNumber":68,"Velocity":39,"Duration":111420,"SoundDuration":111420,"Delta":200267091},{"NoteNumber":71,"Velocity":39,"Duration":111420,"SoundDuration":111420,"Delta":200378512},{"NoteNumber":75,"Velocity":46,"Duration":631885,"SoundDuration":631885,"Delta":200489932},{"NoteNumber":56,"Velocity":43,"Duration":965218,"SoundDuration":965218,"Delta":200489932},{"NoteNumber":71,"Velocity":37,"Duration":105263,"SoundDuration":105263,"Delta":200595503},{"NoteNumber":68,"Velocity":37,"Duration":105263,"SoundDuration":105263,"Delta":200700766},{"NoteNumber":67,"Velocity":40,"Duration":105263,"SoundDuration":105263,"Delta":200806029},{"NoteNumber":68,"Velocity":37,"Duration":105262,"SoundDuration":105262,"Delta":200911292},{"NoteNumber":66,"Velocity":37,"Duration":105263,"SoundDuration":105263,"Delta":201016555},{"NoteNumber":65,"Velocity":40,"Duration":111110,"SoundDuration":111110,"Delta":201121818},{"NoteNumber":49,"Velocity":43,"Duration":933333,"SoundDuration":933333,"Delta":201121818},{"NoteNumber":66,"Velocity":40,"Duration":111110,"SoundDuration":111110,"Delta":201232929},{"NoteNumber":67,"Velocity":40,"Duration":111111,"SoundDuration":111111,"Delta":201344040},{"NoteNumber":68,"Velocity":40,"Duration":99999,"SoundDuration":99999,"Delta":201455151},{"NoteNumber":59,"Velocity":37,"Duration":599999,"SoundDuration":599999,"Delta":201455151},{"NoteNumber":70,"Velocity":40,"Duration":99999,"SoundDuration":99999,"Delta":201555151},{"NoteNumber":71,"Velocity":40,"Duration":100000,"SoundDuration":100000,"Delta":201655151},{"NoteNumber":73,"Velocity":40,"Duration":99999,"SoundDuration":99999,"Delta":201755151},{"NoteNumber":75,"Velocity":40,"Duration":99999,"SoundDuration":99999,"Delta":201855151},{"NoteNumber":77,"Velocity":40,"Duration":99999,"SoundDuration":99999,"Delta":201955151},{"NoteNumber":78,"Velocity":39,"Duration":107238,"SoundDuration":107238,"Delta":202055151},{"NoteNumber":58,"Velocity":43,"Duration":621716,"SoundDuration":621716,"Delta":202055151},{"NoteNumber":54,"Velocity":38,"Duration":621716,"SoundDuration":621716,"Delta":202055151},{"NoteNumber":82,"Velocity":39,"Duration":107238,"SoundDuration":107238,"Delta":202162390},{"NoteNumber":80,"Velocity":40,"Duration":107238,"SoundDuration":107238,"Delta":202269629},{"NoteNumber":78,"Velocity":40,"Duration":99999,"SoundDuration":99999,"Delta":202376867},{"NoteNumber":77,"Velocity":40,"Duration":99999,"SoundDuration":99999,"Delta":202476867},{"NoteNumber":75,"Velocity":40,"Duration":100000,"SoundDuration":100000,"Delta":202576867},{"NoteNumber":73,"Velocity":40,"Duration":99999,"SoundDuration":99999,"Delta":202676867},{"NoteNumber":71,"Velocity":40,"Duration":99999,"SoundDuration":99999,"Delta":202776867},{"NoteNumber":70,"Velocity":40,"Duration":99999,"SoundDuration":99999,"Delta":202876867},{"NoteNumber":68,"Velocity":40,"Duration":110849,"SoundDuration":110849,"Delta":202976867},{"NoteNumber":46,"Velocity":43,"Duration":933690,"SoundDuration":933690,"Delta":202976867},{"NoteNumber":71,"Velocity":40,"Duration":111420,"SoundDuration":111420,"Delta":203087717},{"NoteNumber":70,"Velocity":40,"Duration":111420,"SoundDuration":111420,"Delta":203199138},{"NoteNumber":68,"Velocity":38,"Duration":99999,"SoundDuration":99999,"Delta":203310558},{"NoteNumber":59,"Velocity":33,"Duration":599999,"SoundDuration":599999,"Delta":203310558},{"NoteNumber":56,"Velocity":29,"Duration":599999,"SoundDuration":599999,"Delta":203310558},{"NoteNumber":53,"Velocity":29,"Duration":599999,"SoundDuration":599999,"Delta":203310558},{"NoteNumber":66,"Velocity":37,"Duration":99999,"SoundDuration":99999,"Delta":203410558},{"NoteNumber":65,"Velocity":35,"Duration":100000,"SoundDuration":100000,"Delta":203510558},{"NoteNumber":63,"Velocity":40,"Duration":99999,"SoundDuration":99999,"Delta":203610558},{"NoteNumber":62,"Velocity":33,"Duration":99999,"SoundDuration":99999,"Delta":203710558},{"NoteNumber":65,"Velocity":33,"Duration":99999,"SoundDuration":99999,"Delta":203810558},{"NoteNumber":68,"Velocity":33,"Duration":110849,"SoundDuration":110849,"Delta":203910558},{"NoteNumber":46,"Velocity":43,"Duration":932834,"SoundDuration":932834,"Delta":203910558},{"NoteNumber":71,"Velocity":33,"Duration":111420,"SoundDuration":111420,"Delta":204021408},{"NoteNumber":70,"Velocity":33,"Duration":110564,"SoundDuration":110564,"Delta":204132828},{"NoteNumber":68,"Velocity":33,"Duration":99999,"SoundDuration":99999,"Delta":204243393},{"NoteNumber":59,"Velocity":32,"Duration":599999,"SoundDuration":599999,"Delta":204243393},{"NoteNumber":56,"Velocity":28,"Duration":599999,"SoundDuration":599999,"Delta":204243393},{"NoteNumber":53,"Velocity":28,"Duration":599999,"SoundDuration":599999,"Delta":204243393},{"NoteNumber":66,"Velocity":33,"Duration":100000,"SoundDuration":100000,"Delta":204343393},{"NoteNumber":65,"Velocity":33,"Duration":99999,"SoundDuration":99999,"Delta":204443393},{"NoteNumber":63,"Velocity":40,"Duration":99999,"SoundDuration":99999,"Delta":204543393},{"NoteNumber":62,"Velocity":33,"Duration":99999,"SoundDuration":99999,"Delta":204643393},{"NoteNumber":65,"Velocity":33,"Duration":99999,"SoundDuration":99999,"Delta":204743393},{"NoteNumber":68,"Velocity":32,"Duration":116436,"SoundDuration":116436,"Delta":204843393},{"NoteNumber":46,"Velocity":43,"Duration":1851040,"SoundDuration":1851040,"Delta":204843393},{"NoteNumber":71,"Velocity":32,"Duration":117301,"SoundDuration":117301,"Delta":204959829},{"NoteNumber":70,"Velocity":32,"Duration":117301,"SoundDuration":117301,"Delta":205077131},{"NoteNumber":68,"Velocity":32,"Duration":99999,"SoundDuration":99999,"Delta":205194433},{"NoteNumber":53,"Velocity":28,"Duration":1500000,"SoundDuration":1500000,"Delta":205194433},{"NoteNumber":56,"Velocity":28,"Duration":1500000,"SoundDuration":1500000,"Delta":205194433},{"NoteNumber":59,"Velocity":32,"Duration":1500000,"SoundDuration":1500000,"Delta":205194433},{"NoteNumber":66,"Velocity":32,"Duration":99999,"SoundDuration":99999,"Delta":205294433},{"NoteNumber":65,"Velocity":32,"Duration":100000,"SoundDuration":100000,"Delta":205394433},{"NoteNumber":63,"Velocity":39,"Duration":99999,"SoundDuration":99999,"Delta":205494433},{"NoteNumber":62,"Velocity":32,"Duration":99999,"SoundDuration":99999,"Delta":205594433},{"NoteNumber":65,"Velocity":32,"Duration":99999,"SoundDuration":99999,"Delta":205694433},{"NoteNumber":68,"Velocity":32,"Duration":99999,"SoundDuration":99999,"Delta":205794433},{"NoteNumber":71,"Velocity":34,"Duration":100000,"SoundDuration":100000,"Delta":205894433},{"NoteNumber":74,"Velocity":36,"Duration":99999,"SoundDuration":99999,"Delta":205994433},{"NoteNumber":71,"Velocity":39,"Duration":99999,"SoundDuration":99999,"Delta":206094433},{"NoteNumber":74,"Velocity":40,"Duration":99999,"SoundDuration":99999,"Delta":206194433},{"NoteNumber":77,"Velocity":41,"Duration":99999,"SoundDuration":99999,"Delta":206294433},{"NoteNumber":74,"Velocity":43,"Duration":100000,"SoundDuration":100000,"Delta":206394433},{"NoteNumber":77,"Velocity":45,"Duration":99999,"SoundDuration":99999,"Delta":206494433},{"NoteNumber":78,"Velocity":46,"Duration":99999,"SoundDuration":99999,"Delta":206594433},{"NoteNumber":80,"Velocity":46,"Duration":110263,"SoundDuration":110263,"Delta":206694433},{"NoteNumber":58,"Velocity":43,"Duration":931892,"SoundDuration":931892,"Delta":206694433},{"NoteNumber":83,"Velocity":48,"Duration":110803,"SoundDuration":110803,"Delta":206804697},{"NoteNumber":82,"Velocity":45,"Duration":109993,"SoundDuration":109993,"Delta":206915500},{"NoteNumber":80,"Velocity":48,"Duration":99999,"SoundDuration":99999,"Delta":207025493},{"NoteNumber":71,"Velocity":32,"Duration":600833,"SoundDuration":600833,"Delta":207025493},{"NoteNumber":68,"Velocity":28,"Duration":600833,"SoundDuration":600833,"Delta":207025493},{"NoteNumber":65,"Velocity":28,"Duration":600833,"SoundDuration":600833,"Delta":207025493},{"NoteNumber":78,"Velocity":46,"Duration":100000,"SoundDuration":100000,"Delta":207125493},{"NoteNumber":77,"Velocity":46,"Duration":99999,"SoundDuration":99999,"Delta":207225493},{"NoteNumber":75,"Velocity":53,"Duration":99999,"SoundDuration":99999,"Delta":207325493},{"NoteNumber":74,"Velocity":47,"Duration":99999,"SoundDuration":99999,"Delta":207425493},{"NoteNumber":77,"Velocity":47,"Duration":100833,"SoundDuration":100833,"Delta":207525493},{"NoteNumber":80,"Velocity":47,"Duration":111110,"SoundDuration":111110,"Delta":207626326},{"NoteNumber":58,"Velocity":43,"Duration":2876920,"SoundDuration":2876920,"Delta":207626326},{"NoteNumber":83,"Velocity":44,"Duration":111111,"SoundDuration":111111,"Delta":207737437},{"NoteNumber":82,"Velocity":44,"Duration":111110,"SoundDuration":111110,"Delta":207848548},{"NoteNumber":80,"Velocity":47,"Duration":99999,"SoundDuration":99999,"Delta":207959659},{"NoteNumber":71,"Velocity":32,"Duration":1473815,"SoundDuration":1473815,"Delta":207959659},{"NoteNumber":68,"Velocity":28,"Duration":2543587,"SoundDuration":2543587,"Delta":207959659},{"NoteNumber":65,"Velocity":28,"Duration":2543587,"SoundDuration":2543587,"Delta":207959659},{"NoteNumber":78,"Velocity":44,"Duration":99999,"SoundDuration":99999,"Delta":208059659},{"NoteNumber":77,"Velocity":44,"Duration":100000,"SoundDuration":100000,"Delta":208159659},{"NoteNumber":75,"Velocity":52,"Duration":99999,"SoundDuration":99999,"Delta":208259659},{"NoteNumber":74,"Velocity":48,"Duration":99999,"SoundDuration":99999,"Delta":208359659},{"NoteNumber":77,"Velocity":48,"Duration":99999,"SoundDuration":99999,"Delta":208459659},{"NoteNumber":80,"Velocity":48,"Duration":97087,"SoundDuration":97087,"Delta":208559659},{"NoteNumber":83,"Velocity":48,"Duration":97087,"SoundDuration":97087,"Delta":208656747},{"NoteNumber":80,"Velocity":51,"Duration":97087,"SoundDuration":97087,"Delta":208753834},{"NoteNumber":83,"Velocity":53,"Duration":97087,"SoundDuration":97087,"Delta":208850921},{"NoteNumber":80,"Velocity":54,"Duration":97087,"SoundDuration":97087,"Delta":208948009},{"NoteNumber":83,"Velocity":56,"Duration":97087,"SoundDuration":97087,"Delta":209045096},{"NoteNumber":80,"Velocity":57,"Duration":97087,"SoundDuration":97087,"Delta":209142183},{"NoteNumber":83,"Velocity":60,"Duration":97087,"SoundDuration":97087,"Delta":209239271},{"NoteNumber":80,"Velocity":61,"Duration":97116,"SoundDuration":97116,"Delta":209336358},{"NoteNumber":82,"Velocity":62,"Duration":99515,"SoundDuration":99515,"Delta":209433475},{"NoteNumber":70,"Velocity":43,"Duration":1069771,"SoundDuration":1069771,"Delta":209433475},{"NoteNumber":80,"Velocity":58,"Duration":103405,"SoundDuration":103405,"Delta":209532990},{"NoteNumber":82,"Velocity":54,"Duration":107649,"SoundDuration":107649,"Delta":209636396},{"NoteNumber":80,"Velocity":50,"Duration":112256,"SoundDuration":112256,"Delta":209744045},{"NoteNumber":82,"Velocity":46,"Duration":117323,"SoundDuration":117323,"Delta":209856302},{"NoteNumber":80,"Velocity":42,"Duration":122723,"SoundDuration":122723,"Delta":209973625},{"NoteNumber":82,"Velocity":38,"Duration":128745,"SoundDuration":128745,"Delta":210096349},{"NoteNumber":80,"Velocity":34,"Duration":135390,"SoundDuration":135390,"Delta":210225094},{"NoteNumber":82,"Velocity":30,"Duration":142762,"SoundDuration":142762,"Delta":210360485},{"NoteNumber":79,"Velocity":48,"Duration":124649,"SoundDuration":124649,"Delta":210503247},{"NoteNumber":51,"Velocity":41,"Duration":974649,"SoundDuration":974649,"Delta":210503247},{"NoteNumber":82,"Velocity":44,"Duration":125000,"SoundDuration":125000,"Delta":210627897},{"NoteNumber":80,"Velocity":40,"Duration":125000,"SoundDuration":125000,"Delta":210752897},{"NoteNumber":79,"Velocity":48,"Duration":99999,"SoundDuration":99999,"Delta":210877897},{"NoteNumber":58,"Velocity":30,"Duration":599999,"SoundDuration":599999,"Delta":210877897},{"NoteNumber":77,"Velocity":45,"Duration":99999,"SoundDuration":99999,"Delta":210977897},{"NoteNumber":75,"Velocity":41,"Duration":100000,"SoundDuration":100000,"Delta":211077897},{"NoteNumber":74,"Velocity":48,"Duration":99999,"SoundDuration":99999,"Delta":211177897},{"NoteNumber":72,"Velocity":45,"Duration":99999,"SoundDuration":99999,"Delta":211277897},{"NoteNumber":70,"Velocity":41,"Duration":99999,"SoundDuration":99999,"Delta":211377897},{"NoteNumber":68,"Velocity":48,"Duration":102040,"SoundDuration":102040,"Delta":211477897},{"NoteNumber":53,"Velocity":41,"Duration":906121,"SoundDuration":906121,"Delta":211477897},{"NoteNumber":67,"Velocity":44,"Duration":102040,"SoundDuration":102040,"Delta":211579937},{"NoteNumber":65,"Velocity":41,"Duration":102040,"SoundDuration":102040,"Delta":211681978},{"NoteNumber":63,"Velocity":48,"Duration":99999,"SoundDuration":99999,"Delta":211784019},{"NoteNumber":58,"Velocity":32,"Duration":296875,"SoundDuration":296875,"Delta":211784019},{"NoteNumber":62,"Velocity":45,"Duration":99999,"SoundDuration":99999,"Delta":211884019},{"NoteNumber":60,"Velocity":42,"Duration":100000,"SoundDuration":100000,"Delta":211984019},{"NoteNumber":58,"Velocity":48,"Duration":299999,"SoundDuration":299999,"Delta":212084019},{"NoteNumber":60,"Velocity":44,"Duration":99999,"SoundDuration":99999,"Delta":212184019},{"NoteNumber":62,"Velocity":42,"Duration":99999,"SoundDuration":99999,"Delta":212284019},{"NoteNumber":63,"Velocity":48,"Duration":102301,"SoundDuration":102301,"Delta":212384019},{"NoteNumber":55,"Velocity":41,"Duration":906904,"SoundDuration":906904,"Delta":212384019},{"NoteNumber":62,"Velocity":44,"Duration":102301,"SoundDuration":102301,"Delta":212486320},{"NoteNumber":63,"Velocity":44,"Duration":102301,"SoundDuration":102301,"Delta":212588622},{"NoteNumber":64,"Velocity":51,"Duration":99999,"SoundDuration":99999,"Delta":212690924},{"NoteNumber":58,"Velocity":32,"Duration":599999,"SoundDuration":599999,"Delta":212690924},{"NoteNumber":63,"Velocity":48,"Duration":99999,"SoundDuration":99999,"Delta":212790924},{"NoteNumber":64,"Velocity":48,"Duration":100000,"SoundDuration":100000,"Delta":212890924},{"NoteNumber":65,"Velocity":55,"Duration":99999,"SoundDuration":99999,"Delta":212990924},{"NoteNumber":64,"Velocity":52,"Duration":99999,"SoundDuration":99999,"Delta":213090924},{"NoteNumber":65,"Velocity":52,"Duration":99999,"SoundDuration":99999,"Delta":213190924},{"NoteNumber":66,"Velocity":58,"Duration":106666,"SoundDuration":106666,"Delta":213290924},{"NoteNumber":50,"Velocity":41,"Duration":919999,"SoundDuration":919999,"Delta":213290924},{"NoteNumber":65,"Velocity":52,"Duration":106666,"SoundDuration":106666,"Delta":213397590},{"NoteNumber":66,"Velocity":48,"Duration":106666,"SoundDuration":106666,"Delta":213504257},{"NoteNumber":67,"Velocity":56,"Duration":99999,"SoundDuration":99999,"Delta":213610924},{"NoteNumber":58,"Velocity":32,"Duration":599999,"SoundDuration":599999,"Delta":213610924},{"NoteNumber":66,"Velocity":53,"Duration":99999,"SoundDuration":99999,"Delta":213710924},{"NoteNumber":67,"Velocity":48,"Duration":100000,"SoundDuration":100000,"Delta":213810924},{"NoteNumber":68,"Velocity":48,"Duration":99999,"SoundDuration":99999,"Delta":213910924},{"NoteNumber":67,"Velocity":46,"Duration":99999,"SoundDuration":99999,"Delta":214010924},{"NoteNumber":68,"Velocity":46,"Duration":99999,"SoundDuration":99999,"Delta":214110924},{"NoteNumber":67,"Velocity":48,"Duration":102040,"SoundDuration":102040,"Delta":214210924},{"NoteNumber":51,"Velocity":40,"Duration":906121,"SoundDuration":906121,"Delta":214210924},{"NoteNumber":70,"Velocity":45,"Duration":102040,"SoundDuration":102040,"Delta":214312964},{"NoteNumber":68,"Velocity":45,"Duration":102040,"SoundDuration":102040,"Delta":214415005},{"NoteNumber":67,"Velocity":48,"Duration":99999,"SoundDuration":99999,"Delta":214517046},{"NoteNumber":58,"Velocity":31,"Duration":599999,"SoundDuration":599999,"Delta":214517046},{"NoteNumber":68,"Velocity":45,"Duration":99999,"SoundDuration":99999,"Delta":214617046},{"NoteNumber":70,"Velocity":45,"Duration":100000,"SoundDuration":100000,"Delta":214717046},{"NoteNumber":72,"Velocity":48,"Duration":99999,"SoundDuration":99999,"Delta":214817046},{"NoteNumber":74,"Velocity":45,"Duration":99999,"SoundDuration":99999,"Delta":214917046},{"NoteNumber":75,"Velocity":45,"Duration":99999,"SoundDuration":99999,"Delta":215017046},{"NoteNumber":77,"Velocity":48,"Duration":102040,"SoundDuration":102040,"Delta":215117046},{"NoteNumber":44,"Velocity":41,"Duration":306121,"SoundDuration":306121,"Delta":215117046},{"NoteNumber":84,"Velocity":50,"Duration":102040,"SoundDuration":102040,"Delta":215219086},{"NoteNumber":82,"Velocity":45,"Duration":102040,"SoundDuration":102040,"Delta":215321127},{"NoteNumber":80,"Velocity":49,"Duration":99999,"SoundDuration":99999,"Delta":215423168},{"NoteNumber":60,"Velocity":32,"Duration":599999,"SoundDuration":599999,"Delta":215423168},{"NoteNumber":56,"Velocity":28,"Duration":599999,"SoundDuration":599999,"Delta":215423168},{"NoteNumber":79,"Velocity":46,"Duration":99999,"SoundDuration":99999,"Delta":215523168},{"NoteNumber":77,"Velocity":46,"Duration":100000,"SoundDuration":100000,"Delta":215623168},{"NoteNumber":75,"Velocity":48,"Duration":99999,"SoundDuration":99999,"Delta":215723168},{"NoteNumber":74,"Velocity":45,"Duration":99999,"SoundDuration":99999,"Delta":215823168},{"NoteNumber":72,"Velocity":45,"Duration":99999,"SoundDuration":99999,"Delta":215923168},{"NoteNumber":74,"Velocity":48,"Duration":102301,"SoundDuration":102301,"Delta":216023168},{"NoteNumber":46,"Velocity":41,"Duration":306905,"SoundDuration":306905,"Delta":216023168},{"NoteNumber":77,"Velocity":45,"Duration":102301,"SoundDuration":102301,"Delta":216125469},{"NoteNumber":75,"Velocity":45,"Duration":102301,"SoundDuration":102301,"Delta":216227771},{"NoteNumber":74,"Velocity":49,"Duration":99999,"SoundDuration":99999,"Delta":216330073},{"NoteNumber":56,"Velocity":28,"Duration":599999,"SoundDuration":599999,"Delta":216330073},{"NoteNumber":65,"Velocity":32,"Duration":599999,"SoundDuration":599999,"Delta":216330073},{"NoteNumber":58,"Velocity":28,"Duration":599999,"SoundDuration":599999,"Delta":216330073},{"NoteNumber":75,"Velocity":47,"Duration":99999,"SoundDuration":99999,"Delta":216430073},{"NoteNumber":77,"Velocity":47,"Duration":100000,"SoundDuration":100000,"Delta":216530073},{"NoteNumber":79,"Velocity":53,"Duration":99999,"SoundDuration":99999,"Delta":216630073},{"NoteNumber":80,"Velocity":50,"Duration":99999,"SoundDuration":99999,"Delta":216730073},{"NoteNumber":82,"Velocity":50,"Duration":99999,"SoundDuration":99999,"Delta":216830073},{"NoteNumber":75,"Velocity":55,"Duration":101522,"SoundDuration":101522,"Delta":216930073},{"NoteNumber":51,"Velocity":45,"Duration":304378,"SoundDuration":304378,"Delta":216930073},{"NoteNumber":77,"Velocity":52,"Duration":101523,"SoundDuration":101523,"Delta":217031596},{"NoteNumber":79,"Velocity":52,"Duration":101332,"SoundDuration":101332,"Delta":217133119},{"NoteNumber":80,"Velocity":58,"Duration":100000,"SoundDuration":100000,"Delta":217234451},{"NoteNumber":63,"Velocity":36,"Duration":599999,"SoundDuration":599999,"Delta":217234451},{"NoteNumber":58,"Velocity":32,"Duration":599999,"SoundDuration":599999,"Delta":217234451},{"NoteNumber":55,"Velocity":32,"Duration":599999,"SoundDuration":599999,"Delta":217234451},{"NoteNumber":82,"Velocity":54,"Duration":99999,"SoundDuration":99999,"Delta":217334451},{"NoteNumber":84,"Velocity":54,"Duration":99999,"SoundDuration":99999,"Delta":217434451},{"NoteNumber":86,"Velocity":61,"Duration":99999,"SoundDuration":99999,"Delta":217534451},{"NoteNumber":87,"Velocity":59,"Duration":99999,"SoundDuration":99999,"Delta":217634451},{"NoteNumber":89,"Velocity":59,"Duration":99999,"SoundDuration":99999,"Delta":217734451},{"NoteNumber":91,"Velocity":64,"Duration":111420,"SoundDuration":111420,"Delta":217834451},{"NoteNumber":51,"Velocity":44,"Duration":935766,"SoundDuration":935766,"Delta":217834451},{"NoteNumber":94,"Velocity":62,"Duration":111420,"SoundDuration":111420,"Delta":217945872},{"NoteNumber":92,"Velocity":58,"Duration":111420,"SoundDuration":111420,"Delta":218057293},{"NoteNumber":91,"Velocity":64,"Duration":100250,"SoundDuration":100250,"Delta":218168713},{"NoteNumber":58,"Velocity":35,"Duration":601504,"SoundDuration":601504,"Delta":218168713},{"NoteNumber":89,"Velocity":62,"Duration":100250,"SoundDuration":100250,"Delta":218268964},{"NoteNumber":87,"Velocity":58,"Duration":100250,"SoundDuration":100250,"Delta":218369215},{"NoteNumber":86,"Velocity":62,"Duration":100250,"SoundDuration":100250,"Delta":218469465},{"NoteNumber":84,"Velocity":56,"Duration":100250,"SoundDuration":100250,"Delta":218569716},{"NoteNumber":82,"Velocity":56,"Duration":100250,"SoundDuration":100250,"Delta":218669967},{"NoteNumber":80,"Velocity":64,"Duration":102040,"SoundDuration":102040,"Delta":218770217},{"NoteNumber":53,"Velocity":42,"Duration":906121,"SoundDuration":906121,"Delta":218770217},{"NoteNumber":79,"Velocity":63,"Duration":102040,"SoundDuration":102040,"Delta":218872258},{"NoteNumber":77,"Velocity":61,"Duration":102040,"SoundDuration":102040,"Delta":218974299},{"NoteNumber":75,"Velocity":59,"Duration":99999,"SoundDuration":99999,"Delta":219076339},{"NoteNumber":58,"Velocity":34,"Duration":599999,"SoundDuration":599999,"Delta":219076339},{"NoteNumber":74,"Velocity":57,"Duration":99999,"SoundDuration":99999,"Delta":219176339},{"NoteNumber":72,"Velocity":55,"Duration":100000,"SoundDuration":100000,"Delta":219276339},{"NoteNumber":70,"Velocity":54,"Duration":99999,"SoundDuration":99999,"Delta":219376339},{"NoteNumber":72,"Velocity":52,"Duration":99999,"SoundDuration":99999,"Delta":219476339},{"NoteNumber":74,"Velocity":50,"Duration":99999,"SoundDuration":99999,"Delta":219576339},{"NoteNumber":75,"Velocity":48,"Duration":102301,"SoundDuration":102301,"Delta":219676339},{"NoteNumber":55,"Velocity":40,"Duration":906904,"SoundDuration":906904,"Delta":219676339},{"NoteNumber":74,"Velocity":48,"Duration":102301,"SoundDuration":102301,"Delta":219778641},{"NoteNumber":75,"Velocity":48,"Duration":102301,"SoundDuration":102301,"Delta":219880943},{"NoteNumber":76,"Velocity":48,"Duration":99999,"SoundDuration":99999,"Delta":219983244},{"NoteNumber":58,"Velocity":32,"Duration":599999,"SoundDuration":599999,"Delta":219983244},{"NoteNumber":75,"Velocity":49,"Duration":99999,"SoundDuration":99999,"Delta":220083244},{"NoteNumber":76,"Velocity":51,"Duration":100000,"SoundDuration":100000,"Delta":220183244},{"NoteNumber":77,"Velocity":53,"Duration":99999,"SoundDuration":99999,"Delta":220283244},{"NoteNumber":76,"Velocity":56,"Duration":99999,"SoundDuration":99999,"Delta":220383244},{"NoteNumber":77,"Velocity":58,"Duration":99999,"SoundDuration":99999,"Delta":220483244},{"NoteNumber":78,"Velocity":62,"Duration":101781,"SoundDuration":101781,"Delta":220583244},{"NoteNumber":50,"Velocity":48,"Duration":905343,"SoundDuration":905343,"Delta":220583244},{"NoteNumber":77,"Velocity":61,"Duration":101781,"SoundDuration":101781,"Delta":220685026},{"NoteNumber":78,"Velocity":58,"Duration":101781,"SoundDuration":101781,"Delta":220786807},{"NoteNumber":79,"Velocity":56,"Duration":99999,"SoundDuration":99999,"Delta":220888588},{"NoteNumber":58,"Velocity":40,"Duration":599999,"SoundDuration":599999,"Delta":220888588},{"NoteNumber":78,"Velocity":54,"Duration":99999,"SoundDuration":99999,"Delta":220988588},{"NoteNumber":79,"Velocity":51,"Duration":100000,"SoundDuration":100000,"Delta":221088588},{"NoteNumber":80,"Velocity":48,"Duration":99999,"SoundDuration":99999,"Delta":221188588},{"NoteNumber":79,"Velocity":48,"Duration":99999,"SoundDuration":99999,"Delta":221288588},{"NoteNumber":80,"Velocity":48,"Duration":99999,"SoundDuration":99999,"Delta":221388588},{"NoteNumber":79,"Velocity":48,"Duration":101781,"SoundDuration":101781,"Delta":221488588},{"NoteNumber":49,"Velocity":47,"Duration":905343,"SoundDuration":905343,"Delta":221488588},{"NoteNumber":78,"Velocity":48,"Duration":101781,"SoundDuration":101781,"Delta":221590370},{"NoteNumber":79,"Velocity":49,"Duration":101781,"SoundDuration":101781,"Delta":221692151},{"NoteNumber":80,"Velocity":50,"Duration":99999,"SoundDuration":99999,"Delta":221793932},{"NoteNumber":51,"Velocity":34,"Duration":599999,"SoundDuration":599999,"Delta":221793932},{"NoteNumber":58,"Velocity":38,"Duration":599999,"SoundDuration":599999,"Delta":221793932},{"NoteNumber":79,"Velocity":49,"Duration":99999,"SoundDuration":99999,"Delta":221893932},{"NoteNumber":80,"Velocity":49,"Duration":100000,"SoundDuration":100000,"Delta":221993932},{"NoteNumber":82,"Velocity":53,"Duration":99999,"SoundDuration":99999,"Delta":222093932},{"NoteNumber":80,"Velocity":51,"Duration":99999,"SoundDuration":99999,"Delta":222193932},{"NoteNumber":82,"Velocity":51,"Duration":99999,"SoundDuration":99999,"Delta":222293932},{"NoteNumber":80,"Velocity":56,"Duration":102040,"SoundDuration":102040,"Delta":222393932},{"NoteNumber":48,"Velocity":56,"Duration":906121,"SoundDuration":906121,"Delta":222393932},{"NoteNumber":79,"Velocity":52,"Duration":102040,"SoundDuration":102040,"Delta":222495973},{"NoteNumber":80,"Velocity":52,"Duration":102040,"SoundDuration":102040,"Delta":222598014},{"NoteNumber":82,"Velocity":58,"Duration":99999,"SoundDuration":99999,"Delta":222700054},{"NoteNumber":51,"Velocity":32,"Duration":599999,"SoundDuration":599999,"Delta":222700054},{"NoteNumber":56,"Velocity":36,"Duration":599999,"SoundDuration":599999,"Delta":222700054},{"NoteNumber":80,"Velocity":54,"Duration":99999,"SoundDuration":99999,"Delta":222800054},{"NoteNumber":82,"Velocity":51,"Duration":100000,"SoundDuration":100000,"Delta":222900054},{"NoteNumber":84,"Velocity":61,"Duration":99999,"SoundDuration":99999,"Delta":223000054},{"NoteNumber":83,"Velocity":57,"Duration":99999,"SoundDuration":99999,"Delta":223100054},{"NoteNumber":84,"Velocity":53,"Duration":99999,"SoundDuration":99999,"Delta":223200054},{"NoteNumber":86,"Velocity":64,"Duration":101781,"SoundDuration":101781,"Delta":223300054},{"NoteNumber":48,"Velocity":60,"Duration":905343,"SoundDuration":905343,"Delta":223300054},{"NoteNumber":85,"Velocity":60,"Duration":101781,"SoundDuration":101781,"Delta":223401836},{"NoteNumber":86,"Velocity":57,"Duration":101781,"SoundDuration":101781,"Delta":223503617},{"NoteNumber":88,"Velocity":66,"Duration":99999,"SoundDuration":99999,"Delta":223605398},{"NoteNumber":50,"Velocity":33,"Duration":599999,"SoundDuration":599999,"Delta":223605398},{"NoteNumber":57,"Velocity":37,"Duration":599999,"SoundDuration":599999,"Delta":223605398},{"NoteNumber":86,"Velocity":63,"Duration":99999,"SoundDuration":99999,"Delta":223705398},{"NoteNumber":88,"Velocity":60,"Duration":100000,"SoundDuration":100000,"Delta":223805398},{"NoteNumber":90,"Velocity":69,"Duration":99999,"SoundDuration":99999,"Delta":223905398},{"NoteNumber":88,"Velocity":65,"Duration":99999,"SoundDuration":99999,"Delta":224005398},{"NoteNumber":90,"Velocity":63,"Duration":99999,"SoundDuration":99999,"Delta":224105398},{"NoteNumber":91,"Velocity":72,"Duration":102301,"SoundDuration":102301,"Delta":224205398},{"NoteNumber":47,"Velocity":63,"Duration":906904,"SoundDuration":906904,"Delta":224205398},{"NoteNumber":90,"Velocity":69,"Duration":102301,"SoundDuration":102301,"Delta":224307700},{"NoteNumber":91,"Velocity":63,"Duration":102301,"SoundDuration":102301,"Delta":224410002},{"NoteNumber":93,"Velocity":74,"Duration":99999,"SoundDuration":99999,"Delta":224512303},{"NoteNumber":50,"Velocity":36,"Duration":599999,"SoundDuration":599999,"Delta":224512303},{"NoteNumber":55,"Velocity":41,"Duration":599999,"SoundDuration":599999,"Delta":224512303},{"NoteNumber":91,"Velocity":71,"Duration":99999,"SoundDuration":99999,"Delta":224612303},{"NoteNumber":93,"Velocity":66,"Duration":100000,"SoundDuration":100000,"Delta":224712303},{"NoteNumber":95,"Velocity":77,"Duration":99999,"SoundDuration":99999,"Delta":224812303},{"NoteNumber":93,"Velocity":71,"Duration":99999,"SoundDuration":99999,"Delta":224912303},{"NoteNumber":95,"Velocity":65,"Duration":99999,"SoundDuration":99999,"Delta":225012303},{"NoteNumber":96,"Velocity":81,"Duration":103092,"SoundDuration":103092,"Delta":225112303},{"NoteNumber":46,"Velocity":64,"Duration":909278,"SoundDuration":909278,"Delta":225112303},{"NoteNumber":95,"Velocity":75,"Duration":103092,"SoundDuration":103092,"Delta":225215396},{"NoteNumber":96,"Velocity":69,"Duration":103092,"SoundDuration":103092,"Delta":225318489},{"NoteNumber":98,"Velocity":81,"Duration":99999,"SoundDuration":99999,"Delta":225421581},{"NoteNumber":48,"Velocity":38,"Duration":599999,"SoundDuration":599999,"Delta":225421581},{"NoteNumber":55,"Velocity":43,"Duration":599999,"SoundDuration":599999,"Delta":225421581},{"NoteNumber":96,"Velocity":76,"Duration":99999,"SoundDuration":99999,"Delta":225521581},{"NoteNumber":98,"Velocity":71,"Duration":100000,"SoundDuration":100000,"Delta":225621581},{"NoteNumber":100,"Velocity":81,"Duration":99999,"SoundDuration":99999,"Delta":225721581},{"NoteNumber":98,"Velocity":76,"Duration":99999,"SoundDuration":99999,"Delta":225821581},{"NoteNumber":100,"Velocity":70,"Duration":99999,"SoundDuration":99999,"Delta":225921581},{"NoteNumber":101,"Velocity":81,"Duration":105263,"SoundDuration":105263,"Delta":226021581},{"NoteNumber":44,"Velocity":68,"Duration":915788,"SoundDuration":915788,"Delta":226021581},{"NoteNumber":99,"Velocity":75,"Duration":105262,"SoundDuration":105262,"Delta":226126844},{"NoteNumber":97,"Velocity":70,"Duration":105263,"SoundDuration":105263,"Delta":226232107},{"NoteNumber":96,"Velocity":81,"Duration":99999,"SoundDuration":99999,"Delta":226337370},{"NoteNumber":48,"Velocity":37,"Duration":599999,"SoundDuration":599999,"Delta":226337370},{"NoteNumber":53,"Velocity":42,"Duration":599999,"SoundDuration":599999,"Delta":226337370},{"NoteNumber":94,"Velocity":76,"Duration":99999,"SoundDuration":99999,"Delta":226437370},{"NoteNumber":92,"Velocity":70,"Duration":100000,"SoundDuration":100000,"Delta":226537370},{"NoteNumber":91,"Velocity":81,"Duration":99999,"SoundDuration":99999,"Delta":226637370},{"NoteNumber":89,"Velocity":76,"Duration":99999,"SoundDuration":99999,"Delta":226737370},{"NoteNumber":87,"Velocity":72,"Duration":99999,"SoundDuration":99999,"Delta":226837370},{"NoteNumber":86,"Velocity":81,"Duration":102040,"SoundDuration":102040,"Delta":226937370},{"NoteNumber":46,"Velocity":68,"Duration":906121,"SoundDuration":906121,"Delta":226937370},{"NoteNumber":84,"Velocity":76,"Duration":102040,"SoundDuration":102040,"Delta":227039411},{"NoteNumber":82,"Velocity":70,"Duration":102040,"SoundDuration":102040,"Delta":227141452},{"NoteNumber":81,"Velocity":81,"Duration":99999,"SoundDuration":99999,"Delta":227243492},{"NoteNumber":56,"Velocity":40,"Duration":599999,"SoundDuration":599999,"Delta":227243492},{"NoteNumber":53,"Velocity":36,"Duration":599999,"SoundDuration":599999,"Delta":227243492},{"NoteNumber":82,"Velocity":76,"Duration":99999,"SoundDuration":99999,"Delta":227343492},{"NoteNumber":84,"Velocity":72,"Duration":100000,"SoundDuration":100000,"Delta":227443492},{"NoteNumber":86,"Velocity":81,"Duration":99999,"SoundDuration":99999,"Delta":227543492},{"NoteNumber":87,"Velocity":76,"Duration":99999,"SoundDuration":99999,"Delta":227643492},{"NoteNumber":89,"Velocity":72,"Duration":99999,"SoundDuration":99999,"Delta":227743492},{"NoteNumber":90,"Velocity":89,"Duration":111420,"SoundDuration":111420,"Delta":227843492},{"NoteNumber":51,"Velocity":72,"Duration":934833,"SoundDuration":934833,"Delta":227843492},{"NoteNumber":94,"Velocity":77,"Duration":111420,"SoundDuration":111420,"Delta":227954913},{"NoteNumber":92,"Velocity":72,"Duration":111420,"SoundDuration":111420,"Delta":228066334},{"NoteNumber":90,"Velocity":81,"Duration":100571,"SoundDuration":100571,"Delta":228177754},{"NoteNumber":63,"Velocity":56,"Duration":600571,"SoundDuration":600571,"Delta":228177754},{"NoteNumber":89,"Velocity":78,"Duration":99999,"SoundDuration":99999,"Delta":228278325},{"NoteNumber":87,"Velocity":73,"Duration":99999,"SoundDuration":99999,"Delta":228378325},{"NoteNumber":85,"Velocity":81,"Duration":100000,"SoundDuration":100000,"Delta":228478325},{"NoteNumber":83,"Velocity":77,"Duration":99999,"SoundDuration":99999,"Delta":228578325},{"NoteNumber":82,"Velocity":73,"Duration":99999,"SoundDuration":99999,"Delta":228678325},{"NoteNumber":83,"Velocity":89,"Duration":111420,"SoundDuration":111420,"Delta":228778325},{"NoteNumber":44,"Velocity":72,"Duration":934833,"SoundDuration":934833,"Delta":228778325},{"NoteNumber":87,"Velocity":77,"Duration":111420,"SoundDuration":111420,"Delta":228889746},{"NoteNumber":85,"Velocity":75,"Duration":111420,"SoundDuration":111420,"Delta":229001167},{"NoteNumber":83,"Velocity":81,"Duration":100571,"SoundDuration":100571,"Delta":229112587},{"NoteNumber":56,"Velocity":56,"Duration":600571,"SoundDuration":600571,"Delta":229112587},{"NoteNumber":82,"Velocity":77,"Duration":99999,"SoundDuration":99999,"Delta":229213158},{"NoteNumber":80,"Velocity":74,"Duration":99999,"SoundDuration":99999,"Delta":229313158},{"NoteNumber":78,"Velocity":81,"Duration":100000,"SoundDuration":100000,"Delta":229413158},{"NoteNumber":77,"Velocity":77,"Duration":99999,"SoundDuration":99999,"Delta":229513158},{"NoteNumber":75,"Velocity":73,"Duration":99999,"SoundDuration":99999,"Delta":229613158},{"NoteNumber":74,"Velocity":89,"Duration":111110,"SoundDuration":111110,"Delta":229713158},{"NoteNumber":46,"Velocity":72,"Duration":933333,"SoundDuration":933333,"Delta":229713158},{"NoteNumber":77,"Velocity":76,"Duration":111110,"SoundDuration":111110,"Delta":229824269},{"NoteNumber":75,"Velocity":72,"Duration":111111,"SoundDuration":111111,"Delta":229935380},{"NoteNumber":74,"Velocity":81,"Duration":99999,"SoundDuration":99999,"Delta":230046491},{"NoteNumber":58,"Velocity":56,"Duration":599999,"SoundDuration":599999,"Delta":230046491},{"NoteNumber":71,"Velocity":77,"Duration":99999,"SoundDuration":99999,"Delta":230146491},{"NoteNumber":70,"Velocity":74,"Duration":100000,"SoundDuration":100000,"Delta":230246491},{"NoteNumber":68,"Velocity":81,"Duration":99999,"SoundDuration":99999,"Delta":230346491},{"NoteNumber":66,"Velocity":76,"Duration":99999,"SoundDuration":99999,"Delta":230446491},{"NoteNumber":65,"Velocity":73,"Duration":99999,"SoundDuration":99999,"Delta":230546491},{"NoteNumber":78,"Velocity":89,"Duration":114285,"SoundDuration":114285,"Delta":230646491},{"NoteNumber":39,"Velocity":72,"Duration":942857,"SoundDuration":942857,"Delta":230646491},{"NoteNumber":82,"Velocity":76,"Duration":114285,"SoundDuration":114285,"Delta":230760777},{"NoteNumber":80,"Velocity":73,"Duration":114285,"SoundDuration":114285,"Delta":230875063},{"NoteNumber":78,"Velocity":81,"Duration":99999,"SoundDuration":99999,"Delta":230989348},{"NoteNumber":51,"Velocity":53,"Duration":599999,"SoundDuration":599999,"Delta":230989348},{"NoteNumber":77,"Velocity":75,"Duration":99999,"SoundDuration":99999,"Delta":231089348},{"NoteNumber":75,"Velocity":73,"Duration":100000,"SoundDuration":100000,"Delta":231189348},{"NoteNumber":73,"Velocity":81,"Duration":99999,"SoundDuration":99999,"Delta":231289348},{"NoteNumber":71,"Velocity":77,"Duration":99999,"SoundDuration":99999,"Delta":231389348},{"NoteNumber":70,"Velocity":72,"Duration":99999,"SoundDuration":99999,"Delta":231489348},{"NoteNumber":71,"Velocity":89,"Duration":120846,"SoundDuration":120846,"Delta":231589348},{"NoteNumber":32,"Velocity":79,"Duration":962537,"SoundDuration":962537,"Delta":231589348},{"NoteNumber":75,"Velocity":77,"Duration":120846,"SoundDuration":120846,"Delta":231710194},{"NoteNumber":73,"Velocity":73,"Duration":120846,"SoundDuration":120846,"Delta":231831040},{"NoteNumber":71,"Velocity":81,"Duration":99999,"SoundDuration":99999,"Delta":231951886},{"NoteNumber":44,"Velocity":57,"Duration":599999,"SoundDuration":599999,"Delta":231951886},{"NoteNumber":70,"Velocity":77,"Duration":99999,"SoundDuration":99999,"Delta":232051886},{"NoteNumber":68,"Velocity":73,"Duration":100000,"SoundDuration":100000,"Delta":232151886},{"NoteNumber":66,"Velocity":81,"Duration":99999,"SoundDuration":99999,"Delta":232251886},{"NoteNumber":65,"Velocity":77,"Duration":99999,"SoundDuration":99999,"Delta":232351886},{"NoteNumber":63,"Velocity":73,"Duration":99999,"SoundDuration":99999,"Delta":232451886},{"NoteNumber":62,"Velocity":89,"Duration":111110,"SoundDuration":111110,"Delta":232551886},{"NoteNumber":34,"Velocity":76,"Duration":933333,"SoundDuration":933333,"Delta":232551886},{"NoteNumber":65,"Velocity":77,"Duration":111110,"SoundDuration":111110,"Delta":232662997},{"NoteNumber":63,"Velocity":72,"Duration":111111,"SoundDuration":111111,"Delta":232774108},{"NoteNumber":62,"Velocity":81,"Duration":99999,"SoundDuration":99999,"Delta":232885219},{"NoteNumber":46,"Velocity":57,"Duration":599999,"SoundDuration":599999,"Delta":232885219},{"NoteNumber":59,"Velocity":77,"Duration":99999,"SoundDuration":99999,"Delta":232985219},{"NoteNumber":58,"Velocity":72,"Duration":100000,"SoundDuration":100000,"Delta":233085219},{"NoteNumber":56,"Velocity":81,"Duration":99999,"SoundDuration":99999,"Delta":233185219},{"NoteNumber":54,"Velocity":77,"Duration":99999,"SoundDuration":99999,"Delta":233285219},{"NoteNumber":53,"Velocity":73,"Duration":99999,"SoundDuration":99999,"Delta":233385219},{"NoteNumber":51,"Velocity":81,"Duration":99999,"SoundDuration":99999,"Delta":233485219},{"NoteNumber":39,"Velocity":64,"Duration":300000,"SoundDuration":300000,"Delta":233485219},{"NoteNumber":53,"Velocity":77,"Duration":100000,"SoundDuration":100000,"Delta":233585219},{"NoteNumber":54,"Velocity":72,"Duration":99999,"SoundDuration":99999,"Delta":233685219},{"NoteNumber":56,"Velocity":89,"Duration":110555,"SoundDuration":110555,"Delta":233785219},{"NoteNumber":46,"Velocity":72,"Duration":666110,"SoundDuration":666110,"Delta":233785219},{"NoteNumber":50,"Velocity":81,"Duration":666110,"SoundDuration":666110,"Delta":233785219},{"NoteNumber":59,"Velocity":78,"Duration":111110,"SoundDuration":111110,"Delta":233895775},{"NoteNumber":58,"Velocity":74,"Duration":111111,"SoundDuration":111111,"Delta":234006886},{"NoteNumber":56,"Velocity":81,"Duration":111110,"SoundDuration":111110,"Delta":234117997},{"NoteNumber":54,"Velocity":76,"Duration":111110,"SoundDuration":111110,"Delta":234229108},{"NoteNumber":53,"Velocity":72,"Duration":111110,"SoundDuration":111110,"Delta":234340219},{"NoteNumber":51,"Velocity":81,"Duration":100555,"SoundDuration":100555,"Delta":234451330},{"NoteNumber":39,"Velocity":64,"Duration":150555,"SoundDuration":150555,"Delta":234451330},{"NoteNumber":53,"Velocity":76,"Duration":99999,"SoundDuration":99999,"Delta":234551885},{"NoteNumber":54,"Velocity":72,"Duration":99999,"SoundDuration":99999,"Delta":234651885},{"NoteNumber":56,"Velocity":89,"Duration":110555,"SoundDuration":110555,"Delta":234751885},{"NoteNumber":46,"Velocity":72,"Duration":666110,"SoundDuration":666110,"Delta":234751885},{"NoteNumber":50,"Velocity":81,"Duration":666110,"SoundDuration":666110,"Delta":234751885},{"NoteNumber":59,"Velocity":77,"Duration":111110,"SoundDuration":111110,"Delta":234862441},{"NoteNumber":58,"Velocity":72,"Duration":111111,"SoundDuration":111111,"Delta":234973552},{"NoteNumber":56,"Velocity":81,"Duration":111110,"SoundDuration":111110,"Delta":235084663},{"NoteNumber":54,"Velocity":77,"Duration":111110,"SoundDuration":111110,"Delta":235195774},{"NoteNumber":53,"Velocity":72,"Duration":111110,"SoundDuration":111110,"Delta":235306885},{"NoteNumber":51,"Velocity":81,"Duration":100250,"SoundDuration":100250,"Delta":235417996},{"NoteNumber":39,"Velocity":64,"Duration":150375,"SoundDuration":150375,"Delta":235417996},{"NoteNumber":53,"Velocity":77,"Duration":100250,"SoundDuration":100250,"Delta":235518246},{"NoteNumber":54,"Velocity":72,"Duration":100250,"SoundDuration":100250,"Delta":235618497},{"NoteNumber":56,"Velocity":89,"Duration":111110,"SoundDuration":111110,"Delta":235718748},{"NoteNumber":46,"Velocity":72,"Duration":666665,"SoundDuration":666665,"Delta":235718748},{"NoteNumber":50,"Velocity":81,"Duration":666665,"SoundDuration":666665,"Delta":235718748},{"NoteNumber":59,"Velocity":77,"Duration":111110,"SoundDuration":111110,"Delta":235829859},{"NoteNumber":58,"Velocity":71,"Duration":111111,"SoundDuration":111111,"Delta":235940970},{"NoteNumber":56,"Velocity":81,"Duration":111110,"SoundDuration":111110,"Delta":236052081},{"NoteNumber":54,"Velocity":77,"Duration":111110,"SoundDuration":111110,"Delta":236163192},{"NoteNumber":53,"Velocity":77,"Duration":111110,"SoundDuration":111110,"Delta":236274303},{"NoteNumber":51,"Velocity":78,"Duration":99999,"SoundDuration":99999,"Delta":236385414},{"NoteNumber":39,"Velocity":72,"Duration":99999,"SoundDuration":99999,"Delta":236385414},{"NoteNumber":53,"Velocity":80,"Duration":99999,"SoundDuration":99999,"Delta":236485414},{"NoteNumber":41,"Velocity":72,"Duration":99999,"SoundDuration":99999,"Delta":236485414},{"NoteNumber":54,"Velocity":82,"Duration":100000,"SoundDuration":100000,"Delta":236585414},{"NoteNumber":42,"Velocity":74,"Duration":100000,"SoundDuration":100000,"Delta":236585414},{"NoteNumber":56,"Velocity":84,"Duration":99999,"SoundDuration":99999,"Delta":236685414},{"NoteNumber":44,"Velocity":76,"Duration":99999,"SoundDuration":99999,"Delta":236685414},{"NoteNumber":58,"Velocity":87,"Duration":99999,"SoundDuration":99999,"Delta":236785414},{"NoteNumber":46,"Velocity":78,"Duration":99999,"SoundDuration":99999,"Delta":236785414},{"NoteNumber":60,"Velocity":89,"Duration":99999,"SoundDuration":99999,"Delta":236885414},{"NoteNumber":48,"Velocity":80,"Duration":99999,"SoundDuration":99999,"Delta":236885414},{"NoteNumber":62,"Velocity":90,"Duration":99999,"SoundDuration":99999,"Delta":236985414},{"NoteNumber":50,"Velocity":81,"Duration":99999,"SoundDuration":99999,"Delta":236985414},{"NoteNumber":63,"Velocity":92,"Duration":100000,"SoundDuration":100000,"Delta":237085414},{"NoteNumber":51,"Velocity":82,"Duration":100000,"SoundDuration":100000,"Delta":237085414},{"NoteNumber":65,"Velocity":94,"Duration":99999,"SoundDuration":99999,"Delta":237185414},{"NoteNumber":53,"Velocity":84,"Duration":99999,"SoundDuration":99999,"Delta":237185414},{"NoteNumber":66,"Velocity":96,"Duration":599999,"SoundDuration":599999,"Delta":237285414},{"NoteNumber":54,"Velocity":86,"Duration":599999,"SoundDuration":599999,"Delta":237285414},{"NoteNumber":58,"Velocity":87,"Duration":599999,"SoundDuration":599999,"Delta":238185414},{"NoteNumber":61,"Velocity":87,"Duration":599999,"SoundDuration":599999,"Delta":238185414},{"NoteNumber":66,"Velocity":87,"Duration":599999,"SoundDuration":599999,"Delta":238185414},{"NoteNumber":70,"Velocity":97,"Duration":599999,"SoundDuration":599999,"Delta":238185414},{"NoteNumber":42,"Velocity":73,"Duration":599999,"SoundDuration":599999,"Delta":238185414},{"NoteNumber":54,"Velocity":82,"Duration":599999,"SoundDuration":599999,"Delta":238185414},{"NoteNumber":71,"Velocity":97,"Duration":999999,"SoundDuration":999999,"Delta":239146860},{"NoteNumber":35,"Velocity":65,"Duration":166666,"SoundDuration":166666,"Delta":239146860},{"NoteNumber":59,"Velocity":81,"Duration":111110,"SoundDuration":111110,"Delta":239480193},{"NoteNumber":47,"Velocity":59,"Duration":666665,"SoundDuration":666665,"Delta":239480193},{"NoteNumber":50,"Velocity":59,"Duration":666665,"SoundDuration":666665,"Delta":239480193},{"NoteNumber":54,"Velocity":66,"Duration":666665,"SoundDuration":666665,"Delta":239480193},{"NoteNumber":62,"Velocity":76,"Duration":111110,"SoundDuration":111110,"Delta":239591304},{"NoteNumber":66,"Velocity":76,"Duration":111110,"SoundDuration":111110,"Delta":239702415},{"NoteNumber":59,"Velocity":81,"Duration":333333,"SoundDuration":333333,"Delta":239813526},{"NoteNumber":71,"Velocity":96,"Duration":999999,"SoundDuration":999999,"Delta":240146859},{"NoteNumber":35,"Velocity":67,"Duration":166666,"SoundDuration":166666,"Delta":240146859},{"NoteNumber":59,"Velocity":81,"Duration":111110,"SoundDuration":111110,"Delta":240480192},{"NoteNumber":47,"Velocity":57,"Duration":666665,"SoundDuration":666665,"Delta":240480192},{"NoteNumber":49,"Velocity":57,"Duration":666665,"SoundDuration":666665,"Delta":240480192},{"NoteNumber":52,"Velocity":57,"Duration":666665,"SoundDuration":666665,"Delta":240480192},{"NoteNumber":55,"Velocity":64,"Duration":666665,"SoundDuration":666665,"Delta":240480192},{"NoteNumber":61,"Velocity":77,"Duration":111110,"SoundDuration":111110,"Delta":240591303},{"NoteNumber":67,"Velocity":77,"Duration":111110,"SoundDuration":111110,"Delta":240702414},{"NoteNumber":59,"Velocity":81,"Duration":333333,"SoundDuration":333333,"Delta":240813525},{"NoteNumber":71,"Velocity":88,"Duration":316622,"SoundDuration":316622,"Delta":241146858},{"NoteNumber":50,"Velocity":72,"Duration":316622,"SoundDuration":316622,"Delta":241146858},{"NoteNumber":62,"Velocity":72,"Duration":158311,"SoundDuration":158311,"Delta":241305169},{"NoteNumber":66,"Velocity":81,"Duration":158311,"SoundDuration":158311,"Delta":241305169},{"NoteNumber":54,"Velocity":58,"Duration":158311,"SoundDuration":158311,"Delta":241305169},{"NoteNumber":59,"Velocity":65,"Duration":158311,"SoundDuration":158311,"Delta":241305169},{"NoteNumber":73,"Velocity":95,"Duration":316623,"SoundDuration":316623,"Delta":241463481},{"NoteNumber":49,"Velocity":80,"Duration":316623,"SoundDuration":316623,"Delta":241463481},{"NoteNumber":64,"Velocity":79,"Duration":158311,"SoundDuration":158311,"Delta":241621792},{"NoteNumber":66,"Velocity":88,"Duration":158311,"SoundDuration":158311,"Delta":241621792},{"NoteNumber":54,"Velocity":62,"Duration":158311,"SoundDuration":158311,"Delta":241621792},{"NoteNumber":58,"Velocity":69,"Duration":158311,"SoundDuration":158311,"Delta":241621792},{"NoteNumber":74,"Velocity":89,"Duration":316622,"SoundDuration":316622,"Delta":241780104},{"NoteNumber":47,"Velocity":72,"Duration":316622,"SoundDuration":316622,"Delta":241780104},{"NoteNumber":62,"Velocity":72,"Duration":158311,"SoundDuration":158311,"Delta":241938415},{"NoteNumber":66,"Velocity":81,"Duration":158311,"SoundDuration":158311,"Delta":241938415},{"NoteNumber":54,"Velocity":57,"Duration":158311,"SoundDuration":158311,"Delta":241938415},{"NoteNumber":59,"Velocity":64,"Duration":158311,"SoundDuration":158311,"Delta":241938415},{"NoteNumber":73,"Velocity":88,"Duration":1018572,"SoundDuration":1018572,"Delta":242096727},{"NoteNumber":42,"Velocity":72,"Duration":333333,"SoundDuration":333333,"Delta":242096727},{"NoteNumber":61,"Velocity":81,"Duration":111110,"SoundDuration":111110,"Delta":242430060},{"NoteNumber":54,"Velocity":57,"Duration":685238,"SoundDuration":685238,"Delta":242430060},{"NoteNumber":58,"Velocity":64,"Duration":685238,"SoundDuration":685238,"Delta":242430060},{"NoteNumber":66,"Velocity":76,"Duration":111110,"SoundDuration":111110,"Delta":242541171},{"NoteNumber":70,"Velocity":76,"Duration":111110,"SoundDuration":111110,"Delta":242652282},{"NoteNumber":61,"Velocity":81,"Duration":351906,"SoundDuration":351906,"Delta":242763393},{"NoteNumber":74,"Velocity":88,"Duration":999999,"SoundDuration":999999,"Delta":243115299},{"NoteNumber":46,"Velocity":80,"Duration":333333,"SoundDuration":333333,"Delta":243115299},{"NoteNumber":62,"Velocity":81,"Duration":111110,"SoundDuration":111110,"Delta":243448632},{"NoteNumber":56,"Velocity":57,"Duration":666665,"SoundDuration":666665,"Delta":243448632},{"NoteNumber":53,"Velocity":57,"Duration":666665,"SoundDuration":666665,"Delta":243448632},{"NoteNumber":58,"Velocity":64,"Duration":666665,"SoundDuration":666665,"Delta":243448632},{"NoteNumber":65,"Velocity":76,"Duration":111110,"SoundDuration":111110,"Delta":243559743},{"NoteNumber":70,"Velocity":76,"Duration":111110,"SoundDuration":111110,"Delta":243670854},{"NoteNumber":62,"Velocity":81,"Duration":333333,"SoundDuration":333333,"Delta":243781965},{"NoteNumber":75,"Velocity":88,"Duration":999999,"SoundDuration":999999,"Delta":244115298},{"NoteNumber":39,"Velocity":80,"Duration":333333,"SoundDuration":333333,"Delta":244115298},{"NoteNumber":63,"Velocity":81,"Duration":111110,"SoundDuration":111110,"Delta":244448631},{"NoteNumber":51,"Velocity":57,"Duration":666665,"SoundDuration":666665,"Delta":244448631},{"NoteNumber":54,"Velocity":57,"Duration":666665,"SoundDuration":666665,"Delta":244448631},{"NoteNumber":58,"Velocity":64,"Duration":666665,"SoundDuration":666665,"Delta":244448631},{"NoteNumber":66,"Velocity":76,"Duration":111110,"SoundDuration":111110,"Delta":244559742},{"NoteNumber":70,"Velocity":76,"Duration":111110,"SoundDuration":111110,"Delta":244670853},{"NoteNumber":63,"Velocity":81,"Duration":333333,"SoundDuration":333333,"Delta":244781964},{"NoteNumber":65,"Velocity":81,"Duration":158186,"SoundDuration":158186,"Delta":245115297},{"NoteNumber":46,"Velocity":64,"Duration":316081,"SoundDuration":316081,"Delta":245115297},{"NoteNumber":77,"Velocity":77,"Duration":157894,"SoundDuration":157894,"Delta":245273484},{"NoteNumber":66,"Velocity":81,"Duration":157894,"SoundDuration":157894,"Delta":245431378},{"NoteNumber":56,"Velocity":57,"Duration":315788,"SoundDuration":315788,"Delta":245431378},{"NoteNumber":62,"Velocity":64,"Duration":315788,"SoundDuration":315788,"Delta":245431378},{"NoteNumber":58,"Velocity":57,"Duration":315788,"SoundDuration":315788,"Delta":245431378},{"NoteNumber":78,"Velocity":77,"Duration":157894,"SoundDuration":157894,"Delta":245589273},{"NoteNumber":65,"Velocity":81,"Duration":157894,"SoundDuration":157894,"Delta":245747167},{"NoteNumber":46,"Velocity":64,"Duration":315788,"SoundDuration":315788,"Delta":245747167},{"NoteNumber":77,"Velocity":77,"Duration":157894,"SoundDuration":157894,"Delta":245905062},{"NoteNumber":75,"Velocity":81,"Duration":1054723,"SoundDuration":1054723,"Delta":246062956},{"NoteNumber":51,"Velocity":81,"Duration":333040,"SoundDuration":333040,"Delta":246062956},{"NoteNumber":63,"Velocity":64,"Duration":111110,"SoundDuration":111110,"Delta":246395997},{"NoteNumber":58,"Velocity":64,"Duration":721682,"SoundDuration":721682,"Delta":246395997},{"NoteNumber":54,"Velocity":57,"Duration":721682,"SoundDuration":721682,"Delta":246395997},{"NoteNumber":66,"Velocity":61,"Duration":111110,"SoundDuration":111110,"Delta":246507108},{"NoteNumber":70,"Velocity":62,"Duration":111110,"SoundDuration":111110,"Delta":246618219},{"NoteNumber":63,"Velocity":64,"Duration":388350,"SoundDuration":388350,"Delta":246729330},{"NoteNumber":83,"Velocity":96,"Duration":1011493,"SoundDuration":1011493,"Delta":247117680},{"NoteNumber":35,"Velocity":82,"Duration":333333,"SoundDuration":333333,"Delta":247117680},{"NoteNumber":71,"Velocity":80,"Duration":111110,"SoundDuration":111110,"Delta":247451013},{"NoteNumber":54,"Velocity":79,"Duration":678160,"SoundDuration":678160,"Delta":247451013},{"NoteNumber":50,"Velocity":71,"Duration":678160,"SoundDuration":678160,"Delta":247451013},{"NoteNumber":47,"Velocity":71,"Duration":678160,"SoundDuration":678160,"Delta":247451013},{"NoteNumber":74,"Velocity":75,"Duration":111110,"SoundDuration":111110,"Delta":247562124},{"NoteNumber":78,"Velocity":75,"Duration":111110,"SoundDuration":111110,"Delta":247673235},{"NoteNumber":71,"Velocity":80,"Duration":344828,"SoundDuration":344828,"Delta":247784346},{"NoteNumber":83,"Velocity":93,"Duration":999999,"SoundDuration":999999,"Delta":248129174},{"NoteNumber":35,"Velocity":85,"Duration":333333,"SoundDuration":333333,"Delta":248129174},{"NoteNumber":71,"Velocity":81,"Duration":111110,"SoundDuration":111110,"Delta":248462507},{"NoteNumber":49,"Velocity":69,"Duration":666665,"SoundDuration":666665,"Delta":248462507},{"NoteNumber":52,"Velocity":69,"Duration":666665,"SoundDuration":666665,"Delta":248462507},{"NoteNumber":55,"Velocity":77,"Duration":666665,"SoundDuration":666665,"Delta":248462507},{"NoteNumber":47,"Velocity":69,"Duration":666665,"SoundDuration":666665,"Delta":248462507},{"NoteNumber":73,"Velocity":76,"Duration":111110,"SoundDuration":111110,"Delta":248573618},{"NoteNumber":79,"Velocity":76,"Duration":111110,"SoundDuration":111110,"Delta":248684729},{"NoteNumber":71,"Velocity":81,"Duration":333333,"SoundDuration":333333,"Delta":248795840},{"NoteNumber":83,"Velocity":89,"Duration":313315,"SoundDuration":313315,"Delta":249129173},{"NoteNumber":50,"Velocity":64,"Duration":313315,"SoundDuration":313315,"Delta":249129173},{"NoteNumber":78,"Velocity":72,"Duration":156657,"SoundDuration":156657,"Delta":249285831},{"NoteNumber":74,"Velocity":64,"Duration":156657,"SoundDuration":156657,"Delta":249285831},{"NoteNumber":54,"Velocity":64,"Duration":156657,"SoundDuration":156657,"Delta":249285831},{"NoteNumber":59,"Velocity":72,"Duration":156657,"SoundDuration":156657,"Delta":249285831},{"NoteNumber":85,"Velocity":89,"Duration":313316,"SoundDuration":313316,"Delta":249442489},{"NoteNumber":49,"Velocity":64,"Duration":313316,"SoundDuration":313316,"Delta":249442489},{"NoteNumber":78,"Velocity":72,"Duration":156657,"SoundDuration":156657,"Delta":249599147},{"NoteNumber":76,"Velocity":64,"Duration":156657,"SoundDuration":156657,"Delta":249599147},{"NoteNumber":54,"Velocity":64,"Duration":156657,"SoundDuration":156657,"Delta":249599147},{"NoteNumber":58,"Velocity":72,"Duration":156657,"SoundDuration":156657,"Delta":249599147},{"NoteNumber":86,"Velocity":89,"Duration":313315,"SoundDuration":313315,"Delta":249755805},{"NoteNumber":47,"Velocity":64,"Duration":313315,"SoundDuration":313315,"Delta":249755805},{"NoteNumber":74,"Velocity":64,"Duration":156657,"SoundDuration":156657,"Delta":249912463},{"NoteNumber":78,"Velocity":72,"Duration":156657,"SoundDuration":156657,"Delta":249912463},{"NoteNumber":54,"Velocity":64,"Duration":156657,"SoundDuration":156657,"Delta":249912463},{"NoteNumber":59,"Velocity":72,"Duration":156657,"SoundDuration":156657,"Delta":249912463},{"NoteNumber":85,"Velocity":89,"Duration":1042841,"SoundDuration":1042841,"Delta":250069121},{"NoteNumber":42,"Velocity":97,"Duration":333333,"SoundDuration":333333,"Delta":250069121},{"NoteNumber":73,"Velocity":81,"Duration":111110,"SoundDuration":111110,"Delta":250402454},{"NoteNumber":58,"Velocity":81,"Duration":709508,"SoundDuration":709508,"Delta":250402454},{"NoteNumber":54,"Velocity":72,"Duration":709508,"SoundDuration":709508,"Delta":250402454},{"NoteNumber":78,"Velocity":76,"Duration":111110,"SoundDuration":111110,"Delta":250513565},{"NoteNumber":82,"Velocity":76,"Duration":111110,"SoundDuration":111110,"Delta":250624676},{"NoteNumber":73,"Velocity":81,"Duration":376175,"SoundDuration":376175,"Delta":250735787},{"NoteNumber":86,"Velocity":97,"Duration":999999,"SoundDuration":999999,"Delta":251111963},{"NoteNumber":46,"Velocity":97,"Duration":333333,"SoundDuration":333333,"Delta":251111963},{"NoteNumber":74,"Velocity":81,"Duration":111110,"SoundDuration":111110,"Delta":251445296},{"NoteNumber":53,"Velocity":72,"Duration":666665,"SoundDuration":666665,"Delta":251445296},{"NoteNumber":56,"Velocity":72,"Duration":666665,"SoundDuration":666665,"Delta":251445296},{"NoteNumber":58,"Velocity":81,"Duration":666665,"SoundDuration":666665,"Delta":251445296},{"NoteNumber":77,"Velocity":77,"Duration":111110,"SoundDuration":111110,"Delta":251556407},{"NoteNumber":82,"Velocity":77,"Duration":111110,"SoundDuration":111110,"Delta":251667518},{"NoteNumber":74,"Velocity":81,"Duration":333333,"SoundDuration":333333,"Delta":251778629},{"NoteNumber":87,"Velocity":97,"Duration":999999,"SoundDuration":999999,"Delta":252111962},{"NoteNumber":39,"Velocity":97,"Duration":333333,"SoundDuration":333333,"Delta":252111962},{"NoteNumber":75,"Velocity":81,"Duration":111110,"SoundDuration":111110,"Delta":252445295},{"NoteNumber":51,"Velocity":72,"Duration":666665,"SoundDuration":666665,"Delta":252445295},{"NoteNumber":54,"Velocity":72,"Duration":666665,"SoundDuration":666665,"Delta":252445295},{"NoteNumber":58,"Velocity":81,"Duration":666665,"SoundDuration":666665,"Delta":252445295},{"NoteNumber":78,"Velocity":77,"Duration":111110,"SoundDuration":111110,"Delta":252556406},{"NoteNumber":82,"Velocity":77,"Duration":111110,"SoundDuration":111110,"Delta":252667517},{"NoteNumber":75,"Velocity":81,"Duration":333333,"SoundDuration":333333,"Delta":252778628},{"NoteNumber":86,"Velocity":81,"Duration":160427,"SoundDuration":160427,"Delta":253111961},{"NoteNumber":82,"Velocity":72,"Duration":160427,"SoundDuration":160427,"Delta":253111961},{"NoteNumber":77,"Velocity":72,"Duration":160427,"SoundDuration":160427,"Delta":253111961},{"NoteNumber":46,"Velocity":72,"Duration":320855,"SoundDuration":320855,"Delta":253111961},{"NoteNumber":89,"Velocity":72,"Duration":160427,"SoundDuration":160427,"Delta":253272389},{"NoteNumber":86,"Velocity":89,"Duration":160427,"SoundDuration":160427,"Delta":253432817},{"NoteNumber":82,"Velocity":80,"Duration":160427,"SoundDuration":160427,"Delta":253432817},{"NoteNumber":78,"Velocity":80,"Duration":160427,"SoundDuration":160427,"Delta":253432817},{"NoteNumber":56,"Velocity":72,"Duration":320856,"SoundDuration":320856,"Delta":253432817},{"NoteNumber":62,"Velocity":81,"Duration":320856,"SoundDuration":320856,"Delta":253432817},{"NoteNumber":58,"Velocity":72,"Duration":320856,"SoundDuration":320856,"Delta":253432817},{"NoteNumber":90,"Velocity":79,"Duration":160428,"SoundDuration":160428,"Delta":253593245},{"NoteNumber":86,"Velocity":81,"Duration":160427,"SoundDuration":160427,"Delta":253753673},{"NoteNumber":82,"Velocity":72,"Duration":160427,"SoundDuration":160427,"Delta":253753673},{"NoteNumber":77,"Velocity":72,"Duration":160427,"SoundDuration":160427,"Delta":253753673},{"NoteNumber":46,"Velocity":72,"Duration":320855,"SoundDuration":320855,"Delta":253753673},{"NoteNumber":89,"Velocity":72,"Duration":160427,"SoundDuration":160427,"Delta":253914101},{"NoteNumber":87,"Velocity":90,"Duration":1055898,"SoundDuration":1055898,"Delta":254074529},{"NoteNumber":51,"Velocity":85,"Duration":333125,"SoundDuration":333125,"Delta":254074529},{"NoteNumber":75,"Velocity":72,"Duration":111110,"SoundDuration":111110,"Delta":254407654},{"NoteNumber":63,"Velocity":74,"Duration":722773,"SoundDuration":722773,"Delta":254407654},{"NoteNumber":58,"Velocity":66,"Duration":722773,"SoundDuration":722773,"Delta":254407654},{"NoteNumber":54,"Velocity":66,"Duration":722773,"SoundDuration":722773,"Delta":254407654},{"NoteNumber":78,"Velocity":68,"Duration":111110,"SoundDuration":111110,"Delta":254518765},{"NoteNumber":82,"Velocity":68,"Duration":111110,"SoundDuration":111110,"Delta":254629876},{"NoteNumber":75,"Velocity":72,"Duration":389440,"SoundDuration":389440,"Delta":254740987},{"NoteNumber":94,"Velocity":97,"Duration":999998,"SoundDuration":999998,"Delta":255130427},{"NoteNumber":46,"Velocity":90,"Duration":333333,"SoundDuration":333333,"Delta":255130427},{"NoteNumber":82,"Velocity":75,"Duration":111110,"SoundDuration":111110,"Delta":255463760},{"NoteNumber":68,"Velocity":74,"Duration":666665,"SoundDuration":666665,"Delta":255463760},{"NoteNumber":65,"Velocity":66,"Duration":666665,"SoundDuration":666665,"Delta":255463760},{"NoteNumber":62,"Velocity":66,"Duration":666665,"SoundDuration":666665,"Delta":255463760},{"NoteNumber":58,"Velocity":66,"Duration":666665,"SoundDuration":666665,"Delta":255463760},{"NoteNumber":89,"Velocity":71,"Duration":111110,"SoundDuration":111110,"Delta":255574871},{"NoteNumber":92,"Velocity":71,"Duration":111110,"SoundDuration":111110,"Delta":255685982},{"NoteNumber":82,"Velocity":75,"Duration":333332,"SoundDuration":333332,"Delta":255797093},{"NoteNumber":94,"Velocity":97,"Duration":977703,"SoundDuration":977703,"Delta":256130426},{"NoteNumber":51,"Velocity":88,"Duration":326086,"SoundDuration":326086,"Delta":256130426},{"NoteNumber":82,"Velocity":74,"Duration":108695,"SoundDuration":108695,"Delta":256456513},{"NoteNumber":66,"Velocity":74,"Duration":651616,"SoundDuration":651616,"Delta":256456513},{"NoteNumber":63,"Velocity":66,"Duration":651616,"SoundDuration":651616,"Delta":256456513},{"NoteNumber":58,"Velocity":66,"Duration":651616,"SoundDuration":651616,"Delta":256456513},{"NoteNumber":87,"Velocity":70,"Duration":108695,"SoundDuration":108695,"Delta":256565209},{"NoteNumber":90,"Velocity":70,"Duration":108695,"SoundDuration":108695,"Delta":256673904},{"NoteNumber":82,"Velocity":74,"Duration":325529,"SoundDuration":325529,"Delta":256782600},{"NoteNumber":80,"Velocity":72,"Duration":151898,"SoundDuration":151898,"Delta":257108130},{"NoteNumber":89,"Velocity":81,"Duration":151898,"SoundDuration":151898,"Delta":257108130},{"NoteNumber":56,"Velocity":64,"Duration":303797,"SoundDuration":303797,"Delta":257108130},{"NoteNumber":59,"Velocity":64,"Duration":303797,"SoundDuration":303797,"Delta":257108130},{"NoteNumber":65,"Velocity":72,"Duration":303797,"SoundDuration":303797,"Delta":257108130},{"NoteNumber":92,"Velocity":76,"Duration":151898,"SoundDuration":151898,"Delta":257260028},{"NoteNumber":78,"Velocity":72,"Duration":151898,"SoundDuration":151898,"Delta":257411927},{"NoteNumber":87,"Velocity":81,"Duration":151898,"SoundDuration":151898,"Delta":257411927},{"NoteNumber":66,"Velocity":73,"Duration":303796,"SoundDuration":303796,"Delta":257411927},{"NoteNumber":63,"Velocity":65,"Duration":303796,"SoundDuration":303796,"Delta":257411927},{"NoteNumber":58,"Velocity":65,"Duration":303796,"SoundDuration":303796,"Delta":257411927},{"NoteNumber":90,"Velocity":77,"Duration":151898,"SoundDuration":151898,"Delta":257563825},{"NoteNumber":77,"Velocity":72,"Duration":151898,"SoundDuration":151898,"Delta":257715724},{"NoteNumber":86,"Velocity":81,"Duration":151898,"SoundDuration":151898,"Delta":257715724},{"NoteNumber":58,"Velocity":65,"Duration":303797,"SoundDuration":303797,"Delta":257715724},{"NoteNumber":65,"Velocity":65,"Duration":303797,"SoundDuration":303797,"Delta":257715724},{"NoteNumber":68,"Velocity":73,"Duration":303797,"SoundDuration":303797,"Delta":257715724},{"NoteNumber":89,"Velocity":78,"Duration":151898,"SoundDuration":151898,"Delta":257867622},{"NoteNumber":87,"Velocity":90,"Duration":985581,"SoundDuration":985581,"Delta":258019521},{"NoteNumber":51,"Velocity":85,"Duration":316622,"SoundDuration":316622,"Delta":258019521},{"NoteNumber":75,"Velocity":81,"Duration":105541,"SoundDuration":105541,"Delta":258336144},{"NoteNumber":66,"Velocity":74,"Duration":668958,"SoundDuration":668958,"Delta":258336144},{"NoteNumber":63,"Velocity":66,"Duration":668958,"SoundDuration":668958,"Delta":258336144},{"NoteNumber":58,"Velocity":66,"Duration":668958,"SoundDuration":668958,"Delta":258336144},{"NoteNumber":78,"Velocity":65,"Duration":105541,"SoundDuration":105541,"Delta":258441685},{"NoteNumber":82,"Velocity":66,"Duration":105540,"SoundDuration":105540,"Delta":258547226},{"NoteNumber":75,"Velocity":66,"Duration":352335,"SoundDuration":352335,"Delta":258652767},{"NoteNumber":94,"Velocity":97,"Duration":947380,"SoundDuration":947380,"Delta":259005103},{"NoteNumber":46,"Velocity":88,"Duration":315802,"SoundDuration":315802,"Delta":259005103},{"NoteNumber":82,"Velocity":72,"Duration":105263,"SoundDuration":105263,"Delta":259320905},{"NoteNumber":68,"Velocity":74,"Duration":631578,"SoundDuration":631578,"Delta":259320905},{"NoteNumber":65,"Velocity":66,"Duration":631578,"SoundDuration":631578,"Delta":259320905},{"NoteNumber":62,"Velocity":66,"Duration":631578,"SoundDuration":631578,"Delta":259320905},{"NoteNumber":58,"Velocity":66,"Duration":631578,"SoundDuration":631578,"Delta":259320905},{"NoteNumber":89,"Velocity":68,"Duration":105262,"SoundDuration":105262,"Delta":259426168},{"NoteNumber":92,"Velocity":68,"Duration":105262,"SoundDuration":105262,"Delta":259531431},{"NoteNumber":82,"Velocity":72,"Duration":315789,"SoundDuration":315789,"Delta":259636694},{"NoteNumber":94,"Velocity":97,"Duration":932642,"SoundDuration":932642,"Delta":259952483},{"NoteNumber":51,"Velocity":88,"Duration":310880,"SoundDuration":310880,"Delta":259952483},{"NoteNumber":82,"Velocity":72,"Duration":103627,"SoundDuration":103627,"Delta":260263364},{"NoteNumber":66,"Velocity":74,"Duration":621761,"SoundDuration":621761,"Delta":260263364},{"NoteNumber":63,"Velocity":66,"Duration":621761,"SoundDuration":621761,"Delta":260263364},{"NoteNumber":58,"Velocity":66,"Duration":621761,"SoundDuration":621761,"Delta":260263364},{"NoteNumber":87,"Velocity":68,"Duration":103626,"SoundDuration":103626,"Delta":260366991},{"NoteNumber":90,"Velocity":68,"Duration":103627,"SoundDuration":103627,"Delta":260470618},{"NoteNumber":82,"Velocity":72,"Duration":310880,"SoundDuration":310880,"Delta":260574245},{"NoteNumber":80,"Velocity":72,"Duration":145278,"SoundDuration":145278,"Delta":260885126},{"NoteNumber":89,"Velocity":81,"Duration":145278,"SoundDuration":145278,"Delta":260885126},{"NoteNumber":56,"Velocity":65,"Duration":290556,"SoundDuration":290556,"Delta":260885126},{"NoteNumber":59,"Velocity":65,"Duration":290556,"SoundDuration":290556,"Delta":260885126},{"NoteNumber":65,"Velocity":73,"Duration":290556,"SoundDuration":290556,"Delta":260885126},{"NoteNumber":92,"Velocity":81,"Duration":145278,"SoundDuration":145278,"Delta":261030405},{"NoteNumber":78,"Velocity":72,"Duration":145278,"SoundDuration":145278,"Delta":261175683},{"NoteNumber":87,"Velocity":81,"Duration":145278,"SoundDuration":145278,"Delta":261175683},{"NoteNumber":66,"Velocity":73,"Duration":290557,"SoundDuration":290557,"Delta":261175683},{"NoteNumber":63,"Velocity":65,"Duration":290557,"SoundDuration":290557,"Delta":261175683},{"NoteNumber":58,"Velocity":65,"Duration":290557,"SoundDuration":290557,"Delta":261175683},{"NoteNumber":90,"Velocity":81,"Duration":145278,"SoundDuration":145278,"Delta":261320962},{"NoteNumber":77,"Velocity":72,"Duration":145278,"SoundDuration":145278,"Delta":261466240},{"NoteNumber":86,"Velocity":81,"Duration":145278,"SoundDuration":145278,"Delta":261466240},{"NoteNumber":58,"Velocity":65,"Duration":290556,"SoundDuration":290556,"Delta":261466240},{"NoteNumber":65,"Velocity":65,"Duration":290556,"SoundDuration":290556,"Delta":261466240},{"NoteNumber":68,"Velocity":73,"Duration":290556,"SoundDuration":290556,"Delta":261466240},{"NoteNumber":89,"Velocity":80,"Duration":145278,"SoundDuration":145278,"Delta":261611519},{"NoteNumber":87,"Velocity":90,"Duration":902256,"SoundDuration":902256,"Delta":261756797},{"NoteNumber":51,"Velocity":85,"Duration":300751,"SoundDuration":300751,"Delta":261756797},{"NoteNumber":75,"Velocity":64,"Duration":100250,"SoundDuration":100250,"Delta":262057549},{"NoteNumber":66,"Velocity":74,"Duration":601504,"SoundDuration":601504,"Delta":262057549},{"NoteNumber":63,"Velocity":66,"Duration":601504,"SoundDuration":601504,"Delta":262057549},{"NoteNumber":58,"Velocity":66,"Duration":601504,"SoundDuration":601504,"Delta":262057549},{"NoteNumber":78,"Velocity":61,"Duration":100250,"SoundDuration":100250,"Delta":262157800},{"NoteNumber":82,"Velocity":61,"Duration":100250,"SoundDuration":100250,"Delta":262258051},{"NoteNumber":75,"Velocity":63,"Duration":300752,"SoundDuration":300752,"Delta":262358301},{"NoteNumber":83,"Velocity":72,"Duration":150375,"SoundDuration":150375,"Delta":262659053},{"NoteNumber":92,"Velocity":81,"Duration":150375,"SoundDuration":150375,"Delta":262659053},{"NoteNumber":56,"Velocity":64,"Duration":300751,"SoundDuration":300751,"Delta":262659053},{"NoteNumber":59,"Velocity":64,"Duration":300751,"SoundDuration":300751,"Delta":262659053},{"NoteNumber":65,"Velocity":72,"Duration":300751,"SoundDuration":300751,"Delta":262659053},{"NoteNumber":95,"Velocity":75,"Duration":150375,"SoundDuration":150375,"Delta":262809429},{"NoteNumber":82,"Velocity":72,"Duration":150375,"SoundDuration":150375,"Delta":262959805},{"NoteNumber":90,"Velocity":81,"Duration":150375,"SoundDuration":150375,"Delta":262959805},{"NoteNumber":66,"Velocity":73,"Duration":300751,"SoundDuration":300751,"Delta":262959805},{"NoteNumber":63,"Velocity":65,"Duration":300751,"SoundDuration":300751,"Delta":262959805},{"NoteNumber":58,"Velocity":65,"Duration":300751,"SoundDuration":300751,"Delta":262959805},{"NoteNumber":94,"Velocity":76,"Duration":150375,"SoundDuration":150375,"Delta":263110181},{"NoteNumber":86,"Velocity":72,"Duration":150375,"SoundDuration":150375,"Delta":263260557},{"NoteNumber":89,"Velocity":81,"Duration":150375,"SoundDuration":150375,"Delta":263260557},{"NoteNumber":58,"Velocity":65,"Duration":300751,"SoundDuration":300751,"Delta":263260557},{"NoteNumber":65,"Velocity":65,"Duration":300751,"SoundDuration":300751,"Delta":263260557},{"NoteNumber":68,"Velocity":73,"Duration":300751,"SoundDuration":300751,"Delta":263260557},{"NoteNumber":98,"Velocity":76,"Duration":150375,"SoundDuration":150375,"Delta":263410933},{"NoteNumber":99,"Velocity":81,"Duration":95273,"SoundDuration":95273,"Delta":263561309},{"NoteNumber":63,"Velocity":81,"Duration":570333,"SoundDuration":570333,"Delta":263561309},{"NoteNumber":58,"Velocity":72,"Duration":570333,"SoundDuration":570333,"Delta":263561309},{"NoteNumber":54,"Velocity":72,"Duration":570333,"SoundDuration":570333,"Delta":263561309},{"NoteNumber":51,"Velocity":72,"Duration":570333,"SoundDuration":570333,"Delta":263561309},{"NoteNumber":95,"Velocity":76,"Duration":95012,"SoundDuration":95012,"Delta":263656583},{"NoteNumber":94,"Velocity":78,"Duration":95011,"SoundDuration":95011,"Delta":263751595},{"NoteNumber":92,"Velocity":81,"Duration":95011,"SoundDuration":95011,"Delta":263846607},{"NoteNumber":90,"Velocity":76,"Duration":95011,"SoundDuration":95011,"Delta":263941619},{"NoteNumber":89,"Velocity":76,"Duration":95011,"SoundDuration":95011,"Delta":264036631},{"NoteNumber":87,"Velocity":93,"Duration":142517,"SoundDuration":142517,"Delta":264131643},{"NoteNumber":56,"Velocity":57,"Duration":142517,"SoundDuration":142517,"Delta":264131643},{"NoteNumber":59,"Velocity":57,"Duration":142517,"SoundDuration":142517,"Delta":264131643},{"NoteNumber":63,"Velocity":63,"Duration":142517,"SoundDuration":142517,"Delta":264131643},{"NoteNumber":51,"Velocity":57,"Duration":142517,"SoundDuration":142517,"Delta":264131643},{"NoteNumber":87,"Velocity":81,"Duration":94117,"SoundDuration":94117,"Delta":264416612},{"NoteNumber":54,"Velocity":73,"Duration":564706,"SoundDuration":564706,"Delta":264416612},{"NoteNumber":63,"Velocity":82,"Duration":564706,"SoundDuration":564706,"Delta":264416612},{"NoteNumber":58,"Velocity":73,"Duration":564706,"SoundDuration":564706,"Delta":264416612},{"NoteNumber":51,"Velocity":73,"Duration":564706,"SoundDuration":564706,"Delta":264416612},{"NoteNumber":83,"Velocity":75,"Duration":94117,"SoundDuration":94117,"Delta":264510730},{"NoteNumber":82,"Velocity":75,"Duration":94117,"SoundDuration":94117,"Delta":264604848},{"NoteNumber":80,"Velocity":81,"Duration":94117,"SoundDuration":94117,"Delta":264698965},{"NoteNumber":78,"Velocity":77,"Duration":94117,"SoundDuration":94117,"Delta":264793083},{"NoteNumber":77,"Velocity":77,"Duration":94117,"SoundDuration":94117,"Delta":264887201},{"NoteNumber":75,"Velocity":92,"Duration":141176,"SoundDuration":141176,"Delta":264981318},{"NoteNumber":56,"Velocity":57,"Duration":141176,"SoundDuration":141176,"Delta":264981318},{"NoteNumber":63,"Velocity":64,"Duration":141176,"SoundDuration":141176,"Delta":264981318},{"NoteNumber":59,"Velocity":57,"Duration":141176,"SoundDuration":141176,"Delta":264981318},{"NoteNumber":51,"Velocity":57,"Duration":141176,"SoundDuration":141176,"Delta":264981318},{"NoteNumber":75,"Velocity":81,"Duration":93457,"SoundDuration":93457,"Delta":265263638},{"NoteNumber":51,"Velocity":86,"Duration":560747,"SoundDuration":560747,"Delta":265263638},{"NoteNumber":46,"Velocity":77,"Duration":560747,"SoundDuration":560747,"Delta":265263638},{"NoteNumber":42,"Velocity":77,"Duration":560747,"SoundDuration":560747,"Delta":265263638},{"NoteNumber":39,"Velocity":77,"Duration":560747,"SoundDuration":560747,"Delta":265263638},{"NoteNumber":71,"Velocity":76,"Duration":93457,"SoundDuration":93457,"Delta":265357096},{"NoteNumber":70,"Velocity":76,"Duration":93457,"SoundDuration":93457,"Delta":265450554},{"NoteNumber":68,"Velocity":81,"Duration":93457,"SoundDuration":93457,"Delta":265544012},{"NoteNumber":66,"Velocity":76,"Duration":93457,"SoundDuration":93457,"Delta":265637470},{"NoteNumber":65,"Velocity":76,"Duration":93457,"SoundDuration":93457,"Delta":265730928},{"NoteNumber":63,"Velocity":91,"Duration":140187,"SoundDuration":140187,"Delta":265824386},{"NoteNumber":44,"Velocity":61,"Duration":140187,"SoundDuration":140187,"Delta":265824386},{"NoteNumber":51,"Velocity":68,"Duration":140187,"SoundDuration":140187,"Delta":265824386},{"NoteNumber":47,"Velocity":61,"Duration":140187,"SoundDuration":140187,"Delta":265824386},{"NoteNumber":39,"Velocity":61,"Duration":140187,"SoundDuration":140187,"Delta":265824386},{"NoteNumber":63,"Velocity":81,"Duration":92807,"SoundDuration":92807,"Delta":266104711},{"NoteNumber":51,"Velocity":81,"Duration":556844,"SoundDuration":556844,"Delta":266104711},{"NoteNumber":46,"Velocity":72,"Duration":556844,"SoundDuration":556844,"Delta":266104711},{"NoteNumber":42,"Velocity":72,"Duration":556844,"SoundDuration":556844,"Delta":266104711},{"NoteNumber":39,"Velocity":72,"Duration":556844,"SoundDuration":556844,"Delta":266104711},{"NoteNumber":59,"Velocity":76,"Duration":92807,"SoundDuration":92807,"Delta":266197519},{"NoteNumber":58,"Velocity":76,"Duration":92807,"SoundDuration":92807,"Delta":266290326},{"NoteNumber":56,"Velocity":81,"Duration":92807,"SoundDuration":92807,"Delta":266383133},{"NoteNumber":54,"Velocity":76,"Duration":92807,"SoundDuration":92807,"Delta":266475941},{"NoteNumber":53,"Velocity":78,"Duration":92807,"SoundDuration":92807,"Delta":266568748},{"NoteNumber":51,"Velocity":91,"Duration":69605,"SoundDuration":69605,"Delta":266661555},{"NoteNumber":47,"Velocity":64,"Duration":139210,"SoundDuration":139210,"Delta":266661555},{"NoteNumber":44,"Velocity":57,"Duration":139210,"SoundDuration":139210,"Delta":266661555},{"NoteNumber":39,"Velocity":57,"Duration":139210,"SoundDuration":139210,"Delta":266661555},{"NoteNumber":63,"Velocity":89,"Duration":139210,"SoundDuration":139210,"Delta":266939977},{"NoteNumber":39,"Velocity":72,"Duration":139210,"SoundDuration":139210,"Delta":266939977},{"NoteNumber":42,"Velocity":72,"Duration":139210,"SoundDuration":139210,"Delta":266939977},{"NoteNumber":46,"Velocity":72,"Duration":139210,"SoundDuration":139210,"Delta":266939977},{"NoteNumber":51,"Velocity":72,"Duration":139210,"SoundDuration":139210,"Delta":266939977},{"NoteNumber":54,"Velocity":72,"Duration":139210,"SoundDuration":139210,"Delta":266939977},{"NoteNumber":58,"Velocity":80,"Duration":139210,"SoundDuration":139210,"Delta":266939977},{"NoteNumber":63,"Velocity":89,"Duration":139778,"SoundDuration":139778,"Delta":267218669},{"NoteNumber":59,"Velocity":80,"Duration":139778,"SoundDuration":139778,"Delta":267218669},{"NoteNumber":56,"Velocity":72,"Duration":139778,"SoundDuration":139778,"Delta":267218669},{"NoteNumber":51,"Velocity":72,"Duration":139778,"SoundDuration":139778,"Delta":267218669},{"NoteNumber":47,"Velocity":72,"Duration":139778,"SoundDuration":139778,"Delta":267218669},{"NoteNumber":44,"Velocity":72,"Duration":139778,"SoundDuration":139778,"Delta":267218669},{"NoteNumber":39,"Velocity":72,"Duration":139778,"SoundDuration":139778,"Delta":267218669},{"NoteNumber":63,"Velocity":89,"Duration":140378,"SoundDuration":140378,"Delta":267498526},{"NoteNumber":51,"Velocity":72,"Duration":140378,"SoundDuration":140378,"Delta":267498526},{"NoteNumber":39,"Velocity":72,"Duration":140378,"SoundDuration":140378,"Delta":267498526},{"NoteNumber":42,"Velocity":72,"Duration":140378,"SoundDuration":140378,"Delta":267498526},{"NoteNumber":46,"Velocity":72,"Duration":140378,"SoundDuration":140378,"Delta":267498526},{"NoteNumber":54,"Velocity":72,"Duration":140378,"SoundDuration":140378,"Delta":267498526},{"NoteNumber":58,"Velocity":80,"Duration":140378,"SoundDuration":140378,"Delta":267498526},{"NoteNumber":63,"Velocity":89,"Duration":140735,"SoundDuration":140735,"Delta":267779585},{"NoteNumber":59,"Velocity":80,"Duration":140735,"SoundDuration":140735,"Delta":267779585},{"NoteNumber":56,"Velocity":72,"Duration":140735,"SoundDuration":140735,"Delta":267779585},{"NoteNumber":51,"Velocity":72,"Duration":140735,"SoundDuration":140735,"Delta":267779585},{"NoteNumber":47,"Velocity":72,"Duration":140735,"SoundDuration":140735,"Delta":267779585},{"NoteNumber":44,"Velocity":72,"Duration":140735,"SoundDuration":140735,"Delta":267779585},{"NoteNumber":39,"Velocity":72,"Duration":140735,"SoundDuration":140735,"Delta":267779585},{"NoteNumber":63,"Velocity":89,"Duration":142349,"SoundDuration":142349,"Delta":268061830},{"NoteNumber":51,"Velocity":72,"Duration":142349,"SoundDuration":142349,"Delta":268061830},{"NoteNumber":39,"Velocity":72,"Duration":142349,"SoundDuration":142349,"Delta":268061830},{"NoteNumber":42,"Velocity":72,"Duration":142349,"SoundDuration":142349,"Delta":268061830},{"NoteNumber":46,"Velocity":72,"Duration":142349,"SoundDuration":142349,"Delta":268061830},{"NoteNumber":54,"Velocity":72,"Duration":142349,"SoundDuration":142349,"Delta":268061830},{"NoteNumber":58,"Velocity":80,"Duration":142349,"SoundDuration":142349,"Delta":268061830},{"NoteNumber":63,"Velocity":89,"Duration":144087,"SoundDuration":144087,"Delta":268347406},{"NoteNumber":51,"Velocity":72,"Duration":144087,"SoundDuration":144087,"Delta":268347406},{"NoteNumber":59,"Velocity":80,"Duration":144087,"SoundDuration":144087,"Delta":268347406},{"NoteNumber":56,"Velocity":72,"Duration":144087,"SoundDuration":144087,"Delta":268347406},{"NoteNumber":47,"Velocity":72,"Duration":144087,"SoundDuration":144087,"Delta":268347406},{"NoteNumber":44,"Velocity":72,"Duration":144087,"SoundDuration":144087,"Delta":268347406},{"NoteNumber":39,"Velocity":72,"Duration":144087,"SoundDuration":144087,"Delta":268347406},{"NoteNumber":74,"Velocity":97,"Duration":306904,"SoundDuration":306904,"Delta":268636450},{"NoteNumber":70,"Velocity":87,"Duration":306904,"SoundDuration":306904,"Delta":268636450},{"NoteNumber":65,"Velocity":87,"Duration":306904,"SoundDuration":306904,"Delta":268636450},{"NoteNumber":62,"Velocity":87,"Duration":306904,"SoundDuration":306904,"Delta":268636450},{"NoteNumber":34,"Velocity":78,"Duration":306904,"SoundDuration":306904,"Delta":268636450},{"NoteNumber":46,"Velocity":87,"Duration":306904,"SoundDuration":306904,"Delta":268636450},{"NoteNumber":63,"Velocity":87,"Duration":306905,"SoundDuration":306905,"Delta":269557165},{"NoteNumber":66,"Velocity":87,"Duration":306905,"SoundDuration":306905,"Delta":269557165},{"NoteNumber":70,"Velocity":87,"Duration":306905,"SoundDuration":306905,"Delta":269557165},{"NoteNumber":75,"Velocity":97,"Duration":306905,"SoundDuration":306905,"Delta":269557165},{"NoteNumber":46,"Velocity":78,"Duration":306905,"SoundDuration":306905,"Delta":269557165},{"NoteNumber":39,"Velocity":78,"Duration":306905,"SoundDuration":306905,"Delta":269557165},{"NoteNumber":51,"Velocity":87,"Duration":306905,"SoundDuration":306905,"Delta":269557165}]}