{"title":"Impromptu Nr. 3 Ges-Dur","artist":"Schubert","durationMs":342537,"midiSha256":"b6434d9f45452c246069ddab0dcd9d2af342539af11c77556431be6fff05a7a8","midiObject":[{"NoteNumber":70,"Velocity":44,"Duration":2045929,"SoundDuration":2045929,"Delta":0},{"NoteNumber":42,"Velocity":29,"Duration":2045929,"SoundDuration":2045929,"Delta":0},{"NoteNumber":49,"Velocity":35,"Duration":2045929,"SoundDuration":2045929,"Delta":0},{"NoteNumber":58,"Velocity":26,"Duration":178022,"SoundDuration":178022,"Delta":179823},{"NoteNumber":61,"Velocity":26,"Duration":176067,"SoundDuration":176067,"Delta":357846},{"NoteNumber":66,"Velocity":29,"Duration":174256,"SoundDuration":174256,"Delta":533913},{"NoteNumber":61,"Velocity":25,"Duration":172480,"SoundDuration":172480,"Delta":708169},{"NoteNumber":58,"Velocity":22,"Duration":170655,"SoundDuration":170655,"Delta":880650},{"NoteNumber":61,"Velocity":30,"Duration":168942,"SoundDuration":168942,"Delta":1051305},{"NoteNumber":58,"Velocity":25,"Duration":167272,"SoundDuration":167272,"Delta":1220248},{"NoteNumber":61,"Velocity":25,"Duration":165559,"SoundDuration":165559,"Delta":1387520},{"NoteNumber":66,"Velocity":29,"Duration":164333,"SoundDuration":164333,"Delta":1553079},{"NoteNumber":61,"Velocity":26,"Duration":164257,"SoundDuration":164257,"Delta":1717413},{"NoteNumber":58,"Velocity":23,"Duration":164257,"SoundDuration":164257,"Delta":1881671},{"NoteNumber":70,"Velocity":41,"Duration":979436,"SoundDuration":979436,"Delta":2045929},{"NoteNumber":49,"Velocity":35,"Duration":979436,"SoundDuration":979436,"Delta":2045929},{"NoteNumber":42,"Velocity":29,"Duration":979436,"SoundDuration":979436,"Delta":2045929},{"NoteNumber":58,"Velocity":27,"Duration":163038,"SoundDuration":163038,"Delta":2208968},{"NoteNumber":61,"Velocity":29,"Duration":163038,"SoundDuration":163038,"Delta":2372007},{"NoteNumber":66,"Velocity":31,"Duration":163639,"SoundDuration":163639,"Delta":2535046},{"NoteNumber":61,"Velocity":26,"Duration":163639,"SoundDuration":163639,"Delta":2698685},{"NoteNumber":58,"Velocity":29,"Duration":163041,"SoundDuration":163041,"Delta":2862324},{"NoteNumber":70,"Velocity":44,"Duration":1037123,"SoundDuration":1037123,"Delta":3025365},{"NoteNumber":42,"Velocity":29,"Duration":1037123,"SoundDuration":1037123,"Delta":3025365},{"NoteNumber":49,"Velocity":35,"Duration":1037123,"SoundDuration":1037123,"Delta":3025365},{"NoteNumber":58,"Velocity":28,"Duration":164868,"SoundDuration":164868,"Delta":3188705},{"NoteNumber":61,"Velocity":30,"Duration":167716,"SoundDuration":167716,"Delta":3353573},{"NoteNumber":66,"Velocity":35,"Duration":180277,"SoundDuration":180277,"Delta":3521289},{"NoteNumber":61,"Velocity":31,"Duration":180277,"SoundDuration":180277,"Delta":3701567},{"NoteNumber":58,"Velocity":33,"Duration":180644,"SoundDuration":180644,"Delta":3881844},{"NoteNumber":70,"Velocity":49,"Duration":2053045,"SoundDuration":2053045,"Delta":4062489},{"NoteNumber":51,"Velocity":35,"Duration":4080090,"SoundDuration":4080090,"Delta":4062489},{"NoteNumber":39,"Velocity":29,"Duration":4080090,"SoundDuration":4080090,"Delta":4062489},{"NoteNumber":58,"Velocity":27,"Duration":177664,"SoundDuration":177664,"Delta":4241950},{"NoteNumber":63,"Velocity":27,"Duration":176067,"SoundDuration":176067,"Delta":4419615},{"NoteNumber":66,"Velocity":34,"Duration":174426,"SoundDuration":174426,"Delta":4595683},{"NoteNumber":63,"Velocity":29,"Duration":172815,"SoundDuration":172815,"Delta":4770109},{"NoteNumber":58,"Velocity":26,"Duration":171316,"SoundDuration":171316,"Delta":4942925},{"NoteNumber":63,"Velocity":37,"Duration":169749,"SoundDuration":169749,"Delta":5114241},{"NoteNumber":58,"Velocity":29,"Duration":168222,"SoundDuration":168222,"Delta":5283991},{"NoteNumber":63,"Velocity":29,"Duration":166801,"SoundDuration":166801,"Delta":5452213},{"NoteNumber":66,"Velocity":36,"Duration":165557,"SoundDuration":165557,"Delta":5619015},{"NoteNumber":63,"Velocity":29,"Duration":165480,"SoundDuration":165480,"Delta":5784573},{"NoteNumber":58,"Velocity":25,"Duration":165480,"SoundDuration":165480,"Delta":5950054},{"NoteNumber":66,"Velocity":49,"Duration":2027044,"SoundDuration":2027044,"Delta":6115535},{"NoteNumber":54,"Velocity":30,"Duration":163038,"SoundDuration":163038,"Delta":6278574},{"NoteNumber":58,"Velocity":30,"Duration":163039,"SoundDuration":163039,"Delta":6441613},{"NoteNumber":63,"Velocity":36,"Duration":163038,"SoundDuration":163038,"Delta":6604652},{"NoteNumber":58,"Velocity":30,"Duration":163039,"SoundDuration":163039,"Delta":6767691},{"NoteNumber":54,"Velocity":30,"Duration":163499,"SoundDuration":163499,"Delta":6930730},{"NoteNumber":58,"Velocity":37,"Duration":167430,"SoundDuration":167430,"Delta":7094229},{"NoteNumber":54,"Velocity":30,"Duration":169183,"SoundDuration":169183,"Delta":7261659},{"NoteNumber":58,"Velocity":30,"Duration":170903,"SoundDuration":170903,"Delta":7430842},{"NoteNumber":63,"Velocity":35,"Duration":180277,"SoundDuration":180277,"Delta":7601746},{"NoteNumber":58,"Velocity":30,"Duration":180277,"SoundDuration":180277,"Delta":7782024},{"NoteNumber":54,"Velocity":27,"Duration":180277,"SoundDuration":180277,"Delta":7962301},{"NoteNumber":68,"Velocity":49,"Duration":1995879,"SoundDuration":1995879,"Delta":8142579},{"NoteNumber":35,"Velocity":29,"Duration":1995879,"SoundDuration":1995879,"Delta":8142579},{"NoteNumber":47,"Velocity":35,"Duration":1995879,"SoundDuration":1995879,"Delta":8142579},{"NoteNumber":56,"Velocity":29,"Duration":172396,"SoundDuration":172396,"Delta":8317204},{"NoteNumber":59,"Velocity":29,"Duration":170820,"SoundDuration":170820,"Delta":8489600},{"NoteNumber":63,"Velocity":37,"Duration":169344,"SoundDuration":169344,"Delta":8660421},{"NoteNumber":59,"Velocity":29,"Duration":167904,"SoundDuration":167904,"Delta":8829765},{"NoteNumber":56,"Velocity":29,"Duration":166333,"SoundDuration":166333,"Delta":8997670},{"NoteNumber":59,"Velocity":37,"Duration":164944,"SoundDuration":164944,"Delta":9164003},{"NoteNumber":56,"Velocity":29,"Duration":163568,"SoundDuration":163568,"Delta":9328948},{"NoteNumber":59,"Velocity":29,"Duration":162148,"SoundDuration":162148,"Delta":9492517},{"NoteNumber":63,"Velocity":36,"Duration":161264,"SoundDuration":161264,"Delta":9654665},{"NoteNumber":59,"Velocity":29,"Duration":161264,"SoundDuration":161264,"Delta":9815930},{"NoteNumber":56,"Velocity":29,"Duration":161264,"SoundDuration":161264,"Delta":9977194},{"NoteNumber":66,"Velocity":46,"Duration":485554,"SoundDuration":485554,"Delta":10138458},{"NoteNumber":37,"Velocity":29,"Duration":1487262,"SoundDuration":1487262,"Delta":10138458},{"NoteNumber":49,"Velocity":35,"Duration":1487262,"SoundDuration":1487262,"Delta":10138458},{"NoteNumber":56,"Velocity":29,"Duration":161851,"SoundDuration":161851,"Delta":10300310},{"NoteNumber":59,"Velocity":29,"Duration":161851,"SoundDuration":161851,"Delta":10462162},{"NoteNumber":65,"Velocity":45,"Duration":495847,"SoundDuration":495847,"Delta":10624013},{"NoteNumber":56,"Velocity":28,"Duration":165327,"SoundDuration":165327,"Delta":10788122},{"NoteNumber":59,"Velocity":28,"Duration":166410,"SoundDuration":166410,"Delta":10953450},{"NoteNumber":63,"Velocity":44,"Duration":505860,"SoundDuration":505860,"Delta":11119861},{"NoteNumber":56,"Velocity":29,"Duration":168619,"SoundDuration":168619,"Delta":11288481},{"NoteNumber":59,"Velocity":30,"Duration":168620,"SoundDuration":168620,"Delta":11457101},{"NoteNumber":61,"Velocity":40,"Duration":517687,"SoundDuration":517687,"Delta":11625721},{"NoteNumber":47,"Velocity":20,"Duration":517687,"SoundDuration":517687,"Delta":11625721},{"NoteNumber":49,"Velocity":26,"Duration":517687,"SoundDuration":517687,"Delta":11625721},{"NoteNumber":53,"Velocity":29,"Duration":172562,"SoundDuration":172562,"Delta":11798284},{"NoteNumber":56,"Velocity":30,"Duration":172562,"SoundDuration":172562,"Delta":11970846},{"NoteNumber":66,"Velocity":49,"Duration":530442,"SoundDuration":530442,"Delta":12143409},{"NoteNumber":46,"Velocity":29,"Duration":1045739,"SoundDuration":1045739,"Delta":12143409},{"NoteNumber":49,"Velocity":35,"Duration":1045739,"SoundDuration":1045739,"Delta":12143409},{"NoteNumber":54,"Velocity":32,"Duration":176773,"SoundDuration":176773,"Delta":12321878},{"NoteNumber":58,"Velocity":33,"Duration":175200,"SoundDuration":175200,"Delta":12498652},{"NoteNumber":61,"Velocity":35,"Duration":173405,"SoundDuration":173405,"Delta":12673852},{"NoteNumber":58,"Velocity":36,"Duration":171813,"SoundDuration":171813,"Delta":12847257},{"NoteNumber":54,"Velocity":38,"Duration":170078,"SoundDuration":170078,"Delta":13019071},{"NoteNumber":70,"Velocity":48,"Duration":500904,"SoundDuration":500904,"Delta":13189149},{"NoteNumber":51,"Velocity":35,"Duration":870484,"SoundDuration":870484,"Delta":13189149},{"NoteNumber":42,"Velocity":29,"Duration":870484,"SoundDuration":870484,"Delta":13189149},{"NoteNumber":60,"Velocity":38,"Duration":166958,"SoundDuration":166958,"Delta":13357690},{"NoteNumber":63,"Velocity":36,"Duration":165405,"SoundDuration":165405,"Delta":13524649},{"NoteNumber":66,"Velocity":35,"Duration":164257,"SoundDuration":164257,"Delta":13690054},{"NoteNumber":63,"Velocity":33,"Duration":164257,"SoundDuration":164257,"Delta":13854311},{"NoteNumber":60,"Velocity":32,"Duration":164257,"SoundDuration":164257,"Delta":14018569},{"NoteNumber":37,"Velocity":29,"Duration":2149207,"SoundDuration":2149207,"Delta":14059634},{"NoteNumber":68,"Velocity":41,"Duration":1485181,"SoundDuration":1485181,"Delta":14182827},{"NoteNumber":53,"Velocity":35,"Duration":2026014,"SoundDuration":2026014,"Delta":14182827},{"NoteNumber":56,"Velocity":27,"Duration":161851,"SoundDuration":161851,"Delta":14345280},{"NoteNumber":61,"Velocity":27,"Duration":161851,"SoundDuration":161851,"Delta":14507132},{"NoteNumber":65,"Velocity":30,"Duration":161851,"SoundDuration":161851,"Delta":14668983},{"NoteNumber":61,"Velocity":27,"Duration":161851,"SoundDuration":161851,"Delta":14830835},{"NoteNumber":56,"Velocity":27,"Duration":163522,"SoundDuration":163522,"Delta":14992687},{"NoteNumber":61,"Velocity":30,"Duration":167986,"SoundDuration":167986,"Delta":15156209},{"NoteNumber":56,"Velocity":27,"Duration":170574,"SoundDuration":170574,"Delta":15324195},{"NoteNumber":61,"Velocity":27,"Duration":173239,"SoundDuration":173239,"Delta":15494769},{"NoteNumber":65,"Velocity":31,"Duration":180277,"SoundDuration":180277,"Delta":15668008},{"NoteNumber":69,"Velocity":39,"Duration":540832,"SoundDuration":540832,"Delta":15668008},{"NoteNumber":61,"Velocity":24,"Duration":180277,"SoundDuration":180277,"Delta":15848286},{"NoteNumber":57,"Velocity":24,"Duration":180277,"SoundDuration":180277,"Delta":16028564},{"NoteNumber":70,"Velocity":44,"Duration":2040408,"SoundDuration":2040408,"Delta":16208841},{"NoteNumber":49,"Velocity":35,"Duration":2040408,"SoundDuration":2040408,"Delta":16208841},{"NoteNumber":42,"Velocity":29,"Duration":2040408,"SoundDuration":2040408,"Delta":16208841},{"NoteNumber":58,"Velocity":26,"Duration":178022,"SoundDuration":178022,"Delta":16388665},{"NoteNumber":61,"Velocity":26,"Duration":176067,"SoundDuration":176067,"Delta":16566687},{"NoteNumber":66,"Velocity":29,"Duration":174256,"SoundDuration":174256,"Delta":16742755},{"NoteNumber":61,"Velocity":25,"Duration":172480,"SoundDuration":172480,"Delta":16917011},{"NoteNumber":58,"Velocity":25,"Duration":170655,"SoundDuration":170655,"Delta":17089492},{"NoteNumber":61,"Velocity":30,"Duration":168942,"SoundDuration":168942,"Delta":17260147},{"NoteNumber":58,"Velocity":25,"Duration":167272,"SoundDuration":167272,"Delta":17429089},{"NoteNumber":61,"Velocity":21,"Duration":165559,"SoundDuration":165559,"Delta":17596362},{"NoteNumber":66,"Velocity":29,"Duration":162442,"SoundDuration":162442,"Delta":17761921},{"NoteNumber":61,"Velocity":26,"Duration":162442,"SoundDuration":162442,"Delta":17924364},{"NoteNumber":58,"Velocity":24,"Duration":162442,"SoundDuration":162442,"Delta":18086807},{"NoteNumber":70,"Velocity":41,"Duration":964490,"SoundDuration":964490,"Delta":18249250},{"NoteNumber":49,"Velocity":35,"Duration":964490,"SoundDuration":964490,"Delta":18249250},{"NoteNumber":42,"Velocity":29,"Duration":964490,"SoundDuration":964490,"Delta":18249250},{"NoteNumber":58,"Velocity":27,"Duration":161851,"SoundDuration":161851,"Delta":18411102},{"NoteNumber":61,"Velocity":29,"Duration":161851,"SoundDuration":161851,"Delta":18572954},{"NoteNumber":66,"Velocity":31,"Duration":160127,"SoundDuration":160127,"Delta":18734805},{"NoteNumber":61,"Velocity":26,"Duration":158957,"SoundDuration":158957,"Delta":18894933},{"NoteNumber":58,"Velocity":29,"Duration":159850,"SoundDuration":159850,"Delta":19053891},{"NoteNumber":70,"Velocity":44,"Duration":1048989,"SoundDuration":1048989,"Delta":19213741},{"NoteNumber":49,"Velocity":35,"Duration":1048989,"SoundDuration":1048989,"Delta":19213741},{"NoteNumber":42,"Velocity":29,"Duration":1048989,"SoundDuration":1048989,"Delta":19213741},{"NoteNumber":58,"Velocity":28,"Duration":169184,"SoundDuration":169184,"Delta":19380779},{"NoteNumber":61,"Velocity":30,"Duration":171566,"SoundDuration":171566,"Delta":19549963},{"NoteNumber":66,"Velocity":35,"Duration":180277,"SoundDuration":180277,"Delta":19721530},{"NoteNumber":61,"Velocity":31,"Duration":180277,"SoundDuration":180277,"Delta":19901808},{"NoteNumber":58,"Velocity":33,"Duration":180644,"SoundDuration":180644,"Delta":20082085},{"NoteNumber":70,"Velocity":49,"Duration":2048902,"SoundDuration":2048902,"Delta":20262730},{"NoteNumber":51,"Velocity":35,"Duration":2048902,"SoundDuration":2048902,"Delta":20262730},{"NoteNumber":39,"Velocity":29,"Duration":2048902,"SoundDuration":2048902,"Delta":20262730},{"NoteNumber":58,"Velocity":27,"Duration":177664,"SoundDuration":177664,"Delta":20442191},{"NoteNumber":63,"Velocity":27,"Duration":176067,"SoundDuration":176067,"Delta":20619856},{"NoteNumber":66,"Velocity":34,"Duration":174426,"SoundDuration":174426,"Delta":20795924},{"NoteNumber":63,"Velocity":29,"Duration":172815,"SoundDuration":172815,"Delta":20970350},{"NoteNumber":58,"Velocity":29,"Duration":171316,"SoundDuration":171316,"Delta":21143166},{"NoteNumber":63,"Velocity":37,"Duration":169749,"SoundDuration":169749,"Delta":21314482},{"NoteNumber":58,"Velocity":29,"Duration":168222,"SoundDuration":168222,"Delta":21484232},{"NoteNumber":63,"Velocity":29,"Duration":166801,"SoundDuration":166801,"Delta":21652454},{"NoteNumber":66,"Velocity":36,"Duration":165097,"SoundDuration":165097,"Delta":21819256},{"NoteNumber":63,"Velocity":29,"Duration":163639,"SoundDuration":163639,"Delta":21984354},{"NoteNumber":58,"Velocity":29,"Duration":163639,"SoundDuration":163639,"Delta":22147993},{"NoteNumber":66,"Velocity":49,"Duration":978694,"SoundDuration":978694,"Delta":22311633},{"NoteNumber":39,"Velocity":29,"Duration":978694,"SoundDuration":978694,"Delta":22311633},{"NoteNumber":51,"Velocity":35,"Duration":978694,"SoundDuration":978694,"Delta":22311633},{"NoteNumber":54,"Velocity":30,"Duration":163038,"SoundDuration":163038,"Delta":22474672},{"NoteNumber":58,"Velocity":30,"Duration":163039,"SoundDuration":163039,"Delta":22637711},{"NoteNumber":63,"Velocity":36,"Duration":163039,"SoundDuration":163039,"Delta":22800750},{"NoteNumber":58,"Velocity":30,"Duration":163038,"SoundDuration":163038,"Delta":22963789},{"NoteNumber":54,"Velocity":30,"Duration":163499,"SoundDuration":163499,"Delta":23126828},{"NoteNumber":65,"Velocity":49,"Duration":1023202,"SoundDuration":1023202,"Delta":23290327},{"NoteNumber":46,"Velocity":35,"Duration":1023202,"SoundDuration":1023202,"Delta":23290327},{"NoteNumber":34,"Velocity":29,"Duration":1023202,"SoundDuration":1023202,"Delta":23290327},{"NoteNumber":53,"Velocity":30,"Duration":169183,"SoundDuration":169183,"Delta":23457757},{"NoteNumber":56,"Velocity":30,"Duration":170903,"SoundDuration":170903,"Delta":23626940},{"NoteNumber":62,"Velocity":35,"Duration":171894,"SoundDuration":171894,"Delta":23797844},{"NoteNumber":56,"Velocity":30,"Duration":171894,"SoundDuration":171894,"Delta":23969739},{"NoteNumber":53,"Velocity":30,"Duration":171895,"SoundDuration":171895,"Delta":24141634},{"NoteNumber":63,"Velocity":49,"Duration":1021424,"SoundDuration":1021424,"Delta":24313529},{"NoteNumber":35,"Velocity":29,"Duration":1021424,"SoundDuration":1021424,"Delta":24313529},{"NoteNumber":47,"Velocity":35,"Duration":1021424,"SoundDuration":1021424,"Delta":24313529},{"NoteNumber":51,"Velocity":35,"Duration":172396,"SoundDuration":172396,"Delta":24488154},{"NoteNumber":54,"Velocity":38,"Duration":170821,"SoundDuration":170821,"Delta":24660550},{"NoteNumber":59,"Velocity":43,"Duration":169344,"SoundDuration":169344,"Delta":24831371},{"NoteNumber":54,"Velocity":45,"Duration":167904,"SoundDuration":167904,"Delta":25000715},{"NoteNumber":51,"Velocity":49,"Duration":166333,"SoundDuration":166333,"Delta":25168620},{"NoteNumber":68,"Velocity":58,"Duration":974454,"SoundDuration":974454,"Delta":25334953},{"NoteNumber":44,"Velocity":35,"Duration":974454,"SoundDuration":974454,"Delta":25334953},{"NoteNumber":32,"Velocity":29,"Duration":974454,"SoundDuration":974454,"Delta":25334953},{"NoteNumber":56,"Velocity":41,"Duration":163568,"SoundDuration":163568,"Delta":25499898},{"NoteNumber":59,"Velocity":41,"Duration":162148,"SoundDuration":162148,"Delta":25663467},{"NoteNumber":63,"Velocity":47,"Duration":161264,"SoundDuration":161264,"Delta":25825615},{"NoteNumber":59,"Velocity":33,"Duration":161264,"SoundDuration":161264,"Delta":25986880},{"NoteNumber":56,"Velocity":33,"Duration":161264,"SoundDuration":161264,"Delta":26148144},{"NoteNumber":66,"Velocity":46,"Duration":485555,"SoundDuration":485555,"Delta":26309408},{"NoteNumber":37,"Velocity":29,"Duration":2004950,"SoundDuration":2004950,"Delta":26309408},{"NoteNumber":49,"Velocity":35,"Duration":2004950,"SoundDuration":2004950,"Delta":26309408},{"NoteNumber":59,"Velocity":29,"Duration":161851,"SoundDuration":161851,"Delta":26471260},{"NoteNumber":56,"Velocity":29,"Duration":161851,"SoundDuration":161851,"Delta":26633112},{"NoteNumber":65,"Velocity":45,"Duration":495847,"SoundDuration":495847,"Delta":26794963},{"NoteNumber":59,"Velocity":28,"Duration":165327,"SoundDuration":165327,"Delta":26959073},{"NoteNumber":56,"Velocity":28,"Duration":166410,"SoundDuration":166410,"Delta":27124400},{"NoteNumber":63,"Velocity":44,"Duration":505859,"SoundDuration":505859,"Delta":27290811},{"NoteNumber":59,"Velocity":29,"Duration":168620,"SoundDuration":168620,"Delta":27459431},{"NoteNumber":56,"Velocity":30,"Duration":168619,"SoundDuration":168619,"Delta":27628051},{"NoteNumber":65,"Velocity":40,"Duration":517687,"SoundDuration":517687,"Delta":27796671},{"NoteNumber":59,"Velocity":29,"Duration":172562,"SoundDuration":172562,"Delta":27969234},{"NoteNumber":56,"Velocity":30,"Duration":172562,"SoundDuration":172562,"Delta":28141796},{"NoteNumber":68,"Velocity":49,"Duration":1993704,"SoundDuration":1993704,"Delta":28314359},{"NoteNumber":42,"Velocity":29,"Duration":4020748,"SoundDuration":4020748,"Delta":28314359},{"NoteNumber":49,"Velocity":35,"Duration":4020748,"SoundDuration":4020748,"Delta":28314359},{"NoteNumber":59,"Velocity":27,"Duration":173227,"SoundDuration":173227,"Delta":28493575},{"NoteNumber":61,"Velocity":27,"Duration":167266,"SoundDuration":167266,"Delta":28666803},{"NoteNumber":65,"Velocity":34,"Duration":163039,"SoundDuration":163039,"Delta":28834069},{"NoteNumber":61,"Velocity":29,"Duration":163038,"SoundDuration":163038,"Delta":28997108},{"NoteNumber":59,"Velocity":29,"Duration":163039,"SoundDuration":163039,"Delta":29160147},{"NoteNumber":61,"Velocity":37,"Duration":164867,"SoundDuration":164867,"Delta":29323186},{"NoteNumber":59,"Velocity":29,"Duration":164866,"SoundDuration":164866,"Delta":29488053},{"NoteNumber":61,"Velocity":29,"Duration":166026,"SoundDuration":166026,"Delta":29652920},{"NoteNumber":65,"Velocity":36,"Duration":163039,"SoundDuration":163039,"Delta":29818946},{"NoteNumber":61,"Velocity":29,"Duration":163038,"SoundDuration":163038,"Delta":29981985},{"NoteNumber":59,"Velocity":29,"Duration":163039,"SoundDuration":163039,"Delta":30145024},{"NoteNumber":66,"Velocity":49,"Duration":2027044,"SoundDuration":2027044,"Delta":30308063},{"NoteNumber":54,"Velocity":30,"Duration":163038,"SoundDuration":163038,"Delta":30471102},{"NoteNumber":58,"Velocity":24,"Duration":163039,"SoundDuration":163039,"Delta":30634141},{"NoteNumber":61,"Velocity":36,"Duration":163039,"SoundDuration":163039,"Delta":30797180},{"NoteNumber":58,"Velocity":30,"Duration":163038,"SoundDuration":163038,"Delta":30960219},{"NoteNumber":54,"Velocity":24,"Duration":163499,"SoundDuration":163499,"Delta":31123258},{"NoteNumber":58,"Velocity":37,"Duration":167430,"SoundDuration":167430,"Delta":31286758},{"NoteNumber":54,"Velocity":30,"Duration":169183,"SoundDuration":169183,"Delta":31454188},{"NoteNumber":58,"Velocity":26,"Duration":170903,"SoundDuration":170903,"Delta":31623371},{"NoteNumber":61,"Velocity":35,"Duration":180277,"SoundDuration":180277,"Delta":31794275},{"NoteNumber":58,"Velocity":30,"Duration":180277,"SoundDuration":180277,"Delta":31974552},{"NoteNumber":54,"Velocity":26,"Duration":180277,"SoundDuration":180277,"Delta":32154830},{"NoteNumber":68,"Velocity":44,"Duration":2010366,"SoundDuration":2010366,"Delta":32335108},{"NoteNumber":53,"Velocity":35,"Duration":2010366,"SoundDuration":2010366,"Delta":32335108},{"NoteNumber":49,"Velocity":29,"Duration":2010366,"SoundDuration":2010366,"Delta":32335108},{"NoteNumber":56,"Velocity":26,"Duration":174967,"SoundDuration":174967,"Delta":32511935},{"NoteNumber":61,"Velocity":26,"Duration":173010,"SoundDuration":173010,"Delta":32686903},{"NoteNumber":65,"Velocity":29,"Duration":171168,"SoundDuration":171168,"Delta":32859913},{"NoteNumber":61,"Velocity":25,"Duration":169288,"SoundDuration":169288,"Delta":33031082},{"NoteNumber":56,"Velocity":25,"Duration":167454,"SoundDuration":167454,"Delta":33200370},{"NoteNumber":61,"Velocity":30,"Duration":165737,"SoundDuration":165737,"Delta":33367824},{"NoteNumber":56,"Velocity":26,"Duration":163972,"SoundDuration":163972,"Delta":33533562},{"NoteNumber":61,"Velocity":26,"Duration":162385,"SoundDuration":162385,"Delta":33697534},{"NoteNumber":65,"Velocity":30,"Duration":161851,"SoundDuration":161851,"Delta":33859919},{"NoteNumber":61,"Velocity":27,"Duration":161851,"SoundDuration":161851,"Delta":34021771},{"NoteNumber":56,"Velocity":27,"Duration":161851,"SoundDuration":161851,"Delta":34183623},{"NoteNumber":70,"Velocity":43,"Duration":1938489,"SoundDuration":1938489,"Delta":34345474},{"NoteNumber":51,"Velocity":34,"Duration":1938489,"SoundDuration":1938489,"Delta":34345474},{"NoteNumber":55,"Velocity":40,"Duration":1938489,"SoundDuration":1938489,"Delta":34345474},{"NoteNumber":46,"Velocity":34,"Duration":1938489,"SoundDuration":1938489,"Delta":34345474},{"NoteNumber":61,"Velocity":29,"Duration":161264,"SoundDuration":161264,"Delta":34506739},{"NoteNumber":63,"Velocity":31,"Duration":161264,"SoundDuration":161264,"Delta":34668003},{"NoteNumber":67,"Velocity":39,"Duration":157257,"SoundDuration":157257,"Delta":34829267},{"NoteNumber":63,"Velocity":31,"Duration":157257,"SoundDuration":157257,"Delta":34986525},{"NoteNumber":61,"Velocity":44,"Duration":158773,"SoundDuration":158773,"Delta":35143782},{"NoteNumber":63,"Velocity":47,"Duration":162443,"SoundDuration":162443,"Delta":35302555},{"NoteNumber":61,"Velocity":51,"Duration":162442,"SoundDuration":162442,"Delta":35464998},{"NoteNumber":63,"Velocity":54,"Duration":162154,"SoundDuration":162154,"Delta":35627441},{"NoteNumber":67,"Velocity":55,"Duration":162868,"SoundDuration":162868,"Delta":35789596},{"NoteNumber":63,"Velocity":62,"Duration":164240,"SoundDuration":164240,"Delta":35952464},{"NoteNumber":61,"Velocity":67,"Duration":167260,"SoundDuration":167260,"Delta":36116704},{"NoteNumber":73,"Velocity":74,"Duration":1492429,"SoundDuration":1492429,"Delta":36283964},{"NoteNumber":56,"Velocity":50,"Duration":1976222,"SoundDuration":1976222,"Delta":36283964},{"NoteNumber":44,"Velocity":41,"Duration":1976222,"SoundDuration":1976222,"Delta":36283964},{"NoteNumber":51,"Velocity":41,"Duration":1976222,"SoundDuration":1976222,"Delta":36283964},{"NoteNumber":61,"Velocity":51,"Duration":168056,"SoundDuration":168056,"Delta":36453846},{"NoteNumber":63,"Velocity":51,"Duration":168214,"SoundDuration":168214,"Delta":36621903},{"NoteNumber":68,"Velocity":66,"Duration":167367,"SoundDuration":167367,"Delta":36790117},{"NoteNumber":63,"Velocity":49,"Duration":166115,"SoundDuration":166115,"Delta":36957484},{"NoteNumber":61,"Velocity":49,"Duration":164883,"SoundDuration":164883,"Delta":37123600},{"NoteNumber":63,"Velocity":55,"Duration":163811,"SoundDuration":163811,"Delta":37288483},{"NoteNumber":61,"Velocity":37,"Duration":162607,"SoundDuration":162607,"Delta":37452294},{"NoteNumber":63,"Velocity":33,"Duration":161491,"SoundDuration":161491,"Delta":37614902},{"NoteNumber":71,"Velocity":50,"Duration":483792,"SoundDuration":483792,"Delta":37776394},{"NoteNumber":68,"Velocity":37,"Duration":161264,"SoundDuration":161264,"Delta":37776394},{"NoteNumber":63,"Velocity":33,"Duration":161264,"SoundDuration":161264,"Delta":37937658},{"NoteNumber":59,"Velocity":33,"Duration":161264,"SoundDuration":161264,"Delta":38098923},{"NoteNumber":71,"Velocity":41,"Duration":2027044,"SoundDuration":2027044,"Delta":38260187},{"NoteNumber":56,"Velocity":35,"Duration":2027044,"SoundDuration":2027044,"Delta":38260187},{"NoteNumber":51,"Velocity":29,"Duration":2027044,"SoundDuration":2027044,"Delta":38260187},{"NoteNumber":44,"Velocity":29,"Duration":2027044,"SoundDuration":2027044,"Delta":38260187},{"NoteNumber":59,"Velocity":28,"Duration":163039,"SoundDuration":163039,"Delta":38423226},{"NoteNumber":63,"Velocity":28,"Duration":163038,"SoundDuration":163038,"Delta":38586265},{"NoteNumber":68,"Velocity":30,"Duration":163038,"SoundDuration":163038,"Delta":38749304},{"NoteNumber":63,"Velocity":25,"Duration":163039,"SoundDuration":163039,"Delta":38912343},{"NoteNumber":59,"Velocity":25,"Duration":163499,"SoundDuration":163499,"Delta":39075382},{"NoteNumber":63,"Velocity":31,"Duration":167430,"SoundDuration":167430,"Delta":39238881},{"NoteNumber":59,"Velocity":25,"Duration":169182,"SoundDuration":169182,"Delta":39406312},{"NoteNumber":63,"Velocity":25,"Duration":170903,"SoundDuration":170903,"Delta":39575495},{"NoteNumber":68,"Velocity":29,"Duration":180277,"SoundDuration":180277,"Delta":39746398},{"NoteNumber":63,"Velocity":25,"Duration":180277,"SoundDuration":180277,"Delta":39926676},{"NoteNumber":59,"Velocity":25,"Duration":180277,"SoundDuration":180277,"Delta":40106954},{"NoteNumber":71,"Velocity":54,"Duration":1988320,"SoundDuration":1988320,"Delta":40287231},{"NoteNumber":52,"Velocity":33,"Duration":1988320,"SoundDuration":1988320,"Delta":40287231},{"NoteNumber":56,"Velocity":40,"Duration":1988320,"SoundDuration":1988320,"Delta":40287231},{"NoteNumber":59,"Velocity":33,"Duration":174967,"SoundDuration":174967,"Delta":40464059},{"NoteNumber":64,"Velocity":33,"Duration":173085,"SoundDuration":173085,"Delta":40639027},{"NoteNumber":68,"Velocity":37,"Duration":170862,"SoundDuration":170862,"Delta":40812112},{"NoteNumber":64,"Velocity":32,"Duration":167923,"SoundDuration":167923,"Delta":40982975},{"NoteNumber":59,"Velocity":32,"Duration":165061,"SoundDuration":165061,"Delta":41150899},{"NoteNumber":64,"Velocity":39,"Duration":162313,"SoundDuration":162313,"Delta":41315960},{"NoteNumber":59,"Velocity":33,"Duration":159688,"SoundDuration":159688,"Delta":41478274},{"NoteNumber":64,"Velocity":33,"Duration":159007,"SoundDuration":159007,"Delta":41637962},{"NoteNumber":68,"Velocity":39,"Duration":159527,"SoundDuration":159527,"Delta":41796969},{"NoteNumber":64,"Velocity":35,"Duration":159527,"SoundDuration":159527,"Delta":41956497},{"NoteNumber":59,"Velocity":36,"Duration":159527,"SoundDuration":159527,"Delta":42116025},{"NoteNumber":71,"Velocity":49,"Duration":951203,"SoundDuration":951203,"Delta":42275552},{"NoteNumber":54,"Velocity":46,"Duration":951203,"SoundDuration":951203,"Delta":42275552},{"NoteNumber":51,"Velocity":39,"Duration":951203,"SoundDuration":951203,"Delta":42275552},{"NoteNumber":59,"Velocity":37,"Duration":156152,"SoundDuration":156152,"Delta":42431705},{"NoteNumber":63,"Velocity":40,"Duration":156152,"SoundDuration":156152,"Delta":42587857},{"NoteNumber":66,"Velocity":44,"Duration":160681,"SoundDuration":160681,"Delta":42744009},{"NoteNumber":63,"Velocity":37,"Duration":160681,"SoundDuration":160681,"Delta":42904691},{"NoteNumber":59,"Velocity":39,"Duration":161383,"SoundDuration":161383,"Delta":43065372},{"NoteNumber":73,"Velocity":55,"Duration":981409,"SoundDuration":981409,"Delta":43226756},{"NoteNumber":58,"Velocity":46,"Duration":981409,"SoundDuration":981409,"Delta":43226756},{"NoteNumber":49,"Velocity":39,"Duration":981409,"SoundDuration":981409,"Delta":43226756},{"NoteNumber":54,"Velocity":39,"Duration":981409,"SoundDuration":981409,"Delta":43226756},{"NoteNumber":64,"Velocity":49,"Duration":162442,"SoundDuration":162442,"Delta":43389199},{"NoteNumber":66,"Velocity":51,"Duration":162154,"SoundDuration":162154,"Delta":43551642},{"NoteNumber":70,"Velocity":60,"Duration":162868,"SoundDuration":162868,"Delta":43713797},{"NoteNumber":66,"Velocity":64,"Duration":164240,"SoundDuration":164240,"Delta":43876665},{"NoteNumber":64,"Velocity":63,"Duration":167260,"SoundDuration":167260,"Delta":44040905},{"NoteNumber":76,"Velocity":69,"Duration":1492364,"SoundDuration":1492364,"Delta":44208165},{"NoteNumber":47,"Velocity":47,"Duration":1988404,"SoundDuration":1988404,"Delta":44208165},{"NoteNumber":54,"Velocity":47,"Duration":1988404,"SoundDuration":1988404,"Delta":44208165},{"NoteNumber":59,"Velocity":57,"Duration":1988404,"SoundDuration":1988404,"Delta":44208165},{"NoteNumber":64,"Velocity":57,"Duration":168056,"SoundDuration":168056,"Delta":44378047},{"NoteNumber":66,"Velocity":57,"Duration":168214,"SoundDuration":168214,"Delta":44546103},{"NoteNumber":71,"Velocity":63,"Duration":167367,"SoundDuration":167367,"Delta":44714318},{"NoteNumber":66,"Velocity":48,"Duration":166115,"SoundDuration":166115,"Delta":44881685},{"NoteNumber":64,"Velocity":48,"Duration":164883,"SoundDuration":164883,"Delta":45047800},{"NoteNumber":66,"Velocity":54,"Duration":163811,"SoundDuration":163811,"Delta":45212684},{"NoteNumber":64,"Velocity":35,"Duration":162607,"SoundDuration":162607,"Delta":45376495},{"NoteNumber":66,"Velocity":37,"Duration":161426,"SoundDuration":161426,"Delta":45539103},{"NoteNumber":75,"Velocity":57,"Duration":496040,"SoundDuration":496040,"Delta":45700529},{"NoteNumber":71,"Velocity":42,"Duration":165078,"SoundDuration":165078,"Delta":45700529},{"NoteNumber":66,"Velocity":37,"Duration":165480,"SoundDuration":165480,"Delta":45865608},{"NoteNumber":63,"Velocity":37,"Duration":165480,"SoundDuration":165480,"Delta":46031089},{"NoteNumber":75,"Velocity":45,"Duration":2018556,"SoundDuration":2018556,"Delta":46196569},{"NoteNumber":47,"Velocity":33,"Duration":2018556,"SoundDuration":2018556,"Delta":46196569},{"NoteNumber":54,"Velocity":33,"Duration":2018556,"SoundDuration":2018556,"Delta":46196569},{"NoteNumber":59,"Velocity":40,"Duration":2018556,"SoundDuration":2018556,"Delta":46196569},{"NoteNumber":63,"Velocity":31,"Duration":163039,"SoundDuration":163039,"Delta":46359608},{"NoteNumber":66,"Velocity":31,"Duration":163038,"SoundDuration":163038,"Delta":46522647},{"NoteNumber":71,"Velocity":34,"Duration":163038,"SoundDuration":163038,"Delta":46685686},{"NoteNumber":66,"Velocity":28,"Duration":163039,"SoundDuration":163039,"Delta":46848725},{"NoteNumber":63,"Velocity":28,"Duration":163499,"SoundDuration":163499,"Delta":47011764},{"NoteNumber":66,"Velocity":35,"Duration":164263,"SoundDuration":164263,"Delta":47175264},{"NoteNumber":63,"Velocity":28,"Duration":166195,"SoundDuration":166195,"Delta":47339527},{"NoteNumber":66,"Velocity":28,"Duration":168967,"SoundDuration":168967,"Delta":47505723},{"NoteNumber":71,"Velocity":34,"Duration":180277,"SoundDuration":180277,"Delta":47674690},{"NoteNumber":66,"Velocity":28,"Duration":180277,"SoundDuration":180277,"Delta":47854968},{"NoteNumber":63,"Velocity":28,"Duration":179879,"SoundDuration":179879,"Delta":48035246},{"NoteNumber":75,"Velocity":47,"Duration":1972970,"SoundDuration":1972970,"Delta":48215126},{"NoteNumber":47,"Velocity":29,"Duration":1972970,"SoundDuration":1972970,"Delta":48215126},{"NoteNumber":54,"Velocity":35,"Duration":1972970,"SoundDuration":1972970,"Delta":48215126},{"NoteNumber":63,"Velocity":32,"Duration":170779,"SoundDuration":170779,"Delta":48388153},{"NoteNumber":66,"Velocity":32,"Duration":168542,"SoundDuration":168542,"Delta":48558932},{"NoteNumber":71,"Velocity":45,"Duration":166373,"SoundDuration":166373,"Delta":48727475},{"NoteNumber":66,"Velocity":32,"Duration":164255,"SoundDuration":164255,"Delta":48893848},{"NoteNumber":63,"Velocity":35,"Duration":162185,"SoundDuration":162185,"Delta":49058104},{"NoteNumber":66,"Velocity":31,"Duration":161264,"SoundDuration":161264,"Delta":49220290},{"NoteNumber":63,"Velocity":31,"Duration":161264,"SoundDuration":161264,"Delta":49381554},{"NoteNumber":66,"Velocity":31,"Duration":161484,"SoundDuration":161484,"Delta":49542819},{"NoteNumber":71,"Velocity":36,"Duration":161264,"SoundDuration":161264,"Delta":49704303},{"NoteNumber":66,"Velocity":30,"Duration":161264,"SoundDuration":161264,"Delta":49865568},{"NoteNumber":63,"Velocity":30,"Duration":161264,"SoundDuration":161264,"Delta":50026832},{"NoteNumber":75,"Velocity":46,"Duration":487329,"SoundDuration":487329,"Delta":50188096},{"NoteNumber":56,"Velocity":35,"Duration":974657,"SoundDuration":974657,"Delta":50188096},{"NoteNumber":47,"Velocity":29,"Duration":1955044,"SoundDuration":1955044,"Delta":50188096},{"NoteNumber":68,"Velocity":29,"Duration":162442,"SoundDuration":162442,"Delta":50350539},{"NoteNumber":65,"Velocity":29,"Duration":162443,"SoundDuration":162443,"Delta":50512982},{"NoteNumber":71,"Velocity":43,"Duration":487328,"SoundDuration":487328,"Delta":50675425},{"NoteNumber":68,"Velocity":28,"Duration":162443,"SoundDuration":162443,"Delta":50837868},{"NoteNumber":65,"Velocity":28,"Duration":162442,"SoundDuration":162442,"Delta":51000311},{"NoteNumber":70,"Velocity":43,"Duration":489117,"SoundDuration":489117,"Delta":51162754},{"NoteNumber":53,"Velocity":35,"Duration":980386,"SoundDuration":980386,"Delta":51162754},{"NoteNumber":65,"Velocity":28,"Duration":163039,"SoundDuration":163039,"Delta":51325793},{"NoteNumber":61,"Velocity":28,"Duration":163038,"SoundDuration":163038,"Delta":51488832},{"NoteNumber":68,"Velocity":39,"Duration":491269,"SoundDuration":491269,"Delta":51651871},{"NoteNumber":65,"Velocity":28,"Duration":163639,"SoundDuration":163639,"Delta":51815511},{"NoteNumber":61,"Velocity":28,"Duration":163990,"SoundDuration":163990,"Delta":51979150},{"NoteNumber":73,"Velocity":47,"Duration":1948497,"SoundDuration":1948497,"Delta":52143141},{"NoteNumber":46,"Velocity":29,"Duration":1948497,"SoundDuration":1948497,"Delta":52143141},{"NoteNumber":54,"Velocity":35,"Duration":1948497,"SoundDuration":1948497,"Delta":52143141},{"NoteNumber":61,"Velocity":32,"Duration":167155,"SoundDuration":167155,"Delta":52311922},{"NoteNumber":66,"Velocity":32,"Duration":165636,"SoundDuration":165636,"Delta":52479077},{"NoteNumber":70,"Velocity":32,"Duration":164063,"SoundDuration":164063,"Delta":52644713},{"NoteNumber":66,"Velocity":32,"Duration":162592,"SoundDuration":162592,"Delta":52808777},{"NoteNumber":61,"Velocity":31,"Duration":161083,"SoundDuration":161083,"Delta":52971370},{"NoteNumber":66,"Velocity":41,"Duration":157815,"SoundDuration":157815,"Delta":53132453},{"NoteNumber":61,"Velocity":31,"Duration":157815,"SoundDuration":157815,"Delta":53290269},{"NoteNumber":66,"Velocity":27,"Duration":159760,"SoundDuration":159760,"Delta":53448084},{"NoteNumber":70,"Velocity":36,"Duration":161264,"SoundDuration":161264,"Delta":53607845},{"NoteNumber":66,"Velocity":30,"Duration":161264,"SoundDuration":161264,"Delta":53769109},{"NoteNumber":61,"Velocity":26,"Duration":161264,"SoundDuration":161264,"Delta":53930373},{"NoteNumber":73,"Velocity":46,"Duration":487329,"SoundDuration":487329,"Delta":54091638},{"NoteNumber":47,"Velocity":29,"Duration":1981462,"SoundDuration":1981462,"Delta":54091638},{"NoteNumber":54,"Velocity":35,"Duration":974657,"SoundDuration":974657,"Delta":54091638},{"NoteNumber":66,"Velocity":29,"Duration":162442,"SoundDuration":162442,"Delta":54254081},{"NoteNumber":63,"Velocity":29,"Duration":162443,"SoundDuration":162443,"Delta":54416524},{"NoteNumber":71,"Velocity":43,"Duration":487328,"SoundDuration":487328,"Delta":54578967},{"NoteNumber":66,"Velocity":28,"Duration":162443,"SoundDuration":162443,"Delta":54741410},{"NoteNumber":63,"Velocity":28,"Duration":162442,"SoundDuration":162442,"Delta":54903853},{"NoteNumber":68,"Velocity":43,"Duration":489117,"SoundDuration":489117,"Delta":55066296},{"NoteNumber":56,"Velocity":35,"Duration":832085,"SoundDuration":832085,"Delta":55066296},{"NoteNumber":63,"Velocity":28,"Duration":163039,"SoundDuration":163039,"Delta":55229335},{"NoteNumber":59,"Velocity":28,"Duration":163038,"SoundDuration":163038,"Delta":55392374},{"NoteNumber":63,"Velocity":39,"Duration":517687,"SoundDuration":517687,"Delta":55555413},{"NoteNumber":59,"Velocity":28,"Duration":172562,"SoundDuration":172562,"Delta":55727975},{"NoteNumber":56,"Velocity":28,"Duration":172562,"SoundDuration":172562,"Delta":55900538},{"NoteNumber":66,"Velocity":47,"Duration":1954213,"SoundDuration":1954213,"Delta":56073101},{"NoteNumber":49,"Velocity":35,"Duration":1954213,"SoundDuration":1954213,"Delta":56073101},{"NoteNumber":54,"Velocity":29,"Duration":167155,"SoundDuration":167155,"Delta":56241882},{"NoteNumber":58,"Velocity":29,"Duration":165636,"SoundDuration":165636,"Delta":56409037},{"NoteNumber":61,"Velocity":39,"Duration":164063,"SoundDuration":164063,"Delta":56574673},{"NoteNumber":58,"Velocity":29,"Duration":162592,"SoundDuration":162592,"Delta":56738737},{"NoteNumber":54,"Velocity":29,"Duration":161083,"SoundDuration":161083,"Delta":56901330},{"NoteNumber":58,"Velocity":36,"Duration":160102,"SoundDuration":160102,"Delta":57062413},{"NoteNumber":54,"Velocity":30,"Duration":160102,"SoundDuration":160102,"Delta":57222516},{"NoteNumber":58,"Velocity":30,"Duration":160903,"SoundDuration":160903,"Delta":57382618},{"NoteNumber":61,"Velocity":36,"Duration":161264,"SoundDuration":161264,"Delta":57543521},{"NoteNumber":58,"Velocity":30,"Duration":161264,"SoundDuration":161264,"Delta":57704786},{"NoteNumber":54,"Velocity":30,"Duration":161264,"SoundDuration":161264,"Delta":57866050},{"NoteNumber":37,"Velocity":35,"Duration":120948,"SoundDuration":120948,"Delta":57906366},{"NoteNumber":66,"Velocity":45,"Duration":487329,"SoundDuration":487329,"Delta":58027314},{"NoteNumber":49,"Velocity":35,"Duration":1981462,"SoundDuration":1981462,"Delta":58027314},{"NoteNumber":59,"Velocity":29,"Duration":162442,"SoundDuration":162442,"Delta":58189757},{"NoteNumber":56,"Velocity":29,"Duration":162443,"SoundDuration":162443,"Delta":58352200},{"NoteNumber":65,"Velocity":41,"Duration":487328,"SoundDuration":487328,"Delta":58514643},{"NoteNumber":59,"Velocity":28,"Duration":162443,"SoundDuration":162443,"Delta":58677086},{"NoteNumber":56,"Velocity":28,"Duration":162442,"SoundDuration":162442,"Delta":58839529},{"NoteNumber":70,"Velocity":42,"Duration":489117,"SoundDuration":489117,"Delta":59001972},{"NoteNumber":54,"Velocity":35,"Duration":489117,"SoundDuration":489117,"Delta":59001972},{"NoteNumber":61,"Velocity":28,"Duration":163039,"SoundDuration":163039,"Delta":59165011},{"NoteNumber":59,"Velocity":28,"Duration":163038,"SoundDuration":163038,"Delta":59328050},{"NoteNumber":68,"Velocity":39,"Duration":517687,"SoundDuration":517687,"Delta":59491089},{"NoteNumber":53,"Velocity":35,"Duration":517687,"SoundDuration":517687,"Delta":59491089},{"NoteNumber":61,"Velocity":26,"Duration":172562,"SoundDuration":172562,"Delta":59663652},{"NoteNumber":59,"Velocity":26,"Duration":172562,"SoundDuration":172562,"Delta":59836215},{"NoteNumber":66,"Velocity":47,"Duration":1954213,"SoundDuration":1954213,"Delta":60008777},{"NoteNumber":42,"Velocity":30,"Duration":1954213,"SoundDuration":1954213,"Delta":60008777},{"NoteNumber":49,"Velocity":35,"Duration":1954213,"SoundDuration":1954213,"Delta":60008777},{"NoteNumber":54,"Velocity":29,"Duration":167155,"SoundDuration":167155,"Delta":60177559},{"NoteNumber":58,"Velocity":29,"Duration":165636,"SoundDuration":165636,"Delta":60344714},{"NoteNumber":61,"Velocity":29,"Duration":164063,"SoundDuration":164063,"Delta":60510350},{"NoteNumber":58,"Velocity":29,"Duration":162592,"SoundDuration":162592,"Delta":60674414},{"NoteNumber":54,"Velocity":26,"Duration":161083,"SoundDuration":161083,"Delta":60837007},{"NoteNumber":58,"Velocity":36,"Duration":160102,"SoundDuration":160102,"Delta":60998090},{"NoteNumber":54,"Velocity":30,"Duration":160102,"SoundDuration":160102,"Delta":61158192},{"NoteNumber":58,"Velocity":30,"Duration":160903,"SoundDuration":160903,"Delta":61318295},{"NoteNumber":61,"Velocity":36,"Duration":161264,"SoundDuration":161264,"Delta":61479198},{"NoteNumber":58,"Velocity":30,"Duration":161264,"SoundDuration":161264,"Delta":61640463},{"NoteNumber":54,"Velocity":30,"Duration":161264,"SoundDuration":161264,"Delta":61801727},{"NoteNumber":66,"Velocity":47,"Duration":989312,"SoundDuration":989312,"Delta":61962991},{"NoteNumber":49,"Velocity":35,"Duration":989312,"SoundDuration":989312,"Delta":61962991},{"NoteNumber":46,"Velocity":30,"Duration":989312,"SoundDuration":989312,"Delta":61962991},{"NoteNumber":54,"Velocity":29,"Duration":167155,"SoundDuration":167155,"Delta":62131773},{"NoteNumber":58,"Velocity":29,"Duration":165636,"SoundDuration":165636,"Delta":62298928},{"NoteNumber":61,"Velocity":36,"Duration":164063,"SoundDuration":164063,"Delta":62464564},{"NoteNumber":58,"Velocity":29,"Duration":162592,"SoundDuration":162592,"Delta":62628628},{"NoteNumber":54,"Velocity":31,"Duration":161083,"SoundDuration":161083,"Delta":62791221},{"NoteNumber":67,"Velocity":47,"Duration":986968,"SoundDuration":986968,"Delta":62952304},{"NoteNumber":46,"Velocity":30,"Duration":986968,"SoundDuration":986968,"Delta":62952304},{"NoteNumber":49,"Velocity":35,"Duration":986968,"SoundDuration":986968,"Delta":62952304},{"NoteNumber":55,"Velocity":30,"Duration":160102,"SoundDuration":160102,"Delta":63112406},{"NoteNumber":58,"Velocity":30,"Duration":160903,"SoundDuration":160903,"Delta":63272508},{"NoteNumber":61,"Velocity":36,"Duration":168619,"SoundDuration":168619,"Delta":63433412},{"NoteNumber":58,"Velocity":30,"Duration":168620,"SoundDuration":168620,"Delta":63602032},{"NoteNumber":55,"Velocity":30,"Duration":168619,"SoundDuration":168619,"Delta":63770652},{"NoteNumber":68,"Velocity":44,"Duration":1990477,"SoundDuration":1990477,"Delta":63939272},{"NoteNumber":49,"Velocity":29,"Duration":1990477,"SoundDuration":1990477,"Delta":63939272},{"NoteNumber":53,"Velocity":35,"Duration":1990477,"SoundDuration":1990477,"Delta":63939272},{"NoteNumber":56,"Velocity":26,"Duration":174967,"SoundDuration":174967,"Delta":64116100},{"NoteNumber":61,"Velocity":26,"Duration":173010,"SoundDuration":173010,"Delta":64291067},{"NoteNumber":65,"Velocity":29,"Duration":171350,"SoundDuration":171350,"Delta":64464078},{"NoteNumber":61,"Velocity":25,"Duration":168720,"SoundDuration":168720,"Delta":64635428},{"NoteNumber":56,"Velocity":25,"Duration":165948,"SoundDuration":165948,"Delta":64804148},{"NoteNumber":61,"Velocity":30,"Duration":163210,"SoundDuration":163210,"Delta":64970097},{"NoteNumber":56,"Velocity":26,"Duration":160612,"SoundDuration":160612,"Delta":65133308},{"NoteNumber":61,"Velocity":26,"Duration":158957,"SoundDuration":158957,"Delta":65293920},{"NoteNumber":65,"Velocity":30,"Duration":158957,"SoundDuration":158957,"Delta":65452877},{"NoteNumber":61,"Velocity":27,"Duration":158957,"SoundDuration":158957,"Delta":65611834},{"NoteNumber":56,"Velocity":27,"Duration":158957,"SoundDuration":158957,"Delta":65770792},{"NoteNumber":70,"Velocity":43,"Duration":1929343,"SoundDuration":1929343,"Delta":65929749},{"NoteNumber":46,"Velocity":34,"Duration":1929343,"SoundDuration":1929343,"Delta":65929749},{"NoteNumber":55,"Velocity":40,"Duration":1929343,"SoundDuration":1929343,"Delta":65929749},{"NoteNumber":52,"Velocity":34,"Duration":947934,"SoundDuration":947934,"Delta":65929749},{"NoteNumber":61,"Velocity":29,"Duration":155062,"SoundDuration":155062,"Delta":66084812},{"NoteNumber":64,"Velocity":31,"Duration":155062,"SoundDuration":155062,"Delta":66239874},{"NoteNumber":67,"Velocity":42,"Duration":160681,"SoundDuration":160681,"Delta":66394937},{"NoteNumber":64,"Velocity":38,"Duration":160681,"SoundDuration":160681,"Delta":66555618},{"NoteNumber":61,"Velocity":43,"Duration":161383,"SoundDuration":161383,"Delta":66716300},{"NoteNumber":63,"Velocity":48,"Duration":162442,"SoundDuration":162442,"Delta":66877684},{"NoteNumber":51,"Velocity":55,"Duration":981714,"SoundDuration":981714,"Delta":66883775},{"NoteNumber":61,"Velocity":52,"Duration":162443,"SoundDuration":162443,"Delta":67040127},{"NoteNumber":63,"Velocity":57,"Duration":162154,"SoundDuration":162154,"Delta":67202570},{"NoteNumber":67,"Velocity":62,"Duration":162868,"SoundDuration":162868,"Delta":67364724},{"NoteNumber":63,"Velocity":58,"Duration":164240,"SoundDuration":164240,"Delta":67527592},{"NoteNumber":61,"Velocity":60,"Duration":167260,"SoundDuration":167260,"Delta":67691833},{"NoteNumber":73,"Velocity":78,"Duration":1492429,"SoundDuration":1492429,"Delta":67859093},{"NoteNumber":44,"Velocity":41,"Duration":1976222,"SoundDuration":1976222,"Delta":67859093},{"NoteNumber":51,"Velocity":41,"Duration":1976222,"SoundDuration":1976222,"Delta":67859093},{"NoteNumber":55,"Velocity":50,"Duration":1492429,"SoundDuration":1492429,"Delta":67859093},{"NoteNumber":61,"Velocity":59,"Duration":168056,"SoundDuration":168056,"Delta":68028975},{"NoteNumber":63,"Velocity":57,"Duration":168214,"SoundDuration":168214,"Delta":68197031},{"NoteNumber":70,"Velocity":68,"Duration":167367,"SoundDuration":167367,"Delta":68365245},{"NoteNumber":63,"Velocity":42,"Duration":166115,"SoundDuration":166115,"Delta":68532612},{"NoteNumber":61,"Velocity":47,"Duration":164883,"SoundDuration":164883,"Delta":68698728},{"NoteNumber":63,"Velocity":56,"Duration":163811,"SoundDuration":163811,"Delta":68863612},{"NoteNumber":61,"Velocity":35,"Duration":162607,"SoundDuration":162607,"Delta":69027423},{"NoteNumber":63,"Velocity":36,"Duration":161491,"SoundDuration":161491,"Delta":69190030},{"NoteNumber":71,"Velocity":50,"Duration":483793,"SoundDuration":483793,"Delta":69351522},{"NoteNumber":68,"Velocity":37,"Duration":161264,"SoundDuration":161264,"Delta":69351522},{"NoteNumber":56,"Velocity":44,"Duration":483793,"SoundDuration":483793,"Delta":69351522},{"NoteNumber":63,"Velocity":33,"Duration":161264,"SoundDuration":161264,"Delta":69512787},{"NoteNumber":59,"Velocity":33,"Duration":161264,"SoundDuration":161264,"Delta":69674051},{"NoteNumber":71,"Velocity":41,"Duration":2027044,"SoundDuration":2027044,"Delta":69835315},{"NoteNumber":51,"Velocity":29,"Duration":2027044,"SoundDuration":2027044,"Delta":69835315},{"NoteNumber":56,"Velocity":35,"Duration":2027044,"SoundDuration":2027044,"Delta":69835315},{"NoteNumber":44,"Velocity":29,"Duration":1756628,"SoundDuration":1756628,"Delta":69835315},{"NoteNumber":59,"Velocity":28,"Duration":163038,"SoundDuration":163038,"Delta":69998354},{"NoteNumber":63,"Velocity":28,"Duration":163038,"SoundDuration":163038,"Delta":70161393},{"NoteNumber":68,"Velocity":30,"Duration":163039,"SoundDuration":163039,"Delta":70324432},{"NoteNumber":63,"Velocity":25,"Duration":163038,"SoundDuration":163038,"Delta":70487471},{"NoteNumber":59,"Velocity":25,"Duration":163499,"SoundDuration":163499,"Delta":70650510},{"NoteNumber":63,"Velocity":31,"Duration":167430,"SoundDuration":167430,"Delta":70814010},{"NoteNumber":59,"Velocity":25,"Duration":169183,"SoundDuration":169183,"Delta":70981440},{"NoteNumber":63,"Velocity":25,"Duration":170903,"SoundDuration":170903,"Delta":71150623},{"NoteNumber":68,"Velocity":29,"Duration":180277,"SoundDuration":180277,"Delta":71321527},{"NoteNumber":63,"Velocity":25,"Duration":180277,"SoundDuration":180277,"Delta":71501804},{"NoteNumber":42,"Velocity":60,"Duration":270416,"SoundDuration":270416,"Delta":71591943},{"NoteNumber":59,"Velocity":25,"Duration":180277,"SoundDuration":180277,"Delta":71682082},{"NoteNumber":71,"Velocity":54,"Duration":1988320,"SoundDuration":1988320,"Delta":71862360},{"NoteNumber":40,"Velocity":68,"Duration":1988320,"SoundDuration":1988320,"Delta":71862360},{"NoteNumber":59,"Velocity":33,"Duration":174967,"SoundDuration":174967,"Delta":72039187},{"NoteNumber":64,"Velocity":33,"Duration":173085,"SoundDuration":173085,"Delta":72214155},{"NoteNumber":68,"Velocity":37,"Duration":170862,"SoundDuration":170862,"Delta":72387241},{"NoteNumber":64,"Velocity":32,"Duration":167923,"SoundDuration":167923,"Delta":72558103},{"NoteNumber":59,"Velocity":32,"Duration":165061,"SoundDuration":165061,"Delta":72726027},{"NoteNumber":64,"Velocity":39,"Duration":162313,"SoundDuration":162313,"Delta":72891089},{"NoteNumber":59,"Velocity":33,"Duration":159688,"SoundDuration":159688,"Delta":73053402},{"NoteNumber":64,"Velocity":33,"Duration":159007,"SoundDuration":159007,"Delta":73213090},{"NoteNumber":68,"Velocity":43,"Duration":159527,"SoundDuration":159527,"Delta":73372098},{"NoteNumber":64,"Velocity":36,"Duration":159527,"SoundDuration":159527,"Delta":73531625},{"NoteNumber":59,"Velocity":37,"Duration":159527,"SoundDuration":159527,"Delta":73691153},{"NoteNumber":71,"Velocity":58,"Duration":949563,"SoundDuration":949563,"Delta":73850681},{"NoteNumber":39,"Velocity":55,"Duration":949563,"SoundDuration":949563,"Delta":73850681},{"NoteNumber":59,"Velocity":39,"Duration":155605,"SoundDuration":155605,"Delta":74006286},{"NoteNumber":63,"Velocity":40,"Duration":155605,"SoundDuration":155605,"Delta":74161892},{"NoteNumber":66,"Velocity":49,"Duration":160681,"SoundDuration":160681,"Delta":74317498},{"NoteNumber":63,"Velocity":43,"Duration":160681,"SoundDuration":160681,"Delta":74478179},{"NoteNumber":59,"Velocity":45,"Duration":161383,"SoundDuration":161383,"Delta":74638860},{"NoteNumber":73,"Velocity":54,"Duration":981409,"SoundDuration":981409,"Delta":74800244},{"NoteNumber":37,"Velocity":56,"Duration":97465,"SoundDuration":97465,"Delta":74800244},{"NoteNumber":39,"Velocity":38,"Duration":97465,"SoundDuration":97465,"Delta":74897710},{"NoteNumber":64,"Velocity":46,"Duration":162443,"SoundDuration":162443,"Delta":74962687},{"NoteNumber":37,"Velocity":45,"Duration":97465,"SoundDuration":97465,"Delta":74995176},{"NoteNumber":39,"Velocity":39,"Duration":97465,"SoundDuration":97465,"Delta":75092642},{"NoteNumber":66,"Velocity":49,"Duration":162154,"SoundDuration":162154,"Delta":75125130},{"NoteNumber":37,"Velocity":42,"Duration":97177,"SoundDuration":97177,"Delta":75190107},{"NoteNumber":70,"Velocity":62,"Duration":162868,"SoundDuration":162868,"Delta":75287285},{"NoteNumber":39,"Velocity":44,"Duration":97585,"SoundDuration":97585,"Delta":75287285},{"NoteNumber":37,"Velocity":55,"Duration":130823,"SoundDuration":130823,"Delta":75384870},{"NoteNumber":66,"Velocity":59,"Duration":164240,"SoundDuration":164240,"Delta":75450153},{"NoteNumber":35,"Velocity":46,"Duration":131711,"SoundDuration":131711,"Delta":75515694},{"NoteNumber":64,"Velocity":67,"Duration":167260,"SoundDuration":167260,"Delta":75614393},{"NoteNumber":37,"Velocity":56,"Duration":134248,"SoundDuration":134248,"Delta":75647405},{"NoteNumber":76,"Velocity":77,"Duration":1492364,"SoundDuration":1492364,"Delta":75781653},{"NoteNumber":35,"Velocity":67,"Duration":4002822,"SoundDuration":4002822,"Delta":75781653},{"NoteNumber":64,"Velocity":53,"Duration":168056,"SoundDuration":168056,"Delta":75951536},{"NoteNumber":66,"Velocity":52,"Duration":168214,"SoundDuration":168214,"Delta":76119592},{"NoteNumber":73,"Velocity":63,"Duration":167367,"SoundDuration":167367,"Delta":76287806},{"NoteNumber":66,"Velocity":46,"Duration":166115,"SoundDuration":166115,"Delta":76455173},{"NoteNumber":64,"Velocity":46,"Duration":164883,"SoundDuration":164883,"Delta":76621289},{"NoteNumber":66,"Velocity":54,"Duration":163811,"SoundDuration":163811,"Delta":76786172},{"NoteNumber":64,"Velocity":40,"Duration":162607,"SoundDuration":162607,"Delta":76949984},{"NoteNumber":66,"Velocity":40,"Duration":161426,"SoundDuration":161426,"Delta":77112591},{"NoteNumber":75,"Velocity":51,"Duration":496040,"SoundDuration":496040,"Delta":77274017},{"NoteNumber":71,"Velocity":51,"Duration":165078,"SoundDuration":165078,"Delta":77274017},{"NoteNumber":66,"Velocity":37,"Duration":165480,"SoundDuration":165480,"Delta":77439096},{"NoteNumber":63,"Velocity":37,"Duration":165480,"SoundDuration":165480,"Delta":77604577},{"NoteNumber":75,"Velocity":55,"Duration":2014417,"SoundDuration":2014417,"Delta":77770058},{"NoteNumber":63,"Velocity":35,"Duration":163038,"SoundDuration":163038,"Delta":77933097},{"NoteNumber":66,"Velocity":35,"Duration":163038,"SoundDuration":163038,"Delta":78096136},{"NoteNumber":71,"Velocity":45,"Duration":163039,"SoundDuration":163039,"Delta":78259175},{"NoteNumber":66,"Velocity":30,"Duration":163038,"SoundDuration":163038,"Delta":78422214},{"NoteNumber":63,"Velocity":32,"Duration":163499,"SoundDuration":163499,"Delta":78585253},{"NoteNumber":66,"Velocity":42,"Duration":163608,"SoundDuration":163608,"Delta":78748752},{"NoteNumber":63,"Velocity":31,"Duration":164706,"SoundDuration":164706,"Delta":78912361},{"NoteNumber":66,"Velocity":31,"Duration":166972,"SoundDuration":166972,"Delta":79077068},{"NoteNumber":71,"Velocity":41,"Duration":180277,"SoundDuration":180277,"Delta":79244040},{"NoteNumber":66,"Velocity":31,"Duration":180277,"SoundDuration":180277,"Delta":79424318},{"NoteNumber":63,"Velocity":31,"Duration":179879,"SoundDuration":179879,"Delta":79604595},{"NoteNumber":75,"Velocity":47,"Duration":1972970,"SoundDuration":1972970,"Delta":79784475},{"NoteNumber":47,"Velocity":29,"Duration":1972970,"SoundDuration":1972970,"Delta":79784475},{"NoteNumber":54,"Velocity":35,"Duration":1972970,"SoundDuration":1972970,"Delta":79784475},{"NoteNumber":63,"Velocity":32,"Duration":170779,"SoundDuration":170779,"Delta":79957503},{"NoteNumber":66,"Velocity":32,"Duration":168542,"SoundDuration":168542,"Delta":80128282},{"NoteNumber":71,"Velocity":37,"Duration":166373,"SoundDuration":166373,"Delta":80296825},{"NoteNumber":66,"Velocity":32,"Duration":164255,"SoundDuration":164255,"Delta":80463198},{"NoteNumber":63,"Velocity":33,"Duration":162185,"SoundDuration":162185,"Delta":80627454},{"NoteNumber":66,"Velocity":35,"Duration":161264,"SoundDuration":161264,"Delta":80789640},{"NoteNumber":63,"Velocity":31,"Duration":161264,"SoundDuration":161264,"Delta":80950904},{"NoteNumber":66,"Velocity":31,"Duration":161484,"SoundDuration":161484,"Delta":81112168},{"NoteNumber":71,"Velocity":36,"Duration":161264,"SoundDuration":161264,"Delta":81273653},{"NoteNumber":66,"Velocity":30,"Duration":161264,"SoundDuration":161264,"Delta":81434917},{"NoteNumber":63,"Velocity":30,"Duration":161264,"SoundDuration":161264,"Delta":81596182},{"NoteNumber":75,"Velocity":50,"Duration":487329,"SoundDuration":487329,"Delta":81757446},{"NoteNumber":47,"Velocity":29,"Duration":1955044,"SoundDuration":1955044,"Delta":81757446},{"NoteNumber":56,"Velocity":35,"Duration":974658,"SoundDuration":974658,"Delta":81757446},{"NoteNumber":68,"Velocity":29,"Duration":162443,"SoundDuration":162443,"Delta":81919889},{"NoteNumber":65,"Velocity":29,"Duration":162442,"SoundDuration":162442,"Delta":82082332},{"NoteNumber":74,"Velocity":48,"Duration":487329,"SoundDuration":487329,"Delta":82244775},{"NoteNumber":68,"Velocity":28,"Duration":162442,"SoundDuration":162442,"Delta":82407218},{"NoteNumber":65,"Velocity":28,"Duration":162443,"SoundDuration":162443,"Delta":82569661},{"NoteNumber":71,"Velocity":42,"Duration":489116,"SoundDuration":489116,"Delta":82732104},{"NoteNumber":53,"Velocity":35,"Duration":980386,"SoundDuration":980386,"Delta":82732104},{"NoteNumber":65,"Velocity":28,"Duration":163038,"SoundDuration":163038,"Delta":82895143},{"NoteNumber":62,"Velocity":28,"Duration":163038,"SoundDuration":163038,"Delta":83058182},{"NoteNumber":68,"Velocity":39,"Duration":491269,"SoundDuration":491269,"Delta":83221221},{"NoteNumber":65,"Velocity":28,"Duration":163639,"SoundDuration":163639,"Delta":83384860},{"NoteNumber":61,"Velocity":28,"Duration":163990,"SoundDuration":163990,"Delta":83548500},{"NoteNumber":73,"Velocity":47,"Duration":1954213,"SoundDuration":1954213,"Delta":83712490},{"NoteNumber":54,"Velocity":35,"Duration":1954213,"SoundDuration":1954213,"Delta":83712490},{"NoteNumber":46,"Velocity":29,"Duration":1954213,"SoundDuration":1954213,"Delta":83712490},{"NoteNumber":61,"Velocity":32,"Duration":167155,"SoundDuration":167155,"Delta":83881272},{"NoteNumber":66,"Velocity":32,"Duration":165636,"SoundDuration":165636,"Delta":84048427},{"NoteNumber":70,"Velocity":36,"Duration":164063,"SoundDuration":164063,"Delta":84214063},{"NoteNumber":66,"Velocity":32,"Duration":162592,"SoundDuration":162592,"Delta":84378127},{"NoteNumber":61,"Velocity":32,"Duration":161083,"SoundDuration":161083,"Delta":84540720},{"NoteNumber":66,"Velocity":36,"Duration":160102,"SoundDuration":160102,"Delta":84701803},{"NoteNumber":61,"Velocity":31,"Duration":160102,"SoundDuration":160102,"Delta":84861905},{"NoteNumber":66,"Velocity":31,"Duration":160903,"SoundDuration":160903,"Delta":85022008},{"NoteNumber":70,"Velocity":36,"Duration":161264,"SoundDuration":161264,"Delta":85182911},{"NoteNumber":66,"Velocity":30,"Duration":161264,"SoundDuration":161264,"Delta":85344176},{"NoteNumber":61,"Velocity":30,"Duration":161264,"SoundDuration":161264,"Delta":85505440},{"NoteNumber":73,"Velocity":46,"Duration":487329,"SoundDuration":487329,"Delta":85666704},{"NoteNumber":55,"Velocity":35,"Duration":487329,"SoundDuration":487329,"Delta":85666704},{"NoteNumber":47,"Velocity":29,"Duration":1463774,"SoundDuration":1463774,"Delta":85666704},{"NoteNumber":67,"Velocity":29,"Duration":162443,"SoundDuration":162443,"Delta":85829147},{"NoteNumber":63,"Velocity":29,"Duration":162442,"SoundDuration":162442,"Delta":85991590},{"NoteNumber":71,"Velocity":43,"Duration":487329,"SoundDuration":487329,"Delta":86154033},{"NoteNumber":56,"Velocity":35,"Duration":487329,"SoundDuration":487329,"Delta":86154033},{"NoteNumber":68,"Velocity":28,"Duration":162442,"SoundDuration":162442,"Delta":86316476},{"NoteNumber":63,"Velocity":28,"Duration":162443,"SoundDuration":162443,"Delta":86478919},{"NoteNumber":68,"Velocity":43,"Duration":489116,"SoundDuration":489116,"Delta":86641362},{"NoteNumber":51,"Velocity":35,"Duration":1006805,"SoundDuration":1006805,"Delta":86641362},{"NoteNumber":63,"Velocity":28,"Duration":163038,"SoundDuration":163038,"Delta":86804401},{"NoteNumber":59,"Velocity":28,"Duration":163038,"SoundDuration":163038,"Delta":86967440},{"NoteNumber":63,"Velocity":39,"Duration":517688,"SoundDuration":517688,"Delta":87130479},{"NoteNumber":48,"Velocity":29,"Duration":517688,"SoundDuration":517688,"Delta":87130479},{"NoteNumber":60,"Velocity":28,"Duration":172562,"SoundDuration":172562,"Delta":87303042},{"NoteNumber":56,"Velocity":28,"Duration":172562,"SoundDuration":172562,"Delta":87475605},{"NoteNumber":66,"Velocity":47,"Duration":1954213,"SoundDuration":1954213,"Delta":87648167},{"NoteNumber":49,"Velocity":35,"Duration":1954213,"SoundDuration":1954213,"Delta":87648167},{"NoteNumber":54,"Velocity":29,"Duration":167155,"SoundDuration":167155,"Delta":87816949},{"NoteNumber":58,"Velocity":29,"Duration":165636,"SoundDuration":165636,"Delta":87984104},{"NoteNumber":61,"Velocity":34,"Duration":164063,"SoundDuration":164063,"Delta":88149740},{"NoteNumber":58,"Velocity":29,"Duration":162592,"SoundDuration":162592,"Delta":88313804},{"NoteNumber":54,"Velocity":30,"Duration":161083,"SoundDuration":161083,"Delta":88476396},{"NoteNumber":58,"Velocity":34,"Duration":160102,"SoundDuration":160102,"Delta":88637480},{"NoteNumber":54,"Velocity":30,"Duration":160102,"SoundDuration":160102,"Delta":88797582},{"NoteNumber":58,"Velocity":30,"Duration":160903,"SoundDuration":160903,"Delta":88957684},{"NoteNumber":61,"Velocity":36,"Duration":161264,"SoundDuration":161264,"Delta":89118588},{"NoteNumber":58,"Velocity":30,"Duration":161264,"SoundDuration":161264,"Delta":89279852},{"NoteNumber":54,"Velocity":30,"Duration":161264,"SoundDuration":161264,"Delta":89441117},{"NoteNumber":37,"Velocity":35,"Duration":120948,"SoundDuration":120948,"Delta":89481433},{"NoteNumber":66,"Velocity":45,"Duration":487329,"SoundDuration":487329,"Delta":89602381},{"NoteNumber":49,"Velocity":35,"Duration":1981463,"SoundDuration":1981463,"Delta":89602381},{"NoteNumber":59,"Velocity":29,"Duration":162443,"SoundDuration":162443,"Delta":89764824},{"NoteNumber":56,"Velocity":29,"Duration":162442,"SoundDuration":162442,"Delta":89927267},{"NoteNumber":65,"Velocity":41,"Duration":487329,"SoundDuration":487329,"Delta":90089710},{"NoteNumber":59,"Velocity":28,"Duration":162442,"SoundDuration":162442,"Delta":90252153},{"NoteNumber":56,"Velocity":28,"Duration":162443,"SoundDuration":162443,"Delta":90414596},{"NoteNumber":70,"Velocity":42,"Duration":489116,"SoundDuration":489116,"Delta":90577039},{"NoteNumber":54,"Velocity":35,"Duration":489116,"SoundDuration":489116,"Delta":90577039},{"NoteNumber":61,"Velocity":28,"Duration":163038,"SoundDuration":163038,"Delta":90740078},{"NoteNumber":59,"Velocity":28,"Duration":163038,"SoundDuration":163038,"Delta":90903117},{"NoteNumber":68,"Velocity":39,"Duration":517688,"SoundDuration":517688,"Delta":91066156},{"NoteNumber":53,"Velocity":35,"Duration":517688,"SoundDuration":517688,"Delta":91066156},{"NoteNumber":61,"Velocity":26,"Duration":172562,"SoundDuration":172562,"Delta":91238719},{"NoteNumber":59,"Velocity":26,"Duration":172562,"SoundDuration":172562,"Delta":91411281},{"NoteNumber":66,"Velocity":47,"Duration":3930494,"SoundDuration":3930494,"Delta":91583844},{"NoteNumber":42,"Velocity":30,"Duration":2943526,"SoundDuration":2943526,"Delta":91583844},{"NoteNumber":49,"Velocity":35,"Duration":2943526,"SoundDuration":2943526,"Delta":91583844},{"NoteNumber":54,"Velocity":29,"Duration":167155,"SoundDuration":167155,"Delta":91752625},{"NoteNumber":58,"Velocity":29,"Duration":165636,"SoundDuration":165636,"Delta":91919780},{"NoteNumber":61,"Velocity":33,"Duration":164063,"SoundDuration":164063,"Delta":92085417},{"NoteNumber":58,"Velocity":29,"Duration":162592,"SoundDuration":162592,"Delta":92249480},{"NoteNumber":54,"Velocity":29,"Duration":161083,"SoundDuration":161083,"Delta":92412073},{"NoteNumber":58,"Velocity":32,"Duration":160102,"SoundDuration":160102,"Delta":92573156},{"NoteNumber":54,"Velocity":30,"Duration":160102,"SoundDuration":160102,"Delta":92733259},{"NoteNumber":58,"Velocity":30,"Duration":160903,"SoundDuration":160903,"Delta":92893361},{"NoteNumber":61,"Velocity":36,"Duration":161264,"SoundDuration":161264,"Delta":93054265},{"NoteNumber":58,"Velocity":30,"Duration":161264,"SoundDuration":161264,"Delta":93215529},{"NoteNumber":54,"Velocity":30,"Duration":161264,"SoundDuration":161264,"Delta":93376793},{"NoteNumber":58,"Velocity":37,"Duration":168781,"SoundDuration":168781,"Delta":93538058},{"NoteNumber":54,"Velocity":29,"Duration":167155,"SoundDuration":167155,"Delta":93706839},{"NoteNumber":58,"Velocity":29,"Duration":165636,"SoundDuration":165636,"Delta":93873994},{"NoteNumber":61,"Velocity":32,"Duration":164063,"SoundDuration":164063,"Delta":94039630},{"NoteNumber":58,"Velocity":29,"Duration":162592,"SoundDuration":162592,"Delta":94203694},{"NoteNumber":54,"Velocity":45,"Duration":161083,"SoundDuration":161083,"Delta":94366287},{"NoteNumber":58,"Velocity":48,"Duration":160102,"SoundDuration":160102,"Delta":94527370},{"NoteNumber":50,"Velocity":55,"Duration":986968,"SoundDuration":986968,"Delta":94527370},{"NoteNumber":41,"Velocity":55,"Duration":986968,"SoundDuration":986968,"Delta":94527370},{"NoteNumber":54,"Velocity":51,"Duration":160102,"SoundDuration":160102,"Delta":94687473},{"NoteNumber":58,"Velocity":53,"Duration":160903,"SoundDuration":160903,"Delta":94847575},{"NoteNumber":62,"Velocity":56,"Duration":168620,"SoundDuration":168620,"Delta":95008479},{"NoteNumber":58,"Velocity":59,"Duration":168619,"SoundDuration":168619,"Delta":95177099},{"NoteNumber":54,"Velocity":61,"Duration":168620,"SoundDuration":168620,"Delta":95345719},{"NoteNumber":70,"Velocity":76,"Duration":1954213,"SoundDuration":1954213,"Delta":95514339},{"NoteNumber":39,"Velocity":58,"Duration":1470420,"SoundDuration":1470420,"Delta":95514339},{"NoteNumber":51,"Velocity":58,"Duration":1470420,"SoundDuration":1470420,"Delta":95514339},{"NoteNumber":58,"Velocity":50,"Duration":167155,"SoundDuration":167155,"Delta":95683120},{"NoteNumber":63,"Velocity":50,"Duration":165636,"SoundDuration":165636,"Delta":95850275},{"NoteNumber":66,"Velocity":63,"Duration":164063,"SoundDuration":164063,"Delta":96015911},{"NoteNumber":63,"Velocity":49,"Duration":162592,"SoundDuration":162592,"Delta":96179975},{"NoteNumber":58,"Velocity":48,"Duration":161083,"SoundDuration":161083,"Delta":96342568},{"NoteNumber":63,"Velocity":61,"Duration":160102,"SoundDuration":160102,"Delta":96503651},{"NoteNumber":58,"Velocity":48,"Duration":160102,"SoundDuration":160102,"Delta":96663753},{"NoteNumber":63,"Velocity":48,"Duration":160903,"SoundDuration":160903,"Delta":96823856},{"NoteNumber":66,"Velocity":55,"Duration":161264,"SoundDuration":161264,"Delta":96984759},{"NoteNumber":39,"Velocity":57,"Duration":161264,"SoundDuration":161264,"Delta":96984759},{"NoteNumber":63,"Velocity":47,"Duration":161264,"SoundDuration":161264,"Delta":97146024},{"NoteNumber":41,"Velocity":61,"Duration":161264,"SoundDuration":161264,"Delta":97146024},{"NoteNumber":58,"Velocity":47,"Duration":161264,"SoundDuration":161264,"Delta":97307288},{"NoteNumber":42,"Velocity":65,"Duration":161264,"SoundDuration":161264,"Delta":97307288},{"NoteNumber":70,"Velocity":73,"Duration":1976280,"SoundDuration":1976280,"Delta":97468552},{"NoteNumber":42,"Velocity":69,"Duration":1470420,"SoundDuration":1470420,"Delta":97468552},{"NoteNumber":58,"Velocity":44,"Duration":167155,"SoundDuration":167155,"Delta":97637334},{"NoteNumber":63,"Velocity":44,"Duration":165636,"SoundDuration":165636,"Delta":97804489},{"NoteNumber":66,"Velocity":53,"Duration":164063,"SoundDuration":164063,"Delta":97970125},{"NoteNumber":63,"Velocity":43,"Duration":162592,"SoundDuration":162592,"Delta":98134189},{"NoteNumber":58,"Velocity":43,"Duration":161083,"SoundDuration":161083,"Delta":98296782},{"NoteNumber":63,"Velocity":55,"Duration":160102,"SoundDuration":160102,"Delta":98457865},{"NoteNumber":58,"Velocity":44,"Duration":160102,"SoundDuration":160102,"Delta":98617967},{"NoteNumber":63,"Velocity":45,"Duration":160903,"SoundDuration":160903,"Delta":98778069},{"NoteNumber":66,"Velocity":51,"Duration":168620,"SoundDuration":168620,"Delta":98938973},{"NoteNumber":42,"Velocity":60,"Duration":168620,"SoundDuration":168620,"Delta":98938973},{"NoteNumber":63,"Velocity":46,"Duration":168619,"SoundDuration":168619,"Delta":99107593},{"NoteNumber":44,"Velocity":63,"Duration":168619,"SoundDuration":168619,"Delta":99107593},{"NoteNumber":58,"Velocity":46,"Duration":168620,"SoundDuration":168620,"Delta":99276213},{"NoteNumber":46,"Velocity":67,"Duration":168620,"SoundDuration":168620,"Delta":99276213},{"NoteNumber":70,"Velocity":68,"Duration":505859,"SoundDuration":505859,"Delta":99444833},{"NoteNumber":46,"Velocity":77,"Duration":3996822,"SoundDuration":3996822,"Delta":99444833},{"NoteNumber":62,"Velocity":54,"Duration":168620,"SoundDuration":168620,"Delta":99613453},{"NoteNumber":65,"Velocity":54,"Duration":168619,"SoundDuration":168619,"Delta":99782073},{"NoteNumber":77,"Velocity":65,"Duration":492772,"SoundDuration":492772,"Delta":99950693},{"NoteNumber":59,"Velocity":56,"Duration":492772,"SoundDuration":492772,"Delta":99950693},{"NoteNumber":65,"Velocity":44,"Duration":164257,"SoundDuration":164257,"Delta":100114951},{"NoteNumber":68,"Velocity":44,"Duration":164257,"SoundDuration":164257,"Delta":100279208},{"NoteNumber":74,"Velocity":61,"Duration":485555,"SoundDuration":485555,"Delta":100443466},{"NoteNumber":56,"Velocity":54,"Duration":485555,"SoundDuration":485555,"Delta":100443466},{"NoteNumber":65,"Velocity":41,"Duration":161851,"SoundDuration":161851,"Delta":100605318},{"NoteNumber":68,"Velocity":41,"Duration":161851,"SoundDuration":161851,"Delta":100767169},{"NoteNumber":71,"Velocity":52,"Duration":511726,"SoundDuration":511726,"Delta":100929021},{"NoteNumber":53,"Velocity":49,"Duration":511726,"SoundDuration":511726,"Delta":100929021},{"NoteNumber":65,"Velocity":35,"Duration":170575,"SoundDuration":170575,"Delta":101099597},{"NoteNumber":68,"Velocity":35,"Duration":170575,"SoundDuration":170575,"Delta":101270172},{"NoteNumber":71,"Velocity":53,"Duration":498296,"SoundDuration":498296,"Delta":101440748},{"NoteNumber":50,"Velocity":49,"Duration":1752686,"SoundDuration":1752686,"Delta":101440748},{"NoteNumber":65,"Velocity":38,"Duration":166099,"SoundDuration":166099,"Delta":101606847},{"NoteNumber":68,"Velocity":38,"Duration":166098,"SoundDuration":166098,"Delta":101772946},{"NoteNumber":70,"Velocity":50,"Duration":509726,"SoundDuration":509726,"Delta":101939045},{"NoteNumber":65,"Velocity":35,"Duration":169908,"SoundDuration":169908,"Delta":102108954},{"NoteNumber":68,"Velocity":35,"Duration":169909,"SoundDuration":169909,"Delta":102278863},{"NoteNumber":70,"Velocity":49,"Duration":496442,"SoundDuration":496442,"Delta":102448772},{"NoteNumber":58,"Velocity":37,"Duration":165480,"SoundDuration":165480,"Delta":102614253},{"NoteNumber":65,"Velocity":38,"Duration":165480,"SoundDuration":165480,"Delta":102779733},{"NoteNumber":68,"Velocity":47,"Duration":496442,"SoundDuration":496442,"Delta":102945214},{"NoteNumber":58,"Velocity":32,"Duration":165480,"SoundDuration":165480,"Delta":103110695},{"NoteNumber":48,"Velocity":35,"Duration":124110,"SoundDuration":124110,"Delta":103193435},{"NoteNumber":65,"Velocity":31,"Duration":165480,"SoundDuration":165480,"Delta":103276175},{"NoteNumber":50,"Velocity":35,"Duration":124110,"SoundDuration":124110,"Delta":103317546},{"NoteNumber":68,"Velocity":44,"Duration":482044,"SoundDuration":482044,"Delta":103441656},{"NoteNumber":51,"Velocity":44,"Duration":976645,"SoundDuration":976645,"Delta":103441656},{"NoteNumber":58,"Velocity":33,"Duration":160681,"SoundDuration":160681,"Delta":103602337},{"NoteNumber":63,"Velocity":35,"Duration":160681,"SoundDuration":160681,"Delta":103763019},{"NoteNumber":66,"Velocity":44,"Duration":494601,"SoundDuration":494601,"Delta":103923700},{"NoteNumber":58,"Velocity":32,"Duration":164867,"SoundDuration":164867,"Delta":104088567},{"NoteNumber":63,"Velocity":32,"Duration":164867,"SoundDuration":164867,"Delta":104253434},{"NoteNumber":65,"Velocity":40,"Duration":482044,"SoundDuration":482044,"Delta":104418301},{"NoteNumber":44,"Velocity":44,"Duration":974817,"SoundDuration":974817,"Delta":104418301},{"NoteNumber":56,"Velocity":31,"Duration":160681,"SoundDuration":160681,"Delta":104578982},{"NoteNumber":59,"Velocity":31,"Duration":160681,"SoundDuration":160681,"Delta":104739664},{"NoteNumber":68,"Velocity":44,"Duration":492772,"SoundDuration":492772,"Delta":104900345},{"NoteNumber":56,"Velocity":30,"Duration":164257,"SoundDuration":164257,"Delta":105064603},{"NoteNumber":59,"Velocity":30,"Duration":164257,"SoundDuration":164257,"Delta":105228860},{"NoteNumber":63,"Velocity":42,"Duration":965862,"SoundDuration":965862,"Delta":105393118},{"NoteNumber":46,"Velocity":42,"Duration":1453191,"SoundDuration":1453191,"Delta":105393118},{"NoteNumber":51,"Velocity":32,"Duration":160102,"SoundDuration":160102,"Delta":105553220},{"NoteNumber":54,"Velocity":32,"Duration":160102,"SoundDuration":160102,"Delta":105713323},{"NoteNumber":58,"Velocity":39,"Duration":161851,"SoundDuration":161851,"Delta":105873425},{"NoteNumber":54,"Velocity":32,"Duration":161851,"SoundDuration":161851,"Delta":106035277},{"NoteNumber":51,"Velocity":32,"Duration":161851,"SoundDuration":161851,"Delta":106197128},{"NoteNumber":62,"Velocity":42,"Duration":737412,"SoundDuration":737412,"Delta":106358980},{"NoteNumber":50,"Velocity":33,"Duration":162443,"SoundDuration":162443,"Delta":106521423},{"NoteNumber":53,"Velocity":33,"Duration":162442,"SoundDuration":162442,"Delta":106683866},{"NoteNumber":58,"Velocity":43,"Duration":166722,"SoundDuration":166722,"Delta":106846309},{"NoteNumber":44,"Velocity":59,"Duration":166722,"SoundDuration":166722,"Delta":106846309},{"NoteNumber":53,"Velocity":48,"Duration":166722,"SoundDuration":166722,"Delta":107013031},{"NoteNumber":42,"Velocity":62,"Duration":166722,"SoundDuration":166722,"Delta":107013031},{"NoteNumber":70,"Velocity":54,"Duration":156302,"SoundDuration":156302,"Delta":107179754},{"NoteNumber":41,"Velocity":66,"Duration":166722,"SoundDuration":166722,"Delta":107179754},{"NoteNumber":70,"Velocity":66,"Duration":1954213,"SoundDuration":1954213,"Delta":107346476},{"NoteNumber":39,"Velocity":69,"Duration":1470420,"SoundDuration":1470420,"Delta":107346476},{"NoteNumber":51,"Velocity":69,"Duration":1470420,"SoundDuration":1470420,"Delta":107346476},{"NoteNumber":58,"Velocity":48,"Duration":167155,"SoundDuration":167155,"Delta":107515257},{"NoteNumber":63,"Velocity":48,"Duration":165636,"SoundDuration":165636,"Delta":107682412},{"NoteNumber":66,"Velocity":56,"Duration":164063,"SoundDuration":164063,"Delta":107848049},{"NoteNumber":63,"Velocity":48,"Duration":162592,"SoundDuration":162592,"Delta":108012112},{"NoteNumber":58,"Velocity":48,"Duration":161083,"SoundDuration":161083,"Delta":108174705},{"NoteNumber":63,"Velocity":56,"Duration":160102,"SoundDuration":160102,"Delta":108335789},{"NoteNumber":58,"Velocity":48,"Duration":160102,"SoundDuration":160102,"Delta":108495891},{"NoteNumber":63,"Velocity":48,"Duration":160903,"SoundDuration":160903,"Delta":108655993},{"NoteNumber":66,"Velocity":48,"Duration":161264,"SoundDuration":161264,"Delta":108816897},{"NoteNumber":39,"Velocity":61,"Duration":161264,"SoundDuration":161264,"Delta":108816897},{"NoteNumber":63,"Velocity":48,"Duration":161264,"SoundDuration":161264,"Delta":108978161},{"NoteNumber":41,"Velocity":64,"Duration":161264,"SoundDuration":161264,"Delta":108978161},{"NoteNumber":58,"Velocity":44,"Duration":161264,"SoundDuration":161264,"Delta":109139425},{"NoteNumber":42,"Velocity":67,"Duration":161264,"SoundDuration":161264,"Delta":109139425},{"NoteNumber":70,"Velocity":62,"Duration":1470420,"SoundDuration":1470420,"Delta":109300690},{"NoteNumber":42,"Velocity":70,"Duration":1470420,"SoundDuration":1470420,"Delta":109300690},{"NoteNumber":58,"Velocity":41,"Duration":167155,"SoundDuration":167155,"Delta":109469471},{"NoteNumber":63,"Velocity":44,"Duration":165636,"SoundDuration":165636,"Delta":109636626},{"NoteNumber":66,"Velocity":49,"Duration":164063,"SoundDuration":164063,"Delta":109802262},{"NoteNumber":63,"Velocity":45,"Duration":162592,"SoundDuration":162592,"Delta":109966326},{"NoteNumber":58,"Velocity":44,"Duration":161083,"SoundDuration":161083,"Delta":110128919},{"NoteNumber":63,"Velocity":51,"Duration":160102,"SoundDuration":160102,"Delta":110290002},{"NoteNumber":58,"Velocity":47,"Duration":160102,"SoundDuration":160102,"Delta":110450105},{"NoteNumber":63,"Velocity":44,"Duration":160903,"SoundDuration":160903,"Delta":110610207},{"NoteNumber":71,"Velocity":60,"Duration":505859,"SoundDuration":505859,"Delta":110771111},{"NoteNumber":66,"Velocity":47,"Duration":168620,"SoundDuration":168620,"Delta":110771111},{"NoteNumber":42,"Velocity":58,"Duration":168620,"SoundDuration":168620,"Delta":110771111},{"NoteNumber":63,"Velocity":42,"Duration":168619,"SoundDuration":168619,"Delta":110939731},{"NoteNumber":44,"Velocity":61,"Duration":168619,"SoundDuration":168619,"Delta":110939731},{"NoteNumber":58,"Velocity":42,"Duration":168620,"SoundDuration":168620,"Delta":111108351},{"NoteNumber":46,"Velocity":64,"Duration":168620,"SoundDuration":168620,"Delta":111108351},{"NoteNumber":70,"Velocity":55,"Duration":505859,"SoundDuration":505859,"Delta":111276971},{"NoteNumber":46,"Velocity":74,"Duration":3978013,"SoundDuration":3978013,"Delta":111276971},{"NoteNumber":62,"Velocity":46,"Duration":168620,"SoundDuration":168620,"Delta":111445591},{"NoteNumber":65,"Velocity":46,"Duration":168619,"SoundDuration":168619,"Delta":111614211},{"NoteNumber":77,"Velocity":59,"Duration":492772,"SoundDuration":492772,"Delta":111782831},{"NoteNumber":59,"Velocity":56,"Duration":492772,"SoundDuration":492772,"Delta":111782831},{"NoteNumber":65,"Velocity":44,"Duration":164257,"SoundDuration":164257,"Delta":111947088},{"NoteNumber":68,"Velocity":44,"Duration":164257,"SoundDuration":164257,"Delta":112111346},{"NoteNumber":74,"Velocity":53,"Duration":485555,"SoundDuration":485555,"Delta":112275604},{"NoteNumber":56,"Velocity":54,"Duration":485555,"SoundDuration":485555,"Delta":112275604},{"NoteNumber":65,"Velocity":41,"Duration":161851,"SoundDuration":161851,"Delta":112437455},{"NoteNumber":68,"Velocity":41,"Duration":161851,"SoundDuration":161851,"Delta":112599307},{"NoteNumber":71,"Velocity":47,"Duration":511726,"SoundDuration":511726,"Delta":112761159},{"NoteNumber":53,"Velocity":49,"Duration":511726,"SoundDuration":511726,"Delta":112761159},{"NoteNumber":65,"Velocity":35,"Duration":170575,"SoundDuration":170575,"Delta":112931734},{"NoteNumber":68,"Velocity":35,"Duration":170575,"SoundDuration":170575,"Delta":113102310},{"NoteNumber":70,"Velocity":53,"Duration":498296,"SoundDuration":498296,"Delta":113272886},{"NoteNumber":50,"Velocity":49,"Duration":989214,"SoundDuration":989214,"Delta":113272886},{"NoteNumber":65,"Velocity":38,"Duration":166099,"SoundDuration":166099,"Delta":113438985},{"NoteNumber":68,"Velocity":38,"Duration":166098,"SoundDuration":166098,"Delta":113605084},{"NoteNumber":71,"Velocity":50,"Duration":490917,"SoundDuration":490917,"Delta":113771183},{"NoteNumber":65,"Velocity":35,"Duration":163639,"SoundDuration":163639,"Delta":113934822},{"NoteNumber":68,"Velocity":35,"Duration":163639,"SoundDuration":163639,"Delta":114098461},{"NoteNumber":70,"Velocity":49,"Duration":496442,"SoundDuration":496442,"Delta":114262101},{"NoteNumber":50,"Velocity":35,"Duration":99288,"SoundDuration":99288,"Delta":114262101},{"NoteNumber":51,"Velocity":30,"Duration":99288,"SoundDuration":99288,"Delta":114361389},{"NoteNumber":58,"Velocity":37,"Duration":165480,"SoundDuration":165480,"Delta":114427581},{"NoteNumber":50,"Velocity":35,"Duration":88945,"SoundDuration":88945,"Delta":114460677},{"NoteNumber":51,"Velocity":30,"Duration":87911,"SoundDuration":87911,"Delta":114549623},{"NoteNumber":65,"Velocity":38,"Duration":165480,"SoundDuration":165480,"Delta":114593062},{"NoteNumber":50,"Velocity":35,"Duration":88945,"SoundDuration":88945,"Delta":114637535},{"NoteNumber":51,"Velocity":30,"Duration":87911,"SoundDuration":87911,"Delta":114726481},{"NoteNumber":68,"Velocity":47,"Duration":496442,"SoundDuration":496442,"Delta":114758543},{"NoteNumber":50,"Velocity":35,"Duration":88945,"SoundDuration":88945,"Delta":114814392},{"NoteNumber":51,"Velocity":32,"Duration":88945,"SoundDuration":88945,"Delta":114902304},{"NoteNumber":58,"Velocity":32,"Duration":165480,"SoundDuration":165480,"Delta":114924023},{"NoteNumber":50,"Velocity":35,"Duration":87911,"SoundDuration":87911,"Delta":114991250},{"NoteNumber":48,"Velocity":32,"Duration":88945,"SoundDuration":88945,"Delta":115079161},{"NoteNumber":65,"Velocity":31,"Duration":165480,"SoundDuration":165480,"Delta":115089504},{"NoteNumber":50,"Velocity":38,"Duration":87911,"SoundDuration":87911,"Delta":115167073},{"NoteNumber":68,"Velocity":44,"Duration":160681,"SoundDuration":160681,"Delta":115254985},{"NoteNumber":51,"Velocity":44,"Duration":976645,"SoundDuration":976645,"Delta":115254985},{"NoteNumber":58,"Velocity":33,"Duration":160681,"SoundDuration":160681,"Delta":115415666},{"NoteNumber":63,"Velocity":35,"Duration":160681,"SoundDuration":160681,"Delta":115576347},{"NoteNumber":66,"Velocity":44,"Duration":164867,"SoundDuration":164867,"Delta":115737029},{"NoteNumber":58,"Velocity":32,"Duration":164867,"SoundDuration":164867,"Delta":115901896},{"NoteNumber":63,"Velocity":32,"Duration":164867,"SoundDuration":164867,"Delta":116066763},{"NoteNumber":65,"Velocity":40,"Duration":160681,"SoundDuration":160681,"Delta":116231630},{"NoteNumber":44,"Velocity":44,"Duration":974817,"SoundDuration":974817,"Delta":116231630},{"NoteNumber":56,"Velocity":31,"Duration":160681,"SoundDuration":160681,"Delta":116392311},{"NoteNumber":59,"Velocity":31,"Duration":160681,"SoundDuration":160681,"Delta":116552992},{"NoteNumber":71,"Velocity":44,"Duration":164257,"SoundDuration":164257,"Delta":116713674},{"NoteNumber":59,"Velocity":30,"Duration":164257,"SoundDuration":164257,"Delta":116877931},{"NoteNumber":65,"Velocity":30,"Duration":164257,"SoundDuration":164257,"Delta":117042189},{"NoteNumber":63,"Velocity":42,"Duration":965862,"SoundDuration":965862,"Delta":117206447},{"NoteNumber":46,"Velocity":42,"Duration":1453191,"SoundDuration":1453191,"Delta":117206447},{"NoteNumber":51,"Velocity":32,"Duration":160102,"SoundDuration":160102,"Delta":117366549},{"NoteNumber":54,"Velocity":32,"Duration":160102,"SoundDuration":160102,"Delta":117526651},{"NoteNumber":58,"Velocity":32,"Duration":161851,"SoundDuration":161851,"Delta":117686754},{"NoteNumber":54,"Velocity":32,"Duration":161851,"SoundDuration":161851,"Delta":117848605},{"NoteNumber":51,"Velocity":32,"Duration":161851,"SoundDuration":161851,"Delta":118010457},{"NoteNumber":62,"Velocity":42,"Duration":737412,"SoundDuration":737412,"Delta":118172309},{"NoteNumber":50,"Velocity":33,"Duration":162443,"SoundDuration":162443,"Delta":118334752},{"NoteNumber":58,"Velocity":33,"Duration":162442,"SoundDuration":162442,"Delta":118497195},{"NoteNumber":53,"Velocity":33,"Duration":162442,"SoundDuration":162442,"Delta":118497195},{"NoteNumber":70,"Velocity":33,"Duration":500167,"SoundDuration":500167,"Delta":118659638},{"NoteNumber":38,"Velocity":35,"Duration":500167,"SoundDuration":500167,"Delta":118659638},{"NoteNumber":50,"Velocity":40,"Duration":500167,"SoundDuration":500167,"Delta":118659638},{"NoteNumber":58,"Velocity":33,"Duration":166722,"SoundDuration":166722,"Delta":118826360},{"NoteNumber":65,"Velocity":44,"Duration":166722,"SoundDuration":166722,"Delta":118993082},{"NoteNumber":68,"Velocity":37,"Duration":160681,"SoundDuration":160681,"Delta":119159805},{"NoteNumber":39,"Velocity":31,"Duration":976645,"SoundDuration":976645,"Delta":119159805},{"NoteNumber":51,"Velocity":37,"Duration":976645,"SoundDuration":976645,"Delta":119159805},{"NoteNumber":58,"Velocity":28,"Duration":160681,"SoundDuration":160681,"Delta":119320486},{"NoteNumber":63,"Velocity":29,"Duration":160681,"SoundDuration":160681,"Delta":119481167},{"NoteNumber":66,"Velocity":37,"Duration":164867,"SoundDuration":164867,"Delta":119641849},{"NoteNumber":58,"Velocity":27,"Duration":164867,"SoundDuration":164867,"Delta":119806716},{"NoteNumber":63,"Velocity":27,"Duration":164867,"SoundDuration":164867,"Delta":119971583},{"NoteNumber":64,"Velocity":34,"Duration":160681,"SoundDuration":160681,"Delta":120136450},{"NoteNumber":32,"Velocity":31,"Duration":974817,"SoundDuration":974817,"Delta":120136450},{"NoteNumber":44,"Velocity":37,"Duration":974817,"SoundDuration":974817,"Delta":120136450},{"NoteNumber":56,"Velocity":26,"Duration":160681,"SoundDuration":160681,"Delta":120297131},{"NoteNumber":59,"Velocity":26,"Duration":160681,"SoundDuration":160681,"Delta":120457812},{"NoteNumber":71,"Velocity":37,"Duration":164257,"SoundDuration":164257,"Delta":120618494},{"NoteNumber":59,"Velocity":25,"Duration":164257,"SoundDuration":164257,"Delta":120782751},{"NoteNumber":64,"Velocity":25,"Duration":164257,"SoundDuration":164257,"Delta":120947009},{"NoteNumber":63,"Velocity":35,"Duration":965862,"SoundDuration":965862,"Delta":121111267},{"NoteNumber":42,"Velocity":35,"Duration":965862,"SoundDuration":965862,"Delta":121111267},{"NoteNumber":30,"Velocity":29,"Duration":965862,"SoundDuration":965862,"Delta":121111267},{"NoteNumber":51,"Velocity":27,"Duration":160102,"SoundDuration":160102,"Delta":121271369},{"NoteNumber":54,"Velocity":27,"Duration":160102,"SoundDuration":160102,"Delta":121431471},{"NoteNumber":59,"Velocity":27,"Duration":161851,"SoundDuration":161851,"Delta":121591574},{"NoteNumber":54,"Velocity":27,"Duration":161851,"SoundDuration":161851,"Delta":121753425},{"NoteNumber":51,"Velocity":27,"Duration":161851,"SoundDuration":161851,"Delta":121915277},{"NoteNumber":61,"Velocity":35,"Duration":987496,"SoundDuration":987496,"Delta":122077129},{"NoteNumber":40,"Velocity":35,"Duration":987496,"SoundDuration":987496,"Delta":122077129},{"NoteNumber":49,"Velocity":28,"Duration":162443,"SoundDuration":162443,"Delta":122239572},{"NoteNumber":54,"Velocity":28,"Duration":162442,"SoundDuration":162442,"Delta":122402015},{"NoteNumber":58,"Velocity":28,"Duration":166722,"SoundDuration":166722,"Delta":122564458},{"NoteNumber":54,"Velocity":28,"Duration":166722,"SoundDuration":166722,"Delta":122731180},{"NoteNumber":49,"Velocity":31,"Duration":166722,"SoundDuration":166722,"Delta":122897902},{"NoteNumber":66,"Velocity":39,"Duration":1954175,"SoundDuration":1954175,"Delta":123064625},{"NoteNumber":39,"Velocity":35,"Duration":1954175,"SoundDuration":1954175,"Delta":123064625},{"NoteNumber":54,"Velocity":24,"Duration":165779,"SoundDuration":165779,"Delta":123231661},{"NoteNumber":59,"Velocity":24,"Duration":164166,"SoundDuration":164166,"Delta":123397440},{"NoteNumber":63,"Velocity":24,"Duration":162511,"SoundDuration":162511,"Delta":123561607},{"NoteNumber":59,"Velocity":24,"Duration":161038,"SoundDuration":161038,"Delta":123724118},{"NoteNumber":54,"Velocity":24,"Duration":160681,"SoundDuration":160681,"Delta":123885157},{"NoteNumber":59,"Velocity":27,"Duration":160681,"SoundDuration":160681,"Delta":124045838},{"NoteNumber":54,"Velocity":24,"Duration":160681,"SoundDuration":160681,"Delta":124206520},{"NoteNumber":59,"Velocity":22,"Duration":160681,"SoundDuration":160681,"Delta":124367201},{"NoteNumber":63,"Velocity":25,"Duration":163639,"SoundDuration":163639,"Delta":124527882},{"NoteNumber":59,"Velocity":23,"Duration":163639,"SoundDuration":163639,"Delta":124691522},{"NoteNumber":54,"Velocity":22,"Duration":163639,"SoundDuration":163639,"Delta":124855161},{"NoteNumber":66,"Velocity":35,"Duration":965862,"SoundDuration":965862,"Delta":125018800},{"NoteNumber":37,"Velocity":32,"Duration":1973872,"SoundDuration":1973872,"Delta":125018800},{"NoteNumber":54,"Velocity":25,"Duration":160102,"SoundDuration":160102,"Delta":125178903},{"NoteNumber":58,"Velocity":26,"Duration":160102,"SoundDuration":160102,"Delta":125339005},{"NoteNumber":64,"Velocity":28,"Duration":161851,"SoundDuration":161851,"Delta":125499107},{"NoteNumber":58,"Velocity":25,"Duration":161851,"SoundDuration":161851,"Delta":125660959},{"NoteNumber":54,"Velocity":25,"Duration":161851,"SoundDuration":161851,"Delta":125822811},{"NoteNumber":68,"Velocity":34,"Duration":480306,"SoundDuration":480306,"Delta":125984662},{"NoteNumber":58,"Velocity":27,"Duration":160102,"SoundDuration":160102,"Delta":126144765},{"NoteNumber":64,"Velocity":27,"Duration":160102,"SoundDuration":160102,"Delta":126304867},{"NoteNumber":66,"Velocity":33,"Duration":527703,"SoundDuration":527703,"Delta":126464969},{"NoteNumber":64,"Velocity":27,"Duration":166722,"SoundDuration":166722,"Delta":126631692},{"NoteNumber":58,"Velocity":27,"Duration":194259,"SoundDuration":194259,"Delta":126798414},{"NoteNumber":75,"Velocity":41,"Duration":1485979,"SoundDuration":1485979,"Delta":126992673},{"NoteNumber":35,"Velocity":37,"Duration":1968023,"SoundDuration":1968023,"Delta":126992673},{"NoteNumber":63,"Velocity":25,"Duration":167155,"SoundDuration":167155,"Delta":127161455},{"NoteNumber":66,"Velocity":25,"Duration":165636,"SoundDuration":165636,"Delta":127328610},{"NoteNumber":71,"Velocity":31,"Duration":164063,"SoundDuration":164063,"Delta":127494246},{"NoteNumber":66,"Velocity":25,"Duration":162592,"SoundDuration":162592,"Delta":127658310},{"NoteNumber":63,"Velocity":25,"Duration":161083,"SoundDuration":161083,"Delta":127820902},{"NoteNumber":66,"Velocity":28,"Duration":160102,"SoundDuration":160102,"Delta":127981986},{"NoteNumber":63,"Velocity":25,"Duration":165998,"SoundDuration":165998,"Delta":128142088},{"NoteNumber":66,"Velocity":28,"Duration":170566,"SoundDuration":170566,"Delta":128308087},{"NoteNumber":73,"Velocity":31,"Duration":482044,"SoundDuration":482044,"Delta":128478653},{"NoteNumber":67,"Velocity":23,"Duration":160681,"SoundDuration":160681,"Delta":128639334},{"NoteNumber":63,"Velocity":23,"Duration":160681,"SoundDuration":160681,"Delta":128800016},{"NoteNumber":73,"Velocity":37,"Duration":487328,"SoundDuration":487328,"Delta":128960697},{"NoteNumber":40,"Velocity":33,"Duration":1981462,"SoundDuration":1981462,"Delta":128960697},{"NoteNumber":68,"Velocity":25,"Duration":162442,"SoundDuration":162442,"Delta":129123140},{"NoteNumber":59,"Velocity":23,"Duration":162442,"SoundDuration":162442,"Delta":129285583},{"NoteNumber":71,"Velocity":36,"Duration":487329,"SoundDuration":487329,"Delta":129448026},{"NoteNumber":68,"Velocity":22,"Duration":162442,"SoundDuration":162442,"Delta":129610469},{"NoteNumber":59,"Velocity":22,"Duration":162442,"SoundDuration":162442,"Delta":129772912},{"NoteNumber":68,"Velocity":35,"Duration":489116,"SoundDuration":489116,"Delta":129935355},{"NoteNumber":64,"Velocity":23,"Duration":163038,"SoundDuration":163038,"Delta":130098394},{"NoteNumber":59,"Velocity":23,"Duration":163038,"SoundDuration":163038,"Delta":130261433},{"NoteNumber":64,"Velocity":31,"Duration":517687,"SoundDuration":517687,"Delta":130424472},{"NoteNumber":61,"Velocity":22,"Duration":172562,"SoundDuration":172562,"Delta":130597035},{"NoteNumber":56,"Velocity":22,"Duration":172562,"SoundDuration":172562,"Delta":130769597},{"NoteNumber":63,"Velocity":38,"Duration":1470420,"SoundDuration":1470420,"Delta":130942160},{"NoteNumber":42,"Velocity":37,"Duration":1954213,"SoundDuration":1954213,"Delta":130942160},{"NoteNumber":51,"Velocity":26,"Duration":167155,"SoundDuration":167155,"Delta":131110941},{"NoteNumber":54,"Velocity":26,"Duration":165636,"SoundDuration":165636,"Delta":131278096},{"NoteNumber":59,"Velocity":28,"Duration":164063,"SoundDuration":164063,"Delta":131443732},{"NoteNumber":54,"Velocity":26,"Duration":162592,"SoundDuration":162592,"Delta":131607796},{"NoteNumber":51,"Velocity":26,"Duration":161083,"SoundDuration":161083,"Delta":131770389},{"NoteNumber":54,"Velocity":27,"Duration":160102,"SoundDuration":160102,"Delta":131931472},{"NoteNumber":51,"Velocity":26,"Duration":160102,"SoundDuration":160102,"Delta":132091575},{"NoteNumber":54,"Velocity":28,"Duration":160903,"SoundDuration":160903,"Delta":132251677},{"NoteNumber":59,"Velocity":28,"Duration":161264,"SoundDuration":161264,"Delta":132412581},{"NoteNumber":63,"Velocity":35,"Duration":483792,"SoundDuration":483792,"Delta":132412581},{"NoteNumber":54,"Velocity":28,"Duration":161264,"SoundDuration":161264,"Delta":132573845},{"NoteNumber":51,"Velocity":28,"Duration":161264,"SoundDuration":161264,"Delta":132735109},{"NoteNumber":68,"Velocity":38,"Duration":487328,"SoundDuration":487328,"Delta":132896374},{"NoteNumber":49,"Velocity":33,"Duration":1463774,"SoundDuration":1463774,"Delta":132896374},{"NoteNumber":42,"Velocity":33,"Duration":1981462,"SoundDuration":1981462,"Delta":132896374},{"NoteNumber":58,"Velocity":28,"Duration":162442,"SoundDuration":162442,"Delta":133058817},{"NoteNumber":61,"Velocity":28,"Duration":162442,"SoundDuration":162442,"Delta":133221260},{"NoteNumber":66,"Velocity":36,"Duration":487329,"SoundDuration":487329,"Delta":133383703},{"NoteNumber":58,"Velocity":27,"Duration":162442,"SoundDuration":162442,"Delta":133546146},{"NoteNumber":61,"Velocity":28,"Duration":162442,"SoundDuration":162442,"Delta":133708589},{"NoteNumber":64,"Velocity":35,"Duration":489116,"SoundDuration":489116,"Delta":133871032},{"NoteNumber":54,"Velocity":27,"Duration":163038,"SoundDuration":163038,"Delta":134034071},{"NoteNumber":58,"Velocity":27,"Duration":163038,"SoundDuration":163038,"Delta":134197110},{"NoteNumber":61,"Velocity":34,"Duration":517687,"SoundDuration":517687,"Delta":134360149},{"NoteNumber":52,"Velocity":33,"Duration":517687,"SoundDuration":517687,"Delta":134360149},{"NoteNumber":54,"Velocity":26,"Duration":172562,"SoundDuration":172562,"Delta":134532711},{"NoteNumber":58,"Velocity":26,"Duration":172562,"SoundDuration":172562,"Delta":134705274},{"NoteNumber":59,"Velocity":30,"Duration":1470420,"SoundDuration":1470420,"Delta":134877837},{"NoteNumber":35,"Velocity":29,"Duration":1954213,"SoundDuration":1954213,"Delta":134877837},{"NoteNumber":47,"Velocity":20,"Duration":167155,"SoundDuration":167155,"Delta":135046618},{"NoteNumber":51,"Velocity":20,"Duration":165636,"SoundDuration":165636,"Delta":135213773},{"NoteNumber":54,"Velocity":22,"Duration":164063,"SoundDuration":164063,"Delta":135379409},{"NoteNumber":51,"Velocity":20,"Duration":162592,"SoundDuration":162592,"Delta":135543473},{"NoteNumber":47,"Velocity":20,"Duration":161083,"SoundDuration":161083,"Delta":135706066},{"NoteNumber":51,"Velocity":21,"Duration":160102,"SoundDuration":160102,"Delta":135867149},{"NoteNumber":47,"Velocity":20,"Duration":160102,"SoundDuration":160102,"Delta":136027251},{"NoteNumber":51,"Velocity":22,"Duration":160903,"SoundDuration":160903,"Delta":136187354},{"NoteNumber":54,"Velocity":22,"Duration":161264,"SoundDuration":161264,"Delta":136348257},{"NoteNumber":51,"Velocity":22,"Duration":161264,"SoundDuration":161264,"Delta":136509522},{"NoteNumber":47,"Velocity":22,"Duration":161264,"SoundDuration":161264,"Delta":136670786},{"NoteNumber":59,"Velocity":30,"Duration":1470420,"SoundDuration":1470420,"Delta":136832050},{"NoteNumber":31,"Velocity":29,"Duration":1470420,"SoundDuration":1470420,"Delta":136832050},{"NoteNumber":47,"Velocity":20,"Duration":167155,"SoundDuration":167155,"Delta":137000832},{"NoteNumber":52,"Velocity":20,"Duration":165636,"SoundDuration":165636,"Delta":137167987},{"NoteNumber":55,"Velocity":22,"Duration":164063,"SoundDuration":164063,"Delta":137333623},{"NoteNumber":52,"Velocity":20,"Duration":162592,"SoundDuration":162592,"Delta":137497687},{"NoteNumber":47,"Velocity":20,"Duration":161083,"SoundDuration":161083,"Delta":137660280},{"NoteNumber":52,"Velocity":21,"Duration":160102,"SoundDuration":160102,"Delta":137821363},{"NoteNumber":47,"Velocity":20,"Duration":160102,"SoundDuration":160102,"Delta":137981465},{"NoteNumber":52,"Velocity":22,"Duration":160903,"SoundDuration":160903,"Delta":138141568},{"NoteNumber":55,"Velocity":22,"Duration":161264,"SoundDuration":161264,"Delta":138302471},{"NoteNumber":31,"Velocity":29,"Duration":161264,"SoundDuration":161264,"Delta":138302471},{"NoteNumber":52,"Velocity":22,"Duration":161264,"SoundDuration":161264,"Delta":138463735},{"NoteNumber":33,"Velocity":29,"Duration":161264,"SoundDuration":161264,"Delta":138463735},{"NoteNumber":47,"Velocity":22,"Duration":161264,"SoundDuration":161264,"Delta":138625000},{"NoteNumber":35,"Velocity":29,"Duration":151185,"SoundDuration":151185,"Delta":138625000},{"NoteNumber":59,"Velocity":30,"Duration":1470420,"SoundDuration":1470420,"Delta":138786264},{"NoteNumber":35,"Velocity":29,"Duration":1470420,"SoundDuration":1470420,"Delta":138786264},{"NoteNumber":47,"Velocity":20,"Duration":167155,"SoundDuration":167155,"Delta":138955046},{"NoteNumber":51,"Velocity":20,"Duration":165636,"SoundDuration":165636,"Delta":139122201},{"NoteNumber":54,"Velocity":22,"Duration":164063,"SoundDuration":164063,"Delta":139287837},{"NoteNumber":51,"Velocity":20,"Duration":162592,"SoundDuration":162592,"Delta":139451901},{"NoteNumber":47,"Velocity":20,"Duration":161083,"SoundDuration":161083,"Delta":139614493},{"NoteNumber":51,"Velocity":25,"Duration":160102,"SoundDuration":160102,"Delta":139775577},{"NoteNumber":47,"Velocity":34,"Duration":160102,"SoundDuration":160102,"Delta":139935679},{"NoteNumber":51,"Velocity":38,"Duration":160903,"SoundDuration":160903,"Delta":140095781},{"NoteNumber":54,"Velocity":42,"Duration":161264,"SoundDuration":161264,"Delta":140256685},{"NoteNumber":37,"Velocity":49,"Duration":120948,"SoundDuration":120948,"Delta":140256685},{"NoteNumber":39,"Velocity":51,"Duration":120948,"SoundDuration":120948,"Delta":140377633},{"NoteNumber":51,"Velocity":46,"Duration":161264,"SoundDuration":161264,"Delta":140417949},{"NoteNumber":40,"Velocity":54,"Duration":120948,"SoundDuration":120948,"Delta":140498581},{"NoteNumber":47,"Velocity":50,"Duration":161264,"SoundDuration":161264,"Delta":140579214},{"NoteNumber":42,"Velocity":58,"Duration":120948,"SoundDuration":120948,"Delta":140619530},{"NoteNumber":59,"Velocity":54,"Duration":989312,"SoundDuration":989312,"Delta":140740478},{"NoteNumber":43,"Velocity":61,"Duration":989312,"SoundDuration":989312,"Delta":140740478},{"NoteNumber":47,"Velocity":51,"Duration":167155,"SoundDuration":167155,"Delta":140909259},{"NoteNumber":50,"Velocity":47,"Duration":165636,"SoundDuration":165636,"Delta":141076414},{"NoteNumber":53,"Velocity":42,"Duration":164063,"SoundDuration":164063,"Delta":141242050},{"NoteNumber":50,"Velocity":38,"Duration":162592,"SoundDuration":162592,"Delta":141406114},{"NoteNumber":47,"Velocity":34,"Duration":161083,"SoundDuration":161083,"Delta":141568707},{"NoteNumber":58,"Velocity":39,"Duration":964901,"SoundDuration":964901,"Delta":141729790},{"NoteNumber":42,"Velocity":38,"Duration":964901,"SoundDuration":964901,"Delta":141729790},{"NoteNumber":49,"Velocity":20,"Duration":160102,"SoundDuration":160102,"Delta":141889893},{"NoteNumber":52,"Velocity":22,"Duration":160903,"SoundDuration":160903,"Delta":142049995},{"NoteNumber":54,"Velocity":22,"Duration":161264,"SoundDuration":161264,"Delta":142210899},{"NoteNumber":52,"Velocity":22,"Duration":161264,"SoundDuration":161264,"Delta":142372163},{"NoteNumber":49,"Velocity":22,"Duration":161264,"SoundDuration":161264,"Delta":142533427},{"NoteNumber":59,"Velocity":30,"Duration":1470420,"SoundDuration":1470420,"Delta":142694692},{"NoteNumber":35,"Velocity":29,"Duration":1954213,"SoundDuration":1954213,"Delta":142694692},{"NoteNumber":47,"Velocity":20,"Duration":167155,"SoundDuration":167155,"Delta":142863473},{"NoteNumber":51,"Velocity":20,"Duration":165636,"SoundDuration":165636,"Delta":143030628},{"NoteNumber":54,"Velocity":22,"Duration":164063,"SoundDuration":164063,"Delta":143196264},{"NoteNumber":51,"Velocity":20,"Duration":162592,"SoundDuration":162592,"Delta":143360328},{"NoteNumber":47,"Velocity":20,"Duration":161083,"SoundDuration":161083,"Delta":143522921},{"NoteNumber":51,"Velocity":21,"Duration":160102,"SoundDuration":160102,"Delta":143684004},{"NoteNumber":47,"Velocity":20,"Duration":160102,"SoundDuration":160102,"Delta":143844107},{"NoteNumber":51,"Velocity":22,"Duration":160903,"SoundDuration":160903,"Delta":144004209},{"NoteNumber":54,"Velocity":22,"Duration":161264,"SoundDuration":161264,"Delta":144165112},{"NoteNumber":51,"Velocity":22,"Duration":161264,"SoundDuration":161264,"Delta":144326377},{"NoteNumber":47,"Velocity":22,"Duration":161264,"SoundDuration":161264,"Delta":144487641},{"NoteNumber":59,"Velocity":30,"Duration":1470420,"SoundDuration":1470420,"Delta":144648905},{"NoteNumber":32,"Velocity":29,"Duration":1470420,"SoundDuration":1470420,"Delta":144648905},{"NoteNumber":47,"Velocity":20,"Duration":167155,"SoundDuration":167155,"Delta":144817687},{"NoteNumber":52,"Velocity":20,"Duration":165636,"SoundDuration":165636,"Delta":144984842},{"NoteNumber":56,"Velocity":22,"Duration":164063,"SoundDuration":164063,"Delta":145150478},{"NoteNumber":52,"Velocity":20,"Duration":162592,"SoundDuration":162592,"Delta":145314542},{"NoteNumber":47,"Velocity":20,"Duration":161083,"SoundDuration":161083,"Delta":145477135},{"NoteNumber":52,"Velocity":21,"Duration":160102,"SoundDuration":160102,"Delta":145638218},{"NoteNumber":47,"Velocity":20,"Duration":160102,"SoundDuration":160102,"Delta":145798320},{"NoteNumber":52,"Velocity":22,"Duration":160903,"SoundDuration":160903,"Delta":145958423},{"NoteNumber":56,"Velocity":22,"Duration":161264,"SoundDuration":161264,"Delta":146119326},{"NoteNumber":32,"Velocity":29,"Duration":161264,"SoundDuration":161264,"Delta":146119326},{"NoteNumber":52,"Velocity":22,"Duration":161264,"SoundDuration":161264,"Delta":146280591},{"NoteNumber":34,"Velocity":29,"Duration":161264,"SoundDuration":161264,"Delta":146280591},{"NoteNumber":47,"Velocity":22,"Duration":161264,"SoundDuration":161264,"Delta":146441855},{"NoteNumber":35,"Velocity":29,"Duration":151185,"SoundDuration":151185,"Delta":146441855},{"NoteNumber":59,"Velocity":30,"Duration":1470420,"SoundDuration":1470420,"Delta":146603119},{"NoteNumber":35,"Velocity":29,"Duration":1470420,"SoundDuration":1470420,"Delta":146603119},{"NoteNumber":47,"Velocity":20,"Duration":167155,"SoundDuration":167155,"Delta":146771901},{"NoteNumber":51,"Velocity":20,"Duration":165636,"SoundDuration":165636,"Delta":146939056},{"NoteNumber":54,"Velocity":22,"Duration":164063,"SoundDuration":164063,"Delta":147104692},{"NoteNumber":51,"Velocity":20,"Duration":162592,"SoundDuration":162592,"Delta":147268756},{"NoteNumber":47,"Velocity":20,"Duration":161083,"SoundDuration":161083,"Delta":147431349},{"NoteNumber":51,"Velocity":25,"Duration":160102,"SoundDuration":160102,"Delta":147592432},{"NoteNumber":47,"Velocity":33,"Duration":160102,"SoundDuration":160102,"Delta":147752534},{"NoteNumber":51,"Velocity":36,"Duration":160903,"SoundDuration":160903,"Delta":147912636},{"NoteNumber":54,"Velocity":39,"Duration":161264,"SoundDuration":161264,"Delta":148073540},{"NoteNumber":37,"Velocity":50,"Duration":120948,"SoundDuration":120948,"Delta":148073540},{"NoteNumber":39,"Velocity":53,"Duration":120948,"SoundDuration":120948,"Delta":148194488},{"NoteNumber":51,"Velocity":42,"Duration":161264,"SoundDuration":161264,"Delta":148234804},{"NoteNumber":40,"Velocity":57,"Duration":120948,"SoundDuration":120948,"Delta":148315437},{"NoteNumber":47,"Velocity":45,"Duration":161264,"SoundDuration":161264,"Delta":148396069},{"NoteNumber":42,"Velocity":61,"Duration":120948,"SoundDuration":120948,"Delta":148436385},{"NoteNumber":59,"Velocity":48,"Duration":989312,"SoundDuration":989312,"Delta":148557333},{"NoteNumber":44,"Velocity":65,"Duration":989312,"SoundDuration":989312,"Delta":148557333},{"NoteNumber":47,"Velocity":45,"Duration":167155,"SoundDuration":167155,"Delta":148726114},{"NoteNumber":50,"Velocity":42,"Duration":165636,"SoundDuration":165636,"Delta":148893269},{"NoteNumber":53,"Velocity":40,"Duration":164063,"SoundDuration":164063,"Delta":149058906},{"NoteNumber":50,"Velocity":37,"Duration":162592,"SoundDuration":162592,"Delta":149222969},{"NoteNumber":47,"Velocity":35,"Duration":161083,"SoundDuration":161083,"Delta":149385562},{"NoteNumber":58,"Velocity":39,"Duration":964901,"SoundDuration":964901,"Delta":149546646},{"NoteNumber":42,"Velocity":38,"Duration":964901,"SoundDuration":964901,"Delta":149546646},{"NoteNumber":49,"Velocity":20,"Duration":160102,"SoundDuration":160102,"Delta":149706748},{"NoteNumber":52,"Velocity":22,"Duration":160903,"SoundDuration":160903,"Delta":149866850},{"NoteNumber":54,"Velocity":22,"Duration":161264,"SoundDuration":161264,"Delta":150027754},{"NoteNumber":52,"Velocity":22,"Duration":161264,"SoundDuration":161264,"Delta":150189018},{"NoteNumber":49,"Velocity":22,"Duration":161264,"SoundDuration":161264,"Delta":150350282},{"NoteNumber":59,"Velocity":30,"Duration":1470420,"SoundDuration":1470420,"Delta":150511547},{"NoteNumber":35,"Velocity":29,"Duration":3867473,"SoundDuration":3867473,"Delta":150511547},{"NoteNumber":47,"Velocity":20,"Duration":167155,"SoundDuration":167155,"Delta":150680328},{"NoteNumber":51,"Velocity":20,"Duration":165636,"SoundDuration":165636,"Delta":150847483},{"NoteNumber":54,"Velocity":22,"Duration":164063,"SoundDuration":164063,"Delta":151013119},{"NoteNumber":51,"Velocity":20,"Duration":162592,"SoundDuration":162592,"Delta":151177183},{"NoteNumber":47,"Velocity":20,"Duration":161083,"SoundDuration":161083,"Delta":151339776},{"NoteNumber":51,"Velocity":25,"Duration":160102,"SoundDuration":160102,"Delta":151500859},{"NoteNumber":47,"Velocity":28,"Duration":160102,"SoundDuration":160102,"Delta":151660962},{"NoteNumber":51,"Velocity":31,"Duration":160903,"SoundDuration":160903,"Delta":151821064},{"NoteNumber":54,"Velocity":34,"Duration":161264,"SoundDuration":161264,"Delta":151981968},{"NoteNumber":51,"Velocity":37,"Duration":161264,"SoundDuration":161264,"Delta":152143232},{"NoteNumber":47,"Velocity":40,"Duration":161264,"SoundDuration":161264,"Delta":152304496},{"NoteNumber":59,"Velocity":49,"Duration":478582,"SoundDuration":478582,"Delta":152465761},{"NoteNumber":51,"Velocity":41,"Duration":159527,"SoundDuration":159527,"Delta":152625288},{"NoteNumber":54,"Velocity":41,"Duration":159527,"SoundDuration":159527,"Delta":152784816},{"NoteNumber":63,"Velocity":54,"Duration":473446,"SoundDuration":473446,"Delta":152944344},{"NoteNumber":54,"Velocity":46,"Duration":157815,"SoundDuration":157815,"Delta":153102159},{"NoteNumber":59,"Velocity":42,"Duration":157815,"SoundDuration":157815,"Delta":153259975},{"NoteNumber":66,"Velocity":62,"Duration":468457,"SoundDuration":468457,"Delta":153417791},{"NoteNumber":59,"Velocity":49,"Duration":156152,"SoundDuration":156152,"Delta":153573943},{"NoteNumber":63,"Velocity":53,"Duration":156152,"SoundDuration":156152,"Delta":153730095},{"NoteNumber":71,"Velocity":67,"Duration":492772,"SoundDuration":492772,"Delta":153886248},{"NoteNumber":63,"Velocity":55,"Duration":164257,"SoundDuration":164257,"Delta":154050505},{"NoteNumber":66,"Velocity":58,"Duration":164257,"SoundDuration":164257,"Delta":154214763},{"NoteNumber":71,"Velocity":77,"Duration":1965942,"SoundDuration":1965942,"Delta":154379021},{"NoteNumber":44,"Velocity":74,"Duration":1470420,"SoundDuration":1470420,"Delta":154379021},{"NoteNumber":59,"Velocity":60,"Duration":167155,"SoundDuration":167155,"Delta":154547802},{"NoteNumber":62,"Velocity":60,"Duration":165636,"SoundDuration":165636,"Delta":154714957},{"NoteNumber":65,"Velocity":68,"Duration":164063,"SoundDuration":164063,"Delta":154880593},{"NoteNumber":62,"Velocity":49,"Duration":162592,"SoundDuration":162592,"Delta":155044657},{"NoteNumber":59,"Velocity":57,"Duration":161083,"SoundDuration":161083,"Delta":155207250},{"NoteNumber":62,"Velocity":65,"Duration":160102,"SoundDuration":160102,"Delta":155368333},{"NoteNumber":59,"Velocity":54,"Duration":160102,"SoundDuration":160102,"Delta":155528435},{"NoteNumber":62,"Velocity":54,"Duration":160903,"SoundDuration":160903,"Delta":155688538},{"NoteNumber":65,"Velocity":63,"Duration":165480,"SoundDuration":165480,"Delta":155849441},{"NoteNumber":44,"Velocity":55,"Duration":165480,"SoundDuration":165480,"Delta":155849441},{"NoteNumber":62,"Velocity":54,"Duration":165173,"SoundDuration":165173,"Delta":156014922},{"NoteNumber":46,"Velocity":59,"Duration":165173,"SoundDuration":165173,"Delta":156014922},{"NoteNumber":59,"Velocity":54,"Duration":164866,"SoundDuration":164866,"Delta":156180096},{"NoteNumber":47,"Velocity":63,"Duration":154562,"SoundDuration":154562,"Delta":156180096},{"NoteNumber":70,"Velocity":75,"Duration":501572,"SoundDuration":501572,"Delta":156344963},{"NoteNumber":47,"Velocity":73,"Duration":1470420,"SoundDuration":1470420,"Delta":156344963},{"NoteNumber":56,"Velocity":50,"Duration":167155,"SoundDuration":167155,"Delta":156513744},{"NoteNumber":62,"Velocity":50,"Duration":165636,"SoundDuration":165636,"Delta":156680899},{"NoteNumber":68,"Velocity":68,"Duration":1469015,"SoundDuration":1469015,"Delta":156846535},{"NoteNumber":65,"Velocity":46,"Duration":164063,"SoundDuration":164063,"Delta":156846535},{"NoteNumber":62,"Velocity":49,"Duration":162592,"SoundDuration":162592,"Delta":157010599},{"NoteNumber":56,"Velocity":44,"Duration":161083,"SoundDuration":161083,"Delta":157173192},{"NoteNumber":62,"Velocity":56,"Duration":160102,"SoundDuration":160102,"Delta":157334275},{"NoteNumber":56,"Velocity":46,"Duration":160102,"SoundDuration":160102,"Delta":157494378},{"NoteNumber":62,"Velocity":41,"Duration":160903,"SoundDuration":160903,"Delta":157654480},{"NoteNumber":65,"Velocity":57,"Duration":166722,"SoundDuration":166722,"Delta":157815384},{"NoteNumber":47,"Velocity":56,"Duration":166722,"SoundDuration":166722,"Delta":157815384},{"NoteNumber":62,"Velocity":46,"Duration":166722,"SoundDuration":166722,"Delta":157982106},{"NoteNumber":49,"Velocity":61,"Duration":166722,"SoundDuration":166722,"Delta":157982106},{"NoteNumber":56,"Velocity":46,"Duration":166722,"SoundDuration":166722,"Delta":158148828},{"NoteNumber":50,"Velocity":64,"Duration":156302,"SoundDuration":156302,"Delta":158148828},{"NoteNumber":66,"Velocity":75,"Duration":501572,"SoundDuration":501572,"Delta":158315551},{"NoteNumber":50,"Velocity":73,"Duration":1470420,"SoundDuration":1470420,"Delta":158315551},{"NoteNumber":56,"Velocity":53,"Duration":167155,"SoundDuration":167155,"Delta":158484332},{"NoteNumber":58,"Velocity":53,"Duration":165636,"SoundDuration":165636,"Delta":158651487},{"NoteNumber":65,"Velocity":68,"Duration":1469015,"SoundDuration":1469015,"Delta":158817123},{"NoteNumber":59,"Velocity":46,"Duration":164063,"SoundDuration":164063,"Delta":158817123},{"NoteNumber":58,"Velocity":44,"Duration":162592,"SoundDuration":162592,"Delta":158981187},{"NoteNumber":56,"Velocity":46,"Duration":161083,"SoundDuration":161083,"Delta":159143780},{"NoteNumber":58,"Velocity":56,"Duration":160102,"SoundDuration":160102,"Delta":159304863},{"NoteNumber":56,"Velocity":46,"Duration":160102,"SoundDuration":160102,"Delta":159464965},{"NoteNumber":58,"Velocity":41,"Duration":160903,"SoundDuration":160903,"Delta":159625068},{"NoteNumber":59,"Velocity":53,"Duration":166722,"SoundDuration":166722,"Delta":159785971},{"NoteNumber":50,"Velocity":56,"Duration":166722,"SoundDuration":166722,"Delta":159785971},{"NoteNumber":58,"Velocity":46,"Duration":166722,"SoundDuration":166722,"Delta":159952694},{"NoteNumber":51,"Velocity":61,"Duration":166722,"SoundDuration":166722,"Delta":159952694},{"NoteNumber":56,"Velocity":46,"Duration":166722,"SoundDuration":166722,"Delta":160119416},{"NoteNumber":53,"Velocity":64,"Duration":156302,"SoundDuration":156302,"Delta":160119416},{"NoteNumber":63,"Velocity":75,"Duration":501572,"SoundDuration":501572,"Delta":160286138},{"NoteNumber":53,"Velocity":73,"Duration":1470420,"SoundDuration":1470420,"Delta":160286138},{"NoteNumber":56,"Velocity":53,"Duration":167155,"SoundDuration":167155,"Delta":160454920},{"NoteNumber":58,"Velocity":53,"Duration":165636,"SoundDuration":165636,"Delta":160622075},{"NoteNumber":62,"Velocity":68,"Duration":1469015,"SoundDuration":1469015,"Delta":160787711},{"NoteNumber":59,"Velocity":46,"Duration":164063,"SoundDuration":164063,"Delta":160787711},{"NoteNumber":58,"Velocity":50,"Duration":162592,"SoundDuration":162592,"Delta":160951775},{"NoteNumber":56,"Velocity":50,"Duration":161083,"SoundDuration":161083,"Delta":161114368},{"NoteNumber":58,"Velocity":56,"Duration":160102,"SoundDuration":160102,"Delta":161275451},{"NoteNumber":56,"Velocity":41,"Duration":160102,"SoundDuration":160102,"Delta":161435553},{"NoteNumber":58,"Velocity":35,"Duration":160903,"SoundDuration":160903,"Delta":161595656},{"NoteNumber":59,"Velocity":49,"Duration":166722,"SoundDuration":166722,"Delta":161756559},{"NoteNumber":41,"Velocity":56,"Duration":500167,"SoundDuration":500167,"Delta":161756559},{"NoteNumber":58,"Velocity":37,"Duration":166722,"SoundDuration":166722,"Delta":161923281},{"NoteNumber":56,"Velocity":35,"Duration":166722,"SoundDuration":166722,"Delta":162090004},{"NoteNumber":65,"Velocity":45,"Duration":487489,"SoundDuration":487489,"Delta":162256726},{"NoteNumber":42,"Velocity":40,"Duration":983817,"SoundDuration":983817,"Delta":162256726},{"NoteNumber":54,"Velocity":30,"Duration":162442,"SoundDuration":162442,"Delta":162419330},{"NoteNumber":58,"Velocity":24,"Duration":162442,"SoundDuration":162442,"Delta":162581773},{"NoteNumber":63,"Velocity":44,"Duration":496328,"SoundDuration":496328,"Delta":162744216},{"NoteNumber":54,"Velocity":29,"Duration":165480,"SoundDuration":165480,"Delta":162909582},{"NoteNumber":58,"Velocity":24,"Duration":165480,"SoundDuration":165480,"Delta":163075063},{"NoteNumber":66,"Velocity":47,"Duration":487442,"SoundDuration":487442,"Delta":163240544},{"NoteNumber":38,"Velocity":40,"Duration":981953,"SoundDuration":981953,"Delta":163240544},{"NoteNumber":56,"Velocity":30,"Duration":162442,"SoundDuration":162442,"Delta":163403101},{"NoteNumber":59,"Velocity":24,"Duration":162442,"SoundDuration":162442,"Delta":163565544},{"NoteNumber":65,"Velocity":44,"Duration":494510,"SoundDuration":494510,"Delta":163727987},{"NoteNumber":56,"Velocity":35,"Duration":164866,"SoundDuration":164866,"Delta":163892763},{"NoteNumber":59,"Velocity":30,"Duration":164867,"SoundDuration":164867,"Delta":164057630},{"NoteNumber":68,"Velocity":54,"Duration":483928,"SoundDuration":483928,"Delta":164222497},{"NoteNumber":39,"Velocity":49,"Duration":978393,"SoundDuration":978393,"Delta":164222497},{"NoteNumber":58,"Velocity":37,"Duration":161264,"SoundDuration":161264,"Delta":164383896},{"NoteNumber":63,"Velocity":30,"Duration":161264,"SoundDuration":161264,"Delta":164545160},{"NoteNumber":66,"Velocity":47,"Duration":494465,"SoundDuration":494465,"Delta":164706425},{"NoteNumber":58,"Velocity":30,"Duration":164866,"SoundDuration":164866,"Delta":164871157},{"NoteNumber":63,"Velocity":26,"Duration":164867,"SoundDuration":164867,"Delta":165036024},{"NoteNumber":65,"Velocity":50,"Duration":490964,"SoundDuration":490964,"Delta":165200891},{"NoteNumber":32,"Velocity":40,"Duration":987106,"SoundDuration":987106,"Delta":165200891},{"NoteNumber":56,"Velocity":29,"Duration":163639,"SoundDuration":163639,"Delta":165364576},{"NoteNumber":59,"Velocity":24,"Duration":163639,"SoundDuration":163639,"Delta":165528215},{"NoteNumber":68,"Velocity":45,"Duration":496142,"SoundDuration":496142,"Delta":165691855},{"NoteNumber":56,"Velocity":29,"Duration":165480,"SoundDuration":165480,"Delta":165857036},{"NoteNumber":59,"Velocity":25,"Duration":165480,"SoundDuration":165480,"Delta":166022517},{"NoteNumber":63,"Velocity":30,"Duration":1470420,"SoundDuration":1470420,"Delta":166187998},{"NoteNumber":34,"Velocity":29,"Duration":1149414,"SoundDuration":1149414,"Delta":166187998},{"NoteNumber":51,"Velocity":20,"Duration":167155,"SoundDuration":167155,"Delta":166356779},{"NoteNumber":54,"Velocity":20,"Duration":165636,"SoundDuration":165636,"Delta":166523934},{"NoteNumber":58,"Velocity":22,"Duration":164063,"SoundDuration":164063,"Delta":166689570},{"NoteNumber":54,"Velocity":20,"Duration":162592,"SoundDuration":162592,"Delta":166853634},{"NoteNumber":51,"Velocity":20,"Duration":161083,"SoundDuration":161083,"Delta":167016227},{"NoteNumber":54,"Velocity":25,"Duration":160102,"SoundDuration":160102,"Delta":167177310},{"NoteNumber":51,"Velocity":28,"Duration":160102,"SoundDuration":160102,"Delta":167337412},{"NoteNumber":33,"Velocity":25,"Duration":160102,"SoundDuration":160102,"Delta":167337412},{"NoteNumber":54,"Velocity":28,"Duration":160903,"SoundDuration":160903,"Delta":167497515},{"NoteNumber":34,"Velocity":25,"Duration":160903,"SoundDuration":160903,"Delta":167497515},{"NoteNumber":58,"Velocity":34,"Duration":161264,"SoundDuration":161264,"Delta":167658418},{"NoteNumber":35,"Velocity":29,"Duration":161264,"SoundDuration":161264,"Delta":167658418},{"NoteNumber":54,"Velocity":37,"Duration":161264,"SoundDuration":161264,"Delta":167819683},{"NoteNumber":34,"Velocity":25,"Duration":161264,"SoundDuration":161264,"Delta":167819683},{"NoteNumber":51,"Velocity":40,"Duration":161264,"SoundDuration":161264,"Delta":167980947},{"NoteNumber":33,"Velocity":25,"Duration":161264,"SoundDuration":161264,"Delta":167980947},{"NoteNumber":62,"Velocity":49,"Duration":952029,"SoundDuration":952029,"Delta":168142211},{"NoteNumber":34,"Velocity":29,"Duration":1420486,"SoundDuration":1420486,"Delta":168142211},{"NoteNumber":50,"Velocity":41,"Duration":159527,"SoundDuration":159527,"Delta":168301739},{"NoteNumber":53,"Velocity":41,"Duration":159527,"SoundDuration":159527,"Delta":168461267},{"NoteNumber":58,"Velocity":40,"Duration":157815,"SoundDuration":157815,"Delta":168620794},{"NoteNumber":53,"Velocity":42,"Duration":157815,"SoundDuration":157815,"Delta":168778610},{"NoteNumber":50,"Velocity":42,"Duration":157815,"SoundDuration":157815,"Delta":168936426},{"NoteNumber":65,"Velocity":58,"Duration":468457,"SoundDuration":468457,"Delta":169094241},{"NoteNumber":58,"Velocity":49,"Duration":156152,"SoundDuration":156152,"Delta":169250394},{"NoteNumber":62,"Velocity":53,"Duration":156152,"SoundDuration":156152,"Delta":169406546},{"NoteNumber":70,"Velocity":64,"Duration":492772,"SoundDuration":492772,"Delta":169562698},{"NoteNumber":46,"Velocity":29,"Duration":492772,"SoundDuration":492772,"Delta":169562698},{"NoteNumber":34,"Velocity":29,"Duration":492772,"SoundDuration":492772,"Delta":169562698},{"NoteNumber":62,"Velocity":54,"Duration":164257,"SoundDuration":164257,"Delta":169726956},{"NoteNumber":65,"Velocity":58,"Duration":164257,"SoundDuration":164257,"Delta":169891214},{"NoteNumber":71,"Velocity":77,"Duration":1965942,"SoundDuration":1965942,"Delta":170055471},{"NoteNumber":44,"Velocity":74,"Duration":1470420,"SoundDuration":1470420,"Delta":170055471},{"NoteNumber":32,"Velocity":64,"Duration":1470420,"SoundDuration":1470420,"Delta":170055471},{"NoteNumber":59,"Velocity":51,"Duration":167155,"SoundDuration":167155,"Delta":170224253},{"NoteNumber":62,"Velocity":56,"Duration":165636,"SoundDuration":165636,"Delta":170391408},{"NoteNumber":65,"Velocity":66,"Duration":164063,"SoundDuration":164063,"Delta":170557044},{"NoteNumber":62,"Velocity":49,"Duration":162592,"SoundDuration":162592,"Delta":170721108},{"NoteNumber":59,"Velocity":56,"Duration":161083,"SoundDuration":161083,"Delta":170883701},{"NoteNumber":62,"Velocity":61,"Duration":160102,"SoundDuration":160102,"Delta":171044784},{"NoteNumber":59,"Velocity":56,"Duration":160102,"SoundDuration":160102,"Delta":171204886},{"NoteNumber":62,"Velocity":56,"Duration":160903,"SoundDuration":160903,"Delta":171364988},{"NoteNumber":65,"Velocity":56,"Duration":165480,"SoundDuration":165480,"Delta":171525892},{"NoteNumber":44,"Velocity":55,"Duration":165480,"SoundDuration":165480,"Delta":171525892},{"NoteNumber":62,"Velocity":56,"Duration":165173,"SoundDuration":165173,"Delta":171691373},{"NoteNumber":46,"Velocity":59,"Duration":165173,"SoundDuration":165173,"Delta":171691373},{"NoteNumber":59,"Velocity":57,"Duration":164866,"SoundDuration":164866,"Delta":171856547},{"NoteNumber":47,"Velocity":63,"Duration":154562,"SoundDuration":154562,"Delta":171856547},{"NoteNumber":70,"Velocity":75,"Duration":501572,"SoundDuration":501572,"Delta":172021414},{"NoteNumber":35,"Velocity":64,"Duration":1470420,"SoundDuration":1470420,"Delta":172021414},{"NoteNumber":47,"Velocity":73,"Duration":1470420,"SoundDuration":1470420,"Delta":172021414},{"NoteNumber":56,"Velocity":52,"Duration":167155,"SoundDuration":167155,"Delta":172190195},{"NoteNumber":62,"Velocity":52,"Duration":165636,"SoundDuration":165636,"Delta":172357350},{"NoteNumber":68,"Velocity":68,"Duration":1469015,"SoundDuration":1469015,"Delta":172522986},{"NoteNumber":65,"Velocity":46,"Duration":164063,"SoundDuration":164063,"Delta":172522986},{"NoteNumber":62,"Velocity":48,"Duration":162592,"SoundDuration":162592,"Delta":172687050},{"NoteNumber":56,"Velocity":48,"Duration":161083,"SoundDuration":161083,"Delta":172849643},{"NoteNumber":62,"Velocity":56,"Duration":160102,"SoundDuration":160102,"Delta":173010726},{"NoteNumber":56,"Velocity":46,"Duration":160102,"SoundDuration":160102,"Delta":173170828},{"NoteNumber":62,"Velocity":41,"Duration":160903,"SoundDuration":160903,"Delta":173330931},{"NoteNumber":65,"Velocity":53,"Duration":166722,"SoundDuration":166722,"Delta":173491834},{"NoteNumber":47,"Velocity":56,"Duration":166722,"SoundDuration":166722,"Delta":173491834},{"NoteNumber":62,"Velocity":46,"Duration":166722,"SoundDuration":166722,"Delta":173658557},{"NoteNumber":49,"Velocity":61,"Duration":166722,"SoundDuration":166722,"Delta":173658557},{"NoteNumber":56,"Velocity":46,"Duration":166722,"SoundDuration":166722,"Delta":173825279},{"NoteNumber":50,"Velocity":64,"Duration":156302,"SoundDuration":156302,"Delta":173825279},{"NoteNumber":66,"Velocity":75,"Duration":501572,"SoundDuration":501572,"Delta":173992001},{"NoteNumber":50,"Velocity":73,"Duration":1470420,"SoundDuration":1470420,"Delta":173992001},{"NoteNumber":38,"Velocity":64,"Duration":1470309,"SoundDuration":1470309,"Delta":173999407},{"NoteNumber":56,"Velocity":52,"Duration":167155,"SoundDuration":167155,"Delta":174160783},{"NoteNumber":58,"Velocity":53,"Duration":165636,"SoundDuration":165636,"Delta":174327938},{"NoteNumber":65,"Velocity":68,"Duration":1469015,"SoundDuration":1469015,"Delta":174493574},{"NoteNumber":59,"Velocity":46,"Duration":164063,"SoundDuration":164063,"Delta":174493574},{"NoteNumber":58,"Velocity":44,"Duration":162592,"SoundDuration":162592,"Delta":174657638},{"NoteNumber":56,"Velocity":50,"Duration":161083,"SoundDuration":161083,"Delta":174820231},{"NoteNumber":58,"Velocity":56,"Duration":160102,"SoundDuration":160102,"Delta":174981314},{"NoteNumber":56,"Velocity":46,"Duration":160102,"SoundDuration":160102,"Delta":175141416},{"NoteNumber":58,"Velocity":41,"Duration":160903,"SoundDuration":160903,"Delta":175301519},{"NoteNumber":59,"Velocity":53,"Duration":166722,"SoundDuration":166722,"Delta":175462422},{"NoteNumber":50,"Velocity":56,"Duration":166722,"SoundDuration":166722,"Delta":175462422},{"NoteNumber":58,"Velocity":46,"Duration":166722,"SoundDuration":166722,"Delta":175629144},{"NoteNumber":51,"Velocity":61,"Duration":166722,"SoundDuration":166722,"Delta":175629144},{"NoteNumber":56,"Velocity":46,"Duration":166722,"SoundDuration":166722,"Delta":175795867},{"NoteNumber":53,"Velocity":64,"Duration":156302,"SoundDuration":156302,"Delta":175795867},{"NoteNumber":63,"Velocity":75,"Duration":501572,"SoundDuration":501572,"Delta":175962589},{"NoteNumber":41,"Velocity":64,"Duration":1470420,"SoundDuration":1470420,"Delta":175962589},{"NoteNumber":53,"Velocity":73,"Duration":1470420,"SoundDuration":1470420,"Delta":175962589},{"NoteNumber":56,"Velocity":56,"Duration":167155,"SoundDuration":167155,"Delta":176131370},{"NoteNumber":58,"Velocity":56,"Duration":165636,"SoundDuration":165636,"Delta":176298526},{"NoteNumber":62,"Velocity":68,"Duration":1469015,"SoundDuration":1469015,"Delta":176464162},{"NoteNumber":59,"Velocity":46,"Duration":164063,"SoundDuration":164063,"Delta":176464162},{"NoteNumber":58,"Velocity":47,"Duration":162592,"SoundDuration":162592,"Delta":176628226},{"NoteNumber":56,"Velocity":47,"Duration":161083,"SoundDuration":161083,"Delta":176790818},{"NoteNumber":58,"Velocity":56,"Duration":160102,"SoundDuration":160102,"Delta":176951902},{"NoteNumber":56,"Velocity":41,"Duration":160102,"SoundDuration":160102,"Delta":177112004},{"NoteNumber":58,"Velocity":39,"Duration":160903,"SoundDuration":160903,"Delta":177272106},{"NoteNumber":59,"Velocity":49,"Duration":166722,"SoundDuration":166722,"Delta":177433010},{"NoteNumber":41,"Velocity":56,"Duration":500167,"SoundDuration":500167,"Delta":177433010},{"NoteNumber":58,"Velocity":37,"Duration":166722,"SoundDuration":166722,"Delta":177599732},{"NoteNumber":56,"Velocity":35,"Duration":166722,"SoundDuration":166722,"Delta":177766455},{"NoteNumber":65,"Velocity":45,"Duration":487489,"SoundDuration":487489,"Delta":177933177},{"NoteNumber":42,"Velocity":40,"Duration":983817,"SoundDuration":983817,"Delta":177933177},{"NoteNumber":54,"Velocity":30,"Duration":162442,"SoundDuration":162442,"Delta":178095780},{"NoteNumber":58,"Velocity":24,"Duration":162442,"SoundDuration":162442,"Delta":178258223},{"NoteNumber":63,"Velocity":44,"Duration":496328,"SoundDuration":496328,"Delta":178420666},{"NoteNumber":54,"Velocity":29,"Duration":165480,"SoundDuration":165480,"Delta":178586033},{"NoteNumber":58,"Velocity":24,"Duration":165480,"SoundDuration":165480,"Delta":178751514},{"NoteNumber":66,"Velocity":47,"Duration":487442,"SoundDuration":487442,"Delta":178916994},{"NoteNumber":38,"Velocity":40,"Duration":139205,"SoundDuration":139205,"Delta":178916994},{"NoteNumber":39,"Velocity":36,"Duration":139091,"SoundDuration":139091,"Delta":179056200},{"NoteNumber":56,"Velocity":30,"Duration":162442,"SoundDuration":162442,"Delta":179079551},{"NoteNumber":38,"Velocity":40,"Duration":139091,"SoundDuration":139091,"Delta":179195292},{"NoteNumber":59,"Velocity":24,"Duration":162442,"SoundDuration":162442,"Delta":179241994},{"NoteNumber":39,"Velocity":36,"Duration":140031,"SoundDuration":140031,"Delta":179334384},{"NoteNumber":65,"Velocity":44,"Duration":494510,"SoundDuration":494510,"Delta":179404437},{"NoteNumber":38,"Velocity":40,"Duration":141167,"SoundDuration":141167,"Delta":179473385},{"NoteNumber":56,"Velocity":35,"Duration":164866,"SoundDuration":164866,"Delta":179569213},{"NoteNumber":36,"Velocity":35,"Duration":141167,"SoundDuration":141167,"Delta":179614552},{"NoteNumber":59,"Velocity":30,"Duration":164867,"SoundDuration":164867,"Delta":179734080},{"NoteNumber":38,"Velocity":36,"Duration":143228,"SoundDuration":143228,"Delta":179755719},{"NoteNumber":68,"Velocity":54,"Duration":483928,"SoundDuration":483928,"Delta":179898947},{"NoteNumber":39,"Velocity":49,"Duration":978393,"SoundDuration":978393,"Delta":179898947},{"NoteNumber":58,"Velocity":37,"Duration":161264,"SoundDuration":161264,"Delta":180060347},{"NoteNumber":63,"Velocity":30,"Duration":161264,"SoundDuration":161264,"Delta":180221611},{"NoteNumber":66,"Velocity":47,"Duration":494465,"SoundDuration":494465,"Delta":180382876},{"NoteNumber":58,"Velocity":30,"Duration":164866,"SoundDuration":164866,"Delta":180547607},{"NoteNumber":63,"Velocity":26,"Duration":164867,"SoundDuration":164867,"Delta":180712474},{"NoteNumber":64,"Velocity":50,"Duration":490964,"SoundDuration":490964,"Delta":180877341},{"NoteNumber":32,"Velocity":40,"Duration":987106,"SoundDuration":987106,"Delta":180877341},{"NoteNumber":56,"Velocity":29,"Duration":163639,"SoundDuration":163639,"Delta":181041027},{"NoteNumber":59,"Velocity":24,"Duration":163639,"SoundDuration":163639,"Delta":181204666},{"NoteNumber":71,"Velocity":45,"Duration":495981,"SoundDuration":495981,"Delta":181353987},{"NoteNumber":59,"Velocity":29,"Duration":165480,"SoundDuration":165480,"Delta":181533487},{"NoteNumber":64,"Velocity":25,"Duration":165480,"SoundDuration":165480,"Delta":181698968},{"NoteNumber":63,"Velocity":30,"Duration":1470420,"SoundDuration":1470420,"Delta":181864448},{"NoteNumber":34,"Velocity":29,"Duration":1149414,"SoundDuration":1149414,"Delta":181864448},{"NoteNumber":51,"Velocity":20,"Duration":167155,"SoundDuration":167155,"Delta":182033230},{"NoteNumber":54,"Velocity":20,"Duration":165636,"SoundDuration":165636,"Delta":182200385},{"NoteNumber":58,"Velocity":22,"Duration":164063,"SoundDuration":164063,"Delta":182366021},{"NoteNumber":54,"Velocity":20,"Duration":162592,"SoundDuration":162592,"Delta":182530085},{"NoteNumber":51,"Velocity":20,"Duration":161083,"SoundDuration":161083,"Delta":182692678},{"NoteNumber":54,"Velocity":25,"Duration":160102,"SoundDuration":160102,"Delta":182853761},{"NoteNumber":51,"Velocity":28,"Duration":160102,"SoundDuration":160102,"Delta":183013863},{"NoteNumber":33,"Velocity":25,"Duration":160102,"SoundDuration":160102,"Delta":183013863},{"NoteNumber":54,"Velocity":28,"Duration":160903,"SoundDuration":160903,"Delta":183173965},{"NoteNumber":34,"Velocity":25,"Duration":160903,"SoundDuration":160903,"Delta":183173965},{"NoteNumber":58,"Velocity":34,"Duration":161264,"SoundDuration":161264,"Delta":183334869},{"NoteNumber":35,"Velocity":29,"Duration":161264,"SoundDuration":161264,"Delta":183334869},{"NoteNumber":54,"Velocity":37,"Duration":161264,"SoundDuration":161264,"Delta":183496133},{"NoteNumber":34,"Velocity":25,"Duration":161264,"SoundDuration":161264,"Delta":183496133},{"NoteNumber":51,"Velocity":40,"Duration":161264,"SoundDuration":161264,"Delta":183657398},{"NoteNumber":33,"Velocity":25,"Duration":161264,"SoundDuration":161264,"Delta":183657398},{"NoteNumber":62,"Velocity":49,"Duration":952029,"SoundDuration":952029,"Delta":183818662},{"NoteNumber":34,"Velocity":29,"Duration":952029,"SoundDuration":952029,"Delta":183818662},{"NoteNumber":50,"Velocity":41,"Duration":159527,"SoundDuration":159527,"Delta":183978190},{"NoteNumber":53,"Velocity":38,"Duration":159527,"SoundDuration":159527,"Delta":184137717},{"NoteNumber":58,"Velocity":40,"Duration":157815,"SoundDuration":157815,"Delta":184297245},{"NoteNumber":53,"Velocity":35,"Duration":157815,"SoundDuration":157815,"Delta":184455061},{"NoteNumber":50,"Velocity":36,"Duration":157815,"SoundDuration":157815,"Delta":184612876},{"NoteNumber":53,"Velocity":40,"Duration":156152,"SoundDuration":156152,"Delta":184770692},{"NoteNumber":32,"Velocity":29,"Duration":961230,"SoundDuration":961230,"Delta":184770692},{"NoteNumber":50,"Velocity":35,"Duration":156152,"SoundDuration":156152,"Delta":184926844},{"NoteNumber":53,"Velocity":35,"Duration":156152,"SoundDuration":156152,"Delta":185082997},{"NoteNumber":58,"Velocity":40,"Duration":164257,"SoundDuration":164257,"Delta":185239149},{"NoteNumber":53,"Velocity":35,"Duration":164257,"SoundDuration":164257,"Delta":185403407},{"NoteNumber":50,"Velocity":36,"Duration":164257,"SoundDuration":164257,"Delta":185567664},{"NoteNumber":70,"Velocity":47,"Duration":1972970,"SoundDuration":1972970,"Delta":185731922},{"NoteNumber":31,"Velocity":29,"Duration":1972970,"SoundDuration":1972970,"Delta":185731922},{"NoteNumber":43,"Velocity":35,"Duration":1972970,"SoundDuration":1972970,"Delta":185731922},{"NoteNumber":58,"Velocity":32,"Duration":170779,"SoundDuration":170779,"Delta":185904950},{"NoteNumber":63,"Velocity":32,"Duration":168542,"SoundDuration":168542,"Delta":186075729},{"NoteNumber":67,"Velocity":37,"Duration":166373,"SoundDuration":166373,"Delta":186244271},{"NoteNumber":63,"Velocity":32,"Duration":164255,"SoundDuration":164255,"Delta":186410645},{"NoteNumber":58,"Velocity":33,"Duration":162185,"SoundDuration":162185,"Delta":186574901},{"NoteNumber":63,"Velocity":35,"Duration":161264,"SoundDuration":161264,"Delta":186737086},{"NoteNumber":58,"Velocity":31,"Duration":161264,"SoundDuration":161264,"Delta":186898351},{"NoteNumber":63,"Velocity":31,"Duration":161484,"SoundDuration":161484,"Delta":187059615},{"NoteNumber":67,"Velocity":36,"Duration":161264,"SoundDuration":161264,"Delta":187221100},{"NoteNumber":63,"Velocity":30,"Duration":161264,"SoundDuration":161264,"Delta":187382364},{"NoteNumber":58,"Velocity":30,"Duration":161264,"SoundDuration":161264,"Delta":187543628},{"NoteNumber":70,"Velocity":50,"Duration":476871,"SoundDuration":476871,"Delta":187704893},{"NoteNumber":41,"Velocity":35,"Duration":1975260,"SoundDuration":1975260,"Delta":187704893},{"NoteNumber":58,"Velocity":29,"Duration":158957,"SoundDuration":158957,"Delta":187863850},{"NoteNumber":62,"Velocity":29,"Duration":158957,"SoundDuration":158957,"Delta":188022807},{"NoteNumber":68,"Velocity":38,"Duration":161264,"SoundDuration":161264,"Delta":188181765},{"NoteNumber":62,"Velocity":28,"Duration":161264,"SoundDuration":161264,"Delta":188343029},{"NoteNumber":58,"Velocity":28,"Duration":161264,"SoundDuration":161264,"Delta":188504293},{"NoteNumber":72,"Velocity":42,"Duration":489116,"SoundDuration":489116,"Delta":188665558},{"NoteNumber":62,"Velocity":28,"Duration":163038,"SoundDuration":163038,"Delta":188828597},{"NoteNumber":68,"Velocity":28,"Duration":163038,"SoundDuration":163038,"Delta":188991636},{"NoteNumber":70,"Velocity":39,"Duration":525478,"SoundDuration":525478,"Delta":189154675},{"NoteNumber":68,"Velocity":28,"Duration":175285,"SoundDuration":175285,"Delta":189329960},{"NoteNumber":62,"Velocity":28,"Duration":174908,"SoundDuration":174908,"Delta":189505245},{"NoteNumber":79,"Velocity":41,"Duration":1485979,"SoundDuration":1485979,"Delta":189680153},{"NoteNumber":39,"Velocity":37,"Duration":1968023,"SoundDuration":1968023,"Delta":189680153},{"NoteNumber":67,"Velocity":25,"Duration":167155,"SoundDuration":167155,"Delta":189848935},{"NoteNumber":70,"Velocity":25,"Duration":165636,"SoundDuration":165636,"Delta":190016090},{"NoteNumber":75,"Velocity":31,"Duration":164063,"SoundDuration":164063,"Delta":190181726},{"NoteNumber":70,"Velocity":25,"Duration":162592,"SoundDuration":162592,"Delta":190345790},{"NoteNumber":67,"Velocity":25,"Duration":161083,"SoundDuration":161083,"Delta":190508383},{"NoteNumber":70,"Velocity":28,"Duration":160102,"SoundDuration":160102,"Delta":190669466},{"NoteNumber":67,"Velocity":25,"Duration":165998,"SoundDuration":165998,"Delta":190829568},{"NoteNumber":70,"Velocity":28,"Duration":170566,"SoundDuration":170566,"Delta":190995567},{"NoteNumber":77,"Velocity":31,"Duration":482044,"SoundDuration":482044,"Delta":191166133},{"NoteNumber":71,"Velocity":23,"Duration":160681,"SoundDuration":160681,"Delta":191326814},{"NoteNumber":67,"Velocity":23,"Duration":160681,"SoundDuration":160681,"Delta":191487496},{"NoteNumber":77,"Velocity":37,"Duration":487328,"SoundDuration":487328,"Delta":191648177},{"NoteNumber":44,"Velocity":33,"Duration":1981462,"SoundDuration":1981462,"Delta":191648177},{"NoteNumber":72,"Velocity":25,"Duration":162442,"SoundDuration":162442,"Delta":191810620},{"NoteNumber":63,"Velocity":23,"Duration":162442,"SoundDuration":162442,"Delta":191973063},{"NoteNumber":75,"Velocity":36,"Duration":487329,"SoundDuration":487329,"Delta":192135506},{"NoteNumber":72,"Velocity":22,"Duration":162442,"SoundDuration":162442,"Delta":192297949},{"NoteNumber":63,"Velocity":22,"Duration":162442,"SoundDuration":162442,"Delta":192460392},{"NoteNumber":72,"Velocity":35,"Duration":489116,"SoundDuration":489116,"Delta":192622835},{"NoteNumber":68,"Velocity":23,"Duration":163038,"SoundDuration":163038,"Delta":192785874},{"NoteNumber":63,"Velocity":23,"Duration":163038,"SoundDuration":163038,"Delta":192948913},{"NoteNumber":68,"Velocity":31,"Duration":517687,"SoundDuration":517687,"Delta":193111952},{"NoteNumber":65,"Velocity":22,"Duration":172562,"SoundDuration":172562,"Delta":193284515},{"NoteNumber":60,"Velocity":22,"Duration":172562,"SoundDuration":172562,"Delta":193457077},{"NoteNumber":67,"Velocity":39,"Duration":1471864,"SoundDuration":1471864,"Delta":193629640},{"NoteNumber":46,"Velocity":35,"Duration":1955657,"SoundDuration":1955657,"Delta":193629640},{"NoteNumber":55,"Velocity":24,"Duration":167155,"SoundDuration":167155,"Delta":193799865},{"NoteNumber":58,"Velocity":24,"Duration":165636,"SoundDuration":165636,"Delta":193967020},{"NoteNumber":63,"Velocity":29,"Duration":164063,"SoundDuration":164063,"Delta":194132657},{"NoteNumber":58,"Velocity":25,"Duration":162592,"SoundDuration":162592,"Delta":194296720},{"NoteNumber":55,"Velocity":25,"Duration":161083,"SoundDuration":161083,"Delta":194459313},{"NoteNumber":58,"Velocity":29,"Duration":160102,"SoundDuration":160102,"Delta":194620397},{"NoteNumber":55,"Velocity":24,"Duration":160102,"SoundDuration":160102,"Delta":194780499},{"NoteNumber":58,"Velocity":24,"Duration":160903,"SoundDuration":160903,"Delta":194940601},{"NoteNumber":63,"Velocity":38,"Duration":161264,"SoundDuration":161264,"Delta":195101505},{"NoteNumber":67,"Velocity":38,"Duration":483792,"SoundDuration":483792,"Delta":195101505},{"NoteNumber":58,"Velocity":25,"Duration":161264,"SoundDuration":161264,"Delta":195262769},{"NoteNumber":55,"Velocity":25,"Duration":161264,"SoundDuration":161264,"Delta":195424033},{"NoteNumber":72,"Velocity":36,"Duration":487328,"SoundDuration":487328,"Delta":195585298},{"NoteNumber":53,"Velocity":35,"Duration":1463774,"SoundDuration":1463774,"Delta":195585298},{"NoteNumber":46,"Velocity":29,"Duration":1981462,"SoundDuration":1981462,"Delta":195585298},{"NoteNumber":62,"Velocity":26,"Duration":162442,"SoundDuration":162442,"Delta":195747741},{"NoteNumber":65,"Velocity":26,"Duration":162442,"SoundDuration":162442,"Delta":195910184},{"NoteNumber":70,"Velocity":36,"Duration":487329,"SoundDuration":487329,"Delta":196072627},{"NoteNumber":62,"Velocity":22,"Duration":162442,"SoundDuration":162442,"Delta":196235070},{"NoteNumber":65,"Velocity":22,"Duration":162442,"SoundDuration":162442,"Delta":196397513},{"NoteNumber":68,"Velocity":33,"Duration":489116,"SoundDuration":489116,"Delta":196559956},{"NoteNumber":58,"Velocity":24,"Duration":163038,"SoundDuration":163038,"Delta":196722995},{"NoteNumber":62,"Velocity":24,"Duration":163038,"SoundDuration":163038,"Delta":196886034},{"NoteNumber":65,"Velocity":33,"Duration":517687,"SoundDuration":517687,"Delta":197049073},{"NoteNumber":56,"Velocity":35,"Duration":517687,"SoundDuration":517687,"Delta":197049073},{"NoteNumber":58,"Velocity":22,"Duration":172562,"SoundDuration":172562,"Delta":197221635},{"NoteNumber":62,"Velocity":22,"Duration":172562,"SoundDuration":172562,"Delta":197394198},{"NoteNumber":63,"Velocity":30,"Duration":1470420,"SoundDuration":1470420,"Delta":197566761},{"NoteNumber":39,"Velocity":29,"Duration":1954213,"SoundDuration":1954213,"Delta":197566761},{"NoteNumber":51,"Velocity":20,"Duration":167155,"SoundDuration":167155,"Delta":197735542},{"NoteNumber":55,"Velocity":20,"Duration":165636,"SoundDuration":165636,"Delta":197902697},{"NoteNumber":58,"Velocity":22,"Duration":164063,"SoundDuration":164063,"Delta":198068333},{"NoteNumber":55,"Velocity":20,"Duration":162592,"SoundDuration":162592,"Delta":198232397},{"NoteNumber":51,"Velocity":20,"Duration":161083,"SoundDuration":161083,"Delta":198394990},{"NoteNumber":55,"Velocity":21,"Duration":160102,"SoundDuration":160102,"Delta":198556073},{"NoteNumber":51,"Velocity":20,"Duration":160102,"SoundDuration":160102,"Delta":198716176},{"NoteNumber":55,"Velocity":22,"Duration":160903,"SoundDuration":160903,"Delta":198876278},{"NoteNumber":58,"Velocity":22,"Duration":161264,"SoundDuration":161264,"Delta":199037182},{"NoteNumber":55,"Velocity":22,"Duration":161264,"SoundDuration":161264,"Delta":199198446},{"NoteNumber":51,"Velocity":22,"Duration":161264,"SoundDuration":161264,"Delta":199359710},{"NoteNumber":63,"Velocity":30,"Duration":1470420,"SoundDuration":1470420,"Delta":199520975},{"NoteNumber":37,"Velocity":35,"Duration":1470420,"SoundDuration":1470420,"Delta":199520975},{"NoteNumber":51,"Velocity":20,"Duration":167155,"SoundDuration":167155,"Delta":199689756},{"NoteNumber":55,"Velocity":20,"Duration":165636,"SoundDuration":165636,"Delta":199856911},{"NoteNumber":58,"Velocity":22,"Duration":164063,"SoundDuration":164063,"Delta":200022547},{"NoteNumber":55,"Velocity":20,"Duration":162592,"SoundDuration":162592,"Delta":200186611},{"NoteNumber":51,"Velocity":20,"Duration":161083,"SoundDuration":161083,"Delta":200349204},{"NoteNumber":55,"Velocity":21,"Duration":160102,"SoundDuration":160102,"Delta":200510287},{"NoteNumber":51,"Velocity":20,"Duration":160102,"SoundDuration":160102,"Delta":200670389},{"NoteNumber":55,"Velocity":22,"Duration":160903,"SoundDuration":160903,"Delta":200830492},{"NoteNumber":58,"Velocity":22,"Duration":161264,"SoundDuration":161264,"Delta":200991395},{"NoteNumber":40,"Velocity":24,"Duration":161264,"SoundDuration":161264,"Delta":200991395},{"NoteNumber":55,"Velocity":22,"Duration":161264,"SoundDuration":161264,"Delta":201152660},{"NoteNumber":39,"Velocity":28,"Duration":161264,"SoundDuration":161264,"Delta":201152660},{"NoteNumber":51,"Velocity":22,"Duration":161264,"SoundDuration":161264,"Delta":201313924},{"NoteNumber":37,"Velocity":31,"Duration":161264,"SoundDuration":161264,"Delta":201313924},{"NoteNumber":63,"Velocity":30,"Duration":1470420,"SoundDuration":1470420,"Delta":201475188},{"NoteNumber":35,"Velocity":29,"Duration":1954213,"SoundDuration":1954213,"Delta":201475188},{"NoteNumber":51,"Velocity":20,"Duration":167155,"SoundDuration":167155,"Delta":201643970},{"NoteNumber":56,"Velocity":20,"Duration":165636,"SoundDuration":165636,"Delta":201811125},{"NoteNumber":59,"Velocity":22,"Duration":164063,"SoundDuration":164063,"Delta":201976761},{"NoteNumber":56,"Velocity":20,"Duration":162592,"SoundDuration":162592,"Delta":202140825},{"NoteNumber":51,"Velocity":20,"Duration":161083,"SoundDuration":161083,"Delta":202303418},{"NoteNumber":56,"Velocity":21,"Duration":160102,"SoundDuration":160102,"Delta":202464501},{"NoteNumber":51,"Velocity":20,"Duration":160102,"SoundDuration":160102,"Delta":202624603},{"NoteNumber":56,"Velocity":22,"Duration":160903,"SoundDuration":160903,"Delta":202784706},{"NoteNumber":59,"Velocity":22,"Duration":161264,"SoundDuration":161264,"Delta":202945609},{"NoteNumber":56,"Velocity":22,"Duration":161264,"SoundDuration":161264,"Delta":203106873},{"NoteNumber":51,"Velocity":22,"Duration":161264,"SoundDuration":161264,"Delta":203268138},{"NoteNumber":63,"Velocity":30,"Duration":1470420,"SoundDuration":1470420,"Delta":203429402},{"NoteNumber":34,"Velocity":35,"Duration":1149414,"SoundDuration":1149414,"Delta":203429402},{"NoteNumber":51,"Velocity":20,"Duration":167155,"SoundDuration":167155,"Delta":203598183},{"NoteNumber":55,"Velocity":20,"Duration":165636,"SoundDuration":165636,"Delta":203765339},{"NoteNumber":61,"Velocity":22,"Duration":164063,"SoundDuration":164063,"Delta":203930975},{"NoteNumber":55,"Velocity":20,"Duration":162592,"SoundDuration":162592,"Delta":204095039},{"NoteNumber":51,"Velocity":20,"Duration":161083,"SoundDuration":161083,"Delta":204257631},{"NoteNumber":55,"Velocity":21,"Duration":160102,"SoundDuration":160102,"Delta":204418715},{"NoteNumber":51,"Velocity":20,"Duration":160102,"SoundDuration":160102,"Delta":204578817},{"NoteNumber":35,"Velocity":24,"Duration":160102,"SoundDuration":160102,"Delta":204578817},{"NoteNumber":55,"Velocity":22,"Duration":160903,"SoundDuration":160903,"Delta":204738919},{"NoteNumber":34,"Velocity":24,"Duration":160903,"SoundDuration":160903,"Delta":204738919},{"NoteNumber":61,"Velocity":22,"Duration":161264,"SoundDuration":161264,"Delta":204899823},{"NoteNumber":37,"Velocity":27,"Duration":161264,"SoundDuration":161264,"Delta":204899823},{"NoteNumber":55,"Velocity":22,"Duration":161264,"SoundDuration":161264,"Delta":205061087},{"NoteNumber":35,"Velocity":24,"Duration":161264,"SoundDuration":161264,"Delta":205061087},{"NoteNumber":51,"Velocity":22,"Duration":161264,"SoundDuration":161264,"Delta":205222352},{"NoteNumber":34,"Velocity":24,"Duration":161264,"SoundDuration":161264,"Delta":205222352},{"NoteNumber":63,"Velocity":30,"Duration":1470420,"SoundDuration":1470420,"Delta":205383616},{"NoteNumber":32,"Velocity":29,"Duration":1954213,"SoundDuration":1954213,"Delta":205383616},{"NoteNumber":51,"Velocity":20,"Duration":167155,"SoundDuration":167155,"Delta":205552397},{"NoteNumber":56,"Velocity":20,"Duration":165636,"SoundDuration":165636,"Delta":205719552},{"NoteNumber":59,"Velocity":22,"Duration":164063,"SoundDuration":164063,"Delta":205885188},{"NoteNumber":56,"Velocity":20,"Duration":162592,"SoundDuration":162592,"Delta":206049252},{"NoteNumber":51,"Velocity":20,"Duration":161083,"SoundDuration":161083,"Delta":206211845},{"NoteNumber":56,"Velocity":21,"Duration":160102,"SoundDuration":160102,"Delta":206372928},{"NoteNumber":51,"Velocity":20,"Duration":160102,"SoundDuration":160102,"Delta":206533031},{"NoteNumber":56,"Velocity":22,"Duration":160903,"SoundDuration":160903,"Delta":206693133},{"NoteNumber":59,"Velocity":22,"Duration":161264,"SoundDuration":161264,"Delta":206854037},{"NoteNumber":56,"Velocity":22,"Duration":161264,"SoundDuration":161264,"Delta":207015301},{"NoteNumber":51,"Velocity":22,"Duration":161264,"SoundDuration":161264,"Delta":207176565},{"NoteNumber":68,"Velocity":36,"Duration":1470420,"SoundDuration":1470420,"Delta":207337830},{"NoteNumber":30,"Velocity":22,"Duration":101452,"SoundDuration":101452,"Delta":207337830},{"NoteNumber":32,"Velocity":18,"Duration":100917,"SoundDuration":100917,"Delta":207439283},{"NoteNumber":56,"Velocity":24,"Duration":167155,"SoundDuration":167155,"Delta":207506611},{"NoteNumber":30,"Velocity":24,"Duration":100260,"SoundDuration":100260,"Delta":207540200},{"NoteNumber":32,"Velocity":21,"Duration":99745,"SoundDuration":99745,"Delta":207640461},{"NoteNumber":59,"Velocity":24,"Duration":165636,"SoundDuration":165636,"Delta":207673766},{"NoteNumber":30,"Velocity":22,"Duration":99196,"SoundDuration":99196,"Delta":207740206},{"NoteNumber":62,"Velocity":27,"Duration":164063,"SoundDuration":164063,"Delta":207839402},{"NoteNumber":32,"Velocity":18,"Duration":98645,"SoundDuration":98645,"Delta":207839402},{"NoteNumber":30,"Velocity":24,"Duration":98026,"SoundDuration":98026,"Delta":207938048},{"NoteNumber":59,"Velocity":25,"Duration":162592,"SoundDuration":162592,"Delta":208003466},{"NoteNumber":32,"Velocity":21,"Duration":97607,"SoundDuration":97607,"Delta":208036074},{"NoteNumber":30,"Velocity":27,"Duration":96993,"SoundDuration":96993,"Delta":208133681},{"NoteNumber":56,"Velocity":25,"Duration":161083,"SoundDuration":161083,"Delta":208166059},{"NoteNumber":32,"Velocity":23,"Duration":96467,"SoundDuration":96467,"Delta":208230675},{"NoteNumber":59,"Velocity":39,"Duration":160102,"SoundDuration":160102,"Delta":208327142},{"NoteNumber":30,"Velocity":31,"Duration":96061,"SoundDuration":96061,"Delta":208327142},{"NoteNumber":32,"Velocity":26,"Duration":96061,"SoundDuration":96061,"Delta":208423204},{"NoteNumber":56,"Velocity":43,"Duration":160102,"SoundDuration":160102,"Delta":208487244},{"NoteNumber":30,"Velocity":35,"Duration":96061,"SoundDuration":96061,"Delta":208519265},{"NoteNumber":32,"Velocity":29,"Duration":96061,"SoundDuration":96061,"Delta":208615326},{"NoteNumber":59,"Velocity":46,"Duration":160903,"SoundDuration":160903,"Delta":208647347},{"NoteNumber":30,"Velocity":38,"Duration":96862,"SoundDuration":96862,"Delta":208711388},{"NoteNumber":62,"Velocity":50,"Duration":161264,"SoundDuration":161264,"Delta":208808250},{"NoteNumber":32,"Velocity":32,"Duration":96758,"SoundDuration":96758,"Delta":208808250},{"NoteNumber":30,"Velocity":42,"Duration":129011,"SoundDuration":129011,"Delta":208905009},{"NoteNumber":59,"Velocity":54,"Duration":161264,"SoundDuration":161264,"Delta":208969515},{"NoteNumber":29,"Velocity":37,"Duration":129011,"SoundDuration":129011,"Delta":209034020},{"NoteNumber":56,"Velocity":57,"Duration":161264,"SoundDuration":161264,"Delta":209130779},{"NoteNumber":30,"Velocity":38,"Duration":129011,"SoundDuration":129011,"Delta":209163032},{"NoteNumber":71,"Velocity":74,"Duration":4385262,"SoundDuration":4385262,"Delta":209292043},{"NoteNumber":41,"Velocity":68,"Duration":989312,"SoundDuration":989312,"Delta":209292043},{"NoteNumber":29,"Velocity":60,"Duration":989312,"SoundDuration":989312,"Delta":209292043},{"NoteNumber":59,"Velocity":55,"Duration":167155,"SoundDuration":167155,"Delta":209460825},{"NoteNumber":61,"Velocity":55,"Duration":165636,"SoundDuration":165636,"Delta":209627980},{"NoteNumber":68,"Velocity":64,"Duration":164063,"SoundDuration":164063,"Delta":209793616},{"NoteNumber":61,"Velocity":48,"Duration":162592,"SoundDuration":162592,"Delta":209957680},{"NoteNumber":59,"Velocity":48,"Duration":161083,"SoundDuration":161083,"Delta":210120273},{"NoteNumber":61,"Velocity":52,"Duration":160102,"SoundDuration":160102,"Delta":210281356},{"NoteNumber":41,"Velocity":50,"Duration":986178,"SoundDuration":986178,"Delta":210281356},{"NoteNumber":59,"Velocity":42,"Duration":160102,"SoundDuration":160102,"Delta":210441458},{"NoteNumber":44,"Velocity":41,"Duration":240954,"SoundDuration":240954,"Delta":210521509},{"NoteNumber":61,"Velocity":42,"Duration":160903,"SoundDuration":160903,"Delta":210601561},{"NoteNumber":68,"Velocity":51,"Duration":165480,"SoundDuration":165480,"Delta":210762464},{"NoteNumber":47,"Velocity":41,"Duration":248221,"SoundDuration":248221,"Delta":210762464},{"NoteNumber":61,"Velocity":38,"Duration":168356,"SoundDuration":168356,"Delta":210927945},{"NoteNumber":49,"Velocity":41,"Duration":256849,"SoundDuration":256849,"Delta":211010685},{"NoteNumber":59,"Velocity":36,"Duration":171233,"SoundDuration":171233,"Delta":211096302},{"NoteNumber":62,"Velocity":46,"Duration":169594,"SoundDuration":169594,"Delta":211267535},{"NoteNumber":41,"Velocity":40,"Duration":1045639,"SoundDuration":1045639,"Delta":211267535},{"NoteNumber":50,"Velocity":49,"Duration":1045639,"SoundDuration":1045639,"Delta":211267535},{"NoteNumber":59,"Velocity":38,"Duration":171565,"SoundDuration":171565,"Delta":211437129},{"NoteNumber":62,"Velocity":37,"Duration":173321,"SoundDuration":173321,"Delta":211608694},{"NoteNumber":68,"Velocity":36,"Duration":175200,"SoundDuration":175200,"Delta":211782015},{"NoteNumber":62,"Velocity":36,"Duration":177040,"SoundDuration":177040,"Delta":211957216},{"NoteNumber":59,"Velocity":35,"Duration":178918,"SoundDuration":178918,"Delta":212134256},{"NoteNumber":61,"Velocity":34,"Duration":186864,"SoundDuration":186864,"Delta":212313175},{"NoteNumber":49,"Velocity":31,"Duration":1364131,"SoundDuration":1364131,"Delta":212313175},{"NoteNumber":59,"Velocity":33,"Duration":190744,"SoundDuration":190744,"Delta":212500039},{"NoteNumber":61,"Velocity":32,"Duration":194094,"SoundDuration":194094,"Delta":212690783},{"NoteNumber":68,"Velocity":31,"Duration":197108,"SoundDuration":197108,"Delta":212884878},{"NoteNumber":61,"Velocity":30,"Duration":200676,"SoundDuration":200676,"Delta":213081986},{"NoteNumber":59,"Velocity":29,"Duration":394643,"SoundDuration":394643,"Delta":213282662},{"NoteNumber":70,"Velocity":44,"Duration":2057705,"SoundDuration":2057705,"Delta":213677306},{"NoteNumber":42,"Velocity":29,"Duration":2057705,"SoundDuration":2057705,"Delta":213677306},{"NoteNumber":49,"Velocity":35,"Duration":2057705,"SoundDuration":2057705,"Delta":213677306},{"NoteNumber":58,"Velocity":26,"Duration":185479,"SoundDuration":185479,"Delta":213870353},{"NoteNumber":61,"Velocity":26,"Duration":178301,"SoundDuration":178301,"Delta":214055832},{"NoteNumber":66,"Velocity":29,"Duration":172094,"SoundDuration":172094,"Delta":214234133},{"NoteNumber":61,"Velocity":25,"Duration":168110,"SoundDuration":168110,"Delta":214406227},{"NoteNumber":58,"Velocity":25,"Duration":167982,"SoundDuration":167982,"Delta":214574338},{"NoteNumber":61,"Velocity":30,"Duration":167604,"SoundDuration":167604,"Delta":214742320},{"NoteNumber":58,"Velocity":25,"Duration":166678,"SoundDuration":166678,"Delta":214909925},{"NoteNumber":61,"Velocity":25,"Duration":165559,"SoundDuration":165559,"Delta":215076603},{"NoteNumber":66,"Velocity":29,"Duration":164333,"SoundDuration":164333,"Delta":215242162},{"NoteNumber":61,"Velocity":26,"Duration":164257,"SoundDuration":164257,"Delta":215406496},{"NoteNumber":58,"Velocity":26,"Duration":164257,"SoundDuration":164257,"Delta":215570754},{"NoteNumber":70,"Velocity":41,"Duration":968129,"SoundDuration":968129,"Delta":215735012},{"NoteNumber":49,"Velocity":35,"Duration":968129,"SoundDuration":968129,"Delta":215735012},{"NoteNumber":42,"Velocity":29,"Duration":968129,"SoundDuration":968129,"Delta":215735012},{"NoteNumber":58,"Velocity":27,"Duration":160681,"SoundDuration":160681,"Delta":215895693},{"NoteNumber":61,"Velocity":29,"Duration":160681,"SoundDuration":160681,"Delta":216056374},{"NoteNumber":66,"Velocity":31,"Duration":161851,"SoundDuration":161851,"Delta":216217056},{"NoteNumber":61,"Velocity":26,"Duration":161851,"SoundDuration":161851,"Delta":216378907},{"NoteNumber":58,"Velocity":29,"Duration":162382,"SoundDuration":162382,"Delta":216540759},{"NoteNumber":70,"Velocity":44,"Duration":1037765,"SoundDuration":1037765,"Delta":216703141},{"NoteNumber":42,"Velocity":29,"Duration":1037765,"SoundDuration":1037765,"Delta":216703141},{"NoteNumber":49,"Velocity":35,"Duration":1037765,"SoundDuration":1037765,"Delta":216703141},{"NoteNumber":58,"Velocity":28,"Duration":165424,"SoundDuration":165424,"Delta":216866693},{"NoteNumber":61,"Velocity":30,"Duration":167589,"SoundDuration":167589,"Delta":217032117},{"NoteNumber":66,"Velocity":35,"Duration":180277,"SoundDuration":180277,"Delta":217199707},{"NoteNumber":61,"Velocity":31,"Duration":180277,"SoundDuration":180277,"Delta":217379985},{"NoteNumber":58,"Velocity":33,"Duration":180644,"SoundDuration":180644,"Delta":217560262},{"NoteNumber":70,"Velocity":49,"Duration":2053045,"SoundDuration":2053045,"Delta":217740907},{"NoteNumber":51,"Velocity":35,"Duration":4063959,"SoundDuration":4063959,"Delta":217740907},{"NoteNumber":39,"Velocity":29,"Duration":4063959,"SoundDuration":4063959,"Delta":217740907},{"NoteNumber":58,"Velocity":27,"Duration":177664,"SoundDuration":177664,"Delta":217920368},{"NoteNumber":63,"Velocity":27,"Duration":176067,"SoundDuration":176067,"Delta":218098033},{"NoteNumber":66,"Velocity":34,"Duration":174426,"SoundDuration":174426,"Delta":218274101},{"NoteNumber":63,"Velocity":29,"Duration":172815,"SoundDuration":172815,"Delta":218448527},{"NoteNumber":58,"Velocity":29,"Duration":171316,"SoundDuration":171316,"Delta":218621343},{"NoteNumber":63,"Velocity":37,"Duration":169749,"SoundDuration":169749,"Delta":218792660},{"NoteNumber":58,"Velocity":29,"Duration":168222,"SoundDuration":168222,"Delta":218962409},{"NoteNumber":63,"Velocity":29,"Duration":166801,"SoundDuration":166801,"Delta":219130631},{"NoteNumber":66,"Velocity":36,"Duration":165557,"SoundDuration":165557,"Delta":219297433},{"NoteNumber":63,"Velocity":29,"Duration":165480,"SoundDuration":165480,"Delta":219462991},{"NoteNumber":58,"Velocity":29,"Duration":165480,"SoundDuration":165480,"Delta":219628472},{"NoteNumber":66,"Velocity":49,"Duration":2010914,"SoundDuration":2010914,"Delta":219793953},{"NoteNumber":54,"Velocity":30,"Duration":162442,"SoundDuration":162442,"Delta":219956396},{"NoteNumber":58,"Velocity":30,"Duration":162442,"SoundDuration":162442,"Delta":220118839},{"NoteNumber":63,"Velocity":36,"Duration":162443,"SoundDuration":162443,"Delta":220281282},{"NoteNumber":58,"Velocity":30,"Duration":162442,"SoundDuration":162442,"Delta":220443725},{"NoteNumber":54,"Velocity":30,"Duration":162722,"SoundDuration":162722,"Delta":220606168},{"NoteNumber":58,"Velocity":37,"Duration":163605,"SoundDuration":163605,"Delta":220768890},{"NoteNumber":54,"Velocity":30,"Duration":164829,"SoundDuration":164829,"Delta":220932496},{"NoteNumber":58,"Velocity":30,"Duration":166708,"SoundDuration":166708,"Delta":221097326},{"NoteNumber":63,"Velocity":35,"Duration":180277,"SoundDuration":180277,"Delta":221264034},{"NoteNumber":58,"Velocity":30,"Duration":180277,"SoundDuration":180277,"Delta":221444311},{"NoteNumber":54,"Velocity":30,"Duration":180277,"SoundDuration":180277,"Delta":221624589},{"NoteNumber":68,"Velocity":49,"Duration":1995879,"SoundDuration":1995879,"Delta":221804867},{"NoteNumber":35,"Velocity":29,"Duration":1995418,"SoundDuration":1995418,"Delta":221809374},{"NoteNumber":47,"Velocity":35,"Duration":1995073,"SoundDuration":1995073,"Delta":221812754},{"NoteNumber":56,"Velocity":29,"Duration":172396,"SoundDuration":172396,"Delta":221979491},{"NoteNumber":59,"Velocity":29,"Duration":170820,"SoundDuration":170820,"Delta":222151888},{"NoteNumber":63,"Velocity":37,"Duration":169344,"SoundDuration":169344,"Delta":222322709},{"NoteNumber":59,"Velocity":29,"Duration":167904,"SoundDuration":167904,"Delta":222492053},{"NoteNumber":56,"Velocity":29,"Duration":166333,"SoundDuration":166333,"Delta":222659958},{"NoteNumber":59,"Velocity":37,"Duration":164944,"SoundDuration":164944,"Delta":222826291},{"NoteNumber":56,"Velocity":29,"Duration":163568,"SoundDuration":163568,"Delta":222991236},{"NoteNumber":59,"Velocity":29,"Duration":162148,"SoundDuration":162148,"Delta":223154804},{"NoteNumber":63,"Velocity":36,"Duration":161264,"SoundDuration":161264,"Delta":223316953},{"NoteNumber":59,"Velocity":29,"Duration":161264,"SoundDuration":161264,"Delta":223478217},{"NoteNumber":56,"Velocity":29,"Duration":161264,"SoundDuration":161264,"Delta":223639482},{"NoteNumber":66,"Velocity":46,"Duration":485555,"SoundDuration":485555,"Delta":223800746},{"NoteNumber":37,"Velocity":29,"Duration":1487262,"SoundDuration":1487262,"Delta":223800746},{"NoteNumber":49,"Velocity":35,"Duration":1487262,"SoundDuration":1487262,"Delta":223800746},{"NoteNumber":56,"Velocity":29,"Duration":161851,"SoundDuration":161851,"Delta":223962598},{"NoteNumber":59,"Velocity":29,"Duration":161851,"SoundDuration":161851,"Delta":224124449},{"NoteNumber":65,"Velocity":45,"Duration":495847,"SoundDuration":495847,"Delta":224286301},{"NoteNumber":56,"Velocity":28,"Duration":165327,"SoundDuration":165327,"Delta":224450410},{"NoteNumber":59,"Velocity":28,"Duration":166410,"SoundDuration":166410,"Delta":224615738},{"NoteNumber":63,"Velocity":44,"Duration":505860,"SoundDuration":505860,"Delta":224782149},{"NoteNumber":56,"Velocity":29,"Duration":168620,"SoundDuration":168620,"Delta":224950769},{"NoteNumber":59,"Velocity":30,"Duration":168620,"SoundDuration":168620,"Delta":225119389},{"NoteNumber":61,"Velocity":40,"Duration":517687,"SoundDuration":517687,"Delta":225288009},{"NoteNumber":47,"Velocity":20,"Duration":517687,"SoundDuration":517687,"Delta":225288009},{"NoteNumber":49,"Velocity":26,"Duration":517687,"SoundDuration":517687,"Delta":225288009},{"NoteNumber":53,"Velocity":29,"Duration":172562,"SoundDuration":172562,"Delta":225460571},{"NoteNumber":56,"Velocity":30,"Duration":172562,"SoundDuration":172562,"Delta":225633134},{"NoteNumber":66,"Velocity":49,"Duration":1045739,"SoundDuration":1045739,"Delta":225805697},{"NoteNumber":46,"Velocity":29,"Duration":1045739,"SoundDuration":1045739,"Delta":225805697},{"NoteNumber":49,"Velocity":35,"Duration":1045739,"SoundDuration":1045739,"Delta":225805697},{"NoteNumber":54,"Velocity":32,"Duration":176773,"SoundDuration":176773,"Delta":225984165},{"NoteNumber":58,"Velocity":33,"Duration":175200,"SoundDuration":175200,"Delta":226160939},{"NoteNumber":61,"Velocity":35,"Duration":173405,"SoundDuration":173405,"Delta":226336139},{"NoteNumber":58,"Velocity":36,"Duration":171813,"SoundDuration":171813,"Delta":226509545},{"NoteNumber":54,"Velocity":38,"Duration":170078,"SoundDuration":170078,"Delta":226681358},{"NoteNumber":70,"Velocity":48,"Duration":993677,"SoundDuration":993677,"Delta":226851437},{"NoteNumber":51,"Velocity":35,"Duration":870484,"SoundDuration":870484,"Delta":226851437},{"NoteNumber":42,"Velocity":29,"Duration":870484,"SoundDuration":870484,"Delta":226851437},{"NoteNumber":60,"Velocity":38,"Duration":166958,"SoundDuration":166958,"Delta":227019978},{"NoteNumber":63,"Velocity":36,"Duration":165405,"SoundDuration":165405,"Delta":227186936},{"NoteNumber":66,"Velocity":35,"Duration":164257,"SoundDuration":164257,"Delta":227352341},{"NoteNumber":63,"Velocity":33,"Duration":164257,"SoundDuration":164257,"Delta":227516599},{"NoteNumber":60,"Velocity":32,"Duration":164257,"SoundDuration":164257,"Delta":227680857},{"NoteNumber":37,"Velocity":29,"Duration":2125225,"SoundDuration":2125225,"Delta":227721921},{"NoteNumber":68,"Velocity":41,"Duration":1461199,"SoundDuration":1461199,"Delta":227845114},{"NoteNumber":53,"Velocity":35,"Duration":2002032,"SoundDuration":2002032,"Delta":227845114},{"NoteNumber":56,"Velocity":27,"Duration":161851,"SoundDuration":161851,"Delta":228007568},{"NoteNumber":61,"Velocity":27,"Duration":161851,"SoundDuration":161851,"Delta":228169419},{"NoteNumber":65,"Velocity":30,"Duration":157257,"SoundDuration":157257,"Delta":228331271},{"NoteNumber":61,"Velocity":27,"Duration":157257,"SoundDuration":157257,"Delta":228488528},{"NoteNumber":56,"Velocity":27,"Duration":160139,"SoundDuration":160139,"Delta":228645786},{"NoteNumber":61,"Velocity":30,"Duration":164072,"SoundDuration":164072,"Delta":228805925},{"NoteNumber":56,"Velocity":27,"Duration":166039,"SoundDuration":166039,"Delta":228969998},{"NoteNumber":61,"Velocity":27,"Duration":170276,"SoundDuration":170276,"Delta":229136037},{"NoteNumber":65,"Velocity":31,"Duration":180277,"SoundDuration":180277,"Delta":229306314},{"NoteNumber":69,"Velocity":39,"Duration":540832,"SoundDuration":540832,"Delta":229306314},{"NoteNumber":61,"Velocity":24,"Duration":180277,"SoundDuration":180277,"Delta":229486591},{"NoteNumber":57,"Velocity":24,"Duration":180277,"SoundDuration":180277,"Delta":229666869},{"NoteNumber":70,"Velocity":44,"Duration":2040408,"SoundDuration":2040408,"Delta":229847147},{"NoteNumber":49,"Velocity":35,"Duration":2040408,"SoundDuration":2040408,"Delta":229847147},{"NoteNumber":42,"Velocity":29,"Duration":2040408,"SoundDuration":2040408,"Delta":229847147},{"NoteNumber":58,"Velocity":26,"Duration":178022,"SoundDuration":178022,"Delta":230026970},{"NoteNumber":61,"Velocity":26,"Duration":176067,"SoundDuration":176067,"Delta":230204993},{"NoteNumber":66,"Velocity":29,"Duration":174256,"SoundDuration":174256,"Delta":230381061},{"NoteNumber":61,"Velocity":25,"Duration":172480,"SoundDuration":172480,"Delta":230555317},{"NoteNumber":58,"Velocity":25,"Duration":170655,"SoundDuration":170655,"Delta":230727797},{"NoteNumber":61,"Velocity":30,"Duration":168942,"SoundDuration":168942,"Delta":230898453},{"NoteNumber":58,"Velocity":25,"Duration":167272,"SoundDuration":167272,"Delta":231067395},{"NoteNumber":61,"Velocity":25,"Duration":165559,"SoundDuration":165559,"Delta":231234668},{"NoteNumber":66,"Velocity":29,"Duration":162442,"SoundDuration":162442,"Delta":231400227},{"NoteNumber":61,"Velocity":26,"Duration":162442,"SoundDuration":162442,"Delta":231562670},{"NoteNumber":58,"Velocity":26,"Duration":162442,"SoundDuration":162442,"Delta":231725113},{"NoteNumber":70,"Velocity":41,"Duration":953754,"SoundDuration":953754,"Delta":231887556},{"NoteNumber":49,"Velocity":35,"Duration":953754,"SoundDuration":953754,"Delta":231887556},{"NoteNumber":42,"Velocity":29,"Duration":953754,"SoundDuration":953754,"Delta":231887556},{"NoteNumber":58,"Velocity":27,"Duration":158390,"SoundDuration":158390,"Delta":232045946},{"NoteNumber":61,"Velocity":29,"Duration":158390,"SoundDuration":158390,"Delta":232204337},{"NoteNumber":66,"Velocity":31,"Duration":159527,"SoundDuration":159527,"Delta":232362728},{"NoteNumber":61,"Velocity":26,"Duration":159527,"SoundDuration":159527,"Delta":232522255},{"NoteNumber":58,"Velocity":29,"Duration":159527,"SoundDuration":159527,"Delta":232681783},{"NoteNumber":70,"Velocity":44,"Duration":1032731,"SoundDuration":1032731,"Delta":232841311},{"NoteNumber":49,"Velocity":35,"Duration":1032731,"SoundDuration":1032731,"Delta":232841311},{"NoteNumber":42,"Velocity":29,"Duration":1032731,"SoundDuration":1032731,"Delta":232841311},{"NoteNumber":58,"Velocity":28,"Duration":163465,"SoundDuration":163465,"Delta":233001999},{"NoteNumber":61,"Velocity":30,"Duration":167376,"SoundDuration":167376,"Delta":233165465},{"NoteNumber":66,"Velocity":35,"Duration":180277,"SoundDuration":180277,"Delta":233332842},{"NoteNumber":61,"Velocity":31,"Duration":180277,"SoundDuration":180277,"Delta":233513119},{"NoteNumber":58,"Velocity":33,"Duration":180644,"SoundDuration":180644,"Delta":233693397},{"NoteNumber":70,"Velocity":49,"Duration":2036140,"SoundDuration":2036140,"Delta":233874042},{"NoteNumber":39,"Velocity":29,"Duration":3014834,"SoundDuration":3014834,"Delta":233874042},{"NoteNumber":51,"Velocity":35,"Duration":3014834,"SoundDuration":3014834,"Delta":233874042},{"NoteNumber":58,"Velocity":27,"Duration":177664,"SoundDuration":177664,"Delta":234053503},{"NoteNumber":63,"Velocity":27,"Duration":175898,"SoundDuration":175898,"Delta":234231168},{"NoteNumber":66,"Velocity":34,"Duration":171498,"SoundDuration":171498,"Delta":234407066},{"NoteNumber":63,"Velocity":29,"Duration":170014,"SoundDuration":170014,"Delta":234578564},{"NoteNumber":58,"Velocity":29,"Duration":168525,"SoundDuration":168525,"Delta":234748579},{"NoteNumber":63,"Velocity":37,"Duration":166973,"SoundDuration":166973,"Delta":234917105},{"NoteNumber":58,"Velocity":29,"Duration":165574,"SoundDuration":165574,"Delta":235084078},{"NoteNumber":63,"Velocity":29,"Duration":164164,"SoundDuration":164164,"Delta":235249653},{"NoteNumber":66,"Velocity":36,"Duration":165403,"SoundDuration":165403,"Delta":235413817},{"NoteNumber":63,"Velocity":29,"Duration":165480,"SoundDuration":165480,"Delta":235579221},{"NoteNumber":58,"Velocity":29,"Duration":165480,"SoundDuration":165480,"Delta":235744702},{"NoteNumber":66,"Velocity":49,"Duration":978694,"SoundDuration":978694,"Delta":235910182},{"NoteNumber":54,"Velocity":30,"Duration":163038,"SoundDuration":163038,"Delta":236073221},{"NoteNumber":58,"Velocity":30,"Duration":163038,"SoundDuration":163038,"Delta":236236260},{"NoteNumber":63,"Velocity":36,"Duration":163038,"SoundDuration":163038,"Delta":236399299},{"NoteNumber":58,"Velocity":30,"Duration":163038,"SoundDuration":163038,"Delta":236562338},{"NoteNumber":54,"Velocity":30,"Duration":163499,"SoundDuration":163499,"Delta":236725377},{"NoteNumber":65,"Velocity":49,"Duration":1023202,"SoundDuration":1023202,"Delta":236888877},{"NoteNumber":46,"Velocity":35,"Duration":1023202,"SoundDuration":1023202,"Delta":236888877},{"NoteNumber":34,"Velocity":29,"Duration":1023202,"SoundDuration":1023202,"Delta":236888877},{"NoteNumber":53,"Velocity":30,"Duration":169182,"SoundDuration":169182,"Delta":237056307},{"NoteNumber":56,"Velocity":30,"Duration":170903,"SoundDuration":170903,"Delta":237225490},{"NoteNumber":62,"Velocity":35,"Duration":171895,"SoundDuration":171895,"Delta":237396394},{"NoteNumber":56,"Velocity":30,"Duration":171895,"SoundDuration":171895,"Delta":237568289},{"NoteNumber":53,"Velocity":30,"Duration":171894,"SoundDuration":171894,"Delta":237740184},{"NoteNumber":63,"Velocity":49,"Duration":1017709,"SoundDuration":1017709,"Delta":237912079},{"NoteNumber":35,"Velocity":29,"Duration":1017293,"SoundDuration":1017293,"Delta":237916586},{"NoteNumber":47,"Velocity":35,"Duration":1016981,"SoundDuration":1016981,"Delta":237919966},{"NoteNumber":51,"Velocity":35,"Duration":172396,"SoundDuration":172396,"Delta":238086704},{"NoteNumber":54,"Velocity":40,"Duration":170820,"SoundDuration":170820,"Delta":238259100},{"NoteNumber":59,"Velocity":45,"Duration":168769,"SoundDuration":168769,"Delta":238429921},{"NoteNumber":54,"Velocity":50,"Duration":166474,"SoundDuration":166474,"Delta":238598690},{"NoteNumber":51,"Velocity":56,"Duration":164623,"SoundDuration":164623,"Delta":238765164},{"NoteNumber":68,"Velocity":65,"Duration":954645,"SoundDuration":954645,"Delta":238929788},{"NoteNumber":44,"Velocity":40,"Duration":954645,"SoundDuration":954645,"Delta":238929788},{"NoteNumber":32,"Velocity":33,"Duration":954645,"SoundDuration":954645,"Delta":238929788},{"NoteNumber":56,"Velocity":48,"Duration":161032,"SoundDuration":161032,"Delta":239092590},{"NoteNumber":59,"Velocity":45,"Duration":160702,"SoundDuration":160702,"Delta":239253622},{"NoteNumber":63,"Velocity":55,"Duration":156702,"SoundDuration":156702,"Delta":239414325},{"NoteNumber":59,"Velocity":33,"Duration":156702,"SoundDuration":156702,"Delta":239571028},{"NoteNumber":56,"Velocity":36,"Duration":156703,"SoundDuration":156703,"Delta":239727731},{"NoteNumber":66,"Velocity":46,"Duration":477767,"SoundDuration":477767,"Delta":239884434},{"NoteNumber":37,"Velocity":29,"Duration":1987470,"SoundDuration":1987470,"Delta":239884434},{"NoteNumber":49,"Velocity":35,"Duration":1987470,"SoundDuration":1987470,"Delta":239884434},{"NoteNumber":56,"Velocity":29,"Duration":158390,"SoundDuration":158390,"Delta":240045420},{"NoteNumber":59,"Velocity":29,"Duration":158390,"SoundDuration":158390,"Delta":240203811},{"NoteNumber":65,"Velocity":45,"Duration":486154,"SoundDuration":486154,"Delta":240362201},{"NoteNumber":56,"Velocity":28,"Duration":161616,"SoundDuration":161616,"Delta":240523788},{"NoteNumber":59,"Velocity":28,"Duration":162950,"SoundDuration":162950,"Delta":240685405},{"NoteNumber":63,"Velocity":44,"Duration":505860,"SoundDuration":505860,"Delta":240848356},{"NoteNumber":56,"Velocity":29,"Duration":168620,"SoundDuration":168620,"Delta":241016976},{"NoteNumber":59,"Velocity":30,"Duration":168620,"SoundDuration":168620,"Delta":241185596},{"NoteNumber":65,"Velocity":40,"Duration":517687,"SoundDuration":517687,"Delta":241354216},{"NoteNumber":56,"Velocity":29,"Duration":172562,"SoundDuration":172562,"Delta":241526778},{"NoteNumber":59,"Velocity":30,"Duration":172562,"SoundDuration":172562,"Delta":241699341},{"NoteNumber":68,"Velocity":49,"Duration":1993704,"SoundDuration":1993704,"Delta":241871904},{"NoteNumber":42,"Velocity":29,"Duration":4020748,"SoundDuration":4020748,"Delta":241871904},{"NoteNumber":49,"Velocity":35,"Duration":4020748,"SoundDuration":4020748,"Delta":241871904},{"NoteNumber":59,"Velocity":27,"Duration":173227,"SoundDuration":173227,"Delta":242051120},{"NoteNumber":61,"Velocity":27,"Duration":167266,"SoundDuration":167266,"Delta":242224347},{"NoteNumber":65,"Velocity":34,"Duration":163038,"SoundDuration":163038,"Delta":242391613},{"NoteNumber":61,"Velocity":29,"Duration":163038,"SoundDuration":163038,"Delta":242554652},{"NoteNumber":59,"Velocity":29,"Duration":163038,"SoundDuration":163038,"Delta":242717691},{"NoteNumber":61,"Velocity":37,"Duration":164866,"SoundDuration":164866,"Delta":242880730},{"NoteNumber":59,"Velocity":29,"Duration":164867,"SoundDuration":164867,"Delta":243045597},{"NoteNumber":61,"Velocity":29,"Duration":166026,"SoundDuration":166026,"Delta":243210464},{"NoteNumber":65,"Velocity":36,"Duration":163038,"SoundDuration":163038,"Delta":243376491},{"NoteNumber":61,"Velocity":29,"Duration":163038,"SoundDuration":163038,"Delta":243539530},{"NoteNumber":59,"Velocity":29,"Duration":163038,"SoundDuration":163038,"Delta":243702569},{"NoteNumber":66,"Velocity":49,"Duration":2027044,"SoundDuration":2027044,"Delta":243865608},{"NoteNumber":54,"Velocity":30,"Duration":163038,"SoundDuration":163038,"Delta":244028647},{"NoteNumber":58,"Velocity":30,"Duration":163038,"SoundDuration":163038,"Delta":244191686},{"NoteNumber":61,"Velocity":36,"Duration":163038,"SoundDuration":163038,"Delta":244354725},{"NoteNumber":58,"Velocity":30,"Duration":163038,"SoundDuration":163038,"Delta":244517764},{"NoteNumber":54,"Velocity":30,"Duration":163499,"SoundDuration":163499,"Delta":244680803},{"NoteNumber":58,"Velocity":37,"Duration":167430,"SoundDuration":167430,"Delta":244844302},{"NoteNumber":54,"Velocity":30,"Duration":169182,"SoundDuration":169182,"Delta":245011733},{"NoteNumber":58,"Velocity":30,"Duration":170903,"SoundDuration":170903,"Delta":245180916},{"NoteNumber":61,"Velocity":35,"Duration":180277,"SoundDuration":180277,"Delta":245351819},{"NoteNumber":58,"Velocity":30,"Duration":180277,"SoundDuration":180277,"Delta":245532097},{"NoteNumber":54,"Velocity":30,"Duration":180277,"SoundDuration":180277,"Delta":245712375},{"NoteNumber":68,"Velocity":44,"Duration":2010366,"SoundDuration":2010366,"Delta":245892652},{"NoteNumber":53,"Velocity":35,"Duration":2010366,"SoundDuration":2010366,"Delta":245892652},{"NoteNumber":49,"Velocity":29,"Duration":2010366,"SoundDuration":2010366,"Delta":245892652},{"NoteNumber":56,"Velocity":26,"Duration":174967,"SoundDuration":174967,"Delta":246069480},{"NoteNumber":61,"Velocity":26,"Duration":173010,"SoundDuration":173010,"Delta":246244448},{"NoteNumber":65,"Velocity":29,"Duration":171168,"SoundDuration":171168,"Delta":246417458},{"NoteNumber":61,"Velocity":25,"Duration":169288,"SoundDuration":169288,"Delta":246588627},{"NoteNumber":56,"Velocity":25,"Duration":167454,"SoundDuration":167454,"Delta":246757915},{"NoteNumber":61,"Velocity":30,"Duration":165737,"SoundDuration":165737,"Delta":246925369},{"NoteNumber":56,"Velocity":26,"Duration":163972,"SoundDuration":163972,"Delta":247091106},{"NoteNumber":61,"Velocity":26,"Duration":162385,"SoundDuration":162385,"Delta":247255079},{"NoteNumber":65,"Velocity":30,"Duration":161851,"SoundDuration":161851,"Delta":247417464},{"NoteNumber":61,"Velocity":27,"Duration":161851,"SoundDuration":161851,"Delta":247579316},{"NoteNumber":56,"Velocity":27,"Duration":161851,"SoundDuration":161851,"Delta":247741167},{"NoteNumber":70,"Velocity":43,"Duration":1938489,"SoundDuration":1938489,"Delta":247903019},{"NoteNumber":52,"Velocity":34,"Duration":957080,"SoundDuration":957080,"Delta":247903019},{"NoteNumber":55,"Velocity":40,"Duration":1938489,"SoundDuration":1938489,"Delta":247903019},{"NoteNumber":46,"Velocity":34,"Duration":1938489,"SoundDuration":1938489,"Delta":247903019},{"NoteNumber":61,"Velocity":29,"Duration":161264,"SoundDuration":161264,"Delta":248064283},{"NoteNumber":64,"Velocity":31,"Duration":161264,"SoundDuration":161264,"Delta":248225548},{"NoteNumber":67,"Velocity":39,"Duration":157257,"SoundDuration":157257,"Delta":248386812},{"NoteNumber":64,"Velocity":31,"Duration":157257,"SoundDuration":157257,"Delta":248544069},{"NoteNumber":61,"Velocity":38,"Duration":158773,"SoundDuration":158773,"Delta":248701327},{"NoteNumber":63,"Velocity":42,"Duration":162442,"SoundDuration":162442,"Delta":248860100},{"NoteNumber":51,"Velocity":41,"Duration":981409,"SoundDuration":981409,"Delta":248860100},{"NoteNumber":61,"Velocity":45,"Duration":162442,"SoundDuration":162442,"Delta":249022543},{"NoteNumber":63,"Velocity":49,"Duration":162154,"SoundDuration":162154,"Delta":249184986},{"NoteNumber":67,"Velocity":55,"Duration":162868,"SoundDuration":162868,"Delta":249347141},{"NoteNumber":63,"Velocity":53,"Duration":164240,"SoundDuration":164240,"Delta":249510009},{"NoteNumber":61,"Velocity":59,"Duration":167260,"SoundDuration":167260,"Delta":249674249},{"NoteNumber":73,"Velocity":70,"Duration":1492429,"SoundDuration":1492429,"Delta":249841509},{"NoteNumber":44,"Velocity":41,"Duration":1976222,"SoundDuration":1976222,"Delta":249841509},{"NoteNumber":51,"Velocity":41,"Duration":1976222,"SoundDuration":1976222,"Delta":249841509},{"NoteNumber":55,"Velocity":50,"Duration":1492022,"SoundDuration":1492022,"Delta":249848972},{"NoteNumber":61,"Velocity":48,"Duration":168056,"SoundDuration":168056,"Delta":250011391},{"NoteNumber":63,"Velocity":49,"Duration":168214,"SoundDuration":168214,"Delta":250179447},{"NoteNumber":70,"Velocity":58,"Duration":167422,"SoundDuration":167422,"Delta":250340312},{"NoteNumber":63,"Velocity":39,"Duration":166115,"SoundDuration":166115,"Delta":250515029},{"NoteNumber":61,"Velocity":42,"Duration":164883,"SoundDuration":164883,"Delta":250681144},{"NoteNumber":63,"Velocity":53,"Duration":163811,"SoundDuration":163811,"Delta":250846028},{"NoteNumber":61,"Velocity":40,"Duration":162607,"SoundDuration":162607,"Delta":251009839},{"NoteNumber":63,"Velocity":33,"Duration":161491,"SoundDuration":161491,"Delta":251172447},{"NoteNumber":71,"Velocity":50,"Duration":483792,"SoundDuration":483792,"Delta":251333939},{"NoteNumber":68,"Velocity":37,"Duration":161264,"SoundDuration":161264,"Delta":251333939},{"NoteNumber":56,"Velocity":44,"Duration":483948,"SoundDuration":483948,"Delta":251348049},{"NoteNumber":63,"Velocity":33,"Duration":161264,"SoundDuration":161264,"Delta":251495203},{"NoteNumber":59,"Velocity":33,"Duration":161264,"SoundDuration":161264,"Delta":251656467},{"NoteNumber":71,"Velocity":41,"Duration":2027044,"SoundDuration":2027044,"Delta":251817732},{"NoteNumber":56,"Velocity":35,"Duration":2027044,"SoundDuration":2027044,"Delta":251817732},{"NoteNumber":51,"Velocity":29,"Duration":2027044,"SoundDuration":2027044,"Delta":251817732},{"NoteNumber":44,"Velocity":29,"Duration":1756628,"SoundDuration":1756628,"Delta":251817732},{"NoteNumber":59,"Velocity":28,"Duration":163038,"SoundDuration":163038,"Delta":251980771},{"NoteNumber":63,"Velocity":28,"Duration":163038,"SoundDuration":163038,"Delta":252143810},{"NoteNumber":68,"Velocity":30,"Duration":163038,"SoundDuration":163038,"Delta":252306849},{"NoteNumber":63,"Velocity":25,"Duration":163038,"SoundDuration":163038,"Delta":252469888},{"NoteNumber":59,"Velocity":25,"Duration":163499,"SoundDuration":163499,"Delta":252632927},{"NoteNumber":63,"Velocity":31,"Duration":167430,"SoundDuration":167430,"Delta":252796426},{"NoteNumber":59,"Velocity":25,"Duration":169182,"SoundDuration":169182,"Delta":252963856},{"NoteNumber":63,"Velocity":25,"Duration":170903,"SoundDuration":170903,"Delta":253133039},{"NoteNumber":68,"Velocity":29,"Duration":180277,"SoundDuration":180277,"Delta":253303943},{"NoteNumber":63,"Velocity":25,"Duration":180277,"SoundDuration":180277,"Delta":253484221},{"NoteNumber":42,"Velocity":43,"Duration":270416,"SoundDuration":270416,"Delta":253574360},{"NoteNumber":59,"Velocity":25,"Duration":180277,"SoundDuration":180277,"Delta":253664498},{"NoteNumber":71,"Velocity":54,"Duration":1988320,"SoundDuration":1988320,"Delta":253844776},{"NoteNumber":40,"Velocity":68,"Duration":1988320,"SoundDuration":1988320,"Delta":253844776},{"NoteNumber":59,"Velocity":33,"Duration":174967,"SoundDuration":174967,"Delta":254021604},{"NoteNumber":64,"Velocity":33,"Duration":173085,"SoundDuration":173085,"Delta":254196571},{"NoteNumber":68,"Velocity":37,"Duration":170862,"SoundDuration":170862,"Delta":254369657},{"NoteNumber":64,"Velocity":32,"Duration":167923,"SoundDuration":167923,"Delta":254540520},{"NoteNumber":59,"Velocity":32,"Duration":165061,"SoundDuration":165061,"Delta":254708443},{"NoteNumber":64,"Velocity":39,"Duration":162313,"SoundDuration":162313,"Delta":254873505},{"NoteNumber":59,"Velocity":33,"Duration":159688,"SoundDuration":159688,"Delta":255035819},{"NoteNumber":64,"Velocity":33,"Duration":159007,"SoundDuration":159007,"Delta":255195507},{"NoteNumber":68,"Velocity":39,"Duration":159527,"SoundDuration":159527,"Delta":255354514},{"NoteNumber":64,"Velocity":35,"Duration":159527,"SoundDuration":159527,"Delta":255514042},{"NoteNumber":59,"Velocity":36,"Duration":159527,"SoundDuration":159527,"Delta":255673569},{"NoteNumber":71,"Velocity":49,"Duration":951203,"SoundDuration":951203,"Delta":255833097},{"NoteNumber":39,"Velocity":55,"Duration":951203,"SoundDuration":951203,"Delta":255833097},{"NoteNumber":59,"Velocity":37,"Duration":156152,"SoundDuration":156152,"Delta":255989249},{"NoteNumber":63,"Velocity":40,"Duration":156152,"SoundDuration":156152,"Delta":256145402},{"NoteNumber":66,"Velocity":44,"Duration":160681,"SoundDuration":160681,"Delta":256301554},{"NoteNumber":63,"Velocity":38,"Duration":160681,"SoundDuration":160681,"Delta":256462235},{"NoteNumber":59,"Velocity":40,"Duration":161383,"SoundDuration":161383,"Delta":256622917},{"NoteNumber":73,"Velocity":51,"Duration":981409,"SoundDuration":981409,"Delta":256784300},{"NoteNumber":37,"Velocity":44,"Duration":97465,"SoundDuration":97465,"Delta":256784300},{"NoteNumber":39,"Velocity":44,"Duration":97465,"SoundDuration":97465,"Delta":256881766},{"NoteNumber":64,"Velocity":46,"Duration":162442,"SoundDuration":162442,"Delta":256946743},{"NoteNumber":37,"Velocity":56,"Duration":78175,"SoundDuration":78175,"Delta":256979232},{"NoteNumber":39,"Velocity":39,"Duration":78175,"SoundDuration":78175,"Delta":257057408},{"NoteNumber":66,"Velocity":49,"Duration":162154,"SoundDuration":162154,"Delta":257109186},{"NoteNumber":37,"Velocity":56,"Duration":78098,"SoundDuration":78098,"Delta":257135583},{"NoteNumber":39,"Velocity":39,"Duration":77957,"SoundDuration":77957,"Delta":257213682},{"NoteNumber":70,"Velocity":58,"Duration":162868,"SoundDuration":162868,"Delta":257271341},{"NoteNumber":37,"Velocity":42,"Duration":78302,"SoundDuration":78302,"Delta":257290624},{"NoteNumber":39,"Velocity":44,"Duration":78578,"SoundDuration":78578,"Delta":257368926},{"NoteNumber":66,"Velocity":54,"Duration":164240,"SoundDuration":164240,"Delta":257434209},{"NoteNumber":37,"Velocity":55,"Duration":105628,"SoundDuration":105628,"Delta":257447505},{"NoteNumber":35,"Velocity":46,"Duration":106244,"SoundDuration":106244,"Delta":257552107},{"NoteNumber":64,"Velocity":62,"Duration":167260,"SoundDuration":167260,"Delta":257598449},{"NoteNumber":37,"Velocity":56,"Duration":107357,"SoundDuration":107357,"Delta":257658352},{"NoteNumber":76,"Velocity":69,"Duration":1492364,"SoundDuration":1492364,"Delta":257765710},{"NoteNumber":35,"Velocity":67,"Duration":4004710,"SoundDuration":4004710,"Delta":257765710},{"NoteNumber":64,"Velocity":49,"Duration":168056,"SoundDuration":168056,"Delta":257935592},{"NoteNumber":66,"Velocity":49,"Duration":168214,"SoundDuration":168214,"Delta":258103648},{"NoteNumber":73,"Velocity":63,"Duration":167367,"SoundDuration":167367,"Delta":258271862},{"NoteNumber":66,"Velocity":46,"Duration":166115,"SoundDuration":166115,"Delta":258439229},{"NoteNumber":64,"Velocity":46,"Duration":164883,"SoundDuration":164883,"Delta":258605345},{"NoteNumber":66,"Velocity":54,"Duration":163811,"SoundDuration":163811,"Delta":258770228},{"NoteNumber":64,"Velocity":36,"Duration":162607,"SoundDuration":162607,"Delta":258934040},{"NoteNumber":66,"Velocity":37,"Duration":161426,"SoundDuration":161426,"Delta":259096647},{"NoteNumber":75,"Velocity":57,"Duration":496040,"SoundDuration":496040,"Delta":259258074},{"NoteNumber":71,"Velocity":42,"Duration":165078,"SoundDuration":165078,"Delta":259258074},{"NoteNumber":66,"Velocity":37,"Duration":165480,"SoundDuration":165480,"Delta":259423153},{"NoteNumber":63,"Velocity":37,"Duration":165480,"SoundDuration":165480,"Delta":259588633},{"NoteNumber":75,"Velocity":45,"Duration":2016306,"SoundDuration":2016306,"Delta":259754114},{"NoteNumber":63,"Velocity":31,"Duration":163038,"SoundDuration":163038,"Delta":259917153},{"NoteNumber":66,"Velocity":31,"Duration":163039,"SoundDuration":163039,"Delta":260080192},{"NoteNumber":71,"Velocity":34,"Duration":163038,"SoundDuration":163038,"Delta":260243231},{"NoteNumber":66,"Velocity":28,"Duration":163039,"SoundDuration":163039,"Delta":260406270},{"NoteNumber":63,"Velocity":28,"Duration":163345,"SoundDuration":163345,"Delta":260569309},{"NoteNumber":66,"Velocity":35,"Duration":164009,"SoundDuration":164009,"Delta":260732654},{"NoteNumber":63,"Velocity":28,"Duration":165574,"SoundDuration":165574,"Delta":260896664},{"NoteNumber":66,"Velocity":28,"Duration":167746,"SoundDuration":167746,"Delta":261062239},{"NoteNumber":71,"Velocity":34,"Duration":180277,"SoundDuration":180277,"Delta":261229985},{"NoteNumber":66,"Velocity":28,"Duration":180277,"SoundDuration":180277,"Delta":261410263},{"NoteNumber":63,"Velocity":28,"Duration":179879,"SoundDuration":179879,"Delta":261590540},{"NoteNumber":75,"Velocity":47,"Duration":1967760,"SoundDuration":1967760,"Delta":261770420},{"NoteNumber":54,"Velocity":35,"Duration":1967760,"SoundDuration":1967760,"Delta":261770420},{"NoteNumber":47,"Velocity":29,"Duration":1967473,"SoundDuration":1967473,"Delta":261774768},{"NoteNumber":63,"Velocity":32,"Duration":170779,"SoundDuration":170779,"Delta":261943448},{"NoteNumber":66,"Velocity":32,"Duration":168542,"SoundDuration":168542,"Delta":262114227},{"NoteNumber":71,"Velocity":32,"Duration":166373,"SoundDuration":166373,"Delta":262282770},{"NoteNumber":66,"Velocity":32,"Duration":164255,"SoundDuration":164255,"Delta":262449143},{"NoteNumber":63,"Velocity":43,"Duration":162185,"SoundDuration":162185,"Delta":262613399},{"NoteNumber":66,"Velocity":31,"Duration":161264,"SoundDuration":161264,"Delta":262775585},{"NoteNumber":63,"Velocity":31,"Duration":161264,"SoundDuration":161264,"Delta":262936849},{"NoteNumber":66,"Velocity":31,"Duration":161484,"SoundDuration":161484,"Delta":263098113},{"NoteNumber":71,"Velocity":36,"Duration":159527,"SoundDuration":159527,"Delta":263259598},{"NoteNumber":66,"Velocity":30,"Duration":159527,"SoundDuration":159527,"Delta":263419126},{"NoteNumber":63,"Velocity":30,"Duration":159527,"SoundDuration":159527,"Delta":263578653},{"NoteNumber":75,"Velocity":46,"Duration":482062,"SoundDuration":482062,"Delta":263738181},{"NoteNumber":47,"Velocity":29,"Duration":1945370,"SoundDuration":1945370,"Delta":263738181},{"NoteNumber":56,"Velocity":35,"Duration":964984,"SoundDuration":964984,"Delta":263738181},{"NoteNumber":68,"Velocity":29,"Duration":160102,"SoundDuration":160102,"Delta":263900039},{"NoteNumber":65,"Velocity":29,"Duration":160102,"SoundDuration":160102,"Delta":264060141},{"NoteNumber":71,"Velocity":43,"Duration":482921,"SoundDuration":482921,"Delta":264220243},{"NoteNumber":68,"Velocity":28,"Duration":161264,"SoundDuration":161264,"Delta":264380636},{"NoteNumber":65,"Velocity":28,"Duration":161264,"SoundDuration":161264,"Delta":264541901},{"NoteNumber":70,"Velocity":43,"Duration":489117,"SoundDuration":489117,"Delta":264703165},{"NoteNumber":53,"Velocity":35,"Duration":980386,"SoundDuration":980386,"Delta":264703165},{"NoteNumber":65,"Velocity":28,"Duration":163038,"SoundDuration":163038,"Delta":264866204},{"NoteNumber":61,"Velocity":28,"Duration":163039,"SoundDuration":163039,"Delta":265029243},{"NoteNumber":68,"Velocity":39,"Duration":491269,"SoundDuration":491269,"Delta":265192282},{"NoteNumber":65,"Velocity":28,"Duration":163639,"SoundDuration":163639,"Delta":265355921},{"NoteNumber":61,"Velocity":28,"Duration":163990,"SoundDuration":163990,"Delta":265519561},{"NoteNumber":73,"Velocity":47,"Duration":1949934,"SoundDuration":1949934,"Delta":265683551},{"NoteNumber":54,"Velocity":35,"Duration":1949934,"SoundDuration":1949934,"Delta":265683551},{"NoteNumber":46,"Velocity":29,"Duration":1949934,"SoundDuration":1949934,"Delta":265683551},{"NoteNumber":61,"Velocity":32,"Duration":167155,"SoundDuration":167155,"Delta":265852333},{"NoteNumber":66,"Velocity":32,"Duration":165636,"SoundDuration":165636,"Delta":266019488},{"NoteNumber":70,"Velocity":42,"Duration":164063,"SoundDuration":164063,"Delta":266185124},{"NoteNumber":66,"Velocity":32,"Duration":162592,"SoundDuration":162592,"Delta":266349188},{"NoteNumber":61,"Velocity":32,"Duration":161083,"SoundDuration":161083,"Delta":266511781},{"NoteNumber":66,"Velocity":35,"Duration":158390,"SoundDuration":158390,"Delta":266672864},{"NoteNumber":61,"Velocity":31,"Duration":158390,"SoundDuration":158390,"Delta":266831255},{"NoteNumber":66,"Velocity":31,"Duration":160047,"SoundDuration":160047,"Delta":266989645},{"NoteNumber":70,"Velocity":36,"Duration":161264,"SoundDuration":161264,"Delta":267149693},{"NoteNumber":66,"Velocity":30,"Duration":161264,"SoundDuration":161264,"Delta":267310957},{"NoteNumber":61,"Velocity":30,"Duration":161264,"SoundDuration":161264,"Delta":267472222},{"NoteNumber":73,"Velocity":46,"Duration":483365,"SoundDuration":483365,"Delta":267633486},{"NoteNumber":54,"Velocity":35,"Duration":968920,"SoundDuration":968920,"Delta":267633486},{"NoteNumber":47,"Velocity":29,"Duration":1975725,"SoundDuration":1975725,"Delta":267633486},{"NoteNumber":66,"Velocity":29,"Duration":160681,"SoundDuration":160681,"Delta":267795489},{"NoteNumber":63,"Velocity":29,"Duration":160681,"SoundDuration":160681,"Delta":267956170},{"NoteNumber":71,"Velocity":43,"Duration":485554,"SoundDuration":485554,"Delta":268116851},{"NoteNumber":66,"Velocity":28,"Duration":161851,"SoundDuration":161851,"Delta":268278703},{"NoteNumber":63,"Velocity":28,"Duration":161851,"SoundDuration":161851,"Delta":268440555},{"NoteNumber":68,"Velocity":43,"Duration":489117,"SoundDuration":489117,"Delta":268602406},{"NoteNumber":56,"Velocity":35,"Duration":823457,"SoundDuration":823457,"Delta":268602406},{"NoteNumber":63,"Velocity":28,"Duration":163038,"SoundDuration":163038,"Delta":268765445},{"NoteNumber":59,"Velocity":28,"Duration":163039,"SoundDuration":163039,"Delta":268928484},{"NoteNumber":63,"Velocity":39,"Duration":517688,"SoundDuration":517688,"Delta":269091523},{"NoteNumber":59,"Velocity":28,"Duration":172562,"SoundDuration":172562,"Delta":269264086},{"NoteNumber":56,"Velocity":28,"Duration":172562,"SoundDuration":172562,"Delta":269436649},{"NoteNumber":66,"Velocity":47,"Duration":1954213,"SoundDuration":1954213,"Delta":269609211},{"NoteNumber":49,"Velocity":35,"Duration":1954213,"SoundDuration":1954213,"Delta":269609211},{"NoteNumber":54,"Velocity":29,"Duration":167155,"SoundDuration":167155,"Delta":269777993},{"NoteNumber":58,"Velocity":29,"Duration":165636,"SoundDuration":165636,"Delta":269945148},{"NoteNumber":61,"Velocity":38,"Duration":164063,"SoundDuration":164063,"Delta":270110784},{"NoteNumber":58,"Velocity":29,"Duration":162592,"SoundDuration":162592,"Delta":270274848},{"NoteNumber":54,"Velocity":31,"Duration":161083,"SoundDuration":161083,"Delta":270437441},{"NoteNumber":58,"Velocity":35,"Duration":160102,"SoundDuration":160102,"Delta":270598524},{"NoteNumber":54,"Velocity":30,"Duration":160102,"SoundDuration":160102,"Delta":270758626},{"NoteNumber":58,"Velocity":30,"Duration":160903,"SoundDuration":160903,"Delta":270918728},{"NoteNumber":61,"Velocity":36,"Duration":161264,"SoundDuration":161264,"Delta":271079632},{"NoteNumber":58,"Velocity":30,"Duration":161264,"SoundDuration":161264,"Delta":271240896},{"NoteNumber":54,"Velocity":30,"Duration":161264,"SoundDuration":161264,"Delta":271402161},{"NoteNumber":37,"Velocity":35,"Duration":120948,"SoundDuration":120948,"Delta":271442477},{"NoteNumber":66,"Velocity":45,"Duration":487328,"SoundDuration":487328,"Delta":271563425},{"NoteNumber":49,"Velocity":42,"Duration":1981463,"SoundDuration":1981463,"Delta":271563425},{"NoteNumber":59,"Velocity":29,"Duration":162442,"SoundDuration":162442,"Delta":271725868},{"NoteNumber":56,"Velocity":29,"Duration":162442,"SoundDuration":162442,"Delta":271888311},{"NoteNumber":65,"Velocity":41,"Duration":487328,"SoundDuration":487328,"Delta":272050754},{"NoteNumber":59,"Velocity":28,"Duration":162442,"SoundDuration":162442,"Delta":272213197},{"NoteNumber":56,"Velocity":28,"Duration":162442,"SoundDuration":162442,"Delta":272375640},{"NoteNumber":70,"Velocity":42,"Duration":489117,"SoundDuration":489117,"Delta":272538083},{"NoteNumber":54,"Velocity":35,"Duration":489117,"SoundDuration":489117,"Delta":272538083},{"NoteNumber":61,"Velocity":28,"Duration":163038,"SoundDuration":163038,"Delta":272701122},{"NoteNumber":59,"Velocity":28,"Duration":163039,"SoundDuration":163039,"Delta":272864161},{"NoteNumber":68,"Velocity":39,"Duration":517688,"SoundDuration":517688,"Delta":273027200},{"NoteNumber":53,"Velocity":35,"Duration":517688,"SoundDuration":517688,"Delta":273027200},{"NoteNumber":61,"Velocity":26,"Duration":172562,"SoundDuration":172562,"Delta":273199763},{"NoteNumber":59,"Velocity":26,"Duration":172562,"SoundDuration":172562,"Delta":273372325},{"NoteNumber":71,"Velocity":47,"Duration":1949934,"SoundDuration":1949934,"Delta":273544888},{"NoteNumber":51,"Velocity":30,"Duration":1949934,"SoundDuration":1949934,"Delta":273544888},{"NoteNumber":54,"Velocity":35,"Duration":1949934,"SoundDuration":1949934,"Delta":273544888},{"NoteNumber":59,"Velocity":29,"Duration":167155,"SoundDuration":167155,"Delta":273713669},{"NoteNumber":63,"Velocity":29,"Duration":165636,"SoundDuration":165636,"Delta":273880824},{"NoteNumber":66,"Velocity":29,"Duration":164063,"SoundDuration":164063,"Delta":274046461},{"NoteNumber":63,"Velocity":29,"Duration":162592,"SoundDuration":162592,"Delta":274210524},{"NoteNumber":59,"Velocity":26,"Duration":161083,"SoundDuration":161083,"Delta":274373117},{"NoteNumber":63,"Velocity":36,"Duration":158390,"SoundDuration":158390,"Delta":274534200},{"NoteNumber":59,"Velocity":30,"Duration":158390,"SoundDuration":158390,"Delta":274692591},{"NoteNumber":63,"Velocity":30,"Duration":160047,"SoundDuration":160047,"Delta":274850982},{"NoteNumber":66,"Velocity":48,"Duration":161264,"SoundDuration":161264,"Delta":275011030},{"NoteNumber":63,"Velocity":37,"Duration":161264,"SoundDuration":161264,"Delta":275172294},{"NoteNumber":59,"Velocity":37,"Duration":161264,"SoundDuration":161264,"Delta":275333558},{"NoteNumber":73,"Velocity":58,"Duration":989312,"SoundDuration":989312,"Delta":275494823},{"NoteNumber":54,"Velocity":35,"Duration":1976280,"SoundDuration":1976280,"Delta":275494823},{"NoteNumber":58,"Velocity":42,"Duration":1976280,"SoundDuration":1976280,"Delta":275494823},{"NoteNumber":64,"Velocity":41,"Duration":167155,"SoundDuration":167155,"Delta":275663604},{"NoteNumber":66,"Velocity":36,"Duration":165636,"SoundDuration":165636,"Delta":275830759},{"NoteNumber":70,"Velocity":54,"Duration":164063,"SoundDuration":164063,"Delta":275996395},{"NoteNumber":66,"Velocity":44,"Duration":162592,"SoundDuration":162592,"Delta":276160459},{"NoteNumber":64,"Velocity":45,"Duration":161083,"SoundDuration":161083,"Delta":276323052},{"NoteNumber":74,"Velocity":67,"Duration":986968,"SoundDuration":986968,"Delta":276484135},{"NoteNumber":64,"Velocity":44,"Duration":160102,"SoundDuration":160102,"Delta":276644237},{"NoteNumber":66,"Velocity":44,"Duration":160903,"SoundDuration":160903,"Delta":276804340},{"NoteNumber":70,"Velocity":56,"Duration":168619,"SoundDuration":168619,"Delta":276965243},{"NoteNumber":66,"Velocity":51,"Duration":168620,"SoundDuration":168620,"Delta":277133863},{"NoteNumber":64,"Velocity":53,"Duration":168619,"SoundDuration":168619,"Delta":277302483},{"NoteNumber":75,"Velocity":71,"Duration":1972970,"SoundDuration":1972970,"Delta":277471103},{"NoteNumber":47,"Velocity":46,"Duration":1972970,"SoundDuration":1972970,"Delta":277471103},{"NoteNumber":54,"Velocity":46,"Duration":1972970,"SoundDuration":1972970,"Delta":277471103},{"NoteNumber":59,"Velocity":57,"Duration":1972970,"SoundDuration":1972970,"Delta":277471103},{"NoteNumber":63,"Velocity":38,"Duration":170779,"SoundDuration":170779,"Delta":277644131},{"NoteNumber":66,"Velocity":37,"Duration":168542,"SoundDuration":168542,"Delta":277814910},{"NoteNumber":71,"Velocity":42,"Duration":166373,"SoundDuration":166373,"Delta":277983453},{"NoteNumber":66,"Velocity":36,"Duration":164255,"SoundDuration":164255,"Delta":278149826},{"NoteNumber":63,"Velocity":36,"Duration":162185,"SoundDuration":162185,"Delta":278314082},{"NoteNumber":66,"Velocity":38,"Duration":161264,"SoundDuration":161264,"Delta":278476268},{"NoteNumber":63,"Velocity":33,"Duration":161264,"SoundDuration":161264,"Delta":278637532},{"NoteNumber":66,"Velocity":33,"Duration":161484,"SoundDuration":161484,"Delta":278798796},{"NoteNumber":71,"Velocity":37,"Duration":161264,"SoundDuration":161264,"Delta":278960281},{"NoteNumber":66,"Velocity":31,"Duration":161264,"SoundDuration":161264,"Delta":279121545},{"NoteNumber":63,"Velocity":30,"Duration":161264,"SoundDuration":161264,"Delta":279282810},{"NoteNumber":75,"Velocity":50,"Duration":487328,"SoundDuration":487328,"Delta":279444074},{"NoteNumber":47,"Velocity":29,"Duration":1955044,"SoundDuration":1955044,"Delta":279444074},{"NoteNumber":56,"Velocity":35,"Duration":974657,"SoundDuration":974657,"Delta":279444074},{"NoteNumber":68,"Velocity":29,"Duration":162442,"SoundDuration":162442,"Delta":279606517},{"NoteNumber":65,"Velocity":29,"Duration":162442,"SoundDuration":162442,"Delta":279768960},{"NoteNumber":74,"Velocity":48,"Duration":487328,"SoundDuration":487328,"Delta":279931403},{"NoteNumber":68,"Velocity":28,"Duration":162442,"SoundDuration":162442,"Delta":280093846},{"NoteNumber":65,"Velocity":28,"Duration":162442,"SoundDuration":162442,"Delta":280256289},{"NoteNumber":71,"Velocity":42,"Duration":489117,"SoundDuration":489117,"Delta":280418732},{"NoteNumber":53,"Velocity":35,"Duration":980386,"SoundDuration":980386,"Delta":280418732},{"NoteNumber":65,"Velocity":28,"Duration":163038,"SoundDuration":163038,"Delta":280581771},{"NoteNumber":62,"Velocity":28,"Duration":163039,"SoundDuration":163039,"Delta":280744810},{"NoteNumber":68,"Velocity":39,"Duration":491269,"SoundDuration":491269,"Delta":280907849},{"NoteNumber":65,"Velocity":28,"Duration":163639,"SoundDuration":163639,"Delta":281071488},{"NoteNumber":61,"Velocity":28,"Duration":163990,"SoundDuration":163990,"Delta":281235128},{"NoteNumber":73,"Velocity":47,"Duration":1954213,"SoundDuration":1954213,"Delta":281399118},{"NoteNumber":54,"Velocity":35,"Duration":1954213,"SoundDuration":1954213,"Delta":281399118},{"NoteNumber":46,"Velocity":29,"Duration":1954213,"SoundDuration":1954213,"Delta":281399118},{"NoteNumber":61,"Velocity":32,"Duration":167155,"SoundDuration":167155,"Delta":281567900},{"NoteNumber":66,"Velocity":32,"Duration":165636,"SoundDuration":165636,"Delta":281735055},{"NoteNumber":70,"Velocity":36,"Duration":164063,"SoundDuration":164063,"Delta":281900691},{"NoteNumber":66,"Velocity":32,"Duration":162592,"SoundDuration":162592,"Delta":282064755},{"NoteNumber":61,"Velocity":32,"Duration":161083,"SoundDuration":161083,"Delta":282227348},{"NoteNumber":66,"Velocity":36,"Duration":160102,"SoundDuration":160102,"Delta":282388431},{"NoteNumber":61,"Velocity":31,"Duration":160102,"SoundDuration":160102,"Delta":282548533},{"NoteNumber":66,"Velocity":31,"Duration":160903,"SoundDuration":160903,"Delta":282708636},{"NoteNumber":70,"Velocity":36,"Duration":161264,"SoundDuration":161264,"Delta":282869539},{"NoteNumber":66,"Velocity":30,"Duration":161264,"SoundDuration":161264,"Delta":283030804},{"NoteNumber":61,"Velocity":30,"Duration":161264,"SoundDuration":161264,"Delta":283192068},{"NoteNumber":73,"Velocity":46,"Duration":479486,"SoundDuration":479486,"Delta":283353332},{"NoteNumber":55,"Velocity":35,"Duration":479486,"SoundDuration":479486,"Delta":283353332},{"NoteNumber":47,"Velocity":29,"Duration":1463204,"SoundDuration":1463204,"Delta":283353332},{"NoteNumber":67,"Velocity":29,"Duration":158957,"SoundDuration":158957,"Delta":283514904},{"NoteNumber":63,"Velocity":29,"Duration":158957,"SoundDuration":158957,"Delta":283673861},{"NoteNumber":71,"Velocity":43,"Duration":494600,"SoundDuration":494600,"Delta":283832818},{"NoteNumber":56,"Velocity":35,"Duration":494600,"SoundDuration":494600,"Delta":283832818},{"NoteNumber":68,"Velocity":28,"Duration":164866,"SoundDuration":164866,"Delta":283997685},{"NoteNumber":63,"Velocity":28,"Duration":164867,"SoundDuration":164867,"Delta":284162552},{"NoteNumber":68,"Velocity":43,"Duration":489117,"SoundDuration":489117,"Delta":284327419},{"NoteNumber":51,"Velocity":35,"Duration":1006805,"SoundDuration":1006805,"Delta":284327419},{"NoteNumber":63,"Velocity":28,"Duration":163038,"SoundDuration":163038,"Delta":284490458},{"NoteNumber":59,"Velocity":28,"Duration":163039,"SoundDuration":163039,"Delta":284653497},{"NoteNumber":63,"Velocity":39,"Duration":517688,"SoundDuration":517688,"Delta":284816536},{"NoteNumber":48,"Velocity":29,"Duration":517688,"SoundDuration":517688,"Delta":284816536},{"NoteNumber":60,"Velocity":28,"Duration":172562,"SoundDuration":172562,"Delta":284989099},{"NoteNumber":56,"Velocity":28,"Duration":172562,"SoundDuration":172562,"Delta":285161662},{"NoteNumber":66,"Velocity":47,"Duration":1954213,"SoundDuration":1954213,"Delta":285334224},{"NoteNumber":49,"Velocity":35,"Duration":1954213,"SoundDuration":1954213,"Delta":285334224},{"NoteNumber":54,"Velocity":29,"Duration":167155,"SoundDuration":167155,"Delta":285503006},{"NoteNumber":58,"Velocity":29,"Duration":165636,"SoundDuration":165636,"Delta":285670161},{"NoteNumber":61,"Velocity":34,"Duration":164063,"SoundDuration":164063,"Delta":285835797},{"NoteNumber":58,"Velocity":29,"Duration":162592,"SoundDuration":162592,"Delta":285999861},{"NoteNumber":54,"Velocity":30,"Duration":161083,"SoundDuration":161083,"Delta":286162454},{"NoteNumber":58,"Velocity":34,"Duration":160102,"SoundDuration":160102,"Delta":286323537},{"NoteNumber":54,"Velocity":30,"Duration":160102,"SoundDuration":160102,"Delta":286483639},{"NoteNumber":58,"Velocity":30,"Duration":160903,"SoundDuration":160903,"Delta":286643742},{"NoteNumber":61,"Velocity":36,"Duration":161264,"SoundDuration":161264,"Delta":286804645},{"NoteNumber":58,"Velocity":30,"Duration":161264,"SoundDuration":161264,"Delta":286965910},{"NoteNumber":54,"Velocity":30,"Duration":161264,"SoundDuration":161264,"Delta":287127174},{"NoteNumber":37,"Velocity":35,"Duration":120948,"SoundDuration":120948,"Delta":287167490},{"NoteNumber":66,"Velocity":45,"Duration":487328,"SoundDuration":487328,"Delta":287288438},{"NoteNumber":49,"Velocity":35,"Duration":1981463,"SoundDuration":1981463,"Delta":287288438},{"NoteNumber":59,"Velocity":29,"Duration":162442,"SoundDuration":162442,"Delta":287450881},{"NoteNumber":56,"Velocity":29,"Duration":162442,"SoundDuration":162442,"Delta":287613324},{"NoteNumber":65,"Velocity":41,"Duration":487328,"SoundDuration":487328,"Delta":287775767},{"NoteNumber":59,"Velocity":28,"Duration":162442,"SoundDuration":162442,"Delta":287938210},{"NoteNumber":56,"Velocity":28,"Duration":162442,"SoundDuration":162442,"Delta":288100653},{"NoteNumber":70,"Velocity":42,"Duration":489117,"SoundDuration":489117,"Delta":288263096},{"NoteNumber":54,"Velocity":35,"Duration":489117,"SoundDuration":489117,"Delta":288263096},{"NoteNumber":61,"Velocity":28,"Duration":163038,"SoundDuration":163038,"Delta":288426135},{"NoteNumber":59,"Velocity":28,"Duration":163039,"SoundDuration":163039,"Delta":288589174},{"NoteNumber":68,"Velocity":39,"Duration":517688,"SoundDuration":517688,"Delta":288752213},{"NoteNumber":53,"Velocity":35,"Duration":517688,"SoundDuration":517688,"Delta":288752213},{"NoteNumber":61,"Velocity":26,"Duration":172562,"SoundDuration":172562,"Delta":288924776},{"NoteNumber":59,"Velocity":26,"Duration":172562,"SoundDuration":172562,"Delta":289097339},{"NoteNumber":66,"Velocity":47,"Duration":1954213,"SoundDuration":1954213,"Delta":289269901},{"NoteNumber":42,"Velocity":35,"Duration":1954213,"SoundDuration":1954213,"Delta":289269901},{"NoteNumber":54,"Velocity":29,"Duration":167155,"SoundDuration":167155,"Delta":289438683},{"NoteNumber":58,"Velocity":29,"Duration":165636,"SoundDuration":165636,"Delta":289605838},{"NoteNumber":61,"Velocity":33,"Duration":164063,"SoundDuration":164063,"Delta":289771474},{"NoteNumber":58,"Velocity":29,"Duration":162592,"SoundDuration":162592,"Delta":289935538},{"NoteNumber":54,"Velocity":29,"Duration":161083,"SoundDuration":161083,"Delta":290098131},{"NoteNumber":58,"Velocity":32,"Duration":160102,"SoundDuration":160102,"Delta":290259214},{"NoteNumber":54,"Velocity":30,"Duration":160102,"SoundDuration":160102,"Delta":290419316},{"NoteNumber":58,"Velocity":30,"Duration":160903,"SoundDuration":160903,"Delta":290579418},{"NoteNumber":61,"Velocity":36,"Duration":161264,"SoundDuration":161264,"Delta":290740322},{"NoteNumber":58,"Velocity":30,"Duration":161264,"SoundDuration":161264,"Delta":290901586},{"NoteNumber":54,"Velocity":30,"Duration":161264,"SoundDuration":161264,"Delta":291062851},{"NoteNumber":66,"Velocity":47,"Duration":1976280,"SoundDuration":1976280,"Delta":291224115},{"NoteNumber":40,"Velocity":43,"Duration":1976280,"SoundDuration":1976280,"Delta":291224115},{"NoteNumber":54,"Velocity":29,"Duration":167155,"SoundDuration":167155,"Delta":291392896},{"NoteNumber":58,"Velocity":29,"Duration":165636,"SoundDuration":165636,"Delta":291560051},{"NoteNumber":61,"Velocity":32,"Duration":164063,"SoundDuration":164063,"Delta":291725688},{"NoteNumber":58,"Velocity":29,"Duration":162592,"SoundDuration":162592,"Delta":291889751},{"NoteNumber":54,"Velocity":37,"Duration":161083,"SoundDuration":161083,"Delta":292052344},{"NoteNumber":58,"Velocity":41,"Duration":160102,"SoundDuration":160102,"Delta":292213428},{"NoteNumber":54,"Velocity":43,"Duration":160102,"SoundDuration":160102,"Delta":292373530},{"NoteNumber":58,"Velocity":45,"Duration":160903,"SoundDuration":160903,"Delta":292533632},{"NoteNumber":61,"Velocity":47,"Duration":168619,"SoundDuration":168619,"Delta":292694536},{"NoteNumber":58,"Velocity":50,"Duration":168620,"SoundDuration":168620,"Delta":292863156},{"NoteNumber":54,"Velocity":52,"Duration":168619,"SoundDuration":168619,"Delta":293031776},{"NoteNumber":66,"Velocity":60,"Duration":1950359,"SoundDuration":1950359,"Delta":293200396},{"NoteNumber":38,"Velocity":63,"Duration":1950359,"SoundDuration":1950359,"Delta":293200396},{"NoteNumber":54,"Velocity":47,"Duration":167155,"SoundDuration":167155,"Delta":293369177},{"NoteNumber":59,"Velocity":43,"Duration":165636,"SoundDuration":165636,"Delta":293536332},{"NoteNumber":62,"Velocity":57,"Duration":164063,"SoundDuration":164063,"Delta":293701968},{"NoteNumber":59,"Velocity":46,"Duration":162592,"SoundDuration":162592,"Delta":293866032},{"NoteNumber":54,"Velocity":46,"Duration":161083,"SoundDuration":161083,"Delta":294028625},{"NoteNumber":59,"Velocity":58,"Duration":158815,"SoundDuration":158815,"Delta":294189708},{"NoteNumber":54,"Velocity":44,"Duration":158390,"SoundDuration":158390,"Delta":294348524},{"NoteNumber":59,"Velocity":45,"Duration":160047,"SoundDuration":160047,"Delta":294506915},{"NoteNumber":62,"Velocity":61,"Duration":161264,"SoundDuration":161264,"Delta":294666962},{"NoteNumber":59,"Velocity":51,"Duration":161264,"SoundDuration":161264,"Delta":294828227},{"NoteNumber":54,"Velocity":53,"Duration":161264,"SoundDuration":161264,"Delta":294989491},{"NoteNumber":66,"Velocity":72,"Duration":989312,"SoundDuration":989312,"Delta":295150755},{"NoteNumber":38,"Velocity":44,"Duration":101452,"SoundDuration":101452,"Delta":295150755},{"NoteNumber":37,"Velocity":41,"Duration":100917,"SoundDuration":100917,"Delta":295252208},{"NoteNumber":54,"Velocity":48,"Duration":167155,"SoundDuration":167155,"Delta":295319537},{"NoteNumber":38,"Velocity":44,"Duration":100260,"SoundDuration":100260,"Delta":295353125},{"NoteNumber":37,"Velocity":42,"Duration":99745,"SoundDuration":99745,"Delta":295453386},{"NoteNumber":58,"Velocity":48,"Duration":165636,"SoundDuration":165636,"Delta":295486692},{"NoteNumber":38,"Velocity":44,"Duration":113622,"SoundDuration":113622,"Delta":295553131},{"NoteNumber":64,"Velocity":61,"Duration":164063,"SoundDuration":164063,"Delta":295652328},{"NoteNumber":37,"Velocity":45,"Duration":111833,"SoundDuration":111833,"Delta":295666754},{"NoteNumber":38,"Velocity":47,"Duration":112179,"SoundDuration":112179,"Delta":295778588},{"NoteNumber":58,"Velocity":52,"Duration":162592,"SoundDuration":162592,"Delta":295816392},{"NoteNumber":37,"Velocity":48,"Duration":110472,"SoundDuration":110472,"Delta":295890767},{"NoteNumber":54,"Velocity":52,"Duration":161083,"SoundDuration":161083,"Delta":295978985},{"NoteNumber":38,"Velocity":50,"Duration":110745,"SoundDuration":110745,"Delta":296001239},{"NoteNumber":37,"Velocity":51,"Duration":110139,"SoundDuration":110139,"Delta":296110981},{"NoteNumber":67,"Velocity":66,"Duration":481108,"SoundDuration":481108,"Delta":296140068},{"NoteNumber":58,"Velocity":58,"Duration":160102,"SoundDuration":160102,"Delta":296140068},{"NoteNumber":38,"Velocity":52,"Duration":111070,"SoundDuration":111070,"Delta":296221120},{"NoteNumber":54,"Velocity":59,"Duration":160102,"SoundDuration":160102,"Delta":296300170},{"NoteNumber":37,"Velocity":54,"Duration":109069,"SoundDuration":109069,"Delta":296333191},{"NoteNumber":38,"Velocity":55,"Duration":110201,"SoundDuration":110201,"Delta":296442261},{"NoteNumber":58,"Velocity":59,"Duration":160903,"SoundDuration":160903,"Delta":296460273},{"NoteNumber":37,"Velocity":56,"Duration":111922,"SoundDuration":111922,"Delta":296552463},{"NoteNumber":66,"Velocity":67,"Duration":505859,"SoundDuration":505859,"Delta":296621176},{"NoteNumber":64,"Velocity":67,"Duration":168619,"SoundDuration":168619,"Delta":296621176},{"NoteNumber":38,"Velocity":58,"Duration":115926,"SoundDuration":115926,"Delta":296664385},{"NoteNumber":37,"Velocity":59,"Duration":115926,"SoundDuration":115926,"Delta":296779257},{"NoteNumber":58,"Velocity":62,"Duration":168620,"SoundDuration":168620,"Delta":296789796},{"NoteNumber":35,"Velocity":60,"Duration":114872,"SoundDuration":114872,"Delta":296895184},{"NoteNumber":54,"Velocity":62,"Duration":168619,"SoundDuration":168619,"Delta":296958416},{"NoteNumber":37,"Velocity":62,"Duration":116980,"SoundDuration":116980,"Delta":297010056},{"NoteNumber":66,"Velocity":80,"Duration":1954213,"SoundDuration":1954213,"Delta":297127036},{"NoteNumber":35,"Velocity":84,"Duration":1954213,"SoundDuration":1954213,"Delta":297127036},{"NoteNumber":54,"Velocity":58,"Duration":167155,"SoundDuration":167155,"Delta":297295818},{"NoteNumber":59,"Velocity":59,"Duration":165636,"SoundDuration":165636,"Delta":297462973},{"NoteNumber":62,"Velocity":70,"Duration":164063,"SoundDuration":164063,"Delta":297628609},{"NoteNumber":59,"Velocity":60,"Duration":162592,"SoundDuration":162592,"Delta":297792673},{"NoteNumber":54,"Velocity":61,"Duration":161083,"SoundDuration":161083,"Delta":297955265},{"NoteNumber":59,"Velocity":71,"Duration":160102,"SoundDuration":160102,"Delta":298116349},{"NoteNumber":54,"Velocity":63,"Duration":160102,"SoundDuration":160102,"Delta":298276451},{"NoteNumber":59,"Velocity":59,"Duration":160903,"SoundDuration":160903,"Delta":298436553},{"NoteNumber":62,"Velocity":75,"Duration":161264,"SoundDuration":161264,"Delta":298597457},{"NoteNumber":59,"Velocity":63,"Duration":161264,"SoundDuration":161264,"Delta":298758721},{"NoteNumber":54,"Velocity":64,"Duration":161264,"SoundDuration":161264,"Delta":298919986},{"NoteNumber":60,"Velocity":82,"Duration":989312,"SoundDuration":989312,"Delta":299081250},{"NoteNumber":38,"Velocity":77,"Duration":2051720,"SoundDuration":2051720,"Delta":299081250},{"NoteNumber":48,"Velocity":67,"Duration":167155,"SoundDuration":167155,"Delta":299250031},{"NoteNumber":54,"Velocity":65,"Duration":165636,"SoundDuration":165636,"Delta":299417186},{"NoteNumber":57,"Velocity":63,"Duration":164063,"SoundDuration":164063,"Delta":299582822},{"NoteNumber":54,"Velocity":61,"Duration":162592,"SoundDuration":162592,"Delta":299746886},{"NoteNumber":48,"Velocity":59,"Duration":161083,"SoundDuration":161083,"Delta":299909479},{"NoteNumber":54,"Velocity":56,"Duration":160102,"SoundDuration":160102,"Delta":300070562},{"NoteNumber":48,"Velocity":54,"Duration":160102,"SoundDuration":160102,"Delta":300230665},{"NoteNumber":54,"Velocity":50,"Duration":160949,"SoundDuration":160949,"Delta":300390767},{"NoteNumber":57,"Velocity":46,"Duration":171540,"SoundDuration":171540,"Delta":300551717},{"NoteNumber":54,"Velocity":42,"Duration":178901,"SoundDuration":178901,"Delta":300723257},{"NoteNumber":48,"Velocity":39,"Duration":230812,"SoundDuration":230812,"Delta":300902158},{"NoteNumber":61,"Velocity":45,"Duration":1954213,"SoundDuration":1954213,"Delta":301132970},{"NoteNumber":37,"Velocity":40,"Duration":1954213,"SoundDuration":1954213,"Delta":301132970},{"NoteNumber":49,"Velocity":33,"Duration":167155,"SoundDuration":167155,"Delta":301301752},{"NoteNumber":54,"Velocity":33,"Duration":165636,"SoundDuration":165636,"Delta":301468907},{"NoteNumber":58,"Velocity":36,"Duration":164063,"SoundDuration":164063,"Delta":301634543},{"NoteNumber":54,"Velocity":32,"Duration":162592,"SoundDuration":162592,"Delta":301798607},{"NoteNumber":49,"Velocity":32,"Duration":161083,"SoundDuration":161083,"Delta":301961200},{"NoteNumber":54,"Velocity":35,"Duration":160102,"SoundDuration":160102,"Delta":302122283},{"NoteNumber":49,"Velocity":31,"Duration":160102,"SoundDuration":160102,"Delta":302282385},{"NoteNumber":54,"Velocity":31,"Duration":160903,"SoundDuration":160903,"Delta":302442488},{"NoteNumber":58,"Velocity":37,"Duration":161264,"SoundDuration":161264,"Delta":302603391},{"NoteNumber":54,"Velocity":30,"Duration":161264,"SoundDuration":161264,"Delta":302764656},{"NoteNumber":49,"Velocity":30,"Duration":161264,"SoundDuration":161264,"Delta":302925920},{"NoteNumber":61,"Velocity":45,"Duration":487328,"SoundDuration":487328,"Delta":303087184},{"NoteNumber":37,"Velocity":35,"Duration":487328,"SoundDuration":487328,"Delta":303087184},{"NoteNumber":53,"Velocity":29,"Duration":162442,"SoundDuration":162442,"Delta":303249627},{"NoteNumber":56,"Velocity":29,"Duration":162442,"SoundDuration":162442,"Delta":303412070},{"NoteNumber":71,"Velocity":41,"Duration":487328,"SoundDuration":487328,"Delta":303574513},{"NoteNumber":49,"Velocity":35,"Duration":1494134,"SoundDuration":1494134,"Delta":303574513},{"NoteNumber":59,"Velocity":28,"Duration":162442,"SoundDuration":162442,"Delta":303736956},{"NoteNumber":61,"Velocity":28,"Duration":162442,"SoundDuration":162442,"Delta":303899399},{"NoteNumber":68,"Velocity":42,"Duration":489117,"SoundDuration":489117,"Delta":304061842},{"NoteNumber":53,"Velocity":31,"Duration":489117,"SoundDuration":489117,"Delta":304061842},{"NoteNumber":59,"Velocity":28,"Duration":163038,"SoundDuration":163038,"Delta":304224881},{"NoteNumber":61,"Velocity":28,"Duration":163039,"SoundDuration":163039,"Delta":304387920},{"NoteNumber":65,"Velocity":39,"Duration":517688,"SoundDuration":517688,"Delta":304550959},{"NoteNumber":56,"Velocity":31,"Duration":517688,"SoundDuration":517688,"Delta":304550959},{"NoteNumber":59,"Velocity":26,"Duration":172562,"SoundDuration":172562,"Delta":304723522},{"NoteNumber":61,"Velocity":26,"Duration":172562,"SoundDuration":172562,"Delta":304896085},{"NoteNumber":66,"Velocity":47,"Duration":1954213,"SoundDuration":1954213,"Delta":305068647},{"NoteNumber":42,"Velocity":35,"Duration":1954213,"SoundDuration":1954213,"Delta":305068647},{"NoteNumber":54,"Velocity":27,"Duration":167155,"SoundDuration":167155,"Delta":305237429},{"NoteNumber":58,"Velocity":27,"Duration":165636,"SoundDuration":165636,"Delta":305404584},{"NoteNumber":61,"Velocity":33,"Duration":164063,"SoundDuration":164063,"Delta":305570220},{"NoteNumber":58,"Velocity":27,"Duration":162592,"SoundDuration":162592,"Delta":305734284},{"NoteNumber":54,"Velocity":27,"Duration":161083,"SoundDuration":161083,"Delta":305896877},{"NoteNumber":58,"Velocity":32,"Duration":160102,"SoundDuration":160102,"Delta":306057960},{"NoteNumber":54,"Velocity":30,"Duration":160102,"SoundDuration":160102,"Delta":306218062},{"NoteNumber":58,"Velocity":30,"Duration":160903,"SoundDuration":160903,"Delta":306378164},{"NoteNumber":61,"Velocity":36,"Duration":161264,"SoundDuration":161264,"Delta":306539068},{"NoteNumber":58,"Velocity":30,"Duration":161264,"SoundDuration":161264,"Delta":306700332},{"NoteNumber":54,"Velocity":30,"Duration":161264,"SoundDuration":161264,"Delta":306861597},{"NoteNumber":66,"Velocity":47,"Duration":1976280,"SoundDuration":1976280,"Delta":307022861},{"NoteNumber":40,"Velocity":43,"Duration":1976280,"SoundDuration":1976280,"Delta":307022861},{"NoteNumber":54,"Velocity":29,"Duration":167155,"SoundDuration":167155,"Delta":307191642},{"NoteNumber":58,"Velocity":29,"Duration":165636,"SoundDuration":165636,"Delta":307358797},{"NoteNumber":61,"Velocity":32,"Duration":164063,"SoundDuration":164063,"Delta":307524434},{"NoteNumber":58,"Velocity":29,"Duration":162592,"SoundDuration":162592,"Delta":307688497},{"NoteNumber":54,"Velocity":37,"Duration":161083,"SoundDuration":161083,"Delta":307851090},{"NoteNumber":58,"Velocity":41,"Duration":160102,"SoundDuration":160102,"Delta":308012174},{"NoteNumber":54,"Velocity":43,"Duration":160102,"SoundDuration":160102,"Delta":308172276},{"NoteNumber":58,"Velocity":45,"Duration":160903,"SoundDuration":160903,"Delta":308332378},{"NoteNumber":61,"Velocity":47,"Duration":168619,"SoundDuration":168619,"Delta":308493282},{"NoteNumber":58,"Velocity":50,"Duration":168620,"SoundDuration":168620,"Delta":308661902},{"NoteNumber":54,"Velocity":52,"Duration":168619,"SoundDuration":168619,"Delta":308830522},{"NoteNumber":66,"Velocity":60,"Duration":1954213,"SoundDuration":1954213,"Delta":308999142},{"NoteNumber":38,"Velocity":63,"Duration":1954213,"SoundDuration":1954213,"Delta":308999142},{"NoteNumber":54,"Velocity":44,"Duration":167155,"SoundDuration":167155,"Delta":309167923},{"NoteNumber":59,"Velocity":43,"Duration":165636,"SoundDuration":165636,"Delta":309335078},{"NoteNumber":62,"Velocity":52,"Duration":164063,"SoundDuration":164063,"Delta":309500714},{"NoteNumber":59,"Velocity":46,"Duration":162592,"SoundDuration":162592,"Delta":309664778},{"NoteNumber":54,"Velocity":46,"Duration":161083,"SoundDuration":161083,"Delta":309827371},{"NoteNumber":59,"Velocity":53,"Duration":160102,"SoundDuration":160102,"Delta":309988454},{"NoteNumber":54,"Velocity":44,"Duration":160102,"SoundDuration":160102,"Delta":310148557},{"NoteNumber":59,"Velocity":45,"Duration":160903,"SoundDuration":160903,"Delta":310308659},{"NoteNumber":62,"Velocity":56,"Duration":161264,"SoundDuration":161264,"Delta":310469563},{"NoteNumber":59,"Velocity":46,"Duration":161264,"SoundDuration":161264,"Delta":310630827},{"NoteNumber":54,"Velocity":46,"Duration":161264,"SoundDuration":161264,"Delta":310792091},{"NoteNumber":66,"Velocity":64,"Duration":1976280,"SoundDuration":1976280,"Delta":310953356},{"NoteNumber":36,"Velocity":37,"Duration":101452,"SoundDuration":101452,"Delta":310953356},{"NoteNumber":38,"Velocity":33,"Duration":100917,"SoundDuration":100917,"Delta":311054808},{"NoteNumber":54,"Velocity":48,"Duration":167155,"SoundDuration":167155,"Delta":311122137},{"NoteNumber":36,"Velocity":37,"Duration":100260,"SoundDuration":100260,"Delta":311155726},{"NoteNumber":38,"Velocity":33,"Duration":99745,"SoundDuration":99745,"Delta":311255986},{"NoteNumber":57,"Velocity":48,"Duration":165636,"SoundDuration":165636,"Delta":311289292},{"NoteNumber":36,"Velocity":38,"Duration":99196,"SoundDuration":99196,"Delta":311355732},{"NoteNumber":62,"Velocity":58,"Duration":164063,"SoundDuration":164063,"Delta":311454928},{"NoteNumber":38,"Velocity":39,"Duration":98645,"SoundDuration":98645,"Delta":311454928},{"NoteNumber":36,"Velocity":41,"Duration":98026,"SoundDuration":98026,"Delta":311553574},{"NoteNumber":57,"Velocity":47,"Duration":162592,"SoundDuration":162592,"Delta":311618992},{"NoteNumber":38,"Velocity":44,"Duration":97607,"SoundDuration":97607,"Delta":311651600},{"NoteNumber":36,"Velocity":45,"Duration":96993,"SoundDuration":96993,"Delta":311749207},{"NoteNumber":54,"Velocity":48,"Duration":161083,"SoundDuration":161083,"Delta":311781585},{"NoteNumber":38,"Velocity":47,"Duration":96467,"SoundDuration":96467,"Delta":311846201},{"NoteNumber":57,"Velocity":58,"Duration":160102,"SoundDuration":160102,"Delta":311942668},{"NoteNumber":36,"Velocity":50,"Duration":96061,"SoundDuration":96061,"Delta":311942668},{"NoteNumber":38,"Velocity":51,"Duration":96061,"SoundDuration":96061,"Delta":312038729},{"NoteNumber":54,"Velocity":59,"Duration":160102,"SoundDuration":160102,"Delta":312102770},{"NoteNumber":36,"Velocity":54,"Duration":96061,"SoundDuration":96061,"Delta":312134791},{"NoteNumber":38,"Velocity":55,"Duration":96061,"SoundDuration":96061,"Delta":312230852},{"NoteNumber":57,"Velocity":59,"Duration":160903,"SoundDuration":160903,"Delta":312262873},{"NoteNumber":36,"Velocity":58,"Duration":96862,"SoundDuration":96862,"Delta":312326914},{"NoteNumber":62,"Velocity":67,"Duration":168619,"SoundDuration":168619,"Delta":312423776},{"NoteNumber":38,"Velocity":60,"Duration":101172,"SoundDuration":101172,"Delta":312423776},{"NoteNumber":36,"Velocity":62,"Duration":134895,"SoundDuration":134895,"Delta":312524948},{"NoteNumber":57,"Velocity":62,"Duration":168620,"SoundDuration":168620,"Delta":312592396},{"NoteNumber":34,"Velocity":65,"Duration":134896,"SoundDuration":134896,"Delta":312659844},{"NoteNumber":54,"Velocity":62,"Duration":168619,"SoundDuration":168619,"Delta":312761016},{"NoteNumber":36,"Velocity":68,"Duration":134895,"SoundDuration":134895,"Delta":312794740},{"NoteNumber":67,"Velocity":80,"Duration":1954213,"SoundDuration":1954213,"Delta":312929636},{"NoteNumber":34,"Velocity":84,"Duration":1954213,"SoundDuration":1954213,"Delta":312934926},{"NoteNumber":55,"Velocity":53,"Duration":167155,"SoundDuration":167155,"Delta":313098418},{"NoteNumber":58,"Velocity":54,"Duration":165636,"SoundDuration":165636,"Delta":313265573},{"NoteNumber":62,"Velocity":67,"Duration":164063,"SoundDuration":164063,"Delta":313431209},{"NoteNumber":58,"Velocity":56,"Duration":162592,"SoundDuration":162592,"Delta":313595273},{"NoteNumber":55,"Velocity":56,"Duration":161083,"SoundDuration":161083,"Delta":313757866},{"NoteNumber":58,"Velocity":70,"Duration":160102,"SoundDuration":160102,"Delta":313918949},{"NoteNumber":55,"Velocity":58,"Duration":160102,"SoundDuration":160102,"Delta":314079051},{"NoteNumber":58,"Velocity":59,"Duration":160903,"SoundDuration":160903,"Delta":314239154},{"NoteNumber":62,"Velocity":72,"Duration":161264,"SoundDuration":161264,"Delta":314400057},{"NoteNumber":58,"Velocity":55,"Duration":161264,"SoundDuration":161264,"Delta":314561321},{"NoteNumber":55,"Velocity":60,"Duration":161264,"SoundDuration":161264,"Delta":314722586},{"NoteNumber":60,"Velocity":83,"Duration":989312,"SoundDuration":989312,"Delta":314883850},{"NoteNumber":38,"Velocity":77,"Duration":2051720,"SoundDuration":2051720,"Delta":314883850},{"NoteNumber":48,"Velocity":67,"Duration":167155,"SoundDuration":167155,"Delta":315052631},{"NoteNumber":54,"Velocity":65,"Duration":165636,"SoundDuration":165636,"Delta":315219787},{"NoteNumber":57,"Velocity":63,"Duration":164063,"SoundDuration":164063,"Delta":315385423},{"NoteNumber":54,"Velocity":61,"Duration":162592,"SoundDuration":162592,"Delta":315549487},{"NoteNumber":48,"Velocity":59,"Duration":161083,"SoundDuration":161083,"Delta":315712079},{"NoteNumber":54,"Velocity":56,"Duration":160102,"SoundDuration":160102,"Delta":315873163},{"NoteNumber":48,"Velocity":54,"Duration":160102,"SoundDuration":160102,"Delta":316033265},{"NoteNumber":54,"Velocity":50,"Duration":160949,"SoundDuration":160949,"Delta":316193367},{"NoteNumber":57,"Velocity":46,"Duration":171540,"SoundDuration":171540,"Delta":316354317},{"NoteNumber":54,"Velocity":42,"Duration":178901,"SoundDuration":178901,"Delta":316525857},{"NoteNumber":48,"Velocity":39,"Duration":230812,"SoundDuration":230812,"Delta":316704758},{"NoteNumber":61,"Velocity":45,"Duration":1954213,"SoundDuration":1954213,"Delta":316935571},{"NoteNumber":37,"Velocity":40,"Duration":1954213,"SoundDuration":1954213,"Delta":316935571},{"NoteNumber":49,"Velocity":33,"Duration":167155,"SoundDuration":167155,"Delta":317104352},{"NoteNumber":54,"Velocity":33,"Duration":165636,"SoundDuration":165636,"Delta":317271507},{"NoteNumber":58,"Velocity":36,"Duration":164063,"SoundDuration":164063,"Delta":317437143},{"NoteNumber":54,"Velocity":32,"Duration":162592,"SoundDuration":162592,"Delta":317601207},{"NoteNumber":49,"Velocity":32,"Duration":161083,"SoundDuration":161083,"Delta":317763800},{"NoteNumber":54,"Velocity":35,"Duration":160102,"SoundDuration":160102,"Delta":317924883},{"NoteNumber":49,"Velocity":31,"Duration":160102,"SoundDuration":160102,"Delta":318084986},{"NoteNumber":54,"Velocity":31,"Duration":160903,"SoundDuration":160903,"Delta":318245088},{"NoteNumber":58,"Velocity":37,"Duration":161264,"SoundDuration":161264,"Delta":318405991},{"NoteNumber":54,"Velocity":30,"Duration":161264,"SoundDuration":161264,"Delta":318567256},{"NoteNumber":49,"Velocity":30,"Duration":161264,"SoundDuration":161264,"Delta":318728520},{"NoteNumber":61,"Velocity":45,"Duration":487225,"SoundDuration":487225,"Delta":318889784},{"NoteNumber":37,"Velocity":35,"Duration":487225,"SoundDuration":487225,"Delta":318889784},{"NoteNumber":53,"Velocity":29,"Duration":162442,"SoundDuration":162442,"Delta":319052124},{"NoteNumber":56,"Velocity":29,"Duration":162442,"SoundDuration":162442,"Delta":319214567},{"NoteNumber":71,"Velocity":41,"Duration":487328,"SoundDuration":487328,"Delta":319377010},{"NoteNumber":49,"Velocity":35,"Duration":1493248,"SoundDuration":1493248,"Delta":319377010},{"NoteNumber":59,"Velocity":28,"Duration":162442,"SoundDuration":162442,"Delta":319539453},{"NoteNumber":61,"Velocity":28,"Duration":162442,"SoundDuration":162442,"Delta":319701896},{"NoteNumber":68,"Velocity":42,"Duration":489064,"SoundDuration":489064,"Delta":319864339},{"NoteNumber":53,"Velocity":31,"Duration":489064,"SoundDuration":489064,"Delta":319864339},{"NoteNumber":59,"Velocity":28,"Duration":163039,"SoundDuration":163039,"Delta":320027326},{"NoteNumber":61,"Velocity":28,"Duration":163038,"SoundDuration":163038,"Delta":320190365},{"NoteNumber":65,"Velocity":39,"Duration":516854,"SoundDuration":516854,"Delta":320353404},{"NoteNumber":56,"Velocity":31,"Duration":516854,"SoundDuration":516854,"Delta":320353404},{"NoteNumber":59,"Velocity":26,"Duration":172562,"SoundDuration":172562,"Delta":320525134},{"NoteNumber":61,"Velocity":26,"Duration":172562,"SoundDuration":172562,"Delta":320697696},{"NoteNumber":66,"Velocity":45,"Duration":1954213,"SoundDuration":1954213,"Delta":320870259},{"NoteNumber":42,"Velocity":40,"Duration":1954213,"SoundDuration":1954213,"Delta":320870259},{"NoteNumber":54,"Velocity":32,"Duration":167155,"SoundDuration":167155,"Delta":321039040},{"NoteNumber":58,"Velocity":32,"Duration":165636,"SoundDuration":165636,"Delta":321206195},{"NoteNumber":61,"Velocity":34,"Duration":164063,"SoundDuration":164063,"Delta":321371831},{"NoteNumber":49,"Velocity":27,"Duration":487739,"SoundDuration":487739,"Delta":321371831},{"NoteNumber":46,"Velocity":27,"Duration":487739,"SoundDuration":487739,"Delta":321371831},{"NoteNumber":54,"Velocity":30,"Duration":162592,"SoundDuration":162592,"Delta":321535895},{"NoteNumber":58,"Velocity":30,"Duration":161083,"SoundDuration":161083,"Delta":321698488},{"NoteNumber":63,"Velocity":38,"Duration":160102,"SoundDuration":160102,"Delta":321859571},{"NoteNumber":47,"Velocity":26,"Duration":481108,"SoundDuration":481108,"Delta":321859571},{"NoteNumber":51,"Velocity":30,"Duration":481108,"SoundDuration":481108,"Delta":321859571},{"NoteNumber":54,"Velocity":28,"Duration":160102,"SoundDuration":160102,"Delta":322019674},{"NoteNumber":59,"Velocity":27,"Duration":160903,"SoundDuration":160903,"Delta":322179776},{"NoteNumber":61,"Velocity":32,"Duration":161264,"SoundDuration":161264,"Delta":322340680},{"NoteNumber":49,"Velocity":24,"Duration":483792,"SoundDuration":483792,"Delta":322340680},{"NoteNumber":46,"Velocity":24,"Duration":483792,"SoundDuration":483792,"Delta":322340680},{"NoteNumber":54,"Velocity":26,"Duration":161264,"SoundDuration":161264,"Delta":322501944},{"NoteNumber":58,"Velocity":26,"Duration":161264,"SoundDuration":161264,"Delta":322663208},{"NoteNumber":65,"Velocity":40,"Duration":487225,"SoundDuration":487225,"Delta":322824473},{"NoteNumber":37,"Velocity":28,"Duration":487225,"SoundDuration":487225,"Delta":322824473},{"NoteNumber":59,"Velocity":23,"Duration":162442,"SoundDuration":162442,"Delta":322986812},{"NoteNumber":61,"Velocity":23,"Duration":162442,"SoundDuration":162442,"Delta":323149255},{"NoteNumber":71,"Velocity":38,"Duration":487328,"SoundDuration":487328,"Delta":323311698},{"NoteNumber":49,"Velocity":28,"Duration":1493248,"SoundDuration":1493248,"Delta":323311698},{"NoteNumber":59,"Velocity":25,"Duration":162442,"SoundDuration":162442,"Delta":323474141},{"NoteNumber":61,"Velocity":25,"Duration":162442,"SoundDuration":162442,"Delta":323636584},{"NoteNumber":68,"Velocity":39,"Duration":489064,"SoundDuration":489064,"Delta":323799027},{"NoteNumber":53,"Velocity":24,"Duration":489064,"SoundDuration":489064,"Delta":323799027},{"NoteNumber":59,"Velocity":22,"Duration":163039,"SoundDuration":163039,"Delta":323962014},{"NoteNumber":61,"Velocity":26,"Duration":163038,"SoundDuration":163038,"Delta":324125053},{"NoteNumber":65,"Velocity":35,"Duration":516854,"SoundDuration":516854,"Delta":324288092},{"NoteNumber":56,"Velocity":24,"Duration":516854,"SoundDuration":516854,"Delta":324288092},{"NoteNumber":59,"Velocity":20,"Duration":172562,"SoundDuration":172562,"Delta":324459822},{"NoteNumber":61,"Velocity":20,"Duration":172562,"SoundDuration":172562,"Delta":324632384},{"NoteNumber":66,"Velocity":42,"Duration":1954213,"SoundDuration":1954213,"Delta":324804947},{"NoteNumber":42,"Velocity":40,"Duration":1954213,"SoundDuration":1954213,"Delta":324804947},{"NoteNumber":54,"Velocity":25,"Duration":167155,"SoundDuration":167155,"Delta":324973728},{"NoteNumber":58,"Velocity":26,"Duration":165636,"SoundDuration":165636,"Delta":325140883},{"NoteNumber":61,"Velocity":32,"Duration":164063,"SoundDuration":164063,"Delta":325306520},{"NoteNumber":49,"Velocity":24,"Duration":487739,"SoundDuration":487739,"Delta":325306520},{"NoteNumber":46,"Velocity":24,"Duration":487739,"SoundDuration":487739,"Delta":325306520},{"NoteNumber":54,"Velocity":26,"Duration":162592,"SoundDuration":162592,"Delta":325470583},{"NoteNumber":58,"Velocity":26,"Duration":161083,"SoundDuration":161083,"Delta":325633176},{"NoteNumber":63,"Velocity":38,"Duration":160102,"SoundDuration":160102,"Delta":325794260},{"NoteNumber":47,"Velocity":23,"Duration":481108,"SoundDuration":481108,"Delta":325794260},{"NoteNumber":51,"Velocity":27,"Duration":481108,"SoundDuration":481108,"Delta":325794260},{"NoteNumber":54,"Velocity":25,"Duration":160102,"SoundDuration":160102,"Delta":325954362},{"NoteNumber":59,"Velocity":25,"Duration":160903,"SoundDuration":160903,"Delta":326114464},{"NoteNumber":61,"Velocity":32,"Duration":161264,"SoundDuration":161264,"Delta":326275368},{"NoteNumber":49,"Velocity":21,"Duration":483792,"SoundDuration":483792,"Delta":326275368},{"NoteNumber":46,"Velocity":21,"Duration":483792,"SoundDuration":483792,"Delta":326275368},{"NoteNumber":54,"Velocity":26,"Duration":161264,"SoundDuration":161264,"Delta":326436632},{"NoteNumber":58,"Velocity":26,"Duration":161264,"SoundDuration":161264,"Delta":326597896},{"NoteNumber":65,"Velocity":36,"Duration":556690,"SoundDuration":556690,"Delta":326759161},{"NoteNumber":37,"Velocity":28,"Duration":556690,"SoundDuration":556690,"Delta":326759161},{"NoteNumber":59,"Velocity":23,"Duration":185563,"SoundDuration":185563,"Delta":326944724},{"NoteNumber":61,"Velocity":23,"Duration":185563,"SoundDuration":185563,"Delta":327130287},{"NoteNumber":75,"Velocity":40,"Duration":487328,"SoundDuration":487328,"Delta":327315851},{"NoteNumber":49,"Velocity":28,"Duration":1493248,"SoundDuration":1493248,"Delta":327315851},{"NoteNumber":65,"Velocity":22,"Duration":162442,"SoundDuration":162442,"Delta":327478294},{"NoteNumber":68,"Velocity":22,"Duration":162442,"SoundDuration":162442,"Delta":327640737},{"NoteNumber":71,"Velocity":37,"Duration":489064,"SoundDuration":489064,"Delta":327803180},{"NoteNumber":56,"Velocity":24,"Duration":489064,"SoundDuration":489064,"Delta":327803180},{"NoteNumber":61,"Velocity":22,"Duration":163039,"SoundDuration":163039,"Delta":327966167},{"NoteNumber":65,"Velocity":22,"Duration":163038,"SoundDuration":163038,"Delta":328129206},{"NoteNumber":68,"Velocity":31,"Duration":516854,"SoundDuration":516854,"Delta":328292245},{"NoteNumber":59,"Velocity":24,"Duration":516854,"SoundDuration":516854,"Delta":328292245},{"NoteNumber":61,"Velocity":20,"Duration":172562,"SoundDuration":172562,"Delta":328463974},{"NoteNumber":65,"Velocity":20,"Duration":172562,"SoundDuration":172562,"Delta":328636537},{"NoteNumber":66,"Velocity":36,"Duration":1955657,"SoundDuration":1955657,"Delta":328809099},{"NoteNumber":49,"Velocity":32,"Duration":1955657,"SoundDuration":1955657,"Delta":328809099},{"NoteNumber":42,"Velocity":28,"Duration":1955657,"SoundDuration":1955657,"Delta":328809099},{"NoteNumber":54,"Velocity":26,"Duration":167155,"SoundDuration":167155,"Delta":328979325},{"NoteNumber":58,"Velocity":26,"Duration":165636,"SoundDuration":165636,"Delta":329146480},{"NoteNumber":61,"Velocity":28,"Duration":164063,"SoundDuration":164063,"Delta":329312116},{"NoteNumber":58,"Velocity":25,"Duration":162592,"SoundDuration":162592,"Delta":329476180},{"NoteNumber":54,"Velocity":25,"Duration":161083,"SoundDuration":161083,"Delta":329638773},{"NoteNumber":58,"Velocity":32,"Duration":160102,"SoundDuration":160102,"Delta":329799856},{"NoteNumber":54,"Velocity":24,"Duration":160102,"SoundDuration":160102,"Delta":329959958},{"NoteNumber":58,"Velocity":24,"Duration":160903,"SoundDuration":160903,"Delta":330120061},{"NoteNumber":61,"Velocity":29,"Duration":161264,"SoundDuration":161264,"Delta":330280964},{"NoteNumber":58,"Velocity":24,"Duration":161264,"SoundDuration":161264,"Delta":330442228},{"NoteNumber":54,"Velocity":24,"Duration":161264,"SoundDuration":161264,"Delta":330603493},{"NoteNumber":58,"Velocity":32,"Duration":168781,"SoundDuration":168781,"Delta":330764757},{"NoteNumber":66,"Velocity":36,"Duration":989312,"SoundDuration":989312,"Delta":330764757},{"NoteNumber":49,"Velocity":28,"Duration":989312,"SoundDuration":989312,"Delta":330764757},{"NoteNumber":42,"Velocity":25,"Duration":989312,"SoundDuration":989312,"Delta":330764757},{"NoteNumber":54,"Velocity":26,"Duration":167155,"SoundDuration":167155,"Delta":330933538},{"NoteNumber":58,"Velocity":26,"Duration":165636,"SoundDuration":165636,"Delta":331100694},{"NoteNumber":61,"Velocity":28,"Duration":164063,"SoundDuration":164063,"Delta":331266330},{"NoteNumber":58,"Velocity":25,"Duration":162592,"SoundDuration":162592,"Delta":331430394},{"NoteNumber":54,"Velocity":25,"Duration":161083,"SoundDuration":161083,"Delta":331592986},{"NoteNumber":66,"Velocity":36,"Duration":964901,"SoundDuration":964901,"Delta":331754070},{"NoteNumber":58,"Velocity":32,"Duration":160102,"SoundDuration":160102,"Delta":331754070},{"NoteNumber":42,"Velocity":25,"Duration":964901,"SoundDuration":964901,"Delta":331754070},{"NoteNumber":49,"Velocity":28,"Duration":964901,"SoundDuration":964901,"Delta":331754070},{"NoteNumber":54,"Velocity":24,"Duration":160102,"SoundDuration":160102,"Delta":331914172},{"NoteNumber":58,"Velocity":24,"Duration":160903,"SoundDuration":160903,"Delta":332074274},{"NoteNumber":61,"Velocity":29,"Duration":161264,"SoundDuration":161264,"Delta":332235178},{"NoteNumber":58,"Velocity":24,"Duration":161264,"SoundDuration":161264,"Delta":332396442},{"NoteNumber":54,"Velocity":24,"Duration":161264,"SoundDuration":161264,"Delta":332557707},{"NoteNumber":54,"Velocity":25,"Duration":1967030,"SoundDuration":1967030,"Delta":332718971},{"NoteNumber":58,"Velocity":25,"Duration":1967030,"SoundDuration":1967030,"Delta":332718971},{"NoteNumber":66,"Velocity":36,"Duration":1967030,"SoundDuration":1967030,"Delta":332718971},{"NoteNumber":42,"Velocity":26,"Duration":167028,"SoundDuration":167028,"Delta":332887538},{"NoteNumber":46,"Velocity":25,"Duration":166239,"SoundDuration":166239,"Delta":333054567},{"NoteNumber":49,"Velocity":27,"Duration":165319,"SoundDuration":165319,"Delta":333220806},{"NoteNumber":46,"Velocity":24,"Duration":164554,"SoundDuration":164554,"Delta":333386126},{"NoteNumber":42,"Velocity":24,"Duration":163445,"SoundDuration":163445,"Delta":333550680},{"NoteNumber":46,"Velocity":30,"Duration":162341,"SoundDuration":162341,"Delta":333714125},{"NoteNumber":42,"Velocity":22,"Duration":163038,"SoundDuration":163038,"Delta":333876467},{"NoteNumber":46,"Velocity":22,"Duration":162702,"SoundDuration":162702,"Delta":334039506},{"NoteNumber":49,"Velocity":26,"Duration":161264,"SoundDuration":161264,"Delta":334202209},{"NoteNumber":46,"Velocity":22,"Duration":161264,"SoundDuration":161264,"Delta":334363473},{"NoteNumber":42,"Velocity":21,"Duration":161264,"SoundDuration":161264,"Delta":334524737},{"NoteNumber":54,"Velocity":22,"Duration":989459,"SoundDuration":989459,"Delta":334686002},{"NoteNumber":58,"Velocity":22,"Duration":989459,"SoundDuration":989459,"Delta":334686002},{"NoteNumber":66,"Velocity":32,"Duration":989459,"SoundDuration":989459,"Delta":334686002},{"NoteNumber":46,"Velocity":28,"Duration":168781,"SoundDuration":168781,"Delta":334686002},{"NoteNumber":42,"Velocity":23,"Duration":167155,"SoundDuration":167155,"Delta":334854783},{"NoteNumber":46,"Velocity":23,"Duration":165636,"SoundDuration":165636,"Delta":335021938},{"NoteNumber":49,"Velocity":24,"Duration":164063,"SoundDuration":164063,"Delta":335187574},{"NoteNumber":46,"Velocity":21,"Duration":162241,"SoundDuration":162241,"Delta":335351638},{"NoteNumber":42,"Velocity":21,"Duration":161582,"SoundDuration":161582,"Delta":335513879},{"NoteNumber":54,"Velocity":20,"Duration":1108642,"SoundDuration":1108642,"Delta":335675462},{"NoteNumber":58,"Velocity":20,"Duration":1108642,"SoundDuration":1108642,"Delta":335675462},{"NoteNumber":66,"Velocity":30,"Duration":1108642,"SoundDuration":1108642,"Delta":335675462},{"NoteNumber":46,"Velocity":27,"Duration":163375,"SoundDuration":163375,"Delta":335675462},{"NoteNumber":42,"Velocity":20,"Duration":165351,"SoundDuration":165351,"Delta":335838837},{"NoteNumber":37,"Velocity":20,"Duration":167200,"SoundDuration":167200,"Delta":336004188},{"NoteNumber":42,"Velocity":24,"Duration":183640,"SoundDuration":183640,"Delta":336171389},{"NoteNumber":37,"Velocity":19,"Duration":189352,"SoundDuration":189352,"Delta":336355030},{"NoteNumber":34,"Velocity":19,"Duration":239721,"SoundDuration":239721,"Delta":336544382},{"NoteNumber":54,"Velocity":19,"Duration":5753328,"SoundDuration":5753328,"Delta":336784104},{"NoteNumber":58,"Velocity":19,"Duration":5753328,"SoundDuration":5753328,"Delta":336784104},{"NoteNumber":66,"Velocity":28,"Duration":5753328,"SoundDuration":5753328,"Delta":336784104},{"NoteNumber":30,"Velocity":20,"Duration":5753328,"SoundDuration":5753328,"Delta":336784104},{"NoteNumber":37,"Velocity":20,"Duration":5753328,"SoundDuration":5753328,"Delta":336784104},{"NoteNumber":42,"Velocity":23,"Duration":5753328,"SoundDuration":5753328,"Delta":336784104}],"license":{"name":"Creative Commons Attribution-ShareAlike 3.0 Germany","url":"http://creativecommons.org/licenses/by-sa/3.0/de/deed.en","text":"The MIDI, audio (MP3, OGG) and video files of Bernd Krueger are licensed under the cc-by-sa Germany License. This means that you can use and adapt the files, as long as you attribute the copyright holder.\n\nName: Bernd Krueger\nSource: http://www.piano-midi.de\n\nThe distribution or public playback of the files is only allowed under identical license conditions.\n\nThe scores are open source.","attribution":"MIDI files by Bernd Krueger (piano-midi.de)","attributionUrl":"http://www.piano-midi.de"}}