{"title":"Impromptu Nr. 1 c-Moll","artist":"Schubert","durationMs":461442,"midiSha256":"54ac17a3802d912947aa2e7d706ecb0b0f5f9a098fa2966fa0cecaf10e355310","midiObject":[{"NoteNumber":67,"Velocity":84,"Duration":2231013,"SoundDuration":2231013,"Delta":0},{"NoteNumber":79,"Velocity":95,"Duration":2231013,"SoundDuration":2231013,"Delta":0},{"NoteNumber":43,"Velocity":70,"Duration":2231013,"SoundDuration":2231013,"Delta":0},{"NoteNumber":31,"Velocity":60,"Duration":2231013,"SoundDuration":2231013,"Delta":0},{"NoteNumber":71,"Velocity":44,"Duration":413754,"SoundDuration":413754,"Delta":2278482},{"NoteNumber":72,"Velocity":38,"Duration":137918,"SoundDuration":137918,"Delta":2692236},{"NoteNumber":74,"Velocity":51,"Duration":397385,"SoundDuration":397385,"Delta":2830155},{"NoteNumber":74,"Velocity":42,"Duration":384720,"SoundDuration":384720,"Delta":3394489},{"NoteNumber":74,"Velocity":42,"Duration":384405,"SoundDuration":384405,"Delta":3940838},{"NoteNumber":72,"Velocity":46,"Duration":413754,"SoundDuration":413754,"Delta":4486739},{"NoteNumber":74,"Velocity":47,"Duration":137918,"SoundDuration":137918,"Delta":4900493},{"NoteNumber":75,"Velocity":53,"Duration":827509,"SoundDuration":827509,"Delta":5038412},{"NoteNumber":74,"Velocity":44,"Duration":275836,"SoundDuration":275836,"Delta":5865921},{"NoteNumber":72,"Velocity":39,"Duration":551673,"SoundDuration":551673,"Delta":6141758},{"NoteNumber":74,"Velocity":49,"Duration":407313,"SoundDuration":407313,"Delta":6693431},{"NoteNumber":72,"Velocity":42,"Duration":142409,"SoundDuration":142409,"Delta":7100744},{"NoteNumber":71,"Velocity":46,"Duration":551673,"SoundDuration":551673,"Delta":7243154},{"NoteNumber":69,"Velocity":44,"Duration":413754,"SoundDuration":413754,"Delta":7794827},{"NoteNumber":71,"Velocity":36,"Duration":137918,"SoundDuration":137918,"Delta":8208582},{"NoteNumber":72,"Velocity":48,"Duration":568333,"SoundDuration":568333,"Delta":8346500},{"NoteNumber":74,"Velocity":43,"Duration":419306,"SoundDuration":419306,"Delta":8914833},{"NoteNumber":75,"Velocity":44,"Duration":148045,"SoundDuration":148045,"Delta":9334140},{"NoteNumber":74,"Velocity":51,"Duration":1776549,"SoundDuration":1776549,"Delta":9482186},{"NoteNumber":62,"Velocity":37,"Duration":276985,"SoundDuration":276985,"Delta":11258735},{"NoteNumber":67,"Velocity":37,"Duration":276985,"SoundDuration":276985,"Delta":11258735},{"NoteNumber":71,"Velocity":44,"Duration":276985,"SoundDuration":276985,"Delta":11258735},{"NoteNumber":55,"Velocity":35,"Duration":275836,"SoundDuration":275836,"Delta":11258735},{"NoteNumber":63,"Velocity":35,"Duration":68959,"SoundDuration":68959,"Delta":11672490},{"NoteNumber":67,"Velocity":35,"Duration":68959,"SoundDuration":68959,"Delta":11672490},{"NoteNumber":72,"Velocity":42,"Duration":68959,"SoundDuration":68959,"Delta":11672490},{"NoteNumber":55,"Velocity":33,"Duration":68959,"SoundDuration":68959,"Delta":11672490},{"NoteNumber":65,"Velocity":43,"Duration":271837,"SoundDuration":271837,"Delta":11810408},{"NoteNumber":67,"Velocity":43,"Duration":271837,"SoundDuration":271837,"Delta":11810408},{"NoteNumber":74,"Velocity":51,"Duration":271837,"SoundDuration":271837,"Delta":11810408},{"NoteNumber":55,"Velocity":40,"Duration":270709,"SoundDuration":270709,"Delta":11810408},{"NoteNumber":65,"Velocity":35,"Duration":275566,"SoundDuration":275566,"Delta":12351827},{"NoteNumber":67,"Velocity":35,"Duration":275566,"SoundDuration":275566,"Delta":12351827},{"NoteNumber":74,"Velocity":42,"Duration":275566,"SoundDuration":275566,"Delta":12351827},{"NoteNumber":55,"Velocity":33,"Duration":274423,"SoundDuration":274423,"Delta":12351827},{"NoteNumber":65,"Velocity":35,"Duration":274087,"SoundDuration":274087,"Delta":12900674},{"NoteNumber":67,"Velocity":35,"Duration":274087,"SoundDuration":274087,"Delta":12900674},{"NoteNumber":74,"Velocity":42,"Duration":274087,"SoundDuration":274087,"Delta":12900674},{"NoteNumber":55,"Velocity":33,"Duration":272950,"SoundDuration":272950,"Delta":12900674},{"NoteNumber":63,"Velocity":39,"Duration":276985,"SoundDuration":276985,"Delta":13446575},{"NoteNumber":67,"Velocity":39,"Duration":276985,"SoundDuration":276985,"Delta":13446575},{"NoteNumber":72,"Velocity":39,"Duration":276985,"SoundDuration":276985,"Delta":13446575},{"NoteNumber":55,"Velocity":46,"Duration":275836,"SoundDuration":275836,"Delta":13446575},{"NoteNumber":65,"Velocity":39,"Duration":68959,"SoundDuration":68959,"Delta":13860330},{"NoteNumber":67,"Velocity":39,"Duration":68959,"SoundDuration":68959,"Delta":13860330},{"NoteNumber":74,"Velocity":47,"Duration":68959,"SoundDuration":68959,"Delta":13860330},{"NoteNumber":55,"Velocity":47,"Duration":68959,"SoundDuration":68959,"Delta":13860330},{"NoteNumber":67,"Velocity":45,"Duration":945415,"SoundDuration":945415,"Delta":13998248},{"NoteNumber":75,"Velocity":53,"Duration":945415,"SoundDuration":945415,"Delta":13998248},{"NoteNumber":55,"Velocity":53,"Duration":137918,"SoundDuration":137918,"Delta":13998248},{"NoteNumber":57,"Velocity":53,"Duration":136986,"SoundDuration":136986,"Delta":14532705},{"NoteNumber":65,"Velocity":37,"Duration":68493,"SoundDuration":68493,"Delta":14943664},{"NoteNumber":67,"Velocity":37,"Duration":68493,"SoundDuration":68493,"Delta":14943664},{"NoteNumber":74,"Velocity":44,"Duration":68493,"SoundDuration":68493,"Delta":14943664},{"NoteNumber":59,"Velocity":43,"Duration":68493,"SoundDuration":68493,"Delta":14943664},{"NoteNumber":63,"Velocity":33,"Duration":273972,"SoundDuration":273972,"Delta":15080650},{"NoteNumber":67,"Velocity":33,"Duration":273972,"SoundDuration":273972,"Delta":15080650},{"NoteNumber":72,"Velocity":39,"Duration":273972,"SoundDuration":273972,"Delta":15080650},{"NoteNumber":60,"Velocity":49,"Duration":273972,"SoundDuration":273972,"Delta":15080650},{"NoteNumber":65,"Velocity":41,"Duration":272673,"SoundDuration":272673,"Delta":15628595},{"NoteNumber":68,"Velocity":41,"Duration":272673,"SoundDuration":272673,"Delta":15628595},{"NoteNumber":74,"Velocity":49,"Duration":272673,"SoundDuration":272673,"Delta":15628595},{"NoteNumber":53,"Velocity":45,"Duration":271542,"SoundDuration":271542,"Delta":15628595},{"NoteNumber":63,"Velocity":35,"Duration":71204,"SoundDuration":71204,"Delta":16035909},{"NoteNumber":68,"Velocity":42,"Duration":71204,"SoundDuration":71204,"Delta":16035909},{"NoteNumber":72,"Velocity":42,"Duration":71204,"SoundDuration":71204,"Delta":16035909},{"NoteNumber":53,"Velocity":36,"Duration":71204,"SoundDuration":71204,"Delta":16035909},{"NoteNumber":62,"Velocity":39,"Duration":275836,"SoundDuration":275836,"Delta":16178318},{"NoteNumber":67,"Velocity":39,"Duration":275836,"SoundDuration":275836,"Delta":16178318},{"NoteNumber":71,"Velocity":46,"Duration":275836,"SoundDuration":275836,"Delta":16178318},{"NoteNumber":55,"Velocity":44,"Duration":965427,"SoundDuration":965427,"Delta":16178318},{"NoteNumber":60,"Velocity":37,"Duration":276985,"SoundDuration":276985,"Delta":16729991},{"NoteNumber":67,"Velocity":37,"Duration":276985,"SoundDuration":276985,"Delta":16729991},{"NoteNumber":69,"Velocity":44,"Duration":276985,"SoundDuration":276985,"Delta":16729991},{"NoteNumber":62,"Velocity":30,"Duration":68959,"SoundDuration":68959,"Delta":17143746},{"NoteNumber":67,"Velocity":30,"Duration":68959,"SoundDuration":68959,"Delta":17143746},{"NoteNumber":71,"Velocity":36,"Duration":68959,"SoundDuration":68959,"Delta":17143746},{"NoteNumber":55,"Velocity":36,"Duration":68959,"SoundDuration":68959,"Delta":17143746},{"NoteNumber":53,"Velocity":30,"Duration":68959,"SoundDuration":68959,"Delta":17143746},{"NoteNumber":63,"Velocity":40,"Duration":281769,"SoundDuration":281769,"Delta":17281664},{"NoteNumber":67,"Velocity":40,"Duration":281769,"SoundDuration":281769,"Delta":17281664},{"NoteNumber":72,"Velocity":48,"Duration":281769,"SoundDuration":281769,"Delta":17281664},{"NoteNumber":51,"Velocity":40,"Duration":281769,"SoundDuration":281769,"Delta":17281664},{"NoteNumber":55,"Velocity":48,"Duration":281769,"SoundDuration":281769,"Delta":17281664},{"NoteNumber":67,"Velocity":45,"Duration":284198,"SoundDuration":284198,"Delta":17864941},{"NoteNumber":75,"Velocity":53,"Duration":284198,"SoundDuration":284198,"Delta":17864941},{"NoteNumber":43,"Velocity":45,"Duration":283018,"SoundDuration":283018,"Delta":17864941},{"NoteNumber":55,"Velocity":53,"Duration":283018,"SoundDuration":283018,"Delta":17864941},{"NoteNumber":65,"Velocity":37,"Duration":74022,"SoundDuration":74022,"Delta":18289470},{"NoteNumber":67,"Velocity":37,"Duration":74022,"SoundDuration":74022,"Delta":18289470},{"NoteNumber":74,"Velocity":44,"Duration":74022,"SoundDuration":74022,"Delta":18289470},{"NoteNumber":55,"Velocity":44,"Duration":74022,"SoundDuration":74022,"Delta":18289470},{"NoteNumber":43,"Velocity":37,"Duration":74022,"SoundDuration":74022,"Delta":18289470},{"NoteNumber":63,"Velocity":43,"Duration":1776548,"SoundDuration":1776548,"Delta":18437516},{"NoteNumber":67,"Velocity":43,"Duration":1776548,"SoundDuration":1776548,"Delta":18437516},{"NoteNumber":72,"Velocity":51,"Duration":1776548,"SoundDuration":1776548,"Delta":18437516},{"NoteNumber":48,"Velocity":46,"Duration":1776548,"SoundDuration":1776548,"Delta":18437516},{"NoteNumber":55,"Velocity":55,"Duration":1776548,"SoundDuration":1776548,"Delta":18437516},{"NoteNumber":74,"Velocity":44,"Duration":413754,"SoundDuration":413754,"Delta":20214065},{"NoteNumber":75,"Velocity":38,"Duration":137918,"SoundDuration":137918,"Delta":20627819},{"NoteNumber":77,"Velocity":51,"Duration":393682,"SoundDuration":393682,"Delta":20765738},{"NoteNumber":77,"Velocity":42,"Duration":388255,"SoundDuration":388255,"Delta":21324814},{"NoteNumber":77,"Velocity":42,"Duration":384405,"SoundDuration":384405,"Delta":21876183},{"NoteNumber":75,"Velocity":46,"Duration":413754,"SoundDuration":413754,"Delta":22422084},{"NoteNumber":74,"Velocity":47,"Duration":137918,"SoundDuration":137918,"Delta":22835838},{"NoteNumber":79,"Velocity":53,"Duration":827509,"SoundDuration":827509,"Delta":22973757},{"NoteNumber":77,"Velocity":44,"Duration":275836,"SoundDuration":275836,"Delta":23801266},{"NoteNumber":75,"Velocity":39,"Duration":559076,"SoundDuration":559076,"Delta":24077103},{"NoteNumber":74,"Velocity":49,"Duration":407313,"SoundDuration":407313,"Delta":24636179},{"NoteNumber":72,"Velocity":42,"Duration":142409,"SoundDuration":142409,"Delta":25043492},{"NoteNumber":71,"Velocity":46,"Duration":551673,"SoundDuration":551673,"Delta":25185902},{"NoteNumber":69,"Velocity":44,"Duration":413754,"SoundDuration":413754,"Delta":25737575},{"NoteNumber":71,"Velocity":36,"Duration":137918,"SoundDuration":137918,"Delta":26151330},{"NoteNumber":72,"Velocity":48,"Duration":575153,"SoundDuration":575153,"Delta":26289248},{"NoteNumber":77,"Velocity":43,"Duration":419306,"SoundDuration":419306,"Delta":26864401},{"NoteNumber":75,"Velocity":44,"Duration":148045,"SoundDuration":148045,"Delta":27283708},{"NoteNumber":74,"Velocity":51,"Duration":1776548,"SoundDuration":1776548,"Delta":27431754},{"NoteNumber":65,"Velocity":37,"Duration":276985,"SoundDuration":276985,"Delta":29208303},{"NoteNumber":70,"Velocity":37,"Duration":276985,"SoundDuration":276985,"Delta":29208303},{"NoteNumber":74,"Velocity":44,"Duration":276985,"SoundDuration":276985,"Delta":29208303},{"NoteNumber":58,"Velocity":35,"Duration":275836,"SoundDuration":275836,"Delta":29208303},{"NoteNumber":67,"Velocity":35,"Duration":68959,"SoundDuration":68959,"Delta":29622057},{"NoteNumber":70,"Velocity":35,"Duration":68959,"SoundDuration":68959,"Delta":29622057},{"NoteNumber":75,"Velocity":42,"Duration":68959,"SoundDuration":68959,"Delta":29622057},{"NoteNumber":58,"Velocity":33,"Duration":68959,"SoundDuration":68959,"Delta":29622057},{"NoteNumber":68,"Velocity":43,"Duration":276985,"SoundDuration":276985,"Delta":29759976},{"NoteNumber":70,"Velocity":43,"Duration":276985,"SoundDuration":276985,"Delta":29759976},{"NoteNumber":77,"Velocity":51,"Duration":276985,"SoundDuration":276985,"Delta":29759976},{"NoteNumber":58,"Velocity":40,"Duration":275836,"SoundDuration":275836,"Delta":29759976},{"NoteNumber":68,"Velocity":35,"Duration":276985,"SoundDuration":276985,"Delta":30311649},{"NoteNumber":70,"Velocity":35,"Duration":276985,"SoundDuration":276985,"Delta":30311649},{"NoteNumber":77,"Velocity":42,"Duration":276985,"SoundDuration":276985,"Delta":30311649},{"NoteNumber":58,"Velocity":33,"Duration":275836,"SoundDuration":275836,"Delta":30311649},{"NoteNumber":68,"Velocity":35,"Duration":274087,"SoundDuration":274087,"Delta":30863322},{"NoteNumber":70,"Velocity":35,"Duration":274087,"SoundDuration":274087,"Delta":30863322},{"NoteNumber":77,"Velocity":42,"Duration":274087,"SoundDuration":274087,"Delta":30863322},{"NoteNumber":58,"Velocity":33,"Duration":272950,"SoundDuration":272950,"Delta":30863322},{"NoteNumber":67,"Velocity":39,"Duration":276985,"SoundDuration":276985,"Delta":31409223},{"NoteNumber":70,"Velocity":39,"Duration":276985,"SoundDuration":276985,"Delta":31409223},{"NoteNumber":75,"Velocity":46,"Duration":276985,"SoundDuration":276985,"Delta":31409223},{"NoteNumber":58,"Velocity":46,"Duration":275836,"SoundDuration":275836,"Delta":31409223},{"NoteNumber":65,"Velocity":39,"Duration":68959,"SoundDuration":68959,"Delta":31822977},{"NoteNumber":70,"Velocity":39,"Duration":68959,"SoundDuration":68959,"Delta":31822977},{"NoteNumber":74,"Velocity":47,"Duration":68959,"SoundDuration":68959,"Delta":31822977},{"NoteNumber":58,"Velocity":47,"Duration":68959,"SoundDuration":68959,"Delta":31822977},{"NoteNumber":70,"Velocity":47,"Duration":945415,"SoundDuration":945415,"Delta":31960896},{"NoteNumber":79,"Velocity":56,"Duration":945415,"SoundDuration":945415,"Delta":31960896},{"NoteNumber":58,"Velocity":53,"Duration":137918,"SoundDuration":137918,"Delta":31960896},{"NoteNumber":60,"Velocity":53,"Duration":136986,"SoundDuration":136986,"Delta":32495353},{"NoteNumber":68,"Velocity":41,"Duration":68493,"SoundDuration":68493,"Delta":32906311},{"NoteNumber":70,"Velocity":41,"Duration":68493,"SoundDuration":68493,"Delta":32906311},{"NoteNumber":77,"Velocity":49,"Duration":68493,"SoundDuration":68493,"Delta":32906311},{"NoteNumber":62,"Velocity":43,"Duration":68493,"SoundDuration":68493,"Delta":32906311},{"NoteNumber":67,"Velocity":35,"Duration":273972,"SoundDuration":273972,"Delta":33043298},{"NoteNumber":70,"Velocity":35,"Duration":273972,"SoundDuration":273972,"Delta":33043298},{"NoteNumber":75,"Velocity":42,"Duration":273972,"SoundDuration":273972,"Delta":33043298},{"NoteNumber":63,"Velocity":49,"Duration":273972,"SoundDuration":273972,"Delta":33043298},{"NoteNumber":65,"Velocity":44,"Duration":272673,"SoundDuration":272673,"Delta":33591243},{"NoteNumber":68,"Velocity":44,"Duration":272673,"SoundDuration":272673,"Delta":33591243},{"NoteNumber":74,"Velocity":52,"Duration":272673,"SoundDuration":272673,"Delta":33591243},{"NoteNumber":53,"Velocity":45,"Duration":271542,"SoundDuration":271542,"Delta":33591243},{"NoteNumber":63,"Velocity":35,"Duration":71204,"SoundDuration":71204,"Delta":33998556},{"NoteNumber":68,"Velocity":35,"Duration":71204,"SoundDuration":71204,"Delta":33998556},{"NoteNumber":72,"Velocity":42,"Duration":71204,"SoundDuration":71204,"Delta":33998556},{"NoteNumber":53,"Velocity":36,"Duration":71204,"SoundDuration":71204,"Delta":33998556},{"NoteNumber":62,"Velocity":39,"Duration":275836,"SoundDuration":275836,"Delta":34140966},{"NoteNumber":67,"Velocity":39,"Duration":275836,"SoundDuration":275836,"Delta":34140966},{"NoteNumber":71,"Velocity":46,"Duration":275836,"SoundDuration":275836,"Delta":34140966},{"NoteNumber":55,"Velocity":44,"Duration":965427,"SoundDuration":965427,"Delta":34140966},{"NoteNumber":60,"Velocity":37,"Duration":276985,"SoundDuration":276985,"Delta":34692639},{"NoteNumber":67,"Velocity":37,"Duration":276985,"SoundDuration":276985,"Delta":34692639},{"NoteNumber":69,"Velocity":44,"Duration":276985,"SoundDuration":276985,"Delta":34692639},{"NoteNumber":62,"Velocity":30,"Duration":68959,"SoundDuration":68959,"Delta":35106394},{"NoteNumber":67,"Velocity":30,"Duration":68959,"SoundDuration":68959,"Delta":35106394},{"NoteNumber":71,"Velocity":36,"Duration":68959,"SoundDuration":68959,"Delta":35106394},{"NoteNumber":53,"Velocity":30,"Duration":68959,"SoundDuration":68959,"Delta":35106394},{"NoteNumber":55,"Velocity":36,"Duration":68959,"SoundDuration":68959,"Delta":35106394},{"NoteNumber":63,"Velocity":40,"Duration":281769,"SoundDuration":281769,"Delta":35244312},{"NoteNumber":67,"Velocity":40,"Duration":281769,"SoundDuration":281769,"Delta":35244312},{"NoteNumber":72,"Velocity":48,"Duration":281769,"SoundDuration":281769,"Delta":35244312},{"NoteNumber":51,"Velocity":40,"Duration":281769,"SoundDuration":281769,"Delta":35244312},{"NoteNumber":55,"Velocity":48,"Duration":281769,"SoundDuration":281769,"Delta":35244312},{"NoteNumber":67,"Velocity":45,"Duration":284198,"SoundDuration":284198,"Delta":35835475},{"NoteNumber":75,"Velocity":53,"Duration":284198,"SoundDuration":284198,"Delta":35835475},{"NoteNumber":55,"Velocity":53,"Duration":283019,"SoundDuration":283019,"Delta":35835475},{"NoteNumber":43,"Velocity":45,"Duration":283019,"SoundDuration":283019,"Delta":35835475},{"NoteNumber":65,"Velocity":37,"Duration":74022,"SoundDuration":74022,"Delta":36260004},{"NoteNumber":67,"Velocity":37,"Duration":74022,"SoundDuration":74022,"Delta":36260004},{"NoteNumber":74,"Velocity":44,"Duration":74022,"SoundDuration":74022,"Delta":36260004},{"NoteNumber":55,"Velocity":44,"Duration":74022,"SoundDuration":74022,"Delta":36260004},{"NoteNumber":43,"Velocity":37,"Duration":74022,"SoundDuration":74022,"Delta":36260004},{"NoteNumber":63,"Velocity":43,"Duration":1776548,"SoundDuration":1776548,"Delta":36408050},{"NoteNumber":67,"Velocity":43,"Duration":1776548,"SoundDuration":1776548,"Delta":36408050},{"NoteNumber":72,"Velocity":51,"Duration":1776548,"SoundDuration":1776548,"Delta":36408050},{"NoteNumber":48,"Velocity":46,"Duration":1776548,"SoundDuration":1776548,"Delta":36408050},{"NoteNumber":55,"Velocity":55,"Duration":1776548,"SoundDuration":1776548,"Delta":36408050},{"NoteNumber":71,"Velocity":48,"Duration":413754,"SoundDuration":413754,"Delta":38184599},{"NoteNumber":72,"Velocity":41,"Duration":137918,"SoundDuration":137918,"Delta":38598353},{"NoteNumber":74,"Velocity":56,"Duration":388469,"SoundDuration":388469,"Delta":38736272},{"NoteNumber":68,"Velocity":39,"Duration":413754,"SoundDuration":413754,"Delta":39287945},{"NoteNumber":71,"Velocity":46,"Duration":413754,"SoundDuration":413754,"Delta":39287945},{"NoteNumber":74,"Velocity":46,"Duration":388469,"SoundDuration":388469,"Delta":39287945},{"NoteNumber":65,"Velocity":36,"Duration":413754,"SoundDuration":413754,"Delta":39287945},{"NoteNumber":69,"Velocity":39,"Duration":409425,"SoundDuration":409425,"Delta":39839618},{"NoteNumber":72,"Velocity":39,"Duration":409425,"SoundDuration":409425,"Delta":39839618},{"NoteNumber":74,"Velocity":46,"Duration":384405,"SoundDuration":384405,"Delta":39839618},{"NoteNumber":66,"Velocity":36,"Duration":409425,"SoundDuration":409425,"Delta":39839618},{"NoteNumber":69,"Velocity":39,"Duration":551673,"SoundDuration":551673,"Delta":40385519},{"NoteNumber":72,"Velocity":50,"Duration":413754,"SoundDuration":413754,"Delta":40385519},{"NoteNumber":66,"Velocity":36,"Duration":551673,"SoundDuration":551673,"Delta":40385519},{"NoteNumber":62,"Velocity":30,"Duration":551673,"SoundDuration":551673,"Delta":40385519},{"NoteNumber":74,"Velocity":51,"Duration":137918,"SoundDuration":137918,"Delta":40799273},{"NoteNumber":72,"Velocity":50,"Duration":65605,"SoundDuration":65605,"Delta":40937192},{"NoteNumber":69,"Velocity":49,"Duration":1638539,"SoundDuration":1638539,"Delta":40937192},{"NoteNumber":66,"Velocity":39,"Duration":1638539,"SoundDuration":1638539,"Delta":40937192},{"NoteNumber":60,"Velocity":46,"Duration":815269,"SoundDuration":815269,"Delta":40937192},{"NoteNumber":74,"Velocity":53,"Duration":65605,"SoundDuration":65605,"Delta":41002797},{"NoteNumber":75,"Velocity":58,"Duration":684058,"SoundDuration":684058,"Delta":41068402},{"NoteNumber":74,"Velocity":48,"Duration":274423,"SoundDuration":274423,"Delta":41752461},{"NoteNumber":62,"Velocity":46,"Duration":274423,"SoundDuration":274423,"Delta":41752461},{"NoteNumber":72,"Velocity":42,"Duration":548847,"SoundDuration":548847,"Delta":42026884},{"NoteNumber":63,"Velocity":46,"Duration":548847,"SoundDuration":548847,"Delta":42026884},{"NoteNumber":69,"Velocity":40,"Duration":549723,"SoundDuration":549723,"Delta":42575731},{"NoteNumber":74,"Velocity":55,"Duration":407313,"SoundDuration":407313,"Delta":42575731},{"NoteNumber":54,"Velocity":31,"Duration":549723,"SoundDuration":549723,"Delta":42575731},{"NoteNumber":62,"Velocity":37,"Duration":549723,"SoundDuration":549723,"Delta":42575731},{"NoteNumber":72,"Velocity":48,"Duration":142409,"SoundDuration":142409,"Delta":42983045},{"NoteNumber":67,"Velocity":44,"Duration":551673,"SoundDuration":551673,"Delta":43125454},{"NoteNumber":71,"Velocity":52,"Duration":551673,"SoundDuration":551673,"Delta":43125454},{"NoteNumber":55,"Velocity":35,"Duration":551673,"SoundDuration":551673,"Delta":43125454},{"NoteNumber":62,"Velocity":42,"Duration":551673,"SoundDuration":551673,"Delta":43125454},{"NoteNumber":67,"Velocity":46,"Duration":413754,"SoundDuration":413754,"Delta":43677127},{"NoteNumber":69,"Velocity":54,"Duration":413754,"SoundDuration":413754,"Delta":43677127},{"NoteNumber":53,"Velocity":35,"Duration":413754,"SoundDuration":413754,"Delta":43677127},{"NoteNumber":62,"Velocity":43,"Duration":413754,"SoundDuration":413754,"Delta":43677127},{"NoteNumber":55,"Velocity":35,"Duration":413754,"SoundDuration":413754,"Delta":43677127},{"NoteNumber":67,"Velocity":36,"Duration":137918,"SoundDuration":137918,"Delta":44090882},{"NoteNumber":71,"Velocity":44,"Duration":137918,"SoundDuration":137918,"Delta":44090882},{"NoteNumber":55,"Velocity":29,"Duration":137918,"SoundDuration":137918,"Delta":44090882},{"NoteNumber":53,"Velocity":29,"Duration":137918,"SoundDuration":137918,"Delta":44090882},{"NoteNumber":62,"Velocity":35,"Duration":137918,"SoundDuration":137918,"Delta":44090882},{"NoteNumber":67,"Velocity":50,"Duration":563538,"SoundDuration":563538,"Delta":44228800},{"NoteNumber":72,"Velocity":59,"Duration":563538,"SoundDuration":563538,"Delta":44228800},{"NoteNumber":55,"Velocity":39,"Duration":563538,"SoundDuration":563538,"Delta":44228800},{"NoteNumber":51,"Velocity":39,"Duration":563538,"SoundDuration":563538,"Delta":44228800},{"NoteNumber":60,"Velocity":47,"Duration":563538,"SoundDuration":563538,"Delta":44228800},{"NoteNumber":67,"Velocity":51,"Duration":422654,"SoundDuration":422654,"Delta":44792339},{"NoteNumber":74,"Velocity":61,"Duration":422654,"SoundDuration":422654,"Delta":44792339},{"NoteNumber":59,"Velocity":48,"Duration":422654,"SoundDuration":422654,"Delta":44792339},{"NoteNumber":55,"Velocity":40,"Duration":422654,"SoundDuration":422654,"Delta":44792339},{"NoteNumber":50,"Velocity":40,"Duration":422654,"SoundDuration":422654,"Delta":44792339},{"NoteNumber":67,"Velocity":52,"Duration":148045,"SoundDuration":148045,"Delta":45214994},{"NoteNumber":75,"Velocity":62,"Duration":148045,"SoundDuration":148045,"Delta":45214994},{"NoteNumber":48,"Velocity":41,"Duration":148045,"SoundDuration":148045,"Delta":45214994},{"NoteNumber":60,"Velocity":49,"Duration":148045,"SoundDuration":148045,"Delta":45214994},{"NoteNumber":55,"Velocity":41,"Duration":148045,"SoundDuration":148045,"Delta":45214994},{"NoteNumber":67,"Velocity":61,"Duration":1776548,"SoundDuration":1776548,"Delta":45363039},{"NoteNumber":74,"Velocity":73,"Duration":1776548,"SoundDuration":1776548,"Delta":45363039},{"NoteNumber":59,"Velocity":57,"Duration":1776548,"SoundDuration":1776548,"Delta":45363039},{"NoteNumber":55,"Velocity":48,"Duration":1776548,"SoundDuration":1776548,"Delta":45363039},{"NoteNumber":62,"Velocity":64,"Duration":276985,"SoundDuration":276985,"Delta":47139588},{"NoteNumber":67,"Velocity":64,"Duration":276985,"SoundDuration":276985,"Delta":47139588},{"NoteNumber":71,"Velocity":77,"Duration":276985,"SoundDuration":276985,"Delta":47139588},{"NoteNumber":55,"Velocity":61,"Duration":275836,"SoundDuration":275836,"Delta":47139588},{"NoteNumber":43,"Velocity":51,"Duration":275836,"SoundDuration":275836,"Delta":47139588},{"NoteNumber":63,"Velocity":61,"Duration":68959,"SoundDuration":68959,"Delta":47553343},{"NoteNumber":67,"Velocity":61,"Duration":68959,"SoundDuration":68959,"Delta":47553343},{"NoteNumber":72,"Velocity":73,"Duration":68959,"SoundDuration":68959,"Delta":47553343},{"NoteNumber":55,"Velocity":57,"Duration":68959,"SoundDuration":68959,"Delta":47553343},{"NoteNumber":43,"Velocity":48,"Duration":68959,"SoundDuration":68959,"Delta":47553343},{"NoteNumber":65,"Velocity":74,"Duration":276985,"SoundDuration":276985,"Delta":47691261},{"NoteNumber":67,"Velocity":74,"Duration":276985,"SoundDuration":276985,"Delta":47691261},{"NoteNumber":74,"Velocity":89,"Duration":276985,"SoundDuration":276985,"Delta":47691261},{"NoteNumber":55,"Velocity":70,"Duration":275836,"SoundDuration":275836,"Delta":47691261},{"NoteNumber":43,"Velocity":59,"Duration":275836,"SoundDuration":275836,"Delta":47691261},{"NoteNumber":65,"Velocity":68,"Duration":276985,"SoundDuration":276985,"Delta":48242934},{"NoteNumber":67,"Velocity":68,"Duration":276985,"SoundDuration":276985,"Delta":48242934},{"NoteNumber":74,"Velocity":81,"Duration":276985,"SoundDuration":276985,"Delta":48242934},{"NoteNumber":55,"Velocity":64,"Duration":275836,"SoundDuration":275836,"Delta":48242934},{"NoteNumber":43,"Velocity":55,"Duration":275836,"SoundDuration":275836,"Delta":48242934},{"NoteNumber":65,"Velocity":68,"Duration":274087,"SoundDuration":274087,"Delta":48794607},{"NoteNumber":67,"Velocity":68,"Duration":274087,"SoundDuration":274087,"Delta":48794607},{"NoteNumber":74,"Velocity":81,"Duration":274087,"SoundDuration":274087,"Delta":48794607},{"NoteNumber":55,"Velocity":66,"Duration":272950,"SoundDuration":272950,"Delta":48794607},{"NoteNumber":43,"Velocity":56,"Duration":272950,"SoundDuration":272950,"Delta":48794607},{"NoteNumber":63,"Velocity":68,"Duration":276985,"SoundDuration":276985,"Delta":49340508},{"NoteNumber":67,"Velocity":68,"Duration":276985,"SoundDuration":276985,"Delta":49340508},{"NoteNumber":72,"Velocity":80,"Duration":276985,"SoundDuration":276985,"Delta":49340508},{"NoteNumber":55,"Velocity":80,"Duration":275836,"SoundDuration":275836,"Delta":49340508},{"NoteNumber":43,"Velocity":68,"Duration":275836,"SoundDuration":275836,"Delta":49340508},{"NoteNumber":65,"Velocity":69,"Duration":68959,"SoundDuration":68959,"Delta":49754263},{"NoteNumber":67,"Velocity":69,"Duration":68959,"SoundDuration":68959,"Delta":49754263},{"NoteNumber":74,"Velocity":82,"Duration":68959,"SoundDuration":68959,"Delta":49754263},{"NoteNumber":43,"Velocity":56,"Duration":68959,"SoundDuration":68959,"Delta":49754263},{"NoteNumber":55,"Velocity":66,"Duration":68959,"SoundDuration":68959,"Delta":49754263},{"NoteNumber":67,"Velocity":78,"Duration":945415,"SoundDuration":945415,"Delta":49892181},{"NoteNumber":75,"Velocity":92,"Duration":945415,"SoundDuration":945415,"Delta":49892181},{"NoteNumber":55,"Velocity":73,"Duration":137918,"SoundDuration":137918,"Delta":49892181},{"NoteNumber":43,"Velocity":61,"Duration":137918,"SoundDuration":137918,"Delta":49892181},{"NoteNumber":57,"Velocity":84,"Duration":136986,"SoundDuration":136986,"Delta":50426638},{"NoteNumber":45,"Velocity":70,"Duration":136986,"SoundDuration":136986,"Delta":50426638},{"NoteNumber":65,"Velocity":64,"Duration":136986,"SoundDuration":136986,"Delta":50837597},{"NoteNumber":67,"Velocity":64,"Duration":136986,"SoundDuration":136986,"Delta":50837597},{"NoteNumber":74,"Velocity":77,"Duration":136986,"SoundDuration":136986,"Delta":50837597},{"NoteNumber":47,"Velocity":56,"Duration":136986,"SoundDuration":136986,"Delta":50837597},{"NoteNumber":59,"Velocity":68,"Duration":136986,"SoundDuration":136986,"Delta":50837597},{"NoteNumber":63,"Velocity":57,"Duration":273972,"SoundDuration":273972,"Delta":50974583},{"NoteNumber":67,"Velocity":57,"Duration":273972,"SoundDuration":273972,"Delta":50974583},{"NoteNumber":72,"Velocity":68,"Duration":273972,"SoundDuration":273972,"Delta":50974583},{"NoteNumber":48,"Velocity":64,"Duration":273972,"SoundDuration":273972,"Delta":50974583},{"NoteNumber":60,"Velocity":78,"Duration":273972,"SoundDuration":273972,"Delta":50974583},{"NoteNumber":65,"Velocity":72,"Duration":272673,"SoundDuration":272673,"Delta":51522528},{"NoteNumber":68,"Velocity":72,"Duration":272673,"SoundDuration":272673,"Delta":51522528},{"NoteNumber":74,"Velocity":85,"Duration":272673,"SoundDuration":272673,"Delta":51522528},{"NoteNumber":53,"Velocity":62,"Duration":271542,"SoundDuration":271542,"Delta":51522528},{"NoteNumber":41,"Velocity":52,"Duration":271542,"SoundDuration":271542,"Delta":51522528},{"NoteNumber":63,"Velocity":61,"Duration":71204,"SoundDuration":71204,"Delta":51929842},{"NoteNumber":68,"Velocity":61,"Duration":71204,"SoundDuration":71204,"Delta":51929842},{"NoteNumber":72,"Velocity":73,"Duration":71204,"SoundDuration":71204,"Delta":51929842},{"NoteNumber":53,"Velocity":49,"Duration":71204,"SoundDuration":71204,"Delta":51929842},{"NoteNumber":41,"Velocity":41,"Duration":71204,"SoundDuration":71204,"Delta":51929842},{"NoteNumber":62,"Velocity":68,"Duration":275836,"SoundDuration":275836,"Delta":52072252},{"NoteNumber":67,"Velocity":68,"Duration":275836,"SoundDuration":275836,"Delta":52072252},{"NoteNumber":71,"Velocity":80,"Duration":275836,"SoundDuration":275836,"Delta":52072252},{"NoteNumber":43,"Velocity":51,"Duration":275836,"SoundDuration":275836,"Delta":52072252},{"NoteNumber":55,"Velocity":61,"Duration":275836,"SoundDuration":275836,"Delta":52072252},{"NoteNumber":60,"Velocity":64,"Duration":276985,"SoundDuration":276985,"Delta":52623925},{"NoteNumber":67,"Velocity":64,"Duration":276985,"SoundDuration":276985,"Delta":52623925},{"NoteNumber":69,"Velocity":77,"Duration":276985,"SoundDuration":276985,"Delta":52623925},{"NoteNumber":55,"Velocity":61,"Duration":275836,"SoundDuration":275836,"Delta":52623925},{"NoteNumber":62,"Velocity":52,"Duration":68959,"SoundDuration":68959,"Delta":53037679},{"NoteNumber":67,"Velocity":52,"Duration":68959,"SoundDuration":68959,"Delta":53037679},{"NoteNumber":71,"Velocity":62,"Duration":68959,"SoundDuration":68959,"Delta":53037679},{"NoteNumber":55,"Velocity":49,"Duration":68959,"SoundDuration":68959,"Delta":53037679},{"NoteNumber":53,"Velocity":41,"Duration":68959,"SoundDuration":68959,"Delta":53037679},{"NoteNumber":63,"Velocity":70,"Duration":281769,"SoundDuration":281769,"Delta":53175598},{"NoteNumber":67,"Velocity":70,"Duration":281769,"SoundDuration":281769,"Delta":53175598},{"NoteNumber":72,"Velocity":83,"Duration":281769,"SoundDuration":281769,"Delta":53175598},{"NoteNumber":51,"Velocity":56,"Duration":281769,"SoundDuration":281769,"Delta":53175598},{"NoteNumber":55,"Velocity":66,"Duration":281769,"SoundDuration":281769,"Delta":53175598},{"NoteNumber":67,"Velocity":78,"Duration":284198,"SoundDuration":284198,"Delta":53758875},{"NoteNumber":75,"Velocity":92,"Duration":284198,"SoundDuration":284198,"Delta":53758875},{"NoteNumber":31,"Velocity":61,"Duration":283019,"SoundDuration":283019,"Delta":53758875},{"NoteNumber":43,"Velocity":73,"Duration":283019,"SoundDuration":283019,"Delta":53758875},{"NoteNumber":65,"Velocity":64,"Duration":74022,"SoundDuration":74022,"Delta":54183403},{"NoteNumber":67,"Velocity":64,"Duration":74022,"SoundDuration":74022,"Delta":54183403},{"NoteNumber":74,"Velocity":77,"Duration":74022,"SoundDuration":74022,"Delta":54183403},{"NoteNumber":43,"Velocity":61,"Duration":74022,"SoundDuration":74022,"Delta":54183403},{"NoteNumber":31,"Velocity":51,"Duration":74022,"SoundDuration":74022,"Delta":54183403},{"NoteNumber":63,"Velocity":74,"Duration":1776548,"SoundDuration":1776548,"Delta":54331449},{"NoteNumber":67,"Velocity":74,"Duration":1776548,"SoundDuration":1776548,"Delta":54331449},{"NoteNumber":72,"Velocity":89,"Duration":1776548,"SoundDuration":1776548,"Delta":54331449},{"NoteNumber":43,"Velocity":77,"Duration":1776548,"SoundDuration":1776548,"Delta":54331449},{"NoteNumber":36,"Velocity":64,"Duration":1776548,"SoundDuration":1776548,"Delta":54331449},{"NoteNumber":74,"Velocity":55,"Duration":413754,"SoundDuration":413754,"Delta":56107998},{"NoteNumber":75,"Velocity":47,"Duration":137918,"SoundDuration":137918,"Delta":56521753},{"NoteNumber":77,"Velocity":64,"Duration":388469,"SoundDuration":388469,"Delta":56659671},{"NoteNumber":71,"Velocity":44,"Duration":413754,"SoundDuration":413754,"Delta":57211344},{"NoteNumber":68,"Velocity":44,"Duration":413754,"SoundDuration":413754,"Delta":57211344},{"NoteNumber":74,"Velocity":44,"Duration":413754,"SoundDuration":413754,"Delta":57211344},{"NoteNumber":77,"Velocity":52,"Duration":388469,"SoundDuration":388469,"Delta":57211344},{"NoteNumber":65,"Velocity":41,"Duration":413754,"SoundDuration":413754,"Delta":57211344},{"NoteNumber":68,"Velocity":44,"Duration":386863,"SoundDuration":386863,"Delta":57763017},{"NoteNumber":70,"Velocity":44,"Duration":386863,"SoundDuration":386863,"Delta":57763017},{"NoteNumber":77,"Velocity":52,"Duration":363221,"SoundDuration":363221,"Delta":57763017},{"NoteNumber":62,"Velocity":34,"Duration":386863,"SoundDuration":386863,"Delta":57763017},{"NoteNumber":65,"Velocity":41,"Duration":386863,"SoundDuration":386863,"Delta":57763017},{"NoteNumber":70,"Velocity":39,"Duration":602771,"SoundDuration":602771,"Delta":58278835},{"NoteNumber":68,"Velocity":39,"Duration":602771,"SoundDuration":602771,"Delta":58278835},{"NoteNumber":75,"Velocity":47,"Duration":60817,"SoundDuration":60817,"Delta":58278835},{"NoteNumber":58,"Velocity":34,"Duration":602771,"SoundDuration":602771,"Delta":58278835},{"NoteNumber":65,"Velocity":41,"Duration":602771,"SoundDuration":602771,"Delta":58278835},{"NoteNumber":77,"Velocity":47,"Duration":60817,"SoundDuration":60817,"Delta":58339652},{"NoteNumber":75,"Velocity":70,"Duration":314135,"SoundDuration":314135,"Delta":58400470},{"NoteNumber":74,"Velocity":58,"Duration":167000,"SoundDuration":167000,"Delta":58714606},{"NoteNumber":70,"Velocity":56,"Duration":544588,"SoundDuration":544588,"Delta":58881606},{"NoteNumber":67,"Velocity":56,"Duration":544588,"SoundDuration":544588,"Delta":58881606},{"NoteNumber":79,"Velocity":66,"Duration":958115,"SoundDuration":958115,"Delta":58881606},{"NoteNumber":63,"Velocity":52,"Duration":544588,"SoundDuration":544588,"Delta":58881606},{"NoteNumber":74,"Velocity":44,"Duration":551369,"SoundDuration":551369,"Delta":59426195},{"NoteNumber":68,"Velocity":36,"Duration":551369,"SoundDuration":551369,"Delta":59426195},{"NoteNumber":59,"Velocity":30,"Duration":551369,"SoundDuration":551369,"Delta":59426195},{"NoteNumber":65,"Velocity":36,"Duration":551369,"SoundDuration":551369,"Delta":59426195},{"NoteNumber":62,"Velocity":30,"Duration":551369,"SoundDuration":551369,"Delta":59426195},{"NoteNumber":77,"Velocity":55,"Duration":137842,"SoundDuration":137842,"Delta":59839722},{"NoteNumber":67,"Velocity":56,"Duration":551369,"SoundDuration":551369,"Delta":59977564},{"NoteNumber":75,"Velocity":48,"Duration":551369,"SoundDuration":551369,"Delta":59977564},{"NoteNumber":60,"Velocity":44,"Duration":551369,"SoundDuration":551369,"Delta":59977564},{"NoteNumber":63,"Velocity":52,"Duration":551369,"SoundDuration":551369,"Delta":59977564},{"NoteNumber":65,"Velocity":53,"Duration":407313,"SoundDuration":407313,"Delta":60528933},{"NoteNumber":68,"Velocity":46,"Duration":549723,"SoundDuration":549723,"Delta":60528933},{"NoteNumber":74,"Velocity":63,"Duration":407313,"SoundDuration":407313,"Delta":60528933},{"NoteNumber":53,"Velocity":43,"Duration":549723,"SoundDuration":549723,"Delta":60528933},{"NoteNumber":63,"Velocity":46,"Duration":142409,"SoundDuration":142409,"Delta":60936247},{"NoteNumber":72,"Velocity":54,"Duration":142409,"SoundDuration":142409,"Delta":60936247},{"NoteNumber":62,"Velocity":50,"Duration":551673,"SoundDuration":551673,"Delta":61078656},{"NoteNumber":67,"Velocity":50,"Duration":551673,"SoundDuration":551673,"Delta":61078656},{"NoteNumber":71,"Velocity":59,"Duration":551673,"SoundDuration":551673,"Delta":61078656},{"NoteNumber":55,"Velocity":48,"Duration":551673,"SoundDuration":551673,"Delta":61078656},{"NoteNumber":60,"Velocity":52,"Duration":413754,"SoundDuration":413754,"Delta":61630329},{"NoteNumber":67,"Velocity":52,"Duration":413754,"SoundDuration":413754,"Delta":61630329},{"NoteNumber":69,"Velocity":61,"Duration":413754,"SoundDuration":413754,"Delta":61630329},{"NoteNumber":55,"Velocity":49,"Duration":413754,"SoundDuration":413754,"Delta":61630329},{"NoteNumber":62,"Velocity":42,"Duration":137918,"SoundDuration":137918,"Delta":62044084},{"NoteNumber":67,"Velocity":42,"Duration":137918,"SoundDuration":137918,"Delta":62044084},{"NoteNumber":71,"Velocity":50,"Duration":137918,"SoundDuration":137918,"Delta":62044084},{"NoteNumber":53,"Velocity":34,"Duration":137918,"SoundDuration":137918,"Delta":62044084},{"NoteNumber":55,"Velocity":40,"Duration":137918,"SoundDuration":137918,"Delta":62044084},{"NoteNumber":63,"Velocity":57,"Duration":563538,"SoundDuration":563538,"Delta":62182002},{"NoteNumber":67,"Velocity":57,"Duration":563538,"SoundDuration":563538,"Delta":62182002},{"NoteNumber":72,"Velocity":68,"Duration":563538,"SoundDuration":563538,"Delta":62182002},{"NoteNumber":51,"Velocity":45,"Duration":563538,"SoundDuration":563538,"Delta":62182002},{"NoteNumber":55,"Velocity":53,"Duration":563538,"SoundDuration":563538,"Delta":62182002},{"NoteNumber":67,"Velocity":59,"Duration":422654,"SoundDuration":422654,"Delta":62745541},{"NoteNumber":77,"Velocity":78,"Duration":422654,"SoundDuration":422654,"Delta":62745541},{"NoteNumber":50,"Velocity":46,"Duration":422654,"SoundDuration":422654,"Delta":62745541},{"NoteNumber":55,"Velocity":46,"Duration":422654,"SoundDuration":422654,"Delta":62745541},{"NoteNumber":59,"Velocity":55,"Duration":422654,"SoundDuration":422654,"Delta":62745541},{"NoteNumber":67,"Velocity":60,"Duration":148045,"SoundDuration":148045,"Delta":63168195},{"NoteNumber":75,"Velocity":71,"Duration":148045,"SoundDuration":148045,"Delta":63168195},{"NoteNumber":60,"Velocity":56,"Duration":148045,"SoundDuration":148045,"Delta":63168195},{"NoteNumber":55,"Velocity":47,"Duration":148045,"SoundDuration":148045,"Delta":63168195},{"NoteNumber":48,"Velocity":47,"Duration":148045,"SoundDuration":148045,"Delta":63168195},{"NoteNumber":67,"Velocity":71,"Duration":1776548,"SoundDuration":1776548,"Delta":63316241},{"NoteNumber":74,"Velocity":84,"Duration":1776548,"SoundDuration":1776548,"Delta":63316241},{"NoteNumber":55,"Velocity":55,"Duration":1776548,"SoundDuration":1776548,"Delta":63316241},{"NoteNumber":59,"Velocity":64,"Duration":1776548,"SoundDuration":1776548,"Delta":63316241},{"NoteNumber":65,"Velocity":70,"Duration":276985,"SoundDuration":276985,"Delta":65092790},{"NoteNumber":70,"Velocity":70,"Duration":276985,"SoundDuration":276985,"Delta":65092790},{"NoteNumber":74,"Velocity":83,"Duration":276985,"SoundDuration":276985,"Delta":65092790},{"NoteNumber":34,"Velocity":56,"Duration":275836,"SoundDuration":275836,"Delta":65092790},{"NoteNumber":46,"Velocity":66,"Duration":275836,"SoundDuration":275836,"Delta":65092790},{"NoteNumber":67,"Velocity":67,"Duration":68959,"SoundDuration":68959,"Delta":65506545},{"NoteNumber":70,"Velocity":67,"Duration":68959,"SoundDuration":68959,"Delta":65506545},{"NoteNumber":75,"Velocity":79,"Duration":68959,"SoundDuration":68959,"Delta":65506545},{"NoteNumber":46,"Velocity":60,"Duration":68959,"SoundDuration":68959,"Delta":65506545},{"NoteNumber":34,"Velocity":52,"Duration":68959,"SoundDuration":68959,"Delta":65506545},{"NoteNumber":68,"Velocity":64,"Duration":276985,"SoundDuration":276985,"Delta":65644463},{"NoteNumber":70,"Velocity":81,"Duration":276985,"SoundDuration":276985,"Delta":65644463},{"NoteNumber":77,"Velocity":96,"Duration":276985,"SoundDuration":276985,"Delta":65644463},{"NoteNumber":46,"Velocity":76,"Duration":275836,"SoundDuration":275836,"Delta":65644463},{"NoteNumber":34,"Velocity":64,"Duration":275836,"SoundDuration":275836,"Delta":65644463},{"NoteNumber":68,"Velocity":60,"Duration":276985,"SoundDuration":276985,"Delta":66196136},{"NoteNumber":70,"Velocity":75,"Duration":276985,"SoundDuration":276985,"Delta":66196136},{"NoteNumber":77,"Velocity":88,"Duration":276985,"SoundDuration":276985,"Delta":66196136},{"NoteNumber":34,"Velocity":57,"Duration":275836,"SoundDuration":275836,"Delta":66196136},{"NoteNumber":46,"Velocity":69,"Duration":275836,"SoundDuration":275836,"Delta":66196136},{"NoteNumber":68,"Velocity":60,"Duration":274087,"SoundDuration":274087,"Delta":66747809},{"NoteNumber":70,"Velocity":75,"Duration":274087,"SoundDuration":274087,"Delta":66747809},{"NoteNumber":77,"Velocity":88,"Duration":274087,"SoundDuration":274087,"Delta":66747809},{"NoteNumber":46,"Velocity":71,"Duration":272950,"SoundDuration":272950,"Delta":66747809},{"NoteNumber":34,"Velocity":59,"Duration":272950,"SoundDuration":272950,"Delta":66747809},{"NoteNumber":67,"Velocity":58,"Duration":276985,"SoundDuration":276985,"Delta":67293710},{"NoteNumber":70,"Velocity":73,"Duration":276985,"SoundDuration":276985,"Delta":67293710},{"NoteNumber":75,"Velocity":86,"Duration":276985,"SoundDuration":276985,"Delta":67293710},{"NoteNumber":46,"Velocity":86,"Duration":275836,"SoundDuration":275836,"Delta":67293710},{"NoteNumber":34,"Velocity":73,"Duration":275836,"SoundDuration":275836,"Delta":67293710},{"NoteNumber":65,"Velocity":60,"Duration":68959,"SoundDuration":68959,"Delta":67707465},{"NoteNumber":70,"Velocity":76,"Duration":68959,"SoundDuration":68959,"Delta":67707465},{"NoteNumber":74,"Velocity":89,"Duration":68959,"SoundDuration":68959,"Delta":67707465},{"NoteNumber":34,"Velocity":59,"Duration":68959,"SoundDuration":68959,"Delta":67707465},{"NoteNumber":46,"Velocity":71,"Duration":68959,"SoundDuration":68959,"Delta":67707465},{"NoteNumber":70,"Velocity":84,"Duration":945415,"SoundDuration":945415,"Delta":67845383},{"NoteNumber":79,"Velocity":99,"Duration":945415,"SoundDuration":945415,"Delta":67845383},{"NoteNumber":34,"Velocity":67,"Duration":137918,"SoundDuration":137918,"Delta":67845383},{"NoteNumber":46,"Velocity":79,"Duration":137918,"SoundDuration":137918,"Delta":67845383},{"NoteNumber":36,"Velocity":76,"Duration":136986,"SoundDuration":136986,"Delta":68379840},{"NoteNumber":48,"Velocity":91,"Duration":136986,"SoundDuration":136986,"Delta":68379840},{"NoteNumber":68,"Velocity":70,"Duration":136986,"SoundDuration":136986,"Delta":68790799},{"NoteNumber":70,"Velocity":70,"Duration":136986,"SoundDuration":136986,"Delta":68790799},{"NoteNumber":77,"Velocity":83,"Duration":136986,"SoundDuration":136986,"Delta":68790799},{"NoteNumber":38,"Velocity":60,"Duration":136986,"SoundDuration":136986,"Delta":68790799},{"NoteNumber":50,"Velocity":74,"Duration":136986,"SoundDuration":136986,"Delta":68790799},{"NoteNumber":67,"Velocity":62,"Duration":273972,"SoundDuration":273972,"Delta":68927785},{"NoteNumber":70,"Velocity":62,"Duration":273972,"SoundDuration":273972,"Delta":68927785},{"NoteNumber":75,"Velocity":74,"Duration":273972,"SoundDuration":273972,"Delta":68927785},{"NoteNumber":39,"Velocity":71,"Duration":273972,"SoundDuration":273972,"Delta":68927785},{"NoteNumber":51,"Velocity":84,"Duration":273972,"SoundDuration":273972,"Delta":68927785},{"NoteNumber":65,"Velocity":77,"Duration":272673,"SoundDuration":272673,"Delta":69475730},{"NoteNumber":68,"Velocity":77,"Duration":272673,"SoundDuration":272673,"Delta":69475730},{"NoteNumber":74,"Velocity":92,"Duration":272673,"SoundDuration":272673,"Delta":69475730},{"NoteNumber":41,"Velocity":57,"Duration":271542,"SoundDuration":271542,"Delta":69475730},{"NoteNumber":53,"Velocity":67,"Duration":271542,"SoundDuration":271542,"Delta":69475730},{"NoteNumber":63,"Velocity":67,"Duration":71204,"SoundDuration":71204,"Delta":69883044},{"NoteNumber":68,"Velocity":67,"Duration":71204,"SoundDuration":71204,"Delta":69883044},{"NoteNumber":72,"Velocity":79,"Duration":71204,"SoundDuration":71204,"Delta":69883044},{"NoteNumber":41,"Velocity":44,"Duration":71204,"SoundDuration":71204,"Delta":69883044},{"NoteNumber":53,"Velocity":53,"Duration":71204,"SoundDuration":71204,"Delta":69883044},{"NoteNumber":62,"Velocity":73,"Duration":275836,"SoundDuration":275836,"Delta":70025453},{"NoteNumber":67,"Velocity":73,"Duration":275836,"SoundDuration":275836,"Delta":70025453},{"NoteNumber":71,"Velocity":86,"Duration":275836,"SoundDuration":275836,"Delta":70025453},{"NoteNumber":55,"Velocity":66,"Duration":275836,"SoundDuration":275836,"Delta":70025453},{"NoteNumber":43,"Velocity":56,"Duration":275836,"SoundDuration":275836,"Delta":70025453},{"NoteNumber":60,"Velocity":70,"Duration":276985,"SoundDuration":276985,"Delta":70577126},{"NoteNumber":67,"Velocity":70,"Duration":276985,"SoundDuration":276985,"Delta":70577126},{"NoteNumber":69,"Velocity":83,"Duration":276985,"SoundDuration":276985,"Delta":70577126},{"NoteNumber":55,"Velocity":66,"Duration":275836,"SoundDuration":275836,"Delta":70577126},{"NoteNumber":62,"Velocity":57,"Duration":68959,"SoundDuration":68959,"Delta":70990881},{"NoteNumber":67,"Velocity":57,"Duration":68959,"SoundDuration":68959,"Delta":70990881},{"NoteNumber":71,"Velocity":67,"Duration":68959,"SoundDuration":68959,"Delta":70990881},{"NoteNumber":55,"Velocity":53,"Duration":68959,"SoundDuration":68959,"Delta":70990881},{"NoteNumber":53,"Velocity":44,"Duration":68959,"SoundDuration":68959,"Delta":70990881},{"NoteNumber":63,"Velocity":76,"Duration":281769,"SoundDuration":281769,"Delta":71128799},{"NoteNumber":67,"Velocity":76,"Duration":281769,"SoundDuration":281769,"Delta":71128799},{"NoteNumber":72,"Velocity":90,"Duration":281769,"SoundDuration":281769,"Delta":71128799},{"NoteNumber":51,"Velocity":59,"Duration":281769,"SoundDuration":281769,"Delta":71128799},{"NoteNumber":55,"Velocity":71,"Duration":281769,"SoundDuration":281769,"Delta":71128799},{"NoteNumber":67,"Velocity":84,"Duration":284198,"SoundDuration":284198,"Delta":71730330},{"NoteNumber":75,"Velocity":99,"Duration":284198,"SoundDuration":284198,"Delta":71730330},{"NoteNumber":43,"Velocity":79,"Duration":283018,"SoundDuration":283018,"Delta":71730330},{"NoteNumber":31,"Velocity":67,"Duration":283018,"SoundDuration":283018,"Delta":71730330},{"NoteNumber":65,"Velocity":70,"Duration":74022,"SoundDuration":74022,"Delta":72154858},{"NoteNumber":67,"Velocity":70,"Duration":74022,"SoundDuration":74022,"Delta":72154858},{"NoteNumber":74,"Velocity":83,"Duration":74022,"SoundDuration":74022,"Delta":72154858},{"NoteNumber":43,"Velocity":66,"Duration":74022,"SoundDuration":74022,"Delta":72154858},{"NoteNumber":31,"Velocity":56,"Duration":74022,"SoundDuration":74022,"Delta":72154858},{"NoteNumber":63,"Velocity":81,"Duration":1776549,"SoundDuration":1776549,"Delta":72302904},{"NoteNumber":67,"Velocity":81,"Duration":1776549,"SoundDuration":1776549,"Delta":72302904},{"NoteNumber":72,"Velocity":96,"Duration":1776549,"SoundDuration":1776549,"Delta":72302904},{"NoteNumber":43,"Velocity":83,"Duration":1776549,"SoundDuration":1776549,"Delta":72302904},{"NoteNumber":36,"Velocity":70,"Duration":1776549,"SoundDuration":1776549,"Delta":72302904},{"NoteNumber":75,"Velocity":78,"Duration":424528,"SoundDuration":424528,"Delta":74079453},{"NoteNumber":74,"Velocity":70,"Duration":148045,"SoundDuration":148045,"Delta":74503982},{"NoteNumber":63,"Velocity":71,"Duration":1776549,"SoundDuration":1776549,"Delta":74652027},{"NoteNumber":68,"Velocity":71,"Duration":1776549,"SoundDuration":1776549,"Delta":74652027},{"NoteNumber":72,"Velocity":83,"Duration":1776549,"SoundDuration":1776549,"Delta":74652027},{"NoteNumber":44,"Velocity":61,"Duration":1776549,"SoundDuration":1776549,"Delta":74652027},{"NoteNumber":51,"Velocity":61,"Duration":1776549,"SoundDuration":1776549,"Delta":74652027},{"NoteNumber":56,"Velocity":72,"Duration":1776549,"SoundDuration":1776549,"Delta":74652027},{"NoteNumber":72,"Velocity":69,"Duration":79516,"SoundDuration":79516,"Delta":76428576},{"NoteNumber":75,"Velocity":78,"Duration":361683,"SoundDuration":361683,"Delta":76508093},{"NoteNumber":74,"Velocity":70,"Duration":148045,"SoundDuration":148045,"Delta":76869776},{"NoteNumber":67,"Velocity":71,"Duration":1776549,"SoundDuration":1776549,"Delta":77017822},{"NoteNumber":72,"Velocity":83,"Duration":1776549,"SoundDuration":1776549,"Delta":77017822},{"NoteNumber":48,"Velocity":61,"Duration":1776549,"SoundDuration":1776549,"Delta":77017822},{"NoteNumber":39,"Velocity":61,"Duration":1776549,"SoundDuration":1776549,"Delta":77017822},{"NoteNumber":51,"Velocity":72,"Duration":1776549,"SoundDuration":1776549,"Delta":77017822},{"NoteNumber":74,"Velocity":78,"Duration":407313,"SoundDuration":407313,"Delta":78794371},{"NoteNumber":48,"Velocity":48,"Duration":549723,"SoundDuration":549723,"Delta":78794371},{"NoteNumber":60,"Velocity":57,"Duration":549723,"SoundDuration":549723,"Delta":78794371},{"NoteNumber":75,"Velocity":67,"Duration":142409,"SoundDuration":142409,"Delta":79201685},{"NoteNumber":68,"Velocity":62,"Duration":551672,"SoundDuration":551672,"Delta":79344094},{"NoteNumber":72,"Velocity":62,"Duration":551672,"SoundDuration":551672,"Delta":79344094},{"NoteNumber":77,"Velocity":73,"Duration":551672,"SoundDuration":551672,"Delta":79344094},{"NoteNumber":53,"Velocity":56,"Duration":551672,"SoundDuration":551672,"Delta":79344094},{"NoteNumber":41,"Velocity":47,"Duration":551672,"SoundDuration":551672,"Delta":79344094},{"NoteNumber":67,"Velocity":59,"Duration":276985,"SoundDuration":276985,"Delta":79895767},{"NoteNumber":72,"Velocity":59,"Duration":276985,"SoundDuration":276985,"Delta":79895767},{"NoteNumber":75,"Velocity":70,"Duration":276985,"SoundDuration":276985,"Delta":79895767},{"NoteNumber":43,"Velocity":47,"Duration":275836,"SoundDuration":275836,"Delta":79895767},{"NoteNumber":55,"Velocity":56,"Duration":275836,"SoundDuration":275836,"Delta":79895767},{"NoteNumber":65,"Velocity":48,"Duration":68959,"SoundDuration":68959,"Delta":80309522},{"NoteNumber":74,"Velocity":57,"Duration":68959,"SoundDuration":68959,"Delta":80309522},{"NoteNumber":44,"Velocity":38,"Duration":68959,"SoundDuration":68959,"Delta":80309522},{"NoteNumber":56,"Velocity":45,"Duration":68959,"SoundDuration":68959,"Delta":80309522},{"NoteNumber":63,"Velocity":64,"Duration":583276,"SoundDuration":583276,"Delta":80447440},{"NoteNumber":72,"Velocity":76,"Duration":583276,"SoundDuration":583276,"Delta":80447440},{"NoteNumber":55,"Velocity":60,"Duration":583276,"SoundDuration":583276,"Delta":80447440},{"NoteNumber":43,"Velocity":51,"Duration":583276,"SoundDuration":583276,"Delta":80447440},{"NoteNumber":67,"Velocity":60,"Duration":572574,"SoundDuration":572574,"Delta":81030717},{"NoteNumber":62,"Velocity":60,"Duration":575041,"SoundDuration":575041,"Delta":81030717},{"NoteNumber":71,"Velocity":71,"Duration":575041,"SoundDuration":575041,"Delta":81030717},{"NoteNumber":43,"Velocity":56,"Duration":572574,"SoundDuration":572574,"Delta":81030717},{"NoteNumber":31,"Velocity":47,"Duration":572574,"SoundDuration":572574,"Delta":81030717},{"NoteNumber":63,"Velocity":57,"Duration":1776549,"SoundDuration":1776549,"Delta":81603292},{"NoteNumber":67,"Velocity":57,"Duration":1776549,"SoundDuration":1776549,"Delta":81603292},{"NoteNumber":72,"Velocity":68,"Duration":1776549,"SoundDuration":1776549,"Delta":81603292},{"NoteNumber":48,"Velocity":59,"Duration":1776549,"SoundDuration":1776549,"Delta":81603292},{"NoteNumber":43,"Velocity":50,"Duration":1776549,"SoundDuration":1776549,"Delta":81603292},{"NoteNumber":36,"Velocity":50,"Duration":1776549,"SoundDuration":1776549,"Delta":81603292},{"NoteNumber":75,"Velocity":60,"Duration":424528,"SoundDuration":424528,"Delta":83379841},{"NoteNumber":74,"Velocity":54,"Duration":163363,"SoundDuration":163363,"Delta":83804369},{"NoteNumber":63,"Velocity":55,"Duration":1776549,"SoundDuration":1776549,"Delta":83967732},{"NoteNumber":68,"Velocity":55,"Duration":1776549,"SoundDuration":1776549,"Delta":83967732},{"NoteNumber":72,"Velocity":65,"Duration":1776549,"SoundDuration":1776549,"Delta":83967732},{"NoteNumber":44,"Velocity":47,"Duration":1776549,"SoundDuration":1776549,"Delta":83967732},{"NoteNumber":51,"Velocity":47,"Duration":1776549,"SoundDuration":1776549,"Delta":83967732},{"NoteNumber":56,"Velocity":56,"Duration":1776549,"SoundDuration":1776549,"Delta":83967732},{"NoteNumber":75,"Velocity":59,"Duration":424528,"SoundDuration":424528,"Delta":85744281},{"NoteNumber":74,"Velocity":52,"Duration":167000,"SoundDuration":167000,"Delta":86168810},{"NoteNumber":67,"Velocity":51,"Duration":1776549,"SoundDuration":1776549,"Delta":86335810},{"NoteNumber":72,"Velocity":61,"Duration":1776549,"SoundDuration":1776549,"Delta":86335810},{"NoteNumber":39,"Velocity":50,"Duration":1776549,"SoundDuration":1776549,"Delta":86335810},{"NoteNumber":48,"Velocity":50,"Duration":1776549,"SoundDuration":1776549,"Delta":86335810},{"NoteNumber":51,"Velocity":59,"Duration":1776549,"SoundDuration":1776549,"Delta":86335810},{"NoteNumber":73,"Velocity":54,"Duration":407313,"SoundDuration":407313,"Delta":88112359},{"NoteNumber":75,"Velocity":46,"Duration":142409,"SoundDuration":142409,"Delta":88519673},{"NoteNumber":73,"Velocity":40,"Duration":65036,"SoundDuration":65036,"Delta":88662083},{"NoteNumber":68,"Velocity":40,"Duration":543599,"SoundDuration":543599,"Delta":88662083},{"NoteNumber":49,"Velocity":39,"Duration":543599,"SoundDuration":543599,"Delta":88662083},{"NoteNumber":75,"Velocity":43,"Duration":65036,"SoundDuration":65036,"Delta":88727119},{"NoteNumber":77,"Velocity":51,"Duration":413526,"SoundDuration":413526,"Delta":88792155},{"NoteNumber":68,"Velocity":41,"Duration":276833,"SoundDuration":276833,"Delta":89205682},{"NoteNumber":75,"Velocity":49,"Duration":276833,"SoundDuration":276833,"Delta":89205682},{"NoteNumber":51,"Velocity":39,"Duration":275684,"SoundDuration":275684,"Delta":89205682},{"NoteNumber":68,"Velocity":33,"Duration":68921,"SoundDuration":68921,"Delta":89619209},{"NoteNumber":73,"Velocity":39,"Duration":68921,"SoundDuration":68921,"Delta":89619209},{"NoteNumber":53,"Velocity":31,"Duration":68921,"SoundDuration":68921,"Delta":89619209},{"NoteNumber":68,"Velocity":44,"Duration":281769,"SoundDuration":281769,"Delta":89757051},{"NoteNumber":72,"Velocity":53,"Duration":281769,"SoundDuration":281769,"Delta":89757051},{"NoteNumber":51,"Velocity":42,"Duration":281769,"SoundDuration":281769,"Delta":89757051},{"NoteNumber":63,"Velocity":37,"Duration":283018,"SoundDuration":283018,"Delta":90340328},{"NoteNumber":67,"Velocity":37,"Duration":283018,"SoundDuration":283018,"Delta":90340328},{"NoteNumber":61,"Velocity":37,"Duration":284198,"SoundDuration":284198,"Delta":90340328},{"NoteNumber":70,"Velocity":44,"Duration":284198,"SoundDuration":284198,"Delta":90340328},{"NoteNumber":51,"Velocity":35,"Duration":283018,"SoundDuration":283018,"Delta":90340328},{"NoteNumber":39,"Velocity":28,"Duration":283018,"SoundDuration":283018,"Delta":90340328},{"NoteNumber":60,"Velocity":39,"Duration":1164593,"SoundDuration":1164593,"Delta":90912902},{"NoteNumber":63,"Velocity":39,"Duration":1164593,"SoundDuration":1164593,"Delta":90912902},{"NoteNumber":68,"Velocity":47,"Duration":1164593,"SoundDuration":1164593,"Delta":90912902},{"NoteNumber":44,"Velocity":40,"Duration":197394,"SoundDuration":197394,"Delta":90912902},{"NoteNumber":48,"Velocity":33,"Duration":197394,"SoundDuration":197394,"Delta":91110297},{"NoteNumber":51,"Velocity":33,"Duration":197394,"SoundDuration":197394,"Delta":91307691},{"NoteNumber":48,"Velocity":40,"Duration":190803,"SoundDuration":190803,"Delta":91505085},{"NoteNumber":51,"Velocity":29,"Duration":190803,"SoundDuration":190803,"Delta":91695889},{"NoteNumber":56,"Velocity":30,"Duration":190803,"SoundDuration":190803,"Delta":91886692},{"NoteNumber":47,"Velocity":40,"Duration":190803,"SoundDuration":190803,"Delta":92077495},{"NoteNumber":50,"Velocity":33,"Duration":190803,"SoundDuration":190803,"Delta":92268299},{"NoteNumber":56,"Velocity":33,"Duration":190803,"SoundDuration":190803,"Delta":92459102},{"NoteNumber":68,"Velocity":53,"Duration":413754,"SoundDuration":413754,"Delta":92649905},{"NoteNumber":48,"Velocity":40,"Duration":183891,"SoundDuration":183891,"Delta":92649905},{"NoteNumber":51,"Velocity":35,"Duration":183891,"SoundDuration":183891,"Delta":92833796},{"NoteNumber":56,"Velocity":35,"Duration":199315,"SoundDuration":199315,"Delta":93017687},{"NoteNumber":72,"Velocity":47,"Duration":153342,"SoundDuration":153342,"Delta":93063660},{"NoteNumber":75,"Velocity":57,"Duration":423250,"SoundDuration":423250,"Delta":93217003},{"NoteNumber":44,"Velocity":40,"Duration":188111,"SoundDuration":188111,"Delta":93217003},{"NoteNumber":48,"Velocity":33,"Duration":188111,"SoundDuration":188111,"Delta":93405114},{"NoteNumber":56,"Velocity":33,"Duration":188111,"SoundDuration":188111,"Delta":93593226},{"NoteNumber":75,"Velocity":51,"Duration":409761,"SoundDuration":409761,"Delta":93781337},{"NoteNumber":48,"Velocity":40,"Duration":182116,"SoundDuration":182116,"Delta":93781337},{"NoteNumber":51,"Velocity":29,"Duration":182116,"SoundDuration":182116,"Delta":93963453},{"NoteNumber":56,"Velocity":30,"Duration":182116,"SoundDuration":182116,"Delta":94145570},{"NoteNumber":75,"Velocity":53,"Duration":409425,"SoundDuration":409425,"Delta":94327686},{"NoteNumber":47,"Velocity":40,"Duration":181967,"SoundDuration":181967,"Delta":94327686},{"NoteNumber":50,"Velocity":33,"Duration":181967,"SoundDuration":181967,"Delta":94509653},{"NoteNumber":56,"Velocity":33,"Duration":181967,"SoundDuration":181967,"Delta":94691620},{"NoteNumber":75,"Velocity":52,"Duration":426107,"SoundDuration":426107,"Delta":94873587},{"NoteNumber":48,"Velocity":40,"Duration":183891,"SoundDuration":183891,"Delta":94873587},{"NoteNumber":51,"Velocity":35,"Duration":192125,"SoundDuration":192125,"Delta":95057478},{"NoteNumber":56,"Velocity":35,"Duration":200360,"SoundDuration":200360,"Delta":95249604},{"NoteNumber":77,"Velocity":58,"Duration":1091082,"SoundDuration":1091082,"Delta":95449964},{"NoteNumber":49,"Velocity":40,"Duration":182948,"SoundDuration":182948,"Delta":95449964},{"NoteNumber":53,"Velocity":33,"Duration":182949,"SoundDuration":182949,"Delta":95632913},{"NoteNumber":56,"Velocity":33,"Duration":182948,"SoundDuration":182948,"Delta":95815862},{"NoteNumber":49,"Velocity":40,"Duration":175715,"SoundDuration":175715,"Delta":95998811},{"NoteNumber":55,"Velocity":29,"Duration":175715,"SoundDuration":175715,"Delta":96174527},{"NoteNumber":58,"Velocity":30,"Duration":190803,"SoundDuration":190803,"Delta":96350243},{"NoteNumber":75,"Velocity":55,"Duration":1098984,"SoundDuration":1098984,"Delta":96541047},{"NoteNumber":48,"Velocity":40,"Duration":183789,"SoundDuration":183789,"Delta":96541047},{"NoteNumber":56,"Velocity":33,"Duration":183789,"SoundDuration":183789,"Delta":96724836},{"NoteNumber":60,"Velocity":33,"Duration":183789,"SoundDuration":183789,"Delta":96908626},{"NoteNumber":48,"Velocity":40,"Duration":178859,"SoundDuration":178859,"Delta":97092416},{"NoteNumber":51,"Velocity":35,"Duration":178858,"SoundDuration":178858,"Delta":97271275},{"NoteNumber":56,"Velocity":35,"Duration":189897,"SoundDuration":189897,"Delta":97450134},{"NoteNumber":73,"Velocity":58,"Duration":1093083,"SoundDuration":1093083,"Delta":97640031},{"NoteNumber":46,"Velocity":40,"Duration":182948,"SoundDuration":182948,"Delta":97640031},{"NoteNumber":51,"Velocity":33,"Duration":182949,"SoundDuration":182949,"Delta":97822980},{"NoteNumber":56,"Velocity":33,"Duration":182948,"SoundDuration":182948,"Delta":98005929},{"NoteNumber":46,"Velocity":40,"Duration":178062,"SoundDuration":178062,"Delta":98188878},{"NoteNumber":51,"Velocity":29,"Duration":178062,"SoundDuration":178062,"Delta":98366941},{"NoteNumber":55,"Velocity":30,"Duration":188111,"SoundDuration":188111,"Delta":98545003},{"NoteNumber":72,"Velocity":52,"Duration":1095784,"SoundDuration":1095784,"Delta":98733115},{"NoteNumber":44,"Velocity":35,"Duration":182116,"SoundDuration":182116,"Delta":98733115},{"NoteNumber":51,"Velocity":28,"Duration":182116,"SoundDuration":182116,"Delta":98915231},{"NoteNumber":58,"Velocity":28,"Duration":182116,"SoundDuration":182116,"Delta":99097347},{"NoteNumber":44,"Velocity":35,"Duration":178859,"SoundDuration":178859,"Delta":99279464},{"NoteNumber":51,"Velocity":27,"Duration":178858,"SoundDuration":178858,"Delta":99458323},{"NoteNumber":56,"Velocity":35,"Duration":191717,"SoundDuration":191717,"Delta":99637182},{"NoteNumber":70,"Velocity":40,"Duration":548846,"SoundDuration":548846,"Delta":99828899},{"NoteNumber":49,"Velocity":30,"Duration":182948,"SoundDuration":182948,"Delta":99828899},{"NoteNumber":56,"Velocity":24,"Duration":182949,"SoundDuration":182949,"Delta":100011848},{"NoteNumber":58,"Velocity":24,"Duration":182948,"SoundDuration":182948,"Delta":100194797},{"NoteNumber":73,"Velocity":34,"Duration":548847,"SoundDuration":548847,"Delta":100377746},{"NoteNumber":53,"Velocity":32,"Duration":182949,"SoundDuration":182949,"Delta":100377746},{"NoteNumber":56,"Velocity":23,"Duration":182948,"SoundDuration":182948,"Delta":100560695},{"NoteNumber":61,"Velocity":24,"Duration":182949,"SoundDuration":182949,"Delta":100743644},{"NoteNumber":72,"Velocity":40,"Duration":556483,"SoundDuration":556483,"Delta":100926593},{"NoteNumber":51,"Velocity":30,"Duration":185494,"SoundDuration":185494,"Delta":100926593},{"NoteNumber":56,"Velocity":23,"Duration":185494,"SoundDuration":185494,"Delta":101112088},{"NoteNumber":60,"Velocity":23,"Duration":185494,"SoundDuration":185494,"Delta":101297582},{"NoteNumber":70,"Velocity":37,"Duration":564334,"SoundDuration":564334,"Delta":101483076},{"NoteNumber":51,"Velocity":29,"Duration":188111,"SoundDuration":188111,"Delta":101483076},{"NoteNumber":55,"Velocity":23,"Duration":188111,"SoundDuration":188111,"Delta":101671188},{"NoteNumber":58,"Velocity":23,"Duration":188111,"SoundDuration":188111,"Delta":101859299},{"NoteNumber":68,"Velocity":48,"Duration":1145054,"SoundDuration":1145054,"Delta":102047410},{"NoteNumber":44,"Velocity":33,"Duration":193573,"SoundDuration":193573,"Delta":102047410},{"NoteNumber":48,"Velocity":23,"Duration":193573,"SoundDuration":193573,"Delta":102240984},{"NoteNumber":56,"Velocity":23,"Duration":193573,"SoundDuration":193573,"Delta":102434557},{"NoteNumber":48,"Velocity":31,"Duration":188111,"SoundDuration":188111,"Delta":102628130},{"NoteNumber":51,"Velocity":25,"Duration":188111,"SoundDuration":188111,"Delta":102816242},{"NoteNumber":56,"Velocity":26,"Duration":188111,"SoundDuration":188111,"Delta":103004353},{"NoteNumber":47,"Velocity":40,"Duration":186358,"SoundDuration":186358,"Delta":103192464},{"NoteNumber":50,"Velocity":31,"Duration":186358,"SoundDuration":186358,"Delta":103378823},{"NoteNumber":56,"Velocity":31,"Duration":186358,"SoundDuration":186358,"Delta":103565182},{"NoteNumber":68,"Velocity":53,"Duration":413754,"SoundDuration":413754,"Delta":103751540},{"NoteNumber":48,"Velocity":40,"Duration":183891,"SoundDuration":183891,"Delta":103751540},{"NoteNumber":51,"Velocity":35,"Duration":183891,"SoundDuration":183891,"Delta":103935431},{"NoteNumber":56,"Velocity":35,"Duration":199315,"SoundDuration":199315,"Delta":104119322},{"NoteNumber":72,"Velocity":47,"Duration":153342,"SoundDuration":153342,"Delta":104165295},{"NoteNumber":75,"Velocity":57,"Duration":397385,"SoundDuration":397385,"Delta":104318638},{"NoteNumber":44,"Velocity":40,"Duration":188111,"SoundDuration":188111,"Delta":104318638},{"NoteNumber":48,"Velocity":33,"Duration":188111,"SoundDuration":188111,"Delta":104506749},{"NoteNumber":56,"Velocity":33,"Duration":188111,"SoundDuration":188111,"Delta":104694861},{"NoteNumber":63,"Velocity":42,"Duration":409761,"SoundDuration":409761,"Delta":104882972},{"NoteNumber":75,"Velocity":51,"Duration":409761,"SoundDuration":409761,"Delta":104882972},{"NoteNumber":48,"Velocity":40,"Duration":182116,"SoundDuration":182116,"Delta":104882972},{"NoteNumber":51,"Velocity":29,"Duration":182116,"SoundDuration":182116,"Delta":105065088},{"NoteNumber":56,"Velocity":30,"Duration":182116,"SoundDuration":182116,"Delta":105247205},{"NoteNumber":63,"Velocity":45,"Duration":409425,"SoundDuration":409425,"Delta":105429321},{"NoteNumber":75,"Velocity":53,"Duration":409425,"SoundDuration":409425,"Delta":105429321},{"NoteNumber":47,"Velocity":40,"Duration":181967,"SoundDuration":181967,"Delta":105429321},{"NoteNumber":50,"Velocity":33,"Duration":181967,"SoundDuration":181967,"Delta":105611288},{"NoteNumber":56,"Velocity":33,"Duration":181967,"SoundDuration":181967,"Delta":105793255},{"NoteNumber":63,"Velocity":44,"Duration":426107,"SoundDuration":426107,"Delta":105975222},{"NoteNumber":75,"Velocity":52,"Duration":426107,"SoundDuration":426107,"Delta":105975222},{"NoteNumber":48,"Velocity":40,"Duration":183891,"SoundDuration":183891,"Delta":105975222},{"NoteNumber":51,"Velocity":35,"Duration":192125,"SoundDuration":192125,"Delta":106159113},{"NoteNumber":56,"Velocity":35,"Duration":238012,"SoundDuration":238012,"Delta":106351239},{"NoteNumber":64,"Velocity":49,"Duration":1101496,"SoundDuration":1101496,"Delta":106589252},{"NoteNumber":76,"Velocity":58,"Duration":1101496,"SoundDuration":1101496,"Delta":106589252},{"NoteNumber":49,"Velocity":40,"Duration":183789,"SoundDuration":183789,"Delta":106589252},{"NoteNumber":52,"Velocity":33,"Duration":183789,"SoundDuration":183789,"Delta":106773041},{"NoteNumber":56,"Velocity":33,"Duration":183789,"SoundDuration":183789,"Delta":106956831},{"NoteNumber":49,"Velocity":40,"Duration":179662,"SoundDuration":179662,"Delta":107140621},{"NoteNumber":52,"Velocity":29,"Duration":179662,"SoundDuration":179662,"Delta":107320283},{"NoteNumber":58,"Velocity":30,"Duration":190803,"SoundDuration":190803,"Delta":107499945},{"NoteNumber":63,"Velocity":46,"Duration":1098984,"SoundDuration":1098984,"Delta":107690749},{"NoteNumber":75,"Velocity":55,"Duration":1098984,"SoundDuration":1098984,"Delta":107690749},{"NoteNumber":47,"Velocity":40,"Duration":183789,"SoundDuration":183789,"Delta":107690749},{"NoteNumber":54,"Velocity":33,"Duration":183789,"SoundDuration":183789,"Delta":107874538},{"NoteNumber":59,"Velocity":33,"Duration":183789,"SoundDuration":183789,"Delta":108058328},{"NoteNumber":47,"Velocity":40,"Duration":178859,"SoundDuration":178859,"Delta":108242118},{"NoteNumber":54,"Velocity":35,"Duration":178858,"SoundDuration":178858,"Delta":108420977},{"NoteNumber":59,"Velocity":35,"Duration":189897,"SoundDuration":189897,"Delta":108599836},{"NoteNumber":73,"Velocity":58,"Duration":1093083,"SoundDuration":1093083,"Delta":108789733},{"NoteNumber":52,"Velocity":40,"Duration":182948,"SoundDuration":182948,"Delta":108789733},{"NoteNumber":56,"Velocity":33,"Duration":182949,"SoundDuration":182949,"Delta":108972682},{"NoteNumber":61,"Velocity":33,"Duration":182948,"SoundDuration":182948,"Delta":109155631},{"NoteNumber":52,"Velocity":40,"Duration":178062,"SoundDuration":178062,"Delta":109338580},{"NoteNumber":54,"Velocity":29,"Duration":178062,"SoundDuration":178062,"Delta":109516643},{"NoteNumber":58,"Velocity":30,"Duration":188111,"SoundDuration":188111,"Delta":109694705},{"NoteNumber":71,"Velocity":52,"Duration":814637,"SoundDuration":814637,"Delta":109882817},{"NoteNumber":51,"Velocity":35,"Duration":182116,"SoundDuration":182116,"Delta":109882817},{"NoteNumber":54,"Velocity":28,"Duration":182116,"SoundDuration":182116,"Delta":110064933},{"NoteNumber":59,"Velocity":28,"Duration":182116,"SoundDuration":182116,"Delta":110247049},{"NoteNumber":51,"Velocity":35,"Duration":178859,"SoundDuration":178859,"Delta":110429166},{"NoteNumber":55,"Velocity":27,"Duration":178859,"SoundDuration":178859,"Delta":110608025},{"NoteNumber":70,"Velocity":45,"Duration":268288,"SoundDuration":268288,"Delta":110697454},{"NoteNumber":61,"Velocity":35,"Duration":178858,"SoundDuration":178858,"Delta":110786884},{"NoteNumber":68,"Velocity":40,"Duration":538409,"SoundDuration":538409,"Delta":110965743},{"NoteNumber":52,"Velocity":30,"Duration":182948,"SoundDuration":182948,"Delta":110965743},{"NoteNumber":56,"Velocity":24,"Duration":182949,"SoundDuration":182949,"Delta":111148692},{"NoteNumber":59,"Velocity":24,"Duration":172511,"SoundDuration":172511,"Delta":111331641},{"NoteNumber":68,"Velocity":33,"Duration":67373,"SoundDuration":67373,"Delta":111504153},{"NoteNumber":56,"Velocity":32,"Duration":179662,"SoundDuration":179662,"Delta":111504153},{"NoteNumber":76,"Velocity":52,"Duration":471613,"SoundDuration":471613,"Delta":111571526},{"NoteNumber":59,"Velocity":23,"Duration":179662,"SoundDuration":179662,"Delta":111683815},{"NoteNumber":64,"Velocity":24,"Duration":179662,"SoundDuration":179662,"Delta":111863477},{"NoteNumber":75,"Velocity":46,"Duration":556483,"SoundDuration":556483,"Delta":112043140},{"NoteNumber":54,"Velocity":30,"Duration":185494,"SoundDuration":185494,"Delta":112043140},{"NoteNumber":59,"Velocity":23,"Duration":185494,"SoundDuration":185494,"Delta":112228634},{"NoteNumber":63,"Velocity":23,"Duration":185494,"SoundDuration":185494,"Delta":112414128},{"NoteNumber":73,"Velocity":42,"Duration":564334,"SoundDuration":564334,"Delta":112599623},{"NoteNumber":54,"Velocity":29,"Duration":188111,"SoundDuration":188111,"Delta":112599623},{"NoteNumber":58,"Velocity":23,"Duration":188111,"SoundDuration":188111,"Delta":112787734},{"NoteNumber":61,"Velocity":23,"Duration":188111,"SoundDuration":188111,"Delta":112975845},{"NoteNumber":71,"Velocity":48,"Duration":1706591,"SoundDuration":1706591,"Delta":113163957},{"NoteNumber":47,"Velocity":33,"Duration":192640,"SoundDuration":192640,"Delta":113163957},{"NoteNumber":51,"Velocity":23,"Duration":192641,"SoundDuration":192641,"Delta":113356598},{"NoteNumber":59,"Velocity":23,"Duration":192640,"SoundDuration":192640,"Delta":113549239},{"NoteNumber":51,"Velocity":31,"Duration":188111,"SoundDuration":188111,"Delta":113741880},{"NoteNumber":54,"Velocity":25,"Duration":188111,"SoundDuration":188111,"Delta":113929991},{"NoteNumber":59,"Velocity":27,"Duration":188111,"SoundDuration":188111,"Delta":114118102},{"NoteNumber":50,"Velocity":42,"Duration":188111,"SoundDuration":188111,"Delta":114306214},{"NoteNumber":53,"Velocity":32,"Duration":188111,"SoundDuration":188111,"Delta":114494325},{"NoteNumber":59,"Velocity":32,"Duration":188111,"SoundDuration":188111,"Delta":114682436},{"NoteNumber":71,"Velocity":57,"Duration":413754,"SoundDuration":413754,"Delta":114870548},{"NoteNumber":51,"Velocity":42,"Duration":183891,"SoundDuration":183891,"Delta":114870548},{"NoteNumber":54,"Velocity":37,"Duration":183891,"SoundDuration":183891,"Delta":115054439},{"NoteNumber":59,"Velocity":38,"Duration":199315,"SoundDuration":199315,"Delta":115238330},{"NoteNumber":75,"Velocity":50,"Duration":153342,"SoundDuration":153342,"Delta":115284302},{"NoteNumber":66,"Velocity":46,"Duration":560522,"SoundDuration":560522,"Delta":115437645},{"NoteNumber":78,"Velocity":62,"Duration":560522,"SoundDuration":560522,"Delta":115437645},{"NoteNumber":47,"Velocity":44,"Duration":187230,"SoundDuration":187230,"Delta":115437645},{"NoteNumber":51,"Velocity":36,"Duration":187230,"SoundDuration":187230,"Delta":115624876},{"NoteNumber":54,"Velocity":37,"Duration":187231,"SoundDuration":187231,"Delta":115812107},{"NoteNumber":66,"Velocity":48,"Duration":545210,"SoundDuration":545210,"Delta":115999338},{"NoteNumber":78,"Velocity":59,"Duration":545210,"SoundDuration":545210,"Delta":115999338},{"NoteNumber":47,"Velocity":47,"Duration":182116,"SoundDuration":182116,"Delta":115999338},{"NoteNumber":51,"Velocity":34,"Duration":182116,"SoundDuration":182116,"Delta":116181454},{"NoteNumber":54,"Velocity":36,"Duration":182116,"SoundDuration":182116,"Delta":116363571},{"NoteNumber":67,"Velocity":57,"Duration":544763,"SoundDuration":544763,"Delta":116545687},{"NoteNumber":79,"Velocity":67,"Duration":544763,"SoundDuration":544763,"Delta":116545687},{"NoteNumber":46,"Velocity":51,"Duration":181967,"SoundDuration":181967,"Delta":116545687},{"NoteNumber":49,"Velocity":48,"Duration":181967,"SoundDuration":181967,"Delta":116727654},{"NoteNumber":51,"Velocity":49,"Duration":181967,"SoundDuration":181967,"Delta":116909621},{"NoteNumber":68,"Velocity":59,"Duration":550523,"SoundDuration":550523,"Delta":117091588},{"NoteNumber":80,"Velocity":71,"Duration":550523,"SoundDuration":550523,"Delta":117091588},{"NoteNumber":44,"Velocity":62,"Duration":183891,"SoundDuration":183891,"Delta":117091588},{"NoteNumber":49,"Velocity":55,"Duration":183891,"SoundDuration":183891,"Delta":117275479},{"NoteNumber":51,"Velocity":56,"Duration":183890,"SoundDuration":183890,"Delta":117459370},{"NoteNumber":70,"Velocity":64,"Duration":545210,"SoundDuration":545210,"Delta":117643261},{"NoteNumber":82,"Velocity":79,"Duration":545210,"SoundDuration":545210,"Delta":117643261},{"NoteNumber":43,"Velocity":72,"Duration":182116,"SoundDuration":182116,"Delta":117643261},{"NoteNumber":49,"Velocity":58,"Duration":182116,"SoundDuration":182116,"Delta":117825377},{"NoteNumber":51,"Velocity":62,"Duration":182116,"SoundDuration":182116,"Delta":118007494},{"NoteNumber":73,"Velocity":64,"Duration":544763,"SoundDuration":544763,"Delta":118189610},{"NoteNumber":85,"Velocity":77,"Duration":544763,"SoundDuration":544763,"Delta":118189610},{"NoteNumber":43,"Velocity":69,"Duration":181967,"SoundDuration":181967,"Delta":118189610},{"NoteNumber":46,"Velocity":48,"Duration":181967,"SoundDuration":181967,"Delta":118371577},{"NoteNumber":51,"Velocity":55,"Duration":181967,"SoundDuration":181967,"Delta":118553544},{"NoteNumber":71,"Velocity":62,"Duration":550523,"SoundDuration":550523,"Delta":118735511},{"NoteNumber":83,"Velocity":74,"Duration":550523,"SoundDuration":550523,"Delta":118735511},{"NoteNumber":44,"Velocity":62,"Duration":183891,"SoundDuration":183891,"Delta":118735511},{"NoteNumber":47,"Velocity":49,"Duration":183891,"SoundDuration":183891,"Delta":118919402},{"NoteNumber":51,"Velocity":48,"Duration":183890,"SoundDuration":183890,"Delta":119103293},{"NoteNumber":70,"Velocity":49,"Duration":413754,"SoundDuration":413754,"Delta":119287184},{"NoteNumber":82,"Velocity":58,"Duration":413754,"SoundDuration":413754,"Delta":119287184},{"NoteNumber":49,"Velocity":44,"Duration":183891,"SoundDuration":183891,"Delta":119287184},{"NoteNumber":52,"Velocity":38,"Duration":183891,"SoundDuration":183891,"Delta":119471075},{"NoteNumber":58,"Velocity":38,"Duration":191152,"SoundDuration":191152,"Delta":119654966},{"NoteNumber":68,"Velocity":42,"Duration":145179,"SoundDuration":145179,"Delta":119700939},{"NoteNumber":80,"Velocity":51,"Duration":145179,"SoundDuration":145179,"Delta":119700939},{"NoteNumber":67,"Velocity":49,"Duration":567001,"SoundDuration":567001,"Delta":119846119},{"NoteNumber":79,"Velocity":58,"Duration":567001,"SoundDuration":567001,"Delta":119846119},{"NoteNumber":51,"Velocity":33,"Duration":189000,"SoundDuration":189000,"Delta":119846119},{"NoteNumber":58,"Velocity":27,"Duration":189000,"SoundDuration":189000,"Delta":120035119},{"NoteNumber":61,"Velocity":27,"Duration":189000,"SoundDuration":189000,"Delta":120224120},{"NoteNumber":67,"Velocity":46,"Duration":556483,"SoundDuration":556483,"Delta":120413120},{"NoteNumber":79,"Velocity":55,"Duration":556483,"SoundDuration":556483,"Delta":120413120},{"NoteNumber":51,"Velocity":34,"Duration":185494,"SoundDuration":185494,"Delta":120413120},{"NoteNumber":58,"Velocity":25,"Duration":185494,"SoundDuration":185494,"Delta":120598614},{"NoteNumber":61,"Velocity":26,"Duration":185494,"SoundDuration":185494,"Delta":120784109},{"NoteNumber":68,"Velocity":45,"Duration":273174,"SoundDuration":273174,"Delta":120969603},{"NoteNumber":80,"Velocity":53,"Duration":273174,"SoundDuration":273174,"Delta":120969603},{"NoteNumber":51,"Velocity":36,"Duration":182116,"SoundDuration":182116,"Delta":120969603},{"NoteNumber":58,"Velocity":29,"Duration":182116,"SoundDuration":182116,"Delta":121151719},{"NoteNumber":67,"Velocity":37,"Duration":273174,"SoundDuration":273174,"Delta":121242777},{"NoteNumber":79,"Velocity":45,"Duration":273174,"SoundDuration":273174,"Delta":121242777},{"NoteNumber":61,"Velocity":29,"Duration":182116,"SoundDuration":182116,"Delta":121333836},{"NoteNumber":65,"Velocity":38,"Duration":282167,"SoundDuration":282167,"Delta":121515952},{"NoteNumber":77,"Velocity":46,"Duration":282167,"SoundDuration":282167,"Delta":121515952},{"NoteNumber":51,"Velocity":35,"Duration":188111,"SoundDuration":188111,"Delta":121515952},{"NoteNumber":58,"Velocity":28,"Duration":188111,"SoundDuration":188111,"Delta":121704063},{"NoteNumber":67,"Velocity":37,"Duration":294426,"SoundDuration":294426,"Delta":121798119},{"NoteNumber":79,"Velocity":45,"Duration":294426,"SoundDuration":294426,"Delta":121798119},{"NoteNumber":61,"Velocity":28,"Duration":200370,"SoundDuration":200370,"Delta":121892175},{"NoteNumber":68,"Velocity":40,"Duration":1142257,"SoundDuration":1142257,"Delta":122092545},{"NoteNumber":80,"Velocity":48,"Duration":1706591,"SoundDuration":1706591,"Delta":122092545},{"NoteNumber":56,"Velocity":33,"Duration":192640,"SoundDuration":192640,"Delta":122092545},{"NoteNumber":60,"Velocity":23,"Duration":192641,"SoundDuration":192641,"Delta":122285186},{"NoteNumber":63,"Velocity":23,"Duration":192640,"SoundDuration":192640,"Delta":122477827},{"NoteNumber":60,"Velocity":31,"Duration":188111,"SoundDuration":188111,"Delta":122670468},{"NoteNumber":63,"Velocity":25,"Duration":188111,"SoundDuration":188111,"Delta":122858579},{"NoteNumber":68,"Velocity":27,"Duration":752445,"SoundDuration":752445,"Delta":123046691},{"NoteNumber":59,"Velocity":38,"Duration":188111,"SoundDuration":188111,"Delta":123234802},{"NoteNumber":62,"Velocity":32,"Duration":188111,"SoundDuration":188111,"Delta":123422913},{"NoteNumber":68,"Velocity":32,"Duration":188111,"SoundDuration":188111,"Delta":123611025},{"NoteNumber":80,"Velocity":57,"Duration":413754,"SoundDuration":413754,"Delta":123799136},{"NoteNumber":60,"Velocity":42,"Duration":183891,"SoundDuration":183891,"Delta":123799136},{"NoteNumber":63,"Velocity":37,"Duration":183891,"SoundDuration":183891,"Delta":123983027},{"NoteNumber":68,"Velocity":38,"Duration":199315,"SoundDuration":199315,"Delta":124166918},{"NoteNumber":84,"Velocity":50,"Duration":153342,"SoundDuration":153342,"Delta":124212891},{"NoteNumber":75,"Velocity":57,"Duration":423250,"SoundDuration":423250,"Delta":124366234},{"NoteNumber":87,"Velocity":68,"Duration":423250,"SoundDuration":423250,"Delta":124366234},{"NoteNumber":56,"Velocity":44,"Duration":188111,"SoundDuration":188111,"Delta":124366234},{"NoteNumber":60,"Velocity":36,"Duration":188111,"SoundDuration":188111,"Delta":124554345},{"NoteNumber":68,"Velocity":37,"Duration":188111,"SoundDuration":188111,"Delta":124742456},{"NoteNumber":75,"Velocity":52,"Duration":409761,"SoundDuration":409761,"Delta":124930568},{"NoteNumber":87,"Velocity":62,"Duration":409761,"SoundDuration":409761,"Delta":124930568},{"NoteNumber":60,"Velocity":47,"Duration":182116,"SoundDuration":182116,"Delta":124930568},{"NoteNumber":63,"Velocity":34,"Duration":182116,"SoundDuration":182116,"Delta":125112684},{"NoteNumber":68,"Velocity":36,"Duration":182116,"SoundDuration":182116,"Delta":125294800},{"NoteNumber":75,"Velocity":56,"Duration":409425,"SoundDuration":409425,"Delta":125476917},{"NoteNumber":87,"Velocity":67,"Duration":409425,"SoundDuration":409425,"Delta":125476917},{"NoteNumber":59,"Velocity":50,"Duration":181967,"SoundDuration":181967,"Delta":125476917},{"NoteNumber":62,"Velocity":42,"Duration":181967,"SoundDuration":181967,"Delta":125658884},{"NoteNumber":68,"Velocity":43,"Duration":181967,"SoundDuration":181967,"Delta":125840851},{"NoteNumber":75,"Velocity":60,"Duration":413754,"SoundDuration":413754,"Delta":126022818},{"NoteNumber":87,"Velocity":71,"Duration":413754,"SoundDuration":413754,"Delta":126022818},{"NoteNumber":60,"Velocity":55,"Duration":183891,"SoundDuration":183891,"Delta":126022818},{"NoteNumber":63,"Velocity":47,"Duration":183891,"SoundDuration":183891,"Delta":126206709},{"NoteNumber":68,"Velocity":45,"Duration":183890,"SoundDuration":183890,"Delta":126390600},{"NoteNumber":77,"Velocity":58,"Duration":545210,"SoundDuration":545210,"Delta":126574491},{"NoteNumber":89,"Velocity":69,"Duration":545210,"SoundDuration":545210,"Delta":126574491},{"NoteNumber":61,"Velocity":61,"Duration":182116,"SoundDuration":182116,"Delta":126574491},{"NoteNumber":65,"Velocity":46,"Duration":182116,"SoundDuration":182116,"Delta":126756607},{"NoteNumber":68,"Velocity":51,"Duration":182116,"SoundDuration":182116,"Delta":126938723},{"NoteNumber":79,"Velocity":57,"Duration":544763,"SoundDuration":544763,"Delta":127120840},{"NoteNumber":91,"Velocity":72,"Duration":544763,"SoundDuration":544763,"Delta":127120840},{"NoteNumber":61,"Velocity":61,"Duration":181967,"SoundDuration":181967,"Delta":127120840},{"NoteNumber":63,"Velocity":49,"Duration":181967,"SoundDuration":181967,"Delta":127302807},{"NoteNumber":70,"Velocity":49,"Duration":181967,"SoundDuration":181967,"Delta":127484774},{"NoteNumber":80,"Velocity":58,"Duration":550523,"SoundDuration":550523,"Delta":127666741},{"NoteNumber":92,"Velocity":69,"Duration":550523,"SoundDuration":550523,"Delta":127666741},{"NoteNumber":60,"Velocity":57,"Duration":183891,"SoundDuration":183891,"Delta":127666741},{"NoteNumber":63,"Velocity":45,"Duration":183890,"SoundDuration":183890,"Delta":127850632},{"NoteNumber":68,"Velocity":44,"Duration":183891,"SoundDuration":183891,"Delta":128034523},{"NoteNumber":75,"Velocity":51,"Duration":413754,"SoundDuration":413754,"Delta":128218414},{"NoteNumber":87,"Velocity":61,"Duration":413754,"SoundDuration":413754,"Delta":128218414},{"NoteNumber":60,"Velocity":44,"Duration":183890,"SoundDuration":183890,"Delta":128218414},{"NoteNumber":63,"Velocity":38,"Duration":183891,"SoundDuration":183891,"Delta":128402305},{"NoteNumber":68,"Velocity":38,"Duration":191152,"SoundDuration":191152,"Delta":128586196},{"NoteNumber":75,"Velocity":56,"Duration":564334,"SoundDuration":564334,"Delta":128777348},{"NoteNumber":87,"Velocity":66,"Duration":564334,"SoundDuration":564334,"Delta":128777348},{"NoteNumber":58,"Velocity":44,"Duration":188111,"SoundDuration":188111,"Delta":128777348},{"NoteNumber":63,"Velocity":36,"Duration":188111,"SoundDuration":188111,"Delta":128965460},{"NoteNumber":70,"Velocity":37,"Duration":188111,"SoundDuration":188111,"Delta":129153571},{"NoteNumber":73,"Velocity":45,"Duration":273174,"SoundDuration":273174,"Delta":129341682},{"NoteNumber":85,"Velocity":54,"Duration":273174,"SoundDuration":273174,"Delta":129341682},{"NoteNumber":58,"Velocity":47,"Duration":182116,"SoundDuration":182116,"Delta":129341682},{"NoteNumber":63,"Velocity":34,"Duration":182116,"SoundDuration":182116,"Delta":129523799},{"NoteNumber":67,"Velocity":36,"Duration":182116,"SoundDuration":182116,"Delta":129705915},{"NoteNumber":73,"Velocity":52,"Duration":545900,"SoundDuration":545900,"Delta":129888031},{"NoteNumber":85,"Velocity":62,"Duration":545900,"SoundDuration":545900,"Delta":129888031},{"NoteNumber":56,"Velocity":45,"Duration":181966,"SoundDuration":181966,"Delta":129888031},{"NoteNumber":63,"Velocity":36,"Duration":181967,"SoundDuration":181967,"Delta":130069998},{"NoteNumber":68,"Velocity":36,"Duration":181966,"SoundDuration":181966,"Delta":130251965},{"NoteNumber":72,"Velocity":46,"Duration":275836,"SoundDuration":275836,"Delta":130433932},{"NoteNumber":84,"Velocity":55,"Duration":275836,"SoundDuration":275836,"Delta":130433932},{"NoteNumber":56,"Velocity":46,"Duration":183890,"SoundDuration":183890,"Delta":130433932},{"NoteNumber":63,"Velocity":37,"Duration":183891,"SoundDuration":183891,"Delta":130617823},{"NoteNumber":68,"Velocity":36,"Duration":183890,"SoundDuration":183890,"Delta":130801714},{"NoteNumber":82,"Velocity":56,"Duration":548846,"SoundDuration":548846,"Delta":130985605},{"NoteNumber":61,"Velocity":30,"Duration":182949,"SoundDuration":182949,"Delta":130985605},{"NoteNumber":68,"Velocity":24,"Duration":182948,"SoundDuration":182948,"Delta":131168554},{"NoteNumber":70,"Velocity":24,"Duration":182949,"SoundDuration":182949,"Delta":131351503},{"NoteNumber":85,"Velocity":50,"Duration":548846,"SoundDuration":548846,"Delta":131534452},{"NoteNumber":65,"Velocity":32,"Duration":182949,"SoundDuration":182949,"Delta":131534452},{"NoteNumber":68,"Velocity":23,"Duration":182949,"SoundDuration":182949,"Delta":131717401},{"NoteNumber":73,"Velocity":24,"Duration":182948,"SoundDuration":182948,"Delta":131900350},{"NoteNumber":84,"Velocity":57,"Duration":556482,"SoundDuration":556482,"Delta":132083299},{"NoteNumber":63,"Velocity":30,"Duration":185494,"SoundDuration":185494,"Delta":132083299},{"NoteNumber":68,"Velocity":23,"Duration":185494,"SoundDuration":185494,"Delta":132268794},{"NoteNumber":72,"Velocity":23,"Duration":185494,"SoundDuration":185494,"Delta":132454288},{"NoteNumber":82,"Velocity":49,"Duration":564334,"SoundDuration":564334,"Delta":132639782},{"NoteNumber":63,"Velocity":29,"Duration":188111,"SoundDuration":188111,"Delta":132639782},{"NoteNumber":67,"Velocity":23,"Duration":188111,"SoundDuration":188111,"Delta":132827894},{"NoteNumber":70,"Velocity":23,"Duration":188111,"SoundDuration":188111,"Delta":133016005},{"NoteNumber":80,"Velocity":53,"Duration":192641,"SoundDuration":192641,"Delta":133204116},{"NoteNumber":60,"Velocity":25,"Duration":288961,"SoundDuration":288961,"Delta":133204116},{"NoteNumber":56,"Velocity":25,"Duration":288961,"SoundDuration":288961,"Delta":133204116},{"NoteNumber":68,"Velocity":30,"Duration":288961,"SoundDuration":288961,"Delta":133204116},{"NoteNumber":63,"Velocity":48,"Duration":192640,"SoundDuration":192640,"Delta":133396757},{"NoteNumber":68,"Velocity":48,"Duration":192641,"SoundDuration":192641,"Delta":133589398},{"NoteNumber":72,"Velocity":59,"Duration":189000,"SoundDuration":189000,"Delta":133782039},{"NoteNumber":68,"Velocity":48,"Duration":189000,"SoundDuration":189000,"Delta":133971040},{"NoteNumber":63,"Velocity":49,"Duration":189000,"SoundDuration":189000,"Delta":134160040},{"NoteNumber":75,"Velocity":59,"Duration":186358,"SoundDuration":186358,"Delta":134349040},{"NoteNumber":72,"Velocity":53,"Duration":186358,"SoundDuration":186358,"Delta":134535399},{"NoteNumber":68,"Velocity":54,"Duration":186358,"SoundDuration":186358,"Delta":134721758},{"NoteNumber":68,"Velocity":59,"Duration":183890,"SoundDuration":183890,"Delta":134908116},{"NoteNumber":56,"Velocity":58,"Duration":413754,"SoundDuration":413754,"Delta":134908116},{"NoteNumber":72,"Velocity":53,"Duration":183891,"SoundDuration":183891,"Delta":135092007},{"NoteNumber":75,"Velocity":53,"Duration":199315,"SoundDuration":199315,"Delta":135275898},{"NoteNumber":60,"Velocity":51,"Duration":153342,"SoundDuration":153342,"Delta":135321871},{"NoteNumber":75,"Velocity":59,"Duration":187230,"SoundDuration":187230,"Delta":135475214},{"NoteNumber":63,"Velocity":62,"Duration":421269,"SoundDuration":421269,"Delta":135475214},{"NoteNumber":70,"Velocity":53,"Duration":187230,"SoundDuration":187230,"Delta":135662445},{"NoteNumber":67,"Velocity":53,"Duration":187230,"SoundDuration":187230,"Delta":135849676},{"NoteNumber":75,"Velocity":59,"Duration":182116,"SoundDuration":182116,"Delta":136036907},{"NoteNumber":63,"Velocity":56,"Duration":409761,"SoundDuration":409761,"Delta":136036907},{"NoteNumber":70,"Velocity":52,"Duration":182116,"SoundDuration":182116,"Delta":136219023},{"NoteNumber":67,"Velocity":52,"Duration":182116,"SoundDuration":182116,"Delta":136401140},{"NoteNumber":75,"Velocity":59,"Duration":181966,"SoundDuration":181966,"Delta":136583256},{"NoteNumber":63,"Velocity":58,"Duration":409425,"SoundDuration":409425,"Delta":136583256},{"NoteNumber":72,"Velocity":51,"Duration":181967,"SoundDuration":181967,"Delta":136765223},{"NoteNumber":68,"Velocity":51,"Duration":181966,"SoundDuration":181966,"Delta":136947190},{"NoteNumber":70,"Velocity":62,"Duration":183890,"SoundDuration":183890,"Delta":137129157},{"NoteNumber":63,"Velocity":57,"Duration":419624,"SoundDuration":419624,"Delta":137129157},{"NoteNumber":75,"Velocity":55,"Duration":187804,"SoundDuration":187804,"Delta":137313048},{"NoteNumber":79,"Velocity":57,"Duration":191717,"SoundDuration":191717,"Delta":137500852},{"NoteNumber":80,"Velocity":66,"Duration":182949,"SoundDuration":182949,"Delta":137692570},{"NoteNumber":65,"Velocity":63,"Duration":1091082,"SoundDuration":1091082,"Delta":137692570},{"NoteNumber":75,"Velocity":59,"Duration":182948,"SoundDuration":182948,"Delta":137875519},{"NoteNumber":68,"Velocity":59,"Duration":182949,"SoundDuration":182949,"Delta":138058468},{"NoteNumber":80,"Velocity":67,"Duration":175715,"SoundDuration":175715,"Delta":138241417},{"NoteNumber":74,"Velocity":59,"Duration":175715,"SoundDuration":175715,"Delta":138417133},{"NoteNumber":68,"Velocity":59,"Duration":190803,"SoundDuration":190803,"Delta":138592849},{"NoteNumber":80,"Velocity":65,"Duration":183789,"SoundDuration":183789,"Delta":138783652},{"NoteNumber":63,"Velocity":60,"Duration":1098984,"SoundDuration":1098984,"Delta":138783652},{"NoteNumber":75,"Velocity":54,"Duration":183789,"SoundDuration":183789,"Delta":138967442},{"NoteNumber":70,"Velocity":54,"Duration":172302,"SoundDuration":172302,"Delta":139151232},{"NoteNumber":70,"Velocity":61,"Duration":178858,"SoundDuration":178858,"Delta":139335021},{"NoteNumber":75,"Velocity":52,"Duration":178859,"SoundDuration":178859,"Delta":139513880},{"NoteNumber":79,"Velocity":52,"Duration":189897,"SoundDuration":189897,"Delta":139692739},{"NoteNumber":77,"Velocity":59,"Duration":182949,"SoundDuration":182949,"Delta":139882637},{"NoteNumber":61,"Velocity":63,"Duration":1093083,"SoundDuration":1093083,"Delta":139882637},{"NoteNumber":70,"Velocity":51,"Duration":182948,"SoundDuration":182948,"Delta":140065586},{"NoteNumber":67,"Velocity":52,"Duration":182949,"SoundDuration":182949,"Delta":140248535},{"NoteNumber":77,"Velocity":59,"Duration":178062,"SoundDuration":178062,"Delta":140431484},{"NoteNumber":71,"Velocity":53,"Duration":178062,"SoundDuration":178062,"Delta":140609546},{"NoteNumber":67,"Velocity":53,"Duration":188111,"SoundDuration":188111,"Delta":140787609},{"NoteNumber":77,"Velocity":57,"Duration":182116,"SoundDuration":182116,"Delta":140975720},{"NoteNumber":60,"Velocity":57,"Duration":1095784,"SoundDuration":1095784,"Delta":140975720},{"NoteNumber":72,"Velocity":51,"Duration":182116,"SoundDuration":182116,"Delta":141157837},{"NoteNumber":68,"Velocity":51,"Duration":170734,"SoundDuration":170734,"Delta":141339953},{"NoteNumber":68,"Velocity":59,"Duration":178858,"SoundDuration":178858,"Delta":141522069},{"NoteNumber":72,"Velocity":52,"Duration":178859,"SoundDuration":178859,"Delta":141700928},{"NoteNumber":75,"Velocity":52,"Duration":191717,"SoundDuration":191717,"Delta":141879787},{"NoteNumber":61,"Velocity":59,"Duration":182949,"SoundDuration":182949,"Delta":142071505},{"NoteNumber":58,"Velocity":57,"Duration":548846,"SoundDuration":548846,"Delta":142071505},{"NoteNumber":68,"Velocity":54,"Duration":182948,"SoundDuration":182948,"Delta":142254454},{"NoteNumber":73,"Velocity":54,"Duration":182949,"SoundDuration":182949,"Delta":142437403},{"NoteNumber":65,"Velocity":59,"Duration":182949,"SoundDuration":182949,"Delta":142620352},{"NoteNumber":61,"Velocity":55,"Duration":548846,"SoundDuration":548846,"Delta":142620352},{"NoteNumber":68,"Velocity":55,"Duration":182949,"SoundDuration":182949,"Delta":142803301},{"NoteNumber":70,"Velocity":56,"Duration":182948,"SoundDuration":182948,"Delta":142986250},{"NoteNumber":63,"Velocity":59,"Duration":185494,"SoundDuration":185494,"Delta":143169199},{"NoteNumber":60,"Velocity":61,"Duration":556482,"SoundDuration":556482,"Delta":143169199},{"NoteNumber":68,"Velocity":54,"Duration":185494,"SoundDuration":185494,"Delta":143354693},{"NoteNumber":72,"Velocity":54,"Duration":185494,"SoundDuration":185494,"Delta":143540188},{"NoteNumber":63,"Velocity":59,"Duration":564334,"SoundDuration":564334,"Delta":143725682},{"NoteNumber":67,"Velocity":70,"Duration":564334,"SoundDuration":564334,"Delta":143725682},{"NoteNumber":51,"Velocity":45,"Duration":564334,"SoundDuration":564334,"Delta":143725682},{"NoteNumber":58,"Velocity":54,"Duration":564334,"SoundDuration":564334,"Delta":143725682},{"NoteNumber":75,"Velocity":63,"Duration":188111,"SoundDuration":188111,"Delta":143913793},{"NoteNumber":73,"Velocity":67,"Duration":188111,"SoundDuration":188111,"Delta":144101905},{"NoteNumber":63,"Velocity":60,"Duration":192641,"SoundDuration":192641,"Delta":144290016},{"NoteNumber":68,"Velocity":60,"Duration":192641,"SoundDuration":192641,"Delta":144290016},{"NoteNumber":72,"Velocity":71,"Duration":192641,"SoundDuration":192641,"Delta":144290016},{"NoteNumber":56,"Velocity":60,"Duration":577922,"SoundDuration":577922,"Delta":144290016},{"NoteNumber":51,"Velocity":51,"Duration":577922,"SoundDuration":577922,"Delta":144290016},{"NoteNumber":44,"Velocity":51,"Duration":577922,"SoundDuration":577922,"Delta":144290016},{"NoteNumber":63,"Velocity":59,"Duration":192640,"SoundDuration":192640,"Delta":144482657},{"NoteNumber":68,"Velocity":59,"Duration":192641,"SoundDuration":192641,"Delta":144675298},{"NoteNumber":72,"Velocity":67,"Duration":189000,"SoundDuration":189000,"Delta":144867939},{"NoteNumber":68,"Velocity":56,"Duration":189000,"SoundDuration":189000,"Delta":145056939},{"NoteNumber":63,"Velocity":56,"Duration":189000,"SoundDuration":189000,"Delta":145245940},{"NoteNumber":75,"Velocity":66,"Duration":185494,"SoundDuration":185494,"Delta":145434940},{"NoteNumber":72,"Velocity":57,"Duration":185494,"SoundDuration":185494,"Delta":145620434},{"NoteNumber":68,"Velocity":57,"Duration":173900,"SoundDuration":173900,"Delta":145805929},{"NoteNumber":68,"Velocity":68,"Duration":183890,"SoundDuration":183890,"Delta":145991423},{"NoteNumber":56,"Velocity":63,"Duration":413754,"SoundDuration":413754,"Delta":145991423},{"NoteNumber":44,"Velocity":63,"Duration":413754,"SoundDuration":413754,"Delta":145991423},{"NoteNumber":72,"Velocity":60,"Duration":183891,"SoundDuration":183891,"Delta":146175314},{"NoteNumber":75,"Velocity":60,"Duration":199315,"SoundDuration":199315,"Delta":146359205},{"NoteNumber":48,"Velocity":56,"Duration":153342,"SoundDuration":153342,"Delta":146405178},{"NoteNumber":60,"Velocity":56,"Duration":153342,"SoundDuration":153342,"Delta":146405178},{"NoteNumber":75,"Velocity":69,"Duration":188111,"SoundDuration":188111,"Delta":146558520},{"NoteNumber":51,"Velocity":68,"Duration":423250,"SoundDuration":423250,"Delta":146558520},{"NoteNumber":63,"Velocity":68,"Duration":397385,"SoundDuration":397385,"Delta":146558520},{"NoteNumber":70,"Velocity":59,"Duration":188111,"SoundDuration":188111,"Delta":146746632},{"NoteNumber":67,"Velocity":59,"Duration":188111,"SoundDuration":188111,"Delta":146934743},{"NoteNumber":75,"Velocity":70,"Duration":182116,"SoundDuration":182116,"Delta":147122854},{"NoteNumber":63,"Velocity":61,"Duration":409761,"SoundDuration":409761,"Delta":147122854},{"NoteNumber":51,"Velocity":50,"Duration":409761,"SoundDuration":409761,"Delta":147122854},{"NoteNumber":70,"Velocity":57,"Duration":182116,"SoundDuration":182116,"Delta":147304971},{"NoteNumber":67,"Velocity":57,"Duration":182116,"SoundDuration":182116,"Delta":147487087},{"NoteNumber":75,"Velocity":71,"Duration":181966,"SoundDuration":181966,"Delta":147669203},{"NoteNumber":51,"Velocity":53,"Duration":409425,"SoundDuration":409425,"Delta":147669203},{"NoteNumber":63,"Velocity":63,"Duration":409425,"SoundDuration":409425,"Delta":147669203},{"NoteNumber":71,"Velocity":61,"Duration":181967,"SoundDuration":181967,"Delta":147851170},{"NoteNumber":68,"Velocity":59,"Duration":181966,"SoundDuration":181966,"Delta":148033137},{"NoteNumber":70,"Velocity":68,"Duration":183890,"SoundDuration":183890,"Delta":148215104},{"NoteNumber":51,"Velocity":52,"Duration":419624,"SoundDuration":419624,"Delta":148215104},{"NoteNumber":63,"Velocity":62,"Duration":419624,"SoundDuration":419624,"Delta":148215104},{"NoteNumber":75,"Velocity":62,"Duration":187804,"SoundDuration":187804,"Delta":148398995},{"NoteNumber":79,"Velocity":63,"Duration":199720,"SoundDuration":199720,"Delta":148586800},{"NoteNumber":80,"Velocity":68,"Duration":187230,"SoundDuration":187230,"Delta":148786520},{"NoteNumber":52,"Velocity":58,"Duration":1111820,"SoundDuration":1111820,"Delta":148786520},{"NoteNumber":64,"Velocity":69,"Duration":1111820,"SoundDuration":1111820,"Delta":148786520},{"NoteNumber":75,"Velocity":58,"Duration":187230,"SoundDuration":187230,"Delta":148973751},{"NoteNumber":68,"Velocity":58,"Duration":187230,"SoundDuration":187230,"Delta":149160982},{"NoteNumber":80,"Velocity":67,"Duration":179662,"SoundDuration":179662,"Delta":149348213},{"NoteNumber":73,"Velocity":59,"Duration":179662,"SoundDuration":179662,"Delta":149527876},{"NoteNumber":70,"Velocity":59,"Duration":190803,"SoundDuration":190803,"Delta":149707538},{"NoteNumber":80,"Velocity":67,"Duration":183789,"SoundDuration":183789,"Delta":149898341},{"NoteNumber":51,"Velocity":55,"Duration":1102581,"SoundDuration":1102581,"Delta":149898341},{"NoteNumber":63,"Velocity":66,"Duration":1102581,"SoundDuration":1102581,"Delta":149898341},{"NoteNumber":75,"Velocity":57,"Duration":183789,"SoundDuration":183789,"Delta":150082131},{"NoteNumber":71,"Velocity":57,"Duration":172302,"SoundDuration":172302,"Delta":150265921},{"NoteNumber":71,"Velocity":65,"Duration":178858,"SoundDuration":178858,"Delta":150449710},{"NoteNumber":75,"Velocity":57,"Duration":178859,"SoundDuration":178859,"Delta":150628569},{"NoteNumber":78,"Velocity":57,"Duration":193494,"SoundDuration":193494,"Delta":150807428},{"NoteNumber":76,"Velocity":65,"Duration":182949,"SoundDuration":182949,"Delta":151000923},{"NoteNumber":49,"Velocity":58,"Duration":1093083,"SoundDuration":1093083,"Delta":151000923},{"NoteNumber":61,"Velocity":69,"Duration":1093083,"SoundDuration":1093083,"Delta":151000923},{"NoteNumber":71,"Velocity":55,"Duration":182948,"SoundDuration":182948,"Delta":151183872},{"NoteNumber":67,"Velocity":55,"Duration":182949,"SoundDuration":182949,"Delta":151366821},{"NoteNumber":76,"Velocity":62,"Duration":178062,"SoundDuration":178062,"Delta":151549770},{"NoteNumber":70,"Velocity":53,"Duration":178062,"SoundDuration":178062,"Delta":151727833},{"NoteNumber":67,"Velocity":53,"Duration":188111,"SoundDuration":188111,"Delta":151905895},{"NoteNumber":76,"Velocity":64,"Duration":182116,"SoundDuration":182116,"Delta":152094007},{"NoteNumber":59,"Velocity":62,"Duration":814637,"SoundDuration":814637,"Delta":152094007},{"NoteNumber":47,"Velocity":52,"Duration":1094667,"SoundDuration":1094667,"Delta":152094007},{"NoteNumber":71,"Velocity":55,"Duration":182116,"SoundDuration":182116,"Delta":152276123},{"NoteNumber":68,"Velocity":55,"Duration":170734,"SoundDuration":170734,"Delta":152458239},{"NoteNumber":68,"Velocity":65,"Duration":178858,"SoundDuration":178858,"Delta":152640356},{"NoteNumber":71,"Velocity":56,"Duration":178859,"SoundDuration":178859,"Delta":152819215},{"NoteNumber":58,"Velocity":68,"Duration":280030,"SoundDuration":280030,"Delta":152908644},{"NoteNumber":75,"Velocity":56,"Duration":190600,"SoundDuration":190600,"Delta":152998074},{"NoteNumber":68,"Velocity":66,"Duration":182949,"SoundDuration":182949,"Delta":153188675},{"NoteNumber":56,"Velocity":61,"Duration":545182,"SoundDuration":545182,"Delta":153188675},{"NoteNumber":52,"Velocity":52,"Duration":545182,"SoundDuration":545182,"Delta":153188675},{"NoteNumber":71,"Velocity":59,"Duration":182948,"SoundDuration":182948,"Delta":153371624},{"NoteNumber":73,"Velocity":57,"Duration":179284,"SoundDuration":179284,"Delta":153554573},{"NoteNumber":68,"Velocity":67,"Duration":182949,"SoundDuration":182949,"Delta":153733857},{"NoteNumber":49,"Velocity":46,"Duration":563426,"SoundDuration":563426,"Delta":153733857},{"NoteNumber":56,"Velocity":46,"Duration":563426,"SoundDuration":563426,"Delta":153733857},{"NoteNumber":64,"Velocity":55,"Duration":563426,"SoundDuration":563426,"Delta":153733857},{"NoteNumber":71,"Velocity":56,"Duration":182948,"SoundDuration":182948,"Delta":153916806},{"NoteNumber":76,"Velocity":56,"Duration":197528,"SoundDuration":197528,"Delta":154099755},{"NoteNumber":66,"Velocity":66,"Duration":185494,"SoundDuration":185494,"Delta":154297283},{"NoteNumber":63,"Velocity":56,"Duration":556482,"SoundDuration":556482,"Delta":154297283},{"NoteNumber":54,"Velocity":47,"Duration":556482,"SoundDuration":556482,"Delta":154297283},{"NoteNumber":71,"Velocity":56,"Duration":185494,"SoundDuration":185494,"Delta":154482778},{"NoteNumber":75,"Velocity":56,"Duration":185494,"SoundDuration":185494,"Delta":154668272},{"NoteNumber":66,"Velocity":56,"Duration":583987,"SoundDuration":583987,"Delta":154853766},{"NoteNumber":70,"Velocity":67,"Duration":583987,"SoundDuration":583987,"Delta":154853766},{"NoteNumber":54,"Velocity":42,"Duration":583987,"SoundDuration":583987,"Delta":154853766},{"NoteNumber":61,"Velocity":50,"Duration":583987,"SoundDuration":583987,"Delta":154853766},{"NoteNumber":78,"Velocity":57,"Duration":188111,"SoundDuration":188111,"Delta":155041878},{"NoteNumber":76,"Velocity":57,"Duration":207765,"SoundDuration":207765,"Delta":155229989},{"NoteNumber":66,"Velocity":53,"Duration":192641,"SoundDuration":192641,"Delta":155437754},{"NoteNumber":71,"Velocity":53,"Duration":192641,"SoundDuration":192641,"Delta":155437754},{"NoteNumber":75,"Velocity":53,"Duration":192641,"SoundDuration":192641,"Delta":155437754},{"NoteNumber":47,"Velocity":50,"Duration":577922,"SoundDuration":577922,"Delta":155437754},{"NoteNumber":54,"Velocity":50,"Duration":577922,"SoundDuration":577922,"Delta":155437754},{"NoteNumber":59,"Velocity":59,"Duration":577922,"SoundDuration":577922,"Delta":155437754},{"NoteNumber":63,"Velocity":48,"Duration":192640,"SoundDuration":192640,"Delta":155630395},{"NoteNumber":66,"Velocity":48,"Duration":192641,"SoundDuration":192641,"Delta":155823036},{"NoteNumber":71,"Velocity":59,"Duration":189000,"SoundDuration":189000,"Delta":156015677},{"NoteNumber":66,"Velocity":48,"Duration":189000,"SoundDuration":189000,"Delta":156204677},{"NoteNumber":63,"Velocity":49,"Duration":189000,"SoundDuration":189000,"Delta":156393678},{"NoteNumber":75,"Velocity":59,"Duration":186358,"SoundDuration":186358,"Delta":156582678},{"NoteNumber":71,"Velocity":53,"Duration":186358,"SoundDuration":186358,"Delta":156769037},{"NoteNumber":66,"Velocity":54,"Duration":186358,"SoundDuration":186358,"Delta":156955395},{"NoteNumber":71,"Velocity":59,"Duration":183890,"SoundDuration":183890,"Delta":157141754},{"NoteNumber":75,"Velocity":53,"Duration":183891,"SoundDuration":183891,"Delta":157325645},{"NoteNumber":78,"Velocity":53,"Duration":199315,"SoundDuration":199315,"Delta":157509536},{"NoteNumber":66,"Velocity":46,"Duration":421269,"SoundDuration":421269,"Delta":157708852},{"NoteNumber":78,"Velocity":62,"Duration":421269,"SoundDuration":421269,"Delta":157708852},{"NoteNumber":47,"Velocity":44,"Duration":187230,"SoundDuration":187230,"Delta":157708852},{"NoteNumber":51,"Velocity":36,"Duration":187230,"SoundDuration":187230,"Delta":157896083},{"NoteNumber":54,"Velocity":37,"Duration":187230,"SoundDuration":187230,"Delta":158083314},{"NoteNumber":66,"Velocity":48,"Duration":545210,"SoundDuration":545210,"Delta":158270545},{"NoteNumber":78,"Velocity":59,"Duration":545210,"SoundDuration":545210,"Delta":158270545},{"NoteNumber":47,"Velocity":47,"Duration":182116,"SoundDuration":182116,"Delta":158270545},{"NoteNumber":51,"Velocity":34,"Duration":182116,"SoundDuration":182116,"Delta":158452661},{"NoteNumber":54,"Velocity":36,"Duration":182116,"SoundDuration":182116,"Delta":158634777},{"NoteNumber":67,"Velocity":57,"Duration":544763,"SoundDuration":544763,"Delta":158816894},{"NoteNumber":79,"Velocity":67,"Duration":544763,"SoundDuration":544763,"Delta":158816894},{"NoteNumber":46,"Velocity":51,"Duration":181966,"SoundDuration":181966,"Delta":158816894},{"NoteNumber":49,"Velocity":48,"Duration":181967,"SoundDuration":181967,"Delta":158998861},{"NoteNumber":51,"Velocity":49,"Duration":181966,"SoundDuration":181966,"Delta":159180828},{"NoteNumber":68,"Velocity":60,"Duration":550523,"SoundDuration":550523,"Delta":159362795},{"NoteNumber":80,"Velocity":72,"Duration":550523,"SoundDuration":550523,"Delta":159362795},{"NoteNumber":44,"Velocity":62,"Duration":183890,"SoundDuration":183890,"Delta":159362795},{"NoteNumber":49,"Velocity":55,"Duration":183891,"SoundDuration":183891,"Delta":159546686},{"NoteNumber":51,"Velocity":56,"Duration":183890,"SoundDuration":183890,"Delta":159730577},{"NoteNumber":70,"Velocity":64,"Duration":545210,"SoundDuration":545210,"Delta":159914468},{"NoteNumber":82,"Velocity":79,"Duration":545210,"SoundDuration":545210,"Delta":159914468},{"NoteNumber":43,"Velocity":72,"Duration":182116,"SoundDuration":182116,"Delta":159914468},{"NoteNumber":49,"Velocity":58,"Duration":182116,"SoundDuration":182116,"Delta":160096584},{"NoteNumber":51,"Velocity":62,"Duration":182116,"SoundDuration":182116,"Delta":160278700},{"NoteNumber":73,"Velocity":64,"Duration":544763,"SoundDuration":544763,"Delta":160460817},{"NoteNumber":85,"Velocity":77,"Duration":544763,"SoundDuration":544763,"Delta":160460817},{"NoteNumber":43,"Velocity":69,"Duration":181966,"SoundDuration":181966,"Delta":160460817},{"NoteNumber":46,"Velocity":48,"Duration":181967,"SoundDuration":181967,"Delta":160642784},{"NoteNumber":51,"Velocity":55,"Duration":181966,"SoundDuration":181966,"Delta":160824751},{"NoteNumber":71,"Velocity":62,"Duration":550523,"SoundDuration":550523,"Delta":161006718},{"NoteNumber":83,"Velocity":74,"Duration":550523,"SoundDuration":550523,"Delta":161006718},{"NoteNumber":44,"Velocity":62,"Duration":183890,"SoundDuration":183890,"Delta":161006718},{"NoteNumber":47,"Velocity":49,"Duration":183891,"SoundDuration":183891,"Delta":161190609},{"NoteNumber":51,"Velocity":48,"Duration":183890,"SoundDuration":183890,"Delta":161374500},{"NoteNumber":70,"Velocity":49,"Duration":413754,"SoundDuration":413754,"Delta":161558391},{"NoteNumber":82,"Velocity":58,"Duration":413754,"SoundDuration":413754,"Delta":161558391},{"NoteNumber":49,"Velocity":44,"Duration":183890,"SoundDuration":183890,"Delta":161558391},{"NoteNumber":52,"Velocity":38,"Duration":183891,"SoundDuration":183891,"Delta":161742282},{"NoteNumber":58,"Velocity":38,"Duration":191152,"SoundDuration":191152,"Delta":161926173},{"NoteNumber":68,"Velocity":42,"Duration":145180,"SoundDuration":145180,"Delta":161972145},{"NoteNumber":80,"Velocity":51,"Duration":145180,"SoundDuration":145180,"Delta":161972145},{"NoteNumber":67,"Velocity":49,"Duration":567001,"SoundDuration":567001,"Delta":162117325},{"NoteNumber":79,"Velocity":58,"Duration":567001,"SoundDuration":567001,"Delta":162117325},{"NoteNumber":51,"Velocity":33,"Duration":189000,"SoundDuration":189000,"Delta":162117325},{"NoteNumber":58,"Velocity":27,"Duration":189000,"SoundDuration":189000,"Delta":162306326},{"NoteNumber":61,"Velocity":27,"Duration":189000,"SoundDuration":189000,"Delta":162495326},{"NoteNumber":67,"Velocity":46,"Duration":556482,"SoundDuration":556482,"Delta":162684326},{"NoteNumber":79,"Velocity":55,"Duration":556482,"SoundDuration":556482,"Delta":162684326},{"NoteNumber":51,"Velocity":34,"Duration":185494,"SoundDuration":185494,"Delta":162684326},{"NoteNumber":58,"Velocity":25,"Duration":185494,"SoundDuration":185494,"Delta":162869821},{"NoteNumber":61,"Velocity":26,"Duration":185494,"SoundDuration":185494,"Delta":163055315},{"NoteNumber":68,"Velocity":45,"Duration":273174,"SoundDuration":273174,"Delta":163240809},{"NoteNumber":80,"Velocity":53,"Duration":273174,"SoundDuration":273174,"Delta":163240809},{"NoteNumber":51,"Velocity":36,"Duration":182116,"SoundDuration":182116,"Delta":163240809},{"NoteNumber":58,"Velocity":29,"Duration":182116,"SoundDuration":182116,"Delta":163422926},{"NoteNumber":67,"Velocity":37,"Duration":273174,"SoundDuration":273174,"Delta":163513984},{"NoteNumber":79,"Velocity":45,"Duration":273174,"SoundDuration":273174,"Delta":163513984},{"NoteNumber":61,"Velocity":29,"Duration":182116,"SoundDuration":182116,"Delta":163605042},{"NoteNumber":65,"Velocity":38,"Duration":282166,"SoundDuration":282166,"Delta":163787158},{"NoteNumber":77,"Velocity":46,"Duration":282166,"SoundDuration":282166,"Delta":163787158},{"NoteNumber":51,"Velocity":35,"Duration":188111,"SoundDuration":188111,"Delta":163787158},{"NoteNumber":58,"Velocity":28,"Duration":188111,"SoundDuration":188111,"Delta":163975270},{"NoteNumber":67,"Velocity":37,"Duration":294426,"SoundDuration":294426,"Delta":164069325},{"NoteNumber":79,"Velocity":45,"Duration":294426,"SoundDuration":294426,"Delta":164069325},{"NoteNumber":61,"Velocity":28,"Duration":200370,"SoundDuration":200370,"Delta":164163381},{"NoteNumber":68,"Velocity":40,"Duration":1142257,"SoundDuration":1142257,"Delta":164363752},{"NoteNumber":80,"Velocity":48,"Duration":1142257,"SoundDuration":1142257,"Delta":164363752},{"NoteNumber":44,"Velocity":33,"Duration":144480,"SoundDuration":144480,"Delta":164363752},{"NoteNumber":51,"Velocity":19,"Duration":144480,"SoundDuration":144480,"Delta":164556393},{"NoteNumber":56,"Velocity":19,"Duration":144480,"SoundDuration":144480,"Delta":164556393},{"NoteNumber":60,"Velocity":23,"Duration":144480,"SoundDuration":144480,"Delta":164556393},{"NoteNumber":51,"Velocity":19,"Duration":144480,"SoundDuration":144480,"Delta":164749034},{"NoteNumber":56,"Velocity":19,"Duration":144480,"SoundDuration":144480,"Delta":164749034},{"NoteNumber":60,"Velocity":23,"Duration":144480,"SoundDuration":144480,"Delta":164749034},{"NoteNumber":51,"Velocity":21,"Duration":141083,"SoundDuration":141083,"Delta":164941675},{"NoteNumber":56,"Velocity":21,"Duration":141083,"SoundDuration":141083,"Delta":164941675},{"NoteNumber":60,"Velocity":25,"Duration":141083,"SoundDuration":141083,"Delta":164941675},{"NoteNumber":51,"Velocity":21,"Duration":141083,"SoundDuration":141083,"Delta":165129786},{"NoteNumber":60,"Velocity":25,"Duration":141083,"SoundDuration":141083,"Delta":165129786},{"NoteNumber":56,"Velocity":21,"Duration":141083,"SoundDuration":141083,"Delta":165129786},{"NoteNumber":60,"Velocity":25,"Duration":141083,"SoundDuration":141083,"Delta":165317897},{"NoteNumber":56,"Velocity":21,"Duration":141083,"SoundDuration":141083,"Delta":165317897},{"NoteNumber":51,"Velocity":21,"Duration":141083,"SoundDuration":141083,"Delta":165317897},{"NoteNumber":73,"Velocity":53,"Duration":286833,"SoundDuration":286833,"Delta":165506009},{"NoteNumber":60,"Velocity":32,"Duration":136587,"SoundDuration":136587,"Delta":165506009},{"NoteNumber":51,"Velocity":27,"Duration":136587,"SoundDuration":136587,"Delta":165506009},{"NoteNumber":56,"Velocity":27,"Duration":136587,"SoundDuration":136587,"Delta":165506009},{"NoteNumber":60,"Velocity":24,"Duration":136587,"SoundDuration":136587,"Delta":165688125},{"NoteNumber":51,"Velocity":20,"Duration":136587,"SoundDuration":136587,"Delta":165688125},{"NoteNumber":56,"Velocity":20,"Duration":136587,"SoundDuration":136587,"Delta":165688125},{"NoteNumber":72,"Velocity":53,"Duration":287151,"SoundDuration":287151,"Delta":165779183},{"NoteNumber":51,"Velocity":21,"Duration":136587,"SoundDuration":136587,"Delta":165870241},{"NoteNumber":60,"Velocity":25,"Duration":136587,"SoundDuration":136587,"Delta":165870241},{"NoteNumber":56,"Velocity":21,"Duration":136587,"SoundDuration":136587,"Delta":165870241},{"NoteNumber":71,"Velocity":53,"Duration":293514,"SoundDuration":293514,"Delta":166052358},{"NoteNumber":60,"Velocity":33,"Duration":139769,"SoundDuration":139769,"Delta":166052358},{"NoteNumber":56,"Velocity":28,"Duration":139769,"SoundDuration":139769,"Delta":166052358},{"NoteNumber":51,"Velocity":28,"Duration":139769,"SoundDuration":139769,"Delta":166052358},{"NoteNumber":56,"Velocity":21,"Duration":139769,"SoundDuration":139769,"Delta":166238716},{"NoteNumber":60,"Velocity":25,"Duration":139769,"SoundDuration":139769,"Delta":166238716},{"NoteNumber":51,"Velocity":21,"Duration":139769,"SoundDuration":139769,"Delta":166238716},{"NoteNumber":72,"Velocity":53,"Duration":266543,"SoundDuration":266543,"Delta":166331896},{"NoteNumber":60,"Velocity":25,"Duration":131106,"SoundDuration":131106,"Delta":166425075},{"NoteNumber":56,"Velocity":21,"Duration":131106,"SoundDuration":131106,"Delta":166425075},{"NoteNumber":51,"Velocity":21,"Duration":131106,"SoundDuration":131106,"Delta":166425075},{"NoteNumber":72,"Velocity":48,"Duration":133546,"SoundDuration":133546,"Delta":166598439},{"NoteNumber":37,"Velocity":33,"Duration":133546,"SoundDuration":133546,"Delta":166598439},{"NoteNumber":77,"Velocity":48,"Duration":991602,"SoundDuration":991602,"Delta":166731986},{"NoteNumber":53,"Velocity":19,"Duration":142423,"SoundDuration":142423,"Delta":166779461},{"NoteNumber":60,"Velocity":23,"Duration":142423,"SoundDuration":142423,"Delta":166779461},{"NoteNumber":49,"Velocity":19,"Duration":142423,"SoundDuration":142423,"Delta":166779461},{"NoteNumber":60,"Velocity":23,"Duration":142423,"SoundDuration":142423,"Delta":166969358},{"NoteNumber":53,"Velocity":19,"Duration":142423,"SoundDuration":142423,"Delta":166969358},{"NoteNumber":49,"Velocity":19,"Duration":142423,"SoundDuration":142423,"Delta":166969358},{"NoteNumber":57,"Velocity":30,"Duration":141083,"SoundDuration":141083,"Delta":167159255},{"NoteNumber":49,"Velocity":25,"Duration":141083,"SoundDuration":141083,"Delta":167159255},{"NoteNumber":53,"Velocity":25,"Duration":141083,"SoundDuration":141083,"Delta":167159255},{"NoteNumber":53,"Velocity":21,"Duration":141083,"SoundDuration":141083,"Delta":167347367},{"NoteNumber":49,"Velocity":21,"Duration":141083,"SoundDuration":141083,"Delta":167347367},{"NoteNumber":57,"Velocity":25,"Duration":141083,"SoundDuration":141083,"Delta":167347367},{"NoteNumber":49,"Velocity":21,"Duration":141083,"SoundDuration":141083,"Delta":167535478},{"NoteNumber":57,"Velocity":25,"Duration":141083,"SoundDuration":141083,"Delta":167535478},{"NoteNumber":53,"Velocity":21,"Duration":141083,"SoundDuration":141083,"Delta":167535478},{"NoteNumber":72,"Velocity":53,"Duration":286833,"SoundDuration":286833,"Delta":167723589},{"NoteNumber":49,"Velocity":27,"Duration":136587,"SoundDuration":136587,"Delta":167723589},{"NoteNumber":58,"Velocity":32,"Duration":136587,"SoundDuration":136587,"Delta":167723589},{"NoteNumber":53,"Velocity":27,"Duration":136587,"SoundDuration":136587,"Delta":167723589},{"NoteNumber":49,"Velocity":20,"Duration":136587,"SoundDuration":136587,"Delta":167905706},{"NoteNumber":53,"Velocity":20,"Duration":136587,"SoundDuration":136587,"Delta":167905706},{"NoteNumber":58,"Velocity":24,"Duration":136587,"SoundDuration":136587,"Delta":167905706},{"NoteNumber":70,"Velocity":53,"Duration":287151,"SoundDuration":287151,"Delta":167996764},{"NoteNumber":58,"Velocity":25,"Duration":136587,"SoundDuration":136587,"Delta":168087822},{"NoteNumber":49,"Velocity":21,"Duration":136587,"SoundDuration":136587,"Delta":168087822},{"NoteNumber":53,"Velocity":21,"Duration":136587,"SoundDuration":136587,"Delta":168087822},{"NoteNumber":69,"Velocity":53,"Duration":293514,"SoundDuration":293514,"Delta":168269938},{"NoteNumber":49,"Velocity":28,"Duration":139769,"SoundDuration":139769,"Delta":168269938},{"NoteNumber":58,"Velocity":33,"Duration":139769,"SoundDuration":139769,"Delta":168269938},{"NoteNumber":53,"Velocity":28,"Duration":139769,"SoundDuration":139769,"Delta":168269938},{"NoteNumber":49,"Velocity":21,"Duration":139769,"SoundDuration":139769,"Delta":168456297},{"NoteNumber":53,"Velocity":21,"Duration":139769,"SoundDuration":139769,"Delta":168456297},{"NoteNumber":58,"Velocity":25,"Duration":139769,"SoundDuration":139769,"Delta":168456297},{"NoteNumber":70,"Velocity":53,"Duration":268723,"SoundDuration":268723,"Delta":168549476},{"NoteNumber":53,"Velocity":21,"Duration":132559,"SoundDuration":132559,"Delta":168642656},{"NoteNumber":49,"Velocity":21,"Duration":132559,"SoundDuration":132559,"Delta":168642656},{"NoteNumber":58,"Velocity":25,"Duration":132559,"SoundDuration":132559,"Delta":168642656},{"NoteNumber":70,"Velocity":48,"Duration":130639,"SoundDuration":130639,"Delta":168818200},{"NoteNumber":36,"Velocity":33,"Duration":130639,"SoundDuration":130639,"Delta":168818200},{"NoteNumber":75,"Velocity":48,"Duration":997776,"SoundDuration":997776,"Delta":168948839},{"NoteNumber":48,"Velocity":19,"Duration":144480,"SoundDuration":144480,"Delta":168996999},{"NoteNumber":51,"Velocity":19,"Duration":144480,"SoundDuration":144480,"Delta":168996999},{"NoteNumber":58,"Velocity":23,"Duration":144480,"SoundDuration":144480,"Delta":168996999},{"NoteNumber":51,"Velocity":19,"Duration":144480,"SoundDuration":144480,"Delta":169189640},{"NoteNumber":48,"Velocity":19,"Duration":144480,"SoundDuration":144480,"Delta":169189640},{"NoteNumber":58,"Velocity":23,"Duration":144480,"SoundDuration":144480,"Delta":169189640},{"NoteNumber":48,"Velocity":25,"Duration":141083,"SoundDuration":141083,"Delta":169382281},{"NoteNumber":55,"Velocity":30,"Duration":141083,"SoundDuration":141083,"Delta":169382281},{"NoteNumber":51,"Velocity":25,"Duration":141083,"SoundDuration":141083,"Delta":169382281},{"NoteNumber":55,"Velocity":25,"Duration":141083,"SoundDuration":141083,"Delta":169570393},{"NoteNumber":51,"Velocity":21,"Duration":141083,"SoundDuration":141083,"Delta":169570393},{"NoteNumber":48,"Velocity":21,"Duration":141083,"SoundDuration":141083,"Delta":169570393},{"NoteNumber":48,"Velocity":21,"Duration":141083,"SoundDuration":141083,"Delta":169758504},{"NoteNumber":51,"Velocity":21,"Duration":141083,"SoundDuration":141083,"Delta":169758504},{"NoteNumber":55,"Velocity":25,"Duration":141083,"SoundDuration":141083,"Delta":169758504},{"NoteNumber":73,"Velocity":58,"Duration":286833,"SoundDuration":286833,"Delta":169946615},{"NoteNumber":56,"Velocity":35,"Duration":136587,"SoundDuration":136587,"Delta":169946615},{"NoteNumber":51,"Velocity":29,"Duration":136587,"SoundDuration":136587,"Delta":169946615},{"NoteNumber":48,"Velocity":29,"Duration":136587,"SoundDuration":136587,"Delta":169946615},{"NoteNumber":51,"Velocity":22,"Duration":136587,"SoundDuration":136587,"Delta":170128732},{"NoteNumber":48,"Velocity":22,"Duration":136587,"SoundDuration":136587,"Delta":170128732},{"NoteNumber":56,"Velocity":27,"Duration":136587,"SoundDuration":136587,"Delta":170128732},{"NoteNumber":72,"Velocity":60,"Duration":287151,"SoundDuration":287151,"Delta":170219790},{"NoteNumber":51,"Velocity":24,"Duration":136587,"SoundDuration":136587,"Delta":170310848},{"NoteNumber":56,"Velocity":29,"Duration":136587,"SoundDuration":136587,"Delta":170310848},{"NoteNumber":48,"Velocity":24,"Duration":136587,"SoundDuration":136587,"Delta":170310848},{"NoteNumber":70,"Velocity":63,"Duration":293514,"SoundDuration":293514,"Delta":170492964},{"NoteNumber":48,"Velocity":33,"Duration":139769,"SoundDuration":139769,"Delta":170492964},{"NoteNumber":56,"Velocity":39,"Duration":139769,"SoundDuration":139769,"Delta":170492964},{"NoteNumber":51,"Velocity":33,"Duration":139769,"SoundDuration":139769,"Delta":170492964},{"NoteNumber":48,"Velocity":25,"Duration":139769,"SoundDuration":139769,"Delta":170679323},{"NoteNumber":56,"Velocity":30,"Duration":139769,"SoundDuration":139769,"Delta":170679323},{"NoteNumber":51,"Velocity":25,"Duration":139769,"SoundDuration":139769,"Delta":170679323},{"NoteNumber":68,"Velocity":66,"Duration":294695,"SoundDuration":294695,"Delta":170772502},{"NoteNumber":51,"Velocity":26,"Duration":149874,"SoundDuration":149874,"Delta":170865682},{"NoteNumber":48,"Velocity":26,"Duration":149874,"SoundDuration":149874,"Delta":170865682},{"NoteNumber":56,"Velocity":31,"Duration":149874,"SoundDuration":149874,"Delta":170865682},{"NoteNumber":67,"Velocity":57,"Duration":268288,"SoundDuration":268288,"Delta":171067198},{"NoteNumber":75,"Velocity":68,"Duration":268288,"SoundDuration":268288,"Delta":171067198},{"NoteNumber":37,"Velocity":42,"Duration":134144,"SoundDuration":134144,"Delta":171067198},{"NoteNumber":53,"Velocity":30,"Duration":134144,"SoundDuration":134144,"Delta":171246057},{"NoteNumber":49,"Velocity":25,"Duration":134144,"SoundDuration":134144,"Delta":171246057},{"NoteNumber":65,"Velocity":56,"Duration":268288,"SoundDuration":268288,"Delta":171335487},{"NoteNumber":73,"Velocity":66,"Duration":268288,"SoundDuration":268288,"Delta":171335487},{"NoteNumber":53,"Velocity":31,"Duration":134144,"SoundDuration":134144,"Delta":171424916},{"NoteNumber":49,"Velocity":26,"Duration":134144,"SoundDuration":134144,"Delta":171424916},{"NoteNumber":63,"Velocity":53,"Duration":273174,"SoundDuration":273174,"Delta":171603775},{"NoteNumber":72,"Velocity":63,"Duration":273174,"SoundDuration":273174,"Delta":171603775},{"NoteNumber":49,"Velocity":33,"Duration":136587,"SoundDuration":136587,"Delta":171603775},{"NoteNumber":53,"Velocity":39,"Duration":136587,"SoundDuration":136587,"Delta":171603775},{"NoteNumber":49,"Velocity":24,"Duration":136587,"SoundDuration":136587,"Delta":171785891},{"NoteNumber":53,"Velocity":29,"Duration":136587,"SoundDuration":136587,"Delta":171785891},{"NoteNumber":61,"Velocity":51,"Duration":291513,"SoundDuration":291513,"Delta":171876950},{"NoteNumber":70,"Velocity":60,"Duration":291513,"SoundDuration":291513,"Delta":171876950},{"NoteNumber":53,"Velocity":28,"Duration":148813,"SoundDuration":148813,"Delta":171968008},{"NoteNumber":49,"Velocity":23,"Duration":148813,"SoundDuration":148813,"Delta":171968008},{"NoteNumber":60,"Velocity":49,"Duration":573124,"SoundDuration":573124,"Delta":172168464},{"NoteNumber":68,"Velocity":58,"Duration":573124,"SoundDuration":573124,"Delta":172168464},{"NoteNumber":39,"Velocity":36,"Duration":136587,"SoundDuration":136587,"Delta":172168464},{"NoteNumber":51,"Velocity":21,"Duration":136587,"SoundDuration":136587,"Delta":172350580},{"NoteNumber":56,"Velocity":26,"Duration":136587,"SoundDuration":136587,"Delta":172350580},{"NoteNumber":56,"Velocity":26,"Duration":154437,"SoundDuration":154437,"Delta":172532696},{"NoteNumber":51,"Velocity":22,"Duration":154437,"SoundDuration":154437,"Delta":172532696},{"NoteNumber":63,"Velocity":55,"Duration":419307,"SoundDuration":419307,"Delta":172741588},{"NoteNumber":72,"Velocity":55,"Duration":419307,"SoundDuration":419307,"Delta":172741588},{"NoteNumber":39,"Velocity":34,"Duration":139769,"SoundDuration":139769,"Delta":172741588},{"NoteNumber":51,"Velocity":21,"Duration":139769,"SoundDuration":139769,"Delta":172927947},{"NoteNumber":55,"Velocity":26,"Duration":139769,"SoundDuration":139769,"Delta":172927947},{"NoteNumber":51,"Velocity":21,"Duration":149874,"SoundDuration":149874,"Delta":173114306},{"NoteNumber":55,"Velocity":25,"Duration":149874,"SoundDuration":149874,"Delta":173114306},{"NoteNumber":61,"Velocity":54,"Duration":154926,"SoundDuration":154926,"Delta":173160895},{"NoteNumber":70,"Velocity":54,"Duration":154926,"SoundDuration":154926,"Delta":173160895},{"NoteNumber":60,"Velocity":40,"Duration":337121,"SoundDuration":337121,"Delta":173315822},{"NoteNumber":68,"Velocity":48,"Duration":577922,"SoundDuration":577922,"Delta":173315822},{"NoteNumber":44,"Velocity":33,"Duration":144480,"SoundDuration":144480,"Delta":173315822},{"NoteNumber":60,"Velocity":23,"Duration":337121,"SoundDuration":337121,"Delta":173508463},{"NoteNumber":51,"Velocity":19,"Duration":144480,"SoundDuration":144480,"Delta":173508463},{"NoteNumber":56,"Velocity":19,"Duration":144480,"SoundDuration":144480,"Delta":173508463},{"NoteNumber":56,"Velocity":19,"Duration":144480,"SoundDuration":144480,"Delta":173701104},{"NoteNumber":60,"Velocity":23,"Duration":192641,"SoundDuration":192641,"Delta":173701104},{"NoteNumber":51,"Velocity":19,"Duration":144480,"SoundDuration":144480,"Delta":173701104},{"NoteNumber":60,"Velocity":25,"Duration":141083,"SoundDuration":141083,"Delta":173893745},{"NoteNumber":51,"Velocity":21,"Duration":141083,"SoundDuration":141083,"Delta":173893745},{"NoteNumber":56,"Velocity":21,"Duration":141083,"SoundDuration":141083,"Delta":173893745},{"NoteNumber":60,"Velocity":25,"Duration":141083,"SoundDuration":141083,"Delta":174081856},{"NoteNumber":56,"Velocity":21,"Duration":141083,"SoundDuration":141083,"Delta":174081856},{"NoteNumber":51,"Velocity":21,"Duration":141083,"SoundDuration":141083,"Delta":174081856},{"NoteNumber":60,"Velocity":25,"Duration":141083,"SoundDuration":141083,"Delta":174269968},{"NoteNumber":51,"Velocity":21,"Duration":141083,"SoundDuration":141083,"Delta":174269968},{"NoteNumber":56,"Velocity":21,"Duration":141083,"SoundDuration":141083,"Delta":174269968},{"NoteNumber":73,"Velocity":53,"Duration":286833,"SoundDuration":286833,"Delta":174458079},{"NoteNumber":60,"Velocity":32,"Duration":136587,"SoundDuration":136587,"Delta":174458079},{"NoteNumber":51,"Velocity":27,"Duration":136587,"SoundDuration":136587,"Delta":174458079},{"NoteNumber":56,"Velocity":27,"Duration":136587,"SoundDuration":136587,"Delta":174458079},{"NoteNumber":56,"Velocity":20,"Duration":136587,"SoundDuration":136587,"Delta":174640195},{"NoteNumber":60,"Velocity":24,"Duration":136587,"SoundDuration":136587,"Delta":174640195},{"NoteNumber":51,"Velocity":20,"Duration":136587,"SoundDuration":136587,"Delta":174640195},{"NoteNumber":72,"Velocity":53,"Duration":287151,"SoundDuration":287151,"Delta":174731254},{"NoteNumber":51,"Velocity":21,"Duration":136587,"SoundDuration":136587,"Delta":174822312},{"NoteNumber":56,"Velocity":21,"Duration":136587,"SoundDuration":136587,"Delta":174822312},{"NoteNumber":60,"Velocity":25,"Duration":136587,"SoundDuration":136587,"Delta":174822312},{"NoteNumber":71,"Velocity":53,"Duration":293514,"SoundDuration":293514,"Delta":175004428},{"NoteNumber":60,"Velocity":33,"Duration":139769,"SoundDuration":139769,"Delta":175004428},{"NoteNumber":56,"Velocity":28,"Duration":139769,"SoundDuration":139769,"Delta":175004428},{"NoteNumber":51,"Velocity":28,"Duration":139769,"SoundDuration":139769,"Delta":175004428},{"NoteNumber":51,"Velocity":21,"Duration":139769,"SoundDuration":139769,"Delta":175190787},{"NoteNumber":56,"Velocity":21,"Duration":139769,"SoundDuration":139769,"Delta":175190787},{"NoteNumber":60,"Velocity":25,"Duration":139769,"SoundDuration":139769,"Delta":175190787},{"NoteNumber":72,"Velocity":53,"Duration":289290,"SoundDuration":289290,"Delta":175283966},{"NoteNumber":51,"Velocity":21,"Duration":146270,"SoundDuration":146270,"Delta":175377145},{"NoteNumber":60,"Velocity":25,"Duration":146270,"SoundDuration":146270,"Delta":175377145},{"NoteNumber":56,"Velocity":21,"Duration":146270,"SoundDuration":146270,"Delta":175377145},{"NoteNumber":84,"Velocity":53,"Duration":297088,"SoundDuration":297088,"Delta":175573257},{"NoteNumber":77,"Velocity":48,"Duration":1132026,"SoundDuration":1132026,"Delta":175573257},{"NoteNumber":37,"Velocity":33,"Duration":140423,"SoundDuration":140423,"Delta":175573257},{"NoteNumber":49,"Velocity":19,"Duration":142423,"SoundDuration":142423,"Delta":175761154},{"NoteNumber":53,"Velocity":19,"Duration":142423,"SoundDuration":142423,"Delta":175761154},{"NoteNumber":60,"Velocity":23,"Duration":142423,"SoundDuration":142423,"Delta":175761154},{"NoteNumber":82,"Velocity":53,"Duration":298954,"SoundDuration":298954,"Delta":175856103},{"NoteNumber":60,"Velocity":23,"Duration":142423,"SoundDuration":142423,"Delta":175951051},{"NoteNumber":53,"Velocity":19,"Duration":142423,"SoundDuration":142423,"Delta":175951051},{"NoteNumber":49,"Velocity":19,"Duration":142423,"SoundDuration":142423,"Delta":175951051},{"NoteNumber":81,"Velocity":53,"Duration":296275,"SoundDuration":296275,"Delta":176140949},{"NoteNumber":49,"Velocity":25,"Duration":141083,"SoundDuration":141083,"Delta":176140949},{"NoteNumber":60,"Velocity":30,"Duration":141083,"SoundDuration":141083,"Delta":176140949},{"NoteNumber":53,"Velocity":25,"Duration":141083,"SoundDuration":141083,"Delta":176140949},{"NoteNumber":53,"Velocity":21,"Duration":141083,"SoundDuration":141083,"Delta":176329060},{"NoteNumber":60,"Velocity":25,"Duration":141083,"SoundDuration":141083,"Delta":176329060},{"NoteNumber":49,"Velocity":21,"Duration":141083,"SoundDuration":141083,"Delta":176329060},{"NoteNumber":82,"Velocity":53,"Duration":282167,"SoundDuration":282167,"Delta":176423116},{"NoteNumber":53,"Velocity":21,"Duration":141083,"SoundDuration":141083,"Delta":176517171},{"NoteNumber":49,"Velocity":21,"Duration":141083,"SoundDuration":141083,"Delta":176517171},{"NoteNumber":60,"Velocity":25,"Duration":141083,"SoundDuration":141083,"Delta":176517171},{"NoteNumber":72,"Velocity":53,"Duration":286833,"SoundDuration":286833,"Delta":176705283},{"NoteNumber":58,"Velocity":32,"Duration":136587,"SoundDuration":136587,"Delta":176705283},{"NoteNumber":53,"Velocity":27,"Duration":136587,"SoundDuration":136587,"Delta":176705283},{"NoteNumber":49,"Velocity":27,"Duration":136587,"SoundDuration":136587,"Delta":176705283},{"NoteNumber":53,"Velocity":20,"Duration":136587,"SoundDuration":136587,"Delta":176887399},{"NoteNumber":58,"Velocity":24,"Duration":136587,"SoundDuration":136587,"Delta":176887399},{"NoteNumber":49,"Velocity":20,"Duration":136587,"SoundDuration":136587,"Delta":176887399},{"NoteNumber":70,"Velocity":53,"Duration":287151,"SoundDuration":287151,"Delta":176978457},{"NoteNumber":53,"Velocity":21,"Duration":136587,"SoundDuration":136587,"Delta":177069515},{"NoteNumber":58,"Velocity":25,"Duration":136587,"SoundDuration":136587,"Delta":177069515},{"NoteNumber":49,"Velocity":21,"Duration":136587,"SoundDuration":136587,"Delta":177069515},{"NoteNumber":69,"Velocity":53,"Duration":293514,"SoundDuration":293514,"Delta":177251632},{"NoteNumber":53,"Velocity":28,"Duration":139769,"SoundDuration":139769,"Delta":177251632},{"NoteNumber":58,"Velocity":33,"Duration":139769,"SoundDuration":139769,"Delta":177251632},{"NoteNumber":49,"Velocity":28,"Duration":139769,"SoundDuration":139769,"Delta":177251632},{"NoteNumber":53,"Velocity":21,"Duration":139769,"SoundDuration":139769,"Delta":177437990},{"NoteNumber":49,"Velocity":21,"Duration":139769,"SoundDuration":139769,"Delta":177437990},{"NoteNumber":58,"Velocity":25,"Duration":139769,"SoundDuration":139769,"Delta":177437990},{"NoteNumber":70,"Velocity":53,"Duration":284249,"SoundDuration":284249,"Delta":177531170},{"NoteNumber":49,"Velocity":21,"Duration":142910,"SoundDuration":142910,"Delta":177624349},{"NoteNumber":58,"Velocity":25,"Duration":142910,"SoundDuration":142910,"Delta":177624349},{"NoteNumber":53,"Velocity":21,"Duration":142910,"SoundDuration":142910,"Delta":177624349},{"NoteNumber":82,"Velocity":58,"Duration":285564,"SoundDuration":285564,"Delta":177815420},{"NoteNumber":75,"Velocity":48,"Duration":1138859,"SoundDuration":1138859,"Delta":177815420},{"NoteNumber":36,"Velocity":33,"Duration":141083,"SoundDuration":141083,"Delta":177815420},{"NoteNumber":58,"Velocity":23,"Duration":144480,"SoundDuration":144480,"Delta":178004663},{"NoteNumber":51,"Velocity":19,"Duration":144480,"SoundDuration":144480,"Delta":178004663},{"NoteNumber":48,"Velocity":19,"Duration":144480,"SoundDuration":144480,"Delta":178004663},{"NoteNumber":80,"Velocity":60,"Duration":288961,"SoundDuration":288961,"Delta":178100984},{"NoteNumber":58,"Velocity":23,"Duration":144480,"SoundDuration":144480,"Delta":178197304},{"NoteNumber":48,"Velocity":19,"Duration":144480,"SoundDuration":144480,"Delta":178197304},{"NoteNumber":51,"Velocity":19,"Duration":144480,"SoundDuration":144480,"Delta":178197304},{"NoteNumber":79,"Velocity":63,"Duration":282166,"SoundDuration":282166,"Delta":178389945},{"NoteNumber":51,"Velocity":25,"Duration":141083,"SoundDuration":141083,"Delta":178389945},{"NoteNumber":58,"Velocity":30,"Duration":141083,"SoundDuration":141083,"Delta":178389945},{"NoteNumber":48,"Velocity":25,"Duration":141083,"SoundDuration":141083,"Delta":178389945},{"NoteNumber":51,"Velocity":21,"Duration":141083,"SoundDuration":141083,"Delta":178578057},{"NoteNumber":48,"Velocity":21,"Duration":141083,"SoundDuration":141083,"Delta":178578057},{"NoteNumber":58,"Velocity":25,"Duration":141083,"SoundDuration":141083,"Delta":178578057},{"NoteNumber":80,"Velocity":66,"Duration":282167,"SoundDuration":282167,"Delta":178672112},{"NoteNumber":58,"Velocity":25,"Duration":141083,"SoundDuration":141083,"Delta":178766168},{"NoteNumber":48,"Velocity":21,"Duration":141083,"SoundDuration":141083,"Delta":178766168},{"NoteNumber":51,"Velocity":21,"Duration":141083,"SoundDuration":141083,"Delta":178766168},{"NoteNumber":73,"Velocity":58,"Duration":286833,"SoundDuration":286833,"Delta":178954279},{"NoteNumber":51,"Velocity":29,"Duration":136587,"SoundDuration":136587,"Delta":178954279},{"NoteNumber":48,"Velocity":29,"Duration":136587,"SoundDuration":136587,"Delta":178954279},{"NoteNumber":56,"Velocity":35,"Duration":136587,"SoundDuration":136587,"Delta":178954279},{"NoteNumber":56,"Velocity":27,"Duration":136587,"SoundDuration":136587,"Delta":179136396},{"NoteNumber":48,"Velocity":22,"Duration":136587,"SoundDuration":136587,"Delta":179136396},{"NoteNumber":51,"Velocity":22,"Duration":136587,"SoundDuration":136587,"Delta":179136396},{"NoteNumber":72,"Velocity":60,"Duration":287151,"SoundDuration":287151,"Delta":179227454},{"NoteNumber":51,"Velocity":24,"Duration":136587,"SoundDuration":136587,"Delta":179318512},{"NoteNumber":48,"Velocity":24,"Duration":136587,"SoundDuration":136587,"Delta":179318512},{"NoteNumber":56,"Velocity":29,"Duration":136587,"SoundDuration":136587,"Delta":179318512},{"NoteNumber":70,"Velocity":63,"Duration":293514,"SoundDuration":293514,"Delta":179500628},{"NoteNumber":51,"Velocity":33,"Duration":139769,"SoundDuration":139769,"Delta":179500628},{"NoteNumber":56,"Velocity":39,"Duration":139769,"SoundDuration":139769,"Delta":179500628},{"NoteNumber":48,"Velocity":33,"Duration":139769,"SoundDuration":139769,"Delta":179500628},{"NoteNumber":51,"Velocity":25,"Duration":139769,"SoundDuration":139769,"Delta":179686987},{"NoteNumber":48,"Velocity":25,"Duration":139769,"SoundDuration":139769,"Delta":179686987},{"NoteNumber":56,"Velocity":30,"Duration":139769,"SoundDuration":139769,"Delta":179686987},{"NoteNumber":68,"Velocity":66,"Duration":294695,"SoundDuration":294695,"Delta":179780166},{"NoteNumber":51,"Velocity":26,"Duration":149874,"SoundDuration":149874,"Delta":179873346},{"NoteNumber":56,"Velocity":31,"Duration":149874,"SoundDuration":149874,"Delta":179873346},{"NoteNumber":48,"Velocity":26,"Duration":149874,"SoundDuration":149874,"Delta":179873346},{"NoteNumber":75,"Velocity":57,"Duration":268288,"SoundDuration":268288,"Delta":180074862},{"NoteNumber":67,"Velocity":57,"Duration":268288,"SoundDuration":268288,"Delta":180074862},{"NoteNumber":79,"Velocity":68,"Duration":268288,"SoundDuration":268288,"Delta":180074862},{"NoteNumber":37,"Velocity":42,"Duration":134144,"SoundDuration":134144,"Delta":180074862},{"NoteNumber":56,"Velocity":30,"Duration":134144,"SoundDuration":134144,"Delta":180253721},{"NoteNumber":49,"Velocity":25,"Duration":134144,"SoundDuration":134144,"Delta":180253721},{"NoteNumber":53,"Velocity":25,"Duration":134144,"SoundDuration":134144,"Delta":180253721},{"NoteNumber":73,"Velocity":56,"Duration":268288,"SoundDuration":268288,"Delta":180343151},{"NoteNumber":65,"Velocity":56,"Duration":268288,"SoundDuration":268288,"Delta":180343151},{"NoteNumber":77,"Velocity":66,"Duration":268288,"SoundDuration":268288,"Delta":180343151},{"NoteNumber":53,"Velocity":26,"Duration":134144,"SoundDuration":134144,"Delta":180432580},{"NoteNumber":56,"Velocity":31,"Duration":134144,"SoundDuration":134144,"Delta":180432580},{"NoteNumber":49,"Velocity":26,"Duration":134144,"SoundDuration":134144,"Delta":180432580},{"NoteNumber":72,"Velocity":53,"Duration":273174,"SoundDuration":273174,"Delta":180611439},{"NoteNumber":63,"Velocity":53,"Duration":273174,"SoundDuration":273174,"Delta":180611439},{"NoteNumber":75,"Velocity":63,"Duration":273174,"SoundDuration":273174,"Delta":180611439},{"NoteNumber":53,"Velocity":33,"Duration":136587,"SoundDuration":136587,"Delta":180611439},{"NoteNumber":57,"Velocity":39,"Duration":136587,"SoundDuration":136587,"Delta":180611439},{"NoteNumber":49,"Velocity":33,"Duration":136587,"SoundDuration":136587,"Delta":180611439},{"NoteNumber":53,"Velocity":24,"Duration":136587,"SoundDuration":136587,"Delta":180793555},{"NoteNumber":49,"Velocity":24,"Duration":136587,"SoundDuration":136587,"Delta":180793555},{"NoteNumber":57,"Velocity":29,"Duration":136587,"SoundDuration":136587,"Delta":180793555},{"NoteNumber":70,"Velocity":51,"Duration":291513,"SoundDuration":291513,"Delta":180884614},{"NoteNumber":61,"Velocity":51,"Duration":291513,"SoundDuration":291513,"Delta":180884614},{"NoteNumber":73,"Velocity":60,"Duration":291513,"SoundDuration":291513,"Delta":180884614},{"NoteNumber":58,"Velocity":28,"Duration":148813,"SoundDuration":148813,"Delta":180975672},{"NoteNumber":49,"Velocity":23,"Duration":148813,"SoundDuration":148813,"Delta":180975672},{"NoteNumber":53,"Velocity":23,"Duration":148813,"SoundDuration":148813,"Delta":180975672},{"NoteNumber":72,"Velocity":58,"Duration":573124,"SoundDuration":573124,"Delta":181176128},{"NoteNumber":60,"Velocity":49,"Duration":573124,"SoundDuration":573124,"Delta":181176128},{"NoteNumber":68,"Velocity":49,"Duration":573124,"SoundDuration":573124,"Delta":181176128},{"NoteNumber":39,"Velocity":36,"Duration":136587,"SoundDuration":136587,"Delta":181176128},{"NoteNumber":51,"Velocity":21,"Duration":136587,"SoundDuration":136587,"Delta":181358244},{"NoteNumber":56,"Velocity":26,"Duration":136587,"SoundDuration":136587,"Delta":181358244},{"NoteNumber":51,"Velocity":22,"Duration":154437,"SoundDuration":154437,"Delta":181540360},{"NoteNumber":56,"Velocity":26,"Duration":154437,"SoundDuration":154437,"Delta":181540360},{"NoteNumber":61,"Velocity":46,"Duration":574233,"SoundDuration":574233,"Delta":181749252},{"NoteNumber":67,"Velocity":46,"Duration":574233,"SoundDuration":574233,"Delta":181749252},{"NoteNumber":73,"Velocity":55,"Duration":419307,"SoundDuration":419307,"Delta":181749252},{"NoteNumber":39,"Velocity":34,"Duration":139769,"SoundDuration":139769,"Delta":181749252},{"NoteNumber":58,"Velocity":26,"Duration":139769,"SoundDuration":139769,"Delta":181935611},{"NoteNumber":55,"Velocity":21,"Duration":139769,"SoundDuration":139769,"Delta":181935611},{"NoteNumber":51,"Velocity":21,"Duration":139769,"SoundDuration":139769,"Delta":181935611},{"NoteNumber":58,"Velocity":25,"Duration":149874,"SoundDuration":149874,"Delta":182121970},{"NoteNumber":55,"Velocity":21,"Duration":149874,"SoundDuration":149874,"Delta":182121970},{"NoteNumber":51,"Velocity":21,"Duration":149874,"SoundDuration":149874,"Delta":182121970},{"NoteNumber":70,"Velocity":54,"Duration":154926,"SoundDuration":154926,"Delta":182168559},{"NoteNumber":56,"Velocity":40,"Duration":1688605,"SoundDuration":1688605,"Delta":182323486},{"NoteNumber":63,"Velocity":40,"Duration":1688605,"SoundDuration":1688605,"Delta":182323486},{"NoteNumber":60,"Velocity":40,"Duration":1688605,"SoundDuration":1688605,"Delta":182323486},{"NoteNumber":68,"Velocity":48,"Duration":1688605,"SoundDuration":1688605,"Delta":182323486},{"NoteNumber":32,"Velocity":33,"Duration":1688605,"SoundDuration":1688605,"Delta":182323486},{"NoteNumber":44,"Velocity":33,"Duration":144480,"SoundDuration":144480,"Delta":182323486},{"NoteNumber":51,"Velocity":23,"Duration":144480,"SoundDuration":144480,"Delta":182516127},{"NoteNumber":44,"Velocity":19,"Duration":144480,"SoundDuration":144480,"Delta":182516127},{"NoteNumber":48,"Velocity":21,"Duration":144480,"SoundDuration":144480,"Delta":182516127},{"NoteNumber":48,"Velocity":19,"Duration":144480,"SoundDuration":144480,"Delta":182708768},{"NoteNumber":44,"Velocity":19,"Duration":144480,"SoundDuration":144480,"Delta":182708768},{"NoteNumber":51,"Velocity":23,"Duration":144480,"SoundDuration":144480,"Delta":182708768},{"NoteNumber":44,"Velocity":21,"Duration":141083,"SoundDuration":141083,"Delta":182901409},{"NoteNumber":48,"Velocity":21,"Duration":141083,"SoundDuration":141083,"Delta":182901409},{"NoteNumber":51,"Velocity":25,"Duration":141083,"SoundDuration":141083,"Delta":182901409},{"NoteNumber":48,"Velocity":21,"Duration":141083,"SoundDuration":141083,"Delta":183089520},{"NoteNumber":51,"Velocity":25,"Duration":141083,"SoundDuration":141083,"Delta":183089520},{"NoteNumber":44,"Velocity":21,"Duration":141083,"SoundDuration":141083,"Delta":183089520},{"NoteNumber":51,"Velocity":25,"Duration":141083,"SoundDuration":141083,"Delta":183277632},{"NoteNumber":48,"Velocity":21,"Duration":141083,"SoundDuration":141083,"Delta":183277632},{"NoteNumber":44,"Velocity":21,"Duration":141083,"SoundDuration":141083,"Delta":183277632},{"NoteNumber":44,"Velocity":27,"Duration":136587,"SoundDuration":136587,"Delta":183465743},{"NoteNumber":51,"Velocity":32,"Duration":136587,"SoundDuration":136587,"Delta":183465743},{"NoteNumber":48,"Velocity":27,"Duration":136587,"SoundDuration":136587,"Delta":183465743},{"NoteNumber":44,"Velocity":20,"Duration":136587,"SoundDuration":136587,"Delta":183647859},{"NoteNumber":51,"Velocity":24,"Duration":136587,"SoundDuration":136587,"Delta":183647859},{"NoteNumber":48,"Velocity":27,"Duration":136587,"SoundDuration":136587,"Delta":183647859},{"NoteNumber":44,"Velocity":21,"Duration":136587,"SoundDuration":136587,"Delta":183829976},{"NoteNumber":48,"Velocity":21,"Duration":136587,"SoundDuration":136587,"Delta":183829976},{"NoteNumber":51,"Velocity":25,"Duration":136587,"SoundDuration":136587,"Delta":183829976},{"NoteNumber":60,"Velocity":40,"Duration":419307,"SoundDuration":419307,"Delta":184012092},{"NoteNumber":51,"Velocity":33,"Duration":139769,"SoundDuration":139769,"Delta":184012092},{"NoteNumber":48,"Velocity":28,"Duration":139769,"SoundDuration":139769,"Delta":184012092},{"NoteNumber":44,"Velocity":28,"Duration":139769,"SoundDuration":139769,"Delta":184012092},{"NoteNumber":44,"Velocity":21,"Duration":139769,"SoundDuration":139769,"Delta":184198451},{"NoteNumber":48,"Velocity":21,"Duration":139769,"SoundDuration":139769,"Delta":184198451},{"NoteNumber":51,"Velocity":25,"Duration":139769,"SoundDuration":139769,"Delta":184198451},{"NoteNumber":44,"Velocity":21,"Duration":145894,"SoundDuration":145894,"Delta":184384809},{"NoteNumber":48,"Velocity":21,"Duration":145894,"SoundDuration":145894,"Delta":184384809},{"NoteNumber":51,"Velocity":25,"Duration":145894,"SoundDuration":145894,"Delta":184384809},{"NoteNumber":63,"Velocity":37,"Duration":148957,"SoundDuration":148957,"Delta":184431399},{"NoteNumber":56,"Velocity":37,"Duration":433442,"SoundDuration":433442,"Delta":184580356},{"NoteNumber":68,"Velocity":44,"Duration":433442,"SoundDuration":433442,"Delta":184580356},{"NoteNumber":44,"Velocity":33,"Duration":144480,"SoundDuration":144480,"Delta":184580356},{"NoteNumber":32,"Velocity":33,"Duration":1142257,"SoundDuration":1142257,"Delta":184580356},{"NoteNumber":51,"Velocity":23,"Duration":144480,"SoundDuration":144480,"Delta":184772997},{"NoteNumber":44,"Velocity":19,"Duration":144480,"SoundDuration":144480,"Delta":184772997},{"NoteNumber":48,"Velocity":21,"Duration":144480,"SoundDuration":144480,"Delta":184772997},{"NoteNumber":48,"Velocity":19,"Duration":144480,"SoundDuration":144480,"Delta":184965638},{"NoteNumber":44,"Velocity":19,"Duration":144480,"SoundDuration":144480,"Delta":184965638},{"NoteNumber":51,"Velocity":23,"Duration":144480,"SoundDuration":144480,"Delta":184965638},{"NoteNumber":56,"Velocity":34,"Duration":423250,"SoundDuration":423250,"Delta":185158279},{"NoteNumber":68,"Velocity":40,"Duration":423250,"SoundDuration":423250,"Delta":185158279},{"NoteNumber":44,"Velocity":21,"Duration":141083,"SoundDuration":141083,"Delta":185158279},{"NoteNumber":48,"Velocity":21,"Duration":141083,"SoundDuration":141083,"Delta":185158279},{"NoteNumber":51,"Velocity":25,"Duration":141083,"SoundDuration":141083,"Delta":185158279},{"NoteNumber":48,"Velocity":21,"Duration":141083,"SoundDuration":141083,"Delta":185346391},{"NoteNumber":51,"Velocity":25,"Duration":141083,"SoundDuration":141083,"Delta":185346391},{"NoteNumber":44,"Velocity":21,"Duration":141083,"SoundDuration":141083,"Delta":185346391},{"NoteNumber":48,"Velocity":21,"Duration":141083,"SoundDuration":141083,"Delta":185534502},{"NoteNumber":44,"Velocity":21,"Duration":141083,"SoundDuration":141083,"Delta":185534502},{"NoteNumber":51,"Velocity":25,"Duration":141083,"SoundDuration":141083,"Delta":185534502},{"NoteNumber":56,"Velocity":34,"Duration":409761,"SoundDuration":409761,"Delta":185722613},{"NoteNumber":68,"Velocity":40,"Duration":409761,"SoundDuration":409761,"Delta":185722613},{"NoteNumber":51,"Velocity":32,"Duration":136587,"SoundDuration":136587,"Delta":185722613},{"NoteNumber":48,"Velocity":27,"Duration":136587,"SoundDuration":136587,"Delta":185722613},{"NoteNumber":44,"Velocity":27,"Duration":136587,"SoundDuration":136587,"Delta":185722613},{"NoteNumber":48,"Velocity":27,"Duration":136587,"SoundDuration":136587,"Delta":185904730},{"NoteNumber":44,"Velocity":20,"Duration":136587,"SoundDuration":136587,"Delta":185904730},{"NoteNumber":51,"Velocity":24,"Duration":136587,"SoundDuration":136587,"Delta":185904730},{"NoteNumber":51,"Velocity":25,"Duration":136587,"SoundDuration":136587,"Delta":186086846},{"NoteNumber":44,"Velocity":21,"Duration":136587,"SoundDuration":136587,"Delta":186086846},{"NoteNumber":48,"Velocity":21,"Duration":136587,"SoundDuration":136587,"Delta":186086846},{"NoteNumber":56,"Velocity":34,"Duration":419307,"SoundDuration":419307,"Delta":186268962},{"NoteNumber":68,"Velocity":40,"Duration":419307,"SoundDuration":419307,"Delta":186268962},{"NoteNumber":44,"Velocity":28,"Duration":139769,"SoundDuration":139769,"Delta":186268962},{"NoteNumber":51,"Velocity":33,"Duration":139769,"SoundDuration":139769,"Delta":186268962},{"NoteNumber":48,"Velocity":28,"Duration":139769,"SoundDuration":139769,"Delta":186268962},{"NoteNumber":51,"Velocity":25,"Duration":139769,"SoundDuration":139769,"Delta":186455321},{"NoteNumber":48,"Velocity":21,"Duration":139769,"SoundDuration":139769,"Delta":186455321},{"NoteNumber":44,"Velocity":21,"Duration":139769,"SoundDuration":139769,"Delta":186455321},{"NoteNumber":44,"Velocity":21,"Duration":183201,"SoundDuration":183201,"Delta":186641680},{"NoteNumber":51,"Velocity":25,"Duration":183201,"SoundDuration":183201,"Delta":186641680},{"NoteNumber":48,"Velocity":21,"Duration":183201,"SoundDuration":183201,"Delta":186641680},{"NoteNumber":55,"Velocity":40,"Duration":1688605,"SoundDuration":1688605,"Delta":186893187},{"NoteNumber":67,"Velocity":48,"Duration":1688605,"SoundDuration":1688605,"Delta":186893187},{"NoteNumber":31,"Velocity":33,"Duration":1142257,"SoundDuration":1142257,"Delta":186893187},{"NoteNumber":43,"Velocity":33,"Duration":144480,"SoundDuration":144480,"Delta":186893187},{"NoteNumber":43,"Velocity":19,"Duration":144480,"SoundDuration":144480,"Delta":187085828},{"NoteNumber":51,"Velocity":23,"Duration":144480,"SoundDuration":144480,"Delta":187085828},{"NoteNumber":48,"Velocity":21,"Duration":144480,"SoundDuration":144480,"Delta":187085828},{"NoteNumber":48,"Velocity":19,"Duration":144480,"SoundDuration":144480,"Delta":187278469},{"NoteNumber":51,"Velocity":23,"Duration":144480,"SoundDuration":144480,"Delta":187278469},{"NoteNumber":43,"Velocity":19,"Duration":144480,"SoundDuration":144480,"Delta":187278469},{"NoteNumber":48,"Velocity":21,"Duration":141083,"SoundDuration":141083,"Delta":187471110},{"NoteNumber":51,"Velocity":25,"Duration":141083,"SoundDuration":141083,"Delta":187471110},{"NoteNumber":43,"Velocity":21,"Duration":141083,"SoundDuration":141083,"Delta":187471110},{"NoteNumber":43,"Velocity":21,"Duration":141083,"SoundDuration":141083,"Delta":187659222},{"NoteNumber":48,"Velocity":21,"Duration":141083,"SoundDuration":141083,"Delta":187659222},{"NoteNumber":51,"Velocity":25,"Duration":141083,"SoundDuration":141083,"Delta":187659222},{"NoteNumber":48,"Velocity":21,"Duration":141083,"SoundDuration":141083,"Delta":187847333},{"NoteNumber":43,"Velocity":21,"Duration":141083,"SoundDuration":141083,"Delta":187847333},{"NoteNumber":51,"Velocity":25,"Duration":141083,"SoundDuration":141083,"Delta":187847333},{"NoteNumber":43,"Velocity":27,"Duration":136587,"SoundDuration":136587,"Delta":188035444},{"NoteNumber":51,"Velocity":32,"Duration":136587,"SoundDuration":136587,"Delta":188035444},{"NoteNumber":48,"Velocity":27,"Duration":136587,"SoundDuration":136587,"Delta":188035444},{"NoteNumber":51,"Velocity":24,"Duration":136587,"SoundDuration":136587,"Delta":188217561},{"NoteNumber":48,"Velocity":27,"Duration":136587,"SoundDuration":136587,"Delta":188217561},{"NoteNumber":43,"Velocity":20,"Duration":136587,"SoundDuration":136587,"Delta":188217561},{"NoteNumber":48,"Velocity":21,"Duration":136587,"SoundDuration":136587,"Delta":188399677},{"NoteNumber":51,"Velocity":25,"Duration":136587,"SoundDuration":136587,"Delta":188399677},{"NoteNumber":43,"Velocity":21,"Duration":136587,"SoundDuration":136587,"Delta":188399677},{"NoteNumber":60,"Velocity":40,"Duration":419307,"SoundDuration":419307,"Delta":188581793},{"NoteNumber":43,"Velocity":28,"Duration":139769,"SoundDuration":139769,"Delta":188581793},{"NoteNumber":51,"Velocity":33,"Duration":139769,"SoundDuration":139769,"Delta":188581793},{"NoteNumber":48,"Velocity":28,"Duration":139769,"SoundDuration":139769,"Delta":188581793},{"NoteNumber":51,"Velocity":25,"Duration":139769,"SoundDuration":139769,"Delta":188768152},{"NoteNumber":43,"Velocity":21,"Duration":139769,"SoundDuration":139769,"Delta":188768152},{"NoteNumber":48,"Velocity":21,"Duration":139769,"SoundDuration":139769,"Delta":188768152},{"NoteNumber":48,"Velocity":21,"Duration":145894,"SoundDuration":145894,"Delta":188954511},{"NoteNumber":43,"Velocity":21,"Duration":145894,"SoundDuration":145894,"Delta":188954511},{"NoteNumber":51,"Velocity":25,"Duration":145894,"SoundDuration":145894,"Delta":188954511},{"NoteNumber":63,"Velocity":37,"Duration":148957,"SoundDuration":148957,"Delta":189001100},{"NoteNumber":55,"Velocity":37,"Duration":433442,"SoundDuration":433442,"Delta":189150058},{"NoteNumber":67,"Velocity":44,"Duration":433442,"SoundDuration":433442,"Delta":189150058},{"NoteNumber":31,"Velocity":33,"Duration":1142257,"SoundDuration":1142257,"Delta":189150058},{"NoteNumber":43,"Velocity":33,"Duration":144480,"SoundDuration":144480,"Delta":189150058},{"NoteNumber":51,"Velocity":23,"Duration":144480,"SoundDuration":144480,"Delta":189342699},{"NoteNumber":43,"Velocity":19,"Duration":144480,"SoundDuration":144480,"Delta":189342699},{"NoteNumber":48,"Velocity":21,"Duration":144480,"SoundDuration":144480,"Delta":189342699},{"NoteNumber":51,"Velocity":24,"Duration":144480,"SoundDuration":144480,"Delta":189535340},{"NoteNumber":48,"Velocity":19,"Duration":144480,"SoundDuration":144480,"Delta":189535340},{"NoteNumber":43,"Velocity":19,"Duration":144480,"SoundDuration":144480,"Delta":189535340},{"NoteNumber":67,"Velocity":43,"Duration":423250,"SoundDuration":423250,"Delta":189727981},{"NoteNumber":55,"Velocity":37,"Duration":423250,"SoundDuration":423250,"Delta":189727981},{"NoteNumber":43,"Velocity":22,"Duration":141083,"SoundDuration":141083,"Delta":189727981},{"NoteNumber":48,"Velocity":22,"Duration":141083,"SoundDuration":141083,"Delta":189727981},{"NoteNumber":51,"Velocity":26,"Duration":141083,"SoundDuration":141083,"Delta":189727981},{"NoteNumber":48,"Velocity":24,"Duration":141083,"SoundDuration":141083,"Delta":189916092},{"NoteNumber":43,"Velocity":24,"Duration":141083,"SoundDuration":141083,"Delta":189916092},{"NoteNumber":51,"Velocity":28,"Duration":141083,"SoundDuration":141083,"Delta":189916092},{"NoteNumber":51,"Velocity":29,"Duration":141083,"SoundDuration":141083,"Delta":190104203},{"NoteNumber":48,"Velocity":24,"Duration":141083,"SoundDuration":141083,"Delta":190104203},{"NoteNumber":43,"Velocity":24,"Duration":141083,"SoundDuration":141083,"Delta":190104203},{"NoteNumber":55,"Velocity":42,"Duration":409761,"SoundDuration":409761,"Delta":190292315},{"NoteNumber":67,"Velocity":50,"Duration":409761,"SoundDuration":409761,"Delta":190292315},{"NoteNumber":51,"Velocity":39,"Duration":136587,"SoundDuration":136587,"Delta":190292315},{"NoteNumber":48,"Velocity":33,"Duration":136587,"SoundDuration":136587,"Delta":190292315},{"NoteNumber":43,"Velocity":33,"Duration":136587,"SoundDuration":136587,"Delta":190292315},{"NoteNumber":51,"Velocity":31,"Duration":136587,"SoundDuration":136587,"Delta":190474431},{"NoteNumber":43,"Velocity":24,"Duration":136587,"SoundDuration":136587,"Delta":190474431},{"NoteNumber":48,"Velocity":34,"Duration":136587,"SoundDuration":136587,"Delta":190474431},{"NoteNumber":51,"Velocity":34,"Duration":136587,"SoundDuration":136587,"Delta":190656547},{"NoteNumber":48,"Velocity":28,"Duration":136587,"SoundDuration":136587,"Delta":190656547},{"NoteNumber":43,"Velocity":28,"Duration":136587,"SoundDuration":136587,"Delta":190656547},{"NoteNumber":55,"Velocity":47,"Duration":419307,"SoundDuration":419307,"Delta":190838664},{"NoteNumber":67,"Velocity":56,"Duration":419307,"SoundDuration":419307,"Delta":190838664},{"NoteNumber":43,"Velocity":39,"Duration":139769,"SoundDuration":139769,"Delta":190838664},{"NoteNumber":48,"Velocity":39,"Duration":139769,"SoundDuration":139769,"Delta":190838664},{"NoteNumber":51,"Velocity":46,"Duration":139769,"SoundDuration":139769,"Delta":190838664},{"NoteNumber":43,"Velocity":31,"Duration":139769,"SoundDuration":139769,"Delta":191025022},{"NoteNumber":51,"Velocity":36,"Duration":139769,"SoundDuration":139769,"Delta":191025022},{"NoteNumber":48,"Velocity":31,"Duration":139769,"SoundDuration":139769,"Delta":191025022},{"NoteNumber":51,"Velocity":37,"Duration":183201,"SoundDuration":183201,"Delta":191211381},{"NoteNumber":48,"Velocity":31,"Duration":183201,"SoundDuration":183201,"Delta":191211381},{"NoteNumber":43,"Velocity":31,"Duration":183201,"SoundDuration":183201,"Delta":191211381},{"NoteNumber":53,"Velocity":60,"Duration":1219883,"SoundDuration":1219883,"Delta":191462889},{"NoteNumber":65,"Velocity":73,"Duration":1219883,"SoundDuration":1219883,"Delta":191462889},{"NoteNumber":29,"Velocity":55,"Duration":1219883,"SoundDuration":1219883,"Delta":191462889},{"NoteNumber":41,"Velocity":55,"Duration":146341,"SoundDuration":146341,"Delta":191462889},{"NoteNumber":41,"Velocity":28,"Duration":146341,"SoundDuration":146341,"Delta":191658011},{"NoteNumber":51,"Velocity":35,"Duration":146341,"SoundDuration":146341,"Delta":191658011},{"NoteNumber":48,"Velocity":32,"Duration":146341,"SoundDuration":146341,"Delta":191658011},{"NoteNumber":41,"Velocity":28,"Duration":146341,"SoundDuration":146341,"Delta":191853133},{"NoteNumber":51,"Velocity":35,"Duration":146341,"SoundDuration":146341,"Delta":191853133},{"NoteNumber":48,"Velocity":28,"Duration":146341,"SoundDuration":146341,"Delta":191853133},{"NoteNumber":41,"Velocity":32,"Duration":141083,"SoundDuration":141083,"Delta":192048255},{"NoteNumber":48,"Velocity":32,"Duration":141083,"SoundDuration":141083,"Delta":192048255},{"NoteNumber":51,"Velocity":37,"Duration":141083,"SoundDuration":141083,"Delta":192048255},{"NoteNumber":48,"Velocity":32,"Duration":141083,"SoundDuration":141083,"Delta":192236366},{"NoteNumber":41,"Velocity":32,"Duration":141083,"SoundDuration":141083,"Delta":192236366},{"NoteNumber":51,"Velocity":37,"Duration":141083,"SoundDuration":141083,"Delta":192236366},{"NoteNumber":51,"Velocity":37,"Duration":187872,"SoundDuration":187872,"Delta":192424477},{"NoteNumber":48,"Velocity":32,"Duration":187872,"SoundDuration":187872,"Delta":192424477},{"NoteNumber":41,"Velocity":32,"Duration":187872,"SoundDuration":187872,"Delta":192424477},{"NoteNumber":54,"Velocity":60,"Duration":1154086,"SoundDuration":1154086,"Delta":192682773},{"NoteNumber":66,"Velocity":73,"Duration":1154086,"SoundDuration":1154086,"Delta":192682773},{"NoteNumber":30,"Velocity":55,"Duration":1154086,"SoundDuration":1154086,"Delta":192682773},{"NoteNumber":42,"Velocity":55,"Duration":146341,"SoundDuration":146341,"Delta":192682773},{"NoteNumber":48,"Velocity":32,"Duration":146341,"SoundDuration":146341,"Delta":192877895},{"NoteNumber":42,"Velocity":28,"Duration":146341,"SoundDuration":146341,"Delta":192877895},{"NoteNumber":51,"Velocity":35,"Duration":146341,"SoundDuration":146341,"Delta":192877895},{"NoteNumber":51,"Velocity":35,"Duration":146341,"SoundDuration":146341,"Delta":193073017},{"NoteNumber":42,"Velocity":28,"Duration":146341,"SoundDuration":146341,"Delta":193073017},{"NoteNumber":48,"Velocity":28,"Duration":146341,"SoundDuration":146341,"Delta":193073017},{"NoteNumber":51,"Velocity":37,"Duration":142179,"SoundDuration":142179,"Delta":193268139},{"NoteNumber":48,"Velocity":32,"Duration":142179,"SoundDuration":142179,"Delta":193268139},{"NoteNumber":42,"Velocity":32,"Duration":142179,"SoundDuration":142179,"Delta":193268139},{"NoteNumber":51,"Velocity":37,"Duration":142179,"SoundDuration":142179,"Delta":193457712},{"NoteNumber":48,"Velocity":32,"Duration":142179,"SoundDuration":142179,"Delta":193457712},{"NoteNumber":42,"Velocity":32,"Duration":142179,"SoundDuration":142179,"Delta":193457712},{"NoteNumber":42,"Velocity":32,"Duration":142179,"SoundDuration":142179,"Delta":193647285},{"NoteNumber":48,"Velocity":32,"Duration":142179,"SoundDuration":142179,"Delta":193647285},{"NoteNumber":51,"Velocity":37,"Duration":142179,"SoundDuration":142179,"Delta":193647285},{"NoteNumber":67,"Velocity":39,"Duration":142179,"SoundDuration":142179,"Delta":193836859},{"NoteNumber":55,"Velocity":39,"Duration":142179,"SoundDuration":142179,"Delta":193836859},{"NoteNumber":43,"Velocity":48,"Duration":1706159,"SoundDuration":1706159,"Delta":193836859},{"NoteNumber":47,"Velocity":48,"Duration":1706159,"SoundDuration":1706159,"Delta":193836859},{"NoteNumber":50,"Velocity":48,"Duration":1706159,"SoundDuration":1706159,"Delta":193836859},{"NoteNumber":55,"Velocity":22,"Duration":142179,"SoundDuration":142179,"Delta":194026432},{"NoteNumber":67,"Velocity":27,"Duration":142179,"SoundDuration":142179,"Delta":194026432},{"NoteNumber":55,"Velocity":22,"Duration":142179,"SoundDuration":142179,"Delta":194216005},{"NoteNumber":67,"Velocity":27,"Duration":142179,"SoundDuration":142179,"Delta":194216005},{"NoteNumber":55,"Velocity":25,"Duration":142179,"SoundDuration":142179,"Delta":194405579},{"NoteNumber":67,"Velocity":30,"Duration":142179,"SoundDuration":142179,"Delta":194405579},{"NoteNumber":55,"Velocity":25,"Duration":142179,"SoundDuration":142179,"Delta":194595152},{"NoteNumber":67,"Velocity":30,"Duration":142179,"SoundDuration":142179,"Delta":194595152},{"NoteNumber":55,"Velocity":25,"Duration":142180,"SoundDuration":142180,"Delta":194784725},{"NoteNumber":67,"Velocity":30,"Duration":142180,"SoundDuration":142180,"Delta":194784725},{"NoteNumber":55,"Velocity":32,"Duration":142179,"SoundDuration":142179,"Delta":194974299},{"NoteNumber":67,"Velocity":38,"Duration":142179,"SoundDuration":142179,"Delta":194974299},{"NoteNumber":55,"Velocity":24,"Duration":142179,"SoundDuration":142179,"Delta":195163872},{"NoteNumber":67,"Velocity":28,"Duration":142179,"SoundDuration":142179,"Delta":195163872},{"NoteNumber":55,"Velocity":25,"Duration":142179,"SoundDuration":142179,"Delta":195353445},{"NoteNumber":67,"Velocity":30,"Duration":142179,"SoundDuration":142179,"Delta":195353445},{"NoteNumber":55,"Velocity":33,"Duration":137918,"SoundDuration":137918,"Delta":195543019},{"NoteNumber":67,"Velocity":39,"Duration":137918,"SoundDuration":137918,"Delta":195543019},{"NoteNumber":47,"Velocity":35,"Duration":413754,"SoundDuration":413754,"Delta":195543019},{"NoteNumber":55,"Velocity":25,"Duration":137918,"SoundDuration":137918,"Delta":195726910},{"NoteNumber":67,"Velocity":30,"Duration":137918,"SoundDuration":137918,"Delta":195726910},{"NoteNumber":55,"Velocity":25,"Duration":137918,"SoundDuration":137918,"Delta":195910801},{"NoteNumber":67,"Velocity":30,"Duration":137918,"SoundDuration":137918,"Delta":195910801},{"NoteNumber":48,"Velocity":30,"Duration":137918,"SoundDuration":137918,"Delta":195956773},{"NoteNumber":67,"Velocity":39,"Duration":141083,"SoundDuration":141083,"Delta":196094692},{"NoteNumber":55,"Velocity":39,"Duration":141083,"SoundDuration":141083,"Delta":196094692},{"NoteNumber":50,"Velocity":40,"Duration":397385,"SoundDuration":397385,"Delta":196094692},{"NoteNumber":55,"Velocity":22,"Duration":141083,"SoundDuration":141083,"Delta":196282803},{"NoteNumber":67,"Velocity":27,"Duration":141083,"SoundDuration":141083,"Delta":196282803},{"NoteNumber":55,"Velocity":22,"Duration":141083,"SoundDuration":141083,"Delta":196470914},{"NoteNumber":67,"Velocity":27,"Duration":141083,"SoundDuration":141083,"Delta":196470914},{"NoteNumber":55,"Velocity":25,"Duration":136587,"SoundDuration":136587,"Delta":196659026},{"NoteNumber":67,"Velocity":30,"Duration":136587,"SoundDuration":136587,"Delta":196659026},{"NoteNumber":50,"Velocity":33,"Duration":384720,"SoundDuration":384720,"Delta":196659026},{"NoteNumber":55,"Velocity":25,"Duration":136587,"SoundDuration":136587,"Delta":196841142},{"NoteNumber":67,"Velocity":30,"Duration":136587,"SoundDuration":136587,"Delta":196841142},{"NoteNumber":55,"Velocity":25,"Duration":136587,"SoundDuration":136587,"Delta":197023258},{"NoteNumber":67,"Velocity":30,"Duration":136587,"SoundDuration":136587,"Delta":197023258},{"NoteNumber":55,"Velocity":32,"Duration":136475,"SoundDuration":136475,"Delta":197205375},{"NoteNumber":67,"Velocity":38,"Duration":136475,"SoundDuration":136475,"Delta":197205375},{"NoteNumber":50,"Velocity":33,"Duration":384405,"SoundDuration":384405,"Delta":197205375},{"NoteNumber":55,"Velocity":24,"Duration":136475,"SoundDuration":136475,"Delta":197387342},{"NoteNumber":67,"Velocity":28,"Duration":136475,"SoundDuration":136475,"Delta":197387342},{"NoteNumber":55,"Velocity":25,"Duration":136475,"SoundDuration":136475,"Delta":197569309},{"NoteNumber":67,"Velocity":30,"Duration":136475,"SoundDuration":136475,"Delta":197569309},{"NoteNumber":55,"Velocity":33,"Duration":137918,"SoundDuration":137918,"Delta":197751276},{"NoteNumber":67,"Velocity":39,"Duration":137918,"SoundDuration":137918,"Delta":197751276},{"NoteNumber":48,"Velocity":36,"Duration":413754,"SoundDuration":413754,"Delta":197751276},{"NoteNumber":55,"Velocity":25,"Duration":137918,"SoundDuration":137918,"Delta":197935167},{"NoteNumber":67,"Velocity":30,"Duration":137918,"SoundDuration":137918,"Delta":197935167},{"NoteNumber":55,"Velocity":25,"Duration":137918,"SoundDuration":137918,"Delta":198119058},{"NoteNumber":67,"Velocity":30,"Duration":137918,"SoundDuration":137918,"Delta":198119058},{"NoteNumber":50,"Velocity":37,"Duration":137918,"SoundDuration":137918,"Delta":198165030},{"NoteNumber":67,"Velocity":39,"Duration":137918,"SoundDuration":137918,"Delta":198302949},{"NoteNumber":55,"Velocity":39,"Duration":137918,"SoundDuration":137918,"Delta":198302949},{"NoteNumber":51,"Velocity":42,"Duration":827509,"SoundDuration":827509,"Delta":198302949},{"NoteNumber":55,"Velocity":22,"Duration":137918,"SoundDuration":137918,"Delta":198486840},{"NoteNumber":67,"Velocity":27,"Duration":137918,"SoundDuration":137918,"Delta":198486840},{"NoteNumber":55,"Velocity":22,"Duration":137918,"SoundDuration":137918,"Delta":198670731},{"NoteNumber":67,"Velocity":27,"Duration":137918,"SoundDuration":137918,"Delta":198670731},{"NoteNumber":55,"Velocity":25,"Duration":137918,"SoundDuration":137918,"Delta":198854622},{"NoteNumber":67,"Velocity":30,"Duration":137918,"SoundDuration":137918,"Delta":198854622},{"NoteNumber":55,"Velocity":25,"Duration":137918,"SoundDuration":137918,"Delta":199038513},{"NoteNumber":67,"Velocity":30,"Duration":137918,"SoundDuration":137918,"Delta":199038513},{"NoteNumber":50,"Velocity":35,"Duration":275836,"SoundDuration":275836,"Delta":199130458},{"NoteNumber":55,"Velocity":25,"Duration":137918,"SoundDuration":137918,"Delta":199222404},{"NoteNumber":67,"Velocity":30,"Duration":137918,"SoundDuration":137918,"Delta":199222404},{"NoteNumber":55,"Velocity":32,"Duration":137918,"SoundDuration":137918,"Delta":199406295},{"NoteNumber":67,"Velocity":38,"Duration":137918,"SoundDuration":137918,"Delta":199406295},{"NoteNumber":48,"Velocity":31,"Duration":551673,"SoundDuration":551673,"Delta":199406295},{"NoteNumber":55,"Velocity":24,"Duration":137918,"SoundDuration":137918,"Delta":199590186},{"NoteNumber":67,"Velocity":28,"Duration":137918,"SoundDuration":137918,"Delta":199590186},{"NoteNumber":55,"Velocity":25,"Duration":137918,"SoundDuration":137918,"Delta":199774077},{"NoteNumber":67,"Velocity":30,"Duration":137918,"SoundDuration":137918,"Delta":199774077},{"NoteNumber":55,"Velocity":33,"Duration":135771,"SoundDuration":135771,"Delta":199957968},{"NoteNumber":67,"Velocity":39,"Duration":135771,"SoundDuration":135771,"Delta":199957968},{"NoteNumber":46,"Velocity":39,"Duration":407313,"SoundDuration":407313,"Delta":199957968},{"NoteNumber":55,"Velocity":25,"Duration":135771,"SoundDuration":135771,"Delta":200138996},{"NoteNumber":67,"Velocity":30,"Duration":135771,"SoundDuration":135771,"Delta":200138996},{"NoteNumber":53,"Velocity":25,"Duration":140196,"SoundDuration":140196,"Delta":200320024},{"NoteNumber":65,"Velocity":30,"Duration":140196,"SoundDuration":140196,"Delta":200320024},{"NoteNumber":44,"Velocity":33,"Duration":142409,"SoundDuration":142409,"Delta":200365281},{"NoteNumber":63,"Velocity":39,"Duration":137918,"SoundDuration":137918,"Delta":200507691},{"NoteNumber":60,"Velocity":39,"Duration":137918,"SoundDuration":137918,"Delta":200507691},{"NoteNumber":67,"Velocity":39,"Duration":137918,"SoundDuration":137918,"Delta":200507691},{"NoteNumber":55,"Velocity":39,"Duration":137918,"SoundDuration":137918,"Delta":200507691},{"NoteNumber":43,"Velocity":36,"Duration":551672,"SoundDuration":551672,"Delta":200507691},{"NoteNumber":63,"Velocity":22,"Duration":137918,"SoundDuration":137918,"Delta":200691582},{"NoteNumber":60,"Velocity":22,"Duration":137918,"SoundDuration":137918,"Delta":200691582},{"NoteNumber":55,"Velocity":22,"Duration":137918,"SoundDuration":137918,"Delta":200691582},{"NoteNumber":67,"Velocity":27,"Duration":137918,"SoundDuration":137918,"Delta":200691582},{"NoteNumber":63,"Velocity":22,"Duration":137918,"SoundDuration":137918,"Delta":200875473},{"NoteNumber":60,"Velocity":22,"Duration":137918,"SoundDuration":137918,"Delta":200875473},{"NoteNumber":55,"Velocity":22,"Duration":137918,"SoundDuration":137918,"Delta":200875473},{"NoteNumber":67,"Velocity":27,"Duration":137918,"SoundDuration":137918,"Delta":200875473},{"NoteNumber":63,"Velocity":22,"Duration":137918,"SoundDuration":137918,"Delta":201059364},{"NoteNumber":60,"Velocity":22,"Duration":137918,"SoundDuration":137918,"Delta":201059364},{"NoteNumber":55,"Velocity":25,"Duration":137918,"SoundDuration":137918,"Delta":201059364},{"NoteNumber":67,"Velocity":30,"Duration":137918,"SoundDuration":137918,"Delta":201059364},{"NoteNumber":43,"Velocity":36,"Duration":551672,"SoundDuration":551672,"Delta":201059364},{"NoteNumber":63,"Velocity":22,"Duration":137918,"SoundDuration":137918,"Delta":201243255},{"NoteNumber":60,"Velocity":22,"Duration":137918,"SoundDuration":137918,"Delta":201243255},{"NoteNumber":55,"Velocity":25,"Duration":137918,"SoundDuration":137918,"Delta":201243255},{"NoteNumber":67,"Velocity":30,"Duration":137918,"SoundDuration":137918,"Delta":201243255},{"NoteNumber":63,"Velocity":22,"Duration":137918,"SoundDuration":137918,"Delta":201427146},{"NoteNumber":60,"Velocity":22,"Duration":137918,"SoundDuration":137918,"Delta":201427146},{"NoteNumber":55,"Velocity":25,"Duration":137918,"SoundDuration":137918,"Delta":201427146},{"NoteNumber":67,"Velocity":30,"Duration":137918,"SoundDuration":137918,"Delta":201427146},{"NoteNumber":62,"Velocity":32,"Duration":137918,"SoundDuration":137918,"Delta":201611037},{"NoteNumber":59,"Velocity":32,"Duration":137918,"SoundDuration":137918,"Delta":201611037},{"NoteNumber":55,"Velocity":32,"Duration":137918,"SoundDuration":137918,"Delta":201611037},{"NoteNumber":67,"Velocity":38,"Duration":137918,"SoundDuration":137918,"Delta":201611037},{"NoteNumber":43,"Velocity":36,"Duration":551673,"SoundDuration":551673,"Delta":201611037},{"NoteNumber":62,"Velocity":32,"Duration":137918,"SoundDuration":137918,"Delta":201794928},{"NoteNumber":59,"Velocity":32,"Duration":137918,"SoundDuration":137918,"Delta":201794928},{"NoteNumber":55,"Velocity":24,"Duration":137918,"SoundDuration":137918,"Delta":201794928},{"NoteNumber":67,"Velocity":28,"Duration":137918,"SoundDuration":137918,"Delta":201794928},{"NoteNumber":62,"Velocity":32,"Duration":137918,"SoundDuration":137918,"Delta":201978819},{"NoteNumber":59,"Velocity":32,"Duration":137918,"SoundDuration":137918,"Delta":201978819},{"NoteNumber":55,"Velocity":25,"Duration":137918,"SoundDuration":137918,"Delta":201978819},{"NoteNumber":67,"Velocity":30,"Duration":137918,"SoundDuration":137918,"Delta":201978819},{"NoteNumber":62,"Velocity":33,"Duration":137918,"SoundDuration":137918,"Delta":202162710},{"NoteNumber":59,"Velocity":33,"Duration":137918,"SoundDuration":137918,"Delta":202162710},{"NoteNumber":55,"Velocity":33,"Duration":137918,"SoundDuration":137918,"Delta":202162710},{"NoteNumber":67,"Velocity":39,"Duration":137918,"SoundDuration":137918,"Delta":202162710},{"NoteNumber":43,"Velocity":36,"Duration":551672,"SoundDuration":551672,"Delta":202162710},{"NoteNumber":62,"Velocity":25,"Duration":137918,"SoundDuration":137918,"Delta":202346601},{"NoteNumber":59,"Velocity":25,"Duration":137918,"SoundDuration":137918,"Delta":202346601},{"NoteNumber":55,"Velocity":25,"Duration":137918,"SoundDuration":137918,"Delta":202346601},{"NoteNumber":67,"Velocity":30,"Duration":137918,"SoundDuration":137918,"Delta":202346601},{"NoteNumber":62,"Velocity":25,"Duration":137918,"SoundDuration":137918,"Delta":202530492},{"NoteNumber":59,"Velocity":25,"Duration":137918,"SoundDuration":137918,"Delta":202530492},{"NoteNumber":55,"Velocity":25,"Duration":137918,"SoundDuration":137918,"Delta":202530492},{"NoteNumber":67,"Velocity":30,"Duration":137918,"SoundDuration":137918,"Delta":202530492},{"NoteNumber":63,"Velocity":39,"Duration":142179,"SoundDuration":142179,"Delta":202714383},{"NoteNumber":60,"Velocity":39,"Duration":142179,"SoundDuration":142179,"Delta":202714383},{"NoteNumber":67,"Velocity":39,"Duration":142179,"SoundDuration":142179,"Delta":202714383},{"NoteNumber":55,"Velocity":39,"Duration":142179,"SoundDuration":142179,"Delta":202714383},{"NoteNumber":48,"Velocity":48,"Duration":1124276,"SoundDuration":1124276,"Delta":202714383},{"NoteNumber":55,"Velocity":22,"Duration":142179,"SoundDuration":142179,"Delta":202903956},{"NoteNumber":67,"Velocity":27,"Duration":142179,"SoundDuration":142179,"Delta":202903956},{"NoteNumber":55,"Velocity":22,"Duration":142179,"SoundDuration":142179,"Delta":203093529},{"NoteNumber":67,"Velocity":27,"Duration":142179,"SoundDuration":142179,"Delta":203093529},{"NoteNumber":55,"Velocity":28,"Duration":138889,"SoundDuration":138889,"Delta":203283103},{"NoteNumber":67,"Velocity":34,"Duration":138889,"SoundDuration":138889,"Delta":203283103},{"NoteNumber":55,"Velocity":29,"Duration":138889,"SoundDuration":138889,"Delta":203468288},{"NoteNumber":67,"Velocity":35,"Duration":138889,"SoundDuration":138889,"Delta":203468288},{"NoteNumber":55,"Velocity":30,"Duration":138889,"SoundDuration":138889,"Delta":203653473},{"NoteNumber":67,"Velocity":36,"Duration":138889,"SoundDuration":138889,"Delta":203653473},{"NoteNumber":55,"Velocity":40,"Duration":138889,"SoundDuration":138889,"Delta":203838659},{"NoteNumber":67,"Velocity":48,"Duration":138889,"SoundDuration":138889,"Delta":203838659},{"NoteNumber":55,"Velocity":32,"Duration":138888,"SoundDuration":138888,"Delta":204023844},{"NoteNumber":67,"Velocity":36,"Duration":138888,"SoundDuration":138888,"Delta":204023844},{"NoteNumber":55,"Velocity":34,"Duration":138889,"SoundDuration":138889,"Delta":204209029},{"NoteNumber":67,"Velocity":41,"Duration":138889,"SoundDuration":138889,"Delta":204209029},{"NoteNumber":55,"Velocity":47,"Duration":137918,"SoundDuration":137918,"Delta":204394215},{"NoteNumber":67,"Velocity":56,"Duration":137918,"SoundDuration":137918,"Delta":204394215},{"NoteNumber":35,"Velocity":42,"Duration":413754,"SoundDuration":413754,"Delta":204394215},{"NoteNumber":47,"Velocity":50,"Duration":413754,"SoundDuration":413754,"Delta":204394215},{"NoteNumber":55,"Velocity":36,"Duration":137918,"SoundDuration":137918,"Delta":204578106},{"NoteNumber":67,"Velocity":43,"Duration":137918,"SoundDuration":137918,"Delta":204578106},{"NoteNumber":55,"Velocity":37,"Duration":137918,"SoundDuration":137918,"Delta":204761997},{"NoteNumber":67,"Velocity":44,"Duration":137918,"SoundDuration":137918,"Delta":204761997},{"NoteNumber":36,"Velocity":37,"Duration":137918,"SoundDuration":137918,"Delta":204807970},{"NoteNumber":48,"Velocity":44,"Duration":137918,"SoundDuration":137918,"Delta":204807970},{"NoteNumber":67,"Velocity":59,"Duration":141083,"SoundDuration":141083,"Delta":204945888},{"NoteNumber":55,"Velocity":59,"Duration":141083,"SoundDuration":141083,"Delta":204945888},{"NoteNumber":50,"Velocity":62,"Duration":397385,"SoundDuration":397385,"Delta":204945888},{"NoteNumber":38,"Velocity":51,"Duration":423250,"SoundDuration":423250,"Delta":204945888},{"NoteNumber":55,"Velocity":33,"Duration":141083,"SoundDuration":141083,"Delta":205133999},{"NoteNumber":67,"Velocity":41,"Duration":141083,"SoundDuration":141083,"Delta":205133999},{"NoteNumber":55,"Velocity":33,"Duration":141083,"SoundDuration":141083,"Delta":205322110},{"NoteNumber":67,"Velocity":41,"Duration":141083,"SoundDuration":141083,"Delta":205322110},{"NoteNumber":55,"Velocity":37,"Duration":136587,"SoundDuration":136587,"Delta":205510222},{"NoteNumber":67,"Velocity":46,"Duration":136587,"SoundDuration":136587,"Delta":205510222},{"NoteNumber":38,"Velocity":42,"Duration":409761,"SoundDuration":409761,"Delta":205510222},{"NoteNumber":50,"Velocity":50,"Duration":384720,"SoundDuration":384720,"Delta":205510222},{"NoteNumber":55,"Velocity":37,"Duration":136587,"SoundDuration":136587,"Delta":205692338},{"NoteNumber":67,"Velocity":46,"Duration":136587,"SoundDuration":136587,"Delta":205692338},{"NoteNumber":55,"Velocity":37,"Duration":136587,"SoundDuration":136587,"Delta":205874454},{"NoteNumber":67,"Velocity":46,"Duration":136587,"SoundDuration":136587,"Delta":205874454},{"NoteNumber":55,"Velocity":49,"Duration":136475,"SoundDuration":136475,"Delta":206056571},{"NoteNumber":67,"Velocity":58,"Duration":136475,"SoundDuration":136475,"Delta":206056571},{"NoteNumber":38,"Velocity":42,"Duration":409425,"SoundDuration":409425,"Delta":206056571},{"NoteNumber":50,"Velocity":50,"Duration":384405,"SoundDuration":384405,"Delta":206056571},{"NoteNumber":55,"Velocity":36,"Duration":136475,"SoundDuration":136475,"Delta":206238538},{"NoteNumber":67,"Velocity":42,"Duration":136475,"SoundDuration":136475,"Delta":206238538},{"NoteNumber":55,"Velocity":37,"Duration":136475,"SoundDuration":136475,"Delta":206420505},{"NoteNumber":67,"Velocity":46,"Duration":136475,"SoundDuration":136475,"Delta":206420505},{"NoteNumber":56,"Velocity":55,"Duration":137918,"SoundDuration":137918,"Delta":206602472},{"NoteNumber":68,"Velocity":65,"Duration":137918,"SoundDuration":137918,"Delta":206602472},{"NoteNumber":36,"Velocity":50,"Duration":413754,"SoundDuration":413754,"Delta":206602472},{"NoteNumber":48,"Velocity":59,"Duration":413754,"SoundDuration":413754,"Delta":206602472},{"NoteNumber":56,"Velocity":42,"Duration":137918,"SoundDuration":137918,"Delta":206786363},{"NoteNumber":68,"Velocity":52,"Duration":137918,"SoundDuration":137918,"Delta":206786363},{"NoteNumber":56,"Velocity":44,"Duration":151235,"SoundDuration":151235,"Delta":206970254},{"NoteNumber":68,"Velocity":55,"Duration":151235,"SoundDuration":151235,"Delta":206970254},{"NoteNumber":38,"Velocity":57,"Duration":157894,"SoundDuration":157894,"Delta":207016227},{"NoteNumber":50,"Velocity":67,"Duration":157894,"SoundDuration":157894,"Delta":207016227},{"NoteNumber":67,"Velocity":70,"Duration":137614,"SoundDuration":137614,"Delta":207174121},{"NoteNumber":55,"Velocity":70,"Duration":137614,"SoundDuration":137614,"Delta":207174121},{"NoteNumber":39,"Velocity":63,"Duration":825688,"SoundDuration":825688,"Delta":207174121},{"NoteNumber":51,"Velocity":76,"Duration":825688,"SoundDuration":825688,"Delta":207174121},{"NoteNumber":55,"Velocity":40,"Duration":137614,"SoundDuration":137614,"Delta":207357608},{"NoteNumber":67,"Velocity":50,"Duration":137614,"SoundDuration":137614,"Delta":207357608},{"NoteNumber":55,"Velocity":40,"Duration":137614,"SoundDuration":137614,"Delta":207541094},{"NoteNumber":67,"Velocity":50,"Duration":137614,"SoundDuration":137614,"Delta":207541094},{"NoteNumber":55,"Velocity":46,"Duration":137614,"SoundDuration":137614,"Delta":207724580},{"NoteNumber":67,"Velocity":55,"Duration":137614,"SoundDuration":137614,"Delta":207724580},{"NoteNumber":55,"Velocity":44,"Duration":137614,"SoundDuration":137614,"Delta":207908067},{"NoteNumber":67,"Velocity":55,"Duration":137614,"SoundDuration":137614,"Delta":207908067},{"NoteNumber":38,"Velocity":54,"Duration":275229,"SoundDuration":275229,"Delta":207999810},{"NoteNumber":50,"Velocity":64,"Duration":275229,"SoundDuration":275229,"Delta":207999810},{"NoteNumber":55,"Velocity":44,"Duration":137614,"SoundDuration":137614,"Delta":208091553},{"NoteNumber":67,"Velocity":54,"Duration":137614,"SoundDuration":137614,"Delta":208091553},{"NoteNumber":55,"Velocity":57,"Duration":137614,"SoundDuration":137614,"Delta":208275039},{"NoteNumber":67,"Velocity":69,"Duration":137614,"SoundDuration":137614,"Delta":208275039},{"NoteNumber":36,"Velocity":46,"Duration":550458,"SoundDuration":550458,"Delta":208275039},{"NoteNumber":48,"Velocity":55,"Duration":550458,"SoundDuration":550458,"Delta":208275039},{"NoteNumber":55,"Velocity":42,"Duration":137614,"SoundDuration":137614,"Delta":208458526},{"NoteNumber":67,"Velocity":49,"Duration":137614,"SoundDuration":137614,"Delta":208458526},{"NoteNumber":55,"Velocity":42,"Duration":137614,"SoundDuration":137614,"Delta":208642012},{"NoteNumber":67,"Velocity":52,"Duration":137614,"SoundDuration":137614,"Delta":208642012},{"NoteNumber":55,"Velocity":57,"Duration":135771,"SoundDuration":135771,"Delta":208825498},{"NoteNumber":67,"Velocity":67,"Duration":135771,"SoundDuration":135771,"Delta":208825498},{"NoteNumber":34,"Velocity":57,"Duration":407313,"SoundDuration":407313,"Delta":208825498},{"NoteNumber":46,"Velocity":67,"Duration":407313,"SoundDuration":407313,"Delta":208825498},{"NoteNumber":55,"Velocity":42,"Duration":135771,"SoundDuration":135771,"Delta":209006527},{"NoteNumber":67,"Velocity":51,"Duration":135771,"SoundDuration":135771,"Delta":209006527},{"NoteNumber":53,"Velocity":41,"Duration":140196,"SoundDuration":140196,"Delta":209187555},{"NoteNumber":65,"Velocity":50,"Duration":140196,"SoundDuration":140196,"Delta":209187555},{"NoteNumber":44,"Velocity":55,"Duration":142409,"SoundDuration":142409,"Delta":209232812},{"NoteNumber":32,"Velocity":46,"Duration":142409,"SoundDuration":142409,"Delta":209232812},{"NoteNumber":63,"Velocity":59,"Duration":137918,"SoundDuration":137918,"Delta":209375222},{"NoteNumber":60,"Velocity":59,"Duration":137918,"SoundDuration":137918,"Delta":209375222},{"NoteNumber":67,"Velocity":59,"Duration":137918,"SoundDuration":137918,"Delta":209375222},{"NoteNumber":55,"Velocity":59,"Duration":137918,"SoundDuration":137918,"Delta":209375222},{"NoteNumber":31,"Velocity":46,"Duration":551672,"SoundDuration":551672,"Delta":209375222},{"NoteNumber":43,"Velocity":55,"Duration":551672,"SoundDuration":551672,"Delta":209375222},{"NoteNumber":63,"Velocity":33,"Duration":137918,"SoundDuration":137918,"Delta":209559113},{"NoteNumber":60,"Velocity":33,"Duration":137918,"SoundDuration":137918,"Delta":209559113},{"NoteNumber":55,"Velocity":33,"Duration":137918,"SoundDuration":137918,"Delta":209559113},{"NoteNumber":67,"Velocity":41,"Duration":137918,"SoundDuration":137918,"Delta":209559113},{"NoteNumber":63,"Velocity":33,"Duration":137918,"SoundDuration":137918,"Delta":209743004},{"NoteNumber":60,"Velocity":33,"Duration":137918,"SoundDuration":137918,"Delta":209743004},{"NoteNumber":55,"Velocity":33,"Duration":137918,"SoundDuration":137918,"Delta":209743004},{"NoteNumber":67,"Velocity":41,"Duration":137918,"SoundDuration":137918,"Delta":209743004},{"NoteNumber":63,"Velocity":33,"Duration":135135,"SoundDuration":135135,"Delta":209926895},{"NoteNumber":60,"Velocity":33,"Duration":135135,"SoundDuration":135135,"Delta":209926895},{"NoteNumber":55,"Velocity":37,"Duration":135135,"SoundDuration":135135,"Delta":209926895},{"NoteNumber":67,"Velocity":46,"Duration":135135,"SoundDuration":135135,"Delta":209926895},{"NoteNumber":31,"Velocity":46,"Duration":540540,"SoundDuration":540540,"Delta":209926895},{"NoteNumber":43,"Velocity":55,"Duration":540540,"SoundDuration":540540,"Delta":209926895},{"NoteNumber":63,"Velocity":33,"Duration":135135,"SoundDuration":135135,"Delta":210107075},{"NoteNumber":60,"Velocity":33,"Duration":135135,"SoundDuration":135135,"Delta":210107075},{"NoteNumber":55,"Velocity":37,"Duration":135135,"SoundDuration":135135,"Delta":210107075},{"NoteNumber":67,"Velocity":46,"Duration":135135,"SoundDuration":135135,"Delta":210107075},{"NoteNumber":63,"Velocity":33,"Duration":135135,"SoundDuration":135135,"Delta":210287255},{"NoteNumber":60,"Velocity":33,"Duration":135135,"SoundDuration":135135,"Delta":210287255},{"NoteNumber":55,"Velocity":37,"Duration":135135,"SoundDuration":135135,"Delta":210287255},{"NoteNumber":67,"Velocity":46,"Duration":135135,"SoundDuration":135135,"Delta":210287255},{"NoteNumber":62,"Velocity":49,"Duration":135135,"SoundDuration":135135,"Delta":210467436},{"NoteNumber":59,"Velocity":49,"Duration":135135,"SoundDuration":135135,"Delta":210467436},{"NoteNumber":55,"Velocity":49,"Duration":135135,"SoundDuration":135135,"Delta":210467436},{"NoteNumber":67,"Velocity":58,"Duration":135135,"SoundDuration":135135,"Delta":210467436},{"NoteNumber":43,"Velocity":55,"Duration":540541,"SoundDuration":540541,"Delta":210467436},{"NoteNumber":31,"Velocity":46,"Duration":540541,"SoundDuration":540541,"Delta":210467436},{"NoteNumber":62,"Velocity":49,"Duration":135135,"SoundDuration":135135,"Delta":210647616},{"NoteNumber":59,"Velocity":49,"Duration":135135,"SoundDuration":135135,"Delta":210647616},{"NoteNumber":55,"Velocity":36,"Duration":135135,"SoundDuration":135135,"Delta":210647616},{"NoteNumber":67,"Velocity":42,"Duration":135135,"SoundDuration":135135,"Delta":210647616},{"NoteNumber":62,"Velocity":49,"Duration":135135,"SoundDuration":135135,"Delta":210827796},{"NoteNumber":59,"Velocity":49,"Duration":135135,"SoundDuration":135135,"Delta":210827796},{"NoteNumber":55,"Velocity":37,"Duration":135135,"SoundDuration":135135,"Delta":210827796},{"NoteNumber":67,"Velocity":46,"Duration":135135,"SoundDuration":135135,"Delta":210827796},{"NoteNumber":62,"Velocity":50,"Duration":136986,"SoundDuration":136986,"Delta":211007977},{"NoteNumber":59,"Velocity":50,"Duration":136986,"SoundDuration":136986,"Delta":211007977},{"NoteNumber":55,"Velocity":50,"Duration":136986,"SoundDuration":136986,"Delta":211007977},{"NoteNumber":67,"Velocity":59,"Duration":136986,"SoundDuration":136986,"Delta":211007977},{"NoteNumber":43,"Velocity":55,"Duration":569688,"SoundDuration":569688,"Delta":211007977},{"NoteNumber":31,"Velocity":46,"Duration":569688,"SoundDuration":569688,"Delta":211007977},{"NoteNumber":62,"Velocity":37,"Duration":136986,"SoundDuration":136986,"Delta":211190625},{"NoteNumber":59,"Velocity":37,"Duration":136986,"SoundDuration":136986,"Delta":211190625},{"NoteNumber":55,"Velocity":37,"Duration":136986,"SoundDuration":136986,"Delta":211190625},{"NoteNumber":67,"Velocity":46,"Duration":136986,"SoundDuration":136986,"Delta":211190625},{"NoteNumber":62,"Velocity":37,"Duration":151482,"SoundDuration":151482,"Delta":211373273},{"NoteNumber":59,"Velocity":37,"Duration":151482,"SoundDuration":151482,"Delta":211373273},{"NoteNumber":55,"Velocity":37,"Duration":151482,"SoundDuration":151482,"Delta":211373273},{"NoteNumber":67,"Velocity":46,"Duration":151482,"SoundDuration":151482,"Delta":211373273},{"NoteNumber":55,"Velocity":40,"Duration":319634,"SoundDuration":319634,"Delta":211577666},{"NoteNumber":60,"Velocity":40,"Duration":1095889,"SoundDuration":1095889,"Delta":211577666},{"NoteNumber":63,"Velocity":40,"Duration":1095889,"SoundDuration":1095889,"Delta":211577666},{"NoteNumber":67,"Velocity":48,"Duration":1095889,"SoundDuration":1095889,"Delta":211577666},{"NoteNumber":36,"Velocity":40,"Duration":182648,"SoundDuration":182648,"Delta":211577666},{"NoteNumber":48,"Velocity":40,"Duration":182648,"SoundDuration":182648,"Delta":211577666},{"NoteNumber":55,"Velocity":31,"Duration":319634,"SoundDuration":319634,"Delta":211760314},{"NoteNumber":55,"Velocity":31,"Duration":319634,"SoundDuration":319634,"Delta":211942962},{"NoteNumber":55,"Velocity":31,"Duration":319634,"SoundDuration":319634,"Delta":212125611},{"NoteNumber":55,"Velocity":29,"Duration":319634,"SoundDuration":319634,"Delta":212308259},{"NoteNumber":55,"Velocity":29,"Duration":182648,"SoundDuration":182648,"Delta":212490907},{"NoteNumber":55,"Velocity":29,"Duration":136986,"SoundDuration":136986,"Delta":212673556},{"NoteNumber":55,"Velocity":28,"Duration":136986,"SoundDuration":136986,"Delta":212856204},{"NoteNumber":55,"Velocity":28,"Duration":136986,"SoundDuration":136986,"Delta":213038852},{"NoteNumber":71,"Velocity":44,"Duration":413754,"SoundDuration":413754,"Delta":213221501},{"NoteNumber":55,"Velocity":31,"Duration":137918,"SoundDuration":137918,"Delta":213221501},{"NoteNumber":55,"Velocity":30,"Duration":137918,"SoundDuration":137918,"Delta":213405392},{"NoteNumber":55,"Velocity":30,"Duration":137918,"SoundDuration":137918,"Delta":213589283},{"NoteNumber":72,"Velocity":38,"Duration":137918,"SoundDuration":137918,"Delta":213635255},{"NoteNumber":74,"Velocity":51,"Duration":397385,"SoundDuration":397385,"Delta":213773174},{"NoteNumber":55,"Velocity":31,"Duration":141083,"SoundDuration":141083,"Delta":213773174},{"NoteNumber":55,"Velocity":27,"Duration":141083,"SoundDuration":141083,"Delta":213961285},{"NoteNumber":55,"Velocity":27,"Duration":141083,"SoundDuration":141083,"Delta":214149396},{"NoteNumber":65,"Velocity":35,"Duration":409761,"SoundDuration":409761,"Delta":214337508},{"NoteNumber":74,"Velocity":42,"Duration":384720,"SoundDuration":384720,"Delta":214337508},{"NoteNumber":55,"Velocity":31,"Duration":136587,"SoundDuration":136587,"Delta":214337508},{"NoteNumber":55,"Velocity":28,"Duration":136587,"SoundDuration":136587,"Delta":214519624},{"NoteNumber":55,"Velocity":28,"Duration":136587,"SoundDuration":136587,"Delta":214701740},{"NoteNumber":68,"Velocity":35,"Duration":409425,"SoundDuration":409425,"Delta":214883857},{"NoteNumber":74,"Velocity":42,"Duration":384405,"SoundDuration":384405,"Delta":214883857},{"NoteNumber":55,"Velocity":31,"Duration":136475,"SoundDuration":136475,"Delta":214883857},{"NoteNumber":55,"Velocity":31,"Duration":136475,"SoundDuration":136475,"Delta":215065824},{"NoteNumber":55,"Velocity":31,"Duration":136475,"SoundDuration":136475,"Delta":215247791},{"NoteNumber":72,"Velocity":46,"Duration":413754,"SoundDuration":413754,"Delta":215429758},{"NoteNumber":55,"Velocity":31,"Duration":137918,"SoundDuration":137918,"Delta":215429758},{"NoteNumber":55,"Velocity":31,"Duration":137918,"SoundDuration":137918,"Delta":215613649},{"NoteNumber":55,"Velocity":32,"Duration":137918,"SoundDuration":137918,"Delta":215797540},{"NoteNumber":74,"Velocity":47,"Duration":137918,"SoundDuration":137918,"Delta":215843512},{"NoteNumber":75,"Velocity":53,"Duration":827509,"SoundDuration":827509,"Delta":215981431},{"NoteNumber":55,"Velocity":40,"Duration":137918,"SoundDuration":137918,"Delta":215981431},{"NoteNumber":55,"Velocity":31,"Duration":137918,"SoundDuration":137918,"Delta":216165322},{"NoteNumber":55,"Velocity":26,"Duration":137918,"SoundDuration":137918,"Delta":216349213},{"NoteNumber":63,"Velocity":39,"Duration":551672,"SoundDuration":551672,"Delta":216533104},{"NoteNumber":55,"Velocity":33,"Duration":137918,"SoundDuration":137918,"Delta":216533104},{"NoteNumber":55,"Velocity":29,"Duration":137918,"SoundDuration":137918,"Delta":216716995},{"NoteNumber":74,"Velocity":44,"Duration":275836,"SoundDuration":275836,"Delta":216808940},{"NoteNumber":55,"Velocity":26,"Duration":137918,"SoundDuration":137918,"Delta":216900886},{"NoteNumber":67,"Velocity":33,"Duration":551673,"SoundDuration":551673,"Delta":217084777},{"NoteNumber":72,"Velocity":39,"Duration":551673,"SoundDuration":551673,"Delta":217084777},{"NoteNumber":55,"Velocity":33,"Duration":137918,"SoundDuration":137918,"Delta":217084777},{"NoteNumber":55,"Velocity":30,"Duration":137918,"SoundDuration":137918,"Delta":217268668},{"NoteNumber":55,"Velocity":29,"Duration":137918,"SoundDuration":137918,"Delta":217452559},{"NoteNumber":74,"Velocity":49,"Duration":407313,"SoundDuration":407313,"Delta":217636450},{"NoteNumber":55,"Velocity":33,"Duration":135771,"SoundDuration":135771,"Delta":217636450},{"NoteNumber":55,"Velocity":30,"Duration":135771,"SoundDuration":135771,"Delta":217817478},{"NoteNumber":55,"Velocity":30,"Duration":140196,"SoundDuration":140196,"Delta":217998506},{"NoteNumber":72,"Velocity":42,"Duration":142409,"SoundDuration":142409,"Delta":218043763},{"NoteNumber":71,"Velocity":46,"Duration":551672,"SoundDuration":551672,"Delta":218186173},{"NoteNumber":55,"Velocity":31,"Duration":137918,"SoundDuration":137918,"Delta":218186173},{"NoteNumber":55,"Velocity":28,"Duration":137918,"SoundDuration":137918,"Delta":218370064},{"NoteNumber":55,"Velocity":28,"Duration":137918,"SoundDuration":137918,"Delta":218553955},{"NoteNumber":65,"Velocity":37,"Duration":551672,"SoundDuration":551672,"Delta":218737846},{"NoteNumber":69,"Velocity":44,"Duration":413754,"SoundDuration":413754,"Delta":218737846},{"NoteNumber":55,"Velocity":31,"Duration":137918,"SoundDuration":137918,"Delta":218737846},{"NoteNumber":55,"Velocity":28,"Duration":137918,"SoundDuration":137918,"Delta":218921737},{"NoteNumber":55,"Velocity":31,"Duration":137918,"SoundDuration":137918,"Delta":219105628},{"NoteNumber":71,"Velocity":36,"Duration":137918,"SoundDuration":137918,"Delta":219151601},{"NoteNumber":63,"Velocity":37,"Duration":568333,"SoundDuration":568333,"Delta":219289519},{"NoteNumber":72,"Velocity":48,"Duration":568333,"SoundDuration":568333,"Delta":219289519},{"NoteNumber":55,"Velocity":36,"Duration":140884,"SoundDuration":140884,"Delta":219289519},{"NoteNumber":55,"Velocity":29,"Duration":140884,"SoundDuration":140884,"Delta":219477365},{"NoteNumber":55,"Velocity":29,"Duration":144480,"SoundDuration":144480,"Delta":219665211},{"NoteNumber":60,"Velocity":37,"Duration":567352,"SoundDuration":567352,"Delta":219857852},{"NoteNumber":74,"Velocity":43,"Duration":419307,"SoundDuration":419307,"Delta":219857852},{"NoteNumber":55,"Velocity":36,"Duration":139769,"SoundDuration":139769,"Delta":219857852},{"NoteNumber":55,"Velocity":31,"Duration":139769,"SoundDuration":139769,"Delta":220044211},{"NoteNumber":55,"Velocity":31,"Duration":145286,"SoundDuration":145286,"Delta":220230570},{"NoteNumber":75,"Velocity":44,"Duration":148045,"SoundDuration":148045,"Delta":220277159},{"NoteNumber":68,"Velocity":47,"Duration":148045,"SoundDuration":148045,"Delta":220425205},{"NoteNumber":74,"Velocity":51,"Duration":1719755,"SoundDuration":1719755,"Delta":220425205},{"NoteNumber":55,"Velocity":37,"Duration":148045,"SoundDuration":148045,"Delta":220425205},{"NoteNumber":67,"Velocity":43,"Duration":1571709,"SoundDuration":1571709,"Delta":220573251},{"NoteNumber":55,"Velocity":29,"Duration":148045,"SoundDuration":148045,"Delta":220622600},{"NoteNumber":55,"Velocity":29,"Duration":148045,"SoundDuration":148045,"Delta":220819994},{"NoteNumber":55,"Velocity":44,"Duration":138964,"SoundDuration":138964,"Delta":221014794},{"NoteNumber":55,"Velocity":37,"Duration":139828,"SoundDuration":139828,"Delta":221200270},{"NoteNumber":55,"Velocity":39,"Duration":140702,"SoundDuration":140702,"Delta":221386827},{"NoteNumber":55,"Velocity":53,"Duration":141587,"SoundDuration":141587,"Delta":221574556},{"NoteNumber":55,"Velocity":39,"Duration":142484,"SoundDuration":142484,"Delta":221763537},{"NoteNumber":55,"Velocity":40,"Duration":143392,"SoundDuration":143392,"Delta":221953640},{"NoteNumber":59,"Velocity":52,"Duration":413754,"SoundDuration":413754,"Delta":222144961},{"NoteNumber":67,"Velocity":52,"Duration":413754,"SoundDuration":413754,"Delta":222144961},{"NoteNumber":71,"Velocity":62,"Duration":413754,"SoundDuration":413754,"Delta":222144961},{"NoteNumber":55,"Velocity":52,"Duration":137918,"SoundDuration":137918,"Delta":222144961},{"NoteNumber":55,"Velocity":45,"Duration":137918,"SoundDuration":137918,"Delta":222328852},{"NoteNumber":55,"Velocity":52,"Duration":145475,"SoundDuration":145475,"Delta":222512743},{"NoteNumber":60,"Velocity":50,"Duration":149253,"SoundDuration":149253,"Delta":222558715},{"NoteNumber":69,"Velocity":50,"Duration":149253,"SoundDuration":149253,"Delta":222558715},{"NoteNumber":72,"Velocity":60,"Duration":149253,"SoundDuration":149253,"Delta":222558715},{"NoteNumber":62,"Velocity":61,"Duration":541418,"SoundDuration":541418,"Delta":222707969},{"NoteNumber":71,"Velocity":61,"Duration":541418,"SoundDuration":541418,"Delta":222707969},{"NoteNumber":74,"Velocity":73,"Duration":541418,"SoundDuration":541418,"Delta":222707969},{"NoteNumber":55,"Velocity":59,"Duration":135354,"SoundDuration":135354,"Delta":222707969},{"NoteNumber":55,"Velocity":47,"Duration":135354,"SoundDuration":135354,"Delta":222888442},{"NoteNumber":55,"Velocity":47,"Duration":135354,"SoundDuration":135354,"Delta":223068915},{"NoteNumber":62,"Velocity":55,"Duration":548846,"SoundDuration":548846,"Delta":223249388},{"NoteNumber":71,"Velocity":55,"Duration":548846,"SoundDuration":548846,"Delta":223249388},{"NoteNumber":74,"Velocity":66,"Duration":548846,"SoundDuration":548846,"Delta":223249388},{"NoteNumber":55,"Velocity":52,"Duration":137211,"SoundDuration":137211,"Delta":223249388},{"NoteNumber":54,"Velocity":52,"Duration":137211,"SoundDuration":137211,"Delta":223249388},{"NoteNumber":55,"Velocity":43,"Duration":137211,"SoundDuration":137211,"Delta":223432337},{"NoteNumber":54,"Velocity":43,"Duration":137211,"SoundDuration":137211,"Delta":223432337},{"NoteNumber":55,"Velocity":43,"Duration":137211,"SoundDuration":137211,"Delta":223615286},{"NoteNumber":54,"Velocity":43,"Duration":137211,"SoundDuration":137211,"Delta":223615286},{"NoteNumber":62,"Velocity":55,"Duration":545900,"SoundDuration":545900,"Delta":223798235},{"NoteNumber":71,"Velocity":55,"Duration":545900,"SoundDuration":545900,"Delta":223798235},{"NoteNumber":74,"Velocity":66,"Duration":545900,"SoundDuration":545900,"Delta":223798235},{"NoteNumber":53,"Velocity":54,"Duration":136475,"SoundDuration":136475,"Delta":223798235},{"NoteNumber":55,"Velocity":54,"Duration":136475,"SoundDuration":136475,"Delta":223798235},{"NoteNumber":55,"Velocity":45,"Duration":136475,"SoundDuration":136475,"Delta":223980202},{"NoteNumber":53,"Velocity":45,"Duration":136475,"SoundDuration":136475,"Delta":223980202},{"NoteNumber":55,"Velocity":45,"Duration":136475,"SoundDuration":136475,"Delta":224162169},{"NoteNumber":53,"Velocity":45,"Duration":136475,"SoundDuration":136475,"Delta":224162169},{"NoteNumber":60,"Velocity":63,"Duration":413754,"SoundDuration":413754,"Delta":224344136},{"NoteNumber":67,"Velocity":64,"Duration":413754,"SoundDuration":413754,"Delta":224344136},{"NoteNumber":72,"Velocity":66,"Duration":413754,"SoundDuration":413754,"Delta":224344136},{"NoteNumber":55,"Velocity":53,"Duration":137918,"SoundDuration":137918,"Delta":224344136},{"NoteNumber":51,"Velocity":53,"Duration":137918,"SoundDuration":137918,"Delta":224344136},{"NoteNumber":50,"Velocity":43,"Duration":137918,"SoundDuration":137918,"Delta":224528027},{"NoteNumber":55,"Velocity":43,"Duration":137918,"SoundDuration":137918,"Delta":224528027},{"NoteNumber":48,"Velocity":44,"Duration":145475,"SoundDuration":145475,"Delta":224711918},{"NoteNumber":55,"Velocity":44,"Duration":145475,"SoundDuration":145475,"Delta":224711918},{"NoteNumber":62,"Velocity":55,"Duration":149253,"SoundDuration":149253,"Delta":224757891},{"NoteNumber":67,"Velocity":55,"Duration":149253,"SoundDuration":149253,"Delta":224757891},{"NoteNumber":74,"Velocity":67,"Duration":149253,"SoundDuration":149253,"Delta":224757891},{"NoteNumber":67,"Velocity":64,"Duration":1088098,"SoundDuration":1088098,"Delta":224907145},{"NoteNumber":63,"Velocity":64,"Duration":951112,"SoundDuration":951112,"Delta":224907145},{"NoteNumber":75,"Velocity":75,"Duration":951112,"SoundDuration":951112,"Delta":224907145},{"NoteNumber":48,"Velocity":57,"Duration":137918,"SoundDuration":137918,"Delta":224907145},{"NoteNumber":55,"Velocity":57,"Duration":137918,"SoundDuration":137918,"Delta":224907145},{"NoteNumber":48,"Velocity":45,"Duration":135998,"SoundDuration":135998,"Delta":225091036},{"NoteNumber":55,"Velocity":45,"Duration":135998,"SoundDuration":135998,"Delta":225091036},{"NoteNumber":55,"Velocity":45,"Duration":132158,"SoundDuration":132158,"Delta":225271087},{"NoteNumber":48,"Velocity":45,"Duration":132158,"SoundDuration":132158,"Delta":225271087},{"NoteNumber":55,"Velocity":54,"Duration":136986,"SoundDuration":136986,"Delta":225447298},{"NoteNumber":46,"Velocity":54,"Duration":136986,"SoundDuration":136986,"Delta":225447298},{"NoteNumber":55,"Velocity":45,"Duration":136986,"SoundDuration":136986,"Delta":225629946},{"NoteNumber":46,"Velocity":45,"Duration":136986,"SoundDuration":136986,"Delta":225629946},{"NoteNumber":46,"Velocity":45,"Duration":136986,"SoundDuration":136986,"Delta":225812595},{"NoteNumber":55,"Velocity":45,"Duration":136986,"SoundDuration":136986,"Delta":225812595},{"NoteNumber":62,"Velocity":69,"Duration":136986,"SoundDuration":136986,"Delta":225858257},{"NoteNumber":74,"Velocity":69,"Duration":136986,"SoundDuration":136986,"Delta":225858257},{"NoteNumber":60,"Velocity":60,"Duration":578541,"SoundDuration":578541,"Delta":225995243},{"NoteNumber":67,"Velocity":64,"Duration":578541,"SoundDuration":578541,"Delta":225995243},{"NoteNumber":72,"Velocity":76,"Duration":578541,"SoundDuration":578541,"Delta":225995243},{"NoteNumber":45,"Velocity":55,"Duration":136986,"SoundDuration":136986,"Delta":225995243},{"NoteNumber":55,"Velocity":55,"Duration":136986,"SoundDuration":136986,"Delta":225995243},{"NoteNumber":45,"Velocity":43,"Duration":142085,"SoundDuration":142085,"Delta":226177891},{"NoteNumber":55,"Velocity":43,"Duration":142085,"SoundDuration":142085,"Delta":226177891},{"NoteNumber":45,"Velocity":43,"Duration":152284,"SoundDuration":152284,"Delta":226370738},{"NoteNumber":55,"Velocity":43,"Duration":152284,"SoundDuration":152284,"Delta":226370738},{"NoteNumber":66,"Velocity":58,"Duration":553368,"SoundDuration":553368,"Delta":226573784},{"NoteNumber":62,"Velocity":58,"Duration":553368,"SoundDuration":553368,"Delta":226573784},{"NoteNumber":74,"Velocity":69,"Duration":410958,"SoundDuration":410958,"Delta":226573784},{"NoteNumber":44,"Velocity":52,"Duration":136986,"SoundDuration":136986,"Delta":226573784},{"NoteNumber":54,"Velocity":52,"Duration":136986,"SoundDuration":136986,"Delta":226573784},{"NoteNumber":44,"Velocity":43,"Duration":136986,"SoundDuration":136986,"Delta":226756432},{"NoteNumber":54,"Velocity":43,"Duration":136986,"SoundDuration":136986,"Delta":226756432},{"NoteNumber":54,"Velocity":42,"Duration":140601,"SoundDuration":140601,"Delta":226939081},{"NoteNumber":44,"Velocity":42,"Duration":140601,"SoundDuration":140601,"Delta":226939081},{"NoteNumber":72,"Velocity":60,"Duration":142409,"SoundDuration":142409,"Delta":226984743},{"NoteNumber":62,"Velocity":55,"Duration":555555,"SoundDuration":555555,"Delta":227127152},{"NoteNumber":65,"Velocity":55,"Duration":555555,"SoundDuration":555555,"Delta":227127152},{"NoteNumber":71,"Velocity":66,"Duration":555555,"SoundDuration":555555,"Delta":227127152},{"NoteNumber":43,"Velocity":54,"Duration":138889,"SoundDuration":138889,"Delta":227127152},{"NoteNumber":53,"Velocity":54,"Duration":138889,"SoundDuration":138889,"Delta":227127152},{"NoteNumber":43,"Velocity":45,"Duration":138889,"SoundDuration":138889,"Delta":227312338},{"NoteNumber":53,"Velocity":45,"Duration":138889,"SoundDuration":138889,"Delta":227312338},{"NoteNumber":43,"Velocity":45,"Duration":138889,"SoundDuration":138889,"Delta":227497523},{"NoteNumber":53,"Velocity":45,"Duration":138889,"SoundDuration":138889,"Delta":227497523},{"NoteNumber":62,"Velocity":52,"Duration":550458,"SoundDuration":550458,"Delta":227682708},{"NoteNumber":67,"Velocity":52,"Duration":412844,"SoundDuration":412844,"Delta":227682708},{"NoteNumber":71,"Velocity":62,"Duration":550458,"SoundDuration":550458,"Delta":227682708},{"NoteNumber":43,"Velocity":54,"Duration":137614,"SoundDuration":137614,"Delta":227682708},{"NoteNumber":41,"Velocity":54,"Duration":137614,"SoundDuration":137614,"Delta":227682708},{"NoteNumber":41,"Velocity":43,"Duration":137614,"SoundDuration":137614,"Delta":227866195},{"NoteNumber":43,"Velocity":43,"Duration":137614,"SoundDuration":137614,"Delta":227866195},{"NoteNumber":43,"Velocity":43,"Duration":137614,"SoundDuration":137614,"Delta":228049681},{"NoteNumber":41,"Velocity":43,"Duration":137614,"SoundDuration":137614,"Delta":228049681},{"NoteNumber":68,"Velocity":51,"Duration":137614,"SoundDuration":137614,"Delta":228095553},{"NoteNumber":60,"Velocity":57,"Duration":583277,"SoundDuration":583277,"Delta":228233167},{"NoteNumber":67,"Velocity":59,"Duration":583277,"SoundDuration":583277,"Delta":228233167},{"NoteNumber":72,"Velocity":73,"Duration":583277,"SoundDuration":583277,"Delta":228233167},{"NoteNumber":39,"Velocity":55,"Duration":140884,"SoundDuration":140884,"Delta":228233167},{"NoteNumber":43,"Velocity":55,"Duration":140884,"SoundDuration":140884,"Delta":228233167},{"NoteNumber":43,"Velocity":43,"Duration":144174,"SoundDuration":144174,"Delta":228421014},{"NoteNumber":39,"Velocity":43,"Duration":144174,"SoundDuration":144174,"Delta":228421014},{"NoteNumber":39,"Velocity":43,"Duration":150753,"SoundDuration":150753,"Delta":228615439},{"NoteNumber":43,"Velocity":43,"Duration":150753,"SoundDuration":150753,"Delta":228615439},{"NoteNumber":65,"Velocity":64,"Duration":572574,"SoundDuration":572574,"Delta":228816444},{"NoteNumber":71,"Velocity":64,"Duration":572574,"SoundDuration":572574,"Delta":228816444},{"NoteNumber":75,"Velocity":75,"Duration":424528,"SoundDuration":424528,"Delta":228816444},{"NoteNumber":31,"Velocity":57,"Duration":141509,"SoundDuration":141509,"Delta":228816444},{"NoteNumber":43,"Velocity":57,"Duration":141509,"SoundDuration":141509,"Delta":228816444},{"NoteNumber":43,"Velocity":43,"Duration":141509,"SoundDuration":141509,"Delta":229005124},{"NoteNumber":31,"Velocity":43,"Duration":141509,"SoundDuration":141509,"Delta":229005124},{"NoteNumber":43,"Velocity":43,"Duration":145866,"SoundDuration":145866,"Delta":229193803},{"NoteNumber":31,"Velocity":43,"Duration":145866,"SoundDuration":145866,"Delta":229193803},{"NoteNumber":74,"Velocity":62,"Duration":148045,"SoundDuration":148045,"Delta":229240973},{"NoteNumber":63,"Velocity":61,"Duration":1776549,"SoundDuration":1776549,"Delta":229389019},{"NoteNumber":72,"Velocity":73,"Duration":1776549,"SoundDuration":1776549,"Delta":229389019},{"NoteNumber":36,"Velocity":40,"Duration":197394,"SoundDuration":197394,"Delta":229389019},{"NoteNumber":48,"Velocity":40,"Duration":197394,"SoundDuration":197394,"Delta":229389019},{"NoteNumber":55,"Velocity":31,"Duration":148045,"SoundDuration":148045,"Delta":229586413},{"NoteNumber":55,"Velocity":31,"Duration":148045,"SoundDuration":148045,"Delta":229783807},{"NoteNumber":55,"Velocity":31,"Duration":148045,"SoundDuration":148045,"Delta":229981202},{"NoteNumber":55,"Velocity":29,"Duration":148045,"SoundDuration":148045,"Delta":230178596},{"NoteNumber":55,"Velocity":29,"Duration":148045,"SoundDuration":148045,"Delta":230375990},{"NoteNumber":55,"Velocity":29,"Duration":148045,"SoundDuration":148045,"Delta":230573385},{"NoteNumber":55,"Velocity":28,"Duration":148045,"SoundDuration":148045,"Delta":230770779},{"NoteNumber":55,"Velocity":28,"Duration":148045,"SoundDuration":148045,"Delta":230968173},{"NoteNumber":74,"Velocity":44,"Duration":413754,"SoundDuration":413754,"Delta":231165568},{"NoteNumber":55,"Velocity":31,"Duration":137918,"SoundDuration":137918,"Delta":231165568},{"NoteNumber":55,"Velocity":30,"Duration":137918,"SoundDuration":137918,"Delta":231349459},{"NoteNumber":55,"Velocity":30,"Duration":137918,"SoundDuration":137918,"Delta":231533350},{"NoteNumber":75,"Velocity":38,"Duration":137918,"SoundDuration":137918,"Delta":231579322},{"NoteNumber":77,"Velocity":51,"Duration":559076,"SoundDuration":559076,"Delta":231717241},{"NoteNumber":56,"Velocity":31,"Duration":139769,"SoundDuration":139769,"Delta":231717241},{"NoteNumber":56,"Velocity":27,"Duration":139769,"SoundDuration":139769,"Delta":231903599},{"NoteNumber":56,"Velocity":27,"Duration":139769,"SoundDuration":139769,"Delta":232089958},{"NoteNumber":65,"Velocity":35,"Duration":551368,"SoundDuration":551368,"Delta":232276317},{"NoteNumber":77,"Velocity":42,"Duration":551368,"SoundDuration":551368,"Delta":232276317},{"NoteNumber":57,"Velocity":31,"Duration":137842,"SoundDuration":137842,"Delta":232276317},{"NoteNumber":57,"Velocity":28,"Duration":137842,"SoundDuration":137842,"Delta":232460106},{"NoteNumber":57,"Velocity":28,"Duration":137842,"SoundDuration":137842,"Delta":232643896},{"NoteNumber":68,"Velocity":35,"Duration":545900,"SoundDuration":545900,"Delta":232827686},{"NoteNumber":77,"Velocity":42,"Duration":545900,"SoundDuration":545900,"Delta":232827686},{"NoteNumber":58,"Velocity":31,"Duration":136475,"SoundDuration":136475,"Delta":232827686},{"NoteNumber":58,"Velocity":31,"Duration":136475,"SoundDuration":136475,"Delta":233009653},{"NoteNumber":58,"Velocity":31,"Duration":136475,"SoundDuration":136475,"Delta":233191620},{"NoteNumber":75,"Velocity":46,"Duration":413754,"SoundDuration":413754,"Delta":233373587},{"NoteNumber":58,"Velocity":31,"Duration":137918,"SoundDuration":137918,"Delta":233373587},{"NoteNumber":58,"Velocity":31,"Duration":137918,"SoundDuration":137918,"Delta":233557478},{"NoteNumber":58,"Velocity":32,"Duration":137918,"SoundDuration":137918,"Delta":233741369},{"NoteNumber":74,"Velocity":47,"Duration":137918,"SoundDuration":137918,"Delta":233787341},{"NoteNumber":79,"Velocity":53,"Duration":827509,"SoundDuration":827509,"Delta":233925260},{"NoteNumber":58,"Velocity":40,"Duration":137918,"SoundDuration":137918,"Delta":233925260},{"NoteNumber":58,"Velocity":31,"Duration":137918,"SoundDuration":137918,"Delta":234109151},{"NoteNumber":58,"Velocity":26,"Duration":137918,"SoundDuration":137918,"Delta":234293042},{"NoteNumber":67,"Velocity":50,"Duration":413754,"SoundDuration":413754,"Delta":234476933},{"NoteNumber":59,"Velocity":33,"Duration":137918,"SoundDuration":137918,"Delta":234476933},{"NoteNumber":59,"Velocity":29,"Duration":137918,"SoundDuration":137918,"Delta":234660824},{"NoteNumber":77,"Velocity":44,"Duration":275836,"SoundDuration":275836,"Delta":234752769},{"NoteNumber":59,"Velocity":26,"Duration":137918,"SoundDuration":137918,"Delta":234844715},{"NoteNumber":68,"Velocity":53,"Duration":137918,"SoundDuration":137918,"Delta":234890687},{"NoteNumber":75,"Velocity":39,"Duration":559076,"SoundDuration":559076,"Delta":235028606},{"NoteNumber":60,"Velocity":33,"Duration":139769,"SoundDuration":139769,"Delta":235028606},{"NoteNumber":55,"Velocity":30,"Duration":139769,"SoundDuration":139769,"Delta":235214964},{"NoteNumber":55,"Velocity":29,"Duration":139769,"SoundDuration":139769,"Delta":235401323},{"NoteNumber":74,"Velocity":49,"Duration":407313,"SoundDuration":407313,"Delta":235587682},{"NoteNumber":55,"Velocity":33,"Duration":135771,"SoundDuration":135771,"Delta":235587682},{"NoteNumber":55,"Velocity":30,"Duration":135771,"SoundDuration":135771,"Delta":235768710},{"NoteNumber":55,"Velocity":30,"Duration":140196,"SoundDuration":140196,"Delta":235949738},{"NoteNumber":72,"Velocity":42,"Duration":142409,"SoundDuration":142409,"Delta":235994995},{"NoteNumber":71,"Velocity":46,"Duration":551672,"SoundDuration":551672,"Delta":236137405},{"NoteNumber":55,"Velocity":31,"Duration":137918,"SoundDuration":137918,"Delta":236137405},{"NoteNumber":55,"Velocity":28,"Duration":137918,"SoundDuration":137918,"Delta":236321296},{"NoteNumber":55,"Velocity":28,"Duration":137918,"SoundDuration":137918,"Delta":236505187},{"NoteNumber":68,"Velocity":41,"Duration":275836,"SoundDuration":275836,"Delta":236689078},{"NoteNumber":71,"Velocity":44,"Duration":551672,"SoundDuration":551672,"Delta":236689078},{"NoteNumber":55,"Velocity":31,"Duration":137918,"SoundDuration":137918,"Delta":236689078},{"NoteNumber":55,"Velocity":28,"Duration":137918,"SoundDuration":137918,"Delta":236872969},{"NoteNumber":67,"Velocity":40,"Duration":275836,"SoundDuration":275836,"Delta":236964914},{"NoteNumber":55,"Velocity":31,"Duration":137918,"SoundDuration":137918,"Delta":237056860},{"NoteNumber":65,"Velocity":41,"Duration":287576,"SoundDuration":287576,"Delta":237240751},{"NoteNumber":72,"Velocity":48,"Duration":575153,"SoundDuration":575153,"Delta":237240751},{"NoteNumber":55,"Velocity":36,"Duration":143788,"SoundDuration":143788,"Delta":237240751},{"NoteNumber":55,"Velocity":29,"Duration":143788,"SoundDuration":143788,"Delta":237432468},{"NoteNumber":63,"Velocity":41,"Duration":287576,"SoundDuration":287576,"Delta":237528327},{"NoteNumber":55,"Velocity":29,"Duration":143788,"SoundDuration":143788,"Delta":237624186},{"NoteNumber":62,"Velocity":41,"Duration":279538,"SoundDuration":279538,"Delta":237815904},{"NoteNumber":77,"Velocity":43,"Duration":419307,"SoundDuration":419307,"Delta":237815904},{"NoteNumber":55,"Velocity":36,"Duration":139769,"SoundDuration":139769,"Delta":237815904},{"NoteNumber":55,"Velocity":31,"Duration":139769,"SoundDuration":139769,"Delta":238002262},{"NoteNumber":60,"Velocity":41,"Duration":287814,"SoundDuration":287814,"Delta":238095442},{"NoteNumber":55,"Velocity":31,"Duration":145286,"SoundDuration":145286,"Delta":238188621},{"NoteNumber":75,"Velocity":44,"Duration":148045,"SoundDuration":148045,"Delta":238235211},{"NoteNumber":68,"Velocity":41,"Duration":148045,"SoundDuration":148045,"Delta":238383257},{"NoteNumber":74,"Velocity":51,"Duration":1776549,"SoundDuration":1776549,"Delta":238383257},{"NoteNumber":55,"Velocity":37,"Duration":148045,"SoundDuration":148045,"Delta":238383257},{"NoteNumber":67,"Velocity":47,"Duration":1628503,"SoundDuration":1628503,"Delta":238531302},{"NoteNumber":55,"Velocity":29,"Duration":148045,"SoundDuration":148045,"Delta":238580651},{"NoteNumber":55,"Velocity":29,"Duration":148045,"SoundDuration":148045,"Delta":238778045},{"NoteNumber":55,"Velocity":42,"Duration":148045,"SoundDuration":148045,"Delta":238975440},{"NoteNumber":55,"Velocity":35,"Duration":148045,"SoundDuration":148045,"Delta":239172834},{"NoteNumber":55,"Velocity":37,"Duration":148045,"SoundDuration":148045,"Delta":239370228},{"NoteNumber":55,"Velocity":49,"Duration":197394,"SoundDuration":197394,"Delta":239567623},{"NoteNumber":56,"Velocity":36,"Duration":197394,"SoundDuration":197394,"Delta":239765017},{"NoteNumber":57,"Velocity":36,"Duration":197394,"SoundDuration":197394,"Delta":239962411},{"NoteNumber":74,"Velocity":62,"Duration":413754,"SoundDuration":413754,"Delta":240159806},{"NoteNumber":58,"Velocity":52,"Duration":137918,"SoundDuration":137918,"Delta":240159806},{"NoteNumber":58,"Velocity":45,"Duration":137918,"SoundDuration":137918,"Delta":240343697},{"NoteNumber":58,"Velocity":52,"Duration":137918,"SoundDuration":137918,"Delta":240527588},{"NoteNumber":75,"Velocity":60,"Duration":137918,"SoundDuration":137918,"Delta":240573560},{"NoteNumber":65,"Velocity":61,"Duration":551672,"SoundDuration":551672,"Delta":240711479},{"NoteNumber":74,"Velocity":61,"Duration":551672,"SoundDuration":551672,"Delta":240711479},{"NoteNumber":77,"Velocity":73,"Duration":551672,"SoundDuration":551672,"Delta":240711479},{"NoteNumber":58,"Velocity":59,"Duration":137918,"SoundDuration":137918,"Delta":240711479},{"NoteNumber":58,"Velocity":47,"Duration":137918,"SoundDuration":137918,"Delta":240895370},{"NoteNumber":58,"Velocity":47,"Duration":137918,"SoundDuration":137918,"Delta":241079261},{"NoteNumber":65,"Velocity":50,"Duration":551673,"SoundDuration":551673,"Delta":241263152},{"NoteNumber":74,"Velocity":50,"Duration":551673,"SoundDuration":551673,"Delta":241263152},{"NoteNumber":77,"Velocity":60,"Duration":551673,"SoundDuration":551673,"Delta":241263152},{"NoteNumber":57,"Velocity":44,"Duration":137918,"SoundDuration":137918,"Delta":241263152},{"NoteNumber":58,"Velocity":52,"Duration":137918,"SoundDuration":137918,"Delta":241263152},{"NoteNumber":58,"Velocity":43,"Duration":137918,"SoundDuration":137918,"Delta":241447043},{"NoteNumber":57,"Velocity":36,"Duration":137918,"SoundDuration":137918,"Delta":241447043},{"NoteNumber":58,"Velocity":43,"Duration":137918,"SoundDuration":137918,"Delta":241630934},{"NoteNumber":57,"Velocity":36,"Duration":137918,"SoundDuration":137918,"Delta":241630934},{"NoteNumber":65,"Velocity":50,"Duration":545900,"SoundDuration":545900,"Delta":241814825},{"NoteNumber":74,"Velocity":50,"Duration":545900,"SoundDuration":545900,"Delta":241814825},{"NoteNumber":77,"Velocity":60,"Duration":545900,"SoundDuration":545900,"Delta":241814825},{"NoteNumber":58,"Velocity":54,"Duration":136475,"SoundDuration":136475,"Delta":241814825},{"NoteNumber":56,"Velocity":45,"Duration":136475,"SoundDuration":136475,"Delta":241814825},{"NoteNumber":56,"Velocity":38,"Duration":136475,"SoundDuration":136475,"Delta":241996792},{"NoteNumber":58,"Velocity":45,"Duration":136475,"SoundDuration":136475,"Delta":241996792},{"NoteNumber":56,"Velocity":38,"Duration":136475,"SoundDuration":136475,"Delta":242178759},{"NoteNumber":58,"Velocity":45,"Duration":136475,"SoundDuration":136475,"Delta":242178759},{"NoteNumber":67,"Velocity":63,"Duration":413754,"SoundDuration":413754,"Delta":242360726},{"NoteNumber":75,"Velocity":63,"Duration":413754,"SoundDuration":413754,"Delta":242360726},{"NoteNumber":79,"Velocity":63,"Duration":413754,"SoundDuration":413754,"Delta":242360726},{"NoteNumber":58,"Velocity":53,"Duration":137918,"SoundDuration":137918,"Delta":242360726},{"NoteNumber":55,"Velocity":45,"Duration":137918,"SoundDuration":137918,"Delta":242360726},{"NoteNumber":58,"Velocity":43,"Duration":137918,"SoundDuration":137918,"Delta":242544617},{"NoteNumber":55,"Velocity":36,"Duration":137918,"SoundDuration":137918,"Delta":242544617},{"NoteNumber":53,"Velocity":37,"Duration":137918,"SoundDuration":137918,"Delta":242728508},{"NoteNumber":58,"Velocity":44,"Duration":137918,"SoundDuration":137918,"Delta":242728508},{"NoteNumber":56,"Velocity":37,"Duration":137918,"SoundDuration":137918,"Delta":242728508},{"NoteNumber":68,"Velocity":55,"Duration":137918,"SoundDuration":137918,"Delta":242774480},{"NoteNumber":77,"Velocity":55,"Duration":137918,"SoundDuration":137918,"Delta":242774480},{"NoteNumber":80,"Velocity":67,"Duration":137918,"SoundDuration":137918,"Delta":242774480},{"NoteNumber":79,"Velocity":64,"Duration":534457,"SoundDuration":534457,"Delta":242912399},{"NoteNumber":70,"Velocity":64,"Duration":534457,"SoundDuration":534457,"Delta":242912399},{"NoteNumber":82,"Velocity":75,"Duration":534457,"SoundDuration":534457,"Delta":242912399},{"NoteNumber":51,"Velocity":48,"Duration":137918,"SoundDuration":137918,"Delta":242912399},{"NoteNumber":58,"Velocity":57,"Duration":137918,"SoundDuration":137918,"Delta":242912399},{"NoteNumber":55,"Velocity":57,"Duration":137918,"SoundDuration":137918,"Delta":242912399},{"NoteNumber":51,"Velocity":38,"Duration":135048,"SoundDuration":135048,"Delta":243096290},{"NoteNumber":55,"Velocity":45,"Duration":135048,"SoundDuration":135048,"Delta":243096290},{"NoteNumber":58,"Velocity":45,"Duration":135048,"SoundDuration":135048,"Delta":243096290},{"NoteNumber":51,"Velocity":38,"Duration":129310,"SoundDuration":129310,"Delta":243274442},{"NoteNumber":58,"Velocity":45,"Duration":129310,"SoundDuration":129310,"Delta":243274442},{"NoteNumber":55,"Velocity":45,"Duration":129310,"SoundDuration":129310,"Delta":243274442},{"NoteNumber":68,"Velocity":69,"Duration":547944,"SoundDuration":547944,"Delta":243446856},{"NoteNumber":80,"Velocity":69,"Duration":547944,"SoundDuration":547944,"Delta":243446856},{"NoteNumber":47,"Velocity":45,"Duration":136986,"SoundDuration":136986,"Delta":243446856},{"NoteNumber":53,"Velocity":45,"Duration":136986,"SoundDuration":136986,"Delta":243446856},{"NoteNumber":56,"Velocity":54,"Duration":136986,"SoundDuration":136986,"Delta":243446856},{"NoteNumber":47,"Velocity":38,"Duration":136986,"SoundDuration":136986,"Delta":243629504},{"NoteNumber":53,"Velocity":45,"Duration":136986,"SoundDuration":136986,"Delta":243629504},{"NoteNumber":56,"Velocity":45,"Duration":136986,"SoundDuration":136986,"Delta":243629504},{"NoteNumber":47,"Velocity":38,"Duration":136986,"SoundDuration":136986,"Delta":243812152},{"NoteNumber":53,"Velocity":45,"Duration":136986,"SoundDuration":136986,"Delta":243812152},{"NoteNumber":56,"Velocity":45,"Duration":136986,"SoundDuration":136986,"Delta":243812152},{"NoteNumber":75,"Velocity":64,"Duration":547944,"SoundDuration":547944,"Delta":243994801},{"NoteNumber":79,"Velocity":76,"Duration":547944,"SoundDuration":547944,"Delta":243994801},{"NoteNumber":48,"Velocity":46,"Duration":136986,"SoundDuration":136986,"Delta":243994801},{"NoteNumber":55,"Velocity":55,"Duration":136986,"SoundDuration":136986,"Delta":243994801},{"NoteNumber":51,"Velocity":46,"Duration":136986,"SoundDuration":136986,"Delta":243994801},{"NoteNumber":48,"Velocity":36,"Duration":136986,"SoundDuration":136986,"Delta":244177449},{"NoteNumber":51,"Velocity":36,"Duration":136986,"SoundDuration":136986,"Delta":244177449},{"NoteNumber":55,"Velocity":43,"Duration":136986,"SoundDuration":136986,"Delta":244177449},{"NoteNumber":48,"Velocity":36,"Duration":136986,"SoundDuration":136986,"Delta":244360097},{"NoteNumber":51,"Velocity":36,"Duration":136986,"SoundDuration":136986,"Delta":244360097},{"NoteNumber":55,"Velocity":43,"Duration":136986,"SoundDuration":136986,"Delta":244360097},{"NoteNumber":65,"Velocity":58,"Duration":549723,"SoundDuration":549723,"Delta":244542746},{"NoteNumber":77,"Velocity":69,"Duration":407313,"SoundDuration":407313,"Delta":244542746},{"NoteNumber":44,"Velocity":44,"Duration":135771,"SoundDuration":135771,"Delta":244542746},{"NoteNumber":53,"Velocity":52,"Duration":135771,"SoundDuration":135771,"Delta":244542746},{"NoteNumber":53,"Velocity":43,"Duration":135771,"SoundDuration":135771,"Delta":244723774},{"NoteNumber":46,"Velocity":36,"Duration":135771,"SoundDuration":135771,"Delta":244723774},{"NoteNumber":53,"Velocity":42,"Duration":140196,"SoundDuration":140196,"Delta":244904802},{"NoteNumber":44,"Velocity":35,"Duration":140196,"SoundDuration":140196,"Delta":244904802},{"NoteNumber":74,"Velocity":60,"Duration":142409,"SoundDuration":142409,"Delta":244950059},{"NoteNumber":62,"Velocity":55,"Duration":551672,"SoundDuration":551672,"Delta":245092469},{"NoteNumber":65,"Velocity":55,"Duration":551672,"SoundDuration":551672,"Delta":245092469},{"NoteNumber":71,"Velocity":66,"Duration":551672,"SoundDuration":551672,"Delta":245092469},{"NoteNumber":43,"Velocity":47,"Duration":137918,"SoundDuration":137918,"Delta":245092469},{"NoteNumber":53,"Velocity":56,"Duration":137918,"SoundDuration":137918,"Delta":245092469},{"NoteNumber":44,"Velocity":40,"Duration":137918,"SoundDuration":137918,"Delta":245276360},{"NoteNumber":53,"Velocity":47,"Duration":137918,"SoundDuration":137918,"Delta":245276360},{"NoteNumber":43,"Velocity":40,"Duration":137918,"SoundDuration":137918,"Delta":245460251},{"NoteNumber":53,"Velocity":48,"Duration":137918,"SoundDuration":137918,"Delta":245460251},{"NoteNumber":62,"Velocity":52,"Duration":551672,"SoundDuration":551672,"Delta":245644142},{"NoteNumber":67,"Velocity":52,"Duration":413754,"SoundDuration":413754,"Delta":245644142},{"NoteNumber":71,"Velocity":62,"Duration":551672,"SoundDuration":551672,"Delta":245644142},{"NoteNumber":43,"Velocity":58,"Duration":137918,"SoundDuration":137918,"Delta":245644142},{"NoteNumber":41,"Velocity":48,"Duration":137918,"SoundDuration":137918,"Delta":245644142},{"NoteNumber":43,"Velocity":47,"Duration":137918,"SoundDuration":137918,"Delta":245828033},{"NoteNumber":43,"Velocity":47,"Duration":137918,"SoundDuration":137918,"Delta":246011924},{"NoteNumber":41,"Velocity":39,"Duration":137918,"SoundDuration":137918,"Delta":246011924},{"NoteNumber":68,"Velocity":51,"Duration":137918,"SoundDuration":137918,"Delta":246057897},{"NoteNumber":60,"Velocity":57,"Duration":591163,"SoundDuration":591163,"Delta":246195815},{"NoteNumber":67,"Velocity":59,"Duration":591163,"SoundDuration":591163,"Delta":246195815},{"NoteNumber":72,"Velocity":73,"Duration":591163,"SoundDuration":591163,"Delta":246195815},{"NoteNumber":39,"Velocity":51,"Duration":140884,"SoundDuration":140884,"Delta":246195815},{"NoteNumber":43,"Velocity":61,"Duration":140884,"SoundDuration":140884,"Delta":246195815},{"NoteNumber":41,"Velocity":41,"Duration":140884,"SoundDuration":140884,"Delta":246383661},{"NoteNumber":43,"Velocity":49,"Duration":140884,"SoundDuration":140884,"Delta":246383661},{"NoteNumber":43,"Velocity":49,"Duration":161603,"SoundDuration":161603,"Delta":246571507},{"NoteNumber":39,"Velocity":41,"Duration":161603,"SoundDuration":161603,"Delta":246571507},{"NoteNumber":65,"Velocity":64,"Duration":572574,"SoundDuration":572574,"Delta":246786978},{"NoteNumber":71,"Velocity":64,"Duration":572574,"SoundDuration":572574,"Delta":246786978},{"NoteNumber":75,"Velocity":75,"Duration":424528,"SoundDuration":424528,"Delta":246786978},{"NoteNumber":31,"Velocity":55,"Duration":141509,"SoundDuration":141509,"Delta":246786978},{"NoteNumber":43,"Velocity":66,"Duration":141509,"SoundDuration":141509,"Delta":246786978},{"NoteNumber":43,"Velocity":50,"Duration":141509,"SoundDuration":141509,"Delta":246975657},{"NoteNumber":32,"Velocity":42,"Duration":141509,"SoundDuration":141509,"Delta":246975657},{"NoteNumber":43,"Velocity":51,"Duration":145866,"SoundDuration":145866,"Delta":247164337},{"NoteNumber":31,"Velocity":42,"Duration":145866,"SoundDuration":145866,"Delta":247164337},{"NoteNumber":74,"Velocity":62,"Duration":148045,"SoundDuration":148045,"Delta":247211507},{"NoteNumber":63,"Velocity":64,"Duration":1753649,"SoundDuration":1753649,"Delta":247359552},{"NoteNumber":72,"Velocity":76,"Duration":1753649,"SoundDuration":1753649,"Delta":247359552},{"NoteNumber":36,"Velocity":53,"Duration":197394,"SoundDuration":197394,"Delta":247359552},{"NoteNumber":43,"Velocity":53,"Duration":197394,"SoundDuration":197394,"Delta":247359552},{"NoteNumber":48,"Velocity":63,"Duration":197394,"SoundDuration":197394,"Delta":247359552},{"NoteNumber":50,"Velocity":60,"Duration":197394,"SoundDuration":197394,"Delta":247556947},{"NoteNumber":48,"Velocity":60,"Duration":197394,"SoundDuration":197394,"Delta":247754341},{"NoteNumber":46,"Velocity":68,"Duration":194514,"SoundDuration":194514,"Delta":247951735},{"NoteNumber":48,"Velocity":62,"Duration":194514,"SoundDuration":194514,"Delta":248146250},{"NoteNumber":46,"Velocity":62,"Duration":194514,"SoundDuration":194514,"Delta":248340765},{"NoteNumber":44,"Velocity":73,"Duration":173376,"SoundDuration":173376,"Delta":248535279},{"NoteNumber":48,"Velocity":62,"Duration":173376,"SoundDuration":173376,"Delta":248535279},{"NoteNumber":46,"Velocity":63,"Duration":173376,"SoundDuration":173376,"Delta":248727920},{"NoteNumber":48,"Velocity":53,"Duration":173376,"SoundDuration":173376,"Delta":248727920},{"NoteNumber":44,"Velocity":64,"Duration":173376,"SoundDuration":173376,"Delta":248920561},{"NoteNumber":48,"Velocity":54,"Duration":173376,"SoundDuration":173376,"Delta":248920561},{"NoteNumber":60,"Velocity":72,"Duration":175063,"SoundDuration":175063,"Delta":249113202},{"NoteNumber":72,"Velocity":86,"Duration":175063,"SoundDuration":175063,"Delta":249113202},{"NoteNumber":43,"Velocity":78,"Duration":175063,"SoundDuration":175063,"Delta":249113202},{"NoteNumber":48,"Velocity":65,"Duration":175063,"SoundDuration":175063,"Delta":249113202},{"NoteNumber":60,"Velocity":72,"Duration":175063,"SoundDuration":175063,"Delta":249307717},{"NoteNumber":72,"Velocity":86,"Duration":175063,"SoundDuration":175063,"Delta":249307717},{"NoteNumber":44,"Velocity":65,"Duration":175063,"SoundDuration":175063,"Delta":249307717},{"NoteNumber":48,"Velocity":55,"Duration":175063,"SoundDuration":175063,"Delta":249307717},{"NoteNumber":60,"Velocity":72,"Duration":208526,"SoundDuration":208526,"Delta":249502232},{"NoteNumber":72,"Velocity":86,"Duration":208526,"SoundDuration":208526,"Delta":249502232},{"NoteNumber":43,"Velocity":65,"Duration":208526,"SoundDuration":208526,"Delta":249502232},{"NoteNumber":48,"Velocity":55,"Duration":208526,"SoundDuration":208526,"Delta":249502232},{"NoteNumber":84,"Velocity":94,"Duration":1759380,"SoundDuration":1759380,"Delta":249733928},{"NoteNumber":80,"Velocity":79,"Duration":1759380,"SoundDuration":1759380,"Delta":249733928},{"NoteNumber":74,"Velocity":79,"Duration":1759380,"SoundDuration":1759380,"Delta":249733928},{"NoteNumber":72,"Velocity":79,"Duration":1759380,"SoundDuration":1759380,"Delta":249733928},{"NoteNumber":41,"Velocity":79,"Duration":197394,"SoundDuration":197394,"Delta":249733928},{"NoteNumber":48,"Velocity":66,"Duration":197394,"SoundDuration":197394,"Delta":249733928},{"NoteNumber":43,"Velocity":65,"Duration":197394,"SoundDuration":197394,"Delta":249931322},{"NoteNumber":48,"Velocity":55,"Duration":197394,"SoundDuration":197394,"Delta":249931322},{"NoteNumber":41,"Velocity":65,"Duration":197394,"SoundDuration":197394,"Delta":250128716},{"NoteNumber":48,"Velocity":55,"Duration":197394,"SoundDuration":197394,"Delta":250128716},{"NoteNumber":44,"Velocity":78,"Duration":196425,"SoundDuration":196425,"Delta":250326111},{"NoteNumber":48,"Velocity":65,"Duration":196425,"SoundDuration":196425,"Delta":250326111},{"NoteNumber":46,"Velocity":65,"Duration":196425,"SoundDuration":196425,"Delta":250522536},{"NoteNumber":48,"Velocity":55,"Duration":196425,"SoundDuration":196425,"Delta":250522536},{"NoteNumber":44,"Velocity":65,"Duration":196424,"SoundDuration":196424,"Delta":250718961},{"NoteNumber":48,"Velocity":55,"Duration":196424,"SoundDuration":196424,"Delta":250718961},{"NoteNumber":43,"Velocity":73,"Duration":173376,"SoundDuration":173376,"Delta":250915386},{"NoteNumber":48,"Velocity":62,"Duration":173376,"SoundDuration":173376,"Delta":250915386},{"NoteNumber":44,"Velocity":65,"Duration":173376,"SoundDuration":173376,"Delta":251108027},{"NoteNumber":48,"Velocity":55,"Duration":173376,"SoundDuration":173376,"Delta":251108027},{"NoteNumber":43,"Velocity":65,"Duration":173376,"SoundDuration":173376,"Delta":251300668},{"NoteNumber":48,"Velocity":55,"Duration":173376,"SoundDuration":173376,"Delta":251300668},{"NoteNumber":60,"Velocity":71,"Duration":174216,"SoundDuration":174216,"Delta":251493309},{"NoteNumber":72,"Velocity":83,"Duration":174216,"SoundDuration":174216,"Delta":251493309},{"NoteNumber":41,"Velocity":74,"Duration":174216,"SoundDuration":174216,"Delta":251493309},{"NoteNumber":48,"Velocity":63,"Duration":174216,"SoundDuration":174216,"Delta":251493309},{"NoteNumber":60,"Velocity":71,"Duration":174215,"SoundDuration":174215,"Delta":251686882},{"NoteNumber":72,"Velocity":83,"Duration":174215,"SoundDuration":174215,"Delta":251686882},{"NoteNumber":43,"Velocity":65,"Duration":174215,"SoundDuration":174215,"Delta":251686882},{"NoteNumber":48,"Velocity":55,"Duration":174215,"SoundDuration":174215,"Delta":251686882},{"NoteNumber":60,"Velocity":71,"Duration":194973,"SoundDuration":194973,"Delta":251880455},{"NoteNumber":72,"Velocity":83,"Duration":194973,"SoundDuration":194973,"Delta":251880455},{"NoteNumber":41,"Velocity":65,"Duration":194973,"SoundDuration":194973,"Delta":251880455},{"NoteNumber":48,"Velocity":55,"Duration":194973,"SoundDuration":194973,"Delta":251880455},{"NoteNumber":84,"Velocity":95,"Duration":1722743,"SoundDuration":1722743,"Delta":252097093},{"NoteNumber":79,"Velocity":80,"Duration":1722743,"SoundDuration":1722743,"Delta":252097093},{"NoteNumber":75,"Velocity":80,"Duration":1722743,"SoundDuration":1722743,"Delta":252097093},{"NoteNumber":72,"Velocity":80,"Duration":1722743,"SoundDuration":1722743,"Delta":252097093},{"NoteNumber":39,"Velocity":79,"Duration":173376,"SoundDuration":173376,"Delta":252097093},{"NoteNumber":48,"Velocity":66,"Duration":173376,"SoundDuration":173376,"Delta":252097093},{"NoteNumber":41,"Velocity":65,"Duration":173376,"SoundDuration":173376,"Delta":252289734},{"NoteNumber":48,"Velocity":55,"Duration":173376,"SoundDuration":173376,"Delta":252289734},{"NoteNumber":39,"Velocity":65,"Duration":173376,"SoundDuration":173376,"Delta":252482375},{"NoteNumber":48,"Velocity":55,"Duration":173376,"SoundDuration":173376,"Delta":252482375},{"NoteNumber":43,"Velocity":77,"Duration":171722,"SoundDuration":171722,"Delta":252675016},{"NoteNumber":48,"Velocity":64,"Duration":171722,"SoundDuration":171722,"Delta":252675016},{"NoteNumber":44,"Velocity":65,"Duration":171723,"SoundDuration":171723,"Delta":252865819},{"NoteNumber":48,"Velocity":55,"Duration":171723,"SoundDuration":171723,"Delta":252865819},{"NoteNumber":43,"Velocity":65,"Duration":171722,"SoundDuration":171722,"Delta":253056623},{"NoteNumber":48,"Velocity":55,"Duration":171722,"SoundDuration":171722,"Delta":253056623},{"NoteNumber":41,"Velocity":75,"Duration":171723,"SoundDuration":171723,"Delta":253247426},{"NoteNumber":48,"Velocity":64,"Duration":171723,"SoundDuration":171723,"Delta":253247426},{"NoteNumber":43,"Velocity":65,"Duration":171722,"SoundDuration":171722,"Delta":253438229},{"NoteNumber":48,"Velocity":55,"Duration":171722,"SoundDuration":171722,"Delta":253438229},{"NoteNumber":41,"Velocity":65,"Duration":171723,"SoundDuration":171723,"Delta":253629033},{"NoteNumber":48,"Velocity":55,"Duration":171723,"SoundDuration":171723,"Delta":253629033},{"NoteNumber":60,"Velocity":71,"Duration":175063,"SoundDuration":175063,"Delta":253819836},{"NoteNumber":72,"Velocity":83,"Duration":175063,"SoundDuration":175063,"Delta":253819836},{"NoteNumber":39,"Velocity":74,"Duration":175063,"SoundDuration":175063,"Delta":253819836},{"NoteNumber":48,"Velocity":63,"Duration":175063,"SoundDuration":175063,"Delta":253819836},{"NoteNumber":60,"Velocity":71,"Duration":175063,"SoundDuration":175063,"Delta":254014351},{"NoteNumber":72,"Velocity":83,"Duration":175063,"SoundDuration":175063,"Delta":254014351},{"NoteNumber":41,"Velocity":66,"Duration":175063,"SoundDuration":175063,"Delta":254014351},{"NoteNumber":48,"Velocity":56,"Duration":175063,"SoundDuration":175063,"Delta":254014351},{"NoteNumber":60,"Velocity":71,"Duration":212213,"SoundDuration":212213,"Delta":254208865},{"NoteNumber":72,"Velocity":83,"Duration":212213,"SoundDuration":212213,"Delta":254208865},{"NoteNumber":39,"Velocity":66,"Duration":212213,"SoundDuration":212213,"Delta":254208865},{"NoteNumber":48,"Velocity":56,"Duration":212213,"SoundDuration":212213,"Delta":254208865},{"NoteNumber":73,"Velocity":90,"Duration":577922,"SoundDuration":577922,"Delta":254444659},{"NoteNumber":65,"Velocity":77,"Duration":577922,"SoundDuration":577922,"Delta":254444659},{"NoteNumber":61,"Velocity":77,"Duration":577922,"SoundDuration":577922,"Delta":254444659},{"NoteNumber":37,"Velocity":75,"Duration":173376,"SoundDuration":173376,"Delta":254444659},{"NoteNumber":44,"Velocity":64,"Duration":173376,"SoundDuration":173376,"Delta":254444659},{"NoteNumber":39,"Velocity":64,"Duration":173376,"SoundDuration":173376,"Delta":254637300},{"NoteNumber":44,"Velocity":54,"Duration":173376,"SoundDuration":173376,"Delta":254637300},{"NoteNumber":36,"Velocity":64,"Duration":173376,"SoundDuration":173376,"Delta":254829941},{"NoteNumber":44,"Velocity":54,"Duration":173376,"SoundDuration":173376,"Delta":254829941},{"NoteNumber":65,"Velocity":74,"Duration":437657,"SoundDuration":437657,"Delta":255022582},{"NoteNumber":77,"Velocity":88,"Duration":437657,"SoundDuration":437657,"Delta":255022582},{"NoteNumber":37,"Velocity":72,"Duration":175063,"SoundDuration":175063,"Delta":255022582},{"NoteNumber":44,"Velocity":60,"Duration":175063,"SoundDuration":175063,"Delta":255022582},{"NoteNumber":39,"Velocity":63,"Duration":175063,"SoundDuration":175063,"Delta":255217096},{"NoteNumber":44,"Velocity":52,"Duration":175063,"SoundDuration":175063,"Delta":255217096},{"NoteNumber":41,"Velocity":63,"Duration":175063,"SoundDuration":175063,"Delta":255411611},{"NoteNumber":44,"Velocity":52,"Duration":175063,"SoundDuration":175063,"Delta":255411611},{"NoteNumber":68,"Velocity":66,"Duration":145885,"SoundDuration":145885,"Delta":255460240},{"NoteNumber":80,"Velocity":79,"Duration":145885,"SoundDuration":145885,"Delta":255460240},{"NoteNumber":67,"Velocity":75,"Duration":595120,"SoundDuration":595120,"Delta":255606126},{"NoteNumber":72,"Velocity":75,"Duration":595120,"SoundDuration":595120,"Delta":255606126},{"NoteNumber":75,"Velocity":75,"Duration":595120,"SoundDuration":595120,"Delta":255606126},{"NoteNumber":79,"Velocity":89,"Duration":595120,"SoundDuration":595120,"Delta":255606126},{"NoteNumber":31,"Velocity":62,"Duration":178536,"SoundDuration":178536,"Delta":255606126},{"NoteNumber":43,"Velocity":73,"Duration":178536,"SoundDuration":178536,"Delta":255606126},{"NoteNumber":43,"Velocity":65,"Duration":178536,"SoundDuration":178536,"Delta":255804499},{"NoteNumber":43,"Velocity":60,"Duration":178536,"SoundDuration":178536,"Delta":256002872},{"NoteNumber":67,"Velocity":71,"Duration":610252,"SoundDuration":610252,"Delta":256201246},{"NoteNumber":71,"Velocity":71,"Duration":610252,"SoundDuration":610252,"Delta":256201246},{"NoteNumber":74,"Velocity":71,"Duration":610252,"SoundDuration":610252,"Delta":256201246},{"NoteNumber":79,"Velocity":83,"Duration":610252,"SoundDuration":610252,"Delta":256201246},{"NoteNumber":31,"Velocity":59,"Duration":183075,"SoundDuration":183075,"Delta":256201246},{"NoteNumber":43,"Velocity":71,"Duration":183075,"SoundDuration":183075,"Delta":256201246},{"NoteNumber":43,"Velocity":63,"Duration":183075,"SoundDuration":183075,"Delta":256404663},{"NoteNumber":43,"Velocity":63,"Duration":183075,"SoundDuration":183075,"Delta":256608080},{"NoteNumber":67,"Velocity":64,"Duration":1753649,"SoundDuration":1753649,"Delta":256811498},{"NoteNumber":60,"Velocity":64,"Duration":1753649,"SoundDuration":1753649,"Delta":256811498},{"NoteNumber":63,"Velocity":64,"Duration":1753649,"SoundDuration":1753649,"Delta":256811498},{"NoteNumber":72,"Velocity":76,"Duration":1753649,"SoundDuration":1753649,"Delta":256811498},{"NoteNumber":36,"Velocity":53,"Duration":197394,"SoundDuration":197394,"Delta":256811498},{"NoteNumber":43,"Velocity":53,"Duration":197394,"SoundDuration":197394,"Delta":256811498},{"NoteNumber":48,"Velocity":63,"Duration":197394,"SoundDuration":197394,"Delta":256811498},{"NoteNumber":51,"Velocity":60,"Duration":197394,"SoundDuration":197394,"Delta":257008892},{"NoteNumber":50,"Velocity":60,"Duration":197394,"SoundDuration":197394,"Delta":257206286},{"NoteNumber":48,"Velocity":68,"Duration":194514,"SoundDuration":194514,"Delta":257403681},{"NoteNumber":50,"Velocity":62,"Duration":194514,"SoundDuration":194514,"Delta":257598195},{"NoteNumber":48,"Velocity":62,"Duration":194514,"SoundDuration":194514,"Delta":257792710},{"NoteNumber":47,"Velocity":73,"Duration":192640,"SoundDuration":192640,"Delta":257987225},{"NoteNumber":48,"Velocity":63,"Duration":192641,"SoundDuration":192641,"Delta":258179866},{"NoteNumber":47,"Velocity":64,"Duration":192640,"SoundDuration":192640,"Delta":258372507},{"NoteNumber":60,"Velocity":72,"Duration":175063,"SoundDuration":175063,"Delta":258565148},{"NoteNumber":72,"Velocity":86,"Duration":175063,"SoundDuration":175063,"Delta":258565148},{"NoteNumber":46,"Velocity":78,"Duration":194514,"SoundDuration":194514,"Delta":258565148},{"NoteNumber":60,"Velocity":72,"Duration":175063,"SoundDuration":175063,"Delta":258759662},{"NoteNumber":72,"Velocity":86,"Duration":175063,"SoundDuration":175063,"Delta":258759662},{"NoteNumber":48,"Velocity":65,"Duration":194514,"SoundDuration":194514,"Delta":258759662},{"NoteNumber":60,"Velocity":72,"Duration":208526,"SoundDuration":208526,"Delta":258954177},{"NoteNumber":72,"Velocity":86,"Duration":208526,"SoundDuration":208526,"Delta":258954177},{"NoteNumber":46,"Velocity":65,"Duration":231695,"SoundDuration":231695,"Delta":258954177},{"NoteNumber":84,"Velocity":94,"Duration":1759380,"SoundDuration":1759380,"Delta":259185873},{"NoteNumber":74,"Velocity":79,"Duration":1759380,"SoundDuration":1759380,"Delta":259185873},{"NoteNumber":72,"Velocity":79,"Duration":1759380,"SoundDuration":1759380,"Delta":259185873},{"NoteNumber":45,"Velocity":79,"Duration":177654,"SoundDuration":177654,"Delta":259185873},{"NoteNumber":48,"Velocity":66,"Duration":177654,"SoundDuration":177654,"Delta":259185873},{"NoteNumber":46,"Velocity":65,"Duration":177654,"SoundDuration":177654,"Delta":259383267},{"NoteNumber":48,"Velocity":55,"Duration":177654,"SoundDuration":177654,"Delta":259383267},{"NoteNumber":45,"Velocity":65,"Duration":177654,"SoundDuration":177654,"Delta":259580662},{"NoteNumber":48,"Velocity":55,"Duration":177654,"SoundDuration":177654,"Delta":259580662},{"NoteNumber":44,"Velocity":78,"Duration":176782,"SoundDuration":176782,"Delta":259778056},{"NoteNumber":48,"Velocity":65,"Duration":176782,"SoundDuration":176782,"Delta":259778056},{"NoteNumber":46,"Velocity":65,"Duration":176782,"SoundDuration":176782,"Delta":259974481},{"NoteNumber":48,"Velocity":55,"Duration":176782,"SoundDuration":176782,"Delta":259974481},{"NoteNumber":44,"Velocity":65,"Duration":176782,"SoundDuration":176782,"Delta":260170906},{"NoteNumber":48,"Velocity":55,"Duration":176782,"SoundDuration":176782,"Delta":260170906},{"NoteNumber":43,"Velocity":73,"Duration":173376,"SoundDuration":173376,"Delta":260367331},{"NoteNumber":48,"Velocity":62,"Duration":173376,"SoundDuration":173376,"Delta":260367331},{"NoteNumber":44,"Velocity":65,"Duration":173376,"SoundDuration":173376,"Delta":260559972},{"NoteNumber":48,"Velocity":55,"Duration":173376,"SoundDuration":173376,"Delta":260559972},{"NoteNumber":43,"Velocity":65,"Duration":173376,"SoundDuration":173376,"Delta":260752613},{"NoteNumber":48,"Velocity":55,"Duration":173376,"SoundDuration":173376,"Delta":260752613},{"NoteNumber":60,"Velocity":71,"Duration":174216,"SoundDuration":174216,"Delta":260945254},{"NoteNumber":72,"Velocity":83,"Duration":174216,"SoundDuration":174216,"Delta":260945254},{"NoteNumber":41,"Velocity":74,"Duration":174216,"SoundDuration":174216,"Delta":260945254},{"NoteNumber":48,"Velocity":63,"Duration":174216,"SoundDuration":174216,"Delta":260945254},{"NoteNumber":60,"Velocity":71,"Duration":174216,"SoundDuration":174216,"Delta":261138827},{"NoteNumber":72,"Velocity":83,"Duration":174216,"SoundDuration":174216,"Delta":261138827},{"NoteNumber":43,"Velocity":65,"Duration":174216,"SoundDuration":174216,"Delta":261138827},{"NoteNumber":48,"Velocity":55,"Duration":174216,"SoundDuration":174216,"Delta":261138827},{"NoteNumber":60,"Velocity":71,"Duration":194973,"SoundDuration":194973,"Delta":261332401},{"NoteNumber":72,"Velocity":83,"Duration":194973,"SoundDuration":194973,"Delta":261332401},{"NoteNumber":41,"Velocity":65,"Duration":194973,"SoundDuration":194973,"Delta":261332401},{"NoteNumber":48,"Velocity":55,"Duration":194973,"SoundDuration":194973,"Delta":261332401},{"NoteNumber":84,"Velocity":95,"Duration":1722742,"SoundDuration":1722742,"Delta":261549038},{"NoteNumber":79,"Velocity":80,"Duration":1722742,"SoundDuration":1722742,"Delta":261549038},{"NoteNumber":72,"Velocity":80,"Duration":1722742,"SoundDuration":1722742,"Delta":261549038},{"NoteNumber":40,"Velocity":79,"Duration":173376,"SoundDuration":173376,"Delta":261549038},{"NoteNumber":48,"Velocity":66,"Duration":173376,"SoundDuration":173376,"Delta":261549038},{"NoteNumber":41,"Velocity":65,"Duration":173376,"SoundDuration":173376,"Delta":261741679},{"NoteNumber":48,"Velocity":55,"Duration":173376,"SoundDuration":173376,"Delta":261741679},{"NoteNumber":40,"Velocity":65,"Duration":173376,"SoundDuration":173376,"Delta":261934320},{"NoteNumber":48,"Velocity":55,"Duration":173376,"SoundDuration":173376,"Delta":261934320},{"NoteNumber":39,"Velocity":77,"Duration":171722,"SoundDuration":171722,"Delta":262126961},{"NoteNumber":48,"Velocity":64,"Duration":171722,"SoundDuration":171722,"Delta":262126961},{"NoteNumber":41,"Velocity":65,"Duration":171722,"SoundDuration":171722,"Delta":262317765},{"NoteNumber":48,"Velocity":55,"Duration":171722,"SoundDuration":171722,"Delta":262317765},{"NoteNumber":39,"Velocity":65,"Duration":171723,"SoundDuration":171723,"Delta":262508568},{"NoteNumber":48,"Velocity":55,"Duration":171723,"SoundDuration":171723,"Delta":262508568},{"NoteNumber":38,"Velocity":75,"Duration":171722,"SoundDuration":171722,"Delta":262699371},{"NoteNumber":48,"Velocity":64,"Duration":171722,"SoundDuration":171722,"Delta":262699371},{"NoteNumber":39,"Velocity":65,"Duration":171722,"SoundDuration":171722,"Delta":262890175},{"NoteNumber":48,"Velocity":55,"Duration":171722,"SoundDuration":171722,"Delta":262890175},{"NoteNumber":38,"Velocity":65,"Duration":171722,"SoundDuration":171722,"Delta":263080978},{"NoteNumber":48,"Velocity":55,"Duration":171722,"SoundDuration":171722,"Delta":263080978},{"NoteNumber":60,"Velocity":71,"Duration":175063,"SoundDuration":175063,"Delta":263271781},{"NoteNumber":72,"Velocity":83,"Duration":175063,"SoundDuration":175063,"Delta":263271781},{"NoteNumber":36,"Velocity":74,"Duration":175063,"SoundDuration":175063,"Delta":263271781},{"NoteNumber":48,"Velocity":63,"Duration":175063,"SoundDuration":175063,"Delta":263271781},{"NoteNumber":60,"Velocity":71,"Duration":175063,"SoundDuration":175063,"Delta":263466296},{"NoteNumber":72,"Velocity":83,"Duration":175063,"SoundDuration":175063,"Delta":263466296},{"NoteNumber":38,"Velocity":66,"Duration":175063,"SoundDuration":175063,"Delta":263466296},{"NoteNumber":48,"Velocity":56,"Duration":175063,"SoundDuration":175063,"Delta":263466296},{"NoteNumber":60,"Velocity":71,"Duration":212214,"SoundDuration":212214,"Delta":263660811},{"NoteNumber":72,"Velocity":83,"Duration":212214,"SoundDuration":212214,"Delta":263660811},{"NoteNumber":39,"Velocity":66,"Duration":212214,"SoundDuration":212214,"Delta":263660811},{"NoteNumber":48,"Velocity":56,"Duration":212214,"SoundDuration":212214,"Delta":263660811},{"NoteNumber":73,"Velocity":90,"Duration":577922,"SoundDuration":577922,"Delta":263896604},{"NoteNumber":65,"Velocity":77,"Duration":577922,"SoundDuration":577922,"Delta":263896604},{"NoteNumber":61,"Velocity":77,"Duration":577922,"SoundDuration":577922,"Delta":263896604},{"NoteNumber":41,"Velocity":75,"Duration":173376,"SoundDuration":173376,"Delta":263896604},{"NoteNumber":44,"Velocity":64,"Duration":173376,"SoundDuration":173376,"Delta":263896604},{"NoteNumber":39,"Velocity":64,"Duration":173376,"SoundDuration":173376,"Delta":264089245},{"NoteNumber":44,"Velocity":54,"Duration":173376,"SoundDuration":173376,"Delta":264089245},{"NoteNumber":37,"Velocity":64,"Duration":162540,"SoundDuration":162540,"Delta":264281886},{"NoteNumber":44,"Velocity":54,"Duration":162540,"SoundDuration":162540,"Delta":264281886},{"NoteNumber":65,"Velocity":74,"Duration":437657,"SoundDuration":437657,"Delta":264474527},{"NoteNumber":77,"Velocity":88,"Duration":437657,"SoundDuration":437657,"Delta":264474527},{"NoteNumber":37,"Velocity":72,"Duration":175063,"SoundDuration":175063,"Delta":264474527},{"NoteNumber":44,"Velocity":60,"Duration":175063,"SoundDuration":175063,"Delta":264474527},{"NoteNumber":39,"Velocity":63,"Duration":175063,"SoundDuration":175063,"Delta":264669042},{"NoteNumber":44,"Velocity":52,"Duration":175063,"SoundDuration":175063,"Delta":264669042},{"NoteNumber":41,"Velocity":63,"Duration":175063,"SoundDuration":175063,"Delta":264863556},{"NoteNumber":44,"Velocity":52,"Duration":175063,"SoundDuration":175063,"Delta":264863556},{"NoteNumber":68,"Velocity":66,"Duration":145886,"SoundDuration":145886,"Delta":264912185},{"NoteNumber":80,"Velocity":79,"Duration":145886,"SoundDuration":145886,"Delta":264912185},{"NoteNumber":67,"Velocity":75,"Duration":595120,"SoundDuration":595120,"Delta":265058071},{"NoteNumber":72,"Velocity":75,"Duration":595120,"SoundDuration":595120,"Delta":265058071},{"NoteNumber":75,"Velocity":75,"Duration":595120,"SoundDuration":595120,"Delta":265058071},{"NoteNumber":79,"Velocity":89,"Duration":595120,"SoundDuration":595120,"Delta":265058071},{"NoteNumber":31,"Velocity":62,"Duration":178536,"SoundDuration":178536,"Delta":265058071},{"NoteNumber":43,"Velocity":73,"Duration":178536,"SoundDuration":178536,"Delta":265058071},{"NoteNumber":43,"Velocity":65,"Duration":178536,"SoundDuration":178536,"Delta":265256444},{"NoteNumber":43,"Velocity":60,"Duration":178536,"SoundDuration":178536,"Delta":265454818},{"NoteNumber":67,"Velocity":71,"Duration":610252,"SoundDuration":610252,"Delta":265653191},{"NoteNumber":71,"Velocity":71,"Duration":610252,"SoundDuration":610252,"Delta":265653191},{"NoteNumber":74,"Velocity":71,"Duration":610252,"SoundDuration":610252,"Delta":265653191},{"NoteNumber":79,"Velocity":83,"Duration":610252,"SoundDuration":610252,"Delta":265653191},{"NoteNumber":31,"Velocity":59,"Duration":183075,"SoundDuration":183075,"Delta":265653191},{"NoteNumber":43,"Velocity":71,"Duration":183075,"SoundDuration":183075,"Delta":265653191},{"NoteNumber":43,"Velocity":63,"Duration":183075,"SoundDuration":183075,"Delta":265856608},{"NoteNumber":43,"Velocity":63,"Duration":183075,"SoundDuration":183075,"Delta":266060026},{"NoteNumber":67,"Velocity":64,"Duration":1753649,"SoundDuration":1753649,"Delta":266263443},{"NoteNumber":60,"Velocity":64,"Duration":1753649,"SoundDuration":1753649,"Delta":266263443},{"NoteNumber":63,"Velocity":64,"Duration":1753649,"SoundDuration":1753649,"Delta":266263443},{"NoteNumber":72,"Velocity":76,"Duration":1753649,"SoundDuration":1753649,"Delta":266263443},{"NoteNumber":36,"Velocity":74,"Duration":148045,"SoundDuration":148045,"Delta":266263443},{"NoteNumber":48,"Velocity":62,"Duration":148045,"SoundDuration":148045,"Delta":266263443},{"NoteNumber":36,"Velocity":67,"Duration":148045,"SoundDuration":148045,"Delta":266460837},{"NoteNumber":48,"Velocity":56,"Duration":148045,"SoundDuration":148045,"Delta":266460837},{"NoteNumber":36,"Velocity":67,"Duration":148045,"SoundDuration":148045,"Delta":266658232},{"NoteNumber":48,"Velocity":56,"Duration":148045,"SoundDuration":148045,"Delta":266658232},{"NoteNumber":38,"Velocity":74,"Duration":145886,"SoundDuration":145886,"Delta":266855626},{"NoteNumber":48,"Velocity":62,"Duration":145886,"SoundDuration":145886,"Delta":266855626},{"NoteNumber":38,"Velocity":69,"Duration":145885,"SoundDuration":145885,"Delta":267050141},{"NoteNumber":48,"Velocity":58,"Duration":145885,"SoundDuration":145885,"Delta":267050141},{"NoteNumber":38,"Velocity":65,"Duration":145886,"SoundDuration":145886,"Delta":267244655},{"NoteNumber":48,"Velocity":55,"Duration":145886,"SoundDuration":145886,"Delta":267244655},{"NoteNumber":39,"Velocity":74,"Duration":144480,"SoundDuration":144480,"Delta":267439170},{"NoteNumber":48,"Velocity":62,"Duration":144480,"SoundDuration":144480,"Delta":267439170},{"NoteNumber":39,"Velocity":67,"Duration":144480,"SoundDuration":144480,"Delta":267631811},{"NoteNumber":48,"Velocity":56,"Duration":144480,"SoundDuration":144480,"Delta":267631811},{"NoteNumber":39,"Velocity":67,"Duration":144480,"SoundDuration":144480,"Delta":267824452},{"NoteNumber":48,"Velocity":56,"Duration":144480,"SoundDuration":144480,"Delta":267824452},{"NoteNumber":60,"Velocity":68,"Duration":145886,"SoundDuration":145886,"Delta":268017093},{"NoteNumber":72,"Velocity":57,"Duration":145886,"SoundDuration":145886,"Delta":268017093},{"NoteNumber":40,"Velocity":73,"Duration":145886,"SoundDuration":145886,"Delta":268017093},{"NoteNumber":48,"Velocity":62,"Duration":145886,"SoundDuration":145886,"Delta":268017093},{"NoteNumber":60,"Velocity":63,"Duration":145885,"SoundDuration":145885,"Delta":268211608},{"NoteNumber":72,"Velocity":53,"Duration":145885,"SoundDuration":145885,"Delta":268211608},{"NoteNumber":40,"Velocity":66,"Duration":145885,"SoundDuration":145885,"Delta":268211608},{"NoteNumber":48,"Velocity":56,"Duration":145885,"SoundDuration":145885,"Delta":268211608},{"NoteNumber":60,"Velocity":63,"Duration":145886,"SoundDuration":145886,"Delta":268406122},{"NoteNumber":72,"Velocity":53,"Duration":145886,"SoundDuration":145886,"Delta":268406122},{"NoteNumber":40,"Velocity":66,"Duration":145886,"SoundDuration":145886,"Delta":268406122},{"NoteNumber":48,"Velocity":56,"Duration":145886,"SoundDuration":145886,"Delta":268406122},{"NoteNumber":61,"Velocity":62,"Duration":144230,"SoundDuration":144230,"Delta":268600637},{"NoteNumber":72,"Velocity":52,"Duration":144230,"SoundDuration":144230,"Delta":268600637},{"NoteNumber":41,"Velocity":72,"Duration":144230,"SoundDuration":144230,"Delta":268600637},{"NoteNumber":48,"Velocity":61,"Duration":144230,"SoundDuration":144230,"Delta":268600637},{"NoteNumber":72,"Velocity":46,"Duration":144230,"SoundDuration":144230,"Delta":268792945},{"NoteNumber":61,"Velocity":55,"Duration":144230,"SoundDuration":144230,"Delta":268792945},{"NoteNumber":41,"Velocity":68,"Duration":144230,"SoundDuration":144230,"Delta":268792945},{"NoteNumber":48,"Velocity":57,"Duration":144230,"SoundDuration":144230,"Delta":268792945},{"NoteNumber":61,"Velocity":55,"Duration":144230,"SoundDuration":144230,"Delta":268985252},{"NoteNumber":72,"Velocity":46,"Duration":144230,"SoundDuration":144230,"Delta":268985252},{"NoteNumber":41,"Velocity":68,"Duration":144230,"SoundDuration":144230,"Delta":268985252},{"NoteNumber":48,"Velocity":57,"Duration":144230,"SoundDuration":144230,"Delta":268985252},{"NoteNumber":62,"Velocity":58,"Duration":145886,"SoundDuration":145886,"Delta":269177560},{"NoteNumber":72,"Velocity":49,"Duration":145886,"SoundDuration":145886,"Delta":269177560},{"NoteNumber":42,"Velocity":69,"Duration":145886,"SoundDuration":145886,"Delta":269177560},{"NoteNumber":46,"Velocity":58,"Duration":145886,"SoundDuration":145886,"Delta":269177560},{"NoteNumber":72,"Velocity":42,"Duration":145885,"SoundDuration":145885,"Delta":269372075},{"NoteNumber":62,"Velocity":50,"Duration":145885,"SoundDuration":145885,"Delta":269372075},{"NoteNumber":42,"Velocity":63,"Duration":145885,"SoundDuration":145885,"Delta":269372075},{"NoteNumber":46,"Velocity":53,"Duration":145885,"SoundDuration":145885,"Delta":269372075},{"NoteNumber":62,"Velocity":50,"Duration":145886,"SoundDuration":145886,"Delta":269566589},{"NoteNumber":72,"Velocity":42,"Duration":145886,"SoundDuration":145886,"Delta":269566589},{"NoteNumber":42,"Velocity":63,"Duration":145886,"SoundDuration":145886,"Delta":269566589},{"NoteNumber":46,"Velocity":53,"Duration":145886,"SoundDuration":145886,"Delta":269566589},{"NoteNumber":72,"Velocity":46,"Duration":144480,"SoundDuration":144480,"Delta":269761104},{"NoteNumber":63,"Velocity":55,"Duration":144480,"SoundDuration":144480,"Delta":269761104},{"NoteNumber":43,"Velocity":66,"Duration":144480,"SoundDuration":144480,"Delta":269761104},{"NoteNumber":48,"Velocity":56,"Duration":144480,"SoundDuration":144480,"Delta":269761104},{"NoteNumber":72,"Velocity":42,"Duration":144480,"SoundDuration":144480,"Delta":269953745},{"NoteNumber":63,"Velocity":50,"Duration":144480,"SoundDuration":144480,"Delta":269953745},{"NoteNumber":43,"Velocity":60,"Duration":144480,"SoundDuration":144480,"Delta":269953745},{"NoteNumber":48,"Velocity":51,"Duration":144480,"SoundDuration":144480,"Delta":269953745},{"NoteNumber":63,"Velocity":54,"Duration":144480,"SoundDuration":144480,"Delta":270146386},{"NoteNumber":72,"Velocity":45,"Duration":144480,"SoundDuration":144480,"Delta":270146386},{"NoteNumber":43,"Velocity":66,"Duration":144480,"SoundDuration":144480,"Delta":270146386},{"NoteNumber":48,"Velocity":56,"Duration":144480,"SoundDuration":144480,"Delta":270146386},{"NoteNumber":64,"Velocity":54,"Duration":142179,"SoundDuration":142179,"Delta":270339027},{"NoteNumber":72,"Velocity":49,"Duration":142179,"SoundDuration":142179,"Delta":270339027},{"NoteNumber":44,"Velocity":69,"Duration":142179,"SoundDuration":142179,"Delta":270339027},{"NoteNumber":48,"Velocity":61,"Duration":142179,"SoundDuration":142179,"Delta":270339027},{"NoteNumber":72,"Velocity":37,"Duration":142179,"SoundDuration":142179,"Delta":270528600},{"NoteNumber":64,"Velocity":44,"Duration":142179,"SoundDuration":142179,"Delta":270528600},{"NoteNumber":44,"Velocity":57,"Duration":142179,"SoundDuration":142179,"Delta":270528600},{"NoteNumber":48,"Velocity":48,"Duration":142179,"SoundDuration":142179,"Delta":270528600},{"NoteNumber":72,"Velocity":37,"Duration":142179,"SoundDuration":142179,"Delta":270718174},{"NoteNumber":64,"Velocity":44,"Duration":142179,"SoundDuration":142179,"Delta":270718174},{"NoteNumber":44,"Velocity":57,"Duration":142179,"SoundDuration":142179,"Delta":270718174},{"NoteNumber":48,"Velocity":48,"Duration":142179,"SoundDuration":142179,"Delta":270718174},{"NoteNumber":64,"Velocity":47,"Duration":141509,"SoundDuration":141509,"Delta":270907747},{"NoteNumber":72,"Velocity":39,"Duration":141509,"SoundDuration":141509,"Delta":270907747},{"NoteNumber":44,"Velocity":55,"Duration":141509,"SoundDuration":141509,"Delta":270907747},{"NoteNumber":48,"Velocity":46,"Duration":141509,"SoundDuration":141509,"Delta":270907747},{"NoteNumber":64,"Velocity":37,"Duration":141509,"SoundDuration":141509,"Delta":271096426},{"NoteNumber":72,"Velocity":31,"Duration":141509,"SoundDuration":141509,"Delta":271096426},{"NoteNumber":44,"Velocity":54,"Duration":141509,"SoundDuration":141509,"Delta":271096426},{"NoteNumber":48,"Velocity":42,"Duration":141509,"SoundDuration":141509,"Delta":271096426},{"NoteNumber":64,"Velocity":37,"Duration":141509,"SoundDuration":141509,"Delta":271285106},{"NoteNumber":72,"Velocity":31,"Duration":141509,"SoundDuration":141509,"Delta":271285106},{"NoteNumber":44,"Velocity":53,"Duration":141509,"SoundDuration":141509,"Delta":271285106},{"NoteNumber":48,"Velocity":41,"Duration":141509,"SoundDuration":141509,"Delta":271285106},{"NoteNumber":64,"Velocity":46,"Duration":141509,"SoundDuration":141509,"Delta":271473785},{"NoteNumber":72,"Velocity":38,"Duration":141509,"SoundDuration":141509,"Delta":271473785},{"NoteNumber":44,"Velocity":53,"Duration":141509,"SoundDuration":141509,"Delta":271473785},{"NoteNumber":48,"Velocity":45,"Duration":141509,"SoundDuration":141509,"Delta":271473785},{"NoteNumber":64,"Velocity":37,"Duration":141509,"SoundDuration":141509,"Delta":271662464},{"NoteNumber":72,"Velocity":30,"Duration":141509,"SoundDuration":141509,"Delta":271662464},{"NoteNumber":44,"Velocity":47,"Duration":141509,"SoundDuration":141509,"Delta":271662464},{"NoteNumber":48,"Velocity":40,"Duration":141509,"SoundDuration":141509,"Delta":271662464},{"NoteNumber":64,"Velocity":36,"Duration":141509,"SoundDuration":141509,"Delta":271851144},{"NoteNumber":72,"Velocity":30,"Duration":141509,"SoundDuration":141509,"Delta":271851144},{"NoteNumber":44,"Velocity":46,"Duration":141509,"SoundDuration":141509,"Delta":271851144},{"NoteNumber":48,"Velocity":39,"Duration":141509,"SoundDuration":141509,"Delta":271851144},{"NoteNumber":65,"Velocity":45,"Duration":142857,"SoundDuration":142857,"Delta":272039823},{"NoteNumber":72,"Velocity":38,"Duration":142857,"SoundDuration":142857,"Delta":272039823},{"NoteNumber":44,"Velocity":51,"Duration":142857,"SoundDuration":142857,"Delta":272039823},{"NoteNumber":48,"Velocity":43,"Duration":142857,"SoundDuration":142857,"Delta":272039823},{"NoteNumber":65,"Velocity":36,"Duration":142857,"SoundDuration":142857,"Delta":272230299},{"NoteNumber":72,"Velocity":29,"Duration":142857,"SoundDuration":142857,"Delta":272230299},{"NoteNumber":44,"Velocity":46,"Duration":142857,"SoundDuration":142857,"Delta":272230299},{"NoteNumber":48,"Velocity":39,"Duration":142857,"SoundDuration":142857,"Delta":272230299},{"NoteNumber":65,"Velocity":35,"Duration":142857,"SoundDuration":142857,"Delta":272420776},{"NoteNumber":72,"Velocity":29,"Duration":142857,"SoundDuration":142857,"Delta":272420776},{"NoteNumber":44,"Velocity":46,"Duration":142857,"SoundDuration":142857,"Delta":272420776},{"NoteNumber":48,"Velocity":39,"Duration":142857,"SoundDuration":142857,"Delta":272420776},{"NoteNumber":63,"Velocity":31,"Duration":141509,"SoundDuration":141509,"Delta":272611252},{"NoteNumber":66,"Velocity":31,"Duration":141509,"SoundDuration":141509,"Delta":272611252},{"NoteNumber":72,"Velocity":37,"Duration":141509,"SoundDuration":141509,"Delta":272611252},{"NoteNumber":45,"Velocity":31,"Duration":141509,"SoundDuration":141509,"Delta":272611252},{"NoteNumber":48,"Velocity":37,"Duration":141509,"SoundDuration":141509,"Delta":272611252},{"NoteNumber":63,"Velocity":26,"Duration":141509,"SoundDuration":141509,"Delta":272799931},{"NoteNumber":66,"Velocity":26,"Duration":141509,"SoundDuration":141509,"Delta":272799931},{"NoteNumber":72,"Velocity":31,"Duration":141509,"SoundDuration":141509,"Delta":272799931},{"NoteNumber":45,"Velocity":26,"Duration":141509,"SoundDuration":141509,"Delta":272799931},{"NoteNumber":48,"Velocity":31,"Duration":141509,"SoundDuration":141509,"Delta":272799931},{"NoteNumber":63,"Velocity":26,"Duration":141509,"SoundDuration":141509,"Delta":272988611},{"NoteNumber":66,"Velocity":26,"Duration":141509,"SoundDuration":141509,"Delta":272988611},{"NoteNumber":72,"Velocity":31,"Duration":141509,"SoundDuration":141509,"Delta":272988611},{"NoteNumber":45,"Velocity":26,"Duration":141509,"SoundDuration":141509,"Delta":272988611},{"NoteNumber":48,"Velocity":31,"Duration":141509,"SoundDuration":141509,"Delta":272988611},{"NoteNumber":63,"Velocity":31,"Duration":140845,"SoundDuration":140845,"Delta":273177290},{"NoteNumber":66,"Velocity":31,"Duration":140845,"SoundDuration":140845,"Delta":273177290},{"NoteNumber":72,"Velocity":37,"Duration":140845,"SoundDuration":140845,"Delta":273177290},{"NoteNumber":45,"Velocity":34,"Duration":140845,"SoundDuration":140845,"Delta":273177290},{"NoteNumber":48,"Velocity":40,"Duration":140845,"SoundDuration":140845,"Delta":273177290},{"NoteNumber":62,"Velocity":27,"Duration":140845,"SoundDuration":140845,"Delta":273365083},{"NoteNumber":66,"Velocity":27,"Duration":140845,"SoundDuration":140845,"Delta":273365083},{"NoteNumber":72,"Velocity":32,"Duration":140845,"SoundDuration":140845,"Delta":273365083},{"NoteNumber":45,"Velocity":27,"Duration":140845,"SoundDuration":140845,"Delta":273365083},{"NoteNumber":50,"Velocity":32,"Duration":140845,"SoundDuration":140845,"Delta":273365083},{"NoteNumber":62,"Velocity":27,"Duration":140845,"SoundDuration":140845,"Delta":273552877},{"NoteNumber":66,"Velocity":27,"Duration":140845,"SoundDuration":140845,"Delta":273552877},{"NoteNumber":72,"Velocity":32,"Duration":140845,"SoundDuration":140845,"Delta":273552877},{"NoteNumber":45,"Velocity":28,"Duration":140845,"SoundDuration":140845,"Delta":273552877},{"NoteNumber":50,"Velocity":33,"Duration":140845,"SoundDuration":140845,"Delta":273552877},{"NoteNumber":62,"Velocity":31,"Duration":140187,"SoundDuration":140187,"Delta":273740670},{"NoteNumber":66,"Velocity":31,"Duration":140187,"SoundDuration":140187,"Delta":273740670},{"NoteNumber":72,"Velocity":37,"Duration":140187,"SoundDuration":140187,"Delta":273740670},{"NoteNumber":45,"Velocity":31,"Duration":140187,"SoundDuration":140187,"Delta":273740670},{"NoteNumber":50,"Velocity":37,"Duration":140187,"SoundDuration":140187,"Delta":273740670},{"NoteNumber":62,"Velocity":26,"Duration":140187,"SoundDuration":140187,"Delta":273927586},{"NoteNumber":66,"Velocity":26,"Duration":140187,"SoundDuration":140187,"Delta":273927586},{"NoteNumber":72,"Velocity":31,"Duration":140187,"SoundDuration":140187,"Delta":273927586},{"NoteNumber":45,"Velocity":28,"Duration":140187,"SoundDuration":140187,"Delta":273927586},{"NoteNumber":50,"Velocity":33,"Duration":140187,"SoundDuration":140187,"Delta":273927586},{"NoteNumber":62,"Velocity":26,"Duration":140187,"SoundDuration":140187,"Delta":274114502},{"NoteNumber":66,"Velocity":26,"Duration":140187,"SoundDuration":140187,"Delta":274114502},{"NoteNumber":72,"Velocity":31,"Duration":140187,"SoundDuration":140187,"Delta":274114502},{"NoteNumber":45,"Velocity":28,"Duration":140187,"SoundDuration":140187,"Delta":274114502},{"NoteNumber":50,"Velocity":33,"Duration":140187,"SoundDuration":140187,"Delta":274114502},{"NoteNumber":62,"Velocity":31,"Duration":141509,"SoundDuration":141509,"Delta":274301418},{"NoteNumber":67,"Velocity":31,"Duration":141509,"SoundDuration":141509,"Delta":274301418},{"NoteNumber":72,"Velocity":37,"Duration":141509,"SoundDuration":141509,"Delta":274301418},{"NoteNumber":46,"Velocity":32,"Duration":141509,"SoundDuration":141509,"Delta":274301418},{"NoteNumber":50,"Velocity":38,"Duration":141509,"SoundDuration":141509,"Delta":274301418},{"NoteNumber":62,"Velocity":27,"Duration":141509,"SoundDuration":141509,"Delta":274490097},{"NoteNumber":67,"Velocity":27,"Duration":141509,"SoundDuration":141509,"Delta":274490097},{"NoteNumber":72,"Velocity":32,"Duration":141509,"SoundDuration":141509,"Delta":274490097},{"NoteNumber":46,"Velocity":28,"Duration":141509,"SoundDuration":141509,"Delta":274490097},{"NoteNumber":50,"Velocity":34,"Duration":141509,"SoundDuration":141509,"Delta":274490097},{"NoteNumber":62,"Velocity":27,"Duration":141509,"SoundDuration":141509,"Delta":274678777},{"NoteNumber":67,"Velocity":27,"Duration":141509,"SoundDuration":141509,"Delta":274678777},{"NoteNumber":72,"Velocity":32,"Duration":141509,"SoundDuration":141509,"Delta":274678777},{"NoteNumber":46,"Velocity":28,"Duration":141509,"SoundDuration":141509,"Delta":274678777},{"NoteNumber":50,"Velocity":34,"Duration":141509,"SoundDuration":141509,"Delta":274678777},{"NoteNumber":62,"Velocity":31,"Duration":143540,"SoundDuration":143540,"Delta":274867456},{"NoteNumber":67,"Velocity":31,"Duration":143540,"SoundDuration":143540,"Delta":274867456},{"NoteNumber":70,"Velocity":37,"Duration":143540,"SoundDuration":143540,"Delta":274867456},{"NoteNumber":46,"Velocity":31,"Duration":143540,"SoundDuration":143540,"Delta":274867456},{"NoteNumber":50,"Velocity":37,"Duration":143540,"SoundDuration":143540,"Delta":274867456},{"NoteNumber":62,"Velocity":27,"Duration":143540,"SoundDuration":143540,"Delta":275058844},{"NoteNumber":67,"Velocity":27,"Duration":143540,"SoundDuration":143540,"Delta":275058844},{"NoteNumber":70,"Velocity":32,"Duration":143540,"SoundDuration":143540,"Delta":275058844},{"NoteNumber":46,"Velocity":28,"Duration":143540,"SoundDuration":143540,"Delta":275058844},{"NoteNumber":50,"Velocity":33,"Duration":143540,"SoundDuration":143540,"Delta":275058844},{"NoteNumber":62,"Velocity":27,"Duration":143540,"SoundDuration":143540,"Delta":275250231},{"NoteNumber":67,"Velocity":27,"Duration":143540,"SoundDuration":143540,"Delta":275250231},{"NoteNumber":70,"Velocity":32,"Duration":143540,"SoundDuration":143540,"Delta":275250231},{"NoteNumber":46,"Velocity":28,"Duration":143540,"SoundDuration":143540,"Delta":275250231},{"NoteNumber":50,"Velocity":33,"Duration":143540,"SoundDuration":143540,"Delta":275250231},{"NoteNumber":60,"Velocity":31,"Duration":140187,"SoundDuration":140187,"Delta":275441619},{"NoteNumber":63,"Velocity":31,"Duration":140187,"SoundDuration":140187,"Delta":275441619},{"NoteNumber":70,"Velocity":37,"Duration":140187,"SoundDuration":140187,"Delta":275441619},{"NoteNumber":48,"Velocity":31,"Duration":140187,"SoundDuration":140187,"Delta":275441619},{"NoteNumber":51,"Velocity":37,"Duration":140187,"SoundDuration":140187,"Delta":275441619},{"NoteNumber":60,"Velocity":26,"Duration":140187,"SoundDuration":140187,"Delta":275628535},{"NoteNumber":63,"Velocity":26,"Duration":140187,"SoundDuration":140187,"Delta":275628535},{"NoteNumber":70,"Velocity":31,"Duration":140187,"SoundDuration":140187,"Delta":275628535},{"NoteNumber":48,"Velocity":27,"Duration":140187,"SoundDuration":140187,"Delta":275628535},{"NoteNumber":51,"Velocity":32,"Duration":140187,"SoundDuration":140187,"Delta":275628535},{"NoteNumber":60,"Velocity":26,"Duration":140187,"SoundDuration":140187,"Delta":275815451},{"NoteNumber":63,"Velocity":26,"Duration":140187,"SoundDuration":140187,"Delta":275815451},{"NoteNumber":70,"Velocity":31,"Duration":140187,"SoundDuration":140187,"Delta":275815451},{"NoteNumber":48,"Velocity":27,"Duration":140187,"SoundDuration":140187,"Delta":275815451},{"NoteNumber":51,"Velocity":32,"Duration":140187,"SoundDuration":140187,"Delta":275815451},{"NoteNumber":60,"Velocity":31,"Duration":142179,"SoundDuration":142179,"Delta":276002367},{"NoteNumber":63,"Velocity":31,"Duration":142179,"SoundDuration":142179,"Delta":276002367},{"NoteNumber":69,"Velocity":37,"Duration":142179,"SoundDuration":142179,"Delta":276002367},{"NoteNumber":48,"Velocity":31,"Duration":142179,"SoundDuration":142179,"Delta":276002367},{"NoteNumber":51,"Velocity":37,"Duration":142179,"SoundDuration":142179,"Delta":276002367},{"NoteNumber":60,"Velocity":27,"Duration":142179,"SoundDuration":142179,"Delta":276191940},{"NoteNumber":63,"Velocity":27,"Duration":142179,"SoundDuration":142179,"Delta":276191940},{"NoteNumber":69,"Velocity":32,"Duration":142179,"SoundDuration":142179,"Delta":276191940},{"NoteNumber":48,"Velocity":26,"Duration":142179,"SoundDuration":142179,"Delta":276191940},{"NoteNumber":51,"Velocity":31,"Duration":142179,"SoundDuration":142179,"Delta":276191940},{"NoteNumber":60,"Velocity":27,"Duration":142179,"SoundDuration":142179,"Delta":276381514},{"NoteNumber":63,"Velocity":27,"Duration":142179,"SoundDuration":142179,"Delta":276381514},{"NoteNumber":69,"Velocity":32,"Duration":142179,"SoundDuration":142179,"Delta":276381514},{"NoteNumber":48,"Velocity":26,"Duration":142179,"SoundDuration":142179,"Delta":276381514},{"NoteNumber":51,"Velocity":31,"Duration":142179,"SoundDuration":142179,"Delta":276381514},{"NoteNumber":58,"Velocity":31,"Duration":141509,"SoundDuration":141509,"Delta":276571087},{"NoteNumber":62,"Velocity":31,"Duration":141509,"SoundDuration":141509,"Delta":276571087},{"NoteNumber":67,"Velocity":37,"Duration":141509,"SoundDuration":141509,"Delta":276571087},{"NoteNumber":50,"Velocity":37,"Duration":141509,"SoundDuration":141509,"Delta":276571087},{"NoteNumber":58,"Velocity":26,"Duration":141509,"SoundDuration":141509,"Delta":276759766},{"NoteNumber":62,"Velocity":26,"Duration":141509,"SoundDuration":141509,"Delta":276759766},{"NoteNumber":67,"Velocity":31,"Duration":141509,"SoundDuration":141509,"Delta":276759766},{"NoteNumber":50,"Velocity":32,"Duration":141509,"SoundDuration":141509,"Delta":276759766},{"NoteNumber":58,"Velocity":26,"Duration":141509,"SoundDuration":141509,"Delta":276948446},{"NoteNumber":62,"Velocity":26,"Duration":141509,"SoundDuration":141509,"Delta":276948446},{"NoteNumber":67,"Velocity":31,"Duration":141509,"SoundDuration":141509,"Delta":276948446},{"NoteNumber":50,"Velocity":32,"Duration":141509,"SoundDuration":141509,"Delta":276948446},{"NoteNumber":57,"Velocity":31,"Duration":144927,"SoundDuration":144927,"Delta":277137125},{"NoteNumber":62,"Velocity":31,"Duration":144927,"SoundDuration":144927,"Delta":277137125},{"NoteNumber":66,"Velocity":37,"Duration":144927,"SoundDuration":144927,"Delta":277137125},{"NoteNumber":50,"Velocity":37,"Duration":144927,"SoundDuration":144927,"Delta":277137125},{"NoteNumber":57,"Velocity":27,"Duration":144927,"SoundDuration":144927,"Delta":277330362},{"NoteNumber":62,"Velocity":27,"Duration":144927,"SoundDuration":144927,"Delta":277330362},{"NoteNumber":66,"Velocity":32,"Duration":144927,"SoundDuration":144927,"Delta":277330362},{"NoteNumber":50,"Velocity":32,"Duration":144927,"SoundDuration":144927,"Delta":277330362},{"NoteNumber":57,"Velocity":27,"Duration":144927,"SoundDuration":144927,"Delta":277523598},{"NoteNumber":62,"Velocity":27,"Duration":144927,"SoundDuration":144927,"Delta":277523598},{"NoteNumber":66,"Velocity":32,"Duration":144927,"SoundDuration":144927,"Delta":277523598},{"NoteNumber":50,"Velocity":32,"Duration":144927,"SoundDuration":144927,"Delta":277523598},{"NoteNumber":58,"Velocity":31,"Duration":1149742,"SoundDuration":1149742,"Delta":277716835},{"NoteNumber":62,"Velocity":31,"Duration":1149742,"SoundDuration":1149742,"Delta":277716835},{"NoteNumber":67,"Velocity":37,"Duration":1149742,"SoundDuration":1149742,"Delta":277716835},{"NoteNumber":50,"Velocity":37,"Duration":144927,"SoundDuration":144927,"Delta":277716835},{"NoteNumber":43,"Velocity":31,"Duration":1149742,"SoundDuration":1149742,"Delta":277716835},{"NoteNumber":50,"Velocity":29,"Duration":144927,"SoundDuration":144927,"Delta":277910072},{"NoteNumber":50,"Velocity":29,"Duration":144230,"SoundDuration":144230,"Delta":278103227},{"NoteNumber":50,"Velocity":32,"Duration":143540,"SoundDuration":143540,"Delta":278295454},{"NoteNumber":50,"Velocity":29,"Duration":142857,"SoundDuration":142857,"Delta":278486762},{"NoteNumber":50,"Velocity":29,"Duration":142179,"SoundDuration":142179,"Delta":278677159},{"NoteNumber":50,"Velocity":31,"Duration":140845,"SoundDuration":140845,"Delta":278866577},{"NoteNumber":50,"Velocity":29,"Duration":141254,"SoundDuration":141254,"Delta":279054370},{"NoteNumber":50,"Velocity":29,"Duration":141587,"SoundDuration":141587,"Delta":279242795},{"NoteNumber":67,"Velocity":39,"Duration":413754,"SoundDuration":413754,"Delta":279431776},{"NoteNumber":50,"Velocity":32,"Duration":137918,"SoundDuration":137918,"Delta":279431776},{"NoteNumber":50,"Velocity":29,"Duration":137918,"SoundDuration":137918,"Delta":279615667},{"NoteNumber":50,"Velocity":29,"Duration":148201,"SoundDuration":148201,"Delta":279799558},{"NoteNumber":70,"Velocity":39,"Duration":153342,"SoundDuration":153342,"Delta":279845531},{"NoteNumber":74,"Velocity":44,"Duration":564333,"SoundDuration":564333,"Delta":279998874},{"NoteNumber":62,"Velocity":29,"Duration":155191,"SoundDuration":155191,"Delta":280139957},{"NoteNumber":67,"Velocity":30,"Duration":155191,"SoundDuration":155191,"Delta":280281041},{"NoteNumber":43,"Velocity":32,"Duration":141083,"SoundDuration":141083,"Delta":280281041},{"NoteNumber":70,"Velocity":28,"Duration":141083,"SoundDuration":141083,"Delta":280422124},{"NoteNumber":74,"Velocity":40,"Duration":546349,"SoundDuration":546349,"Delta":280563208},{"NoteNumber":62,"Velocity":28,"Duration":150245,"SoundDuration":150245,"Delta":280699795},{"NoteNumber":67,"Velocity":30,"Duration":150245,"SoundDuration":150245,"Delta":280836382},{"NoteNumber":43,"Velocity":32,"Duration":136587,"SoundDuration":136587,"Delta":280836382},{"NoteNumber":70,"Velocity":28,"Duration":136587,"SoundDuration":136587,"Delta":280972969},{"NoteNumber":74,"Velocity":45,"Duration":545901,"SoundDuration":545901,"Delta":281109557},{"NoteNumber":62,"Velocity":27,"Duration":150122,"SoundDuration":150122,"Delta":281246032},{"NoteNumber":66,"Velocity":30,"Duration":150122,"SoundDuration":150122,"Delta":281382507},{"NoteNumber":38,"Velocity":36,"Duration":136475,"SoundDuration":136475,"Delta":281382507},{"NoteNumber":69,"Velocity":28,"Duration":136475,"SoundDuration":136475,"Delta":281518982},{"NoteNumber":74,"Velocity":46,"Duration":565691,"SoundDuration":565691,"Delta":281655458},{"NoteNumber":62,"Velocity":27,"Duration":152411,"SoundDuration":152411,"Delta":281793376},{"NoteNumber":67,"Velocity":30,"Duration":159420,"SoundDuration":159420,"Delta":281931294},{"NoteNumber":43,"Velocity":32,"Duration":144927,"SoundDuration":144927,"Delta":281931294},{"NoteNumber":70,"Velocity":26,"Duration":144927,"SoundDuration":144927,"Delta":282076222},{"NoteNumber":75,"Velocity":51,"Duration":1100573,"SoundDuration":1100573,"Delta":282221149},{"NoteNumber":63,"Velocity":31,"Duration":150932,"SoundDuration":150932,"Delta":282358361},{"NoteNumber":67,"Velocity":33,"Duration":150393,"SoundDuration":150393,"Delta":282495573},{"NoteNumber":36,"Velocity":38,"Duration":136797,"SoundDuration":136797,"Delta":282495573},{"NoteNumber":72,"Velocity":31,"Duration":149564,"SoundDuration":149564,"Delta":282632370},{"NoteNumber":66,"Velocity":36,"Duration":149564,"SoundDuration":149564,"Delta":282768338},{"NoteNumber":72,"Velocity":27,"Duration":149564,"SoundDuration":149564,"Delta":282904306},{"NoteNumber":69,"Velocity":30,"Duration":152656,"SoundDuration":152656,"Delta":283040274},{"NoteNumber":36,"Velocity":35,"Duration":138346,"SoundDuration":138346,"Delta":283040274},{"NoteNumber":66,"Velocity":27,"Duration":143102,"SoundDuration":143102,"Delta":283178620},{"NoteNumber":74,"Velocity":41,"Duration":1103234,"SoundDuration":1103234,"Delta":283321722},{"NoteNumber":62,"Velocity":27,"Duration":151626,"SoundDuration":151626,"Delta":283459565},{"NoteNumber":67,"Velocity":30,"Duration":151626,"SoundDuration":151626,"Delta":283597407},{"NoteNumber":43,"Velocity":37,"Duration":137842,"SoundDuration":137842,"Delta":283597407},{"NoteNumber":70,"Velocity":26,"Duration":151377,"SoundDuration":151377,"Delta":283735249},{"NoteNumber":62,"Velocity":30,"Duration":148951,"SoundDuration":148951,"Delta":283873091},{"NoteNumber":70,"Velocity":28,"Duration":149564,"SoundDuration":149564,"Delta":284008446},{"NoteNumber":67,"Velocity":30,"Duration":152361,"SoundDuration":152361,"Delta":284144414},{"NoteNumber":43,"Velocity":32,"Duration":138119,"SoundDuration":138119,"Delta":284144414},{"NoteNumber":62,"Velocity":27,"Duration":142422,"SoundDuration":142422,"Delta":284282534},{"NoteNumber":72,"Velocity":50,"Duration":1094676,"SoundDuration":1094676,"Delta":284424957},{"NoteNumber":60,"Velocity":28,"Duration":150932,"SoundDuration":150932,"Delta":284562169},{"NoteNumber":63,"Velocity":30,"Duration":150932,"SoundDuration":150932,"Delta":284699380},{"NoteNumber":44,"Velocity":36,"Duration":137211,"SoundDuration":137211,"Delta":284699380},{"NoteNumber":66,"Velocity":28,"Duration":150626,"SoundDuration":150626,"Delta":284836592},{"NoteNumber":60,"Velocity":30,"Duration":147558,"SoundDuration":147558,"Delta":284973804},{"NoteNumber":66,"Velocity":30,"Duration":147558,"SoundDuration":147558,"Delta":285107948},{"NoteNumber":63,"Velocity":30,"Duration":150565,"SoundDuration":150565,"Delta":285242092},{"NoteNumber":45,"Velocity":32,"Duration":136457,"SoundDuration":136457,"Delta":285242092},{"NoteNumber":60,"Velocity":27,"Duration":141083,"SoundDuration":141083,"Delta":285378550},{"NoteNumber":70,"Velocity":45,"Duration":1099178,"SoundDuration":1099178,"Delta":285519633},{"NoteNumber":58,"Velocity":27,"Duration":150223,"SoundDuration":150223,"Delta":285656220},{"NoteNumber":62,"Velocity":30,"Duration":150000,"SoundDuration":150000,"Delta":285792808},{"NoteNumber":46,"Velocity":32,"Duration":136363,"SoundDuration":136363,"Delta":285792808},{"NoteNumber":67,"Velocity":27,"Duration":149960,"SoundDuration":149960,"Delta":285929171},{"NoteNumber":58,"Velocity":30,"Duration":149503,"SoundDuration":149503,"Delta":286065535},{"NoteNumber":67,"Velocity":28,"Duration":148890,"SoundDuration":148890,"Delta":286201503},{"NoteNumber":62,"Velocity":30,"Duration":152544,"SoundDuration":152544,"Delta":286336858},{"NoteNumber":50,"Velocity":32,"Duration":138165,"SoundDuration":138165,"Delta":286336858},{"NoteNumber":58,"Velocity":28,"Duration":143788,"SoundDuration":143788,"Delta":286475024},{"NoteNumber":69,"Velocity":50,"Duration":552693,"SoundDuration":552693,"Delta":286618812},{"NoteNumber":57,"Velocity":28,"Duration":150725,"SoundDuration":150725,"Delta":286756024},{"NoteNumber":60,"Velocity":30,"Duration":149698,"SoundDuration":149698,"Delta":286893236},{"NoteNumber":51,"Velocity":39,"Duration":135412,"SoundDuration":135412,"Delta":286893236},{"NoteNumber":67,"Velocity":28,"Duration":142857,"SoundDuration":142857,"Delta":287028648},{"NoteNumber":72,"Velocity":46,"Duration":544294,"SoundDuration":544294,"Delta":287171506},{"NoteNumber":63,"Velocity":29,"Duration":148648,"SoundDuration":148648,"Delta":287310395},{"NoteNumber":67,"Velocity":30,"Duration":148648,"SoundDuration":148648,"Delta":287445530},{"NoteNumber":48,"Velocity":32,"Duration":135135,"SoundDuration":135135,"Delta":287445530},{"NoteNumber":69,"Velocity":28,"Duration":135135,"SoundDuration":135135,"Delta":287580665},{"NoteNumber":70,"Velocity":49,"Duration":556483,"SoundDuration":556483,"Delta":287715800},{"NoteNumber":58,"Velocity":27,"Duration":153032,"SoundDuration":153032,"Delta":287854921},{"NoteNumber":62,"Velocity":30,"Duration":153032,"SoundDuration":153032,"Delta":287994042},{"NoteNumber":50,"Velocity":32,"Duration":139120,"SoundDuration":139120,"Delta":287994042},{"NoteNumber":67,"Velocity":27,"Duration":139120,"SoundDuration":139120,"Delta":288133163},{"NoteNumber":69,"Velocity":45,"Duration":564333,"SoundDuration":564333,"Delta":288272283},{"NoteNumber":60,"Velocity":26,"Duration":155191,"SoundDuration":155191,"Delta":288413367},{"NoteNumber":62,"Velocity":30,"Duration":155191,"SoundDuration":155191,"Delta":288554450},{"NoteNumber":38,"Velocity":32,"Duration":141083,"SoundDuration":141083,"Delta":288554450},{"NoteNumber":66,"Velocity":27,"Duration":141083,"SoundDuration":141083,"Delta":288695534},{"NoteNumber":67,"Velocity":50,"Duration":1704129,"SoundDuration":1704129,"Delta":288836617},{"NoteNumber":55,"Velocity":28,"Duration":159697,"SoundDuration":159697,"Delta":288981797},{"NoteNumber":58,"Velocity":32,"Duration":159697,"SoundDuration":159697,"Delta":289126977},{"NoteNumber":43,"Velocity":30,"Duration":145179,"SoundDuration":145179,"Delta":289126977},{"NoteNumber":62,"Velocity":34,"Duration":159288,"SoundDuration":159288,"Delta":289272157},{"NoteNumber":63,"Velocity":35,"Duration":155191,"SoundDuration":155191,"Delta":289417337},{"NoteNumber":45,"Velocity":37,"Duration":141083,"SoundDuration":141083,"Delta":289417337},{"NoteNumber":60,"Velocity":37,"Duration":155191,"SoundDuration":155191,"Delta":289558421},{"NoteNumber":57,"Velocity":39,"Duration":155191,"SoundDuration":155191,"Delta":289699504},{"NoteNumber":48,"Velocity":40,"Duration":141083,"SoundDuration":141083,"Delta":289699504},{"NoteNumber":63,"Velocity":44,"Duration":155060,"SoundDuration":155060,"Delta":289840588},{"NoteNumber":62,"Velocity":44,"Duration":153745,"SoundDuration":153745,"Delta":289981671},{"NoteNumber":50,"Velocity":44,"Duration":139769,"SoundDuration":139769,"Delta":289981671},{"NoteNumber":58,"Velocity":33,"Duration":153745,"SoundDuration":153745,"Delta":290121440},{"NoteNumber":62,"Velocity":37,"Duration":153745,"SoundDuration":153745,"Delta":290261209},{"NoteNumber":55,"Velocity":35,"Duration":139769,"SoundDuration":139769,"Delta":290261209},{"NoteNumber":66,"Velocity":28,"Duration":153745,"SoundDuration":153745,"Delta":290400978},{"NoteNumber":67,"Velocity":34,"Duration":153745,"SoundDuration":153745,"Delta":290540747},{"NoteNumber":50,"Velocity":39,"Duration":139769,"SoundDuration":139769,"Delta":290540747},{"NoteNumber":62,"Velocity":26,"Duration":153745,"SoundDuration":153745,"Delta":290680516},{"NoteNumber":67,"Velocity":30,"Duration":153745,"SoundDuration":153745,"Delta":290820285},{"NoteNumber":46,"Velocity":32,"Duration":139769,"SoundDuration":139769,"Delta":290820285},{"NoteNumber":70,"Velocity":26,"Duration":139769,"SoundDuration":139769,"Delta":290960054},{"NoteNumber":74,"Velocity":44,"Duration":564333,"SoundDuration":564333,"Delta":291099823},{"NoteNumber":62,"Velocity":29,"Duration":155191,"SoundDuration":155191,"Delta":291240907},{"NoteNumber":67,"Velocity":30,"Duration":155191,"SoundDuration":155191,"Delta":291381990},{"NoteNumber":43,"Velocity":32,"Duration":141083,"SoundDuration":141083,"Delta":291381990},{"NoteNumber":70,"Velocity":28,"Duration":141083,"SoundDuration":141083,"Delta":291523074},{"NoteNumber":74,"Velocity":40,"Duration":546349,"SoundDuration":546349,"Delta":291664157},{"NoteNumber":62,"Velocity":28,"Duration":150245,"SoundDuration":150245,"Delta":291800745},{"NoteNumber":67,"Velocity":30,"Duration":150245,"SoundDuration":150245,"Delta":291937332},{"NoteNumber":43,"Velocity":32,"Duration":136587,"SoundDuration":136587,"Delta":291937332},{"NoteNumber":70,"Velocity":28,"Duration":136587,"SoundDuration":136587,"Delta":292073919},{"NoteNumber":74,"Velocity":45,"Duration":539616,"SoundDuration":539616,"Delta":292210506},{"NoteNumber":62,"Velocity":27,"Duration":149808,"SoundDuration":149808,"Delta":292346982},{"NoteNumber":66,"Velocity":30,"Duration":146666,"SoundDuration":146666,"Delta":292483457},{"NoteNumber":38,"Velocity":36,"Duration":133333,"SoundDuration":133333,"Delta":292483457},{"NoteNumber":69,"Velocity":28,"Duration":133333,"SoundDuration":133333,"Delta":292616790},{"NoteNumber":74,"Velocity":46,"Duration":565691,"SoundDuration":565691,"Delta":292750123},{"NoteNumber":62,"Velocity":27,"Duration":152411,"SoundDuration":152411,"Delta":292888042},{"NoteNumber":67,"Velocity":30,"Duration":159420,"SoundDuration":159420,"Delta":293025960},{"NoteNumber":43,"Velocity":32,"Duration":144927,"SoundDuration":144927,"Delta":293025960},{"NoteNumber":70,"Velocity":26,"Duration":144927,"SoundDuration":144927,"Delta":293170887},{"NoteNumber":75,"Velocity":51,"Duration":1103882,"SoundDuration":1103882,"Delta":293315815},{"NoteNumber":63,"Velocity":31,"Duration":150932,"SoundDuration":150932,"Delta":293453027},{"NoteNumber":67,"Velocity":33,"Duration":150932,"SoundDuration":150932,"Delta":293590238},{"NoteNumber":36,"Velocity":38,"Duration":137211,"SoundDuration":137211,"Delta":293590238},{"NoteNumber":72,"Velocity":31,"Duration":150870,"SoundDuration":150870,"Delta":293727450},{"NoteNumber":69,"Velocity":41,"Duration":150245,"SoundDuration":150245,"Delta":293864662},{"NoteNumber":72,"Velocity":33,"Duration":150245,"SoundDuration":150245,"Delta":294001249},{"NoteNumber":69,"Velocity":41,"Duration":153069,"SoundDuration":153069,"Delta":294137836},{"NoteNumber":41,"Velocity":43,"Duration":138758,"SoundDuration":138758,"Delta":294137836},{"NoteNumber":65,"Velocity":34,"Duration":143102,"SoundDuration":143102,"Delta":294276595},{"NoteNumber":74,"Velocity":57,"Duration":1100591,"SoundDuration":1100591,"Delta":294419698},{"NoteNumber":62,"Velocity":34,"Duration":151626,"SoundDuration":151626,"Delta":294557540},{"NoteNumber":65,"Velocity":40,"Duration":151626,"SoundDuration":151626,"Delta":294695382},{"NoteNumber":34,"Velocity":45,"Duration":137842,"SoundDuration":137842,"Delta":294695382},{"NoteNumber":70,"Velocity":33,"Duration":151316,"SoundDuration":151316,"Delta":294833225},{"NoteNumber":65,"Velocity":41,"Duration":148221,"SoundDuration":148221,"Delta":294971067},{"NoteNumber":70,"Velocity":28,"Duration":148221,"SoundDuration":148221,"Delta":295105814},{"NoteNumber":65,"Velocity":35,"Duration":151547,"SoundDuration":151547,"Delta":295240560},{"NoteNumber":46,"Velocity":43,"Duration":137305,"SoundDuration":137305,"Delta":295240560},{"NoteNumber":62,"Velocity":27,"Duration":142423,"SoundDuration":142423,"Delta":295377866},{"NoteNumber":72,"Velocity":60,"Duration":1091311,"SoundDuration":1091311,"Delta":295520289},{"NoteNumber":60,"Velocity":35,"Duration":150725,"SoundDuration":150725,"Delta":295657501},{"NoteNumber":63,"Velocity":39,"Duration":148648,"SoundDuration":148648,"Delta":295794712},{"NoteNumber":45,"Velocity":50,"Duration":135135,"SoundDuration":135135,"Delta":295794712},{"NoteNumber":69,"Velocity":28,"Duration":148528,"SoundDuration":148528,"Delta":295929848},{"NoteNumber":66,"Velocity":40,"Duration":147403,"SoundDuration":147403,"Delta":296064983},{"NoteNumber":69,"Velocity":27,"Duration":148221,"SoundDuration":148221,"Delta":296198911},{"NoteNumber":66,"Velocity":30,"Duration":150967,"SoundDuration":150967,"Delta":296333658},{"NoteNumber":38,"Velocity":42,"Duration":136859,"SoundDuration":136859,"Delta":296333658},{"NoteNumber":62,"Velocity":27,"Duration":141083,"SoundDuration":141083,"Delta":296470517},{"NoteNumber":70,"Velocity":45,"Duration":1094530,"SoundDuration":1094530,"Delta":296611601},{"NoteNumber":58,"Velocity":27,"Duration":150040,"SoundDuration":150040,"Delta":296748188},{"NoteNumber":62,"Velocity":30,"Duration":147982,"SoundDuration":147982,"Delta":296884775},{"NoteNumber":43,"Velocity":42,"Duration":134529,"SoundDuration":134529,"Delta":296884775},{"NoteNumber":67,"Velocity":27,"Duration":148064,"SoundDuration":148064,"Delta":297019304},{"NoteNumber":58,"Velocity":30,"Duration":148868,"SoundDuration":148868,"Delta":297153834},{"NoteNumber":67,"Velocity":28,"Duration":148648,"SoundDuration":148648,"Delta":297289188},{"NoteNumber":62,"Velocity":30,"Duration":152398,"SoundDuration":152398,"Delta":297424324},{"NoteNumber":31,"Velocity":41,"Duration":138019,"SoundDuration":138019,"Delta":297424324},{"NoteNumber":58,"Velocity":28,"Duration":143788,"SoundDuration":143788,"Delta":297562343},{"NoteNumber":67,"Velocity":50,"Duration":552416,"SoundDuration":552416,"Delta":297706131},{"NoteNumber":63,"Velocity":28,"Duration":150725,"SoundDuration":150725,"Delta":297843343},{"NoteNumber":62,"Velocity":30,"Duration":149420,"SoundDuration":149420,"Delta":297980555},{"NoteNumber":39,"Velocity":39,"Duration":135135,"SoundDuration":135135,"Delta":297980555},{"NoteNumber":60,"Velocity":28,"Duration":142857,"SoundDuration":142857,"Delta":298115690},{"NoteNumber":75,"Velocity":46,"Duration":537118,"SoundDuration":537118,"Delta":298258547},{"NoteNumber":63,"Velocity":29,"Duration":146017,"SoundDuration":146017,"Delta":298397436},{"NoteNumber":67,"Velocity":30,"Duration":146017,"SoundDuration":146017,"Delta":298530180},{"NoteNumber":36,"Velocity":32,"Duration":132743,"SoundDuration":132743,"Delta":298530180},{"NoteNumber":72,"Velocity":28,"Duration":132743,"SoundDuration":132743,"Delta":298662923},{"NoteNumber":74,"Velocity":49,"Duration":545455,"SoundDuration":545455,"Delta":298795666},{"NoteNumber":62,"Velocity":27,"Duration":150000,"SoundDuration":150000,"Delta":298932030},{"NoteNumber":65,"Velocity":30,"Duration":150000,"SoundDuration":150000,"Delta":299068394},{"NoteNumber":41,"Velocity":32,"Duration":136363,"SoundDuration":136363,"Delta":299068394},{"NoteNumber":70,"Velocity":27,"Duration":136363,"SoundDuration":136363,"Delta":299204757},{"NoteNumber":72,"Velocity":45,"Duration":564333,"SoundDuration":564333,"Delta":299341121},{"NoteNumber":63,"Velocity":26,"Duration":155191,"SoundDuration":155191,"Delta":299482205},{"NoteNumber":65,"Velocity":30,"Duration":155191,"SoundDuration":155191,"Delta":299623288},{"NoteNumber":29,"Velocity":32,"Duration":141083,"SoundDuration":141083,"Delta":299623288},{"NoteNumber":69,"Velocity":27,"Duration":141083,"SoundDuration":141083,"Delta":299764372},{"NoteNumber":70,"Velocity":50,"Duration":1704129,"SoundDuration":1704129,"Delta":299905455},{"NoteNumber":58,"Velocity":28,"Duration":159697,"SoundDuration":159697,"Delta":300050635},{"NoteNumber":62,"Velocity":32,"Duration":159697,"SoundDuration":159697,"Delta":300195815},{"NoteNumber":46,"Velocity":30,"Duration":145179,"SoundDuration":145179,"Delta":300195815},{"NoteNumber":65,"Velocity":34,"Duration":159288,"SoundDuration":159288,"Delta":300340995},{"NoteNumber":66,"Velocity":35,"Duration":155191,"SoundDuration":155191,"Delta":300486175},{"NoteNumber":48,"Velocity":37,"Duration":141083,"SoundDuration":141083,"Delta":300486175},{"NoteNumber":63,"Velocity":37,"Duration":155191,"SoundDuration":155191,"Delta":300627259},{"NoteNumber":60,"Velocity":39,"Duration":155191,"SoundDuration":155191,"Delta":300768342},{"NoteNumber":51,"Velocity":40,"Duration":141083,"SoundDuration":141083,"Delta":300768342},{"NoteNumber":66,"Velocity":44,"Duration":155060,"SoundDuration":155060,"Delta":300909426},{"NoteNumber":65,"Velocity":44,"Duration":153745,"SoundDuration":153745,"Delta":301050509},{"NoteNumber":50,"Velocity":44,"Duration":139769,"SoundDuration":139769,"Delta":301050509},{"NoteNumber":62,"Velocity":33,"Duration":153745,"SoundDuration":153745,"Delta":301190278},{"NoteNumber":65,"Velocity":37,"Duration":153745,"SoundDuration":153745,"Delta":301330047},{"NoteNumber":58,"Velocity":35,"Duration":139769,"SoundDuration":139769,"Delta":301330047},{"NoteNumber":69,"Velocity":34,"Duration":153745,"SoundDuration":153745,"Delta":301469816},{"NoteNumber":70,"Velocity":40,"Duration":153745,"SoundDuration":153745,"Delta":301609585},{"NoteNumber":53,"Velocity":39,"Duration":139769,"SoundDuration":139769,"Delta":301609585},{"NoteNumber":65,"Velocity":43,"Duration":153745,"SoundDuration":153745,"Delta":301749354},{"NoteNumber":70,"Velocity":46,"Duration":153745,"SoundDuration":153745,"Delta":301889123},{"NoteNumber":50,"Velocity":32,"Duration":139769,"SoundDuration":139769,"Delta":301889123},{"NoteNumber":74,"Velocity":49,"Duration":139769,"SoundDuration":139769,"Delta":302028892},{"NoteNumber":65,"Velocity":41,"Duration":421269,"SoundDuration":421269,"Delta":302168661},{"NoteNumber":77,"Velocity":55,"Duration":421269,"SoundDuration":421269,"Delta":302168661},{"NoteNumber":46,"Velocity":44,"Duration":140423,"SoundDuration":140423,"Delta":302168661},{"NoteNumber":50,"Velocity":36,"Duration":140423,"SoundDuration":140423,"Delta":302309084},{"NoteNumber":53,"Velocity":36,"Duration":140423,"SoundDuration":140423,"Delta":302449508},{"NoteNumber":50,"Velocity":36,"Duration":140423,"SoundDuration":140423,"Delta":302589931},{"NoteNumber":65,"Velocity":44,"Duration":539848,"SoundDuration":539848,"Delta":302730354},{"NoteNumber":77,"Velocity":54,"Duration":539848,"SoundDuration":539848,"Delta":302730354},{"NoteNumber":46,"Velocity":45,"Duration":136079,"SoundDuration":136079,"Delta":302730354},{"NoteNumber":50,"Velocity":38,"Duration":135135,"SoundDuration":135135,"Delta":302866433},{"NoteNumber":53,"Velocity":38,"Duration":135135,"SoundDuration":135135,"Delta":303001569},{"NoteNumber":50,"Velocity":46,"Duration":134620,"SoundDuration":134620,"Delta":303136704},{"NoteNumber":66,"Velocity":54,"Duration":535384,"SoundDuration":535384,"Delta":303271324},{"NoteNumber":78,"Velocity":64,"Duration":535384,"SoundDuration":535384,"Delta":303271324},{"NoteNumber":45,"Velocity":55,"Duration":134529,"SoundDuration":134529,"Delta":303271324},{"NoteNumber":48,"Velocity":46,"Duration":134218,"SoundDuration":134218,"Delta":303405853},{"NoteNumber":50,"Velocity":47,"Duration":133928,"SoundDuration":133928,"Delta":303540072},{"NoteNumber":48,"Velocity":50,"Duration":133819,"SoundDuration":133819,"Delta":303674001},{"NoteNumber":67,"Velocity":60,"Duration":536890,"SoundDuration":536890,"Delta":303807820},{"NoteNumber":79,"Velocity":72,"Duration":536890,"SoundDuration":536890,"Delta":303807820},{"NoteNumber":43,"Velocity":60,"Duration":134529,"SoundDuration":134529,"Delta":303807820},{"NoteNumber":48,"Velocity":52,"Duration":134529,"SoundDuration":134529,"Delta":303942349},{"NoteNumber":50,"Velocity":49,"Duration":134529,"SoundDuration":134529,"Delta":304076878},{"NoteNumber":48,"Velocity":50,"Duration":134419,"SoundDuration":134419,"Delta":304211408},{"NoteNumber":69,"Velocity":61,"Duration":534597,"SoundDuration":534597,"Delta":304345827},{"NoteNumber":81,"Velocity":75,"Duration":534597,"SoundDuration":534597,"Delta":304345827},{"NoteNumber":42,"Velocity":72,"Duration":133928,"SoundDuration":133928,"Delta":304345827},{"NoteNumber":48,"Velocity":55,"Duration":133928,"SoundDuration":133928,"Delta":304479755},{"NoteNumber":50,"Velocity":59,"Duration":133928,"SoundDuration":133928,"Delta":304613684},{"NoteNumber":48,"Velocity":59,"Duration":133928,"SoundDuration":133928,"Delta":304747612},{"NoteNumber":72,"Velocity":64,"Duration":544763,"SoundDuration":544763,"Delta":304881541},{"NoteNumber":84,"Velocity":78,"Duration":544763,"SoundDuration":544763,"Delta":304881541},{"NoteNumber":42,"Velocity":68,"Duration":136475,"SoundDuration":136475,"Delta":304881541},{"NoteNumber":45,"Velocity":53,"Duration":136475,"SoundDuration":136475,"Delta":305018016},{"NoteNumber":50,"Velocity":53,"Duration":136475,"SoundDuration":136475,"Delta":305154491},{"NoteNumber":45,"Velocity":53,"Duration":136475,"SoundDuration":136475,"Delta":305290967},{"NoteNumber":70,"Velocity":63,"Duration":550523,"SoundDuration":550523,"Delta":305427442},{"NoteNumber":82,"Velocity":77,"Duration":550523,"SoundDuration":550523,"Delta":305427442},{"NoteNumber":43,"Velocity":63,"Duration":137918,"SoundDuration":137918,"Delta":305427442},{"NoteNumber":46,"Velocity":48,"Duration":137918,"SoundDuration":137918,"Delta":305565360},{"NoteNumber":50,"Velocity":48,"Duration":137918,"SoundDuration":137918,"Delta":305703278},{"NoteNumber":46,"Velocity":48,"Duration":137918,"SoundDuration":137918,"Delta":305841197},{"NoteNumber":69,"Velocity":49,"Duration":413754,"SoundDuration":413754,"Delta":305979115},{"NoteNumber":81,"Velocity":58,"Duration":413754,"SoundDuration":413754,"Delta":305979115},{"NoteNumber":48,"Velocity":48,"Duration":137918,"SoundDuration":137918,"Delta":305979115},{"NoteNumber":51,"Velocity":35,"Duration":137918,"SoundDuration":137918,"Delta":306117033},{"NoteNumber":57,"Velocity":35,"Duration":137918,"SoundDuration":137918,"Delta":306254951},{"NoteNumber":67,"Velocity":42,"Duration":145179,"SoundDuration":145179,"Delta":306392870},{"NoteNumber":79,"Velocity":51,"Duration":145179,"SoundDuration":145179,"Delta":306392870},{"NoteNumber":51,"Velocity":36,"Duration":145179,"SoundDuration":145179,"Delta":306392870},{"NoteNumber":66,"Velocity":49,"Duration":567001,"SoundDuration":567001,"Delta":306538050},{"NoteNumber":78,"Velocity":58,"Duration":567001,"SoundDuration":567001,"Delta":306538050},{"NoteNumber":50,"Velocity":50,"Duration":141750,"SoundDuration":141750,"Delta":306538050},{"NoteNumber":57,"Velocity":39,"Duration":141750,"SoundDuration":141750,"Delta":306679800},{"NoteNumber":60,"Velocity":39,"Duration":141750,"SoundDuration":141750,"Delta":306821550},{"NoteNumber":57,"Velocity":39,"Duration":141750,"SoundDuration":141750,"Delta":306963300},{"NoteNumber":66,"Velocity":46,"Duration":556483,"SoundDuration":556483,"Delta":307105051},{"NoteNumber":78,"Velocity":55,"Duration":556483,"SoundDuration":556483,"Delta":307105051},{"NoteNumber":50,"Velocity":47,"Duration":139120,"SoundDuration":139120,"Delta":307105051},{"NoteNumber":57,"Velocity":39,"Duration":139120,"SoundDuration":139120,"Delta":307244171},{"NoteNumber":60,"Velocity":39,"Duration":139120,"SoundDuration":139120,"Delta":307383292},{"NoteNumber":57,"Velocity":39,"Duration":139120,"SoundDuration":139120,"Delta":307522413},{"NoteNumber":67,"Velocity":45,"Duration":273174,"SoundDuration":273174,"Delta":307661534},{"NoteNumber":79,"Velocity":53,"Duration":273174,"SoundDuration":273174,"Delta":307661534},{"NoteNumber":50,"Velocity":47,"Duration":136587,"SoundDuration":136587,"Delta":307661534},{"NoteNumber":57,"Velocity":40,"Duration":136587,"SoundDuration":136587,"Delta":307798121},{"NoteNumber":66,"Velocity":37,"Duration":273174,"SoundDuration":273174,"Delta":307934708},{"NoteNumber":78,"Velocity":45,"Duration":273174,"SoundDuration":273174,"Delta":307934708},{"NoteNumber":60,"Velocity":40,"Duration":136587,"SoundDuration":136587,"Delta":307934708},{"NoteNumber":57,"Velocity":40,"Duration":136587,"SoundDuration":136587,"Delta":308071295},{"NoteNumber":64,"Velocity":38,"Duration":282167,"SoundDuration":282167,"Delta":308207883},{"NoteNumber":76,"Velocity":46,"Duration":282167,"SoundDuration":282167,"Delta":308207883},{"NoteNumber":50,"Velocity":44,"Duration":141083,"SoundDuration":141083,"Delta":308207883},{"NoteNumber":57,"Velocity":36,"Duration":141083,"SoundDuration":141083,"Delta":308348966},{"NoteNumber":66,"Velocity":37,"Duration":294426,"SoundDuration":294426,"Delta":308490050},{"NoteNumber":78,"Velocity":45,"Duration":294426,"SoundDuration":294426,"Delta":308490050},{"NoteNumber":60,"Velocity":36,"Duration":141083,"SoundDuration":141083,"Delta":308490050},{"NoteNumber":57,"Velocity":36,"Duration":153342,"SoundDuration":153342,"Delta":308631133},{"NoteNumber":67,"Velocity":40,"Duration":1142256,"SoundDuration":1142256,"Delta":308784476},{"NoteNumber":79,"Velocity":48,"Duration":1142256,"SoundDuration":1142256,"Delta":308784476},{"NoteNumber":55,"Velocity":44,"Duration":144480,"SoundDuration":144480,"Delta":308784476},{"NoteNumber":58,"Velocity":37,"Duration":144480,"SoundDuration":144480,"Delta":308928957},{"NoteNumber":55,"Velocity":37,"Duration":144480,"SoundDuration":144480,"Delta":309073437},{"NoteNumber":50,"Velocity":37,"Duration":144480,"SoundDuration":144480,"Delta":309217918},{"NoteNumber":46,"Velocity":44,"Duration":141083,"SoundDuration":141083,"Delta":309362399},{"NoteNumber":55,"Velocity":38,"Duration":141083,"SoundDuration":141083,"Delta":309503482},{"NoteNumber":50,"Velocity":38,"Duration":141083,"SoundDuration":141083,"Delta":309644566},{"NoteNumber":46,"Velocity":38,"Duration":141083,"SoundDuration":141083,"Delta":309785649},{"NoteNumber":43,"Velocity":44,"Duration":141083,"SoundDuration":141083,"Delta":309926733},{"NoteNumber":67,"Velocity":53,"Duration":141083,"SoundDuration":141083,"Delta":310067816},{"NoteNumber":70,"Velocity":55,"Duration":141083,"SoundDuration":141083,"Delta":310208900},{"NoteNumber":74,"Velocity":57,"Duration":141083,"SoundDuration":141083,"Delta":310349983},{"NoteNumber":79,"Velocity":59,"Duration":137918,"SoundDuration":137918,"Delta":310491067},{"NoteNumber":43,"Velocity":58,"Duration":413754,"SoundDuration":413754,"Delta":310491067},{"NoteNumber":55,"Velocity":69,"Duration":413754,"SoundDuration":413754,"Delta":310491067},{"NoteNumber":70,"Velocity":61,"Duration":137918,"SoundDuration":137918,"Delta":310628985},{"NoteNumber":74,"Velocity":63,"Duration":137918,"SoundDuration":137918,"Delta":310766903},{"NoteNumber":79,"Velocity":65,"Duration":153342,"SoundDuration":153342,"Delta":310904822},{"NoteNumber":46,"Velocity":51,"Duration":153342,"SoundDuration":153342,"Delta":310904822},{"NoteNumber":58,"Velocity":61,"Duration":153342,"SoundDuration":153342,"Delta":310904822},{"NoteNumber":50,"Velocity":62,"Duration":421269,"SoundDuration":421269,"Delta":311058164},{"NoteNumber":62,"Velocity":74,"Duration":421269,"SoundDuration":421269,"Delta":311058164},{"NoteNumber":69,"Velocity":63,"Duration":140423,"SoundDuration":140423,"Delta":311339011},{"NoteNumber":74,"Velocity":63,"Duration":140423,"SoundDuration":140423,"Delta":311339011},{"NoteNumber":78,"Velocity":74,"Duration":140423,"SoundDuration":140423,"Delta":311339011},{"NoteNumber":50,"Velocity":56,"Duration":409761,"SoundDuration":409761,"Delta":311619857},{"NoteNumber":62,"Velocity":67,"Duration":409761,"SoundDuration":409761,"Delta":311619857},{"NoteNumber":81,"Velocity":74,"Duration":136587,"SoundDuration":136587,"Delta":311893032},{"NoteNumber":72,"Velocity":63,"Duration":136587,"SoundDuration":136587,"Delta":311893032},{"NoteNumber":74,"Velocity":63,"Duration":136587,"SoundDuration":136587,"Delta":311893032},{"NoteNumber":50,"Velocity":58,"Duration":409425,"SoundDuration":409425,"Delta":312166206},{"NoteNumber":62,"Velocity":69,"Duration":409425,"SoundDuration":409425,"Delta":312166206},{"NoteNumber":70,"Velocity":63,"Duration":136475,"SoundDuration":136475,"Delta":312439157},{"NoteNumber":74,"Velocity":63,"Duration":136475,"SoundDuration":136475,"Delta":312439157},{"NoteNumber":79,"Velocity":74,"Duration":136475,"SoundDuration":136475,"Delta":312439157},{"NoteNumber":50,"Velocity":57,"Duration":419624,"SoundDuration":419624,"Delta":312712107},{"NoteNumber":62,"Velocity":68,"Duration":419624,"SoundDuration":419624,"Delta":312712107},{"NoteNumber":69,"Velocity":63,"Duration":143788,"SoundDuration":143788,"Delta":312987944},{"NoteNumber":74,"Velocity":63,"Duration":143788,"SoundDuration":143788,"Delta":312987944},{"NoteNumber":78,"Velocity":74,"Duration":143788,"SoundDuration":143788,"Delta":312987944},{"NoteNumber":51,"Velocity":63,"Duration":1097028,"SoundDuration":1097028,"Delta":313275520},{"NoteNumber":63,"Velocity":75,"Duration":1097028,"SoundDuration":1097028,"Delta":313275520},{"NoteNumber":67,"Velocity":65,"Duration":137211,"SoundDuration":137211,"Delta":313549944},{"NoteNumber":74,"Velocity":65,"Duration":137211,"SoundDuration":137211,"Delta":313549944},{"NoteNumber":79,"Velocity":78,"Duration":137211,"SoundDuration":137211,"Delta":313549944},{"NoteNumber":67,"Velocity":66,"Duration":131786,"SoundDuration":131786,"Delta":313824367},{"NoteNumber":72,"Velocity":66,"Duration":131786,"SoundDuration":131786,"Delta":313824367},{"NoteNumber":79,"Velocity":79,"Duration":131786,"SoundDuration":131786,"Delta":313824367},{"NoteNumber":85,"Velocity":83,"Duration":137937,"SoundDuration":137937,"Delta":314091509},{"NoteNumber":79,"Velocity":71,"Duration":137937,"SoundDuration":137937,"Delta":314091509},{"NoteNumber":73,"Velocity":71,"Duration":137937,"SoundDuration":137937,"Delta":314091509},{"NoteNumber":50,"Velocity":61,"Duration":1100698,"SoundDuration":1100698,"Delta":314372549},{"NoteNumber":62,"Velocity":72,"Duration":1100698,"SoundDuration":1100698,"Delta":314372549},{"NoteNumber":86,"Velocity":83,"Duration":137842,"SoundDuration":137842,"Delta":314648233},{"NoteNumber":81,"Velocity":83,"Duration":137842,"SoundDuration":137842,"Delta":314648233},{"NoteNumber":79,"Velocity":71,"Duration":137842,"SoundDuration":137842,"Delta":314648233},{"NoteNumber":74,"Velocity":71,"Duration":137842,"SoundDuration":137842,"Delta":314648233},{"NoteNumber":74,"Velocity":69,"Duration":131786,"SoundDuration":131786,"Delta":314923918},{"NoteNumber":78,"Velocity":69,"Duration":131786,"SoundDuration":131786,"Delta":314923918},{"NoteNumber":81,"Velocity":69,"Duration":131786,"SoundDuration":131786,"Delta":314923918},{"NoteNumber":86,"Velocity":81,"Duration":131786,"SoundDuration":131786,"Delta":314923918},{"NoteNumber":66,"Velocity":66,"Duration":138532,"SoundDuration":138532,"Delta":315192292},{"NoteNumber":69,"Velocity":66,"Duration":138532,"SoundDuration":138532,"Delta":315192292},{"NoteNumber":74,"Velocity":79,"Duration":138532,"SoundDuration":138532,"Delta":315192292},{"NoteNumber":48,"Velocity":63,"Duration":1088623,"SoundDuration":1088623,"Delta":315473248},{"NoteNumber":60,"Velocity":75,"Duration":1088623,"SoundDuration":1088623,"Delta":315473248},{"NoteNumber":63,"Velocity":63,"Duration":137211,"SoundDuration":137211,"Delta":315747671},{"NoteNumber":70,"Velocity":63,"Duration":137211,"SoundDuration":137211,"Delta":315747671},{"NoteNumber":75,"Velocity":74,"Duration":137211,"SoundDuration":137211,"Delta":315747671},{"NoteNumber":63,"Velocity":69,"Duration":130072,"SoundDuration":130072,"Delta":316022095},{"NoteNumber":69,"Velocity":69,"Duration":130072,"SoundDuration":130072,"Delta":316022095},{"NoteNumber":75,"Velocity":81,"Duration":130072,"SoundDuration":130072,"Delta":316022095},{"NoteNumber":81,"Velocity":74,"Duration":135664,"SoundDuration":135664,"Delta":316285123},{"NoteNumber":75,"Velocity":63,"Duration":135664,"SoundDuration":135664,"Delta":316285123},{"NoteNumber":69,"Velocity":63,"Duration":135664,"SoundDuration":135664,"Delta":316285123},{"NoteNumber":46,"Velocity":57,"Duration":1095784,"SoundDuration":1095784,"Delta":316561871},{"NoteNumber":58,"Velocity":68,"Duration":1095784,"SoundDuration":1095784,"Delta":316561871},{"NoteNumber":82,"Velocity":74,"Duration":136587,"SoundDuration":136587,"Delta":316835045},{"NoteNumber":77,"Velocity":63,"Duration":136587,"SoundDuration":136587,"Delta":316835045},{"NoteNumber":75,"Velocity":63,"Duration":136587,"SoundDuration":136587,"Delta":316835045},{"NoteNumber":70,"Velocity":63,"Duration":136587,"SoundDuration":136587,"Delta":316835045},{"NoteNumber":70,"Velocity":66,"Duration":134144,"SoundDuration":134144,"Delta":317108220},{"NoteNumber":74,"Velocity":66,"Duration":134144,"SoundDuration":134144,"Delta":317108220},{"NoteNumber":77,"Velocity":66,"Duration":134144,"SoundDuration":134144,"Delta":317108220},{"NoteNumber":82,"Velocity":79,"Duration":134144,"SoundDuration":134144,"Delta":317108220},{"NoteNumber":62,"Velocity":63,"Duration":137358,"SoundDuration":137358,"Delta":317376508},{"NoteNumber":65,"Velocity":63,"Duration":137358,"SoundDuration":137358,"Delta":317376508},{"NoteNumber":70,"Velocity":74,"Duration":137358,"SoundDuration":137358,"Delta":317376508},{"NoteNumber":45,"Velocity":57,"Duration":537911,"SoundDuration":537911,"Delta":317657655},{"NoteNumber":57,"Velocity":68,"Duration":537911,"SoundDuration":537911,"Delta":317657655},{"NoteNumber":63,"Velocity":63,"Duration":136587,"SoundDuration":136587,"Delta":317922392},{"NoteNumber":67,"Velocity":63,"Duration":136587,"SoundDuration":136587,"Delta":317922392},{"NoteNumber":72,"Velocity":74,"Duration":136587,"SoundDuration":136587,"Delta":317922392},{"NoteNumber":48,"Velocity":56,"Duration":536673,"SoundDuration":536673,"Delta":318195567},{"NoteNumber":60,"Velocity":66,"Duration":536673,"SoundDuration":536673,"Delta":318195567},{"NoteNumber":66,"Velocity":63,"Duration":135967,"SoundDuration":135967,"Delta":318460304},{"NoteNumber":69,"Velocity":63,"Duration":135967,"SoundDuration":135967,"Delta":318460304},{"NoteNumber":75,"Velocity":74,"Duration":135967,"SoundDuration":135967,"Delta":318460304},{"NoteNumber":46,"Velocity":62,"Duration":556483,"SoundDuration":556483,"Delta":318732240},{"NoteNumber":58,"Velocity":73,"Duration":556483,"SoundDuration":556483,"Delta":318732240},{"NoteNumber":67,"Velocity":65,"Duration":139120,"SoundDuration":139120,"Delta":319010481},{"NoteNumber":70,"Velocity":65,"Duration":139120,"SoundDuration":139120,"Delta":319010481},{"NoteNumber":74,"Velocity":78,"Duration":139120,"SoundDuration":139120,"Delta":319010481},{"NoteNumber":45,"Velocity":45,"Duration":561692,"SoundDuration":561692,"Delta":319288723},{"NoteNumber":57,"Velocity":64,"Duration":561692,"SoundDuration":561692,"Delta":319288723},{"NoteNumber":72,"Velocity":66,"Duration":140423,"SoundDuration":140423,"Delta":319569569},{"NoteNumber":74,"Velocity":66,"Duration":140423,"SoundDuration":140423,"Delta":319569569},{"NoteNumber":78,"Velocity":79,"Duration":140423,"SoundDuration":140423,"Delta":319569569},{"NoteNumber":55,"Velocity":72,"Duration":1673770,"SoundDuration":1673770,"Delta":319850416},{"NoteNumber":43,"Velocity":51,"Duration":1673770,"SoundDuration":1673770,"Delta":319850416},{"NoteNumber":70,"Velocity":69,"Duration":276956,"SoundDuration":276956,"Delta":320139377},{"NoteNumber":74,"Velocity":69,"Duration":276956,"SoundDuration":276956,"Delta":320139377},{"NoteNumber":79,"Velocity":81,"Duration":276956,"SoundDuration":276956,"Delta":320139377},{"NoteNumber":62,"Velocity":67,"Duration":278241,"SoundDuration":278241,"Delta":320416334},{"NoteNumber":70,"Velocity":67,"Duration":278241,"SoundDuration":278241,"Delta":320416334},{"NoteNumber":74,"Velocity":80,"Duration":278241,"SoundDuration":278241,"Delta":320416334},{"NoteNumber":62,"Velocity":65,"Duration":278241,"SoundDuration":278241,"Delta":320694576},{"NoteNumber":69,"Velocity":65,"Duration":278241,"SoundDuration":278241,"Delta":320694576},{"NoteNumber":72,"Velocity":78,"Duration":278241,"SoundDuration":278241,"Delta":320694576},{"NoteNumber":62,"Velocity":64,"Duration":275684,"SoundDuration":275684,"Delta":320972817},{"NoteNumber":67,"Velocity":64,"Duration":275684,"SoundDuration":275684,"Delta":320972817},{"NoteNumber":70,"Velocity":64,"Duration":275684,"SoundDuration":275684,"Delta":320972817},{"NoteNumber":67,"Velocity":63,"Duration":275684,"SoundDuration":275684,"Delta":321248502},{"NoteNumber":70,"Velocity":63,"Duration":275684,"SoundDuration":275684,"Delta":321248502},{"NoteNumber":74,"Velocity":74,"Duration":275684,"SoundDuration":275684,"Delta":321248502},{"NoteNumber":70,"Velocity":63,"Duration":275836,"SoundDuration":275836,"Delta":321524186},{"NoteNumber":74,"Velocity":63,"Duration":275836,"SoundDuration":275836,"Delta":321524186},{"NoteNumber":79,"Velocity":74,"Duration":275836,"SoundDuration":275836,"Delta":321524186},{"NoteNumber":55,"Velocity":69,"Duration":413754,"SoundDuration":413754,"Delta":321524186},{"NoteNumber":43,"Velocity":69,"Duration":413754,"SoundDuration":413754,"Delta":321524186},{"NoteNumber":67,"Velocity":63,"Duration":291260,"SoundDuration":291260,"Delta":321800023},{"NoteNumber":70,"Velocity":63,"Duration":291260,"SoundDuration":291260,"Delta":321800023},{"NoteNumber":74,"Velocity":74,"Duration":291260,"SoundDuration":291260,"Delta":321800023},{"NoteNumber":46,"Velocity":61,"Duration":153342,"SoundDuration":153342,"Delta":321937941},{"NoteNumber":58,"Velocity":61,"Duration":153342,"SoundDuration":153342,"Delta":321937941},{"NoteNumber":50,"Velocity":74,"Duration":423250,"SoundDuration":423250,"Delta":322091284},{"NoteNumber":62,"Velocity":74,"Duration":397385,"SoundDuration":397385,"Delta":322091284},{"NoteNumber":66,"Velocity":63,"Duration":141083,"SoundDuration":141083,"Delta":322373451},{"NoteNumber":69,"Velocity":63,"Duration":141083,"SoundDuration":141083,"Delta":322373451},{"NoteNumber":74,"Velocity":74,"Duration":141083,"SoundDuration":141083,"Delta":322373451},{"NoteNumber":62,"Velocity":67,"Duration":401324,"SoundDuration":401324,"Delta":322655618},{"NoteNumber":50,"Velocity":55,"Duration":401324,"SoundDuration":401324,"Delta":322655618},{"NoteNumber":81,"Velocity":74,"Duration":136587,"SoundDuration":136587,"Delta":322920355},{"NoteNumber":72,"Velocity":63,"Duration":136587,"SoundDuration":136587,"Delta":322920355},{"NoteNumber":74,"Velocity":63,"Duration":136587,"SoundDuration":136587,"Delta":322920355},{"NoteNumber":50,"Velocity":58,"Duration":403061,"SoundDuration":403061,"Delta":323193529},{"NoteNumber":62,"Velocity":69,"Duration":403061,"SoundDuration":403061,"Delta":323193529},{"NoteNumber":70,"Velocity":63,"Duration":135967,"SoundDuration":135967,"Delta":323460623},{"NoteNumber":74,"Velocity":63,"Duration":135967,"SoundDuration":135967,"Delta":323460623},{"NoteNumber":79,"Velocity":74,"Duration":135967,"SoundDuration":135967,"Delta":323460623},{"NoteNumber":50,"Velocity":57,"Duration":419624,"SoundDuration":419624,"Delta":323732559},{"NoteNumber":62,"Velocity":68,"Duration":419624,"SoundDuration":419624,"Delta":323732559},{"NoteNumber":69,"Velocity":63,"Duration":143788,"SoundDuration":143788,"Delta":324008396},{"NoteNumber":74,"Velocity":63,"Duration":143788,"SoundDuration":143788,"Delta":324008396},{"NoteNumber":78,"Velocity":74,"Duration":143788,"SoundDuration":143788,"Delta":324008396},{"NoteNumber":51,"Velocity":63,"Duration":1118040,"SoundDuration":1118040,"Delta":324303975},{"NoteNumber":63,"Velocity":75,"Duration":1118040,"SoundDuration":1118040,"Delta":324303975},{"NoteNumber":67,"Velocity":65,"Duration":140423,"SoundDuration":140423,"Delta":324584822},{"NoteNumber":74,"Velocity":65,"Duration":140423,"SoundDuration":140423,"Delta":324584822},{"NoteNumber":79,"Velocity":78,"Duration":140423,"SoundDuration":140423,"Delta":324584822},{"NoteNumber":67,"Velocity":66,"Duration":134746,"SoundDuration":134746,"Delta":324865668},{"NoteNumber":72,"Velocity":66,"Duration":134746,"SoundDuration":134746,"Delta":324865668},{"NoteNumber":79,"Velocity":79,"Duration":134746,"SoundDuration":134746,"Delta":324865668},{"NoteNumber":85,"Velocity":83,"Duration":140019,"SoundDuration":140019,"Delta":325138894},{"NoteNumber":79,"Velocity":71,"Duration":140019,"SoundDuration":140019,"Delta":325138894},{"NoteNumber":73,"Velocity":71,"Duration":140019,"SoundDuration":140019,"Delta":325138894},{"NoteNumber":50,"Velocity":60,"Duration":1105783,"SoundDuration":1105783,"Delta":325422016},{"NoteNumber":62,"Velocity":72,"Duration":1105783,"SoundDuration":1105783,"Delta":325422016},{"NoteNumber":86,"Velocity":83,"Duration":137842,"SoundDuration":137842,"Delta":325697701},{"NoteNumber":81,"Velocity":83,"Duration":137842,"SoundDuration":137842,"Delta":325697701},{"NoteNumber":79,"Velocity":71,"Duration":137842,"SoundDuration":137842,"Delta":325697701},{"NoteNumber":74,"Velocity":71,"Duration":137842,"SoundDuration":137842,"Delta":325697701},{"NoteNumber":74,"Velocity":69,"Duration":131210,"SoundDuration":131210,"Delta":325973385},{"NoteNumber":77,"Velocity":69,"Duration":131210,"SoundDuration":131210,"Delta":325973385},{"NoteNumber":81,"Velocity":69,"Duration":131210,"SoundDuration":131210,"Delta":325973385},{"NoteNumber":86,"Velocity":81,"Duration":131210,"SoundDuration":131210,"Delta":325973385},{"NoteNumber":65,"Velocity":66,"Duration":137211,"SoundDuration":137211,"Delta":326241808},{"NoteNumber":69,"Velocity":66,"Duration":137211,"SoundDuration":137211,"Delta":326241808},{"NoteNumber":74,"Velocity":79,"Duration":137211,"SoundDuration":137211,"Delta":326241808},{"NoteNumber":48,"Velocity":63,"Duration":1093644,"SoundDuration":1093644,"Delta":326527799},{"NoteNumber":60,"Velocity":75,"Duration":1093644,"SoundDuration":1093644,"Delta":326527799},{"NoteNumber":63,"Velocity":63,"Duration":137211,"SoundDuration":137211,"Delta":326802223},{"NoteNumber":70,"Velocity":63,"Duration":137211,"SoundDuration":137211,"Delta":326802223},{"NoteNumber":75,"Velocity":74,"Duration":137211,"SoundDuration":137211,"Delta":326802223},{"NoteNumber":63,"Velocity":69,"Duration":130072,"SoundDuration":130072,"Delta":327076646},{"NoteNumber":69,"Velocity":69,"Duration":130072,"SoundDuration":130072,"Delta":327076646},{"NoteNumber":75,"Velocity":81,"Duration":130072,"SoundDuration":130072,"Delta":327076646},{"NoteNumber":81,"Velocity":74,"Duration":137673,"SoundDuration":137673,"Delta":327342687},{"NoteNumber":75,"Velocity":63,"Duration":137673,"SoundDuration":137673,"Delta":327342687},{"NoteNumber":69,"Velocity":63,"Duration":137673,"SoundDuration":137673,"Delta":327342687},{"NoteNumber":58,"Velocity":68,"Duration":814637,"SoundDuration":814637,"Delta":327621444},{"NoteNumber":46,"Velocity":57,"Duration":814637,"SoundDuration":814637,"Delta":327621444},{"NoteNumber":82,"Velocity":74,"Duration":136587,"SoundDuration":136587,"Delta":327894618},{"NoteNumber":77,"Velocity":63,"Duration":136587,"SoundDuration":136587,"Delta":327894618},{"NoteNumber":75,"Velocity":63,"Duration":136587,"SoundDuration":136587,"Delta":327894618},{"NoteNumber":70,"Velocity":63,"Duration":136587,"SoundDuration":136587,"Delta":327894618},{"NoteNumber":70,"Velocity":66,"Duration":134144,"SoundDuration":134144,"Delta":328167793},{"NoteNumber":74,"Velocity":66,"Duration":134144,"SoundDuration":134144,"Delta":328167793},{"NoteNumber":77,"Velocity":66,"Duration":134144,"SoundDuration":134144,"Delta":328167793},{"NoteNumber":82,"Velocity":79,"Duration":134144,"SoundDuration":134144,"Delta":328167793},{"NoteNumber":65,"Velocity":63,"Duration":134144,"SoundDuration":134144,"Delta":328436081},{"NoteNumber":72,"Velocity":74,"Duration":134144,"SoundDuration":134144,"Delta":328436081},{"NoteNumber":45,"Velocity":60,"Duration":275227,"SoundDuration":275227,"Delta":328436081},{"NoteNumber":57,"Velocity":66,"Duration":275227,"SoundDuration":275227,"Delta":328436081},{"NoteNumber":55,"Velocity":70,"Duration":539085,"SoundDuration":539085,"Delta":328711309},{"NoteNumber":43,"Velocity":60,"Duration":539085,"SoundDuration":539085,"Delta":328711309},{"NoteNumber":63,"Velocity":63,"Duration":136587,"SoundDuration":136587,"Delta":328977219},{"NoteNumber":70,"Velocity":63,"Duration":136587,"SoundDuration":136587,"Delta":328977219},{"NoteNumber":75,"Velocity":74,"Duration":136587,"SoundDuration":136587,"Delta":328977219},{"NoteNumber":51,"Velocity":55,"Duration":552058,"SoundDuration":552058,"Delta":329250394},{"NoteNumber":63,"Velocity":66,"Duration":552058,"SoundDuration":552058,"Delta":329250394},{"NoteNumber":67,"Velocity":63,"Duration":137211,"SoundDuration":137211,"Delta":329524817},{"NoteNumber":70,"Velocity":63,"Duration":137211,"SoundDuration":137211,"Delta":329524817},{"NoteNumber":72,"Velocity":74,"Duration":137211,"SoundDuration":137211,"Delta":329524817},{"NoteNumber":62,"Velocity":67,"Duration":546529,"SoundDuration":546529,"Delta":329802452},{"NoteNumber":50,"Velocity":56,"Duration":546529,"SoundDuration":546529,"Delta":329802452},{"NoteNumber":65,"Velocity":65,"Duration":139120,"SoundDuration":139120,"Delta":330070741},{"NoteNumber":70,"Velocity":65,"Duration":139120,"SoundDuration":139120,"Delta":330070741},{"NoteNumber":77,"Velocity":78,"Duration":139120,"SoundDuration":139120,"Delta":330070741},{"NoteNumber":48,"Velocity":50,"Duration":575041,"SoundDuration":575041,"Delta":330348982},{"NoteNumber":60,"Velocity":60,"Duration":575041,"SoundDuration":575041,"Delta":330348982},{"NoteNumber":69,"Velocity":50,"Duration":141083,"SoundDuration":141083,"Delta":330631149},{"NoteNumber":75,"Velocity":66,"Duration":141083,"SoundDuration":141083,"Delta":330631149},{"NoteNumber":77,"Velocity":66,"Duration":141083,"SoundDuration":141083,"Delta":330631149},{"NoteNumber":81,"Velocity":79,"Duration":141083,"SoundDuration":141083,"Delta":330631149},{"NoteNumber":46,"Velocity":60,"Duration":1706464,"SoundDuration":1706464,"Delta":330924024},{"NoteNumber":58,"Velocity":70,"Duration":1706464,"SoundDuration":1706464,"Delta":330924024},{"NoteNumber":75,"Velocity":69,"Duration":283500,"SoundDuration":283500,"Delta":331212986},{"NoteNumber":70,"Velocity":69,"Duration":283500,"SoundDuration":283500,"Delta":331212986},{"NoteNumber":77,"Velocity":69,"Duration":283500,"SoundDuration":283500,"Delta":331212986},{"NoteNumber":82,"Velocity":81,"Duration":283500,"SoundDuration":283500,"Delta":331212986},{"NoteNumber":74,"Velocity":67,"Duration":283500,"SoundDuration":283500,"Delta":331496486},{"NoteNumber":70,"Velocity":67,"Duration":283500,"SoundDuration":283500,"Delta":331496486},{"NoteNumber":77,"Velocity":67,"Duration":283500,"SoundDuration":283500,"Delta":331496486},{"NoteNumber":82,"Velocity":80,"Duration":283500,"SoundDuration":283500,"Delta":331496486},{"NoteNumber":70,"Velocity":65,"Duration":283500,"SoundDuration":283500,"Delta":331779987},{"NoteNumber":74,"Velocity":65,"Duration":283500,"SoundDuration":283500,"Delta":331779987},{"NoteNumber":77,"Velocity":78,"Duration":283500,"SoundDuration":283500,"Delta":331779987},{"NoteNumber":65,"Velocity":54,"Duration":283500,"SoundDuration":283500,"Delta":332063487},{"NoteNumber":70,"Velocity":54,"Duration":283500,"SoundDuration":283500,"Delta":332063487},{"NoteNumber":74,"Velocity":64,"Duration":283500,"SoundDuration":283500,"Delta":332063487},{"NoteNumber":62,"Velocity":53,"Duration":283500,"SoundDuration":283500,"Delta":332346988},{"NoteNumber":65,"Velocity":53,"Duration":283500,"SoundDuration":283500,"Delta":332346988},{"NoteNumber":70,"Velocity":63,"Duration":283500,"SoundDuration":283500,"Delta":332346988},{"NoteNumber":58,"Velocity":46,"Duration":425250,"SoundDuration":425250,"Delta":332630488},{"NoteNumber":70,"Velocity":55,"Duration":425250,"SoundDuration":425250,"Delta":332630488},{"NoteNumber":62,"Velocity":46,"Duration":150270,"SoundDuration":150270,"Delta":333055739},{"NoteNumber":74,"Velocity":55,"Duration":150270,"SoundDuration":150270,"Delta":333055739},{"NoteNumber":65,"Velocity":41,"Duration":421269,"SoundDuration":421269,"Delta":333206009},{"NoteNumber":77,"Velocity":55,"Duration":421269,"SoundDuration":421269,"Delta":333206009},{"NoteNumber":46,"Velocity":44,"Duration":140423,"SoundDuration":140423,"Delta":333206009},{"NoteNumber":50,"Velocity":36,"Duration":140423,"SoundDuration":140423,"Delta":333346433},{"NoteNumber":53,"Velocity":36,"Duration":140423,"SoundDuration":140423,"Delta":333486856},{"NoteNumber":50,"Velocity":36,"Duration":140423,"SoundDuration":140423,"Delta":333627279},{"NoteNumber":65,"Velocity":44,"Duration":545210,"SoundDuration":545210,"Delta":333767702},{"NoteNumber":77,"Velocity":54,"Duration":545210,"SoundDuration":545210,"Delta":333767702},{"NoteNumber":46,"Velocity":45,"Duration":136587,"SoundDuration":136587,"Delta":333767702},{"NoteNumber":50,"Velocity":38,"Duration":136587,"SoundDuration":136587,"Delta":333904290},{"NoteNumber":53,"Velocity":38,"Duration":136587,"SoundDuration":136587,"Delta":334040877},{"NoteNumber":50,"Velocity":46,"Duration":136587,"SoundDuration":136587,"Delta":334177464},{"NoteNumber":66,"Velocity":53,"Duration":544763,"SoundDuration":544763,"Delta":334314051},{"NoteNumber":78,"Velocity":63,"Duration":544763,"SoundDuration":544763,"Delta":334314051},{"NoteNumber":45,"Velocity":54,"Duration":136475,"SoundDuration":136475,"Delta":334314051},{"NoteNumber":48,"Velocity":45,"Duration":136475,"SoundDuration":136475,"Delta":334450527},{"NoteNumber":50,"Velocity":45,"Duration":136475,"SoundDuration":136475,"Delta":334587002},{"NoteNumber":48,"Velocity":48,"Duration":136475,"SoundDuration":136475,"Delta":334723477},{"NoteNumber":67,"Velocity":57,"Duration":550523,"SoundDuration":550523,"Delta":334859952},{"NoteNumber":79,"Velocity":68,"Duration":550523,"SoundDuration":550523,"Delta":334859952},{"NoteNumber":43,"Velocity":57,"Duration":137918,"SoundDuration":137918,"Delta":334859952},{"NoteNumber":48,"Velocity":49,"Duration":137918,"SoundDuration":137918,"Delta":334997871},{"NoteNumber":50,"Velocity":46,"Duration":137918,"SoundDuration":137918,"Delta":335135789},{"NoteNumber":48,"Velocity":46,"Duration":137918,"SoundDuration":137918,"Delta":335273707},{"NoteNumber":69,"Velocity":58,"Duration":545210,"SoundDuration":545210,"Delta":335411625},{"NoteNumber":81,"Velocity":71,"Duration":545210,"SoundDuration":545210,"Delta":335411625},{"NoteNumber":42,"Velocity":66,"Duration":136587,"SoundDuration":136587,"Delta":335411625},{"NoteNumber":48,"Velocity":50,"Duration":136587,"SoundDuration":136587,"Delta":335548213},{"NoteNumber":50,"Velocity":54,"Duration":136587,"SoundDuration":136587,"Delta":335684800},{"NoteNumber":48,"Velocity":54,"Duration":136587,"SoundDuration":136587,"Delta":335821387},{"NoteNumber":72,"Velocity":60,"Duration":544763,"SoundDuration":544763,"Delta":335957974},{"NoteNumber":84,"Velocity":72,"Duration":544763,"SoundDuration":544763,"Delta":335957974},{"NoteNumber":42,"Velocity":62,"Duration":136475,"SoundDuration":136475,"Delta":335957974},{"NoteNumber":45,"Velocity":49,"Duration":136475,"SoundDuration":136475,"Delta":336094450},{"NoteNumber":50,"Velocity":49,"Duration":136475,"SoundDuration":136475,"Delta":336230925},{"NoteNumber":45,"Velocity":49,"Duration":136475,"SoundDuration":136475,"Delta":336367400},{"NoteNumber":70,"Velocity":58,"Duration":550523,"SoundDuration":550523,"Delta":336503875},{"NoteNumber":82,"Velocity":70,"Duration":550523,"SoundDuration":550523,"Delta":336503875},{"NoteNumber":43,"Velocity":58,"Duration":137918,"SoundDuration":137918,"Delta":336503875},{"NoteNumber":46,"Velocity":44,"Duration":137918,"SoundDuration":137918,"Delta":336641794},{"NoteNumber":50,"Velocity":44,"Duration":137918,"SoundDuration":137918,"Delta":336779712},{"NoteNumber":46,"Velocity":44,"Duration":137918,"SoundDuration":137918,"Delta":336917630},{"NoteNumber":69,"Velocity":49,"Duration":413754,"SoundDuration":413754,"Delta":337055548},{"NoteNumber":81,"Velocity":58,"Duration":413754,"SoundDuration":413754,"Delta":337055548},{"NoteNumber":48,"Velocity":48,"Duration":137918,"SoundDuration":137918,"Delta":337055548},{"NoteNumber":51,"Velocity":35,"Duration":137918,"SoundDuration":137918,"Delta":337193467},{"NoteNumber":57,"Velocity":35,"Duration":137918,"SoundDuration":137918,"Delta":337331385},{"NoteNumber":67,"Velocity":42,"Duration":145179,"SoundDuration":145179,"Delta":337469303},{"NoteNumber":79,"Velocity":51,"Duration":145179,"SoundDuration":145179,"Delta":337469303},{"NoteNumber":51,"Velocity":36,"Duration":145179,"SoundDuration":145179,"Delta":337469303},{"NoteNumber":66,"Velocity":49,"Duration":567001,"SoundDuration":567001,"Delta":337614483},{"NoteNumber":78,"Velocity":58,"Duration":567001,"SoundDuration":567001,"Delta":337614483},{"NoteNumber":50,"Velocity":50,"Duration":141750,"SoundDuration":141750,"Delta":337614483},{"NoteNumber":57,"Velocity":39,"Duration":141750,"SoundDuration":141750,"Delta":337756233},{"NoteNumber":60,"Velocity":39,"Duration":141750,"SoundDuration":141750,"Delta":337897984},{"NoteNumber":57,"Velocity":39,"Duration":141750,"SoundDuration":141750,"Delta":338039734},{"NoteNumber":66,"Velocity":46,"Duration":556483,"SoundDuration":556483,"Delta":338181484},{"NoteNumber":78,"Velocity":55,"Duration":556483,"SoundDuration":556483,"Delta":338181484},{"NoteNumber":50,"Velocity":47,"Duration":139120,"SoundDuration":139120,"Delta":338181484},{"NoteNumber":57,"Velocity":39,"Duration":139120,"SoundDuration":139120,"Delta":338320605},{"NoteNumber":60,"Velocity":39,"Duration":139120,"SoundDuration":139120,"Delta":338459726},{"NoteNumber":57,"Velocity":39,"Duration":139120,"SoundDuration":139120,"Delta":338598846},{"NoteNumber":67,"Velocity":45,"Duration":273174,"SoundDuration":273174,"Delta":338737967},{"NoteNumber":79,"Velocity":53,"Duration":273174,"SoundDuration":273174,"Delta":338737967},{"NoteNumber":50,"Velocity":47,"Duration":136587,"SoundDuration":136587,"Delta":338737967},{"NoteNumber":57,"Velocity":40,"Duration":136587,"SoundDuration":136587,"Delta":338874554},{"NoteNumber":66,"Velocity":37,"Duration":273174,"SoundDuration":273174,"Delta":339011142},{"NoteNumber":78,"Velocity":45,"Duration":273174,"SoundDuration":273174,"Delta":339011142},{"NoteNumber":60,"Velocity":40,"Duration":136587,"SoundDuration":136587,"Delta":339011142},{"NoteNumber":57,"Velocity":40,"Duration":136587,"SoundDuration":136587,"Delta":339147729},{"NoteNumber":64,"Velocity":38,"Duration":282167,"SoundDuration":282167,"Delta":339284316},{"NoteNumber":76,"Velocity":46,"Duration":282167,"SoundDuration":282167,"Delta":339284316},{"NoteNumber":50,"Velocity":44,"Duration":141083,"SoundDuration":141083,"Delta":339284316},{"NoteNumber":57,"Velocity":36,"Duration":141083,"SoundDuration":141083,"Delta":339425400},{"NoteNumber":66,"Velocity":37,"Duration":294426,"SoundDuration":294426,"Delta":339566483},{"NoteNumber":78,"Velocity":45,"Duration":294426,"SoundDuration":294426,"Delta":339566483},{"NoteNumber":60,"Velocity":36,"Duration":141083,"SoundDuration":141083,"Delta":339566483},{"NoteNumber":57,"Velocity":36,"Duration":153342,"SoundDuration":153342,"Delta":339707567},{"NoteNumber":67,"Velocity":40,"Duration":1142256,"SoundDuration":1142256,"Delta":339860909},{"NoteNumber":79,"Velocity":48,"Duration":1142256,"SoundDuration":1142256,"Delta":339860909},{"NoteNumber":43,"Velocity":33,"Duration":144480,"SoundDuration":144480,"Delta":339860909},{"NoteNumber":50,"Velocity":19,"Duration":144480,"SoundDuration":144480,"Delta":340053550},{"NoteNumber":55,"Velocity":19,"Duration":144480,"SoundDuration":144480,"Delta":340053550},{"NoteNumber":59,"Velocity":23,"Duration":144480,"SoundDuration":144480,"Delta":340053550},{"NoteNumber":50,"Velocity":19,"Duration":144480,"SoundDuration":144480,"Delta":340246191},{"NoteNumber":55,"Velocity":19,"Duration":144480,"SoundDuration":144480,"Delta":340246191},{"NoteNumber":59,"Velocity":23,"Duration":144480,"SoundDuration":144480,"Delta":340246191},{"NoteNumber":50,"Velocity":21,"Duration":141083,"SoundDuration":141083,"Delta":340438832},{"NoteNumber":55,"Velocity":21,"Duration":141083,"SoundDuration":141083,"Delta":340438832},{"NoteNumber":59,"Velocity":25,"Duration":141083,"SoundDuration":141083,"Delta":340438832},{"NoteNumber":50,"Velocity":21,"Duration":141083,"SoundDuration":141083,"Delta":340626944},{"NoteNumber":59,"Velocity":25,"Duration":141083,"SoundDuration":141083,"Delta":340626944},{"NoteNumber":55,"Velocity":21,"Duration":141083,"SoundDuration":141083,"Delta":340626944},{"NoteNumber":59,"Velocity":25,"Duration":141083,"SoundDuration":141083,"Delta":340815055},{"NoteNumber":55,"Velocity":21,"Duration":141083,"SoundDuration":141083,"Delta":340815055},{"NoteNumber":50,"Velocity":21,"Duration":141083,"SoundDuration":141083,"Delta":340815055},{"NoteNumber":72,"Velocity":53,"Duration":286833,"SoundDuration":286833,"Delta":341003166},{"NoteNumber":59,"Velocity":32,"Duration":136587,"SoundDuration":136587,"Delta":341003166},{"NoteNumber":50,"Velocity":27,"Duration":136587,"SoundDuration":136587,"Delta":341003166},{"NoteNumber":55,"Velocity":27,"Duration":136587,"SoundDuration":136587,"Delta":341003166},{"NoteNumber":59,"Velocity":24,"Duration":136587,"SoundDuration":136587,"Delta":341185283},{"NoteNumber":50,"Velocity":20,"Duration":136587,"SoundDuration":136587,"Delta":341185283},{"NoteNumber":55,"Velocity":20,"Duration":136587,"SoundDuration":136587,"Delta":341185283},{"NoteNumber":71,"Velocity":53,"Duration":287151,"SoundDuration":287151,"Delta":341276341},{"NoteNumber":50,"Velocity":21,"Duration":136587,"SoundDuration":136587,"Delta":341367399},{"NoteNumber":59,"Velocity":25,"Duration":136587,"SoundDuration":136587,"Delta":341367399},{"NoteNumber":55,"Velocity":21,"Duration":136587,"SoundDuration":136587,"Delta":341367399},{"NoteNumber":70,"Velocity":53,"Duration":293514,"SoundDuration":293514,"Delta":341549515},{"NoteNumber":59,"Velocity":33,"Duration":139769,"SoundDuration":139769,"Delta":341549515},{"NoteNumber":55,"Velocity":28,"Duration":139769,"SoundDuration":139769,"Delta":341549515},{"NoteNumber":50,"Velocity":28,"Duration":139769,"SoundDuration":139769,"Delta":341549515},{"NoteNumber":55,"Velocity":21,"Duration":139769,"SoundDuration":139769,"Delta":341735874},{"NoteNumber":59,"Velocity":25,"Duration":139769,"SoundDuration":139769,"Delta":341735874},{"NoteNumber":50,"Velocity":21,"Duration":139769,"SoundDuration":139769,"Delta":341735874},{"NoteNumber":71,"Velocity":53,"Duration":266543,"SoundDuration":266543,"Delta":341829053},{"NoteNumber":59,"Velocity":25,"Duration":131106,"SoundDuration":131106,"Delta":341922233},{"NoteNumber":55,"Velocity":21,"Duration":131106,"SoundDuration":131106,"Delta":341922233},{"NoteNumber":50,"Velocity":21,"Duration":131106,"SoundDuration":131106,"Delta":341922233},{"NoteNumber":71,"Velocity":48,"Duration":133547,"SoundDuration":133547,"Delta":342095597},{"NoteNumber":36,"Velocity":33,"Duration":133547,"SoundDuration":133547,"Delta":342095597},{"NoteNumber":76,"Velocity":48,"Duration":991602,"SoundDuration":991602,"Delta":342229144},{"NoteNumber":52,"Velocity":19,"Duration":142422,"SoundDuration":142422,"Delta":342276619},{"NoteNumber":59,"Velocity":23,"Duration":142422,"SoundDuration":142422,"Delta":342276619},{"NoteNumber":48,"Velocity":19,"Duration":142422,"SoundDuration":142422,"Delta":342276619},{"NoteNumber":59,"Velocity":23,"Duration":142423,"SoundDuration":142423,"Delta":342466516},{"NoteNumber":52,"Velocity":19,"Duration":142423,"SoundDuration":142423,"Delta":342466516},{"NoteNumber":48,"Velocity":19,"Duration":142423,"SoundDuration":142423,"Delta":342466516},{"NoteNumber":56,"Velocity":30,"Duration":141083,"SoundDuration":141083,"Delta":342656413},{"NoteNumber":48,"Velocity":25,"Duration":141083,"SoundDuration":141083,"Delta":342656413},{"NoteNumber":52,"Velocity":25,"Duration":141083,"SoundDuration":141083,"Delta":342656413},{"NoteNumber":52,"Velocity":21,"Duration":141083,"SoundDuration":141083,"Delta":342844525},{"NoteNumber":48,"Velocity":21,"Duration":141083,"SoundDuration":141083,"Delta":342844525},{"NoteNumber":56,"Velocity":25,"Duration":141083,"SoundDuration":141083,"Delta":342844525},{"NoteNumber":48,"Velocity":21,"Duration":141083,"SoundDuration":141083,"Delta":343032636},{"NoteNumber":56,"Velocity":25,"Duration":141083,"SoundDuration":141083,"Delta":343032636},{"NoteNumber":52,"Velocity":21,"Duration":141083,"SoundDuration":141083,"Delta":343032636},{"NoteNumber":71,"Velocity":53,"Duration":286833,"SoundDuration":286833,"Delta":343220747},{"NoteNumber":48,"Velocity":27,"Duration":136587,"SoundDuration":136587,"Delta":343220747},{"NoteNumber":57,"Velocity":32,"Duration":136587,"SoundDuration":136587,"Delta":343220747},{"NoteNumber":52,"Velocity":27,"Duration":136587,"SoundDuration":136587,"Delta":343220747},{"NoteNumber":48,"Velocity":20,"Duration":136587,"SoundDuration":136587,"Delta":343402864},{"NoteNumber":52,"Velocity":20,"Duration":136587,"SoundDuration":136587,"Delta":343402864},{"NoteNumber":57,"Velocity":24,"Duration":136587,"SoundDuration":136587,"Delta":343402864},{"NoteNumber":69,"Velocity":53,"Duration":287151,"SoundDuration":287151,"Delta":343493922},{"NoteNumber":57,"Velocity":25,"Duration":136587,"SoundDuration":136587,"Delta":343584980},{"NoteNumber":48,"Velocity":21,"Duration":136587,"SoundDuration":136587,"Delta":343584980},{"NoteNumber":52,"Velocity":21,"Duration":136587,"SoundDuration":136587,"Delta":343584980},{"NoteNumber":68,"Velocity":53,"Duration":293514,"SoundDuration":293514,"Delta":343767096},{"NoteNumber":48,"Velocity":28,"Duration":139769,"SoundDuration":139769,"Delta":343767096},{"NoteNumber":57,"Velocity":33,"Duration":139769,"SoundDuration":139769,"Delta":343767096},{"NoteNumber":52,"Velocity":28,"Duration":139769,"SoundDuration":139769,"Delta":343767096},{"NoteNumber":48,"Velocity":21,"Duration":139769,"SoundDuration":139769,"Delta":343953455},{"NoteNumber":52,"Velocity":21,"Duration":139769,"SoundDuration":139769,"Delta":343953455},{"NoteNumber":57,"Velocity":25,"Duration":139769,"SoundDuration":139769,"Delta":343953455},{"NoteNumber":69,"Velocity":53,"Duration":268723,"SoundDuration":268723,"Delta":344046634},{"NoteNumber":52,"Velocity":21,"Duration":132559,"SoundDuration":132559,"Delta":344139814},{"NoteNumber":48,"Velocity":21,"Duration":132559,"SoundDuration":132559,"Delta":344139814},{"NoteNumber":57,"Velocity":25,"Duration":132559,"SoundDuration":132559,"Delta":344139814},{"NoteNumber":69,"Velocity":48,"Duration":130639,"SoundDuration":130639,"Delta":344315358},{"NoteNumber":35,"Velocity":33,"Duration":130639,"SoundDuration":130639,"Delta":344315358},{"NoteNumber":74,"Velocity":48,"Duration":997776,"SoundDuration":997776,"Delta":344445997},{"NoteNumber":47,"Velocity":19,"Duration":144480,"SoundDuration":144480,"Delta":344494157},{"NoteNumber":50,"Velocity":19,"Duration":144480,"SoundDuration":144480,"Delta":344494157},{"NoteNumber":57,"Velocity":23,"Duration":144480,"SoundDuration":144480,"Delta":344494157},{"NoteNumber":50,"Velocity":19,"Duration":144480,"SoundDuration":144480,"Delta":344686798},{"NoteNumber":47,"Velocity":19,"Duration":144480,"SoundDuration":144480,"Delta":344686798},{"NoteNumber":57,"Velocity":23,"Duration":144480,"SoundDuration":144480,"Delta":344686798},{"NoteNumber":47,"Velocity":25,"Duration":141083,"SoundDuration":141083,"Delta":344879439},{"NoteNumber":54,"Velocity":30,"Duration":141083,"SoundDuration":141083,"Delta":344879439},{"NoteNumber":50,"Velocity":25,"Duration":141083,"SoundDuration":141083,"Delta":344879439},{"NoteNumber":54,"Velocity":25,"Duration":141083,"SoundDuration":141083,"Delta":345067551},{"NoteNumber":50,"Velocity":21,"Duration":141083,"SoundDuration":141083,"Delta":345067551},{"NoteNumber":47,"Velocity":21,"Duration":141083,"SoundDuration":141083,"Delta":345067551},{"NoteNumber":47,"Velocity":21,"Duration":141083,"SoundDuration":141083,"Delta":345255662},{"NoteNumber":50,"Velocity":21,"Duration":141083,"SoundDuration":141083,"Delta":345255662},{"NoteNumber":54,"Velocity":25,"Duration":141083,"SoundDuration":141083,"Delta":345255662},{"NoteNumber":72,"Velocity":58,"Duration":286833,"SoundDuration":286833,"Delta":345443773},{"NoteNumber":55,"Velocity":35,"Duration":136587,"SoundDuration":136587,"Delta":345443773},{"NoteNumber":50,"Velocity":29,"Duration":136587,"SoundDuration":136587,"Delta":345443773},{"NoteNumber":47,"Velocity":29,"Duration":136587,"SoundDuration":136587,"Delta":345443773},{"NoteNumber":50,"Velocity":22,"Duration":136587,"SoundDuration":136587,"Delta":345625890},{"NoteNumber":47,"Velocity":22,"Duration":136587,"SoundDuration":136587,"Delta":345625890},{"NoteNumber":55,"Velocity":27,"Duration":136587,"SoundDuration":136587,"Delta":345625890},{"NoteNumber":71,"Velocity":60,"Duration":287151,"SoundDuration":287151,"Delta":345716948},{"NoteNumber":50,"Velocity":24,"Duration":136587,"SoundDuration":136587,"Delta":345808006},{"NoteNumber":55,"Velocity":29,"Duration":136587,"SoundDuration":136587,"Delta":345808006},{"NoteNumber":47,"Velocity":24,"Duration":136587,"SoundDuration":136587,"Delta":345808006},{"NoteNumber":69,"Velocity":63,"Duration":293514,"SoundDuration":293514,"Delta":345990122},{"NoteNumber":47,"Velocity":33,"Duration":139769,"SoundDuration":139769,"Delta":345990122},{"NoteNumber":55,"Velocity":39,"Duration":139769,"SoundDuration":139769,"Delta":345990122},{"NoteNumber":50,"Velocity":33,"Duration":139769,"SoundDuration":139769,"Delta":345990122},{"NoteNumber":47,"Velocity":25,"Duration":139769,"SoundDuration":139769,"Delta":346176481},{"NoteNumber":55,"Velocity":30,"Duration":139769,"SoundDuration":139769,"Delta":346176481},{"NoteNumber":50,"Velocity":25,"Duration":139769,"SoundDuration":139769,"Delta":346176481},{"NoteNumber":67,"Velocity":66,"Duration":294695,"SoundDuration":294695,"Delta":346269660},{"NoteNumber":50,"Velocity":26,"Duration":149874,"SoundDuration":149874,"Delta":346362840},{"NoteNumber":47,"Velocity":26,"Duration":149874,"SoundDuration":149874,"Delta":346362840},{"NoteNumber":55,"Velocity":31,"Duration":149874,"SoundDuration":149874,"Delta":346362840},{"NoteNumber":66,"Velocity":57,"Duration":268288,"SoundDuration":268288,"Delta":346564356},{"NoteNumber":74,"Velocity":68,"Duration":268288,"SoundDuration":268288,"Delta":346564356},{"NoteNumber":36,"Velocity":42,"Duration":134144,"SoundDuration":134144,"Delta":346564356},{"NoteNumber":52,"Velocity":30,"Duration":134144,"SoundDuration":134144,"Delta":346743215},{"NoteNumber":48,"Velocity":25,"Duration":134144,"SoundDuration":134144,"Delta":346743215},{"NoteNumber":64,"Velocity":56,"Duration":268288,"SoundDuration":268288,"Delta":346832644},{"NoteNumber":72,"Velocity":66,"Duration":268288,"SoundDuration":268288,"Delta":346832644},{"NoteNumber":52,"Velocity":31,"Duration":134144,"SoundDuration":134144,"Delta":346922074},{"NoteNumber":48,"Velocity":26,"Duration":134144,"SoundDuration":134144,"Delta":346922074},{"NoteNumber":62,"Velocity":53,"Duration":273174,"SoundDuration":273174,"Delta":347100933},{"NoteNumber":71,"Velocity":63,"Duration":273174,"SoundDuration":273174,"Delta":347100933},{"NoteNumber":48,"Velocity":33,"Duration":136587,"SoundDuration":136587,"Delta":347100933},{"NoteNumber":52,"Velocity":39,"Duration":136587,"SoundDuration":136587,"Delta":347100933},{"NoteNumber":48,"Velocity":24,"Duration":136587,"SoundDuration":136587,"Delta":347283049},{"NoteNumber":52,"Velocity":29,"Duration":136587,"SoundDuration":136587,"Delta":347283049},{"NoteNumber":60,"Velocity":51,"Duration":291514,"SoundDuration":291514,"Delta":347374107},{"NoteNumber":69,"Velocity":60,"Duration":291514,"SoundDuration":291514,"Delta":347374107},{"NoteNumber":52,"Velocity":28,"Duration":148813,"SoundDuration":148813,"Delta":347465166},{"NoteNumber":48,"Velocity":23,"Duration":148813,"SoundDuration":148813,"Delta":347465166},{"NoteNumber":59,"Velocity":49,"Duration":573124,"SoundDuration":573124,"Delta":347665621},{"NoteNumber":67,"Velocity":58,"Duration":573124,"SoundDuration":573124,"Delta":347665621},{"NoteNumber":38,"Velocity":36,"Duration":136587,"SoundDuration":136587,"Delta":347665621},{"NoteNumber":50,"Velocity":21,"Duration":136587,"SoundDuration":136587,"Delta":347847738},{"NoteNumber":55,"Velocity":26,"Duration":136587,"SoundDuration":136587,"Delta":347847738},{"NoteNumber":55,"Velocity":26,"Duration":154437,"SoundDuration":154437,"Delta":348029854},{"NoteNumber":50,"Velocity":22,"Duration":154437,"SoundDuration":154437,"Delta":348029854},{"NoteNumber":62,"Velocity":55,"Duration":419307,"SoundDuration":419307,"Delta":348238746},{"NoteNumber":71,"Velocity":55,"Duration":419307,"SoundDuration":419307,"Delta":348238746},{"NoteNumber":38,"Velocity":34,"Duration":139769,"SoundDuration":139769,"Delta":348238746},{"NoteNumber":50,"Velocity":21,"Duration":139769,"SoundDuration":139769,"Delta":348425105},{"NoteNumber":54,"Velocity":26,"Duration":139769,"SoundDuration":139769,"Delta":348425105},{"NoteNumber":50,"Velocity":21,"Duration":149874,"SoundDuration":149874,"Delta":348611464},{"NoteNumber":54,"Velocity":25,"Duration":149874,"SoundDuration":149874,"Delta":348611464},{"NoteNumber":60,"Velocity":54,"Duration":154926,"SoundDuration":154926,"Delta":348658053},{"NoteNumber":69,"Velocity":54,"Duration":154926,"SoundDuration":154926,"Delta":348658053},{"NoteNumber":59,"Velocity":40,"Duration":337121,"SoundDuration":337121,"Delta":348812980},{"NoteNumber":67,"Velocity":48,"Duration":577922,"SoundDuration":577922,"Delta":348812980},{"NoteNumber":43,"Velocity":33,"Duration":144480,"SoundDuration":144480,"Delta":348812980},{"NoteNumber":59,"Velocity":23,"Duration":337121,"SoundDuration":337121,"Delta":349005621},{"NoteNumber":50,"Velocity":19,"Duration":144480,"SoundDuration":144480,"Delta":349005621},{"NoteNumber":55,"Velocity":19,"Duration":144480,"SoundDuration":144480,"Delta":349005621},{"NoteNumber":55,"Velocity":19,"Duration":144480,"SoundDuration":144480,"Delta":349198262},{"NoteNumber":59,"Velocity":23,"Duration":192640,"SoundDuration":192640,"Delta":349198262},{"NoteNumber":50,"Velocity":19,"Duration":144480,"SoundDuration":144480,"Delta":349198262},{"NoteNumber":59,"Velocity":25,"Duration":141083,"SoundDuration":141083,"Delta":349390903},{"NoteNumber":50,"Velocity":21,"Duration":141083,"SoundDuration":141083,"Delta":349390903},{"NoteNumber":55,"Velocity":21,"Duration":141083,"SoundDuration":141083,"Delta":349390903},{"NoteNumber":59,"Velocity":25,"Duration":141083,"SoundDuration":141083,"Delta":349579014},{"NoteNumber":55,"Velocity":21,"Duration":141083,"SoundDuration":141083,"Delta":349579014},{"NoteNumber":50,"Velocity":21,"Duration":141083,"SoundDuration":141083,"Delta":349579014},{"NoteNumber":59,"Velocity":25,"Duration":141083,"SoundDuration":141083,"Delta":349767126},{"NoteNumber":50,"Velocity":21,"Duration":141083,"SoundDuration":141083,"Delta":349767126},{"NoteNumber":55,"Velocity":21,"Duration":141083,"SoundDuration":141083,"Delta":349767126},{"NoteNumber":72,"Velocity":53,"Duration":286833,"SoundDuration":286833,"Delta":349955237},{"NoteNumber":59,"Velocity":32,"Duration":136587,"SoundDuration":136587,"Delta":349955237},{"NoteNumber":50,"Velocity":27,"Duration":136587,"SoundDuration":136587,"Delta":349955237},{"NoteNumber":55,"Velocity":27,"Duration":136587,"SoundDuration":136587,"Delta":349955237},{"NoteNumber":55,"Velocity":20,"Duration":136587,"SoundDuration":136587,"Delta":350137353},{"NoteNumber":59,"Velocity":24,"Duration":136587,"SoundDuration":136587,"Delta":350137353},{"NoteNumber":50,"Velocity":20,"Duration":136587,"SoundDuration":136587,"Delta":350137353},{"NoteNumber":71,"Velocity":53,"Duration":287151,"SoundDuration":287151,"Delta":350228411},{"NoteNumber":50,"Velocity":21,"Duration":136587,"SoundDuration":136587,"Delta":350319470},{"NoteNumber":55,"Velocity":21,"Duration":136587,"SoundDuration":136587,"Delta":350319470},{"NoteNumber":59,"Velocity":25,"Duration":136587,"SoundDuration":136587,"Delta":350319470},{"NoteNumber":70,"Velocity":53,"Duration":293514,"SoundDuration":293514,"Delta":350501586},{"NoteNumber":59,"Velocity":33,"Duration":139769,"SoundDuration":139769,"Delta":350501586},{"NoteNumber":55,"Velocity":28,"Duration":139769,"SoundDuration":139769,"Delta":350501586},{"NoteNumber":50,"Velocity":28,"Duration":139769,"SoundDuration":139769,"Delta":350501586},{"NoteNumber":50,"Velocity":21,"Duration":139769,"SoundDuration":139769,"Delta":350687945},{"NoteNumber":55,"Velocity":21,"Duration":139769,"SoundDuration":139769,"Delta":350687945},{"NoteNumber":59,"Velocity":25,"Duration":139769,"SoundDuration":139769,"Delta":350687945},{"NoteNumber":71,"Velocity":53,"Duration":289290,"SoundDuration":289290,"Delta":350781124},{"NoteNumber":50,"Velocity":21,"Duration":146270,"SoundDuration":146270,"Delta":350874303},{"NoteNumber":59,"Velocity":25,"Duration":146270,"SoundDuration":146270,"Delta":350874303},{"NoteNumber":55,"Velocity":21,"Duration":146270,"SoundDuration":146270,"Delta":350874303},{"NoteNumber":83,"Velocity":53,"Duration":297088,"SoundDuration":297088,"Delta":351070414},{"NoteNumber":76,"Velocity":48,"Duration":1132026,"SoundDuration":1132026,"Delta":351070414},{"NoteNumber":36,"Velocity":33,"Duration":140423,"SoundDuration":140423,"Delta":351070414},{"NoteNumber":48,"Velocity":19,"Duration":142422,"SoundDuration":142422,"Delta":351258312},{"NoteNumber":52,"Velocity":19,"Duration":142422,"SoundDuration":142422,"Delta":351258312},{"NoteNumber":59,"Velocity":23,"Duration":142422,"SoundDuration":142422,"Delta":351258312},{"NoteNumber":81,"Velocity":53,"Duration":298954,"SoundDuration":298954,"Delta":351353261},{"NoteNumber":59,"Velocity":23,"Duration":142423,"SoundDuration":142423,"Delta":351448209},{"NoteNumber":52,"Velocity":19,"Duration":142423,"SoundDuration":142423,"Delta":351448209},{"NoteNumber":48,"Velocity":19,"Duration":142423,"SoundDuration":142423,"Delta":351448209},{"NoteNumber":80,"Velocity":53,"Duration":296275,"SoundDuration":296275,"Delta":351638107},{"NoteNumber":48,"Velocity":25,"Duration":141083,"SoundDuration":141083,"Delta":351638107},{"NoteNumber":59,"Velocity":30,"Duration":141083,"SoundDuration":141083,"Delta":351638107},{"NoteNumber":52,"Velocity":25,"Duration":141083,"SoundDuration":141083,"Delta":351638107},{"NoteNumber":52,"Velocity":21,"Duration":141083,"SoundDuration":141083,"Delta":351826218},{"NoteNumber":59,"Velocity":25,"Duration":141083,"SoundDuration":141083,"Delta":351826218},{"NoteNumber":48,"Velocity":21,"Duration":141083,"SoundDuration":141083,"Delta":351826218},{"NoteNumber":81,"Velocity":53,"Duration":282166,"SoundDuration":282166,"Delta":351920274},{"NoteNumber":52,"Velocity":21,"Duration":141083,"SoundDuration":141083,"Delta":352014329},{"NoteNumber":48,"Velocity":21,"Duration":141083,"SoundDuration":141083,"Delta":352014329},{"NoteNumber":59,"Velocity":25,"Duration":141083,"SoundDuration":141083,"Delta":352014329},{"NoteNumber":71,"Velocity":53,"Duration":286833,"SoundDuration":286833,"Delta":352202441},{"NoteNumber":57,"Velocity":32,"Duration":136587,"SoundDuration":136587,"Delta":352202441},{"NoteNumber":52,"Velocity":27,"Duration":136587,"SoundDuration":136587,"Delta":352202441},{"NoteNumber":48,"Velocity":27,"Duration":136587,"SoundDuration":136587,"Delta":352202441},{"NoteNumber":52,"Velocity":20,"Duration":136587,"SoundDuration":136587,"Delta":352384557},{"NoteNumber":57,"Velocity":24,"Duration":136587,"SoundDuration":136587,"Delta":352384557},{"NoteNumber":48,"Velocity":20,"Duration":136587,"SoundDuration":136587,"Delta":352384557},{"NoteNumber":69,"Velocity":53,"Duration":287151,"SoundDuration":287151,"Delta":352475615},{"NoteNumber":52,"Velocity":21,"Duration":136587,"SoundDuration":136587,"Delta":352566673},{"NoteNumber":57,"Velocity":25,"Duration":136587,"SoundDuration":136587,"Delta":352566673},{"NoteNumber":48,"Velocity":21,"Duration":136587,"SoundDuration":136587,"Delta":352566673},{"NoteNumber":68,"Velocity":53,"Duration":293514,"SoundDuration":293514,"Delta":352748790},{"NoteNumber":52,"Velocity":28,"Duration":139769,"SoundDuration":139769,"Delta":352748790},{"NoteNumber":57,"Velocity":33,"Duration":139769,"SoundDuration":139769,"Delta":352748790},{"NoteNumber":48,"Velocity":28,"Duration":139769,"SoundDuration":139769,"Delta":352748790},{"NoteNumber":52,"Velocity":21,"Duration":139769,"SoundDuration":139769,"Delta":352935148},{"NoteNumber":48,"Velocity":21,"Duration":139769,"SoundDuration":139769,"Delta":352935148},{"NoteNumber":57,"Velocity":25,"Duration":139769,"SoundDuration":139769,"Delta":352935148},{"NoteNumber":69,"Velocity":53,"Duration":284249,"SoundDuration":284249,"Delta":353028328},{"NoteNumber":48,"Velocity":21,"Duration":142910,"SoundDuration":142910,"Delta":353121507},{"NoteNumber":57,"Velocity":25,"Duration":142910,"SoundDuration":142910,"Delta":353121507},{"NoteNumber":52,"Velocity":21,"Duration":142910,"SoundDuration":142910,"Delta":353121507},{"NoteNumber":81,"Velocity":58,"Duration":285564,"SoundDuration":285564,"Delta":353312577},{"NoteNumber":74,"Velocity":48,"Duration":1138859,"SoundDuration":1138859,"Delta":353312577},{"NoteNumber":35,"Velocity":33,"Duration":141083,"SoundDuration":141083,"Delta":353312577},{"NoteNumber":57,"Velocity":23,"Duration":144480,"SoundDuration":144480,"Delta":353501821},{"NoteNumber":50,"Velocity":19,"Duration":144480,"SoundDuration":144480,"Delta":353501821},{"NoteNumber":47,"Velocity":19,"Duration":144480,"SoundDuration":144480,"Delta":353501821},{"NoteNumber":79,"Velocity":60,"Duration":288961,"SoundDuration":288961,"Delta":353598142},{"NoteNumber":57,"Velocity":23,"Duration":144480,"SoundDuration":144480,"Delta":353694462},{"NoteNumber":47,"Velocity":19,"Duration":144480,"SoundDuration":144480,"Delta":353694462},{"NoteNumber":50,"Velocity":19,"Duration":144480,"SoundDuration":144480,"Delta":353694462},{"NoteNumber":78,"Velocity":63,"Duration":282167,"SoundDuration":282167,"Delta":353887103},{"NoteNumber":50,"Velocity":25,"Duration":141083,"SoundDuration":141083,"Delta":353887103},{"NoteNumber":57,"Velocity":30,"Duration":141083,"SoundDuration":141083,"Delta":353887103},{"NoteNumber":47,"Velocity":25,"Duration":141083,"SoundDuration":141083,"Delta":353887103},{"NoteNumber":50,"Velocity":21,"Duration":141083,"SoundDuration":141083,"Delta":354075215},{"NoteNumber":47,"Velocity":21,"Duration":141083,"SoundDuration":141083,"Delta":354075215},{"NoteNumber":57,"Velocity":25,"Duration":141083,"SoundDuration":141083,"Delta":354075215},{"NoteNumber":79,"Velocity":66,"Duration":282166,"SoundDuration":282166,"Delta":354169270},{"NoteNumber":57,"Velocity":25,"Duration":141083,"SoundDuration":141083,"Delta":354263326},{"NoteNumber":47,"Velocity":21,"Duration":141083,"SoundDuration":141083,"Delta":354263326},{"NoteNumber":50,"Velocity":21,"Duration":141083,"SoundDuration":141083,"Delta":354263326},{"NoteNumber":72,"Velocity":58,"Duration":286833,"SoundDuration":286833,"Delta":354451437},{"NoteNumber":50,"Velocity":29,"Duration":136587,"SoundDuration":136587,"Delta":354451437},{"NoteNumber":47,"Velocity":29,"Duration":136587,"SoundDuration":136587,"Delta":354451437},{"NoteNumber":55,"Velocity":35,"Duration":136587,"SoundDuration":136587,"Delta":354451437},{"NoteNumber":55,"Velocity":27,"Duration":136587,"SoundDuration":136587,"Delta":354633554},{"NoteNumber":47,"Velocity":22,"Duration":136587,"SoundDuration":136587,"Delta":354633554},{"NoteNumber":50,"Velocity":22,"Duration":136587,"SoundDuration":136587,"Delta":354633554},{"NoteNumber":71,"Velocity":60,"Duration":287151,"SoundDuration":287151,"Delta":354724612},{"NoteNumber":50,"Velocity":24,"Duration":136587,"SoundDuration":136587,"Delta":354815670},{"NoteNumber":47,"Velocity":24,"Duration":136587,"SoundDuration":136587,"Delta":354815670},{"NoteNumber":55,"Velocity":29,"Duration":136587,"SoundDuration":136587,"Delta":354815670},{"NoteNumber":69,"Velocity":63,"Duration":293514,"SoundDuration":293514,"Delta":354997786},{"NoteNumber":50,"Velocity":33,"Duration":139769,"SoundDuration":139769,"Delta":354997786},{"NoteNumber":55,"Velocity":39,"Duration":139769,"SoundDuration":139769,"Delta":354997786},{"NoteNumber":47,"Velocity":33,"Duration":139769,"SoundDuration":139769,"Delta":354997786},{"NoteNumber":50,"Velocity":25,"Duration":139769,"SoundDuration":139769,"Delta":355184145},{"NoteNumber":47,"Velocity":25,"Duration":139769,"SoundDuration":139769,"Delta":355184145},{"NoteNumber":55,"Velocity":30,"Duration":139769,"SoundDuration":139769,"Delta":355184145},{"NoteNumber":67,"Velocity":66,"Duration":294695,"SoundDuration":294695,"Delta":355277324},{"NoteNumber":50,"Velocity":26,"Duration":149874,"SoundDuration":149874,"Delta":355370504},{"NoteNumber":55,"Velocity":31,"Duration":149874,"SoundDuration":149874,"Delta":355370504},{"NoteNumber":47,"Velocity":26,"Duration":149874,"SoundDuration":149874,"Delta":355370504},{"NoteNumber":74,"Velocity":57,"Duration":268288,"SoundDuration":268288,"Delta":355572020},{"NoteNumber":66,"Velocity":57,"Duration":268288,"SoundDuration":268288,"Delta":355572020},{"NoteNumber":78,"Velocity":68,"Duration":268288,"SoundDuration":268288,"Delta":355572020},{"NoteNumber":36,"Velocity":42,"Duration":134144,"SoundDuration":134144,"Delta":355572020},{"NoteNumber":55,"Velocity":30,"Duration":134144,"SoundDuration":134144,"Delta":355750879},{"NoteNumber":48,"Velocity":25,"Duration":134144,"SoundDuration":134144,"Delta":355750879},{"NoteNumber":52,"Velocity":25,"Duration":134144,"SoundDuration":134144,"Delta":355750879},{"NoteNumber":72,"Velocity":56,"Duration":268288,"SoundDuration":268288,"Delta":355840308},{"NoteNumber":64,"Velocity":56,"Duration":268288,"SoundDuration":268288,"Delta":355840308},{"NoteNumber":76,"Velocity":66,"Duration":268288,"SoundDuration":268288,"Delta":355840308},{"NoteNumber":52,"Velocity":26,"Duration":134144,"SoundDuration":134144,"Delta":355929738},{"NoteNumber":55,"Velocity":31,"Duration":134144,"SoundDuration":134144,"Delta":355929738},{"NoteNumber":48,"Velocity":26,"Duration":134144,"SoundDuration":134144,"Delta":355929738},{"NoteNumber":71,"Velocity":53,"Duration":273174,"SoundDuration":273174,"Delta":356108597},{"NoteNumber":62,"Velocity":53,"Duration":273174,"SoundDuration":273174,"Delta":356108597},{"NoteNumber":74,"Velocity":63,"Duration":273174,"SoundDuration":273174,"Delta":356108597},{"NoteNumber":52,"Velocity":33,"Duration":136587,"SoundDuration":136587,"Delta":356108597},{"NoteNumber":56,"Velocity":39,"Duration":136587,"SoundDuration":136587,"Delta":356108597},{"NoteNumber":48,"Velocity":33,"Duration":136587,"SoundDuration":136587,"Delta":356108597},{"NoteNumber":52,"Velocity":24,"Duration":136587,"SoundDuration":136587,"Delta":356290713},{"NoteNumber":48,"Velocity":24,"Duration":136587,"SoundDuration":136587,"Delta":356290713},{"NoteNumber":56,"Velocity":29,"Duration":136587,"SoundDuration":136587,"Delta":356290713},{"NoteNumber":69,"Velocity":51,"Duration":291514,"SoundDuration":291514,"Delta":356381771},{"NoteNumber":60,"Velocity":51,"Duration":291514,"SoundDuration":291514,"Delta":356381771},{"NoteNumber":72,"Velocity":60,"Duration":291514,"SoundDuration":291514,"Delta":356381771},{"NoteNumber":57,"Velocity":28,"Duration":148813,"SoundDuration":148813,"Delta":356472830},{"NoteNumber":48,"Velocity":23,"Duration":148813,"SoundDuration":148813,"Delta":356472830},{"NoteNumber":52,"Velocity":23,"Duration":148813,"SoundDuration":148813,"Delta":356472830},{"NoteNumber":71,"Velocity":58,"Duration":573124,"SoundDuration":573124,"Delta":356673285},{"NoteNumber":59,"Velocity":49,"Duration":573124,"SoundDuration":573124,"Delta":356673285},{"NoteNumber":67,"Velocity":49,"Duration":573124,"SoundDuration":573124,"Delta":356673285},{"NoteNumber":38,"Velocity":36,"Duration":136587,"SoundDuration":136587,"Delta":356673285},{"NoteNumber":50,"Velocity":21,"Duration":136587,"SoundDuration":136587,"Delta":356855402},{"NoteNumber":55,"Velocity":26,"Duration":136587,"SoundDuration":136587,"Delta":356855402},{"NoteNumber":50,"Velocity":22,"Duration":154437,"SoundDuration":154437,"Delta":357037518},{"NoteNumber":55,"Velocity":26,"Duration":154437,"SoundDuration":154437,"Delta":357037518},{"NoteNumber":60,"Velocity":46,"Duration":574233,"SoundDuration":574233,"Delta":357246410},{"NoteNumber":66,"Velocity":46,"Duration":574233,"SoundDuration":574233,"Delta":357246410},{"NoteNumber":72,"Velocity":55,"Duration":419307,"SoundDuration":419307,"Delta":357246410},{"NoteNumber":38,"Velocity":34,"Duration":139769,"SoundDuration":139769,"Delta":357246410},{"NoteNumber":54,"Velocity":21,"Duration":139769,"SoundDuration":139769,"Delta":357432769},{"NoteNumber":57,"Velocity":26,"Duration":139769,"SoundDuration":139769,"Delta":357432769},{"NoteNumber":50,"Velocity":21,"Duration":139769,"SoundDuration":139769,"Delta":357432769},{"NoteNumber":54,"Velocity":21,"Duration":149874,"SoundDuration":149874,"Delta":357619128},{"NoteNumber":57,"Velocity":25,"Duration":149874,"SoundDuration":149874,"Delta":357619128},{"NoteNumber":50,"Velocity":21,"Duration":149874,"SoundDuration":149874,"Delta":357619128},{"NoteNumber":69,"Velocity":54,"Duration":154926,"SoundDuration":154926,"Delta":357665717},{"NoteNumber":67,"Velocity":39,"Duration":142179,"SoundDuration":142179,"Delta":357820644},{"NoteNumber":55,"Velocity":39,"Duration":142179,"SoundDuration":142179,"Delta":357820644},{"NoteNumber":43,"Velocity":48,"Duration":568719,"SoundDuration":568719,"Delta":357820644},{"NoteNumber":50,"Velocity":48,"Duration":568719,"SoundDuration":568719,"Delta":357820644},{"NoteNumber":55,"Velocity":48,"Duration":331753,"SoundDuration":331753,"Delta":357820644},{"NoteNumber":55,"Velocity":22,"Duration":331753,"SoundDuration":331753,"Delta":358010217},{"NoteNumber":67,"Velocity":27,"Duration":142179,"SoundDuration":142179,"Delta":358010217},{"NoteNumber":55,"Velocity":22,"Duration":189573,"SoundDuration":189573,"Delta":358199791},{"NoteNumber":67,"Velocity":27,"Duration":142179,"SoundDuration":142179,"Delta":358199791},{"NoteNumber":55,"Velocity":25,"Duration":142179,"SoundDuration":142179,"Delta":358389364},{"NoteNumber":67,"Velocity":30,"Duration":142179,"SoundDuration":142179,"Delta":358389364},{"NoteNumber":55,"Velocity":25,"Duration":142179,"SoundDuration":142179,"Delta":358578937},{"NoteNumber":67,"Velocity":30,"Duration":142179,"SoundDuration":142179,"Delta":358578937},{"NoteNumber":55,"Velocity":25,"Duration":142180,"SoundDuration":142180,"Delta":358768511},{"NoteNumber":67,"Velocity":30,"Duration":142180,"SoundDuration":142180,"Delta":358768511},{"NoteNumber":55,"Velocity":32,"Duration":142179,"SoundDuration":142179,"Delta":358958084},{"NoteNumber":67,"Velocity":38,"Duration":142179,"SoundDuration":142179,"Delta":358958084},{"NoteNumber":55,"Velocity":24,"Duration":142179,"SoundDuration":142179,"Delta":359147657},{"NoteNumber":67,"Velocity":28,"Duration":142179,"SoundDuration":142179,"Delta":359147657},{"NoteNumber":55,"Velocity":25,"Duration":142179,"SoundDuration":142179,"Delta":359337231},{"NoteNumber":67,"Velocity":30,"Duration":142179,"SoundDuration":142179,"Delta":359337231},{"NoteNumber":55,"Velocity":33,"Duration":137918,"SoundDuration":137918,"Delta":359526804},{"NoteNumber":67,"Velocity":39,"Duration":137918,"SoundDuration":137918,"Delta":359526804},{"NoteNumber":47,"Velocity":35,"Duration":413754,"SoundDuration":413754,"Delta":359526804},{"NoteNumber":55,"Velocity":25,"Duration":137918,"SoundDuration":137918,"Delta":359710695},{"NoteNumber":67,"Velocity":30,"Duration":137918,"SoundDuration":137918,"Delta":359710695},{"NoteNumber":55,"Velocity":25,"Duration":137918,"SoundDuration":137918,"Delta":359894586},{"NoteNumber":67,"Velocity":30,"Duration":137918,"SoundDuration":137918,"Delta":359894586},{"NoteNumber":48,"Velocity":30,"Duration":137918,"SoundDuration":137918,"Delta":359940559},{"NoteNumber":67,"Velocity":39,"Duration":141083,"SoundDuration":141083,"Delta":360078477},{"NoteNumber":55,"Velocity":39,"Duration":141083,"SoundDuration":141083,"Delta":360078477},{"NoteNumber":50,"Velocity":40,"Duration":397385,"SoundDuration":397385,"Delta":360078477},{"NoteNumber":55,"Velocity":22,"Duration":141083,"SoundDuration":141083,"Delta":360266588},{"NoteNumber":67,"Velocity":27,"Duration":141083,"SoundDuration":141083,"Delta":360266588},{"NoteNumber":55,"Velocity":22,"Duration":141083,"SoundDuration":141083,"Delta":360454700},{"NoteNumber":67,"Velocity":27,"Duration":141083,"SoundDuration":141083,"Delta":360454700},{"NoteNumber":55,"Velocity":25,"Duration":136587,"SoundDuration":136587,"Delta":360642811},{"NoteNumber":67,"Velocity":30,"Duration":136587,"SoundDuration":136587,"Delta":360642811},{"NoteNumber":50,"Velocity":33,"Duration":384720,"SoundDuration":384720,"Delta":360642811},{"NoteNumber":55,"Velocity":25,"Duration":136587,"SoundDuration":136587,"Delta":360824927},{"NoteNumber":67,"Velocity":30,"Duration":136587,"SoundDuration":136587,"Delta":360824927},{"NoteNumber":55,"Velocity":25,"Duration":136587,"SoundDuration":136587,"Delta":361007044},{"NoteNumber":67,"Velocity":30,"Duration":136587,"SoundDuration":136587,"Delta":361007044},{"NoteNumber":55,"Velocity":32,"Duration":136475,"SoundDuration":136475,"Delta":361189160},{"NoteNumber":67,"Velocity":38,"Duration":136475,"SoundDuration":136475,"Delta":361189160},{"NoteNumber":50,"Velocity":33,"Duration":384405,"SoundDuration":384405,"Delta":361189160},{"NoteNumber":55,"Velocity":24,"Duration":136475,"SoundDuration":136475,"Delta":361371127},{"NoteNumber":67,"Velocity":28,"Duration":136475,"SoundDuration":136475,"Delta":361371127},{"NoteNumber":55,"Velocity":25,"Duration":136475,"SoundDuration":136475,"Delta":361553094},{"NoteNumber":67,"Velocity":30,"Duration":136475,"SoundDuration":136475,"Delta":361553094},{"NoteNumber":55,"Velocity":33,"Duration":137918,"SoundDuration":137918,"Delta":361735061},{"NoteNumber":67,"Velocity":39,"Duration":137918,"SoundDuration":137918,"Delta":361735061},{"NoteNumber":48,"Velocity":36,"Duration":413754,"SoundDuration":413754,"Delta":361735061},{"NoteNumber":55,"Velocity":25,"Duration":137918,"SoundDuration":137918,"Delta":361918952},{"NoteNumber":67,"Velocity":30,"Duration":137918,"SoundDuration":137918,"Delta":361918952},{"NoteNumber":55,"Velocity":25,"Duration":137918,"SoundDuration":137918,"Delta":362102843},{"NoteNumber":67,"Velocity":30,"Duration":137918,"SoundDuration":137918,"Delta":362102843},{"NoteNumber":50,"Velocity":37,"Duration":137918,"SoundDuration":137918,"Delta":362148816},{"NoteNumber":67,"Velocity":39,"Duration":137918,"SoundDuration":137918,"Delta":362286734},{"NoteNumber":55,"Velocity":39,"Duration":137918,"SoundDuration":137918,"Delta":362286734},{"NoteNumber":51,"Velocity":42,"Duration":827509,"SoundDuration":827509,"Delta":362286734},{"NoteNumber":55,"Velocity":22,"Duration":137918,"SoundDuration":137918,"Delta":362470625},{"NoteNumber":67,"Velocity":27,"Duration":137918,"SoundDuration":137918,"Delta":362470625},{"NoteNumber":55,"Velocity":22,"Duration":137918,"SoundDuration":137918,"Delta":362654516},{"NoteNumber":67,"Velocity":27,"Duration":137918,"SoundDuration":137918,"Delta":362654516},{"NoteNumber":55,"Velocity":25,"Duration":137918,"SoundDuration":137918,"Delta":362838407},{"NoteNumber":67,"Velocity":30,"Duration":137918,"SoundDuration":137918,"Delta":362838407},{"NoteNumber":55,"Velocity":25,"Duration":137918,"SoundDuration":137918,"Delta":363022298},{"NoteNumber":67,"Velocity":30,"Duration":137918,"SoundDuration":137918,"Delta":363022298},{"NoteNumber":50,"Velocity":35,"Duration":275836,"SoundDuration":275836,"Delta":363114243},{"NoteNumber":55,"Velocity":25,"Duration":137918,"SoundDuration":137918,"Delta":363206189},{"NoteNumber":67,"Velocity":30,"Duration":137918,"SoundDuration":137918,"Delta":363206189},{"NoteNumber":55,"Velocity":32,"Duration":137918,"SoundDuration":137918,"Delta":363390080},{"NoteNumber":67,"Velocity":38,"Duration":137918,"SoundDuration":137918,"Delta":363390080},{"NoteNumber":48,"Velocity":31,"Duration":551672,"SoundDuration":551672,"Delta":363390080},{"NoteNumber":55,"Velocity":24,"Duration":137918,"SoundDuration":137918,"Delta":363573971},{"NoteNumber":67,"Velocity":28,"Duration":137918,"SoundDuration":137918,"Delta":363573971},{"NoteNumber":55,"Velocity":25,"Duration":137918,"SoundDuration":137918,"Delta":363757862},{"NoteNumber":67,"Velocity":30,"Duration":137918,"SoundDuration":137918,"Delta":363757862},{"NoteNumber":55,"Velocity":33,"Duration":135771,"SoundDuration":135771,"Delta":363941753},{"NoteNumber":67,"Velocity":39,"Duration":135771,"SoundDuration":135771,"Delta":363941753},{"NoteNumber":46,"Velocity":39,"Duration":407313,"SoundDuration":407313,"Delta":363941753},{"NoteNumber":55,"Velocity":25,"Duration":135771,"SoundDuration":135771,"Delta":364122781},{"NoteNumber":67,"Velocity":30,"Duration":135771,"SoundDuration":135771,"Delta":364122781},{"NoteNumber":53,"Velocity":25,"Duration":140196,"SoundDuration":140196,"Delta":364303810},{"NoteNumber":65,"Velocity":30,"Duration":140196,"SoundDuration":140196,"Delta":364303810},{"NoteNumber":44,"Velocity":33,"Duration":142409,"SoundDuration":142409,"Delta":364349067},{"NoteNumber":63,"Velocity":39,"Duration":137918,"SoundDuration":137918,"Delta":364491476},{"NoteNumber":60,"Velocity":39,"Duration":137918,"SoundDuration":137918,"Delta":364491476},{"NoteNumber":67,"Velocity":39,"Duration":137918,"SoundDuration":137918,"Delta":364491476},{"NoteNumber":55,"Velocity":39,"Duration":137918,"SoundDuration":137918,"Delta":364491476},{"NoteNumber":43,"Velocity":36,"Duration":551672,"SoundDuration":551672,"Delta":364491476},{"NoteNumber":63,"Velocity":22,"Duration":137918,"SoundDuration":137918,"Delta":364675367},{"NoteNumber":60,"Velocity":22,"Duration":137918,"SoundDuration":137918,"Delta":364675367},{"NoteNumber":55,"Velocity":22,"Duration":137918,"SoundDuration":137918,"Delta":364675367},{"NoteNumber":67,"Velocity":27,"Duration":137918,"SoundDuration":137918,"Delta":364675367},{"NoteNumber":63,"Velocity":22,"Duration":137918,"SoundDuration":137918,"Delta":364859258},{"NoteNumber":60,"Velocity":22,"Duration":137918,"SoundDuration":137918,"Delta":364859258},{"NoteNumber":55,"Velocity":22,"Duration":137918,"SoundDuration":137918,"Delta":364859258},{"NoteNumber":67,"Velocity":27,"Duration":137918,"SoundDuration":137918,"Delta":364859258},{"NoteNumber":63,"Velocity":22,"Duration":137918,"SoundDuration":137918,"Delta":365043149},{"NoteNumber":60,"Velocity":22,"Duration":137918,"SoundDuration":137918,"Delta":365043149},{"NoteNumber":55,"Velocity":25,"Duration":137918,"SoundDuration":137918,"Delta":365043149},{"NoteNumber":67,"Velocity":30,"Duration":137918,"SoundDuration":137918,"Delta":365043149},{"NoteNumber":43,"Velocity":36,"Duration":551672,"SoundDuration":551672,"Delta":365043149},{"NoteNumber":63,"Velocity":22,"Duration":137918,"SoundDuration":137918,"Delta":365227040},{"NoteNumber":60,"Velocity":22,"Duration":137918,"SoundDuration":137918,"Delta":365227040},{"NoteNumber":55,"Velocity":25,"Duration":137918,"SoundDuration":137918,"Delta":365227040},{"NoteNumber":67,"Velocity":30,"Duration":137918,"SoundDuration":137918,"Delta":365227040},{"NoteNumber":63,"Velocity":22,"Duration":137918,"SoundDuration":137918,"Delta":365410931},{"NoteNumber":60,"Velocity":22,"Duration":137918,"SoundDuration":137918,"Delta":365410931},{"NoteNumber":55,"Velocity":25,"Duration":137918,"SoundDuration":137918,"Delta":365410931},{"NoteNumber":67,"Velocity":30,"Duration":137918,"SoundDuration":137918,"Delta":365410931},{"NoteNumber":62,"Velocity":32,"Duration":137918,"SoundDuration":137918,"Delta":365594822},{"NoteNumber":59,"Velocity":32,"Duration":137918,"SoundDuration":137918,"Delta":365594822},{"NoteNumber":55,"Velocity":32,"Duration":137918,"SoundDuration":137918,"Delta":365594822},{"NoteNumber":67,"Velocity":38,"Duration":137918,"SoundDuration":137918,"Delta":365594822},{"NoteNumber":43,"Velocity":36,"Duration":551672,"SoundDuration":551672,"Delta":365594822},{"NoteNumber":62,"Velocity":32,"Duration":137918,"SoundDuration":137918,"Delta":365778713},{"NoteNumber":59,"Velocity":32,"Duration":137918,"SoundDuration":137918,"Delta":365778713},{"NoteNumber":55,"Velocity":24,"Duration":137918,"SoundDuration":137918,"Delta":365778713},{"NoteNumber":67,"Velocity":28,"Duration":137918,"SoundDuration":137918,"Delta":365778713},{"NoteNumber":62,"Velocity":32,"Duration":137918,"SoundDuration":137918,"Delta":365962604},{"NoteNumber":59,"Velocity":32,"Duration":137918,"SoundDuration":137918,"Delta":365962604},{"NoteNumber":55,"Velocity":25,"Duration":137918,"SoundDuration":137918,"Delta":365962604},{"NoteNumber":67,"Velocity":30,"Duration":137918,"SoundDuration":137918,"Delta":365962604},{"NoteNumber":62,"Velocity":33,"Duration":137918,"SoundDuration":137918,"Delta":366146495},{"NoteNumber":59,"Velocity":33,"Duration":137918,"SoundDuration":137918,"Delta":366146495},{"NoteNumber":55,"Velocity":33,"Duration":137918,"SoundDuration":137918,"Delta":366146495},{"NoteNumber":67,"Velocity":39,"Duration":137918,"SoundDuration":137918,"Delta":366146495},{"NoteNumber":43,"Velocity":36,"Duration":551672,"SoundDuration":551672,"Delta":366146495},{"NoteNumber":62,"Velocity":25,"Duration":137918,"SoundDuration":137918,"Delta":366330386},{"NoteNumber":59,"Velocity":25,"Duration":137918,"SoundDuration":137918,"Delta":366330386},{"NoteNumber":55,"Velocity":25,"Duration":137918,"SoundDuration":137918,"Delta":366330386},{"NoteNumber":67,"Velocity":30,"Duration":137918,"SoundDuration":137918,"Delta":366330386},{"NoteNumber":62,"Velocity":25,"Duration":137918,"SoundDuration":137918,"Delta":366514277},{"NoteNumber":59,"Velocity":25,"Duration":137918,"SoundDuration":137918,"Delta":366514277},{"NoteNumber":55,"Velocity":25,"Duration":137918,"SoundDuration":137918,"Delta":366514277},{"NoteNumber":67,"Velocity":30,"Duration":137918,"SoundDuration":137918,"Delta":366514277},{"NoteNumber":63,"Velocity":39,"Duration":142179,"SoundDuration":142179,"Delta":366698168},{"NoteNumber":60,"Velocity":39,"Duration":142179,"SoundDuration":142179,"Delta":366698168},{"NoteNumber":67,"Velocity":39,"Duration":142179,"SoundDuration":142179,"Delta":366698168},{"NoteNumber":55,"Velocity":39,"Duration":142179,"SoundDuration":142179,"Delta":366698168},{"NoteNumber":48,"Velocity":48,"Duration":1124276,"SoundDuration":1124276,"Delta":366698168},{"NoteNumber":55,"Velocity":22,"Duration":142179,"SoundDuration":142179,"Delta":366887742},{"NoteNumber":67,"Velocity":27,"Duration":142179,"SoundDuration":142179,"Delta":366887742},{"NoteNumber":55,"Velocity":22,"Duration":142179,"SoundDuration":142179,"Delta":367077315},{"NoteNumber":67,"Velocity":27,"Duration":142179,"SoundDuration":142179,"Delta":367077315},{"NoteNumber":55,"Velocity":28,"Duration":138889,"SoundDuration":138889,"Delta":367266888},{"NoteNumber":67,"Velocity":34,"Duration":138889,"SoundDuration":138889,"Delta":367266888},{"NoteNumber":55,"Velocity":29,"Duration":138889,"SoundDuration":138889,"Delta":367452074},{"NoteNumber":67,"Velocity":35,"Duration":138889,"SoundDuration":138889,"Delta":367452074},{"NoteNumber":55,"Velocity":30,"Duration":138889,"SoundDuration":138889,"Delta":367637259},{"NoteNumber":67,"Velocity":36,"Duration":138889,"SoundDuration":138889,"Delta":367637259},{"NoteNumber":55,"Velocity":40,"Duration":138888,"SoundDuration":138888,"Delta":367822444},{"NoteNumber":67,"Velocity":48,"Duration":138888,"SoundDuration":138888,"Delta":367822444},{"NoteNumber":55,"Velocity":32,"Duration":138889,"SoundDuration":138889,"Delta":368007630},{"NoteNumber":67,"Velocity":36,"Duration":138889,"SoundDuration":138889,"Delta":368007630},{"NoteNumber":55,"Velocity":34,"Duration":138889,"SoundDuration":138889,"Delta":368192815},{"NoteNumber":67,"Velocity":41,"Duration":138889,"SoundDuration":138889,"Delta":368192815},{"NoteNumber":55,"Velocity":47,"Duration":137918,"SoundDuration":137918,"Delta":368378000},{"NoteNumber":67,"Velocity":56,"Duration":137918,"SoundDuration":137918,"Delta":368378000},{"NoteNumber":35,"Velocity":42,"Duration":413754,"SoundDuration":413754,"Delta":368378000},{"NoteNumber":47,"Velocity":50,"Duration":413754,"SoundDuration":413754,"Delta":368378000},{"NoteNumber":55,"Velocity":36,"Duration":137918,"SoundDuration":137918,"Delta":368561891},{"NoteNumber":67,"Velocity":43,"Duration":137918,"SoundDuration":137918,"Delta":368561891},{"NoteNumber":55,"Velocity":37,"Duration":137918,"SoundDuration":137918,"Delta":368745782},{"NoteNumber":67,"Velocity":44,"Duration":137918,"SoundDuration":137918,"Delta":368745782},{"NoteNumber":36,"Velocity":37,"Duration":137918,"SoundDuration":137918,"Delta":368791755},{"NoteNumber":48,"Velocity":44,"Duration":137918,"SoundDuration":137918,"Delta":368791755},{"NoteNumber":67,"Velocity":59,"Duration":141083,"SoundDuration":141083,"Delta":368929673},{"NoteNumber":55,"Velocity":59,"Duration":141083,"SoundDuration":141083,"Delta":368929673},{"NoteNumber":50,"Velocity":62,"Duration":397385,"SoundDuration":397385,"Delta":368929673},{"NoteNumber":38,"Velocity":51,"Duration":423250,"SoundDuration":423250,"Delta":368929673},{"NoteNumber":55,"Velocity":33,"Duration":141083,"SoundDuration":141083,"Delta":369117785},{"NoteNumber":67,"Velocity":41,"Duration":141083,"SoundDuration":141083,"Delta":369117785},{"NoteNumber":55,"Velocity":33,"Duration":141083,"SoundDuration":141083,"Delta":369305896},{"NoteNumber":67,"Velocity":41,"Duration":141083,"SoundDuration":141083,"Delta":369305896},{"NoteNumber":55,"Velocity":37,"Duration":136587,"SoundDuration":136587,"Delta":369494007},{"NoteNumber":67,"Velocity":46,"Duration":136587,"SoundDuration":136587,"Delta":369494007},{"NoteNumber":38,"Velocity":42,"Duration":409761,"SoundDuration":409761,"Delta":369494007},{"NoteNumber":50,"Velocity":50,"Duration":384720,"SoundDuration":384720,"Delta":369494007},{"NoteNumber":55,"Velocity":37,"Duration":136587,"SoundDuration":136587,"Delta":369676124},{"NoteNumber":67,"Velocity":46,"Duration":136587,"SoundDuration":136587,"Delta":369676124},{"NoteNumber":55,"Velocity":37,"Duration":136587,"SoundDuration":136587,"Delta":369858240},{"NoteNumber":67,"Velocity":46,"Duration":136587,"SoundDuration":136587,"Delta":369858240},{"NoteNumber":55,"Velocity":49,"Duration":136475,"SoundDuration":136475,"Delta":370040356},{"NoteNumber":67,"Velocity":58,"Duration":136475,"SoundDuration":136475,"Delta":370040356},{"NoteNumber":38,"Velocity":42,"Duration":409425,"SoundDuration":409425,"Delta":370040356},{"NoteNumber":50,"Velocity":50,"Duration":384405,"SoundDuration":384405,"Delta":370040356},{"NoteNumber":55,"Velocity":36,"Duration":136475,"SoundDuration":136475,"Delta":370222323},{"NoteNumber":67,"Velocity":42,"Duration":136475,"SoundDuration":136475,"Delta":370222323},{"NoteNumber":55,"Velocity":37,"Duration":136475,"SoundDuration":136475,"Delta":370404290},{"NoteNumber":67,"Velocity":46,"Duration":136475,"SoundDuration":136475,"Delta":370404290},{"NoteNumber":56,"Velocity":55,"Duration":137918,"SoundDuration":137918,"Delta":370586257},{"NoteNumber":68,"Velocity":65,"Duration":137918,"SoundDuration":137918,"Delta":370586257},{"NoteNumber":36,"Velocity":50,"Duration":413754,"SoundDuration":413754,"Delta":370586257},{"NoteNumber":48,"Velocity":59,"Duration":413754,"SoundDuration":413754,"Delta":370586257},{"NoteNumber":56,"Velocity":42,"Duration":137918,"SoundDuration":137918,"Delta":370770148},{"NoteNumber":68,"Velocity":52,"Duration":137918,"SoundDuration":137918,"Delta":370770148},{"NoteNumber":56,"Velocity":44,"Duration":151235,"SoundDuration":151235,"Delta":370954039},{"NoteNumber":68,"Velocity":55,"Duration":151235,"SoundDuration":151235,"Delta":370954039},{"NoteNumber":38,"Velocity":57,"Duration":157894,"SoundDuration":157894,"Delta":371000012},{"NoteNumber":50,"Velocity":67,"Duration":157894,"SoundDuration":157894,"Delta":371000012},{"NoteNumber":67,"Velocity":70,"Duration":137614,"SoundDuration":137614,"Delta":371157907},{"NoteNumber":55,"Velocity":70,"Duration":137614,"SoundDuration":137614,"Delta":371157907},{"NoteNumber":39,"Velocity":63,"Duration":825688,"SoundDuration":825688,"Delta":371157907},{"NoteNumber":51,"Velocity":76,"Duration":825688,"SoundDuration":825688,"Delta":371157907},{"NoteNumber":55,"Velocity":40,"Duration":137614,"SoundDuration":137614,"Delta":371341393},{"NoteNumber":67,"Velocity":50,"Duration":137614,"SoundDuration":137614,"Delta":371341393},{"NoteNumber":55,"Velocity":40,"Duration":137614,"SoundDuration":137614,"Delta":371524879},{"NoteNumber":67,"Velocity":50,"Duration":137614,"SoundDuration":137614,"Delta":371524879},{"NoteNumber":55,"Velocity":46,"Duration":137614,"SoundDuration":137614,"Delta":371708366},{"NoteNumber":67,"Velocity":55,"Duration":137614,"SoundDuration":137614,"Delta":371708366},{"NoteNumber":55,"Velocity":44,"Duration":137614,"SoundDuration":137614,"Delta":371891852},{"NoteNumber":67,"Velocity":55,"Duration":137614,"SoundDuration":137614,"Delta":371891852},{"NoteNumber":38,"Velocity":54,"Duration":275229,"SoundDuration":275229,"Delta":371983595},{"NoteNumber":50,"Velocity":64,"Duration":275229,"SoundDuration":275229,"Delta":371983595},{"NoteNumber":55,"Velocity":44,"Duration":137614,"SoundDuration":137614,"Delta":372075338},{"NoteNumber":67,"Velocity":54,"Duration":137614,"SoundDuration":137614,"Delta":372075338},{"NoteNumber":55,"Velocity":57,"Duration":137614,"SoundDuration":137614,"Delta":372258825},{"NoteNumber":67,"Velocity":69,"Duration":137614,"SoundDuration":137614,"Delta":372258825},{"NoteNumber":36,"Velocity":46,"Duration":550459,"SoundDuration":550459,"Delta":372258825},{"NoteNumber":48,"Velocity":55,"Duration":550459,"SoundDuration":550459,"Delta":372258825},{"NoteNumber":55,"Velocity":42,"Duration":137614,"SoundDuration":137614,"Delta":372442311},{"NoteNumber":67,"Velocity":49,"Duration":137614,"SoundDuration":137614,"Delta":372442311},{"NoteNumber":55,"Velocity":42,"Duration":137614,"SoundDuration":137614,"Delta":372625797},{"NoteNumber":67,"Velocity":52,"Duration":137614,"SoundDuration":137614,"Delta":372625797},{"NoteNumber":55,"Velocity":57,"Duration":135771,"SoundDuration":135771,"Delta":372809284},{"NoteNumber":67,"Velocity":67,"Duration":135771,"SoundDuration":135771,"Delta":372809284},{"NoteNumber":34,"Velocity":57,"Duration":407313,"SoundDuration":407313,"Delta":372809284},{"NoteNumber":46,"Velocity":67,"Duration":407313,"SoundDuration":407313,"Delta":372809284},{"NoteNumber":55,"Velocity":42,"Duration":135771,"SoundDuration":135771,"Delta":372990312},{"NoteNumber":67,"Velocity":51,"Duration":135771,"SoundDuration":135771,"Delta":372990312},{"NoteNumber":53,"Velocity":41,"Duration":140196,"SoundDuration":140196,"Delta":373171340},{"NoteNumber":65,"Velocity":50,"Duration":140196,"SoundDuration":140196,"Delta":373171340},{"NoteNumber":44,"Velocity":55,"Duration":142409,"SoundDuration":142409,"Delta":373216597},{"NoteNumber":32,"Velocity":46,"Duration":142409,"SoundDuration":142409,"Delta":373216597},{"NoteNumber":64,"Velocity":59,"Duration":137918,"SoundDuration":137918,"Delta":373359007},{"NoteNumber":60,"Velocity":59,"Duration":137918,"SoundDuration":137918,"Delta":373359007},{"NoteNumber":67,"Velocity":59,"Duration":137918,"SoundDuration":137918,"Delta":373359007},{"NoteNumber":55,"Velocity":59,"Duration":137918,"SoundDuration":137918,"Delta":373359007},{"NoteNumber":31,"Velocity":46,"Duration":551672,"SoundDuration":551672,"Delta":373359007},{"NoteNumber":43,"Velocity":55,"Duration":551672,"SoundDuration":551672,"Delta":373359007},{"NoteNumber":64,"Velocity":33,"Duration":137918,"SoundDuration":137918,"Delta":373542898},{"NoteNumber":60,"Velocity":33,"Duration":137918,"SoundDuration":137918,"Delta":373542898},{"NoteNumber":55,"Velocity":33,"Duration":137918,"SoundDuration":137918,"Delta":373542898},{"NoteNumber":67,"Velocity":41,"Duration":137918,"SoundDuration":137918,"Delta":373542898},{"NoteNumber":64,"Velocity":33,"Duration":137918,"SoundDuration":137918,"Delta":373726789},{"NoteNumber":60,"Velocity":33,"Duration":137918,"SoundDuration":137918,"Delta":373726789},{"NoteNumber":55,"Velocity":33,"Duration":137918,"SoundDuration":137918,"Delta":373726789},{"NoteNumber":67,"Velocity":41,"Duration":137918,"SoundDuration":137918,"Delta":373726789},{"NoteNumber":64,"Velocity":33,"Duration":135135,"SoundDuration":135135,"Delta":373910680},{"NoteNumber":60,"Velocity":33,"Duration":135135,"SoundDuration":135135,"Delta":373910680},{"NoteNumber":55,"Velocity":37,"Duration":135135,"SoundDuration":135135,"Delta":373910680},{"NoteNumber":67,"Velocity":46,"Duration":135135,"SoundDuration":135135,"Delta":373910680},{"NoteNumber":31,"Velocity":46,"Duration":540541,"SoundDuration":540541,"Delta":373910680},{"NoteNumber":43,"Velocity":55,"Duration":540541,"SoundDuration":540541,"Delta":373910680},{"NoteNumber":64,"Velocity":33,"Duration":135135,"SoundDuration":135135,"Delta":374090860},{"NoteNumber":60,"Velocity":33,"Duration":135135,"SoundDuration":135135,"Delta":374090860},{"NoteNumber":55,"Velocity":37,"Duration":135135,"SoundDuration":135135,"Delta":374090860},{"NoteNumber":67,"Velocity":46,"Duration":135135,"SoundDuration":135135,"Delta":374090860},{"NoteNumber":64,"Velocity":33,"Duration":135135,"SoundDuration":135135,"Delta":374271041},{"NoteNumber":60,"Velocity":33,"Duration":135135,"SoundDuration":135135,"Delta":374271041},{"NoteNumber":55,"Velocity":37,"Duration":135135,"SoundDuration":135135,"Delta":374271041},{"NoteNumber":67,"Velocity":46,"Duration":135135,"SoundDuration":135135,"Delta":374271041},{"NoteNumber":62,"Velocity":49,"Duration":135135,"SoundDuration":135135,"Delta":374451221},{"NoteNumber":59,"Velocity":49,"Duration":135135,"SoundDuration":135135,"Delta":374451221},{"NoteNumber":55,"Velocity":49,"Duration":135135,"SoundDuration":135135,"Delta":374451221},{"NoteNumber":67,"Velocity":58,"Duration":135135,"SoundDuration":135135,"Delta":374451221},{"NoteNumber":43,"Velocity":55,"Duration":540540,"SoundDuration":540540,"Delta":374451221},{"NoteNumber":31,"Velocity":46,"Duration":540540,"SoundDuration":540540,"Delta":374451221},{"NoteNumber":62,"Velocity":49,"Duration":135135,"SoundDuration":135135,"Delta":374631401},{"NoteNumber":59,"Velocity":49,"Duration":135135,"SoundDuration":135135,"Delta":374631401},{"NoteNumber":55,"Velocity":36,"Duration":135135,"SoundDuration":135135,"Delta":374631401},{"NoteNumber":67,"Velocity":42,"Duration":135135,"SoundDuration":135135,"Delta":374631401},{"NoteNumber":62,"Velocity":49,"Duration":135135,"SoundDuration":135135,"Delta":374811582},{"NoteNumber":59,"Velocity":49,"Duration":135135,"SoundDuration":135135,"Delta":374811582},{"NoteNumber":55,"Velocity":37,"Duration":135135,"SoundDuration":135135,"Delta":374811582},{"NoteNumber":67,"Velocity":46,"Duration":135135,"SoundDuration":135135,"Delta":374811582},{"NoteNumber":62,"Velocity":50,"Duration":136986,"SoundDuration":136986,"Delta":374991762},{"NoteNumber":59,"Velocity":50,"Duration":136986,"SoundDuration":136986,"Delta":374991762},{"NoteNumber":55,"Velocity":50,"Duration":136986,"SoundDuration":136986,"Delta":374991762},{"NoteNumber":67,"Velocity":59,"Duration":136986,"SoundDuration":136986,"Delta":374991762},{"NoteNumber":43,"Velocity":55,"Duration":569689,"SoundDuration":569689,"Delta":374991762},{"NoteNumber":31,"Velocity":46,"Duration":569689,"SoundDuration":569689,"Delta":374991762},{"NoteNumber":62,"Velocity":37,"Duration":136986,"SoundDuration":136986,"Delta":375174410},{"NoteNumber":59,"Velocity":37,"Duration":136986,"SoundDuration":136986,"Delta":375174410},{"NoteNumber":55,"Velocity":37,"Duration":136986,"SoundDuration":136986,"Delta":375174410},{"NoteNumber":67,"Velocity":46,"Duration":136986,"SoundDuration":136986,"Delta":375174410},{"NoteNumber":62,"Velocity":37,"Duration":151482,"SoundDuration":151482,"Delta":375357059},{"NoteNumber":59,"Velocity":37,"Duration":151482,"SoundDuration":151482,"Delta":375357059},{"NoteNumber":55,"Velocity":37,"Duration":151482,"SoundDuration":151482,"Delta":375357059},{"NoteNumber":67,"Velocity":46,"Duration":151482,"SoundDuration":151482,"Delta":375357059},{"NoteNumber":55,"Velocity":40,"Duration":319634,"SoundDuration":319634,"Delta":375561451},{"NoteNumber":60,"Velocity":40,"Duration":1095889,"SoundDuration":1095889,"Delta":375561451},{"NoteNumber":64,"Velocity":40,"Duration":1095889,"SoundDuration":1095889,"Delta":375561451},{"NoteNumber":67,"Velocity":48,"Duration":1095889,"SoundDuration":1095889,"Delta":375561451},{"NoteNumber":36,"Velocity":40,"Duration":182648,"SoundDuration":182648,"Delta":375561451},{"NoteNumber":48,"Velocity":40,"Duration":182648,"SoundDuration":182648,"Delta":375561451},{"NoteNumber":55,"Velocity":31,"Duration":319634,"SoundDuration":319634,"Delta":375744099},{"NoteNumber":55,"Velocity":31,"Duration":319634,"SoundDuration":319634,"Delta":375926748},{"NoteNumber":55,"Velocity":31,"Duration":319634,"SoundDuration":319634,"Delta":376109396},{"NoteNumber":55,"Velocity":29,"Duration":319634,"SoundDuration":319634,"Delta":376292044},{"NoteNumber":55,"Velocity":29,"Duration":182648,"SoundDuration":182648,"Delta":376474693},{"NoteNumber":55,"Velocity":29,"Duration":136986,"SoundDuration":136986,"Delta":376657341},{"NoteNumber":55,"Velocity":28,"Duration":136986,"SoundDuration":136986,"Delta":376839989},{"NoteNumber":55,"Velocity":28,"Duration":136986,"SoundDuration":136986,"Delta":377022638},{"NoteNumber":62,"Velocity":37,"Duration":413754,"SoundDuration":413754,"Delta":377205286},{"NoteNumber":67,"Velocity":37,"Duration":413754,"SoundDuration":413754,"Delta":377205286},{"NoteNumber":71,"Velocity":44,"Duration":413754,"SoundDuration":413754,"Delta":377205286},{"NoteNumber":55,"Velocity":31,"Duration":137918,"SoundDuration":137918,"Delta":377205286},{"NoteNumber":55,"Velocity":30,"Duration":137918,"SoundDuration":137918,"Delta":377389177},{"NoteNumber":55,"Velocity":30,"Duration":137918,"SoundDuration":137918,"Delta":377573068},{"NoteNumber":64,"Velocity":32,"Duration":137918,"SoundDuration":137918,"Delta":377619041},{"NoteNumber":67,"Velocity":32,"Duration":137918,"SoundDuration":137918,"Delta":377619041},{"NoteNumber":72,"Velocity":38,"Duration":137918,"SoundDuration":137918,"Delta":377619041},{"NoteNumber":65,"Velocity":35,"Duration":423250,"SoundDuration":423250,"Delta":377756959},{"NoteNumber":67,"Velocity":35,"Duration":423250,"SoundDuration":423250,"Delta":377756959},{"NoteNumber":74,"Velocity":51,"Duration":397385,"SoundDuration":397385,"Delta":377756959},{"NoteNumber":55,"Velocity":31,"Duration":141083,"SoundDuration":141083,"Delta":377756959},{"NoteNumber":55,"Velocity":27,"Duration":141083,"SoundDuration":141083,"Delta":377945070},{"NoteNumber":55,"Velocity":27,"Duration":141083,"SoundDuration":141083,"Delta":378133182},{"NoteNumber":67,"Velocity":35,"Duration":409761,"SoundDuration":409761,"Delta":378321293},{"NoteNumber":65,"Velocity":35,"Duration":409761,"SoundDuration":409761,"Delta":378321293},{"NoteNumber":74,"Velocity":42,"Duration":384720,"SoundDuration":384720,"Delta":378321293},{"NoteNumber":55,"Velocity":31,"Duration":136587,"SoundDuration":136587,"Delta":378321293},{"NoteNumber":55,"Velocity":28,"Duration":136587,"SoundDuration":136587,"Delta":378503409},{"NoteNumber":55,"Velocity":28,"Duration":136587,"SoundDuration":136587,"Delta":378685526},{"NoteNumber":65,"Velocity":35,"Duration":409425,"SoundDuration":409425,"Delta":378867642},{"NoteNumber":67,"Velocity":35,"Duration":409425,"SoundDuration":409425,"Delta":378867642},{"NoteNumber":74,"Velocity":42,"Duration":384405,"SoundDuration":384405,"Delta":378867642},{"NoteNumber":55,"Velocity":31,"Duration":136475,"SoundDuration":136475,"Delta":378867642},{"NoteNumber":55,"Velocity":31,"Duration":136475,"SoundDuration":136475,"Delta":379049609},{"NoteNumber":55,"Velocity":31,"Duration":136475,"SoundDuration":136475,"Delta":379231576},{"NoteNumber":64,"Velocity":39,"Duration":413754,"SoundDuration":413754,"Delta":379413543},{"NoteNumber":67,"Velocity":39,"Duration":413754,"SoundDuration":413754,"Delta":379413543},{"NoteNumber":72,"Velocity":46,"Duration":413754,"SoundDuration":413754,"Delta":379413543},{"NoteNumber":55,"Velocity":31,"Duration":137918,"SoundDuration":137918,"Delta":379413543},{"NoteNumber":55,"Velocity":31,"Duration":137918,"SoundDuration":137918,"Delta":379597434},{"NoteNumber":55,"Velocity":32,"Duration":137918,"SoundDuration":137918,"Delta":379781325},{"NoteNumber":65,"Velocity":39,"Duration":137918,"SoundDuration":137918,"Delta":379827298},{"NoteNumber":67,"Velocity":39,"Duration":137918,"SoundDuration":137918,"Delta":379827298},{"NoteNumber":74,"Velocity":47,"Duration":137918,"SoundDuration":137918,"Delta":379827298},{"NoteNumber":67,"Velocity":45,"Duration":827509,"SoundDuration":827509,"Delta":379965216},{"NoteNumber":76,"Velocity":53,"Duration":827509,"SoundDuration":827509,"Delta":379965216},{"NoteNumber":55,"Velocity":40,"Duration":137918,"SoundDuration":137918,"Delta":379965216},{"NoteNumber":55,"Velocity":31,"Duration":137918,"SoundDuration":137918,"Delta":380149107},{"NoteNumber":55,"Velocity":26,"Duration":137918,"SoundDuration":137918,"Delta":380332998},{"NoteNumber":55,"Velocity":33,"Duration":137918,"SoundDuration":137918,"Delta":380516889},{"NoteNumber":55,"Velocity":29,"Duration":137918,"SoundDuration":137918,"Delta":380700780},{"NoteNumber":65,"Velocity":37,"Duration":275836,"SoundDuration":275836,"Delta":380792725},{"NoteNumber":67,"Velocity":37,"Duration":275836,"SoundDuration":275836,"Delta":380792725},{"NoteNumber":74,"Velocity":44,"Duration":275836,"SoundDuration":275836,"Delta":380792725},{"NoteNumber":55,"Velocity":26,"Duration":137918,"SoundDuration":137918,"Delta":380884671},{"NoteNumber":64,"Velocity":33,"Duration":551672,"SoundDuration":551672,"Delta":381068562},{"NoteNumber":67,"Velocity":33,"Duration":551672,"SoundDuration":551672,"Delta":381068562},{"NoteNumber":72,"Velocity":39,"Duration":551672,"SoundDuration":551672,"Delta":381068562},{"NoteNumber":55,"Velocity":33,"Duration":137918,"SoundDuration":137918,"Delta":381068562},{"NoteNumber":55,"Velocity":30,"Duration":137918,"SoundDuration":137918,"Delta":381252453},{"NoteNumber":55,"Velocity":29,"Duration":137918,"SoundDuration":137918,"Delta":381436344},{"NoteNumber":65,"Velocity":41,"Duration":407313,"SoundDuration":407313,"Delta":381620235},{"NoteNumber":67,"Velocity":41,"Duration":407313,"SoundDuration":407313,"Delta":381620235},{"NoteNumber":74,"Velocity":49,"Duration":407313,"SoundDuration":407313,"Delta":381620235},{"NoteNumber":55,"Velocity":33,"Duration":135771,"SoundDuration":135771,"Delta":381620235},{"NoteNumber":55,"Velocity":30,"Duration":135771,"SoundDuration":135771,"Delta":381801263},{"NoteNumber":55,"Velocity":30,"Duration":140196,"SoundDuration":140196,"Delta":381982292},{"NoteNumber":64,"Velocity":35,"Duration":142409,"SoundDuration":142409,"Delta":382027549},{"NoteNumber":67,"Velocity":35,"Duration":142409,"SoundDuration":142409,"Delta":382027549},{"NoteNumber":72,"Velocity":42,"Duration":142409,"SoundDuration":142409,"Delta":382027549},{"NoteNumber":62,"Velocity":39,"Duration":551672,"SoundDuration":551672,"Delta":382169958},{"NoteNumber":67,"Velocity":39,"Duration":551672,"SoundDuration":551672,"Delta":382169958},{"NoteNumber":71,"Velocity":46,"Duration":551672,"SoundDuration":551672,"Delta":382169958},{"NoteNumber":55,"Velocity":31,"Duration":137918,"SoundDuration":137918,"Delta":382169958},{"NoteNumber":55,"Velocity":28,"Duration":137918,"SoundDuration":137918,"Delta":382353849},{"NoteNumber":55,"Velocity":28,"Duration":137918,"SoundDuration":137918,"Delta":382537740},{"NoteNumber":60,"Velocity":37,"Duration":413754,"SoundDuration":413754,"Delta":382721631},{"NoteNumber":67,"Velocity":37,"Duration":413754,"SoundDuration":413754,"Delta":382721631},{"NoteNumber":69,"Velocity":44,"Duration":413754,"SoundDuration":413754,"Delta":382721631},{"NoteNumber":55,"Velocity":31,"Duration":137918,"SoundDuration":137918,"Delta":382721631},{"NoteNumber":55,"Velocity":28,"Duration":137918,"SoundDuration":137918,"Delta":382905522},{"NoteNumber":53,"Velocity":26,"Duration":137918,"SoundDuration":137918,"Delta":383089413},{"NoteNumber":55,"Velocity":31,"Duration":137918,"SoundDuration":137918,"Delta":383089413},{"NoteNumber":62,"Velocity":30,"Duration":137918,"SoundDuration":137918,"Delta":383135386},{"NoteNumber":67,"Velocity":30,"Duration":137918,"SoundDuration":137918,"Delta":383135386},{"NoteNumber":71,"Velocity":36,"Duration":137918,"SoundDuration":137918,"Delta":383135386},{"NoteNumber":64,"Velocity":40,"Duration":568333,"SoundDuration":568333,"Delta":383273304},{"NoteNumber":67,"Velocity":40,"Duration":568333,"SoundDuration":568333,"Delta":383273304},{"NoteNumber":72,"Velocity":48,"Duration":568333,"SoundDuration":568333,"Delta":383273304},{"NoteNumber":52,"Velocity":30,"Duration":140884,"SoundDuration":140884,"Delta":383273304},{"NoteNumber":55,"Velocity":36,"Duration":140884,"SoundDuration":140884,"Delta":383273304},{"NoteNumber":55,"Velocity":29,"Duration":140884,"SoundDuration":140884,"Delta":383461151},{"NoteNumber":55,"Velocity":29,"Duration":144480,"SoundDuration":144480,"Delta":383648997},{"NoteNumber":67,"Velocity":36,"Duration":419307,"SoundDuration":419307,"Delta":383841638},{"NoteNumber":71,"Velocity":36,"Duration":419307,"SoundDuration":419307,"Delta":383841638},{"NoteNumber":74,"Velocity":43,"Duration":419307,"SoundDuration":419307,"Delta":383841638},{"NoteNumber":48,"Velocity":30,"Duration":139769,"SoundDuration":139769,"Delta":383841638},{"NoteNumber":55,"Velocity":36,"Duration":139769,"SoundDuration":139769,"Delta":383841638},{"NoteNumber":55,"Velocity":31,"Duration":139769,"SoundDuration":139769,"Delta":384027997},{"NoteNumber":55,"Velocity":31,"Duration":145286,"SoundDuration":145286,"Delta":384214355},{"NoteNumber":67,"Velocity":37,"Duration":148045,"SoundDuration":148045,"Delta":384260945},{"NoteNumber":72,"Velocity":37,"Duration":148045,"SoundDuration":148045,"Delta":384260945},{"NoteNumber":76,"Velocity":44,"Duration":148045,"SoundDuration":148045,"Delta":384260945},{"NoteNumber":71,"Velocity":43,"Duration":1719755,"SoundDuration":1719755,"Delta":384408991},{"NoteNumber":67,"Velocity":43,"Duration":1719755,"SoundDuration":1719755,"Delta":384408991},{"NoteNumber":74,"Velocity":51,"Duration":1719755,"SoundDuration":1719755,"Delta":384408991},{"NoteNumber":43,"Velocity":35,"Duration":148045,"SoundDuration":148045,"Delta":384408991},{"NoteNumber":55,"Velocity":37,"Duration":148045,"SoundDuration":148045,"Delta":384408991},{"NoteNumber":55,"Velocity":29,"Duration":148045,"SoundDuration":148045,"Delta":384606385},{"NoteNumber":55,"Velocity":29,"Duration":148045,"SoundDuration":148045,"Delta":384803779},{"NoteNumber":55,"Velocity":44,"Duration":138964,"SoundDuration":138964,"Delta":384998579},{"NoteNumber":55,"Velocity":37,"Duration":139828,"SoundDuration":139828,"Delta":385184055},{"NoteNumber":55,"Velocity":39,"Duration":140702,"SoundDuration":140702,"Delta":385370613},{"NoteNumber":55,"Velocity":53,"Duration":141587,"SoundDuration":141587,"Delta":385558341},{"NoteNumber":55,"Velocity":39,"Duration":142484,"SoundDuration":142484,"Delta":385747322},{"NoteNumber":55,"Velocity":40,"Duration":143392,"SoundDuration":143392,"Delta":385937426},{"NoteNumber":59,"Velocity":52,"Duration":413754,"SoundDuration":413754,"Delta":386128746},{"NoteNumber":67,"Velocity":52,"Duration":413754,"SoundDuration":413754,"Delta":386128746},{"NoteNumber":71,"Velocity":62,"Duration":413754,"SoundDuration":413754,"Delta":386128746},{"NoteNumber":55,"Velocity":52,"Duration":137918,"SoundDuration":137918,"Delta":386128746},{"NoteNumber":55,"Velocity":45,"Duration":137918,"SoundDuration":137918,"Delta":386312637},{"NoteNumber":55,"Velocity":52,"Duration":145475,"SoundDuration":145475,"Delta":386496528},{"NoteNumber":60,"Velocity":50,"Duration":149253,"SoundDuration":149253,"Delta":386542501},{"NoteNumber":69,"Velocity":50,"Duration":149253,"SoundDuration":149253,"Delta":386542501},{"NoteNumber":72,"Velocity":60,"Duration":149253,"SoundDuration":149253,"Delta":386542501},{"NoteNumber":62,"Velocity":61,"Duration":541419,"SoundDuration":541419,"Delta":386691754},{"NoteNumber":71,"Velocity":61,"Duration":541419,"SoundDuration":541419,"Delta":386691754},{"NoteNumber":74,"Velocity":73,"Duration":541419,"SoundDuration":541419,"Delta":386691754},{"NoteNumber":55,"Velocity":59,"Duration":135354,"SoundDuration":135354,"Delta":386691754},{"NoteNumber":55,"Velocity":47,"Duration":135354,"SoundDuration":135354,"Delta":386872227},{"NoteNumber":55,"Velocity":47,"Duration":135354,"SoundDuration":135354,"Delta":387052700},{"NoteNumber":62,"Velocity":50,"Duration":535713,"SoundDuration":535713,"Delta":387233173},{"NoteNumber":71,"Velocity":50,"Duration":535713,"SoundDuration":535713,"Delta":387233173},{"NoteNumber":74,"Velocity":60,"Duration":535713,"SoundDuration":535713,"Delta":387233173},{"NoteNumber":55,"Velocity":52,"Duration":133928,"SoundDuration":133928,"Delta":387233173},{"NoteNumber":54,"Velocity":52,"Duration":133928,"SoundDuration":133928,"Delta":387233173},{"NoteNumber":55,"Velocity":43,"Duration":133928,"SoundDuration":133928,"Delta":387411745},{"NoteNumber":54,"Velocity":43,"Duration":133928,"SoundDuration":133928,"Delta":387411745},{"NoteNumber":55,"Velocity":43,"Duration":133928,"SoundDuration":133928,"Delta":387590316},{"NoteNumber":54,"Velocity":43,"Duration":133928,"SoundDuration":133928,"Delta":387590316},{"NoteNumber":62,"Velocity":50,"Duration":557226,"SoundDuration":557226,"Delta":387768887},{"NoteNumber":71,"Velocity":50,"Duration":557226,"SoundDuration":557226,"Delta":387768887},{"NoteNumber":74,"Velocity":60,"Duration":557226,"SoundDuration":557226,"Delta":387768887},{"NoteNumber":53,"Velocity":54,"Duration":133928,"SoundDuration":133928,"Delta":387768887},{"NoteNumber":55,"Velocity":54,"Duration":133928,"SoundDuration":133928,"Delta":387768887},{"NoteNumber":55,"Velocity":45,"Duration":133928,"SoundDuration":133928,"Delta":387947459},{"NoteNumber":53,"Velocity":45,"Duration":133928,"SoundDuration":133928,"Delta":387947459},{"NoteNumber":55,"Velocity":45,"Duration":148269,"SoundDuration":148269,"Delta":388126030},{"NoteNumber":53,"Velocity":45,"Duration":148269,"SoundDuration":148269,"Delta":388126030},{"NoteNumber":64,"Velocity":49,"Duration":413754,"SoundDuration":413754,"Delta":388326113},{"NoteNumber":72,"Velocity":51,"Duration":413754,"SoundDuration":413754,"Delta":388326113},{"NoteNumber":76,"Velocity":61,"Duration":413754,"SoundDuration":413754,"Delta":388326113},{"NoteNumber":55,"Velocity":53,"Duration":137918,"SoundDuration":137918,"Delta":388326113},{"NoteNumber":52,"Velocity":53,"Duration":137918,"SoundDuration":137918,"Delta":388326113},{"NoteNumber":52,"Velocity":43,"Duration":137918,"SoundDuration":137918,"Delta":388510004},{"NoteNumber":55,"Velocity":43,"Duration":137918,"SoundDuration":137918,"Delta":388510004},{"NoteNumber":53,"Velocity":44,"Duration":145475,"SoundDuration":145475,"Delta":388693895},{"NoteNumber":50,"Velocity":44,"Duration":145475,"SoundDuration":145475,"Delta":388693895},{"NoteNumber":55,"Velocity":44,"Duration":145475,"SoundDuration":145475,"Delta":388693895},{"NoteNumber":65,"Velocity":46,"Duration":149253,"SoundDuration":149253,"Delta":388739868},{"NoteNumber":74,"Velocity":46,"Duration":149253,"SoundDuration":149253,"Delta":388739868},{"NoteNumber":77,"Velocity":67,"Duration":149253,"SoundDuration":149253,"Delta":388739868},{"NoteNumber":76,"Velocity":54,"Duration":540153,"SoundDuration":540153,"Delta":388889122},{"NoteNumber":67,"Velocity":54,"Duration":540153,"SoundDuration":540153,"Delta":388889122},{"NoteNumber":79,"Velocity":75,"Duration":540153,"SoundDuration":540153,"Delta":388889122},{"NoteNumber":52,"Velocity":57,"Duration":137918,"SoundDuration":137918,"Delta":388889122},{"NoteNumber":48,"Velocity":57,"Duration":137918,"SoundDuration":137918,"Delta":388889122},{"NoteNumber":55,"Velocity":57,"Duration":137918,"SoundDuration":137918,"Delta":388889122},{"NoteNumber":52,"Velocity":45,"Duration":135998,"SoundDuration":135998,"Delta":389073013},{"NoteNumber":48,"Velocity":45,"Duration":135998,"SoundDuration":135998,"Delta":389073013},{"NoteNumber":55,"Velocity":45,"Duration":135998,"SoundDuration":135998,"Delta":389073013},{"NoteNumber":52,"Velocity":45,"Duration":132158,"SoundDuration":132158,"Delta":389253064},{"NoteNumber":55,"Velocity":45,"Duration":132158,"SoundDuration":132158,"Delta":389253064},{"NoteNumber":48,"Velocity":45,"Duration":132158,"SoundDuration":132158,"Delta":389253064},{"NoteNumber":74,"Velocity":58,"Duration":547945,"SoundDuration":547945,"Delta":389429275},{"NoteNumber":71,"Velocity":58,"Duration":547945,"SoundDuration":547945,"Delta":389429275},{"NoteNumber":77,"Velocity":69,"Duration":547945,"SoundDuration":547945,"Delta":389429275},{"NoteNumber":44,"Velocity":54,"Duration":136986,"SoundDuration":136986,"Delta":389429275},{"NoteNumber":53,"Velocity":54,"Duration":136986,"SoundDuration":136986,"Delta":389429275},{"NoteNumber":50,"Velocity":54,"Duration":136986,"SoundDuration":136986,"Delta":389429275},{"NoteNumber":44,"Velocity":45,"Duration":136986,"SoundDuration":136986,"Delta":389611924},{"NoteNumber":53,"Velocity":45,"Duration":136986,"SoundDuration":136986,"Delta":389611924},{"NoteNumber":50,"Velocity":45,"Duration":136986,"SoundDuration":136986,"Delta":389611924},{"NoteNumber":44,"Velocity":45,"Duration":136986,"SoundDuration":136986,"Delta":389794572},{"NoteNumber":50,"Velocity":45,"Duration":136986,"SoundDuration":136986,"Delta":389794572},{"NoteNumber":53,"Velocity":45,"Duration":136986,"SoundDuration":136986,"Delta":389794572},{"NoteNumber":72,"Velocity":54,"Duration":578540,"SoundDuration":578540,"Delta":389977220},{"NoteNumber":76,"Velocity":76,"Duration":578540,"SoundDuration":578540,"Delta":389977220},{"NoteNumber":48,"Velocity":55,"Duration":136986,"SoundDuration":136986,"Delta":389977220},{"NoteNumber":45,"Velocity":55,"Duration":136986,"SoundDuration":136986,"Delta":389977220},{"NoteNumber":52,"Velocity":55,"Duration":136986,"SoundDuration":136986,"Delta":389977220},{"NoteNumber":48,"Velocity":43,"Duration":142085,"SoundDuration":142085,"Delta":390159869},{"NoteNumber":45,"Velocity":43,"Duration":142085,"SoundDuration":142085,"Delta":390159869},{"NoteNumber":52,"Velocity":43,"Duration":142085,"SoundDuration":142085,"Delta":390159869},{"NoteNumber":48,"Velocity":43,"Duration":152284,"SoundDuration":152284,"Delta":390352716},{"NoteNumber":45,"Velocity":43,"Duration":152284,"SoundDuration":152284,"Delta":390352716},{"NoteNumber":52,"Velocity":43,"Duration":152284,"SoundDuration":152284,"Delta":390352716},{"NoteNumber":69,"Velocity":58,"Duration":410958,"SoundDuration":410958,"Delta":390555761},{"NoteNumber":77,"Velocity":69,"Duration":410958,"SoundDuration":410958,"Delta":390555761},{"NoteNumber":41,"Velocity":52,"Duration":182648,"SoundDuration":182648,"Delta":390555761},{"NoteNumber":53,"Velocity":43,"Duration":136986,"SoundDuration":136986,"Delta":390738410},{"NoteNumber":57,"Velocity":43,"Duration":136986,"SoundDuration":136986,"Delta":390738410},{"NoteNumber":57,"Velocity":42,"Duration":140601,"SoundDuration":140601,"Delta":390921058},{"NoteNumber":53,"Velocity":42,"Duration":140601,"SoundDuration":140601,"Delta":390921058},{"NoteNumber":65,"Velocity":51,"Duration":142409,"SoundDuration":142409,"Delta":390966720},{"NoteNumber":69,"Velocity":51,"Duration":142409,"SoundDuration":142409,"Delta":390966720},{"NoteNumber":74,"Velocity":60,"Duration":142409,"SoundDuration":142409,"Delta":390966720},{"NoteNumber":62,"Velocity":55,"Duration":555556,"SoundDuration":555556,"Delta":391109130},{"NoteNumber":65,"Velocity":55,"Duration":555556,"SoundDuration":555556,"Delta":391109130},{"NoteNumber":71,"Velocity":66,"Duration":555556,"SoundDuration":555556,"Delta":391109130},{"NoteNumber":43,"Velocity":54,"Duration":185185,"SoundDuration":185185,"Delta":391109130},{"NoteNumber":55,"Velocity":45,"Duration":138889,"SoundDuration":138889,"Delta":391294315},{"NoteNumber":55,"Velocity":45,"Duration":138889,"SoundDuration":138889,"Delta":391479500},{"NoteNumber":65,"Velocity":55,"Duration":550458,"SoundDuration":550458,"Delta":391664686},{"NoteNumber":71,"Velocity":66,"Duration":550458,"SoundDuration":550458,"Delta":391664686},{"NoteNumber":62,"Velocity":55,"Duration":550458,"SoundDuration":550458,"Delta":391664686},{"NoteNumber":43,"Velocity":54,"Duration":183486,"SoundDuration":183486,"Delta":391664686},{"NoteNumber":55,"Velocity":45,"Duration":137614,"SoundDuration":137614,"Delta":391848172},{"NoteNumber":55,"Velocity":45,"Duration":137614,"SoundDuration":137614,"Delta":392031658},{"NoteNumber":71,"Velocity":66,"Duration":583277,"SoundDuration":583277,"Delta":392215145},{"NoteNumber":65,"Velocity":55,"Duration":583277,"SoundDuration":583277,"Delta":392215145},{"NoteNumber":62,"Velocity":55,"Duration":583277,"SoundDuration":583277,"Delta":392215145},{"NoteNumber":43,"Velocity":54,"Duration":187846,"SoundDuration":187846,"Delta":392215145},{"NoteNumber":55,"Velocity":45,"Duration":144174,"SoundDuration":144174,"Delta":392402991},{"NoteNumber":55,"Velocity":45,"Duration":150753,"SoundDuration":150753,"Delta":392597417},{"NoteNumber":76,"Velocity":75,"Duration":424528,"SoundDuration":424528,"Delta":392798422},{"NoteNumber":67,"Velocity":64,"Duration":424528,"SoundDuration":424528,"Delta":392798422},{"NoteNumber":55,"Velocity":57,"Duration":141509,"SoundDuration":141509,"Delta":392798422},{"NoteNumber":57,"Velocity":43,"Duration":141509,"SoundDuration":141509,"Delta":392987101},{"NoteNumber":55,"Velocity":43,"Duration":141509,"SoundDuration":141509,"Delta":392987101},{"NoteNumber":59,"Velocity":43,"Duration":145867,"SoundDuration":145867,"Delta":393175780},{"NoteNumber":55,"Velocity":43,"Duration":145867,"SoundDuration":145867,"Delta":393175780},{"NoteNumber":65,"Velocity":52,"Duration":148045,"SoundDuration":148045,"Delta":393222950},{"NoteNumber":67,"Velocity":52,"Duration":148045,"SoundDuration":148045,"Delta":393222950},{"NoteNumber":74,"Velocity":62,"Duration":148045,"SoundDuration":148045,"Delta":393222950},{"NoteNumber":67,"Velocity":61,"Duration":1184366,"SoundDuration":1184366,"Delta":393370996},{"NoteNumber":64,"Velocity":61,"Duration":1184366,"SoundDuration":1184366,"Delta":393370996},{"NoteNumber":72,"Velocity":73,"Duration":1184366,"SoundDuration":1184366,"Delta":393370996},{"NoteNumber":55,"Velocity":40,"Duration":222068,"SoundDuration":222068,"Delta":393370996},{"NoteNumber":48,"Velocity":40,"Duration":197394,"SoundDuration":197394,"Delta":393370996},{"NoteNumber":60,"Velocity":40,"Duration":197394,"SoundDuration":197394,"Delta":393370996},{"NoteNumber":55,"Velocity":31,"Duration":148045,"SoundDuration":148045,"Delta":393568390},{"NoteNumber":55,"Velocity":31,"Duration":148045,"SoundDuration":148045,"Delta":393765785},{"NoteNumber":55,"Velocity":31,"Duration":148045,"SoundDuration":148045,"Delta":393963179},{"NoteNumber":55,"Velocity":29,"Duration":148045,"SoundDuration":148045,"Delta":394160573},{"NoteNumber":55,"Velocity":29,"Duration":148045,"SoundDuration":148045,"Delta":394357968},{"NoteNumber":55,"Velocity":29,"Duration":148045,"SoundDuration":148045,"Delta":394555362},{"NoteNumber":55,"Velocity":28,"Duration":148045,"SoundDuration":148045,"Delta":394752756},{"NoteNumber":55,"Velocity":28,"Duration":148045,"SoundDuration":148045,"Delta":394950151},{"NoteNumber":83,"Velocity":52,"Duration":413754,"SoundDuration":413754,"Delta":395147545},{"NoteNumber":55,"Velocity":31,"Duration":137918,"SoundDuration":137918,"Delta":395147545},{"NoteNumber":55,"Velocity":30,"Duration":137918,"SoundDuration":137918,"Delta":395331436},{"NoteNumber":55,"Velocity":30,"Duration":137918,"SoundDuration":137918,"Delta":395515327},{"NoteNumber":84,"Velocity":45,"Duration":137918,"SoundDuration":137918,"Delta":395561300},{"NoteNumber":86,"Velocity":61,"Duration":559076,"SoundDuration":559076,"Delta":395699218},{"NoteNumber":55,"Velocity":31,"Duration":139769,"SoundDuration":139769,"Delta":395699218},{"NoteNumber":55,"Velocity":27,"Duration":139769,"SoundDuration":139769,"Delta":395885577},{"NoteNumber":55,"Velocity":27,"Duration":139769,"SoundDuration":139769,"Delta":396071935},{"NoteNumber":77,"Velocity":35,"Duration":551369,"SoundDuration":551369,"Delta":396258294},{"NoteNumber":80,"Velocity":35,"Duration":551369,"SoundDuration":551369,"Delta":396258294},{"NoteNumber":83,"Velocity":35,"Duration":551369,"SoundDuration":551369,"Delta":396258294},{"NoteNumber":86,"Velocity":50,"Duration":551369,"SoundDuration":551369,"Delta":396258294},{"NoteNumber":55,"Velocity":31,"Duration":137842,"SoundDuration":137842,"Delta":396258294},{"NoteNumber":55,"Velocity":28,"Duration":137842,"SoundDuration":137842,"Delta":396442084},{"NoteNumber":55,"Velocity":28,"Duration":137842,"SoundDuration":137842,"Delta":396625873},{"NoteNumber":78,"Velocity":35,"Duration":545901,"SoundDuration":545901,"Delta":396809663},{"NoteNumber":81,"Velocity":35,"Duration":545901,"SoundDuration":545901,"Delta":396809663},{"NoteNumber":84,"Velocity":35,"Duration":545901,"SoundDuration":545901,"Delta":396809663},{"NoteNumber":86,"Velocity":50,"Duration":545901,"SoundDuration":545901,"Delta":396809663},{"NoteNumber":55,"Velocity":31,"Duration":136475,"SoundDuration":136475,"Delta":396809663},{"NoteNumber":55,"Velocity":31,"Duration":136475,"SoundDuration":136475,"Delta":396991630},{"NoteNumber":55,"Velocity":31,"Duration":136475,"SoundDuration":136475,"Delta":397173597},{"NoteNumber":78,"Velocity":35,"Duration":551672,"SoundDuration":551672,"Delta":397355564},{"NoteNumber":81,"Velocity":35,"Duration":551672,"SoundDuration":551672,"Delta":397355564},{"NoteNumber":84,"Velocity":55,"Duration":413754,"SoundDuration":413754,"Delta":397355564},{"NoteNumber":55,"Velocity":31,"Duration":137918,"SoundDuration":137918,"Delta":397355564},{"NoteNumber":55,"Velocity":31,"Duration":137918,"SoundDuration":137918,"Delta":397539455},{"NoteNumber":55,"Velocity":32,"Duration":137918,"SoundDuration":137918,"Delta":397723346},{"NoteNumber":86,"Velocity":56,"Duration":137918,"SoundDuration":137918,"Delta":397769319},{"NoteNumber":78,"Velocity":35,"Duration":1662421,"SoundDuration":1662421,"Delta":397907237},{"NoteNumber":81,"Velocity":35,"Duration":1662421,"SoundDuration":1662421,"Delta":397907237},{"NoteNumber":87,"Velocity":63,"Duration":827509,"SoundDuration":827509,"Delta":397907237},{"NoteNumber":60,"Velocity":53,"Duration":827509,"SoundDuration":827509,"Delta":397907237},{"NoteNumber":55,"Velocity":40,"Duration":137918,"SoundDuration":137918,"Delta":397907237},{"NoteNumber":55,"Velocity":31,"Duration":137918,"SoundDuration":137918,"Delta":398091128},{"NoteNumber":55,"Velocity":26,"Duration":137918,"SoundDuration":137918,"Delta":398275019},{"NoteNumber":55,"Velocity":33,"Duration":137918,"SoundDuration":137918,"Delta":398458910},{"NoteNumber":55,"Velocity":29,"Duration":137918,"SoundDuration":137918,"Delta":398642801},{"NoteNumber":86,"Velocity":52,"Duration":275836,"SoundDuration":275836,"Delta":398734746},{"NoteNumber":62,"Velocity":44,"Duration":275836,"SoundDuration":275836,"Delta":398734746},{"NoteNumber":55,"Velocity":26,"Duration":137918,"SoundDuration":137918,"Delta":398826692},{"NoteNumber":84,"Velocity":46,"Duration":559076,"SoundDuration":559076,"Delta":399010583},{"NoteNumber":63,"Velocity":39,"Duration":559076,"SoundDuration":559076,"Delta":399010583},{"NoteNumber":55,"Velocity":33,"Duration":139769,"SoundDuration":139769,"Delta":399010583},{"NoteNumber":55,"Velocity":30,"Duration":139769,"SoundDuration":139769,"Delta":399196942},{"NoteNumber":55,"Velocity":29,"Duration":139769,"SoundDuration":139769,"Delta":399383300},{"NoteNumber":74,"Velocity":35,"Duration":549723,"SoundDuration":549723,"Delta":399569659},{"NoteNumber":81,"Velocity":35,"Duration":549723,"SoundDuration":549723,"Delta":399569659},{"NoteNumber":86,"Velocity":58,"Duration":407313,"SoundDuration":407313,"Delta":399569659},{"NoteNumber":66,"Velocity":39,"Duration":549723,"SoundDuration":549723,"Delta":399569659},{"NoteNumber":55,"Velocity":33,"Duration":135771,"SoundDuration":135771,"Delta":399569659},{"NoteNumber":55,"Velocity":30,"Duration":135771,"SoundDuration":135771,"Delta":399750687},{"NoteNumber":55,"Velocity":30,"Duration":140196,"SoundDuration":140196,"Delta":399931716},{"NoteNumber":84,"Velocity":50,"Duration":142409,"SoundDuration":142409,"Delta":399976973},{"NoteNumber":74,"Velocity":35,"Duration":551672,"SoundDuration":551672,"Delta":400119382},{"NoteNumber":79,"Velocity":35,"Duration":551672,"SoundDuration":551672,"Delta":400119382},{"NoteNumber":83,"Velocity":55,"Duration":551672,"SoundDuration":551672,"Delta":400119382},{"NoteNumber":67,"Velocity":39,"Duration":551672,"SoundDuration":551672,"Delta":400119382},{"NoteNumber":55,"Velocity":31,"Duration":137918,"SoundDuration":137918,"Delta":400119382},{"NoteNumber":55,"Velocity":28,"Duration":137918,"SoundDuration":137918,"Delta":400303273},{"NoteNumber":55,"Velocity":28,"Duration":137918,"SoundDuration":137918,"Delta":400487164},{"NoteNumber":74,"Velocity":35,"Duration":551672,"SoundDuration":551672,"Delta":400671055},{"NoteNumber":79,"Velocity":35,"Duration":551672,"SoundDuration":551672,"Delta":400671055},{"NoteNumber":81,"Velocity":52,"Duration":413754,"SoundDuration":413754,"Delta":400671055},{"NoteNumber":65,"Velocity":39,"Duration":551672,"SoundDuration":551672,"Delta":400671055},{"NoteNumber":55,"Velocity":31,"Duration":137918,"SoundDuration":137918,"Delta":400671055},{"NoteNumber":55,"Velocity":28,"Duration":137918,"SoundDuration":137918,"Delta":400854946},{"NoteNumber":55,"Velocity":31,"Duration":137918,"SoundDuration":137918,"Delta":401038837},{"NoteNumber":83,"Velocity":52,"Duration":137918,"SoundDuration":137918,"Delta":401084810},{"NoteNumber":72,"Velocity":35,"Duration":575153,"SoundDuration":575153,"Delta":401222728},{"NoteNumber":79,"Velocity":35,"Duration":575153,"SoundDuration":575153,"Delta":401222728},{"NoteNumber":84,"Velocity":57,"Duration":575153,"SoundDuration":575153,"Delta":401222728},{"NoteNumber":63,"Velocity":37,"Duration":575153,"SoundDuration":575153,"Delta":401222728},{"NoteNumber":55,"Velocity":36,"Duration":143788,"SoundDuration":143788,"Delta":401222728},{"NoteNumber":55,"Velocity":29,"Duration":143788,"SoundDuration":143788,"Delta":401414446},{"NoteNumber":55,"Velocity":29,"Duration":143788,"SoundDuration":143788,"Delta":401606164},{"NoteNumber":79,"Velocity":35,"Duration":567352,"SoundDuration":567352,"Delta":401797881},{"NoteNumber":83,"Velocity":39,"Duration":419307,"SoundDuration":419307,"Delta":401797881},{"NoteNumber":86,"Velocity":51,"Duration":419307,"SoundDuration":419307,"Delta":401797881},{"NoteNumber":60,"Velocity":35,"Duration":567352,"SoundDuration":567352,"Delta":401797881},{"NoteNumber":55,"Velocity":36,"Duration":139769,"SoundDuration":139769,"Delta":401797881},{"NoteNumber":55,"Velocity":31,"Duration":139769,"SoundDuration":139769,"Delta":401984240},{"NoteNumber":55,"Velocity":31,"Duration":145286,"SoundDuration":145286,"Delta":402170599},{"NoteNumber":84,"Velocity":40,"Duration":148045,"SoundDuration":148045,"Delta":402217188},{"NoteNumber":87,"Velocity":52,"Duration":148045,"SoundDuration":148045,"Delta":402217188},{"NoteNumber":79,"Velocity":39,"Duration":1776548,"SoundDuration":1776548,"Delta":402365234},{"NoteNumber":83,"Velocity":39,"Duration":1776548,"SoundDuration":1776548,"Delta":402365234},{"NoteNumber":86,"Velocity":51,"Duration":1776548,"SoundDuration":1776548,"Delta":402365234},{"NoteNumber":67,"Velocity":35,"Duration":1184366,"SoundDuration":1184366,"Delta":402365234},{"NoteNumber":55,"Velocity":37,"Duration":148045,"SoundDuration":148045,"Delta":402365234},{"NoteNumber":55,"Velocity":29,"Duration":148045,"SoundDuration":148045,"Delta":402562628},{"NoteNumber":55,"Velocity":29,"Duration":148045,"SoundDuration":148045,"Delta":402760023},{"NoteNumber":55,"Velocity":42,"Duration":148045,"SoundDuration":148045,"Delta":402957417},{"NoteNumber":55,"Velocity":35,"Duration":148045,"SoundDuration":148045,"Delta":403154811},{"NoteNumber":55,"Velocity":37,"Duration":148045,"SoundDuration":148045,"Delta":403352206},{"NoteNumber":55,"Velocity":49,"Duration":197394,"SoundDuration":197394,"Delta":403549600},{"NoteNumber":56,"Velocity":36,"Duration":197394,"SoundDuration":197394,"Delta":403746994},{"NoteNumber":57,"Velocity":36,"Duration":197394,"SoundDuration":197394,"Delta":403944389},{"NoteNumber":74,"Velocity":55,"Duration":413754,"SoundDuration":413754,"Delta":404141783},{"NoteNumber":58,"Velocity":52,"Duration":137918,"SoundDuration":137918,"Delta":404141783},{"NoteNumber":58,"Velocity":45,"Duration":137918,"SoundDuration":137918,"Delta":404325674},{"NoteNumber":58,"Velocity":52,"Duration":137918,"SoundDuration":137918,"Delta":404509565},{"NoteNumber":75,"Velocity":47,"Duration":137918,"SoundDuration":137918,"Delta":404555538},{"NoteNumber":77,"Velocity":64,"Duration":388469,"SoundDuration":388469,"Delta":404693456},{"NoteNumber":58,"Velocity":52,"Duration":137918,"SoundDuration":137918,"Delta":404693456},{"NoteNumber":58,"Velocity":46,"Duration":137918,"SoundDuration":137918,"Delta":404877347},{"NoteNumber":58,"Velocity":46,"Duration":137918,"SoundDuration":137918,"Delta":405061238},{"NoteNumber":71,"Velocity":44,"Duration":413754,"SoundDuration":413754,"Delta":405245129},{"NoteNumber":68,"Velocity":44,"Duration":413754,"SoundDuration":413754,"Delta":405245129},{"NoteNumber":74,"Velocity":44,"Duration":413754,"SoundDuration":413754,"Delta":405245129},{"NoteNumber":77,"Velocity":52,"Duration":388469,"SoundDuration":388469,"Delta":405245129},{"NoteNumber":58,"Velocity":44,"Duration":137918,"SoundDuration":137918,"Delta":405245129},{"NoteNumber":65,"Velocity":52,"Duration":137918,"SoundDuration":137918,"Delta":405245129},{"NoteNumber":58,"Velocity":39,"Duration":137918,"SoundDuration":137918,"Delta":405429020},{"NoteNumber":65,"Velocity":46,"Duration":137918,"SoundDuration":137918,"Delta":405429020},{"NoteNumber":58,"Velocity":39,"Duration":137918,"SoundDuration":137918,"Delta":405612911},{"NoteNumber":65,"Velocity":46,"Duration":137918,"SoundDuration":137918,"Delta":405612911},{"NoteNumber":68,"Velocity":44,"Duration":386863,"SoundDuration":386863,"Delta":405796802},{"NoteNumber":70,"Velocity":44,"Duration":386863,"SoundDuration":386863,"Delta":405796802},{"NoteNumber":77,"Velocity":52,"Duration":363221,"SoundDuration":363221,"Delta":405796802},{"NoteNumber":58,"Velocity":44,"Duration":128954,"SoundDuration":128954,"Delta":405796802},{"NoteNumber":62,"Velocity":52,"Duration":128954,"SoundDuration":128954,"Delta":405796802},{"NoteNumber":58,"Velocity":38,"Duration":128954,"SoundDuration":128954,"Delta":405968741},{"NoteNumber":62,"Velocity":45,"Duration":128954,"SoundDuration":128954,"Delta":405968741},{"NoteNumber":58,"Velocity":45,"Duration":128954,"SoundDuration":128954,"Delta":406140681},{"NoteNumber":62,"Velocity":45,"Duration":128954,"SoundDuration":128954,"Delta":406140681},{"NoteNumber":70,"Velocity":39,"Duration":581318,"SoundDuration":581318,"Delta":406312620},{"NoteNumber":68,"Velocity":39,"Duration":581318,"SoundDuration":581318,"Delta":406312620},{"NoteNumber":75,"Velocity":47,"Duration":60817,"SoundDuration":60817,"Delta":406312620},{"NoteNumber":58,"Velocity":52,"Duration":121634,"SoundDuration":121634,"Delta":406312620},{"NoteNumber":77,"Velocity":47,"Duration":60817,"SoundDuration":60817,"Delta":406373437},{"NoteNumber":75,"Velocity":70,"Duration":292683,"SoundDuration":292683,"Delta":406434255},{"NoteNumber":58,"Velocity":47,"Duration":146341,"SoundDuration":146341,"Delta":406483035},{"NoteNumber":58,"Velocity":47,"Duration":160114,"SoundDuration":160114,"Delta":406678157},{"NoteNumber":74,"Velocity":58,"Duration":167000,"SoundDuration":167000,"Delta":406726938},{"NoteNumber":70,"Velocity":56,"Duration":544588,"SoundDuration":544588,"Delta":406893938},{"NoteNumber":67,"Velocity":56,"Duration":544588,"SoundDuration":544588,"Delta":406893938},{"NoteNumber":79,"Velocity":66,"Duration":820273,"SoundDuration":820273,"Delta":406893938},{"NoteNumber":63,"Velocity":56,"Duration":141083,"SoundDuration":141083,"Delta":406893938},{"NoteNumber":63,"Velocity":39,"Duration":137792,"SoundDuration":137792,"Delta":407082050},{"NoteNumber":63,"Velocity":39,"Duration":131210,"SoundDuration":131210,"Delta":407263579},{"NoteNumber":74,"Velocity":44,"Duration":551369,"SoundDuration":551369,"Delta":407438527},{"NoteNumber":68,"Velocity":36,"Duration":551369,"SoundDuration":551369,"Delta":407438527},{"NoteNumber":59,"Velocity":38,"Duration":137842,"SoundDuration":137842,"Delta":407438527},{"NoteNumber":62,"Velocity":38,"Duration":137842,"SoundDuration":137842,"Delta":407438527},{"NoteNumber":65,"Velocity":45,"Duration":137842,"SoundDuration":137842,"Delta":407438527},{"NoteNumber":59,"Velocity":32,"Duration":137842,"SoundDuration":137842,"Delta":407622317},{"NoteNumber":62,"Velocity":32,"Duration":137842,"SoundDuration":137842,"Delta":407622317},{"NoteNumber":65,"Velocity":38,"Duration":137842,"SoundDuration":137842,"Delta":407622317},{"NoteNumber":77,"Velocity":55,"Duration":275684,"SoundDuration":275684,"Delta":407714211},{"NoteNumber":59,"Velocity":32,"Duration":137842,"SoundDuration":137842,"Delta":407806106},{"NoteNumber":62,"Velocity":32,"Duration":137842,"SoundDuration":137842,"Delta":407806106},{"NoteNumber":65,"Velocity":38,"Duration":137842,"SoundDuration":137842,"Delta":407806106},{"NoteNumber":67,"Velocity":56,"Duration":551368,"SoundDuration":551368,"Delta":407989896},{"NoteNumber":75,"Velocity":48,"Duration":551368,"SoundDuration":551368,"Delta":407989896},{"NoteNumber":63,"Velocity":47,"Duration":137842,"SoundDuration":137842,"Delta":407989896},{"NoteNumber":60,"Velocity":39,"Duration":137842,"SoundDuration":137842,"Delta":407989896},{"NoteNumber":63,"Velocity":42,"Duration":137842,"SoundDuration":137842,"Delta":408173686},{"NoteNumber":60,"Velocity":35,"Duration":137842,"SoundDuration":137842,"Delta":408173686},{"NoteNumber":63,"Velocity":42,"Duration":137842,"SoundDuration":137842,"Delta":408357475},{"NoteNumber":60,"Velocity":35,"Duration":137842,"SoundDuration":137842,"Delta":408357475},{"NoteNumber":65,"Velocity":53,"Duration":407313,"SoundDuration":407313,"Delta":408541265},{"NoteNumber":68,"Velocity":46,"Duration":549723,"SoundDuration":549723,"Delta":408541265},{"NoteNumber":74,"Velocity":63,"Duration":407313,"SoundDuration":407313,"Delta":408541265},{"NoteNumber":53,"Velocity":44,"Duration":135771,"SoundDuration":135771,"Delta":408541265},{"NoteNumber":56,"Velocity":52,"Duration":135771,"SoundDuration":135771,"Delta":408541265},{"NoteNumber":53,"Velocity":38,"Duration":135771,"SoundDuration":135771,"Delta":408722293},{"NoteNumber":56,"Velocity":45,"Duration":135771,"SoundDuration":135771,"Delta":408722293},{"NoteNumber":53,"Velocity":38,"Duration":140196,"SoundDuration":140196,"Delta":408903322},{"NoteNumber":56,"Velocity":45,"Duration":140196,"SoundDuration":140196,"Delta":408903322},{"NoteNumber":63,"Velocity":46,"Duration":142409,"SoundDuration":142409,"Delta":408948579},{"NoteNumber":72,"Velocity":54,"Duration":142409,"SoundDuration":142409,"Delta":408948579},{"NoteNumber":62,"Velocity":50,"Duration":551672,"SoundDuration":551672,"Delta":409090988},{"NoteNumber":67,"Velocity":50,"Duration":551672,"SoundDuration":551672,"Delta":409090988},{"NoteNumber":71,"Velocity":59,"Duration":551672,"SoundDuration":551672,"Delta":409090988},{"NoteNumber":55,"Velocity":50,"Duration":137918,"SoundDuration":137918,"Delta":409090988},{"NoteNumber":55,"Velocity":40,"Duration":137918,"SoundDuration":137918,"Delta":409274879},{"NoteNumber":55,"Velocity":40,"Duration":137918,"SoundDuration":137918,"Delta":409458770},{"NoteNumber":62,"Velocity":49,"Duration":551672,"SoundDuration":551672,"Delta":409642661},{"NoteNumber":67,"Velocity":47,"Duration":551672,"SoundDuration":551672,"Delta":409642661},{"NoteNumber":69,"Velocity":61,"Duration":413754,"SoundDuration":413754,"Delta":409642661},{"NoteNumber":53,"Velocity":42,"Duration":137918,"SoundDuration":137918,"Delta":409642661},{"NoteNumber":55,"Velocity":50,"Duration":137918,"SoundDuration":137918,"Delta":409642661},{"NoteNumber":55,"Velocity":39,"Duration":137918,"SoundDuration":137918,"Delta":409826552},{"NoteNumber":55,"Velocity":39,"Duration":137918,"SoundDuration":137918,"Delta":410010443},{"NoteNumber":71,"Velocity":50,"Duration":137918,"SoundDuration":137918,"Delta":410056416},{"NoteNumber":60,"Velocity":63,"Duration":563538,"SoundDuration":563538,"Delta":410194334},{"NoteNumber":67,"Velocity":63,"Duration":563538,"SoundDuration":563538,"Delta":410194334},{"NoteNumber":72,"Velocity":63,"Duration":563538,"SoundDuration":563538,"Delta":410194334},{"NoteNumber":51,"Velocity":39,"Duration":140884,"SoundDuration":140884,"Delta":410194334},{"NoteNumber":55,"Velocity":47,"Duration":140884,"SoundDuration":140884,"Delta":410194334},{"NoteNumber":55,"Velocity":38,"Duration":140884,"SoundDuration":140884,"Delta":410382181},{"NoteNumber":55,"Velocity":38,"Duration":140884,"SoundDuration":140884,"Delta":410570027},{"NoteNumber":67,"Velocity":53,"Duration":570699,"SoundDuration":570699,"Delta":410757873},{"NoteNumber":77,"Velocity":63,"Duration":422654,"SoundDuration":422654,"Delta":410757873},{"NoteNumber":48,"Velocity":40,"Duration":140884,"SoundDuration":140884,"Delta":410757873},{"NoteNumber":55,"Velocity":48,"Duration":140884,"SoundDuration":140884,"Delta":410757873},{"NoteNumber":55,"Velocity":38,"Duration":140884,"SoundDuration":140884,"Delta":410945720},{"NoteNumber":55,"Velocity":38,"Duration":145658,"SoundDuration":145658,"Delta":411133566},{"NoteNumber":72,"Velocity":46,"Duration":148045,"SoundDuration":148045,"Delta":411180527},{"NoteNumber":75,"Velocity":55,"Duration":148045,"SoundDuration":148045,"Delta":411180527},{"NoteNumber":71,"Velocity":43,"Duration":1719755,"SoundDuration":1719755,"Delta":411328573},{"NoteNumber":67,"Velocity":43,"Duration":1719755,"SoundDuration":1719755,"Delta":411328573},{"NoteNumber":74,"Velocity":51,"Duration":1719755,"SoundDuration":1719755,"Delta":411328573},{"NoteNumber":43,"Velocity":45,"Duration":148045,"SoundDuration":148045,"Delta":411328573},{"NoteNumber":55,"Velocity":45,"Duration":148045,"SoundDuration":148045,"Delta":411328573},{"NoteNumber":55,"Velocity":36,"Duration":148045,"SoundDuration":148045,"Delta":411525968},{"NoteNumber":55,"Velocity":36,"Duration":148045,"SoundDuration":148045,"Delta":411723362},{"NoteNumber":55,"Velocity":42,"Duration":138964,"SoundDuration":138964,"Delta":411918162},{"NoteNumber":55,"Velocity":35,"Duration":139828,"SoundDuration":139828,"Delta":412103638},{"NoteNumber":55,"Velocity":37,"Duration":140702,"SoundDuration":140702,"Delta":412290195},{"NoteNumber":55,"Velocity":49,"Duration":141587,"SoundDuration":141587,"Delta":412477923},{"NoteNumber":55,"Velocity":36,"Duration":142484,"SoundDuration":142484,"Delta":412666905},{"NoteNumber":55,"Velocity":36,"Duration":143392,"SoundDuration":143392,"Delta":412857008},{"NoteNumber":59,"Velocity":57,"Duration":413754,"SoundDuration":413754,"Delta":413048328},{"NoteNumber":67,"Velocity":57,"Duration":413754,"SoundDuration":413754,"Delta":413048328},{"NoteNumber":71,"Velocity":68,"Duration":413754,"SoundDuration":413754,"Delta":413048328},{"NoteNumber":55,"Velocity":57,"Duration":137918,"SoundDuration":137918,"Delta":413048328},{"NoteNumber":55,"Velocity":49,"Duration":137918,"SoundDuration":137918,"Delta":413232219},{"NoteNumber":55,"Velocity":57,"Duration":145475,"SoundDuration":145475,"Delta":413416110},{"NoteNumber":60,"Velocity":55,"Duration":149253,"SoundDuration":149253,"Delta":413462083},{"NoteNumber":69,"Velocity":55,"Duration":149253,"SoundDuration":149253,"Delta":413462083},{"NoteNumber":72,"Velocity":66,"Duration":149253,"SoundDuration":149253,"Delta":413462083},{"NoteNumber":62,"Velocity":67,"Duration":554144,"SoundDuration":554144,"Delta":413611337},{"NoteNumber":71,"Velocity":67,"Duration":554144,"SoundDuration":554144,"Delta":413611337},{"NoteNumber":74,"Velocity":80,"Duration":554144,"SoundDuration":554144,"Delta":413611337},{"NoteNumber":55,"Velocity":64,"Duration":139725,"SoundDuration":139725,"Delta":413611337},{"NoteNumber":55,"Velocity":51,"Duration":138750,"SoundDuration":138750,"Delta":413797574},{"NoteNumber":55,"Velocity":51,"Duration":137478,"SoundDuration":137478,"Delta":413982408},{"NoteNumber":62,"Velocity":55,"Duration":538867,"SoundDuration":538867,"Delta":414165482},{"NoteNumber":71,"Velocity":55,"Duration":538867,"SoundDuration":538867,"Delta":414165482},{"NoteNumber":74,"Velocity":66,"Duration":538867,"SoundDuration":538867,"Delta":414165482},{"NoteNumber":55,"Velocity":57,"Duration":136091,"SoundDuration":136091,"Delta":414165482},{"NoteNumber":54,"Velocity":57,"Duration":136091,"SoundDuration":136091,"Delta":414165482},{"NoteNumber":55,"Velocity":47,"Duration":134867,"SoundDuration":134867,"Delta":414346755},{"NoteNumber":54,"Velocity":47,"Duration":134867,"SoundDuration":134867,"Delta":414346755},{"NoteNumber":55,"Velocity":47,"Duration":133665,"SoundDuration":133665,"Delta":414526401},{"NoteNumber":54,"Velocity":47,"Duration":133665,"SoundDuration":133665,"Delta":414526401},{"NoteNumber":62,"Velocity":56,"Duration":533333,"SoundDuration":533333,"Delta":414704349},{"NoteNumber":71,"Velocity":56,"Duration":533333,"SoundDuration":533333,"Delta":414704349},{"NoteNumber":74,"Velocity":67,"Duration":533333,"SoundDuration":533333,"Delta":414704349},{"NoteNumber":53,"Velocity":60,"Duration":133333,"SoundDuration":133333,"Delta":414704349},{"NoteNumber":55,"Velocity":60,"Duration":133333,"SoundDuration":133333,"Delta":414704349},{"NoteNumber":55,"Velocity":50,"Duration":133333,"SoundDuration":133333,"Delta":414882126},{"NoteNumber":52,"Velocity":50,"Duration":133333,"SoundDuration":133333,"Delta":414882126},{"NoteNumber":55,"Velocity":51,"Duration":133333,"SoundDuration":133333,"Delta":415059904},{"NoteNumber":50,"Velocity":51,"Duration":133333,"SoundDuration":133333,"Delta":415059904},{"NoteNumber":64,"Velocity":53,"Duration":413754,"SoundDuration":413754,"Delta":415237682},{"NoteNumber":72,"Velocity":53,"Duration":413754,"SoundDuration":413754,"Delta":415237682},{"NoteNumber":76,"Velocity":63,"Duration":413754,"SoundDuration":413754,"Delta":415237682},{"NoteNumber":55,"Velocity":61,"Duration":137918,"SoundDuration":137918,"Delta":415237682},{"NoteNumber":48,"Velocity":61,"Duration":137918,"SoundDuration":137918,"Delta":415237682},{"NoteNumber":47,"Velocity":50,"Duration":137918,"SoundDuration":137918,"Delta":415421573},{"NoteNumber":55,"Velocity":50,"Duration":137918,"SoundDuration":137918,"Delta":415421573},{"NoteNumber":55,"Velocity":51,"Duration":175305,"SoundDuration":175305,"Delta":415605464},{"NoteNumber":46,"Velocity":52,"Duration":175305,"SoundDuration":175305,"Delta":415605464},{"NoteNumber":65,"Velocity":54,"Duration":193999,"SoundDuration":193999,"Delta":415651436},{"NoteNumber":74,"Velocity":54,"Duration":193999,"SoundDuration":193999,"Delta":415651436},{"NoteNumber":77,"Velocity":79,"Duration":193999,"SoundDuration":193999,"Delta":415651436},{"NoteNumber":76,"Velocity":67,"Duration":819136,"SoundDuration":819136,"Delta":415845435},{"NoteNumber":67,"Velocity":67,"Duration":819136,"SoundDuration":819136,"Delta":415845435},{"NoteNumber":79,"Velocity":93,"Duration":819136,"SoundDuration":819136,"Delta":415845435},{"NoteNumber":45,"Velocity":71,"Duration":140423,"SoundDuration":140423,"Delta":415845435},{"NoteNumber":55,"Velocity":71,"Duration":140423,"SoundDuration":140423,"Delta":415845435},{"NoteNumber":45,"Velocity":54,"Duration":137668,"SoundDuration":137668,"Delta":416032666},{"NoteNumber":55,"Velocity":54,"Duration":137668,"SoundDuration":137668,"Delta":416032666},{"NoteNumber":55,"Velocity":53,"Duration":132158,"SoundDuration":132158,"Delta":416214388},{"NoteNumber":45,"Velocity":53,"Duration":132158,"SoundDuration":132158,"Delta":416214388},{"NoteNumber":45,"Velocity":61,"Duration":136986,"SoundDuration":136986,"Delta":416390599},{"NoteNumber":55,"Velocity":61,"Duration":136986,"SoundDuration":136986,"Delta":416390599},{"NoteNumber":45,"Velocity":49,"Duration":136986,"SoundDuration":136986,"Delta":416573247},{"NoteNumber":55,"Velocity":49,"Duration":136986,"SoundDuration":136986,"Delta":416573247},{"NoteNumber":74,"Velocity":62,"Duration":273972,"SoundDuration":273972,"Delta":416664571},{"NoteNumber":65,"Velocity":62,"Duration":273972,"SoundDuration":273972,"Delta":416664571},{"NoteNumber":77,"Velocity":74,"Duration":273972,"SoundDuration":273972,"Delta":416664571},{"NoteNumber":45,"Velocity":47,"Duration":136986,"SoundDuration":136986,"Delta":416755896},{"NoteNumber":55,"Velocity":47,"Duration":136986,"SoundDuration":136986,"Delta":416755896},{"NoteNumber":64,"Velocity":55,"Duration":563827,"SoundDuration":563827,"Delta":416938544},{"NoteNumber":73,"Velocity":55,"Duration":563827,"SoundDuration":563827,"Delta":416938544},{"NoteNumber":76,"Velocity":77,"Duration":563827,"SoundDuration":563827,"Delta":416938544},{"NoteNumber":45,"Velocity":56,"Duration":136986,"SoundDuration":136986,"Delta":416938544},{"NoteNumber":55,"Velocity":56,"Duration":136986,"SoundDuration":136986,"Delta":416938544},{"NoteNumber":45,"Velocity":43,"Duration":139633,"SoundDuration":139633,"Delta":417121192},{"NoteNumber":45,"Velocity":43,"Duration":144927,"SoundDuration":144927,"Delta":417309135},{"NoteNumber":45,"Velocity":54,"Duration":144927,"SoundDuration":144927,"Delta":417502371},{"NoteNumber":45,"Velocity":46,"Duration":144927,"SoundDuration":144927,"Delta":417695608},{"NoteNumber":45,"Velocity":46,"Duration":144927,"SoundDuration":144927,"Delta":417888845},{"NoteNumber":55,"Velocity":51,"Duration":1678850,"SoundDuration":1678850,"Delta":418082081},{"NoteNumber":61,"Velocity":51,"Duration":1678850,"SoundDuration":1678850,"Delta":418082081},{"NoteNumber":64,"Velocity":60,"Duration":831122,"SoundDuration":831122,"Delta":418082081},{"NoteNumber":46,"Velocity":50,"Duration":140845,"SoundDuration":140845,"Delta":418082081},{"NoteNumber":45,"Velocity":41,"Duration":138739,"SoundDuration":138739,"Delta":418269875},{"NoteNumber":45,"Velocity":41,"Duration":134529,"SoundDuration":134529,"Delta":418453458},{"NoteNumber":45,"Velocity":48,"Duration":140187,"SoundDuration":140187,"Delta":418632830},{"NoteNumber":45,"Velocity":41,"Duration":140627,"SoundDuration":140627,"Delta":418819746},{"NoteNumber":65,"Velocity":54,"Duration":283019,"SoundDuration":283019,"Delta":418913204},{"NoteNumber":45,"Velocity":41,"Duration":141509,"SoundDuration":141509,"Delta":419007544},{"NoteNumber":64,"Velocity":50,"Duration":564708,"SoundDuration":564708,"Delta":419196223},{"NoteNumber":45,"Velocity":49,"Duration":141509,"SoundDuration":141509,"Delta":419196223},{"NoteNumber":45,"Velocity":41,"Duration":141287,"SoundDuration":141287,"Delta":419384902},{"NoteNumber":45,"Velocity":41,"Duration":140844,"SoundDuration":140844,"Delta":419573139},{"NoteNumber":45,"Velocity":41,"Duration":142179,"SoundDuration":142179,"Delta":419760932},{"NoteNumber":45,"Velocity":41,"Duration":142179,"SoundDuration":142179,"Delta":419950505},{"NoteNumber":45,"Velocity":41,"Duration":142179,"SoundDuration":142179,"Delta":420140079},{"NoteNumber":74,"Velocity":67,"Duration":819136,"SoundDuration":819136,"Delta":420329652},{"NoteNumber":65,"Velocity":67,"Duration":819136,"SoundDuration":819136,"Delta":420329652},{"NoteNumber":77,"Velocity":93,"Duration":819136,"SoundDuration":819136,"Delta":420329652},{"NoteNumber":44,"Velocity":71,"Duration":140423,"SoundDuration":140423,"Delta":420329652},{"NoteNumber":44,"Velocity":54,"Duration":137668,"SoundDuration":137668,"Delta":420516883},{"NoteNumber":44,"Velocity":53,"Duration":132158,"SoundDuration":132158,"Delta":420698604},{"NoteNumber":44,"Velocity":61,"Duration":136986,"SoundDuration":136986,"Delta":420874815},{"NoteNumber":44,"Velocity":49,"Duration":136986,"SoundDuration":136986,"Delta":421057464},{"NoteNumber":72,"Velocity":62,"Duration":273972,"SoundDuration":273972,"Delta":421148788},{"NoteNumber":63,"Velocity":62,"Duration":273972,"SoundDuration":273972,"Delta":421148788},{"NoteNumber":75,"Velocity":74,"Duration":273972,"SoundDuration":273972,"Delta":421148788},{"NoteNumber":44,"Velocity":47,"Duration":136986,"SoundDuration":136986,"Delta":421240112},{"NoteNumber":62,"Velocity":55,"Duration":563827,"SoundDuration":563827,"Delta":421422760},{"NoteNumber":71,"Velocity":55,"Duration":563827,"SoundDuration":563827,"Delta":421422760},{"NoteNumber":74,"Velocity":77,"Duration":563827,"SoundDuration":563827,"Delta":421422760},{"NoteNumber":44,"Velocity":56,"Duration":136986,"SoundDuration":136986,"Delta":421422760},{"NoteNumber":44,"Velocity":43,"Duration":139633,"SoundDuration":139633,"Delta":421605409},{"NoteNumber":44,"Velocity":43,"Duration":144927,"SoundDuration":144927,"Delta":421793351},{"NoteNumber":44,"Velocity":54,"Duration":144927,"SoundDuration":144927,"Delta":421986588},{"NoteNumber":44,"Velocity":46,"Duration":144927,"SoundDuration":144927,"Delta":422179825},{"NoteNumber":44,"Velocity":46,"Duration":144927,"SoundDuration":144927,"Delta":422373061},{"NoteNumber":53,"Velocity":51,"Duration":1678850,"SoundDuration":1678850,"Delta":422566298},{"NoteNumber":59,"Velocity":51,"Duration":1678850,"SoundDuration":1678850,"Delta":422566298},{"NoteNumber":62,"Velocity":60,"Duration":831122,"SoundDuration":831122,"Delta":422566298},{"NoteNumber":43,"Velocity":50,"Duration":140845,"SoundDuration":140845,"Delta":422566298},{"NoteNumber":44,"Velocity":41,"Duration":138739,"SoundDuration":138739,"Delta":422754091},{"NoteNumber":44,"Velocity":41,"Duration":134529,"SoundDuration":134529,"Delta":422937674},{"NoteNumber":44,"Velocity":48,"Duration":140187,"SoundDuration":140187,"Delta":423117046},{"NoteNumber":44,"Velocity":41,"Duration":140627,"SoundDuration":140627,"Delta":423303962},{"NoteNumber":63,"Velocity":54,"Duration":283019,"SoundDuration":283019,"Delta":423397420},{"NoteNumber":44,"Velocity":41,"Duration":141509,"SoundDuration":141509,"Delta":423491760},{"NoteNumber":62,"Velocity":50,"Duration":564708,"SoundDuration":564708,"Delta":423680439},{"NoteNumber":44,"Velocity":49,"Duration":141509,"SoundDuration":141509,"Delta":423680439},{"NoteNumber":44,"Velocity":41,"Duration":141287,"SoundDuration":141287,"Delta":423869119},{"NoteNumber":44,"Velocity":41,"Duration":140844,"SoundDuration":140844,"Delta":424057355},{"NoteNumber":43,"Velocity":41,"Duration":142179,"SoundDuration":142179,"Delta":424245148},{"NoteNumber":43,"Velocity":41,"Duration":142179,"SoundDuration":142179,"Delta":424434722},{"NoteNumber":43,"Velocity":41,"Duration":142179,"SoundDuration":142179,"Delta":424624295},{"NoteNumber":69,"Velocity":43,"Duration":2260745,"SoundDuration":2260745,"Delta":424813868},{"NoteNumber":75,"Velocity":60,"Duration":1121519,"SoundDuration":1121519,"Delta":424813868},{"NoteNumber":42,"Velocity":34,"Duration":140845,"SoundDuration":140845,"Delta":424813868},{"NoteNumber":48,"Velocity":53,"Duration":1121519,"SoundDuration":1121519,"Delta":424813868},{"NoteNumber":42,"Velocity":34,"Duration":140845,"SoundDuration":140845,"Delta":425001662},{"NoteNumber":42,"Velocity":34,"Duration":140845,"SoundDuration":140845,"Delta":425189455},{"NoteNumber":42,"Velocity":41,"Duration":139535,"SoundDuration":139535,"Delta":425377248},{"NoteNumber":42,"Velocity":33,"Duration":139535,"SoundDuration":139535,"Delta":425563295},{"NoteNumber":42,"Velocity":33,"Duration":139534,"SoundDuration":139534,"Delta":425749342},{"NoteNumber":74,"Velocity":53,"Duration":558139,"SoundDuration":558139,"Delta":425935388},{"NoteNumber":42,"Velocity":34,"Duration":139535,"SoundDuration":139535,"Delta":425935388},{"NoteNumber":50,"Velocity":43,"Duration":558139,"SoundDuration":558139,"Delta":425935388},{"NoteNumber":42,"Velocity":32,"Duration":139535,"SoundDuration":139535,"Delta":426121435},{"NoteNumber":42,"Velocity":32,"Duration":139534,"SoundDuration":139534,"Delta":426307482},{"NoteNumber":72,"Velocity":50,"Duration":581086,"SoundDuration":581086,"Delta":426493528},{"NoteNumber":42,"Velocity":34,"Duration":140187,"SoundDuration":140187,"Delta":426493528},{"NoteNumber":51,"Velocity":44,"Duration":581086,"SoundDuration":581086,"Delta":426493528},{"NoteNumber":42,"Velocity":33,"Duration":140187,"SoundDuration":140187,"Delta":426680444},{"NoteNumber":42,"Velocity":33,"Duration":155440,"SoundDuration":155440,"Delta":426867360},{"NoteNumber":67,"Velocity":51,"Duration":1135350,"SoundDuration":1135350,"Delta":427074614},{"NoteNumber":43,"Velocity":34,"Duration":138889,"SoundDuration":138889,"Delta":427074614},{"NoteNumber":52,"Velocity":46,"Duration":1135350,"SoundDuration":1135350,"Delta":427074614},{"NoteNumber":43,"Velocity":34,"Duration":138889,"SoundDuration":138889,"Delta":427259800},{"NoteNumber":43,"Velocity":34,"Duration":138889,"SoundDuration":138889,"Delta":427444985},{"NoteNumber":43,"Velocity":34,"Duration":138888,"SoundDuration":138888,"Delta":427630170},{"NoteNumber":43,"Velocity":34,"Duration":138889,"SoundDuration":138889,"Delta":427815356},{"NoteNumber":43,"Velocity":34,"Duration":157067,"SoundDuration":157067,"Delta":428000541},{"NoteNumber":72,"Velocity":51,"Duration":281690,"SoundDuration":281690,"Delta":428209965},{"NoteNumber":65,"Velocity":36,"Duration":1136986,"SoundDuration":1136986,"Delta":428209965},{"NoteNumber":43,"Velocity":34,"Duration":140845,"SoundDuration":140845,"Delta":428209965},{"NoteNumber":50,"Velocity":45,"Duration":1136986,"SoundDuration":1136986,"Delta":428209965},{"NoteNumber":43,"Velocity":34,"Duration":140845,"SoundDuration":140845,"Delta":428397758},{"NoteNumber":71,"Velocity":46,"Duration":281689,"SoundDuration":281689,"Delta":428491655},{"NoteNumber":43,"Velocity":35,"Duration":140845,"SoundDuration":140845,"Delta":428585552},{"NoteNumber":69,"Velocity":49,"Duration":281690,"SoundDuration":281690,"Delta":428773345},{"NoteNumber":43,"Velocity":35,"Duration":140845,"SoundDuration":140845,"Delta":428773345},{"NoteNumber":43,"Velocity":30,"Duration":140845,"SoundDuration":140845,"Delta":428961138},{"NoteNumber":71,"Velocity":41,"Duration":291916,"SoundDuration":291916,"Delta":429055035},{"NoteNumber":43,"Velocity":30,"Duration":148514,"SoundDuration":148514,"Delta":429148932},{"NoteNumber":64,"Velocity":34,"Duration":3366791,"SoundDuration":3366791,"Delta":429346951},{"NoteNumber":72,"Velocity":48,"Duration":3955026,"SoundDuration":3955026,"Delta":429346951},{"NoteNumber":36,"Velocity":32,"Duration":140845,"SoundDuration":140845,"Delta":429346951},{"NoteNumber":48,"Velocity":38,"Duration":3366791,"SoundDuration":3366791,"Delta":429346951},{"NoteNumber":36,"Velocity":38,"Duration":140845,"SoundDuration":140845,"Delta":429534745},{"NoteNumber":36,"Velocity":37,"Duration":140845,"SoundDuration":140845,"Delta":429722538},{"NoteNumber":36,"Velocity":37,"Duration":138889,"SoundDuration":138889,"Delta":429910331},{"NoteNumber":36,"Velocity":36,"Duration":138889,"SoundDuration":138889,"Delta":430095517},{"NoteNumber":36,"Velocity":35,"Duration":138889,"SoundDuration":138889,"Delta":430280702},{"NoteNumber":36,"Velocity":35,"Duration":140187,"SoundDuration":140187,"Delta":430465887},{"NoteNumber":36,"Velocity":34,"Duration":140187,"SoundDuration":140187,"Delta":430652803},{"NoteNumber":36,"Velocity":34,"Duration":140187,"SoundDuration":140187,"Delta":430839719},{"NoteNumber":36,"Velocity":33,"Duration":140845,"SoundDuration":140845,"Delta":431026635},{"NoteNumber":36,"Velocity":33,"Duration":140845,"SoundDuration":140845,"Delta":431214429},{"NoteNumber":36,"Velocity":32,"Duration":140845,"SoundDuration":140845,"Delta":431402222},{"NoteNumber":36,"Velocity":31,"Duration":138889,"SoundDuration":138889,"Delta":431590015},{"NoteNumber":36,"Velocity":31,"Duration":138889,"SoundDuration":138889,"Delta":431775201},{"NoteNumber":36,"Velocity":30,"Duration":138889,"SoundDuration":138889,"Delta":431960386},{"NoteNumber":36,"Velocity":30,"Duration":139535,"SoundDuration":139535,"Delta":432145571},{"NoteNumber":36,"Velocity":29,"Duration":139535,"SoundDuration":139535,"Delta":432331618},{"NoteNumber":36,"Velocity":28,"Duration":147058,"SoundDuration":147058,"Delta":432517665},{"NoteNumber":36,"Velocity":34,"Duration":588234,"SoundDuration":588234,"Delta":432713743},{"NoteNumber":71,"Velocity":37,"Duration":413754,"SoundDuration":413754,"Delta":433301978},{"NoteNumber":72,"Velocity":32,"Duration":137918,"SoundDuration":137918,"Delta":433715733},{"NoteNumber":74,"Velocity":43,"Duration":397385,"SoundDuration":397385,"Delta":433853651},{"NoteNumber":74,"Velocity":35,"Duration":394860,"SoundDuration":394860,"Delta":434417985},{"NoteNumber":67,"Velocity":29,"Duration":1103733,"SoundDuration":1103733,"Delta":434417985},{"NoteNumber":55,"Velocity":24,"Duration":1103733,"SoundDuration":1103733,"Delta":434417985},{"NoteNumber":74,"Velocity":35,"Duration":382352,"SoundDuration":382352,"Delta":434978733},{"NoteNumber":72,"Velocity":39,"Duration":275836,"SoundDuration":275836,"Delta":435521719},{"NoteNumber":71,"Velocity":39,"Duration":291262,"SoundDuration":291262,"Delta":435797556},{"NoteNumber":75,"Velocity":45,"Duration":818182,"SoundDuration":818182,"Delta":436088818},{"NoteNumber":55,"Velocity":24,"Duration":1115211,"SoundDuration":1115211,"Delta":436634273},{"NoteNumber":67,"Velocity":29,"Duration":1115211,"SoundDuration":1115211,"Delta":436634273},{"NoteNumber":74,"Velocity":37,"Duration":272727,"SoundDuration":272727,"Delta":436907000},{"NoteNumber":72,"Velocity":33,"Duration":272727,"SoundDuration":272727,"Delta":437179728},{"NoteNumber":67,"Velocity":33,"Duration":297029,"SoundDuration":297029,"Delta":437452455},{"NoteNumber":72,"Velocity":35,"Duration":276497,"SoundDuration":276497,"Delta":437749485},{"NoteNumber":60,"Velocity":29,"Duration":276497,"SoundDuration":276497,"Delta":437749485},{"NoteNumber":74,"Velocity":40,"Duration":291262,"SoundDuration":291262,"Delta":438025982},{"NoteNumber":62,"Velocity":35,"Duration":291262,"SoundDuration":291262,"Delta":438025982},{"NoteNumber":75,"Velocity":45,"Duration":563379,"SoundDuration":563379,"Delta":438317244},{"NoteNumber":63,"Velocity":40,"Duration":563379,"SoundDuration":563379,"Delta":438317244},{"NoteNumber":74,"Velocity":45,"Duration":285714,"SoundDuration":285714,"Delta":438880624},{"NoteNumber":62,"Velocity":33,"Duration":285714,"SoundDuration":285714,"Delta":438880624},{"NoteNumber":72,"Velocity":42,"Duration":285714,"SoundDuration":285714,"Delta":439166339},{"NoteNumber":60,"Velocity":30,"Duration":285714,"SoundDuration":285714,"Delta":439166339},{"NoteNumber":67,"Velocity":46,"Duration":445544,"SoundDuration":445544,"Delta":439452053},{"NoteNumber":64,"Velocity":33,"Duration":445544,"SoundDuration":445544,"Delta":439452053},{"NoteNumber":55,"Velocity":28,"Duration":445544,"SoundDuration":445544,"Delta":439452053},{"NoteNumber":71,"Velocity":38,"Duration":468750,"SoundDuration":468750,"Delta":440046112},{"NoteNumber":65,"Velocity":32,"Duration":468750,"SoundDuration":468750,"Delta":440046112},{"NoteNumber":62,"Velocity":30,"Duration":468750,"SoundDuration":468750,"Delta":440046112},{"NoteNumber":55,"Velocity":25,"Duration":468750,"SoundDuration":468750,"Delta":440046112},{"NoteNumber":64,"Velocity":36,"Duration":1875000,"SoundDuration":1875000,"Delta":440671112},{"NoteNumber":72,"Velocity":43,"Duration":1875000,"SoundDuration":1875000,"Delta":440671112},{"NoteNumber":48,"Velocity":24,"Duration":1875000,"SoundDuration":1875000,"Delta":440671112},{"NoteNumber":55,"Velocity":27,"Duration":1875000,"SoundDuration":1875000,"Delta":440671112},{"NoteNumber":60,"Velocity":33,"Duration":1875000,"SoundDuration":1875000,"Delta":440671112},{"NoteNumber":59,"Velocity":33,"Duration":413754,"SoundDuration":413754,"Delta":442546112},{"NoteNumber":60,"Velocity":28,"Duration":137918,"SoundDuration":137918,"Delta":442959867},{"NoteNumber":62,"Velocity":38,"Duration":397385,"SoundDuration":397385,"Delta":443097785},{"NoteNumber":67,"Velocity":29,"Duration":1106649,"SoundDuration":1106649,"Delta":443662119},{"NoteNumber":79,"Velocity":37,"Duration":1106649,"SoundDuration":1106649,"Delta":443662119},{"NoteNumber":62,"Velocity":31,"Duration":394860,"SoundDuration":394860,"Delta":443662119},{"NoteNumber":62,"Velocity":31,"Duration":384405,"SoundDuration":384405,"Delta":444222867},{"NoteNumber":60,"Velocity":35,"Duration":421467,"SoundDuration":421467,"Delta":444768768},{"NoteNumber":62,"Velocity":35,"Duration":145631,"SoundDuration":145631,"Delta":445190236},{"NoteNumber":63,"Velocity":40,"Duration":818182,"SoundDuration":818182,"Delta":445335867},{"NoteNumber":67,"Velocity":29,"Duration":1115211,"SoundDuration":1115211,"Delta":445881322},{"NoteNumber":79,"Velocity":36,"Duration":1115211,"SoundDuration":1115211,"Delta":445881322},{"NoteNumber":62,"Velocity":33,"Duration":272727,"SoundDuration":272727,"Delta":446154049},{"NoteNumber":60,"Velocity":29,"Duration":272727,"SoundDuration":272727,"Delta":446426777},{"NoteNumber":55,"Velocity":29,"Duration":297029,"SoundDuration":297029,"Delta":446699504},{"NoteNumber":75,"Velocity":35,"Duration":276497,"SoundDuration":276497,"Delta":446996534},{"NoteNumber":60,"Velocity":29,"Duration":276497,"SoundDuration":276497,"Delta":446996534},{"NoteNumber":77,"Velocity":40,"Duration":291262,"SoundDuration":291262,"Delta":447273031},{"NoteNumber":62,"Velocity":35,"Duration":291262,"SoundDuration":291262,"Delta":447273031},{"NoteNumber":79,"Velocity":45,"Duration":281690,"SoundDuration":281690,"Delta":447564293},{"NoteNumber":63,"Velocity":40,"Duration":563379,"SoundDuration":563379,"Delta":447564293},{"NoteNumber":75,"Velocity":40,"Duration":281689,"SoundDuration":281689,"Delta":447845983},{"NoteNumber":71,"Velocity":45,"Duration":285714,"SoundDuration":285714,"Delta":448127673},{"NoteNumber":62,"Velocity":33,"Duration":285714,"SoundDuration":285714,"Delta":448127673},{"NoteNumber":72,"Velocity":42,"Duration":285714,"SoundDuration":285714,"Delta":448413388},{"NoteNumber":60,"Velocity":30,"Duration":285714,"SoundDuration":285714,"Delta":448413388},{"NoteNumber":67,"Velocity":46,"Duration":445544,"SoundDuration":445544,"Delta":448699102},{"NoteNumber":64,"Velocity":33,"Duration":445544,"SoundDuration":445544,"Delta":448699102},{"NoteNumber":55,"Velocity":28,"Duration":445544,"SoundDuration":445544,"Delta":448699102},{"NoteNumber":71,"Velocity":38,"Duration":468750,"SoundDuration":468750,"Delta":449293161},{"NoteNumber":65,"Velocity":32,"Duration":468750,"SoundDuration":468750,"Delta":449293161},{"NoteNumber":62,"Velocity":30,"Duration":468750,"SoundDuration":468750,"Delta":449293161},{"NoteNumber":55,"Velocity":25,"Duration":468750,"SoundDuration":468750,"Delta":449293161},{"NoteNumber":64,"Velocity":36,"Duration":1250000,"SoundDuration":1250000,"Delta":449918161},{"NoteNumber":72,"Velocity":43,"Duration":1250000,"SoundDuration":1250000,"Delta":449918161},{"NoteNumber":48,"Velocity":25,"Duration":1250000,"SoundDuration":1250000,"Delta":449918161},{"NoteNumber":55,"Velocity":25,"Duration":1250000,"SoundDuration":1250000,"Delta":449918161},{"NoteNumber":60,"Velocity":30,"Duration":1250000,"SoundDuration":1250000,"Delta":449918161},{"NoteNumber":67,"Velocity":46,"Duration":445544,"SoundDuration":445544,"Delta":451168161},{"NoteNumber":64,"Velocity":33,"Duration":445544,"SoundDuration":445544,"Delta":451168161},{"NoteNumber":55,"Velocity":28,"Duration":445544,"SoundDuration":445544,"Delta":451168161},{"NoteNumber":71,"Velocity":38,"Duration":468750,"SoundDuration":468750,"Delta":451762220},{"NoteNumber":65,"Velocity":32,"Duration":468750,"SoundDuration":468750,"Delta":451762220},{"NoteNumber":62,"Velocity":30,"Duration":468750,"SoundDuration":468750,"Delta":451762220},{"NoteNumber":55,"Velocity":25,"Duration":468750,"SoundDuration":468750,"Delta":451762220},{"NoteNumber":64,"Velocity":36,"Duration":1250000,"SoundDuration":1250000,"Delta":452387220},{"NoteNumber":72,"Velocity":43,"Duration":1250000,"SoundDuration":1250000,"Delta":452387220},{"NoteNumber":48,"Velocity":25,"Duration":1250000,"SoundDuration":1250000,"Delta":452387220},{"NoteNumber":55,"Velocity":25,"Duration":1250000,"SoundDuration":1250000,"Delta":452387220},{"NoteNumber":60,"Velocity":30,"Duration":1250000,"SoundDuration":1250000,"Delta":452387220},{"NoteNumber":55,"Velocity":48,"Duration":594059,"SoundDuration":594059,"Delta":453637220},{"NoteNumber":52,"Velocity":34,"Duration":594059,"SoundDuration":594059,"Delta":453637220},{"NoteNumber":43,"Velocity":29,"Duration":594059,"SoundDuration":594059,"Delta":453637220},{"NoteNumber":59,"Velocity":41,"Duration":648648,"SoundDuration":648648,"Delta":454231279},{"NoteNumber":53,"Velocity":34,"Duration":648648,"SoundDuration":648648,"Delta":454231279},{"NoteNumber":50,"Velocity":32,"Duration":648648,"SoundDuration":648648,"Delta":454231279},{"NoteNumber":43,"Velocity":27,"Duration":648648,"SoundDuration":648648,"Delta":454231279},{"NoteNumber":52,"Velocity":40,"Duration":1379309,"SoundDuration":1379309,"Delta":454879928},{"NoteNumber":60,"Velocity":48,"Duration":1379309,"SoundDuration":1379309,"Delta":454879928},{"NoteNumber":36,"Velocity":29,"Duration":1379309,"SoundDuration":1379309,"Delta":454879928},{"NoteNumber":43,"Velocity":29,"Duration":1379309,"SoundDuration":1379309,"Delta":454879928},{"NoteNumber":48,"Velocity":36,"Duration":1379309,"SoundDuration":1379309,"Delta":454879928},{"NoteNumber":55,"Velocity":38,"Duration":1518987,"SoundDuration":1518987,"Delta":456259238},{"NoteNumber":52,"Velocity":38,"Duration":1518987,"SoundDuration":1518987,"Delta":456259238},{"NoteNumber":60,"Velocity":46,"Duration":1518987,"SoundDuration":1518987,"Delta":456259238},{"NoteNumber":36,"Velocity":28,"Duration":1518987,"SoundDuration":1518987,"Delta":456259238},{"NoteNumber":43,"Velocity":28,"Duration":1518987,"SoundDuration":1518987,"Delta":456259238},{"NoteNumber":48,"Velocity":34,"Duration":1518987,"SoundDuration":1518987,"Delta":456259238},{"NoteNumber":55,"Velocity":38,"Duration":3664124,"SoundDuration":3664124,"Delta":457778226},{"NoteNumber":52,"Velocity":38,"Duration":3664124,"SoundDuration":3664124,"Delta":457778226},{"NoteNumber":60,"Velocity":46,"Duration":3664124,"SoundDuration":3664124,"Delta":457778226},{"NoteNumber":36,"Velocity":28,"Duration":3664124,"SoundDuration":3664124,"Delta":457778226},{"NoteNumber":43,"Velocity":28,"Duration":3664124,"SoundDuration":3664124,"Delta":457778226},{"NoteNumber":48,"Velocity":34,"Duration":3664124,"SoundDuration":3664124,"Delta":457778226}],"license":{"name":"Creative Commons Attribution-ShareAlike 3.0 Germany","url":"http://creativecommons.org/licenses/by-sa/3.0/de/deed.en","text":"The MIDI, audio (MP3, OGG) and video files of Bernd Krueger are licensed under the cc-by-sa Germany License. This means that you can use and adapt the files, as long as you attribute the copyright holder.\n\nName: Bernd Krueger\nSource: http://www.piano-midi.de\n\nThe distribution or public playback of the files is only allowed under identical license conditions.\n\nThe scores are open source.","attribution":"MIDI files by Bernd Krueger (piano-midi.de)","attributionUrl":"http://www.piano-midi.de"}}