{"title":"Impromptu Nr. 4 As Dur","artist":"Schubert","durationMs":420026,"midiSha256":"0573877b1a9db6bbb552ab882ca78c1703089218149cf6647e7e800f355e47d9","midiObject":[{"NoteNumber":83,"Velocity":40,"Duration":98627,"SoundDuration":98627,"Delta":0},{"NoteNumber":44,"Velocity":40,"Duration":196666,"SoundDuration":196666,"Delta":0},{"NoteNumber":87,"Velocity":34,"Duration":98039,"SoundDuration":98039,"Delta":95359},{"NoteNumber":83,"Velocity":40,"Duration":98039,"SoundDuration":98039,"Delta":193399},{"NoteNumber":80,"Velocity":34,"Duration":73556,"SoundDuration":73556,"Delta":291438},{"NoteNumber":80,"Velocity":40,"Duration":98360,"SoundDuration":98360,"Delta":389584},{"NoteNumber":56,"Velocity":34,"Duration":1584630,"SoundDuration":1584630,"Delta":389584},{"NoteNumber":63,"Velocity":40,"Duration":1584630,"SoundDuration":1584630,"Delta":389584},{"NoteNumber":59,"Velocity":34,"Duration":1584630,"SoundDuration":1584630,"Delta":389584},{"NoteNumber":83,"Velocity":34,"Duration":98360,"SoundDuration":98360,"Delta":487945},{"NoteNumber":80,"Velocity":40,"Duration":98360,"SoundDuration":98360,"Delta":586306},{"NoteNumber":75,"Velocity":34,"Duration":74013,"SoundDuration":74013,"Delta":684667},{"NoteNumber":75,"Velocity":40,"Duration":98684,"SoundDuration":98684,"Delta":783351},{"NoteNumber":80,"Velocity":34,"Duration":98684,"SoundDuration":98684,"Delta":882035},{"NoteNumber":75,"Velocity":40,"Duration":99009,"SoundDuration":99009,"Delta":980719},{"NoteNumber":71,"Velocity":34,"Duration":74257,"SoundDuration":74257,"Delta":1079729},{"NoteNumber":71,"Velocity":40,"Duration":99010,"SoundDuration":99010,"Delta":1178739},{"NoteNumber":75,"Velocity":34,"Duration":99228,"SoundDuration":99228,"Delta":1277749},{"NoteNumber":71,"Velocity":40,"Duration":99337,"SoundDuration":99337,"Delta":1376978},{"NoteNumber":68,"Velocity":34,"Duration":74503,"SoundDuration":74503,"Delta":1476315},{"NoteNumber":68,"Velocity":40,"Duration":99447,"SoundDuration":99447,"Delta":1575653},{"NoteNumber":71,"Velocity":34,"Duration":99667,"SoundDuration":99667,"Delta":1675101},{"NoteNumber":68,"Velocity":40,"Duration":99667,"SoundDuration":99667,"Delta":1774769},{"NoteNumber":63,"Velocity":34,"Duration":99778,"SoundDuration":99778,"Delta":1874437},{"NoteNumber":67,"Velocity":30,"Duration":238666,"SoundDuration":238666,"Delta":1974215},{"NoteNumber":70,"Velocity":36,"Duration":238666,"SoundDuration":238666,"Delta":1974215},{"NoteNumber":58,"Velocity":28,"Duration":238666,"SoundDuration":238666,"Delta":1974215},{"NoteNumber":51,"Velocity":28,"Duration":238666,"SoundDuration":238666,"Delta":1974215},{"NoteNumber":63,"Velocity":34,"Duration":238666,"SoundDuration":238666,"Delta":1974215},{"NoteNumber":83,"Velocity":40,"Duration":98360,"SoundDuration":98360,"Delta":2452882},{"NoteNumber":44,"Velocity":40,"Duration":196721,"SoundDuration":196721,"Delta":2452882},{"NoteNumber":87,"Velocity":34,"Duration":98360,"SoundDuration":98360,"Delta":2551242},{"NoteNumber":83,"Velocity":40,"Duration":98360,"SoundDuration":98360,"Delta":2649603},{"NoteNumber":80,"Velocity":34,"Duration":73905,"SoundDuration":73905,"Delta":2747964},{"NoteNumber":80,"Velocity":40,"Duration":98684,"SoundDuration":98684,"Delta":2846540},{"NoteNumber":56,"Velocity":34,"Duration":1591667,"SoundDuration":1591667,"Delta":2846540},{"NoteNumber":63,"Velocity":40,"Duration":1591667,"SoundDuration":1591667,"Delta":2846540},{"NoteNumber":59,"Velocity":34,"Duration":1591667,"SoundDuration":1591667,"Delta":2846540},{"NoteNumber":83,"Velocity":34,"Duration":98684,"SoundDuration":98684,"Delta":2945225},{"NoteNumber":80,"Velocity":40,"Duration":98792,"SoundDuration":98792,"Delta":3043909},{"NoteNumber":75,"Velocity":34,"Duration":74257,"SoundDuration":74257,"Delta":3142702},{"NoteNumber":75,"Velocity":40,"Duration":99010,"SoundDuration":99010,"Delta":3241712},{"NoteNumber":80,"Velocity":34,"Duration":99009,"SoundDuration":99009,"Delta":3340722},{"NoteNumber":75,"Velocity":40,"Duration":99337,"SoundDuration":99337,"Delta":3439732},{"NoteNumber":71,"Velocity":34,"Duration":74503,"SoundDuration":74503,"Delta":3539069},{"NoteNumber":71,"Velocity":40,"Duration":99337,"SoundDuration":99337,"Delta":3638407},{"NoteNumber":75,"Velocity":34,"Duration":99557,"SoundDuration":99557,"Delta":3737745},{"NoteNumber":71,"Velocity":40,"Duration":99667,"SoundDuration":99667,"Delta":3837303},{"NoteNumber":68,"Velocity":34,"Duration":74750,"SoundDuration":74750,"Delta":3936970},{"NoteNumber":68,"Velocity":40,"Duration":99778,"SoundDuration":99778,"Delta":4036638},{"NoteNumber":71,"Velocity":34,"Duration":100000,"SoundDuration":100000,"Delta":4136417},{"NoteNumber":68,"Velocity":40,"Duration":99999,"SoundDuration":99999,"Delta":4236417},{"NoteNumber":63,"Velocity":34,"Duration":101790,"SoundDuration":101790,"Delta":4336417},{"NoteNumber":67,"Velocity":30,"Duration":251046,"SoundDuration":251046,"Delta":4438207},{"NoteNumber":70,"Velocity":36,"Duration":251046,"SoundDuration":251046,"Delta":4438207},{"NoteNumber":51,"Velocity":28,"Duration":251046,"SoundDuration":251046,"Delta":4438207},{"NoteNumber":63,"Velocity":34,"Duration":251046,"SoundDuration":251046,"Delta":4438207},{"NoteNumber":58,"Velocity":28,"Duration":251046,"SoundDuration":251046,"Delta":4438207},{"NoteNumber":68,"Velocity":31,"Duration":476987,"SoundDuration":476987,"Delta":4940299},{"NoteNumber":71,"Velocity":31,"Duration":476987,"SoundDuration":476987,"Delta":4940299},{"NoteNumber":63,"Velocity":27,"Duration":476987,"SoundDuration":476987,"Delta":4940299},{"NoteNumber":56,"Velocity":27,"Duration":476987,"SoundDuration":476987,"Delta":4940299},{"NoteNumber":59,"Velocity":27,"Duration":476987,"SoundDuration":476987,"Delta":4940299},{"NoteNumber":67,"Velocity":31,"Duration":407142,"SoundDuration":407142,"Delta":5441166},{"NoteNumber":70,"Velocity":31,"Duration":407142,"SoundDuration":407142,"Delta":5441166},{"NoteNumber":76,"Velocity":31,"Duration":407142,"SoundDuration":407142,"Delta":5441166},{"NoteNumber":51,"Velocity":27,"Duration":407142,"SoundDuration":407142,"Delta":5441166},{"NoteNumber":58,"Velocity":27,"Duration":407142,"SoundDuration":407142,"Delta":5441166},{"NoteNumber":64,"Velocity":27,"Duration":407142,"SoundDuration":407142,"Delta":5441166},{"NoteNumber":67,"Velocity":36,"Duration":407142,"SoundDuration":407142,"Delta":5869737},{"NoteNumber":70,"Velocity":36,"Duration":407142,"SoundDuration":407142,"Delta":5869737},{"NoteNumber":76,"Velocity":36,"Duration":407142,"SoundDuration":407142,"Delta":5869737},{"NoteNumber":58,"Velocity":31,"Duration":407142,"SoundDuration":407142,"Delta":5869737},{"NoteNumber":64,"Velocity":31,"Duration":407142,"SoundDuration":407142,"Delta":5869737},{"NoteNumber":51,"Velocity":31,"Duration":407142,"SoundDuration":407142,"Delta":5869737},{"NoteNumber":67,"Velocity":37,"Duration":473809,"SoundDuration":473809,"Delta":6298308},{"NoteNumber":70,"Velocity":37,"Duration":473809,"SoundDuration":473809,"Delta":6298308},{"NoteNumber":76,"Velocity":37,"Duration":473809,"SoundDuration":473809,"Delta":6298308},{"NoteNumber":51,"Velocity":31,"Duration":473809,"SoundDuration":473809,"Delta":6298308},{"NoteNumber":64,"Velocity":31,"Duration":473809,"SoundDuration":473809,"Delta":6298308},{"NoteNumber":58,"Velocity":31,"Duration":473809,"SoundDuration":473809,"Delta":6298308},{"NoteNumber":67,"Velocity":31,"Duration":475000,"SoundDuration":475000,"Delta":6797118},{"NoteNumber":70,"Velocity":31,"Duration":475000,"SoundDuration":475000,"Delta":6797118},{"NoteNumber":75,"Velocity":31,"Duration":475000,"SoundDuration":475000,"Delta":6797118},{"NoteNumber":58,"Velocity":25,"Duration":475000,"SoundDuration":475000,"Delta":6797118},{"NoteNumber":51,"Velocity":25,"Duration":475000,"SoundDuration":475000,"Delta":6797118},{"NoteNumber":63,"Velocity":25,"Duration":475000,"SoundDuration":475000,"Delta":6797118},{"NoteNumber":67,"Velocity":31,"Duration":518182,"SoundDuration":518182,"Delta":7297875},{"NoteNumber":70,"Velocity":31,"Duration":518182,"SoundDuration":518182,"Delta":7297875},{"NoteNumber":73,"Velocity":31,"Duration":518182,"SoundDuration":518182,"Delta":7297875},{"NoteNumber":61,"Velocity":25,"Duration":518182,"SoundDuration":518182,"Delta":7297875},{"NoteNumber":58,"Velocity":25,"Duration":518182,"SoundDuration":518182,"Delta":7297875},{"NoteNumber":51,"Velocity":25,"Duration":518182,"SoundDuration":518182,"Delta":7297875},{"NoteNumber":83,"Velocity":40,"Duration":98360,"SoundDuration":98360,"Delta":7843330},{"NoteNumber":44,"Velocity":40,"Duration":196721,"SoundDuration":196721,"Delta":7843330},{"NoteNumber":87,"Velocity":34,"Duration":98360,"SoundDuration":98360,"Delta":7941691},{"NoteNumber":83,"Velocity":40,"Duration":98360,"SoundDuration":98360,"Delta":8040052},{"NoteNumber":80,"Velocity":34,"Duration":73905,"SoundDuration":73905,"Delta":8138412},{"NoteNumber":80,"Velocity":40,"Duration":98684,"SoundDuration":98684,"Delta":8236989},{"NoteNumber":56,"Velocity":34,"Duration":1589987,"SoundDuration":1589987,"Delta":8236989},{"NoteNumber":63,"Velocity":40,"Duration":1589987,"SoundDuration":1589987,"Delta":8236989},{"NoteNumber":59,"Velocity":34,"Duration":1589987,"SoundDuration":1589987,"Delta":8236989},{"NoteNumber":83,"Velocity":34,"Duration":98684,"SoundDuration":98684,"Delta":8335673},{"NoteNumber":80,"Velocity":40,"Duration":98792,"SoundDuration":98792,"Delta":8434357},{"NoteNumber":75,"Velocity":34,"Duration":74257,"SoundDuration":74257,"Delta":8533150},{"NoteNumber":75,"Velocity":40,"Duration":99009,"SoundDuration":99009,"Delta":8632160},{"NoteNumber":80,"Velocity":34,"Duration":99009,"SoundDuration":99009,"Delta":8731170},{"NoteNumber":75,"Velocity":40,"Duration":99337,"SoundDuration":99337,"Delta":8830180},{"NoteNumber":71,"Velocity":34,"Duration":74503,"SoundDuration":74503,"Delta":8929518},{"NoteNumber":71,"Velocity":40,"Duration":99337,"SoundDuration":99337,"Delta":9028856},{"NoteNumber":75,"Velocity":34,"Duration":99557,"SoundDuration":99557,"Delta":9128193},{"NoteNumber":71,"Velocity":40,"Duration":99667,"SoundDuration":99667,"Delta":9227751},{"NoteNumber":68,"Velocity":34,"Duration":74750,"SoundDuration":74750,"Delta":9327419},{"NoteNumber":68,"Velocity":40,"Duration":99778,"SoundDuration":99778,"Delta":9427087},{"NoteNumber":71,"Velocity":34,"Duration":99999,"SoundDuration":99999,"Delta":9526865},{"NoteNumber":68,"Velocity":40,"Duration":99999,"SoundDuration":99999,"Delta":9626865},{"NoteNumber":63,"Velocity":34,"Duration":100111,"SoundDuration":100111,"Delta":9726865},{"NoteNumber":67,"Velocity":30,"Duration":240000,"SoundDuration":240000,"Delta":9826977},{"NoteNumber":70,"Velocity":36,"Duration":240000,"SoundDuration":240000,"Delta":9826977},{"NoteNumber":51,"Velocity":26,"Duration":240000,"SoundDuration":240000,"Delta":9826977},{"NoteNumber":63,"Velocity":31,"Duration":240000,"SoundDuration":240000,"Delta":9826977},{"NoteNumber":58,"Velocity":26,"Duration":240000,"SoundDuration":240000,"Delta":9826977},{"NoteNumber":83,"Velocity":40,"Duration":98684,"SoundDuration":98684,"Delta":10306977},{"NoteNumber":44,"Velocity":40,"Duration":197368,"SoundDuration":197368,"Delta":10306977},{"NoteNumber":87,"Velocity":34,"Duration":98684,"SoundDuration":98684,"Delta":10405661},{"NoteNumber":83,"Velocity":40,"Duration":98684,"SoundDuration":98684,"Delta":10504345},{"NoteNumber":80,"Velocity":34,"Duration":74013,"SoundDuration":74013,"Delta":10603029},{"NoteNumber":80,"Velocity":40,"Duration":99009,"SoundDuration":99009,"Delta":10701714},{"NoteNumber":59,"Velocity":34,"Duration":1592173,"SoundDuration":1592173,"Delta":10701714},{"NoteNumber":63,"Velocity":40,"Duration":1592173,"SoundDuration":1592173,"Delta":10701714},{"NoteNumber":56,"Velocity":34,"Duration":1592173,"SoundDuration":1592173,"Delta":10701714},{"NoteNumber":83,"Velocity":34,"Duration":99009,"SoundDuration":99009,"Delta":10800724},{"NoteNumber":80,"Velocity":40,"Duration":99009,"SoundDuration":99009,"Delta":10899734},{"NoteNumber":75,"Velocity":34,"Duration":74257,"SoundDuration":74257,"Delta":10998744},{"NoteNumber":75,"Velocity":40,"Duration":99337,"SoundDuration":99337,"Delta":11097754},{"NoteNumber":80,"Velocity":34,"Duration":99337,"SoundDuration":99337,"Delta":11197091},{"NoteNumber":75,"Velocity":40,"Duration":99337,"SoundDuration":99337,"Delta":11296429},{"NoteNumber":71,"Velocity":34,"Duration":74503,"SoundDuration":74503,"Delta":11395767},{"NoteNumber":71,"Velocity":40,"Duration":99667,"SoundDuration":99667,"Delta":11495105},{"NoteNumber":75,"Velocity":34,"Duration":99667,"SoundDuration":99667,"Delta":11594772},{"NoteNumber":71,"Velocity":40,"Duration":99667,"SoundDuration":99667,"Delta":11694440},{"NoteNumber":68,"Velocity":34,"Duration":74750,"SoundDuration":74750,"Delta":11794108},{"NoteNumber":68,"Velocity":40,"Duration":99999,"SoundDuration":99999,"Delta":11893776},{"NoteNumber":71,"Velocity":34,"Duration":99999,"SoundDuration":99999,"Delta":11993776},{"NoteNumber":68,"Velocity":40,"Duration":100000,"SoundDuration":100000,"Delta":12093776},{"NoteNumber":63,"Velocity":34,"Duration":100111,"SoundDuration":100111,"Delta":12193776},{"NoteNumber":70,"Velocity":36,"Duration":230769,"SoundDuration":230769,"Delta":12293887},{"NoteNumber":67,"Velocity":30,"Duration":230769,"SoundDuration":230769,"Delta":12293887},{"NoteNumber":58,"Velocity":27,"Duration":230769,"SoundDuration":230769,"Delta":12293887},{"NoteNumber":63,"Velocity":32,"Duration":230769,"SoundDuration":230769,"Delta":12293887},{"NoteNumber":51,"Velocity":27,"Duration":230769,"SoundDuration":230769,"Delta":12293887},{"NoteNumber":68,"Velocity":31,"Duration":476987,"SoundDuration":476987,"Delta":12755425},{"NoteNumber":71,"Velocity":31,"Duration":476987,"SoundDuration":476987,"Delta":12755425},{"NoteNumber":59,"Velocity":27,"Duration":476987,"SoundDuration":476987,"Delta":12755425},{"NoteNumber":56,"Velocity":27,"Duration":476987,"SoundDuration":476987,"Delta":12755425},{"NoteNumber":63,"Velocity":27,"Duration":476987,"SoundDuration":476987,"Delta":12755425},{"NoteNumber":76,"Velocity":31,"Duration":407142,"SoundDuration":407142,"Delta":13256292},{"NoteNumber":70,"Velocity":31,"Duration":407142,"SoundDuration":407142,"Delta":13256292},{"NoteNumber":66,"Velocity":31,"Duration":407142,"SoundDuration":407142,"Delta":13256292},{"NoteNumber":64,"Velocity":27,"Duration":407142,"SoundDuration":407142,"Delta":13256292},{"NoteNumber":54,"Velocity":27,"Duration":407142,"SoundDuration":407142,"Delta":13256292},{"NoteNumber":58,"Velocity":27,"Duration":407142,"SoundDuration":407142,"Delta":13256292},{"NoteNumber":66,"Velocity":36,"Duration":407142,"SoundDuration":407142,"Delta":13684863},{"NoteNumber":70,"Velocity":36,"Duration":407142,"SoundDuration":407142,"Delta":13684863},{"NoteNumber":76,"Velocity":36,"Duration":407142,"SoundDuration":407142,"Delta":13684863},{"NoteNumber":54,"Velocity":31,"Duration":407142,"SoundDuration":407142,"Delta":13684863},{"NoteNumber":64,"Velocity":31,"Duration":407142,"SoundDuration":407142,"Delta":13684863},{"NoteNumber":58,"Velocity":31,"Duration":407142,"SoundDuration":407142,"Delta":13684863},{"NoteNumber":66,"Velocity":37,"Duration":473809,"SoundDuration":473809,"Delta":14113434},{"NoteNumber":70,"Velocity":37,"Duration":473809,"SoundDuration":473809,"Delta":14113434},{"NoteNumber":76,"Velocity":37,"Duration":473809,"SoundDuration":473809,"Delta":14113434},{"NoteNumber":58,"Velocity":31,"Duration":473809,"SoundDuration":473809,"Delta":14113434},{"NoteNumber":64,"Velocity":31,"Duration":473809,"SoundDuration":473809,"Delta":14113434},{"NoteNumber":54,"Velocity":31,"Duration":473809,"SoundDuration":473809,"Delta":14113434},{"NoteNumber":75,"Velocity":31,"Duration":474999,"SoundDuration":474999,"Delta":14612243},{"NoteNumber":70,"Velocity":31,"Duration":474999,"SoundDuration":474999,"Delta":14612243},{"NoteNumber":66,"Velocity":31,"Duration":474999,"SoundDuration":474999,"Delta":14612243},{"NoteNumber":54,"Velocity":25,"Duration":474999,"SoundDuration":474999,"Delta":14612243},{"NoteNumber":63,"Velocity":25,"Duration":474999,"SoundDuration":474999,"Delta":14612243},{"NoteNumber":58,"Velocity":25,"Duration":474999,"SoundDuration":474999,"Delta":14612243},{"NoteNumber":70,"Velocity":31,"Duration":518182,"SoundDuration":518182,"Delta":15113001},{"NoteNumber":66,"Velocity":31,"Duration":518182,"SoundDuration":518182,"Delta":15113001},{"NoteNumber":74,"Velocity":31,"Duration":518182,"SoundDuration":518182,"Delta":15113001},{"NoteNumber":62,"Velocity":25,"Duration":518182,"SoundDuration":518182,"Delta":15113001},{"NoteNumber":54,"Velocity":25,"Duration":518182,"SoundDuration":518182,"Delta":15113001},{"NoteNumber":58,"Velocity":25,"Duration":518182,"SoundDuration":518182,"Delta":15113001},{"NoteNumber":87,"Velocity":50,"Duration":99009,"SoundDuration":99009,"Delta":15658456},{"NoteNumber":47,"Velocity":50,"Duration":198019,"SoundDuration":198019,"Delta":15658456},{"NoteNumber":90,"Velocity":42,"Duration":99009,"SoundDuration":99009,"Delta":15757466},{"NoteNumber":87,"Velocity":50,"Duration":99009,"SoundDuration":99009,"Delta":15856476},{"NoteNumber":83,"Velocity":42,"Duration":74257,"SoundDuration":74257,"Delta":15955486},{"NoteNumber":83,"Velocity":50,"Duration":99009,"SoundDuration":99009,"Delta":16054496},{"NoteNumber":63,"Velocity":50,"Duration":1590840,"SoundDuration":1590840,"Delta":16054496},{"NoteNumber":54,"Velocity":42,"Duration":1590840,"SoundDuration":1590840,"Delta":16054496},{"NoteNumber":59,"Velocity":42,"Duration":1590840,"SoundDuration":1590840,"Delta":16054496},{"NoteNumber":87,"Velocity":42,"Duration":99009,"SoundDuration":99009,"Delta":16153506},{"NoteNumber":83,"Velocity":50,"Duration":99119,"SoundDuration":99119,"Delta":16252516},{"NoteNumber":78,"Velocity":42,"Duration":74503,"SoundDuration":74503,"Delta":16351635},{"NoteNumber":78,"Velocity":50,"Duration":99337,"SoundDuration":99337,"Delta":16450973},{"NoteNumber":83,"Velocity":42,"Duration":99337,"SoundDuration":99337,"Delta":16550311},{"NoteNumber":78,"Velocity":50,"Duration":99337,"SoundDuration":99337,"Delta":16649648},{"NoteNumber":75,"Velocity":42,"Duration":74503,"SoundDuration":74503,"Delta":16748986},{"NoteNumber":75,"Velocity":50,"Duration":99337,"SoundDuration":99337,"Delta":16848324},{"NoteNumber":78,"Velocity":42,"Duration":99557,"SoundDuration":99557,"Delta":16947662},{"NoteNumber":75,"Velocity":50,"Duration":99667,"SoundDuration":99667,"Delta":17047219},{"NoteNumber":71,"Velocity":42,"Duration":74750,"SoundDuration":74750,"Delta":17146887},{"NoteNumber":71,"Velocity":50,"Duration":99667,"SoundDuration":99667,"Delta":17246555},{"NoteNumber":75,"Velocity":42,"Duration":99667,"SoundDuration":99667,"Delta":17346223},{"NoteNumber":71,"Velocity":50,"Duration":99667,"SoundDuration":99667,"Delta":17445890},{"NoteNumber":66,"Velocity":42,"Duration":99778,"SoundDuration":99778,"Delta":17545558},{"NoteNumber":70,"Velocity":37,"Duration":238666,"SoundDuration":238666,"Delta":17645337},{"NoteNumber":73,"Velocity":45,"Duration":238666,"SoundDuration":238666,"Delta":17645337},{"NoteNumber":54,"Velocity":35,"Duration":238666,"SoundDuration":238666,"Delta":17645337},{"NoteNumber":64,"Velocity":41,"Duration":238666,"SoundDuration":238666,"Delta":17645337},{"NoteNumber":87,"Velocity":50,"Duration":99122,"SoundDuration":99122,"Delta":18124003},{"NoteNumber":47,"Velocity":50,"Duration":197807,"SoundDuration":197807,"Delta":18124003},{"NoteNumber":90,"Velocity":42,"Duration":98684,"SoundDuration":98684,"Delta":18223126},{"NoteNumber":87,"Velocity":50,"Duration":98684,"SoundDuration":98684,"Delta":18321810},{"NoteNumber":83,"Velocity":42,"Duration":74013,"SoundDuration":74013,"Delta":18420495},{"NoteNumber":83,"Velocity":50,"Duration":98901,"SoundDuration":98901,"Delta":18519179},{"NoteNumber":59,"Velocity":42,"Duration":1591955,"SoundDuration":1591955,"Delta":18519179},{"NoteNumber":63,"Velocity":50,"Duration":1591955,"SoundDuration":1591955,"Delta":18519179},{"NoteNumber":54,"Velocity":42,"Duration":1591955,"SoundDuration":1591955,"Delta":18519179},{"NoteNumber":87,"Velocity":42,"Duration":99009,"SoundDuration":99009,"Delta":18618080},{"NoteNumber":83,"Velocity":50,"Duration":99009,"SoundDuration":99009,"Delta":18717090},{"NoteNumber":78,"Velocity":42,"Duration":74257,"SoundDuration":74257,"Delta":18816100},{"NoteNumber":78,"Velocity":50,"Duration":99228,"SoundDuration":99228,"Delta":18915110},{"NoteNumber":83,"Velocity":42,"Duration":99337,"SoundDuration":99337,"Delta":19014339},{"NoteNumber":78,"Velocity":50,"Duration":99337,"SoundDuration":99337,"Delta":19113677},{"NoteNumber":75,"Velocity":42,"Duration":74503,"SoundDuration":74503,"Delta":19213014},{"NoteNumber":75,"Velocity":50,"Duration":99667,"SoundDuration":99667,"Delta":19312352},{"NoteNumber":78,"Velocity":42,"Duration":99667,"SoundDuration":99667,"Delta":19412020},{"NoteNumber":75,"Velocity":50,"Duration":99667,"SoundDuration":99667,"Delta":19511688},{"NoteNumber":71,"Velocity":42,"Duration":74750,"SoundDuration":74750,"Delta":19611355},{"NoteNumber":71,"Velocity":50,"Duration":100000,"SoundDuration":100000,"Delta":19711023},{"NoteNumber":75,"Velocity":42,"Duration":99999,"SoundDuration":99999,"Delta":19811023},{"NoteNumber":71,"Velocity":50,"Duration":100000,"SoundDuration":100000,"Delta":19911023},{"NoteNumber":66,"Velocity":42,"Duration":100111,"SoundDuration":100111,"Delta":20011023},{"NoteNumber":70,"Velocity":37,"Duration":230768,"SoundDuration":230768,"Delta":20111135},{"NoteNumber":73,"Velocity":45,"Duration":230768,"SoundDuration":230768,"Delta":20111135},{"NoteNumber":64,"Velocity":41,"Duration":230768,"SoundDuration":230768,"Delta":20111135},{"NoteNumber":54,"Velocity":35,"Duration":230768,"SoundDuration":230768,"Delta":20111135},{"NoteNumber":71,"Velocity":41,"Duration":438461,"SoundDuration":438461,"Delta":20572673},{"NoteNumber":75,"Velocity":41,"Duration":438461,"SoundDuration":438461,"Delta":20572673},{"NoteNumber":59,"Velocity":36,"Duration":438461,"SoundDuration":438461,"Delta":20572673},{"NoteNumber":63,"Velocity":36,"Duration":438461,"SoundDuration":438461,"Delta":20572673},{"NoteNumber":70,"Velocity":47,"Duration":407142,"SoundDuration":407142,"Delta":21033661},{"NoteNumber":80,"Velocity":47,"Duration":407142,"SoundDuration":407142,"Delta":21033661},{"NoteNumber":73,"Velocity":47,"Duration":407142,"SoundDuration":407142,"Delta":21033661},{"NoteNumber":54,"Velocity":41,"Duration":407142,"SoundDuration":407142,"Delta":21033661},{"NoteNumber":64,"Velocity":41,"Duration":407142,"SoundDuration":407142,"Delta":21033661},{"NoteNumber":80,"Velocity":48,"Duration":407142,"SoundDuration":407142,"Delta":21462232},{"NoteNumber":73,"Velocity":48,"Duration":407142,"SoundDuration":407142,"Delta":21462232},{"NoteNumber":70,"Velocity":48,"Duration":407142,"SoundDuration":407142,"Delta":21462232},{"NoteNumber":54,"Velocity":45,"Duration":407142,"SoundDuration":407142,"Delta":21462232},{"NoteNumber":64,"Velocity":45,"Duration":407142,"SoundDuration":407142,"Delta":21462232},{"NoteNumber":80,"Velocity":49,"Duration":448818,"SoundDuration":448818,"Delta":21892997},{"NoteNumber":73,"Velocity":49,"Duration":448818,"SoundDuration":448818,"Delta":21892997},{"NoteNumber":70,"Velocity":49,"Duration":448818,"SoundDuration":448818,"Delta":21892997},{"NoteNumber":54,"Velocity":45,"Duration":448818,"SoundDuration":448818,"Delta":21892997},{"NoteNumber":64,"Velocity":45,"Duration":448818,"SoundDuration":448818,"Delta":21892997},{"NoteNumber":78,"Velocity":39,"Duration":448818,"SoundDuration":448818,"Delta":22365438},{"NoteNumber":70,"Velocity":39,"Duration":448818,"SoundDuration":448818,"Delta":22365438},{"NoteNumber":75,"Velocity":39,"Duration":448818,"SoundDuration":448818,"Delta":22365438},{"NoteNumber":63,"Velocity":36,"Duration":448818,"SoundDuration":448818,"Delta":22365438},{"NoteNumber":54,"Velocity":36,"Duration":448818,"SoundDuration":448818,"Delta":22365438},{"NoteNumber":76,"Velocity":39,"Duration":518182,"SoundDuration":518182,"Delta":22839096},{"NoteNumber":70,"Velocity":39,"Duration":518182,"SoundDuration":518182,"Delta":22839096},{"NoteNumber":61,"Velocity":36,"Duration":518182,"SoundDuration":518182,"Delta":22839096},{"NoteNumber":54,"Velocity":36,"Duration":518182,"SoundDuration":518182,"Delta":22839096},{"NoteNumber":86,"Velocity":50,"Duration":98684,"SoundDuration":98684,"Delta":23384551},{"NoteNumber":47,"Velocity":50,"Duration":197368,"SoundDuration":197368,"Delta":23384551},{"NoteNumber":90,"Velocity":42,"Duration":98684,"SoundDuration":98684,"Delta":23483235},{"NoteNumber":86,"Velocity":50,"Duration":98684,"SoundDuration":98684,"Delta":23581919},{"NoteNumber":83,"Velocity":42,"Duration":74013,"SoundDuration":74013,"Delta":23680603},{"NoteNumber":83,"Velocity":50,"Duration":98684,"SoundDuration":98684,"Delta":23779288},{"NoteNumber":59,"Velocity":42,"Duration":1589202,"SoundDuration":1589202,"Delta":23779288},{"NoteNumber":62,"Velocity":50,"Duration":1589202,"SoundDuration":1589202,"Delta":23779288},{"NoteNumber":54,"Velocity":42,"Duration":1589202,"SoundDuration":1589202,"Delta":23779288},{"NoteNumber":86,"Velocity":42,"Duration":99009,"SoundDuration":99009,"Delta":23877972},{"NoteNumber":83,"Velocity":50,"Duration":99009,"SoundDuration":99009,"Delta":23976982},{"NoteNumber":78,"Velocity":42,"Duration":74257,"SoundDuration":74257,"Delta":24075992},{"NoteNumber":78,"Velocity":50,"Duration":99009,"SoundDuration":99009,"Delta":24175002},{"NoteNumber":83,"Velocity":42,"Duration":99119,"SoundDuration":99119,"Delta":24274012},{"NoteNumber":78,"Velocity":50,"Duration":99337,"SoundDuration":99337,"Delta":24373131},{"NoteNumber":74,"Velocity":42,"Duration":74503,"SoundDuration":74503,"Delta":24472469},{"NoteNumber":74,"Velocity":50,"Duration":99337,"SoundDuration":99337,"Delta":24571807},{"NoteNumber":78,"Velocity":42,"Duration":99337,"SoundDuration":99337,"Delta":24671144},{"NoteNumber":74,"Velocity":50,"Duration":99447,"SoundDuration":99447,"Delta":24770482},{"NoteNumber":71,"Velocity":42,"Duration":74750,"SoundDuration":74750,"Delta":24869930},{"NoteNumber":71,"Velocity":50,"Duration":99667,"SoundDuration":99667,"Delta":24969598},{"NoteNumber":74,"Velocity":42,"Duration":99667,"SoundDuration":99667,"Delta":25069265},{"NoteNumber":71,"Velocity":50,"Duration":99667,"SoundDuration":99667,"Delta":25168933},{"NoteNumber":66,"Velocity":42,"Duration":99889,"SoundDuration":99889,"Delta":25268601},{"NoteNumber":73,"Velocity":45,"Duration":238666,"SoundDuration":238666,"Delta":25368490},{"NoteNumber":70,"Velocity":37,"Duration":238666,"SoundDuration":238666,"Delta":25368490},{"NoteNumber":54,"Velocity":34,"Duration":238666,"SoundDuration":238666,"Delta":25368490},{"NoteNumber":64,"Velocity":40,"Duration":238666,"SoundDuration":238666,"Delta":25368490},{"NoteNumber":86,"Velocity":50,"Duration":99122,"SoundDuration":99122,"Delta":25847157},{"NoteNumber":47,"Velocity":50,"Duration":197807,"SoundDuration":197807,"Delta":25847157},{"NoteNumber":90,"Velocity":42,"Duration":98684,"SoundDuration":98684,"Delta":25946280},{"NoteNumber":86,"Velocity":50,"Duration":98684,"SoundDuration":98684,"Delta":26044964},{"NoteNumber":83,"Velocity":42,"Duration":74013,"SoundDuration":74013,"Delta":26143648},{"NoteNumber":83,"Velocity":50,"Duration":98684,"SoundDuration":98684,"Delta":26242332},{"NoteNumber":62,"Velocity":50,"Duration":1588433,"SoundDuration":1588433,"Delta":26242332},{"NoteNumber":54,"Velocity":42,"Duration":1588433,"SoundDuration":1588433,"Delta":26242332},{"NoteNumber":59,"Velocity":42,"Duration":1588433,"SoundDuration":1588433,"Delta":26242332},{"NoteNumber":86,"Velocity":42,"Duration":98901,"SoundDuration":98901,"Delta":26341017},{"NoteNumber":83,"Velocity":50,"Duration":99009,"SoundDuration":99009,"Delta":26439918},{"NoteNumber":78,"Velocity":42,"Duration":74257,"SoundDuration":74257,"Delta":26538928},{"NoteNumber":78,"Velocity":50,"Duration":99009,"SoundDuration":99009,"Delta":26637938},{"NoteNumber":83,"Velocity":43,"Duration":99009,"SoundDuration":99009,"Delta":26736948},{"NoteNumber":78,"Velocity":50,"Duration":99228,"SoundDuration":99228,"Delta":26835958},{"NoteNumber":74,"Velocity":42,"Duration":74503,"SoundDuration":74503,"Delta":26935186},{"NoteNumber":74,"Velocity":50,"Duration":99337,"SoundDuration":99337,"Delta":27034524},{"NoteNumber":78,"Velocity":42,"Duration":99337,"SoundDuration":99337,"Delta":27133862},{"NoteNumber":74,"Velocity":50,"Duration":99337,"SoundDuration":99337,"Delta":27233200},{"NoteNumber":71,"Velocity":42,"Duration":74640,"SoundDuration":74640,"Delta":27332537},{"NoteNumber":71,"Velocity":50,"Duration":99667,"SoundDuration":99667,"Delta":27432095},{"NoteNumber":74,"Velocity":42,"Duration":99667,"SoundDuration":99667,"Delta":27531763},{"NoteNumber":71,"Velocity":50,"Duration":99667,"SoundDuration":99667,"Delta":27631431},{"NoteNumber":66,"Velocity":42,"Duration":99667,"SoundDuration":99667,"Delta":27731098},{"NoteNumber":70,"Velocity":45,"Duration":238666,"SoundDuration":238666,"Delta":27830766},{"NoteNumber":73,"Velocity":45,"Duration":238666,"SoundDuration":238666,"Delta":27830766},{"NoteNumber":54,"Velocity":35,"Duration":238666,"SoundDuration":238666,"Delta":27830766},{"NoteNumber":64,"Velocity":41,"Duration":238666,"SoundDuration":238666,"Delta":27830766},{"NoteNumber":74,"Velocity":41,"Duration":491378,"SoundDuration":491378,"Delta":28310054},{"NoteNumber":66,"Velocity":41,"Duration":491378,"SoundDuration":491378,"Delta":28310054},{"NoteNumber":71,"Velocity":41,"Duration":491378,"SoundDuration":491378,"Delta":28310054},{"NoteNumber":62,"Velocity":40,"Duration":491378,"SoundDuration":491378,"Delta":28310054},{"NoteNumber":59,"Velocity":40,"Duration":491378,"SoundDuration":491378,"Delta":28310054},{"NoteNumber":73,"Velocity":50,"Duration":407142,"SoundDuration":407142,"Delta":28825817},{"NoteNumber":76,"Velocity":50,"Duration":407142,"SoundDuration":407142,"Delta":28825817},{"NoteNumber":83,"Velocity":50,"Duration":407142,"SoundDuration":407142,"Delta":28825817},{"NoteNumber":57,"Velocity":45,"Duration":407142,"SoundDuration":407142,"Delta":28825817},{"NoteNumber":67,"Velocity":45,"Duration":407142,"SoundDuration":407142,"Delta":28825817},{"NoteNumber":83,"Velocity":48,"Duration":407142,"SoundDuration":407142,"Delta":29254388},{"NoteNumber":76,"Velocity":48,"Duration":407142,"SoundDuration":407142,"Delta":29254388},{"NoteNumber":73,"Velocity":48,"Duration":407142,"SoundDuration":407142,"Delta":29254388},{"NoteNumber":57,"Velocity":43,"Duration":407142,"SoundDuration":407142,"Delta":29254388},{"NoteNumber":67,"Velocity":43,"Duration":407142,"SoundDuration":407142,"Delta":29254388},{"NoteNumber":83,"Velocity":46,"Duration":407142,"SoundDuration":407142,"Delta":29682959},{"NoteNumber":73,"Velocity":46,"Duration":407142,"SoundDuration":407142,"Delta":29682959},{"NoteNumber":76,"Velocity":46,"Duration":407142,"SoundDuration":407142,"Delta":29682959},{"NoteNumber":67,"Velocity":41,"Duration":407142,"SoundDuration":407142,"Delta":29682959},{"NoteNumber":57,"Velocity":41,"Duration":407142,"SoundDuration":407142,"Delta":29682959},{"NoteNumber":73,"Velocity":44,"Duration":407142,"SoundDuration":407142,"Delta":30111530},{"NoteNumber":78,"Velocity":44,"Duration":407142,"SoundDuration":407142,"Delta":30111530},{"NoteNumber":81,"Velocity":44,"Duration":407142,"SoundDuration":407142,"Delta":30111530},{"NoteNumber":66,"Velocity":39,"Duration":407142,"SoundDuration":407142,"Delta":30111530},{"NoteNumber":57,"Velocity":39,"Duration":407142,"SoundDuration":407142,"Delta":30111530},{"NoteNumber":73,"Velocity":42,"Duration":407142,"SoundDuration":407142,"Delta":30540101},{"NoteNumber":79,"Velocity":42,"Duration":407142,"SoundDuration":407142,"Delta":30540101},{"NoteNumber":64,"Velocity":37,"Duration":407142,"SoundDuration":407142,"Delta":30540101},{"NoteNumber":57,"Velocity":37,"Duration":407142,"SoundDuration":407142,"Delta":30540101},{"NoteNumber":74,"Velocity":38,"Duration":425372,"SoundDuration":425372,"Delta":30968672},{"NoteNumber":78,"Velocity":38,"Duration":425372,"SoundDuration":425372,"Delta":30968672},{"NoteNumber":59,"Velocity":36,"Duration":425372,"SoundDuration":425372,"Delta":30968672},{"NoteNumber":62,"Velocity":36,"Duration":425372,"SoundDuration":425372,"Delta":30968672},{"NoteNumber":79,"Velocity":46,"Duration":407142,"SoundDuration":407142,"Delta":31416433},{"NoteNumber":73,"Velocity":46,"Duration":407142,"SoundDuration":407142,"Delta":31416433},{"NoteNumber":70,"Velocity":46,"Duration":407142,"SoundDuration":407142,"Delta":31416433},{"NoteNumber":64,"Velocity":42,"Duration":407142,"SoundDuration":407142,"Delta":31416433},{"NoteNumber":54,"Velocity":42,"Duration":407142,"SoundDuration":407142,"Delta":31416433},{"NoteNumber":79,"Velocity":46,"Duration":407142,"SoundDuration":407142,"Delta":31845004},{"NoteNumber":73,"Velocity":46,"Duration":407142,"SoundDuration":407142,"Delta":31845004},{"NoteNumber":70,"Velocity":46,"Duration":407142,"SoundDuration":407142,"Delta":31845004},{"NoteNumber":64,"Velocity":41,"Duration":407142,"SoundDuration":407142,"Delta":31845004},{"NoteNumber":54,"Velocity":41,"Duration":407142,"SoundDuration":407142,"Delta":31845004},{"NoteNumber":73,"Velocity":46,"Duration":407142,"SoundDuration":407142,"Delta":32273575},{"NoteNumber":70,"Velocity":46,"Duration":407142,"SoundDuration":407142,"Delta":32273575},{"NoteNumber":79,"Velocity":46,"Duration":407142,"SoundDuration":407142,"Delta":32273575},{"NoteNumber":64,"Velocity":41,"Duration":407142,"SoundDuration":407142,"Delta":32273575},{"NoteNumber":54,"Velocity":41,"Duration":407142,"SoundDuration":407142,"Delta":32273575},{"NoteNumber":70,"Velocity":44,"Duration":407142,"SoundDuration":407142,"Delta":32702146},{"NoteNumber":73,"Velocity":44,"Duration":407142,"SoundDuration":407142,"Delta":32702146},{"NoteNumber":78,"Velocity":44,"Duration":407142,"SoundDuration":407142,"Delta":32702146},{"NoteNumber":54,"Velocity":39,"Duration":407142,"SoundDuration":407142,"Delta":32702146},{"NoteNumber":61,"Velocity":39,"Duration":407142,"SoundDuration":407142,"Delta":32702146},{"NoteNumber":76,"Velocity":42,"Duration":407142,"SoundDuration":407142,"Delta":33130717},{"NoteNumber":73,"Velocity":42,"Duration":407142,"SoundDuration":407142,"Delta":33130717},{"NoteNumber":54,"Velocity":37,"Duration":407142,"SoundDuration":407142,"Delta":33130717},{"NoteNumber":58,"Velocity":37,"Duration":407142,"SoundDuration":407142,"Delta":33130717},{"NoteNumber":75,"Velocity":41,"Duration":439574,"SoundDuration":439574,"Delta":33559288},{"NoteNumber":71,"Velocity":41,"Duration":439574,"SoundDuration":439574,"Delta":33559288},{"NoteNumber":56,"Velocity":36,"Duration":439574,"SoundDuration":439574,"Delta":33559288},{"NoteNumber":59,"Velocity":36,"Duration":439574,"SoundDuration":439574,"Delta":33559288},{"NoteNumber":76,"Velocity":49,"Duration":407142,"SoundDuration":407142,"Delta":34022029},{"NoteNumber":64,"Velocity":49,"Duration":407142,"SoundDuration":407142,"Delta":34022029},{"NoteNumber":68,"Velocity":49,"Duration":407142,"SoundDuration":407142,"Delta":34022029},{"NoteNumber":56,"Velocity":44,"Duration":407142,"SoundDuration":407142,"Delta":34022029},{"NoteNumber":61,"Velocity":44,"Duration":407142,"SoundDuration":407142,"Delta":34022029},{"NoteNumber":49,"Velocity":44,"Duration":407142,"SoundDuration":407142,"Delta":34022029},{"NoteNumber":76,"Velocity":49,"Duration":407142,"SoundDuration":407142,"Delta":34450600},{"NoteNumber":68,"Velocity":49,"Duration":407142,"SoundDuration":407142,"Delta":34450600},{"NoteNumber":64,"Velocity":49,"Duration":407142,"SoundDuration":407142,"Delta":34450600},{"NoteNumber":49,"Velocity":42,"Duration":407142,"SoundDuration":407142,"Delta":34450600},{"NoteNumber":61,"Velocity":42,"Duration":407142,"SoundDuration":407142,"Delta":34450600},{"NoteNumber":56,"Velocity":42,"Duration":407142,"SoundDuration":407142,"Delta":34450600},{"NoteNumber":68,"Velocity":49,"Duration":407142,"SoundDuration":407142,"Delta":34879171},{"NoteNumber":64,"Velocity":49,"Duration":407142,"SoundDuration":407142,"Delta":34879171},{"NoteNumber":76,"Velocity":49,"Duration":407142,"SoundDuration":407142,"Delta":34879171},{"NoteNumber":61,"Velocity":44,"Duration":407142,"SoundDuration":407142,"Delta":34879171},{"NoteNumber":49,"Velocity":44,"Duration":407142,"SoundDuration":407142,"Delta":34879171},{"NoteNumber":56,"Velocity":44,"Duration":407142,"SoundDuration":407142,"Delta":34879171},{"NoteNumber":63,"Velocity":49,"Duration":407142,"SoundDuration":407142,"Delta":35307742},{"NoteNumber":75,"Velocity":49,"Duration":407142,"SoundDuration":407142,"Delta":35307742},{"NoteNumber":68,"Velocity":49,"Duration":407142,"SoundDuration":407142,"Delta":35307742},{"NoteNumber":51,"Velocity":43,"Duration":407142,"SoundDuration":407142,"Delta":35307742},{"NoteNumber":56,"Velocity":43,"Duration":407142,"SoundDuration":407142,"Delta":35307742},{"NoteNumber":59,"Velocity":43,"Duration":407142,"SoundDuration":407142,"Delta":35307742},{"NoteNumber":68,"Velocity":47,"Duration":407142,"SoundDuration":407142,"Delta":35736313},{"NoteNumber":73,"Velocity":47,"Duration":407142,"SoundDuration":407142,"Delta":35736313},{"NoteNumber":61,"Velocity":47,"Duration":407142,"SoundDuration":407142,"Delta":35736313},{"NoteNumber":52,"Velocity":42,"Duration":407142,"SoundDuration":407142,"Delta":35736313},{"NoteNumber":56,"Velocity":42,"Duration":407142,"SoundDuration":407142,"Delta":35736313},{"NoteNumber":71,"Velocity":48,"Duration":425372,"SoundDuration":425372,"Delta":36164884},{"NoteNumber":68,"Velocity":48,"Duration":425372,"SoundDuration":425372,"Delta":36164884},{"NoteNumber":63,"Velocity":48,"Duration":425372,"SoundDuration":425372,"Delta":36164884},{"NoteNumber":56,"Velocity":41,"Duration":425372,"SoundDuration":425372,"Delta":36164884},{"NoteNumber":51,"Velocity":41,"Duration":425372,"SoundDuration":425372,"Delta":36164884},{"NoteNumber":59,"Velocity":41,"Duration":425372,"SoundDuration":425372,"Delta":36164884},{"NoteNumber":63,"Velocity":48,"Duration":425372,"SoundDuration":425372,"Delta":36612645},{"NoteNumber":68,"Velocity":48,"Duration":425372,"SoundDuration":425372,"Delta":36612645},{"NoteNumber":71,"Velocity":48,"Duration":425372,"SoundDuration":425372,"Delta":36612645},{"NoteNumber":56,"Velocity":40,"Duration":425372,"SoundDuration":425372,"Delta":36612645},{"NoteNumber":59,"Velocity":40,"Duration":425372,"SoundDuration":425372,"Delta":36612645},{"NoteNumber":51,"Velocity":40,"Duration":425372,"SoundDuration":425372,"Delta":36612645},{"NoteNumber":63,"Velocity":48,"Duration":476987,"SoundDuration":476987,"Delta":37060406},{"NoteNumber":68,"Velocity":48,"Duration":476987,"SoundDuration":476987,"Delta":37060406},{"NoteNumber":71,"Velocity":48,"Duration":476987,"SoundDuration":476987,"Delta":37060406},{"NoteNumber":51,"Velocity":40,"Duration":476987,"SoundDuration":476987,"Delta":37060406},{"NoteNumber":59,"Velocity":40,"Duration":476987,"SoundDuration":476987,"Delta":37060406},{"NoteNumber":56,"Velocity":40,"Duration":476987,"SoundDuration":476987,"Delta":37060406},{"NoteNumber":70,"Velocity":33,"Duration":423792,"SoundDuration":423792,"Delta":37561564},{"NoteNumber":67,"Velocity":33,"Duration":423792,"SoundDuration":423792,"Delta":37561564},{"NoteNumber":63,"Velocity":33,"Duration":423792,"SoundDuration":423792,"Delta":37561564},{"NoteNumber":55,"Velocity":31,"Duration":423792,"SoundDuration":423792,"Delta":37561564},{"NoteNumber":51,"Velocity":31,"Duration":423792,"SoundDuration":423792,"Delta":37561564},{"NoteNumber":58,"Velocity":31,"Duration":423792,"SoundDuration":423792,"Delta":37561564},{"NoteNumber":70,"Velocity":34,"Duration":423792,"SoundDuration":423792,"Delta":38007661},{"NoteNumber":63,"Velocity":34,"Duration":423792,"SoundDuration":423792,"Delta":38007661},{"NoteNumber":67,"Velocity":34,"Duration":423792,"SoundDuration":423792,"Delta":38007661},{"NoteNumber":51,"Velocity":30,"Duration":423792,"SoundDuration":423792,"Delta":38007661},{"NoteNumber":58,"Velocity":30,"Duration":423792,"SoundDuration":423792,"Delta":38007661},{"NoteNumber":55,"Velocity":30,"Duration":423792,"SoundDuration":423792,"Delta":38007661},{"NoteNumber":63,"Velocity":34,"Duration":496517,"SoundDuration":496517,"Delta":38453758},{"NoteNumber":67,"Velocity":34,"Duration":496517,"SoundDuration":496517,"Delta":38453758},{"NoteNumber":70,"Velocity":34,"Duration":496517,"SoundDuration":496517,"Delta":38453758},{"NoteNumber":55,"Velocity":29,"Duration":496517,"SoundDuration":496517,"Delta":38453758},{"NoteNumber":58,"Velocity":29,"Duration":496517,"SoundDuration":496517,"Delta":38453758},{"NoteNumber":51,"Velocity":29,"Duration":496517,"SoundDuration":496517,"Delta":38453758},{"NoteNumber":84,"Velocity":40,"Duration":98360,"SoundDuration":98360,"Delta":38974410},{"NoteNumber":44,"Velocity":40,"Duration":393442,"SoundDuration":393442,"Delta":38974410},{"NoteNumber":87,"Velocity":34,"Duration":98360,"SoundDuration":98360,"Delta":39072770},{"NoteNumber":84,"Velocity":40,"Duration":98360,"SoundDuration":98360,"Delta":39171131},{"NoteNumber":80,"Velocity":34,"Duration":73770,"SoundDuration":73770,"Delta":39269492},{"NoteNumber":80,"Velocity":40,"Duration":98684,"SoundDuration":98684,"Delta":39367853},{"NoteNumber":60,"Velocity":40,"Duration":1586909,"SoundDuration":1586909,"Delta":39367853},{"NoteNumber":56,"Velocity":34,"Duration":1586909,"SoundDuration":1586909,"Delta":39367853},{"NoteNumber":51,"Velocity":34,"Duration":1586909,"SoundDuration":1586909,"Delta":39367853},{"NoteNumber":84,"Velocity":34,"Duration":98684,"SoundDuration":98684,"Delta":39466537},{"NoteNumber":80,"Velocity":40,"Duration":98684,"SoundDuration":98684,"Delta":39565221},{"NoteNumber":75,"Velocity":34,"Duration":74013,"SoundDuration":74013,"Delta":39663905},{"NoteNumber":75,"Velocity":40,"Duration":99009,"SoundDuration":99009,"Delta":39762590},{"NoteNumber":80,"Velocity":34,"Duration":99009,"SoundDuration":99009,"Delta":39861600},{"NoteNumber":75,"Velocity":40,"Duration":99009,"SoundDuration":99009,"Delta":39960610},{"NoteNumber":72,"Velocity":34,"Duration":74257,"SoundDuration":74257,"Delta":40059620},{"NoteNumber":72,"Velocity":40,"Duration":99337,"SoundDuration":99337,"Delta":40158630},{"NoteNumber":75,"Velocity":34,"Duration":99337,"SoundDuration":99337,"Delta":40257967},{"NoteNumber":72,"Velocity":40,"Duration":99337,"SoundDuration":99337,"Delta":40357305},{"NoteNumber":68,"Velocity":34,"Duration":74503,"SoundDuration":74503,"Delta":40456643},{"NoteNumber":68,"Velocity":40,"Duration":99667,"SoundDuration":99667,"Delta":40555981},{"NoteNumber":72,"Velocity":34,"Duration":99667,"SoundDuration":99667,"Delta":40655648},{"NoteNumber":68,"Velocity":40,"Duration":99667,"SoundDuration":99667,"Delta":40755316},{"NoteNumber":63,"Velocity":34,"Duration":99778,"SoundDuration":99778,"Delta":40854984},{"NoteNumber":67,"Velocity":30,"Duration":238666,"SoundDuration":238666,"Delta":40954762},{"NoteNumber":70,"Velocity":36,"Duration":238666,"SoundDuration":238666,"Delta":40954762},{"NoteNumber":61,"Velocity":32,"Duration":238666,"SoundDuration":238666,"Delta":40954762},{"NoteNumber":51,"Velocity":27,"Duration":238666,"SoundDuration":238666,"Delta":40954762},{"NoteNumber":84,"Velocity":40,"Duration":99122,"SoundDuration":99122,"Delta":41433429},{"NoteNumber":44,"Velocity":40,"Duration":395175,"SoundDuration":395175,"Delta":41433429},{"NoteNumber":87,"Velocity":34,"Duration":98684,"SoundDuration":98684,"Delta":41532552},{"NoteNumber":84,"Velocity":40,"Duration":98684,"SoundDuration":98684,"Delta":41631236},{"NoteNumber":80,"Velocity":34,"Duration":74013,"SoundDuration":74013,"Delta":41729920},{"NoteNumber":80,"Velocity":40,"Duration":98901,"SoundDuration":98901,"Delta":41828605},{"NoteNumber":51,"Velocity":34,"Duration":1592287,"SoundDuration":1592287,"Delta":41828605},{"NoteNumber":56,"Velocity":34,"Duration":1592287,"SoundDuration":1592287,"Delta":41828605},{"NoteNumber":60,"Velocity":40,"Duration":1592287,"SoundDuration":1592287,"Delta":41828605},{"NoteNumber":84,"Velocity":34,"Duration":99009,"SoundDuration":99009,"Delta":41927506},{"NoteNumber":80,"Velocity":40,"Duration":99009,"SoundDuration":99009,"Delta":42026516},{"NoteNumber":75,"Velocity":34,"Duration":74257,"SoundDuration":74257,"Delta":42125526},{"NoteNumber":75,"Velocity":40,"Duration":99337,"SoundDuration":99337,"Delta":42224536},{"NoteNumber":80,"Velocity":34,"Duration":99337,"SoundDuration":99337,"Delta":42323874},{"NoteNumber":75,"Velocity":40,"Duration":99337,"SoundDuration":99337,"Delta":42423212},{"NoteNumber":72,"Velocity":34,"Duration":74503,"SoundDuration":74503,"Delta":42522549},{"NoteNumber":72,"Velocity":40,"Duration":99667,"SoundDuration":99667,"Delta":42621887},{"NoteNumber":75,"Velocity":34,"Duration":99667,"SoundDuration":99667,"Delta":42721555},{"NoteNumber":72,"Velocity":40,"Duration":99667,"SoundDuration":99667,"Delta":42821223},{"NoteNumber":68,"Velocity":34,"Duration":74778,"SoundDuration":74778,"Delta":42920890},{"NoteNumber":68,"Velocity":40,"Duration":100000,"SoundDuration":100000,"Delta":43020669},{"NoteNumber":72,"Velocity":34,"Duration":100000,"SoundDuration":100000,"Delta":43120669},{"NoteNumber":68,"Velocity":40,"Duration":100000,"SoundDuration":100000,"Delta":43220669},{"NoteNumber":63,"Velocity":34,"Duration":100222,"SoundDuration":100222,"Delta":43320669},{"NoteNumber":67,"Velocity":36,"Duration":238688,"SoundDuration":238688,"Delta":43420892},{"NoteNumber":70,"Velocity":36,"Duration":238688,"SoundDuration":238688,"Delta":43420892},{"NoteNumber":51,"Velocity":28,"Duration":238688,"SoundDuration":238688,"Delta":43420892},{"NoteNumber":61,"Velocity":34,"Duration":238688,"SoundDuration":238688,"Delta":43420892},{"NoteNumber":87,"Velocity":45,"Duration":98692,"SoundDuration":98692,"Delta":43899581},{"NoteNumber":44,"Velocity":45,"Duration":392917,"SoundDuration":392917,"Delta":43899581},{"NoteNumber":92,"Velocity":38,"Duration":98039,"SoundDuration":98039,"Delta":43998274},{"NoteNumber":87,"Velocity":45,"Duration":98039,"SoundDuration":98039,"Delta":44096313},{"NoteNumber":84,"Velocity":38,"Duration":73556,"SoundDuration":73556,"Delta":44194352},{"NoteNumber":84,"Velocity":45,"Duration":98360,"SoundDuration":98360,"Delta":44292499},{"NoteNumber":51,"Velocity":41,"Duration":1585068,"SoundDuration":1585068,"Delta":44292499},{"NoteNumber":56,"Velocity":41,"Duration":1585068,"SoundDuration":1585068,"Delta":44292499},{"NoteNumber":60,"Velocity":49,"Duration":1585068,"SoundDuration":1585068,"Delta":44292499},{"NoteNumber":87,"Velocity":38,"Duration":98360,"SoundDuration":98360,"Delta":44390859},{"NoteNumber":84,"Velocity":45,"Duration":98468,"SoundDuration":98468,"Delta":44489220},{"NoteNumber":80,"Velocity":38,"Duration":74013,"SoundDuration":74013,"Delta":44587689},{"NoteNumber":80,"Velocity":45,"Duration":98684,"SoundDuration":98684,"Delta":44686373},{"NoteNumber":84,"Velocity":38,"Duration":98684,"SoundDuration":98684,"Delta":44785057},{"NoteNumber":80,"Velocity":45,"Duration":99009,"SoundDuration":99009,"Delta":44883741},{"NoteNumber":75,"Velocity":38,"Duration":74257,"SoundDuration":74257,"Delta":44982751},{"NoteNumber":75,"Velocity":45,"Duration":99009,"SoundDuration":99009,"Delta":45081761},{"NoteNumber":80,"Velocity":38,"Duration":99337,"SoundDuration":99337,"Delta":45180771},{"NoteNumber":75,"Velocity":45,"Duration":99337,"SoundDuration":99337,"Delta":45280109},{"NoteNumber":72,"Velocity":38,"Duration":74503,"SoundDuration":74503,"Delta":45379447},{"NoteNumber":72,"Velocity":45,"Duration":99557,"SoundDuration":99557,"Delta":45478785},{"NoteNumber":75,"Velocity":38,"Duration":99667,"SoundDuration":99667,"Delta":45578342},{"NoteNumber":72,"Velocity":45,"Duration":99667,"SoundDuration":99667,"Delta":45678010},{"NoteNumber":68,"Velocity":38,"Duration":99889,"SoundDuration":99889,"Delta":45777678},{"NoteNumber":67,"Velocity":40,"Duration":238666,"SoundDuration":238666,"Delta":45877567},{"NoteNumber":70,"Velocity":40,"Duration":238666,"SoundDuration":238666,"Delta":45877567},{"NoteNumber":51,"Velocity":33,"Duration":238666,"SoundDuration":238666,"Delta":45877567},{"NoteNumber":61,"Velocity":39,"Duration":238666,"SoundDuration":238666,"Delta":45877567},{"NoteNumber":87,"Velocity":50,"Duration":98684,"SoundDuration":98684,"Delta":46356234},{"NoteNumber":44,"Velocity":50,"Duration":394736,"SoundDuration":394736,"Delta":46356234},{"NoteNumber":92,"Velocity":42,"Duration":98684,"SoundDuration":98684,"Delta":46454918},{"NoteNumber":87,"Velocity":50,"Duration":98684,"SoundDuration":98684,"Delta":46553602},{"NoteNumber":84,"Velocity":42,"Duration":74013,"SoundDuration":74013,"Delta":46652287},{"NoteNumber":84,"Velocity":50,"Duration":99009,"SoundDuration":99009,"Delta":46750971},{"NoteNumber":60,"Velocity":48,"Duration":1592505,"SoundDuration":1592505,"Delta":46750971},{"NoteNumber":51,"Velocity":40,"Duration":1592505,"SoundDuration":1592505,"Delta":46750971},{"NoteNumber":56,"Velocity":40,"Duration":1592505,"SoundDuration":1592505,"Delta":46750971},{"NoteNumber":87,"Velocity":42,"Duration":99009,"SoundDuration":99009,"Delta":46849981},{"NoteNumber":84,"Velocity":50,"Duration":99009,"SoundDuration":99009,"Delta":46948991},{"NoteNumber":80,"Velocity":42,"Duration":74257,"SoundDuration":74257,"Delta":47048001},{"NoteNumber":80,"Velocity":50,"Duration":99337,"SoundDuration":99337,"Delta":47147011},{"NoteNumber":84,"Velocity":42,"Duration":99337,"SoundDuration":99337,"Delta":47246349},{"NoteNumber":80,"Velocity":50,"Duration":99337,"SoundDuration":99337,"Delta":47345686},{"NoteNumber":75,"Velocity":42,"Duration":74530,"SoundDuration":74530,"Delta":47445024},{"NoteNumber":75,"Velocity":50,"Duration":99667,"SoundDuration":99667,"Delta":47544472},{"NoteNumber":80,"Velocity":42,"Duration":99667,"SoundDuration":99667,"Delta":47644140},{"NoteNumber":75,"Velocity":50,"Duration":99667,"SoundDuration":99667,"Delta":47743807},{"NoteNumber":72,"Velocity":42,"Duration":74778,"SoundDuration":74778,"Delta":47843475},{"NoteNumber":72,"Velocity":50,"Duration":100000,"SoundDuration":100000,"Delta":47943254},{"NoteNumber":75,"Velocity":42,"Duration":100000,"SoundDuration":100000,"Delta":48043254},{"NoteNumber":72,"Velocity":50,"Duration":100000,"SoundDuration":100000,"Delta":48143254},{"NoteNumber":68,"Velocity":42,"Duration":100222,"SoundDuration":100222,"Delta":48243254},{"NoteNumber":67,"Velocity":45,"Duration":238688,"SoundDuration":238688,"Delta":48343477},{"NoteNumber":70,"Velocity":45,"Duration":238688,"SoundDuration":238688,"Delta":48343477},{"NoteNumber":61,"Velocity":38,"Duration":238688,"SoundDuration":238688,"Delta":48343477},{"NoteNumber":51,"Velocity":32,"Duration":238688,"SoundDuration":238688,"Delta":48343477},{"NoteNumber":72,"Velocity":40,"Duration":100000,"SoundDuration":100000,"Delta":48822166},{"NoteNumber":44,"Velocity":40,"Duration":399999,"SoundDuration":399999,"Delta":48822166},{"NoteNumber":75,"Velocity":34,"Duration":100000,"SoundDuration":100000,"Delta":48922166},{"NoteNumber":72,"Velocity":40,"Duration":99999,"SoundDuration":99999,"Delta":49022166},{"NoteNumber":68,"Velocity":34,"Duration":75000,"SoundDuration":75000,"Delta":49122166},{"NoteNumber":68,"Velocity":40,"Duration":100000,"SoundDuration":100000,"Delta":49222166},{"NoteNumber":60,"Velocity":33,"Duration":828570,"SoundDuration":828570,"Delta":49222166},{"NoteNumber":56,"Velocity":27,"Duration":828570,"SoundDuration":828570,"Delta":49222166},{"NoteNumber":54,"Velocity":27,"Duration":828570,"SoundDuration":828570,"Delta":49222166},{"NoteNumber":72,"Velocity":34,"Duration":100000,"SoundDuration":100000,"Delta":49322166},{"NoteNumber":68,"Velocity":40,"Duration":100000,"SoundDuration":100000,"Delta":49422166},{"NoteNumber":63,"Velocity":34,"Duration":99999,"SoundDuration":99999,"Delta":49522166},{"NoteNumber":68,"Velocity":40,"Duration":107142,"SoundDuration":107142,"Delta":49622166},{"NoteNumber":73,"Velocity":40,"Duration":100000,"SoundDuration":100000,"Delta":50050737},{"NoteNumber":49,"Velocity":40,"Duration":399999,"SoundDuration":399999,"Delta":50050737},{"NoteNumber":77,"Velocity":34,"Duration":100000,"SoundDuration":100000,"Delta":50150737},{"NoteNumber":73,"Velocity":40,"Duration":99999,"SoundDuration":99999,"Delta":50250737},{"NoteNumber":68,"Velocity":34,"Duration":75000,"SoundDuration":75000,"Delta":50350737},{"NoteNumber":68,"Velocity":40,"Duration":100000,"SoundDuration":100000,"Delta":50450737},{"NoteNumber":61,"Velocity":29,"Duration":828094,"SoundDuration":828094,"Delta":50450737},{"NoteNumber":53,"Velocity":25,"Duration":828094,"SoundDuration":828094,"Delta":50450737},{"NoteNumber":56,"Velocity":25,"Duration":828094,"SoundDuration":828094,"Delta":50450737},{"NoteNumber":73,"Velocity":34,"Duration":100000,"SoundDuration":100000,"Delta":50550737},{"NoteNumber":68,"Velocity":40,"Duration":100000,"SoundDuration":100000,"Delta":50650737},{"NoteNumber":65,"Velocity":34,"Duration":99999,"SoundDuration":99999,"Delta":50750737},{"NoteNumber":68,"Velocity":40,"Duration":107142,"SoundDuration":107142,"Delta":50850737},{"NoteNumber":75,"Velocity":40,"Duration":100000,"SoundDuration":100000,"Delta":51278831},{"NoteNumber":39,"Velocity":40,"Duration":399999,"SoundDuration":399999,"Delta":51278831},{"NoteNumber":79,"Velocity":34,"Duration":99999,"SoundDuration":99999,"Delta":51378831},{"NoteNumber":75,"Velocity":40,"Duration":100000,"SoundDuration":100000,"Delta":51478831},{"NoteNumber":70,"Velocity":34,"Duration":75000,"SoundDuration":75000,"Delta":51578831},{"NoteNumber":70,"Velocity":40,"Duration":100000,"SoundDuration":100000,"Delta":51678831},{"NoteNumber":51,"Velocity":29,"Duration":829606,"SoundDuration":829606,"Delta":51678831},{"NoteNumber":58,"Velocity":29,"Duration":829606,"SoundDuration":829606,"Delta":51678831},{"NoteNumber":61,"Velocity":35,"Duration":829606,"SoundDuration":829606,"Delta":51678831},{"NoteNumber":75,"Velocity":34,"Duration":100000,"SoundDuration":100000,"Delta":51778831},{"NoteNumber":70,"Velocity":40,"Duration":99999,"SoundDuration":99999,"Delta":51878831},{"NoteNumber":67,"Velocity":34,"Duration":100000,"SoundDuration":100000,"Delta":51978831},{"NoteNumber":70,"Velocity":40,"Duration":107025,"SoundDuration":107025,"Delta":52078831},{"NoteNumber":75,"Velocity":40,"Duration":100334,"SoundDuration":100334,"Delta":52508438},{"NoteNumber":44,"Velocity":40,"Duration":401338,"SoundDuration":401338,"Delta":52508438},{"NoteNumber":80,"Velocity":34,"Duration":100334,"SoundDuration":100334,"Delta":52608772},{"NoteNumber":75,"Velocity":40,"Duration":100334,"SoundDuration":100334,"Delta":52709107},{"NoteNumber":72,"Velocity":34,"Duration":75250,"SoundDuration":75250,"Delta":52809441},{"NoteNumber":72,"Velocity":40,"Duration":100334,"SoundDuration":100334,"Delta":52909776},{"NoteNumber":56,"Velocity":31,"Duration":862875,"SoundDuration":862875,"Delta":52909776},{"NoteNumber":51,"Velocity":31,"Duration":862875,"SoundDuration":862875,"Delta":52909776},{"NoteNumber":60,"Velocity":37,"Duration":862875,"SoundDuration":862875,"Delta":52909776},{"NoteNumber":75,"Velocity":34,"Duration":100334,"SoundDuration":100334,"Delta":53010110},{"NoteNumber":72,"Velocity":40,"Duration":100334,"SoundDuration":100334,"Delta":53110445},{"NoteNumber":68,"Velocity":34,"Duration":100334,"SoundDuration":100334,"Delta":53210779},{"NoteNumber":72,"Velocity":40,"Duration":115384,"SoundDuration":115384,"Delta":53311114},{"NoteNumber":84,"Velocity":52,"Duration":101337,"SoundDuration":101337,"Delta":53772652},{"NoteNumber":44,"Velocity":52,"Duration":402341,"SoundDuration":402341,"Delta":53772652},{"NoteNumber":87,"Velocity":44,"Duration":100334,"SoundDuration":100334,"Delta":53873989},{"NoteNumber":84,"Velocity":52,"Duration":100334,"SoundDuration":100334,"Delta":53974324},{"NoteNumber":80,"Velocity":44,"Duration":75250,"SoundDuration":75250,"Delta":54074658},{"NoteNumber":80,"Velocity":52,"Duration":100334,"SoundDuration":100334,"Delta":54174993},{"NoteNumber":60,"Velocity":43,"Duration":829909,"SoundDuration":829909,"Delta":54174993},{"NoteNumber":54,"Velocity":35,"Duration":829909,"SoundDuration":829909,"Delta":54174993},{"NoteNumber":56,"Velocity":35,"Duration":829909,"SoundDuration":829909,"Delta":54174993},{"NoteNumber":84,"Velocity":44,"Duration":100334,"SoundDuration":100334,"Delta":54275327},{"NoteNumber":80,"Velocity":52,"Duration":100334,"SoundDuration":100334,"Delta":54375662},{"NoteNumber":75,"Velocity":44,"Duration":100334,"SoundDuration":100334,"Delta":54475996},{"NoteNumber":80,"Velocity":52,"Duration":107142,"SoundDuration":107142,"Delta":54576331},{"NoteNumber":85,"Velocity":60,"Duration":100671,"SoundDuration":100671,"Delta":55004902},{"NoteNumber":49,"Velocity":60,"Duration":402684,"SoundDuration":402684,"Delta":55004902},{"NoteNumber":89,"Velocity":51,"Duration":100671,"SoundDuration":100671,"Delta":55105573},{"NoteNumber":85,"Velocity":60,"Duration":100671,"SoundDuration":100671,"Delta":55206244},{"NoteNumber":80,"Velocity":51,"Duration":75503,"SoundDuration":75503,"Delta":55306916},{"NoteNumber":80,"Velocity":60,"Duration":100671,"SoundDuration":100671,"Delta":55407587},{"NoteNumber":61,"Velocity":52,"Duration":831256,"SoundDuration":831256,"Delta":55407587},{"NoteNumber":53,"Velocity":44,"Duration":831256,"SoundDuration":831256,"Delta":55407587},{"NoteNumber":56,"Velocity":44,"Duration":831256,"SoundDuration":831256,"Delta":55407587},{"NoteNumber":85,"Velocity":51,"Duration":100671,"SoundDuration":100671,"Delta":55508258},{"NoteNumber":80,"Velocity":60,"Duration":100671,"SoundDuration":100671,"Delta":55608929},{"NoteNumber":77,"Velocity":51,"Duration":100671,"SoundDuration":100671,"Delta":55709601},{"NoteNumber":80,"Velocity":60,"Duration":107142,"SoundDuration":107142,"Delta":55810272},{"NoteNumber":87,"Velocity":70,"Duration":100334,"SoundDuration":100334,"Delta":56238843},{"NoteNumber":39,"Velocity":70,"Duration":401338,"SoundDuration":401338,"Delta":56238843},{"NoteNumber":91,"Velocity":59,"Duration":100334,"SoundDuration":100334,"Delta":56339177},{"NoteNumber":87,"Velocity":70,"Duration":100334,"SoundDuration":100334,"Delta":56439512},{"NoteNumber":82,"Velocity":59,"Duration":75250,"SoundDuration":75250,"Delta":56539846},{"NoteNumber":82,"Velocity":70,"Duration":100334,"SoundDuration":100334,"Delta":56640181},{"NoteNumber":58,"Velocity":51,"Duration":829908,"SoundDuration":829908,"Delta":56640181},{"NoteNumber":51,"Velocity":51,"Duration":829908,"SoundDuration":829908,"Delta":56640181},{"NoteNumber":61,"Velocity":61,"Duration":829908,"SoundDuration":829908,"Delta":56640181},{"NoteNumber":87,"Velocity":59,"Duration":100334,"SoundDuration":100334,"Delta":56740515},{"NoteNumber":82,"Velocity":70,"Duration":100334,"SoundDuration":100334,"Delta":56840850},{"NoteNumber":79,"Velocity":59,"Duration":100334,"SoundDuration":100334,"Delta":56941184},{"NoteNumber":82,"Velocity":70,"Duration":214285,"SoundDuration":214285,"Delta":57041519},{"NoteNumber":87,"Velocity":80,"Duration":100000,"SoundDuration":100000,"Delta":57470090},{"NoteNumber":44,"Velocity":76,"Duration":399999,"SoundDuration":399999,"Delta":57470090},{"NoteNumber":92,"Velocity":68,"Duration":100000,"SoundDuration":100000,"Delta":57570090},{"NoteNumber":87,"Velocity":80,"Duration":99999,"SoundDuration":99999,"Delta":57670090},{"NoteNumber":84,"Velocity":68,"Duration":75000,"SoundDuration":75000,"Delta":57770090},{"NoteNumber":84,"Velocity":80,"Duration":100000,"SoundDuration":100000,"Delta":57870090},{"NoteNumber":56,"Velocity":53,"Duration":864375,"SoundDuration":864375,"Delta":57870090},{"NoteNumber":60,"Velocity":63,"Duration":864375,"SoundDuration":864375,"Delta":57870090},{"NoteNumber":51,"Velocity":53,"Duration":864375,"SoundDuration":864375,"Delta":57870090},{"NoteNumber":87,"Velocity":68,"Duration":100000,"SoundDuration":100000,"Delta":57970090},{"NoteNumber":84,"Velocity":80,"Duration":100000,"SoundDuration":100000,"Delta":58070090},{"NoteNumber":80,"Velocity":68,"Duration":101055,"SoundDuration":101055,"Delta":58170090},{"NoteNumber":84,"Velocity":80,"Duration":231659,"SoundDuration":231659,"Delta":58271145},{"NoteNumber":72,"Velocity":40,"Duration":107432,"SoundDuration":107432,"Delta":58734465},{"NoteNumber":44,"Velocity":34,"Duration":1228146,"SoundDuration":1228146,"Delta":58734465},{"NoteNumber":51,"Velocity":50,"Duration":428146,"SoundDuration":428146,"Delta":58734465},{"NoteNumber":75,"Velocity":34,"Duration":107142,"SoundDuration":107142,"Delta":58841898},{"NoteNumber":72,"Velocity":40,"Duration":107142,"SoundDuration":107142,"Delta":58949040},{"NoteNumber":68,"Velocity":34,"Duration":80357,"SoundDuration":80357,"Delta":59056183},{"NoteNumber":68,"Velocity":40,"Duration":100000,"SoundDuration":100000,"Delta":59162612},{"NoteNumber":56,"Velocity":60,"Duration":600000,"SoundDuration":600000,"Delta":59162612},{"NoteNumber":72,"Velocity":34,"Duration":100000,"SoundDuration":100000,"Delta":59262612},{"NoteNumber":68,"Velocity":40,"Duration":100000,"SoundDuration":100000,"Delta":59362612},{"NoteNumber":63,"Velocity":34,"Duration":99999,"SoundDuration":99999,"Delta":59462612},{"NoteNumber":68,"Velocity":40,"Duration":200000,"SoundDuration":200000,"Delta":59562612},{"NoteNumber":55,"Velocity":50,"Duration":200000,"SoundDuration":200000,"Delta":59762612},{"NoteNumber":73,"Velocity":40,"Duration":106761,"SoundDuration":106761,"Delta":59962612},{"NoteNumber":53,"Velocity":50,"Duration":427045,"SoundDuration":427045,"Delta":59962612},{"NoteNumber":49,"Velocity":34,"Duration":1227045,"SoundDuration":1227045,"Delta":59962612},{"NoteNumber":77,"Velocity":34,"Duration":106761,"SoundDuration":106761,"Delta":60069373},{"NoteNumber":73,"Velocity":40,"Duration":106761,"SoundDuration":106761,"Delta":60176135},{"NoteNumber":68,"Velocity":34,"Duration":80071,"SoundDuration":80071,"Delta":60282896},{"NoteNumber":68,"Velocity":40,"Duration":100000,"SoundDuration":100000,"Delta":60389658},{"NoteNumber":61,"Velocity":60,"Duration":600000,"SoundDuration":600000,"Delta":60389658},{"NoteNumber":73,"Velocity":34,"Duration":100000,"SoundDuration":100000,"Delta":60489658},{"NoteNumber":68,"Velocity":40,"Duration":99999,"SoundDuration":99999,"Delta":60589658},{"NoteNumber":65,"Velocity":34,"Duration":100000,"SoundDuration":100000,"Delta":60689658},{"NoteNumber":68,"Velocity":40,"Duration":200000,"SoundDuration":200000,"Delta":60789658},{"NoteNumber":60,"Velocity":50,"Duration":199999,"SoundDuration":199999,"Delta":60989658},{"NoteNumber":75,"Velocity":40,"Duration":107025,"SoundDuration":107025,"Delta":61189658},{"NoteNumber":58,"Velocity":50,"Duration":429104,"SoundDuration":429104,"Delta":61189658},{"NoteNumber":51,"Velocity":34,"Duration":1229104,"SoundDuration":1229104,"Delta":61189658},{"NoteNumber":79,"Velocity":34,"Duration":107526,"SoundDuration":107526,"Delta":61296683},{"NoteNumber":75,"Velocity":40,"Duration":107526,"SoundDuration":107526,"Delta":61404210},{"NoteNumber":70,"Velocity":34,"Duration":80645,"SoundDuration":80645,"Delta":61511737},{"NoteNumber":70,"Velocity":40,"Duration":100000,"SoundDuration":100000,"Delta":61618762},{"NoteNumber":63,"Velocity":60,"Duration":600000,"SoundDuration":600000,"Delta":61618762},{"NoteNumber":75,"Velocity":34,"Duration":99999,"SoundDuration":99999,"Delta":61718762},{"NoteNumber":70,"Velocity":40,"Duration":100000,"SoundDuration":100000,"Delta":61818762},{"NoteNumber":67,"Velocity":34,"Duration":100000,"SoundDuration":100000,"Delta":61918762},{"NoteNumber":70,"Velocity":40,"Duration":200000,"SoundDuration":200000,"Delta":62018762},{"NoteNumber":61,"Velocity":50,"Duration":200000,"SoundDuration":200000,"Delta":62218762},{"NoteNumber":75,"Velocity":40,"Duration":107142,"SoundDuration":107142,"Delta":62418762},{"NoteNumber":56,"Velocity":34,"Duration":1229047,"SoundDuration":1229047,"Delta":62418762},{"NoteNumber":60,"Velocity":50,"Duration":428570,"SoundDuration":428570,"Delta":62418762},{"NoteNumber":80,"Velocity":34,"Duration":107142,"SoundDuration":107142,"Delta":62525905},{"NoteNumber":75,"Velocity":40,"Duration":107142,"SoundDuration":107142,"Delta":62633047},{"NoteNumber":72,"Velocity":34,"Duration":80357,"SoundDuration":80357,"Delta":62740190},{"NoteNumber":72,"Velocity":40,"Duration":100476,"SoundDuration":100476,"Delta":62847333},{"NoteNumber":63,"Velocity":60,"Duration":800476,"SoundDuration":800476,"Delta":62847333},{"NoteNumber":75,"Velocity":34,"Duration":100000,"SoundDuration":100000,"Delta":62947809},{"NoteNumber":72,"Velocity":40,"Duration":100000,"SoundDuration":100000,"Delta":63047809},{"NoteNumber":68,"Velocity":34,"Duration":99999,"SoundDuration":99999,"Delta":63147809},{"NoteNumber":72,"Velocity":40,"Duration":200000,"SoundDuration":200000,"Delta":63247809},{"NoteNumber":84,"Velocity":52,"Duration":120967,"SoundDuration":120967,"Delta":63647809},{"NoteNumber":44,"Velocity":55,"Duration":1279792,"SoundDuration":1279792,"Delta":63647809},{"NoteNumber":51,"Velocity":65,"Duration":482450,"SoundDuration":482450,"Delta":63647809},{"NoteNumber":87,"Velocity":44,"Duration":120967,"SoundDuration":120967,"Delta":63768777},{"NoteNumber":84,"Velocity":52,"Duration":120967,"SoundDuration":120967,"Delta":63889745},{"NoteNumber":80,"Velocity":44,"Duration":90725,"SoundDuration":90725,"Delta":64010712},{"NoteNumber":80,"Velocity":52,"Duration":99667,"SoundDuration":99667,"Delta":64130260},{"NoteNumber":56,"Velocity":73,"Duration":598006,"SoundDuration":598006,"Delta":64130260},{"NoteNumber":84,"Velocity":44,"Duration":99667,"SoundDuration":99667,"Delta":64229928},{"NoteNumber":80,"Velocity":52,"Duration":99667,"SoundDuration":99667,"Delta":64329596},{"NoteNumber":75,"Velocity":44,"Duration":99667,"SoundDuration":99667,"Delta":64429263},{"NoteNumber":80,"Velocity":52,"Duration":199335,"SoundDuration":199335,"Delta":64528931},{"NoteNumber":55,"Velocity":60,"Duration":199335,"SoundDuration":199335,"Delta":64728267},{"NoteNumber":85,"Velocity":55,"Duration":107727,"SoundDuration":107727,"Delta":64927602},{"NoteNumber":53,"Velocity":67,"Duration":432637,"SoundDuration":432637,"Delta":64927602},{"NoteNumber":49,"Velocity":56,"Duration":1233163,"SoundDuration":1233163,"Delta":64927602},{"NoteNumber":89,"Velocity":46,"Duration":108303,"SoundDuration":108303,"Delta":65035330},{"NoteNumber":85,"Velocity":55,"Duration":108303,"SoundDuration":108303,"Delta":65143633},{"NoteNumber":80,"Velocity":46,"Duration":81227,"SoundDuration":81227,"Delta":65251936},{"NoteNumber":80,"Velocity":55,"Duration":99999,"SoundDuration":99999,"Delta":65360239},{"NoteNumber":61,"Velocity":76,"Duration":599999,"SoundDuration":599999,"Delta":65360239},{"NoteNumber":85,"Velocity":46,"Duration":100000,"SoundDuration":100000,"Delta":65460239},{"NoteNumber":80,"Velocity":55,"Duration":99999,"SoundDuration":99999,"Delta":65560239},{"NoteNumber":77,"Velocity":46,"Duration":100000,"SoundDuration":100000,"Delta":65660239},{"NoteNumber":80,"Velocity":55,"Duration":199999,"SoundDuration":199999,"Delta":65760239},{"NoteNumber":60,"Velocity":66,"Duration":200526,"SoundDuration":200526,"Delta":65960239},{"NoteNumber":87,"Velocity":62,"Duration":105263,"SoundDuration":105263,"Delta":66160766},{"NoteNumber":58,"Velocity":71,"Duration":421053,"SoundDuration":421053,"Delta":66160766},{"NoteNumber":51,"Velocity":60,"Duration":1221428,"SoundDuration":1221428,"Delta":66160766},{"NoteNumber":91,"Velocity":52,"Duration":105263,"SoundDuration":105263,"Delta":66266029},{"NoteNumber":87,"Velocity":62,"Duration":105263,"SoundDuration":105263,"Delta":66371292},{"NoteNumber":82,"Velocity":52,"Duration":78947,"SoundDuration":78947,"Delta":66476555},{"NoteNumber":82,"Velocity":62,"Duration":99999,"SoundDuration":99999,"Delta":66581819},{"NoteNumber":63,"Velocity":79,"Duration":599999,"SoundDuration":599999,"Delta":66581819},{"NoteNumber":87,"Velocity":52,"Duration":100000,"SoundDuration":100000,"Delta":66681819},{"NoteNumber":82,"Velocity":62,"Duration":99999,"SoundDuration":99999,"Delta":66781819},{"NoteNumber":79,"Velocity":52,"Duration":100000,"SoundDuration":100000,"Delta":66881819},{"NoteNumber":82,"Velocity":62,"Duration":199999,"SoundDuration":199999,"Delta":66981819},{"NoteNumber":61,"Velocity":69,"Duration":200375,"SoundDuration":200375,"Delta":67181819},{"NoteNumber":87,"Velocity":70,"Duration":105633,"SoundDuration":105633,"Delta":67382194},{"NoteNumber":56,"Velocity":61,"Duration":1222159,"SoundDuration":1222159,"Delta":67382194},{"NoteNumber":60,"Velocity":73,"Duration":422159,"SoundDuration":422159,"Delta":67382194},{"NoteNumber":92,"Velocity":59,"Duration":105633,"SoundDuration":105633,"Delta":67487828},{"NoteNumber":87,"Velocity":70,"Duration":105633,"SoundDuration":105633,"Delta":67593462},{"NoteNumber":84,"Velocity":58,"Duration":79225,"SoundDuration":79225,"Delta":67699096},{"NoteNumber":84,"Velocity":70,"Duration":100000,"SoundDuration":100000,"Delta":67804354},{"NoteNumber":63,"Velocity":82,"Duration":600000,"SoundDuration":600000,"Delta":67804354},{"NoteNumber":87,"Velocity":59,"Duration":99999,"SoundDuration":99999,"Delta":67904354},{"NoteNumber":84,"Velocity":70,"Duration":100000,"SoundDuration":100000,"Delta":68004354},{"NoteNumber":80,"Velocity":59,"Duration":99999,"SoundDuration":99999,"Delta":68104354},{"NoteNumber":84,"Velocity":70,"Duration":200000,"SoundDuration":200000,"Delta":68204354},{"NoteNumber":60,"Velocity":72,"Duration":200000,"SoundDuration":200000,"Delta":68404354},{"NoteNumber":87,"Velocity":77,"Duration":109230,"SoundDuration":109230,"Delta":68604354},{"NoteNumber":58,"Velocity":77,"Duration":438900,"SoundDuration":438900,"Delta":68604354},{"NoteNumber":51,"Velocity":66,"Duration":1239402,"SoundDuration":1239402,"Delta":68604354},{"NoteNumber":91,"Velocity":65,"Duration":109889,"SoundDuration":109889,"Delta":68713584},{"NoteNumber":87,"Velocity":77,"Duration":109890,"SoundDuration":109890,"Delta":68823474},{"NoteNumber":82,"Velocity":65,"Duration":82417,"SoundDuration":82417,"Delta":68933364},{"NoteNumber":82,"Velocity":77,"Duration":99999,"SoundDuration":99999,"Delta":69043254},{"NoteNumber":63,"Velocity":84,"Duration":599999,"SoundDuration":599999,"Delta":69043254},{"NoteNumber":87,"Velocity":65,"Duration":100000,"SoundDuration":100000,"Delta":69143254},{"NoteNumber":82,"Velocity":77,"Duration":99999,"SoundDuration":99999,"Delta":69243254},{"NoteNumber":79,"Velocity":65,"Duration":100000,"SoundDuration":100000,"Delta":69343254},{"NoteNumber":82,"Velocity":77,"Duration":199999,"SoundDuration":199999,"Delta":69443254},{"NoteNumber":61,"Velocity":79,"Duration":200501,"SoundDuration":200501,"Delta":69643254},{"NoteNumber":87,"Velocity":78,"Duration":107526,"SoundDuration":107526,"Delta":69843756},{"NoteNumber":56,"Velocity":66,"Duration":1229606,"SoundDuration":1229606,"Delta":69843756},{"NoteNumber":60,"Velocity":78,"Duration":429606,"SoundDuration":429606,"Delta":69843756},{"NoteNumber":92,"Velocity":66,"Duration":107527,"SoundDuration":107527,"Delta":69951283},{"NoteNumber":87,"Velocity":78,"Duration":107527,"SoundDuration":107527,"Delta":70058810},{"NoteNumber":84,"Velocity":66,"Duration":80645,"SoundDuration":80645,"Delta":70166337},{"NoteNumber":84,"Velocity":78,"Duration":100000,"SoundDuration":100000,"Delta":70273362},{"NoteNumber":63,"Velocity":83,"Duration":600000,"SoundDuration":600000,"Delta":70273362},{"NoteNumber":87,"Velocity":66,"Duration":99999,"SoundDuration":99999,"Delta":70373362},{"NoteNumber":84,"Velocity":78,"Duration":100000,"SoundDuration":100000,"Delta":70473362},{"NoteNumber":80,"Velocity":66,"Duration":99999,"SoundDuration":99999,"Delta":70573362},{"NoteNumber":84,"Velocity":78,"Duration":200000,"SoundDuration":200000,"Delta":70673362},{"NoteNumber":60,"Velocity":76,"Duration":200000,"SoundDuration":200000,"Delta":70873362},{"NoteNumber":89,"Velocity":78,"Duration":111929,"SoundDuration":111929,"Delta":71073362},{"NoteNumber":60,"Velocity":76,"Duration":450275,"SoundDuration":450275,"Delta":71073362},{"NoteNumber":53,"Velocity":63,"Duration":1251127,"SoundDuration":1251127,"Delta":71073362},{"NoteNumber":93,"Velocity":67,"Duration":112782,"SoundDuration":112782,"Delta":71185292},{"NoteNumber":89,"Velocity":78,"Duration":112781,"SoundDuration":112781,"Delta":71298074},{"NoteNumber":84,"Velocity":67,"Duration":84586,"SoundDuration":84586,"Delta":71410856},{"NoteNumber":84,"Velocity":78,"Duration":100852,"SoundDuration":100852,"Delta":71523638},{"NoteNumber":65,"Velocity":82,"Duration":600852,"SoundDuration":600852,"Delta":71523638},{"NoteNumber":89,"Velocity":67,"Duration":99999,"SoundDuration":99999,"Delta":71624490},{"NoteNumber":84,"Velocity":78,"Duration":100000,"SoundDuration":100000,"Delta":71724490},{"NoteNumber":81,"Velocity":67,"Duration":99999,"SoundDuration":99999,"Delta":71824490},{"NoteNumber":84,"Velocity":78,"Duration":200000,"SoundDuration":200000,"Delta":71924490},{"NoteNumber":63,"Velocity":72,"Duration":199999,"SoundDuration":199999,"Delta":72124490},{"NoteNumber":89,"Velocity":78,"Duration":107142,"SoundDuration":107142,"Delta":72324490},{"NoteNumber":58,"Velocity":64,"Duration":1229706,"SoundDuration":1229706,"Delta":72324490},{"NoteNumber":61,"Velocity":76,"Duration":428571,"SoundDuration":428571,"Delta":72324490},{"NoteNumber":94,"Velocity":67,"Duration":107142,"SoundDuration":107142,"Delta":72431633},{"NoteNumber":89,"Velocity":78,"Duration":107142,"SoundDuration":107142,"Delta":72538776},{"NoteNumber":85,"Velocity":67,"Duration":80357,"SoundDuration":80357,"Delta":72645919},{"NoteNumber":85,"Velocity":78,"Duration":100476,"SoundDuration":100476,"Delta":72753061},{"NoteNumber":65,"Velocity":82,"Duration":600476,"SoundDuration":600476,"Delta":72753061},{"NoteNumber":89,"Velocity":67,"Duration":99999,"SoundDuration":99999,"Delta":72853538},{"NoteNumber":85,"Velocity":78,"Duration":100000,"SoundDuration":100000,"Delta":72953538},{"NoteNumber":82,"Velocity":67,"Duration":99999,"SoundDuration":99999,"Delta":73053538},{"NoteNumber":85,"Velocity":78,"Duration":200000,"SoundDuration":200000,"Delta":73153538},{"NoteNumber":61,"Velocity":72,"Duration":200659,"SoundDuration":200659,"Delta":73353538},{"NoteNumber":89,"Velocity":78,"Duration":109889,"SoundDuration":109889,"Delta":73554197},{"NoteNumber":53,"Velocity":62,"Duration":1239559,"SoundDuration":1239559,"Delta":73554197},{"NoteNumber":60,"Velocity":75,"Duration":439560,"SoundDuration":439560,"Delta":73554197},{"NoteNumber":93,"Velocity":67,"Duration":109890,"SoundDuration":109890,"Delta":73664087},{"NoteNumber":89,"Velocity":78,"Duration":109889,"SoundDuration":109889,"Delta":73773977},{"NoteNumber":84,"Velocity":67,"Duration":82417,"SoundDuration":82417,"Delta":73883867},{"NoteNumber":84,"Velocity":78,"Duration":99999,"SoundDuration":99999,"Delta":73993757},{"NoteNumber":65,"Velocity":81,"Duration":599999,"SoundDuration":599999,"Delta":73993757},{"NoteNumber":89,"Velocity":67,"Duration":100000,"SoundDuration":100000,"Delta":74093757},{"NoteNumber":84,"Velocity":78,"Duration":99999,"SoundDuration":99999,"Delta":74193757},{"NoteNumber":81,"Velocity":67,"Duration":100000,"SoundDuration":100000,"Delta":74293757},{"NoteNumber":84,"Velocity":78,"Duration":199999,"SoundDuration":199999,"Delta":74393757},{"NoteNumber":63,"Velocity":72,"Duration":200000,"SoundDuration":200000,"Delta":74593757},{"NoteNumber":89,"Velocity":78,"Duration":106007,"SoundDuration":106007,"Delta":74793757},{"NoteNumber":58,"Velocity":59,"Duration":1224028,"SoundDuration":1224028,"Delta":74793757},{"NoteNumber":61,"Velocity":77,"Duration":424028,"SoundDuration":424028,"Delta":74793757},{"NoteNumber":94,"Velocity":67,"Duration":106006,"SoundDuration":106006,"Delta":74899764},{"NoteNumber":89,"Velocity":78,"Duration":106007,"SoundDuration":106007,"Delta":75005771},{"NoteNumber":85,"Velocity":67,"Duration":79505,"SoundDuration":79505,"Delta":75111778},{"NoteNumber":85,"Velocity":78,"Duration":99999,"SoundDuration":99999,"Delta":75217785},{"NoteNumber":65,"Velocity":81,"Duration":599999,"SoundDuration":599999,"Delta":75217785},{"NoteNumber":89,"Velocity":67,"Duration":100000,"SoundDuration":100000,"Delta":75317785},{"NoteNumber":85,"Velocity":78,"Duration":99999,"SoundDuration":99999,"Delta":75417785},{"NoteNumber":82,"Velocity":67,"Duration":100000,"SoundDuration":100000,"Delta":75517785},{"NoteNumber":85,"Velocity":78,"Duration":199999,"SoundDuration":199999,"Delta":75617785},{"NoteNumber":61,"Velocity":73,"Duration":200000,"SoundDuration":200000,"Delta":75817785},{"NoteNumber":92,"Velocity":78,"Duration":120000,"SoundDuration":120000,"Delta":76017785},{"NoteNumber":63,"Velocity":77,"Duration":480000,"SoundDuration":480000,"Delta":76017785},{"NoteNumber":56,"Velocity":59,"Duration":1280600,"SoundDuration":1280600,"Delta":76017785},{"NoteNumber":96,"Velocity":67,"Duration":119999,"SoundDuration":119999,"Delta":76137785},{"NoteNumber":92,"Velocity":78,"Duration":120000,"SoundDuration":120000,"Delta":76257785},{"NoteNumber":87,"Velocity":67,"Duration":90000,"SoundDuration":90000,"Delta":76377785},{"NoteNumber":87,"Velocity":78,"Duration":99999,"SoundDuration":99999,"Delta":76497785},{"NoteNumber":68,"Velocity":81,"Duration":599999,"SoundDuration":599999,"Delta":76497785},{"NoteNumber":92,"Velocity":67,"Duration":100000,"SoundDuration":100000,"Delta":76597785},{"NoteNumber":87,"Velocity":78,"Duration":99999,"SoundDuration":99999,"Delta":76697785},{"NoteNumber":84,"Velocity":67,"Duration":100000,"SoundDuration":100000,"Delta":76797785},{"NoteNumber":87,"Velocity":78,"Duration":199999,"SoundDuration":199999,"Delta":76897785},{"NoteNumber":66,"Velocity":73,"Duration":200600,"SoundDuration":200600,"Delta":77097785},{"NoteNumber":92,"Velocity":78,"Duration":106007,"SoundDuration":106007,"Delta":77298386},{"NoteNumber":61,"Velocity":67,"Duration":1224428,"SoundDuration":1224428,"Delta":77298386},{"NoteNumber":65,"Velocity":80,"Duration":424028,"SoundDuration":424028,"Delta":77298386},{"NoteNumber":97,"Velocity":67,"Duration":106006,"SoundDuration":106006,"Delta":77404393},{"NoteNumber":92,"Velocity":78,"Duration":106007,"SoundDuration":106007,"Delta":77510400},{"NoteNumber":89,"Velocity":67,"Duration":79505,"SoundDuration":79505,"Delta":77616407},{"NoteNumber":89,"Velocity":79,"Duration":100400,"SoundDuration":100400,"Delta":77722414},{"NoteNumber":68,"Velocity":83,"Duration":600400,"SoundDuration":600400,"Delta":77722414},{"NoteNumber":92,"Velocity":68,"Duration":99999,"SoundDuration":99999,"Delta":77822814},{"NoteNumber":89,"Velocity":80,"Duration":100000,"SoundDuration":100000,"Delta":77922814},{"NoteNumber":85,"Velocity":68,"Duration":99999,"SoundDuration":99999,"Delta":78022814},{"NoteNumber":89,"Velocity":81,"Duration":200000,"SoundDuration":200000,"Delta":78122814},{"NoteNumber":65,"Velocity":75,"Duration":199999,"SoundDuration":199999,"Delta":78322814},{"NoteNumber":92,"Velocity":82,"Duration":107527,"SoundDuration":107527,"Delta":78522814},{"NoteNumber":63,"Velocity":78,"Duration":430108,"SoundDuration":430108,"Delta":78522814},{"NoteNumber":56,"Velocity":66,"Duration":1258704,"SoundDuration":1258704,"Delta":78522814},{"NoteNumber":96,"Velocity":70,"Duration":107526,"SoundDuration":107526,"Delta":78630341},{"NoteNumber":92,"Velocity":83,"Duration":107527,"SoundDuration":107527,"Delta":78737868},{"NoteNumber":87,"Velocity":71,"Duration":80645,"SoundDuration":80645,"Delta":78845395},{"NoteNumber":87,"Velocity":84,"Duration":100501,"SoundDuration":100501,"Delta":78952922},{"NoteNumber":68,"Velocity":84,"Duration":614311,"SoundDuration":614311,"Delta":78952922},{"NoteNumber":92,"Velocity":72,"Duration":99999,"SoundDuration":99999,"Delta":79053424},{"NoteNumber":87,"Velocity":85,"Duration":100000,"SoundDuration":100000,"Delta":79153424},{"NoteNumber":84,"Velocity":72,"Duration":99999,"SoundDuration":99999,"Delta":79253424},{"NoteNumber":87,"Velocity":85,"Duration":213809,"SoundDuration":213809,"Delta":79353424},{"NoteNumber":66,"Velocity":76,"Duration":214285,"SoundDuration":214285,"Delta":79567233},{"NoteNumber":92,"Velocity":86,"Duration":97108,"SoundDuration":97108,"Delta":79781519},{"NoteNumber":61,"Velocity":85,"Duration":386002,"SoundDuration":386002,"Delta":79781519},{"NoteNumber":65,"Velocity":85,"Duration":386002,"SoundDuration":386002,"Delta":79781519},{"NoteNumber":97,"Velocity":73,"Duration":96153,"SoundDuration":96153,"Delta":79878627},{"NoteNumber":92,"Velocity":86,"Duration":96277,"SoundDuration":96277,"Delta":79974781},{"NoteNumber":89,"Velocity":73,"Duration":72347,"SoundDuration":72347,"Delta":80071058},{"NoteNumber":89,"Velocity":86,"Duration":96587,"SoundDuration":96587,"Delta":80167521},{"NoteNumber":92,"Velocity":73,"Duration":96774,"SoundDuration":96774,"Delta":80264109},{"NoteNumber":89,"Velocity":86,"Duration":96899,"SoundDuration":96899,"Delta":80360883},{"NoteNumber":85,"Velocity":73,"Duration":72815,"SoundDuration":72815,"Delta":80457782},{"NoteNumber":85,"Velocity":86,"Duration":97108,"SoundDuration":97108,"Delta":80554870},{"NoteNumber":89,"Velocity":73,"Duration":97402,"SoundDuration":97402,"Delta":80651978},{"NoteNumber":85,"Velocity":86,"Duration":97423,"SoundDuration":97423,"Delta":80749381},{"NoteNumber":80,"Velocity":73,"Duration":73289,"SoundDuration":73289,"Delta":80846805},{"NoteNumber":80,"Velocity":86,"Duration":97741,"SoundDuration":97741,"Delta":80944524},{"NoteNumber":85,"Velocity":73,"Duration":98039,"SoundDuration":98039,"Delta":81042265},{"NoteNumber":80,"Velocity":86,"Duration":98060,"SoundDuration":98060,"Delta":81140305},{"NoteNumber":77,"Velocity":73,"Duration":73770,"SoundDuration":73770,"Delta":81238365},{"NoteNumber":77,"Velocity":86,"Duration":98360,"SoundDuration":98360,"Delta":81336726},{"NoteNumber":80,"Velocity":73,"Duration":98597,"SoundDuration":98597,"Delta":81435087},{"NoteNumber":77,"Velocity":86,"Duration":98684,"SoundDuration":98684,"Delta":81533685},{"NoteNumber":73,"Velocity":73,"Duration":74170,"SoundDuration":74170,"Delta":81632369},{"NoteNumber":73,"Velocity":86,"Duration":99009,"SoundDuration":99009,"Delta":81731292},{"NoteNumber":77,"Velocity":73,"Duration":99250,"SoundDuration":99250,"Delta":81830302},{"NoteNumber":73,"Velocity":86,"Duration":99337,"SoundDuration":99337,"Delta":81929552},{"NoteNumber":68,"Velocity":73,"Duration":99579,"SoundDuration":99579,"Delta":82028890},{"NoteNumber":80,"Velocity":86,"Duration":97324,"SoundDuration":97324,"Delta":82128470},{"NoteNumber":68,"Velocity":84,"Duration":194098,"SoundDuration":194098,"Delta":82128470},{"NoteNumber":85,"Velocity":73,"Duration":96774,"SoundDuration":96774,"Delta":82225795},{"NoteNumber":80,"Velocity":86,"Duration":96774,"SoundDuration":96774,"Delta":82322569},{"NoteNumber":77,"Velocity":73,"Duration":72627,"SoundDuration":72627,"Delta":82419343},{"NoteNumber":77,"Velocity":86,"Duration":97087,"SoundDuration":97087,"Delta":82516243},{"NoteNumber":65,"Velocity":79,"Duration":194174,"SoundDuration":194174,"Delta":82516243},{"NoteNumber":80,"Velocity":73,"Duration":97087,"SoundDuration":97087,"Delta":82613330},{"NoteNumber":77,"Velocity":86,"Duration":97213,"SoundDuration":97213,"Delta":82710418},{"NoteNumber":73,"Velocity":73,"Duration":73051,"SoundDuration":73051,"Delta":82807631},{"NoteNumber":73,"Velocity":86,"Duration":97402,"SoundDuration":97402,"Delta":82905034},{"NoteNumber":61,"Velocity":79,"Duration":194931,"SoundDuration":194931,"Delta":82905034},{"NoteNumber":77,"Velocity":73,"Duration":97529,"SoundDuration":97529,"Delta":83002436},{"NoteNumber":73,"Velocity":86,"Duration":97719,"SoundDuration":97719,"Delta":83099966},{"NoteNumber":68,"Velocity":73,"Duration":73289,"SoundDuration":73289,"Delta":83197685},{"NoteNumber":68,"Velocity":86,"Duration":97847,"SoundDuration":97847,"Delta":83295405},{"NoteNumber":56,"Velocity":82,"Duration":195886,"SoundDuration":195886,"Delta":83295405},{"NoteNumber":73,"Velocity":73,"Duration":98039,"SoundDuration":98039,"Delta":83393253},{"NoteNumber":68,"Velocity":86,"Duration":98039,"SoundDuration":98039,"Delta":83491292},{"NoteNumber":65,"Velocity":73,"Duration":73577,"SoundDuration":73577,"Delta":83589331},{"NoteNumber":65,"Velocity":86,"Duration":98360,"SoundDuration":98360,"Delta":83687499},{"NoteNumber":53,"Velocity":79,"Duration":196721,"SoundDuration":196721,"Delta":83687499},{"NoteNumber":68,"Velocity":73,"Duration":98360,"SoundDuration":98360,"Delta":83785860},{"NoteNumber":65,"Velocity":86,"Duration":98490,"SoundDuration":98490,"Delta":83884220},{"NoteNumber":61,"Velocity":73,"Duration":74013,"SoundDuration":74013,"Delta":83982711},{"NoteNumber":61,"Velocity":86,"Duration":98684,"SoundDuration":98684,"Delta":84081395},{"NoteNumber":49,"Velocity":79,"Duration":197498,"SoundDuration":197498,"Delta":84081395},{"NoteNumber":65,"Velocity":73,"Duration":98814,"SoundDuration":98814,"Delta":84180079},{"NoteNumber":61,"Velocity":86,"Duration":99010,"SoundDuration":99010,"Delta":84278894},{"NoteNumber":56,"Velocity":73,"Duration":99009,"SoundDuration":99009,"Delta":84377904},{"NoteNumber":61,"Velocity":88,"Duration":99141,"SoundDuration":99141,"Delta":84476914},{"NoteNumber":52,"Velocity":68,"Duration":787055,"SoundDuration":787055,"Delta":84476914},{"NoteNumber":46,"Velocity":58,"Duration":787055,"SoundDuration":787055,"Delta":84476914},{"NoteNumber":49,"Velocity":58,"Duration":787055,"SoundDuration":787055,"Delta":84476914},{"NoteNumber":43,"Velocity":58,"Duration":787055,"SoundDuration":787055,"Delta":84476914},{"NoteNumber":64,"Velocity":68,"Duration":99337,"SoundDuration":99337,"Delta":84576055},{"NoteNumber":61,"Velocity":80,"Duration":99337,"SoundDuration":99337,"Delta":84675392},{"NoteNumber":58,"Velocity":68,"Duration":74503,"SoundDuration":74503,"Delta":84774730},{"NoteNumber":58,"Velocity":80,"Duration":99337,"SoundDuration":99337,"Delta":84874068},{"NoteNumber":61,"Velocity":68,"Duration":99337,"SoundDuration":99337,"Delta":84973406},{"NoteNumber":58,"Velocity":80,"Duration":99337,"SoundDuration":99337,"Delta":85072743},{"NoteNumber":55,"Velocity":68,"Duration":99337,"SoundDuration":99337,"Delta":85172081},{"NoteNumber":61,"Velocity":89,"Duration":99337,"SoundDuration":99337,"Delta":85271419},{"NoteNumber":52,"Velocity":68,"Duration":787251,"SoundDuration":787251,"Delta":85271419},{"NoteNumber":46,"Velocity":58,"Duration":787251,"SoundDuration":787251,"Delta":85271419},{"NoteNumber":43,"Velocity":58,"Duration":787251,"SoundDuration":787251,"Delta":85271419},{"NoteNumber":49,"Velocity":58,"Duration":787251,"SoundDuration":787251,"Delta":85271419},{"NoteNumber":64,"Velocity":68,"Duration":99337,"SoundDuration":99337,"Delta":85370757},{"NoteNumber":61,"Velocity":80,"Duration":99337,"SoundDuration":99337,"Delta":85470094},{"NoteNumber":58,"Velocity":68,"Duration":74503,"SoundDuration":74503,"Delta":85569432},{"NoteNumber":58,"Velocity":80,"Duration":99337,"SoundDuration":99337,"Delta":85668770},{"NoteNumber":61,"Velocity":68,"Duration":99337,"SoundDuration":99337,"Delta":85768108},{"NoteNumber":58,"Velocity":80,"Duration":99337,"SoundDuration":99337,"Delta":85867445},{"NoteNumber":55,"Velocity":68,"Duration":99337,"SoundDuration":99337,"Delta":85966783},{"NoteNumber":61,"Velocity":88,"Duration":99337,"SoundDuration":99337,"Delta":86066121},{"NoteNumber":52,"Velocity":68,"Duration":787251,"SoundDuration":787251,"Delta":86066121},{"NoteNumber":46,"Velocity":58,"Duration":787251,"SoundDuration":787251,"Delta":86066121},{"NoteNumber":49,"Velocity":58,"Duration":787251,"SoundDuration":787251,"Delta":86066121},{"NoteNumber":43,"Velocity":58,"Duration":787251,"SoundDuration":787251,"Delta":86066121},{"NoteNumber":64,"Velocity":68,"Duration":99337,"SoundDuration":99337,"Delta":86165459},{"NoteNumber":61,"Velocity":80,"Duration":99337,"SoundDuration":99337,"Delta":86264796},{"NoteNumber":58,"Velocity":68,"Duration":74503,"SoundDuration":74503,"Delta":86364134},{"NoteNumber":58,"Velocity":80,"Duration":99337,"SoundDuration":99337,"Delta":86463472},{"NoteNumber":61,"Velocity":68,"Duration":99337,"SoundDuration":99337,"Delta":86562810},{"NoteNumber":58,"Velocity":80,"Duration":99337,"SoundDuration":99337,"Delta":86662147},{"NoteNumber":55,"Velocity":68,"Duration":99337,"SoundDuration":99337,"Delta":86761485},{"NoteNumber":61,"Velocity":80,"Duration":99543,"SoundDuration":99543,"Delta":86860823},{"NoteNumber":51,"Velocity":61,"Duration":793296,"SoundDuration":793296,"Delta":86860823},{"NoteNumber":46,"Velocity":51,"Duration":793296,"SoundDuration":793296,"Delta":86860823},{"NoteNumber":49,"Velocity":51,"Duration":793296,"SoundDuration":793296,"Delta":86860823},{"NoteNumber":43,"Velocity":51,"Duration":793296,"SoundDuration":793296,"Delta":86860823},{"NoteNumber":63,"Velocity":68,"Duration":99667,"SoundDuration":99667,"Delta":86960367},{"NoteNumber":61,"Velocity":79,"Duration":99875,"SoundDuration":99875,"Delta":87060035},{"NoteNumber":58,"Velocity":66,"Duration":75000,"SoundDuration":75000,"Delta":87159910},{"NoteNumber":58,"Velocity":77,"Duration":100209,"SoundDuration":100209,"Delta":87259910},{"NoteNumber":61,"Velocity":65,"Duration":100334,"SoundDuration":100334,"Delta":87360119},{"NoteNumber":58,"Velocity":76,"Duration":100544,"SoundDuration":100544,"Delta":87460454},{"NoteNumber":55,"Velocity":63,"Duration":100671,"SoundDuration":100671,"Delta":87560999},{"NoteNumber":61,"Velocity":82,"Duration":100995,"SoundDuration":100995,"Delta":87661670},{"NoteNumber":51,"Velocity":50,"Duration":804674,"SoundDuration":804674,"Delta":87661670},{"NoteNumber":46,"Velocity":42,"Duration":804674,"SoundDuration":804674,"Delta":87661670},{"NoteNumber":43,"Velocity":42,"Duration":804674,"SoundDuration":804674,"Delta":87661670},{"NoteNumber":49,"Velocity":42,"Duration":804674,"SoundDuration":804674,"Delta":87661670},{"NoteNumber":63,"Velocity":64,"Duration":101010,"SoundDuration":101010,"Delta":87762666},{"NoteNumber":61,"Velocity":75,"Duration":101337,"SoundDuration":101337,"Delta":87863676},{"NoteNumber":58,"Velocity":61,"Duration":76013,"SoundDuration":76013,"Delta":87965013},{"NoteNumber":58,"Velocity":76,"Duration":101680,"SoundDuration":101680,"Delta":88066364},{"NoteNumber":61,"Velocity":63,"Duration":101795,"SoundDuration":101795,"Delta":88168045},{"NoteNumber":58,"Velocity":73,"Duration":102040,"SoundDuration":102040,"Delta":88269841},{"NoteNumber":55,"Velocity":59,"Duration":102142,"SoundDuration":102142,"Delta":88371881},{"NoteNumber":61,"Velocity":76,"Duration":102389,"SoundDuration":102389,"Delta":88474024},{"NoteNumber":51,"Velocity":45,"Duration":912040,"SoundDuration":912040,"Delta":88474024},{"NoteNumber":46,"Velocity":38,"Duration":912040,"SoundDuration":912040,"Delta":88474024},{"NoteNumber":49,"Velocity":38,"Duration":912040,"SoundDuration":912040,"Delta":88474024},{"NoteNumber":43,"Velocity":38,"Duration":912040,"SoundDuration":912040,"Delta":88474024},{"NoteNumber":63,"Velocity":57,"Duration":102491,"SoundDuration":102491,"Delta":88576413},{"NoteNumber":61,"Velocity":66,"Duration":102739,"SoundDuration":102739,"Delta":88678904},{"NoteNumber":58,"Velocity":55,"Duration":77187,"SoundDuration":77187,"Delta":88781644},{"NoteNumber":58,"Velocity":63,"Duration":125000,"SoundDuration":125000,"Delta":88886065},{"NoteNumber":61,"Velocity":52,"Duration":125000,"SoundDuration":125000,"Delta":89011065},{"NoteNumber":58,"Velocity":60,"Duration":125000,"SoundDuration":125000,"Delta":89136065},{"NoteNumber":55,"Velocity":49,"Duration":125000,"SoundDuration":125000,"Delta":89261065},{"NoteNumber":63,"Velocity":50,"Duration":550562,"SoundDuration":550562,"Delta":89386065},{"NoteNumber":44,"Velocity":40,"Duration":980359,"SoundDuration":980359,"Delta":89386065},{"NoteNumber":60,"Velocity":40,"Duration":183061,"SoundDuration":183061,"Delta":89581306},{"NoteNumber":56,"Velocity":40,"Duration":172260,"SoundDuration":172260,"Delta":89764367},{"NoteNumber":68,"Velocity":50,"Duration":429796,"SoundDuration":429796,"Delta":89936627},{"NoteNumber":63,"Velocity":40,"Duration":142857,"SoundDuration":142857,"Delta":90080710},{"NoteNumber":60,"Velocity":40,"Duration":142856,"SoundDuration":142856,"Delta":90223567},{"NoteNumber":67,"Velocity":50,"Duration":428571,"SoundDuration":428571,"Delta":90366424},{"NoteNumber":48,"Velocity":40,"Duration":428571,"SoundDuration":428571,"Delta":90366424},{"NoteNumber":63,"Velocity":40,"Duration":142856,"SoundDuration":142856,"Delta":90509281},{"NoteNumber":60,"Velocity":40,"Duration":142857,"SoundDuration":142857,"Delta":90652138},{"NoteNumber":65,"Velocity":50,"Duration":472783,"SoundDuration":472783,"Delta":90794995},{"NoteNumber":49,"Velocity":40,"Duration":472783,"SoundDuration":472783,"Delta":90794995},{"NoteNumber":61,"Velocity":40,"Duration":158102,"SoundDuration":158102,"Delta":90952335},{"NoteNumber":56,"Velocity":40,"Duration":157340,"SoundDuration":157340,"Delta":91110438},{"NoteNumber":73,"Velocity":50,"Duration":429302,"SoundDuration":429302,"Delta":91267778},{"NoteNumber":46,"Velocity":40,"Duration":429302,"SoundDuration":429302,"Delta":91267778},{"NoteNumber":65,"Velocity":40,"Duration":142857,"SoundDuration":142857,"Delta":91410635},{"NoteNumber":61,"Velocity":40,"Duration":143588,"SoundDuration":143588,"Delta":91553492},{"NoteNumber":70,"Velocity":50,"Duration":472441,"SoundDuration":472441,"Delta":91697080},{"NoteNumber":49,"Velocity":40,"Duration":472441,"SoundDuration":472441,"Delta":91697080},{"NoteNumber":65,"Velocity":40,"Duration":157480,"SoundDuration":157480,"Delta":91854561},{"NoteNumber":61,"Velocity":40,"Duration":157480,"SoundDuration":157480,"Delta":92012041},{"NoteNumber":70,"Velocity":50,"Duration":430813,"SoundDuration":430813,"Delta":92169521},{"NoteNumber":51,"Velocity":40,"Duration":1290550,"SoundDuration":1290550,"Delta":92169521},{"NoteNumber":63,"Velocity":40,"Duration":143369,"SoundDuration":143369,"Delta":92313596},{"NoteNumber":61,"Velocity":40,"Duration":143369,"SoundDuration":143369,"Delta":92456966},{"NoteNumber":68,"Velocity":50,"Duration":430107,"SoundDuration":430107,"Delta":92600335},{"NoteNumber":63,"Velocity":40,"Duration":143369,"SoundDuration":143369,"Delta":92743704},{"NoteNumber":60,"Velocity":40,"Duration":143369,"SoundDuration":143369,"Delta":92887074},{"NoteNumber":68,"Velocity":50,"Duration":429628,"SoundDuration":429628,"Delta":93030443},{"NoteNumber":63,"Velocity":40,"Duration":143369,"SoundDuration":143369,"Delta":93173812},{"NoteNumber":60,"Velocity":40,"Duration":142889,"SoundDuration":142889,"Delta":93317182},{"NoteNumber":68,"Velocity":50,"Duration":414522,"SoundDuration":414522,"Delta":93460071},{"NoteNumber":39,"Velocity":40,"Duration":1380818,"SoundDuration":1380818,"Delta":93460071},{"NoteNumber":63,"Velocity":40,"Duration":138175,"SoundDuration":138175,"Delta":93595144},{"NoteNumber":60,"Velocity":40,"Duration":141274,"SoundDuration":141274,"Delta":93733319},{"NoteNumber":67,"Velocity":50,"Duration":444557,"SoundDuration":444557,"Delta":93874594},{"NoteNumber":63,"Velocity":40,"Duration":148073,"SoundDuration":148073,"Delta":94019267},{"NoteNumber":58,"Velocity":40,"Duration":151811,"SoundDuration":151811,"Delta":94167340},{"NoteNumber":67,"Velocity":50,"Duration":521738,"SoundDuration":521738,"Delta":94319151},{"NoteNumber":63,"Velocity":40,"Duration":173912,"SoundDuration":173912,"Delta":94493064},{"NoteNumber":58,"Velocity":40,"Duration":173912,"SoundDuration":173912,"Delta":94666977},{"NoteNumber":63,"Velocity":50,"Duration":428596,"SoundDuration":428596,"Delta":94840890},{"NoteNumber":44,"Velocity":40,"Duration":857167,"SoundDuration":857167,"Delta":94840890},{"NoteNumber":60,"Velocity":40,"Duration":142857,"SoundDuration":142857,"Delta":94983773},{"NoteNumber":56,"Velocity":40,"Duration":142856,"SoundDuration":142856,"Delta":95126630},{"NoteNumber":68,"Velocity":50,"Duration":428571,"SoundDuration":428571,"Delta":95269487},{"NoteNumber":63,"Velocity":40,"Duration":142856,"SoundDuration":142856,"Delta":95412344},{"NoteNumber":60,"Velocity":40,"Duration":142857,"SoundDuration":142857,"Delta":95555201},{"NoteNumber":67,"Velocity":50,"Duration":428570,"SoundDuration":428570,"Delta":95698058},{"NoteNumber":48,"Velocity":40,"Duration":428570,"SoundDuration":428570,"Delta":95698058},{"NoteNumber":63,"Velocity":40,"Duration":142857,"SoundDuration":142857,"Delta":95840915},{"NoteNumber":60,"Velocity":40,"Duration":142856,"SoundDuration":142856,"Delta":95983772},{"NoteNumber":65,"Velocity":50,"Duration":500866,"SoundDuration":500866,"Delta":96126629},{"NoteNumber":49,"Velocity":40,"Duration":500866,"SoundDuration":500866,"Delta":96126629},{"NoteNumber":61,"Velocity":40,"Duration":167364,"SoundDuration":167364,"Delta":96292767},{"NoteNumber":56,"Velocity":40,"Duration":167363,"SoundDuration":167363,"Delta":96460131},{"NoteNumber":77,"Velocity":50,"Duration":428571,"SoundDuration":428571,"Delta":96627495},{"NoteNumber":46,"Velocity":40,"Duration":428571,"SoundDuration":428571,"Delta":96627495},{"NoteNumber":68,"Velocity":40,"Duration":142856,"SoundDuration":142856,"Delta":96770352},{"NoteNumber":65,"Velocity":40,"Duration":142857,"SoundDuration":142857,"Delta":96913209},{"NoteNumber":73,"Velocity":50,"Duration":428570,"SoundDuration":428570,"Delta":97056066},{"NoteNumber":58,"Velocity":40,"Duration":861414,"SoundDuration":861414,"Delta":97056066},{"NoteNumber":49,"Velocity":40,"Duration":428570,"SoundDuration":428570,"Delta":97056066},{"NoteNumber":65,"Velocity":40,"Duration":142857,"SoundDuration":142857,"Delta":97198923},{"NoteNumber":61,"Velocity":40,"Duration":142856,"SoundDuration":142856,"Delta":97341780},{"NoteNumber":73,"Velocity":50,"Duration":432843,"SoundDuration":432843,"Delta":97484637},{"NoteNumber":51,"Velocity":40,"Duration":1337230,"SoundDuration":1337230,"Delta":97484637},{"NoteNumber":68,"Velocity":40,"Duration":144275,"SoundDuration":144275,"Delta":97627776},{"NoteNumber":63,"Velocity":40,"Duration":145429,"SoundDuration":145429,"Delta":97772051},{"NoteNumber":72,"Velocity":50,"Duration":443398,"SoundDuration":443398,"Delta":97917481},{"NoteNumber":56,"Velocity":40,"Duration":443398,"SoundDuration":443398,"Delta":97917481},{"NoteNumber":68,"Velocity":40,"Duration":147793,"SoundDuration":147793,"Delta":98064082},{"NoteNumber":63,"Velocity":40,"Duration":149004,"SoundDuration":149004,"Delta":98211875},{"NoteNumber":72,"Velocity":50,"Duration":460988,"SoundDuration":460988,"Delta":98360879},{"NoteNumber":56,"Velocity":40,"Duration":900301,"SoundDuration":900301,"Delta":98360879},{"NoteNumber":68,"Velocity":40,"Duration":153846,"SoundDuration":153846,"Delta":98514725},{"NoteNumber":63,"Velocity":40,"Duration":153296,"SoundDuration":153296,"Delta":98668571},{"NoteNumber":72,"Velocity":50,"Duration":439313,"SoundDuration":439313,"Delta":98821868},{"NoteNumber":51,"Velocity":40,"Duration":1477962,"SoundDuration":1477962,"Delta":98821868},{"NoteNumber":63,"Velocity":40,"Duration":146416,"SoundDuration":146416,"Delta":98965756},{"NoteNumber":61,"Velocity":40,"Duration":149007,"SoundDuration":149007,"Delta":99112173},{"NoteNumber":70,"Velocity":50,"Duration":463557,"SoundDuration":463557,"Delta":99261181},{"NoteNumber":55,"Velocity":40,"Duration":463557,"SoundDuration":463557,"Delta":99261181},{"NoteNumber":63,"Velocity":40,"Duration":154474,"SoundDuration":154474,"Delta":99412873},{"NoteNumber":61,"Velocity":40,"Duration":157391,"SoundDuration":157391,"Delta":99567347},{"NoteNumber":70,"Velocity":50,"Duration":575091,"SoundDuration":575091,"Delta":99724739},{"NoteNumber":55,"Velocity":40,"Duration":575091,"SoundDuration":575091,"Delta":99724739},{"NoteNumber":63,"Velocity":40,"Duration":192478,"SoundDuration":192478,"Delta":99885129},{"NoteNumber":61,"Velocity":40,"Duration":222222,"SoundDuration":222222,"Delta":100077608},{"NoteNumber":72,"Velocity":48,"Duration":99999,"SoundDuration":99999,"Delta":100299830},{"NoteNumber":44,"Velocity":48,"Duration":299999,"SoundDuration":299999,"Delta":100299830},{"NoteNumber":75,"Velocity":40,"Duration":100000,"SoundDuration":100000,"Delta":100399830},{"NoteNumber":72,"Velocity":48,"Duration":99999,"SoundDuration":99999,"Delta":100499830},{"NoteNumber":68,"Velocity":40,"Duration":75000,"SoundDuration":75000,"Delta":100599830},{"NoteNumber":68,"Velocity":48,"Duration":99999,"SoundDuration":99999,"Delta":100699830},{"NoteNumber":60,"Velocity":39,"Duration":828570,"SoundDuration":828570,"Delta":100699830},{"NoteNumber":56,"Velocity":33,"Duration":828570,"SoundDuration":828570,"Delta":100699830},{"NoteNumber":54,"Velocity":33,"Duration":828570,"SoundDuration":828570,"Delta":100699830},{"NoteNumber":72,"Velocity":40,"Duration":99999,"SoundDuration":99999,"Delta":100799830},{"NoteNumber":68,"Velocity":48,"Duration":100000,"SoundDuration":100000,"Delta":100899830},{"NoteNumber":63,"Velocity":40,"Duration":99999,"SoundDuration":99999,"Delta":100999830},{"NoteNumber":68,"Velocity":48,"Duration":214285,"SoundDuration":214285,"Delta":101099830},{"NoteNumber":73,"Velocity":48,"Duration":99999,"SoundDuration":99999,"Delta":101528401},{"NoteNumber":49,"Velocity":48,"Duration":299999,"SoundDuration":299999,"Delta":101528401},{"NoteNumber":77,"Velocity":40,"Duration":100000,"SoundDuration":100000,"Delta":101628401},{"NoteNumber":73,"Velocity":48,"Duration":99999,"SoundDuration":99999,"Delta":101728401},{"NoteNumber":68,"Velocity":40,"Duration":75000,"SoundDuration":75000,"Delta":101828401},{"NoteNumber":68,"Velocity":48,"Duration":99999,"SoundDuration":99999,"Delta":101928401},{"NoteNumber":56,"Velocity":29,"Duration":828094,"SoundDuration":828094,"Delta":101928401},{"NoteNumber":61,"Velocity":35,"Duration":828094,"SoundDuration":828094,"Delta":101928401},{"NoteNumber":53,"Velocity":29,"Duration":828094,"SoundDuration":828094,"Delta":101928401},{"NoteNumber":73,"Velocity":40,"Duration":99999,"SoundDuration":99999,"Delta":102028401},{"NoteNumber":68,"Velocity":48,"Duration":100000,"SoundDuration":100000,"Delta":102128401},{"NoteNumber":65,"Velocity":40,"Duration":99999,"SoundDuration":99999,"Delta":102228401},{"NoteNumber":68,"Velocity":48,"Duration":214285,"SoundDuration":214285,"Delta":102328401},{"NoteNumber":75,"Velocity":48,"Duration":100000,"SoundDuration":100000,"Delta":102756496},{"NoteNumber":39,"Velocity":48,"Duration":300000,"SoundDuration":300000,"Delta":102756496},{"NoteNumber":79,"Velocity":40,"Duration":99999,"SoundDuration":99999,"Delta":102856496},{"NoteNumber":75,"Velocity":48,"Duration":100000,"SoundDuration":100000,"Delta":102956496},{"NoteNumber":70,"Velocity":40,"Duration":74999,"SoundDuration":74999,"Delta":103056496},{"NoteNumber":70,"Velocity":48,"Duration":99999,"SoundDuration":99999,"Delta":103156496},{"NoteNumber":61,"Velocity":42,"Duration":829606,"SoundDuration":829606,"Delta":103156496},{"NoteNumber":58,"Velocity":35,"Duration":829606,"SoundDuration":829606,"Delta":103156496},{"NoteNumber":51,"Velocity":35,"Duration":829606,"SoundDuration":829606,"Delta":103156496},{"NoteNumber":75,"Velocity":40,"Duration":100000,"SoundDuration":100000,"Delta":103256496},{"NoteNumber":70,"Velocity":48,"Duration":99999,"SoundDuration":99999,"Delta":103356496},{"NoteNumber":67,"Velocity":40,"Duration":100000,"SoundDuration":100000,"Delta":103456496},{"NoteNumber":70,"Velocity":48,"Duration":214552,"SoundDuration":214552,"Delta":103556496},{"NoteNumber":75,"Velocity":48,"Duration":100334,"SoundDuration":100334,"Delta":103986102},{"NoteNumber":44,"Velocity":48,"Duration":301003,"SoundDuration":301003,"Delta":103986102},{"NoteNumber":80,"Velocity":40,"Duration":100334,"SoundDuration":100334,"Delta":104086436},{"NoteNumber":75,"Velocity":48,"Duration":100334,"SoundDuration":100334,"Delta":104186771},{"NoteNumber":72,"Velocity":40,"Duration":75250,"SoundDuration":75250,"Delta":104287105},{"NoteNumber":72,"Velocity":48,"Duration":100334,"SoundDuration":100334,"Delta":104387440},{"NoteNumber":60,"Velocity":44,"Duration":862876,"SoundDuration":862876,"Delta":104387440},{"NoteNumber":51,"Velocity":37,"Duration":862876,"SoundDuration":862876,"Delta":104387440},{"NoteNumber":56,"Velocity":37,"Duration":862876,"SoundDuration":862876,"Delta":104387440},{"NoteNumber":75,"Velocity":40,"Duration":100334,"SoundDuration":100334,"Delta":104487774},{"NoteNumber":72,"Velocity":48,"Duration":100334,"SoundDuration":100334,"Delta":104588109},{"NoteNumber":68,"Velocity":40,"Duration":100334,"SoundDuration":100334,"Delta":104688443},{"NoteNumber":72,"Velocity":48,"Duration":230768,"SoundDuration":230768,"Delta":104788778},{"NoteNumber":84,"Velocity":64,"Duration":101337,"SoundDuration":101337,"Delta":105250316},{"NoteNumber":44,"Velocity":60,"Duration":302006,"SoundDuration":302006,"Delta":105250316},{"NoteNumber":87,"Velocity":54,"Duration":100334,"SoundDuration":100334,"Delta":105351654},{"NoteNumber":84,"Velocity":64,"Duration":100334,"SoundDuration":100334,"Delta":105451988},{"NoteNumber":80,"Velocity":54,"Duration":75250,"SoundDuration":75250,"Delta":105552323},{"NoteNumber":80,"Velocity":64,"Duration":100334,"SoundDuration":100334,"Delta":105652657},{"NoteNumber":54,"Velocity":41,"Duration":829909,"SoundDuration":829909,"Delta":105652657},{"NoteNumber":56,"Velocity":41,"Duration":829909,"SoundDuration":829909,"Delta":105652657},{"NoteNumber":60,"Velocity":49,"Duration":829909,"SoundDuration":829909,"Delta":105652657},{"NoteNumber":84,"Velocity":54,"Duration":100334,"SoundDuration":100334,"Delta":105752992},{"NoteNumber":80,"Velocity":64,"Duration":100334,"SoundDuration":100334,"Delta":105853326},{"NoteNumber":75,"Velocity":54,"Duration":100334,"SoundDuration":100334,"Delta":105953661},{"NoteNumber":80,"Velocity":64,"Duration":214285,"SoundDuration":214285,"Delta":106053995},{"NoteNumber":85,"Velocity":72,"Duration":100671,"SoundDuration":100671,"Delta":106482566},{"NoteNumber":49,"Velocity":72,"Duration":302013,"SoundDuration":302013,"Delta":106482566},{"NoteNumber":89,"Velocity":61,"Duration":100671,"SoundDuration":100671,"Delta":106583237},{"NoteNumber":85,"Velocity":72,"Duration":100671,"SoundDuration":100671,"Delta":106683909},{"NoteNumber":80,"Velocity":61,"Duration":75503,"SoundDuration":75503,"Delta":106784580},{"NoteNumber":80,"Velocity":72,"Duration":100671,"SoundDuration":100671,"Delta":106885251},{"NoteNumber":61,"Velocity":62,"Duration":831255,"SoundDuration":831255,"Delta":106885251},{"NoteNumber":53,"Velocity":52,"Duration":831255,"SoundDuration":831255,"Delta":106885251},{"NoteNumber":56,"Velocity":52,"Duration":831255,"SoundDuration":831255,"Delta":106885251},{"NoteNumber":85,"Velocity":61,"Duration":100671,"SoundDuration":100671,"Delta":106985922},{"NoteNumber":80,"Velocity":72,"Duration":100671,"SoundDuration":100671,"Delta":107086594},{"NoteNumber":77,"Velocity":61,"Duration":100671,"SoundDuration":100671,"Delta":107187265},{"NoteNumber":80,"Velocity":72,"Duration":214285,"SoundDuration":214285,"Delta":107287936},{"NoteNumber":87,"Velocity":84,"Duration":100334,"SoundDuration":100334,"Delta":107716507},{"NoteNumber":39,"Velocity":84,"Duration":301003,"SoundDuration":301003,"Delta":107716507},{"NoteNumber":91,"Velocity":71,"Duration":100334,"SoundDuration":100334,"Delta":107816842},{"NoteNumber":87,"Velocity":84,"Duration":100334,"SoundDuration":100334,"Delta":107917176},{"NoteNumber":82,"Velocity":71,"Duration":75250,"SoundDuration":75250,"Delta":108017511},{"NoteNumber":82,"Velocity":84,"Duration":100334,"SoundDuration":100334,"Delta":108117845},{"NoteNumber":61,"Velocity":73,"Duration":829909,"SoundDuration":829909,"Delta":108117845},{"NoteNumber":51,"Velocity":62,"Duration":829909,"SoundDuration":829909,"Delta":108117845},{"NoteNumber":58,"Velocity":62,"Duration":829909,"SoundDuration":829909,"Delta":108117845},{"NoteNumber":87,"Velocity":71,"Duration":100334,"SoundDuration":100334,"Delta":108218180},{"NoteNumber":82,"Velocity":84,"Duration":100334,"SoundDuration":100334,"Delta":108318514},{"NoteNumber":79,"Velocity":71,"Duration":100334,"SoundDuration":100334,"Delta":108418849},{"NoteNumber":82,"Velocity":84,"Duration":214285,"SoundDuration":214285,"Delta":108519183},{"NoteNumber":87,"Velocity":91,"Duration":99999,"SoundDuration":99999,"Delta":108947754},{"NoteNumber":44,"Velocity":88,"Duration":299999,"SoundDuration":299999,"Delta":108947754},{"NoteNumber":92,"Velocity":76,"Duration":100000,"SoundDuration":100000,"Delta":109047754},{"NoteNumber":87,"Velocity":91,"Duration":99999,"SoundDuration":99999,"Delta":109147754},{"NoteNumber":84,"Velocity":76,"Duration":75000,"SoundDuration":75000,"Delta":109247754},{"NoteNumber":84,"Velocity":91,"Duration":99999,"SoundDuration":99999,"Delta":109347754},{"NoteNumber":60,"Velocity":76,"Duration":864375,"SoundDuration":864375,"Delta":109347754},{"NoteNumber":51,"Velocity":64,"Duration":864375,"SoundDuration":864375,"Delta":109347754},{"NoteNumber":56,"Velocity":64,"Duration":864375,"SoundDuration":864375,"Delta":109347754},{"NoteNumber":87,"Velocity":76,"Duration":99999,"SoundDuration":99999,"Delta":109447754},{"NoteNumber":84,"Velocity":91,"Duration":100000,"SoundDuration":100000,"Delta":109547754},{"NoteNumber":80,"Velocity":76,"Duration":101055,"SoundDuration":101055,"Delta":109647754},{"NoteNumber":84,"Velocity":91,"Duration":231660,"SoundDuration":231660,"Delta":109748810},{"NoteNumber":72,"Velocity":48,"Duration":107432,"SoundDuration":107432,"Delta":110212130},{"NoteNumber":51,"Velocity":60,"Duration":428146,"SoundDuration":428146,"Delta":110212130},{"NoteNumber":44,"Velocity":40,"Duration":1228146,"SoundDuration":1228146,"Delta":110212130},{"NoteNumber":75,"Velocity":40,"Duration":107142,"SoundDuration":107142,"Delta":110319562},{"NoteNumber":72,"Velocity":48,"Duration":107142,"SoundDuration":107142,"Delta":110426705},{"NoteNumber":68,"Velocity":40,"Duration":80357,"SoundDuration":80357,"Delta":110533847},{"NoteNumber":68,"Velocity":48,"Duration":99999,"SoundDuration":99999,"Delta":110640276},{"NoteNumber":56,"Velocity":72,"Duration":599999,"SoundDuration":599999,"Delta":110640276},{"NoteNumber":72,"Velocity":40,"Duration":99999,"SoundDuration":99999,"Delta":110740276},{"NoteNumber":68,"Velocity":48,"Duration":100000,"SoundDuration":100000,"Delta":110840276},{"NoteNumber":63,"Velocity":40,"Duration":99999,"SoundDuration":99999,"Delta":110940276},{"NoteNumber":68,"Velocity":48,"Duration":200000,"SoundDuration":200000,"Delta":111040276},{"NoteNumber":55,"Velocity":60,"Duration":199999,"SoundDuration":199999,"Delta":111240276},{"NoteNumber":73,"Velocity":48,"Duration":106761,"SoundDuration":106761,"Delta":111440276},{"NoteNumber":49,"Velocity":40,"Duration":1227046,"SoundDuration":1227046,"Delta":111440276},{"NoteNumber":53,"Velocity":60,"Duration":427046,"SoundDuration":427046,"Delta":111440276},{"NoteNumber":77,"Velocity":40,"Duration":106761,"SoundDuration":106761,"Delta":111547037},{"NoteNumber":73,"Velocity":48,"Duration":106761,"SoundDuration":106761,"Delta":111653799},{"NoteNumber":68,"Velocity":40,"Duration":80071,"SoundDuration":80071,"Delta":111760560},{"NoteNumber":68,"Velocity":48,"Duration":99999,"SoundDuration":99999,"Delta":111867322},{"NoteNumber":61,"Velocity":72,"Duration":599999,"SoundDuration":599999,"Delta":111867322},{"NoteNumber":73,"Velocity":40,"Duration":100000,"SoundDuration":100000,"Delta":111967322},{"NoteNumber":68,"Velocity":48,"Duration":99999,"SoundDuration":99999,"Delta":112067322},{"NoteNumber":65,"Velocity":40,"Duration":100000,"SoundDuration":100000,"Delta":112167322},{"NoteNumber":68,"Velocity":48,"Duration":199999,"SoundDuration":199999,"Delta":112267322},{"NoteNumber":60,"Velocity":60,"Duration":200000,"SoundDuration":200000,"Delta":112467322},{"NoteNumber":75,"Velocity":48,"Duration":107025,"SoundDuration":107025,"Delta":112667322},{"NoteNumber":51,"Velocity":40,"Duration":1229104,"SoundDuration":1229104,"Delta":112667322},{"NoteNumber":58,"Velocity":60,"Duration":429104,"SoundDuration":429104,"Delta":112667322},{"NoteNumber":79,"Velocity":40,"Duration":107527,"SoundDuration":107527,"Delta":112774347},{"NoteNumber":75,"Velocity":48,"Duration":107526,"SoundDuration":107526,"Delta":112881874},{"NoteNumber":70,"Velocity":40,"Duration":80645,"SoundDuration":80645,"Delta":112989401},{"NoteNumber":70,"Velocity":48,"Duration":100000,"SoundDuration":100000,"Delta":113096426},{"NoteNumber":63,"Velocity":72,"Duration":600000,"SoundDuration":600000,"Delta":113096426},{"NoteNumber":75,"Velocity":40,"Duration":99999,"SoundDuration":99999,"Delta":113196426},{"NoteNumber":70,"Velocity":48,"Duration":100000,"SoundDuration":100000,"Delta":113296426},{"NoteNumber":67,"Velocity":40,"Duration":99999,"SoundDuration":99999,"Delta":113396426},{"NoteNumber":70,"Velocity":48,"Duration":200000,"SoundDuration":200000,"Delta":113496426},{"NoteNumber":61,"Velocity":60,"Duration":199999,"SoundDuration":199999,"Delta":113696426},{"NoteNumber":75,"Velocity":48,"Duration":107142,"SoundDuration":107142,"Delta":113896426},{"NoteNumber":56,"Velocity":40,"Duration":1229047,"SoundDuration":1229047,"Delta":113896426},{"NoteNumber":60,"Velocity":60,"Duration":428571,"SoundDuration":428571,"Delta":113896426},{"NoteNumber":80,"Velocity":40,"Duration":107142,"SoundDuration":107142,"Delta":114003569},{"NoteNumber":75,"Velocity":48,"Duration":107142,"SoundDuration":107142,"Delta":114110712},{"NoteNumber":72,"Velocity":40,"Duration":80357,"SoundDuration":80357,"Delta":114217854},{"NoteNumber":72,"Velocity":48,"Duration":100476,"SoundDuration":100476,"Delta":114324997},{"NoteNumber":63,"Velocity":72,"Duration":800476,"SoundDuration":800476,"Delta":114324997},{"NoteNumber":75,"Velocity":40,"Duration":99999,"SoundDuration":99999,"Delta":114425473},{"NoteNumber":72,"Velocity":48,"Duration":100000,"SoundDuration":100000,"Delta":114525473},{"NoteNumber":68,"Velocity":40,"Duration":99999,"SoundDuration":99999,"Delta":114625473},{"NoteNumber":72,"Velocity":48,"Duration":200000,"SoundDuration":200000,"Delta":114725473},{"NoteNumber":84,"Velocity":68,"Duration":120967,"SoundDuration":120967,"Delta":115125473},{"NoteNumber":44,"Velocity":57,"Duration":1279793,"SoundDuration":1279793,"Delta":115125473},{"NoteNumber":51,"Velocity":68,"Duration":482451,"SoundDuration":482451,"Delta":115125473},{"NoteNumber":87,"Velocity":57,"Duration":120967,"SoundDuration":120967,"Delta":115246441},{"NoteNumber":84,"Velocity":68,"Duration":120967,"SoundDuration":120967,"Delta":115367409},{"NoteNumber":80,"Velocity":57,"Duration":90725,"SoundDuration":90725,"Delta":115488377},{"NoteNumber":80,"Velocity":68,"Duration":99667,"SoundDuration":99667,"Delta":115607924},{"NoteNumber":56,"Velocity":78,"Duration":598006,"SoundDuration":598006,"Delta":115607924},{"NoteNumber":84,"Velocity":57,"Duration":99667,"SoundDuration":99667,"Delta":115707592},{"NoteNumber":80,"Velocity":68,"Duration":99667,"SoundDuration":99667,"Delta":115807260},{"NoteNumber":75,"Velocity":57,"Duration":99667,"SoundDuration":99667,"Delta":115906928},{"NoteNumber":80,"Velocity":68,"Duration":199335,"SoundDuration":199335,"Delta":116006595},{"NoteNumber":55,"Velocity":68,"Duration":199335,"SoundDuration":199335,"Delta":116205931},{"NoteNumber":85,"Velocity":68,"Duration":108462,"SoundDuration":108462,"Delta":116405266},{"NoteNumber":49,"Velocity":57,"Duration":1235735,"SoundDuration":1235735,"Delta":116405266},{"NoteNumber":53,"Velocity":68,"Duration":435735,"SoundDuration":435735,"Delta":116405266},{"NoteNumber":89,"Velocity":57,"Duration":109090,"SoundDuration":109090,"Delta":116513729},{"NoteNumber":85,"Velocity":68,"Duration":109091,"SoundDuration":109091,"Delta":116622820},{"NoteNumber":80,"Velocity":57,"Duration":81818,"SoundDuration":81818,"Delta":116731911},{"NoteNumber":80,"Velocity":68,"Duration":99999,"SoundDuration":99999,"Delta":116841002},{"NoteNumber":61,"Velocity":79,"Duration":599999,"SoundDuration":599999,"Delta":116841002},{"NoteNumber":85,"Velocity":57,"Duration":100000,"SoundDuration":100000,"Delta":116941002},{"NoteNumber":80,"Velocity":68,"Duration":99999,"SoundDuration":99999,"Delta":117041002},{"NoteNumber":77,"Velocity":57,"Duration":100000,"SoundDuration":100000,"Delta":117141002},{"NoteNumber":80,"Velocity":68,"Duration":199999,"SoundDuration":199999,"Delta":117241002},{"NoteNumber":60,"Velocity":68,"Duration":200000,"SoundDuration":200000,"Delta":117441002},{"NoteNumber":87,"Velocity":68,"Duration":104912,"SoundDuration":104912,"Delta":117641002},{"NoteNumber":51,"Velocity":59,"Duration":1220702,"SoundDuration":1220702,"Delta":117641002},{"NoteNumber":58,"Velocity":71,"Duration":420702,"SoundDuration":420702,"Delta":117641002},{"NoteNumber":91,"Velocity":57,"Duration":105263,"SoundDuration":105263,"Delta":117745915},{"NoteNumber":87,"Velocity":68,"Duration":105263,"SoundDuration":105263,"Delta":117851178},{"NoteNumber":82,"Velocity":57,"Duration":78947,"SoundDuration":78947,"Delta":117956441},{"NoteNumber":82,"Velocity":68,"Duration":99999,"SoundDuration":99999,"Delta":118061704},{"NoteNumber":63,"Velocity":81,"Duration":599999,"SoundDuration":599999,"Delta":118061704},{"NoteNumber":87,"Velocity":57,"Duration":100000,"SoundDuration":100000,"Delta":118161704},{"NoteNumber":82,"Velocity":68,"Duration":99999,"SoundDuration":99999,"Delta":118261704},{"NoteNumber":79,"Velocity":57,"Duration":100000,"SoundDuration":100000,"Delta":118361704},{"NoteNumber":82,"Velocity":68,"Duration":199999,"SoundDuration":199999,"Delta":118461704},{"NoteNumber":61,"Velocity":68,"Duration":200000,"SoundDuration":200000,"Delta":118661704},{"NoteNumber":87,"Velocity":80,"Duration":102886,"SoundDuration":102886,"Delta":118861704},{"NoteNumber":60,"Velocity":76,"Duration":411958,"SoundDuration":411958,"Delta":118861704},{"NoteNumber":56,"Velocity":64,"Duration":1211958,"SoundDuration":1211958,"Delta":118861704},{"NoteNumber":92,"Velocity":68,"Duration":103092,"SoundDuration":103092,"Delta":118964591},{"NoteNumber":87,"Velocity":80,"Duration":103092,"SoundDuration":103092,"Delta":119067684},{"NoteNumber":84,"Velocity":68,"Duration":77319,"SoundDuration":77319,"Delta":119170776},{"NoteNumber":84,"Velocity":80,"Duration":100000,"SoundDuration":100000,"Delta":119273663},{"NoteNumber":63,"Velocity":86,"Duration":600000,"SoundDuration":600000,"Delta":119273663},{"NoteNumber":87,"Velocity":68,"Duration":99999,"SoundDuration":99999,"Delta":119373663},{"NoteNumber":84,"Velocity":80,"Duration":100000,"SoundDuration":100000,"Delta":119473663},{"NoteNumber":80,"Velocity":68,"Duration":99999,"SoundDuration":99999,"Delta":119573663},{"NoteNumber":84,"Velocity":80,"Duration":200000,"SoundDuration":200000,"Delta":119673663},{"NoteNumber":60,"Velocity":80,"Duration":199999,"SoundDuration":199999,"Delta":119873663},{"NoteNumber":87,"Velocity":84,"Duration":102389,"SoundDuration":102389,"Delta":120073663},{"NoteNumber":58,"Velocity":80,"Duration":409555,"SoundDuration":409555,"Delta":120073663},{"NoteNumber":51,"Velocity":60,"Duration":1209555,"SoundDuration":1209555,"Delta":120073663},{"NoteNumber":91,"Velocity":71,"Duration":102389,"SoundDuration":102389,"Delta":120176052},{"NoteNumber":87,"Velocity":84,"Duration":102389,"SoundDuration":102389,"Delta":120278441},{"NoteNumber":82,"Velocity":71,"Duration":76791,"SoundDuration":76791,"Delta":120380830},{"NoteNumber":82,"Velocity":84,"Duration":99999,"SoundDuration":99999,"Delta":120483219},{"NoteNumber":63,"Velocity":88,"Duration":599999,"SoundDuration":599999,"Delta":120483219},{"NoteNumber":87,"Velocity":71,"Duration":100000,"SoundDuration":100000,"Delta":120583219},{"NoteNumber":82,"Velocity":84,"Duration":99999,"SoundDuration":99999,"Delta":120683219},{"NoteNumber":79,"Velocity":71,"Duration":100000,"SoundDuration":100000,"Delta":120783219},{"NoteNumber":82,"Velocity":84,"Duration":199999,"SoundDuration":199999,"Delta":120883219},{"NoteNumber":61,"Velocity":80,"Duration":200000,"SoundDuration":200000,"Delta":121083219},{"NoteNumber":87,"Velocity":90,"Duration":102557,"SoundDuration":102557,"Delta":121283219},{"NoteNumber":56,"Velocity":73,"Duration":1210593,"SoundDuration":1210593,"Delta":121283219},{"NoteNumber":60,"Velocity":86,"Duration":410593,"SoundDuration":410593,"Delta":121283219},{"NoteNumber":92,"Velocity":76,"Duration":102739,"SoundDuration":102739,"Delta":121385776},{"NoteNumber":87,"Velocity":90,"Duration":102739,"SoundDuration":102739,"Delta":121488516},{"NoteNumber":84,"Velocity":76,"Duration":77054,"SoundDuration":77054,"Delta":121591256},{"NoteNumber":84,"Velocity":90,"Duration":100000,"SoundDuration":100000,"Delta":121693813},{"NoteNumber":63,"Velocity":93,"Duration":600000,"SoundDuration":600000,"Delta":121693813},{"NoteNumber":87,"Velocity":76,"Duration":99999,"SoundDuration":99999,"Delta":121793813},{"NoteNumber":84,"Velocity":90,"Duration":100000,"SoundDuration":100000,"Delta":121893813},{"NoteNumber":80,"Velocity":76,"Duration":99999,"SoundDuration":99999,"Delta":121993813},{"NoteNumber":84,"Velocity":90,"Duration":200000,"SoundDuration":200000,"Delta":122093813},{"NoteNumber":60,"Velocity":85,"Duration":200000,"SoundDuration":200000,"Delta":122293813},{"NoteNumber":87,"Velocity":96,"Duration":102886,"SoundDuration":102886,"Delta":122493813},{"NoteNumber":58,"Velocity":89,"Duration":412164,"SoundDuration":412164,"Delta":122493813},{"NoteNumber":51,"Velocity":75,"Duration":1212164,"SoundDuration":1212164,"Delta":122493813},{"NoteNumber":91,"Velocity":81,"Duration":103092,"SoundDuration":103092,"Delta":122596699},{"NoteNumber":87,"Velocity":96,"Duration":103092,"SoundDuration":103092,"Delta":122699792},{"NoteNumber":82,"Velocity":81,"Duration":77319,"SoundDuration":77319,"Delta":122802885},{"NoteNumber":82,"Velocity":96,"Duration":99999,"SoundDuration":99999,"Delta":122905977},{"NoteNumber":63,"Velocity":95,"Duration":599999,"SoundDuration":599999,"Delta":122905977},{"NoteNumber":87,"Velocity":81,"Duration":100000,"SoundDuration":100000,"Delta":123005977},{"NoteNumber":82,"Velocity":96,"Duration":99999,"SoundDuration":99999,"Delta":123105977},{"NoteNumber":79,"Velocity":81,"Duration":100000,"SoundDuration":100000,"Delta":123205977},{"NoteNumber":82,"Velocity":96,"Duration":199999,"SoundDuration":199999,"Delta":123305977},{"NoteNumber":61,"Velocity":87,"Duration":200000,"SoundDuration":200000,"Delta":123505977},{"NoteNumber":87,"Velocity":96,"Duration":96755,"SoundDuration":96755,"Delta":123705977},{"NoteNumber":56,"Velocity":81,"Duration":386322,"SoundDuration":386322,"Delta":123705977},{"NoteNumber":60,"Velocity":96,"Duration":386322,"SoundDuration":386322,"Delta":123705977},{"NoteNumber":92,"Velocity":81,"Duration":96394,"SoundDuration":96394,"Delta":123802733},{"NoteNumber":87,"Velocity":96,"Duration":96467,"SoundDuration":96467,"Delta":123899127},{"NoteNumber":84,"Velocity":81,"Duration":72529,"SoundDuration":72529,"Delta":123995595},{"NoteNumber":84,"Velocity":96,"Duration":96705,"SoundDuration":96705,"Delta":124092300},{"NoteNumber":87,"Velocity":81,"Duration":96882,"SoundDuration":96882,"Delta":124189006},{"NoteNumber":84,"Velocity":96,"Duration":97018,"SoundDuration":97018,"Delta":124285888},{"NoteNumber":80,"Velocity":81,"Duration":72763,"SoundDuration":72763,"Delta":124382907},{"NoteNumber":80,"Velocity":96,"Duration":97301,"SoundDuration":97301,"Delta":124479925},{"NoteNumber":84,"Velocity":81,"Duration":97333,"SoundDuration":97333,"Delta":124577226},{"NoteNumber":80,"Velocity":96,"Duration":97406,"SoundDuration":97406,"Delta":124674559},{"NoteNumber":75,"Velocity":81,"Duration":73237,"SoundDuration":73237,"Delta":124771966},{"NoteNumber":75,"Velocity":96,"Duration":97650,"SoundDuration":97650,"Delta":124869616},{"NoteNumber":80,"Velocity":81,"Duration":97830,"SoundDuration":97830,"Delta":124967266},{"NoteNumber":75,"Velocity":96,"Duration":97968,"SoundDuration":97968,"Delta":125065097},{"NoteNumber":72,"Velocity":81,"Duration":73476,"SoundDuration":73476,"Delta":125163066},{"NoteNumber":72,"Velocity":96,"Duration":98257,"SoundDuration":98257,"Delta":125261035},{"NoteNumber":75,"Velocity":81,"Duration":98289,"SoundDuration":98289,"Delta":125359292},{"NoteNumber":72,"Velocity":96,"Duration":98365,"SoundDuration":98365,"Delta":125457582},{"NoteNumber":68,"Velocity":81,"Duration":73959,"SoundDuration":73959,"Delta":125555947},{"NoteNumber":68,"Velocity":96,"Duration":98612,"SoundDuration":98612,"Delta":125654560},{"NoteNumber":72,"Velocity":81,"Duration":98797,"SoundDuration":98797,"Delta":125753173},{"NoteNumber":68,"Velocity":96,"Duration":98937,"SoundDuration":98937,"Delta":125851970},{"NoteNumber":63,"Velocity":80,"Duration":98932,"SoundDuration":98932,"Delta":125950908},{"NoteNumber":75,"Velocity":95,"Duration":96559,"SoundDuration":96559,"Delta":126049840},{"NoteNumber":63,"Velocity":99,"Duration":192953,"SoundDuration":192953,"Delta":126049840},{"NoteNumber":80,"Velocity":79,"Duration":96394,"SoundDuration":96394,"Delta":126146400},{"NoteNumber":75,"Velocity":93,"Duration":96394,"SoundDuration":96394,"Delta":126242794},{"NoteNumber":72,"Velocity":77,"Duration":72498,"SoundDuration":72498,"Delta":126339189},{"NoteNumber":72,"Velocity":91,"Duration":96705,"SoundDuration":96705,"Delta":126435863},{"NoteNumber":60,"Velocity":99,"Duration":193410,"SoundDuration":193410,"Delta":126435863},{"NoteNumber":75,"Velocity":76,"Duration":96705,"SoundDuration":96705,"Delta":126532569},{"NoteNumber":72,"Velocity":89,"Duration":96986,"SoundDuration":96986,"Delta":126629274},{"NoteNumber":68,"Velocity":75,"Duration":72763,"SoundDuration":72763,"Delta":126726261},{"NoteNumber":68,"Velocity":87,"Duration":97018,"SoundDuration":97018,"Delta":126823280},{"NoteNumber":56,"Velocity":93,"Duration":194319,"SoundDuration":194319,"Delta":126823280},{"NoteNumber":72,"Velocity":73,"Duration":97301,"SoundDuration":97301,"Delta":126920298},{"NoteNumber":68,"Velocity":85,"Duration":97333,"SoundDuration":97333,"Delta":127017599},{"NoteNumber":63,"Velocity":71,"Duration":72999,"SoundDuration":72999,"Delta":127114932},{"NoteNumber":63,"Velocity":83,"Duration":97618,"SoundDuration":97618,"Delta":127212265},{"NoteNumber":51,"Velocity":88,"Duration":195268,"SoundDuration":195268,"Delta":127212265},{"NoteNumber":68,"Velocity":70,"Duration":97650,"SoundDuration":97650,"Delta":127309884},{"NoteNumber":63,"Velocity":79,"Duration":97650,"SoundDuration":97650,"Delta":127407534},{"NoteNumber":60,"Velocity":68,"Duration":73444,"SoundDuration":73444,"Delta":127505184},{"NoteNumber":60,"Velocity":77,"Duration":97968,"SoundDuration":97968,"Delta":127603121},{"NoteNumber":48,"Velocity":84,"Duration":195937,"SoundDuration":195937,"Delta":127603121},{"NoteNumber":63,"Velocity":66,"Duration":97968,"SoundDuration":97968,"Delta":127701089},{"NoteNumber":60,"Velocity":75,"Duration":98257,"SoundDuration":98257,"Delta":127799058},{"NoteNumber":56,"Velocity":62,"Duration":98289,"SoundDuration":98289,"Delta":127897316},{"NoteNumber":63,"Velocity":70,"Duration":98289,"SoundDuration":98289,"Delta":127995606},{"NoteNumber":51,"Velocity":80,"Duration":196870,"SoundDuration":196870,"Delta":127995606},{"NoteNumber":68,"Velocity":57,"Duration":98580,"SoundDuration":98580,"Delta":128093895},{"NoteNumber":63,"Velocity":65,"Duration":98612,"SoundDuration":98612,"Delta":128192476},{"NoteNumber":60,"Velocity":53,"Duration":98612,"SoundDuration":98612,"Delta":128291088},{"NoteNumber":56,"Velocity":60,"Duration":98958,"SoundDuration":98958,"Delta":128389701},{"NoteNumber":44,"Velocity":72,"Duration":395988,"SoundDuration":395988,"Delta":128389701},{"NoteNumber":60,"Velocity":51,"Duration":99009,"SoundDuration":99009,"Delta":128488660},{"NoteNumber":56,"Velocity":60,"Duration":99009,"SoundDuration":99009,"Delta":128587670},{"NoteNumber":51,"Velocity":51,"Duration":99010,"SoundDuration":99010,"Delta":128686680},{"NoteNumber":56,"Velocity":60,"Duration":99009,"SoundDuration":99009,"Delta":128785690},{"NoteNumber":60,"Velocity":51,"Duration":99009,"SoundDuration":99009,"Delta":128884700},{"NoteNumber":56,"Velocity":60,"Duration":99009,"SoundDuration":99009,"Delta":128983710},{"NoteNumber":51,"Velocity":51,"Duration":99010,"SoundDuration":99010,"Delta":129082720},{"NoteNumber":56,"Velocity":60,"Duration":99009,"SoundDuration":99009,"Delta":129181730},{"NoteNumber":60,"Velocity":51,"Duration":99009,"SoundDuration":99009,"Delta":129280740},{"NoteNumber":56,"Velocity":60,"Duration":99009,"SoundDuration":99009,"Delta":129379750},{"NoteNumber":51,"Velocity":51,"Duration":99010,"SoundDuration":99010,"Delta":129478760},{"NoteNumber":56,"Velocity":60,"Duration":99009,"SoundDuration":99009,"Delta":129577770},{"NoteNumber":60,"Velocity":51,"Duration":99009,"SoundDuration":99009,"Delta":129676780},{"NoteNumber":56,"Velocity":60,"Duration":99009,"SoundDuration":99009,"Delta":129775790},{"NoteNumber":51,"Velocity":51,"Duration":99010,"SoundDuration":99010,"Delta":129874800},{"NoteNumber":56,"Velocity":60,"Duration":99009,"SoundDuration":99009,"Delta":129973810},{"NoteNumber":60,"Velocity":51,"Duration":99009,"SoundDuration":99009,"Delta":130072820},{"NoteNumber":56,"Velocity":60,"Duration":99009,"SoundDuration":99009,"Delta":130171830},{"NoteNumber":51,"Velocity":51,"Duration":99010,"SoundDuration":99010,"Delta":130270840},{"NoteNumber":56,"Velocity":60,"Duration":99009,"SoundDuration":99009,"Delta":130369850},{"NoteNumber":60,"Velocity":51,"Duration":99009,"SoundDuration":99009,"Delta":130468860},{"NoteNumber":56,"Velocity":60,"Duration":99010,"SoundDuration":99010,"Delta":130567870},{"NoteNumber":51,"Velocity":51,"Duration":99075,"SoundDuration":99075,"Delta":130666880},{"NoteNumber":68,"Velocity":60,"Duration":2714215,"SoundDuration":2714215,"Delta":130765956},{"NoteNumber":63,"Velocity":60,"Duration":100156,"SoundDuration":100156,"Delta":130765956},{"NoteNumber":36,"Velocity":60,"Duration":2714215,"SoundDuration":2714215,"Delta":130765956},{"NoteNumber":48,"Velocity":60,"Duration":2714215,"SoundDuration":2714215,"Delta":130765956},{"NoteNumber":44,"Velocity":60,"Duration":2714215,"SoundDuration":2714215,"Delta":130765956},{"NoteNumber":66,"Velocity":51,"Duration":100716,"SoundDuration":100716,"Delta":130866112},{"NoteNumber":63,"Velocity":59,"Duration":101260,"SoundDuration":101260,"Delta":130966828},{"NoteNumber":56,"Velocity":49,"Duration":101856,"SoundDuration":101856,"Delta":131068089},{"NoteNumber":63,"Velocity":57,"Duration":102436,"SoundDuration":102436,"Delta":131169945},{"NoteNumber":66,"Velocity":47,"Duration":102998,"SoundDuration":102998,"Delta":131272381},{"NoteNumber":63,"Velocity":55,"Duration":103615,"SoundDuration":103615,"Delta":131375380},{"NoteNumber":56,"Velocity":46,"Duration":104215,"SoundDuration":104215,"Delta":131478995},{"NoteNumber":63,"Velocity":54,"Duration":104797,"SoundDuration":104797,"Delta":131583211},{"NoteNumber":66,"Velocity":45,"Duration":105436,"SoundDuration":105436,"Delta":131688008},{"NoteNumber":63,"Velocity":52,"Duration":106057,"SoundDuration":106057,"Delta":131793445},{"NoteNumber":56,"Velocity":43,"Duration":106660,"SoundDuration":106660,"Delta":131899502},{"NoteNumber":63,"Velocity":50,"Duration":107322,"SoundDuration":107322,"Delta":132006163},{"NoteNumber":66,"Velocity":42,"Duration":107966,"SoundDuration":107966,"Delta":132113485},{"NoteNumber":63,"Velocity":49,"Duration":108591,"SoundDuration":108591,"Delta":132221451},{"NoteNumber":56,"Velocity":40,"Duration":109276,"SoundDuration":109276,"Delta":132330042},{"NoteNumber":63,"Velocity":47,"Duration":109944,"SoundDuration":109944,"Delta":132439319},{"NoteNumber":66,"Velocity":39,"Duration":110592,"SoundDuration":110592,"Delta":132549263},{"NoteNumber":63,"Velocity":45,"Duration":111303,"SoundDuration":111303,"Delta":132659856},{"NoteNumber":56,"Velocity":38,"Duration":111996,"SoundDuration":111996,"Delta":132771160},{"NoteNumber":63,"Velocity":44,"Duration":149253,"SoundDuration":149253,"Delta":132883156},{"NoteNumber":66,"Velocity":36,"Duration":149253,"SoundDuration":149253,"Delta":133032410},{"NoteNumber":63,"Velocity":42,"Duration":149253,"SoundDuration":149253,"Delta":133181664},{"NoteNumber":56,"Velocity":34,"Duration":149253,"SoundDuration":149253,"Delta":133330918},{"NoteNumber":68,"Velocity":61,"Duration":1346902,"SoundDuration":1346902,"Delta":133480171},{"NoteNumber":37,"Velocity":42,"Duration":229007,"SoundDuration":229007,"Delta":133480171},{"NoteNumber":56,"Velocity":27,"Duration":217557,"SoundDuration":217557,"Delta":133709179},{"NoteNumber":64,"Velocity":27,"Duration":217557,"SoundDuration":217557,"Delta":133709179},{"NoteNumber":52,"Velocity":26,"Duration":217557,"SoundDuration":217557,"Delta":133709179},{"NoteNumber":49,"Velocity":22,"Duration":217557,"SoundDuration":217557,"Delta":133709179},{"NoteNumber":44,"Velocity":22,"Duration":217557,"SoundDuration":217557,"Delta":133709179},{"NoteNumber":56,"Velocity":26,"Duration":211110,"SoundDuration":211110,"Delta":133938186},{"NoteNumber":64,"Velocity":26,"Duration":211110,"SoundDuration":211110,"Delta":133938186},{"NoteNumber":44,"Velocity":22,"Duration":211110,"SoundDuration":211110,"Delta":133938186},{"NoteNumber":49,"Velocity":22,"Duration":211110,"SoundDuration":211110,"Delta":133938186},{"NoteNumber":52,"Velocity":26,"Duration":211110,"SoundDuration":211110,"Delta":133938186},{"NoteNumber":56,"Velocity":26,"Duration":211110,"SoundDuration":211110,"Delta":134160408},{"NoteNumber":64,"Velocity":26,"Duration":211110,"SoundDuration":211110,"Delta":134160408},{"NoteNumber":44,"Velocity":22,"Duration":211110,"SoundDuration":211110,"Delta":134160408},{"NoteNumber":49,"Velocity":22,"Duration":211110,"SoundDuration":211110,"Delta":134160408},{"NoteNumber":52,"Velocity":26,"Duration":211110,"SoundDuration":211110,"Delta":134160408},{"NoteNumber":56,"Velocity":26,"Duration":211110,"SoundDuration":211110,"Delta":134382630},{"NoteNumber":64,"Velocity":26,"Duration":211110,"SoundDuration":211110,"Delta":134382630},{"NoteNumber":44,"Velocity":22,"Duration":211110,"SoundDuration":211110,"Delta":134382630},{"NoteNumber":49,"Velocity":22,"Duration":211110,"SoundDuration":211110,"Delta":134382630},{"NoteNumber":52,"Velocity":26,"Duration":211110,"SoundDuration":211110,"Delta":134382630},{"NoteNumber":56,"Velocity":26,"Duration":211110,"SoundDuration":211110,"Delta":134604852},{"NoteNumber":64,"Velocity":26,"Duration":211110,"SoundDuration":211110,"Delta":134604852},{"NoteNumber":44,"Velocity":22,"Duration":211110,"SoundDuration":211110,"Delta":134604852},{"NoteNumber":49,"Velocity":22,"Duration":211110,"SoundDuration":211110,"Delta":134604852},{"NoteNumber":52,"Velocity":26,"Duration":211110,"SoundDuration":211110,"Delta":134604852},{"NoteNumber":68,"Velocity":61,"Duration":428571,"SoundDuration":428571,"Delta":134827074},{"NoteNumber":44,"Velocity":22,"Duration":203571,"SoundDuration":203571,"Delta":134827074},{"NoteNumber":49,"Velocity":22,"Duration":203571,"SoundDuration":203571,"Delta":134827074},{"NoteNumber":52,"Velocity":26,"Duration":203571,"SoundDuration":203571,"Delta":134827074},{"NoteNumber":56,"Velocity":26,"Duration":203571,"SoundDuration":203571,"Delta":135041360},{"NoteNumber":64,"Velocity":26,"Duration":214285,"SoundDuration":214285,"Delta":135041360},{"NoteNumber":44,"Velocity":22,"Duration":203571,"SoundDuration":203571,"Delta":135041360},{"NoteNumber":49,"Velocity":22,"Duration":203571,"SoundDuration":203571,"Delta":135041360},{"NoteNumber":52,"Velocity":26,"Duration":203571,"SoundDuration":203571,"Delta":135041360},{"NoteNumber":69,"Velocity":59,"Duration":428571,"SoundDuration":428571,"Delta":135255645},{"NoteNumber":44,"Velocity":22,"Duration":203571,"SoundDuration":203571,"Delta":135255645},{"NoteNumber":49,"Velocity":22,"Duration":203571,"SoundDuration":203571,"Delta":135255645},{"NoteNumber":52,"Velocity":26,"Duration":203571,"SoundDuration":203571,"Delta":135255645},{"NoteNumber":57,"Velocity":27,"Duration":203571,"SoundDuration":203571,"Delta":135469931},{"NoteNumber":64,"Velocity":27,"Duration":214285,"SoundDuration":214285,"Delta":135469931},{"NoteNumber":44,"Velocity":22,"Duration":203571,"SoundDuration":203571,"Delta":135469931},{"NoteNumber":49,"Velocity":22,"Duration":203571,"SoundDuration":203571,"Delta":135469931},{"NoteNumber":52,"Velocity":26,"Duration":203571,"SoundDuration":203571,"Delta":135469931},{"NoteNumber":68,"Velocity":59,"Duration":495905,"SoundDuration":495905,"Delta":135684216},{"NoteNumber":44,"Velocity":22,"Duration":235358,"SoundDuration":235358,"Delta":135684216},{"NoteNumber":49,"Velocity":22,"Duration":235358,"SoundDuration":235358,"Delta":135684216},{"NoteNumber":52,"Velocity":26,"Duration":235358,"SoundDuration":235358,"Delta":135684216},{"NoteNumber":56,"Velocity":26,"Duration":236514,"SoundDuration":236514,"Delta":135932023},{"NoteNumber":64,"Velocity":26,"Duration":248098,"SoundDuration":248098,"Delta":135932023},{"NoteNumber":49,"Velocity":22,"Duration":236514,"SoundDuration":236514,"Delta":135932023},{"NoteNumber":44,"Velocity":22,"Duration":236514,"SoundDuration":236514,"Delta":135932023},{"NoteNumber":52,"Velocity":26,"Duration":236514,"SoundDuration":236514,"Delta":135932023},{"NoteNumber":69,"Velocity":60,"Duration":1338290,"SoundDuration":1338290,"Delta":136180122},{"NoteNumber":36,"Velocity":41,"Duration":211896,"SoundDuration":211896,"Delta":136180122},{"NoteNumber":57,"Velocity":26,"Duration":211896,"SoundDuration":211896,"Delta":136403170},{"NoteNumber":66,"Velocity":26,"Duration":211896,"SoundDuration":211896,"Delta":136403170},{"NoteNumber":51,"Velocity":22,"Duration":211896,"SoundDuration":211896,"Delta":136403170},{"NoteNumber":54,"Velocity":26,"Duration":211896,"SoundDuration":211896,"Delta":136403170},{"NoteNumber":44,"Velocity":22,"Duration":211896,"SoundDuration":211896,"Delta":136403170},{"NoteNumber":57,"Velocity":26,"Duration":211896,"SoundDuration":211896,"Delta":136626219},{"NoteNumber":66,"Velocity":26,"Duration":211896,"SoundDuration":211896,"Delta":136626219},{"NoteNumber":44,"Velocity":22,"Duration":211896,"SoundDuration":211896,"Delta":136626219},{"NoteNumber":51,"Velocity":22,"Duration":211896,"SoundDuration":211896,"Delta":136626219},{"NoteNumber":54,"Velocity":26,"Duration":211896,"SoundDuration":211896,"Delta":136626219},{"NoteNumber":57,"Velocity":26,"Duration":211896,"SoundDuration":211896,"Delta":136849267},{"NoteNumber":66,"Velocity":26,"Duration":211896,"SoundDuration":211896,"Delta":136849267},{"NoteNumber":44,"Velocity":22,"Duration":211896,"SoundDuration":211896,"Delta":136849267},{"NoteNumber":51,"Velocity":22,"Duration":211896,"SoundDuration":211896,"Delta":136849267},{"NoteNumber":54,"Velocity":26,"Duration":211896,"SoundDuration":211896,"Delta":136849267},{"NoteNumber":57,"Velocity":26,"Duration":211896,"SoundDuration":211896,"Delta":137072316},{"NoteNumber":66,"Velocity":26,"Duration":211896,"SoundDuration":211896,"Delta":137072316},{"NoteNumber":44,"Velocity":22,"Duration":211896,"SoundDuration":211896,"Delta":137072316},{"NoteNumber":51,"Velocity":22,"Duration":211896,"SoundDuration":211896,"Delta":137072316},{"NoteNumber":54,"Velocity":26,"Duration":211896,"SoundDuration":211896,"Delta":137072316},{"NoteNumber":57,"Velocity":26,"Duration":211896,"SoundDuration":211896,"Delta":137295364},{"NoteNumber":66,"Velocity":26,"Duration":211896,"SoundDuration":211896,"Delta":137295364},{"NoteNumber":44,"Velocity":22,"Duration":211896,"SoundDuration":211896,"Delta":137295364},{"NoteNumber":51,"Velocity":22,"Duration":211896,"SoundDuration":211896,"Delta":137295364},{"NoteNumber":54,"Velocity":26,"Duration":211896,"SoundDuration":211896,"Delta":137295364},{"NoteNumber":68,"Velocity":59,"Duration":1338290,"SoundDuration":1338290,"Delta":137518413},{"NoteNumber":44,"Velocity":22,"Duration":211896,"SoundDuration":211896,"Delta":137518413},{"NoteNumber":51,"Velocity":22,"Duration":211896,"SoundDuration":211896,"Delta":137518413},{"NoteNumber":54,"Velocity":26,"Duration":211896,"SoundDuration":211896,"Delta":137518413},{"NoteNumber":56,"Velocity":28,"Duration":211896,"SoundDuration":211896,"Delta":137741461},{"NoteNumber":66,"Velocity":28,"Duration":211896,"SoundDuration":211896,"Delta":137741461},{"NoteNumber":44,"Velocity":22,"Duration":211896,"SoundDuration":211896,"Delta":137741461},{"NoteNumber":51,"Velocity":22,"Duration":211896,"SoundDuration":211896,"Delta":137741461},{"NoteNumber":54,"Velocity":26,"Duration":211896,"SoundDuration":211896,"Delta":137741461},{"NoteNumber":56,"Velocity":29,"Duration":211896,"SoundDuration":211896,"Delta":137964510},{"NoteNumber":66,"Velocity":29,"Duration":211896,"SoundDuration":211896,"Delta":137964510},{"NoteNumber":44,"Velocity":22,"Duration":211896,"SoundDuration":211896,"Delta":137964510},{"NoteNumber":51,"Velocity":22,"Duration":211896,"SoundDuration":211896,"Delta":137964510},{"NoteNumber":54,"Velocity":26,"Duration":211896,"SoundDuration":211896,"Delta":137964510},{"NoteNumber":56,"Velocity":29,"Duration":211896,"SoundDuration":211896,"Delta":138187558},{"NoteNumber":66,"Velocity":29,"Duration":211896,"SoundDuration":211896,"Delta":138187558},{"NoteNumber":44,"Velocity":22,"Duration":211896,"SoundDuration":211896,"Delta":138187558},{"NoteNumber":51,"Velocity":22,"Duration":211896,"SoundDuration":211896,"Delta":138187558},{"NoteNumber":54,"Velocity":26,"Duration":211896,"SoundDuration":211896,"Delta":138187558},{"NoteNumber":56,"Velocity":29,"Duration":211896,"SoundDuration":211896,"Delta":138410607},{"NoteNumber":66,"Velocity":29,"Duration":211896,"SoundDuration":211896,"Delta":138410607},{"NoteNumber":51,"Velocity":22,"Duration":211896,"SoundDuration":211896,"Delta":138410607},{"NoteNumber":44,"Velocity":22,"Duration":211896,"SoundDuration":211896,"Delta":138410607},{"NoteNumber":54,"Velocity":26,"Duration":211896,"SoundDuration":211896,"Delta":138410607},{"NoteNumber":56,"Velocity":29,"Duration":211896,"SoundDuration":211896,"Delta":138633655},{"NoteNumber":66,"Velocity":29,"Duration":211896,"SoundDuration":211896,"Delta":138633655},{"NoteNumber":44,"Velocity":22,"Duration":211896,"SoundDuration":211896,"Delta":138633655},{"NoteNumber":51,"Velocity":22,"Duration":211896,"SoundDuration":211896,"Delta":138633655},{"NoteNumber":54,"Velocity":26,"Duration":211896,"SoundDuration":211896,"Delta":138633655},{"NoteNumber":68,"Velocity":60,"Duration":1338290,"SoundDuration":1338290,"Delta":138856704},{"NoteNumber":37,"Velocity":40,"Duration":211896,"SoundDuration":211896,"Delta":138856704},{"NoteNumber":56,"Velocity":26,"Duration":211896,"SoundDuration":211896,"Delta":139079752},{"NoteNumber":64,"Velocity":26,"Duration":211896,"SoundDuration":211896,"Delta":139079752},{"NoteNumber":52,"Velocity":26,"Duration":211896,"SoundDuration":211896,"Delta":139079752},{"NoteNumber":49,"Velocity":22,"Duration":211896,"SoundDuration":211896,"Delta":139079752},{"NoteNumber":44,"Velocity":22,"Duration":211896,"SoundDuration":211896,"Delta":139079752},{"NoteNumber":56,"Velocity":26,"Duration":211896,"SoundDuration":211896,"Delta":139302801},{"NoteNumber":64,"Velocity":26,"Duration":211896,"SoundDuration":211896,"Delta":139302801},{"NoteNumber":44,"Velocity":22,"Duration":211896,"SoundDuration":211896,"Delta":139302801},{"NoteNumber":49,"Velocity":22,"Duration":211896,"SoundDuration":211896,"Delta":139302801},{"NoteNumber":52,"Velocity":26,"Duration":211896,"SoundDuration":211896,"Delta":139302801},{"NoteNumber":56,"Velocity":26,"Duration":211896,"SoundDuration":211896,"Delta":139525849},{"NoteNumber":64,"Velocity":26,"Duration":211896,"SoundDuration":211896,"Delta":139525849},{"NoteNumber":44,"Velocity":22,"Duration":211896,"SoundDuration":211896,"Delta":139525849},{"NoteNumber":49,"Velocity":22,"Duration":211896,"SoundDuration":211896,"Delta":139525849},{"NoteNumber":52,"Velocity":26,"Duration":211896,"SoundDuration":211896,"Delta":139525849},{"NoteNumber":56,"Velocity":26,"Duration":211896,"SoundDuration":211896,"Delta":139748898},{"NoteNumber":64,"Velocity":26,"Duration":211896,"SoundDuration":211896,"Delta":139748898},{"NoteNumber":44,"Velocity":22,"Duration":211896,"SoundDuration":211896,"Delta":139748898},{"NoteNumber":49,"Velocity":22,"Duration":211896,"SoundDuration":211896,"Delta":139748898},{"NoteNumber":52,"Velocity":26,"Duration":211896,"SoundDuration":211896,"Delta":139748898},{"NoteNumber":56,"Velocity":27,"Duration":211896,"SoundDuration":211896,"Delta":139971946},{"NoteNumber":64,"Velocity":27,"Duration":211896,"SoundDuration":211896,"Delta":139971946},{"NoteNumber":44,"Velocity":22,"Duration":211896,"SoundDuration":211896,"Delta":139971946},{"NoteNumber":49,"Velocity":22,"Duration":211896,"SoundDuration":211896,"Delta":139971946},{"NoteNumber":52,"Velocity":26,"Duration":211896,"SoundDuration":211896,"Delta":139971946},{"NoteNumber":76,"Velocity":68,"Duration":428863,"SoundDuration":428863,"Delta":140194995},{"NoteNumber":44,"Velocity":22,"Duration":203863,"SoundDuration":203863,"Delta":140194995},{"NoteNumber":49,"Velocity":22,"Duration":203863,"SoundDuration":203863,"Delta":140194995},{"NoteNumber":52,"Velocity":26,"Duration":203863,"SoundDuration":203863,"Delta":140194995},{"NoteNumber":64,"Velocity":28,"Duration":203571,"SoundDuration":203571,"Delta":140409572},{"NoteNumber":68,"Velocity":28,"Duration":203571,"SoundDuration":203571,"Delta":140409572},{"NoteNumber":44,"Velocity":22,"Duration":203571,"SoundDuration":203571,"Delta":140409572},{"NoteNumber":49,"Velocity":22,"Duration":203571,"SoundDuration":203571,"Delta":140409572},{"NoteNumber":52,"Velocity":26,"Duration":203571,"SoundDuration":203571,"Delta":140409572},{"NoteNumber":75,"Velocity":63,"Duration":428571,"SoundDuration":428571,"Delta":140623858},{"NoteNumber":44,"Velocity":22,"Duration":203571,"SoundDuration":203571,"Delta":140623858},{"NoteNumber":49,"Velocity":22,"Duration":203571,"SoundDuration":203571,"Delta":140623858},{"NoteNumber":52,"Velocity":26,"Duration":203571,"SoundDuration":203571,"Delta":140623858},{"NoteNumber":63,"Velocity":27,"Duration":203571,"SoundDuration":203571,"Delta":140838143},{"NoteNumber":68,"Velocity":27,"Duration":203571,"SoundDuration":203571,"Delta":140838143},{"NoteNumber":44,"Velocity":22,"Duration":203571,"SoundDuration":203571,"Delta":140838143},{"NoteNumber":49,"Velocity":22,"Duration":203571,"SoundDuration":203571,"Delta":140838143},{"NoteNumber":52,"Velocity":26,"Duration":203571,"SoundDuration":203571,"Delta":140838143},{"NoteNumber":73,"Velocity":60,"Duration":522426,"SoundDuration":522426,"Delta":141052429},{"NoteNumber":44,"Velocity":22,"Duration":247317,"SoundDuration":247317,"Delta":141052429},{"NoteNumber":49,"Velocity":22,"Duration":247317,"SoundDuration":247317,"Delta":141052429},{"NoteNumber":52,"Velocity":26,"Duration":247317,"SoundDuration":247317,"Delta":141052429},{"NoteNumber":61,"Velocity":27,"Duration":248908,"SoundDuration":248908,"Delta":141312846},{"NoteNumber":68,"Velocity":27,"Duration":248908,"SoundDuration":248908,"Delta":141312846},{"NoteNumber":49,"Velocity":22,"Duration":248908,"SoundDuration":248908,"Delta":141312846},{"NoteNumber":44,"Velocity":22,"Duration":248908,"SoundDuration":248908,"Delta":141312846},{"NoteNumber":52,"Velocity":26,"Duration":248908,"SoundDuration":248908,"Delta":141312846},{"NoteNumber":73,"Velocity":60,"Duration":1334658,"SoundDuration":1334658,"Delta":141574855},{"NoteNumber":39,"Velocity":39,"Duration":212437,"SoundDuration":212437,"Delta":141574855},{"NoteNumber":61,"Velocity":27,"Duration":211110,"SoundDuration":211110,"Delta":141798403},{"NoteNumber":68,"Velocity":27,"Duration":211110,"SoundDuration":211110,"Delta":141798403},{"NoteNumber":51,"Velocity":22,"Duration":211110,"SoundDuration":211110,"Delta":141798403},{"NoteNumber":54,"Velocity":26,"Duration":211110,"SoundDuration":211110,"Delta":141798403},{"NoteNumber":44,"Velocity":22,"Duration":211110,"SoundDuration":211110,"Delta":141798403},{"NoteNumber":61,"Velocity":27,"Duration":211110,"SoundDuration":211110,"Delta":142020625},{"NoteNumber":68,"Velocity":27,"Duration":211110,"SoundDuration":211110,"Delta":142020625},{"NoteNumber":44,"Velocity":22,"Duration":211110,"SoundDuration":211110,"Delta":142020625},{"NoteNumber":51,"Velocity":22,"Duration":211110,"SoundDuration":211110,"Delta":142020625},{"NoteNumber":54,"Velocity":26,"Duration":211110,"SoundDuration":211110,"Delta":142020625},{"NoteNumber":61,"Velocity":27,"Duration":211110,"SoundDuration":211110,"Delta":142242847},{"NoteNumber":68,"Velocity":27,"Duration":211110,"SoundDuration":211110,"Delta":142242847},{"NoteNumber":44,"Velocity":22,"Duration":211110,"SoundDuration":211110,"Delta":142242847},{"NoteNumber":51,"Velocity":22,"Duration":211110,"SoundDuration":211110,"Delta":142242847},{"NoteNumber":54,"Velocity":26,"Duration":211110,"SoundDuration":211110,"Delta":142242847},{"NoteNumber":61,"Velocity":27,"Duration":211110,"SoundDuration":211110,"Delta":142465069},{"NoteNumber":68,"Velocity":27,"Duration":211110,"SoundDuration":211110,"Delta":142465069},{"NoteNumber":44,"Velocity":22,"Duration":211110,"SoundDuration":211110,"Delta":142465069},{"NoteNumber":51,"Velocity":22,"Duration":211110,"SoundDuration":211110,"Delta":142465069},{"NoteNumber":54,"Velocity":26,"Duration":211110,"SoundDuration":211110,"Delta":142465069},{"NoteNumber":61,"Velocity":27,"Duration":211110,"SoundDuration":211110,"Delta":142687291},{"NoteNumber":68,"Velocity":27,"Duration":211110,"SoundDuration":211110,"Delta":142687291},{"NoteNumber":44,"Velocity":22,"Duration":211110,"SoundDuration":211110,"Delta":142687291},{"NoteNumber":51,"Velocity":22,"Duration":211110,"SoundDuration":211110,"Delta":142687291},{"NoteNumber":54,"Velocity":26,"Duration":211110,"SoundDuration":211110,"Delta":142687291},{"NoteNumber":72,"Velocity":61,"Duration":1333956,"SoundDuration":1333956,"Delta":142909513},{"NoteNumber":44,"Velocity":22,"Duration":211110,"SoundDuration":211110,"Delta":142909513},{"NoteNumber":51,"Velocity":22,"Duration":211110,"SoundDuration":211110,"Delta":142909513},{"NoteNumber":54,"Velocity":26,"Duration":211110,"SoundDuration":211110,"Delta":142909513},{"NoteNumber":60,"Velocity":27,"Duration":211110,"SoundDuration":211110,"Delta":143131735},{"NoteNumber":68,"Velocity":27,"Duration":211110,"SoundDuration":211110,"Delta":143131735},{"NoteNumber":44,"Velocity":22,"Duration":211110,"SoundDuration":211110,"Delta":143131735},{"NoteNumber":51,"Velocity":22,"Duration":211110,"SoundDuration":211110,"Delta":143131735},{"NoteNumber":54,"Velocity":26,"Duration":211110,"SoundDuration":211110,"Delta":143131735},{"NoteNumber":60,"Velocity":27,"Duration":211110,"SoundDuration":211110,"Delta":143353957},{"NoteNumber":68,"Velocity":27,"Duration":211110,"SoundDuration":211110,"Delta":143353957},{"NoteNumber":44,"Velocity":22,"Duration":211110,"SoundDuration":211110,"Delta":143353957},{"NoteNumber":51,"Velocity":22,"Duration":211110,"SoundDuration":211110,"Delta":143353957},{"NoteNumber":54,"Velocity":26,"Duration":211110,"SoundDuration":211110,"Delta":143353957},{"NoteNumber":60,"Velocity":27,"Duration":211110,"SoundDuration":211110,"Delta":143576179},{"NoteNumber":68,"Velocity":27,"Duration":211110,"SoundDuration":211110,"Delta":143576179},{"NoteNumber":44,"Velocity":22,"Duration":211110,"SoundDuration":211110,"Delta":143576179},{"NoteNumber":51,"Velocity":22,"Duration":211110,"SoundDuration":211110,"Delta":143576179},{"NoteNumber":54,"Velocity":26,"Duration":211110,"SoundDuration":211110,"Delta":143576179},{"NoteNumber":60,"Velocity":27,"Duration":211110,"SoundDuration":211110,"Delta":143798401},{"NoteNumber":68,"Velocity":27,"Duration":211110,"SoundDuration":211110,"Delta":143798401},{"NoteNumber":51,"Velocity":22,"Duration":211110,"SoundDuration":211110,"Delta":143798401},{"NoteNumber":44,"Velocity":22,"Duration":211110,"SoundDuration":211110,"Delta":143798401},{"NoteNumber":54,"Velocity":26,"Duration":211110,"SoundDuration":211110,"Delta":143798401},{"NoteNumber":60,"Velocity":27,"Duration":211110,"SoundDuration":211110,"Delta":144020623},{"NoteNumber":68,"Velocity":27,"Duration":211110,"SoundDuration":211110,"Delta":144020623},{"NoteNumber":44,"Velocity":22,"Duration":211110,"SoundDuration":211110,"Delta":144020623},{"NoteNumber":51,"Velocity":22,"Duration":211110,"SoundDuration":211110,"Delta":144020623},{"NoteNumber":54,"Velocity":26,"Duration":211110,"SoundDuration":211110,"Delta":144020623},{"NoteNumber":72,"Velocity":58,"Duration":481064,"SoundDuration":481064,"Delta":144243470},{"NoteNumber":40,"Velocity":42,"Duration":228915,"SoundDuration":228915,"Delta":144243470},{"NoteNumber":60,"Velocity":35,"Duration":228915,"SoundDuration":228915,"Delta":144484434},{"NoteNumber":69,"Velocity":35,"Duration":228915,"SoundDuration":228915,"Delta":144484434},{"NoteNumber":52,"Velocity":35,"Duration":228915,"SoundDuration":228915,"Delta":144484434},{"NoteNumber":45,"Velocity":29,"Duration":228915,"SoundDuration":228915,"Delta":144484434},{"NoteNumber":73,"Velocity":68,"Duration":1290323,"SoundDuration":1290323,"Delta":144724534},{"NoteNumber":45,"Velocity":29,"Duration":204301,"SoundDuration":204301,"Delta":144724534},{"NoteNumber":52,"Velocity":35,"Duration":204301,"SoundDuration":204301,"Delta":144724534},{"NoteNumber":61,"Velocity":35,"Duration":204301,"SoundDuration":204301,"Delta":144939588},{"NoteNumber":69,"Velocity":35,"Duration":204301,"SoundDuration":204301,"Delta":144939588},{"NoteNumber":45,"Velocity":29,"Duration":204301,"SoundDuration":204301,"Delta":144939588},{"NoteNumber":52,"Velocity":35,"Duration":204301,"SoundDuration":204301,"Delta":144939588},{"NoteNumber":61,"Velocity":35,"Duration":204301,"SoundDuration":204301,"Delta":145154642},{"NoteNumber":69,"Velocity":35,"Duration":204301,"SoundDuration":204301,"Delta":145154642},{"NoteNumber":45,"Velocity":29,"Duration":204301,"SoundDuration":204301,"Delta":145154642},{"NoteNumber":52,"Velocity":35,"Duration":204301,"SoundDuration":204301,"Delta":145154642},{"NoteNumber":61,"Velocity":35,"Duration":204301,"SoundDuration":204301,"Delta":145369696},{"NoteNumber":69,"Velocity":35,"Duration":204301,"SoundDuration":204301,"Delta":145369696},{"NoteNumber":45,"Velocity":29,"Duration":204301,"SoundDuration":204301,"Delta":145369696},{"NoteNumber":52,"Velocity":35,"Duration":204301,"SoundDuration":204301,"Delta":145369696},{"NoteNumber":61,"Velocity":35,"Duration":204301,"SoundDuration":204301,"Delta":145584750},{"NoteNumber":69,"Velocity":35,"Duration":204301,"SoundDuration":204301,"Delta":145584750},{"NoteNumber":52,"Velocity":35,"Duration":204301,"SoundDuration":204301,"Delta":145584750},{"NoteNumber":45,"Velocity":29,"Duration":204301,"SoundDuration":204301,"Delta":145584750},{"NoteNumber":61,"Velocity":35,"Duration":204301,"SoundDuration":204301,"Delta":145799804},{"NoteNumber":69,"Velocity":35,"Duration":204301,"SoundDuration":204301,"Delta":145799804},{"NoteNumber":45,"Velocity":29,"Duration":204301,"SoundDuration":204301,"Delta":145799804},{"NoteNumber":52,"Velocity":35,"Duration":204301,"SoundDuration":204301,"Delta":145799804},{"NoteNumber":73,"Velocity":70,"Duration":430108,"SoundDuration":430108,"Delta":146014858},{"NoteNumber":40,"Velocity":35,"Duration":430108,"SoundDuration":430108,"Delta":146014858},{"NoteNumber":61,"Velocity":35,"Duration":204301,"SoundDuration":204301,"Delta":146229912},{"NoteNumber":69,"Velocity":35,"Duration":204301,"SoundDuration":204301,"Delta":146229912},{"NoteNumber":52,"Velocity":35,"Duration":204301,"SoundDuration":204301,"Delta":146229912},{"NoteNumber":45,"Velocity":29,"Duration":204301,"SoundDuration":204301,"Delta":146229912},{"NoteNumber":73,"Velocity":69,"Duration":430939,"SoundDuration":430939,"Delta":146444966},{"NoteNumber":40,"Velocity":35,"Duration":430939,"SoundDuration":430939,"Delta":146444966},{"NoteNumber":61,"Velocity":35,"Duration":204301,"SoundDuration":204301,"Delta":146660020},{"NoteNumber":69,"Velocity":35,"Duration":204301,"SoundDuration":204301,"Delta":146660020},{"NoteNumber":52,"Velocity":35,"Duration":204301,"SoundDuration":204301,"Delta":146660020},{"NoteNumber":45,"Velocity":29,"Duration":204301,"SoundDuration":204301,"Delta":146660020},{"NoteNumber":73,"Velocity":70,"Duration":479999,"SoundDuration":479999,"Delta":146875906},{"NoteNumber":35,"Velocity":52,"Duration":227999,"SoundDuration":227999,"Delta":146875906},{"NoteNumber":61,"Velocity":44,"Duration":228000,"SoundDuration":228000,"Delta":147115906},{"NoteNumber":68,"Velocity":44,"Duration":228000,"SoundDuration":228000,"Delta":147115906},{"NoteNumber":47,"Velocity":44,"Duration":228000,"SoundDuration":228000,"Delta":147115906},{"NoteNumber":40,"Velocity":37,"Duration":228000,"SoundDuration":228000,"Delta":147115906},{"NoteNumber":74,"Velocity":78,"Duration":1294964,"SoundDuration":1294964,"Delta":147355906},{"NoteNumber":40,"Velocity":37,"Duration":205036,"SoundDuration":205036,"Delta":147355906},{"NoteNumber":47,"Velocity":44,"Duration":205036,"SoundDuration":205036,"Delta":147355906},{"NoteNumber":62,"Velocity":44,"Duration":205036,"SoundDuration":205036,"Delta":147571733},{"NoteNumber":68,"Velocity":44,"Duration":205036,"SoundDuration":205036,"Delta":147571733},{"NoteNumber":40,"Velocity":37,"Duration":205036,"SoundDuration":205036,"Delta":147571733},{"NoteNumber":47,"Velocity":44,"Duration":205036,"SoundDuration":205036,"Delta":147571733},{"NoteNumber":62,"Velocity":44,"Duration":205036,"SoundDuration":205036,"Delta":147787561},{"NoteNumber":68,"Velocity":44,"Duration":205036,"SoundDuration":205036,"Delta":147787561},{"NoteNumber":47,"Velocity":44,"Duration":205036,"SoundDuration":205036,"Delta":147787561},{"NoteNumber":40,"Velocity":37,"Duration":205036,"SoundDuration":205036,"Delta":147787561},{"NoteNumber":62,"Velocity":44,"Duration":205036,"SoundDuration":205036,"Delta":148003388},{"NoteNumber":68,"Velocity":44,"Duration":205036,"SoundDuration":205036,"Delta":148003388},{"NoteNumber":40,"Velocity":37,"Duration":205036,"SoundDuration":205036,"Delta":148003388},{"NoteNumber":47,"Velocity":44,"Duration":205036,"SoundDuration":205036,"Delta":148003388},{"NoteNumber":62,"Velocity":44,"Duration":205036,"SoundDuration":205036,"Delta":148219216},{"NoteNumber":68,"Velocity":44,"Duration":205036,"SoundDuration":205036,"Delta":148219216},{"NoteNumber":40,"Velocity":37,"Duration":205036,"SoundDuration":205036,"Delta":148219216},{"NoteNumber":47,"Velocity":44,"Duration":205036,"SoundDuration":205036,"Delta":148219216},{"NoteNumber":62,"Velocity":44,"Duration":205036,"SoundDuration":205036,"Delta":148435043},{"NoteNumber":68,"Velocity":44,"Duration":205036,"SoundDuration":205036,"Delta":148435043},{"NoteNumber":40,"Velocity":37,"Duration":205036,"SoundDuration":205036,"Delta":148435043},{"NoteNumber":47,"Velocity":44,"Duration":205036,"SoundDuration":205036,"Delta":148435043},{"NoteNumber":74,"Velocity":81,"Duration":431655,"SoundDuration":431655,"Delta":148650871},{"NoteNumber":35,"Velocity":44,"Duration":431655,"SoundDuration":431655,"Delta":148650871},{"NoteNumber":62,"Velocity":44,"Duration":215827,"SoundDuration":215827,"Delta":148866698},{"NoteNumber":68,"Velocity":44,"Duration":215827,"SoundDuration":215827,"Delta":148866698},{"NoteNumber":40,"Velocity":37,"Duration":215827,"SoundDuration":215827,"Delta":148866698},{"NoteNumber":47,"Velocity":44,"Duration":215827,"SoundDuration":215827,"Delta":148866698},{"NoteNumber":74,"Velocity":80,"Duration":432428,"SoundDuration":432428,"Delta":149082526},{"NoteNumber":40,"Velocity":44,"Duration":432428,"SoundDuration":432428,"Delta":149082526},{"NoteNumber":62,"Velocity":44,"Duration":216601,"SoundDuration":216601,"Delta":149298353},{"NoteNumber":68,"Velocity":44,"Duration":216601,"SoundDuration":216601,"Delta":149298353},{"NoteNumber":52,"Velocity":44,"Duration":216601,"SoundDuration":216601,"Delta":149298353},{"NoteNumber":47,"Velocity":37,"Duration":216601,"SoundDuration":216601,"Delta":149298353},{"NoteNumber":76,"Velocity":88,"Duration":477262,"SoundDuration":477262,"Delta":149514955},{"NoteNumber":39,"Velocity":61,"Duration":1334696,"SoundDuration":1334696,"Delta":149514955},{"NoteNumber":64,"Velocity":51,"Duration":227091,"SoundDuration":227091,"Delta":149753999},{"NoteNumber":68,"Velocity":51,"Duration":227091,"SoundDuration":227091,"Delta":149753999},{"NoteNumber":51,"Velocity":45,"Duration":227091,"SoundDuration":227091,"Delta":149753999},{"NoteNumber":47,"Velocity":39,"Duration":227091,"SoundDuration":227091,"Delta":149753999},{"NoteNumber":75,"Velocity":84,"Duration":857434,"SoundDuration":857434,"Delta":149992217},{"NoteNumber":47,"Velocity":39,"Duration":203571,"SoundDuration":203571,"Delta":149992217},{"NoteNumber":51,"Velocity":45,"Duration":203571,"SoundDuration":203571,"Delta":149992217},{"NoteNumber":63,"Velocity":51,"Duration":203571,"SoundDuration":203571,"Delta":150206503},{"NoteNumber":68,"Velocity":51,"Duration":203571,"SoundDuration":203571,"Delta":150206503},{"NoteNumber":47,"Velocity":39,"Duration":203571,"SoundDuration":203571,"Delta":150206503},{"NoteNumber":51,"Velocity":46,"Duration":203571,"SoundDuration":203571,"Delta":150206503},{"NoteNumber":63,"Velocity":44,"Duration":203571,"SoundDuration":203571,"Delta":150420788},{"NoteNumber":68,"Velocity":44,"Duration":203571,"SoundDuration":203571,"Delta":150420788},{"NoteNumber":47,"Velocity":46,"Duration":203571,"SoundDuration":203571,"Delta":150420788},{"NoteNumber":51,"Velocity":46,"Duration":203571,"SoundDuration":203571,"Delta":150420788},{"NoteNumber":63,"Velocity":51,"Duration":203571,"SoundDuration":203571,"Delta":150635074},{"NoteNumber":68,"Velocity":51,"Duration":203571,"SoundDuration":203571,"Delta":150635074},{"NoteNumber":47,"Velocity":39,"Duration":203571,"SoundDuration":203571,"Delta":150635074},{"NoteNumber":51,"Velocity":46,"Duration":203571,"SoundDuration":203571,"Delta":150635074},{"NoteNumber":76,"Velocity":88,"Duration":446096,"SoundDuration":446096,"Delta":150849651},{"NoteNumber":39,"Velocity":61,"Duration":1379210,"SoundDuration":1379210,"Delta":150849651},{"NoteNumber":64,"Velocity":52,"Duration":211896,"SoundDuration":211896,"Delta":151072700},{"NoteNumber":67,"Velocity":52,"Duration":211896,"SoundDuration":211896,"Delta":151072700},{"NoteNumber":49,"Velocity":39,"Duration":211896,"SoundDuration":211896,"Delta":151072700},{"NoteNumber":51,"Velocity":46,"Duration":211896,"SoundDuration":211896,"Delta":151072700},{"NoteNumber":46,"Velocity":39,"Duration":211896,"SoundDuration":211896,"Delta":151072700},{"NoteNumber":75,"Velocity":84,"Duration":933113,"SoundDuration":933113,"Delta":151295748},{"NoteNumber":51,"Velocity":46,"Duration":203571,"SoundDuration":203571,"Delta":151295748},{"NoteNumber":49,"Velocity":39,"Duration":203571,"SoundDuration":203571,"Delta":151295748},{"NoteNumber":46,"Velocity":39,"Duration":203571,"SoundDuration":203571,"Delta":151295748},{"NoteNumber":63,"Velocity":52,"Duration":204183,"SoundDuration":204183,"Delta":151510034},{"NoteNumber":67,"Velocity":52,"Duration":204183,"SoundDuration":204183,"Delta":151510034},{"NoteNumber":51,"Velocity":46,"Duration":204183,"SoundDuration":204183,"Delta":151510034},{"NoteNumber":49,"Velocity":39,"Duration":204183,"SoundDuration":204183,"Delta":151510034},{"NoteNumber":46,"Velocity":39,"Duration":204183,"SoundDuration":204183,"Delta":151510034},{"NoteNumber":63,"Velocity":52,"Duration":238493,"SoundDuration":238493,"Delta":151726770},{"NoteNumber":67,"Velocity":52,"Duration":238493,"SoundDuration":238493,"Delta":151726770},{"NoteNumber":51,"Velocity":45,"Duration":238493,"SoundDuration":238493,"Delta":151726770},{"NoteNumber":49,"Velocity":45,"Duration":238493,"SoundDuration":238493,"Delta":151726770},{"NoteNumber":46,"Velocity":39,"Duration":238493,"SoundDuration":238493,"Delta":151726770},{"NoteNumber":63,"Velocity":52,"Duration":238493,"SoundDuration":238493,"Delta":151977816},{"NoteNumber":67,"Velocity":52,"Duration":238493,"SoundDuration":238493,"Delta":151977816},{"NoteNumber":51,"Velocity":45,"Duration":238493,"SoundDuration":238493,"Delta":151977816},{"NoteNumber":49,"Velocity":45,"Duration":238493,"SoundDuration":238493,"Delta":151977816},{"NoteNumber":46,"Velocity":45,"Duration":238493,"SoundDuration":238493,"Delta":151977816},{"NoteNumber":68,"Velocity":73,"Duration":1362155,"SoundDuration":1362155,"Delta":152228862},{"NoteNumber":44,"Velocity":52,"Duration":1362155,"SoundDuration":1362155,"Delta":152228862},{"NoteNumber":59,"Velocity":26,"Duration":211110,"SoundDuration":211110,"Delta":152479908},{"NoteNumber":63,"Velocity":26,"Duration":211110,"SoundDuration":211110,"Delta":152479908},{"NoteNumber":51,"Velocity":26,"Duration":211110,"SoundDuration":211110,"Delta":152479908},{"NoteNumber":47,"Velocity":22,"Duration":211110,"SoundDuration":211110,"Delta":152479908},{"NoteNumber":59,"Velocity":26,"Duration":211110,"SoundDuration":211110,"Delta":152702130},{"NoteNumber":63,"Velocity":26,"Duration":211110,"SoundDuration":211110,"Delta":152702130},{"NoteNumber":51,"Velocity":26,"Duration":211110,"SoundDuration":211110,"Delta":152702130},{"NoteNumber":47,"Velocity":22,"Duration":211110,"SoundDuration":211110,"Delta":152702130},{"NoteNumber":59,"Velocity":26,"Duration":211110,"SoundDuration":211110,"Delta":152924352},{"NoteNumber":63,"Velocity":26,"Duration":211110,"SoundDuration":211110,"Delta":152924352},{"NoteNumber":51,"Velocity":26,"Duration":211110,"SoundDuration":211110,"Delta":152924352},{"NoteNumber":47,"Velocity":22,"Duration":211110,"SoundDuration":211110,"Delta":152924352},{"NoteNumber":59,"Velocity":26,"Duration":211110,"SoundDuration":211110,"Delta":153146574},{"NoteNumber":63,"Velocity":26,"Duration":211110,"SoundDuration":211110,"Delta":153146574},{"NoteNumber":51,"Velocity":26,"Duration":211110,"SoundDuration":211110,"Delta":153146574},{"NoteNumber":47,"Velocity":26,"Duration":211110,"SoundDuration":211110,"Delta":153146574},{"NoteNumber":59,"Velocity":26,"Duration":211110,"SoundDuration":211110,"Delta":153368796},{"NoteNumber":63,"Velocity":26,"Duration":211110,"SoundDuration":211110,"Delta":153368796},{"NoteNumber":51,"Velocity":26,"Duration":211110,"SoundDuration":211110,"Delta":153368796},{"NoteNumber":47,"Velocity":22,"Duration":211110,"SoundDuration":211110,"Delta":153368796},{"NoteNumber":68,"Velocity":52,"Duration":1412559,"SoundDuration":1412559,"Delta":153591018},{"NoteNumber":44,"Velocity":52,"Duration":1412559,"SoundDuration":1412559,"Delta":153591018},{"NoteNumber":60,"Velocity":24,"Duration":211110,"SoundDuration":211110,"Delta":153813240},{"NoteNumber":66,"Velocity":24,"Duration":211110,"SoundDuration":211110,"Delta":153813240},{"NoteNumber":63,"Velocity":24,"Duration":211110,"SoundDuration":211110,"Delta":153813240},{"NoteNumber":51,"Velocity":22,"Duration":211110,"SoundDuration":211110,"Delta":153813240},{"NoteNumber":54,"Velocity":26,"Duration":211110,"SoundDuration":211110,"Delta":153813240},{"NoteNumber":60,"Velocity":28,"Duration":211110,"SoundDuration":211110,"Delta":154035462},{"NoteNumber":63,"Velocity":28,"Duration":211110,"SoundDuration":211110,"Delta":154035462},{"NoteNumber":66,"Velocity":28,"Duration":211110,"SoundDuration":211110,"Delta":154035462},{"NoteNumber":54,"Velocity":29,"Duration":211110,"SoundDuration":211110,"Delta":154035462},{"NoteNumber":51,"Velocity":24,"Duration":211110,"SoundDuration":211110,"Delta":154035462},{"NoteNumber":60,"Velocity":35,"Duration":211110,"SoundDuration":211110,"Delta":154257684},{"NoteNumber":63,"Velocity":35,"Duration":211110,"SoundDuration":211110,"Delta":154257684},{"NoteNumber":66,"Velocity":35,"Duration":211110,"SoundDuration":211110,"Delta":154257684},{"NoteNumber":54,"Velocity":35,"Duration":211110,"SoundDuration":211110,"Delta":154257684},{"NoteNumber":51,"Velocity":29,"Duration":211110,"SoundDuration":211110,"Delta":154257684},{"NoteNumber":60,"Velocity":30,"Duration":247826,"SoundDuration":247826,"Delta":154481838},{"NoteNumber":63,"Velocity":30,"Duration":247826,"SoundDuration":247826,"Delta":154481838},{"NoteNumber":66,"Velocity":30,"Duration":247826,"SoundDuration":247826,"Delta":154481838},{"NoteNumber":54,"Velocity":35,"Duration":247826,"SoundDuration":247826,"Delta":154481838},{"NoteNumber":51,"Velocity":29,"Duration":247826,"SoundDuration":247826,"Delta":154481838},{"NoteNumber":60,"Velocity":26,"Duration":247826,"SoundDuration":247826,"Delta":154742708},{"NoteNumber":63,"Velocity":26,"Duration":247826,"SoundDuration":247826,"Delta":154742708},{"NoteNumber":66,"Velocity":26,"Duration":247826,"SoundDuration":247826,"Delta":154742708},{"NoteNumber":54,"Velocity":29,"Duration":247826,"SoundDuration":247826,"Delta":154742708},{"NoteNumber":51,"Velocity":24,"Duration":247826,"SoundDuration":247826,"Delta":154742708},{"NoteNumber":68,"Velocity":61,"Duration":1346902,"SoundDuration":1346902,"Delta":155003577},{"NoteNumber":37,"Velocity":42,"Duration":217557,"SoundDuration":217557,"Delta":155003577},{"NoteNumber":56,"Velocity":27,"Duration":217557,"SoundDuration":217557,"Delta":155232585},{"NoteNumber":64,"Velocity":27,"Duration":217557,"SoundDuration":217557,"Delta":155232585},{"NoteNumber":52,"Velocity":26,"Duration":217557,"SoundDuration":217557,"Delta":155232585},{"NoteNumber":49,"Velocity":22,"Duration":217557,"SoundDuration":217557,"Delta":155232585},{"NoteNumber":44,"Velocity":22,"Duration":217557,"SoundDuration":217557,"Delta":155232585},{"NoteNumber":56,"Velocity":26,"Duration":211110,"SoundDuration":211110,"Delta":155461592},{"NoteNumber":64,"Velocity":26,"Duration":211110,"SoundDuration":211110,"Delta":155461592},{"NoteNumber":44,"Velocity":22,"Duration":211110,"SoundDuration":211110,"Delta":155461592},{"NoteNumber":49,"Velocity":22,"Duration":211110,"SoundDuration":211110,"Delta":155461592},{"NoteNumber":52,"Velocity":26,"Duration":211110,"SoundDuration":211110,"Delta":155461592},{"NoteNumber":56,"Velocity":26,"Duration":211110,"SoundDuration":211110,"Delta":155683814},{"NoteNumber":64,"Velocity":26,"Duration":211110,"SoundDuration":211110,"Delta":155683814},{"NoteNumber":44,"Velocity":22,"Duration":211110,"SoundDuration":211110,"Delta":155683814},{"NoteNumber":49,"Velocity":22,"Duration":211110,"SoundDuration":211110,"Delta":155683814},{"NoteNumber":52,"Velocity":26,"Duration":211110,"SoundDuration":211110,"Delta":155683814},{"NoteNumber":56,"Velocity":26,"Duration":211110,"SoundDuration":211110,"Delta":155906036},{"NoteNumber":64,"Velocity":26,"Duration":211110,"SoundDuration":211110,"Delta":155906036},{"NoteNumber":44,"Velocity":22,"Duration":211110,"SoundDuration":211110,"Delta":155906036},{"NoteNumber":49,"Velocity":22,"Duration":211110,"SoundDuration":211110,"Delta":155906036},{"NoteNumber":52,"Velocity":26,"Duration":211110,"SoundDuration":211110,"Delta":155906036},{"NoteNumber":56,"Velocity":26,"Duration":211110,"SoundDuration":211110,"Delta":156128258},{"NoteNumber":64,"Velocity":26,"Duration":211110,"SoundDuration":211110,"Delta":156128258},{"NoteNumber":44,"Velocity":22,"Duration":211110,"SoundDuration":211110,"Delta":156128258},{"NoteNumber":49,"Velocity":22,"Duration":211110,"SoundDuration":211110,"Delta":156128258},{"NoteNumber":52,"Velocity":26,"Duration":211110,"SoundDuration":211110,"Delta":156128258},{"NoteNumber":68,"Velocity":61,"Duration":428571,"SoundDuration":428571,"Delta":156350480},{"NoteNumber":44,"Velocity":22,"Duration":203571,"SoundDuration":203571,"Delta":156350480},{"NoteNumber":49,"Velocity":22,"Duration":203571,"SoundDuration":203571,"Delta":156350480},{"NoteNumber":52,"Velocity":26,"Duration":203571,"SoundDuration":203571,"Delta":156350480},{"NoteNumber":56,"Velocity":26,"Duration":203571,"SoundDuration":203571,"Delta":156564766},{"NoteNumber":64,"Velocity":26,"Duration":203571,"SoundDuration":203571,"Delta":156564766},{"NoteNumber":44,"Velocity":22,"Duration":203571,"SoundDuration":203571,"Delta":156564766},{"NoteNumber":49,"Velocity":22,"Duration":203571,"SoundDuration":203571,"Delta":156564766},{"NoteNumber":52,"Velocity":26,"Duration":203571,"SoundDuration":203571,"Delta":156564766},{"NoteNumber":69,"Velocity":59,"Duration":428571,"SoundDuration":428571,"Delta":156779051},{"NoteNumber":44,"Velocity":22,"Duration":203571,"SoundDuration":203571,"Delta":156779051},{"NoteNumber":49,"Velocity":22,"Duration":203571,"SoundDuration":203571,"Delta":156779051},{"NoteNumber":52,"Velocity":26,"Duration":203571,"SoundDuration":203571,"Delta":156779051},{"NoteNumber":57,"Velocity":27,"Duration":203571,"SoundDuration":203571,"Delta":156993337},{"NoteNumber":64,"Velocity":27,"Duration":203571,"SoundDuration":203571,"Delta":156993337},{"NoteNumber":44,"Velocity":22,"Duration":203571,"SoundDuration":203571,"Delta":156993337},{"NoteNumber":49,"Velocity":22,"Duration":203571,"SoundDuration":203571,"Delta":156993337},{"NoteNumber":52,"Velocity":26,"Duration":203571,"SoundDuration":203571,"Delta":156993337},{"NoteNumber":68,"Velocity":59,"Duration":495905,"SoundDuration":495905,"Delta":157207622},{"NoteNumber":44,"Velocity":22,"Duration":235358,"SoundDuration":235358,"Delta":157207622},{"NoteNumber":49,"Velocity":22,"Duration":235358,"SoundDuration":235358,"Delta":157207622},{"NoteNumber":52,"Velocity":26,"Duration":235358,"SoundDuration":235358,"Delta":157207622},{"NoteNumber":56,"Velocity":26,"Duration":236514,"SoundDuration":236514,"Delta":157455429},{"NoteNumber":64,"Velocity":26,"Duration":236514,"SoundDuration":236514,"Delta":157455429},{"NoteNumber":49,"Velocity":22,"Duration":236514,"SoundDuration":236514,"Delta":157455429},{"NoteNumber":44,"Velocity":22,"Duration":236514,"SoundDuration":236514,"Delta":157455429},{"NoteNumber":52,"Velocity":26,"Duration":236514,"SoundDuration":236514,"Delta":157455429},{"NoteNumber":69,"Velocity":60,"Duration":1338290,"SoundDuration":1338290,"Delta":157703528},{"NoteNumber":36,"Velocity":41,"Duration":211896,"SoundDuration":211896,"Delta":157703528},{"NoteNumber":57,"Velocity":26,"Duration":211896,"SoundDuration":211896,"Delta":157926576},{"NoteNumber":66,"Velocity":26,"Duration":211896,"SoundDuration":211896,"Delta":157926576},{"NoteNumber":51,"Velocity":22,"Duration":211896,"SoundDuration":211896,"Delta":157926576},{"NoteNumber":54,"Velocity":26,"Duration":211896,"SoundDuration":211896,"Delta":157926576},{"NoteNumber":44,"Velocity":22,"Duration":211896,"SoundDuration":211896,"Delta":157926576},{"NoteNumber":57,"Velocity":26,"Duration":211896,"SoundDuration":211896,"Delta":158149625},{"NoteNumber":66,"Velocity":26,"Duration":211896,"SoundDuration":211896,"Delta":158149625},{"NoteNumber":44,"Velocity":22,"Duration":211896,"SoundDuration":211896,"Delta":158149625},{"NoteNumber":51,"Velocity":22,"Duration":211896,"SoundDuration":211896,"Delta":158149625},{"NoteNumber":54,"Velocity":26,"Duration":211896,"SoundDuration":211896,"Delta":158149625},{"NoteNumber":57,"Velocity":26,"Duration":211896,"SoundDuration":211896,"Delta":158372673},{"NoteNumber":66,"Velocity":26,"Duration":211896,"SoundDuration":211896,"Delta":158372673},{"NoteNumber":44,"Velocity":22,"Duration":211896,"SoundDuration":211896,"Delta":158372673},{"NoteNumber":51,"Velocity":22,"Duration":211896,"SoundDuration":211896,"Delta":158372673},{"NoteNumber":54,"Velocity":26,"Duration":211896,"SoundDuration":211896,"Delta":158372673},{"NoteNumber":57,"Velocity":26,"Duration":211896,"SoundDuration":211896,"Delta":158595722},{"NoteNumber":66,"Velocity":26,"Duration":211896,"SoundDuration":211896,"Delta":158595722},{"NoteNumber":44,"Velocity":22,"Duration":211896,"SoundDuration":211896,"Delta":158595722},{"NoteNumber":51,"Velocity":22,"Duration":211896,"SoundDuration":211896,"Delta":158595722},{"NoteNumber":54,"Velocity":26,"Duration":211896,"SoundDuration":211896,"Delta":158595722},{"NoteNumber":57,"Velocity":26,"Duration":211896,"SoundDuration":211896,"Delta":158818770},{"NoteNumber":66,"Velocity":26,"Duration":211896,"SoundDuration":211896,"Delta":158818770},{"NoteNumber":44,"Velocity":22,"Duration":211896,"SoundDuration":211896,"Delta":158818770},{"NoteNumber":51,"Velocity":22,"Duration":211896,"SoundDuration":211896,"Delta":158818770},{"NoteNumber":54,"Velocity":26,"Duration":211896,"SoundDuration":211896,"Delta":158818770},{"NoteNumber":68,"Velocity":59,"Duration":1338290,"SoundDuration":1338290,"Delta":159041819},{"NoteNumber":44,"Velocity":22,"Duration":211896,"SoundDuration":211896,"Delta":159041819},{"NoteNumber":51,"Velocity":22,"Duration":211896,"SoundDuration":211896,"Delta":159041819},{"NoteNumber":54,"Velocity":26,"Duration":211896,"SoundDuration":211896,"Delta":159041819},{"NoteNumber":56,"Velocity":28,"Duration":211896,"SoundDuration":211896,"Delta":159264867},{"NoteNumber":66,"Velocity":28,"Duration":211896,"SoundDuration":211896,"Delta":159264867},{"NoteNumber":44,"Velocity":22,"Duration":211896,"SoundDuration":211896,"Delta":159264867},{"NoteNumber":51,"Velocity":22,"Duration":211896,"SoundDuration":211896,"Delta":159264867},{"NoteNumber":54,"Velocity":26,"Duration":211896,"SoundDuration":211896,"Delta":159264867},{"NoteNumber":56,"Velocity":29,"Duration":211896,"SoundDuration":211896,"Delta":159487916},{"NoteNumber":66,"Velocity":29,"Duration":211896,"SoundDuration":211896,"Delta":159487916},{"NoteNumber":44,"Velocity":22,"Duration":211896,"SoundDuration":211896,"Delta":159487916},{"NoteNumber":51,"Velocity":22,"Duration":211896,"SoundDuration":211896,"Delta":159487916},{"NoteNumber":54,"Velocity":26,"Duration":211896,"SoundDuration":211896,"Delta":159487916},{"NoteNumber":56,"Velocity":29,"Duration":211896,"SoundDuration":211896,"Delta":159710964},{"NoteNumber":66,"Velocity":29,"Duration":211896,"SoundDuration":211896,"Delta":159710964},{"NoteNumber":44,"Velocity":22,"Duration":211896,"SoundDuration":211896,"Delta":159710964},{"NoteNumber":51,"Velocity":22,"Duration":211896,"SoundDuration":211896,"Delta":159710964},{"NoteNumber":54,"Velocity":26,"Duration":211896,"SoundDuration":211896,"Delta":159710964},{"NoteNumber":56,"Velocity":29,"Duration":211896,"SoundDuration":211896,"Delta":159934013},{"NoteNumber":66,"Velocity":29,"Duration":211896,"SoundDuration":211896,"Delta":159934013},{"NoteNumber":51,"Velocity":22,"Duration":211896,"SoundDuration":211896,"Delta":159934013},{"NoteNumber":44,"Velocity":22,"Duration":211896,"SoundDuration":211896,"Delta":159934013},{"NoteNumber":54,"Velocity":26,"Duration":211896,"SoundDuration":211896,"Delta":159934013},{"NoteNumber":56,"Velocity":29,"Duration":211896,"SoundDuration":211896,"Delta":160157061},{"NoteNumber":66,"Velocity":29,"Duration":211896,"SoundDuration":211896,"Delta":160157061},{"NoteNumber":44,"Velocity":22,"Duration":211896,"SoundDuration":211896,"Delta":160157061},{"NoteNumber":51,"Velocity":22,"Duration":211896,"SoundDuration":211896,"Delta":160157061},{"NoteNumber":54,"Velocity":26,"Duration":211896,"SoundDuration":211896,"Delta":160157061},{"NoteNumber":68,"Velocity":60,"Duration":1338290,"SoundDuration":1338290,"Delta":160380110},{"NoteNumber":37,"Velocity":40,"Duration":211896,"SoundDuration":211896,"Delta":160380110},{"NoteNumber":56,"Velocity":26,"Duration":211896,"SoundDuration":211896,"Delta":160603158},{"NoteNumber":64,"Velocity":26,"Duration":211896,"SoundDuration":211896,"Delta":160603158},{"NoteNumber":52,"Velocity":26,"Duration":211896,"SoundDuration":211896,"Delta":160603158},{"NoteNumber":49,"Velocity":22,"Duration":211896,"SoundDuration":211896,"Delta":160603158},{"NoteNumber":44,"Velocity":22,"Duration":211896,"SoundDuration":211896,"Delta":160603158},{"NoteNumber":56,"Velocity":26,"Duration":211896,"SoundDuration":211896,"Delta":160826207},{"NoteNumber":64,"Velocity":26,"Duration":211896,"SoundDuration":211896,"Delta":160826207},{"NoteNumber":44,"Velocity":22,"Duration":211896,"SoundDuration":211896,"Delta":160826207},{"NoteNumber":49,"Velocity":22,"Duration":211896,"SoundDuration":211896,"Delta":160826207},{"NoteNumber":52,"Velocity":26,"Duration":211896,"SoundDuration":211896,"Delta":160826207},{"NoteNumber":56,"Velocity":26,"Duration":211896,"SoundDuration":211896,"Delta":161049255},{"NoteNumber":64,"Velocity":26,"Duration":211896,"SoundDuration":211896,"Delta":161049255},{"NoteNumber":44,"Velocity":22,"Duration":211896,"SoundDuration":211896,"Delta":161049255},{"NoteNumber":49,"Velocity":22,"Duration":211896,"SoundDuration":211896,"Delta":161049255},{"NoteNumber":52,"Velocity":26,"Duration":211896,"SoundDuration":211896,"Delta":161049255},{"NoteNumber":56,"Velocity":26,"Duration":211896,"SoundDuration":211896,"Delta":161272304},{"NoteNumber":64,"Velocity":26,"Duration":211896,"SoundDuration":211896,"Delta":161272304},{"NoteNumber":44,"Velocity":22,"Duration":211896,"SoundDuration":211896,"Delta":161272304},{"NoteNumber":49,"Velocity":22,"Duration":211896,"SoundDuration":211896,"Delta":161272304},{"NoteNumber":52,"Velocity":26,"Duration":211896,"SoundDuration":211896,"Delta":161272304},{"NoteNumber":56,"Velocity":27,"Duration":211896,"SoundDuration":211896,"Delta":161495352},{"NoteNumber":64,"Velocity":27,"Duration":211896,"SoundDuration":211896,"Delta":161495352},{"NoteNumber":44,"Velocity":22,"Duration":211896,"SoundDuration":211896,"Delta":161495352},{"NoteNumber":49,"Velocity":22,"Duration":211896,"SoundDuration":211896,"Delta":161495352},{"NoteNumber":52,"Velocity":26,"Duration":211896,"SoundDuration":211896,"Delta":161495352},{"NoteNumber":76,"Velocity":70,"Duration":428863,"SoundDuration":428863,"Delta":161718401},{"NoteNumber":44,"Velocity":22,"Duration":203863,"SoundDuration":203863,"Delta":161718401},{"NoteNumber":49,"Velocity":22,"Duration":203863,"SoundDuration":203863,"Delta":161718401},{"NoteNumber":52,"Velocity":26,"Duration":203863,"SoundDuration":203863,"Delta":161718401},{"NoteNumber":64,"Velocity":28,"Duration":203571,"SoundDuration":203571,"Delta":161932978},{"NoteNumber":68,"Velocity":28,"Duration":203571,"SoundDuration":203571,"Delta":161932978},{"NoteNumber":44,"Velocity":22,"Duration":203571,"SoundDuration":203571,"Delta":161932978},{"NoteNumber":49,"Velocity":22,"Duration":203571,"SoundDuration":203571,"Delta":161932978},{"NoteNumber":52,"Velocity":26,"Duration":203571,"SoundDuration":203571,"Delta":161932978},{"NoteNumber":75,"Velocity":64,"Duration":428571,"SoundDuration":428571,"Delta":162147264},{"NoteNumber":44,"Velocity":22,"Duration":203571,"SoundDuration":203571,"Delta":162147264},{"NoteNumber":49,"Velocity":22,"Duration":203571,"SoundDuration":203571,"Delta":162147264},{"NoteNumber":52,"Velocity":26,"Duration":203571,"SoundDuration":203571,"Delta":162147264},{"NoteNumber":63,"Velocity":27,"Duration":203571,"SoundDuration":203571,"Delta":162361549},{"NoteNumber":68,"Velocity":27,"Duration":203571,"SoundDuration":203571,"Delta":162361549},{"NoteNumber":44,"Velocity":22,"Duration":203571,"SoundDuration":203571,"Delta":162361549},{"NoteNumber":49,"Velocity":22,"Duration":203571,"SoundDuration":203571,"Delta":162361549},{"NoteNumber":52,"Velocity":26,"Duration":203571,"SoundDuration":203571,"Delta":162361549},{"NoteNumber":73,"Velocity":60,"Duration":522426,"SoundDuration":522426,"Delta":162575835},{"NoteNumber":44,"Velocity":22,"Duration":247317,"SoundDuration":247317,"Delta":162575835},{"NoteNumber":49,"Velocity":22,"Duration":247317,"SoundDuration":247317,"Delta":162575835},{"NoteNumber":52,"Velocity":26,"Duration":247317,"SoundDuration":247317,"Delta":162575835},{"NoteNumber":61,"Velocity":27,"Duration":248908,"SoundDuration":248908,"Delta":162836253},{"NoteNumber":68,"Velocity":27,"Duration":248908,"SoundDuration":248908,"Delta":162836253},{"NoteNumber":49,"Velocity":22,"Duration":248908,"SoundDuration":248908,"Delta":162836253},{"NoteNumber":44,"Velocity":22,"Duration":248908,"SoundDuration":248908,"Delta":162836253},{"NoteNumber":52,"Velocity":26,"Duration":248908,"SoundDuration":248908,"Delta":162836253},{"NoteNumber":73,"Velocity":60,"Duration":1334658,"SoundDuration":1334658,"Delta":163098261},{"NoteNumber":39,"Velocity":39,"Duration":212437,"SoundDuration":212437,"Delta":163098261},{"NoteNumber":61,"Velocity":27,"Duration":211110,"SoundDuration":211110,"Delta":163321809},{"NoteNumber":68,"Velocity":27,"Duration":211110,"SoundDuration":211110,"Delta":163321809},{"NoteNumber":51,"Velocity":22,"Duration":211110,"SoundDuration":211110,"Delta":163321809},{"NoteNumber":54,"Velocity":26,"Duration":211110,"SoundDuration":211110,"Delta":163321809},{"NoteNumber":44,"Velocity":22,"Duration":211110,"SoundDuration":211110,"Delta":163321809},{"NoteNumber":61,"Velocity":27,"Duration":211110,"SoundDuration":211110,"Delta":163544031},{"NoteNumber":68,"Velocity":27,"Duration":211110,"SoundDuration":211110,"Delta":163544031},{"NoteNumber":44,"Velocity":22,"Duration":211110,"SoundDuration":211110,"Delta":163544031},{"NoteNumber":51,"Velocity":22,"Duration":211110,"SoundDuration":211110,"Delta":163544031},{"NoteNumber":54,"Velocity":26,"Duration":211110,"SoundDuration":211110,"Delta":163544031},{"NoteNumber":61,"Velocity":27,"Duration":211110,"SoundDuration":211110,"Delta":163766253},{"NoteNumber":68,"Velocity":27,"Duration":211110,"SoundDuration":211110,"Delta":163766253},{"NoteNumber":44,"Velocity":22,"Duration":211110,"SoundDuration":211110,"Delta":163766253},{"NoteNumber":51,"Velocity":22,"Duration":211110,"SoundDuration":211110,"Delta":163766253},{"NoteNumber":54,"Velocity":26,"Duration":211110,"SoundDuration":211110,"Delta":163766253},{"NoteNumber":61,"Velocity":27,"Duration":211110,"SoundDuration":211110,"Delta":163988475},{"NoteNumber":68,"Velocity":27,"Duration":211110,"SoundDuration":211110,"Delta":163988475},{"NoteNumber":44,"Velocity":22,"Duration":211110,"SoundDuration":211110,"Delta":163988475},{"NoteNumber":51,"Velocity":22,"Duration":211110,"SoundDuration":211110,"Delta":163988475},{"NoteNumber":54,"Velocity":26,"Duration":211110,"SoundDuration":211110,"Delta":163988475},{"NoteNumber":61,"Velocity":27,"Duration":211110,"SoundDuration":211110,"Delta":164210697},{"NoteNumber":68,"Velocity":27,"Duration":211110,"SoundDuration":211110,"Delta":164210697},{"NoteNumber":44,"Velocity":22,"Duration":211110,"SoundDuration":211110,"Delta":164210697},{"NoteNumber":51,"Velocity":22,"Duration":211110,"SoundDuration":211110,"Delta":164210697},{"NoteNumber":54,"Velocity":26,"Duration":211110,"SoundDuration":211110,"Delta":164210697},{"NoteNumber":72,"Velocity":61,"Duration":1333956,"SoundDuration":1333956,"Delta":164432919},{"NoteNumber":44,"Velocity":22,"Duration":211110,"SoundDuration":211110,"Delta":164432919},{"NoteNumber":51,"Velocity":22,"Duration":211110,"SoundDuration":211110,"Delta":164432919},{"NoteNumber":54,"Velocity":26,"Duration":211110,"SoundDuration":211110,"Delta":164432919},{"NoteNumber":60,"Velocity":27,"Duration":211110,"SoundDuration":211110,"Delta":164655141},{"NoteNumber":68,"Velocity":27,"Duration":211110,"SoundDuration":211110,"Delta":164655141},{"NoteNumber":44,"Velocity":22,"Duration":211110,"SoundDuration":211110,"Delta":164655141},{"NoteNumber":51,"Velocity":22,"Duration":211110,"SoundDuration":211110,"Delta":164655141},{"NoteNumber":54,"Velocity":26,"Duration":211110,"SoundDuration":211110,"Delta":164655141},{"NoteNumber":60,"Velocity":27,"Duration":211110,"SoundDuration":211110,"Delta":164877363},{"NoteNumber":68,"Velocity":27,"Duration":211110,"SoundDuration":211110,"Delta":164877363},{"NoteNumber":44,"Velocity":22,"Duration":211110,"SoundDuration":211110,"Delta":164877363},{"NoteNumber":51,"Velocity":22,"Duration":211110,"SoundDuration":211110,"Delta":164877363},{"NoteNumber":54,"Velocity":26,"Duration":211110,"SoundDuration":211110,"Delta":164877363},{"NoteNumber":60,"Velocity":27,"Duration":211110,"SoundDuration":211110,"Delta":165099585},{"NoteNumber":68,"Velocity":27,"Duration":211110,"SoundDuration":211110,"Delta":165099585},{"NoteNumber":44,"Velocity":22,"Duration":211110,"SoundDuration":211110,"Delta":165099585},{"NoteNumber":51,"Velocity":22,"Duration":211110,"SoundDuration":211110,"Delta":165099585},{"NoteNumber":54,"Velocity":26,"Duration":211110,"SoundDuration":211110,"Delta":165099585},{"NoteNumber":60,"Velocity":27,"Duration":211110,"SoundDuration":211110,"Delta":165321807},{"NoteNumber":68,"Velocity":27,"Duration":211110,"SoundDuration":211110,"Delta":165321807},{"NoteNumber":51,"Velocity":22,"Duration":211110,"SoundDuration":211110,"Delta":165321807},{"NoteNumber":44,"Velocity":22,"Duration":211110,"SoundDuration":211110,"Delta":165321807},{"NoteNumber":54,"Velocity":26,"Duration":211110,"SoundDuration":211110,"Delta":165321807},{"NoteNumber":60,"Velocity":27,"Duration":211110,"SoundDuration":211110,"Delta":165544029},{"NoteNumber":68,"Velocity":27,"Duration":211110,"SoundDuration":211110,"Delta":165544029},{"NoteNumber":44,"Velocity":22,"Duration":211110,"SoundDuration":211110,"Delta":165544029},{"NoteNumber":51,"Velocity":22,"Duration":211110,"SoundDuration":211110,"Delta":165544029},{"NoteNumber":54,"Velocity":26,"Duration":211110,"SoundDuration":211110,"Delta":165544029},{"NoteNumber":72,"Velocity":58,"Duration":481064,"SoundDuration":481064,"Delta":165766876},{"NoteNumber":40,"Velocity":42,"Duration":228915,"SoundDuration":228915,"Delta":165766876},{"NoteNumber":60,"Velocity":35,"Duration":240100,"SoundDuration":240100,"Delta":166007840},{"NoteNumber":69,"Velocity":35,"Duration":240100,"SoundDuration":240100,"Delta":166007840},{"NoteNumber":52,"Velocity":35,"Duration":228915,"SoundDuration":228915,"Delta":166007840},{"NoteNumber":45,"Velocity":29,"Duration":228915,"SoundDuration":228915,"Delta":166007840},{"NoteNumber":73,"Velocity":68,"Duration":1290323,"SoundDuration":1290323,"Delta":166247940},{"NoteNumber":45,"Velocity":29,"Duration":204301,"SoundDuration":204301,"Delta":166247940},{"NoteNumber":52,"Velocity":35,"Duration":204301,"SoundDuration":204301,"Delta":166247940},{"NoteNumber":61,"Velocity":35,"Duration":204301,"SoundDuration":204301,"Delta":166462994},{"NoteNumber":69,"Velocity":35,"Duration":204301,"SoundDuration":204301,"Delta":166462994},{"NoteNumber":45,"Velocity":29,"Duration":204301,"SoundDuration":204301,"Delta":166462994},{"NoteNumber":52,"Velocity":35,"Duration":204301,"SoundDuration":204301,"Delta":166462994},{"NoteNumber":61,"Velocity":35,"Duration":204301,"SoundDuration":204301,"Delta":166678048},{"NoteNumber":69,"Velocity":35,"Duration":204301,"SoundDuration":204301,"Delta":166678048},{"NoteNumber":45,"Velocity":29,"Duration":204301,"SoundDuration":204301,"Delta":166678048},{"NoteNumber":52,"Velocity":35,"Duration":204301,"SoundDuration":204301,"Delta":166678048},{"NoteNumber":61,"Velocity":35,"Duration":204301,"SoundDuration":204301,"Delta":166893102},{"NoteNumber":69,"Velocity":35,"Duration":204301,"SoundDuration":204301,"Delta":166893102},{"NoteNumber":45,"Velocity":29,"Duration":204301,"SoundDuration":204301,"Delta":166893102},{"NoteNumber":52,"Velocity":35,"Duration":204301,"SoundDuration":204301,"Delta":166893102},{"NoteNumber":61,"Velocity":35,"Duration":215054,"SoundDuration":215054,"Delta":167108156},{"NoteNumber":69,"Velocity":35,"Duration":215054,"SoundDuration":215054,"Delta":167108156},{"NoteNumber":52,"Velocity":35,"Duration":215054,"SoundDuration":215054,"Delta":167108156},{"NoteNumber":45,"Velocity":29,"Duration":215054,"SoundDuration":215054,"Delta":167108156},{"NoteNumber":61,"Velocity":35,"Duration":215053,"SoundDuration":215053,"Delta":167323210},{"NoteNumber":69,"Velocity":35,"Duration":215053,"SoundDuration":215053,"Delta":167323210},{"NoteNumber":45,"Velocity":29,"Duration":215053,"SoundDuration":215053,"Delta":167323210},{"NoteNumber":52,"Velocity":35,"Duration":215053,"SoundDuration":215053,"Delta":167323210},{"NoteNumber":73,"Velocity":70,"Duration":430108,"SoundDuration":430108,"Delta":167538264},{"NoteNumber":40,"Velocity":35,"Duration":430108,"SoundDuration":430108,"Delta":167538264},{"NoteNumber":61,"Velocity":35,"Duration":215054,"SoundDuration":215054,"Delta":167753318},{"NoteNumber":69,"Velocity":35,"Duration":215054,"SoundDuration":215054,"Delta":167753318},{"NoteNumber":52,"Velocity":35,"Duration":215054,"SoundDuration":215054,"Delta":167753318},{"NoteNumber":45,"Velocity":29,"Duration":215054,"SoundDuration":215054,"Delta":167753318},{"NoteNumber":73,"Velocity":69,"Duration":430939,"SoundDuration":430939,"Delta":167968372},{"NoteNumber":40,"Velocity":35,"Duration":430939,"SoundDuration":430939,"Delta":167968372},{"NoteNumber":61,"Velocity":35,"Duration":215885,"SoundDuration":215885,"Delta":168183426},{"NoteNumber":69,"Velocity":35,"Duration":215885,"SoundDuration":215885,"Delta":168183426},{"NoteNumber":52,"Velocity":35,"Duration":215885,"SoundDuration":215885,"Delta":168183426},{"NoteNumber":45,"Velocity":29,"Duration":215885,"SoundDuration":215885,"Delta":168183426},{"NoteNumber":73,"Velocity":70,"Duration":479999,"SoundDuration":479999,"Delta":168399312},{"NoteNumber":35,"Velocity":52,"Duration":227999,"SoundDuration":227999,"Delta":168399312},{"NoteNumber":61,"Velocity":44,"Duration":228000,"SoundDuration":228000,"Delta":168639312},{"NoteNumber":68,"Velocity":44,"Duration":228000,"SoundDuration":228000,"Delta":168639312},{"NoteNumber":47,"Velocity":44,"Duration":228000,"SoundDuration":228000,"Delta":168639312},{"NoteNumber":40,"Velocity":37,"Duration":228000,"SoundDuration":228000,"Delta":168639312},{"NoteNumber":74,"Velocity":78,"Duration":1294964,"SoundDuration":1294964,"Delta":168879312},{"NoteNumber":40,"Velocity":37,"Duration":205036,"SoundDuration":205036,"Delta":168879312},{"NoteNumber":47,"Velocity":44,"Duration":205036,"SoundDuration":205036,"Delta":168879312},{"NoteNumber":62,"Velocity":44,"Duration":205036,"SoundDuration":205036,"Delta":169095139},{"NoteNumber":68,"Velocity":44,"Duration":205036,"SoundDuration":205036,"Delta":169095139},{"NoteNumber":40,"Velocity":37,"Duration":205036,"SoundDuration":205036,"Delta":169095139},{"NoteNumber":47,"Velocity":44,"Duration":205036,"SoundDuration":205036,"Delta":169095139},{"NoteNumber":62,"Velocity":44,"Duration":205036,"SoundDuration":205036,"Delta":169310967},{"NoteNumber":68,"Velocity":44,"Duration":205036,"SoundDuration":205036,"Delta":169310967},{"NoteNumber":47,"Velocity":44,"Duration":205036,"SoundDuration":205036,"Delta":169310967},{"NoteNumber":40,"Velocity":37,"Duration":205036,"SoundDuration":205036,"Delta":169310967},{"NoteNumber":62,"Velocity":44,"Duration":205036,"SoundDuration":205036,"Delta":169526794},{"NoteNumber":68,"Velocity":44,"Duration":205036,"SoundDuration":205036,"Delta":169526794},{"NoteNumber":40,"Velocity":37,"Duration":205036,"SoundDuration":205036,"Delta":169526794},{"NoteNumber":47,"Velocity":44,"Duration":205036,"SoundDuration":205036,"Delta":169526794},{"NoteNumber":62,"Velocity":44,"Duration":205036,"SoundDuration":205036,"Delta":169742622},{"NoteNumber":68,"Velocity":44,"Duration":205036,"SoundDuration":205036,"Delta":169742622},{"NoteNumber":40,"Velocity":37,"Duration":205036,"SoundDuration":205036,"Delta":169742622},{"NoteNumber":47,"Velocity":44,"Duration":205036,"SoundDuration":205036,"Delta":169742622},{"NoteNumber":62,"Velocity":44,"Duration":205036,"SoundDuration":205036,"Delta":169958449},{"NoteNumber":68,"Velocity":44,"Duration":205036,"SoundDuration":205036,"Delta":169958449},{"NoteNumber":40,"Velocity":37,"Duration":205036,"SoundDuration":205036,"Delta":169958449},{"NoteNumber":47,"Velocity":44,"Duration":205036,"SoundDuration":205036,"Delta":169958449},{"NoteNumber":74,"Velocity":80,"Duration":431655,"SoundDuration":431655,"Delta":170174277},{"NoteNumber":35,"Velocity":44,"Duration":431655,"SoundDuration":431655,"Delta":170174277},{"NoteNumber":62,"Velocity":44,"Duration":215827,"SoundDuration":215827,"Delta":170390104},{"NoteNumber":68,"Velocity":44,"Duration":215827,"SoundDuration":215827,"Delta":170390104},{"NoteNumber":40,"Velocity":37,"Duration":215827,"SoundDuration":215827,"Delta":170390104},{"NoteNumber":47,"Velocity":44,"Duration":215827,"SoundDuration":215827,"Delta":170390104},{"NoteNumber":74,"Velocity":75,"Duration":432428,"SoundDuration":432428,"Delta":170605932},{"NoteNumber":40,"Velocity":44,"Duration":432428,"SoundDuration":432428,"Delta":170605932},{"NoteNumber":62,"Velocity":44,"Duration":216601,"SoundDuration":216601,"Delta":170821759},{"NoteNumber":68,"Velocity":44,"Duration":216601,"SoundDuration":216601,"Delta":170821759},{"NoteNumber":52,"Velocity":44,"Duration":216601,"SoundDuration":216601,"Delta":170821759},{"NoteNumber":47,"Velocity":44,"Duration":216601,"SoundDuration":216601,"Delta":170821759},{"NoteNumber":76,"Velocity":88,"Duration":477262,"SoundDuration":477262,"Delta":171038361},{"NoteNumber":39,"Velocity":61,"Duration":1334696,"SoundDuration":1334696,"Delta":171038361},{"NoteNumber":64,"Velocity":51,"Duration":227091,"SoundDuration":227091,"Delta":171277405},{"NoteNumber":68,"Velocity":51,"Duration":227091,"SoundDuration":227091,"Delta":171277405},{"NoteNumber":51,"Velocity":45,"Duration":227091,"SoundDuration":227091,"Delta":171277405},{"NoteNumber":47,"Velocity":39,"Duration":227091,"SoundDuration":227091,"Delta":171277405},{"NoteNumber":75,"Velocity":83,"Duration":857434,"SoundDuration":857434,"Delta":171515624},{"NoteNumber":47,"Velocity":39,"Duration":203571,"SoundDuration":203571,"Delta":171515624},{"NoteNumber":51,"Velocity":45,"Duration":203571,"SoundDuration":203571,"Delta":171515624},{"NoteNumber":63,"Velocity":51,"Duration":203571,"SoundDuration":203571,"Delta":171729909},{"NoteNumber":68,"Velocity":51,"Duration":203571,"SoundDuration":203571,"Delta":171729909},{"NoteNumber":47,"Velocity":39,"Duration":203571,"SoundDuration":203571,"Delta":171729909},{"NoteNumber":51,"Velocity":46,"Duration":203571,"SoundDuration":203571,"Delta":171729909},{"NoteNumber":63,"Velocity":44,"Duration":203571,"SoundDuration":203571,"Delta":171944195},{"NoteNumber":68,"Velocity":44,"Duration":203571,"SoundDuration":203571,"Delta":171944195},{"NoteNumber":47,"Velocity":39,"Duration":203571,"SoundDuration":203571,"Delta":171944195},{"NoteNumber":51,"Velocity":46,"Duration":203571,"SoundDuration":203571,"Delta":171944195},{"NoteNumber":63,"Velocity":51,"Duration":203571,"SoundDuration":203571,"Delta":172158480},{"NoteNumber":68,"Velocity":51,"Duration":203571,"SoundDuration":203571,"Delta":172158480},{"NoteNumber":47,"Velocity":39,"Duration":214577,"SoundDuration":214577,"Delta":172158480},{"NoteNumber":51,"Velocity":46,"Duration":214577,"SoundDuration":214577,"Delta":172158480},{"NoteNumber":76,"Velocity":88,"Duration":446096,"SoundDuration":446096,"Delta":172373058},{"NoteNumber":39,"Velocity":61,"Duration":1379210,"SoundDuration":1379210,"Delta":172373058},{"NoteNumber":64,"Velocity":52,"Duration":211896,"SoundDuration":211896,"Delta":172596106},{"NoteNumber":67,"Velocity":52,"Duration":211896,"SoundDuration":211896,"Delta":172596106},{"NoteNumber":49,"Velocity":39,"Duration":211896,"SoundDuration":211896,"Delta":172596106},{"NoteNumber":51,"Velocity":46,"Duration":211896,"SoundDuration":211896,"Delta":172596106},{"NoteNumber":46,"Velocity":39,"Duration":211896,"SoundDuration":211896,"Delta":172596106},{"NoteNumber":75,"Velocity":83,"Duration":933113,"SoundDuration":933113,"Delta":172819155},{"NoteNumber":51,"Velocity":46,"Duration":203571,"SoundDuration":203571,"Delta":172819155},{"NoteNumber":49,"Velocity":39,"Duration":203571,"SoundDuration":203571,"Delta":172819155},{"NoteNumber":46,"Velocity":39,"Duration":203571,"SoundDuration":203571,"Delta":172819155},{"NoteNumber":63,"Velocity":52,"Duration":204183,"SoundDuration":204183,"Delta":173033440},{"NoteNumber":67,"Velocity":52,"Duration":204183,"SoundDuration":204183,"Delta":173033440},{"NoteNumber":51,"Velocity":46,"Duration":204183,"SoundDuration":204183,"Delta":173033440},{"NoteNumber":49,"Velocity":39,"Duration":204183,"SoundDuration":204183,"Delta":173033440},{"NoteNumber":46,"Velocity":39,"Duration":204183,"SoundDuration":204183,"Delta":173033440},{"NoteNumber":63,"Velocity":52,"Duration":238493,"SoundDuration":238493,"Delta":173250176},{"NoteNumber":67,"Velocity":52,"Duration":238493,"SoundDuration":238493,"Delta":173250176},{"NoteNumber":51,"Velocity":45,"Duration":238493,"SoundDuration":238493,"Delta":173250176},{"NoteNumber":49,"Velocity":39,"Duration":238493,"SoundDuration":238493,"Delta":173250176},{"NoteNumber":46,"Velocity":39,"Duration":238493,"SoundDuration":238493,"Delta":173250176},{"NoteNumber":63,"Velocity":52,"Duration":238493,"SoundDuration":238493,"Delta":173501222},{"NoteNumber":67,"Velocity":52,"Duration":238493,"SoundDuration":238493,"Delta":173501222},{"NoteNumber":51,"Velocity":45,"Duration":238493,"SoundDuration":238493,"Delta":173501222},{"NoteNumber":49,"Velocity":39,"Duration":238493,"SoundDuration":238493,"Delta":173501222},{"NoteNumber":46,"Velocity":39,"Duration":238493,"SoundDuration":238493,"Delta":173501222},{"NoteNumber":68,"Velocity":70,"Duration":1806599,"SoundDuration":1806599,"Delta":173752268},{"NoteNumber":44,"Velocity":52,"Duration":1806599,"SoundDuration":1806599,"Delta":173752268},{"NoteNumber":59,"Velocity":26,"Duration":211110,"SoundDuration":211110,"Delta":174003314},{"NoteNumber":63,"Velocity":26,"Duration":211110,"SoundDuration":211110,"Delta":174003314},{"NoteNumber":56,"Velocity":26,"Duration":211110,"SoundDuration":211110,"Delta":174003314},{"NoteNumber":51,"Velocity":22,"Duration":211110,"SoundDuration":211110,"Delta":174003314},{"NoteNumber":59,"Velocity":26,"Duration":211110,"SoundDuration":211110,"Delta":174225536},{"NoteNumber":63,"Velocity":26,"Duration":211110,"SoundDuration":211110,"Delta":174225536},{"NoteNumber":56,"Velocity":26,"Duration":211110,"SoundDuration":211110,"Delta":174225536},{"NoteNumber":51,"Velocity":22,"Duration":211110,"SoundDuration":211110,"Delta":174225536},{"NoteNumber":59,"Velocity":26,"Duration":211110,"SoundDuration":211110,"Delta":174447758},{"NoteNumber":63,"Velocity":26,"Duration":211110,"SoundDuration":211110,"Delta":174447758},{"NoteNumber":56,"Velocity":26,"Duration":211110,"SoundDuration":211110,"Delta":174447758},{"NoteNumber":51,"Velocity":22,"Duration":211110,"SoundDuration":211110,"Delta":174447758},{"NoteNumber":59,"Velocity":26,"Duration":211110,"SoundDuration":211110,"Delta":174669980},{"NoteNumber":63,"Velocity":26,"Duration":211110,"SoundDuration":211110,"Delta":174669980},{"NoteNumber":56,"Velocity":26,"Duration":211110,"SoundDuration":211110,"Delta":174669980},{"NoteNumber":51,"Velocity":22,"Duration":211110,"SoundDuration":211110,"Delta":174669980},{"NoteNumber":59,"Velocity":26,"Duration":211110,"SoundDuration":211110,"Delta":174892202},{"NoteNumber":63,"Velocity":26,"Duration":211110,"SoundDuration":211110,"Delta":174892202},{"NoteNumber":56,"Velocity":26,"Duration":211110,"SoundDuration":211110,"Delta":174892202},{"NoteNumber":51,"Velocity":22,"Duration":211110,"SoundDuration":211110,"Delta":174892202},{"NoteNumber":59,"Velocity":26,"Duration":211110,"SoundDuration":211110,"Delta":175114424},{"NoteNumber":63,"Velocity":26,"Duration":211110,"SoundDuration":211110,"Delta":175114424},{"NoteNumber":51,"Velocity":22,"Duration":211110,"SoundDuration":211110,"Delta":175114424},{"NoteNumber":56,"Velocity":26,"Duration":211110,"SoundDuration":211110,"Delta":175114424},{"NoteNumber":59,"Velocity":26,"Duration":211110,"SoundDuration":211110,"Delta":175336646},{"NoteNumber":63,"Velocity":26,"Duration":211110,"SoundDuration":211110,"Delta":175336646},{"NoteNumber":51,"Velocity":22,"Duration":211110,"SoundDuration":211110,"Delta":175336646},{"NoteNumber":56,"Velocity":26,"Duration":211110,"SoundDuration":211110,"Delta":175336646},{"NoteNumber":68,"Velocity":48,"Duration":447031,"SoundDuration":447031,"Delta":175558868},{"NoteNumber":44,"Velocity":26,"Duration":447031,"SoundDuration":447031,"Delta":175558868},{"NoteNumber":59,"Velocity":26,"Duration":224809,"SoundDuration":224809,"Delta":175781090},{"NoteNumber":63,"Velocity":26,"Duration":224809,"SoundDuration":224809,"Delta":175781090},{"NoteNumber":51,"Velocity":22,"Duration":224809,"SoundDuration":224809,"Delta":175781090},{"NoteNumber":56,"Velocity":26,"Duration":224809,"SoundDuration":224809,"Delta":175781090},{"NoteNumber":68,"Velocity":42,"Duration":547944,"SoundDuration":547944,"Delta":176005900},{"NoteNumber":44,"Velocity":26,"Duration":547944,"SoundDuration":547944,"Delta":176005900},{"NoteNumber":59,"Velocity":26,"Duration":273972,"SoundDuration":273972,"Delta":176279872},{"NoteNumber":63,"Velocity":26,"Duration":273972,"SoundDuration":273972,"Delta":176279872},{"NoteNumber":51,"Velocity":22,"Duration":273972,"SoundDuration":273972,"Delta":176279872},{"NoteNumber":56,"Velocity":26,"Duration":273972,"SoundDuration":273972,"Delta":176279872},{"NoteNumber":68,"Velocity":59,"Duration":481928,"SoundDuration":481928,"Delta":176553845},{"NoteNumber":32,"Velocity":26,"Duration":228915,"SoundDuration":228915,"Delta":176553845},{"NoteNumber":63,"Velocity":26,"Duration":228915,"SoundDuration":228915,"Delta":176794809},{"NoteNumber":60,"Velocity":26,"Duration":228915,"SoundDuration":228915,"Delta":176794809},{"NoteNumber":54,"Velocity":26,"Duration":228915,"SoundDuration":228915,"Delta":176794809},{"NoteNumber":51,"Velocity":22,"Duration":228915,"SoundDuration":228915,"Delta":176794809},{"NoteNumber":44,"Velocity":22,"Duration":228915,"SoundDuration":228915,"Delta":176794809},{"NoteNumber":69,"Velocity":61,"Duration":1333956,"SoundDuration":1333956,"Delta":177035773},{"NoteNumber":54,"Velocity":26,"Duration":211735,"SoundDuration":211735,"Delta":177035773},{"NoteNumber":51,"Velocity":22,"Duration":211735,"SoundDuration":211735,"Delta":177035773},{"NoteNumber":44,"Velocity":22,"Duration":211735,"SoundDuration":211735,"Delta":177035773},{"NoteNumber":60,"Velocity":26,"Duration":211110,"SoundDuration":211110,"Delta":177258620},{"NoteNumber":63,"Velocity":26,"Duration":211110,"SoundDuration":211110,"Delta":177258620},{"NoteNumber":54,"Velocity":26,"Duration":211110,"SoundDuration":211110,"Delta":177258620},{"NoteNumber":51,"Velocity":22,"Duration":211110,"SoundDuration":211110,"Delta":177258620},{"NoteNumber":44,"Velocity":22,"Duration":211110,"SoundDuration":211110,"Delta":177258620},{"NoteNumber":60,"Velocity":26,"Duration":211110,"SoundDuration":211110,"Delta":177480842},{"NoteNumber":63,"Velocity":26,"Duration":211110,"SoundDuration":211110,"Delta":177480842},{"NoteNumber":44,"Velocity":22,"Duration":211110,"SoundDuration":211110,"Delta":177480842},{"NoteNumber":51,"Velocity":22,"Duration":211110,"SoundDuration":211110,"Delta":177480842},{"NoteNumber":54,"Velocity":26,"Duration":211110,"SoundDuration":211110,"Delta":177480842},{"NoteNumber":60,"Velocity":26,"Duration":211110,"SoundDuration":211110,"Delta":177703064},{"NoteNumber":63,"Velocity":26,"Duration":211110,"SoundDuration":211110,"Delta":177703064},{"NoteNumber":51,"Velocity":22,"Duration":211110,"SoundDuration":211110,"Delta":177703064},{"NoteNumber":44,"Velocity":22,"Duration":211110,"SoundDuration":211110,"Delta":177703064},{"NoteNumber":54,"Velocity":26,"Duration":211110,"SoundDuration":211110,"Delta":177703064},{"NoteNumber":60,"Velocity":26,"Duration":211110,"SoundDuration":211110,"Delta":177925286},{"NoteNumber":63,"Velocity":26,"Duration":211110,"SoundDuration":211110,"Delta":177925286},{"NoteNumber":44,"Velocity":22,"Duration":211110,"SoundDuration":211110,"Delta":177925286},{"NoteNumber":51,"Velocity":22,"Duration":211110,"SoundDuration":211110,"Delta":177925286},{"NoteNumber":54,"Velocity":26,"Duration":211110,"SoundDuration":211110,"Delta":177925286},{"NoteNumber":60,"Velocity":26,"Duration":211110,"SoundDuration":211110,"Delta":178147508},{"NoteNumber":63,"Velocity":26,"Duration":211110,"SoundDuration":211110,"Delta":178147508},{"NoteNumber":54,"Velocity":26,"Duration":211110,"SoundDuration":211110,"Delta":178147508},{"NoteNumber":51,"Velocity":22,"Duration":211110,"SoundDuration":211110,"Delta":178147508},{"NoteNumber":44,"Velocity":22,"Duration":211110,"SoundDuration":211110,"Delta":178147508},{"NoteNumber":68,"Velocity":60,"Duration":444444,"SoundDuration":444444,"Delta":178369730},{"NoteNumber":54,"Velocity":26,"Duration":211110,"SoundDuration":211110,"Delta":178369730},{"NoteNumber":51,"Velocity":22,"Duration":211110,"SoundDuration":211110,"Delta":178369730},{"NoteNumber":44,"Velocity":22,"Duration":211110,"SoundDuration":211110,"Delta":178369730},{"NoteNumber":60,"Velocity":26,"Duration":211110,"SoundDuration":211110,"Delta":178591952},{"NoteNumber":63,"Velocity":26,"Duration":211110,"SoundDuration":211110,"Delta":178591952},{"NoteNumber":54,"Velocity":26,"Duration":211110,"SoundDuration":211110,"Delta":178591952},{"NoteNumber":51,"Velocity":22,"Duration":211110,"SoundDuration":211110,"Delta":178591952},{"NoteNumber":44,"Velocity":22,"Duration":211110,"SoundDuration":211110,"Delta":178591952},{"NoteNumber":66,"Velocity":56,"Duration":444444,"SoundDuration":444444,"Delta":178814174},{"NoteNumber":44,"Velocity":22,"Duration":211110,"SoundDuration":211110,"Delta":178814174},{"NoteNumber":51,"Velocity":22,"Duration":211110,"SoundDuration":211110,"Delta":178814174},{"NoteNumber":54,"Velocity":26,"Duration":211110,"SoundDuration":211110,"Delta":178814174},{"NoteNumber":60,"Velocity":34,"Duration":211110,"SoundDuration":211110,"Delta":179036396},{"NoteNumber":63,"Velocity":26,"Duration":211110,"SoundDuration":211110,"Delta":179036396},{"NoteNumber":51,"Velocity":22,"Duration":211110,"SoundDuration":211110,"Delta":179036396},{"NoteNumber":44,"Velocity":22,"Duration":211110,"SoundDuration":211110,"Delta":179036396},{"NoteNumber":54,"Velocity":26,"Duration":211110,"SoundDuration":211110,"Delta":179036396},{"NoteNumber":64,"Velocity":70,"Duration":428571,"SoundDuration":428571,"Delta":179258618},{"NoteNumber":32,"Velocity":26,"Duration":203571,"SoundDuration":203571,"Delta":179258618},{"NoteNumber":56,"Velocity":26,"Duration":203571,"SoundDuration":203571,"Delta":179472903},{"NoteNumber":61,"Velocity":26,"Duration":203571,"SoundDuration":203571,"Delta":179472903},{"NoteNumber":52,"Velocity":26,"Duration":203571,"SoundDuration":203571,"Delta":179472903},{"NoteNumber":49,"Velocity":22,"Duration":203571,"SoundDuration":203571,"Delta":179472903},{"NoteNumber":44,"Velocity":22,"Duration":203571,"SoundDuration":203571,"Delta":179472903},{"NoteNumber":68,"Velocity":64,"Duration":428571,"SoundDuration":428571,"Delta":179687189},{"NoteNumber":44,"Velocity":24,"Duration":203571,"SoundDuration":203571,"Delta":179687189},{"NoteNumber":49,"Velocity":24,"Duration":203571,"SoundDuration":203571,"Delta":179687189},{"NoteNumber":52,"Velocity":28,"Duration":203571,"SoundDuration":203571,"Delta":179687189},{"NoteNumber":64,"Velocity":29,"Duration":203571,"SoundDuration":203571,"Delta":179901474},{"NoteNumber":61,"Velocity":29,"Duration":203571,"SoundDuration":203571,"Delta":179901474},{"NoteNumber":44,"Velocity":24,"Duration":203571,"SoundDuration":203571,"Delta":179901474},{"NoteNumber":49,"Velocity":24,"Duration":203571,"SoundDuration":203571,"Delta":179901474},{"NoteNumber":52,"Velocity":29,"Duration":203571,"SoundDuration":203571,"Delta":179901474},{"NoteNumber":73,"Velocity":68,"Duration":428570,"SoundDuration":428570,"Delta":180115760},{"NoteNumber":44,"Velocity":26,"Duration":203571,"SoundDuration":203571,"Delta":180115760},{"NoteNumber":49,"Velocity":26,"Duration":203571,"SoundDuration":203571,"Delta":180115760},{"NoteNumber":52,"Velocity":30,"Duration":203571,"SoundDuration":203571,"Delta":180115760},{"NoteNumber":64,"Velocity":31,"Duration":203571,"SoundDuration":203571,"Delta":180330045},{"NoteNumber":68,"Velocity":31,"Duration":203571,"SoundDuration":203571,"Delta":180330045},{"NoteNumber":52,"Velocity":31,"Duration":203571,"SoundDuration":203571,"Delta":180330045},{"NoteNumber":44,"Velocity":26,"Duration":203571,"SoundDuration":203571,"Delta":180330045},{"NoteNumber":49,"Velocity":26,"Duration":203571,"SoundDuration":203571,"Delta":180330045},{"NoteNumber":76,"Velocity":77,"Duration":428571,"SoundDuration":428571,"Delta":180544331},{"NoteNumber":44,"Velocity":28,"Duration":203571,"SoundDuration":203571,"Delta":180544331},{"NoteNumber":49,"Velocity":28,"Duration":203571,"SoundDuration":203571,"Delta":180544331},{"NoteNumber":52,"Velocity":34,"Duration":203571,"SoundDuration":203571,"Delta":180544331},{"NoteNumber":68,"Velocity":34,"Duration":203571,"SoundDuration":203571,"Delta":180758616},{"NoteNumber":73,"Velocity":34,"Duration":203571,"SoundDuration":203571,"Delta":180758616},{"NoteNumber":49,"Velocity":29,"Duration":203571,"SoundDuration":203571,"Delta":180758616},{"NoteNumber":44,"Velocity":29,"Duration":203571,"SoundDuration":203571,"Delta":180758616},{"NoteNumber":52,"Velocity":35,"Duration":203571,"SoundDuration":203571,"Delta":180758616},{"NoteNumber":80,"Velocity":75,"Duration":428571,"SoundDuration":428571,"Delta":180972902},{"NoteNumber":44,"Velocity":30,"Duration":203571,"SoundDuration":203571,"Delta":180972902},{"NoteNumber":49,"Velocity":30,"Duration":203571,"SoundDuration":203571,"Delta":180972902},{"NoteNumber":52,"Velocity":36,"Duration":203571,"SoundDuration":203571,"Delta":180972902},{"NoteNumber":73,"Velocity":37,"Duration":203571,"SoundDuration":203571,"Delta":181187187},{"NoteNumber":76,"Velocity":37,"Duration":203571,"SoundDuration":203571,"Delta":181187187},{"NoteNumber":52,"Velocity":37,"Duration":203571,"SoundDuration":203571,"Delta":181187187},{"NoteNumber":44,"Velocity":30,"Duration":203571,"SoundDuration":203571,"Delta":181187187},{"NoteNumber":49,"Velocity":30,"Duration":203571,"SoundDuration":203571,"Delta":181187187},{"NoteNumber":85,"Velocity":79,"Duration":428571,"SoundDuration":428571,"Delta":181401473},{"NoteNumber":44,"Velocity":33,"Duration":203571,"SoundDuration":203571,"Delta":181401473},{"NoteNumber":49,"Velocity":33,"Duration":203571,"SoundDuration":203571,"Delta":181401473},{"NoteNumber":52,"Velocity":39,"Duration":203571,"SoundDuration":203571,"Delta":181401473},{"NoteNumber":76,"Velocity":39,"Duration":203571,"SoundDuration":203571,"Delta":181615758},{"NoteNumber":80,"Velocity":39,"Duration":203571,"SoundDuration":203571,"Delta":181615758},{"NoteNumber":52,"Velocity":39,"Duration":203571,"SoundDuration":203571,"Delta":181615758},{"NoteNumber":44,"Velocity":34,"Duration":203571,"SoundDuration":203571,"Delta":181615758},{"NoteNumber":49,"Velocity":34,"Duration":203571,"SoundDuration":203571,"Delta":181615758},{"NoteNumber":87,"Velocity":99,"Duration":477246,"SoundDuration":477246,"Delta":181830044},{"NoteNumber":33,"Velocity":47,"Duration":227091,"SoundDuration":227091,"Delta":181830044},{"NoteNumber":75,"Velocity":51,"Duration":227091,"SoundDuration":227091,"Delta":182069088},{"NoteNumber":79,"Velocity":51,"Duration":227091,"SoundDuration":227091,"Delta":182069088},{"NoteNumber":52,"Velocity":42,"Duration":227091,"SoundDuration":227091,"Delta":182069088},{"NoteNumber":49,"Velocity":35,"Duration":227091,"SoundDuration":227091,"Delta":182069088},{"NoteNumber":45,"Velocity":35,"Duration":227091,"SoundDuration":227091,"Delta":182069088},{"NoteNumber":88,"Velocity":96,"Duration":1333332,"SoundDuration":1333332,"Delta":182307291},{"NoteNumber":45,"Velocity":38,"Duration":211110,"SoundDuration":211110,"Delta":182307291},{"NoteNumber":49,"Velocity":38,"Duration":211110,"SoundDuration":211110,"Delta":182307291},{"NoteNumber":52,"Velocity":45,"Duration":211110,"SoundDuration":211110,"Delta":182307291},{"NoteNumber":79,"Velocity":45,"Duration":211110,"SoundDuration":211110,"Delta":182529513},{"NoteNumber":76,"Velocity":45,"Duration":211110,"SoundDuration":211110,"Delta":182529513},{"NoteNumber":52,"Velocity":44,"Duration":211110,"SoundDuration":211110,"Delta":182529513},{"NoteNumber":45,"Velocity":36,"Duration":211110,"SoundDuration":211110,"Delta":182529513},{"NoteNumber":49,"Velocity":36,"Duration":211110,"SoundDuration":211110,"Delta":182529513},{"NoteNumber":79,"Velocity":40,"Duration":211110,"SoundDuration":211110,"Delta":182751735},{"NoteNumber":76,"Velocity":40,"Duration":211110,"SoundDuration":211110,"Delta":182751735},{"NoteNumber":52,"Velocity":40,"Duration":211110,"SoundDuration":211110,"Delta":182751735},{"NoteNumber":45,"Velocity":34,"Duration":211110,"SoundDuration":211110,"Delta":182751735},{"NoteNumber":49,"Velocity":34,"Duration":211110,"SoundDuration":211110,"Delta":182751735},{"NoteNumber":79,"Velocity":39,"Duration":211110,"SoundDuration":211110,"Delta":182973957},{"NoteNumber":76,"Velocity":39,"Duration":211110,"SoundDuration":211110,"Delta":182973957},{"NoteNumber":52,"Velocity":39,"Duration":211110,"SoundDuration":211110,"Delta":182973957},{"NoteNumber":45,"Velocity":33,"Duration":211110,"SoundDuration":211110,"Delta":182973957},{"NoteNumber":49,"Velocity":33,"Duration":211110,"SoundDuration":211110,"Delta":182973957},{"NoteNumber":79,"Velocity":37,"Duration":211110,"SoundDuration":211110,"Delta":183196179},{"NoteNumber":76,"Velocity":37,"Duration":211110,"SoundDuration":211110,"Delta":183196179},{"NoteNumber":52,"Velocity":37,"Duration":211110,"SoundDuration":211110,"Delta":183196179},{"NoteNumber":45,"Velocity":30,"Duration":211110,"SoundDuration":211110,"Delta":183196179},{"NoteNumber":49,"Velocity":30,"Duration":211110,"SoundDuration":211110,"Delta":183196179},{"NoteNumber":76,"Velocity":37,"Duration":211110,"SoundDuration":211110,"Delta":183418401},{"NoteNumber":79,"Velocity":37,"Duration":211110,"SoundDuration":211110,"Delta":183418401},{"NoteNumber":45,"Velocity":29,"Duration":211110,"SoundDuration":211110,"Delta":183418401},{"NoteNumber":49,"Velocity":29,"Duration":211110,"SoundDuration":211110,"Delta":183418401},{"NoteNumber":52,"Velocity":35,"Duration":211110,"SoundDuration":211110,"Delta":183418401},{"NoteNumber":87,"Velocity":88,"Duration":445528,"SoundDuration":445528,"Delta":183640623},{"NoteNumber":51,"Velocity":34,"Duration":211110,"SoundDuration":211110,"Delta":183640623},{"NoteNumber":45,"Velocity":28,"Duration":211110,"SoundDuration":211110,"Delta":183640623},{"NoteNumber":75,"Velocity":31,"Duration":211110,"SoundDuration":211110,"Delta":183862845},{"NoteNumber":79,"Velocity":31,"Duration":211110,"SoundDuration":211110,"Delta":183862845},{"NoteNumber":51,"Velocity":31,"Duration":211110,"SoundDuration":211110,"Delta":183862845},{"NoteNumber":45,"Velocity":26,"Duration":211110,"SoundDuration":211110,"Delta":183862845},{"NoteNumber":85,"Velocity":81,"Duration":486324,"SoundDuration":486324,"Delta":184086151},{"NoteNumber":51,"Velocity":30,"Duration":231707,"SoundDuration":231707,"Delta":184086151},{"NoteNumber":45,"Velocity":25,"Duration":231707,"SoundDuration":231707,"Delta":184086151},{"NoteNumber":73,"Velocity":28,"Duration":231707,"SoundDuration":231707,"Delta":184330053},{"NoteNumber":79,"Velocity":28,"Duration":231707,"SoundDuration":231707,"Delta":184330053},{"NoteNumber":51,"Velocity":28,"Duration":231707,"SoundDuration":231707,"Delta":184330053},{"NoteNumber":45,"Velocity":24,"Duration":231707,"SoundDuration":231707,"Delta":184330053},{"NoteNumber":85,"Velocity":68,"Duration":428571,"SoundDuration":428571,"Delta":184572475},{"NoteNumber":32,"Velocity":26,"Duration":203571,"SoundDuration":203571,"Delta":184572475},{"NoteNumber":75,"Velocity":26,"Duration":203571,"SoundDuration":203571,"Delta":184786760},{"NoteNumber":80,"Velocity":26,"Duration":203571,"SoundDuration":203571,"Delta":184786760},{"NoteNumber":44,"Velocity":26,"Duration":203571,"SoundDuration":203571,"Delta":184786760},{"NoteNumber":84,"Velocity":59,"Duration":428571,"SoundDuration":428571,"Delta":185001046},{"NoteNumber":48,"Velocity":22,"Duration":203571,"SoundDuration":203571,"Delta":185001046},{"NoteNumber":51,"Velocity":26,"Duration":203571,"SoundDuration":203571,"Delta":185001046},{"NoteNumber":44,"Velocity":22,"Duration":203571,"SoundDuration":203571,"Delta":185001046},{"NoteNumber":75,"Velocity":26,"Duration":203571,"SoundDuration":203571,"Delta":185215331},{"NoteNumber":80,"Velocity":26,"Duration":203571,"SoundDuration":203571,"Delta":185215331},{"NoteNumber":48,"Velocity":22,"Duration":203571,"SoundDuration":203571,"Delta":185215331},{"NoteNumber":51,"Velocity":26,"Duration":203571,"SoundDuration":203571,"Delta":185215331},{"NoteNumber":44,"Velocity":22,"Duration":203571,"SoundDuration":203571,"Delta":185215331},{"NoteNumber":80,"Velocity":58,"Duration":428571,"SoundDuration":428571,"Delta":185429617},{"NoteNumber":48,"Velocity":22,"Duration":203571,"SoundDuration":203571,"Delta":185429617},{"NoteNumber":51,"Velocity":26,"Duration":203571,"SoundDuration":203571,"Delta":185429617},{"NoteNumber":44,"Velocity":22,"Duration":203571,"SoundDuration":203571,"Delta":185429617},{"NoteNumber":72,"Velocity":26,"Duration":203571,"SoundDuration":203571,"Delta":185643902},{"NoteNumber":75,"Velocity":26,"Duration":203571,"SoundDuration":203571,"Delta":185643902},{"NoteNumber":48,"Velocity":22,"Duration":203571,"SoundDuration":203571,"Delta":185643902},{"NoteNumber":51,"Velocity":26,"Duration":203571,"SoundDuration":203571,"Delta":185643902},{"NoteNumber":44,"Velocity":22,"Duration":203571,"SoundDuration":203571,"Delta":185643902},{"NoteNumber":75,"Velocity":58,"Duration":428570,"SoundDuration":428570,"Delta":185858188},{"NoteNumber":48,"Velocity":22,"Duration":203571,"SoundDuration":203571,"Delta":185858188},{"NoteNumber":51,"Velocity":26,"Duration":203571,"SoundDuration":203571,"Delta":185858188},{"NoteNumber":44,"Velocity":22,"Duration":203571,"SoundDuration":203571,"Delta":185858188},{"NoteNumber":68,"Velocity":26,"Duration":203571,"SoundDuration":203571,"Delta":186072473},{"NoteNumber":72,"Velocity":26,"Duration":203571,"SoundDuration":203571,"Delta":186072473},{"NoteNumber":48,"Velocity":22,"Duration":203571,"SoundDuration":203571,"Delta":186072473},{"NoteNumber":51,"Velocity":26,"Duration":203571,"SoundDuration":203571,"Delta":186072473},{"NoteNumber":44,"Velocity":22,"Duration":203571,"SoundDuration":203571,"Delta":186072473},{"NoteNumber":72,"Velocity":58,"Duration":428571,"SoundDuration":428571,"Delta":186286759},{"NoteNumber":48,"Velocity":22,"Duration":203571,"SoundDuration":203571,"Delta":186286759},{"NoteNumber":51,"Velocity":26,"Duration":203571,"SoundDuration":203571,"Delta":186286759},{"NoteNumber":44,"Velocity":22,"Duration":203571,"SoundDuration":203571,"Delta":186286759},{"NoteNumber":63,"Velocity":26,"Duration":203571,"SoundDuration":203571,"Delta":186501044},{"NoteNumber":68,"Velocity":26,"Duration":203571,"SoundDuration":203571,"Delta":186501044},{"NoteNumber":48,"Velocity":22,"Duration":203571,"SoundDuration":203571,"Delta":186501044},{"NoteNumber":51,"Velocity":26,"Duration":203571,"SoundDuration":203571,"Delta":186501044},{"NoteNumber":44,"Velocity":22,"Duration":203571,"SoundDuration":203571,"Delta":186501044},{"NoteNumber":68,"Velocity":58,"Duration":429856,"SoundDuration":429856,"Delta":186715330},{"NoteNumber":48,"Velocity":22,"Duration":203571,"SoundDuration":203571,"Delta":186715330},{"NoteNumber":51,"Velocity":26,"Duration":203571,"SoundDuration":203571,"Delta":186715330},{"NoteNumber":44,"Velocity":22,"Duration":203571,"SoundDuration":203571,"Delta":186715330},{"NoteNumber":60,"Velocity":26,"Duration":203571,"SoundDuration":203571,"Delta":186929615},{"NoteNumber":63,"Velocity":26,"Duration":203571,"SoundDuration":203571,"Delta":186929615},{"NoteNumber":48,"Velocity":22,"Duration":203571,"SoundDuration":203571,"Delta":186929615},{"NoteNumber":51,"Velocity":26,"Duration":203571,"SoundDuration":203571,"Delta":186929615},{"NoteNumber":44,"Velocity":22,"Duration":203571,"SoundDuration":203571,"Delta":186929615},{"NoteNumber":68,"Velocity":59,"Duration":519481,"SoundDuration":519481,"Delta":187145186},{"NoteNumber":32,"Velocity":26,"Duration":246753,"SoundDuration":246753,"Delta":187145186},{"NoteNumber":63,"Velocity":26,"Duration":246753,"SoundDuration":246753,"Delta":187404927},{"NoteNumber":60,"Velocity":26,"Duration":246753,"SoundDuration":246753,"Delta":187404927},{"NoteNumber":54,"Velocity":26,"Duration":246753,"SoundDuration":246753,"Delta":187404927},{"NoteNumber":51,"Velocity":22,"Duration":246753,"SoundDuration":246753,"Delta":187404927},{"NoteNumber":44,"Velocity":22,"Duration":246753,"SoundDuration":246753,"Delta":187404927},{"NoteNumber":69,"Velocity":61,"Duration":1333332,"SoundDuration":1333332,"Delta":187664667},{"NoteNumber":54,"Velocity":26,"Duration":211110,"SoundDuration":211110,"Delta":187664667},{"NoteNumber":51,"Velocity":22,"Duration":211110,"SoundDuration":211110,"Delta":187664667},{"NoteNumber":44,"Velocity":22,"Duration":211110,"SoundDuration":211110,"Delta":187664667},{"NoteNumber":60,"Velocity":26,"Duration":211110,"SoundDuration":211110,"Delta":187886889},{"NoteNumber":63,"Velocity":26,"Duration":211110,"SoundDuration":211110,"Delta":187886889},{"NoteNumber":54,"Velocity":26,"Duration":211110,"SoundDuration":211110,"Delta":187886889},{"NoteNumber":51,"Velocity":22,"Duration":211110,"SoundDuration":211110,"Delta":187886889},{"NoteNumber":44,"Velocity":22,"Duration":211110,"SoundDuration":211110,"Delta":187886889},{"NoteNumber":60,"Velocity":26,"Duration":211110,"SoundDuration":211110,"Delta":188109111},{"NoteNumber":63,"Velocity":26,"Duration":211110,"SoundDuration":211110,"Delta":188109111},{"NoteNumber":44,"Velocity":22,"Duration":211110,"SoundDuration":211110,"Delta":188109111},{"NoteNumber":51,"Velocity":22,"Duration":211110,"SoundDuration":211110,"Delta":188109111},{"NoteNumber":54,"Velocity":26,"Duration":211110,"SoundDuration":211110,"Delta":188109111},{"NoteNumber":60,"Velocity":26,"Duration":211110,"SoundDuration":211110,"Delta":188331333},{"NoteNumber":63,"Velocity":26,"Duration":211110,"SoundDuration":211110,"Delta":188331333},{"NoteNumber":51,"Velocity":22,"Duration":211110,"SoundDuration":211110,"Delta":188331333},{"NoteNumber":44,"Velocity":22,"Duration":211110,"SoundDuration":211110,"Delta":188331333},{"NoteNumber":54,"Velocity":26,"Duration":211110,"SoundDuration":211110,"Delta":188331333},{"NoteNumber":60,"Velocity":26,"Duration":211110,"SoundDuration":211110,"Delta":188553555},{"NoteNumber":63,"Velocity":26,"Duration":211110,"SoundDuration":211110,"Delta":188553555},{"NoteNumber":44,"Velocity":22,"Duration":211110,"SoundDuration":211110,"Delta":188553555},{"NoteNumber":51,"Velocity":22,"Duration":211110,"SoundDuration":211110,"Delta":188553555},{"NoteNumber":54,"Velocity":26,"Duration":211110,"SoundDuration":211110,"Delta":188553555},{"NoteNumber":60,"Velocity":26,"Duration":211110,"SoundDuration":211110,"Delta":188775777},{"NoteNumber":63,"Velocity":26,"Duration":211110,"SoundDuration":211110,"Delta":188775777},{"NoteNumber":54,"Velocity":26,"Duration":211110,"SoundDuration":211110,"Delta":188775777},{"NoteNumber":51,"Velocity":22,"Duration":211110,"SoundDuration":211110,"Delta":188775777},{"NoteNumber":44,"Velocity":22,"Duration":211110,"SoundDuration":211110,"Delta":188775777},{"NoteNumber":68,"Velocity":60,"Duration":444443,"SoundDuration":444443,"Delta":188997999},{"NoteNumber":54,"Velocity":26,"Duration":211110,"SoundDuration":211110,"Delta":188997999},{"NoteNumber":51,"Velocity":22,"Duration":211110,"SoundDuration":211110,"Delta":188997999},{"NoteNumber":44,"Velocity":22,"Duration":211110,"SoundDuration":211110,"Delta":188997999},{"NoteNumber":60,"Velocity":26,"Duration":211110,"SoundDuration":211110,"Delta":189220221},{"NoteNumber":63,"Velocity":26,"Duration":211110,"SoundDuration":211110,"Delta":189220221},{"NoteNumber":54,"Velocity":26,"Duration":211110,"SoundDuration":211110,"Delta":189220221},{"NoteNumber":51,"Velocity":22,"Duration":211110,"SoundDuration":211110,"Delta":189220221},{"NoteNumber":44,"Velocity":22,"Duration":211110,"SoundDuration":211110,"Delta":189220221},{"NoteNumber":66,"Velocity":56,"Duration":444444,"SoundDuration":444444,"Delta":189442443},{"NoteNumber":44,"Velocity":22,"Duration":211110,"SoundDuration":211110,"Delta":189442443},{"NoteNumber":51,"Velocity":22,"Duration":211110,"SoundDuration":211110,"Delta":189442443},{"NoteNumber":54,"Velocity":26,"Duration":211110,"SoundDuration":211110,"Delta":189442443},{"NoteNumber":60,"Velocity":34,"Duration":222221,"SoundDuration":222221,"Delta":189664665},{"NoteNumber":63,"Velocity":26,"Duration":222221,"SoundDuration":222221,"Delta":189664665},{"NoteNumber":51,"Velocity":22,"Duration":211110,"SoundDuration":211110,"Delta":189664665},{"NoteNumber":44,"Velocity":22,"Duration":211110,"SoundDuration":211110,"Delta":189664665},{"NoteNumber":54,"Velocity":26,"Duration":211110,"SoundDuration":211110,"Delta":189664665},{"NoteNumber":64,"Velocity":70,"Duration":428571,"SoundDuration":428571,"Delta":189886887},{"NoteNumber":32,"Velocity":26,"Duration":203571,"SoundDuration":203571,"Delta":189886887},{"NoteNumber":56,"Velocity":26,"Duration":203571,"SoundDuration":203571,"Delta":190101173},{"NoteNumber":61,"Velocity":26,"Duration":203571,"SoundDuration":203571,"Delta":190101173},{"NoteNumber":52,"Velocity":26,"Duration":203571,"SoundDuration":203571,"Delta":190101173},{"NoteNumber":49,"Velocity":22,"Duration":203571,"SoundDuration":203571,"Delta":190101173},{"NoteNumber":44,"Velocity":22,"Duration":203571,"SoundDuration":203571,"Delta":190101173},{"NoteNumber":68,"Velocity":64,"Duration":428571,"SoundDuration":428571,"Delta":190315458},{"NoteNumber":44,"Velocity":22,"Duration":203571,"SoundDuration":203571,"Delta":190315458},{"NoteNumber":49,"Velocity":22,"Duration":203571,"SoundDuration":203571,"Delta":190315458},{"NoteNumber":52,"Velocity":26,"Duration":203571,"SoundDuration":203571,"Delta":190315458},{"NoteNumber":64,"Velocity":29,"Duration":203571,"SoundDuration":203571,"Delta":190529744},{"NoteNumber":61,"Velocity":29,"Duration":203571,"SoundDuration":203571,"Delta":190529744},{"NoteNumber":44,"Velocity":22,"Duration":203571,"SoundDuration":203571,"Delta":190529744},{"NoteNumber":49,"Velocity":22,"Duration":203571,"SoundDuration":203571,"Delta":190529744},{"NoteNumber":52,"Velocity":26,"Duration":203571,"SoundDuration":203571,"Delta":190529744},{"NoteNumber":73,"Velocity":68,"Duration":428570,"SoundDuration":428570,"Delta":190744029},{"NoteNumber":44,"Velocity":22,"Duration":203571,"SoundDuration":203571,"Delta":190744029},{"NoteNumber":49,"Velocity":22,"Duration":203571,"SoundDuration":203571,"Delta":190744029},{"NoteNumber":52,"Velocity":26,"Duration":203571,"SoundDuration":203571,"Delta":190744029},{"NoteNumber":64,"Velocity":31,"Duration":203571,"SoundDuration":203571,"Delta":190958315},{"NoteNumber":68,"Velocity":31,"Duration":203571,"SoundDuration":203571,"Delta":190958315},{"NoteNumber":44,"Velocity":22,"Duration":203571,"SoundDuration":203571,"Delta":190958315},{"NoteNumber":49,"Velocity":22,"Duration":203571,"SoundDuration":203571,"Delta":190958315},{"NoteNumber":52,"Velocity":26,"Duration":203571,"SoundDuration":203571,"Delta":190958315},{"NoteNumber":76,"Velocity":77,"Duration":428571,"SoundDuration":428571,"Delta":191172600},{"NoteNumber":44,"Velocity":22,"Duration":203571,"SoundDuration":203571,"Delta":191172600},{"NoteNumber":49,"Velocity":22,"Duration":203571,"SoundDuration":203571,"Delta":191172600},{"NoteNumber":52,"Velocity":26,"Duration":203571,"SoundDuration":203571,"Delta":191172600},{"NoteNumber":68,"Velocity":34,"Duration":203571,"SoundDuration":203571,"Delta":191386886},{"NoteNumber":73,"Velocity":34,"Duration":203571,"SoundDuration":203571,"Delta":191386886},{"NoteNumber":49,"Velocity":24,"Duration":203571,"SoundDuration":203571,"Delta":191386886},{"NoteNumber":44,"Velocity":24,"Duration":203571,"SoundDuration":203571,"Delta":191386886},{"NoteNumber":52,"Velocity":28,"Duration":203571,"SoundDuration":203571,"Delta":191386886},{"NoteNumber":80,"Velocity":75,"Duration":428571,"SoundDuration":428571,"Delta":191601171},{"NoteNumber":44,"Velocity":26,"Duration":203571,"SoundDuration":203571,"Delta":191601171},{"NoteNumber":49,"Velocity":26,"Duration":203571,"SoundDuration":203571,"Delta":191601171},{"NoteNumber":52,"Velocity":30,"Duration":203571,"SoundDuration":203571,"Delta":191601171},{"NoteNumber":73,"Velocity":37,"Duration":203571,"SoundDuration":203571,"Delta":191815457},{"NoteNumber":76,"Velocity":37,"Duration":203571,"SoundDuration":203571,"Delta":191815457},{"NoteNumber":44,"Velocity":29,"Duration":203571,"SoundDuration":203571,"Delta":191815457},{"NoteNumber":49,"Velocity":29,"Duration":203571,"SoundDuration":203571,"Delta":191815457},{"NoteNumber":52,"Velocity":35,"Duration":203571,"SoundDuration":203571,"Delta":191815457},{"NoteNumber":85,"Velocity":79,"Duration":428571,"SoundDuration":428571,"Delta":192029742},{"NoteNumber":44,"Velocity":30,"Duration":203571,"SoundDuration":203571,"Delta":192029742},{"NoteNumber":49,"Velocity":30,"Duration":203571,"SoundDuration":203571,"Delta":192029742},{"NoteNumber":52,"Velocity":37,"Duration":203571,"SoundDuration":203571,"Delta":192029742},{"NoteNumber":76,"Velocity":39,"Duration":203571,"SoundDuration":203571,"Delta":192244028},{"NoteNumber":80,"Velocity":39,"Duration":203571,"SoundDuration":203571,"Delta":192244028},{"NoteNumber":44,"Velocity":34,"Duration":203571,"SoundDuration":203571,"Delta":192244028},{"NoteNumber":49,"Velocity":34,"Duration":203571,"SoundDuration":203571,"Delta":192244028},{"NoteNumber":52,"Velocity":39,"Duration":203571,"SoundDuration":203571,"Delta":192244028},{"NoteNumber":87,"Velocity":99,"Duration":477246,"SoundDuration":477246,"Delta":192458313},{"NoteNumber":33,"Velocity":41,"Duration":227091,"SoundDuration":227091,"Delta":192458313},{"NoteNumber":75,"Velocity":51,"Duration":227091,"SoundDuration":227091,"Delta":192697357},{"NoteNumber":79,"Velocity":51,"Duration":227091,"SoundDuration":227091,"Delta":192697357},{"NoteNumber":52,"Velocity":41,"Duration":227091,"SoundDuration":227091,"Delta":192697357},{"NoteNumber":49,"Velocity":35,"Duration":227091,"SoundDuration":227091,"Delta":192697357},{"NoteNumber":45,"Velocity":35,"Duration":227091,"SoundDuration":227091,"Delta":192697357},{"NoteNumber":88,"Velocity":96,"Duration":1333332,"SoundDuration":1333332,"Delta":192935560},{"NoteNumber":45,"Velocity":36,"Duration":211110,"SoundDuration":211110,"Delta":192935560},{"NoteNumber":49,"Velocity":36,"Duration":211110,"SoundDuration":211110,"Delta":192935560},{"NoteNumber":52,"Velocity":44,"Duration":211110,"SoundDuration":211110,"Delta":192935560},{"NoteNumber":79,"Velocity":45,"Duration":211110,"SoundDuration":211110,"Delta":193157782},{"NoteNumber":76,"Velocity":45,"Duration":211110,"SoundDuration":211110,"Delta":193157782},{"NoteNumber":45,"Velocity":35,"Duration":211110,"SoundDuration":211110,"Delta":193157782},{"NoteNumber":49,"Velocity":35,"Duration":211110,"SoundDuration":211110,"Delta":193157782},{"NoteNumber":52,"Velocity":42,"Duration":211110,"SoundDuration":211110,"Delta":193157782},{"NoteNumber":79,"Velocity":40,"Duration":211110,"SoundDuration":211110,"Delta":193380004},{"NoteNumber":76,"Velocity":40,"Duration":211110,"SoundDuration":211110,"Delta":193380004},{"NoteNumber":45,"Velocity":34,"Duration":211110,"SoundDuration":211110,"Delta":193380004},{"NoteNumber":49,"Velocity":34,"Duration":211110,"SoundDuration":211110,"Delta":193380004},{"NoteNumber":52,"Velocity":40,"Duration":211110,"SoundDuration":211110,"Delta":193380004},{"NoteNumber":79,"Velocity":39,"Duration":211110,"SoundDuration":211110,"Delta":193602226},{"NoteNumber":76,"Velocity":39,"Duration":211110,"SoundDuration":211110,"Delta":193602226},{"NoteNumber":45,"Velocity":33,"Duration":211110,"SoundDuration":211110,"Delta":193602226},{"NoteNumber":49,"Velocity":33,"Duration":211110,"SoundDuration":211110,"Delta":193602226},{"NoteNumber":52,"Velocity":39,"Duration":211110,"SoundDuration":211110,"Delta":193602226},{"NoteNumber":79,"Velocity":37,"Duration":211110,"SoundDuration":211110,"Delta":193824448},{"NoteNumber":76,"Velocity":37,"Duration":211110,"SoundDuration":211110,"Delta":193824448},{"NoteNumber":45,"Velocity":30,"Duration":211110,"SoundDuration":211110,"Delta":193824448},{"NoteNumber":49,"Velocity":30,"Duration":211110,"SoundDuration":211110,"Delta":193824448},{"NoteNumber":52,"Velocity":37,"Duration":211110,"SoundDuration":211110,"Delta":193824448},{"NoteNumber":76,"Velocity":37,"Duration":211110,"SoundDuration":211110,"Delta":194046670},{"NoteNumber":79,"Velocity":37,"Duration":211110,"SoundDuration":211110,"Delta":194046670},{"NoteNumber":45,"Velocity":29,"Duration":211110,"SoundDuration":211110,"Delta":194046670},{"NoteNumber":49,"Velocity":29,"Duration":211110,"SoundDuration":211110,"Delta":194046670},{"NoteNumber":52,"Velocity":35,"Duration":211110,"SoundDuration":211110,"Delta":194046670},{"NoteNumber":87,"Velocity":88,"Duration":444444,"SoundDuration":444444,"Delta":194268892},{"NoteNumber":45,"Velocity":28,"Duration":211110,"SoundDuration":211110,"Delta":194268892},{"NoteNumber":49,"Velocity":28,"Duration":211110,"SoundDuration":211110,"Delta":194268892},{"NoteNumber":52,"Velocity":34,"Duration":211110,"SoundDuration":211110,"Delta":194268892},{"NoteNumber":75,"Velocity":31,"Duration":211110,"SoundDuration":211110,"Delta":194491114},{"NoteNumber":79,"Velocity":31,"Duration":211110,"SoundDuration":211110,"Delta":194491114},{"NoteNumber":45,"Velocity":26,"Duration":211110,"SoundDuration":211110,"Delta":194491114},{"NoteNumber":49,"Velocity":26,"Duration":211110,"SoundDuration":211110,"Delta":194491114},{"NoteNumber":52,"Velocity":31,"Duration":211110,"SoundDuration":211110,"Delta":194491114},{"NoteNumber":85,"Velocity":81,"Duration":444443,"SoundDuration":444443,"Delta":194713336},{"NoteNumber":45,"Velocity":25,"Duration":211110,"SoundDuration":211110,"Delta":194713336},{"NoteNumber":49,"Velocity":25,"Duration":211110,"SoundDuration":211110,"Delta":194713336},{"NoteNumber":52,"Velocity":30,"Duration":211110,"SoundDuration":211110,"Delta":194713336},{"NoteNumber":73,"Velocity":28,"Duration":222221,"SoundDuration":222221,"Delta":194935558},{"NoteNumber":79,"Velocity":28,"Duration":222221,"SoundDuration":222221,"Delta":194935558},{"NoteNumber":45,"Velocity":24,"Duration":211110,"SoundDuration":211110,"Delta":194935558},{"NoteNumber":49,"Velocity":24,"Duration":211110,"SoundDuration":211110,"Delta":194935558},{"NoteNumber":52,"Velocity":28,"Duration":211110,"SoundDuration":211110,"Delta":194935558},{"NoteNumber":85,"Velocity":71,"Duration":1333332,"SoundDuration":1333332,"Delta":195157780},{"NoteNumber":32,"Velocity":27,"Duration":211110,"SoundDuration":211110,"Delta":195157780},{"NoteNumber":73,"Velocity":23,"Duration":211110,"SoundDuration":211110,"Delta":195380002},{"NoteNumber":76,"Velocity":23,"Duration":211110,"SoundDuration":211110,"Delta":195380002},{"NoteNumber":80,"Velocity":27,"Duration":211110,"SoundDuration":211110,"Delta":195380002},{"NoteNumber":52,"Velocity":26,"Duration":211110,"SoundDuration":211110,"Delta":195380002},{"NoteNumber":49,"Velocity":22,"Duration":211110,"SoundDuration":211110,"Delta":195380002},{"NoteNumber":44,"Velocity":22,"Duration":211110,"SoundDuration":211110,"Delta":195380002},{"NoteNumber":73,"Velocity":23,"Duration":211110,"SoundDuration":211110,"Delta":195602224},{"NoteNumber":76,"Velocity":23,"Duration":211110,"SoundDuration":211110,"Delta":195602224},{"NoteNumber":80,"Velocity":27,"Duration":211110,"SoundDuration":211110,"Delta":195602224},{"NoteNumber":52,"Velocity":26,"Duration":211110,"SoundDuration":211110,"Delta":195602224},{"NoteNumber":49,"Velocity":22,"Duration":211110,"SoundDuration":211110,"Delta":195602224},{"NoteNumber":44,"Velocity":22,"Duration":211110,"SoundDuration":211110,"Delta":195602224},{"NoteNumber":73,"Velocity":23,"Duration":211110,"SoundDuration":211110,"Delta":195824446},{"NoteNumber":76,"Velocity":23,"Duration":211110,"SoundDuration":211110,"Delta":195824446},{"NoteNumber":80,"Velocity":27,"Duration":211110,"SoundDuration":211110,"Delta":195824446},{"NoteNumber":52,"Velocity":26,"Duration":211110,"SoundDuration":211110,"Delta":195824446},{"NoteNumber":49,"Velocity":22,"Duration":211110,"SoundDuration":211110,"Delta":195824446},{"NoteNumber":44,"Velocity":22,"Duration":211110,"SoundDuration":211110,"Delta":195824446},{"NoteNumber":73,"Velocity":23,"Duration":211110,"SoundDuration":211110,"Delta":196046668},{"NoteNumber":76,"Velocity":23,"Duration":211110,"SoundDuration":211110,"Delta":196046668},{"NoteNumber":80,"Velocity":27,"Duration":211110,"SoundDuration":211110,"Delta":196046668},{"NoteNumber":52,"Velocity":26,"Duration":211110,"SoundDuration":211110,"Delta":196046668},{"NoteNumber":49,"Velocity":22,"Duration":211110,"SoundDuration":211110,"Delta":196046668},{"NoteNumber":44,"Velocity":22,"Duration":211110,"SoundDuration":211110,"Delta":196046668},{"NoteNumber":73,"Velocity":20,"Duration":211110,"SoundDuration":211110,"Delta":196268890},{"NoteNumber":76,"Velocity":20,"Duration":211110,"SoundDuration":211110,"Delta":196268890},{"NoteNumber":80,"Velocity":25,"Duration":211110,"SoundDuration":211110,"Delta":196268890},{"NoteNumber":52,"Velocity":26,"Duration":211110,"SoundDuration":211110,"Delta":196268890},{"NoteNumber":49,"Velocity":22,"Duration":211110,"SoundDuration":211110,"Delta":196268890},{"NoteNumber":44,"Velocity":22,"Duration":211110,"SoundDuration":211110,"Delta":196268890},{"NoteNumber":80,"Velocity":60,"Duration":1435107,"SoundDuration":1435107,"Delta":196491112},{"NoteNumber":32,"Velocity":26,"Duration":211110,"SoundDuration":211110,"Delta":196491112},{"NoteNumber":72,"Velocity":22,"Duration":211110,"SoundDuration":211110,"Delta":196713334},{"NoteNumber":75,"Velocity":22,"Duration":211110,"SoundDuration":211110,"Delta":196713334},{"NoteNumber":51,"Velocity":24,"Duration":211110,"SoundDuration":211110,"Delta":196713334},{"NoteNumber":48,"Velocity":19,"Duration":211110,"SoundDuration":211110,"Delta":196713334},{"NoteNumber":44,"Velocity":19,"Duration":211110,"SoundDuration":211110,"Delta":196713334},{"NoteNumber":72,"Velocity":20,"Duration":211110,"SoundDuration":211110,"Delta":196935556},{"NoteNumber":75,"Velocity":20,"Duration":211110,"SoundDuration":211110,"Delta":196935556},{"NoteNumber":51,"Velocity":24,"Duration":211110,"SoundDuration":211110,"Delta":196935556},{"NoteNumber":48,"Velocity":19,"Duration":211110,"SoundDuration":211110,"Delta":196935556},{"NoteNumber":44,"Velocity":19,"Duration":211110,"SoundDuration":211110,"Delta":196935556},{"NoteNumber":72,"Velocity":20,"Duration":211110,"SoundDuration":211110,"Delta":197157778},{"NoteNumber":75,"Velocity":20,"Duration":211110,"SoundDuration":211110,"Delta":197157778},{"NoteNumber":51,"Velocity":22,"Duration":211110,"SoundDuration":211110,"Delta":197157778},{"NoteNumber":48,"Velocity":18,"Duration":211110,"SoundDuration":211110,"Delta":197157778},{"NoteNumber":44,"Velocity":18,"Duration":211110,"SoundDuration":211110,"Delta":197157778},{"NoteNumber":72,"Velocity":20,"Duration":258548,"SoundDuration":258548,"Delta":197380000},{"NoteNumber":75,"Velocity":20,"Duration":258548,"SoundDuration":258548,"Delta":197380000},{"NoteNumber":51,"Velocity":22,"Duration":258548,"SoundDuration":258548,"Delta":197380000},{"NoteNumber":48,"Velocity":17,"Duration":258548,"SoundDuration":258548,"Delta":197380000},{"NoteNumber":44,"Velocity":17,"Duration":258548,"SoundDuration":258548,"Delta":197380000},{"NoteNumber":72,"Velocity":20,"Duration":260273,"SoundDuration":260273,"Delta":197652248},{"NoteNumber":75,"Velocity":20,"Duration":260273,"SoundDuration":260273,"Delta":197652248},{"NoteNumber":51,"Velocity":22,"Duration":260273,"SoundDuration":260273,"Delta":197652248},{"NoteNumber":48,"Velocity":17,"Duration":260273,"SoundDuration":260273,"Delta":197652248},{"NoteNumber":44,"Velocity":17,"Duration":260273,"SoundDuration":260273,"Delta":197652248},{"NoteNumber":68,"Velocity":48,"Duration":1346902,"SoundDuration":1346902,"Delta":197926220},{"NoteNumber":37,"Velocity":42,"Duration":217557,"SoundDuration":217557,"Delta":197926220},{"NoteNumber":65,"Velocity":27,"Duration":217557,"SoundDuration":217557,"Delta":198155228},{"NoteNumber":56,"Velocity":27,"Duration":217557,"SoundDuration":217557,"Delta":198155228},{"NoteNumber":53,"Velocity":26,"Duration":217557,"SoundDuration":217557,"Delta":198155228},{"NoteNumber":49,"Velocity":22,"Duration":217557,"SoundDuration":217557,"Delta":198155228},{"NoteNumber":44,"Velocity":22,"Duration":217557,"SoundDuration":217557,"Delta":198155228},{"NoteNumber":65,"Velocity":26,"Duration":211110,"SoundDuration":211110,"Delta":198384235},{"NoteNumber":56,"Velocity":26,"Duration":211110,"SoundDuration":211110,"Delta":198384235},{"NoteNumber":53,"Velocity":26,"Duration":211110,"SoundDuration":211110,"Delta":198384235},{"NoteNumber":44,"Velocity":22,"Duration":211110,"SoundDuration":211110,"Delta":198384235},{"NoteNumber":49,"Velocity":22,"Duration":211110,"SoundDuration":211110,"Delta":198384235},{"NoteNumber":65,"Velocity":26,"Duration":211110,"SoundDuration":211110,"Delta":198606457},{"NoteNumber":56,"Velocity":26,"Duration":211110,"SoundDuration":211110,"Delta":198606457},{"NoteNumber":53,"Velocity":26,"Duration":211110,"SoundDuration":211110,"Delta":198606457},{"NoteNumber":44,"Velocity":22,"Duration":211110,"SoundDuration":211110,"Delta":198606457},{"NoteNumber":49,"Velocity":22,"Duration":211110,"SoundDuration":211110,"Delta":198606457},{"NoteNumber":65,"Velocity":26,"Duration":211110,"SoundDuration":211110,"Delta":198828679},{"NoteNumber":56,"Velocity":26,"Duration":211110,"SoundDuration":211110,"Delta":198828679},{"NoteNumber":53,"Velocity":26,"Duration":211110,"SoundDuration":211110,"Delta":198828679},{"NoteNumber":44,"Velocity":22,"Duration":211110,"SoundDuration":211110,"Delta":198828679},{"NoteNumber":49,"Velocity":22,"Duration":211110,"SoundDuration":211110,"Delta":198828679},{"NoteNumber":65,"Velocity":26,"Duration":222222,"SoundDuration":222222,"Delta":199050901},{"NoteNumber":56,"Velocity":26,"Duration":222222,"SoundDuration":222222,"Delta":199050901},{"NoteNumber":53,"Velocity":26,"Duration":211110,"SoundDuration":211110,"Delta":199050901},{"NoteNumber":44,"Velocity":22,"Duration":211110,"SoundDuration":211110,"Delta":199050901},{"NoteNumber":49,"Velocity":22,"Duration":211110,"SoundDuration":211110,"Delta":199050901},{"NoteNumber":68,"Velocity":45,"Duration":500000,"SoundDuration":500000,"Delta":199273123},{"NoteNumber":53,"Velocity":26,"Duration":237500,"SoundDuration":237500,"Delta":199273123},{"NoteNumber":44,"Velocity":22,"Duration":237500,"SoundDuration":237500,"Delta":199273123},{"NoteNumber":49,"Velocity":22,"Duration":237500,"SoundDuration":237500,"Delta":199273123},{"NoteNumber":65,"Velocity":26,"Duration":237500,"SoundDuration":237500,"Delta":199523123},{"NoteNumber":56,"Velocity":26,"Duration":237500,"SoundDuration":237500,"Delta":199523123},{"NoteNumber":53,"Velocity":26,"Duration":237500,"SoundDuration":237500,"Delta":199523123},{"NoteNumber":44,"Velocity":22,"Duration":237500,"SoundDuration":237500,"Delta":199523123},{"NoteNumber":49,"Velocity":22,"Duration":237500,"SoundDuration":237500,"Delta":199523123},{"NoteNumber":70,"Velocity":52,"Duration":428571,"SoundDuration":428571,"Delta":199773123},{"NoteNumber":53,"Velocity":26,"Duration":203571,"SoundDuration":203571,"Delta":199773123},{"NoteNumber":44,"Velocity":22,"Duration":203571,"SoundDuration":203571,"Delta":199773123},{"NoteNumber":49,"Velocity":22,"Duration":203571,"SoundDuration":203571,"Delta":199773123},{"NoteNumber":58,"Velocity":27,"Duration":203571,"SoundDuration":203571,"Delta":199987409},{"NoteNumber":65,"Velocity":27,"Duration":203571,"SoundDuration":203571,"Delta":199987409},{"NoteNumber":53,"Velocity":26,"Duration":203571,"SoundDuration":203571,"Delta":199987409},{"NoteNumber":44,"Velocity":22,"Duration":203571,"SoundDuration":203571,"Delta":199987409},{"NoteNumber":49,"Velocity":22,"Duration":203571,"SoundDuration":203571,"Delta":199987409},{"NoteNumber":68,"Velocity":45,"Duration":444207,"SoundDuration":444207,"Delta":200201694},{"NoteNumber":53,"Velocity":26,"Duration":210846,"SoundDuration":210846,"Delta":200201694},{"NoteNumber":44,"Velocity":22,"Duration":210846,"SoundDuration":210846,"Delta":200201694},{"NoteNumber":49,"Velocity":22,"Duration":210846,"SoundDuration":210846,"Delta":200201694},{"NoteNumber":65,"Velocity":26,"Duration":222249,"SoundDuration":222249,"Delta":200423652},{"NoteNumber":56,"Velocity":26,"Duration":211110,"SoundDuration":211110,"Delta":200423652},{"NoteNumber":53,"Velocity":26,"Duration":211110,"SoundDuration":211110,"Delta":200423652},{"NoteNumber":49,"Velocity":22,"Duration":211110,"SoundDuration":211110,"Delta":200423652},{"NoteNumber":44,"Velocity":22,"Duration":211110,"SoundDuration":211110,"Delta":200423652},{"NoteNumber":70,"Velocity":57,"Duration":1338290,"SoundDuration":1338290,"Delta":200645901},{"NoteNumber":36,"Velocity":41,"Duration":211896,"SoundDuration":211896,"Delta":200645901},{"NoteNumber":56,"Velocity":26,"Duration":211896,"SoundDuration":211896,"Delta":200868950},{"NoteNumber":66,"Velocity":26,"Duration":211896,"SoundDuration":211896,"Delta":200868950},{"NoteNumber":51,"Velocity":22,"Duration":211896,"SoundDuration":211896,"Delta":200868950},{"NoteNumber":54,"Velocity":26,"Duration":211896,"SoundDuration":211896,"Delta":200868950},{"NoteNumber":44,"Velocity":22,"Duration":211896,"SoundDuration":211896,"Delta":200868950},{"NoteNumber":56,"Velocity":26,"Duration":211896,"SoundDuration":211896,"Delta":201091998},{"NoteNumber":66,"Velocity":26,"Duration":211896,"SoundDuration":211896,"Delta":201091998},{"NoteNumber":44,"Velocity":22,"Duration":211896,"SoundDuration":211896,"Delta":201091998},{"NoteNumber":51,"Velocity":22,"Duration":211896,"SoundDuration":211896,"Delta":201091998},{"NoteNumber":54,"Velocity":26,"Duration":211896,"SoundDuration":211896,"Delta":201091998},{"NoteNumber":56,"Velocity":26,"Duration":211896,"SoundDuration":211896,"Delta":201315047},{"NoteNumber":66,"Velocity":26,"Duration":211896,"SoundDuration":211896,"Delta":201315047},{"NoteNumber":44,"Velocity":22,"Duration":211896,"SoundDuration":211896,"Delta":201315047},{"NoteNumber":51,"Velocity":22,"Duration":211896,"SoundDuration":211896,"Delta":201315047},{"NoteNumber":54,"Velocity":26,"Duration":211896,"SoundDuration":211896,"Delta":201315047},{"NoteNumber":56,"Velocity":26,"Duration":211896,"SoundDuration":211896,"Delta":201538095},{"NoteNumber":66,"Velocity":26,"Duration":211896,"SoundDuration":211896,"Delta":201538095},{"NoteNumber":44,"Velocity":22,"Duration":211896,"SoundDuration":211896,"Delta":201538095},{"NoteNumber":51,"Velocity":22,"Duration":211896,"SoundDuration":211896,"Delta":201538095},{"NoteNumber":54,"Velocity":26,"Duration":211896,"SoundDuration":211896,"Delta":201538095},{"NoteNumber":56,"Velocity":26,"Duration":211896,"SoundDuration":211896,"Delta":201761144},{"NoteNumber":66,"Velocity":26,"Duration":211896,"SoundDuration":211896,"Delta":201761144},{"NoteNumber":44,"Velocity":22,"Duration":211896,"SoundDuration":211896,"Delta":201761144},{"NoteNumber":51,"Velocity":22,"Duration":211896,"SoundDuration":211896,"Delta":201761144},{"NoteNumber":54,"Velocity":26,"Duration":211896,"SoundDuration":211896,"Delta":201761144},{"NoteNumber":68,"Velocity":50,"Duration":1338290,"SoundDuration":1338290,"Delta":201984192},{"NoteNumber":44,"Velocity":22,"Duration":211896,"SoundDuration":211896,"Delta":201984192},{"NoteNumber":51,"Velocity":22,"Duration":211896,"SoundDuration":211896,"Delta":201984192},{"NoteNumber":54,"Velocity":26,"Duration":211896,"SoundDuration":211896,"Delta":201984192},{"NoteNumber":56,"Velocity":28,"Duration":211896,"SoundDuration":211896,"Delta":202207241},{"NoteNumber":66,"Velocity":28,"Duration":211896,"SoundDuration":211896,"Delta":202207241},{"NoteNumber":44,"Velocity":22,"Duration":211896,"SoundDuration":211896,"Delta":202207241},{"NoteNumber":51,"Velocity":22,"Duration":211896,"SoundDuration":211896,"Delta":202207241},{"NoteNumber":54,"Velocity":26,"Duration":211896,"SoundDuration":211896,"Delta":202207241},{"NoteNumber":56,"Velocity":29,"Duration":211896,"SoundDuration":211896,"Delta":202430289},{"NoteNumber":66,"Velocity":29,"Duration":211896,"SoundDuration":211896,"Delta":202430289},{"NoteNumber":44,"Velocity":22,"Duration":211896,"SoundDuration":211896,"Delta":202430289},{"NoteNumber":51,"Velocity":22,"Duration":211896,"SoundDuration":211896,"Delta":202430289},{"NoteNumber":54,"Velocity":26,"Duration":211896,"SoundDuration":211896,"Delta":202430289},{"NoteNumber":56,"Velocity":29,"Duration":211896,"SoundDuration":211896,"Delta":202653338},{"NoteNumber":66,"Velocity":29,"Duration":211896,"SoundDuration":211896,"Delta":202653338},{"NoteNumber":44,"Velocity":22,"Duration":211896,"SoundDuration":211896,"Delta":202653338},{"NoteNumber":51,"Velocity":22,"Duration":211896,"SoundDuration":211896,"Delta":202653338},{"NoteNumber":54,"Velocity":26,"Duration":211896,"SoundDuration":211896,"Delta":202653338},{"NoteNumber":56,"Velocity":29,"Duration":211896,"SoundDuration":211896,"Delta":202876386},{"NoteNumber":66,"Velocity":29,"Duration":211896,"SoundDuration":211896,"Delta":202876386},{"NoteNumber":51,"Velocity":22,"Duration":211896,"SoundDuration":211896,"Delta":202876386},{"NoteNumber":44,"Velocity":22,"Duration":211896,"SoundDuration":211896,"Delta":202876386},{"NoteNumber":54,"Velocity":26,"Duration":211896,"SoundDuration":211896,"Delta":202876386},{"NoteNumber":56,"Velocity":29,"Duration":211896,"SoundDuration":211896,"Delta":203099435},{"NoteNumber":66,"Velocity":29,"Duration":211896,"SoundDuration":211896,"Delta":203099435},{"NoteNumber":44,"Velocity":22,"Duration":211896,"SoundDuration":211896,"Delta":203099435},{"NoteNumber":51,"Velocity":22,"Duration":211896,"SoundDuration":211896,"Delta":203099435},{"NoteNumber":54,"Velocity":26,"Duration":211896,"SoundDuration":211896,"Delta":203099435},{"NoteNumber":68,"Velocity":52,"Duration":1338290,"SoundDuration":1338290,"Delta":203322483},{"NoteNumber":37,"Velocity":40,"Duration":211896,"SoundDuration":211896,"Delta":203322483},{"NoteNumber":65,"Velocity":26,"Duration":211896,"SoundDuration":211896,"Delta":203545532},{"NoteNumber":56,"Velocity":26,"Duration":211896,"SoundDuration":211896,"Delta":203545532},{"NoteNumber":53,"Velocity":26,"Duration":211896,"SoundDuration":211896,"Delta":203545532},{"NoteNumber":49,"Velocity":22,"Duration":211896,"SoundDuration":211896,"Delta":203545532},{"NoteNumber":44,"Velocity":22,"Duration":211896,"SoundDuration":211896,"Delta":203545532},{"NoteNumber":65,"Velocity":26,"Duration":211896,"SoundDuration":211896,"Delta":203768580},{"NoteNumber":56,"Velocity":26,"Duration":211896,"SoundDuration":211896,"Delta":203768580},{"NoteNumber":53,"Velocity":26,"Duration":211896,"SoundDuration":211896,"Delta":203768580},{"NoteNumber":44,"Velocity":22,"Duration":211896,"SoundDuration":211896,"Delta":203768580},{"NoteNumber":49,"Velocity":22,"Duration":211896,"SoundDuration":211896,"Delta":203768580},{"NoteNumber":65,"Velocity":26,"Duration":211896,"SoundDuration":211896,"Delta":203991629},{"NoteNumber":56,"Velocity":26,"Duration":211896,"SoundDuration":211896,"Delta":203991629},{"NoteNumber":53,"Velocity":26,"Duration":211896,"SoundDuration":211896,"Delta":203991629},{"NoteNumber":44,"Velocity":22,"Duration":211896,"SoundDuration":211896,"Delta":203991629},{"NoteNumber":49,"Velocity":22,"Duration":211896,"SoundDuration":211896,"Delta":203991629},{"NoteNumber":65,"Velocity":26,"Duration":211896,"SoundDuration":211896,"Delta":204214677},{"NoteNumber":56,"Velocity":26,"Duration":211896,"SoundDuration":211896,"Delta":204214677},{"NoteNumber":53,"Velocity":26,"Duration":211896,"SoundDuration":211896,"Delta":204214677},{"NoteNumber":44,"Velocity":22,"Duration":211896,"SoundDuration":211896,"Delta":204214677},{"NoteNumber":49,"Velocity":22,"Duration":211896,"SoundDuration":211896,"Delta":204214677},{"NoteNumber":65,"Velocity":27,"Duration":211896,"SoundDuration":211896,"Delta":204437726},{"NoteNumber":56,"Velocity":27,"Duration":211896,"SoundDuration":211896,"Delta":204437726},{"NoteNumber":53,"Velocity":26,"Duration":211896,"SoundDuration":211896,"Delta":204437726},{"NoteNumber":44,"Velocity":22,"Duration":211896,"SoundDuration":211896,"Delta":204437726},{"NoteNumber":49,"Velocity":22,"Duration":211896,"SoundDuration":211896,"Delta":204437726},{"NoteNumber":77,"Velocity":64,"Duration":428863,"SoundDuration":428863,"Delta":204660774},{"NoteNumber":53,"Velocity":26,"Duration":203863,"SoundDuration":203863,"Delta":204660774},{"NoteNumber":44,"Velocity":22,"Duration":203863,"SoundDuration":203863,"Delta":204660774},{"NoteNumber":49,"Velocity":22,"Duration":203863,"SoundDuration":203863,"Delta":204660774},{"NoteNumber":65,"Velocity":28,"Duration":203571,"SoundDuration":203571,"Delta":204875352},{"NoteNumber":68,"Velocity":28,"Duration":203571,"SoundDuration":203571,"Delta":204875352},{"NoteNumber":53,"Velocity":26,"Duration":203571,"SoundDuration":203571,"Delta":204875352},{"NoteNumber":44,"Velocity":22,"Duration":203571,"SoundDuration":203571,"Delta":204875352},{"NoteNumber":49,"Velocity":22,"Duration":203571,"SoundDuration":203571,"Delta":204875352},{"NoteNumber":75,"Velocity":59,"Duration":428571,"SoundDuration":428571,"Delta":205089637},{"NoteNumber":53,"Velocity":26,"Duration":203571,"SoundDuration":203571,"Delta":205089637},{"NoteNumber":44,"Velocity":22,"Duration":203571,"SoundDuration":203571,"Delta":205089637},{"NoteNumber":49,"Velocity":22,"Duration":203571,"SoundDuration":203571,"Delta":205089637},{"NoteNumber":63,"Velocity":27,"Duration":203571,"SoundDuration":203571,"Delta":205303923},{"NoteNumber":68,"Velocity":27,"Duration":203571,"SoundDuration":203571,"Delta":205303923},{"NoteNumber":53,"Velocity":26,"Duration":203571,"SoundDuration":203571,"Delta":205303923},{"NoteNumber":44,"Velocity":22,"Duration":203571,"SoundDuration":203571,"Delta":205303923},{"NoteNumber":49,"Velocity":22,"Duration":203571,"SoundDuration":203571,"Delta":205303923},{"NoteNumber":73,"Velocity":60,"Duration":522426,"SoundDuration":522426,"Delta":205518208},{"NoteNumber":53,"Velocity":26,"Duration":247317,"SoundDuration":247317,"Delta":205518208},{"NoteNumber":44,"Velocity":22,"Duration":247317,"SoundDuration":247317,"Delta":205518208},{"NoteNumber":49,"Velocity":22,"Duration":247317,"SoundDuration":247317,"Delta":205518208},{"NoteNumber":61,"Velocity":27,"Duration":248908,"SoundDuration":248908,"Delta":205778626},{"NoteNumber":68,"Velocity":27,"Duration":248908,"SoundDuration":248908,"Delta":205778626},{"NoteNumber":53,"Velocity":26,"Duration":248908,"SoundDuration":248908,"Delta":205778626},{"NoteNumber":49,"Velocity":22,"Duration":248908,"SoundDuration":248908,"Delta":205778626},{"NoteNumber":44,"Velocity":22,"Duration":248908,"SoundDuration":248908,"Delta":205778626},{"NoteNumber":73,"Velocity":60,"Duration":1334658,"SoundDuration":1334658,"Delta":206040635},{"NoteNumber":39,"Velocity":39,"Duration":212437,"SoundDuration":212437,"Delta":206040635},{"NoteNumber":61,"Velocity":27,"Duration":211110,"SoundDuration":211110,"Delta":206264183},{"NoteNumber":68,"Velocity":27,"Duration":211110,"SoundDuration":211110,"Delta":206264183},{"NoteNumber":51,"Velocity":22,"Duration":211110,"SoundDuration":211110,"Delta":206264183},{"NoteNumber":54,"Velocity":26,"Duration":211110,"SoundDuration":211110,"Delta":206264183},{"NoteNumber":44,"Velocity":22,"Duration":211110,"SoundDuration":211110,"Delta":206264183},{"NoteNumber":61,"Velocity":27,"Duration":211110,"SoundDuration":211110,"Delta":206486405},{"NoteNumber":68,"Velocity":27,"Duration":211110,"SoundDuration":211110,"Delta":206486405},{"NoteNumber":44,"Velocity":22,"Duration":211110,"SoundDuration":211110,"Delta":206486405},{"NoteNumber":51,"Velocity":22,"Duration":211110,"SoundDuration":211110,"Delta":206486405},{"NoteNumber":54,"Velocity":26,"Duration":211110,"SoundDuration":211110,"Delta":206486405},{"NoteNumber":61,"Velocity":27,"Duration":211110,"SoundDuration":211110,"Delta":206708627},{"NoteNumber":68,"Velocity":27,"Duration":211110,"SoundDuration":211110,"Delta":206708627},{"NoteNumber":44,"Velocity":22,"Duration":211110,"SoundDuration":211110,"Delta":206708627},{"NoteNumber":51,"Velocity":22,"Duration":211110,"SoundDuration":211110,"Delta":206708627},{"NoteNumber":54,"Velocity":26,"Duration":211110,"SoundDuration":211110,"Delta":206708627},{"NoteNumber":61,"Velocity":27,"Duration":211110,"SoundDuration":211110,"Delta":206930849},{"NoteNumber":68,"Velocity":27,"Duration":211110,"SoundDuration":211110,"Delta":206930849},{"NoteNumber":44,"Velocity":22,"Duration":211110,"SoundDuration":211110,"Delta":206930849},{"NoteNumber":51,"Velocity":22,"Duration":211110,"SoundDuration":211110,"Delta":206930849},{"NoteNumber":54,"Velocity":26,"Duration":211110,"SoundDuration":211110,"Delta":206930849},{"NoteNumber":61,"Velocity":27,"Duration":211110,"SoundDuration":211110,"Delta":207153071},{"NoteNumber":68,"Velocity":27,"Duration":211110,"SoundDuration":211110,"Delta":207153071},{"NoteNumber":44,"Velocity":22,"Duration":211110,"SoundDuration":211110,"Delta":207153071},{"NoteNumber":51,"Velocity":22,"Duration":211110,"SoundDuration":211110,"Delta":207153071},{"NoteNumber":54,"Velocity":26,"Duration":211110,"SoundDuration":211110,"Delta":207153071},{"NoteNumber":72,"Velocity":61,"Duration":1333956,"SoundDuration":1333956,"Delta":207375293},{"NoteNumber":44,"Velocity":22,"Duration":211110,"SoundDuration":211110,"Delta":207375293},{"NoteNumber":51,"Velocity":22,"Duration":211110,"SoundDuration":211110,"Delta":207375293},{"NoteNumber":54,"Velocity":26,"Duration":211110,"SoundDuration":211110,"Delta":207375293},{"NoteNumber":60,"Velocity":27,"Duration":211110,"SoundDuration":211110,"Delta":207597515},{"NoteNumber":68,"Velocity":27,"Duration":211110,"SoundDuration":211110,"Delta":207597515},{"NoteNumber":44,"Velocity":22,"Duration":211110,"SoundDuration":211110,"Delta":207597515},{"NoteNumber":51,"Velocity":22,"Duration":211110,"SoundDuration":211110,"Delta":207597515},{"NoteNumber":54,"Velocity":26,"Duration":211110,"SoundDuration":211110,"Delta":207597515},{"NoteNumber":60,"Velocity":27,"Duration":211110,"SoundDuration":211110,"Delta":207819737},{"NoteNumber":68,"Velocity":27,"Duration":211110,"SoundDuration":211110,"Delta":207819737},{"NoteNumber":44,"Velocity":22,"Duration":211110,"SoundDuration":211110,"Delta":207819737},{"NoteNumber":51,"Velocity":22,"Duration":211110,"SoundDuration":211110,"Delta":207819737},{"NoteNumber":54,"Velocity":26,"Duration":211110,"SoundDuration":211110,"Delta":207819737},{"NoteNumber":60,"Velocity":27,"Duration":211110,"SoundDuration":211110,"Delta":208041959},{"NoteNumber":68,"Velocity":27,"Duration":211110,"SoundDuration":211110,"Delta":208041959},{"NoteNumber":44,"Velocity":22,"Duration":211110,"SoundDuration":211110,"Delta":208041959},{"NoteNumber":51,"Velocity":22,"Duration":211110,"SoundDuration":211110,"Delta":208041959},{"NoteNumber":54,"Velocity":26,"Duration":211110,"SoundDuration":211110,"Delta":208041959},{"NoteNumber":60,"Velocity":27,"Duration":211110,"SoundDuration":211110,"Delta":208264181},{"NoteNumber":68,"Velocity":27,"Duration":211110,"SoundDuration":211110,"Delta":208264181},{"NoteNumber":51,"Velocity":22,"Duration":211110,"SoundDuration":211110,"Delta":208264181},{"NoteNumber":44,"Velocity":22,"Duration":211110,"SoundDuration":211110,"Delta":208264181},{"NoteNumber":54,"Velocity":26,"Duration":211110,"SoundDuration":211110,"Delta":208264181},{"NoteNumber":60,"Velocity":27,"Duration":211110,"SoundDuration":211110,"Delta":208486403},{"NoteNumber":68,"Velocity":27,"Duration":211110,"SoundDuration":211110,"Delta":208486403},{"NoteNumber":44,"Velocity":22,"Duration":211110,"SoundDuration":211110,"Delta":208486403},{"NoteNumber":51,"Velocity":22,"Duration":211110,"SoundDuration":211110,"Delta":208486403},{"NoteNumber":54,"Velocity":26,"Duration":211110,"SoundDuration":211110,"Delta":208486403},{"NoteNumber":72,"Velocity":58,"Duration":481064,"SoundDuration":481064,"Delta":208709250},{"NoteNumber":40,"Velocity":42,"Duration":228915,"SoundDuration":228915,"Delta":208709250},{"NoteNumber":60,"Velocity":35,"Duration":228915,"SoundDuration":228915,"Delta":208950214},{"NoteNumber":69,"Velocity":35,"Duration":228915,"SoundDuration":228915,"Delta":208950214},{"NoteNumber":52,"Velocity":35,"Duration":228915,"SoundDuration":228915,"Delta":208950214},{"NoteNumber":45,"Velocity":29,"Duration":228915,"SoundDuration":228915,"Delta":208950214},{"NoteNumber":73,"Velocity":68,"Duration":1290323,"SoundDuration":1290323,"Delta":209190314},{"NoteNumber":45,"Velocity":29,"Duration":204301,"SoundDuration":204301,"Delta":209190314},{"NoteNumber":52,"Velocity":35,"Duration":204301,"SoundDuration":204301,"Delta":209190314},{"NoteNumber":61,"Velocity":35,"Duration":204301,"SoundDuration":204301,"Delta":209405368},{"NoteNumber":69,"Velocity":35,"Duration":204301,"SoundDuration":204301,"Delta":209405368},{"NoteNumber":45,"Velocity":29,"Duration":204301,"SoundDuration":204301,"Delta":209405368},{"NoteNumber":52,"Velocity":35,"Duration":204301,"SoundDuration":204301,"Delta":209405368},{"NoteNumber":61,"Velocity":35,"Duration":204301,"SoundDuration":204301,"Delta":209620422},{"NoteNumber":69,"Velocity":35,"Duration":204301,"SoundDuration":204301,"Delta":209620422},{"NoteNumber":45,"Velocity":29,"Duration":204301,"SoundDuration":204301,"Delta":209620422},{"NoteNumber":52,"Velocity":35,"Duration":204301,"SoundDuration":204301,"Delta":209620422},{"NoteNumber":61,"Velocity":35,"Duration":204301,"SoundDuration":204301,"Delta":209835476},{"NoteNumber":69,"Velocity":35,"Duration":204301,"SoundDuration":204301,"Delta":209835476},{"NoteNumber":45,"Velocity":29,"Duration":204301,"SoundDuration":204301,"Delta":209835476},{"NoteNumber":52,"Velocity":35,"Duration":204301,"SoundDuration":204301,"Delta":209835476},{"NoteNumber":61,"Velocity":35,"Duration":204301,"SoundDuration":204301,"Delta":210050530},{"NoteNumber":69,"Velocity":35,"Duration":204301,"SoundDuration":204301,"Delta":210050530},{"NoteNumber":52,"Velocity":35,"Duration":204301,"SoundDuration":204301,"Delta":210050530},{"NoteNumber":45,"Velocity":29,"Duration":204301,"SoundDuration":204301,"Delta":210050530},{"NoteNumber":61,"Velocity":35,"Duration":204301,"SoundDuration":204301,"Delta":210265584},{"NoteNumber":69,"Velocity":35,"Duration":204301,"SoundDuration":204301,"Delta":210265584},{"NoteNumber":45,"Velocity":29,"Duration":204301,"SoundDuration":204301,"Delta":210265584},{"NoteNumber":52,"Velocity":35,"Duration":204301,"SoundDuration":204301,"Delta":210265584},{"NoteNumber":73,"Velocity":70,"Duration":430108,"SoundDuration":430108,"Delta":210480638},{"NoteNumber":40,"Velocity":35,"Duration":430108,"SoundDuration":430108,"Delta":210480638},{"NoteNumber":61,"Velocity":35,"Duration":215054,"SoundDuration":215054,"Delta":210695692},{"NoteNumber":69,"Velocity":35,"Duration":215054,"SoundDuration":215054,"Delta":210695692},{"NoteNumber":52,"Velocity":35,"Duration":215054,"SoundDuration":215054,"Delta":210695692},{"NoteNumber":45,"Velocity":29,"Duration":215054,"SoundDuration":215054,"Delta":210695692},{"NoteNumber":73,"Velocity":69,"Duration":430939,"SoundDuration":430939,"Delta":210910746},{"NoteNumber":40,"Velocity":35,"Duration":430939,"SoundDuration":430939,"Delta":210910746},{"NoteNumber":61,"Velocity":35,"Duration":215885,"SoundDuration":215885,"Delta":211125800},{"NoteNumber":69,"Velocity":35,"Duration":215885,"SoundDuration":215885,"Delta":211125800},{"NoteNumber":52,"Velocity":35,"Duration":215885,"SoundDuration":215885,"Delta":211125800},{"NoteNumber":45,"Velocity":29,"Duration":215885,"SoundDuration":215885,"Delta":211125800},{"NoteNumber":73,"Velocity":70,"Duration":479999,"SoundDuration":479999,"Delta":211341685},{"NoteNumber":35,"Velocity":42,"Duration":227999,"SoundDuration":227999,"Delta":211341685},{"NoteNumber":61,"Velocity":44,"Duration":228000,"SoundDuration":228000,"Delta":211581685},{"NoteNumber":68,"Velocity":44,"Duration":228000,"SoundDuration":228000,"Delta":211581685},{"NoteNumber":47,"Velocity":38,"Duration":228000,"SoundDuration":228000,"Delta":211581685},{"NoteNumber":40,"Velocity":31,"Duration":228000,"SoundDuration":228000,"Delta":211581685},{"NoteNumber":74,"Velocity":78,"Duration":1294964,"SoundDuration":1294964,"Delta":211821685},{"NoteNumber":40,"Velocity":31,"Duration":205036,"SoundDuration":205036,"Delta":211821685},{"NoteNumber":47,"Velocity":38,"Duration":205036,"SoundDuration":205036,"Delta":211821685},{"NoteNumber":62,"Velocity":44,"Duration":205036,"SoundDuration":205036,"Delta":212037513},{"NoteNumber":68,"Velocity":44,"Duration":205036,"SoundDuration":205036,"Delta":212037513},{"NoteNumber":40,"Velocity":31,"Duration":205036,"SoundDuration":205036,"Delta":212037513},{"NoteNumber":47,"Velocity":38,"Duration":205036,"SoundDuration":205036,"Delta":212037513},{"NoteNumber":62,"Velocity":44,"Duration":205036,"SoundDuration":205036,"Delta":212253340},{"NoteNumber":68,"Velocity":44,"Duration":205036,"SoundDuration":205036,"Delta":212253340},{"NoteNumber":47,"Velocity":38,"Duration":205036,"SoundDuration":205036,"Delta":212253340},{"NoteNumber":40,"Velocity":31,"Duration":205036,"SoundDuration":205036,"Delta":212253340},{"NoteNumber":62,"Velocity":44,"Duration":205036,"SoundDuration":205036,"Delta":212469168},{"NoteNumber":68,"Velocity":44,"Duration":205036,"SoundDuration":205036,"Delta":212469168},{"NoteNumber":40,"Velocity":31,"Duration":205036,"SoundDuration":205036,"Delta":212469168},{"NoteNumber":47,"Velocity":38,"Duration":205036,"SoundDuration":205036,"Delta":212469168},{"NoteNumber":62,"Velocity":44,"Duration":205036,"SoundDuration":205036,"Delta":212684995},{"NoteNumber":68,"Velocity":44,"Duration":205036,"SoundDuration":205036,"Delta":212684995},{"NoteNumber":40,"Velocity":34,"Duration":205036,"SoundDuration":205036,"Delta":212684995},{"NoteNumber":47,"Velocity":39,"Duration":205036,"SoundDuration":205036,"Delta":212684995},{"NoteNumber":62,"Velocity":44,"Duration":205036,"SoundDuration":205036,"Delta":212900823},{"NoteNumber":68,"Velocity":44,"Duration":205036,"SoundDuration":205036,"Delta":212900823},{"NoteNumber":40,"Velocity":34,"Duration":205036,"SoundDuration":205036,"Delta":212900823},{"NoteNumber":47,"Velocity":39,"Duration":205036,"SoundDuration":205036,"Delta":212900823},{"NoteNumber":74,"Velocity":75,"Duration":431655,"SoundDuration":431655,"Delta":213116650},{"NoteNumber":35,"Velocity":39,"Duration":431655,"SoundDuration":431655,"Delta":213116650},{"NoteNumber":62,"Velocity":44,"Duration":215827,"SoundDuration":215827,"Delta":213332478},{"NoteNumber":68,"Velocity":44,"Duration":215827,"SoundDuration":215827,"Delta":213332478},{"NoteNumber":40,"Velocity":34,"Duration":215827,"SoundDuration":215827,"Delta":213332478},{"NoteNumber":47,"Velocity":39,"Duration":215827,"SoundDuration":215827,"Delta":213332478},{"NoteNumber":74,"Velocity":75,"Duration":432428,"SoundDuration":432428,"Delta":213548305},{"NoteNumber":35,"Velocity":39,"Duration":432428,"SoundDuration":432428,"Delta":213548305},{"NoteNumber":62,"Velocity":44,"Duration":216601,"SoundDuration":216601,"Delta":213764133},{"NoteNumber":68,"Velocity":44,"Duration":216601,"SoundDuration":216601,"Delta":213764133},{"NoteNumber":47,"Velocity":39,"Duration":216601,"SoundDuration":216601,"Delta":213764133},{"NoteNumber":40,"Velocity":34,"Duration":216601,"SoundDuration":216601,"Delta":213764133},{"NoteNumber":77,"Velocity":84,"Duration":479999,"SoundDuration":479999,"Delta":213980734},{"NoteNumber":38,"Velocity":49,"Duration":240000,"SoundDuration":240000,"Delta":213980734},{"NoteNumber":65,"Velocity":46,"Duration":227999,"SoundDuration":227999,"Delta":214220734},{"NoteNumber":74,"Velocity":46,"Duration":227999,"SoundDuration":227999,"Delta":214220734},{"NoteNumber":45,"Velocity":35,"Duration":227999,"SoundDuration":227999,"Delta":214220734},{"NoteNumber":50,"Velocity":42,"Duration":227999,"SoundDuration":227999,"Delta":214220734},{"NoteNumber":78,"Velocity":88,"Duration":1294964,"SoundDuration":1294964,"Delta":214460734},{"NoteNumber":45,"Velocity":35,"Duration":205036,"SoundDuration":205036,"Delta":214460734},{"NoteNumber":50,"Velocity":42,"Duration":205036,"SoundDuration":205036,"Delta":214460734},{"NoteNumber":66,"Velocity":48,"Duration":205036,"SoundDuration":205036,"Delta":214676562},{"NoteNumber":74,"Velocity":48,"Duration":205036,"SoundDuration":205036,"Delta":214676562},{"NoteNumber":45,"Velocity":35,"Duration":205036,"SoundDuration":205036,"Delta":214676562},{"NoteNumber":50,"Velocity":42,"Duration":205036,"SoundDuration":205036,"Delta":214676562},{"NoteNumber":66,"Velocity":47,"Duration":205036,"SoundDuration":205036,"Delta":214892389},{"NoteNumber":74,"Velocity":47,"Duration":205036,"SoundDuration":205036,"Delta":214892389},{"NoteNumber":45,"Velocity":35,"Duration":205036,"SoundDuration":205036,"Delta":214892389},{"NoteNumber":50,"Velocity":42,"Duration":205036,"SoundDuration":205036,"Delta":214892389},{"NoteNumber":66,"Velocity":47,"Duration":205036,"SoundDuration":205036,"Delta":215108217},{"NoteNumber":74,"Velocity":47,"Duration":205036,"SoundDuration":205036,"Delta":215108217},{"NoteNumber":45,"Velocity":35,"Duration":205036,"SoundDuration":205036,"Delta":215108217},{"NoteNumber":50,"Velocity":42,"Duration":205036,"SoundDuration":205036,"Delta":215108217},{"NoteNumber":66,"Velocity":47,"Duration":205036,"SoundDuration":205036,"Delta":215324044},{"NoteNumber":74,"Velocity":47,"Duration":205036,"SoundDuration":205036,"Delta":215324044},{"NoteNumber":50,"Velocity":46,"Duration":205036,"SoundDuration":205036,"Delta":215324044},{"NoteNumber":45,"Velocity":39,"Duration":205036,"SoundDuration":205036,"Delta":215324044},{"NoteNumber":66,"Velocity":47,"Duration":205036,"SoundDuration":205036,"Delta":215539872},{"NoteNumber":74,"Velocity":47,"Duration":205036,"SoundDuration":205036,"Delta":215539872},{"NoteNumber":50,"Velocity":45,"Duration":205036,"SoundDuration":205036,"Delta":215539872},{"NoteNumber":45,"Velocity":38,"Duration":205036,"SoundDuration":205036,"Delta":215539872},{"NoteNumber":78,"Velocity":86,"Duration":431655,"SoundDuration":431655,"Delta":215755699},{"NoteNumber":38,"Velocity":45,"Duration":431655,"SoundDuration":431655,"Delta":215755699},{"NoteNumber":66,"Velocity":48,"Duration":215827,"SoundDuration":215827,"Delta":215971527},{"NoteNumber":74,"Velocity":48,"Duration":215827,"SoundDuration":215827,"Delta":215971527},{"NoteNumber":50,"Velocity":45,"Duration":215827,"SoundDuration":215827,"Delta":215971527},{"NoteNumber":45,"Velocity":38,"Duration":215827,"SoundDuration":215827,"Delta":215971527},{"NoteNumber":78,"Velocity":86,"Duration":432428,"SoundDuration":432428,"Delta":216187354},{"NoteNumber":38,"Velocity":45,"Duration":432428,"SoundDuration":432428,"Delta":216187354},{"NoteNumber":66,"Velocity":47,"Duration":216601,"SoundDuration":216601,"Delta":216403182},{"NoteNumber":74,"Velocity":47,"Duration":216601,"SoundDuration":216601,"Delta":216403182},{"NoteNumber":50,"Velocity":45,"Duration":216601,"SoundDuration":216601,"Delta":216403182},{"NoteNumber":45,"Velocity":38,"Duration":216601,"SoundDuration":216601,"Delta":216403182},{"NoteNumber":78,"Velocity":86,"Duration":479999,"SoundDuration":479999,"Delta":216619783},{"NoteNumber":33,"Velocity":45,"Duration":479999,"SoundDuration":479999,"Delta":216619783},{"NoteNumber":66,"Velocity":47,"Duration":239999,"SoundDuration":239999,"Delta":216859783},{"NoteNumber":73,"Velocity":47,"Duration":239999,"SoundDuration":239999,"Delta":216859783},{"NoteNumber":45,"Velocity":45,"Duration":239999,"SoundDuration":239999,"Delta":216859783},{"NoteNumber":40,"Velocity":38,"Duration":239999,"SoundDuration":239999,"Delta":216859783},{"NoteNumber":79,"Velocity":96,"Duration":1294964,"SoundDuration":1294964,"Delta":217099783},{"NoteNumber":33,"Velocity":45,"Duration":215827,"SoundDuration":215827,"Delta":217099783},{"NoteNumber":67,"Velocity":49,"Duration":205036,"SoundDuration":205036,"Delta":217315611},{"NoteNumber":73,"Velocity":49,"Duration":205036,"SoundDuration":205036,"Delta":217315611},{"NoteNumber":45,"Velocity":45,"Duration":205036,"SoundDuration":205036,"Delta":217315611},{"NoteNumber":40,"Velocity":38,"Duration":205036,"SoundDuration":205036,"Delta":217315611},{"NoteNumber":67,"Velocity":49,"Duration":205036,"SoundDuration":205036,"Delta":217531438},{"NoteNumber":73,"Velocity":49,"Duration":205036,"SoundDuration":205036,"Delta":217531438},{"NoteNumber":45,"Velocity":45,"Duration":205036,"SoundDuration":205036,"Delta":217531438},{"NoteNumber":40,"Velocity":38,"Duration":205036,"SoundDuration":205036,"Delta":217531438},{"NoteNumber":67,"Velocity":49,"Duration":205036,"SoundDuration":205036,"Delta":217747266},{"NoteNumber":73,"Velocity":49,"Duration":205036,"SoundDuration":205036,"Delta":217747266},{"NoteNumber":45,"Velocity":45,"Duration":205036,"SoundDuration":205036,"Delta":217747266},{"NoteNumber":40,"Velocity":38,"Duration":205036,"SoundDuration":205036,"Delta":217747266},{"NoteNumber":67,"Velocity":49,"Duration":205036,"SoundDuration":205036,"Delta":217963093},{"NoteNumber":73,"Velocity":49,"Duration":205036,"SoundDuration":205036,"Delta":217963093},{"NoteNumber":45,"Velocity":49,"Duration":205036,"SoundDuration":205036,"Delta":217963093},{"NoteNumber":40,"Velocity":41,"Duration":205036,"SoundDuration":205036,"Delta":217963093},{"NoteNumber":67,"Velocity":49,"Duration":205036,"SoundDuration":205036,"Delta":218178921},{"NoteNumber":73,"Velocity":49,"Duration":205036,"SoundDuration":205036,"Delta":218178921},{"NoteNumber":45,"Velocity":49,"Duration":205036,"SoundDuration":205036,"Delta":218178921},{"NoteNumber":40,"Velocity":41,"Duration":205036,"SoundDuration":205036,"Delta":218178921},{"NoteNumber":79,"Velocity":93,"Duration":431655,"SoundDuration":431655,"Delta":218394748},{"NoteNumber":33,"Velocity":49,"Duration":431655,"SoundDuration":431655,"Delta":218394748},{"NoteNumber":67,"Velocity":48,"Duration":215827,"SoundDuration":215827,"Delta":218610576},{"NoteNumber":73,"Velocity":48,"Duration":215827,"SoundDuration":215827,"Delta":218610576},{"NoteNumber":45,"Velocity":49,"Duration":215827,"SoundDuration":215827,"Delta":218610576},{"NoteNumber":40,"Velocity":41,"Duration":215827,"SoundDuration":215827,"Delta":218610576},{"NoteNumber":79,"Velocity":96,"Duration":432428,"SoundDuration":432428,"Delta":218826403},{"NoteNumber":33,"Velocity":49,"Duration":432428,"SoundDuration":432428,"Delta":218826403},{"NoteNumber":67,"Velocity":50,"Duration":216601,"SoundDuration":216601,"Delta":219042231},{"NoteNumber":73,"Velocity":50,"Duration":216601,"SoundDuration":216601,"Delta":219042231},{"NoteNumber":45,"Velocity":49,"Duration":216601,"SoundDuration":216601,"Delta":219042231},{"NoteNumber":40,"Velocity":41,"Duration":216601,"SoundDuration":216601,"Delta":219042231},{"NoteNumber":81,"Velocity":98,"Duration":477262,"SoundDuration":477262,"Delta":219258832},{"NoteNumber":32,"Velocity":61,"Duration":227091,"SoundDuration":227091,"Delta":219258832},{"NoteNumber":73,"Velocity":51,"Duration":227091,"SoundDuration":227091,"Delta":219497876},{"NoteNumber":69,"Velocity":51,"Duration":227091,"SoundDuration":227091,"Delta":219497876},{"NoteNumber":44,"Velocity":44,"Duration":227091,"SoundDuration":227091,"Delta":219497876},{"NoteNumber":49,"Velocity":44,"Duration":227091,"SoundDuration":227091,"Delta":219497876},{"NoteNumber":52,"Velocity":51,"Duration":227091,"SoundDuration":227091,"Delta":219497876},{"NoteNumber":80,"Velocity":95,"Duration":857434,"SoundDuration":857434,"Delta":219736095},{"NoteNumber":44,"Velocity":44,"Duration":203571,"SoundDuration":203571,"Delta":219736095},{"NoteNumber":49,"Velocity":44,"Duration":203571,"SoundDuration":203571,"Delta":219736095},{"NoteNumber":52,"Velocity":51,"Duration":203571,"SoundDuration":203571,"Delta":219736095},{"NoteNumber":68,"Velocity":51,"Duration":203571,"SoundDuration":203571,"Delta":219950380},{"NoteNumber":73,"Velocity":51,"Duration":203571,"SoundDuration":203571,"Delta":219950380},{"NoteNumber":44,"Velocity":44,"Duration":203571,"SoundDuration":203571,"Delta":219950380},{"NoteNumber":49,"Velocity":44,"Duration":203571,"SoundDuration":203571,"Delta":219950380},{"NoteNumber":52,"Velocity":52,"Duration":203571,"SoundDuration":203571,"Delta":219950380},{"NoteNumber":68,"Velocity":44,"Duration":203571,"SoundDuration":203571,"Delta":220164666},{"NoteNumber":73,"Velocity":44,"Duration":203571,"SoundDuration":203571,"Delta":220164666},{"NoteNumber":44,"Velocity":44,"Duration":203571,"SoundDuration":203571,"Delta":220164666},{"NoteNumber":49,"Velocity":44,"Duration":203571,"SoundDuration":203571,"Delta":220164666},{"NoteNumber":52,"Velocity":52,"Duration":203571,"SoundDuration":203571,"Delta":220164666},{"NoteNumber":68,"Velocity":51,"Duration":203571,"SoundDuration":203571,"Delta":220378951},{"NoteNumber":73,"Velocity":51,"Duration":203571,"SoundDuration":203571,"Delta":220378951},{"NoteNumber":44,"Velocity":44,"Duration":203571,"SoundDuration":203571,"Delta":220378951},{"NoteNumber":49,"Velocity":44,"Duration":203571,"SoundDuration":203571,"Delta":220378951},{"NoteNumber":52,"Velocity":52,"Duration":203571,"SoundDuration":203571,"Delta":220378951},{"NoteNumber":81,"Velocity":97,"Duration":446096,"SoundDuration":446096,"Delta":220593529},{"NoteNumber":32,"Velocity":61,"Duration":211896,"SoundDuration":211896,"Delta":220593529},{"NoteNumber":69,"Velocity":52,"Duration":211896,"SoundDuration":211896,"Delta":220816577},{"NoteNumber":72,"Velocity":52,"Duration":211896,"SoundDuration":211896,"Delta":220816577},{"NoteNumber":44,"Velocity":44,"Duration":211896,"SoundDuration":211896,"Delta":220816577},{"NoteNumber":51,"Velocity":44,"Duration":211896,"SoundDuration":211896,"Delta":220816577},{"NoteNumber":54,"Velocity":52,"Duration":211896,"SoundDuration":211896,"Delta":220816577},{"NoteNumber":80,"Velocity":93,"Duration":933113,"SoundDuration":933113,"Delta":221039626},{"NoteNumber":44,"Velocity":44,"Duration":203571,"SoundDuration":203571,"Delta":221039626},{"NoteNumber":51,"Velocity":44,"Duration":203571,"SoundDuration":203571,"Delta":221039626},{"NoteNumber":54,"Velocity":52,"Duration":203571,"SoundDuration":203571,"Delta":221039626},{"NoteNumber":68,"Velocity":52,"Duration":204183,"SoundDuration":204183,"Delta":221253911},{"NoteNumber":72,"Velocity":52,"Duration":204183,"SoundDuration":204183,"Delta":221253911},{"NoteNumber":44,"Velocity":44,"Duration":204183,"SoundDuration":204183,"Delta":221253911},{"NoteNumber":51,"Velocity":44,"Duration":204183,"SoundDuration":204183,"Delta":221253911},{"NoteNumber":54,"Velocity":52,"Duration":204183,"SoundDuration":204183,"Delta":221253911},{"NoteNumber":68,"Velocity":52,"Duration":238493,"SoundDuration":238493,"Delta":221470648},{"NoteNumber":72,"Velocity":52,"Duration":238493,"SoundDuration":238493,"Delta":221470648},{"NoteNumber":44,"Velocity":44,"Duration":238493,"SoundDuration":238493,"Delta":221470648},{"NoteNumber":51,"Velocity":44,"Duration":238493,"SoundDuration":238493,"Delta":221470648},{"NoteNumber":54,"Velocity":51,"Duration":238493,"SoundDuration":238493,"Delta":221470648},{"NoteNumber":68,"Velocity":52,"Duration":238493,"SoundDuration":238493,"Delta":221721694},{"NoteNumber":72,"Velocity":52,"Duration":238493,"SoundDuration":238493,"Delta":221721694},{"NoteNumber":44,"Velocity":44,"Duration":238493,"SoundDuration":238493,"Delta":221721694},{"NoteNumber":51,"Velocity":44,"Duration":238493,"SoundDuration":238493,"Delta":221721694},{"NoteNumber":54,"Velocity":51,"Duration":238493,"SoundDuration":238493,"Delta":221721694},{"NoteNumber":73,"Velocity":86,"Duration":1806599,"SoundDuration":1806599,"Delta":221972740},{"NoteNumber":37,"Velocity":52,"Duration":238493,"SoundDuration":238493,"Delta":221972740},{"NoteNumber":68,"Velocity":44,"Duration":211110,"SoundDuration":211110,"Delta":222223786},{"NoteNumber":61,"Velocity":44,"Duration":211110,"SoundDuration":211110,"Delta":222223786},{"NoteNumber":64,"Velocity":44,"Duration":211110,"SoundDuration":211110,"Delta":222223786},{"NoteNumber":44,"Velocity":34,"Duration":211110,"SoundDuration":211110,"Delta":222223786},{"NoteNumber":49,"Velocity":34,"Duration":211110,"SoundDuration":211110,"Delta":222223786},{"NoteNumber":52,"Velocity":40,"Duration":211110,"SoundDuration":211110,"Delta":222223786},{"NoteNumber":68,"Velocity":44,"Duration":211110,"SoundDuration":211110,"Delta":222446008},{"NoteNumber":61,"Velocity":44,"Duration":211110,"SoundDuration":211110,"Delta":222446008},{"NoteNumber":64,"Velocity":44,"Duration":211110,"SoundDuration":211110,"Delta":222446008},{"NoteNumber":44,"Velocity":34,"Duration":211110,"SoundDuration":211110,"Delta":222446008},{"NoteNumber":49,"Velocity":34,"Duration":211110,"SoundDuration":211110,"Delta":222446008},{"NoteNumber":52,"Velocity":40,"Duration":211110,"SoundDuration":211110,"Delta":222446008},{"NoteNumber":68,"Velocity":44,"Duration":211110,"SoundDuration":211110,"Delta":222668230},{"NoteNumber":61,"Velocity":44,"Duration":211110,"SoundDuration":211110,"Delta":222668230},{"NoteNumber":64,"Velocity":44,"Duration":211110,"SoundDuration":211110,"Delta":222668230},{"NoteNumber":44,"Velocity":34,"Duration":211110,"SoundDuration":211110,"Delta":222668230},{"NoteNumber":49,"Velocity":34,"Duration":211110,"SoundDuration":211110,"Delta":222668230},{"NoteNumber":52,"Velocity":40,"Duration":211110,"SoundDuration":211110,"Delta":222668230},{"NoteNumber":68,"Velocity":44,"Duration":211110,"SoundDuration":211110,"Delta":222890452},{"NoteNumber":61,"Velocity":44,"Duration":211110,"SoundDuration":211110,"Delta":222890452},{"NoteNumber":64,"Velocity":44,"Duration":211110,"SoundDuration":211110,"Delta":222890452},{"NoteNumber":44,"Velocity":34,"Duration":211110,"SoundDuration":211110,"Delta":222890452},{"NoteNumber":49,"Velocity":34,"Duration":211110,"SoundDuration":211110,"Delta":222890452},{"NoteNumber":52,"Velocity":40,"Duration":211110,"SoundDuration":211110,"Delta":222890452},{"NoteNumber":68,"Velocity":44,"Duration":211110,"SoundDuration":211110,"Delta":223112674},{"NoteNumber":61,"Velocity":44,"Duration":211110,"SoundDuration":211110,"Delta":223112674},{"NoteNumber":64,"Velocity":44,"Duration":211110,"SoundDuration":211110,"Delta":223112674},{"NoteNumber":44,"Velocity":34,"Duration":211110,"SoundDuration":211110,"Delta":223112674},{"NoteNumber":49,"Velocity":34,"Duration":211110,"SoundDuration":211110,"Delta":223112674},{"NoteNumber":52,"Velocity":40,"Duration":211110,"SoundDuration":211110,"Delta":223112674},{"NoteNumber":68,"Velocity":44,"Duration":211110,"SoundDuration":211110,"Delta":223334896},{"NoteNumber":61,"Velocity":44,"Duration":211110,"SoundDuration":211110,"Delta":223334896},{"NoteNumber":64,"Velocity":44,"Duration":211110,"SoundDuration":211110,"Delta":223334896},{"NoteNumber":49,"Velocity":34,"Duration":211110,"SoundDuration":211110,"Delta":223334896},{"NoteNumber":44,"Velocity":34,"Duration":211110,"SoundDuration":211110,"Delta":223334896},{"NoteNumber":52,"Velocity":39,"Duration":211110,"SoundDuration":211110,"Delta":223334896},{"NoteNumber":68,"Velocity":44,"Duration":211110,"SoundDuration":211110,"Delta":223557118},{"NoteNumber":61,"Velocity":44,"Duration":211110,"SoundDuration":211110,"Delta":223557118},{"NoteNumber":64,"Velocity":44,"Duration":211110,"SoundDuration":211110,"Delta":223557118},{"NoteNumber":44,"Velocity":34,"Duration":211110,"SoundDuration":211110,"Delta":223557118},{"NoteNumber":49,"Velocity":34,"Duration":211110,"SoundDuration":211110,"Delta":223557118},{"NoteNumber":52,"Velocity":39,"Duration":211110,"SoundDuration":211110,"Delta":223557118},{"NoteNumber":68,"Velocity":48,"Duration":447031,"SoundDuration":447031,"Delta":223779340},{"NoteNumber":44,"Velocity":30,"Duration":211110,"SoundDuration":211110,"Delta":223779340},{"NoteNumber":49,"Velocity":30,"Duration":211110,"SoundDuration":211110,"Delta":223779340},{"NoteNumber":52,"Velocity":37,"Duration":211110,"SoundDuration":211110,"Delta":223779340},{"NoteNumber":61,"Velocity":26,"Duration":211110,"SoundDuration":211110,"Delta":224001562},{"NoteNumber":64,"Velocity":26,"Duration":211110,"SoundDuration":211110,"Delta":224001562},{"NoteNumber":44,"Velocity":30,"Duration":211110,"SoundDuration":211110,"Delta":224001562},{"NoteNumber":49,"Velocity":30,"Duration":211110,"SoundDuration":211110,"Delta":224001562},{"NoteNumber":52,"Velocity":36,"Duration":211110,"SoundDuration":211110,"Delta":224001562},{"NoteNumber":68,"Velocity":42,"Duration":547944,"SoundDuration":547944,"Delta":224226371},{"NoteNumber":44,"Velocity":28,"Duration":260273,"SoundDuration":260273,"Delta":224226371},{"NoteNumber":49,"Velocity":28,"Duration":260273,"SoundDuration":260273,"Delta":224226371},{"NoteNumber":52,"Velocity":34,"Duration":260273,"SoundDuration":260273,"Delta":224226371},{"NoteNumber":61,"Velocity":26,"Duration":260273,"SoundDuration":260273,"Delta":224500344},{"NoteNumber":64,"Velocity":26,"Duration":260273,"SoundDuration":260273,"Delta":224500344},{"NoteNumber":44,"Velocity":25,"Duration":260273,"SoundDuration":260273,"Delta":224500344},{"NoteNumber":49,"Velocity":25,"Duration":260273,"SoundDuration":260273,"Delta":224500344},{"NoteNumber":52,"Velocity":30,"Duration":260273,"SoundDuration":260273,"Delta":224500344},{"NoteNumber":68,"Velocity":59,"Duration":481928,"SoundDuration":481928,"Delta":224774316},{"NoteNumber":32,"Velocity":26,"Duration":228915,"SoundDuration":228915,"Delta":224774316},{"NoteNumber":63,"Velocity":26,"Duration":228915,"SoundDuration":228915,"Delta":225015280},{"NoteNumber":60,"Velocity":26,"Duration":228915,"SoundDuration":228915,"Delta":225015280},{"NoteNumber":54,"Velocity":26,"Duration":228915,"SoundDuration":228915,"Delta":225015280},{"NoteNumber":51,"Velocity":22,"Duration":228915,"SoundDuration":228915,"Delta":225015280},{"NoteNumber":44,"Velocity":22,"Duration":228915,"SoundDuration":228915,"Delta":225015280},{"NoteNumber":69,"Velocity":61,"Duration":1333956,"SoundDuration":1333956,"Delta":225256244},{"NoteNumber":54,"Velocity":26,"Duration":211735,"SoundDuration":211735,"Delta":225256244},{"NoteNumber":51,"Velocity":22,"Duration":211735,"SoundDuration":211735,"Delta":225256244},{"NoteNumber":44,"Velocity":22,"Duration":211735,"SoundDuration":211735,"Delta":225256244},{"NoteNumber":60,"Velocity":26,"Duration":211110,"SoundDuration":211110,"Delta":225479091},{"NoteNumber":63,"Velocity":26,"Duration":211110,"SoundDuration":211110,"Delta":225479091},{"NoteNumber":54,"Velocity":26,"Duration":211110,"SoundDuration":211110,"Delta":225479091},{"NoteNumber":51,"Velocity":22,"Duration":211110,"SoundDuration":211110,"Delta":225479091},{"NoteNumber":44,"Velocity":22,"Duration":211110,"SoundDuration":211110,"Delta":225479091},{"NoteNumber":60,"Velocity":26,"Duration":211110,"SoundDuration":211110,"Delta":225701313},{"NoteNumber":63,"Velocity":26,"Duration":211110,"SoundDuration":211110,"Delta":225701313},{"NoteNumber":44,"Velocity":22,"Duration":211110,"SoundDuration":211110,"Delta":225701313},{"NoteNumber":51,"Velocity":22,"Duration":211110,"SoundDuration":211110,"Delta":225701313},{"NoteNumber":54,"Velocity":26,"Duration":211110,"SoundDuration":211110,"Delta":225701313},{"NoteNumber":60,"Velocity":26,"Duration":211110,"SoundDuration":211110,"Delta":225923535},{"NoteNumber":63,"Velocity":26,"Duration":211110,"SoundDuration":211110,"Delta":225923535},{"NoteNumber":51,"Velocity":22,"Duration":211110,"SoundDuration":211110,"Delta":225923535},{"NoteNumber":44,"Velocity":22,"Duration":211110,"SoundDuration":211110,"Delta":225923535},{"NoteNumber":54,"Velocity":26,"Duration":211110,"SoundDuration":211110,"Delta":225923535},{"NoteNumber":60,"Velocity":26,"Duration":211110,"SoundDuration":211110,"Delta":226145757},{"NoteNumber":63,"Velocity":26,"Duration":211110,"SoundDuration":211110,"Delta":226145757},{"NoteNumber":44,"Velocity":22,"Duration":211110,"SoundDuration":211110,"Delta":226145757},{"NoteNumber":51,"Velocity":22,"Duration":211110,"SoundDuration":211110,"Delta":226145757},{"NoteNumber":54,"Velocity":26,"Duration":211110,"SoundDuration":211110,"Delta":226145757},{"NoteNumber":60,"Velocity":26,"Duration":211110,"SoundDuration":211110,"Delta":226367979},{"NoteNumber":63,"Velocity":26,"Duration":211110,"SoundDuration":211110,"Delta":226367979},{"NoteNumber":54,"Velocity":26,"Duration":211110,"SoundDuration":211110,"Delta":226367979},{"NoteNumber":51,"Velocity":22,"Duration":211110,"SoundDuration":211110,"Delta":226367979},{"NoteNumber":44,"Velocity":22,"Duration":211110,"SoundDuration":211110,"Delta":226367979},{"NoteNumber":68,"Velocity":60,"Duration":444444,"SoundDuration":444444,"Delta":226590201},{"NoteNumber":54,"Velocity":26,"Duration":211110,"SoundDuration":211110,"Delta":226590201},{"NoteNumber":51,"Velocity":22,"Duration":211110,"SoundDuration":211110,"Delta":226590201},{"NoteNumber":44,"Velocity":22,"Duration":211110,"SoundDuration":211110,"Delta":226590201},{"NoteNumber":60,"Velocity":26,"Duration":211110,"SoundDuration":211110,"Delta":226812423},{"NoteNumber":63,"Velocity":26,"Duration":211110,"SoundDuration":211110,"Delta":226812423},{"NoteNumber":54,"Velocity":26,"Duration":211110,"SoundDuration":211110,"Delta":226812423},{"NoteNumber":51,"Velocity":22,"Duration":211110,"SoundDuration":211110,"Delta":226812423},{"NoteNumber":44,"Velocity":22,"Duration":211110,"SoundDuration":211110,"Delta":226812423},{"NoteNumber":66,"Velocity":56,"Duration":444444,"SoundDuration":444444,"Delta":227034645},{"NoteNumber":44,"Velocity":22,"Duration":211110,"SoundDuration":211110,"Delta":227034645},{"NoteNumber":51,"Velocity":22,"Duration":211110,"SoundDuration":211110,"Delta":227034645},{"NoteNumber":54,"Velocity":26,"Duration":211110,"SoundDuration":211110,"Delta":227034645},{"NoteNumber":60,"Velocity":34,"Duration":211110,"SoundDuration":211110,"Delta":227256867},{"NoteNumber":63,"Velocity":26,"Duration":211110,"SoundDuration":211110,"Delta":227256867},{"NoteNumber":51,"Velocity":22,"Duration":211110,"SoundDuration":211110,"Delta":227256867},{"NoteNumber":44,"Velocity":22,"Duration":211110,"SoundDuration":211110,"Delta":227256867},{"NoteNumber":54,"Velocity":26,"Duration":211110,"SoundDuration":211110,"Delta":227256867},{"NoteNumber":64,"Velocity":69,"Duration":428571,"SoundDuration":428571,"Delta":227479089},{"NoteNumber":32,"Velocity":26,"Duration":203571,"SoundDuration":203571,"Delta":227479089},{"NoteNumber":56,"Velocity":26,"Duration":203571,"SoundDuration":203571,"Delta":227693374},{"NoteNumber":61,"Velocity":26,"Duration":203571,"SoundDuration":203571,"Delta":227693374},{"NoteNumber":52,"Velocity":26,"Duration":203571,"SoundDuration":203571,"Delta":227693374},{"NoteNumber":49,"Velocity":22,"Duration":203571,"SoundDuration":203571,"Delta":227693374},{"NoteNumber":44,"Velocity":22,"Duration":203571,"SoundDuration":203571,"Delta":227693374},{"NoteNumber":68,"Velocity":64,"Duration":428571,"SoundDuration":428571,"Delta":227907660},{"NoteNumber":44,"Velocity":24,"Duration":203571,"SoundDuration":203571,"Delta":227907660},{"NoteNumber":49,"Velocity":24,"Duration":203571,"SoundDuration":203571,"Delta":227907660},{"NoteNumber":52,"Velocity":28,"Duration":203571,"SoundDuration":203571,"Delta":227907660},{"NoteNumber":64,"Velocity":29,"Duration":203571,"SoundDuration":203571,"Delta":228121945},{"NoteNumber":61,"Velocity":29,"Duration":203571,"SoundDuration":203571,"Delta":228121945},{"NoteNumber":44,"Velocity":24,"Duration":203571,"SoundDuration":203571,"Delta":228121945},{"NoteNumber":49,"Velocity":24,"Duration":203571,"SoundDuration":203571,"Delta":228121945},{"NoteNumber":52,"Velocity":29,"Duration":203571,"SoundDuration":203571,"Delta":228121945},{"NoteNumber":73,"Velocity":68,"Duration":428570,"SoundDuration":428570,"Delta":228336231},{"NoteNumber":44,"Velocity":26,"Duration":203571,"SoundDuration":203571,"Delta":228336231},{"NoteNumber":49,"Velocity":26,"Duration":203571,"SoundDuration":203571,"Delta":228336231},{"NoteNumber":52,"Velocity":30,"Duration":203571,"SoundDuration":203571,"Delta":228336231},{"NoteNumber":64,"Velocity":31,"Duration":203571,"SoundDuration":203571,"Delta":228550516},{"NoteNumber":68,"Velocity":31,"Duration":203571,"SoundDuration":203571,"Delta":228550516},{"NoteNumber":52,"Velocity":31,"Duration":203571,"SoundDuration":203571,"Delta":228550516},{"NoteNumber":44,"Velocity":26,"Duration":203571,"SoundDuration":203571,"Delta":228550516},{"NoteNumber":49,"Velocity":26,"Duration":203571,"SoundDuration":203571,"Delta":228550516},{"NoteNumber":76,"Velocity":77,"Duration":428571,"SoundDuration":428571,"Delta":228764802},{"NoteNumber":44,"Velocity":28,"Duration":203571,"SoundDuration":203571,"Delta":228764802},{"NoteNumber":49,"Velocity":28,"Duration":203571,"SoundDuration":203571,"Delta":228764802},{"NoteNumber":52,"Velocity":34,"Duration":203571,"SoundDuration":203571,"Delta":228764802},{"NoteNumber":68,"Velocity":34,"Duration":203571,"SoundDuration":203571,"Delta":228979087},{"NoteNumber":73,"Velocity":34,"Duration":203571,"SoundDuration":203571,"Delta":228979087},{"NoteNumber":49,"Velocity":29,"Duration":203571,"SoundDuration":203571,"Delta":228979087},{"NoteNumber":44,"Velocity":29,"Duration":203571,"SoundDuration":203571,"Delta":228979087},{"NoteNumber":52,"Velocity":35,"Duration":203571,"SoundDuration":203571,"Delta":228979087},{"NoteNumber":80,"Velocity":75,"Duration":428571,"SoundDuration":428571,"Delta":229193373},{"NoteNumber":44,"Velocity":30,"Duration":203571,"SoundDuration":203571,"Delta":229193373},{"NoteNumber":49,"Velocity":30,"Duration":203571,"SoundDuration":203571,"Delta":229193373},{"NoteNumber":52,"Velocity":36,"Duration":203571,"SoundDuration":203571,"Delta":229193373},{"NoteNumber":73,"Velocity":37,"Duration":203571,"SoundDuration":203571,"Delta":229407658},{"NoteNumber":76,"Velocity":37,"Duration":203571,"SoundDuration":203571,"Delta":229407658},{"NoteNumber":52,"Velocity":37,"Duration":203571,"SoundDuration":203571,"Delta":229407658},{"NoteNumber":44,"Velocity":30,"Duration":203571,"SoundDuration":203571,"Delta":229407658},{"NoteNumber":49,"Velocity":30,"Duration":203571,"SoundDuration":203571,"Delta":229407658},{"NoteNumber":85,"Velocity":79,"Duration":428571,"SoundDuration":428571,"Delta":229621944},{"NoteNumber":44,"Velocity":33,"Duration":203571,"SoundDuration":203571,"Delta":229621944},{"NoteNumber":49,"Velocity":33,"Duration":203571,"SoundDuration":203571,"Delta":229621944},{"NoteNumber":52,"Velocity":39,"Duration":203571,"SoundDuration":203571,"Delta":229621944},{"NoteNumber":76,"Velocity":39,"Duration":203571,"SoundDuration":203571,"Delta":229836229},{"NoteNumber":80,"Velocity":39,"Duration":203571,"SoundDuration":203571,"Delta":229836229},{"NoteNumber":52,"Velocity":39,"Duration":203571,"SoundDuration":203571,"Delta":229836229},{"NoteNumber":44,"Velocity":34,"Duration":203571,"SoundDuration":203571,"Delta":229836229},{"NoteNumber":49,"Velocity":34,"Duration":203571,"SoundDuration":203571,"Delta":229836229},{"NoteNumber":87,"Velocity":99,"Duration":477246,"SoundDuration":477246,"Delta":230050515},{"NoteNumber":33,"Velocity":47,"Duration":227091,"SoundDuration":227091,"Delta":230050515},{"NoteNumber":75,"Velocity":51,"Duration":227091,"SoundDuration":227091,"Delta":230289559},{"NoteNumber":79,"Velocity":51,"Duration":227091,"SoundDuration":227091,"Delta":230289559},{"NoteNumber":52,"Velocity":42,"Duration":227091,"SoundDuration":227091,"Delta":230289559},{"NoteNumber":49,"Velocity":35,"Duration":227091,"SoundDuration":227091,"Delta":230289559},{"NoteNumber":45,"Velocity":35,"Duration":227091,"SoundDuration":227091,"Delta":230289559},{"NoteNumber":88,"Velocity":96,"Duration":1333332,"SoundDuration":1333332,"Delta":230527762},{"NoteNumber":45,"Velocity":38,"Duration":211110,"SoundDuration":211110,"Delta":230527762},{"NoteNumber":49,"Velocity":38,"Duration":211110,"SoundDuration":211110,"Delta":230527762},{"NoteNumber":52,"Velocity":45,"Duration":211110,"SoundDuration":211110,"Delta":230527762},{"NoteNumber":79,"Velocity":45,"Duration":211110,"SoundDuration":211110,"Delta":230749984},{"NoteNumber":76,"Velocity":45,"Duration":211110,"SoundDuration":211110,"Delta":230749984},{"NoteNumber":52,"Velocity":44,"Duration":211110,"SoundDuration":211110,"Delta":230749984},{"NoteNumber":45,"Velocity":36,"Duration":211110,"SoundDuration":211110,"Delta":230749984},{"NoteNumber":49,"Velocity":36,"Duration":211110,"SoundDuration":211110,"Delta":230749984},{"NoteNumber":79,"Velocity":40,"Duration":211110,"SoundDuration":211110,"Delta":230972206},{"NoteNumber":76,"Velocity":40,"Duration":211110,"SoundDuration":211110,"Delta":230972206},{"NoteNumber":52,"Velocity":40,"Duration":211110,"SoundDuration":211110,"Delta":230972206},{"NoteNumber":45,"Velocity":34,"Duration":211110,"SoundDuration":211110,"Delta":230972206},{"NoteNumber":49,"Velocity":34,"Duration":211110,"SoundDuration":211110,"Delta":230972206},{"NoteNumber":79,"Velocity":39,"Duration":211110,"SoundDuration":211110,"Delta":231194428},{"NoteNumber":76,"Velocity":39,"Duration":211110,"SoundDuration":211110,"Delta":231194428},{"NoteNumber":52,"Velocity":39,"Duration":211110,"SoundDuration":211110,"Delta":231194428},{"NoteNumber":45,"Velocity":33,"Duration":211110,"SoundDuration":211110,"Delta":231194428},{"NoteNumber":49,"Velocity":33,"Duration":211110,"SoundDuration":211110,"Delta":231194428},{"NoteNumber":79,"Velocity":37,"Duration":211110,"SoundDuration":211110,"Delta":231416650},{"NoteNumber":76,"Velocity":37,"Duration":211110,"SoundDuration":211110,"Delta":231416650},{"NoteNumber":52,"Velocity":37,"Duration":211110,"SoundDuration":211110,"Delta":231416650},{"NoteNumber":45,"Velocity":30,"Duration":211110,"SoundDuration":211110,"Delta":231416650},{"NoteNumber":49,"Velocity":30,"Duration":211110,"SoundDuration":211110,"Delta":231416650},{"NoteNumber":76,"Velocity":37,"Duration":211110,"SoundDuration":211110,"Delta":231638872},{"NoteNumber":79,"Velocity":37,"Duration":211110,"SoundDuration":211110,"Delta":231638872},{"NoteNumber":45,"Velocity":29,"Duration":211110,"SoundDuration":211110,"Delta":231638872},{"NoteNumber":49,"Velocity":29,"Duration":211110,"SoundDuration":211110,"Delta":231638872},{"NoteNumber":52,"Velocity":35,"Duration":211110,"SoundDuration":211110,"Delta":231638872},{"NoteNumber":87,"Velocity":88,"Duration":445528,"SoundDuration":445528,"Delta":231861094},{"NoteNumber":51,"Velocity":34,"Duration":211110,"SoundDuration":211110,"Delta":231861094},{"NoteNumber":45,"Velocity":28,"Duration":211110,"SoundDuration":211110,"Delta":231861094},{"NoteNumber":75,"Velocity":31,"Duration":211110,"SoundDuration":211110,"Delta":232083316},{"NoteNumber":79,"Velocity":31,"Duration":211110,"SoundDuration":211110,"Delta":232083316},{"NoteNumber":51,"Velocity":31,"Duration":211110,"SoundDuration":211110,"Delta":232083316},{"NoteNumber":45,"Velocity":26,"Duration":211110,"SoundDuration":211110,"Delta":232083316},{"NoteNumber":85,"Velocity":81,"Duration":486324,"SoundDuration":486324,"Delta":232306622},{"NoteNumber":51,"Velocity":30,"Duration":231707,"SoundDuration":231707,"Delta":232306622},{"NoteNumber":45,"Velocity":25,"Duration":231707,"SoundDuration":231707,"Delta":232306622},{"NoteNumber":73,"Velocity":28,"Duration":231707,"SoundDuration":231707,"Delta":232550524},{"NoteNumber":79,"Velocity":28,"Duration":231707,"SoundDuration":231707,"Delta":232550524},{"NoteNumber":51,"Velocity":28,"Duration":231707,"SoundDuration":231707,"Delta":232550524},{"NoteNumber":45,"Velocity":24,"Duration":231707,"SoundDuration":231707,"Delta":232550524},{"NoteNumber":85,"Velocity":68,"Duration":428571,"SoundDuration":428571,"Delta":232792946},{"NoteNumber":32,"Velocity":26,"Duration":203571,"SoundDuration":203571,"Delta":232792946},{"NoteNumber":75,"Velocity":26,"Duration":214285,"SoundDuration":214285,"Delta":233007231},{"NoteNumber":80,"Velocity":26,"Duration":214285,"SoundDuration":214285,"Delta":233007231},{"NoteNumber":44,"Velocity":26,"Duration":203571,"SoundDuration":203571,"Delta":233007231},{"NoteNumber":84,"Velocity":59,"Duration":428571,"SoundDuration":428571,"Delta":233221517},{"NoteNumber":48,"Velocity":26,"Duration":203571,"SoundDuration":203571,"Delta":233221517},{"NoteNumber":51,"Velocity":26,"Duration":203571,"SoundDuration":203571,"Delta":233221517},{"NoteNumber":44,"Velocity":26,"Duration":203571,"SoundDuration":203571,"Delta":233221517},{"NoteNumber":75,"Velocity":26,"Duration":214285,"SoundDuration":214285,"Delta":233435802},{"NoteNumber":80,"Velocity":26,"Duration":214285,"SoundDuration":214285,"Delta":233435802},{"NoteNumber":48,"Velocity":22,"Duration":203571,"SoundDuration":203571,"Delta":233435802},{"NoteNumber":51,"Velocity":26,"Duration":203571,"SoundDuration":203571,"Delta":233435802},{"NoteNumber":44,"Velocity":22,"Duration":203571,"SoundDuration":203571,"Delta":233435802},{"NoteNumber":80,"Velocity":58,"Duration":428571,"SoundDuration":428571,"Delta":233650088},{"NoteNumber":48,"Velocity":22,"Duration":203571,"SoundDuration":203571,"Delta":233650088},{"NoteNumber":51,"Velocity":26,"Duration":203571,"SoundDuration":203571,"Delta":233650088},{"NoteNumber":44,"Velocity":22,"Duration":203571,"SoundDuration":203571,"Delta":233650088},{"NoteNumber":72,"Velocity":26,"Duration":203571,"SoundDuration":203571,"Delta":233864373},{"NoteNumber":75,"Velocity":26,"Duration":203571,"SoundDuration":203571,"Delta":233864373},{"NoteNumber":48,"Velocity":22,"Duration":203571,"SoundDuration":203571,"Delta":233864373},{"NoteNumber":51,"Velocity":26,"Duration":203571,"SoundDuration":203571,"Delta":233864373},{"NoteNumber":44,"Velocity":22,"Duration":203571,"SoundDuration":203571,"Delta":233864373},{"NoteNumber":75,"Velocity":58,"Duration":428570,"SoundDuration":428570,"Delta":234078659},{"NoteNumber":48,"Velocity":22,"Duration":203571,"SoundDuration":203571,"Delta":234078659},{"NoteNumber":51,"Velocity":26,"Duration":203571,"SoundDuration":203571,"Delta":234078659},{"NoteNumber":44,"Velocity":22,"Duration":203571,"SoundDuration":203571,"Delta":234078659},{"NoteNumber":68,"Velocity":26,"Duration":203571,"SoundDuration":203571,"Delta":234292944},{"NoteNumber":72,"Velocity":26,"Duration":203571,"SoundDuration":203571,"Delta":234292944},{"NoteNumber":48,"Velocity":22,"Duration":203571,"SoundDuration":203571,"Delta":234292944},{"NoteNumber":51,"Velocity":26,"Duration":203571,"SoundDuration":203571,"Delta":234292944},{"NoteNumber":44,"Velocity":22,"Duration":203571,"SoundDuration":203571,"Delta":234292944},{"NoteNumber":72,"Velocity":58,"Duration":428571,"SoundDuration":428571,"Delta":234507230},{"NoteNumber":48,"Velocity":22,"Duration":203571,"SoundDuration":203571,"Delta":234507230},{"NoteNumber":51,"Velocity":26,"Duration":203571,"SoundDuration":203571,"Delta":234507230},{"NoteNumber":44,"Velocity":22,"Duration":203571,"SoundDuration":203571,"Delta":234507230},{"NoteNumber":63,"Velocity":26,"Duration":203571,"SoundDuration":203571,"Delta":234721515},{"NoteNumber":68,"Velocity":26,"Duration":203571,"SoundDuration":203571,"Delta":234721515},{"NoteNumber":48,"Velocity":22,"Duration":203571,"SoundDuration":203571,"Delta":234721515},{"NoteNumber":51,"Velocity":26,"Duration":203571,"SoundDuration":203571,"Delta":234721515},{"NoteNumber":44,"Velocity":22,"Duration":203571,"SoundDuration":203571,"Delta":234721515},{"NoteNumber":68,"Velocity":58,"Duration":429856,"SoundDuration":429856,"Delta":234935801},{"NoteNumber":48,"Velocity":22,"Duration":203571,"SoundDuration":203571,"Delta":234935801},{"NoteNumber":51,"Velocity":26,"Duration":203571,"SoundDuration":203571,"Delta":234935801},{"NoteNumber":44,"Velocity":22,"Duration":203571,"SoundDuration":203571,"Delta":234935801},{"NoteNumber":60,"Velocity":26,"Duration":203571,"SoundDuration":203571,"Delta":235150086},{"NoteNumber":63,"Velocity":26,"Duration":203571,"SoundDuration":203571,"Delta":235150086},{"NoteNumber":48,"Velocity":22,"Duration":203571,"SoundDuration":203571,"Delta":235150086},{"NoteNumber":51,"Velocity":26,"Duration":203571,"SoundDuration":203571,"Delta":235150086},{"NoteNumber":44,"Velocity":22,"Duration":203571,"SoundDuration":203571,"Delta":235150086},{"NoteNumber":68,"Velocity":59,"Duration":519481,"SoundDuration":519481,"Delta":235365658},{"NoteNumber":32,"Velocity":26,"Duration":246753,"SoundDuration":246753,"Delta":235365658},{"NoteNumber":63,"Velocity":26,"Duration":246753,"SoundDuration":246753,"Delta":235625398},{"NoteNumber":60,"Velocity":26,"Duration":246753,"SoundDuration":246753,"Delta":235625398},{"NoteNumber":54,"Velocity":26,"Duration":246753,"SoundDuration":246753,"Delta":235625398},{"NoteNumber":51,"Velocity":22,"Duration":246753,"SoundDuration":246753,"Delta":235625398},{"NoteNumber":44,"Velocity":22,"Duration":246753,"SoundDuration":246753,"Delta":235625398},{"NoteNumber":69,"Velocity":61,"Duration":1333332,"SoundDuration":1333332,"Delta":235885139},{"NoteNumber":54,"Velocity":26,"Duration":211110,"SoundDuration":211110,"Delta":235885139},{"NoteNumber":51,"Velocity":22,"Duration":211110,"SoundDuration":211110,"Delta":235885139},{"NoteNumber":44,"Velocity":22,"Duration":211110,"SoundDuration":211110,"Delta":235885139},{"NoteNumber":60,"Velocity":26,"Duration":211110,"SoundDuration":211110,"Delta":236107361},{"NoteNumber":63,"Velocity":26,"Duration":211110,"SoundDuration":211110,"Delta":236107361},{"NoteNumber":54,"Velocity":26,"Duration":211110,"SoundDuration":211110,"Delta":236107361},{"NoteNumber":51,"Velocity":22,"Duration":211110,"SoundDuration":211110,"Delta":236107361},{"NoteNumber":44,"Velocity":22,"Duration":211110,"SoundDuration":211110,"Delta":236107361},{"NoteNumber":60,"Velocity":26,"Duration":211110,"SoundDuration":211110,"Delta":236329583},{"NoteNumber":63,"Velocity":26,"Duration":211110,"SoundDuration":211110,"Delta":236329583},{"NoteNumber":44,"Velocity":22,"Duration":211110,"SoundDuration":211110,"Delta":236329583},{"NoteNumber":51,"Velocity":22,"Duration":211110,"SoundDuration":211110,"Delta":236329583},{"NoteNumber":54,"Velocity":26,"Duration":211110,"SoundDuration":211110,"Delta":236329583},{"NoteNumber":60,"Velocity":26,"Duration":211110,"SoundDuration":211110,"Delta":236551805},{"NoteNumber":63,"Velocity":26,"Duration":211110,"SoundDuration":211110,"Delta":236551805},{"NoteNumber":51,"Velocity":22,"Duration":211110,"SoundDuration":211110,"Delta":236551805},{"NoteNumber":44,"Velocity":22,"Duration":211110,"SoundDuration":211110,"Delta":236551805},{"NoteNumber":54,"Velocity":26,"Duration":211110,"SoundDuration":211110,"Delta":236551805},{"NoteNumber":60,"Velocity":26,"Duration":211110,"SoundDuration":211110,"Delta":236774027},{"NoteNumber":63,"Velocity":26,"Duration":211110,"SoundDuration":211110,"Delta":236774027},{"NoteNumber":44,"Velocity":22,"Duration":211110,"SoundDuration":211110,"Delta":236774027},{"NoteNumber":51,"Velocity":22,"Duration":211110,"SoundDuration":211110,"Delta":236774027},{"NoteNumber":54,"Velocity":26,"Duration":211110,"SoundDuration":211110,"Delta":236774027},{"NoteNumber":60,"Velocity":26,"Duration":211110,"SoundDuration":211110,"Delta":236996249},{"NoteNumber":63,"Velocity":26,"Duration":211110,"SoundDuration":211110,"Delta":236996249},{"NoteNumber":54,"Velocity":26,"Duration":211110,"SoundDuration":211110,"Delta":236996249},{"NoteNumber":51,"Velocity":22,"Duration":211110,"SoundDuration":211110,"Delta":236996249},{"NoteNumber":44,"Velocity":22,"Duration":211110,"SoundDuration":211110,"Delta":236996249},{"NoteNumber":68,"Velocity":60,"Duration":444443,"SoundDuration":444443,"Delta":237218471},{"NoteNumber":54,"Velocity":26,"Duration":211110,"SoundDuration":211110,"Delta":237218471},{"NoteNumber":51,"Velocity":22,"Duration":211110,"SoundDuration":211110,"Delta":237218471},{"NoteNumber":44,"Velocity":22,"Duration":211110,"SoundDuration":211110,"Delta":237218471},{"NoteNumber":60,"Velocity":26,"Duration":211110,"SoundDuration":211110,"Delta":237440693},{"NoteNumber":63,"Velocity":26,"Duration":211110,"SoundDuration":211110,"Delta":237440693},{"NoteNumber":54,"Velocity":26,"Duration":211110,"SoundDuration":211110,"Delta":237440693},{"NoteNumber":51,"Velocity":22,"Duration":211110,"SoundDuration":211110,"Delta":237440693},{"NoteNumber":44,"Velocity":22,"Duration":211110,"SoundDuration":211110,"Delta":237440693},{"NoteNumber":66,"Velocity":56,"Duration":444444,"SoundDuration":444444,"Delta":237662915},{"NoteNumber":44,"Velocity":22,"Duration":211110,"SoundDuration":211110,"Delta":237662915},{"NoteNumber":51,"Velocity":22,"Duration":211110,"SoundDuration":211110,"Delta":237662915},{"NoteNumber":54,"Velocity":26,"Duration":211110,"SoundDuration":211110,"Delta":237662915},{"NoteNumber":60,"Velocity":34,"Duration":211110,"SoundDuration":211110,"Delta":237885137},{"NoteNumber":63,"Velocity":26,"Duration":211110,"SoundDuration":211110,"Delta":237885137},{"NoteNumber":51,"Velocity":22,"Duration":211110,"SoundDuration":211110,"Delta":237885137},{"NoteNumber":44,"Velocity":22,"Duration":211110,"SoundDuration":211110,"Delta":237885137},{"NoteNumber":54,"Velocity":26,"Duration":211110,"SoundDuration":211110,"Delta":237885137},{"NoteNumber":64,"Velocity":68,"Duration":428571,"SoundDuration":428571,"Delta":238107359},{"NoteNumber":32,"Velocity":26,"Duration":203571,"SoundDuration":203571,"Delta":238107359},{"NoteNumber":56,"Velocity":26,"Duration":203571,"SoundDuration":203571,"Delta":238321644},{"NoteNumber":61,"Velocity":26,"Duration":203571,"SoundDuration":203571,"Delta":238321644},{"NoteNumber":52,"Velocity":26,"Duration":203571,"SoundDuration":203571,"Delta":238321644},{"NoteNumber":49,"Velocity":22,"Duration":203571,"SoundDuration":203571,"Delta":238321644},{"NoteNumber":44,"Velocity":22,"Duration":203571,"SoundDuration":203571,"Delta":238321644},{"NoteNumber":68,"Velocity":64,"Duration":428571,"SoundDuration":428571,"Delta":238535930},{"NoteNumber":44,"Velocity":22,"Duration":203571,"SoundDuration":203571,"Delta":238535930},{"NoteNumber":49,"Velocity":22,"Duration":203571,"SoundDuration":203571,"Delta":238535930},{"NoteNumber":52,"Velocity":26,"Duration":203571,"SoundDuration":203571,"Delta":238535930},{"NoteNumber":64,"Velocity":29,"Duration":203571,"SoundDuration":203571,"Delta":238750215},{"NoteNumber":61,"Velocity":29,"Duration":203571,"SoundDuration":203571,"Delta":238750215},{"NoteNumber":44,"Velocity":22,"Duration":203571,"SoundDuration":203571,"Delta":238750215},{"NoteNumber":49,"Velocity":22,"Duration":203571,"SoundDuration":203571,"Delta":238750215},{"NoteNumber":52,"Velocity":26,"Duration":203571,"SoundDuration":203571,"Delta":238750215},{"NoteNumber":73,"Velocity":68,"Duration":428570,"SoundDuration":428570,"Delta":238964501},{"NoteNumber":44,"Velocity":22,"Duration":203571,"SoundDuration":203571,"Delta":238964501},{"NoteNumber":49,"Velocity":22,"Duration":203571,"SoundDuration":203571,"Delta":238964501},{"NoteNumber":52,"Velocity":26,"Duration":203571,"SoundDuration":203571,"Delta":238964501},{"NoteNumber":64,"Velocity":31,"Duration":203571,"SoundDuration":203571,"Delta":239178786},{"NoteNumber":68,"Velocity":31,"Duration":203571,"SoundDuration":203571,"Delta":239178786},{"NoteNumber":44,"Velocity":22,"Duration":203571,"SoundDuration":203571,"Delta":239178786},{"NoteNumber":49,"Velocity":22,"Duration":203571,"SoundDuration":203571,"Delta":239178786},{"NoteNumber":52,"Velocity":26,"Duration":203571,"SoundDuration":203571,"Delta":239178786},{"NoteNumber":76,"Velocity":71,"Duration":428571,"SoundDuration":428571,"Delta":239393072},{"NoteNumber":44,"Velocity":22,"Duration":203571,"SoundDuration":203571,"Delta":239393072},{"NoteNumber":49,"Velocity":22,"Duration":203571,"SoundDuration":203571,"Delta":239393072},{"NoteNumber":52,"Velocity":26,"Duration":203571,"SoundDuration":203571,"Delta":239393072},{"NoteNumber":68,"Velocity":34,"Duration":203571,"SoundDuration":203571,"Delta":239607357},{"NoteNumber":73,"Velocity":34,"Duration":203571,"SoundDuration":203571,"Delta":239607357},{"NoteNumber":49,"Velocity":24,"Duration":203571,"SoundDuration":203571,"Delta":239607357},{"NoteNumber":44,"Velocity":24,"Duration":203571,"SoundDuration":203571,"Delta":239607357},{"NoteNumber":52,"Velocity":28,"Duration":203571,"SoundDuration":203571,"Delta":239607357},{"NoteNumber":80,"Velocity":75,"Duration":428571,"SoundDuration":428571,"Delta":239821643},{"NoteNumber":44,"Velocity":26,"Duration":203571,"SoundDuration":203571,"Delta":239821643},{"NoteNumber":49,"Velocity":26,"Duration":203571,"SoundDuration":203571,"Delta":239821643},{"NoteNumber":52,"Velocity":30,"Duration":203571,"SoundDuration":203571,"Delta":239821643},{"NoteNumber":73,"Velocity":37,"Duration":203571,"SoundDuration":203571,"Delta":240035928},{"NoteNumber":76,"Velocity":37,"Duration":203571,"SoundDuration":203571,"Delta":240035928},{"NoteNumber":44,"Velocity":29,"Duration":203571,"SoundDuration":203571,"Delta":240035928},{"NoteNumber":49,"Velocity":29,"Duration":203571,"SoundDuration":203571,"Delta":240035928},{"NoteNumber":52,"Velocity":35,"Duration":203571,"SoundDuration":203571,"Delta":240035928},{"NoteNumber":85,"Velocity":79,"Duration":428571,"SoundDuration":428571,"Delta":240250214},{"NoteNumber":44,"Velocity":30,"Duration":203571,"SoundDuration":203571,"Delta":240250214},{"NoteNumber":49,"Velocity":30,"Duration":203571,"SoundDuration":203571,"Delta":240250214},{"NoteNumber":52,"Velocity":37,"Duration":203571,"SoundDuration":203571,"Delta":240250214},{"NoteNumber":76,"Velocity":39,"Duration":203571,"SoundDuration":203571,"Delta":240464499},{"NoteNumber":80,"Velocity":39,"Duration":203571,"SoundDuration":203571,"Delta":240464499},{"NoteNumber":44,"Velocity":34,"Duration":203571,"SoundDuration":203571,"Delta":240464499},{"NoteNumber":49,"Velocity":34,"Duration":203571,"SoundDuration":203571,"Delta":240464499},{"NoteNumber":52,"Velocity":39,"Duration":203571,"SoundDuration":203571,"Delta":240464499},{"NoteNumber":87,"Velocity":99,"Duration":477246,"SoundDuration":477246,"Delta":240678785},{"NoteNumber":33,"Velocity":41,"Duration":227091,"SoundDuration":227091,"Delta":240678785},{"NoteNumber":75,"Velocity":51,"Duration":227091,"SoundDuration":227091,"Delta":240917829},{"NoteNumber":79,"Velocity":51,"Duration":227091,"SoundDuration":227091,"Delta":240917829},{"NoteNumber":52,"Velocity":41,"Duration":227091,"SoundDuration":227091,"Delta":240917829},{"NoteNumber":49,"Velocity":35,"Duration":227091,"SoundDuration":227091,"Delta":240917829},{"NoteNumber":45,"Velocity":35,"Duration":227091,"SoundDuration":227091,"Delta":240917829},{"NoteNumber":88,"Velocity":96,"Duration":1333332,"SoundDuration":1333332,"Delta":241156032},{"NoteNumber":45,"Velocity":36,"Duration":211110,"SoundDuration":211110,"Delta":241156032},{"NoteNumber":49,"Velocity":36,"Duration":211110,"SoundDuration":211110,"Delta":241156032},{"NoteNumber":52,"Velocity":44,"Duration":211110,"SoundDuration":211110,"Delta":241156032},{"NoteNumber":79,"Velocity":45,"Duration":211110,"SoundDuration":211110,"Delta":241378254},{"NoteNumber":76,"Velocity":45,"Duration":211110,"SoundDuration":211110,"Delta":241378254},{"NoteNumber":45,"Velocity":35,"Duration":211110,"SoundDuration":211110,"Delta":241378254},{"NoteNumber":49,"Velocity":35,"Duration":211110,"SoundDuration":211110,"Delta":241378254},{"NoteNumber":52,"Velocity":42,"Duration":211110,"SoundDuration":211110,"Delta":241378254},{"NoteNumber":79,"Velocity":40,"Duration":211110,"SoundDuration":211110,"Delta":241600476},{"NoteNumber":76,"Velocity":40,"Duration":211110,"SoundDuration":211110,"Delta":241600476},{"NoteNumber":45,"Velocity":34,"Duration":211110,"SoundDuration":211110,"Delta":241600476},{"NoteNumber":49,"Velocity":34,"Duration":211110,"SoundDuration":211110,"Delta":241600476},{"NoteNumber":52,"Velocity":40,"Duration":211110,"SoundDuration":211110,"Delta":241600476},{"NoteNumber":79,"Velocity":39,"Duration":211110,"SoundDuration":211110,"Delta":241822698},{"NoteNumber":76,"Velocity":39,"Duration":211110,"SoundDuration":211110,"Delta":241822698},{"NoteNumber":45,"Velocity":33,"Duration":211110,"SoundDuration":211110,"Delta":241822698},{"NoteNumber":49,"Velocity":33,"Duration":211110,"SoundDuration":211110,"Delta":241822698},{"NoteNumber":52,"Velocity":39,"Duration":211110,"SoundDuration":211110,"Delta":241822698},{"NoteNumber":79,"Velocity":37,"Duration":211110,"SoundDuration":211110,"Delta":242044920},{"NoteNumber":76,"Velocity":37,"Duration":211110,"SoundDuration":211110,"Delta":242044920},{"NoteNumber":45,"Velocity":30,"Duration":211110,"SoundDuration":211110,"Delta":242044920},{"NoteNumber":49,"Velocity":30,"Duration":211110,"SoundDuration":211110,"Delta":242044920},{"NoteNumber":52,"Velocity":37,"Duration":211110,"SoundDuration":211110,"Delta":242044920},{"NoteNumber":76,"Velocity":37,"Duration":211110,"SoundDuration":211110,"Delta":242267142},{"NoteNumber":79,"Velocity":37,"Duration":211110,"SoundDuration":211110,"Delta":242267142},{"NoteNumber":45,"Velocity":29,"Duration":211110,"SoundDuration":211110,"Delta":242267142},{"NoteNumber":49,"Velocity":29,"Duration":211110,"SoundDuration":211110,"Delta":242267142},{"NoteNumber":52,"Velocity":35,"Duration":211110,"SoundDuration":211110,"Delta":242267142},{"NoteNumber":87,"Velocity":88,"Duration":444444,"SoundDuration":444444,"Delta":242489364},{"NoteNumber":45,"Velocity":28,"Duration":211110,"SoundDuration":211110,"Delta":242489364},{"NoteNumber":49,"Velocity":28,"Duration":211110,"SoundDuration":211110,"Delta":242489364},{"NoteNumber":52,"Velocity":34,"Duration":211110,"SoundDuration":211110,"Delta":242489364},{"NoteNumber":75,"Velocity":31,"Duration":211110,"SoundDuration":211110,"Delta":242711586},{"NoteNumber":79,"Velocity":31,"Duration":211110,"SoundDuration":211110,"Delta":242711586},{"NoteNumber":45,"Velocity":26,"Duration":211110,"SoundDuration":211110,"Delta":242711586},{"NoteNumber":49,"Velocity":26,"Duration":211110,"SoundDuration":211110,"Delta":242711586},{"NoteNumber":52,"Velocity":31,"Duration":211110,"SoundDuration":211110,"Delta":242711586},{"NoteNumber":85,"Velocity":81,"Duration":444443,"SoundDuration":444443,"Delta":242933808},{"NoteNumber":45,"Velocity":25,"Duration":211110,"SoundDuration":211110,"Delta":242933808},{"NoteNumber":49,"Velocity":25,"Duration":211110,"SoundDuration":211110,"Delta":242933808},{"NoteNumber":52,"Velocity":30,"Duration":211110,"SoundDuration":211110,"Delta":242933808},{"NoteNumber":73,"Velocity":28,"Duration":211110,"SoundDuration":211110,"Delta":243156030},{"NoteNumber":79,"Velocity":28,"Duration":211110,"SoundDuration":211110,"Delta":243156030},{"NoteNumber":45,"Velocity":24,"Duration":211110,"SoundDuration":211110,"Delta":243156030},{"NoteNumber":49,"Velocity":24,"Duration":211110,"SoundDuration":211110,"Delta":243156030},{"NoteNumber":52,"Velocity":28,"Duration":211110,"SoundDuration":211110,"Delta":243156030},{"NoteNumber":85,"Velocity":71,"Duration":1333332,"SoundDuration":1333332,"Delta":243378252},{"NoteNumber":32,"Velocity":27,"Duration":211110,"SoundDuration":211110,"Delta":243378252},{"NoteNumber":73,"Velocity":27,"Duration":211110,"SoundDuration":211110,"Delta":243600474},{"NoteNumber":76,"Velocity":27,"Duration":211110,"SoundDuration":211110,"Delta":243600474},{"NoteNumber":80,"Velocity":27,"Duration":211110,"SoundDuration":211110,"Delta":243600474},{"NoteNumber":52,"Velocity":26,"Duration":211110,"SoundDuration":211110,"Delta":243600474},{"NoteNumber":49,"Velocity":22,"Duration":211110,"SoundDuration":211110,"Delta":243600474},{"NoteNumber":44,"Velocity":22,"Duration":211110,"SoundDuration":211110,"Delta":243600474},{"NoteNumber":73,"Velocity":27,"Duration":211110,"SoundDuration":211110,"Delta":243822696},{"NoteNumber":76,"Velocity":27,"Duration":211110,"SoundDuration":211110,"Delta":243822696},{"NoteNumber":80,"Velocity":27,"Duration":211110,"SoundDuration":211110,"Delta":243822696},{"NoteNumber":52,"Velocity":26,"Duration":211110,"SoundDuration":211110,"Delta":243822696},{"NoteNumber":49,"Velocity":22,"Duration":211110,"SoundDuration":211110,"Delta":243822696},{"NoteNumber":44,"Velocity":22,"Duration":211110,"SoundDuration":211110,"Delta":243822696},{"NoteNumber":73,"Velocity":27,"Duration":211110,"SoundDuration":211110,"Delta":244044918},{"NoteNumber":76,"Velocity":27,"Duration":211110,"SoundDuration":211110,"Delta":244044918},{"NoteNumber":80,"Velocity":27,"Duration":211110,"SoundDuration":211110,"Delta":244044918},{"NoteNumber":52,"Velocity":26,"Duration":211110,"SoundDuration":211110,"Delta":244044918},{"NoteNumber":49,"Velocity":22,"Duration":211110,"SoundDuration":211110,"Delta":244044918},{"NoteNumber":44,"Velocity":22,"Duration":211110,"SoundDuration":211110,"Delta":244044918},{"NoteNumber":73,"Velocity":27,"Duration":211110,"SoundDuration":211110,"Delta":244267140},{"NoteNumber":76,"Velocity":27,"Duration":211110,"SoundDuration":211110,"Delta":244267140},{"NoteNumber":80,"Velocity":27,"Duration":211110,"SoundDuration":211110,"Delta":244267140},{"NoteNumber":52,"Velocity":26,"Duration":211110,"SoundDuration":211110,"Delta":244267140},{"NoteNumber":49,"Velocity":22,"Duration":211110,"SoundDuration":211110,"Delta":244267140},{"NoteNumber":44,"Velocity":22,"Duration":211110,"SoundDuration":211110,"Delta":244267140},{"NoteNumber":73,"Velocity":25,"Duration":211110,"SoundDuration":211110,"Delta":244489362},{"NoteNumber":76,"Velocity":25,"Duration":211110,"SoundDuration":211110,"Delta":244489362},{"NoteNumber":80,"Velocity":25,"Duration":211110,"SoundDuration":211110,"Delta":244489362},{"NoteNumber":52,"Velocity":26,"Duration":211110,"SoundDuration":211110,"Delta":244489362},{"NoteNumber":49,"Velocity":22,"Duration":211110,"SoundDuration":211110,"Delta":244489362},{"NoteNumber":44,"Velocity":22,"Duration":211110,"SoundDuration":211110,"Delta":244489362},{"NoteNumber":80,"Velocity":62,"Duration":1435107,"SoundDuration":1435107,"Delta":244711584},{"NoteNumber":32,"Velocity":26,"Duration":211110,"SoundDuration":211110,"Delta":244711584},{"NoteNumber":72,"Velocity":22,"Duration":211110,"SoundDuration":211110,"Delta":244933806},{"NoteNumber":75,"Velocity":22,"Duration":211110,"SoundDuration":211110,"Delta":244933806},{"NoteNumber":51,"Velocity":24,"Duration":211110,"SoundDuration":211110,"Delta":244933806},{"NoteNumber":48,"Velocity":19,"Duration":211110,"SoundDuration":211110,"Delta":244933806},{"NoteNumber":44,"Velocity":19,"Duration":211110,"SoundDuration":211110,"Delta":244933806},{"NoteNumber":72,"Velocity":20,"Duration":211110,"SoundDuration":211110,"Delta":245156028},{"NoteNumber":75,"Velocity":20,"Duration":211110,"SoundDuration":211110,"Delta":245156028},{"NoteNumber":51,"Velocity":24,"Duration":211110,"SoundDuration":211110,"Delta":245156028},{"NoteNumber":48,"Velocity":19,"Duration":211110,"SoundDuration":211110,"Delta":245156028},{"NoteNumber":44,"Velocity":19,"Duration":211110,"SoundDuration":211110,"Delta":245156028},{"NoteNumber":72,"Velocity":20,"Duration":211110,"SoundDuration":211110,"Delta":245378250},{"NoteNumber":75,"Velocity":20,"Duration":211110,"SoundDuration":211110,"Delta":245378250},{"NoteNumber":51,"Velocity":22,"Duration":211110,"SoundDuration":211110,"Delta":245378250},{"NoteNumber":48,"Velocity":18,"Duration":211110,"SoundDuration":211110,"Delta":245378250},{"NoteNumber":44,"Velocity":18,"Duration":211110,"SoundDuration":211110,"Delta":245378250},{"NoteNumber":72,"Velocity":20,"Duration":258548,"SoundDuration":258548,"Delta":245600472},{"NoteNumber":75,"Velocity":20,"Duration":258548,"SoundDuration":258548,"Delta":245600472},{"NoteNumber":51,"Velocity":22,"Duration":258548,"SoundDuration":258548,"Delta":245600472},{"NoteNumber":48,"Velocity":17,"Duration":258548,"SoundDuration":258548,"Delta":245600472},{"NoteNumber":44,"Velocity":17,"Duration":258548,"SoundDuration":258548,"Delta":245600472},{"NoteNumber":72,"Velocity":20,"Duration":260273,"SoundDuration":260273,"Delta":245872719},{"NoteNumber":75,"Velocity":20,"Duration":260273,"SoundDuration":260273,"Delta":245872719},{"NoteNumber":51,"Velocity":22,"Duration":260273,"SoundDuration":260273,"Delta":245872719},{"NoteNumber":48,"Velocity":17,"Duration":260273,"SoundDuration":260273,"Delta":245872719},{"NoteNumber":44,"Velocity":17,"Duration":260273,"SoundDuration":260273,"Delta":245872719},{"NoteNumber":68,"Velocity":48,"Duration":1346902,"SoundDuration":1346902,"Delta":246146692},{"NoteNumber":37,"Velocity":42,"Duration":217557,"SoundDuration":217557,"Delta":246146692},{"NoteNumber":65,"Velocity":27,"Duration":217557,"SoundDuration":217557,"Delta":246375699},{"NoteNumber":56,"Velocity":27,"Duration":217557,"SoundDuration":217557,"Delta":246375699},{"NoteNumber":53,"Velocity":26,"Duration":217557,"SoundDuration":217557,"Delta":246375699},{"NoteNumber":49,"Velocity":22,"Duration":217557,"SoundDuration":217557,"Delta":246375699},{"NoteNumber":44,"Velocity":22,"Duration":217557,"SoundDuration":217557,"Delta":246375699},{"NoteNumber":65,"Velocity":26,"Duration":211110,"SoundDuration":211110,"Delta":246604707},{"NoteNumber":56,"Velocity":26,"Duration":211110,"SoundDuration":211110,"Delta":246604707},{"NoteNumber":53,"Velocity":26,"Duration":211110,"SoundDuration":211110,"Delta":246604707},{"NoteNumber":44,"Velocity":22,"Duration":211110,"SoundDuration":211110,"Delta":246604707},{"NoteNumber":49,"Velocity":22,"Duration":211110,"SoundDuration":211110,"Delta":246604707},{"NoteNumber":65,"Velocity":26,"Duration":211110,"SoundDuration":211110,"Delta":246826929},{"NoteNumber":56,"Velocity":26,"Duration":211110,"SoundDuration":211110,"Delta":246826929},{"NoteNumber":53,"Velocity":26,"Duration":211110,"SoundDuration":211110,"Delta":246826929},{"NoteNumber":44,"Velocity":22,"Duration":211110,"SoundDuration":211110,"Delta":246826929},{"NoteNumber":49,"Velocity":22,"Duration":211110,"SoundDuration":211110,"Delta":246826929},{"NoteNumber":65,"Velocity":26,"Duration":211110,"SoundDuration":211110,"Delta":247049151},{"NoteNumber":56,"Velocity":26,"Duration":211110,"SoundDuration":211110,"Delta":247049151},{"NoteNumber":53,"Velocity":26,"Duration":211110,"SoundDuration":211110,"Delta":247049151},{"NoteNumber":44,"Velocity":22,"Duration":211110,"SoundDuration":211110,"Delta":247049151},{"NoteNumber":49,"Velocity":22,"Duration":211110,"SoundDuration":211110,"Delta":247049151},{"NoteNumber":65,"Velocity":26,"Duration":211110,"SoundDuration":211110,"Delta":247271373},{"NoteNumber":56,"Velocity":26,"Duration":211110,"SoundDuration":211110,"Delta":247271373},{"NoteNumber":53,"Velocity":26,"Duration":211110,"SoundDuration":211110,"Delta":247271373},{"NoteNumber":44,"Velocity":22,"Duration":211110,"SoundDuration":211110,"Delta":247271373},{"NoteNumber":49,"Velocity":22,"Duration":211110,"SoundDuration":211110,"Delta":247271373},{"NoteNumber":68,"Velocity":50,"Duration":498214,"SoundDuration":498214,"Delta":247493595},{"NoteNumber":53,"Velocity":26,"Duration":237500,"SoundDuration":237500,"Delta":247493595},{"NoteNumber":44,"Velocity":22,"Duration":237500,"SoundDuration":237500,"Delta":247493595},{"NoteNumber":49,"Velocity":22,"Duration":237500,"SoundDuration":237500,"Delta":247493595},{"NoteNumber":65,"Velocity":26,"Duration":237500,"SoundDuration":237500,"Delta":247743595},{"NoteNumber":56,"Velocity":26,"Duration":237500,"SoundDuration":237500,"Delta":247743595},{"NoteNumber":53,"Velocity":26,"Duration":237500,"SoundDuration":237500,"Delta":247743595},{"NoteNumber":44,"Velocity":22,"Duration":237500,"SoundDuration":237500,"Delta":247743595},{"NoteNumber":49,"Velocity":22,"Duration":237500,"SoundDuration":237500,"Delta":247743595},{"NoteNumber":70,"Velocity":52,"Duration":428571,"SoundDuration":428571,"Delta":247991809},{"NoteNumber":53,"Velocity":26,"Duration":203571,"SoundDuration":203571,"Delta":247991809},{"NoteNumber":44,"Velocity":22,"Duration":203571,"SoundDuration":203571,"Delta":247991809},{"NoteNumber":49,"Velocity":22,"Duration":203571,"SoundDuration":203571,"Delta":247991809},{"NoteNumber":58,"Velocity":27,"Duration":203571,"SoundDuration":203571,"Delta":248206094},{"NoteNumber":65,"Velocity":27,"Duration":203571,"SoundDuration":203571,"Delta":248206094},{"NoteNumber":53,"Velocity":26,"Duration":203571,"SoundDuration":203571,"Delta":248206094},{"NoteNumber":44,"Velocity":22,"Duration":203571,"SoundDuration":203571,"Delta":248206094},{"NoteNumber":49,"Velocity":22,"Duration":203571,"SoundDuration":203571,"Delta":248206094},{"NoteNumber":68,"Velocity":45,"Duration":444471,"SoundDuration":444471,"Delta":248420380},{"NoteNumber":53,"Velocity":26,"Duration":211110,"SoundDuration":211110,"Delta":248420380},{"NoteNumber":44,"Velocity":22,"Duration":211110,"SoundDuration":211110,"Delta":248420380},{"NoteNumber":49,"Velocity":22,"Duration":211110,"SoundDuration":211110,"Delta":248420380},{"NoteNumber":65,"Velocity":26,"Duration":211110,"SoundDuration":211110,"Delta":248642602},{"NoteNumber":56,"Velocity":26,"Duration":211110,"SoundDuration":211110,"Delta":248642602},{"NoteNumber":53,"Velocity":26,"Duration":211110,"SoundDuration":211110,"Delta":248642602},{"NoteNumber":49,"Velocity":22,"Duration":211110,"SoundDuration":211110,"Delta":248642602},{"NoteNumber":44,"Velocity":22,"Duration":211110,"SoundDuration":211110,"Delta":248642602},{"NoteNumber":70,"Velocity":57,"Duration":1338290,"SoundDuration":1338290,"Delta":248864851},{"NoteNumber":36,"Velocity":41,"Duration":211896,"SoundDuration":211896,"Delta":248864851},{"NoteNumber":56,"Velocity":26,"Duration":211896,"SoundDuration":211896,"Delta":249087900},{"NoteNumber":66,"Velocity":26,"Duration":211896,"SoundDuration":211896,"Delta":249087900},{"NoteNumber":51,"Velocity":22,"Duration":211896,"SoundDuration":211896,"Delta":249087900},{"NoteNumber":54,"Velocity":26,"Duration":211896,"SoundDuration":211896,"Delta":249087900},{"NoteNumber":44,"Velocity":22,"Duration":211896,"SoundDuration":211896,"Delta":249087900},{"NoteNumber":56,"Velocity":26,"Duration":211896,"SoundDuration":211896,"Delta":249310948},{"NoteNumber":66,"Velocity":26,"Duration":211896,"SoundDuration":211896,"Delta":249310948},{"NoteNumber":44,"Velocity":22,"Duration":211896,"SoundDuration":211896,"Delta":249310948},{"NoteNumber":51,"Velocity":22,"Duration":211896,"SoundDuration":211896,"Delta":249310948},{"NoteNumber":54,"Velocity":26,"Duration":211896,"SoundDuration":211896,"Delta":249310948},{"NoteNumber":56,"Velocity":26,"Duration":211896,"SoundDuration":211896,"Delta":249533997},{"NoteNumber":66,"Velocity":26,"Duration":211896,"SoundDuration":211896,"Delta":249533997},{"NoteNumber":44,"Velocity":22,"Duration":211896,"SoundDuration":211896,"Delta":249533997},{"NoteNumber":51,"Velocity":22,"Duration":211896,"SoundDuration":211896,"Delta":249533997},{"NoteNumber":54,"Velocity":26,"Duration":211896,"SoundDuration":211896,"Delta":249533997},{"NoteNumber":56,"Velocity":26,"Duration":211896,"SoundDuration":211896,"Delta":249757045},{"NoteNumber":66,"Velocity":26,"Duration":211896,"SoundDuration":211896,"Delta":249757045},{"NoteNumber":44,"Velocity":22,"Duration":211896,"SoundDuration":211896,"Delta":249757045},{"NoteNumber":51,"Velocity":22,"Duration":211896,"SoundDuration":211896,"Delta":249757045},{"NoteNumber":54,"Velocity":26,"Duration":211896,"SoundDuration":211896,"Delta":249757045},{"NoteNumber":56,"Velocity":26,"Duration":223048,"SoundDuration":223048,"Delta":249980094},{"NoteNumber":66,"Velocity":26,"Duration":223048,"SoundDuration":223048,"Delta":249980094},{"NoteNumber":44,"Velocity":22,"Duration":211896,"SoundDuration":211896,"Delta":249980094},{"NoteNumber":51,"Velocity":22,"Duration":211896,"SoundDuration":211896,"Delta":249980094},{"NoteNumber":54,"Velocity":26,"Duration":211896,"SoundDuration":211896,"Delta":249980094},{"NoteNumber":68,"Velocity":50,"Duration":1338290,"SoundDuration":1338290,"Delta":250203142},{"NoteNumber":44,"Velocity":22,"Duration":211896,"SoundDuration":211896,"Delta":250203142},{"NoteNumber":51,"Velocity":22,"Duration":211896,"SoundDuration":211896,"Delta":250203142},{"NoteNumber":54,"Velocity":26,"Duration":211896,"SoundDuration":211896,"Delta":250203142},{"NoteNumber":56,"Velocity":28,"Duration":211896,"SoundDuration":211896,"Delta":250426191},{"NoteNumber":66,"Velocity":28,"Duration":211896,"SoundDuration":211896,"Delta":250426191},{"NoteNumber":44,"Velocity":22,"Duration":211896,"SoundDuration":211896,"Delta":250426191},{"NoteNumber":51,"Velocity":22,"Duration":211896,"SoundDuration":211896,"Delta":250426191},{"NoteNumber":54,"Velocity":26,"Duration":211896,"SoundDuration":211896,"Delta":250426191},{"NoteNumber":56,"Velocity":29,"Duration":211896,"SoundDuration":211896,"Delta":250649239},{"NoteNumber":66,"Velocity":29,"Duration":211896,"SoundDuration":211896,"Delta":250649239},{"NoteNumber":44,"Velocity":22,"Duration":211896,"SoundDuration":211896,"Delta":250649239},{"NoteNumber":51,"Velocity":22,"Duration":211896,"SoundDuration":211896,"Delta":250649239},{"NoteNumber":54,"Velocity":26,"Duration":211896,"SoundDuration":211896,"Delta":250649239},{"NoteNumber":56,"Velocity":29,"Duration":211896,"SoundDuration":211896,"Delta":250872288},{"NoteNumber":66,"Velocity":29,"Duration":211896,"SoundDuration":211896,"Delta":250872288},{"NoteNumber":44,"Velocity":22,"Duration":211896,"SoundDuration":211896,"Delta":250872288},{"NoteNumber":51,"Velocity":22,"Duration":211896,"SoundDuration":211896,"Delta":250872288},{"NoteNumber":54,"Velocity":26,"Duration":211896,"SoundDuration":211896,"Delta":250872288},{"NoteNumber":56,"Velocity":29,"Duration":211896,"SoundDuration":211896,"Delta":251095336},{"NoteNumber":66,"Velocity":29,"Duration":211896,"SoundDuration":211896,"Delta":251095336},{"NoteNumber":51,"Velocity":22,"Duration":211896,"SoundDuration":211896,"Delta":251095336},{"NoteNumber":44,"Velocity":22,"Duration":211896,"SoundDuration":211896,"Delta":251095336},{"NoteNumber":54,"Velocity":26,"Duration":211896,"SoundDuration":211896,"Delta":251095336},{"NoteNumber":56,"Velocity":29,"Duration":211896,"SoundDuration":211896,"Delta":251318385},{"NoteNumber":66,"Velocity":29,"Duration":211896,"SoundDuration":211896,"Delta":251318385},{"NoteNumber":44,"Velocity":22,"Duration":211896,"SoundDuration":211896,"Delta":251318385},{"NoteNumber":51,"Velocity":22,"Duration":211896,"SoundDuration":211896,"Delta":251318385},{"NoteNumber":54,"Velocity":26,"Duration":211896,"SoundDuration":211896,"Delta":251318385},{"NoteNumber":68,"Velocity":52,"Duration":1338290,"SoundDuration":1338290,"Delta":251541433},{"NoteNumber":37,"Velocity":40,"Duration":211896,"SoundDuration":211896,"Delta":251541433},{"NoteNumber":65,"Velocity":26,"Duration":211896,"SoundDuration":211896,"Delta":251764482},{"NoteNumber":56,"Velocity":26,"Duration":211896,"SoundDuration":211896,"Delta":251764482},{"NoteNumber":53,"Velocity":26,"Duration":211896,"SoundDuration":211896,"Delta":251764482},{"NoteNumber":49,"Velocity":22,"Duration":211896,"SoundDuration":211896,"Delta":251764482},{"NoteNumber":44,"Velocity":22,"Duration":211896,"SoundDuration":211896,"Delta":251764482},{"NoteNumber":65,"Velocity":26,"Duration":211896,"SoundDuration":211896,"Delta":251987530},{"NoteNumber":56,"Velocity":26,"Duration":211896,"SoundDuration":211896,"Delta":251987530},{"NoteNumber":53,"Velocity":26,"Duration":211896,"SoundDuration":211896,"Delta":251987530},{"NoteNumber":44,"Velocity":22,"Duration":211896,"SoundDuration":211896,"Delta":251987530},{"NoteNumber":49,"Velocity":22,"Duration":211896,"SoundDuration":211896,"Delta":251987530},{"NoteNumber":65,"Velocity":26,"Duration":211896,"SoundDuration":211896,"Delta":252210579},{"NoteNumber":56,"Velocity":26,"Duration":211896,"SoundDuration":211896,"Delta":252210579},{"NoteNumber":53,"Velocity":26,"Duration":211896,"SoundDuration":211896,"Delta":252210579},{"NoteNumber":44,"Velocity":22,"Duration":211896,"SoundDuration":211896,"Delta":252210579},{"NoteNumber":49,"Velocity":22,"Duration":211896,"SoundDuration":211896,"Delta":252210579},{"NoteNumber":65,"Velocity":26,"Duration":211896,"SoundDuration":211896,"Delta":252433627},{"NoteNumber":56,"Velocity":26,"Duration":211896,"SoundDuration":211896,"Delta":252433627},{"NoteNumber":53,"Velocity":26,"Duration":211896,"SoundDuration":211896,"Delta":252433627},{"NoteNumber":44,"Velocity":22,"Duration":211896,"SoundDuration":211896,"Delta":252433627},{"NoteNumber":49,"Velocity":22,"Duration":211896,"SoundDuration":211896,"Delta":252433627},{"NoteNumber":65,"Velocity":27,"Duration":223048,"SoundDuration":223048,"Delta":252656676},{"NoteNumber":56,"Velocity":27,"Duration":223048,"SoundDuration":223048,"Delta":252656676},{"NoteNumber":53,"Velocity":26,"Duration":211896,"SoundDuration":211896,"Delta":252656676},{"NoteNumber":44,"Velocity":22,"Duration":211896,"SoundDuration":211896,"Delta":252656676},{"NoteNumber":49,"Velocity":22,"Duration":211896,"SoundDuration":211896,"Delta":252656676},{"NoteNumber":77,"Velocity":66,"Duration":428863,"SoundDuration":428863,"Delta":252879724},{"NoteNumber":53,"Velocity":26,"Duration":203863,"SoundDuration":203863,"Delta":252879724},{"NoteNumber":44,"Velocity":22,"Duration":203863,"SoundDuration":203863,"Delta":252879724},{"NoteNumber":49,"Velocity":22,"Duration":203863,"SoundDuration":203863,"Delta":252879724},{"NoteNumber":65,"Velocity":28,"Duration":203571,"SoundDuration":203571,"Delta":253094302},{"NoteNumber":68,"Velocity":28,"Duration":203571,"SoundDuration":203571,"Delta":253094302},{"NoteNumber":53,"Velocity":26,"Duration":203571,"SoundDuration":203571,"Delta":253094302},{"NoteNumber":44,"Velocity":22,"Duration":203571,"SoundDuration":203571,"Delta":253094302},{"NoteNumber":49,"Velocity":22,"Duration":203571,"SoundDuration":203571,"Delta":253094302},{"NoteNumber":75,"Velocity":62,"Duration":428571,"SoundDuration":428571,"Delta":253308587},{"NoteNumber":53,"Velocity":26,"Duration":203571,"SoundDuration":203571,"Delta":253308587},{"NoteNumber":44,"Velocity":22,"Duration":203571,"SoundDuration":203571,"Delta":253308587},{"NoteNumber":49,"Velocity":22,"Duration":203571,"SoundDuration":203571,"Delta":253308587},{"NoteNumber":63,"Velocity":27,"Duration":203571,"SoundDuration":203571,"Delta":253522873},{"NoteNumber":68,"Velocity":27,"Duration":203571,"SoundDuration":203571,"Delta":253522873},{"NoteNumber":53,"Velocity":26,"Duration":203571,"SoundDuration":203571,"Delta":253522873},{"NoteNumber":44,"Velocity":22,"Duration":203571,"SoundDuration":203571,"Delta":253522873},{"NoteNumber":49,"Velocity":22,"Duration":203571,"SoundDuration":203571,"Delta":253522873},{"NoteNumber":73,"Velocity":60,"Duration":522426,"SoundDuration":522426,"Delta":253737158},{"NoteNumber":53,"Velocity":26,"Duration":247317,"SoundDuration":247317,"Delta":253737158},{"NoteNumber":44,"Velocity":22,"Duration":247317,"SoundDuration":247317,"Delta":253737158},{"NoteNumber":49,"Velocity":22,"Duration":247317,"SoundDuration":247317,"Delta":253737158},{"NoteNumber":61,"Velocity":27,"Duration":248908,"SoundDuration":248908,"Delta":253997576},{"NoteNumber":68,"Velocity":27,"Duration":248908,"SoundDuration":248908,"Delta":253997576},{"NoteNumber":53,"Velocity":26,"Duration":248908,"SoundDuration":248908,"Delta":253997576},{"NoteNumber":49,"Velocity":22,"Duration":248908,"SoundDuration":248908,"Delta":253997576},{"NoteNumber":44,"Velocity":22,"Duration":248908,"SoundDuration":248908,"Delta":253997576},{"NoteNumber":73,"Velocity":60,"Duration":1334658,"SoundDuration":1334658,"Delta":254259585},{"NoteNumber":39,"Velocity":39,"Duration":212437,"SoundDuration":212437,"Delta":254259585},{"NoteNumber":61,"Velocity":27,"Duration":211110,"SoundDuration":211110,"Delta":254483133},{"NoteNumber":68,"Velocity":27,"Duration":211110,"SoundDuration":211110,"Delta":254483133},{"NoteNumber":51,"Velocity":22,"Duration":211110,"SoundDuration":211110,"Delta":254483133},{"NoteNumber":54,"Velocity":26,"Duration":211110,"SoundDuration":211110,"Delta":254483133},{"NoteNumber":44,"Velocity":22,"Duration":211110,"SoundDuration":211110,"Delta":254483133},{"NoteNumber":61,"Velocity":27,"Duration":211110,"SoundDuration":211110,"Delta":254705355},{"NoteNumber":68,"Velocity":27,"Duration":211110,"SoundDuration":211110,"Delta":254705355},{"NoteNumber":44,"Velocity":22,"Duration":211110,"SoundDuration":211110,"Delta":254705355},{"NoteNumber":51,"Velocity":22,"Duration":211110,"SoundDuration":211110,"Delta":254705355},{"NoteNumber":54,"Velocity":26,"Duration":211110,"SoundDuration":211110,"Delta":254705355},{"NoteNumber":61,"Velocity":27,"Duration":211110,"SoundDuration":211110,"Delta":254927577},{"NoteNumber":68,"Velocity":27,"Duration":211110,"SoundDuration":211110,"Delta":254927577},{"NoteNumber":44,"Velocity":22,"Duration":211110,"SoundDuration":211110,"Delta":254927577},{"NoteNumber":51,"Velocity":22,"Duration":211110,"SoundDuration":211110,"Delta":254927577},{"NoteNumber":54,"Velocity":26,"Duration":211110,"SoundDuration":211110,"Delta":254927577},{"NoteNumber":61,"Velocity":27,"Duration":211110,"SoundDuration":211110,"Delta":255149799},{"NoteNumber":68,"Velocity":27,"Duration":211110,"SoundDuration":211110,"Delta":255149799},{"NoteNumber":44,"Velocity":22,"Duration":211110,"SoundDuration":211110,"Delta":255149799},{"NoteNumber":51,"Velocity":22,"Duration":211110,"SoundDuration":211110,"Delta":255149799},{"NoteNumber":54,"Velocity":26,"Duration":211110,"SoundDuration":211110,"Delta":255149799},{"NoteNumber":61,"Velocity":27,"Duration":211110,"SoundDuration":211110,"Delta":255372021},{"NoteNumber":68,"Velocity":27,"Duration":211110,"SoundDuration":211110,"Delta":255372021},{"NoteNumber":44,"Velocity":22,"Duration":211110,"SoundDuration":211110,"Delta":255372021},{"NoteNumber":51,"Velocity":22,"Duration":211110,"SoundDuration":211110,"Delta":255372021},{"NoteNumber":54,"Velocity":26,"Duration":211110,"SoundDuration":211110,"Delta":255372021},{"NoteNumber":72,"Velocity":61,"Duration":1333956,"SoundDuration":1333956,"Delta":255594243},{"NoteNumber":44,"Velocity":22,"Duration":211110,"SoundDuration":211110,"Delta":255594243},{"NoteNumber":51,"Velocity":22,"Duration":211110,"SoundDuration":211110,"Delta":255594243},{"NoteNumber":54,"Velocity":26,"Duration":211110,"SoundDuration":211110,"Delta":255594243},{"NoteNumber":60,"Velocity":27,"Duration":211110,"SoundDuration":211110,"Delta":255816465},{"NoteNumber":68,"Velocity":27,"Duration":211110,"SoundDuration":211110,"Delta":255816465},{"NoteNumber":44,"Velocity":22,"Duration":211110,"SoundDuration":211110,"Delta":255816465},{"NoteNumber":51,"Velocity":22,"Duration":211110,"SoundDuration":211110,"Delta":255816465},{"NoteNumber":54,"Velocity":26,"Duration":211110,"SoundDuration":211110,"Delta":255816465},{"NoteNumber":60,"Velocity":27,"Duration":211110,"SoundDuration":211110,"Delta":256038687},{"NoteNumber":68,"Velocity":27,"Duration":211110,"SoundDuration":211110,"Delta":256038687},{"NoteNumber":44,"Velocity":22,"Duration":211110,"SoundDuration":211110,"Delta":256038687},{"NoteNumber":51,"Velocity":22,"Duration":211110,"SoundDuration":211110,"Delta":256038687},{"NoteNumber":54,"Velocity":26,"Duration":211110,"SoundDuration":211110,"Delta":256038687},{"NoteNumber":60,"Velocity":27,"Duration":211110,"SoundDuration":211110,"Delta":256260909},{"NoteNumber":68,"Velocity":27,"Duration":211110,"SoundDuration":211110,"Delta":256260909},{"NoteNumber":44,"Velocity":22,"Duration":211110,"SoundDuration":211110,"Delta":256260909},{"NoteNumber":51,"Velocity":22,"Duration":211110,"SoundDuration":211110,"Delta":256260909},{"NoteNumber":54,"Velocity":26,"Duration":211110,"SoundDuration":211110,"Delta":256260909},{"NoteNumber":60,"Velocity":27,"Duration":211110,"SoundDuration":211110,"Delta":256483131},{"NoteNumber":68,"Velocity":27,"Duration":211110,"SoundDuration":211110,"Delta":256483131},{"NoteNumber":51,"Velocity":22,"Duration":211110,"SoundDuration":211110,"Delta":256483131},{"NoteNumber":44,"Velocity":22,"Duration":211110,"SoundDuration":211110,"Delta":256483131},{"NoteNumber":54,"Velocity":26,"Duration":211110,"SoundDuration":211110,"Delta":256483131},{"NoteNumber":60,"Velocity":27,"Duration":211110,"SoundDuration":211110,"Delta":256705353},{"NoteNumber":68,"Velocity":27,"Duration":211110,"SoundDuration":211110,"Delta":256705353},{"NoteNumber":44,"Velocity":22,"Duration":211110,"SoundDuration":211110,"Delta":256705353},{"NoteNumber":51,"Velocity":22,"Duration":211110,"SoundDuration":211110,"Delta":256705353},{"NoteNumber":54,"Velocity":26,"Duration":211110,"SoundDuration":211110,"Delta":256705353},{"NoteNumber":72,"Velocity":58,"Duration":481064,"SoundDuration":481064,"Delta":256928200},{"NoteNumber":40,"Velocity":42,"Duration":228915,"SoundDuration":228915,"Delta":256928200},{"NoteNumber":60,"Velocity":35,"Duration":228915,"SoundDuration":228915,"Delta":257169164},{"NoteNumber":69,"Velocity":35,"Duration":228915,"SoundDuration":228915,"Delta":257169164},{"NoteNumber":52,"Velocity":35,"Duration":228915,"SoundDuration":228915,"Delta":257169164},{"NoteNumber":45,"Velocity":29,"Duration":228915,"SoundDuration":228915,"Delta":257169164},{"NoteNumber":73,"Velocity":68,"Duration":1290323,"SoundDuration":1290323,"Delta":257409264},{"NoteNumber":45,"Velocity":29,"Duration":204301,"SoundDuration":204301,"Delta":257409264},{"NoteNumber":52,"Velocity":35,"Duration":204301,"SoundDuration":204301,"Delta":257409264},{"NoteNumber":61,"Velocity":35,"Duration":204301,"SoundDuration":204301,"Delta":257624318},{"NoteNumber":69,"Velocity":35,"Duration":204301,"SoundDuration":204301,"Delta":257624318},{"NoteNumber":45,"Velocity":29,"Duration":204301,"SoundDuration":204301,"Delta":257624318},{"NoteNumber":52,"Velocity":35,"Duration":204301,"SoundDuration":204301,"Delta":257624318},{"NoteNumber":61,"Velocity":35,"Duration":204301,"SoundDuration":204301,"Delta":257839372},{"NoteNumber":69,"Velocity":35,"Duration":204301,"SoundDuration":204301,"Delta":257839372},{"NoteNumber":45,"Velocity":29,"Duration":204301,"SoundDuration":204301,"Delta":257839372},{"NoteNumber":52,"Velocity":35,"Duration":204301,"SoundDuration":204301,"Delta":257839372},{"NoteNumber":61,"Velocity":35,"Duration":204301,"SoundDuration":204301,"Delta":258054426},{"NoteNumber":69,"Velocity":35,"Duration":204301,"SoundDuration":204301,"Delta":258054426},{"NoteNumber":45,"Velocity":29,"Duration":204301,"SoundDuration":204301,"Delta":258054426},{"NoteNumber":52,"Velocity":35,"Duration":204301,"SoundDuration":204301,"Delta":258054426},{"NoteNumber":61,"Velocity":35,"Duration":204301,"SoundDuration":204301,"Delta":258269480},{"NoteNumber":69,"Velocity":35,"Duration":204301,"SoundDuration":204301,"Delta":258269480},{"NoteNumber":52,"Velocity":35,"Duration":204301,"SoundDuration":204301,"Delta":258269480},{"NoteNumber":45,"Velocity":29,"Duration":204301,"SoundDuration":204301,"Delta":258269480},{"NoteNumber":61,"Velocity":35,"Duration":204301,"SoundDuration":204301,"Delta":258484534},{"NoteNumber":69,"Velocity":35,"Duration":204301,"SoundDuration":204301,"Delta":258484534},{"NoteNumber":45,"Velocity":29,"Duration":204301,"SoundDuration":204301,"Delta":258484534},{"NoteNumber":52,"Velocity":35,"Duration":204301,"SoundDuration":204301,"Delta":258484534},{"NoteNumber":73,"Velocity":70,"Duration":430108,"SoundDuration":430108,"Delta":258699588},{"NoteNumber":40,"Velocity":35,"Duration":430108,"SoundDuration":430108,"Delta":258699588},{"NoteNumber":61,"Velocity":35,"Duration":215054,"SoundDuration":215054,"Delta":258914642},{"NoteNumber":69,"Velocity":35,"Duration":215054,"SoundDuration":215054,"Delta":258914642},{"NoteNumber":52,"Velocity":35,"Duration":215054,"SoundDuration":215054,"Delta":258914642},{"NoteNumber":45,"Velocity":29,"Duration":215054,"SoundDuration":215054,"Delta":258914642},{"NoteNumber":73,"Velocity":69,"Duration":430939,"SoundDuration":430939,"Delta":259129696},{"NoteNumber":40,"Velocity":35,"Duration":430939,"SoundDuration":430939,"Delta":259129696},{"NoteNumber":61,"Velocity":35,"Duration":215885,"SoundDuration":215885,"Delta":259344750},{"NoteNumber":69,"Velocity":35,"Duration":215885,"SoundDuration":215885,"Delta":259344750},{"NoteNumber":52,"Velocity":35,"Duration":215885,"SoundDuration":215885,"Delta":259344750},{"NoteNumber":45,"Velocity":29,"Duration":215885,"SoundDuration":215885,"Delta":259344750},{"NoteNumber":73,"Velocity":70,"Duration":480000,"SoundDuration":480000,"Delta":259560636},{"NoteNumber":35,"Velocity":42,"Duration":228000,"SoundDuration":228000,"Delta":259560636},{"NoteNumber":61,"Velocity":44,"Duration":228000,"SoundDuration":228000,"Delta":259800636},{"NoteNumber":68,"Velocity":44,"Duration":228000,"SoundDuration":228000,"Delta":259800636},{"NoteNumber":47,"Velocity":38,"Duration":228000,"SoundDuration":228000,"Delta":259800636},{"NoteNumber":40,"Velocity":31,"Duration":228000,"SoundDuration":228000,"Delta":259800636},{"NoteNumber":74,"Velocity":78,"Duration":1294964,"SoundDuration":1294964,"Delta":260040636},{"NoteNumber":40,"Velocity":31,"Duration":205036,"SoundDuration":205036,"Delta":260040636},{"NoteNumber":47,"Velocity":38,"Duration":205036,"SoundDuration":205036,"Delta":260040636},{"NoteNumber":62,"Velocity":44,"Duration":205036,"SoundDuration":205036,"Delta":260256463},{"NoteNumber":68,"Velocity":44,"Duration":205036,"SoundDuration":205036,"Delta":260256463},{"NoteNumber":40,"Velocity":31,"Duration":205036,"SoundDuration":205036,"Delta":260256463},{"NoteNumber":47,"Velocity":38,"Duration":205036,"SoundDuration":205036,"Delta":260256463},{"NoteNumber":62,"Velocity":44,"Duration":205036,"SoundDuration":205036,"Delta":260472291},{"NoteNumber":68,"Velocity":44,"Duration":205036,"SoundDuration":205036,"Delta":260472291},{"NoteNumber":47,"Velocity":38,"Duration":205036,"SoundDuration":205036,"Delta":260472291},{"NoteNumber":40,"Velocity":31,"Duration":205036,"SoundDuration":205036,"Delta":260472291},{"NoteNumber":62,"Velocity":44,"Duration":205036,"SoundDuration":205036,"Delta":260688118},{"NoteNumber":68,"Velocity":44,"Duration":205036,"SoundDuration":205036,"Delta":260688118},{"NoteNumber":40,"Velocity":31,"Duration":205036,"SoundDuration":205036,"Delta":260688118},{"NoteNumber":47,"Velocity":38,"Duration":205036,"SoundDuration":205036,"Delta":260688118},{"NoteNumber":62,"Velocity":44,"Duration":205036,"SoundDuration":205036,"Delta":260903946},{"NoteNumber":68,"Velocity":44,"Duration":205036,"SoundDuration":205036,"Delta":260903946},{"NoteNumber":40,"Velocity":34,"Duration":205036,"SoundDuration":205036,"Delta":260903946},{"NoteNumber":47,"Velocity":39,"Duration":205036,"SoundDuration":205036,"Delta":260903946},{"NoteNumber":62,"Velocity":44,"Duration":205036,"SoundDuration":205036,"Delta":261119773},{"NoteNumber":68,"Velocity":44,"Duration":205036,"SoundDuration":205036,"Delta":261119773},{"NoteNumber":40,"Velocity":34,"Duration":205036,"SoundDuration":205036,"Delta":261119773},{"NoteNumber":47,"Velocity":39,"Duration":205036,"SoundDuration":205036,"Delta":261119773},{"NoteNumber":74,"Velocity":75,"Duration":431655,"SoundDuration":431655,"Delta":261335601},{"NoteNumber":35,"Velocity":39,"Duration":431655,"SoundDuration":431655,"Delta":261335601},{"NoteNumber":62,"Velocity":44,"Duration":215827,"SoundDuration":215827,"Delta":261551428},{"NoteNumber":68,"Velocity":44,"Duration":215827,"SoundDuration":215827,"Delta":261551428},{"NoteNumber":40,"Velocity":34,"Duration":215827,"SoundDuration":215827,"Delta":261551428},{"NoteNumber":47,"Velocity":39,"Duration":215827,"SoundDuration":215827,"Delta":261551428},{"NoteNumber":74,"Velocity":75,"Duration":432428,"SoundDuration":432428,"Delta":261767256},{"NoteNumber":35,"Velocity":39,"Duration":432428,"SoundDuration":432428,"Delta":261767256},{"NoteNumber":62,"Velocity":44,"Duration":216601,"SoundDuration":216601,"Delta":261983083},{"NoteNumber":68,"Velocity":44,"Duration":216601,"SoundDuration":216601,"Delta":261983083},{"NoteNumber":47,"Velocity":39,"Duration":216601,"SoundDuration":216601,"Delta":261983083},{"NoteNumber":40,"Velocity":34,"Duration":216601,"SoundDuration":216601,"Delta":261983083},{"NoteNumber":77,"Velocity":84,"Duration":480000,"SoundDuration":480000,"Delta":262199684},{"NoteNumber":38,"Velocity":49,"Duration":228000,"SoundDuration":228000,"Delta":262199684},{"NoteNumber":65,"Velocity":46,"Duration":228000,"SoundDuration":228000,"Delta":262439684},{"NoteNumber":74,"Velocity":46,"Duration":228000,"SoundDuration":228000,"Delta":262439684},{"NoteNumber":45,"Velocity":35,"Duration":228000,"SoundDuration":228000,"Delta":262439684},{"NoteNumber":50,"Velocity":42,"Duration":228000,"SoundDuration":228000,"Delta":262439684},{"NoteNumber":78,"Velocity":88,"Duration":1294964,"SoundDuration":1294964,"Delta":262679684},{"NoteNumber":45,"Velocity":35,"Duration":205036,"SoundDuration":205036,"Delta":262679684},{"NoteNumber":50,"Velocity":42,"Duration":205036,"SoundDuration":205036,"Delta":262679684},{"NoteNumber":66,"Velocity":48,"Duration":205036,"SoundDuration":205036,"Delta":262895512},{"NoteNumber":74,"Velocity":48,"Duration":205036,"SoundDuration":205036,"Delta":262895512},{"NoteNumber":45,"Velocity":35,"Duration":205036,"SoundDuration":205036,"Delta":262895512},{"NoteNumber":50,"Velocity":42,"Duration":205036,"SoundDuration":205036,"Delta":262895512},{"NoteNumber":66,"Velocity":47,"Duration":205036,"SoundDuration":205036,"Delta":263111339},{"NoteNumber":74,"Velocity":47,"Duration":205036,"SoundDuration":205036,"Delta":263111339},{"NoteNumber":45,"Velocity":35,"Duration":205036,"SoundDuration":205036,"Delta":263111339},{"NoteNumber":50,"Velocity":42,"Duration":205036,"SoundDuration":205036,"Delta":263111339},{"NoteNumber":66,"Velocity":47,"Duration":205036,"SoundDuration":205036,"Delta":263327167},{"NoteNumber":74,"Velocity":47,"Duration":205036,"SoundDuration":205036,"Delta":263327167},{"NoteNumber":45,"Velocity":35,"Duration":205036,"SoundDuration":205036,"Delta":263327167},{"NoteNumber":50,"Velocity":42,"Duration":205036,"SoundDuration":205036,"Delta":263327167},{"NoteNumber":66,"Velocity":47,"Duration":205036,"SoundDuration":205036,"Delta":263542994},{"NoteNumber":74,"Velocity":47,"Duration":205036,"SoundDuration":205036,"Delta":263542994},{"NoteNumber":50,"Velocity":46,"Duration":205036,"SoundDuration":205036,"Delta":263542994},{"NoteNumber":45,"Velocity":39,"Duration":205036,"SoundDuration":205036,"Delta":263542994},{"NoteNumber":66,"Velocity":47,"Duration":205036,"SoundDuration":205036,"Delta":263758822},{"NoteNumber":74,"Velocity":47,"Duration":205036,"SoundDuration":205036,"Delta":263758822},{"NoteNumber":50,"Velocity":45,"Duration":205036,"SoundDuration":205036,"Delta":263758822},{"NoteNumber":45,"Velocity":38,"Duration":205036,"SoundDuration":205036,"Delta":263758822},{"NoteNumber":78,"Velocity":86,"Duration":431655,"SoundDuration":431655,"Delta":263974649},{"NoteNumber":38,"Velocity":45,"Duration":431655,"SoundDuration":431655,"Delta":263974649},{"NoteNumber":66,"Velocity":48,"Duration":215827,"SoundDuration":215827,"Delta":264190477},{"NoteNumber":74,"Velocity":48,"Duration":215827,"SoundDuration":215827,"Delta":264190477},{"NoteNumber":50,"Velocity":45,"Duration":215827,"SoundDuration":215827,"Delta":264190477},{"NoteNumber":45,"Velocity":38,"Duration":215827,"SoundDuration":215827,"Delta":264190477},{"NoteNumber":78,"Velocity":86,"Duration":432428,"SoundDuration":432428,"Delta":264406304},{"NoteNumber":38,"Velocity":45,"Duration":432428,"SoundDuration":432428,"Delta":264406304},{"NoteNumber":66,"Velocity":47,"Duration":216601,"SoundDuration":216601,"Delta":264622132},{"NoteNumber":74,"Velocity":47,"Duration":216601,"SoundDuration":216601,"Delta":264622132},{"NoteNumber":50,"Velocity":45,"Duration":216601,"SoundDuration":216601,"Delta":264622132},{"NoteNumber":45,"Velocity":38,"Duration":216601,"SoundDuration":216601,"Delta":264622132},{"NoteNumber":78,"Velocity":86,"Duration":480000,"SoundDuration":480000,"Delta":264838733},{"NoteNumber":33,"Velocity":45,"Duration":480000,"SoundDuration":480000,"Delta":264838733},{"NoteNumber":66,"Velocity":47,"Duration":240000,"SoundDuration":240000,"Delta":265078733},{"NoteNumber":73,"Velocity":47,"Duration":240000,"SoundDuration":240000,"Delta":265078733},{"NoteNumber":45,"Velocity":45,"Duration":240000,"SoundDuration":240000,"Delta":265078733},{"NoteNumber":40,"Velocity":38,"Duration":240000,"SoundDuration":240000,"Delta":265078733},{"NoteNumber":79,"Velocity":96,"Duration":1294964,"SoundDuration":1294964,"Delta":265318733},{"NoteNumber":33,"Velocity":45,"Duration":215827,"SoundDuration":215827,"Delta":265318733},{"NoteNumber":67,"Velocity":49,"Duration":205036,"SoundDuration":205036,"Delta":265534561},{"NoteNumber":73,"Velocity":49,"Duration":205036,"SoundDuration":205036,"Delta":265534561},{"NoteNumber":45,"Velocity":45,"Duration":205036,"SoundDuration":205036,"Delta":265534561},{"NoteNumber":40,"Velocity":38,"Duration":205036,"SoundDuration":205036,"Delta":265534561},{"NoteNumber":67,"Velocity":49,"Duration":205036,"SoundDuration":205036,"Delta":265750388},{"NoteNumber":73,"Velocity":49,"Duration":205036,"SoundDuration":205036,"Delta":265750388},{"NoteNumber":45,"Velocity":45,"Duration":205036,"SoundDuration":205036,"Delta":265750388},{"NoteNumber":40,"Velocity":38,"Duration":205036,"SoundDuration":205036,"Delta":265750388},{"NoteNumber":67,"Velocity":49,"Duration":205036,"SoundDuration":205036,"Delta":265966216},{"NoteNumber":73,"Velocity":49,"Duration":205036,"SoundDuration":205036,"Delta":265966216},{"NoteNumber":45,"Velocity":45,"Duration":205036,"SoundDuration":205036,"Delta":265966216},{"NoteNumber":40,"Velocity":38,"Duration":205036,"SoundDuration":205036,"Delta":265966216},{"NoteNumber":67,"Velocity":49,"Duration":205036,"SoundDuration":205036,"Delta":266182043},{"NoteNumber":73,"Velocity":49,"Duration":205036,"SoundDuration":205036,"Delta":266182043},{"NoteNumber":45,"Velocity":49,"Duration":205036,"SoundDuration":205036,"Delta":266182043},{"NoteNumber":40,"Velocity":41,"Duration":205036,"SoundDuration":205036,"Delta":266182043},{"NoteNumber":67,"Velocity":49,"Duration":205036,"SoundDuration":205036,"Delta":266397871},{"NoteNumber":73,"Velocity":49,"Duration":205036,"SoundDuration":205036,"Delta":266397871},{"NoteNumber":45,"Velocity":49,"Duration":205036,"SoundDuration":205036,"Delta":266397871},{"NoteNumber":40,"Velocity":41,"Duration":205036,"SoundDuration":205036,"Delta":266397871},{"NoteNumber":79,"Velocity":94,"Duration":431655,"SoundDuration":431655,"Delta":266613698},{"NoteNumber":33,"Velocity":49,"Duration":431655,"SoundDuration":431655,"Delta":266613698},{"NoteNumber":67,"Velocity":48,"Duration":215827,"SoundDuration":215827,"Delta":266829526},{"NoteNumber":73,"Velocity":48,"Duration":215827,"SoundDuration":215827,"Delta":266829526},{"NoteNumber":45,"Velocity":49,"Duration":215827,"SoundDuration":215827,"Delta":266829526},{"NoteNumber":40,"Velocity":41,"Duration":215827,"SoundDuration":215827,"Delta":266829526},{"NoteNumber":79,"Velocity":97,"Duration":432428,"SoundDuration":432428,"Delta":267045353},{"NoteNumber":33,"Velocity":49,"Duration":432428,"SoundDuration":432428,"Delta":267045353},{"NoteNumber":67,"Velocity":50,"Duration":216601,"SoundDuration":216601,"Delta":267261181},{"NoteNumber":73,"Velocity":50,"Duration":216601,"SoundDuration":216601,"Delta":267261181},{"NoteNumber":45,"Velocity":49,"Duration":216601,"SoundDuration":216601,"Delta":267261181},{"NoteNumber":40,"Velocity":41,"Duration":216601,"SoundDuration":216601,"Delta":267261181},{"NoteNumber":81,"Velocity":99,"Duration":477262,"SoundDuration":477262,"Delta":267477782},{"NoteNumber":32,"Velocity":61,"Duration":227091,"SoundDuration":227091,"Delta":267477782},{"NoteNumber":73,"Velocity":51,"Duration":227091,"SoundDuration":227091,"Delta":267716826},{"NoteNumber":69,"Velocity":51,"Duration":227091,"SoundDuration":227091,"Delta":267716826},{"NoteNumber":44,"Velocity":44,"Duration":227091,"SoundDuration":227091,"Delta":267716826},{"NoteNumber":49,"Velocity":44,"Duration":227091,"SoundDuration":227091,"Delta":267716826},{"NoteNumber":52,"Velocity":51,"Duration":227091,"SoundDuration":227091,"Delta":267716826},{"NoteNumber":80,"Velocity":96,"Duration":857434,"SoundDuration":857434,"Delta":267955045},{"NoteNumber":44,"Velocity":44,"Duration":203571,"SoundDuration":203571,"Delta":267955045},{"NoteNumber":49,"Velocity":44,"Duration":203571,"SoundDuration":203571,"Delta":267955045},{"NoteNumber":52,"Velocity":51,"Duration":203571,"SoundDuration":203571,"Delta":267955045},{"NoteNumber":68,"Velocity":51,"Duration":203571,"SoundDuration":203571,"Delta":268169330},{"NoteNumber":73,"Velocity":51,"Duration":203571,"SoundDuration":203571,"Delta":268169330},{"NoteNumber":44,"Velocity":44,"Duration":203571,"SoundDuration":203571,"Delta":268169330},{"NoteNumber":49,"Velocity":44,"Duration":203571,"SoundDuration":203571,"Delta":268169330},{"NoteNumber":52,"Velocity":52,"Duration":203571,"SoundDuration":203571,"Delta":268169330},{"NoteNumber":68,"Velocity":44,"Duration":203571,"SoundDuration":203571,"Delta":268383616},{"NoteNumber":73,"Velocity":44,"Duration":203571,"SoundDuration":203571,"Delta":268383616},{"NoteNumber":44,"Velocity":44,"Duration":203571,"SoundDuration":203571,"Delta":268383616},{"NoteNumber":49,"Velocity":44,"Duration":203571,"SoundDuration":203571,"Delta":268383616},{"NoteNumber":52,"Velocity":52,"Duration":203571,"SoundDuration":203571,"Delta":268383616},{"NoteNumber":68,"Velocity":51,"Duration":203571,"SoundDuration":203571,"Delta":268597901},{"NoteNumber":73,"Velocity":51,"Duration":203571,"SoundDuration":203571,"Delta":268597901},{"NoteNumber":44,"Velocity":44,"Duration":203571,"SoundDuration":203571,"Delta":268597901},{"NoteNumber":49,"Velocity":44,"Duration":203571,"SoundDuration":203571,"Delta":268597901},{"NoteNumber":52,"Velocity":52,"Duration":203571,"SoundDuration":203571,"Delta":268597901},{"NoteNumber":81,"Velocity":99,"Duration":446097,"SoundDuration":446097,"Delta":268812479},{"NoteNumber":32,"Velocity":61,"Duration":211896,"SoundDuration":211896,"Delta":268812479},{"NoteNumber":69,"Velocity":52,"Duration":211896,"SoundDuration":211896,"Delta":269035527},{"NoteNumber":72,"Velocity":52,"Duration":211896,"SoundDuration":211896,"Delta":269035527},{"NoteNumber":44,"Velocity":44,"Duration":211896,"SoundDuration":211896,"Delta":269035527},{"NoteNumber":51,"Velocity":44,"Duration":211896,"SoundDuration":211896,"Delta":269035527},{"NoteNumber":54,"Velocity":52,"Duration":211896,"SoundDuration":211896,"Delta":269035527},{"NoteNumber":80,"Velocity":95,"Duration":933113,"SoundDuration":933113,"Delta":269258576},{"NoteNumber":44,"Velocity":44,"Duration":203571,"SoundDuration":203571,"Delta":269258576},{"NoteNumber":51,"Velocity":44,"Duration":203571,"SoundDuration":203571,"Delta":269258576},{"NoteNumber":54,"Velocity":52,"Duration":203571,"SoundDuration":203571,"Delta":269258576},{"NoteNumber":68,"Velocity":52,"Duration":204183,"SoundDuration":204183,"Delta":269472861},{"NoteNumber":72,"Velocity":52,"Duration":204183,"SoundDuration":204183,"Delta":269472861},{"NoteNumber":44,"Velocity":44,"Duration":204183,"SoundDuration":204183,"Delta":269472861},{"NoteNumber":51,"Velocity":44,"Duration":204183,"SoundDuration":204183,"Delta":269472861},{"NoteNumber":54,"Velocity":52,"Duration":204183,"SoundDuration":204183,"Delta":269472861},{"NoteNumber":68,"Velocity":52,"Duration":238493,"SoundDuration":238493,"Delta":269689598},{"NoteNumber":72,"Velocity":52,"Duration":238493,"SoundDuration":238493,"Delta":269689598},{"NoteNumber":44,"Velocity":44,"Duration":238493,"SoundDuration":238493,"Delta":269689598},{"NoteNumber":51,"Velocity":44,"Duration":238493,"SoundDuration":238493,"Delta":269689598},{"NoteNumber":54,"Velocity":51,"Duration":238493,"SoundDuration":238493,"Delta":269689598},{"NoteNumber":68,"Velocity":52,"Duration":238493,"SoundDuration":238493,"Delta":269940644},{"NoteNumber":72,"Velocity":52,"Duration":238493,"SoundDuration":238493,"Delta":269940644},{"NoteNumber":44,"Velocity":44,"Duration":238493,"SoundDuration":238493,"Delta":269940644},{"NoteNumber":51,"Velocity":44,"Duration":238493,"SoundDuration":238493,"Delta":269940644},{"NoteNumber":54,"Velocity":51,"Duration":238493,"SoundDuration":238493,"Delta":269940644},{"NoteNumber":73,"Velocity":86,"Duration":1806599,"SoundDuration":1806599,"Delta":270191690},{"NoteNumber":37,"Velocity":52,"Duration":238493,"SoundDuration":238493,"Delta":270191690},{"NoteNumber":68,"Velocity":44,"Duration":211110,"SoundDuration":211110,"Delta":270442736},{"NoteNumber":61,"Velocity":44,"Duration":211110,"SoundDuration":211110,"Delta":270442736},{"NoteNumber":64,"Velocity":44,"Duration":211110,"SoundDuration":211110,"Delta":270442736},{"NoteNumber":44,"Velocity":34,"Duration":211110,"SoundDuration":211110,"Delta":270442736},{"NoteNumber":49,"Velocity":34,"Duration":211110,"SoundDuration":211110,"Delta":270442736},{"NoteNumber":52,"Velocity":40,"Duration":211110,"SoundDuration":211110,"Delta":270442736},{"NoteNumber":68,"Velocity":44,"Duration":211110,"SoundDuration":211110,"Delta":270664958},{"NoteNumber":61,"Velocity":44,"Duration":211110,"SoundDuration":211110,"Delta":270664958},{"NoteNumber":64,"Velocity":44,"Duration":211110,"SoundDuration":211110,"Delta":270664958},{"NoteNumber":44,"Velocity":34,"Duration":211110,"SoundDuration":211110,"Delta":270664958},{"NoteNumber":49,"Velocity":34,"Duration":211110,"SoundDuration":211110,"Delta":270664958},{"NoteNumber":52,"Velocity":40,"Duration":211110,"SoundDuration":211110,"Delta":270664958},{"NoteNumber":68,"Velocity":44,"Duration":211110,"SoundDuration":211110,"Delta":270887180},{"NoteNumber":61,"Velocity":44,"Duration":211110,"SoundDuration":211110,"Delta":270887180},{"NoteNumber":64,"Velocity":44,"Duration":211110,"SoundDuration":211110,"Delta":270887180},{"NoteNumber":44,"Velocity":34,"Duration":211110,"SoundDuration":211110,"Delta":270887180},{"NoteNumber":49,"Velocity":34,"Duration":211110,"SoundDuration":211110,"Delta":270887180},{"NoteNumber":52,"Velocity":40,"Duration":211110,"SoundDuration":211110,"Delta":270887180},{"NoteNumber":68,"Velocity":44,"Duration":211110,"SoundDuration":211110,"Delta":271109402},{"NoteNumber":61,"Velocity":44,"Duration":211110,"SoundDuration":211110,"Delta":271109402},{"NoteNumber":64,"Velocity":44,"Duration":211110,"SoundDuration":211110,"Delta":271109402},{"NoteNumber":44,"Velocity":34,"Duration":211110,"SoundDuration":211110,"Delta":271109402},{"NoteNumber":49,"Velocity":34,"Duration":211110,"SoundDuration":211110,"Delta":271109402},{"NoteNumber":52,"Velocity":40,"Duration":211110,"SoundDuration":211110,"Delta":271109402},{"NoteNumber":68,"Velocity":44,"Duration":211110,"SoundDuration":211110,"Delta":271331624},{"NoteNumber":61,"Velocity":44,"Duration":211110,"SoundDuration":211110,"Delta":271331624},{"NoteNumber":64,"Velocity":44,"Duration":211110,"SoundDuration":211110,"Delta":271331624},{"NoteNumber":44,"Velocity":34,"Duration":211110,"SoundDuration":211110,"Delta":271331624},{"NoteNumber":49,"Velocity":34,"Duration":211110,"SoundDuration":211110,"Delta":271331624},{"NoteNumber":52,"Velocity":40,"Duration":211110,"SoundDuration":211110,"Delta":271331624},{"NoteNumber":68,"Velocity":44,"Duration":211110,"SoundDuration":211110,"Delta":271553846},{"NoteNumber":61,"Velocity":44,"Duration":211110,"SoundDuration":211110,"Delta":271553846},{"NoteNumber":64,"Velocity":44,"Duration":211110,"SoundDuration":211110,"Delta":271553846},{"NoteNumber":49,"Velocity":34,"Duration":211110,"SoundDuration":211110,"Delta":271553846},{"NoteNumber":44,"Velocity":34,"Duration":211110,"SoundDuration":211110,"Delta":271553846},{"NoteNumber":52,"Velocity":39,"Duration":211110,"SoundDuration":211110,"Delta":271553846},{"NoteNumber":68,"Velocity":44,"Duration":211110,"SoundDuration":211110,"Delta":271776068},{"NoteNumber":61,"Velocity":44,"Duration":211110,"SoundDuration":211110,"Delta":271776068},{"NoteNumber":64,"Velocity":44,"Duration":211110,"SoundDuration":211110,"Delta":271776068},{"NoteNumber":44,"Velocity":34,"Duration":211110,"SoundDuration":211110,"Delta":271776068},{"NoteNumber":49,"Velocity":34,"Duration":211110,"SoundDuration":211110,"Delta":271776068},{"NoteNumber":52,"Velocity":39,"Duration":211110,"SoundDuration":211110,"Delta":271776068},{"NoteNumber":68,"Velocity":48,"Duration":444444,"SoundDuration":444444,"Delta":271998290},{"NoteNumber":44,"Velocity":30,"Duration":211110,"SoundDuration":211110,"Delta":271998290},{"NoteNumber":49,"Velocity":30,"Duration":211110,"SoundDuration":211110,"Delta":271998290},{"NoteNumber":52,"Velocity":37,"Duration":211110,"SoundDuration":211110,"Delta":271998290},{"NoteNumber":61,"Velocity":26,"Duration":211110,"SoundDuration":211110,"Delta":272220512},{"NoteNumber":64,"Velocity":26,"Duration":211110,"SoundDuration":211110,"Delta":272220512},{"NoteNumber":44,"Velocity":30,"Duration":211110,"SoundDuration":211110,"Delta":272220512},{"NoteNumber":49,"Velocity":30,"Duration":211110,"SoundDuration":211110,"Delta":272220512},{"NoteNumber":52,"Velocity":36,"Duration":211110,"SoundDuration":211110,"Delta":272220512},{"NoteNumber":68,"Velocity":42,"Duration":444443,"SoundDuration":444443,"Delta":272442734},{"NoteNumber":44,"Velocity":28,"Duration":211110,"SoundDuration":211110,"Delta":272442734},{"NoteNumber":49,"Velocity":28,"Duration":211110,"SoundDuration":211110,"Delta":272442734},{"NoteNumber":52,"Velocity":34,"Duration":211110,"SoundDuration":211110,"Delta":272442734},{"NoteNumber":61,"Velocity":26,"Duration":211110,"SoundDuration":211110,"Delta":272664956},{"NoteNumber":64,"Velocity":26,"Duration":211110,"SoundDuration":211110,"Delta":272664956},{"NoteNumber":44,"Velocity":25,"Duration":211110,"SoundDuration":211110,"Delta":272664956},{"NoteNumber":49,"Velocity":25,"Duration":211110,"SoundDuration":211110,"Delta":272664956},{"NoteNumber":52,"Velocity":30,"Duration":211110,"SoundDuration":211110,"Delta":272664956},{"NoteNumber":68,"Velocity":42,"Duration":1777776,"SoundDuration":1777776,"Delta":272887178},{"NoteNumber":37,"Velocity":26,"Duration":211110,"SoundDuration":211110,"Delta":272887178},{"NoteNumber":61,"Velocity":26,"Duration":211110,"SoundDuration":211110,"Delta":273109400},{"NoteNumber":64,"Velocity":26,"Duration":211110,"SoundDuration":211110,"Delta":273109400},{"NoteNumber":52,"Velocity":26,"Duration":211110,"SoundDuration":211110,"Delta":273109400},{"NoteNumber":49,"Velocity":22,"Duration":211110,"SoundDuration":211110,"Delta":273109400},{"NoteNumber":61,"Velocity":26,"Duration":211110,"SoundDuration":211110,"Delta":273331622},{"NoteNumber":64,"Velocity":26,"Duration":211110,"SoundDuration":211110,"Delta":273331622},{"NoteNumber":52,"Velocity":26,"Duration":211110,"SoundDuration":211110,"Delta":273331622},{"NoteNumber":49,"Velocity":22,"Duration":211110,"SoundDuration":211110,"Delta":273331622},{"NoteNumber":61,"Velocity":26,"Duration":211110,"SoundDuration":211110,"Delta":273553844},{"NoteNumber":64,"Velocity":26,"Duration":211110,"SoundDuration":211110,"Delta":273553844},{"NoteNumber":52,"Velocity":26,"Duration":211110,"SoundDuration":211110,"Delta":273553844},{"NoteNumber":49,"Velocity":22,"Duration":211110,"SoundDuration":211110,"Delta":273553844},{"NoteNumber":61,"Velocity":26,"Duration":211110,"SoundDuration":211110,"Delta":273776066},{"NoteNumber":64,"Velocity":26,"Duration":211110,"SoundDuration":211110,"Delta":273776066},{"NoteNumber":52,"Velocity":26,"Duration":211110,"SoundDuration":211110,"Delta":273776066},{"NoteNumber":49,"Velocity":22,"Duration":211110,"SoundDuration":211110,"Delta":273776066},{"NoteNumber":61,"Velocity":26,"Duration":211110,"SoundDuration":211110,"Delta":273998288},{"NoteNumber":64,"Velocity":26,"Duration":211110,"SoundDuration":211110,"Delta":273998288},{"NoteNumber":52,"Velocity":26,"Duration":211110,"SoundDuration":211110,"Delta":273998288},{"NoteNumber":49,"Velocity":22,"Duration":211110,"SoundDuration":211110,"Delta":273998288},{"NoteNumber":61,"Velocity":26,"Duration":211110,"SoundDuration":211110,"Delta":274220510},{"NoteNumber":64,"Velocity":26,"Duration":211110,"SoundDuration":211110,"Delta":274220510},{"NoteNumber":49,"Velocity":22,"Duration":211110,"SoundDuration":211110,"Delta":274220510},{"NoteNumber":52,"Velocity":26,"Duration":211110,"SoundDuration":211110,"Delta":274220510},{"NoteNumber":61,"Velocity":26,"Duration":211110,"SoundDuration":211110,"Delta":274442732},{"NoteNumber":64,"Velocity":26,"Duration":211110,"SoundDuration":211110,"Delta":274442732},{"NoteNumber":49,"Velocity":22,"Duration":211110,"SoundDuration":211110,"Delta":274442732},{"NoteNumber":52,"Velocity":26,"Duration":211110,"SoundDuration":211110,"Delta":274442732},{"NoteNumber":68,"Velocity":42,"Duration":502092,"SoundDuration":502092,"Delta":274664954},{"NoteNumber":49,"Velocity":22,"Duration":238493,"SoundDuration":238493,"Delta":274664954},{"NoteNumber":52,"Velocity":26,"Duration":238493,"SoundDuration":238493,"Delta":274664954},{"NoteNumber":61,"Velocity":26,"Duration":238493,"SoundDuration":238493,"Delta":274916000},{"NoteNumber":64,"Velocity":26,"Duration":238493,"SoundDuration":238493,"Delta":274916000},{"NoteNumber":49,"Velocity":22,"Duration":238493,"SoundDuration":238493,"Delta":274916000},{"NoteNumber":52,"Velocity":26,"Duration":238493,"SoundDuration":238493,"Delta":274916000},{"NoteNumber":70,"Velocity":42,"Duration":502092,"SoundDuration":502092,"Delta":275167046},{"NoteNumber":49,"Velocity":22,"Duration":238493,"SoundDuration":238493,"Delta":275167046},{"NoteNumber":52,"Velocity":26,"Duration":238493,"SoundDuration":238493,"Delta":275167046},{"NoteNumber":61,"Velocity":26,"Duration":238493,"SoundDuration":238493,"Delta":275418092},{"NoteNumber":64,"Velocity":26,"Duration":238493,"SoundDuration":238493,"Delta":275418092},{"NoteNumber":49,"Velocity":22,"Duration":238493,"SoundDuration":238493,"Delta":275418092},{"NoteNumber":52,"Velocity":26,"Duration":238493,"SoundDuration":238493,"Delta":275418092},{"NoteNumber":68,"Velocity":37,"Duration":2694534,"SoundDuration":2694534,"Delta":275669138},{"NoteNumber":39,"Velocity":26,"Duration":211110,"SoundDuration":211110,"Delta":275669138},{"NoteNumber":58,"Velocity":26,"Duration":211110,"SoundDuration":211110,"Delta":275891360},{"NoteNumber":61,"Velocity":26,"Duration":211110,"SoundDuration":211110,"Delta":275891360},{"NoteNumber":51,"Velocity":26,"Duration":211110,"SoundDuration":211110,"Delta":275891360},{"NoteNumber":58,"Velocity":26,"Duration":211110,"SoundDuration":211110,"Delta":276113582},{"NoteNumber":61,"Velocity":26,"Duration":211110,"SoundDuration":211110,"Delta":276113582},{"NoteNumber":51,"Velocity":26,"Duration":211110,"SoundDuration":211110,"Delta":276113582},{"NoteNumber":58,"Velocity":25,"Duration":211110,"SoundDuration":211110,"Delta":276335804},{"NoteNumber":61,"Velocity":25,"Duration":211110,"SoundDuration":211110,"Delta":276335804},{"NoteNumber":51,"Velocity":25,"Duration":211110,"SoundDuration":211110,"Delta":276335804},{"NoteNumber":58,"Velocity":25,"Duration":211110,"SoundDuration":211110,"Delta":276558026},{"NoteNumber":61,"Velocity":25,"Duration":211110,"SoundDuration":211110,"Delta":276558026},{"NoteNumber":51,"Velocity":25,"Duration":211110,"SoundDuration":211110,"Delta":276558026},{"NoteNumber":58,"Velocity":24,"Duration":211110,"SoundDuration":211110,"Delta":276780248},{"NoteNumber":61,"Velocity":24,"Duration":211110,"SoundDuration":211110,"Delta":276780248},{"NoteNumber":51,"Velocity":24,"Duration":211110,"SoundDuration":211110,"Delta":276780248},{"NoteNumber":58,"Velocity":24,"Duration":210810,"SoundDuration":210810,"Delta":277002470},{"NoteNumber":61,"Velocity":24,"Duration":210810,"SoundDuration":210810,"Delta":277002470},{"NoteNumber":51,"Velocity":24,"Duration":210810,"SoundDuration":210810,"Delta":277002470},{"NoteNumber":58,"Velocity":24,"Duration":212618,"SoundDuration":212618,"Delta":277224433},{"NoteNumber":61,"Velocity":24,"Duration":212618,"SoundDuration":212618,"Delta":277224433},{"NoteNumber":51,"Velocity":24,"Duration":212618,"SoundDuration":212618,"Delta":277224433},{"NoteNumber":58,"Velocity":23,"Duration":214456,"SoundDuration":214456,"Delta":277448287},{"NoteNumber":61,"Velocity":23,"Duration":214456,"SoundDuration":214456,"Delta":277448287},{"NoteNumber":51,"Velocity":23,"Duration":214456,"SoundDuration":214456,"Delta":277448287},{"NoteNumber":58,"Velocity":23,"Duration":216413,"SoundDuration":216413,"Delta":277674065},{"NoteNumber":61,"Velocity":23,"Duration":216413,"SoundDuration":216413,"Delta":277674065},{"NoteNumber":51,"Velocity":23,"Duration":216413,"SoundDuration":216413,"Delta":277674065},{"NoteNumber":58,"Velocity":22,"Duration":218318,"SoundDuration":218318,"Delta":277901929},{"NoteNumber":61,"Velocity":22,"Duration":218318,"SoundDuration":218318,"Delta":277901929},{"NoteNumber":51,"Velocity":22,"Duration":218318,"SoundDuration":218318,"Delta":277901929},{"NoteNumber":58,"Velocity":22,"Duration":220257,"SoundDuration":220257,"Delta":278131786},{"NoteNumber":61,"Velocity":22,"Duration":220257,"SoundDuration":220257,"Delta":278131786},{"NoteNumber":51,"Velocity":22,"Duration":220257,"SoundDuration":220257,"Delta":278131786},{"NoteNumber":67,"Velocity":31,"Duration":3026155,"SoundDuration":3026155,"Delta":278363672},{"NoteNumber":39,"Velocity":22,"Duration":222322,"SoundDuration":222322,"Delta":278363672},{"NoteNumber":58,"Velocity":22,"Duration":224333,"SoundDuration":224333,"Delta":278597759},{"NoteNumber":61,"Velocity":22,"Duration":224333,"SoundDuration":224333,"Delta":278597759},{"NoteNumber":51,"Velocity":22,"Duration":224333,"SoundDuration":224333,"Delta":278597759},{"NoteNumber":58,"Velocity":22,"Duration":226381,"SoundDuration":226381,"Delta":278833951},{"NoteNumber":61,"Velocity":22,"Duration":226381,"SoundDuration":226381,"Delta":278833951},{"NoteNumber":51,"Velocity":22,"Duration":226381,"SoundDuration":226381,"Delta":278833951},{"NoteNumber":58,"Velocity":20,"Duration":228562,"SoundDuration":228562,"Delta":279072284},{"NoteNumber":61,"Velocity":20,"Duration":228562,"SoundDuration":228562,"Delta":279072284},{"NoteNumber":51,"Velocity":20,"Duration":228562,"SoundDuration":228562,"Delta":279072284},{"NoteNumber":58,"Velocity":20,"Duration":230689,"SoundDuration":230689,"Delta":279312944},{"NoteNumber":61,"Velocity":20,"Duration":230689,"SoundDuration":230689,"Delta":279312944},{"NoteNumber":51,"Velocity":20,"Duration":230689,"SoundDuration":230689,"Delta":279312944},{"NoteNumber":58,"Velocity":19,"Duration":232855,"SoundDuration":232855,"Delta":279555828},{"NoteNumber":61,"Velocity":19,"Duration":232855,"SoundDuration":232855,"Delta":279555828},{"NoteNumber":51,"Velocity":19,"Duration":232855,"SoundDuration":232855,"Delta":279555828},{"NoteNumber":58,"Velocity":19,"Duration":234567,"SoundDuration":234567,"Delta":279800978},{"NoteNumber":61,"Velocity":19,"Duration":234567,"SoundDuration":234567,"Delta":279800978},{"NoteNumber":51,"Velocity":19,"Duration":234567,"SoundDuration":234567,"Delta":279800978},{"NoteNumber":58,"Velocity":19,"Duration":234567,"SoundDuration":234567,"Delta":280047892},{"NoteNumber":61,"Velocity":19,"Duration":234567,"SoundDuration":234567,"Delta":280047892},{"NoteNumber":51,"Velocity":19,"Duration":234567,"SoundDuration":234567,"Delta":280047892},{"NoteNumber":58,"Velocity":18,"Duration":234567,"SoundDuration":234567,"Delta":280294805},{"NoteNumber":61,"Velocity":18,"Duration":234567,"SoundDuration":234567,"Delta":280294805},{"NoteNumber":51,"Velocity":18,"Duration":234567,"SoundDuration":234567,"Delta":280294805},{"NoteNumber":58,"Velocity":18,"Duration":234567,"SoundDuration":234567,"Delta":280541719},{"NoteNumber":61,"Velocity":18,"Duration":234567,"SoundDuration":234567,"Delta":280541719},{"NoteNumber":51,"Velocity":18,"Duration":234567,"SoundDuration":234567,"Delta":280541719},{"NoteNumber":58,"Velocity":17,"Duration":284612,"SoundDuration":284612,"Delta":280788632},{"NoteNumber":61,"Velocity":17,"Duration":284612,"SoundDuration":284612,"Delta":280788632},{"NoteNumber":51,"Velocity":17,"Duration":284612,"SoundDuration":284612,"Delta":280788632},{"NoteNumber":58,"Velocity":17,"Duration":286432,"SoundDuration":286432,"Delta":281088320},{"NoteNumber":61,"Velocity":17,"Duration":286432,"SoundDuration":286432,"Delta":281088320},{"NoteNumber":51,"Velocity":17,"Duration":286432,"SoundDuration":286432,"Delta":281088320},{"NoteNumber":67,"Velocity":41,"Duration":114504,"SoundDuration":114504,"Delta":281389828},{"NoteNumber":39,"Velocity":46,"Duration":339376,"SoundDuration":339376,"Delta":281389828},{"NoteNumber":70,"Velocity":34,"Duration":113138,"SoundDuration":113138,"Delta":281504333},{"NoteNumber":67,"Velocity":41,"Duration":111733,"SoundDuration":111733,"Delta":281617471},{"NoteNumber":64,"Velocity":34,"Duration":110431,"SoundDuration":110431,"Delta":281729204},{"NoteNumber":70,"Velocity":41,"Duration":109091,"SoundDuration":109091,"Delta":281839635},{"NoteNumber":61,"Velocity":42,"Duration":2045264,"SoundDuration":2045264,"Delta":281839635},{"NoteNumber":58,"Velocity":35,"Duration":2045264,"SoundDuration":2045264,"Delta":281839635},{"NoteNumber":51,"Velocity":35,"Duration":2045264,"SoundDuration":2045264,"Delta":281839635},{"NoteNumber":73,"Velocity":34,"Duration":107721,"SoundDuration":107721,"Delta":281948727},{"NoteNumber":70,"Velocity":41,"Duration":106573,"SoundDuration":106573,"Delta":282056448},{"NoteNumber":67,"Velocity":34,"Duration":105263,"SoundDuration":105263,"Delta":282163021},{"NoteNumber":73,"Velocity":41,"Duration":104047,"SoundDuration":104047,"Delta":282268285},{"NoteNumber":76,"Velocity":34,"Duration":102917,"SoundDuration":102917,"Delta":282372333},{"NoteNumber":73,"Velocity":41,"Duration":101753,"SoundDuration":101753,"Delta":282475250},{"NoteNumber":70,"Velocity":34,"Duration":100784,"SoundDuration":100784,"Delta":282577004},{"NoteNumber":76,"Velocity":40,"Duration":100671,"SoundDuration":100671,"Delta":282677788},{"NoteNumber":79,"Velocity":36,"Duration":100671,"SoundDuration":100671,"Delta":282778459},{"NoteNumber":76,"Velocity":46,"Duration":100671,"SoundDuration":100671,"Delta":282879131},{"NoteNumber":73,"Velocity":42,"Duration":100671,"SoundDuration":100671,"Delta":282979802},{"NoteNumber":79,"Velocity":53,"Duration":100671,"SoundDuration":100671,"Delta":283080473},{"NoteNumber":82,"Velocity":47,"Duration":100671,"SoundDuration":100671,"Delta":283181144},{"NoteNumber":79,"Velocity":60,"Duration":100671,"SoundDuration":100671,"Delta":283281816},{"NoteNumber":76,"Velocity":53,"Duration":100671,"SoundDuration":100671,"Delta":283382487},{"NoteNumber":82,"Velocity":66,"Duration":100671,"SoundDuration":100671,"Delta":283483158},{"NoteNumber":85,"Velocity":59,"Duration":100671,"SoundDuration":100671,"Delta":283583829},{"NoteNumber":82,"Velocity":73,"Duration":100671,"SoundDuration":100671,"Delta":283684501},{"NoteNumber":79,"Velocity":64,"Duration":99728,"SoundDuration":99728,"Delta":283785172},{"NoteNumber":85,"Velocity":80,"Duration":98039,"SoundDuration":98039,"Delta":283884900},{"NoteNumber":55,"Velocity":51,"Duration":2375731,"SoundDuration":2375731,"Delta":283884900},{"NoteNumber":51,"Velocity":51,"Duration":2375731,"SoundDuration":2375731,"Delta":283884900},{"NoteNumber":58,"Velocity":51,"Duration":2375731,"SoundDuration":2375731,"Delta":283884900},{"NoteNumber":61,"Velocity":60,"Duration":2375731,"SoundDuration":2375731,"Delta":283884900},{"NoteNumber":88,"Velocity":68,"Duration":98039,"SoundDuration":98039,"Delta":283982939},{"NoteNumber":85,"Velocity":79,"Duration":98039,"SoundDuration":98039,"Delta":284080979},{"NoteNumber":82,"Velocity":66,"Duration":98261,"SoundDuration":98261,"Delta":284179018},{"NoteNumber":85,"Velocity":77,"Duration":98360,"SoundDuration":98360,"Delta":284277279},{"NoteNumber":88,"Velocity":64,"Duration":98360,"SoundDuration":98360,"Delta":284375640},{"NoteNumber":85,"Velocity":75,"Duration":98368,"SoundDuration":98368,"Delta":284474001},{"NoteNumber":82,"Velocity":63,"Duration":98684,"SoundDuration":98684,"Delta":284572370},{"NoteNumber":85,"Velocity":74,"Duration":98684,"SoundDuration":98684,"Delta":284671054},{"NoteNumber":88,"Velocity":62,"Duration":98684,"SoundDuration":98684,"Delta":284769738},{"NoteNumber":85,"Velocity":72,"Duration":98800,"SoundDuration":98800,"Delta":284868422},{"NoteNumber":82,"Velocity":60,"Duration":99010,"SoundDuration":99010,"Delta":284967223},{"NoteNumber":85,"Velocity":70,"Duration":99010,"SoundDuration":99010,"Delta":285066233},{"NoteNumber":88,"Velocity":59,"Duration":99018,"SoundDuration":99018,"Delta":285165243},{"NoteNumber":85,"Velocity":69,"Duration":99337,"SoundDuration":99337,"Delta":285264262},{"NoteNumber":82,"Velocity":57,"Duration":99337,"SoundDuration":99337,"Delta":285363599},{"NoteNumber":85,"Velocity":67,"Duration":99337,"SoundDuration":99337,"Delta":285462937},{"NoteNumber":88,"Velocity":56,"Duration":99456,"SoundDuration":99456,"Delta":285562275},{"NoteNumber":85,"Velocity":65,"Duration":99667,"SoundDuration":99667,"Delta":285661731},{"NoteNumber":82,"Velocity":55,"Duration":99667,"SoundDuration":99667,"Delta":285761399},{"NoteNumber":85,"Velocity":64,"Duration":99667,"SoundDuration":99667,"Delta":285861066},{"NoteNumber":88,"Velocity":53,"Duration":99897,"SoundDuration":99897,"Delta":285960734},{"NoteNumber":85,"Velocity":62,"Duration":100000,"SoundDuration":100000,"Delta":286060632},{"NoteNumber":82,"Velocity":51,"Duration":99999,"SoundDuration":99999,"Delta":286160632},{"NoteNumber":85,"Velocity":60,"Duration":100119,"SoundDuration":100119,"Delta":286260632},{"NoteNumber":51,"Velocity":42,"Duration":2514559,"SoundDuration":2514559,"Delta":286260632},{"NoteNumber":61,"Velocity":50,"Duration":2514559,"SoundDuration":2514559,"Delta":286260632},{"NoteNumber":58,"Velocity":42,"Duration":2514559,"SoundDuration":2514559,"Delta":286260632},{"NoteNumber":55,"Velocity":42,"Duration":2514559,"SoundDuration":2514559,"Delta":286260632},{"NoteNumber":87,"Velocity":51,"Duration":100334,"SoundDuration":100334,"Delta":286360752},{"NoteNumber":85,"Velocity":59,"Duration":100334,"SoundDuration":100334,"Delta":286461086},{"NoteNumber":82,"Velocity":49,"Duration":100334,"SoundDuration":100334,"Delta":286561421},{"NoteNumber":85,"Velocity":57,"Duration":100334,"SoundDuration":100334,"Delta":286661755},{"NoteNumber":87,"Velocity":47,"Duration":100334,"SoundDuration":100334,"Delta":286762090},{"NoteNumber":85,"Velocity":55,"Duration":100334,"SoundDuration":100334,"Delta":286862424},{"NoteNumber":82,"Velocity":46,"Duration":100334,"SoundDuration":100334,"Delta":286962759},{"NoteNumber":85,"Velocity":54,"Duration":100334,"SoundDuration":100334,"Delta":287063093},{"NoteNumber":87,"Velocity":45,"Duration":100334,"SoundDuration":100334,"Delta":287163428},{"NoteNumber":85,"Velocity":52,"Duration":100334,"SoundDuration":100334,"Delta":287263762},{"NoteNumber":82,"Velocity":43,"Duration":100254,"SoundDuration":100254,"Delta":287364097},{"NoteNumber":85,"Velocity":50,"Duration":99630,"SoundDuration":99630,"Delta":287464351},{"NoteNumber":87,"Velocity":42,"Duration":100074,"SoundDuration":100074,"Delta":287563982},{"NoteNumber":85,"Velocity":49,"Duration":100557,"SoundDuration":100557,"Delta":287664056},{"NoteNumber":82,"Velocity":40,"Duration":101085,"SoundDuration":101085,"Delta":287764614},{"NoteNumber":85,"Velocity":47,"Duration":101579,"SoundDuration":101579,"Delta":287865700},{"NoteNumber":87,"Velocity":39,"Duration":102118,"SoundDuration":102118,"Delta":287967279},{"NoteNumber":85,"Velocity":45,"Duration":102621,"SoundDuration":102621,"Delta":288069397},{"NoteNumber":82,"Velocity":38,"Duration":103171,"SoundDuration":103171,"Delta":288172019},{"NoteNumber":85,"Velocity":44,"Duration":125000,"SoundDuration":125000,"Delta":288275191},{"NoteNumber":87,"Velocity":36,"Duration":125000,"SoundDuration":125000,"Delta":288400191},{"NoteNumber":85,"Velocity":42,"Duration":125000,"SoundDuration":125000,"Delta":288525191},{"NoteNumber":82,"Velocity":34,"Duration":125000,"SoundDuration":125000,"Delta":288650191},{"NoteNumber":83,"Velocity":40,"Duration":98366,"SoundDuration":98366,"Delta":288775191},{"NoteNumber":44,"Velocity":40,"Duration":196405,"SoundDuration":196405,"Delta":288775191},{"NoteNumber":87,"Velocity":34,"Duration":98039,"SoundDuration":98039,"Delta":288873557},{"NoteNumber":83,"Velocity":40,"Duration":98039,"SoundDuration":98039,"Delta":288971596},{"NoteNumber":80,"Velocity":34,"Duration":73609,"SoundDuration":73609,"Delta":289069635},{"NoteNumber":80,"Velocity":40,"Duration":98360,"SoundDuration":98360,"Delta":289167835},{"NoteNumber":59,"Velocity":34,"Duration":1585671,"SoundDuration":1585671,"Delta":289167835},{"NoteNumber":56,"Velocity":34,"Duration":1585671,"SoundDuration":1585671,"Delta":289167835},{"NoteNumber":63,"Velocity":40,"Duration":1585671,"SoundDuration":1585671,"Delta":289167835},{"NoteNumber":83,"Velocity":34,"Duration":98360,"SoundDuration":98360,"Delta":289266196},{"NoteNumber":80,"Velocity":40,"Duration":98522,"SoundDuration":98522,"Delta":289364557},{"NoteNumber":75,"Velocity":34,"Duration":74013,"SoundDuration":74013,"Delta":289463079},{"NoteNumber":75,"Velocity":40,"Duration":98684,"SoundDuration":98684,"Delta":289561764},{"NoteNumber":80,"Velocity":34,"Duration":98847,"SoundDuration":98847,"Delta":289660448},{"NoteNumber":75,"Velocity":40,"Duration":99009,"SoundDuration":99009,"Delta":289759295},{"NoteNumber":71,"Velocity":34,"Duration":74257,"SoundDuration":74257,"Delta":289858305},{"NoteNumber":71,"Velocity":40,"Duration":99064,"SoundDuration":99064,"Delta":289957315},{"NoteNumber":75,"Velocity":34,"Duration":99337,"SoundDuration":99337,"Delta":290056380},{"NoteNumber":71,"Velocity":40,"Duration":99337,"SoundDuration":99337,"Delta":290155717},{"NoteNumber":68,"Velocity":34,"Duration":74503,"SoundDuration":74503,"Delta":290255055},{"NoteNumber":68,"Velocity":40,"Duration":99667,"SoundDuration":99667,"Delta":290354448},{"NoteNumber":71,"Velocity":34,"Duration":99667,"SoundDuration":99667,"Delta":290454116},{"NoteNumber":68,"Velocity":40,"Duration":99723,"SoundDuration":99723,"Delta":290553783},{"NoteNumber":63,"Velocity":34,"Duration":100000,"SoundDuration":100000,"Delta":290653506},{"NoteNumber":67,"Velocity":30,"Duration":238666,"SoundDuration":238666,"Delta":290753506},{"NoteNumber":70,"Velocity":36,"Duration":238666,"SoundDuration":238666,"Delta":290753506},{"NoteNumber":51,"Velocity":27,"Duration":238666,"SoundDuration":238666,"Delta":290753506},{"NoteNumber":58,"Velocity":27,"Duration":238666,"SoundDuration":238666,"Delta":290753506},{"NoteNumber":63,"Velocity":33,"Duration":238666,"SoundDuration":238666,"Delta":290753506},{"NoteNumber":83,"Velocity":40,"Duration":98039,"SoundDuration":98039,"Delta":291228513},{"NoteNumber":44,"Velocity":40,"Duration":196078,"SoundDuration":196078,"Delta":291228513},{"NoteNumber":87,"Velocity":34,"Duration":98039,"SoundDuration":98039,"Delta":291326552},{"NoteNumber":83,"Velocity":40,"Duration":98039,"SoundDuration":98039,"Delta":291424592},{"NoteNumber":80,"Velocity":34,"Duration":73716,"SoundDuration":73716,"Delta":291522631},{"NoteNumber":80,"Velocity":40,"Duration":98360,"SoundDuration":98360,"Delta":291620938},{"NoteNumber":59,"Velocity":34,"Duration":1587151,"SoundDuration":1587151,"Delta":291620938},{"NoteNumber":56,"Velocity":34,"Duration":1587151,"SoundDuration":1587151,"Delta":291620938},{"NoteNumber":63,"Velocity":40,"Duration":1587151,"SoundDuration":1587151,"Delta":291620938},{"NoteNumber":83,"Velocity":34,"Duration":98360,"SoundDuration":98360,"Delta":291719299},{"NoteNumber":80,"Velocity":40,"Duration":98522,"SoundDuration":98522,"Delta":291817659},{"NoteNumber":75,"Velocity":34,"Duration":74013,"SoundDuration":74013,"Delta":291916182},{"NoteNumber":75,"Velocity":40,"Duration":98684,"SoundDuration":98684,"Delta":292014866},{"NoteNumber":80,"Velocity":34,"Duration":98847,"SoundDuration":98847,"Delta":292113550},{"NoteNumber":75,"Velocity":40,"Duration":99009,"SoundDuration":99009,"Delta":292212398},{"NoteNumber":71,"Velocity":34,"Duration":74257,"SoundDuration":74257,"Delta":292311408},{"NoteNumber":71,"Velocity":40,"Duration":99064,"SoundDuration":99064,"Delta":292410418},{"NoteNumber":75,"Velocity":34,"Duration":99337,"SoundDuration":99337,"Delta":292509482},{"NoteNumber":71,"Velocity":40,"Duration":99337,"SoundDuration":99337,"Delta":292608820},{"NoteNumber":68,"Velocity":34,"Duration":74503,"SoundDuration":74503,"Delta":292708158},{"NoteNumber":68,"Velocity":40,"Duration":99612,"SoundDuration":99612,"Delta":292807495},{"NoteNumber":71,"Velocity":34,"Duration":99667,"SoundDuration":99667,"Delta":292907108},{"NoteNumber":68,"Velocity":40,"Duration":99667,"SoundDuration":99667,"Delta":293006776},{"NoteNumber":63,"Velocity":34,"Duration":101646,"SoundDuration":101646,"Delta":293106444},{"NoteNumber":67,"Velocity":30,"Duration":251045,"SoundDuration":251045,"Delta":293208090},{"NoteNumber":70,"Velocity":36,"Duration":251045,"SoundDuration":251045,"Delta":293208090},{"NoteNumber":51,"Velocity":27,"Duration":251045,"SoundDuration":251045,"Delta":293208090},{"NoteNumber":58,"Velocity":27,"Duration":251045,"SoundDuration":251045,"Delta":293208090},{"NoteNumber":63,"Velocity":33,"Duration":251045,"SoundDuration":251045,"Delta":293208090},{"NoteNumber":68,"Velocity":31,"Duration":476987,"SoundDuration":476987,"Delta":293710182},{"NoteNumber":71,"Velocity":31,"Duration":476987,"SoundDuration":476987,"Delta":293710182},{"NoteNumber":63,"Velocity":27,"Duration":476987,"SoundDuration":476987,"Delta":293710182},{"NoteNumber":59,"Velocity":27,"Duration":476987,"SoundDuration":476987,"Delta":293710182},{"NoteNumber":56,"Velocity":27,"Duration":476987,"SoundDuration":476987,"Delta":293710182},{"NoteNumber":67,"Velocity":31,"Duration":407142,"SoundDuration":407142,"Delta":294211048},{"NoteNumber":70,"Velocity":31,"Duration":407142,"SoundDuration":407142,"Delta":294211048},{"NoteNumber":76,"Velocity":31,"Duration":407142,"SoundDuration":407142,"Delta":294211048},{"NoteNumber":51,"Velocity":27,"Duration":407142,"SoundDuration":407142,"Delta":294211048},{"NoteNumber":64,"Velocity":27,"Duration":407142,"SoundDuration":407142,"Delta":294211048},{"NoteNumber":58,"Velocity":27,"Duration":407142,"SoundDuration":407142,"Delta":294211048},{"NoteNumber":67,"Velocity":36,"Duration":407142,"SoundDuration":407142,"Delta":294639619},{"NoteNumber":70,"Velocity":36,"Duration":407142,"SoundDuration":407142,"Delta":294639619},{"NoteNumber":76,"Velocity":36,"Duration":407142,"SoundDuration":407142,"Delta":294639619},{"NoteNumber":51,"Velocity":31,"Duration":407142,"SoundDuration":407142,"Delta":294639619},{"NoteNumber":58,"Velocity":31,"Duration":407142,"SoundDuration":407142,"Delta":294639619},{"NoteNumber":64,"Velocity":31,"Duration":407142,"SoundDuration":407142,"Delta":294639619},{"NoteNumber":70,"Velocity":37,"Duration":473809,"SoundDuration":473809,"Delta":295068190},{"NoteNumber":67,"Velocity":37,"Duration":473809,"SoundDuration":473809,"Delta":295068190},{"NoteNumber":76,"Velocity":37,"Duration":473809,"SoundDuration":473809,"Delta":295068190},{"NoteNumber":51,"Velocity":31,"Duration":473809,"SoundDuration":473809,"Delta":295068190},{"NoteNumber":58,"Velocity":31,"Duration":473809,"SoundDuration":473809,"Delta":295068190},{"NoteNumber":64,"Velocity":31,"Duration":473809,"SoundDuration":473809,"Delta":295068190},{"NoteNumber":67,"Velocity":31,"Duration":474999,"SoundDuration":474999,"Delta":295567000},{"NoteNumber":70,"Velocity":31,"Duration":474999,"SoundDuration":474999,"Delta":295567000},{"NoteNumber":75,"Velocity":31,"Duration":474999,"SoundDuration":474999,"Delta":295567000},{"NoteNumber":51,"Velocity":25,"Duration":474999,"SoundDuration":474999,"Delta":295567000},{"NoteNumber":58,"Velocity":25,"Duration":474999,"SoundDuration":474999,"Delta":295567000},{"NoteNumber":63,"Velocity":25,"Duration":474999,"SoundDuration":474999,"Delta":295567000},{"NoteNumber":67,"Velocity":31,"Duration":518182,"SoundDuration":518182,"Delta":296067758},{"NoteNumber":70,"Velocity":31,"Duration":518182,"SoundDuration":518182,"Delta":296067758},{"NoteNumber":73,"Velocity":31,"Duration":518182,"SoundDuration":518182,"Delta":296067758},{"NoteNumber":61,"Velocity":25,"Duration":518182,"SoundDuration":518182,"Delta":296067758},{"NoteNumber":51,"Velocity":25,"Duration":518182,"SoundDuration":518182,"Delta":296067758},{"NoteNumber":58,"Velocity":25,"Duration":518182,"SoundDuration":518182,"Delta":296067758},{"NoteNumber":83,"Velocity":40,"Duration":98859,"SoundDuration":98859,"Delta":296613213},{"NoteNumber":44,"Velocity":40,"Duration":196579,"SoundDuration":196579,"Delta":296613213},{"NoteNumber":87,"Velocity":34,"Duration":97719,"SoundDuration":97719,"Delta":296712072},{"NoteNumber":83,"Velocity":40,"Duration":97719,"SoundDuration":97719,"Delta":296809792},{"NoteNumber":80,"Velocity":34,"Duration":73369,"SoundDuration":73369,"Delta":296907512},{"NoteNumber":80,"Velocity":40,"Duration":98039,"SoundDuration":98039,"Delta":297005391},{"NoteNumber":59,"Velocity":34,"Duration":1582579,"SoundDuration":1582579,"Delta":297005391},{"NoteNumber":56,"Velocity":34,"Duration":1582579,"SoundDuration":1582579,"Delta":297005391},{"NoteNumber":63,"Velocity":40,"Duration":1582579,"SoundDuration":1582579,"Delta":297005391},{"NoteNumber":83,"Velocity":34,"Duration":98039,"SoundDuration":98039,"Delta":297103431},{"NoteNumber":80,"Velocity":40,"Duration":98307,"SoundDuration":98307,"Delta":297201470},{"NoteNumber":75,"Velocity":34,"Duration":73770,"SoundDuration":73770,"Delta":297299777},{"NoteNumber":75,"Velocity":40,"Duration":98414,"SoundDuration":98414,"Delta":297398138},{"NoteNumber":80,"Velocity":34,"Duration":98684,"SoundDuration":98684,"Delta":297496553},{"NoteNumber":75,"Velocity":40,"Duration":98684,"SoundDuration":98684,"Delta":297595237},{"NoteNumber":71,"Velocity":34,"Duration":74094,"SoundDuration":74094,"Delta":297693921},{"NoteNumber":71,"Velocity":40,"Duration":99009,"SoundDuration":99009,"Delta":297792768},{"NoteNumber":75,"Velocity":34,"Duration":99010,"SoundDuration":99010,"Delta":297891778},{"NoteNumber":71,"Velocity":40,"Duration":99283,"SoundDuration":99283,"Delta":297990788},{"NoteNumber":68,"Velocity":34,"Duration":74503,"SoundDuration":74503,"Delta":298090071},{"NoteNumber":68,"Velocity":40,"Duration":99392,"SoundDuration":99392,"Delta":298189409},{"NoteNumber":71,"Velocity":34,"Duration":99667,"SoundDuration":99667,"Delta":298288802},{"NoteNumber":68,"Velocity":40,"Duration":99667,"SoundDuration":99667,"Delta":298388470},{"NoteNumber":63,"Velocity":34,"Duration":99833,"SoundDuration":99833,"Delta":298488137},{"NoteNumber":67,"Velocity":30,"Duration":240000,"SoundDuration":240000,"Delta":298587971},{"NoteNumber":70,"Velocity":36,"Duration":240000,"SoundDuration":240000,"Delta":298587971},{"NoteNumber":51,"Velocity":27,"Duration":240000,"SoundDuration":240000,"Delta":298587971},{"NoteNumber":58,"Velocity":27,"Duration":240000,"SoundDuration":240000,"Delta":298587971},{"NoteNumber":63,"Velocity":32,"Duration":240000,"SoundDuration":240000,"Delta":298587971},{"NoteNumber":83,"Velocity":40,"Duration":100236,"SoundDuration":100236,"Delta":299067971},{"NoteNumber":44,"Velocity":40,"Duration":198921,"SoundDuration":198921,"Delta":299067971},{"NoteNumber":87,"Velocity":34,"Duration":98684,"SoundDuration":98684,"Delta":299168208},{"NoteNumber":83,"Velocity":40,"Duration":98684,"SoundDuration":98684,"Delta":299266892},{"NoteNumber":80,"Velocity":34,"Duration":74013,"SoundDuration":74013,"Delta":299365577},{"NoteNumber":80,"Velocity":40,"Duration":98955,"SoundDuration":98955,"Delta":299464261},{"NoteNumber":59,"Velocity":34,"Duration":1592230,"SoundDuration":1592230,"Delta":299464261},{"NoteNumber":56,"Velocity":34,"Duration":1592230,"SoundDuration":1592230,"Delta":299464261},{"NoteNumber":63,"Velocity":40,"Duration":1592230,"SoundDuration":1592230,"Delta":299464261},{"NoteNumber":83,"Velocity":34,"Duration":99009,"SoundDuration":99009,"Delta":299563216},{"NoteNumber":80,"Velocity":40,"Duration":99010,"SoundDuration":99010,"Delta":299662226},{"NoteNumber":75,"Velocity":34,"Duration":74257,"SoundDuration":74257,"Delta":299761236},{"NoteNumber":75,"Velocity":40,"Duration":99283,"SoundDuration":99283,"Delta":299860246},{"NoteNumber":80,"Velocity":34,"Duration":99337,"SoundDuration":99337,"Delta":299959530},{"NoteNumber":75,"Velocity":40,"Duration":99337,"SoundDuration":99337,"Delta":300058867},{"NoteNumber":71,"Velocity":34,"Duration":74503,"SoundDuration":74503,"Delta":300158205},{"NoteNumber":71,"Velocity":40,"Duration":99667,"SoundDuration":99667,"Delta":300257598},{"NoteNumber":75,"Velocity":34,"Duration":99667,"SoundDuration":99667,"Delta":300357266},{"NoteNumber":71,"Velocity":40,"Duration":99667,"SoundDuration":99667,"Delta":300456933},{"NoteNumber":68,"Velocity":34,"Duration":74750,"SoundDuration":74750,"Delta":300556601},{"NoteNumber":68,"Velocity":40,"Duration":100000,"SoundDuration":100000,"Delta":300656324},{"NoteNumber":71,"Velocity":34,"Duration":99999,"SoundDuration":99999,"Delta":300756324},{"NoteNumber":68,"Velocity":40,"Duration":100000,"SoundDuration":100000,"Delta":300856324},{"NoteNumber":63,"Velocity":34,"Duration":100167,"SoundDuration":100167,"Delta":300956324},{"NoteNumber":67,"Velocity":30,"Duration":230769,"SoundDuration":230769,"Delta":301056491},{"NoteNumber":70,"Velocity":36,"Duration":230769,"SoundDuration":230769,"Delta":301056491},{"NoteNumber":51,"Velocity":27,"Duration":230769,"SoundDuration":230769,"Delta":301056491},{"NoteNumber":58,"Velocity":27,"Duration":230769,"SoundDuration":230769,"Delta":301056491},{"NoteNumber":63,"Velocity":32,"Duration":230769,"SoundDuration":230769,"Delta":301056491},{"NoteNumber":68,"Velocity":31,"Duration":476987,"SoundDuration":476987,"Delta":301518029},{"NoteNumber":71,"Velocity":31,"Duration":476987,"SoundDuration":476987,"Delta":301518029},{"NoteNumber":63,"Velocity":27,"Duration":476987,"SoundDuration":476987,"Delta":301518029},{"NoteNumber":59,"Velocity":27,"Duration":476987,"SoundDuration":476987,"Delta":301518029},{"NoteNumber":56,"Velocity":27,"Duration":476987,"SoundDuration":476987,"Delta":301518029},{"NoteNumber":66,"Velocity":31,"Duration":407142,"SoundDuration":407142,"Delta":302018896},{"NoteNumber":70,"Velocity":31,"Duration":407142,"SoundDuration":407142,"Delta":302018896},{"NoteNumber":76,"Velocity":31,"Duration":407142,"SoundDuration":407142,"Delta":302018896},{"NoteNumber":54,"Velocity":27,"Duration":407142,"SoundDuration":407142,"Delta":302018896},{"NoteNumber":64,"Velocity":27,"Duration":407142,"SoundDuration":407142,"Delta":302018896},{"NoteNumber":58,"Velocity":27,"Duration":407142,"SoundDuration":407142,"Delta":302018896},{"NoteNumber":66,"Velocity":36,"Duration":407142,"SoundDuration":407142,"Delta":302447467},{"NoteNumber":70,"Velocity":36,"Duration":407142,"SoundDuration":407142,"Delta":302447467},{"NoteNumber":76,"Velocity":36,"Duration":407142,"SoundDuration":407142,"Delta":302447467},{"NoteNumber":54,"Velocity":31,"Duration":407142,"SoundDuration":407142,"Delta":302447467},{"NoteNumber":58,"Velocity":31,"Duration":407142,"SoundDuration":407142,"Delta":302447467},{"NoteNumber":64,"Velocity":31,"Duration":407142,"SoundDuration":407142,"Delta":302447467},{"NoteNumber":66,"Velocity":37,"Duration":473809,"SoundDuration":473809,"Delta":302876038},{"NoteNumber":70,"Velocity":37,"Duration":473809,"SoundDuration":473809,"Delta":302876038},{"NoteNumber":76,"Velocity":37,"Duration":473809,"SoundDuration":473809,"Delta":302876038},{"NoteNumber":54,"Velocity":31,"Duration":473809,"SoundDuration":473809,"Delta":302876038},{"NoteNumber":58,"Velocity":31,"Duration":473809,"SoundDuration":473809,"Delta":302876038},{"NoteNumber":64,"Velocity":31,"Duration":473809,"SoundDuration":473809,"Delta":302876038},{"NoteNumber":66,"Velocity":31,"Duration":474999,"SoundDuration":474999,"Delta":303374848},{"NoteNumber":70,"Velocity":31,"Duration":474999,"SoundDuration":474999,"Delta":303374848},{"NoteNumber":75,"Velocity":31,"Duration":474999,"SoundDuration":474999,"Delta":303374848},{"NoteNumber":54,"Velocity":25,"Duration":474999,"SoundDuration":474999,"Delta":303374848},{"NoteNumber":58,"Velocity":25,"Duration":474999,"SoundDuration":474999,"Delta":303374848},{"NoteNumber":63,"Velocity":25,"Duration":474999,"SoundDuration":474999,"Delta":303374848},{"NoteNumber":66,"Velocity":31,"Duration":518182,"SoundDuration":518182,"Delta":303875605},{"NoteNumber":74,"Velocity":31,"Duration":518182,"SoundDuration":518182,"Delta":303875605},{"NoteNumber":70,"Velocity":31,"Duration":518182,"SoundDuration":518182,"Delta":303875605},{"NoteNumber":54,"Velocity":25,"Duration":518182,"SoundDuration":518182,"Delta":303875605},{"NoteNumber":62,"Velocity":25,"Duration":518182,"SoundDuration":518182,"Delta":303875605},{"NoteNumber":58,"Velocity":25,"Duration":518182,"SoundDuration":518182,"Delta":303875605},{"NoteNumber":87,"Velocity":50,"Duration":98633,"SoundDuration":98633,"Delta":304421060},{"NoteNumber":47,"Velocity":50,"Duration":196994,"SoundDuration":196994,"Delta":304421060},{"NoteNumber":90,"Velocity":42,"Duration":98360,"SoundDuration":98360,"Delta":304519694},{"NoteNumber":87,"Velocity":50,"Duration":98360,"SoundDuration":98360,"Delta":304618055},{"NoteNumber":83,"Velocity":42,"Duration":73851,"SoundDuration":73851,"Delta":304716416},{"NoteNumber":83,"Velocity":50,"Duration":98684,"SoundDuration":98684,"Delta":304814938},{"NoteNumber":63,"Velocity":50,"Duration":1590154,"SoundDuration":1590154,"Delta":304814938},{"NoteNumber":59,"Velocity":42,"Duration":1590154,"SoundDuration":1590154,"Delta":304814938},{"NoteNumber":54,"Velocity":42,"Duration":1590154,"SoundDuration":1590154,"Delta":304814938},{"NoteNumber":87,"Velocity":42,"Duration":98684,"SoundDuration":98684,"Delta":304913622},{"NoteNumber":83,"Velocity":50,"Duration":98738,"SoundDuration":98738,"Delta":305012307},{"NoteNumber":78,"Velocity":42,"Duration":74257,"SoundDuration":74257,"Delta":305111045},{"NoteNumber":78,"Velocity":50,"Duration":99009,"SoundDuration":99009,"Delta":305210055},{"NoteNumber":83,"Velocity":42,"Duration":99064,"SoundDuration":99064,"Delta":305309065},{"NoteNumber":78,"Velocity":50,"Duration":99337,"SoundDuration":99337,"Delta":305408130},{"NoteNumber":75,"Velocity":42,"Duration":74503,"SoundDuration":74503,"Delta":305507468},{"NoteNumber":75,"Velocity":50,"Duration":99337,"SoundDuration":99337,"Delta":305606805},{"NoteNumber":78,"Velocity":42,"Duration":99612,"SoundDuration":99612,"Delta":305706143},{"NoteNumber":75,"Velocity":50,"Duration":99667,"SoundDuration":99667,"Delta":305805756},{"NoteNumber":71,"Velocity":42,"Duration":74750,"SoundDuration":74750,"Delta":305905424},{"NoteNumber":71,"Velocity":50,"Duration":99833,"SoundDuration":99833,"Delta":306005091},{"NoteNumber":75,"Velocity":42,"Duration":99999,"SoundDuration":99999,"Delta":306104925},{"NoteNumber":71,"Velocity":50,"Duration":100000,"SoundDuration":100000,"Delta":306204925},{"NoteNumber":66,"Velocity":42,"Duration":100167,"SoundDuration":100167,"Delta":306304925},{"NoteNumber":70,"Velocity":37,"Duration":238688,"SoundDuration":238688,"Delta":306405092},{"NoteNumber":73,"Velocity":45,"Duration":238688,"SoundDuration":238688,"Delta":306405092},{"NoteNumber":64,"Velocity":41,"Duration":238688,"SoundDuration":238688,"Delta":306405092},{"NoteNumber":54,"Velocity":35,"Duration":238688,"SoundDuration":238688,"Delta":306405092},{"NoteNumber":87,"Velocity":50,"Duration":98360,"SoundDuration":98360,"Delta":306880175},{"NoteNumber":47,"Velocity":50,"Duration":196721,"SoundDuration":196721,"Delta":306880175},{"NoteNumber":90,"Velocity":42,"Duration":98360,"SoundDuration":98360,"Delta":306978536},{"NoteNumber":87,"Velocity":50,"Duration":98360,"SoundDuration":98360,"Delta":307076896},{"NoteNumber":83,"Velocity":42,"Duration":73959,"SoundDuration":73959,"Delta":307175257},{"NoteNumber":83,"Velocity":50,"Duration":98684,"SoundDuration":98684,"Delta":307273888},{"NoteNumber":63,"Velocity":50,"Duration":1590151,"SoundDuration":1590151,"Delta":307273888},{"NoteNumber":59,"Velocity":42,"Duration":1590151,"SoundDuration":1590151,"Delta":307273888},{"NoteNumber":54,"Velocity":42,"Duration":1590151,"SoundDuration":1590151,"Delta":307273888},{"NoteNumber":87,"Velocity":42,"Duration":98684,"SoundDuration":98684,"Delta":307372572},{"NoteNumber":83,"Velocity":50,"Duration":98847,"SoundDuration":98847,"Delta":307471256},{"NoteNumber":78,"Velocity":42,"Duration":74257,"SoundDuration":74257,"Delta":307570103},{"NoteNumber":78,"Velocity":50,"Duration":99010,"SoundDuration":99010,"Delta":307669113},{"NoteNumber":83,"Velocity":42,"Duration":99064,"SoundDuration":99064,"Delta":307768123},{"NoteNumber":78,"Velocity":50,"Duration":99337,"SoundDuration":99337,"Delta":307867188},{"NoteNumber":75,"Velocity":42,"Duration":74503,"SoundDuration":74503,"Delta":307966526},{"NoteNumber":75,"Velocity":50,"Duration":99337,"SoundDuration":99337,"Delta":308065863},{"NoteNumber":78,"Velocity":42,"Duration":99612,"SoundDuration":99612,"Delta":308165201},{"NoteNumber":75,"Velocity":50,"Duration":99667,"SoundDuration":99667,"Delta":308264814},{"NoteNumber":71,"Velocity":42,"Duration":74750,"SoundDuration":74750,"Delta":308364482},{"NoteNumber":71,"Velocity":50,"Duration":99833,"SoundDuration":99833,"Delta":308464149},{"NoteNumber":75,"Velocity":42,"Duration":99999,"SoundDuration":99999,"Delta":308563983},{"NoteNumber":71,"Velocity":50,"Duration":100000,"SoundDuration":100000,"Delta":308663983},{"NoteNumber":66,"Velocity":42,"Duration":100055,"SoundDuration":100055,"Delta":308763983},{"NoteNumber":70,"Velocity":37,"Duration":230769,"SoundDuration":230769,"Delta":308864039},{"NoteNumber":73,"Velocity":45,"Duration":230769,"SoundDuration":230769,"Delta":308864039},{"NoteNumber":64,"Velocity":41,"Duration":230769,"SoundDuration":230769,"Delta":308864039},{"NoteNumber":54,"Velocity":35,"Duration":230769,"SoundDuration":230769,"Delta":308864039},{"NoteNumber":71,"Velocity":41,"Duration":438461,"SoundDuration":438461,"Delta":309325577},{"NoteNumber":75,"Velocity":41,"Duration":438461,"SoundDuration":438461,"Delta":309325577},{"NoteNumber":63,"Velocity":36,"Duration":438461,"SoundDuration":438461,"Delta":309325577},{"NoteNumber":59,"Velocity":36,"Duration":438461,"SoundDuration":438461,"Delta":309325577},{"NoteNumber":70,"Velocity":47,"Duration":407142,"SoundDuration":407142,"Delta":309786565},{"NoteNumber":73,"Velocity":47,"Duration":407142,"SoundDuration":407142,"Delta":309786565},{"NoteNumber":80,"Velocity":47,"Duration":407142,"SoundDuration":407142,"Delta":309786565},{"NoteNumber":54,"Velocity":41,"Duration":407142,"SoundDuration":407142,"Delta":309786565},{"NoteNumber":64,"Velocity":41,"Duration":407142,"SoundDuration":407142,"Delta":309786565},{"NoteNumber":70,"Velocity":48,"Duration":407142,"SoundDuration":407142,"Delta":310215136},{"NoteNumber":73,"Velocity":48,"Duration":407142,"SoundDuration":407142,"Delta":310215136},{"NoteNumber":80,"Velocity":48,"Duration":407142,"SoundDuration":407142,"Delta":310215136},{"NoteNumber":54,"Velocity":45,"Duration":407142,"SoundDuration":407142,"Delta":310215136},{"NoteNumber":64,"Velocity":45,"Duration":407142,"SoundDuration":407142,"Delta":310215136},{"NoteNumber":70,"Velocity":49,"Duration":448818,"SoundDuration":448818,"Delta":310645901},{"NoteNumber":73,"Velocity":49,"Duration":448818,"SoundDuration":448818,"Delta":310645901},{"NoteNumber":80,"Velocity":49,"Duration":448818,"SoundDuration":448818,"Delta":310645901},{"NoteNumber":54,"Velocity":45,"Duration":448818,"SoundDuration":448818,"Delta":310645901},{"NoteNumber":64,"Velocity":45,"Duration":448818,"SoundDuration":448818,"Delta":310645901},{"NoteNumber":78,"Velocity":39,"Duration":448818,"SoundDuration":448818,"Delta":311118342},{"NoteNumber":70,"Velocity":39,"Duration":448818,"SoundDuration":448818,"Delta":311118342},{"NoteNumber":75,"Velocity":39,"Duration":448818,"SoundDuration":448818,"Delta":311118342},{"NoteNumber":63,"Velocity":36,"Duration":448818,"SoundDuration":448818,"Delta":311118342},{"NoteNumber":54,"Velocity":36,"Duration":448818,"SoundDuration":448818,"Delta":311118342},{"NoteNumber":76,"Velocity":39,"Duration":518182,"SoundDuration":518182,"Delta":311592000},{"NoteNumber":70,"Velocity":39,"Duration":518182,"SoundDuration":518182,"Delta":311592000},{"NoteNumber":61,"Velocity":36,"Duration":518182,"SoundDuration":518182,"Delta":311592000},{"NoteNumber":54,"Velocity":36,"Duration":518182,"SoundDuration":518182,"Delta":311592000},{"NoteNumber":86,"Velocity":50,"Duration":98366,"SoundDuration":98366,"Delta":312137455},{"NoteNumber":47,"Velocity":50,"Duration":196405,"SoundDuration":196405,"Delta":312137455},{"NoteNumber":90,"Velocity":42,"Duration":98039,"SoundDuration":98039,"Delta":312235821},{"NoteNumber":86,"Velocity":50,"Duration":98039,"SoundDuration":98039,"Delta":312333860},{"NoteNumber":83,"Velocity":42,"Duration":73716,"SoundDuration":73716,"Delta":312431899},{"NoteNumber":83,"Velocity":50,"Duration":98360,"SoundDuration":98360,"Delta":312530207},{"NoteNumber":62,"Velocity":50,"Duration":1587590,"SoundDuration":1587590,"Delta":312530207},{"NoteNumber":59,"Velocity":42,"Duration":1587590,"SoundDuration":1587590,"Delta":312530207},{"NoteNumber":54,"Velocity":42,"Duration":1587590,"SoundDuration":1587590,"Delta":312530207},{"NoteNumber":86,"Velocity":42,"Duration":98414,"SoundDuration":98414,"Delta":312628567},{"NoteNumber":83,"Velocity":50,"Duration":98684,"SoundDuration":98684,"Delta":312726982},{"NoteNumber":78,"Velocity":42,"Duration":74013,"SoundDuration":74013,"Delta":312825666},{"NoteNumber":78,"Velocity":50,"Duration":98738,"SoundDuration":98738,"Delta":312924350},{"NoteNumber":83,"Velocity":42,"Duration":99010,"SoundDuration":99010,"Delta":313023089},{"NoteNumber":78,"Velocity":50,"Duration":99009,"SoundDuration":99009,"Delta":313122099},{"NoteNumber":74,"Velocity":42,"Duration":74339,"SoundDuration":74339,"Delta":313221109},{"NoteNumber":74,"Velocity":50,"Duration":99337,"SoundDuration":99337,"Delta":313320283},{"NoteNumber":78,"Velocity":42,"Duration":99337,"SoundDuration":99337,"Delta":313419621},{"NoteNumber":74,"Velocity":50,"Duration":99502,"SoundDuration":99502,"Delta":313518958},{"NoteNumber":71,"Velocity":42,"Duration":74750,"SoundDuration":74750,"Delta":313618461},{"NoteNumber":71,"Velocity":50,"Duration":99667,"SoundDuration":99667,"Delta":313718129},{"NoteNumber":74,"Velocity":42,"Duration":99944,"SoundDuration":99944,"Delta":313817797},{"NoteNumber":71,"Velocity":50,"Duration":100000,"SoundDuration":100000,"Delta":313917741},{"NoteNumber":66,"Velocity":42,"Duration":100055,"SoundDuration":100055,"Delta":314017741},{"NoteNumber":70,"Velocity":37,"Duration":238688,"SoundDuration":238688,"Delta":314117797},{"NoteNumber":73,"Velocity":45,"Duration":238688,"SoundDuration":238688,"Delta":314117797},{"NoteNumber":64,"Velocity":42,"Duration":238688,"SoundDuration":238688,"Delta":314117797},{"NoteNumber":54,"Velocity":35,"Duration":238688,"SoundDuration":238688,"Delta":314117797},{"NoteNumber":86,"Velocity":50,"Duration":98633,"SoundDuration":98633,"Delta":314596486},{"NoteNumber":47,"Velocity":50,"Duration":196994,"SoundDuration":196994,"Delta":314596486},{"NoteNumber":90,"Velocity":42,"Duration":98360,"SoundDuration":98360,"Delta":314695120},{"NoteNumber":86,"Velocity":50,"Duration":98360,"SoundDuration":98360,"Delta":314793481},{"NoteNumber":83,"Velocity":42,"Duration":73851,"SoundDuration":73851,"Delta":314891841},{"NoteNumber":83,"Velocity":50,"Duration":98684,"SoundDuration":98684,"Delta":314990364},{"NoteNumber":62,"Velocity":50,"Duration":1589712,"SoundDuration":1589712,"Delta":314990364},{"NoteNumber":59,"Velocity":42,"Duration":1589712,"SoundDuration":1589712,"Delta":314990364},{"NoteNumber":54,"Velocity":42,"Duration":1589712,"SoundDuration":1589712,"Delta":314990364},{"NoteNumber":86,"Velocity":42,"Duration":98684,"SoundDuration":98684,"Delta":315089048},{"NoteNumber":83,"Velocity":50,"Duration":98738,"SoundDuration":98738,"Delta":315187732},{"NoteNumber":78,"Velocity":42,"Duration":74257,"SoundDuration":74257,"Delta":315286471},{"NoteNumber":78,"Velocity":50,"Duration":99009,"SoundDuration":99009,"Delta":315385481},{"NoteNumber":83,"Velocity":42,"Duration":99010,"SoundDuration":99010,"Delta":315484491},{"NoteNumber":78,"Velocity":50,"Duration":99283,"SoundDuration":99283,"Delta":315583501},{"NoteNumber":74,"Velocity":42,"Duration":74503,"SoundDuration":74503,"Delta":315682784},{"NoteNumber":74,"Velocity":50,"Duration":99337,"SoundDuration":99337,"Delta":315782122},{"NoteNumber":78,"Velocity":42,"Duration":99502,"SoundDuration":99502,"Delta":315881460},{"NoteNumber":74,"Velocity":50,"Duration":99667,"SoundDuration":99667,"Delta":315980962},{"NoteNumber":71,"Velocity":42,"Duration":74750,"SoundDuration":74750,"Delta":316080630},{"NoteNumber":71,"Velocity":50,"Duration":99723,"SoundDuration":99723,"Delta":316180298},{"NoteNumber":74,"Velocity":42,"Duration":100000,"SoundDuration":100000,"Delta":316280021},{"NoteNumber":71,"Velocity":50,"Duration":99999,"SoundDuration":99999,"Delta":316380021},{"NoteNumber":66,"Velocity":42,"Duration":100055,"SoundDuration":100055,"Delta":316480021},{"NoteNumber":70,"Velocity":37,"Duration":238688,"SoundDuration":238688,"Delta":316580077},{"NoteNumber":73,"Velocity":45,"Duration":238688,"SoundDuration":238688,"Delta":316580077},{"NoteNumber":64,"Velocity":41,"Duration":238688,"SoundDuration":238688,"Delta":316580077},{"NoteNumber":54,"Velocity":35,"Duration":238688,"SoundDuration":238688,"Delta":316580077},{"NoteNumber":74,"Velocity":41,"Duration":491378,"SoundDuration":491378,"Delta":317059386},{"NoteNumber":66,"Velocity":41,"Duration":491378,"SoundDuration":491378,"Delta":317059386},{"NoteNumber":71,"Velocity":41,"Duration":491378,"SoundDuration":491378,"Delta":317059386},{"NoteNumber":62,"Velocity":40,"Duration":491378,"SoundDuration":491378,"Delta":317059386},{"NoteNumber":59,"Velocity":40,"Duration":491378,"SoundDuration":491378,"Delta":317059386},{"NoteNumber":73,"Velocity":50,"Duration":407142,"SoundDuration":407142,"Delta":317575150},{"NoteNumber":76,"Velocity":50,"Duration":407142,"SoundDuration":407142,"Delta":317575150},{"NoteNumber":83,"Velocity":50,"Duration":407142,"SoundDuration":407142,"Delta":317575150},{"NoteNumber":57,"Velocity":45,"Duration":407142,"SoundDuration":407142,"Delta":317575150},{"NoteNumber":67,"Velocity":45,"Duration":407142,"SoundDuration":407142,"Delta":317575150},{"NoteNumber":73,"Velocity":48,"Duration":407142,"SoundDuration":407142,"Delta":318003721},{"NoteNumber":76,"Velocity":48,"Duration":407142,"SoundDuration":407142,"Delta":318003721},{"NoteNumber":83,"Velocity":48,"Duration":407142,"SoundDuration":407142,"Delta":318003721},{"NoteNumber":57,"Velocity":43,"Duration":407142,"SoundDuration":407142,"Delta":318003721},{"NoteNumber":67,"Velocity":43,"Duration":407142,"SoundDuration":407142,"Delta":318003721},{"NoteNumber":73,"Velocity":46,"Duration":407142,"SoundDuration":407142,"Delta":318432292},{"NoteNumber":76,"Velocity":46,"Duration":407142,"SoundDuration":407142,"Delta":318432292},{"NoteNumber":83,"Velocity":46,"Duration":407142,"SoundDuration":407142,"Delta":318432292},{"NoteNumber":57,"Velocity":41,"Duration":407142,"SoundDuration":407142,"Delta":318432292},{"NoteNumber":67,"Velocity":41,"Duration":407142,"SoundDuration":407142,"Delta":318432292},{"NoteNumber":73,"Velocity":44,"Duration":407142,"SoundDuration":407142,"Delta":318860863},{"NoteNumber":78,"Velocity":44,"Duration":407142,"SoundDuration":407142,"Delta":318860863},{"NoteNumber":81,"Velocity":44,"Duration":407142,"SoundDuration":407142,"Delta":318860863},{"NoteNumber":57,"Velocity":39,"Duration":407142,"SoundDuration":407142,"Delta":318860863},{"NoteNumber":66,"Velocity":39,"Duration":407142,"SoundDuration":407142,"Delta":318860863},{"NoteNumber":73,"Velocity":42,"Duration":407142,"SoundDuration":407142,"Delta":319289434},{"NoteNumber":79,"Velocity":42,"Duration":407142,"SoundDuration":407142,"Delta":319289434},{"NoteNumber":57,"Velocity":37,"Duration":407142,"SoundDuration":407142,"Delta":319289434},{"NoteNumber":64,"Velocity":37,"Duration":407142,"SoundDuration":407142,"Delta":319289434},{"NoteNumber":74,"Velocity":38,"Duration":425372,"SoundDuration":425372,"Delta":319718005},{"NoteNumber":78,"Velocity":38,"Duration":425372,"SoundDuration":425372,"Delta":319718005},{"NoteNumber":62,"Velocity":36,"Duration":425372,"SoundDuration":425372,"Delta":319718005},{"NoteNumber":59,"Velocity":36,"Duration":425372,"SoundDuration":425372,"Delta":319718005},{"NoteNumber":70,"Velocity":46,"Duration":407142,"SoundDuration":407142,"Delta":320165766},{"NoteNumber":73,"Velocity":46,"Duration":407142,"SoundDuration":407142,"Delta":320165766},{"NoteNumber":79,"Velocity":46,"Duration":407142,"SoundDuration":407142,"Delta":320165766},{"NoteNumber":54,"Velocity":42,"Duration":407142,"SoundDuration":407142,"Delta":320165766},{"NoteNumber":64,"Velocity":42,"Duration":407142,"SoundDuration":407142,"Delta":320165766},{"NoteNumber":70,"Velocity":46,"Duration":407142,"SoundDuration":407142,"Delta":320594337},{"NoteNumber":73,"Velocity":46,"Duration":407142,"SoundDuration":407142,"Delta":320594337},{"NoteNumber":79,"Velocity":46,"Duration":407142,"SoundDuration":407142,"Delta":320594337},{"NoteNumber":54,"Velocity":41,"Duration":407142,"SoundDuration":407142,"Delta":320594337},{"NoteNumber":64,"Velocity":41,"Duration":407142,"SoundDuration":407142,"Delta":320594337},{"NoteNumber":73,"Velocity":46,"Duration":407142,"SoundDuration":407142,"Delta":321022908},{"NoteNumber":79,"Velocity":46,"Duration":407142,"SoundDuration":407142,"Delta":321022908},{"NoteNumber":70,"Velocity":46,"Duration":407142,"SoundDuration":407142,"Delta":321022908},{"NoteNumber":54,"Velocity":41,"Duration":407142,"SoundDuration":407142,"Delta":321022908},{"NoteNumber":64,"Velocity":41,"Duration":407142,"SoundDuration":407142,"Delta":321022908},{"NoteNumber":78,"Velocity":44,"Duration":407142,"SoundDuration":407142,"Delta":321451479},{"NoteNumber":73,"Velocity":44,"Duration":407142,"SoundDuration":407142,"Delta":321451479},{"NoteNumber":70,"Velocity":44,"Duration":407142,"SoundDuration":407142,"Delta":321451479},{"NoteNumber":61,"Velocity":39,"Duration":407142,"SoundDuration":407142,"Delta":321451479},{"NoteNumber":54,"Velocity":39,"Duration":407142,"SoundDuration":407142,"Delta":321451479},{"NoteNumber":76,"Velocity":42,"Duration":407142,"SoundDuration":407142,"Delta":321880050},{"NoteNumber":73,"Velocity":42,"Duration":407142,"SoundDuration":407142,"Delta":321880050},{"NoteNumber":58,"Velocity":37,"Duration":407142,"SoundDuration":407142,"Delta":321880050},{"NoteNumber":54,"Velocity":37,"Duration":407142,"SoundDuration":407142,"Delta":321880050},{"NoteNumber":75,"Velocity":41,"Duration":439574,"SoundDuration":439574,"Delta":322308621},{"NoteNumber":71,"Velocity":41,"Duration":439574,"SoundDuration":439574,"Delta":322308621},{"NoteNumber":59,"Velocity":36,"Duration":439574,"SoundDuration":439574,"Delta":322308621},{"NoteNumber":56,"Velocity":36,"Duration":439574,"SoundDuration":439574,"Delta":322308621},{"NoteNumber":68,"Velocity":49,"Duration":407142,"SoundDuration":407142,"Delta":322771361},{"NoteNumber":64,"Velocity":49,"Duration":407142,"SoundDuration":407142,"Delta":322771361},{"NoteNumber":76,"Velocity":49,"Duration":407142,"SoundDuration":407142,"Delta":322771361},{"NoteNumber":49,"Velocity":44,"Duration":407142,"SoundDuration":407142,"Delta":322771361},{"NoteNumber":56,"Velocity":44,"Duration":407142,"SoundDuration":407142,"Delta":322771361},{"NoteNumber":61,"Velocity":44,"Duration":407142,"SoundDuration":407142,"Delta":322771361},{"NoteNumber":76,"Velocity":49,"Duration":407142,"SoundDuration":407142,"Delta":323199932},{"NoteNumber":68,"Velocity":49,"Duration":407142,"SoundDuration":407142,"Delta":323199932},{"NoteNumber":64,"Velocity":49,"Duration":407142,"SoundDuration":407142,"Delta":323199932},{"NoteNumber":49,"Velocity":42,"Duration":407142,"SoundDuration":407142,"Delta":323199932},{"NoteNumber":56,"Velocity":42,"Duration":407142,"SoundDuration":407142,"Delta":323199932},{"NoteNumber":61,"Velocity":42,"Duration":407142,"SoundDuration":407142,"Delta":323199932},{"NoteNumber":68,"Velocity":49,"Duration":407142,"SoundDuration":407142,"Delta":323628503},{"NoteNumber":64,"Velocity":49,"Duration":407142,"SoundDuration":407142,"Delta":323628503},{"NoteNumber":76,"Velocity":49,"Duration":407142,"SoundDuration":407142,"Delta":323628503},{"NoteNumber":49,"Velocity":44,"Duration":407142,"SoundDuration":407142,"Delta":323628503},{"NoteNumber":61,"Velocity":44,"Duration":407142,"SoundDuration":407142,"Delta":323628503},{"NoteNumber":56,"Velocity":44,"Duration":407142,"SoundDuration":407142,"Delta":323628503},{"NoteNumber":75,"Velocity":49,"Duration":407142,"SoundDuration":407142,"Delta":324057074},{"NoteNumber":68,"Velocity":49,"Duration":407142,"SoundDuration":407142,"Delta":324057074},{"NoteNumber":63,"Velocity":49,"Duration":407142,"SoundDuration":407142,"Delta":324057074},{"NoteNumber":51,"Velocity":43,"Duration":407142,"SoundDuration":407142,"Delta":324057074},{"NoteNumber":59,"Velocity":43,"Duration":407142,"SoundDuration":407142,"Delta":324057074},{"NoteNumber":56,"Velocity":43,"Duration":407142,"SoundDuration":407142,"Delta":324057074},{"NoteNumber":61,"Velocity":47,"Duration":407142,"SoundDuration":407142,"Delta":324485645},{"NoteNumber":73,"Velocity":47,"Duration":407142,"SoundDuration":407142,"Delta":324485645},{"NoteNumber":68,"Velocity":47,"Duration":407142,"SoundDuration":407142,"Delta":324485645},{"NoteNumber":56,"Velocity":42,"Duration":407142,"SoundDuration":407142,"Delta":324485645},{"NoteNumber":52,"Velocity":42,"Duration":407142,"SoundDuration":407142,"Delta":324485645},{"NoteNumber":63,"Velocity":48,"Duration":425372,"SoundDuration":425372,"Delta":324914216},{"NoteNumber":68,"Velocity":48,"Duration":425372,"SoundDuration":425372,"Delta":324914216},{"NoteNumber":71,"Velocity":48,"Duration":425372,"SoundDuration":425372,"Delta":324914216},{"NoteNumber":51,"Velocity":41,"Duration":425372,"SoundDuration":425372,"Delta":324914216},{"NoteNumber":56,"Velocity":41,"Duration":425372,"SoundDuration":425372,"Delta":324914216},{"NoteNumber":59,"Velocity":41,"Duration":425372,"SoundDuration":425372,"Delta":324914216},{"NoteNumber":63,"Velocity":48,"Duration":425372,"SoundDuration":425372,"Delta":325361977},{"NoteNumber":68,"Velocity":48,"Duration":425372,"SoundDuration":425372,"Delta":325361977},{"NoteNumber":71,"Velocity":48,"Duration":425372,"SoundDuration":425372,"Delta":325361977},{"NoteNumber":51,"Velocity":40,"Duration":425372,"SoundDuration":425372,"Delta":325361977},{"NoteNumber":56,"Velocity":40,"Duration":425372,"SoundDuration":425372,"Delta":325361977},{"NoteNumber":59,"Velocity":40,"Duration":425372,"SoundDuration":425372,"Delta":325361977},{"NoteNumber":63,"Velocity":48,"Duration":476987,"SoundDuration":476987,"Delta":325809738},{"NoteNumber":68,"Velocity":48,"Duration":476987,"SoundDuration":476987,"Delta":325809738},{"NoteNumber":71,"Velocity":48,"Duration":476987,"SoundDuration":476987,"Delta":325809738},{"NoteNumber":51,"Velocity":40,"Duration":476987,"SoundDuration":476987,"Delta":325809738},{"NoteNumber":56,"Velocity":40,"Duration":476987,"SoundDuration":476987,"Delta":325809738},{"NoteNumber":59,"Velocity":40,"Duration":476987,"SoundDuration":476987,"Delta":325809738},{"NoteNumber":63,"Velocity":33,"Duration":423792,"SoundDuration":423792,"Delta":326310897},{"NoteNumber":67,"Velocity":33,"Duration":423792,"SoundDuration":423792,"Delta":326310897},{"NoteNumber":70,"Velocity":33,"Duration":423792,"SoundDuration":423792,"Delta":326310897},{"NoteNumber":51,"Velocity":31,"Duration":423792,"SoundDuration":423792,"Delta":326310897},{"NoteNumber":55,"Velocity":31,"Duration":423792,"SoundDuration":423792,"Delta":326310897},{"NoteNumber":58,"Velocity":31,"Duration":423792,"SoundDuration":423792,"Delta":326310897},{"NoteNumber":63,"Velocity":34,"Duration":423792,"SoundDuration":423792,"Delta":326756994},{"NoteNumber":67,"Velocity":34,"Duration":423792,"SoundDuration":423792,"Delta":326756994},{"NoteNumber":70,"Velocity":34,"Duration":423792,"SoundDuration":423792,"Delta":326756994},{"NoteNumber":51,"Velocity":30,"Duration":423792,"SoundDuration":423792,"Delta":326756994},{"NoteNumber":55,"Velocity":30,"Duration":423792,"SoundDuration":423792,"Delta":326756994},{"NoteNumber":58,"Velocity":30,"Duration":423792,"SoundDuration":423792,"Delta":326756994},{"NoteNumber":63,"Velocity":34,"Duration":496517,"SoundDuration":496517,"Delta":327203091},{"NoteNumber":67,"Velocity":34,"Duration":496517,"SoundDuration":496517,"Delta":327203091},{"NoteNumber":70,"Velocity":34,"Duration":496517,"SoundDuration":496517,"Delta":327203091},{"NoteNumber":51,"Velocity":29,"Duration":496517,"SoundDuration":496517,"Delta":327203091},{"NoteNumber":55,"Velocity":29,"Duration":496517,"SoundDuration":496517,"Delta":327203091},{"NoteNumber":58,"Velocity":29,"Duration":496517,"SoundDuration":496517,"Delta":327203091},{"NoteNumber":84,"Velocity":40,"Duration":98268,"SoundDuration":98268,"Delta":327723743},{"NoteNumber":44,"Velocity":40,"Duration":392562,"SoundDuration":392562,"Delta":327723743},{"NoteNumber":87,"Velocity":34,"Duration":98039,"SoundDuration":98039,"Delta":327822011},{"NoteNumber":84,"Velocity":40,"Duration":98039,"SoundDuration":98039,"Delta":327920050},{"NoteNumber":80,"Velocity":34,"Duration":73625,"SoundDuration":73625,"Delta":328018089},{"NoteNumber":80,"Velocity":40,"Duration":98360,"SoundDuration":98360,"Delta":328116305},{"NoteNumber":51,"Velocity":34,"Duration":1584985,"SoundDuration":1584985,"Delta":328116305},{"NoteNumber":60,"Velocity":40,"Duration":1584985,"SoundDuration":1584985,"Delta":328116305},{"NoteNumber":56,"Velocity":34,"Duration":1584985,"SoundDuration":1584985,"Delta":328116305},{"NoteNumber":84,"Velocity":34,"Duration":98360,"SoundDuration":98360,"Delta":328214666},{"NoteNumber":80,"Velocity":40,"Duration":98430,"SoundDuration":98430,"Delta":328313027},{"NoteNumber":75,"Velocity":34,"Duration":74013,"SoundDuration":74013,"Delta":328411457},{"NoteNumber":75,"Velocity":40,"Duration":98684,"SoundDuration":98684,"Delta":328510142},{"NoteNumber":80,"Velocity":34,"Duration":98754,"SoundDuration":98754,"Delta":328608826},{"NoteNumber":75,"Velocity":40,"Duration":99009,"SoundDuration":99009,"Delta":328707581},{"NoteNumber":72,"Velocity":34,"Duration":74257,"SoundDuration":74257,"Delta":328806591},{"NoteNumber":72,"Velocity":40,"Duration":99010,"SoundDuration":99010,"Delta":328905601},{"NoteNumber":75,"Velocity":34,"Duration":99299,"SoundDuration":99299,"Delta":329004611},{"NoteNumber":72,"Velocity":40,"Duration":99337,"SoundDuration":99337,"Delta":329103910},{"NoteNumber":68,"Velocity":34,"Duration":74503,"SoundDuration":74503,"Delta":329203248},{"NoteNumber":68,"Velocity":40,"Duration":99519,"SoundDuration":99519,"Delta":329302586},{"NoteNumber":72,"Velocity":34,"Duration":99667,"SoundDuration":99667,"Delta":329402105},{"NoteNumber":68,"Velocity":40,"Duration":99667,"SoundDuration":99667,"Delta":329501773},{"NoteNumber":63,"Velocity":34,"Duration":99850,"SoundDuration":99850,"Delta":329601441},{"NoteNumber":67,"Velocity":30,"Duration":238666,"SoundDuration":238666,"Delta":329701291},{"NoteNumber":70,"Velocity":36,"Duration":238666,"SoundDuration":238666,"Delta":329701291},{"NoteNumber":61,"Velocity":32,"Duration":238666,"SoundDuration":238666,"Delta":329701291},{"NoteNumber":51,"Velocity":27,"Duration":238666,"SoundDuration":238666,"Delta":329701291},{"NoteNumber":84,"Velocity":40,"Duration":98360,"SoundDuration":98360,"Delta":330175269},{"NoteNumber":44,"Velocity":40,"Duration":393513,"SoundDuration":393513,"Delta":330175269},{"NoteNumber":87,"Velocity":34,"Duration":98360,"SoundDuration":98360,"Delta":330273630},{"NoteNumber":84,"Velocity":40,"Duration":98360,"SoundDuration":98360,"Delta":330371991},{"NoteNumber":80,"Velocity":34,"Duration":73770,"SoundDuration":73770,"Delta":330470351},{"NoteNumber":80,"Velocity":40,"Duration":98684,"SoundDuration":98684,"Delta":330568782},{"NoteNumber":51,"Velocity":34,"Duration":1587524,"SoundDuration":1587524,"Delta":330568782},{"NoteNumber":60,"Velocity":40,"Duration":1587524,"SoundDuration":1587524,"Delta":330568782},{"NoteNumber":56,"Velocity":34,"Duration":1587524,"SoundDuration":1587524,"Delta":330568782},{"NoteNumber":84,"Velocity":34,"Duration":98684,"SoundDuration":98684,"Delta":330667467},{"NoteNumber":80,"Velocity":40,"Duration":98684,"SoundDuration":98684,"Delta":330766151},{"NoteNumber":75,"Velocity":34,"Duration":74013,"SoundDuration":74013,"Delta":330864835},{"NoteNumber":75,"Velocity":40,"Duration":99009,"SoundDuration":99009,"Delta":330963590},{"NoteNumber":80,"Velocity":34,"Duration":99010,"SoundDuration":99010,"Delta":331062600},{"NoteNumber":75,"Velocity":40,"Duration":99010,"SoundDuration":99010,"Delta":331161610},{"NoteNumber":72,"Velocity":34,"Duration":74355,"SoundDuration":74355,"Delta":331260620},{"NoteNumber":72,"Velocity":40,"Duration":99337,"SoundDuration":99337,"Delta":331359810},{"NoteNumber":75,"Velocity":34,"Duration":99337,"SoundDuration":99337,"Delta":331459148},{"NoteNumber":72,"Velocity":40,"Duration":99337,"SoundDuration":99337,"Delta":331558486},{"NoteNumber":68,"Velocity":34,"Duration":74602,"SoundDuration":74602,"Delta":331657823},{"NoteNumber":68,"Velocity":40,"Duration":99667,"SoundDuration":99667,"Delta":331757343},{"NoteNumber":72,"Velocity":34,"Duration":99667,"SoundDuration":99667,"Delta":331857010},{"NoteNumber":68,"Velocity":40,"Duration":99667,"SoundDuration":99667,"Delta":331956678},{"NoteNumber":63,"Velocity":34,"Duration":99961,"SoundDuration":99961,"Delta":332056346},{"NoteNumber":67,"Velocity":30,"Duration":238666,"SoundDuration":238666,"Delta":332156307},{"NoteNumber":70,"Velocity":36,"Duration":238666,"SoundDuration":238666,"Delta":332156307},{"NoteNumber":61,"Velocity":32,"Duration":238666,"SoundDuration":238666,"Delta":332156307},{"NoteNumber":51,"Velocity":27,"Duration":238666,"SoundDuration":238666,"Delta":332156307},{"NoteNumber":87,"Velocity":45,"Duration":97719,"SoundDuration":97719,"Delta":332622720},{"NoteNumber":44,"Velocity":45,"Duration":391374,"SoundDuration":391374,"Delta":332622720},{"NoteNumber":92,"Velocity":38,"Duration":97719,"SoundDuration":97719,"Delta":332720439},{"NoteNumber":87,"Velocity":45,"Duration":97895,"SoundDuration":97895,"Delta":332818159},{"NoteNumber":84,"Velocity":38,"Duration":73529,"SoundDuration":73529,"Delta":332916055},{"NoteNumber":84,"Velocity":45,"Duration":98039,"SoundDuration":98039,"Delta":333014094},{"NoteNumber":51,"Velocity":41,"Duration":1583762,"SoundDuration":1583762,"Delta":333014094},{"NoteNumber":60,"Velocity":49,"Duration":1583762,"SoundDuration":1583762,"Delta":333014094},{"NoteNumber":56,"Velocity":41,"Duration":1583762,"SoundDuration":1583762,"Delta":333014094},{"NoteNumber":87,"Velocity":38,"Duration":98323,"SoundDuration":98323,"Delta":333112133},{"NoteNumber":84,"Velocity":45,"Duration":98360,"SoundDuration":98360,"Delta":333210456},{"NoteNumber":80,"Velocity":38,"Duration":73770,"SoundDuration":73770,"Delta":333308817},{"NoteNumber":80,"Velocity":45,"Duration":98646,"SoundDuration":98646,"Delta":333407178},{"NoteNumber":84,"Velocity":38,"Duration":98684,"SoundDuration":98684,"Delta":333505824},{"NoteNumber":80,"Velocity":45,"Duration":98754,"SoundDuration":98754,"Delta":333604509},{"NoteNumber":75,"Velocity":38,"Duration":74257,"SoundDuration":74257,"Delta":333703263},{"NoteNumber":75,"Velocity":45,"Duration":99010,"SoundDuration":99010,"Delta":333802273},{"NoteNumber":80,"Velocity":38,"Duration":99081,"SoundDuration":99081,"Delta":333901283},{"NoteNumber":75,"Velocity":45,"Duration":99337,"SoundDuration":99337,"Delta":334000364},{"NoteNumber":72,"Velocity":38,"Duration":74503,"SoundDuration":74503,"Delta":334099702},{"NoteNumber":72,"Velocity":45,"Duration":99519,"SoundDuration":99519,"Delta":334199040},{"NoteNumber":75,"Velocity":38,"Duration":99667,"SoundDuration":99667,"Delta":334298559},{"NoteNumber":72,"Velocity":45,"Duration":99667,"SoundDuration":99667,"Delta":334398227},{"NoteNumber":68,"Velocity":38,"Duration":99961,"SoundDuration":99961,"Delta":334497895},{"NoteNumber":67,"Velocity":40,"Duration":238666,"SoundDuration":238666,"Delta":334597856},{"NoteNumber":70,"Velocity":40,"Duration":238666,"SoundDuration":238666,"Delta":334597856},{"NoteNumber":61,"Velocity":36,"Duration":238666,"SoundDuration":238666,"Delta":334597856},{"NoteNumber":51,"Velocity":30,"Duration":238666,"SoundDuration":238666,"Delta":334597856},{"NoteNumber":87,"Velocity":50,"Duration":98360,"SoundDuration":98360,"Delta":335071834},{"NoteNumber":44,"Velocity":50,"Duration":393513,"SoundDuration":393513,"Delta":335071834},{"NoteNumber":92,"Velocity":42,"Duration":98360,"SoundDuration":98360,"Delta":335170195},{"NoteNumber":87,"Velocity":50,"Duration":98360,"SoundDuration":98360,"Delta":335268556},{"NoteNumber":84,"Velocity":42,"Duration":73770,"SoundDuration":73770,"Delta":335366916},{"NoteNumber":84,"Velocity":50,"Duration":98684,"SoundDuration":98684,"Delta":335465347},{"NoteNumber":51,"Velocity":40,"Duration":1587194,"SoundDuration":1587194,"Delta":335465347},{"NoteNumber":60,"Velocity":48,"Duration":1587194,"SoundDuration":1587194,"Delta":335465347},{"NoteNumber":56,"Velocity":40,"Duration":1587194,"SoundDuration":1587194,"Delta":335465347},{"NoteNumber":87,"Velocity":42,"Duration":98684,"SoundDuration":98684,"Delta":335564031},{"NoteNumber":84,"Velocity":50,"Duration":98684,"SoundDuration":98684,"Delta":335662716},{"NoteNumber":80,"Velocity":42,"Duration":74013,"SoundDuration":74013,"Delta":335761400},{"NoteNumber":80,"Velocity":50,"Duration":99009,"SoundDuration":99009,"Delta":335860155},{"NoteNumber":84,"Velocity":42,"Duration":99010,"SoundDuration":99010,"Delta":335959165},{"NoteNumber":80,"Velocity":50,"Duration":99010,"SoundDuration":99010,"Delta":336058175},{"NoteNumber":75,"Velocity":42,"Duration":74257,"SoundDuration":74257,"Delta":336157185},{"NoteNumber":75,"Velocity":50,"Duration":99337,"SoundDuration":99337,"Delta":336256266},{"NoteNumber":80,"Velocity":42,"Duration":99337,"SoundDuration":99337,"Delta":336355604},{"NoteNumber":75,"Velocity":50,"Duration":99337,"SoundDuration":99337,"Delta":336454941},{"NoteNumber":72,"Velocity":42,"Duration":74503,"SoundDuration":74503,"Delta":336554279},{"NoteNumber":72,"Velocity":50,"Duration":99667,"SoundDuration":99667,"Delta":336653688},{"NoteNumber":75,"Velocity":42,"Duration":99667,"SoundDuration":99667,"Delta":336753356},{"NoteNumber":72,"Velocity":50,"Duration":99667,"SoundDuration":99667,"Delta":336853024},{"NoteNumber":68,"Velocity":42,"Duration":99850,"SoundDuration":99850,"Delta":336952692},{"NoteNumber":67,"Velocity":45,"Duration":238666,"SoundDuration":238666,"Delta":337052542},{"NoteNumber":70,"Velocity":45,"Duration":238666,"SoundDuration":238666,"Delta":337052542},{"NoteNumber":61,"Velocity":40,"Duration":238666,"SoundDuration":238666,"Delta":337052542},{"NoteNumber":51,"Velocity":34,"Duration":238666,"SoundDuration":238666,"Delta":337052542},{"NoteNumber":72,"Velocity":40,"Duration":100000,"SoundDuration":100000,"Delta":337531209},{"NoteNumber":44,"Velocity":40,"Duration":399999,"SoundDuration":399999,"Delta":337531209},{"NoteNumber":75,"Velocity":34,"Duration":99999,"SoundDuration":99999,"Delta":337631209},{"NoteNumber":72,"Velocity":40,"Duration":100000,"SoundDuration":100000,"Delta":337731209},{"NoteNumber":68,"Velocity":34,"Duration":74999,"SoundDuration":74999,"Delta":337831209},{"NoteNumber":68,"Velocity":40,"Duration":100000,"SoundDuration":100000,"Delta":337931209},{"NoteNumber":54,"Velocity":27,"Duration":828571,"SoundDuration":828571,"Delta":337931209},{"NoteNumber":60,"Velocity":33,"Duration":828571,"SoundDuration":828571,"Delta":337931209},{"NoteNumber":56,"Velocity":27,"Duration":828571,"SoundDuration":828571,"Delta":337931209},{"NoteNumber":72,"Velocity":34,"Duration":100000,"SoundDuration":100000,"Delta":338031209},{"NoteNumber":68,"Velocity":40,"Duration":99999,"SoundDuration":99999,"Delta":338131209},{"NoteNumber":63,"Velocity":34,"Duration":100000,"SoundDuration":100000,"Delta":338231209},{"NoteNumber":68,"Velocity":40,"Duration":107142,"SoundDuration":107142,"Delta":338331209},{"NoteNumber":73,"Velocity":40,"Duration":100000,"SoundDuration":100000,"Delta":338759780},{"NoteNumber":49,"Velocity":40,"Duration":399999,"SoundDuration":399999,"Delta":338759780},{"NoteNumber":77,"Velocity":34,"Duration":99999,"SoundDuration":99999,"Delta":338859780},{"NoteNumber":73,"Velocity":40,"Duration":100000,"SoundDuration":100000,"Delta":338959780},{"NoteNumber":68,"Velocity":34,"Duration":74999,"SoundDuration":74999,"Delta":339059780},{"NoteNumber":68,"Velocity":40,"Duration":100000,"SoundDuration":100000,"Delta":339159780},{"NoteNumber":61,"Velocity":29,"Duration":828094,"SoundDuration":828094,"Delta":339159780},{"NoteNumber":56,"Velocity":25,"Duration":828094,"SoundDuration":828094,"Delta":339159780},{"NoteNumber":53,"Velocity":25,"Duration":828094,"SoundDuration":828094,"Delta":339159780},{"NoteNumber":73,"Velocity":34,"Duration":100000,"SoundDuration":100000,"Delta":339259780},{"NoteNumber":68,"Velocity":40,"Duration":99999,"SoundDuration":99999,"Delta":339359780},{"NoteNumber":65,"Velocity":34,"Duration":100000,"SoundDuration":100000,"Delta":339459780},{"NoteNumber":68,"Velocity":40,"Duration":107142,"SoundDuration":107142,"Delta":339559780},{"NoteNumber":75,"Velocity":40,"Duration":100000,"SoundDuration":100000,"Delta":339987874},{"NoteNumber":39,"Velocity":40,"Duration":400000,"SoundDuration":400000,"Delta":339987874},{"NoteNumber":79,"Velocity":34,"Duration":99999,"SoundDuration":99999,"Delta":340087874},{"NoteNumber":75,"Velocity":40,"Duration":100000,"SoundDuration":100000,"Delta":340187874},{"NoteNumber":70,"Velocity":34,"Duration":74999,"SoundDuration":74999,"Delta":340287874},{"NoteNumber":70,"Velocity":40,"Duration":99999,"SoundDuration":99999,"Delta":340387874},{"NoteNumber":51,"Velocity":29,"Duration":829606,"SoundDuration":829606,"Delta":340387874},{"NoteNumber":61,"Velocity":35,"Duration":829606,"SoundDuration":829606,"Delta":340387874},{"NoteNumber":58,"Velocity":29,"Duration":829606,"SoundDuration":829606,"Delta":340387874},{"NoteNumber":75,"Velocity":34,"Duration":100000,"SoundDuration":100000,"Delta":340487874},{"NoteNumber":70,"Velocity":40,"Duration":99999,"SoundDuration":99999,"Delta":340587874},{"NoteNumber":67,"Velocity":34,"Duration":100000,"SoundDuration":100000,"Delta":340687874},{"NoteNumber":70,"Velocity":40,"Duration":107025,"SoundDuration":107025,"Delta":340787874},{"NoteNumber":75,"Velocity":40,"Duration":100334,"SoundDuration":100334,"Delta":341217481},{"NoteNumber":44,"Velocity":40,"Duration":401338,"SoundDuration":401338,"Delta":341217481},{"NoteNumber":80,"Velocity":34,"Duration":100334,"SoundDuration":100334,"Delta":341317815},{"NoteNumber":75,"Velocity":40,"Duration":100334,"SoundDuration":100334,"Delta":341418150},{"NoteNumber":72,"Velocity":34,"Duration":75250,"SoundDuration":75250,"Delta":341518484},{"NoteNumber":72,"Velocity":40,"Duration":100334,"SoundDuration":100334,"Delta":341618819},{"NoteNumber":60,"Velocity":37,"Duration":862876,"SoundDuration":862876,"Delta":341618819},{"NoteNumber":56,"Velocity":31,"Duration":862876,"SoundDuration":862876,"Delta":341618819},{"NoteNumber":51,"Velocity":31,"Duration":862876,"SoundDuration":862876,"Delta":341618819},{"NoteNumber":75,"Velocity":34,"Duration":100334,"SoundDuration":100334,"Delta":341719153},{"NoteNumber":72,"Velocity":40,"Duration":100334,"SoundDuration":100334,"Delta":341819488},{"NoteNumber":68,"Velocity":34,"Duration":100334,"SoundDuration":100334,"Delta":341919822},{"NoteNumber":72,"Velocity":40,"Duration":115384,"SoundDuration":115384,"Delta":342020157},{"NoteNumber":84,"Velocity":53,"Duration":101337,"SoundDuration":101337,"Delta":342481695},{"NoteNumber":44,"Velocity":50,"Duration":402341,"SoundDuration":402341,"Delta":342481695},{"NoteNumber":87,"Velocity":45,"Duration":100334,"SoundDuration":100334,"Delta":342583033},{"NoteNumber":84,"Velocity":53,"Duration":100334,"SoundDuration":100334,"Delta":342683367},{"NoteNumber":80,"Velocity":45,"Duration":75250,"SoundDuration":75250,"Delta":342783702},{"NoteNumber":80,"Velocity":53,"Duration":100334,"SoundDuration":100334,"Delta":342884036},{"NoteNumber":54,"Velocity":34,"Duration":829908,"SoundDuration":829908,"Delta":342884036},{"NoteNumber":60,"Velocity":41,"Duration":829908,"SoundDuration":829908,"Delta":342884036},{"NoteNumber":56,"Velocity":34,"Duration":829908,"SoundDuration":829908,"Delta":342884036},{"NoteNumber":84,"Velocity":45,"Duration":100334,"SoundDuration":100334,"Delta":342984371},{"NoteNumber":80,"Velocity":53,"Duration":100334,"SoundDuration":100334,"Delta":343084705},{"NoteNumber":75,"Velocity":45,"Duration":100334,"SoundDuration":100334,"Delta":343185040},{"NoteNumber":80,"Velocity":53,"Duration":107142,"SoundDuration":107142,"Delta":343285374},{"NoteNumber":85,"Velocity":60,"Duration":100671,"SoundDuration":100671,"Delta":343713945},{"NoteNumber":49,"Velocity":60,"Duration":402685,"SoundDuration":402685,"Delta":343713945},{"NoteNumber":89,"Velocity":51,"Duration":100671,"SoundDuration":100671,"Delta":343814616},{"NoteNumber":85,"Velocity":60,"Duration":100671,"SoundDuration":100671,"Delta":343915288},{"NoteNumber":80,"Velocity":51,"Duration":75503,"SoundDuration":75503,"Delta":344015959},{"NoteNumber":80,"Velocity":60,"Duration":100671,"SoundDuration":100671,"Delta":344116630},{"NoteNumber":56,"Velocity":44,"Duration":831255,"SoundDuration":831255,"Delta":344116630},{"NoteNumber":61,"Velocity":52,"Duration":831255,"SoundDuration":831255,"Delta":344116630},{"NoteNumber":53,"Velocity":44,"Duration":831255,"SoundDuration":831255,"Delta":344116630},{"NoteNumber":85,"Velocity":51,"Duration":100671,"SoundDuration":100671,"Delta":344217301},{"NoteNumber":80,"Velocity":60,"Duration":100671,"SoundDuration":100671,"Delta":344317973},{"NoteNumber":77,"Velocity":51,"Duration":100671,"SoundDuration":100671,"Delta":344418644},{"NoteNumber":80,"Velocity":60,"Duration":107142,"SoundDuration":107142,"Delta":344519315},{"NoteNumber":87,"Velocity":70,"Duration":100334,"SoundDuration":100334,"Delta":344947886},{"NoteNumber":39,"Velocity":70,"Duration":401338,"SoundDuration":401338,"Delta":344947886},{"NoteNumber":91,"Velocity":59,"Duration":100334,"SoundDuration":100334,"Delta":345048221},{"NoteNumber":87,"Velocity":70,"Duration":100334,"SoundDuration":100334,"Delta":345148555},{"NoteNumber":82,"Velocity":59,"Duration":75250,"SoundDuration":75250,"Delta":345248890},{"NoteNumber":82,"Velocity":70,"Duration":100334,"SoundDuration":100334,"Delta":345349224},{"NoteNumber":61,"Velocity":61,"Duration":829908,"SoundDuration":829908,"Delta":345349224},{"NoteNumber":58,"Velocity":51,"Duration":829908,"SoundDuration":829908,"Delta":345349224},{"NoteNumber":51,"Velocity":51,"Duration":829908,"SoundDuration":829908,"Delta":345349224},{"NoteNumber":87,"Velocity":59,"Duration":100334,"SoundDuration":100334,"Delta":345449559},{"NoteNumber":82,"Velocity":70,"Duration":100334,"SoundDuration":100334,"Delta":345549893},{"NoteNumber":79,"Velocity":59,"Duration":100334,"SoundDuration":100334,"Delta":345650228},{"NoteNumber":82,"Velocity":70,"Duration":214285,"SoundDuration":214285,"Delta":345750562},{"NoteNumber":87,"Velocity":80,"Duration":100000,"SoundDuration":100000,"Delta":346179133},{"NoteNumber":44,"Velocity":76,"Duration":399999,"SoundDuration":399999,"Delta":346179133},{"NoteNumber":92,"Velocity":68,"Duration":99999,"SoundDuration":99999,"Delta":346279133},{"NoteNumber":87,"Velocity":80,"Duration":100000,"SoundDuration":100000,"Delta":346379133},{"NoteNumber":84,"Velocity":68,"Duration":74999,"SoundDuration":74999,"Delta":346479133},{"NoteNumber":84,"Velocity":80,"Duration":100000,"SoundDuration":100000,"Delta":346579133},{"NoteNumber":60,"Velocity":63,"Duration":864375,"SoundDuration":864375,"Delta":346579133},{"NoteNumber":56,"Velocity":53,"Duration":864375,"SoundDuration":864375,"Delta":346579133},{"NoteNumber":51,"Velocity":53,"Duration":864375,"SoundDuration":864375,"Delta":346579133},{"NoteNumber":87,"Velocity":68,"Duration":100000,"SoundDuration":100000,"Delta":346679133},{"NoteNumber":84,"Velocity":80,"Duration":99999,"SoundDuration":99999,"Delta":346779133},{"NoteNumber":80,"Velocity":68,"Duration":101055,"SoundDuration":101055,"Delta":346879133},{"NoteNumber":84,"Velocity":80,"Duration":231659,"SoundDuration":231659,"Delta":346980188},{"NoteNumber":72,"Velocity":40,"Duration":107432,"SoundDuration":107432,"Delta":347443508},{"NoteNumber":51,"Velocity":50,"Duration":428146,"SoundDuration":428146,"Delta":347443508},{"NoteNumber":44,"Velocity":34,"Duration":1228146,"SoundDuration":1228146,"Delta":347443508},{"NoteNumber":75,"Velocity":34,"Duration":107142,"SoundDuration":107142,"Delta":347550941},{"NoteNumber":72,"Velocity":40,"Duration":107142,"SoundDuration":107142,"Delta":347658083},{"NoteNumber":68,"Velocity":34,"Duration":80357,"SoundDuration":80357,"Delta":347765226},{"NoteNumber":68,"Velocity":40,"Duration":100000,"SoundDuration":100000,"Delta":347871655},{"NoteNumber":56,"Velocity":60,"Duration":600000,"SoundDuration":600000,"Delta":347871655},{"NoteNumber":72,"Velocity":34,"Duration":99999,"SoundDuration":99999,"Delta":347971655},{"NoteNumber":68,"Velocity":40,"Duration":100000,"SoundDuration":100000,"Delta":348071655},{"NoteNumber":63,"Velocity":34,"Duration":100000,"SoundDuration":100000,"Delta":348171655},{"NoteNumber":68,"Velocity":40,"Duration":199999,"SoundDuration":199999,"Delta":348271655},{"NoteNumber":55,"Velocity":50,"Duration":199999,"SoundDuration":199999,"Delta":348471655},{"NoteNumber":73,"Velocity":40,"Duration":106761,"SoundDuration":106761,"Delta":348671655},{"NoteNumber":53,"Velocity":50,"Duration":427046,"SoundDuration":427046,"Delta":348671655},{"NoteNumber":49,"Velocity":34,"Duration":1227046,"SoundDuration":1227046,"Delta":348671655},{"NoteNumber":77,"Velocity":34,"Duration":106761,"SoundDuration":106761,"Delta":348778416},{"NoteNumber":73,"Velocity":40,"Duration":106761,"SoundDuration":106761,"Delta":348885178},{"NoteNumber":68,"Velocity":34,"Duration":80071,"SoundDuration":80071,"Delta":348991939},{"NoteNumber":68,"Velocity":40,"Duration":100000,"SoundDuration":100000,"Delta":349098701},{"NoteNumber":61,"Velocity":60,"Duration":600000,"SoundDuration":600000,"Delta":349098701},{"NoteNumber":73,"Velocity":34,"Duration":99999,"SoundDuration":99999,"Delta":349198701},{"NoteNumber":68,"Velocity":40,"Duration":100000,"SoundDuration":100000,"Delta":349298701},{"NoteNumber":65,"Velocity":34,"Duration":99999,"SoundDuration":99999,"Delta":349398701},{"NoteNumber":68,"Velocity":40,"Duration":200000,"SoundDuration":200000,"Delta":349498701},{"NoteNumber":60,"Velocity":50,"Duration":199999,"SoundDuration":199999,"Delta":349698701},{"NoteNumber":75,"Velocity":40,"Duration":107025,"SoundDuration":107025,"Delta":349898701},{"NoteNumber":58,"Velocity":50,"Duration":429104,"SoundDuration":429104,"Delta":349898701},{"NoteNumber":51,"Velocity":34,"Duration":1229104,"SoundDuration":1229104,"Delta":349898701},{"NoteNumber":79,"Velocity":34,"Duration":107527,"SoundDuration":107527,"Delta":350005726},{"NoteNumber":75,"Velocity":40,"Duration":107527,"SoundDuration":107527,"Delta":350113253},{"NoteNumber":70,"Velocity":34,"Duration":80645,"SoundDuration":80645,"Delta":350220780},{"NoteNumber":70,"Velocity":40,"Duration":100000,"SoundDuration":100000,"Delta":350327805},{"NoteNumber":63,"Velocity":60,"Duration":600000,"SoundDuration":600000,"Delta":350327805},{"NoteNumber":75,"Velocity":34,"Duration":99999,"SoundDuration":99999,"Delta":350427805},{"NoteNumber":70,"Velocity":40,"Duration":100000,"SoundDuration":100000,"Delta":350527805},{"NoteNumber":67,"Velocity":34,"Duration":100000,"SoundDuration":100000,"Delta":350627805},{"NoteNumber":70,"Velocity":40,"Duration":199999,"SoundDuration":199999,"Delta":350727805},{"NoteNumber":61,"Velocity":50,"Duration":199999,"SoundDuration":199999,"Delta":350927805},{"NoteNumber":75,"Velocity":40,"Duration":107142,"SoundDuration":107142,"Delta":351127805},{"NoteNumber":60,"Velocity":50,"Duration":428570,"SoundDuration":428570,"Delta":351127805},{"NoteNumber":56,"Velocity":34,"Duration":1229047,"SoundDuration":1229047,"Delta":351127805},{"NoteNumber":80,"Velocity":34,"Duration":107142,"SoundDuration":107142,"Delta":351234948},{"NoteNumber":75,"Velocity":40,"Duration":107142,"SoundDuration":107142,"Delta":351342091},{"NoteNumber":72,"Velocity":34,"Duration":80357,"SoundDuration":80357,"Delta":351449233},{"NoteNumber":72,"Velocity":40,"Duration":100476,"SoundDuration":100476,"Delta":351556376},{"NoteNumber":63,"Velocity":60,"Duration":800476,"SoundDuration":800476,"Delta":351556376},{"NoteNumber":75,"Velocity":34,"Duration":100000,"SoundDuration":100000,"Delta":351656852},{"NoteNumber":72,"Velocity":40,"Duration":100000,"SoundDuration":100000,"Delta":351756852},{"NoteNumber":68,"Velocity":34,"Duration":99999,"SoundDuration":99999,"Delta":351856852},{"NoteNumber":72,"Velocity":40,"Duration":199999,"SoundDuration":199999,"Delta":351956852},{"NoteNumber":84,"Velocity":50,"Duration":120967,"SoundDuration":120967,"Delta":352356852},{"NoteNumber":51,"Velocity":66,"Duration":482450,"SoundDuration":482450,"Delta":352356852},{"NoteNumber":44,"Velocity":56,"Duration":1279792,"SoundDuration":1279792,"Delta":352356852},{"NoteNumber":87,"Velocity":42,"Duration":120967,"SoundDuration":120967,"Delta":352477820},{"NoteNumber":84,"Velocity":50,"Duration":120967,"SoundDuration":120967,"Delta":352598788},{"NoteNumber":80,"Velocity":42,"Duration":90725,"SoundDuration":90725,"Delta":352719755},{"NoteNumber":80,"Velocity":50,"Duration":99667,"SoundDuration":99667,"Delta":352839303},{"NoteNumber":56,"Velocity":73,"Duration":598006,"SoundDuration":598006,"Delta":352839303},{"NoteNumber":84,"Velocity":42,"Duration":99667,"SoundDuration":99667,"Delta":352938971},{"NoteNumber":80,"Velocity":50,"Duration":99667,"SoundDuration":99667,"Delta":353038639},{"NoteNumber":75,"Velocity":42,"Duration":99667,"SoundDuration":99667,"Delta":353138306},{"NoteNumber":80,"Velocity":50,"Duration":199335,"SoundDuration":199335,"Delta":353237974},{"NoteNumber":55,"Velocity":60,"Duration":199335,"SoundDuration":199335,"Delta":353437310},{"NoteNumber":85,"Velocity":56,"Duration":107727,"SoundDuration":107727,"Delta":353636645},{"NoteNumber":53,"Velocity":68,"Duration":432637,"SoundDuration":432637,"Delta":353636645},{"NoteNumber":49,"Velocity":57,"Duration":1233163,"SoundDuration":1233163,"Delta":353636645},{"NoteNumber":89,"Velocity":47,"Duration":108303,"SoundDuration":108303,"Delta":353744373},{"NoteNumber":85,"Velocity":56,"Duration":108303,"SoundDuration":108303,"Delta":353852676},{"NoteNumber":80,"Velocity":47,"Duration":81227,"SoundDuration":81227,"Delta":353960979},{"NoteNumber":80,"Velocity":56,"Duration":100000,"SoundDuration":100000,"Delta":354069283},{"NoteNumber":61,"Velocity":76,"Duration":600000,"SoundDuration":600000,"Delta":354069283},{"NoteNumber":85,"Velocity":47,"Duration":99999,"SoundDuration":99999,"Delta":354169283},{"NoteNumber":80,"Velocity":56,"Duration":100000,"SoundDuration":100000,"Delta":354269283},{"NoteNumber":77,"Velocity":47,"Duration":99999,"SoundDuration":99999,"Delta":354369283},{"NoteNumber":80,"Velocity":56,"Duration":200000,"SoundDuration":200000,"Delta":354469283},{"NoteNumber":60,"Velocity":70,"Duration":200526,"SoundDuration":200526,"Delta":354669283},{"NoteNumber":87,"Velocity":60,"Duration":105263,"SoundDuration":105263,"Delta":354869809},{"NoteNumber":58,"Velocity":72,"Duration":421052,"SoundDuration":421052,"Delta":354869809},{"NoteNumber":51,"Velocity":61,"Duration":1221428,"SoundDuration":1221428,"Delta":354869809},{"NoteNumber":91,"Velocity":51,"Duration":105263,"SoundDuration":105263,"Delta":354975072},{"NoteNumber":87,"Velocity":60,"Duration":105263,"SoundDuration":105263,"Delta":355080335},{"NoteNumber":82,"Velocity":51,"Duration":78947,"SoundDuration":78947,"Delta":355185599},{"NoteNumber":82,"Velocity":60,"Duration":100000,"SoundDuration":100000,"Delta":355290862},{"NoteNumber":63,"Velocity":78,"Duration":600000,"SoundDuration":600000,"Delta":355290862},{"NoteNumber":87,"Velocity":51,"Duration":99999,"SoundDuration":99999,"Delta":355390862},{"NoteNumber":82,"Velocity":60,"Duration":100000,"SoundDuration":100000,"Delta":355490862},{"NoteNumber":79,"Velocity":51,"Duration":99999,"SoundDuration":99999,"Delta":355590862},{"NoteNumber":82,"Velocity":60,"Duration":200000,"SoundDuration":200000,"Delta":355690862},{"NoteNumber":61,"Velocity":71,"Duration":200375,"SoundDuration":200375,"Delta":355890862},{"NoteNumber":87,"Velocity":70,"Duration":105633,"SoundDuration":105633,"Delta":356091237},{"NoteNumber":60,"Velocity":72,"Duration":422159,"SoundDuration":422159,"Delta":356091237},{"NoteNumber":56,"Velocity":60,"Duration":1222159,"SoundDuration":1222159,"Delta":356091237},{"NoteNumber":92,"Velocity":59,"Duration":105633,"SoundDuration":105633,"Delta":356196871},{"NoteNumber":87,"Velocity":70,"Duration":105633,"SoundDuration":105633,"Delta":356302505},{"NoteNumber":84,"Velocity":59,"Duration":79225,"SoundDuration":79225,"Delta":356408139},{"NoteNumber":84,"Velocity":70,"Duration":100000,"SoundDuration":100000,"Delta":356513397},{"NoteNumber":63,"Velocity":79,"Duration":600000,"SoundDuration":600000,"Delta":356513397},{"NoteNumber":87,"Velocity":59,"Duration":99999,"SoundDuration":99999,"Delta":356613397},{"NoteNumber":84,"Velocity":70,"Duration":100000,"SoundDuration":100000,"Delta":356713397},{"NoteNumber":80,"Velocity":59,"Duration":100000,"SoundDuration":100000,"Delta":356813397},{"NoteNumber":84,"Velocity":70,"Duration":199999,"SoundDuration":199999,"Delta":356913397},{"NoteNumber":60,"Velocity":69,"Duration":199999,"SoundDuration":199999,"Delta":357113397},{"NoteNumber":87,"Velocity":76,"Duration":109230,"SoundDuration":109230,"Delta":357313397},{"NoteNumber":58,"Velocity":78,"Duration":438900,"SoundDuration":438900,"Delta":357313397},{"NoteNumber":51,"Velocity":66,"Duration":1239402,"SoundDuration":1239402,"Delta":357313397},{"NoteNumber":91,"Velocity":64,"Duration":109890,"SoundDuration":109890,"Delta":357422628},{"NoteNumber":87,"Velocity":76,"Duration":109890,"SoundDuration":109890,"Delta":357532518},{"NoteNumber":82,"Velocity":64,"Duration":82417,"SoundDuration":82417,"Delta":357642408},{"NoteNumber":82,"Velocity":76,"Duration":100000,"SoundDuration":100000,"Delta":357752298},{"NoteNumber":63,"Velocity":86,"Duration":600000,"SoundDuration":600000,"Delta":357752298},{"NoteNumber":87,"Velocity":64,"Duration":99999,"SoundDuration":99999,"Delta":357852298},{"NoteNumber":82,"Velocity":76,"Duration":100000,"SoundDuration":100000,"Delta":357952298},{"NoteNumber":79,"Velocity":64,"Duration":99999,"SoundDuration":99999,"Delta":358052298},{"NoteNumber":82,"Velocity":76,"Duration":200000,"SoundDuration":200000,"Delta":358152298},{"NoteNumber":61,"Velocity":79,"Duration":200501,"SoundDuration":200501,"Delta":358352298},{"NoteNumber":87,"Velocity":80,"Duration":107527,"SoundDuration":107527,"Delta":358552799},{"NoteNumber":60,"Velocity":80,"Duration":429606,"SoundDuration":429606,"Delta":358552799},{"NoteNumber":56,"Velocity":67,"Duration":1229606,"SoundDuration":1229606,"Delta":358552799},{"NoteNumber":92,"Velocity":67,"Duration":107527,"SoundDuration":107527,"Delta":358660326},{"NoteNumber":87,"Velocity":80,"Duration":107527,"SoundDuration":107527,"Delta":358767853},{"NoteNumber":84,"Velocity":67,"Duration":80645,"SoundDuration":80645,"Delta":358875380},{"NoteNumber":84,"Velocity":80,"Duration":100000,"SoundDuration":100000,"Delta":358982406},{"NoteNumber":63,"Velocity":87,"Duration":600000,"SoundDuration":600000,"Delta":358982406},{"NoteNumber":87,"Velocity":67,"Duration":99999,"SoundDuration":99999,"Delta":359082406},{"NoteNumber":84,"Velocity":80,"Duration":100000,"SoundDuration":100000,"Delta":359182406},{"NoteNumber":80,"Velocity":67,"Duration":100000,"SoundDuration":100000,"Delta":359282406},{"NoteNumber":84,"Velocity":80,"Duration":199999,"SoundDuration":199999,"Delta":359382406},{"NoteNumber":60,"Velocity":78,"Duration":199999,"SoundDuration":199999,"Delta":359582406},{"NoteNumber":89,"Velocity":79,"Duration":111929,"SoundDuration":111929,"Delta":359782406},{"NoteNumber":53,"Velocity":61,"Duration":1251127,"SoundDuration":1251127,"Delta":359782406},{"NoteNumber":60,"Velocity":74,"Duration":450275,"SoundDuration":450275,"Delta":359782406},{"NoteNumber":93,"Velocity":67,"Duration":112781,"SoundDuration":112781,"Delta":359894335},{"NoteNumber":89,"Velocity":79,"Duration":112781,"SoundDuration":112781,"Delta":360007117},{"NoteNumber":84,"Velocity":67,"Duration":84586,"SoundDuration":84586,"Delta":360119899},{"NoteNumber":84,"Velocity":79,"Duration":100852,"SoundDuration":100852,"Delta":360232681},{"NoteNumber":65,"Velocity":79,"Duration":600852,"SoundDuration":600852,"Delta":360232681},{"NoteNumber":89,"Velocity":67,"Duration":100000,"SoundDuration":100000,"Delta":360333534},{"NoteNumber":84,"Velocity":79,"Duration":100000,"SoundDuration":100000,"Delta":360433534},{"NoteNumber":81,"Velocity":67,"Duration":99999,"SoundDuration":99999,"Delta":360533534},{"NoteNumber":84,"Velocity":79,"Duration":199999,"SoundDuration":199999,"Delta":360633534},{"NoteNumber":63,"Velocity":71,"Duration":200000,"SoundDuration":200000,"Delta":360833534},{"NoteNumber":89,"Velocity":80,"Duration":107142,"SoundDuration":107142,"Delta":361033534},{"NoteNumber":61,"Velocity":76,"Duration":428570,"SoundDuration":428570,"Delta":361033534},{"NoteNumber":58,"Velocity":58,"Duration":1229706,"SoundDuration":1229706,"Delta":361033534},{"NoteNumber":94,"Velocity":68,"Duration":107142,"SoundDuration":107142,"Delta":361140676},{"NoteNumber":89,"Velocity":80,"Duration":107142,"SoundDuration":107142,"Delta":361247819},{"NoteNumber":85,"Velocity":68,"Duration":80357,"SoundDuration":80357,"Delta":361354962},{"NoteNumber":85,"Velocity":80,"Duration":100476,"SoundDuration":100476,"Delta":361462105},{"NoteNumber":65,"Velocity":80,"Duration":600476,"SoundDuration":600476,"Delta":361462105},{"NoteNumber":89,"Velocity":68,"Duration":100000,"SoundDuration":100000,"Delta":361562581},{"NoteNumber":85,"Velocity":80,"Duration":100000,"SoundDuration":100000,"Delta":361662581},{"NoteNumber":82,"Velocity":68,"Duration":99999,"SoundDuration":99999,"Delta":361762581},{"NoteNumber":85,"Velocity":80,"Duration":199999,"SoundDuration":199999,"Delta":361862581},{"NoteNumber":61,"Velocity":71,"Duration":200659,"SoundDuration":200659,"Delta":362062581},{"NoteNumber":89,"Velocity":80,"Duration":109890,"SoundDuration":109890,"Delta":362263240},{"NoteNumber":60,"Velocity":76,"Duration":439560,"SoundDuration":439560,"Delta":362263240},{"NoteNumber":53,"Velocity":58,"Duration":1239560,"SoundDuration":1239560,"Delta":362263240},{"NoteNumber":93,"Velocity":68,"Duration":109890,"SoundDuration":109890,"Delta":362373130},{"NoteNumber":89,"Velocity":80,"Duration":109890,"SoundDuration":109890,"Delta":362483020},{"NoteNumber":84,"Velocity":68,"Duration":82417,"SoundDuration":82417,"Delta":362592910},{"NoteNumber":84,"Velocity":80,"Duration":100000,"SoundDuration":100000,"Delta":362702800},{"NoteNumber":65,"Velocity":80,"Duration":600000,"SoundDuration":600000,"Delta":362702800},{"NoteNumber":89,"Velocity":68,"Duration":99999,"SoundDuration":99999,"Delta":362802800},{"NoteNumber":84,"Velocity":80,"Duration":100000,"SoundDuration":100000,"Delta":362902800},{"NoteNumber":81,"Velocity":68,"Duration":99999,"SoundDuration":99999,"Delta":363002800},{"NoteNumber":84,"Velocity":80,"Duration":200000,"SoundDuration":200000,"Delta":363102800},{"NoteNumber":63,"Velocity":71,"Duration":199999,"SoundDuration":199999,"Delta":363302800},{"NoteNumber":89,"Velocity":80,"Duration":106006,"SoundDuration":106006,"Delta":363502800},{"NoteNumber":61,"Velocity":76,"Duration":424028,"SoundDuration":424028,"Delta":363502800},{"NoteNumber":58,"Velocity":58,"Duration":1224028,"SoundDuration":1224028,"Delta":363502800},{"NoteNumber":94,"Velocity":68,"Duration":106007,"SoundDuration":106007,"Delta":363608807},{"NoteNumber":89,"Velocity":80,"Duration":106006,"SoundDuration":106006,"Delta":363714814},{"NoteNumber":85,"Velocity":68,"Duration":79505,"SoundDuration":79505,"Delta":363820821},{"NoteNumber":85,"Velocity":80,"Duration":100000,"SoundDuration":100000,"Delta":363926828},{"NoteNumber":65,"Velocity":79,"Duration":600000,"SoundDuration":600000,"Delta":363926828},{"NoteNumber":89,"Velocity":68,"Duration":99999,"SoundDuration":99999,"Delta":364026828},{"NoteNumber":85,"Velocity":80,"Duration":100000,"SoundDuration":100000,"Delta":364126828},{"NoteNumber":82,"Velocity":68,"Duration":99999,"SoundDuration":99999,"Delta":364226828},{"NoteNumber":85,"Velocity":80,"Duration":200000,"SoundDuration":200000,"Delta":364326828},{"NoteNumber":61,"Velocity":71,"Duration":199999,"SoundDuration":199999,"Delta":364526828},{"NoteNumber":92,"Velocity":80,"Duration":120000,"SoundDuration":120000,"Delta":364726828},{"NoteNumber":63,"Velocity":76,"Duration":480000,"SoundDuration":480000,"Delta":364726828},{"NoteNumber":56,"Velocity":58,"Duration":1280600,"SoundDuration":1280600,"Delta":364726828},{"NoteNumber":96,"Velocity":68,"Duration":120000,"SoundDuration":120000,"Delta":364846828},{"NoteNumber":92,"Velocity":80,"Duration":120000,"SoundDuration":120000,"Delta":364966828},{"NoteNumber":87,"Velocity":68,"Duration":89999,"SoundDuration":89999,"Delta":365086828},{"NoteNumber":87,"Velocity":80,"Duration":100000,"SoundDuration":100000,"Delta":365206828},{"NoteNumber":68,"Velocity":80,"Duration":600000,"SoundDuration":600000,"Delta":365206828},{"NoteNumber":92,"Velocity":68,"Duration":99999,"SoundDuration":99999,"Delta":365306828},{"NoteNumber":87,"Velocity":80,"Duration":100000,"SoundDuration":100000,"Delta":365406828},{"NoteNumber":84,"Velocity":68,"Duration":99999,"SoundDuration":99999,"Delta":365506828},{"NoteNumber":87,"Velocity":80,"Duration":200000,"SoundDuration":200000,"Delta":365606828},{"NoteNumber":66,"Velocity":73,"Duration":200600,"SoundDuration":200600,"Delta":365806828},{"NoteNumber":92,"Velocity":80,"Duration":106006,"SoundDuration":106006,"Delta":366007429},{"NoteNumber":61,"Velocity":65,"Duration":1224428,"SoundDuration":1224428,"Delta":366007429},{"NoteNumber":65,"Velocity":78,"Duration":424028,"SoundDuration":424028,"Delta":366007429},{"NoteNumber":97,"Velocity":68,"Duration":106007,"SoundDuration":106007,"Delta":366113436},{"NoteNumber":92,"Velocity":80,"Duration":106006,"SoundDuration":106006,"Delta":366219443},{"NoteNumber":89,"Velocity":68,"Duration":79505,"SoundDuration":79505,"Delta":366325450},{"NoteNumber":89,"Velocity":81,"Duration":100400,"SoundDuration":100400,"Delta":366431457},{"NoteNumber":68,"Velocity":81,"Duration":600400,"SoundDuration":600400,"Delta":366431457},{"NoteNumber":92,"Velocity":69,"Duration":100000,"SoundDuration":100000,"Delta":366531857},{"NoteNumber":89,"Velocity":82,"Duration":100000,"SoundDuration":100000,"Delta":366631857},{"NoteNumber":85,"Velocity":69,"Duration":99999,"SoundDuration":99999,"Delta":366731857},{"NoteNumber":89,"Velocity":83,"Duration":199999,"SoundDuration":199999,"Delta":366831857},{"NoteNumber":65,"Velocity":72,"Duration":200000,"SoundDuration":200000,"Delta":367031857},{"NoteNumber":92,"Velocity":84,"Duration":107527,"SoundDuration":107527,"Delta":367231857},{"NoteNumber":63,"Velocity":76,"Duration":430108,"SoundDuration":430108,"Delta":367231857},{"NoteNumber":56,"Velocity":64,"Duration":1256212,"SoundDuration":1256212,"Delta":367231857},{"NoteNumber":96,"Velocity":71,"Duration":107527,"SoundDuration":107527,"Delta":367339384},{"NoteNumber":92,"Velocity":85,"Duration":107527,"SoundDuration":107527,"Delta":367446911},{"NoteNumber":87,"Velocity":72,"Duration":80645,"SoundDuration":80645,"Delta":367554438},{"NoteNumber":87,"Velocity":86,"Duration":100501,"SoundDuration":100501,"Delta":367661965},{"NoteNumber":68,"Velocity":82,"Duration":614311,"SoundDuration":614311,"Delta":367661965},{"NoteNumber":92,"Velocity":73,"Duration":100000,"SoundDuration":100000,"Delta":367762467},{"NoteNumber":87,"Velocity":87,"Duration":100000,"SoundDuration":100000,"Delta":367862467},{"NoteNumber":84,"Velocity":73,"Duration":99999,"SoundDuration":99999,"Delta":367962467},{"NoteNumber":87,"Velocity":87,"Duration":213809,"SoundDuration":213809,"Delta":368062467},{"NoteNumber":66,"Velocity":71,"Duration":211793,"SoundDuration":211793,"Delta":368276276},{"NoteNumber":92,"Velocity":88,"Duration":96462,"SoundDuration":96462,"Delta":368488070},{"NoteNumber":65,"Velocity":80,"Duration":386443,"SoundDuration":386443,"Delta":368488070},{"NoteNumber":61,"Velocity":67,"Duration":386443,"SoundDuration":386443,"Delta":368488070},{"NoteNumber":97,"Velocity":74,"Duration":96463,"SoundDuration":96463,"Delta":368584533},{"NoteNumber":92,"Velocity":88,"Duration":96743,"SoundDuration":96743,"Delta":368680996},{"NoteNumber":89,"Velocity":74,"Duration":72580,"SoundDuration":72580,"Delta":368777739},{"NoteNumber":89,"Velocity":88,"Duration":96951,"SoundDuration":96951,"Delta":368874513},{"NoteNumber":92,"Velocity":74,"Duration":97087,"SoundDuration":97087,"Delta":368971465},{"NoteNumber":89,"Velocity":88,"Duration":97161,"SoundDuration":97161,"Delta":369068553},{"NoteNumber":85,"Velocity":74,"Duration":73051,"SoundDuration":73051,"Delta":369165714},{"NoteNumber":85,"Velocity":88,"Duration":97402,"SoundDuration":97402,"Delta":369263116},{"NoteNumber":89,"Velocity":74,"Duration":97688,"SoundDuration":97688,"Delta":369360519},{"NoteNumber":85,"Velocity":88,"Duration":97719,"SoundDuration":97719,"Delta":369458207},{"NoteNumber":80,"Velocity":74,"Duration":73390,"SoundDuration":73390,"Delta":369555926},{"NoteNumber":80,"Velocity":88,"Duration":98039,"SoundDuration":98039,"Delta":369653827},{"NoteNumber":85,"Velocity":74,"Duration":98114,"SoundDuration":98114,"Delta":369751866},{"NoteNumber":80,"Velocity":88,"Duration":98360,"SoundDuration":98360,"Delta":369849981},{"NoteNumber":77,"Velocity":74,"Duration":73770,"SoundDuration":73770,"Delta":369948341},{"NoteNumber":77,"Velocity":88,"Duration":98651,"SoundDuration":98651,"Delta":370046702},{"NoteNumber":80,"Velocity":74,"Duration":98684,"SoundDuration":98684,"Delta":370145354},{"NoteNumber":77,"Velocity":88,"Duration":98868,"SoundDuration":98868,"Delta":370244038},{"NoteNumber":73,"Velocity":74,"Duration":74257,"SoundDuration":74257,"Delta":370342907},{"NoteNumber":73,"Velocity":88,"Duration":99086,"SoundDuration":99086,"Delta":370441917},{"NoteNumber":77,"Velocity":74,"Duration":99337,"SoundDuration":99337,"Delta":370541004},{"NoteNumber":73,"Velocity":88,"Duration":99337,"SoundDuration":99337,"Delta":370640341},{"NoteNumber":68,"Velocity":74,"Duration":74717,"SoundDuration":74717,"Delta":370739679},{"NoteNumber":80,"Velocity":88,"Duration":96774,"SoundDuration":96774,"Delta":370838639},{"NoteNumber":68,"Velocity":88,"Duration":193548,"SoundDuration":193548,"Delta":370838639},{"NoteNumber":85,"Velocity":74,"Duration":96774,"SoundDuration":96774,"Delta":370935413},{"NoteNumber":80,"Velocity":88,"Duration":96847,"SoundDuration":96847,"Delta":371032187},{"NoteNumber":77,"Velocity":74,"Duration":72815,"SoundDuration":72815,"Delta":371129035},{"NoteNumber":77,"Velocity":88,"Duration":97087,"SoundDuration":97087,"Delta":371226122},{"NoteNumber":65,"Velocity":84,"Duration":194353,"SoundDuration":194353,"Delta":371226122},{"NoteNumber":80,"Velocity":74,"Duration":97265,"SoundDuration":97265,"Delta":371323210},{"NoteNumber":77,"Velocity":88,"Duration":97402,"SoundDuration":97402,"Delta":371420476},{"NoteNumber":73,"Velocity":74,"Duration":73051,"SoundDuration":73051,"Delta":371517878},{"NoteNumber":73,"Velocity":88,"Duration":97688,"SoundDuration":97688,"Delta":371615281},{"NoteNumber":61,"Velocity":84,"Duration":195407,"SoundDuration":195407,"Delta":371615281},{"NoteNumber":77,"Velocity":74,"Duration":97719,"SoundDuration":97719,"Delta":371712969},{"NoteNumber":73,"Velocity":88,"Duration":97794,"SoundDuration":97794,"Delta":371810688},{"NoteNumber":68,"Velocity":74,"Duration":73529,"SoundDuration":73529,"Delta":371908483},{"NoteNumber":68,"Velocity":88,"Duration":98039,"SoundDuration":98039,"Delta":372006522},{"NoteNumber":56,"Velocity":88,"Duration":196260,"SoundDuration":196260,"Delta":372006522},{"NoteNumber":73,"Velocity":74,"Duration":98221,"SoundDuration":98221,"Delta":372104561},{"NoteNumber":68,"Velocity":88,"Duration":98360,"SoundDuration":98360,"Delta":372202783},{"NoteNumber":65,"Velocity":74,"Duration":73770,"SoundDuration":73770,"Delta":372301143},{"NoteNumber":65,"Velocity":88,"Duration":98651,"SoundDuration":98651,"Delta":372399504},{"NoteNumber":53,"Velocity":84,"Duration":197336,"SoundDuration":197336,"Delta":372399504},{"NoteNumber":68,"Velocity":74,"Duration":98684,"SoundDuration":98684,"Delta":372498156},{"NoteNumber":65,"Velocity":88,"Duration":98760,"SoundDuration":98760,"Delta":372596840},{"NoteNumber":61,"Velocity":74,"Duration":74257,"SoundDuration":74257,"Delta":372695600},{"NoteNumber":61,"Velocity":88,"Duration":99009,"SoundDuration":99009,"Delta":372794610},{"NoteNumber":49,"Velocity":84,"Duration":198205,"SoundDuration":198205,"Delta":372794610},{"NoteNumber":65,"Velocity":74,"Duration":99195,"SoundDuration":99195,"Delta":372893620},{"NoteNumber":61,"Velocity":88,"Duration":99337,"SoundDuration":99337,"Delta":372992816},{"NoteNumber":56,"Velocity":74,"Duration":99337,"SoundDuration":99337,"Delta":373092154},{"NoteNumber":61,"Velocity":90,"Duration":99634,"SoundDuration":99634,"Delta":373191492},{"NoteNumber":52,"Velocity":70,"Duration":789003,"SoundDuration":789003,"Delta":373191492},{"NoteNumber":49,"Velocity":59,"Duration":789833,"SoundDuration":789833,"Delta":373191492},{"NoteNumber":46,"Velocity":59,"Duration":789833,"SoundDuration":789833,"Delta":373191492},{"NoteNumber":43,"Velocity":59,"Duration":789833,"SoundDuration":789833,"Delta":373191492},{"NoteNumber":64,"Velocity":69,"Duration":99667,"SoundDuration":99667,"Delta":373291126},{"NoteNumber":61,"Velocity":82,"Duration":99667,"SoundDuration":99667,"Delta":373390794},{"NoteNumber":58,"Velocity":69,"Duration":74750,"SoundDuration":74750,"Delta":373490462},{"NoteNumber":58,"Velocity":82,"Duration":99667,"SoundDuration":99667,"Delta":373590130},{"NoteNumber":61,"Velocity":69,"Duration":99667,"SoundDuration":99667,"Delta":373689797},{"NoteNumber":58,"Velocity":82,"Duration":99667,"SoundDuration":99667,"Delta":373789465},{"NoteNumber":55,"Velocity":69,"Duration":99667,"SoundDuration":99667,"Delta":373889133},{"NoteNumber":61,"Velocity":91,"Duration":99667,"SoundDuration":99667,"Delta":373988801},{"NoteNumber":52,"Velocity":70,"Duration":789866,"SoundDuration":789866,"Delta":373988801},{"NoteNumber":49,"Velocity":59,"Duration":789866,"SoundDuration":789866,"Delta":373988801},{"NoteNumber":46,"Velocity":59,"Duration":789866,"SoundDuration":789866,"Delta":373988801},{"NoteNumber":43,"Velocity":59,"Duration":789866,"SoundDuration":789866,"Delta":373988801},{"NoteNumber":64,"Velocity":69,"Duration":99667,"SoundDuration":99667,"Delta":374088468},{"NoteNumber":61,"Velocity":82,"Duration":99667,"SoundDuration":99667,"Delta":374188136},{"NoteNumber":58,"Velocity":69,"Duration":74750,"SoundDuration":74750,"Delta":374287804},{"NoteNumber":58,"Velocity":82,"Duration":99667,"SoundDuration":99667,"Delta":374387472},{"NoteNumber":61,"Velocity":69,"Duration":99667,"SoundDuration":99667,"Delta":374487139},{"NoteNumber":58,"Velocity":82,"Duration":99667,"SoundDuration":99667,"Delta":374586807},{"NoteNumber":55,"Velocity":69,"Duration":99667,"SoundDuration":99667,"Delta":374686475},{"NoteNumber":61,"Velocity":90,"Duration":99667,"SoundDuration":99667,"Delta":374786143},{"NoteNumber":52,"Velocity":70,"Duration":789866,"SoundDuration":789866,"Delta":374786143},{"NoteNumber":49,"Velocity":59,"Duration":789866,"SoundDuration":789866,"Delta":374786143},{"NoteNumber":46,"Velocity":59,"Duration":789866,"SoundDuration":789866,"Delta":374786143},{"NoteNumber":43,"Velocity":59,"Duration":789866,"SoundDuration":789866,"Delta":374786143},{"NoteNumber":64,"Velocity":69,"Duration":99667,"SoundDuration":99667,"Delta":374885810},{"NoteNumber":61,"Velocity":82,"Duration":99667,"SoundDuration":99667,"Delta":374985478},{"NoteNumber":58,"Velocity":69,"Duration":99667,"SoundDuration":99667,"Delta":375085146},{"NoteNumber":58,"Velocity":82,"Duration":99667,"SoundDuration":99667,"Delta":375184814},{"NoteNumber":61,"Velocity":69,"Duration":99667,"SoundDuration":99667,"Delta":375284481},{"NoteNumber":58,"Velocity":82,"Duration":99667,"SoundDuration":99667,"Delta":375384149},{"NoteNumber":55,"Velocity":69,"Duration":99667,"SoundDuration":99667,"Delta":375483817},{"NoteNumber":61,"Velocity":81,"Duration":99667,"SoundDuration":99667,"Delta":375583485},{"NoteNumber":51,"Velocity":65,"Duration":795206,"SoundDuration":795206,"Delta":375583485},{"NoteNumber":49,"Velocity":55,"Duration":795206,"SoundDuration":795206,"Delta":375583485},{"NoteNumber":46,"Velocity":55,"Duration":795206,"SoundDuration":795206,"Delta":375583485},{"NoteNumber":43,"Velocity":55,"Duration":795206,"SoundDuration":795206,"Delta":375583485},{"NoteNumber":63,"Velocity":68,"Duration":99856,"SoundDuration":99856,"Delta":375683152},{"NoteNumber":61,"Velocity":81,"Duration":100000,"SoundDuration":100000,"Delta":375783008},{"NoteNumber":58,"Velocity":67,"Duration":75217,"SoundDuration":75217,"Delta":375883008},{"NoteNumber":58,"Velocity":80,"Duration":100413,"SoundDuration":100413,"Delta":375983309},{"NoteNumber":61,"Velocity":66,"Duration":100671,"SoundDuration":100671,"Delta":376083723},{"NoteNumber":58,"Velocity":79,"Duration":100863,"SoundDuration":100863,"Delta":376184394},{"NoteNumber":55,"Velocity":66,"Duration":101010,"SoundDuration":101010,"Delta":376285257},{"NoteNumber":61,"Velocity":84,"Duration":101317,"SoundDuration":101317,"Delta":376386267},{"NoteNumber":51,"Velocity":51,"Duration":808234,"SoundDuration":808234,"Delta":376386267},{"NoteNumber":49,"Velocity":43,"Duration":808234,"SoundDuration":808234,"Delta":376386267},{"NoteNumber":46,"Velocity":43,"Duration":808234,"SoundDuration":808234,"Delta":376386267},{"NoteNumber":43,"Velocity":43,"Duration":808234,"SoundDuration":808234,"Delta":376386267},{"NoteNumber":63,"Velocity":65,"Duration":101431,"SoundDuration":101431,"Delta":376487584},{"NoteNumber":61,"Velocity":76,"Duration":101695,"SoundDuration":101695,"Delta":376589016},{"NoteNumber":58,"Velocity":62,"Duration":76380,"SoundDuration":76380,"Delta":376690711},{"NoteNumber":58,"Velocity":76,"Duration":102040,"SoundDuration":102040,"Delta":376792602},{"NoteNumber":61,"Velocity":63,"Duration":102354,"SoundDuration":102354,"Delta":376894642},{"NoteNumber":58,"Velocity":73,"Duration":102470,"SoundDuration":102470,"Delta":376996996},{"NoteNumber":55,"Velocity":59,"Duration":102739,"SoundDuration":102739,"Delta":377099467},{"NoteNumber":61,"Velocity":76,"Duration":102939,"SoundDuration":102939,"Delta":377202207},{"NoteNumber":51,"Velocity":45,"Duration":905134,"SoundDuration":905134,"Delta":377202207},{"NoteNumber":49,"Velocity":38,"Duration":905134,"SoundDuration":905134,"Delta":377202207},{"NoteNumber":46,"Velocity":38,"Duration":905134,"SoundDuration":905134,"Delta":377202207},{"NoteNumber":43,"Velocity":38,"Duration":905134,"SoundDuration":905134,"Delta":377202207},{"NoteNumber":63,"Velocity":57,"Duration":103092,"SoundDuration":103092,"Delta":377305147},{"NoteNumber":61,"Velocity":66,"Duration":103412,"SoundDuration":103412,"Delta":377408240},{"NoteNumber":58,"Velocity":55,"Duration":77699,"SoundDuration":77699,"Delta":377511652},{"NoteNumber":58,"Velocity":63,"Duration":125000,"SoundDuration":125000,"Delta":377616716},{"NoteNumber":61,"Velocity":52,"Duration":125000,"SoundDuration":125000,"Delta":377741716},{"NoteNumber":58,"Velocity":60,"Duration":125000,"SoundDuration":125000,"Delta":377866716},{"NoteNumber":55,"Velocity":49,"Duration":125000,"SoundDuration":125000,"Delta":377991716},{"NoteNumber":63,"Velocity":50,"Duration":550562,"SoundDuration":550562,"Delta":378116716},{"NoteNumber":44,"Velocity":40,"Duration":980359,"SoundDuration":980359,"Delta":378116716},{"NoteNumber":60,"Velocity":40,"Duration":183061,"SoundDuration":183061,"Delta":378311957},{"NoteNumber":56,"Velocity":40,"Duration":172260,"SoundDuration":172260,"Delta":378495018},{"NoteNumber":68,"Velocity":50,"Duration":429796,"SoundDuration":429796,"Delta":378667279},{"NoteNumber":63,"Velocity":40,"Duration":142856,"SoundDuration":142856,"Delta":378811361},{"NoteNumber":60,"Velocity":40,"Duration":142856,"SoundDuration":142856,"Delta":378954218},{"NoteNumber":67,"Velocity":50,"Duration":428570,"SoundDuration":428570,"Delta":379097075},{"NoteNumber":48,"Velocity":40,"Duration":428570,"SoundDuration":428570,"Delta":379097075},{"NoteNumber":63,"Velocity":40,"Duration":142856,"SoundDuration":142856,"Delta":379239932},{"NoteNumber":60,"Velocity":40,"Duration":142856,"SoundDuration":142856,"Delta":379382789},{"NoteNumber":65,"Velocity":50,"Duration":472783,"SoundDuration":472783,"Delta":379525646},{"NoteNumber":49,"Velocity":40,"Duration":472783,"SoundDuration":472783,"Delta":379525646},{"NoteNumber":61,"Velocity":40,"Duration":158102,"SoundDuration":158102,"Delta":379682987},{"NoteNumber":56,"Velocity":40,"Duration":157340,"SoundDuration":157340,"Delta":379841090},{"NoteNumber":73,"Velocity":50,"Duration":429302,"SoundDuration":429302,"Delta":379998430},{"NoteNumber":46,"Velocity":40,"Duration":429302,"SoundDuration":429302,"Delta":379998430},{"NoteNumber":65,"Velocity":40,"Duration":142857,"SoundDuration":142857,"Delta":380141287},{"NoteNumber":61,"Velocity":40,"Duration":143588,"SoundDuration":143588,"Delta":380284144},{"NoteNumber":70,"Velocity":50,"Duration":472441,"SoundDuration":472441,"Delta":380427732},{"NoteNumber":49,"Velocity":40,"Duration":472441,"SoundDuration":472441,"Delta":380427732},{"NoteNumber":65,"Velocity":40,"Duration":157480,"SoundDuration":157480,"Delta":380585212},{"NoteNumber":61,"Velocity":40,"Duration":157480,"SoundDuration":157480,"Delta":380742693},{"NoteNumber":70,"Velocity":50,"Duration":430813,"SoundDuration":430813,"Delta":380900173},{"NoteNumber":51,"Velocity":40,"Duration":1290550,"SoundDuration":1290550,"Delta":380900173},{"NoteNumber":63,"Velocity":40,"Duration":143369,"SoundDuration":143369,"Delta":381044248},{"NoteNumber":61,"Velocity":40,"Duration":143369,"SoundDuration":143369,"Delta":381187617},{"NoteNumber":68,"Velocity":50,"Duration":430108,"SoundDuration":430108,"Delta":381330987},{"NoteNumber":63,"Velocity":40,"Duration":143369,"SoundDuration":143369,"Delta":381474356},{"NoteNumber":60,"Velocity":40,"Duration":143369,"SoundDuration":143369,"Delta":381617725},{"NoteNumber":68,"Velocity":50,"Duration":429628,"SoundDuration":429628,"Delta":381761095},{"NoteNumber":63,"Velocity":40,"Duration":143369,"SoundDuration":143369,"Delta":381904464},{"NoteNumber":60,"Velocity":40,"Duration":142889,"SoundDuration":142889,"Delta":382047833},{"NoteNumber":68,"Velocity":50,"Duration":414522,"SoundDuration":414522,"Delta":382190723},{"NoteNumber":39,"Velocity":40,"Duration":1380818,"SoundDuration":1380818,"Delta":382190723},{"NoteNumber":63,"Velocity":40,"Duration":138175,"SoundDuration":138175,"Delta":382325796},{"NoteNumber":60,"Velocity":40,"Duration":141274,"SoundDuration":141274,"Delta":382463971},{"NoteNumber":67,"Velocity":50,"Duration":444557,"SoundDuration":444557,"Delta":382605246},{"NoteNumber":63,"Velocity":40,"Duration":148073,"SoundDuration":148073,"Delta":382749918},{"NoteNumber":58,"Velocity":40,"Duration":151811,"SoundDuration":151811,"Delta":382897992},{"NoteNumber":67,"Velocity":50,"Duration":521739,"SoundDuration":521739,"Delta":383049803},{"NoteNumber":63,"Velocity":40,"Duration":173912,"SoundDuration":173912,"Delta":383223716},{"NoteNumber":58,"Velocity":40,"Duration":173913,"SoundDuration":173913,"Delta":383397629},{"NoteNumber":63,"Velocity":50,"Duration":428596,"SoundDuration":428596,"Delta":383571542},{"NoteNumber":44,"Velocity":40,"Duration":857167,"SoundDuration":857167,"Delta":383571542},{"NoteNumber":60,"Velocity":40,"Duration":142856,"SoundDuration":142856,"Delta":383714424},{"NoteNumber":56,"Velocity":40,"Duration":142856,"SoundDuration":142856,"Delta":383857281},{"NoteNumber":68,"Velocity":50,"Duration":428570,"SoundDuration":428570,"Delta":384000138},{"NoteNumber":63,"Velocity":40,"Duration":142856,"SoundDuration":142856,"Delta":384142995},{"NoteNumber":60,"Velocity":40,"Duration":142856,"SoundDuration":142856,"Delta":384285852},{"NoteNumber":67,"Velocity":50,"Duration":428571,"SoundDuration":428571,"Delta":384428709},{"NoteNumber":48,"Velocity":40,"Duration":428571,"SoundDuration":428571,"Delta":384428709},{"NoteNumber":63,"Velocity":40,"Duration":142856,"SoundDuration":142856,"Delta":384571566},{"NoteNumber":60,"Velocity":40,"Duration":142856,"SoundDuration":142856,"Delta":384714423},{"NoteNumber":65,"Velocity":50,"Duration":500866,"SoundDuration":500866,"Delta":384857280},{"NoteNumber":49,"Velocity":40,"Duration":500866,"SoundDuration":500866,"Delta":384857280},{"NoteNumber":61,"Velocity":40,"Duration":167363,"SoundDuration":167363,"Delta":385023419},{"NoteNumber":56,"Velocity":40,"Duration":167364,"SoundDuration":167364,"Delta":385190783},{"NoteNumber":77,"Velocity":50,"Duration":428570,"SoundDuration":428570,"Delta":385358147},{"NoteNumber":46,"Velocity":40,"Duration":428570,"SoundDuration":428570,"Delta":385358147},{"NoteNumber":68,"Velocity":40,"Duration":142856,"SoundDuration":142856,"Delta":385501004},{"NoteNumber":65,"Velocity":40,"Duration":142856,"SoundDuration":142856,"Delta":385643861},{"NoteNumber":73,"Velocity":50,"Duration":428571,"SoundDuration":428571,"Delta":385786718},{"NoteNumber":58,"Velocity":40,"Duration":861414,"SoundDuration":861414,"Delta":385786718},{"NoteNumber":49,"Velocity":40,"Duration":428571,"SoundDuration":428571,"Delta":385786718},{"NoteNumber":65,"Velocity":40,"Duration":142856,"SoundDuration":142856,"Delta":385929575},{"NoteNumber":61,"Velocity":40,"Duration":142856,"SoundDuration":142856,"Delta":386072432},{"NoteNumber":73,"Velocity":50,"Duration":432843,"SoundDuration":432843,"Delta":386215289},{"NoteNumber":51,"Velocity":40,"Duration":1337230,"SoundDuration":1337230,"Delta":386215289},{"NoteNumber":68,"Velocity":40,"Duration":144275,"SoundDuration":144275,"Delta":386358428},{"NoteNumber":63,"Velocity":40,"Duration":145429,"SoundDuration":145429,"Delta":386502703},{"NoteNumber":72,"Velocity":50,"Duration":443398,"SoundDuration":443398,"Delta":386648132},{"NoteNumber":56,"Velocity":40,"Duration":443398,"SoundDuration":443398,"Delta":386648132},{"NoteNumber":68,"Velocity":40,"Duration":147793,"SoundDuration":147793,"Delta":386794734},{"NoteNumber":63,"Velocity":40,"Duration":149004,"SoundDuration":149004,"Delta":386942527},{"NoteNumber":72,"Velocity":50,"Duration":460988,"SoundDuration":460988,"Delta":387091531},{"NoteNumber":56,"Velocity":40,"Duration":900301,"SoundDuration":900301,"Delta":387091531},{"NoteNumber":68,"Velocity":40,"Duration":153845,"SoundDuration":153845,"Delta":387245377},{"NoteNumber":63,"Velocity":40,"Duration":153296,"SoundDuration":153296,"Delta":387399223},{"NoteNumber":72,"Velocity":50,"Duration":439313,"SoundDuration":439313,"Delta":387552520},{"NoteNumber":51,"Velocity":40,"Duration":1477962,"SoundDuration":1477962,"Delta":387552520},{"NoteNumber":63,"Velocity":40,"Duration":146416,"SoundDuration":146416,"Delta":387696408},{"NoteNumber":61,"Velocity":40,"Duration":149007,"SoundDuration":149007,"Delta":387842825},{"NoteNumber":70,"Velocity":50,"Duration":463557,"SoundDuration":463557,"Delta":387991833},{"NoteNumber":55,"Velocity":40,"Duration":463557,"SoundDuration":463557,"Delta":387991833},{"NoteNumber":63,"Velocity":40,"Duration":154474,"SoundDuration":154474,"Delta":388143525},{"NoteNumber":61,"Velocity":40,"Duration":157391,"SoundDuration":157391,"Delta":388297999},{"NoteNumber":70,"Velocity":50,"Duration":575091,"SoundDuration":575091,"Delta":388455390},{"NoteNumber":55,"Velocity":40,"Duration":575091,"SoundDuration":575091,"Delta":388455390},{"NoteNumber":63,"Velocity":40,"Duration":192478,"SoundDuration":192478,"Delta":388615780},{"NoteNumber":61,"Velocity":40,"Duration":222222,"SoundDuration":222222,"Delta":388808259},{"NoteNumber":72,"Velocity":48,"Duration":100000,"SoundDuration":100000,"Delta":389030482},{"NoteNumber":44,"Velocity":48,"Duration":300000,"SoundDuration":300000,"Delta":389030482},{"NoteNumber":75,"Velocity":40,"Duration":99999,"SoundDuration":99999,"Delta":389130482},{"NoteNumber":72,"Velocity":48,"Duration":100000,"SoundDuration":100000,"Delta":389230482},{"NoteNumber":68,"Velocity":40,"Duration":74999,"SoundDuration":74999,"Delta":389330482},{"NoteNumber":68,"Velocity":48,"Duration":100000,"SoundDuration":100000,"Delta":389430482},{"NoteNumber":54,"Velocity":36,"Duration":828571,"SoundDuration":828571,"Delta":389430482},{"NoteNumber":60,"Velocity":39,"Duration":828571,"SoundDuration":828571,"Delta":389430482},{"NoteNumber":56,"Velocity":36,"Duration":828571,"SoundDuration":828571,"Delta":389430482},{"NoteNumber":72,"Velocity":40,"Duration":100000,"SoundDuration":100000,"Delta":389530482},{"NoteNumber":68,"Velocity":48,"Duration":99999,"SoundDuration":99999,"Delta":389630482},{"NoteNumber":63,"Velocity":40,"Duration":100000,"SoundDuration":100000,"Delta":389730482},{"NoteNumber":68,"Velocity":48,"Duration":214285,"SoundDuration":214285,"Delta":389830482},{"NoteNumber":73,"Velocity":48,"Duration":100000,"SoundDuration":100000,"Delta":390259053},{"NoteNumber":49,"Velocity":48,"Duration":300000,"SoundDuration":300000,"Delta":390259053},{"NoteNumber":77,"Velocity":40,"Duration":99999,"SoundDuration":99999,"Delta":390359053},{"NoteNumber":73,"Velocity":48,"Duration":100000,"SoundDuration":100000,"Delta":390459053},{"NoteNumber":68,"Velocity":40,"Duration":74999,"SoundDuration":74999,"Delta":390559053},{"NoteNumber":68,"Velocity":48,"Duration":100000,"SoundDuration":100000,"Delta":390659053},{"NoteNumber":61,"Velocity":35,"Duration":828094,"SoundDuration":828094,"Delta":390659053},{"NoteNumber":56,"Velocity":32,"Duration":828094,"SoundDuration":828094,"Delta":390659053},{"NoteNumber":53,"Velocity":32,"Duration":828094,"SoundDuration":828094,"Delta":390659053},{"NoteNumber":73,"Velocity":40,"Duration":100000,"SoundDuration":100000,"Delta":390759053},{"NoteNumber":68,"Velocity":48,"Duration":99999,"SoundDuration":99999,"Delta":390859053},{"NoteNumber":65,"Velocity":40,"Duration":100000,"SoundDuration":100000,"Delta":390959053},{"NoteNumber":68,"Velocity":48,"Duration":214285,"SoundDuration":214285,"Delta":391059053},{"NoteNumber":75,"Velocity":48,"Duration":100000,"SoundDuration":100000,"Delta":391487147},{"NoteNumber":39,"Velocity":48,"Duration":300000,"SoundDuration":300000,"Delta":391487147},{"NoteNumber":79,"Velocity":40,"Duration":99999,"SoundDuration":99999,"Delta":391587147},{"NoteNumber":75,"Velocity":48,"Duration":100000,"SoundDuration":100000,"Delta":391687147},{"NoteNumber":70,"Velocity":40,"Duration":74999,"SoundDuration":74999,"Delta":391787147},{"NoteNumber":70,"Velocity":48,"Duration":99999,"SoundDuration":99999,"Delta":391887147},{"NoteNumber":51,"Velocity":34,"Duration":829606,"SoundDuration":829606,"Delta":391887147},{"NoteNumber":61,"Velocity":37,"Duration":829606,"SoundDuration":829606,"Delta":391887147},{"NoteNumber":58,"Velocity":34,"Duration":829606,"SoundDuration":829606,"Delta":391887147},{"NoteNumber":75,"Velocity":40,"Duration":100000,"SoundDuration":100000,"Delta":391987147},{"NoteNumber":70,"Velocity":48,"Duration":99999,"SoundDuration":99999,"Delta":392087147},{"NoteNumber":67,"Velocity":40,"Duration":100000,"SoundDuration":100000,"Delta":392187147},{"NoteNumber":70,"Velocity":48,"Duration":214552,"SoundDuration":214552,"Delta":392287147},{"NoteNumber":75,"Velocity":48,"Duration":100334,"SoundDuration":100334,"Delta":392716754},{"NoteNumber":44,"Velocity":48,"Duration":301003,"SoundDuration":301003,"Delta":392716754},{"NoteNumber":80,"Velocity":40,"Duration":100334,"SoundDuration":100334,"Delta":392817088},{"NoteNumber":75,"Velocity":48,"Duration":100334,"SoundDuration":100334,"Delta":392917423},{"NoteNumber":72,"Velocity":40,"Duration":75250,"SoundDuration":75250,"Delta":393017757},{"NoteNumber":72,"Velocity":48,"Duration":100334,"SoundDuration":100334,"Delta":393118092},{"NoteNumber":60,"Velocity":39,"Duration":862876,"SoundDuration":862876,"Delta":393118092},{"NoteNumber":56,"Velocity":36,"Duration":862876,"SoundDuration":862876,"Delta":393118092},{"NoteNumber":51,"Velocity":36,"Duration":862876,"SoundDuration":862876,"Delta":393118092},{"NoteNumber":75,"Velocity":40,"Duration":100334,"SoundDuration":100334,"Delta":393218426},{"NoteNumber":72,"Velocity":48,"Duration":100334,"SoundDuration":100334,"Delta":393318761},{"NoteNumber":68,"Velocity":40,"Duration":100334,"SoundDuration":100334,"Delta":393419095},{"NoteNumber":72,"Velocity":48,"Duration":230769,"SoundDuration":230769,"Delta":393519430},{"NoteNumber":84,"Velocity":60,"Duration":101337,"SoundDuration":101337,"Delta":393980968},{"NoteNumber":44,"Velocity":60,"Duration":302006,"SoundDuration":302006,"Delta":393980968},{"NoteNumber":87,"Velocity":51,"Duration":100334,"SoundDuration":100334,"Delta":394082305},{"NoteNumber":84,"Velocity":60,"Duration":100334,"SoundDuration":100334,"Delta":394182640},{"NoteNumber":80,"Velocity":51,"Duration":75250,"SoundDuration":75250,"Delta":394282974},{"NoteNumber":80,"Velocity":60,"Duration":100334,"SoundDuration":100334,"Delta":394383309},{"NoteNumber":54,"Velocity":45,"Duration":829908,"SoundDuration":829908,"Delta":394383309},{"NoteNumber":60,"Velocity":49,"Duration":829908,"SoundDuration":829908,"Delta":394383309},{"NoteNumber":56,"Velocity":45,"Duration":829908,"SoundDuration":829908,"Delta":394383309},{"NoteNumber":84,"Velocity":51,"Duration":100334,"SoundDuration":100334,"Delta":394483643},{"NoteNumber":80,"Velocity":60,"Duration":100334,"SoundDuration":100334,"Delta":394583978},{"NoteNumber":75,"Velocity":51,"Duration":100334,"SoundDuration":100334,"Delta":394684312},{"NoteNumber":80,"Velocity":60,"Duration":214285,"SoundDuration":214285,"Delta":394784647},{"NoteNumber":85,"Velocity":72,"Duration":100671,"SoundDuration":100671,"Delta":395213218},{"NoteNumber":49,"Velocity":72,"Duration":302013,"SoundDuration":302013,"Delta":395213218},{"NoteNumber":89,"Velocity":61,"Duration":100671,"SoundDuration":100671,"Delta":395313889},{"NoteNumber":85,"Velocity":72,"Duration":100671,"SoundDuration":100671,"Delta":395414560},{"NoteNumber":80,"Velocity":61,"Duration":75503,"SoundDuration":75503,"Delta":395515232},{"NoteNumber":80,"Velocity":72,"Duration":100671,"SoundDuration":100671,"Delta":395615903},{"NoteNumber":56,"Velocity":57,"Duration":831255,"SoundDuration":831255,"Delta":395615903},{"NoteNumber":61,"Velocity":62,"Duration":831255,"SoundDuration":831255,"Delta":395615903},{"NoteNumber":53,"Velocity":57,"Duration":831255,"SoundDuration":831255,"Delta":395615903},{"NoteNumber":85,"Velocity":61,"Duration":100671,"SoundDuration":100671,"Delta":395716574},{"NoteNumber":80,"Velocity":72,"Duration":100671,"SoundDuration":100671,"Delta":395817245},{"NoteNumber":77,"Velocity":61,"Duration":100671,"SoundDuration":100671,"Delta":395917917},{"NoteNumber":80,"Velocity":72,"Duration":214285,"SoundDuration":214285,"Delta":396018588},{"NoteNumber":87,"Velocity":84,"Duration":100334,"SoundDuration":100334,"Delta":396447159},{"NoteNumber":39,"Velocity":84,"Duration":301003,"SoundDuration":301003,"Delta":396447159},{"NoteNumber":91,"Velocity":71,"Duration":100334,"SoundDuration":100334,"Delta":396547493},{"NoteNumber":87,"Velocity":84,"Duration":100334,"SoundDuration":100334,"Delta":396647828},{"NoteNumber":82,"Velocity":71,"Duration":75250,"SoundDuration":75250,"Delta":396748162},{"NoteNumber":82,"Velocity":84,"Duration":100334,"SoundDuration":100334,"Delta":396848497},{"NoteNumber":61,"Velocity":73,"Duration":829908,"SoundDuration":829908,"Delta":396848497},{"NoteNumber":58,"Velocity":68,"Duration":829908,"SoundDuration":829908,"Delta":396848497},{"NoteNumber":51,"Velocity":68,"Duration":829908,"SoundDuration":829908,"Delta":396848497},{"NoteNumber":87,"Velocity":71,"Duration":100334,"SoundDuration":100334,"Delta":396948831},{"NoteNumber":82,"Velocity":84,"Duration":100334,"SoundDuration":100334,"Delta":397049166},{"NoteNumber":79,"Velocity":71,"Duration":100334,"SoundDuration":100334,"Delta":397149500},{"NoteNumber":82,"Velocity":84,"Duration":214285,"SoundDuration":214285,"Delta":397249835},{"NoteNumber":87,"Velocity":93,"Duration":100000,"SoundDuration":100000,"Delta":397678406},{"NoteNumber":44,"Velocity":88,"Duration":300000,"SoundDuration":300000,"Delta":397678406},{"NoteNumber":92,"Velocity":79,"Duration":99999,"SoundDuration":99999,"Delta":397778406},{"NoteNumber":87,"Velocity":93,"Duration":100000,"SoundDuration":100000,"Delta":397878406},{"NoteNumber":84,"Velocity":79,"Duration":74999,"SoundDuration":74999,"Delta":397978406},{"NoteNumber":84,"Velocity":93,"Duration":100000,"SoundDuration":100000,"Delta":398078406},{"NoteNumber":60,"Velocity":76,"Duration":864375,"SoundDuration":864375,"Delta":398078406},{"NoteNumber":56,"Velocity":70,"Duration":864375,"SoundDuration":864375,"Delta":398078406},{"NoteNumber":51,"Velocity":70,"Duration":864375,"SoundDuration":864375,"Delta":398078406},{"NoteNumber":87,"Velocity":79,"Duration":100000,"SoundDuration":100000,"Delta":398178406},{"NoteNumber":84,"Velocity":93,"Duration":99999,"SoundDuration":99999,"Delta":398278406},{"NoteNumber":80,"Velocity":79,"Duration":101055,"SoundDuration":101055,"Delta":398378406},{"NoteNumber":84,"Velocity":93,"Duration":231659,"SoundDuration":231659,"Delta":398479461},{"NoteNumber":72,"Velocity":48,"Duration":107432,"SoundDuration":107432,"Delta":398942781},{"NoteNumber":51,"Velocity":60,"Duration":428146,"SoundDuration":428146,"Delta":398942781},{"NoteNumber":44,"Velocity":48,"Duration":1228146,"SoundDuration":1228146,"Delta":398942781},{"NoteNumber":75,"Velocity":40,"Duration":107142,"SoundDuration":107142,"Delta":399050214},{"NoteNumber":72,"Velocity":48,"Duration":107142,"SoundDuration":107142,"Delta":399157356},{"NoteNumber":68,"Velocity":40,"Duration":80357,"SoundDuration":80357,"Delta":399264499},{"NoteNumber":68,"Velocity":48,"Duration":100000,"SoundDuration":100000,"Delta":399370928},{"NoteNumber":56,"Velocity":72,"Duration":600000,"SoundDuration":600000,"Delta":399370928},{"NoteNumber":72,"Velocity":40,"Duration":99999,"SoundDuration":99999,"Delta":399470928},{"NoteNumber":68,"Velocity":48,"Duration":100000,"SoundDuration":100000,"Delta":399570928},{"NoteNumber":63,"Velocity":40,"Duration":100000,"SoundDuration":100000,"Delta":399670928},{"NoteNumber":68,"Velocity":48,"Duration":199999,"SoundDuration":199999,"Delta":399770928},{"NoteNumber":55,"Velocity":60,"Duration":199999,"SoundDuration":199999,"Delta":399970928},{"NoteNumber":73,"Velocity":48,"Duration":106761,"SoundDuration":106761,"Delta":400170928},{"NoteNumber":53,"Velocity":60,"Duration":427046,"SoundDuration":427046,"Delta":400170928},{"NoteNumber":49,"Velocity":48,"Duration":1227046,"SoundDuration":1227046,"Delta":400170928},{"NoteNumber":77,"Velocity":40,"Duration":106761,"SoundDuration":106761,"Delta":400277689},{"NoteNumber":73,"Velocity":48,"Duration":106761,"SoundDuration":106761,"Delta":400384451},{"NoteNumber":68,"Velocity":40,"Duration":80071,"SoundDuration":80071,"Delta":400491212},{"NoteNumber":68,"Velocity":48,"Duration":100000,"SoundDuration":100000,"Delta":400597974},{"NoteNumber":61,"Velocity":72,"Duration":600000,"SoundDuration":600000,"Delta":400597974},{"NoteNumber":73,"Velocity":40,"Duration":99999,"SoundDuration":99999,"Delta":400697974},{"NoteNumber":68,"Velocity":48,"Duration":100000,"SoundDuration":100000,"Delta":400797974},{"NoteNumber":65,"Velocity":40,"Duration":99999,"SoundDuration":99999,"Delta":400897974},{"NoteNumber":68,"Velocity":48,"Duration":200000,"SoundDuration":200000,"Delta":400997974},{"NoteNumber":60,"Velocity":60,"Duration":199999,"SoundDuration":199999,"Delta":401197974},{"NoteNumber":75,"Velocity":48,"Duration":107025,"SoundDuration":107025,"Delta":401397974},{"NoteNumber":58,"Velocity":60,"Duration":429104,"SoundDuration":429104,"Delta":401397974},{"NoteNumber":51,"Velocity":48,"Duration":1229104,"SoundDuration":1229104,"Delta":401397974},{"NoteNumber":79,"Velocity":40,"Duration":107527,"SoundDuration":107527,"Delta":401504999},{"NoteNumber":75,"Velocity":48,"Duration":107527,"SoundDuration":107527,"Delta":401612526},{"NoteNumber":70,"Velocity":40,"Duration":80645,"SoundDuration":80645,"Delta":401720053},{"NoteNumber":70,"Velocity":48,"Duration":100000,"SoundDuration":100000,"Delta":401827078},{"NoteNumber":63,"Velocity":72,"Duration":600000,"SoundDuration":600000,"Delta":401827078},{"NoteNumber":75,"Velocity":40,"Duration":99999,"SoundDuration":99999,"Delta":401927078},{"NoteNumber":70,"Velocity":48,"Duration":100000,"SoundDuration":100000,"Delta":402027078},{"NoteNumber":67,"Velocity":40,"Duration":100000,"SoundDuration":100000,"Delta":402127078},{"NoteNumber":70,"Velocity":48,"Duration":199999,"SoundDuration":199999,"Delta":402227078},{"NoteNumber":61,"Velocity":60,"Duration":199999,"SoundDuration":199999,"Delta":402427078},{"NoteNumber":75,"Velocity":48,"Duration":107142,"SoundDuration":107142,"Delta":402627078},{"NoteNumber":60,"Velocity":60,"Duration":428570,"SoundDuration":428570,"Delta":402627078},{"NoteNumber":56,"Velocity":48,"Duration":1229047,"SoundDuration":1229047,"Delta":402627078},{"NoteNumber":80,"Velocity":40,"Duration":107142,"SoundDuration":107142,"Delta":402734221},{"NoteNumber":75,"Velocity":48,"Duration":107142,"SoundDuration":107142,"Delta":402841363},{"NoteNumber":72,"Velocity":40,"Duration":80357,"SoundDuration":80357,"Delta":402948506},{"NoteNumber":72,"Velocity":48,"Duration":100476,"SoundDuration":100476,"Delta":403055649},{"NoteNumber":63,"Velocity":72,"Duration":800476,"SoundDuration":800476,"Delta":403055649},{"NoteNumber":75,"Velocity":40,"Duration":100000,"SoundDuration":100000,"Delta":403156125},{"NoteNumber":72,"Velocity":48,"Duration":100000,"SoundDuration":100000,"Delta":403256125},{"NoteNumber":68,"Velocity":40,"Duration":99999,"SoundDuration":99999,"Delta":403356125},{"NoteNumber":72,"Velocity":48,"Duration":199999,"SoundDuration":199999,"Delta":403456125},{"NoteNumber":84,"Velocity":68,"Duration":120967,"SoundDuration":120967,"Delta":403856125},{"NoteNumber":51,"Velocity":80,"Duration":482450,"SoundDuration":482450,"Delta":403856125},{"NoteNumber":44,"Velocity":68,"Duration":1279792,"SoundDuration":1279792,"Delta":403856125},{"NoteNumber":87,"Velocity":57,"Duration":120967,"SoundDuration":120967,"Delta":403977093},{"NoteNumber":84,"Velocity":68,"Duration":120967,"SoundDuration":120967,"Delta":404098061},{"NoteNumber":80,"Velocity":57,"Duration":90725,"SoundDuration":90725,"Delta":404219028},{"NoteNumber":80,"Velocity":68,"Duration":99667,"SoundDuration":99667,"Delta":404338576},{"NoteNumber":56,"Velocity":79,"Duration":598006,"SoundDuration":598006,"Delta":404338576},{"NoteNumber":84,"Velocity":57,"Duration":99667,"SoundDuration":99667,"Delta":404438244},{"NoteNumber":80,"Velocity":68,"Duration":99667,"SoundDuration":99667,"Delta":404537912},{"NoteNumber":75,"Velocity":57,"Duration":99667,"SoundDuration":99667,"Delta":404637579},{"NoteNumber":80,"Velocity":68,"Duration":199335,"SoundDuration":199335,"Delta":404737247},{"NoteNumber":55,"Velocity":68,"Duration":199335,"SoundDuration":199335,"Delta":404936583},{"NoteNumber":85,"Velocity":68,"Duration":108462,"SoundDuration":108462,"Delta":405135918},{"NoteNumber":53,"Velocity":75,"Duration":435735,"SoundDuration":435735,"Delta":405135918},{"NoteNumber":49,"Velocity":63,"Duration":1235735,"SoundDuration":1235735,"Delta":405135918},{"NoteNumber":89,"Velocity":57,"Duration":109090,"SoundDuration":109090,"Delta":405244381},{"NoteNumber":85,"Velocity":68,"Duration":109091,"SoundDuration":109091,"Delta":405353472},{"NoteNumber":80,"Velocity":57,"Duration":81818,"SoundDuration":81818,"Delta":405462563},{"NoteNumber":80,"Velocity":68,"Duration":100000,"SoundDuration":100000,"Delta":405571654},{"NoteNumber":61,"Velocity":79,"Duration":600000,"SoundDuration":600000,"Delta":405571654},{"NoteNumber":85,"Velocity":57,"Duration":99999,"SoundDuration":99999,"Delta":405671654},{"NoteNumber":80,"Velocity":68,"Duration":100000,"SoundDuration":100000,"Delta":405771654},{"NoteNumber":77,"Velocity":57,"Duration":99999,"SoundDuration":99999,"Delta":405871654},{"NoteNumber":80,"Velocity":68,"Duration":200000,"SoundDuration":200000,"Delta":405971654},{"NoteNumber":60,"Velocity":68,"Duration":199999,"SoundDuration":199999,"Delta":406171654},{"NoteNumber":87,"Velocity":68,"Duration":104912,"SoundDuration":104912,"Delta":406371654},{"NoteNumber":58,"Velocity":78,"Duration":420702,"SoundDuration":420702,"Delta":406371654},{"NoteNumber":51,"Velocity":66,"Duration":1220702,"SoundDuration":1220702,"Delta":406371654},{"NoteNumber":91,"Velocity":57,"Duration":105263,"SoundDuration":105263,"Delta":406476566},{"NoteNumber":87,"Velocity":68,"Duration":105263,"SoundDuration":105263,"Delta":406581830},{"NoteNumber":82,"Velocity":57,"Duration":78947,"SoundDuration":78947,"Delta":406687093},{"NoteNumber":82,"Velocity":68,"Duration":100000,"SoundDuration":100000,"Delta":406792356},{"NoteNumber":63,"Velocity":85,"Duration":600000,"SoundDuration":600000,"Delta":406792356},{"NoteNumber":87,"Velocity":57,"Duration":99999,"SoundDuration":99999,"Delta":406892356},{"NoteNumber":82,"Velocity":68,"Duration":100000,"SoundDuration":100000,"Delta":406992356},{"NoteNumber":79,"Velocity":57,"Duration":99999,"SoundDuration":99999,"Delta":407092356},{"NoteNumber":82,"Velocity":68,"Duration":200000,"SoundDuration":200000,"Delta":407192356},{"NoteNumber":61,"Velocity":68,"Duration":199999,"SoundDuration":199999,"Delta":407392356},{"NoteNumber":87,"Velocity":82,"Duration":102886,"SoundDuration":102886,"Delta":407592356},{"NoteNumber":60,"Velocity":77,"Duration":411958,"SoundDuration":411958,"Delta":407592356},{"NoteNumber":56,"Velocity":65,"Duration":1211958,"SoundDuration":1211958,"Delta":407592356},{"NoteNumber":92,"Velocity":69,"Duration":103092,"SoundDuration":103092,"Delta":407695243},{"NoteNumber":87,"Velocity":82,"Duration":103092,"SoundDuration":103092,"Delta":407798335},{"NoteNumber":84,"Velocity":69,"Duration":77319,"SoundDuration":77319,"Delta":407901428},{"NoteNumber":84,"Velocity":82,"Duration":100000,"SoundDuration":100000,"Delta":408004315},{"NoteNumber":63,"Velocity":85,"Duration":600000,"SoundDuration":600000,"Delta":408004315},{"NoteNumber":87,"Velocity":69,"Duration":99999,"SoundDuration":99999,"Delta":408104315},{"NoteNumber":84,"Velocity":82,"Duration":100000,"SoundDuration":100000,"Delta":408204315},{"NoteNumber":80,"Velocity":69,"Duration":100000,"SoundDuration":100000,"Delta":408304315},{"NoteNumber":84,"Velocity":82,"Duration":199999,"SoundDuration":199999,"Delta":408404315},{"NoteNumber":60,"Velocity":77,"Duration":199999,"SoundDuration":199999,"Delta":408604315},{"NoteNumber":87,"Velocity":86,"Duration":102389,"SoundDuration":102389,"Delta":408804315},{"NoteNumber":58,"Velocity":82,"Duration":409556,"SoundDuration":409556,"Delta":408804315},{"NoteNumber":51,"Velocity":62,"Duration":1209556,"SoundDuration":1209556,"Delta":408804315},{"NoteNumber":91,"Velocity":72,"Duration":102388,"SoundDuration":102388,"Delta":408906704},{"NoteNumber":87,"Velocity":86,"Duration":102389,"SoundDuration":102389,"Delta":409009093},{"NoteNumber":82,"Velocity":72,"Duration":76791,"SoundDuration":76791,"Delta":409111482},{"NoteNumber":82,"Velocity":86,"Duration":100000,"SoundDuration":100000,"Delta":409213871},{"NoteNumber":63,"Velocity":90,"Duration":600000,"SoundDuration":600000,"Delta":409213871},{"NoteNumber":87,"Velocity":72,"Duration":99999,"SoundDuration":99999,"Delta":409313871},{"NoteNumber":82,"Velocity":86,"Duration":100000,"SoundDuration":100000,"Delta":409413871},{"NoteNumber":79,"Velocity":72,"Duration":99999,"SoundDuration":99999,"Delta":409513871},{"NoteNumber":82,"Velocity":86,"Duration":200000,"SoundDuration":200000,"Delta":409613871},{"NoteNumber":61,"Velocity":82,"Duration":199999,"SoundDuration":199999,"Delta":409813871},{"NoteNumber":87,"Velocity":92,"Duration":102557,"SoundDuration":102557,"Delta":410013871},{"NoteNumber":60,"Velocity":90,"Duration":410593,"SoundDuration":410593,"Delta":410013871},{"NoteNumber":56,"Velocity":69,"Duration":1210593,"SoundDuration":1210593,"Delta":410013871},{"NoteNumber":92,"Velocity":77,"Duration":102739,"SoundDuration":102739,"Delta":410116428},{"NoteNumber":87,"Velocity":92,"Duration":102739,"SoundDuration":102739,"Delta":410219168},{"NoteNumber":84,"Velocity":77,"Duration":77054,"SoundDuration":77054,"Delta":410321907},{"NoteNumber":84,"Velocity":92,"Duration":100000,"SoundDuration":100000,"Delta":410424464},{"NoteNumber":63,"Velocity":94,"Duration":600000,"SoundDuration":600000,"Delta":410424464},{"NoteNumber":87,"Velocity":77,"Duration":99999,"SoundDuration":99999,"Delta":410524464},{"NoteNumber":84,"Velocity":92,"Duration":100000,"SoundDuration":100000,"Delta":410624464},{"NoteNumber":80,"Velocity":77,"Duration":100000,"SoundDuration":100000,"Delta":410724464},{"NoteNumber":84,"Velocity":92,"Duration":199999,"SoundDuration":199999,"Delta":410824464},{"NoteNumber":60,"Velocity":90,"Duration":199999,"SoundDuration":199999,"Delta":411024464},{"NoteNumber":87,"Velocity":98,"Duration":102886,"SoundDuration":102886,"Delta":411224464},{"NoteNumber":58,"Velocity":94,"Duration":412164,"SoundDuration":412164,"Delta":411224464},{"NoteNumber":51,"Velocity":79,"Duration":1212164,"SoundDuration":1212164,"Delta":411224464},{"NoteNumber":91,"Velocity":83,"Duration":103092,"SoundDuration":103092,"Delta":411327351},{"NoteNumber":87,"Velocity":98,"Duration":103092,"SoundDuration":103092,"Delta":411430444},{"NoteNumber":82,"Velocity":83,"Duration":77319,"SoundDuration":77319,"Delta":411533536},{"NoteNumber":82,"Velocity":98,"Duration":100000,"SoundDuration":100000,"Delta":411636629},{"NoteNumber":63,"Velocity":96,"Duration":600000,"SoundDuration":600000,"Delta":411636629},{"NoteNumber":87,"Velocity":83,"Duration":99999,"SoundDuration":99999,"Delta":411736629},{"NoteNumber":82,"Velocity":98,"Duration":100000,"SoundDuration":100000,"Delta":411836629},{"NoteNumber":79,"Velocity":83,"Duration":99999,"SoundDuration":99999,"Delta":411936629},{"NoteNumber":82,"Velocity":98,"Duration":200000,"SoundDuration":200000,"Delta":412036629},{"NoteNumber":61,"Velocity":91,"Duration":199999,"SoundDuration":199999,"Delta":412236629},{"NoteNumber":87,"Velocity":98,"Duration":96816,"SoundDuration":96816,"Delta":412436629},{"NoteNumber":56,"Velocity":83,"Duration":386485,"SoundDuration":386485,"Delta":412436629},{"NoteNumber":60,"Velocity":98,"Duration":386485,"SoundDuration":386485,"Delta":412436629},{"NoteNumber":92,"Velocity":83,"Duration":96463,"SoundDuration":96463,"Delta":412533446},{"NoteNumber":87,"Velocity":98,"Duration":96462,"SoundDuration":96462,"Delta":412629909},{"NoteNumber":84,"Velocity":83,"Duration":72549,"SoundDuration":72549,"Delta":412726372},{"NoteNumber":84,"Velocity":98,"Duration":96774,"SoundDuration":96774,"Delta":412823115},{"NoteNumber":87,"Velocity":83,"Duration":96847,"SoundDuration":96847,"Delta":412919889},{"NoteNumber":84,"Velocity":98,"Duration":97087,"SoundDuration":97087,"Delta":413016737},{"NoteNumber":80,"Velocity":83,"Duration":72815,"SoundDuration":72815,"Delta":413113824},{"NoteNumber":80,"Velocity":98,"Duration":97265,"SoundDuration":97265,"Delta":413210912},{"NoteNumber":84,"Velocity":83,"Duration":97402,"SoundDuration":97402,"Delta":413308178},{"NoteNumber":80,"Velocity":98,"Duration":97402,"SoundDuration":97402,"Delta":413405580},{"NoteNumber":75,"Velocity":83,"Duration":73258,"SoundDuration":73258,"Delta":413502983},{"NoteNumber":75,"Velocity":98,"Duration":97719,"SoundDuration":97719,"Delta":413600671},{"NoteNumber":80,"Velocity":83,"Duration":97794,"SoundDuration":97794,"Delta":413698390},{"NoteNumber":75,"Velocity":98,"Duration":98039,"SoundDuration":98039,"Delta":413796185},{"NoteNumber":72,"Velocity":83,"Duration":73529,"SoundDuration":73529,"Delta":413894224},{"NoteNumber":72,"Velocity":98,"Duration":98221,"SoundDuration":98221,"Delta":413992263},{"NoteNumber":75,"Velocity":83,"Duration":98360,"SoundDuration":98360,"Delta":414090485},{"NoteNumber":72,"Velocity":98,"Duration":98360,"SoundDuration":98360,"Delta":414188845},{"NoteNumber":68,"Velocity":83,"Duration":73980,"SoundDuration":73980,"Delta":414287206},{"NoteNumber":68,"Velocity":98,"Duration":98684,"SoundDuration":98684,"Delta":414385858},{"NoteNumber":72,"Velocity":83,"Duration":98760,"SoundDuration":98760,"Delta":414484542},{"NoteNumber":68,"Velocity":98,"Duration":99010,"SoundDuration":99010,"Delta":414583303},{"NoteNumber":63,"Velocity":83,"Duration":74257,"SoundDuration":74257,"Delta":414682313},{"NoteNumber":75,"Velocity":98,"Duration":97848,"SoundDuration":97848,"Delta":414781323},{"NoteNumber":63,"Velocity":98,"Duration":195643,"SoundDuration":195643,"Delta":414781323},{"NoteNumber":80,"Velocity":83,"Duration":97794,"SoundDuration":97794,"Delta":414879171},{"NoteNumber":75,"Velocity":97,"Duration":98039,"SoundDuration":98039,"Delta":414976966},{"NoteNumber":72,"Velocity":82,"Duration":73738,"SoundDuration":73738,"Delta":415075005},{"NoteNumber":72,"Velocity":96,"Duration":98436,"SoundDuration":98436,"Delta":415173333},{"NoteNumber":60,"Velocity":96,"Duration":197120,"SoundDuration":197120,"Delta":415173333},{"NoteNumber":75,"Velocity":80,"Duration":98684,"SoundDuration":98684,"Delta":415271770},{"NoteNumber":72,"Velocity":94,"Duration":98977,"SoundDuration":98977,"Delta":415370454},{"NoteNumber":68,"Velocity":79,"Duration":74257,"SoundDuration":74257,"Delta":415469431},{"NoteNumber":68,"Velocity":93,"Duration":99337,"SoundDuration":99337,"Delta":415568518},{"NoteNumber":56,"Velocity":93,"Duration":198972,"SoundDuration":198972,"Delta":415568518},{"NoteNumber":72,"Velocity":78,"Duration":99634,"SoundDuration":99634,"Delta":415667856},{"NoteNumber":68,"Velocity":92,"Duration":99745,"SoundDuration":99745,"Delta":415767490},{"NoteNumber":63,"Velocity":76,"Duration":75000,"SoundDuration":75000,"Delta":415867236},{"NoteNumber":63,"Velocity":90,"Duration":100301,"SoundDuration":100301,"Delta":415967236},{"NoteNumber":51,"Velocity":91,"Duration":200635,"SoundDuration":200635,"Delta":415967236},{"NoteNumber":68,"Velocity":76,"Duration":100334,"SoundDuration":100334,"Delta":416067537},{"NoteNumber":63,"Velocity":89,"Duration":100334,"SoundDuration":100334,"Delta":416167871},{"NoteNumber":60,"Velocity":74,"Duration":75464,"SoundDuration":75464,"Delta":416268206},{"NoteNumber":60,"Velocity":87,"Duration":101010,"SoundDuration":101010,"Delta":416368923},{"NoteNumber":48,"Velocity":88,"Duration":202020,"SoundDuration":202020,"Delta":416368923},{"NoteNumber":63,"Velocity":73,"Duration":101009,"SoundDuration":101009,"Delta":416469933},{"NoteNumber":60,"Velocity":86,"Duration":101010,"SoundDuration":101010,"Delta":416570943},{"NoteNumber":56,"Velocity":72,"Duration":101203,"SoundDuration":101203,"Delta":416671953},{"NoteNumber":63,"Velocity":85,"Duration":101351,"SoundDuration":101351,"Delta":416773156},{"NoteNumber":51,"Velocity":85,"Duration":202702,"SoundDuration":202702,"Delta":416773156},{"NoteNumber":68,"Velocity":70,"Duration":101351,"SoundDuration":101351,"Delta":416874508},{"NoteNumber":63,"Velocity":83,"Duration":101351,"SoundDuration":101351,"Delta":416975859},{"NoteNumber":60,"Velocity":69,"Duration":101546,"SoundDuration":101546,"Delta":417077210},{"NoteNumber":56,"Velocity":81,"Duration":406779,"SoundDuration":406779,"Delta":417178756},{"NoteNumber":44,"Velocity":82,"Duration":406779,"SoundDuration":406779,"Delta":417178756},{"NoteNumber":87,"Velocity":112,"Duration":406780,"SoundDuration":406780,"Delta":418399096},{"NoteNumber":82,"Velocity":102,"Duration":406780,"SoundDuration":406780,"Delta":418399096},{"NoteNumber":79,"Velocity":102,"Duration":406780,"SoundDuration":406780,"Delta":418399096},{"NoteNumber":75,"Velocity":102,"Duration":406780,"SoundDuration":406780,"Delta":418399096},{"NoteNumber":39,"Velocity":91,"Duration":406780,"SoundDuration":406780,"Delta":418399096},{"NoteNumber":51,"Velocity":91,"Duration":406780,"SoundDuration":406780,"Delta":418399096},{"NoteNumber":84,"Velocity":108,"Duration":406779,"SoundDuration":406779,"Delta":419619436},{"NoteNumber":80,"Velocity":98,"Duration":406779,"SoundDuration":406779,"Delta":419619436},{"NoteNumber":72,"Velocity":98,"Duration":406779,"SoundDuration":406779,"Delta":419619436},{"NoteNumber":75,"Velocity":98,"Duration":406779,"SoundDuration":406779,"Delta":419619436},{"NoteNumber":32,"Velocity":88,"Duration":406779,"SoundDuration":406779,"Delta":419619436},{"NoteNumber":44,"Velocity":88,"Duration":406779,"SoundDuration":406779,"Delta":419619436}]}