{"title":"Impromptu D 935 No. 3","artist":"Schubert","durationMs":670396,"midiSha256":"b35763877465f6d223d63fbed507eb771358a31900a2571a32e4d0d9803f8d39","midiObject":[{"NoteNumber":74,"Velocity":50,"Duration":658689,"SoundDuration":658689,"Delta":0},{"NoteNumber":46,"Velocity":35,"Duration":164672,"SoundDuration":164672,"Delta":0},{"NoteNumber":62,"Velocity":24,"Duration":329344,"SoundDuration":329344,"Delta":329344},{"NoteNumber":74,"Velocity":45,"Duration":296410,"SoundDuration":296410,"Delta":658689},{"NoteNumber":53,"Velocity":22,"Duration":329344,"SoundDuration":329344,"Delta":658689},{"NoteNumber":58,"Velocity":27,"Duration":329344,"SoundDuration":329344,"Delta":658689},{"NoteNumber":74,"Velocity":45,"Duration":310380,"SoundDuration":310380,"Delta":988033},{"NoteNumber":62,"Velocity":25,"Duration":344867,"SoundDuration":344867,"Delta":988033},{"NoteNumber":70,"Velocity":50,"Duration":658688,"SoundDuration":658688,"Delta":1332900},{"NoteNumber":50,"Velocity":35,"Duration":164672,"SoundDuration":164672,"Delta":1332900},{"NoteNumber":65,"Velocity":27,"Duration":329344,"SoundDuration":329344,"Delta":1662245},{"NoteNumber":70,"Velocity":45,"Duration":658688,"SoundDuration":658688,"Delta":1991589},{"NoteNumber":58,"Velocity":30,"Duration":329344,"SoundDuration":329344,"Delta":1991589},{"NoteNumber":53,"Velocity":25,"Duration":329344,"SoundDuration":329344,"Delta":1991589},{"NoteNumber":65,"Velocity":27,"Duration":329344,"SoundDuration":329344,"Delta":2320934},{"NoteNumber":69,"Velocity":50,"Duration":658689,"SoundDuration":658689,"Delta":2650278},{"NoteNumber":48,"Velocity":35,"Duration":164672,"SoundDuration":164672,"Delta":2650278},{"NoteNumber":63,"Velocity":26,"Duration":329344,"SoundDuration":329344,"Delta":2979623},{"NoteNumber":69,"Velocity":47,"Duration":329344,"SoundDuration":329344,"Delta":3308967},{"NoteNumber":53,"Velocity":24,"Duration":329344,"SoundDuration":329344,"Delta":3308967},{"NoteNumber":57,"Velocity":29,"Duration":329344,"SoundDuration":329344,"Delta":3308967},{"NoteNumber":69,"Velocity":47,"Duration":259995,"SoundDuration":259995,"Delta":3638312},{"NoteNumber":63,"Velocity":26,"Duration":346660,"SoundDuration":346660,"Delta":3638312},{"NoteNumber":69,"Velocity":40,"Duration":86665,"SoundDuration":86665,"Delta":3898307},{"NoteNumber":75,"Velocity":50,"Duration":1339816,"SoundDuration":1339816,"Delta":3984972},{"NoteNumber":41,"Velocity":35,"Duration":174256,"SoundDuration":174256,"Delta":3984972},{"NoteNumber":60,"Velocity":23,"Duration":329344,"SoundDuration":329344,"Delta":4333485},{"NoteNumber":57,"Velocity":23,"Duration":330979,"SoundDuration":330979,"Delta":4662830},{"NoteNumber":53,"Velocity":19,"Duration":330979,"SoundDuration":330979,"Delta":4662830},{"NoteNumber":60,"Velocity":23,"Duration":330979,"SoundDuration":330979,"Delta":4993809},{"NoteNumber":74,"Velocity":50,"Duration":658688,"SoundDuration":658688,"Delta":5324789},{"NoteNumber":46,"Velocity":35,"Duration":164672,"SoundDuration":164672,"Delta":5324789},{"NoteNumber":62,"Velocity":24,"Duration":329344,"SoundDuration":329344,"Delta":5654133},{"NoteNumber":74,"Velocity":45,"Duration":296410,"SoundDuration":296410,"Delta":5983478},{"NoteNumber":53,"Velocity":22,"Duration":329344,"SoundDuration":329344,"Delta":5983478},{"NoteNumber":58,"Velocity":27,"Duration":329344,"SoundDuration":329344,"Delta":5983478},{"NoteNumber":74,"Velocity":45,"Duration":322157,"SoundDuration":322157,"Delta":6312822},{"NoteNumber":62,"Velocity":25,"Duration":357952,"SoundDuration":357952,"Delta":6312822},{"NoteNumber":74,"Velocity":50,"Duration":329344,"SoundDuration":329344,"Delta":6670775},{"NoteNumber":39,"Velocity":35,"Duration":164672,"SoundDuration":164672,"Delta":6670775},{"NoteNumber":67,"Velocity":50,"Duration":164672,"SoundDuration":164672,"Delta":7000119},{"NoteNumber":60,"Velocity":27,"Duration":329344,"SoundDuration":329344,"Delta":7000119},{"NoteNumber":67,"Velocity":45,"Duration":667106,"SoundDuration":667106,"Delta":7329464},{"NoteNumber":55,"Velocity":25,"Duration":329344,"SoundDuration":329344,"Delta":7329464},{"NoteNumber":58,"Velocity":30,"Duration":329344,"SoundDuration":329344,"Delta":7329464},{"NoteNumber":51,"Velocity":25,"Duration":329344,"SoundDuration":329344,"Delta":7329464},{"NoteNumber":60,"Velocity":27,"Duration":337761,"SoundDuration":337761,"Delta":7658808},{"NoteNumber":72,"Velocity":50,"Duration":329344,"SoundDuration":329344,"Delta":7996570},{"NoteNumber":40,"Velocity":35,"Duration":164672,"SoundDuration":164672,"Delta":7996570},{"NoteNumber":71,"Velocity":44,"Duration":160651,"SoundDuration":160651,"Delta":8325915},{"NoteNumber":60,"Velocity":26,"Duration":321302,"SoundDuration":321302,"Delta":8325915},{"NoteNumber":72,"Velocity":44,"Duration":160651,"SoundDuration":160651,"Delta":8486566},{"NoteNumber":71,"Velocity":44,"Duration":160651,"SoundDuration":160651,"Delta":8647217},{"NoteNumber":58,"Velocity":29,"Duration":321302,"SoundDuration":321302,"Delta":8647217},{"NoteNumber":55,"Velocity":24,"Duration":321302,"SoundDuration":321302,"Delta":8647217},{"NoteNumber":52,"Velocity":24,"Duration":321302,"SoundDuration":321302,"Delta":8647217},{"NoteNumber":72,"Velocity":47,"Duration":160651,"SoundDuration":160651,"Delta":8807868},{"NoteNumber":74,"Velocity":49,"Duration":173330,"SoundDuration":173330,"Delta":8968520},{"NoteNumber":60,"Velocity":26,"Duration":346660,"SoundDuration":346660,"Delta":8968520},{"NoteNumber":72,"Velocity":44,"Duration":173330,"SoundDuration":173330,"Delta":9141850},{"NoteNumber":65,"Velocity":50,"Duration":1455269,"SoundDuration":1455269,"Delta":9315180},{"NoteNumber":41,"Velocity":35,"Duration":171526,"SoundDuration":171526,"Delta":9315180},{"NoteNumber":53,"Velocity":20,"Duration":1112216,"SoundDuration":1112216,"Delta":9658233},{"NoteNumber":57,"Velocity":25,"Duration":372116,"SoundDuration":372116,"Delta":9658233},{"NoteNumber":60,"Velocity":32,"Duration":372064,"SoundDuration":372064,"Delta":9667536},{"NoteNumber":62,"Velocity":31,"Duration":370050,"SoundDuration":370050,"Delta":10030349},{"NoteNumber":58,"Velocity":23,"Duration":370050,"SoundDuration":370050,"Delta":10030349},{"NoteNumber":63,"Velocity":29,"Duration":370050,"SoundDuration":370050,"Delta":10400400},{"NoteNumber":60,"Velocity":21,"Duration":370050,"SoundDuration":370050,"Delta":10400400},{"NoteNumber":86,"Velocity":50,"Duration":658689,"SoundDuration":658689,"Delta":10770450},{"NoteNumber":74,"Velocity":42,"Duration":658689,"SoundDuration":658689,"Delta":10770450},{"NoteNumber":46,"Velocity":35,"Duration":329344,"SoundDuration":329344,"Delta":10770450},{"NoteNumber":62,"Velocity":24,"Duration":329344,"SoundDuration":329344,"Delta":11099794},{"NoteNumber":86,"Velocity":45,"Duration":296410,"SoundDuration":296410,"Delta":11429139},{"NoteNumber":74,"Velocity":38,"Duration":296410,"SoundDuration":296410,"Delta":11429139},{"NoteNumber":58,"Velocity":27,"Duration":329344,"SoundDuration":329344,"Delta":11429139},{"NoteNumber":53,"Velocity":22,"Duration":329344,"SoundDuration":329344,"Delta":11429139},{"NoteNumber":86,"Velocity":45,"Duration":310380,"SoundDuration":310380,"Delta":11758484},{"NoteNumber":74,"Velocity":38,"Duration":310380,"SoundDuration":310380,"Delta":11758484},{"NoteNumber":62,"Velocity":25,"Duration":344867,"SoundDuration":344867,"Delta":11758484},{"NoteNumber":82,"Velocity":50,"Duration":658689,"SoundDuration":658689,"Delta":12103351},{"NoteNumber":70,"Velocity":42,"Duration":658689,"SoundDuration":658689,"Delta":12103351},{"NoteNumber":50,"Velocity":35,"Duration":329344,"SoundDuration":329344,"Delta":12103351},{"NoteNumber":65,"Velocity":27,"Duration":329344,"SoundDuration":329344,"Delta":12432695},{"NoteNumber":82,"Velocity":45,"Duration":658688,"SoundDuration":658688,"Delta":12762040},{"NoteNumber":70,"Velocity":38,"Duration":658688,"SoundDuration":658688,"Delta":12762040},{"NoteNumber":53,"Velocity":25,"Duration":329344,"SoundDuration":329344,"Delta":12762040},{"NoteNumber":58,"Velocity":30,"Duration":329344,"SoundDuration":329344,"Delta":12762040},{"NoteNumber":65,"Velocity":27,"Duration":329344,"SoundDuration":329344,"Delta":13091384},{"NoteNumber":69,"Velocity":42,"Duration":658689,"SoundDuration":658689,"Delta":13420729},{"NoteNumber":81,"Velocity":50,"Duration":658689,"SoundDuration":658689,"Delta":13420729},{"NoteNumber":48,"Velocity":35,"Duration":329344,"SoundDuration":329344,"Delta":13420729},{"NoteNumber":63,"Velocity":26,"Duration":329344,"SoundDuration":329344,"Delta":13750073},{"NoteNumber":81,"Velocity":47,"Duration":329344,"SoundDuration":329344,"Delta":14079418},{"NoteNumber":69,"Velocity":39,"Duration":329344,"SoundDuration":329344,"Delta":14079418},{"NoteNumber":57,"Velocity":29,"Duration":329344,"SoundDuration":329344,"Delta":14079418},{"NoteNumber":53,"Velocity":24,"Duration":329344,"SoundDuration":329344,"Delta":14079418},{"NoteNumber":81,"Velocity":47,"Duration":259995,"SoundDuration":259995,"Delta":14408762},{"NoteNumber":69,"Velocity":39,"Duration":259995,"SoundDuration":259995,"Delta":14408762},{"NoteNumber":63,"Velocity":26,"Duration":346660,"SoundDuration":346660,"Delta":14408762},{"NoteNumber":81,"Velocity":40,"Duration":86665,"SoundDuration":86665,"Delta":14668757},{"NoteNumber":75,"Velocity":42,"Duration":1339816,"SoundDuration":1339816,"Delta":14755423},{"NoteNumber":87,"Velocity":50,"Duration":1339816,"SoundDuration":1339816,"Delta":14755423},{"NoteNumber":41,"Velocity":35,"Duration":348513,"SoundDuration":348513,"Delta":14755423},{"NoteNumber":60,"Velocity":23,"Duration":329344,"SoundDuration":329344,"Delta":15103936},{"NoteNumber":57,"Velocity":23,"Duration":330979,"SoundDuration":330979,"Delta":15433280},{"NoteNumber":53,"Velocity":19,"Duration":330979,"SoundDuration":330979,"Delta":15433280},{"NoteNumber":60,"Velocity":23,"Duration":330979,"SoundDuration":330979,"Delta":15764260},{"NoteNumber":74,"Velocity":42,"Duration":658688,"SoundDuration":658688,"Delta":16095239},{"NoteNumber":86,"Velocity":50,"Duration":658688,"SoundDuration":658688,"Delta":16095239},{"NoteNumber":46,"Velocity":35,"Duration":329344,"SoundDuration":329344,"Delta":16095239},{"NoteNumber":62,"Velocity":24,"Duration":329344,"SoundDuration":329344,"Delta":16424584},{"NoteNumber":86,"Velocity":48,"Duration":302453,"SoundDuration":302453,"Delta":16753928},{"NoteNumber":74,"Velocity":40,"Duration":302453,"SoundDuration":302453,"Delta":16753928},{"NoteNumber":53,"Velocity":22,"Duration":336058,"SoundDuration":336058,"Delta":16753928},{"NoteNumber":58,"Velocity":27,"Duration":336058,"SoundDuration":336058,"Delta":16753928},{"NoteNumber":86,"Velocity":52,"Duration":322157,"SoundDuration":322157,"Delta":17089987},{"NoteNumber":74,"Velocity":44,"Duration":322157,"SoundDuration":322157,"Delta":17089987},{"NoteNumber":62,"Velocity":25,"Duration":357952,"SoundDuration":357952,"Delta":17089987},{"NoteNumber":91,"Velocity":57,"Duration":658688,"SoundDuration":658688,"Delta":17447940},{"NoteNumber":79,"Velocity":48,"Duration":658688,"SoundDuration":658688,"Delta":17447940},{"NoteNumber":40,"Velocity":35,"Duration":329344,"SoundDuration":329344,"Delta":17447940},{"NoteNumber":61,"Velocity":27,"Duration":329344,"SoundDuration":329344,"Delta":17777284},{"NoteNumber":79,"Velocity":38,"Duration":329344,"SoundDuration":329344,"Delta":18106628},{"NoteNumber":91,"Velocity":45,"Duration":679292,"SoundDuration":679292,"Delta":18106628},{"NoteNumber":52,"Velocity":25,"Duration":329344,"SoundDuration":329344,"Delta":18106628},{"NoteNumber":55,"Velocity":25,"Duration":329344,"SoundDuration":329344,"Delta":18106628},{"NoteNumber":58,"Velocity":30,"Duration":329344,"SoundDuration":329344,"Delta":18106628},{"NoteNumber":82,"Velocity":43,"Duration":349948,"SoundDuration":349948,"Delta":18435973},{"NoteNumber":61,"Velocity":27,"Duration":349948,"SoundDuration":349948,"Delta":18435973},{"NoteNumber":84,"Velocity":39,"Duration":971949,"SoundDuration":971949,"Delta":18785921},{"NoteNumber":82,"Velocity":47,"Duration":329344,"SoundDuration":329344,"Delta":18785921},{"NoteNumber":58,"Velocity":35,"Duration":329344,"SoundDuration":329344,"Delta":18785921},{"NoteNumber":53,"Velocity":35,"Duration":971949,"SoundDuration":971949,"Delta":18785921},{"NoteNumber":60,"Velocity":29,"Duration":971949,"SoundDuration":971949,"Delta":18785921},{"NoteNumber":81,"Velocity":38,"Duration":160651,"SoundDuration":160651,"Delta":19115266},{"NoteNumber":57,"Velocity":24,"Duration":160651,"SoundDuration":160651,"Delta":19115266},{"NoteNumber":79,"Velocity":38,"Duration":160651,"SoundDuration":160651,"Delta":19275917},{"NoteNumber":55,"Velocity":24,"Duration":160651,"SoundDuration":160651,"Delta":19275917},{"NoteNumber":81,"Velocity":43,"Duration":321302,"SoundDuration":321302,"Delta":19436568},{"NoteNumber":57,"Velocity":31,"Duration":321302,"SoundDuration":321302,"Delta":19436568},{"NoteNumber":75,"Velocity":37,"Duration":346660,"SoundDuration":346660,"Delta":19757871},{"NoteNumber":81,"Velocity":37,"Duration":346660,"SoundDuration":346660,"Delta":19757871},{"NoteNumber":89,"Velocity":44,"Duration":346660,"SoundDuration":346660,"Delta":19757871},{"NoteNumber":53,"Velocity":26,"Duration":346660,"SoundDuration":346660,"Delta":19757871},{"NoteNumber":60,"Velocity":26,"Duration":346660,"SoundDuration":346660,"Delta":19757871},{"NoteNumber":82,"Velocity":44,"Duration":1455269,"SoundDuration":1455269,"Delta":20104531},{"NoteNumber":74,"Velocity":37,"Duration":1455269,"SoundDuration":1455269,"Delta":20104531},{"NoteNumber":46,"Velocity":30,"Duration":171526,"SoundDuration":171526,"Delta":20104531},{"NoteNumber":58,"Velocity":25,"Duration":372115,"SoundDuration":372115,"Delta":20447584},{"NoteNumber":53,"Velocity":23,"Duration":370050,"SoundDuration":370050,"Delta":20819700},{"NoteNumber":50,"Velocity":18,"Duration":370050,"SoundDuration":370050,"Delta":20819700},{"NoteNumber":58,"Velocity":21,"Duration":370050,"SoundDuration":370050,"Delta":21189751},{"NoteNumber":74,"Velocity":50,"Duration":658688,"SoundDuration":658688,"Delta":21559801},{"NoteNumber":46,"Velocity":35,"Duration":164672,"SoundDuration":164672,"Delta":21559801},{"NoteNumber":62,"Velocity":24,"Duration":329344,"SoundDuration":329344,"Delta":21889146},{"NoteNumber":74,"Velocity":45,"Duration":296410,"SoundDuration":296410,"Delta":22218490},{"NoteNumber":58,"Velocity":27,"Duration":329344,"SoundDuration":329344,"Delta":22218490},{"NoteNumber":53,"Velocity":22,"Duration":329344,"SoundDuration":329344,"Delta":22218490},{"NoteNumber":74,"Velocity":45,"Duration":310380,"SoundDuration":310380,"Delta":22547835},{"NoteNumber":62,"Velocity":25,"Duration":344867,"SoundDuration":344867,"Delta":22547835},{"NoteNumber":70,"Velocity":50,"Duration":658688,"SoundDuration":658688,"Delta":22892702},{"NoteNumber":50,"Velocity":35,"Duration":164672,"SoundDuration":164672,"Delta":22892702},{"NoteNumber":65,"Velocity":27,"Duration":329344,"SoundDuration":329344,"Delta":23222046},{"NoteNumber":70,"Velocity":45,"Duration":658689,"SoundDuration":658689,"Delta":23551391},{"NoteNumber":58,"Velocity":30,"Duration":329344,"SoundDuration":329344,"Delta":23551391},{"NoteNumber":53,"Velocity":25,"Duration":329344,"SoundDuration":329344,"Delta":23551391},{"NoteNumber":65,"Velocity":27,"Duration":329344,"SoundDuration":329344,"Delta":23880735},{"NoteNumber":69,"Velocity":50,"Duration":658688,"SoundDuration":658688,"Delta":24210080},{"NoteNumber":48,"Velocity":35,"Duration":164672,"SoundDuration":164672,"Delta":24210080},{"NoteNumber":63,"Velocity":26,"Duration":329344,"SoundDuration":329344,"Delta":24539424},{"NoteNumber":69,"Velocity":47,"Duration":329344,"SoundDuration":329344,"Delta":24868769},{"NoteNumber":57,"Velocity":29,"Duration":329344,"SoundDuration":329344,"Delta":24868769},{"NoteNumber":53,"Velocity":24,"Duration":329344,"SoundDuration":329344,"Delta":24868769},{"NoteNumber":69,"Velocity":47,"Duration":259995,"SoundDuration":259995,"Delta":25198113},{"NoteNumber":63,"Velocity":26,"Duration":346660,"SoundDuration":346660,"Delta":25198113},{"NoteNumber":69,"Velocity":40,"Duration":86665,"SoundDuration":86665,"Delta":25458108},{"NoteNumber":75,"Velocity":50,"Duration":1339816,"SoundDuration":1339816,"Delta":25544773},{"NoteNumber":41,"Velocity":35,"Duration":174256,"SoundDuration":174256,"Delta":25544773},{"NoteNumber":60,"Velocity":23,"Duration":329344,"SoundDuration":329344,"Delta":25893286},{"NoteNumber":53,"Velocity":19,"Duration":330979,"SoundDuration":330979,"Delta":26222631},{"NoteNumber":57,"Velocity":23,"Duration":330979,"SoundDuration":330979,"Delta":26222631},{"NoteNumber":60,"Velocity":23,"Duration":330979,"SoundDuration":330979,"Delta":26553611},{"NoteNumber":74,"Velocity":50,"Duration":658688,"SoundDuration":658688,"Delta":26884590},{"NoteNumber":46,"Velocity":35,"Duration":164672,"SoundDuration":164672,"Delta":26884590},{"NoteNumber":62,"Velocity":24,"Duration":329344,"SoundDuration":329344,"Delta":27213935},{"NoteNumber":74,"Velocity":45,"Duration":296410,"SoundDuration":296410,"Delta":27543279},{"NoteNumber":53,"Velocity":22,"Duration":329344,"SoundDuration":329344,"Delta":27543279},{"NoteNumber":58,"Velocity":27,"Duration":329344,"SoundDuration":329344,"Delta":27543279},{"NoteNumber":74,"Velocity":45,"Duration":322157,"SoundDuration":322157,"Delta":27872624},{"NoteNumber":62,"Velocity":25,"Duration":357952,"SoundDuration":357952,"Delta":27872624},{"NoteNumber":74,"Velocity":50,"Duration":329344,"SoundDuration":329344,"Delta":28230576},{"NoteNumber":39,"Velocity":35,"Duration":164672,"SoundDuration":164672,"Delta":28230576},{"NoteNumber":67,"Velocity":50,"Duration":164672,"SoundDuration":164672,"Delta":28559921},{"NoteNumber":60,"Velocity":27,"Duration":329344,"SoundDuration":329344,"Delta":28559921},{"NoteNumber":67,"Velocity":45,"Duration":667106,"SoundDuration":667106,"Delta":28889265},{"NoteNumber":51,"Velocity":25,"Duration":329344,"SoundDuration":329344,"Delta":28889265},{"NoteNumber":58,"Velocity":30,"Duration":329344,"SoundDuration":329344,"Delta":28889265},{"NoteNumber":55,"Velocity":25,"Duration":329344,"SoundDuration":329344,"Delta":28889265},{"NoteNumber":60,"Velocity":27,"Duration":337762,"SoundDuration":337762,"Delta":29218610},{"NoteNumber":72,"Velocity":50,"Duration":329743,"SoundDuration":329743,"Delta":29556372},{"NoteNumber":40,"Velocity":35,"Duration":164871,"SoundDuration":164871,"Delta":29556372},{"NoteNumber":71,"Velocity":44,"Duration":160651,"SoundDuration":160651,"Delta":29886115},{"NoteNumber":60,"Velocity":26,"Duration":319179,"SoundDuration":319179,"Delta":29886115},{"NoteNumber":72,"Velocity":44,"Duration":158528,"SoundDuration":158528,"Delta":30046766},{"NoteNumber":71,"Velocity":44,"Duration":158528,"SoundDuration":158528,"Delta":30205295},{"NoteNumber":58,"Velocity":29,"Duration":317057,"SoundDuration":317057,"Delta":30205295},{"NoteNumber":55,"Velocity":24,"Duration":317057,"SoundDuration":317057,"Delta":30205295},{"NoteNumber":52,"Velocity":24,"Duration":317057,"SoundDuration":317057,"Delta":30205295},{"NoteNumber":72,"Velocity":47,"Duration":158528,"SoundDuration":158528,"Delta":30363823},{"NoteNumber":74,"Velocity":49,"Duration":173330,"SoundDuration":173330,"Delta":30522352},{"NoteNumber":60,"Velocity":26,"Duration":346660,"SoundDuration":346660,"Delta":30522352},{"NoteNumber":72,"Velocity":44,"Duration":173330,"SoundDuration":173330,"Delta":30695682},{"NoteNumber":65,"Velocity":50,"Duration":1469030,"SoundDuration":1469030,"Delta":30869013},{"NoteNumber":41,"Velocity":35,"Duration":171526,"SoundDuration":171526,"Delta":30869013},{"NoteNumber":53,"Velocity":20,"Duration":1125977,"SoundDuration":1125977,"Delta":31212066},{"NoteNumber":57,"Velocity":25,"Duration":372115,"SoundDuration":372115,"Delta":31212066},{"NoteNumber":60,"Velocity":32,"Duration":372064,"SoundDuration":372064,"Delta":31221368},{"NoteNumber":62,"Velocity":31,"Duration":372431,"SoundDuration":372431,"Delta":31584182},{"NoteNumber":58,"Velocity":23,"Duration":372431,"SoundDuration":372431,"Delta":31584182},{"NoteNumber":63,"Velocity":29,"Duration":381430,"SoundDuration":381430,"Delta":31956613},{"NoteNumber":60,"Velocity":21,"Duration":381430,"SoundDuration":381430,"Delta":31956613},{"NoteNumber":74,"Velocity":42,"Duration":658689,"SoundDuration":658689,"Delta":32338043},{"NoteNumber":86,"Velocity":50,"Duration":658689,"SoundDuration":658689,"Delta":32338043},{"NoteNumber":46,"Velocity":35,"Duration":329344,"SoundDuration":329344,"Delta":32338043},{"NoteNumber":62,"Velocity":24,"Duration":329344,"SoundDuration":329344,"Delta":32667388},{"NoteNumber":86,"Velocity":45,"Duration":296410,"SoundDuration":296410,"Delta":32996732},{"NoteNumber":74,"Velocity":38,"Duration":296410,"SoundDuration":296410,"Delta":32996732},{"NoteNumber":53,"Velocity":22,"Duration":329344,"SoundDuration":329344,"Delta":32996732},{"NoteNumber":58,"Velocity":27,"Duration":329344,"SoundDuration":329344,"Delta":32996732},{"NoteNumber":86,"Velocity":45,"Duration":310380,"SoundDuration":310380,"Delta":33326077},{"NoteNumber":74,"Velocity":38,"Duration":310380,"SoundDuration":310380,"Delta":33326077},{"NoteNumber":62,"Velocity":25,"Duration":344867,"SoundDuration":344867,"Delta":33326077},{"NoteNumber":82,"Velocity":50,"Duration":658689,"SoundDuration":658689,"Delta":33670944},{"NoteNumber":70,"Velocity":42,"Duration":658689,"SoundDuration":658689,"Delta":33670944},{"NoteNumber":50,"Velocity":35,"Duration":329344,"SoundDuration":329344,"Delta":33670944},{"NoteNumber":65,"Velocity":27,"Duration":329344,"SoundDuration":329344,"Delta":34000288},{"NoteNumber":70,"Velocity":38,"Duration":658688,"SoundDuration":658688,"Delta":34329633},{"NoteNumber":82,"Velocity":45,"Duration":658688,"SoundDuration":658688,"Delta":34329633},{"NoteNumber":53,"Velocity":25,"Duration":329344,"SoundDuration":329344,"Delta":34329633},{"NoteNumber":58,"Velocity":30,"Duration":329344,"SoundDuration":329344,"Delta":34329633},{"NoteNumber":65,"Velocity":27,"Duration":329344,"SoundDuration":329344,"Delta":34658977},{"NoteNumber":69,"Velocity":42,"Duration":658689,"SoundDuration":658689,"Delta":34988322},{"NoteNumber":81,"Velocity":50,"Duration":658689,"SoundDuration":658689,"Delta":34988322},{"NoteNumber":48,"Velocity":35,"Duration":329344,"SoundDuration":329344,"Delta":34988322},{"NoteNumber":63,"Velocity":26,"Duration":329344,"SoundDuration":329344,"Delta":35317666},{"NoteNumber":81,"Velocity":47,"Duration":329344,"SoundDuration":329344,"Delta":35647011},{"NoteNumber":69,"Velocity":39,"Duration":329344,"SoundDuration":329344,"Delta":35647011},{"NoteNumber":53,"Velocity":24,"Duration":329344,"SoundDuration":329344,"Delta":35647011},{"NoteNumber":57,"Velocity":29,"Duration":329344,"SoundDuration":329344,"Delta":35647011},{"NoteNumber":69,"Velocity":39,"Duration":259995,"SoundDuration":259995,"Delta":35976355},{"NoteNumber":81,"Velocity":47,"Duration":259995,"SoundDuration":259995,"Delta":35976355},{"NoteNumber":63,"Velocity":26,"Duration":346660,"SoundDuration":346660,"Delta":35976355},{"NoteNumber":81,"Velocity":40,"Duration":86665,"SoundDuration":86665,"Delta":36236351},{"NoteNumber":75,"Velocity":42,"Duration":1339816,"SoundDuration":1339816,"Delta":36323016},{"NoteNumber":87,"Velocity":50,"Duration":1339816,"SoundDuration":1339816,"Delta":36323016},{"NoteNumber":41,"Velocity":35,"Duration":348512,"SoundDuration":348512,"Delta":36323016},{"NoteNumber":60,"Velocity":23,"Duration":329344,"SoundDuration":329344,"Delta":36671529},{"NoteNumber":57,"Velocity":23,"Duration":330979,"SoundDuration":330979,"Delta":37000873},{"NoteNumber":53,"Velocity":19,"Duration":330979,"SoundDuration":330979,"Delta":37000873},{"NoteNumber":60,"Velocity":23,"Duration":330979,"SoundDuration":330979,"Delta":37331853},{"NoteNumber":74,"Velocity":42,"Duration":658689,"SoundDuration":658689,"Delta":37662832},{"NoteNumber":86,"Velocity":50,"Duration":658689,"SoundDuration":658689,"Delta":37662832},{"NoteNumber":46,"Velocity":35,"Duration":329344,"SoundDuration":329344,"Delta":37662832},{"NoteNumber":62,"Velocity":24,"Duration":329344,"SoundDuration":329344,"Delta":37992177},{"NoteNumber":74,"Velocity":40,"Duration":302453,"SoundDuration":302453,"Delta":38321521},{"NoteNumber":86,"Velocity":48,"Duration":302453,"SoundDuration":302453,"Delta":38321521},{"NoteNumber":53,"Velocity":22,"Duration":336058,"SoundDuration":336058,"Delta":38321521},{"NoteNumber":58,"Velocity":27,"Duration":336058,"SoundDuration":336058,"Delta":38321521},{"NoteNumber":86,"Velocity":52,"Duration":331654,"SoundDuration":331654,"Delta":38657580},{"NoteNumber":74,"Velocity":44,"Duration":331654,"SoundDuration":331654,"Delta":38657580},{"NoteNumber":62,"Velocity":25,"Duration":368504,"SoundDuration":368504,"Delta":38657580},{"NoteNumber":79,"Velocity":48,"Duration":658689,"SoundDuration":658689,"Delta":39026085},{"NoteNumber":91,"Velocity":57,"Duration":658689,"SoundDuration":658689,"Delta":39026085},{"NoteNumber":40,"Velocity":35,"Duration":329344,"SoundDuration":329344,"Delta":39026085},{"NoteNumber":61,"Velocity":27,"Duration":329344,"SoundDuration":329344,"Delta":39355430},{"NoteNumber":79,"Velocity":38,"Duration":329344,"SoundDuration":329344,"Delta":39684774},{"NoteNumber":91,"Velocity":45,"Duration":679292,"SoundDuration":679292,"Delta":39684774},{"NoteNumber":58,"Velocity":30,"Duration":329344,"SoundDuration":329344,"Delta":39684774},{"NoteNumber":55,"Velocity":25,"Duration":329344,"SoundDuration":329344,"Delta":39684774},{"NoteNumber":52,"Velocity":25,"Duration":329344,"SoundDuration":329344,"Delta":39684774},{"NoteNumber":82,"Velocity":44,"Duration":349947,"SoundDuration":349947,"Delta":40014119},{"NoteNumber":61,"Velocity":27,"Duration":349947,"SoundDuration":349947,"Delta":40014119},{"NoteNumber":84,"Velocity":39,"Duration":971949,"SoundDuration":971949,"Delta":40364067},{"NoteNumber":82,"Velocity":47,"Duration":329344,"SoundDuration":329344,"Delta":40364067},{"NoteNumber":60,"Velocity":29,"Duration":971949,"SoundDuration":971949,"Delta":40364067},{"NoteNumber":58,"Velocity":35,"Duration":329344,"SoundDuration":329344,"Delta":40364067},{"NoteNumber":53,"Velocity":35,"Duration":971949,"SoundDuration":971949,"Delta":40364067},{"NoteNumber":81,"Velocity":38,"Duration":160651,"SoundDuration":160651,"Delta":40693411},{"NoteNumber":57,"Velocity":24,"Duration":160651,"SoundDuration":160651,"Delta":40693411},{"NoteNumber":79,"Velocity":38,"Duration":160651,"SoundDuration":160651,"Delta":40854062},{"NoteNumber":55,"Velocity":24,"Duration":160651,"SoundDuration":160651,"Delta":40854062},{"NoteNumber":81,"Velocity":43,"Duration":321302,"SoundDuration":321302,"Delta":41014714},{"NoteNumber":57,"Velocity":31,"Duration":321302,"SoundDuration":321302,"Delta":41014714},{"NoteNumber":89,"Velocity":44,"Duration":346660,"SoundDuration":346660,"Delta":41336016},{"NoteNumber":75,"Velocity":37,"Duration":346660,"SoundDuration":346660,"Delta":41336016},{"NoteNumber":81,"Velocity":37,"Duration":346660,"SoundDuration":346660,"Delta":41336016},{"NoteNumber":53,"Velocity":26,"Duration":346660,"SoundDuration":346660,"Delta":41336016},{"NoteNumber":60,"Velocity":26,"Duration":346660,"SoundDuration":346660,"Delta":41336016},{"NoteNumber":82,"Velocity":44,"Duration":1455269,"SoundDuration":1455269,"Delta":41682677},{"NoteNumber":74,"Velocity":37,"Duration":1455269,"SoundDuration":1455269,"Delta":41682677},{"NoteNumber":46,"Velocity":30,"Duration":171526,"SoundDuration":171526,"Delta":41682677},{"NoteNumber":58,"Velocity":25,"Duration":372115,"SoundDuration":372115,"Delta":42025730},{"NoteNumber":50,"Velocity":18,"Duration":370050,"SoundDuration":370050,"Delta":42397846},{"NoteNumber":53,"Velocity":23,"Duration":370050,"SoundDuration":370050,"Delta":42397846},{"NoteNumber":58,"Velocity":21,"Duration":370050,"SoundDuration":370050,"Delta":42767896},{"NoteNumber":69,"Velocity":50,"Duration":658689,"SoundDuration":658689,"Delta":43137947},{"NoteNumber":74,"Velocity":60,"Duration":658689,"SoundDuration":658689,"Delta":43137947},{"NoteNumber":66,"Velocity":50,"Duration":658689,"SoundDuration":658689,"Delta":43137947},{"NoteNumber":50,"Velocity":42,"Duration":329344,"SoundDuration":329344,"Delta":43137947},{"NoteNumber":38,"Velocity":42,"Duration":329344,"SoundDuration":329344,"Delta":43137947},{"NoteNumber":62,"Velocity":28,"Duration":329344,"SoundDuration":329344,"Delta":43467291},{"NoteNumber":74,"Velocity":54,"Duration":296410,"SoundDuration":296410,"Delta":43796636},{"NoteNumber":69,"Velocity":45,"Duration":296410,"SoundDuration":296410,"Delta":43796636},{"NoteNumber":66,"Velocity":45,"Duration":296410,"SoundDuration":296410,"Delta":43796636},{"NoteNumber":57,"Velocity":32,"Duration":329344,"SoundDuration":329344,"Delta":43796636},{"NoteNumber":54,"Velocity":26,"Duration":329344,"SoundDuration":329344,"Delta":43796636},{"NoteNumber":69,"Velocity":45,"Duration":310380,"SoundDuration":310380,"Delta":44125980},{"NoteNumber":66,"Velocity":45,"Duration":310380,"SoundDuration":310380,"Delta":44125980},{"NoteNumber":74,"Velocity":54,"Duration":310380,"SoundDuration":310380,"Delta":44125980},{"NoteNumber":62,"Velocity":30,"Duration":344867,"SoundDuration":344867,"Delta":44125980},{"NoteNumber":62,"Velocity":50,"Duration":658689,"SoundDuration":658689,"Delta":44470847},{"NoteNumber":67,"Velocity":50,"Duration":658689,"SoundDuration":658689,"Delta":44470847},{"NoteNumber":70,"Velocity":60,"Duration":658689,"SoundDuration":658689,"Delta":44470847},{"NoteNumber":43,"Velocity":42,"Duration":329344,"SoundDuration":329344,"Delta":44470847},{"NoteNumber":58,"Velocity":32,"Duration":329344,"SoundDuration":329344,"Delta":44800192},{"NoteNumber":62,"Velocity":45,"Duration":658688,"SoundDuration":658688,"Delta":45129536},{"NoteNumber":67,"Velocity":45,"Duration":658688,"SoundDuration":658688,"Delta":45129536},{"NoteNumber":70,"Velocity":54,"Duration":658688,"SoundDuration":658688,"Delta":45129536},{"NoteNumber":55,"Velocity":36,"Duration":329344,"SoundDuration":329344,"Delta":45129536},{"NoteNumber":50,"Velocity":30,"Duration":329344,"SoundDuration":329344,"Delta":45129536},{"NoteNumber":58,"Velocity":32,"Duration":329344,"SoundDuration":329344,"Delta":45458881},{"NoteNumber":67,"Velocity":50,"Duration":658689,"SoundDuration":658689,"Delta":45788225},{"NoteNumber":62,"Velocity":50,"Duration":658689,"SoundDuration":658689,"Delta":45788225},{"NoteNumber":70,"Velocity":60,"Duration":494016,"SoundDuration":494016,"Delta":45788225},{"NoteNumber":43,"Velocity":42,"Duration":329344,"SoundDuration":329344,"Delta":45788225},{"NoteNumber":58,"Velocity":31,"Duration":329344,"SoundDuration":329344,"Delta":46117570},{"NoteNumber":72,"Velocity":60,"Duration":82336,"SoundDuration":82336,"Delta":46282242},{"NoteNumber":70,"Velocity":60,"Duration":82336,"SoundDuration":82336,"Delta":46364578},{"NoteNumber":62,"Velocity":46,"Duration":329344,"SoundDuration":329344,"Delta":46446914},{"NoteNumber":69,"Velocity":56,"Duration":329344,"SoundDuration":329344,"Delta":46446914},{"NoteNumber":55,"Velocity":34,"Duration":329344,"SoundDuration":329344,"Delta":46446914},{"NoteNumber":50,"Velocity":28,"Duration":329344,"SoundDuration":329344,"Delta":46446914},{"NoteNumber":67,"Velocity":56,"Duration":346660,"SoundDuration":346660,"Delta":46776259},{"NoteNumber":62,"Velocity":46,"Duration":346660,"SoundDuration":346660,"Delta":46776259},{"NoteNumber":58,"Velocity":31,"Duration":346660,"SoundDuration":346660,"Delta":46776259},{"NoteNumber":64,"Velocity":50,"Duration":1350880,"SoundDuration":1350880,"Delta":47122919},{"NoteNumber":67,"Velocity":50,"Duration":1350880,"SoundDuration":1350880,"Delta":47122919},{"NoteNumber":72,"Velocity":60,"Duration":1014368,"SoundDuration":1014368,"Delta":47122919},{"NoteNumber":36,"Velocity":42,"Duration":348512,"SoundDuration":348512,"Delta":47122919},{"NoteNumber":55,"Velocity":27,"Duration":329344,"SoundDuration":329344,"Delta":47471432},{"NoteNumber":48,"Velocity":22,"Duration":336511,"SoundDuration":336511,"Delta":47800777},{"NoteNumber":52,"Velocity":27,"Duration":336511,"SoundDuration":336511,"Delta":47800777},{"NoteNumber":70,"Velocity":60,"Duration":336511,"SoundDuration":336511,"Delta":48137288},{"NoteNumber":55,"Velocity":27,"Duration":336511,"SoundDuration":336511,"Delta":48137288},{"NoteNumber":65,"Velocity":50,"Duration":658689,"SoundDuration":658689,"Delta":48473800},{"NoteNumber":69,"Velocity":60,"Duration":658689,"SoundDuration":658689,"Delta":48473800},{"NoteNumber":60,"Velocity":50,"Duration":658689,"SoundDuration":658689,"Delta":48473800},{"NoteNumber":41,"Velocity":42,"Duration":329344,"SoundDuration":329344,"Delta":48473800},{"NoteNumber":57,"Velocity":28,"Duration":329344,"SoundDuration":329344,"Delta":48803144},{"NoteNumber":65,"Velocity":43,"Duration":296410,"SoundDuration":296410,"Delta":49132489},{"NoteNumber":60,"Velocity":43,"Duration":296410,"SoundDuration":296410,"Delta":49132489},{"NoteNumber":69,"Velocity":51,"Duration":296410,"SoundDuration":296410,"Delta":49132489},{"NoteNumber":48,"Velocity":25,"Duration":329344,"SoundDuration":329344,"Delta":49132489},{"NoteNumber":53,"Velocity":31,"Duration":329344,"SoundDuration":329344,"Delta":49132489},{"NoteNumber":60,"Velocity":42,"Duration":322157,"SoundDuration":322157,"Delta":49461833},{"NoteNumber":65,"Velocity":42,"Duration":322157,"SoundDuration":322157,"Delta":49461833},{"NoteNumber":69,"Velocity":50,"Duration":322157,"SoundDuration":322157,"Delta":49461833},{"NoteNumber":57,"Velocity":28,"Duration":357952,"SoundDuration":357952,"Delta":49461833},{"NoteNumber":67,"Velocity":55,"Duration":658689,"SoundDuration":658689,"Delta":49819786},{"NoteNumber":62,"Velocity":46,"Duration":658689,"SoundDuration":658689,"Delta":49819786},{"NoteNumber":65,"Velocity":46,"Duration":658689,"SoundDuration":658689,"Delta":49819786},{"NoteNumber":34,"Velocity":38,"Duration":329344,"SoundDuration":329344,"Delta":49819786},{"NoteNumber":55,"Velocity":29,"Duration":329344,"SoundDuration":329344,"Delta":50149130},{"NoteNumber":65,"Velocity":39,"Duration":667106,"SoundDuration":667106,"Delta":50478475},{"NoteNumber":62,"Velocity":39,"Duration":667106,"SoundDuration":667106,"Delta":50478475},{"NoteNumber":67,"Velocity":47,"Duration":667106,"SoundDuration":667106,"Delta":50478475},{"NoteNumber":50,"Velocity":26,"Duration":329344,"SoundDuration":329344,"Delta":50478475},{"NoteNumber":53,"Velocity":31,"Duration":329344,"SoundDuration":329344,"Delta":50478475},{"NoteNumber":55,"Velocity":27,"Duration":337761,"SoundDuration":337761,"Delta":50807819},{"NoteNumber":67,"Velocity":50,"Duration":329344,"SoundDuration":329344,"Delta":51145581},{"NoteNumber":60,"Velocity":42,"Duration":1318609,"SoundDuration":1318609,"Delta":51145581},{"NoteNumber":64,"Velocity":42,"Duration":650646,"SoundDuration":650646,"Delta":51145581},{"NoteNumber":36,"Velocity":35,"Duration":329344,"SoundDuration":329344,"Delta":51145581},{"NoteNumber":69,"Velocity":44,"Duration":160651,"SoundDuration":160651,"Delta":51474926},{"NoteNumber":48,"Velocity":26,"Duration":989265,"SoundDuration":989265,"Delta":51474926},{"NoteNumber":55,"Velocity":26,"Duration":321302,"SoundDuration":321302,"Delta":51474926},{"NoteNumber":70,"Velocity":44,"Duration":160651,"SoundDuration":160651,"Delta":51635577},{"NoteNumber":65,"Velocity":37,"Duration":321302,"SoundDuration":321302,"Delta":51796228},{"NoteNumber":69,"Velocity":44,"Duration":321302,"SoundDuration":321302,"Delta":51796228},{"NoteNumber":57,"Velocity":29,"Duration":321302,"SoundDuration":321302,"Delta":51796228},{"NoteNumber":67,"Velocity":49,"Duration":346660,"SoundDuration":346660,"Delta":52117531},{"NoteNumber":64,"Velocity":41,"Duration":346660,"SoundDuration":346660,"Delta":52117531},{"NoteNumber":58,"Velocity":26,"Duration":346660,"SoundDuration":346660,"Delta":52117531},{"NoteNumber":65,"Velocity":50,"Duration":1464342,"SoundDuration":1464342,"Delta":52464191},{"NoteNumber":41,"Velocity":35,"Duration":343052,"SoundDuration":343052,"Delta":52464191},{"NoteNumber":60,"Velocity":32,"Duration":372115,"SoundDuration":372115,"Delta":52807244},{"NoteNumber":53,"Velocity":20,"Duration":1121289,"SoundDuration":1121289,"Delta":52807244},{"NoteNumber":57,"Velocity":25,"Duration":372115,"SoundDuration":372115,"Delta":52807244},{"NoteNumber":62,"Velocity":31,"Duration":370050,"SoundDuration":370050,"Delta":53179360},{"NoteNumber":58,"Velocity":23,"Duration":370050,"SoundDuration":370050,"Delta":53179360},{"NoteNumber":63,"Velocity":29,"Duration":379122,"SoundDuration":379122,"Delta":53549411},{"NoteNumber":60,"Velocity":21,"Duration":379122,"SoundDuration":379122,"Delta":53549411},{"NoteNumber":74,"Velocity":42,"Duration":658689,"SoundDuration":658689,"Delta":53928534},{"NoteNumber":86,"Velocity":50,"Duration":658689,"SoundDuration":658689,"Delta":53928534},{"NoteNumber":46,"Velocity":35,"Duration":329344,"SoundDuration":329344,"Delta":53928534},{"NoteNumber":62,"Velocity":24,"Duration":329344,"SoundDuration":329344,"Delta":54257878},{"NoteNumber":74,"Velocity":38,"Duration":296410,"SoundDuration":296410,"Delta":54587223},{"NoteNumber":86,"Velocity":45,"Duration":296410,"SoundDuration":296410,"Delta":54587223},{"NoteNumber":58,"Velocity":27,"Duration":329344,"SoundDuration":329344,"Delta":54587223},{"NoteNumber":53,"Velocity":22,"Duration":329344,"SoundDuration":329344,"Delta":54587223},{"NoteNumber":74,"Velocity":38,"Duration":310380,"SoundDuration":310380,"Delta":54916567},{"NoteNumber":86,"Velocity":45,"Duration":310380,"SoundDuration":310380,"Delta":54916567},{"NoteNumber":62,"Velocity":25,"Duration":344867,"SoundDuration":344867,"Delta":54916567},{"NoteNumber":82,"Velocity":50,"Duration":658689,"SoundDuration":658689,"Delta":55261434},{"NoteNumber":70,"Velocity":42,"Duration":658689,"SoundDuration":658689,"Delta":55261434},{"NoteNumber":50,"Velocity":35,"Duration":329344,"SoundDuration":329344,"Delta":55261434},{"NoteNumber":65,"Velocity":27,"Duration":329344,"SoundDuration":329344,"Delta":55590779},{"NoteNumber":82,"Velocity":45,"Duration":658688,"SoundDuration":658688,"Delta":55920123},{"NoteNumber":70,"Velocity":38,"Duration":658688,"SoundDuration":658688,"Delta":55920123},{"NoteNumber":56,"Velocity":25,"Duration":329344,"SoundDuration":329344,"Delta":55920123},{"NoteNumber":58,"Velocity":30,"Duration":329344,"SoundDuration":329344,"Delta":55920123},{"NoteNumber":65,"Velocity":27,"Duration":329344,"SoundDuration":329344,"Delta":56249468},{"NoteNumber":82,"Velocity":50,"Duration":494016,"SoundDuration":494016,"Delta":56578812},{"NoteNumber":48,"Velocity":35,"Duration":329344,"SoundDuration":329344,"Delta":56578812},{"NoteNumber":63,"Velocity":26,"Duration":329344,"SoundDuration":329344,"Delta":56908157},{"NoteNumber":84,"Velocity":41,"Duration":82336,"SoundDuration":82336,"Delta":57072829},{"NoteNumber":82,"Velocity":40,"Duration":82336,"SoundDuration":82336,"Delta":57155165},{"NoteNumber":81,"Velocity":47,"Duration":174256,"SoundDuration":174256,"Delta":57237501},{"NoteNumber":55,"Velocity":24,"Duration":358704,"SoundDuration":358704,"Delta":57237501},{"NoteNumber":58,"Velocity":29,"Duration":358704,"SoundDuration":358704,"Delta":57237501},{"NoteNumber":82,"Velocity":47,"Duration":96861,"SoundDuration":96861,"Delta":57411758},{"NoteNumber":84,"Velocity":40,"Duration":43793,"SoundDuration":43793,"Delta":57508619},{"NoteNumber":86,"Velocity":40,"Duration":43793,"SoundDuration":43793,"Delta":57552412},{"NoteNumber":84,"Velocity":47,"Duration":175172,"SoundDuration":175172,"Delta":57596205},{"NoteNumber":63,"Velocity":26,"Duration":365818,"SoundDuration":365818,"Delta":57596205},{"NoteNumber":82,"Velocity":47,"Duration":190645,"SoundDuration":190645,"Delta":57771378},{"NoteNumber":79,"Velocity":42,"Duration":1339816,"SoundDuration":1339816,"Delta":57962023},{"NoteNumber":91,"Velocity":50,"Duration":1339816,"SoundDuration":1339816,"Delta":57962023},{"NoteNumber":52,"Velocity":35,"Duration":348512,"SoundDuration":348512,"Delta":57962023},{"NoteNumber":67,"Velocity":23,"Duration":329344,"SoundDuration":329344,"Delta":58310536},{"NoteNumber":61,"Velocity":23,"Duration":330979,"SoundDuration":330979,"Delta":58639881},{"NoteNumber":58,"Velocity":19,"Duration":330979,"SoundDuration":330979,"Delta":58639881},{"NoteNumber":67,"Velocity":23,"Duration":330979,"SoundDuration":330979,"Delta":58970860},{"NoteNumber":72,"Velocity":50,"Duration":658689,"SoundDuration":658689,"Delta":59301840},{"NoteNumber":64,"Velocity":42,"Duration":658689,"SoundDuration":658689,"Delta":59301840},{"NoteNumber":70,"Velocity":42,"Duration":658689,"SoundDuration":658689,"Delta":59301840},{"NoteNumber":43,"Velocity":35,"Duration":329344,"SoundDuration":329344,"Delta":59301840},{"NoteNumber":60,"Velocity":24,"Duration":329344,"SoundDuration":329344,"Delta":59631184},{"NoteNumber":70,"Velocity":40,"Duration":302453,"SoundDuration":302453,"Delta":59960529},{"NoteNumber":64,"Velocity":40,"Duration":302453,"SoundDuration":302453,"Delta":59960529},{"NoteNumber":72,"Velocity":48,"Duration":302453,"SoundDuration":302453,"Delta":59960529},{"NoteNumber":55,"Velocity":22,"Duration":336058,"SoundDuration":336058,"Delta":59960529},{"NoteNumber":58,"Velocity":27,"Duration":336058,"SoundDuration":336058,"Delta":59960529},{"NoteNumber":70,"Velocity":44,"Duration":322157,"SoundDuration":322157,"Delta":60296588},{"NoteNumber":72,"Velocity":52,"Duration":322157,"SoundDuration":322157,"Delta":60296588},{"NoteNumber":64,"Velocity":44,"Duration":322157,"SoundDuration":322157,"Delta":60296588},{"NoteNumber":60,"Velocity":25,"Duration":357952,"SoundDuration":357952,"Delta":60296588},{"NoteNumber":70,"Velocity":48,"Duration":658689,"SoundDuration":658689,"Delta":60654540},{"NoteNumber":77,"Velocity":57,"Duration":658689,"SoundDuration":658689,"Delta":60654540},{"NoteNumber":74,"Velocity":48,"Duration":658689,"SoundDuration":658689,"Delta":60654540},{"NoteNumber":65,"Velocity":48,"Duration":658689,"SoundDuration":658689,"Delta":60654540},{"NoteNumber":41,"Velocity":35,"Duration":329344,"SoundDuration":329344,"Delta":60654540},{"NoteNumber":62,"Velocity":27,"Duration":329344,"SoundDuration":329344,"Delta":60983885},{"NoteNumber":65,"Velocity":40,"Duration":679292,"SoundDuration":679292,"Delta":61313229},{"NoteNumber":70,"Velocity":40,"Duration":679292,"SoundDuration":679292,"Delta":61313229},{"NoteNumber":74,"Velocity":40,"Duration":679292,"SoundDuration":679292,"Delta":61313229},{"NoteNumber":77,"Velocity":45,"Duration":679292,"SoundDuration":679292,"Delta":61313229},{"NoteNumber":53,"Velocity":25,"Duration":329344,"SoundDuration":329344,"Delta":61313229},{"NoteNumber":58,"Velocity":30,"Duration":329344,"SoundDuration":329344,"Delta":61313229},{"NoteNumber":62,"Velocity":27,"Duration":349947,"SoundDuration":349947,"Delta":61642574},{"NoteNumber":72,"Velocity":39,"Duration":971949,"SoundDuration":971949,"Delta":61992522},{"NoteNumber":70,"Velocity":47,"Duration":329344,"SoundDuration":329344,"Delta":61992522},{"NoteNumber":41,"Velocity":35,"Duration":329344,"SoundDuration":329344,"Delta":61992522},{"NoteNumber":69,"Velocity":38,"Duration":160651,"SoundDuration":160651,"Delta":62321866},{"NoteNumber":60,"Velocity":24,"Duration":321302,"SoundDuration":321302,"Delta":62321866},{"NoteNumber":67,"Velocity":38,"Duration":160651,"SoundDuration":160651,"Delta":62482518},{"NoteNumber":69,"Velocity":43,"Duration":321302,"SoundDuration":321302,"Delta":62643169},{"NoteNumber":53,"Velocity":31,"Duration":321302,"SoundDuration":321302,"Delta":62643169},{"NoteNumber":63,"Velocity":37,"Duration":346660,"SoundDuration":346660,"Delta":62964471},{"NoteNumber":69,"Velocity":37,"Duration":346660,"SoundDuration":346660,"Delta":62964471},{"NoteNumber":77,"Velocity":44,"Duration":346660,"SoundDuration":346660,"Delta":62964471},{"NoteNumber":60,"Velocity":26,"Duration":346660,"SoundDuration":346660,"Delta":62964471},{"NoteNumber":70,"Velocity":44,"Duration":1462151,"SoundDuration":1462151,"Delta":63311132},{"NoteNumber":62,"Velocity":37,"Duration":1462151,"SoundDuration":1462151,"Delta":63311132},{"NoteNumber":46,"Velocity":30,"Duration":343052,"SoundDuration":343052,"Delta":63311132},{"NoteNumber":58,"Velocity":25,"Duration":372116,"SoundDuration":372116,"Delta":63654185},{"NoteNumber":53,"Velocity":23,"Duration":370050,"SoundDuration":370050,"Delta":64026301},{"NoteNumber":50,"Velocity":23,"Duration":370050,"SoundDuration":370050,"Delta":64026301},{"NoteNumber":58,"Velocity":21,"Duration":376931,"SoundDuration":376931,"Delta":64396351},{"NoteNumber":69,"Velocity":50,"Duration":658688,"SoundDuration":658688,"Delta":64773283},{"NoteNumber":74,"Velocity":60,"Duration":658688,"SoundDuration":658688,"Delta":64773283},{"NoteNumber":66,"Velocity":50,"Duration":658688,"SoundDuration":658688,"Delta":64773283},{"NoteNumber":38,"Velocity":42,"Duration":329344,"SoundDuration":329344,"Delta":64773283},{"NoteNumber":50,"Velocity":42,"Duration":329344,"SoundDuration":329344,"Delta":64773283},{"NoteNumber":62,"Velocity":28,"Duration":329344,"SoundDuration":329344,"Delta":65102628},{"NoteNumber":74,"Velocity":54,"Duration":296410,"SoundDuration":296410,"Delta":65431972},{"NoteNumber":66,"Velocity":45,"Duration":296410,"SoundDuration":296410,"Delta":65431972},{"NoteNumber":69,"Velocity":45,"Duration":296410,"SoundDuration":296410,"Delta":65431972},{"NoteNumber":54,"Velocity":26,"Duration":329344,"SoundDuration":329344,"Delta":65431972},{"NoteNumber":57,"Velocity":32,"Duration":329344,"SoundDuration":329344,"Delta":65431972},{"NoteNumber":74,"Velocity":54,"Duration":310380,"SoundDuration":310380,"Delta":65761317},{"NoteNumber":66,"Velocity":45,"Duration":310380,"SoundDuration":310380,"Delta":65761317},{"NoteNumber":69,"Velocity":45,"Duration":310380,"SoundDuration":310380,"Delta":65761317},{"NoteNumber":62,"Velocity":30,"Duration":344866,"SoundDuration":344866,"Delta":65761317},{"NoteNumber":70,"Velocity":60,"Duration":658688,"SoundDuration":658688,"Delta":66106184},{"NoteNumber":67,"Velocity":50,"Duration":658688,"SoundDuration":658688,"Delta":66106184},{"NoteNumber":62,"Velocity":50,"Duration":658688,"SoundDuration":658688,"Delta":66106184},{"NoteNumber":43,"Velocity":42,"Duration":329344,"SoundDuration":329344,"Delta":66106184},{"NoteNumber":58,"Velocity":32,"Duration":329344,"SoundDuration":329344,"Delta":66435528},{"NoteNumber":67,"Velocity":45,"Duration":658689,"SoundDuration":658689,"Delta":66764873},{"NoteNumber":70,"Velocity":54,"Duration":658689,"SoundDuration":658689,"Delta":66764873},{"NoteNumber":62,"Velocity":45,"Duration":658689,"SoundDuration":658689,"Delta":66764873},{"NoteNumber":50,"Velocity":30,"Duration":329344,"SoundDuration":329344,"Delta":66764873},{"NoteNumber":55,"Velocity":36,"Duration":329344,"SoundDuration":329344,"Delta":66764873},{"NoteNumber":58,"Velocity":32,"Duration":329344,"SoundDuration":329344,"Delta":67094217},{"NoteNumber":70,"Velocity":60,"Duration":494016,"SoundDuration":494016,"Delta":67423562},{"NoteNumber":67,"Velocity":50,"Duration":658688,"SoundDuration":658688,"Delta":67423562},{"NoteNumber":62,"Velocity":50,"Duration":658688,"SoundDuration":658688,"Delta":67423562},{"NoteNumber":43,"Velocity":42,"Duration":329344,"SoundDuration":329344,"Delta":67423562},{"NoteNumber":58,"Velocity":31,"Duration":329344,"SoundDuration":329344,"Delta":67752906},{"NoteNumber":72,"Velocity":60,"Duration":82336,"SoundDuration":82336,"Delta":67917579},{"NoteNumber":70,"Velocity":60,"Duration":82336,"SoundDuration":82336,"Delta":67999915},{"NoteNumber":69,"Velocity":56,"Duration":329344,"SoundDuration":329344,"Delta":68082251},{"NoteNumber":62,"Velocity":46,"Duration":329344,"SoundDuration":329344,"Delta":68082251},{"NoteNumber":55,"Velocity":34,"Duration":329344,"SoundDuration":329344,"Delta":68082251},{"NoteNumber":50,"Velocity":28,"Duration":329344,"SoundDuration":329344,"Delta":68082251},{"NoteNumber":67,"Velocity":56,"Duration":346660,"SoundDuration":346660,"Delta":68411595},{"NoteNumber":62,"Velocity":46,"Duration":346660,"SoundDuration":346660,"Delta":68411595},{"NoteNumber":58,"Velocity":31,"Duration":346660,"SoundDuration":346660,"Delta":68411595},{"NoteNumber":64,"Velocity":50,"Duration":1339816,"SoundDuration":1339816,"Delta":68758256},{"NoteNumber":72,"Velocity":60,"Duration":1008836,"SoundDuration":1008836,"Delta":68758256},{"NoteNumber":67,"Velocity":50,"Duration":1339816,"SoundDuration":1339816,"Delta":68758256},{"NoteNumber":36,"Velocity":42,"Duration":348512,"SoundDuration":348512,"Delta":68758256},{"NoteNumber":55,"Velocity":27,"Duration":329344,"SoundDuration":329344,"Delta":69106769},{"NoteNumber":52,"Velocity":27,"Duration":330979,"SoundDuration":330979,"Delta":69436113},{"NoteNumber":48,"Velocity":22,"Duration":330979,"SoundDuration":330979,"Delta":69436113},{"NoteNumber":70,"Velocity":60,"Duration":330979,"SoundDuration":330979,"Delta":69767093},{"NoteNumber":55,"Velocity":27,"Duration":330979,"SoundDuration":330979,"Delta":69767093},{"NoteNumber":65,"Velocity":50,"Duration":658688,"SoundDuration":658688,"Delta":70098072},{"NoteNumber":60,"Velocity":50,"Duration":658688,"SoundDuration":658688,"Delta":70098072},{"NoteNumber":69,"Velocity":60,"Duration":658688,"SoundDuration":658688,"Delta":70098072},{"NoteNumber":41,"Velocity":42,"Duration":329344,"SoundDuration":329344,"Delta":70098072},{"NoteNumber":57,"Velocity":28,"Duration":329344,"SoundDuration":329344,"Delta":70427417},{"NoteNumber":60,"Velocity":43,"Duration":296410,"SoundDuration":296410,"Delta":70756761},{"NoteNumber":65,"Velocity":43,"Duration":296410,"SoundDuration":296410,"Delta":70756761},{"NoteNumber":69,"Velocity":51,"Duration":296410,"SoundDuration":296410,"Delta":70756761},{"NoteNumber":53,"Velocity":31,"Duration":329344,"SoundDuration":329344,"Delta":70756761},{"NoteNumber":48,"Velocity":25,"Duration":329344,"SoundDuration":329344,"Delta":70756761},{"NoteNumber":69,"Velocity":50,"Duration":322157,"SoundDuration":322157,"Delta":71086106},{"NoteNumber":60,"Velocity":42,"Duration":322157,"SoundDuration":322157,"Delta":71086106},{"NoteNumber":65,"Velocity":42,"Duration":322157,"SoundDuration":322157,"Delta":71086106},{"NoteNumber":57,"Velocity":28,"Duration":357952,"SoundDuration":357952,"Delta":71086106},{"NoteNumber":67,"Velocity":55,"Duration":658688,"SoundDuration":658688,"Delta":71444058},{"NoteNumber":62,"Velocity":46,"Duration":658688,"SoundDuration":658688,"Delta":71444058},{"NoteNumber":65,"Velocity":46,"Duration":658688,"SoundDuration":658688,"Delta":71444058},{"NoteNumber":34,"Velocity":38,"Duration":329344,"SoundDuration":329344,"Delta":71444058},{"NoteNumber":55,"Velocity":29,"Duration":329344,"SoundDuration":329344,"Delta":71773403},{"NoteNumber":65,"Velocity":39,"Duration":667106,"SoundDuration":667106,"Delta":72102747},{"NoteNumber":67,"Velocity":47,"Duration":667106,"SoundDuration":667106,"Delta":72102747},{"NoteNumber":62,"Velocity":39,"Duration":667106,"SoundDuration":667106,"Delta":72102747},{"NoteNumber":53,"Velocity":31,"Duration":329344,"SoundDuration":329344,"Delta":72102747},{"NoteNumber":50,"Velocity":26,"Duration":329344,"SoundDuration":329344,"Delta":72102747},{"NoteNumber":55,"Velocity":27,"Duration":337761,"SoundDuration":337761,"Delta":72432092},{"NoteNumber":60,"Velocity":42,"Duration":1318610,"SoundDuration":1318610,"Delta":72769854},{"NoteNumber":64,"Velocity":42,"Duration":650647,"SoundDuration":650647,"Delta":72769854},{"NoteNumber":67,"Velocity":50,"Duration":329344,"SoundDuration":329344,"Delta":72769854},{"NoteNumber":36,"Velocity":35,"Duration":329344,"SoundDuration":329344,"Delta":72769854},{"NoteNumber":69,"Velocity":44,"Duration":160651,"SoundDuration":160651,"Delta":73099198},{"NoteNumber":55,"Velocity":26,"Duration":321302,"SoundDuration":321302,"Delta":73099198},{"NoteNumber":48,"Velocity":26,"Duration":989265,"SoundDuration":989265,"Delta":73099198},{"NoteNumber":70,"Velocity":44,"Duration":160651,"SoundDuration":160651,"Delta":73259850},{"NoteNumber":69,"Velocity":44,"Duration":321302,"SoundDuration":321302,"Delta":73420501},{"NoteNumber":65,"Velocity":37,"Duration":321302,"SoundDuration":321302,"Delta":73420501},{"NoteNumber":57,"Velocity":29,"Duration":321302,"SoundDuration":321302,"Delta":73420501},{"NoteNumber":67,"Velocity":49,"Duration":346660,"SoundDuration":346660,"Delta":73741803},{"NoteNumber":64,"Velocity":41,"Duration":346660,"SoundDuration":346660,"Delta":73741803},{"NoteNumber":58,"Velocity":26,"Duration":346660,"SoundDuration":346660,"Delta":73741803},{"NoteNumber":65,"Velocity":50,"Duration":1491695,"SoundDuration":1491695,"Delta":74088464},{"NoteNumber":41,"Velocity":35,"Duration":343052,"SoundDuration":343052,"Delta":74088464},{"NoteNumber":60,"Velocity":32,"Duration":372116,"SoundDuration":372116,"Delta":74431517},{"NoteNumber":53,"Velocity":20,"Duration":1148642,"SoundDuration":1148642,"Delta":74431517},{"NoteNumber":57,"Velocity":25,"Duration":372116,"SoundDuration":372116,"Delta":74431517},{"NoteNumber":62,"Velocity":31,"Duration":379123,"SoundDuration":379123,"Delta":74803633},{"NoteNumber":58,"Velocity":23,"Duration":379123,"SoundDuration":379123,"Delta":74803633},{"NoteNumber":63,"Velocity":29,"Duration":397403,"SoundDuration":397403,"Delta":75182756},{"NoteNumber":60,"Velocity":21,"Duration":397403,"SoundDuration":397403,"Delta":75182756},{"NoteNumber":74,"Velocity":42,"Duration":658688,"SoundDuration":658688,"Delta":75580159},{"NoteNumber":86,"Velocity":50,"Duration":658688,"SoundDuration":658688,"Delta":75580159},{"NoteNumber":46,"Velocity":35,"Duration":329344,"SoundDuration":329344,"Delta":75580159},{"NoteNumber":62,"Velocity":24,"Duration":329344,"SoundDuration":329344,"Delta":75909504},{"NoteNumber":86,"Velocity":45,"Duration":296410,"SoundDuration":296410,"Delta":76238848},{"NoteNumber":74,"Velocity":38,"Duration":296410,"SoundDuration":296410,"Delta":76238848},{"NoteNumber":58,"Velocity":27,"Duration":329344,"SoundDuration":329344,"Delta":76238848},{"NoteNumber":53,"Velocity":22,"Duration":329344,"SoundDuration":329344,"Delta":76238848},{"NoteNumber":74,"Velocity":38,"Duration":310380,"SoundDuration":310380,"Delta":76568193},{"NoteNumber":86,"Velocity":45,"Duration":310380,"SoundDuration":310380,"Delta":76568193},{"NoteNumber":62,"Velocity":25,"Duration":344866,"SoundDuration":344866,"Delta":76568193},{"NoteNumber":70,"Velocity":42,"Duration":658688,"SoundDuration":658688,"Delta":76913060},{"NoteNumber":82,"Velocity":50,"Duration":658688,"SoundDuration":658688,"Delta":76913060},{"NoteNumber":50,"Velocity":35,"Duration":329344,"SoundDuration":329344,"Delta":76913060},{"NoteNumber":65,"Velocity":27,"Duration":329344,"SoundDuration":329344,"Delta":77242404},{"NoteNumber":82,"Velocity":45,"Duration":658689,"SoundDuration":658689,"Delta":77571749},{"NoteNumber":70,"Velocity":38,"Duration":658689,"SoundDuration":658689,"Delta":77571749},{"NoteNumber":56,"Velocity":25,"Duration":329344,"SoundDuration":329344,"Delta":77571749},{"NoteNumber":58,"Velocity":30,"Duration":329344,"SoundDuration":329344,"Delta":77571749},{"NoteNumber":65,"Velocity":27,"Duration":329344,"SoundDuration":329344,"Delta":77901093},{"NoteNumber":82,"Velocity":50,"Duration":494016,"SoundDuration":494016,"Delta":78230438},{"NoteNumber":48,"Velocity":35,"Duration":329344,"SoundDuration":329344,"Delta":78230438},{"NoteNumber":63,"Velocity":26,"Duration":329344,"SoundDuration":329344,"Delta":78559782},{"NoteNumber":84,"Velocity":41,"Duration":82336,"SoundDuration":82336,"Delta":78724455},{"NoteNumber":82,"Velocity":40,"Duration":82336,"SoundDuration":82336,"Delta":78806791},{"NoteNumber":81,"Velocity":47,"Duration":174256,"SoundDuration":174256,"Delta":78889127},{"NoteNumber":58,"Velocity":29,"Duration":358704,"SoundDuration":358704,"Delta":78889127},{"NoteNumber":55,"Velocity":24,"Duration":358704,"SoundDuration":358704,"Delta":78889127},{"NoteNumber":82,"Velocity":47,"Duration":96861,"SoundDuration":96861,"Delta":79063383},{"NoteNumber":84,"Velocity":40,"Duration":43793,"SoundDuration":43793,"Delta":79160245},{"NoteNumber":86,"Velocity":40,"Duration":43793,"SoundDuration":43793,"Delta":79204038},{"NoteNumber":84,"Velocity":47,"Duration":175172,"SoundDuration":175172,"Delta":79247831},{"NoteNumber":63,"Velocity":26,"Duration":360197,"SoundDuration":360197,"Delta":79247831},{"NoteNumber":82,"Velocity":47,"Duration":185025,"SoundDuration":185025,"Delta":79423003},{"NoteNumber":79,"Velocity":42,"Duration":1347055,"SoundDuration":1347055,"Delta":79608029},{"NoteNumber":91,"Velocity":50,"Duration":1347055,"SoundDuration":1347055,"Delta":79608029},{"NoteNumber":52,"Velocity":35,"Duration":348512,"SoundDuration":348512,"Delta":79608029},{"NoteNumber":67,"Velocity":23,"Duration":329344,"SoundDuration":329344,"Delta":79956542},{"NoteNumber":58,"Velocity":19,"Duration":330979,"SoundDuration":330979,"Delta":80285886},{"NoteNumber":61,"Velocity":23,"Duration":330979,"SoundDuration":330979,"Delta":80285886},{"NoteNumber":67,"Velocity":23,"Duration":338218,"SoundDuration":338218,"Delta":80616866},{"NoteNumber":64,"Velocity":42,"Duration":658688,"SoundDuration":658688,"Delta":80955084},{"NoteNumber":70,"Velocity":42,"Duration":658688,"SoundDuration":658688,"Delta":80955084},{"NoteNumber":72,"Velocity":50,"Duration":658688,"SoundDuration":658688,"Delta":80955084},{"NoteNumber":43,"Velocity":35,"Duration":329344,"SoundDuration":329344,"Delta":80955084},{"NoteNumber":60,"Velocity":24,"Duration":329344,"SoundDuration":329344,"Delta":81284429},{"NoteNumber":70,"Velocity":40,"Duration":302453,"SoundDuration":302453,"Delta":81613773},{"NoteNumber":72,"Velocity":48,"Duration":302453,"SoundDuration":302453,"Delta":81613773},{"NoteNumber":64,"Velocity":40,"Duration":302453,"SoundDuration":302453,"Delta":81613773},{"NoteNumber":55,"Velocity":22,"Duration":336059,"SoundDuration":336059,"Delta":81613773},{"NoteNumber":58,"Velocity":27,"Duration":336059,"SoundDuration":336059,"Delta":81613773},{"NoteNumber":64,"Velocity":44,"Duration":322157,"SoundDuration":322157,"Delta":81949832},{"NoteNumber":70,"Velocity":44,"Duration":322157,"SoundDuration":322157,"Delta":81949832},{"NoteNumber":72,"Velocity":52,"Duration":322157,"SoundDuration":322157,"Delta":81949832},{"NoteNumber":60,"Velocity":25,"Duration":357952,"SoundDuration":357952,"Delta":81949832},{"NoteNumber":70,"Velocity":48,"Duration":658688,"SoundDuration":658688,"Delta":82307785},{"NoteNumber":65,"Velocity":48,"Duration":658688,"SoundDuration":658688,"Delta":82307785},{"NoteNumber":74,"Velocity":48,"Duration":658688,"SoundDuration":658688,"Delta":82307785},{"NoteNumber":77,"Velocity":57,"Duration":658688,"SoundDuration":658688,"Delta":82307785},{"NoteNumber":41,"Velocity":35,"Duration":329344,"SoundDuration":329344,"Delta":82307785},{"NoteNumber":62,"Velocity":27,"Duration":329344,"SoundDuration":329344,"Delta":82637129},{"NoteNumber":70,"Velocity":40,"Duration":679292,"SoundDuration":679292,"Delta":82966474},{"NoteNumber":65,"Velocity":40,"Duration":679292,"SoundDuration":679292,"Delta":82966474},{"NoteNumber":77,"Velocity":45,"Duration":679292,"SoundDuration":679292,"Delta":82966474},{"NoteNumber":74,"Velocity":40,"Duration":679292,"SoundDuration":679292,"Delta":82966474},{"NoteNumber":53,"Velocity":25,"Duration":329344,"SoundDuration":329344,"Delta":82966474},{"NoteNumber":58,"Velocity":30,"Duration":329344,"SoundDuration":329344,"Delta":82966474},{"NoteNumber":62,"Velocity":27,"Duration":349947,"SoundDuration":349947,"Delta":83295818},{"NoteNumber":70,"Velocity":47,"Duration":329344,"SoundDuration":329344,"Delta":83645766},{"NoteNumber":72,"Velocity":39,"Duration":971949,"SoundDuration":971949,"Delta":83645766},{"NoteNumber":41,"Velocity":35,"Duration":329344,"SoundDuration":329344,"Delta":83645766},{"NoteNumber":69,"Velocity":38,"Duration":160651,"SoundDuration":160651,"Delta":83975111},{"NoteNumber":60,"Velocity":24,"Duration":321302,"SoundDuration":321302,"Delta":83975111},{"NoteNumber":67,"Velocity":38,"Duration":160651,"SoundDuration":160651,"Delta":84135762},{"NoteNumber":69,"Velocity":43,"Duration":321302,"SoundDuration":321302,"Delta":84296413},{"NoteNumber":53,"Velocity":31,"Duration":321302,"SoundDuration":321302,"Delta":84296413},{"NoteNumber":69,"Velocity":37,"Duration":346660,"SoundDuration":346660,"Delta":84617716},{"NoteNumber":77,"Velocity":44,"Duration":346660,"SoundDuration":346660,"Delta":84617716},{"NoteNumber":63,"Velocity":37,"Duration":346660,"SoundDuration":346660,"Delta":84617716},{"NoteNumber":60,"Velocity":26,"Duration":346660,"SoundDuration":346660,"Delta":84617716},{"NoteNumber":70,"Velocity":44,"Duration":1389086,"SoundDuration":1389086,"Delta":84964376},{"NoteNumber":62,"Velocity":37,"Duration":1389086,"SoundDuration":1389086,"Delta":84964376},{"NoteNumber":46,"Velocity":30,"Duration":343052,"SoundDuration":343052,"Delta":84964376},{"NoteNumber":58,"Velocity":25,"Duration":359927,"SoundDuration":359927,"Delta":85307429},{"NoteNumber":50,"Velocity":23,"Duration":343052,"SoundDuration":343052,"Delta":85667357},{"NoteNumber":53,"Velocity":23,"Duration":343052,"SoundDuration":343052,"Delta":85667357},{"NoteNumber":58,"Velocity":21,"Duration":343052,"SoundDuration":343052,"Delta":86010410},{"NoteNumber":72,"Velocity":31,"Duration":1024354,"SoundDuration":1024354,"Delta":86353463},{"NoteNumber":70,"Velocity":37,"Duration":352236,"SoundDuration":352236,"Delta":86353463},{"NoteNumber":41,"Velocity":28,"Duration":352236,"SoundDuration":352236,"Delta":86353463},{"NoteNumber":69,"Velocity":30,"Duration":168029,"SoundDuration":168029,"Delta":86705700},{"NoteNumber":60,"Velocity":19,"Duration":336059,"SoundDuration":336059,"Delta":86705700},{"NoteNumber":67,"Velocity":30,"Duration":168029,"SoundDuration":168029,"Delta":86873729},{"NoteNumber":69,"Velocity":34,"Duration":336058,"SoundDuration":336058,"Delta":87041759},{"NoteNumber":53,"Velocity":24,"Duration":336058,"SoundDuration":336058,"Delta":87041759},{"NoteNumber":63,"Velocity":29,"Duration":359927,"SoundDuration":359927,"Delta":87377818},{"NoteNumber":77,"Velocity":35,"Duration":359927,"SoundDuration":359927,"Delta":87377818},{"NoteNumber":69,"Velocity":29,"Duration":359927,"SoundDuration":359927,"Delta":87377818},{"NoteNumber":60,"Velocity":20,"Duration":359927,"SoundDuration":359927,"Delta":87377818},{"NoteNumber":62,"Velocity":29,"Duration":1124580,"SoundDuration":1124580,"Delta":87737746},{"NoteNumber":70,"Velocity":35,"Duration":1124580,"SoundDuration":1124580,"Delta":87737746},{"NoteNumber":46,"Velocity":24,"Duration":177053,"SoundDuration":177053,"Delta":87737746},{"NoteNumber":58,"Velocity":20,"Duration":389762,"SoundDuration":389762,"Delta":88091853},{"NoteNumber":53,"Velocity":18,"Duration":380710,"SoundDuration":380710,"Delta":88481615},{"NoteNumber":58,"Velocity":29,"Duration":383546,"SoundDuration":383546,"Delta":88862326},{"NoteNumber":50,"Velocity":21,"Duration":383546,"SoundDuration":383546,"Delta":88862326},{"NoteNumber":60,"Velocity":26,"Duration":1180709,"SoundDuration":1180709,"Delta":89245872},{"NoteNumber":58,"Velocity":31,"Duration":387446,"SoundDuration":387446,"Delta":89245872},{"NoteNumber":29,"Velocity":23,"Duration":387446,"SoundDuration":387446,"Delta":89245872},{"NoteNumber":57,"Velocity":25,"Duration":188182,"SoundDuration":188182,"Delta":89633319},{"NoteNumber":48,"Velocity":16,"Duration":376364,"SoundDuration":376364,"Delta":89633319},{"NoteNumber":55,"Velocity":25,"Duration":188182,"SoundDuration":188182,"Delta":89821501},{"NoteNumber":57,"Velocity":28,"Duration":416898,"SoundDuration":416898,"Delta":90009683},{"NoteNumber":41,"Velocity":20,"Duration":416898,"SoundDuration":416898,"Delta":90009683},{"NoteNumber":51,"Velocity":24,"Duration":460616,"SoundDuration":460616,"Delta":90426582},{"NoteNumber":65,"Velocity":29,"Duration":460616,"SoundDuration":460616,"Delta":90426582},{"NoteNumber":57,"Velocity":24,"Duration":460616,"SoundDuration":460616,"Delta":90426582},{"NoteNumber":48,"Velocity":17,"Duration":460616,"SoundDuration":460616,"Delta":90426582},{"NoteNumber":50,"Velocity":24,"Duration":1250695,"SoundDuration":1250695,"Delta":90887199},{"NoteNumber":58,"Velocity":29,"Duration":1250695,"SoundDuration":1250695,"Delta":90887199},{"NoteNumber":46,"Velocity":20,"Duration":1250695,"SoundDuration":1250695,"Delta":90887199},{"NoteNumber":34,"Velocity":20,"Duration":1250695,"SoundDuration":1250695,"Delta":90887199},{"NoteNumber":41,"Velocity":20,"Duration":1250695,"SoundDuration":1250695,"Delta":90887199},{"NoteNumber":74,"Velocity":50,"Duration":494016,"SoundDuration":494016,"Delta":92886397},{"NoteNumber":46,"Velocity":30,"Duration":1332900,"SoundDuration":1332900,"Delta":92886397},{"NoteNumber":62,"Velocity":26,"Duration":164672,"SoundDuration":164672,"Delta":93051069},{"NoteNumber":65,"Velocity":26,"Duration":164672,"SoundDuration":164672,"Delta":93215742},{"NoteNumber":53,"Velocity":24,"Duration":658688,"SoundDuration":658688,"Delta":93215742},{"NoteNumber":74,"Velocity":45,"Duration":164672,"SoundDuration":164672,"Delta":93380414},{"NoteNumber":74,"Velocity":50,"Duration":501778,"SoundDuration":501778,"Delta":93545086},{"NoteNumber":62,"Velocity":26,"Duration":164672,"SoundDuration":164672,"Delta":93709758},{"NoteNumber":65,"Velocity":26,"Duration":172433,"SoundDuration":172433,"Delta":93874431},{"NoteNumber":53,"Velocity":24,"Duration":344866,"SoundDuration":344866,"Delta":93874431},{"NoteNumber":74,"Velocity":47,"Duration":172433,"SoundDuration":172433,"Delta":94046864},{"NoteNumber":72,"Velocity":50,"Duration":494016,"SoundDuration":494016,"Delta":94219298},{"NoteNumber":50,"Velocity":30,"Duration":1317378,"SoundDuration":1317378,"Delta":94219298},{"NoteNumber":62,"Velocity":26,"Duration":164672,"SoundDuration":164672,"Delta":94383970},{"NoteNumber":65,"Velocity":26,"Duration":164672,"SoundDuration":164672,"Delta":94548642},{"NoteNumber":53,"Velocity":24,"Duration":658688,"SoundDuration":658688,"Delta":94548642},{"NoteNumber":70,"Velocity":45,"Duration":164672,"SoundDuration":164672,"Delta":94713314},{"NoteNumber":70,"Velocity":50,"Duration":494016,"SoundDuration":494016,"Delta":94877987},{"NoteNumber":62,"Velocity":26,"Duration":164672,"SoundDuration":164672,"Delta":95042659},{"NoteNumber":65,"Velocity":26,"Duration":164672,"SoundDuration":164672,"Delta":95207331},{"NoteNumber":53,"Velocity":24,"Duration":329344,"SoundDuration":329344,"Delta":95207331},{"NoteNumber":72,"Velocity":46,"Duration":164672,"SoundDuration":164672,"Delta":95372003},{"NoteNumber":70,"Velocity":50,"Duration":484399,"SoundDuration":484399,"Delta":95536676},{"NoteNumber":48,"Velocity":30,"Duration":1320141,"SoundDuration":1320141,"Delta":95536676},{"NoteNumber":63,"Velocity":28,"Duration":159863,"SoundDuration":159863,"Delta":95696539},{"NoteNumber":65,"Velocity":28,"Duration":164672,"SoundDuration":164672,"Delta":95856403},{"NoteNumber":53,"Velocity":24,"Duration":658688,"SoundDuration":658688,"Delta":95856403},{"NoteNumber":69,"Velocity":48,"Duration":164672,"SoundDuration":164672,"Delta":96021075},{"NoteNumber":72,"Velocity":52,"Duration":494016,"SoundDuration":494016,"Delta":96185747},{"NoteNumber":65,"Velocity":28,"Duration":164672,"SoundDuration":164672,"Delta":96350419},{"NoteNumber":69,"Velocity":29,"Duration":164672,"SoundDuration":164672,"Delta":96515092},{"NoteNumber":53,"Velocity":24,"Duration":341725,"SoundDuration":341725,"Delta":96515092},{"NoteNumber":74,"Velocity":50,"Duration":177053,"SoundDuration":177053,"Delta":96679764},{"NoteNumber":75,"Velocity":55,"Duration":513185,"SoundDuration":513185,"Delta":96856818},{"NoteNumber":41,"Velocity":30,"Duration":1339816,"SoundDuration":1339816,"Delta":96856818},{"NoteNumber":69,"Velocity":32,"Duration":174256,"SoundDuration":174256,"Delta":97031074},{"NoteNumber":72,"Velocity":32,"Duration":164672,"SoundDuration":164672,"Delta":97205331},{"NoteNumber":53,"Velocity":24,"Duration":660324,"SoundDuration":660324,"Delta":97205331},{"NoteNumber":78,"Velocity":52,"Duration":164672,"SoundDuration":164672,"Delta":97370003},{"NoteNumber":79,"Velocity":57,"Duration":496469,"SoundDuration":496469,"Delta":97534675},{"NoteNumber":69,"Velocity":34,"Duration":165489,"SoundDuration":165489,"Delta":97700165},{"NoteNumber":72,"Velocity":34,"Duration":165489,"SoundDuration":165489,"Delta":97865655},{"NoteNumber":53,"Velocity":24,"Duration":330979,"SoundDuration":330979,"Delta":97865655},{"NoteNumber":75,"Velocity":50,"Duration":165489,"SoundDuration":165489,"Delta":98031144},{"NoteNumber":74,"Velocity":50,"Duration":494016,"SoundDuration":494016,"Delta":98196634},{"NoteNumber":50,"Velocity":30,"Duration":1332900,"SoundDuration":1332900,"Delta":98196634},{"NoteNumber":66,"Velocity":26,"Duration":164672,"SoundDuration":164672,"Delta":98361306},{"NoteNumber":69,"Velocity":26,"Duration":164672,"SoundDuration":164672,"Delta":98525979},{"NoteNumber":57,"Velocity":24,"Duration":658688,"SoundDuration":658688,"Delta":98525979},{"NoteNumber":75,"Velocity":45,"Duration":164672,"SoundDuration":164672,"Delta":98690651},{"NoteNumber":74,"Velocity":50,"Duration":501778,"SoundDuration":501778,"Delta":98855323},{"NoteNumber":66,"Velocity":26,"Duration":164672,"SoundDuration":164672,"Delta":99019995},{"NoteNumber":69,"Velocity":26,"Duration":172433,"SoundDuration":172433,"Delta":99184668},{"NoteNumber":57,"Velocity":24,"Duration":344866,"SoundDuration":344866,"Delta":99184668},{"NoteNumber":72,"Velocity":47,"Duration":172433,"SoundDuration":172433,"Delta":99357101},{"NoteNumber":72,"Velocity":50,"Duration":494016,"SoundDuration":494016,"Delta":99529535},{"NoteNumber":50,"Velocity":30,"Duration":1317378,"SoundDuration":1317378,"Delta":99529535},{"NoteNumber":65,"Velocity":26,"Duration":164672,"SoundDuration":164672,"Delta":99694207},{"NoteNumber":68,"Velocity":26,"Duration":164672,"SoundDuration":164672,"Delta":99858879},{"NoteNumber":56,"Velocity":24,"Duration":658688,"SoundDuration":658688,"Delta":99858879},{"NoteNumber":72,"Velocity":45,"Duration":164672,"SoundDuration":164672,"Delta":100023551},{"NoteNumber":71,"Velocity":50,"Duration":494016,"SoundDuration":494016,"Delta":100188224},{"NoteNumber":65,"Velocity":26,"Duration":164672,"SoundDuration":164672,"Delta":100352896},{"NoteNumber":68,"Velocity":26,"Duration":164672,"SoundDuration":164672,"Delta":100517568},{"NoteNumber":56,"Velocity":24,"Duration":329344,"SoundDuration":329344,"Delta":100517568},{"NoteNumber":71,"Velocity":46,"Duration":164672,"SoundDuration":164672,"Delta":100682240},{"NoteNumber":71,"Velocity":50,"Duration":509539,"SoundDuration":509539,"Delta":100846913},{"NoteNumber":51,"Velocity":30,"Duration":1345281,"SoundDuration":1345281,"Delta":100846913},{"NoteNumber":63,"Velocity":28,"Duration":172433,"SoundDuration":172433,"Delta":101019346},{"NoteNumber":67,"Velocity":28,"Duration":164672,"SoundDuration":164672,"Delta":101191780},{"NoteNumber":55,"Velocity":24,"Duration":658688,"SoundDuration":658688,"Delta":101191780},{"NoteNumber":72,"Velocity":48,"Duration":164672,"SoundDuration":164672,"Delta":101356452},{"NoteNumber":75,"Velocity":52,"Duration":494016,"SoundDuration":494016,"Delta":101521124},{"NoteNumber":63,"Velocity":28,"Duration":164672,"SoundDuration":164672,"Delta":101685796},{"NoteNumber":66,"Velocity":29,"Duration":164672,"SoundDuration":164672,"Delta":101850469},{"NoteNumber":54,"Velocity":24,"Duration":341725,"SoundDuration":341725,"Delta":101850469},{"NoteNumber":72,"Velocity":45,"Duration":177053,"SoundDuration":177053,"Delta":102015141},{"NoteNumber":70,"Velocity":51,"Duration":518272,"SoundDuration":518272,"Delta":102192195},{"NoteNumber":41,"Velocity":30,"Duration":1385058,"SoundDuration":1385058,"Delta":102192195},{"NoteNumber":62,"Velocity":29,"Duration":174256,"SoundDuration":174256,"Delta":102366451},{"NoteNumber":65,"Velocity":26,"Duration":169759,"SoundDuration":169759,"Delta":102540708},{"NoteNumber":53,"Velocity":24,"Duration":688032,"SoundDuration":688032,"Delta":102540708},{"NoteNumber":70,"Velocity":35,"Duration":169759,"SoundDuration":169759,"Delta":102710468},{"NoteNumber":69,"Velocity":40,"Duration":522769,"SoundDuration":522769,"Delta":102880228},{"NoteNumber":60,"Velocity":24,"Duration":174256,"SoundDuration":174256,"Delta":103054484},{"NoteNumber":65,"Velocity":24,"Duration":174256,"SoundDuration":174256,"Delta":103228741},{"NoteNumber":53,"Velocity":24,"Duration":348512,"SoundDuration":348512,"Delta":103228741},{"NoteNumber":69,"Velocity":42,"Duration":174256,"SoundDuration":174256,"Delta":103402997},{"NoteNumber":74,"Velocity":50,"Duration":494016,"SoundDuration":494016,"Delta":103577254},{"NoteNumber":46,"Velocity":30,"Duration":1332900,"SoundDuration":1332900,"Delta":103577254},{"NoteNumber":62,"Velocity":26,"Duration":164672,"SoundDuration":164672,"Delta":103741926},{"NoteNumber":65,"Velocity":26,"Duration":164672,"SoundDuration":164672,"Delta":103906598},{"NoteNumber":53,"Velocity":24,"Duration":658688,"SoundDuration":658688,"Delta":103906598},{"NoteNumber":74,"Velocity":45,"Duration":164672,"SoundDuration":164672,"Delta":104071270},{"NoteNumber":74,"Velocity":50,"Duration":501778,"SoundDuration":501778,"Delta":104235943},{"NoteNumber":62,"Velocity":26,"Duration":164672,"SoundDuration":164672,"Delta":104400615},{"NoteNumber":65,"Velocity":26,"Duration":172433,"SoundDuration":172433,"Delta":104565287},{"NoteNumber":53,"Velocity":24,"Duration":344866,"SoundDuration":344866,"Delta":104565287},{"NoteNumber":74,"Velocity":47,"Duration":172433,"SoundDuration":172433,"Delta":104737721},{"NoteNumber":72,"Velocity":50,"Duration":494016,"SoundDuration":494016,"Delta":104910154},{"NoteNumber":50,"Velocity":30,"Duration":1317378,"SoundDuration":1317378,"Delta":104910154},{"NoteNumber":62,"Velocity":26,"Duration":164672,"SoundDuration":164672,"Delta":105074826},{"NoteNumber":65,"Velocity":26,"Duration":164672,"SoundDuration":164672,"Delta":105239499},{"NoteNumber":53,"Velocity":24,"Duration":658688,"SoundDuration":658688,"Delta":105239499},{"NoteNumber":70,"Velocity":45,"Duration":164672,"SoundDuration":164672,"Delta":105404171},{"NoteNumber":70,"Velocity":50,"Duration":494016,"SoundDuration":494016,"Delta":105568843},{"NoteNumber":62,"Velocity":26,"Duration":164672,"SoundDuration":164672,"Delta":105733515},{"NoteNumber":65,"Velocity":26,"Duration":164672,"SoundDuration":164672,"Delta":105898188},{"NoteNumber":53,"Velocity":24,"Duration":329344,"SoundDuration":329344,"Delta":105898188},{"NoteNumber":72,"Velocity":46,"Duration":164672,"SoundDuration":164672,"Delta":106062860},{"NoteNumber":70,"Velocity":50,"Duration":484399,"SoundDuration":484399,"Delta":106227532},{"NoteNumber":48,"Velocity":30,"Duration":1320141,"SoundDuration":1320141,"Delta":106227532},{"NoteNumber":63,"Velocity":28,"Duration":159863,"SoundDuration":159863,"Delta":106387396},{"NoteNumber":65,"Velocity":28,"Duration":164672,"SoundDuration":164672,"Delta":106547259},{"NoteNumber":53,"Velocity":24,"Duration":658688,"SoundDuration":658688,"Delta":106547259},{"NoteNumber":69,"Velocity":48,"Duration":164672,"SoundDuration":164672,"Delta":106711931},{"NoteNumber":72,"Velocity":52,"Duration":494016,"SoundDuration":494016,"Delta":106876604},{"NoteNumber":65,"Velocity":28,"Duration":164672,"SoundDuration":164672,"Delta":107041276},{"NoteNumber":69,"Velocity":29,"Duration":164672,"SoundDuration":164672,"Delta":107205948},{"NoteNumber":53,"Velocity":24,"Duration":341725,"SoundDuration":341725,"Delta":107205948},{"NoteNumber":74,"Velocity":50,"Duration":177053,"SoundDuration":177053,"Delta":107370620},{"NoteNumber":75,"Velocity":55,"Duration":513185,"SoundDuration":513185,"Delta":107547674},{"NoteNumber":41,"Velocity":30,"Duration":1339816,"SoundDuration":1339816,"Delta":107547674},{"NoteNumber":69,"Velocity":32,"Duration":174256,"SoundDuration":174256,"Delta":107721931},{"NoteNumber":72,"Velocity":32,"Duration":164672,"SoundDuration":164672,"Delta":107896187},{"NoteNumber":53,"Velocity":24,"Duration":660324,"SoundDuration":660324,"Delta":107896187},{"NoteNumber":78,"Velocity":52,"Duration":164672,"SoundDuration":164672,"Delta":108060859},{"NoteNumber":79,"Velocity":57,"Duration":496469,"SoundDuration":496469,"Delta":108225532},{"NoteNumber":69,"Velocity":34,"Duration":165489,"SoundDuration":165489,"Delta":108391021},{"NoteNumber":72,"Velocity":34,"Duration":165489,"SoundDuration":165489,"Delta":108556511},{"NoteNumber":53,"Velocity":24,"Duration":330979,"SoundDuration":330979,"Delta":108556511},{"NoteNumber":75,"Velocity":50,"Duration":165489,"SoundDuration":165489,"Delta":108722001},{"NoteNumber":74,"Velocity":50,"Duration":494016,"SoundDuration":494016,"Delta":108887491},{"NoteNumber":50,"Velocity":30,"Duration":1332900,"SoundDuration":1332900,"Delta":108887491},{"NoteNumber":62,"Velocity":26,"Duration":164672,"SoundDuration":164672,"Delta":109052163},{"NoteNumber":65,"Velocity":26,"Duration":164672,"SoundDuration":164672,"Delta":109216835},{"NoteNumber":53,"Velocity":24,"Duration":658688,"SoundDuration":658688,"Delta":109216835},{"NoteNumber":69,"Velocity":45,"Duration":164672,"SoundDuration":164672,"Delta":109381507},{"NoteNumber":70,"Velocity":50,"Duration":501778,"SoundDuration":501778,"Delta":109546180},{"NoteNumber":62,"Velocity":26,"Duration":164672,"SoundDuration":164672,"Delta":109710852},{"NoteNumber":65,"Velocity":26,"Duration":172433,"SoundDuration":172433,"Delta":109875524},{"NoteNumber":58,"Velocity":24,"Duration":344866,"SoundDuration":344866,"Delta":109875524},{"NoteNumber":72,"Velocity":53,"Duration":172433,"SoundDuration":172433,"Delta":110047958},{"NoteNumber":73,"Velocity":58,"Duration":494016,"SoundDuration":494016,"Delta":110220391},{"NoteNumber":52,"Velocity":34,"Duration":1317378,"SoundDuration":1317378,"Delta":110220391},{"NoteNumber":67,"Velocity":38,"Duration":164672,"SoundDuration":164672,"Delta":110378202},{"NoteNumber":70,"Velocity":38,"Duration":164672,"SoundDuration":164672,"Delta":110549736},{"NoteNumber":58,"Velocity":29,"Duration":658688,"SoundDuration":658688,"Delta":110549736},{"NoteNumber":61,"Velocity":29,"Duration":658688,"SoundDuration":658688,"Delta":110549736},{"NoteNumber":79,"Velocity":45,"Duration":164672,"SoundDuration":164672,"Delta":110707547},{"NoteNumber":81,"Velocity":55,"Duration":494016,"SoundDuration":494016,"Delta":110879080},{"NoteNumber":70,"Velocity":35,"Duration":164672,"SoundDuration":164672,"Delta":111043752},{"NoteNumber":73,"Velocity":35,"Duration":164672,"SoundDuration":164672,"Delta":111208425},{"NoteNumber":58,"Velocity":24,"Duration":329344,"SoundDuration":329344,"Delta":111208425},{"NoteNumber":61,"Velocity":24,"Duration":329344,"SoundDuration":329344,"Delta":111208425},{"NoteNumber":82,"Velocity":46,"Duration":164672,"SoundDuration":164672,"Delta":111366236},{"NoteNumber":72,"Velocity":50,"Duration":509539,"SoundDuration":509539,"Delta":111537769},{"NoteNumber":53,"Velocity":30,"Duration":1345281,"SoundDuration":1345281,"Delta":111537769},{"NoteNumber":65,"Velocity":28,"Duration":172433,"SoundDuration":172433,"Delta":111710203},{"NoteNumber":70,"Velocity":28,"Duration":164672,"SoundDuration":164672,"Delta":111882636},{"NoteNumber":60,"Velocity":24,"Duration":658688,"SoundDuration":658688,"Delta":111882636},{"NoteNumber":74,"Velocity":43,"Duration":164672,"SoundDuration":164672,"Delta":112047308},{"NoteNumber":75,"Velocity":49,"Duration":494016,"SoundDuration":494016,"Delta":112211981},{"NoteNumber":65,"Velocity":28,"Duration":164672,"SoundDuration":164672,"Delta":112376653},{"NoteNumber":69,"Velocity":29,"Duration":164672,"SoundDuration":164672,"Delta":112541325},{"NoteNumber":63,"Velocity":24,"Duration":341725,"SoundDuration":341725,"Delta":112541325},{"NoteNumber":77,"Velocity":43,"Duration":177053,"SoundDuration":177053,"Delta":112705997},{"NoteNumber":70,"Velocity":50,"Duration":518272,"SoundDuration":518272,"Delta":112883051},{"NoteNumber":62,"Velocity":30,"Duration":348512,"SoundDuration":348512,"Delta":112883051},{"NoteNumber":58,"Velocity":30,"Duration":688032,"SoundDuration":688032,"Delta":112883051},{"NoteNumber":62,"Velocity":29,"Duration":513776,"SoundDuration":513776,"Delta":113057308},{"NoteNumber":65,"Velocity":26,"Duration":169759,"SoundDuration":169759,"Delta":113231564},{"NoteNumber":69,"Velocity":32,"Duration":169759,"SoundDuration":169759,"Delta":113401324},{"NoteNumber":70,"Velocity":38,"Duration":522582,"SoundDuration":522582,"Delta":113564011},{"NoteNumber":62,"Velocity":24,"Duration":174256,"SoundDuration":174256,"Delta":113745341},{"NoteNumber":65,"Velocity":24,"Duration":174256,"SoundDuration":174256,"Delta":113919597},{"NoteNumber":72,"Velocity":39,"Duration":174256,"SoundDuration":174256,"Delta":114093854},{"NoteNumber":74,"Velocity":50,"Duration":494016,"SoundDuration":494016,"Delta":114268110},{"NoteNumber":46,"Velocity":30,"Duration":1332900,"SoundDuration":1332900,"Delta":114268110},{"NoteNumber":62,"Velocity":26,"Duration":164672,"SoundDuration":164672,"Delta":114432782},{"NoteNumber":65,"Velocity":26,"Duration":164672,"SoundDuration":164672,"Delta":114597455},{"NoteNumber":53,"Velocity":24,"Duration":658688,"SoundDuration":658688,"Delta":114597455},{"NoteNumber":74,"Velocity":45,"Duration":164672,"SoundDuration":164672,"Delta":114762127},{"NoteNumber":74,"Velocity":50,"Duration":501778,"SoundDuration":501778,"Delta":114926799},{"NoteNumber":62,"Velocity":26,"Duration":164672,"SoundDuration":164672,"Delta":115091471},{"NoteNumber":65,"Velocity":26,"Duration":172433,"SoundDuration":172433,"Delta":115256144},{"NoteNumber":53,"Velocity":24,"Duration":344866,"SoundDuration":344866,"Delta":115256144},{"NoteNumber":74,"Velocity":47,"Duration":172433,"SoundDuration":172433,"Delta":115428577},{"NoteNumber":72,"Velocity":50,"Duration":494016,"SoundDuration":494016,"Delta":115601011},{"NoteNumber":50,"Velocity":30,"Duration":1317378,"SoundDuration":1317378,"Delta":115601011},{"NoteNumber":62,"Velocity":26,"Duration":164672,"SoundDuration":164672,"Delta":115765683},{"NoteNumber":65,"Velocity":26,"Duration":164672,"SoundDuration":164672,"Delta":115930355},{"NoteNumber":53,"Velocity":24,"Duration":658688,"SoundDuration":658688,"Delta":115930355},{"NoteNumber":70,"Velocity":45,"Duration":164672,"SoundDuration":164672,"Delta":116095027},{"NoteNumber":70,"Velocity":50,"Duration":494016,"SoundDuration":494016,"Delta":116259700},{"NoteNumber":62,"Velocity":26,"Duration":164672,"SoundDuration":164672,"Delta":116424372},{"NoteNumber":65,"Velocity":26,"Duration":164672,"SoundDuration":164672,"Delta":116589044},{"NoteNumber":53,"Velocity":24,"Duration":329344,"SoundDuration":329344,"Delta":116589044},{"NoteNumber":72,"Velocity":46,"Duration":164672,"SoundDuration":164672,"Delta":116753716},{"NoteNumber":70,"Velocity":50,"Duration":484399,"SoundDuration":484399,"Delta":116918389},{"NoteNumber":48,"Velocity":30,"Duration":1320141,"SoundDuration":1320141,"Delta":116918389},{"NoteNumber":63,"Velocity":28,"Duration":159863,"SoundDuration":159863,"Delta":117078252},{"NoteNumber":65,"Velocity":28,"Duration":164672,"SoundDuration":164672,"Delta":117238116},{"NoteNumber":53,"Velocity":24,"Duration":658688,"SoundDuration":658688,"Delta":117238116},{"NoteNumber":69,"Velocity":48,"Duration":164672,"SoundDuration":164672,"Delta":117402788},{"NoteNumber":72,"Velocity":52,"Duration":494016,"SoundDuration":494016,"Delta":117567460},{"NoteNumber":65,"Velocity":28,"Duration":164672,"SoundDuration":164672,"Delta":117732132},{"NoteNumber":69,"Velocity":29,"Duration":164672,"SoundDuration":164672,"Delta":117896805},{"NoteNumber":53,"Velocity":24,"Duration":341725,"SoundDuration":341725,"Delta":117896805},{"NoteNumber":74,"Velocity":50,"Duration":177053,"SoundDuration":177053,"Delta":118061477},{"NoteNumber":75,"Velocity":55,"Duration":517679,"SoundDuration":517679,"Delta":118238531},{"NoteNumber":41,"Velocity":30,"Duration":1365308,"SoundDuration":1365308,"Delta":118238531},{"NoteNumber":69,"Velocity":32,"Duration":174256,"SoundDuration":174256,"Delta":118412787},{"NoteNumber":72,"Velocity":32,"Duration":169166,"SoundDuration":169166,"Delta":118587044},{"NoteNumber":53,"Velocity":24,"Duration":669312,"SoundDuration":669312,"Delta":118587044},{"NoteNumber":78,"Velocity":52,"Duration":169166,"SoundDuration":169166,"Delta":118756210},{"NoteNumber":79,"Velocity":57,"Duration":500146,"SoundDuration":500146,"Delta":118925377},{"NoteNumber":69,"Velocity":34,"Duration":165489,"SoundDuration":165489,"Delta":119090866},{"NoteNumber":72,"Velocity":34,"Duration":169166,"SoundDuration":169166,"Delta":119256356},{"NoteNumber":53,"Velocity":24,"Duration":347483,"SoundDuration":347483,"Delta":119256356},{"NoteNumber":75,"Velocity":50,"Duration":178316,"SoundDuration":178316,"Delta":119425523},{"NoteNumber":74,"Velocity":50,"Duration":491034,"SoundDuration":491034,"Delta":119603839},{"NoteNumber":50,"Velocity":30,"Duration":1320972,"SoundDuration":1320972,"Delta":119603839},{"NoteNumber":66,"Velocity":26,"Duration":164672,"SoundDuration":164672,"Delta":119768512},{"NoteNumber":69,"Velocity":26,"Duration":161690,"SoundDuration":161690,"Delta":119933184},{"NoteNumber":57,"Velocity":24,"Duration":646760,"SoundDuration":646760,"Delta":119933184},{"NoteNumber":75,"Velocity":45,"Duration":161690,"SoundDuration":161690,"Delta":120094874},{"NoteNumber":74,"Velocity":50,"Duration":495813,"SoundDuration":495813,"Delta":120256564},{"NoteNumber":66,"Velocity":26,"Duration":161690,"SoundDuration":161690,"Delta":120418255},{"NoteNumber":69,"Velocity":26,"Duration":172433,"SoundDuration":172433,"Delta":120579945},{"NoteNumber":57,"Velocity":24,"Duration":344866,"SoundDuration":344866,"Delta":120579945},{"NoteNumber":72,"Velocity":47,"Duration":172433,"SoundDuration":172433,"Delta":120752378},{"NoteNumber":72,"Velocity":50,"Duration":494016,"SoundDuration":494016,"Delta":120924812},{"NoteNumber":50,"Velocity":30,"Duration":1317378,"SoundDuration":1317378,"Delta":120924812},{"NoteNumber":65,"Velocity":26,"Duration":164672,"SoundDuration":164672,"Delta":121089484},{"NoteNumber":68,"Velocity":26,"Duration":164672,"SoundDuration":164672,"Delta":121254156},{"NoteNumber":56,"Velocity":24,"Duration":658688,"SoundDuration":658688,"Delta":121254156},{"NoteNumber":72,"Velocity":45,"Duration":164672,"SoundDuration":164672,"Delta":121418829},{"NoteNumber":71,"Velocity":50,"Duration":494016,"SoundDuration":494016,"Delta":121583501},{"NoteNumber":65,"Velocity":26,"Duration":164672,"SoundDuration":164672,"Delta":121748173},{"NoteNumber":68,"Velocity":26,"Duration":164672,"SoundDuration":164672,"Delta":121912845},{"NoteNumber":56,"Velocity":24,"Duration":329344,"SoundDuration":329344,"Delta":121912845},{"NoteNumber":71,"Velocity":46,"Duration":164672,"SoundDuration":164672,"Delta":122077518},{"NoteNumber":71,"Velocity":50,"Duration":509539,"SoundDuration":509539,"Delta":122242190},{"NoteNumber":51,"Velocity":30,"Duration":1345281,"SoundDuration":1345281,"Delta":122242190},{"NoteNumber":63,"Velocity":28,"Duration":172433,"SoundDuration":172433,"Delta":122414623},{"NoteNumber":67,"Velocity":28,"Duration":164672,"SoundDuration":164672,"Delta":122587057},{"NoteNumber":55,"Velocity":24,"Duration":658688,"SoundDuration":658688,"Delta":122587057},{"NoteNumber":72,"Velocity":48,"Duration":164672,"SoundDuration":164672,"Delta":122751729},{"NoteNumber":75,"Velocity":52,"Duration":494016,"SoundDuration":494016,"Delta":122916401},{"NoteNumber":63,"Velocity":28,"Duration":164672,"SoundDuration":164672,"Delta":123081074},{"NoteNumber":66,"Velocity":29,"Duration":164672,"SoundDuration":164672,"Delta":123245746},{"NoteNumber":54,"Velocity":24,"Duration":341725,"SoundDuration":341725,"Delta":123245746},{"NoteNumber":72,"Velocity":45,"Duration":177053,"SoundDuration":177053,"Delta":123410418},{"NoteNumber":70,"Velocity":51,"Duration":518272,"SoundDuration":518272,"Delta":123587472},{"NoteNumber":41,"Velocity":30,"Duration":1409546,"SoundDuration":1409546,"Delta":123587472},{"NoteNumber":62,"Velocity":29,"Duration":174256,"SoundDuration":174256,"Delta":123761728},{"NoteNumber":65,"Velocity":26,"Duration":169759,"SoundDuration":169759,"Delta":123935985},{"NoteNumber":53,"Velocity":24,"Duration":688032,"SoundDuration":688032,"Delta":123935985},{"NoteNumber":70,"Velocity":35,"Duration":169759,"SoundDuration":169759,"Delta":124105745},{"NoteNumber":69,"Velocity":40,"Duration":530795,"SoundDuration":530795,"Delta":124275505},{"NoteNumber":60,"Velocity":24,"Duration":174256,"SoundDuration":174256,"Delta":124449761},{"NoteNumber":65,"Velocity":24,"Duration":182282,"SoundDuration":182282,"Delta":124624018},{"NoteNumber":53,"Velocity":24,"Duration":373000,"SoundDuration":373000,"Delta":124624018},{"NoteNumber":69,"Velocity":42,"Duration":190718,"SoundDuration":190718,"Delta":124806300},{"NoteNumber":74,"Velocity":50,"Duration":494016,"SoundDuration":494016,"Delta":124997018},{"NoteNumber":46,"Velocity":30,"Duration":1332900,"SoundDuration":1332900,"Delta":124997018},{"NoteNumber":62,"Velocity":26,"Duration":164672,"SoundDuration":164672,"Delta":125161691},{"NoteNumber":65,"Velocity":26,"Duration":164672,"SoundDuration":164672,"Delta":125326363},{"NoteNumber":53,"Velocity":24,"Duration":658688,"SoundDuration":658688,"Delta":125326363},{"NoteNumber":74,"Velocity":45,"Duration":164672,"SoundDuration":164672,"Delta":125491035},{"NoteNumber":74,"Velocity":50,"Duration":501778,"SoundDuration":501778,"Delta":125655707},{"NoteNumber":62,"Velocity":26,"Duration":164672,"SoundDuration":164672,"Delta":125820380},{"NoteNumber":65,"Velocity":26,"Duration":172433,"SoundDuration":172433,"Delta":125985052},{"NoteNumber":53,"Velocity":24,"Duration":344866,"SoundDuration":344866,"Delta":125985052},{"NoteNumber":74,"Velocity":47,"Duration":172433,"SoundDuration":172433,"Delta":126157485},{"NoteNumber":72,"Velocity":50,"Duration":494016,"SoundDuration":494016,"Delta":126329919},{"NoteNumber":50,"Velocity":30,"Duration":1317378,"SoundDuration":1317378,"Delta":126329919},{"NoteNumber":62,"Velocity":26,"Duration":164672,"SoundDuration":164672,"Delta":126494591},{"NoteNumber":65,"Velocity":26,"Duration":164672,"SoundDuration":164672,"Delta":126659263},{"NoteNumber":53,"Velocity":24,"Duration":658688,"SoundDuration":658688,"Delta":126659263},{"NoteNumber":70,"Velocity":45,"Duration":164672,"SoundDuration":164672,"Delta":126823936},{"NoteNumber":70,"Velocity":50,"Duration":494016,"SoundDuration":494016,"Delta":126988608},{"NoteNumber":62,"Velocity":26,"Duration":164672,"SoundDuration":164672,"Delta":127153280},{"NoteNumber":65,"Velocity":26,"Duration":164672,"SoundDuration":164672,"Delta":127317952},{"NoteNumber":53,"Velocity":24,"Duration":329344,"SoundDuration":329344,"Delta":127317952},{"NoteNumber":72,"Velocity":46,"Duration":164672,"SoundDuration":164672,"Delta":127482625},{"NoteNumber":70,"Velocity":50,"Duration":484399,"SoundDuration":484399,"Delta":127647297},{"NoteNumber":48,"Velocity":30,"Duration":1331878,"SoundDuration":1331878,"Delta":127647297},{"NoteNumber":63,"Velocity":28,"Duration":159863,"SoundDuration":159863,"Delta":127807160},{"NoteNumber":65,"Velocity":28,"Duration":164672,"SoundDuration":164672,"Delta":127967024},{"NoteNumber":53,"Velocity":24,"Duration":658688,"SoundDuration":658688,"Delta":127967024},{"NoteNumber":69,"Velocity":48,"Duration":164672,"SoundDuration":164672,"Delta":128131696},{"NoteNumber":72,"Velocity":52,"Duration":505752,"SoundDuration":505752,"Delta":128296368},{"NoteNumber":65,"Velocity":28,"Duration":164672,"SoundDuration":164672,"Delta":128461041},{"NoteNumber":69,"Velocity":29,"Duration":176408,"SoundDuration":176408,"Delta":128625713},{"NoteNumber":53,"Velocity":24,"Duration":353462,"SoundDuration":353462,"Delta":128625713},{"NoteNumber":74,"Velocity":50,"Duration":177053,"SoundDuration":177053,"Delta":128802121},{"NoteNumber":75,"Velocity":55,"Duration":513185,"SoundDuration":513185,"Delta":128979175},{"NoteNumber":41,"Velocity":30,"Duration":1339816,"SoundDuration":1339816,"Delta":128979175},{"NoteNumber":69,"Velocity":32,"Duration":174256,"SoundDuration":174256,"Delta":129153431},{"NoteNumber":72,"Velocity":32,"Duration":164672,"SoundDuration":164672,"Delta":129327688},{"NoteNumber":53,"Velocity":24,"Duration":660324,"SoundDuration":660324,"Delta":129327688},{"NoteNumber":78,"Velocity":52,"Duration":164672,"SoundDuration":164672,"Delta":129492360},{"NoteNumber":79,"Velocity":57,"Duration":496469,"SoundDuration":496469,"Delta":129657032},{"NoteNumber":69,"Velocity":34,"Duration":165489,"SoundDuration":165489,"Delta":129822522},{"NoteNumber":72,"Velocity":34,"Duration":165489,"SoundDuration":165489,"Delta":129988012},{"NoteNumber":53,"Velocity":24,"Duration":330979,"SoundDuration":330979,"Delta":129988012},{"NoteNumber":75,"Velocity":50,"Duration":165489,"SoundDuration":165489,"Delta":130153502},{"NoteNumber":74,"Velocity":50,"Duration":494016,"SoundDuration":494016,"Delta":130318991},{"NoteNumber":50,"Velocity":30,"Duration":1332900,"SoundDuration":1332900,"Delta":130318991},{"NoteNumber":62,"Velocity":26,"Duration":164672,"SoundDuration":164672,"Delta":130483664},{"NoteNumber":65,"Velocity":26,"Duration":164672,"SoundDuration":164672,"Delta":130648336},{"NoteNumber":53,"Velocity":24,"Duration":658689,"SoundDuration":658689,"Delta":130648336},{"NoteNumber":69,"Velocity":45,"Duration":164672,"SoundDuration":164672,"Delta":130813008},{"NoteNumber":70,"Velocity":50,"Duration":501778,"SoundDuration":501778,"Delta":130977680},{"NoteNumber":62,"Velocity":33,"Duration":164672,"SoundDuration":164672,"Delta":131142353},{"NoteNumber":65,"Velocity":33,"Duration":172433,"SoundDuration":172433,"Delta":131307025},{"NoteNumber":58,"Velocity":24,"Duration":344866,"SoundDuration":344866,"Delta":131307025},{"NoteNumber":72,"Velocity":53,"Duration":172433,"SoundDuration":172433,"Delta":131479458},{"NoteNumber":73,"Velocity":58,"Duration":494016,"SoundDuration":494016,"Delta":131651892},{"NoteNumber":52,"Velocity":34,"Duration":1317377,"SoundDuration":1317377,"Delta":131651892},{"NoteNumber":67,"Velocity":38,"Duration":164672,"SoundDuration":164672,"Delta":131809703},{"NoteNumber":70,"Velocity":38,"Duration":164672,"SoundDuration":164672,"Delta":131981236},{"NoteNumber":61,"Velocity":29,"Duration":658689,"SoundDuration":658689,"Delta":131981236},{"NoteNumber":58,"Velocity":29,"Duration":658689,"SoundDuration":658689,"Delta":131981236},{"NoteNumber":79,"Velocity":45,"Duration":164672,"SoundDuration":164672,"Delta":132139047},{"NoteNumber":81,"Velocity":58,"Duration":494016,"SoundDuration":494016,"Delta":132310581},{"NoteNumber":70,"Velocity":38,"Duration":164672,"SoundDuration":164672,"Delta":132475253},{"NoteNumber":73,"Velocity":35,"Duration":164672,"SoundDuration":164672,"Delta":132639925},{"NoteNumber":61,"Velocity":24,"Duration":329344,"SoundDuration":329344,"Delta":132639925},{"NoteNumber":58,"Velocity":24,"Duration":329344,"SoundDuration":329344,"Delta":132639925},{"NoteNumber":82,"Velocity":46,"Duration":164672,"SoundDuration":164672,"Delta":132797736},{"NoteNumber":72,"Velocity":54,"Duration":509539,"SoundDuration":509539,"Delta":132969270},{"NoteNumber":53,"Velocity":30,"Duration":1345281,"SoundDuration":1345281,"Delta":132969270},{"NoteNumber":65,"Velocity":35,"Duration":172433,"SoundDuration":172433,"Delta":133141703},{"NoteNumber":70,"Velocity":37,"Duration":164672,"SoundDuration":164672,"Delta":133314137},{"NoteNumber":60,"Velocity":24,"Duration":658689,"SoundDuration":658689,"Delta":133314137},{"NoteNumber":74,"Velocity":43,"Duration":164672,"SoundDuration":164672,"Delta":133478809},{"NoteNumber":75,"Velocity":53,"Duration":494016,"SoundDuration":494016,"Delta":133643481},{"NoteNumber":65,"Velocity":31,"Duration":164672,"SoundDuration":164672,"Delta":133808154},{"NoteNumber":69,"Velocity":31,"Duration":164672,"SoundDuration":164672,"Delta":133972826},{"NoteNumber":63,"Velocity":24,"Duration":341725,"SoundDuration":341725,"Delta":133972826},{"NoteNumber":77,"Velocity":43,"Duration":177053,"SoundDuration":177053,"Delta":134137498},{"NoteNumber":70,"Velocity":54,"Duration":518272,"SoundDuration":518272,"Delta":134314552},{"NoteNumber":58,"Velocity":30,"Duration":688032,"SoundDuration":688032,"Delta":134314552},{"NoteNumber":62,"Velocity":30,"Duration":348512,"SoundDuration":348512,"Delta":134314552},{"NoteNumber":62,"Velocity":29,"Duration":513776,"SoundDuration":513776,"Delta":134488808},{"NoteNumber":65,"Velocity":26,"Duration":169759,"SoundDuration":169759,"Delta":134663065},{"NoteNumber":69,"Velocity":32,"Duration":169759,"SoundDuration":169759,"Delta":134832825},{"NoteNumber":70,"Velocity":46,"Duration":522582,"SoundDuration":522582,"Delta":134995512},{"NoteNumber":62,"Velocity":28,"Duration":174256,"SoundDuration":174256,"Delta":135176841},{"NoteNumber":65,"Velocity":28,"Duration":174256,"SoundDuration":174256,"Delta":135351098},{"NoteNumber":72,"Velocity":45,"Duration":174256,"SoundDuration":174256,"Delta":135525354},{"NoteNumber":74,"Velocity":57,"Duration":494016,"SoundDuration":494016,"Delta":135699611},{"NoteNumber":50,"Velocity":34,"Duration":1332900,"SoundDuration":1332900,"Delta":135699611},{"NoteNumber":66,"Velocity":29,"Duration":164672,"SoundDuration":164672,"Delta":135864283},{"NoteNumber":69,"Velocity":29,"Duration":164672,"SoundDuration":164672,"Delta":136028955},{"NoteNumber":60,"Velocity":27,"Duration":658689,"SoundDuration":658689,"Delta":136028955},{"NoteNumber":75,"Velocity":51,"Duration":164672,"SoundDuration":164672,"Delta":136193628},{"NoteNumber":74,"Velocity":57,"Duration":501778,"SoundDuration":501778,"Delta":136358300},{"NoteNumber":66,"Velocity":29,"Duration":164672,"SoundDuration":164672,"Delta":136522972},{"NoteNumber":69,"Velocity":29,"Duration":172433,"SoundDuration":172433,"Delta":136687644},{"NoteNumber":57,"Velocity":27,"Duration":344866,"SoundDuration":344866,"Delta":136687644},{"NoteNumber":72,"Velocity":54,"Duration":172433,"SoundDuration":172433,"Delta":136860078},{"NoteNumber":72,"Velocity":57,"Duration":494016,"SoundDuration":494016,"Delta":137032511},{"NoteNumber":43,"Velocity":34,"Duration":329344,"SoundDuration":329344,"Delta":137032511},{"NoteNumber":65,"Velocity":29,"Duration":164672,"SoundDuration":164672,"Delta":137197184},{"NoteNumber":67,"Velocity":29,"Duration":164672,"SoundDuration":164672,"Delta":137361856},{"NoteNumber":62,"Velocity":40,"Duration":329344,"SoundDuration":329344,"Delta":137361856},{"NoteNumber":55,"Velocity":33,"Duration":329344,"SoundDuration":329344,"Delta":137361856},{"NoteNumber":71,"Velocity":51,"Duration":164672,"SoundDuration":164672,"Delta":137526528},{"NoteNumber":72,"Velocity":57,"Duration":494016,"SoundDuration":494016,"Delta":137691200},{"NoteNumber":56,"Velocity":40,"Duration":329344,"SoundDuration":329344,"Delta":137691200},{"NoteNumber":60,"Velocity":48,"Duration":329344,"SoundDuration":329344,"Delta":137691200},{"NoteNumber":65,"Velocity":40,"Duration":164672,"SoundDuration":164672,"Delta":137855873},{"NoteNumber":67,"Velocity":48,"Duration":164672,"SoundDuration":164672,"Delta":138020545},{"NoteNumber":55,"Velocity":31,"Duration":343648,"SoundDuration":343648,"Delta":138020545},{"NoteNumber":59,"Velocity":36,"Duration":343648,"SoundDuration":343648,"Delta":138020545},{"NoteNumber":74,"Velocity":52,"Duration":178976,"SoundDuration":178976,"Delta":138185217},{"NoteNumber":79,"Velocity":68,"Duration":484399,"SoundDuration":484399,"Delta":138364193},{"NoteNumber":43,"Velocity":34,"Duration":319727,"SoundDuration":319727,"Delta":138364193},{"NoteNumber":71,"Velocity":47,"Duration":159863,"SoundDuration":159863,"Delta":138524057},{"NoteNumber":74,"Velocity":47,"Duration":164672,"SoundDuration":164672,"Delta":138683920},{"NoteNumber":65,"Velocity":46,"Duration":658689,"SoundDuration":658689,"Delta":138683920},{"NoteNumber":55,"Velocity":37,"Duration":1007342,"SoundDuration":1007342,"Delta":138683920},{"NoteNumber":80,"Velocity":66,"Duration":164672,"SoundDuration":164672,"Delta":138848593},{"NoteNumber":79,"Velocity":72,"Duration":494016,"SoundDuration":494016,"Delta":139013265},{"NoteNumber":71,"Velocity":47,"Duration":164672,"SoundDuration":164672,"Delta":139177937},{"NoteNumber":74,"Velocity":47,"Duration":164672,"SoundDuration":164672,"Delta":139342609},{"NoteNumber":62,"Velocity":35,"Duration":348653,"SoundDuration":348653,"Delta":139342609},{"NoteNumber":77,"Velocity":63,"Duration":183981,"SoundDuration":183981,"Delta":139507282},{"NoteNumber":77,"Velocity":70,"Duration":513185,"SoundDuration":513185,"Delta":139691263},{"NoteNumber":48,"Velocity":42,"Duration":1008836,"SoundDuration":1008836,"Delta":139691263},{"NoteNumber":67,"Velocity":36,"Duration":174256,"SoundDuration":174256,"Delta":139865519},{"NoteNumber":70,"Velocity":41,"Duration":164672,"SoundDuration":164672,"Delta":140039776},{"NoteNumber":60,"Velocity":33,"Duration":991303,"SoundDuration":991303,"Delta":140039776},{"NoteNumber":76,"Velocity":59,"Duration":164672,"SoundDuration":164672,"Delta":140204448},{"NoteNumber":74,"Velocity":65,"Duration":496469,"SoundDuration":496469,"Delta":140369120},{"NoteNumber":64,"Velocity":39,"Duration":165489,"SoundDuration":165489,"Delta":140534610},{"NoteNumber":70,"Velocity":39,"Duration":165489,"SoundDuration":165489,"Delta":140700100},{"NoteNumber":55,"Velocity":27,"Duration":330979,"SoundDuration":330979,"Delta":140700100},{"NoteNumber":72,"Velocity":57,"Duration":165489,"SoundDuration":165489,"Delta":140865590},{"NoteNumber":72,"Velocity":66,"Duration":494016,"SoundDuration":494016,"Delta":141031079},{"NoteNumber":57,"Velocity":34,"Duration":658689,"SoundDuration":658689,"Delta":141031079},{"NoteNumber":65,"Velocity":43,"Duration":164672,"SoundDuration":164672,"Delta":141195752},{"NoteNumber":69,"Velocity":43,"Duration":164672,"SoundDuration":164672,"Delta":141360424},{"NoteNumber":60,"Velocity":27,"Duration":658689,"SoundDuration":658689,"Delta":141360424},{"NoteNumber":74,"Velocity":58,"Duration":164672,"SoundDuration":164672,"Delta":141525096},{"NoteNumber":76,"Velocity":67,"Duration":502674,"SoundDuration":502674,"Delta":141689768},{"NoteNumber":53,"Velocity":37,"Duration":676005,"SoundDuration":676005,"Delta":141689768},{"NoteNumber":69,"Velocity":41,"Duration":164672,"SoundDuration":164672,"Delta":141854441},{"NoteNumber":72,"Velocity":46,"Duration":173330,"SoundDuration":173330,"Delta":142019113},{"NoteNumber":60,"Velocity":27,"Duration":346660,"SoundDuration":346660,"Delta":142019113},{"NoteNumber":77,"Velocity":65,"Duration":173330,"SoundDuration":173330,"Delta":142192443},{"NoteNumber":77,"Velocity":73,"Duration":491534,"SoundDuration":491534,"Delta":142365773},{"NoteNumber":46,"Velocity":41,"Duration":327689,"SoundDuration":327689,"Delta":142365773},{"NoteNumber":65,"Velocity":36,"Duration":163844,"SoundDuration":163844,"Delta":142529618},{"NoteNumber":70,"Velocity":36,"Duration":163845,"SoundDuration":163845,"Delta":142693463},{"NoteNumber":58,"Velocity":29,"Duration":327690,"SoundDuration":327690,"Delta":142693463},{"NoteNumber":62,"Velocity":35,"Duration":327690,"SoundDuration":327690,"Delta":142693463},{"NoteNumber":74,"Velocity":57,"Duration":163845,"SoundDuration":163845,"Delta":142857308},{"NoteNumber":72,"Velocity":65,"Duration":491534,"SoundDuration":491534,"Delta":143021153},{"NoteNumber":60,"Velocity":33,"Duration":327689,"SoundDuration":327689,"Delta":143021153},{"NoteNumber":57,"Velocity":27,"Duration":327689,"SoundDuration":327689,"Delta":143021153},{"NoteNumber":66,"Velocity":29,"Duration":163845,"SoundDuration":163845,"Delta":143184998},{"NoteNumber":67,"Velocity":29,"Duration":163845,"SoundDuration":163845,"Delta":143348843},{"NoteNumber":55,"Velocity":25,"Duration":327689,"SoundDuration":327689,"Delta":143348843},{"NoteNumber":58,"Velocity":31,"Duration":327689,"SoundDuration":327689,"Delta":143348843},{"NoteNumber":70,"Velocity":52,"Duration":163844,"SoundDuration":163844,"Delta":143512688},{"NoteNumber":69,"Velocity":57,"Duration":509539,"SoundDuration":509539,"Delta":143676533},{"NoteNumber":48,"Velocity":34,"Duration":674211,"SoundDuration":674211,"Delta":143676533},{"NoteNumber":60,"Velocity":32,"Duration":172433,"SoundDuration":172433,"Delta":143848967},{"NoteNumber":65,"Velocity":32,"Duration":164672,"SoundDuration":164672,"Delta":144021400},{"NoteNumber":57,"Velocity":27,"Duration":329344,"SoundDuration":329344,"Delta":144021400},{"NoteNumber":70,"Velocity":55,"Duration":164672,"SoundDuration":164672,"Delta":144186073},{"NoteNumber":67,"Velocity":59,"Duration":494016,"SoundDuration":494016,"Delta":144350745},{"NoteNumber":48,"Velocity":34,"Duration":671070,"SoundDuration":671070,"Delta":144350745},{"NoteNumber":60,"Velocity":32,"Duration":164672,"SoundDuration":164672,"Delta":144515417},{"NoteNumber":64,"Velocity":33,"Duration":164672,"SoundDuration":164672,"Delta":144680089},{"NoteNumber":58,"Velocity":27,"Duration":341725,"SoundDuration":341725,"Delta":144680089},{"NoteNumber":72,"Velocity":51,"Duration":177053,"SoundDuration":177053,"Delta":144844762},{"NoteNumber":65,"Velocity":58,"Duration":518272,"SoundDuration":518272,"Delta":145021815},{"NoteNumber":57,"Velocity":34,"Duration":1442720,"SoundDuration":1442720,"Delta":145021815},{"NoteNumber":53,"Velocity":34,"Duration":1442720,"SoundDuration":1442720,"Delta":145021815},{"NoteNumber":60,"Velocity":33,"Duration":174256,"SoundDuration":174256,"Delta":145196072},{"NoteNumber":65,"Velocity":29,"Duration":169759,"SoundDuration":169759,"Delta":145370328},{"NoteNumber":69,"Velocity":35,"Duration":169759,"SoundDuration":169759,"Delta":145540088},{"NoteNumber":72,"Velocity":40,"Duration":371006,"SoundDuration":371006,"Delta":145709848},{"NoteNumber":65,"Velocity":24,"Duration":190718,"SoundDuration":190718,"Delta":145890137},{"NoteNumber":73,"Velocity":42,"Duration":383680,"SoundDuration":383680,"Delta":146080855},{"NoteNumber":65,"Velocity":24,"Duration":191840,"SoundDuration":191840,"Delta":146272696},{"NoteNumber":74,"Velocity":50,"Duration":508454,"SoundDuration":508454,"Delta":146464536},{"NoteNumber":46,"Velocity":30,"Duration":1344402,"SoundDuration":1344402,"Delta":146464536},{"NoteNumber":62,"Velocity":26,"Duration":170381,"SoundDuration":170381,"Delta":146634930},{"NoteNumber":65,"Velocity":26,"Duration":167679,"SoundDuration":167679,"Delta":146805311},{"NoteNumber":53,"Velocity":24,"Duration":658760,"SoundDuration":658760,"Delta":146805311},{"NoteNumber":74,"Velocity":45,"Duration":165029,"SoundDuration":165029,"Delta":146972991},{"NoteNumber":74,"Velocity":50,"Duration":498485,"SoundDuration":498485,"Delta":147138020},{"NoteNumber":62,"Velocity":26,"Duration":163025,"SoundDuration":163025,"Delta":147301046},{"NoteNumber":65,"Velocity":26,"Duration":172433,"SoundDuration":172433,"Delta":147464072},{"NoteNumber":53,"Velocity":24,"Duration":344866,"SoundDuration":344866,"Delta":147464072},{"NoteNumber":74,"Velocity":47,"Duration":172433,"SoundDuration":172433,"Delta":147636505},{"NoteNumber":72,"Velocity":50,"Duration":494016,"SoundDuration":494016,"Delta":147808939},{"NoteNumber":50,"Velocity":30,"Duration":1317377,"SoundDuration":1317377,"Delta":147808939},{"NoteNumber":65,"Velocity":26,"Duration":164672,"SoundDuration":164672,"Delta":147973611},{"NoteNumber":68,"Velocity":26,"Duration":164672,"SoundDuration":164672,"Delta":148138283},{"NoteNumber":58,"Velocity":24,"Duration":658689,"SoundDuration":658689,"Delta":148138283},{"NoteNumber":70,"Velocity":45,"Duration":164672,"SoundDuration":164672,"Delta":148302955},{"NoteNumber":70,"Velocity":50,"Duration":494016,"SoundDuration":494016,"Delta":148467628},{"NoteNumber":65,"Velocity":26,"Duration":164672,"SoundDuration":164672,"Delta":148632300},{"NoteNumber":68,"Velocity":26,"Duration":164672,"SoundDuration":164672,"Delta":148796972},{"NoteNumber":58,"Velocity":24,"Duration":329344,"SoundDuration":329344,"Delta":148796972},{"NoteNumber":72,"Velocity":46,"Duration":164672,"SoundDuration":164672,"Delta":148961644},{"NoteNumber":70,"Velocity":50,"Duration":484399,"SoundDuration":484399,"Delta":149126317},{"NoteNumber":51,"Velocity":30,"Duration":1320142,"SoundDuration":1320142,"Delta":149126317},{"NoteNumber":66,"Velocity":32,"Duration":159863,"SoundDuration":159863,"Delta":149286180},{"NoteNumber":67,"Velocity":33,"Duration":164672,"SoundDuration":164672,"Delta":149446044},{"NoteNumber":58,"Velocity":28,"Duration":658689,"SoundDuration":658689,"Delta":149446044},{"NoteNumber":72,"Velocity":48,"Duration":164672,"SoundDuration":164672,"Delta":149610716},{"NoteNumber":74,"Velocity":57,"Duration":494016,"SoundDuration":494016,"Delta":149775388},{"NoteNumber":67,"Velocity":41,"Duration":164672,"SoundDuration":164672,"Delta":149940060},{"NoteNumber":70,"Velocity":43,"Duration":164672,"SoundDuration":164672,"Delta":150104733},{"NoteNumber":58,"Velocity":28,"Duration":341725,"SoundDuration":341725,"Delta":150104733},{"NoteNumber":75,"Velocity":61,"Duration":177053,"SoundDuration":177053,"Delta":150269405},{"NoteNumber":78,"Velocity":70,"Duration":513185,"SoundDuration":513185,"Delta":150446459},{"NoteNumber":52,"Velocity":37,"Duration":1339816,"SoundDuration":1339816,"Delta":150446459},{"NoteNumber":70,"Velocity":41,"Duration":174256,"SoundDuration":174256,"Delta":150620715},{"NoteNumber":73,"Velocity":41,"Duration":164672,"SoundDuration":164672,"Delta":150794972},{"NoteNumber":58,"Velocity":28,"Duration":660324,"SoundDuration":660324,"Delta":150794972},{"NoteNumber":61,"Velocity":28,"Duration":660324,"SoundDuration":660324,"Delta":150794972},{"NoteNumber":79,"Velocity":56,"Duration":164672,"SoundDuration":164672,"Delta":150959644},{"NoteNumber":81,"Velocity":63,"Duration":496469,"SoundDuration":496469,"Delta":151124316},{"NoteNumber":70,"Velocity":34,"Duration":165489,"SoundDuration":165489,"Delta":151289806},{"NoteNumber":73,"Velocity":34,"Duration":165489,"SoundDuration":165489,"Delta":151455296},{"NoteNumber":61,"Velocity":28,"Duration":330979,"SoundDuration":330979,"Delta":151455296},{"NoteNumber":58,"Velocity":28,"Duration":330979,"SoundDuration":330979,"Delta":151455296},{"NoteNumber":82,"Velocity":46,"Duration":165489,"SoundDuration":165489,"Delta":151620785},{"NoteNumber":72,"Velocity":50,"Duration":494016,"SoundDuration":494016,"Delta":151786275},{"NoteNumber":55,"Velocity":37,"Duration":1332900,"SoundDuration":1332900,"Delta":151786275},{"NoteNumber":64,"Velocity":26,"Duration":164672,"SoundDuration":164672,"Delta":151950947},{"NoteNumber":70,"Velocity":26,"Duration":164672,"SoundDuration":164672,"Delta":152115620},{"NoteNumber":60,"Velocity":24,"Duration":658689,"SoundDuration":658689,"Delta":152115620},{"NoteNumber":58,"Velocity":24,"Duration":658689,"SoundDuration":658689,"Delta":152115620},{"NoteNumber":74,"Velocity":45,"Duration":164672,"SoundDuration":164672,"Delta":152280292},{"NoteNumber":72,"Velocity":50,"Duration":501778,"SoundDuration":501778,"Delta":152444964},{"NoteNumber":64,"Velocity":26,"Duration":164672,"SoundDuration":164672,"Delta":152609636},{"NoteNumber":70,"Velocity":26,"Duration":172433,"SoundDuration":172433,"Delta":152774309},{"NoteNumber":61,"Velocity":24,"Duration":344866,"SoundDuration":344866,"Delta":152774309},{"NoteNumber":58,"Velocity":24,"Duration":344866,"SoundDuration":344866,"Delta":152774309},{"NoteNumber":73,"Velocity":53,"Duration":172433,"SoundDuration":172433,"Delta":152946742},{"NoteNumber":74,"Velocity":58,"Duration":494016,"SoundDuration":494016,"Delta":153119176},{"NoteNumber":53,"Velocity":34,"Duration":1317377,"SoundDuration":1317377,"Delta":153119176},{"NoteNumber":65,"Velocity":38,"Duration":164672,"SoundDuration":164672,"Delta":153283848},{"NoteNumber":70,"Velocity":38,"Duration":164672,"SoundDuration":164672,"Delta":153448520},{"NoteNumber":58,"Velocity":29,"Duration":329344,"SoundDuration":329344,"Delta":153448520},{"NoteNumber":62,"Velocity":29,"Duration":329344,"SoundDuration":329344,"Delta":153448520},{"NoteNumber":74,"Velocity":45,"Duration":164672,"SoundDuration":164672,"Delta":153613192},{"NoteNumber":75,"Velocity":55,"Duration":329344,"SoundDuration":329344,"Delta":153777865},{"NoteNumber":63,"Velocity":29,"Duration":329344,"SoundDuration":329344,"Delta":153777865},{"NoteNumber":60,"Velocity":24,"Duration":329344,"SoundDuration":329344,"Delta":153777865},{"NoteNumber":65,"Velocity":35,"Duration":164672,"SoundDuration":164672,"Delta":153942537},{"NoteNumber":74,"Velocity":62,"Duration":164672,"SoundDuration":164672,"Delta":154107209},{"NoteNumber":62,"Velocity":20,"Duration":329344,"SoundDuration":329344,"Delta":154107209},{"NoteNumber":65,"Velocity":24,"Duration":329344,"SoundDuration":329344,"Delta":154107209},{"NoteNumber":77,"Velocity":59,"Duration":164672,"SoundDuration":164672,"Delta":154271881},{"NoteNumber":77,"Velocity":64,"Duration":509539,"SoundDuration":509539,"Delta":154436554},{"NoteNumber":53,"Velocity":30,"Duration":1003556,"SoundDuration":1003556,"Delta":154436554},{"NoteNumber":65,"Velocity":28,"Duration":172433,"SoundDuration":172433,"Delta":154608987},{"NoteNumber":72,"Velocity":28,"Duration":164672,"SoundDuration":164672,"Delta":154781421},{"NoteNumber":60,"Velocity":24,"Duration":329344,"SoundDuration":329344,"Delta":154781421},{"NoteNumber":63,"Velocity":24,"Duration":329344,"SoundDuration":329344,"Delta":154781421},{"NoteNumber":75,"Velocity":43,"Duration":164672,"SoundDuration":164672,"Delta":154946093},{"NoteNumber":74,"Velocity":49,"Duration":494016,"SoundDuration":494016,"Delta":155110765},{"NoteNumber":62,"Velocity":24,"Duration":329344,"SoundDuration":329344,"Delta":155110765},{"NoteNumber":58,"Velocity":24,"Duration":329344,"SoundDuration":329344,"Delta":155110765},{"NoteNumber":65,"Velocity":28,"Duration":164672,"SoundDuration":164672,"Delta":155275437},{"NoteNumber":69,"Velocity":29,"Duration":164672,"SoundDuration":164672,"Delta":155440110},{"NoteNumber":60,"Velocity":24,"Duration":341725,"SoundDuration":341725,"Delta":155440110},{"NoteNumber":53,"Velocity":24,"Duration":341725,"SoundDuration":341725,"Delta":155440110},{"NoteNumber":72,"Velocity":43,"Duration":177053,"SoundDuration":177053,"Delta":155604782},{"NoteNumber":70,"Velocity":50,"Duration":518272,"SoundDuration":518272,"Delta":155781836},{"NoteNumber":46,"Velocity":25,"Duration":688032,"SoundDuration":688032,"Delta":155781836},{"NoteNumber":58,"Velocity":30,"Duration":688032,"SoundDuration":688032,"Delta":155781836},{"NoteNumber":50,"Velocity":25,"Duration":688032,"SoundDuration":688032,"Delta":155781836},{"NoteNumber":62,"Velocity":29,"Duration":174256,"SoundDuration":174256,"Delta":155956092},{"NoteNumber":65,"Velocity":26,"Duration":169759,"SoundDuration":169759,"Delta":156130349},{"NoteNumber":69,"Velocity":32,"Duration":169759,"SoundDuration":169759,"Delta":156300109},{"NoteNumber":70,"Velocity":38,"Duration":522582,"SoundDuration":522582,"Delta":156462795},{"NoteNumber":62,"Velocity":24,"Duration":174256,"SoundDuration":174256,"Delta":156644125},{"NoteNumber":65,"Velocity":24,"Duration":174256,"SoundDuration":174256,"Delta":156818382},{"NoteNumber":50,"Velocity":30,"Duration":174256,"SoundDuration":174256,"Delta":156818382},{"NoteNumber":72,"Velocity":39,"Duration":174256,"SoundDuration":174256,"Delta":156992638},{"NoteNumber":74,"Velocity":57,"Duration":490982,"SoundDuration":490982,"Delta":157166895},{"NoteNumber":50,"Velocity":34,"Duration":1320763,"SoundDuration":1320763,"Delta":157166895},{"NoteNumber":66,"Velocity":29,"Duration":164672,"SoundDuration":164672,"Delta":157331567},{"NoteNumber":69,"Velocity":29,"Duration":161638,"SoundDuration":161638,"Delta":157496239},{"NoteNumber":60,"Velocity":27,"Duration":646552,"SoundDuration":646552,"Delta":157496239},{"NoteNumber":75,"Velocity":51,"Duration":161637,"SoundDuration":161637,"Delta":157657877},{"NoteNumber":74,"Velocity":57,"Duration":495709,"SoundDuration":495709,"Delta":157819515},{"NoteNumber":66,"Velocity":29,"Duration":161638,"SoundDuration":161638,"Delta":157981153},{"NoteNumber":69,"Velocity":29,"Duration":172433,"SoundDuration":172433,"Delta":158142791},{"NoteNumber":57,"Velocity":27,"Duration":344866,"SoundDuration":344866,"Delta":158142791},{"NoteNumber":72,"Velocity":54,"Duration":172433,"SoundDuration":172433,"Delta":158315225},{"NoteNumber":72,"Velocity":57,"Duration":494016,"SoundDuration":494016,"Delta":158487658},{"NoteNumber":43,"Velocity":34,"Duration":329344,"SoundDuration":329344,"Delta":158487658},{"NoteNumber":65,"Velocity":29,"Duration":164672,"SoundDuration":164672,"Delta":158652330},{"NoteNumber":67,"Velocity":29,"Duration":164672,"SoundDuration":164672,"Delta":158817003},{"NoteNumber":62,"Velocity":40,"Duration":329344,"SoundDuration":329344,"Delta":158817003},{"NoteNumber":55,"Velocity":33,"Duration":329344,"SoundDuration":329344,"Delta":158817003},{"NoteNumber":71,"Velocity":51,"Duration":164672,"SoundDuration":164672,"Delta":158981675},{"NoteNumber":72,"Velocity":57,"Duration":494016,"SoundDuration":494016,"Delta":159146347},{"NoteNumber":56,"Velocity":40,"Duration":329344,"SoundDuration":329344,"Delta":159146347},{"NoteNumber":60,"Velocity":48,"Duration":329344,"SoundDuration":329344,"Delta":159146347},{"NoteNumber":65,"Velocity":40,"Duration":164672,"SoundDuration":164672,"Delta":159311019},{"NoteNumber":67,"Velocity":48,"Duration":164672,"SoundDuration":164672,"Delta":159475692},{"NoteNumber":59,"Velocity":36,"Duration":343648,"SoundDuration":343648,"Delta":159475692},{"NoteNumber":55,"Velocity":31,"Duration":343648,"SoundDuration":343648,"Delta":159475692},{"NoteNumber":74,"Velocity":52,"Duration":178976,"SoundDuration":178976,"Delta":159640364},{"NoteNumber":79,"Velocity":66,"Duration":484399,"SoundDuration":484399,"Delta":159819340},{"NoteNumber":43,"Velocity":34,"Duration":319727,"SoundDuration":319727,"Delta":159819340},{"NoteNumber":71,"Velocity":47,"Duration":159863,"SoundDuration":159863,"Delta":159979204},{"NoteNumber":74,"Velocity":47,"Duration":164672,"SoundDuration":164672,"Delta":160139067},{"NoteNumber":55,"Velocity":37,"Duration":1016301,"SoundDuration":1016301,"Delta":160139067},{"NoteNumber":65,"Velocity":46,"Duration":658689,"SoundDuration":658689,"Delta":160139067},{"NoteNumber":80,"Velocity":64,"Duration":164672,"SoundDuration":164672,"Delta":160303739},{"NoteNumber":79,"Velocity":73,"Duration":502975,"SoundDuration":502975,"Delta":160468412},{"NoteNumber":71,"Velocity":47,"Duration":164672,"SoundDuration":164672,"Delta":160633084},{"NoteNumber":74,"Velocity":47,"Duration":173631,"SoundDuration":173631,"Delta":160797756},{"NoteNumber":62,"Velocity":35,"Duration":357612,"SoundDuration":357612,"Delta":160797756},{"NoteNumber":77,"Velocity":63,"Duration":183981,"SoundDuration":183981,"Delta":160971387},{"NoteNumber":77,"Velocity":70,"Duration":513185,"SoundDuration":513185,"Delta":161155369},{"NoteNumber":48,"Velocity":42,"Duration":1008836,"SoundDuration":1008836,"Delta":161155369},{"NoteNumber":67,"Velocity":36,"Duration":174256,"SoundDuration":174256,"Delta":161329625},{"NoteNumber":70,"Velocity":41,"Duration":164672,"SoundDuration":164672,"Delta":161503882},{"NoteNumber":60,"Velocity":33,"Duration":991303,"SoundDuration":991303,"Delta":161503882},{"NoteNumber":76,"Velocity":59,"Duration":164672,"SoundDuration":164672,"Delta":161668554},{"NoteNumber":74,"Velocity":65,"Duration":496469,"SoundDuration":496469,"Delta":161833226},{"NoteNumber":64,"Velocity":39,"Duration":165489,"SoundDuration":165489,"Delta":161998716},{"NoteNumber":70,"Velocity":39,"Duration":165489,"SoundDuration":165489,"Delta":162164206},{"NoteNumber":55,"Velocity":27,"Duration":330979,"SoundDuration":330979,"Delta":162164206},{"NoteNumber":72,"Velocity":57,"Duration":165489,"SoundDuration":165489,"Delta":162329695},{"NoteNumber":72,"Velocity":66,"Duration":494016,"SoundDuration":494016,"Delta":162495185},{"NoteNumber":57,"Velocity":34,"Duration":658689,"SoundDuration":658689,"Delta":162495185},{"NoteNumber":65,"Velocity":43,"Duration":164672,"SoundDuration":164672,"Delta":162659857},{"NoteNumber":69,"Velocity":43,"Duration":164672,"SoundDuration":164672,"Delta":162824530},{"NoteNumber":60,"Velocity":27,"Duration":658689,"SoundDuration":658689,"Delta":162824530},{"NoteNumber":74,"Velocity":58,"Duration":164672,"SoundDuration":164672,"Delta":162989202},{"NoteNumber":76,"Velocity":67,"Duration":502674,"SoundDuration":502674,"Delta":163153874},{"NoteNumber":53,"Velocity":37,"Duration":689079,"SoundDuration":689079,"Delta":163153874},{"NoteNumber":69,"Velocity":41,"Duration":164672,"SoundDuration":164672,"Delta":163318546},{"NoteNumber":72,"Velocity":46,"Duration":173330,"SoundDuration":173330,"Delta":163483219},{"NoteNumber":60,"Velocity":27,"Duration":359735,"SoundDuration":359735,"Delta":163483219},{"NoteNumber":77,"Velocity":65,"Duration":186404,"SoundDuration":186404,"Delta":163656549},{"NoteNumber":77,"Velocity":73,"Duration":491534,"SoundDuration":491534,"Delta":163842954},{"NoteNumber":46,"Velocity":41,"Duration":327689,"SoundDuration":327689,"Delta":163842954},{"NoteNumber":65,"Velocity":36,"Duration":163844,"SoundDuration":163844,"Delta":164006799},{"NoteNumber":70,"Velocity":36,"Duration":163845,"SoundDuration":163845,"Delta":164170644},{"NoteNumber":62,"Velocity":35,"Duration":327690,"SoundDuration":327690,"Delta":164170644},{"NoteNumber":58,"Velocity":29,"Duration":327690,"SoundDuration":327690,"Delta":164170644},{"NoteNumber":74,"Velocity":57,"Duration":163845,"SoundDuration":163845,"Delta":164334489},{"NoteNumber":72,"Velocity":65,"Duration":491534,"SoundDuration":491534,"Delta":164498334},{"NoteNumber":60,"Velocity":33,"Duration":327689,"SoundDuration":327689,"Delta":164498334},{"NoteNumber":57,"Velocity":27,"Duration":327689,"SoundDuration":327689,"Delta":164498334},{"NoteNumber":66,"Velocity":29,"Duration":163845,"SoundDuration":163845,"Delta":164662179},{"NoteNumber":67,"Velocity":29,"Duration":163845,"SoundDuration":163845,"Delta":164826024},{"NoteNumber":55,"Velocity":25,"Duration":327689,"SoundDuration":327689,"Delta":164826024},{"NoteNumber":58,"Velocity":31,"Duration":327689,"SoundDuration":327689,"Delta":164826024},{"NoteNumber":70,"Velocity":52,"Duration":163844,"SoundDuration":163844,"Delta":164989869},{"NoteNumber":69,"Velocity":57,"Duration":509539,"SoundDuration":509539,"Delta":165153714},{"NoteNumber":48,"Velocity":34,"Duration":674211,"SoundDuration":674211,"Delta":165153714},{"NoteNumber":60,"Velocity":32,"Duration":172433,"SoundDuration":172433,"Delta":165326147},{"NoteNumber":65,"Velocity":32,"Duration":164672,"SoundDuration":164672,"Delta":165498581},{"NoteNumber":57,"Velocity":27,"Duration":329344,"SoundDuration":329344,"Delta":165498581},{"NoteNumber":70,"Velocity":55,"Duration":164672,"SoundDuration":164672,"Delta":165663253},{"NoteNumber":67,"Velocity":59,"Duration":494016,"SoundDuration":494016,"Delta":165827925},{"NoteNumber":48,"Velocity":34,"Duration":671070,"SoundDuration":671070,"Delta":165827925},{"NoteNumber":60,"Velocity":32,"Duration":164672,"SoundDuration":164672,"Delta":165992597},{"NoteNumber":64,"Velocity":33,"Duration":164672,"SoundDuration":164672,"Delta":166157270},{"NoteNumber":58,"Velocity":27,"Duration":341725,"SoundDuration":341725,"Delta":166157270},{"NoteNumber":72,"Velocity":51,"Duration":177053,"SoundDuration":177053,"Delta":166321942},{"NoteNumber":65,"Velocity":58,"Duration":518272,"SoundDuration":518272,"Delta":166498996},{"NoteNumber":57,"Velocity":34,"Duration":1485898,"SoundDuration":1485898,"Delta":166498996},{"NoteNumber":53,"Velocity":34,"Duration":1485898,"SoundDuration":1485898,"Delta":166498996},{"NoteNumber":60,"Velocity":33,"Duration":174256,"SoundDuration":174256,"Delta":166673252},{"NoteNumber":65,"Velocity":29,"Duration":169759,"SoundDuration":169759,"Delta":166847509},{"NoteNumber":69,"Velocity":40,"Duration":179297,"SoundDuration":179297,"Delta":167017269},{"NoteNumber":72,"Velocity":40,"Duration":376932,"SoundDuration":376932,"Delta":167196566},{"NoteNumber":65,"Velocity":24,"Duration":188466,"SoundDuration":188466,"Delta":167385032},{"NoteNumber":73,"Velocity":42,"Duration":411395,"SoundDuration":411395,"Delta":167573498},{"NoteNumber":65,"Velocity":24,"Duration":211476,"SoundDuration":211476,"Delta":167773418},{"NoteNumber":74,"Velocity":50,"Duration":508454,"SoundDuration":508454,"Delta":167984894},{"NoteNumber":46,"Velocity":30,"Duration":1344402,"SoundDuration":1344402,"Delta":167984894},{"NoteNumber":62,"Velocity":26,"Duration":170381,"SoundDuration":170381,"Delta":168155287},{"NoteNumber":65,"Velocity":26,"Duration":167679,"SoundDuration":167679,"Delta":168325669},{"NoteNumber":53,"Velocity":24,"Duration":658760,"SoundDuration":658760,"Delta":168325669},{"NoteNumber":74,"Velocity":45,"Duration":165029,"SoundDuration":165029,"Delta":168493348},{"NoteNumber":74,"Velocity":50,"Duration":498485,"SoundDuration":498485,"Delta":168658378},{"NoteNumber":62,"Velocity":26,"Duration":163025,"SoundDuration":163025,"Delta":168821403},{"NoteNumber":65,"Velocity":26,"Duration":172433,"SoundDuration":172433,"Delta":168984429},{"NoteNumber":53,"Velocity":24,"Duration":344866,"SoundDuration":344866,"Delta":168984429},{"NoteNumber":74,"Velocity":47,"Duration":172433,"SoundDuration":172433,"Delta":169156863},{"NoteNumber":72,"Velocity":50,"Duration":494016,"SoundDuration":494016,"Delta":169329296},{"NoteNumber":50,"Velocity":30,"Duration":1317377,"SoundDuration":1317377,"Delta":169329296},{"NoteNumber":65,"Velocity":26,"Duration":164672,"SoundDuration":164672,"Delta":169493968},{"NoteNumber":68,"Velocity":26,"Duration":164672,"SoundDuration":164672,"Delta":169658641},{"NoteNumber":58,"Velocity":24,"Duration":658689,"SoundDuration":658689,"Delta":169658641},{"NoteNumber":70,"Velocity":45,"Duration":164672,"SoundDuration":164672,"Delta":169823313},{"NoteNumber":70,"Velocity":50,"Duration":494016,"SoundDuration":494016,"Delta":169987985},{"NoteNumber":65,"Velocity":26,"Duration":164672,"SoundDuration":164672,"Delta":170152657},{"NoteNumber":68,"Velocity":26,"Duration":164672,"SoundDuration":164672,"Delta":170317330},{"NoteNumber":58,"Velocity":24,"Duration":329344,"SoundDuration":329344,"Delta":170317330},{"NoteNumber":72,"Velocity":46,"Duration":164672,"SoundDuration":164672,"Delta":170482002},{"NoteNumber":70,"Velocity":50,"Duration":484399,"SoundDuration":484399,"Delta":170646674},{"NoteNumber":51,"Velocity":30,"Duration":1320142,"SoundDuration":1320142,"Delta":170646674},{"NoteNumber":66,"Velocity":32,"Duration":159863,"SoundDuration":159863,"Delta":170806538},{"NoteNumber":67,"Velocity":33,"Duration":164672,"SoundDuration":164672,"Delta":170966401},{"NoteNumber":58,"Velocity":28,"Duration":658689,"SoundDuration":658689,"Delta":170966401},{"NoteNumber":72,"Velocity":48,"Duration":164672,"SoundDuration":164672,"Delta":171131073},{"NoteNumber":74,"Velocity":57,"Duration":494016,"SoundDuration":494016,"Delta":171295746},{"NoteNumber":67,"Velocity":41,"Duration":164672,"SoundDuration":164672,"Delta":171460418},{"NoteNumber":70,"Velocity":43,"Duration":164672,"SoundDuration":164672,"Delta":171625090},{"NoteNumber":58,"Velocity":28,"Duration":341725,"SoundDuration":341725,"Delta":171625090},{"NoteNumber":75,"Velocity":61,"Duration":177053,"SoundDuration":177053,"Delta":171789762},{"NoteNumber":78,"Velocity":70,"Duration":513185,"SoundDuration":513185,"Delta":171966816},{"NoteNumber":52,"Velocity":37,"Duration":1358361,"SoundDuration":1358361,"Delta":171966816},{"NoteNumber":70,"Velocity":41,"Duration":174256,"SoundDuration":174256,"Delta":172141073},{"NoteNumber":73,"Velocity":41,"Duration":164672,"SoundDuration":164672,"Delta":172315329},{"NoteNumber":58,"Velocity":28,"Duration":678869,"SoundDuration":678869,"Delta":172315329},{"NoteNumber":61,"Velocity":28,"Duration":678869,"SoundDuration":678869,"Delta":172315329},{"NoteNumber":79,"Velocity":56,"Duration":183217,"SoundDuration":183217,"Delta":172480001},{"NoteNumber":81,"Velocity":63,"Duration":496469,"SoundDuration":496469,"Delta":172663219},{"NoteNumber":70,"Velocity":34,"Duration":165489,"SoundDuration":165489,"Delta":172828708},{"NoteNumber":73,"Velocity":34,"Duration":165489,"SoundDuration":165489,"Delta":172994198},{"NoteNumber":61,"Velocity":28,"Duration":330979,"SoundDuration":330979,"Delta":172994198},{"NoteNumber":58,"Velocity":28,"Duration":330979,"SoundDuration":330979,"Delta":172994198},{"NoteNumber":82,"Velocity":46,"Duration":165489,"SoundDuration":165489,"Delta":173159688},{"NoteNumber":72,"Velocity":50,"Duration":494016,"SoundDuration":494016,"Delta":173325178},{"NoteNumber":55,"Velocity":37,"Duration":1332900,"SoundDuration":1332900,"Delta":173325178},{"NoteNumber":64,"Velocity":26,"Duration":164672,"SoundDuration":164672,"Delta":173489850},{"NoteNumber":70,"Velocity":26,"Duration":164672,"SoundDuration":164672,"Delta":173654522},{"NoteNumber":60,"Velocity":24,"Duration":658689,"SoundDuration":658689,"Delta":173654522},{"NoteNumber":58,"Velocity":24,"Duration":658689,"SoundDuration":658689,"Delta":173654522},{"NoteNumber":74,"Velocity":45,"Duration":164672,"SoundDuration":164672,"Delta":173819194},{"NoteNumber":72,"Velocity":50,"Duration":501778,"SoundDuration":501778,"Delta":173983867},{"NoteNumber":64,"Velocity":26,"Duration":164672,"SoundDuration":164672,"Delta":174148539},{"NoteNumber":70,"Velocity":26,"Duration":172433,"SoundDuration":172433,"Delta":174313211},{"NoteNumber":61,"Velocity":24,"Duration":344866,"SoundDuration":344866,"Delta":174313211},{"NoteNumber":58,"Velocity":24,"Duration":344866,"SoundDuration":344866,"Delta":174313211},{"NoteNumber":73,"Velocity":53,"Duration":172433,"SoundDuration":172433,"Delta":174485645},{"NoteNumber":74,"Velocity":58,"Duration":494016,"SoundDuration":494016,"Delta":174658078},{"NoteNumber":53,"Velocity":34,"Duration":1317377,"SoundDuration":1317377,"Delta":174658078},{"NoteNumber":65,"Velocity":38,"Duration":164672,"SoundDuration":164672,"Delta":174822750},{"NoteNumber":70,"Velocity":38,"Duration":164672,"SoundDuration":164672,"Delta":174987423},{"NoteNumber":58,"Velocity":29,"Duration":329344,"SoundDuration":329344,"Delta":174987423},{"NoteNumber":62,"Velocity":29,"Duration":329344,"SoundDuration":329344,"Delta":174987423},{"NoteNumber":74,"Velocity":45,"Duration":164672,"SoundDuration":164672,"Delta":175152095},{"NoteNumber":75,"Velocity":55,"Duration":329344,"SoundDuration":329344,"Delta":175316767},{"NoteNumber":63,"Velocity":29,"Duration":329344,"SoundDuration":329344,"Delta":175316767},{"NoteNumber":60,"Velocity":24,"Duration":329344,"SoundDuration":329344,"Delta":175316767},{"NoteNumber":65,"Velocity":35,"Duration":164672,"SoundDuration":164672,"Delta":175481439},{"NoteNumber":74,"Velocity":62,"Duration":164672,"SoundDuration":164672,"Delta":175646112},{"NoteNumber":62,"Velocity":20,"Duration":329344,"SoundDuration":329344,"Delta":175646112},{"NoteNumber":65,"Velocity":24,"Duration":329344,"SoundDuration":329344,"Delta":175646112},{"NoteNumber":77,"Velocity":59,"Duration":164672,"SoundDuration":164672,"Delta":175810784},{"NoteNumber":77,"Velocity":64,"Duration":509539,"SoundDuration":509539,"Delta":175975456},{"NoteNumber":53,"Velocity":30,"Duration":1003556,"SoundDuration":1003556,"Delta":175975456},{"NoteNumber":65,"Velocity":28,"Duration":172433,"SoundDuration":172433,"Delta":176147890},{"NoteNumber":72,"Velocity":28,"Duration":164672,"SoundDuration":164672,"Delta":176320323},{"NoteNumber":60,"Velocity":24,"Duration":329344,"SoundDuration":329344,"Delta":176320323},{"NoteNumber":63,"Velocity":24,"Duration":329344,"SoundDuration":329344,"Delta":176320323},{"NoteNumber":75,"Velocity":43,"Duration":164672,"SoundDuration":164672,"Delta":176484995},{"NoteNumber":74,"Velocity":49,"Duration":494016,"SoundDuration":494016,"Delta":176649668},{"NoteNumber":62,"Velocity":24,"Duration":329344,"SoundDuration":329344,"Delta":176649668},{"NoteNumber":58,"Velocity":24,"Duration":329344,"SoundDuration":329344,"Delta":176649668},{"NoteNumber":65,"Velocity":28,"Duration":164672,"SoundDuration":164672,"Delta":176814340},{"NoteNumber":69,"Velocity":29,"Duration":164672,"SoundDuration":164672,"Delta":176979012},{"NoteNumber":60,"Velocity":24,"Duration":341725,"SoundDuration":341725,"Delta":176979012},{"NoteNumber":53,"Velocity":24,"Duration":341725,"SoundDuration":341725,"Delta":176979012},{"NoteNumber":72,"Velocity":43,"Duration":177053,"SoundDuration":177053,"Delta":177143684},{"NoteNumber":70,"Velocity":50,"Duration":518272,"SoundDuration":518272,"Delta":177320738},{"NoteNumber":46,"Velocity":25,"Duration":688032,"SoundDuration":688032,"Delta":177320738},{"NoteNumber":50,"Velocity":25,"Duration":688032,"SoundDuration":688032,"Delta":177320738},{"NoteNumber":58,"Velocity":30,"Duration":688032,"SoundDuration":688032,"Delta":177320738},{"NoteNumber":62,"Velocity":29,"Duration":174256,"SoundDuration":174256,"Delta":177494995},{"NoteNumber":65,"Velocity":26,"Duration":169759,"SoundDuration":169759,"Delta":177669251},{"NoteNumber":72,"Velocity":32,"Duration":169759,"SoundDuration":169759,"Delta":177839011},{"NoteNumber":70,"Velocity":38,"Duration":522582,"SoundDuration":522582,"Delta":178001698},{"NoteNumber":62,"Velocity":24,"Duration":174256,"SoundDuration":174256,"Delta":178183028},{"NoteNumber":65,"Velocity":24,"Duration":174256,"SoundDuration":174256,"Delta":178357284},{"NoteNumber":58,"Velocity":30,"Duration":348512,"SoundDuration":348512,"Delta":178357284},{"NoteNumber":74,"Velocity":39,"Duration":174256,"SoundDuration":174256,"Delta":178531541},{"NoteNumber":77,"Velocity":47,"Duration":509539,"SoundDuration":509539,"Delta":178705797},{"NoteNumber":53,"Velocity":27,"Duration":1003556,"SoundDuration":1003556,"Delta":178705797},{"NoteNumber":65,"Velocity":28,"Duration":172433,"SoundDuration":172433,"Delta":178878231},{"NoteNumber":72,"Velocity":28,"Duration":164672,"SoundDuration":164672,"Delta":179050664},{"NoteNumber":63,"Velocity":21,"Duration":329344,"SoundDuration":329344,"Delta":179050664},{"NoteNumber":60,"Velocity":21,"Duration":329344,"SoundDuration":329344,"Delta":179050664},{"NoteNumber":75,"Velocity":37,"Duration":164672,"SoundDuration":164672,"Delta":179215336},{"NoteNumber":74,"Velocity":43,"Duration":494016,"SoundDuration":494016,"Delta":179380009},{"NoteNumber":62,"Velocity":21,"Duration":329344,"SoundDuration":329344,"Delta":179380009},{"NoteNumber":58,"Velocity":21,"Duration":329344,"SoundDuration":329344,"Delta":179380009},{"NoteNumber":65,"Velocity":28,"Duration":164672,"SoundDuration":164672,"Delta":179544681},{"NoteNumber":69,"Velocity":29,"Duration":164672,"SoundDuration":164672,"Delta":179709353},{"NoteNumber":60,"Velocity":21,"Duration":341725,"SoundDuration":341725,"Delta":179709353},{"NoteNumber":53,"Velocity":21,"Duration":341725,"SoundDuration":341725,"Delta":179709353},{"NoteNumber":72,"Velocity":38,"Duration":177053,"SoundDuration":177053,"Delta":179874025},{"NoteNumber":70,"Velocity":43,"Duration":518272,"SoundDuration":518272,"Delta":180051079},{"NoteNumber":50,"Velocity":22,"Duration":688032,"SoundDuration":688032,"Delta":180051079},{"NoteNumber":46,"Velocity":22,"Duration":688032,"SoundDuration":688032,"Delta":180051079},{"NoteNumber":58,"Velocity":27,"Duration":688032,"SoundDuration":688032,"Delta":180051079},{"NoteNumber":62,"Velocity":27,"Duration":174256,"SoundDuration":174256,"Delta":180225336},{"NoteNumber":65,"Velocity":26,"Duration":169759,"SoundDuration":169759,"Delta":180399592},{"NoteNumber":74,"Velocity":32,"Duration":169759,"SoundDuration":169759,"Delta":180569352},{"NoteNumber":70,"Velocity":38,"Duration":528824,"SoundDuration":528824,"Delta":180732039},{"NoteNumber":62,"Velocity":24,"Duration":176366,"SoundDuration":176366,"Delta":180915479},{"NoteNumber":65,"Velocity":24,"Duration":176366,"SoundDuration":176366,"Delta":181091846},{"NoteNumber":53,"Velocity":27,"Duration":352733,"SoundDuration":352733,"Delta":181091846},{"NoteNumber":50,"Velocity":21,"Duration":352733,"SoundDuration":352733,"Delta":181091846},{"NoteNumber":67,"Velocity":39,"Duration":176366,"SoundDuration":176366,"Delta":181268212},{"NoteNumber":65,"Velocity":47,"Duration":534422,"SoundDuration":534422,"Delta":181444579},{"NoteNumber":41,"Velocity":27,"Duration":1055249,"SoundDuration":1055249,"Delta":181444579},{"NoteNumber":53,"Velocity":28,"Duration":182215,"SoundDuration":182215,"Delta":181626795},{"NoteNumber":60,"Velocity":28,"Duration":169991,"SoundDuration":169991,"Delta":181809011},{"NoteNumber":51,"Velocity":21,"Duration":339981,"SoundDuration":339981,"Delta":181809011},{"NoteNumber":48,"Velocity":21,"Duration":339981,"SoundDuration":339981,"Delta":181809011},{"NoteNumber":63,"Velocity":37,"Duration":169990,"SoundDuration":169990,"Delta":181979002},{"NoteNumber":62,"Velocity":43,"Duration":524406,"SoundDuration":524406,"Delta":182148993},{"NoteNumber":46,"Velocity":21,"Duration":350835,"SoundDuration":350835,"Delta":182148993},{"NoteNumber":50,"Velocity":21,"Duration":350835,"SoundDuration":350835,"Delta":182148993},{"NoteNumber":53,"Velocity":28,"Duration":175417,"SoundDuration":175417,"Delta":182324411},{"NoteNumber":57,"Velocity":29,"Duration":173571,"SoundDuration":173571,"Delta":182499829},{"NoteNumber":48,"Velocity":21,"Duration":387856,"SoundDuration":387856,"Delta":182499829},{"NoteNumber":41,"Velocity":21,"Duration":387856,"SoundDuration":387856,"Delta":182499829},{"NoteNumber":60,"Velocity":34,"Duration":214285,"SoundDuration":214285,"Delta":182673400},{"NoteNumber":58,"Velocity":33,"Duration":201207,"SoundDuration":201207,"Delta":182887685},{"NoteNumber":46,"Velocity":27,"Duration":1938886,"SoundDuration":1938886,"Delta":182887685},{"NoteNumber":41,"Velocity":27,"Duration":1938886,"SoundDuration":1938886,"Delta":182887685},{"NoteNumber":34,"Velocity":27,"Duration":1938886,"SoundDuration":1938886,"Delta":182887685},{"NoteNumber":50,"Velocity":25,"Duration":1737679,"SoundDuration":1737679,"Delta":183088893},{"NoteNumber":53,"Velocity":25,"Duration":1506874,"SoundDuration":1506874,"Delta":183319697},{"NoteNumber":57,"Velocity":25,"Duration":289407,"SoundDuration":289407,"Delta":183575626},{"NoteNumber":58,"Velocity":30,"Duration":961537,"SoundDuration":961537,"Delta":183865034},{"NoteNumber":74,"Velocity":50,"Duration":329344,"SoundDuration":329344,"Delta":188672724},{"NoteNumber":46,"Velocity":35,"Duration":164672,"SoundDuration":164672,"Delta":188672724},{"NoteNumber":73,"Velocity":50,"Duration":157068,"SoundDuration":157068,"Delta":189002069},{"NoteNumber":62,"Velocity":24,"Duration":619075,"SoundDuration":619075,"Delta":189002069},{"NoteNumber":58,"Velocity":20,"Duration":619075,"SoundDuration":619075,"Delta":189002069},{"NoteNumber":53,"Velocity":20,"Duration":619075,"SoundDuration":619075,"Delta":189002069},{"NoteNumber":74,"Velocity":45,"Duration":157067,"SoundDuration":157067,"Delta":189159137},{"NoteNumber":73,"Velocity":53,"Duration":152469,"SoundDuration":152469,"Delta":189316205},{"NoteNumber":74,"Velocity":45,"Duration":152469,"SoundDuration":152469,"Delta":189468675},{"NoteNumber":70,"Velocity":45,"Duration":162232,"SoundDuration":162232,"Delta":189621145},{"NoteNumber":53,"Velocity":21,"Duration":364279,"SoundDuration":364279,"Delta":189621145},{"NoteNumber":58,"Velocity":21,"Duration":364279,"SoundDuration":364279,"Delta":189621145},{"NoteNumber":62,"Velocity":25,"Duration":364279,"SoundDuration":364279,"Delta":189621145},{"NoteNumber":67,"Velocity":45,"Duration":181842,"SoundDuration":181842,"Delta":189783377},{"NoteNumber":67,"Velocity":56,"Duration":676005,"SoundDuration":676005,"Delta":189985424},{"NoteNumber":50,"Velocity":35,"Duration":173330,"SoundDuration":173330,"Delta":189985424},{"NoteNumber":58,"Velocity":23,"Duration":658689,"SoundDuration":658689,"Delta":190332085},{"NoteNumber":53,"Velocity":23,"Duration":658689,"SoundDuration":658689,"Delta":190332085},{"NoteNumber":62,"Velocity":28,"Duration":658689,"SoundDuration":658689,"Delta":190332085},{"NoteNumber":65,"Velocity":50,"Duration":329344,"SoundDuration":329344,"Delta":190661429},{"NoteNumber":58,"Velocity":22,"Duration":329344,"SoundDuration":329344,"Delta":190990774},{"NoteNumber":62,"Velocity":27,"Duration":329344,"SoundDuration":329344,"Delta":190990774},{"NoteNumber":53,"Velocity":22,"Duration":329344,"SoundDuration":329344,"Delta":190990774},{"NoteNumber":70,"Velocity":46,"Duration":82336,"SoundDuration":82336,"Delta":191237782},{"NoteNumber":69,"Velocity":52,"Duration":164672,"SoundDuration":164672,"Delta":191320118},{"NoteNumber":48,"Velocity":35,"Duration":164672,"SoundDuration":164672,"Delta":191320118},{"NoteNumber":70,"Velocity":43,"Duration":54890,"SoundDuration":54890,"Delta":191484791},{"NoteNumber":69,"Velocity":43,"Duration":54890,"SoundDuration":54890,"Delta":191539681},{"NoteNumber":67,"Velocity":43,"Duration":54890,"SoundDuration":54890,"Delta":191594572},{"NoteNumber":69,"Velocity":51,"Duration":161429,"SoundDuration":161429,"Delta":191649463},{"NoteNumber":53,"Velocity":20,"Duration":635033,"SoundDuration":635033,"Delta":191649463},{"NoteNumber":57,"Velocity":20,"Duration":635033,"SoundDuration":635033,"Delta":191649463},{"NoteNumber":63,"Velocity":24,"Duration":635033,"SoundDuration":635033,"Delta":191649463},{"NoteNumber":70,"Velocity":45,"Duration":161429,"SoundDuration":161429,"Delta":191810892},{"NoteNumber":71,"Velocity":51,"Duration":156087,"SoundDuration":156087,"Delta":191972321},{"NoteNumber":72,"Velocity":42,"Duration":156087,"SoundDuration":156087,"Delta":192128409},{"NoteNumber":73,"Velocity":46,"Duration":156087,"SoundDuration":156087,"Delta":192284496},{"NoteNumber":53,"Velocity":21,"Duration":347560,"SoundDuration":347560,"Delta":192284496},{"NoteNumber":63,"Velocity":25,"Duration":347560,"SoundDuration":347560,"Delta":192284496},{"NoteNumber":57,"Velocity":21,"Duration":347560,"SoundDuration":347560,"Delta":192284496},{"NoteNumber":74,"Velocity":49,"Duration":191473,"SoundDuration":191473,"Delta":192440584},{"NoteNumber":77,"Velocity":63,"Duration":695173,"SoundDuration":695173,"Delta":192632057},{"NoteNumber":41,"Velocity":35,"Duration":173330,"SoundDuration":173330,"Delta":192632057},{"NoteNumber":53,"Velocity":23,"Duration":679492,"SoundDuration":679492,"Delta":192978717},{"NoteNumber":60,"Velocity":28,"Duration":679492,"SoundDuration":679492,"Delta":192978717},{"NoteNumber":57,"Velocity":23,"Duration":679492,"SoundDuration":679492,"Delta":192978717},{"NoteNumber":75,"Velocity":59,"Duration":330979,"SoundDuration":330979,"Delta":193327230},{"NoteNumber":57,"Velocity":22,"Duration":330979,"SoundDuration":330979,"Delta":193658210},{"NoteNumber":53,"Velocity":22,"Duration":330979,"SoundDuration":330979,"Delta":193658210},{"NoteNumber":60,"Velocity":27,"Duration":330979,"SoundDuration":330979,"Delta":193658210},{"NoteNumber":74,"Velocity":59,"Duration":329344,"SoundDuration":329344,"Delta":193989189},{"NoteNumber":46,"Velocity":35,"Duration":164672,"SoundDuration":164672,"Delta":193989189},{"NoteNumber":76,"Velocity":53,"Duration":157811,"SoundDuration":157811,"Delta":194318534},{"NoteNumber":62,"Velocity":24,"Duration":622434,"SoundDuration":622434,"Delta":194318534},{"NoteNumber":53,"Velocity":20,"Duration":622434,"SoundDuration":622434,"Delta":194318534},{"NoteNumber":58,"Velocity":20,"Duration":622434,"SoundDuration":622434,"Delta":194318534},{"NoteNumber":77,"Velocity":53,"Duration":157811,"SoundDuration":157811,"Delta":194476346},{"NoteNumber":81,"Velocity":59,"Duration":153405,"SoundDuration":153405,"Delta":194634157},{"NoteNumber":82,"Velocity":52,"Duration":153405,"SoundDuration":153405,"Delta":194787563},{"NoteNumber":77,"Velocity":52,"Duration":153405,"SoundDuration":153405,"Delta":194940968},{"NoteNumber":58,"Velocity":21,"Duration":344878,"SoundDuration":344878,"Delta":194940968},{"NoteNumber":62,"Velocity":25,"Duration":344878,"SoundDuration":344878,"Delta":194940968},{"NoteNumber":53,"Velocity":21,"Duration":344878,"SoundDuration":344878,"Delta":194940968},{"NoteNumber":74,"Velocity":52,"Duration":191473,"SoundDuration":191473,"Delta":195094374},{"NoteNumber":72,"Velocity":59,"Duration":346660,"SoundDuration":346660,"Delta":195285847},{"NoteNumber":39,"Velocity":35,"Duration":173330,"SoundDuration":173330,"Delta":195285847},{"NoteNumber":78,"Velocity":52,"Duration":168029,"SoundDuration":168029,"Delta":195632507},{"NoteNumber":58,"Velocity":23,"Duration":649233,"SoundDuration":649233,"Delta":195632507},{"NoteNumber":55,"Velocity":23,"Duration":649233,"SoundDuration":649233,"Delta":195632507},{"NoteNumber":51,"Velocity":23,"Duration":649233,"SoundDuration":649233,"Delta":195632507},{"NoteNumber":60,"Velocity":28,"Duration":649233,"SoundDuration":649233,"Delta":195632507},{"NoteNumber":79,"Velocity":52,"Duration":168029,"SoundDuration":168029,"Delta":195800537},{"NoteNumber":81,"Velocity":59,"Duration":158328,"SoundDuration":158328,"Delta":195968566},{"NoteNumber":82,"Velocity":52,"Duration":154846,"SoundDuration":154846,"Delta":196126894},{"NoteNumber":79,"Velocity":52,"Duration":154846,"SoundDuration":154846,"Delta":196281741},{"NoteNumber":58,"Velocity":22,"Duration":309693,"SoundDuration":309693,"Delta":196281741},{"NoteNumber":51,"Velocity":22,"Duration":309693,"SoundDuration":309693,"Delta":196281741},{"NoteNumber":60,"Velocity":27,"Duration":309693,"SoundDuration":309693,"Delta":196281741},{"NoteNumber":55,"Velocity":22,"Duration":309693,"SoundDuration":309693,"Delta":196281741},{"NoteNumber":72,"Velocity":52,"Duration":154846,"SoundDuration":154846,"Delta":196436588},{"NoteNumber":72,"Velocity":59,"Duration":174256,"SoundDuration":174256,"Delta":196591435},{"NoteNumber":39,"Velocity":42,"Duration":334120,"SoundDuration":334120,"Delta":196591435},{"NoteNumber":84,"Velocity":65,"Duration":159863,"SoundDuration":159863,"Delta":196765691},{"NoteNumber":83,"Velocity":63,"Duration":159863,"SoundDuration":159863,"Delta":196925555},{"NoteNumber":60,"Velocity":35,"Duration":639454,"SoundDuration":639454,"Delta":196925555},{"NoteNumber":55,"Velocity":29,"Duration":319727,"SoundDuration":319727,"Delta":196925555},{"NoteNumber":52,"Velocity":29,"Duration":639454,"SoundDuration":639454,"Delta":196925555},{"NoteNumber":82,"Velocity":59,"Duration":159863,"SoundDuration":159863,"Delta":197085418},{"NoteNumber":81,"Velocity":59,"Duration":159863,"SoundDuration":159863,"Delta":197245282},{"NoteNumber":57,"Velocity":35,"Duration":319727,"SoundDuration":319727,"Delta":197245282},{"NoteNumber":72,"Velocity":51,"Duration":159863,"SoundDuration":159863,"Delta":197405145},{"NoteNumber":70,"Velocity":51,"Duration":159863,"SoundDuration":159863,"Delta":197565009},{"NoteNumber":60,"Velocity":39,"Duration":329623,"SoundDuration":329623,"Delta":197565009},{"NoteNumber":52,"Velocity":33,"Duration":329623,"SoundDuration":329623,"Delta":197565009},{"NoteNumber":58,"Velocity":33,"Duration":329623,"SoundDuration":329623,"Delta":197565009},{"NoteNumber":79,"Velocity":59,"Duration":169759,"SoundDuration":169759,"Delta":197724872},{"NoteNumber":69,"Velocity":59,"Duration":161429,"SoundDuration":161429,"Delta":197894632},{"NoteNumber":41,"Velocity":44,"Duration":322858,"SoundDuration":322858,"Delta":197894632},{"NoteNumber":77,"Velocity":49,"Duration":161429,"SoundDuration":161429,"Delta":198056061},{"NoteNumber":72,"Velocity":56,"Duration":161429,"SoundDuration":161429,"Delta":198217491},{"NoteNumber":60,"Velocity":38,"Duration":322767,"SoundDuration":322767,"Delta":198217491},{"NoteNumber":53,"Velocity":32,"Duration":1006709,"SoundDuration":1006709,"Delta":198217491},{"NoteNumber":57,"Velocity":32,"Duration":322767,"SoundDuration":322767,"Delta":198217491},{"NoteNumber":75,"Velocity":46,"Duration":161338,"SoundDuration":161338,"Delta":198378920},{"NoteNumber":70,"Velocity":59,"Duration":162163,"SoundDuration":162163,"Delta":198540258},{"NoteNumber":62,"Velocity":37,"Duration":327919,"SoundDuration":327919,"Delta":198540258},{"NoteNumber":58,"Velocity":31,"Duration":327919,"SoundDuration":327919,"Delta":198540258},{"NoteNumber":74,"Velocity":49,"Duration":165756,"SoundDuration":165756,"Delta":198702421},{"NoteNumber":69,"Velocity":59,"Duration":173161,"SoundDuration":173161,"Delta":198868178},{"NoteNumber":63,"Velocity":36,"Duration":356022,"SoundDuration":356022,"Delta":198868178},{"NoteNumber":60,"Velocity":30,"Duration":356022,"SoundDuration":356022,"Delta":198868178},{"NoteNumber":72,"Velocity":46,"Duration":182861,"SoundDuration":182861,"Delta":199041339},{"NoteNumber":70,"Velocity":50,"Duration":82336,"SoundDuration":82336,"Delta":199224200},{"NoteNumber":46,"Velocity":35,"Duration":164672,"SoundDuration":164672,"Delta":199224200},{"NoteNumber":86,"Velocity":57,"Duration":164672,"SoundDuration":164672,"Delta":199388872},{"NoteNumber":85,"Velocity":57,"Duration":154846,"SoundDuration":154846,"Delta":199553544},{"NoteNumber":58,"Velocity":20,"Duration":615068,"SoundDuration":615068,"Delta":199553544},{"NoteNumber":62,"Velocity":24,"Duration":615068,"SoundDuration":615068,"Delta":199553544},{"NoteNumber":53,"Velocity":20,"Duration":615068,"SoundDuration":615068,"Delta":199553544},{"NoteNumber":86,"Velocity":51,"Duration":154846,"SoundDuration":154846,"Delta":199708391},{"NoteNumber":85,"Velocity":60,"Duration":152687,"SoundDuration":152687,"Delta":199863238},{"NoteNumber":86,"Velocity":51,"Duration":152687,"SoundDuration":152687,"Delta":200015925},{"NoteNumber":82,"Velocity":51,"Duration":163845,"SoundDuration":163845,"Delta":200168612},{"NoteNumber":62,"Velocity":25,"Duration":365892,"SoundDuration":365892,"Delta":200168612},{"NoteNumber":53,"Velocity":21,"Duration":365892,"SoundDuration":365892,"Delta":200168612},{"NoteNumber":58,"Velocity":21,"Duration":365892,"SoundDuration":365892,"Delta":200168612},{"NoteNumber":79,"Velocity":51,"Duration":181842,"SoundDuration":181842,"Delta":200332457},{"NoteNumber":79,"Velocity":64,"Duration":676005,"SoundDuration":676005,"Delta":200534505},{"NoteNumber":50,"Velocity":35,"Duration":173330,"SoundDuration":173330,"Delta":200534505},{"NoteNumber":65,"Velocity":28,"Duration":658689,"SoundDuration":658689,"Delta":200881165},{"NoteNumber":53,"Velocity":23,"Duration":658689,"SoundDuration":658689,"Delta":200881165},{"NoteNumber":58,"Velocity":23,"Duration":658689,"SoundDuration":658689,"Delta":200881165},{"NoteNumber":77,"Velocity":57,"Duration":329344,"SoundDuration":329344,"Delta":201210510},{"NoteNumber":65,"Velocity":27,"Duration":329344,"SoundDuration":329344,"Delta":201539854},{"NoteNumber":53,"Velocity":22,"Duration":329344,"SoundDuration":329344,"Delta":201539854},{"NoteNumber":58,"Velocity":22,"Duration":329344,"SoundDuration":329344,"Delta":201539854},{"NoteNumber":82,"Velocity":52,"Duration":82336,"SoundDuration":82336,"Delta":201786863},{"NoteNumber":81,"Velocity":59,"Duration":164672,"SoundDuration":164672,"Delta":201869199},{"NoteNumber":48,"Velocity":35,"Duration":164672,"SoundDuration":164672,"Delta":201869199},{"NoteNumber":82,"Velocity":49,"Duration":54890,"SoundDuration":54890,"Delta":202033871},{"NoteNumber":81,"Velocity":49,"Duration":54890,"SoundDuration":54890,"Delta":202088762},{"NoteNumber":79,"Velocity":49,"Duration":54890,"SoundDuration":54890,"Delta":202143653},{"NoteNumber":81,"Velocity":58,"Duration":161429,"SoundDuration":161429,"Delta":202198543},{"NoteNumber":53,"Velocity":20,"Duration":626098,"SoundDuration":626098,"Delta":202198543},{"NoteNumber":63,"Velocity":24,"Duration":626098,"SoundDuration":626098,"Delta":202198543},{"NoteNumber":57,"Velocity":20,"Duration":626098,"SoundDuration":626098,"Delta":202198543},{"NoteNumber":82,"Velocity":51,"Duration":158328,"SoundDuration":158328,"Delta":202359973},{"NoteNumber":83,"Velocity":58,"Duration":153170,"SoundDuration":153170,"Delta":202518301},{"NoteNumber":84,"Velocity":48,"Duration":153170,"SoundDuration":153170,"Delta":202671471},{"NoteNumber":85,"Velocity":52,"Duration":163025,"SoundDuration":163025,"Delta":202824642},{"NoteNumber":57,"Velocity":21,"Duration":354498,"SoundDuration":354498,"Delta":202824642},{"NoteNumber":63,"Velocity":25,"Duration":354498,"SoundDuration":354498,"Delta":202824642},{"NoteNumber":53,"Velocity":21,"Duration":354498,"SoundDuration":354498,"Delta":202824642},{"NoteNumber":86,"Velocity":56,"Duration":191473,"SoundDuration":191473,"Delta":202987668},{"NoteNumber":89,"Velocity":69,"Duration":520917,"SoundDuration":520917,"Delta":203179141},{"NoteNumber":41,"Velocity":35,"Duration":173330,"SoundDuration":173330,"Delta":203179141},{"NoteNumber":57,"Velocity":23,"Duration":679492,"SoundDuration":679492,"Delta":203525801},{"NoteNumber":60,"Velocity":28,"Duration":679492,"SoundDuration":679492,"Delta":203525801},{"NoteNumber":53,"Velocity":23,"Duration":679492,"SoundDuration":679492,"Delta":203525801},{"NoteNumber":88,"Velocity":65,"Duration":174256,"SoundDuration":174256,"Delta":203700058},{"NoteNumber":87,"Velocity":67,"Duration":330979,"SoundDuration":330979,"Delta":203874314},{"NoteNumber":60,"Velocity":27,"Duration":330979,"SoundDuration":330979,"Delta":204205294},{"NoteNumber":53,"Velocity":22,"Duration":330979,"SoundDuration":330979,"Delta":204205294},{"NoteNumber":57,"Velocity":22,"Duration":330979,"SoundDuration":330979,"Delta":204205294},{"NoteNumber":86,"Velocity":67,"Duration":329344,"SoundDuration":329344,"Delta":204536273},{"NoteNumber":46,"Velocity":35,"Duration":164672,"SoundDuration":164672,"Delta":204536273},{"NoteNumber":88,"Velocity":60,"Duration":160119,"SoundDuration":160119,"Delta":204865618},{"NoteNumber":62,"Velocity":24,"Duration":629932,"SoundDuration":629932,"Delta":204865618},{"NoteNumber":58,"Velocity":20,"Duration":629932,"SoundDuration":629932,"Delta":204865618},{"NoteNumber":53,"Velocity":20,"Duration":629932,"SoundDuration":629932,"Delta":204865618},{"NoteNumber":89,"Velocity":60,"Duration":160119,"SoundDuration":160119,"Delta":205025737},{"NoteNumber":93,"Velocity":67,"Duration":154846,"SoundDuration":154846,"Delta":205185857},{"NoteNumber":94,"Velocity":62,"Duration":154846,"SoundDuration":154846,"Delta":205340704},{"NoteNumber":89,"Velocity":64,"Duration":154846,"SoundDuration":154846,"Delta":205495550},{"NoteNumber":58,"Velocity":21,"Duration":346319,"SoundDuration":346319,"Delta":205495550},{"NoteNumber":53,"Velocity":21,"Duration":346319,"SoundDuration":346319,"Delta":205495550},{"NoteNumber":62,"Velocity":25,"Duration":346319,"SoundDuration":346319,"Delta":205495550},{"NoteNumber":86,"Velocity":66,"Duration":191473,"SoundDuration":191473,"Delta":205650397},{"NoteNumber":85,"Velocity":74,"Duration":346660,"SoundDuration":346660,"Delta":205841870},{"NoteNumber":40,"Velocity":35,"Duration":173330,"SoundDuration":173330,"Delta":205841870},{"NoteNumber":91,"Velocity":59,"Duration":166334,"SoundDuration":166334,"Delta":206188531},{"NoteNumber":61,"Velocity":28,"Duration":655526,"SoundDuration":655526,"Delta":206188531},{"NoteNumber":58,"Velocity":23,"Duration":655526,"SoundDuration":655526,"Delta":206188531},{"NoteNumber":55,"Velocity":23,"Duration":655526,"SoundDuration":655526,"Delta":206188531},{"NoteNumber":52,"Velocity":23,"Duration":655526,"SoundDuration":655526,"Delta":206188531},{"NoteNumber":94,"Velocity":59,"Duration":166334,"SoundDuration":166334,"Delta":206354865},{"NoteNumber":96,"Velocity":73,"Duration":161429,"SoundDuration":161429,"Delta":206521199},{"NoteNumber":97,"Velocity":59,"Duration":161429,"SoundDuration":161429,"Delta":206682628},{"NoteNumber":94,"Velocity":59,"Duration":161429,"SoundDuration":161429,"Delta":206844057},{"NoteNumber":61,"Velocity":27,"Duration":322858,"SoundDuration":322858,"Delta":206844057},{"NoteNumber":55,"Velocity":22,"Duration":322858,"SoundDuration":322858,"Delta":206844057},{"NoteNumber":52,"Velocity":22,"Duration":322858,"SoundDuration":322858,"Delta":206844057},{"NoteNumber":58,"Velocity":22,"Duration":322858,"SoundDuration":322858,"Delta":206844057},{"NoteNumber":85,"Velocity":59,"Duration":161429,"SoundDuration":161429,"Delta":207005486},{"NoteNumber":84,"Velocity":50,"Duration":174256,"SoundDuration":174256,"Delta":207166916},{"NoteNumber":53,"Velocity":42,"Duration":1303197,"SoundDuration":1303197,"Delta":207166916},{"NoteNumber":60,"Velocity":42,"Duration":973574,"SoundDuration":973574,"Delta":207166916},{"NoteNumber":58,"Velocity":39,"Duration":334120,"SoundDuration":334120,"Delta":207166916},{"NoteNumber":86,"Velocity":54,"Duration":159863,"SoundDuration":159863,"Delta":207341172},{"NoteNumber":87,"Velocity":58,"Duration":159863,"SoundDuration":159863,"Delta":207501036},{"NoteNumber":57,"Velocity":39,"Duration":159863,"SoundDuration":159863,"Delta":207501036},{"NoteNumber":88,"Velocity":61,"Duration":159863,"SoundDuration":159863,"Delta":207660899},{"NoteNumber":55,"Velocity":42,"Duration":159863,"SoundDuration":159863,"Delta":207660899},{"NoteNumber":89,"Velocity":59,"Duration":159863,"SoundDuration":159863,"Delta":207820763},{"NoteNumber":57,"Velocity":48,"Duration":319727,"SoundDuration":319727,"Delta":207820763},{"NoteNumber":91,"Velocity":51,"Duration":159863,"SoundDuration":159863,"Delta":207980626},{"NoteNumber":87,"Velocity":51,"Duration":159863,"SoundDuration":159863,"Delta":208140490},{"NoteNumber":63,"Velocity":39,"Duration":329623,"SoundDuration":329623,"Delta":208140490},{"NoteNumber":60,"Velocity":33,"Duration":329623,"SoundDuration":329623,"Delta":208140490},{"NoteNumber":84,"Velocity":48,"Duration":169759,"SoundDuration":169759,"Delta":208300353},{"NoteNumber":82,"Velocity":59,"Duration":161429,"SoundDuration":161429,"Delta":208470113},{"NoteNumber":58,"Velocity":44,"Duration":1329567,"SoundDuration":1329567,"Delta":208470113},{"NoteNumber":62,"Velocity":44,"Duration":1329567,"SoundDuration":1329567,"Delta":208470113},{"NoteNumber":77,"Velocity":49,"Duration":161429,"SoundDuration":161429,"Delta":208631542},{"NoteNumber":74,"Velocity":50,"Duration":161429,"SoundDuration":161429,"Delta":208792972},{"NoteNumber":70,"Velocity":46,"Duration":161338,"SoundDuration":161338,"Delta":208954401},{"NoteNumber":69,"Velocity":52,"Duration":162163,"SoundDuration":162163,"Delta":209115739},{"NoteNumber":70,"Velocity":49,"Duration":165756,"SoundDuration":165756,"Delta":209277903},{"NoteNumber":72,"Velocity":47,"Duration":173161,"SoundDuration":173161,"Delta":209443659},{"NoteNumber":73,"Velocity":44,"Duration":182861,"SoundDuration":182861,"Delta":209616820},{"NoteNumber":74,"Velocity":50,"Duration":329344,"SoundDuration":329344,"Delta":209799681},{"NoteNumber":46,"Velocity":35,"Duration":164672,"SoundDuration":164672,"Delta":209799681},{"NoteNumber":73,"Velocity":50,"Duration":157811,"SoundDuration":157811,"Delta":210129026},{"NoteNumber":53,"Velocity":20,"Duration":625316,"SoundDuration":625316,"Delta":210129026},{"NoteNumber":58,"Velocity":20,"Duration":625316,"SoundDuration":625316,"Delta":210129026},{"NoteNumber":62,"Velocity":24,"Duration":625316,"SoundDuration":625316,"Delta":210129026},{"NoteNumber":74,"Velocity":45,"Duration":157811,"SoundDuration":157811,"Delta":210286837},{"NoteNumber":73,"Velocity":53,"Duration":154846,"SoundDuration":154846,"Delta":210444649},{"NoteNumber":74,"Velocity":45,"Duration":154846,"SoundDuration":154846,"Delta":210599496},{"NoteNumber":70,"Velocity":45,"Duration":162232,"SoundDuration":162232,"Delta":210754343},{"NoteNumber":58,"Velocity":21,"Duration":364279,"SoundDuration":364279,"Delta":210754343},{"NoteNumber":62,"Velocity":25,"Duration":364279,"SoundDuration":364279,"Delta":210754343},{"NoteNumber":53,"Velocity":21,"Duration":364279,"SoundDuration":364279,"Delta":210754343},{"NoteNumber":67,"Velocity":45,"Duration":181842,"SoundDuration":181842,"Delta":210916575},{"NoteNumber":67,"Velocity":56,"Duration":676005,"SoundDuration":676005,"Delta":211118622},{"NoteNumber":50,"Velocity":35,"Duration":173330,"SoundDuration":173330,"Delta":211118622},{"NoteNumber":62,"Velocity":28,"Duration":658689,"SoundDuration":658689,"Delta":211465283},{"NoteNumber":58,"Velocity":23,"Duration":658689,"SoundDuration":658689,"Delta":211465283},{"NoteNumber":53,"Velocity":23,"Duration":658689,"SoundDuration":658689,"Delta":211465283},{"NoteNumber":65,"Velocity":50,"Duration":329344,"SoundDuration":329344,"Delta":211794627},{"NoteNumber":58,"Velocity":22,"Duration":329344,"SoundDuration":329344,"Delta":212123972},{"NoteNumber":53,"Velocity":22,"Duration":329344,"SoundDuration":329344,"Delta":212123972},{"NoteNumber":62,"Velocity":27,"Duration":329344,"SoundDuration":329344,"Delta":212123972},{"NoteNumber":70,"Velocity":46,"Duration":82336,"SoundDuration":82336,"Delta":212370980},{"NoteNumber":69,"Velocity":52,"Duration":164672,"SoundDuration":164672,"Delta":212453316},{"NoteNumber":48,"Velocity":35,"Duration":164672,"SoundDuration":164672,"Delta":212453316},{"NoteNumber":70,"Velocity":43,"Duration":54890,"SoundDuration":54890,"Delta":212617989},{"NoteNumber":69,"Velocity":43,"Duration":54890,"SoundDuration":54890,"Delta":212672879},{"NoteNumber":67,"Velocity":43,"Duration":54890,"SoundDuration":54890,"Delta":212727770},{"NoteNumber":69,"Velocity":51,"Duration":161429,"SoundDuration":161429,"Delta":212782661},{"NoteNumber":57,"Velocity":20,"Duration":635033,"SoundDuration":635033,"Delta":212782661},{"NoteNumber":53,"Velocity":20,"Duration":635033,"SoundDuration":635033,"Delta":212782661},{"NoteNumber":63,"Velocity":24,"Duration":635033,"SoundDuration":635033,"Delta":212782661},{"NoteNumber":70,"Velocity":45,"Duration":161429,"SoundDuration":161429,"Delta":212944090},{"NoteNumber":71,"Velocity":51,"Duration":156087,"SoundDuration":156087,"Delta":213105519},{"NoteNumber":72,"Velocity":42,"Duration":156087,"SoundDuration":156087,"Delta":213261607},{"NoteNumber":73,"Velocity":46,"Duration":156087,"SoundDuration":156087,"Delta":213417694},{"NoteNumber":57,"Velocity":21,"Duration":347560,"SoundDuration":347560,"Delta":213417694},{"NoteNumber":53,"Velocity":21,"Duration":347560,"SoundDuration":347560,"Delta":213417694},{"NoteNumber":63,"Velocity":25,"Duration":347560,"SoundDuration":347560,"Delta":213417694},{"NoteNumber":74,"Velocity":49,"Duration":191473,"SoundDuration":191473,"Delta":213573782},{"NoteNumber":77,"Velocity":63,"Duration":695173,"SoundDuration":695173,"Delta":213765255},{"NoteNumber":41,"Velocity":35,"Duration":173330,"SoundDuration":173330,"Delta":213765255},{"NoteNumber":60,"Velocity":28,"Duration":679492,"SoundDuration":679492,"Delta":214111915},{"NoteNumber":57,"Velocity":23,"Duration":679492,"SoundDuration":679492,"Delta":214111915},{"NoteNumber":53,"Velocity":23,"Duration":679492,"SoundDuration":679492,"Delta":214111915},{"NoteNumber":75,"Velocity":59,"Duration":330979,"SoundDuration":330979,"Delta":214460428},{"NoteNumber":57,"Velocity":22,"Duration":330979,"SoundDuration":330979,"Delta":214791408},{"NoteNumber":53,"Velocity":22,"Duration":330979,"SoundDuration":330979,"Delta":214791408},{"NoteNumber":60,"Velocity":27,"Duration":330979,"SoundDuration":330979,"Delta":214791408},{"NoteNumber":74,"Velocity":59,"Duration":329344,"SoundDuration":329344,"Delta":215122387},{"NoteNumber":46,"Velocity":35,"Duration":164672,"SoundDuration":164672,"Delta":215122387},{"NoteNumber":76,"Velocity":53,"Duration":161429,"SoundDuration":161429,"Delta":215451732},{"NoteNumber":58,"Velocity":20,"Duration":636502,"SoundDuration":636502,"Delta":215451732},{"NoteNumber":53,"Velocity":20,"Duration":636502,"SoundDuration":636502,"Delta":215451732},{"NoteNumber":62,"Velocity":24,"Duration":636502,"SoundDuration":636502,"Delta":215451732},{"NoteNumber":77,"Velocity":53,"Duration":161429,"SoundDuration":161429,"Delta":215613161},{"NoteNumber":81,"Velocity":59,"Duration":156821,"SoundDuration":156821,"Delta":215774590},{"NoteNumber":82,"Velocity":52,"Duration":156821,"SoundDuration":156821,"Delta":215931412},{"NoteNumber":77,"Velocity":52,"Duration":156821,"SoundDuration":156821,"Delta":216088234},{"NoteNumber":58,"Velocity":21,"Duration":348294,"SoundDuration":348294,"Delta":216088234},{"NoteNumber":53,"Velocity":21,"Duration":348294,"SoundDuration":348294,"Delta":216088234},{"NoteNumber":62,"Velocity":25,"Duration":348294,"SoundDuration":348294,"Delta":216088234},{"NoteNumber":74,"Velocity":52,"Duration":191473,"SoundDuration":191473,"Delta":216245056},{"NoteNumber":72,"Velocity":59,"Duration":346660,"SoundDuration":346660,"Delta":216436529},{"NoteNumber":39,"Velocity":35,"Duration":173330,"SoundDuration":173330,"Delta":216436529},{"NoteNumber":78,"Velocity":52,"Duration":168029,"SoundDuration":168029,"Delta":216783189},{"NoteNumber":58,"Velocity":23,"Duration":652715,"SoundDuration":652715,"Delta":216783189},{"NoteNumber":51,"Velocity":23,"Duration":652715,"SoundDuration":652715,"Delta":216783189},{"NoteNumber":60,"Velocity":28,"Duration":652715,"SoundDuration":652715,"Delta":216783189},{"NoteNumber":55,"Velocity":23,"Duration":652715,"SoundDuration":652715,"Delta":216783189},{"NoteNumber":79,"Velocity":52,"Duration":168029,"SoundDuration":168029,"Delta":216951219},{"NoteNumber":81,"Velocity":59,"Duration":158328,"SoundDuration":158328,"Delta":217119248},{"NoteNumber":82,"Velocity":52,"Duration":158327,"SoundDuration":158327,"Delta":217277576},{"NoteNumber":79,"Velocity":52,"Duration":158328,"SoundDuration":158328,"Delta":217435904},{"NoteNumber":51,"Velocity":22,"Duration":316655,"SoundDuration":316655,"Delta":217435904},{"NoteNumber":60,"Velocity":27,"Duration":316655,"SoundDuration":316655,"Delta":217435904},{"NoteNumber":58,"Velocity":22,"Duration":316655,"SoundDuration":316655,"Delta":217435904},{"NoteNumber":55,"Velocity":22,"Duration":316655,"SoundDuration":316655,"Delta":217435904},{"NoteNumber":72,"Velocity":52,"Duration":158327,"SoundDuration":158327,"Delta":217594232},{"NoteNumber":72,"Velocity":59,"Duration":174256,"SoundDuration":174256,"Delta":217752560},{"NoteNumber":39,"Velocity":42,"Duration":334120,"SoundDuration":334120,"Delta":217752560},{"NoteNumber":84,"Velocity":65,"Duration":159863,"SoundDuration":159863,"Delta":217926817},{"NoteNumber":83,"Velocity":63,"Duration":159863,"SoundDuration":159863,"Delta":218086680},{"NoteNumber":60,"Velocity":35,"Duration":639454,"SoundDuration":639454,"Delta":218086680},{"NoteNumber":52,"Velocity":29,"Duration":639454,"SoundDuration":639454,"Delta":218086680},{"NoteNumber":55,"Velocity":29,"Duration":319727,"SoundDuration":319727,"Delta":218086680},{"NoteNumber":82,"Velocity":59,"Duration":159863,"SoundDuration":159863,"Delta":218246544},{"NoteNumber":81,"Velocity":59,"Duration":159863,"SoundDuration":159863,"Delta":218406407},{"NoteNumber":57,"Velocity":35,"Duration":319727,"SoundDuration":319727,"Delta":218406407},{"NoteNumber":72,"Velocity":51,"Duration":159863,"SoundDuration":159863,"Delta":218566271},{"NoteNumber":70,"Velocity":51,"Duration":159863,"SoundDuration":159863,"Delta":218726134},{"NoteNumber":52,"Velocity":33,"Duration":329623,"SoundDuration":329623,"Delta":218726134},{"NoteNumber":60,"Velocity":39,"Duration":329623,"SoundDuration":329623,"Delta":218726134},{"NoteNumber":58,"Velocity":33,"Duration":329623,"SoundDuration":329623,"Delta":218726134},{"NoteNumber":79,"Velocity":59,"Duration":169759,"SoundDuration":169759,"Delta":218885998},{"NoteNumber":69,"Velocity":59,"Duration":161429,"SoundDuration":161429,"Delta":219055758},{"NoteNumber":41,"Velocity":44,"Duration":322858,"SoundDuration":322858,"Delta":219055758},{"NoteNumber":77,"Velocity":49,"Duration":161429,"SoundDuration":161429,"Delta":219217187},{"NoteNumber":72,"Velocity":56,"Duration":161429,"SoundDuration":161429,"Delta":219378616},{"NoteNumber":53,"Velocity":32,"Duration":1006709,"SoundDuration":1006709,"Delta":219378616},{"NoteNumber":57,"Velocity":32,"Duration":322767,"SoundDuration":322767,"Delta":219378616},{"NoteNumber":60,"Velocity":38,"Duration":322767,"SoundDuration":322767,"Delta":219378616},{"NoteNumber":75,"Velocity":46,"Duration":161338,"SoundDuration":161338,"Delta":219540045},{"NoteNumber":70,"Velocity":59,"Duration":162163,"SoundDuration":162163,"Delta":219701384},{"NoteNumber":58,"Velocity":31,"Duration":327919,"SoundDuration":327919,"Delta":219701384},{"NoteNumber":62,"Velocity":37,"Duration":327919,"SoundDuration":327919,"Delta":219701384},{"NoteNumber":74,"Velocity":49,"Duration":165756,"SoundDuration":165756,"Delta":219863547},{"NoteNumber":69,"Velocity":59,"Duration":173161,"SoundDuration":173161,"Delta":220029303},{"NoteNumber":63,"Velocity":36,"Duration":356022,"SoundDuration":356022,"Delta":220029303},{"NoteNumber":60,"Velocity":30,"Duration":356022,"SoundDuration":356022,"Delta":220029303},{"NoteNumber":72,"Velocity":46,"Duration":182861,"SoundDuration":182861,"Delta":220202464},{"NoteNumber":70,"Velocity":50,"Duration":82336,"SoundDuration":82336,"Delta":220385326},{"NoteNumber":46,"Velocity":35,"Duration":164672,"SoundDuration":164672,"Delta":220385326},{"NoteNumber":86,"Velocity":57,"Duration":164672,"SoundDuration":164672,"Delta":220549998},{"NoteNumber":85,"Velocity":57,"Duration":156087,"SoundDuration":156087,"Delta":220714670},{"NoteNumber":53,"Velocity":20,"Duration":618516,"SoundDuration":618516,"Delta":220714670},{"NoteNumber":62,"Velocity":24,"Duration":618516,"SoundDuration":618516,"Delta":220714670},{"NoteNumber":58,"Velocity":20,"Duration":618516,"SoundDuration":618516,"Delta":220714670},{"NoteNumber":86,"Velocity":51,"Duration":156087,"SoundDuration":156087,"Delta":220870758},{"NoteNumber":85,"Velocity":60,"Duration":153170,"SoundDuration":153170,"Delta":221026845},{"NoteNumber":86,"Velocity":51,"Duration":153170,"SoundDuration":153170,"Delta":221180016},{"NoteNumber":82,"Velocity":51,"Duration":163845,"SoundDuration":163845,"Delta":221333187},{"NoteNumber":62,"Velocity":25,"Duration":365892,"SoundDuration":365892,"Delta":221333187},{"NoteNumber":58,"Velocity":21,"Duration":365892,"SoundDuration":365892,"Delta":221333187},{"NoteNumber":53,"Velocity":21,"Duration":365892,"SoundDuration":365892,"Delta":221333187},{"NoteNumber":79,"Velocity":51,"Duration":181842,"SoundDuration":181842,"Delta":221497032},{"NoteNumber":79,"Velocity":64,"Duration":676005,"SoundDuration":676005,"Delta":221699079},{"NoteNumber":50,"Velocity":35,"Duration":173330,"SoundDuration":173330,"Delta":221699079},{"NoteNumber":58,"Velocity":23,"Duration":658689,"SoundDuration":658689,"Delta":222045740},{"NoteNumber":65,"Velocity":28,"Duration":658689,"SoundDuration":658689,"Delta":222045740},{"NoteNumber":53,"Velocity":23,"Duration":658689,"SoundDuration":658689,"Delta":222045740},{"NoteNumber":77,"Velocity":57,"Duration":329344,"SoundDuration":329344,"Delta":222375084},{"NoteNumber":58,"Velocity":22,"Duration":329344,"SoundDuration":329344,"Delta":222704429},{"NoteNumber":53,"Velocity":22,"Duration":329344,"SoundDuration":329344,"Delta":222704429},{"NoteNumber":65,"Velocity":27,"Duration":329344,"SoundDuration":329344,"Delta":222704429},{"NoteNumber":82,"Velocity":52,"Duration":82336,"SoundDuration":82336,"Delta":222951437},{"NoteNumber":81,"Velocity":59,"Duration":164672,"SoundDuration":164672,"Delta":223033773},{"NoteNumber":48,"Velocity":35,"Duration":164672,"SoundDuration":164672,"Delta":223033773},{"NoteNumber":82,"Velocity":49,"Duration":54890,"SoundDuration":54890,"Delta":223198445},{"NoteNumber":81,"Velocity":49,"Duration":54890,"SoundDuration":54890,"Delta":223253336},{"NoteNumber":79,"Velocity":49,"Duration":54890,"SoundDuration":54890,"Delta":223308227},{"NoteNumber":81,"Velocity":58,"Duration":161429,"SoundDuration":161429,"Delta":223363118},{"NoteNumber":57,"Velocity":20,"Duration":626568,"SoundDuration":626568,"Delta":223363118},{"NoteNumber":53,"Velocity":20,"Duration":626568,"SoundDuration":626568,"Delta":223363118},{"NoteNumber":63,"Velocity":24,"Duration":626568,"SoundDuration":626568,"Delta":223363118},{"NoteNumber":82,"Velocity":51,"Duration":158328,"SoundDuration":158328,"Delta":223524547},{"NoteNumber":83,"Velocity":58,"Duration":153405,"SoundDuration":153405,"Delta":223682875},{"NoteNumber":84,"Velocity":48,"Duration":153405,"SoundDuration":153405,"Delta":223836280},{"NoteNumber":85,"Velocity":52,"Duration":163025,"SoundDuration":163025,"Delta":223989686},{"NoteNumber":57,"Velocity":21,"Duration":354498,"SoundDuration":354498,"Delta":223989686},{"NoteNumber":63,"Velocity":25,"Duration":354498,"SoundDuration":354498,"Delta":223989686},{"NoteNumber":53,"Velocity":21,"Duration":354498,"SoundDuration":354498,"Delta":223989686},{"NoteNumber":86,"Velocity":56,"Duration":191473,"SoundDuration":191473,"Delta":224152712},{"NoteNumber":89,"Velocity":69,"Duration":520917,"SoundDuration":520917,"Delta":224344185},{"NoteNumber":41,"Velocity":35,"Duration":173330,"SoundDuration":173330,"Delta":224344185},{"NoteNumber":60,"Velocity":28,"Duration":679492,"SoundDuration":679492,"Delta":224690845},{"NoteNumber":53,"Velocity":23,"Duration":679492,"SoundDuration":679492,"Delta":224690845},{"NoteNumber":57,"Velocity":23,"Duration":679492,"SoundDuration":679492,"Delta":224690845},{"NoteNumber":88,"Velocity":65,"Duration":174256,"SoundDuration":174256,"Delta":224865102},{"NoteNumber":87,"Velocity":67,"Duration":330979,"SoundDuration":330979,"Delta":225039358},{"NoteNumber":57,"Velocity":22,"Duration":330979,"SoundDuration":330979,"Delta":225370338},{"NoteNumber":60,"Velocity":27,"Duration":330979,"SoundDuration":330979,"Delta":225370338},{"NoteNumber":53,"Velocity":22,"Duration":330979,"SoundDuration":330979,"Delta":225370338},{"NoteNumber":86,"Velocity":67,"Duration":329344,"SoundDuration":329344,"Delta":225701317},{"NoteNumber":46,"Velocity":35,"Duration":164672,"SoundDuration":164672,"Delta":225701317},{"NoteNumber":88,"Velocity":60,"Duration":161429,"SoundDuration":161429,"Delta":226030662},{"NoteNumber":58,"Velocity":20,"Duration":636502,"SoundDuration":636502,"Delta":226030662},{"NoteNumber":53,"Velocity":20,"Duration":636502,"SoundDuration":636502,"Delta":226030662},{"NoteNumber":62,"Velocity":24,"Duration":636502,"SoundDuration":636502,"Delta":226030662},{"NoteNumber":89,"Velocity":60,"Duration":161429,"SoundDuration":161429,"Delta":226192091},{"NoteNumber":93,"Velocity":67,"Duration":156821,"SoundDuration":156821,"Delta":226353520},{"NoteNumber":94,"Velocity":62,"Duration":156821,"SoundDuration":156821,"Delta":226510342},{"NoteNumber":89,"Velocity":64,"Duration":156821,"SoundDuration":156821,"Delta":226667164},{"NoteNumber":58,"Velocity":21,"Duration":348294,"SoundDuration":348294,"Delta":226667164},{"NoteNumber":53,"Velocity":21,"Duration":348294,"SoundDuration":348294,"Delta":226667164},{"NoteNumber":62,"Velocity":25,"Duration":348294,"SoundDuration":348294,"Delta":226667164},{"NoteNumber":86,"Velocity":66,"Duration":191473,"SoundDuration":191473,"Delta":226823985},{"NoteNumber":85,"Velocity":74,"Duration":346660,"SoundDuration":346660,"Delta":227015458},{"NoteNumber":40,"Velocity":35,"Duration":173330,"SoundDuration":173330,"Delta":227015458},{"NoteNumber":91,"Velocity":59,"Duration":166334,"SoundDuration":166334,"Delta":227362119},{"NoteNumber":52,"Velocity":23,"Duration":655526,"SoundDuration":655526,"Delta":227362119},{"NoteNumber":58,"Velocity":23,"Duration":655526,"SoundDuration":655526,"Delta":227362119},{"NoteNumber":55,"Velocity":23,"Duration":655526,"SoundDuration":655526,"Delta":227362119},{"NoteNumber":61,"Velocity":28,"Duration":655526,"SoundDuration":655526,"Delta":227362119},{"NoteNumber":94,"Velocity":59,"Duration":166334,"SoundDuration":166334,"Delta":227528453},{"NoteNumber":96,"Velocity":73,"Duration":161429,"SoundDuration":161429,"Delta":227694787},{"NoteNumber":97,"Velocity":59,"Duration":161429,"SoundDuration":161429,"Delta":227856216},{"NoteNumber":94,"Velocity":59,"Duration":161429,"SoundDuration":161429,"Delta":228017645},{"NoteNumber":61,"Velocity":27,"Duration":322858,"SoundDuration":322858,"Delta":228017645},{"NoteNumber":58,"Velocity":22,"Duration":322858,"SoundDuration":322858,"Delta":228017645},{"NoteNumber":52,"Velocity":22,"Duration":322858,"SoundDuration":322858,"Delta":228017645},{"NoteNumber":55,"Velocity":22,"Duration":322858,"SoundDuration":322858,"Delta":228017645},{"NoteNumber":85,"Velocity":59,"Duration":161429,"SoundDuration":161429,"Delta":228179075},{"NoteNumber":84,"Velocity":50,"Duration":174256,"SoundDuration":174256,"Delta":228340504},{"NoteNumber":53,"Velocity":42,"Duration":1303197,"SoundDuration":1303197,"Delta":228340504},{"NoteNumber":60,"Velocity":42,"Duration":973574,"SoundDuration":973574,"Delta":228340504},{"NoteNumber":58,"Velocity":39,"Duration":334120,"SoundDuration":334120,"Delta":228340504},{"NoteNumber":86,"Velocity":54,"Duration":159863,"SoundDuration":159863,"Delta":228514760},{"NoteNumber":87,"Velocity":58,"Duration":159863,"SoundDuration":159863,"Delta":228674624},{"NoteNumber":57,"Velocity":39,"Duration":159863,"SoundDuration":159863,"Delta":228674624},{"NoteNumber":88,"Velocity":61,"Duration":159863,"SoundDuration":159863,"Delta":228834487},{"NoteNumber":55,"Velocity":42,"Duration":159863,"SoundDuration":159863,"Delta":228834487},{"NoteNumber":89,"Velocity":59,"Duration":159863,"SoundDuration":159863,"Delta":228994351},{"NoteNumber":57,"Velocity":48,"Duration":319727,"SoundDuration":319727,"Delta":228994351},{"NoteNumber":91,"Velocity":51,"Duration":159863,"SoundDuration":159863,"Delta":229154214},{"NoteNumber":87,"Velocity":51,"Duration":159863,"SoundDuration":159863,"Delta":229314078},{"NoteNumber":60,"Velocity":33,"Duration":329623,"SoundDuration":329623,"Delta":229314078},{"NoteNumber":63,"Velocity":39,"Duration":329623,"SoundDuration":329623,"Delta":229314078},{"NoteNumber":84,"Velocity":48,"Duration":169759,"SoundDuration":169759,"Delta":229473941},{"NoteNumber":82,"Velocity":59,"Duration":161429,"SoundDuration":161429,"Delta":229643701},{"NoteNumber":62,"Velocity":44,"Duration":1329567,"SoundDuration":1329567,"Delta":229643701},{"NoteNumber":58,"Velocity":44,"Duration":1329567,"SoundDuration":1329567,"Delta":229643701},{"NoteNumber":77,"Velocity":49,"Duration":161429,"SoundDuration":161429,"Delta":229805131},{"NoteNumber":74,"Velocity":50,"Duration":161429,"SoundDuration":161429,"Delta":229966560},{"NoteNumber":70,"Velocity":46,"Duration":161338,"SoundDuration":161338,"Delta":230127989},{"NoteNumber":69,"Velocity":52,"Duration":162163,"SoundDuration":162163,"Delta":230289328},{"NoteNumber":70,"Velocity":49,"Duration":165756,"SoundDuration":165756,"Delta":230451491},{"NoteNumber":72,"Velocity":47,"Duration":173161,"SoundDuration":173161,"Delta":230617247},{"NoteNumber":73,"Velocity":44,"Duration":182861,"SoundDuration":182861,"Delta":230790408},{"NoteNumber":74,"Velocity":63,"Duration":175172,"SoundDuration":175172,"Delta":230973269},{"NoteNumber":50,"Velocity":63,"Duration":350344,"SoundDuration":350344,"Delta":230973269},{"NoteNumber":66,"Velocity":57,"Duration":644345,"SoundDuration":644345,"Delta":231323614},{"NoteNumber":69,"Velocity":57,"Duration":644345,"SoundDuration":644345,"Delta":231323614},{"NoteNumber":74,"Velocity":69,"Duration":644345,"SoundDuration":644345,"Delta":231323614},{"NoteNumber":72,"Velocity":57,"Duration":644345,"SoundDuration":644345,"Delta":231323614},{"NoteNumber":54,"Velocity":52,"Duration":163845,"SoundDuration":163845,"Delta":231323614},{"NoteNumber":57,"Velocity":56,"Duration":163844,"SoundDuration":163844,"Delta":231487459},{"NoteNumber":61,"Velocity":62,"Duration":158328,"SoundDuration":158328,"Delta":231651304},{"NoteNumber":62,"Velocity":52,"Duration":158327,"SoundDuration":158327,"Delta":231809632},{"NoteNumber":66,"Velocity":48,"Duration":331658,"SoundDuration":331658,"Delta":231967960},{"NoteNumber":74,"Velocity":57,"Duration":331658,"SoundDuration":331658,"Delta":231967960},{"NoteNumber":69,"Velocity":48,"Duration":331658,"SoundDuration":331658,"Delta":231967960},{"NoteNumber":72,"Velocity":48,"Duration":331658,"SoundDuration":331658,"Delta":231967960},{"NoteNumber":50,"Velocity":61,"Duration":158328,"SoundDuration":158328,"Delta":231967960},{"NoteNumber":62,"Velocity":53,"Duration":173330,"SoundDuration":173330,"Delta":232126288},{"NoteNumber":46,"Velocity":63,"Duration":170628,"SoundDuration":170628,"Delta":232299618},{"NoteNumber":58,"Velocity":54,"Duration":170629,"SoundDuration":170629,"Delta":232470247},{"NoteNumber":74,"Velocity":63,"Duration":649071,"SoundDuration":649071,"Delta":232640876},{"NoteNumber":67,"Velocity":63,"Duration":649071,"SoundDuration":649071,"Delta":232640876},{"NoteNumber":79,"Velocity":75,"Duration":649071,"SoundDuration":649071,"Delta":232640876},{"NoteNumber":70,"Velocity":63,"Duration":649071,"SoundDuration":649071,"Delta":232640876},{"NoteNumber":45,"Velocity":62,"Duration":164672,"SoundDuration":164672,"Delta":232640876},{"NoteNumber":57,"Velocity":57,"Duration":164672,"SoundDuration":164672,"Delta":232805548},{"NoteNumber":43,"Velocity":65,"Duration":159863,"SoundDuration":159863,"Delta":232970221},{"NoteNumber":55,"Velocity":60,"Duration":159863,"SoundDuration":159863,"Delta":233130084},{"NoteNumber":74,"Velocity":48,"Duration":341813,"SoundDuration":341813,"Delta":233289948},{"NoteNumber":70,"Velocity":48,"Duration":341813,"SoundDuration":341813,"Delta":233289948},{"NoteNumber":67,"Velocity":48,"Duration":341813,"SoundDuration":341813,"Delta":233289948},{"NoteNumber":79,"Velocity":57,"Duration":341813,"SoundDuration":341813,"Delta":233289948},{"NoteNumber":42,"Velocity":68,"Duration":159863,"SoundDuration":159863,"Delta":233289948},{"NoteNumber":54,"Velocity":64,"Duration":181950,"SoundDuration":181950,"Delta":233449811},{"NoteNumber":43,"Velocity":77,"Duration":163845,"SoundDuration":163845,"Delta":233631762},{"NoteNumber":55,"Velocity":65,"Duration":163844,"SoundDuration":163844,"Delta":233795607},{"NoteNumber":66,"Velocity":57,"Duration":319727,"SoundDuration":319727,"Delta":233959452},{"NoteNumber":74,"Velocity":68,"Duration":649071,"SoundDuration":649071,"Delta":233959452},{"NoteNumber":45,"Velocity":73,"Duration":159863,"SoundDuration":159863,"Delta":233959452},{"NoteNumber":57,"Velocity":62,"Duration":159863,"SoundDuration":159863,"Delta":234119315},{"NoteNumber":67,"Velocity":70,"Duration":329344,"SoundDuration":329344,"Delta":234279179},{"NoteNumber":46,"Velocity":70,"Duration":164672,"SoundDuration":164672,"Delta":234279179},{"NoteNumber":58,"Velocity":62,"Duration":164672,"SoundDuration":164672,"Delta":234443851},{"NoteNumber":77,"Velocity":67,"Duration":347643,"SoundDuration":347643,"Delta":234608523},{"NoteNumber":65,"Velocity":56,"Duration":347643,"SoundDuration":347643,"Delta":234608523},{"NoteNumber":74,"Velocity":56,"Duration":347643,"SoundDuration":347643,"Delta":234608523},{"NoteNumber":67,"Velocity":56,"Duration":347643,"SoundDuration":347643,"Delta":234608523},{"NoteNumber":47,"Velocity":67,"Duration":164672,"SoundDuration":164672,"Delta":234608523},{"NoteNumber":59,"Velocity":61,"Duration":182971,"SoundDuration":182971,"Delta":234773195},{"NoteNumber":72,"Velocity":67,"Duration":979345,"SoundDuration":979345,"Delta":234956167},{"NoteNumber":67,"Velocity":68,"Duration":1311487,"SoundDuration":1311487,"Delta":234956167},{"NoteNumber":64,"Velocity":68,"Duration":1311487,"SoundDuration":1311487,"Delta":234956167},{"NoteNumber":76,"Velocity":80,"Duration":1311487,"SoundDuration":1311487,"Delta":234956167},{"NoteNumber":48,"Velocity":68,"Duration":326051,"SoundDuration":326051,"Delta":234956167},{"NoteNumber":52,"Velocity":51,"Duration":163025,"SoundDuration":163025,"Delta":235282218},{"NoteNumber":55,"Velocity":57,"Duration":163025,"SoundDuration":163025,"Delta":235445244},{"NoteNumber":59,"Velocity":57,"Duration":163059,"SoundDuration":163059,"Delta":235608270},{"NoteNumber":60,"Velocity":53,"Duration":164182,"SoundDuration":164182,"Delta":235771330},{"NoteNumber":70,"Velocity":57,"Duration":332141,"SoundDuration":332141,"Delta":235935513},{"NoteNumber":48,"Velocity":57,"Duration":165404,"SoundDuration":165404,"Delta":235935513},{"NoteNumber":60,"Velocity":51,"Duration":166737,"SoundDuration":166737,"Delta":236100917},{"NoteNumber":41,"Velocity":62,"Duration":334336,"SoundDuration":334336,"Delta":236267654},{"NoteNumber":72,"Velocity":63,"Duration":636402,"SoundDuration":636402,"Delta":236601991},{"NoteNumber":69,"Velocity":63,"Duration":636402,"SoundDuration":636402,"Delta":236601991},{"NoteNumber":77,"Velocity":63,"Duration":636402,"SoundDuration":636402,"Delta":236601991},{"NoteNumber":81,"Velocity":75,"Duration":636402,"SoundDuration":636402,"Delta":236601991},{"NoteNumber":45,"Velocity":51,"Duration":159100,"SoundDuration":159100,"Delta":236601991},{"NoteNumber":48,"Velocity":51,"Duration":159100,"SoundDuration":159100,"Delta":236761091},{"NoteNumber":52,"Velocity":64,"Duration":159100,"SoundDuration":159100,"Delta":236920192},{"NoteNumber":53,"Velocity":57,"Duration":159100,"SoundDuration":159100,"Delta":237079292},{"NoteNumber":72,"Velocity":48,"Duration":336154,"SoundDuration":336154,"Delta":237238393},{"NoteNumber":69,"Velocity":48,"Duration":336154,"SoundDuration":336154,"Delta":237238393},{"NoteNumber":77,"Velocity":48,"Duration":336154,"SoundDuration":336154,"Delta":237238393},{"NoteNumber":81,"Velocity":57,"Duration":336154,"SoundDuration":336154,"Delta":237238393},{"NoteNumber":57,"Velocity":61,"Duration":159100,"SoundDuration":159100,"Delta":237238393},{"NoteNumber":60,"Velocity":64,"Duration":177053,"SoundDuration":177053,"Delta":237397493},{"NoteNumber":74,"Velocity":69,"Duration":321302,"SoundDuration":321302,"Delta":237574547},{"NoteNumber":46,"Velocity":63,"Duration":321302,"SoundDuration":321302,"Delta":237574547},{"NoteNumber":79,"Velocity":57,"Duration":160651,"SoundDuration":160651,"Delta":237895850},{"NoteNumber":62,"Velocity":52,"Duration":642605,"SoundDuration":642605,"Delta":237895850},{"NoteNumber":65,"Velocity":62,"Duration":642605,"SoundDuration":642605,"Delta":237895850},{"NoteNumber":55,"Velocity":52,"Duration":642605,"SoundDuration":642605,"Delta":237895850},{"NoteNumber":82,"Velocity":57,"Duration":160651,"SoundDuration":160651,"Delta":238056501},{"NoteNumber":85,"Velocity":65,"Duration":160651,"SoundDuration":160651,"Delta":238217152},{"NoteNumber":86,"Velocity":57,"Duration":160651,"SoundDuration":160651,"Delta":238377803},{"NoteNumber":91,"Velocity":65,"Duration":160651,"SoundDuration":160651,"Delta":238538455},{"NoteNumber":65,"Velocity":61,"Duration":332177,"SoundDuration":332177,"Delta":238538455},{"NoteNumber":55,"Velocity":51,"Duration":332177,"SoundDuration":332177,"Delta":238538455},{"NoteNumber":62,"Velocity":51,"Duration":332177,"SoundDuration":332177,"Delta":238538455},{"NoteNumber":94,"Velocity":68,"Duration":171526,"SoundDuration":171526,"Delta":238699106},{"NoteNumber":88,"Velocity":76,"Duration":155343,"SoundDuration":155343,"Delta":238870632},{"NoteNumber":48,"Velocity":63,"Duration":310687,"SoundDuration":310687,"Delta":238870632},{"NoteNumber":96,"Velocity":70,"Duration":155343,"SoundDuration":155343,"Delta":239025976},{"NoteNumber":94,"Velocity":71,"Duration":157579,"SoundDuration":157579,"Delta":239181320},{"NoteNumber":60,"Velocity":51,"Duration":630317,"SoundDuration":630317,"Delta":239181320},{"NoteNumber":55,"Velocity":51,"Duration":630317,"SoundDuration":630317,"Delta":239181320},{"NoteNumber":64,"Velocity":60,"Duration":630317,"SoundDuration":630317,"Delta":239181320},{"NoteNumber":58,"Velocity":51,"Duration":630317,"SoundDuration":630317,"Delta":239181320},{"NoteNumber":91,"Velocity":66,"Duration":157579,"SoundDuration":157579,"Delta":239338899},{"NoteNumber":88,"Velocity":74,"Duration":157579,"SoundDuration":157579,"Delta":239496479},{"NoteNumber":84,"Velocity":72,"Duration":157579,"SoundDuration":157579,"Delta":239654058},{"NoteNumber":82,"Velocity":69,"Duration":157579,"SoundDuration":157579,"Delta":239811638},{"NoteNumber":60,"Velocity":51,"Duration":315159,"SoundDuration":315159,"Delta":239811638},{"NoteNumber":64,"Velocity":60,"Duration":315159,"SoundDuration":315159,"Delta":239811638},{"NoteNumber":79,"Velocity":67,"Duration":157579,"SoundDuration":157579,"Delta":239969217},{"NoteNumber":77,"Velocity":60,"Duration":323107,"SoundDuration":323107,"Delta":240126797},{"NoteNumber":53,"Velocity":54,"Duration":160875,"SoundDuration":160875,"Delta":240126797},{"NoteNumber":63,"Velocity":61,"Duration":162232,"SoundDuration":162232,"Delta":240287672},{"NoteNumber":75,"Velocity":53,"Duration":981678,"SoundDuration":981678,"Delta":240449904},{"NoteNumber":77,"Velocity":53,"Duration":981678,"SoundDuration":981678,"Delta":240449904},{"NoteNumber":72,"Velocity":53,"Duration":981678,"SoundDuration":981678,"Delta":240449904},{"NoteNumber":69,"Velocity":53,"Duration":981678,"SoundDuration":981678,"Delta":240449904},{"NoteNumber":60,"Velocity":61,"Duration":162986,"SoundDuration":162986,"Delta":240449904},{"NoteNumber":57,"Velocity":60,"Duration":163312,"SoundDuration":163312,"Delta":240612890},{"NoteNumber":53,"Velocity":58,"Duration":163845,"SoundDuration":163845,"Delta":240776203},{"NoteNumber":51,"Velocity":57,"Duration":163844,"SoundDuration":163844,"Delta":240940048},{"NoteNumber":48,"Velocity":55,"Duration":163845,"SoundDuration":163845,"Delta":241103893},{"NoteNumber":53,"Velocity":54,"Duration":163844,"SoundDuration":163844,"Delta":241267738},{"NoteNumber":86,"Velocity":70,"Duration":329344,"SoundDuration":329344,"Delta":241431583},{"NoteNumber":46,"Velocity":35,"Duration":329344,"SoundDuration":329344,"Delta":241431583},{"NoteNumber":85,"Velocity":57,"Duration":156087,"SoundDuration":156087,"Delta":241760927},{"NoteNumber":62,"Velocity":24,"Duration":618516,"SoundDuration":618516,"Delta":241760927},{"NoteNumber":53,"Velocity":20,"Duration":618516,"SoundDuration":618516,"Delta":241760927},{"NoteNumber":58,"Velocity":20,"Duration":618516,"SoundDuration":618516,"Delta":241760927},{"NoteNumber":86,"Velocity":51,"Duration":156087,"SoundDuration":156087,"Delta":241917015},{"NoteNumber":85,"Velocity":60,"Duration":153170,"SoundDuration":153170,"Delta":242073102},{"NoteNumber":86,"Velocity":51,"Duration":153170,"SoundDuration":153170,"Delta":242226273},{"NoteNumber":89,"Velocity":51,"Duration":163845,"SoundDuration":163845,"Delta":242379444},{"NoteNumber":62,"Velocity":25,"Duration":365892,"SoundDuration":365892,"Delta":242379444},{"NoteNumber":58,"Velocity":21,"Duration":365892,"SoundDuration":365892,"Delta":242379444},{"NoteNumber":53,"Velocity":21,"Duration":365892,"SoundDuration":365892,"Delta":242379444},{"NoteNumber":86,"Velocity":51,"Duration":202047,"SoundDuration":202047,"Delta":242543289},{"NoteNumber":84,"Velocity":64,"Duration":676005,"SoundDuration":676005,"Delta":242745336},{"NoteNumber":50,"Velocity":35,"Duration":346660,"SoundDuration":346660,"Delta":242745336},{"NoteNumber":65,"Velocity":28,"Duration":658689,"SoundDuration":658689,"Delta":243091997},{"NoteNumber":58,"Velocity":23,"Duration":658689,"SoundDuration":658689,"Delta":243091997},{"NoteNumber":56,"Velocity":23,"Duration":658689,"SoundDuration":658689,"Delta":243091997},{"NoteNumber":82,"Velocity":57,"Duration":329344,"SoundDuration":329344,"Delta":243421341},{"NoteNumber":58,"Velocity":22,"Duration":329344,"SoundDuration":329344,"Delta":243750686},{"NoteNumber":56,"Velocity":22,"Duration":329344,"SoundDuration":329344,"Delta":243750686},{"NoteNumber":65,"Velocity":27,"Duration":329344,"SoundDuration":329344,"Delta":243750686},{"NoteNumber":82,"Velocity":52,"Duration":82336,"SoundDuration":82336,"Delta":243997694},{"NoteNumber":81,"Velocity":59,"Duration":164672,"SoundDuration":164672,"Delta":244080030},{"NoteNumber":51,"Velocity":35,"Duration":329344,"SoundDuration":329344,"Delta":244080030},{"NoteNumber":82,"Velocity":49,"Duration":164672,"SoundDuration":164672,"Delta":244244703},{"NoteNumber":84,"Velocity":58,"Duration":161429,"SoundDuration":161429,"Delta":244409375},{"NoteNumber":58,"Velocity":20,"Duration":626098,"SoundDuration":626098,"Delta":244409375},{"NoteNumber":55,"Velocity":20,"Duration":626098,"SoundDuration":626098,"Delta":244409375},{"NoteNumber":63,"Velocity":24,"Duration":626098,"SoundDuration":626098,"Delta":244409375},{"NoteNumber":86,"Velocity":51,"Duration":158328,"SoundDuration":158328,"Delta":244570804},{"NoteNumber":87,"Velocity":58,"Duration":153170,"SoundDuration":153170,"Delta":244729132},{"NoteNumber":88,"Velocity":48,"Duration":153170,"SoundDuration":153170,"Delta":244882303},{"NoteNumber":89,"Velocity":52,"Duration":163025,"SoundDuration":163025,"Delta":245035474},{"NoteNumber":63,"Velocity":25,"Duration":354498,"SoundDuration":354498,"Delta":245035474},{"NoteNumber":58,"Velocity":21,"Duration":354498,"SoundDuration":354498,"Delta":245035474},{"NoteNumber":55,"Velocity":21,"Duration":354498,"SoundDuration":354498,"Delta":245035474},{"NoteNumber":90,"Velocity":56,"Duration":191473,"SoundDuration":191473,"Delta":245198499},{"NoteNumber":91,"Velocity":69,"Duration":86665,"SoundDuration":86665,"Delta":245389972},{"NoteNumber":52,"Velocity":35,"Duration":346660,"SoundDuration":346660,"Delta":245389972},{"NoteNumber":93,"Velocity":58,"Duration":86665,"SoundDuration":86665,"Delta":245476637},{"NoteNumber":91,"Velocity":63,"Duration":86665,"SoundDuration":86665,"Delta":245563303},{"NoteNumber":93,"Velocity":58,"Duration":86665,"SoundDuration":86665,"Delta":245649968},{"NoteNumber":91,"Velocity":63,"Duration":87128,"SoundDuration":87128,"Delta":245736633},{"NoteNumber":58,"Velocity":23,"Duration":679492,"SoundDuration":679492,"Delta":245736633},{"NoteNumber":61,"Velocity":23,"Duration":679492,"SoundDuration":679492,"Delta":245736633},{"NoteNumber":67,"Velocity":28,"Duration":679492,"SoundDuration":679492,"Delta":245736633},{"NoteNumber":90,"Velocity":62,"Duration":87128,"SoundDuration":87128,"Delta":245823761},{"NoteNumber":91,"Velocity":66,"Duration":87128,"SoundDuration":87128,"Delta":245910889},{"NoteNumber":93,"Velocity":70,"Duration":87128,"SoundDuration":87128,"Delta":245998018},{"NoteNumber":94,"Velocity":74,"Duration":165489,"SoundDuration":165489,"Delta":246085146},{"NoteNumber":67,"Velocity":27,"Duration":330979,"SoundDuration":330979,"Delta":246416125},{"NoteNumber":58,"Velocity":22,"Duration":330979,"SoundDuration":330979,"Delta":246416125},{"NoteNumber":61,"Velocity":22,"Duration":330979,"SoundDuration":330979,"Delta":246416125},{"NoteNumber":72,"Velocity":41,"Duration":41372,"SoundDuration":41372,"Delta":246664360},{"NoteNumber":74,"Velocity":41,"Duration":41372,"SoundDuration":41372,"Delta":246705732},{"NoteNumber":72,"Velocity":51,"Duration":329344,"SoundDuration":329344,"Delta":246747105},{"NoteNumber":55,"Velocity":31,"Duration":329344,"SoundDuration":329344,"Delta":246747105},{"NoteNumber":71,"Velocity":40,"Duration":161429,"SoundDuration":161429,"Delta":247076449},{"NoteNumber":64,"Velocity":21,"Duration":636502,"SoundDuration":636502,"Delta":247076449},{"NoteNumber":58,"Velocity":18,"Duration":636502,"SoundDuration":636502,"Delta":247076449},{"NoteNumber":60,"Velocity":18,"Duration":636502,"SoundDuration":636502,"Delta":247076449},{"NoteNumber":72,"Velocity":43,"Duration":161429,"SoundDuration":161429,"Delta":247237879},{"NoteNumber":76,"Velocity":54,"Duration":156821,"SoundDuration":156821,"Delta":247399308},{"NoteNumber":82,"Velocity":42,"Duration":156821,"SoundDuration":156821,"Delta":247556130},{"NoteNumber":79,"Velocity":42,"Duration":156821,"SoundDuration":156821,"Delta":247712951},{"NoteNumber":58,"Velocity":18,"Duration":348294,"SoundDuration":348294,"Delta":247712951},{"NoteNumber":64,"Velocity":22,"Duration":348294,"SoundDuration":348294,"Delta":247712951},{"NoteNumber":60,"Velocity":18,"Duration":348294,"SoundDuration":348294,"Delta":247712951},{"NoteNumber":76,"Velocity":42,"Duration":95736,"SoundDuration":95736,"Delta":247869773},{"NoteNumber":77,"Velocity":33,"Duration":47868,"SoundDuration":47868,"Delta":247965510},{"NoteNumber":79,"Velocity":34,"Duration":47868,"SoundDuration":47868,"Delta":248013378},{"NoteNumber":77,"Velocity":52,"Duration":346660,"SoundDuration":346660,"Delta":248061246},{"NoteNumber":53,"Velocity":31,"Duration":346660,"SoundDuration":346660,"Delta":248061246},{"NoteNumber":76,"Velocity":42,"Duration":166334,"SoundDuration":166334,"Delta":248407907},{"NoteNumber":62,"Velocity":20,"Duration":655526,"SoundDuration":655526,"Delta":248407907},{"NoteNumber":65,"Velocity":25,"Duration":655526,"SoundDuration":655526,"Delta":248407907},{"NoteNumber":58,"Velocity":20,"Duration":655526,"SoundDuration":655526,"Delta":248407907},{"NoteNumber":77,"Velocity":42,"Duration":166334,"SoundDuration":166334,"Delta":248574241},{"NoteNumber":82,"Velocity":58,"Duration":161429,"SoundDuration":161429,"Delta":248740575},{"NoteNumber":89,"Velocity":43,"Duration":161429,"SoundDuration":161429,"Delta":248902004},{"NoteNumber":86,"Velocity":43,"Duration":161429,"SoundDuration":161429,"Delta":249063433},{"NoteNumber":65,"Velocity":24,"Duration":322858,"SoundDuration":322858,"Delta":249063433},{"NoteNumber":62,"Velocity":19,"Duration":322858,"SoundDuration":322858,"Delta":249063433},{"NoteNumber":58,"Velocity":19,"Duration":322858,"SoundDuration":322858,"Delta":249063433},{"NoteNumber":82,"Velocity":37,"Duration":161429,"SoundDuration":161429,"Delta":249224862},{"NoteNumber":81,"Velocity":38,"Duration":130692,"SoundDuration":130692,"Delta":249386292},{"NoteNumber":53,"Velocity":31,"Duration":334120,"SoundDuration":334120,"Delta":249386292},{"NoteNumber":82,"Velocity":32,"Duration":119897,"SoundDuration":119897,"Delta":249560548},{"NoteNumber":84,"Velocity":35,"Duration":119897,"SoundDuration":119897,"Delta":249720412},{"NoteNumber":63,"Velocity":18,"Duration":639454,"SoundDuration":639454,"Delta":249720412},{"NoteNumber":60,"Velocity":18,"Duration":639454,"SoundDuration":639454,"Delta":249720412},{"NoteNumber":65,"Velocity":21,"Duration":639454,"SoundDuration":639454,"Delta":249720412},{"NoteNumber":86,"Velocity":38,"Duration":119897,"SoundDuration":119897,"Delta":249880275},{"NoteNumber":87,"Velocity":41,"Duration":119897,"SoundDuration":119897,"Delta":250040139},{"NoteNumber":89,"Velocity":44,"Duration":119897,"SoundDuration":119897,"Delta":250200002},{"NoteNumber":91,"Velocity":48,"Duration":119897,"SoundDuration":119897,"Delta":250359866},{"NoteNumber":63,"Velocity":18,"Duration":329623,"SoundDuration":329623,"Delta":250359866},{"NoteNumber":65,"Velocity":22,"Duration":329623,"SoundDuration":329623,"Delta":250359866},{"NoteNumber":60,"Velocity":18,"Duration":329623,"SoundDuration":329623,"Delta":250359866},{"NoteNumber":93,"Velocity":51,"Duration":84879,"SoundDuration":84879,"Delta":250519729},{"NoteNumber":96,"Velocity":51,"Duration":84879,"SoundDuration":84879,"Delta":250604609},{"NoteNumber":94,"Velocity":54,"Duration":121071,"SoundDuration":121071,"Delta":250689489},{"NoteNumber":46,"Velocity":31,"Duration":322858,"SoundDuration":322858,"Delta":250689489},{"NoteNumber":89,"Velocity":50,"Duration":121071,"SoundDuration":121071,"Delta":250850918},{"NoteNumber":86,"Velocity":48,"Duration":121071,"SoundDuration":121071,"Delta":251012348},{"NoteNumber":62,"Velocity":20,"Duration":1006709,"SoundDuration":1006709,"Delta":251012348},{"NoteNumber":58,"Velocity":20,"Duration":1006709,"SoundDuration":1006709,"Delta":251012348},{"NoteNumber":65,"Velocity":25,"Duration":1006709,"SoundDuration":1006709,"Delta":251012348},{"NoteNumber":82,"Velocity":45,"Duration":121071,"SoundDuration":121071,"Delta":251173777},{"NoteNumber":77,"Velocity":42,"Duration":121277,"SoundDuration":121277,"Delta":251335115},{"NoteNumber":74,"Velocity":40,"Duration":123805,"SoundDuration":123805,"Delta":251497279},{"NoteNumber":70,"Velocity":37,"Duration":129004,"SoundDuration":129004,"Delta":251663035},{"NoteNumber":72,"Velocity":34,"Duration":136099,"SoundDuration":136099,"Delta":251836196},{"NoteNumber":74,"Velocity":63,"Duration":175172,"SoundDuration":175172,"Delta":252019057},{"NoteNumber":50,"Velocity":63,"Duration":350344,"SoundDuration":350344,"Delta":252019057},{"NoteNumber":69,"Velocity":57,"Duration":644345,"SoundDuration":644345,"Delta":252369402},{"NoteNumber":74,"Velocity":69,"Duration":644345,"SoundDuration":644345,"Delta":252369402},{"NoteNumber":72,"Velocity":57,"Duration":644345,"SoundDuration":644345,"Delta":252369402},{"NoteNumber":66,"Velocity":57,"Duration":644345,"SoundDuration":644345,"Delta":252369402},{"NoteNumber":54,"Velocity":52,"Duration":163845,"SoundDuration":163845,"Delta":252369402},{"NoteNumber":57,"Velocity":56,"Duration":163844,"SoundDuration":163844,"Delta":252533247},{"NoteNumber":61,"Velocity":62,"Duration":158328,"SoundDuration":158328,"Delta":252697092},{"NoteNumber":62,"Velocity":52,"Duration":158327,"SoundDuration":158327,"Delta":252855420},{"NoteNumber":69,"Velocity":48,"Duration":331658,"SoundDuration":331658,"Delta":253013748},{"NoteNumber":74,"Velocity":57,"Duration":331658,"SoundDuration":331658,"Delta":253013748},{"NoteNumber":72,"Velocity":48,"Duration":331658,"SoundDuration":331658,"Delta":253013748},{"NoteNumber":66,"Velocity":48,"Duration":331658,"SoundDuration":331658,"Delta":253013748},{"NoteNumber":50,"Velocity":61,"Duration":158328,"SoundDuration":158328,"Delta":253013748},{"NoteNumber":62,"Velocity":53,"Duration":173330,"SoundDuration":173330,"Delta":253172076},{"NoteNumber":46,"Velocity":63,"Duration":170628,"SoundDuration":170628,"Delta":253345406},{"NoteNumber":58,"Velocity":54,"Duration":170629,"SoundDuration":170629,"Delta":253516035},{"NoteNumber":70,"Velocity":63,"Duration":649071,"SoundDuration":649071,"Delta":253686664},{"NoteNumber":67,"Velocity":63,"Duration":649071,"SoundDuration":649071,"Delta":253686664},{"NoteNumber":74,"Velocity":63,"Duration":649071,"SoundDuration":649071,"Delta":253686664},{"NoteNumber":79,"Velocity":75,"Duration":649071,"SoundDuration":649071,"Delta":253686664},{"NoteNumber":45,"Velocity":62,"Duration":164672,"SoundDuration":164672,"Delta":253686664},{"NoteNumber":57,"Velocity":57,"Duration":164672,"SoundDuration":164672,"Delta":253851336},{"NoteNumber":43,"Velocity":65,"Duration":159863,"SoundDuration":159863,"Delta":254016008},{"NoteNumber":55,"Velocity":60,"Duration":159863,"SoundDuration":159863,"Delta":254175872},{"NoteNumber":67,"Velocity":48,"Duration":341813,"SoundDuration":341813,"Delta":254335735},{"NoteNumber":79,"Velocity":57,"Duration":341813,"SoundDuration":341813,"Delta":254335735},{"NoteNumber":74,"Velocity":48,"Duration":341813,"SoundDuration":341813,"Delta":254335735},{"NoteNumber":70,"Velocity":48,"Duration":341813,"SoundDuration":341813,"Delta":254335735},{"NoteNumber":42,"Velocity":68,"Duration":159863,"SoundDuration":159863,"Delta":254335735},{"NoteNumber":54,"Velocity":64,"Duration":181950,"SoundDuration":181950,"Delta":254495599},{"NoteNumber":43,"Velocity":77,"Duration":163845,"SoundDuration":163845,"Delta":254677549},{"NoteNumber":55,"Velocity":65,"Duration":163844,"SoundDuration":163844,"Delta":254841394},{"NoteNumber":66,"Velocity":57,"Duration":319727,"SoundDuration":319727,"Delta":255005239},{"NoteNumber":74,"Velocity":68,"Duration":649071,"SoundDuration":649071,"Delta":255005239},{"NoteNumber":45,"Velocity":73,"Duration":159863,"SoundDuration":159863,"Delta":255005239},{"NoteNumber":57,"Velocity":62,"Duration":159863,"SoundDuration":159863,"Delta":255165103},{"NoteNumber":67,"Velocity":70,"Duration":329344,"SoundDuration":329344,"Delta":255324966},{"NoteNumber":46,"Velocity":70,"Duration":164672,"SoundDuration":164672,"Delta":255324966},{"NoteNumber":58,"Velocity":62,"Duration":164672,"SoundDuration":164672,"Delta":255489639},{"NoteNumber":74,"Velocity":56,"Duration":347643,"SoundDuration":347643,"Delta":255654311},{"NoteNumber":67,"Velocity":56,"Duration":347643,"SoundDuration":347643,"Delta":255654311},{"NoteNumber":65,"Velocity":56,"Duration":347643,"SoundDuration":347643,"Delta":255654311},{"NoteNumber":77,"Velocity":67,"Duration":347643,"SoundDuration":347643,"Delta":255654311},{"NoteNumber":47,"Velocity":67,"Duration":164672,"SoundDuration":164672,"Delta":255654311},{"NoteNumber":59,"Velocity":61,"Duration":182971,"SoundDuration":182971,"Delta":255818983},{"NoteNumber":67,"Velocity":68,"Duration":1311487,"SoundDuration":1311487,"Delta":256001955},{"NoteNumber":76,"Velocity":80,"Duration":1311487,"SoundDuration":1311487,"Delta":256001955},{"NoteNumber":72,"Velocity":67,"Duration":979345,"SoundDuration":979345,"Delta":256001955},{"NoteNumber":64,"Velocity":68,"Duration":1311487,"SoundDuration":1311487,"Delta":256001955},{"NoteNumber":48,"Velocity":68,"Duration":326051,"SoundDuration":326051,"Delta":256001955},{"NoteNumber":52,"Velocity":51,"Duration":163025,"SoundDuration":163025,"Delta":256328006},{"NoteNumber":55,"Velocity":57,"Duration":163025,"SoundDuration":163025,"Delta":256491032},{"NoteNumber":59,"Velocity":57,"Duration":163059,"SoundDuration":163059,"Delta":256654058},{"NoteNumber":60,"Velocity":53,"Duration":164182,"SoundDuration":164182,"Delta":256817117},{"NoteNumber":70,"Velocity":57,"Duration":332141,"SoundDuration":332141,"Delta":256981300},{"NoteNumber":48,"Velocity":57,"Duration":165404,"SoundDuration":165404,"Delta":256981300},{"NoteNumber":60,"Velocity":51,"Duration":166737,"SoundDuration":166737,"Delta":257146705},{"NoteNumber":41,"Velocity":62,"Duration":334336,"SoundDuration":334336,"Delta":257313442},{"NoteNumber":72,"Velocity":63,"Duration":636401,"SoundDuration":636401,"Delta":257647779},{"NoteNumber":77,"Velocity":63,"Duration":636401,"SoundDuration":636401,"Delta":257647779},{"NoteNumber":69,"Velocity":63,"Duration":636401,"SoundDuration":636401,"Delta":257647779},{"NoteNumber":81,"Velocity":75,"Duration":636401,"SoundDuration":636401,"Delta":257647779},{"NoteNumber":45,"Velocity":51,"Duration":159100,"SoundDuration":159100,"Delta":257647779},{"NoteNumber":48,"Velocity":51,"Duration":159100,"SoundDuration":159100,"Delta":257806879},{"NoteNumber":52,"Velocity":64,"Duration":159100,"SoundDuration":159100,"Delta":257965980},{"NoteNumber":53,"Velocity":57,"Duration":159100,"SoundDuration":159100,"Delta":258125080},{"NoteNumber":69,"Velocity":48,"Duration":336154,"SoundDuration":336154,"Delta":258284181},{"NoteNumber":77,"Velocity":48,"Duration":336154,"SoundDuration":336154,"Delta":258284181},{"NoteNumber":81,"Velocity":57,"Duration":336154,"SoundDuration":336154,"Delta":258284181},{"NoteNumber":72,"Velocity":48,"Duration":336154,"SoundDuration":336154,"Delta":258284181},{"NoteNumber":57,"Velocity":61,"Duration":159100,"SoundDuration":159100,"Delta":258284181},{"NoteNumber":60,"Velocity":64,"Duration":177053,"SoundDuration":177053,"Delta":258443281},{"NoteNumber":74,"Velocity":69,"Duration":321302,"SoundDuration":321302,"Delta":258620335},{"NoteNumber":46,"Velocity":63,"Duration":321302,"SoundDuration":321302,"Delta":258620335},{"NoteNumber":79,"Velocity":57,"Duration":160651,"SoundDuration":160651,"Delta":258941637},{"NoteNumber":62,"Velocity":52,"Duration":642605,"SoundDuration":642605,"Delta":258941637},{"NoteNumber":65,"Velocity":62,"Duration":642605,"SoundDuration":642605,"Delta":258941637},{"NoteNumber":55,"Velocity":52,"Duration":642605,"SoundDuration":642605,"Delta":258941637},{"NoteNumber":82,"Velocity":57,"Duration":160651,"SoundDuration":160651,"Delta":259102289},{"NoteNumber":85,"Velocity":65,"Duration":160651,"SoundDuration":160651,"Delta":259262940},{"NoteNumber":86,"Velocity":57,"Duration":160651,"SoundDuration":160651,"Delta":259423591},{"NoteNumber":91,"Velocity":65,"Duration":160651,"SoundDuration":160651,"Delta":259584242},{"NoteNumber":62,"Velocity":51,"Duration":332177,"SoundDuration":332177,"Delta":259584242},{"NoteNumber":65,"Velocity":61,"Duration":332177,"SoundDuration":332177,"Delta":259584242},{"NoteNumber":55,"Velocity":51,"Duration":332177,"SoundDuration":332177,"Delta":259584242},{"NoteNumber":94,"Velocity":68,"Duration":171526,"SoundDuration":171526,"Delta":259744894},{"NoteNumber":88,"Velocity":76,"Duration":155343,"SoundDuration":155343,"Delta":259916420},{"NoteNumber":48,"Velocity":63,"Duration":310687,"SoundDuration":310687,"Delta":259916420},{"NoteNumber":96,"Velocity":70,"Duration":155343,"SoundDuration":155343,"Delta":260071764},{"NoteNumber":94,"Velocity":71,"Duration":157579,"SoundDuration":157579,"Delta":260227108},{"NoteNumber":58,"Velocity":51,"Duration":630317,"SoundDuration":630317,"Delta":260227108},{"NoteNumber":64,"Velocity":60,"Duration":630317,"SoundDuration":630317,"Delta":260227108},{"NoteNumber":60,"Velocity":51,"Duration":630317,"SoundDuration":630317,"Delta":260227108},{"NoteNumber":55,"Velocity":51,"Duration":630317,"SoundDuration":630317,"Delta":260227108},{"NoteNumber":91,"Velocity":66,"Duration":157579,"SoundDuration":157579,"Delta":260384687},{"NoteNumber":88,"Velocity":74,"Duration":157579,"SoundDuration":157579,"Delta":260542267},{"NoteNumber":84,"Velocity":72,"Duration":157579,"SoundDuration":157579,"Delta":260699846},{"NoteNumber":82,"Velocity":69,"Duration":157579,"SoundDuration":157579,"Delta":260857426},{"NoteNumber":60,"Velocity":51,"Duration":315158,"SoundDuration":315158,"Delta":260857426},{"NoteNumber":64,"Velocity":60,"Duration":315158,"SoundDuration":315158,"Delta":260857426},{"NoteNumber":79,"Velocity":67,"Duration":157579,"SoundDuration":157579,"Delta":261015005},{"NoteNumber":77,"Velocity":60,"Duration":323107,"SoundDuration":323107,"Delta":261172585},{"NoteNumber":53,"Velocity":54,"Duration":160875,"SoundDuration":160875,"Delta":261172585},{"NoteNumber":63,"Velocity":61,"Duration":162232,"SoundDuration":162232,"Delta":261333460},{"NoteNumber":75,"Velocity":53,"Duration":981678,"SoundDuration":981678,"Delta":261495692},{"NoteNumber":69,"Velocity":53,"Duration":981678,"SoundDuration":981678,"Delta":261495692},{"NoteNumber":77,"Velocity":53,"Duration":981678,"SoundDuration":981678,"Delta":261495692},{"NoteNumber":72,"Velocity":53,"Duration":981678,"SoundDuration":981678,"Delta":261495692},{"NoteNumber":60,"Velocity":61,"Duration":162986,"SoundDuration":162986,"Delta":261495692},{"NoteNumber":57,"Velocity":60,"Duration":163312,"SoundDuration":163312,"Delta":261658678},{"NoteNumber":53,"Velocity":58,"Duration":163844,"SoundDuration":163844,"Delta":261821991},{"NoteNumber":51,"Velocity":57,"Duration":163844,"SoundDuration":163844,"Delta":261985836},{"NoteNumber":48,"Velocity":55,"Duration":163845,"SoundDuration":163845,"Delta":262149681},{"NoteNumber":53,"Velocity":54,"Duration":163844,"SoundDuration":163844,"Delta":262313526},{"NoteNumber":86,"Velocity":70,"Duration":329344,"SoundDuration":329344,"Delta":262477371},{"NoteNumber":46,"Velocity":35,"Duration":329344,"SoundDuration":329344,"Delta":262477371},{"NoteNumber":85,"Velocity":57,"Duration":156087,"SoundDuration":156087,"Delta":262806715},{"NoteNumber":62,"Velocity":24,"Duration":618516,"SoundDuration":618516,"Delta":262806715},{"NoteNumber":58,"Velocity":20,"Duration":618516,"SoundDuration":618516,"Delta":262806715},{"NoteNumber":53,"Velocity":20,"Duration":618516,"SoundDuration":618516,"Delta":262806715},{"NoteNumber":86,"Velocity":51,"Duration":156087,"SoundDuration":156087,"Delta":262962803},{"NoteNumber":85,"Velocity":60,"Duration":153170,"SoundDuration":153170,"Delta":263118890},{"NoteNumber":86,"Velocity":51,"Duration":153170,"SoundDuration":153170,"Delta":263272061},{"NoteNumber":89,"Velocity":51,"Duration":163844,"SoundDuration":163844,"Delta":263425232},{"NoteNumber":53,"Velocity":21,"Duration":365892,"SoundDuration":365892,"Delta":263425232},{"NoteNumber":62,"Velocity":25,"Duration":365892,"SoundDuration":365892,"Delta":263425232},{"NoteNumber":58,"Velocity":21,"Duration":365892,"SoundDuration":365892,"Delta":263425232},{"NoteNumber":86,"Velocity":51,"Duration":202047,"SoundDuration":202047,"Delta":263589077},{"NoteNumber":84,"Velocity":64,"Duration":676004,"SoundDuration":676004,"Delta":263791124},{"NoteNumber":50,"Velocity":35,"Duration":346660,"SoundDuration":346660,"Delta":263791124},{"NoteNumber":65,"Velocity":28,"Duration":658688,"SoundDuration":658688,"Delta":264137785},{"NoteNumber":58,"Velocity":23,"Duration":658688,"SoundDuration":658688,"Delta":264137785},{"NoteNumber":56,"Velocity":23,"Duration":658688,"SoundDuration":658688,"Delta":264137785},{"NoteNumber":82,"Velocity":57,"Duration":329344,"SoundDuration":329344,"Delta":264467129},{"NoteNumber":58,"Velocity":22,"Duration":329344,"SoundDuration":329344,"Delta":264796474},{"NoteNumber":56,"Velocity":22,"Duration":329344,"SoundDuration":329344,"Delta":264796474},{"NoteNumber":65,"Velocity":27,"Duration":329344,"SoundDuration":329344,"Delta":264796474},{"NoteNumber":82,"Velocity":52,"Duration":82336,"SoundDuration":82336,"Delta":265043482},{"NoteNumber":81,"Velocity":59,"Duration":164672,"SoundDuration":164672,"Delta":265125818},{"NoteNumber":51,"Velocity":35,"Duration":329344,"SoundDuration":329344,"Delta":265125818},{"NoteNumber":82,"Velocity":49,"Duration":164672,"SoundDuration":164672,"Delta":265290490},{"NoteNumber":84,"Velocity":58,"Duration":161429,"SoundDuration":161429,"Delta":265455163},{"NoteNumber":55,"Velocity":20,"Duration":626098,"SoundDuration":626098,"Delta":265455163},{"NoteNumber":58,"Velocity":20,"Duration":626098,"SoundDuration":626098,"Delta":265455163},{"NoteNumber":63,"Velocity":24,"Duration":626098,"SoundDuration":626098,"Delta":265455163},{"NoteNumber":86,"Velocity":51,"Duration":158327,"SoundDuration":158327,"Delta":265616592},{"NoteNumber":87,"Velocity":58,"Duration":153170,"SoundDuration":153170,"Delta":265774920},{"NoteNumber":88,"Velocity":48,"Duration":153170,"SoundDuration":153170,"Delta":265928091},{"NoteNumber":89,"Velocity":52,"Duration":163025,"SoundDuration":163025,"Delta":266081261},{"NoteNumber":58,"Velocity":21,"Duration":354498,"SoundDuration":354498,"Delta":266081261},{"NoteNumber":63,"Velocity":25,"Duration":354498,"SoundDuration":354498,"Delta":266081261},{"NoteNumber":55,"Velocity":21,"Duration":354498,"SoundDuration":354498,"Delta":266081261},{"NoteNumber":90,"Velocity":56,"Duration":191472,"SoundDuration":191472,"Delta":266244287},{"NoteNumber":91,"Velocity":69,"Duration":86665,"SoundDuration":86665,"Delta":266435760},{"NoteNumber":52,"Velocity":35,"Duration":346660,"SoundDuration":346660,"Delta":266435760},{"NoteNumber":93,"Velocity":58,"Duration":86665,"SoundDuration":86665,"Delta":266522425},{"NoteNumber":91,"Velocity":63,"Duration":86665,"SoundDuration":86665,"Delta":266609090},{"NoteNumber":93,"Velocity":58,"Duration":86665,"SoundDuration":86665,"Delta":266695755},{"NoteNumber":91,"Velocity":63,"Duration":87128,"SoundDuration":87128,"Delta":266782421},{"NoteNumber":58,"Velocity":23,"Duration":679492,"SoundDuration":679492,"Delta":266782421},{"NoteNumber":67,"Velocity":28,"Duration":679492,"SoundDuration":679492,"Delta":266782421},{"NoteNumber":61,"Velocity":23,"Duration":679492,"SoundDuration":679492,"Delta":266782421},{"NoteNumber":90,"Velocity":62,"Duration":87128,"SoundDuration":87128,"Delta":266869549},{"NoteNumber":91,"Velocity":66,"Duration":87128,"SoundDuration":87128,"Delta":266956677},{"NoteNumber":93,"Velocity":70,"Duration":87128,"SoundDuration":87128,"Delta":267043805},{"NoteNumber":94,"Velocity":74,"Duration":165489,"SoundDuration":165489,"Delta":267130934},{"NoteNumber":61,"Velocity":22,"Duration":330979,"SoundDuration":330979,"Delta":267461913},{"NoteNumber":58,"Velocity":22,"Duration":330979,"SoundDuration":330979,"Delta":267461913},{"NoteNumber":67,"Velocity":27,"Duration":330979,"SoundDuration":330979,"Delta":267461913},{"NoteNumber":72,"Velocity":41,"Duration":41372,"SoundDuration":41372,"Delta":267710148},{"NoteNumber":74,"Velocity":41,"Duration":41372,"SoundDuration":41372,"Delta":267751520},{"NoteNumber":72,"Velocity":51,"Duration":329344,"SoundDuration":329344,"Delta":267792893},{"NoteNumber":55,"Velocity":31,"Duration":329344,"SoundDuration":329344,"Delta":267792893},{"NoteNumber":71,"Velocity":40,"Duration":161429,"SoundDuration":161429,"Delta":268122237},{"NoteNumber":60,"Velocity":18,"Duration":636502,"SoundDuration":636502,"Delta":268122237},{"NoteNumber":58,"Velocity":18,"Duration":636502,"SoundDuration":636502,"Delta":268122237},{"NoteNumber":64,"Velocity":21,"Duration":636502,"SoundDuration":636502,"Delta":268122237},{"NoteNumber":72,"Velocity":43,"Duration":161429,"SoundDuration":161429,"Delta":268283666},{"NoteNumber":76,"Velocity":54,"Duration":156821,"SoundDuration":156821,"Delta":268445096},{"NoteNumber":82,"Velocity":42,"Duration":156821,"SoundDuration":156821,"Delta":268601917},{"NoteNumber":79,"Velocity":42,"Duration":156821,"SoundDuration":156821,"Delta":268758739},{"NoteNumber":58,"Velocity":18,"Duration":348294,"SoundDuration":348294,"Delta":268758739},{"NoteNumber":60,"Velocity":18,"Duration":348294,"SoundDuration":348294,"Delta":268758739},{"NoteNumber":64,"Velocity":22,"Duration":348294,"SoundDuration":348294,"Delta":268758739},{"NoteNumber":76,"Velocity":42,"Duration":95736,"SoundDuration":95736,"Delta":268915561},{"NoteNumber":77,"Velocity":33,"Duration":47868,"SoundDuration":47868,"Delta":269011297},{"NoteNumber":79,"Velocity":34,"Duration":47868,"SoundDuration":47868,"Delta":269059166},{"NoteNumber":77,"Velocity":52,"Duration":346660,"SoundDuration":346660,"Delta":269107034},{"NoteNumber":53,"Velocity":31,"Duration":346660,"SoundDuration":346660,"Delta":269107034},{"NoteNumber":76,"Velocity":42,"Duration":166334,"SoundDuration":166334,"Delta":269453694},{"NoteNumber":58,"Velocity":20,"Duration":655526,"SoundDuration":655526,"Delta":269453694},{"NoteNumber":62,"Velocity":20,"Duration":655526,"SoundDuration":655526,"Delta":269453694},{"NoteNumber":65,"Velocity":25,"Duration":655526,"SoundDuration":655526,"Delta":269453694},{"NoteNumber":77,"Velocity":42,"Duration":166334,"SoundDuration":166334,"Delta":269620028},{"NoteNumber":82,"Velocity":58,"Duration":161429,"SoundDuration":161429,"Delta":269786362},{"NoteNumber":89,"Velocity":43,"Duration":161429,"SoundDuration":161429,"Delta":269947792},{"NoteNumber":86,"Velocity":43,"Duration":161429,"SoundDuration":161429,"Delta":270109221},{"NoteNumber":58,"Velocity":19,"Duration":322858,"SoundDuration":322858,"Delta":270109221},{"NoteNumber":62,"Velocity":19,"Duration":322858,"SoundDuration":322858,"Delta":270109221},{"NoteNumber":65,"Velocity":24,"Duration":322858,"SoundDuration":322858,"Delta":270109221},{"NoteNumber":82,"Velocity":37,"Duration":161429,"SoundDuration":161429,"Delta":270270650},{"NoteNumber":81,"Velocity":38,"Duration":130692,"SoundDuration":130692,"Delta":270432079},{"NoteNumber":53,"Velocity":31,"Duration":334119,"SoundDuration":334119,"Delta":270432079},{"NoteNumber":82,"Velocity":32,"Duration":119897,"SoundDuration":119897,"Delta":270606336},{"NoteNumber":84,"Velocity":35,"Duration":119897,"SoundDuration":119897,"Delta":270766199},{"NoteNumber":60,"Velocity":18,"Duration":639454,"SoundDuration":639454,"Delta":270766199},{"NoteNumber":63,"Velocity":18,"Duration":639454,"SoundDuration":639454,"Delta":270766199},{"NoteNumber":65,"Velocity":21,"Duration":639454,"SoundDuration":639454,"Delta":270766199},{"NoteNumber":86,"Velocity":38,"Duration":119897,"SoundDuration":119897,"Delta":270926063},{"NoteNumber":87,"Velocity":41,"Duration":119897,"SoundDuration":119897,"Delta":271085926},{"NoteNumber":89,"Velocity":44,"Duration":119897,"SoundDuration":119897,"Delta":271245790},{"NoteNumber":91,"Velocity":48,"Duration":119897,"SoundDuration":119897,"Delta":271405653},{"NoteNumber":65,"Velocity":22,"Duration":329623,"SoundDuration":329623,"Delta":271405653},{"NoteNumber":60,"Velocity":18,"Duration":329623,"SoundDuration":329623,"Delta":271405653},{"NoteNumber":63,"Velocity":18,"Duration":329623,"SoundDuration":329623,"Delta":271405653},{"NoteNumber":93,"Velocity":51,"Duration":84879,"SoundDuration":84879,"Delta":271565517},{"NoteNumber":96,"Velocity":51,"Duration":84879,"SoundDuration":84879,"Delta":271650397},{"NoteNumber":94,"Velocity":54,"Duration":121071,"SoundDuration":121071,"Delta":271735277},{"NoteNumber":53,"Velocity":31,"Duration":322858,"SoundDuration":322858,"Delta":271735277},{"NoteNumber":93,"Velocity":50,"Duration":121071,"SoundDuration":121071,"Delta":271896706},{"NoteNumber":91,"Velocity":48,"Duration":121071,"SoundDuration":121071,"Delta":272058135},{"NoteNumber":65,"Velocity":21,"Duration":650687,"SoundDuration":650687,"Delta":272058135},{"NoteNumber":62,"Velocity":18,"Duration":650687,"SoundDuration":650687,"Delta":272058135},{"NoteNumber":58,"Velocity":18,"Duration":650687,"SoundDuration":650687,"Delta":272058135},{"NoteNumber":89,"Velocity":45,"Duration":121071,"SoundDuration":121071,"Delta":272219565},{"NoteNumber":87,"Velocity":42,"Duration":121277,"SoundDuration":121277,"Delta":272380903},{"NoteNumber":86,"Velocity":40,"Duration":123805,"SoundDuration":123805,"Delta":272543066},{"NoteNumber":84,"Velocity":37,"Duration":129004,"SoundDuration":129004,"Delta":272708822},{"NoteNumber":65,"Velocity":22,"Duration":348160,"SoundDuration":348160,"Delta":272708822},{"NoteNumber":58,"Velocity":18,"Duration":348160,"SoundDuration":348160,"Delta":272708822},{"NoteNumber":62,"Velocity":18,"Duration":348160,"SoundDuration":348160,"Delta":272708822},{"NoteNumber":83,"Velocity":34,"Duration":90119,"SoundDuration":90119,"Delta":272881983},{"NoteNumber":86,"Velocity":51,"Duration":84879,"SoundDuration":84879,"Delta":272972102},{"NoteNumber":84,"Velocity":54,"Duration":121071,"SoundDuration":121071,"Delta":273056982},{"NoteNumber":41,"Velocity":31,"Duration":322858,"SoundDuration":322858,"Delta":273056982},{"NoteNumber":82,"Velocity":50,"Duration":121071,"SoundDuration":121071,"Delta":273218412},{"NoteNumber":81,"Velocity":48,"Duration":121071,"SoundDuration":121071,"Delta":273379841},{"NoteNumber":60,"Velocity":18,"Duration":650687,"SoundDuration":650687,"Delta":273379841},{"NoteNumber":63,"Velocity":21,"Duration":650687,"SoundDuration":650687,"Delta":273379841},{"NoteNumber":53,"Velocity":18,"Duration":650687,"SoundDuration":650687,"Delta":273379841},{"NoteNumber":79,"Velocity":45,"Duration":121071,"SoundDuration":121071,"Delta":273541270},{"NoteNumber":77,"Velocity":42,"Duration":121277,"SoundDuration":121277,"Delta":273702609},{"NoteNumber":75,"Velocity":40,"Duration":123805,"SoundDuration":123805,"Delta":273864772},{"NoteNumber":74,"Velocity":37,"Duration":129004,"SoundDuration":129004,"Delta":274030528},{"NoteNumber":53,"Velocity":18,"Duration":348160,"SoundDuration":348160,"Delta":274030528},{"NoteNumber":63,"Velocity":22,"Duration":348160,"SoundDuration":348160,"Delta":274030528},{"NoteNumber":60,"Velocity":18,"Duration":348160,"SoundDuration":348160,"Delta":274030528},{"NoteNumber":73,"Velocity":34,"Duration":90119,"SoundDuration":90119,"Delta":274203689},{"NoteNumber":84,"Velocity":51,"Duration":84879,"SoundDuration":84879,"Delta":274293808},{"NoteNumber":74,"Velocity":49,"Duration":121071,"SoundDuration":121071,"Delta":274378688},{"NoteNumber":82,"Velocity":54,"Duration":121071,"SoundDuration":121071,"Delta":274378688},{"NoteNumber":41,"Velocity":31,"Duration":322858,"SoundDuration":322858,"Delta":274378688},{"NoteNumber":81,"Velocity":50,"Duration":121071,"SoundDuration":121071,"Delta":274540117},{"NoteNumber":79,"Velocity":48,"Duration":121071,"SoundDuration":121071,"Delta":274701547},{"NoteNumber":53,"Velocity":18,"Duration":650687,"SoundDuration":650687,"Delta":274701547},{"NoteNumber":58,"Velocity":18,"Duration":650687,"SoundDuration":650687,"Delta":274701547},{"NoteNumber":62,"Velocity":21,"Duration":650687,"SoundDuration":650687,"Delta":274701547},{"NoteNumber":77,"Velocity":45,"Duration":121071,"SoundDuration":121071,"Delta":274862976},{"NoteNumber":75,"Velocity":42,"Duration":121277,"SoundDuration":121277,"Delta":275024314},{"NoteNumber":74,"Velocity":40,"Duration":123805,"SoundDuration":123805,"Delta":275186478},{"NoteNumber":72,"Velocity":37,"Duration":129004,"SoundDuration":129004,"Delta":275352234},{"NoteNumber":62,"Velocity":22,"Duration":263280,"SoundDuration":263280,"Delta":275352234},{"NoteNumber":58,"Velocity":18,"Duration":263280,"SoundDuration":263280,"Delta":275352234},{"NoteNumber":53,"Velocity":18,"Duration":263280,"SoundDuration":263280,"Delta":275352234},{"NoteNumber":71,"Velocity":34,"Duration":90119,"SoundDuration":90119,"Delta":275525395},{"NoteNumber":74,"Velocity":45,"Duration":84146,"SoundDuration":84146,"Delta":275615514},{"NoteNumber":72,"Velocity":48,"Duration":124875,"SoundDuration":124875,"Delta":275699660},{"NoteNumber":41,"Velocity":31,"Duration":333000,"SoundDuration":333000,"Delta":275699660},{"NoteNumber":70,"Velocity":45,"Duration":124875,"SoundDuration":124875,"Delta":275866161},{"NoteNumber":69,"Velocity":43,"Duration":124875,"SoundDuration":124875,"Delta":276032661},{"NoteNumber":53,"Velocity":18,"Duration":690297,"SoundDuration":690297,"Delta":276032661},{"NoteNumber":60,"Velocity":21,"Duration":690297,"SoundDuration":690297,"Delta":276032661},{"NoteNumber":51,"Velocity":18,"Duration":690297,"SoundDuration":690297,"Delta":276032661},{"NoteNumber":67,"Velocity":40,"Duration":124875,"SoundDuration":124875,"Delta":276199161},{"NoteNumber":65,"Velocity":37,"Duration":129316,"SoundDuration":129316,"Delta":276365719},{"NoteNumber":63,"Velocity":36,"Duration":136784,"SoundDuration":136784,"Delta":276539205},{"NoteNumber":62,"Velocity":33,"Duration":145260,"SoundDuration":145260,"Delta":276722958},{"NoteNumber":53,"Velocity":18,"Duration":401508,"SoundDuration":401508,"Delta":276722958},{"NoteNumber":51,"Velocity":18,"Duration":401508,"SoundDuration":401508,"Delta":276722958},{"NoteNumber":57,"Velocity":22,"Duration":401508,"SoundDuration":401508,"Delta":276722958},{"NoteNumber":60,"Velocity":30,"Duration":154279,"SoundDuration":154279,"Delta":276918342},{"NoteNumber":58,"Velocity":34,"Duration":2106110,"SoundDuration":2106110,"Delta":277124467},{"NoteNumber":53,"Velocity":31,"Duration":1886265,"SoundDuration":1886265,"Delta":277344312},{"NoteNumber":50,"Velocity":29,"Duration":1666420,"SoundDuration":1666420,"Delta":277564157},{"NoteNumber":46,"Velocity":28,"Duration":1412699,"SoundDuration":1412699,"Delta":277817878},{"NoteNumber":34,"Velocity":26,"Duration":1112759,"SoundDuration":1112759,"Delta":278117818},{"NoteNumber":65,"Velocity":46,"Duration":506670,"SoundDuration":506670,"Delta":279230577},{"NoteNumber":61,"Velocity":42,"Duration":1442307,"SoundDuration":1442307,"Delta":279737248},{"NoteNumber":65,"Velocity":42,"Duration":1442307,"SoundDuration":1442307,"Delta":279737248},{"NoteNumber":73,"Velocity":55,"Duration":1442307,"SoundDuration":1442307,"Delta":279737248},{"NoteNumber":46,"Velocity":36,"Duration":320512,"SoundDuration":320512,"Delta":279737248},{"NoteNumber":34,"Velocity":30,"Duration":320512,"SoundDuration":320512,"Delta":279737248},{"NoteNumber":46,"Velocity":25,"Duration":240384,"SoundDuration":240384,"Delta":280057761},{"NoteNumber":53,"Velocity":29,"Duration":240384,"SoundDuration":240384,"Delta":280057761},{"NoteNumber":49,"Velocity":25,"Duration":240384,"SoundDuration":240384,"Delta":280057761},{"NoteNumber":52,"Velocity":29,"Duration":240384,"SoundDuration":240384,"Delta":280378274},{"NoteNumber":49,"Velocity":25,"Duration":240384,"SoundDuration":240384,"Delta":280378274},{"NoteNumber":46,"Velocity":25,"Duration":240384,"SoundDuration":240384,"Delta":280378274},{"NoteNumber":49,"Velocity":30,"Duration":240384,"SoundDuration":240384,"Delta":280698786},{"NoteNumber":53,"Velocity":36,"Duration":240384,"SoundDuration":240384,"Delta":280698786},{"NoteNumber":46,"Velocity":30,"Duration":240384,"SoundDuration":240384,"Delta":280698786},{"NoteNumber":49,"Velocity":25,"Duration":246701,"SoundDuration":246701,"Delta":281019299},{"NoteNumber":46,"Velocity":25,"Duration":246701,"SoundDuration":246701,"Delta":281019299},{"NoteNumber":54,"Velocity":29,"Duration":246701,"SoundDuration":246701,"Delta":281019299},{"NoteNumber":65,"Velocity":38,"Duration":518671,"SoundDuration":518671,"Delta":281179555},{"NoteNumber":73,"Velocity":51,"Duration":518671,"SoundDuration":518671,"Delta":281179555},{"NoteNumber":61,"Velocity":38,"Duration":518671,"SoundDuration":518671,"Delta":281179555},{"NoteNumber":49,"Velocity":25,"Duration":259336,"SoundDuration":259336,"Delta":281352446},{"NoteNumber":53,"Velocity":29,"Duration":259336,"SoundDuration":259336,"Delta":281352446},{"NoteNumber":46,"Velocity":25,"Duration":259336,"SoundDuration":259336,"Delta":281352446},{"NoteNumber":60,"Velocity":42,"Duration":954654,"SoundDuration":954654,"Delta":281698227},{"NoteNumber":72,"Velocity":55,"Duration":954654,"SoundDuration":954654,"Delta":281698227},{"NoteNumber":65,"Velocity":42,"Duration":1431981,"SoundDuration":1431981,"Delta":281698227},{"NoteNumber":37,"Velocity":30,"Duration":318218,"SoundDuration":318218,"Delta":281698227},{"NoteNumber":49,"Velocity":36,"Duration":318218,"SoundDuration":318218,"Delta":281698227},{"NoteNumber":53,"Velocity":28,"Duration":238663,"SoundDuration":238663,"Delta":282016445},{"NoteNumber":49,"Velocity":24,"Duration":238663,"SoundDuration":238663,"Delta":282016445},{"NoteNumber":49,"Velocity":25,"Duration":238663,"SoundDuration":238663,"Delta":282334663},{"NoteNumber":52,"Velocity":29,"Duration":238663,"SoundDuration":238663,"Delta":282334663},{"NoteNumber":70,"Velocity":44,"Duration":477327,"SoundDuration":477327,"Delta":282652881},{"NoteNumber":58,"Velocity":33,"Duration":477327,"SoundDuration":477327,"Delta":282652881},{"NoteNumber":49,"Velocity":26,"Duration":238663,"SoundDuration":238663,"Delta":282652881},{"NoteNumber":53,"Velocity":31,"Duration":238663,"SoundDuration":238663,"Delta":282652881},{"NoteNumber":49,"Velocity":25,"Duration":245554,"SoundDuration":245554,"Delta":282971099},{"NoteNumber":54,"Velocity":29,"Duration":245554,"SoundDuration":245554,"Delta":282971099},{"NoteNumber":65,"Velocity":37,"Duration":518671,"SoundDuration":518671,"Delta":283130208},{"NoteNumber":70,"Velocity":48,"Duration":518671,"SoundDuration":518671,"Delta":283130208},{"NoteNumber":58,"Velocity":37,"Duration":518671,"SoundDuration":518671,"Delta":283130208},{"NoteNumber":53,"Velocity":29,"Duration":259336,"SoundDuration":259336,"Delta":283303099},{"NoteNumber":49,"Velocity":25,"Duration":259336,"SoundDuration":259336,"Delta":283303099},{"NoteNumber":58,"Velocity":45,"Duration":710788,"SoundDuration":710788,"Delta":283648880},{"NoteNumber":65,"Velocity":53,"Duration":947718,"SoundDuration":947718,"Delta":283648880},{"NoteNumber":70,"Velocity":58,"Duration":710788,"SoundDuration":710788,"Delta":283648880},{"NoteNumber":36,"Velocity":36,"Duration":315905,"SoundDuration":315905,"Delta":283648880},{"NoteNumber":48,"Velocity":25,"Duration":315906,"SoundDuration":315906,"Delta":283964786},{"NoteNumber":53,"Velocity":29,"Duration":315906,"SoundDuration":315906,"Delta":283964786},{"NoteNumber":51,"Velocity":25,"Duration":315906,"SoundDuration":315906,"Delta":283964786},{"NoteNumber":48,"Velocity":25,"Duration":315905,"SoundDuration":315905,"Delta":284280692},{"NoteNumber":51,"Velocity":29,"Duration":315905,"SoundDuration":315905,"Delta":284280692},{"NoteNumber":52,"Velocity":25,"Duration":315905,"SoundDuration":315905,"Delta":284280692},{"NoteNumber":57,"Velocity":42,"Duration":236929,"SoundDuration":236929,"Delta":284359669},{"NoteNumber":69,"Velocity":55,"Duration":236929,"SoundDuration":236929,"Delta":284359669},{"NoteNumber":60,"Velocity":45,"Duration":315905,"SoundDuration":315905,"Delta":284596598},{"NoteNumber":72,"Velocity":59,"Duration":315905,"SoundDuration":315905,"Delta":284596598},{"NoteNumber":53,"Velocity":31,"Duration":315905,"SoundDuration":315905,"Delta":284596598},{"NoteNumber":51,"Velocity":26,"Duration":315905,"SoundDuration":315905,"Delta":284596598},{"NoteNumber":48,"Velocity":26,"Duration":315905,"SoundDuration":315905,"Delta":284596598},{"NoteNumber":63,"Velocity":47,"Duration":345605,"SoundDuration":345605,"Delta":284912504},{"NoteNumber":75,"Velocity":61,"Duration":345605,"SoundDuration":345605,"Delta":284912504},{"NoteNumber":48,"Velocity":28,"Duration":345605,"SoundDuration":345605,"Delta":284912504},{"NoteNumber":51,"Velocity":34,"Duration":345605,"SoundDuration":345605,"Delta":284912504},{"NoteNumber":66,"Velocity":48,"Duration":363739,"SoundDuration":363739,"Delta":285258110},{"NoteNumber":75,"Velocity":48,"Duration":363739,"SoundDuration":363739,"Delta":285258110},{"NoteNumber":72,"Velocity":48,"Duration":363739,"SoundDuration":363739,"Delta":285258110},{"NoteNumber":78,"Velocity":62,"Duration":363739,"SoundDuration":363739,"Delta":285258110},{"NoteNumber":48,"Velocity":30,"Duration":363739,"SoundDuration":363739,"Delta":285258110},{"NoteNumber":54,"Velocity":36,"Duration":363739,"SoundDuration":363739,"Delta":285258110},{"NoteNumber":51,"Velocity":30,"Duration":363739,"SoundDuration":363739,"Delta":285258110},{"NoteNumber":75,"Velocity":50,"Duration":1432052,"SoundDuration":1432052,"Delta":285621849},{"NoteNumber":72,"Velocity":50,"Duration":1432052,"SoundDuration":1432052,"Delta":285621849},{"NoteNumber":65,"Velocity":50,"Duration":1432052,"SoundDuration":1432052,"Delta":285621849},{"NoteNumber":77,"Velocity":64,"Duration":1432052,"SoundDuration":1432052,"Delta":285621849},{"NoteNumber":33,"Velocity":45,"Duration":320512,"SoundDuration":320512,"Delta":285621849},{"NoteNumber":53,"Velocity":35,"Duration":320512,"SoundDuration":320512,"Delta":285942362},{"NoteNumber":48,"Velocity":29,"Duration":320512,"SoundDuration":320512,"Delta":285942362},{"NoteNumber":45,"Velocity":29,"Duration":320512,"SoundDuration":320512,"Delta":285942362},{"NoteNumber":52,"Velocity":35,"Duration":320512,"SoundDuration":320512,"Delta":286262875},{"NoteNumber":48,"Velocity":29,"Duration":320512,"SoundDuration":320512,"Delta":286262875},{"NoteNumber":45,"Velocity":29,"Duration":320512,"SoundDuration":320512,"Delta":286262875},{"NoteNumber":53,"Velocity":37,"Duration":313676,"SoundDuration":313676,"Delta":286583387},{"NoteNumber":45,"Velocity":31,"Duration":313676,"SoundDuration":313676,"Delta":286583387},{"NoteNumber":48,"Velocity":31,"Duration":313676,"SoundDuration":313676,"Delta":286583387},{"NoteNumber":48,"Velocity":26,"Duration":336791,"SoundDuration":336791,"Delta":286897064},{"NoteNumber":54,"Velocity":30,"Duration":336791,"SoundDuration":336791,"Delta":286897064},{"NoteNumber":45,"Velocity":26,"Duration":336791,"SoundDuration":336791,"Delta":286897064},{"NoteNumber":75,"Velocity":62,"Duration":539859,"SoundDuration":539859,"Delta":287053902},{"NoteNumber":63,"Velocity":48,"Duration":539859,"SoundDuration":539859,"Delta":287053902},{"NoteNumber":53,"Velocity":30,"Duration":359906,"SoundDuration":359906,"Delta":287233855},{"NoteNumber":45,"Velocity":26,"Duration":359906,"SoundDuration":359906,"Delta":287233855},{"NoteNumber":48,"Velocity":26,"Duration":359906,"SoundDuration":359906,"Delta":287233855},{"NoteNumber":63,"Velocity":55,"Duration":715990,"SoundDuration":715990,"Delta":287593761},{"NoteNumber":75,"Velocity":71,"Duration":715990,"SoundDuration":715990,"Delta":287593761},{"NoteNumber":34,"Velocity":39,"Duration":318218,"SoundDuration":318218,"Delta":287593761},{"NoteNumber":53,"Velocity":31,"Duration":318218,"SoundDuration":318218,"Delta":287911979},{"NoteNumber":49,"Velocity":27,"Duration":318218,"SoundDuration":318218,"Delta":287911979},{"NoteNumber":46,"Velocity":27,"Duration":318218,"SoundDuration":318218,"Delta":287911979},{"NoteNumber":52,"Velocity":31,"Duration":318218,"SoundDuration":318218,"Delta":288230197},{"NoteNumber":46,"Velocity":27,"Duration":318218,"SoundDuration":318218,"Delta":288230197},{"NoteNumber":49,"Velocity":27,"Duration":318218,"SoundDuration":318218,"Delta":288230197},{"NoteNumber":61,"Velocity":51,"Duration":238663,"SoundDuration":238663,"Delta":288309752},{"NoteNumber":73,"Velocity":67,"Duration":238663,"SoundDuration":238663,"Delta":288309752},{"NoteNumber":58,"Velocity":56,"Duration":238663,"SoundDuration":238663,"Delta":288548415},{"NoteNumber":70,"Velocity":72,"Duration":238663,"SoundDuration":238663,"Delta":288548415},{"NoteNumber":49,"Velocity":33,"Duration":238663,"SoundDuration":238663,"Delta":288548415},{"NoteNumber":53,"Velocity":39,"Duration":238663,"SoundDuration":238663,"Delta":288548415},{"NoteNumber":46,"Velocity":33,"Duration":238663,"SoundDuration":238663,"Delta":288548415},{"NoteNumber":72,"Velocity":69,"Duration":238663,"SoundDuration":238663,"Delta":288866633},{"NoteNumber":60,"Velocity":54,"Duration":238663,"SoundDuration":238663,"Delta":288866633},{"NoteNumber":46,"Velocity":27,"Duration":238663,"SoundDuration":238663,"Delta":288866633},{"NoteNumber":54,"Velocity":31,"Duration":238663,"SoundDuration":238663,"Delta":288866633},{"NoteNumber":49,"Velocity":27,"Duration":238663,"SoundDuration":238663,"Delta":288866633},{"NoteNumber":61,"Velocity":54,"Duration":284738,"SoundDuration":284738,"Delta":289184851},{"NoteNumber":73,"Velocity":69,"Duration":284738,"SoundDuration":284738,"Delta":289184851},{"NoteNumber":53,"Velocity":31,"Duration":284738,"SoundDuration":284738,"Delta":289184851},{"NoteNumber":49,"Velocity":27,"Duration":284738,"SoundDuration":284738,"Delta":289184851},{"NoteNumber":46,"Velocity":27,"Duration":284738,"SoundDuration":284738,"Delta":289184851},{"NoteNumber":65,"Velocity":62,"Duration":721153,"SoundDuration":721153,"Delta":289565046},{"NoteNumber":77,"Velocity":80,"Duration":721153,"SoundDuration":721153,"Delta":289565046},{"NoteNumber":30,"Velocity":39,"Duration":320512,"SoundDuration":320512,"Delta":289565046},{"NoteNumber":42,"Velocity":26,"Duration":320512,"SoundDuration":320512,"Delta":289885559},{"NoteNumber":46,"Velocity":26,"Duration":320512,"SoundDuration":320512,"Delta":289885559},{"NoteNumber":51,"Velocity":30,"Duration":320512,"SoundDuration":320512,"Delta":289885559},{"NoteNumber":51,"Velocity":31,"Duration":320512,"SoundDuration":320512,"Delta":290206072},{"NoteNumber":45,"Velocity":27,"Duration":320512,"SoundDuration":320512,"Delta":290206072},{"NoteNumber":42,"Velocity":27,"Duration":320512,"SoundDuration":320512,"Delta":290206072},{"NoteNumber":63,"Velocity":53,"Duration":216346,"SoundDuration":216346,"Delta":290286200},{"NoteNumber":75,"Velocity":68,"Duration":216346,"SoundDuration":216346,"Delta":290286200},{"NoteNumber":63,"Velocity":60,"Duration":240384,"SoundDuration":240384,"Delta":290526584},{"NoteNumber":75,"Velocity":77,"Duration":240384,"SoundDuration":240384,"Delta":290526584},{"NoteNumber":46,"Velocity":28,"Duration":240384,"SoundDuration":240384,"Delta":290526584},{"NoteNumber":51,"Velocity":34,"Duration":240384,"SoundDuration":240384,"Delta":290526584},{"NoteNumber":42,"Velocity":28,"Duration":240384,"SoundDuration":240384,"Delta":290526584},{"NoteNumber":73,"Velocity":67,"Duration":240384,"SoundDuration":240384,"Delta":290847097},{"NoteNumber":61,"Velocity":52,"Duration":240384,"SoundDuration":240384,"Delta":290847097},{"NoteNumber":53,"Velocity":31,"Duration":240384,"SoundDuration":240384,"Delta":290847097},{"NoteNumber":42,"Velocity":28,"Duration":240384,"SoundDuration":240384,"Delta":290847097},{"NoteNumber":46,"Velocity":27,"Duration":240384,"SoundDuration":240384,"Delta":290847097},{"NoteNumber":72,"Velocity":67,"Duration":240384,"SoundDuration":240384,"Delta":291167610},{"NoteNumber":60,"Velocity":52,"Duration":240384,"SoundDuration":240384,"Delta":291167610},{"NoteNumber":46,"Velocity":27,"Duration":240384,"SoundDuration":240384,"Delta":291167610},{"NoteNumber":42,"Velocity":28,"Duration":240384,"SoundDuration":240384,"Delta":291167610},{"NoteNumber":51,"Velocity":31,"Duration":240384,"SoundDuration":240384,"Delta":291167610},{"NoteNumber":70,"Velocity":74,"Duration":738339,"SoundDuration":738339,"Delta":291488122},{"NoteNumber":58,"Velocity":57,"Duration":738339,"SoundDuration":738339,"Delta":291488122},{"NoteNumber":41,"Velocity":49,"Duration":325256,"SoundDuration":325256,"Delta":291488122},{"NoteNumber":29,"Velocity":40,"Duration":325256,"SoundDuration":325256,"Delta":291488122},{"NoteNumber":41,"Velocity":29,"Duration":325255,"SoundDuration":325255,"Delta":291813378},{"NoteNumber":49,"Velocity":36,"Duration":325255,"SoundDuration":325255,"Delta":291813378},{"NoteNumber":46,"Velocity":29,"Duration":325255,"SoundDuration":325255,"Delta":291813378},{"NoteNumber":46,"Velocity":29,"Duration":351308,"SoundDuration":351308,"Delta":292138634},{"NoteNumber":48,"Velocity":36,"Duration":351308,"SoundDuration":351308,"Delta":292138634},{"NoteNumber":41,"Velocity":29,"Duration":351308,"SoundDuration":351308,"Delta":292138634},{"NoteNumber":69,"Velocity":63,"Duration":263481,"SoundDuration":263481,"Delta":292226462},{"NoteNumber":57,"Velocity":49,"Duration":263481,"SoundDuration":263481,"Delta":292226462},{"NoteNumber":70,"Velocity":74,"Duration":318218,"SoundDuration":318218,"Delta":292489943},{"NoteNumber":58,"Velocity":57,"Duration":318218,"SoundDuration":318218,"Delta":292489943},{"NoteNumber":41,"Velocity":31,"Duration":318218,"SoundDuration":318218,"Delta":292489943},{"NoteNumber":46,"Velocity":31,"Duration":318218,"SoundDuration":318218,"Delta":292489943},{"NoteNumber":49,"Velocity":38,"Duration":318218,"SoundDuration":318218,"Delta":292489943},{"NoteNumber":73,"Velocity":64,"Duration":318218,"SoundDuration":318218,"Delta":292808161},{"NoteNumber":61,"Velocity":50,"Duration":318218,"SoundDuration":318218,"Delta":292808161},{"NoteNumber":46,"Velocity":34,"Duration":318218,"SoundDuration":318218,"Delta":292808161},{"NoteNumber":51,"Velocity":40,"Duration":318218,"SoundDuration":318218,"Delta":292808161},{"NoteNumber":41,"Velocity":34,"Duration":318218,"SoundDuration":318218,"Delta":292808161},{"NoteNumber":60,"Velocity":50,"Duration":349718,"SoundDuration":349718,"Delta":293126379},{"NoteNumber":72,"Velocity":64,"Duration":349718,"SoundDuration":349718,"Delta":293126379},{"NoteNumber":52,"Velocity":42,"Duration":388576,"SoundDuration":388576,"Delta":293126379},{"NoteNumber":41,"Velocity":36,"Duration":388576,"SoundDuration":388576,"Delta":293126379},{"NoteNumber":46,"Velocity":36,"Duration":388576,"SoundDuration":388576,"Delta":293126379},{"NoteNumber":60,"Velocity":57,"Duration":1442307,"SoundDuration":1442307,"Delta":293514955},{"NoteNumber":72,"Velocity":74,"Duration":1442307,"SoundDuration":1442307,"Delta":293514955},{"NoteNumber":29,"Velocity":44,"Duration":320512,"SoundDuration":320512,"Delta":293514955},{"NoteNumber":41,"Velocity":52,"Duration":320512,"SoundDuration":320512,"Delta":293514955},{"NoteNumber":41,"Velocity":37,"Duration":320512,"SoundDuration":320512,"Delta":293835468},{"NoteNumber":53,"Velocity":44,"Duration":320512,"SoundDuration":320512,"Delta":293835468},{"NoteNumber":45,"Velocity":37,"Duration":320512,"SoundDuration":320512,"Delta":293835468},{"NoteNumber":52,"Velocity":44,"Duration":320512,"SoundDuration":320512,"Delta":294155980},{"NoteNumber":45,"Velocity":37,"Duration":320512,"SoundDuration":320512,"Delta":294155980},{"NoteNumber":41,"Velocity":37,"Duration":320512,"SoundDuration":320512,"Delta":294155980},{"NoteNumber":41,"Velocity":44,"Duration":320512,"SoundDuration":320512,"Delta":294476493},{"NoteNumber":53,"Velocity":51,"Duration":320512,"SoundDuration":320512,"Delta":294476493},{"NoteNumber":45,"Velocity":44,"Duration":320512,"SoundDuration":320512,"Delta":294476493},{"NoteNumber":54,"Velocity":44,"Duration":334229,"SoundDuration":334229,"Delta":294797006},{"NoteNumber":41,"Velocity":37,"Duration":334229,"SoundDuration":334229,"Delta":294797006},{"NoteNumber":45,"Velocity":37,"Duration":334229,"SoundDuration":334229,"Delta":294797006},{"NoteNumber":65,"Velocity":70,"Duration":552546,"SoundDuration":552546,"Delta":294957262},{"NoteNumber":41,"Velocity":37,"Duration":378572,"SoundDuration":378572,"Delta":295131236},{"NoteNumber":53,"Velocity":44,"Duration":378572,"SoundDuration":378572,"Delta":295131236},{"NoteNumber":45,"Velocity":37,"Duration":378572,"SoundDuration":378572,"Delta":295131236},{"NoteNumber":61,"Velocity":67,"Duration":1442307,"SoundDuration":1442307,"Delta":295509808},{"NoteNumber":73,"Velocity":79,"Duration":1442307,"SoundDuration":1442307,"Delta":295509808},{"NoteNumber":65,"Velocity":67,"Duration":1442307,"SoundDuration":1442307,"Delta":295509808},{"NoteNumber":46,"Velocity":50,"Duration":320512,"SoundDuration":320512,"Delta":295509808},{"NoteNumber":34,"Velocity":42,"Duration":320512,"SoundDuration":320512,"Delta":295509808},{"NoteNumber":53,"Velocity":40,"Duration":240384,"SoundDuration":240384,"Delta":295830321},{"NoteNumber":49,"Velocity":35,"Duration":240384,"SoundDuration":240384,"Delta":295830321},{"NoteNumber":46,"Velocity":35,"Duration":240384,"SoundDuration":240384,"Delta":295830321},{"NoteNumber":49,"Velocity":35,"Duration":240384,"SoundDuration":240384,"Delta":296150834},{"NoteNumber":46,"Velocity":35,"Duration":240384,"SoundDuration":240384,"Delta":296150834},{"NoteNumber":52,"Velocity":40,"Duration":240384,"SoundDuration":240384,"Delta":296150834},{"NoteNumber":46,"Velocity":42,"Duration":240384,"SoundDuration":240384,"Delta":296471346},{"NoteNumber":49,"Velocity":42,"Duration":240384,"SoundDuration":240384,"Delta":296471346},{"NoteNumber":53,"Velocity":50,"Duration":240384,"SoundDuration":240384,"Delta":296471346},{"NoteNumber":54,"Velocity":40,"Duration":243298,"SoundDuration":243298,"Delta":296791859},{"NoteNumber":46,"Velocity":35,"Duration":243298,"SoundDuration":243298,"Delta":296791859},{"NoteNumber":49,"Velocity":35,"Duration":243298,"SoundDuration":243298,"Delta":296791859},{"NoteNumber":73,"Velocity":73,"Duration":525991,"SoundDuration":525991,"Delta":296952115},{"NoteNumber":65,"Velocity":62,"Duration":525991,"SoundDuration":525991,"Delta":296952115},{"NoteNumber":61,"Velocity":62,"Duration":525991,"SoundDuration":525991,"Delta":296952115},{"NoteNumber":53,"Velocity":40,"Duration":269929,"SoundDuration":269929,"Delta":297118201},{"NoteNumber":46,"Velocity":35,"Duration":269929,"SoundDuration":269929,"Delta":297118201},{"NoteNumber":49,"Velocity":35,"Duration":269929,"SoundDuration":269929,"Delta":297118201},{"NoteNumber":72,"Velocity":78,"Duration":968679,"SoundDuration":968679,"Delta":297478107},{"NoteNumber":65,"Velocity":66,"Duration":1453018,"SoundDuration":1453018,"Delta":297478107},{"NoteNumber":60,"Velocity":66,"Duration":968679,"SoundDuration":968679,"Delta":297478107},{"NoteNumber":49,"Velocity":50,"Duration":322893,"SoundDuration":322893,"Delta":297478107},{"NoteNumber":37,"Velocity":42,"Duration":322893,"SoundDuration":322893,"Delta":297478107},{"NoteNumber":49,"Velocity":34,"Duration":242169,"SoundDuration":242169,"Delta":297801000},{"NoteNumber":53,"Velocity":39,"Duration":242169,"SoundDuration":242169,"Delta":297801000},{"NoteNumber":52,"Velocity":40,"Duration":242169,"SoundDuration":242169,"Delta":298123893},{"NoteNumber":49,"Velocity":35,"Duration":242169,"SoundDuration":242169,"Delta":298123893},{"NoteNumber":58,"Velocity":55,"Duration":484339,"SoundDuration":484339,"Delta":298446786},{"NoteNumber":70,"Velocity":65,"Duration":484339,"SoundDuration":484339,"Delta":298446786},{"NoteNumber":49,"Velocity":36,"Duration":242169,"SoundDuration":242169,"Delta":298446786},{"NoteNumber":53,"Velocity":44,"Duration":242169,"SoundDuration":242169,"Delta":298446786},{"NoteNumber":49,"Velocity":35,"Duration":245114,"SoundDuration":245114,"Delta":298769679},{"NoteNumber":54,"Velocity":40,"Duration":245114,"SoundDuration":245114,"Delta":298769679},{"NoteNumber":65,"Velocity":60,"Duration":527242,"SoundDuration":527242,"Delta":298931125},{"NoteNumber":70,"Velocity":71,"Duration":527242,"SoundDuration":527242,"Delta":298931125},{"NoteNumber":58,"Velocity":60,"Duration":527242,"SoundDuration":527242,"Delta":298931125},{"NoteNumber":53,"Velocity":40,"Duration":269929,"SoundDuration":269929,"Delta":299098461},{"NoteNumber":49,"Velocity":35,"Duration":269929,"SoundDuration":269929,"Delta":299098461},{"NoteNumber":65,"Velocity":68,"Duration":954654,"SoundDuration":954654,"Delta":299458368},{"NoteNumber":70,"Velocity":75,"Duration":715990,"SoundDuration":715990,"Delta":299458368},{"NoteNumber":58,"Velocity":58,"Duration":715990,"SoundDuration":715990,"Delta":299458368},{"NoteNumber":36,"Velocity":50,"Duration":318218,"SoundDuration":318218,"Delta":299458368},{"NoteNumber":48,"Velocity":35,"Duration":318218,"SoundDuration":318218,"Delta":299776586},{"NoteNumber":51,"Velocity":35,"Duration":318218,"SoundDuration":318218,"Delta":299776586},{"NoteNumber":53,"Velocity":40,"Duration":318218,"SoundDuration":318218,"Delta":299776586},{"NoteNumber":51,"Velocity":40,"Duration":318218,"SoundDuration":318218,"Delta":300094804},{"NoteNumber":48,"Velocity":35,"Duration":318218,"SoundDuration":318218,"Delta":300094804},{"NoteNumber":52,"Velocity":35,"Duration":318218,"SoundDuration":318218,"Delta":300094804},{"NoteNumber":69,"Velocity":71,"Duration":238663,"SoundDuration":238663,"Delta":300174358},{"NoteNumber":57,"Velocity":54,"Duration":238663,"SoundDuration":238663,"Delta":300174358},{"NoteNumber":72,"Velocity":76,"Duration":318218,"SoundDuration":318218,"Delta":300413022},{"NoteNumber":60,"Velocity":58,"Duration":318218,"SoundDuration":318218,"Delta":300413022},{"NoteNumber":48,"Velocity":36,"Duration":318218,"SoundDuration":318218,"Delta":300413022},{"NoteNumber":53,"Velocity":44,"Duration":318218,"SoundDuration":318218,"Delta":300413022},{"NoteNumber":51,"Velocity":36,"Duration":318218,"SoundDuration":318218,"Delta":300413022},{"NoteNumber":63,"Velocity":61,"Duration":318218,"SoundDuration":318218,"Delta":300731240},{"NoteNumber":75,"Velocity":79,"Duration":318218,"SoundDuration":318218,"Delta":300731240},{"NoteNumber":51,"Velocity":48,"Duration":318218,"SoundDuration":318218,"Delta":300731240},{"NoteNumber":48,"Velocity":39,"Duration":318218,"SoundDuration":318218,"Delta":300731240},{"NoteNumber":72,"Velocity":62,"Duration":378572,"SoundDuration":378572,"Delta":301049458},{"NoteNumber":66,"Velocity":62,"Duration":378572,"SoundDuration":378572,"Delta":301049458},{"NoteNumber":78,"Velocity":80,"Duration":378572,"SoundDuration":378572,"Delta":301049458},{"NoteNumber":75,"Velocity":62,"Duration":378572,"SoundDuration":378572,"Delta":301049458},{"NoteNumber":54,"Velocity":50,"Duration":378572,"SoundDuration":378572,"Delta":301049458},{"NoteNumber":48,"Velocity":42,"Duration":378572,"SoundDuration":378572,"Delta":301049458},{"NoteNumber":51,"Velocity":42,"Duration":378572,"SoundDuration":378572,"Delta":301049458},{"NoteNumber":65,"Velocity":65,"Duration":1425168,"SoundDuration":1425168,"Delta":301428030},{"NoteNumber":77,"Velocity":83,"Duration":1425168,"SoundDuration":1425168,"Delta":301428030},{"NoteNumber":75,"Velocity":65,"Duration":1425168,"SoundDuration":1425168,"Delta":301428030},{"NoteNumber":72,"Velocity":65,"Duration":1425168,"SoundDuration":1425168,"Delta":301428030},{"NoteNumber":33,"Velocity":63,"Duration":318218,"SoundDuration":318218,"Delta":301428030},{"NoteNumber":45,"Velocity":40,"Duration":318218,"SoundDuration":318218,"Delta":301746248},{"NoteNumber":53,"Velocity":49,"Duration":318218,"SoundDuration":318218,"Delta":301746248},{"NoteNumber":48,"Velocity":40,"Duration":318218,"SoundDuration":318218,"Delta":301746248},{"NoteNumber":48,"Velocity":40,"Duration":318218,"SoundDuration":318218,"Delta":302064466},{"NoteNumber":45,"Velocity":40,"Duration":318218,"SoundDuration":318218,"Delta":302064466},{"NoteNumber":52,"Velocity":49,"Duration":318218,"SoundDuration":318218,"Delta":302064466},{"NoteNumber":48,"Velocity":44,"Duration":313676,"SoundDuration":313676,"Delta":302382684},{"NoteNumber":53,"Velocity":52,"Duration":313676,"SoundDuration":313676,"Delta":302382684},{"NoteNumber":45,"Velocity":44,"Duration":313676,"SoundDuration":313676,"Delta":302382684},{"NoteNumber":45,"Velocity":34,"Duration":325472,"SoundDuration":325472,"Delta":302696361},{"NoteNumber":54,"Velocity":39,"Duration":325472,"SoundDuration":325472,"Delta":302696361},{"NoteNumber":48,"Velocity":34,"Duration":325472,"SoundDuration":325472,"Delta":302696361},{"NoteNumber":63,"Velocity":52,"Duration":528540,"SoundDuration":528540,"Delta":302853199},{"NoteNumber":75,"Velocity":68,"Duration":528540,"SoundDuration":528540,"Delta":302853199},{"NoteNumber":45,"Velocity":28,"Duration":359906,"SoundDuration":359906,"Delta":303021833},{"NoteNumber":53,"Velocity":33,"Duration":359906,"SoundDuration":359906,"Delta":303021833},{"NoteNumber":48,"Velocity":28,"Duration":359906,"SoundDuration":359906,"Delta":303021833},{"NoteNumber":63,"Velocity":60,"Duration":726509,"SoundDuration":726509,"Delta":303381739},{"NoteNumber":75,"Velocity":78,"Duration":726509,"SoundDuration":726509,"Delta":303381739},{"NoteNumber":34,"Velocity":42,"Duration":322893,"SoundDuration":322893,"Delta":303381739},{"NoteNumber":46,"Velocity":29,"Duration":322892,"SoundDuration":322892,"Delta":303704632},{"NoteNumber":53,"Velocity":34,"Duration":322892,"SoundDuration":322892,"Delta":303704632},{"NoteNumber":49,"Velocity":29,"Duration":322892,"SoundDuration":322892,"Delta":303704632},{"NoteNumber":52,"Velocity":34,"Duration":322893,"SoundDuration":322893,"Delta":304027525},{"NoteNumber":46,"Velocity":29,"Duration":322893,"SoundDuration":322893,"Delta":304027525},{"NoteNumber":49,"Velocity":29,"Duration":322893,"SoundDuration":322893,"Delta":304027525},{"NoteNumber":61,"Velocity":51,"Duration":242169,"SoundDuration":242169,"Delta":304108248},{"NoteNumber":73,"Velocity":67,"Duration":242169,"SoundDuration":242169,"Delta":304108248},{"NoteNumber":58,"Velocity":56,"Duration":242169,"SoundDuration":242169,"Delta":304350418},{"NoteNumber":70,"Velocity":72,"Duration":242169,"SoundDuration":242169,"Delta":304350418},{"NoteNumber":53,"Velocity":42,"Duration":242169,"SoundDuration":242169,"Delta":304350418},{"NoteNumber":49,"Velocity":36,"Duration":242169,"SoundDuration":242169,"Delta":304350418},{"NoteNumber":46,"Velocity":36,"Duration":242169,"SoundDuration":242169,"Delta":304350418},{"NoteNumber":72,"Velocity":69,"Duration":242169,"SoundDuration":242169,"Delta":304673311},{"NoteNumber":60,"Velocity":54,"Duration":242169,"SoundDuration":242169,"Delta":304673311},{"NoteNumber":49,"Velocity":29,"Duration":242169,"SoundDuration":242169,"Delta":304673311},{"NoteNumber":54,"Velocity":34,"Duration":242169,"SoundDuration":242169,"Delta":304673311},{"NoteNumber":46,"Velocity":29,"Duration":242169,"SoundDuration":242169,"Delta":304673311},{"NoteNumber":61,"Velocity":54,"Duration":281478,"SoundDuration":281478,"Delta":304996204},{"NoteNumber":73,"Velocity":69,"Duration":281478,"SoundDuration":281478,"Delta":304996204},{"NoteNumber":49,"Velocity":29,"Duration":281478,"SoundDuration":281478,"Delta":304996204},{"NoteNumber":53,"Velocity":34,"Duration":281478,"SoundDuration":281478,"Delta":304996204},{"NoteNumber":46,"Velocity":29,"Duration":281478,"SoundDuration":281478,"Delta":304996204},{"NoteNumber":60,"Velocity":59,"Duration":721153,"SoundDuration":721153,"Delta":305371509},{"NoteNumber":72,"Velocity":76,"Duration":721153,"SoundDuration":721153,"Delta":305371509},{"NoteNumber":40,"Velocity":42,"Duration":320512,"SoundDuration":320512,"Delta":305371509},{"NoteNumber":55,"Velocity":33,"Duration":320512,"SoundDuration":320512,"Delta":305692022},{"NoteNumber":48,"Velocity":28,"Duration":320512,"SoundDuration":320512,"Delta":305692022},{"NoteNumber":46,"Velocity":28,"Duration":320512,"SoundDuration":320512,"Delta":305692022},{"NoteNumber":55,"Velocity":28,"Duration":320512,"SoundDuration":320512,"Delta":306012535},{"NoteNumber":46,"Velocity":25,"Duration":320512,"SoundDuration":320512,"Delta":306012535},{"NoteNumber":49,"Velocity":25,"Duration":320512,"SoundDuration":320512,"Delta":306012535},{"NoteNumber":58,"Velocity":45,"Duration":240384,"SoundDuration":240384,"Delta":306092663},{"NoteNumber":70,"Velocity":57,"Duration":240384,"SoundDuration":240384,"Delta":306092663},{"NoteNumber":61,"Velocity":51,"Duration":247606,"SoundDuration":247606,"Delta":306333047},{"NoteNumber":73,"Velocity":65,"Duration":247606,"SoundDuration":247606,"Delta":306333047},{"NoteNumber":55,"Velocity":30,"Duration":247606,"SoundDuration":247606,"Delta":306333047},{"NoteNumber":46,"Velocity":26,"Duration":247606,"SoundDuration":247606,"Delta":306333047},{"NoteNumber":60,"Velocity":44,"Duration":247606,"SoundDuration":247606,"Delta":306663189},{"NoteNumber":72,"Velocity":56,"Duration":247606,"SoundDuration":247606,"Delta":306663189},{"NoteNumber":48,"Velocity":25,"Duration":247606,"SoundDuration":247606,"Delta":306663189},{"NoteNumber":46,"Velocity":25,"Duration":247606,"SoundDuration":247606,"Delta":306663189},{"NoteNumber":55,"Velocity":28,"Duration":247606,"SoundDuration":247606,"Delta":306663189},{"NoteNumber":58,"Velocity":44,"Duration":291431,"SoundDuration":291431,"Delta":306993331},{"NoteNumber":70,"Velocity":56,"Duration":291431,"SoundDuration":291431,"Delta":306993331},{"NoteNumber":49,"Velocity":25,"Duration":291431,"SoundDuration":291431,"Delta":306993331},{"NoteNumber":55,"Velocity":28,"Duration":291431,"SoundDuration":291431,"Delta":306993331},{"NoteNumber":46,"Velocity":25,"Duration":291431,"SoundDuration":291431,"Delta":306993331},{"NoteNumber":54,"Velocity":48,"Duration":765109,"SoundDuration":765109,"Delta":307381907},{"NoteNumber":66,"Velocity":62,"Duration":765109,"SoundDuration":765109,"Delta":307381907},{"NoteNumber":41,"Velocity":41,"Duration":335233,"SoundDuration":335233,"Delta":307381907},{"NoteNumber":46,"Velocity":24,"Duration":335233,"SoundDuration":335233,"Delta":307717140},{"NoteNumber":49,"Velocity":30,"Duration":335233,"SoundDuration":335233,"Delta":307717140},{"NoteNumber":46,"Velocity":22,"Duration":378572,"SoundDuration":378572,"Delta":308052373},{"NoteNumber":49,"Velocity":28,"Duration":378572,"SoundDuration":378572,"Delta":308052373},{"NoteNumber":53,"Velocity":38,"Duration":283929,"SoundDuration":283929,"Delta":308147016},{"NoteNumber":65,"Velocity":50,"Duration":283929,"SoundDuration":283929,"Delta":308147016},{"NoteNumber":53,"Velocity":45,"Duration":253335,"SoundDuration":253335,"Delta":308430946},{"NoteNumber":65,"Velocity":58,"Duration":253335,"SoundDuration":253335,"Delta":308430946},{"NoteNumber":41,"Velocity":28,"Duration":253335,"SoundDuration":253335,"Delta":308430946},{"NoteNumber":54,"Velocity":39,"Duration":253335,"SoundDuration":253335,"Delta":308768727},{"NoteNumber":66,"Velocity":50,"Duration":253335,"SoundDuration":253335,"Delta":308768727},{"NoteNumber":48,"Velocity":24,"Duration":253335,"SoundDuration":253335,"Delta":308768727},{"NoteNumber":45,"Velocity":24,"Duration":253335,"SoundDuration":253335,"Delta":308768727},{"NoteNumber":53,"Velocity":38,"Duration":304939,"SoundDuration":304939,"Delta":309106507},{"NoteNumber":65,"Velocity":49,"Duration":304939,"SoundDuration":304939,"Delta":309106507},{"NoteNumber":48,"Velocity":24,"Duration":304939,"SoundDuration":304939,"Delta":309106507},{"NoteNumber":45,"Velocity":24,"Duration":304939,"SoundDuration":304939,"Delta":309106507},{"NoteNumber":58,"Velocity":55,"Duration":1598274,"SoundDuration":1598274,"Delta":309513094},{"NoteNumber":34,"Velocity":31,"Duration":357015,"SoundDuration":357015,"Delta":309513094},{"NoteNumber":46,"Velocity":18,"Duration":357015,"SoundDuration":357015,"Delta":309870109},{"NoteNumber":53,"Velocity":23,"Duration":357015,"SoundDuration":357015,"Delta":309870109},{"NoteNumber":49,"Velocity":18,"Duration":357015,"SoundDuration":357015,"Delta":309870109},{"NoteNumber":46,"Velocity":22,"Duration":357015,"SoundDuration":357015,"Delta":310227125},{"NoteNumber":48,"Velocity":22,"Duration":357015,"SoundDuration":357015,"Delta":310227125},{"NoteNumber":51,"Velocity":26,"Duration":357015,"SoundDuration":357015,"Delta":310227125},{"NoteNumber":46,"Velocity":30,"Duration":1035221,"SoundDuration":1035221,"Delta":310584140},{"NoteNumber":49,"Velocity":36,"Duration":1035221,"SoundDuration":1035221,"Delta":310584140},{"NoteNumber":77,"Velocity":50,"Duration":507993,"SoundDuration":507993,"Delta":311111368},{"NoteNumber":85,"Velocity":60,"Duration":1485638,"SoundDuration":1485638,"Delta":311619362},{"NoteNumber":77,"Velocity":46,"Duration":1485638,"SoundDuration":1485638,"Delta":311619362},{"NoteNumber":73,"Velocity":46,"Duration":1485638,"SoundDuration":1485638,"Delta":311619362},{"NoteNumber":58,"Velocity":36,"Duration":330142,"SoundDuration":330142,"Delta":311619362},{"NoteNumber":46,"Velocity":30,"Duration":330142,"SoundDuration":330142,"Delta":311619362},{"NoteNumber":61,"Velocity":25,"Duration":247606,"SoundDuration":247606,"Delta":311949504},{"NoteNumber":58,"Velocity":25,"Duration":247606,"SoundDuration":247606,"Delta":311949504},{"NoteNumber":65,"Velocity":29,"Duration":247606,"SoundDuration":247606,"Delta":311949504},{"NoteNumber":64,"Velocity":29,"Duration":247606,"SoundDuration":247606,"Delta":312279646},{"NoteNumber":58,"Velocity":25,"Duration":247606,"SoundDuration":247606,"Delta":312279646},{"NoteNumber":61,"Velocity":25,"Duration":247606,"SoundDuration":247606,"Delta":312279646},{"NoteNumber":65,"Velocity":36,"Duration":247606,"SoundDuration":247606,"Delta":312609788},{"NoteNumber":61,"Velocity":30,"Duration":247606,"SoundDuration":247606,"Delta":312609788},{"NoteNumber":58,"Velocity":30,"Duration":247606,"SoundDuration":247606,"Delta":312609788},{"NoteNumber":61,"Velocity":25,"Duration":248113,"SoundDuration":248113,"Delta":312939930},{"NoteNumber":66,"Velocity":29,"Duration":248113,"SoundDuration":248113,"Delta":312939930},{"NoteNumber":58,"Velocity":25,"Duration":248113,"SoundDuration":248113,"Delta":312939930},{"NoteNumber":77,"Velocity":41,"Duration":528996,"SoundDuration":528996,"Delta":313105001},{"NoteNumber":73,"Velocity":41,"Duration":528996,"SoundDuration":528996,"Delta":313105001},{"NoteNumber":85,"Velocity":56,"Duration":528996,"SoundDuration":528996,"Delta":313105001},{"NoteNumber":61,"Velocity":25,"Duration":272182,"SoundDuration":272182,"Delta":313271086},{"NoteNumber":65,"Velocity":29,"Duration":272182,"SoundDuration":272182,"Delta":313271086},{"NoteNumber":58,"Velocity":25,"Duration":272182,"SoundDuration":272182,"Delta":313271086},{"NoteNumber":72,"Velocity":46,"Duration":975768,"SoundDuration":975768,"Delta":313633997},{"NoteNumber":77,"Velocity":46,"Duration":1463652,"SoundDuration":1463652,"Delta":313633997},{"NoteNumber":84,"Velocity":60,"Duration":975768,"SoundDuration":975768,"Delta":313633997},{"NoteNumber":49,"Velocity":36,"Duration":325256,"SoundDuration":325256,"Delta":313633997},{"NoteNumber":65,"Velocity":28,"Duration":243941,"SoundDuration":243941,"Delta":313959253},{"NoteNumber":61,"Velocity":24,"Duration":243941,"SoundDuration":243941,"Delta":313959253},{"NoteNumber":61,"Velocity":25,"Duration":243942,"SoundDuration":243942,"Delta":314284509},{"NoteNumber":64,"Velocity":29,"Duration":243942,"SoundDuration":243942,"Delta":314284509},{"NoteNumber":70,"Velocity":36,"Duration":487884,"SoundDuration":487884,"Delta":314609765},{"NoteNumber":82,"Velocity":48,"Duration":487884,"SoundDuration":487884,"Delta":314609765},{"NoteNumber":61,"Velocity":26,"Duration":243942,"SoundDuration":243942,"Delta":314609765},{"NoteNumber":65,"Velocity":31,"Duration":243942,"SoundDuration":243942,"Delta":314609765},{"NoteNumber":61,"Velocity":25,"Duration":246296,"SoundDuration":246296,"Delta":314935021},{"NoteNumber":66,"Velocity":29,"Duration":246296,"SoundDuration":246296,"Delta":314935021},{"NoteNumber":82,"Velocity":52,"Duration":533301,"SoundDuration":533301,"Delta":315097649},{"NoteNumber":70,"Velocity":40,"Duration":533301,"SoundDuration":533301,"Delta":315097649},{"NoteNumber":77,"Velocity":40,"Duration":533301,"SoundDuration":533301,"Delta":315097649},{"NoteNumber":61,"Velocity":25,"Duration":274473,"SoundDuration":274473,"Delta":315264985},{"NoteNumber":65,"Velocity":29,"Duration":274473,"SoundDuration":274473,"Delta":315264985},{"NoteNumber":77,"Velocity":58,"Duration":975768,"SoundDuration":975768,"Delta":315630950},{"NoteNumber":70,"Velocity":49,"Duration":731826,"SoundDuration":731826,"Delta":315630950},{"NoteNumber":82,"Velocity":63,"Duration":731826,"SoundDuration":731826,"Delta":315630950},{"NoteNumber":48,"Velocity":36,"Duration":325256,"SoundDuration":325256,"Delta":315630950},{"NoteNumber":63,"Velocity":25,"Duration":325255,"SoundDuration":325255,"Delta":315956206},{"NoteNumber":65,"Velocity":29,"Duration":325255,"SoundDuration":325255,"Delta":315956206},{"NoteNumber":60,"Velocity":25,"Duration":325255,"SoundDuration":325255,"Delta":315956206},{"NoteNumber":64,"Velocity":25,"Duration":325256,"SoundDuration":325256,"Delta":316281462},{"NoteNumber":60,"Velocity":25,"Duration":325256,"SoundDuration":325256,"Delta":316281462},{"NoteNumber":63,"Velocity":29,"Duration":325256,"SoundDuration":325256,"Delta":316281462},{"NoteNumber":69,"Velocity":46,"Duration":243942,"SoundDuration":243942,"Delta":316362776},{"NoteNumber":81,"Velocity":60,"Duration":243942,"SoundDuration":243942,"Delta":316362776},{"NoteNumber":72,"Velocity":49,"Duration":325255,"SoundDuration":325255,"Delta":316606718},{"NoteNumber":84,"Velocity":64,"Duration":325255,"SoundDuration":325255,"Delta":316606718},{"NoteNumber":60,"Velocity":26,"Duration":325255,"SoundDuration":325255,"Delta":316606718},{"NoteNumber":63,"Velocity":26,"Duration":325255,"SoundDuration":325255,"Delta":316606718},{"NoteNumber":65,"Velocity":31,"Duration":325255,"SoundDuration":325255,"Delta":316606718},{"NoteNumber":87,"Velocity":67,"Duration":325256,"SoundDuration":325256,"Delta":316931974},{"NoteNumber":75,"Velocity":51,"Duration":325256,"SoundDuration":325256,"Delta":316931974},{"NoteNumber":60,"Velocity":28,"Duration":325256,"SoundDuration":325256,"Delta":316931974},{"NoteNumber":63,"Velocity":34,"Duration":325256,"SoundDuration":325256,"Delta":316931974},{"NoteNumber":87,"Velocity":52,"Duration":385207,"SoundDuration":385207,"Delta":317257230},{"NoteNumber":84,"Velocity":52,"Duration":385207,"SoundDuration":385207,"Delta":317257230},{"NoteNumber":90,"Velocity":68,"Duration":385207,"SoundDuration":385207,"Delta":317257230},{"NoteNumber":78,"Velocity":52,"Duration":385207,"SoundDuration":385207,"Delta":317257230},{"NoteNumber":60,"Velocity":30,"Duration":385207,"SoundDuration":385207,"Delta":317257230},{"NoteNumber":63,"Velocity":30,"Duration":385207,"SoundDuration":385207,"Delta":317257230},{"NoteNumber":66,"Velocity":36,"Duration":385207,"SoundDuration":385207,"Delta":317257230},{"NoteNumber":84,"Velocity":55,"Duration":1446282,"SoundDuration":1446282,"Delta":317642438},{"NoteNumber":77,"Velocity":55,"Duration":1446282,"SoundDuration":1446282,"Delta":317642438},{"NoteNumber":89,"Velocity":70,"Duration":1446282,"SoundDuration":1446282,"Delta":317642438},{"NoteNumber":87,"Velocity":55,"Duration":1446282,"SoundDuration":1446282,"Delta":317642438},{"NoteNumber":45,"Velocity":45,"Duration":325256,"SoundDuration":325256,"Delta":317642438},{"NoteNumber":65,"Velocity":35,"Duration":325255,"SoundDuration":325255,"Delta":317967694},{"NoteNumber":60,"Velocity":29,"Duration":325255,"SoundDuration":325255,"Delta":317967694},{"NoteNumber":57,"Velocity":29,"Duration":325255,"SoundDuration":325255,"Delta":317967694},{"NoteNumber":60,"Velocity":29,"Duration":325256,"SoundDuration":325256,"Delta":318292950},{"NoteNumber":64,"Velocity":35,"Duration":325256,"SoundDuration":325256,"Delta":318292950},{"NoteNumber":57,"Velocity":29,"Duration":325256,"SoundDuration":325256,"Delta":318292950},{"NoteNumber":60,"Velocity":34,"Duration":313676,"SoundDuration":313676,"Delta":318618206},{"NoteNumber":65,"Velocity":40,"Duration":313676,"SoundDuration":313676,"Delta":318618206},{"NoteNumber":57,"Velocity":34,"Duration":313676,"SoundDuration":313676,"Delta":318618206},{"NoteNumber":57,"Velocity":26,"Duration":325472,"SoundDuration":325472,"Delta":318931882},{"NoteNumber":66,"Velocity":30,"Duration":325472,"SoundDuration":325472,"Delta":318931882},{"NoteNumber":60,"Velocity":26,"Duration":325472,"SoundDuration":325472,"Delta":318931882},{"NoteNumber":75,"Velocity":54,"Duration":543938,"SoundDuration":543938,"Delta":319088720},{"NoteNumber":87,"Velocity":71,"Duration":543938,"SoundDuration":543938,"Delta":319088720},{"NoteNumber":57,"Velocity":26,"Duration":375304,"SoundDuration":375304,"Delta":319257354},{"NoteNumber":65,"Velocity":30,"Duration":375304,"SoundDuration":375304,"Delta":319257354},{"NoteNumber":60,"Velocity":26,"Duration":375304,"SoundDuration":375304,"Delta":319257354},{"NoteNumber":75,"Velocity":63,"Duration":726509,"SoundDuration":726509,"Delta":319632659},{"NoteNumber":87,"Velocity":81,"Duration":726509,"SoundDuration":726509,"Delta":319632659},{"NoteNumber":46,"Velocity":40,"Duration":322893,"SoundDuration":322893,"Delta":319632659},{"NoteNumber":65,"Velocity":33,"Duration":322892,"SoundDuration":322892,"Delta":319955552},{"NoteNumber":58,"Velocity":28,"Duration":322892,"SoundDuration":322892,"Delta":319955552},{"NoteNumber":61,"Velocity":28,"Duration":322892,"SoundDuration":322892,"Delta":319955552},{"NoteNumber":58,"Velocity":28,"Duration":322893,"SoundDuration":322893,"Delta":320278445},{"NoteNumber":61,"Velocity":28,"Duration":322893,"SoundDuration":322893,"Delta":320278445},{"NoteNumber":64,"Velocity":33,"Duration":322893,"SoundDuration":322893,"Delta":320278445},{"NoteNumber":73,"Velocity":56,"Duration":242169,"SoundDuration":242169,"Delta":320359169},{"NoteNumber":85,"Velocity":73,"Duration":242169,"SoundDuration":242169,"Delta":320359169},{"NoteNumber":70,"Velocity":61,"Duration":242169,"SoundDuration":242169,"Delta":320601338},{"NoteNumber":82,"Velocity":79,"Duration":242169,"SoundDuration":242169,"Delta":320601338},{"NoteNumber":58,"Velocity":34,"Duration":242169,"SoundDuration":242169,"Delta":320601338},{"NoteNumber":65,"Velocity":40,"Duration":242169,"SoundDuration":242169,"Delta":320601338},{"NoteNumber":61,"Velocity":34,"Duration":242169,"SoundDuration":242169,"Delta":320601338},{"NoteNumber":72,"Velocity":59,"Duration":242169,"SoundDuration":242169,"Delta":320924231},{"NoteNumber":84,"Velocity":75,"Duration":242169,"SoundDuration":242169,"Delta":320924231},{"NoteNumber":66,"Velocity":33,"Duration":242169,"SoundDuration":242169,"Delta":320924231},{"NoteNumber":61,"Velocity":28,"Duration":242169,"SoundDuration":242169,"Delta":320924231},{"NoteNumber":58,"Velocity":28,"Duration":242169,"SoundDuration":242169,"Delta":320924231},{"NoteNumber":73,"Velocity":59,"Duration":183787,"SoundDuration":183787,"Delta":321247124},{"NoteNumber":85,"Velocity":75,"Duration":183787,"SoundDuration":183787,"Delta":321247124},{"NoteNumber":61,"Velocity":28,"Duration":294060,"SoundDuration":294060,"Delta":321247124},{"NoteNumber":65,"Velocity":33,"Duration":294060,"SoundDuration":294060,"Delta":321247124},{"NoteNumber":58,"Velocity":28,"Duration":294060,"SoundDuration":294060,"Delta":321247124},{"NoteNumber":85,"Velocity":62,"Duration":147029,"SoundDuration":147029,"Delta":321492174},{"NoteNumber":77,"Velocity":68,"Duration":731826,"SoundDuration":731826,"Delta":321639204},{"NoteNumber":89,"Velocity":88,"Duration":731826,"SoundDuration":731826,"Delta":321639204},{"NoteNumber":42,"Velocity":40,"Duration":325256,"SoundDuration":325256,"Delta":321639204},{"NoteNumber":54,"Velocity":27,"Duration":325255,"SoundDuration":325255,"Delta":321964460},{"NoteNumber":63,"Velocity":31,"Duration":325255,"SoundDuration":325255,"Delta":321964460},{"NoteNumber":58,"Velocity":27,"Duration":325255,"SoundDuration":325255,"Delta":321964460},{"NoteNumber":57,"Velocity":28,"Duration":325256,"SoundDuration":325256,"Delta":322289716},{"NoteNumber":54,"Velocity":28,"Duration":325256,"SoundDuration":325256,"Delta":322289716},{"NoteNumber":63,"Velocity":33,"Duration":325256,"SoundDuration":325256,"Delta":322289716},{"NoteNumber":75,"Velocity":58,"Duration":243942,"SoundDuration":243942,"Delta":322371030},{"NoteNumber":87,"Velocity":74,"Duration":243942,"SoundDuration":243942,"Delta":322371030},{"NoteNumber":87,"Velocity":84,"Duration":243942,"SoundDuration":243942,"Delta":322614972},{"NoteNumber":75,"Velocity":66,"Duration":243942,"SoundDuration":243942,"Delta":322614972},{"NoteNumber":63,"Velocity":35,"Duration":243942,"SoundDuration":243942,"Delta":322614972},{"NoteNumber":58,"Velocity":29,"Duration":243942,"SoundDuration":243942,"Delta":322614972},{"NoteNumber":54,"Velocity":29,"Duration":243942,"SoundDuration":243942,"Delta":322614972},{"NoteNumber":73,"Velocity":57,"Duration":243942,"SoundDuration":243942,"Delta":322940228},{"NoteNumber":85,"Velocity":73,"Duration":243942,"SoundDuration":243942,"Delta":322940228},{"NoteNumber":58,"Velocity":28,"Duration":243942,"SoundDuration":243942,"Delta":322940228},{"NoteNumber":65,"Velocity":33,"Duration":243942,"SoundDuration":243942,"Delta":322940228},{"NoteNumber":54,"Velocity":29,"Duration":243942,"SoundDuration":243942,"Delta":322940228},{"NoteNumber":72,"Velocity":57,"Duration":243942,"SoundDuration":243942,"Delta":323265484},{"NoteNumber":84,"Velocity":73,"Duration":243942,"SoundDuration":243942,"Delta":323265484},{"NoteNumber":63,"Velocity":33,"Duration":243942,"SoundDuration":243942,"Delta":323265484},{"NoteNumber":58,"Velocity":28,"Duration":243942,"SoundDuration":243942,"Delta":323265484},{"NoteNumber":54,"Velocity":29,"Duration":243942,"SoundDuration":243942,"Delta":323265484},{"NoteNumber":70,"Velocity":62,"Duration":756063,"SoundDuration":756063,"Delta":323590740},{"NoteNumber":82,"Velocity":81,"Duration":756063,"SoundDuration":756063,"Delta":323590740},{"NoteNumber":53,"Velocity":51,"Duration":332668,"SoundDuration":332668,"Delta":323590740},{"NoteNumber":41,"Velocity":41,"Duration":332668,"SoundDuration":332668,"Delta":323590740},{"NoteNumber":58,"Velocity":30,"Duration":332668,"SoundDuration":332668,"Delta":323923408},{"NoteNumber":53,"Velocity":30,"Duration":332668,"SoundDuration":332668,"Delta":323923408},{"NoteNumber":61,"Velocity":37,"Duration":332668,"SoundDuration":332668,"Delta":323923408},{"NoteNumber":58,"Velocity":30,"Duration":362910,"SoundDuration":362910,"Delta":324256076},{"NoteNumber":53,"Velocity":30,"Duration":362910,"SoundDuration":362910,"Delta":324256076},{"NoteNumber":60,"Velocity":37,"Duration":362910,"SoundDuration":362910,"Delta":324256076},{"NoteNumber":69,"Velocity":53,"Duration":272182,"SoundDuration":272182,"Delta":324346804},{"NoteNumber":81,"Velocity":69,"Duration":272182,"SoundDuration":272182,"Delta":324346804},{"NoteNumber":82,"Velocity":81,"Duration":325256,"SoundDuration":325256,"Delta":324618987},{"NoteNumber":70,"Velocity":62,"Duration":325256,"SoundDuration":325256,"Delta":324618987},{"NoteNumber":61,"Velocity":39,"Duration":325256,"SoundDuration":325256,"Delta":324618987},{"NoteNumber":53,"Velocity":33,"Duration":325256,"SoundDuration":325256,"Delta":324618987},{"NoteNumber":58,"Velocity":33,"Duration":325256,"SoundDuration":325256,"Delta":324618987},{"NoteNumber":85,"Velocity":70,"Duration":325255,"SoundDuration":325255,"Delta":324944243},{"NoteNumber":73,"Velocity":55,"Duration":325255,"SoundDuration":325255,"Delta":324944243},{"NoteNumber":53,"Velocity":35,"Duration":325255,"SoundDuration":325255,"Delta":324944243},{"NoteNumber":58,"Velocity":35,"Duration":325255,"SoundDuration":325255,"Delta":324944243},{"NoteNumber":63,"Velocity":41,"Duration":325255,"SoundDuration":325255,"Delta":324944243},{"NoteNumber":84,"Velocity":70,"Duration":395569,"SoundDuration":395569,"Delta":325269499},{"NoteNumber":72,"Velocity":55,"Duration":395569,"SoundDuration":395569,"Delta":325269499},{"NoteNumber":53,"Velocity":34,"Duration":395569,"SoundDuration":395569,"Delta":325269499},{"NoteNumber":64,"Velocity":40,"Duration":395569,"SoundDuration":395569,"Delta":325269499},{"NoteNumber":58,"Velocity":34,"Duration":395569,"SoundDuration":395569,"Delta":325269499},{"NoteNumber":84,"Velocity":81,"Duration":1453018,"SoundDuration":1453018,"Delta":325665069},{"NoteNumber":72,"Velocity":62,"Duration":1453018,"SoundDuration":1453018,"Delta":325665069},{"NoteNumber":53,"Velocity":50,"Duration":322893,"SoundDuration":322893,"Delta":325665069},{"NoteNumber":41,"Velocity":42,"Duration":322893,"SoundDuration":322893,"Delta":325665069},{"NoteNumber":53,"Velocity":35,"Duration":322892,"SoundDuration":322892,"Delta":325987962},{"NoteNumber":65,"Velocity":42,"Duration":322892,"SoundDuration":322892,"Delta":325987962},{"NoteNumber":57,"Velocity":35,"Duration":322892,"SoundDuration":322892,"Delta":325987962},{"NoteNumber":57,"Velocity":35,"Duration":322893,"SoundDuration":322893,"Delta":326310855},{"NoteNumber":64,"Velocity":42,"Duration":322893,"SoundDuration":322893,"Delta":326310855},{"NoteNumber":53,"Velocity":35,"Duration":322893,"SoundDuration":322893,"Delta":326310855},{"NoteNumber":57,"Velocity":42,"Duration":322892,"SoundDuration":322892,"Delta":326633748},{"NoteNumber":53,"Velocity":42,"Duration":322892,"SoundDuration":322892,"Delta":326633748},{"NoteNumber":65,"Velocity":49,"Duration":322892,"SoundDuration":322892,"Delta":326633748},{"NoteNumber":53,"Velocity":35,"Duration":335420,"SoundDuration":335420,"Delta":326956641},{"NoteNumber":57,"Velocity":35,"Duration":335420,"SoundDuration":335420,"Delta":326956641},{"NoteNumber":66,"Velocity":42,"Duration":335420,"SoundDuration":335420,"Delta":326956641},{"NoteNumber":77,"Velocity":77,"Duration":555798,"SoundDuration":555798,"Delta":327118087},{"NoteNumber":65,"Velocity":42,"Duration":381824,"SoundDuration":381824,"Delta":327292061},{"NoteNumber":53,"Velocity":35,"Duration":381824,"SoundDuration":381824,"Delta":327292061},{"NoteNumber":57,"Velocity":35,"Duration":381824,"SoundDuration":381824,"Delta":327292061},{"NoteNumber":77,"Velocity":73,"Duration":1453018,"SoundDuration":1453018,"Delta":327673886},{"NoteNumber":85,"Velocity":86,"Duration":1453018,"SoundDuration":1453018,"Delta":327673886},{"NoteNumber":73,"Velocity":73,"Duration":1453018,"SoundDuration":1453018,"Delta":327673886},{"NoteNumber":46,"Velocity":40,"Duration":322893,"SoundDuration":322893,"Delta":327673886},{"NoteNumber":58,"Velocity":48,"Duration":322893,"SoundDuration":322893,"Delta":327673886},{"NoteNumber":58,"Velocity":33,"Duration":322892,"SoundDuration":322892,"Delta":327996779},{"NoteNumber":61,"Velocity":33,"Duration":322892,"SoundDuration":322892,"Delta":327996779},{"NoteNumber":65,"Velocity":38,"Duration":322892,"SoundDuration":322892,"Delta":327996779},{"NoteNumber":61,"Velocity":33,"Duration":322893,"SoundDuration":322893,"Delta":328319672},{"NoteNumber":64,"Velocity":38,"Duration":322893,"SoundDuration":322893,"Delta":328319672},{"NoteNumber":58,"Velocity":33,"Duration":322893,"SoundDuration":322893,"Delta":328319672},{"NoteNumber":65,"Velocity":48,"Duration":322892,"SoundDuration":322892,"Delta":328642565},{"NoteNumber":61,"Velocity":40,"Duration":322892,"SoundDuration":322892,"Delta":328642565},{"NoteNumber":58,"Velocity":40,"Duration":322892,"SoundDuration":322892,"Delta":328642565},{"NoteNumber":58,"Velocity":33,"Duration":327531,"SoundDuration":327531,"Delta":328965458},{"NoteNumber":61,"Velocity":33,"Duration":327531,"SoundDuration":327531,"Delta":328965458},{"NoteNumber":66,"Velocity":38,"Duration":327531,"SoundDuration":327531,"Delta":328965458},{"NoteNumber":73,"Velocity":68,"Duration":528996,"SoundDuration":528996,"Delta":329126904},{"NoteNumber":85,"Velocity":80,"Duration":528996,"SoundDuration":528996,"Delta":329126904},{"NoteNumber":77,"Velocity":68,"Duration":528996,"SoundDuration":528996,"Delta":329126904},{"NoteNumber":58,"Velocity":33,"Duration":362910,"SoundDuration":362910,"Delta":329292990},{"NoteNumber":65,"Velocity":38,"Duration":362910,"SoundDuration":362910,"Delta":329292990},{"NoteNumber":61,"Velocity":33,"Duration":362910,"SoundDuration":362910,"Delta":329292990},{"NoteNumber":77,"Velocity":72,"Duration":1463652,"SoundDuration":1463652,"Delta":329655900},{"NoteNumber":72,"Velocity":72,"Duration":975768,"SoundDuration":975768,"Delta":329655900},{"NoteNumber":84,"Velocity":85,"Duration":975768,"SoundDuration":975768,"Delta":329655900},{"NoteNumber":49,"Velocity":40,"Duration":325256,"SoundDuration":325256,"Delta":329655900},{"NoteNumber":61,"Velocity":48,"Duration":325256,"SoundDuration":325256,"Delta":329655900},{"NoteNumber":65,"Velocity":37,"Duration":325255,"SoundDuration":325255,"Delta":329981156},{"NoteNumber":61,"Velocity":32,"Duration":325255,"SoundDuration":325255,"Delta":329981156},{"NoteNumber":61,"Velocity":33,"Duration":325256,"SoundDuration":325256,"Delta":330306412},{"NoteNumber":64,"Velocity":38,"Duration":325256,"SoundDuration":325256,"Delta":330306412},{"NoteNumber":70,"Velocity":60,"Duration":487884,"SoundDuration":487884,"Delta":330631668},{"NoteNumber":82,"Velocity":71,"Duration":487884,"SoundDuration":487884,"Delta":330631668},{"NoteNumber":65,"Velocity":42,"Duration":325255,"SoundDuration":325255,"Delta":330631668},{"NoteNumber":61,"Velocity":34,"Duration":325255,"SoundDuration":325255,"Delta":330631668},{"NoteNumber":66,"Velocity":38,"Duration":329964,"SoundDuration":329964,"Delta":330956924},{"NoteNumber":61,"Velocity":33,"Duration":329964,"SoundDuration":329964,"Delta":330956924},{"NoteNumber":82,"Velocity":78,"Duration":530246,"SoundDuration":530246,"Delta":331119552},{"NoteNumber":77,"Velocity":66,"Duration":530246,"SoundDuration":530246,"Delta":331119552},{"NoteNumber":70,"Velocity":66,"Duration":530246,"SoundDuration":530246,"Delta":331119552},{"NoteNumber":61,"Velocity":33,"Duration":362910,"SoundDuration":362910,"Delta":331286888},{"NoteNumber":65,"Velocity":38,"Duration":362910,"SoundDuration":362910,"Delta":331286888},{"NoteNumber":82,"Velocity":82,"Duration":721153,"SoundDuration":721153,"Delta":331649799},{"NoteNumber":70,"Velocity":63,"Duration":721153,"SoundDuration":721153,"Delta":331649799},{"NoteNumber":77,"Velocity":74,"Duration":961538,"SoundDuration":961538,"Delta":331649799},{"NoteNumber":48,"Velocity":48,"Duration":320512,"SoundDuration":320512,"Delta":331649799},{"NoteNumber":60,"Velocity":33,"Duration":320512,"SoundDuration":320512,"Delta":331970312},{"NoteNumber":65,"Velocity":38,"Duration":320512,"SoundDuration":320512,"Delta":331970312},{"NoteNumber":63,"Velocity":33,"Duration":320512,"SoundDuration":320512,"Delta":331970312},{"NoteNumber":64,"Velocity":33,"Duration":320512,"SoundDuration":320512,"Delta":332290824},{"NoteNumber":60,"Velocity":33,"Duration":320512,"SoundDuration":320512,"Delta":332290824},{"NoteNumber":63,"Velocity":38,"Duration":320512,"SoundDuration":320512,"Delta":332290824},{"NoteNumber":69,"Velocity":59,"Duration":240384,"SoundDuration":240384,"Delta":332370952},{"NoteNumber":81,"Velocity":78,"Duration":240384,"SoundDuration":240384,"Delta":332370952},{"NoteNumber":84,"Velocity":83,"Duration":320512,"SoundDuration":320512,"Delta":332611337},{"NoteNumber":72,"Velocity":63,"Duration":320512,"SoundDuration":320512,"Delta":332611337},{"NoteNumber":60,"Velocity":34,"Duration":320512,"SoundDuration":320512,"Delta":332611337},{"NoteNumber":65,"Velocity":42,"Duration":320512,"SoundDuration":320512,"Delta":332611337},{"NoteNumber":63,"Velocity":34,"Duration":320512,"SoundDuration":320512,"Delta":332611337},{"NoteNumber":75,"Velocity":67,"Duration":320512,"SoundDuration":320512,"Delta":332931850},{"NoteNumber":87,"Velocity":86,"Duration":320512,"SoundDuration":320512,"Delta":332931850},{"NoteNumber":63,"Velocity":46,"Duration":320512,"SoundDuration":320512,"Delta":332931850},{"NoteNumber":60,"Velocity":37,"Duration":320512,"SoundDuration":320512,"Delta":332931850},{"NoteNumber":78,"Velocity":68,"Duration":385207,"SoundDuration":385207,"Delta":333252362},{"NoteNumber":90,"Velocity":88,"Duration":385207,"SoundDuration":385207,"Delta":333252362},{"NoteNumber":84,"Velocity":68,"Duration":385207,"SoundDuration":385207,"Delta":333252362},{"NoteNumber":87,"Velocity":68,"Duration":385207,"SoundDuration":385207,"Delta":333252362},{"NoteNumber":60,"Velocity":40,"Duration":385207,"SoundDuration":385207,"Delta":333252362},{"NoteNumber":66,"Velocity":48,"Duration":385207,"SoundDuration":385207,"Delta":333252362},{"NoteNumber":63,"Velocity":40,"Duration":385207,"SoundDuration":385207,"Delta":333252362},{"NoteNumber":84,"Velocity":71,"Duration":1454248,"SoundDuration":1454248,"Delta":333637570},{"NoteNumber":87,"Velocity":71,"Duration":1454248,"SoundDuration":1454248,"Delta":333637570},{"NoteNumber":89,"Velocity":91,"Duration":1454248,"SoundDuration":1454248,"Delta":333637570},{"NoteNumber":77,"Velocity":71,"Duration":1454248,"SoundDuration":1454248,"Delta":333637570},{"NoteNumber":45,"Velocity":60,"Duration":330142,"SoundDuration":330142,"Delta":333637570},{"NoteNumber":65,"Velocity":47,"Duration":330141,"SoundDuration":330141,"Delta":333967712},{"NoteNumber":57,"Velocity":38,"Duration":330141,"SoundDuration":330141,"Delta":333967712},{"NoteNumber":60,"Velocity":38,"Duration":330141,"SoundDuration":330141,"Delta":333967712},{"NoteNumber":64,"Velocity":47,"Duration":330142,"SoundDuration":330142,"Delta":334297854},{"NoteNumber":57,"Velocity":38,"Duration":330142,"SoundDuration":330142,"Delta":334297854},{"NoteNumber":60,"Velocity":38,"Duration":330142,"SoundDuration":330142,"Delta":334297854},{"NoteNumber":60,"Velocity":42,"Duration":309214,"SoundDuration":309214,"Delta":334627996},{"NoteNumber":57,"Velocity":42,"Duration":309214,"SoundDuration":309214,"Delta":334627996},{"NoteNumber":65,"Velocity":50,"Duration":309214,"SoundDuration":309214,"Delta":334627996},{"NoteNumber":66,"Velocity":40,"Duration":323241,"SoundDuration":323241,"Delta":334937211},{"NoteNumber":57,"Velocity":35,"Duration":323241,"SoundDuration":323241,"Delta":334937211},{"NoteNumber":60,"Velocity":35,"Duration":323241,"SoundDuration":323241,"Delta":334937211},{"NoteNumber":75,"Velocity":63,"Duration":534599,"SoundDuration":534599,"Delta":335091818},{"NoteNumber":87,"Velocity":77,"Duration":534599,"SoundDuration":534599,"Delta":335091818},{"NoteNumber":65,"Velocity":33,"Duration":365965,"SoundDuration":365965,"Delta":335260452},{"NoteNumber":60,"Velocity":28,"Duration":365965,"SoundDuration":365965,"Delta":335260452},{"NoteNumber":57,"Velocity":28,"Duration":365965,"SoundDuration":365965,"Delta":335260452},{"NoteNumber":75,"Velocity":63,"Duration":726509,"SoundDuration":726509,"Delta":335626418},{"NoteNumber":87,"Velocity":81,"Duration":726509,"SoundDuration":726509,"Delta":335626418},{"NoteNumber":46,"Velocity":42,"Duration":322893,"SoundDuration":322893,"Delta":335626418},{"NoteNumber":58,"Velocity":29,"Duration":322892,"SoundDuration":322892,"Delta":335949311},{"NoteNumber":65,"Velocity":34,"Duration":322892,"SoundDuration":322892,"Delta":335949311},{"NoteNumber":61,"Velocity":29,"Duration":322892,"SoundDuration":322892,"Delta":335949311},{"NoteNumber":58,"Velocity":29,"Duration":322893,"SoundDuration":322893,"Delta":336272204},{"NoteNumber":61,"Velocity":29,"Duration":322893,"SoundDuration":322893,"Delta":336272204},{"NoteNumber":64,"Velocity":34,"Duration":322893,"SoundDuration":322893,"Delta":336272204},{"NoteNumber":73,"Velocity":53,"Duration":242169,"SoundDuration":242169,"Delta":336352927},{"NoteNumber":85,"Velocity":69,"Duration":242169,"SoundDuration":242169,"Delta":336352927},{"NoteNumber":82,"Velocity":75,"Duration":242169,"SoundDuration":242169,"Delta":336595097},{"NoteNumber":70,"Velocity":57,"Duration":242169,"SoundDuration":242169,"Delta":336595097},{"NoteNumber":61,"Velocity":36,"Duration":242169,"SoundDuration":242169,"Delta":336595097},{"NoteNumber":65,"Velocity":42,"Duration":242169,"SoundDuration":242169,"Delta":336595097},{"NoteNumber":58,"Velocity":36,"Duration":242169,"SoundDuration":242169,"Delta":336595097},{"NoteNumber":84,"Velocity":71,"Duration":242169,"SoundDuration":242169,"Delta":336917990},{"NoteNumber":72,"Velocity":56,"Duration":242169,"SoundDuration":242169,"Delta":336917990},{"NoteNumber":61,"Velocity":29,"Duration":242169,"SoundDuration":242169,"Delta":336917990},{"NoteNumber":66,"Velocity":34,"Duration":242169,"SoundDuration":242169,"Delta":336917990},{"NoteNumber":58,"Velocity":29,"Duration":242169,"SoundDuration":242169,"Delta":336917990},{"NoteNumber":85,"Velocity":71,"Duration":288905,"SoundDuration":288905,"Delta":337240883},{"NoteNumber":73,"Velocity":56,"Duration":288905,"SoundDuration":288905,"Delta":337240883},{"NoteNumber":58,"Velocity":29,"Duration":288905,"SoundDuration":288905,"Delta":337240883},{"NoteNumber":61,"Velocity":29,"Duration":288905,"SoundDuration":288905,"Delta":337240883},{"NoteNumber":65,"Velocity":34,"Duration":288905,"SoundDuration":288905,"Delta":337240883},{"NoteNumber":84,"Velocity":78,"Duration":731826,"SoundDuration":731826,"Delta":337626091},{"NoteNumber":72,"Velocity":60,"Duration":731826,"SoundDuration":731826,"Delta":337626091},{"NoteNumber":52,"Velocity":42,"Duration":325256,"SoundDuration":325256,"Delta":337626091},{"NoteNumber":67,"Velocity":33,"Duration":325255,"SoundDuration":325255,"Delta":337951347},{"NoteNumber":58,"Velocity":28,"Duration":325255,"SoundDuration":325255,"Delta":337951347},{"NoteNumber":60,"Velocity":28,"Duration":325255,"SoundDuration":325255,"Delta":337951347},{"NoteNumber":58,"Velocity":25,"Duration":325256,"SoundDuration":325256,"Delta":338276603},{"NoteNumber":67,"Velocity":28,"Duration":325256,"SoundDuration":325256,"Delta":338276603},{"NoteNumber":61,"Velocity":25,"Duration":325256,"SoundDuration":325256,"Delta":338276603},{"NoteNumber":82,"Velocity":58,"Duration":243942,"SoundDuration":243942,"Delta":338357917},{"NoteNumber":70,"Velocity":46,"Duration":243942,"SoundDuration":243942,"Delta":338357917},{"NoteNumber":85,"Velocity":67,"Duration":251424,"SoundDuration":251424,"Delta":338601859},{"NoteNumber":73,"Velocity":53,"Duration":251424,"SoundDuration":251424,"Delta":338601859},{"NoteNumber":67,"Velocity":30,"Duration":251424,"SoundDuration":251424,"Delta":338601859},{"NoteNumber":58,"Velocity":26,"Duration":251424,"SoundDuration":251424,"Delta":338601859},{"NoteNumber":72,"Velocity":45,"Duration":251424,"SoundDuration":251424,"Delta":338937092},{"NoteNumber":84,"Velocity":57,"Duration":251424,"SoundDuration":251424,"Delta":338937092},{"NoteNumber":58,"Velocity":25,"Duration":251424,"SoundDuration":251424,"Delta":338937092},{"NoteNumber":60,"Velocity":25,"Duration":251424,"SoundDuration":251424,"Delta":338937092},{"NoteNumber":67,"Velocity":28,"Duration":251424,"SoundDuration":251424,"Delta":338937092},{"NoteNumber":70,"Velocity":45,"Duration":291431,"SoundDuration":291431,"Delta":339272325},{"NoteNumber":82,"Velocity":57,"Duration":291431,"SoundDuration":291431,"Delta":339272325},{"NoteNumber":58,"Velocity":25,"Duration":291431,"SoundDuration":291431,"Delta":339272325},{"NoteNumber":67,"Velocity":28,"Duration":291431,"SoundDuration":291431,"Delta":339272325},{"NoteNumber":61,"Velocity":25,"Duration":291431,"SoundDuration":291431,"Delta":339272325},{"NoteNumber":66,"Velocity":49,"Duration":755740,"SoundDuration":755740,"Delta":339660901},{"NoteNumber":78,"Velocity":64,"Duration":755740,"SoundDuration":755740,"Delta":339660901},{"NoteNumber":53,"Velocity":41,"Duration":330142,"SoundDuration":330142,"Delta":339660901},{"NoteNumber":61,"Velocity":30,"Duration":330142,"SoundDuration":330142,"Delta":339991043},{"NoteNumber":58,"Velocity":24,"Duration":330142,"SoundDuration":330142,"Delta":339991043},{"NoteNumber":61,"Velocity":28,"Duration":381824,"SoundDuration":381824,"Delta":340321185},{"NoteNumber":58,"Velocity":22,"Duration":381824,"SoundDuration":381824,"Delta":340321185},{"NoteNumber":77,"Velocity":52,"Duration":286368,"SoundDuration":286368,"Delta":340416641},{"NoteNumber":65,"Velocity":38,"Duration":286368,"SoundDuration":286368,"Delta":340416641},{"NoteNumber":65,"Velocity":46,"Duration":249501,"SoundDuration":249501,"Delta":340703010},{"NoteNumber":77,"Velocity":59,"Duration":249501,"SoundDuration":249501,"Delta":340703010},{"NoteNumber":53,"Velocity":28,"Duration":249501,"SoundDuration":249501,"Delta":340703010},{"NoteNumber":66,"Velocity":39,"Duration":249501,"SoundDuration":249501,"Delta":341035678},{"NoteNumber":78,"Velocity":52,"Duration":249501,"SoundDuration":249501,"Delta":341035678},{"NoteNumber":60,"Velocity":24,"Duration":249501,"SoundDuration":249501,"Delta":341035678},{"NoteNumber":57,"Velocity":24,"Duration":249501,"SoundDuration":249501,"Delta":341035678},{"NoteNumber":65,"Velocity":38,"Duration":302175,"SoundDuration":302175,"Delta":341368346},{"NoteNumber":77,"Velocity":50,"Duration":302175,"SoundDuration":302175,"Delta":341368346},{"NoteNumber":57,"Velocity":24,"Duration":302175,"SoundDuration":302175,"Delta":341368346},{"NoteNumber":60,"Velocity":24,"Duration":302175,"SoundDuration":302175,"Delta":341368346},{"NoteNumber":58,"Velocity":57,"Duration":1531915,"SoundDuration":1531915,"Delta":341771247},{"NoteNumber":70,"Velocity":57,"Duration":1531915,"SoundDuration":1531915,"Delta":341771247},{"NoteNumber":46,"Velocity":31,"Duration":340425,"SoundDuration":340425,"Delta":341771247},{"NoteNumber":53,"Velocity":23,"Duration":340425,"SoundDuration":340425,"Delta":342111672},{"NoteNumber":49,"Velocity":18,"Duration":340425,"SoundDuration":340425,"Delta":342111672},{"NoteNumber":48,"Velocity":22,"Duration":340425,"SoundDuration":340425,"Delta":342452098},{"NoteNumber":51,"Velocity":26,"Duration":340425,"SoundDuration":340425,"Delta":342452098},{"NoteNumber":49,"Velocity":31,"Duration":510638,"SoundDuration":510638,"Delta":342792524},{"NoteNumber":46,"Velocity":28,"Duration":510638,"SoundDuration":510638,"Delta":342792524},{"NoteNumber":61,"Velocity":72,"Duration":549278,"SoundDuration":549278,"Delta":343303162},{"NoteNumber":73,"Velocity":72,"Duration":549278,"SoundDuration":549278,"Delta":343303162},{"NoteNumber":61,"Velocity":80,"Duration":975768,"SoundDuration":975768,"Delta":343852441},{"NoteNumber":73,"Velocity":80,"Duration":975768,"SoundDuration":975768,"Delta":343852441},{"NoteNumber":37,"Velocity":50,"Duration":162627,"SoundDuration":162627,"Delta":343852441},{"NoteNumber":56,"Velocity":40,"Duration":292730,"SoundDuration":292730,"Delta":344177697},{"NoteNumber":53,"Velocity":35,"Duration":292730,"SoundDuration":292730,"Delta":344177697},{"NoteNumber":49,"Velocity":35,"Duration":292730,"SoundDuration":292730,"Delta":344177697},{"NoteNumber":56,"Velocity":40,"Duration":292730,"SoundDuration":292730,"Delta":344502953},{"NoteNumber":53,"Velocity":35,"Duration":292730,"SoundDuration":292730,"Delta":344502953},{"NoteNumber":49,"Velocity":35,"Duration":292730,"SoundDuration":292730,"Delta":344502953},{"NoteNumber":61,"Velocity":78,"Duration":325255,"SoundDuration":325255,"Delta":344828209},{"NoteNumber":73,"Velocity":78,"Duration":325255,"SoundDuration":325255,"Delta":344828209},{"NoteNumber":49,"Velocity":35,"Duration":292730,"SoundDuration":292730,"Delta":344828209},{"NoteNumber":57,"Velocity":50,"Duration":292730,"SoundDuration":292730,"Delta":344828209},{"NoteNumber":53,"Velocity":35,"Duration":292730,"SoundDuration":292730,"Delta":344828209},{"NoteNumber":63,"Velocity":73,"Duration":328713,"SoundDuration":328713,"Delta":345153465},{"NoteNumber":75,"Velocity":73,"Duration":328713,"SoundDuration":328713,"Delta":345153465},{"NoteNumber":49,"Velocity":35,"Duration":295496,"SoundDuration":295496,"Delta":345153465},{"NoteNumber":57,"Velocity":40,"Duration":295496,"SoundDuration":295496,"Delta":345153465},{"NoteNumber":53,"Velocity":35,"Duration":295496,"SoundDuration":295496,"Delta":345153465},{"NoteNumber":61,"Velocity":74,"Duration":362910,"SoundDuration":362910,"Delta":345482178},{"NoteNumber":73,"Velocity":74,"Duration":362910,"SoundDuration":362910,"Delta":345482178},{"NoteNumber":53,"Velocity":35,"Duration":326619,"SoundDuration":326619,"Delta":345482178},{"NoteNumber":57,"Velocity":40,"Duration":326619,"SoundDuration":326619,"Delta":345482178},{"NoteNumber":49,"Velocity":35,"Duration":326619,"SoundDuration":326619,"Delta":345482178},{"NoteNumber":61,"Velocity":80,"Duration":983122,"SoundDuration":983122,"Delta":345845089},{"NoteNumber":73,"Velocity":80,"Duration":983122,"SoundDuration":983122,"Delta":345845089},{"NoteNumber":42,"Velocity":50,"Duration":163853,"SoundDuration":163853,"Delta":345845089},{"NoteNumber":54,"Velocity":34,"Duration":294936,"SoundDuration":294936,"Delta":346172796},{"NoteNumber":58,"Velocity":39,"Duration":294936,"SoundDuration":294936,"Delta":346172796},{"NoteNumber":49,"Velocity":35,"Duration":294936,"SoundDuration":294936,"Delta":346172796},{"NoteNumber":54,"Velocity":35,"Duration":294936,"SoundDuration":294936,"Delta":346500504},{"NoteNumber":58,"Velocity":40,"Duration":290840,"SoundDuration":290840,"Delta":346500504},{"NoteNumber":49,"Velocity":35,"Duration":294936,"SoundDuration":294936,"Delta":346500504},{"NoteNumber":58,"Velocity":70,"Duration":245780,"SoundDuration":245780,"Delta":346828212},{"NoteNumber":70,"Velocity":70,"Duration":750388,"SoundDuration":750388,"Delta":346828212},{"NoteNumber":38,"Velocity":44,"Duration":163853,"SoundDuration":163853,"Delta":346828212},{"NoteNumber":56,"Velocity":37,"Duration":297722,"SoundDuration":297722,"Delta":347155919},{"NoteNumber":53,"Velocity":37,"Duration":297722,"SoundDuration":297722,"Delta":347155919},{"NoteNumber":58,"Velocity":43,"Duration":297722,"SoundDuration":297722,"Delta":347155919},{"NoteNumber":50,"Velocity":37,"Duration":297722,"SoundDuration":297722,"Delta":347155919},{"NoteNumber":50,"Velocity":40,"Duration":329368,"SoundDuration":329368,"Delta":347487109},{"NoteNumber":56,"Velocity":40,"Duration":329368,"SoundDuration":329368,"Delta":347487109},{"NoteNumber":53,"Velocity":40,"Duration":329368,"SoundDuration":329368,"Delta":347487109},{"NoteNumber":58,"Velocity":46,"Duration":329368,"SoundDuration":329368,"Delta":347487109},{"NoteNumber":70,"Velocity":77,"Duration":274473,"SoundDuration":274473,"Delta":347578600},{"NoteNumber":82,"Velocity":77,"Duration":274473,"SoundDuration":274473,"Delta":347578600},{"NoteNumber":70,"Velocity":83,"Duration":728321,"SoundDuration":728321,"Delta":347853074},{"NoteNumber":82,"Velocity":83,"Duration":728321,"SoundDuration":728321,"Delta":347853074},{"NoteNumber":39,"Velocity":62,"Duration":161446,"SoundDuration":161446,"Delta":347853074},{"NoteNumber":51,"Velocity":43,"Duration":322893,"SoundDuration":322893,"Delta":348175967},{"NoteNumber":58,"Velocity":50,"Duration":322893,"SoundDuration":322893,"Delta":348175967},{"NoteNumber":54,"Velocity":43,"Duration":322893,"SoundDuration":322893,"Delta":348175967},{"NoteNumber":54,"Velocity":43,"Duration":330142,"SoundDuration":330142,"Delta":348498860},{"NoteNumber":59,"Velocity":50,"Duration":330142,"SoundDuration":330142,"Delta":348498860},{"NoteNumber":51,"Velocity":43,"Duration":330142,"SoundDuration":330142,"Delta":348498860},{"NoteNumber":83,"Velocity":86,"Duration":577748,"SoundDuration":577748,"Delta":348581396},{"NoteNumber":71,"Velocity":86,"Duration":577748,"SoundDuration":577748,"Delta":348581396},{"NoteNumber":40,"Velocity":55,"Duration":165070,"SoundDuration":165070,"Delta":348829002},{"NoteNumber":84,"Velocity":83,"Duration":330142,"SoundDuration":330142,"Delta":349159144},{"NoteNumber":72,"Velocity":83,"Duration":330142,"SoundDuration":330142,"Delta":349159144},{"NoteNumber":58,"Velocity":48,"Duration":330142,"SoundDuration":330142,"Delta":349159144},{"NoteNumber":52,"Velocity":48,"Duration":330142,"SoundDuration":330142,"Delta":349159144},{"NoteNumber":54,"Velocity":48,"Duration":330142,"SoundDuration":330142,"Delta":349159144},{"NoteNumber":60,"Velocity":60,"Duration":330142,"SoundDuration":330142,"Delta":349159144},{"NoteNumber":85,"Velocity":85,"Duration":247231,"SoundDuration":247231,"Delta":349489286},{"NoteNumber":73,"Velocity":85,"Duration":247231,"SoundDuration":247231,"Delta":349489286},{"NoteNumber":54,"Velocity":52,"Duration":395569,"SoundDuration":395569,"Delta":349489286},{"NoteNumber":58,"Velocity":52,"Duration":395569,"SoundDuration":395569,"Delta":349489286},{"NoteNumber":61,"Velocity":62,"Duration":395569,"SoundDuration":395569,"Delta":349489286},{"NoteNumber":52,"Velocity":52,"Duration":395569,"SoundDuration":395569,"Delta":349489286},{"NoteNumber":85,"Velocity":80,"Duration":148338,"SoundDuration":148338,"Delta":349736517},{"NoteNumber":77,"Velocity":90,"Duration":731826,"SoundDuration":731826,"Delta":349884856},{"NoteNumber":89,"Velocity":90,"Duration":731826,"SoundDuration":731826,"Delta":349884856},{"NoteNumber":41,"Velocity":78,"Duration":162627,"SoundDuration":162627,"Delta":349884856},{"NoteNumber":61,"Velocity":57,"Duration":292730,"SoundDuration":292730,"Delta":350210112},{"NoteNumber":58,"Velocity":46,"Duration":292730,"SoundDuration":292730,"Delta":350210112},{"NoteNumber":53,"Velocity":46,"Duration":292730,"SoundDuration":292730,"Delta":350210112},{"NoteNumber":53,"Velocity":43,"Duration":292730,"SoundDuration":292730,"Delta":350535368},{"NoteNumber":61,"Velocity":53,"Duration":292730,"SoundDuration":292730,"Delta":350535368},{"NoteNumber":58,"Velocity":43,"Duration":292730,"SoundDuration":292730,"Delta":350535368},{"NoteNumber":73,"Velocity":83,"Duration":243942,"SoundDuration":243942,"Delta":350616682},{"NoteNumber":85,"Velocity":83,"Duration":243942,"SoundDuration":243942,"Delta":350616682},{"NoteNumber":84,"Velocity":78,"Duration":473859,"SoundDuration":473859,"Delta":350860624},{"NoteNumber":72,"Velocity":78,"Duration":473859,"SoundDuration":473859,"Delta":350860624},{"NoteNumber":57,"Velocity":44,"Duration":284315,"SoundDuration":284315,"Delta":350860624},{"NoteNumber":53,"Velocity":44,"Duration":284315,"SoundDuration":284315,"Delta":350860624},{"NoteNumber":60,"Velocity":52,"Duration":284315,"SoundDuration":284315,"Delta":350860624},{"NoteNumber":60,"Velocity":39,"Duration":292860,"SoundDuration":292860,"Delta":351176530},{"NoteNumber":57,"Velocity":34,"Duration":292860,"SoundDuration":292860,"Delta":351176530},{"NoteNumber":53,"Velocity":34,"Duration":292860,"SoundDuration":292860,"Delta":351176530},{"NoteNumber":53,"Velocity":28,"Duration":346687,"SoundDuration":346687,"Delta":351503117},{"NoteNumber":60,"Velocity":33,"Duration":341872,"SoundDuration":341872,"Delta":351503117},{"NoteNumber":57,"Velocity":28,"Duration":346687,"SoundDuration":346687,"Delta":351503117},{"NoteNumber":60,"Velocity":42,"Duration":484339,"SoundDuration":484339,"Delta":351888325},{"NoteNumber":72,"Velocity":50,"Duration":484339,"SoundDuration":484339,"Delta":351888325},{"NoteNumber":45,"Velocity":52,"Duration":322893,"SoundDuration":322893,"Delta":351888325},{"NoteNumber":60,"Velocity":30,"Duration":322892,"SoundDuration":322892,"Delta":352211218},{"NoteNumber":53,"Velocity":25,"Duration":322892,"SoundDuration":322892,"Delta":352211218},{"NoteNumber":57,"Velocity":25,"Duration":322892,"SoundDuration":322892,"Delta":352211218},{"NoteNumber":77,"Velocity":43,"Duration":484339,"SoundDuration":484339,"Delta":352372665},{"NoteNumber":65,"Velocity":36,"Duration":484339,"SoundDuration":484339,"Delta":352372665},{"NoteNumber":60,"Velocity":30,"Duration":322893,"SoundDuration":322893,"Delta":352534111},{"NoteNumber":57,"Velocity":25,"Duration":322893,"SoundDuration":322893,"Delta":352534111},{"NoteNumber":52,"Velocity":25,"Duration":322893,"SoundDuration":322893,"Delta":352534111},{"NoteNumber":81,"Velocity":47,"Duration":484339,"SoundDuration":484339,"Delta":352857004},{"NoteNumber":69,"Velocity":39,"Duration":484339,"SoundDuration":484339,"Delta":352857004},{"NoteNumber":53,"Velocity":25,"Duration":322892,"SoundDuration":322892,"Delta":352857004},{"NoteNumber":60,"Velocity":30,"Duration":322892,"SoundDuration":322892,"Delta":352857004},{"NoteNumber":57,"Velocity":25,"Duration":322892,"SoundDuration":322892,"Delta":352857004},{"NoteNumber":57,"Velocity":25,"Duration":322893,"SoundDuration":322893,"Delta":353179897},{"NoteNumber":53,"Velocity":25,"Duration":322893,"SoundDuration":322893,"Delta":353179897},{"NoteNumber":62,"Velocity":30,"Duration":322893,"SoundDuration":322893,"Delta":353179897},{"NoteNumber":84,"Velocity":47,"Duration":484339,"SoundDuration":484339,"Delta":353341344},{"NoteNumber":72,"Velocity":39,"Duration":484339,"SoundDuration":484339,"Delta":353341344},{"NoteNumber":57,"Velocity":25,"Duration":322893,"SoundDuration":322893,"Delta":353502790},{"NoteNumber":53,"Velocity":25,"Duration":322893,"SoundDuration":322893,"Delta":353502790},{"NoteNumber":60,"Velocity":30,"Duration":322893,"SoundDuration":322893,"Delta":353502790},{"NoteNumber":84,"Velocity":55,"Duration":968679,"SoundDuration":968679,"Delta":353825683},{"NoteNumber":72,"Velocity":46,"Duration":968679,"SoundDuration":968679,"Delta":353825683},{"NoteNumber":46,"Velocity":44,"Duration":322892,"SoundDuration":322892,"Delta":353825683},{"NoteNumber":57,"Velocity":25,"Duration":322893,"SoundDuration":322893,"Delta":354148576},{"NoteNumber":63,"Velocity":30,"Duration":322893,"SoundDuration":322893,"Delta":354148576},{"NoteNumber":54,"Velocity":25,"Duration":322893,"SoundDuration":322893,"Delta":354148576},{"NoteNumber":62,"Velocity":30,"Duration":322893,"SoundDuration":322893,"Delta":354471469},{"NoteNumber":57,"Velocity":25,"Duration":322893,"SoundDuration":322893,"Delta":354471469},{"NoteNumber":54,"Velocity":25,"Duration":322893,"SoundDuration":322893,"Delta":354471469},{"NoteNumber":70,"Velocity":42,"Duration":307077,"SoundDuration":307077,"Delta":354794362},{"NoteNumber":82,"Velocity":50,"Duration":307077,"SoundDuration":307077,"Delta":354794362},{"NoteNumber":58,"Velocity":25,"Duration":307077,"SoundDuration":307077,"Delta":354794362},{"NoteNumber":62,"Velocity":30,"Duration":307077,"SoundDuration":307077,"Delta":354794362},{"NoteNumber":55,"Velocity":25,"Duration":307077,"SoundDuration":307077,"Delta":354794362},{"NoteNumber":69,"Velocity":37,"Duration":307078,"SoundDuration":307078,"Delta":355101440},{"NoteNumber":81,"Velocity":44,"Duration":307078,"SoundDuration":307078,"Delta":355101440},{"NoteNumber":62,"Velocity":30,"Duration":307078,"SoundDuration":307078,"Delta":355101440},{"NoteNumber":60,"Velocity":25,"Duration":307078,"SoundDuration":307078,"Delta":355101440},{"NoteNumber":57,"Velocity":25,"Duration":307078,"SoundDuration":307078,"Delta":355101440},{"NoteNumber":67,"Velocity":37,"Duration":340425,"SoundDuration":340425,"Delta":355408518},{"NoteNumber":79,"Velocity":44,"Duration":340425,"SoundDuration":340425,"Delta":355408518},{"NoteNumber":62,"Velocity":30,"Duration":340425,"SoundDuration":340425,"Delta":355408518},{"NoteNumber":58,"Velocity":25,"Duration":340425,"SoundDuration":340425,"Delta":355408518},{"NoteNumber":67,"Velocity":42,"Duration":298730,"SoundDuration":298730,"Delta":355748944},{"NoteNumber":79,"Velocity":50,"Duration":298730,"SoundDuration":298730,"Delta":355748944},{"NoteNumber":48,"Velocity":40,"Duration":298730,"SoundDuration":298730,"Delta":355748944},{"NoteNumber":81,"Velocity":44,"Duration":268857,"SoundDuration":268857,"Delta":356047674},{"NoteNumber":69,"Velocity":37,"Duration":268857,"SoundDuration":268857,"Delta":356047674},{"NoteNumber":57,"Velocity":28,"Duration":268857,"SoundDuration":268857,"Delta":356047674},{"NoteNumber":60,"Velocity":33,"Duration":268857,"SoundDuration":268857,"Delta":356047674},{"NoteNumber":65,"Velocity":37,"Duration":297127,"SoundDuration":297127,"Delta":356346404},{"NoteNumber":77,"Velocity":44,"Duration":297127,"SoundDuration":297127,"Delta":356346404},{"NoteNumber":57,"Velocity":27,"Duration":297127,"SoundDuration":297127,"Delta":356346404},{"NoteNumber":60,"Velocity":32,"Duration":297127,"SoundDuration":297127,"Delta":356346404},{"NoteNumber":65,"Velocity":42,"Duration":296692,"SoundDuration":296692,"Delta":356676546},{"NoteNumber":77,"Velocity":50,"Duration":296692,"SoundDuration":296692,"Delta":356676546},{"NoteNumber":48,"Velocity":39,"Duration":296692,"SoundDuration":296692,"Delta":356676546},{"NoteNumber":67,"Velocity":37,"Duration":267022,"SoundDuration":267022,"Delta":356973238},{"NoteNumber":79,"Velocity":44,"Duration":267022,"SoundDuration":267022,"Delta":356973238},{"NoteNumber":60,"Velocity":32,"Duration":267022,"SoundDuration":267022,"Delta":356973238},{"NoteNumber":58,"Velocity":27,"Duration":267022,"SoundDuration":267022,"Delta":356973238},{"NoteNumber":55,"Velocity":27,"Duration":267022,"SoundDuration":267022,"Delta":356973238},{"NoteNumber":76,"Velocity":44,"Duration":294936,"SoundDuration":294936,"Delta":357269930},{"NoteNumber":64,"Velocity":37,"Duration":294936,"SoundDuration":294936,"Delta":357269930},{"NoteNumber":60,"Velocity":32,"Duration":294936,"SoundDuration":294936,"Delta":357269930},{"NoteNumber":58,"Velocity":27,"Duration":294936,"SoundDuration":294936,"Delta":357269930},{"NoteNumber":55,"Velocity":27,"Duration":294936,"SoundDuration":294936,"Delta":357269930},{"NoteNumber":77,"Velocity":49,"Duration":884172,"SoundDuration":884172,"Delta":357597638},{"NoteNumber":65,"Velocity":41,"Duration":884172,"SoundDuration":884172,"Delta":357597638},{"NoteNumber":41,"Velocity":40,"Duration":294724,"SoundDuration":294724,"Delta":357597638},{"NoteNumber":53,"Velocity":27,"Duration":294724,"SoundDuration":294724,"Delta":357892362},{"NoteNumber":57,"Velocity":27,"Duration":294724,"SoundDuration":294724,"Delta":357892362},{"NoteNumber":60,"Velocity":32,"Duration":294724,"SoundDuration":294724,"Delta":357892362},{"NoteNumber":53,"Velocity":32,"Duration":221043,"SoundDuration":221043,"Delta":358187087},{"NoteNumber":75,"Velocity":56,"Duration":294724,"SoundDuration":294724,"Delta":358481811},{"NoteNumber":63,"Velocity":47,"Duration":294724,"SoundDuration":294724,"Delta":358481811},{"NoteNumber":51,"Velocity":40,"Duration":294724,"SoundDuration":294724,"Delta":358481811},{"NoteNumber":53,"Velocity":34,"Duration":221043,"SoundDuration":221043,"Delta":358481811},{"NoteNumber":73,"Velocity":59,"Duration":294724,"SoundDuration":294724,"Delta":358776535},{"NoteNumber":61,"Velocity":50,"Duration":294724,"SoundDuration":294724,"Delta":358776535},{"NoteNumber":53,"Velocity":37,"Duration":221043,"SoundDuration":221043,"Delta":358776535},{"NoteNumber":49,"Velocity":44,"Duration":294724,"SoundDuration":294724,"Delta":358776535},{"NoteNumber":72,"Velocity":63,"Duration":359906,"SoundDuration":359906,"Delta":359071260},{"NoteNumber":60,"Velocity":53,"Duration":359906,"SoundDuration":359906,"Delta":359071260},{"NoteNumber":53,"Velocity":40,"Duration":269929,"SoundDuration":269929,"Delta":359071260},{"NoteNumber":48,"Velocity":48,"Duration":359906,"SoundDuration":359906,"Delta":359071260},{"NoteNumber":60,"Velocity":56,"Duration":975768,"SoundDuration":975768,"Delta":359431166},{"NoteNumber":72,"Velocity":66,"Duration":975768,"SoundDuration":975768,"Delta":359431166},{"NoteNumber":42,"Velocity":50,"Duration":162627,"SoundDuration":162627,"Delta":359431166},{"NoteNumber":30,"Velocity":42,"Duration":162627,"SoundDuration":162627,"Delta":359431166},{"NoteNumber":42,"Velocity":37,"Duration":325255,"SoundDuration":325255,"Delta":359756422},{"NoteNumber":49,"Velocity":44,"Duration":325255,"SoundDuration":325255,"Delta":359756422},{"NoteNumber":46,"Velocity":37,"Duration":325255,"SoundDuration":325255,"Delta":359756422},{"NoteNumber":42,"Velocity":37,"Duration":325256,"SoundDuration":325256,"Delta":360081678},{"NoteNumber":48,"Velocity":44,"Duration":325256,"SoundDuration":325256,"Delta":360081678},{"NoteNumber":46,"Velocity":37,"Duration":325256,"SoundDuration":325256,"Delta":360081678},{"NoteNumber":70,"Velocity":61,"Duration":487884,"SoundDuration":487884,"Delta":360406934},{"NoteNumber":58,"Velocity":51,"Duration":487884,"SoundDuration":487884,"Delta":360406934},{"NoteNumber":42,"Velocity":43,"Duration":325255,"SoundDuration":325255,"Delta":360406934},{"NoteNumber":49,"Velocity":51,"Duration":325255,"SoundDuration":325255,"Delta":360406934},{"NoteNumber":46,"Velocity":43,"Duration":325255,"SoundDuration":325255,"Delta":360406934},{"NoteNumber":42,"Velocity":38,"Duration":328713,"SoundDuration":328713,"Delta":360732190},{"NoteNumber":46,"Velocity":38,"Duration":328713,"SoundDuration":328713,"Delta":360732190},{"NoteNumber":51,"Velocity":45,"Duration":328713,"SoundDuration":328713,"Delta":360732190},{"NoteNumber":58,"Velocity":51,"Duration":517393,"SoundDuration":517393,"Delta":360894818},{"NoteNumber":70,"Velocity":61,"Duration":517393,"SoundDuration":517393,"Delta":360894818},{"NoteNumber":49,"Velocity":45,"Duration":351308,"SoundDuration":351308,"Delta":361060903},{"NoteNumber":46,"Velocity":38,"Duration":351308,"SoundDuration":351308,"Delta":361060903},{"NoteNumber":42,"Velocity":38,"Duration":351308,"SoundDuration":351308,"Delta":361060903},{"NoteNumber":60,"Velocity":59,"Duration":968679,"SoundDuration":968679,"Delta":361412212},{"NoteNumber":72,"Velocity":70,"Duration":968679,"SoundDuration":968679,"Delta":361412212},{"NoteNumber":29,"Velocity":43,"Duration":161446,"SoundDuration":161446,"Delta":361412212},{"NoteNumber":41,"Velocity":51,"Duration":161446,"SoundDuration":161446,"Delta":361412212},{"NoteNumber":46,"Velocity":36,"Duration":322892,"SoundDuration":322892,"Delta":361735105},{"NoteNumber":49,"Velocity":43,"Duration":322892,"SoundDuration":322892,"Delta":361735105},{"NoteNumber":41,"Velocity":36,"Duration":322892,"SoundDuration":322892,"Delta":361735105},{"NoteNumber":41,"Velocity":36,"Duration":322893,"SoundDuration":322893,"Delta":362057998},{"NoteNumber":48,"Velocity":43,"Duration":322893,"SoundDuration":322893,"Delta":362057998},{"NoteNumber":46,"Velocity":36,"Duration":322893,"SoundDuration":322893,"Delta":362057998},{"NoteNumber":58,"Velocity":53,"Duration":484339,"SoundDuration":484339,"Delta":362380891},{"NoteNumber":70,"Velocity":63,"Duration":484339,"SoundDuration":484339,"Delta":362380891},{"NoteNumber":41,"Velocity":43,"Duration":322892,"SoundDuration":322892,"Delta":362380891},{"NoteNumber":46,"Velocity":43,"Duration":322892,"SoundDuration":322892,"Delta":362380891},{"NoteNumber":49,"Velocity":51,"Duration":322892,"SoundDuration":322892,"Delta":362380891},{"NoteNumber":41,"Velocity":39,"Duration":328782,"SoundDuration":328782,"Delta":362703784},{"NoteNumber":51,"Velocity":46,"Duration":328782,"SoundDuration":328782,"Delta":362703784},{"NoteNumber":46,"Velocity":39,"Duration":328782,"SoundDuration":328782,"Delta":362703784},{"NoteNumber":70,"Velocity":68,"Duration":533301,"SoundDuration":533301,"Delta":362865231},{"NoteNumber":58,"Velocity":57,"Duration":533301,"SoundDuration":533301,"Delta":362865231},{"NoteNumber":49,"Velocity":46,"Duration":365965,"SoundDuration":365965,"Delta":363032567},{"NoteNumber":41,"Velocity":39,"Duration":365965,"SoundDuration":365965,"Delta":363032567},{"NoteNumber":46,"Velocity":39,"Duration":365965,"SoundDuration":365965,"Delta":363032567},{"NoteNumber":59,"Velocity":58,"Duration":322893,"SoundDuration":322893,"Delta":363398532},{"NoteNumber":71,"Velocity":70,"Duration":322893,"SoundDuration":322893,"Delta":363398532},{"NoteNumber":38,"Velocity":51,"Duration":161446,"SoundDuration":161446,"Delta":363398532},{"NoteNumber":58,"Velocity":53,"Duration":322892,"SoundDuration":322892,"Delta":363721425},{"NoteNumber":70,"Velocity":62,"Duration":322892,"SoundDuration":322892,"Delta":363721425},{"NoteNumber":50,"Velocity":34,"Duration":322892,"SoundDuration":322892,"Delta":363721425},{"NoteNumber":56,"Velocity":41,"Duration":322892,"SoundDuration":322892,"Delta":363721425},{"NoteNumber":53,"Velocity":34,"Duration":322892,"SoundDuration":322892,"Delta":363721425},{"NoteNumber":62,"Velocity":54,"Duration":322893,"SoundDuration":322893,"Delta":364044318},{"NoteNumber":74,"Velocity":64,"Duration":322893,"SoundDuration":322893,"Delta":364044318},{"NoteNumber":50,"Velocity":35,"Duration":322893,"SoundDuration":322893,"Delta":364044318},{"NoteNumber":57,"Velocity":41,"Duration":322893,"SoundDuration":322893,"Delta":364044318},{"NoteNumber":53,"Velocity":35,"Duration":322893,"SoundDuration":322893,"Delta":364044318},{"NoteNumber":77,"Velocity":70,"Duration":307077,"SoundDuration":307077,"Delta":364367211},{"NoteNumber":65,"Velocity":59,"Duration":307077,"SoundDuration":307077,"Delta":364367211},{"NoteNumber":58,"Velocity":47,"Duration":307077,"SoundDuration":307077,"Delta":364367211},{"NoteNumber":50,"Velocity":40,"Duration":307077,"SoundDuration":307077,"Delta":364367211},{"NoteNumber":53,"Velocity":40,"Duration":307077,"SoundDuration":307077,"Delta":364367211},{"NoteNumber":68,"Velocity":62,"Duration":307078,"SoundDuration":307078,"Delta":364674289},{"NoteNumber":80,"Velocity":74,"Duration":307078,"SoundDuration":307078,"Delta":364674289},{"NoteNumber":50,"Velocity":44,"Duration":307078,"SoundDuration":307078,"Delta":364674289},{"NoteNumber":53,"Velocity":44,"Duration":307078,"SoundDuration":307078,"Delta":364674289},{"NoteNumber":56,"Velocity":52,"Duration":307078,"SoundDuration":307078,"Delta":364674289},{"NoteNumber":77,"Velocity":67,"Duration":388576,"SoundDuration":388576,"Delta":364981367},{"NoteNumber":83,"Velocity":79,"Duration":388576,"SoundDuration":388576,"Delta":364981367},{"NoteNumber":71,"Velocity":67,"Duration":388576,"SoundDuration":388576,"Delta":364981367},{"NoteNumber":80,"Velocity":67,"Duration":388576,"SoundDuration":388576,"Delta":364981367},{"NoteNumber":56,"Velocity":48,"Duration":388576,"SoundDuration":388576,"Delta":364981367},{"NoteNumber":50,"Velocity":48,"Duration":388576,"SoundDuration":388576,"Delta":364981367},{"NoteNumber":53,"Velocity":48,"Duration":388576,"SoundDuration":388576,"Delta":364981367},{"NoteNumber":59,"Velocity":57,"Duration":388576,"SoundDuration":388576,"Delta":364981367},{"NoteNumber":70,"Velocity":71,"Duration":1493761,"SoundDuration":1493761,"Delta":365369943},{"NoteNumber":82,"Velocity":84,"Duration":1493761,"SoundDuration":1493761,"Delta":365369943},{"NoteNumber":77,"Velocity":71,"Duration":983122,"SoundDuration":983122,"Delta":365369943},{"NoteNumber":80,"Velocity":71,"Duration":983122,"SoundDuration":983122,"Delta":365369943},{"NoteNumber":39,"Velocity":62,"Duration":163853,"SoundDuration":163853,"Delta":365369943},{"NoteNumber":51,"Velocity":34,"Duration":327707,"SoundDuration":327707,"Delta":365697651},{"NoteNumber":58,"Velocity":41,"Duration":327707,"SoundDuration":327707,"Delta":365697651},{"NoteNumber":54,"Velocity":34,"Duration":327707,"SoundDuration":327707,"Delta":365697651},{"NoteNumber":51,"Velocity":34,"Duration":327707,"SoundDuration":327707,"Delta":366025358},{"NoteNumber":54,"Velocity":34,"Duration":327707,"SoundDuration":327707,"Delta":366025358},{"NoteNumber":57,"Velocity":41,"Duration":327707,"SoundDuration":327707,"Delta":366025358},{"NoteNumber":75,"Velocity":54,"Duration":510638,"SoundDuration":510638,"Delta":366353066},{"NoteNumber":78,"Velocity":64,"Duration":510638,"SoundDuration":510638,"Delta":366353066},{"NoteNumber":51,"Velocity":41,"Duration":340425,"SoundDuration":340425,"Delta":366353066},{"NoteNumber":54,"Velocity":41,"Duration":340425,"SoundDuration":340425,"Delta":366353066},{"NoteNumber":58,"Velocity":49,"Duration":340425,"SoundDuration":340425,"Delta":366353066},{"NoteNumber":54,"Velocity":34,"Duration":338846,"SoundDuration":338846,"Delta":366693492},{"NoteNumber":51,"Velocity":34,"Duration":338846,"SoundDuration":338846,"Delta":366693492},{"NoteNumber":59,"Velocity":40,"Duration":338846,"SoundDuration":338846,"Delta":366693492},{"NoteNumber":75,"Velocity":56,"Duration":531544,"SoundDuration":531544,"Delta":366863704},{"NoteNumber":63,"Velocity":47,"Duration":531544,"SoundDuration":531544,"Delta":366863704},{"NoteNumber":54,"Velocity":34,"Duration":362910,"SoundDuration":362910,"Delta":367032338},{"NoteNumber":58,"Velocity":40,"Duration":362910,"SoundDuration":362910,"Delta":367032338},{"NoteNumber":51,"Velocity":34,"Duration":362910,"SoundDuration":362910,"Delta":367032338},{"NoteNumber":61,"Velocity":52,"Duration":726509,"SoundDuration":726509,"Delta":367395249},{"NoteNumber":73,"Velocity":62,"Duration":726509,"SoundDuration":726509,"Delta":367395249},{"NoteNumber":46,"Velocity":40,"Duration":322893,"SoundDuration":322893,"Delta":367395249},{"NoteNumber":54,"Velocity":23,"Duration":290603,"SoundDuration":290603,"Delta":367718142},{"NoteNumber":58,"Velocity":33,"Duration":290603,"SoundDuration":290603,"Delta":367718142},{"NoteNumber":54,"Velocity":23,"Duration":290603,"SoundDuration":290603,"Delta":368041035},{"NoteNumber":58,"Velocity":33,"Duration":290603,"SoundDuration":290603,"Delta":368041035},{"NoteNumber":60,"Velocity":47,"Duration":242169,"SoundDuration":242169,"Delta":368121758},{"NoteNumber":72,"Velocity":56,"Duration":242169,"SoundDuration":242169,"Delta":368121758},{"NoteNumber":60,"Velocity":50,"Duration":322892,"SoundDuration":322892,"Delta":368363928},{"NoteNumber":72,"Velocity":60,"Duration":322892,"SoundDuration":322892,"Delta":368363928},{"NoteNumber":58,"Velocity":40,"Duration":290603,"SoundDuration":290603,"Delta":368363928},{"NoteNumber":54,"Velocity":28,"Duration":290603,"SoundDuration":290603,"Delta":368363928},{"NoteNumber":61,"Velocity":47,"Duration":322893,"SoundDuration":322893,"Delta":368686821},{"NoteNumber":73,"Velocity":56,"Duration":322893,"SoundDuration":322893,"Delta":368686821},{"NoteNumber":58,"Velocity":33,"Duration":290603,"SoundDuration":290603,"Delta":368686821},{"NoteNumber":54,"Velocity":23,"Duration":290603,"SoundDuration":290603,"Delta":368686821},{"NoteNumber":75,"Velocity":56,"Duration":238640,"SoundDuration":238640,"Delta":369009714},{"NoteNumber":63,"Velocity":47,"Duration":238640,"SoundDuration":238640,"Delta":369009714},{"NoteNumber":60,"Velocity":33,"Duration":381824,"SoundDuration":381824,"Delta":369009714},{"NoteNumber":58,"Velocity":23,"Duration":381824,"SoundDuration":381824,"Delta":369009714},{"NoteNumber":54,"Velocity":23,"Duration":381824,"SoundDuration":381824,"Delta":369009714},{"NoteNumber":75,"Velocity":46,"Duration":143184,"SoundDuration":143184,"Delta":369248355},{"NoteNumber":66,"Velocity":52,"Duration":737342,"SoundDuration":737342,"Delta":369391539},{"NoteNumber":78,"Velocity":62,"Duration":737342,"SoundDuration":737342,"Delta":369391539},{"NoteNumber":41,"Velocity":40,"Duration":327707,"SoundDuration":327707,"Delta":369391539},{"NoteNumber":58,"Velocity":22,"Duration":294936,"SoundDuration":294936,"Delta":369719247},{"NoteNumber":61,"Velocity":31,"Duration":294936,"SoundDuration":294936,"Delta":369719247},{"NoteNumber":53,"Velocity":22,"Duration":294936,"SoundDuration":294936,"Delta":369719247},{"NoteNumber":61,"Velocity":33,"Duration":294936,"SoundDuration":294936,"Delta":370046954},{"NoteNumber":58,"Velocity":23,"Duration":294936,"SoundDuration":294936,"Delta":370046954},{"NoteNumber":53,"Velocity":23,"Duration":294936,"SoundDuration":294936,"Delta":370046954},{"NoteNumber":65,"Velocity":47,"Duration":245780,"SoundDuration":245780,"Delta":370128881},{"NoteNumber":77,"Velocity":56,"Duration":245780,"SoundDuration":245780,"Delta":370128881},{"NoteNumber":77,"Velocity":56,"Duration":327707,"SoundDuration":327707,"Delta":370374662},{"NoteNumber":65,"Velocity":47,"Duration":327707,"SoundDuration":327707,"Delta":370374662},{"NoteNumber":61,"Velocity":35,"Duration":294936,"SoundDuration":294936,"Delta":370374662},{"NoteNumber":58,"Velocity":24,"Duration":294936,"SoundDuration":294936,"Delta":370374662},{"NoteNumber":53,"Velocity":24,"Duration":294936,"SoundDuration":294936,"Delta":370374662},{"NoteNumber":70,"Velocity":50,"Duration":327707,"SoundDuration":327707,"Delta":370702370},{"NoteNumber":82,"Velocity":60,"Duration":327707,"SoundDuration":327707,"Delta":370702370},{"NoteNumber":58,"Velocity":23,"Duration":294936,"SoundDuration":294936,"Delta":370702370},{"NoteNumber":52,"Velocity":24,"Duration":294936,"SoundDuration":294936,"Delta":370702370},{"NoteNumber":61,"Velocity":33,"Duration":294936,"SoundDuration":294936,"Delta":370702370},{"NoteNumber":73,"Velocity":52,"Duration":327707,"SoundDuration":327707,"Delta":371030077},{"NoteNumber":85,"Velocity":62,"Duration":327707,"SoundDuration":327707,"Delta":371030077},{"NoteNumber":53,"Velocity":24,"Duration":294936,"SoundDuration":294936,"Delta":371030077},{"NoteNumber":58,"Velocity":23,"Duration":294936,"SoundDuration":294936,"Delta":371030077},{"NoteNumber":61,"Velocity":33,"Duration":294936,"SoundDuration":294936,"Delta":371030077},{"NoteNumber":73,"Velocity":55,"Duration":766289,"SoundDuration":766289,"Delta":371357785},{"NoteNumber":85,"Velocity":64,"Duration":766289,"SoundDuration":766289,"Delta":371357785},{"NoteNumber":40,"Velocity":45,"Duration":337780,"SoundDuration":337780,"Delta":371357785},{"NoteNumber":58,"Velocity":33,"Duration":304002,"SoundDuration":304002,"Delta":371695566},{"NoteNumber":61,"Velocity":38,"Duration":304002,"SoundDuration":304002,"Delta":371695566},{"NoteNumber":54,"Velocity":33,"Duration":304002,"SoundDuration":304002,"Delta":371695566},{"NoteNumber":52,"Velocity":33,"Duration":304002,"SoundDuration":304002,"Delta":371695566},{"NoteNumber":58,"Velocity":29,"Duration":326619,"SoundDuration":326619,"Delta":372033346},{"NoteNumber":54,"Velocity":29,"Duration":326619,"SoundDuration":326619,"Delta":372033346},{"NoteNumber":60,"Velocity":35,"Duration":326619,"SoundDuration":326619,"Delta":372033346},{"NoteNumber":52,"Velocity":29,"Duration":326619,"SoundDuration":326619,"Delta":372033346},{"NoteNumber":84,"Velocity":53,"Duration":272182,"SoundDuration":272182,"Delta":372124074},{"NoteNumber":72,"Velocity":45,"Duration":272182,"SoundDuration":272182,"Delta":372124074},{"NoteNumber":72,"Velocity":46,"Duration":325256,"SoundDuration":325256,"Delta":372396257},{"NoteNumber":84,"Velocity":55,"Duration":325256,"SoundDuration":325256,"Delta":372396257},{"NoteNumber":41,"Velocity":39,"Duration":325256,"SoundDuration":325256,"Delta":372396257},{"NoteNumber":75,"Velocity":38,"Duration":325255,"SoundDuration":325255,"Delta":372721513},{"NoteNumber":87,"Velocity":45,"Duration":325255,"SoundDuration":325255,"Delta":372721513},{"NoteNumber":57,"Velocity":28,"Duration":325255,"SoundDuration":325255,"Delta":372721513},{"NoteNumber":53,"Velocity":28,"Duration":325255,"SoundDuration":325255,"Delta":372721513},{"NoteNumber":60,"Velocity":28,"Duration":325255,"SoundDuration":325255,"Delta":372721513},{"NoteNumber":66,"Velocity":33,"Duration":325255,"SoundDuration":325255,"Delta":372721513},{"NoteNumber":69,"Velocity":38,"Duration":399201,"SoundDuration":399201,"Delta":373046769},{"NoteNumber":81,"Velocity":45,"Duration":399201,"SoundDuration":399201,"Delta":373046769},{"NoteNumber":53,"Velocity":28,"Duration":399201,"SoundDuration":399201,"Delta":373046769},{"NoteNumber":60,"Velocity":28,"Duration":399201,"SoundDuration":399201,"Delta":373046769},{"NoteNumber":63,"Velocity":28,"Duration":399201,"SoundDuration":399201,"Delta":373046769},{"NoteNumber":65,"Velocity":33,"Duration":399201,"SoundDuration":399201,"Delta":373046769},{"NoteNumber":70,"Velocity":46,"Duration":1704987,"SoundDuration":1704987,"Delta":373445971},{"NoteNumber":82,"Velocity":55,"Duration":1704987,"SoundDuration":1704987,"Delta":373445971},{"NoteNumber":46,"Velocity":42,"Duration":332667,"SoundDuration":332667,"Delta":373445971},{"NoteNumber":53,"Velocity":28,"Duration":316177,"SoundDuration":316177,"Delta":373778639},{"NoteNumber":65,"Velocity":33,"Duration":316177,"SoundDuration":316177,"Delta":373778639},{"NoteNumber":61,"Velocity":28,"Duration":316177,"SoundDuration":316177,"Delta":373778639},{"NoteNumber":53,"Velocity":28,"Duration":379987,"SoundDuration":379987,"Delta":374129947},{"NoteNumber":63,"Velocity":33,"Duration":379987,"SoundDuration":379987,"Delta":374129947},{"NoteNumber":60,"Velocity":28,"Duration":379987,"SoundDuration":379987,"Delta":374129947},{"NoteNumber":61,"Velocity":40,"Duration":593812,"SoundDuration":593812,"Delta":374552155},{"NoteNumber":53,"Velocity":34,"Duration":598802,"SoundDuration":598802,"Delta":374552155},{"NoteNumber":58,"Velocity":34,"Duration":598802,"SoundDuration":598802,"Delta":374552155},{"NoteNumber":73,"Velocity":72,"Duration":490311,"SoundDuration":490311,"Delta":375150958},{"NoteNumber":61,"Velocity":72,"Duration":490311,"SoundDuration":490311,"Delta":375150958},{"NoteNumber":73,"Velocity":80,"Duration":998003,"SoundDuration":998003,"Delta":375697094},{"NoteNumber":61,"Velocity":80,"Duration":998003,"SoundDuration":998003,"Delta":375697094},{"NoteNumber":37,"Velocity":50,"Duration":166334,"SoundDuration":166334,"Delta":375697094},{"NoteNumber":53,"Velocity":35,"Duration":299401,"SoundDuration":299401,"Delta":376029762},{"NoteNumber":49,"Velocity":35,"Duration":299401,"SoundDuration":299401,"Delta":376029762},{"NoteNumber":56,"Velocity":40,"Duration":299401,"SoundDuration":299401,"Delta":376029762},{"NoteNumber":49,"Velocity":35,"Duration":299401,"SoundDuration":299401,"Delta":376362430},{"NoteNumber":56,"Velocity":40,"Duration":299401,"SoundDuration":299401,"Delta":376362430},{"NoteNumber":53,"Velocity":35,"Duration":299401,"SoundDuration":299401,"Delta":376362430},{"NoteNumber":73,"Velocity":78,"Duration":332668,"SoundDuration":332668,"Delta":376695098},{"NoteNumber":61,"Velocity":78,"Duration":332668,"SoundDuration":332668,"Delta":376695098},{"NoteNumber":49,"Velocity":35,"Duration":299401,"SoundDuration":299401,"Delta":376695098},{"NoteNumber":53,"Velocity":35,"Duration":299401,"SoundDuration":299401,"Delta":376695098},{"NoteNumber":57,"Velocity":50,"Duration":299401,"SoundDuration":299401,"Delta":376695098},{"NoteNumber":63,"Velocity":73,"Duration":332419,"SoundDuration":332419,"Delta":377027766},{"NoteNumber":75,"Velocity":73,"Duration":332419,"SoundDuration":332419,"Delta":377027766},{"NoteNumber":53,"Velocity":35,"Duration":299202,"SoundDuration":299202,"Delta":377027766},{"NoteNumber":49,"Velocity":35,"Duration":299202,"SoundDuration":299202,"Delta":377027766},{"NoteNumber":57,"Velocity":40,"Duration":299202,"SoundDuration":299202,"Delta":377027766},{"NoteNumber":61,"Velocity":74,"Duration":362910,"SoundDuration":362910,"Delta":377360185},{"NoteNumber":73,"Velocity":74,"Duration":362910,"SoundDuration":362910,"Delta":377360185},{"NoteNumber":57,"Velocity":40,"Duration":326619,"SoundDuration":326619,"Delta":377360185},{"NoteNumber":49,"Velocity":35,"Duration":326619,"SoundDuration":326619,"Delta":377360185},{"NoteNumber":53,"Velocity":35,"Duration":326619,"SoundDuration":326619,"Delta":377360185},{"NoteNumber":61,"Velocity":80,"Duration":983122,"SoundDuration":983122,"Delta":377723096},{"NoteNumber":73,"Velocity":80,"Duration":983122,"SoundDuration":983122,"Delta":377723096},{"NoteNumber":42,"Velocity":50,"Duration":163853,"SoundDuration":163853,"Delta":377723096},{"NoteNumber":49,"Velocity":35,"Duration":294936,"SoundDuration":294936,"Delta":378050803},{"NoteNumber":54,"Velocity":34,"Duration":294936,"SoundDuration":294936,"Delta":378050803},{"NoteNumber":58,"Velocity":39,"Duration":294936,"SoundDuration":294936,"Delta":378050803},{"NoteNumber":49,"Velocity":35,"Duration":294936,"SoundDuration":294936,"Delta":378378511},{"NoteNumber":58,"Velocity":40,"Duration":290840,"SoundDuration":290840,"Delta":378378511},{"NoteNumber":54,"Velocity":35,"Duration":294936,"SoundDuration":294936,"Delta":378378511},{"NoteNumber":70,"Velocity":70,"Duration":773976,"SoundDuration":773976,"Delta":378706219},{"NoteNumber":58,"Velocity":70,"Duration":245780,"SoundDuration":245780,"Delta":378706219},{"NoteNumber":38,"Velocity":44,"Duration":163853,"SoundDuration":163853,"Delta":378706219},{"NoteNumber":50,"Velocity":37,"Duration":321313,"SoundDuration":321313,"Delta":379033926},{"NoteNumber":53,"Velocity":37,"Duration":321313,"SoundDuration":321313,"Delta":379033926},{"NoteNumber":58,"Velocity":43,"Duration":321313,"SoundDuration":321313,"Delta":379033926},{"NoteNumber":56,"Velocity":37,"Duration":321313,"SoundDuration":321313,"Delta":379033926},{"NoteNumber":53,"Velocity":40,"Duration":321313,"SoundDuration":321313,"Delta":379390942},{"NoteNumber":56,"Velocity":40,"Duration":321313,"SoundDuration":321313,"Delta":379390942},{"NoteNumber":50,"Velocity":40,"Duration":321313,"SoundDuration":321313,"Delta":379390942},{"NoteNumber":58,"Velocity":46,"Duration":321313,"SoundDuration":321313,"Delta":379390942},{"NoteNumber":82,"Velocity":77,"Duration":267761,"SoundDuration":267761,"Delta":379480196},{"NoteNumber":70,"Velocity":77,"Duration":267761,"SoundDuration":267761,"Delta":379480196},{"NoteNumber":82,"Velocity":83,"Duration":698557,"SoundDuration":698557,"Delta":379747957},{"NoteNumber":70,"Velocity":83,"Duration":698557,"SoundDuration":698557,"Delta":379747957},{"NoteNumber":39,"Velocity":62,"Duration":154607,"SoundDuration":154607,"Delta":379747957},{"NoteNumber":58,"Velocity":50,"Duration":309214,"SoundDuration":309214,"Delta":380057172},{"NoteNumber":54,"Velocity":43,"Duration":309214,"SoundDuration":309214,"Delta":380057172},{"NoteNumber":51,"Velocity":43,"Duration":309214,"SoundDuration":309214,"Delta":380057172},{"NoteNumber":51,"Velocity":43,"Duration":320512,"SoundDuration":320512,"Delta":380366386},{"NoteNumber":54,"Velocity":43,"Duration":320512,"SoundDuration":320512,"Delta":380366386},{"NoteNumber":59,"Velocity":50,"Duration":320512,"SoundDuration":320512,"Delta":380366386},{"NoteNumber":71,"Velocity":86,"Duration":560897,"SoundDuration":560897,"Delta":380446515},{"NoteNumber":83,"Velocity":86,"Duration":560897,"SoundDuration":560897,"Delta":380446515},{"NoteNumber":40,"Velocity":55,"Duration":160256,"SoundDuration":160256,"Delta":380686899},{"NoteNumber":72,"Velocity":83,"Duration":320512,"SoundDuration":320512,"Delta":381007412},{"NoteNumber":84,"Velocity":83,"Duration":320512,"SoundDuration":320512,"Delta":381007412},{"NoteNumber":58,"Velocity":48,"Duration":320512,"SoundDuration":320512,"Delta":381007412},{"NoteNumber":60,"Velocity":60,"Duration":320512,"SoundDuration":320512,"Delta":381007412},{"NoteNumber":52,"Velocity":48,"Duration":320512,"SoundDuration":320512,"Delta":381007412},{"NoteNumber":54,"Velocity":48,"Duration":320512,"SoundDuration":320512,"Delta":381007412},{"NoteNumber":85,"Velocity":85,"Duration":258906,"SoundDuration":258906,"Delta":381327924},{"NoteNumber":73,"Velocity":85,"Duration":258906,"SoundDuration":258906,"Delta":381327924},{"NoteNumber":61,"Velocity":62,"Duration":414250,"SoundDuration":414250,"Delta":381327924},{"NoteNumber":52,"Velocity":52,"Duration":414250,"SoundDuration":414250,"Delta":381327924},{"NoteNumber":54,"Velocity":52,"Duration":414250,"SoundDuration":414250,"Delta":381327924},{"NoteNumber":58,"Velocity":52,"Duration":414250,"SoundDuration":414250,"Delta":381327924},{"NoteNumber":85,"Velocity":80,"Duration":155343,"SoundDuration":155343,"Delta":381586831},{"NoteNumber":77,"Velocity":90,"Duration":737342,"SoundDuration":737342,"Delta":381742175},{"NoteNumber":89,"Velocity":90,"Duration":737342,"SoundDuration":737342,"Delta":381742175},{"NoteNumber":41,"Velocity":78,"Duration":163853,"SoundDuration":163853,"Delta":381742175},{"NoteNumber":61,"Velocity":57,"Duration":294936,"SoundDuration":294936,"Delta":382069882},{"NoteNumber":53,"Velocity":46,"Duration":294936,"SoundDuration":294936,"Delta":382069882},{"NoteNumber":58,"Velocity":46,"Duration":294936,"SoundDuration":294936,"Delta":382069882},{"NoteNumber":53,"Velocity":43,"Duration":294936,"SoundDuration":294936,"Delta":382397590},{"NoteNumber":61,"Velocity":53,"Duration":294936,"SoundDuration":294936,"Delta":382397590},{"NoteNumber":58,"Velocity":43,"Duration":294936,"SoundDuration":294936,"Delta":382397590},{"NoteNumber":73,"Velocity":83,"Duration":245780,"SoundDuration":245780,"Delta":382479517},{"NoteNumber":85,"Velocity":83,"Duration":245780,"SoundDuration":245780,"Delta":382479517},{"NoteNumber":84,"Velocity":78,"Duration":473859,"SoundDuration":473859,"Delta":382725298},{"NoteNumber":72,"Velocity":78,"Duration":473859,"SoundDuration":473859,"Delta":382725298},{"NoteNumber":57,"Velocity":44,"Duration":284315,"SoundDuration":284315,"Delta":382725298},{"NoteNumber":53,"Velocity":44,"Duration":284315,"SoundDuration":284315,"Delta":382725298},{"NoteNumber":60,"Velocity":52,"Duration":284315,"SoundDuration":284315,"Delta":382725298},{"NoteNumber":57,"Velocity":34,"Duration":292860,"SoundDuration":292860,"Delta":383041204},{"NoteNumber":60,"Velocity":39,"Duration":292860,"SoundDuration":292860,"Delta":383041204},{"NoteNumber":53,"Velocity":34,"Duration":292860,"SoundDuration":292860,"Delta":383041204},{"NoteNumber":53,"Velocity":28,"Duration":340715,"SoundDuration":340715,"Delta":383367791},{"NoteNumber":60,"Velocity":33,"Duration":335983,"SoundDuration":335983,"Delta":383367791},{"NoteNumber":57,"Velocity":28,"Duration":340715,"SoundDuration":340715,"Delta":383367791},{"NoteNumber":60,"Velocity":42,"Duration":320874,"SoundDuration":320874,"Delta":383746363},{"NoteNumber":72,"Velocity":50,"Duration":484339,"SoundDuration":484339,"Delta":383746363},{"NoteNumber":45,"Velocity":52,"Duration":322893,"SoundDuration":322893,"Delta":383746363},{"NoteNumber":53,"Velocity":25,"Duration":290603,"SoundDuration":290603,"Delta":384069256},{"NoteNumber":57,"Velocity":25,"Duration":290603,"SoundDuration":290603,"Delta":384069256},{"NoteNumber":60,"Velocity":30,"Duration":290603,"SoundDuration":290603,"Delta":384069256},{"NoteNumber":65,"Velocity":36,"Duration":484339,"SoundDuration":484339,"Delta":384230703},{"NoteNumber":77,"Velocity":43,"Duration":484339,"SoundDuration":484339,"Delta":384230703},{"NoteNumber":52,"Velocity":25,"Duration":290603,"SoundDuration":290603,"Delta":384392149},{"NoteNumber":57,"Velocity":25,"Duration":290603,"SoundDuration":290603,"Delta":384392149},{"NoteNumber":60,"Velocity":30,"Duration":290603,"SoundDuration":290603,"Delta":384392149},{"NoteNumber":69,"Velocity":39,"Duration":484339,"SoundDuration":484339,"Delta":384715042},{"NoteNumber":81,"Velocity":47,"Duration":484339,"SoundDuration":484339,"Delta":384715042},{"NoteNumber":60,"Velocity":30,"Duration":290603,"SoundDuration":290603,"Delta":384715042},{"NoteNumber":57,"Velocity":25,"Duration":290603,"SoundDuration":290603,"Delta":384715042},{"NoteNumber":53,"Velocity":25,"Duration":290603,"SoundDuration":290603,"Delta":384715042},{"NoteNumber":53,"Velocity":25,"Duration":290603,"SoundDuration":290603,"Delta":385037935},{"NoteNumber":57,"Velocity":25,"Duration":290603,"SoundDuration":290603,"Delta":385037935},{"NoteNumber":62,"Velocity":30,"Duration":290603,"SoundDuration":290603,"Delta":385037935},{"NoteNumber":72,"Velocity":39,"Duration":484339,"SoundDuration":484339,"Delta":385199382},{"NoteNumber":84,"Velocity":47,"Duration":484339,"SoundDuration":484339,"Delta":385199382},{"NoteNumber":57,"Velocity":25,"Duration":290603,"SoundDuration":290603,"Delta":385360828},{"NoteNumber":60,"Velocity":30,"Duration":290603,"SoundDuration":290603,"Delta":385360828},{"NoteNumber":53,"Velocity":25,"Duration":290603,"SoundDuration":290603,"Delta":385360828},{"NoteNumber":84,"Velocity":55,"Duration":968679,"SoundDuration":968679,"Delta":385683721},{"NoteNumber":72,"Velocity":46,"Duration":968679,"SoundDuration":968679,"Delta":385683721},{"NoteNumber":46,"Velocity":44,"Duration":322892,"SoundDuration":322892,"Delta":385683721},{"NoteNumber":54,"Velocity":25,"Duration":290603,"SoundDuration":290603,"Delta":386006614},{"NoteNumber":63,"Velocity":30,"Duration":290603,"SoundDuration":290603,"Delta":386006614},{"NoteNumber":57,"Velocity":25,"Duration":290603,"SoundDuration":290603,"Delta":386006614},{"NoteNumber":62,"Velocity":30,"Duration":290603,"SoundDuration":290603,"Delta":386329507},{"NoteNumber":54,"Velocity":25,"Duration":290603,"SoundDuration":290603,"Delta":386329507},{"NoteNumber":57,"Velocity":25,"Duration":290603,"SoundDuration":290603,"Delta":386329507},{"NoteNumber":70,"Velocity":42,"Duration":307077,"SoundDuration":307077,"Delta":386652400},{"NoteNumber":82,"Velocity":50,"Duration":307077,"SoundDuration":307077,"Delta":386652400},{"NoteNumber":58,"Velocity":25,"Duration":276370,"SoundDuration":276370,"Delta":386652400},{"NoteNumber":55,"Velocity":25,"Duration":276370,"SoundDuration":276370,"Delta":386652400},{"NoteNumber":62,"Velocity":30,"Duration":276370,"SoundDuration":276370,"Delta":386652400},{"NoteNumber":69,"Velocity":37,"Duration":307077,"SoundDuration":307077,"Delta":386959478},{"NoteNumber":81,"Velocity":44,"Duration":307077,"SoundDuration":307077,"Delta":386959478},{"NoteNumber":60,"Velocity":25,"Duration":276370,"SoundDuration":276370,"Delta":386959478},{"NoteNumber":62,"Velocity":30,"Duration":276370,"SoundDuration":276370,"Delta":386959478},{"NoteNumber":57,"Velocity":25,"Duration":276370,"SoundDuration":276370,"Delta":386959478},{"NoteNumber":67,"Velocity":37,"Duration":340425,"SoundDuration":340425,"Delta":387266556},{"NoteNumber":79,"Velocity":44,"Duration":340425,"SoundDuration":340425,"Delta":387266556},{"NoteNumber":58,"Velocity":25,"Duration":306383,"SoundDuration":306383,"Delta":387266556},{"NoteNumber":62,"Velocity":30,"Duration":306383,"SoundDuration":306383,"Delta":387266556},{"NoteNumber":79,"Velocity":50,"Duration":298730,"SoundDuration":298730,"Delta":387606982},{"NoteNumber":67,"Velocity":42,"Duration":298730,"SoundDuration":298730,"Delta":387606982},{"NoteNumber":48,"Velocity":40,"Duration":298730,"SoundDuration":298730,"Delta":387606982},{"NoteNumber":69,"Velocity":37,"Duration":268857,"SoundDuration":268857,"Delta":387905712},{"NoteNumber":81,"Velocity":44,"Duration":268857,"SoundDuration":268857,"Delta":387905712},{"NoteNumber":57,"Velocity":28,"Duration":268857,"SoundDuration":268857,"Delta":387905712},{"NoteNumber":60,"Velocity":33,"Duration":268857,"SoundDuration":268857,"Delta":387905712},{"NoteNumber":65,"Velocity":37,"Duration":292730,"SoundDuration":292730,"Delta":388204443},{"NoteNumber":77,"Velocity":44,"Duration":292730,"SoundDuration":292730,"Delta":388204443},{"NoteNumber":57,"Velocity":27,"Duration":292730,"SoundDuration":292730,"Delta":388204443},{"NoteNumber":60,"Velocity":32,"Duration":292730,"SoundDuration":292730,"Delta":388204443},{"NoteNumber":65,"Velocity":42,"Duration":304924,"SoundDuration":304924,"Delta":388529699},{"NoteNumber":77,"Velocity":50,"Duration":304924,"SoundDuration":304924,"Delta":388529699},{"NoteNumber":48,"Velocity":39,"Duration":304924,"SoundDuration":304924,"Delta":388529699},{"NoteNumber":67,"Velocity":37,"Duration":274432,"SoundDuration":274432,"Delta":388834623},{"NoteNumber":79,"Velocity":44,"Duration":274432,"SoundDuration":274432,"Delta":388834623},{"NoteNumber":60,"Velocity":32,"Duration":274432,"SoundDuration":274432,"Delta":388834623},{"NoteNumber":55,"Velocity":27,"Duration":274432,"SoundDuration":274432,"Delta":388834623},{"NoteNumber":58,"Velocity":27,"Duration":274432,"SoundDuration":274432,"Delta":388834623},{"NoteNumber":64,"Velocity":37,"Duration":297127,"SoundDuration":297127,"Delta":389139548},{"NoteNumber":76,"Velocity":44,"Duration":297127,"SoundDuration":297127,"Delta":389139548},{"NoteNumber":60,"Velocity":32,"Duration":297127,"SoundDuration":297127,"Delta":389139548},{"NoteNumber":58,"Velocity":27,"Duration":297127,"SoundDuration":297127,"Delta":389139548},{"NoteNumber":55,"Velocity":27,"Duration":297127,"SoundDuration":297127,"Delta":389139548},{"NoteNumber":77,"Velocity":49,"Duration":907666,"SoundDuration":907666,"Delta":389469690},{"NoteNumber":65,"Velocity":41,"Duration":907666,"SoundDuration":907666,"Delta":389469690},{"NoteNumber":41,"Velocity":40,"Duration":294724,"SoundDuration":294724,"Delta":389469690},{"NoteNumber":53,"Velocity":27,"Duration":294724,"SoundDuration":294724,"Delta":389764414},{"NoteNumber":57,"Velocity":27,"Duration":294724,"SoundDuration":294724,"Delta":389764414},{"NoteNumber":60,"Velocity":32,"Duration":294724,"SoundDuration":294724,"Delta":389764414},{"NoteNumber":53,"Velocity":32,"Duration":318218,"SoundDuration":318218,"Delta":390059139},{"NoteNumber":75,"Velocity":56,"Duration":294724,"SoundDuration":294724,"Delta":390377357},{"NoteNumber":63,"Velocity":47,"Duration":294724,"SoundDuration":294724,"Delta":390377357},{"NoteNumber":51,"Velocity":40,"Duration":294724,"SoundDuration":294724,"Delta":390377357},{"NoteNumber":53,"Velocity":34,"Duration":221043,"SoundDuration":221043,"Delta":390377357},{"NoteNumber":73,"Velocity":59,"Duration":294724,"SoundDuration":294724,"Delta":390672081},{"NoteNumber":61,"Velocity":50,"Duration":294724,"SoundDuration":294724,"Delta":390672081},{"NoteNumber":53,"Velocity":37,"Duration":221043,"SoundDuration":221043,"Delta":390672081},{"NoteNumber":49,"Velocity":44,"Duration":294724,"SoundDuration":294724,"Delta":390672081},{"NoteNumber":72,"Velocity":63,"Duration":375305,"SoundDuration":375305,"Delta":390966805},{"NoteNumber":60,"Velocity":53,"Duration":375305,"SoundDuration":375305,"Delta":390966805},{"NoteNumber":48,"Velocity":48,"Duration":375305,"SoundDuration":375305,"Delta":390966805},{"NoteNumber":53,"Velocity":40,"Duration":281478,"SoundDuration":281478,"Delta":390966805},{"NoteNumber":72,"Velocity":66,"Duration":983122,"SoundDuration":983122,"Delta":391342110},{"NoteNumber":60,"Velocity":56,"Duration":983122,"SoundDuration":983122,"Delta":391342110},{"NoteNumber":30,"Velocity":42,"Duration":163853,"SoundDuration":163853,"Delta":391342110},{"NoteNumber":42,"Velocity":50,"Duration":163853,"SoundDuration":163853,"Delta":391342110},{"NoteNumber":49,"Velocity":44,"Duration":294936,"SoundDuration":294936,"Delta":391669818},{"NoteNumber":46,"Velocity":37,"Duration":294936,"SoundDuration":294936,"Delta":391669818},{"NoteNumber":42,"Velocity":37,"Duration":294936,"SoundDuration":294936,"Delta":391669818},{"NoteNumber":48,"Velocity":44,"Duration":294936,"SoundDuration":294936,"Delta":391997526},{"NoteNumber":42,"Velocity":37,"Duration":294936,"SoundDuration":294936,"Delta":391997526},{"NoteNumber":46,"Velocity":37,"Duration":294936,"SoundDuration":294936,"Delta":391997526},{"NoteNumber":58,"Velocity":51,"Duration":442405,"SoundDuration":442405,"Delta":392325233},{"NoteNumber":70,"Velocity":61,"Duration":442405,"SoundDuration":442405,"Delta":392325233},{"NoteNumber":49,"Velocity":51,"Duration":294936,"SoundDuration":294936,"Delta":392325233},{"NoteNumber":46,"Velocity":43,"Duration":294936,"SoundDuration":294936,"Delta":392325233},{"NoteNumber":42,"Velocity":43,"Duration":294936,"SoundDuration":294936,"Delta":392325233},{"NoteNumber":51,"Velocity":45,"Duration":296722,"SoundDuration":296722,"Delta":392652941},{"NoteNumber":42,"Velocity":38,"Duration":296722,"SoundDuration":296722,"Delta":392652941},{"NoteNumber":46,"Velocity":38,"Duration":296722,"SoundDuration":296722,"Delta":392652941},{"NoteNumber":70,"Velocity":61,"Duration":474559,"SoundDuration":474559,"Delta":392816795},{"NoteNumber":58,"Velocity":51,"Duration":474559,"SoundDuration":474559,"Delta":392816795},{"NoteNumber":42,"Velocity":38,"Duration":326619,"SoundDuration":326619,"Delta":392982880},{"NoteNumber":49,"Velocity":45,"Duration":326619,"SoundDuration":326619,"Delta":392982880},{"NoteNumber":46,"Velocity":38,"Duration":326619,"SoundDuration":326619,"Delta":392982880},{"NoteNumber":60,"Velocity":59,"Duration":975768,"SoundDuration":975768,"Delta":393345791},{"NoteNumber":72,"Velocity":70,"Duration":975768,"SoundDuration":975768,"Delta":393345791},{"NoteNumber":41,"Velocity":51,"Duration":162627,"SoundDuration":162627,"Delta":393345791},{"NoteNumber":29,"Velocity":43,"Duration":162627,"SoundDuration":162627,"Delta":393345791},{"NoteNumber":41,"Velocity":36,"Duration":292730,"SoundDuration":292730,"Delta":393671047},{"NoteNumber":46,"Velocity":36,"Duration":292730,"SoundDuration":292730,"Delta":393671047},{"NoteNumber":49,"Velocity":43,"Duration":292730,"SoundDuration":292730,"Delta":393671047},{"NoteNumber":41,"Velocity":36,"Duration":292730,"SoundDuration":292730,"Delta":393996303},{"NoteNumber":46,"Velocity":36,"Duration":292730,"SoundDuration":292730,"Delta":393996303},{"NoteNumber":48,"Velocity":43,"Duration":292730,"SoundDuration":292730,"Delta":393996303},{"NoteNumber":70,"Velocity":63,"Duration":439095,"SoundDuration":439095,"Delta":394321559},{"NoteNumber":58,"Velocity":53,"Duration":439095,"SoundDuration":439095,"Delta":394321559},{"NoteNumber":49,"Velocity":51,"Duration":292730,"SoundDuration":292730,"Delta":394321559},{"NoteNumber":46,"Velocity":43,"Duration":292730,"SoundDuration":292730,"Delta":394321559},{"NoteNumber":41,"Velocity":43,"Duration":292730,"SoundDuration":292730,"Delta":394321559},{"NoteNumber":51,"Velocity":46,"Duration":296496,"SoundDuration":296496,"Delta":394646815},{"NoteNumber":41,"Velocity":39,"Duration":296496,"SoundDuration":296496,"Delta":394646815},{"NoteNumber":46,"Velocity":39,"Duration":296496,"SoundDuration":296496,"Delta":394646815},{"NoteNumber":70,"Velocity":68,"Duration":475810,"SoundDuration":475810,"Delta":394809443},{"NoteNumber":58,"Velocity":57,"Duration":475810,"SoundDuration":475810,"Delta":394809443},{"NoteNumber":41,"Velocity":39,"Duration":326619,"SoundDuration":326619,"Delta":394976779},{"NoteNumber":46,"Velocity":39,"Duration":326619,"SoundDuration":326619,"Delta":394976779},{"NoteNumber":49,"Velocity":46,"Duration":326619,"SoundDuration":326619,"Delta":394976779},{"NoteNumber":59,"Velocity":58,"Duration":325256,"SoundDuration":325256,"Delta":395339690},{"NoteNumber":71,"Velocity":70,"Duration":325256,"SoundDuration":325256,"Delta":395339690},{"NoteNumber":38,"Velocity":51,"Duration":162627,"SoundDuration":162627,"Delta":395339690},{"NoteNumber":58,"Velocity":53,"Duration":325255,"SoundDuration":325255,"Delta":395664946},{"NoteNumber":70,"Velocity":62,"Duration":325255,"SoundDuration":325255,"Delta":395664946},{"NoteNumber":53,"Velocity":34,"Duration":292730,"SoundDuration":292730,"Delta":395664946},{"NoteNumber":50,"Velocity":34,"Duration":292730,"SoundDuration":292730,"Delta":395664946},{"NoteNumber":56,"Velocity":41,"Duration":292730,"SoundDuration":292730,"Delta":395664946},{"NoteNumber":62,"Velocity":54,"Duration":325256,"SoundDuration":325256,"Delta":395990202},{"NoteNumber":74,"Velocity":64,"Duration":325256,"SoundDuration":325256,"Delta":395990202},{"NoteNumber":53,"Velocity":35,"Duration":292730,"SoundDuration":292730,"Delta":395990202},{"NoteNumber":57,"Velocity":41,"Duration":292730,"SoundDuration":292730,"Delta":395990202},{"NoteNumber":50,"Velocity":35,"Duration":292730,"SoundDuration":292730,"Delta":395990202},{"NoteNumber":65,"Velocity":59,"Duration":313676,"SoundDuration":313676,"Delta":396315458},{"NoteNumber":77,"Velocity":70,"Duration":313676,"SoundDuration":313676,"Delta":396315458},{"NoteNumber":53,"Velocity":40,"Duration":282308,"SoundDuration":282308,"Delta":396315458},{"NoteNumber":50,"Velocity":40,"Duration":282308,"SoundDuration":282308,"Delta":396315458},{"NoteNumber":58,"Velocity":47,"Duration":282308,"SoundDuration":282308,"Delta":396315458},{"NoteNumber":80,"Velocity":74,"Duration":313676,"SoundDuration":313676,"Delta":396629134},{"NoteNumber":68,"Velocity":62,"Duration":313676,"SoundDuration":313676,"Delta":396629134},{"NoteNumber":56,"Velocity":52,"Duration":282308,"SoundDuration":282308,"Delta":396629134},{"NoteNumber":50,"Velocity":44,"Duration":282308,"SoundDuration":282308,"Delta":396629134},{"NoteNumber":53,"Velocity":44,"Duration":282308,"SoundDuration":282308,"Delta":396629134},{"NoteNumber":77,"Velocity":67,"Duration":381825,"SoundDuration":381825,"Delta":396942810},{"NoteNumber":71,"Velocity":67,"Duration":381825,"SoundDuration":381825,"Delta":396942810},{"NoteNumber":80,"Velocity":67,"Duration":381825,"SoundDuration":381825,"Delta":396942810},{"NoteNumber":83,"Velocity":79,"Duration":381825,"SoundDuration":381825,"Delta":396942810},{"NoteNumber":56,"Velocity":48,"Duration":343642,"SoundDuration":343642,"Delta":396942810},{"NoteNumber":50,"Velocity":48,"Duration":343642,"SoundDuration":343642,"Delta":396942810},{"NoteNumber":59,"Velocity":57,"Duration":343642,"SoundDuration":343642,"Delta":396942810},{"NoteNumber":53,"Velocity":48,"Duration":343642,"SoundDuration":343642,"Delta":396942810},{"NoteNumber":80,"Velocity":71,"Duration":983122,"SoundDuration":983122,"Delta":397324635},{"NoteNumber":82,"Velocity":84,"Duration":1505861,"SoundDuration":1505861,"Delta":397324635},{"NoteNumber":77,"Velocity":71,"Duration":983122,"SoundDuration":983122,"Delta":397324635},{"NoteNumber":70,"Velocity":71,"Duration":1505861,"SoundDuration":1505861,"Delta":397324635},{"NoteNumber":39,"Velocity":62,"Duration":163853,"SoundDuration":163853,"Delta":397324635},{"NoteNumber":51,"Velocity":34,"Duration":294936,"SoundDuration":294936,"Delta":397652343},{"NoteNumber":54,"Velocity":34,"Duration":294936,"SoundDuration":294936,"Delta":397652343},{"NoteNumber":58,"Velocity":41,"Duration":294936,"SoundDuration":294936,"Delta":397652343},{"NoteNumber":51,"Velocity":34,"Duration":294936,"SoundDuration":294936,"Delta":397980051},{"NoteNumber":54,"Velocity":34,"Duration":294936,"SoundDuration":294936,"Delta":397980051},{"NoteNumber":57,"Velocity":41,"Duration":294936,"SoundDuration":294936,"Delta":397980051},{"NoteNumber":78,"Velocity":64,"Duration":522739,"SoundDuration":522739,"Delta":398307758},{"NoteNumber":75,"Velocity":56,"Duration":522739,"SoundDuration":522739,"Delta":398307758},{"NoteNumber":51,"Velocity":41,"Duration":313643,"SoundDuration":313643,"Delta":398307758},{"NoteNumber":58,"Velocity":49,"Duration":313643,"SoundDuration":313643,"Delta":398307758},{"NoteNumber":54,"Velocity":41,"Duration":313643,"SoundDuration":313643,"Delta":398307758},{"NoteNumber":59,"Velocity":40,"Duration":309153,"SoundDuration":309153,"Delta":398656251},{"NoteNumber":54,"Velocity":34,"Duration":309153,"SoundDuration":309153,"Delta":398656251},{"NoteNumber":51,"Velocity":34,"Duration":309153,"SoundDuration":309153,"Delta":398656251},{"NoteNumber":63,"Velocity":47,"Duration":547206,"SoundDuration":547206,"Delta":398830497},{"NoteNumber":75,"Velocity":56,"Duration":547206,"SoundDuration":547206,"Delta":398830497},{"NoteNumber":54,"Velocity":34,"Duration":340715,"SoundDuration":340715,"Delta":398999131},{"NoteNumber":58,"Velocity":40,"Duration":340715,"SoundDuration":340715,"Delta":398999131},{"NoteNumber":51,"Velocity":34,"Duration":340715,"SoundDuration":340715,"Delta":398999131},{"NoteNumber":61,"Velocity":52,"Duration":742819,"SoundDuration":742819,"Delta":399377704},{"NoteNumber":73,"Velocity":62,"Duration":742819,"SoundDuration":742819,"Delta":399377704},{"NoteNumber":46,"Velocity":40,"Duration":330142,"SoundDuration":330142,"Delta":399377704},{"NoteNumber":54,"Velocity":23,"Duration":297127,"SoundDuration":297127,"Delta":399707846},{"NoteNumber":58,"Velocity":33,"Duration":297127,"SoundDuration":297127,"Delta":399707846},{"NoteNumber":58,"Velocity":33,"Duration":297127,"SoundDuration":297127,"Delta":400037988},{"NoteNumber":54,"Velocity":23,"Duration":297127,"SoundDuration":297127,"Delta":400037988},{"NoteNumber":72,"Velocity":56,"Duration":222845,"SoundDuration":222845,"Delta":400120523},{"NoteNumber":60,"Velocity":47,"Duration":222845,"SoundDuration":222845,"Delta":400120523},{"NoteNumber":60,"Velocity":50,"Duration":330141,"SoundDuration":330141,"Delta":400368130},{"NoteNumber":72,"Velocity":60,"Duration":330141,"SoundDuration":330141,"Delta":400368130},{"NoteNumber":58,"Velocity":40,"Duration":297127,"SoundDuration":297127,"Delta":400368130},{"NoteNumber":54,"Velocity":28,"Duration":297127,"SoundDuration":297127,"Delta":400368130},{"NoteNumber":61,"Velocity":47,"Duration":330141,"SoundDuration":330141,"Delta":400698272},{"NoteNumber":73,"Velocity":56,"Duration":330141,"SoundDuration":330141,"Delta":400698272},{"NoteNumber":54,"Velocity":23,"Duration":297127,"SoundDuration":297127,"Delta":400698272},{"NoteNumber":58,"Velocity":33,"Duration":297127,"SoundDuration":297127,"Delta":400698272},{"NoteNumber":75,"Velocity":56,"Duration":242860,"SoundDuration":242860,"Delta":401028414},{"NoteNumber":63,"Velocity":47,"Duration":242860,"SoundDuration":242860,"Delta":401028414},{"NoteNumber":60,"Velocity":33,"Duration":349718,"SoundDuration":349718,"Delta":401028414},{"NoteNumber":58,"Velocity":23,"Duration":349718,"SoundDuration":349718,"Delta":401028414},{"NoteNumber":54,"Velocity":23,"Duration":349718,"SoundDuration":349718,"Delta":401028414},{"NoteNumber":75,"Velocity":46,"Duration":145716,"SoundDuration":145716,"Delta":401271274},{"NoteNumber":78,"Velocity":62,"Duration":742819,"SoundDuration":742819,"Delta":401416990},{"NoteNumber":66,"Velocity":52,"Duration":742819,"SoundDuration":742819,"Delta":401416990},{"NoteNumber":41,"Velocity":40,"Duration":330142,"SoundDuration":330142,"Delta":401416990},{"NoteNumber":58,"Velocity":22,"Duration":297127,"SoundDuration":297127,"Delta":401747132},{"NoteNumber":53,"Velocity":22,"Duration":297127,"SoundDuration":297127,"Delta":401747132},{"NoteNumber":61,"Velocity":31,"Duration":297127,"SoundDuration":297127,"Delta":401747132},{"NoteNumber":58,"Velocity":23,"Duration":297127,"SoundDuration":297127,"Delta":402077274},{"NoteNumber":61,"Velocity":33,"Duration":297127,"SoundDuration":297127,"Delta":402077274},{"NoteNumber":53,"Velocity":23,"Duration":297127,"SoundDuration":297127,"Delta":402077274},{"NoteNumber":65,"Velocity":47,"Duration":222845,"SoundDuration":222845,"Delta":402159809},{"NoteNumber":77,"Velocity":56,"Duration":222845,"SoundDuration":222845,"Delta":402159809},{"NoteNumber":65,"Velocity":47,"Duration":330141,"SoundDuration":330141,"Delta":402407416},{"NoteNumber":77,"Velocity":56,"Duration":330141,"SoundDuration":330141,"Delta":402407416},{"NoteNumber":53,"Velocity":24,"Duration":297127,"SoundDuration":297127,"Delta":402407416},{"NoteNumber":58,"Velocity":24,"Duration":297127,"SoundDuration":297127,"Delta":402407416},{"NoteNumber":61,"Velocity":35,"Duration":297127,"SoundDuration":297127,"Delta":402407416},{"NoteNumber":82,"Velocity":60,"Duration":330142,"SoundDuration":330142,"Delta":402737558},{"NoteNumber":70,"Velocity":50,"Duration":330142,"SoundDuration":330142,"Delta":402737558},{"NoteNumber":61,"Velocity":33,"Duration":297127,"SoundDuration":297127,"Delta":402737558},{"NoteNumber":52,"Velocity":24,"Duration":297127,"SoundDuration":297127,"Delta":402737558},{"NoteNumber":58,"Velocity":23,"Duration":297127,"SoundDuration":297127,"Delta":402737558},{"NoteNumber":85,"Velocity":62,"Duration":330142,"SoundDuration":330142,"Delta":403067700},{"NoteNumber":73,"Velocity":52,"Duration":330142,"SoundDuration":330142,"Delta":403067700},{"NoteNumber":58,"Velocity":23,"Duration":297127,"SoundDuration":297127,"Delta":403067700},{"NoteNumber":61,"Velocity":33,"Duration":297127,"SoundDuration":297127,"Delta":403067700},{"NoteNumber":53,"Velocity":24,"Duration":297127,"SoundDuration":297127,"Delta":403067700},{"NoteNumber":85,"Velocity":64,"Duration":764292,"SoundDuration":764292,"Delta":403397842},{"NoteNumber":73,"Velocity":55,"Duration":764292,"SoundDuration":764292,"Delta":403397842},{"NoteNumber":40,"Velocity":45,"Duration":335233,"SoundDuration":335233,"Delta":403397842},{"NoteNumber":54,"Velocity":33,"Duration":301709,"SoundDuration":301709,"Delta":403733075},{"NoteNumber":61,"Velocity":38,"Duration":301709,"SoundDuration":301709,"Delta":403733075},{"NoteNumber":52,"Velocity":33,"Duration":301709,"SoundDuration":301709,"Delta":403733075},{"NoteNumber":58,"Velocity":33,"Duration":301709,"SoundDuration":301709,"Delta":403733075},{"NoteNumber":54,"Velocity":29,"Duration":337774,"SoundDuration":337774,"Delta":404068308},{"NoteNumber":58,"Velocity":29,"Duration":337774,"SoundDuration":337774,"Delta":404068308},{"NoteNumber":60,"Velocity":35,"Duration":337774,"SoundDuration":337774,"Delta":404068308},{"NoteNumber":52,"Velocity":29,"Duration":337774,"SoundDuration":337774,"Delta":404068308},{"NoteNumber":84,"Velocity":53,"Duration":281478,"SoundDuration":281478,"Delta":404162134},{"NoteNumber":72,"Velocity":45,"Duration":281478,"SoundDuration":281478,"Delta":404162134},{"NoteNumber":84,"Velocity":55,"Duration":327707,"SoundDuration":327707,"Delta":404443613},{"NoteNumber":72,"Velocity":46,"Duration":327707,"SoundDuration":327707,"Delta":404443613},{"NoteNumber":41,"Velocity":39,"Duration":327707,"SoundDuration":327707,"Delta":404443613},{"NoteNumber":75,"Velocity":38,"Duration":327707,"SoundDuration":327707,"Delta":404771321},{"NoteNumber":87,"Velocity":45,"Duration":327707,"SoundDuration":327707,"Delta":404771321},{"NoteNumber":66,"Velocity":33,"Duration":294936,"SoundDuration":294936,"Delta":404771321},{"NoteNumber":57,"Velocity":28,"Duration":294936,"SoundDuration":294936,"Delta":404771321},{"NoteNumber":53,"Velocity":28,"Duration":294936,"SoundDuration":294936,"Delta":404771321},{"NoteNumber":60,"Velocity":28,"Duration":294936,"SoundDuration":294936,"Delta":404771321},{"NoteNumber":81,"Velocity":45,"Duration":402901,"SoundDuration":402901,"Delta":405099028},{"NoteNumber":69,"Velocity":38,"Duration":402901,"SoundDuration":402901,"Delta":405099028},{"NoteNumber":63,"Velocity":28,"Duration":362610,"SoundDuration":362610,"Delta":405099028},{"NoteNumber":53,"Velocity":28,"Duration":362610,"SoundDuration":362610,"Delta":405099028},{"NoteNumber":65,"Velocity":33,"Duration":362610,"SoundDuration":362610,"Delta":405099028},{"NoteNumber":60,"Velocity":28,"Duration":362610,"SoundDuration":362610,"Delta":405099028},{"NoteNumber":82,"Velocity":55,"Duration":1033948,"SoundDuration":1033948,"Delta":405501929},{"NoteNumber":70,"Velocity":46,"Duration":1033948,"SoundDuration":1033948,"Delta":405501929},{"NoteNumber":46,"Velocity":42,"Duration":325256,"SoundDuration":325256,"Delta":405501929},{"NoteNumber":53,"Velocity":28,"Duration":311203,"SoundDuration":311203,"Delta":405827185},{"NoteNumber":58,"Velocity":28,"Duration":311203,"SoundDuration":311203,"Delta":405827185},{"NoteNumber":61,"Velocity":33,"Duration":311203,"SoundDuration":311203,"Delta":405827185},{"NoteNumber":57,"Velocity":28,"Duration":326619,"SoundDuration":326619,"Delta":406172967},{"NoteNumber":53,"Velocity":28,"Duration":326619,"SoundDuration":326619,"Delta":406172967},{"NoteNumber":60,"Velocity":33,"Duration":326619,"SoundDuration":326619,"Delta":406172967},{"NoteNumber":53,"Velocity":38,"Duration":304002,"SoundDuration":304002,"Delta":406535877},{"NoteNumber":58,"Velocity":38,"Duration":304002,"SoundDuration":304002,"Delta":406535877},{"NoteNumber":61,"Velocity":38,"Duration":304002,"SoundDuration":304002,"Delta":406535877},{"NoteNumber":61,"Velocity":26,"Duration":303797,"SoundDuration":303797,"Delta":406873658},{"NoteNumber":53,"Velocity":26,"Duration":303797,"SoundDuration":303797,"Delta":406873658},{"NoteNumber":65,"Velocity":26,"Duration":303797,"SoundDuration":303797,"Delta":406873658},{"NoteNumber":73,"Velocity":51,"Duration":472097,"SoundDuration":472097,"Delta":407042548},{"NoteNumber":53,"Velocity":22,"Duration":321313,"SoundDuration":321313,"Delta":407211182},{"NoteNumber":58,"Velocity":22,"Duration":321313,"SoundDuration":321313,"Delta":407211182},{"NoteNumber":61,"Velocity":22,"Duration":321313,"SoundDuration":321313,"Delta":407211182},{"NoteNumber":73,"Velocity":59,"Duration":737342,"SoundDuration":737342,"Delta":407568198},{"NoteNumber":40,"Velocity":40,"Duration":327707,"SoundDuration":327707,"Delta":407568198},{"NoteNumber":58,"Velocity":23,"Duration":294936,"SoundDuration":294936,"Delta":407895905},{"NoteNumber":52,"Velocity":23,"Duration":294936,"SoundDuration":294936,"Delta":407895905},{"NoteNumber":61,"Velocity":33,"Duration":294936,"SoundDuration":294936,"Delta":407895905},{"NoteNumber":55,"Velocity":23,"Duration":294936,"SoundDuration":294936,"Delta":407895905},{"NoteNumber":58,"Velocity":27,"Duration":327707,"SoundDuration":327707,"Delta":408223613},{"NoteNumber":60,"Velocity":27,"Duration":327707,"SoundDuration":327707,"Delta":408223613},{"NoteNumber":55,"Velocity":27,"Duration":327707,"SoundDuration":327707,"Delta":408223613},{"NoteNumber":52,"Velocity":27,"Duration":327707,"SoundDuration":327707,"Delta":408223613},{"NoteNumber":72,"Velocity":50,"Duration":221202,"SoundDuration":221202,"Delta":408305540},{"NoteNumber":72,"Velocity":56,"Duration":327707,"SoundDuration":327707,"Delta":408551321},{"NoteNumber":41,"Velocity":31,"Duration":327707,"SoundDuration":327707,"Delta":408551321},{"NoteNumber":75,"Velocity":45,"Duration":327707,"SoundDuration":327707,"Delta":408879028},{"NoteNumber":66,"Velocity":38,"Duration":327707,"SoundDuration":327707,"Delta":408879028},{"NoteNumber":57,"Velocity":22,"Duration":294936,"SoundDuration":294936,"Delta":408879028},{"NoteNumber":53,"Velocity":22,"Duration":294936,"SoundDuration":294936,"Delta":408879028},{"NoteNumber":60,"Velocity":26,"Duration":294936,"SoundDuration":294936,"Delta":408879028},{"NoteNumber":65,"Velocity":38,"Duration":337774,"SoundDuration":337774,"Delta":409206736},{"NoteNumber":69,"Velocity":45,"Duration":337774,"SoundDuration":337774,"Delta":409206736},{"NoteNumber":53,"Velocity":22,"Duration":337774,"SoundDuration":337774,"Delta":409206736},{"NoteNumber":63,"Velocity":26,"Duration":337774,"SoundDuration":337774,"Delta":409206736},{"NoteNumber":60,"Velocity":22,"Duration":337774,"SoundDuration":337774,"Delta":409206736},{"NoteNumber":70,"Velocity":55,"Duration":1360976,"SoundDuration":1360976,"Delta":409582041},{"NoteNumber":65,"Velocity":46,"Duration":975768,"SoundDuration":975768,"Delta":409582041},{"NoteNumber":41,"Velocity":35,"Duration":325256,"SoundDuration":325256,"Delta":409582041},{"NoteNumber":53,"Velocity":24,"Duration":292730,"SoundDuration":292730,"Delta":409907297},{"NoteNumber":58,"Velocity":24,"Duration":292730,"SoundDuration":292730,"Delta":409907297},{"NoteNumber":61,"Velocity":29,"Duration":292730,"SoundDuration":292730,"Delta":409907297},{"NoteNumber":60,"Velocity":29,"Duration":292730,"SoundDuration":292730,"Delta":410232553},{"NoteNumber":53,"Velocity":24,"Duration":292730,"SoundDuration":292730,"Delta":410232553},{"NoteNumber":57,"Velocity":24,"Duration":292730,"SoundDuration":292730,"Delta":410232553},{"NoteNumber":58,"Velocity":20,"Duration":346687,"SoundDuration":346687,"Delta":410557809},{"NoteNumber":53,"Velocity":20,"Duration":346687,"SoundDuration":346687,"Delta":410557809},{"NoteNumber":61,"Velocity":35,"Duration":346687,"SoundDuration":346687,"Delta":410557809},{"NoteNumber":73,"Velocity":41,"Duration":354107,"SoundDuration":354107,"Delta":410943017},{"NoteNumber":53,"Velocity":25,"Duration":318696,"SoundDuration":318696,"Delta":410943017},{"NoteNumber":65,"Velocity":30,"Duration":318696,"SoundDuration":318696,"Delta":410943017},{"NoteNumber":61,"Velocity":25,"Duration":318696,"SoundDuration":318696,"Delta":410943017},{"NoteNumber":77,"Velocity":41,"Duration":354107,"SoundDuration":354107,"Delta":411297125},{"NoteNumber":58,"Velocity":25,"Duration":318696,"SoundDuration":318696,"Delta":411297125},{"NoteNumber":53,"Velocity":25,"Duration":318696,"SoundDuration":318696,"Delta":411297125},{"NoteNumber":61,"Velocity":30,"Duration":318696,"SoundDuration":318696,"Delta":411297125},{"NoteNumber":73,"Velocity":42,"Duration":779123,"SoundDuration":779123,"Delta":411651232},{"NoteNumber":77,"Velocity":50,"Duration":779123,"SoundDuration":779123,"Delta":411651232},{"NoteNumber":42,"Velocity":31,"Duration":337780,"SoundDuration":337780,"Delta":411651232},{"NoteNumber":58,"Velocity":31,"Duration":304002,"SoundDuration":304002,"Delta":411989013},{"NoteNumber":54,"Velocity":26,"Duration":304002,"SoundDuration":304002,"Delta":411989013},{"NoteNumber":58,"Velocity":27,"Duration":372825,"SoundDuration":372825,"Delta":412326794},{"NoteNumber":54,"Velocity":27,"Duration":372825,"SoundDuration":372825,"Delta":412326794},{"NoteNumber":60,"Velocity":32,"Duration":372825,"SoundDuration":372825,"Delta":412326794},{"NoteNumber":72,"Velocity":34,"Duration":279618,"SoundDuration":279618,"Delta":412430356},{"NoteNumber":75,"Velocity":41,"Duration":279618,"SoundDuration":279618,"Delta":412430356},{"NoteNumber":75,"Velocity":52,"Duration":316177,"SoundDuration":316177,"Delta":412741044},{"NoteNumber":72,"Velocity":44,"Duration":316177,"SoundDuration":316177,"Delta":412741044},{"NoteNumber":41,"Velocity":38,"Duration":351308,"SoundDuration":351308,"Delta":412741044},{"NoteNumber":78,"Velocity":36,"Duration":316177,"SoundDuration":316177,"Delta":413092353},{"NoteNumber":75,"Velocity":30,"Duration":316177,"SoundDuration":316177,"Delta":413092353},{"NoteNumber":60,"Velocity":29,"Duration":316177,"SoundDuration":316177,"Delta":413092353},{"NoteNumber":53,"Velocity":20,"Duration":316177,"SoundDuration":316177,"Delta":413092353},{"NoteNumber":57,"Velocity":25,"Duration":316177,"SoundDuration":316177,"Delta":413092353},{"NoteNumber":69,"Velocity":30,"Duration":379987,"SoundDuration":379987,"Delta":413443661},{"NoteNumber":72,"Velocity":30,"Duration":379987,"SoundDuration":379987,"Delta":413443661},{"NoteNumber":77,"Velocity":30,"Duration":379987,"SoundDuration":379987,"Delta":413443661},{"NoteNumber":81,"Velocity":36,"Duration":379987,"SoundDuration":379987,"Delta":413443661},{"NoteNumber":53,"Velocity":22,"Duration":379987,"SoundDuration":379987,"Delta":413443661},{"NoteNumber":63,"Velocity":27,"Duration":379987,"SoundDuration":379987,"Delta":413443661},{"NoteNumber":60,"Velocity":22,"Duration":379987,"SoundDuration":379987,"Delta":413443661},{"NoteNumber":70,"Velocity":41,"Duration":3102361,"SoundDuration":3102361,"Delta":413865869},{"NoteNumber":77,"Velocity":41,"Duration":3102361,"SoundDuration":3102361,"Delta":413865869},{"NoteNumber":82,"Velocity":49,"Duration":3102361,"SoundDuration":3102361,"Delta":413865869},{"NoteNumber":73,"Velocity":41,"Duration":3102361,"SoundDuration":3102361,"Delta":413865869},{"NoteNumber":34,"Velocity":35,"Duration":406586,"SoundDuration":406586,"Delta":413865869},{"NoteNumber":58,"Velocity":18,"Duration":439131,"SoundDuration":439131,"Delta":414272456},{"NoteNumber":53,"Velocity":18,"Duration":439131,"SoundDuration":439131,"Delta":414272456},{"NoteNumber":61,"Velocity":22,"Duration":439131,"SoundDuration":439131,"Delta":414272456},{"NoteNumber":65,"Velocity":22,"Duration":608108,"SoundDuration":608108,"Delta":414760380},{"NoteNumber":61,"Velocity":18,"Duration":608108,"SoundDuration":608108,"Delta":414760380},{"NoteNumber":53,"Velocity":18,"Duration":608108,"SoundDuration":608108,"Delta":414760380},{"NoteNumber":58,"Velocity":19,"Duration":1532175,"SoundDuration":1532175,"Delta":415436056},{"NoteNumber":53,"Velocity":18,"Duration":1532175,"SoundDuration":1532175,"Delta":415436056},{"NoteNumber":61,"Velocity":22,"Duration":1532175,"SoundDuration":1532175,"Delta":415436056},{"NoteNumber":73,"Velocity":34,"Duration":448095,"SoundDuration":448095,"Delta":416968231},{"NoteNumber":61,"Velocity":34,"Duration":215238,"SoundDuration":215238,"Delta":417416327},{"NoteNumber":42,"Velocity":38,"Duration":322858,"SoundDuration":322858,"Delta":417416327},{"NoteNumber":73,"Velocity":25,"Duration":215238,"SoundDuration":215238,"Delta":417631566},{"NoteNumber":49,"Velocity":31,"Duration":107619,"SoundDuration":107619,"Delta":417739185},{"NoteNumber":66,"Velocity":21,"Duration":215238,"SoundDuration":215238,"Delta":417846805},{"NoteNumber":70,"Velocity":25,"Duration":215238,"SoundDuration":215238,"Delta":417846805},{"NoteNumber":58,"Velocity":42,"Duration":739246,"SoundDuration":739246,"Delta":417846805},{"NoteNumber":73,"Velocity":25,"Duration":215238,"SoundDuration":215238,"Delta":418062044},{"NoteNumber":61,"Velocity":32,"Duration":205846,"SoundDuration":205846,"Delta":418277283},{"NoteNumber":73,"Velocity":24,"Duration":205846,"SoundDuration":205846,"Delta":418483129},{"NoteNumber":54,"Velocity":29,"Duration":102923,"SoundDuration":102923,"Delta":418586052},{"NoteNumber":70,"Velocity":24,"Duration":205846,"SoundDuration":205846,"Delta":418688975},{"NoteNumber":66,"Velocity":20,"Duration":205846,"SoundDuration":205846,"Delta":418688975},{"NoteNumber":58,"Velocity":39,"Duration":824236,"SoundDuration":824236,"Delta":418688975},{"NoteNumber":73,"Velocity":24,"Duration":205845,"SoundDuration":205845,"Delta":418894821},{"NoteNumber":61,"Velocity":32,"Duration":205846,"SoundDuration":205846,"Delta":419100667},{"NoteNumber":73,"Velocity":25,"Duration":206698,"SoundDuration":206698,"Delta":419306513},{"NoteNumber":70,"Velocity":24,"Duration":209760,"SoundDuration":209760,"Delta":419513211},{"NoteNumber":66,"Velocity":20,"Duration":209760,"SoundDuration":209760,"Delta":419513211},{"NoteNumber":54,"Velocity":34,"Duration":419521,"SoundDuration":419521,"Delta":419513211},{"NoteNumber":73,"Velocity":24,"Duration":209760,"SoundDuration":209760,"Delta":419722972},{"NoteNumber":61,"Velocity":33,"Duration":209760,"SoundDuration":209760,"Delta":419932733},{"NoteNumber":49,"Velocity":34,"Duration":419521,"SoundDuration":419521,"Delta":419932733},{"NoteNumber":73,"Velocity":27,"Duration":209760,"SoundDuration":209760,"Delta":420142493},{"NoteNumber":66,"Velocity":21,"Duration":200803,"SoundDuration":200803,"Delta":420352254},{"NoteNumber":70,"Velocity":25,"Duration":200803,"SoundDuration":200803,"Delta":420352254},{"NoteNumber":46,"Velocity":34,"Duration":414661,"SoundDuration":414661,"Delta":420352254},{"NoteNumber":73,"Velocity":25,"Duration":213858,"SoundDuration":213858,"Delta":420553057},{"NoteNumber":61,"Velocity":36,"Duration":216669,"SoundDuration":216669,"Delta":420766915},{"NoteNumber":41,"Velocity":45,"Duration":325003,"SoundDuration":325003,"Delta":420766915},{"NoteNumber":73,"Velocity":27,"Duration":216668,"SoundDuration":216668,"Delta":420983584},{"NoteNumber":49,"Velocity":36,"Duration":108334,"SoundDuration":108334,"Delta":421091919},{"NoteNumber":68,"Velocity":22,"Duration":216669,"SoundDuration":216669,"Delta":421200253},{"NoteNumber":71,"Velocity":27,"Duration":216669,"SoundDuration":216669,"Delta":421200253},{"NoteNumber":59,"Velocity":45,"Duration":746011,"SoundDuration":746011,"Delta":421200253},{"NoteNumber":73,"Velocity":27,"Duration":216668,"SoundDuration":216668,"Delta":421416922},{"NoteNumber":61,"Velocity":34,"Duration":208449,"SoundDuration":208449,"Delta":421633591},{"NoteNumber":73,"Velocity":26,"Duration":208449,"SoundDuration":208449,"Delta":421842041},{"NoteNumber":56,"Velocity":37,"Duration":104224,"SoundDuration":104224,"Delta":421946265},{"NoteNumber":68,"Velocity":22,"Duration":208449,"SoundDuration":208449,"Delta":422050490},{"NoteNumber":71,"Velocity":26,"Duration":208449,"SoundDuration":208449,"Delta":422050490},{"NoteNumber":59,"Velocity":46,"Duration":833797,"SoundDuration":833797,"Delta":422050490},{"NoteNumber":73,"Velocity":27,"Duration":208449,"SoundDuration":208449,"Delta":422258939},{"NoteNumber":61,"Velocity":36,"Duration":208449,"SoundDuration":208449,"Delta":422467388},{"NoteNumber":73,"Velocity":29,"Duration":208449,"SoundDuration":208449,"Delta":422675838},{"NoteNumber":71,"Velocity":27,"Duration":202047,"SoundDuration":202047,"Delta":422884287},{"NoteNumber":68,"Velocity":23,"Duration":202047,"SoundDuration":202047,"Delta":422884287},{"NoteNumber":56,"Velocity":38,"Duration":404094,"SoundDuration":404094,"Delta":422884287},{"NoteNumber":73,"Velocity":27,"Duration":202047,"SoundDuration":202047,"Delta":423086334},{"NoteNumber":61,"Velocity":37,"Duration":202047,"SoundDuration":202047,"Delta":423288382},{"NoteNumber":53,"Velocity":38,"Duration":404095,"SoundDuration":404095,"Delta":423288382},{"NoteNumber":73,"Velocity":30,"Duration":202047,"SoundDuration":202047,"Delta":423490429},{"NoteNumber":71,"Velocity":29,"Duration":193723,"SoundDuration":193723,"Delta":423692477},{"NoteNumber":68,"Velocity":24,"Duration":193723,"SoundDuration":193723,"Delta":423692477},{"NoteNumber":49,"Velocity":39,"Duration":403483,"SoundDuration":403483,"Delta":423692477},{"NoteNumber":73,"Velocity":29,"Duration":209760,"SoundDuration":209760,"Delta":423886200},{"NoteNumber":61,"Velocity":40,"Duration":218118,"SoundDuration":218118,"Delta":424095961},{"NoteNumber":42,"Velocity":50,"Duration":327177,"SoundDuration":327177,"Delta":424095961},{"NoteNumber":73,"Velocity":30,"Duration":218118,"SoundDuration":218118,"Delta":424314079},{"NoteNumber":49,"Velocity":40,"Duration":109059,"SoundDuration":109059,"Delta":424423138},{"NoteNumber":66,"Velocity":25,"Duration":218118,"SoundDuration":218118,"Delta":424532197},{"NoteNumber":70,"Velocity":30,"Duration":218118,"SoundDuration":218118,"Delta":424532197},{"NoteNumber":58,"Velocity":50,"Duration":745005,"SoundDuration":745005,"Delta":424532197},{"NoteNumber":73,"Velocity":30,"Duration":218118,"SoundDuration":218118,"Delta":424750316},{"NoteNumber":61,"Velocity":38,"Duration":205846,"SoundDuration":205846,"Delta":424968434},{"NoteNumber":73,"Velocity":29,"Duration":205846,"SoundDuration":205846,"Delta":425174280},{"NoteNumber":54,"Velocity":40,"Duration":102923,"SoundDuration":102923,"Delta":425277203},{"NoteNumber":66,"Velocity":24,"Duration":200803,"SoundDuration":200803,"Delta":425380126},{"NoteNumber":70,"Velocity":29,"Duration":200803,"SoundDuration":200803,"Delta":425380126},{"NoteNumber":58,"Velocity":50,"Duration":803213,"SoundDuration":803213,"Delta":425380126},{"NoteNumber":73,"Velocity":29,"Duration":200803,"SoundDuration":200803,"Delta":425580929},{"NoteNumber":63,"Velocity":38,"Duration":200803,"SoundDuration":200803,"Delta":425781732},{"NoteNumber":47,"Velocity":40,"Duration":1596212,"SoundDuration":1596212,"Delta":425781732},{"NoteNumber":75,"Velocity":30,"Duration":200803,"SoundDuration":200803,"Delta":425982536},{"NoteNumber":68,"Velocity":24,"Duration":196027,"SoundDuration":196027,"Delta":426183339},{"NoteNumber":71,"Velocity":29,"Duration":196027,"SoundDuration":196027,"Delta":426183339},{"NoteNumber":56,"Velocity":40,"Duration":392054,"SoundDuration":392054,"Delta":426183339},{"NoteNumber":75,"Velocity":29,"Duration":196027,"SoundDuration":196027,"Delta":426379366},{"NoteNumber":63,"Velocity":39,"Duration":196027,"SoundDuration":196027,"Delta":426575393},{"NoteNumber":51,"Velocity":40,"Duration":392054,"SoundDuration":392054,"Delta":426575393},{"NoteNumber":75,"Velocity":32,"Duration":196027,"SoundDuration":196027,"Delta":426771421},{"NoteNumber":71,"Velocity":30,"Duration":202047,"SoundDuration":202047,"Delta":426967448},{"NoteNumber":68,"Velocity":25,"Duration":202047,"SoundDuration":202047,"Delta":426967448},{"NoteNumber":56,"Velocity":40,"Duration":410496,"SoundDuration":410496,"Delta":426967448},{"NoteNumber":75,"Velocity":30,"Duration":208449,"SoundDuration":208449,"Delta":427169495},{"NoteNumber":68,"Velocity":43,"Duration":196027,"SoundDuration":196027,"Delta":427377945},{"NoteNumber":48,"Velocity":44,"Duration":784109,"SoundDuration":784109,"Delta":427377945},{"NoteNumber":56,"Velocity":52,"Duration":392054,"SoundDuration":392054,"Delta":427377945},{"NoteNumber":80,"Velocity":39,"Duration":196027,"SoundDuration":196027,"Delta":427573972},{"NoteNumber":75,"Velocity":39,"Duration":196027,"SoundDuration":196027,"Delta":427769999},{"NoteNumber":78,"Velocity":47,"Duration":196027,"SoundDuration":196027,"Delta":427769999},{"NoteNumber":60,"Velocity":44,"Duration":392054,"SoundDuration":392054,"Delta":427769999},{"NoteNumber":80,"Velocity":40,"Duration":196027,"SoundDuration":196027,"Delta":427966026},{"NoteNumber":72,"Velocity":53,"Duration":197307,"SoundDuration":197307,"Delta":428162054},{"NoteNumber":78,"Velocity":53,"Duration":197307,"SoundDuration":197307,"Delta":428162054},{"NoteNumber":63,"Velocity":49,"Duration":392188,"SoundDuration":392188,"Delta":428162054},{"NoteNumber":56,"Velocity":41,"Duration":789117,"SoundDuration":789117,"Delta":428162054},{"NoteNumber":80,"Velocity":43,"Duration":194881,"SoundDuration":194881,"Delta":428359361},{"NoteNumber":75,"Velocity":47,"Duration":194881,"SoundDuration":194881,"Delta":428554242},{"NoteNumber":72,"Velocity":47,"Duration":194881,"SoundDuration":194881,"Delta":428554242},{"NoteNumber":66,"Velocity":55,"Duration":396928,"SoundDuration":396928,"Delta":428554242},{"NoteNumber":80,"Velocity":41,"Duration":202047,"SoundDuration":202047,"Delta":428749123},{"NoteNumber":73,"Velocity":46,"Duration":191472,"SoundDuration":191472,"Delta":428951171},{"NoteNumber":77,"Velocity":55,"Duration":191472,"SoundDuration":191472,"Delta":428951171},{"NoteNumber":61,"Velocity":48,"Duration":1576349,"SoundDuration":1576349,"Delta":428951171},{"NoteNumber":65,"Velocity":57,"Duration":382946,"SoundDuration":382946,"Delta":428951171},{"NoteNumber":80,"Velocity":51,"Duration":191473,"SoundDuration":191473,"Delta":429142644},{"NoteNumber":83,"Velocity":58,"Duration":201266,"SoundDuration":201266,"Delta":429334117},{"NoteNumber":77,"Velocity":49,"Duration":201266,"SoundDuration":201266,"Delta":429334117},{"NoteNumber":68,"Velocity":53,"Duration":408994,"SoundDuration":408994,"Delta":429334117},{"NoteNumber":85,"Velocity":53,"Duration":207727,"SoundDuration":207727,"Delta":429535383},{"NoteNumber":82,"Velocity":62,"Duration":192604,"SoundDuration":192604,"Delta":429743111},{"NoteNumber":78,"Velocity":52,"Duration":192604,"SoundDuration":192604,"Delta":429743111},{"NoteNumber":70,"Velocity":58,"Duration":385207,"SoundDuration":385207,"Delta":429743111},{"NoteNumber":85,"Velocity":57,"Duration":192603,"SoundDuration":192603,"Delta":429935715},{"NoteNumber":77,"Velocity":55,"Duration":199600,"SoundDuration":199600,"Delta":430128319},{"NoteNumber":80,"Velocity":66,"Duration":199600,"SoundDuration":199600,"Delta":430128319},{"NoteNumber":71,"Velocity":62,"Duration":399201,"SoundDuration":399201,"Delta":430128319},{"NoteNumber":85,"Velocity":60,"Duration":199600,"SoundDuration":199600,"Delta":430327920},{"NoteNumber":78,"Velocity":71,"Duration":304919,"SoundDuration":304919,"Delta":430527520},{"NoteNumber":42,"Velocity":55,"Duration":203279,"SoundDuration":203279,"Delta":430527520},{"NoteNumber":58,"Velocity":50,"Duration":203279,"SoundDuration":203279,"Delta":430730800},{"NoteNumber":85,"Velocity":72,"Duration":101639,"SoundDuration":101639,"Delta":430832440},{"NoteNumber":82,"Velocity":78,"Duration":668135,"SoundDuration":668135,"Delta":430934079},{"NoteNumber":94,"Velocity":78,"Duration":668135,"SoundDuration":668135,"Delta":430934079},{"NoteNumber":49,"Velocity":50,"Duration":193723,"SoundDuration":193723,"Delta":430934079},{"NoteNumber":58,"Velocity":50,"Duration":193723,"SoundDuration":193723,"Delta":431127803},{"NoteNumber":54,"Velocity":59,"Duration":187125,"SoundDuration":187125,"Delta":431321526},{"NoteNumber":58,"Velocity":50,"Duration":187125,"SoundDuration":187125,"Delta":431508652},{"NoteNumber":90,"Velocity":70,"Duration":93562,"SoundDuration":93562,"Delta":431602215},{"NoteNumber":82,"Velocity":78,"Duration":748502,"SoundDuration":748502,"Delta":431695777},{"NoteNumber":94,"Velocity":78,"Duration":748502,"SoundDuration":748502,"Delta":431695777},{"NoteNumber":49,"Velocity":50,"Duration":187125,"SoundDuration":187125,"Delta":431695777},{"NoteNumber":58,"Velocity":50,"Duration":187125,"SoundDuration":187125,"Delta":431882903},{"NoteNumber":42,"Velocity":59,"Duration":187125,"SoundDuration":187125,"Delta":432070029},{"NoteNumber":58,"Velocity":50,"Duration":187125,"SoundDuration":187125,"Delta":432257155},{"NoteNumber":78,"Velocity":72,"Duration":376364,"SoundDuration":376364,"Delta":432444280},{"NoteNumber":90,"Velocity":72,"Duration":376364,"SoundDuration":376364,"Delta":432444280},{"NoteNumber":49,"Velocity":50,"Duration":188182,"SoundDuration":188182,"Delta":432444280},{"NoteNumber":58,"Velocity":50,"Duration":188182,"SoundDuration":188182,"Delta":432632463},{"NoteNumber":85,"Velocity":72,"Duration":376364,"SoundDuration":376364,"Delta":432820645},{"NoteNumber":73,"Velocity":72,"Duration":376364,"SoundDuration":376364,"Delta":432820645},{"NoteNumber":54,"Velocity":59,"Duration":188182,"SoundDuration":188182,"Delta":432820645},{"NoteNumber":58,"Velocity":49,"Duration":188182,"SoundDuration":188182,"Delta":433008827},{"NoteNumber":82,"Velocity":72,"Duration":392054,"SoundDuration":392054,"Delta":433197009},{"NoteNumber":70,"Velocity":72,"Duration":392054,"SoundDuration":392054,"Delta":433197009},{"NoteNumber":49,"Velocity":49,"Duration":196027,"SoundDuration":196027,"Delta":433197009},{"NoteNumber":58,"Velocity":49,"Duration":196027,"SoundDuration":196027,"Delta":433393037},{"NoteNumber":41,"Velocity":55,"Duration":205846,"SoundDuration":205846,"Delta":433589064},{"NoteNumber":59,"Velocity":50,"Duration":205846,"SoundDuration":205846,"Delta":433794910},{"NoteNumber":85,"Velocity":72,"Duration":102923,"SoundDuration":102923,"Delta":433897833},{"NoteNumber":83,"Velocity":78,"Duration":666243,"SoundDuration":666243,"Delta":434000756},{"NoteNumber":95,"Velocity":78,"Duration":666243,"SoundDuration":666243,"Delta":434000756},{"NoteNumber":49,"Velocity":50,"Duration":190355,"SoundDuration":190355,"Delta":434000756},{"NoteNumber":59,"Velocity":50,"Duration":190355,"SoundDuration":190355,"Delta":434191111},{"NoteNumber":56,"Velocity":59,"Duration":190355,"SoundDuration":190355,"Delta":434381466},{"NoteNumber":59,"Velocity":50,"Duration":190355,"SoundDuration":190355,"Delta":434571822},{"NoteNumber":92,"Velocity":71,"Duration":95177,"SoundDuration":95177,"Delta":434666999},{"NoteNumber":83,"Velocity":78,"Duration":761421,"SoundDuration":761421,"Delta":434762177},{"NoteNumber":95,"Velocity":78,"Duration":761421,"SoundDuration":761421,"Delta":434762177},{"NoteNumber":49,"Velocity":50,"Duration":190355,"SoundDuration":190355,"Delta":434762177},{"NoteNumber":59,"Velocity":50,"Duration":190355,"SoundDuration":190355,"Delta":434952532},{"NoteNumber":41,"Velocity":59,"Duration":190355,"SoundDuration":190355,"Delta":435142887},{"NoteNumber":59,"Velocity":50,"Duration":190355,"SoundDuration":190355,"Delta":435333243},{"NoteNumber":92,"Velocity":72,"Duration":378549,"SoundDuration":378549,"Delta":435523598},{"NoteNumber":80,"Velocity":72,"Duration":378549,"SoundDuration":378549,"Delta":435523598},{"NoteNumber":49,"Velocity":50,"Duration":189274,"SoundDuration":189274,"Delta":435523598},{"NoteNumber":59,"Velocity":50,"Duration":189274,"SoundDuration":189274,"Delta":435712872},{"NoteNumber":89,"Velocity":72,"Duration":372116,"SoundDuration":372116,"Delta":435902147},{"NoteNumber":77,"Velocity":72,"Duration":372116,"SoundDuration":372116,"Delta":435902147},{"NoteNumber":56,"Velocity":59,"Duration":186058,"SoundDuration":186058,"Delta":435902147},{"NoteNumber":59,"Velocity":49,"Duration":186058,"SoundDuration":186058,"Delta":436088205},{"NoteNumber":71,"Velocity":72,"Duration":387446,"SoundDuration":387446,"Delta":436274263},{"NoteNumber":83,"Velocity":72,"Duration":387446,"SoundDuration":387446,"Delta":436274263},{"NoteNumber":49,"Velocity":49,"Duration":193723,"SoundDuration":193723,"Delta":436274263},{"NoteNumber":59,"Velocity":49,"Duration":193723,"SoundDuration":193723,"Delta":436467986},{"NoteNumber":42,"Velocity":50,"Duration":208449,"SoundDuration":208449,"Delta":436661709},{"NoteNumber":58,"Velocity":42,"Duration":208449,"SoundDuration":208449,"Delta":436870159},{"NoteNumber":73,"Velocity":59,"Duration":104224,"SoundDuration":104224,"Delta":436974383},{"NoteNumber":70,"Velocity":63,"Duration":670155,"SoundDuration":670155,"Delta":437078608},{"NoteNumber":82,"Velocity":63,"Duration":670155,"SoundDuration":670155,"Delta":437078608},{"NoteNumber":49,"Velocity":42,"Duration":191472,"SoundDuration":191472,"Delta":437078608},{"NoteNumber":58,"Velocity":42,"Duration":191473,"SoundDuration":191473,"Delta":437270081},{"NoteNumber":54,"Velocity":54,"Duration":191472,"SoundDuration":191472,"Delta":437461554},{"NoteNumber":58,"Velocity":46,"Duration":191473,"SoundDuration":191473,"Delta":437653027},{"NoteNumber":78,"Velocity":57,"Duration":95736,"SoundDuration":95736,"Delta":437748763},{"NoteNumber":82,"Velocity":63,"Duration":765892,"SoundDuration":765892,"Delta":437844500},{"NoteNumber":70,"Velocity":63,"Duration":765892,"SoundDuration":765892,"Delta":437844500},{"NoteNumber":49,"Velocity":42,"Duration":191472,"SoundDuration":191472,"Delta":437844500},{"NoteNumber":58,"Velocity":42,"Duration":191473,"SoundDuration":191473,"Delta":438035973},{"NoteNumber":36,"Velocity":52,"Duration":191472,"SoundDuration":191472,"Delta":438227446},{"NoteNumber":48,"Velocity":39,"Duration":191473,"SoundDuration":191473,"Delta":438418919},{"NoteNumber":81,"Velocity":53,"Duration":370050,"SoundDuration":370050,"Delta":438610392},{"NoteNumber":69,"Velocity":53,"Duration":370050,"SoundDuration":370050,"Delta":438610392},{"NoteNumber":51,"Velocity":39,"Duration":185025,"SoundDuration":185025,"Delta":438610392},{"NoteNumber":48,"Velocity":39,"Duration":185025,"SoundDuration":185025,"Delta":438795417},{"NoteNumber":68,"Velocity":50,"Duration":370050,"SoundDuration":370050,"Delta":438980442},{"NoteNumber":80,"Velocity":50,"Duration":370050,"SoundDuration":370050,"Delta":438980442},{"NoteNumber":56,"Velocity":51,"Duration":185025,"SoundDuration":185025,"Delta":438980442},{"NoteNumber":48,"Velocity":33,"Duration":185025,"SoundDuration":185025,"Delta":439165468},{"NoteNumber":78,"Velocity":47,"Duration":404094,"SoundDuration":404094,"Delta":439350493},{"NoteNumber":66,"Velocity":47,"Duration":404094,"SoundDuration":404094,"Delta":439350493},{"NoteNumber":57,"Velocity":33,"Duration":202047,"SoundDuration":202047,"Delta":439350493},{"NoteNumber":48,"Velocity":33,"Duration":202047,"SoundDuration":202047,"Delta":439552540},{"NoteNumber":77,"Velocity":39,"Duration":392054,"SoundDuration":392054,"Delta":439754588},{"NoteNumber":65,"Velocity":39,"Duration":392054,"SoundDuration":392054,"Delta":439754588},{"NoteNumber":37,"Velocity":44,"Duration":196027,"SoundDuration":196027,"Delta":439754588},{"NoteNumber":49,"Velocity":34,"Duration":196027,"SoundDuration":196027,"Delta":439950615},{"NoteNumber":85,"Velocity":44,"Duration":378549,"SoundDuration":378549,"Delta":440146642},{"NoteNumber":73,"Velocity":44,"Duration":378549,"SoundDuration":378549,"Delta":440146642},{"NoteNumber":53,"Velocity":35,"Duration":189274,"SoundDuration":189274,"Delta":440146642},{"NoteNumber":49,"Velocity":35,"Duration":189274,"SoundDuration":189274,"Delta":440335917},{"NoteNumber":71,"Velocity":40,"Duration":378548,"SoundDuration":378548,"Delta":440525191},{"NoteNumber":83,"Velocity":40,"Duration":378548,"SoundDuration":378548,"Delta":440525191},{"NoteNumber":56,"Velocity":35,"Duration":189274,"SoundDuration":189274,"Delta":440525191},{"NoteNumber":49,"Velocity":31,"Duration":189274,"SoundDuration":189274,"Delta":440714466},{"NoteNumber":80,"Velocity":40,"Duration":409109,"SoundDuration":409109,"Delta":440903740},{"NoteNumber":68,"Velocity":40,"Duration":409109,"SoundDuration":409109,"Delta":440903740},{"NoteNumber":59,"Velocity":31,"Duration":204554,"SoundDuration":204554,"Delta":440903740},{"NoteNumber":49,"Velocity":31,"Duration":204554,"SoundDuration":204554,"Delta":441108295},{"NoteNumber":78,"Velocity":47,"Duration":1674911,"SoundDuration":1674911,"Delta":441312850},{"NoteNumber":66,"Velocity":47,"Duration":1674911,"SoundDuration":1674911,"Delta":441312850},{"NoteNumber":42,"Velocity":35,"Duration":199600,"SoundDuration":199600,"Delta":441312850},{"NoteNumber":49,"Velocity":29,"Duration":199600,"SoundDuration":199600,"Delta":441512451},{"NoteNumber":58,"Velocity":29,"Duration":199600,"SoundDuration":199600,"Delta":441712051},{"NoteNumber":54,"Velocity":29,"Duration":199600,"SoundDuration":199600,"Delta":441911652},{"NoteNumber":49,"Velocity":35,"Duration":211118,"SoundDuration":211118,"Delta":442111253},{"NoteNumber":54,"Velocity":31,"Duration":211118,"SoundDuration":211118,"Delta":442322372},{"NoteNumber":49,"Velocity":31,"Duration":227134,"SoundDuration":227134,"Delta":442533491},{"NoteNumber":46,"Velocity":31,"Duration":227135,"SoundDuration":227135,"Delta":442760626},{"NoteNumber":61,"Velocity":40,"Duration":212464,"SoundDuration":212464,"Delta":442987761},{"NoteNumber":42,"Velocity":45,"Duration":318696,"SoundDuration":318696,"Delta":442987761},{"NoteNumber":73,"Velocity":30,"Duration":212464,"SoundDuration":212464,"Delta":443200225},{"NoteNumber":49,"Velocity":37,"Duration":106232,"SoundDuration":106232,"Delta":443306458},{"NoteNumber":70,"Velocity":30,"Duration":212464,"SoundDuration":212464,"Delta":443412690},{"NoteNumber":66,"Velocity":25,"Duration":212464,"SoundDuration":212464,"Delta":443412690},{"NoteNumber":58,"Velocity":50,"Duration":728000,"SoundDuration":728000,"Delta":443412690},{"NoteNumber":73,"Velocity":30,"Duration":212464,"SoundDuration":212464,"Delta":443625154},{"NoteNumber":61,"Velocity":38,"Duration":202047,"SoundDuration":202047,"Delta":443837619},{"NoteNumber":73,"Velocity":28,"Duration":202047,"SoundDuration":202047,"Delta":444039666},{"NoteNumber":54,"Velocity":34,"Duration":101023,"SoundDuration":101023,"Delta":444140690},{"NoteNumber":66,"Velocity":24,"Duration":202047,"SoundDuration":202047,"Delta":444241714},{"NoteNumber":70,"Velocity":28,"Duration":202047,"SoundDuration":202047,"Delta":444241714},{"NoteNumber":58,"Velocity":46,"Duration":808190,"SoundDuration":808190,"Delta":444241714},{"NoteNumber":73,"Velocity":28,"Duration":202047,"SoundDuration":202047,"Delta":444443761},{"NoteNumber":61,"Velocity":38,"Duration":202047,"SoundDuration":202047,"Delta":444645809},{"NoteNumber":73,"Velocity":30,"Duration":202047,"SoundDuration":202047,"Delta":444847856},{"NoteNumber":66,"Velocity":24,"Duration":208449,"SoundDuration":208449,"Delta":445049904},{"NoteNumber":70,"Velocity":28,"Duration":208449,"SoundDuration":208449,"Delta":445049904},{"NoteNumber":54,"Velocity":40,"Duration":416898,"SoundDuration":416898,"Delta":445049904},{"NoteNumber":73,"Velocity":28,"Duration":208449,"SoundDuration":208449,"Delta":445258353},{"NoteNumber":61,"Velocity":39,"Duration":193723,"SoundDuration":193723,"Delta":445466802},{"NoteNumber":49,"Velocity":40,"Duration":387446,"SoundDuration":387446,"Delta":445466802},{"NoteNumber":73,"Velocity":32,"Duration":193723,"SoundDuration":193723,"Delta":445660526},{"NoteNumber":70,"Velocity":30,"Duration":202047,"SoundDuration":202047,"Delta":445854249},{"NoteNumber":66,"Velocity":25,"Duration":202047,"SoundDuration":202047,"Delta":445854249},{"NoteNumber":46,"Velocity":40,"Duration":417286,"SoundDuration":417286,"Delta":445854249},{"NoteNumber":73,"Velocity":30,"Duration":215238,"SoundDuration":215238,"Delta":446056296},{"NoteNumber":61,"Velocity":43,"Duration":207125,"SoundDuration":207125,"Delta":446271535},{"NoteNumber":41,"Velocity":54,"Duration":310687,"SoundDuration":310687,"Delta":446271535},{"NoteNumber":73,"Velocity":32,"Duration":207124,"SoundDuration":207124,"Delta":446478660},{"NoteNumber":49,"Velocity":43,"Duration":103562,"SoundDuration":103562,"Delta":446582223},{"NoteNumber":71,"Velocity":32,"Duration":207125,"SoundDuration":207125,"Delta":446685785},{"NoteNumber":68,"Velocity":26,"Duration":207125,"SoundDuration":207125,"Delta":446685785},{"NoteNumber":59,"Velocity":54,"Duration":719169,"SoundDuration":719169,"Delta":446685785},{"NoteNumber":73,"Velocity":32,"Duration":207125,"SoundDuration":207125,"Delta":446892910},{"NoteNumber":61,"Velocity":40,"Duration":203279,"SoundDuration":203279,"Delta":447100035},{"NoteNumber":73,"Velocity":31,"Duration":203279,"SoundDuration":203279,"Delta":447303315},{"NoteNumber":56,"Velocity":44,"Duration":101639,"SoundDuration":101639,"Delta":447404955},{"NoteNumber":68,"Velocity":26,"Duration":203279,"SoundDuration":203279,"Delta":447506594},{"NoteNumber":71,"Velocity":31,"Duration":203279,"SoundDuration":203279,"Delta":447506594},{"NoteNumber":59,"Velocity":55,"Duration":813117,"SoundDuration":813117,"Delta":447506594},{"NoteNumber":73,"Velocity":32,"Duration":203279,"SoundDuration":203279,"Delta":447709874},{"NoteNumber":61,"Velocity":43,"Duration":203279,"SoundDuration":203279,"Delta":447913153},{"NoteNumber":73,"Velocity":34,"Duration":203279,"SoundDuration":203279,"Delta":448116433},{"NoteNumber":68,"Velocity":27,"Duration":199600,"SoundDuration":199600,"Delta":448319712},{"NoteNumber":71,"Velocity":32,"Duration":199600,"SoundDuration":199600,"Delta":448319712},{"NoteNumber":56,"Velocity":45,"Duration":399201,"SoundDuration":399201,"Delta":448319712},{"NoteNumber":73,"Velocity":32,"Duration":199600,"SoundDuration":199600,"Delta":448519313},{"NoteNumber":61,"Velocity":44,"Duration":194881,"SoundDuration":194881,"Delta":448718914},{"NoteNumber":53,"Velocity":45,"Duration":389762,"SoundDuration":389762,"Delta":448718914},{"NoteNumber":73,"Velocity":36,"Duration":194881,"SoundDuration":194881,"Delta":448913795},{"NoteNumber":71,"Velocity":34,"Duration":203279,"SoundDuration":203279,"Delta":449108676},{"NoteNumber":68,"Velocity":28,"Duration":203279,"SoundDuration":203279,"Delta":449108676},{"NoteNumber":49,"Velocity":46,"Duration":422834,"SoundDuration":422834,"Delta":449108676},{"NoteNumber":73,"Velocity":34,"Duration":219555,"SoundDuration":219555,"Delta":449311955},{"NoteNumber":61,"Velocity":48,"Duration":209760,"SoundDuration":209760,"Delta":449531510},{"NoteNumber":42,"Velocity":60,"Duration":314641,"SoundDuration":314641,"Delta":449531510},{"NoteNumber":73,"Velocity":36,"Duration":209760,"SoundDuration":209760,"Delta":449741271},{"NoteNumber":49,"Velocity":48,"Duration":104880,"SoundDuration":104880,"Delta":449846152},{"NoteNumber":66,"Velocity":30,"Duration":209760,"SoundDuration":209760,"Delta":449951032},{"NoteNumber":70,"Velocity":36,"Duration":209760,"SoundDuration":209760,"Delta":449951032},{"NoteNumber":58,"Velocity":60,"Duration":715340,"SoundDuration":715340,"Delta":449951032},{"NoteNumber":73,"Velocity":36,"Duration":209760,"SoundDuration":209760,"Delta":450160793},{"NoteNumber":61,"Velocity":45,"Duration":197212,"SoundDuration":197212,"Delta":450370553},{"NoteNumber":73,"Velocity":34,"Duration":197212,"SoundDuration":197212,"Delta":450567766},{"NoteNumber":54,"Velocity":48,"Duration":98606,"SoundDuration":98606,"Delta":450666373},{"NoteNumber":70,"Velocity":34,"Duration":197212,"SoundDuration":197212,"Delta":450764979},{"NoteNumber":66,"Velocity":28,"Duration":197212,"SoundDuration":197212,"Delta":450764979},{"NoteNumber":58,"Velocity":60,"Duration":788850,"SoundDuration":788850,"Delta":450764979},{"NoteNumber":73,"Velocity":34,"Duration":197212,"SoundDuration":197212,"Delta":450962192},{"NoteNumber":63,"Velocity":45,"Duration":197212,"SoundDuration":197212,"Delta":451159404},{"NoteNumber":47,"Velocity":48,"Duration":1587514,"SoundDuration":1587514,"Delta":451159404},{"NoteNumber":75,"Velocity":36,"Duration":197212,"SoundDuration":197212,"Delta":451356617},{"NoteNumber":71,"Velocity":34,"Duration":192604,"SoundDuration":192604,"Delta":451553830},{"NoteNumber":68,"Velocity":28,"Duration":192604,"SoundDuration":192604,"Delta":451553830},{"NoteNumber":56,"Velocity":48,"Duration":385207,"SoundDuration":385207,"Delta":451553830},{"NoteNumber":75,"Velocity":34,"Duration":192603,"SoundDuration":192603,"Delta":451746434},{"NoteNumber":63,"Velocity":46,"Duration":192604,"SoundDuration":192604,"Delta":451939038},{"NoteNumber":51,"Velocity":48,"Duration":385208,"SoundDuration":385208,"Delta":451939038},{"NoteNumber":75,"Velocity":38,"Duration":192604,"SoundDuration":192604,"Delta":452131642},{"NoteNumber":71,"Velocity":36,"Duration":204554,"SoundDuration":204554,"Delta":452324246},{"NoteNumber":68,"Velocity":30,"Duration":204554,"SoundDuration":204554,"Delta":452324246},{"NoteNumber":56,"Velocity":48,"Duration":422672,"SoundDuration":422672,"Delta":452324246},{"NoteNumber":75,"Velocity":36,"Duration":218118,"SoundDuration":218118,"Delta":452528801},{"NoteNumber":68,"Velocity":47,"Duration":189274,"SoundDuration":189274,"Delta":452746919},{"NoteNumber":48,"Velocity":48,"Duration":757097,"SoundDuration":757097,"Delta":452746919},{"NoteNumber":56,"Velocity":57,"Duration":378549,"SoundDuration":378549,"Delta":452746919},{"NoteNumber":80,"Velocity":42,"Duration":189274,"SoundDuration":189274,"Delta":452936193},{"NoteNumber":75,"Velocity":42,"Duration":189274,"SoundDuration":189274,"Delta":453125468},{"NoteNumber":78,"Velocity":51,"Duration":189274,"SoundDuration":189274,"Delta":453125468},{"NoteNumber":60,"Velocity":48,"Duration":378548,"SoundDuration":378548,"Delta":453125468},{"NoteNumber":80,"Velocity":44,"Duration":189274,"SoundDuration":189274,"Delta":453314742},{"NoteNumber":72,"Velocity":58,"Duration":191061,"SoundDuration":191061,"Delta":453504017},{"NoteNumber":78,"Velocity":58,"Duration":191061,"SoundDuration":191061,"Delta":453504017},{"NoteNumber":63,"Velocity":53,"Duration":384784,"SoundDuration":384784,"Delta":453504017},{"NoteNumber":56,"Velocity":45,"Duration":784353,"SoundDuration":784353,"Delta":453504017},{"NoteNumber":80,"Velocity":47,"Duration":193723,"SoundDuration":193723,"Delta":453695078},{"NoteNumber":75,"Velocity":51,"Duration":193723,"SoundDuration":193723,"Delta":453888802},{"NoteNumber":72,"Velocity":51,"Duration":193723,"SoundDuration":193723,"Delta":453888802},{"NoteNumber":66,"Velocity":60,"Duration":399569,"SoundDuration":399569,"Delta":453888802},{"NoteNumber":80,"Velocity":45,"Duration":205846,"SoundDuration":205846,"Delta":454082525},{"NoteNumber":73,"Velocity":50,"Duration":191472,"SoundDuration":191472,"Delta":454288371},{"NoteNumber":77,"Velocity":60,"Duration":191472,"SoundDuration":191472,"Delta":454288371},{"NoteNumber":61,"Velocity":52,"Duration":1555556,"SoundDuration":1555556,"Delta":454288371},{"NoteNumber":65,"Velocity":62,"Duration":382946,"SoundDuration":382946,"Delta":454288371},{"NoteNumber":80,"Velocity":56,"Duration":191473,"SoundDuration":191473,"Delta":454479844},{"NoteNumber":83,"Velocity":63,"Duration":196484,"SoundDuration":196484,"Delta":454671317},{"NoteNumber":77,"Velocity":53,"Duration":196484,"SoundDuration":196484,"Delta":454671317},{"NoteNumber":68,"Velocity":58,"Duration":397288,"SoundDuration":397288,"Delta":454671317},{"NoteNumber":85,"Velocity":58,"Duration":200803,"SoundDuration":200803,"Delta":454867802},{"NoteNumber":78,"Velocity":57,"Duration":189274,"SoundDuration":189274,"Delta":455068605},{"NoteNumber":82,"Velocity":68,"Duration":189274,"SoundDuration":189274,"Delta":455068605},{"NoteNumber":70,"Velocity":63,"Duration":378549,"SoundDuration":378549,"Delta":455068605},{"NoteNumber":85,"Velocity":62,"Duration":189274,"SoundDuration":189274,"Delta":455257879},{"NoteNumber":80,"Velocity":72,"Duration":198386,"SoundDuration":198386,"Delta":455447154},{"NoteNumber":77,"Velocity":60,"Duration":198386,"SoundDuration":198386,"Delta":455447154},{"NoteNumber":71,"Velocity":68,"Duration":396772,"SoundDuration":396772,"Delta":455447154},{"NoteNumber":85,"Velocity":66,"Duration":198386,"SoundDuration":198386,"Delta":455645540},{"NoteNumber":78,"Velocity":78,"Duration":303071,"SoundDuration":303071,"Delta":455843927},{"NoteNumber":42,"Velocity":60,"Duration":202047,"SoundDuration":202047,"Delta":455843927},{"NoteNumber":58,"Velocity":55,"Duration":202047,"SoundDuration":202047,"Delta":456045974},{"NoteNumber":85,"Velocity":79,"Duration":101023,"SoundDuration":101023,"Delta":456146998},{"NoteNumber":82,"Velocity":85,"Duration":674327,"SoundDuration":674327,"Delta":456248022},{"NoteNumber":94,"Velocity":85,"Duration":674327,"SoundDuration":674327,"Delta":456248022},{"NoteNumber":49,"Velocity":55,"Duration":196027,"SoundDuration":196027,"Delta":456248022},{"NoteNumber":58,"Velocity":55,"Duration":196027,"SoundDuration":196027,"Delta":456444049},{"NoteNumber":54,"Velocity":64,"Duration":188182,"SoundDuration":188182,"Delta":456640076},{"NoteNumber":58,"Velocity":55,"Duration":188182,"SoundDuration":188182,"Delta":456828259},{"NoteNumber":90,"Velocity":77,"Duration":94091,"SoundDuration":94091,"Delta":456922350},{"NoteNumber":82,"Velocity":85,"Duration":752728,"SoundDuration":752728,"Delta":457016441},{"NoteNumber":94,"Velocity":85,"Duration":752728,"SoundDuration":752728,"Delta":457016441},{"NoteNumber":49,"Velocity":55,"Duration":188182,"SoundDuration":188182,"Delta":457016441},{"NoteNumber":58,"Velocity":55,"Duration":188182,"SoundDuration":188182,"Delta":457204623},{"NoteNumber":42,"Velocity":64,"Duration":188182,"SoundDuration":188182,"Delta":457392805},{"NoteNumber":58,"Velocity":55,"Duration":188182,"SoundDuration":188182,"Delta":457580988},{"NoteNumber":78,"Velocity":79,"Duration":359928,"SoundDuration":359928,"Delta":457769170},{"NoteNumber":90,"Velocity":79,"Duration":359928,"SoundDuration":359928,"Delta":457769170},{"NoteNumber":49,"Velocity":55,"Duration":179963,"SoundDuration":179963,"Delta":457769170},{"NoteNumber":58,"Velocity":55,"Duration":179964,"SoundDuration":179964,"Delta":457949134},{"NoteNumber":85,"Velocity":79,"Duration":359927,"SoundDuration":359927,"Delta":458129098},{"NoteNumber":73,"Velocity":79,"Duration":359927,"SoundDuration":359927,"Delta":458129098},{"NoteNumber":54,"Velocity":64,"Duration":179963,"SoundDuration":179963,"Delta":458129098},{"NoteNumber":58,"Velocity":53,"Duration":179963,"SoundDuration":179963,"Delta":458309062},{"NoteNumber":70,"Velocity":79,"Duration":392054,"SoundDuration":392054,"Delta":458489026},{"NoteNumber":82,"Velocity":79,"Duration":392054,"SoundDuration":392054,"Delta":458489026},{"NoteNumber":49,"Velocity":53,"Duration":196027,"SoundDuration":196027,"Delta":458489026},{"NoteNumber":58,"Velocity":53,"Duration":196027,"SoundDuration":196027,"Delta":458685053},{"NoteNumber":41,"Velocity":60,"Duration":203279,"SoundDuration":203279,"Delta":458881080},{"NoteNumber":59,"Velocity":55,"Duration":203279,"SoundDuration":203279,"Delta":459084360},{"NoteNumber":85,"Velocity":79,"Duration":101639,"SoundDuration":101639,"Delta":459186000},{"NoteNumber":95,"Velocity":85,"Duration":674113,"SoundDuration":674113,"Delta":459287639},{"NoteNumber":83,"Velocity":85,"Duration":674113,"SoundDuration":674113,"Delta":459287639},{"NoteNumber":49,"Velocity":55,"Duration":192604,"SoundDuration":192604,"Delta":459287639},{"NoteNumber":59,"Velocity":55,"Duration":192603,"SoundDuration":192603,"Delta":459480243},{"NoteNumber":56,"Velocity":64,"Duration":192604,"SoundDuration":192604,"Delta":459672847},{"NoteNumber":59,"Velocity":55,"Duration":192604,"SoundDuration":192604,"Delta":459865451},{"NoteNumber":92,"Velocity":78,"Duration":96302,"SoundDuration":96302,"Delta":459961753},{"NoteNumber":95,"Velocity":85,"Duration":770416,"SoundDuration":770416,"Delta":460058055},{"NoteNumber":83,"Velocity":85,"Duration":770416,"SoundDuration":770416,"Delta":460058055},{"NoteNumber":49,"Velocity":55,"Duration":192603,"SoundDuration":192603,"Delta":460058055},{"NoteNumber":59,"Velocity":55,"Duration":192604,"SoundDuration":192604,"Delta":460250659},{"NoteNumber":41,"Velocity":64,"Duration":192604,"SoundDuration":192604,"Delta":460443263},{"NoteNumber":59,"Velocity":55,"Duration":192604,"SoundDuration":192604,"Delta":460635867},{"NoteNumber":80,"Velocity":79,"Duration":365943,"SoundDuration":365943,"Delta":460828471},{"NoteNumber":92,"Velocity":79,"Duration":365943,"SoundDuration":365943,"Delta":460828471},{"NoteNumber":49,"Velocity":55,"Duration":182971,"SoundDuration":182971,"Delta":460828471},{"NoteNumber":59,"Velocity":55,"Duration":182971,"SoundDuration":182971,"Delta":461011443},{"NoteNumber":77,"Velocity":79,"Duration":365942,"SoundDuration":365942,"Delta":461194414},{"NoteNumber":89,"Velocity":79,"Duration":365942,"SoundDuration":365942,"Delta":461194414},{"NoteNumber":56,"Velocity":64,"Duration":182971,"SoundDuration":182971,"Delta":461194414},{"NoteNumber":59,"Velocity":53,"Duration":182971,"SoundDuration":182971,"Delta":461377386},{"NoteNumber":83,"Velocity":79,"Duration":394425,"SoundDuration":394425,"Delta":461560357},{"NoteNumber":71,"Velocity":79,"Duration":394425,"SoundDuration":394425,"Delta":461560357},{"NoteNumber":49,"Velocity":53,"Duration":197212,"SoundDuration":197212,"Delta":461560357},{"NoteNumber":59,"Velocity":53,"Duration":197212,"SoundDuration":197212,"Delta":461757570},{"NoteNumber":42,"Velocity":55,"Duration":207125,"SoundDuration":207125,"Delta":461954783},{"NoteNumber":58,"Velocity":46,"Duration":207124,"SoundDuration":207124,"Delta":462161908},{"NoteNumber":73,"Velocity":64,"Duration":103562,"SoundDuration":103562,"Delta":462265470},{"NoteNumber":82,"Velocity":68,"Duration":670155,"SoundDuration":670155,"Delta":462369033},{"NoteNumber":70,"Velocity":68,"Duration":670155,"SoundDuration":670155,"Delta":462369033},{"NoteNumber":49,"Velocity":45,"Duration":191472,"SoundDuration":191472,"Delta":462369033},{"NoteNumber":58,"Velocity":45,"Duration":191473,"SoundDuration":191473,"Delta":462560506},{"NoteNumber":54,"Velocity":52,"Duration":191472,"SoundDuration":191472,"Delta":462751979},{"NoteNumber":58,"Velocity":44,"Duration":191473,"SoundDuration":191473,"Delta":462943452},{"NoteNumber":78,"Velocity":60,"Duration":95736,"SoundDuration":95736,"Delta":463039188},{"NoteNumber":70,"Velocity":67,"Duration":765892,"SoundDuration":765892,"Delta":463134925},{"NoteNumber":82,"Velocity":67,"Duration":765892,"SoundDuration":765892,"Delta":463134925},{"NoteNumber":49,"Velocity":40,"Duration":191472,"SoundDuration":191472,"Delta":463134925},{"NoteNumber":58,"Velocity":40,"Duration":191473,"SoundDuration":191473,"Delta":463326398},{"NoteNumber":36,"Velocity":54,"Duration":191472,"SoundDuration":191472,"Delta":463517871},{"NoteNumber":48,"Velocity":40,"Duration":191473,"SoundDuration":191473,"Delta":463709344},{"NoteNumber":81,"Velocity":55,"Duration":367962,"SoundDuration":367962,"Delta":463900817},{"NoteNumber":69,"Velocity":55,"Duration":367962,"SoundDuration":367962,"Delta":463900817},{"NoteNumber":51,"Velocity":40,"Duration":183981,"SoundDuration":183981,"Delta":463900817},{"NoteNumber":48,"Velocity":40,"Duration":183981,"SoundDuration":183981,"Delta":464084798},{"NoteNumber":80,"Velocity":51,"Duration":367962,"SoundDuration":367962,"Delta":464268779},{"NoteNumber":68,"Velocity":51,"Duration":367962,"SoundDuration":367962,"Delta":464268779},{"NoteNumber":56,"Velocity":52,"Duration":183981,"SoundDuration":183981,"Delta":464268779},{"NoteNumber":48,"Velocity":33,"Duration":183981,"SoundDuration":183981,"Delta":464452761},{"NoteNumber":78,"Velocity":47,"Duration":401606,"SoundDuration":401606,"Delta":464636742},{"NoteNumber":66,"Velocity":47,"Duration":401606,"SoundDuration":401606,"Delta":464636742},{"NoteNumber":57,"Velocity":33,"Duration":200803,"SoundDuration":200803,"Delta":464636742},{"NoteNumber":48,"Velocity":33,"Duration":200803,"SoundDuration":200803,"Delta":464837545},{"NoteNumber":77,"Velocity":39,"Duration":433337,"SoundDuration":433337,"Delta":465038348},{"NoteNumber":65,"Velocity":39,"Duration":433337,"SoundDuration":433337,"Delta":465038348},{"NoteNumber":37,"Velocity":44,"Duration":216669,"SoundDuration":216669,"Delta":465038348},{"NoteNumber":49,"Velocity":34,"Duration":216668,"SoundDuration":216668,"Delta":465255017},{"NoteNumber":73,"Velocity":44,"Duration":385207,"SoundDuration":385207,"Delta":465471686},{"NoteNumber":85,"Velocity":44,"Duration":385207,"SoundDuration":385207,"Delta":465471686},{"NoteNumber":53,"Velocity":35,"Duration":192604,"SoundDuration":192604,"Delta":465471686},{"NoteNumber":49,"Velocity":35,"Duration":192603,"SoundDuration":192603,"Delta":465664290},{"NoteNumber":71,"Velocity":40,"Duration":385208,"SoundDuration":385208,"Delta":465856894},{"NoteNumber":83,"Velocity":40,"Duration":385208,"SoundDuration":385208,"Delta":465856894},{"NoteNumber":56,"Velocity":35,"Duration":192604,"SoundDuration":192604,"Delta":465856894},{"NoteNumber":49,"Velocity":31,"Duration":192604,"SoundDuration":192604,"Delta":466049498},{"NoteNumber":68,"Velocity":40,"Duration":409109,"SoundDuration":409109,"Delta":466242102},{"NoteNumber":80,"Velocity":40,"Duration":409109,"SoundDuration":409109,"Delta":466242102},{"NoteNumber":59,"Velocity":31,"Duration":204554,"SoundDuration":204554,"Delta":466242102},{"NoteNumber":49,"Velocity":31,"Duration":204554,"SoundDuration":204554,"Delta":466446657},{"NoteNumber":78,"Velocity":47,"Duration":1665418,"SoundDuration":1665418,"Delta":466651212},{"NoteNumber":66,"Velocity":47,"Duration":1665418,"SoundDuration":1665418,"Delta":466651212},{"NoteNumber":42,"Velocity":35,"Duration":199600,"SoundDuration":199600,"Delta":466651212},{"NoteNumber":49,"Velocity":29,"Duration":199600,"SoundDuration":199600,"Delta":466850813},{"NoteNumber":58,"Velocity":29,"Duration":199600,"SoundDuration":199600,"Delta":467050413},{"NoteNumber":54,"Velocity":29,"Duration":199600,"SoundDuration":199600,"Delta":467250014},{"NoteNumber":49,"Velocity":35,"Duration":212464,"SoundDuration":212464,"Delta":467449615},{"NoteNumber":54,"Velocity":31,"Duration":212464,"SoundDuration":212464,"Delta":467662079},{"NoteNumber":49,"Velocity":31,"Duration":221043,"SoundDuration":221043,"Delta":467874544},{"NoteNumber":46,"Velocity":31,"Duration":221043,"SoundDuration":221043,"Delta":468095587},{"NoteNumber":62,"Velocity":62,"Duration":200803,"SoundDuration":200803,"Delta":468316630},{"NoteNumber":74,"Velocity":46,"Duration":200803,"SoundDuration":200803,"Delta":468517434},{"NoteNumber":46,"Velocity":60,"Duration":789217,"SoundDuration":789217,"Delta":468617835},{"NoteNumber":65,"Velocity":39,"Duration":200803,"SoundDuration":200803,"Delta":468718237},{"NoteNumber":70,"Velocity":46,"Duration":200803,"SoundDuration":200803,"Delta":468718237},{"NoteNumber":58,"Velocity":72,"Duration":688816,"SoundDuration":688816,"Delta":468718237},{"NoteNumber":74,"Velocity":46,"Duration":200803,"SoundDuration":200803,"Delta":468919040},{"NoteNumber":62,"Velocity":63,"Duration":191472,"SoundDuration":191472,"Delta":469119843},{"NoteNumber":74,"Velocity":44,"Duration":191473,"SoundDuration":191473,"Delta":469311316},{"NoteNumber":46,"Velocity":63,"Duration":842583,"SoundDuration":842583,"Delta":469407053},{"NoteNumber":65,"Velocity":37,"Duration":191472,"SoundDuration":191472,"Delta":469502789},{"NoteNumber":70,"Velocity":44,"Duration":191472,"SoundDuration":191472,"Delta":469502789},{"NoteNumber":58,"Velocity":73,"Duration":746847,"SoundDuration":746847,"Delta":469502789},{"NoteNumber":74,"Velocity":44,"Duration":191473,"SoundDuration":191473,"Delta":469694262},{"NoteNumber":63,"Velocity":63,"Duration":181950,"SoundDuration":181950,"Delta":469885735},{"NoteNumber":75,"Velocity":44,"Duration":181950,"SoundDuration":181950,"Delta":470067686},{"NoteNumber":66,"Velocity":37,"Duration":196027,"SoundDuration":196027,"Delta":470249636},{"NoteNumber":70,"Velocity":44,"Duration":196027,"SoundDuration":196027,"Delta":470249636},{"NoteNumber":54,"Velocity":55,"Duration":294040,"SoundDuration":294040,"Delta":470249636},{"NoteNumber":42,"Velocity":46,"Duration":294040,"SoundDuration":294040,"Delta":470249636},{"NoteNumber":75,"Velocity":44,"Duration":196027,"SoundDuration":196027,"Delta":470445664},{"NoteNumber":70,"Velocity":70,"Duration":191472,"SoundDuration":191472,"Delta":470641691},{"NoteNumber":39,"Velocity":50,"Duration":287209,"SoundDuration":287209,"Delta":470641691},{"NoteNumber":51,"Velocity":59,"Duration":287209,"SoundDuration":287209,"Delta":470641691},{"NoteNumber":82,"Velocity":51,"Duration":191473,"SoundDuration":191473,"Delta":470833164},{"NoteNumber":78,"Velocity":51,"Duration":193723,"SoundDuration":193723,"Delta":471024637},{"NoteNumber":75,"Velocity":51,"Duration":193723,"SoundDuration":193723,"Delta":471024637},{"NoteNumber":34,"Velocity":44,"Duration":280851,"SoundDuration":280851,"Delta":471024637},{"NoteNumber":46,"Velocity":52,"Duration":280851,"SoundDuration":280851,"Delta":471024637},{"NoteNumber":82,"Velocity":51,"Duration":174256,"SoundDuration":174256,"Delta":471218360},{"NoteNumber":63,"Velocity":62,"Duration":193723,"SoundDuration":193723,"Delta":471392617},{"NoteNumber":75,"Velocity":46,"Duration":193723,"SoundDuration":193723,"Delta":471586340},{"NoteNumber":46,"Velocity":60,"Duration":769841,"SoundDuration":769841,"Delta":471683201},{"NoteNumber":66,"Velocity":39,"Duration":193723,"SoundDuration":193723,"Delta":471780063},{"NoteNumber":70,"Velocity":46,"Duration":193723,"SoundDuration":193723,"Delta":471780063},{"NoteNumber":58,"Velocity":72,"Duration":672979,"SoundDuration":672979,"Delta":471780063},{"NoteNumber":75,"Velocity":46,"Duration":193723,"SoundDuration":193723,"Delta":471973786},{"NoteNumber":63,"Velocity":63,"Duration":190355,"SoundDuration":190355,"Delta":472167510},{"NoteNumber":75,"Velocity":44,"Duration":190355,"SoundDuration":190355,"Delta":472357865},{"NoteNumber":45,"Velocity":63,"Duration":475888,"SoundDuration":475888,"Delta":472453042},{"NoteNumber":73,"Velocity":44,"Duration":190355,"SoundDuration":190355,"Delta":472548220},{"NoteNumber":67,"Velocity":37,"Duration":190355,"SoundDuration":190355,"Delta":472548220},{"NoteNumber":57,"Velocity":73,"Duration":380710,"SoundDuration":380710,"Delta":472548220},{"NoteNumber":75,"Velocity":44,"Duration":190355,"SoundDuration":190355,"Delta":472738575},{"NoteNumber":63,"Velocity":66,"Duration":176118,"SoundDuration":176118,"Delta":472928931},{"NoteNumber":44,"Velocity":59,"Duration":352236,"SoundDuration":352236,"Delta":472928931},{"NoteNumber":56,"Velocity":73,"Duration":352236,"SoundDuration":352236,"Delta":472928931},{"NoteNumber":75,"Velocity":49,"Duration":176118,"SoundDuration":176118,"Delta":473105049},{"NoteNumber":72,"Velocity":49,"Duration":190355,"SoundDuration":190355,"Delta":473281167},{"NoteNumber":68,"Velocity":49,"Duration":190355,"SoundDuration":190355,"Delta":473281167},{"NoteNumber":39,"Velocity":46,"Duration":285532,"SoundDuration":285532,"Delta":473281167},{"NoteNumber":51,"Velocity":55,"Duration":285532,"SoundDuration":285532,"Delta":473281167},{"NoteNumber":75,"Velocity":51,"Duration":190355,"SoundDuration":190355,"Delta":473471522},{"NoteNumber":72,"Velocity":64,"Duration":183981,"SoundDuration":183981,"Delta":473661878},{"NoteNumber":36,"Velocity":50,"Duration":275971,"SoundDuration":275971,"Delta":473661878},{"NoteNumber":48,"Velocity":59,"Duration":275971,"SoundDuration":275971,"Delta":473661878},{"NoteNumber":84,"Velocity":49,"Duration":183981,"SoundDuration":183981,"Delta":473845859},{"NoteNumber":80,"Velocity":50,"Duration":196027,"SoundDuration":196027,"Delta":474029840},{"NoteNumber":75,"Velocity":50,"Duration":196027,"SoundDuration":196027,"Delta":474029840},{"NoteNumber":30,"Velocity":44,"Duration":305086,"SoundDuration":305086,"Delta":474029840},{"NoteNumber":42,"Velocity":52,"Duration":305086,"SoundDuration":305086,"Delta":474029840},{"NoteNumber":84,"Velocity":50,"Duration":218118,"SoundDuration":218118,"Delta":474225867},{"NoteNumber":41,"Velocity":57,"Duration":207125,"SoundDuration":207125,"Delta":474443986},{"NoteNumber":53,"Velocity":34,"Duration":207124,"SoundDuration":207124,"Delta":474651111},{"NoteNumber":73,"Velocity":51,"Duration":781593,"SoundDuration":781593,"Delta":474754673},{"NoteNumber":85,"Velocity":65,"Duration":678031,"SoundDuration":678031,"Delta":474858236},{"NoteNumber":49,"Velocity":35,"Duration":193723,"SoundDuration":193723,"Delta":474858236},{"NoteNumber":44,"Velocity":29,"Duration":193723,"SoundDuration":193723,"Delta":474858236},{"NoteNumber":53,"Velocity":35,"Duration":193723,"SoundDuration":193723,"Delta":475051959},{"NoteNumber":43,"Velocity":39,"Duration":193723,"SoundDuration":193723,"Delta":475245682},{"NoteNumber":53,"Velocity":35,"Duration":193723,"SoundDuration":193723,"Delta":475439405},{"NoteNumber":73,"Velocity":54,"Duration":846190,"SoundDuration":846190,"Delta":475536267},{"NoteNumber":85,"Velocity":67,"Duration":749328,"SoundDuration":749328,"Delta":475633129},{"NoteNumber":44,"Velocity":29,"Duration":193723,"SoundDuration":193723,"Delta":475633129},{"NoteNumber":49,"Velocity":35,"Duration":193723,"SoundDuration":193723,"Delta":475633129},{"NoteNumber":53,"Velocity":35,"Duration":193723,"SoundDuration":193723,"Delta":475826852},{"NoteNumber":42,"Velocity":39,"Duration":180941,"SoundDuration":180941,"Delta":476020575},{"NoteNumber":51,"Velocity":34,"Duration":180940,"SoundDuration":180940,"Delta":476201516},{"NoteNumber":70,"Velocity":48,"Duration":378549,"SoundDuration":378549,"Delta":476382457},{"NoteNumber":82,"Velocity":48,"Duration":378549,"SoundDuration":378549,"Delta":476382457},{"NoteNumber":49,"Velocity":34,"Duration":189274,"SoundDuration":189274,"Delta":476382457},{"NoteNumber":46,"Velocity":28,"Duration":189274,"SoundDuration":189274,"Delta":476382457},{"NoteNumber":51,"Velocity":34,"Duration":189274,"SoundDuration":189274,"Delta":476571732},{"NoteNumber":66,"Velocity":51,"Duration":378548,"SoundDuration":378548,"Delta":476761006},{"NoteNumber":78,"Velocity":51,"Duration":378548,"SoundDuration":378548,"Delta":476761006},{"NoteNumber":45,"Velocity":38,"Duration":189274,"SoundDuration":189274,"Delta":476761006},{"NoteNumber":54,"Velocity":34,"Duration":189274,"SoundDuration":189274,"Delta":476950281},{"NoteNumber":82,"Velocity":47,"Duration":394425,"SoundDuration":394425,"Delta":477139555},{"NoteNumber":70,"Velocity":47,"Duration":394425,"SoundDuration":394425,"Delta":477139555},{"NoteNumber":46,"Velocity":28,"Duration":197212,"SoundDuration":197212,"Delta":477139555},{"NoteNumber":49,"Velocity":34,"Duration":197212,"SoundDuration":197212,"Delta":477139555},{"NoteNumber":54,"Velocity":34,"Duration":197212,"SoundDuration":197212,"Delta":477336768},{"NoteNumber":73,"Velocity":39,"Duration":411692,"SoundDuration":411692,"Delta":477533981},{"NoteNumber":61,"Velocity":39,"Duration":411692,"SoundDuration":411692,"Delta":477533981},{"NoteNumber":44,"Velocity":44,"Duration":205846,"SoundDuration":205846,"Delta":477533981},{"NoteNumber":56,"Velocity":34,"Duration":205846,"SoundDuration":205846,"Delta":477739827},{"NoteNumber":80,"Velocity":44,"Duration":389762,"SoundDuration":389762,"Delta":477945673},{"NoteNumber":68,"Velocity":37,"Duration":389762,"SoundDuration":389762,"Delta":477945673},{"NoteNumber":49,"Velocity":29,"Duration":194881,"SoundDuration":194881,"Delta":477945673},{"NoteNumber":53,"Velocity":35,"Duration":194881,"SoundDuration":194881,"Delta":477945673},{"NoteNumber":56,"Velocity":35,"Duration":194881,"SoundDuration":194881,"Delta":478140554},{"NoteNumber":78,"Velocity":40,"Duration":389761,"SoundDuration":389761,"Delta":478335435},{"NoteNumber":66,"Velocity":34,"Duration":389761,"SoundDuration":389761,"Delta":478335435},{"NoteNumber":44,"Velocity":35,"Duration":194881,"SoundDuration":194881,"Delta":478335435},{"NoteNumber":56,"Velocity":31,"Duration":194880,"SoundDuration":194880,"Delta":478530316},{"NoteNumber":75,"Velocity":40,"Duration":414249,"SoundDuration":414249,"Delta":478725197},{"NoteNumber":63,"Velocity":34,"Duration":414249,"SoundDuration":414249,"Delta":478725197},{"NoteNumber":48,"Velocity":26,"Duration":207125,"SoundDuration":207125,"Delta":478725197},{"NoteNumber":54,"Velocity":31,"Duration":207125,"SoundDuration":207125,"Delta":478725197},{"NoteNumber":56,"Velocity":31,"Duration":207124,"SoundDuration":207124,"Delta":478932322},{"NoteNumber":73,"Velocity":44,"Duration":1794206,"SoundDuration":1794206,"Delta":479139447},{"NoteNumber":61,"Velocity":37,"Duration":442086,"SoundDuration":442086,"Delta":479139447},{"NoteNumber":37,"Velocity":35,"Duration":221043,"SoundDuration":221043,"Delta":479139447},{"NoteNumber":49,"Velocity":26,"Duration":221043,"SoundDuration":221043,"Delta":479360490},{"NoteNumber":68,"Velocity":34,"Duration":430477,"SoundDuration":430477,"Delta":479581533},{"NoteNumber":71,"Velocity":40,"Duration":430477,"SoundDuration":430477,"Delta":479581533},{"NoteNumber":56,"Velocity":26,"Duration":215238,"SoundDuration":215238,"Delta":479581533},{"NoteNumber":53,"Velocity":22,"Duration":215238,"SoundDuration":215238,"Delta":479581533},{"NoteNumber":49,"Velocity":26,"Duration":215238,"SoundDuration":215238,"Delta":479796772},{"NoteNumber":66,"Velocity":28,"Duration":451127,"SoundDuration":451127,"Delta":480012011},{"NoteNumber":70,"Velocity":34,"Duration":451127,"SoundDuration":451127,"Delta":480012011},{"NoteNumber":58,"Velocity":37,"Duration":225564,"SoundDuration":225564,"Delta":480012011},{"NoteNumber":54,"Velocity":31,"Duration":225564,"SoundDuration":225564,"Delta":480012011},{"NoteNumber":49,"Velocity":30,"Duration":225563,"SoundDuration":225563,"Delta":480237575},{"NoteNumber":65,"Velocity":28,"Duration":470514,"SoundDuration":470514,"Delta":480463139},{"NoteNumber":68,"Velocity":34,"Duration":470514,"SoundDuration":470514,"Delta":480463139},{"NoteNumber":59,"Velocity":30,"Duration":235257,"SoundDuration":235257,"Delta":480463139},{"NoteNumber":56,"Velocity":25,"Duration":235257,"SoundDuration":235257,"Delta":480463139},{"NoteNumber":49,"Velocity":30,"Duration":235257,"SoundDuration":235257,"Delta":480698396},{"NoteNumber":61,"Velocity":40,"Duration":198386,"SoundDuration":198386,"Delta":480933654},{"NoteNumber":42,"Velocity":45,"Duration":297579,"SoundDuration":297579,"Delta":480933654},{"NoteNumber":73,"Velocity":30,"Duration":198386,"SoundDuration":198386,"Delta":481132040},{"NoteNumber":49,"Velocity":37,"Duration":99193,"SoundDuration":99193,"Delta":481231233},{"NoteNumber":70,"Velocity":30,"Duration":198386,"SoundDuration":198386,"Delta":481330427},{"NoteNumber":66,"Velocity":25,"Duration":198386,"SoundDuration":198386,"Delta":481330427},{"NoteNumber":58,"Velocity":50,"Duration":683982,"SoundDuration":683982,"Delta":481330427},{"NoteNumber":73,"Velocity":30,"Duration":198386,"SoundDuration":198386,"Delta":481528813},{"NoteNumber":61,"Velocity":38,"Duration":191472,"SoundDuration":191472,"Delta":481727200},{"NoteNumber":73,"Velocity":28,"Duration":191473,"SoundDuration":191473,"Delta":481918673},{"NoteNumber":54,"Velocity":34,"Duration":95736,"SoundDuration":95736,"Delta":482014409},{"NoteNumber":70,"Velocity":28,"Duration":191472,"SoundDuration":191472,"Delta":482110146},{"NoteNumber":66,"Velocity":24,"Duration":191472,"SoundDuration":191472,"Delta":482110146},{"NoteNumber":58,"Velocity":46,"Duration":757197,"SoundDuration":757197,"Delta":482110146},{"NoteNumber":73,"Velocity":28,"Duration":191473,"SoundDuration":191473,"Delta":482301619},{"NoteNumber":64,"Velocity":46,"Duration":187125,"SoundDuration":187125,"Delta":482493092},{"NoteNumber":76,"Velocity":34,"Duration":187125,"SoundDuration":187125,"Delta":482680217},{"NoteNumber":73,"Velocity":34,"Duration":196027,"SoundDuration":196027,"Delta":482867343},{"NoteNumber":66,"Velocity":34,"Duration":196027,"SoundDuration":196027,"Delta":482867343},{"NoteNumber":54,"Velocity":45,"Duration":392054,"SoundDuration":392054,"Delta":482867343},{"NoteNumber":76,"Velocity":34,"Duration":196027,"SoundDuration":196027,"Delta":483063370},{"NoteNumber":64,"Velocity":48,"Duration":187125,"SoundDuration":187125,"Delta":483259398},{"NoteNumber":49,"Velocity":49,"Duration":374251,"SoundDuration":374251,"Delta":483259398},{"NoteNumber":76,"Velocity":38,"Duration":187125,"SoundDuration":187125,"Delta":483446523},{"NoteNumber":73,"Velocity":39,"Duration":200803,"SoundDuration":200803,"Delta":483633649},{"NoteNumber":66,"Velocity":39,"Duration":200803,"SoundDuration":200803,"Delta":483633649},{"NoteNumber":46,"Velocity":52,"Duration":414661,"SoundDuration":414661,"Delta":483633649},{"NoteNumber":76,"Velocity":40,"Duration":213858,"SoundDuration":213858,"Delta":483834452},{"NoteNumber":63,"Velocity":54,"Duration":197212,"SoundDuration":197212,"Delta":484048310},{"NoteNumber":35,"Velocity":54,"Duration":221864,"SoundDuration":221864,"Delta":484048310},{"NoteNumber":75,"Velocity":45,"Duration":197212,"SoundDuration":197212,"Delta":484245523},{"NoteNumber":47,"Velocity":60,"Duration":98606,"SoundDuration":98606,"Delta":484344129},{"NoteNumber":66,"Velocity":45,"Duration":197212,"SoundDuration":197212,"Delta":484442736},{"NoteNumber":71,"Velocity":45,"Duration":197212,"SoundDuration":197212,"Delta":484442736},{"NoteNumber":51,"Velocity":66,"Duration":681635,"SoundDuration":681635,"Delta":484442736},{"NoteNumber":75,"Velocity":47,"Duration":197212,"SoundDuration":197212,"Delta":484639949},{"NoteNumber":63,"Velocity":55,"Duration":191472,"SoundDuration":191472,"Delta":484837161},{"NoteNumber":75,"Velocity":47,"Duration":191473,"SoundDuration":191473,"Delta":485028634},{"NoteNumber":47,"Velocity":59,"Duration":95736,"SoundDuration":95736,"Delta":485124371},{"NoteNumber":66,"Velocity":48,"Duration":191472,"SoundDuration":191472,"Delta":485220107},{"NoteNumber":71,"Velocity":48,"Duration":191472,"SoundDuration":191472,"Delta":485220107},{"NoteNumber":51,"Velocity":70,"Duration":746847,"SoundDuration":746847,"Delta":485220107},{"NoteNumber":75,"Velocity":48,"Duration":191473,"SoundDuration":191473,"Delta":485411580},{"NoteNumber":69,"Velocity":59,"Duration":181950,"SoundDuration":181950,"Delta":485603053},{"NoteNumber":81,"Velocity":52,"Duration":181950,"SoundDuration":181950,"Delta":485785004},{"NoteNumber":75,"Velocity":52,"Duration":192604,"SoundDuration":192604,"Delta":485966954},{"NoteNumber":78,"Velocity":52,"Duration":192604,"SoundDuration":192604,"Delta":485966954},{"NoteNumber":48,"Velocity":62,"Duration":288905,"SoundDuration":288905,"Delta":485966954},{"NoteNumber":81,"Velocity":52,"Duration":192603,"SoundDuration":192603,"Delta":486159558},{"NoteNumber":69,"Velocity":63,"Duration":188182,"SoundDuration":188182,"Delta":486352162},{"NoteNumber":45,"Velocity":53,"Duration":282273,"SoundDuration":282273,"Delta":486352162},{"NoteNumber":81,"Velocity":55,"Duration":188182,"SoundDuration":188182,"Delta":486540345},{"NoteNumber":75,"Velocity":58,"Duration":200803,"SoundDuration":200803,"Delta":486728527},{"NoteNumber":78,"Velocity":58,"Duration":200803,"SoundDuration":200803,"Delta":486728527},{"NoteNumber":36,"Velocity":51,"Duration":309137,"SoundDuration":309137,"Delta":486728527},{"NoteNumber":81,"Velocity":59,"Duration":216669,"SoundDuration":216669,"Delta":486929330},{"NoteNumber":51,"Velocity":50,"Duration":204554,"SoundDuration":204554,"Delta":487145999},{"NoteNumber":60,"Velocity":42,"Duration":204554,"SoundDuration":204554,"Delta":487350554},{"NoteNumber":84,"Velocity":59,"Duration":762761,"SoundDuration":762761,"Delta":487452831},{"NoteNumber":96,"Velocity":63,"Duration":660483,"SoundDuration":660483,"Delta":487555109},{"NoteNumber":54,"Velocity":42,"Duration":191472,"SoundDuration":191472,"Delta":487555109},{"NoteNumber":57,"Velocity":42,"Duration":191472,"SoundDuration":191472,"Delta":487555109},{"NoteNumber":60,"Velocity":42,"Duration":191473,"SoundDuration":191473,"Delta":487746582},{"NoteNumber":53,"Velocity":54,"Duration":185025,"SoundDuration":185025,"Delta":487938055},{"NoteNumber":60,"Velocity":46,"Duration":185025,"SoundDuration":185025,"Delta":488123080},{"NoteNumber":84,"Velocity":57,"Duration":462563,"SoundDuration":462563,"Delta":488215592},{"NoteNumber":96,"Velocity":63,"Duration":370050,"SoundDuration":370050,"Delta":488308105},{"NoteNumber":54,"Velocity":42,"Duration":185025,"SoundDuration":185025,"Delta":488308105},{"NoteNumber":57,"Velocity":42,"Duration":185025,"SoundDuration":185025,"Delta":488308105},{"NoteNumber":60,"Velocity":42,"Duration":185025,"SoundDuration":185025,"Delta":488493130},{"NoteNumber":87,"Velocity":63,"Duration":370050,"SoundDuration":370050,"Delta":488678156},{"NoteNumber":99,"Velocity":63,"Duration":370050,"SoundDuration":370050,"Delta":488678156},{"NoteNumber":49,"Velocity":52,"Duration":185025,"SoundDuration":185025,"Delta":488678156},{"NoteNumber":61,"Velocity":39,"Duration":185025,"SoundDuration":185025,"Delta":488863181},{"NoteNumber":85,"Velocity":53,"Duration":365943,"SoundDuration":365943,"Delta":489048206},{"NoteNumber":97,"Velocity":53,"Duration":365943,"SoundDuration":365943,"Delta":489048206},{"NoteNumber":54,"Velocity":39,"Duration":182971,"SoundDuration":182971,"Delta":489048206},{"NoteNumber":58,"Velocity":39,"Duration":182971,"SoundDuration":182971,"Delta":489048206},{"NoteNumber":61,"Velocity":39,"Duration":182971,"SoundDuration":182971,"Delta":489231178},{"NoteNumber":94,"Velocity":50,"Duration":365942,"SoundDuration":365942,"Delta":489414149},{"NoteNumber":82,"Velocity":50,"Duration":365942,"SoundDuration":365942,"Delta":489414149},{"NoteNumber":53,"Velocity":51,"Duration":182971,"SoundDuration":182971,"Delta":489414149},{"NoteNumber":61,"Velocity":33,"Duration":182971,"SoundDuration":182971,"Delta":489597121},{"NoteNumber":78,"Velocity":47,"Duration":404094,"SoundDuration":404094,"Delta":489780092},{"NoteNumber":90,"Velocity":47,"Duration":404094,"SoundDuration":404094,"Delta":489780092},{"NoteNumber":58,"Velocity":33,"Duration":202047,"SoundDuration":202047,"Delta":489780092},{"NoteNumber":54,"Velocity":33,"Duration":202047,"SoundDuration":202047,"Delta":489780092},{"NoteNumber":61,"Velocity":33,"Duration":202047,"SoundDuration":202047,"Delta":489982140},{"NoteNumber":77,"Velocity":39,"Duration":411692,"SoundDuration":411692,"Delta":490184187},{"NoteNumber":89,"Velocity":39,"Duration":411692,"SoundDuration":411692,"Delta":490184187},{"NoteNumber":37,"Velocity":44,"Duration":154384,"SoundDuration":154384,"Delta":490184187},{"NoteNumber":49,"Velocity":34,"Duration":205846,"SoundDuration":205846,"Delta":490390033},{"NoteNumber":97,"Velocity":44,"Duration":389762,"SoundDuration":389762,"Delta":490595879},{"NoteNumber":85,"Velocity":44,"Duration":389762,"SoundDuration":389762,"Delta":490595879},{"NoteNumber":53,"Velocity":35,"Duration":194881,"SoundDuration":194881,"Delta":490595879},{"NoteNumber":49,"Velocity":35,"Duration":194881,"SoundDuration":194881,"Delta":490790760},{"NoteNumber":95,"Velocity":40,"Duration":389761,"SoundDuration":389761,"Delta":490985641},{"NoteNumber":83,"Velocity":40,"Duration":389761,"SoundDuration":389761,"Delta":490985641},{"NoteNumber":56,"Velocity":35,"Duration":194881,"SoundDuration":194881,"Delta":490985641},{"NoteNumber":49,"Velocity":31,"Duration":194880,"SoundDuration":194880,"Delta":491180522},{"NoteNumber":80,"Velocity":40,"Duration":416898,"SoundDuration":416898,"Delta":491375403},{"NoteNumber":92,"Velocity":40,"Duration":416898,"SoundDuration":416898,"Delta":491375403},{"NoteNumber":59,"Velocity":31,"Duration":208449,"SoundDuration":208449,"Delta":491375403},{"NoteNumber":49,"Velocity":31,"Duration":208449,"SoundDuration":208449,"Delta":491583852},{"NoteNumber":90,"Velocity":47,"Duration":1651725,"SoundDuration":1651725,"Delta":491792302},{"NoteNumber":78,"Velocity":47,"Duration":1651725,"SoundDuration":1651725,"Delta":491792302},{"NoteNumber":42,"Velocity":35,"Duration":147020,"SoundDuration":147020,"Delta":491792302},{"NoteNumber":49,"Velocity":29,"Duration":196027,"SoundDuration":196027,"Delta":491988329},{"NoteNumber":58,"Velocity":29,"Duration":196027,"SoundDuration":196027,"Delta":492184356},{"NoteNumber":54,"Velocity":29,"Duration":196027,"SoundDuration":196027,"Delta":492380383},{"NoteNumber":49,"Velocity":35,"Duration":209760,"SoundDuration":209760,"Delta":492576411},{"NoteNumber":54,"Velocity":31,"Duration":209760,"SoundDuration":209760,"Delta":492786171},{"NoteNumber":49,"Velocity":31,"Duration":224047,"SoundDuration":224047,"Delta":492995932},{"NoteNumber":46,"Velocity":31,"Duration":224047,"SoundDuration":224047,"Delta":493219980},{"NoteNumber":62,"Velocity":62,"Duration":200803,"SoundDuration":200803,"Delta":493444028},{"NoteNumber":74,"Velocity":46,"Duration":200803,"SoundDuration":200803,"Delta":493644831},{"NoteNumber":46,"Velocity":60,"Duration":787541,"SoundDuration":787541,"Delta":493745232},{"NoteNumber":70,"Velocity":46,"Duration":200803,"SoundDuration":200803,"Delta":493845634},{"NoteNumber":65,"Velocity":39,"Duration":200803,"SoundDuration":200803,"Delta":493845634},{"NoteNumber":58,"Velocity":72,"Duration":687139,"SoundDuration":687139,"Delta":493845634},{"NoteNumber":74,"Velocity":46,"Duration":200803,"SoundDuration":200803,"Delta":494046437},{"NoteNumber":62,"Velocity":63,"Duration":190355,"SoundDuration":190355,"Delta":494247241},{"NoteNumber":74,"Velocity":44,"Duration":190355,"SoundDuration":190355,"Delta":494437596},{"NoteNumber":46,"Velocity":63,"Duration":833840,"SoundDuration":833840,"Delta":494532773},{"NoteNumber":65,"Velocity":37,"Duration":190355,"SoundDuration":190355,"Delta":494627951},{"NoteNumber":70,"Velocity":44,"Duration":190355,"SoundDuration":190355,"Delta":494627951},{"NoteNumber":58,"Velocity":73,"Duration":738662,"SoundDuration":738662,"Delta":494627951},{"NoteNumber":74,"Velocity":44,"Duration":190355,"SoundDuration":190355,"Delta":494818306},{"NoteNumber":63,"Velocity":63,"Duration":178976,"SoundDuration":178976,"Delta":495008662},{"NoteNumber":75,"Velocity":44,"Duration":178976,"SoundDuration":178976,"Delta":495187638},{"NoteNumber":70,"Velocity":44,"Duration":192604,"SoundDuration":192604,"Delta":495366614},{"NoteNumber":66,"Velocity":37,"Duration":192604,"SoundDuration":192604,"Delta":495366614},{"NoteNumber":42,"Velocity":46,"Duration":288905,"SoundDuration":288905,"Delta":495366614},{"NoteNumber":54,"Velocity":55,"Duration":288905,"SoundDuration":288905,"Delta":495366614},{"NoteNumber":75,"Velocity":44,"Duration":192603,"SoundDuration":192603,"Delta":495559218},{"NoteNumber":70,"Velocity":70,"Duration":188182,"SoundDuration":188182,"Delta":495751822},{"NoteNumber":39,"Velocity":50,"Duration":282273,"SoundDuration":282273,"Delta":495751822},{"NoteNumber":51,"Velocity":59,"Duration":282273,"SoundDuration":282273,"Delta":495751822},{"NoteNumber":82,"Velocity":51,"Duration":188182,"SoundDuration":188182,"Delta":495940004},{"NoteNumber":75,"Velocity":51,"Duration":192604,"SoundDuration":192604,"Delta":496128187},{"NoteNumber":78,"Velocity":51,"Duration":192604,"SoundDuration":192604,"Delta":496128187},{"NoteNumber":34,"Velocity":44,"Duration":281130,"SoundDuration":281130,"Delta":496128187},{"NoteNumber":46,"Velocity":52,"Duration":281130,"SoundDuration":281130,"Delta":496128187},{"NoteNumber":82,"Velocity":51,"Duration":177053,"SoundDuration":177053,"Delta":496320791},{"NoteNumber":63,"Velocity":62,"Duration":193723,"SoundDuration":193723,"Delta":496497844},{"NoteNumber":75,"Velocity":46,"Duration":193723,"SoundDuration":193723,"Delta":496691568},{"NoteNumber":46,"Velocity":60,"Duration":771517,"SoundDuration":771517,"Delta":496788429},{"NoteNumber":66,"Velocity":39,"Duration":193723,"SoundDuration":193723,"Delta":496885291},{"NoteNumber":70,"Velocity":46,"Duration":193723,"SoundDuration":193723,"Delta":496885291},{"NoteNumber":58,"Velocity":72,"Duration":674656,"SoundDuration":674656,"Delta":496885291},{"NoteNumber":75,"Velocity":46,"Duration":193723,"SoundDuration":193723,"Delta":497079014},{"NoteNumber":63,"Velocity":63,"Duration":191472,"SoundDuration":191472,"Delta":497272737},{"NoteNumber":75,"Velocity":44,"Duration":191473,"SoundDuration":191473,"Delta":497464210},{"NoteNumber":45,"Velocity":63,"Duration":478682,"SoundDuration":478682,"Delta":497559947},{"NoteNumber":73,"Velocity":44,"Duration":191472,"SoundDuration":191472,"Delta":497655683},{"NoteNumber":67,"Velocity":37,"Duration":191472,"SoundDuration":191472,"Delta":497655683},{"NoteNumber":57,"Velocity":73,"Duration":382946,"SoundDuration":382946,"Delta":497655683},{"NoteNumber":75,"Velocity":44,"Duration":191473,"SoundDuration":191473,"Delta":497847156},{"NoteNumber":63,"Velocity":66,"Duration":177053,"SoundDuration":177053,"Delta":498038629},{"NoteNumber":44,"Velocity":65,"Duration":354107,"SoundDuration":354107,"Delta":498038629},{"NoteNumber":56,"Velocity":73,"Duration":354107,"SoundDuration":354107,"Delta":498038629},{"NoteNumber":75,"Velocity":49,"Duration":177053,"SoundDuration":177053,"Delta":498215683},{"NoteNumber":72,"Velocity":49,"Duration":193723,"SoundDuration":193723,"Delta":498392737},{"NoteNumber":68,"Velocity":49,"Duration":193723,"SoundDuration":193723,"Delta":498392737},{"NoteNumber":39,"Velocity":46,"Duration":290584,"SoundDuration":290584,"Delta":498392737},{"NoteNumber":51,"Velocity":55,"Duration":290584,"SoundDuration":290584,"Delta":498392737},{"NoteNumber":75,"Velocity":51,"Duration":193723,"SoundDuration":193723,"Delta":498586460},{"NoteNumber":72,"Velocity":64,"Duration":188182,"SoundDuration":188182,"Delta":498780183},{"NoteNumber":36,"Velocity":50,"Duration":282273,"SoundDuration":282273,"Delta":498780183},{"NoteNumber":48,"Velocity":59,"Duration":282273,"SoundDuration":282273,"Delta":498780183},{"NoteNumber":84,"Velocity":49,"Duration":188182,"SoundDuration":188182,"Delta":498968366},{"NoteNumber":80,"Velocity":50,"Duration":202047,"SoundDuration":202047,"Delta":499156548},{"NoteNumber":75,"Velocity":50,"Duration":202047,"SoundDuration":202047,"Delta":499156548},{"NoteNumber":42,"Velocity":52,"Duration":311824,"SoundDuration":311824,"Delta":499156548},{"NoteNumber":30,"Velocity":44,"Duration":311824,"SoundDuration":311824,"Delta":499156548},{"NoteNumber":84,"Velocity":50,"Duration":219555,"SoundDuration":219555,"Delta":499358595},{"NoteNumber":41,"Velocity":57,"Duration":203279,"SoundDuration":203279,"Delta":499578150},{"NoteNumber":53,"Velocity":34,"Duration":203279,"SoundDuration":203279,"Delta":499781430},{"NoteNumber":73,"Velocity":51,"Duration":775753,"SoundDuration":775753,"Delta":499883070},{"NoteNumber":85,"Velocity":65,"Duration":674113,"SoundDuration":674113,"Delta":499984709},{"NoteNumber":49,"Velocity":35,"Duration":192604,"SoundDuration":192604,"Delta":499984709},{"NoteNumber":44,"Velocity":29,"Duration":192604,"SoundDuration":192604,"Delta":499984709},{"NoteNumber":53,"Velocity":35,"Duration":192603,"SoundDuration":192603,"Delta":500177313},{"NoteNumber":43,"Velocity":39,"Duration":192604,"SoundDuration":192604,"Delta":500369917},{"NoteNumber":53,"Velocity":35,"Duration":192604,"SoundDuration":192604,"Delta":500562521},{"NoteNumber":73,"Velocity":54,"Duration":841438,"SoundDuration":841438,"Delta":500658823},{"NoteNumber":85,"Velocity":67,"Duration":745136,"SoundDuration":745136,"Delta":500755125},{"NoteNumber":49,"Velocity":35,"Duration":192603,"SoundDuration":192603,"Delta":500755125},{"NoteNumber":44,"Velocity":29,"Duration":192603,"SoundDuration":192603,"Delta":500755125},{"NoteNumber":53,"Velocity":35,"Duration":192604,"SoundDuration":192604,"Delta":500947729},{"NoteNumber":42,"Velocity":39,"Duration":179963,"SoundDuration":179963,"Delta":501140333},{"NoteNumber":51,"Velocity":34,"Duration":179964,"SoundDuration":179964,"Delta":501320297},{"NoteNumber":82,"Velocity":48,"Duration":380710,"SoundDuration":380710,"Delta":501500261},{"NoteNumber":70,"Velocity":48,"Duration":380710,"SoundDuration":380710,"Delta":501500261},{"NoteNumber":46,"Velocity":28,"Duration":190355,"SoundDuration":190355,"Delta":501500261},{"NoteNumber":49,"Velocity":34,"Duration":190355,"SoundDuration":190355,"Delta":501500261},{"NoteNumber":51,"Velocity":34,"Duration":190355,"SoundDuration":190355,"Delta":501690617},{"NoteNumber":78,"Velocity":51,"Duration":380710,"SoundDuration":380710,"Delta":501880972},{"NoteNumber":66,"Velocity":51,"Duration":380710,"SoundDuration":380710,"Delta":501880972},{"NoteNumber":45,"Velocity":38,"Duration":190355,"SoundDuration":190355,"Delta":501880972},{"NoteNumber":54,"Velocity":34,"Duration":190355,"SoundDuration":190355,"Delta":502071327},{"NoteNumber":82,"Velocity":47,"Duration":396772,"SoundDuration":396772,"Delta":502261682},{"NoteNumber":70,"Velocity":47,"Duration":396772,"SoundDuration":396772,"Delta":502261682},{"NoteNumber":46,"Velocity":28,"Duration":198386,"SoundDuration":198386,"Delta":502261682},{"NoteNumber":49,"Velocity":34,"Duration":198386,"SoundDuration":198386,"Delta":502261682},{"NoteNumber":54,"Velocity":34,"Duration":198386,"SoundDuration":198386,"Delta":502460069},{"NoteNumber":73,"Velocity":39,"Duration":419521,"SoundDuration":419521,"Delta":502658455},{"NoteNumber":61,"Velocity":39,"Duration":419521,"SoundDuration":419521,"Delta":502658455},{"NoteNumber":44,"Velocity":44,"Duration":209760,"SoundDuration":209760,"Delta":502658455},{"NoteNumber":56,"Velocity":34,"Duration":209760,"SoundDuration":209760,"Delta":502868216},{"NoteNumber":80,"Velocity":44,"Duration":392054,"SoundDuration":392054,"Delta":503077977},{"NoteNumber":68,"Velocity":37,"Duration":392054,"SoundDuration":392054,"Delta":503077977},{"NoteNumber":53,"Velocity":35,"Duration":196027,"SoundDuration":196027,"Delta":503077977},{"NoteNumber":49,"Velocity":29,"Duration":196027,"SoundDuration":196027,"Delta":503077977},{"NoteNumber":56,"Velocity":35,"Duration":196027,"SoundDuration":196027,"Delta":503274004},{"NoteNumber":78,"Velocity":40,"Duration":392054,"SoundDuration":392054,"Delta":503470031},{"NoteNumber":66,"Velocity":34,"Duration":392054,"SoundDuration":392054,"Delta":503470031},{"NoteNumber":44,"Velocity":35,"Duration":196027,"SoundDuration":196027,"Delta":503470031},{"NoteNumber":56,"Velocity":31,"Duration":196027,"SoundDuration":196027,"Delta":503666059},{"NoteNumber":75,"Velocity":40,"Duration":419521,"SoundDuration":419521,"Delta":503862086},{"NoteNumber":63,"Velocity":34,"Duration":419521,"SoundDuration":419521,"Delta":503862086},{"NoteNumber":48,"Velocity":26,"Duration":209760,"SoundDuration":209760,"Delta":503862086},{"NoteNumber":54,"Velocity":31,"Duration":209760,"SoundDuration":209760,"Delta":503862086},{"NoteNumber":56,"Velocity":31,"Duration":209760,"SoundDuration":209760,"Delta":504071847},{"NoteNumber":73,"Velocity":44,"Duration":1752862,"SoundDuration":1752862,"Delta":504281607},{"NoteNumber":61,"Velocity":37,"Duration":436236,"SoundDuration":436236,"Delta":504281607},{"NoteNumber":37,"Velocity":35,"Duration":218118,"SoundDuration":218118,"Delta":504281607},{"NoteNumber":49,"Velocity":26,"Duration":218118,"SoundDuration":218118,"Delta":504499726},{"NoteNumber":68,"Velocity":34,"Duration":416898,"SoundDuration":416898,"Delta":504717844},{"NoteNumber":71,"Velocity":40,"Duration":416898,"SoundDuration":416898,"Delta":504717844},{"NoteNumber":56,"Velocity":26,"Duration":208449,"SoundDuration":208449,"Delta":504717844},{"NoteNumber":53,"Velocity":22,"Duration":208449,"SoundDuration":208449,"Delta":504717844},{"NoteNumber":49,"Velocity":26,"Duration":208449,"SoundDuration":208449,"Delta":504926293},{"NoteNumber":70,"Velocity":34,"Duration":439110,"SoundDuration":439110,"Delta":505134742},{"NoteNumber":66,"Velocity":28,"Duration":439110,"SoundDuration":439110,"Delta":505134742},{"NoteNumber":54,"Velocity":31,"Duration":219555,"SoundDuration":219555,"Delta":505134742},{"NoteNumber":58,"Velocity":37,"Duration":219555,"SoundDuration":219555,"Delta":505134742},{"NoteNumber":49,"Velocity":30,"Duration":219555,"SoundDuration":219555,"Delta":505354297},{"NoteNumber":65,"Velocity":28,"Duration":460617,"SoundDuration":460617,"Delta":505573852},{"NoteNumber":68,"Velocity":34,"Duration":460617,"SoundDuration":460617,"Delta":505573852},{"NoteNumber":59,"Velocity":30,"Duration":230308,"SoundDuration":230308,"Delta":505573852},{"NoteNumber":56,"Velocity":25,"Duration":230308,"SoundDuration":230308,"Delta":505573852},{"NoteNumber":49,"Velocity":30,"Duration":230308,"SoundDuration":230308,"Delta":505804161},{"NoteNumber":61,"Velocity":40,"Duration":200803,"SoundDuration":200803,"Delta":506034469},{"NoteNumber":42,"Velocity":45,"Duration":301204,"SoundDuration":301204,"Delta":506034469},{"NoteNumber":73,"Velocity":30,"Duration":200803,"SoundDuration":200803,"Delta":506235273},{"NoteNumber":49,"Velocity":37,"Duration":100401,"SoundDuration":100401,"Delta":506335674},{"NoteNumber":66,"Velocity":25,"Duration":200803,"SoundDuration":200803,"Delta":506436076},{"NoteNumber":70,"Velocity":30,"Duration":200803,"SoundDuration":200803,"Delta":506436076},{"NoteNumber":58,"Velocity":50,"Duration":692191,"SoundDuration":692191,"Delta":506436076},{"NoteNumber":73,"Velocity":30,"Duration":200803,"SoundDuration":200803,"Delta":506636879},{"NoteNumber":61,"Velocity":38,"Duration":193723,"SoundDuration":193723,"Delta":506837682},{"NoteNumber":73,"Velocity":28,"Duration":193723,"SoundDuration":193723,"Delta":507031406},{"NoteNumber":54,"Velocity":34,"Duration":96861,"SoundDuration":96861,"Delta":507128267},{"NoteNumber":70,"Velocity":28,"Duration":193723,"SoundDuration":193723,"Delta":507225129},{"NoteNumber":66,"Velocity":24,"Duration":193723,"SoundDuration":193723,"Delta":507225129},{"NoteNumber":58,"Velocity":46,"Duration":755408,"SoundDuration":755408,"Delta":507225129},{"NoteNumber":73,"Velocity":28,"Duration":193723,"SoundDuration":193723,"Delta":507418852},{"NoteNumber":64,"Velocity":46,"Duration":183981,"SoundDuration":183981,"Delta":507612575},{"NoteNumber":76,"Velocity":34,"Duration":183981,"SoundDuration":183981,"Delta":507796557},{"NoteNumber":73,"Velocity":34,"Duration":191472,"SoundDuration":191472,"Delta":507980538},{"NoteNumber":66,"Velocity":34,"Duration":191472,"SoundDuration":191472,"Delta":507980538},{"NoteNumber":54,"Velocity":45,"Duration":382946,"SoundDuration":382946,"Delta":507980538},{"NoteNumber":76,"Velocity":34,"Duration":191473,"SoundDuration":191473,"Delta":508172011},{"NoteNumber":64,"Velocity":48,"Duration":182971,"SoundDuration":182971,"Delta":508363484},{"NoteNumber":49,"Velocity":49,"Duration":365943,"SoundDuration":365943,"Delta":508363484},{"NoteNumber":76,"Velocity":38,"Duration":182971,"SoundDuration":182971,"Delta":508546455},{"NoteNumber":73,"Velocity":39,"Duration":198386,"SoundDuration":198386,"Delta":508729427},{"NoteNumber":66,"Velocity":39,"Duration":198386,"SoundDuration":198386,"Delta":508729427},{"NoteNumber":46,"Velocity":52,"Duration":408147,"SoundDuration":408147,"Delta":508729427},{"NoteNumber":76,"Velocity":40,"Duration":209760,"SoundDuration":209760,"Delta":508927813},{"NoteNumber":63,"Velocity":54,"Duration":199600,"SoundDuration":199600,"Delta":509137574},{"NoteNumber":35,"Velocity":54,"Duration":299401,"SoundDuration":299401,"Delta":509137574},{"NoteNumber":75,"Velocity":45,"Duration":199600,"SoundDuration":199600,"Delta":509337175},{"NoteNumber":47,"Velocity":60,"Duration":99800,"SoundDuration":99800,"Delta":509436975},{"NoteNumber":71,"Velocity":45,"Duration":199600,"SoundDuration":199600,"Delta":509536776},{"NoteNumber":66,"Velocity":45,"Duration":199600,"SoundDuration":199600,"Delta":509536776},{"NoteNumber":51,"Velocity":66,"Duration":684734,"SoundDuration":684734,"Delta":509536776},{"NoteNumber":75,"Velocity":47,"Duration":199600,"SoundDuration":199600,"Delta":509736376},{"NoteNumber":63,"Velocity":55,"Duration":190355,"SoundDuration":190355,"Delta":509935977},{"NoteNumber":75,"Velocity":47,"Duration":190355,"SoundDuration":190355,"Delta":510126332},{"NoteNumber":47,"Velocity":59,"Duration":95177,"SoundDuration":95177,"Delta":510221510},{"NoteNumber":66,"Velocity":48,"Duration":190355,"SoundDuration":190355,"Delta":510316688},{"NoteNumber":71,"Velocity":48,"Duration":190355,"SoundDuration":190355,"Delta":510316688},{"NoteNumber":51,"Velocity":70,"Duration":748672,"SoundDuration":748672,"Delta":510316688},{"NoteNumber":75,"Velocity":48,"Duration":190355,"SoundDuration":190355,"Delta":510507043},{"NoteNumber":69,"Velocity":59,"Duration":183981,"SoundDuration":183981,"Delta":510697398},{"NoteNumber":81,"Velocity":52,"Duration":183981,"SoundDuration":183981,"Delta":510881379},{"NoteNumber":78,"Velocity":52,"Duration":196027,"SoundDuration":196027,"Delta":511065361},{"NoteNumber":75,"Velocity":52,"Duration":196027,"SoundDuration":196027,"Delta":511065361},{"NoteNumber":48,"Velocity":62,"Duration":392054,"SoundDuration":392054,"Delta":511065361},{"NoteNumber":81,"Velocity":52,"Duration":196027,"SoundDuration":196027,"Delta":511261388},{"NoteNumber":69,"Velocity":63,"Duration":185025,"SoundDuration":185025,"Delta":511457415},{"NoteNumber":45,"Velocity":53,"Duration":370050,"SoundDuration":370050,"Delta":511457415},{"NoteNumber":81,"Velocity":55,"Duration":185025,"SoundDuration":185025,"Delta":511642440},{"NoteNumber":78,"Velocity":58,"Duration":198386,"SoundDuration":198386,"Delta":511827466},{"NoteNumber":75,"Velocity":58,"Duration":198386,"SoundDuration":198386,"Delta":511827466},{"NoteNumber":36,"Velocity":51,"Duration":417941,"SoundDuration":417941,"Delta":511827466},{"NoteNumber":81,"Velocity":59,"Duration":219555,"SoundDuration":219555,"Delta":512025852},{"NoteNumber":51,"Velocity":50,"Duration":202047,"SoundDuration":202047,"Delta":512245407},{"NoteNumber":60,"Velocity":42,"Duration":202047,"SoundDuration":202047,"Delta":512447455},{"NoteNumber":84,"Velocity":59,"Duration":773059,"SoundDuration":773059,"Delta":512548478},{"NoteNumber":96,"Velocity":63,"Duration":672035,"SoundDuration":672035,"Delta":512649502},{"NoteNumber":54,"Velocity":42,"Duration":194881,"SoundDuration":194881,"Delta":512649502},{"NoteNumber":57,"Velocity":42,"Duration":194881,"SoundDuration":194881,"Delta":512649502},{"NoteNumber":60,"Velocity":42,"Duration":194881,"SoundDuration":194881,"Delta":512844383},{"NoteNumber":53,"Velocity":54,"Duration":188182,"SoundDuration":188182,"Delta":513039264},{"NoteNumber":60,"Velocity":46,"Duration":188182,"SoundDuration":188182,"Delta":513227446},{"NoteNumber":84,"Velocity":57,"Duration":470455,"SoundDuration":470455,"Delta":513321537},{"NoteNumber":96,"Velocity":63,"Duration":376364,"SoundDuration":376364,"Delta":513415629},{"NoteNumber":57,"Velocity":42,"Duration":188182,"SoundDuration":188182,"Delta":513415629},{"NoteNumber":54,"Velocity":42,"Duration":188182,"SoundDuration":188182,"Delta":513415629},{"NoteNumber":60,"Velocity":42,"Duration":188182,"SoundDuration":188182,"Delta":513603811},{"NoteNumber":87,"Velocity":63,"Duration":376364,"SoundDuration":376364,"Delta":513791993},{"NoteNumber":99,"Velocity":63,"Duration":376364,"SoundDuration":376364,"Delta":513791993},{"NoteNumber":49,"Velocity":52,"Duration":188182,"SoundDuration":188182,"Delta":513791993},{"NoteNumber":61,"Velocity":39,"Duration":188182,"SoundDuration":188182,"Delta":513980175},{"NoteNumber":97,"Velocity":53,"Duration":372116,"SoundDuration":372116,"Delta":514168358},{"NoteNumber":85,"Velocity":53,"Duration":372116,"SoundDuration":372116,"Delta":514168358},{"NoteNumber":54,"Velocity":39,"Duration":186058,"SoundDuration":186058,"Delta":514168358},{"NoteNumber":58,"Velocity":39,"Duration":186058,"SoundDuration":186058,"Delta":514168358},{"NoteNumber":61,"Velocity":39,"Duration":186058,"SoundDuration":186058,"Delta":514354416},{"NoteNumber":82,"Velocity":50,"Duration":372116,"SoundDuration":372116,"Delta":514540474},{"NoteNumber":94,"Velocity":50,"Duration":372116,"SoundDuration":372116,"Delta":514540474},{"NoteNumber":53,"Velocity":51,"Duration":186058,"SoundDuration":186058,"Delta":514540474},{"NoteNumber":61,"Velocity":33,"Duration":186058,"SoundDuration":186058,"Delta":514726532},{"NoteNumber":78,"Velocity":47,"Duration":406559,"SoundDuration":406559,"Delta":514912590},{"NoteNumber":90,"Velocity":47,"Duration":406559,"SoundDuration":406559,"Delta":514912590},{"NoteNumber":54,"Velocity":33,"Duration":203279,"SoundDuration":203279,"Delta":514912590},{"NoteNumber":58,"Velocity":33,"Duration":203279,"SoundDuration":203279,"Delta":514912590},{"NoteNumber":61,"Velocity":33,"Duration":203279,"SoundDuration":203279,"Delta":515115869},{"NoteNumber":89,"Velocity":39,"Duration":392054,"SoundDuration":392054,"Delta":515319149},{"NoteNumber":77,"Velocity":39,"Duration":392054,"SoundDuration":392054,"Delta":515319149},{"NoteNumber":37,"Velocity":44,"Duration":147020,"SoundDuration":147020,"Delta":515319149},{"NoteNumber":49,"Velocity":34,"Duration":196027,"SoundDuration":196027,"Delta":515515176},{"NoteNumber":97,"Velocity":44,"Duration":382945,"SoundDuration":382945,"Delta":515711203},{"NoteNumber":85,"Velocity":44,"Duration":382945,"SoundDuration":382945,"Delta":515711203},{"NoteNumber":53,"Velocity":35,"Duration":191472,"SoundDuration":191472,"Delta":515711203},{"NoteNumber":49,"Velocity":35,"Duration":191472,"SoundDuration":191472,"Delta":515902676},{"NoteNumber":83,"Velocity":40,"Duration":382946,"SoundDuration":382946,"Delta":516094149},{"NoteNumber":95,"Velocity":40,"Duration":382946,"SoundDuration":382946,"Delta":516094149},{"NoteNumber":56,"Velocity":35,"Duration":191473,"SoundDuration":191473,"Delta":516094149},{"NoteNumber":49,"Velocity":31,"Duration":191472,"SoundDuration":191472,"Delta":516285622},{"NoteNumber":92,"Velocity":40,"Duration":409109,"SoundDuration":409109,"Delta":516477095},{"NoteNumber":80,"Velocity":40,"Duration":409109,"SoundDuration":409109,"Delta":516477095},{"NoteNumber":59,"Velocity":31,"Duration":204554,"SoundDuration":204554,"Delta":516477095},{"NoteNumber":49,"Velocity":31,"Duration":204554,"SoundDuration":204554,"Delta":516681650},{"NoteNumber":90,"Velocity":47,"Duration":1228142,"SoundDuration":1228142,"Delta":516886205},{"NoteNumber":78,"Velocity":47,"Duration":1228142,"SoundDuration":1228142,"Delta":516886205},{"NoteNumber":42,"Velocity":35,"Duration":150602,"SoundDuration":150602,"Delta":516886205},{"NoteNumber":58,"Velocity":29,"Duration":200803,"SoundDuration":200803,"Delta":517087008},{"NoteNumber":49,"Velocity":29,"Duration":200803,"SoundDuration":200803,"Delta":517287811},{"NoteNumber":58,"Velocity":29,"Duration":200803,"SoundDuration":200803,"Delta":517488614},{"NoteNumber":54,"Velocity":35,"Duration":212464,"SoundDuration":212464,"Delta":517689418},{"NoteNumber":58,"Velocity":31,"Duration":212464,"SoundDuration":212464,"Delta":517901882},{"NoteNumber":78,"Velocity":44,"Duration":460616,"SoundDuration":460616,"Delta":518114347},{"NoteNumber":66,"Velocity":37,"Duration":460616,"SoundDuration":460616,"Delta":518114347},{"NoteNumber":49,"Velocity":31,"Duration":230308,"SoundDuration":230308,"Delta":518114347},{"NoteNumber":58,"Velocity":31,"Duration":230308,"SoundDuration":230308,"Delta":518344655},{"NoteNumber":77,"Velocity":34,"Duration":404094,"SoundDuration":404094,"Delta":518574964},{"NoteNumber":65,"Velocity":28,"Duration":404094,"SoundDuration":404094,"Delta":518574964},{"NoteNumber":37,"Velocity":44,"Duration":151535,"SoundDuration":151535,"Delta":518574964},{"NoteNumber":59,"Velocity":32,"Duration":202047,"SoundDuration":202047,"Delta":518777011},{"NoteNumber":73,"Velocity":37,"Duration":389762,"SoundDuration":389762,"Delta":518979059},{"NoteNumber":85,"Velocity":44,"Duration":389762,"SoundDuration":389762,"Delta":518979059},{"NoteNumber":49,"Velocity":27,"Duration":194881,"SoundDuration":194881,"Delta":518979059},{"NoteNumber":53,"Velocity":32,"Duration":194881,"SoundDuration":194881,"Delta":518979059},{"NoteNumber":59,"Velocity":32,"Duration":194881,"SoundDuration":194881,"Delta":519173940},{"NoteNumber":71,"Velocity":34,"Duration":389762,"SoundDuration":389762,"Delta":519368821},{"NoteNumber":83,"Velocity":40,"Duration":389762,"SoundDuration":389762,"Delta":519368821},{"NoteNumber":53,"Velocity":35,"Duration":194881,"SoundDuration":194881,"Delta":519368821},{"NoteNumber":50,"Velocity":29,"Duration":194881,"SoundDuration":194881,"Delta":519368821},{"NoteNumber":59,"Velocity":31,"Duration":194881,"SoundDuration":194881,"Delta":519563702},{"NoteNumber":80,"Velocity":35,"Duration":419521,"SoundDuration":419521,"Delta":519758583},{"NoteNumber":68,"Velocity":29,"Duration":419521,"SoundDuration":419521,"Delta":519758583},{"NoteNumber":49,"Velocity":26,"Duration":209760,"SoundDuration":209760,"Delta":519758583},{"NoteNumber":53,"Velocity":31,"Duration":209760,"SoundDuration":209760,"Delta":519758583},{"NoteNumber":59,"Velocity":31,"Duration":209760,"SoundDuration":209760,"Delta":519968343},{"NoteNumber":66,"Velocity":37,"Duration":1233691,"SoundDuration":1233691,"Delta":520178104},{"NoteNumber":78,"Velocity":44,"Duration":1233691,"SoundDuration":1233691,"Delta":520178104},{"NoteNumber":42,"Velocity":35,"Duration":150602,"SoundDuration":150602,"Delta":520178104},{"NoteNumber":58,"Velocity":29,"Duration":200803,"SoundDuration":200803,"Delta":520378907},{"NoteNumber":49,"Velocity":29,"Duration":200803,"SoundDuration":200803,"Delta":520579711},{"NoteNumber":58,"Velocity":29,"Duration":200803,"SoundDuration":200803,"Delta":520780514},{"NoteNumber":54,"Velocity":35,"Duration":215238,"SoundDuration":215238,"Delta":520981317},{"NoteNumber":58,"Velocity":30,"Duration":215238,"SoundDuration":215238,"Delta":521196556},{"NoteNumber":66,"Velocity":44,"Duration":457387,"SoundDuration":457387,"Delta":521411795},{"NoteNumber":49,"Velocity":30,"Duration":228693,"SoundDuration":228693,"Delta":521411795},{"NoteNumber":58,"Velocity":30,"Duration":228693,"SoundDuration":228693,"Delta":521640489},{"NoteNumber":65,"Velocity":34,"Duration":404094,"SoundDuration":404094,"Delta":521869182},{"NoteNumber":37,"Velocity":44,"Duration":151535,"SoundDuration":151535,"Delta":521869182},{"NoteNumber":59,"Velocity":30,"Duration":202047,"SoundDuration":202047,"Delta":522071230},{"NoteNumber":73,"Velocity":44,"Duration":392054,"SoundDuration":392054,"Delta":522273277},{"NoteNumber":49,"Velocity":30,"Duration":196027,"SoundDuration":196027,"Delta":522273277},{"NoteNumber":53,"Velocity":30,"Duration":196027,"SoundDuration":196027,"Delta":522273277},{"NoteNumber":59,"Velocity":30,"Duration":196027,"SoundDuration":196027,"Delta":522469304},{"NoteNumber":71,"Velocity":40,"Duration":392054,"SoundDuration":392054,"Delta":522665332},{"NoteNumber":50,"Velocity":29,"Duration":196027,"SoundDuration":196027,"Delta":522665332},{"NoteNumber":53,"Velocity":35,"Duration":196027,"SoundDuration":196027,"Delta":522665332},{"NoteNumber":59,"Velocity":29,"Duration":196027,"SoundDuration":196027,"Delta":522861359},{"NoteNumber":68,"Velocity":35,"Duration":406559,"SoundDuration":406559,"Delta":523057386},{"NoteNumber":53,"Velocity":29,"Duration":203279,"SoundDuration":203279,"Delta":523057386},{"NoteNumber":49,"Velocity":29,"Duration":203279,"SoundDuration":203279,"Delta":523057386},{"NoteNumber":59,"Velocity":31,"Duration":203279,"SoundDuration":203279,"Delta":523260666},{"NoteNumber":66,"Velocity":44,"Duration":1713078,"SoundDuration":1713078,"Delta":523463945},{"NoteNumber":42,"Velocity":35,"Duration":153416,"SoundDuration":153416,"Delta":523463945},{"NoteNumber":58,"Velocity":29,"Duration":204554,"SoundDuration":204554,"Delta":523668500},{"NoteNumber":49,"Velocity":29,"Duration":204554,"SoundDuration":204554,"Delta":523873055},{"NoteNumber":58,"Velocity":29,"Duration":204554,"SoundDuration":204554,"Delta":524077609},{"NoteNumber":54,"Velocity":35,"Duration":213857,"SoundDuration":213857,"Delta":524282164},{"NoteNumber":58,"Velocity":29,"Duration":213858,"SoundDuration":213858,"Delta":524496022},{"NoteNumber":49,"Velocity":29,"Duration":233571,"SoundDuration":233571,"Delta":524709880},{"NoteNumber":58,"Velocity":29,"Duration":233571,"SoundDuration":233571,"Delta":524943452},{"NoteNumber":66,"Velocity":46,"Duration":803213,"SoundDuration":803213,"Delta":525177024},{"NoteNumber":42,"Velocity":35,"Duration":150602,"SoundDuration":150602,"Delta":525177024},{"NoteNumber":58,"Velocity":28,"Duration":200803,"SoundDuration":200803,"Delta":525377827},{"NoteNumber":49,"Velocity":28,"Duration":200803,"SoundDuration":200803,"Delta":525578631},{"NoteNumber":58,"Velocity":28,"Duration":200803,"SoundDuration":200803,"Delta":525779434},{"NoteNumber":66,"Velocity":46,"Duration":1259280,"SoundDuration":1259280,"Delta":525980237},{"NoteNumber":54,"Velocity":35,"Duration":207125,"SoundDuration":207125,"Delta":525980237},{"NoteNumber":58,"Velocity":31,"Duration":207125,"SoundDuration":207125,"Delta":526187362},{"NoteNumber":49,"Velocity":31,"Duration":216669,"SoundDuration":216669,"Delta":526394487},{"NoteNumber":58,"Velocity":31,"Duration":216669,"SoundDuration":216669,"Delta":526611156},{"NoteNumber":42,"Velocity":40,"Duration":154384,"SoundDuration":154384,"Delta":526827825},{"NoteNumber":58,"Velocity":36,"Duration":205846,"SoundDuration":205846,"Delta":527033671},{"NoteNumber":66,"Velocity":51,"Duration":411692,"SoundDuration":411692,"Delta":527239517},{"NoteNumber":49,"Velocity":36,"Duration":205845,"SoundDuration":205845,"Delta":527239517},{"NoteNumber":58,"Velocity":36,"Duration":205846,"SoundDuration":205846,"Delta":527445363},{"NoteNumber":65,"Velocity":44,"Duration":439110,"SoundDuration":439110,"Delta":527651209},{"NoteNumber":54,"Velocity":35,"Duration":219555,"SoundDuration":219555,"Delta":527651209},{"NoteNumber":58,"Velocity":31,"Duration":219555,"SoundDuration":219555,"Delta":527870764},{"NoteNumber":64,"Velocity":44,"Duration":480769,"SoundDuration":480769,"Delta":528090319},{"NoteNumber":49,"Velocity":31,"Duration":240384,"SoundDuration":240384,"Delta":528090319},{"NoteNumber":58,"Velocity":31,"Duration":240384,"SoundDuration":240384,"Delta":528330704},{"NoteNumber":65,"Velocity":46,"Duration":2595528,"SoundDuration":2595528,"Delta":528571088},{"NoteNumber":41,"Velocity":35,"Duration":160393,"SoundDuration":160393,"Delta":528571088},{"NoteNumber":58,"Velocity":28,"Duration":213858,"SoundDuration":213858,"Delta":528784946},{"NoteNumber":50,"Velocity":28,"Duration":213857,"SoundDuration":213857,"Delta":528998804},{"NoteNumber":58,"Velocity":28,"Duration":213857,"SoundDuration":213857,"Delta":529212662},{"NoteNumber":53,"Velocity":35,"Duration":219555,"SoundDuration":219555,"Delta":529426520},{"NoteNumber":58,"Velocity":31,"Duration":219555,"SoundDuration":219555,"Delta":529646075},{"NoteNumber":50,"Velocity":31,"Duration":225563,"SoundDuration":225563,"Delta":529865630},{"NoteNumber":58,"Velocity":31,"Duration":225564,"SoundDuration":225564,"Delta":530091194},{"NoteNumber":41,"Velocity":40,"Duration":159348,"SoundDuration":159348,"Delta":530316758},{"NoteNumber":58,"Velocity":36,"Duration":212464,"SoundDuration":212464,"Delta":530529223},{"NoteNumber":50,"Velocity":36,"Duration":212464,"SoundDuration":212464,"Delta":530741687},{"NoteNumber":58,"Velocity":36,"Duration":212464,"SoundDuration":212464,"Delta":530954152},{"NoteNumber":70,"Velocity":39,"Duration":929970,"SoundDuration":929970,"Delta":531166616},{"NoteNumber":53,"Velocity":35,"Duration":221043,"SoundDuration":221043,"Delta":531166616},{"NoteNumber":58,"Velocity":29,"Duration":221043,"SoundDuration":221043,"Delta":531387659},{"NoteNumber":50,"Velocity":29,"Duration":243941,"SoundDuration":243941,"Delta":531608703},{"NoteNumber":58,"Velocity":29,"Duration":243942,"SoundDuration":243942,"Delta":531852645},{"NoteNumber":69,"Velocity":43,"Duration":855431,"SoundDuration":855431,"Delta":532096587},{"NoteNumber":41,"Velocity":35,"Duration":160393,"SoundDuration":160393,"Delta":532096587},{"NoteNumber":57,"Velocity":28,"Duration":213858,"SoundDuration":213858,"Delta":532310445},{"NoteNumber":51,"Velocity":28,"Duration":213857,"SoundDuration":213857,"Delta":532524303},{"NoteNumber":57,"Velocity":28,"Duration":213857,"SoundDuration":213857,"Delta":532738161},{"NoteNumber":77,"Velocity":38,"Duration":909101,"SoundDuration":909101,"Delta":532952019},{"NoteNumber":53,"Velocity":35,"Duration":219555,"SoundDuration":219555,"Delta":532952019},{"NoteNumber":57,"Velocity":29,"Duration":219555,"SoundDuration":219555,"Delta":533171574},{"NoteNumber":51,"Velocity":29,"Duration":235257,"SoundDuration":235257,"Delta":533391129},{"NoteNumber":57,"Velocity":29,"Duration":234733,"SoundDuration":234733,"Delta":533626386},{"NoteNumber":75,"Velocity":38,"Duration":908173,"SoundDuration":908173,"Delta":533861120},{"NoteNumber":41,"Velocity":36,"Duration":165087,"SoundDuration":165087,"Delta":533861120},{"NoteNumber":57,"Velocity":30,"Duration":224966,"SoundDuration":224966,"Delta":534081764},{"NoteNumber":51,"Velocity":30,"Duration":228871,"SoundDuration":228871,"Delta":534306730},{"NoteNumber":57,"Velocity":26,"Duration":233691,"SoundDuration":233691,"Delta":534535602},{"NoteNumber":72,"Velocity":38,"Duration":1932392,"SoundDuration":1932392,"Delta":534769293},{"NoteNumber":53,"Velocity":33,"Duration":1932392,"SoundDuration":1932392,"Delta":534769293},{"NoteNumber":57,"Velocity":23,"Duration":1640960,"SoundDuration":1640960,"Delta":535060725},{"NoteNumber":51,"Velocity":23,"Duration":1318101,"SoundDuration":1318101,"Delta":535383584},{"NoteNumber":89,"Velocity":46,"Duration":245780,"SoundDuration":245780,"Delta":536701686},{"NoteNumber":88,"Velocity":51,"Duration":103433,"SoundDuration":103433,"Delta":536947466},{"NoteNumber":46,"Velocity":40,"Duration":155151,"SoundDuration":155151,"Delta":536947466},{"NoteNumber":91,"Velocity":46,"Duration":103433,"SoundDuration":103433,"Delta":537050900},{"NoteNumber":89,"Velocity":46,"Duration":103433,"SoundDuration":103433,"Delta":537154334},{"NoteNumber":87,"Velocity":50,"Duration":103433,"SoundDuration":103433,"Delta":537257768},{"NoteNumber":62,"Velocity":34,"Duration":627126,"SoundDuration":627126,"Delta":537257768},{"NoteNumber":58,"Velocity":28,"Duration":627126,"SoundDuration":627126,"Delta":537257768},{"NoteNumber":53,"Velocity":28,"Duration":627126,"SoundDuration":627126,"Delta":537257768},{"NoteNumber":86,"Velocity":46,"Duration":103433,"SoundDuration":103433,"Delta":537361202},{"NoteNumber":84,"Velocity":46,"Duration":103743,"SoundDuration":103743,"Delta":537464636},{"NoteNumber":82,"Velocity":50,"Duration":104637,"SoundDuration":104637,"Delta":537568380},{"NoteNumber":81,"Velocity":46,"Duration":105497,"SoundDuration":105497,"Delta":537673018},{"NoteNumber":79,"Velocity":46,"Duration":106379,"SoundDuration":106379,"Delta":537778515},{"NoteNumber":77,"Velocity":46,"Duration":107380,"SoundDuration":107380,"Delta":537884895},{"NoteNumber":53,"Velocity":28,"Duration":363309,"SoundDuration":363309,"Delta":537884895},{"NoteNumber":58,"Velocity":28,"Duration":363309,"SoundDuration":363309,"Delta":537884895},{"NoteNumber":62,"Velocity":34,"Duration":363309,"SoundDuration":363309,"Delta":537884895},{"NoteNumber":75,"Velocity":46,"Duration":108436,"SoundDuration":108436,"Delta":537992276},{"NoteNumber":74,"Velocity":46,"Duration":147492,"SoundDuration":147492,"Delta":538100713},{"NoteNumber":72,"Velocity":43,"Duration":687386,"SoundDuration":687386,"Delta":538248205},{"NoteNumber":50,"Velocity":40,"Duration":165672,"SoundDuration":165672,"Delta":538248205},{"NoteNumber":53,"Velocity":24,"Duration":702381,"SoundDuration":702381,"Delta":538579551},{"NoteNumber":58,"Velocity":24,"Duration":702381,"SoundDuration":702381,"Delta":538579551},{"NoteNumber":65,"Velocity":29,"Duration":702381,"SoundDuration":702381,"Delta":538579551},{"NoteNumber":70,"Velocity":38,"Duration":346340,"SoundDuration":346340,"Delta":538935592},{"NoteNumber":53,"Velocity":24,"Duration":346340,"SoundDuration":346340,"Delta":539281932},{"NoteNumber":58,"Velocity":24,"Duration":346340,"SoundDuration":346340,"Delta":539281932},{"NoteNumber":65,"Velocity":29,"Duration":346340,"SoundDuration":346340,"Delta":539281932},{"NoteNumber":70,"Velocity":46,"Duration":173170,"SoundDuration":173170,"Delta":539455102},{"NoteNumber":69,"Velocity":36,"Duration":101884,"SoundDuration":101884,"Delta":539628273},{"NoteNumber":48,"Velocity":40,"Duration":152827,"SoundDuration":152827,"Delta":539628273},{"NoteNumber":70,"Velocity":37,"Duration":101884,"SoundDuration":101884,"Delta":539730158},{"NoteNumber":72,"Velocity":38,"Duration":101884,"SoundDuration":101884,"Delta":539832042},{"NoteNumber":74,"Velocity":40,"Duration":101884,"SoundDuration":101884,"Delta":539933927},{"NoteNumber":63,"Velocity":34,"Duration":616276,"SoundDuration":616276,"Delta":539933927},{"NoteNumber":57,"Velocity":28,"Duration":616276,"SoundDuration":616276,"Delta":539933927},{"NoteNumber":53,"Velocity":28,"Duration":616276,"SoundDuration":616276,"Delta":539933927},{"NoteNumber":75,"Velocity":41,"Duration":101884,"SoundDuration":101884,"Delta":540035812},{"NoteNumber":77,"Velocity":42,"Duration":101943,"SoundDuration":101943,"Delta":540137697},{"NoteNumber":79,"Velocity":44,"Duration":102606,"SoundDuration":102606,"Delta":540239640},{"NoteNumber":81,"Velocity":45,"Duration":103488,"SoundDuration":103488,"Delta":540342247},{"NoteNumber":82,"Velocity":46,"Duration":104468,"SoundDuration":104468,"Delta":540445735},{"NoteNumber":83,"Velocity":48,"Duration":105328,"SoundDuration":105328,"Delta":540550204},{"NoteNumber":53,"Velocity":28,"Duration":359249,"SoundDuration":359249,"Delta":540550204},{"NoteNumber":57,"Velocity":28,"Duration":359249,"SoundDuration":359249,"Delta":540550204},{"NoteNumber":63,"Velocity":34,"Duration":359249,"SoundDuration":359249,"Delta":540550204},{"NoteNumber":84,"Velocity":49,"Duration":106428,"SoundDuration":106428,"Delta":540655533},{"NoteNumber":86,"Velocity":51,"Duration":147492,"SoundDuration":147492,"Delta":540761961},{"NoteNumber":89,"Velocity":65,"Duration":685123,"SoundDuration":685123,"Delta":540909454},{"NoteNumber":41,"Velocity":40,"Duration":168406,"SoundDuration":168406,"Delta":540909454},{"NoteNumber":53,"Velocity":24,"Duration":696621,"SoundDuration":696621,"Delta":541246267},{"NoteNumber":57,"Velocity":24,"Duration":696621,"SoundDuration":696621,"Delta":541246267},{"NoteNumber":60,"Velocity":29,"Duration":696621,"SoundDuration":696621,"Delta":541246267},{"NoteNumber":87,"Velocity":61,"Duration":348310,"SoundDuration":348310,"Delta":541594578},{"NoteNumber":53,"Velocity":24,"Duration":348310,"SoundDuration":348310,"Delta":541942888},{"NoteNumber":57,"Velocity":24,"Duration":348310,"SoundDuration":348310,"Delta":541942888},{"NoteNumber":60,"Velocity":29,"Duration":348310,"SoundDuration":348310,"Delta":541942888},{"NoteNumber":87,"Velocity":46,"Duration":174155,"SoundDuration":174155,"Delta":542117043},{"NoteNumber":86,"Velocity":51,"Duration":102923,"SoundDuration":102923,"Delta":542291199},{"NoteNumber":46,"Velocity":40,"Duration":154384,"SoundDuration":154384,"Delta":542291199},{"NoteNumber":98,"Velocity":46,"Duration":102922,"SoundDuration":102922,"Delta":542394122},{"NoteNumber":96,"Velocity":46,"Duration":102923,"SoundDuration":102923,"Delta":542497045},{"NoteNumber":94,"Velocity":50,"Duration":102923,"SoundDuration":102923,"Delta":542599968},{"NoteNumber":62,"Velocity":34,"Duration":620277,"SoundDuration":620277,"Delta":542599968},{"NoteNumber":58,"Velocity":28,"Duration":620277,"SoundDuration":620277,"Delta":542599968},{"NoteNumber":53,"Velocity":28,"Duration":620277,"SoundDuration":620277,"Delta":542599968},{"NoteNumber":93,"Velocity":46,"Duration":102923,"SoundDuration":102923,"Delta":542702891},{"NoteNumber":91,"Velocity":46,"Duration":102922,"SoundDuration":102922,"Delta":542805814},{"NoteNumber":89,"Velocity":50,"Duration":102999,"SoundDuration":102999,"Delta":542908737},{"NoteNumber":87,"Velocity":46,"Duration":103783,"SoundDuration":103783,"Delta":543011736},{"NoteNumber":86,"Velocity":46,"Duration":104725,"SoundDuration":104725,"Delta":543115519},{"NoteNumber":84,"Velocity":46,"Duration":105585,"SoundDuration":105585,"Delta":543220245},{"NoteNumber":53,"Velocity":28,"Duration":359541,"SoundDuration":359541,"Delta":543220245},{"NoteNumber":58,"Velocity":28,"Duration":359541,"SoundDuration":359541,"Delta":543220245},{"NoteNumber":62,"Velocity":34,"Duration":359541,"SoundDuration":359541,"Delta":543220245},{"NoteNumber":82,"Velocity":46,"Duration":106463,"SoundDuration":106463,"Delta":543325830},{"NoteNumber":81,"Velocity":46,"Duration":147492,"SoundDuration":147492,"Delta":543432294},{"NoteNumber":79,"Velocity":51,"Duration":103960,"SoundDuration":103960,"Delta":543579787},{"NoteNumber":39,"Velocity":40,"Duration":155941,"SoundDuration":155941,"Delta":543579787},{"NoteNumber":91,"Velocity":46,"Duration":103960,"SoundDuration":103960,"Delta":543683747},{"NoteNumber":89,"Velocity":46,"Duration":103960,"SoundDuration":103960,"Delta":543787708},{"NoteNumber":87,"Velocity":50,"Duration":103960,"SoundDuration":103960,"Delta":543891669},{"NoteNumber":58,"Velocity":24,"Duration":628805,"SoundDuration":628805,"Delta":543891669},{"NoteNumber":51,"Velocity":24,"Duration":628805,"SoundDuration":628805,"Delta":543891669},{"NoteNumber":55,"Velocity":24,"Duration":628805,"SoundDuration":628805,"Delta":543891669},{"NoteNumber":60,"Velocity":29,"Duration":628805,"SoundDuration":628805,"Delta":543891669},{"NoteNumber":86,"Velocity":46,"Duration":103960,"SoundDuration":103960,"Delta":543995630},{"NoteNumber":84,"Velocity":46,"Duration":104021,"SoundDuration":104021,"Delta":544099591},{"NoteNumber":82,"Velocity":50,"Duration":104712,"SoundDuration":104712,"Delta":544203613},{"NoteNumber":81,"Velocity":49,"Duration":105630,"SoundDuration":105630,"Delta":544308325},{"NoteNumber":79,"Velocity":50,"Duration":106518,"SoundDuration":106518,"Delta":544413956},{"NoteNumber":77,"Velocity":52,"Duration":107521,"SoundDuration":107521,"Delta":544520474},{"NoteNumber":58,"Velocity":24,"Duration":357341,"SoundDuration":357341,"Delta":544520474},{"NoteNumber":51,"Velocity":24,"Duration":357341,"SoundDuration":357341,"Delta":544520474},{"NoteNumber":55,"Velocity":24,"Duration":357341,"SoundDuration":357341,"Delta":544520474},{"NoteNumber":60,"Velocity":29,"Duration":357341,"SoundDuration":357341,"Delta":544520474},{"NoteNumber":75,"Velocity":53,"Duration":108436,"SoundDuration":108436,"Delta":544627996},{"NoteNumber":74,"Velocity":54,"Duration":141382,"SoundDuration":141382,"Delta":544736433},{"NoteNumber":72,"Velocity":56,"Duration":104504,"SoundDuration":104504,"Delta":544877816},{"NoteNumber":40,"Velocity":40,"Duration":156756,"SoundDuration":156756,"Delta":544877816},{"NoteNumber":76,"Velocity":56,"Duration":104504,"SoundDuration":104504,"Delta":544982320},{"NoteNumber":79,"Velocity":55,"Duration":104504,"SoundDuration":104504,"Delta":545086824},{"NoteNumber":82,"Velocity":54,"Duration":104504,"SoundDuration":104504,"Delta":545191328},{"NoteNumber":58,"Velocity":28,"Duration":629844,"SoundDuration":629844,"Delta":545191328},{"NoteNumber":60,"Velocity":34,"Duration":629844,"SoundDuration":629844,"Delta":545191328},{"NoteNumber":55,"Velocity":28,"Duration":629844,"SoundDuration":629844,"Delta":545191328},{"NoteNumber":52,"Velocity":28,"Duration":629844,"SoundDuration":629844,"Delta":545191328},{"NoteNumber":79,"Velocity":53,"Duration":104504,"SoundDuration":104504,"Delta":545295833},{"NoteNumber":82,"Velocity":52,"Duration":104504,"SoundDuration":104504,"Delta":545400337},{"NoteNumber":84,"Velocity":51,"Duration":104584,"SoundDuration":104584,"Delta":545504841},{"NoteNumber":88,"Velocity":50,"Duration":105394,"SoundDuration":105394,"Delta":545609426},{"NoteNumber":91,"Velocity":49,"Duration":106352,"SoundDuration":106352,"Delta":545714820},{"NoteNumber":94,"Velocity":47,"Duration":107247,"SoundDuration":107247,"Delta":545821173},{"NoteNumber":48,"Velocity":34,"Duration":362896,"SoundDuration":362896,"Delta":545821173},{"NoteNumber":91,"Velocity":46,"Duration":108156,"SoundDuration":108156,"Delta":545928420},{"NoteNumber":88,"Velocity":45,"Duration":147492,"SoundDuration":147492,"Delta":546036576},{"NoteNumber":89,"Velocity":53,"Duration":347842,"SoundDuration":347842,"Delta":546184069},{"NoteNumber":41,"Velocity":40,"Duration":174601,"SoundDuration":174601,"Delta":546184069},{"NoteNumber":89,"Velocity":49,"Duration":112062,"SoundDuration":112062,"Delta":546531911},{"NoteNumber":53,"Velocity":31,"Duration":1073823,"SoundDuration":1073823,"Delta":546531911},{"NoteNumber":60,"Velocity":31,"Duration":339524,"SoundDuration":339524,"Delta":546531911},{"NoteNumber":57,"Velocity":31,"Duration":339524,"SoundDuration":339524,"Delta":546531911},{"NoteNumber":91,"Velocity":43,"Duration":113119,"SoundDuration":113119,"Delta":546643973},{"NoteNumber":89,"Velocity":43,"Duration":114342,"SoundDuration":114342,"Delta":546757093},{"NoteNumber":88,"Velocity":48,"Duration":115229,"SoundDuration":115229,"Delta":546871436},{"NoteNumber":62,"Velocity":31,"Duration":353613,"SoundDuration":353613,"Delta":546871436},{"NoteNumber":58,"Velocity":31,"Duration":353613,"SoundDuration":353613,"Delta":546871436},{"NoteNumber":91,"Velocity":42,"Duration":117738,"SoundDuration":117738,"Delta":546986665},{"NoteNumber":89,"Velocity":42,"Duration":120646,"SoundDuration":120646,"Delta":547104404},{"NoteNumber":88,"Velocity":43,"Duration":123686,"SoundDuration":123686,"Delta":547225050},{"NoteNumber":57,"Velocity":31,"Duration":380685,"SoundDuration":380685,"Delta":547225050},{"NoteNumber":63,"Velocity":31,"Duration":380685,"SoundDuration":380685,"Delta":547225050},{"NoteNumber":91,"Velocity":42,"Duration":126887,"SoundDuration":126887,"Delta":547348736},{"NoteNumber":89,"Velocity":40,"Duration":130110,"SoundDuration":130110,"Delta":547475624},{"NoteNumber":88,"Velocity":51,"Duration":103433,"SoundDuration":103433,"Delta":547605735},{"NoteNumber":46,"Velocity":40,"Duration":155151,"SoundDuration":155151,"Delta":547605735},{"NoteNumber":91,"Velocity":46,"Duration":103433,"SoundDuration":103433,"Delta":547709169},{"NoteNumber":89,"Velocity":46,"Duration":103433,"SoundDuration":103433,"Delta":547812603},{"NoteNumber":87,"Velocity":50,"Duration":103433,"SoundDuration":103433,"Delta":547916037},{"NoteNumber":62,"Velocity":34,"Duration":627126,"SoundDuration":627126,"Delta":547916037},{"NoteNumber":58,"Velocity":28,"Duration":627126,"SoundDuration":627126,"Delta":547916037},{"NoteNumber":53,"Velocity":28,"Duration":627126,"SoundDuration":627126,"Delta":547916037},{"NoteNumber":86,"Velocity":46,"Duration":103433,"SoundDuration":103433,"Delta":548019471},{"NoteNumber":84,"Velocity":46,"Duration":103743,"SoundDuration":103743,"Delta":548122905},{"NoteNumber":82,"Velocity":50,"Duration":104637,"SoundDuration":104637,"Delta":548226648},{"NoteNumber":81,"Velocity":46,"Duration":105497,"SoundDuration":105497,"Delta":548331286},{"NoteNumber":79,"Velocity":46,"Duration":106379,"SoundDuration":106379,"Delta":548436784},{"NoteNumber":77,"Velocity":46,"Duration":107380,"SoundDuration":107380,"Delta":548543164},{"NoteNumber":53,"Velocity":28,"Duration":363309,"SoundDuration":363309,"Delta":548543164},{"NoteNumber":58,"Velocity":28,"Duration":363309,"SoundDuration":363309,"Delta":548543164},{"NoteNumber":62,"Velocity":34,"Duration":363309,"SoundDuration":363309,"Delta":548543164},{"NoteNumber":75,"Velocity":46,"Duration":108436,"SoundDuration":108436,"Delta":548650544},{"NoteNumber":74,"Velocity":46,"Duration":147492,"SoundDuration":147492,"Delta":548758981},{"NoteNumber":72,"Velocity":43,"Duration":693227,"SoundDuration":693227,"Delta":548906474},{"NoteNumber":50,"Velocity":40,"Duration":165672,"SoundDuration":165672,"Delta":548906474},{"NoteNumber":53,"Velocity":24,"Duration":708222,"SoundDuration":708222,"Delta":549237819},{"NoteNumber":58,"Velocity":24,"Duration":708222,"SoundDuration":708222,"Delta":549237819},{"NoteNumber":65,"Velocity":29,"Duration":708222,"SoundDuration":708222,"Delta":549237819},{"NoteNumber":70,"Velocity":38,"Duration":346340,"SoundDuration":346340,"Delta":549599701},{"NoteNumber":53,"Velocity":24,"Duration":346340,"SoundDuration":346340,"Delta":549946042},{"NoteNumber":58,"Velocity":24,"Duration":346340,"SoundDuration":346340,"Delta":549946042},{"NoteNumber":65,"Velocity":29,"Duration":346340,"SoundDuration":346340,"Delta":549946042},{"NoteNumber":70,"Velocity":46,"Duration":173170,"SoundDuration":173170,"Delta":550119212},{"NoteNumber":69,"Velocity":36,"Duration":101884,"SoundDuration":101884,"Delta":550292382},{"NoteNumber":48,"Velocity":40,"Duration":152827,"SoundDuration":152827,"Delta":550292382},{"NoteNumber":70,"Velocity":37,"Duration":101884,"SoundDuration":101884,"Delta":550394267},{"NoteNumber":72,"Velocity":38,"Duration":101884,"SoundDuration":101884,"Delta":550496152},{"NoteNumber":74,"Velocity":40,"Duration":101884,"SoundDuration":101884,"Delta":550598037},{"NoteNumber":63,"Velocity":34,"Duration":616276,"SoundDuration":616276,"Delta":550598037},{"NoteNumber":57,"Velocity":28,"Duration":616276,"SoundDuration":616276,"Delta":550598037},{"NoteNumber":53,"Velocity":28,"Duration":616276,"SoundDuration":616276,"Delta":550598037},{"NoteNumber":75,"Velocity":41,"Duration":101884,"SoundDuration":101884,"Delta":550699921},{"NoteNumber":77,"Velocity":42,"Duration":101943,"SoundDuration":101943,"Delta":550801806},{"NoteNumber":79,"Velocity":44,"Duration":102606,"SoundDuration":102606,"Delta":550903750},{"NoteNumber":81,"Velocity":45,"Duration":103488,"SoundDuration":103488,"Delta":551006356},{"NoteNumber":82,"Velocity":46,"Duration":104468,"SoundDuration":104468,"Delta":551109845},{"NoteNumber":83,"Velocity":48,"Duration":105328,"SoundDuration":105328,"Delta":551214313},{"NoteNumber":53,"Velocity":28,"Duration":359249,"SoundDuration":359249,"Delta":551214313},{"NoteNumber":57,"Velocity":28,"Duration":359249,"SoundDuration":359249,"Delta":551214313},{"NoteNumber":63,"Velocity":34,"Duration":359249,"SoundDuration":359249,"Delta":551214313},{"NoteNumber":84,"Velocity":49,"Duration":106428,"SoundDuration":106428,"Delta":551319642},{"NoteNumber":86,"Velocity":51,"Duration":147492,"SoundDuration":147492,"Delta":551426070},{"NoteNumber":89,"Velocity":65,"Duration":514833,"SoundDuration":514833,"Delta":551573563},{"NoteNumber":41,"Velocity":40,"Duration":168406,"SoundDuration":168406,"Delta":551573563},{"NoteNumber":57,"Velocity":24,"Duration":704554,"SoundDuration":704554,"Delta":551910377},{"NoteNumber":53,"Velocity":24,"Duration":704554,"SoundDuration":704554,"Delta":551910377},{"NoteNumber":60,"Velocity":29,"Duration":704554,"SoundDuration":704554,"Delta":551910377},{"NoteNumber":88,"Velocity":59,"Duration":178020,"SoundDuration":178020,"Delta":552088397},{"NoteNumber":87,"Velocity":61,"Duration":348513,"SoundDuration":348513,"Delta":552266418},{"NoteNumber":60,"Velocity":29,"Duration":348513,"SoundDuration":348513,"Delta":552614931},{"NoteNumber":53,"Velocity":24,"Duration":348513,"SoundDuration":348513,"Delta":552614931},{"NoteNumber":57,"Velocity":24,"Duration":348513,"SoundDuration":348513,"Delta":552614931},{"NoteNumber":87,"Velocity":46,"Duration":174256,"SoundDuration":174256,"Delta":552789187},{"NoteNumber":86,"Velocity":51,"Duration":102923,"SoundDuration":102923,"Delta":552963444},{"NoteNumber":46,"Velocity":40,"Duration":154384,"SoundDuration":154384,"Delta":552963444},{"NoteNumber":98,"Velocity":46,"Duration":102922,"SoundDuration":102922,"Delta":553066367},{"NoteNumber":96,"Velocity":46,"Duration":102923,"SoundDuration":102923,"Delta":553169290},{"NoteNumber":94,"Velocity":50,"Duration":102923,"SoundDuration":102923,"Delta":553272213},{"NoteNumber":62,"Velocity":34,"Duration":620277,"SoundDuration":620277,"Delta":553272213},{"NoteNumber":58,"Velocity":28,"Duration":620277,"SoundDuration":620277,"Delta":553272213},{"NoteNumber":53,"Velocity":28,"Duration":620277,"SoundDuration":620277,"Delta":553272213},{"NoteNumber":93,"Velocity":46,"Duration":102923,"SoundDuration":102923,"Delta":553375136},{"NoteNumber":91,"Velocity":46,"Duration":102922,"SoundDuration":102922,"Delta":553478059},{"NoteNumber":89,"Velocity":50,"Duration":102999,"SoundDuration":102999,"Delta":553580982},{"NoteNumber":87,"Velocity":46,"Duration":103783,"SoundDuration":103783,"Delta":553683981},{"NoteNumber":86,"Velocity":49,"Duration":104725,"SoundDuration":104725,"Delta":553787764},{"NoteNumber":84,"Velocity":52,"Duration":105585,"SoundDuration":105585,"Delta":553892490},{"NoteNumber":53,"Velocity":28,"Duration":359541,"SoundDuration":359541,"Delta":553892490},{"NoteNumber":58,"Velocity":28,"Duration":359541,"SoundDuration":359541,"Delta":553892490},{"NoteNumber":62,"Velocity":34,"Duration":359541,"SoundDuration":359541,"Delta":553892490},{"NoteNumber":82,"Velocity":54,"Duration":106463,"SoundDuration":106463,"Delta":553998075},{"NoteNumber":81,"Velocity":57,"Duration":147492,"SoundDuration":147492,"Delta":554104539},{"NoteNumber":79,"Velocity":60,"Duration":103960,"SoundDuration":103960,"Delta":554252031},{"NoteNumber":52,"Velocity":40,"Duration":155941,"SoundDuration":155941,"Delta":554252031},{"NoteNumber":94,"Velocity":60,"Duration":103960,"SoundDuration":103960,"Delta":554355992},{"NoteNumber":91,"Velocity":58,"Duration":103960,"SoundDuration":103960,"Delta":554459953},{"NoteNumber":88,"Velocity":56,"Duration":103960,"SoundDuration":103960,"Delta":554563914},{"NoteNumber":61,"Velocity":24,"Duration":628805,"SoundDuration":628805,"Delta":554563914},{"NoteNumber":58,"Velocity":24,"Duration":628805,"SoundDuration":628805,"Delta":554563914},{"NoteNumber":67,"Velocity":29,"Duration":628805,"SoundDuration":628805,"Delta":554563914},{"NoteNumber":85,"Velocity":54,"Duration":103960,"SoundDuration":103960,"Delta":554667875},{"NoteNumber":82,"Velocity":52,"Duration":104021,"SoundDuration":104021,"Delta":554771836},{"NoteNumber":79,"Velocity":56,"Duration":104712,"SoundDuration":104712,"Delta":554875858},{"NoteNumber":76,"Velocity":51,"Duration":105630,"SoundDuration":105630,"Delta":554980570},{"NoteNumber":73,"Velocity":50,"Duration":106518,"SoundDuration":106518,"Delta":555086201},{"NoteNumber":70,"Velocity":49,"Duration":107521,"SoundDuration":107521,"Delta":555192719},{"NoteNumber":58,"Velocity":24,"Duration":357341,"SoundDuration":357341,"Delta":555192719},{"NoteNumber":55,"Velocity":24,"Duration":357341,"SoundDuration":357341,"Delta":555192719},{"NoteNumber":61,"Velocity":29,"Duration":357341,"SoundDuration":357341,"Delta":555192719},{"NoteNumber":67,"Velocity":49,"Duration":108436,"SoundDuration":108436,"Delta":555300241},{"NoteNumber":64,"Velocity":48,"Duration":141382,"SoundDuration":141382,"Delta":555408678},{"NoteNumber":65,"Velocity":49,"Duration":104504,"SoundDuration":104504,"Delta":555550061},{"NoteNumber":41,"Velocity":40,"Duration":156756,"SoundDuration":156756,"Delta":555550061},{"NoteNumber":64,"Velocity":45,"Duration":104504,"SoundDuration":104504,"Delta":555654565},{"NoteNumber":65,"Velocity":45,"Duration":104504,"SoundDuration":104504,"Delta":555759069},{"NoteNumber":67,"Velocity":44,"Duration":104504,"SoundDuration":104504,"Delta":555863573},{"NoteNumber":58,"Velocity":31,"Duration":313512,"SoundDuration":313512,"Delta":555863573},{"NoteNumber":53,"Velocity":31,"Duration":963670,"SoundDuration":963670,"Delta":555863573},{"NoteNumber":60,"Velocity":31,"Duration":629844,"SoundDuration":629844,"Delta":555863573},{"NoteNumber":69,"Velocity":44,"Duration":104504,"SoundDuration":104504,"Delta":555968078},{"NoteNumber":70,"Velocity":44,"Duration":104504,"SoundDuration":104504,"Delta":556072582},{"NoteNumber":72,"Velocity":44,"Duration":104584,"SoundDuration":104584,"Delta":556177086},{"NoteNumber":57,"Velocity":31,"Duration":316331,"SoundDuration":316331,"Delta":556177086},{"NoteNumber":74,"Velocity":43,"Duration":105394,"SoundDuration":105394,"Delta":556281671},{"NoteNumber":75,"Velocity":44,"Duration":106352,"SoundDuration":106352,"Delta":556387065},{"NoteNumber":77,"Velocity":45,"Duration":107098,"SoundDuration":107098,"Delta":556493418},{"NoteNumber":63,"Velocity":31,"Duration":333825,"SoundDuration":333825,"Delta":556493418},{"NoteNumber":60,"Velocity":31,"Duration":333825,"SoundDuration":333825,"Delta":556493418},{"NoteNumber":79,"Velocity":46,"Duration":107238,"SoundDuration":107238,"Delta":556600516},{"NoteNumber":81,"Velocity":47,"Duration":119488,"SoundDuration":119488,"Delta":556707755},{"NoteNumber":82,"Velocity":48,"Duration":107538,"SoundDuration":107538,"Delta":556827244},{"NoteNumber":46,"Velocity":40,"Duration":161307,"SoundDuration":161307,"Delta":556827244},{"NoteNumber":86,"Velocity":49,"Duration":107365,"SoundDuration":107365,"Delta":556934782},{"NoteNumber":89,"Velocity":51,"Duration":106923,"SoundDuration":106923,"Delta":557042148},{"NoteNumber":94,"Velocity":52,"Duration":106343,"SoundDuration":106343,"Delta":557149071},{"NoteNumber":62,"Velocity":31,"Duration":953773,"SoundDuration":953773,"Delta":557149071},{"NoteNumber":58,"Velocity":31,"Duration":953773,"SoundDuration":953773,"Delta":557149071},{"NoteNumber":98,"Velocity":54,"Duration":105864,"SoundDuration":105864,"Delta":557255415},{"NoteNumber":96,"Velocity":54,"Duration":105114,"SoundDuration":105114,"Delta":557361280},{"NoteNumber":94,"Velocity":53,"Duration":104394,"SoundDuration":104394,"Delta":557466394},{"NoteNumber":89,"Velocity":52,"Duration":105086,"SoundDuration":105086,"Delta":557570788},{"NoteNumber":86,"Velocity":50,"Duration":105644,"SoundDuration":105644,"Delta":557675875},{"NoteNumber":82,"Velocity":48,"Duration":106434,"SoundDuration":106434,"Delta":557781519},{"NoteNumber":86,"Velocity":47,"Duration":107089,"SoundDuration":107089,"Delta":557887953},{"NoteNumber":89,"Velocity":45,"Duration":107801,"SoundDuration":107801,"Delta":557995043},{"NoteNumber":88,"Velocity":51,"Duration":103433,"SoundDuration":103433,"Delta":558102845},{"NoteNumber":46,"Velocity":40,"Duration":155151,"SoundDuration":155151,"Delta":558102845},{"NoteNumber":91,"Velocity":46,"Duration":103433,"SoundDuration":103433,"Delta":558206279},{"NoteNumber":89,"Velocity":46,"Duration":103433,"SoundDuration":103433,"Delta":558309713},{"NoteNumber":87,"Velocity":50,"Duration":103433,"SoundDuration":103433,"Delta":558413147},{"NoteNumber":62,"Velocity":34,"Duration":627126,"SoundDuration":627126,"Delta":558413147},{"NoteNumber":58,"Velocity":28,"Duration":627126,"SoundDuration":627126,"Delta":558413147},{"NoteNumber":53,"Velocity":28,"Duration":627126,"SoundDuration":627126,"Delta":558413147},{"NoteNumber":86,"Velocity":46,"Duration":103433,"SoundDuration":103433,"Delta":558516581},{"NoteNumber":84,"Velocity":46,"Duration":103743,"SoundDuration":103743,"Delta":558620015},{"NoteNumber":82,"Velocity":50,"Duration":104637,"SoundDuration":104637,"Delta":558723759},{"NoteNumber":81,"Velocity":46,"Duration":105497,"SoundDuration":105497,"Delta":558828396},{"NoteNumber":79,"Velocity":46,"Duration":106379,"SoundDuration":106379,"Delta":558933894},{"NoteNumber":77,"Velocity":46,"Duration":107380,"SoundDuration":107380,"Delta":559040274},{"NoteNumber":53,"Velocity":28,"Duration":363309,"SoundDuration":363309,"Delta":559040274},{"NoteNumber":58,"Velocity":28,"Duration":363309,"SoundDuration":363309,"Delta":559040274},{"NoteNumber":62,"Velocity":34,"Duration":363309,"SoundDuration":363309,"Delta":559040274},{"NoteNumber":75,"Velocity":46,"Duration":108436,"SoundDuration":108436,"Delta":559147654},{"NoteNumber":74,"Velocity":46,"Duration":147492,"SoundDuration":147492,"Delta":559256091},{"NoteNumber":72,"Velocity":43,"Duration":688295,"SoundDuration":688295,"Delta":559403584},{"NoteNumber":50,"Velocity":40,"Duration":168029,"SoundDuration":168029,"Delta":559403584},{"NoteNumber":53,"Velocity":24,"Duration":698577,"SoundDuration":698577,"Delta":559739643},{"NoteNumber":58,"Velocity":24,"Duration":698577,"SoundDuration":698577,"Delta":559739643},{"NoteNumber":65,"Velocity":29,"Duration":698577,"SoundDuration":698577,"Delta":559739643},{"NoteNumber":70,"Velocity":38,"Duration":346340,"SoundDuration":346340,"Delta":560091879},{"NoteNumber":53,"Velocity":24,"Duration":346340,"SoundDuration":346340,"Delta":560438220},{"NoteNumber":58,"Velocity":24,"Duration":346340,"SoundDuration":346340,"Delta":560438220},{"NoteNumber":65,"Velocity":29,"Duration":346340,"SoundDuration":346340,"Delta":560438220},{"NoteNumber":70,"Velocity":46,"Duration":173170,"SoundDuration":173170,"Delta":560611390},{"NoteNumber":69,"Velocity":36,"Duration":101884,"SoundDuration":101884,"Delta":560784560},{"NoteNumber":48,"Velocity":40,"Duration":152827,"SoundDuration":152827,"Delta":560784560},{"NoteNumber":70,"Velocity":37,"Duration":101884,"SoundDuration":101884,"Delta":560886445},{"NoteNumber":72,"Velocity":38,"Duration":101884,"SoundDuration":101884,"Delta":560988330},{"NoteNumber":74,"Velocity":40,"Duration":101884,"SoundDuration":101884,"Delta":561090215},{"NoteNumber":63,"Velocity":34,"Duration":616276,"SoundDuration":616276,"Delta":561090215},{"NoteNumber":57,"Velocity":28,"Duration":616276,"SoundDuration":616276,"Delta":561090215},{"NoteNumber":53,"Velocity":28,"Duration":616276,"SoundDuration":616276,"Delta":561090215},{"NoteNumber":75,"Velocity":41,"Duration":101884,"SoundDuration":101884,"Delta":561192100},{"NoteNumber":77,"Velocity":42,"Duration":101943,"SoundDuration":101943,"Delta":561293984},{"NoteNumber":79,"Velocity":44,"Duration":102606,"SoundDuration":102606,"Delta":561395928},{"NoteNumber":81,"Velocity":45,"Duration":103488,"SoundDuration":103488,"Delta":561498535},{"NoteNumber":82,"Velocity":46,"Duration":104468,"SoundDuration":104468,"Delta":561602023},{"NoteNumber":83,"Velocity":48,"Duration":105328,"SoundDuration":105328,"Delta":561706492},{"NoteNumber":63,"Velocity":34,"Duration":359249,"SoundDuration":359249,"Delta":561706492},{"NoteNumber":53,"Velocity":28,"Duration":359249,"SoundDuration":359249,"Delta":561706492},{"NoteNumber":57,"Velocity":28,"Duration":359249,"SoundDuration":359249,"Delta":561706492},{"NoteNumber":84,"Velocity":49,"Duration":106428,"SoundDuration":106428,"Delta":561811820},{"NoteNumber":86,"Velocity":51,"Duration":147492,"SoundDuration":147492,"Delta":561918248},{"NoteNumber":89,"Velocity":65,"Duration":685123,"SoundDuration":685123,"Delta":562065741},{"NoteNumber":41,"Velocity":40,"Duration":168406,"SoundDuration":168406,"Delta":562065741},{"NoteNumber":60,"Velocity":29,"Duration":696621,"SoundDuration":696621,"Delta":562402555},{"NoteNumber":53,"Velocity":24,"Duration":696621,"SoundDuration":696621,"Delta":562402555},{"NoteNumber":57,"Velocity":24,"Duration":696621,"SoundDuration":696621,"Delta":562402555},{"NoteNumber":87,"Velocity":61,"Duration":348310,"SoundDuration":348310,"Delta":562750865},{"NoteNumber":57,"Velocity":24,"Duration":348310,"SoundDuration":348310,"Delta":563099176},{"NoteNumber":60,"Velocity":29,"Duration":348310,"SoundDuration":348310,"Delta":563099176},{"NoteNumber":53,"Velocity":24,"Duration":348310,"SoundDuration":348310,"Delta":563099176},{"NoteNumber":87,"Velocity":46,"Duration":174155,"SoundDuration":174155,"Delta":563273331},{"NoteNumber":86,"Velocity":51,"Duration":102923,"SoundDuration":102923,"Delta":563447486},{"NoteNumber":46,"Velocity":40,"Duration":154384,"SoundDuration":154384,"Delta":563447486},{"NoteNumber":98,"Velocity":46,"Duration":102922,"SoundDuration":102922,"Delta":563550409},{"NoteNumber":96,"Velocity":46,"Duration":102923,"SoundDuration":102923,"Delta":563653332},{"NoteNumber":94,"Velocity":50,"Duration":102923,"SoundDuration":102923,"Delta":563756255},{"NoteNumber":62,"Velocity":34,"Duration":620277,"SoundDuration":620277,"Delta":563756255},{"NoteNumber":53,"Velocity":28,"Duration":620277,"SoundDuration":620277,"Delta":563756255},{"NoteNumber":58,"Velocity":28,"Duration":620277,"SoundDuration":620277,"Delta":563756255},{"NoteNumber":93,"Velocity":46,"Duration":102923,"SoundDuration":102923,"Delta":563859178},{"NoteNumber":91,"Velocity":46,"Duration":102922,"SoundDuration":102922,"Delta":563962101},{"NoteNumber":89,"Velocity":50,"Duration":102999,"SoundDuration":102999,"Delta":564065024},{"NoteNumber":87,"Velocity":46,"Duration":103783,"SoundDuration":103783,"Delta":564168024},{"NoteNumber":86,"Velocity":46,"Duration":104725,"SoundDuration":104725,"Delta":564271807},{"NoteNumber":84,"Velocity":46,"Duration":105585,"SoundDuration":105585,"Delta":564376533},{"NoteNumber":53,"Velocity":28,"Duration":359541,"SoundDuration":359541,"Delta":564376533},{"NoteNumber":58,"Velocity":28,"Duration":359541,"SoundDuration":359541,"Delta":564376533},{"NoteNumber":62,"Velocity":34,"Duration":359541,"SoundDuration":359541,"Delta":564376533},{"NoteNumber":82,"Velocity":46,"Duration":106463,"SoundDuration":106463,"Delta":564482118},{"NoteNumber":81,"Velocity":46,"Duration":147492,"SoundDuration":147492,"Delta":564588581},{"NoteNumber":79,"Velocity":51,"Duration":103960,"SoundDuration":103960,"Delta":564736074},{"NoteNumber":39,"Velocity":40,"Duration":155941,"SoundDuration":155941,"Delta":564736074},{"NoteNumber":91,"Velocity":46,"Duration":103960,"SoundDuration":103960,"Delta":564840035},{"NoteNumber":89,"Velocity":46,"Duration":103960,"SoundDuration":103960,"Delta":564943996},{"NoteNumber":87,"Velocity":50,"Duration":103960,"SoundDuration":103960,"Delta":565047957},{"NoteNumber":51,"Velocity":24,"Duration":628805,"SoundDuration":628805,"Delta":565047957},{"NoteNumber":58,"Velocity":24,"Duration":628805,"SoundDuration":628805,"Delta":565047957},{"NoteNumber":55,"Velocity":24,"Duration":628805,"SoundDuration":628805,"Delta":565047957},{"NoteNumber":60,"Velocity":29,"Duration":628805,"SoundDuration":628805,"Delta":565047957},{"NoteNumber":86,"Velocity":46,"Duration":103960,"SoundDuration":103960,"Delta":565151917},{"NoteNumber":84,"Velocity":46,"Duration":104021,"SoundDuration":104021,"Delta":565255878},{"NoteNumber":82,"Velocity":50,"Duration":104712,"SoundDuration":104712,"Delta":565359900},{"NoteNumber":81,"Velocity":49,"Duration":105630,"SoundDuration":105630,"Delta":565464613},{"NoteNumber":79,"Velocity":50,"Duration":106518,"SoundDuration":106518,"Delta":565570243},{"NoteNumber":77,"Velocity":52,"Duration":107521,"SoundDuration":107521,"Delta":565676762},{"NoteNumber":51,"Velocity":24,"Duration":357341,"SoundDuration":357341,"Delta":565676762},{"NoteNumber":55,"Velocity":24,"Duration":357341,"SoundDuration":357341,"Delta":565676762},{"NoteNumber":58,"Velocity":24,"Duration":357341,"SoundDuration":357341,"Delta":565676762},{"NoteNumber":60,"Velocity":29,"Duration":357341,"SoundDuration":357341,"Delta":565676762},{"NoteNumber":75,"Velocity":53,"Duration":108436,"SoundDuration":108436,"Delta":565784284},{"NoteNumber":74,"Velocity":54,"Duration":141382,"SoundDuration":141382,"Delta":565892721},{"NoteNumber":72,"Velocity":56,"Duration":104504,"SoundDuration":104504,"Delta":566034103},{"NoteNumber":40,"Velocity":40,"Duration":156756,"SoundDuration":156756,"Delta":566034103},{"NoteNumber":76,"Velocity":56,"Duration":104504,"SoundDuration":104504,"Delta":566138608},{"NoteNumber":79,"Velocity":55,"Duration":104504,"SoundDuration":104504,"Delta":566243112},{"NoteNumber":82,"Velocity":54,"Duration":104504,"SoundDuration":104504,"Delta":566347616},{"NoteNumber":60,"Velocity":34,"Duration":629844,"SoundDuration":629844,"Delta":566347616},{"NoteNumber":58,"Velocity":28,"Duration":629844,"SoundDuration":629844,"Delta":566347616},{"NoteNumber":52,"Velocity":28,"Duration":629844,"SoundDuration":629844,"Delta":566347616},{"NoteNumber":55,"Velocity":28,"Duration":629844,"SoundDuration":629844,"Delta":566347616},{"NoteNumber":79,"Velocity":53,"Duration":104504,"SoundDuration":104504,"Delta":566452120},{"NoteNumber":82,"Velocity":52,"Duration":104504,"SoundDuration":104504,"Delta":566556624},{"NoteNumber":84,"Velocity":51,"Duration":104584,"SoundDuration":104584,"Delta":566661128},{"NoteNumber":88,"Velocity":50,"Duration":105394,"SoundDuration":105394,"Delta":566765713},{"NoteNumber":91,"Velocity":49,"Duration":106352,"SoundDuration":106352,"Delta":566871108},{"NoteNumber":94,"Velocity":47,"Duration":107247,"SoundDuration":107247,"Delta":566977460},{"NoteNumber":48,"Velocity":34,"Duration":362896,"SoundDuration":362896,"Delta":566977460},{"NoteNumber":91,"Velocity":46,"Duration":108156,"SoundDuration":108156,"Delta":567084708},{"NoteNumber":88,"Velocity":45,"Duration":147492,"SoundDuration":147492,"Delta":567192864},{"NoteNumber":89,"Velocity":53,"Duration":347842,"SoundDuration":347842,"Delta":567340356},{"NoteNumber":41,"Velocity":40,"Duration":174601,"SoundDuration":174601,"Delta":567340356},{"NoteNumber":89,"Velocity":49,"Duration":112062,"SoundDuration":112062,"Delta":567688199},{"NoteNumber":53,"Velocity":31,"Duration":1073823,"SoundDuration":1073823,"Delta":567688199},{"NoteNumber":57,"Velocity":31,"Duration":339524,"SoundDuration":339524,"Delta":567688199},{"NoteNumber":60,"Velocity":31,"Duration":339524,"SoundDuration":339524,"Delta":567688199},{"NoteNumber":91,"Velocity":43,"Duration":113119,"SoundDuration":113119,"Delta":567800261},{"NoteNumber":89,"Velocity":43,"Duration":114342,"SoundDuration":114342,"Delta":567913381},{"NoteNumber":88,"Velocity":48,"Duration":115229,"SoundDuration":115229,"Delta":568027723},{"NoteNumber":58,"Velocity":31,"Duration":353613,"SoundDuration":353613,"Delta":568027723},{"NoteNumber":62,"Velocity":31,"Duration":353613,"SoundDuration":353613,"Delta":568027723},{"NoteNumber":91,"Velocity":42,"Duration":117738,"SoundDuration":117738,"Delta":568142953},{"NoteNumber":89,"Velocity":42,"Duration":120646,"SoundDuration":120646,"Delta":568260691},{"NoteNumber":88,"Velocity":42,"Duration":123686,"SoundDuration":123686,"Delta":568381337},{"NoteNumber":63,"Velocity":31,"Duration":380685,"SoundDuration":380685,"Delta":568381337},{"NoteNumber":57,"Velocity":31,"Duration":380685,"SoundDuration":380685,"Delta":568381337},{"NoteNumber":91,"Velocity":39,"Duration":126887,"SoundDuration":126887,"Delta":568505024},{"NoteNumber":89,"Velocity":36,"Duration":130110,"SoundDuration":130110,"Delta":568631912},{"NoteNumber":88,"Velocity":51,"Duration":103433,"SoundDuration":103433,"Delta":568762022},{"NoteNumber":46,"Velocity":40,"Duration":155151,"SoundDuration":155151,"Delta":568762022},{"NoteNumber":91,"Velocity":46,"Duration":103433,"SoundDuration":103433,"Delta":568865456},{"NoteNumber":89,"Velocity":46,"Duration":103433,"SoundDuration":103433,"Delta":568968890},{"NoteNumber":87,"Velocity":50,"Duration":103433,"SoundDuration":103433,"Delta":569072324},{"NoteNumber":62,"Velocity":34,"Duration":627126,"SoundDuration":627126,"Delta":569072324},{"NoteNumber":58,"Velocity":28,"Duration":627126,"SoundDuration":627126,"Delta":569072324},{"NoteNumber":53,"Velocity":28,"Duration":627126,"SoundDuration":627126,"Delta":569072324},{"NoteNumber":86,"Velocity":46,"Duration":103433,"SoundDuration":103433,"Delta":569175758},{"NoteNumber":84,"Velocity":46,"Duration":103743,"SoundDuration":103743,"Delta":569279192},{"NoteNumber":82,"Velocity":50,"Duration":104637,"SoundDuration":104637,"Delta":569382936},{"NoteNumber":81,"Velocity":46,"Duration":105497,"SoundDuration":105497,"Delta":569487574},{"NoteNumber":79,"Velocity":46,"Duration":106379,"SoundDuration":106379,"Delta":569593071},{"NoteNumber":77,"Velocity":46,"Duration":107380,"SoundDuration":107380,"Delta":569699451},{"NoteNumber":53,"Velocity":28,"Duration":363309,"SoundDuration":363309,"Delta":569699451},{"NoteNumber":58,"Velocity":28,"Duration":363309,"SoundDuration":363309,"Delta":569699451},{"NoteNumber":62,"Velocity":34,"Duration":363309,"SoundDuration":363309,"Delta":569699451},{"NoteNumber":75,"Velocity":46,"Duration":108436,"SoundDuration":108436,"Delta":569806832},{"NoteNumber":74,"Velocity":46,"Duration":147492,"SoundDuration":147492,"Delta":569915268},{"NoteNumber":72,"Velocity":43,"Duration":687386,"SoundDuration":687386,"Delta":570062761},{"NoteNumber":50,"Velocity":40,"Duration":165672,"SoundDuration":165672,"Delta":570062761},{"NoteNumber":58,"Velocity":24,"Duration":702381,"SoundDuration":702381,"Delta":570394107},{"NoteNumber":53,"Velocity":24,"Duration":702381,"SoundDuration":702381,"Delta":570394107},{"NoteNumber":65,"Velocity":29,"Duration":702381,"SoundDuration":702381,"Delta":570394107},{"NoteNumber":70,"Velocity":38,"Duration":346340,"SoundDuration":346340,"Delta":570750148},{"NoteNumber":58,"Velocity":24,"Duration":346340,"SoundDuration":346340,"Delta":571096488},{"NoteNumber":53,"Velocity":24,"Duration":346340,"SoundDuration":346340,"Delta":571096488},{"NoteNumber":65,"Velocity":29,"Duration":346340,"SoundDuration":346340,"Delta":571096488},{"NoteNumber":70,"Velocity":46,"Duration":173170,"SoundDuration":173170,"Delta":571269658},{"NoteNumber":69,"Velocity":36,"Duration":101884,"SoundDuration":101884,"Delta":571442829},{"NoteNumber":48,"Velocity":40,"Duration":152827,"SoundDuration":152827,"Delta":571442829},{"NoteNumber":70,"Velocity":37,"Duration":101884,"SoundDuration":101884,"Delta":571544713},{"NoteNumber":72,"Velocity":38,"Duration":101884,"SoundDuration":101884,"Delta":571646598},{"NoteNumber":74,"Velocity":40,"Duration":101884,"SoundDuration":101884,"Delta":571748483},{"NoteNumber":57,"Velocity":28,"Duration":616276,"SoundDuration":616276,"Delta":571748483},{"NoteNumber":53,"Velocity":28,"Duration":616276,"SoundDuration":616276,"Delta":571748483},{"NoteNumber":63,"Velocity":34,"Duration":616276,"SoundDuration":616276,"Delta":571748483},{"NoteNumber":75,"Velocity":41,"Duration":101884,"SoundDuration":101884,"Delta":571850368},{"NoteNumber":77,"Velocity":42,"Duration":101943,"SoundDuration":101943,"Delta":571952253},{"NoteNumber":79,"Velocity":44,"Duration":102606,"SoundDuration":102606,"Delta":572054196},{"NoteNumber":81,"Velocity":45,"Duration":103488,"SoundDuration":103488,"Delta":572156803},{"NoteNumber":82,"Velocity":46,"Duration":104468,"SoundDuration":104468,"Delta":572260291},{"NoteNumber":83,"Velocity":48,"Duration":105328,"SoundDuration":105328,"Delta":572364760},{"NoteNumber":57,"Velocity":28,"Duration":359249,"SoundDuration":359249,"Delta":572364760},{"NoteNumber":53,"Velocity":28,"Duration":359249,"SoundDuration":359249,"Delta":572364760},{"NoteNumber":63,"Velocity":34,"Duration":359249,"SoundDuration":359249,"Delta":572364760},{"NoteNumber":84,"Velocity":49,"Duration":106428,"SoundDuration":106428,"Delta":572470089},{"NoteNumber":86,"Velocity":51,"Duration":147492,"SoundDuration":147492,"Delta":572576517},{"NoteNumber":89,"Velocity":65,"Duration":513867,"SoundDuration":513867,"Delta":572724010},{"NoteNumber":41,"Velocity":40,"Duration":168406,"SoundDuration":168406,"Delta":572724010},{"NoteNumber":57,"Velocity":24,"Duration":700768,"SoundDuration":700768,"Delta":573060823},{"NoteNumber":53,"Velocity":24,"Duration":700768,"SoundDuration":700768,"Delta":573060823},{"NoteNumber":60,"Velocity":29,"Duration":700768,"SoundDuration":700768,"Delta":573060823},{"NoteNumber":88,"Velocity":59,"Duration":177053,"SoundDuration":177053,"Delta":573237877},{"NoteNumber":87,"Velocity":61,"Duration":346660,"SoundDuration":346660,"Delta":573414931},{"NoteNumber":57,"Velocity":24,"Duration":346660,"SoundDuration":346660,"Delta":573761591},{"NoteNumber":60,"Velocity":29,"Duration":346660,"SoundDuration":346660,"Delta":573761591},{"NoteNumber":53,"Velocity":24,"Duration":346660,"SoundDuration":346660,"Delta":573761591},{"NoteNumber":87,"Velocity":46,"Duration":173330,"SoundDuration":173330,"Delta":573934921},{"NoteNumber":86,"Velocity":51,"Duration":102923,"SoundDuration":102923,"Delta":574108252},{"NoteNumber":46,"Velocity":40,"Duration":154384,"SoundDuration":154384,"Delta":574108252},{"NoteNumber":98,"Velocity":46,"Duration":102922,"SoundDuration":102922,"Delta":574211175},{"NoteNumber":96,"Velocity":46,"Duration":102923,"SoundDuration":102923,"Delta":574314098},{"NoteNumber":94,"Velocity":50,"Duration":102923,"SoundDuration":102923,"Delta":574417021},{"NoteNumber":58,"Velocity":28,"Duration":620277,"SoundDuration":620277,"Delta":574417021},{"NoteNumber":62,"Velocity":34,"Duration":620277,"SoundDuration":620277,"Delta":574417021},{"NoteNumber":53,"Velocity":28,"Duration":620277,"SoundDuration":620277,"Delta":574417021},{"NoteNumber":93,"Velocity":46,"Duration":102923,"SoundDuration":102923,"Delta":574519944},{"NoteNumber":91,"Velocity":46,"Duration":102922,"SoundDuration":102922,"Delta":574622867},{"NoteNumber":89,"Velocity":50,"Duration":102999,"SoundDuration":102999,"Delta":574725790},{"NoteNumber":87,"Velocity":46,"Duration":103783,"SoundDuration":103783,"Delta":574828789},{"NoteNumber":86,"Velocity":49,"Duration":104725,"SoundDuration":104725,"Delta":574932572},{"NoteNumber":84,"Velocity":52,"Duration":105585,"SoundDuration":105585,"Delta":575037298},{"NoteNumber":53,"Velocity":28,"Duration":359541,"SoundDuration":359541,"Delta":575037298},{"NoteNumber":58,"Velocity":28,"Duration":359541,"SoundDuration":359541,"Delta":575037298},{"NoteNumber":62,"Velocity":34,"Duration":359541,"SoundDuration":359541,"Delta":575037298},{"NoteNumber":82,"Velocity":54,"Duration":106463,"SoundDuration":106463,"Delta":575142883},{"NoteNumber":81,"Velocity":57,"Duration":147492,"SoundDuration":147492,"Delta":575249347},{"NoteNumber":79,"Velocity":60,"Duration":103960,"SoundDuration":103960,"Delta":575396840},{"NoteNumber":52,"Velocity":40,"Duration":155941,"SoundDuration":155941,"Delta":575396840},{"NoteNumber":94,"Velocity":60,"Duration":103960,"SoundDuration":103960,"Delta":575500800},{"NoteNumber":91,"Velocity":58,"Duration":103960,"SoundDuration":103960,"Delta":575604761},{"NoteNumber":88,"Velocity":56,"Duration":103960,"SoundDuration":103960,"Delta":575708722},{"NoteNumber":61,"Velocity":24,"Duration":628805,"SoundDuration":628805,"Delta":575708722},{"NoteNumber":58,"Velocity":24,"Duration":628805,"SoundDuration":628805,"Delta":575708722},{"NoteNumber":67,"Velocity":29,"Duration":628805,"SoundDuration":628805,"Delta":575708722},{"NoteNumber":85,"Velocity":54,"Duration":103960,"SoundDuration":103960,"Delta":575812683},{"NoteNumber":82,"Velocity":52,"Duration":104021,"SoundDuration":104021,"Delta":575916644},{"NoteNumber":79,"Velocity":56,"Duration":104712,"SoundDuration":104712,"Delta":576020666},{"NoteNumber":76,"Velocity":51,"Duration":105630,"SoundDuration":105630,"Delta":576125378},{"NoteNumber":73,"Velocity":50,"Duration":106518,"SoundDuration":106518,"Delta":576231009},{"NoteNumber":70,"Velocity":49,"Duration":107521,"SoundDuration":107521,"Delta":576337527},{"NoteNumber":58,"Velocity":24,"Duration":357341,"SoundDuration":357341,"Delta":576337527},{"NoteNumber":55,"Velocity":24,"Duration":357341,"SoundDuration":357341,"Delta":576337527},{"NoteNumber":61,"Velocity":29,"Duration":357341,"SoundDuration":357341,"Delta":576337527},{"NoteNumber":67,"Velocity":49,"Duration":108436,"SoundDuration":108436,"Delta":576445049},{"NoteNumber":64,"Velocity":48,"Duration":141382,"SoundDuration":141382,"Delta":576553486},{"NoteNumber":65,"Velocity":49,"Duration":104504,"SoundDuration":104504,"Delta":576694869},{"NoteNumber":41,"Velocity":40,"Duration":156756,"SoundDuration":156756,"Delta":576694869},{"NoteNumber":64,"Velocity":45,"Duration":104504,"SoundDuration":104504,"Delta":576799373},{"NoteNumber":65,"Velocity":45,"Duration":104504,"SoundDuration":104504,"Delta":576903877},{"NoteNumber":67,"Velocity":44,"Duration":104504,"SoundDuration":104504,"Delta":577008381},{"NoteNumber":58,"Velocity":31,"Duration":313512,"SoundDuration":313512,"Delta":577008381},{"NoteNumber":53,"Velocity":31,"Duration":963670,"SoundDuration":963670,"Delta":577008381},{"NoteNumber":60,"Velocity":31,"Duration":629844,"SoundDuration":629844,"Delta":577008381},{"NoteNumber":69,"Velocity":44,"Duration":104504,"SoundDuration":104504,"Delta":577112886},{"NoteNumber":70,"Velocity":44,"Duration":104504,"SoundDuration":104504,"Delta":577217390},{"NoteNumber":72,"Velocity":44,"Duration":104584,"SoundDuration":104584,"Delta":577321894},{"NoteNumber":57,"Velocity":31,"Duration":316331,"SoundDuration":316331,"Delta":577321894},{"NoteNumber":74,"Velocity":43,"Duration":105394,"SoundDuration":105394,"Delta":577426479},{"NoteNumber":75,"Velocity":44,"Duration":106352,"SoundDuration":106352,"Delta":577531873},{"NoteNumber":77,"Velocity":45,"Duration":107098,"SoundDuration":107098,"Delta":577638226},{"NoteNumber":60,"Velocity":31,"Duration":333825,"SoundDuration":333825,"Delta":577638226},{"NoteNumber":63,"Velocity":31,"Duration":333825,"SoundDuration":333825,"Delta":577638226},{"NoteNumber":79,"Velocity":46,"Duration":107238,"SoundDuration":107238,"Delta":577745324},{"NoteNumber":81,"Velocity":47,"Duration":119488,"SoundDuration":119488,"Delta":577852563},{"NoteNumber":82,"Velocity":48,"Duration":107538,"SoundDuration":107538,"Delta":577972052},{"NoteNumber":46,"Velocity":40,"Duration":161307,"SoundDuration":161307,"Delta":577972052},{"NoteNumber":86,"Velocity":49,"Duration":107365,"SoundDuration":107365,"Delta":578079590},{"NoteNumber":89,"Velocity":51,"Duration":106923,"SoundDuration":106923,"Delta":578186956},{"NoteNumber":94,"Velocity":52,"Duration":106343,"SoundDuration":106343,"Delta":578293879},{"NoteNumber":58,"Velocity":31,"Duration":953773,"SoundDuration":953773,"Delta":578293879},{"NoteNumber":62,"Velocity":31,"Duration":953773,"SoundDuration":953773,"Delta":578293879},{"NoteNumber":98,"Velocity":54,"Duration":105864,"SoundDuration":105864,"Delta":578400223},{"NoteNumber":96,"Velocity":54,"Duration":105114,"SoundDuration":105114,"Delta":578506088},{"NoteNumber":94,"Velocity":53,"Duration":104394,"SoundDuration":104394,"Delta":578611202},{"NoteNumber":89,"Velocity":52,"Duration":105086,"SoundDuration":105086,"Delta":578715596},{"NoteNumber":86,"Velocity":50,"Duration":105644,"SoundDuration":105644,"Delta":578820683},{"NoteNumber":82,"Velocity":48,"Duration":106434,"SoundDuration":106434,"Delta":578926327},{"NoteNumber":84,"Velocity":47,"Duration":107089,"SoundDuration":107089,"Delta":579032761},{"NoteNumber":85,"Velocity":45,"Duration":107801,"SoundDuration":107801,"Delta":579139851},{"NoteNumber":86,"Velocity":75,"Duration":170280,"SoundDuration":170280,"Delta":579247653},{"NoteNumber":38,"Velocity":51,"Duration":113520,"SoundDuration":113520,"Delta":579247653},{"NoteNumber":40,"Velocity":48,"Duration":113520,"SoundDuration":113520,"Delta":579361173},{"NoteNumber":42,"Velocity":46,"Duration":113520,"SoundDuration":113520,"Delta":579474694},{"NoteNumber":74,"Velocity":68,"Duration":636401,"SoundDuration":636401,"Delta":579588214},{"NoteNumber":78,"Velocity":68,"Duration":636401,"SoundDuration":636401,"Delta":579588214},{"NoteNumber":84,"Velocity":68,"Duration":636401,"SoundDuration":636401,"Delta":579588214},{"NoteNumber":86,"Velocity":80,"Duration":636401,"SoundDuration":636401,"Delta":579588214},{"NoteNumber":43,"Velocity":53,"Duration":106067,"SoundDuration":106067,"Delta":579588214},{"NoteNumber":45,"Velocity":54,"Duration":106066,"SoundDuration":106066,"Delta":579694281},{"NoteNumber":46,"Velocity":49,"Duration":106067,"SoundDuration":106067,"Delta":579800348},{"NoteNumber":48,"Velocity":55,"Duration":106066,"SoundDuration":106066,"Delta":579906415},{"NoteNumber":50,"Velocity":52,"Duration":106067,"SoundDuration":106067,"Delta":580012482},{"NoteNumber":52,"Velocity":53,"Duration":106066,"SoundDuration":106066,"Delta":580118549},{"NoteNumber":74,"Velocity":59,"Duration":318201,"SoundDuration":318201,"Delta":580224616},{"NoteNumber":78,"Velocity":59,"Duration":318201,"SoundDuration":318201,"Delta":580224616},{"NoteNumber":84,"Velocity":59,"Duration":318201,"SoundDuration":318201,"Delta":580224616},{"NoteNumber":86,"Velocity":70,"Duration":318201,"SoundDuration":318201,"Delta":580224616},{"NoteNumber":54,"Velocity":57,"Duration":106067,"SoundDuration":106067,"Delta":580224616},{"NoteNumber":55,"Velocity":54,"Duration":106066,"SoundDuration":106066,"Delta":580330683},{"NoteNumber":57,"Velocity":54,"Duration":106067,"SoundDuration":106067,"Delta":580436750},{"NoteNumber":58,"Velocity":63,"Duration":109853,"SoundDuration":109853,"Delta":580542817},{"NoteNumber":62,"Velocity":54,"Duration":109853,"SoundDuration":109853,"Delta":580652671},{"NoteNumber":58,"Velocity":54,"Duration":109853,"SoundDuration":109853,"Delta":580762525},{"NoteNumber":86,"Velocity":79,"Duration":633312,"SoundDuration":633312,"Delta":580872378},{"NoteNumber":82,"Velocity":67,"Duration":633312,"SoundDuration":633312,"Delta":580872378},{"NoteNumber":79,"Velocity":67,"Duration":633312,"SoundDuration":633312,"Delta":580872378},{"NoteNumber":74,"Velocity":67,"Duration":633312,"SoundDuration":633312,"Delta":580872378},{"NoteNumber":55,"Velocity":62,"Duration":105551,"SoundDuration":105551,"Delta":580872378},{"NoteNumber":58,"Velocity":53,"Duration":105551,"SoundDuration":105551,"Delta":580977930},{"NoteNumber":55,"Velocity":53,"Duration":105551,"SoundDuration":105551,"Delta":581083482},{"NoteNumber":50,"Velocity":65,"Duration":105551,"SoundDuration":105551,"Delta":581189034},{"NoteNumber":55,"Velocity":53,"Duration":105551,"SoundDuration":105551,"Delta":581294586},{"NoteNumber":50,"Velocity":53,"Duration":105552,"SoundDuration":105552,"Delta":581400138},{"NoteNumber":91,"Velocity":74,"Duration":316655,"SoundDuration":316655,"Delta":581505690},{"NoteNumber":86,"Velocity":62,"Duration":316655,"SoundDuration":316655,"Delta":581505690},{"NoteNumber":82,"Velocity":62,"Duration":316655,"SoundDuration":316655,"Delta":581505690},{"NoteNumber":79,"Velocity":62,"Duration":316655,"SoundDuration":316655,"Delta":581505690},{"NoteNumber":46,"Velocity":65,"Duration":105551,"SoundDuration":105551,"Delta":581505690},{"NoteNumber":50,"Velocity":51,"Duration":105551,"SoundDuration":105551,"Delta":581611242},{"NoteNumber":46,"Velocity":51,"Duration":105551,"SoundDuration":105551,"Delta":581716794},{"NoteNumber":43,"Velocity":51,"Duration":113520,"SoundDuration":113520,"Delta":581822346},{"NoteNumber":45,"Velocity":48,"Duration":113520,"SoundDuration":113520,"Delta":581935867},{"NoteNumber":46,"Velocity":46,"Duration":113520,"SoundDuration":113520,"Delta":582049387},{"NoteNumber":82,"Velocity":74,"Duration":645230,"SoundDuration":645230,"Delta":582162907},{"NoteNumber":86,"Velocity":74,"Duration":645230,"SoundDuration":645230,"Delta":582162907},{"NoteNumber":94,"Velocity":88,"Duration":645230,"SoundDuration":645230,"Delta":582162907},{"NoteNumber":48,"Velocity":53,"Duration":107538,"SoundDuration":107538,"Delta":582162907},{"NoteNumber":50,"Velocity":54,"Duration":107538,"SoundDuration":107538,"Delta":582270446},{"NoteNumber":52,"Velocity":49,"Duration":107538,"SoundDuration":107538,"Delta":582377984},{"NoteNumber":54,"Velocity":55,"Duration":107538,"SoundDuration":107538,"Delta":582485523},{"NoteNumber":55,"Velocity":52,"Duration":107538,"SoundDuration":107538,"Delta":582593061},{"NoteNumber":56,"Velocity":53,"Duration":107538,"SoundDuration":107538,"Delta":582700600},{"NoteNumber":79,"Velocity":64,"Duration":322615,"SoundDuration":322615,"Delta":582808138},{"NoteNumber":86,"Velocity":64,"Duration":322615,"SoundDuration":322615,"Delta":582808138},{"NoteNumber":91,"Velocity":77,"Duration":322615,"SoundDuration":322615,"Delta":582808138},{"NoteNumber":57,"Velocity":57,"Duration":107538,"SoundDuration":107538,"Delta":582808138},{"NoteNumber":58,"Velocity":54,"Duration":107538,"SoundDuration":107538,"Delta":582915677},{"NoteNumber":59,"Velocity":54,"Duration":107538,"SoundDuration":107538,"Delta":583023215},{"NoteNumber":76,"Velocity":67,"Duration":1292436,"SoundDuration":1292436,"Delta":583130754},{"NoteNumber":79,"Velocity":67,"Duration":1292436,"SoundDuration":1292436,"Delta":583130754},{"NoteNumber":84,"Velocity":67,"Duration":1292436,"SoundDuration":1292436,"Delta":583130754},{"NoteNumber":88,"Velocity":79,"Duration":1292436,"SoundDuration":1292436,"Delta":583130754},{"NoteNumber":60,"Velocity":63,"Duration":109853,"SoundDuration":109853,"Delta":583130754},{"NoteNumber":64,"Velocity":54,"Duration":109853,"SoundDuration":109853,"Delta":583240608},{"NoteNumber":60,"Velocity":54,"Duration":109853,"SoundDuration":109853,"Delta":583350462},{"NoteNumber":55,"Velocity":62,"Duration":106986,"SoundDuration":106986,"Delta":583460315},{"NoteNumber":60,"Velocity":53,"Duration":106986,"SoundDuration":106986,"Delta":583567302},{"NoteNumber":55,"Velocity":53,"Duration":106986,"SoundDuration":106986,"Delta":583674288},{"NoteNumber":52,"Velocity":65,"Duration":106986,"SoundDuration":106986,"Delta":583781274},{"NoteNumber":55,"Velocity":53,"Duration":106986,"SoundDuration":106986,"Delta":583888260},{"NoteNumber":52,"Velocity":53,"Duration":106986,"SoundDuration":106986,"Delta":583995246},{"NoteNumber":48,"Velocity":65,"Duration":320958,"SoundDuration":320958,"Delta":584102232},{"NoteNumber":45,"Velocity":51,"Duration":113520,"SoundDuration":113520,"Delta":584423191},{"NoteNumber":48,"Velocity":41,"Duration":113520,"SoundDuration":113520,"Delta":584536711},{"NoteNumber":53,"Velocity":44,"Duration":113520,"SoundDuration":113520,"Delta":584650232},{"NoteNumber":77,"Velocity":74,"Duration":322615,"SoundDuration":322615,"Delta":584763752},{"NoteNumber":84,"Velocity":74,"Duration":322615,"SoundDuration":322615,"Delta":584763752},{"NoteNumber":89,"Velocity":88,"Duration":427668,"SoundDuration":427668,"Delta":584763752},{"NoteNumber":57,"Velocity":47,"Duration":107538,"SoundDuration":107538,"Delta":584763752},{"NoteNumber":60,"Velocity":50,"Duration":107538,"SoundDuration":107538,"Delta":584871290},{"NoteNumber":65,"Velocity":53,"Duration":107538,"SoundDuration":107538,"Delta":584978829},{"NoteNumber":69,"Velocity":56,"Duration":315158,"SoundDuration":315158,"Delta":585086367},{"NoteNumber":84,"Velocity":64,"Duration":105052,"SoundDuration":105052,"Delta":585191420},{"NoteNumber":81,"Velocity":61,"Duration":105052,"SoundDuration":105052,"Delta":585296473},{"NoteNumber":77,"Velocity":59,"Duration":105052,"SoundDuration":105052,"Delta":585401526},{"NoteNumber":72,"Velocity":57,"Duration":105052,"SoundDuration":105052,"Delta":585506579},{"NoteNumber":69,"Velocity":54,"Duration":105052,"SoundDuration":105052,"Delta":585611632},{"NoteNumber":67,"Velocity":52,"Duration":170280,"SoundDuration":170280,"Delta":585716685},{"NoteNumber":46,"Velocity":51,"Duration":113520,"SoundDuration":113520,"Delta":585716685},{"NoteNumber":50,"Velocity":41,"Duration":113520,"SoundDuration":113520,"Delta":585830206},{"NoteNumber":55,"Velocity":44,"Duration":113520,"SoundDuration":113520,"Delta":585943726},{"NoteNumber":77,"Velocity":74,"Duration":322615,"SoundDuration":322615,"Delta":586057246},{"NoteNumber":86,"Velocity":74,"Duration":322615,"SoundDuration":322615,"Delta":586057246},{"NoteNumber":89,"Velocity":88,"Duration":428167,"SoundDuration":428167,"Delta":586057246},{"NoteNumber":58,"Velocity":47,"Duration":107538,"SoundDuration":107538,"Delta":586057246},{"NoteNumber":62,"Velocity":50,"Duration":107538,"SoundDuration":107538,"Delta":586164785},{"NoteNumber":67,"Velocity":53,"Duration":107538,"SoundDuration":107538,"Delta":586272323},{"NoteNumber":70,"Velocity":56,"Duration":316655,"SoundDuration":316655,"Delta":586379862},{"NoteNumber":86,"Velocity":60,"Duration":105551,"SoundDuration":105551,"Delta":586485414},{"NoteNumber":82,"Velocity":58,"Duration":105551,"SoundDuration":105551,"Delta":586590966},{"NoteNumber":77,"Velocity":56,"Duration":105551,"SoundDuration":105551,"Delta":586696518},{"NoteNumber":74,"Velocity":55,"Duration":105551,"SoundDuration":105551,"Delta":586802070},{"NoteNumber":70,"Velocity":53,"Duration":105552,"SoundDuration":105552,"Delta":586907622},{"NoteNumber":69,"Velocity":51,"Duration":106575,"SoundDuration":106575,"Delta":587013174},{"NoteNumber":48,"Velocity":59,"Duration":159863,"SoundDuration":159863,"Delta":587013174},{"NoteNumber":84,"Velocity":70,"Duration":106575,"SoundDuration":106575,"Delta":587119750},{"NoteNumber":82,"Velocity":67,"Duration":106575,"SoundDuration":106575,"Delta":587226325},{"NoteNumber":81,"Velocity":65,"Duration":106575,"SoundDuration":106575,"Delta":587332901},{"NoteNumber":65,"Velocity":40,"Duration":159863,"SoundDuration":159863,"Delta":587332901},{"NoteNumber":60,"Velocity":34,"Duration":159863,"SoundDuration":159863,"Delta":587332901},{"NoteNumber":57,"Velocity":34,"Duration":159863,"SoundDuration":159863,"Delta":587332901},{"NoteNumber":79,"Velocity":63,"Duration":106575,"SoundDuration":106575,"Delta":587439477},{"NoteNumber":77,"Velocity":61,"Duration":106575,"SoundDuration":106575,"Delta":587546052},{"NoteNumber":76,"Velocity":59,"Duration":106575,"SoundDuration":106575,"Delta":587652628},{"NoteNumber":48,"Velocity":46,"Duration":159863,"SoundDuration":159863,"Delta":587652628},{"NoteNumber":74,"Velocity":57,"Duration":106575,"SoundDuration":106575,"Delta":587759204},{"NoteNumber":72,"Velocity":55,"Duration":106575,"SoundDuration":106575,"Delta":587865779},{"NoteNumber":70,"Velocity":53,"Duration":106575,"SoundDuration":106575,"Delta":587972355},{"NoteNumber":64,"Velocity":42,"Duration":159863,"SoundDuration":159863,"Delta":587972355},{"NoteNumber":60,"Velocity":35,"Duration":159863,"SoundDuration":159863,"Delta":587972355},{"NoteNumber":58,"Velocity":35,"Duration":159863,"SoundDuration":159863,"Delta":587972355},{"NoteNumber":69,"Velocity":51,"Duration":106575,"SoundDuration":106575,"Delta":588078931},{"NoteNumber":67,"Velocity":49,"Duration":106575,"SoundDuration":106575,"Delta":588185506},{"NoteNumber":65,"Velocity":53,"Duration":349202,"SoundDuration":349202,"Delta":588292082},{"NoteNumber":41,"Velocity":40,"Duration":174601,"SoundDuration":174601,"Delta":588292082},{"NoteNumber":77,"Velocity":49,"Duration":116400,"SoundDuration":116400,"Delta":588641284},{"NoteNumber":53,"Velocity":31,"Duration":1081767,"SoundDuration":1081767,"Delta":588641284},{"NoteNumber":60,"Velocity":31,"Duration":347468,"SoundDuration":347468,"Delta":588641284},{"NoteNumber":57,"Velocity":31,"Duration":347468,"SoundDuration":347468,"Delta":588641284},{"NoteNumber":79,"Velocity":43,"Duration":116400,"SoundDuration":116400,"Delta":588757685},{"NoteNumber":77,"Velocity":43,"Duration":114666,"SoundDuration":114666,"Delta":588874086},{"NoteNumber":76,"Velocity":48,"Duration":115229,"SoundDuration":115229,"Delta":588988753},{"NoteNumber":62,"Velocity":31,"Duration":353613,"SoundDuration":353613,"Delta":588988753},{"NoteNumber":58,"Velocity":31,"Duration":353613,"SoundDuration":353613,"Delta":588988753},{"NoteNumber":79,"Velocity":44,"Duration":117738,"SoundDuration":117738,"Delta":589103982},{"NoteNumber":77,"Velocity":42,"Duration":120646,"SoundDuration":120646,"Delta":589221720},{"NoteNumber":76,"Velocity":41,"Duration":123686,"SoundDuration":123686,"Delta":589342367},{"NoteNumber":57,"Velocity":31,"Duration":380685,"SoundDuration":380685,"Delta":589342367},{"NoteNumber":63,"Velocity":31,"Duration":380685,"SoundDuration":380685,"Delta":589342367},{"NoteNumber":91,"Velocity":39,"Duration":126887,"SoundDuration":126887,"Delta":589466053},{"NoteNumber":89,"Velocity":38,"Duration":130110,"SoundDuration":130110,"Delta":589592941},{"NoteNumber":88,"Velocity":51,"Duration":103433,"SoundDuration":103433,"Delta":589723052},{"NoteNumber":46,"Velocity":40,"Duration":155151,"SoundDuration":155151,"Delta":589723052},{"NoteNumber":91,"Velocity":46,"Duration":103433,"SoundDuration":103433,"Delta":589826486},{"NoteNumber":89,"Velocity":46,"Duration":103433,"SoundDuration":103433,"Delta":589929920},{"NoteNumber":87,"Velocity":50,"Duration":103433,"SoundDuration":103433,"Delta":590033354},{"NoteNumber":62,"Velocity":34,"Duration":627126,"SoundDuration":627126,"Delta":590033354},{"NoteNumber":58,"Velocity":28,"Duration":627126,"SoundDuration":627126,"Delta":590033354},{"NoteNumber":53,"Velocity":28,"Duration":627126,"SoundDuration":627126,"Delta":590033354},{"NoteNumber":86,"Velocity":46,"Duration":103433,"SoundDuration":103433,"Delta":590136788},{"NoteNumber":84,"Velocity":46,"Duration":103743,"SoundDuration":103743,"Delta":590240222},{"NoteNumber":82,"Velocity":50,"Duration":104637,"SoundDuration":104637,"Delta":590343965},{"NoteNumber":81,"Velocity":46,"Duration":105497,"SoundDuration":105497,"Delta":590448603},{"NoteNumber":79,"Velocity":46,"Duration":106379,"SoundDuration":106379,"Delta":590554101},{"NoteNumber":77,"Velocity":46,"Duration":107380,"SoundDuration":107380,"Delta":590660481},{"NoteNumber":53,"Velocity":28,"Duration":363309,"SoundDuration":363309,"Delta":590660481},{"NoteNumber":58,"Velocity":28,"Duration":363309,"SoundDuration":363309,"Delta":590660481},{"NoteNumber":62,"Velocity":34,"Duration":363309,"SoundDuration":363309,"Delta":590660481},{"NoteNumber":75,"Velocity":46,"Duration":108436,"SoundDuration":108436,"Delta":590767861},{"NoteNumber":74,"Velocity":46,"Duration":147492,"SoundDuration":147492,"Delta":590876298},{"NoteNumber":72,"Velocity":43,"Duration":683582,"SoundDuration":683582,"Delta":591023790},{"NoteNumber":50,"Velocity":40,"Duration":165672,"SoundDuration":165672,"Delta":591023790},{"NoteNumber":56,"Velocity":24,"Duration":698577,"SoundDuration":698577,"Delta":591355136},{"NoteNumber":58,"Velocity":24,"Duration":698577,"SoundDuration":698577,"Delta":591355136},{"NoteNumber":65,"Velocity":29,"Duration":698577,"SoundDuration":698577,"Delta":591355136},{"NoteNumber":70,"Velocity":38,"Duration":346340,"SoundDuration":346340,"Delta":591707372},{"NoteNumber":56,"Velocity":24,"Duration":346340,"SoundDuration":346340,"Delta":592053713},{"NoteNumber":58,"Velocity":24,"Duration":346340,"SoundDuration":346340,"Delta":592053713},{"NoteNumber":65,"Velocity":29,"Duration":346340,"SoundDuration":346340,"Delta":592053713},{"NoteNumber":69,"Velocity":46,"Duration":173170,"SoundDuration":173170,"Delta":592226883},{"NoteNumber":70,"Velocity":36,"Duration":101884,"SoundDuration":101884,"Delta":592400053},{"NoteNumber":51,"Velocity":40,"Duration":152827,"SoundDuration":152827,"Delta":592400053},{"NoteNumber":72,"Velocity":37,"Duration":101884,"SoundDuration":101884,"Delta":592501938},{"NoteNumber":74,"Velocity":38,"Duration":101884,"SoundDuration":101884,"Delta":592603823},{"NoteNumber":75,"Velocity":40,"Duration":101884,"SoundDuration":101884,"Delta":592705708},{"NoteNumber":63,"Velocity":34,"Duration":616276,"SoundDuration":616276,"Delta":592705708},{"NoteNumber":58,"Velocity":28,"Duration":616276,"SoundDuration":616276,"Delta":592705708},{"NoteNumber":55,"Velocity":28,"Duration":616276,"SoundDuration":616276,"Delta":592705708},{"NoteNumber":77,"Velocity":41,"Duration":101884,"SoundDuration":101884,"Delta":592807593},{"NoteNumber":79,"Velocity":42,"Duration":101943,"SoundDuration":101943,"Delta":592909478},{"NoteNumber":81,"Velocity":45,"Duration":102606,"SoundDuration":102606,"Delta":593011421},{"NoteNumber":82,"Velocity":47,"Duration":103488,"SoundDuration":103488,"Delta":593114028},{"NoteNumber":84,"Velocity":50,"Duration":104468,"SoundDuration":104468,"Delta":593217516},{"NoteNumber":86,"Velocity":52,"Duration":105328,"SoundDuration":105328,"Delta":593321985},{"NoteNumber":55,"Velocity":28,"Duration":354011,"SoundDuration":354011,"Delta":593321985},{"NoteNumber":58,"Velocity":28,"Duration":354011,"SoundDuration":354011,"Delta":593321985},{"NoteNumber":63,"Velocity":34,"Duration":354011,"SoundDuration":354011,"Delta":593321985},{"NoteNumber":87,"Velocity":55,"Duration":106428,"SoundDuration":106428,"Delta":593427313},{"NoteNumber":89,"Velocity":57,"Duration":142254,"SoundDuration":142254,"Delta":593533742},{"NoteNumber":91,"Velocity":60,"Duration":60794,"SoundDuration":60794,"Delta":593675996},{"NoteNumber":52,"Velocity":40,"Duration":184485,"SoundDuration":184485,"Delta":593675996},{"NoteNumber":93,"Velocity":50,"Duration":61475,"SoundDuration":61475,"Delta":593736791},{"NoteNumber":91,"Velocity":51,"Duration":62214,"SoundDuration":62214,"Delta":593798266},{"NoteNumber":93,"Velocity":52,"Duration":62954,"SoundDuration":62954,"Delta":593860481},{"NoteNumber":91,"Velocity":53,"Duration":63675,"SoundDuration":63675,"Delta":593923436},{"NoteNumber":93,"Velocity":55,"Duration":63824,"SoundDuration":63824,"Delta":593987111},{"NoteNumber":91,"Velocity":54,"Duration":63824,"SoundDuration":63824,"Delta":594050936},{"NoteNumber":58,"Velocity":24,"Duration":741411,"SoundDuration":741411,"Delta":594050936},{"NoteNumber":61,"Velocity":24,"Duration":741411,"SoundDuration":741411,"Delta":594050936},{"NoteNumber":67,"Velocity":29,"Duration":741411,"SoundDuration":741411,"Delta":594050936},{"NoteNumber":90,"Velocity":53,"Duration":63824,"SoundDuration":63824,"Delta":594114760},{"NoteNumber":91,"Velocity":52,"Duration":63824,"SoundDuration":63824,"Delta":594178584},{"NoteNumber":94,"Velocity":51,"Duration":191472,"SoundDuration":191472,"Delta":594242409},{"NoteNumber":97,"Velocity":68,"Duration":358466,"SoundDuration":358466,"Delta":594433882},{"NoteNumber":58,"Velocity":24,"Duration":358466,"SoundDuration":358466,"Delta":594792348},{"NoteNumber":61,"Velocity":24,"Duration":358466,"SoundDuration":358466,"Delta":594792348},{"NoteNumber":67,"Velocity":29,"Duration":358466,"SoundDuration":358466,"Delta":594792348},{"NoteNumber":72,"Velocity":46,"Duration":179233,"SoundDuration":179233,"Delta":594971581},{"NoteNumber":71,"Velocity":51,"Duration":102923,"SoundDuration":102923,"Delta":595150814},{"NoteNumber":55,"Velocity":40,"Duration":154384,"SoundDuration":154384,"Delta":595150814},{"NoteNumber":72,"Velocity":46,"Duration":102922,"SoundDuration":102922,"Delta":595253737},{"NoteNumber":74,"Velocity":46,"Duration":102923,"SoundDuration":102923,"Delta":595356660},{"NoteNumber":76,"Velocity":50,"Duration":102923,"SoundDuration":102923,"Delta":595459583},{"NoteNumber":64,"Velocity":34,"Duration":620277,"SoundDuration":620277,"Delta":595459583},{"NoteNumber":60,"Velocity":28,"Duration":620277,"SoundDuration":620277,"Delta":595459583},{"NoteNumber":58,"Velocity":28,"Duration":620277,"SoundDuration":620277,"Delta":595459583},{"NoteNumber":77,"Velocity":46,"Duration":102923,"SoundDuration":102923,"Delta":595562506},{"NoteNumber":79,"Velocity":46,"Duration":102922,"SoundDuration":102922,"Delta":595665429},{"NoteNumber":81,"Velocity":50,"Duration":102999,"SoundDuration":102999,"Delta":595768352},{"NoteNumber":82,"Velocity":48,"Duration":103783,"SoundDuration":103783,"Delta":595871351},{"NoteNumber":84,"Velocity":51,"Duration":104725,"SoundDuration":104725,"Delta":595975134},{"NoteNumber":86,"Velocity":54,"Duration":105585,"SoundDuration":105585,"Delta":596079860},{"NoteNumber":64,"Velocity":34,"Duration":359541,"SoundDuration":359541,"Delta":596079860},{"NoteNumber":58,"Velocity":28,"Duration":359541,"SoundDuration":359541,"Delta":596079860},{"NoteNumber":60,"Velocity":28,"Duration":359541,"SoundDuration":359541,"Delta":596079860},{"NoteNumber":87,"Velocity":57,"Duration":106463,"SoundDuration":106463,"Delta":596185445},{"NoteNumber":88,"Velocity":60,"Duration":147492,"SoundDuration":147492,"Delta":596291909},{"NoteNumber":89,"Velocity":65,"Duration":103960,"SoundDuration":103960,"Delta":596439401},{"NoteNumber":53,"Velocity":40,"Duration":155941,"SoundDuration":155941,"Delta":596439401},{"NoteNumber":101,"Velocity":67,"Duration":103960,"SoundDuration":103960,"Delta":596543362},{"NoteNumber":100,"Velocity":65,"Duration":103960,"SoundDuration":103960,"Delta":596647323},{"NoteNumber":99,"Velocity":63,"Duration":103960,"SoundDuration":103960,"Delta":596751284},{"NoteNumber":62,"Velocity":24,"Duration":628805,"SoundDuration":628805,"Delta":596751284},{"NoteNumber":58,"Velocity":24,"Duration":628805,"SoundDuration":628805,"Delta":596751284},{"NoteNumber":65,"Velocity":29,"Duration":628805,"SoundDuration":628805,"Delta":596751284},{"NoteNumber":98,"Velocity":61,"Duration":103960,"SoundDuration":103960,"Delta":596855245},{"NoteNumber":96,"Velocity":60,"Duration":104021,"SoundDuration":104021,"Delta":596959206},{"NoteNumber":94,"Velocity":58,"Duration":104712,"SoundDuration":104712,"Delta":597063228},{"NoteNumber":93,"Velocity":56,"Duration":105630,"SoundDuration":105630,"Delta":597167940},{"NoteNumber":91,"Velocity":54,"Duration":106518,"SoundDuration":106518,"Delta":597273571},{"NoteNumber":89,"Velocity":52,"Duration":107521,"SoundDuration":107521,"Delta":597380089},{"NoteNumber":62,"Velocity":24,"Duration":357341,"SoundDuration":357341,"Delta":597380089},{"NoteNumber":58,"Velocity":24,"Duration":357341,"SoundDuration":357341,"Delta":597380089},{"NoteNumber":65,"Velocity":29,"Duration":357341,"SoundDuration":357341,"Delta":597380089},{"NoteNumber":87,"Velocity":50,"Duration":108436,"SoundDuration":108436,"Delta":597487611},{"NoteNumber":86,"Velocity":48,"Duration":141382,"SoundDuration":141382,"Delta":597596048},{"NoteNumber":84,"Velocity":46,"Duration":104504,"SoundDuration":104504,"Delta":597737431},{"NoteNumber":41,"Velocity":40,"Duration":156756,"SoundDuration":156756,"Delta":597737431},{"NoteNumber":93,"Velocity":45,"Duration":104504,"SoundDuration":104504,"Delta":597841935},{"NoteNumber":91,"Velocity":45,"Duration":104504,"SoundDuration":104504,"Delta":597946439},{"NoteNumber":87,"Velocity":44,"Duration":104504,"SoundDuration":104504,"Delta":598050943},{"NoteNumber":57,"Velocity":31,"Duration":629844,"SoundDuration":629844,"Delta":598050943},{"NoteNumber":53,"Velocity":31,"Duration":629844,"SoundDuration":629844,"Delta":598050943},{"NoteNumber":63,"Velocity":31,"Duration":629844,"SoundDuration":629844,"Delta":598050943},{"NoteNumber":84,"Velocity":44,"Duration":104504,"SoundDuration":104504,"Delta":598155448},{"NoteNumber":82,"Velocity":44,"Duration":104504,"SoundDuration":104504,"Delta":598259952},{"NoteNumber":81,"Velocity":44,"Duration":104584,"SoundDuration":104584,"Delta":598364456},{"NoteNumber":79,"Velocity":43,"Duration":105394,"SoundDuration":105394,"Delta":598469041},{"NoteNumber":77,"Velocity":43,"Duration":106352,"SoundDuration":106352,"Delta":598574435},{"NoteNumber":75,"Velocity":43,"Duration":107098,"SoundDuration":107098,"Delta":598680788},{"NoteNumber":53,"Velocity":31,"Duration":333825,"SoundDuration":333825,"Delta":598680788},{"NoteNumber":57,"Velocity":31,"Duration":333825,"SoundDuration":333825,"Delta":598680788},{"NoteNumber":63,"Velocity":31,"Duration":333825,"SoundDuration":333825,"Delta":598680788},{"NoteNumber":74,"Velocity":43,"Duration":107238,"SoundDuration":107238,"Delta":598787886},{"NoteNumber":72,"Velocity":43,"Duration":119488,"SoundDuration":119488,"Delta":598895125},{"NoteNumber":70,"Velocity":45,"Duration":107538,"SoundDuration":107538,"Delta":599014614},{"NoteNumber":46,"Velocity":40,"Duration":161307,"SoundDuration":161307,"Delta":599014614},{"NoteNumber":74,"Velocity":46,"Duration":107365,"SoundDuration":107365,"Delta":599122152},{"NoteNumber":77,"Velocity":46,"Duration":106923,"SoundDuration":106923,"Delta":599229518},{"NoteNumber":82,"Velocity":47,"Duration":106343,"SoundDuration":106343,"Delta":599336441},{"NoteNumber":58,"Velocity":31,"Duration":953773,"SoundDuration":953773,"Delta":599336441},{"NoteNumber":62,"Velocity":31,"Duration":953773,"SoundDuration":953773,"Delta":599336441},{"NoteNumber":86,"Velocity":48,"Duration":105864,"SoundDuration":105864,"Delta":599442785},{"NoteNumber":84,"Velocity":49,"Duration":105114,"SoundDuration":105114,"Delta":599548650},{"NoteNumber":82,"Velocity":51,"Duration":104394,"SoundDuration":104394,"Delta":599653764},{"NoteNumber":81,"Velocity":55,"Duration":105086,"SoundDuration":105086,"Delta":599758158},{"NoteNumber":82,"Velocity":58,"Duration":105644,"SoundDuration":105644,"Delta":599863245},{"NoteNumber":83,"Velocity":62,"Duration":106434,"SoundDuration":106434,"Delta":599968889},{"NoteNumber":84,"Velocity":65,"Duration":107089,"SoundDuration":107089,"Delta":600075323},{"NoteNumber":85,"Velocity":68,"Duration":107801,"SoundDuration":107801,"Delta":600182413},{"NoteNumber":86,"Velocity":75,"Duration":170280,"SoundDuration":170280,"Delta":600290215},{"NoteNumber":38,"Velocity":51,"Duration":113520,"SoundDuration":113520,"Delta":600290215},{"NoteNumber":40,"Velocity":48,"Duration":113520,"SoundDuration":113520,"Delta":600403735},{"NoteNumber":42,"Velocity":46,"Duration":113520,"SoundDuration":113520,"Delta":600517256},{"NoteNumber":74,"Velocity":68,"Duration":633312,"SoundDuration":633312,"Delta":600630776},{"NoteNumber":78,"Velocity":68,"Duration":633312,"SoundDuration":633312,"Delta":600630776},{"NoteNumber":84,"Velocity":68,"Duration":633312,"SoundDuration":633312,"Delta":600630776},{"NoteNumber":86,"Velocity":80,"Duration":633312,"SoundDuration":633312,"Delta":600630776},{"NoteNumber":43,"Velocity":53,"Duration":105551,"SoundDuration":105551,"Delta":600630776},{"NoteNumber":45,"Velocity":54,"Duration":105551,"SoundDuration":105551,"Delta":600736328},{"NoteNumber":46,"Velocity":49,"Duration":105551,"SoundDuration":105551,"Delta":600841880},{"NoteNumber":48,"Velocity":55,"Duration":105551,"SoundDuration":105551,"Delta":600947432},{"NoteNumber":50,"Velocity":52,"Duration":105551,"SoundDuration":105551,"Delta":601052984},{"NoteNumber":52,"Velocity":53,"Duration":105552,"SoundDuration":105552,"Delta":601158536},{"NoteNumber":74,"Velocity":59,"Duration":316655,"SoundDuration":316655,"Delta":601264088},{"NoteNumber":78,"Velocity":59,"Duration":316655,"SoundDuration":316655,"Delta":601264088},{"NoteNumber":84,"Velocity":59,"Duration":316655,"SoundDuration":316655,"Delta":601264088},{"NoteNumber":86,"Velocity":70,"Duration":316655,"SoundDuration":316655,"Delta":601264088},{"NoteNumber":54,"Velocity":57,"Duration":105551,"SoundDuration":105551,"Delta":601264088},{"NoteNumber":55,"Velocity":54,"Duration":105551,"SoundDuration":105551,"Delta":601369640},{"NoteNumber":57,"Velocity":54,"Duration":105551,"SoundDuration":105551,"Delta":601475192},{"NoteNumber":58,"Velocity":63,"Duration":109853,"SoundDuration":109853,"Delta":601580744},{"NoteNumber":62,"Velocity":54,"Duration":109853,"SoundDuration":109853,"Delta":601690598},{"NoteNumber":58,"Velocity":54,"Duration":109853,"SoundDuration":109853,"Delta":601800452},{"NoteNumber":86,"Velocity":79,"Duration":630317,"SoundDuration":630317,"Delta":601910305},{"NoteNumber":82,"Velocity":67,"Duration":630317,"SoundDuration":630317,"Delta":601910305},{"NoteNumber":79,"Velocity":67,"Duration":630317,"SoundDuration":630317,"Delta":601910305},{"NoteNumber":74,"Velocity":67,"Duration":630317,"SoundDuration":630317,"Delta":601910305},{"NoteNumber":55,"Velocity":62,"Duration":105052,"SoundDuration":105052,"Delta":601910305},{"NoteNumber":58,"Velocity":53,"Duration":105052,"SoundDuration":105052,"Delta":602015358},{"NoteNumber":55,"Velocity":53,"Duration":105052,"SoundDuration":105052,"Delta":602120411},{"NoteNumber":50,"Velocity":65,"Duration":105052,"SoundDuration":105052,"Delta":602225464},{"NoteNumber":55,"Velocity":53,"Duration":105052,"SoundDuration":105052,"Delta":602330517},{"NoteNumber":50,"Velocity":53,"Duration":105052,"SoundDuration":105052,"Delta":602435570},{"NoteNumber":91,"Velocity":74,"Duration":315158,"SoundDuration":315158,"Delta":602540623},{"NoteNumber":86,"Velocity":62,"Duration":315158,"SoundDuration":315158,"Delta":602540623},{"NoteNumber":82,"Velocity":62,"Duration":315158,"SoundDuration":315158,"Delta":602540623},{"NoteNumber":79,"Velocity":62,"Duration":315158,"SoundDuration":315158,"Delta":602540623},{"NoteNumber":46,"Velocity":65,"Duration":105052,"SoundDuration":105052,"Delta":602540623},{"NoteNumber":50,"Velocity":51,"Duration":105052,"SoundDuration":105052,"Delta":602645676},{"NoteNumber":46,"Velocity":51,"Duration":105052,"SoundDuration":105052,"Delta":602750729},{"NoteNumber":43,"Velocity":51,"Duration":113520,"SoundDuration":113520,"Delta":602855782},{"NoteNumber":45,"Velocity":48,"Duration":113520,"SoundDuration":113520,"Delta":602969303},{"NoteNumber":46,"Velocity":46,"Duration":113520,"SoundDuration":113520,"Delta":603082823},{"NoteNumber":82,"Velocity":74,"Duration":639271,"SoundDuration":639271,"Delta":603196343},{"NoteNumber":86,"Velocity":74,"Duration":639271,"SoundDuration":639271,"Delta":603196343},{"NoteNumber":94,"Velocity":88,"Duration":639271,"SoundDuration":639271,"Delta":603196343},{"NoteNumber":48,"Velocity":53,"Duration":107538,"SoundDuration":107538,"Delta":603196343},{"NoteNumber":50,"Velocity":54,"Duration":107538,"SoundDuration":107538,"Delta":603303882},{"NoteNumber":52,"Velocity":49,"Duration":107538,"SoundDuration":107538,"Delta":603411420},{"NoteNumber":54,"Velocity":55,"Duration":105551,"SoundDuration":105551,"Delta":603518959},{"NoteNumber":55,"Velocity":52,"Duration":105551,"SoundDuration":105551,"Delta":603624511},{"NoteNumber":56,"Velocity":53,"Duration":105551,"SoundDuration":105551,"Delta":603730063},{"NoteNumber":79,"Velocity":64,"Duration":316656,"SoundDuration":316656,"Delta":603835615},{"NoteNumber":86,"Velocity":64,"Duration":316656,"SoundDuration":316656,"Delta":603835615},{"NoteNumber":91,"Velocity":77,"Duration":316656,"SoundDuration":316656,"Delta":603835615},{"NoteNumber":57,"Velocity":57,"Duration":105551,"SoundDuration":105551,"Delta":603835615},{"NoteNumber":58,"Velocity":54,"Duration":105551,"SoundDuration":105551,"Delta":603941167},{"NoteNumber":59,"Velocity":54,"Duration":105552,"SoundDuration":105552,"Delta":604046719},{"NoteNumber":76,"Velocity":67,"Duration":1283831,"SoundDuration":1283831,"Delta":604152271},{"NoteNumber":79,"Velocity":67,"Duration":1283831,"SoundDuration":1283831,"Delta":604152271},{"NoteNumber":84,"Velocity":67,"Duration":1283831,"SoundDuration":1283831,"Delta":604152271},{"NoteNumber":88,"Velocity":79,"Duration":1283831,"SoundDuration":1283831,"Delta":604152271},{"NoteNumber":60,"Velocity":63,"Duration":109853,"SoundDuration":109853,"Delta":604152271},{"NoteNumber":64,"Velocity":54,"Duration":109853,"SoundDuration":109853,"Delta":604262125},{"NoteNumber":60,"Velocity":54,"Duration":109853,"SoundDuration":109853,"Delta":604371979},{"NoteNumber":55,"Velocity":62,"Duration":106986,"SoundDuration":106986,"Delta":604481832},{"NoteNumber":60,"Velocity":53,"Duration":106986,"SoundDuration":106986,"Delta":604588819},{"NoteNumber":55,"Velocity":53,"Duration":106986,"SoundDuration":106986,"Delta":604695805},{"NoteNumber":52,"Velocity":65,"Duration":105551,"SoundDuration":105551,"Delta":604802791},{"NoteNumber":55,"Velocity":53,"Duration":105551,"SoundDuration":105551,"Delta":604908343},{"NoteNumber":52,"Velocity":53,"Duration":105551,"SoundDuration":105551,"Delta":605013895},{"NoteNumber":48,"Velocity":65,"Duration":316656,"SoundDuration":316656,"Delta":605119447},{"NoteNumber":45,"Velocity":51,"Duration":113520,"SoundDuration":113520,"Delta":605436103},{"NoteNumber":48,"Velocity":41,"Duration":113520,"SoundDuration":113520,"Delta":605549623},{"NoteNumber":53,"Velocity":44,"Duration":113520,"SoundDuration":113520,"Delta":605663144},{"NoteNumber":77,"Velocity":74,"Duration":322615,"SoundDuration":322615,"Delta":605776664},{"NoteNumber":84,"Velocity":74,"Duration":322615,"SoundDuration":322615,"Delta":605776664},{"NoteNumber":89,"Velocity":88,"Duration":427668,"SoundDuration":427668,"Delta":605776664},{"NoteNumber":57,"Velocity":47,"Duration":107538,"SoundDuration":107538,"Delta":605776664},{"NoteNumber":60,"Velocity":50,"Duration":107538,"SoundDuration":107538,"Delta":605884202},{"NoteNumber":65,"Velocity":53,"Duration":107538,"SoundDuration":107538,"Delta":605991741},{"NoteNumber":69,"Velocity":56,"Duration":315158,"SoundDuration":315158,"Delta":606099279},{"NoteNumber":84,"Velocity":63,"Duration":105052,"SoundDuration":105052,"Delta":606204332},{"NoteNumber":81,"Velocity":61,"Duration":105052,"SoundDuration":105052,"Delta":606309385},{"NoteNumber":77,"Velocity":59,"Duration":105052,"SoundDuration":105052,"Delta":606414438},{"NoteNumber":72,"Velocity":56,"Duration":105052,"SoundDuration":105052,"Delta":606519491},{"NoteNumber":69,"Velocity":54,"Duration":105052,"SoundDuration":105052,"Delta":606624544},{"NoteNumber":67,"Velocity":52,"Duration":170280,"SoundDuration":170280,"Delta":606729597},{"NoteNumber":46,"Velocity":51,"Duration":113520,"SoundDuration":113520,"Delta":606729597},{"NoteNumber":50,"Velocity":41,"Duration":113520,"SoundDuration":113520,"Delta":606843118},{"NoteNumber":55,"Velocity":44,"Duration":113520,"SoundDuration":113520,"Delta":606956638},{"NoteNumber":77,"Velocity":74,"Duration":318201,"SoundDuration":318201,"Delta":607070158},{"NoteNumber":86,"Velocity":74,"Duration":318201,"SoundDuration":318201,"Delta":607070158},{"NoteNumber":89,"Velocity":88,"Duration":424267,"SoundDuration":424267,"Delta":607070158},{"NoteNumber":58,"Velocity":47,"Duration":106067,"SoundDuration":106067,"Delta":607070158},{"NoteNumber":62,"Velocity":50,"Duration":106066,"SoundDuration":106066,"Delta":607176225},{"NoteNumber":67,"Velocity":53,"Duration":106067,"SoundDuration":106067,"Delta":607282292},{"NoteNumber":70,"Velocity":56,"Duration":318200,"SoundDuration":318200,"Delta":607388359},{"NoteNumber":86,"Velocity":65,"Duration":106067,"SoundDuration":106067,"Delta":607494426},{"NoteNumber":82,"Velocity":63,"Duration":106066,"SoundDuration":106066,"Delta":607600493},{"NoteNumber":77,"Velocity":61,"Duration":106067,"SoundDuration":106067,"Delta":607706560},{"NoteNumber":74,"Velocity":59,"Duration":106066,"SoundDuration":106066,"Delta":607812627},{"NoteNumber":70,"Velocity":57,"Duration":106067,"SoundDuration":106067,"Delta":607918694},{"NoteNumber":69,"Velocity":55,"Duration":105571,"SoundDuration":105571,"Delta":608024761},{"NoteNumber":48,"Velocity":59,"Duration":158347,"SoundDuration":158347,"Delta":608024761},{"NoteNumber":84,"Velocity":70,"Duration":105551,"SoundDuration":105551,"Delta":608130333},{"NoteNumber":82,"Velocity":67,"Duration":105551,"SoundDuration":105551,"Delta":608235885},{"NoteNumber":81,"Velocity":65,"Duration":105609,"SoundDuration":105609,"Delta":608341437},{"NoteNumber":65,"Velocity":40,"Duration":158643,"SoundDuration":158643,"Delta":608341437},{"NoteNumber":60,"Velocity":34,"Duration":158643,"SoundDuration":158643,"Delta":608341437},{"NoteNumber":57,"Velocity":34,"Duration":158643,"SoundDuration":158643,"Delta":608341437},{"NoteNumber":79,"Velocity":63,"Duration":106067,"SoundDuration":106067,"Delta":608447047},{"NoteNumber":77,"Velocity":61,"Duration":106066,"SoundDuration":106066,"Delta":608553114},{"NoteNumber":76,"Velocity":59,"Duration":106067,"SoundDuration":106067,"Delta":608659181},{"NoteNumber":48,"Velocity":46,"Duration":159100,"SoundDuration":159100,"Delta":608659181},{"NoteNumber":74,"Velocity":57,"Duration":106206,"SoundDuration":106206,"Delta":608765248},{"NoteNumber":72,"Velocity":55,"Duration":106575,"SoundDuration":106575,"Delta":608871455},{"NoteNumber":70,"Velocity":53,"Duration":106575,"SoundDuration":106575,"Delta":608978030},{"NoteNumber":64,"Velocity":42,"Duration":159863,"SoundDuration":159863,"Delta":608978030},{"NoteNumber":60,"Velocity":35,"Duration":159863,"SoundDuration":159863,"Delta":608978030},{"NoteNumber":58,"Velocity":35,"Duration":159863,"SoundDuration":159863,"Delta":608978030},{"NoteNumber":69,"Velocity":51,"Duration":106575,"SoundDuration":106575,"Delta":609084606},{"NoteNumber":67,"Velocity":49,"Duration":106930,"SoundDuration":106930,"Delta":609191182},{"NoteNumber":65,"Velocity":53,"Duration":349202,"SoundDuration":349202,"Delta":609298112},{"NoteNumber":41,"Velocity":40,"Duration":174601,"SoundDuration":174601,"Delta":609298112},{"NoteNumber":77,"Velocity":49,"Duration":116400,"SoundDuration":116400,"Delta":609647314},{"NoteNumber":53,"Velocity":31,"Duration":1087819,"SoundDuration":1087819,"Delta":609647314},{"NoteNumber":60,"Velocity":31,"Duration":346099,"SoundDuration":346099,"Delta":609647314},{"NoteNumber":57,"Velocity":31,"Duration":346099,"SoundDuration":346099,"Delta":609647314},{"NoteNumber":79,"Velocity":43,"Duration":115356,"SoundDuration":115356,"Delta":609763715},{"NoteNumber":77,"Velocity":43,"Duration":114342,"SoundDuration":114342,"Delta":609879072},{"NoteNumber":76,"Velocity":48,"Duration":115229,"SoundDuration":115229,"Delta":609993414},{"NoteNumber":62,"Velocity":31,"Duration":353613,"SoundDuration":353613,"Delta":609993414},{"NoteNumber":58,"Velocity":31,"Duration":353613,"SoundDuration":353613,"Delta":609993414},{"NoteNumber":79,"Velocity":42,"Duration":117738,"SoundDuration":117738,"Delta":610108643},{"NoteNumber":77,"Velocity":42,"Duration":120646,"SoundDuration":120646,"Delta":610226382},{"NoteNumber":76,"Velocity":43,"Duration":123373,"SoundDuration":123373,"Delta":610347028},{"NoteNumber":57,"Velocity":31,"Duration":388105,"SoundDuration":388105,"Delta":610347028},{"NoteNumber":63,"Velocity":31,"Duration":388105,"SoundDuration":388105,"Delta":610347028},{"NoteNumber":91,"Velocity":40,"Duration":126246,"SoundDuration":126246,"Delta":610470402},{"NoteNumber":89,"Velocity":38,"Duration":138484,"SoundDuration":138484,"Delta":610596649},{"NoteNumber":88,"Velocity":51,"Duration":103433,"SoundDuration":103433,"Delta":610735134},{"NoteNumber":46,"Velocity":40,"Duration":155151,"SoundDuration":155151,"Delta":610735134},{"NoteNumber":91,"Velocity":46,"Duration":103433,"SoundDuration":103433,"Delta":610838568},{"NoteNumber":89,"Velocity":46,"Duration":103433,"SoundDuration":103433,"Delta":610942002},{"NoteNumber":87,"Velocity":50,"Duration":103433,"SoundDuration":103433,"Delta":611045436},{"NoteNumber":53,"Velocity":28,"Duration":627126,"SoundDuration":627126,"Delta":611045436},{"NoteNumber":62,"Velocity":34,"Duration":627126,"SoundDuration":627126,"Delta":611045436},{"NoteNumber":58,"Velocity":28,"Duration":627126,"SoundDuration":627126,"Delta":611045436},{"NoteNumber":86,"Velocity":46,"Duration":103433,"SoundDuration":103433,"Delta":611148870},{"NoteNumber":84,"Velocity":46,"Duration":103743,"SoundDuration":103743,"Delta":611252304},{"NoteNumber":82,"Velocity":50,"Duration":104637,"SoundDuration":104637,"Delta":611356047},{"NoteNumber":81,"Velocity":46,"Duration":105497,"SoundDuration":105497,"Delta":611460685},{"NoteNumber":79,"Velocity":46,"Duration":106379,"SoundDuration":106379,"Delta":611566183},{"NoteNumber":77,"Velocity":46,"Duration":107380,"SoundDuration":107380,"Delta":611672562},{"NoteNumber":53,"Velocity":28,"Duration":363309,"SoundDuration":363309,"Delta":611672562},{"NoteNumber":58,"Velocity":28,"Duration":363309,"SoundDuration":363309,"Delta":611672562},{"NoteNumber":62,"Velocity":34,"Duration":363309,"SoundDuration":363309,"Delta":611672562},{"NoteNumber":75,"Velocity":46,"Duration":108436,"SoundDuration":108436,"Delta":611779943},{"NoteNumber":74,"Velocity":46,"Duration":147492,"SoundDuration":147492,"Delta":611888380},{"NoteNumber":72,"Velocity":43,"Duration":687386,"SoundDuration":687386,"Delta":612035872},{"NoteNumber":50,"Velocity":40,"Duration":165672,"SoundDuration":165672,"Delta":612035872},{"NoteNumber":56,"Velocity":24,"Duration":702381,"SoundDuration":702381,"Delta":612367218},{"NoteNumber":58,"Velocity":24,"Duration":702381,"SoundDuration":702381,"Delta":612367218},{"NoteNumber":65,"Velocity":29,"Duration":702381,"SoundDuration":702381,"Delta":612367218},{"NoteNumber":70,"Velocity":38,"Duration":346340,"SoundDuration":346340,"Delta":612723259},{"NoteNumber":56,"Velocity":24,"Duration":346340,"SoundDuration":346340,"Delta":613069599},{"NoteNumber":58,"Velocity":24,"Duration":346340,"SoundDuration":346340,"Delta":613069599},{"NoteNumber":65,"Velocity":29,"Duration":346340,"SoundDuration":346340,"Delta":613069599},{"NoteNumber":69,"Velocity":46,"Duration":173170,"SoundDuration":173170,"Delta":613242770},{"NoteNumber":70,"Velocity":36,"Duration":101884,"SoundDuration":101884,"Delta":613415940},{"NoteNumber":51,"Velocity":40,"Duration":152827,"SoundDuration":152827,"Delta":613415940},{"NoteNumber":72,"Velocity":37,"Duration":101884,"SoundDuration":101884,"Delta":613517825},{"NoteNumber":74,"Velocity":38,"Duration":101884,"SoundDuration":101884,"Delta":613619709},{"NoteNumber":75,"Velocity":40,"Duration":101884,"SoundDuration":101884,"Delta":613721594},{"NoteNumber":63,"Velocity":34,"Duration":616276,"SoundDuration":616276,"Delta":613721594},{"NoteNumber":58,"Velocity":28,"Duration":616276,"SoundDuration":616276,"Delta":613721594},{"NoteNumber":55,"Velocity":28,"Duration":616276,"SoundDuration":616276,"Delta":613721594},{"NoteNumber":77,"Velocity":41,"Duration":101884,"SoundDuration":101884,"Delta":613823479},{"NoteNumber":79,"Velocity":42,"Duration":101943,"SoundDuration":101943,"Delta":613925364},{"NoteNumber":81,"Velocity":45,"Duration":102606,"SoundDuration":102606,"Delta":614027307},{"NoteNumber":82,"Velocity":47,"Duration":103488,"SoundDuration":103488,"Delta":614129914},{"NoteNumber":84,"Velocity":50,"Duration":104468,"SoundDuration":104468,"Delta":614233402},{"NoteNumber":86,"Velocity":52,"Duration":105328,"SoundDuration":105328,"Delta":614337871},{"NoteNumber":55,"Velocity":28,"Duration":358882,"SoundDuration":358882,"Delta":614337871},{"NoteNumber":58,"Velocity":28,"Duration":358882,"SoundDuration":358882,"Delta":614337871},{"NoteNumber":63,"Velocity":34,"Duration":358882,"SoundDuration":358882,"Delta":614337871},{"NoteNumber":87,"Velocity":55,"Duration":106428,"SoundDuration":106428,"Delta":614443200},{"NoteNumber":89,"Velocity":57,"Duration":147125,"SoundDuration":147125,"Delta":614549628},{"NoteNumber":91,"Velocity":51,"Duration":61797,"SoundDuration":61797,"Delta":614696754},{"NoteNumber":52,"Velocity":40,"Duration":187422,"SoundDuration":187422,"Delta":614696754},{"NoteNumber":93,"Velocity":52,"Duration":62524,"SoundDuration":62524,"Delta":614758551},{"NoteNumber":91,"Velocity":53,"Duration":63100,"SoundDuration":63100,"Delta":614821076},{"NoteNumber":93,"Velocity":54,"Duration":63684,"SoundDuration":63684,"Delta":614884176},{"NoteNumber":91,"Velocity":55,"Duration":64247,"SoundDuration":64247,"Delta":614947861},{"NoteNumber":93,"Velocity":56,"Duration":64872,"SoundDuration":64872,"Delta":615012109},{"NoteNumber":91,"Velocity":54,"Duration":65609,"SoundDuration":65609,"Delta":615076982},{"NoteNumber":58,"Velocity":24,"Duration":758198,"SoundDuration":758198,"Delta":615076982},{"NoteNumber":61,"Velocity":24,"Duration":758198,"SoundDuration":758198,"Delta":615076982},{"NoteNumber":67,"Velocity":29,"Duration":758198,"SoundDuration":758198,"Delta":615076982},{"NoteNumber":90,"Velocity":53,"Duration":65737,"SoundDuration":65737,"Delta":615142591},{"NoteNumber":91,"Velocity":52,"Duration":65737,"SoundDuration":65737,"Delta":615208329},{"NoteNumber":94,"Velocity":51,"Duration":197212,"SoundDuration":197212,"Delta":615274066},{"NoteNumber":97,"Velocity":68,"Duration":363901,"SoundDuration":363901,"Delta":615471279},{"NoteNumber":58,"Velocity":24,"Duration":363900,"SoundDuration":363900,"Delta":615835180},{"NoteNumber":61,"Velocity":24,"Duration":363900,"SoundDuration":363900,"Delta":615835180},{"NoteNumber":67,"Velocity":29,"Duration":363900,"SoundDuration":363900,"Delta":615835180},{"NoteNumber":72,"Velocity":46,"Duration":181950,"SoundDuration":181950,"Delta":616017131},{"NoteNumber":71,"Velocity":51,"Duration":102923,"SoundDuration":102923,"Delta":616199081},{"NoteNumber":55,"Velocity":40,"Duration":154384,"SoundDuration":154384,"Delta":616199081},{"NoteNumber":72,"Velocity":46,"Duration":102922,"SoundDuration":102922,"Delta":616302004},{"NoteNumber":74,"Velocity":46,"Duration":102923,"SoundDuration":102923,"Delta":616404927},{"NoteNumber":76,"Velocity":50,"Duration":102923,"SoundDuration":102923,"Delta":616507850},{"NoteNumber":60,"Velocity":28,"Duration":620277,"SoundDuration":620277,"Delta":616507850},{"NoteNumber":64,"Velocity":34,"Duration":620277,"SoundDuration":620277,"Delta":616507850},{"NoteNumber":58,"Velocity":28,"Duration":620277,"SoundDuration":620277,"Delta":616507850},{"NoteNumber":77,"Velocity":46,"Duration":102923,"SoundDuration":102923,"Delta":616610773},{"NoteNumber":79,"Velocity":46,"Duration":102922,"SoundDuration":102922,"Delta":616713696},{"NoteNumber":81,"Velocity":50,"Duration":102999,"SoundDuration":102999,"Delta":616816619},{"NoteNumber":82,"Velocity":49,"Duration":103783,"SoundDuration":103783,"Delta":616919619},{"NoteNumber":84,"Velocity":51,"Duration":104725,"SoundDuration":104725,"Delta":617023402},{"NoteNumber":86,"Velocity":54,"Duration":105585,"SoundDuration":105585,"Delta":617128128},{"NoteNumber":58,"Velocity":28,"Duration":359541,"SoundDuration":359541,"Delta":617128128},{"NoteNumber":60,"Velocity":28,"Duration":359541,"SoundDuration":359541,"Delta":617128128},{"NoteNumber":64,"Velocity":34,"Duration":359541,"SoundDuration":359541,"Delta":617128128},{"NoteNumber":87,"Velocity":56,"Duration":106463,"SoundDuration":106463,"Delta":617233713},{"NoteNumber":88,"Velocity":59,"Duration":147492,"SoundDuration":147492,"Delta":617340176},{"NoteNumber":89,"Velocity":61,"Duration":103960,"SoundDuration":103960,"Delta":617487669},{"NoteNumber":53,"Velocity":40,"Duration":155941,"SoundDuration":155941,"Delta":617487669},{"NoteNumber":101,"Velocity":65,"Duration":103960,"SoundDuration":103960,"Delta":617591630},{"NoteNumber":100,"Velocity":63,"Duration":103960,"SoundDuration":103960,"Delta":617695591},{"NoteNumber":99,"Velocity":61,"Duration":103960,"SoundDuration":103960,"Delta":617799552},{"NoteNumber":62,"Velocity":24,"Duration":628805,"SoundDuration":628805,"Delta":617799552},{"NoteNumber":58,"Velocity":24,"Duration":628805,"SoundDuration":628805,"Delta":617799552},{"NoteNumber":65,"Velocity":29,"Duration":628805,"SoundDuration":628805,"Delta":617799552},{"NoteNumber":98,"Velocity":60,"Duration":103960,"SoundDuration":103960,"Delta":617903512},{"NoteNumber":96,"Velocity":58,"Duration":104021,"SoundDuration":104021,"Delta":618007473},{"NoteNumber":94,"Velocity":56,"Duration":104712,"SoundDuration":104712,"Delta":618111495},{"NoteNumber":93,"Velocity":55,"Duration":105630,"SoundDuration":105630,"Delta":618216208},{"NoteNumber":91,"Velocity":53,"Duration":106518,"SoundDuration":106518,"Delta":618321838},{"NoteNumber":89,"Velocity":51,"Duration":107521,"SoundDuration":107521,"Delta":618428357},{"NoteNumber":62,"Velocity":24,"Duration":357341,"SoundDuration":357341,"Delta":618428357},{"NoteNumber":58,"Velocity":24,"Duration":357341,"SoundDuration":357341,"Delta":618428357},{"NoteNumber":65,"Velocity":29,"Duration":357341,"SoundDuration":357341,"Delta":618428357},{"NoteNumber":87,"Velocity":50,"Duration":108436,"SoundDuration":108436,"Delta":618535879},{"NoteNumber":86,"Velocity":48,"Duration":141382,"SoundDuration":141382,"Delta":618644316},{"NoteNumber":84,"Velocity":49,"Duration":104504,"SoundDuration":104504,"Delta":618785698},{"NoteNumber":41,"Velocity":40,"Duration":156756,"SoundDuration":156756,"Delta":618785698},{"NoteNumber":93,"Velocity":45,"Duration":104504,"SoundDuration":104504,"Delta":618890203},{"NoteNumber":91,"Velocity":45,"Duration":104504,"SoundDuration":104504,"Delta":618994707},{"NoteNumber":87,"Velocity":44,"Duration":104504,"SoundDuration":104504,"Delta":619099211},{"NoteNumber":57,"Velocity":31,"Duration":629844,"SoundDuration":629844,"Delta":619099211},{"NoteNumber":53,"Velocity":31,"Duration":629844,"SoundDuration":629844,"Delta":619099211},{"NoteNumber":63,"Velocity":31,"Duration":629844,"SoundDuration":629844,"Delta":619099211},{"NoteNumber":84,"Velocity":44,"Duration":104504,"SoundDuration":104504,"Delta":619203715},{"NoteNumber":82,"Velocity":44,"Duration":104504,"SoundDuration":104504,"Delta":619308219},{"NoteNumber":81,"Velocity":44,"Duration":104584,"SoundDuration":104584,"Delta":619412723},{"NoteNumber":79,"Velocity":43,"Duration":105394,"SoundDuration":105394,"Delta":619517308},{"NoteNumber":77,"Velocity":43,"Duration":106352,"SoundDuration":106352,"Delta":619622703},{"NoteNumber":75,"Velocity":43,"Duration":107098,"SoundDuration":107098,"Delta":619729055},{"NoteNumber":53,"Velocity":31,"Duration":333825,"SoundDuration":333825,"Delta":619729055},{"NoteNumber":57,"Velocity":31,"Duration":333825,"SoundDuration":333825,"Delta":619729055},{"NoteNumber":63,"Velocity":31,"Duration":333825,"SoundDuration":333825,"Delta":619729055},{"NoteNumber":74,"Velocity":43,"Duration":107238,"SoundDuration":107238,"Delta":619836154},{"NoteNumber":72,"Velocity":43,"Duration":119488,"SoundDuration":119488,"Delta":619943393},{"NoteNumber":70,"Velocity":45,"Duration":107538,"SoundDuration":107538,"Delta":620062881},{"NoteNumber":41,"Velocity":40,"Duration":161307,"SoundDuration":161307,"Delta":620062881},{"NoteNumber":74,"Velocity":46,"Duration":107365,"SoundDuration":107365,"Delta":620170420},{"NoteNumber":77,"Velocity":46,"Duration":106923,"SoundDuration":106923,"Delta":620277786},{"NoteNumber":82,"Velocity":48,"Duration":106343,"SoundDuration":106343,"Delta":620384709},{"NoteNumber":62,"Velocity":31,"Duration":632447,"SoundDuration":632447,"Delta":620384709},{"NoteNumber":53,"Velocity":31,"Duration":632447,"SoundDuration":632447,"Delta":620384709},{"NoteNumber":58,"Velocity":31,"Duration":632447,"SoundDuration":632447,"Delta":620384709},{"NoteNumber":86,"Velocity":48,"Duration":105864,"SoundDuration":105864,"Delta":620491053},{"NoteNumber":84,"Velocity":47,"Duration":105114,"SoundDuration":105114,"Delta":620596918},{"NoteNumber":82,"Velocity":47,"Duration":104394,"SoundDuration":104394,"Delta":620702032},{"NoteNumber":81,"Velocity":45,"Duration":105086,"SoundDuration":105086,"Delta":620806426},{"NoteNumber":79,"Velocity":44,"Duration":105644,"SoundDuration":105644,"Delta":620911512},{"NoteNumber":77,"Velocity":42,"Duration":106434,"SoundDuration":106434,"Delta":621017156},{"NoteNumber":53,"Velocity":31,"Duration":321326,"SoundDuration":321326,"Delta":621017156},{"NoteNumber":58,"Velocity":31,"Duration":321326,"SoundDuration":321326,"Delta":621017156},{"NoteNumber":62,"Velocity":31,"Duration":321326,"SoundDuration":321326,"Delta":621017156},{"NoteNumber":75,"Velocity":40,"Duration":107089,"SoundDuration":107089,"Delta":621123591},{"NoteNumber":74,"Velocity":38,"Duration":107801,"SoundDuration":107801,"Delta":621230681},{"NoteNumber":72,"Velocity":42,"Duration":104504,"SoundDuration":104504,"Delta":621338483},{"NoteNumber":41,"Velocity":34,"Duration":156756,"SoundDuration":156756,"Delta":621338483},{"NoteNumber":81,"Velocity":45,"Duration":104504,"SoundDuration":104504,"Delta":621442987},{"NoteNumber":79,"Velocity":44,"Duration":104504,"SoundDuration":104504,"Delta":621547491},{"NoteNumber":75,"Velocity":43,"Duration":104504,"SoundDuration":104504,"Delta":621651995},{"NoteNumber":53,"Velocity":26,"Duration":629844,"SoundDuration":629844,"Delta":621651995},{"NoteNumber":51,"Velocity":26,"Duration":629844,"SoundDuration":629844,"Delta":621651995},{"NoteNumber":57,"Velocity":26,"Duration":629844,"SoundDuration":629844,"Delta":621651995},{"NoteNumber":72,"Velocity":41,"Duration":104504,"SoundDuration":104504,"Delta":621756499},{"NoteNumber":70,"Velocity":40,"Duration":104504,"SoundDuration":104504,"Delta":621861003},{"NoteNumber":69,"Velocity":39,"Duration":104584,"SoundDuration":104584,"Delta":621965508},{"NoteNumber":67,"Velocity":37,"Duration":105394,"SoundDuration":105394,"Delta":622070092},{"NoteNumber":65,"Velocity":36,"Duration":106352,"SoundDuration":106352,"Delta":622175487},{"NoteNumber":63,"Velocity":37,"Duration":107098,"SoundDuration":107098,"Delta":622281839},{"NoteNumber":51,"Velocity":26,"Duration":333825,"SoundDuration":333825,"Delta":622281839},{"NoteNumber":53,"Velocity":26,"Duration":333825,"SoundDuration":333825,"Delta":622281839},{"NoteNumber":57,"Velocity":26,"Duration":333825,"SoundDuration":333825,"Delta":622281839},{"NoteNumber":62,"Velocity":36,"Duration":107238,"SoundDuration":107238,"Delta":622388938},{"NoteNumber":60,"Velocity":35,"Duration":119488,"SoundDuration":119488,"Delta":622496177},{"NoteNumber":58,"Velocity":34,"Duration":107538,"SoundDuration":107538,"Delta":622615665},{"NoteNumber":41,"Velocity":34,"Duration":161307,"SoundDuration":161307,"Delta":622615665},{"NoteNumber":62,"Velocity":39,"Duration":107365,"SoundDuration":107365,"Delta":622723204},{"NoteNumber":65,"Velocity":38,"Duration":106923,"SoundDuration":106923,"Delta":622830570},{"NoteNumber":70,"Velocity":37,"Duration":106343,"SoundDuration":106343,"Delta":622937493},{"NoteNumber":50,"Velocity":26,"Duration":632447,"SoundDuration":632447,"Delta":622937493},{"NoteNumber":53,"Velocity":26,"Duration":632447,"SoundDuration":632447,"Delta":622937493},{"NoteNumber":58,"Velocity":26,"Duration":632447,"SoundDuration":632447,"Delta":622937493},{"NoteNumber":74,"Velocity":36,"Duration":105864,"SoundDuration":105864,"Delta":623043837},{"NoteNumber":72,"Velocity":35,"Duration":105114,"SoundDuration":105114,"Delta":623149702},{"NoteNumber":70,"Velocity":34,"Duration":104394,"SoundDuration":104394,"Delta":623254816},{"NoteNumber":69,"Velocity":33,"Duration":105086,"SoundDuration":105086,"Delta":623359210},{"NoteNumber":67,"Velocity":32,"Duration":105644,"SoundDuration":105644,"Delta":623464296},{"NoteNumber":65,"Velocity":31,"Duration":106434,"SoundDuration":106434,"Delta":623569940},{"NoteNumber":50,"Velocity":26,"Duration":322084,"SoundDuration":322084,"Delta":623569940},{"NoteNumber":53,"Velocity":26,"Duration":322084,"SoundDuration":322084,"Delta":623569940},{"NoteNumber":58,"Velocity":26,"Duration":322084,"SoundDuration":322084,"Delta":623569940},{"NoteNumber":63,"Velocity":30,"Duration":107089,"SoundDuration":107089,"Delta":623676375},{"NoteNumber":62,"Velocity":29,"Duration":108559,"SoundDuration":108559,"Delta":623783465},{"NoteNumber":60,"Velocity":27,"Duration":110782,"SoundDuration":110782,"Delta":623892025},{"NoteNumber":29,"Velocity":28,"Duration":166928,"SoundDuration":166928,"Delta":623892025},{"NoteNumber":69,"Velocity":31,"Duration":112694,"SoundDuration":112694,"Delta":624002807},{"NoteNumber":67,"Velocity":31,"Duration":114659,"SoundDuration":114659,"Delta":624115501},{"NoteNumber":63,"Velocity":30,"Duration":116705,"SoundDuration":116705,"Delta":624230161},{"NoteNumber":48,"Velocity":22,"Duration":901881,"SoundDuration":901881,"Delta":624230161},{"NoteNumber":41,"Velocity":22,"Duration":901881,"SoundDuration":901881,"Delta":624230161},{"NoteNumber":51,"Velocity":22,"Duration":901881,"SoundDuration":901881,"Delta":624230161},{"NoteNumber":60,"Velocity":29,"Duration":118857,"SoundDuration":118857,"Delta":624346866},{"NoteNumber":58,"Velocity":29,"Duration":123198,"SoundDuration":123198,"Delta":624465724},{"NoteNumber":57,"Velocity":28,"Duration":83807,"SoundDuration":83807,"Delta":624588922},{"NoteNumber":55,"Velocity":27,"Duration":88894,"SoundDuration":88894,"Delta":624759086},{"NoteNumber":53,"Velocity":27,"Duration":94615,"SoundDuration":94615,"Delta":624939583},{"NoteNumber":51,"Velocity":26,"Duration":100950,"SoundDuration":100950,"Delta":625132042},{"NoteNumber":50,"Velocity":25,"Duration":108795,"SoundDuration":108795,"Delta":625337653},{"NoteNumber":48,"Velocity":25,"Duration":117264,"SoundDuration":117264,"Delta":625559064},{"NoteNumber":53,"Velocity":36,"Duration":538019,"SoundDuration":538019,"Delta":627420929},{"NoteNumber":41,"Velocity":30,"Duration":538019,"SoundDuration":538019,"Delta":627420929},{"NoteNumber":50,"Velocity":34,"Duration":909090,"SoundDuration":909090,"Delta":627958949},{"NoteNumber":53,"Velocity":34,"Duration":909090,"SoundDuration":909090,"Delta":627958949},{"NoteNumber":62,"Velocity":40,"Duration":909090,"SoundDuration":909090,"Delta":627958949},{"NoteNumber":34,"Velocity":31,"Duration":909090,"SoundDuration":909090,"Delta":627958949},{"NoteNumber":41,"Velocity":31,"Duration":909090,"SoundDuration":909090,"Delta":627958949},{"NoteNumber":46,"Velocity":37,"Duration":909090,"SoundDuration":909090,"Delta":627958949},{"NoteNumber":50,"Velocity":34,"Duration":454545,"SoundDuration":454545,"Delta":628969050},{"NoteNumber":53,"Velocity":34,"Duration":454545,"SoundDuration":454545,"Delta":628969050},{"NoteNumber":62,"Velocity":40,"Duration":454545,"SoundDuration":454545,"Delta":628969050},{"NoteNumber":34,"Velocity":29,"Duration":454545,"SoundDuration":454545,"Delta":628969050},{"NoteNumber":41,"Velocity":29,"Duration":454545,"SoundDuration":454545,"Delta":628969050},{"NoteNumber":46,"Velocity":35,"Duration":454545,"SoundDuration":454545,"Delta":628969050},{"NoteNumber":50,"Velocity":30,"Duration":476442,"SoundDuration":476442,"Delta":629474101},{"NoteNumber":53,"Velocity":30,"Duration":476442,"SoundDuration":476442,"Delta":629474101},{"NoteNumber":62,"Velocity":36,"Duration":476442,"SoundDuration":476442,"Delta":629474101},{"NoteNumber":34,"Velocity":29,"Duration":476442,"SoundDuration":476442,"Delta":629474101},{"NoteNumber":41,"Velocity":29,"Duration":476442,"SoundDuration":476442,"Delta":629474101},{"NoteNumber":46,"Velocity":35,"Duration":476442,"SoundDuration":476442,"Delta":629474101},{"NoteNumber":50,"Velocity":34,"Duration":902105,"SoundDuration":902105,"Delta":630003481},{"NoteNumber":53,"Velocity":34,"Duration":902105,"SoundDuration":902105,"Delta":630003481},{"NoteNumber":58,"Velocity":40,"Duration":902105,"SoundDuration":902105,"Delta":630003481},{"NoteNumber":38,"Velocity":31,"Duration":902105,"SoundDuration":902105,"Delta":630003481},{"NoteNumber":41,"Velocity":37,"Duration":902105,"SoundDuration":902105,"Delta":630003481},{"NoteNumber":50,"Velocity":30,"Duration":946190,"SoundDuration":946190,"Delta":631005820},{"NoteNumber":53,"Velocity":30,"Duration":946190,"SoundDuration":946190,"Delta":631005820},{"NoteNumber":58,"Velocity":36,"Duration":946190,"SoundDuration":946190,"Delta":631005820},{"NoteNumber":38,"Velocity":28,"Duration":946190,"SoundDuration":946190,"Delta":631005820},{"NoteNumber":41,"Velocity":34,"Duration":946190,"SoundDuration":946190,"Delta":631005820},{"NoteNumber":53,"Velocity":34,"Duration":902105,"SoundDuration":902105,"Delta":632063266},{"NoteNumber":51,"Velocity":34,"Duration":902105,"SoundDuration":902105,"Delta":632063266},{"NoteNumber":57,"Velocity":40,"Duration":902105,"SoundDuration":902105,"Delta":632063266},{"NoteNumber":36,"Velocity":30,"Duration":902105,"SoundDuration":902105,"Delta":632063266},{"NoteNumber":41,"Velocity":30,"Duration":902105,"SoundDuration":902105,"Delta":632063266},{"NoteNumber":48,"Velocity":36,"Duration":902105,"SoundDuration":902105,"Delta":632063266},{"NoteNumber":51,"Velocity":30,"Duration":472688,"SoundDuration":472688,"Delta":633065605},{"NoteNumber":53,"Velocity":30,"Duration":472688,"SoundDuration":472688,"Delta":633065605},{"NoteNumber":57,"Velocity":36,"Duration":472688,"SoundDuration":472688,"Delta":633065605},{"NoteNumber":36,"Velocity":27,"Duration":472688,"SoundDuration":472688,"Delta":633065605},{"NoteNumber":41,"Velocity":27,"Duration":472688,"SoundDuration":472688,"Delta":633065605},{"NoteNumber":48,"Velocity":32,"Duration":472688,"SoundDuration":472688,"Delta":633065605},{"NoteNumber":51,"Velocity":33,"Duration":518134,"SoundDuration":518134,"Delta":633590815},{"NoteNumber":53,"Velocity":33,"Duration":518134,"SoundDuration":518134,"Delta":633590815},{"NoteNumber":57,"Velocity":39,"Duration":518134,"SoundDuration":518134,"Delta":633590815},{"NoteNumber":36,"Velocity":31,"Duration":518134,"SoundDuration":518134,"Delta":633590815},{"NoteNumber":41,"Velocity":31,"Duration":518134,"SoundDuration":518134,"Delta":633590815},{"NoteNumber":48,"Velocity":37,"Duration":518134,"SoundDuration":518134,"Delta":633590815},{"NoteNumber":63,"Velocity":46,"Duration":2302819,"SoundDuration":2302819,"Delta":634166520},{"NoteNumber":60,"Velocity":38,"Duration":2302819,"SoundDuration":2302819,"Delta":634166520},{"NoteNumber":54,"Velocity":45,"Duration":1151410,"SoundDuration":1151410,"Delta":634166520},{"NoteNumber":42,"Velocity":37,"Duration":1151410,"SoundDuration":1151410,"Delta":634166520},{"NoteNumber":33,"Velocity":37,"Duration":2302819,"SoundDuration":2302819,"Delta":634166520},{"NoteNumber":45,"Velocity":45,"Duration":2302819,"SoundDuration":2302819,"Delta":634166520},{"NoteNumber":53,"Velocity":38,"Duration":1151409,"SoundDuration":1151409,"Delta":635317930},{"NoteNumber":41,"Velocity":32,"Duration":1151409,"SoundDuration":1151409,"Delta":635317930},{"NoteNumber":58,"Velocity":34,"Duration":902105,"SoundDuration":902105,"Delta":636469340},{"NoteNumber":53,"Velocity":34,"Duration":902105,"SoundDuration":902105,"Delta":636469340},{"NoteNumber":62,"Velocity":40,"Duration":902105,"SoundDuration":902105,"Delta":636469340},{"NoteNumber":34,"Velocity":30,"Duration":902105,"SoundDuration":902105,"Delta":636469340},{"NoteNumber":41,"Velocity":30,"Duration":902105,"SoundDuration":902105,"Delta":636469340},{"NoteNumber":46,"Velocity":36,"Duration":902105,"SoundDuration":902105,"Delta":636469340},{"NoteNumber":55,"Velocity":30,"Duration":472688,"SoundDuration":472688,"Delta":637471679},{"NoteNumber":53,"Velocity":30,"Duration":472688,"SoundDuration":472688,"Delta":637471679},{"NoteNumber":59,"Velocity":30,"Duration":472688,"SoundDuration":472688,"Delta":637471679},{"NoteNumber":62,"Velocity":36,"Duration":472688,"SoundDuration":472688,"Delta":637471679},{"NoteNumber":31,"Velocity":27,"Duration":472688,"SoundDuration":472688,"Delta":637471679},{"NoteNumber":43,"Velocity":32,"Duration":472688,"SoundDuration":472688,"Delta":637471679},{"NoteNumber":55,"Velocity":33,"Duration":518134,"SoundDuration":518134,"Delta":637996889},{"NoteNumber":53,"Velocity":33,"Duration":518134,"SoundDuration":518134,"Delta":637996889},{"NoteNumber":59,"Velocity":33,"Duration":518134,"SoundDuration":518134,"Delta":637996889},{"NoteNumber":62,"Velocity":39,"Duration":518134,"SoundDuration":518134,"Delta":637996889},{"NoteNumber":31,"Velocity":31,"Duration":518134,"SoundDuration":518134,"Delta":637996889},{"NoteNumber":43,"Velocity":37,"Duration":518134,"SoundDuration":518134,"Delta":637996889},{"NoteNumber":62,"Velocity":45,"Duration":1151410,"SoundDuration":1151410,"Delta":638572594},{"NoteNumber":55,"Velocity":46,"Duration":1151410,"SoundDuration":1151410,"Delta":638572594},{"NoteNumber":51,"Velocity":38,"Duration":2302819,"SoundDuration":2302819,"Delta":638572594},{"NoteNumber":43,"Velocity":37,"Duration":2302819,"SoundDuration":2302819,"Delta":638572594},{"NoteNumber":36,"Velocity":37,"Duration":2302819,"SoundDuration":2302819,"Delta":638572594},{"NoteNumber":48,"Velocity":45,"Duration":2302819,"SoundDuration":2302819,"Delta":638572594},{"NoteNumber":55,"Velocity":38,"Duration":1151409,"SoundDuration":1151409,"Delta":639724004},{"NoteNumber":51,"Velocity":38,"Duration":2375539,"SoundDuration":2375539,"Delta":640875414},{"NoteNumber":57,"Velocity":38,"Duration":2375539,"SoundDuration":2375539,"Delta":640875414},{"NoteNumber":60,"Velocity":37,"Duration":560957,"SoundDuration":560957,"Delta":640875414},{"NoteNumber":29,"Velocity":35,"Duration":2375539,"SoundDuration":2375539,"Delta":640875414},{"NoteNumber":41,"Velocity":42,"Duration":2375539,"SoundDuration":2375539,"Delta":640875414},{"NoteNumber":59,"Velocity":33,"Duration":280478,"SoundDuration":280478,"Delta":641436372},{"NoteNumber":60,"Velocity":25,"Duration":280478,"SoundDuration":280478,"Delta":641716851},{"NoteNumber":59,"Velocity":32,"Duration":306622,"SoundDuration":306622,"Delta":641997329},{"NoteNumber":60,"Velocity":24,"Duration":306623,"SoundDuration":306623,"Delta":642303952},{"NoteNumber":62,"Velocity":37,"Duration":464115,"SoundDuration":464115,"Delta":642610575},{"NoteNumber":60,"Velocity":34,"Duration":176263,"SoundDuration":176263,"Delta":643074691},{"NoteNumber":50,"Velocity":25,"Duration":2430133,"SoundDuration":2430133,"Delta":643250954},{"NoteNumber":58,"Velocity":30,"Duration":2430133,"SoundDuration":2430133,"Delta":643250954},{"NoteNumber":34,"Velocity":27,"Duration":2430133,"SoundDuration":2430133,"Delta":643250954},{"NoteNumber":41,"Velocity":27,"Duration":2430133,"SoundDuration":2430133,"Delta":643250954},{"NoteNumber":46,"Velocity":32,"Duration":2430133,"SoundDuration":2430133,"Delta":643250954},{"NoteNumber":62,"Velocity":34,"Duration":902105,"SoundDuration":902105,"Delta":645681088},{"NoteNumber":70,"Velocity":34,"Duration":902105,"SoundDuration":902105,"Delta":645681088},{"NoteNumber":65,"Velocity":34,"Duration":902105,"SoundDuration":902105,"Delta":645681088},{"NoteNumber":74,"Velocity":40,"Duration":902105,"SoundDuration":902105,"Delta":645681088},{"NoteNumber":46,"Velocity":30,"Duration":902105,"SoundDuration":902105,"Delta":645681088},{"NoteNumber":53,"Velocity":30,"Duration":902105,"SoundDuration":902105,"Delta":645681088},{"NoteNumber":58,"Velocity":36,"Duration":902105,"SoundDuration":902105,"Delta":645681088},{"NoteNumber":67,"Velocity":30,"Duration":472688,"SoundDuration":472688,"Delta":646683427},{"NoteNumber":65,"Velocity":30,"Duration":472688,"SoundDuration":472688,"Delta":646683427},{"NoteNumber":71,"Velocity":30,"Duration":472688,"SoundDuration":472688,"Delta":646683427},{"NoteNumber":74,"Velocity":36,"Duration":472688,"SoundDuration":472688,"Delta":646683427},{"NoteNumber":43,"Velocity":27,"Duration":472688,"SoundDuration":472688,"Delta":646683427},{"NoteNumber":55,"Velocity":32,"Duration":472688,"SoundDuration":472688,"Delta":646683427},{"NoteNumber":67,"Velocity":33,"Duration":518134,"SoundDuration":518134,"Delta":647208637},{"NoteNumber":65,"Velocity":33,"Duration":518134,"SoundDuration":518134,"Delta":647208637},{"NoteNumber":71,"Velocity":33,"Duration":518134,"SoundDuration":518134,"Delta":647208637},{"NoteNumber":74,"Velocity":39,"Duration":518134,"SoundDuration":518134,"Delta":647208637},{"NoteNumber":43,"Velocity":31,"Duration":518134,"SoundDuration":518134,"Delta":647208637},{"NoteNumber":55,"Velocity":37,"Duration":518134,"SoundDuration":518134,"Delta":647208637},{"NoteNumber":74,"Velocity":45,"Duration":1151410,"SoundDuration":1151410,"Delta":647784342},{"NoteNumber":67,"Velocity":46,"Duration":1151410,"SoundDuration":1151410,"Delta":647784342},{"NoteNumber":63,"Velocity":38,"Duration":2302819,"SoundDuration":2302819,"Delta":647784342},{"NoteNumber":55,"Velocity":37,"Duration":2302819,"SoundDuration":2302819,"Delta":647784342},{"NoteNumber":48,"Velocity":37,"Duration":2302819,"SoundDuration":2302819,"Delta":647784342},{"NoteNumber":60,"Velocity":45,"Duration":2302819,"SoundDuration":2302819,"Delta":647784342},{"NoteNumber":67,"Velocity":38,"Duration":1151409,"SoundDuration":1151409,"Delta":648935752},{"NoteNumber":63,"Velocity":38,"Duration":2375539,"SoundDuration":2375539,"Delta":650087162},{"NoteNumber":69,"Velocity":38,"Duration":2375539,"SoundDuration":2375539,"Delta":650087162},{"NoteNumber":72,"Velocity":37,"Duration":560957,"SoundDuration":560957,"Delta":650087162},{"NoteNumber":41,"Velocity":35,"Duration":2375539,"SoundDuration":2375539,"Delta":650087162},{"NoteNumber":53,"Velocity":42,"Duration":2375539,"SoundDuration":2375539,"Delta":650087162},{"NoteNumber":71,"Velocity":37,"Duration":280478,"SoundDuration":280478,"Delta":650648120},{"NoteNumber":72,"Velocity":28,"Duration":280478,"SoundDuration":280478,"Delta":650928599},{"NoteNumber":71,"Velocity":36,"Duration":306622,"SoundDuration":306622,"Delta":651209077},{"NoteNumber":72,"Velocity":28,"Duration":306623,"SoundDuration":306623,"Delta":651515700},{"NoteNumber":74,"Velocity":37,"Duration":464115,"SoundDuration":464115,"Delta":651822323},{"NoteNumber":72,"Velocity":34,"Duration":176263,"SoundDuration":176263,"Delta":652286439},{"NoteNumber":62,"Velocity":25,"Duration":2430133,"SoundDuration":2430133,"Delta":652462702},{"NoteNumber":70,"Velocity":30,"Duration":2430133,"SoundDuration":2430133,"Delta":652462702},{"NoteNumber":46,"Velocity":27,"Duration":2430133,"SoundDuration":2430133,"Delta":652462702},{"NoteNumber":53,"Velocity":27,"Duration":2430133,"SoundDuration":2430133,"Delta":652462702},{"NoteNumber":58,"Velocity":32,"Duration":2430133,"SoundDuration":2430133,"Delta":652462702},{"NoteNumber":75,"Velocity":38,"Duration":2983073,"SoundDuration":2983073,"Delta":654892836},{"NoteNumber":81,"Velocity":38,"Duration":2983073,"SoundDuration":2983073,"Delta":654892836},{"NoteNumber":84,"Velocity":37,"Duration":2983073,"SoundDuration":2983073,"Delta":654892836},{"NoteNumber":53,"Velocity":35,"Duration":4902853,"SoundDuration":4902853,"Delta":654892836},{"NoteNumber":60,"Velocity":35,"Duration":4902853,"SoundDuration":4902853,"Delta":654892836},{"NoteNumber":63,"Velocity":35,"Duration":4902853,"SoundDuration":4902853,"Delta":654892836},{"NoteNumber":65,"Velocity":42,"Duration":6227941,"SoundDuration":6227941,"Delta":654892836},{"NoteNumber":83,"Velocity":37,"Duration":303766,"SoundDuration":303766,"Delta":657875910},{"NoteNumber":84,"Velocity":30,"Duration":303766,"SoundDuration":303766,"Delta":658179677},{"NoteNumber":83,"Velocity":37,"Duration":303766,"SoundDuration":303766,"Delta":658483443},{"NoteNumber":84,"Velocity":32,"Duration":313676,"SoundDuration":313676,"Delta":658787210},{"NoteNumber":87,"Velocity":43,"Duration":484778,"SoundDuration":484778,"Delta":659100886},{"NoteNumber":81,"Velocity":34,"Duration":210025,"SoundDuration":210025,"Delta":659585665},{"NoteNumber":74,"Velocity":25,"Duration":1325088,"SoundDuration":1325088,"Delta":659795690},{"NoteNumber":82,"Velocity":30,"Duration":1325088,"SoundDuration":1325088,"Delta":659795690},{"NoteNumber":62,"Velocity":25,"Duration":1325088,"SoundDuration":1325088,"Delta":659795690},{"NoteNumber":58,"Velocity":25,"Duration":1325088,"SoundDuration":1325088,"Delta":659795690},{"NoteNumber":62,"Velocity":25,"Duration":1325088,"SoundDuration":1325088,"Delta":662445866},{"NoteNumber":65,"Velocity":25,"Duration":1325088,"SoundDuration":1325088,"Delta":662445866},{"NoteNumber":70,"Velocity":25,"Duration":1325088,"SoundDuration":1325088,"Delta":662445866},{"NoteNumber":74,"Velocity":30,"Duration":1325088,"SoundDuration":1325088,"Delta":662445866},{"NoteNumber":46,"Velocity":25,"Duration":1325088,"SoundDuration":1325088,"Delta":662445866},{"NoteNumber":53,"Velocity":25,"Duration":1325088,"SoundDuration":1325088,"Delta":662445866},{"NoteNumber":58,"Velocity":25,"Duration":1325088,"SoundDuration":1325088,"Delta":662445866},{"NoteNumber":62,"Velocity":25,"Duration":5300351,"SoundDuration":5300351,"Delta":665096042},{"NoteNumber":65,"Velocity":25,"Duration":5300351,"SoundDuration":5300351,"Delta":665096042},{"NoteNumber":70,"Velocity":30,"Duration":5300351,"SoundDuration":5300351,"Delta":665096042},{"NoteNumber":46,"Velocity":20,"Duration":5300351,"SoundDuration":5300351,"Delta":665096042},{"NoteNumber":53,"Velocity":20,"Duration":5300351,"SoundDuration":5300351,"Delta":665096042},{"NoteNumber":58,"Velocity":25,"Duration":5300351,"SoundDuration":5300351,"Delta":665096042}],"license":{"name":"Creative Commons Attribution-ShareAlike 3.0 Germany","url":"http://creativecommons.org/licenses/by-sa/3.0/de/deed.en","text":"The MIDI, audio (MP3, OGG) and video files of Bernd Krueger are licensed under the cc-by-sa Germany License. This means that you can use and adapt the files, as long as you attribute the copyright holder.\n\nName: Bernd Krueger\nSource: http://www.piano-midi.de\n\nThe distribution or public playback of the files is only allowed under identical license conditions.\n\nThe scores are open source.","attribution":"MIDI files by Bernd Krueger (piano-midi.de)","attributionUrl":"http://www.piano-midi.de"}}