{"title":"Klaviersonate a-Moll, Opus 143 2. Satz","artist":"Schubert","durationMs":225240,"midiSha256":"e7c78b688bc8b1b6d66ace7cbc91cd080989f59c71b81f5c7a69bcc55b79a836","midiObject":[{"NoteNumber":57,"Velocity":50,"Duration":1700595,"SoundDuration":1700595,"Delta":0},{"NoteNumber":60,"Velocity":50,"Duration":1700595,"SoundDuration":1700595,"Delta":0},{"NoteNumber":41,"Velocity":41,"Duration":1700595,"SoundDuration":1700595,"Delta":0},{"NoteNumber":48,"Velocity":41,"Duration":1700595,"SoundDuration":1700595,"Delta":0},{"NoteNumber":65,"Velocity":42,"Duration":416666,"SoundDuration":416666,"Delta":1283929},{"NoteNumber":53,"Velocity":35,"Duration":416666,"SoundDuration":416666,"Delta":1283929},{"NoteNumber":69,"Velocity":50,"Duration":816327,"SoundDuration":816327,"Delta":1700596},{"NoteNumber":57,"Velocity":41,"Duration":816327,"SoundDuration":816327,"Delta":1700596},{"NoteNumber":74,"Velocity":54,"Duration":833333,"SoundDuration":833333,"Delta":2516923},{"NoteNumber":62,"Velocity":54,"Duration":833333,"SoundDuration":833333,"Delta":2516923},{"NoteNumber":72,"Velocity":50,"Duration":1273809,"SoundDuration":1273809,"Delta":3350256},{"NoteNumber":67,"Velocity":50,"Duration":1690475,"SoundDuration":1690475,"Delta":3350256},{"NoteNumber":60,"Velocity":50,"Duration":1273809,"SoundDuration":1273809,"Delta":3350256},{"NoteNumber":40,"Velocity":38,"Duration":1690475,"SoundDuration":1690475,"Delta":3350256},{"NoteNumber":48,"Velocity":38,"Duration":1690475,"SoundDuration":1690475,"Delta":3350256},{"NoteNumber":55,"Velocity":38,"Duration":1638392,"SoundDuration":1638392,"Delta":3350256},{"NoteNumber":58,"Velocity":45,"Duration":416666,"SoundDuration":416666,"Delta":4624065},{"NoteNumber":70,"Velocity":45,"Duration":416666,"SoundDuration":416666,"Delta":4624065},{"NoteNumber":55,"Velocity":50,"Duration":857142,"SoundDuration":857142,"Delta":5040732},{"NoteNumber":67,"Velocity":50,"Duration":857142,"SoundDuration":857142,"Delta":5040732},{"NoteNumber":69,"Velocity":45,"Duration":857142,"SoundDuration":857142,"Delta":5897875},{"NoteNumber":57,"Velocity":45,"Duration":857142,"SoundDuration":857142,"Delta":5897875},{"NoteNumber":65,"Velocity":45,"Duration":1655172,"SoundDuration":1655172,"Delta":6755018},{"NoteNumber":53,"Velocity":45,"Duration":1655172,"SoundDuration":1655172,"Delta":6755018},{"NoteNumber":57,"Velocity":45,"Duration":1655172,"SoundDuration":1655172,"Delta":6755018},{"NoteNumber":45,"Velocity":35,"Duration":1655172,"SoundDuration":1655172,"Delta":6755018},{"NoteNumber":50,"Velocity":35,"Duration":1655172,"SoundDuration":1655172,"Delta":6755018},{"NoteNumber":38,"Velocity":35,"Duration":1655172,"SoundDuration":1655172,"Delta":6755018},{"NoteNumber":67,"Velocity":37,"Duration":1655172,"SoundDuration":1655172,"Delta":8410190},{"NoteNumber":70,"Velocity":37,"Duration":1655172,"SoundDuration":1655172,"Delta":8410190},{"NoteNumber":60,"Velocity":37,"Duration":1655172,"SoundDuration":1655172,"Delta":8410190},{"NoteNumber":58,"Velocity":37,"Duration":1655172,"SoundDuration":1655172,"Delta":8410190},{"NoteNumber":40,"Velocity":31,"Duration":1655172,"SoundDuration":1655172,"Delta":8410190},{"NoteNumber":52,"Velocity":31,"Duration":1655172,"SoundDuration":1655172,"Delta":8410190},{"NoteNumber":48,"Velocity":31,"Duration":1655172,"SoundDuration":1655172,"Delta":8410190},{"NoteNumber":60,"Velocity":28,"Duration":428571,"SoundDuration":428571,"Delta":10065362},{"NoteNumber":57,"Velocity":28,"Duration":428571,"SoundDuration":428571,"Delta":10065362},{"NoteNumber":69,"Velocity":28,"Duration":428571,"SoundDuration":428571,"Delta":10065362},{"NoteNumber":65,"Velocity":28,"Duration":428571,"SoundDuration":428571,"Delta":10065362},{"NoteNumber":48,"Velocity":25,"Duration":428571,"SoundDuration":428571,"Delta":10065362},{"NoteNumber":53,"Velocity":25,"Duration":428571,"SoundDuration":428571,"Delta":10065362},{"NoteNumber":41,"Velocity":25,"Duration":428571,"SoundDuration":428571,"Delta":10065362},{"NoteNumber":60,"Velocity":21,"Duration":580645,"SoundDuration":580645,"Delta":10922505},{"NoteNumber":48,"Velocity":17,"Duration":580645,"SoundDuration":580645,"Delta":10922505},{"NoteNumber":61,"Velocity":18,"Duration":96774,"SoundDuration":96774,"Delta":11503150},{"NoteNumber":49,"Velocity":15,"Duration":96774,"SoundDuration":96774,"Delta":11503150},{"NoteNumber":60,"Velocity":18,"Duration":96774,"SoundDuration":96774,"Delta":11599924},{"NoteNumber":48,"Velocity":16,"Duration":96774,"SoundDuration":96774,"Delta":11599924},{"NoteNumber":59,"Velocity":25,"Duration":580645,"SoundDuration":580645,"Delta":11696699},{"NoteNumber":47,"Velocity":20,"Duration":580645,"SoundDuration":580645,"Delta":11696699},{"NoteNumber":60,"Velocity":18,"Duration":96774,"SoundDuration":96774,"Delta":12277344},{"NoteNumber":48,"Velocity":16,"Duration":96774,"SoundDuration":96774,"Delta":12277344},{"NoteNumber":61,"Velocity":18,"Duration":96774,"SoundDuration":96774,"Delta":12374118},{"NoteNumber":49,"Velocity":16,"Duration":96774,"SoundDuration":96774,"Delta":12374118},{"NoteNumber":60,"Velocity":21,"Duration":193548,"SoundDuration":193548,"Delta":12470893},{"NoteNumber":48,"Velocity":18,"Duration":193548,"SoundDuration":193548,"Delta":12470893},{"NoteNumber":57,"Velocity":46,"Duration":1661457,"SoundDuration":1661457,"Delta":13316005},{"NoteNumber":60,"Velocity":46,"Duration":1666665,"SoundDuration":1666665,"Delta":13316005},{"NoteNumber":41,"Velocity":38,"Duration":1666665,"SoundDuration":1666665,"Delta":13316005},{"NoteNumber":48,"Velocity":38,"Duration":1666665,"SoundDuration":1666665,"Delta":13316005},{"NoteNumber":65,"Velocity":46,"Duration":416666,"SoundDuration":416666,"Delta":14566005},{"NoteNumber":53,"Velocity":38,"Duration":416666,"SoundDuration":416666,"Delta":14566005},{"NoteNumber":69,"Velocity":50,"Duration":816326,"SoundDuration":816326,"Delta":14982671},{"NoteNumber":57,"Velocity":41,"Duration":816326,"SoundDuration":816326,"Delta":14982671},{"NoteNumber":74,"Velocity":61,"Duration":833333,"SoundDuration":833333,"Delta":15798998},{"NoteNumber":69,"Velocity":61,"Duration":833333,"SoundDuration":833333,"Delta":15798998},{"NoteNumber":62,"Velocity":61,"Duration":833333,"SoundDuration":833333,"Delta":15798998},{"NoteNumber":41,"Velocity":40,"Duration":833333,"SoundDuration":833333,"Delta":15798998},{"NoteNumber":50,"Velocity":40,"Duration":833333,"SoundDuration":833333,"Delta":15798998},{"NoteNumber":57,"Velocity":40,"Duration":833333,"SoundDuration":833333,"Delta":15798998},{"NoteNumber":74,"Velocity":60,"Duration":1666747,"SoundDuration":1666747,"Delta":16632331},{"NoteNumber":69,"Velocity":60,"Duration":1666747,"SoundDuration":1666747,"Delta":16632331},{"NoteNumber":62,"Velocity":60,"Duration":1666747,"SoundDuration":1666747,"Delta":16632331},{"NoteNumber":41,"Velocity":42,"Duration":1666747,"SoundDuration":1666747,"Delta":16632331},{"NoteNumber":50,"Velocity":42,"Duration":1666747,"SoundDuration":1666747,"Delta":16632331},{"NoteNumber":57,"Velocity":42,"Duration":1666747,"SoundDuration":1666747,"Delta":16632331},{"NoteNumber":65,"Velocity":65,"Duration":413793,"SoundDuration":413793,"Delta":17885285},{"NoteNumber":77,"Velocity":65,"Duration":413793,"SoundDuration":413793,"Delta":17885285},{"NoteNumber":81,"Velocity":69,"Duration":810811,"SoundDuration":810811,"Delta":18299078},{"NoteNumber":69,"Velocity":69,"Duration":810811,"SoundDuration":810811,"Delta":18299078},{"NoteNumber":70,"Velocity":74,"Duration":845069,"SoundDuration":845069,"Delta":19109889},{"NoteNumber":73,"Velocity":74,"Duration":845069,"SoundDuration":845069,"Delta":19109889},{"NoteNumber":82,"Velocity":74,"Duration":845069,"SoundDuration":845069,"Delta":19109889},{"NoteNumber":67,"Velocity":58,"Duration":845069,"SoundDuration":845069,"Delta":19109889},{"NoteNumber":57,"Velocity":58,"Duration":845069,"SoundDuration":845069,"Delta":19109889},{"NoteNumber":64,"Velocity":58,"Duration":845069,"SoundDuration":845069,"Delta":19109889},{"NoteNumber":73,"Velocity":71,"Duration":1726617,"SoundDuration":1726617,"Delta":19954959},{"NoteNumber":82,"Velocity":71,"Duration":1726617,"SoundDuration":1726617,"Delta":19954959},{"NoteNumber":70,"Velocity":71,"Duration":1726617,"SoundDuration":1726617,"Delta":19954959},{"NoteNumber":64,"Velocity":53,"Duration":1726617,"SoundDuration":1726617,"Delta":19954959},{"NoteNumber":57,"Velocity":53,"Duration":1726617,"SoundDuration":1726617,"Delta":19954959},{"NoteNumber":67,"Velocity":53,"Duration":1726617,"SoundDuration":1726617,"Delta":19954959},{"NoteNumber":81,"Velocity":52,"Duration":857143,"SoundDuration":857143,"Delta":21681577},{"NoteNumber":69,"Velocity":52,"Duration":857143,"SoundDuration":857143,"Delta":21681577},{"NoteNumber":72,"Velocity":52,"Duration":857143,"SoundDuration":857143,"Delta":21681577},{"NoteNumber":57,"Velocity":41,"Duration":857143,"SoundDuration":857143,"Delta":21681577},{"NoteNumber":65,"Velocity":41,"Duration":857143,"SoundDuration":857143,"Delta":21681577},{"NoteNumber":79,"Velocity":46,"Duration":857143,"SoundDuration":857143,"Delta":22538720},{"NoteNumber":72,"Velocity":46,"Duration":1285714,"SoundDuration":1285714,"Delta":22538720},{"NoteNumber":70,"Velocity":46,"Duration":857143,"SoundDuration":857143,"Delta":22538720},{"NoteNumber":64,"Velocity":35,"Duration":857143,"SoundDuration":857143,"Delta":22538720},{"NoteNumber":60,"Velocity":35,"Duration":1285714,"SoundDuration":1285714,"Delta":22538720},{"NoteNumber":69,"Velocity":42,"Duration":428571,"SoundDuration":428571,"Delta":23395863},{"NoteNumber":77,"Velocity":42,"Duration":428571,"SoundDuration":428571,"Delta":23395863},{"NoteNumber":65,"Velocity":31,"Duration":428571,"SoundDuration":428571,"Delta":23395863},{"NoteNumber":53,"Velocity":31,"Duration":428571,"SoundDuration":428571,"Delta":23395863},{"NoteNumber":60,"Velocity":21,"Duration":580645,"SoundDuration":580645,"Delta":24253006},{"NoteNumber":48,"Velocity":17,"Duration":580645,"SoundDuration":580645,"Delta":24253006},{"NoteNumber":61,"Velocity":18,"Duration":96774,"SoundDuration":96774,"Delta":24833652},{"NoteNumber":49,"Velocity":15,"Duration":96774,"SoundDuration":96774,"Delta":24833652},{"NoteNumber":60,"Velocity":18,"Duration":96774,"SoundDuration":96774,"Delta":24930426},{"NoteNumber":48,"Velocity":16,"Duration":96774,"SoundDuration":96774,"Delta":24930426},{"NoteNumber":59,"Velocity":25,"Duration":580645,"SoundDuration":580645,"Delta":25027200},{"NoteNumber":47,"Velocity":20,"Duration":580645,"SoundDuration":580645,"Delta":25027200},{"NoteNumber":60,"Velocity":18,"Duration":94936,"SoundDuration":94936,"Delta":25607846},{"NoteNumber":48,"Velocity":16,"Duration":94936,"SoundDuration":94936,"Delta":25607846},{"NoteNumber":61,"Velocity":18,"Duration":94936,"SoundDuration":94936,"Delta":25702782},{"NoteNumber":49,"Velocity":16,"Duration":94936,"SoundDuration":94936,"Delta":25702782},{"NoteNumber":60,"Velocity":21,"Duration":193548,"SoundDuration":193548,"Delta":25797719},{"NoteNumber":48,"Velocity":18,"Duration":193548,"SoundDuration":193548,"Delta":25797719},{"NoteNumber":55,"Velocity":46,"Duration":1708928,"SoundDuration":1708928,"Delta":26639362},{"NoteNumber":60,"Velocity":46,"Duration":1285714,"SoundDuration":1285714,"Delta":26639362},{"NoteNumber":48,"Velocity":38,"Duration":1714286,"SoundDuration":1714286,"Delta":26639362},{"NoteNumber":40,"Velocity":38,"Duration":1714286,"SoundDuration":1714286,"Delta":26639362},{"NoteNumber":64,"Velocity":46,"Duration":428571,"SoundDuration":428571,"Delta":27925076},{"NoteNumber":52,"Velocity":38,"Duration":428571,"SoundDuration":428571,"Delta":27925076},{"NoteNumber":67,"Velocity":50,"Duration":816327,"SoundDuration":816327,"Delta":28353648},{"NoteNumber":55,"Velocity":41,"Duration":816327,"SoundDuration":816327,"Delta":28353648},{"NoteNumber":58,"Velocity":61,"Duration":833332,"SoundDuration":833332,"Delta":29169975},{"NoteNumber":61,"Velocity":61,"Duration":833332,"SoundDuration":833332,"Delta":29169975},{"NoteNumber":70,"Velocity":61,"Duration":833332,"SoundDuration":833332,"Delta":29169975},{"NoteNumber":40,"Velocity":44,"Duration":833332,"SoundDuration":833332,"Delta":29169975},{"NoteNumber":49,"Velocity":44,"Duration":833332,"SoundDuration":833332,"Delta":29169975},{"NoteNumber":55,"Velocity":44,"Duration":833332,"SoundDuration":833332,"Delta":29169975},{"NoteNumber":58,"Velocity":56,"Duration":1644557,"SoundDuration":1644557,"Delta":30003308},{"NoteNumber":62,"Velocity":56,"Duration":1649660,"SoundDuration":1649660,"Delta":30003308},{"NoteNumber":41,"Velocity":42,"Duration":1649660,"SoundDuration":1649660,"Delta":30003308},{"NoteNumber":50,"Velocity":42,"Duration":1241496,"SoundDuration":1241496,"Delta":30003308},{"NoteNumber":65,"Velocity":56,"Duration":408163,"SoundDuration":408163,"Delta":31244804},{"NoteNumber":53,"Velocity":44,"Duration":408163,"SoundDuration":408163,"Delta":31244804},{"NoteNumber":70,"Velocity":71,"Duration":794702,"SoundDuration":794702,"Delta":31652968},{"NoteNumber":58,"Velocity":51,"Duration":794702,"SoundDuration":794702,"Delta":31652968},{"NoteNumber":70,"Velocity":73,"Duration":839160,"SoundDuration":839160,"Delta":32447670},{"NoteNumber":74,"Velocity":73,"Duration":839160,"SoundDuration":839160,"Delta":32447670},{"NoteNumber":65,"Velocity":73,"Duration":839160,"SoundDuration":839160,"Delta":32447670},{"NoteNumber":62,"Velocity":73,"Duration":839160,"SoundDuration":839160,"Delta":32447670},{"NoteNumber":50,"Velocity":58,"Duration":839160,"SoundDuration":839160,"Delta":32447670},{"NoteNumber":58,"Velocity":58,"Duration":839160,"SoundDuration":839160,"Delta":32447670},{"NoteNumber":63,"Velocity":77,"Duration":1580657,"SoundDuration":1580657,"Delta":33286831},{"NoteNumber":66,"Velocity":77,"Duration":1580657,"SoundDuration":1580657,"Delta":33286831},{"NoteNumber":75,"Velocity":77,"Duration":1580657,"SoundDuration":1580657,"Delta":33286831},{"NoteNumber":50,"Velocity":62,"Duration":2386026,"SoundDuration":2386026,"Delta":33286831},{"NoteNumber":60,"Velocity":62,"Duration":1580657,"SoundDuration":1580657,"Delta":33286831},{"NoteNumber":57,"Velocity":62,"Duration":1580657,"SoundDuration":1580657,"Delta":33286831},{"NoteNumber":74,"Velocity":70,"Duration":805368,"SoundDuration":805368,"Delta":34867489},{"NoteNumber":65,"Velocity":70,"Duration":805368,"SoundDuration":805368,"Delta":34867489},{"NoteNumber":62,"Velocity":70,"Duration":805368,"SoundDuration":805368,"Delta":34867489},{"NoteNumber":58,"Velocity":55,"Duration":805368,"SoundDuration":805368,"Delta":34867489},{"NoteNumber":60,"Velocity":71,"Duration":821917,"SoundDuration":821917,"Delta":35672858},{"NoteNumber":65,"Velocity":71,"Duration":821917,"SoundDuration":821917,"Delta":35672858},{"NoteNumber":72,"Velocity":71,"Duration":821917,"SoundDuration":821917,"Delta":35672858},{"NoteNumber":45,"Velocity":54,"Duration":821917,"SoundDuration":821917,"Delta":35672858},{"NoteNumber":57,"Velocity":54,"Duration":821917,"SoundDuration":821917,"Delta":35672858},{"NoteNumber":61,"Velocity":77,"Duration":1611391,"SoundDuration":1611391,"Delta":36494776},{"NoteNumber":64,"Velocity":77,"Duration":1611391,"SoundDuration":1611391,"Delta":36494776},{"NoteNumber":73,"Velocity":77,"Duration":1611391,"SoundDuration":1611391,"Delta":36494776},{"NoteNumber":55,"Velocity":58,"Duration":1611391,"SoundDuration":1611391,"Delta":36494776},{"NoteNumber":58,"Velocity":58,"Duration":1611391,"SoundDuration":1611391,"Delta":36494776},{"NoteNumber":45,"Velocity":58,"Duration":2468534,"SoundDuration":2468534,"Delta":36494776},{"NoteNumber":72,"Velocity":67,"Duration":857143,"SoundDuration":857143,"Delta":38106167},{"NoteNumber":65,"Velocity":67,"Duration":857143,"SoundDuration":857143,"Delta":38106167},{"NoteNumber":60,"Velocity":67,"Duration":857143,"SoundDuration":857143,"Delta":38106167},{"NoteNumber":57,"Velocity":47,"Duration":853571,"SoundDuration":853571,"Delta":38106167},{"NoteNumber":57,"Velocity":51,"Duration":857143,"SoundDuration":857143,"Delta":38963310},{"NoteNumber":69,"Velocity":51,"Duration":857143,"SoundDuration":857143,"Delta":38963310},{"NoteNumber":65,"Velocity":51,"Duration":857143,"SoundDuration":857143,"Delta":38963310},{"NoteNumber":53,"Velocity":33,"Duration":857143,"SoundDuration":857143,"Delta":38963310},{"NoteNumber":48,"Velocity":33,"Duration":857143,"SoundDuration":857143,"Delta":38963310},{"NoteNumber":41,"Velocity":33,"Duration":857143,"SoundDuration":857143,"Delta":38963310},{"NoteNumber":60,"Velocity":50,"Duration":1273809,"SoundDuration":1273809,"Delta":39820453},{"NoteNumber":72,"Velocity":50,"Duration":1273809,"SoundDuration":1273809,"Delta":39820453},{"NoteNumber":67,"Velocity":50,"Duration":1690476,"SoundDuration":1690476,"Delta":39820453},{"NoteNumber":40,"Velocity":38,"Duration":1690476,"SoundDuration":1690476,"Delta":39820453},{"NoteNumber":48,"Velocity":38,"Duration":1690476,"SoundDuration":1690476,"Delta":39820453},{"NoteNumber":55,"Velocity":38,"Duration":1638392,"SoundDuration":1638392,"Delta":39820453},{"NoteNumber":58,"Velocity":45,"Duration":416666,"SoundDuration":416666,"Delta":41094263},{"NoteNumber":70,"Velocity":45,"Duration":416666,"SoundDuration":416666,"Delta":41094263},{"NoteNumber":55,"Velocity":50,"Duration":857143,"SoundDuration":857143,"Delta":41510930},{"NoteNumber":67,"Velocity":50,"Duration":857143,"SoundDuration":857143,"Delta":41510930},{"NoteNumber":69,"Velocity":45,"Duration":857143,"SoundDuration":857143,"Delta":42368073},{"NoteNumber":57,"Velocity":45,"Duration":857143,"SoundDuration":857143,"Delta":42368073},{"NoteNumber":65,"Velocity":45,"Duration":1655172,"SoundDuration":1655172,"Delta":43225216},{"NoteNumber":53,"Velocity":45,"Duration":1655172,"SoundDuration":1655172,"Delta":43225216},{"NoteNumber":57,"Velocity":45,"Duration":1655172,"SoundDuration":1655172,"Delta":43225216},{"NoteNumber":45,"Velocity":35,"Duration":1655172,"SoundDuration":1655172,"Delta":43225216},{"NoteNumber":50,"Velocity":35,"Duration":1655172,"SoundDuration":1655172,"Delta":43225216},{"NoteNumber":38,"Velocity":35,"Duration":1655172,"SoundDuration":1655172,"Delta":43225216},{"NoteNumber":67,"Velocity":39,"Duration":1655172,"SoundDuration":1655172,"Delta":44880388},{"NoteNumber":58,"Velocity":39,"Duration":1655172,"SoundDuration":1655172,"Delta":44880388},{"NoteNumber":64,"Velocity":39,"Duration":1655172,"SoundDuration":1655172,"Delta":44880388},{"NoteNumber":36,"Velocity":33,"Duration":1655172,"SoundDuration":1655172,"Delta":44880388},{"NoteNumber":48,"Velocity":33,"Duration":2083743,"SoundDuration":2083743,"Delta":44880388},{"NoteNumber":69,"Velocity":32,"Duration":428571,"SoundDuration":428571,"Delta":46535560},{"NoteNumber":57,"Velocity":32,"Duration":428571,"SoundDuration":428571,"Delta":46535560},{"NoteNumber":65,"Velocity":32,"Duration":428571,"SoundDuration":428571,"Delta":46535560},{"NoteNumber":41,"Velocity":26,"Duration":428571,"SoundDuration":428571,"Delta":46535560},{"NoteNumber":60,"Velocity":21,"Duration":580645,"SoundDuration":580645,"Delta":47392703},{"NoteNumber":48,"Velocity":17,"Duration":580645,"SoundDuration":580645,"Delta":47392703},{"NoteNumber":61,"Velocity":18,"Duration":96774,"SoundDuration":96774,"Delta":47973348},{"NoteNumber":49,"Velocity":15,"Duration":96774,"SoundDuration":96774,"Delta":47973348},{"NoteNumber":60,"Velocity":18,"Duration":96774,"SoundDuration":96774,"Delta":48070122},{"NoteNumber":48,"Velocity":16,"Duration":96774,"SoundDuration":96774,"Delta":48070122},{"NoteNumber":59,"Velocity":25,"Duration":580645,"SoundDuration":580645,"Delta":48166897},{"NoteNumber":47,"Velocity":20,"Duration":580645,"SoundDuration":580645,"Delta":48166897},{"NoteNumber":60,"Velocity":18,"Duration":96774,"SoundDuration":96774,"Delta":48747542},{"NoteNumber":48,"Velocity":16,"Duration":96774,"SoundDuration":96774,"Delta":48747542},{"NoteNumber":61,"Velocity":18,"Duration":96774,"SoundDuration":96774,"Delta":48844316},{"NoteNumber":49,"Velocity":16,"Duration":96774,"SoundDuration":96774,"Delta":48844316},{"NoteNumber":60,"Velocity":21,"Duration":193548,"SoundDuration":193548,"Delta":48941091},{"NoteNumber":48,"Velocity":18,"Duration":193548,"SoundDuration":193548,"Delta":48941091},{"NoteNumber":72,"Velocity":50,"Duration":1244252,"SoundDuration":1244252,"Delta":49786203},{"NoteNumber":84,"Velocity":50,"Duration":1244252,"SoundDuration":1244252,"Delta":49786203},{"NoteNumber":79,"Velocity":50,"Duration":1660918,"SoundDuration":1660918,"Delta":49786203},{"NoteNumber":60,"Velocity":38,"Duration":1660918,"SoundDuration":1660918,"Delta":49786203},{"NoteNumber":67,"Velocity":38,"Duration":1608835,"SoundDuration":1608835,"Delta":49786203},{"NoteNumber":52,"Velocity":38,"Duration":1660918,"SoundDuration":1660918,"Delta":49786203},{"NoteNumber":70,"Velocity":45,"Duration":416666,"SoundDuration":416666,"Delta":51030456},{"NoteNumber":82,"Velocity":45,"Duration":416666,"SoundDuration":416666,"Delta":51030456},{"NoteNumber":67,"Velocity":50,"Duration":857143,"SoundDuration":857143,"Delta":51447122},{"NoteNumber":79,"Velocity":50,"Duration":857143,"SoundDuration":857143,"Delta":51447122},{"NoteNumber":81,"Velocity":45,"Duration":839160,"SoundDuration":839160,"Delta":52304265},{"NoteNumber":69,"Velocity":45,"Duration":839160,"SoundDuration":839160,"Delta":52304265},{"NoteNumber":77,"Velocity":45,"Duration":1621622,"SoundDuration":1621622,"Delta":53143426},{"NoteNumber":65,"Velocity":45,"Duration":1621622,"SoundDuration":1621622,"Delta":53143426},{"NoteNumber":69,"Velocity":45,"Duration":1621622,"SoundDuration":1621622,"Delta":53143426},{"NoteNumber":57,"Velocity":35,"Duration":1621622,"SoundDuration":1621622,"Delta":53143426},{"NoteNumber":62,"Velocity":35,"Duration":1621622,"SoundDuration":1621622,"Delta":53143426},{"NoteNumber":50,"Velocity":35,"Duration":1621622,"SoundDuration":1621622,"Delta":53143426},{"NoteNumber":79,"Velocity":39,"Duration":1655172,"SoundDuration":1655172,"Delta":54765048},{"NoteNumber":67,"Velocity":39,"Duration":1655172,"SoundDuration":1655172,"Delta":54765048},{"NoteNumber":76,"Velocity":39,"Duration":1655172,"SoundDuration":1655172,"Delta":54765048},{"NoteNumber":48,"Velocity":33,"Duration":1655172,"SoundDuration":1655172,"Delta":54765048},{"NoteNumber":60,"Velocity":33,"Duration":2083743,"SoundDuration":2083743,"Delta":54765048},{"NoteNumber":58,"Velocity":33,"Duration":1655172,"SoundDuration":1655172,"Delta":54765048},{"NoteNumber":65,"Velocity":32,"Duration":428571,"SoundDuration":428571,"Delta":56420220},{"NoteNumber":77,"Velocity":32,"Duration":428571,"SoundDuration":428571,"Delta":56420220},{"NoteNumber":57,"Velocity":26,"Duration":428571,"SoundDuration":428571,"Delta":56420220},{"NoteNumber":53,"Velocity":26,"Duration":428571,"SoundDuration":428571,"Delta":56420220},{"NoteNumber":72,"Velocity":21,"Duration":569620,"SoundDuration":569620,"Delta":57277363},{"NoteNumber":60,"Velocity":17,"Duration":569620,"SoundDuration":569620,"Delta":57277363},{"NoteNumber":73,"Velocity":18,"Duration":94936,"SoundDuration":94936,"Delta":57846984},{"NoteNumber":61,"Velocity":15,"Duration":94936,"SoundDuration":94936,"Delta":57846984},{"NoteNumber":72,"Velocity":18,"Duration":94936,"SoundDuration":94936,"Delta":57941920},{"NoteNumber":60,"Velocity":16,"Duration":94936,"SoundDuration":94936,"Delta":57941920},{"NoteNumber":71,"Velocity":25,"Duration":569620,"SoundDuration":569620,"Delta":58036857},{"NoteNumber":59,"Velocity":20,"Duration":569620,"SoundDuration":569620,"Delta":58036857},{"NoteNumber":72,"Velocity":18,"Duration":94936,"SoundDuration":94936,"Delta":58606478},{"NoteNumber":60,"Velocity":16,"Duration":94936,"SoundDuration":94936,"Delta":58606478},{"NoteNumber":73,"Velocity":18,"Duration":94936,"SoundDuration":94936,"Delta":58701414},{"NoteNumber":61,"Velocity":16,"Duration":94936,"SoundDuration":94936,"Delta":58701414},{"NoteNumber":72,"Velocity":21,"Duration":189873,"SoundDuration":189873,"Delta":58796351},{"NoteNumber":60,"Velocity":18,"Duration":189873,"SoundDuration":189873,"Delta":58796351},{"NoteNumber":65,"Velocity":40,"Duration":569620,"SoundDuration":569620,"Delta":60443703},{"NoteNumber":53,"Velocity":33,"Duration":569620,"SoundDuration":569620,"Delta":60443703},{"NoteNumber":66,"Velocity":34,"Duration":94936,"SoundDuration":94936,"Delta":61013324},{"NoteNumber":54,"Velocity":28,"Duration":94936,"SoundDuration":94936,"Delta":61013324},{"NoteNumber":65,"Velocity":34,"Duration":94936,"SoundDuration":94936,"Delta":61108260},{"NoteNumber":53,"Velocity":30,"Duration":94936,"SoundDuration":94936,"Delta":61108260},{"NoteNumber":64,"Velocity":48,"Duration":569620,"SoundDuration":569620,"Delta":61203197},{"NoteNumber":52,"Velocity":39,"Duration":569620,"SoundDuration":569620,"Delta":61203197},{"NoteNumber":65,"Velocity":38,"Duration":94936,"SoundDuration":94936,"Delta":61772818},{"NoteNumber":53,"Velocity":35,"Duration":94936,"SoundDuration":94936,"Delta":61772818},{"NoteNumber":66,"Velocity":39,"Duration":94936,"SoundDuration":94936,"Delta":61867754},{"NoteNumber":54,"Velocity":38,"Duration":94936,"SoundDuration":94936,"Delta":61867754},{"NoteNumber":65,"Velocity":51,"Duration":569620,"SoundDuration":569620,"Delta":61962691},{"NoteNumber":53,"Velocity":43,"Duration":569620,"SoundDuration":569620,"Delta":61962691},{"NoteNumber":63,"Velocity":45,"Duration":94936,"SoundDuration":94936,"Delta":62532312},{"NoteNumber":51,"Velocity":41,"Duration":94936,"SoundDuration":94936,"Delta":62532312},{"NoteNumber":61,"Velocity":52,"Duration":94936,"SoundDuration":94936,"Delta":62627248},{"NoteNumber":49,"Velocity":46,"Duration":94936,"SoundDuration":94936,"Delta":62627248},{"NoteNumber":60,"Velocity":63,"Duration":569620,"SoundDuration":569620,"Delta":62722185},{"NoteNumber":48,"Velocity":55,"Duration":569620,"SoundDuration":569620,"Delta":62722185},{"NoteNumber":61,"Velocity":53,"Duration":94936,"SoundDuration":94936,"Delta":63291806},{"NoteNumber":49,"Velocity":40,"Duration":94936,"SoundDuration":94936,"Delta":63291806},{"NoteNumber":63,"Velocity":55,"Duration":94936,"SoundDuration":94936,"Delta":63386742},{"NoteNumber":51,"Velocity":41,"Duration":94936,"SoundDuration":94936,"Delta":63386742},{"NoteNumber":61,"Velocity":71,"Duration":569620,"SoundDuration":569620,"Delta":63481679},{"NoteNumber":49,"Velocity":58,"Duration":569620,"SoundDuration":569620,"Delta":63481679},{"NoteNumber":60,"Velocity":59,"Duration":94936,"SoundDuration":94936,"Delta":64051300},{"NoteNumber":48,"Velocity":58,"Duration":94936,"SoundDuration":94936,"Delta":64051300},{"NoteNumber":58,"Velocity":67,"Duration":94936,"SoundDuration":94936,"Delta":64146236},{"NoteNumber":46,"Velocity":58,"Duration":94936,"SoundDuration":94936,"Delta":64146236},{"NoteNumber":57,"Velocity":75,"Duration":575787,"SoundDuration":575787,"Delta":64241173},{"NoteNumber":45,"Velocity":68,"Duration":575787,"SoundDuration":575787,"Delta":64241173},{"NoteNumber":58,"Velocity":71,"Duration":98684,"SoundDuration":98684,"Delta":64816961},{"NoteNumber":46,"Velocity":63,"Duration":98684,"SoundDuration":98684,"Delta":64816961},{"NoteNumber":60,"Velocity":71,"Duration":99119,"SoundDuration":99119,"Delta":64915645},{"NoteNumber":48,"Velocity":63,"Duration":99119,"SoundDuration":99119,"Delta":64915645},{"NoteNumber":58,"Velocity":87,"Duration":648770,"SoundDuration":648770,"Delta":65014765},{"NoteNumber":46,"Velocity":76,"Duration":648770,"SoundDuration":648770,"Delta":65014765},{"NoteNumber":56,"Velocity":76,"Duration":147058,"SoundDuration":147058,"Delta":65663535},{"NoteNumber":44,"Velocity":66,"Duration":147058,"SoundDuration":147058,"Delta":65663535},{"NoteNumber":54,"Velocity":86,"Duration":200000,"SoundDuration":200000,"Delta":65810594},{"NoteNumber":42,"Velocity":73,"Duration":200000,"SoundDuration":200000,"Delta":65810594},{"NoteNumber":53,"Velocity":69,"Duration":1714286,"SoundDuration":1714286,"Delta":66010594},{"NoteNumber":56,"Velocity":82,"Duration":1714286,"SoundDuration":1714286,"Delta":66010594},{"NoteNumber":61,"Velocity":82,"Duration":1714286,"SoundDuration":1714286,"Delta":66010594},{"NoteNumber":44,"Velocity":63,"Duration":1714286,"SoundDuration":1714286,"Delta":66010594},{"NoteNumber":49,"Velocity":63,"Duration":1714286,"SoundDuration":1714286,"Delta":66010594},{"NoteNumber":41,"Velocity":53,"Duration":1714286,"SoundDuration":1714286,"Delta":66010594},{"NoteNumber":53,"Velocity":61,"Duration":305343,"SoundDuration":305343,"Delta":67724880},{"NoteNumber":61,"Velocity":72,"Duration":305343,"SoundDuration":305343,"Delta":67724880},{"NoteNumber":56,"Velocity":72,"Duration":305343,"SoundDuration":305343,"Delta":67724880},{"NoteNumber":37,"Velocity":63,"Duration":1798249,"SoundDuration":1798249,"Delta":67724880},{"NoteNumber":61,"Velocity":65,"Duration":294117,"SoundDuration":294117,"Delta":68030223},{"NoteNumber":56,"Velocity":55,"Duration":294117,"SoundDuration":294117,"Delta":68030223},{"NoteNumber":65,"Velocity":65,"Duration":294117,"SoundDuration":294117,"Delta":68030223},{"NoteNumber":61,"Velocity":66,"Duration":220588,"SoundDuration":220588,"Delta":68324341},{"NoteNumber":56,"Velocity":56,"Duration":220588,"SoundDuration":220588,"Delta":68324341},{"NoteNumber":65,"Velocity":66,"Duration":220588,"SoundDuration":220588,"Delta":68324341},{"NoteNumber":65,"Velocity":69,"Duration":303030,"SoundDuration":303030,"Delta":68618459},{"NoteNumber":61,"Velocity":58,"Duration":303030,"SoundDuration":303030,"Delta":68618459},{"NoteNumber":68,"Velocity":69,"Duration":303030,"SoundDuration":303030,"Delta":68618459},{"NoteNumber":68,"Velocity":61,"Duration":296296,"SoundDuration":296296,"Delta":68921489},{"NoteNumber":65,"Velocity":51,"Duration":296296,"SoundDuration":296296,"Delta":68921489},{"NoteNumber":73,"Velocity":61,"Duration":296296,"SoundDuration":296296,"Delta":68921489},{"NoteNumber":68,"Velocity":62,"Duration":229007,"SoundDuration":229007,"Delta":69217785},{"NoteNumber":65,"Velocity":52,"Duration":229007,"SoundDuration":229007,"Delta":69217785},{"NoteNumber":73,"Velocity":62,"Duration":229007,"SoundDuration":229007,"Delta":69217785},{"NoteNumber":68,"Velocity":69,"Duration":1812543,"SoundDuration":1812543,"Delta":69523129},{"NoteNumber":63,"Velocity":58,"Duration":1812543,"SoundDuration":1812543,"Delta":69523129},{"NoteNumber":73,"Velocity":69,"Duration":906847,"SoundDuration":906847,"Delta":69523129},{"NoteNumber":32,"Velocity":63,"Duration":305343,"SoundDuration":305343,"Delta":69523129},{"NoteNumber":39,"Velocity":55,"Duration":300752,"SoundDuration":300752,"Delta":69828473},{"NoteNumber":39,"Velocity":55,"Duration":225563,"SoundDuration":225563,"Delta":70129225},{"NoteNumber":72,"Velocity":62,"Duration":905695,"SoundDuration":905695,"Delta":70429977},{"NoteNumber":39,"Velocity":61,"Duration":294117,"SoundDuration":294117,"Delta":70429977},{"NoteNumber":44,"Velocity":55,"Duration":294117,"SoundDuration":294117,"Delta":70724094},{"NoteNumber":44,"Velocity":55,"Duration":238095,"SoundDuration":238095,"Delta":71018212},{"NoteNumber":53,"Velocity":68,"Duration":305343,"SoundDuration":305343,"Delta":71335672},{"NoteNumber":58,"Velocity":68,"Duration":305343,"SoundDuration":305343,"Delta":71335672},{"NoteNumber":61,"Velocity":68,"Duration":305343,"SoundDuration":305343,"Delta":71335672},{"NoteNumber":46,"Velocity":60,"Duration":1798249,"SoundDuration":1798249,"Delta":71335672},{"NoteNumber":58,"Velocity":60,"Duration":294117,"SoundDuration":294117,"Delta":71641016},{"NoteNumber":65,"Velocity":60,"Duration":294117,"SoundDuration":294117,"Delta":71641016},{"NoteNumber":61,"Velocity":60,"Duration":294117,"SoundDuration":294117,"Delta":71641016},{"NoteNumber":61,"Velocity":60,"Duration":220588,"SoundDuration":220588,"Delta":71935134},{"NoteNumber":65,"Velocity":60,"Duration":220588,"SoundDuration":220588,"Delta":71935134},{"NoteNumber":58,"Velocity":60,"Duration":220588,"SoundDuration":220588,"Delta":71935134},{"NoteNumber":65,"Velocity":67,"Duration":303030,"SoundDuration":303030,"Delta":72229251},{"NoteNumber":58,"Velocity":67,"Duration":303030,"SoundDuration":303030,"Delta":72229251},{"NoteNumber":61,"Velocity":67,"Duration":303030,"SoundDuration":303030,"Delta":72229251},{"NoteNumber":70,"Velocity":58,"Duration":296296,"SoundDuration":296296,"Delta":72532282},{"NoteNumber":61,"Velocity":58,"Duration":296296,"SoundDuration":296296,"Delta":72532282},{"NoteNumber":65,"Velocity":58,"Duration":296296,"SoundDuration":296296,"Delta":72532282},{"NoteNumber":70,"Velocity":58,"Duration":229007,"SoundDuration":229007,"Delta":72828578},{"NoteNumber":61,"Velocity":58,"Duration":229007,"SoundDuration":229007,"Delta":72828578},{"NoteNumber":65,"Velocity":58,"Duration":229007,"SoundDuration":229007,"Delta":72828578},{"NoteNumber":70,"Velocity":66,"Duration":906847,"SoundDuration":906847,"Delta":73133922},{"NoteNumber":60,"Velocity":66,"Duration":1809103,"SoundDuration":1809103,"Delta":73133922},{"NoteNumber":65,"Velocity":66,"Duration":1809103,"SoundDuration":1809103,"Delta":73133922},{"NoteNumber":29,"Velocity":59,"Duration":305343,"SoundDuration":305343,"Delta":73133922},{"NoteNumber":36,"Velocity":54,"Duration":300752,"SoundDuration":300752,"Delta":73439265},{"NoteNumber":36,"Velocity":54,"Duration":225563,"SoundDuration":225563,"Delta":73740017},{"NoteNumber":68,"Velocity":62,"Duration":902255,"SoundDuration":902255,"Delta":74040769},{"NoteNumber":36,"Velocity":58,"Duration":300751,"SoundDuration":300751,"Delta":74040769},{"NoteNumber":41,"Velocity":53,"Duration":300752,"SoundDuration":300752,"Delta":74341521},{"NoteNumber":41,"Velocity":53,"Duration":225564,"SoundDuration":225564,"Delta":74642273},{"NoteNumber":58,"Velocity":68,"Duration":305343,"SoundDuration":305343,"Delta":74943025},{"NoteNumber":49,"Velocity":57,"Duration":305343,"SoundDuration":305343,"Delta":74943025},{"NoteNumber":54,"Velocity":57,"Duration":305343,"SoundDuration":305343,"Delta":74943025},{"NoteNumber":42,"Velocity":59,"Duration":1780550,"SoundDuration":1780550,"Delta":74943025},{"NoteNumber":61,"Velocity":60,"Duration":294117,"SoundDuration":294117,"Delta":75248369},{"NoteNumber":58,"Velocity":51,"Duration":294117,"SoundDuration":294117,"Delta":75248369},{"NoteNumber":54,"Velocity":51,"Duration":294117,"SoundDuration":294117,"Delta":75248369},{"NoteNumber":61,"Velocity":60,"Duration":220588,"SoundDuration":220588,"Delta":75542487},{"NoteNumber":58,"Velocity":51,"Duration":220588,"SoundDuration":220588,"Delta":75542487},{"NoteNumber":54,"Velocity":51,"Duration":220588,"SoundDuration":220588,"Delta":75542487},{"NoteNumber":61,"Velocity":67,"Duration":303030,"SoundDuration":303030,"Delta":75836604},{"NoteNumber":54,"Velocity":56,"Duration":303030,"SoundDuration":303030,"Delta":75836604},{"NoteNumber":58,"Velocity":56,"Duration":303030,"SoundDuration":303030,"Delta":75836604},{"NoteNumber":58,"Velocity":49,"Duration":291970,"SoundDuration":291970,"Delta":76139635},{"NoteNumber":61,"Velocity":49,"Duration":291970,"SoundDuration":291970,"Delta":76139635},{"NoteNumber":66,"Velocity":58,"Duration":291970,"SoundDuration":291970,"Delta":76139635},{"NoteNumber":58,"Velocity":49,"Duration":218977,"SoundDuration":218977,"Delta":76431605},{"NoteNumber":61,"Velocity":49,"Duration":218977,"SoundDuration":218977,"Delta":76431605},{"NoteNumber":66,"Velocity":58,"Duration":218977,"SoundDuration":218977,"Delta":76431605},{"NoteNumber":66,"Velocity":70,"Duration":298507,"SoundDuration":298507,"Delta":76723576},{"NoteNumber":58,"Velocity":59,"Duration":298507,"SoundDuration":298507,"Delta":76723576},{"NoteNumber":61,"Velocity":59,"Duration":298507,"SoundDuration":298507,"Delta":76723576},{"NoteNumber":42,"Velocity":35,"Duration":74626,"SoundDuration":74626,"Delta":76723576},{"NoteNumber":44,"Velocity":45,"Duration":74626,"SoundDuration":74626,"Delta":76798203},{"NoteNumber":42,"Velocity":38,"Duration":74626,"SoundDuration":74626,"Delta":76872830},{"NoteNumber":44,"Velocity":45,"Duration":74626,"SoundDuration":74626,"Delta":76947456},{"NoteNumber":70,"Velocity":66,"Duration":288137,"SoundDuration":288137,"Delta":77022083},{"NoteNumber":61,"Velocity":56,"Duration":288137,"SoundDuration":288137,"Delta":77022083},{"NoteNumber":66,"Velocity":56,"Duration":288137,"SoundDuration":288137,"Delta":77022083},{"NoteNumber":42,"Velocity":38,"Duration":70263,"SoundDuration":70263,"Delta":77022083},{"NoteNumber":44,"Velocity":46,"Duration":70810,"SoundDuration":70810,"Delta":77092346},{"NoteNumber":42,"Velocity":37,"Duration":73586,"SoundDuration":73586,"Delta":77163156},{"NoteNumber":44,"Velocity":47,"Duration":73478,"SoundDuration":73478,"Delta":77236743},{"NoteNumber":70,"Velocity":66,"Duration":211852,"SoundDuration":211852,"Delta":77310221},{"NoteNumber":61,"Velocity":56,"Duration":211852,"SoundDuration":211852,"Delta":77310221},{"NoteNumber":66,"Velocity":56,"Duration":211852,"SoundDuration":211852,"Delta":77310221},{"NoteNumber":42,"Velocity":40,"Duration":70227,"SoundDuration":70227,"Delta":77310221},{"NoteNumber":44,"Velocity":48,"Duration":69930,"SoundDuration":69930,"Delta":77380449},{"NoteNumber":42,"Velocity":40,"Duration":71694,"SoundDuration":71694,"Delta":77450379},{"NoteNumber":44,"Velocity":49,"Duration":72463,"SoundDuration":72463,"Delta":77522074},{"NoteNumber":66,"Velocity":63,"Duration":293691,"SoundDuration":293691,"Delta":77594537},{"NoteNumber":70,"Velocity":75,"Duration":293691,"SoundDuration":293691,"Delta":77594537},{"NoteNumber":61,"Velocity":63,"Duration":293691,"SoundDuration":293691,"Delta":77594537},{"NoteNumber":42,"Velocity":40,"Duration":73529,"SoundDuration":73529,"Delta":77594537},{"NoteNumber":44,"Velocity":50,"Duration":73529,"SoundDuration":73529,"Delta":77668067},{"NoteNumber":42,"Velocity":43,"Duration":73529,"SoundDuration":73529,"Delta":77741596},{"NoteNumber":44,"Velocity":52,"Duration":73103,"SoundDuration":73103,"Delta":77815126},{"NoteNumber":70,"Velocity":60,"Duration":285305,"SoundDuration":285305,"Delta":77888229},{"NoteNumber":73,"Velocity":71,"Duration":285305,"SoundDuration":285305,"Delta":77888229},{"NoteNumber":66,"Velocity":60,"Duration":285305,"SoundDuration":285305,"Delta":77888229},{"NoteNumber":42,"Velocity":43,"Duration":70681,"SoundDuration":70681,"Delta":77888229},{"NoteNumber":44,"Velocity":53,"Duration":69784,"SoundDuration":69784,"Delta":77958910},{"NoteNumber":42,"Velocity":43,"Duration":72833,"SoundDuration":72833,"Delta":78028695},{"NoteNumber":44,"Velocity":54,"Duration":72005,"SoundDuration":72005,"Delta":78101529},{"NoteNumber":70,"Velocity":62,"Duration":210716,"SoundDuration":210716,"Delta":78173534},{"NoteNumber":73,"Velocity":74,"Duration":210716,"SoundDuration":210716,"Delta":78173534},{"NoteNumber":66,"Velocity":62,"Duration":210716,"SoundDuration":210716,"Delta":78173534},{"NoteNumber":42,"Velocity":46,"Duration":69254,"SoundDuration":69254,"Delta":78173534},{"NoteNumber":44,"Velocity":54,"Duration":70185,"SoundDuration":70185,"Delta":78242789},{"NoteNumber":42,"Velocity":47,"Duration":71276,"SoundDuration":71276,"Delta":78312974},{"NoteNumber":44,"Velocity":55,"Duration":71428,"SoundDuration":71428,"Delta":78384251},{"NoteNumber":70,"Velocity":68,"Duration":303030,"SoundDuration":303030,"Delta":78455680},{"NoteNumber":73,"Velocity":81,"Duration":303030,"SoundDuration":303030,"Delta":78455680},{"NoteNumber":66,"Velocity":68,"Duration":303030,"SoundDuration":303030,"Delta":78455680},{"NoteNumber":42,"Velocity":46,"Duration":75757,"SoundDuration":75757,"Delta":78455680},{"NoteNumber":44,"Velocity":57,"Duration":75757,"SoundDuration":75757,"Delta":78531437},{"NoteNumber":42,"Velocity":48,"Duration":75757,"SoundDuration":75757,"Delta":78607195},{"NoteNumber":44,"Velocity":58,"Duration":75757,"SoundDuration":75757,"Delta":78682952},{"NoteNumber":73,"Velocity":61,"Duration":293856,"SoundDuration":293856,"Delta":78758710},{"NoteNumber":78,"Velocity":72,"Duration":293856,"SoundDuration":293856,"Delta":78758710},{"NoteNumber":70,"Velocity":61,"Duration":293856,"SoundDuration":293856,"Delta":78758710},{"NoteNumber":42,"Velocity":49,"Duration":72946,"SoundDuration":72946,"Delta":78758710},{"NoteNumber":44,"Velocity":59,"Duration":72150,"SoundDuration":72150,"Delta":78831657},{"NoteNumber":42,"Velocity":49,"Duration":74131,"SoundDuration":74131,"Delta":78903808},{"NoteNumber":44,"Velocity":61,"Duration":74626,"SoundDuration":74626,"Delta":78977940},{"NoteNumber":73,"Velocity":63,"Duration":217215,"SoundDuration":217215,"Delta":79052566},{"NoteNumber":78,"Velocity":75,"Duration":217215,"SoundDuration":217215,"Delta":79052566},{"NoteNumber":70,"Velocity":63,"Duration":217215,"SoundDuration":217215,"Delta":79052566},{"NoteNumber":42,"Velocity":51,"Duration":72212,"SoundDuration":72212,"Delta":79052566},{"NoteNumber":44,"Velocity":61,"Duration":71634,"SoundDuration":71634,"Delta":79124779},{"NoteNumber":42,"Velocity":52,"Duration":73368,"SoundDuration":73368,"Delta":79196413},{"NoteNumber":44,"Velocity":63,"Duration":73529,"SoundDuration":73529,"Delta":79269782},{"NoteNumber":70,"Velocity":71,"Duration":303030,"SoundDuration":303030,"Delta":79343311},{"NoteNumber":73,"Velocity":71,"Duration":303030,"SoundDuration":303030,"Delta":79343311},{"NoteNumber":78,"Velocity":84,"Duration":303030,"SoundDuration":303030,"Delta":79343311},{"NoteNumber":42,"Velocity":51,"Duration":75757,"SoundDuration":75757,"Delta":79343311},{"NoteNumber":44,"Velocity":64,"Duration":75757,"SoundDuration":75757,"Delta":79419069},{"NoteNumber":42,"Velocity":54,"Duration":75757,"SoundDuration":75757,"Delta":79494826},{"NoteNumber":44,"Velocity":64,"Duration":75757,"SoundDuration":75757,"Delta":79570584},{"NoteNumber":82,"Velocity":78,"Duration":296488,"SoundDuration":296488,"Delta":79646342},{"NoteNumber":70,"Velocity":66,"Duration":296488,"SoundDuration":296488,"Delta":79646342},{"NoteNumber":73,"Velocity":66,"Duration":296488,"SoundDuration":296488,"Delta":79646342},{"NoteNumber":78,"Velocity":78,"Duration":296488,"SoundDuration":296488,"Delta":79646342},{"NoteNumber":42,"Velocity":54,"Duration":73103,"SoundDuration":73103,"Delta":79646342},{"NoteNumber":44,"Velocity":66,"Duration":74131,"SoundDuration":74131,"Delta":79719445},{"NoteNumber":42,"Velocity":54,"Duration":74626,"SoundDuration":74626,"Delta":79793577},{"NoteNumber":44,"Velocity":67,"Duration":74626,"SoundDuration":74626,"Delta":79868203},{"NoteNumber":78,"Velocity":78,"Duration":229007,"SoundDuration":229007,"Delta":79942830},{"NoteNumber":70,"Velocity":66,"Duration":229007,"SoundDuration":229007,"Delta":79942830},{"NoteNumber":73,"Velocity":66,"Duration":229007,"SoundDuration":229007,"Delta":79942830},{"NoteNumber":82,"Velocity":78,"Duration":229007,"SoundDuration":229007,"Delta":79942830},{"NoteNumber":42,"Velocity":58,"Duration":76335,"SoundDuration":76335,"Delta":79942830},{"NoteNumber":44,"Velocity":69,"Duration":76335,"SoundDuration":76335,"Delta":80019166},{"NoteNumber":42,"Velocity":58,"Duration":76335,"SoundDuration":76335,"Delta":80095502},{"NoteNumber":44,"Velocity":44,"Duration":76335,"SoundDuration":76335,"Delta":80171838},{"NoteNumber":80,"Velocity":95,"Duration":903489,"SoundDuration":903489,"Delta":80248174},{"NoteNumber":73,"Velocity":80,"Duration":903489,"SoundDuration":903489,"Delta":80248174},{"NoteNumber":85,"Velocity":95,"Duration":903489,"SoundDuration":903489,"Delta":80248174},{"NoteNumber":42,"Velocity":82,"Duration":305343,"SoundDuration":305343,"Delta":80248174},{"NoteNumber":30,"Velocity":69,"Duration":305343,"SoundDuration":305343,"Delta":80248174},{"NoteNumber":29,"Velocity":62,"Duration":299638,"SoundDuration":299638,"Delta":80553518},{"NoteNumber":41,"Velocity":73,"Duration":299638,"SoundDuration":299638,"Delta":80553518},{"NoteNumber":29,"Velocity":62,"Duration":223880,"SoundDuration":223880,"Delta":80853156},{"NoteNumber":41,"Velocity":74,"Duration":223880,"SoundDuration":223880,"Delta":80853156},{"NoteNumber":73,"Velocity":74,"Duration":296296,"SoundDuration":296296,"Delta":81151663},{"NoteNumber":83,"Velocity":88,"Duration":296296,"SoundDuration":296296,"Delta":81151663},{"NoteNumber":71,"Velocity":74,"Duration":296296,"SoundDuration":296296,"Delta":81151663},{"NoteNumber":80,"Velocity":88,"Duration":296296,"SoundDuration":296296,"Delta":81151663},{"NoteNumber":42,"Velocity":82,"Duration":895623,"SoundDuration":895623,"Delta":81151663},{"NoteNumber":30,"Velocity":69,"Duration":895623,"SoundDuration":895623,"Delta":81151663},{"NoteNumber":73,"Velocity":66,"Duration":296296,"SoundDuration":296296,"Delta":81447959},{"NoteNumber":70,"Velocity":66,"Duration":296296,"SoundDuration":296296,"Delta":81447959},{"NoteNumber":82,"Velocity":78,"Duration":296296,"SoundDuration":296296,"Delta":81447959},{"NoteNumber":78,"Velocity":78,"Duration":296296,"SoundDuration":296296,"Delta":81447959},{"NoteNumber":70,"Velocity":66,"Duration":227272,"SoundDuration":227272,"Delta":81744256},{"NoteNumber":78,"Velocity":78,"Duration":227272,"SoundDuration":227272,"Delta":81744256},{"NoteNumber":73,"Velocity":66,"Duration":227272,"SoundDuration":227272,"Delta":81744256},{"NoteNumber":82,"Velocity":78,"Duration":227272,"SoundDuration":227272,"Delta":81744256},{"NoteNumber":85,"Velocity":95,"Duration":904534,"SoundDuration":904534,"Delta":82047286},{"NoteNumber":73,"Velocity":80,"Duration":904534,"SoundDuration":904534,"Delta":82047286},{"NoteNumber":80,"Velocity":95,"Duration":904534,"SoundDuration":904534,"Delta":82047286},{"NoteNumber":42,"Velocity":82,"Duration":303030,"SoundDuration":303030,"Delta":82047286},{"NoteNumber":30,"Velocity":69,"Duration":303030,"SoundDuration":303030,"Delta":82047286},{"NoteNumber":41,"Velocity":73,"Duration":300752,"SoundDuration":300752,"Delta":82350316},{"NoteNumber":29,"Velocity":62,"Duration":300752,"SoundDuration":300752,"Delta":82350316},{"NoteNumber":29,"Velocity":62,"Duration":225563,"SoundDuration":225563,"Delta":82651068},{"NoteNumber":41,"Velocity":74,"Duration":225563,"SoundDuration":225563,"Delta":82651068},{"NoteNumber":83,"Velocity":88,"Duration":296296,"SoundDuration":296296,"Delta":82951820},{"NoteNumber":71,"Velocity":74,"Duration":296296,"SoundDuration":296296,"Delta":82951820},{"NoteNumber":73,"Velocity":74,"Duration":296296,"SoundDuration":296296,"Delta":82951820},{"NoteNumber":80,"Velocity":88,"Duration":296296,"SoundDuration":296296,"Delta":82951820},{"NoteNumber":42,"Velocity":82,"Duration":902670,"SoundDuration":902670,"Delta":82951820},{"NoteNumber":30,"Velocity":69,"Duration":902670,"SoundDuration":902670,"Delta":82951820},{"NoteNumber":73,"Velocity":66,"Duration":296296,"SoundDuration":296296,"Delta":83248117},{"NoteNumber":78,"Velocity":78,"Duration":296296,"SoundDuration":296296,"Delta":83248117},{"NoteNumber":82,"Velocity":78,"Duration":296296,"SoundDuration":296296,"Delta":83248117},{"NoteNumber":70,"Velocity":66,"Duration":296296,"SoundDuration":296296,"Delta":83248117},{"NoteNumber":70,"Velocity":66,"Duration":232558,"SoundDuration":232558,"Delta":83544413},{"NoteNumber":78,"Velocity":78,"Duration":232558,"SoundDuration":232558,"Delta":83544413},{"NoteNumber":82,"Velocity":78,"Duration":232558,"SoundDuration":232558,"Delta":83544413},{"NoteNumber":73,"Velocity":66,"Duration":232558,"SoundDuration":232558,"Delta":83544413},{"NoteNumber":88,"Velocity":101,"Duration":895521,"SoundDuration":895521,"Delta":83854491},{"NoteNumber":82,"Velocity":101,"Duration":895521,"SoundDuration":895521,"Delta":83854491},{"NoteNumber":76,"Velocity":85,"Duration":895521,"SoundDuration":895521,"Delta":83854491},{"NoteNumber":32,"Velocity":69,"Duration":298507,"SoundDuration":298507,"Delta":83854491},{"NoteNumber":44,"Velocity":82,"Duration":298507,"SoundDuration":298507,"Delta":83854491},{"NoteNumber":43,"Velocity":73,"Duration":298507,"SoundDuration":298507,"Delta":84152998},{"NoteNumber":31,"Velocity":62,"Duration":298507,"SoundDuration":298507,"Delta":84152998},{"NoteNumber":31,"Velocity":62,"Duration":223880,"SoundDuration":223880,"Delta":84451505},{"NoteNumber":43,"Velocity":74,"Duration":223880,"SoundDuration":223880,"Delta":84451505},{"NoteNumber":86,"Velocity":98,"Duration":296545,"SoundDuration":296545,"Delta":84750013},{"NoteNumber":74,"Velocity":83,"Duration":296545,"SoundDuration":296545,"Delta":84750013},{"NoteNumber":82,"Velocity":98,"Duration":296545,"SoundDuration":296545,"Delta":84750013},{"NoteNumber":55,"Velocity":82,"Duration":880486,"SoundDuration":880486,"Delta":84750013},{"NoteNumber":43,"Velocity":69,"Duration":880486,"SoundDuration":880486,"Delta":84750013},{"NoteNumber":82,"Velocity":92,"Duration":291970,"SoundDuration":291970,"Delta":85046558},{"NoteNumber":75,"Velocity":78,"Duration":291970,"SoundDuration":291970,"Delta":85046558},{"NoteNumber":87,"Velocity":92,"Duration":291970,"SoundDuration":291970,"Delta":85046558},{"NoteNumber":82,"Velocity":92,"Duration":218977,"SoundDuration":218977,"Delta":85338528},{"NoteNumber":75,"Velocity":78,"Duration":218977,"SoundDuration":218977,"Delta":85338528},{"NoteNumber":87,"Velocity":92,"Duration":218977,"SoundDuration":218977,"Delta":85338528},{"NoteNumber":88,"Velocity":101,"Duration":888083,"SoundDuration":888083,"Delta":85630499},{"NoteNumber":82,"Velocity":101,"Duration":888083,"SoundDuration":888083,"Delta":85630499},{"NoteNumber":76,"Velocity":85,"Duration":888083,"SoundDuration":888083,"Delta":85630499},{"NoteNumber":44,"Velocity":82,"Duration":296296,"SoundDuration":296296,"Delta":85630499},{"NoteNumber":32,"Velocity":69,"Duration":296296,"SoundDuration":296296,"Delta":85630499},{"NoteNumber":43,"Velocity":73,"Duration":296296,"SoundDuration":296296,"Delta":85926795},{"NoteNumber":31,"Velocity":62,"Duration":296296,"SoundDuration":296296,"Delta":85926795},{"NoteNumber":31,"Velocity":62,"Duration":222222,"SoundDuration":222222,"Delta":86223092},{"NoteNumber":43,"Velocity":74,"Duration":222222,"SoundDuration":222222,"Delta":86223092},{"NoteNumber":86,"Velocity":98,"Duration":289855,"SoundDuration":289855,"Delta":86518583},{"NoteNumber":74,"Velocity":83,"Duration":289855,"SoundDuration":289855,"Delta":86518583},{"NoteNumber":82,"Velocity":98,"Duration":289855,"SoundDuration":289855,"Delta":86518583},{"NoteNumber":43,"Velocity":69,"Duration":887512,"SoundDuration":887512,"Delta":86518583},{"NoteNumber":55,"Velocity":82,"Duration":887512,"SoundDuration":887512,"Delta":86518583},{"NoteNumber":82,"Velocity":92,"Duration":289855,"SoundDuration":289855,"Delta":86808438},{"NoteNumber":75,"Velocity":78,"Duration":289855,"SoundDuration":289855,"Delta":86808438},{"NoteNumber":87,"Velocity":92,"Duration":289855,"SoundDuration":289855,"Delta":86808438},{"NoteNumber":82,"Velocity":92,"Duration":230283,"SoundDuration":230283,"Delta":87098293},{"NoteNumber":75,"Velocity":78,"Duration":230283,"SoundDuration":230283,"Delta":87098293},{"NoteNumber":87,"Velocity":92,"Duration":230283,"SoundDuration":230283,"Delta":87098293},{"NoteNumber":82,"Velocity":92,"Duration":879420,"SoundDuration":879420,"Delta":87406095},{"NoteNumber":76,"Velocity":78,"Duration":879420,"SoundDuration":879420,"Delta":87406095},{"NoteNumber":88,"Velocity":92,"Duration":879420,"SoundDuration":879420,"Delta":87406095},{"NoteNumber":43,"Velocity":69,"Duration":305203,"SoundDuration":305203,"Delta":87406095},{"NoteNumber":31,"Velocity":58,"Duration":305203,"SoundDuration":305203,"Delta":87406095},{"NoteNumber":55,"Velocity":56,"Duration":287108,"SoundDuration":287108,"Delta":87711299},{"NoteNumber":43,"Velocity":47,"Duration":287108,"SoundDuration":287108,"Delta":87711299},{"NoteNumber":43,"Velocity":48,"Duration":215331,"SoundDuration":215331,"Delta":87998408},{"NoteNumber":55,"Velocity":57,"Duration":215331,"SoundDuration":215331,"Delta":87998408},{"NoteNumber":76,"Velocity":79,"Duration":873799,"SoundDuration":873799,"Delta":88285516},{"NoteNumber":88,"Velocity":94,"Duration":873799,"SoundDuration":873799,"Delta":88285516},{"NoteNumber":82,"Velocity":94,"Duration":873799,"SoundDuration":873799,"Delta":88285516},{"NoteNumber":43,"Velocity":71,"Duration":298196,"SoundDuration":298196,"Delta":88285516},{"NoteNumber":31,"Velocity":60,"Duration":298196,"SoundDuration":298196,"Delta":88285516},{"NoteNumber":55,"Velocity":59,"Duration":288494,"SoundDuration":288494,"Delta":88583712},{"NoteNumber":43,"Velocity":50,"Duration":288494,"SoundDuration":288494,"Delta":88583712},{"NoteNumber":55,"Velocity":59,"Duration":215331,"SoundDuration":215331,"Delta":88872207},{"NoteNumber":43,"Velocity":50,"Duration":215331,"SoundDuration":215331,"Delta":88872207},{"NoteNumber":76,"Velocity":82,"Duration":867859,"SoundDuration":867859,"Delta":89159316},{"NoteNumber":88,"Velocity":97,"Duration":867859,"SoundDuration":867859,"Delta":89159316},{"NoteNumber":82,"Velocity":97,"Duration":867859,"SoundDuration":867859,"Delta":89159316},{"NoteNumber":31,"Velocity":62,"Duration":293642,"SoundDuration":293642,"Delta":89159316},{"NoteNumber":43,"Velocity":74,"Duration":293642,"SoundDuration":293642,"Delta":89159316},{"NoteNumber":55,"Velocity":64,"Duration":287108,"SoundDuration":287108,"Delta":89452958},{"NoteNumber":43,"Velocity":54,"Duration":287108,"SoundDuration":287108,"Delta":89452958},{"NoteNumber":43,"Velocity":54,"Duration":215331,"SoundDuration":215331,"Delta":89740067},{"NoteNumber":55,"Velocity":64,"Duration":215331,"SoundDuration":215331,"Delta":89740067},{"NoteNumber":76,"Velocity":85,"Duration":869181,"SoundDuration":869181,"Delta":90027176},{"NoteNumber":88,"Velocity":100,"Duration":869181,"SoundDuration":869181,"Delta":90027176},{"NoteNumber":82,"Velocity":100,"Duration":869181,"SoundDuration":869181,"Delta":90027176},{"NoteNumber":31,"Velocity":65,"Duration":293642,"SoundDuration":293642,"Delta":90027176},{"NoteNumber":43,"Velocity":77,"Duration":293642,"SoundDuration":293642,"Delta":90027176},{"NoteNumber":43,"Velocity":57,"Duration":287769,"SoundDuration":287769,"Delta":90320818},{"NoteNumber":55,"Velocity":68,"Duration":287769,"SoundDuration":287769,"Delta":90320818},{"NoteNumber":43,"Velocity":57,"Duration":215827,"SoundDuration":215827,"Delta":90608588},{"NoteNumber":55,"Velocity":68,"Duration":215827,"SoundDuration":215827,"Delta":90608588},{"NoteNumber":83,"Velocity":90,"Duration":877064,"SoundDuration":877064,"Delta":90896358},{"NoteNumber":77,"Velocity":90,"Duration":877064,"SoundDuration":877064,"Delta":90896358},{"NoteNumber":86,"Velocity":106,"Duration":877064,"SoundDuration":877064,"Delta":90896358},{"NoteNumber":89,"Velocity":106,"Duration":877064,"SoundDuration":877064,"Delta":90896358},{"NoteNumber":43,"Velocity":83,"Duration":302846,"SoundDuration":302846,"Delta":90896358},{"NoteNumber":31,"Velocity":70,"Duration":302846,"SoundDuration":302846,"Delta":90896358},{"NoteNumber":43,"Velocity":62,"Duration":287108,"SoundDuration":287108,"Delta":91199204},{"NoteNumber":55,"Velocity":74,"Duration":287108,"SoundDuration":287108,"Delta":91199204},{"NoteNumber":43,"Velocity":62,"Duration":215331,"SoundDuration":215331,"Delta":91486313},{"NoteNumber":55,"Velocity":74,"Duration":215331,"SoundDuration":215331,"Delta":91486313},{"NoteNumber":86,"Velocity":106,"Duration":883739,"SoundDuration":883739,"Delta":91773422},{"NoteNumber":89,"Velocity":106,"Duration":883739,"SoundDuration":883739,"Delta":91773422},{"NoteNumber":83,"Velocity":90,"Duration":883739,"SoundDuration":883739,"Delta":91773422},{"NoteNumber":77,"Velocity":90,"Duration":883739,"SoundDuration":883739,"Delta":91773422},{"NoteNumber":43,"Velocity":86,"Duration":305203,"SoundDuration":305203,"Delta":91773422},{"NoteNumber":31,"Velocity":73,"Duration":305203,"SoundDuration":305203,"Delta":91773422},{"NoteNumber":55,"Velocity":75,"Duration":289268,"SoundDuration":289268,"Delta":92078625},{"NoteNumber":43,"Velocity":63,"Duration":289268,"SoundDuration":289268,"Delta":92078625},{"NoteNumber":55,"Velocity":75,"Duration":216950,"SoundDuration":216950,"Delta":92367893},{"NoteNumber":43,"Velocity":63,"Duration":216950,"SoundDuration":216950,"Delta":92367893},{"NoteNumber":90,"Velocity":111,"Duration":901401,"SoundDuration":901401,"Delta":92657161},{"NoteNumber":81,"Velocity":94,"Duration":901401,"SoundDuration":901401,"Delta":92657161},{"NoteNumber":87,"Velocity":111,"Duration":901401,"SoundDuration":901401,"Delta":92657161},{"NoteNumber":84,"Velocity":94,"Duration":901401,"SoundDuration":901401,"Delta":92657161},{"NoteNumber":78,"Velocity":94,"Duration":901401,"SoundDuration":901401,"Delta":92657161},{"NoteNumber":31,"Velocity":82,"Duration":317460,"SoundDuration":317460,"Delta":92657161},{"NoteNumber":43,"Velocity":97,"Duration":317460,"SoundDuration":317460,"Delta":92657161},{"NoteNumber":55,"Velocity":77,"Duration":291970,"SoundDuration":291970,"Delta":92974622},{"NoteNumber":43,"Velocity":65,"Duration":291970,"SoundDuration":291970,"Delta":92974622},{"NoteNumber":43,"Velocity":65,"Duration":218977,"SoundDuration":218977,"Delta":93266592},{"NoteNumber":55,"Velocity":77,"Duration":218977,"SoundDuration":218977,"Delta":93266592},{"NoteNumber":87,"Velocity":112,"Duration":940264,"SoundDuration":940264,"Delta":93558563},{"NoteNumber":84,"Velocity":95,"Duration":940264,"SoundDuration":940264,"Delta":93558563},{"NoteNumber":78,"Velocity":95,"Duration":940264,"SoundDuration":940264,"Delta":93558563},{"NoteNumber":81,"Velocity":95,"Duration":940264,"SoundDuration":940264,"Delta":93558563},{"NoteNumber":90,"Velocity":112,"Duration":940264,"SoundDuration":940264,"Delta":93558563},{"NoteNumber":43,"Velocity":105,"Duration":317460,"SoundDuration":317460,"Delta":93558563},{"NoteNumber":31,"Velocity":89,"Duration":317460,"SoundDuration":317460,"Delta":93558563},{"NoteNumber":55,"Velocity":82,"Duration":305343,"SoundDuration":305343,"Delta":93876023},{"NoteNumber":43,"Velocity":69,"Duration":305343,"SoundDuration":305343,"Delta":93876023},{"NoteNumber":43,"Velocity":69,"Duration":238095,"SoundDuration":238095,"Delta":94181367},{"NoteNumber":55,"Velocity":82,"Duration":238095,"SoundDuration":238095,"Delta":94181367},{"NoteNumber":91,"Velocity":113,"Duration":243902,"SoundDuration":243902,"Delta":94498827},{"NoteNumber":79,"Velocity":96,"Duration":243902,"SoundDuration":243902,"Delta":94498827},{"NoteNumber":86,"Velocity":113,"Duration":243902,"SoundDuration":243902,"Delta":94498827},{"NoteNumber":83,"Velocity":96,"Duration":243902,"SoundDuration":243902,"Delta":94498827},{"NoteNumber":31,"Velocity":90,"Duration":476718,"SoundDuration":476718,"Delta":94498827},{"NoteNumber":43,"Velocity":107,"Duration":476718,"SoundDuration":476718,"Delta":94498827},{"NoteNumber":79,"Velocity":86,"Duration":227272,"SoundDuration":227272,"Delta":94824031},{"NoteNumber":79,"Velocity":72,"Duration":227272,"SoundDuration":227272,"Delta":95127061},{"NoteNumber":67,"Velocity":81,"Duration":310077,"SoundDuration":310077,"Delta":95430091},{"NoteNumber":79,"Velocity":69,"Duration":289855,"SoundDuration":289855,"Delta":95740169},{"NoteNumber":79,"Velocity":61,"Duration":217391,"SoundDuration":217391,"Delta":96030024},{"NoteNumber":67,"Velocity":61,"Duration":303030,"SoundDuration":303030,"Delta":96319879},{"NoteNumber":79,"Velocity":54,"Duration":287769,"SoundDuration":287769,"Delta":96622909},{"NoteNumber":79,"Velocity":45,"Duration":215827,"SoundDuration":215827,"Delta":96910679},{"NoteNumber":67,"Velocity":59,"Duration":300752,"SoundDuration":300752,"Delta":97198449},{"NoteNumber":79,"Velocity":50,"Duration":287769,"SoundDuration":287769,"Delta":97499201},{"NoteNumber":79,"Velocity":45,"Duration":215827,"SoundDuration":215827,"Delta":97786970},{"NoteNumber":67,"Velocity":56,"Duration":298507,"SoundDuration":298507,"Delta":98074740},{"NoteNumber":62,"Velocity":54,"Duration":1758740,"SoundDuration":1758740,"Delta":98074740},{"NoteNumber":65,"Velocity":54,"Duration":1758740,"SoundDuration":1758740,"Delta":98074740},{"NoteNumber":79,"Velocity":45,"Duration":287769,"SoundDuration":287769,"Delta":98373247},{"NoteNumber":79,"Velocity":45,"Duration":215827,"SoundDuration":215827,"Delta":98661017},{"NoteNumber":67,"Velocity":54,"Duration":300751,"SoundDuration":300751,"Delta":98948787},{"NoteNumber":79,"Velocity":42,"Duration":291970,"SoundDuration":291970,"Delta":99249539},{"NoteNumber":79,"Velocity":43,"Duration":218977,"SoundDuration":218977,"Delta":99541509},{"NoteNumber":67,"Velocity":50,"Duration":310077,"SoundDuration":310077,"Delta":99833480},{"NoteNumber":64,"Velocity":40,"Duration":911581,"SoundDuration":911581,"Delta":99833480},{"NoteNumber":60,"Velocity":40,"Duration":911581,"SoundDuration":911581,"Delta":99833480},{"NoteNumber":79,"Velocity":39,"Duration":300752,"SoundDuration":300752,"Delta":100143558},{"NoteNumber":79,"Velocity":39,"Duration":225563,"SoundDuration":225563,"Delta":100444310},{"NoteNumber":67,"Velocity":50,"Duration":327868,"SoundDuration":327868,"Delta":100745062},{"NoteNumber":55,"Velocity":35,"Duration":957790,"SoundDuration":957790,"Delta":100745062},{"NoteNumber":62,"Velocity":35,"Duration":957790,"SoundDuration":957790,"Delta":100745062},{"NoteNumber":79,"Velocity":40,"Duration":314960,"SoundDuration":314960,"Delta":101072931},{"NoteNumber":79,"Velocity":39,"Duration":236220,"SoundDuration":236220,"Delta":101387891},{"NoteNumber":76,"Velocity":48,"Duration":301386,"SoundDuration":301386,"Delta":101702852},{"NoteNumber":48,"Velocity":45,"Duration":1732408,"SoundDuration":1732408,"Delta":101702852},{"NoteNumber":55,"Velocity":45,"Duration":1732408,"SoundDuration":1732408,"Delta":101702852},{"NoteNumber":52,"Velocity":45,"Duration":1732408,"SoundDuration":1732408,"Delta":101702852},{"NoteNumber":79,"Velocity":40,"Duration":288600,"SoundDuration":288600,"Delta":102004238},{"NoteNumber":79,"Velocity":40,"Duration":216450,"SoundDuration":216450,"Delta":102292839},{"NoteNumber":79,"Velocity":50,"Duration":292654,"SoundDuration":292654,"Delta":102581439},{"NoteNumber":84,"Velocity":39,"Duration":280583,"SoundDuration":280583,"Delta":102874093},{"NoteNumber":60,"Velocity":37,"Duration":420875,"SoundDuration":420875,"Delta":103014385},{"NoteNumber":84,"Velocity":39,"Duration":210437,"SoundDuration":210437,"Delta":103154677},{"NoteNumber":84,"Velocity":48,"Duration":286491,"SoundDuration":286491,"Delta":103435261},{"NoteNumber":64,"Velocity":45,"Duration":847659,"SoundDuration":847659,"Delta":103435261},{"NoteNumber":88,"Velocity":39,"Duration":280583,"SoundDuration":280583,"Delta":103721753},{"NoteNumber":88,"Velocity":39,"Duration":210437,"SoundDuration":210437,"Delta":104002336},{"NoteNumber":88,"Velocity":54,"Duration":284494,"SoundDuration":284494,"Delta":104282920},{"NoteNumber":69,"Velocity":48,"Duration":876691,"SoundDuration":876691,"Delta":104282920},{"NoteNumber":93,"Velocity":43,"Duration":277777,"SoundDuration":277777,"Delta":104567415},{"NoteNumber":93,"Velocity":42,"Duration":229673,"SoundDuration":229673,"Delta":104845193},{"NoteNumber":47,"Velocity":35,"Duration":1888114,"SoundDuration":1888114,"Delta":104990120},{"NoteNumber":55,"Velocity":40,"Duration":1803368,"SoundDuration":1803368,"Delta":105074866},{"NoteNumber":93,"Velocity":54,"Duration":294811,"SoundDuration":294811,"Delta":105159612},{"NoteNumber":67,"Velocity":45,"Duration":1297747,"SoundDuration":1297747,"Delta":105159612},{"NoteNumber":91,"Velocity":44,"Duration":275862,"SoundDuration":275862,"Delta":105454423},{"NoteNumber":91,"Velocity":41,"Duration":218978,"SoundDuration":218978,"Delta":105730285},{"NoteNumber":91,"Velocity":51,"Duration":294811,"SoundDuration":294811,"Delta":106022256},{"NoteNumber":89,"Velocity":42,"Duration":280583,"SoundDuration":280583,"Delta":106317067},{"NoteNumber":65,"Velocity":40,"Duration":420875,"SoundDuration":420875,"Delta":106457359},{"NoteNumber":89,"Velocity":42,"Duration":210437,"SoundDuration":210437,"Delta":106597651},{"NoteNumber":89,"Velocity":50,"Duration":294811,"SoundDuration":294811,"Delta":106878234},{"NoteNumber":62,"Velocity":45,"Duration":867192,"SoundDuration":867192,"Delta":106878234},{"NoteNumber":86,"Velocity":42,"Duration":282525,"SoundDuration":282525,"Delta":107173046},{"NoteNumber":86,"Velocity":42,"Duration":217391,"SoundDuration":217391,"Delta":107455571},{"NoteNumber":86,"Velocity":48,"Duration":288600,"SoundDuration":288600,"Delta":107745426},{"NoteNumber":64,"Velocity":40,"Duration":885885,"SoundDuration":885885,"Delta":107745426},{"NoteNumber":88,"Velocity":42,"Duration":276778,"SoundDuration":276778,"Delta":108034027},{"NoteNumber":88,"Velocity":42,"Duration":235036,"SoundDuration":235036,"Delta":108310805},{"NoteNumber":45,"Velocity":38,"Duration":1729623,"SoundDuration":1729623,"Delta":108460371},{"NoteNumber":52,"Velocity":40,"Duration":1725453,"SoundDuration":1725453,"Delta":108545841},{"NoteNumber":76,"Velocity":48,"Duration":287769,"SoundDuration":287769,"Delta":108631312},{"NoteNumber":60,"Velocity":45,"Duration":1721284,"SoundDuration":1721284,"Delta":108631312},{"NoteNumber":84,"Velocity":43,"Duration":281689,"SoundDuration":281689,"Delta":108919081},{"NoteNumber":84,"Velocity":43,"Duration":211894,"SoundDuration":211894,"Delta":109200771},{"NoteNumber":86,"Velocity":48,"Duration":285714,"SoundDuration":285714,"Delta":109483297},{"NoteNumber":84,"Velocity":42,"Duration":279720,"SoundDuration":279720,"Delta":109769011},{"NoteNumber":84,"Velocity":42,"Duration":222563,"SoundDuration":222563,"Delta":110048732},{"NoteNumber":47,"Velocity":35,"Duration":1759789,"SoundDuration":1759789,"Delta":110189994},{"NoteNumber":55,"Velocity":37,"Duration":1783751,"SoundDuration":1783751,"Delta":110271295},{"NoteNumber":83,"Velocity":48,"Duration":288600,"SoundDuration":288600,"Delta":110352596},{"NoteNumber":65,"Velocity":40,"Duration":1807713,"SoundDuration":1807713,"Delta":110352596},{"NoteNumber":89,"Velocity":43,"Duration":281689,"SoundDuration":281689,"Delta":110641196},{"NoteNumber":89,"Velocity":44,"Duration":211789,"SoundDuration":211789,"Delta":110922886},{"NoteNumber":91,"Velocity":48,"Duration":294117,"SoundDuration":294117,"Delta":111205308},{"NoteNumber":89,"Velocity":42,"Duration":292654,"SoundDuration":292654,"Delta":111499425},{"NoteNumber":89,"Velocity":41,"Duration":262967,"SoundDuration":262967,"Delta":111792080},{"NoteNumber":48,"Velocity":31,"Duration":443084,"SoundDuration":443084,"Delta":111949783},{"NoteNumber":55,"Velocity":31,"Duration":337821,"SoundDuration":337821,"Delta":112055047},{"NoteNumber":88,"Velocity":40,"Duration":232558,"SoundDuration":232558,"Delta":112160310},{"NoteNumber":64,"Velocity":36,"Duration":232558,"SoundDuration":232558,"Delta":112160310},{"NoteNumber":72,"Velocity":26,"Duration":1733821,"SoundDuration":1733821,"Delta":113090543},{"NoteNumber":76,"Velocity":26,"Duration":580645,"SoundDuration":580645,"Delta":113090543},{"NoteNumber":60,"Velocity":21,"Duration":1733821,"SoundDuration":1733821,"Delta":113090543},{"NoteNumber":67,"Velocity":21,"Duration":774193,"SoundDuration":774193,"Delta":113090543},{"NoteNumber":77,"Velocity":23,"Duration":96774,"SoundDuration":96774,"Delta":113671188},{"NoteNumber":76,"Velocity":23,"Duration":96774,"SoundDuration":96774,"Delta":113767963},{"NoteNumber":75,"Velocity":29,"Duration":577399,"SoundDuration":577399,"Delta":113864737},{"NoteNumber":69,"Velocity":17,"Duration":766078,"SoundDuration":766078,"Delta":113864737},{"NoteNumber":66,"Velocity":17,"Duration":766078,"SoundDuration":766078,"Delta":113864737},{"NoteNumber":76,"Velocity":22,"Duration":94339,"SoundDuration":94339,"Delta":114442136},{"NoteNumber":77,"Velocity":22,"Duration":94339,"SoundDuration":94339,"Delta":114536476},{"NoteNumber":76,"Velocity":26,"Duration":193548,"SoundDuration":193548,"Delta":114630815},{"NoteNumber":67,"Velocity":21,"Duration":193548,"SoundDuration":193548,"Delta":114630815},{"NoteNumber":76,"Velocity":48,"Duration":301386,"SoundDuration":301386,"Delta":115405009},{"NoteNumber":55,"Velocity":45,"Duration":1732408,"SoundDuration":1732408,"Delta":115405009},{"NoteNumber":52,"Velocity":45,"Duration":1732408,"SoundDuration":1732408,"Delta":115405009},{"NoteNumber":48,"Velocity":45,"Duration":1732408,"SoundDuration":1732408,"Delta":115405009},{"NoteNumber":79,"Velocity":40,"Duration":288600,"SoundDuration":288600,"Delta":115706396},{"NoteNumber":79,"Velocity":40,"Duration":216450,"SoundDuration":216450,"Delta":115994996},{"NoteNumber":79,"Velocity":50,"Duration":292654,"SoundDuration":292654,"Delta":116283596},{"NoteNumber":84,"Velocity":39,"Duration":280583,"SoundDuration":280583,"Delta":116576251},{"NoteNumber":60,"Velocity":37,"Duration":420875,"SoundDuration":420875,"Delta":116716543},{"NoteNumber":84,"Velocity":39,"Duration":210437,"SoundDuration":210437,"Delta":116856834},{"NoteNumber":84,"Velocity":52,"Duration":286492,"SoundDuration":286492,"Delta":117137418},{"NoteNumber":64,"Velocity":45,"Duration":869969,"SoundDuration":869969,"Delta":117137418},{"NoteNumber":88,"Velocity":43,"Duration":280583,"SoundDuration":280583,"Delta":117423910},{"NoteNumber":88,"Velocity":43,"Duration":221592,"SoundDuration":221592,"Delta":117704494},{"NoteNumber":48,"Velocity":35,"Duration":1050947,"SoundDuration":1050947,"Delta":117844786},{"NoteNumber":60,"Velocity":40,"Duration":969646,"SoundDuration":969646,"Delta":117926086},{"NoteNumber":88,"Velocity":56,"Duration":284495,"SoundDuration":284495,"Delta":118007387},{"NoteNumber":69,"Velocity":48,"Duration":888345,"SoundDuration":888345,"Delta":118007387},{"NoteNumber":93,"Velocity":46,"Duration":298507,"SoundDuration":298507,"Delta":118291882},{"NoteNumber":93,"Velocity":46,"Duration":229007,"SoundDuration":229007,"Delta":118590390},{"NoteNumber":76,"Velocity":60,"Duration":294117,"SoundDuration":294117,"Delta":118895733},{"NoteNumber":48,"Velocity":53,"Duration":1711319,"SoundDuration":1711319,"Delta":118895733},{"NoteNumber":57,"Velocity":53,"Duration":1711319,"SoundDuration":1711319,"Delta":118895733},{"NoteNumber":52,"Velocity":53,"Duration":1711319,"SoundDuration":1711319,"Delta":118895733},{"NoteNumber":81,"Velocity":56,"Duration":281689,"SoundDuration":281689,"Delta":119189851},{"NoteNumber":81,"Velocity":52,"Duration":211267,"SoundDuration":211267,"Delta":119471541},{"NoteNumber":81,"Velocity":61,"Duration":292654,"SoundDuration":292654,"Delta":119753231},{"NoteNumber":84,"Velocity":55,"Duration":280583,"SoundDuration":280583,"Delta":120045885},{"NoteNumber":60,"Velocity":48,"Duration":420875,"SoundDuration":420875,"Delta":120186177},{"NoteNumber":84,"Velocity":55,"Duration":210437,"SoundDuration":210437,"Delta":120326469},{"NoteNumber":84,"Velocity":68,"Duration":296296,"SoundDuration":296296,"Delta":120607053},{"NoteNumber":64,"Velocity":54,"Duration":871835,"SoundDuration":871835,"Delta":120607053},{"NoteNumber":88,"Velocity":63,"Duration":287769,"SoundDuration":287769,"Delta":120903349},{"NoteNumber":88,"Velocity":64,"Duration":215827,"SoundDuration":215827,"Delta":121191119},{"NoteNumber":88,"Velocity":87,"Duration":312500,"SoundDuration":312500,"Delta":121478888},{"NoteNumber":52,"Velocity":63,"Duration":312500,"SoundDuration":312500,"Delta":121478888},{"NoteNumber":62,"Velocity":63,"Duration":312500,"SoundDuration":312500,"Delta":121478888},{"NoteNumber":59,"Velocity":63,"Duration":312500,"SoundDuration":312500,"Delta":121478888},{"NoteNumber":80,"Velocity":72,"Duration":322580,"SoundDuration":322580,"Delta":121791388},{"NoteNumber":89,"Velocity":72,"Duration":322580,"SoundDuration":322580,"Delta":121791388},{"NoteNumber":77,"Velocity":72,"Duration":322580,"SoundDuration":322580,"Delta":121791388},{"NoteNumber":62,"Velocity":54,"Duration":322580,"SoundDuration":322580,"Delta":121791388},{"NoteNumber":52,"Velocity":54,"Duration":322580,"SoundDuration":322580,"Delta":121791388},{"NoteNumber":59,"Velocity":54,"Duration":322580,"SoundDuration":322580,"Delta":121791388},{"NoteNumber":80,"Velocity":72,"Duration":256410,"SoundDuration":256410,"Delta":122113969},{"NoteNumber":77,"Velocity":72,"Duration":256410,"SoundDuration":256410,"Delta":122113969},{"NoteNumber":89,"Velocity":72,"Duration":256410,"SoundDuration":256410,"Delta":122113969},{"NoteNumber":59,"Velocity":54,"Duration":341880,"SoundDuration":341880,"Delta":122113969},{"NoteNumber":52,"Velocity":54,"Duration":341880,"SoundDuration":341880,"Delta":122113969},{"NoteNumber":62,"Velocity":54,"Duration":341880,"SoundDuration":341880,"Delta":122113969},{"NoteNumber":89,"Velocity":76,"Duration":1777777,"SoundDuration":1777777,"Delta":122455849},{"NoteNumber":77,"Velocity":76,"Duration":1777777,"SoundDuration":1777777,"Delta":122455849},{"NoteNumber":80,"Velocity":76,"Duration":1777777,"SoundDuration":1777777,"Delta":122455849},{"NoteNumber":52,"Velocity":60,"Duration":1777777,"SoundDuration":1777777,"Delta":122455849},{"NoteNumber":59,"Velocity":60,"Duration":1777777,"SoundDuration":1777777,"Delta":122455849},{"NoteNumber":62,"Velocity":60,"Duration":1777777,"SoundDuration":1777777,"Delta":122455849},{"NoteNumber":79,"Velocity":65,"Duration":296296,"SoundDuration":296296,"Delta":124233627},{"NoteNumber":52,"Velocity":46,"Duration":858038,"SoundDuration":858038,"Delta":124233627},{"NoteNumber":60,"Velocity":46,"Duration":858038,"SoundDuration":858038,"Delta":124233627},{"NoteNumber":89,"Velocity":58,"Duration":136986,"SoundDuration":136986,"Delta":124529924},{"NoteNumber":88,"Velocity":49,"Duration":143884,"SoundDuration":143884,"Delta":124803896},{"NoteNumber":77,"Velocity":58,"Duration":296296,"SoundDuration":296296,"Delta":125091666},{"NoteNumber":55,"Velocity":38,"Duration":894143,"SoundDuration":894143,"Delta":125091666},{"NoteNumber":59,"Velocity":38,"Duration":894143,"SoundDuration":894143,"Delta":125091666},{"NoteNumber":88,"Velocity":51,"Duration":143884,"SoundDuration":143884,"Delta":125387962},{"NoteNumber":86,"Velocity":48,"Duration":155038,"SoundDuration":155038,"Delta":125675732},{"NoteNumber":84,"Velocity":50,"Duration":465116,"SoundDuration":465116,"Delta":125985810},{"NoteNumber":76,"Velocity":50,"Duration":465116,"SoundDuration":465116,"Delta":125985810},{"NoteNumber":60,"Velocity":37,"Duration":465116,"SoundDuration":465116,"Delta":125985810},{"NoteNumber":72,"Velocity":21,"Duration":1735888,"SoundDuration":1735888,"Delta":126916043},{"NoteNumber":76,"Velocity":26,"Duration":580645,"SoundDuration":580645,"Delta":126916043},{"NoteNumber":60,"Velocity":21,"Duration":1735888,"SoundDuration":1735888,"Delta":126916043},{"NoteNumber":67,"Velocity":21,"Duration":774193,"SoundDuration":774193,"Delta":126916043},{"NoteNumber":77,"Velocity":23,"Duration":96774,"SoundDuration":96774,"Delta":127496688},{"NoteNumber":76,"Velocity":23,"Duration":96774,"SoundDuration":96774,"Delta":127593462},{"NoteNumber":75,"Velocity":29,"Duration":580645,"SoundDuration":580645,"Delta":127690237},{"NoteNumber":66,"Velocity":17,"Duration":768145,"SoundDuration":768145,"Delta":127690237},{"NoteNumber":69,"Velocity":17,"Duration":768145,"SoundDuration":768145,"Delta":127690237},{"NoteNumber":76,"Velocity":22,"Duration":93750,"SoundDuration":93750,"Delta":128270882},{"NoteNumber":77,"Velocity":22,"Duration":93750,"SoundDuration":93750,"Delta":128364632},{"NoteNumber":76,"Velocity":26,"Duration":193548,"SoundDuration":193548,"Delta":128458382},{"NoteNumber":67,"Velocity":21,"Duration":193548,"SoundDuration":193548,"Delta":128458382},{"NoteNumber":67,"Velocity":48,"Duration":301386,"SoundDuration":301386,"Delta":129286656},{"NoteNumber":48,"Velocity":45,"Duration":1732408,"SoundDuration":1732408,"Delta":129286656},{"NoteNumber":40,"Velocity":45,"Duration":1732408,"SoundDuration":1732408,"Delta":129286656},{"NoteNumber":72,"Velocity":40,"Duration":288600,"SoundDuration":288600,"Delta":129588042},{"NoteNumber":72,"Velocity":40,"Duration":216450,"SoundDuration":216450,"Delta":129876642},{"NoteNumber":72,"Velocity":50,"Duration":292654,"SoundDuration":292654,"Delta":130165243},{"NoteNumber":76,"Velocity":39,"Duration":280583,"SoundDuration":280583,"Delta":130457897},{"NoteNumber":52,"Velocity":37,"Duration":420875,"SoundDuration":420875,"Delta":130598189},{"NoteNumber":76,"Velocity":39,"Duration":210437,"SoundDuration":210437,"Delta":130738481},{"NoteNumber":76,"Velocity":52,"Duration":286492,"SoundDuration":286492,"Delta":131019064},{"NoteNumber":55,"Velocity":45,"Duration":869969,"SoundDuration":869969,"Delta":131019064},{"NoteNumber":79,"Velocity":43,"Duration":280583,"SoundDuration":280583,"Delta":131305556},{"NoteNumber":79,"Velocity":43,"Duration":221592,"SoundDuration":221592,"Delta":131586140},{"NoteNumber":40,"Velocity":35,"Duration":1060230,"SoundDuration":1060230,"Delta":131726432},{"NoteNumber":49,"Velocity":40,"Duration":978930,"SoundDuration":978930,"Delta":131807733},{"NoteNumber":73,"Velocity":56,"Duration":657629,"SoundDuration":657629,"Delta":131889033},{"NoteNumber":70,"Velocity":56,"Duration":657629,"SoundDuration":657629,"Delta":131889033},{"NoteNumber":79,"Velocity":56,"Duration":284495,"SoundDuration":284495,"Delta":131889033},{"NoteNumber":58,"Velocity":48,"Duration":897629,"SoundDuration":897629,"Delta":131889033},{"NoteNumber":82,"Velocity":46,"Duration":298507,"SoundDuration":298507,"Delta":132173528},{"NoteNumber":82,"Velocity":46,"Duration":234626,"SoundDuration":234626,"Delta":132472036},{"NoteNumber":70,"Velocity":55,"Duration":240000,"SoundDuration":240000,"Delta":132546663},{"NoteNumber":73,"Velocity":55,"Duration":240000,"SoundDuration":240000,"Delta":132546663},{"NoteNumber":70,"Velocity":67,"Duration":294117,"SoundDuration":294117,"Delta":132786663},{"NoteNumber":50,"Velocity":58,"Duration":1711319,"SoundDuration":1711319,"Delta":132786663},{"NoteNumber":41,"Velocity":58,"Duration":1711319,"SoundDuration":1711319,"Delta":132786663},{"NoteNumber":74,"Velocity":56,"Duration":281689,"SoundDuration":281689,"Delta":133080780},{"NoteNumber":74,"Velocity":52,"Duration":211267,"SoundDuration":211267,"Delta":133362470},{"NoteNumber":74,"Velocity":61,"Duration":292654,"SoundDuration":292654,"Delta":133644160},{"NoteNumber":77,"Velocity":55,"Duration":280583,"SoundDuration":280583,"Delta":133936815},{"NoteNumber":53,"Velocity":48,"Duration":420875,"SoundDuration":420875,"Delta":134077106},{"NoteNumber":77,"Velocity":55,"Duration":210437,"SoundDuration":210437,"Delta":134217398},{"NoteNumber":77,"Velocity":68,"Duration":296296,"SoundDuration":296296,"Delta":134497982},{"NoteNumber":58,"Velocity":54,"Duration":871835,"SoundDuration":871835,"Delta":134497982},{"NoteNumber":82,"Velocity":63,"Duration":287769,"SoundDuration":287769,"Delta":134794278},{"NoteNumber":82,"Velocity":64,"Duration":215827,"SoundDuration":215827,"Delta":135082048},{"NoteNumber":82,"Velocity":88,"Duration":312500,"SoundDuration":312500,"Delta":135369818},{"NoteNumber":50,"Velocity":65,"Duration":312500,"SoundDuration":312500,"Delta":135369818},{"NoteNumber":58,"Velocity":65,"Duration":312500,"SoundDuration":312500,"Delta":135369818},{"NoteNumber":86,"Velocity":79,"Duration":322580,"SoundDuration":322580,"Delta":135682318},{"NoteNumber":77,"Velocity":79,"Duration":322580,"SoundDuration":322580,"Delta":135682318},{"NoteNumber":74,"Velocity":79,"Duration":322580,"SoundDuration":322580,"Delta":135682318},{"NoteNumber":58,"Velocity":56,"Duration":322580,"SoundDuration":322580,"Delta":135682318},{"NoteNumber":50,"Velocity":56,"Duration":322580,"SoundDuration":322580,"Delta":135682318},{"NoteNumber":74,"Velocity":79,"Duration":256410,"SoundDuration":256410,"Delta":136004898},{"NoteNumber":77,"Velocity":79,"Duration":256410,"SoundDuration":256410,"Delta":136004898},{"NoteNumber":86,"Velocity":79,"Duration":256410,"SoundDuration":256410,"Delta":136004898},{"NoteNumber":50,"Velocity":56,"Duration":341880,"SoundDuration":341880,"Delta":136004898},{"NoteNumber":58,"Velocity":56,"Duration":341880,"SoundDuration":341880,"Delta":136004898},{"NoteNumber":87,"Velocity":96,"Duration":1777778,"SoundDuration":1777778,"Delta":136346779},{"NoteNumber":75,"Velocity":96,"Duration":1777778,"SoundDuration":1777778,"Delta":136346779},{"NoteNumber":78,"Velocity":96,"Duration":1777778,"SoundDuration":1777778,"Delta":136346779},{"NoteNumber":50,"Velocity":63,"Duration":1777778,"SoundDuration":1777778,"Delta":136346779},{"NoteNumber":57,"Velocity":63,"Duration":1777778,"SoundDuration":1777778,"Delta":136346779},{"NoteNumber":60,"Velocity":63,"Duration":1777778,"SoundDuration":1777778,"Delta":136346779},{"NoteNumber":77,"Velocity":65,"Duration":296296,"SoundDuration":296296,"Delta":138124557},{"NoteNumber":58,"Velocity":46,"Duration":858038,"SoundDuration":858038,"Delta":138124557},{"NoteNumber":50,"Velocity":46,"Duration":858038,"SoundDuration":858038,"Delta":138124557},{"NoteNumber":87,"Velocity":58,"Duration":136986,"SoundDuration":136986,"Delta":138420853},{"NoteNumber":86,"Velocity":49,"Duration":143884,"SoundDuration":143884,"Delta":138694826},{"NoteNumber":77,"Velocity":58,"Duration":296296,"SoundDuration":296296,"Delta":138982595},{"NoteNumber":57,"Velocity":38,"Duration":906646,"SoundDuration":906646,"Delta":138982595},{"NoteNumber":45,"Velocity":38,"Duration":906646,"SoundDuration":906646,"Delta":138982595},{"NoteNumber":53,"Velocity":38,"Duration":906646,"SoundDuration":906646,"Delta":138982595},{"NoteNumber":86,"Velocity":51,"Duration":143884,"SoundDuration":143884,"Delta":139278892},{"NoteNumber":84,"Velocity":48,"Duration":161290,"SoundDuration":161290,"Delta":139566661},{"NoteNumber":85,"Velocity":93,"Duration":1777778,"SoundDuration":1777778,"Delta":139889242},{"NoteNumber":73,"Velocity":93,"Duration":1777778,"SoundDuration":1777778,"Delta":139889242},{"NoteNumber":76,"Velocity":93,"Duration":1777778,"SoundDuration":1777778,"Delta":139889242},{"NoteNumber":45,"Velocity":66,"Duration":1777778,"SoundDuration":1777778,"Delta":139889242},{"NoteNumber":58,"Velocity":66,"Duration":1777778,"SoundDuration":1777778,"Delta":139889242},{"NoteNumber":55,"Velocity":66,"Duration":1777778,"SoundDuration":1777778,"Delta":139889242},{"NoteNumber":72,"Velocity":65,"Duration":296296,"SoundDuration":296296,"Delta":141667020},{"NoteNumber":53,"Velocity":54,"Duration":858038,"SoundDuration":858038,"Delta":141667020},{"NoteNumber":57,"Velocity":54,"Duration":858038,"SoundDuration":858038,"Delta":141667020},{"NoteNumber":45,"Velocity":54,"Duration":858038,"SoundDuration":858038,"Delta":141667020},{"NoteNumber":85,"Velocity":58,"Duration":136986,"SoundDuration":136986,"Delta":141963316},{"NoteNumber":84,"Velocity":49,"Duration":143884,"SoundDuration":143884,"Delta":142237289},{"NoteNumber":72,"Velocity":58,"Duration":296296,"SoundDuration":296296,"Delta":142525059},{"NoteNumber":41,"Velocity":38,"Duration":908596,"SoundDuration":908596,"Delta":142525059},{"NoteNumber":53,"Velocity":38,"Duration":908596,"SoundDuration":908596,"Delta":142525059},{"NoteNumber":48,"Velocity":38,"Duration":908596,"SoundDuration":908596,"Delta":142525059},{"NoteNumber":82,"Velocity":51,"Duration":143884,"SoundDuration":143884,"Delta":142821355},{"NoteNumber":81,"Velocity":48,"Duration":155038,"SoundDuration":155038,"Delta":143109125},{"NoteNumber":40,"Velocity":35,"Duration":1888114,"SoundDuration":1888114,"Delta":143264163},{"NoteNumber":48,"Velocity":40,"Duration":1803368,"SoundDuration":1803368,"Delta":143348909},{"NoteNumber":86,"Velocity":54,"Duration":294811,"SoundDuration":294811,"Delta":143433655},{"NoteNumber":60,"Velocity":45,"Duration":1297747,"SoundDuration":1297747,"Delta":143433655},{"NoteNumber":84,"Velocity":44,"Duration":275861,"SoundDuration":275861,"Delta":143728466},{"NoteNumber":84,"Velocity":41,"Duration":218977,"SoundDuration":218977,"Delta":144004328},{"NoteNumber":84,"Velocity":51,"Duration":294811,"SoundDuration":294811,"Delta":144296299},{"NoteNumber":82,"Velocity":42,"Duration":280583,"SoundDuration":280583,"Delta":144591110},{"NoteNumber":58,"Velocity":40,"Duration":420875,"SoundDuration":420875,"Delta":144731402},{"NoteNumber":82,"Velocity":42,"Duration":210437,"SoundDuration":210437,"Delta":144871694},{"NoteNumber":82,"Velocity":50,"Duration":294811,"SoundDuration":294811,"Delta":145152278},{"NoteNumber":55,"Velocity":45,"Duration":867192,"SoundDuration":867192,"Delta":145152278},{"NoteNumber":79,"Velocity":42,"Duration":282525,"SoundDuration":282525,"Delta":145447089},{"NoteNumber":79,"Velocity":42,"Duration":217391,"SoundDuration":217391,"Delta":145729615},{"NoteNumber":79,"Velocity":48,"Duration":288600,"SoundDuration":288600,"Delta":146019470},{"NoteNumber":57,"Velocity":40,"Duration":885885,"SoundDuration":885885,"Delta":146019470},{"NoteNumber":81,"Velocity":42,"Duration":276778,"SoundDuration":276778,"Delta":146308070},{"NoteNumber":81,"Velocity":42,"Duration":235036,"SoundDuration":235036,"Delta":146584848},{"NoteNumber":38,"Velocity":38,"Duration":1729623,"SoundDuration":1729623,"Delta":146734415},{"NoteNumber":45,"Velocity":40,"Duration":1725453,"SoundDuration":1725453,"Delta":146819885},{"NoteNumber":69,"Velocity":48,"Duration":287769,"SoundDuration":287769,"Delta":146905355},{"NoteNumber":53,"Velocity":45,"Duration":1721284,"SoundDuration":1721284,"Delta":146905355},{"NoteNumber":77,"Velocity":43,"Duration":281689,"SoundDuration":281689,"Delta":147193124},{"NoteNumber":77,"Velocity":43,"Duration":211894,"SoundDuration":211894,"Delta":147474814},{"NoteNumber":79,"Velocity":48,"Duration":285714,"SoundDuration":285714,"Delta":147757340},{"NoteNumber":77,"Velocity":42,"Duration":279720,"SoundDuration":279720,"Delta":148043054},{"NoteNumber":77,"Velocity":42,"Duration":222563,"SoundDuration":222563,"Delta":148322775},{"NoteNumber":40,"Velocity":35,"Duration":1759789,"SoundDuration":1759789,"Delta":148464038},{"NoteNumber":48,"Velocity":37,"Duration":1783751,"SoundDuration":1783751,"Delta":148545338},{"NoteNumber":76,"Velocity":48,"Duration":288600,"SoundDuration":288600,"Delta":148626639},{"NoteNumber":55,"Velocity":40,"Duration":1807713,"SoundDuration":1807713,"Delta":148626639},{"NoteNumber":82,"Velocity":43,"Duration":281689,"SoundDuration":281689,"Delta":148915240},{"NoteNumber":82,"Velocity":44,"Duration":211789,"SoundDuration":211789,"Delta":149196930},{"NoteNumber":84,"Velocity":48,"Duration":294117,"SoundDuration":294117,"Delta":149479351},{"NoteNumber":82,"Velocity":42,"Duration":292654,"SoundDuration":292654,"Delta":149773468},{"NoteNumber":82,"Velocity":41,"Duration":262967,"SoundDuration":262967,"Delta":150066123},{"NoteNumber":41,"Velocity":31,"Duration":443084,"SoundDuration":443084,"Delta":150223827},{"NoteNumber":48,"Velocity":31,"Duration":337821,"SoundDuration":337821,"Delta":150329090},{"NoteNumber":81,"Velocity":40,"Duration":232558,"SoundDuration":232558,"Delta":150434353},{"NoteNumber":57,"Velocity":36,"Duration":232558,"SoundDuration":232558,"Delta":150434353},{"NoteNumber":69,"Velocity":26,"Duration":580645,"SoundDuration":580645,"Delta":151364586},{"NoteNumber":65,"Velocity":21,"Duration":1739454,"SoundDuration":1739454,"Delta":151364586},{"NoteNumber":60,"Velocity":21,"Duration":774193,"SoundDuration":774193,"Delta":151364586},{"NoteNumber":53,"Velocity":21,"Duration":1739454,"SoundDuration":1739454,"Delta":151364586},{"NoteNumber":70,"Velocity":23,"Duration":96774,"SoundDuration":96774,"Delta":151945231},{"NoteNumber":69,"Velocity":23,"Duration":96774,"SoundDuration":96774,"Delta":152042006},{"NoteNumber":68,"Velocity":29,"Duration":579404,"SoundDuration":579404,"Delta":152138780},{"NoteNumber":59,"Velocity":17,"Duration":771712,"SoundDuration":771712,"Delta":152138780},{"NoteNumber":62,"Velocity":17,"Duration":771712,"SoundDuration":771712,"Delta":152138780},{"NoteNumber":69,"Velocity":22,"Duration":96153,"SoundDuration":96153,"Delta":152718185},{"NoteNumber":70,"Velocity":22,"Duration":96153,"SoundDuration":96153,"Delta":152814339},{"NoteNumber":69,"Velocity":26,"Duration":193548,"SoundDuration":193548,"Delta":152910492},{"NoteNumber":60,"Velocity":21,"Duration":193548,"SoundDuration":193548,"Delta":152910492},{"NoteNumber":52,"Velocity":35,"Duration":1888114,"SoundDuration":1888114,"Delta":153610089},{"NoteNumber":60,"Velocity":40,"Duration":1803368,"SoundDuration":1803368,"Delta":153694835},{"NoteNumber":98,"Velocity":54,"Duration":294811,"SoundDuration":294811,"Delta":153779581},{"NoteNumber":72,"Velocity":45,"Duration":1297747,"SoundDuration":1297747,"Delta":153779581},{"NoteNumber":96,"Velocity":44,"Duration":275861,"SoundDuration":275861,"Delta":154074392},{"NoteNumber":96,"Velocity":41,"Duration":218977,"SoundDuration":218977,"Delta":154350254},{"NoteNumber":96,"Velocity":51,"Duration":294811,"SoundDuration":294811,"Delta":154642225},{"NoteNumber":94,"Velocity":42,"Duration":280583,"SoundDuration":280583,"Delta":154937036},{"NoteNumber":70,"Velocity":40,"Duration":420875,"SoundDuration":420875,"Delta":155077328},{"NoteNumber":94,"Velocity":42,"Duration":210437,"SoundDuration":210437,"Delta":155217620},{"NoteNumber":94,"Velocity":50,"Duration":294811,"SoundDuration":294811,"Delta":155498204},{"NoteNumber":67,"Velocity":45,"Duration":867192,"SoundDuration":867192,"Delta":155498204},{"NoteNumber":91,"Velocity":42,"Duration":282525,"SoundDuration":282525,"Delta":155793015},{"NoteNumber":91,"Velocity":42,"Duration":217391,"SoundDuration":217391,"Delta":156075541},{"NoteNumber":91,"Velocity":48,"Duration":288600,"SoundDuration":288600,"Delta":156365396},{"NoteNumber":69,"Velocity":40,"Duration":885885,"SoundDuration":885885,"Delta":156365396},{"NoteNumber":93,"Velocity":42,"Duration":276778,"SoundDuration":276778,"Delta":156653996},{"NoteNumber":93,"Velocity":42,"Duration":235036,"SoundDuration":235036,"Delta":156930774},{"NoteNumber":50,"Velocity":38,"Duration":1729623,"SoundDuration":1729623,"Delta":157080341},{"NoteNumber":57,"Velocity":40,"Duration":1725453,"SoundDuration":1725453,"Delta":157165811},{"NoteNumber":81,"Velocity":48,"Duration":287769,"SoundDuration":287769,"Delta":157251281},{"NoteNumber":65,"Velocity":45,"Duration":1721284,"SoundDuration":1721284,"Delta":157251281},{"NoteNumber":89,"Velocity":43,"Duration":281689,"SoundDuration":281689,"Delta":157539050},{"NoteNumber":89,"Velocity":43,"Duration":211894,"SoundDuration":211894,"Delta":157820740},{"NoteNumber":91,"Velocity":48,"Duration":285714,"SoundDuration":285714,"Delta":158103266},{"NoteNumber":89,"Velocity":42,"Duration":279720,"SoundDuration":279720,"Delta":158388980},{"NoteNumber":89,"Velocity":42,"Duration":222563,"SoundDuration":222563,"Delta":158668701},{"NoteNumber":48,"Velocity":35,"Duration":1939165,"SoundDuration":1939165,"Delta":158809964},{"NoteNumber":58,"Velocity":37,"Duration":1857864,"SoundDuration":1857864,"Delta":158891264},{"NoteNumber":82,"Velocity":48,"Duration":288600,"SoundDuration":288600,"Delta":158972565},{"NoteNumber":64,"Velocity":40,"Duration":1776563,"SoundDuration":1776563,"Delta":158972565},{"NoteNumber":91,"Velocity":43,"Duration":281689,"SoundDuration":281689,"Delta":159261166},{"NoteNumber":91,"Velocity":44,"Duration":211789,"SoundDuration":211789,"Delta":159542856},{"NoteNumber":94,"Velocity":48,"Duration":300752,"SoundDuration":300752,"Delta":159825277},{"NoteNumber":93,"Velocity":42,"Duration":307692,"SoundDuration":307692,"Delta":160126029},{"NoteNumber":91,"Velocity":41,"Duration":236555,"SoundDuration":236555,"Delta":160433721},{"NoteNumber":89,"Velocity":40,"Duration":232558,"SoundDuration":232558,"Delta":160749129},{"NoteNumber":65,"Velocity":36,"Duration":232558,"SoundDuration":232558,"Delta":160749129},{"NoteNumber":57,"Velocity":31,"Duration":232558,"SoundDuration":232558,"Delta":160749129},{"NoteNumber":53,"Velocity":31,"Duration":232558,"SoundDuration":232558,"Delta":160749129},{"NoteNumber":65,"Velocity":21,"Duration":1741936,"SoundDuration":1741936,"Delta":161679362},{"NoteNumber":69,"Velocity":26,"Duration":580645,"SoundDuration":580645,"Delta":161679362},{"NoteNumber":53,"Velocity":21,"Duration":1741936,"SoundDuration":1741936,"Delta":161679362},{"NoteNumber":60,"Velocity":21,"Duration":774193,"SoundDuration":774193,"Delta":161679362},{"NoteNumber":70,"Velocity":23,"Duration":96774,"SoundDuration":96774,"Delta":162260007},{"NoteNumber":69,"Velocity":23,"Duration":96774,"SoundDuration":96774,"Delta":162356782},{"NoteNumber":68,"Velocity":29,"Duration":580645,"SoundDuration":580645,"Delta":162453556},{"NoteNumber":62,"Velocity":17,"Duration":774193,"SoundDuration":774193,"Delta":162453556},{"NoteNumber":59,"Velocity":17,"Duration":774193,"SoundDuration":774193,"Delta":162453556},{"NoteNumber":69,"Velocity":22,"Duration":96774,"SoundDuration":96774,"Delta":163034201},{"NoteNumber":70,"Velocity":22,"Duration":96774,"SoundDuration":96774,"Delta":163130976},{"NoteNumber":69,"Velocity":26,"Duration":193548,"SoundDuration":193548,"Delta":163227750},{"NoteNumber":60,"Velocity":21,"Duration":193548,"SoundDuration":193548,"Delta":163227750},{"NoteNumber":72,"Velocity":32,"Duration":569620,"SoundDuration":569620,"Delta":164776138},{"NoteNumber":60,"Velocity":26,"Duration":569620,"SoundDuration":569620,"Delta":164776138},{"NoteNumber":73,"Velocity":27,"Duration":94936,"SoundDuration":94936,"Delta":165345758},{"NoteNumber":61,"Velocity":22,"Duration":94936,"SoundDuration":94936,"Delta":165345758},{"NoteNumber":72,"Velocity":27,"Duration":94936,"SoundDuration":94936,"Delta":165440695},{"NoteNumber":60,"Velocity":24,"Duration":94936,"SoundDuration":94936,"Delta":165440695},{"NoteNumber":71,"Velocity":38,"Duration":569620,"SoundDuration":569620,"Delta":165535632},{"NoteNumber":59,"Velocity":31,"Duration":569620,"SoundDuration":569620,"Delta":165535632},{"NoteNumber":72,"Velocity":27,"Duration":94936,"SoundDuration":94936,"Delta":166105252},{"NoteNumber":60,"Velocity":24,"Duration":94936,"SoundDuration":94936,"Delta":166105252},{"NoteNumber":73,"Velocity":27,"Duration":94936,"SoundDuration":94936,"Delta":166200189},{"NoteNumber":61,"Velocity":24,"Duration":94936,"SoundDuration":94936,"Delta":166200189},{"NoteNumber":72,"Velocity":32,"Duration":189873,"SoundDuration":189873,"Delta":166295126},{"NoteNumber":60,"Velocity":27,"Duration":189873,"SoundDuration":189873,"Delta":166295126},{"NoteNumber":71,"Velocity":50,"Duration":569620,"SoundDuration":569620,"Delta":167097408},{"NoteNumber":59,"Velocity":40,"Duration":569620,"SoundDuration":569620,"Delta":167097408},{"NoteNumber":72,"Velocity":46,"Duration":94936,"SoundDuration":94936,"Delta":167667028},{"NoteNumber":60,"Velocity":38,"Duration":94936,"SoundDuration":94936,"Delta":167667028},{"NoteNumber":73,"Velocity":46,"Duration":94936,"SoundDuration":94936,"Delta":167761965},{"NoteNumber":61,"Velocity":42,"Duration":94936,"SoundDuration":94936,"Delta":167761965},{"NoteNumber":72,"Velocity":68,"Duration":569620,"SoundDuration":569620,"Delta":167856902},{"NoteNumber":60,"Velocity":55,"Duration":569620,"SoundDuration":569620,"Delta":167856902},{"NoteNumber":70,"Velocity":56,"Duration":94936,"SoundDuration":94936,"Delta":168426522},{"NoteNumber":58,"Velocity":49,"Duration":94936,"SoundDuration":94936,"Delta":168426522},{"NoteNumber":68,"Velocity":57,"Duration":94936,"SoundDuration":94936,"Delta":168521459},{"NoteNumber":56,"Velocity":50,"Duration":94936,"SoundDuration":94936,"Delta":168521459},{"NoteNumber":67,"Velocity":73,"Duration":567836,"SoundDuration":567836,"Delta":168616396},{"NoteNumber":55,"Velocity":61,"Duration":567836,"SoundDuration":567836,"Delta":168616396},{"NoteNumber":68,"Velocity":60,"Duration":95339,"SoundDuration":95339,"Delta":169184232},{"NoteNumber":56,"Velocity":48,"Duration":95339,"SoundDuration":95339,"Delta":169184232},{"NoteNumber":70,"Velocity":60,"Duration":95949,"SoundDuration":95949,"Delta":169279572},{"NoteNumber":58,"Velocity":53,"Duration":95949,"SoundDuration":95949,"Delta":169279572},{"NoteNumber":68,"Velocity":70,"Duration":608724,"SoundDuration":608724,"Delta":169375522},{"NoteNumber":56,"Velocity":60,"Duration":608724,"SoundDuration":608724,"Delta":169375522},{"NoteNumber":67,"Velocity":66,"Duration":145506,"SoundDuration":145506,"Delta":169984246},{"NoteNumber":55,"Velocity":54,"Duration":145506,"SoundDuration":145506,"Delta":169984246},{"NoteNumber":65,"Velocity":58,"Duration":161290,"SoundDuration":161290,"Delta":170129753},{"NoteNumber":53,"Velocity":50,"Duration":161290,"SoundDuration":161290,"Delta":170129753},{"NoteNumber":60,"Velocity":50,"Duration":1568627,"SoundDuration":1568627,"Delta":170291043},{"NoteNumber":53,"Velocity":34,"Duration":3087615,"SoundDuration":3087615,"Delta":170291043},{"NoteNumber":48,"Velocity":34,"Duration":3087615,"SoundDuration":3087615,"Delta":170291043},{"NoteNumber":57,"Velocity":34,"Duration":3087615,"SoundDuration":3087615,"Delta":170291043},{"NoteNumber":72,"Velocity":58,"Duration":569620,"SoundDuration":569620,"Delta":171859671},{"NoteNumber":74,"Velocity":53,"Duration":94936,"SoundDuration":94936,"Delta":172429292},{"NoteNumber":76,"Velocity":53,"Duration":94936,"SoundDuration":94936,"Delta":172524229},{"NoteNumber":77,"Velocity":63,"Duration":569620,"SoundDuration":569620,"Delta":172619165},{"NoteNumber":79,"Velocity":58,"Duration":94936,"SoundDuration":94936,"Delta":173188786},{"NoteNumber":81,"Velocity":64,"Duration":94936,"SoundDuration":94936,"Delta":173283723},{"NoteNumber":73,"Velocity":76,"Duration":1578947,"SoundDuration":1578947,"Delta":173378659},{"NoteNumber":70,"Velocity":76,"Duration":1578947,"SoundDuration":1578947,"Delta":173378659},{"NoteNumber":82,"Velocity":76,"Duration":1578947,"SoundDuration":1578947,"Delta":173378659},{"NoteNumber":55,"Velocity":52,"Duration":3301370,"SoundDuration":3301370,"Delta":173378659},{"NoteNumber":52,"Velocity":52,"Duration":3301370,"SoundDuration":3301370,"Delta":173378659},{"NoteNumber":45,"Velocity":52,"Duration":3301370,"SoundDuration":3301370,"Delta":173378659},{"NoteNumber":82,"Velocity":37,"Duration":82236,"SoundDuration":82236,"Delta":174957607},{"NoteNumber":73,"Velocity":32,"Duration":1722422,"SoundDuration":1722422,"Delta":174957607},{"NoteNumber":84,"Velocity":32,"Duration":82236,"SoundDuration":82236,"Delta":175039844},{"NoteNumber":82,"Velocity":36,"Duration":82236,"SoundDuration":82236,"Delta":175122081},{"NoteNumber":84,"Velocity":32,"Duration":82236,"SoundDuration":82236,"Delta":175204318},{"NoteNumber":82,"Velocity":36,"Duration":65789,"SoundDuration":65789,"Delta":175286555},{"NoteNumber":84,"Velocity":32,"Duration":65789,"SoundDuration":65789,"Delta":175352344},{"NoteNumber":82,"Velocity":36,"Duration":65789,"SoundDuration":65789,"Delta":175418134},{"NoteNumber":84,"Velocity":32,"Duration":65789,"SoundDuration":65789,"Delta":175483923},{"NoteNumber":81,"Velocity":36,"Duration":107142,"SoundDuration":107142,"Delta":175549713},{"NoteNumber":82,"Velocity":32,"Duration":107142,"SoundDuration":107142,"Delta":175656856},{"NoteNumber":88,"Velocity":45,"Duration":458015,"SoundDuration":458015,"Delta":175763999},{"NoteNumber":82,"Velocity":40,"Duration":229007,"SoundDuration":229007,"Delta":176222014},{"NoteNumber":81,"Velocity":37,"Duration":82236,"SoundDuration":82236,"Delta":176680030},{"NoteNumber":72,"Velocity":37,"Duration":1722422,"SoundDuration":1722422,"Delta":176680030},{"NoteNumber":45,"Velocity":41,"Duration":1722422,"SoundDuration":1722422,"Delta":176680030},{"NoteNumber":53,"Velocity":41,"Duration":1722422,"SoundDuration":1722422,"Delta":176680030},{"NoteNumber":82,"Velocity":32,"Duration":82236,"SoundDuration":82236,"Delta":176762266},{"NoteNumber":81,"Velocity":36,"Duration":82236,"SoundDuration":82236,"Delta":176844503},{"NoteNumber":82,"Velocity":32,"Duration":82236,"SoundDuration":82236,"Delta":176926740},{"NoteNumber":81,"Velocity":36,"Duration":65789,"SoundDuration":65789,"Delta":177008977},{"NoteNumber":82,"Velocity":32,"Duration":65789,"SoundDuration":65789,"Delta":177074767},{"NoteNumber":81,"Velocity":36,"Duration":65789,"SoundDuration":65789,"Delta":177140556},{"NoteNumber":82,"Velocity":32,"Duration":65789,"SoundDuration":65789,"Delta":177206346},{"NoteNumber":80,"Velocity":36,"Duration":107142,"SoundDuration":107142,"Delta":177272135},{"NoteNumber":81,"Velocity":32,"Duration":107142,"SoundDuration":107142,"Delta":177379278},{"NoteNumber":84,"Velocity":45,"Duration":458015,"SoundDuration":458015,"Delta":177486421},{"NoteNumber":81,"Velocity":40,"Duration":229007,"SoundDuration":229007,"Delta":177944436},{"NoteNumber":72,"Velocity":37,"Duration":1722422,"SoundDuration":1722422,"Delta":178402452},{"NoteNumber":79,"Velocity":37,"Duration":82236,"SoundDuration":82236,"Delta":178402452},{"NoteNumber":48,"Velocity":41,"Duration":1722422,"SoundDuration":1722422,"Delta":178402452},{"NoteNumber":58,"Velocity":41,"Duration":1722422,"SoundDuration":1722422,"Delta":178402452},{"NoteNumber":55,"Velocity":41,"Duration":1722422,"SoundDuration":1722422,"Delta":178402452},{"NoteNumber":81,"Velocity":32,"Duration":82236,"SoundDuration":82236,"Delta":178484689},{"NoteNumber":79,"Velocity":36,"Duration":82236,"SoundDuration":82236,"Delta":178566926},{"NoteNumber":81,"Velocity":32,"Duration":82236,"SoundDuration":82236,"Delta":178649162},{"NoteNumber":79,"Velocity":36,"Duration":65789,"SoundDuration":65789,"Delta":178731399},{"NoteNumber":81,"Velocity":32,"Duration":65789,"SoundDuration":65789,"Delta":178797189},{"NoteNumber":79,"Velocity":36,"Duration":65789,"SoundDuration":65789,"Delta":178862978},{"NoteNumber":81,"Velocity":32,"Duration":65789,"SoundDuration":65789,"Delta":178928768},{"NoteNumber":78,"Velocity":36,"Duration":107142,"SoundDuration":107142,"Delta":178994557},{"NoteNumber":79,"Velocity":32,"Duration":107142,"SoundDuration":107142,"Delta":179101700},{"NoteNumber":82,"Velocity":45,"Duration":458015,"SoundDuration":458015,"Delta":179208843},{"NoteNumber":79,"Velocity":40,"Duration":229007,"SoundDuration":229007,"Delta":179666859},{"NoteNumber":72,"Velocity":32,"Duration":569620,"SoundDuration":569620,"Delta":180930243},{"NoteNumber":60,"Velocity":26,"Duration":569620,"SoundDuration":569620,"Delta":180930243},{"NoteNumber":73,"Velocity":27,"Duration":94936,"SoundDuration":94936,"Delta":181499864},{"NoteNumber":61,"Velocity":22,"Duration":94936,"SoundDuration":94936,"Delta":181499864},{"NoteNumber":72,"Velocity":27,"Duration":94936,"SoundDuration":94936,"Delta":181594800},{"NoteNumber":60,"Velocity":24,"Duration":94936,"SoundDuration":94936,"Delta":181594800},{"NoteNumber":71,"Velocity":38,"Duration":569620,"SoundDuration":569620,"Delta":181689737},{"NoteNumber":59,"Velocity":31,"Duration":569620,"SoundDuration":569620,"Delta":181689737},{"NoteNumber":72,"Velocity":27,"Duration":94936,"SoundDuration":94936,"Delta":182259358},{"NoteNumber":60,"Velocity":24,"Duration":94936,"SoundDuration":94936,"Delta":182259358},{"NoteNumber":73,"Velocity":27,"Duration":94936,"SoundDuration":94936,"Delta":182354294},{"NoteNumber":61,"Velocity":24,"Duration":94936,"SoundDuration":94936,"Delta":182354294},{"NoteNumber":72,"Velocity":32,"Duration":189873,"SoundDuration":189873,"Delta":182449231},{"NoteNumber":60,"Velocity":27,"Duration":189873,"SoundDuration":189873,"Delta":182449231},{"NoteNumber":71,"Velocity":50,"Duration":569620,"SoundDuration":569620,"Delta":183251513},{"NoteNumber":59,"Velocity":40,"Duration":569620,"SoundDuration":569620,"Delta":183251513},{"NoteNumber":72,"Velocity":46,"Duration":94936,"SoundDuration":94936,"Delta":183821134},{"NoteNumber":60,"Velocity":38,"Duration":94936,"SoundDuration":94936,"Delta":183821134},{"NoteNumber":73,"Velocity":46,"Duration":94936,"SoundDuration":94936,"Delta":183916070},{"NoteNumber":61,"Velocity":42,"Duration":94936,"SoundDuration":94936,"Delta":183916070},{"NoteNumber":72,"Velocity":68,"Duration":569620,"SoundDuration":569620,"Delta":184011007},{"NoteNumber":60,"Velocity":55,"Duration":569620,"SoundDuration":569620,"Delta":184011007},{"NoteNumber":70,"Velocity":56,"Duration":94936,"SoundDuration":94936,"Delta":184580628},{"NoteNumber":58,"Velocity":49,"Duration":94936,"SoundDuration":94936,"Delta":184580628},{"NoteNumber":68,"Velocity":57,"Duration":94936,"SoundDuration":94936,"Delta":184675564},{"NoteNumber":56,"Velocity":50,"Duration":94936,"SoundDuration":94936,"Delta":184675564},{"NoteNumber":67,"Velocity":73,"Duration":567836,"SoundDuration":567836,"Delta":184770501},{"NoteNumber":55,"Velocity":61,"Duration":567836,"SoundDuration":567836,"Delta":184770501},{"NoteNumber":68,"Velocity":60,"Duration":95339,"SoundDuration":95339,"Delta":185338338},{"NoteNumber":56,"Velocity":48,"Duration":95339,"SoundDuration":95339,"Delta":185338338},{"NoteNumber":70,"Velocity":60,"Duration":95949,"SoundDuration":95949,"Delta":185433678},{"NoteNumber":58,"Velocity":53,"Duration":95949,"SoundDuration":95949,"Delta":185433678},{"NoteNumber":68,"Velocity":70,"Duration":608724,"SoundDuration":608724,"Delta":185529627},{"NoteNumber":56,"Velocity":60,"Duration":608724,"SoundDuration":608724,"Delta":185529627},{"NoteNumber":67,"Velocity":66,"Duration":128205,"SoundDuration":128205,"Delta":186138352},{"NoteNumber":55,"Velocity":54,"Duration":128205,"SoundDuration":128205,"Delta":186138352},{"NoteNumber":65,"Velocity":58,"Duration":151515,"SoundDuration":151515,"Delta":186266557},{"NoteNumber":53,"Velocity":50,"Duration":151515,"SoundDuration":151515,"Delta":186266557},{"NoteNumber":63,"Velocity":77,"Duration":1568627,"SoundDuration":1568627,"Delta":186418072},{"NoteNumber":60,"Velocity":45,"Duration":3091290,"SoundDuration":3091290,"Delta":186418072},{"NoteNumber":56,"Velocity":45,"Duration":3091290,"SoundDuration":3091290,"Delta":186418072},{"NoteNumber":51,"Velocity":45,"Duration":3091290,"SoundDuration":3091290,"Delta":186418072},{"NoteNumber":75,"Velocity":67,"Duration":569620,"SoundDuration":569620,"Delta":187986700},{"NoteNumber":77,"Velocity":59,"Duration":94936,"SoundDuration":94936,"Delta":188556320},{"NoteNumber":79,"Velocity":59,"Duration":94936,"SoundDuration":94936,"Delta":188651257},{"NoteNumber":80,"Velocity":69,"Duration":569620,"SoundDuration":569620,"Delta":188746194},{"NoteNumber":82,"Velocity":70,"Duration":96774,"SoundDuration":96774,"Delta":189315814},{"NoteNumber":84,"Velocity":76,"Duration":96774,"SoundDuration":96774,"Delta":189412589},{"NoteNumber":85,"Velocity":83,"Duration":1578947,"SoundDuration":1578947,"Delta":189509363},{"NoteNumber":76,"Velocity":83,"Duration":1578947,"SoundDuration":1578947,"Delta":189509363},{"NoteNumber":73,"Velocity":83,"Duration":1578947,"SoundDuration":1578947,"Delta":189509363},{"NoteNumber":48,"Velocity":52,"Duration":3275009,"SoundDuration":3275009,"Delta":189509363},{"NoteNumber":55,"Velocity":64,"Duration":3275009,"SoundDuration":3275009,"Delta":189509363},{"NoteNumber":58,"Velocity":64,"Duration":3275009,"SoundDuration":3275009,"Delta":189509363},{"NoteNumber":76,"Velocity":40,"Duration":1696061,"SoundDuration":1696061,"Delta":191088311},{"NoteNumber":85,"Velocity":47,"Duration":82236,"SoundDuration":82236,"Delta":191088311},{"NoteNumber":87,"Velocity":40,"Duration":82236,"SoundDuration":82236,"Delta":191170548},{"NoteNumber":85,"Velocity":46,"Duration":82236,"SoundDuration":82236,"Delta":191252785},{"NoteNumber":87,"Velocity":40,"Duration":82236,"SoundDuration":82236,"Delta":191335022},{"NoteNumber":85,"Velocity":45,"Duration":65789,"SoundDuration":65789,"Delta":191417258},{"NoteNumber":87,"Velocity":40,"Duration":65789,"SoundDuration":65789,"Delta":191483048},{"NoteNumber":85,"Velocity":45,"Duration":65789,"SoundDuration":65789,"Delta":191548837},{"NoteNumber":87,"Velocity":40,"Duration":65789,"SoundDuration":65789,"Delta":191614627},{"NoteNumber":84,"Velocity":45,"Duration":107142,"SoundDuration":107142,"Delta":191680416},{"NoteNumber":85,"Velocity":40,"Duration":107142,"SoundDuration":107142,"Delta":191787559},{"NoteNumber":91,"Velocity":53,"Duration":458015,"SoundDuration":458015,"Delta":191894702},{"NoteNumber":85,"Velocity":50,"Duration":215827,"SoundDuration":215827,"Delta":192352718},{"NoteNumber":84,"Velocity":47,"Duration":82236,"SoundDuration":82236,"Delta":192784372},{"NoteNumber":75,"Velocity":40,"Duration":1688744,"SoundDuration":1688744,"Delta":192784372},{"NoteNumber":56,"Velocity":41,"Duration":1688744,"SoundDuration":1688744,"Delta":192784372},{"NoteNumber":48,"Velocity":41,"Duration":1688744,"SoundDuration":1688744,"Delta":192784372},{"NoteNumber":85,"Velocity":40,"Duration":82236,"SoundDuration":82236,"Delta":192866609},{"NoteNumber":84,"Velocity":46,"Duration":82236,"SoundDuration":82236,"Delta":192948846},{"NoteNumber":85,"Velocity":40,"Duration":82236,"SoundDuration":82236,"Delta":193031083},{"NoteNumber":84,"Velocity":45,"Duration":65789,"SoundDuration":65789,"Delta":193113320},{"NoteNumber":85,"Velocity":40,"Duration":65789,"SoundDuration":65789,"Delta":193179109},{"NoteNumber":84,"Velocity":45,"Duration":65789,"SoundDuration":65789,"Delta":193244899},{"NoteNumber":85,"Velocity":40,"Duration":65789,"SoundDuration":65789,"Delta":193310688},{"NoteNumber":83,"Velocity":45,"Duration":107142,"SoundDuration":107142,"Delta":193376478},{"NoteNumber":84,"Velocity":40,"Duration":107142,"SoundDuration":107142,"Delta":193483621},{"NoteNumber":87,"Velocity":53,"Duration":441176,"SoundDuration":441176,"Delta":193590763},{"NoteNumber":84,"Velocity":50,"Duration":220588,"SoundDuration":220588,"Delta":194031940},{"NoteNumber":75,"Velocity":40,"Duration":1701913,"SoundDuration":1701913,"Delta":194473116},{"NoteNumber":82,"Velocity":47,"Duration":82236,"SoundDuration":82236,"Delta":194473116},{"NoteNumber":61,"Velocity":41,"Duration":1701913,"SoundDuration":1701913,"Delta":194473116},{"NoteNumber":51,"Velocity":41,"Duration":1701913,"SoundDuration":1701913,"Delta":194473116},{"NoteNumber":55,"Velocity":41,"Duration":1701913,"SoundDuration":1701913,"Delta":194473116},{"NoteNumber":84,"Velocity":40,"Duration":82236,"SoundDuration":82236,"Delta":194555353},{"NoteNumber":82,"Velocity":46,"Duration":82236,"SoundDuration":82236,"Delta":194637590},{"NoteNumber":84,"Velocity":40,"Duration":82236,"SoundDuration":82236,"Delta":194719827},{"NoteNumber":82,"Velocity":45,"Duration":65789,"SoundDuration":65789,"Delta":194802064},{"NoteNumber":84,"Velocity":40,"Duration":65789,"SoundDuration":65789,"Delta":194867853},{"NoteNumber":82,"Velocity":45,"Duration":65789,"SoundDuration":65789,"Delta":194933643},{"NoteNumber":84,"Velocity":40,"Duration":65789,"SoundDuration":65789,"Delta":194999432},{"NoteNumber":81,"Velocity":45,"Duration":107142,"SoundDuration":107142,"Delta":195065222},{"NoteNumber":82,"Velocity":40,"Duration":107142,"SoundDuration":107142,"Delta":195172365},{"NoteNumber":85,"Velocity":53,"Duration":447761,"SoundDuration":447761,"Delta":195279508},{"NoteNumber":82,"Velocity":50,"Duration":223880,"SoundDuration":223880,"Delta":195727269},{"NoteNumber":70,"Velocity":26,"Duration":580645,"SoundDuration":580645,"Delta":197070552},{"NoteNumber":67,"Velocity":21,"Duration":1741936,"SoundDuration":1741936,"Delta":197070552},{"NoteNumber":61,"Velocity":21,"Duration":1741936,"SoundDuration":1741936,"Delta":197070552},{"NoteNumber":52,"Velocity":21,"Duration":1741936,"SoundDuration":1741936,"Delta":197070552},{"NoteNumber":72,"Velocity":23,"Duration":96774,"SoundDuration":96774,"Delta":197651197},{"NoteNumber":70,"Velocity":23,"Duration":96774,"SoundDuration":96774,"Delta":197747971},{"NoteNumber":69,"Velocity":29,"Duration":580645,"SoundDuration":580645,"Delta":197844746},{"NoteNumber":70,"Velocity":22,"Duration":96774,"SoundDuration":96774,"Delta":198425391},{"NoteNumber":72,"Velocity":22,"Duration":96774,"SoundDuration":96774,"Delta":198522165},{"NoteNumber":70,"Velocity":26,"Duration":193548,"SoundDuration":193548,"Delta":198618940},{"NoteNumber":58,"Velocity":71,"Duration":1578947,"SoundDuration":1578947,"Delta":199422703},{"NoteNumber":61,"Velocity":71,"Duration":1578947,"SoundDuration":1578947,"Delta":199422703},{"NoteNumber":70,"Velocity":84,"Duration":1578947,"SoundDuration":1578947,"Delta":199422703},{"NoteNumber":45,"Velocity":59,"Duration":3301370,"SoundDuration":3301370,"Delta":199422703},{"NoteNumber":52,"Velocity":59,"Duration":3301370,"SoundDuration":3301370,"Delta":199422703},{"NoteNumber":55,"Velocity":59,"Duration":3301370,"SoundDuration":3301370,"Delta":199422703},{"NoteNumber":61,"Velocity":38,"Duration":1722422,"SoundDuration":1722422,"Delta":201001651},{"NoteNumber":70,"Velocity":44,"Duration":82236,"SoundDuration":82236,"Delta":201001651},{"NoteNumber":72,"Velocity":38,"Duration":82236,"SoundDuration":82236,"Delta":201083888},{"NoteNumber":70,"Velocity":43,"Duration":82236,"SoundDuration":82236,"Delta":201166125},{"NoteNumber":72,"Velocity":38,"Duration":82236,"SoundDuration":82236,"Delta":201248362},{"NoteNumber":70,"Velocity":43,"Duration":65789,"SoundDuration":65789,"Delta":201330599},{"NoteNumber":72,"Velocity":38,"Duration":65789,"SoundDuration":65789,"Delta":201396388},{"NoteNumber":70,"Velocity":43,"Duration":65789,"SoundDuration":65789,"Delta":201462178},{"NoteNumber":72,"Velocity":38,"Duration":65789,"SoundDuration":65789,"Delta":201527967},{"NoteNumber":69,"Velocity":43,"Duration":107142,"SoundDuration":107142,"Delta":201593757},{"NoteNumber":70,"Velocity":38,"Duration":107142,"SoundDuration":107142,"Delta":201700900},{"NoteNumber":76,"Velocity":54,"Duration":458015,"SoundDuration":458015,"Delta":201808042},{"NoteNumber":70,"Velocity":48,"Duration":229007,"SoundDuration":229007,"Delta":202266058},{"NoteNumber":60,"Velocity":44,"Duration":1771992,"SoundDuration":1771992,"Delta":202724073},{"NoteNumber":69,"Velocity":44,"Duration":83892,"SoundDuration":83892,"Delta":202724073},{"NoteNumber":45,"Velocity":41,"Duration":1771992,"SoundDuration":1771992,"Delta":202724073},{"NoteNumber":53,"Velocity":41,"Duration":1771992,"SoundDuration":1771992,"Delta":202724073},{"NoteNumber":70,"Velocity":38,"Duration":83892,"SoundDuration":83892,"Delta":202807966},{"NoteNumber":69,"Velocity":43,"Duration":83892,"SoundDuration":83892,"Delta":202891859},{"NoteNumber":70,"Velocity":38,"Duration":83892,"SoundDuration":83892,"Delta":202975751},{"NoteNumber":69,"Velocity":43,"Duration":67114,"SoundDuration":67114,"Delta":203059644},{"NoteNumber":70,"Velocity":38,"Duration":67114,"SoundDuration":67114,"Delta":203126758},{"NoteNumber":69,"Velocity":43,"Duration":67114,"SoundDuration":67114,"Delta":203193872},{"NoteNumber":70,"Velocity":38,"Duration":67114,"SoundDuration":67114,"Delta":203260986},{"NoteNumber":68,"Velocity":43,"Duration":109488,"SoundDuration":109488,"Delta":203328100},{"NoteNumber":69,"Velocity":38,"Duration":109488,"SoundDuration":109488,"Delta":203437589},{"NoteNumber":72,"Velocity":54,"Duration":483870,"SoundDuration":483870,"Delta":203547078},{"NoteNumber":69,"Velocity":48,"Duration":232558,"SoundDuration":232558,"Delta":204030949},{"NoteNumber":60,"Velocity":44,"Duration":1627822,"SoundDuration":1627822,"Delta":204496066},{"NoteNumber":67,"Velocity":44,"Duration":83892,"SoundDuration":83892,"Delta":204496066},{"NoteNumber":58,"Velocity":41,"Duration":1627822,"SoundDuration":1627822,"Delta":204496066},{"NoteNumber":55,"Velocity":41,"Duration":1627822,"SoundDuration":1627822,"Delta":204496066},{"NoteNumber":48,"Velocity":41,"Duration":1627822,"SoundDuration":1627822,"Delta":204496066},{"NoteNumber":69,"Velocity":38,"Duration":83892,"SoundDuration":83892,"Delta":204579958},{"NoteNumber":67,"Velocity":43,"Duration":83892,"SoundDuration":83892,"Delta":204663851},{"NoteNumber":69,"Velocity":38,"Duration":83892,"SoundDuration":83892,"Delta":204747743},{"NoteNumber":67,"Velocity":43,"Duration":67114,"SoundDuration":67114,"Delta":204831636},{"NoteNumber":69,"Velocity":38,"Duration":67114,"SoundDuration":67114,"Delta":204898750},{"NoteNumber":67,"Velocity":43,"Duration":67114,"SoundDuration":67114,"Delta":204965864},{"NoteNumber":69,"Velocity":38,"Duration":67114,"SoundDuration":67114,"Delta":205032978},{"NoteNumber":66,"Velocity":43,"Duration":123966,"SoundDuration":123966,"Delta":205100092},{"NoteNumber":67,"Velocity":38,"Duration":123966,"SoundDuration":123966,"Delta":205224059},{"NoteNumber":70,"Velocity":54,"Duration":517241,"SoundDuration":517241,"Delta":205348026},{"NoteNumber":67,"Velocity":48,"Duration":258620,"SoundDuration":258620,"Delta":205865268},{"NoteNumber":60,"Velocity":40,"Duration":1702381,"SoundDuration":1702381,"Delta":207702836},{"NoteNumber":57,"Velocity":40,"Duration":1685019,"SoundDuration":1685019,"Delta":207702836},{"NoteNumber":48,"Velocity":32,"Duration":1702381,"SoundDuration":1702381,"Delta":207702836},{"NoteNumber":41,"Velocity":32,"Duration":1702381,"SoundDuration":1702381,"Delta":207702836},{"NoteNumber":65,"Velocity":33,"Duration":416666,"SoundDuration":416666,"Delta":208988550},{"NoteNumber":53,"Velocity":28,"Duration":416666,"SoundDuration":416666,"Delta":208988550},{"NoteNumber":69,"Velocity":40,"Duration":816327,"SoundDuration":816327,"Delta":209405217},{"NoteNumber":57,"Velocity":32,"Duration":816327,"SoundDuration":816327,"Delta":209405217},{"NoteNumber":74,"Velocity":43,"Duration":900629,"SoundDuration":900629,"Delta":210221544},{"NoteNumber":62,"Velocity":43,"Duration":900629,"SoundDuration":900629,"Delta":210221544},{"NoteNumber":36,"Velocity":24,"Duration":1896661,"SoundDuration":1896661,"Delta":210915988},{"NoteNumber":46,"Velocity":24,"Duration":1793568,"SoundDuration":1793568,"Delta":211019081},{"NoteNumber":72,"Velocity":40,"Duration":1273809,"SoundDuration":1273809,"Delta":211122174},{"NoteNumber":64,"Velocity":40,"Duration":1690476,"SoundDuration":1690476,"Delta":211122174},{"NoteNumber":60,"Velocity":40,"Duration":1273809,"SoundDuration":1273809,"Delta":211122174},{"NoteNumber":55,"Velocity":30,"Duration":1638392,"SoundDuration":1638392,"Delta":211122174},{"NoteNumber":58,"Velocity":36,"Duration":416666,"SoundDuration":416666,"Delta":212395983},{"NoteNumber":70,"Velocity":36,"Duration":416666,"SoundDuration":416666,"Delta":212395983},{"NoteNumber":55,"Velocity":40,"Duration":857143,"SoundDuration":857143,"Delta":212812650},{"NoteNumber":67,"Velocity":40,"Duration":857143,"SoundDuration":857143,"Delta":212812650},{"NoteNumber":69,"Velocity":36,"Duration":857142,"SoundDuration":857142,"Delta":213669793},{"NoteNumber":57,"Velocity":36,"Duration":857142,"SoundDuration":857142,"Delta":213669793},{"NoteNumber":65,"Velocity":36,"Duration":1655171,"SoundDuration":1655171,"Delta":214526936},{"NoteNumber":53,"Velocity":36,"Duration":1655171,"SoundDuration":1655171,"Delta":214526936},{"NoteNumber":57,"Velocity":36,"Duration":1655171,"SoundDuration":1655171,"Delta":214526936},{"NoteNumber":38,"Velocity":28,"Duration":1655171,"SoundDuration":1655171,"Delta":214526936},{"NoteNumber":50,"Velocity":28,"Duration":1655171,"SoundDuration":1655171,"Delta":214526936},{"NoteNumber":45,"Velocity":28,"Duration":1655171,"SoundDuration":1655171,"Delta":214526936},{"NoteNumber":67,"Velocity":29,"Duration":1655171,"SoundDuration":1655171,"Delta":216182108},{"NoteNumber":58,"Velocity":29,"Duration":1655171,"SoundDuration":1655171,"Delta":216182108},{"NoteNumber":64,"Velocity":29,"Duration":1655171,"SoundDuration":1655171,"Delta":216182108},{"NoteNumber":48,"Velocity":24,"Duration":2083743,"SoundDuration":2083743,"Delta":216182108},{"NoteNumber":36,"Velocity":24,"Duration":1655171,"SoundDuration":1655171,"Delta":216182108},{"NoteNumber":57,"Velocity":22,"Duration":428571,"SoundDuration":428571,"Delta":217837280},{"NoteNumber":65,"Velocity":22,"Duration":428571,"SoundDuration":428571,"Delta":217837280},{"NoteNumber":41,"Velocity":20,"Duration":428571,"SoundDuration":428571,"Delta":217837280},{"NoteNumber":57,"Velocity":22,"Duration":454545,"SoundDuration":454545,"Delta":219551566},{"NoteNumber":65,"Velocity":22,"Duration":454545,"SoundDuration":454545,"Delta":219551566},{"NoteNumber":48,"Velocity":20,"Duration":454545,"SoundDuration":454545,"Delta":219551566},{"NoteNumber":41,"Velocity":20,"Duration":454545,"SoundDuration":454545,"Delta":219551566},{"NoteNumber":65,"Velocity":20,"Duration":3870968,"SoundDuration":3870968,"Delta":221369748},{"NoteNumber":57,"Velocity":20,"Duration":3870968,"SoundDuration":3870968,"Delta":221369748},{"NoteNumber":41,"Velocity":20,"Duration":3870968,"SoundDuration":3870968,"Delta":221369748},{"NoteNumber":48,"Velocity":20,"Duration":3870968,"SoundDuration":3870968,"Delta":221369748}],"license":{"name":"Creative Commons Attribution-ShareAlike 3.0 Germany","url":"http://creativecommons.org/licenses/by-sa/3.0/de/deed.en","text":"The MIDI, audio (MP3, OGG) and video files of Bernd Krueger are licensed under the cc-by-sa Germany License. This means that you can use and adapt the files, as long as you attribute the copyright holder.\n\nName: Bernd Krueger\nSource: http://www.piano-midi.de\n\nThe distribution or public playback of the files is only allowed under identical license conditions.\n\nThe scores are open source.","attribution":"MIDI files by Bernd Krueger (piano-midi.de)","attributionUrl":"http://www.piano-midi.de"}}