{"title":"Klaviersonate a-Moll, Opus 143","artist":"Schubert","durationMs":744536,"midiSha256":"82d764d0f413d3d612bd81a5bc2a02ce439ef05fff464723bc9241e5954e2d24","midiObject":[{"NoteNumber":69,"Velocity":50,"Duration":1002585,"SoundDuration":1002585,"Delta":0},{"NoteNumber":57,"Velocity":42,"Duration":1002585,"SoundDuration":1002585,"Delta":0},{"NoteNumber":76,"Velocity":50,"Duration":998419,"SoundDuration":998419,"Delta":1001546},{"NoteNumber":64,"Velocity":42,"Duration":998419,"SoundDuration":998419,"Delta":1001546},{"NoteNumber":75,"Velocity":53,"Duration":970246,"SoundDuration":970246,"Delta":1999966},{"NoteNumber":63,"Velocity":44,"Duration":970246,"SoundDuration":970246,"Delta":1999966},{"NoteNumber":76,"Velocity":47,"Duration":205439,"SoundDuration":205439,"Delta":2970212},{"NoteNumber":64,"Velocity":38,"Duration":205439,"SoundDuration":205439,"Delta":2970212},{"NoteNumber":72,"Velocity":49,"Duration":397130,"SoundDuration":397130,"Delta":3463268},{"NoteNumber":60,"Velocity":39,"Duration":397130,"SoundDuration":397130,"Delta":3463268},{"NoteNumber":71,"Velocity":47,"Duration":149219,"SoundDuration":149219,"Delta":3838883},{"NoteNumber":59,"Velocity":39,"Duration":149219,"SoundDuration":149219,"Delta":3838883},{"NoteNumber":69,"Velocity":48,"Duration":966339,"SoundDuration":966339,"Delta":3967971},{"NoteNumber":57,"Velocity":38,"Duration":966339,"SoundDuration":966339,"Delta":3967971},{"NoteNumber":56,"Velocity":56,"Duration":1002589,"SoundDuration":1002589,"Delta":4934311},{"NoteNumber":64,"Velocity":56,"Duration":1002589,"SoundDuration":1002589,"Delta":4934311},{"NoteNumber":59,"Velocity":56,"Duration":1002589,"SoundDuration":1002589,"Delta":4934311},{"NoteNumber":52,"Velocity":52,"Duration":1002589,"SoundDuration":1002589,"Delta":4934311},{"NoteNumber":60,"Velocity":52,"Duration":982479,"SoundDuration":982479,"Delta":5936901},{"NoteNumber":48,"Velocity":47,"Duration":982479,"SoundDuration":982479,"Delta":5936901},{"NoteNumber":57,"Velocity":51,"Duration":189921,"SoundDuration":189921,"Delta":6919381},{"NoteNumber":45,"Velocity":39,"Duration":189921,"SoundDuration":189921,"Delta":6919381},{"NoteNumber":57,"Velocity":50,"Duration":1002590,"SoundDuration":1002590,"Delta":7932295},{"NoteNumber":45,"Velocity":42,"Duration":1002590,"SoundDuration":1002590,"Delta":7932295},{"NoteNumber":57,"Velocity":59,"Duration":970245,"SoundDuration":970245,"Delta":8934885},{"NoteNumber":65,"Velocity":59,"Duration":970245,"SoundDuration":970245,"Delta":8934885},{"NoteNumber":38,"Velocity":45,"Duration":970245,"SoundDuration":970245,"Delta":8934885},{"NoteNumber":58,"Velocity":64,"Duration":926783,"SoundDuration":926783,"Delta":9905131},{"NoteNumber":67,"Velocity":64,"Duration":926783,"SoundDuration":926783,"Delta":9905131},{"NoteNumber":37,"Velocity":48,"Duration":926783,"SoundDuration":926783,"Delta":9905131},{"NoteNumber":65,"Velocity":54,"Duration":208872,"SoundDuration":208872,"Delta":10831915},{"NoteNumber":57,"Velocity":54,"Duration":208872,"SoundDuration":208872,"Delta":10831915},{"NoteNumber":38,"Velocity":42,"Duration":208872,"SoundDuration":208872,"Delta":10831915},{"NoteNumber":57,"Velocity":51,"Duration":393593,"SoundDuration":393593,"Delta":11328102},{"NoteNumber":45,"Velocity":44,"Duration":393593,"SoundDuration":393593,"Delta":11328102},{"NoteNumber":59,"Velocity":54,"Duration":147447,"SoundDuration":147447,"Delta":11700545},{"NoteNumber":47,"Velocity":45,"Duration":147447,"SoundDuration":147447,"Delta":11700545},{"NoteNumber":60,"Velocity":52,"Duration":986112,"SoundDuration":986112,"Delta":11827448},{"NoteNumber":48,"Velocity":45,"Duration":986112,"SoundDuration":986112,"Delta":11827448},{"NoteNumber":59,"Velocity":54,"Duration":1002589,"SoundDuration":1002589,"Delta":12813560},{"NoteNumber":64,"Velocity":54,"Duration":1002589,"SoundDuration":1002589,"Delta":12813560},{"NoteNumber":52,"Velocity":54,"Duration":1002589,"SoundDuration":1002589,"Delta":12813560},{"NoteNumber":56,"Velocity":54,"Duration":1002589,"SoundDuration":1002589,"Delta":12813560},{"NoteNumber":40,"Velocity":47,"Duration":1002589,"SoundDuration":1002589,"Delta":12813560},{"NoteNumber":60,"Velocity":50,"Duration":982480,"SoundDuration":982480,"Delta":13816150},{"NoteNumber":48,"Velocity":50,"Duration":982480,"SoundDuration":982480,"Delta":13816150},{"NoteNumber":36,"Velocity":45,"Duration":982480,"SoundDuration":982480,"Delta":13816150},{"NoteNumber":45,"Velocity":50,"Duration":212910,"SoundDuration":212910,"Delta":14798630},{"NoteNumber":57,"Velocity":50,"Duration":212910,"SoundDuration":212910,"Delta":14798630},{"NoteNumber":33,"Velocity":41,"Duration":212910,"SoundDuration":212910,"Delta":14798630},{"NoteNumber":38,"Velocity":35,"Duration":982157,"SoundDuration":982157,"Delta":15820602},{"NoteNumber":45,"Velocity":35,"Duration":982157,"SoundDuration":982157,"Delta":15820602},{"NoteNumber":41,"Velocity":35,"Duration":982157,"SoundDuration":982157,"Delta":15820602},{"NoteNumber":33,"Velocity":33,"Duration":125323,"SoundDuration":125323,"Delta":16802760},{"NoteNumber":36,"Velocity":36,"Duration":966339,"SoundDuration":966339,"Delta":17805351},{"NoteNumber":45,"Velocity":36,"Duration":966339,"SoundDuration":966339,"Delta":17805351},{"NoteNumber":40,"Velocity":36,"Duration":966339,"SoundDuration":966339,"Delta":17805351},{"NoteNumber":33,"Velocity":35,"Duration":124285,"SoundDuration":124285,"Delta":18771690},{"NoteNumber":57,"Velocity":52,"Duration":953251,"SoundDuration":953251,"Delta":19268831},{"NoteNumber":41,"Velocity":36,"Duration":944317,"SoundDuration":944317,"Delta":19753954},{"NoteNumber":45,"Velocity":36,"Duration":944317,"SoundDuration":944317,"Delta":19753954},{"NoteNumber":38,"Velocity":36,"Duration":944317,"SoundDuration":944317,"Delta":19753954},{"NoteNumber":62,"Velocity":46,"Duration":476189,"SoundDuration":476189,"Delta":20222082},{"NoteNumber":64,"Velocity":49,"Duration":471032,"SoundDuration":471032,"Delta":20698272},{"NoteNumber":33,"Velocity":34,"Duration":117757,"SoundDuration":117757,"Delta":20698272},{"NoteNumber":65,"Velocity":47,"Duration":478888,"SoundDuration":478888,"Delta":21169304},{"NoteNumber":64,"Velocity":50,"Duration":918413,"SoundDuration":918413,"Delta":21648193},{"NoteNumber":36,"Velocity":36,"Duration":918413,"SoundDuration":918413,"Delta":21648193},{"NoteNumber":40,"Velocity":36,"Duration":918413,"SoundDuration":918413,"Delta":21648193},{"NoteNumber":45,"Velocity":36,"Duration":918413,"SoundDuration":918413,"Delta":21648193},{"NoteNumber":57,"Velocity":46,"Duration":202954,"SoundDuration":202954,"Delta":22566607},{"NoteNumber":33,"Velocity":34,"Duration":202954,"SoundDuration":202954,"Delta":22566607},{"NoteNumber":67,"Velocity":44,"Duration":473672,"SoundDuration":473672,"Delta":23053699},{"NoteNumber":65,"Velocity":47,"Duration":897867,"SoundDuration":897867,"Delta":23527371},{"NoteNumber":38,"Velocity":37,"Duration":897867,"SoundDuration":897867,"Delta":23527371},{"NoteNumber":41,"Velocity":37,"Duration":897867,"SoundDuration":897867,"Delta":23527371},{"NoteNumber":45,"Velocity":37,"Duration":897867,"SoundDuration":897867,"Delta":23527371},{"NoteNumber":57,"Velocity":48,"Duration":205439,"SoundDuration":205439,"Delta":24425239},{"NoteNumber":33,"Velocity":35,"Duration":205439,"SoundDuration":205439,"Delta":24425239},{"NoteNumber":65,"Velocity":45,"Duration":461538,"SoundDuration":461538,"Delta":24918295},{"NoteNumber":64,"Velocity":50,"Duration":897867,"SoundDuration":897867,"Delta":25379833},{"NoteNumber":36,"Velocity":36,"Duration":897867,"SoundDuration":897867,"Delta":25379833},{"NoteNumber":40,"Velocity":36,"Duration":897867,"SoundDuration":897867,"Delta":25379833},{"NoteNumber":45,"Velocity":36,"Duration":897867,"SoundDuration":897867,"Delta":25379833},{"NoteNumber":57,"Velocity":48,"Duration":201320,"SoundDuration":201320,"Delta":26277701},{"NoteNumber":33,"Velocity":33,"Duration":201320,"SoundDuration":201320,"Delta":26277701},{"NoteNumber":57,"Velocity":56,"Duration":454563,"SoundDuration":454563,"Delta":26760871},{"NoteNumber":69,"Velocity":56,"Duration":925550,"SoundDuration":925550,"Delta":26760871},{"NoteNumber":53,"Velocity":45,"Duration":923846,"SoundDuration":923846,"Delta":27218293},{"NoteNumber":57,"Velocity":45,"Duration":923846,"SoundDuration":923846,"Delta":27218293},{"NoteNumber":50,"Velocity":45,"Duration":923846,"SoundDuration":923846,"Delta":27218293},{"NoteNumber":62,"Velocity":56,"Duration":455718,"SoundDuration":455718,"Delta":27686421},{"NoteNumber":74,"Velocity":56,"Duration":455718,"SoundDuration":455718,"Delta":27686421},{"NoteNumber":76,"Velocity":59,"Duration":469080,"SoundDuration":469080,"Delta":28142140},{"NoteNumber":64,"Velocity":59,"Duration":469080,"SoundDuration":469080,"Delta":28142140},{"NoteNumber":45,"Velocity":35,"Duration":117270,"SoundDuration":117270,"Delta":28142140},{"NoteNumber":65,"Velocity":54,"Duration":472961,"SoundDuration":472961,"Delta":28611220},{"NoteNumber":77,"Velocity":54,"Duration":472961,"SoundDuration":472961,"Delta":28611220},{"NoteNumber":64,"Velocity":59,"Duration":894453,"SoundDuration":894453,"Delta":29084182},{"NoteNumber":76,"Velocity":59,"Duration":894453,"SoundDuration":894453,"Delta":29084182},{"NoteNumber":48,"Velocity":41,"Duration":894453,"SoundDuration":894453,"Delta":29084182},{"NoteNumber":52,"Velocity":41,"Duration":894453,"SoundDuration":894453,"Delta":29084182},{"NoteNumber":57,"Velocity":41,"Duration":892590,"SoundDuration":892590,"Delta":29084182},{"NoteNumber":57,"Velocity":56,"Duration":197363,"SoundDuration":197363,"Delta":29978636},{"NoteNumber":69,"Velocity":56,"Duration":197363,"SoundDuration":197363,"Delta":29978636},{"NoteNumber":45,"Velocity":36,"Duration":197363,"SoundDuration":197363,"Delta":29978636},{"NoteNumber":76,"Velocity":69,"Duration":918431,"SoundDuration":918431,"Delta":30452308},{"NoteNumber":64,"Velocity":69,"Duration":918431,"SoundDuration":918431,"Delta":30452308},{"NoteNumber":47,"Velocity":70,"Duration":911647,"SoundDuration":911647,"Delta":30908027},{"NoteNumber":52,"Velocity":70,"Duration":911647,"SoundDuration":911647,"Delta":30908027},{"NoteNumber":55,"Velocity":70,"Duration":911647,"SoundDuration":911647,"Delta":30908027},{"NoteNumber":67,"Velocity":74,"Duration":448934,"SoundDuration":448934,"Delta":31370740},{"NoteNumber":79,"Velocity":74,"Duration":448934,"SoundDuration":448934,"Delta":31370740},{"NoteNumber":69,"Velocity":79,"Duration":466309,"SoundDuration":466309,"Delta":31819674},{"NoteNumber":81,"Velocity":79,"Duration":466309,"SoundDuration":466309,"Delta":31819674},{"NoteNumber":43,"Velocity":54,"Duration":174865,"SoundDuration":174865,"Delta":31819674},{"NoteNumber":71,"Velocity":77,"Duration":477440,"SoundDuration":477440,"Delta":32285984},{"NoteNumber":83,"Velocity":77,"Duration":477440,"SoundDuration":477440,"Delta":32285984},{"NoteNumber":71,"Velocity":85,"Duration":893002,"SoundDuration":893002,"Delta":32763425},{"NoteNumber":83,"Velocity":85,"Duration":893002,"SoundDuration":893002,"Delta":32763425},{"NoteNumber":51,"Velocity":63,"Duration":893002,"SoundDuration":893002,"Delta":32763425},{"NoteNumber":54,"Velocity":71,"Duration":893002,"SoundDuration":893002,"Delta":32763425},{"NoteNumber":42,"Velocity":63,"Duration":893002,"SoundDuration":893002,"Delta":32763425},{"NoteNumber":83,"Velocity":81,"Duration":868398,"SoundDuration":868398,"Delta":33737609},{"NoteNumber":71,"Velocity":81,"Duration":868398,"SoundDuration":868398,"Delta":33737609},{"NoteNumber":47,"Velocity":54,"Duration":868398,"SoundDuration":868398,"Delta":33737609},{"NoteNumber":51,"Velocity":54,"Duration":868398,"SoundDuration":868398,"Delta":33737609},{"NoteNumber":59,"Velocity":61,"Duration":868398,"SoundDuration":868398,"Delta":33737609},{"NoteNumber":67,"Velocity":63,"Duration":926783,"SoundDuration":926783,"Delta":34684953},{"NoteNumber":79,"Velocity":63,"Duration":926783,"SoundDuration":926783,"Delta":34684953},{"NoteNumber":55,"Velocity":49,"Duration":926783,"SoundDuration":926783,"Delta":34684953},{"NoteNumber":43,"Velocity":49,"Duration":926783,"SoundDuration":926783,"Delta":34684953},{"NoteNumber":64,"Velocity":53,"Duration":202955,"SoundDuration":202955,"Delta":35611737},{"NoteNumber":76,"Velocity":53,"Duration":202955,"SoundDuration":202955,"Delta":35611737},{"NoteNumber":52,"Velocity":42,"Duration":202955,"SoundDuration":202955,"Delta":35611737},{"NoteNumber":40,"Velocity":42,"Duration":202955,"SoundDuration":202955,"Delta":35611737},{"NoteNumber":59,"Velocity":41,"Duration":889392,"SoundDuration":889392,"Delta":36585921},{"NoteNumber":71,"Velocity":41,"Duration":889392,"SoundDuration":889392,"Delta":36585921},{"NoteNumber":30,"Velocity":26,"Duration":889392,"SoundDuration":889392,"Delta":36585921},{"NoteNumber":42,"Velocity":26,"Duration":889392,"SoundDuration":889392,"Delta":36585921},{"NoteNumber":39,"Velocity":26,"Duration":889392,"SoundDuration":889392,"Delta":36585921},{"NoteNumber":71,"Velocity":37,"Duration":871770,"SoundDuration":871770,"Delta":37556167},{"NoteNumber":59,"Velocity":37,"Duration":871770,"SoundDuration":871770,"Delta":37556167},{"NoteNumber":35,"Velocity":24,"Duration":871770,"SoundDuration":871770,"Delta":37556167},{"NoteNumber":39,"Velocity":24,"Duration":871770,"SoundDuration":871770,"Delta":37556167},{"NoteNumber":47,"Velocity":24,"Duration":871770,"SoundDuration":871770,"Delta":37556167},{"NoteNumber":55,"Velocity":37,"Duration":938160,"SoundDuration":938160,"Delta":38507189},{"NoteNumber":67,"Velocity":37,"Duration":938160,"SoundDuration":938160,"Delta":38507189},{"NoteNumber":43,"Velocity":30,"Duration":938160,"SoundDuration":938160,"Delta":38507189},{"NoteNumber":31,"Velocity":30,"Duration":938160,"SoundDuration":938160,"Delta":38507189},{"NoteNumber":52,"Velocity":33,"Duration":201320,"SoundDuration":201320,"Delta":39445349},{"NoteNumber":64,"Velocity":33,"Duration":201320,"SoundDuration":201320,"Delta":39445349},{"NoteNumber":28,"Velocity":27,"Duration":201320,"SoundDuration":201320,"Delta":39445349},{"NoteNumber":40,"Velocity":27,"Duration":201320,"SoundDuration":201320,"Delta":39445349},{"NoteNumber":55,"Velocity":37,"Duration":862377,"SoundDuration":862377,"Delta":40411689},{"NoteNumber":67,"Velocity":37,"Duration":862377,"SoundDuration":862377,"Delta":40411689},{"NoteNumber":40,"Velocity":30,"Duration":989599,"SoundDuration":989599,"Delta":40411689},{"NoteNumber":52,"Velocity":33,"Duration":127221,"SoundDuration":127221,"Delta":41274067},{"NoteNumber":64,"Velocity":33,"Duration":127221,"SoundDuration":127221,"Delta":41274067},{"NoteNumber":41,"Velocity":23,"Duration":127792,"SoundDuration":127792,"Delta":41383092},{"NoteNumber":40,"Velocity":27,"Duration":126197,"SoundDuration":126197,"Delta":41492908},{"NoteNumber":41,"Velocity":25,"Duration":127770,"SoundDuration":127770,"Delta":41600699},{"NoteNumber":40,"Velocity":29,"Duration":128060,"SoundDuration":128060,"Delta":41710534},{"NoteNumber":41,"Velocity":22,"Duration":128226,"SoundDuration":128226,"Delta":41819965},{"NoteNumber":40,"Velocity":27,"Duration":126124,"SoundDuration":126124,"Delta":41930263},{"NoteNumber":41,"Velocity":23,"Duration":128142,"SoundDuration":128142,"Delta":42038097},{"NoteNumber":65,"Velocity":45,"Duration":856914,"SoundDuration":856914,"Delta":42148397},{"NoteNumber":53,"Velocity":45,"Duration":856914,"SoundDuration":856914,"Delta":42148397},{"NoteNumber":40,"Velocity":31,"Duration":124867,"SoundDuration":124867,"Delta":42148397},{"NoteNumber":41,"Velocity":28,"Duration":124610,"SoundDuration":124610,"Delta":42255135},{"NoteNumber":40,"Velocity":31,"Duration":124665,"SoundDuration":124665,"Delta":42361979},{"NoteNumber":41,"Velocity":25,"Duration":124705,"SoundDuration":124705,"Delta":42469066},{"NoteNumber":40,"Velocity":34,"Duration":124919,"SoundDuration":124919,"Delta":42575642},{"NoteNumber":41,"Velocity":30,"Duration":123289,"SoundDuration":123289,"Delta":42683025},{"NoteNumber":40,"Velocity":34,"Duration":126442,"SoundDuration":126442,"Delta":42788473},{"NoteNumber":41,"Velocity":29,"Duration":127134,"SoundDuration":127134,"Delta":42896806},{"NoteNumber":62,"Velocity":40,"Duration":128186,"SoundDuration":128186,"Delta":43005312},{"NoteNumber":50,"Velocity":40,"Duration":128186,"SoundDuration":128186,"Delta":43005312},{"NoteNumber":40,"Velocity":34,"Duration":128186,"SoundDuration":128186,"Delta":43005312},{"NoteNumber":41,"Velocity":28,"Duration":128452,"SoundDuration":128452,"Delta":43115503},{"NoteNumber":40,"Velocity":34,"Duration":127053,"SoundDuration":127053,"Delta":43225424},{"NoteNumber":41,"Velocity":29,"Duration":127902,"SoundDuration":127902,"Delta":43334548},{"NoteNumber":40,"Velocity":34,"Duration":126912,"SoundDuration":126912,"Delta":43444016},{"NoteNumber":41,"Velocity":29,"Duration":127545,"SoundDuration":127545,"Delta":43552932},{"NoteNumber":40,"Velocity":34,"Duration":129768,"SoundDuration":129768,"Delta":43661993},{"NoteNumber":41,"Velocity":30,"Duration":127602,"SoundDuration":127602,"Delta":43773229},{"NoteNumber":64,"Velocity":56,"Duration":854155,"SoundDuration":854155,"Delta":43882947},{"NoteNumber":52,"Velocity":56,"Duration":854155,"SoundDuration":854155,"Delta":43882947},{"NoteNumber":40,"Velocity":39,"Duration":123339,"SoundDuration":123339,"Delta":43882947},{"NoteNumber":41,"Velocity":33,"Duration":125195,"SoundDuration":125195,"Delta":43988508},{"NoteNumber":40,"Velocity":39,"Duration":123426,"SoundDuration":123426,"Delta":44095928},{"NoteNumber":41,"Velocity":33,"Duration":125570,"SoundDuration":125570,"Delta":44201606},{"NoteNumber":40,"Velocity":39,"Duration":123800,"SoundDuration":123800,"Delta":44309204},{"NoteNumber":41,"Velocity":33,"Duration":123806,"SoundDuration":123806,"Delta":44415535},{"NoteNumber":40,"Velocity":40,"Duration":126158,"SoundDuration":126158,"Delta":44521276},{"NoteNumber":41,"Velocity":35,"Duration":125859,"SoundDuration":125859,"Delta":44629572},{"NoteNumber":48,"Velocity":51,"Duration":128731,"SoundDuration":128731,"Delta":44737102},{"NoteNumber":60,"Velocity":51,"Duration":128731,"SoundDuration":128731,"Delta":44737102},{"NoteNumber":40,"Velocity":40,"Duration":128731,"SoundDuration":128731,"Delta":44737102},{"NoteNumber":41,"Velocity":35,"Duration":130430,"SoundDuration":130430,"Delta":44847035},{"NoteNumber":40,"Velocity":41,"Duration":127666,"SoundDuration":127666,"Delta":44959281},{"NoteNumber":41,"Velocity":34,"Duration":131020,"SoundDuration":131020,"Delta":45068300},{"NoteNumber":40,"Velocity":41,"Duration":128203,"SoundDuration":128203,"Delta":45180759},{"NoteNumber":41,"Velocity":36,"Duration":132063,"SoundDuration":132063,"Delta":45290760},{"NoteNumber":40,"Velocity":42,"Duration":131015,"SoundDuration":131015,"Delta":45403846},{"NoteNumber":41,"Velocity":37,"Duration":128908,"SoundDuration":128908,"Delta":45516374},{"NoteNumber":50,"Velocity":73,"Duration":890367,"SoundDuration":890367,"Delta":45627167},{"NoteNumber":62,"Velocity":73,"Duration":890367,"SoundDuration":890367,"Delta":45627167},{"NoteNumber":40,"Velocity":47,"Duration":127032,"SoundDuration":127032,"Delta":45627167},{"NoteNumber":41,"Velocity":39,"Duration":129016,"SoundDuration":129016,"Delta":45735722},{"NoteNumber":40,"Velocity":47,"Duration":127061,"SoundDuration":127061,"Delta":45846486},{"NoteNumber":41,"Velocity":39,"Duration":128820,"SoundDuration":128820,"Delta":45955067},{"NoteNumber":40,"Velocity":48,"Duration":126227,"SoundDuration":126227,"Delta":46065796},{"NoteNumber":41,"Velocity":40,"Duration":130833,"SoundDuration":130833,"Delta":46173824},{"NoteNumber":40,"Velocity":48,"Duration":135259,"SoundDuration":135259,"Delta":46285453},{"NoteNumber":41,"Velocity":42,"Duration":135521,"SoundDuration":135521,"Delta":46401363},{"NoteNumber":59,"Velocity":69,"Duration":135520,"SoundDuration":135520,"Delta":46517534},{"NoteNumber":47,"Velocity":69,"Duration":135520,"SoundDuration":135520,"Delta":46517534},{"NoteNumber":40,"Velocity":49,"Duration":135520,"SoundDuration":135520,"Delta":46517534},{"NoteNumber":41,"Velocity":43,"Duration":136028,"SoundDuration":136028,"Delta":46633633},{"NoteNumber":40,"Velocity":54,"Duration":136548,"SoundDuration":136548,"Delta":46750165},{"NoteNumber":41,"Velocity":48,"Duration":137070,"SoundDuration":137070,"Delta":46867142},{"NoteNumber":40,"Velocity":62,"Duration":138518,"SoundDuration":138518,"Delta":46984568},{"NoteNumber":41,"Velocity":63,"Duration":141655,"SoundDuration":141655,"Delta":47103054},{"NoteNumber":40,"Velocity":71,"Duration":154237,"SoundDuration":154237,"Delta":47224196},{"NoteNumber":44,"Velocity":79,"Duration":193421,"SoundDuration":193421,"Delta":47354603},{"NoteNumber":57,"Velocity":95,"Duration":1011037,"SoundDuration":1011037,"Delta":47526961},{"NoteNumber":69,"Velocity":95,"Duration":1011037,"SoundDuration":1011037,"Delta":47526961},{"NoteNumber":33,"Velocity":80,"Duration":1011037,"SoundDuration":1011037,"Delta":47526961},{"NoteNumber":45,"Velocity":80,"Duration":1011037,"SoundDuration":1011037,"Delta":47526961},{"NoteNumber":64,"Velocity":91,"Duration":998420,"SoundDuration":998420,"Delta":48537999},{"NoteNumber":76,"Velocity":91,"Duration":998420,"SoundDuration":998420,"Delta":48537999},{"NoteNumber":40,"Velocity":76,"Duration":998420,"SoundDuration":998420,"Delta":48537999},{"NoteNumber":52,"Velocity":76,"Duration":998420,"SoundDuration":998420,"Delta":48537999},{"NoteNumber":63,"Velocity":88,"Duration":952379,"SoundDuration":952379,"Delta":49536419},{"NoteNumber":75,"Velocity":88,"Duration":952379,"SoundDuration":952379,"Delta":49536419},{"NoteNumber":51,"Velocity":73,"Duration":952379,"SoundDuration":952379,"Delta":49536419},{"NoteNumber":39,"Velocity":73,"Duration":952379,"SoundDuration":952379,"Delta":49536419},{"NoteNumber":76,"Velocity":81,"Duration":250647,"SoundDuration":250647,"Delta":50488799},{"NoteNumber":64,"Velocity":81,"Duration":250647,"SoundDuration":250647,"Delta":50488799},{"NoteNumber":40,"Velocity":66,"Duration":250647,"SoundDuration":250647,"Delta":50488799},{"NoteNumber":52,"Velocity":66,"Duration":250647,"SoundDuration":250647,"Delta":50488799},{"NoteNumber":72,"Velocity":78,"Duration":233608,"SoundDuration":233608,"Delta":50990094},{"NoteNumber":64,"Velocity":78,"Duration":233608,"SoundDuration":233608,"Delta":50990094},{"NoteNumber":52,"Velocity":48,"Duration":233608,"SoundDuration":233608,"Delta":50990094},{"NoteNumber":64,"Velocity":48,"Duration":233608,"SoundDuration":233608,"Delta":50990094},{"NoteNumber":64,"Velocity":63,"Duration":85845,"SoundDuration":85845,"Delta":51340507},{"NoteNumber":71,"Velocity":73,"Duration":85845,"SoundDuration":85845,"Delta":51340507},{"NoteNumber":50,"Velocity":46,"Duration":85845,"SoundDuration":85845,"Delta":51340507},{"NoteNumber":62,"Velocity":46,"Duration":85845,"SoundDuration":85845,"Delta":51340507},{"NoteNumber":64,"Velocity":67,"Duration":232810,"SoundDuration":232810,"Delta":51454967},{"NoteNumber":69,"Velocity":80,"Duration":232810,"SoundDuration":232810,"Delta":51454967},{"NoteNumber":60,"Velocity":48,"Duration":232810,"SoundDuration":232810,"Delta":51454967},{"NoteNumber":48,"Velocity":48,"Duration":232810,"SoundDuration":232810,"Delta":51454967},{"NoteNumber":62,"Velocity":63,"Duration":85845,"SoundDuration":85845,"Delta":51804183},{"NoteNumber":67,"Velocity":73,"Duration":85845,"SoundDuration":85845,"Delta":51804183},{"NoteNumber":59,"Velocity":46,"Duration":85845,"SoundDuration":85845,"Delta":51804183},{"NoteNumber":47,"Velocity":46,"Duration":85845,"SoundDuration":85845,"Delta":51804183},{"NoteNumber":65,"Velocity":72,"Duration":231803,"SoundDuration":231803,"Delta":51918644},{"NoteNumber":60,"Velocity":63,"Duration":231803,"SoundDuration":231803,"Delta":51918644},{"NoteNumber":57,"Velocity":43,"Duration":231803,"SoundDuration":231803,"Delta":51918644},{"NoteNumber":45,"Velocity":43,"Duration":231803,"SoundDuration":231803,"Delta":51918644},{"NoteNumber":64,"Velocity":70,"Duration":85499,"SoundDuration":85499,"Delta":52266349},{"NoteNumber":59,"Velocity":58,"Duration":85499,"SoundDuration":85499,"Delta":52266349},{"NoteNumber":44,"Velocity":42,"Duration":85499,"SoundDuration":85499,"Delta":52266349},{"NoteNumber":56,"Velocity":42,"Duration":85499,"SoundDuration":85499,"Delta":52266349},{"NoteNumber":60,"Velocity":74,"Duration":231803,"SoundDuration":231803,"Delta":52380348},{"NoteNumber":65,"Velocity":74,"Duration":231803,"SoundDuration":231803,"Delta":52380348},{"NoteNumber":57,"Velocity":46,"Duration":231803,"SoundDuration":231803,"Delta":52380348},{"NoteNumber":45,"Velocity":46,"Duration":231803,"SoundDuration":231803,"Delta":52380348},{"NoteNumber":59,"Velocity":57,"Duration":85499,"SoundDuration":85499,"Delta":52728053},{"NoteNumber":64,"Velocity":70,"Duration":85499,"SoundDuration":85499,"Delta":52728053},{"NoteNumber":55,"Velocity":40,"Duration":85499,"SoundDuration":85499,"Delta":52728053},{"NoteNumber":43,"Velocity":40,"Duration":85499,"SoundDuration":85499,"Delta":52728053},{"NoteNumber":57,"Velocity":64,"Duration":230822,"SoundDuration":230822,"Delta":52842052},{"NoteNumber":62,"Velocity":75,"Duration":230822,"SoundDuration":230822,"Delta":52842052},{"NoteNumber":53,"Velocity":46,"Duration":230822,"SoundDuration":230822,"Delta":52842052},{"NoteNumber":41,"Velocity":46,"Duration":230822,"SoundDuration":230822,"Delta":52842052},{"NoteNumber":61,"Velocity":70,"Duration":85162,"SoundDuration":85162,"Delta":53188286},{"NoteNumber":55,"Velocity":58,"Duration":85162,"SoundDuration":85162,"Delta":53188286},{"NoteNumber":52,"Velocity":42,"Duration":85162,"SoundDuration":85162,"Delta":53188286},{"NoteNumber":40,"Velocity":42,"Duration":85162,"SoundDuration":85162,"Delta":53188286},{"NoteNumber":57,"Velocity":76,"Duration":229814,"SoundDuration":229814,"Delta":53301836},{"NoteNumber":62,"Velocity":76,"Duration":229814,"SoundDuration":229814,"Delta":53301836},{"NoteNumber":53,"Velocity":48,"Duration":229814,"SoundDuration":229814,"Delta":53301836},{"NoteNumber":41,"Velocity":48,"Duration":229814,"SoundDuration":229814,"Delta":53301836},{"NoteNumber":59,"Velocity":63,"Duration":84828,"SoundDuration":84828,"Delta":53646558},{"NoteNumber":64,"Velocity":73,"Duration":84828,"SoundDuration":84828,"Delta":53646558},{"NoteNumber":56,"Velocity":46,"Duration":84828,"SoundDuration":84828,"Delta":53646558},{"NoteNumber":44,"Velocity":46,"Duration":84828,"SoundDuration":84828,"Delta":53646558},{"NoteNumber":60,"Velocity":77,"Duration":228850,"SoundDuration":228850,"Delta":53759663},{"NoteNumber":65,"Velocity":77,"Duration":228850,"SoundDuration":228850,"Delta":53759663},{"NoteNumber":45,"Velocity":48,"Duration":228850,"SoundDuration":228850,"Delta":53759663},{"NoteNumber":57,"Velocity":48,"Duration":228850,"SoundDuration":228850,"Delta":53759663},{"NoteNumber":62,"Velocity":63,"Duration":84162,"SoundDuration":84162,"Delta":54102939},{"NoteNumber":68,"Velocity":73,"Duration":84162,"SoundDuration":84162,"Delta":54102939},{"NoteNumber":47,"Velocity":46,"Duration":84162,"SoundDuration":84162,"Delta":54102939},{"NoteNumber":59,"Velocity":46,"Duration":84162,"SoundDuration":84162,"Delta":54102939},{"NoteNumber":69,"Velocity":81,"Duration":228850,"SoundDuration":228850,"Delta":54215155},{"NoteNumber":64,"Velocity":81,"Duration":228850,"SoundDuration":228850,"Delta":54215155},{"NoteNumber":48,"Velocity":52,"Duration":228850,"SoundDuration":228850,"Delta":54215155},{"NoteNumber":60,"Velocity":52,"Duration":228850,"SoundDuration":228850,"Delta":54215155},{"NoteNumber":64,"Velocity":67,"Duration":83506,"SoundDuration":83506,"Delta":54558431},{"NoteNumber":71,"Velocity":80,"Duration":83506,"SoundDuration":83506,"Delta":54558431},{"NoteNumber":50,"Velocity":48,"Duration":83506,"SoundDuration":83506,"Delta":54558431},{"NoteNumber":62,"Velocity":48,"Duration":83506,"SoundDuration":83506,"Delta":54558431},{"NoteNumber":64,"Velocity":71,"Duration":130264,"SoundDuration":130264,"Delta":54669773},{"NoteNumber":69,"Velocity":86,"Duration":130264,"SoundDuration":130264,"Delta":54669773},{"NoteNumber":60,"Velocity":53,"Duration":130264,"SoundDuration":130264,"Delta":54669773},{"NoteNumber":48,"Velocity":53,"Duration":130264,"SoundDuration":130264,"Delta":54669773},{"NoteNumber":57,"Velocity":97,"Duration":1023890,"SoundDuration":1023890,"Delta":55190832},{"NoteNumber":45,"Velocity":90,"Duration":1023890,"SoundDuration":1023890,"Delta":55190832},{"NoteNumber":57,"Velocity":85,"Duration":1002589,"SoundDuration":1002589,"Delta":56214722},{"NoteNumber":69,"Velocity":85,"Duration":1002589,"SoundDuration":1002589,"Delta":56214722},{"NoteNumber":65,"Velocity":85,"Duration":1002589,"SoundDuration":1002589,"Delta":56214722},{"NoteNumber":38,"Velocity":86,"Duration":1002589,"SoundDuration":1002589,"Delta":56214722},{"NoteNumber":45,"Velocity":86,"Duration":1002589,"SoundDuration":1002589,"Delta":56214722},{"NoteNumber":70,"Velocity":90,"Duration":956175,"SoundDuration":956175,"Delta":57217312},{"NoteNumber":58,"Velocity":90,"Duration":956175,"SoundDuration":956175,"Delta":57217312},{"NoteNumber":67,"Velocity":90,"Duration":956175,"SoundDuration":956175,"Delta":57217312},{"NoteNumber":37,"Velocity":71,"Duration":956175,"SoundDuration":956175,"Delta":57217312},{"NoteNumber":45,"Velocity":71,"Duration":1213245,"SoundDuration":1213245,"Delta":57217312},{"NoteNumber":65,"Velocity":80,"Duration":257069,"SoundDuration":257069,"Delta":58173488},{"NoteNumber":69,"Velocity":80,"Duration":257069,"SoundDuration":257069,"Delta":58173488},{"NoteNumber":57,"Velocity":80,"Duration":257069,"SoundDuration":257069,"Delta":58173488},{"NoteNumber":38,"Velocity":71,"Duration":257069,"SoundDuration":257069,"Delta":58173488},{"NoteNumber":69,"Velocity":73,"Duration":233517,"SoundDuration":233517,"Delta":58687627},{"NoteNumber":77,"Velocity":89,"Duration":233517,"SoundDuration":233517,"Delta":58687627},{"NoteNumber":57,"Velocity":53,"Duration":233517,"SoundDuration":233517,"Delta":58687627},{"NoteNumber":69,"Velocity":53,"Duration":233517,"SoundDuration":233517,"Delta":58687627},{"NoteNumber":69,"Velocity":70,"Duration":85499,"SoundDuration":85499,"Delta":59037903},{"NoteNumber":76,"Velocity":84,"Duration":85499,"SoundDuration":85499,"Delta":59037903},{"NoteNumber":55,"Velocity":52,"Duration":85499,"SoundDuration":85499,"Delta":59037903},{"NoteNumber":67,"Velocity":52,"Duration":85499,"SoundDuration":85499,"Delta":59037903},{"NoteNumber":74,"Velocity":80,"Duration":231732,"SoundDuration":231732,"Delta":59151902},{"NoteNumber":69,"Velocity":67,"Duration":231732,"SoundDuration":231732,"Delta":59151902},{"NoteNumber":53,"Velocity":48,"Duration":231732,"SoundDuration":231732,"Delta":59151902},{"NoteNumber":65,"Velocity":48,"Duration":231732,"SoundDuration":231732,"Delta":59151902},{"NoteNumber":67,"Velocity":63,"Duration":84491,"SoundDuration":84491,"Delta":59499500},{"NoteNumber":72,"Velocity":73,"Duration":84491,"SoundDuration":84491,"Delta":59499500},{"NoteNumber":52,"Velocity":46,"Duration":84491,"SoundDuration":84491,"Delta":59499500},{"NoteNumber":64,"Velocity":46,"Duration":84491,"SoundDuration":84491,"Delta":59499500},{"NoteNumber":65,"Velocity":63,"Duration":231732,"SoundDuration":231732,"Delta":59612155},{"NoteNumber":70,"Velocity":72,"Duration":231732,"SoundDuration":231732,"Delta":59612155},{"NoteNumber":62,"Velocity":43,"Duration":231732,"SoundDuration":231732,"Delta":59612155},{"NoteNumber":50,"Velocity":43,"Duration":231732,"SoundDuration":231732,"Delta":59612155},{"NoteNumber":64,"Velocity":58,"Duration":85162,"SoundDuration":85162,"Delta":59959753},{"NoteNumber":69,"Velocity":70,"Duration":85162,"SoundDuration":85162,"Delta":59959753},{"NoteNumber":49,"Velocity":42,"Duration":85162,"SoundDuration":85162,"Delta":59959753},{"NoteNumber":61,"Velocity":42,"Duration":85162,"SoundDuration":85162,"Delta":59959753},{"NoteNumber":70,"Velocity":75,"Duration":229762,"SoundDuration":229762,"Delta":60073304},{"NoteNumber":65,"Velocity":64,"Duration":229762,"SoundDuration":229762,"Delta":60073304},{"NoteNumber":50,"Velocity":46,"Duration":229762,"SoundDuration":229762,"Delta":60073304},{"NoteNumber":62,"Velocity":46,"Duration":229762,"SoundDuration":229762,"Delta":60073304},{"NoteNumber":64,"Velocity":57,"Duration":83830,"SoundDuration":83830,"Delta":60417947},{"NoteNumber":69,"Velocity":70,"Duration":83830,"SoundDuration":83830,"Delta":60417947},{"NoteNumber":48,"Velocity":40,"Duration":83830,"SoundDuration":83830,"Delta":60417947},{"NoteNumber":60,"Velocity":40,"Duration":83830,"SoundDuration":83830,"Delta":60417947},{"NoteNumber":62,"Velocity":74,"Duration":228763,"SoundDuration":228763,"Delta":60529720},{"NoteNumber":67,"Velocity":74,"Duration":228763,"SoundDuration":228763,"Delta":60529720},{"NoteNumber":46,"Velocity":46,"Duration":228763,"SoundDuration":228763,"Delta":60529720},{"NoteNumber":58,"Velocity":46,"Duration":228763,"SoundDuration":228763,"Delta":60529720},{"NoteNumber":60,"Velocity":58,"Duration":84162,"SoundDuration":84162,"Delta":60872865},{"NoteNumber":66,"Velocity":70,"Duration":84162,"SoundDuration":84162,"Delta":60872865},{"NoteNumber":57,"Velocity":42,"Duration":84162,"SoundDuration":84162,"Delta":60872865},{"NoteNumber":45,"Velocity":42,"Duration":84162,"SoundDuration":84162,"Delta":60872865},{"NoteNumber":62,"Velocity":77,"Duration":226843,"SoundDuration":226843,"Delta":60985081},{"NoteNumber":67,"Velocity":77,"Duration":226843,"SoundDuration":226843,"Delta":60985081},{"NoteNumber":58,"Velocity":47,"Duration":226843,"SoundDuration":226843,"Delta":60985081},{"NoteNumber":46,"Velocity":47,"Duration":226843,"SoundDuration":226843,"Delta":60985081},{"NoteNumber":69,"Velocity":73,"Duration":82860,"SoundDuration":82860,"Delta":61325346},{"NoteNumber":64,"Velocity":63,"Duration":82860,"SoundDuration":82860,"Delta":61325346},{"NoteNumber":61,"Velocity":46,"Duration":82860,"SoundDuration":82860,"Delta":61325346},{"NoteNumber":49,"Velocity":46,"Duration":82860,"SoundDuration":82860,"Delta":61325346},{"NoteNumber":65,"Velocity":78,"Duration":224014,"SoundDuration":224014,"Delta":61435827},{"NoteNumber":70,"Velocity":78,"Duration":224014,"SoundDuration":224014,"Delta":61435827},{"NoteNumber":62,"Velocity":48,"Duration":224014,"SoundDuration":224014,"Delta":61435827},{"NoteNumber":50,"Velocity":48,"Duration":224014,"SoundDuration":224014,"Delta":61435827},{"NoteNumber":67,"Velocity":63,"Duration":84005,"SoundDuration":84005,"Delta":61771849},{"NoteNumber":73,"Velocity":73,"Duration":84005,"SoundDuration":84005,"Delta":61771849},{"NoteNumber":64,"Velocity":46,"Duration":84005,"SoundDuration":84005,"Delta":61771849},{"NoteNumber":52,"Velocity":46,"Duration":84005,"SoundDuration":84005,"Delta":61771849},{"NoteNumber":69,"Velocity":70,"Duration":224014,"SoundDuration":224014,"Delta":61883856},{"NoteNumber":74,"Velocity":84,"Duration":224014,"SoundDuration":224014,"Delta":61883856},{"NoteNumber":53,"Velocity":52,"Duration":224014,"SoundDuration":224014,"Delta":61883856},{"NoteNumber":65,"Velocity":52,"Duration":224014,"SoundDuration":224014,"Delta":61883856},{"NoteNumber":76,"Velocity":80,"Duration":84005,"SoundDuration":84005,"Delta":62219878},{"NoteNumber":69,"Velocity":67,"Duration":84005,"SoundDuration":84005,"Delta":62219878},{"NoteNumber":55,"Velocity":48,"Duration":84005,"SoundDuration":84005,"Delta":62219878},{"NoteNumber":67,"Velocity":48,"Duration":84005,"SoundDuration":84005,"Delta":62219878},{"NoteNumber":69,"Velocity":71,"Duration":126103,"SoundDuration":126103,"Delta":62331885},{"NoteNumber":74,"Velocity":86,"Duration":126103,"SoundDuration":126103,"Delta":62331885},{"NoteNumber":53,"Velocity":53,"Duration":126103,"SoundDuration":126103,"Delta":62331885},{"NoteNumber":65,"Velocity":53,"Duration":126103,"SoundDuration":126103,"Delta":62331885},{"NoteNumber":55,"Velocity":86,"Duration":966340,"SoundDuration":966340,"Delta":62836299},{"NoteNumber":58,"Velocity":96,"Duration":966340,"SoundDuration":966340,"Delta":62836299},{"NoteNumber":50,"Velocity":86,"Duration":966340,"SoundDuration":966340,"Delta":62836299},{"NoteNumber":62,"Velocity":96,"Duration":966340,"SoundDuration":966340,"Delta":62836299},{"NoteNumber":38,"Velocity":72,"Duration":187985,"SoundDuration":187985,"Delta":63802639},{"NoteNumber":50,"Velocity":81,"Duration":187985,"SoundDuration":187985,"Delta":63802639},{"NoteNumber":50,"Velocity":85,"Duration":966340,"SoundDuration":966340,"Delta":64805229},{"NoteNumber":53,"Velocity":85,"Duration":966340,"SoundDuration":966340,"Delta":64805229},{"NoteNumber":62,"Velocity":95,"Duration":966340,"SoundDuration":966340,"Delta":64805229},{"NoteNumber":57,"Velocity":95,"Duration":966340,"SoundDuration":966340,"Delta":64805229},{"NoteNumber":50,"Velocity":81,"Duration":183388,"SoundDuration":183388,"Delta":65771569},{"NoteNumber":38,"Velocity":72,"Duration":183388,"SoundDuration":183388,"Delta":65771569},{"NoteNumber":62,"Velocity":83,"Duration":480150,"SoundDuration":480150,"Delta":66260606},{"NoteNumber":74,"Velocity":93,"Duration":956841,"SoundDuration":956841,"Delta":66260606},{"NoteNumber":55,"Velocity":77,"Duration":944259,"SoundDuration":944259,"Delta":66743776},{"NoteNumber":58,"Velocity":86,"Duration":944259,"SoundDuration":944259,"Delta":66743776},{"NoteNumber":62,"Velocity":86,"Duration":944259,"SoundDuration":944259,"Delta":66743776},{"NoteNumber":50,"Velocity":77,"Duration":944259,"SoundDuration":944259,"Delta":66743776},{"NoteNumber":67,"Velocity":80,"Duration":470588,"SoundDuration":470588,"Delta":67217448},{"NoteNumber":79,"Velocity":89,"Duration":470588,"SoundDuration":470588,"Delta":67217448},{"NoteNumber":69,"Velocity":84,"Duration":469080,"SoundDuration":469080,"Delta":67688036},{"NoteNumber":81,"Velocity":94,"Duration":469080,"SoundDuration":469080,"Delta":67688036},{"NoteNumber":38,"Velocity":62,"Duration":175905,"SoundDuration":175905,"Delta":67688036},{"NoteNumber":50,"Velocity":69,"Duration":175905,"SoundDuration":175905,"Delta":67688036},{"NoteNumber":70,"Velocity":80,"Duration":462712,"SoundDuration":462712,"Delta":68157116},{"NoteNumber":82,"Velocity":89,"Duration":462712,"SoundDuration":462712,"Delta":68157116},{"NoteNumber":69,"Velocity":83,"Duration":887901,"SoundDuration":887901,"Delta":68619829},{"NoteNumber":81,"Velocity":93,"Duration":887901,"SoundDuration":887901,"Delta":68619829},{"NoteNumber":53,"Velocity":73,"Duration":887901,"SoundDuration":887901,"Delta":68619829},{"NoteNumber":57,"Velocity":82,"Duration":887901,"SoundDuration":887901,"Delta":68619829},{"NoteNumber":50,"Velocity":73,"Duration":887901,"SoundDuration":887901,"Delta":68619829},{"NoteNumber":62,"Velocity":82,"Duration":885127,"SoundDuration":885127,"Delta":68619829},{"NoteNumber":62,"Velocity":76,"Duration":198129,"SoundDuration":198129,"Delta":69507731},{"NoteNumber":74,"Velocity":85,"Duration":198129,"SoundDuration":198129,"Delta":69507731},{"NoteNumber":38,"Velocity":66,"Duration":198129,"SoundDuration":198129,"Delta":69507731},{"NoteNumber":50,"Velocity":74,"Duration":198129,"SoundDuration":198129,"Delta":69507731},{"NoteNumber":72,"Velocity":87,"Duration":475510,"SoundDuration":475510,"Delta":69983242},{"NoteNumber":84,"Velocity":97,"Duration":475510,"SoundDuration":475510,"Delta":69983242},{"NoteNumber":70,"Velocity":87,"Duration":887901,"SoundDuration":887901,"Delta":70458753},{"NoteNumber":82,"Velocity":97,"Duration":887901,"SoundDuration":887901,"Delta":70458753},{"NoteNumber":50,"Velocity":73,"Duration":887901,"SoundDuration":887901,"Delta":70458753},{"NoteNumber":55,"Velocity":73,"Duration":887901,"SoundDuration":887901,"Delta":70458753},{"NoteNumber":62,"Velocity":82,"Duration":885127,"SoundDuration":885127,"Delta":70458753},{"NoteNumber":58,"Velocity":82,"Duration":887901,"SoundDuration":887901,"Delta":70458753},{"NoteNumber":74,"Velocity":92,"Duration":198129,"SoundDuration":198129,"Delta":71346655},{"NoteNumber":62,"Velocity":82,"Duration":198129,"SoundDuration":198129,"Delta":71346655},{"NoteNumber":50,"Velocity":74,"Duration":198129,"SoundDuration":198129,"Delta":71346655},{"NoteNumber":38,"Velocity":66,"Duration":198129,"SoundDuration":198129,"Delta":71346655},{"NoteNumber":70,"Velocity":87,"Duration":469925,"SoundDuration":469925,"Delta":71822166},{"NoteNumber":82,"Velocity":97,"Duration":469925,"SoundDuration":469925,"Delta":71822166},{"NoteNumber":69,"Velocity":82,"Duration":887901,"SoundDuration":887901,"Delta":72292091},{"NoteNumber":81,"Velocity":92,"Duration":887901,"SoundDuration":887901,"Delta":72292091},{"NoteNumber":53,"Velocity":74,"Duration":887901,"SoundDuration":887901,"Delta":72292091},{"NoteNumber":57,"Velocity":83,"Duration":887901,"SoundDuration":887901,"Delta":72292091},{"NoteNumber":62,"Velocity":83,"Duration":885127,"SoundDuration":885127,"Delta":72292091},{"NoteNumber":50,"Velocity":74,"Duration":887901,"SoundDuration":887901,"Delta":72292091},{"NoteNumber":62,"Velocity":75,"Duration":198933,"SoundDuration":198933,"Delta":73179993},{"NoteNumber":74,"Velocity":84,"Duration":198933,"SoundDuration":198933,"Delta":73179993},{"NoteNumber":50,"Velocity":73,"Duration":198933,"SoundDuration":198933,"Delta":73179993},{"NoteNumber":38,"Velocity":65,"Duration":198933,"SoundDuration":198933,"Delta":73179993},{"NoteNumber":74,"Velocity":97,"Duration":934521,"SoundDuration":934521,"Delta":73657434},{"NoteNumber":62,"Velocity":87,"Duration":934521,"SoundDuration":934521,"Delta":73657434},{"NoteNumber":50,"Velocity":75,"Duration":922394,"SoundDuration":922394,"Delta":74120147},{"NoteNumber":55,"Velocity":75,"Duration":922394,"SoundDuration":922394,"Delta":74120147},{"NoteNumber":62,"Velocity":84,"Duration":922394,"SoundDuration":922394,"Delta":74120147},{"NoteNumber":58,"Velocity":84,"Duration":922394,"SoundDuration":922394,"Delta":74120147},{"NoteNumber":67,"Velocity":81,"Duration":450586,"SoundDuration":450586,"Delta":74591956},{"NoteNumber":79,"Velocity":91,"Duration":450586,"SoundDuration":450586,"Delta":74591956},{"NoteNumber":69,"Velocity":86,"Duration":457841,"SoundDuration":457841,"Delta":75042542},{"NoteNumber":81,"Velocity":96,"Duration":457841,"SoundDuration":457841,"Delta":75042542},{"NoteNumber":38,"Velocity":66,"Duration":171690,"SoundDuration":171690,"Delta":75042542},{"NoteNumber":50,"Velocity":74,"Duration":171690,"SoundDuration":171690,"Delta":75042542},{"NoteNumber":70,"Velocity":83,"Duration":464248,"SoundDuration":464248,"Delta":75500383},{"NoteNumber":82,"Velocity":93,"Duration":464248,"SoundDuration":464248,"Delta":75500383},{"NoteNumber":69,"Velocity":88,"Duration":878156,"SoundDuration":878156,"Delta":75964632},{"NoteNumber":81,"Velocity":98,"Duration":878156,"SoundDuration":878156,"Delta":75964632},{"NoteNumber":50,"Velocity":75,"Duration":878156,"SoundDuration":878156,"Delta":75964632},{"NoteNumber":57,"Velocity":84,"Duration":878156,"SoundDuration":878156,"Delta":75964632},{"NoteNumber":62,"Velocity":84,"Duration":875411,"SoundDuration":875411,"Delta":75964632},{"NoteNumber":53,"Velocity":75,"Duration":878156,"SoundDuration":878156,"Delta":75964632},{"NoteNumber":74,"Velocity":84,"Duration":194295,"SoundDuration":194295,"Delta":76842788},{"NoteNumber":62,"Velocity":75,"Duration":194295,"SoundDuration":194295,"Delta":76842788},{"NoteNumber":38,"Velocity":66,"Duration":194295,"SoundDuration":194295,"Delta":76842788},{"NoteNumber":50,"Velocity":74,"Duration":194295,"SoundDuration":194295,"Delta":76842788},{"NoteNumber":69,"Velocity":84,"Duration":914844,"SoundDuration":914844,"Delta":77309097},{"NoteNumber":81,"Velocity":94,"Duration":914844,"SoundDuration":914844,"Delta":77309097},{"NoteNumber":52,"Velocity":72,"Duration":908042,"SoundDuration":908042,"Delta":77766519},{"NoteNumber":57,"Velocity":81,"Duration":908042,"SoundDuration":908042,"Delta":77766519},{"NoteNumber":60,"Velocity":81,"Duration":908042,"SoundDuration":908042,"Delta":77766519},{"NoteNumber":48,"Velocity":72,"Duration":908042,"SoundDuration":908042,"Delta":77766519},{"NoteNumber":84,"Velocity":95,"Duration":450620,"SoundDuration":450620,"Delta":78223941},{"NoteNumber":72,"Velocity":85,"Duration":450620,"SoundDuration":450620,"Delta":78223941},{"NoteNumber":74,"Velocity":93,"Duration":455995,"SoundDuration":455995,"Delta":78674561},{"NoteNumber":86,"Velocity":104,"Duration":455995,"SoundDuration":455995,"Delta":78674561},{"NoteNumber":48,"Velocity":71,"Duration":170998,"SoundDuration":170998,"Delta":78674561},{"NoteNumber":36,"Velocity":63,"Duration":170998,"SoundDuration":170998,"Delta":78674561},{"NoteNumber":88,"Velocity":101,"Duration":493055,"SoundDuration":493055,"Delta":79130557},{"NoteNumber":76,"Velocity":90,"Duration":493055,"SoundDuration":493055,"Delta":79130557},{"NoteNumber":88,"Velocity":108,"Duration":926075,"SoundDuration":926075,"Delta":79623613},{"NoteNumber":76,"Velocity":97,"Duration":926075,"SoundDuration":926075,"Delta":79623613},{"NoteNumber":47,"Velocity":74,"Duration":926075,"SoundDuration":926075,"Delta":79623613},{"NoteNumber":56,"Velocity":83,"Duration":926075,"SoundDuration":926075,"Delta":79623613},{"NoteNumber":59,"Velocity":83,"Duration":926075,"SoundDuration":926075,"Delta":79623613},{"NoteNumber":76,"Velocity":84,"Duration":900689,"SoundDuration":900689,"Delta":80589953},{"NoteNumber":88,"Velocity":94,"Duration":900689,"SoundDuration":900689,"Delta":80589953},{"NoteNumber":64,"Velocity":76,"Duration":900689,"SoundDuration":900689,"Delta":80589953},{"NoteNumber":52,"Velocity":68,"Duration":900689,"SoundDuration":900689,"Delta":80589953},{"NoteNumber":56,"Velocity":76,"Duration":900689,"SoundDuration":900689,"Delta":80589953},{"NoteNumber":84,"Velocity":96,"Duration":926783,"SoundDuration":926783,"Delta":81529803},{"NoteNumber":72,"Velocity":86,"Duration":926783,"SoundDuration":926783,"Delta":81529803},{"NoteNumber":48,"Velocity":71,"Duration":926783,"SoundDuration":926783,"Delta":81529803},{"NoteNumber":60,"Velocity":79,"Duration":926783,"SoundDuration":926783,"Delta":81529803},{"NoteNumber":81,"Velocity":81,"Duration":208004,"SoundDuration":208004,"Delta":82456587},{"NoteNumber":69,"Velocity":72,"Duration":208004,"SoundDuration":208004,"Delta":82456587},{"NoteNumber":45,"Velocity":65,"Duration":208004,"SoundDuration":208004,"Delta":82456587},{"NoteNumber":57,"Velocity":73,"Duration":208004,"SoundDuration":208004,"Delta":82456587},{"NoteNumber":64,"Velocity":48,"Duration":956819,"SoundDuration":956819,"Delta":83455007},{"NoteNumber":76,"Velocity":48,"Duration":956819,"SoundDuration":956819,"Delta":83455007},{"NoteNumber":44,"Velocity":40,"Duration":956819,"SoundDuration":956819,"Delta":83455007},{"NoteNumber":47,"Velocity":40,"Duration":956819,"SoundDuration":956819,"Delta":83455007},{"NoteNumber":35,"Velocity":40,"Duration":956819,"SoundDuration":956819,"Delta":83455007},{"NoteNumber":76,"Velocity":48,"Duration":929819,"SoundDuration":929819,"Delta":84453427},{"NoteNumber":64,"Velocity":48,"Duration":929819,"SoundDuration":929819,"Delta":84453427},{"NoteNumber":40,"Velocity":37,"Duration":929819,"SoundDuration":929819,"Delta":84453427},{"NoteNumber":44,"Velocity":37,"Duration":929819,"SoundDuration":929819,"Delta":84453427},{"NoteNumber":52,"Velocity":37,"Duration":929819,"SoundDuration":929819,"Delta":84453427},{"NoteNumber":60,"Velocity":45,"Duration":934361,"SoundDuration":934361,"Delta":85423673},{"NoteNumber":72,"Velocity":45,"Duration":934361,"SoundDuration":934361,"Delta":85423673},{"NoteNumber":48,"Velocity":37,"Duration":934361,"SoundDuration":934361,"Delta":85423673},{"NoteNumber":36,"Velocity":37,"Duration":934361,"SoundDuration":934361,"Delta":85423673},{"NoteNumber":57,"Velocity":41,"Duration":202134,"SoundDuration":202134,"Delta":86358035},{"NoteNumber":69,"Velocity":41,"Duration":202134,"SoundDuration":202134,"Delta":86358035},{"NoteNumber":45,"Velocity":37,"Duration":202134,"SoundDuration":202134,"Delta":86358035},{"NoteNumber":33,"Velocity":37,"Duration":202134,"SoundDuration":202134,"Delta":86358035},{"NoteNumber":58,"Velocity":34,"Duration":915682,"SoundDuration":915682,"Delta":87328281},{"NoteNumber":70,"Velocity":34,"Duration":915682,"SoundDuration":915682,"Delta":87328281},{"NoteNumber":34,"Velocity":31,"Duration":915682,"SoundDuration":915682,"Delta":87328281},{"NoteNumber":46,"Velocity":31,"Duration":915682,"SoundDuration":915682,"Delta":87328281},{"NoteNumber":67,"Velocity":25,"Duration":179583,"SoundDuration":179583,"Delta":88243963},{"NoteNumber":55,"Velocity":25,"Duration":179583,"SoundDuration":179583,"Delta":88243963},{"NoteNumber":31,"Velocity":24,"Duration":179583,"SoundDuration":179583,"Delta":88243963},{"NoteNumber":43,"Velocity":24,"Duration":179583,"SoundDuration":179583,"Delta":88243963},{"NoteNumber":58,"Velocity":31,"Duration":915682,"SoundDuration":915682,"Delta":89201741},{"NoteNumber":70,"Velocity":31,"Duration":915682,"SoundDuration":915682,"Delta":89201741},{"NoteNumber":34,"Velocity":30,"Duration":915682,"SoundDuration":915682,"Delta":89201741},{"NoteNumber":46,"Velocity":30,"Duration":915682,"SoundDuration":915682,"Delta":89201741},{"NoteNumber":55,"Velocity":25,"Duration":178105,"SoundDuration":178105,"Delta":90117423},{"NoteNumber":67,"Velocity":25,"Duration":178105,"SoundDuration":178105,"Delta":90117423},{"NoteNumber":31,"Velocity":22,"Duration":178105,"SoundDuration":178105,"Delta":90117423},{"NoteNumber":43,"Velocity":22,"Duration":178105,"SoundDuration":178105,"Delta":90117423},{"NoteNumber":58,"Velocity":31,"Duration":911991,"SoundDuration":911991,"Delta":91067317},{"NoteNumber":70,"Velocity":31,"Duration":911991,"SoundDuration":911991,"Delta":91067317},{"NoteNumber":46,"Velocity":30,"Duration":911991,"SoundDuration":911991,"Delta":91067317},{"NoteNumber":34,"Velocity":30,"Duration":911991,"SoundDuration":911991,"Delta":91067317},{"NoteNumber":55,"Velocity":24,"Duration":174472,"SoundDuration":174472,"Delta":91979309},{"NoteNumber":67,"Velocity":24,"Duration":174472,"SoundDuration":174472,"Delta":91979309},{"NoteNumber":31,"Velocity":23,"Duration":174472,"SoundDuration":174472,"Delta":91979309},{"NoteNumber":43,"Velocity":23,"Duration":174472,"SoundDuration":174472,"Delta":91979309},{"NoteNumber":70,"Velocity":34,"Duration":901240,"SoundDuration":901240,"Delta":92909831},{"NoteNumber":58,"Velocity":34,"Duration":901240,"SoundDuration":901240,"Delta":92909831},{"NoteNumber":34,"Velocity":31,"Duration":901240,"SoundDuration":901240,"Delta":92909831},{"NoteNumber":46,"Velocity":31,"Duration":901240,"SoundDuration":901240,"Delta":92909831},{"NoteNumber":55,"Velocity":29,"Duration":168982,"SoundDuration":168982,"Delta":93811071},{"NoteNumber":67,"Velocity":29,"Duration":168982,"SoundDuration":168982,"Delta":93811071},{"NoteNumber":31,"Velocity":26,"Duration":168982,"SoundDuration":168982,"Delta":93811071},{"NoteNumber":43,"Velocity":26,"Duration":168982,"SoundDuration":168982,"Delta":93811071},{"NoteNumber":59,"Velocity":80,"Duration":109339,"SoundDuration":109339,"Delta":94712311},{"NoteNumber":35,"Velocity":68,"Duration":109339,"SoundDuration":109339,"Delta":94712311},{"NoteNumber":71,"Velocity":76,"Duration":108977,"SoundDuration":108977,"Delta":94821650},{"NoteNumber":47,"Velocity":55,"Duration":108977,"SoundDuration":108977,"Delta":94821650},{"NoteNumber":59,"Velocity":72,"Duration":112372,"SoundDuration":112372,"Delta":94930628},{"NoteNumber":35,"Velocity":54,"Duration":112372,"SoundDuration":112372,"Delta":94930628},{"NoteNumber":71,"Velocity":67,"Duration":108809,"SoundDuration":108809,"Delta":95043000},{"NoteNumber":47,"Velocity":52,"Duration":108809,"SoundDuration":108809,"Delta":95043000},{"NoteNumber":59,"Velocity":63,"Duration":108888,"SoundDuration":108888,"Delta":95151810},{"NoteNumber":35,"Velocity":51,"Duration":108888,"SoundDuration":108888,"Delta":95151810},{"NoteNumber":71,"Velocity":60,"Duration":110865,"SoundDuration":110865,"Delta":95260699},{"NoteNumber":47,"Velocity":49,"Duration":110865,"SoundDuration":110865,"Delta":95260699},{"NoteNumber":59,"Velocity":57,"Duration":108967,"SoundDuration":108967,"Delta":95371564},{"NoteNumber":35,"Velocity":48,"Duration":108967,"SoundDuration":108967,"Delta":95371564},{"NoteNumber":71,"Velocity":54,"Duration":107762,"SoundDuration":107762,"Delta":95480531},{"NoteNumber":47,"Velocity":46,"Duration":107762,"SoundDuration":107762,"Delta":95480531},{"NoteNumber":59,"Velocity":60,"Duration":109411,"SoundDuration":109411,"Delta":95588294},{"NoteNumber":35,"Velocity":49,"Duration":109411,"SoundDuration":109411,"Delta":95588294},{"NoteNumber":71,"Velocity":57,"Duration":110326,"SoundDuration":110326,"Delta":95697705},{"NoteNumber":47,"Velocity":48,"Duration":110326,"SoundDuration":110326,"Delta":95697705},{"NoteNumber":59,"Velocity":55,"Duration":107099,"SoundDuration":107099,"Delta":95808032},{"NoteNumber":35,"Velocity":47,"Duration":107099,"SoundDuration":107099,"Delta":95808032},{"NoteNumber":71,"Velocity":52,"Duration":109645,"SoundDuration":109645,"Delta":95915131},{"NoteNumber":47,"Velocity":45,"Duration":109645,"SoundDuration":109645,"Delta":95915131},{"NoteNumber":59,"Velocity":58,"Duration":110338,"SoundDuration":110338,"Delta":96024776},{"NoteNumber":35,"Velocity":51,"Duration":110338,"SoundDuration":110338,"Delta":96024776},{"NoteNumber":71,"Velocity":56,"Duration":106025,"SoundDuration":106025,"Delta":96135115},{"NoteNumber":47,"Velocity":47,"Duration":106025,"SoundDuration":106025,"Delta":96135115},{"NoteNumber":59,"Velocity":54,"Duration":107703,"SoundDuration":107703,"Delta":96241141},{"NoteNumber":35,"Velocity":44,"Duration":107703,"SoundDuration":107703,"Delta":96241141},{"NoteNumber":71,"Velocity":51,"Duration":109489,"SoundDuration":109489,"Delta":96348844},{"NoteNumber":47,"Velocity":43,"Duration":109489,"SoundDuration":109489,"Delta":96348844},{"NoteNumber":56,"Velocity":80,"Duration":106244,"SoundDuration":106244,"Delta":96458333},{"NoteNumber":32,"Velocity":64,"Duration":106244,"SoundDuration":106244,"Delta":96458333},{"NoteNumber":68,"Velocity":75,"Duration":106459,"SoundDuration":106459,"Delta":96564578},{"NoteNumber":44,"Velocity":53,"Duration":106459,"SoundDuration":106459,"Delta":96564578},{"NoteNumber":56,"Velocity":69,"Duration":109108,"SoundDuration":109108,"Delta":96671037},{"NoteNumber":32,"Velocity":50,"Duration":109108,"SoundDuration":109108,"Delta":96671037},{"NoteNumber":68,"Velocity":65,"Duration":107988,"SoundDuration":107988,"Delta":96780146},{"NoteNumber":44,"Velocity":46,"Duration":107988,"SoundDuration":107988,"Delta":96780146},{"NoteNumber":56,"Velocity":61,"Duration":107547,"SoundDuration":107547,"Delta":96888134},{"NoteNumber":32,"Velocity":57,"Duration":107547,"SoundDuration":107547,"Delta":96888134},{"NoteNumber":68,"Velocity":60,"Duration":111109,"SoundDuration":111109,"Delta":96995681},{"NoteNumber":44,"Velocity":53,"Duration":111109,"SoundDuration":111109,"Delta":96995681},{"NoteNumber":56,"Velocity":59,"Duration":109742,"SoundDuration":109742,"Delta":97106790},{"NoteNumber":32,"Velocity":52,"Duration":109742,"SoundDuration":109742,"Delta":97106790},{"NoteNumber":68,"Velocity":58,"Duration":107395,"SoundDuration":107395,"Delta":97216533},{"NoteNumber":44,"Velocity":51,"Duration":107395,"SoundDuration":107395,"Delta":97216533},{"NoteNumber":56,"Velocity":69,"Duration":108735,"SoundDuration":108735,"Delta":97323929},{"NoteNumber":32,"Velocity":59,"Duration":108735,"SoundDuration":108735,"Delta":97323929},{"NoteNumber":68,"Velocity":68,"Duration":110554,"SoundDuration":110554,"Delta":97432664},{"NoteNumber":44,"Velocity":54,"Duration":110554,"SoundDuration":110554,"Delta":97432664},{"NoteNumber":56,"Velocity":66,"Duration":108303,"SoundDuration":108303,"Delta":97543218},{"NoteNumber":32,"Velocity":53,"Duration":108303,"SoundDuration":108303,"Delta":97543218},{"NoteNumber":68,"Velocity":63,"Duration":106904,"SoundDuration":106904,"Delta":97651522},{"NoteNumber":44,"Velocity":39,"Duration":106904,"SoundDuration":106904,"Delta":97651522},{"NoteNumber":56,"Velocity":73,"Duration":107439,"SoundDuration":107439,"Delta":97758426},{"NoteNumber":32,"Velocity":59,"Duration":107439,"SoundDuration":107439,"Delta":97758426},{"NoteNumber":68,"Velocity":70,"Duration":108113,"SoundDuration":108113,"Delta":97865866},{"NoteNumber":44,"Velocity":58,"Duration":108113,"SoundDuration":108113,"Delta":97865866},{"NoteNumber":56,"Velocity":67,"Duration":110120,"SoundDuration":110120,"Delta":97973980},{"NoteNumber":32,"Velocity":56,"Duration":110120,"SoundDuration":110120,"Delta":97973980},{"NoteNumber":68,"Velocity":64,"Duration":129054,"SoundDuration":129054,"Delta":98084100},{"NoteNumber":44,"Velocity":54,"Duration":129054,"SoundDuration":129054,"Delta":98084100},{"NoteNumber":83,"Velocity":99,"Duration":447094,"SoundDuration":447094,"Delta":98213154},{"NoteNumber":71,"Velocity":99,"Duration":447094,"SoundDuration":447094,"Delta":98213154},{"NoteNumber":59,"Velocity":79,"Duration":447094,"SoundDuration":447094,"Delta":98213154},{"NoteNumber":47,"Velocity":79,"Duration":447094,"SoundDuration":447094,"Delta":98213154},{"NoteNumber":68,"Velocity":90,"Duration":171690,"SoundDuration":171690,"Delta":98660248},{"NoteNumber":80,"Velocity":90,"Duration":171690,"SoundDuration":171690,"Delta":98660248},{"NoteNumber":56,"Velocity":69,"Duration":171690,"SoundDuration":171690,"Delta":98660248},{"NoteNumber":44,"Velocity":69,"Duration":171690,"SoundDuration":171690,"Delta":98660248},{"NoteNumber":71,"Velocity":98,"Duration":448867,"SoundDuration":448867,"Delta":99118089},{"NoteNumber":83,"Velocity":98,"Duration":448867,"SoundDuration":448867,"Delta":99118089},{"NoteNumber":59,"Velocity":79,"Duration":448867,"SoundDuration":448867,"Delta":99118089},{"NoteNumber":47,"Velocity":79,"Duration":448867,"SoundDuration":448867,"Delta":99118089},{"NoteNumber":88,"Velocity":93,"Duration":173076,"SoundDuration":173076,"Delta":99566956},{"NoteNumber":76,"Velocity":93,"Duration":173076,"SoundDuration":173076,"Delta":99566956},{"NoteNumber":52,"Velocity":69,"Duration":173076,"SoundDuration":173076,"Delta":99566956},{"NoteNumber":64,"Velocity":69,"Duration":173076,"SoundDuration":173076,"Delta":99566956},{"NoteNumber":71,"Velocity":95,"Duration":459207,"SoundDuration":459207,"Delta":100028494},{"NoteNumber":83,"Velocity":95,"Duration":459207,"SoundDuration":459207,"Delta":100028494},{"NoteNumber":59,"Velocity":75,"Duration":459207,"SoundDuration":459207,"Delta":100028494},{"NoteNumber":47,"Velocity":75,"Duration":459207,"SoundDuration":459207,"Delta":100028494},{"NoteNumber":68,"Velocity":90,"Duration":176221,"SoundDuration":176221,"Delta":100487701},{"NoteNumber":80,"Velocity":90,"Duration":176221,"SoundDuration":176221,"Delta":100487701},{"NoteNumber":56,"Velocity":70,"Duration":176221,"SoundDuration":176221,"Delta":100487701},{"NoteNumber":44,"Velocity":70,"Duration":176221,"SoundDuration":176221,"Delta":100487701},{"NoteNumber":76,"Velocity":90,"Duration":491078,"SoundDuration":491078,"Delta":100957626},{"NoteNumber":64,"Velocity":90,"Duration":491078,"SoundDuration":491078,"Delta":100957626},{"NoteNumber":52,"Velocity":69,"Duration":491078,"SoundDuration":491078,"Delta":100957626},{"NoteNumber":40,"Velocity":69,"Duration":491078,"SoundDuration":491078,"Delta":100957626},{"NoteNumber":59,"Velocity":81,"Duration":238448,"SoundDuration":238448,"Delta":101448705},{"NoteNumber":71,"Velocity":81,"Duration":238448,"SoundDuration":238448,"Delta":101448705},{"NoteNumber":47,"Velocity":60,"Duration":238448,"SoundDuration":238448,"Delta":101448705},{"NoteNumber":35,"Velocity":60,"Duration":238448,"SoundDuration":238448,"Delta":101448705},{"NoteNumber":68,"Velocity":34,"Duration":1924927,"SoundDuration":1924927,"Delta":102084568},{"NoteNumber":64,"Velocity":34,"Duration":1924927,"SoundDuration":1924927,"Delta":102084568},{"NoteNumber":56,"Velocity":34,"Duration":1924927,"SoundDuration":1924927,"Delta":102084568},{"NoteNumber":35,"Velocity":27,"Duration":3849675,"SoundDuration":3849675,"Delta":102084568},{"NoteNumber":47,"Velocity":27,"Duration":3849675,"SoundDuration":3849675,"Delta":102084568},{"NoteNumber":57,"Velocity":38,"Duration":1924747,"SoundDuration":1924747,"Delta":104009496},{"NoteNumber":71,"Velocity":38,"Duration":1924747,"SoundDuration":1924747,"Delta":104009496},{"NoteNumber":63,"Velocity":38,"Duration":1924747,"SoundDuration":1924747,"Delta":104009496},{"NoteNumber":59,"Velocity":93,"Duration":105196,"SoundDuration":105196,"Delta":105934244},{"NoteNumber":35,"Velocity":81,"Duration":105196,"SoundDuration":105196,"Delta":105934244},{"NoteNumber":71,"Velocity":87,"Duration":105196,"SoundDuration":105196,"Delta":106039441},{"NoteNumber":47,"Velocity":50,"Duration":105196,"SoundDuration":105196,"Delta":106039441},{"NoteNumber":59,"Velocity":81,"Duration":105196,"SoundDuration":105196,"Delta":106144638},{"NoteNumber":35,"Velocity":63,"Duration":105196,"SoundDuration":105196,"Delta":106144638},{"NoteNumber":71,"Velocity":75,"Duration":105196,"SoundDuration":105196,"Delta":106249835},{"NoteNumber":47,"Velocity":48,"Duration":105196,"SoundDuration":105196,"Delta":106249835},{"NoteNumber":56,"Velocity":91,"Duration":105196,"SoundDuration":105196,"Delta":106355031},{"NoteNumber":32,"Velocity":72,"Duration":105196,"SoundDuration":105196,"Delta":106355031},{"NoteNumber":68,"Velocity":86,"Duration":105196,"SoundDuration":105196,"Delta":106460228},{"NoteNumber":44,"Velocity":52,"Duration":105196,"SoundDuration":105196,"Delta":106460228},{"NoteNumber":56,"Velocity":81,"Duration":105196,"SoundDuration":105196,"Delta":106565425},{"NoteNumber":32,"Velocity":58,"Duration":105196,"SoundDuration":105196,"Delta":106565425},{"NoteNumber":68,"Velocity":75,"Duration":105196,"SoundDuration":105196,"Delta":106670622},{"NoteNumber":44,"Velocity":46,"Duration":105196,"SoundDuration":105196,"Delta":106670622},{"NoteNumber":59,"Velocity":84,"Duration":103298,"SoundDuration":103298,"Delta":106775818},{"NoteNumber":35,"Velocity":72,"Duration":103298,"SoundDuration":103298,"Delta":106775818},{"NoteNumber":71,"Velocity":80,"Duration":103298,"SoundDuration":103298,"Delta":106879117},{"NoteNumber":47,"Velocity":53,"Duration":103298,"SoundDuration":103298,"Delta":106879117},{"NoteNumber":59,"Velocity":77,"Duration":103298,"SoundDuration":103298,"Delta":106982416},{"NoteNumber":35,"Velocity":60,"Duration":103298,"SoundDuration":103298,"Delta":106982416},{"NoteNumber":71,"Velocity":73,"Duration":103298,"SoundDuration":103298,"Delta":107085715},{"NoteNumber":47,"Velocity":45,"Duration":103298,"SoundDuration":103298,"Delta":107085715},{"NoteNumber":64,"Velocity":88,"Duration":103298,"SoundDuration":103298,"Delta":107189013},{"NoteNumber":40,"Velocity":72,"Duration":103298,"SoundDuration":103298,"Delta":107189013},{"NoteNumber":76,"Velocity":85,"Duration":103298,"SoundDuration":103298,"Delta":107292312},{"NoteNumber":52,"Velocity":53,"Duration":103298,"SoundDuration":103298,"Delta":107292312},{"NoteNumber":64,"Velocity":83,"Duration":103298,"SoundDuration":103298,"Delta":107395611},{"NoteNumber":40,"Velocity":62,"Duration":103298,"SoundDuration":103298,"Delta":107395611},{"NoteNumber":76,"Velocity":80,"Duration":102807,"SoundDuration":102807,"Delta":107498910},{"NoteNumber":52,"Velocity":48,"Duration":102807,"SoundDuration":102807,"Delta":107498910},{"NoteNumber":68,"Velocity":91,"Duration":102930,"SoundDuration":102930,"Delta":107601717},{"NoteNumber":44,"Velocity":77,"Duration":102930,"SoundDuration":102930,"Delta":107601717},{"NoteNumber":80,"Velocity":88,"Duration":102686,"SoundDuration":102686,"Delta":107704647},{"NoteNumber":56,"Velocity":60,"Duration":102686,"SoundDuration":102686,"Delta":107704647},{"NoteNumber":68,"Velocity":86,"Duration":102440,"SoundDuration":102440,"Delta":107807333},{"NoteNumber":44,"Velocity":68,"Duration":102440,"SoundDuration":102440,"Delta":107807333},{"NoteNumber":80,"Velocity":83,"Duration":102193,"SoundDuration":102193,"Delta":107909774},{"NoteNumber":56,"Velocity":55,"Duration":102193,"SoundDuration":102193,"Delta":107909774},{"NoteNumber":71,"Velocity":94,"Duration":101832,"SoundDuration":101832,"Delta":108011967},{"NoteNumber":47,"Velocity":79,"Duration":101832,"SoundDuration":101832,"Delta":108011967},{"NoteNumber":83,"Velocity":91,"Duration":101589,"SoundDuration":101589,"Delta":108113800},{"NoteNumber":59,"Velocity":57,"Duration":101589,"SoundDuration":101589,"Delta":108113800},{"NoteNumber":71,"Velocity":88,"Duration":101349,"SoundDuration":101349,"Delta":108215390},{"NoteNumber":47,"Velocity":66,"Duration":101349,"SoundDuration":101349,"Delta":108215390},{"NoteNumber":83,"Velocity":84,"Duration":101112,"SoundDuration":101112,"Delta":108316739},{"NoteNumber":59,"Velocity":51,"Duration":101112,"SoundDuration":101112,"Delta":108316739},{"NoteNumber":76,"Velocity":102,"Duration":101979,"SoundDuration":101979,"Delta":108417852},{"NoteNumber":52,"Velocity":88,"Duration":101979,"SoundDuration":101979,"Delta":108417852},{"NoteNumber":88,"Velocity":96,"Duration":104561,"SoundDuration":104561,"Delta":108519832},{"NoteNumber":64,"Velocity":57,"Duration":104561,"SoundDuration":104561,"Delta":108519832},{"NoteNumber":76,"Velocity":90,"Duration":104941,"SoundDuration":104941,"Delta":108624393},{"NoteNumber":52,"Velocity":74,"Duration":104941,"SoundDuration":104941,"Delta":108624393},{"NoteNumber":88,"Velocity":84,"Duration":107733,"SoundDuration":107733,"Delta":108729335},{"NoteNumber":64,"Velocity":57,"Duration":107733,"SoundDuration":107733,"Delta":108729335},{"NoteNumber":71,"Velocity":82,"Duration":113538,"SoundDuration":113538,"Delta":108837069},{"NoteNumber":47,"Velocity":73,"Duration":113538,"SoundDuration":113538,"Delta":108837069},{"NoteNumber":83,"Velocity":71,"Duration":117044,"SoundDuration":117044,"Delta":108950607},{"NoteNumber":59,"Velocity":48,"Duration":117044,"SoundDuration":117044,"Delta":108950607},{"NoteNumber":71,"Velocity":68,"Duration":119872,"SoundDuration":119872,"Delta":109067651},{"NoteNumber":47,"Velocity":58,"Duration":119872,"SoundDuration":119872,"Delta":109067651},{"NoteNumber":83,"Velocity":64,"Duration":172552,"SoundDuration":172552,"Delta":109187524},{"NoteNumber":59,"Velocity":47,"Duration":172552,"SoundDuration":172552,"Delta":109187524},{"NoteNumber":68,"Velocity":39,"Duration":1923692,"SoundDuration":1923692,"Delta":109360077},{"NoteNumber":64,"Velocity":39,"Duration":1923692,"SoundDuration":1923692,"Delta":109360077},{"NoteNumber":56,"Velocity":39,"Duration":1923692,"SoundDuration":1923692,"Delta":109360077},{"NoteNumber":47,"Velocity":37,"Duration":3847384,"SoundDuration":3847384,"Delta":109360077},{"NoteNumber":35,"Velocity":37,"Duration":3847384,"SoundDuration":3847384,"Delta":109360077},{"NoteNumber":71,"Velocity":47,"Duration":1923692,"SoundDuration":1923692,"Delta":111283769},{"NoteNumber":57,"Velocity":47,"Duration":1923692,"SoundDuration":1923692,"Delta":111283769},{"NoteNumber":63,"Velocity":47,"Duration":1923692,"SoundDuration":1923692,"Delta":111283769},{"NoteNumber":56,"Velocity":34,"Duration":985433,"SoundDuration":985433,"Delta":113207461},{"NoteNumber":64,"Velocity":40,"Duration":985433,"SoundDuration":985433,"Delta":113207461},{"NoteNumber":47,"Velocity":20,"Duration":985433,"SoundDuration":985433,"Delta":113207461},{"NoteNumber":40,"Velocity":20,"Duration":985433,"SoundDuration":985433,"Delta":113207461},{"NoteNumber":56,"Velocity":26,"Duration":899743,"SoundDuration":899743,"Delta":114235739},{"NoteNumber":64,"Velocity":30,"Duration":899743,"SoundDuration":899743,"Delta":114235739},{"NoteNumber":47,"Velocity":19,"Duration":899743,"SoundDuration":899743,"Delta":114235739},{"NoteNumber":40,"Velocity":19,"Duration":899743,"SoundDuration":899743,"Delta":114235739},{"NoteNumber":56,"Velocity":39,"Duration":470903,"SoundDuration":470903,"Delta":115264017},{"NoteNumber":64,"Velocity":39,"Duration":470903,"SoundDuration":470903,"Delta":115264017},{"NoteNumber":47,"Velocity":20,"Duration":470903,"SoundDuration":470903,"Delta":115264017},{"NoteNumber":40,"Velocity":20,"Duration":470903,"SoundDuration":470903,"Delta":115264017},{"NoteNumber":68,"Velocity":34,"Duration":461218,"SoundDuration":461218,"Delta":115744940},{"NoteNumber":56,"Velocity":34,"Duration":461218,"SoundDuration":461218,"Delta":115744940},{"NoteNumber":40,"Velocity":16,"Duration":461218,"SoundDuration":461218,"Delta":115744940},{"NoteNumber":47,"Velocity":16,"Duration":461218,"SoundDuration":461218,"Delta":115744940},{"NoteNumber":56,"Velocity":38,"Duration":477060,"SoundDuration":477060,"Delta":116215972},{"NoteNumber":66,"Velocity":38,"Duration":477060,"SoundDuration":477060,"Delta":116215972},{"NoteNumber":40,"Velocity":19,"Duration":477060,"SoundDuration":477060,"Delta":116215972},{"NoteNumber":47,"Velocity":19,"Duration":477060,"SoundDuration":477060,"Delta":116215972},{"NoteNumber":56,"Velocity":35,"Duration":490851,"SoundDuration":490851,"Delta":116703183},{"NoteNumber":68,"Velocity":35,"Duration":490851,"SoundDuration":490851,"Delta":116703183},{"NoteNumber":40,"Velocity":15,"Duration":490851,"SoundDuration":490851,"Delta":116703183},{"NoteNumber":47,"Velocity":15,"Duration":490851,"SoundDuration":490851,"Delta":116703183},{"NoteNumber":57,"Velocity":39,"Duration":944792,"SoundDuration":944792,"Delta":117204478},{"NoteNumber":61,"Velocity":39,"Duration":944792,"SoundDuration":944792,"Delta":117204478},{"NoteNumber":40,"Velocity":23,"Duration":944792,"SoundDuration":944792,"Delta":117204478},{"NoteNumber":49,"Velocity":23,"Duration":944792,"SoundDuration":944792,"Delta":117204478},{"NoteNumber":57,"Velocity":28,"Duration":862636,"SoundDuration":862636,"Delta":118190348},{"NoteNumber":61,"Velocity":28,"Duration":862636,"SoundDuration":862636,"Delta":118190348},{"NoteNumber":49,"Velocity":17,"Duration":862636,"SoundDuration":862636,"Delta":118190348},{"NoteNumber":40,"Velocity":17,"Duration":862636,"SoundDuration":862636,"Delta":118190348},{"NoteNumber":61,"Velocity":38,"Duration":474900,"SoundDuration":474900,"Delta":119176218},{"NoteNumber":57,"Velocity":38,"Duration":474900,"SoundDuration":474900,"Delta":119176218},{"NoteNumber":49,"Velocity":20,"Duration":474900,"SoundDuration":474900,"Delta":119176218},{"NoteNumber":40,"Velocity":20,"Duration":474900,"SoundDuration":474900,"Delta":119176218},{"NoteNumber":59,"Velocity":31,"Duration":472799,"SoundDuration":472799,"Delta":119661223},{"NoteNumber":57,"Velocity":31,"Duration":472799,"SoundDuration":472799,"Delta":119661223},{"NoteNumber":66,"Velocity":31,"Duration":472799,"SoundDuration":472799,"Delta":119661223},{"NoteNumber":51,"Velocity":15,"Duration":472799,"SoundDuration":472799,"Delta":119661223},{"NoteNumber":40,"Velocity":15,"Duration":472799,"SoundDuration":472799,"Delta":119661223},{"NoteNumber":64,"Velocity":37,"Duration":461146,"SoundDuration":461146,"Delta":120144082},{"NoteNumber":57,"Velocity":37,"Duration":461146,"SoundDuration":461146,"Delta":120144082},{"NoteNumber":59,"Velocity":37,"Duration":461146,"SoundDuration":461146,"Delta":120144082},{"NoteNumber":40,"Velocity":19,"Duration":461146,"SoundDuration":461146,"Delta":120144082},{"NoteNumber":49,"Velocity":19,"Duration":461146,"SoundDuration":461146,"Delta":120144082},{"NoteNumber":66,"Velocity":29,"Duration":497165,"SoundDuration":497165,"Delta":120615040},{"NoteNumber":57,"Velocity":29,"Duration":497165,"SoundDuration":497165,"Delta":120615040},{"NoteNumber":59,"Velocity":29,"Duration":497165,"SoundDuration":497165,"Delta":120615040},{"NoteNumber":40,"Velocity":15,"Duration":497165,"SoundDuration":497165,"Delta":120615040},{"NoteNumber":51,"Velocity":15,"Duration":497165,"SoundDuration":497165,"Delta":120615040},{"NoteNumber":59,"Velocity":36,"Duration":944792,"SoundDuration":944792,"Delta":121122783},{"NoteNumber":56,"Velocity":36,"Duration":944792,"SoundDuration":944792,"Delta":121122783},{"NoteNumber":52,"Velocity":23,"Duration":944792,"SoundDuration":944792,"Delta":121122783},{"NoteNumber":40,"Velocity":23,"Duration":944792,"SoundDuration":944792,"Delta":121122783},{"NoteNumber":56,"Velocity":24,"Duration":862636,"SoundDuration":862636,"Delta":122108653},{"NoteNumber":64,"Velocity":29,"Duration":862636,"SoundDuration":862636,"Delta":122108653},{"NoteNumber":47,"Velocity":17,"Duration":862636,"SoundDuration":862636,"Delta":122108653},{"NoteNumber":40,"Velocity":17,"Duration":862636,"SoundDuration":862636,"Delta":122108653},{"NoteNumber":56,"Velocity":46,"Duration":472874,"SoundDuration":472874,"Delta":123094523},{"NoteNumber":64,"Velocity":46,"Duration":472874,"SoundDuration":472874,"Delta":123094523},{"NoteNumber":47,"Velocity":23,"Duration":472874,"SoundDuration":472874,"Delta":123094523},{"NoteNumber":40,"Velocity":23,"Duration":472874,"SoundDuration":472874,"Delta":123094523},{"NoteNumber":56,"Velocity":38,"Duration":472951,"SoundDuration":472951,"Delta":123577459},{"NoteNumber":68,"Velocity":38,"Duration":472951,"SoundDuration":472951,"Delta":123577459},{"NoteNumber":47,"Velocity":18,"Duration":472951,"SoundDuration":472951,"Delta":123577459},{"NoteNumber":40,"Velocity":18,"Duration":472951,"SoundDuration":472951,"Delta":123577459},{"NoteNumber":66,"Velocity":46,"Duration":465052,"SoundDuration":465052,"Delta":124060473},{"NoteNumber":56,"Velocity":46,"Duration":465052,"SoundDuration":465052,"Delta":124060473},{"NoteNumber":40,"Velocity":24,"Duration":465052,"SoundDuration":465052,"Delta":124060473},{"NoteNumber":47,"Velocity":24,"Duration":465052,"SoundDuration":465052,"Delta":124060473},{"NoteNumber":56,"Velocity":39,"Duration":457305,"SoundDuration":457305,"Delta":124535420},{"NoteNumber":68,"Velocity":39,"Duration":457305,"SoundDuration":457305,"Delta":124535420},{"NoteNumber":47,"Velocity":18,"Duration":457305,"SoundDuration":457305,"Delta":124535420},{"NoteNumber":40,"Velocity":18,"Duration":457305,"SoundDuration":457305,"Delta":124535420},{"NoteNumber":57,"Velocity":46,"Duration":944792,"SoundDuration":944792,"Delta":125002455},{"NoteNumber":64,"Velocity":46,"Duration":944792,"SoundDuration":944792,"Delta":125002455},{"NoteNumber":69,"Velocity":46,"Duration":944792,"SoundDuration":944792,"Delta":125002455},{"NoteNumber":49,"Velocity":25,"Duration":944792,"SoundDuration":944792,"Delta":125002455},{"NoteNumber":40,"Velocity":25,"Duration":944792,"SoundDuration":944792,"Delta":125002455},{"NoteNumber":57,"Velocity":38,"Duration":862636,"SoundDuration":862636,"Delta":125988325},{"NoteNumber":64,"Velocity":38,"Duration":862636,"SoundDuration":862636,"Delta":125988325},{"NoteNumber":69,"Velocity":38,"Duration":862636,"SoundDuration":862636,"Delta":125988325},{"NoteNumber":49,"Velocity":19,"Duration":862636,"SoundDuration":862636,"Delta":125988325},{"NoteNumber":40,"Velocity":19,"Duration":862636,"SoundDuration":862636,"Delta":125988325},{"NoteNumber":69,"Velocity":51,"Duration":920256,"SoundDuration":920256,"Delta":126974195},{"NoteNumber":61,"Velocity":51,"Duration":920256,"SoundDuration":920256,"Delta":126974195},{"NoteNumber":73,"Velocity":51,"Duration":920256,"SoundDuration":920256,"Delta":126974195},{"NoteNumber":40,"Velocity":30,"Duration":1925862,"SoundDuration":1925862,"Delta":126974195},{"NoteNumber":49,"Velocity":36,"Duration":484887,"SoundDuration":484887,"Delta":126974195},{"NoteNumber":52,"Velocity":33,"Duration":474947,"SoundDuration":474947,"Delta":127459083},{"NoteNumber":61,"Velocity":50,"Duration":478988,"SoundDuration":478988,"Delta":127934030},{"NoteNumber":69,"Velocity":50,"Duration":845274,"SoundDuration":845274,"Delta":127934030},{"NoteNumber":73,"Velocity":50,"Duration":845274,"SoundDuration":845274,"Delta":127934030},{"NoteNumber":57,"Velocity":37,"Duration":483013,"SoundDuration":483013,"Delta":127934030},{"NoteNumber":61,"Velocity":39,"Duration":483013,"SoundDuration":483013,"Delta":128417044},{"NoteNumber":64,"Velocity":34,"Duration":944792,"SoundDuration":944792,"Delta":128900058},{"NoteNumber":68,"Velocity":34,"Duration":944792,"SoundDuration":944792,"Delta":128900058},{"NoteNumber":76,"Velocity":40,"Duration":944792,"SoundDuration":944792,"Delta":128900058},{"NoteNumber":59,"Velocity":26,"Duration":944792,"SoundDuration":944792,"Delta":128900058},{"NoteNumber":52,"Velocity":26,"Duration":944792,"SoundDuration":944792,"Delta":128900058},{"NoteNumber":68,"Velocity":26,"Duration":856600,"SoundDuration":856600,"Delta":129885928},{"NoteNumber":64,"Velocity":26,"Duration":856600,"SoundDuration":856600,"Delta":129885928},{"NoteNumber":76,"Velocity":31,"Duration":856600,"SoundDuration":856600,"Delta":129885928},{"NoteNumber":59,"Velocity":20,"Duration":856600,"SoundDuration":856600,"Delta":129885928},{"NoteNumber":52,"Velocity":20,"Duration":856600,"SoundDuration":856600,"Delta":129885928},{"NoteNumber":63,"Velocity":38,"Duration":461146,"SoundDuration":461146,"Delta":130863751},{"NoteNumber":69,"Velocity":38,"Duration":461146,"SoundDuration":461146,"Delta":130863751},{"NoteNumber":78,"Velocity":38,"Duration":461146,"SoundDuration":461146,"Delta":130863751},{"NoteNumber":52,"Velocity":22,"Duration":461146,"SoundDuration":461146,"Delta":130863751},{"NoteNumber":59,"Velocity":22,"Duration":461146,"SoundDuration":461146,"Delta":130863751},{"NoteNumber":66,"Velocity":31,"Duration":469024,"SoundDuration":469024,"Delta":131334709},{"NoteNumber":69,"Velocity":31,"Duration":469024,"SoundDuration":469024,"Delta":131334709},{"NoteNumber":75,"Velocity":31,"Duration":469024,"SoundDuration":469024,"Delta":131334709},{"NoteNumber":52,"Velocity":18,"Duration":469024,"SoundDuration":469024,"Delta":131334709},{"NoteNumber":59,"Velocity":18,"Duration":469024,"SoundDuration":469024,"Delta":131334709},{"NoteNumber":66,"Velocity":36,"Duration":457305,"SoundDuration":457305,"Delta":131813713},{"NoteNumber":71,"Velocity":36,"Duration":457305,"SoundDuration":457305,"Delta":131813713},{"NoteNumber":63,"Velocity":20,"Duration":457305,"SoundDuration":457305,"Delta":131813713},{"NoteNumber":52,"Velocity":20,"Duration":457305,"SoundDuration":457305,"Delta":131813713},{"NoteNumber":64,"Velocity":31,"Duration":468949,"SoundDuration":468949,"Delta":132280748},{"NoteNumber":69,"Velocity":31,"Duration":468949,"SoundDuration":468949,"Delta":132280748},{"NoteNumber":52,"Velocity":18,"Duration":468949,"SoundDuration":468949,"Delta":132280748},{"NoteNumber":61,"Velocity":18,"Duration":468949,"SoundDuration":468949,"Delta":132280748},{"NoteNumber":64,"Velocity":29,"Duration":933138,"SoundDuration":933138,"Delta":132759675},{"NoteNumber":68,"Velocity":35,"Duration":933138,"SoundDuration":933138,"Delta":132759675},{"NoteNumber":52,"Velocity":24,"Duration":933138,"SoundDuration":933138,"Delta":132759675},{"NoteNumber":59,"Velocity":24,"Duration":933138,"SoundDuration":933138,"Delta":132759675},{"NoteNumber":64,"Velocity":19,"Duration":846050,"SoundDuration":846050,"Delta":133733385},{"NoteNumber":68,"Velocity":23,"Duration":846050,"SoundDuration":846050,"Delta":133733385},{"NoteNumber":52,"Velocity":15,"Duration":846050,"SoundDuration":846050,"Delta":133733385},{"NoteNumber":59,"Velocity":15,"Duration":846050,"SoundDuration":846050,"Delta":133733385},{"NoteNumber":63,"Velocity":37,"Duration":461146,"SoundDuration":461146,"Delta":134699167},{"NoteNumber":78,"Velocity":37,"Duration":461146,"SoundDuration":461146,"Delta":134699167},{"NoteNumber":69,"Velocity":37,"Duration":461146,"SoundDuration":461146,"Delta":134699167},{"NoteNumber":52,"Velocity":22,"Duration":461146,"SoundDuration":461146,"Delta":134699167},{"NoteNumber":59,"Velocity":22,"Duration":461146,"SoundDuration":461146,"Delta":134699167},{"NoteNumber":75,"Velocity":30,"Duration":466974,"SoundDuration":466974,"Delta":135170125},{"NoteNumber":69,"Velocity":30,"Duration":466974,"SoundDuration":466974,"Delta":135170125},{"NoteNumber":66,"Velocity":30,"Duration":466974,"SoundDuration":466974,"Delta":135170125},{"NoteNumber":52,"Velocity":17,"Duration":466974,"SoundDuration":466974,"Delta":135170125},{"NoteNumber":59,"Velocity":17,"Duration":466974,"SoundDuration":466974,"Delta":135170125},{"NoteNumber":66,"Velocity":35,"Duration":459163,"SoundDuration":459163,"Delta":135647035},{"NoteNumber":71,"Velocity":35,"Duration":459163,"SoundDuration":459163,"Delta":135647035},{"NoteNumber":63,"Velocity":20,"Duration":459163,"SoundDuration":459163,"Delta":135647035},{"NoteNumber":52,"Velocity":20,"Duration":459163,"SoundDuration":459163,"Delta":135647035},{"NoteNumber":64,"Velocity":30,"Duration":466974,"SoundDuration":466974,"Delta":136115968},{"NoteNumber":69,"Velocity":30,"Duration":466974,"SoundDuration":466974,"Delta":136115968},{"NoteNumber":61,"Velocity":18,"Duration":466974,"SoundDuration":466974,"Delta":136115968},{"NoteNumber":52,"Velocity":18,"Duration":466974,"SoundDuration":466974,"Delta":136115968},{"NoteNumber":68,"Velocity":35,"Duration":937016,"SoundDuration":937016,"Delta":136592878},{"NoteNumber":64,"Velocity":29,"Duration":937016,"SoundDuration":937016,"Delta":136592878},{"NoteNumber":52,"Velocity":24,"Duration":937016,"SoundDuration":937016,"Delta":136592878},{"NoteNumber":59,"Velocity":29,"Duration":937016,"SoundDuration":937016,"Delta":136592878},{"NoteNumber":64,"Velocity":19,"Duration":855536,"SoundDuration":855536,"Delta":137570634},{"NoteNumber":68,"Velocity":23,"Duration":855536,"SoundDuration":855536,"Delta":137570634},{"NoteNumber":52,"Velocity":15,"Duration":855536,"SoundDuration":855536,"Delta":137570634},{"NoteNumber":59,"Velocity":15,"Duration":855536,"SoundDuration":855536,"Delta":137570634},{"NoteNumber":64,"Velocity":35,"Duration":466974,"SoundDuration":466974,"Delta":138548390},{"NoteNumber":56,"Velocity":25,"Duration":466974,"SoundDuration":466974,"Delta":138548390},{"NoteNumber":52,"Velocity":25,"Duration":466974,"SoundDuration":466974,"Delta":138548390},{"NoteNumber":64,"Velocity":26,"Duration":477060,"SoundDuration":477060,"Delta":139025300},{"NoteNumber":68,"Velocity":31,"Duration":477060,"SoundDuration":477060,"Delta":139025300},{"NoteNumber":59,"Velocity":23,"Duration":477060,"SoundDuration":477060,"Delta":139025300},{"NoteNumber":52,"Velocity":23,"Duration":477060,"SoundDuration":477060,"Delta":139025300},{"NoteNumber":64,"Velocity":29,"Duration":468949,"SoundDuration":468949,"Delta":139512511},{"NoteNumber":66,"Velocity":35,"Duration":468949,"SoundDuration":468949,"Delta":139512511},{"NoteNumber":52,"Velocity":25,"Duration":468949,"SoundDuration":468949,"Delta":139512511},{"NoteNumber":57,"Velocity":25,"Duration":468949,"SoundDuration":468949,"Delta":139512511},{"NoteNumber":68,"Velocity":33,"Duration":499362,"SoundDuration":499362,"Delta":139991438},{"NoteNumber":64,"Velocity":27,"Duration":499362,"SoundDuration":499362,"Delta":139991438},{"NoteNumber":59,"Velocity":24,"Duration":499362,"SoundDuration":499362,"Delta":139991438},{"NoteNumber":52,"Velocity":24,"Duration":499362,"SoundDuration":499362,"Delta":139991438},{"NoteNumber":64,"Velocity":28,"Duration":937016,"SoundDuration":937016,"Delta":140501425},{"NoteNumber":71,"Velocity":34,"Duration":937016,"SoundDuration":937016,"Delta":140501425},{"NoteNumber":52,"Velocity":25,"Duration":937016,"SoundDuration":937016,"Delta":140501425},{"NoteNumber":61,"Velocity":25,"Duration":937016,"SoundDuration":937016,"Delta":140501425},{"NoteNumber":64,"Velocity":18,"Duration":239501,"SoundDuration":239501,"Delta":141479181},{"NoteNumber":70,"Velocity":24,"Duration":239501,"SoundDuration":239501,"Delta":141479181},{"NoteNumber":52,"Velocity":15,"Duration":239501,"SoundDuration":239501,"Delta":141479181},{"NoteNumber":61,"Velocity":15,"Duration":239501,"SoundDuration":239501,"Delta":141479181},{"NoteNumber":88,"Velocity":44,"Duration":906939,"SoundDuration":906939,"Delta":142437189},{"NoteNumber":83,"Velocity":44,"Duration":906939,"SoundDuration":906939,"Delta":142437189},{"NoteNumber":76,"Velocity":44,"Duration":906939,"SoundDuration":906939,"Delta":142437189},{"NoteNumber":72,"Velocity":22,"Duration":906939,"SoundDuration":906939,"Delta":142437189},{"NoteNumber":64,"Velocity":22,"Duration":906939,"SoundDuration":906939,"Delta":142437189},{"NoteNumber":81,"Velocity":27,"Duration":423598,"SoundDuration":423598,"Delta":143383561},{"NoteNumber":88,"Velocity":27,"Duration":423598,"SoundDuration":423598,"Delta":143383561},{"NoteNumber":76,"Velocity":27,"Duration":423598,"SoundDuration":423598,"Delta":143383561},{"NoteNumber":64,"Velocity":8,"Duration":423598,"SoundDuration":423598,"Delta":143383561},{"NoteNumber":72,"Velocity":9,"Duration":423598,"SoundDuration":423598,"Delta":143383561},{"NoteNumber":69,"Velocity":34,"Duration":906939,"SoundDuration":906939,"Delta":144307775},{"NoteNumber":64,"Velocity":34,"Duration":906939,"SoundDuration":906939,"Delta":144307775},{"NoteNumber":59,"Velocity":25,"Duration":906939,"SoundDuration":906939,"Delta":144307775},{"NoteNumber":52,"Velocity":25,"Duration":906939,"SoundDuration":906939,"Delta":144307775},{"NoteNumber":64,"Velocity":24,"Duration":442620,"SoundDuration":442620,"Delta":145254147},{"NoteNumber":68,"Velocity":24,"Duration":442620,"SoundDuration":442620,"Delta":145254147},{"NoteNumber":59,"Velocity":11,"Duration":442620,"SoundDuration":442620,"Delta":145254147},{"NoteNumber":52,"Velocity":9,"Duration":442620,"SoundDuration":442620,"Delta":145254147},{"NoteNumber":88,"Velocity":42,"Duration":933138,"SoundDuration":933138,"Delta":146219865},{"NoteNumber":81,"Velocity":42,"Duration":933138,"SoundDuration":933138,"Delta":146219865},{"NoteNumber":76,"Velocity":42,"Duration":933138,"SoundDuration":933138,"Delta":146219865},{"NoteNumber":64,"Velocity":22,"Duration":933138,"SoundDuration":933138,"Delta":146219865},{"NoteNumber":71,"Velocity":22,"Duration":933138,"SoundDuration":933138,"Delta":146219865},{"NoteNumber":76,"Velocity":26,"Duration":446283,"SoundDuration":446283,"Delta":147193575},{"NoteNumber":79,"Velocity":26,"Duration":446283,"SoundDuration":446283,"Delta":147193575},{"NoteNumber":88,"Velocity":26,"Duration":446283,"SoundDuration":446283,"Delta":147193575},{"NoteNumber":71,"Velocity":11,"Duration":446283,"SoundDuration":446283,"Delta":147193575},{"NoteNumber":64,"Velocity":11,"Duration":446283,"SoundDuration":446283,"Delta":147193575},{"NoteNumber":64,"Velocity":88,"Duration":933138,"SoundDuration":933138,"Delta":148167285},{"NoteNumber":60,"Velocity":70,"Duration":933138,"SoundDuration":933138,"Delta":148167285},{"NoteNumber":54,"Velocity":70,"Duration":933138,"SoundDuration":933138,"Delta":148167285},{"NoteNumber":66,"Velocity":88,"Duration":933138,"SoundDuration":933138,"Delta":148167285},{"NoteNumber":45,"Velocity":62,"Duration":933138,"SoundDuration":933138,"Delta":148167285},{"NoteNumber":33,"Velocity":62,"Duration":933138,"SoundDuration":933138,"Delta":148167285},{"NoteNumber":64,"Velocity":69,"Duration":446283,"SoundDuration":446283,"Delta":149140995},{"NoteNumber":60,"Velocity":55,"Duration":446283,"SoundDuration":446283,"Delta":149140995},{"NoteNumber":54,"Velocity":55,"Duration":446283,"SoundDuration":446283,"Delta":149140995},{"NoteNumber":66,"Velocity":69,"Duration":446283,"SoundDuration":446283,"Delta":149140995},{"NoteNumber":45,"Velocity":45,"Duration":446283,"SoundDuration":446283,"Delta":149140995},{"NoteNumber":33,"Velocity":45,"Duration":446283,"SoundDuration":446283,"Delta":149140995},{"NoteNumber":76,"Velocity":46,"Duration":459163,"SoundDuration":459163,"Delta":150114705},{"NoteNumber":73,"Velocity":46,"Duration":459163,"SoundDuration":459163,"Delta":150114705},{"NoteNumber":78,"Velocity":55,"Duration":459163,"SoundDuration":459163,"Delta":150114705},{"NoteNumber":66,"Velocity":39,"Duration":459163,"SoundDuration":459163,"Delta":150114705},{"NoteNumber":64,"Velocity":39,"Duration":459163,"SoundDuration":459163,"Delta":150114705},{"NoteNumber":57,"Velocity":39,"Duration":459163,"SoundDuration":459163,"Delta":150114705},{"NoteNumber":71,"Velocity":37,"Duration":457305,"SoundDuration":457305,"Delta":150583638},{"NoteNumber":76,"Velocity":37,"Duration":457305,"SoundDuration":457305,"Delta":150583638},{"NoteNumber":80,"Velocity":46,"Duration":457305,"SoundDuration":457305,"Delta":150583638},{"NoteNumber":59,"Velocity":34,"Duration":457305,"SoundDuration":457305,"Delta":150583638},{"NoteNumber":64,"Velocity":34,"Duration":457305,"SoundDuration":457305,"Delta":150583638},{"NoteNumber":68,"Velocity":34,"Duration":457305,"SoundDuration":457305,"Delta":150583638},{"NoteNumber":69,"Velocity":42,"Duration":449812,"SoundDuration":449812,"Delta":151050673},{"NoteNumber":76,"Velocity":42,"Duration":449812,"SoundDuration":449812,"Delta":151050673},{"NoteNumber":81,"Velocity":50,"Duration":449812,"SoundDuration":449812,"Delta":151050673},{"NoteNumber":64,"Velocity":37,"Duration":449812,"SoundDuration":449812,"Delta":151050673},{"NoteNumber":61,"Velocity":37,"Duration":449812,"SoundDuration":449812,"Delta":151050673},{"NoteNumber":76,"Velocity":37,"Duration":480690,"SoundDuration":480690,"Delta":151510056},{"NoteNumber":71,"Velocity":37,"Duration":480690,"SoundDuration":480690,"Delta":151510056},{"NoteNumber":80,"Velocity":46,"Duration":480690,"SoundDuration":480690,"Delta":151510056},{"NoteNumber":64,"Velocity":36,"Duration":480690,"SoundDuration":480690,"Delta":151510056},{"NoteNumber":68,"Velocity":36,"Duration":480690,"SoundDuration":480690,"Delta":151510056},{"NoteNumber":59,"Velocity":36,"Duration":480690,"SoundDuration":480690,"Delta":151510056},{"NoteNumber":76,"Velocity":50,"Duration":921769,"SoundDuration":921769,"Delta":152000974},{"NoteNumber":71,"Velocity":50,"Duration":921769,"SoundDuration":921769,"Delta":152000974},{"NoteNumber":83,"Velocity":50,"Duration":921769,"SoundDuration":921769,"Delta":152000974},{"NoteNumber":66,"Velocity":36,"Duration":921769,"SoundDuration":921769,"Delta":152000974},{"NoteNumber":59,"Velocity":36,"Duration":921769,"SoundDuration":921769,"Delta":152000974},{"NoteNumber":69,"Velocity":36,"Duration":921769,"SoundDuration":921769,"Delta":152000974},{"NoteNumber":71,"Velocity":26,"Duration":440846,"SoundDuration":440846,"Delta":152962820},{"NoteNumber":83,"Velocity":26,"Duration":440846,"SoundDuration":440846,"Delta":152962820},{"NoteNumber":75,"Velocity":33,"Duration":440846,"SoundDuration":440846,"Delta":152962820},{"NoteNumber":59,"Velocity":17,"Duration":440846,"SoundDuration":440846,"Delta":152962820},{"NoteNumber":66,"Velocity":17,"Duration":440846,"SoundDuration":440846,"Delta":152962820},{"NoteNumber":69,"Velocity":17,"Duration":440846,"SoundDuration":440846,"Delta":152962820},{"NoteNumber":64,"Velocity":30,"Duration":906510,"SoundDuration":906510,"Delta":153934123},{"NoteNumber":68,"Velocity":37,"Duration":906510,"SoundDuration":906510,"Delta":153934123},{"NoteNumber":59,"Velocity":27,"Duration":906510,"SoundDuration":906510,"Delta":153934123},{"NoteNumber":52,"Velocity":27,"Duration":906510,"SoundDuration":906510,"Delta":153934123},{"NoteNumber":64,"Velocity":23,"Duration":433548,"SoundDuration":433548,"Delta":154880047},{"NoteNumber":68,"Velocity":23,"Duration":433548,"SoundDuration":433548,"Delta":154880047},{"NoteNumber":59,"Velocity":16,"Duration":433548,"SoundDuration":433548,"Delta":154880047},{"NoteNumber":52,"Velocity":23,"Duration":433548,"SoundDuration":433548,"Delta":154880047},{"NoteNumber":54,"Velocity":72,"Duration":914077,"SoundDuration":914077,"Delta":155844249},{"NoteNumber":66,"Velocity":91,"Duration":914077,"SoundDuration":914077,"Delta":155844249},{"NoteNumber":64,"Velocity":91,"Duration":914077,"SoundDuration":914077,"Delta":155844249},{"NoteNumber":60,"Velocity":72,"Duration":914077,"SoundDuration":914077,"Delta":155844249},{"NoteNumber":45,"Velocity":67,"Duration":914077,"SoundDuration":914077,"Delta":155844249},{"NoteNumber":33,"Velocity":67,"Duration":914077,"SoundDuration":914077,"Delta":155844249},{"NoteNumber":60,"Velocity":52,"Duration":428615,"SoundDuration":428615,"Delta":156798069},{"NoteNumber":54,"Velocity":52,"Duration":428615,"SoundDuration":428615,"Delta":156798069},{"NoteNumber":64,"Velocity":67,"Duration":428615,"SoundDuration":428615,"Delta":156798069},{"NoteNumber":66,"Velocity":67,"Duration":428615,"SoundDuration":428615,"Delta":156798069},{"NoteNumber":33,"Velocity":49,"Duration":428615,"SoundDuration":428615,"Delta":156798069},{"NoteNumber":45,"Velocity":49,"Duration":428615,"SoundDuration":428615,"Delta":156798069},{"NoteNumber":73,"Velocity":46,"Duration":457839,"SoundDuration":457839,"Delta":157733231},{"NoteNumber":76,"Velocity":46,"Duration":457839,"SoundDuration":457839,"Delta":157733231},{"NoteNumber":78,"Velocity":55,"Duration":457839,"SoundDuration":457839,"Delta":157733231},{"NoteNumber":66,"Velocity":39,"Duration":457839,"SoundDuration":457839,"Delta":157733231},{"NoteNumber":64,"Velocity":39,"Duration":457839,"SoundDuration":457839,"Delta":157733231},{"NoteNumber":57,"Velocity":39,"Duration":457839,"SoundDuration":457839,"Delta":157733231},{"NoteNumber":80,"Velocity":49,"Duration":461146,"SoundDuration":461146,"Delta":158200812},{"NoteNumber":71,"Velocity":41,"Duration":461146,"SoundDuration":461146,"Delta":158200812},{"NoteNumber":76,"Velocity":41,"Duration":461146,"SoundDuration":461146,"Delta":158200812},{"NoteNumber":64,"Velocity":36,"Duration":461146,"SoundDuration":461146,"Delta":158200812},{"NoteNumber":68,"Velocity":36,"Duration":461146,"SoundDuration":461146,"Delta":158200812},{"NoteNumber":59,"Velocity":36,"Duration":461146,"SoundDuration":461146,"Delta":158200812},{"NoteNumber":81,"Velocity":53,"Duration":451679,"SoundDuration":451679,"Delta":158671770},{"NoteNumber":76,"Velocity":44,"Duration":451679,"SoundDuration":451679,"Delta":158671770},{"NoteNumber":69,"Velocity":44,"Duration":451679,"SoundDuration":451679,"Delta":158671770},{"NoteNumber":64,"Velocity":39,"Duration":451679,"SoundDuration":451679,"Delta":158671770},{"NoteNumber":61,"Velocity":39,"Duration":451679,"SoundDuration":451679,"Delta":158671770},{"NoteNumber":71,"Velocity":39,"Duration":482665,"SoundDuration":482665,"Delta":159133060},{"NoteNumber":76,"Velocity":39,"Duration":482665,"SoundDuration":482665,"Delta":159133060},{"NoteNumber":80,"Velocity":47,"Duration":482665,"SoundDuration":482665,"Delta":159133060},{"NoteNumber":59,"Velocity":36,"Duration":482665,"SoundDuration":482665,"Delta":159133060},{"NoteNumber":68,"Velocity":36,"Duration":482665,"SoundDuration":482665,"Delta":159133060},{"NoteNumber":64,"Velocity":36,"Duration":482665,"SoundDuration":482665,"Delta":159133060},{"NoteNumber":83,"Velocity":50,"Duration":933138,"SoundDuration":933138,"Delta":159625995},{"NoteNumber":76,"Velocity":50,"Duration":933138,"SoundDuration":933138,"Delta":159625995},{"NoteNumber":71,"Velocity":42,"Duration":933138,"SoundDuration":933138,"Delta":159625995},{"NoteNumber":66,"Velocity":36,"Duration":933138,"SoundDuration":933138,"Delta":159625995},{"NoteNumber":69,"Velocity":36,"Duration":933138,"SoundDuration":933138,"Delta":159625995},{"NoteNumber":59,"Velocity":36,"Duration":933138,"SoundDuration":933138,"Delta":159625995},{"NoteNumber":75,"Velocity":33,"Duration":446283,"SoundDuration":446283,"Delta":160599705},{"NoteNumber":83,"Velocity":27,"Duration":446283,"SoundDuration":446283,"Delta":160599705},{"NoteNumber":71,"Velocity":26,"Duration":446283,"SoundDuration":446283,"Delta":160599705},{"NoteNumber":59,"Velocity":17,"Duration":446283,"SoundDuration":446283,"Delta":160599705},{"NoteNumber":69,"Velocity":17,"Duration":446283,"SoundDuration":446283,"Delta":160599705},{"NoteNumber":66,"Velocity":17,"Duration":446283,"SoundDuration":446283,"Delta":160599705},{"NoteNumber":64,"Velocity":103,"Duration":933138,"SoundDuration":933138,"Delta":161573415},{"NoteNumber":52,"Velocity":103,"Duration":933138,"SoundDuration":933138,"Delta":161573415},{"NoteNumber":40,"Velocity":84,"Duration":933138,"SoundDuration":933138,"Delta":161573415},{"NoteNumber":52,"Velocity":47,"Duration":446283,"SoundDuration":446283,"Delta":162547125},{"NoteNumber":64,"Velocity":66,"Duration":446283,"SoundDuration":446283,"Delta":162547125},{"NoteNumber":40,"Velocity":52,"Duration":446283,"SoundDuration":446283,"Delta":162547125},{"NoteNumber":56,"Velocity":36,"Duration":466213,"SoundDuration":466213,"Delta":163520835},{"NoteNumber":59,"Velocity":36,"Duration":466213,"SoundDuration":466213,"Delta":163520835},{"NoteNumber":40,"Velocity":22,"Duration":466213,"SoundDuration":466213,"Delta":163520835},{"NoteNumber":47,"Velocity":22,"Duration":466213,"SoundDuration":466213,"Delta":163520835},{"NoteNumber":68,"Velocity":30,"Duration":459163,"SoundDuration":459163,"Delta":163996943},{"NoteNumber":56,"Velocity":30,"Duration":459163,"SoundDuration":459163,"Delta":163996943},{"NoteNumber":47,"Velocity":17,"Duration":459163,"SoundDuration":459163,"Delta":163996943},{"NoteNumber":40,"Velocity":17,"Duration":459163,"SoundDuration":459163,"Delta":163996943},{"NoteNumber":56,"Velocity":37,"Duration":455390,"SoundDuration":455390,"Delta":164465876},{"NoteNumber":66,"Velocity":37,"Duration":455390,"SoundDuration":455390,"Delta":164465876},{"NoteNumber":40,"Velocity":20,"Duration":455390,"SoundDuration":455390,"Delta":164465876},{"NoteNumber":47,"Velocity":20,"Duration":455390,"SoundDuration":455390,"Delta":164465876},{"NoteNumber":56,"Velocity":30,"Duration":495070,"SoundDuration":495070,"Delta":164930956},{"NoteNumber":68,"Velocity":30,"Duration":495070,"SoundDuration":495070,"Delta":164930956},{"NoteNumber":40,"Velocity":16,"Duration":495070,"SoundDuration":495070,"Delta":164930956},{"NoteNumber":47,"Velocity":16,"Duration":495070,"SoundDuration":495070,"Delta":164930956},{"NoteNumber":68,"Velocity":39,"Duration":885705,"SoundDuration":885705,"Delta":165436560},{"NoteNumber":71,"Velocity":39,"Duration":885705,"SoundDuration":885705,"Delta":165436560},{"NoteNumber":60,"Velocity":24,"Duration":885705,"SoundDuration":885705,"Delta":165436560},{"NoteNumber":40,"Velocity":16,"Duration":885705,"SoundDuration":885705,"Delta":165436560},{"NoteNumber":48,"Velocity":16,"Duration":885705,"SoundDuration":885705,"Delta":165436560},{"NoteNumber":66,"Velocity":23,"Duration":237567,"SoundDuration":237567,"Delta":166360774},{"NoteNumber":60,"Velocity":22,"Duration":237567,"SoundDuration":237567,"Delta":166360774},{"NoteNumber":69,"Velocity":23,"Duration":237567,"SoundDuration":237567,"Delta":166360774},{"NoteNumber":48,"Velocity":8,"Duration":237567,"SoundDuration":237567,"Delta":166360774},{"NoteNumber":40,"Velocity":8,"Duration":237567,"SoundDuration":237567,"Delta":166360774},{"NoteNumber":68,"Velocity":39,"Duration":896196,"SoundDuration":896196,"Delta":167311044},{"NoteNumber":71,"Velocity":39,"Duration":896196,"SoundDuration":896196,"Delta":167311044},{"NoteNumber":59,"Velocity":29,"Duration":896196,"SoundDuration":896196,"Delta":167311044},{"NoteNumber":40,"Velocity":23,"Duration":896196,"SoundDuration":896196,"Delta":167311044},{"NoteNumber":51,"Velocity":23,"Duration":896196,"SoundDuration":896196,"Delta":167311044},{"NoteNumber":59,"Velocity":19,"Duration":244438,"SoundDuration":244438,"Delta":168246206},{"NoteNumber":66,"Velocity":23,"Duration":244438,"SoundDuration":244438,"Delta":168246206},{"NoteNumber":69,"Velocity":23,"Duration":244438,"SoundDuration":244438,"Delta":168246206},{"NoteNumber":51,"Velocity":9,"Duration":244438,"SoundDuration":244438,"Delta":168246206},{"NoteNumber":40,"Velocity":9,"Duration":244438,"SoundDuration":244438,"Delta":168246206},{"NoteNumber":76,"Velocity":103,"Duration":910315,"SoundDuration":910315,"Delta":169223962},{"NoteNumber":64,"Velocity":103,"Duration":910315,"SoundDuration":910315,"Delta":169223962},{"NoteNumber":40,"Velocity":82,"Duration":910315,"SoundDuration":910315,"Delta":169223962},{"NoteNumber":52,"Velocity":82,"Duration":910315,"SoundDuration":910315,"Delta":169223962},{"NoteNumber":76,"Velocity":68,"Duration":446465,"SoundDuration":446465,"Delta":170173856},{"NoteNumber":64,"Velocity":60,"Duration":446465,"SoundDuration":446465,"Delta":170173856},{"NoteNumber":40,"Velocity":44,"Duration":446465,"SoundDuration":446465,"Delta":170173856},{"NoteNumber":52,"Velocity":44,"Duration":446465,"SoundDuration":446465,"Delta":170173856},{"NoteNumber":59,"Velocity":38,"Duration":466974,"SoundDuration":466974,"Delta":171147962},{"NoteNumber":56,"Velocity":38,"Duration":466974,"SoundDuration":466974,"Delta":171147962},{"NoteNumber":40,"Velocity":25,"Duration":466974,"SoundDuration":466974,"Delta":171147962},{"NoteNumber":47,"Velocity":25,"Duration":466974,"SoundDuration":466974,"Delta":171147962},{"NoteNumber":56,"Velocity":31,"Duration":461146,"SoundDuration":461146,"Delta":171624872},{"NoteNumber":68,"Velocity":31,"Duration":461146,"SoundDuration":461146,"Delta":171624872},{"NoteNumber":40,"Velocity":18,"Duration":461146,"SoundDuration":461146,"Delta":171624872},{"NoteNumber":47,"Velocity":18,"Duration":461146,"SoundDuration":461146,"Delta":171624872},{"NoteNumber":56,"Velocity":38,"Duration":455390,"SoundDuration":455390,"Delta":172095830},{"NoteNumber":66,"Velocity":38,"Duration":455390,"SoundDuration":455390,"Delta":172095830},{"NoteNumber":47,"Velocity":25,"Duration":455390,"SoundDuration":455390,"Delta":172095830},{"NoteNumber":40,"Velocity":25,"Duration":455390,"SoundDuration":455390,"Delta":172095830},{"NoteNumber":56,"Velocity":31,"Duration":495070,"SoundDuration":495070,"Delta":172560910},{"NoteNumber":68,"Velocity":31,"Duration":495070,"SoundDuration":495070,"Delta":172560910},{"NoteNumber":47,"Velocity":17,"Duration":495070,"SoundDuration":495070,"Delta":172560910},{"NoteNumber":40,"Velocity":17,"Duration":495070,"SoundDuration":495070,"Delta":172560910},{"NoteNumber":69,"Velocity":44,"Duration":870157,"SoundDuration":870157,"Delta":173066514},{"NoteNumber":61,"Velocity":37,"Duration":870157,"SoundDuration":870157,"Delta":173066514},{"NoteNumber":73,"Velocity":44,"Duration":870157,"SoundDuration":870157,"Delta":173066514},{"NoteNumber":45,"Velocity":24,"Duration":870157,"SoundDuration":870157,"Delta":173066514},{"NoteNumber":40,"Velocity":24,"Duration":870157,"SoundDuration":870157,"Delta":173066514},{"NoteNumber":61,"Velocity":23,"Duration":234063,"SoundDuration":234063,"Delta":173974504},{"NoteNumber":66,"Velocity":26,"Duration":234063,"SoundDuration":234063,"Delta":173974504},{"NoteNumber":69,"Velocity":26,"Duration":234063,"SoundDuration":234063,"Delta":173974504},{"NoteNumber":40,"Velocity":13,"Duration":234063,"SoundDuration":234063,"Delta":173974504},{"NoteNumber":49,"Velocity":18,"Duration":234063,"SoundDuration":234063,"Delta":173974504},{"NoteNumber":68,"Velocity":41,"Duration":870157,"SoundDuration":870157,"Delta":174910760},{"NoteNumber":71,"Velocity":41,"Duration":870157,"SoundDuration":870157,"Delta":174910760},{"NoteNumber":59,"Velocity":35,"Duration":870157,"SoundDuration":870157,"Delta":174910760},{"NoteNumber":40,"Velocity":25,"Duration":870157,"SoundDuration":870157,"Delta":174910760},{"NoteNumber":47,"Velocity":25,"Duration":870157,"SoundDuration":870157,"Delta":174910760},{"NoteNumber":66,"Velocity":29,"Duration":231081,"SoundDuration":231081,"Delta":175818750},{"NoteNumber":59,"Velocity":27,"Duration":231081,"SoundDuration":231081,"Delta":175818750},{"NoteNumber":69,"Velocity":29,"Duration":231081,"SoundDuration":231081,"Delta":175818750},{"NoteNumber":40,"Velocity":16,"Duration":231081,"SoundDuration":231081,"Delta":175818750},{"NoteNumber":51,"Velocity":22,"Duration":231081,"SoundDuration":231081,"Delta":175818750},{"NoteNumber":64,"Velocity":35,"Duration":856930,"SoundDuration":856930,"Delta":176741288},{"NoteNumber":69,"Velocity":41,"Duration":856930,"SoundDuration":856930,"Delta":176741288},{"NoteNumber":59,"Velocity":35,"Duration":856930,"SoundDuration":856930,"Delta":176741288},{"NoteNumber":52,"Velocity":25,"Duration":856930,"SoundDuration":856930,"Delta":176741288},{"NoteNumber":40,"Velocity":25,"Duration":856930,"SoundDuration":856930,"Delta":176741288},{"NoteNumber":67,"Velocity":29,"Duration":220345,"SoundDuration":220345,"Delta":177635476},{"NoteNumber":59,"Velocity":26,"Duration":220345,"SoundDuration":220345,"Delta":177635476},{"NoteNumber":64,"Velocity":26,"Duration":220345,"SoundDuration":220345,"Delta":177635476},{"NoteNumber":40,"Velocity":5,"Duration":220345,"SoundDuration":220345,"Delta":177635476},{"NoteNumber":52,"Velocity":14,"Duration":220345,"SoundDuration":220345,"Delta":177635476},{"NoteNumber":57,"Velocity":36,"Duration":860328,"SoundDuration":860328,"Delta":178516856},{"NoteNumber":67,"Velocity":42,"Duration":860328,"SoundDuration":860328,"Delta":178516856},{"NoteNumber":60,"Velocity":36,"Duration":860328,"SoundDuration":860328,"Delta":178516856},{"NoteNumber":45,"Velocity":25,"Duration":860328,"SoundDuration":860328,"Delta":178516856},{"NoteNumber":48,"Velocity":25,"Duration":860328,"SoundDuration":860328,"Delta":178516856},{"NoteNumber":60,"Velocity":26,"Duration":219266,"SoundDuration":219266,"Delta":179414590},{"NoteNumber":57,"Velocity":27,"Duration":219266,"SoundDuration":219266,"Delta":179414590},{"NoteNumber":65,"Velocity":29,"Duration":219266,"SoundDuration":219266,"Delta":179414590},{"NoteNumber":45,"Velocity":14,"Duration":219266,"SoundDuration":219266,"Delta":179414590},{"NoteNumber":48,"Velocity":14,"Duration":219266,"SoundDuration":219266,"Delta":179414590},{"NoteNumber":55,"Velocity":36,"Duration":860456,"SoundDuration":860456,"Delta":180291654},{"NoteNumber":65,"Velocity":42,"Duration":860456,"SoundDuration":860456,"Delta":180291654},{"NoteNumber":60,"Velocity":36,"Duration":860456,"SoundDuration":860456,"Delta":180291654},{"NoteNumber":48,"Velocity":25,"Duration":860456,"SoundDuration":860456,"Delta":180291654},{"NoteNumber":64,"Velocity":29,"Duration":225310,"SoundDuration":225310,"Delta":181189522},{"NoteNumber":60,"Velocity":26,"Duration":225310,"SoundDuration":225310,"Delta":181189522},{"NoteNumber":55,"Velocity":26,"Duration":225310,"SoundDuration":225310,"Delta":181189522},{"NoteNumber":48,"Velocity":16,"Duration":225310,"SoundDuration":225310,"Delta":181189522},{"NoteNumber":64,"Velocity":42,"Duration":860456,"SoundDuration":860456,"Delta":182090762},{"NoteNumber":57,"Velocity":36,"Duration":860456,"SoundDuration":860456,"Delta":182090762},{"NoteNumber":53,"Velocity":36,"Duration":860456,"SoundDuration":860456,"Delta":182090762},{"NoteNumber":38,"Velocity":25,"Duration":860456,"SoundDuration":860456,"Delta":182090762},{"NoteNumber":50,"Velocity":25,"Duration":860456,"SoundDuration":860456,"Delta":182090762},{"NoteNumber":62,"Velocity":29,"Duration":224467,"SoundDuration":224467,"Delta":182988630},{"NoteNumber":57,"Velocity":25,"Duration":224467,"SoundDuration":224467,"Delta":182988630},{"NoteNumber":53,"Velocity":25,"Duration":224467,"SoundDuration":224467,"Delta":182988630},{"NoteNumber":50,"Velocity":15,"Duration":224467,"SoundDuration":224467,"Delta":182988630},{"NoteNumber":38,"Velocity":15,"Duration":224467,"SoundDuration":224467,"Delta":182988630},{"NoteNumber":52,"Velocity":35,"Duration":897245,"SoundDuration":897245,"Delta":183886498},{"NoteNumber":62,"Velocity":41,"Duration":897245,"SoundDuration":897245,"Delta":183886498},{"NoteNumber":57,"Velocity":35,"Duration":897245,"SoundDuration":897245,"Delta":183886498},{"NoteNumber":40,"Velocity":24,"Duration":897245,"SoundDuration":897245,"Delta":183886498},{"NoteNumber":45,"Velocity":24,"Duration":936255,"SoundDuration":936255,"Delta":183886498},{"NoteNumber":60,"Velocity":29,"Duration":242561,"SoundDuration":242561,"Delta":184822754},{"NoteNumber":57,"Velocity":24,"Duration":242561,"SoundDuration":242561,"Delta":184822754},{"NoteNumber":52,"Velocity":39,"Duration":970246,"SoundDuration":970246,"Delta":184822754},{"NoteNumber":40,"Velocity":14,"Duration":242561,"SoundDuration":242561,"Delta":184822754},{"NoteNumber":51,"Velocity":37,"Duration":925425,"SoundDuration":925425,"Delta":185793000},{"NoteNumber":52,"Velocity":35,"Duration":238720,"SoundDuration":238720,"Delta":186718426},{"NoteNumber":59,"Velocity":41,"Duration":933593,"SoundDuration":933593,"Delta":189583072},{"NoteNumber":57,"Velocity":29,"Duration":933593,"SoundDuration":933593,"Delta":189583072},{"NoteNumber":40,"Velocity":19,"Duration":933593,"SoundDuration":933593,"Delta":189583072},{"NoteNumber":47,"Velocity":33,"Duration":974184,"SoundDuration":974184,"Delta":189583072},{"NoteNumber":59,"Velocity":29,"Duration":437654,"SoundDuration":437654,"Delta":190557256},{"NoteNumber":56,"Velocity":29,"Duration":437654,"SoundDuration":437654,"Delta":190557256},{"NoteNumber":52,"Velocity":39,"Duration":954881,"SoundDuration":954881,"Delta":190557256},{"NoteNumber":40,"Velocity":12,"Duration":437654,"SoundDuration":437654,"Delta":190557256},{"NoteNumber":51,"Velocity":37,"Duration":932617,"SoundDuration":932617,"Delta":191512138},{"NoteNumber":52,"Velocity":35,"Duration":243546,"SoundDuration":243546,"Delta":192444756},{"NoteNumber":69,"Velocity":50,"Duration":1002589,"SoundDuration":1002589,"Delta":195367308},{"NoteNumber":57,"Velocity":42,"Duration":1002589,"SoundDuration":1002589,"Delta":195367308},{"NoteNumber":76,"Velocity":50,"Duration":998420,"SoundDuration":998420,"Delta":196369898},{"NoteNumber":64,"Velocity":42,"Duration":998420,"SoundDuration":998420,"Delta":196369898},{"NoteNumber":75,"Velocity":53,"Duration":970246,"SoundDuration":970246,"Delta":197368318},{"NoteNumber":63,"Velocity":44,"Duration":970246,"SoundDuration":970246,"Delta":197368318},{"NoteNumber":76,"Velocity":47,"Duration":205440,"SoundDuration":205440,"Delta":198338564},{"NoteNumber":64,"Velocity":38,"Duration":205440,"SoundDuration":205440,"Delta":198338564},{"NoteNumber":72,"Velocity":49,"Duration":395069,"SoundDuration":395069,"Delta":198831620},{"NoteNumber":60,"Velocity":39,"Duration":395069,"SoundDuration":395069,"Delta":198831620},{"NoteNumber":71,"Velocity":47,"Duration":146403,"SoundDuration":146403,"Delta":199205587},{"NoteNumber":59,"Velocity":39,"Duration":146403,"SoundDuration":146403,"Delta":199205587},{"NoteNumber":69,"Velocity":48,"Duration":949894,"SoundDuration":949894,"Delta":199332201},{"NoteNumber":57,"Velocity":38,"Duration":949894,"SoundDuration":949894,"Delta":199332201},{"NoteNumber":56,"Velocity":59,"Duration":1002589,"SoundDuration":1002589,"Delta":200282095},{"NoteNumber":59,"Velocity":59,"Duration":1002589,"SoundDuration":1002589,"Delta":200282095},{"NoteNumber":64,"Velocity":59,"Duration":1002589,"SoundDuration":1002589,"Delta":200282095},{"NoteNumber":52,"Velocity":52,"Duration":1002589,"SoundDuration":1002589,"Delta":200282095},{"NoteNumber":60,"Velocity":52,"Duration":982480,"SoundDuration":982480,"Delta":201284685},{"NoteNumber":48,"Velocity":47,"Duration":982480,"SoundDuration":982480,"Delta":201284685},{"NoteNumber":57,"Velocity":51,"Duration":189921,"SoundDuration":189921,"Delta":202267165},{"NoteNumber":45,"Velocity":39,"Duration":189921,"SoundDuration":189921,"Delta":202267165},{"NoteNumber":57,"Velocity":50,"Duration":1002589,"SoundDuration":1002589,"Delta":203280079},{"NoteNumber":45,"Velocity":42,"Duration":1002589,"SoundDuration":1002589,"Delta":203280079},{"NoteNumber":57,"Velocity":63,"Duration":970246,"SoundDuration":970246,"Delta":204282669},{"NoteNumber":65,"Velocity":63,"Duration":970246,"SoundDuration":970246,"Delta":204282669},{"NoteNumber":38,"Velocity":45,"Duration":970246,"SoundDuration":970246,"Delta":204282669},{"NoteNumber":58,"Velocity":70,"Duration":926783,"SoundDuration":926783,"Delta":205252915},{"NoteNumber":67,"Velocity":70,"Duration":926783,"SoundDuration":926783,"Delta":205252915},{"NoteNumber":37,"Velocity":50,"Duration":926783,"SoundDuration":926783,"Delta":205252915},{"NoteNumber":57,"Velocity":54,"Duration":208872,"SoundDuration":208872,"Delta":206179699},{"NoteNumber":65,"Velocity":54,"Duration":208872,"SoundDuration":208872,"Delta":206179699},{"NoteNumber":38,"Velocity":42,"Duration":208872,"SoundDuration":208872,"Delta":206179699},{"NoteNumber":57,"Velocity":51,"Duration":393593,"SoundDuration":393593,"Delta":206675886},{"NoteNumber":45,"Velocity":44,"Duration":393593,"SoundDuration":393593,"Delta":206675886},{"NoteNumber":59,"Velocity":54,"Duration":147197,"SoundDuration":147197,"Delta":207048329},{"NoteNumber":47,"Velocity":45,"Duration":147197,"SoundDuration":147197,"Delta":207048329},{"NoteNumber":60,"Velocity":52,"Duration":974106,"SoundDuration":974106,"Delta":207175233},{"NoteNumber":48,"Velocity":45,"Duration":974106,"SoundDuration":974106,"Delta":207175233},{"NoteNumber":52,"Velocity":62,"Duration":1002589,"SoundDuration":1002589,"Delta":208149339},{"NoteNumber":56,"Velocity":62,"Duration":1002589,"SoundDuration":1002589,"Delta":208149339},{"NoteNumber":59,"Velocity":62,"Duration":1002589,"SoundDuration":1002589,"Delta":208149339},{"NoteNumber":64,"Velocity":62,"Duration":1002589,"SoundDuration":1002589,"Delta":208149339},{"NoteNumber":40,"Velocity":52,"Duration":1002589,"SoundDuration":1002589,"Delta":208149339},{"NoteNumber":48,"Velocity":50,"Duration":982480,"SoundDuration":982480,"Delta":209151929},{"NoteNumber":60,"Velocity":50,"Duration":982480,"SoundDuration":982480,"Delta":209151929},{"NoteNumber":36,"Velocity":45,"Duration":982480,"SoundDuration":982480,"Delta":209151929},{"NoteNumber":45,"Velocity":50,"Duration":212910,"SoundDuration":212910,"Delta":210134409},{"NoteNumber":57,"Velocity":50,"Duration":212910,"SoundDuration":212910,"Delta":210134409},{"NoteNumber":33,"Velocity":41,"Duration":212910,"SoundDuration":212910,"Delta":210134409},{"NoteNumber":38,"Velocity":35,"Duration":982157,"SoundDuration":982157,"Delta":211156381},{"NoteNumber":41,"Velocity":35,"Duration":982157,"SoundDuration":982157,"Delta":211156381},{"NoteNumber":45,"Velocity":35,"Duration":982157,"SoundDuration":982157,"Delta":211156381},{"NoteNumber":33,"Velocity":33,"Duration":125323,"SoundDuration":125323,"Delta":212138539},{"NoteNumber":36,"Velocity":36,"Duration":966340,"SoundDuration":966340,"Delta":213141129},{"NoteNumber":40,"Velocity":36,"Duration":966340,"SoundDuration":966340,"Delta":213141129},{"NoteNumber":45,"Velocity":36,"Duration":966340,"SoundDuration":966340,"Delta":213141129},{"NoteNumber":33,"Velocity":35,"Duration":124285,"SoundDuration":124285,"Delta":214107469},{"NoteNumber":57,"Velocity":52,"Duration":949050,"SoundDuration":949050,"Delta":214604610},{"NoteNumber":38,"Velocity":36,"Duration":934437,"SoundDuration":934437,"Delta":215085533},{"NoteNumber":41,"Velocity":36,"Duration":934437,"SoundDuration":934437,"Delta":215085533},{"NoteNumber":45,"Velocity":36,"Duration":934437,"SoundDuration":934437,"Delta":215085533},{"NoteNumber":62,"Velocity":46,"Duration":466308,"SoundDuration":466308,"Delta":215553661},{"NoteNumber":64,"Velocity":49,"Duration":472961,"SoundDuration":472961,"Delta":216019970},{"NoteNumber":33,"Velocity":34,"Duration":118240,"SoundDuration":118240,"Delta":216019970},{"NoteNumber":65,"Velocity":47,"Duration":478889,"SoundDuration":478889,"Delta":216492932},{"NoteNumber":64,"Velocity":50,"Duration":918414,"SoundDuration":918414,"Delta":216971821},{"NoteNumber":36,"Velocity":36,"Duration":918414,"SoundDuration":918414,"Delta":216971821},{"NoteNumber":40,"Velocity":36,"Duration":918414,"SoundDuration":918414,"Delta":216971821},{"NoteNumber":45,"Velocity":36,"Duration":918414,"SoundDuration":918414,"Delta":216971821},{"NoteNumber":57,"Velocity":46,"Duration":202955,"SoundDuration":202955,"Delta":217890235},{"NoteNumber":33,"Velocity":34,"Duration":202955,"SoundDuration":202955,"Delta":217890235},{"NoteNumber":67,"Velocity":47,"Duration":478889,"SoundDuration":478889,"Delta":218377327},{"NoteNumber":65,"Velocity":47,"Duration":897867,"SoundDuration":897867,"Delta":218856216},{"NoteNumber":38,"Velocity":37,"Duration":897867,"SoundDuration":897867,"Delta":218856216},{"NoteNumber":41,"Velocity":37,"Duration":897867,"SoundDuration":897867,"Delta":218856216},{"NoteNumber":45,"Velocity":37,"Duration":897867,"SoundDuration":897867,"Delta":218856216},{"NoteNumber":57,"Velocity":48,"Duration":205440,"SoundDuration":205440,"Delta":219754084},{"NoteNumber":33,"Velocity":35,"Duration":205440,"SoundDuration":205440,"Delta":219754084},{"NoteNumber":65,"Velocity":45,"Duration":467181,"SoundDuration":467181,"Delta":220247140},{"NoteNumber":64,"Velocity":50,"Duration":897867,"SoundDuration":897867,"Delta":220714321},{"NoteNumber":36,"Velocity":36,"Duration":897867,"SoundDuration":897867,"Delta":220714321},{"NoteNumber":40,"Velocity":36,"Duration":897867,"SoundDuration":897867,"Delta":220714321},{"NoteNumber":45,"Velocity":36,"Duration":897867,"SoundDuration":897867,"Delta":220714321},{"NoteNumber":57,"Velocity":48,"Duration":201320,"SoundDuration":201320,"Delta":221612189},{"NoteNumber":33,"Velocity":33,"Duration":201320,"SoundDuration":201320,"Delta":221612189},{"NoteNumber":57,"Velocity":56,"Duration":454563,"SoundDuration":454563,"Delta":222095359},{"NoteNumber":69,"Velocity":56,"Duration":920814,"SoundDuration":920814,"Delta":222095359},{"NoteNumber":50,"Velocity":51,"Duration":919110,"SoundDuration":919110,"Delta":222552781},{"NoteNumber":53,"Velocity":51,"Duration":919110,"SoundDuration":919110,"Delta":222552781},{"NoteNumber":57,"Velocity":51,"Duration":919110,"SoundDuration":919110,"Delta":222552781},{"NoteNumber":62,"Velocity":57,"Duration":455718,"SoundDuration":455718,"Delta":223016173},{"NoteNumber":74,"Velocity":57,"Duration":455718,"SoundDuration":455718,"Delta":223016173},{"NoteNumber":64,"Velocity":60,"Duration":469079,"SoundDuration":469079,"Delta":223471892},{"NoteNumber":76,"Velocity":60,"Duration":469079,"SoundDuration":469079,"Delta":223471892},{"NoteNumber":45,"Velocity":35,"Duration":117269,"SoundDuration":117269,"Delta":223471892},{"NoteNumber":65,"Velocity":56,"Duration":472961,"SoundDuration":472961,"Delta":223940972},{"NoteNumber":77,"Velocity":56,"Duration":472961,"SoundDuration":472961,"Delta":223940972},{"NoteNumber":64,"Velocity":60,"Duration":894453,"SoundDuration":894453,"Delta":224413934},{"NoteNumber":76,"Velocity":60,"Duration":894453,"SoundDuration":894453,"Delta":224413934},{"NoteNumber":48,"Velocity":41,"Duration":894453,"SoundDuration":894453,"Delta":224413934},{"NoteNumber":52,"Velocity":41,"Duration":894453,"SoundDuration":894453,"Delta":224413934},{"NoteNumber":57,"Velocity":41,"Duration":891658,"SoundDuration":891658,"Delta":224413934},{"NoteNumber":57,"Velocity":56,"Duration":197363,"SoundDuration":197363,"Delta":225308388},{"NoteNumber":69,"Velocity":56,"Duration":197363,"SoundDuration":197363,"Delta":225308388},{"NoteNumber":45,"Velocity":36,"Duration":197363,"SoundDuration":197363,"Delta":225308388},{"NoteNumber":64,"Velocity":68,"Duration":913332,"SoundDuration":913332,"Delta":225782060},{"NoteNumber":76,"Velocity":68,"Duration":913332,"SoundDuration":913332,"Delta":225782060},{"NoteNumber":47,"Velocity":57,"Duration":911647,"SoundDuration":911647,"Delta":226232680},{"NoteNumber":52,"Velocity":57,"Duration":911647,"SoundDuration":911647,"Delta":226232680},{"NoteNumber":55,"Velocity":57,"Duration":911647,"SoundDuration":911647,"Delta":226232680},{"NoteNumber":67,"Velocity":74,"Duration":448934,"SoundDuration":448934,"Delta":226695393},{"NoteNumber":79,"Velocity":74,"Duration":448934,"SoundDuration":448934,"Delta":226695393},{"NoteNumber":69,"Velocity":77,"Duration":463391,"SoundDuration":463391,"Delta":227144327},{"NoteNumber":81,"Velocity":77,"Duration":463391,"SoundDuration":463391,"Delta":227144327},{"NoteNumber":43,"Velocity":54,"Duration":173772,"SoundDuration":173772,"Delta":227144327},{"NoteNumber":71,"Velocity":73,"Duration":478889,"SoundDuration":478889,"Delta":227607719},{"NoteNumber":83,"Velocity":73,"Duration":478889,"SoundDuration":478889,"Delta":227607719},{"NoteNumber":71,"Velocity":85,"Duration":893001,"SoundDuration":893001,"Delta":228086608},{"NoteNumber":83,"Velocity":85,"Duration":893001,"SoundDuration":893001,"Delta":228086608},{"NoteNumber":42,"Velocity":59,"Duration":893001,"SoundDuration":893001,"Delta":228086608},{"NoteNumber":51,"Velocity":59,"Duration":893001,"SoundDuration":893001,"Delta":228086608},{"NoteNumber":54,"Velocity":66,"Duration":893001,"SoundDuration":893001,"Delta":228086608},{"NoteNumber":71,"Velocity":71,"Duration":868398,"SoundDuration":868398,"Delta":229060792},{"NoteNumber":83,"Velocity":71,"Duration":868398,"SoundDuration":868398,"Delta":229060792},{"NoteNumber":47,"Velocity":49,"Duration":868398,"SoundDuration":868398,"Delta":229060792},{"NoteNumber":51,"Velocity":49,"Duration":868398,"SoundDuration":868398,"Delta":229060792},{"NoteNumber":59,"Velocity":55,"Duration":868398,"SoundDuration":868398,"Delta":229060792},{"NoteNumber":67,"Velocity":57,"Duration":926783,"SoundDuration":926783,"Delta":230008136},{"NoteNumber":79,"Velocity":57,"Duration":926783,"SoundDuration":926783,"Delta":230008136},{"NoteNumber":43,"Velocity":49,"Duration":926783,"SoundDuration":926783,"Delta":230008136},{"NoteNumber":55,"Velocity":49,"Duration":926783,"SoundDuration":926783,"Delta":230008136},{"NoteNumber":64,"Velocity":53,"Duration":202955,"SoundDuration":202955,"Delta":230934920},{"NoteNumber":76,"Velocity":53,"Duration":202955,"SoundDuration":202955,"Delta":230934920},{"NoteNumber":40,"Velocity":42,"Duration":202955,"SoundDuration":202955,"Delta":230934920},{"NoteNumber":52,"Velocity":42,"Duration":202955,"SoundDuration":202955,"Delta":230934920},{"NoteNumber":59,"Velocity":41,"Duration":889392,"SoundDuration":889392,"Delta":231909104},{"NoteNumber":71,"Velocity":41,"Duration":889392,"SoundDuration":889392,"Delta":231909104},{"NoteNumber":30,"Velocity":26,"Duration":889392,"SoundDuration":889392,"Delta":231909104},{"NoteNumber":39,"Velocity":26,"Duration":889392,"SoundDuration":889392,"Delta":231909104},{"NoteNumber":42,"Velocity":26,"Duration":889392,"SoundDuration":889392,"Delta":231909104},{"NoteNumber":59,"Velocity":37,"Duration":871770,"SoundDuration":871770,"Delta":232879350},{"NoteNumber":71,"Velocity":37,"Duration":871770,"SoundDuration":871770,"Delta":232879350},{"NoteNumber":35,"Velocity":24,"Duration":871770,"SoundDuration":871770,"Delta":232879350},{"NoteNumber":39,"Velocity":24,"Duration":871770,"SoundDuration":871770,"Delta":232879350},{"NoteNumber":47,"Velocity":24,"Duration":871770,"SoundDuration":871770,"Delta":232879350},{"NoteNumber":55,"Velocity":37,"Duration":938160,"SoundDuration":938160,"Delta":233830372},{"NoteNumber":67,"Velocity":37,"Duration":938160,"SoundDuration":938160,"Delta":233830372},{"NoteNumber":31,"Velocity":30,"Duration":938160,"SoundDuration":938160,"Delta":233830372},{"NoteNumber":43,"Velocity":30,"Duration":938160,"SoundDuration":938160,"Delta":233830372},{"NoteNumber":52,"Velocity":33,"Duration":201320,"SoundDuration":201320,"Delta":234768532},{"NoteNumber":64,"Velocity":33,"Duration":201320,"SoundDuration":201320,"Delta":234768532},{"NoteNumber":28,"Velocity":27,"Duration":201320,"SoundDuration":201320,"Delta":234768532},{"NoteNumber":40,"Velocity":27,"Duration":201320,"SoundDuration":201320,"Delta":234768532},{"NoteNumber":55,"Velocity":37,"Duration":862378,"SoundDuration":862378,"Delta":235734872},{"NoteNumber":67,"Velocity":37,"Duration":862378,"SoundDuration":862378,"Delta":235734872},{"NoteNumber":40,"Velocity":30,"Duration":989599,"SoundDuration":989599,"Delta":235734872},{"NoteNumber":52,"Velocity":33,"Duration":109025,"SoundDuration":109025,"Delta":236597250},{"NoteNumber":64,"Velocity":33,"Duration":109025,"SoundDuration":109025,"Delta":236597250},{"NoteNumber":41,"Velocity":30,"Duration":127792,"SoundDuration":127792,"Delta":236706275},{"NoteNumber":40,"Velocity":26,"Duration":126197,"SoundDuration":126197,"Delta":236816091},{"NoteNumber":41,"Velocity":30,"Duration":127770,"SoundDuration":127770,"Delta":236923882},{"NoteNumber":40,"Velocity":24,"Duration":128060,"SoundDuration":128060,"Delta":237033717},{"NoteNumber":41,"Velocity":30,"Duration":128226,"SoundDuration":128226,"Delta":237143148},{"NoteNumber":40,"Velocity":25,"Duration":126124,"SoundDuration":126124,"Delta":237253446},{"NoteNumber":41,"Velocity":30,"Duration":128142,"SoundDuration":128142,"Delta":237361281},{"NoteNumber":65,"Velocity":48,"Duration":856914,"SoundDuration":856914,"Delta":237471581},{"NoteNumber":53,"Velocity":48,"Duration":856914,"SoundDuration":856914,"Delta":237471581},{"NoteNumber":40,"Velocity":31,"Duration":124867,"SoundDuration":124867,"Delta":237471581},{"NoteNumber":41,"Velocity":28,"Duration":124610,"SoundDuration":124610,"Delta":237578318},{"NoteNumber":40,"Velocity":31,"Duration":124665,"SoundDuration":124665,"Delta":237685162},{"NoteNumber":41,"Velocity":31,"Duration":124705,"SoundDuration":124705,"Delta":237792249},{"NoteNumber":40,"Velocity":34,"Duration":124919,"SoundDuration":124919,"Delta":237898825},{"NoteNumber":41,"Velocity":30,"Duration":123289,"SoundDuration":123289,"Delta":238006208},{"NoteNumber":40,"Velocity":34,"Duration":126442,"SoundDuration":126442,"Delta":238111656},{"NoteNumber":41,"Velocity":29,"Duration":127134,"SoundDuration":127134,"Delta":238219989},{"NoteNumber":50,"Velocity":43,"Duration":110190,"SoundDuration":110190,"Delta":238328495},{"NoteNumber":62,"Velocity":43,"Duration":110190,"SoundDuration":110190,"Delta":238328495},{"NoteNumber":40,"Velocity":34,"Duration":128186,"SoundDuration":128186,"Delta":238328495},{"NoteNumber":41,"Velocity":28,"Duration":128452,"SoundDuration":128452,"Delta":238438686},{"NoteNumber":40,"Velocity":34,"Duration":127053,"SoundDuration":127053,"Delta":238548607},{"NoteNumber":41,"Velocity":29,"Duration":127902,"SoundDuration":127902,"Delta":238657731},{"NoteNumber":40,"Velocity":34,"Duration":126912,"SoundDuration":126912,"Delta":238767199},{"NoteNumber":41,"Velocity":29,"Duration":127545,"SoundDuration":127545,"Delta":238876115},{"NoteNumber":40,"Velocity":34,"Duration":129768,"SoundDuration":129768,"Delta":238985176},{"NoteNumber":41,"Velocity":30,"Duration":127602,"SoundDuration":127602,"Delta":239096413},{"NoteNumber":64,"Velocity":58,"Duration":854155,"SoundDuration":854155,"Delta":239206130},{"NoteNumber":52,"Velocity":58,"Duration":854155,"SoundDuration":854155,"Delta":239206130},{"NoteNumber":40,"Velocity":39,"Duration":123339,"SoundDuration":123339,"Delta":239206130},{"NoteNumber":41,"Velocity":33,"Duration":125195,"SoundDuration":125195,"Delta":239311691},{"NoteNumber":40,"Velocity":39,"Duration":123426,"SoundDuration":123426,"Delta":239419111},{"NoteNumber":41,"Velocity":33,"Duration":125570,"SoundDuration":125570,"Delta":239524789},{"NoteNumber":40,"Velocity":39,"Duration":123800,"SoundDuration":123800,"Delta":239632387},{"NoteNumber":41,"Velocity":33,"Duration":123806,"SoundDuration":123806,"Delta":239738718},{"NoteNumber":40,"Velocity":40,"Duration":126158,"SoundDuration":126158,"Delta":239844459},{"NoteNumber":41,"Velocity":35,"Duration":125859,"SoundDuration":125859,"Delta":239952755},{"NoteNumber":48,"Velocity":50,"Duration":109933,"SoundDuration":109933,"Delta":240060286},{"NoteNumber":60,"Velocity":50,"Duration":109933,"SoundDuration":109933,"Delta":240060286},{"NoteNumber":40,"Velocity":40,"Duration":128731,"SoundDuration":128731,"Delta":240060286},{"NoteNumber":41,"Velocity":35,"Duration":130430,"SoundDuration":130430,"Delta":240170219},{"NoteNumber":40,"Velocity":41,"Duration":127666,"SoundDuration":127666,"Delta":240282464},{"NoteNumber":41,"Velocity":34,"Duration":131020,"SoundDuration":131020,"Delta":240391483},{"NoteNumber":40,"Velocity":41,"Duration":128203,"SoundDuration":128203,"Delta":240503943},{"NoteNumber":41,"Velocity":36,"Duration":132063,"SoundDuration":132063,"Delta":240613943},{"NoteNumber":40,"Velocity":42,"Duration":131015,"SoundDuration":131015,"Delta":240727029},{"NoteNumber":41,"Velocity":37,"Duration":128908,"SoundDuration":128908,"Delta":240839557},{"NoteNumber":50,"Velocity":73,"Duration":890367,"SoundDuration":890367,"Delta":240950350},{"NoteNumber":62,"Velocity":73,"Duration":890367,"SoundDuration":890367,"Delta":240950350},{"NoteNumber":40,"Velocity":47,"Duration":127032,"SoundDuration":127032,"Delta":240950350},{"NoteNumber":41,"Velocity":39,"Duration":129016,"SoundDuration":129016,"Delta":241058905},{"NoteNumber":40,"Velocity":47,"Duration":127061,"SoundDuration":127061,"Delta":241169670},{"NoteNumber":41,"Velocity":39,"Duration":128820,"SoundDuration":128820,"Delta":241278250},{"NoteNumber":40,"Velocity":48,"Duration":126227,"SoundDuration":126227,"Delta":241388979},{"NoteNumber":41,"Velocity":40,"Duration":130833,"SoundDuration":130833,"Delta":241497007},{"NoteNumber":40,"Velocity":48,"Duration":135259,"SoundDuration":135259,"Delta":241608637},{"NoteNumber":41,"Velocity":42,"Duration":135521,"SoundDuration":135521,"Delta":241724546},{"NoteNumber":47,"Velocity":67,"Duration":116098,"SoundDuration":116098,"Delta":241840717},{"NoteNumber":59,"Velocity":67,"Duration":116098,"SoundDuration":116098,"Delta":241840717},{"NoteNumber":40,"Velocity":49,"Duration":135520,"SoundDuration":135520,"Delta":241840717},{"NoteNumber":41,"Velocity":43,"Duration":136028,"SoundDuration":136028,"Delta":241956816},{"NoteNumber":40,"Velocity":54,"Duration":136548,"SoundDuration":136548,"Delta":242073348},{"NoteNumber":41,"Velocity":48,"Duration":137070,"SoundDuration":137070,"Delta":242190326},{"NoteNumber":40,"Velocity":62,"Duration":138518,"SoundDuration":138518,"Delta":242307752},{"NoteNumber":41,"Velocity":63,"Duration":141655,"SoundDuration":141655,"Delta":242426238},{"NoteNumber":40,"Velocity":71,"Duration":154237,"SoundDuration":154237,"Delta":242547380},{"NoteNumber":44,"Velocity":79,"Duration":193421,"SoundDuration":193421,"Delta":242677786},{"NoteNumber":57,"Velocity":98,"Duration":1011038,"SoundDuration":1011038,"Delta":242850144},{"NoteNumber":69,"Velocity":98,"Duration":1011038,"SoundDuration":1011038,"Delta":242850144},{"NoteNumber":33,"Velocity":78,"Duration":1011038,"SoundDuration":1011038,"Delta":242850144},{"NoteNumber":45,"Velocity":78,"Duration":1011038,"SoundDuration":1011038,"Delta":242850144},{"NoteNumber":64,"Velocity":88,"Duration":998420,"SoundDuration":998420,"Delta":243861182},{"NoteNumber":76,"Velocity":88,"Duration":998420,"SoundDuration":998420,"Delta":243861182},{"NoteNumber":40,"Velocity":75,"Duration":998420,"SoundDuration":998420,"Delta":243861182},{"NoteNumber":52,"Velocity":75,"Duration":998420,"SoundDuration":998420,"Delta":243861182},{"NoteNumber":63,"Velocity":84,"Duration":956175,"SoundDuration":956175,"Delta":244859602},{"NoteNumber":75,"Velocity":84,"Duration":956175,"SoundDuration":956175,"Delta":244859602},{"NoteNumber":39,"Velocity":72,"Duration":956175,"SoundDuration":956175,"Delta":244859602},{"NoteNumber":51,"Velocity":72,"Duration":956175,"SoundDuration":956175,"Delta":244859602},{"NoteNumber":76,"Velocity":77,"Duration":248817,"SoundDuration":248817,"Delta":245815778},{"NoteNumber":64,"Velocity":77,"Duration":248817,"SoundDuration":248817,"Delta":245815778},{"NoteNumber":40,"Velocity":67,"Duration":248817,"SoundDuration":248817,"Delta":245815778},{"NoteNumber":52,"Velocity":67,"Duration":248817,"SoundDuration":248817,"Delta":245815778},{"NoteNumber":64,"Velocity":67,"Duration":231695,"SoundDuration":231695,"Delta":246313414},{"NoteNumber":72,"Velocity":80,"Duration":231695,"SoundDuration":231695,"Delta":246313414},{"NoteNumber":52,"Velocity":48,"Duration":231695,"SoundDuration":231695,"Delta":246313414},{"NoteNumber":64,"Velocity":48,"Duration":231695,"SoundDuration":231695,"Delta":246313414},{"NoteNumber":64,"Velocity":63,"Duration":85162,"SoundDuration":85162,"Delta":246660958},{"NoteNumber":71,"Velocity":73,"Duration":85162,"SoundDuration":85162,"Delta":246660958},{"NoteNumber":50,"Velocity":46,"Duration":85162,"SoundDuration":85162,"Delta":246660958},{"NoteNumber":62,"Velocity":46,"Duration":85162,"SoundDuration":85162,"Delta":246660958},{"NoteNumber":64,"Velocity":67,"Duration":231695,"SoundDuration":231695,"Delta":246774509},{"NoteNumber":69,"Velocity":80,"Duration":231695,"SoundDuration":231695,"Delta":246774509},{"NoteNumber":48,"Velocity":48,"Duration":231695,"SoundDuration":231695,"Delta":246774509},{"NoteNumber":60,"Velocity":48,"Duration":231695,"SoundDuration":231695,"Delta":246774509},{"NoteNumber":62,"Velocity":63,"Duration":84491,"SoundDuration":84491,"Delta":247122053},{"NoteNumber":67,"Velocity":73,"Duration":84491,"SoundDuration":84491,"Delta":247122053},{"NoteNumber":47,"Velocity":46,"Duration":84491,"SoundDuration":84491,"Delta":247122053},{"NoteNumber":59,"Velocity":46,"Duration":84491,"SoundDuration":84491,"Delta":247122053},{"NoteNumber":60,"Velocity":63,"Duration":230769,"SoundDuration":230769,"Delta":247234708},{"NoteNumber":65,"Velocity":72,"Duration":230769,"SoundDuration":230769,"Delta":247234708},{"NoteNumber":45,"Velocity":43,"Duration":230769,"SoundDuration":230769,"Delta":247234708},{"NoteNumber":57,"Velocity":43,"Duration":230769,"SoundDuration":230769,"Delta":247234708},{"NoteNumber":59,"Velocity":58,"Duration":84828,"SoundDuration":84828,"Delta":247580861},{"NoteNumber":64,"Velocity":70,"Duration":84828,"SoundDuration":84828,"Delta":247580861},{"NoteNumber":44,"Velocity":42,"Duration":84828,"SoundDuration":84828,"Delta":247580861},{"NoteNumber":56,"Velocity":42,"Duration":84828,"SoundDuration":84828,"Delta":247580861},{"NoteNumber":60,"Velocity":64,"Duration":230080,"SoundDuration":230080,"Delta":247693966},{"NoteNumber":65,"Velocity":75,"Duration":230080,"SoundDuration":230080,"Delta":247693966},{"NoteNumber":45,"Velocity":46,"Duration":230080,"SoundDuration":230080,"Delta":247693966},{"NoteNumber":57,"Velocity":46,"Duration":230080,"SoundDuration":230080,"Delta":247693966},{"NoteNumber":59,"Velocity":57,"Duration":84491,"SoundDuration":84491,"Delta":248038962},{"NoteNumber":64,"Velocity":70,"Duration":84491,"SoundDuration":84491,"Delta":248038962},{"NoteNumber":43,"Velocity":40,"Duration":84491,"SoundDuration":84491,"Delta":248038962},{"NoteNumber":55,"Velocity":40,"Duration":84491,"SoundDuration":84491,"Delta":248038962},{"NoteNumber":57,"Velocity":64,"Duration":230344,"SoundDuration":230344,"Delta":248151617},{"NoteNumber":62,"Velocity":75,"Duration":230344,"SoundDuration":230344,"Delta":248151617},{"NoteNumber":41,"Velocity":46,"Duration":230344,"SoundDuration":230344,"Delta":248151617},{"NoteNumber":53,"Velocity":46,"Duration":230344,"SoundDuration":230344,"Delta":248151617},{"NoteNumber":55,"Velocity":58,"Duration":84162,"SoundDuration":84162,"Delta":248497133},{"NoteNumber":61,"Velocity":70,"Duration":84162,"SoundDuration":84162,"Delta":248497133},{"NoteNumber":40,"Velocity":42,"Duration":84162,"SoundDuration":84162,"Delta":248497133},{"NoteNumber":52,"Velocity":42,"Duration":84162,"SoundDuration":84162,"Delta":248497133},{"NoteNumber":57,"Velocity":78,"Duration":228920,"SoundDuration":228920,"Delta":248609350},{"NoteNumber":62,"Velocity":78,"Duration":228920,"SoundDuration":228920,"Delta":248609350},{"NoteNumber":41,"Velocity":48,"Duration":228920,"SoundDuration":228920,"Delta":248609350},{"NoteNumber":53,"Velocity":48,"Duration":228920,"SoundDuration":228920,"Delta":248609350},{"NoteNumber":59,"Velocity":63,"Duration":83830,"SoundDuration":83830,"Delta":248952731},{"NoteNumber":64,"Velocity":73,"Duration":83830,"SoundDuration":83830,"Delta":248952731},{"NoteNumber":44,"Velocity":46,"Duration":83830,"SoundDuration":83830,"Delta":248952731},{"NoteNumber":56,"Velocity":46,"Duration":83830,"SoundDuration":83830,"Delta":248952731},{"NoteNumber":60,"Velocity":78,"Duration":227100,"SoundDuration":227100,"Delta":249064504},{"NoteNumber":65,"Velocity":78,"Duration":227100,"SoundDuration":227100,"Delta":249064504},{"NoteNumber":45,"Velocity":48,"Duration":227100,"SoundDuration":227100,"Delta":249064504},{"NoteNumber":57,"Velocity":48,"Duration":227100,"SoundDuration":227100,"Delta":249064504},{"NoteNumber":62,"Velocity":63,"Duration":83830,"SoundDuration":83830,"Delta":249405155},{"NoteNumber":68,"Velocity":73,"Duration":83830,"SoundDuration":83830,"Delta":249405155},{"NoteNumber":47,"Velocity":46,"Duration":83830,"SoundDuration":83830,"Delta":249405155},{"NoteNumber":59,"Velocity":46,"Duration":83830,"SoundDuration":83830,"Delta":249405155},{"NoteNumber":64,"Velocity":70,"Duration":226210,"SoundDuration":226210,"Delta":249516928},{"NoteNumber":69,"Velocity":84,"Duration":226210,"SoundDuration":226210,"Delta":249516928},{"NoteNumber":48,"Velocity":52,"Duration":226210,"SoundDuration":226210,"Delta":249516928},{"NoteNumber":60,"Velocity":52,"Duration":226210,"SoundDuration":226210,"Delta":249516928},{"NoteNumber":64,"Velocity":67,"Duration":83830,"SoundDuration":83830,"Delta":249856243},{"NoteNumber":71,"Velocity":80,"Duration":83830,"SoundDuration":83830,"Delta":249856243},{"NoteNumber":50,"Velocity":48,"Duration":83830,"SoundDuration":83830,"Delta":249856243},{"NoteNumber":62,"Velocity":48,"Duration":83830,"SoundDuration":83830,"Delta":249856243},{"NoteNumber":64,"Velocity":71,"Duration":129994,"SoundDuration":129994,"Delta":249968017},{"NoteNumber":69,"Velocity":86,"Duration":129994,"SoundDuration":129994,"Delta":249968017},{"NoteNumber":48,"Velocity":53,"Duration":129994,"SoundDuration":129994,"Delta":249968017},{"NoteNumber":60,"Velocity":53,"Duration":129994,"SoundDuration":129994,"Delta":249968017},{"NoteNumber":57,"Velocity":97,"Duration":1017380,"SoundDuration":1017380,"Delta":250487993},{"NoteNumber":45,"Velocity":90,"Duration":1017380,"SoundDuration":1017380,"Delta":250487993},{"NoteNumber":57,"Velocity":85,"Duration":974106,"SoundDuration":974106,"Delta":251505373},{"NoteNumber":65,"Velocity":85,"Duration":974106,"SoundDuration":974106,"Delta":251505373},{"NoteNumber":69,"Velocity":85,"Duration":974106,"SoundDuration":974106,"Delta":251505373},{"NoteNumber":38,"Velocity":86,"Duration":974106,"SoundDuration":974106,"Delta":251505373},{"NoteNumber":45,"Velocity":86,"Duration":974106,"SoundDuration":974106,"Delta":251505373},{"NoteNumber":67,"Velocity":90,"Duration":949894,"SoundDuration":949894,"Delta":252479479},{"NoteNumber":58,"Velocity":90,"Duration":949894,"SoundDuration":949894,"Delta":252479479},{"NoteNumber":70,"Velocity":90,"Duration":949894,"SoundDuration":949894,"Delta":252479479},{"NoteNumber":37,"Velocity":71,"Duration":949894,"SoundDuration":949894,"Delta":252479479},{"NoteNumber":45,"Velocity":71,"Duration":1206963,"SoundDuration":1206963,"Delta":252479479},{"NoteNumber":57,"Velocity":80,"Duration":257069,"SoundDuration":257069,"Delta":253429373},{"NoteNumber":69,"Velocity":80,"Duration":257069,"SoundDuration":257069,"Delta":253429373},{"NoteNumber":65,"Velocity":80,"Duration":257069,"SoundDuration":257069,"Delta":253429373},{"NoteNumber":38,"Velocity":71,"Duration":257069,"SoundDuration":257069,"Delta":253429373},{"NoteNumber":69,"Velocity":73,"Duration":230769,"SoundDuration":230769,"Delta":253943512},{"NoteNumber":77,"Velocity":89,"Duration":230769,"SoundDuration":230769,"Delta":253943512},{"NoteNumber":57,"Velocity":53,"Duration":230769,"SoundDuration":230769,"Delta":253943512},{"NoteNumber":69,"Velocity":53,"Duration":230769,"SoundDuration":230769,"Delta":253943512},{"NoteNumber":69,"Velocity":70,"Duration":84491,"SoundDuration":84491,"Delta":254289665},{"NoteNumber":76,"Velocity":84,"Duration":84491,"SoundDuration":84491,"Delta":254289665},{"NoteNumber":55,"Velocity":52,"Duration":84491,"SoundDuration":84491,"Delta":254289665},{"NoteNumber":67,"Velocity":52,"Duration":84491,"SoundDuration":84491,"Delta":254289665},{"NoteNumber":69,"Velocity":67,"Duration":229831,"SoundDuration":229831,"Delta":254402320},{"NoteNumber":74,"Velocity":80,"Duration":229831,"SoundDuration":229831,"Delta":254402320},{"NoteNumber":53,"Velocity":48,"Duration":229831,"SoundDuration":229831,"Delta":254402320},{"NoteNumber":65,"Velocity":48,"Duration":229831,"SoundDuration":229831,"Delta":254402320},{"NoteNumber":67,"Velocity":63,"Duration":84491,"SoundDuration":84491,"Delta":254747068},{"NoteNumber":72,"Velocity":73,"Duration":84491,"SoundDuration":84491,"Delta":254747068},{"NoteNumber":52,"Velocity":46,"Duration":84491,"SoundDuration":84491,"Delta":254747068},{"NoteNumber":64,"Velocity":46,"Duration":84491,"SoundDuration":84491,"Delta":254747068},{"NoteNumber":65,"Velocity":63,"Duration":228920,"SoundDuration":228920,"Delta":254859723},{"NoteNumber":70,"Velocity":72,"Duration":228920,"SoundDuration":228920,"Delta":254859723},{"NoteNumber":50,"Velocity":43,"Duration":228920,"SoundDuration":228920,"Delta":254859723},{"NoteNumber":62,"Velocity":43,"Duration":228920,"SoundDuration":228920,"Delta":254859723},{"NoteNumber":64,"Velocity":58,"Duration":83830,"SoundDuration":83830,"Delta":255203104},{"NoteNumber":69,"Velocity":70,"Duration":83830,"SoundDuration":83830,"Delta":255203104},{"NoteNumber":49,"Velocity":42,"Duration":83830,"SoundDuration":83830,"Delta":255203104},{"NoteNumber":61,"Velocity":42,"Duration":83830,"SoundDuration":83830,"Delta":255203104},{"NoteNumber":65,"Velocity":73,"Duration":227998,"SoundDuration":227998,"Delta":255314878},{"NoteNumber":70,"Velocity":73,"Duration":227998,"SoundDuration":227998,"Delta":255314878},{"NoteNumber":50,"Velocity":46,"Duration":227998,"SoundDuration":227998,"Delta":255314878},{"NoteNumber":62,"Velocity":46,"Duration":227998,"SoundDuration":227998,"Delta":255314878},{"NoteNumber":64,"Velocity":57,"Duration":83506,"SoundDuration":83506,"Delta":255656875},{"NoteNumber":69,"Velocity":70,"Duration":83506,"SoundDuration":83506,"Delta":255656875},{"NoteNumber":48,"Velocity":40,"Duration":83506,"SoundDuration":83506,"Delta":255656875},{"NoteNumber":60,"Velocity":40,"Duration":83506,"SoundDuration":83506,"Delta":255656875},{"NoteNumber":62,"Velocity":72,"Duration":227100,"SoundDuration":227100,"Delta":255768217},{"NoteNumber":67,"Velocity":72,"Duration":227100,"SoundDuration":227100,"Delta":255768217},{"NoteNumber":46,"Velocity":46,"Duration":227100,"SoundDuration":227100,"Delta":255768217},{"NoteNumber":58,"Velocity":46,"Duration":227100,"SoundDuration":227100,"Delta":255768217},{"NoteNumber":60,"Velocity":58,"Duration":83506,"SoundDuration":83506,"Delta":256108867},{"NoteNumber":66,"Velocity":70,"Duration":83506,"SoundDuration":83506,"Delta":256108867},{"NoteNumber":45,"Velocity":42,"Duration":83506,"SoundDuration":83506,"Delta":256108867},{"NoteNumber":57,"Velocity":42,"Duration":83506,"SoundDuration":83506,"Delta":256108867},{"NoteNumber":62,"Velocity":76,"Duration":226209,"SoundDuration":226209,"Delta":256220209},{"NoteNumber":67,"Velocity":76,"Duration":226209,"SoundDuration":226209,"Delta":256220209},{"NoteNumber":46,"Velocity":48,"Duration":226209,"SoundDuration":226209,"Delta":256220209},{"NoteNumber":58,"Velocity":48,"Duration":226209,"SoundDuration":226209,"Delta":256220209},{"NoteNumber":64,"Velocity":63,"Duration":84828,"SoundDuration":84828,"Delta":256559524},{"NoteNumber":69,"Velocity":73,"Duration":84828,"SoundDuration":84828,"Delta":256559524},{"NoteNumber":49,"Velocity":46,"Duration":84828,"SoundDuration":84828,"Delta":256559524},{"NoteNumber":61,"Velocity":46,"Duration":84828,"SoundDuration":84828,"Delta":256559524},{"NoteNumber":65,"Velocity":77,"Duration":223947,"SoundDuration":223947,"Delta":256672629},{"NoteNumber":70,"Velocity":77,"Duration":223947,"SoundDuration":223947,"Delta":256672629},{"NoteNumber":50,"Velocity":48,"Duration":223947,"SoundDuration":223947,"Delta":256672629},{"NoteNumber":62,"Velocity":48,"Duration":223947,"SoundDuration":223947,"Delta":256672629},{"NoteNumber":67,"Velocity":63,"Duration":82544,"SoundDuration":82544,"Delta":257008551},{"NoteNumber":73,"Velocity":73,"Duration":82544,"SoundDuration":82544,"Delta":257008551},{"NoteNumber":52,"Velocity":46,"Duration":82544,"SoundDuration":82544,"Delta":257008551},{"NoteNumber":64,"Velocity":46,"Duration":82544,"SoundDuration":82544,"Delta":257008551},{"NoteNumber":69,"Velocity":79,"Duration":223947,"SoundDuration":223947,"Delta":257118610},{"NoteNumber":74,"Velocity":79,"Duration":223947,"SoundDuration":223947,"Delta":257118610},{"NoteNumber":53,"Velocity":52,"Duration":223947,"SoundDuration":223947,"Delta":257118610},{"NoteNumber":65,"Velocity":52,"Duration":223947,"SoundDuration":223947,"Delta":257118610},{"NoteNumber":69,"Velocity":67,"Duration":82224,"SoundDuration":82224,"Delta":257454531},{"NoteNumber":76,"Velocity":80,"Duration":82224,"SoundDuration":82224,"Delta":257454531},{"NoteNumber":55,"Velocity":48,"Duration":82224,"SoundDuration":82224,"Delta":257454531},{"NoteNumber":67,"Velocity":48,"Duration":82224,"SoundDuration":82224,"Delta":257454531},{"NoteNumber":69,"Velocity":71,"Duration":126071,"SoundDuration":126071,"Delta":257564164},{"NoteNumber":74,"Velocity":86,"Duration":126071,"SoundDuration":126071,"Delta":257564164},{"NoteNumber":53,"Velocity":53,"Duration":126071,"SoundDuration":126071,"Delta":257564164},{"NoteNumber":65,"Velocity":53,"Duration":126071,"SoundDuration":126071,"Delta":257564164},{"NoteNumber":50,"Velocity":88,"Duration":966340,"SoundDuration":966340,"Delta":258068450},{"NoteNumber":55,"Velocity":88,"Duration":966340,"SoundDuration":966340,"Delta":258068450},{"NoteNumber":58,"Velocity":98,"Duration":966340,"SoundDuration":966340,"Delta":258068450},{"NoteNumber":62,"Velocity":98,"Duration":966340,"SoundDuration":966340,"Delta":258068450},{"NoteNumber":38,"Velocity":72,"Duration":187985,"SoundDuration":187985,"Delta":259034790},{"NoteNumber":50,"Velocity":81,"Duration":187985,"SoundDuration":187985,"Delta":259034790},{"NoteNumber":50,"Velocity":87,"Duration":953820,"SoundDuration":953820,"Delta":260037380},{"NoteNumber":53,"Velocity":87,"Duration":953820,"SoundDuration":953820,"Delta":260037380},{"NoteNumber":57,"Velocity":97,"Duration":953820,"SoundDuration":953820,"Delta":260037380},{"NoteNumber":62,"Velocity":97,"Duration":950839,"SoundDuration":950839,"Delta":260037380},{"NoteNumber":38,"Velocity":72,"Duration":183388,"SoundDuration":183388,"Delta":260991200},{"NoteNumber":50,"Velocity":81,"Duration":183388,"SoundDuration":183388,"Delta":260991200},{"NoteNumber":62,"Velocity":83,"Duration":945989,"SoundDuration":945989,"Delta":261480237},{"NoteNumber":74,"Velocity":93,"Duration":945989,"SoundDuration":945989,"Delta":261480237},{"NoteNumber":50,"Velocity":75,"Duration":930618,"SoundDuration":930618,"Delta":261957147},{"NoteNumber":55,"Velocity":75,"Duration":930618,"SoundDuration":930618,"Delta":261957147},{"NoteNumber":58,"Velocity":84,"Duration":930618,"SoundDuration":930618,"Delta":261957147},{"NoteNumber":62,"Velocity":84,"Duration":930618,"SoundDuration":930618,"Delta":261957147},{"NoteNumber":67,"Velocity":80,"Duration":461538,"SoundDuration":461538,"Delta":262426227},{"NoteNumber":79,"Velocity":89,"Duration":461538,"SoundDuration":461538,"Delta":262426227},{"NoteNumber":69,"Velocity":84,"Duration":467180,"SoundDuration":467180,"Delta":262887765},{"NoteNumber":81,"Velocity":94,"Duration":467180,"SoundDuration":467180,"Delta":262887765},{"NoteNumber":38,"Velocity":62,"Duration":175192,"SoundDuration":175192,"Delta":262887765},{"NoteNumber":50,"Velocity":69,"Duration":175192,"SoundDuration":175192,"Delta":262887765},{"NoteNumber":70,"Velocity":81,"Duration":472961,"SoundDuration":472961,"Delta":263354946},{"NoteNumber":82,"Velocity":91,"Duration":472961,"SoundDuration":472961,"Delta":263354946},{"NoteNumber":69,"Velocity":83,"Duration":887901,"SoundDuration":887901,"Delta":263827908},{"NoteNumber":81,"Velocity":93,"Duration":887901,"SoundDuration":887901,"Delta":263827908},{"NoteNumber":50,"Velocity":73,"Duration":887901,"SoundDuration":887901,"Delta":263827908},{"NoteNumber":53,"Velocity":73,"Duration":887901,"SoundDuration":887901,"Delta":263827908},{"NoteNumber":57,"Velocity":82,"Duration":887901,"SoundDuration":887901,"Delta":263827908},{"NoteNumber":62,"Velocity":82,"Duration":885127,"SoundDuration":885127,"Delta":263827908},{"NoteNumber":62,"Velocity":76,"Duration":198129,"SoundDuration":198129,"Delta":264715810},{"NoteNumber":74,"Velocity":85,"Duration":198129,"SoundDuration":198129,"Delta":264715810},{"NoteNumber":38,"Velocity":66,"Duration":198129,"SoundDuration":198129,"Delta":264715810},{"NoteNumber":50,"Velocity":74,"Duration":198129,"SoundDuration":198129,"Delta":264715810},{"NoteNumber":72,"Velocity":87,"Duration":475511,"SoundDuration":475511,"Delta":265191321},{"NoteNumber":84,"Velocity":97,"Duration":475511,"SoundDuration":475511,"Delta":265191321},{"NoteNumber":70,"Velocity":87,"Duration":887901,"SoundDuration":887901,"Delta":265666832},{"NoteNumber":82,"Velocity":97,"Duration":887901,"SoundDuration":887901,"Delta":265666832},{"NoteNumber":50,"Velocity":73,"Duration":887901,"SoundDuration":887901,"Delta":265666832},{"NoteNumber":55,"Velocity":73,"Duration":887901,"SoundDuration":887901,"Delta":265666832},{"NoteNumber":58,"Velocity":82,"Duration":887901,"SoundDuration":887901,"Delta":265666832},{"NoteNumber":62,"Velocity":82,"Duration":885127,"SoundDuration":885127,"Delta":265666832},{"NoteNumber":62,"Velocity":82,"Duration":198129,"SoundDuration":198129,"Delta":266554734},{"NoteNumber":74,"Velocity":92,"Duration":198129,"SoundDuration":198129,"Delta":266554734},{"NoteNumber":38,"Velocity":66,"Duration":198129,"SoundDuration":198129,"Delta":266554734},{"NoteNumber":50,"Velocity":74,"Duration":198129,"SoundDuration":198129,"Delta":266554734},{"NoteNumber":70,"Velocity":87,"Duration":469924,"SoundDuration":469924,"Delta":267030245},{"NoteNumber":82,"Velocity":97,"Duration":469924,"SoundDuration":469924,"Delta":267030245},{"NoteNumber":69,"Velocity":82,"Duration":887901,"SoundDuration":887901,"Delta":267500170},{"NoteNumber":81,"Velocity":92,"Duration":887901,"SoundDuration":887901,"Delta":267500170},{"NoteNumber":50,"Velocity":74,"Duration":887901,"SoundDuration":887901,"Delta":267500170},{"NoteNumber":53,"Velocity":74,"Duration":887901,"SoundDuration":887901,"Delta":267500170},{"NoteNumber":57,"Velocity":83,"Duration":887901,"SoundDuration":887901,"Delta":267500170},{"NoteNumber":62,"Velocity":83,"Duration":885127,"SoundDuration":885127,"Delta":267500170},{"NoteNumber":62,"Velocity":75,"Duration":198933,"SoundDuration":198933,"Delta":268388072},{"NoteNumber":74,"Velocity":84,"Duration":198933,"SoundDuration":198933,"Delta":268388072},{"NoteNumber":38,"Velocity":65,"Duration":198933,"SoundDuration":198933,"Delta":268388072},{"NoteNumber":50,"Velocity":73,"Duration":198933,"SoundDuration":198933,"Delta":268388072},{"NoteNumber":62,"Velocity":87,"Duration":934522,"SoundDuration":934522,"Delta":268865513},{"NoteNumber":74,"Velocity":97,"Duration":934522,"SoundDuration":934522,"Delta":268865513},{"NoteNumber":50,"Velocity":75,"Duration":922394,"SoundDuration":922394,"Delta":269328226},{"NoteNumber":55,"Velocity":75,"Duration":922394,"SoundDuration":922394,"Delta":269328226},{"NoteNumber":58,"Velocity":84,"Duration":922394,"SoundDuration":922394,"Delta":269328226},{"NoteNumber":62,"Velocity":84,"Duration":922394,"SoundDuration":922394,"Delta":269328226},{"NoteNumber":67,"Velocity":82,"Duration":450585,"SoundDuration":450585,"Delta":269800035},{"NoteNumber":79,"Velocity":92,"Duration":450585,"SoundDuration":450585,"Delta":269800035},{"NoteNumber":69,"Velocity":87,"Duration":457840,"SoundDuration":457840,"Delta":270250621},{"NoteNumber":81,"Velocity":97,"Duration":457840,"SoundDuration":457840,"Delta":270250621},{"NoteNumber":38,"Velocity":66,"Duration":171690,"SoundDuration":171690,"Delta":270250621},{"NoteNumber":50,"Velocity":74,"Duration":171690,"SoundDuration":171690,"Delta":270250621},{"NoteNumber":70,"Velocity":82,"Duration":465343,"SoundDuration":465343,"Delta":270708462},{"NoteNumber":82,"Velocity":92,"Duration":465343,"SoundDuration":465343,"Delta":270708462},{"NoteNumber":69,"Velocity":89,"Duration":878155,"SoundDuration":878155,"Delta":271173806},{"NoteNumber":81,"Velocity":99,"Duration":878155,"SoundDuration":878155,"Delta":271173806},{"NoteNumber":50,"Velocity":75,"Duration":878155,"SoundDuration":878155,"Delta":271173806},{"NoteNumber":53,"Velocity":75,"Duration":878155,"SoundDuration":878155,"Delta":271173806},{"NoteNumber":57,"Velocity":84,"Duration":878155,"SoundDuration":878155,"Delta":271173806},{"NoteNumber":62,"Velocity":84,"Duration":875411,"SoundDuration":875411,"Delta":271173806},{"NoteNumber":62,"Velocity":75,"Duration":194295,"SoundDuration":194295,"Delta":272051962},{"NoteNumber":74,"Velocity":84,"Duration":194295,"SoundDuration":194295,"Delta":272051962},{"NoteNumber":38,"Velocity":66,"Duration":194295,"SoundDuration":194295,"Delta":272051962},{"NoteNumber":50,"Velocity":74,"Duration":194295,"SoundDuration":194295,"Delta":272051962},{"NoteNumber":69,"Velocity":85,"Duration":911623,"SoundDuration":911623,"Delta":272518271},{"NoteNumber":81,"Velocity":95,"Duration":911623,"SoundDuration":911623,"Delta":272518271},{"NoteNumber":48,"Velocity":72,"Duration":910197,"SoundDuration":910197,"Delta":272975693},{"NoteNumber":52,"Velocity":72,"Duration":910197,"SoundDuration":910197,"Delta":272975693},{"NoteNumber":57,"Velocity":81,"Duration":910197,"SoundDuration":910197,"Delta":272975693},{"NoteNumber":60,"Velocity":81,"Duration":910197,"SoundDuration":910197,"Delta":272975693},{"NoteNumber":84,"Velocity":92,"Duration":455996,"SoundDuration":455996,"Delta":273429894},{"NoteNumber":72,"Velocity":82,"Duration":455996,"SoundDuration":455996,"Delta":273429894},{"NoteNumber":74,"Velocity":91,"Duration":455996,"SoundDuration":455996,"Delta":273885890},{"NoteNumber":86,"Velocity":102,"Duration":455996,"SoundDuration":455996,"Delta":273885890},{"NoteNumber":36,"Velocity":63,"Duration":170998,"SoundDuration":170998,"Delta":273885890},{"NoteNumber":48,"Velocity":71,"Duration":170998,"SoundDuration":170998,"Delta":273885890},{"NoteNumber":76,"Velocity":94,"Duration":493056,"SoundDuration":493056,"Delta":274341886},{"NoteNumber":88,"Velocity":105,"Duration":493056,"SoundDuration":493056,"Delta":274341886},{"NoteNumber":88,"Velocity":107,"Duration":926075,"SoundDuration":926075,"Delta":274834942},{"NoteNumber":76,"Velocity":96,"Duration":926075,"SoundDuration":926075,"Delta":274834942},{"NoteNumber":47,"Velocity":76,"Duration":926075,"SoundDuration":926075,"Delta":274834942},{"NoteNumber":56,"Velocity":85,"Duration":926075,"SoundDuration":926075,"Delta":274834942},{"NoteNumber":59,"Velocity":85,"Duration":926075,"SoundDuration":926075,"Delta":274834942},{"NoteNumber":76,"Velocity":84,"Duration":906510,"SoundDuration":906510,"Delta":275801282},{"NoteNumber":88,"Velocity":94,"Duration":906510,"SoundDuration":906510,"Delta":275801282},{"NoteNumber":64,"Velocity":85,"Duration":906510,"SoundDuration":906510,"Delta":275801282},{"NoteNumber":56,"Velocity":85,"Duration":906510,"SoundDuration":906510,"Delta":275801282},{"NoteNumber":52,"Velocity":76,"Duration":906510,"SoundDuration":906510,"Delta":275801282},{"NoteNumber":84,"Velocity":89,"Duration":926783,"SoundDuration":926783,"Delta":276747206},{"NoteNumber":72,"Velocity":80,"Duration":926783,"SoundDuration":926783,"Delta":276747206},{"NoteNumber":48,"Velocity":73,"Duration":926783,"SoundDuration":926783,"Delta":276747206},{"NoteNumber":60,"Velocity":82,"Duration":926783,"SoundDuration":926783,"Delta":276747206},{"NoteNumber":81,"Velocity":81,"Duration":208004,"SoundDuration":208004,"Delta":277673990},{"NoteNumber":69,"Velocity":72,"Duration":208004,"SoundDuration":208004,"Delta":277673990},{"NoteNumber":45,"Velocity":65,"Duration":208004,"SoundDuration":208004,"Delta":277673990},{"NoteNumber":57,"Velocity":73,"Duration":208004,"SoundDuration":208004,"Delta":277673990},{"NoteNumber":64,"Velocity":48,"Duration":956819,"SoundDuration":956819,"Delta":278672410},{"NoteNumber":76,"Velocity":48,"Duration":956819,"SoundDuration":956819,"Delta":278672410},{"NoteNumber":35,"Velocity":40,"Duration":956819,"SoundDuration":956819,"Delta":278672410},{"NoteNumber":44,"Velocity":40,"Duration":956819,"SoundDuration":956819,"Delta":278672410},{"NoteNumber":47,"Velocity":40,"Duration":956819,"SoundDuration":956819,"Delta":278672410},{"NoteNumber":64,"Velocity":48,"Duration":929819,"SoundDuration":929819,"Delta":279670830},{"NoteNumber":76,"Velocity":48,"Duration":929819,"SoundDuration":929819,"Delta":279670830},{"NoteNumber":40,"Velocity":37,"Duration":929819,"SoundDuration":929819,"Delta":279670830},{"NoteNumber":44,"Velocity":37,"Duration":929819,"SoundDuration":929819,"Delta":279670830},{"NoteNumber":52,"Velocity":37,"Duration":929819,"SoundDuration":929819,"Delta":279670830},{"NoteNumber":60,"Velocity":45,"Duration":934362,"SoundDuration":934362,"Delta":280641076},{"NoteNumber":72,"Velocity":45,"Duration":934362,"SoundDuration":934362,"Delta":280641076},{"NoteNumber":36,"Velocity":37,"Duration":934362,"SoundDuration":934362,"Delta":280641076},{"NoteNumber":48,"Velocity":37,"Duration":934362,"SoundDuration":934362,"Delta":280641076},{"NoteNumber":57,"Velocity":41,"Duration":181921,"SoundDuration":181921,"Delta":281575438},{"NoteNumber":69,"Velocity":41,"Duration":181921,"SoundDuration":181921,"Delta":281575438},{"NoteNumber":33,"Velocity":37,"Duration":181921,"SoundDuration":181921,"Delta":281575438},{"NoteNumber":45,"Velocity":37,"Duration":181921,"SoundDuration":181921,"Delta":281575438},{"NoteNumber":58,"Velocity":34,"Duration":911991,"SoundDuration":911991,"Delta":282545684},{"NoteNumber":70,"Velocity":34,"Duration":911991,"SoundDuration":911991,"Delta":282545684},{"NoteNumber":34,"Velocity":31,"Duration":911991,"SoundDuration":911991,"Delta":282545684},{"NoteNumber":46,"Velocity":31,"Duration":911991,"SoundDuration":911991,"Delta":282545684},{"NoteNumber":55,"Velocity":25,"Duration":177360,"SoundDuration":177360,"Delta":283457676},{"NoteNumber":67,"Velocity":25,"Duration":177360,"SoundDuration":177360,"Delta":283457676},{"NoteNumber":31,"Velocity":24,"Duration":177360,"SoundDuration":177360,"Delta":283457676},{"NoteNumber":43,"Velocity":24,"Duration":177360,"SoundDuration":177360,"Delta":283457676},{"NoteNumber":58,"Velocity":31,"Duration":911991,"SoundDuration":911991,"Delta":284403600},{"NoteNumber":70,"Velocity":31,"Duration":911991,"SoundDuration":911991,"Delta":284403600},{"NoteNumber":34,"Velocity":30,"Duration":911991,"SoundDuration":911991,"Delta":284403600},{"NoteNumber":46,"Velocity":30,"Duration":911991,"SoundDuration":911991,"Delta":284403600},{"NoteNumber":55,"Velocity":25,"Duration":175905,"SoundDuration":175905,"Delta":285315592},{"NoteNumber":67,"Velocity":25,"Duration":175905,"SoundDuration":175905,"Delta":285315592},{"NoteNumber":31,"Velocity":22,"Duration":175905,"SoundDuration":175905,"Delta":285315592},{"NoteNumber":43,"Velocity":22,"Duration":175905,"SoundDuration":175905,"Delta":285315592},{"NoteNumber":58,"Velocity":31,"Duration":908402,"SoundDuration":908402,"Delta":286253752},{"NoteNumber":70,"Velocity":31,"Duration":908402,"SoundDuration":908402,"Delta":286253752},{"NoteNumber":34,"Velocity":30,"Duration":908402,"SoundDuration":908402,"Delta":286253752},{"NoteNumber":46,"Velocity":30,"Duration":908402,"SoundDuration":908402,"Delta":286253752},{"NoteNumber":55,"Velocity":24,"Duration":174472,"SoundDuration":174472,"Delta":287162154},{"NoteNumber":67,"Velocity":24,"Duration":174472,"SoundDuration":174472,"Delta":287162154},{"NoteNumber":31,"Velocity":23,"Duration":174472,"SoundDuration":174472,"Delta":287162154},{"NoteNumber":43,"Velocity":23,"Duration":174472,"SoundDuration":174472,"Delta":287162154},{"NoteNumber":58,"Velocity":34,"Duration":883848,"SoundDuration":883848,"Delta":288092676},{"NoteNumber":70,"Velocity":34,"Duration":883848,"SoundDuration":883848,"Delta":288092676},{"NoteNumber":34,"Velocity":31,"Duration":883848,"SoundDuration":883848,"Delta":288092676},{"NoteNumber":46,"Velocity":31,"Duration":883848,"SoundDuration":883848,"Delta":288092676},{"NoteNumber":55,"Velocity":29,"Duration":168982,"SoundDuration":168982,"Delta":288976524},{"NoteNumber":67,"Velocity":29,"Duration":168982,"SoundDuration":168982,"Delta":288976524},{"NoteNumber":31,"Velocity":26,"Duration":168982,"SoundDuration":168982,"Delta":288976524},{"NoteNumber":43,"Velocity":26,"Duration":168982,"SoundDuration":168982,"Delta":288976524},{"NoteNumber":59,"Velocity":80,"Duration":108756,"SoundDuration":108756,"Delta":289877764},{"NoteNumber":35,"Velocity":72,"Duration":108756,"SoundDuration":108756,"Delta":289877764},{"NoteNumber":71,"Velocity":76,"Duration":108400,"SoundDuration":108400,"Delta":289986521},{"NoteNumber":47,"Velocity":31,"Duration":108400,"SoundDuration":108400,"Delta":289986521},{"NoteNumber":59,"Velocity":72,"Duration":111776,"SoundDuration":111776,"Delta":290094921},{"NoteNumber":35,"Velocity":42,"Duration":111776,"SoundDuration":111776,"Delta":290094921},{"NoteNumber":71,"Velocity":67,"Duration":108232,"SoundDuration":108232,"Delta":290206698},{"NoteNumber":47,"Velocity":30,"Duration":108232,"SoundDuration":108232,"Delta":290206698},{"NoteNumber":59,"Velocity":63,"Duration":108308,"SoundDuration":108308,"Delta":290314931},{"NoteNumber":35,"Velocity":46,"Duration":108308,"SoundDuration":108308,"Delta":290314931},{"NoteNumber":71,"Velocity":60,"Duration":110283,"SoundDuration":110283,"Delta":290423239},{"NoteNumber":47,"Velocity":33,"Duration":110283,"SoundDuration":110283,"Delta":290423239},{"NoteNumber":59,"Velocity":57,"Duration":108387,"SoundDuration":108387,"Delta":290533523},{"NoteNumber":35,"Velocity":44,"Duration":108387,"SoundDuration":108387,"Delta":290533523},{"NoteNumber":71,"Velocity":54,"Duration":107186,"SoundDuration":107186,"Delta":290641910},{"NoteNumber":47,"Velocity":31,"Duration":107186,"SoundDuration":107186,"Delta":290641910},{"NoteNumber":59,"Velocity":60,"Duration":108830,"SoundDuration":108830,"Delta":290749097},{"NoteNumber":35,"Velocity":45,"Duration":108830,"SoundDuration":108830,"Delta":290749097},{"NoteNumber":71,"Velocity":57,"Duration":109742,"SoundDuration":109742,"Delta":290857927},{"NoteNumber":47,"Velocity":33,"Duration":109742,"SoundDuration":109742,"Delta":290857927},{"NoteNumber":59,"Velocity":55,"Duration":106528,"SoundDuration":106528,"Delta":290967670},{"NoteNumber":35,"Velocity":44,"Duration":106528,"SoundDuration":106528,"Delta":290967670},{"NoteNumber":71,"Velocity":52,"Duration":109063,"SoundDuration":109063,"Delta":291074199},{"NoteNumber":47,"Velocity":31,"Duration":109063,"SoundDuration":109063,"Delta":291074199},{"NoteNumber":59,"Velocity":58,"Duration":109760,"SoundDuration":109760,"Delta":291183262},{"NoteNumber":35,"Velocity":51,"Duration":109760,"SoundDuration":109760,"Delta":291183262},{"NoteNumber":71,"Velocity":56,"Duration":105463,"SoundDuration":105463,"Delta":291293022},{"NoteNumber":47,"Velocity":37,"Duration":105463,"SoundDuration":105463,"Delta":291293022},{"NoteNumber":59,"Velocity":54,"Duration":107128,"SoundDuration":107128,"Delta":291398486},{"NoteNumber":35,"Velocity":47,"Duration":107128,"SoundDuration":107128,"Delta":291398486},{"NoteNumber":71,"Velocity":51,"Duration":108906,"SoundDuration":108906,"Delta":291505614},{"NoteNumber":47,"Velocity":33,"Duration":108906,"SoundDuration":108906,"Delta":291505614},{"NoteNumber":56,"Velocity":80,"Duration":105683,"SoundDuration":105683,"Delta":291614521},{"NoteNumber":32,"Velocity":74,"Duration":105683,"SoundDuration":105683,"Delta":291614521},{"NoteNumber":68,"Velocity":75,"Duration":105895,"SoundDuration":105895,"Delta":291720204},{"NoteNumber":44,"Velocity":37,"Duration":105895,"SoundDuration":105895,"Delta":291720204},{"NoteNumber":56,"Velocity":69,"Duration":108524,"SoundDuration":108524,"Delta":291826100},{"NoteNumber":32,"Velocity":47,"Duration":108524,"SoundDuration":108524,"Delta":291826100},{"NoteNumber":68,"Velocity":65,"Duration":107414,"SoundDuration":107414,"Delta":291934624},{"NoteNumber":44,"Velocity":37,"Duration":107414,"SoundDuration":107414,"Delta":291934624},{"NoteNumber":56,"Velocity":61,"Duration":106974,"SoundDuration":106974,"Delta":292042039},{"NoteNumber":32,"Velocity":52,"Duration":106974,"SoundDuration":106974,"Delta":292042039},{"NoteNumber":68,"Velocity":60,"Duration":110518,"SoundDuration":110518,"Delta":292149014},{"NoteNumber":44,"Velocity":39,"Duration":110518,"SoundDuration":110518,"Delta":292149014},{"NoteNumber":56,"Velocity":59,"Duration":109157,"SoundDuration":109157,"Delta":292259532},{"NoteNumber":32,"Velocity":49,"Duration":109157,"SoundDuration":109157,"Delta":292259532},{"NoteNumber":68,"Velocity":58,"Duration":106830,"SoundDuration":106830,"Delta":292368690},{"NoteNumber":44,"Velocity":38,"Duration":106830,"SoundDuration":106830,"Delta":292368690},{"NoteNumber":56,"Velocity":69,"Duration":108156,"SoundDuration":108156,"Delta":292475520},{"NoteNumber":32,"Velocity":55,"Duration":108156,"SoundDuration":108156,"Delta":292475520},{"NoteNumber":68,"Velocity":68,"Duration":109970,"SoundDuration":109970,"Delta":292583677},{"NoteNumber":44,"Velocity":39,"Duration":109970,"SoundDuration":109970,"Delta":292583677},{"NoteNumber":56,"Velocity":66,"Duration":108007,"SoundDuration":108007,"Delta":292693647},{"NoteNumber":32,"Velocity":51,"Duration":108007,"SoundDuration":108007,"Delta":292693647},{"NoteNumber":68,"Velocity":63,"Duration":107625,"SoundDuration":107625,"Delta":292801655},{"NoteNumber":44,"Velocity":39,"Duration":107625,"SoundDuration":107625,"Delta":292801655},{"NoteNumber":56,"Velocity":73,"Duration":108986,"SoundDuration":108986,"Delta":292909280},{"NoteNumber":32,"Velocity":66,"Duration":108986,"SoundDuration":108986,"Delta":292909280},{"NoteNumber":68,"Velocity":70,"Duration":110300,"SoundDuration":110300,"Delta":293018267},{"NoteNumber":44,"Velocity":52,"Duration":110300,"SoundDuration":110300,"Delta":293018267},{"NoteNumber":56,"Velocity":67,"Duration":111812,"SoundDuration":111812,"Delta":293128567},{"NoteNumber":32,"Velocity":57,"Duration":111812,"SoundDuration":111812,"Delta":293128567},{"NoteNumber":68,"Velocity":64,"Duration":128369,"SoundDuration":128369,"Delta":293240380},{"NoteNumber":44,"Velocity":46,"Duration":128369,"SoundDuration":128369,"Delta":293240380},{"NoteNumber":71,"Velocity":99,"Duration":445367,"SoundDuration":445367,"Delta":293368750},{"NoteNumber":83,"Velocity":99,"Duration":445367,"SoundDuration":445367,"Delta":293368750},{"NoteNumber":47,"Velocity":79,"Duration":445367,"SoundDuration":445367,"Delta":293368750},{"NoteNumber":59,"Velocity":79,"Duration":445367,"SoundDuration":445367,"Delta":293368750},{"NoteNumber":68,"Velocity":90,"Duration":170325,"SoundDuration":170325,"Delta":293814118},{"NoteNumber":80,"Velocity":90,"Duration":170325,"SoundDuration":170325,"Delta":293814118},{"NoteNumber":44,"Velocity":69,"Duration":170325,"SoundDuration":170325,"Delta":293814118},{"NoteNumber":56,"Velocity":69,"Duration":170325,"SoundDuration":170325,"Delta":293814118},{"NoteNumber":83,"Velocity":96,"Duration":448867,"SoundDuration":448867,"Delta":294268319},{"NoteNumber":71,"Velocity":96,"Duration":448867,"SoundDuration":448867,"Delta":294268319},{"NoteNumber":47,"Velocity":79,"Duration":448867,"SoundDuration":448867,"Delta":294268319},{"NoteNumber":59,"Velocity":79,"Duration":448867,"SoundDuration":448867,"Delta":294268319},{"NoteNumber":88,"Velocity":90,"Duration":173771,"SoundDuration":173771,"Delta":294717186},{"NoteNumber":76,"Velocity":90,"Duration":173771,"SoundDuration":173771,"Delta":294717186},{"NoteNumber":64,"Velocity":69,"Duration":173771,"SoundDuration":173771,"Delta":294717186},{"NoteNumber":52,"Velocity":69,"Duration":173771,"SoundDuration":173771,"Delta":294717186},{"NoteNumber":71,"Velocity":89,"Duration":459206,"SoundDuration":459206,"Delta":295180578},{"NoteNumber":83,"Velocity":89,"Duration":459206,"SoundDuration":459206,"Delta":295180578},{"NoteNumber":47,"Velocity":70,"Duration":459206,"SoundDuration":459206,"Delta":295180578},{"NoteNumber":59,"Velocity":70,"Duration":459206,"SoundDuration":459206,"Delta":295180578},{"NoteNumber":80,"Velocity":82,"Duration":176221,"SoundDuration":176221,"Delta":295639785},{"NoteNumber":68,"Velocity":82,"Duration":176221,"SoundDuration":176221,"Delta":295639785},{"NoteNumber":44,"Velocity":63,"Duration":176221,"SoundDuration":176221,"Delta":295639785},{"NoteNumber":56,"Velocity":63,"Duration":176221,"SoundDuration":176221,"Delta":295639785},{"NoteNumber":64,"Velocity":65,"Duration":491079,"SoundDuration":491079,"Delta":296109710},{"NoteNumber":76,"Velocity":65,"Duration":491079,"SoundDuration":491079,"Delta":296109710},{"NoteNumber":52,"Velocity":54,"Duration":491079,"SoundDuration":491079,"Delta":296109710},{"NoteNumber":40,"Velocity":54,"Duration":491079,"SoundDuration":491079,"Delta":296109710},{"NoteNumber":59,"Velocity":53,"Duration":207354,"SoundDuration":207354,"Delta":296600789},{"NoteNumber":71,"Velocity":53,"Duration":207354,"SoundDuration":207354,"Delta":296600789},{"NoteNumber":47,"Velocity":44,"Duration":207354,"SoundDuration":207354,"Delta":296600789},{"NoteNumber":35,"Velocity":44,"Duration":207354,"SoundDuration":207354,"Delta":296600789},{"NoteNumber":56,"Velocity":34,"Duration":1924928,"SoundDuration":1924928,"Delta":297153733},{"NoteNumber":64,"Velocity":34,"Duration":1924928,"SoundDuration":1924928,"Delta":297153733},{"NoteNumber":68,"Velocity":34,"Duration":1924928,"SoundDuration":1924928,"Delta":297153733},{"NoteNumber":35,"Velocity":27,"Duration":3849675,"SoundDuration":3849675,"Delta":297153733},{"NoteNumber":47,"Velocity":27,"Duration":3849675,"SoundDuration":3849675,"Delta":297153733},{"NoteNumber":63,"Velocity":38,"Duration":1924747,"SoundDuration":1924747,"Delta":299078661},{"NoteNumber":57,"Velocity":38,"Duration":1924747,"SoundDuration":1924747,"Delta":299078661},{"NoteNumber":71,"Velocity":38,"Duration":1924747,"SoundDuration":1924747,"Delta":299078661},{"NoteNumber":59,"Velocity":93,"Duration":105196,"SoundDuration":105196,"Delta":301003409},{"NoteNumber":35,"Velocity":81,"Duration":105196,"SoundDuration":105196,"Delta":301003409},{"NoteNumber":71,"Velocity":87,"Duration":105196,"SoundDuration":105196,"Delta":301108605},{"NoteNumber":47,"Velocity":38,"Duration":105196,"SoundDuration":105196,"Delta":301108605},{"NoteNumber":59,"Velocity":81,"Duration":105196,"SoundDuration":105196,"Delta":301213802},{"NoteNumber":35,"Velocity":58,"Duration":105196,"SoundDuration":105196,"Delta":301213802},{"NoteNumber":71,"Velocity":75,"Duration":105196,"SoundDuration":105196,"Delta":301318999},{"NoteNumber":47,"Velocity":38,"Duration":105196,"SoundDuration":105196,"Delta":301318999},{"NoteNumber":56,"Velocity":91,"Duration":105196,"SoundDuration":105196,"Delta":301424196},{"NoteNumber":32,"Velocity":72,"Duration":105196,"SoundDuration":105196,"Delta":301424196},{"NoteNumber":68,"Velocity":86,"Duration":105196,"SoundDuration":105196,"Delta":301529392},{"NoteNumber":44,"Velocity":38,"Duration":105196,"SoundDuration":105196,"Delta":301529392},{"NoteNumber":56,"Velocity":81,"Duration":105196,"SoundDuration":105196,"Delta":301634589},{"NoteNumber":32,"Velocity":57,"Duration":105196,"SoundDuration":105196,"Delta":301634589},{"NoteNumber":68,"Velocity":75,"Duration":105196,"SoundDuration":105196,"Delta":301739786},{"NoteNumber":44,"Velocity":38,"Duration":105196,"SoundDuration":105196,"Delta":301739786},{"NoteNumber":59,"Velocity":84,"Duration":103298,"SoundDuration":103298,"Delta":301844983},{"NoteNumber":35,"Velocity":72,"Duration":103298,"SoundDuration":103298,"Delta":301844983},{"NoteNumber":71,"Velocity":80,"Duration":103298,"SoundDuration":103298,"Delta":301948281},{"NoteNumber":47,"Velocity":40,"Duration":103298,"SoundDuration":103298,"Delta":301948281},{"NoteNumber":59,"Velocity":77,"Duration":103298,"SoundDuration":103298,"Delta":302051580},{"NoteNumber":35,"Velocity":60,"Duration":103298,"SoundDuration":103298,"Delta":302051580},{"NoteNumber":71,"Velocity":73,"Duration":103298,"SoundDuration":103298,"Delta":302154879},{"NoteNumber":47,"Velocity":41,"Duration":103298,"SoundDuration":103298,"Delta":302154879},{"NoteNumber":64,"Velocity":88,"Duration":103298,"SoundDuration":103298,"Delta":302258178},{"NoteNumber":40,"Velocity":72,"Duration":103298,"SoundDuration":103298,"Delta":302258178},{"NoteNumber":76,"Velocity":85,"Duration":103298,"SoundDuration":103298,"Delta":302361476},{"NoteNumber":52,"Velocity":45,"Duration":103298,"SoundDuration":103298,"Delta":302361476},{"NoteNumber":64,"Velocity":83,"Duration":103298,"SoundDuration":103298,"Delta":302464775},{"NoteNumber":40,"Velocity":61,"Duration":103298,"SoundDuration":103298,"Delta":302464775},{"NoteNumber":76,"Velocity":80,"Duration":102807,"SoundDuration":102807,"Delta":302568074},{"NoteNumber":52,"Velocity":45,"Duration":102807,"SoundDuration":102807,"Delta":302568074},{"NoteNumber":68,"Velocity":91,"Duration":102930,"SoundDuration":102930,"Delta":302670881},{"NoteNumber":44,"Velocity":77,"Duration":102930,"SoundDuration":102930,"Delta":302670881},{"NoteNumber":80,"Velocity":88,"Duration":102686,"SoundDuration":102686,"Delta":302773811},{"NoteNumber":56,"Velocity":49,"Duration":102686,"SoundDuration":102686,"Delta":302773811},{"NoteNumber":68,"Velocity":86,"Duration":102440,"SoundDuration":102440,"Delta":302876497},{"NoteNumber":44,"Velocity":66,"Duration":102440,"SoundDuration":102440,"Delta":302876497},{"NoteNumber":80,"Velocity":83,"Duration":102193,"SoundDuration":102193,"Delta":302978938},{"NoteNumber":56,"Velocity":51,"Duration":102193,"SoundDuration":102193,"Delta":302978938},{"NoteNumber":71,"Velocity":94,"Duration":101832,"SoundDuration":101832,"Delta":303081132},{"NoteNumber":47,"Velocity":79,"Duration":101832,"SoundDuration":101832,"Delta":303081132},{"NoteNumber":83,"Velocity":91,"Duration":101589,"SoundDuration":101589,"Delta":303182965},{"NoteNumber":59,"Velocity":53,"Duration":101589,"SoundDuration":101589,"Delta":303182965},{"NoteNumber":71,"Velocity":88,"Duration":101349,"SoundDuration":101349,"Delta":303284554},{"NoteNumber":47,"Velocity":72,"Duration":101349,"SoundDuration":101349,"Delta":303284554},{"NoteNumber":83,"Velocity":84,"Duration":101112,"SoundDuration":101112,"Delta":303385904},{"NoteNumber":59,"Velocity":55,"Duration":101112,"SoundDuration":101112,"Delta":303385904},{"NoteNumber":76,"Velocity":102,"Duration":101979,"SoundDuration":101979,"Delta":303487016},{"NoteNumber":52,"Velocity":88,"Duration":101979,"SoundDuration":101979,"Delta":303487016},{"NoteNumber":88,"Velocity":96,"Duration":104561,"SoundDuration":104561,"Delta":303588996},{"NoteNumber":64,"Velocity":57,"Duration":104561,"SoundDuration":104561,"Delta":303588996},{"NoteNumber":76,"Velocity":90,"Duration":104941,"SoundDuration":104941,"Delta":303693557},{"NoteNumber":52,"Velocity":74,"Duration":104941,"SoundDuration":104941,"Delta":303693557},{"NoteNumber":88,"Velocity":84,"Duration":107733,"SoundDuration":107733,"Delta":303798499},{"NoteNumber":64,"Velocity":57,"Duration":107733,"SoundDuration":107733,"Delta":303798499},{"NoteNumber":71,"Velocity":82,"Duration":113538,"SoundDuration":113538,"Delta":303906233},{"NoteNumber":47,"Velocity":73,"Duration":113538,"SoundDuration":113538,"Delta":303906233},{"NoteNumber":83,"Velocity":71,"Duration":117044,"SoundDuration":117044,"Delta":304019771},{"NoteNumber":59,"Velocity":48,"Duration":117044,"SoundDuration":117044,"Delta":304019771},{"NoteNumber":71,"Velocity":68,"Duration":119872,"SoundDuration":119872,"Delta":304136815},{"NoteNumber":47,"Velocity":58,"Duration":119872,"SoundDuration":119872,"Delta":304136815},{"NoteNumber":83,"Velocity":64,"Duration":172552,"SoundDuration":172552,"Delta":304256688},{"NoteNumber":59,"Velocity":47,"Duration":172552,"SoundDuration":172552,"Delta":304256688},{"NoteNumber":64,"Velocity":35,"Duration":1925363,"SoundDuration":1925363,"Delta":304429241},{"NoteNumber":56,"Velocity":35,"Duration":1925363,"SoundDuration":1925363,"Delta":304429241},{"NoteNumber":68,"Velocity":35,"Duration":1925363,"SoundDuration":1925363,"Delta":304429241},{"NoteNumber":35,"Velocity":28,"Duration":3850291,"SoundDuration":3850291,"Delta":304429241},{"NoteNumber":47,"Velocity":28,"Duration":3850291,"SoundDuration":3850291,"Delta":304429241},{"NoteNumber":63,"Velocity":36,"Duration":1924928,"SoundDuration":1924928,"Delta":306354604},{"NoteNumber":57,"Velocity":36,"Duration":1924928,"SoundDuration":1924928,"Delta":306354604},{"NoteNumber":71,"Velocity":43,"Duration":1924928,"SoundDuration":1924928,"Delta":306354604},{"NoteNumber":56,"Velocity":34,"Duration":985433,"SoundDuration":985433,"Delta":308279532},{"NoteNumber":64,"Velocity":40,"Duration":985433,"SoundDuration":985433,"Delta":308279532},{"NoteNumber":47,"Velocity":20,"Duration":985433,"SoundDuration":985433,"Delta":308279532},{"NoteNumber":40,"Velocity":20,"Duration":985433,"SoundDuration":985433,"Delta":308279532},{"NoteNumber":56,"Velocity":23,"Duration":899743,"SoundDuration":899743,"Delta":309307810},{"NoteNumber":64,"Velocity":27,"Duration":899743,"SoundDuration":899743,"Delta":309307810},{"NoteNumber":40,"Velocity":17,"Duration":899743,"SoundDuration":899743,"Delta":309307810},{"NoteNumber":47,"Velocity":17,"Duration":899743,"SoundDuration":899743,"Delta":309307810},{"NoteNumber":64,"Velocity":39,"Duration":470903,"SoundDuration":470903,"Delta":310336088},{"NoteNumber":56,"Velocity":39,"Duration":470903,"SoundDuration":470903,"Delta":310336088},{"NoteNumber":47,"Velocity":20,"Duration":470903,"SoundDuration":470903,"Delta":310336088},{"NoteNumber":40,"Velocity":20,"Duration":470903,"SoundDuration":470903,"Delta":310336088},{"NoteNumber":56,"Velocity":34,"Duration":461218,"SoundDuration":461218,"Delta":310817011},{"NoteNumber":68,"Velocity":34,"Duration":461218,"SoundDuration":461218,"Delta":310817011},{"NoteNumber":47,"Velocity":16,"Duration":461218,"SoundDuration":461218,"Delta":310817011},{"NoteNumber":40,"Velocity":16,"Duration":461218,"SoundDuration":461218,"Delta":310817011},{"NoteNumber":56,"Velocity":38,"Duration":478966,"SoundDuration":478966,"Delta":311288043},{"NoteNumber":66,"Velocity":38,"Duration":478966,"SoundDuration":478966,"Delta":311288043},{"NoteNumber":40,"Velocity":19,"Duration":478966,"SoundDuration":478966,"Delta":311288043},{"NoteNumber":47,"Velocity":19,"Duration":478966,"SoundDuration":478966,"Delta":311288043},{"NoteNumber":56,"Velocity":35,"Duration":490851,"SoundDuration":490851,"Delta":311777200},{"NoteNumber":68,"Velocity":35,"Duration":490851,"SoundDuration":490851,"Delta":311777200},{"NoteNumber":40,"Velocity":15,"Duration":490851,"SoundDuration":490851,"Delta":311777200},{"NoteNumber":47,"Velocity":15,"Duration":490851,"SoundDuration":490851,"Delta":311777200},{"NoteNumber":57,"Velocity":39,"Duration":944792,"SoundDuration":944792,"Delta":312278495},{"NoteNumber":61,"Velocity":39,"Duration":944792,"SoundDuration":944792,"Delta":312278495},{"NoteNumber":40,"Velocity":23,"Duration":944792,"SoundDuration":944792,"Delta":312278495},{"NoteNumber":49,"Velocity":23,"Duration":944792,"SoundDuration":944792,"Delta":312278495},{"NoteNumber":57,"Velocity":25,"Duration":862636,"SoundDuration":862636,"Delta":313264365},{"NoteNumber":61,"Velocity":25,"Duration":862636,"SoundDuration":862636,"Delta":313264365},{"NoteNumber":40,"Velocity":15,"Duration":862636,"SoundDuration":862636,"Delta":313264365},{"NoteNumber":49,"Velocity":15,"Duration":862636,"SoundDuration":862636,"Delta":313264365},{"NoteNumber":57,"Velocity":38,"Duration":466974,"SoundDuration":466974,"Delta":314250235},{"NoteNumber":61,"Velocity":38,"Duration":466974,"SoundDuration":466974,"Delta":314250235},{"NoteNumber":40,"Velocity":20,"Duration":466974,"SoundDuration":466974,"Delta":314250235},{"NoteNumber":49,"Velocity":20,"Duration":466974,"SoundDuration":466974,"Delta":314250235},{"NoteNumber":57,"Velocity":31,"Duration":461218,"SoundDuration":461218,"Delta":314727145},{"NoteNumber":59,"Velocity":31,"Duration":461218,"SoundDuration":461218,"Delta":314727145},{"NoteNumber":66,"Velocity":31,"Duration":461218,"SoundDuration":461218,"Delta":314727145},{"NoteNumber":40,"Velocity":15,"Duration":461218,"SoundDuration":461218,"Delta":314727145},{"NoteNumber":51,"Velocity":15,"Duration":461218,"SoundDuration":461218,"Delta":314727145},{"NoteNumber":57,"Velocity":37,"Duration":455568,"SoundDuration":455568,"Delta":315198177},{"NoteNumber":59,"Velocity":37,"Duration":455568,"SoundDuration":455568,"Delta":315198177},{"NoteNumber":64,"Velocity":37,"Duration":455568,"SoundDuration":455568,"Delta":315198177},{"NoteNumber":40,"Velocity":19,"Duration":455568,"SoundDuration":455568,"Delta":315198177},{"NoteNumber":49,"Velocity":19,"Duration":455568,"SoundDuration":455568,"Delta":315198177},{"NoteNumber":57,"Velocity":29,"Duration":497165,"SoundDuration":497165,"Delta":315663438},{"NoteNumber":66,"Velocity":29,"Duration":497165,"SoundDuration":497165,"Delta":315663438},{"NoteNumber":59,"Velocity":29,"Duration":497165,"SoundDuration":497165,"Delta":315663438},{"NoteNumber":51,"Velocity":15,"Duration":497165,"SoundDuration":497165,"Delta":315663438},{"NoteNumber":40,"Velocity":15,"Duration":497165,"SoundDuration":497165,"Delta":315663438},{"NoteNumber":56,"Velocity":36,"Duration":944792,"SoundDuration":944792,"Delta":316171181},{"NoteNumber":59,"Velocity":36,"Duration":944792,"SoundDuration":944792,"Delta":316171181},{"NoteNumber":52,"Velocity":23,"Duration":944792,"SoundDuration":944792,"Delta":316171181},{"NoteNumber":40,"Velocity":23,"Duration":944792,"SoundDuration":944792,"Delta":316171181},{"NoteNumber":56,"Velocity":24,"Duration":862636,"SoundDuration":862636,"Delta":317157051},{"NoteNumber":64,"Velocity":29,"Duration":862636,"SoundDuration":862636,"Delta":317157051},{"NoteNumber":40,"Velocity":17,"Duration":862636,"SoundDuration":862636,"Delta":317157051},{"NoteNumber":47,"Velocity":17,"Duration":862636,"SoundDuration":862636,"Delta":317157051},{"NoteNumber":56,"Velocity":46,"Duration":472874,"SoundDuration":472874,"Delta":318142921},{"NoteNumber":64,"Velocity":46,"Duration":472874,"SoundDuration":472874,"Delta":318142921},{"NoteNumber":47,"Velocity":23,"Duration":472874,"SoundDuration":472874,"Delta":318142921},{"NoteNumber":40,"Velocity":23,"Duration":472874,"SoundDuration":472874,"Delta":318142921},{"NoteNumber":56,"Velocity":36,"Duration":472951,"SoundDuration":472951,"Delta":318625857},{"NoteNumber":68,"Velocity":36,"Duration":472951,"SoundDuration":472951,"Delta":318625857},{"NoteNumber":40,"Velocity":18,"Duration":472951,"SoundDuration":472951,"Delta":318625857},{"NoteNumber":47,"Velocity":18,"Duration":472951,"SoundDuration":472951,"Delta":318625857},{"NoteNumber":66,"Velocity":45,"Duration":465052,"SoundDuration":465052,"Delta":319108871},{"NoteNumber":56,"Velocity":45,"Duration":465052,"SoundDuration":465052,"Delta":319108871},{"NoteNumber":40,"Velocity":24,"Duration":465052,"SoundDuration":465052,"Delta":319108871},{"NoteNumber":47,"Velocity":24,"Duration":465052,"SoundDuration":465052,"Delta":319108871},{"NoteNumber":56,"Velocity":39,"Duration":457305,"SoundDuration":457305,"Delta":319583818},{"NoteNumber":68,"Velocity":39,"Duration":457305,"SoundDuration":457305,"Delta":319583818},{"NoteNumber":47,"Velocity":18,"Duration":457305,"SoundDuration":457305,"Delta":319583818},{"NoteNumber":40,"Velocity":18,"Duration":457305,"SoundDuration":457305,"Delta":319583818},{"NoteNumber":57,"Velocity":42,"Duration":944792,"SoundDuration":944792,"Delta":320050853},{"NoteNumber":69,"Velocity":42,"Duration":944792,"SoundDuration":944792,"Delta":320050853},{"NoteNumber":64,"Velocity":42,"Duration":944792,"SoundDuration":944792,"Delta":320050853},{"NoteNumber":40,"Velocity":25,"Duration":944792,"SoundDuration":944792,"Delta":320050853},{"NoteNumber":49,"Velocity":25,"Duration":944792,"SoundDuration":944792,"Delta":320050853},{"NoteNumber":69,"Velocity":37,"Duration":862636,"SoundDuration":862636,"Delta":321036723},{"NoteNumber":57,"Velocity":37,"Duration":862636,"SoundDuration":862636,"Delta":321036723},{"NoteNumber":64,"Velocity":37,"Duration":862636,"SoundDuration":862636,"Delta":321036723},{"NoteNumber":49,"Velocity":19,"Duration":862636,"SoundDuration":862636,"Delta":321036723},{"NoteNumber":40,"Velocity":19,"Duration":862636,"SoundDuration":862636,"Delta":321036723},{"NoteNumber":69,"Velocity":40,"Duration":920256,"SoundDuration":920256,"Delta":322022593},{"NoteNumber":61,"Velocity":40,"Duration":920256,"SoundDuration":920256,"Delta":322022593},{"NoteNumber":73,"Velocity":48,"Duration":920256,"SoundDuration":920256,"Delta":322022593},{"NoteNumber":40,"Velocity":30,"Duration":1925862,"SoundDuration":1925862,"Delta":322022593},{"NoteNumber":49,"Velocity":36,"Duration":484888,"SoundDuration":484888,"Delta":322022593},{"NoteNumber":52,"Velocity":33,"Duration":474946,"SoundDuration":474946,"Delta":322507481},{"NoteNumber":73,"Velocity":48,"Duration":925776,"SoundDuration":925776,"Delta":322982428},{"NoteNumber":61,"Velocity":40,"Duration":472951,"SoundDuration":472951,"Delta":322982428},{"NoteNumber":69,"Velocity":40,"Duration":925776,"SoundDuration":925776,"Delta":322982428},{"NoteNumber":57,"Velocity":37,"Duration":483014,"SoundDuration":483014,"Delta":322982428},{"NoteNumber":61,"Velocity":39,"Duration":483013,"SoundDuration":483013,"Delta":323465442},{"NoteNumber":64,"Velocity":34,"Duration":944792,"SoundDuration":944792,"Delta":323948456},{"NoteNumber":76,"Velocity":40,"Duration":944792,"SoundDuration":944792,"Delta":323948456},{"NoteNumber":68,"Velocity":34,"Duration":944792,"SoundDuration":944792,"Delta":323948456},{"NoteNumber":52,"Velocity":26,"Duration":944792,"SoundDuration":944792,"Delta":323948456},{"NoteNumber":59,"Velocity":26,"Duration":944792,"SoundDuration":944792,"Delta":323948456},{"NoteNumber":68,"Velocity":23,"Duration":856601,"SoundDuration":856601,"Delta":324934326},{"NoteNumber":64,"Velocity":23,"Duration":856601,"SoundDuration":856601,"Delta":324934326},{"NoteNumber":76,"Velocity":27,"Duration":856601,"SoundDuration":856601,"Delta":324934326},{"NoteNumber":59,"Velocity":17,"Duration":856601,"SoundDuration":856601,"Delta":324934326},{"NoteNumber":52,"Velocity":17,"Duration":856601,"SoundDuration":856601,"Delta":324934326},{"NoteNumber":69,"Velocity":38,"Duration":461146,"SoundDuration":461146,"Delta":325912149},{"NoteNumber":78,"Velocity":38,"Duration":461146,"SoundDuration":461146,"Delta":325912149},{"NoteNumber":63,"Velocity":38,"Duration":461146,"SoundDuration":461146,"Delta":325912149},{"NoteNumber":52,"Velocity":22,"Duration":461146,"SoundDuration":461146,"Delta":325912149},{"NoteNumber":59,"Velocity":22,"Duration":461146,"SoundDuration":461146,"Delta":325912149},{"NoteNumber":75,"Velocity":31,"Duration":469024,"SoundDuration":469024,"Delta":326383107},{"NoteNumber":69,"Velocity":31,"Duration":469024,"SoundDuration":469024,"Delta":326383107},{"NoteNumber":66,"Velocity":31,"Duration":469024,"SoundDuration":469024,"Delta":326383107},{"NoteNumber":59,"Velocity":18,"Duration":469024,"SoundDuration":469024,"Delta":326383107},{"NoteNumber":52,"Velocity":18,"Duration":469024,"SoundDuration":469024,"Delta":326383107},{"NoteNumber":71,"Velocity":36,"Duration":457305,"SoundDuration":457305,"Delta":326862111},{"NoteNumber":66,"Velocity":36,"Duration":457305,"SoundDuration":457305,"Delta":326862111},{"NoteNumber":52,"Velocity":20,"Duration":457305,"SoundDuration":457305,"Delta":326862111},{"NoteNumber":63,"Velocity":20,"Duration":457305,"SoundDuration":457305,"Delta":326862111},{"NoteNumber":69,"Velocity":31,"Duration":468949,"SoundDuration":468949,"Delta":327329146},{"NoteNumber":64,"Velocity":31,"Duration":468949,"SoundDuration":468949,"Delta":327329146},{"NoteNumber":61,"Velocity":18,"Duration":468949,"SoundDuration":468949,"Delta":327329146},{"NoteNumber":52,"Velocity":18,"Duration":468949,"SoundDuration":468949,"Delta":327329146},{"NoteNumber":64,"Velocity":29,"Duration":933138,"SoundDuration":933138,"Delta":327808073},{"NoteNumber":68,"Velocity":35,"Duration":933138,"SoundDuration":933138,"Delta":327808073},{"NoteNumber":52,"Velocity":24,"Duration":933138,"SoundDuration":933138,"Delta":327808073},{"NoteNumber":59,"Velocity":24,"Duration":933138,"SoundDuration":933138,"Delta":327808073},{"NoteNumber":64,"Velocity":19,"Duration":846050,"SoundDuration":846050,"Delta":328781783},{"NoteNumber":68,"Velocity":23,"Duration":846050,"SoundDuration":846050,"Delta":328781783},{"NoteNumber":59,"Velocity":15,"Duration":846050,"SoundDuration":846050,"Delta":328781783},{"NoteNumber":52,"Velocity":15,"Duration":846050,"SoundDuration":846050,"Delta":328781783},{"NoteNumber":78,"Velocity":37,"Duration":461146,"SoundDuration":461146,"Delta":329747565},{"NoteNumber":69,"Velocity":37,"Duration":461146,"SoundDuration":461146,"Delta":329747565},{"NoteNumber":63,"Velocity":37,"Duration":461146,"SoundDuration":461146,"Delta":329747565},{"NoteNumber":52,"Velocity":22,"Duration":461146,"SoundDuration":461146,"Delta":329747565},{"NoteNumber":59,"Velocity":22,"Duration":461146,"SoundDuration":461146,"Delta":329747565},{"NoteNumber":66,"Velocity":30,"Duration":465052,"SoundDuration":465052,"Delta":330218523},{"NoteNumber":75,"Velocity":30,"Duration":465052,"SoundDuration":465052,"Delta":330218523},{"NoteNumber":69,"Velocity":30,"Duration":465052,"SoundDuration":465052,"Delta":330218523},{"NoteNumber":59,"Velocity":17,"Duration":465052,"SoundDuration":465052,"Delta":330218523},{"NoteNumber":52,"Velocity":17,"Duration":465052,"SoundDuration":465052,"Delta":330218523},{"NoteNumber":66,"Velocity":35,"Duration":453737,"SoundDuration":453737,"Delta":330693470},{"NoteNumber":71,"Velocity":35,"Duration":453737,"SoundDuration":453737,"Delta":330693470},{"NoteNumber":52,"Velocity":20,"Duration":453737,"SoundDuration":453737,"Delta":330693470},{"NoteNumber":63,"Velocity":20,"Duration":453737,"SoundDuration":453737,"Delta":330693470},{"NoteNumber":64,"Velocity":30,"Duration":472874,"SoundDuration":472874,"Delta":331156862},{"NoteNumber":69,"Velocity":30,"Duration":472874,"SoundDuration":472874,"Delta":331156862},{"NoteNumber":52,"Velocity":18,"Duration":472874,"SoundDuration":472874,"Delta":331156862},{"NoteNumber":61,"Velocity":18,"Duration":472874,"SoundDuration":472874,"Delta":331156862},{"NoteNumber":64,"Velocity":29,"Duration":937016,"SoundDuration":937016,"Delta":331639798},{"NoteNumber":68,"Velocity":35,"Duration":937016,"SoundDuration":937016,"Delta":331639798},{"NoteNumber":59,"Velocity":29,"Duration":937016,"SoundDuration":937016,"Delta":331639798},{"NoteNumber":52,"Velocity":24,"Duration":937016,"SoundDuration":937016,"Delta":331639798},{"NoteNumber":64,"Velocity":19,"Duration":855536,"SoundDuration":855536,"Delta":332617554},{"NoteNumber":68,"Velocity":23,"Duration":855536,"SoundDuration":855536,"Delta":332617554},{"NoteNumber":59,"Velocity":15,"Duration":855536,"SoundDuration":855536,"Delta":332617554},{"NoteNumber":52,"Velocity":15,"Duration":855536,"SoundDuration":855536,"Delta":332617554},{"NoteNumber":64,"Velocity":35,"Duration":466974,"SoundDuration":466974,"Delta":333595310},{"NoteNumber":56,"Velocity":25,"Duration":466974,"SoundDuration":466974,"Delta":333595310},{"NoteNumber":52,"Velocity":25,"Duration":466974,"SoundDuration":466974,"Delta":333595310},{"NoteNumber":64,"Velocity":26,"Duration":477060,"SoundDuration":477060,"Delta":334072220},{"NoteNumber":68,"Velocity":31,"Duration":477060,"SoundDuration":477060,"Delta":334072220},{"NoteNumber":52,"Velocity":23,"Duration":477060,"SoundDuration":477060,"Delta":334072220},{"NoteNumber":59,"Velocity":23,"Duration":477060,"SoundDuration":477060,"Delta":334072220},{"NoteNumber":64,"Velocity":29,"Duration":468949,"SoundDuration":468949,"Delta":334559431},{"NoteNumber":66,"Velocity":35,"Duration":468949,"SoundDuration":468949,"Delta":334559431},{"NoteNumber":57,"Velocity":25,"Duration":468949,"SoundDuration":468949,"Delta":334559431},{"NoteNumber":52,"Velocity":25,"Duration":468949,"SoundDuration":468949,"Delta":334559431},{"NoteNumber":68,"Velocity":33,"Duration":499362,"SoundDuration":499362,"Delta":335038358},{"NoteNumber":64,"Velocity":27,"Duration":499362,"SoundDuration":499362,"Delta":335038358},{"NoteNumber":52,"Velocity":24,"Duration":499362,"SoundDuration":499362,"Delta":335038358},{"NoteNumber":59,"Velocity":24,"Duration":499362,"SoundDuration":499362,"Delta":335038358},{"NoteNumber":64,"Velocity":28,"Duration":937016,"SoundDuration":937016,"Delta":335548345},{"NoteNumber":71,"Velocity":34,"Duration":937016,"SoundDuration":937016,"Delta":335548345},{"NoteNumber":52,"Velocity":25,"Duration":937016,"SoundDuration":937016,"Delta":335548345},{"NoteNumber":61,"Velocity":25,"Duration":937016,"SoundDuration":937016,"Delta":335548345},{"NoteNumber":64,"Velocity":18,"Duration":239502,"SoundDuration":239502,"Delta":336526101},{"NoteNumber":70,"Velocity":24,"Duration":239502,"SoundDuration":239502,"Delta":336526101},{"NoteNumber":61,"Velocity":15,"Duration":239502,"SoundDuration":239502,"Delta":336526101},{"NoteNumber":52,"Velocity":15,"Duration":239502,"SoundDuration":239502,"Delta":336526101},{"NoteNumber":76,"Velocity":41,"Duration":906939,"SoundDuration":906939,"Delta":337484109},{"NoteNumber":83,"Velocity":41,"Duration":906939,"SoundDuration":906939,"Delta":337484109},{"NoteNumber":88,"Velocity":41,"Duration":906939,"SoundDuration":906939,"Delta":337484109},{"NoteNumber":64,"Velocity":22,"Duration":906939,"SoundDuration":906939,"Delta":337484109},{"NoteNumber":72,"Velocity":22,"Duration":906939,"SoundDuration":906939,"Delta":337484109},{"NoteNumber":76,"Velocity":25,"Duration":423598,"SoundDuration":423598,"Delta":338430481},{"NoteNumber":88,"Velocity":25,"Duration":423598,"SoundDuration":423598,"Delta":338430481},{"NoteNumber":81,"Velocity":25,"Duration":423598,"SoundDuration":423598,"Delta":338430481},{"NoteNumber":64,"Velocity":8,"Duration":423598,"SoundDuration":423598,"Delta":338430481},{"NoteNumber":72,"Velocity":9,"Duration":423598,"SoundDuration":423598,"Delta":338430481},{"NoteNumber":64,"Velocity":34,"Duration":906939,"SoundDuration":906939,"Delta":339354695},{"NoteNumber":69,"Velocity":34,"Duration":906939,"SoundDuration":906939,"Delta":339354695},{"NoteNumber":52,"Velocity":25,"Duration":906939,"SoundDuration":906939,"Delta":339354695},{"NoteNumber":59,"Velocity":25,"Duration":906939,"SoundDuration":906939,"Delta":339354695},{"NoteNumber":64,"Velocity":24,"Duration":442620,"SoundDuration":442620,"Delta":340301067},{"NoteNumber":68,"Velocity":24,"Duration":442620,"SoundDuration":442620,"Delta":340301067},{"NoteNumber":52,"Velocity":9,"Duration":442620,"SoundDuration":442620,"Delta":340301067},{"NoteNumber":59,"Velocity":11,"Duration":442620,"SoundDuration":442620,"Delta":340301067},{"NoteNumber":76,"Velocity":42,"Duration":933138,"SoundDuration":933138,"Delta":341266785},{"NoteNumber":88,"Velocity":42,"Duration":933138,"SoundDuration":933138,"Delta":341266785},{"NoteNumber":81,"Velocity":42,"Duration":933138,"SoundDuration":933138,"Delta":341266785},{"NoteNumber":71,"Velocity":22,"Duration":933138,"SoundDuration":933138,"Delta":341266785},{"NoteNumber":64,"Velocity":22,"Duration":933138,"SoundDuration":933138,"Delta":341266785},{"NoteNumber":76,"Velocity":25,"Duration":446283,"SoundDuration":446283,"Delta":342240495},{"NoteNumber":79,"Velocity":25,"Duration":446283,"SoundDuration":446283,"Delta":342240495},{"NoteNumber":88,"Velocity":25,"Duration":446283,"SoundDuration":446283,"Delta":342240495},{"NoteNumber":64,"Velocity":11,"Duration":446283,"SoundDuration":446283,"Delta":342240495},{"NoteNumber":71,"Velocity":11,"Duration":446283,"SoundDuration":446283,"Delta":342240495},{"NoteNumber":60,"Velocity":78,"Duration":910315,"SoundDuration":910315,"Delta":343214205},{"NoteNumber":66,"Velocity":86,"Duration":910315,"SoundDuration":910315,"Delta":343214205},{"NoteNumber":64,"Velocity":86,"Duration":910315,"SoundDuration":910315,"Delta":343214205},{"NoteNumber":54,"Velocity":78,"Duration":910315,"SoundDuration":910315,"Delta":343214205},{"NoteNumber":33,"Velocity":58,"Duration":910315,"SoundDuration":910315,"Delta":343214205},{"NoteNumber":45,"Velocity":64,"Duration":910315,"SoundDuration":910315,"Delta":343214205},{"NoteNumber":54,"Velocity":59,"Duration":444587,"SoundDuration":444587,"Delta":344164099},{"NoteNumber":64,"Velocity":67,"Duration":444587,"SoundDuration":444587,"Delta":344164099},{"NoteNumber":60,"Velocity":59,"Duration":444587,"SoundDuration":444587,"Delta":344164099},{"NoteNumber":66,"Velocity":67,"Duration":444587,"SoundDuration":444587,"Delta":344164099},{"NoteNumber":33,"Velocity":39,"Duration":444587,"SoundDuration":444587,"Delta":344164099},{"NoteNumber":45,"Velocity":44,"Duration":444587,"SoundDuration":444587,"Delta":344164099},{"NoteNumber":73,"Velocity":46,"Duration":459163,"SoundDuration":459163,"Delta":345134109},{"NoteNumber":76,"Velocity":46,"Duration":459163,"SoundDuration":459163,"Delta":345134109},{"NoteNumber":78,"Velocity":55,"Duration":459163,"SoundDuration":459163,"Delta":345134109},{"NoteNumber":64,"Velocity":39,"Duration":459163,"SoundDuration":459163,"Delta":345134109},{"NoteNumber":66,"Velocity":39,"Duration":459163,"SoundDuration":459163,"Delta":345134109},{"NoteNumber":57,"Velocity":39,"Duration":459163,"SoundDuration":459163,"Delta":345134109},{"NoteNumber":76,"Velocity":37,"Duration":450087,"SoundDuration":450087,"Delta":345603042},{"NoteNumber":80,"Velocity":46,"Duration":450087,"SoundDuration":450087,"Delta":345603042},{"NoteNumber":71,"Velocity":37,"Duration":450087,"SoundDuration":450087,"Delta":345603042},{"NoteNumber":64,"Velocity":34,"Duration":450087,"SoundDuration":450087,"Delta":345603042},{"NoteNumber":59,"Velocity":34,"Duration":450087,"SoundDuration":450087,"Delta":345603042},{"NoteNumber":68,"Velocity":34,"Duration":450087,"SoundDuration":450087,"Delta":345603042},{"NoteNumber":81,"Velocity":50,"Duration":449812,"SoundDuration":449812,"Delta":346062706},{"NoteNumber":69,"Velocity":42,"Duration":449812,"SoundDuration":449812,"Delta":346062706},{"NoteNumber":76,"Velocity":42,"Duration":449812,"SoundDuration":449812,"Delta":346062706},{"NoteNumber":64,"Velocity":37,"Duration":449812,"SoundDuration":449812,"Delta":346062706},{"NoteNumber":61,"Velocity":37,"Duration":449812,"SoundDuration":449812,"Delta":346062706},{"NoteNumber":76,"Velocity":37,"Duration":480690,"SoundDuration":480690,"Delta":346522089},{"NoteNumber":80,"Velocity":46,"Duration":480690,"SoundDuration":480690,"Delta":346522089},{"NoteNumber":71,"Velocity":37,"Duration":480690,"SoundDuration":480690,"Delta":346522089},{"NoteNumber":64,"Velocity":36,"Duration":480690,"SoundDuration":480690,"Delta":346522089},{"NoteNumber":59,"Velocity":36,"Duration":480690,"SoundDuration":480690,"Delta":346522089},{"NoteNumber":68,"Velocity":36,"Duration":480690,"SoundDuration":480690,"Delta":346522089},{"NoteNumber":76,"Velocity":50,"Duration":921769,"SoundDuration":921769,"Delta":347013007},{"NoteNumber":71,"Velocity":50,"Duration":921769,"SoundDuration":921769,"Delta":347013007},{"NoteNumber":83,"Velocity":50,"Duration":921769,"SoundDuration":921769,"Delta":347013007},{"NoteNumber":69,"Velocity":36,"Duration":921769,"SoundDuration":921769,"Delta":347013007},{"NoteNumber":66,"Velocity":36,"Duration":921769,"SoundDuration":921769,"Delta":347013007},{"NoteNumber":59,"Velocity":36,"Duration":921769,"SoundDuration":921769,"Delta":347013007},{"NoteNumber":83,"Velocity":26,"Duration":440846,"SoundDuration":440846,"Delta":347974853},{"NoteNumber":71,"Velocity":26,"Duration":440846,"SoundDuration":440846,"Delta":347974853},{"NoteNumber":75,"Velocity":33,"Duration":440846,"SoundDuration":440846,"Delta":347974853},{"NoteNumber":59,"Velocity":17,"Duration":440846,"SoundDuration":440846,"Delta":347974853},{"NoteNumber":69,"Velocity":17,"Duration":440846,"SoundDuration":440846,"Delta":347974853},{"NoteNumber":66,"Velocity":17,"Duration":440846,"SoundDuration":440846,"Delta":347974853},{"NoteNumber":64,"Velocity":30,"Duration":906510,"SoundDuration":906510,"Delta":348946157},{"NoteNumber":68,"Velocity":37,"Duration":906510,"SoundDuration":906510,"Delta":348946157},{"NoteNumber":52,"Velocity":27,"Duration":906510,"SoundDuration":906510,"Delta":348946157},{"NoteNumber":59,"Velocity":27,"Duration":906510,"SoundDuration":906510,"Delta":348946157},{"NoteNumber":68,"Velocity":23,"Duration":433548,"SoundDuration":433548,"Delta":349892081},{"NoteNumber":64,"Velocity":23,"Duration":433548,"SoundDuration":433548,"Delta":349892081},{"NoteNumber":52,"Velocity":23,"Duration":433548,"SoundDuration":433548,"Delta":349892081},{"NoteNumber":59,"Velocity":16,"Duration":433548,"SoundDuration":433548,"Delta":349892081},{"NoteNumber":54,"Velocity":79,"Duration":914077,"SoundDuration":914077,"Delta":350856283},{"NoteNumber":66,"Velocity":89,"Duration":914077,"SoundDuration":914077,"Delta":350856283},{"NoteNumber":60,"Velocity":79,"Duration":914077,"SoundDuration":914077,"Delta":350856283},{"NoteNumber":64,"Velocity":89,"Duration":914077,"SoundDuration":914077,"Delta":350856283},{"NoteNumber":33,"Velocity":58,"Duration":914077,"SoundDuration":914077,"Delta":350856283},{"NoteNumber":45,"Velocity":64,"Duration":914077,"SoundDuration":914077,"Delta":350856283},{"NoteNumber":54,"Velocity":59,"Duration":428615,"SoundDuration":428615,"Delta":351810103},{"NoteNumber":60,"Velocity":59,"Duration":428615,"SoundDuration":428615,"Delta":351810103},{"NoteNumber":66,"Velocity":67,"Duration":428615,"SoundDuration":428615,"Delta":351810103},{"NoteNumber":64,"Velocity":67,"Duration":428615,"SoundDuration":428615,"Delta":351810103},{"NoteNumber":45,"Velocity":48,"Duration":428615,"SoundDuration":428615,"Delta":351810103},{"NoteNumber":33,"Velocity":42,"Duration":428615,"SoundDuration":428615,"Delta":351810103},{"NoteNumber":76,"Velocity":46,"Duration":457839,"SoundDuration":457839,"Delta":352745265},{"NoteNumber":78,"Velocity":55,"Duration":457839,"SoundDuration":457839,"Delta":352745265},{"NoteNumber":73,"Velocity":46,"Duration":457839,"SoundDuration":457839,"Delta":352745265},{"NoteNumber":64,"Velocity":39,"Duration":457839,"SoundDuration":457839,"Delta":352745265},{"NoteNumber":66,"Velocity":39,"Duration":457839,"SoundDuration":457839,"Delta":352745265},{"NoteNumber":57,"Velocity":39,"Duration":457839,"SoundDuration":457839,"Delta":352745265},{"NoteNumber":71,"Velocity":41,"Duration":461146,"SoundDuration":461146,"Delta":353212846},{"NoteNumber":80,"Velocity":49,"Duration":461146,"SoundDuration":461146,"Delta":353212846},{"NoteNumber":76,"Velocity":41,"Duration":461146,"SoundDuration":461146,"Delta":353212846},{"NoteNumber":59,"Velocity":36,"Duration":461146,"SoundDuration":461146,"Delta":353212846},{"NoteNumber":68,"Velocity":36,"Duration":461146,"SoundDuration":461146,"Delta":353212846},{"NoteNumber":64,"Velocity":36,"Duration":461146,"SoundDuration":461146,"Delta":353212846},{"NoteNumber":69,"Velocity":44,"Duration":451679,"SoundDuration":451679,"Delta":353683804},{"NoteNumber":76,"Velocity":44,"Duration":451679,"SoundDuration":451679,"Delta":353683804},{"NoteNumber":81,"Velocity":53,"Duration":451679,"SoundDuration":451679,"Delta":353683804},{"NoteNumber":61,"Velocity":39,"Duration":451679,"SoundDuration":451679,"Delta":353683804},{"NoteNumber":64,"Velocity":39,"Duration":451679,"SoundDuration":451679,"Delta":353683804},{"NoteNumber":71,"Velocity":39,"Duration":482665,"SoundDuration":482665,"Delta":354145094},{"NoteNumber":76,"Velocity":39,"Duration":482665,"SoundDuration":482665,"Delta":354145094},{"NoteNumber":80,"Velocity":47,"Duration":482665,"SoundDuration":482665,"Delta":354145094},{"NoteNumber":68,"Velocity":36,"Duration":482665,"SoundDuration":482665,"Delta":354145094},{"NoteNumber":59,"Velocity":36,"Duration":482665,"SoundDuration":482665,"Delta":354145094},{"NoteNumber":64,"Velocity":36,"Duration":482665,"SoundDuration":482665,"Delta":354145094},{"NoteNumber":83,"Velocity":50,"Duration":933138,"SoundDuration":933138,"Delta":354638029},{"NoteNumber":71,"Velocity":42,"Duration":933138,"SoundDuration":933138,"Delta":354638029},{"NoteNumber":76,"Velocity":50,"Duration":933138,"SoundDuration":933138,"Delta":354638029},{"NoteNumber":69,"Velocity":36,"Duration":933138,"SoundDuration":933138,"Delta":354638029},{"NoteNumber":59,"Velocity":36,"Duration":933138,"SoundDuration":933138,"Delta":354638029},{"NoteNumber":66,"Velocity":36,"Duration":933138,"SoundDuration":933138,"Delta":354638029},{"NoteNumber":71,"Velocity":26,"Duration":446283,"SoundDuration":446283,"Delta":355611739},{"NoteNumber":83,"Velocity":27,"Duration":446283,"SoundDuration":446283,"Delta":355611739},{"NoteNumber":75,"Velocity":33,"Duration":446283,"SoundDuration":446283,"Delta":355611739},{"NoteNumber":66,"Velocity":17,"Duration":446283,"SoundDuration":446283,"Delta":355611739},{"NoteNumber":69,"Velocity":17,"Duration":446283,"SoundDuration":446283,"Delta":355611739},{"NoteNumber":59,"Velocity":17,"Duration":446283,"SoundDuration":446283,"Delta":355611739},{"NoteNumber":64,"Velocity":104,"Duration":910315,"SoundDuration":910315,"Delta":356585449},{"NoteNumber":52,"Velocity":104,"Duration":910315,"SoundDuration":910315,"Delta":356585449},{"NoteNumber":40,"Velocity":86,"Duration":910315,"SoundDuration":910315,"Delta":356585449},{"NoteNumber":52,"Velocity":74,"Duration":444587,"SoundDuration":444587,"Delta":357535343},{"NoteNumber":64,"Velocity":83,"Duration":444587,"SoundDuration":444587,"Delta":357535343},{"NoteNumber":40,"Velocity":70,"Duration":444587,"SoundDuration":444587,"Delta":357535343},{"NoteNumber":56,"Velocity":36,"Duration":466213,"SoundDuration":466213,"Delta":358505353},{"NoteNumber":59,"Velocity":36,"Duration":466213,"SoundDuration":466213,"Delta":358505353},{"NoteNumber":40,"Velocity":22,"Duration":466213,"SoundDuration":466213,"Delta":358505353},{"NoteNumber":47,"Velocity":22,"Duration":466213,"SoundDuration":466213,"Delta":358505353},{"NoteNumber":56,"Velocity":30,"Duration":459163,"SoundDuration":459163,"Delta":358981461},{"NoteNumber":68,"Velocity":30,"Duration":459163,"SoundDuration":459163,"Delta":358981461},{"NoteNumber":47,"Velocity":17,"Duration":459163,"SoundDuration":459163,"Delta":358981461},{"NoteNumber":40,"Velocity":17,"Duration":459163,"SoundDuration":459163,"Delta":358981461},{"NoteNumber":66,"Velocity":37,"Duration":457448,"SoundDuration":457448,"Delta":359450394},{"NoteNumber":56,"Velocity":37,"Duration":457448,"SoundDuration":457448,"Delta":359450394},{"NoteNumber":40,"Velocity":20,"Duration":457448,"SoundDuration":457448,"Delta":359450394},{"NoteNumber":47,"Velocity":20,"Duration":457448,"SoundDuration":457448,"Delta":359450394},{"NoteNumber":56,"Velocity":30,"Duration":495070,"SoundDuration":495070,"Delta":359917575},{"NoteNumber":68,"Velocity":30,"Duration":495070,"SoundDuration":495070,"Delta":359917575},{"NoteNumber":40,"Velocity":16,"Duration":495070,"SoundDuration":495070,"Delta":359917575},{"NoteNumber":47,"Velocity":16,"Duration":495070,"SoundDuration":495070,"Delta":359917575},{"NoteNumber":71,"Velocity":39,"Duration":885705,"SoundDuration":885705,"Delta":360423179},{"NoteNumber":68,"Velocity":39,"Duration":885705,"SoundDuration":885705,"Delta":360423179},{"NoteNumber":60,"Velocity":24,"Duration":885705,"SoundDuration":885705,"Delta":360423179},{"NoteNumber":48,"Velocity":16,"Duration":885705,"SoundDuration":885705,"Delta":360423179},{"NoteNumber":40,"Velocity":16,"Duration":885705,"SoundDuration":885705,"Delta":360423179},{"NoteNumber":69,"Velocity":23,"Duration":237567,"SoundDuration":237567,"Delta":361347393},{"NoteNumber":60,"Velocity":22,"Duration":237567,"SoundDuration":237567,"Delta":361347393},{"NoteNumber":66,"Velocity":23,"Duration":237567,"SoundDuration":237567,"Delta":361347393},{"NoteNumber":40,"Velocity":8,"Duration":237567,"SoundDuration":237567,"Delta":361347393},{"NoteNumber":48,"Velocity":8,"Duration":237567,"SoundDuration":237567,"Delta":361347393},{"NoteNumber":59,"Velocity":29,"Duration":896196,"SoundDuration":896196,"Delta":362297663},{"NoteNumber":68,"Velocity":39,"Duration":896196,"SoundDuration":896196,"Delta":362297663},{"NoteNumber":71,"Velocity":39,"Duration":896196,"SoundDuration":896196,"Delta":362297663},{"NoteNumber":40,"Velocity":23,"Duration":896196,"SoundDuration":896196,"Delta":362297663},{"NoteNumber":51,"Velocity":23,"Duration":896196,"SoundDuration":896196,"Delta":362297663},{"NoteNumber":59,"Velocity":19,"Duration":244438,"SoundDuration":244438,"Delta":363232825},{"NoteNumber":66,"Velocity":23,"Duration":244438,"SoundDuration":244438,"Delta":363232825},{"NoteNumber":69,"Velocity":23,"Duration":244438,"SoundDuration":244438,"Delta":363232825},{"NoteNumber":40,"Velocity":9,"Duration":244438,"SoundDuration":244438,"Delta":363232825},{"NoteNumber":51,"Velocity":9,"Duration":244438,"SoundDuration":244438,"Delta":363232825},{"NoteNumber":64,"Velocity":105,"Duration":917870,"SoundDuration":917870,"Delta":364210581},{"NoteNumber":76,"Velocity":105,"Duration":917870,"SoundDuration":917870,"Delta":364210581},{"NoteNumber":40,"Velocity":86,"Duration":917870,"SoundDuration":917870,"Delta":364210581},{"NoteNumber":52,"Velocity":86,"Duration":917870,"SoundDuration":917870,"Delta":364210581},{"NoteNumber":64,"Velocity":61,"Duration":448393,"SoundDuration":448393,"Delta":365168359},{"NoteNumber":76,"Velocity":69,"Duration":448393,"SoundDuration":448393,"Delta":365168359},{"NoteNumber":52,"Velocity":66,"Duration":448393,"SoundDuration":448393,"Delta":365168359},{"NoteNumber":40,"Velocity":59,"Duration":448393,"SoundDuration":448393,"Delta":365168359},{"NoteNumber":56,"Velocity":38,"Duration":466974,"SoundDuration":466974,"Delta":366146673},{"NoteNumber":59,"Velocity":38,"Duration":466974,"SoundDuration":466974,"Delta":366146673},{"NoteNumber":40,"Velocity":25,"Duration":466974,"SoundDuration":466974,"Delta":366146673},{"NoteNumber":47,"Velocity":25,"Duration":466974,"SoundDuration":466974,"Delta":366146673},{"NoteNumber":68,"Velocity":31,"Duration":461146,"SoundDuration":461146,"Delta":366623583},{"NoteNumber":56,"Velocity":31,"Duration":461146,"SoundDuration":461146,"Delta":366623583},{"NoteNumber":47,"Velocity":18,"Duration":461146,"SoundDuration":461146,"Delta":366623583},{"NoteNumber":40,"Velocity":18,"Duration":461146,"SoundDuration":461146,"Delta":366623583},{"NoteNumber":56,"Velocity":38,"Duration":455390,"SoundDuration":455390,"Delta":367094541},{"NoteNumber":66,"Velocity":38,"Duration":455390,"SoundDuration":455390,"Delta":367094541},{"NoteNumber":47,"Velocity":25,"Duration":455390,"SoundDuration":455390,"Delta":367094541},{"NoteNumber":40,"Velocity":25,"Duration":455390,"SoundDuration":455390,"Delta":367094541},{"NoteNumber":56,"Velocity":31,"Duration":495070,"SoundDuration":495070,"Delta":367559621},{"NoteNumber":68,"Velocity":31,"Duration":495070,"SoundDuration":495070,"Delta":367559621},{"NoteNumber":40,"Velocity":17,"Duration":495070,"SoundDuration":495070,"Delta":367559621},{"NoteNumber":47,"Velocity":17,"Duration":495070,"SoundDuration":495070,"Delta":367559621},{"NoteNumber":61,"Velocity":37,"Duration":870157,"SoundDuration":870157,"Delta":368065225},{"NoteNumber":73,"Velocity":44,"Duration":870157,"SoundDuration":870157,"Delta":368065225},{"NoteNumber":69,"Velocity":44,"Duration":870157,"SoundDuration":870157,"Delta":368065225},{"NoteNumber":45,"Velocity":24,"Duration":870157,"SoundDuration":870157,"Delta":368065225},{"NoteNumber":40,"Velocity":24,"Duration":870157,"SoundDuration":870157,"Delta":368065225},{"NoteNumber":61,"Velocity":19,"Duration":234063,"SoundDuration":234063,"Delta":368973215},{"NoteNumber":69,"Velocity":23,"Duration":234063,"SoundDuration":234063,"Delta":368973215},{"NoteNumber":66,"Velocity":23,"Duration":234063,"SoundDuration":234063,"Delta":368973215},{"NoteNumber":40,"Velocity":12,"Duration":234063,"SoundDuration":234063,"Delta":368973215},{"NoteNumber":49,"Velocity":16,"Duration":234063,"SoundDuration":234063,"Delta":368973215},{"NoteNumber":59,"Velocity":35,"Duration":870157,"SoundDuration":870157,"Delta":369909471},{"NoteNumber":71,"Velocity":41,"Duration":870157,"SoundDuration":870157,"Delta":369909471},{"NoteNumber":68,"Velocity":41,"Duration":870157,"SoundDuration":870157,"Delta":369909471},{"NoteNumber":47,"Velocity":25,"Duration":870157,"SoundDuration":870157,"Delta":369909471},{"NoteNumber":40,"Velocity":25,"Duration":870157,"SoundDuration":870157,"Delta":369909471},{"NoteNumber":69,"Velocity":25,"Duration":231081,"SoundDuration":231081,"Delta":370817461},{"NoteNumber":59,"Velocity":24,"Duration":231081,"SoundDuration":231081,"Delta":370817461},{"NoteNumber":66,"Velocity":25,"Duration":231081,"SoundDuration":231081,"Delta":370817461},{"NoteNumber":51,"Velocity":18,"Duration":231081,"SoundDuration":231081,"Delta":370817461},{"NoteNumber":40,"Velocity":14,"Duration":231081,"SoundDuration":231081,"Delta":370817461},{"NoteNumber":64,"Velocity":35,"Duration":850906,"SoundDuration":850906,"Delta":371739999},{"NoteNumber":69,"Velocity":41,"Duration":850906,"SoundDuration":850906,"Delta":371739999},{"NoteNumber":59,"Velocity":35,"Duration":850906,"SoundDuration":850906,"Delta":371739999},{"NoteNumber":52,"Velocity":25,"Duration":850906,"SoundDuration":850906,"Delta":371739999},{"NoteNumber":40,"Velocity":25,"Duration":850906,"SoundDuration":850906,"Delta":371739999},{"NoteNumber":64,"Velocity":23,"Duration":220345,"SoundDuration":220345,"Delta":372627901},{"NoteNumber":67,"Velocity":25,"Duration":220345,"SoundDuration":220345,"Delta":372627901},{"NoteNumber":59,"Velocity":23,"Duration":220345,"SoundDuration":220345,"Delta":372627901},{"NoteNumber":52,"Velocity":12,"Duration":220345,"SoundDuration":220345,"Delta":372627901},{"NoteNumber":40,"Velocity":4,"Duration":220345,"SoundDuration":220345,"Delta":372627901},{"NoteNumber":60,"Velocity":36,"Duration":850906,"SoundDuration":850906,"Delta":373509281},{"NoteNumber":67,"Velocity":42,"Duration":850906,"SoundDuration":850906,"Delta":373509281},{"NoteNumber":57,"Velocity":36,"Duration":850906,"SoundDuration":850906,"Delta":373509281},{"NoteNumber":45,"Velocity":25,"Duration":850906,"SoundDuration":850906,"Delta":373509281},{"NoteNumber":48,"Velocity":25,"Duration":850906,"SoundDuration":850906,"Delta":373509281},{"NoteNumber":65,"Velocity":25,"Duration":217943,"SoundDuration":217943,"Delta":374397183},{"NoteNumber":60,"Velocity":23,"Duration":217943,"SoundDuration":217943,"Delta":374397183},{"NoteNumber":57,"Velocity":24,"Duration":217943,"SoundDuration":217943,"Delta":374397183},{"NoteNumber":48,"Velocity":12,"Duration":217943,"SoundDuration":217943,"Delta":374397183},{"NoteNumber":45,"Velocity":12,"Duration":217943,"SoundDuration":217943,"Delta":374397183},{"NoteNumber":55,"Velocity":36,"Duration":860456,"SoundDuration":860456,"Delta":375268959},{"NoteNumber":60,"Velocity":36,"Duration":860456,"SoundDuration":860456,"Delta":375268959},{"NoteNumber":65,"Velocity":42,"Duration":860456,"SoundDuration":860456,"Delta":375268959},{"NoteNumber":48,"Velocity":25,"Duration":860456,"SoundDuration":860456,"Delta":375268959},{"NoteNumber":60,"Velocity":23,"Duration":221157,"SoundDuration":221157,"Delta":376166827},{"NoteNumber":55,"Velocity":23,"Duration":221157,"SoundDuration":221157,"Delta":376166827},{"NoteNumber":64,"Velocity":25,"Duration":221157,"SoundDuration":221157,"Delta":376166827},{"NoteNumber":48,"Velocity":14,"Duration":221157,"SoundDuration":221157,"Delta":376166827},{"NoteNumber":57,"Velocity":36,"Duration":860456,"SoundDuration":860456,"Delta":377051457},{"NoteNumber":53,"Velocity":36,"Duration":860456,"SoundDuration":860456,"Delta":377051457},{"NoteNumber":64,"Velocity":42,"Duration":860456,"SoundDuration":860456,"Delta":377051457},{"NoteNumber":38,"Velocity":25,"Duration":860456,"SoundDuration":860456,"Delta":377051457},{"NoteNumber":50,"Velocity":25,"Duration":860456,"SoundDuration":860456,"Delta":377051457},{"NoteNumber":57,"Velocity":25,"Duration":224467,"SoundDuration":224467,"Delta":377949325},{"NoteNumber":62,"Velocity":29,"Duration":224467,"SoundDuration":224467,"Delta":377949325},{"NoteNumber":53,"Velocity":25,"Duration":224467,"SoundDuration":224467,"Delta":377949325},{"NoteNumber":38,"Velocity":15,"Duration":224467,"SoundDuration":224467,"Delta":377949325},{"NoteNumber":50,"Velocity":15,"Duration":224467,"SoundDuration":224467,"Delta":377949325},{"NoteNumber":52,"Velocity":35,"Duration":897245,"SoundDuration":897245,"Delta":378847193},{"NoteNumber":62,"Velocity":41,"Duration":897245,"SoundDuration":897245,"Delta":378847193},{"NoteNumber":57,"Velocity":35,"Duration":897245,"SoundDuration":897245,"Delta":378847193},{"NoteNumber":40,"Velocity":24,"Duration":897245,"SoundDuration":897245,"Delta":378847193},{"NoteNumber":45,"Velocity":24,"Duration":936256,"SoundDuration":936256,"Delta":378847193},{"NoteNumber":57,"Velocity":20,"Duration":242561,"SoundDuration":242561,"Delta":379783449},{"NoteNumber":60,"Velocity":25,"Duration":242561,"SoundDuration":242561,"Delta":379783449},{"NoteNumber":52,"Velocity":39,"Duration":970245,"SoundDuration":970245,"Delta":379783449},{"NoteNumber":40,"Velocity":12,"Duration":242561,"SoundDuration":242561,"Delta":379783449},{"NoteNumber":51,"Velocity":37,"Duration":934362,"SoundDuration":934362,"Delta":380753695},{"NoteNumber":52,"Velocity":35,"Duration":238720,"SoundDuration":238720,"Delta":381688057},{"NoteNumber":57,"Velocity":29,"Duration":933592,"SoundDuration":933592,"Delta":384552703},{"NoteNumber":59,"Velocity":41,"Duration":933592,"SoundDuration":933592,"Delta":384552703},{"NoteNumber":40,"Velocity":19,"Duration":933592,"SoundDuration":933592,"Delta":384552703},{"NoteNumber":47,"Velocity":33,"Duration":974183,"SoundDuration":974183,"Delta":384552703},{"NoteNumber":59,"Velocity":25,"Duration":437654,"SoundDuration":437654,"Delta":385526887},{"NoteNumber":56,"Velocity":25,"Duration":437654,"SoundDuration":437654,"Delta":385526887},{"NoteNumber":40,"Velocity":9,"Duration":437654,"SoundDuration":437654,"Delta":385526887},{"NoteNumber":52,"Velocity":39,"Duration":954881,"SoundDuration":954881,"Delta":385526887},{"NoteNumber":51,"Velocity":37,"Duration":938159,"SoundDuration":938159,"Delta":386481769},{"NoteNumber":52,"Velocity":35,"Duration":243545,"SoundDuration":243545,"Delta":387419929},{"NoteNumber":60,"Velocity":36,"Duration":912349,"SoundDuration":912349,"Delta":390342481},{"NoteNumber":41,"Velocity":22,"Duration":114915,"SoundDuration":114915,"Delta":390342481},{"NoteNumber":48,"Velocity":14,"Duration":114764,"SoundDuration":114764,"Delta":390457397},{"NoteNumber":41,"Velocity":17,"Duration":114460,"SoundDuration":114460,"Delta":390572161},{"NoteNumber":48,"Velocity":15,"Duration":114152,"SoundDuration":114152,"Delta":390686621},{"NoteNumber":41,"Velocity":18,"Duration":113998,"SoundDuration":113998,"Delta":390800774},{"NoteNumber":48,"Velocity":14,"Duration":113550,"SoundDuration":113550,"Delta":390914773},{"NoteNumber":41,"Velocity":18,"Duration":113401,"SoundDuration":113401,"Delta":391028323},{"NoteNumber":48,"Velocity":13,"Duration":113105,"SoundDuration":113105,"Delta":391141725},{"NoteNumber":57,"Velocity":33,"Duration":890723,"SoundDuration":890723,"Delta":391254830},{"NoteNumber":69,"Velocity":33,"Duration":890723,"SoundDuration":890723,"Delta":391254830},{"NoteNumber":41,"Velocity":20,"Duration":111773,"SoundDuration":111773,"Delta":391254830},{"NoteNumber":48,"Velocity":12,"Duration":111773,"SoundDuration":111773,"Delta":391366604},{"NoteNumber":41,"Velocity":18,"Duration":111629,"SoundDuration":111629,"Delta":391478377},{"NoteNumber":48,"Velocity":13,"Duration":111342,"SoundDuration":111342,"Delta":391590007},{"NoteNumber":41,"Velocity":19,"Duration":111341,"SoundDuration":111341,"Delta":391701349},{"NoteNumber":48,"Velocity":12,"Duration":111051,"SoundDuration":111051,"Delta":391812691},{"NoteNumber":41,"Velocity":16,"Duration":110905,"SoundDuration":110905,"Delta":391923742},{"NoteNumber":48,"Velocity":12,"Duration":110905,"SoundDuration":110905,"Delta":392034648},{"NoteNumber":56,"Velocity":40,"Duration":883848,"SoundDuration":883848,"Delta":392145554},{"NoteNumber":68,"Velocity":40,"Duration":883848,"SoundDuration":883848,"Delta":392145554},{"NoteNumber":41,"Velocity":24,"Duration":110480,"SoundDuration":110480,"Delta":392145554},{"NoteNumber":48,"Velocity":14,"Duration":110480,"SoundDuration":110480,"Delta":392256035},{"NoteNumber":41,"Velocity":18,"Duration":110480,"SoundDuration":110480,"Delta":392366516},{"NoteNumber":48,"Velocity":15,"Duration":110480,"SoundDuration":110480,"Delta":392476997},{"NoteNumber":41,"Velocity":20,"Duration":110481,"SoundDuration":110481,"Delta":392587478},{"NoteNumber":48,"Velocity":16,"Duration":110480,"SoundDuration":110480,"Delta":392697959},{"NoteNumber":41,"Velocity":19,"Duration":110480,"SoundDuration":110480,"Delta":392808440},{"NoteNumber":48,"Velocity":15,"Duration":110480,"SoundDuration":110480,"Delta":392918921},{"NoteNumber":57,"Velocity":37,"Duration":888208,"SoundDuration":888208,"Delta":393029402},{"NoteNumber":69,"Velocity":37,"Duration":888208,"SoundDuration":888208,"Delta":393029402},{"NoteNumber":41,"Velocity":21,"Duration":110480,"SoundDuration":110480,"Delta":393029402},{"NoteNumber":48,"Velocity":14,"Duration":110480,"SoundDuration":110480,"Delta":393139883},{"NoteNumber":41,"Velocity":20,"Duration":110480,"SoundDuration":110480,"Delta":393250364},{"NoteNumber":48,"Velocity":15,"Duration":110480,"SoundDuration":110480,"Delta":393360845},{"NoteNumber":41,"Velocity":20,"Duration":110622,"SoundDuration":110622,"Delta":393471326},{"NoteNumber":48,"Velocity":14,"Duration":111051,"SoundDuration":111051,"Delta":393581948},{"NoteNumber":41,"Velocity":18,"Duration":111485,"SoundDuration":111485,"Delta":393692999},{"NoteNumber":48,"Velocity":13,"Duration":113124,"SoundDuration":113124,"Delta":393804485},{"NoteNumber":58,"Velocity":47,"Duration":877064,"SoundDuration":877064,"Delta":393917610},{"NoteNumber":70,"Velocity":47,"Duration":877064,"SoundDuration":877064,"Delta":393917610},{"NoteNumber":41,"Velocity":27,"Duration":109632,"SoundDuration":109632,"Delta":393917610},{"NoteNumber":48,"Velocity":17,"Duration":109633,"SoundDuration":109633,"Delta":394027243},{"NoteNumber":41,"Velocity":22,"Duration":109632,"SoundDuration":109632,"Delta":394136876},{"NoteNumber":48,"Velocity":20,"Duration":109633,"SoundDuration":109633,"Delta":394246509},{"NoteNumber":41,"Velocity":27,"Duration":109632,"SoundDuration":109632,"Delta":394356142},{"NoteNumber":48,"Velocity":20,"Duration":109633,"SoundDuration":109633,"Delta":394465775},{"NoteNumber":41,"Velocity":27,"Duration":109632,"SoundDuration":109632,"Delta":394575408},{"NoteNumber":48,"Velocity":20,"Duration":109633,"SoundDuration":109633,"Delta":394685041},{"NoteNumber":57,"Velocity":45,"Duration":880615,"SoundDuration":880615,"Delta":394794674},{"NoteNumber":69,"Velocity":45,"Duration":880615,"SoundDuration":880615,"Delta":394794674},{"NoteNumber":41,"Velocity":31,"Duration":109632,"SoundDuration":109632,"Delta":394794674},{"NoteNumber":48,"Velocity":19,"Duration":109633,"SoundDuration":109633,"Delta":394904307},{"NoteNumber":41,"Velocity":29,"Duration":109632,"SoundDuration":109632,"Delta":395013940},{"NoteNumber":48,"Velocity":21,"Duration":109633,"SoundDuration":109633,"Delta":395123573},{"NoteNumber":41,"Velocity":33,"Duration":109632,"SoundDuration":109632,"Delta":395233206},{"NoteNumber":48,"Velocity":22,"Duration":110200,"SoundDuration":110200,"Delta":395342839},{"NoteNumber":41,"Velocity":29,"Duration":110764,"SoundDuration":110764,"Delta":395453039},{"NoteNumber":48,"Velocity":21,"Duration":111485,"SoundDuration":111485,"Delta":395563803},{"NoteNumber":62,"Velocity":63,"Duration":869314,"SoundDuration":869314,"Delta":395675289},{"NoteNumber":74,"Velocity":63,"Duration":869314,"SoundDuration":869314,"Delta":395675289},{"NoteNumber":41,"Velocity":37,"Duration":109356,"SoundDuration":109356,"Delta":395675289},{"NoteNumber":48,"Velocity":28,"Duration":109217,"SoundDuration":109217,"Delta":395784645},{"NoteNumber":41,"Velocity":31,"Duration":108938,"SoundDuration":108938,"Delta":395893863},{"NoteNumber":48,"Velocity":31,"Duration":108798,"SoundDuration":108798,"Delta":396002802},{"NoteNumber":41,"Velocity":35,"Duration":108525,"SoundDuration":108525,"Delta":396111600},{"NoteNumber":48,"Velocity":30,"Duration":108389,"SoundDuration":108389,"Delta":396220125},{"NoteNumber":41,"Velocity":36,"Duration":108113,"SoundDuration":108113,"Delta":396328515},{"NoteNumber":48,"Velocity":31,"Duration":107975,"SoundDuration":107975,"Delta":396436628},{"NoteNumber":60,"Velocity":61,"Duration":860519,"SoundDuration":860519,"Delta":396544604},{"NoteNumber":72,"Velocity":61,"Duration":860519,"SoundDuration":860519,"Delta":396544604},{"NoteNumber":41,"Velocity":42,"Duration":107573,"SoundDuration":107573,"Delta":396544604},{"NoteNumber":48,"Velocity":30,"Duration":107573,"SoundDuration":107573,"Delta":396652177},{"NoteNumber":41,"Velocity":42,"Duration":107573,"SoundDuration":107573,"Delta":396759750},{"NoteNumber":48,"Velocity":33,"Duration":107573,"SoundDuration":107573,"Delta":396867324},{"NoteNumber":41,"Velocity":42,"Duration":107573,"SoundDuration":107573,"Delta":396974897},{"NoteNumber":48,"Velocity":32,"Duration":107573,"SoundDuration":107573,"Delta":397082470},{"NoteNumber":41,"Velocity":41,"Duration":107573,"SoundDuration":107573,"Delta":397190043},{"NoteNumber":48,"Velocity":31,"Duration":107506,"SoundDuration":107506,"Delta":397297617},{"NoteNumber":67,"Velocity":77,"Duration":860795,"SoundDuration":860795,"Delta":397405123},{"NoteNumber":79,"Velocity":77,"Duration":860795,"SoundDuration":860795,"Delta":397405123},{"NoteNumber":41,"Velocity":54,"Duration":107173,"SoundDuration":107173,"Delta":397405123},{"NoteNumber":48,"Velocity":39,"Duration":107173,"SoundDuration":107173,"Delta":397512297},{"NoteNumber":41,"Velocity":45,"Duration":107373,"SoundDuration":107373,"Delta":397619470},{"NoteNumber":48,"Velocity":40,"Duration":107573,"SoundDuration":107573,"Delta":397726844},{"NoteNumber":41,"Velocity":52,"Duration":107573,"SoundDuration":107573,"Delta":397834417},{"NoteNumber":48,"Velocity":38,"Duration":107908,"SoundDuration":107908,"Delta":397941990},{"NoteNumber":41,"Velocity":52,"Duration":107975,"SoundDuration":107975,"Delta":398049899},{"NoteNumber":48,"Velocity":42,"Duration":108044,"SoundDuration":108044,"Delta":398157875},{"NoteNumber":65,"Velocity":73,"Duration":861953,"SoundDuration":861953,"Delta":398265919},{"NoteNumber":77,"Velocity":73,"Duration":861953,"SoundDuration":861953,"Delta":398265919},{"NoteNumber":41,"Velocity":57,"Duration":108389,"SoundDuration":108389,"Delta":398265919},{"NoteNumber":48,"Velocity":41,"Duration":108320,"SoundDuration":108320,"Delta":398374309},{"NoteNumber":41,"Velocity":54,"Duration":107975,"SoundDuration":107975,"Delta":398482629},{"NoteNumber":48,"Velocity":45,"Duration":107908,"SoundDuration":107908,"Delta":398590605},{"NoteNumber":41,"Velocity":60,"Duration":107573,"SoundDuration":107573,"Delta":398698513},{"NoteNumber":48,"Velocity":43,"Duration":107506,"SoundDuration":107506,"Delta":398806087},{"NoteNumber":41,"Velocity":57,"Duration":107173,"SoundDuration":107173,"Delta":398913593},{"NoteNumber":48,"Velocity":42,"Duration":107106,"SoundDuration":107106,"Delta":399020767},{"NoteNumber":70,"Velocity":96,"Duration":854153,"SoundDuration":854153,"Delta":399127873},{"NoteNumber":82,"Velocity":96,"Duration":854153,"SoundDuration":854153,"Delta":399127873},{"NoteNumber":41,"Velocity":62,"Duration":106769,"SoundDuration":106769,"Delta":399127873},{"NoteNumber":48,"Velocity":48,"Duration":106769,"SoundDuration":106769,"Delta":399234642},{"NoteNumber":41,"Velocity":57,"Duration":106769,"SoundDuration":106769,"Delta":399341411},{"NoteNumber":48,"Velocity":53,"Duration":106769,"SoundDuration":106769,"Delta":399448181},{"NoteNumber":41,"Velocity":63,"Duration":106769,"SoundDuration":106769,"Delta":399554950},{"NoteNumber":48,"Velocity":49,"Duration":106769,"SoundDuration":106769,"Delta":399661719},{"NoteNumber":41,"Velocity":63,"Duration":106769,"SoundDuration":106769,"Delta":399768488},{"NoteNumber":48,"Velocity":50,"Duration":106769,"SoundDuration":106769,"Delta":399875258},{"NoteNumber":69,"Velocity":93,"Duration":854153,"SoundDuration":854153,"Delta":399982027},{"NoteNumber":81,"Velocity":93,"Duration":854153,"SoundDuration":854153,"Delta":399982027},{"NoteNumber":41,"Velocity":68,"Duration":106769,"SoundDuration":106769,"Delta":399982027},{"NoteNumber":48,"Velocity":48,"Duration":106769,"SoundDuration":106769,"Delta":400088796},{"NoteNumber":41,"Velocity":65,"Duration":106769,"SoundDuration":106769,"Delta":400195565},{"NoteNumber":48,"Velocity":49,"Duration":106769,"SoundDuration":106769,"Delta":400302335},{"NoteNumber":41,"Velocity":69,"Duration":106769,"SoundDuration":106769,"Delta":400409104},{"NoteNumber":48,"Velocity":51,"Duration":106769,"SoundDuration":106769,"Delta":400515873},{"NoteNumber":41,"Velocity":65,"Duration":106769,"SoundDuration":106769,"Delta":400622642},{"NoteNumber":48,"Velocity":48,"Duration":106769,"SoundDuration":106769,"Delta":400729412},{"NoteNumber":86,"Velocity":101,"Duration":877064,"SoundDuration":877064,"Delta":400836181},{"NoteNumber":81,"Velocity":101,"Duration":877064,"SoundDuration":877064,"Delta":400836181},{"NoteNumber":77,"Velocity":90,"Duration":877064,"SoundDuration":877064,"Delta":400836181},{"NoteNumber":74,"Velocity":90,"Duration":877064,"SoundDuration":877064,"Delta":400836181},{"NoteNumber":41,"Velocity":75,"Duration":877064,"SoundDuration":877064,"Delta":400836181},{"NoteNumber":45,"Velocity":75,"Duration":877064,"SoundDuration":877064,"Delta":400836181},{"NoteNumber":50,"Velocity":84,"Duration":877064,"SoundDuration":877064,"Delta":400836181},{"NoteNumber":53,"Velocity":84,"Duration":877064,"SoundDuration":877064,"Delta":400836181},{"NoteNumber":69,"Velocity":76,"Duration":190767,"SoundDuration":190767,"Delta":401713245},{"NoteNumber":81,"Velocity":85,"Duration":190767,"SoundDuration":190767,"Delta":401713245},{"NoteNumber":45,"Velocity":69,"Duration":190767,"SoundDuration":190767,"Delta":401713245},{"NoteNumber":57,"Velocity":77,"Duration":190767,"SoundDuration":190767,"Delta":401713245},{"NoteNumber":88,"Velocity":101,"Duration":873743,"SoundDuration":873743,"Delta":402628927},{"NoteNumber":85,"Velocity":101,"Duration":873743,"SoundDuration":873743,"Delta":402628927},{"NoteNumber":81,"Velocity":90,"Duration":873743,"SoundDuration":873743,"Delta":402628927},{"NoteNumber":76,"Velocity":90,"Duration":873743,"SoundDuration":873743,"Delta":402628927},{"NoteNumber":40,"Velocity":75,"Duration":873743,"SoundDuration":873743,"Delta":402628927},{"NoteNumber":45,"Velocity":75,"Duration":873743,"SoundDuration":873743,"Delta":402628927},{"NoteNumber":49,"Velocity":84,"Duration":873743,"SoundDuration":873743,"Delta":402628927},{"NoteNumber":52,"Velocity":84,"Duration":873743,"SoundDuration":873743,"Delta":402628927},{"NoteNumber":69,"Velocity":76,"Duration":188508,"SoundDuration":188508,"Delta":403502671},{"NoteNumber":81,"Velocity":85,"Duration":188508,"SoundDuration":188508,"Delta":403502671},{"NoteNumber":45,"Velocity":69,"Duration":188508,"SoundDuration":188508,"Delta":403502671},{"NoteNumber":57,"Velocity":77,"Duration":188508,"SoundDuration":188508,"Delta":403502671},{"NoteNumber":89,"Velocity":101,"Duration":873743,"SoundDuration":873743,"Delta":404407511},{"NoteNumber":86,"Velocity":101,"Duration":873743,"SoundDuration":873743,"Delta":404407511},{"NoteNumber":81,"Velocity":90,"Duration":873743,"SoundDuration":873743,"Delta":404407511},{"NoteNumber":77,"Velocity":90,"Duration":873743,"SoundDuration":873743,"Delta":404407511},{"NoteNumber":38,"Velocity":75,"Duration":873743,"SoundDuration":873743,"Delta":404407511},{"NoteNumber":41,"Velocity":75,"Duration":873743,"SoundDuration":873743,"Delta":404407511},{"NoteNumber":45,"Velocity":84,"Duration":873743,"SoundDuration":873743,"Delta":404407511},{"NoteNumber":50,"Velocity":84,"Duration":873743,"SoundDuration":873743,"Delta":404407511},{"NoteNumber":69,"Velocity":76,"Duration":187758,"SoundDuration":187758,"Delta":405281255},{"NoteNumber":81,"Velocity":85,"Duration":187758,"SoundDuration":187758,"Delta":405281255},{"NoteNumber":45,"Velocity":69,"Duration":187758,"SoundDuration":187758,"Delta":405281255},{"NoteNumber":57,"Velocity":77,"Duration":187758,"SoundDuration":187758,"Delta":405281255},{"NoteNumber":88,"Velocity":102,"Duration":872119,"SoundDuration":872119,"Delta":406182495},{"NoteNumber":85,"Velocity":102,"Duration":872119,"SoundDuration":872119,"Delta":406182495},{"NoteNumber":81,"Velocity":91,"Duration":872119,"SoundDuration":872119,"Delta":406182495},{"NoteNumber":76,"Velocity":91,"Duration":872119,"SoundDuration":872119,"Delta":406182495},{"NoteNumber":40,"Velocity":75,"Duration":872119,"SoundDuration":872119,"Delta":406182495},{"NoteNumber":45,"Velocity":75,"Duration":872119,"SoundDuration":872119,"Delta":406182495},{"NoteNumber":49,"Velocity":84,"Duration":872119,"SoundDuration":872119,"Delta":406182495},{"NoteNumber":52,"Velocity":84,"Duration":872119,"SoundDuration":872119,"Delta":406182495},{"NoteNumber":69,"Velocity":76,"Duration":187758,"SoundDuration":187758,"Delta":407054614},{"NoteNumber":81,"Velocity":85,"Duration":187758,"SoundDuration":187758,"Delta":407054614},{"NoteNumber":45,"Velocity":69,"Duration":187758,"SoundDuration":187758,"Delta":407054614},{"NoteNumber":57,"Velocity":77,"Duration":187758,"SoundDuration":187758,"Delta":407054614},{"NoteNumber":69,"Velocity":85,"Duration":225309,"SoundDuration":225309,"Delta":407505234},{"NoteNumber":57,"Velocity":85,"Duration":225309,"SoundDuration":225309,"Delta":407505234},{"NoteNumber":67,"Velocity":73,"Duration":56327,"SoundDuration":56327,"Delta":407843199},{"NoteNumber":55,"Velocity":73,"Duration":56327,"SoundDuration":56327,"Delta":407843199},{"NoteNumber":86,"Velocity":101,"Duration":876811,"SoundDuration":876811,"Delta":407955854},{"NoteNumber":81,"Velocity":101,"Duration":876811,"SoundDuration":876811,"Delta":407955854},{"NoteNumber":77,"Velocity":90,"Duration":876811,"SoundDuration":876811,"Delta":407955854},{"NoteNumber":74,"Velocity":90,"Duration":876811,"SoundDuration":876811,"Delta":407955854},{"NoteNumber":65,"Velocity":87,"Duration":164449,"SoundDuration":164449,"Delta":407955854},{"NoteNumber":53,"Velocity":87,"Duration":164449,"SoundDuration":164449,"Delta":407955854},{"NoteNumber":64,"Velocity":72,"Duration":54816,"SoundDuration":54816,"Delta":408284753},{"NoteNumber":52,"Velocity":72,"Duration":54816,"SoundDuration":54816,"Delta":408284753},{"NoteNumber":50,"Velocity":78,"Duration":164449,"SoundDuration":164449,"Delta":408394386},{"NoteNumber":62,"Velocity":78,"Duration":164449,"SoundDuration":164449,"Delta":408394386},{"NoteNumber":49,"Velocity":72,"Duration":54771,"SoundDuration":54771,"Delta":408723285},{"NoteNumber":61,"Velocity":72,"Duration":54771,"SoundDuration":54771,"Delta":408723285},{"NoteNumber":69,"Velocity":83,"Duration":182921,"SoundDuration":182921,"Delta":408832666},{"NoteNumber":81,"Velocity":93,"Duration":182921,"SoundDuration":182921,"Delta":408832666},{"NoteNumber":50,"Velocity":78,"Duration":164507,"SoundDuration":164507,"Delta":408832666},{"NoteNumber":62,"Velocity":78,"Duration":164507,"SoundDuration":164507,"Delta":408832666},{"NoteNumber":48,"Velocity":70,"Duration":55979,"SoundDuration":55979,"Delta":409163592},{"NoteNumber":60,"Velocity":70,"Duration":55979,"SoundDuration":55979,"Delta":409163592},{"NoteNumber":46,"Velocity":79,"Duration":169935,"SoundDuration":169935,"Delta":409275771},{"NoteNumber":58,"Velocity":79,"Duration":169935,"SoundDuration":169935,"Delta":409275771},{"NoteNumber":45,"Velocity":75,"Duration":59368,"SoundDuration":59368,"Delta":409617760},{"NoteNumber":57,"Velocity":75,"Duration":59368,"SoundDuration":59368,"Delta":409617760},{"NoteNumber":88,"Velocity":104,"Duration":873743,"SoundDuration":873743,"Delta":409734918},{"NoteNumber":85,"Velocity":104,"Duration":873743,"SoundDuration":873743,"Delta":409734918},{"NoteNumber":81,"Velocity":93,"Duration":873743,"SoundDuration":873743,"Delta":409734918},{"NoteNumber":76,"Velocity":93,"Duration":873743,"SoundDuration":873743,"Delta":409734918},{"NoteNumber":43,"Velocity":73,"Duration":163827,"SoundDuration":163827,"Delta":409734918},{"NoteNumber":55,"Velocity":73,"Duration":163827,"SoundDuration":163827,"Delta":409734918},{"NoteNumber":41,"Velocity":69,"Duration":54609,"SoundDuration":54609,"Delta":410062572},{"NoteNumber":53,"Velocity":69,"Duration":54609,"SoundDuration":54609,"Delta":410062572},{"NoteNumber":40,"Velocity":74,"Duration":163827,"SoundDuration":163827,"Delta":410171790},{"NoteNumber":52,"Velocity":74,"Duration":163827,"SoundDuration":163827,"Delta":410171790},{"NoteNumber":38,"Velocity":68,"Duration":54609,"SoundDuration":54609,"Delta":410499444},{"NoteNumber":50,"Velocity":68,"Duration":54609,"SoundDuration":54609,"Delta":410499444},{"NoteNumber":69,"Velocity":84,"Duration":109217,"SoundDuration":109217,"Delta":410608662},{"NoteNumber":81,"Velocity":94,"Duration":109217,"SoundDuration":109217,"Delta":410608662},{"NoteNumber":37,"Velocity":80,"Duration":163827,"SoundDuration":163827,"Delta":410608662},{"NoteNumber":49,"Velocity":80,"Duration":163827,"SoundDuration":163827,"Delta":410608662},{"NoteNumber":34,"Velocity":74,"Duration":54609,"SoundDuration":54609,"Delta":410936316},{"NoteNumber":46,"Velocity":74,"Duration":54609,"SoundDuration":54609,"Delta":410936316},{"NoteNumber":33,"Velocity":84,"Duration":163827,"SoundDuration":163827,"Delta":411045534},{"NoteNumber":45,"Velocity":84,"Duration":163827,"SoundDuration":163827,"Delta":411045534},{"NoteNumber":31,"Velocity":73,"Duration":58157,"SoundDuration":58157,"Delta":411380285},{"NoteNumber":43,"Velocity":73,"Duration":58157,"SoundDuration":58157,"Delta":411380285},{"NoteNumber":89,"Velocity":101,"Duration":893634,"SoundDuration":893634,"Delta":411495530},{"NoteNumber":86,"Velocity":101,"Duration":893634,"SoundDuration":893634,"Delta":411495530},{"NoteNumber":81,"Velocity":90,"Duration":893634,"SoundDuration":893634,"Delta":411495530},{"NoteNumber":77,"Velocity":90,"Duration":893634,"SoundDuration":893634,"Delta":411495530},{"NoteNumber":29,"Velocity":84,"Duration":308927,"SoundDuration":308927,"Delta":411495530},{"NoteNumber":41,"Velocity":84,"Duration":308927,"SoundDuration":308927,"Delta":411495530},{"NoteNumber":67,"Velocity":69,"Duration":54609,"SoundDuration":54609,"Delta":411843074},{"NoteNumber":55,"Velocity":69,"Duration":54609,"SoundDuration":54609,"Delta":411843074},{"NoteNumber":65,"Velocity":76,"Duration":163827,"SoundDuration":163827,"Delta":411952292},{"NoteNumber":53,"Velocity":76,"Duration":163827,"SoundDuration":163827,"Delta":411952292},{"NoteNumber":64,"Velocity":66,"Duration":54609,"SoundDuration":54609,"Delta":412279946},{"NoteNumber":52,"Velocity":66,"Duration":54609,"SoundDuration":54609,"Delta":412279946},{"NoteNumber":69,"Velocity":82,"Duration":110059,"SoundDuration":110059,"Delta":412389164},{"NoteNumber":81,"Velocity":92,"Duration":110059,"SoundDuration":110059,"Delta":412389164},{"NoteNumber":50,"Velocity":77,"Duration":165159,"SoundDuration":165159,"Delta":412389164},{"NoteNumber":62,"Velocity":77,"Duration":165159,"SoundDuration":165159,"Delta":412389164},{"NoteNumber":48,"Velocity":65,"Duration":55452,"SoundDuration":55452,"Delta":412720187},{"NoteNumber":60,"Velocity":65,"Duration":55452,"SoundDuration":55452,"Delta":412720187},{"NoteNumber":46,"Velocity":76,"Duration":167228,"SoundDuration":167228,"Delta":412831238},{"NoteNumber":58,"Velocity":76,"Duration":167228,"SoundDuration":167228,"Delta":412831238},{"NoteNumber":45,"Velocity":67,"Duration":56181,"SoundDuration":56181,"Delta":413166422},{"NoteNumber":57,"Velocity":67,"Duration":56181,"SoundDuration":56181,"Delta":413166422},{"NoteNumber":88,"Velocity":104,"Duration":872539,"SoundDuration":872539,"Delta":413278931},{"NoteNumber":85,"Velocity":104,"Duration":872539,"SoundDuration":872539,"Delta":413278931},{"NoteNumber":81,"Velocity":93,"Duration":872539,"SoundDuration":872539,"Delta":413278931},{"NoteNumber":76,"Velocity":93,"Duration":872539,"SoundDuration":872539,"Delta":413278931},{"NoteNumber":43,"Velocity":74,"Duration":164930,"SoundDuration":164930,"Delta":413278931},{"NoteNumber":55,"Velocity":74,"Duration":164930,"SoundDuration":164930,"Delta":413278931},{"NoteNumber":41,"Velocity":67,"Duration":54399,"SoundDuration":54399,"Delta":413607060},{"NoteNumber":53,"Velocity":67,"Duration":54399,"SoundDuration":54399,"Delta":413607060},{"NoteNumber":40,"Velocity":73,"Duration":163197,"SoundDuration":163197,"Delta":413715858},{"NoteNumber":52,"Velocity":73,"Duration":163197,"SoundDuration":163197,"Delta":413715858},{"NoteNumber":38,"Velocity":67,"Duration":54399,"SoundDuration":54399,"Delta":414042253},{"NoteNumber":50,"Velocity":67,"Duration":54399,"SoundDuration":54399,"Delta":414042253},{"NoteNumber":69,"Velocity":83,"Duration":110200,"SoundDuration":110200,"Delta":414151471},{"NoteNumber":81,"Velocity":93,"Duration":110200,"SoundDuration":110200,"Delta":414151471},{"NoteNumber":37,"Velocity":78,"Duration":165511,"SoundDuration":165511,"Delta":414151471},{"NoteNumber":49,"Velocity":78,"Duration":165511,"SoundDuration":165511,"Delta":414151471},{"NoteNumber":34,"Velocity":72,"Duration":55960,"SoundDuration":55960,"Delta":414483921},{"NoteNumber":46,"Velocity":72,"Duration":55960,"SoundDuration":55960,"Delta":414483921},{"NoteNumber":33,"Velocity":81,"Duration":169061,"SoundDuration":169061,"Delta":414595990},{"NoteNumber":45,"Velocity":81,"Duration":169061,"SoundDuration":169061,"Delta":414595990},{"NoteNumber":31,"Velocity":70,"Duration":57230,"SoundDuration":57230,"Delta":414935602},{"NoteNumber":43,"Velocity":70,"Duration":57230,"SoundDuration":57230,"Delta":414941325},{"NoteNumber":89,"Velocity":105,"Duration":899722,"SoundDuration":899722,"Delta":415050214},{"NoteNumber":84,"Velocity":105,"Duration":899722,"SoundDuration":899722,"Delta":415050214},{"NoteNumber":81,"Velocity":94,"Duration":899722,"SoundDuration":899722,"Delta":415050214},{"NoteNumber":77,"Velocity":94,"Duration":899722,"SoundDuration":899722,"Delta":415050214},{"NoteNumber":29,"Velocity":84,"Duration":312720,"SoundDuration":312720,"Delta":415050214},{"NoteNumber":41,"Velocity":84,"Duration":312720,"SoundDuration":312720,"Delta":415050214},{"NoteNumber":67,"Velocity":71,"Duration":54816,"SoundDuration":54816,"Delta":415402024},{"NoteNumber":55,"Velocity":71,"Duration":54816,"SoundDuration":54816,"Delta":415402024},{"NoteNumber":65,"Velocity":78,"Duration":164449,"SoundDuration":164449,"Delta":415511657},{"NoteNumber":53,"Velocity":78,"Duration":164449,"SoundDuration":164449,"Delta":415511657},{"NoteNumber":64,"Velocity":71,"Duration":54771,"SoundDuration":54771,"Delta":415840556},{"NoteNumber":52,"Velocity":71,"Duration":54771,"SoundDuration":54771,"Delta":415840556},{"NoteNumber":72,"Velocity":82,"Duration":109217,"SoundDuration":109217,"Delta":415949937},{"NoteNumber":84,"Velocity":92,"Duration":109217,"SoundDuration":109217,"Delta":415949937},{"NoteNumber":53,"Velocity":77,"Duration":163871,"SoundDuration":163871,"Delta":415949937},{"NoteNumber":65,"Velocity":77,"Duration":163871,"SoundDuration":163871,"Delta":415949937},{"NoteNumber":52,"Velocity":69,"Duration":54862,"SoundDuration":54862,"Delta":416278258},{"NoteNumber":64,"Velocity":69,"Duration":54862,"SoundDuration":54862,"Delta":416278258},{"NoteNumber":50,"Velocity":76,"Duration":165134,"SoundDuration":165134,"Delta":416388151},{"NoteNumber":62,"Velocity":76,"Duration":165134,"SoundDuration":165134,"Delta":416388151},{"NoteNumber":48,"Velocity":69,"Duration":55286,"SoundDuration":55286,"Delta":416719007},{"NoteNumber":60,"Velocity":69,"Duration":55286,"SoundDuration":55286,"Delta":416719007},{"NoteNumber":91,"Velocity":100,"Duration":873744,"SoundDuration":873744,"Delta":416830931},{"NoteNumber":88,"Velocity":100,"Duration":873744,"SoundDuration":873744,"Delta":416830931},{"NoteNumber":84,"Velocity":90,"Duration":873744,"SoundDuration":873744,"Delta":416830931},{"NoteNumber":79,"Velocity":90,"Duration":873744,"SoundDuration":873744,"Delta":416830931},{"NoteNumber":46,"Velocity":78,"Duration":163827,"SoundDuration":163827,"Delta":416830931},{"NoteNumber":58,"Velocity":78,"Duration":163827,"SoundDuration":163827,"Delta":416830931},{"NoteNumber":45,"Velocity":66,"Duration":54609,"SoundDuration":54609,"Delta":417158585},{"NoteNumber":57,"Velocity":66,"Duration":54609,"SoundDuration":54609,"Delta":417158585},{"NoteNumber":43,"Velocity":72,"Duration":163827,"SoundDuration":163827,"Delta":417267803},{"NoteNumber":55,"Velocity":72,"Duration":163827,"SoundDuration":163827,"Delta":417267803},{"NoteNumber":41,"Velocity":68,"Duration":54609,"SoundDuration":54609,"Delta":417595457},{"NoteNumber":53,"Velocity":68,"Duration":54609,"SoundDuration":54609,"Delta":417595457},{"NoteNumber":72,"Velocity":76,"Duration":109217,"SoundDuration":109217,"Delta":417704675},{"NoteNumber":84,"Velocity":85,"Duration":109217,"SoundDuration":109217,"Delta":417704675},{"NoteNumber":40,"Velocity":74,"Duration":163871,"SoundDuration":163871,"Delta":417704675},{"NoteNumber":52,"Velocity":74,"Duration":163871,"SoundDuration":163871,"Delta":417704675},{"NoteNumber":38,"Velocity":69,"Duration":54862,"SoundDuration":54862,"Delta":418032997},{"NoteNumber":50,"Velocity":69,"Duration":54862,"SoundDuration":54862,"Delta":418032997},{"NoteNumber":36,"Velocity":79,"Duration":165134,"SoundDuration":165134,"Delta":418142889},{"NoteNumber":48,"Velocity":79,"Duration":165134,"SoundDuration":165134,"Delta":418142889},{"NoteNumber":34,"Velocity":71,"Duration":55428,"SoundDuration":55428,"Delta":418473746},{"NoteNumber":46,"Velocity":71,"Duration":55428,"SoundDuration":55428,"Delta":418473746},{"NoteNumber":93,"Velocity":100,"Duration":893634,"SoundDuration":893634,"Delta":418585508},{"NoteNumber":89,"Velocity":100,"Duration":893634,"SoundDuration":893634,"Delta":418585508},{"NoteNumber":84,"Velocity":90,"Duration":893634,"SoundDuration":893634,"Delta":418585508},{"NoteNumber":81,"Velocity":90,"Duration":893634,"SoundDuration":893634,"Delta":418585508},{"NoteNumber":33,"Velocity":85,"Duration":308927,"SoundDuration":308927,"Delta":418585508},{"NoteNumber":45,"Velocity":85,"Duration":308927,"SoundDuration":308927,"Delta":418585508},{"NoteNumber":58,"Velocity":73,"Duration":54609,"SoundDuration":54609,"Delta":418933052},{"NoteNumber":70,"Velocity":73,"Duration":54609,"SoundDuration":54609,"Delta":418933052},{"NoteNumber":57,"Velocity":80,"Duration":163827,"SoundDuration":163827,"Delta":419042270},{"NoteNumber":69,"Velocity":80,"Duration":163827,"SoundDuration":163827,"Delta":419042270},{"NoteNumber":55,"Velocity":71,"Duration":54609,"SoundDuration":54609,"Delta":419369924},{"NoteNumber":67,"Velocity":71,"Duration":54609,"SoundDuration":54609,"Delta":419369924},{"NoteNumber":72,"Velocity":76,"Duration":110905,"SoundDuration":110905,"Delta":419479142},{"NoteNumber":84,"Velocity":85,"Duration":110905,"SoundDuration":110905,"Delta":419479142},{"NoteNumber":65,"Velocity":76,"Duration":166431,"SoundDuration":166431,"Delta":419479142},{"NoteNumber":53,"Velocity":76,"Duration":166431,"SoundDuration":166431,"Delta":419479142},{"NoteNumber":64,"Velocity":72,"Duration":55886,"SoundDuration":55886,"Delta":419812730},{"NoteNumber":52,"Velocity":72,"Duration":55886,"SoundDuration":55886,"Delta":419812730},{"NoteNumber":50,"Velocity":82,"Duration":168398,"SoundDuration":168398,"Delta":419924504},{"NoteNumber":62,"Velocity":82,"Duration":168398,"SoundDuration":168398,"Delta":419924504},{"NoteNumber":48,"Velocity":69,"Duration":56552,"SoundDuration":56552,"Delta":420262034},{"NoteNumber":60,"Velocity":69,"Duration":56552,"SoundDuration":56552,"Delta":420262034},{"NoteNumber":91,"Velocity":96,"Duration":872539,"SoundDuration":872539,"Delta":420375288},{"NoteNumber":88,"Velocity":96,"Duration":872539,"SoundDuration":872539,"Delta":420375288},{"NoteNumber":84,"Velocity":86,"Duration":872539,"SoundDuration":872539,"Delta":420375288},{"NoteNumber":79,"Velocity":86,"Duration":872539,"SoundDuration":872539,"Delta":420375288},{"NoteNumber":46,"Velocity":85,"Duration":164930,"SoundDuration":164930,"Delta":420375288},{"NoteNumber":58,"Velocity":85,"Duration":164930,"SoundDuration":164930,"Delta":420375288},{"NoteNumber":45,"Velocity":69,"Duration":54399,"SoundDuration":54399,"Delta":420703416},{"NoteNumber":57,"Velocity":69,"Duration":54399,"SoundDuration":54399,"Delta":420703416},{"NoteNumber":43,"Velocity":80,"Duration":163197,"SoundDuration":163197,"Delta":420812214},{"NoteNumber":55,"Velocity":80,"Duration":163197,"SoundDuration":163197,"Delta":420812214},{"NoteNumber":41,"Velocity":70,"Duration":54399,"SoundDuration":54399,"Delta":421138609},{"NoteNumber":53,"Velocity":70,"Duration":54399,"SoundDuration":54399,"Delta":421138609},{"NoteNumber":72,"Velocity":76,"Duration":110340,"SoundDuration":110340,"Delta":421247828},{"NoteNumber":84,"Velocity":85,"Duration":110340,"SoundDuration":110340,"Delta":421247828},{"NoteNumber":40,"Velocity":83,"Duration":165866,"SoundDuration":165866,"Delta":421247828},{"NoteNumber":52,"Velocity":83,"Duration":165866,"SoundDuration":165866,"Delta":421247828},{"NoteNumber":38,"Velocity":73,"Duration":56327,"SoundDuration":56327,"Delta":421581434},{"NoteNumber":50,"Velocity":73,"Duration":56327,"SoundDuration":56327,"Delta":421581434},{"NoteNumber":36,"Velocity":84,"Duration":172373,"SoundDuration":172373,"Delta":421694239},{"NoteNumber":48,"Velocity":84,"Duration":172373,"SoundDuration":172373,"Delta":421694239},{"NoteNumber":34,"Velocity":84,"Duration":61144,"SoundDuration":61144,"Delta":422046360},{"NoteNumber":46,"Velocity":84,"Duration":61144,"SoundDuration":61144,"Delta":422046360},{"NoteNumber":93,"Velocity":97,"Duration":292354,"SoundDuration":292354,"Delta":422168649},{"NoteNumber":89,"Velocity":97,"Duration":292354,"SoundDuration":292354,"Delta":422168649},{"NoteNumber":84,"Velocity":87,"Duration":292354,"SoundDuration":292354,"Delta":422168649},{"NoteNumber":81,"Velocity":87,"Duration":292354,"SoundDuration":292354,"Delta":422168649},{"NoteNumber":33,"Velocity":78,"Duration":877064,"SoundDuration":877064,"Delta":422168649},{"NoteNumber":36,"Velocity":78,"Duration":877064,"SoundDuration":877064,"Delta":422168649},{"NoteNumber":41,"Velocity":87,"Duration":877064,"SoundDuration":877064,"Delta":422168649},{"NoteNumber":45,"Velocity":87,"Duration":877064,"SoundDuration":877064,"Delta":422168649},{"NoteNumber":89,"Velocity":70,"Duration":73088,"SoundDuration":73088,"Delta":422497548},{"NoteNumber":84,"Velocity":70,"Duration":73088,"SoundDuration":73088,"Delta":422497548},{"NoteNumber":81,"Velocity":63,"Duration":73088,"SoundDuration":73088,"Delta":422497548},{"NoteNumber":77,"Velocity":63,"Duration":73088,"SoundDuration":73088,"Delta":422497548},{"NoteNumber":89,"Velocity":78,"Duration":292354,"SoundDuration":292354,"Delta":422607181},{"NoteNumber":84,"Velocity":78,"Duration":292354,"SoundDuration":292354,"Delta":422607181},{"NoteNumber":81,"Velocity":70,"Duration":292354,"SoundDuration":292354,"Delta":422607181},{"NoteNumber":77,"Velocity":70,"Duration":292354,"SoundDuration":292354,"Delta":422607181},{"NoteNumber":84,"Velocity":70,"Duration":73088,"SoundDuration":73088,"Delta":422936080},{"NoteNumber":81,"Velocity":70,"Duration":73088,"SoundDuration":73088,"Delta":422936080},{"NoteNumber":77,"Velocity":63,"Duration":73088,"SoundDuration":73088,"Delta":422936080},{"NoteNumber":72,"Velocity":63,"Duration":73088,"SoundDuration":73088,"Delta":422936080},{"NoteNumber":84,"Velocity":78,"Duration":293346,"SoundDuration":293346,"Delta":423045713},{"NoteNumber":81,"Velocity":78,"Duration":293346,"SoundDuration":293346,"Delta":423045713},{"NoteNumber":77,"Velocity":70,"Duration":293346,"SoundDuration":293346,"Delta":423045713},{"NoteNumber":72,"Velocity":70,"Duration":293346,"SoundDuration":293346,"Delta":423045713},{"NoteNumber":53,"Velocity":58,"Duration":109632,"SoundDuration":109632,"Delta":423045713},{"NoteNumber":57,"Velocity":58,"Duration":109632,"SoundDuration":109632,"Delta":423045713},{"NoteNumber":48,"Velocity":52,"Duration":109632,"SoundDuration":109632,"Delta":423045713},{"NoteNumber":45,"Velocity":52,"Duration":109632,"SoundDuration":109632,"Delta":423045713},{"NoteNumber":81,"Velocity":70,"Duration":73937,"SoundDuration":73937,"Delta":423375887},{"NoteNumber":77,"Velocity":70,"Duration":73937,"SoundDuration":73937,"Delta":423375887},{"NoteNumber":72,"Velocity":63,"Duration":73937,"SoundDuration":73937,"Delta":423375887},{"NoteNumber":69,"Velocity":63,"Duration":73937,"SoundDuration":73937,"Delta":423375887},{"NoteNumber":69,"Velocity":70,"Duration":90173,"SoundDuration":90173,"Delta":423486938},{"NoteNumber":72,"Velocity":70,"Duration":90173,"SoundDuration":90173,"Delta":423486938},{"NoteNumber":77,"Velocity":78,"Duration":90173,"SoundDuration":90173,"Delta":423486938},{"NoteNumber":81,"Velocity":78,"Duration":90173,"SoundDuration":90173,"Delta":423486938},{"NoteNumber":65,"Velocity":63,"Duration":96236,"SoundDuration":96236,"Delta":423727400},{"NoteNumber":69,"Velocity":63,"Duration":96236,"SoundDuration":96236,"Delta":423727400},{"NoteNumber":72,"Velocity":70,"Duration":96236,"SoundDuration":96236,"Delta":423727400},{"NoteNumber":77,"Velocity":70,"Duration":96236,"SoundDuration":96236,"Delta":423727400},{"NoteNumber":93,"Velocity":99,"Duration":292354,"SoundDuration":292354,"Delta":423984029},{"NoteNumber":89,"Velocity":99,"Duration":292354,"SoundDuration":292354,"Delta":423984029},{"NoteNumber":84,"Velocity":89,"Duration":292354,"SoundDuration":292354,"Delta":423984029},{"NoteNumber":81,"Velocity":89,"Duration":292354,"SoundDuration":292354,"Delta":423984029},{"NoteNumber":33,"Velocity":60,"Duration":877206,"SoundDuration":877206,"Delta":423984029},{"NoteNumber":36,"Velocity":67,"Duration":877206,"SoundDuration":877206,"Delta":423984029},{"NoteNumber":41,"Velocity":67,"Duration":877206,"SoundDuration":877206,"Delta":423984029},{"NoteNumber":29,"Velocity":60,"Duration":877206,"SoundDuration":877206,"Delta":423984029},{"NoteNumber":89,"Velocity":70,"Duration":73088,"SoundDuration":73088,"Delta":424312928},{"NoteNumber":84,"Velocity":70,"Duration":73088,"SoundDuration":73088,"Delta":424312928},{"NoteNumber":81,"Velocity":63,"Duration":73088,"SoundDuration":73088,"Delta":424312928},{"NoteNumber":77,"Velocity":63,"Duration":73088,"SoundDuration":73088,"Delta":424312928},{"NoteNumber":89,"Velocity":78,"Duration":292354,"SoundDuration":292354,"Delta":424422561},{"NoteNumber":84,"Velocity":78,"Duration":292354,"SoundDuration":292354,"Delta":424422561},{"NoteNumber":81,"Velocity":70,"Duration":292354,"SoundDuration":292354,"Delta":424422561},{"NoteNumber":77,"Velocity":70,"Duration":292354,"SoundDuration":292354,"Delta":424422561},{"NoteNumber":84,"Velocity":70,"Duration":73088,"SoundDuration":73088,"Delta":424751460},{"NoteNumber":81,"Velocity":70,"Duration":73088,"SoundDuration":73088,"Delta":424751460},{"NoteNumber":77,"Velocity":63,"Duration":73088,"SoundDuration":73088,"Delta":424751460},{"NoteNumber":72,"Velocity":63,"Duration":73088,"SoundDuration":73088,"Delta":424751460},{"NoteNumber":84,"Velocity":78,"Duration":295348,"SoundDuration":295348,"Delta":424861235},{"NoteNumber":81,"Velocity":78,"Duration":295348,"SoundDuration":295348,"Delta":424861235},{"NoteNumber":77,"Velocity":70,"Duration":295348,"SoundDuration":295348,"Delta":424861235},{"NoteNumber":72,"Velocity":70,"Duration":295348,"SoundDuration":295348,"Delta":424861235},{"NoteNumber":45,"Velocity":52,"Duration":109775,"SoundDuration":109775,"Delta":424861235},{"NoteNumber":48,"Velocity":58,"Duration":109775,"SoundDuration":109775,"Delta":424861235},{"NoteNumber":53,"Velocity":58,"Duration":109775,"SoundDuration":109775,"Delta":424861235},{"NoteNumber":41,"Velocity":52,"Duration":109775,"SoundDuration":109775,"Delta":424861235},{"NoteNumber":81,"Velocity":70,"Duration":75253,"SoundDuration":75253,"Delta":425193989},{"NoteNumber":77,"Velocity":70,"Duration":75253,"SoundDuration":75253,"Delta":425193989},{"NoteNumber":72,"Velocity":63,"Duration":75253,"SoundDuration":75253,"Delta":425193989},{"NoteNumber":69,"Velocity":63,"Duration":75253,"SoundDuration":75253,"Delta":425193989},{"NoteNumber":69,"Velocity":70,"Duration":91677,"SoundDuration":91677,"Delta":425307092},{"NoteNumber":72,"Velocity":70,"Duration":91677,"SoundDuration":91677,"Delta":425307092},{"NoteNumber":77,"Velocity":78,"Duration":91677,"SoundDuration":91677,"Delta":425307092},{"NoteNumber":81,"Velocity":78,"Duration":91677,"SoundDuration":91677,"Delta":425307092},{"NoteNumber":65,"Velocity":63,"Duration":100752,"SoundDuration":100752,"Delta":425552283},{"NoteNumber":69,"Velocity":63,"Duration":100752,"SoundDuration":100752,"Delta":425552283},{"NoteNumber":72,"Velocity":70,"Duration":100752,"SoundDuration":100752,"Delta":425552283},{"NoteNumber":77,"Velocity":70,"Duration":100752,"SoundDuration":100752,"Delta":425552283},{"NoteNumber":93,"Velocity":92,"Duration":299244,"SoundDuration":299244,"Delta":425820956},{"NoteNumber":88,"Velocity":92,"Duration":299244,"SoundDuration":299244,"Delta":425820956},{"NoteNumber":85,"Velocity":82,"Duration":299244,"SoundDuration":299244,"Delta":425820956},{"NoteNumber":81,"Velocity":82,"Duration":299244,"SoundDuration":299244,"Delta":425820956},{"NoteNumber":33,"Velocity":70,"Duration":299244,"SoundDuration":299244,"Delta":425820956},{"NoteNumber":45,"Velocity":78,"Duration":299244,"SoundDuration":299244,"Delta":425820956},{"NoteNumber":93,"Velocity":70,"Duration":74811,"SoundDuration":74811,"Delta":426157606},{"NoteNumber":88,"Velocity":70,"Duration":74811,"SoundDuration":74811,"Delta":426157606},{"NoteNumber":85,"Velocity":70,"Duration":74811,"SoundDuration":74811,"Delta":426157606},{"NoteNumber":81,"Velocity":63,"Duration":74811,"SoundDuration":74811,"Delta":426157606},{"NoteNumber":37,"Velocity":63,"Duration":74811,"SoundDuration":74811,"Delta":426157606},{"NoteNumber":49,"Velocity":70,"Duration":74811,"SoundDuration":74811,"Delta":426157606},{"NoteNumber":93,"Velocity":83,"Duration":297052,"SoundDuration":297052,"Delta":426269823},{"NoteNumber":88,"Velocity":83,"Duration":297052,"SoundDuration":297052,"Delta":426269823},{"NoteNumber":85,"Velocity":74,"Duration":297052,"SoundDuration":297052,"Delta":426269823},{"NoteNumber":81,"Velocity":74,"Duration":297052,"SoundDuration":297052,"Delta":426269823},{"NoteNumber":37,"Velocity":70,"Duration":297052,"SoundDuration":297052,"Delta":426269823},{"NoteNumber":49,"Velocity":78,"Duration":297052,"SoundDuration":297052,"Delta":426269823},{"NoteNumber":93,"Velocity":70,"Duration":73653,"SoundDuration":73653,"Delta":426603844},{"NoteNumber":88,"Velocity":70,"Duration":73653,"SoundDuration":73653,"Delta":426603844},{"NoteNumber":85,"Velocity":63,"Duration":73653,"SoundDuration":73653,"Delta":426603844},{"NoteNumber":81,"Velocity":63,"Duration":73653,"SoundDuration":73653,"Delta":426603844},{"NoteNumber":40,"Velocity":63,"Duration":73653,"SoundDuration":73653,"Delta":426603844},{"NoteNumber":52,"Velocity":70,"Duration":73653,"SoundDuration":73653,"Delta":426603844},{"NoteNumber":93,"Velocity":82,"Duration":294337,"SoundDuration":294337,"Delta":426714184},{"NoteNumber":88,"Velocity":82,"Duration":294337,"SoundDuration":294337,"Delta":426714184},{"NoteNumber":85,"Velocity":73,"Duration":294337,"SoundDuration":294337,"Delta":426714184},{"NoteNumber":81,"Velocity":73,"Duration":294337,"SoundDuration":294337,"Delta":426714184},{"NoteNumber":40,"Velocity":70,"Duration":294337,"SoundDuration":294337,"Delta":426714184},{"NoteNumber":52,"Velocity":78,"Duration":294337,"SoundDuration":294337,"Delta":426714184},{"NoteNumber":93,"Velocity":70,"Duration":74228,"SoundDuration":74228,"Delta":427045635},{"NoteNumber":88,"Velocity":70,"Duration":74228,"SoundDuration":74228,"Delta":427045635},{"NoteNumber":85,"Velocity":63,"Duration":74228,"SoundDuration":74228,"Delta":427045635},{"NoteNumber":81,"Velocity":63,"Duration":74228,"SoundDuration":74228,"Delta":427045635},{"NoteNumber":45,"Velocity":63,"Duration":74228,"SoundDuration":74228,"Delta":427045635},{"NoteNumber":57,"Velocity":70,"Duration":74228,"SoundDuration":74228,"Delta":427045635},{"NoteNumber":93,"Velocity":80,"Duration":86885,"SoundDuration":86885,"Delta":427157121},{"NoteNumber":88,"Velocity":80,"Duration":86885,"SoundDuration":86885,"Delta":427157121},{"NoteNumber":85,"Velocity":72,"Duration":86885,"SoundDuration":86885,"Delta":427157121},{"NoteNumber":81,"Velocity":72,"Duration":86885,"SoundDuration":86885,"Delta":427157121},{"NoteNumber":45,"Velocity":70,"Duration":86885,"SoundDuration":86885,"Delta":427157121},{"NoteNumber":57,"Velocity":78,"Duration":86885,"SoundDuration":86885,"Delta":427157121},{"NoteNumber":81,"Velocity":63,"Duration":90173,"SoundDuration":90173,"Delta":427388817},{"NoteNumber":85,"Velocity":63,"Duration":90173,"SoundDuration":90173,"Delta":427388817},{"NoteNumber":88,"Velocity":70,"Duration":90173,"SoundDuration":90173,"Delta":427388817},{"NoteNumber":93,"Velocity":70,"Duration":90173,"SoundDuration":90173,"Delta":427388817},{"NoteNumber":45,"Velocity":63,"Duration":90173,"SoundDuration":90173,"Delta":427388817},{"NoteNumber":57,"Velocity":71,"Duration":90173,"SoundDuration":90173,"Delta":427388817},{"NoteNumber":81,"Velocity":50,"Duration":301613,"SoundDuration":301613,"Delta":427629279},{"NoteNumber":76,"Velocity":50,"Duration":301613,"SoundDuration":301613,"Delta":427629279},{"NoteNumber":73,"Velocity":50,"Duration":301613,"SoundDuration":301613,"Delta":427629279},{"NoteNumber":69,"Velocity":50,"Duration":301613,"SoundDuration":301613,"Delta":427629279},{"NoteNumber":57,"Velocity":50,"Duration":301613,"SoundDuration":301613,"Delta":427629279},{"NoteNumber":73,"Velocity":45,"Duration":75403,"SoundDuration":75403,"Delta":427968594},{"NoteNumber":76,"Velocity":45,"Duration":75403,"SoundDuration":75403,"Delta":427968594},{"NoteNumber":81,"Velocity":45,"Duration":75403,"SoundDuration":75403,"Delta":427968594},{"NoteNumber":61,"Velocity":40,"Duration":75403,"SoundDuration":75403,"Delta":427968594},{"NoteNumber":81,"Velocity":50,"Duration":296912,"SoundDuration":296912,"Delta":428081699},{"NoteNumber":76,"Velocity":50,"Duration":296912,"SoundDuration":296912,"Delta":428081699},{"NoteNumber":73,"Velocity":50,"Duration":296912,"SoundDuration":296912,"Delta":428081699},{"NoteNumber":61,"Velocity":49,"Duration":296912,"SoundDuration":296912,"Delta":428081699},{"NoteNumber":73,"Velocity":45,"Duration":74228,"SoundDuration":74228,"Delta":428415725},{"NoteNumber":76,"Velocity":45,"Duration":74228,"SoundDuration":74228,"Delta":428415725},{"NoteNumber":81,"Velocity":45,"Duration":74228,"SoundDuration":74228,"Delta":428415725},{"NoteNumber":64,"Velocity":38,"Duration":74228,"SoundDuration":74228,"Delta":428415725},{"NoteNumber":81,"Velocity":49,"Duration":298087,"SoundDuration":298087,"Delta":428527067},{"NoteNumber":76,"Velocity":49,"Duration":298087,"SoundDuration":298087,"Delta":428527067},{"NoteNumber":73,"Velocity":49,"Duration":298087,"SoundDuration":298087,"Delta":428527067},{"NoteNumber":64,"Velocity":48,"Duration":298087,"SoundDuration":298087,"Delta":428527067},{"NoteNumber":73,"Velocity":45,"Duration":75403,"SoundDuration":75403,"Delta":428862856},{"NoteNumber":76,"Velocity":45,"Duration":75403,"SoundDuration":75403,"Delta":428862856},{"NoteNumber":81,"Velocity":45,"Duration":75403,"SoundDuration":75403,"Delta":428862856},{"NoteNumber":69,"Velocity":38,"Duration":75403,"SoundDuration":75403,"Delta":428862856},{"NoteNumber":81,"Velocity":50,"Duration":84828,"SoundDuration":84828,"Delta":428975961},{"NoteNumber":76,"Velocity":50,"Duration":84828,"SoundDuration":84828,"Delta":428975961},{"NoteNumber":73,"Velocity":50,"Duration":84828,"SoundDuration":84828,"Delta":428975961},{"NoteNumber":69,"Velocity":45,"Duration":84828,"SoundDuration":84828,"Delta":428975961},{"NoteNumber":73,"Velocity":45,"Duration":86186,"SoundDuration":86186,"Delta":429202171},{"NoteNumber":76,"Velocity":45,"Duration":86186,"SoundDuration":86186,"Delta":429202171},{"NoteNumber":81,"Velocity":45,"Duration":86186,"SoundDuration":86186,"Delta":429202171},{"NoteNumber":69,"Velocity":38,"Duration":86186,"SoundDuration":86186,"Delta":429202171},{"NoteNumber":72,"Velocity":45,"Duration":306442,"SoundDuration":306442,"Delta":429432003},{"NoteNumber":77,"Velocity":45,"Duration":306442,"SoundDuration":306442,"Delta":429432003},{"NoteNumber":81,"Velocity":45,"Duration":306442,"SoundDuration":306442,"Delta":429432003},{"NoteNumber":65,"Velocity":44,"Duration":306442,"SoundDuration":306442,"Delta":429432003},{"NoteNumber":69,"Velocity":44,"Duration":306442,"SoundDuration":306442,"Delta":429432003},{"NoteNumber":72,"Velocity":38,"Duration":76610,"SoundDuration":76610,"Delta":429776751},{"NoteNumber":77,"Velocity":38,"Duration":76610,"SoundDuration":76610,"Delta":429776751},{"NoteNumber":81,"Velocity":38,"Duration":76610,"SoundDuration":76610,"Delta":429776751},{"NoteNumber":65,"Velocity":33,"Duration":76610,"SoundDuration":76610,"Delta":429776751},{"NoteNumber":69,"Velocity":33,"Duration":76610,"SoundDuration":76610,"Delta":429776751},{"NoteNumber":72,"Velocity":45,"Duration":306442,"SoundDuration":306442,"Delta":429891667},{"NoteNumber":77,"Velocity":45,"Duration":306442,"SoundDuration":306442,"Delta":429891667},{"NoteNumber":81,"Velocity":45,"Duration":306442,"SoundDuration":306442,"Delta":429891667},{"NoteNumber":65,"Velocity":42,"Duration":306442,"SoundDuration":306442,"Delta":429891667},{"NoteNumber":69,"Velocity":42,"Duration":306442,"SoundDuration":306442,"Delta":429891667},{"NoteNumber":72,"Velocity":37,"Duration":76610,"SoundDuration":76610,"Delta":430236415},{"NoteNumber":77,"Velocity":37,"Duration":76610,"SoundDuration":76610,"Delta":430236415},{"NoteNumber":81,"Velocity":37,"Duration":76610,"SoundDuration":76610,"Delta":430236415},{"NoteNumber":65,"Velocity":33,"Duration":76610,"SoundDuration":76610,"Delta":430236415},{"NoteNumber":69,"Velocity":33,"Duration":76610,"SoundDuration":76610,"Delta":430236415},{"NoteNumber":72,"Velocity":45,"Duration":300413,"SoundDuration":300413,"Delta":430351331},{"NoteNumber":77,"Velocity":45,"Duration":300413,"SoundDuration":300413,"Delta":430351331},{"NoteNumber":81,"Velocity":45,"Duration":300413,"SoundDuration":300413,"Delta":430351331},{"NoteNumber":65,"Velocity":42,"Duration":300413,"SoundDuration":300413,"Delta":430351331},{"NoteNumber":69,"Velocity":42,"Duration":300413,"SoundDuration":300413,"Delta":430351331},{"NoteNumber":72,"Velocity":38,"Duration":75103,"SoundDuration":75103,"Delta":430689296},{"NoteNumber":77,"Velocity":38,"Duration":75103,"SoundDuration":75103,"Delta":430689296},{"NoteNumber":81,"Velocity":38,"Duration":75103,"SoundDuration":75103,"Delta":430689296},{"NoteNumber":65,"Velocity":34,"Duration":75103,"SoundDuration":75103,"Delta":430689296},{"NoteNumber":69,"Velocity":34,"Duration":75103,"SoundDuration":75103,"Delta":430689296},{"NoteNumber":72,"Velocity":45,"Duration":86885,"SoundDuration":86885,"Delta":430801951},{"NoteNumber":77,"Velocity":45,"Duration":86885,"SoundDuration":86885,"Delta":430801951},{"NoteNumber":81,"Velocity":45,"Duration":86885,"SoundDuration":86885,"Delta":430801951},{"NoteNumber":65,"Velocity":40,"Duration":86885,"SoundDuration":86885,"Delta":430801951},{"NoteNumber":69,"Velocity":40,"Duration":86885,"SoundDuration":86885,"Delta":430801951},{"NoteNumber":77,"Velocity":39,"Duration":91322,"SoundDuration":91322,"Delta":431033647},{"NoteNumber":72,"Velocity":39,"Duration":91322,"SoundDuration":91322,"Delta":431033647},{"NoteNumber":81,"Velocity":39,"Duration":91322,"SoundDuration":91322,"Delta":431033647},{"NoteNumber":65,"Velocity":36,"Duration":91322,"SoundDuration":91322,"Delta":431033647},{"NoteNumber":69,"Velocity":36,"Duration":91322,"SoundDuration":91322,"Delta":431033647},{"NoteNumber":72,"Velocity":51,"Duration":300413,"SoundDuration":300413,"Delta":431277173},{"NoteNumber":77,"Velocity":51,"Duration":300413,"SoundDuration":300413,"Delta":431277173},{"NoteNumber":81,"Velocity":51,"Duration":300413,"SoundDuration":300413,"Delta":431277173},{"NoteNumber":41,"Velocity":31,"Duration":901239,"SoundDuration":901239,"Delta":431277173},{"NoteNumber":53,"Velocity":31,"Duration":901239,"SoundDuration":901239,"Delta":431277173},{"NoteNumber":74,"Velocity":37,"Duration":75103,"SoundDuration":75103,"Delta":431615138},{"NoteNumber":77,"Velocity":37,"Duration":75103,"SoundDuration":75103,"Delta":431615138},{"NoteNumber":82,"Velocity":37,"Duration":75103,"SoundDuration":75103,"Delta":431615138},{"NoteNumber":72,"Velocity":45,"Duration":300413,"SoundDuration":300413,"Delta":431727793},{"NoteNumber":77,"Velocity":45,"Duration":300413,"SoundDuration":300413,"Delta":431727793},{"NoteNumber":81,"Velocity":45,"Duration":300413,"SoundDuration":300413,"Delta":431727793},{"NoteNumber":70,"Velocity":37,"Duration":75103,"SoundDuration":75103,"Delta":432065758},{"NoteNumber":72,"Velocity":37,"Duration":75103,"SoundDuration":75103,"Delta":432065758},{"NoteNumber":79,"Velocity":37,"Duration":75103,"SoundDuration":75103,"Delta":432065758},{"NoteNumber":69,"Velocity":45,"Duration":300413,"SoundDuration":300413,"Delta":432178413},{"NoteNumber":72,"Velocity":45,"Duration":300413,"SoundDuration":300413,"Delta":432178413},{"NoteNumber":77,"Velocity":45,"Duration":300413,"SoundDuration":300413,"Delta":432178413},{"NoteNumber":45,"Velocity":37,"Duration":187758,"SoundDuration":187758,"Delta":432178413},{"NoteNumber":57,"Velocity":37,"Duration":187758,"SoundDuration":187758,"Delta":432178413},{"NoteNumber":70,"Velocity":37,"Duration":75103,"SoundDuration":75103,"Delta":432516378},{"NoteNumber":72,"Velocity":37,"Duration":75103,"SoundDuration":75103,"Delta":432516378},{"NoteNumber":79,"Velocity":37,"Duration":75103,"SoundDuration":75103,"Delta":432516378},{"NoteNumber":69,"Velocity":45,"Duration":301616,"SoundDuration":301616,"Delta":432629033},{"NoteNumber":72,"Velocity":45,"Duration":301616,"SoundDuration":301616,"Delta":432629033},{"NoteNumber":77,"Velocity":45,"Duration":301616,"SoundDuration":301616,"Delta":432629033},{"NoteNumber":65,"Velocity":37,"Duration":76306,"SoundDuration":76306,"Delta":432968804},{"NoteNumber":70,"Velocity":37,"Duration":76306,"SoundDuration":76306,"Delta":432968804},{"NoteNumber":74,"Velocity":37,"Duration":76306,"SoundDuration":76306,"Delta":432968804},{"NoteNumber":64,"Velocity":52,"Duration":334025,"SoundDuration":334025,"Delta":433083264},{"NoteNumber":70,"Velocity":52,"Duration":334025,"SoundDuration":334025,"Delta":433083264},{"NoteNumber":72,"Velocity":52,"Duration":334025,"SoundDuration":334025,"Delta":433083264},{"NoteNumber":48,"Velocity":34,"Duration":890736,"SoundDuration":890736,"Delta":433083264},{"NoteNumber":55,"Velocity":34,"Duration":890736,"SoundDuration":890736,"Delta":433083264},{"NoteNumber":65,"Velocity":37,"Duration":111341,"SoundDuration":111341,"Delta":433417290},{"NoteNumber":70,"Velocity":37,"Duration":111341,"SoundDuration":111341,"Delta":433417290},{"NoteNumber":74,"Velocity":37,"Duration":111341,"SoundDuration":111341,"Delta":433417290},{"NoteNumber":65,"Velocity":45,"Duration":334026,"SoundDuration":334026,"Delta":433528632},{"NoteNumber":70,"Velocity":45,"Duration":334026,"SoundDuration":334026,"Delta":433528632},{"NoteNumber":74,"Velocity":45,"Duration":334026,"SoundDuration":334026,"Delta":433528632},{"NoteNumber":64,"Velocity":37,"Duration":111341,"SoundDuration":111341,"Delta":433862658},{"NoteNumber":70,"Velocity":37,"Duration":111341,"SoundDuration":111341,"Delta":433862658},{"NoteNumber":72,"Velocity":37,"Duration":111341,"SoundDuration":111341,"Delta":433862658},{"NoteNumber":64,"Velocity":45,"Duration":334025,"SoundDuration":334025,"Delta":433974000},{"NoteNumber":70,"Velocity":45,"Duration":334025,"SoundDuration":334025,"Delta":433974000},{"NoteNumber":72,"Velocity":45,"Duration":334025,"SoundDuration":334025,"Delta":433974000},{"NoteNumber":60,"Velocity":37,"Duration":185569,"SoundDuration":185569,"Delta":433974000},{"NoteNumber":65,"Velocity":37,"Duration":111341,"SoundDuration":111341,"Delta":434308026},{"NoteNumber":70,"Velocity":37,"Duration":111341,"SoundDuration":111341,"Delta":434308026},{"NoteNumber":74,"Velocity":37,"Duration":111341,"SoundDuration":111341,"Delta":434308026},{"NoteNumber":65,"Velocity":39,"Duration":86186,"SoundDuration":86186,"Delta":434419368},{"NoteNumber":70,"Velocity":39,"Duration":86186,"SoundDuration":86186,"Delta":434419368},{"NoteNumber":74,"Velocity":39,"Duration":86186,"SoundDuration":86186,"Delta":434419368},{"NoteNumber":64,"Velocity":37,"Duration":81526,"SoundDuration":81526,"Delta":434649200},{"NoteNumber":70,"Velocity":37,"Duration":81526,"SoundDuration":81526,"Delta":434649200},{"NoteNumber":72,"Velocity":37,"Duration":81526,"SoundDuration":81526,"Delta":434649200},{"NoteNumber":74,"Velocity":45,"Duration":300413,"SoundDuration":300413,"Delta":434893778},{"NoteNumber":79,"Velocity":45,"Duration":300413,"SoundDuration":300413,"Delta":434893778},{"NoteNumber":82,"Velocity":45,"Duration":300413,"SoundDuration":300413,"Delta":434893778},{"NoteNumber":43,"Velocity":31,"Duration":901239,"SoundDuration":901239,"Delta":434893778},{"NoteNumber":55,"Velocity":31,"Duration":901239,"SoundDuration":901239,"Delta":434893778},{"NoteNumber":75,"Velocity":37,"Duration":75103,"SoundDuration":75103,"Delta":435231743},{"NoteNumber":79,"Velocity":37,"Duration":75103,"SoundDuration":75103,"Delta":435231743},{"NoteNumber":84,"Velocity":37,"Duration":75103,"SoundDuration":75103,"Delta":435231743},{"NoteNumber":74,"Velocity":45,"Duration":300413,"SoundDuration":300413,"Delta":435344398},{"NoteNumber":79,"Velocity":45,"Duration":300413,"SoundDuration":300413,"Delta":435344398},{"NoteNumber":82,"Velocity":45,"Duration":300413,"SoundDuration":300413,"Delta":435344398},{"NoteNumber":72,"Velocity":37,"Duration":75103,"SoundDuration":75103,"Delta":435682363},{"NoteNumber":74,"Velocity":37,"Duration":75103,"SoundDuration":75103,"Delta":435682363},{"NoteNumber":81,"Velocity":37,"Duration":75103,"SoundDuration":75103,"Delta":435682363},{"NoteNumber":70,"Velocity":45,"Duration":300413,"SoundDuration":300413,"Delta":435795018},{"NoteNumber":74,"Velocity":45,"Duration":300413,"SoundDuration":300413,"Delta":435795018},{"NoteNumber":79,"Velocity":45,"Duration":300413,"SoundDuration":300413,"Delta":435795018},{"NoteNumber":46,"Velocity":37,"Duration":187758,"SoundDuration":187758,"Delta":435795018},{"NoteNumber":58,"Velocity":37,"Duration":187758,"SoundDuration":187758,"Delta":435795018},{"NoteNumber":72,"Velocity":37,"Duration":75103,"SoundDuration":75103,"Delta":436132983},{"NoteNumber":74,"Velocity":37,"Duration":75103,"SoundDuration":75103,"Delta":436132983},{"NoteNumber":81,"Velocity":37,"Duration":75103,"SoundDuration":75103,"Delta":436132983},{"NoteNumber":70,"Velocity":45,"Duration":300413,"SoundDuration":300413,"Delta":436245638},{"NoteNumber":74,"Velocity":45,"Duration":300413,"SoundDuration":300413,"Delta":436245638},{"NoteNumber":79,"Velocity":45,"Duration":300413,"SoundDuration":300413,"Delta":436245638},{"NoteNumber":67,"Velocity":37,"Duration":75103,"SoundDuration":75103,"Delta":436583603},{"NoteNumber":72,"Velocity":37,"Duration":75103,"SoundDuration":75103,"Delta":436583603},{"NoteNumber":75,"Velocity":37,"Duration":75103,"SoundDuration":75103,"Delta":436583603},{"NoteNumber":66,"Velocity":52,"Duration":337964,"SoundDuration":337964,"Delta":436696258},{"NoteNumber":72,"Velocity":52,"Duration":337964,"SoundDuration":337964,"Delta":436696258},{"NoteNumber":74,"Velocity":52,"Duration":337964,"SoundDuration":337964,"Delta":436696258},{"NoteNumber":50,"Velocity":37,"Duration":894675,"SoundDuration":894675,"Delta":436696258},{"NoteNumber":57,"Velocity":37,"Duration":894675,"SoundDuration":894675,"Delta":436696258},{"NoteNumber":67,"Velocity":37,"Duration":111341,"SoundDuration":111341,"Delta":437034223},{"NoteNumber":72,"Velocity":37,"Duration":111341,"SoundDuration":111341,"Delta":437034223},{"NoteNumber":75,"Velocity":37,"Duration":111341,"SoundDuration":111341,"Delta":437034223},{"NoteNumber":67,"Velocity":45,"Duration":334025,"SoundDuration":334025,"Delta":437145565},{"NoteNumber":72,"Velocity":45,"Duration":334025,"SoundDuration":334025,"Delta":437145565},{"NoteNumber":75,"Velocity":45,"Duration":334025,"SoundDuration":334025,"Delta":437145565},{"NoteNumber":66,"Velocity":37,"Duration":111342,"SoundDuration":111342,"Delta":437479591},{"NoteNumber":72,"Velocity":37,"Duration":111342,"SoundDuration":111342,"Delta":437479591},{"NoteNumber":74,"Velocity":37,"Duration":111342,"SoundDuration":111342,"Delta":437479591},{"NoteNumber":66,"Velocity":45,"Duration":334025,"SoundDuration":334025,"Delta":437590933},{"NoteNumber":72,"Velocity":45,"Duration":334025,"SoundDuration":334025,"Delta":437590933},{"NoteNumber":74,"Velocity":45,"Duration":334025,"SoundDuration":334025,"Delta":437590933},{"NoteNumber":62,"Velocity":37,"Duration":185569,"SoundDuration":185569,"Delta":437590933},{"NoteNumber":67,"Velocity":37,"Duration":111341,"SoundDuration":111341,"Delta":437924959},{"NoteNumber":72,"Velocity":37,"Duration":111341,"SoundDuration":111341,"Delta":437924959},{"NoteNumber":75,"Velocity":37,"Duration":111341,"SoundDuration":111341,"Delta":437924959},{"NoteNumber":67,"Velocity":39,"Duration":86885,"SoundDuration":86885,"Delta":438036301},{"NoteNumber":72,"Velocity":39,"Duration":86885,"SoundDuration":86885,"Delta":438036301},{"NoteNumber":75,"Velocity":39,"Duration":86885,"SoundDuration":86885,"Delta":438036301},{"NoteNumber":66,"Velocity":37,"Duration":79814,"SoundDuration":79814,"Delta":438267997},{"NoteNumber":72,"Velocity":37,"Duration":79814,"SoundDuration":79814,"Delta":438267997},{"NoteNumber":74,"Velocity":37,"Duration":79814,"SoundDuration":79814,"Delta":438267997},{"NoteNumber":71,"Velocity":51,"Duration":337964,"SoundDuration":337964,"Delta":438507442},{"NoteNumber":77,"Velocity":51,"Duration":337964,"SoundDuration":337964,"Delta":438507442},{"NoteNumber":79,"Velocity":51,"Duration":337964,"SoundDuration":337964,"Delta":438507442},{"NoteNumber":43,"Velocity":40,"Duration":901239,"SoundDuration":901239,"Delta":438507442},{"NoteNumber":50,"Velocity":40,"Duration":901239,"SoundDuration":901239,"Delta":438507442},{"NoteNumber":71,"Velocity":37,"Duration":75103,"SoundDuration":75103,"Delta":438845407},{"NoteNumber":77,"Velocity":37,"Duration":75103,"SoundDuration":75103,"Delta":438845407},{"NoteNumber":80,"Velocity":37,"Duration":75103,"SoundDuration":75103,"Delta":438845407},{"NoteNumber":71,"Velocity":51,"Duration":225309,"SoundDuration":225309,"Delta":438958062},{"NoteNumber":77,"Velocity":51,"Duration":225309,"SoundDuration":225309,"Delta":438958062},{"NoteNumber":80,"Velocity":51,"Duration":225309,"SoundDuration":225309,"Delta":438958062},{"NoteNumber":71,"Velocity":42,"Duration":75103,"SoundDuration":75103,"Delta":439183372},{"NoteNumber":77,"Velocity":42,"Duration":75103,"SoundDuration":75103,"Delta":439183372},{"NoteNumber":79,"Velocity":42,"Duration":75103,"SoundDuration":75103,"Delta":439183372},{"NoteNumber":67,"Velocity":45,"Duration":335320,"SoundDuration":335320,"Delta":439408682},{"NoteNumber":70,"Velocity":45,"Duration":335320,"SoundDuration":335320,"Delta":439408682},{"NoteNumber":72,"Velocity":45,"Duration":335320,"SoundDuration":335320,"Delta":439408682},{"NoteNumber":48,"Velocity":37,"Duration":186289,"SoundDuration":186289,"Delta":439408682},{"NoteNumber":52,"Velocity":37,"Duration":186289,"SoundDuration":186289,"Delta":439408682},{"NoteNumber":67,"Velocity":39,"Duration":74515,"SoundDuration":74515,"Delta":439744002},{"NoteNumber":70,"Velocity":39,"Duration":74515,"SoundDuration":74515,"Delta":439744002},{"NoteNumber":73,"Velocity":39,"Duration":74515,"SoundDuration":74515,"Delta":439744002},{"NoteNumber":67,"Velocity":47,"Duration":86538,"SoundDuration":86538,"Delta":439855776},{"NoteNumber":70,"Velocity":47,"Duration":86538,"SoundDuration":86538,"Delta":439855776},{"NoteNumber":73,"Velocity":47,"Duration":86538,"SoundDuration":86538,"Delta":439855776},{"NoteNumber":67,"Velocity":37,"Duration":79814,"SoundDuration":79814,"Delta":440086545},{"NoteNumber":70,"Velocity":37,"Duration":79814,"SoundDuration":79814,"Delta":440086545},{"NoteNumber":72,"Velocity":37,"Duration":79814,"SoundDuration":79814,"Delta":440086545},{"NoteNumber":69,"Velocity":52,"Duration":337964,"SoundDuration":337964,"Delta":440325989},{"NoteNumber":75,"Velocity":52,"Duration":337964,"SoundDuration":337964,"Delta":440325989},{"NoteNumber":77,"Velocity":52,"Duration":337964,"SoundDuration":337964,"Delta":440325989},{"NoteNumber":41,"Velocity":41,"Duration":901239,"SoundDuration":901239,"Delta":440325989},{"NoteNumber":48,"Velocity":41,"Duration":901239,"SoundDuration":901239,"Delta":440325989},{"NoteNumber":69,"Velocity":42,"Duration":75103,"SoundDuration":75103,"Delta":440663954},{"NoteNumber":75,"Velocity":42,"Duration":75103,"SoundDuration":75103,"Delta":440663954},{"NoteNumber":79,"Velocity":42,"Duration":75103,"SoundDuration":75103,"Delta":440663954},{"NoteNumber":69,"Velocity":49,"Duration":225309,"SoundDuration":225309,"Delta":440776609},{"NoteNumber":75,"Velocity":49,"Duration":225309,"SoundDuration":225309,"Delta":440776609},{"NoteNumber":79,"Velocity":49,"Duration":225309,"SoundDuration":225309,"Delta":440776609},{"NoteNumber":69,"Velocity":37,"Duration":75103,"SoundDuration":75103,"Delta":441001919},{"NoteNumber":75,"Velocity":37,"Duration":75103,"SoundDuration":75103,"Delta":441001919},{"NoteNumber":77,"Velocity":37,"Duration":75103,"SoundDuration":75103,"Delta":441001919},{"NoteNumber":62,"Velocity":49,"Duration":335320,"SoundDuration":335320,"Delta":441227229},{"NoteNumber":65,"Velocity":49,"Duration":335320,"SoundDuration":335320,"Delta":441227229},{"NoteNumber":70,"Velocity":49,"Duration":335320,"SoundDuration":335320,"Delta":441227229},{"NoteNumber":46,"Velocity":37,"Duration":186289,"SoundDuration":186289,"Delta":441227229},{"NoteNumber":50,"Velocity":37,"Duration":186289,"SoundDuration":186289,"Delta":441227229},{"NoteNumber":62,"Velocity":37,"Duration":74515,"SoundDuration":74515,"Delta":441562550},{"NoteNumber":65,"Velocity":37,"Duration":74515,"SoundDuration":74515,"Delta":441562550},{"NoteNumber":72,"Velocity":37,"Duration":74515,"SoundDuration":74515,"Delta":441562550},{"NoteNumber":62,"Velocity":45,"Duration":85845,"SoundDuration":85845,"Delta":441674323},{"NoteNumber":65,"Velocity":45,"Duration":85845,"SoundDuration":85845,"Delta":441674323},{"NoteNumber":72,"Velocity":45,"Duration":85845,"SoundDuration":85845,"Delta":441674323},{"NoteNumber":62,"Velocity":37,"Duration":78179,"SoundDuration":78179,"Delta":441903244},{"NoteNumber":70,"Velocity":37,"Duration":78179,"SoundDuration":78179,"Delta":441903244},{"NoteNumber":65,"Velocity":37,"Duration":78179,"SoundDuration":78179,"Delta":441903244},{"NoteNumber":65,"Velocity":55,"Duration":337964,"SoundDuration":337964,"Delta":442137784},{"NoteNumber":70,"Velocity":55,"Duration":337964,"SoundDuration":337964,"Delta":442137784},{"NoteNumber":74,"Velocity":55,"Duration":337964,"SoundDuration":337964,"Delta":442137784},{"NoteNumber":46,"Velocity":49,"Duration":337964,"SoundDuration":337964,"Delta":442137784},{"NoteNumber":50,"Velocity":49,"Duration":337964,"SoundDuration":337964,"Delta":442137784},{"NoteNumber":65,"Velocity":55,"Duration":112655,"SoundDuration":112655,"Delta":442475749},{"NoteNumber":73,"Velocity":55,"Duration":112655,"SoundDuration":112655,"Delta":442475749},{"NoteNumber":76,"Velocity":55,"Duration":112655,"SoundDuration":112655,"Delta":442475749},{"NoteNumber":46,"Velocity":49,"Duration":112655,"SoundDuration":112655,"Delta":442475749},{"NoteNumber":49,"Velocity":49,"Duration":112655,"SoundDuration":112655,"Delta":442475749},{"NoteNumber":52,"Velocity":49,"Duration":112655,"SoundDuration":112655,"Delta":442475749},{"NoteNumber":65,"Velocity":59,"Duration":337964,"SoundDuration":337964,"Delta":442588404},{"NoteNumber":73,"Velocity":59,"Duration":337964,"SoundDuration":337964,"Delta":442588404},{"NoteNumber":76,"Velocity":59,"Duration":337964,"SoundDuration":337964,"Delta":442588404},{"NoteNumber":46,"Velocity":53,"Duration":337964,"SoundDuration":337964,"Delta":442588404},{"NoteNumber":49,"Velocity":53,"Duration":337964,"SoundDuration":337964,"Delta":442588404},{"NoteNumber":52,"Velocity":53,"Duration":337964,"SoundDuration":337964,"Delta":442588404},{"NoteNumber":65,"Velocity":58,"Duration":110480,"SoundDuration":110480,"Delta":442926369},{"NoteNumber":74,"Velocity":58,"Duration":110480,"SoundDuration":110480,"Delta":442926369},{"NoteNumber":77,"Velocity":58,"Duration":110480,"SoundDuration":110480,"Delta":442926369},{"NoteNumber":46,"Velocity":52,"Duration":110480,"SoundDuration":110480,"Delta":442926369},{"NoteNumber":50,"Velocity":52,"Duration":110480,"SoundDuration":110480,"Delta":442926369},{"NoteNumber":53,"Velocity":52,"Duration":110480,"SoundDuration":110480,"Delta":442926369},{"NoteNumber":65,"Velocity":67,"Duration":331442,"SoundDuration":331442,"Delta":443036850},{"NoteNumber":74,"Velocity":67,"Duration":331442,"SoundDuration":331442,"Delta":443036850},{"NoteNumber":77,"Velocity":67,"Duration":331442,"SoundDuration":331442,"Delta":443036850},{"NoteNumber":46,"Velocity":60,"Duration":331442,"SoundDuration":331442,"Delta":443036850},{"NoteNumber":50,"Velocity":60,"Duration":331442,"SoundDuration":331442,"Delta":443036850},{"NoteNumber":53,"Velocity":60,"Duration":331442,"SoundDuration":331442,"Delta":443036850},{"NoteNumber":67,"Velocity":66,"Duration":112216,"SoundDuration":112216,"Delta":443368293},{"NoteNumber":76,"Velocity":66,"Duration":112216,"SoundDuration":112216,"Delta":443368293},{"NoteNumber":79,"Velocity":66,"Duration":112216,"SoundDuration":112216,"Delta":443368293},{"NoteNumber":46,"Velocity":59,"Duration":112216,"SoundDuration":112216,"Delta":443368293},{"NoteNumber":52,"Velocity":59,"Duration":112216,"SoundDuration":112216,"Delta":443368293},{"NoteNumber":55,"Velocity":59,"Duration":112216,"SoundDuration":112216,"Delta":443368293},{"NoteNumber":67,"Velocity":73,"Duration":336650,"SoundDuration":336650,"Delta":443480510},{"NoteNumber":76,"Velocity":73,"Duration":336650,"SoundDuration":336650,"Delta":443480510},{"NoteNumber":79,"Velocity":73,"Duration":336650,"SoundDuration":336650,"Delta":443480510},{"NoteNumber":46,"Velocity":64,"Duration":336650,"SoundDuration":336650,"Delta":443480510},{"NoteNumber":52,"Velocity":64,"Duration":336650,"SoundDuration":336650,"Delta":443480510},{"NoteNumber":55,"Velocity":64,"Duration":336650,"SoundDuration":336650,"Delta":443480510},{"NoteNumber":68,"Velocity":67,"Duration":112216,"SoundDuration":112216,"Delta":443817160},{"NoteNumber":77,"Velocity":67,"Duration":112216,"SoundDuration":112216,"Delta":443817160},{"NoteNumber":80,"Velocity":67,"Duration":112216,"SoundDuration":112216,"Delta":443817160},{"NoteNumber":47,"Velocity":60,"Duration":112216,"SoundDuration":112216,"Delta":443817160},{"NoteNumber":53,"Velocity":60,"Duration":112216,"SoundDuration":112216,"Delta":443817160},{"NoteNumber":56,"Velocity":60,"Duration":112216,"SoundDuration":112216,"Delta":443817160},{"NoteNumber":68,"Velocity":76,"Duration":336650,"SoundDuration":336650,"Delta":443929377},{"NoteNumber":77,"Velocity":76,"Duration":336650,"SoundDuration":336650,"Delta":443929377},{"NoteNumber":80,"Velocity":76,"Duration":336650,"SoundDuration":336650,"Delta":443929377},{"NoteNumber":47,"Velocity":68,"Duration":336650,"SoundDuration":336650,"Delta":443929377},{"NoteNumber":53,"Velocity":68,"Duration":336650,"SoundDuration":336650,"Delta":443929377},{"NoteNumber":56,"Velocity":68,"Duration":336650,"SoundDuration":336650,"Delta":443929377},{"NoteNumber":72,"Velocity":70,"Duration":110905,"SoundDuration":110905,"Delta":444266027},{"NoteNumber":68,"Velocity":70,"Duration":110905,"SoundDuration":110905,"Delta":444266027},{"NoteNumber":77,"Velocity":70,"Duration":110905,"SoundDuration":110905,"Delta":444266027},{"NoteNumber":80,"Velocity":70,"Duration":110905,"SoundDuration":110905,"Delta":444266027},{"NoteNumber":36,"Velocity":63,"Duration":110905,"SoundDuration":110905,"Delta":444266027},{"NoteNumber":48,"Velocity":63,"Duration":110905,"SoundDuration":110905,"Delta":444266027},{"NoteNumber":72,"Velocity":76,"Duration":332717,"SoundDuration":332717,"Delta":444376933},{"NoteNumber":68,"Velocity":76,"Duration":332717,"SoundDuration":332717,"Delta":444376933},{"NoteNumber":77,"Velocity":76,"Duration":332717,"SoundDuration":332717,"Delta":444376933},{"NoteNumber":80,"Velocity":76,"Duration":332717,"SoundDuration":332717,"Delta":444376933},{"NoteNumber":36,"Velocity":67,"Duration":332717,"SoundDuration":332717,"Delta":444376933},{"NoteNumber":48,"Velocity":67,"Duration":332717,"SoundDuration":332717,"Delta":444376933},{"NoteNumber":67,"Velocity":71,"Duration":114915,"SoundDuration":114915,"Delta":444709650},{"NoteNumber":71,"Velocity":71,"Duration":114915,"SoundDuration":114915,"Delta":444709650},{"NoteNumber":77,"Velocity":71,"Duration":114915,"SoundDuration":114915,"Delta":444709650},{"NoteNumber":79,"Velocity":71,"Duration":114915,"SoundDuration":114915,"Delta":444709650},{"NoteNumber":38,"Velocity":64,"Duration":114915,"SoundDuration":114915,"Delta":444709650},{"NoteNumber":50,"Velocity":64,"Duration":114915,"SoundDuration":114915,"Delta":444709650},{"NoteNumber":67,"Velocity":78,"Duration":344747,"SoundDuration":344747,"Delta":444824566},{"NoteNumber":71,"Velocity":78,"Duration":344747,"SoundDuration":344747,"Delta":444824566},{"NoteNumber":77,"Velocity":78,"Duration":344747,"SoundDuration":344747,"Delta":444824566},{"NoteNumber":79,"Velocity":78,"Duration":344747,"SoundDuration":344747,"Delta":444824566},{"NoteNumber":38,"Velocity":69,"Duration":344747,"SoundDuration":344747,"Delta":444824566},{"NoteNumber":50,"Velocity":69,"Duration":344747,"SoundDuration":344747,"Delta":444824566},{"NoteNumber":67,"Velocity":65,"Duration":117270,"SoundDuration":117270,"Delta":445169314},{"NoteNumber":71,"Velocity":65,"Duration":117270,"SoundDuration":117270,"Delta":445169314},{"NoteNumber":74,"Velocity":73,"Duration":117270,"SoundDuration":117270,"Delta":445169314},{"NoteNumber":77,"Velocity":73,"Duration":117270,"SoundDuration":117270,"Delta":445169314},{"NoteNumber":79,"Velocity":73,"Duration":117270,"SoundDuration":117270,"Delta":445169314},{"NoteNumber":31,"Velocity":58,"Duration":117270,"SoundDuration":117270,"Delta":445169314},{"NoteNumber":43,"Velocity":65,"Duration":117270,"SoundDuration":117270,"Delta":445169314},{"NoteNumber":67,"Velocity":81,"Duration":351810,"SoundDuration":351810,"Delta":445286584},{"NoteNumber":71,"Velocity":81,"Duration":351810,"SoundDuration":351810,"Delta":445286584},{"NoteNumber":74,"Velocity":81,"Duration":351810,"SoundDuration":351810,"Delta":445286584},{"NoteNumber":77,"Velocity":81,"Duration":351810,"SoundDuration":351810,"Delta":445286584},{"NoteNumber":79,"Velocity":81,"Duration":351810,"SoundDuration":351810,"Delta":445286584},{"NoteNumber":31,"Velocity":64,"Duration":351810,"SoundDuration":351810,"Delta":445286584},{"NoteNumber":43,"Velocity":72,"Duration":351810,"SoundDuration":351810,"Delta":445286584},{"NoteNumber":64,"Velocity":69,"Duration":121251,"SoundDuration":121251,"Delta":445638394},{"NoteNumber":67,"Velocity":69,"Duration":121251,"SoundDuration":121251,"Delta":445638394},{"NoteNumber":72,"Velocity":77,"Duration":121251,"SoundDuration":121251,"Delta":445638394},{"NoteNumber":76,"Velocity":77,"Duration":121251,"SoundDuration":121251,"Delta":445638394},{"NoteNumber":36,"Velocity":61,"Duration":121251,"SoundDuration":121251,"Delta":445638394},{"NoteNumber":48,"Velocity":68,"Duration":121251,"SoundDuration":121251,"Delta":445638394},{"NoteNumber":64,"Velocity":84,"Duration":351810,"SoundDuration":351810,"Delta":445759645},{"NoteNumber":67,"Velocity":84,"Duration":351810,"SoundDuration":351810,"Delta":445759645},{"NoteNumber":72,"Velocity":94,"Duration":351810,"SoundDuration":351810,"Delta":445759645},{"NoteNumber":76,"Velocity":94,"Duration":351810,"SoundDuration":351810,"Delta":445759645},{"NoteNumber":36,"Velocity":69,"Duration":478424,"SoundDuration":478424,"Delta":445759645},{"NoteNumber":48,"Velocity":77,"Duration":478424,"SoundDuration":478424,"Delta":445759645},{"NoteNumber":72,"Velocity":72,"Duration":84409,"SoundDuration":84409,"Delta":446111455},{"NoteNumber":76,"Velocity":80,"Duration":84409,"SoundDuration":84409,"Delta":446111455},{"NoteNumber":67,"Velocity":72,"Duration":84409,"SoundDuration":84409,"Delta":446111455},{"NoteNumber":79,"Velocity":80,"Duration":84409,"SoundDuration":84409,"Delta":446111455},{"NoteNumber":67,"Velocity":81,"Duration":95379,"SoundDuration":95379,"Delta":446238069},{"NoteNumber":72,"Velocity":81,"Duration":95379,"SoundDuration":95379,"Delta":446238069},{"NoteNumber":76,"Velocity":91,"Duration":95379,"SoundDuration":95379,"Delta":446238069},{"NoteNumber":79,"Velocity":91,"Duration":95379,"SoundDuration":95379,"Delta":446238069},{"NoteNumber":84,"Velocity":82,"Duration":95379,"SoundDuration":95379,"Delta":446492414},{"NoteNumber":79,"Velocity":82,"Duration":95379,"SoundDuration":95379,"Delta":446492414},{"NoteNumber":76,"Velocity":73,"Duration":95379,"SoundDuration":95379,"Delta":446492414},{"NoteNumber":72,"Velocity":73,"Duration":95379,"SoundDuration":95379,"Delta":446492414},{"NoteNumber":72,"Velocity":84,"Duration":468442,"SoundDuration":468442,"Delta":446756498},{"NoteNumber":77,"Velocity":94,"Duration":468442,"SoundDuration":468442,"Delta":446756498},{"NoteNumber":80,"Velocity":94,"Duration":468442,"SoundDuration":468442,"Delta":446756498},{"NoteNumber":48,"Velocity":92,"Duration":346153,"SoundDuration":346153,"Delta":446756498},{"NoteNumber":60,"Velocity":92,"Duration":346153,"SoundDuration":346153,"Delta":446756498},{"NoteNumber":44,"Velocity":81,"Duration":81526,"SoundDuration":81526,"Delta":447102652},{"NoteNumber":56,"Velocity":81,"Duration":81526,"SoundDuration":81526,"Delta":447102652},{"NoteNumber":44,"Velocity":85,"Duration":92107,"SoundDuration":92107,"Delta":447224941},{"NoteNumber":56,"Velocity":85,"Duration":92107,"SoundDuration":92107,"Delta":447224941},{"NoteNumber":41,"Velocity":80,"Duration":92107,"SoundDuration":92107,"Delta":447470561},{"NoteNumber":53,"Velocity":80,"Duration":92107,"SoundDuration":92107,"Delta":447470561},{"NoteNumber":64,"Velocity":84,"Duration":336650,"SoundDuration":336650,"Delta":447724627},{"NoteNumber":67,"Velocity":84,"Duration":336650,"SoundDuration":336650,"Delta":447724627},{"NoteNumber":72,"Velocity":94,"Duration":336650,"SoundDuration":336650,"Delta":447724627},{"NoteNumber":76,"Velocity":94,"Duration":336650,"SoundDuration":336650,"Delta":447724627},{"NoteNumber":36,"Velocity":77,"Duration":458939,"SoundDuration":458939,"Delta":447724627},{"NoteNumber":48,"Velocity":77,"Duration":458939,"SoundDuration":458939,"Delta":447724627},{"NoteNumber":72,"Velocity":69,"Duration":81526,"SoundDuration":81526,"Delta":448061278},{"NoteNumber":76,"Velocity":77,"Duration":81526,"SoundDuration":81526,"Delta":448061278},{"NoteNumber":67,"Velocity":69,"Duration":81526,"SoundDuration":81526,"Delta":448061278},{"NoteNumber":79,"Velocity":77,"Duration":81526,"SoundDuration":81526,"Delta":448061278},{"NoteNumber":67,"Velocity":82,"Duration":94960,"SoundDuration":94960,"Delta":448183567},{"NoteNumber":72,"Velocity":82,"Duration":94960,"SoundDuration":94960,"Delta":448183567},{"NoteNumber":76,"Velocity":92,"Duration":94960,"SoundDuration":94960,"Delta":448183567},{"NoteNumber":79,"Velocity":92,"Duration":94960,"SoundDuration":94960,"Delta":448183567},{"NoteNumber":84,"Velocity":85,"Duration":94960,"SoundDuration":94960,"Delta":448436795},{"NoteNumber":79,"Velocity":76,"Duration":94960,"SoundDuration":94960,"Delta":448436795},{"NoteNumber":76,"Velocity":85,"Duration":94960,"SoundDuration":94960,"Delta":448436795},{"NoteNumber":72,"Velocity":76,"Duration":94960,"SoundDuration":94960,"Delta":448436795},{"NoteNumber":72,"Velocity":84,"Duration":469488,"SoundDuration":469488,"Delta":448697123},{"NoteNumber":77,"Velocity":94,"Duration":469488,"SoundDuration":469488,"Delta":448697123},{"NoteNumber":80,"Velocity":94,"Duration":469488,"SoundDuration":469488,"Delta":448697123},{"NoteNumber":48,"Velocity":92,"Duration":346153,"SoundDuration":346153,"Delta":448697123},{"NoteNumber":60,"Velocity":92,"Duration":346153,"SoundDuration":346153,"Delta":448697123},{"NoteNumber":44,"Velocity":81,"Duration":82223,"SoundDuration":82223,"Delta":449043277},{"NoteNumber":56,"Velocity":81,"Duration":82223,"SoundDuration":82223,"Delta":449043277},{"NoteNumber":44,"Velocity":85,"Duration":98442,"SoundDuration":98442,"Delta":449166612},{"NoteNumber":56,"Velocity":85,"Duration":98442,"SoundDuration":98442,"Delta":449166612},{"NoteNumber":41,"Velocity":80,"Duration":98442,"SoundDuration":98442,"Delta":449429125},{"NoteNumber":53,"Velocity":80,"Duration":98442,"SoundDuration":98442,"Delta":449429125},{"NoteNumber":84,"Velocity":84,"Duration":342543,"SoundDuration":342543,"Delta":449702750},{"NoteNumber":79,"Velocity":84,"Duration":342543,"SoundDuration":342543,"Delta":449702750},{"NoteNumber":76,"Velocity":84,"Duration":342543,"SoundDuration":342543,"Delta":449702750},{"NoteNumber":72,"Velocity":84,"Duration":342543,"SoundDuration":342543,"Delta":449702750},{"NoteNumber":36,"Velocity":70,"Duration":459969,"SoundDuration":459969,"Delta":449702750},{"NoteNumber":48,"Velocity":70,"Duration":459969,"SoundDuration":459969,"Delta":449702750},{"NoteNumber":72,"Velocity":58,"Duration":117426,"SoundDuration":117426,"Delta":450045294},{"NoteNumber":72,"Velocity":70,"Duration":350849,"SoundDuration":350849,"Delta":450162720},{"NoteNumber":72,"Velocity":55,"Duration":130650,"SoundDuration":130650,"Delta":450513570},{"NoteNumber":84,"Velocity":69,"Duration":342543,"SoundDuration":342543,"Delta":450644221},{"NoteNumber":79,"Velocity":69,"Duration":342543,"SoundDuration":342543,"Delta":450644221},{"NoteNumber":76,"Velocity":69,"Duration":342543,"SoundDuration":342543,"Delta":450644221},{"NoteNumber":72,"Velocity":69,"Duration":342543,"SoundDuration":342543,"Delta":450644221},{"NoteNumber":72,"Velocity":57,"Duration":117426,"SoundDuration":117426,"Delta":450986765},{"NoteNumber":72,"Velocity":69,"Duration":352277,"SoundDuration":352277,"Delta":451104191},{"NoteNumber":72,"Velocity":56,"Duration":130650,"SoundDuration":130650,"Delta":451456469},{"NoteNumber":72,"Velocity":66,"Duration":346633,"SoundDuration":346633,"Delta":451587119},{"NoteNumber":67,"Velocity":45,"Duration":1882795,"SoundDuration":1882795,"Delta":451587119},{"NoteNumber":64,"Velocity":36,"Duration":1882795,"SoundDuration":1882795,"Delta":451587119},{"NoteNumber":58,"Velocity":36,"Duration":1882795,"SoundDuration":1882795,"Delta":451587119},{"NoteNumber":73,"Velocity":58,"Duration":117426,"SoundDuration":117426,"Delta":451933753},{"NoteNumber":73,"Velocity":64,"Duration":352277,"SoundDuration":352277,"Delta":452051179},{"NoteNumber":72,"Velocity":51,"Duration":117896,"SoundDuration":117896,"Delta":452403457},{"NoteNumber":72,"Velocity":63,"Duration":353690,"SoundDuration":353690,"Delta":452521354},{"NoteNumber":72,"Velocity":53,"Duration":118380,"SoundDuration":118380,"Delta":452875044},{"NoteNumber":72,"Velocity":62,"Duration":355141,"SoundDuration":355141,"Delta":452993424},{"NoteNumber":72,"Velocity":49,"Duration":121349,"SoundDuration":121349,"Delta":453348566},{"NoteNumber":72,"Velocity":60,"Duration":342543,"SoundDuration":342543,"Delta":453469915},{"NoteNumber":65,"Velocity":45,"Duration":1867471,"SoundDuration":1867471,"Delta":453469915},{"NoteNumber":60,"Velocity":36,"Duration":1867471,"SoundDuration":1867471,"Delta":453469915},{"NoteNumber":57,"Velocity":36,"Duration":1867471,"SoundDuration":1867471,"Delta":453469915},{"NoteNumber":77,"Velocity":49,"Duration":116477,"SoundDuration":116477,"Delta":453812459},{"NoteNumber":77,"Velocity":63,"Duration":349433,"SoundDuration":349433,"Delta":453928937},{"NoteNumber":72,"Velocity":44,"Duration":116949,"SoundDuration":116949,"Delta":454278370},{"NoteNumber":72,"Velocity":56,"Duration":350850,"SoundDuration":350850,"Delta":454395320},{"NoteNumber":72,"Velocity":42,"Duration":116949,"SoundDuration":116949,"Delta":454746170},{"NoteNumber":72,"Velocity":54,"Duration":350850,"SoundDuration":350850,"Delta":454863120},{"NoteNumber":72,"Velocity":41,"Duration":123416,"SoundDuration":123416,"Delta":455213970},{"NoteNumber":72,"Velocity":53,"Duration":342543,"SoundDuration":342543,"Delta":455337386},{"NoteNumber":64,"Velocity":40,"Duration":1884795,"SoundDuration":1884795,"Delta":455337386},{"NoteNumber":55,"Velocity":32,"Duration":1884795,"SoundDuration":1884795,"Delta":455337386},{"NoteNumber":58,"Velocity":32,"Duration":1884795,"SoundDuration":1884795,"Delta":455337386},{"NoteNumber":74,"Velocity":39,"Duration":115092,"SoundDuration":115092,"Delta":455679930},{"NoteNumber":74,"Velocity":52,"Duration":345277,"SoundDuration":345277,"Delta":455795023},{"NoteNumber":72,"Velocity":39,"Duration":117426,"SoundDuration":117426,"Delta":456140300},{"NoteNumber":72,"Velocity":50,"Duration":352277,"SoundDuration":352277,"Delta":456257726},{"NoteNumber":82,"Velocity":37,"Duration":121251,"SoundDuration":121251,"Delta":456610004},{"NoteNumber":82,"Velocity":47,"Duration":363753,"SoundDuration":363753,"Delta":456731255},{"NoteNumber":76,"Velocity":35,"Duration":127172,"SoundDuration":127172,"Delta":457095009},{"NoteNumber":89,"Velocity":47,"Duration":342543,"SoundDuration":342543,"Delta":457222182},{"NoteNumber":77,"Velocity":47,"Duration":342543,"SoundDuration":342543,"Delta":457222182},{"NoteNumber":65,"Velocity":35,"Duration":878158,"SoundDuration":878158,"Delta":457222182},{"NoteNumber":57,"Velocity":28,"Duration":878158,"SoundDuration":878158,"Delta":457222182},{"NoteNumber":53,"Velocity":28,"Duration":878158,"SoundDuration":878158,"Delta":457222182},{"NoteNumber":84,"Velocity":35,"Duration":76120,"SoundDuration":76120,"Delta":457564725},{"NoteNumber":84,"Velocity":43,"Duration":304483,"SoundDuration":304483,"Delta":457678907},{"NoteNumber":84,"Velocity":34,"Duration":77966,"SoundDuration":77966,"Delta":458022373},{"NoteNumber":83,"Velocity":42,"Duration":304483,"SoundDuration":304483,"Delta":458139323},{"NoteNumber":53,"Velocity":27,"Duration":877866,"SoundDuration":877866,"Delta":458139323},{"NoteNumber":57,"Velocity":27,"Duration":877866,"SoundDuration":877866,"Delta":458139323},{"NoteNumber":60,"Velocity":34,"Duration":877866,"SoundDuration":877866,"Delta":458139323},{"NoteNumber":84,"Velocity":34,"Duration":76120,"SoundDuration":76120,"Delta":458481867},{"NoteNumber":84,"Velocity":41,"Duration":304483,"SoundDuration":304483,"Delta":458596048},{"NoteNumber":84,"Velocity":35,"Duration":78597,"SoundDuration":78597,"Delta":458938592},{"NoteNumber":81,"Velocity":44,"Duration":304483,"SoundDuration":304483,"Delta":459056489},{"NoteNumber":84,"Velocity":34,"Duration":76120,"SoundDuration":76120,"Delta":459399032},{"NoteNumber":93,"Velocity":42,"Duration":304483,"SoundDuration":304483,"Delta":459513214},{"NoteNumber":53,"Velocity":22,"Duration":420510,"SoundDuration":420510,"Delta":459513214},{"NoteNumber":57,"Velocity":22,"Duration":420510,"SoundDuration":420510,"Delta":459513214},{"NoteNumber":60,"Velocity":28,"Duration":420510,"SoundDuration":420510,"Delta":459513214},{"NoteNumber":91,"Velocity":34,"Duration":77966,"SoundDuration":77966,"Delta":459855757},{"NoteNumber":91,"Velocity":41,"Duration":304190,"SoundDuration":304190,"Delta":459972707},{"NoteNumber":53,"Velocity":22,"Duration":417637,"SoundDuration":417637,"Delta":459972707},{"NoteNumber":57,"Velocity":22,"Duration":417637,"SoundDuration":417637,"Delta":459972707},{"NoteNumber":60,"Velocity":28,"Duration":417637,"SoundDuration":417637,"Delta":459972707},{"NoteNumber":93,"Velocity":35,"Duration":75680,"SoundDuration":75680,"Delta":460314665},{"NoteNumber":93,"Velocity":41,"Duration":314021,"SoundDuration":314021,"Delta":460428258},{"NoteNumber":53,"Velocity":20,"Duration":436945,"SoundDuration":436945,"Delta":460428258},{"NoteNumber":57,"Velocity":20,"Duration":436945,"SoundDuration":436945,"Delta":460428258},{"NoteNumber":60,"Velocity":26,"Duration":436945,"SoundDuration":436945,"Delta":460428258},{"NoteNumber":89,"Velocity":37,"Duration":84409,"SoundDuration":84409,"Delta":460780795},{"NoteNumber":88,"Velocity":48,"Duration":304483,"SoundDuration":304483,"Delta":460907409},{"NoteNumber":62,"Velocity":31,"Duration":878514,"SoundDuration":878514,"Delta":460907409},{"NoteNumber":58,"Velocity":24,"Duration":878514,"SoundDuration":878514,"Delta":460907409},{"NoteNumber":53,"Velocity":24,"Duration":878514,"SoundDuration":878514,"Delta":460907409},{"NoteNumber":86,"Velocity":33,"Duration":76120,"SoundDuration":76120,"Delta":461249953},{"NoteNumber":86,"Velocity":43,"Duration":304483,"SoundDuration":304483,"Delta":461364134},{"NoteNumber":86,"Velocity":35,"Duration":79245,"SoundDuration":79245,"Delta":461706678},{"NoteNumber":85,"Velocity":45,"Duration":304483,"SoundDuration":304483,"Delta":461825546},{"NoteNumber":53,"Velocity":24,"Duration":887709,"SoundDuration":887709,"Delta":461825546},{"NoteNumber":58,"Velocity":24,"Duration":887709,"SoundDuration":887709,"Delta":461825546},{"NoteNumber":62,"Velocity":30,"Duration":887709,"SoundDuration":887709,"Delta":461825546},{"NoteNumber":86,"Velocity":34,"Duration":77029,"SoundDuration":77029,"Delta":462168090},{"NoteNumber":86,"Velocity":44,"Duration":308118,"SoundDuration":308118,"Delta":462283634},{"NoteNumber":86,"Velocity":33,"Duration":82987,"SoundDuration":82987,"Delta":462630268},{"NoteNumber":82,"Velocity":44,"Duration":342543,"SoundDuration":342543,"Delta":462754749},{"NoteNumber":86,"Velocity":35,"Duration":114181,"SoundDuration":114181,"Delta":463097293},{"NoteNumber":91,"Velocity":43,"Duration":342543,"SoundDuration":342543,"Delta":463211474},{"NoteNumber":64,"Velocity":24,"Duration":422117,"SoundDuration":422117,"Delta":463211474},{"NoteNumber":60,"Velocity":19,"Duration":422117,"SoundDuration":422117,"Delta":463211474},{"NoteNumber":58,"Velocity":19,"Duration":422117,"SoundDuration":422117,"Delta":463211474},{"NoteNumber":53,"Velocity":19,"Duration":422117,"SoundDuration":422117,"Delta":463211474},{"NoteNumber":89,"Velocity":34,"Duration":119360,"SoundDuration":119360,"Delta":463554018},{"NoteNumber":89,"Velocity":44,"Duration":345277,"SoundDuration":345277,"Delta":463673378},{"NoteNumber":62,"Velocity":24,"Duration":423244,"SoundDuration":423244,"Delta":463673378},{"NoteNumber":60,"Velocity":19,"Duration":423244,"SoundDuration":423244,"Delta":463673378},{"NoteNumber":58,"Velocity":19,"Duration":423244,"SoundDuration":423244,"Delta":463673378},{"NoteNumber":53,"Velocity":19,"Duration":423244,"SoundDuration":423244,"Delta":463673378},{"NoteNumber":91,"Velocity":34,"Duration":116949,"SoundDuration":116949,"Delta":464018655},{"NoteNumber":91,"Velocity":42,"Duration":356254,"SoundDuration":356254,"Delta":464135605},{"NoteNumber":64,"Velocity":24,"Duration":441418,"SoundDuration":441418,"Delta":464135605},{"NoteNumber":60,"Velocity":19,"Duration":441418,"SoundDuration":441418,"Delta":464135605},{"NoteNumber":58,"Velocity":19,"Duration":441418,"SoundDuration":441418,"Delta":464135605},{"NoteNumber":53,"Velocity":19,"Duration":441418,"SoundDuration":441418,"Delta":464135605},{"NoteNumber":88,"Velocity":33,"Duration":127746,"SoundDuration":127746,"Delta":464491859},{"NoteNumber":84,"Velocity":47,"Duration":342543,"SoundDuration":342543,"Delta":464619606},{"NoteNumber":60,"Velocity":29,"Duration":878158,"SoundDuration":878158,"Delta":464619606},{"NoteNumber":65,"Velocity":37,"Duration":878158,"SoundDuration":878158,"Delta":464619606},{"NoteNumber":57,"Velocity":29,"Duration":878158,"SoundDuration":878158,"Delta":464619606},{"NoteNumber":53,"Velocity":29,"Duration":878158,"SoundDuration":878158,"Delta":464619606},{"NoteNumber":72,"Velocity":35,"Duration":114181,"SoundDuration":114181,"Delta":464962150},{"NoteNumber":72,"Velocity":43,"Duration":343466,"SoundDuration":343466,"Delta":465076331},{"NoteNumber":72,"Velocity":36,"Duration":116950,"SoundDuration":116950,"Delta":465419798},{"NoteNumber":71,"Velocity":42,"Duration":342543,"SoundDuration":342543,"Delta":465536748},{"NoteNumber":53,"Velocity":23,"Duration":877866,"SoundDuration":877866,"Delta":465536748},{"NoteNumber":56,"Velocity":23,"Duration":877866,"SoundDuration":877866,"Delta":465536748},{"NoteNumber":60,"Velocity":29,"Duration":877866,"SoundDuration":877866,"Delta":465536748},{"NoteNumber":72,"Velocity":33,"Duration":114181,"SoundDuration":114181,"Delta":465879291},{"NoteNumber":72,"Velocity":41,"Duration":342543,"SoundDuration":342543,"Delta":465993473},{"NoteNumber":72,"Velocity":35,"Duration":117896,"SoundDuration":117896,"Delta":466336016},{"NoteNumber":68,"Velocity":44,"Duration":342543,"SoundDuration":342543,"Delta":466453913},{"NoteNumber":72,"Velocity":33,"Duration":114181,"SoundDuration":114181,"Delta":466796457},{"NoteNumber":80,"Velocity":42,"Duration":342543,"SoundDuration":342543,"Delta":466910638},{"NoteNumber":53,"Velocity":22,"Duration":420510,"SoundDuration":420510,"Delta":466910638},{"NoteNumber":56,"Velocity":22,"Duration":420510,"SoundDuration":420510,"Delta":466910638},{"NoteNumber":60,"Velocity":28,"Duration":420510,"SoundDuration":420510,"Delta":466910638},{"NoteNumber":79,"Velocity":31,"Duration":116949,"SoundDuration":116949,"Delta":467253182},{"NoteNumber":79,"Velocity":41,"Duration":341957,"SoundDuration":341957,"Delta":467370132},{"NoteNumber":53,"Velocity":22,"Duration":417637,"SoundDuration":417637,"Delta":467370132},{"NoteNumber":56,"Velocity":22,"Duration":417637,"SoundDuration":417637,"Delta":467370132},{"NoteNumber":60,"Velocity":28,"Duration":417637,"SoundDuration":417637,"Delta":467370132},{"NoteNumber":80,"Velocity":33,"Duration":113593,"SoundDuration":113593,"Delta":467712089},{"NoteNumber":80,"Velocity":41,"Duration":343921,"SoundDuration":343921,"Delta":467825683},{"NoteNumber":53,"Velocity":20,"Duration":425794,"SoundDuration":425794,"Delta":467825683},{"NoteNumber":56,"Velocity":20,"Duration":425794,"SoundDuration":425794,"Delta":467825683},{"NoteNumber":60,"Velocity":26,"Duration":425794,"SoundDuration":425794,"Delta":467825683},{"NoteNumber":77,"Velocity":34,"Duration":122810,"SoundDuration":122810,"Delta":468169604},{"NoteNumber":79,"Velocity":48,"Duration":342543,"SoundDuration":342543,"Delta":468292414},{"NoteNumber":65,"Velocity":31,"Duration":878514,"SoundDuration":878514,"Delta":468292414},{"NoteNumber":61,"Velocity":24,"Duration":878514,"SoundDuration":878514,"Delta":468292414},{"NoteNumber":56,"Velocity":24,"Duration":878514,"SoundDuration":878514,"Delta":468292414},{"NoteNumber":53,"Velocity":24,"Duration":878514,"SoundDuration":878514,"Delta":468292414},{"NoteNumber":77,"Velocity":39,"Duration":114181,"SoundDuration":114181,"Delta":468634957},{"NoteNumber":77,"Velocity":43,"Duration":342543,"SoundDuration":342543,"Delta":468749139},{"NoteNumber":77,"Velocity":41,"Duration":118868,"SoundDuration":118868,"Delta":469091682},{"NoteNumber":76,"Velocity":45,"Duration":342543,"SoundDuration":342543,"Delta":469210551},{"NoteNumber":56,"Velocity":24,"Duration":887709,"SoundDuration":887709,"Delta":469210551},{"NoteNumber":61,"Velocity":24,"Duration":887709,"SoundDuration":887709,"Delta":469210551},{"NoteNumber":65,"Velocity":30,"Duration":887709,"SoundDuration":887709,"Delta":469210551},{"NoteNumber":77,"Velocity":41,"Duration":115544,"SoundDuration":115544,"Delta":469553094},{"NoteNumber":77,"Velocity":44,"Duration":346633,"SoundDuration":346633,"Delta":469668639},{"NoteNumber":77,"Velocity":41,"Duration":124481,"SoundDuration":124481,"Delta":470015272},{"NoteNumber":73,"Velocity":44,"Duration":342543,"SoundDuration":342543,"Delta":470139754},{"NoteNumber":77,"Velocity":36,"Duration":114181,"SoundDuration":114181,"Delta":470482297},{"NoteNumber":82,"Velocity":43,"Duration":342543,"SoundDuration":342543,"Delta":470596479},{"NoteNumber":67,"Velocity":22,"Duration":422117,"SoundDuration":422117,"Delta":470596479},{"NoteNumber":63,"Velocity":17,"Duration":422117,"SoundDuration":422117,"Delta":470596479},{"NoteNumber":61,"Velocity":17,"Duration":422117,"SoundDuration":422117,"Delta":470596479},{"NoteNumber":56,"Velocity":17,"Duration":422117,"SoundDuration":422117,"Delta":470596479},{"NoteNumber":80,"Velocity":35,"Duration":119360,"SoundDuration":119360,"Delta":470939022},{"NoteNumber":80,"Velocity":44,"Duration":345277,"SoundDuration":345277,"Delta":471058383},{"NoteNumber":65,"Velocity":24,"Duration":423244,"SoundDuration":423244,"Delta":471058383},{"NoteNumber":63,"Velocity":19,"Duration":423244,"SoundDuration":423244,"Delta":471058383},{"NoteNumber":61,"Velocity":19,"Duration":423244,"SoundDuration":423244,"Delta":471058383},{"NoteNumber":56,"Velocity":19,"Duration":423244,"SoundDuration":423244,"Delta":471058383},{"NoteNumber":82,"Velocity":34,"Duration":116949,"SoundDuration":116949,"Delta":471403660},{"NoteNumber":82,"Velocity":42,"Duration":351489,"SoundDuration":351489,"Delta":471520610},{"NoteNumber":67,"Velocity":22,"Duration":430734,"SoundDuration":430734,"Delta":471520610},{"NoteNumber":63,"Velocity":17,"Duration":430734,"SoundDuration":430734,"Delta":471520610},{"NoteNumber":61,"Velocity":17,"Duration":430734,"SoundDuration":430734,"Delta":471520610},{"NoteNumber":56,"Velocity":17,"Duration":430734,"SoundDuration":430734,"Delta":471520610},{"NoteNumber":79,"Velocity":34,"Duration":118868,"SoundDuration":118868,"Delta":471872100},{"NoteNumber":75,"Velocity":45,"Duration":348054,"SoundDuration":348054,"Delta":471990968},{"NoteNumber":56,"Velocity":20,"Duration":1837590,"SoundDuration":1837590,"Delta":471990968},{"NoteNumber":60,"Velocity":20,"Duration":1837590,"SoundDuration":1837590,"Delta":471990968},{"NoteNumber":63,"Velocity":20,"Duration":1837590,"SoundDuration":1837590,"Delta":471990968},{"NoteNumber":68,"Velocity":26,"Duration":1837590,"SoundDuration":1837590,"Delta":471990968},{"NoteNumber":84,"Velocity":40,"Duration":114181,"SoundDuration":114181,"Delta":472339023},{"NoteNumber":84,"Velocity":48,"Duration":342543,"SoundDuration":342543,"Delta":472453204},{"NoteNumber":82,"Velocity":36,"Duration":114181,"SoundDuration":114181,"Delta":472795748},{"NoteNumber":82,"Velocity":46,"Duration":342543,"SoundDuration":342543,"Delta":472909929},{"NoteNumber":80,"Velocity":35,"Duration":114181,"SoundDuration":114181,"Delta":473252473},{"NoteNumber":80,"Velocity":44,"Duration":342543,"SoundDuration":342543,"Delta":473366654},{"NoteNumber":78,"Velocity":35,"Duration":119360,"SoundDuration":119360,"Delta":473709198},{"NoteNumber":78,"Velocity":44,"Duration":348054,"SoundDuration":348054,"Delta":473828558},{"NoteNumber":57,"Velocity":17,"Duration":1849367,"SoundDuration":1849367,"Delta":473828558},{"NoteNumber":60,"Velocity":17,"Duration":1849367,"SoundDuration":1849367,"Delta":473828558},{"NoteNumber":63,"Velocity":17,"Duration":1849367,"SoundDuration":1849367,"Delta":473828558},{"NoteNumber":65,"Velocity":22,"Duration":1849367,"SoundDuration":1849367,"Delta":473828558},{"NoteNumber":77,"Velocity":35,"Duration":115544,"SoundDuration":115544,"Delta":474176613},{"NoteNumber":77,"Velocity":40,"Duration":346633,"SoundDuration":346633,"Delta":474292157},{"NoteNumber":77,"Velocity":35,"Duration":118868,"SoundDuration":118868,"Delta":474638791},{"NoteNumber":76,"Velocity":40,"Duration":342543,"SoundDuration":342543,"Delta":474757659},{"NoteNumber":75,"Velocity":34,"Duration":115544,"SoundDuration":115544,"Delta":475100203},{"NoteNumber":75,"Velocity":40,"Duration":346633,"SoundDuration":346633,"Delta":475215747},{"NoteNumber":75,"Velocity":39,"Duration":115544,"SoundDuration":115544,"Delta":475562381},{"NoteNumber":73,"Velocity":45,"Duration":354721,"SoundDuration":354721,"Delta":475677925},{"NoteNumber":58,"Velocity":20,"Duration":1844256,"SoundDuration":1844256,"Delta":475677925},{"NoteNumber":61,"Velocity":20,"Duration":1844256,"SoundDuration":1844256,"Delta":475677925},{"NoteNumber":65,"Velocity":26,"Duration":1844256,"SoundDuration":1844256,"Delta":475677925},{"NoteNumber":85,"Velocity":45,"Duration":114181,"SoundDuration":114181,"Delta":476032647},{"NoteNumber":85,"Velocity":48,"Duration":342543,"SoundDuration":342543,"Delta":476146828},{"NoteNumber":84,"Velocity":38,"Duration":114181,"SoundDuration":114181,"Delta":476489372},{"NoteNumber":84,"Velocity":46,"Duration":342543,"SoundDuration":342543,"Delta":476603553},{"NoteNumber":82,"Velocity":38,"Duration":114181,"SoundDuration":114181,"Delta":476946097},{"NoteNumber":82,"Velocity":44,"Duration":342543,"SoundDuration":342543,"Delta":477060278},{"NoteNumber":80,"Velocity":38,"Duration":119360,"SoundDuration":119360,"Delta":477402822},{"NoteNumber":80,"Velocity":44,"Duration":348054,"SoundDuration":348054,"Delta":477522182},{"NoteNumber":59,"Velocity":17,"Duration":1849367,"SoundDuration":1849367,"Delta":477522182},{"NoteNumber":62,"Velocity":17,"Duration":1849367,"SoundDuration":1849367,"Delta":477522182},{"NoteNumber":65,"Velocity":17,"Duration":1849367,"SoundDuration":1849367,"Delta":477522182},{"NoteNumber":67,"Velocity":22,"Duration":1849367,"SoundDuration":1849367,"Delta":477522182},{"NoteNumber":79,"Velocity":35,"Duration":115544,"SoundDuration":115544,"Delta":477870237},{"NoteNumber":79,"Velocity":40,"Duration":346633,"SoundDuration":346633,"Delta":477985781},{"NoteNumber":79,"Velocity":34,"Duration":118868,"SoundDuration":118868,"Delta":478332415},{"NoteNumber":78,"Velocity":40,"Duration":342543,"SoundDuration":342543,"Delta":478451283},{"NoteNumber":77,"Velocity":36,"Duration":115544,"SoundDuration":115544,"Delta":478793827},{"NoteNumber":77,"Velocity":40,"Duration":346633,"SoundDuration":346633,"Delta":478909371},{"NoteNumber":77,"Velocity":36,"Duration":115544,"SoundDuration":115544,"Delta":479256005},{"NoteNumber":76,"Velocity":45,"Duration":347544,"SoundDuration":347544,"Delta":479371549},{"NoteNumber":60,"Velocity":20,"Duration":918450,"SoundDuration":918450,"Delta":479371549},{"NoteNumber":64,"Velocity":20,"Duration":918450,"SoundDuration":918450,"Delta":479371549},{"NoteNumber":67,"Velocity":25,"Duration":918450,"SoundDuration":918450,"Delta":479371549},{"NoteNumber":88,"Velocity":41,"Duration":114181,"SoundDuration":114181,"Delta":479719093},{"NoteNumber":88,"Velocity":49,"Duration":342543,"SoundDuration":342543,"Delta":479833274},{"NoteNumber":88,"Velocity":41,"Duration":114181,"SoundDuration":114181,"Delta":480175818},{"NoteNumber":91,"Velocity":51,"Duration":342543,"SoundDuration":342543,"Delta":480289999},{"NoteNumber":67,"Velocity":22,"Duration":1837492,"SoundDuration":1837492,"Delta":480289999},{"NoteNumber":70,"Velocity":28,"Duration":1837492,"SoundDuration":1837492,"Delta":480289999},{"NoteNumber":61,"Velocity":22,"Duration":924042,"SoundDuration":924042,"Delta":480289999},{"NoteNumber":89,"Velocity":42,"Duration":116018,"SoundDuration":116018,"Delta":480632543},{"NoteNumber":89,"Velocity":50,"Duration":348054,"SoundDuration":348054,"Delta":480748561},{"NoteNumber":89,"Velocity":38,"Duration":117426,"SoundDuration":117426,"Delta":481096616},{"NoteNumber":89,"Velocity":50,"Duration":342543,"SoundDuration":342543,"Delta":481214042},{"NoteNumber":60,"Velocity":32,"Duration":913450,"SoundDuration":913450,"Delta":481214042},{"NoteNumber":88,"Velocity":41,"Duration":114181,"SoundDuration":114181,"Delta":481556586},{"NoteNumber":88,"Velocity":48,"Duration":342543,"SoundDuration":342543,"Delta":481670767},{"NoteNumber":88,"Velocity":40,"Duration":114181,"SoundDuration":114181,"Delta":482013311},{"NoteNumber":88,"Velocity":48,"Duration":342543,"SoundDuration":342543,"Delta":482127492},{"NoteNumber":60,"Velocity":21,"Duration":923102,"SoundDuration":923102,"Delta":482127492},{"NoteNumber":65,"Velocity":21,"Duration":923102,"SoundDuration":923102,"Delta":482127492},{"NoteNumber":68,"Velocity":27,"Duration":923102,"SoundDuration":923102,"Delta":482127492},{"NoteNumber":83,"Velocity":36,"Duration":115544,"SoundDuration":115544,"Delta":482470036},{"NoteNumber":83,"Velocity":45,"Duration":346633,"SoundDuration":346633,"Delta":482585580},{"NoteNumber":83,"Velocity":42,"Duration":118380,"SoundDuration":118380,"Delta":482932214},{"NoteNumber":86,"Velocity":56,"Duration":342543,"SoundDuration":342543,"Delta":483050594},{"NoteNumber":67,"Velocity":28,"Duration":916694,"SoundDuration":916694,"Delta":483050594},{"NoteNumber":64,"Velocity":22,"Duration":916694,"SoundDuration":916694,"Delta":483050594},{"NoteNumber":60,"Velocity":22,"Duration":916694,"SoundDuration":916694,"Delta":483050594},{"NoteNumber":84,"Velocity":40,"Duration":114181,"SoundDuration":114181,"Delta":483393138},{"NoteNumber":84,"Velocity":49,"Duration":342543,"SoundDuration":342543,"Delta":483507319},{"NoteNumber":76,"Velocity":39,"Duration":117426,"SoundDuration":117426,"Delta":483849863},{"NoteNumber":79,"Velocity":47,"Duration":342543,"SoundDuration":342543,"Delta":483967289},{"NoteNumber":49,"Velocity":17,"Duration":926835,"SoundDuration":926835,"Delta":483967289},{"NoteNumber":55,"Velocity":17,"Duration":1840285,"SoundDuration":1840285,"Delta":483967289},{"NoteNumber":58,"Velocity":22,"Duration":1840285,"SoundDuration":1840285,"Delta":483967289},{"NoteNumber":77,"Velocity":35,"Duration":116477,"SoundDuration":116477,"Delta":484309833},{"NoteNumber":77,"Velocity":44,"Duration":349433,"SoundDuration":349433,"Delta":484426311},{"NoteNumber":77,"Velocity":38,"Duration":118380,"SoundDuration":118380,"Delta":484775744},{"NoteNumber":77,"Velocity":46,"Duration":342543,"SoundDuration":342543,"Delta":484894124},{"NoteNumber":48,"Velocity":22,"Duration":913450,"SoundDuration":913450,"Delta":484894124},{"NoteNumber":76,"Velocity":39,"Duration":114181,"SoundDuration":114181,"Delta":485236668},{"NoteNumber":76,"Velocity":46,"Duration":342543,"SoundDuration":342543,"Delta":485350849},{"NoteNumber":76,"Velocity":37,"Duration":114181,"SoundDuration":114181,"Delta":485693393},{"NoteNumber":76,"Velocity":44,"Duration":342543,"SoundDuration":342543,"Delta":485807574},{"NoteNumber":48,"Velocity":20,"Duration":926351,"SoundDuration":926351,"Delta":485807574},{"NoteNumber":53,"Velocity":20,"Duration":926351,"SoundDuration":926351,"Delta":485807574},{"NoteNumber":56,"Velocity":25,"Duration":926351,"SoundDuration":926351,"Delta":485807574},{"NoteNumber":71,"Velocity":36,"Duration":116477,"SoundDuration":116477,"Delta":486150118},{"NoteNumber":71,"Velocity":44,"Duration":349433,"SoundDuration":349433,"Delta":486266596},{"NoteNumber":71,"Velocity":37,"Duration":117896,"SoundDuration":117896,"Delta":486616029},{"NoteNumber":74,"Velocity":46,"Duration":342543,"SoundDuration":342543,"Delta":486733926},{"NoteNumber":48,"Velocity":22,"Duration":1855003,"SoundDuration":1855003,"Delta":486733926},{"NoteNumber":52,"Velocity":22,"Duration":1855003,"SoundDuration":1855003,"Delta":486733926},{"NoteNumber":55,"Velocity":28,"Duration":1855003,"SoundDuration":1855003,"Delta":486733926},{"NoteNumber":72,"Velocity":36,"Duration":114181,"SoundDuration":114181,"Delta":487076470},{"NoteNumber":72,"Velocity":44,"Duration":342543,"SoundDuration":342543,"Delta":487190651},{"NoteNumber":72,"Velocity":36,"Duration":116018,"SoundDuration":116018,"Delta":487533195},{"NoteNumber":72,"Velocity":43,"Duration":348054,"SoundDuration":348054,"Delta":487649213},{"NoteNumber":76,"Velocity":39,"Duration":116795,"SoundDuration":116795,"Delta":487997268},{"NoteNumber":76,"Velocity":47,"Duration":350385,"SoundDuration":350385,"Delta":488114063},{"NoteNumber":76,"Velocity":38,"Duration":124481,"SoundDuration":124481,"Delta":488464449},{"NoteNumber":76,"Velocity":47,"Duration":353273,"SoundDuration":353273,"Delta":488588930},{"NoteNumber":59,"Velocity":22,"Duration":1909518,"SoundDuration":1909518,"Delta":488588930},{"NoteNumber":62,"Velocity":22,"Duration":1909518,"SoundDuration":1909518,"Delta":488588930},{"NoteNumber":64,"Velocity":28,"Duration":1909518,"SoundDuration":1909518,"Delta":488588930},{"NoteNumber":68,"Velocity":38,"Duration":117757,"SoundDuration":117757,"Delta":488942204},{"NoteNumber":68,"Velocity":47,"Duration":353273,"SoundDuration":353273,"Delta":489059962},{"NoteNumber":68,"Velocity":37,"Duration":119234,"SoundDuration":119234,"Delta":489413236},{"NoteNumber":68,"Velocity":45,"Duration":356210,"SoundDuration":356210,"Delta":489532471},{"NoteNumber":76,"Velocity":39,"Duration":119722,"SoundDuration":119722,"Delta":489888681},{"NoteNumber":76,"Velocity":47,"Duration":359166,"SoundDuration":359166,"Delta":490008403},{"NoteNumber":76,"Velocity":37,"Duration":130878,"SoundDuration":130878,"Delta":490367570},{"NoteNumber":76,"Velocity":45,"Duration":358651,"SoundDuration":358651,"Delta":490498449},{"NoteNumber":57,"Velocity":20,"Duration":1942196,"SoundDuration":1942196,"Delta":490498449},{"NoteNumber":62,"Velocity":20,"Duration":1942196,"SoundDuration":1942196,"Delta":490498449},{"NoteNumber":64,"Velocity":26,"Duration":1942196,"SoundDuration":1942196,"Delta":490498449},{"NoteNumber":69,"Velocity":32,"Duration":119550,"SoundDuration":119550,"Delta":490857100},{"NoteNumber":69,"Velocity":40,"Duration":358651,"SoundDuration":358651,"Delta":490976651},{"NoteNumber":69,"Velocity":32,"Duration":121467,"SoundDuration":121467,"Delta":491335302},{"NoteNumber":69,"Velocity":39,"Duration":364401,"SoundDuration":364401,"Delta":491456769},{"NoteNumber":76,"Velocity":34,"Duration":122429,"SoundDuration":122429,"Delta":491821171},{"NoteNumber":76,"Velocity":39,"Duration":367286,"SoundDuration":367286,"Delta":491943600},{"NoteNumber":76,"Velocity":34,"Duration":129757,"SoundDuration":129757,"Delta":492310887},{"NoteNumber":76,"Velocity":41,"Duration":366867,"SoundDuration":366867,"Delta":492440645},{"NoteNumber":56,"Velocity":17,"Duration":2172829,"SoundDuration":2172829,"Delta":492440645},{"NoteNumber":62,"Velocity":17,"Duration":2172829,"SoundDuration":2172829,"Delta":492440645},{"NoteNumber":64,"Velocity":22,"Duration":2172829,"SoundDuration":2172829,"Delta":492440645},{"NoteNumber":71,"Velocity":33,"Duration":126060,"SoundDuration":126060,"Delta":492807513},{"NoteNumber":71,"Velocity":37,"Duration":378183,"SoundDuration":378183,"Delta":492933574},{"NoteNumber":71,"Velocity":32,"Duration":128899,"SoundDuration":128899,"Delta":493311757},{"NoteNumber":71,"Velocity":37,"Duration":386697,"SoundDuration":386697,"Delta":493440656},{"NoteNumber":77,"Velocity":29,"Duration":136264,"SoundDuration":136264,"Delta":493827354},{"NoteNumber":77,"Velocity":34,"Duration":422892,"SoundDuration":422892,"Delta":493963618},{"NoteNumber":77,"Velocity":30,"Duration":226963,"SoundDuration":226963,"Delta":494386511},{"NoteNumber":68,"Velocity":37,"Duration":1017380,"SoundDuration":1017380,"Delta":494613474},{"NoteNumber":74,"Velocity":37,"Duration":1017380,"SoundDuration":1017380,"Delta":494613474},{"NoteNumber":76,"Velocity":37,"Duration":1017380,"SoundDuration":1017380,"Delta":494613474},{"NoteNumber":52,"Velocity":33,"Duration":1017380,"SoundDuration":1017380,"Delta":494613474},{"NoteNumber":59,"Velocity":30,"Duration":1008487,"SoundDuration":1008487,"Delta":495630854},{"NoteNumber":58,"Velocity":36,"Duration":986679,"SoundDuration":986679,"Delta":496639342},{"NoteNumber":59,"Velocity":34,"Duration":205440,"SoundDuration":205440,"Delta":497626022},{"NoteNumber":65,"Velocity":32,"Duration":118736,"SoundDuration":118736,"Delta":497995814},{"NoteNumber":65,"Velocity":36,"Duration":356210,"SoundDuration":356210,"Delta":498114551},{"NoteNumber":65,"Velocity":32,"Duration":130061,"SoundDuration":130061,"Delta":498470761},{"NoteNumber":56,"Velocity":36,"Duration":1017380,"SoundDuration":1017380,"Delta":498600823},{"NoteNumber":62,"Velocity":36,"Duration":1017380,"SoundDuration":1017380,"Delta":498600823},{"NoteNumber":64,"Velocity":36,"Duration":1017380,"SoundDuration":1017380,"Delta":498600823},{"NoteNumber":40,"Velocity":31,"Duration":1017380,"SoundDuration":1017380,"Delta":498600823},{"NoteNumber":47,"Velocity":33,"Duration":1008487,"SoundDuration":1008487,"Delta":499618203},{"NoteNumber":46,"Velocity":38,"Duration":986679,"SoundDuration":986679,"Delta":500626691},{"NoteNumber":47,"Velocity":35,"Duration":205440,"SoundDuration":205440,"Delta":501613371},{"NoteNumber":69,"Velocity":50,"Duration":1002589,"SoundDuration":1002589,"Delta":504571707},{"NoteNumber":57,"Velocity":42,"Duration":1002589,"SoundDuration":1002589,"Delta":504571707},{"NoteNumber":76,"Velocity":50,"Duration":998420,"SoundDuration":998420,"Delta":505574297},{"NoteNumber":64,"Velocity":42,"Duration":998420,"SoundDuration":998420,"Delta":505574297},{"NoteNumber":75,"Velocity":53,"Duration":970245,"SoundDuration":970245,"Delta":506572717},{"NoteNumber":63,"Velocity":44,"Duration":970245,"SoundDuration":970245,"Delta":506572717},{"NoteNumber":76,"Velocity":47,"Duration":205440,"SoundDuration":205440,"Delta":507542963},{"NoteNumber":64,"Velocity":38,"Duration":205440,"SoundDuration":205440,"Delta":507542963},{"NoteNumber":72,"Velocity":49,"Duration":397130,"SoundDuration":397130,"Delta":508036019},{"NoteNumber":60,"Velocity":39,"Duration":397130,"SoundDuration":397130,"Delta":508036019},{"NoteNumber":71,"Velocity":47,"Duration":149219,"SoundDuration":149219,"Delta":508411634},{"NoteNumber":59,"Velocity":39,"Duration":149219,"SoundDuration":149219,"Delta":508411634},{"NoteNumber":69,"Velocity":48,"Duration":966340,"SoundDuration":966340,"Delta":508540722},{"NoteNumber":57,"Velocity":38,"Duration":966340,"SoundDuration":966340,"Delta":508540722},{"NoteNumber":64,"Velocity":58,"Duration":1002589,"SoundDuration":1002589,"Delta":509507062},{"NoteNumber":56,"Velocity":58,"Duration":1002589,"SoundDuration":1002589,"Delta":509507062},{"NoteNumber":59,"Velocity":58,"Duration":1002589,"SoundDuration":1002589,"Delta":509507062},{"NoteNumber":52,"Velocity":52,"Duration":1002589,"SoundDuration":1002589,"Delta":509507062},{"NoteNumber":60,"Velocity":52,"Duration":982480,"SoundDuration":982480,"Delta":510509652},{"NoteNumber":48,"Velocity":47,"Duration":982480,"SoundDuration":982480,"Delta":510509652},{"NoteNumber":57,"Velocity":51,"Duration":189921,"SoundDuration":189921,"Delta":511492132},{"NoteNumber":45,"Velocity":39,"Duration":189921,"SoundDuration":189921,"Delta":511492132},{"NoteNumber":57,"Velocity":50,"Duration":1002590,"SoundDuration":1002590,"Delta":512505046},{"NoteNumber":45,"Velocity":42,"Duration":1002590,"SoundDuration":1002590,"Delta":512505046},{"NoteNumber":65,"Velocity":60,"Duration":970245,"SoundDuration":970245,"Delta":513507636},{"NoteNumber":57,"Velocity":60,"Duration":970245,"SoundDuration":970245,"Delta":513507636},{"NoteNumber":38,"Velocity":49,"Duration":970245,"SoundDuration":970245,"Delta":513507636},{"NoteNumber":58,"Velocity":67,"Duration":926783,"SoundDuration":926783,"Delta":514477882},{"NoteNumber":67,"Velocity":67,"Duration":926783,"SoundDuration":926783,"Delta":514477882},{"NoteNumber":37,"Velocity":52,"Duration":926783,"SoundDuration":926783,"Delta":514477882},{"NoteNumber":57,"Velocity":54,"Duration":208872,"SoundDuration":208872,"Delta":515404666},{"NoteNumber":65,"Velocity":54,"Duration":208872,"SoundDuration":208872,"Delta":515404666},{"NoteNumber":38,"Velocity":42,"Duration":208872,"SoundDuration":208872,"Delta":515404666},{"NoteNumber":57,"Velocity":51,"Duration":393593,"SoundDuration":393593,"Delta":515900853},{"NoteNumber":33,"Velocity":44,"Duration":393593,"SoundDuration":393593,"Delta":515900853},{"NoteNumber":45,"Velocity":44,"Duration":393593,"SoundDuration":393593,"Delta":515900853},{"NoteNumber":59,"Velocity":54,"Duration":147447,"SoundDuration":147447,"Delta":516273296},{"NoteNumber":47,"Velocity":45,"Duration":147447,"SoundDuration":147447,"Delta":516273296},{"NoteNumber":35,"Velocity":45,"Duration":147447,"SoundDuration":147447,"Delta":516273296},{"NoteNumber":60,"Velocity":52,"Duration":986112,"SoundDuration":986112,"Delta":516400200},{"NoteNumber":36,"Velocity":45,"Duration":986112,"SoundDuration":986112,"Delta":516400200},{"NoteNumber":48,"Velocity":45,"Duration":986112,"SoundDuration":986112,"Delta":516400200},{"NoteNumber":56,"Velocity":60,"Duration":1002590,"SoundDuration":1002590,"Delta":517386312},{"NoteNumber":59,"Velocity":60,"Duration":1002590,"SoundDuration":1002590,"Delta":517386312},{"NoteNumber":64,"Velocity":60,"Duration":1002590,"SoundDuration":1002590,"Delta":517386312},{"NoteNumber":52,"Velocity":55,"Duration":1002590,"SoundDuration":1002590,"Delta":517386312},{"NoteNumber":40,"Velocity":55,"Duration":1002590,"SoundDuration":1002590,"Delta":517386312},{"NoteNumber":60,"Velocity":50,"Duration":982480,"SoundDuration":982480,"Delta":518388902},{"NoteNumber":48,"Velocity":45,"Duration":982480,"SoundDuration":982480,"Delta":518388902},{"NoteNumber":36,"Velocity":45,"Duration":982480,"SoundDuration":982480,"Delta":518388902},{"NoteNumber":57,"Velocity":50,"Duration":212910,"SoundDuration":212910,"Delta":519371382},{"NoteNumber":45,"Velocity":50,"Duration":212910,"SoundDuration":212910,"Delta":519371382},{"NoteNumber":33,"Velocity":41,"Duration":212910,"SoundDuration":212910,"Delta":519371382},{"NoteNumber":57,"Velocity":46,"Duration":982158,"SoundDuration":982158,"Delta":520393354},{"NoteNumber":62,"Velocity":46,"Duration":982158,"SoundDuration":982158,"Delta":520393354},{"NoteNumber":69,"Velocity":46,"Duration":982158,"SoundDuration":982158,"Delta":520393354},{"NoteNumber":65,"Velocity":46,"Duration":982158,"SoundDuration":982158,"Delta":520393354},{"NoteNumber":57,"Velocity":37,"Duration":125323,"SoundDuration":125323,"Delta":521375512},{"NoteNumber":60,"Velocity":47,"Duration":966339,"SoundDuration":966339,"Delta":522378102},{"NoteNumber":69,"Velocity":47,"Duration":966339,"SoundDuration":966339,"Delta":522378102},{"NoteNumber":64,"Velocity":47,"Duration":966339,"SoundDuration":966339,"Delta":522378102},{"NoteNumber":57,"Velocity":47,"Duration":966339,"SoundDuration":966339,"Delta":522378102},{"NoteNumber":57,"Velocity":40,"Duration":121763,"SoundDuration":121763,"Delta":523344442},{"NoteNumber":45,"Velocity":46,"Duration":935308,"SoundDuration":935308,"Delta":523831495},{"NoteNumber":62,"Velocity":47,"Duration":934437,"SoundDuration":934437,"Delta":524298676},{"NoteNumber":69,"Velocity":47,"Duration":934437,"SoundDuration":934437,"Delta":524298676},{"NoteNumber":65,"Velocity":47,"Duration":934437,"SoundDuration":934437,"Delta":524298676},{"NoteNumber":57,"Velocity":47,"Duration":934437,"SoundDuration":934437,"Delta":524298676},{"NoteNumber":50,"Velocity":41,"Duration":466309,"SoundDuration":466309,"Delta":524766804},{"NoteNumber":57,"Velocity":39,"Duration":119827,"SoundDuration":119827,"Delta":525233113},{"NoteNumber":52,"Velocity":44,"Duration":486324,"SoundDuration":486324,"Delta":525233113},{"NoteNumber":53,"Velocity":42,"Duration":478888,"SoundDuration":478888,"Delta":525719438},{"NoteNumber":69,"Velocity":45,"Duration":918413,"SoundDuration":918413,"Delta":526198327},{"NoteNumber":57,"Velocity":45,"Duration":918413,"SoundDuration":918413,"Delta":526198327},{"NoteNumber":60,"Velocity":45,"Duration":918413,"SoundDuration":918413,"Delta":526198327},{"NoteNumber":52,"Velocity":45,"Duration":918413,"SoundDuration":918413,"Delta":526198327},{"NoteNumber":57,"Velocity":39,"Duration":121772,"SoundDuration":121772,"Delta":527116741},{"NoteNumber":45,"Velocity":41,"Duration":121772,"SoundDuration":121772,"Delta":527116741},{"NoteNumber":55,"Velocity":51,"Duration":469079,"SoundDuration":469079,"Delta":527603833},{"NoteNumber":62,"Velocity":47,"Duration":897868,"SoundDuration":897868,"Delta":528072913},{"NoteNumber":69,"Velocity":47,"Duration":897868,"SoundDuration":897868,"Delta":528072913},{"NoteNumber":57,"Velocity":47,"Duration":897868,"SoundDuration":897868,"Delta":528072913},{"NoteNumber":53,"Velocity":46,"Duration":897868,"SoundDuration":897868,"Delta":528072913},{"NoteNumber":57,"Velocity":40,"Duration":123263,"SoundDuration":123263,"Delta":528970781},{"NoteNumber":45,"Velocity":43,"Duration":123263,"SoundDuration":123263,"Delta":528970781},{"NoteNumber":53,"Velocity":40,"Duration":467180,"SoundDuration":467180,"Delta":529463837},{"NoteNumber":60,"Velocity":45,"Duration":897868,"SoundDuration":897868,"Delta":529931018},{"NoteNumber":57,"Velocity":45,"Duration":897868,"SoundDuration":897868,"Delta":529931018},{"NoteNumber":69,"Velocity":45,"Duration":897868,"SoundDuration":897868,"Delta":529931018},{"NoteNumber":52,"Velocity":45,"Duration":897868,"SoundDuration":897868,"Delta":529931018},{"NoteNumber":57,"Velocity":37,"Duration":120792,"SoundDuration":120792,"Delta":530828886},{"NoteNumber":45,"Velocity":43,"Duration":120792,"SoundDuration":120792,"Delta":530828886},{"NoteNumber":33,"Velocity":56,"Duration":895987,"SoundDuration":895987,"Delta":531312056},{"NoteNumber":45,"Velocity":56,"Duration":895987,"SoundDuration":895987,"Delta":531312056},{"NoteNumber":77,"Velocity":69,"Duration":901087,"SoundDuration":901087,"Delta":531762676},{"NoteNumber":81,"Velocity":69,"Duration":901087,"SoundDuration":901087,"Delta":531762676},{"NoteNumber":74,"Velocity":69,"Duration":901087,"SoundDuration":901087,"Delta":531762676},{"NoteNumber":69,"Velocity":69,"Duration":901087,"SoundDuration":901087,"Delta":531762676},{"NoteNumber":38,"Velocity":52,"Duration":455719,"SoundDuration":455719,"Delta":532208044},{"NoteNumber":50,"Velocity":52,"Duration":455719,"SoundDuration":455719,"Delta":532208044},{"NoteNumber":69,"Velocity":56,"Duration":174472,"SoundDuration":174472,"Delta":532663763},{"NoteNumber":52,"Velocity":56,"Duration":465261,"SoundDuration":465261,"Delta":532663763},{"NoteNumber":40,"Velocity":56,"Duration":465261,"SoundDuration":465261,"Delta":532663763},{"NoteNumber":41,"Velocity":52,"Duration":472962,"SoundDuration":472962,"Delta":533129024},{"NoteNumber":53,"Velocity":52,"Duration":472962,"SoundDuration":472962,"Delta":533129024},{"NoteNumber":72,"Velocity":70,"Duration":894453,"SoundDuration":894453,"Delta":533601986},{"NoteNumber":81,"Velocity":70,"Duration":894453,"SoundDuration":894453,"Delta":533601986},{"NoteNumber":69,"Velocity":70,"Duration":894453,"SoundDuration":894453,"Delta":533601986},{"NoteNumber":40,"Velocity":56,"Duration":894453,"SoundDuration":894453,"Delta":533601986},{"NoteNumber":52,"Velocity":56,"Duration":894453,"SoundDuration":894453,"Delta":533601986},{"NoteNumber":69,"Velocity":54,"Duration":116795,"SoundDuration":116795,"Delta":534496440},{"NoteNumber":33,"Velocity":53,"Duration":116795,"SoundDuration":116795,"Delta":534496440},{"NoteNumber":45,"Velocity":53,"Duration":116795,"SoundDuration":116795,"Delta":534496440},{"NoteNumber":40,"Velocity":62,"Duration":903090,"SoundDuration":903090,"Delta":534963621},{"NoteNumber":52,"Velocity":62,"Duration":903090,"SoundDuration":903090,"Delta":534963621},{"NoteNumber":71,"Velocity":74,"Duration":904930,"SoundDuration":904930,"Delta":535410715},{"NoteNumber":76,"Velocity":74,"Duration":904930,"SoundDuration":904930,"Delta":535410715},{"NoteNumber":79,"Velocity":74,"Duration":904930,"SoundDuration":904930,"Delta":535410715},{"NoteNumber":43,"Velocity":68,"Duration":448934,"SoundDuration":448934,"Delta":535866711},{"NoteNumber":55,"Velocity":68,"Duration":448934,"SoundDuration":448934,"Delta":535866711},{"NoteNumber":67,"Velocity":73,"Duration":172373,"SoundDuration":172373,"Delta":536315645},{"NoteNumber":45,"Velocity":74,"Duration":459663,"SoundDuration":459663,"Delta":536315645},{"NoteNumber":57,"Velocity":74,"Duration":459663,"SoundDuration":459663,"Delta":536315645},{"NoteNumber":59,"Velocity":72,"Duration":471032,"SoundDuration":471032,"Delta":536775309},{"NoteNumber":47,"Velocity":72,"Duration":471032,"SoundDuration":471032,"Delta":536775309},{"NoteNumber":75,"Velocity":82,"Duration":835992,"SoundDuration":835992,"Delta":537246341},{"NoteNumber":66,"Velocity":82,"Duration":835992,"SoundDuration":835992,"Delta":537246341},{"NoteNumber":78,"Velocity":82,"Duration":835992,"SoundDuration":835992,"Delta":537246341},{"NoteNumber":47,"Velocity":85,"Duration":835992,"SoundDuration":835992,"Delta":537246341},{"NoteNumber":59,"Velocity":85,"Duration":835992,"SoundDuration":835992,"Delta":537246341},{"NoteNumber":71,"Velocity":76,"Duration":856498,"SoundDuration":856498,"Delta":538158333},{"NoteNumber":83,"Velocity":76,"Duration":856498,"SoundDuration":856498,"Delta":538158333},{"NoteNumber":75,"Velocity":76,"Duration":856498,"SoundDuration":856498,"Delta":538158333},{"NoteNumber":59,"Velocity":70,"Duration":856498,"SoundDuration":856498,"Delta":538158333},{"NoteNumber":47,"Velocity":70,"Duration":856498,"SoundDuration":856498,"Delta":538158333},{"NoteNumber":67,"Velocity":73,"Duration":915681,"SoundDuration":915681,"Delta":539092695},{"NoteNumber":79,"Velocity":73,"Duration":915681,"SoundDuration":915681,"Delta":539092695},{"NoteNumber":55,"Velocity":58,"Duration":915681,"SoundDuration":915681,"Delta":539092695},{"NoteNumber":43,"Velocity":58,"Duration":915681,"SoundDuration":915681,"Delta":539092695},{"NoteNumber":64,"Velocity":60,"Duration":202954,"SoundDuration":202954,"Delta":540008377},{"NoteNumber":76,"Velocity":60,"Duration":202954,"SoundDuration":202954,"Delta":540008377},{"NoteNumber":52,"Velocity":47,"Duration":202954,"SoundDuration":202954,"Delta":540008377},{"NoteNumber":40,"Velocity":47,"Duration":202954,"SoundDuration":202954,"Delta":540008377},{"NoteNumber":66,"Velocity":38,"Duration":889392,"SoundDuration":889392,"Delta":540982561},{"NoteNumber":54,"Velocity":38,"Duration":889392,"SoundDuration":889392,"Delta":540982561},{"NoteNumber":63,"Velocity":38,"Duration":889392,"SoundDuration":889392,"Delta":540982561},{"NoteNumber":35,"Velocity":32,"Duration":889392,"SoundDuration":889392,"Delta":540982561},{"NoteNumber":47,"Velocity":32,"Duration":889392,"SoundDuration":889392,"Delta":540982561},{"NoteNumber":59,"Velocity":36,"Duration":871770,"SoundDuration":871770,"Delta":541952807},{"NoteNumber":63,"Velocity":36,"Duration":871770,"SoundDuration":871770,"Delta":541952807},{"NoteNumber":71,"Velocity":36,"Duration":871770,"SoundDuration":871770,"Delta":541952807},{"NoteNumber":47,"Velocity":30,"Duration":871770,"SoundDuration":871770,"Delta":541952807},{"NoteNumber":35,"Velocity":30,"Duration":871770,"SoundDuration":871770,"Delta":541952807},{"NoteNumber":67,"Velocity":37,"Duration":923076,"SoundDuration":923076,"Delta":542903829},{"NoteNumber":55,"Velocity":37,"Duration":923076,"SoundDuration":923076,"Delta":542903829},{"NoteNumber":31,"Velocity":29,"Duration":923076,"SoundDuration":923076,"Delta":542903829},{"NoteNumber":43,"Velocity":29,"Duration":923076,"SoundDuration":923076,"Delta":542903829},{"NoteNumber":52,"Velocity":31,"Duration":201320,"SoundDuration":201320,"Delta":543826905},{"NoteNumber":64,"Velocity":31,"Duration":201320,"SoundDuration":201320,"Delta":543826905},{"NoteNumber":28,"Velocity":28,"Duration":201320,"SoundDuration":201320,"Delta":543826905},{"NoteNumber":40,"Velocity":28,"Duration":201320,"SoundDuration":201320,"Delta":543826905},{"NoteNumber":55,"Velocity":37,"Duration":862378,"SoundDuration":862378,"Delta":544793245},{"NoteNumber":67,"Velocity":37,"Duration":862378,"SoundDuration":862378,"Delta":544793245},{"NoteNumber":40,"Velocity":30,"Duration":989599,"SoundDuration":989599,"Delta":544793245},{"NoteNumber":52,"Velocity":33,"Duration":109025,"SoundDuration":109025,"Delta":545655623},{"NoteNumber":64,"Velocity":33,"Duration":109025,"SoundDuration":109025,"Delta":545655623},{"NoteNumber":41,"Velocity":30,"Duration":127792,"SoundDuration":127792,"Delta":545764648},{"NoteNumber":40,"Velocity":26,"Duration":126197,"SoundDuration":126197,"Delta":545874464},{"NoteNumber":41,"Velocity":30,"Duration":127770,"SoundDuration":127770,"Delta":545982255},{"NoteNumber":40,"Velocity":24,"Duration":128060,"SoundDuration":128060,"Delta":546092090},{"NoteNumber":41,"Velocity":30,"Duration":128226,"SoundDuration":128226,"Delta":546201521},{"NoteNumber":40,"Velocity":25,"Duration":126124,"SoundDuration":126124,"Delta":546311819},{"NoteNumber":41,"Velocity":30,"Duration":128142,"SoundDuration":128142,"Delta":546419653},{"NoteNumber":65,"Velocity":48,"Duration":856914,"SoundDuration":856914,"Delta":546529953},{"NoteNumber":53,"Velocity":48,"Duration":856914,"SoundDuration":856914,"Delta":546529953},{"NoteNumber":40,"Velocity":31,"Duration":124867,"SoundDuration":124867,"Delta":546529953},{"NoteNumber":41,"Velocity":28,"Duration":124610,"SoundDuration":124610,"Delta":546636691},{"NoteNumber":40,"Velocity":31,"Duration":124665,"SoundDuration":124665,"Delta":546743535},{"NoteNumber":41,"Velocity":31,"Duration":124705,"SoundDuration":124705,"Delta":546850622},{"NoteNumber":40,"Velocity":34,"Duration":124919,"SoundDuration":124919,"Delta":546957198},{"NoteNumber":41,"Velocity":30,"Duration":123289,"SoundDuration":123289,"Delta":547064581},{"NoteNumber":40,"Velocity":34,"Duration":126442,"SoundDuration":126442,"Delta":547170029},{"NoteNumber":41,"Velocity":29,"Duration":127134,"SoundDuration":127134,"Delta":547278362},{"NoteNumber":50,"Velocity":42,"Duration":110190,"SoundDuration":110190,"Delta":547386868},{"NoteNumber":62,"Velocity":42,"Duration":110190,"SoundDuration":110190,"Delta":547386868},{"NoteNumber":40,"Velocity":34,"Duration":128186,"SoundDuration":128186,"Delta":547386868},{"NoteNumber":41,"Velocity":28,"Duration":128452,"SoundDuration":128452,"Delta":547497059},{"NoteNumber":40,"Velocity":34,"Duration":127053,"SoundDuration":127053,"Delta":547606980},{"NoteNumber":41,"Velocity":29,"Duration":127902,"SoundDuration":127902,"Delta":547716104},{"NoteNumber":40,"Velocity":34,"Duration":126912,"SoundDuration":126912,"Delta":547825572},{"NoteNumber":41,"Velocity":29,"Duration":127545,"SoundDuration":127545,"Delta":547934488},{"NoteNumber":40,"Velocity":34,"Duration":129768,"SoundDuration":129768,"Delta":548043549},{"NoteNumber":41,"Velocity":30,"Duration":127602,"SoundDuration":127602,"Delta":548154785},{"NoteNumber":52,"Velocity":57,"Duration":854155,"SoundDuration":854155,"Delta":548264503},{"NoteNumber":64,"Velocity":57,"Duration":854155,"SoundDuration":854155,"Delta":548264503},{"NoteNumber":40,"Velocity":39,"Duration":123339,"SoundDuration":123339,"Delta":548264503},{"NoteNumber":41,"Velocity":33,"Duration":125195,"SoundDuration":125195,"Delta":548370064},{"NoteNumber":40,"Velocity":39,"Duration":123426,"SoundDuration":123426,"Delta":548477484},{"NoteNumber":41,"Velocity":33,"Duration":125570,"SoundDuration":125570,"Delta":548583162},{"NoteNumber":40,"Velocity":39,"Duration":123800,"SoundDuration":123800,"Delta":548690760},{"NoteNumber":41,"Velocity":33,"Duration":123806,"SoundDuration":123806,"Delta":548797091},{"NoteNumber":40,"Velocity":40,"Duration":126158,"SoundDuration":126158,"Delta":548902832},{"NoteNumber":41,"Velocity":35,"Duration":125859,"SoundDuration":125859,"Delta":549011128},{"NoteNumber":48,"Velocity":52,"Duration":109933,"SoundDuration":109933,"Delta":549118658},{"NoteNumber":60,"Velocity":52,"Duration":109933,"SoundDuration":109933,"Delta":549118658},{"NoteNumber":40,"Velocity":40,"Duration":128731,"SoundDuration":128731,"Delta":549118658},{"NoteNumber":41,"Velocity":35,"Duration":130430,"SoundDuration":130430,"Delta":549228592},{"NoteNumber":40,"Velocity":41,"Duration":127666,"SoundDuration":127666,"Delta":549340837},{"NoteNumber":41,"Velocity":34,"Duration":131020,"SoundDuration":131020,"Delta":549449856},{"NoteNumber":40,"Velocity":41,"Duration":128203,"SoundDuration":128203,"Delta":549562316},{"NoteNumber":41,"Velocity":36,"Duration":132063,"SoundDuration":132063,"Delta":549672316},{"NoteNumber":40,"Velocity":42,"Duration":131015,"SoundDuration":131015,"Delta":549785402},{"NoteNumber":41,"Velocity":37,"Duration":128908,"SoundDuration":128908,"Delta":549897930},{"NoteNumber":62,"Velocity":76,"Duration":890367,"SoundDuration":890367,"Delta":550008723},{"NoteNumber":50,"Velocity":76,"Duration":890367,"SoundDuration":890367,"Delta":550008723},{"NoteNumber":40,"Velocity":47,"Duration":127032,"SoundDuration":127032,"Delta":550008723},{"NoteNumber":41,"Velocity":39,"Duration":129016,"SoundDuration":129016,"Delta":550117278},{"NoteNumber":40,"Velocity":47,"Duration":127061,"SoundDuration":127061,"Delta":550228043},{"NoteNumber":41,"Velocity":39,"Duration":128820,"SoundDuration":128820,"Delta":550336623},{"NoteNumber":40,"Velocity":48,"Duration":126227,"SoundDuration":126227,"Delta":550447352},{"NoteNumber":41,"Velocity":40,"Duration":130833,"SoundDuration":130833,"Delta":550555380},{"NoteNumber":40,"Velocity":48,"Duration":135259,"SoundDuration":135259,"Delta":550667010},{"NoteNumber":41,"Velocity":42,"Duration":135521,"SoundDuration":135521,"Delta":550782919},{"NoteNumber":47,"Velocity":67,"Duration":116098,"SoundDuration":116098,"Delta":550899090},{"NoteNumber":59,"Velocity":67,"Duration":116098,"SoundDuration":116098,"Delta":550899090},{"NoteNumber":40,"Velocity":49,"Duration":135520,"SoundDuration":135520,"Delta":550899090},{"NoteNumber":41,"Velocity":43,"Duration":136028,"SoundDuration":136028,"Delta":551015189},{"NoteNumber":40,"Velocity":54,"Duration":136548,"SoundDuration":136548,"Delta":551131721},{"NoteNumber":41,"Velocity":48,"Duration":137070,"SoundDuration":137070,"Delta":551248698},{"NoteNumber":40,"Velocity":62,"Duration":138518,"SoundDuration":138518,"Delta":551366124},{"NoteNumber":41,"Velocity":63,"Duration":141655,"SoundDuration":141655,"Delta":551484611},{"NoteNumber":40,"Velocity":71,"Duration":154237,"SoundDuration":154237,"Delta":551605753},{"NoteNumber":44,"Velocity":79,"Duration":193421,"SoundDuration":193421,"Delta":551736159},{"NoteNumber":57,"Velocity":101,"Duration":1011037,"SoundDuration":1011037,"Delta":551908517},{"NoteNumber":69,"Velocity":101,"Duration":1011037,"SoundDuration":1011037,"Delta":551908517},{"NoteNumber":45,"Velocity":78,"Duration":1011037,"SoundDuration":1011037,"Delta":551908517},{"NoteNumber":33,"Velocity":78,"Duration":1011037,"SoundDuration":1011037,"Delta":551908517},{"NoteNumber":64,"Velocity":93,"Duration":998420,"SoundDuration":998420,"Delta":552919555},{"NoteNumber":76,"Velocity":93,"Duration":998420,"SoundDuration":998420,"Delta":552919555},{"NoteNumber":40,"Velocity":77,"Duration":998420,"SoundDuration":998420,"Delta":552919555},{"NoteNumber":52,"Velocity":77,"Duration":998420,"SoundDuration":998420,"Delta":552919555},{"NoteNumber":75,"Velocity":89,"Duration":957777,"SoundDuration":957777,"Delta":553917975},{"NoteNumber":63,"Velocity":89,"Duration":957777,"SoundDuration":957777,"Delta":553917975},{"NoteNumber":51,"Velocity":75,"Duration":957777,"SoundDuration":957777,"Delta":553917975},{"NoteNumber":39,"Velocity":75,"Duration":957777,"SoundDuration":957777,"Delta":553917975},{"NoteNumber":76,"Velocity":75,"Duration":250647,"SoundDuration":250647,"Delta":554875753},{"NoteNumber":64,"Velocity":75,"Duration":250647,"SoundDuration":250647,"Delta":554875753},{"NoteNumber":52,"Velocity":71,"Duration":250647,"SoundDuration":250647,"Delta":554875753},{"NoteNumber":40,"Velocity":71,"Duration":250647,"SoundDuration":250647,"Delta":554875753},{"NoteNumber":48,"Velocity":68,"Duration":311477,"SoundDuration":311477,"Delta":555377048},{"NoteNumber":52,"Velocity":68,"Duration":311477,"SoundDuration":311477,"Delta":555377048},{"NoteNumber":33,"Velocity":37,"Duration":311477,"SoundDuration":311477,"Delta":555377048},{"NoteNumber":45,"Velocity":37,"Duration":311477,"SoundDuration":311477,"Delta":555377048},{"NoteNumber":56,"Velocity":61,"Duration":94948,"SoundDuration":94948,"Delta":555727461},{"NoteNumber":50,"Velocity":61,"Duration":94948,"SoundDuration":94948,"Delta":555727461},{"NoteNumber":35,"Velocity":35,"Duration":94948,"SoundDuration":94948,"Delta":555727461},{"NoteNumber":47,"Velocity":35,"Duration":94948,"SoundDuration":94948,"Delta":555727461},{"NoteNumber":52,"Velocity":64,"Duration":310414,"SoundDuration":310414,"Delta":555841399},{"NoteNumber":57,"Velocity":64,"Duration":310414,"SoundDuration":310414,"Delta":555841399},{"NoteNumber":36,"Velocity":39,"Duration":310414,"SoundDuration":310414,"Delta":555841399},{"NoteNumber":48,"Velocity":39,"Duration":310414,"SoundDuration":310414,"Delta":555841399},{"NoteNumber":59,"Velocity":63,"Duration":94154,"SoundDuration":94154,"Delta":556190616},{"NoteNumber":53,"Velocity":63,"Duration":94154,"SoundDuration":94154,"Delta":556190616},{"NoteNumber":50,"Velocity":36,"Duration":94154,"SoundDuration":94154,"Delta":556190616},{"NoteNumber":38,"Velocity":36,"Duration":94154,"SoundDuration":94154,"Delta":556190616},{"NoteNumber":55,"Velocity":65,"Duration":309071,"SoundDuration":309071,"Delta":556303602},{"NoteNumber":60,"Velocity":65,"Duration":309071,"SoundDuration":309071,"Delta":556303602},{"NoteNumber":52,"Velocity":41,"Duration":309071,"SoundDuration":309071,"Delta":556303602},{"NoteNumber":40,"Velocity":41,"Duration":309071,"SoundDuration":309071,"Delta":556303602},{"NoteNumber":57,"Velocity":67,"Duration":93766,"SoundDuration":93766,"Delta":556651307},{"NoteNumber":62,"Velocity":67,"Duration":93766,"SoundDuration":93766,"Delta":556651307},{"NoteNumber":53,"Velocity":38,"Duration":93766,"SoundDuration":93766,"Delta":556651307},{"NoteNumber":41,"Velocity":38,"Duration":93766,"SoundDuration":93766,"Delta":556651307},{"NoteNumber":55,"Velocity":70,"Duration":309071,"SoundDuration":309071,"Delta":556763827},{"NoteNumber":60,"Velocity":70,"Duration":309071,"SoundDuration":309071,"Delta":556763827},{"NoteNumber":40,"Velocity":45,"Duration":309071,"SoundDuration":309071,"Delta":556763827},{"NoteNumber":52,"Velocity":45,"Duration":309071,"SoundDuration":309071,"Delta":556763827},{"NoteNumber":62,"Velocity":67,"Duration":94154,"SoundDuration":94154,"Delta":557111532},{"NoteNumber":57,"Velocity":55,"Duration":94154,"SoundDuration":94154,"Delta":557111532},{"NoteNumber":41,"Velocity":39,"Duration":94154,"SoundDuration":94154,"Delta":557111532},{"NoteNumber":53,"Velocity":39,"Duration":94154,"SoundDuration":94154,"Delta":557111532},{"NoteNumber":59,"Velocity":70,"Duration":307763,"SoundDuration":307763,"Delta":557224518},{"NoteNumber":64,"Velocity":70,"Duration":307763,"SoundDuration":307763,"Delta":557224518},{"NoteNumber":43,"Velocity":44,"Duration":307763,"SoundDuration":307763,"Delta":557224518},{"NoteNumber":55,"Velocity":44,"Duration":307763,"SoundDuration":307763,"Delta":557224518},{"NoteNumber":65,"Velocity":67,"Duration":92992,"SoundDuration":92992,"Delta":557570751},{"NoteNumber":60,"Velocity":56,"Duration":92992,"SoundDuration":92992,"Delta":557570751},{"NoteNumber":45,"Velocity":40,"Duration":92992,"SoundDuration":92992,"Delta":557570751},{"NoteNumber":57,"Velocity":40,"Duration":92992,"SoundDuration":92992,"Delta":557570751},{"NoteNumber":59,"Velocity":71,"Duration":306419,"SoundDuration":306419,"Delta":557682342},{"NoteNumber":64,"Velocity":71,"Duration":306419,"SoundDuration":306419,"Delta":557682342},{"NoteNumber":55,"Velocity":46,"Duration":306419,"SoundDuration":306419,"Delta":557682342},{"NoteNumber":43,"Velocity":46,"Duration":306419,"SoundDuration":306419,"Delta":557682342},{"NoteNumber":57,"Velocity":60,"Duration":92992,"SoundDuration":92992,"Delta":558027064},{"NoteNumber":62,"Velocity":70,"Duration":92992,"SoundDuration":92992,"Delta":558027064},{"NoteNumber":41,"Velocity":44,"Duration":92992,"SoundDuration":92992,"Delta":558027064},{"NoteNumber":53,"Velocity":44,"Duration":92992,"SoundDuration":92992,"Delta":558027064},{"NoteNumber":55,"Velocity":73,"Duration":305133,"SoundDuration":305133,"Delta":558138654},{"NoteNumber":60,"Velocity":73,"Duration":305133,"SoundDuration":305133,"Delta":558138654},{"NoteNumber":52,"Velocity":46,"Duration":305133,"SoundDuration":305133,"Delta":558138654},{"NoteNumber":40,"Velocity":46,"Duration":305133,"SoundDuration":305133,"Delta":558138654},{"NoteNumber":53,"Velocity":60,"Duration":92613,"SoundDuration":92613,"Delta":558481930},{"NoteNumber":59,"Velocity":70,"Duration":92613,"SoundDuration":92613,"Delta":558481930},{"NoteNumber":50,"Velocity":44,"Duration":92613,"SoundDuration":92613,"Delta":558481930},{"NoteNumber":38,"Velocity":44,"Duration":92613,"SoundDuration":92613,"Delta":558481930},{"NoteNumber":57,"Velocity":73,"Duration":305133,"SoundDuration":305133,"Delta":558593066},{"NoteNumber":52,"Velocity":73,"Duration":305133,"SoundDuration":305133,"Delta":558593066},{"NoteNumber":36,"Velocity":50,"Duration":305133,"SoundDuration":305133,"Delta":558593066},{"NoteNumber":48,"Velocity":50,"Duration":305133,"SoundDuration":305133,"Delta":558593066},{"NoteNumber":56,"Velocity":77,"Duration":92613,"SoundDuration":92613,"Delta":558936341},{"NoteNumber":52,"Velocity":64,"Duration":92613,"SoundDuration":92613,"Delta":558936341},{"NoteNumber":35,"Velocity":46,"Duration":92613,"SoundDuration":92613,"Delta":558936341},{"NoteNumber":47,"Velocity":46,"Duration":92613,"SoundDuration":92613,"Delta":558936341},{"NoteNumber":52,"Velocity":68,"Duration":130264,"SoundDuration":130264,"Delta":559047477},{"NoteNumber":57,"Velocity":82,"Duration":130264,"SoundDuration":130264,"Delta":559047477},{"NoteNumber":48,"Velocity":51,"Duration":130264,"SoundDuration":130264,"Delta":559047477},{"NoteNumber":36,"Velocity":51,"Duration":130264,"SoundDuration":130264,"Delta":559047477},{"NoteNumber":57,"Velocity":100,"Duration":1023890,"SoundDuration":1023890,"Delta":559568536},{"NoteNumber":69,"Velocity":100,"Duration":1023890,"SoundDuration":1023890,"Delta":559568536},{"NoteNumber":45,"Velocity":85,"Duration":1023890,"SoundDuration":1023890,"Delta":559568536},{"NoteNumber":77,"Velocity":93,"Duration":986679,"SoundDuration":986679,"Delta":560592426},{"NoteNumber":69,"Velocity":93,"Duration":986679,"SoundDuration":986679,"Delta":560592426},{"NoteNumber":81,"Velocity":93,"Duration":986679,"SoundDuration":986679,"Delta":560592426},{"NoteNumber":45,"Velocity":74,"Duration":986679,"SoundDuration":986679,"Delta":560592426},{"NoteNumber":38,"Velocity":74,"Duration":986679,"SoundDuration":986679,"Delta":560592426},{"NoteNumber":79,"Velocity":98,"Duration":949893,"SoundDuration":949893,"Delta":561579106},{"NoteNumber":69,"Velocity":98,"Duration":1206963,"SoundDuration":1206963,"Delta":561579106},{"NoteNumber":82,"Velocity":98,"Duration":949893,"SoundDuration":949893,"Delta":561579106},{"NoteNumber":37,"Velocity":71,"Duration":949893,"SoundDuration":949893,"Delta":561579106},{"NoteNumber":45,"Velocity":71,"Duration":1206963,"SoundDuration":1206963,"Delta":561579106},{"NoteNumber":77,"Velocity":89,"Duration":257069,"SoundDuration":257069,"Delta":562529000},{"NoteNumber":81,"Velocity":89,"Duration":257069,"SoundDuration":257069,"Delta":562529000},{"NoteNumber":38,"Velocity":71,"Duration":257069,"SoundDuration":257069,"Delta":562529000},{"NoteNumber":53,"Velocity":67,"Duration":311356,"SoundDuration":311356,"Delta":563043139},{"NoteNumber":57,"Velocity":67,"Duration":311356,"SoundDuration":311356,"Delta":563043139},{"NoteNumber":38,"Velocity":44,"Duration":311356,"SoundDuration":311356,"Delta":563043139},{"NoteNumber":50,"Velocity":44,"Duration":311356,"SoundDuration":311356,"Delta":563043139},{"NoteNumber":55,"Velocity":62,"Duration":93731,"SoundDuration":93731,"Delta":563393415},{"NoteNumber":61,"Velocity":62,"Duration":93731,"SoundDuration":93731,"Delta":563393415},{"NoteNumber":52,"Velocity":37,"Duration":93731,"SoundDuration":93731,"Delta":563393415},{"NoteNumber":40,"Velocity":37,"Duration":93731,"SoundDuration":93731,"Delta":563393415},{"NoteNumber":62,"Velocity":66,"Duration":308976,"SoundDuration":308976,"Delta":563505893},{"NoteNumber":57,"Velocity":66,"Duration":308976,"SoundDuration":308976,"Delta":563505893},{"NoteNumber":53,"Velocity":42,"Duration":308976,"SoundDuration":308976,"Delta":563505893},{"NoteNumber":41,"Velocity":42,"Duration":308976,"SoundDuration":308976,"Delta":563505893},{"NoteNumber":58,"Velocity":64,"Duration":93731,"SoundDuration":93731,"Delta":563853491},{"NoteNumber":64,"Velocity":64,"Duration":93731,"SoundDuration":93731,"Delta":563853491},{"NoteNumber":55,"Velocity":40,"Duration":93731,"SoundDuration":93731,"Delta":563853491},{"NoteNumber":43,"Velocity":40,"Duration":93731,"SoundDuration":93731,"Delta":563853491},{"NoteNumber":65,"Velocity":67,"Duration":308976,"SoundDuration":308976,"Delta":563965968},{"NoteNumber":60,"Velocity":67,"Duration":308976,"SoundDuration":308976,"Delta":563965968},{"NoteNumber":45,"Velocity":43,"Duration":308976,"SoundDuration":308976,"Delta":563965968},{"NoteNumber":57,"Velocity":43,"Duration":308976,"SoundDuration":308976,"Delta":563965968},{"NoteNumber":62,"Velocity":64,"Duration":93731,"SoundDuration":93731,"Delta":564313566},{"NoteNumber":67,"Velocity":64,"Duration":93731,"SoundDuration":93731,"Delta":564313566},{"NoteNumber":46,"Velocity":42,"Duration":93731,"SoundDuration":93731,"Delta":564313566},{"NoteNumber":58,"Velocity":42,"Duration":93731,"SoundDuration":93731,"Delta":564313566},{"NoteNumber":60,"Velocity":68,"Duration":306349,"SoundDuration":306349,"Delta":564426044},{"NoteNumber":65,"Velocity":68,"Duration":306349,"SoundDuration":306349,"Delta":564426044},{"NoteNumber":57,"Velocity":45,"Duration":306349,"SoundDuration":306349,"Delta":564426044},{"NoteNumber":45,"Velocity":45,"Duration":306349,"SoundDuration":306349,"Delta":564426044},{"NoteNumber":62,"Velocity":55,"Duration":92565,"SoundDuration":92565,"Delta":564770687},{"NoteNumber":67,"Velocity":67,"Duration":92565,"SoundDuration":92565,"Delta":564770687},{"NoteNumber":46,"Velocity":39,"Duration":92565,"SoundDuration":92565,"Delta":564770687},{"NoteNumber":58,"Velocity":39,"Duration":92565,"SoundDuration":92565,"Delta":564770687},{"NoteNumber":69,"Velocity":71,"Duration":305017,"SoundDuration":305017,"Delta":564881765},{"NoteNumber":64,"Velocity":71,"Duration":305017,"SoundDuration":305017,"Delta":564881765},{"NoteNumber":48,"Velocity":44,"Duration":305017,"SoundDuration":305017,"Delta":564881765},{"NoteNumber":60,"Velocity":44,"Duration":305017,"SoundDuration":305017,"Delta":564881765},{"NoteNumber":65,"Velocity":56,"Duration":92565,"SoundDuration":92565,"Delta":565224910},{"NoteNumber":70,"Velocity":67,"Duration":92565,"SoundDuration":92565,"Delta":565224910},{"NoteNumber":62,"Velocity":40,"Duration":92565,"SoundDuration":92565,"Delta":565224910},{"NoteNumber":50,"Velocity":40,"Duration":92565,"SoundDuration":92565,"Delta":565224910},{"NoteNumber":69,"Velocity":72,"Duration":302457,"SoundDuration":302457,"Delta":565335988},{"NoteNumber":64,"Velocity":72,"Duration":302457,"SoundDuration":302457,"Delta":565335988},{"NoteNumber":48,"Velocity":46,"Duration":302457,"SoundDuration":302457,"Delta":565335988},{"NoteNumber":60,"Velocity":46,"Duration":302457,"SoundDuration":302457,"Delta":565335988},{"NoteNumber":62,"Velocity":60,"Duration":91434,"SoundDuration":91434,"Delta":565676252},{"NoteNumber":67,"Velocity":70,"Duration":91434,"SoundDuration":91434,"Delta":565676252},{"NoteNumber":46,"Velocity":44,"Duration":91434,"SoundDuration":91434,"Delta":565676252},{"NoteNumber":58,"Velocity":44,"Duration":91434,"SoundDuration":91434,"Delta":565676252},{"NoteNumber":60,"Velocity":74,"Duration":298685,"SoundDuration":298685,"Delta":565785974},{"NoteNumber":65,"Velocity":74,"Duration":298685,"SoundDuration":298685,"Delta":565785974},{"NoteNumber":45,"Velocity":46,"Duration":298685,"SoundDuration":298685,"Delta":565785974},{"NoteNumber":57,"Velocity":46,"Duration":298685,"SoundDuration":298685,"Delta":565785974},{"NoteNumber":58,"Velocity":60,"Duration":91061,"SoundDuration":91061,"Delta":566121995},{"NoteNumber":64,"Velocity":70,"Duration":91061,"SoundDuration":91061,"Delta":566121995},{"NoteNumber":55,"Velocity":44,"Duration":91061,"SoundDuration":91061,"Delta":566121995},{"NoteNumber":43,"Velocity":44,"Duration":91061,"SoundDuration":91061,"Delta":566121995},{"NoteNumber":57,"Velocity":75,"Duration":298685,"SoundDuration":298685,"Delta":566231269},{"NoteNumber":62,"Velocity":75,"Duration":298685,"SoundDuration":298685,"Delta":566231269},{"NoteNumber":53,"Velocity":50,"Duration":298685,"SoundDuration":298685,"Delta":566231269},{"NoteNumber":41,"Velocity":50,"Duration":298685,"SoundDuration":298685,"Delta":566231269},{"NoteNumber":57,"Velocity":64,"Duration":91434,"SoundDuration":91434,"Delta":566567291},{"NoteNumber":61,"Velocity":77,"Duration":91434,"SoundDuration":91434,"Delta":566567291},{"NoteNumber":52,"Velocity":46,"Duration":91434,"SoundDuration":91434,"Delta":566567291},{"NoteNumber":40,"Velocity":46,"Duration":91434,"SoundDuration":91434,"Delta":566567291},{"NoteNumber":62,"Velocity":82,"Duration":126103,"SoundDuration":126103,"Delta":566677012},{"NoteNumber":57,"Velocity":68,"Duration":126103,"SoundDuration":126103,"Delta":566677012},{"NoteNumber":41,"Velocity":51,"Duration":126103,"SoundDuration":126103,"Delta":566677012},{"NoteNumber":53,"Velocity":51,"Duration":126103,"SoundDuration":126103,"Delta":566677012},{"NoteNumber":50,"Velocity":89,"Duration":966339,"SoundDuration":966339,"Delta":567181426},{"NoteNumber":55,"Velocity":89,"Duration":966339,"SoundDuration":966339,"Delta":567181426},{"NoteNumber":62,"Velocity":99,"Duration":966339,"SoundDuration":966339,"Delta":567181426},{"NoteNumber":58,"Velocity":99,"Duration":966339,"SoundDuration":966339,"Delta":567181426},{"NoteNumber":50,"Velocity":81,"Duration":187985,"SoundDuration":187985,"Delta":568147766},{"NoteNumber":38,"Velocity":72,"Duration":187985,"SoundDuration":187985,"Delta":568147766},{"NoteNumber":50,"Velocity":90,"Duration":966339,"SoundDuration":966339,"Delta":569150356},{"NoteNumber":53,"Velocity":90,"Duration":966339,"SoundDuration":966339,"Delta":569150356},{"NoteNumber":57,"Velocity":100,"Duration":966339,"SoundDuration":966339,"Delta":569150356},{"NoteNumber":62,"Velocity":100,"Duration":966339,"SoundDuration":966339,"Delta":569150356},{"NoteNumber":38,"Velocity":72,"Duration":183388,"SoundDuration":183388,"Delta":570116696},{"NoteNumber":50,"Velocity":81,"Duration":183388,"SoundDuration":183388,"Delta":570116696},{"NoteNumber":62,"Velocity":82,"Duration":479143,"SoundDuration":479143,"Delta":570605733},{"NoteNumber":74,"Velocity":92,"Duration":956841,"SoundDuration":956841,"Delta":570605733},{"NoteNumber":50,"Velocity":77,"Duration":941799,"SoundDuration":941799,"Delta":571088903},{"NoteNumber":55,"Velocity":77,"Duration":941799,"SoundDuration":941799,"Delta":571088903},{"NoteNumber":58,"Velocity":86,"Duration":941799,"SoundDuration":941799,"Delta":571088903},{"NoteNumber":62,"Velocity":86,"Duration":941799,"SoundDuration":941799,"Delta":571088903},{"NoteNumber":79,"Velocity":91,"Duration":468127,"SoundDuration":468127,"Delta":571562575},{"NoteNumber":67,"Velocity":81,"Duration":468127,"SoundDuration":468127,"Delta":571562575},{"NoteNumber":69,"Velocity":83,"Duration":489156,"SoundDuration":489156,"Delta":572030703},{"NoteNumber":81,"Velocity":93,"Duration":489156,"SoundDuration":489156,"Delta":572030703},{"NoteNumber":50,"Velocity":68,"Duration":183433,"SoundDuration":183433,"Delta":572030703},{"NoteNumber":38,"Velocity":61,"Duration":183433,"SoundDuration":183433,"Delta":572030703},{"NoteNumber":70,"Velocity":81,"Duration":467180,"SoundDuration":467180,"Delta":572519860},{"NoteNumber":82,"Velocity":91,"Duration":467180,"SoundDuration":467180,"Delta":572519860},{"NoteNumber":69,"Velocity":82,"Duration":894187,"SoundDuration":894187,"Delta":572987041},{"NoteNumber":81,"Velocity":92,"Duration":894187,"SoundDuration":894187,"Delta":572987041},{"NoteNumber":50,"Velocity":72,"Duration":894187,"SoundDuration":894187,"Delta":572987041},{"NoteNumber":53,"Velocity":72,"Duration":894187,"SoundDuration":894187,"Delta":572987041},{"NoteNumber":57,"Velocity":81,"Duration":894187,"SoundDuration":894187,"Delta":572987041},{"NoteNumber":62,"Velocity":81,"Duration":884873,"SoundDuration":884873,"Delta":572987041},{"NoteNumber":74,"Velocity":85,"Duration":178316,"SoundDuration":178316,"Delta":573881229},{"NoteNumber":62,"Velocity":76,"Duration":178316,"SoundDuration":178316,"Delta":573881229},{"NoteNumber":50,"Velocity":73,"Duration":178316,"SoundDuration":178316,"Delta":573881229},{"NoteNumber":38,"Velocity":65,"Duration":178316,"SoundDuration":178316,"Delta":573881229},{"NoteNumber":72,"Velocity":84,"Duration":487052,"SoundDuration":487052,"Delta":574356740},{"NoteNumber":84,"Velocity":94,"Duration":487052,"SoundDuration":487052,"Delta":574356740},{"NoteNumber":82,"Velocity":96,"Duration":894187,"SoundDuration":894187,"Delta":574843793},{"NoteNumber":70,"Velocity":86,"Duration":894187,"SoundDuration":894187,"Delta":574843793},{"NoteNumber":50,"Velocity":72,"Duration":894187,"SoundDuration":894187,"Delta":574843793},{"NoteNumber":55,"Velocity":72,"Duration":894187,"SoundDuration":894187,"Delta":574843793},{"NoteNumber":58,"Velocity":81,"Duration":894187,"SoundDuration":894187,"Delta":574843793},{"NoteNumber":62,"Velocity":81,"Duration":884873,"SoundDuration":884873,"Delta":574843793},{"NoteNumber":74,"Velocity":91,"Duration":178316,"SoundDuration":178316,"Delta":575737981},{"NoteNumber":62,"Velocity":81,"Duration":178316,"SoundDuration":178316,"Delta":575737981},{"NoteNumber":38,"Velocity":65,"Duration":178316,"SoundDuration":178316,"Delta":575737981},{"NoteNumber":50,"Velocity":73,"Duration":178316,"SoundDuration":178316,"Delta":575737981},{"NoteNumber":70,"Velocity":85,"Duration":469924,"SoundDuration":469924,"Delta":576213492},{"NoteNumber":82,"Velocity":95,"Duration":469924,"SoundDuration":469924,"Delta":576213492},{"NoteNumber":81,"Velocity":91,"Duration":894187,"SoundDuration":894187,"Delta":576683417},{"NoteNumber":69,"Velocity":81,"Duration":894187,"SoundDuration":894187,"Delta":576683417},{"NoteNumber":50,"Velocity":73,"Duration":894187,"SoundDuration":894187,"Delta":576683417},{"NoteNumber":57,"Velocity":82,"Duration":894187,"SoundDuration":894187,"Delta":576683417},{"NoteNumber":62,"Velocity":82,"Duration":884873,"SoundDuration":884873,"Delta":576683417},{"NoteNumber":53,"Velocity":73,"Duration":894187,"SoundDuration":894187,"Delta":576683417},{"NoteNumber":62,"Velocity":74,"Duration":177360,"SoundDuration":177360,"Delta":577577605},{"NoteNumber":74,"Velocity":83,"Duration":177360,"SoundDuration":177360,"Delta":577577605},{"NoteNumber":38,"Velocity":64,"Duration":177360,"SoundDuration":177360,"Delta":577577605},{"NoteNumber":50,"Velocity":72,"Duration":177360,"SoundDuration":177360,"Delta":577577605},{"NoteNumber":62,"Velocity":86,"Duration":928743,"SoundDuration":928743,"Delta":578050567},{"NoteNumber":74,"Velocity":96,"Duration":928743,"SoundDuration":928743,"Delta":578050567},{"NoteNumber":55,"Velocity":79,"Duration":901587,"SoundDuration":901587,"Delta":578519647},{"NoteNumber":62,"Velocity":88,"Duration":901587,"SoundDuration":901587,"Delta":578519647},{"NoteNumber":58,"Velocity":79,"Duration":901587,"SoundDuration":901587,"Delta":578519647},{"NoteNumber":67,"Velocity":88,"Duration":450087,"SoundDuration":450087,"Delta":578519647},{"NoteNumber":67,"Velocity":84,"Duration":441923,"SoundDuration":441923,"Delta":578979311},{"NoteNumber":79,"Velocity":94,"Duration":441923,"SoundDuration":441923,"Delta":578979311},{"NoteNumber":82,"Velocity":105,"Duration":465261,"SoundDuration":465261,"Delta":579421235},{"NoteNumber":70,"Velocity":94,"Duration":465261,"SoundDuration":465261,"Delta":579421235},{"NoteNumber":43,"Velocity":65,"Duration":174472,"SoundDuration":174472,"Delta":579421235},{"NoteNumber":55,"Velocity":73,"Duration":174472,"SoundDuration":174472,"Delta":579421235},{"NoteNumber":74,"Velocity":92,"Duration":471251,"SoundDuration":471251,"Delta":579886496},{"NoteNumber":86,"Velocity":103,"Duration":471251,"SoundDuration":471251,"Delta":579886496},{"NoteNumber":87,"Velocity":110,"Duration":880476,"SoundDuration":880476,"Delta":580357748},{"NoteNumber":75,"Velocity":99,"Duration":880476,"SoundDuration":880476,"Delta":580357748},{"NoteNumber":60,"Velocity":74,"Duration":880476,"SoundDuration":880476,"Delta":580357748},{"NoteNumber":55,"Velocity":74,"Duration":880476,"SoundDuration":880476,"Delta":580357748},{"NoteNumber":63,"Velocity":83,"Duration":880476,"SoundDuration":880476,"Delta":580357748},{"NoteNumber":67,"Velocity":83,"Duration":431066,"SoundDuration":431066,"Delta":580357748},{"NoteNumber":67,"Velocity":74,"Duration":175904,"SoundDuration":175904,"Delta":581238224},{"NoteNumber":79,"Velocity":83,"Duration":175904,"SoundDuration":175904,"Delta":581238224},{"NoteNumber":55,"Velocity":73,"Duration":175904,"SoundDuration":175904,"Delta":581238224},{"NoteNumber":43,"Velocity":65,"Duration":175904,"SoundDuration":175904,"Delta":581238224},{"NoteNumber":75,"Velocity":94,"Duration":457841,"SoundDuration":457841,"Delta":581707304},{"NoteNumber":87,"Velocity":105,"Duration":457841,"SoundDuration":457841,"Delta":581707304},{"NoteNumber":74,"Velocity":94,"Duration":877064,"SoundDuration":877064,"Delta":582165145},{"NoteNumber":86,"Velocity":105,"Duration":877064,"SoundDuration":877064,"Delta":582165145},{"NoteNumber":58,"Velocity":73,"Duration":877064,"SoundDuration":877064,"Delta":582165145},{"NoteNumber":55,"Velocity":73,"Duration":877064,"SoundDuration":877064,"Delta":582165145},{"NoteNumber":67,"Velocity":82,"Duration":429395,"SoundDuration":429395,"Delta":582165145},{"NoteNumber":62,"Velocity":82,"Duration":877064,"SoundDuration":877064,"Delta":582165145},{"NoteNumber":67,"Velocity":74,"Duration":175192,"SoundDuration":175192,"Delta":583042209},{"NoteNumber":79,"Velocity":83,"Duration":175192,"SoundDuration":175192,"Delta":583042209},{"NoteNumber":43,"Velocity":64,"Duration":175192,"SoundDuration":175192,"Delta":583042209},{"NoteNumber":55,"Velocity":72,"Duration":175192,"SoundDuration":175192,"Delta":583042209},{"NoteNumber":74,"Velocity":87,"Duration":917505,"SoundDuration":917505,"Delta":583509390},{"NoteNumber":86,"Velocity":97,"Duration":917505,"SoundDuration":917505,"Delta":583509390},{"NoteNumber":53,"Velocity":73,"Duration":912083,"SoundDuration":912083,"Delta":583967231},{"NoteNumber":62,"Velocity":82,"Duration":912083,"SoundDuration":912083,"Delta":583967231},{"NoteNumber":57,"Velocity":73,"Duration":912083,"SoundDuration":912083,"Delta":583967231},{"NoteNumber":65,"Velocity":82,"Duration":912083,"SoundDuration":912083,"Delta":583967231},{"NoteNumber":77,"Velocity":85,"Duration":452419,"SoundDuration":452419,"Delta":584426895},{"NoteNumber":89,"Velocity":95,"Duration":452419,"SoundDuration":452419,"Delta":584426895},{"NoteNumber":91,"Velocity":104,"Duration":452420,"SoundDuration":452420,"Delta":584879315},{"NoteNumber":79,"Velocity":93,"Duration":452420,"SoundDuration":452420,"Delta":584879315},{"NoteNumber":53,"Velocity":74,"Duration":169657,"SoundDuration":169657,"Delta":584879315},{"NoteNumber":41,"Velocity":66,"Duration":169657,"SoundDuration":169657,"Delta":584879315},{"NoteNumber":93,"Velocity":100,"Duration":493056,"SoundDuration":493056,"Delta":585331735},{"NoteNumber":81,"Velocity":90,"Duration":493056,"SoundDuration":493056,"Delta":585331735},{"NoteNumber":81,"Velocity":98,"Duration":926075,"SoundDuration":926075,"Delta":585824791},{"NoteNumber":93,"Velocity":109,"Duration":926075,"SoundDuration":926075,"Delta":585824791},{"NoteNumber":52,"Velocity":76,"Duration":926075,"SoundDuration":926075,"Delta":585824791},{"NoteNumber":61,"Velocity":85,"Duration":926075,"SoundDuration":926075,"Delta":585824791},{"NoteNumber":64,"Velocity":85,"Duration":926075,"SoundDuration":926075,"Delta":585824791},{"NoteNumber":93,"Velocity":105,"Duration":900689,"SoundDuration":900689,"Delta":586791131},{"NoteNumber":81,"Velocity":94,"Duration":900689,"SoundDuration":900689,"Delta":586791131},{"NoteNumber":61,"Velocity":75,"Duration":900689,"SoundDuration":900689,"Delta":586791131},{"NoteNumber":69,"Velocity":84,"Duration":900689,"SoundDuration":900689,"Delta":586791131},{"NoteNumber":57,"Velocity":75,"Duration":900689,"SoundDuration":900689,"Delta":586791131},{"NoteNumber":89,"Velocity":89,"Duration":926783,"SoundDuration":926783,"Delta":587730981},{"NoteNumber":77,"Velocity":80,"Duration":926783,"SoundDuration":926783,"Delta":587730981},{"NoteNumber":65,"Velocity":82,"Duration":926783,"SoundDuration":926783,"Delta":587730981},{"NoteNumber":53,"Velocity":73,"Duration":926783,"SoundDuration":926783,"Delta":587730981},{"NoteNumber":86,"Velocity":81,"Duration":205558,"SoundDuration":205558,"Delta":588657765},{"NoteNumber":74,"Velocity":72,"Duration":205558,"SoundDuration":205558,"Delta":588657765},{"NoteNumber":62,"Velocity":73,"Duration":205558,"SoundDuration":205558,"Delta":588657765},{"NoteNumber":50,"Velocity":65,"Duration":205558,"SoundDuration":205558,"Delta":588657765},{"NoteNumber":69,"Velocity":52,"Duration":945568,"SoundDuration":945568,"Delta":589644445},{"NoteNumber":81,"Velocity":52,"Duration":945568,"SoundDuration":945568,"Delta":589644445},{"NoteNumber":40,"Velocity":44,"Duration":945568,"SoundDuration":945568,"Delta":589644445},{"NoteNumber":49,"Velocity":44,"Duration":945568,"SoundDuration":945568,"Delta":589644445},{"NoteNumber":52,"Velocity":44,"Duration":945568,"SoundDuration":945568,"Delta":589644445},{"NoteNumber":81,"Velocity":52,"Duration":929819,"SoundDuration":929819,"Delta":590631125},{"NoteNumber":69,"Velocity":52,"Duration":929819,"SoundDuration":929819,"Delta":590631125},{"NoteNumber":57,"Velocity":40,"Duration":929819,"SoundDuration":929819,"Delta":590631125},{"NoteNumber":45,"Velocity":40,"Duration":929819,"SoundDuration":929819,"Delta":590631125},{"NoteNumber":49,"Velocity":40,"Duration":929819,"SoundDuration":929819,"Delta":590631125},{"NoteNumber":65,"Velocity":49,"Duration":934361,"SoundDuration":934361,"Delta":591601371},{"NoteNumber":77,"Velocity":49,"Duration":934361,"SoundDuration":934361,"Delta":591601371},{"NoteNumber":53,"Velocity":40,"Duration":934361,"SoundDuration":934361,"Delta":591601371},{"NoteNumber":41,"Velocity":40,"Duration":934361,"SoundDuration":934361,"Delta":591601371},{"NoteNumber":74,"Velocity":45,"Duration":202134,"SoundDuration":202134,"Delta":592535733},{"NoteNumber":62,"Velocity":45,"Duration":202134,"SoundDuration":202134,"Delta":592535733},{"NoteNumber":50,"Velocity":40,"Duration":202134,"SoundDuration":202134,"Delta":592535733},{"NoteNumber":38,"Velocity":40,"Duration":202134,"SoundDuration":202134,"Delta":592535733},{"NoteNumber":63,"Velocity":37,"Duration":911992,"SoundDuration":911992,"Delta":593505979},{"NoteNumber":75,"Velocity":37,"Duration":911992,"SoundDuration":911992,"Delta":593505979},{"NoteNumber":51,"Velocity":34,"Duration":911992,"SoundDuration":911992,"Delta":593505979},{"NoteNumber":39,"Velocity":34,"Duration":911992,"SoundDuration":911992,"Delta":593505979},{"NoteNumber":72,"Velocity":27,"Duration":197894,"SoundDuration":197894,"Delta":594417971},{"NoteNumber":60,"Velocity":27,"Duration":197894,"SoundDuration":197894,"Delta":594417971},{"NoteNumber":36,"Velocity":26,"Duration":197894,"SoundDuration":197894,"Delta":594417971},{"NoteNumber":48,"Velocity":26,"Duration":197894,"SoundDuration":197894,"Delta":594417971},{"NoteNumber":63,"Velocity":34,"Duration":908402,"SoundDuration":908402,"Delta":595367865},{"NoteNumber":75,"Velocity":34,"Duration":908402,"SoundDuration":908402,"Delta":595367865},{"NoteNumber":39,"Velocity":33,"Duration":908402,"SoundDuration":908402,"Delta":595367865},{"NoteNumber":51,"Velocity":33,"Duration":908402,"SoundDuration":908402,"Delta":595367865},{"NoteNumber":72,"Velocity":27,"Duration":197067,"SoundDuration":197067,"Delta":596276267},{"NoteNumber":60,"Velocity":27,"Duration":197067,"SoundDuration":197067,"Delta":596276267},{"NoteNumber":48,"Velocity":24,"Duration":197067,"SoundDuration":197067,"Delta":596276267},{"NoteNumber":36,"Velocity":24,"Duration":197067,"SoundDuration":197067,"Delta":596276267},{"NoteNumber":69,"Velocity":34,"Duration":1069380,"SoundDuration":1069380,"Delta":597222191},{"NoteNumber":75,"Velocity":34,"Duration":894187,"SoundDuration":894187,"Delta":597222191},{"NoteNumber":60,"Velocity":33,"Duration":894187,"SoundDuration":894187,"Delta":597222191},{"NoteNumber":54,"Velocity":33,"Duration":1069380,"SoundDuration":1069380,"Delta":597222191},{"NoteNumber":72,"Velocity":27,"Duration":194658,"SoundDuration":194658,"Delta":598116379},{"NoteNumber":63,"Velocity":24,"Duration":194658,"SoundDuration":194658,"Delta":598116379},{"NoteNumber":69,"Velocity":34,"Duration":1069380,"SoundDuration":1069380,"Delta":599050741},{"NoteNumber":75,"Velocity":34,"Duration":894187,"SoundDuration":894187,"Delta":599050741},{"NoteNumber":53,"Velocity":33,"Duration":1069380,"SoundDuration":1069380,"Delta":599050741},{"NoteNumber":60,"Velocity":33,"Duration":894187,"SoundDuration":894187,"Delta":599050741},{"NoteNumber":72,"Velocity":27,"Duration":194658,"SoundDuration":194658,"Delta":599944929},{"NoteNumber":63,"Velocity":24,"Duration":194658,"SoundDuration":194658,"Delta":599944929},{"NoteNumber":76,"Velocity":34,"Duration":894187,"SoundDuration":894187,"Delta":600879291},{"NoteNumber":69,"Velocity":34,"Duration":1069380,"SoundDuration":1069380,"Delta":600879291},{"NoteNumber":52,"Velocity":33,"Duration":1069380,"SoundDuration":1069380,"Delta":600879291},{"NoteNumber":61,"Velocity":33,"Duration":894187,"SoundDuration":894187,"Delta":600879291},{"NoteNumber":73,"Velocity":27,"Duration":194658,"SoundDuration":194658,"Delta":601773479},{"NoteNumber":64,"Velocity":24,"Duration":194658,"SoundDuration":194658,"Delta":601773479},{"NoteNumber":68,"Velocity":34,"Duration":1069380,"SoundDuration":1069380,"Delta":602707841},{"NoteNumber":76,"Velocity":34,"Duration":894187,"SoundDuration":894187,"Delta":602707841},{"NoteNumber":62,"Velocity":33,"Duration":894187,"SoundDuration":894187,"Delta":602707841},{"NoteNumber":52,"Velocity":33,"Duration":1069380,"SoundDuration":1069380,"Delta":602707841},{"NoteNumber":71,"Velocity":27,"Duration":194658,"SoundDuration":194658,"Delta":603602029},{"NoteNumber":64,"Velocity":24,"Duration":194658,"SoundDuration":194658,"Delta":603602029},{"NoteNumber":73,"Velocity":34,"Duration":284114,"SoundDuration":284114,"Delta":604536391},{"NoteNumber":61,"Velocity":34,"Duration":284114,"SoundDuration":284114,"Delta":604536391},{"NoteNumber":45,"Velocity":20,"Duration":284114,"SoundDuration":284114,"Delta":604536391},{"NoteNumber":52,"Velocity":20,"Duration":284114,"SoundDuration":284114,"Delta":604536391},{"NoteNumber":61,"Velocity":29,"Duration":286760,"SoundDuration":286760,"Delta":604861093},{"NoteNumber":73,"Velocity":29,"Duration":286760,"SoundDuration":286760,"Delta":604861093},{"NoteNumber":52,"Velocity":16,"Duration":286760,"SoundDuration":286760,"Delta":604861093},{"NoteNumber":45,"Velocity":16,"Duration":286760,"SoundDuration":286760,"Delta":604861093},{"NoteNumber":73,"Velocity":29,"Duration":290287,"SoundDuration":290287,"Delta":605189323},{"NoteNumber":61,"Velocity":29,"Duration":290287,"SoundDuration":290287,"Delta":605189323},{"NoteNumber":52,"Velocity":16,"Duration":290287,"SoundDuration":290287,"Delta":605189323},{"NoteNumber":45,"Velocity":16,"Duration":290287,"SoundDuration":290287,"Delta":605189323},{"NoteNumber":61,"Velocity":23,"Duration":859670,"SoundDuration":859670,"Delta":605521080},{"NoteNumber":73,"Velocity":27,"Duration":859670,"SoundDuration":859670,"Delta":605521080},{"NoteNumber":45,"Velocity":16,"Duration":859670,"SoundDuration":859670,"Delta":605521080},{"NoteNumber":52,"Velocity":16,"Duration":859670,"SoundDuration":859670,"Delta":605521080},{"NoteNumber":61,"Velocity":39,"Duration":470903,"SoundDuration":470903,"Delta":606503560},{"NoteNumber":69,"Velocity":39,"Duration":470903,"SoundDuration":470903,"Delta":606503560},{"NoteNumber":45,"Velocity":20,"Duration":470903,"SoundDuration":470903,"Delta":606503560},{"NoteNumber":52,"Velocity":20,"Duration":470903,"SoundDuration":470903,"Delta":606503560},{"NoteNumber":61,"Velocity":34,"Duration":461218,"SoundDuration":461218,"Delta":606984483},{"NoteNumber":73,"Velocity":34,"Duration":461218,"SoundDuration":461218,"Delta":606984483},{"NoteNumber":52,"Velocity":16,"Duration":461218,"SoundDuration":461218,"Delta":606984483},{"NoteNumber":45,"Velocity":16,"Duration":461218,"SoundDuration":461218,"Delta":606984483},{"NoteNumber":71,"Velocity":38,"Duration":477060,"SoundDuration":477060,"Delta":607455515},{"NoteNumber":61,"Velocity":38,"Duration":477060,"SoundDuration":477060,"Delta":607455515},{"NoteNumber":45,"Velocity":19,"Duration":477060,"SoundDuration":477060,"Delta":607455515},{"NoteNumber":52,"Velocity":19,"Duration":477060,"SoundDuration":477060,"Delta":607455515},{"NoteNumber":61,"Velocity":35,"Duration":490851,"SoundDuration":490851,"Delta":607942726},{"NoteNumber":73,"Velocity":35,"Duration":490851,"SoundDuration":490851,"Delta":607942726},{"NoteNumber":52,"Velocity":15,"Duration":490851,"SoundDuration":490851,"Delta":607942726},{"NoteNumber":45,"Velocity":15,"Duration":490851,"SoundDuration":490851,"Delta":607942726},{"NoteNumber":66,"Velocity":39,"Duration":272522,"SoundDuration":272522,"Delta":608444021},{"NoteNumber":62,"Velocity":39,"Duration":272522,"SoundDuration":272522,"Delta":608444021},{"NoteNumber":45,"Velocity":23,"Duration":272522,"SoundDuration":272522,"Delta":608444021},{"NoteNumber":54,"Velocity":23,"Duration":272522,"SoundDuration":272522,"Delta":608444021},{"NoteNumber":62,"Velocity":30,"Duration":278536,"SoundDuration":278536,"Delta":608755475},{"NoteNumber":66,"Velocity":30,"Duration":278536,"SoundDuration":278536,"Delta":608755475},{"NoteNumber":54,"Velocity":19,"Duration":278536,"SoundDuration":278536,"Delta":608755475},{"NoteNumber":45,"Velocity":19,"Duration":278536,"SoundDuration":278536,"Delta":608755475},{"NoteNumber":62,"Velocity":30,"Duration":286556,"SoundDuration":286556,"Delta":609074949},{"NoteNumber":66,"Velocity":30,"Duration":286556,"SoundDuration":286556,"Delta":609074949},{"NoteNumber":45,"Velocity":17,"Duration":286556,"SoundDuration":286556,"Delta":609074949},{"NoteNumber":54,"Velocity":17,"Duration":286556,"SoundDuration":286556,"Delta":609074949},{"NoteNumber":62,"Velocity":25,"Duration":859670,"SoundDuration":859670,"Delta":609402442},{"NoteNumber":66,"Velocity":25,"Duration":859670,"SoundDuration":859670,"Delta":609402442},{"NoteNumber":45,"Velocity":15,"Duration":859670,"SoundDuration":859670,"Delta":609402442},{"NoteNumber":54,"Velocity":15,"Duration":859670,"SoundDuration":859670,"Delta":609402442},{"NoteNumber":62,"Velocity":38,"Duration":474900,"SoundDuration":474900,"Delta":610384922},{"NoteNumber":66,"Velocity":38,"Duration":474900,"SoundDuration":474900,"Delta":610384922},{"NoteNumber":54,"Velocity":20,"Duration":474900,"SoundDuration":474900,"Delta":610384922},{"NoteNumber":45,"Velocity":20,"Duration":474900,"SoundDuration":474900,"Delta":610384922},{"NoteNumber":64,"Velocity":31,"Duration":472799,"SoundDuration":472799,"Delta":610869927},{"NoteNumber":71,"Velocity":31,"Duration":472799,"SoundDuration":472799,"Delta":610869927},{"NoteNumber":62,"Velocity":31,"Duration":472799,"SoundDuration":472799,"Delta":610869927},{"NoteNumber":56,"Velocity":15,"Duration":472799,"SoundDuration":472799,"Delta":610869927},{"NoteNumber":45,"Velocity":15,"Duration":472799,"SoundDuration":472799,"Delta":610869927},{"NoteNumber":64,"Velocity":37,"Duration":461146,"SoundDuration":461146,"Delta":611352786},{"NoteNumber":62,"Velocity":37,"Duration":461146,"SoundDuration":461146,"Delta":611352786},{"NoteNumber":69,"Velocity":37,"Duration":461146,"SoundDuration":461146,"Delta":611352786},{"NoteNumber":45,"Velocity":19,"Duration":461146,"SoundDuration":461146,"Delta":611352786},{"NoteNumber":54,"Velocity":19,"Duration":461146,"SoundDuration":461146,"Delta":611352786},{"NoteNumber":71,"Velocity":29,"Duration":497165,"SoundDuration":497165,"Delta":611823744},{"NoteNumber":62,"Velocity":29,"Duration":497165,"SoundDuration":497165,"Delta":611823744},{"NoteNumber":64,"Velocity":29,"Duration":497165,"SoundDuration":497165,"Delta":611823744},{"NoteNumber":45,"Velocity":15,"Duration":497165,"SoundDuration":497165,"Delta":611823744},{"NoteNumber":56,"Velocity":15,"Duration":497165,"SoundDuration":497165,"Delta":611823744},{"NoteNumber":64,"Velocity":36,"Duration":270311,"SoundDuration":270311,"Delta":612331487},{"NoteNumber":61,"Velocity":36,"Duration":270311,"SoundDuration":270311,"Delta":612331487},{"NoteNumber":57,"Velocity":23,"Duration":270311,"SoundDuration":270311,"Delta":612331487},{"NoteNumber":45,"Velocity":23,"Duration":270311,"SoundDuration":270311,"Delta":612331487},{"NoteNumber":61,"Velocity":29,"Duration":276753,"SoundDuration":276753,"Delta":612640415},{"NoteNumber":64,"Velocity":29,"Duration":276753,"SoundDuration":276753,"Delta":612640415},{"NoteNumber":45,"Velocity":18,"Duration":276753,"SoundDuration":276753,"Delta":612640415},{"NoteNumber":57,"Velocity":18,"Duration":276753,"SoundDuration":276753,"Delta":612640415},{"NoteNumber":64,"Velocity":29,"Duration":285341,"SoundDuration":285341,"Delta":612957931},{"NoteNumber":61,"Velocity":29,"Duration":285341,"SoundDuration":285341,"Delta":612957931},{"NoteNumber":45,"Velocity":17,"Duration":285341,"SoundDuration":285341,"Delta":612957931},{"NoteNumber":57,"Velocity":17,"Duration":285341,"SoundDuration":285341,"Delta":612957931},{"NoteNumber":61,"Velocity":20,"Duration":859670,"SoundDuration":859670,"Delta":613284036},{"NoteNumber":69,"Velocity":32,"Duration":859670,"SoundDuration":859670,"Delta":613284036},{"NoteNumber":52,"Velocity":15,"Duration":859670,"SoundDuration":859670,"Delta":613284036},{"NoteNumber":45,"Velocity":15,"Duration":859670,"SoundDuration":859670,"Delta":613284036},{"NoteNumber":61,"Velocity":50,"Duration":472874,"SoundDuration":472874,"Delta":614266516},{"NoteNumber":69,"Velocity":50,"Duration":472874,"SoundDuration":472874,"Delta":614266516},{"NoteNumber":45,"Velocity":23,"Duration":472874,"SoundDuration":472874,"Delta":614266516},{"NoteNumber":52,"Velocity":23,"Duration":472874,"SoundDuration":472874,"Delta":614266516},{"NoteNumber":61,"Velocity":40,"Duration":472951,"SoundDuration":472951,"Delta":614749452},{"NoteNumber":73,"Velocity":40,"Duration":472951,"SoundDuration":472951,"Delta":614749452},{"NoteNumber":52,"Velocity":18,"Duration":472951,"SoundDuration":472951,"Delta":614749452},{"NoteNumber":45,"Velocity":18,"Duration":472951,"SoundDuration":472951,"Delta":614749452},{"NoteNumber":61,"Velocity":42,"Duration":465052,"SoundDuration":465052,"Delta":615232466},{"NoteNumber":71,"Velocity":42,"Duration":465052,"SoundDuration":465052,"Delta":615232466},{"NoteNumber":52,"Velocity":26,"Duration":465052,"SoundDuration":465052,"Delta":615232466},{"NoteNumber":45,"Velocity":26,"Duration":465052,"SoundDuration":465052,"Delta":615232466},{"NoteNumber":61,"Velocity":42,"Duration":457305,"SoundDuration":457305,"Delta":615707413},{"NoteNumber":73,"Velocity":42,"Duration":457305,"SoundDuration":457305,"Delta":615707413},{"NoteNumber":45,"Velocity":22,"Duration":457305,"SoundDuration":457305,"Delta":615707413},{"NoteNumber":52,"Velocity":22,"Duration":457305,"SoundDuration":457305,"Delta":615707413},{"NoteNumber":69,"Velocity":48,"Duration":264950,"SoundDuration":264950,"Delta":616174448},{"NoteNumber":62,"Velocity":48,"Duration":264950,"SoundDuration":264950,"Delta":616174448},{"NoteNumber":74,"Velocity":48,"Duration":264950,"SoundDuration":264950,"Delta":616174448},{"NoteNumber":54,"Velocity":31,"Duration":264950,"SoundDuration":264950,"Delta":616174448},{"NoteNumber":45,"Velocity":31,"Duration":264950,"SoundDuration":264950,"Delta":616174448},{"NoteNumber":62,"Velocity":40,"Duration":269158,"SoundDuration":269158,"Delta":616477249},{"NoteNumber":74,"Velocity":40,"Duration":269158,"SoundDuration":269158,"Delta":616477249},{"NoteNumber":69,"Velocity":40,"Duration":269158,"SoundDuration":269158,"Delta":616477249},{"NoteNumber":45,"Velocity":23,"Duration":269158,"SoundDuration":269158,"Delta":616477249},{"NoteNumber":54,"Velocity":23,"Duration":269158,"SoundDuration":269158,"Delta":616477249},{"NoteNumber":74,"Velocity":40,"Duration":274768,"SoundDuration":274768,"Delta":616785660},{"NoteNumber":69,"Velocity":40,"Duration":274768,"SoundDuration":274768,"Delta":616785660},{"NoteNumber":62,"Velocity":40,"Duration":274768,"SoundDuration":274768,"Delta":616785660},{"NoteNumber":45,"Velocity":22,"Duration":274768,"SoundDuration":274768,"Delta":616785660},{"NoteNumber":54,"Velocity":22,"Duration":274768,"SoundDuration":274768,"Delta":616785660},{"NoteNumber":62,"Velocity":36,"Duration":859670,"SoundDuration":859670,"Delta":617099681},{"NoteNumber":69,"Velocity":36,"Duration":859670,"SoundDuration":859670,"Delta":617099681},{"NoteNumber":74,"Velocity":36,"Duration":859670,"SoundDuration":859670,"Delta":617099681},{"NoteNumber":54,"Velocity":17,"Duration":859670,"SoundDuration":859670,"Delta":617099681},{"NoteNumber":45,"Velocity":17,"Duration":859670,"SoundDuration":859670,"Delta":617099681},{"NoteNumber":74,"Velocity":42,"Duration":282851,"SoundDuration":282851,"Delta":618082161},{"NoteNumber":66,"Velocity":42,"Duration":282851,"SoundDuration":282851,"Delta":618082161},{"NoteNumber":78,"Velocity":42,"Duration":282851,"SoundDuration":282851,"Delta":618082161},{"NoteNumber":45,"Velocity":56,"Duration":1934272,"SoundDuration":1934272,"Delta":618082161},{"NoteNumber":54,"Velocity":56,"Duration":484887,"SoundDuration":484887,"Delta":618082161},{"NoteNumber":66,"Velocity":38,"Duration":280366,"SoundDuration":280366,"Delta":618405420},{"NoteNumber":78,"Velocity":38,"Duration":280366,"SoundDuration":280366,"Delta":618405420},{"NoteNumber":74,"Velocity":38,"Duration":280366,"SoundDuration":280366,"Delta":618405420},{"NoteNumber":57,"Velocity":53,"Duration":474947,"SoundDuration":474947,"Delta":618567049},{"NoteNumber":74,"Velocity":38,"Duration":277052,"SoundDuration":277052,"Delta":618725365},{"NoteNumber":66,"Velocity":38,"Duration":277052,"SoundDuration":277052,"Delta":618725365},{"NoteNumber":78,"Velocity":38,"Duration":277052,"SoundDuration":277052,"Delta":618725365},{"NoteNumber":66,"Velocity":42,"Duration":472951,"SoundDuration":472951,"Delta":619041996},{"NoteNumber":78,"Velocity":42,"Duration":932784,"SoundDuration":932784,"Delta":619041996},{"NoteNumber":74,"Velocity":42,"Duration":932784,"SoundDuration":932784,"Delta":619041996},{"NoteNumber":62,"Velocity":56,"Duration":483014,"SoundDuration":483014,"Delta":619041996},{"NoteNumber":66,"Velocity":58,"Duration":491423,"SoundDuration":491423,"Delta":619525010},{"NoteNumber":69,"Velocity":40,"Duration":262861,"SoundDuration":262861,"Delta":620016434},{"NoteNumber":73,"Velocity":40,"Duration":262861,"SoundDuration":262861,"Delta":620016434},{"NoteNumber":81,"Velocity":40,"Duration":262861,"SoundDuration":262861,"Delta":620016434},{"NoteNumber":57,"Velocity":26,"Duration":262861,"SoundDuration":262861,"Delta":620016434},{"NoteNumber":64,"Velocity":26,"Duration":262861,"SoundDuration":262861,"Delta":620016434},{"NoteNumber":81,"Velocity":36,"Duration":270437,"SoundDuration":270437,"Delta":620316847},{"NoteNumber":73,"Velocity":36,"Duration":270437,"SoundDuration":270437,"Delta":620316847},{"NoteNumber":69,"Velocity":36,"Duration":270437,"SoundDuration":270437,"Delta":620316847},{"NoteNumber":64,"Velocity":22,"Duration":270437,"SoundDuration":270437,"Delta":620316847},{"NoteNumber":57,"Velocity":22,"Duration":270437,"SoundDuration":270437,"Delta":620316847},{"NoteNumber":73,"Velocity":36,"Duration":280538,"SoundDuration":280538,"Delta":620627361},{"NoteNumber":69,"Velocity":36,"Duration":280538,"SoundDuration":280538,"Delta":620627361},{"NoteNumber":81,"Velocity":36,"Duration":280538,"SoundDuration":280538,"Delta":620627361},{"NoteNumber":64,"Velocity":22,"Duration":280538,"SoundDuration":280538,"Delta":620627361},{"NoteNumber":57,"Velocity":22,"Duration":280538,"SoundDuration":280538,"Delta":620627361},{"NoteNumber":69,"Velocity":23,"Duration":854905,"SoundDuration":854905,"Delta":620947977},{"NoteNumber":81,"Velocity":27,"Duration":854905,"SoundDuration":854905,"Delta":620947977},{"NoteNumber":73,"Velocity":23,"Duration":854905,"SoundDuration":854905,"Delta":620947977},{"NoteNumber":57,"Velocity":17,"Duration":854905,"SoundDuration":854905,"Delta":620947977},{"NoteNumber":64,"Velocity":17,"Duration":854905,"SoundDuration":854905,"Delta":620947977},{"NoteNumber":68,"Velocity":45,"Duration":463108,"SoundDuration":463108,"Delta":621924105},{"NoteNumber":74,"Velocity":45,"Duration":463108,"SoundDuration":463108,"Delta":621924105},{"NoteNumber":83,"Velocity":45,"Duration":463108,"SoundDuration":463108,"Delta":621924105},{"NoteNumber":57,"Velocity":24,"Duration":463108,"SoundDuration":463108,"Delta":621924105},{"NoteNumber":64,"Velocity":24,"Duration":463108,"SoundDuration":463108,"Delta":621924105},{"NoteNumber":80,"Velocity":36,"Duration":468912,"SoundDuration":468912,"Delta":622397067},{"NoteNumber":74,"Velocity":36,"Duration":468912,"SoundDuration":468912,"Delta":622397067},{"NoteNumber":71,"Velocity":36,"Duration":468912,"SoundDuration":468912,"Delta":622397067},{"NoteNumber":64,"Velocity":19,"Duration":468912,"SoundDuration":468912,"Delta":622397067},{"NoteNumber":57,"Velocity":19,"Duration":468912,"SoundDuration":468912,"Delta":622397067},{"NoteNumber":71,"Velocity":41,"Duration":472874,"SoundDuration":472874,"Delta":622875956},{"NoteNumber":76,"Velocity":41,"Duration":472874,"SoundDuration":472874,"Delta":622875956},{"NoteNumber":57,"Velocity":22,"Duration":472874,"SoundDuration":472874,"Delta":622875956},{"NoteNumber":68,"Velocity":22,"Duration":472874,"SoundDuration":472874,"Delta":622875956},{"NoteNumber":69,"Velocity":34,"Duration":478966,"SoundDuration":478966,"Delta":623358892},{"NoteNumber":74,"Velocity":34,"Duration":478966,"SoundDuration":478966,"Delta":623358892},{"NoteNumber":57,"Velocity":19,"Duration":478966,"SoundDuration":478966,"Delta":623358892},{"NoteNumber":66,"Velocity":19,"Duration":478966,"SoundDuration":478966,"Delta":623358892},{"NoteNumber":73,"Velocity":35,"Duration":261839,"SoundDuration":261839,"Delta":623848049},{"NoteNumber":69,"Velocity":35,"Duration":261839,"SoundDuration":261839,"Delta":623848049},{"NoteNumber":57,"Velocity":24,"Duration":261839,"SoundDuration":261839,"Delta":623848049},{"NoteNumber":64,"Velocity":24,"Duration":261839,"SoundDuration":261839,"Delta":623848049},{"NoteNumber":69,"Velocity":27,"Duration":264538,"SoundDuration":264538,"Delta":624147293},{"NoteNumber":73,"Velocity":27,"Duration":264538,"SoundDuration":264538,"Delta":624147293},{"NoteNumber":57,"Velocity":19,"Duration":264538,"SoundDuration":264538,"Delta":624147293},{"NoteNumber":64,"Velocity":19,"Duration":264538,"SoundDuration":264538,"Delta":624147293},{"NoteNumber":73,"Velocity":26,"Duration":268137,"SoundDuration":268137,"Delta":624450137},{"NoteNumber":69,"Velocity":26,"Duration":268137,"SoundDuration":268137,"Delta":624450137},{"NoteNumber":57,"Velocity":19,"Duration":268137,"SoundDuration":268137,"Delta":624450137},{"NoteNumber":64,"Velocity":19,"Duration":268137,"SoundDuration":268137,"Delta":624450137},{"NoteNumber":69,"Velocity":19,"Duration":844200,"SoundDuration":844200,"Delta":624756580},{"NoteNumber":73,"Velocity":23,"Duration":844200,"SoundDuration":844200,"Delta":624756580},{"NoteNumber":57,"Velocity":15,"Duration":844200,"SoundDuration":844200,"Delta":624756580},{"NoteNumber":64,"Velocity":15,"Duration":844200,"SoundDuration":844200,"Delta":624756580},{"NoteNumber":68,"Velocity":44,"Duration":461146,"SoundDuration":461146,"Delta":625720512},{"NoteNumber":74,"Velocity":44,"Duration":461146,"SoundDuration":461146,"Delta":625720512},{"NoteNumber":83,"Velocity":44,"Duration":461146,"SoundDuration":461146,"Delta":625720512},{"NoteNumber":64,"Velocity":24,"Duration":461146,"SoundDuration":461146,"Delta":625720512},{"NoteNumber":57,"Velocity":24,"Duration":461146,"SoundDuration":461146,"Delta":625720512},{"NoteNumber":80,"Velocity":33,"Duration":466974,"SoundDuration":466974,"Delta":626191470},{"NoteNumber":71,"Velocity":33,"Duration":466974,"SoundDuration":466974,"Delta":626191470},{"NoteNumber":74,"Velocity":33,"Duration":466974,"SoundDuration":466974,"Delta":626191470},{"NoteNumber":64,"Velocity":18,"Duration":466974,"SoundDuration":466974,"Delta":626191470},{"NoteNumber":57,"Velocity":18,"Duration":466974,"SoundDuration":466974,"Delta":626191470},{"NoteNumber":71,"Velocity":38,"Duration":472874,"SoundDuration":472874,"Delta":626668380},{"NoteNumber":76,"Velocity":38,"Duration":472874,"SoundDuration":472874,"Delta":626668380},{"NoteNumber":68,"Velocity":22,"Duration":472874,"SoundDuration":472874,"Delta":626668380},{"NoteNumber":57,"Velocity":22,"Duration":472874,"SoundDuration":472874,"Delta":626668380},{"NoteNumber":74,"Velocity":33,"Duration":476906,"SoundDuration":476906,"Delta":627151316},{"NoteNumber":69,"Velocity":33,"Duration":476906,"SoundDuration":476906,"Delta":627151316},{"NoteNumber":57,"Velocity":19,"Duration":476906,"SoundDuration":476906,"Delta":627151316},{"NoteNumber":66,"Velocity":19,"Duration":476906,"SoundDuration":476906,"Delta":627151316},{"NoteNumber":73,"Velocity":35,"Duration":260804,"SoundDuration":260804,"Delta":627638369},{"NoteNumber":69,"Velocity":35,"Duration":260804,"SoundDuration":260804,"Delta":627638369},{"NoteNumber":64,"Velocity":29,"Duration":260804,"SoundDuration":260804,"Delta":627638369},{"NoteNumber":57,"Velocity":29,"Duration":260804,"SoundDuration":260804,"Delta":627638369},{"NoteNumber":69,"Velocity":31,"Duration":263947,"SoundDuration":263947,"Delta":627936431},{"NoteNumber":73,"Velocity":31,"Duration":263947,"SoundDuration":263947,"Delta":627936431},{"NoteNumber":57,"Velocity":26,"Duration":263947,"SoundDuration":263947,"Delta":627936431},{"NoteNumber":64,"Velocity":26,"Duration":263947,"SoundDuration":263947,"Delta":627936431},{"NoteNumber":73,"Velocity":28,"Duration":268137,"SoundDuration":268137,"Delta":628238684},{"NoteNumber":69,"Velocity":28,"Duration":268137,"SoundDuration":268137,"Delta":628238684},{"NoteNumber":57,"Velocity":22,"Duration":268137,"SoundDuration":268137,"Delta":628238684},{"NoteNumber":64,"Velocity":22,"Duration":268137,"SoundDuration":268137,"Delta":628238684},{"NoteNumber":69,"Velocity":19,"Duration":852342,"SoundDuration":852342,"Delta":628545127},{"NoteNumber":73,"Velocity":23,"Duration":852342,"SoundDuration":852342,"Delta":628545127},{"NoteNumber":64,"Velocity":15,"Duration":852342,"SoundDuration":852342,"Delta":628545127},{"NoteNumber":57,"Velocity":15,"Duration":852342,"SoundDuration":852342,"Delta":628545127},{"NoteNumber":69,"Velocity":35,"Duration":466974,"SoundDuration":466974,"Delta":629519233},{"NoteNumber":57,"Velocity":25,"Duration":466974,"SoundDuration":466974,"Delta":629519233},{"NoteNumber":61,"Velocity":25,"Duration":466974,"SoundDuration":466974,"Delta":629519233},{"NoteNumber":73,"Velocity":31,"Duration":477060,"SoundDuration":477060,"Delta":629996143},{"NoteNumber":69,"Velocity":26,"Duration":477060,"SoundDuration":477060,"Delta":629996143},{"NoteNumber":64,"Velocity":23,"Duration":477060,"SoundDuration":477060,"Delta":629996143},{"NoteNumber":57,"Velocity":23,"Duration":477060,"SoundDuration":477060,"Delta":629996143},{"NoteNumber":69,"Velocity":29,"Duration":468949,"SoundDuration":468949,"Delta":630483354},{"NoteNumber":71,"Velocity":35,"Duration":468949,"SoundDuration":468949,"Delta":630483354},{"NoteNumber":62,"Velocity":25,"Duration":468949,"SoundDuration":468949,"Delta":630483354},{"NoteNumber":57,"Velocity":25,"Duration":468949,"SoundDuration":468949,"Delta":630483354},{"NoteNumber":69,"Velocity":27,"Duration":487268,"SoundDuration":487268,"Delta":630962281},{"NoteNumber":73,"Velocity":33,"Duration":487268,"SoundDuration":487268,"Delta":630962281},{"NoteNumber":57,"Velocity":24,"Duration":487268,"SoundDuration":487268,"Delta":630962281},{"NoteNumber":64,"Velocity":24,"Duration":487268,"SoundDuration":487268,"Delta":630962281},{"NoteNumber":69,"Velocity":34,"Duration":262861,"SoundDuration":262861,"Delta":631459917},{"NoteNumber":76,"Velocity":34,"Duration":262861,"SoundDuration":262861,"Delta":631459917},{"NoteNumber":66,"Velocity":25,"Duration":262861,"SoundDuration":262861,"Delta":631459917},{"NoteNumber":57,"Velocity":25,"Duration":262861,"SoundDuration":262861,"Delta":631459917},{"NoteNumber":76,"Velocity":30,"Duration":265591,"SoundDuration":265591,"Delta":631760330},{"NoteNumber":69,"Velocity":30,"Duration":265591,"SoundDuration":265591,"Delta":631760330},{"NoteNumber":57,"Velocity":20,"Duration":265591,"SoundDuration":265591,"Delta":631760330},{"NoteNumber":66,"Velocity":20,"Duration":265591,"SoundDuration":265591,"Delta":631760330},{"NoteNumber":69,"Velocity":29,"Duration":269230,"SoundDuration":269230,"Delta":632064383},{"NoteNumber":76,"Velocity":29,"Duration":269230,"SoundDuration":269230,"Delta":632064383},{"NoteNumber":57,"Velocity":20,"Duration":269230,"SoundDuration":269230,"Delta":632064383},{"NoteNumber":66,"Velocity":20,"Duration":269230,"SoundDuration":269230,"Delta":632064383},{"NoteNumber":75,"Velocity":24,"Duration":239502,"SoundDuration":239502,"Delta":632372075},{"NoteNumber":69,"Velocity":18,"Duration":239502,"SoundDuration":239502,"Delta":632372075},{"NoteNumber":66,"Velocity":15,"Duration":239502,"SoundDuration":239502,"Delta":632372075},{"NoteNumber":57,"Velocity":15,"Duration":239502,"SoundDuration":239502,"Delta":632372075},{"NoteNumber":88,"Velocity":37,"Duration":262861,"SoundDuration":262861,"Delta":633330083},{"NoteNumber":93,"Velocity":37,"Duration":262861,"SoundDuration":262861,"Delta":633330083},{"NoteNumber":81,"Velocity":37,"Duration":262861,"SoundDuration":262861,"Delta":633330083},{"NoteNumber":69,"Velocity":22,"Duration":262861,"SoundDuration":262861,"Delta":633330083},{"NoteNumber":77,"Velocity":22,"Duration":262861,"SoundDuration":262861,"Delta":633330083},{"NoteNumber":93,"Velocity":31,"Duration":262861,"SoundDuration":262861,"Delta":633630496},{"NoteNumber":81,"Velocity":31,"Duration":262861,"SoundDuration":262861,"Delta":633630496},{"NoteNumber":88,"Velocity":31,"Duration":262861,"SoundDuration":262861,"Delta":633630496},{"NoteNumber":77,"Velocity":19,"Duration":262861,"SoundDuration":262861,"Delta":633630496},{"NoteNumber":69,"Velocity":19,"Duration":262861,"SoundDuration":262861,"Delta":633630496},{"NoteNumber":93,"Velocity":30,"Duration":262861,"SoundDuration":262861,"Delta":633930909},{"NoteNumber":88,"Velocity":30,"Duration":262861,"SoundDuration":262861,"Delta":633930909},{"NoteNumber":81,"Velocity":30,"Duration":262861,"SoundDuration":262861,"Delta":633930909},{"NoteNumber":69,"Velocity":19,"Duration":262861,"SoundDuration":262861,"Delta":633930909},{"NoteNumber":77,"Velocity":19,"Duration":262861,"SoundDuration":262861,"Delta":633930909},{"NoteNumber":86,"Velocity":24,"Duration":423598,"SoundDuration":423598,"Delta":634231323},{"NoteNumber":93,"Velocity":24,"Duration":423598,"SoundDuration":423598,"Delta":634231323},{"NoteNumber":81,"Velocity":24,"Duration":423598,"SoundDuration":423598,"Delta":634231323},{"NoteNumber":69,"Velocity":8,"Duration":423598,"SoundDuration":423598,"Delta":634231323},{"NoteNumber":77,"Velocity":9,"Duration":423598,"SoundDuration":423598,"Delta":634231323},{"NoteNumber":69,"Velocity":34,"Duration":272522,"SoundDuration":272522,"Delta":635155537},{"NoteNumber":74,"Velocity":34,"Duration":272522,"SoundDuration":272522,"Delta":635155537},{"NoteNumber":64,"Velocity":25,"Duration":272522,"SoundDuration":272522,"Delta":635155537},{"NoteNumber":57,"Velocity":25,"Duration":272522,"SoundDuration":272522,"Delta":635155537},{"NoteNumber":69,"Velocity":29,"Duration":273967,"SoundDuration":273967,"Delta":635466991},{"NoteNumber":74,"Velocity":29,"Duration":273967,"SoundDuration":273967,"Delta":635466991},{"NoteNumber":64,"Velocity":20,"Duration":273967,"SoundDuration":273967,"Delta":635466991},{"NoteNumber":57,"Velocity":20,"Duration":273967,"SoundDuration":273967,"Delta":635466991},{"NoteNumber":69,"Velocity":29,"Duration":275894,"SoundDuration":275894,"Delta":635780372},{"NoteNumber":74,"Velocity":29,"Duration":275894,"SoundDuration":275894,"Delta":635780372},{"NoteNumber":64,"Velocity":22,"Duration":275894,"SoundDuration":275894,"Delta":635780372},{"NoteNumber":57,"Velocity":22,"Duration":275894,"SoundDuration":275894,"Delta":635780372},{"NoteNumber":73,"Velocity":27,"Duration":442620,"SoundDuration":442620,"Delta":636095680},{"NoteNumber":69,"Velocity":27,"Duration":442620,"SoundDuration":442620,"Delta":636095680},{"NoteNumber":57,"Velocity":12,"Duration":442620,"SoundDuration":442620,"Delta":636095680},{"NoteNumber":64,"Velocity":13,"Duration":442620,"SoundDuration":442620,"Delta":636095680},{"NoteNumber":93,"Velocity":37,"Duration":261839,"SoundDuration":261839,"Delta":637061398},{"NoteNumber":86,"Velocity":37,"Duration":261839,"SoundDuration":261839,"Delta":637061398},{"NoteNumber":81,"Velocity":37,"Duration":261839,"SoundDuration":261839,"Delta":637061398},{"NoteNumber":76,"Velocity":22,"Duration":261839,"SoundDuration":261839,"Delta":637061398},{"NoteNumber":69,"Velocity":22,"Duration":261839,"SoundDuration":261839,"Delta":637061398},{"NoteNumber":81,"Velocity":33,"Duration":261839,"SoundDuration":261839,"Delta":637360642},{"NoteNumber":86,"Velocity":33,"Duration":261839,"SoundDuration":261839,"Delta":637360642},{"NoteNumber":93,"Velocity":33,"Duration":261839,"SoundDuration":261839,"Delta":637360642},{"NoteNumber":69,"Velocity":19,"Duration":261839,"SoundDuration":261839,"Delta":637360642},{"NoteNumber":76,"Velocity":19,"Duration":261839,"SoundDuration":261839,"Delta":637360642},{"NoteNumber":93,"Velocity":30,"Duration":261839,"SoundDuration":261839,"Delta":637659887},{"NoteNumber":86,"Velocity":30,"Duration":261839,"SoundDuration":261839,"Delta":637659887},{"NoteNumber":81,"Velocity":30,"Duration":261839,"SoundDuration":261839,"Delta":637659887},{"NoteNumber":76,"Velocity":20,"Duration":261839,"SoundDuration":261839,"Delta":637659887},{"NoteNumber":69,"Velocity":20,"Duration":261839,"SoundDuration":261839,"Delta":637659887},{"NoteNumber":93,"Velocity":27,"Duration":444587,"SoundDuration":444587,"Delta":637959132},{"NoteNumber":81,"Velocity":27,"Duration":444587,"SoundDuration":444587,"Delta":637959132},{"NoteNumber":84,"Velocity":27,"Duration":444587,"SoundDuration":444587,"Delta":637959132},{"NoteNumber":69,"Velocity":13,"Duration":444587,"SoundDuration":444587,"Delta":637959132},{"NoteNumber":76,"Velocity":13,"Duration":444587,"SoundDuration":444587,"Delta":637959132},{"NoteNumber":59,"Velocity":85,"Duration":264950,"SoundDuration":264950,"Delta":638929142},{"NoteNumber":71,"Velocity":85,"Duration":264950,"SoundDuration":264950,"Delta":638929142},{"NoteNumber":69,"Velocity":85,"Duration":264950,"SoundDuration":264950,"Delta":638929142},{"NoteNumber":65,"Velocity":85,"Duration":264950,"SoundDuration":264950,"Delta":638929142},{"NoteNumber":38,"Velocity":59,"Duration":264950,"SoundDuration":264950,"Delta":638929142},{"NoteNumber":50,"Velocity":59,"Duration":264950,"SoundDuration":264950,"Delta":638929142},{"NoteNumber":65,"Velocity":79,"Duration":267248,"SoundDuration":267248,"Delta":639231942},{"NoteNumber":71,"Velocity":79,"Duration":267248,"SoundDuration":267248,"Delta":639231942},{"NoteNumber":69,"Velocity":79,"Duration":267248,"SoundDuration":267248,"Delta":639231942},{"NoteNumber":59,"Velocity":79,"Duration":267248,"SoundDuration":267248,"Delta":639231942},{"NoteNumber":50,"Velocity":53,"Duration":267248,"SoundDuration":267248,"Delta":639231942},{"NoteNumber":38,"Velocity":53,"Duration":267248,"SoundDuration":267248,"Delta":639231942},{"NoteNumber":69,"Velocity":73,"Duration":270311,"SoundDuration":270311,"Delta":639537807},{"NoteNumber":71,"Velocity":73,"Duration":270311,"SoundDuration":270311,"Delta":639537807},{"NoteNumber":65,"Velocity":73,"Duration":270311,"SoundDuration":270311,"Delta":639537807},{"NoteNumber":59,"Velocity":73,"Duration":270311,"SoundDuration":270311,"Delta":639537807},{"NoteNumber":38,"Velocity":49,"Duration":270311,"SoundDuration":270311,"Delta":639537807},{"NoteNumber":50,"Velocity":49,"Duration":270311,"SoundDuration":270311,"Delta":639537807},{"NoteNumber":59,"Velocity":57,"Duration":444587,"SoundDuration":444587,"Delta":639846735},{"NoteNumber":71,"Velocity":57,"Duration":444587,"SoundDuration":444587,"Delta":639846735},{"NoteNumber":69,"Velocity":57,"Duration":444587,"SoundDuration":444587,"Delta":639846735},{"NoteNumber":65,"Velocity":57,"Duration":444587,"SoundDuration":444587,"Delta":639846735},{"NoteNumber":38,"Velocity":34,"Duration":444587,"SoundDuration":444587,"Delta":639846735},{"NoteNumber":50,"Velocity":34,"Duration":444587,"SoundDuration":444587,"Delta":639846735},{"NoteNumber":78,"Velocity":46,"Duration":465052,"SoundDuration":465052,"Delta":640816745},{"NoteNumber":81,"Velocity":46,"Duration":465052,"SoundDuration":465052,"Delta":640816745},{"NoteNumber":83,"Velocity":55,"Duration":465052,"SoundDuration":465052,"Delta":640816745},{"NoteNumber":69,"Velocity":39,"Duration":465052,"SoundDuration":465052,"Delta":640816745},{"NoteNumber":71,"Velocity":39,"Duration":465052,"SoundDuration":465052,"Delta":640816745},{"NoteNumber":62,"Velocity":39,"Duration":465052,"SoundDuration":465052,"Delta":640816745},{"NoteNumber":85,"Velocity":46,"Duration":459307,"SoundDuration":459307,"Delta":641291692},{"NoteNumber":76,"Velocity":37,"Duration":459307,"SoundDuration":459307,"Delta":641291692},{"NoteNumber":81,"Velocity":37,"Duration":459307,"SoundDuration":459307,"Delta":641291692},{"NoteNumber":69,"Velocity":34,"Duration":459307,"SoundDuration":459307,"Delta":641291692},{"NoteNumber":73,"Velocity":34,"Duration":459307,"SoundDuration":459307,"Delta":641291692},{"NoteNumber":64,"Velocity":34,"Duration":459307,"SoundDuration":459307,"Delta":641291692},{"NoteNumber":74,"Velocity":42,"Duration":455568,"SoundDuration":455568,"Delta":641760772},{"NoteNumber":81,"Velocity":42,"Duration":455568,"SoundDuration":455568,"Delta":641760772},{"NoteNumber":86,"Velocity":50,"Duration":455568,"SoundDuration":455568,"Delta":641760772},{"NoteNumber":69,"Velocity":37,"Duration":455568,"SoundDuration":455568,"Delta":641760772},{"NoteNumber":66,"Velocity":37,"Duration":455568,"SoundDuration":455568,"Delta":641760772},{"NoteNumber":85,"Velocity":46,"Duration":480690,"SoundDuration":480690,"Delta":642226033},{"NoteNumber":76,"Velocity":37,"Duration":480690,"SoundDuration":480690,"Delta":642226033},{"NoteNumber":81,"Velocity":37,"Duration":480690,"SoundDuration":480690,"Delta":642226033},{"NoteNumber":64,"Velocity":36,"Duration":480690,"SoundDuration":480690,"Delta":642226033},{"NoteNumber":73,"Velocity":36,"Duration":480690,"SoundDuration":480690,"Delta":642226033},{"NoteNumber":69,"Velocity":36,"Duration":480690,"SoundDuration":480690,"Delta":642226033},{"NoteNumber":88,"Velocity":50,"Duration":260804,"SoundDuration":260804,"Delta":642716951},{"NoteNumber":81,"Velocity":50,"Duration":260804,"SoundDuration":260804,"Delta":642716951},{"NoteNumber":76,"Velocity":50,"Duration":260804,"SoundDuration":260804,"Delta":642716951},{"NoteNumber":64,"Velocity":36,"Duration":260804,"SoundDuration":260804,"Delta":642716951},{"NoteNumber":71,"Velocity":36,"Duration":260804,"SoundDuration":260804,"Delta":642716951},{"NoteNumber":74,"Velocity":36,"Duration":260804,"SoundDuration":260804,"Delta":642716951},{"NoteNumber":76,"Velocity":42,"Duration":263491,"SoundDuration":263491,"Delta":643015013},{"NoteNumber":88,"Velocity":42,"Duration":263491,"SoundDuration":263491,"Delta":643015013},{"NoteNumber":81,"Velocity":42,"Duration":263491,"SoundDuration":263491,"Delta":643015013},{"NoteNumber":64,"Velocity":34,"Duration":263491,"SoundDuration":263491,"Delta":643015013},{"NoteNumber":71,"Velocity":34,"Duration":263491,"SoundDuration":263491,"Delta":643015013},{"NoteNumber":74,"Velocity":34,"Duration":263491,"SoundDuration":263491,"Delta":643015013},{"NoteNumber":88,"Velocity":41,"Duration":267073,"SoundDuration":267073,"Delta":643316658},{"NoteNumber":81,"Velocity":41,"Duration":267073,"SoundDuration":267073,"Delta":643316658},{"NoteNumber":76,"Velocity":41,"Duration":267073,"SoundDuration":267073,"Delta":643316658},{"NoteNumber":64,"Velocity":29,"Duration":267073,"SoundDuration":267073,"Delta":643316658},{"NoteNumber":71,"Velocity":29,"Duration":267073,"SoundDuration":267073,"Delta":643316658},{"NoteNumber":74,"Velocity":29,"Duration":267073,"SoundDuration":267073,"Delta":643316658},{"NoteNumber":80,"Velocity":28,"Duration":440846,"SoundDuration":440846,"Delta":643621886},{"NoteNumber":88,"Velocity":23,"Duration":440846,"SoundDuration":440846,"Delta":643621886},{"NoteNumber":76,"Velocity":23,"Duration":440846,"SoundDuration":440846,"Delta":643621886},{"NoteNumber":74,"Velocity":15,"Duration":440846,"SoundDuration":440846,"Delta":643621886},{"NoteNumber":71,"Velocity":15,"Duration":440846,"SoundDuration":440846,"Delta":643621886},{"NoteNumber":64,"Velocity":15,"Duration":440846,"SoundDuration":440846,"Delta":643621886},{"NoteNumber":69,"Velocity":37,"Duration":268137,"SoundDuration":268137,"Delta":644593189},{"NoteNumber":73,"Velocity":37,"Duration":268137,"SoundDuration":268137,"Delta":644593189},{"NoteNumber":64,"Velocity":27,"Duration":268137,"SoundDuration":268137,"Delta":644593189},{"NoteNumber":57,"Velocity":27,"Duration":268137,"SoundDuration":268137,"Delta":644593189},{"NoteNumber":73,"Velocity":30,"Duration":270016,"SoundDuration":270016,"Delta":644899632},{"NoteNumber":69,"Velocity":30,"Duration":270016,"SoundDuration":270016,"Delta":644899632},{"NoteNumber":64,"Velocity":24,"Duration":270016,"SoundDuration":270016,"Delta":644899632},{"NoteNumber":57,"Velocity":24,"Duration":270016,"SoundDuration":270016,"Delta":644899632},{"NoteNumber":69,"Velocity":29,"Duration":272522,"SoundDuration":272522,"Delta":645208580},{"NoteNumber":73,"Velocity":29,"Duration":272522,"SoundDuration":272522,"Delta":645208580},{"NoteNumber":64,"Velocity":24,"Duration":272522,"SoundDuration":272522,"Delta":645208580},{"NoteNumber":57,"Velocity":24,"Duration":272522,"SoundDuration":272522,"Delta":645208580},{"NoteNumber":69,"Velocity":23,"Duration":433548,"SoundDuration":433548,"Delta":645520034},{"NoteNumber":73,"Velocity":23,"Duration":433548,"SoundDuration":433548,"Delta":645520034},{"NoteNumber":57,"Velocity":23,"Duration":433548,"SoundDuration":433548,"Delta":645520034},{"NoteNumber":64,"Velocity":16,"Duration":433548,"SoundDuration":433548,"Delta":645520034},{"NoteNumber":69,"Velocity":85,"Duration":261839,"SoundDuration":261839,"Delta":646484236},{"NoteNumber":71,"Velocity":85,"Duration":261839,"SoundDuration":261839,"Delta":646484236},{"NoteNumber":65,"Velocity":85,"Duration":261839,"SoundDuration":261839,"Delta":646484236},{"NoteNumber":59,"Velocity":85,"Duration":261839,"SoundDuration":261839,"Delta":646484236},{"NoteNumber":50,"Velocity":63,"Duration":261839,"SoundDuration":261839,"Delta":646484236},{"NoteNumber":38,"Velocity":63,"Duration":261839,"SoundDuration":261839,"Delta":646484236},{"NoteNumber":59,"Velocity":79,"Duration":261839,"SoundDuration":261839,"Delta":646783481},{"NoteNumber":65,"Velocity":79,"Duration":261839,"SoundDuration":261839,"Delta":646783481},{"NoteNumber":71,"Velocity":79,"Duration":261839,"SoundDuration":261839,"Delta":646783481},{"NoteNumber":69,"Velocity":79,"Duration":261839,"SoundDuration":261839,"Delta":646783481},{"NoteNumber":38,"Velocity":55,"Duration":261839,"SoundDuration":261839,"Delta":646783481},{"NoteNumber":50,"Velocity":55,"Duration":261839,"SoundDuration":261839,"Delta":646783481},{"NoteNumber":59,"Velocity":72,"Duration":261839,"SoundDuration":261839,"Delta":647082725},{"NoteNumber":65,"Velocity":72,"Duration":261839,"SoundDuration":261839,"Delta":647082725},{"NoteNumber":69,"Velocity":72,"Duration":261839,"SoundDuration":261839,"Delta":647082725},{"NoteNumber":71,"Velocity":72,"Duration":261839,"SoundDuration":261839,"Delta":647082725},{"NoteNumber":38,"Velocity":51,"Duration":261839,"SoundDuration":261839,"Delta":647082725},{"NoteNumber":50,"Velocity":51,"Duration":261839,"SoundDuration":261839,"Delta":647082725},{"NoteNumber":71,"Velocity":56,"Duration":428615,"SoundDuration":428615,"Delta":647381970},{"NoteNumber":69,"Velocity":56,"Duration":428615,"SoundDuration":428615,"Delta":647381970},{"NoteNumber":65,"Velocity":56,"Duration":428615,"SoundDuration":428615,"Delta":647381970},{"NoteNumber":59,"Velocity":56,"Duration":428615,"SoundDuration":428615,"Delta":647381970},{"NoteNumber":38,"Velocity":35,"Duration":428615,"SoundDuration":428615,"Delta":647381970},{"NoteNumber":50,"Velocity":35,"Duration":428615,"SoundDuration":428615,"Delta":647381970},{"NoteNumber":78,"Velocity":46,"Duration":463108,"SoundDuration":463108,"Delta":648317132},{"NoteNumber":83,"Velocity":55,"Duration":463108,"SoundDuration":463108,"Delta":648317132},{"NoteNumber":81,"Velocity":46,"Duration":463108,"SoundDuration":463108,"Delta":648317132},{"NoteNumber":62,"Velocity":39,"Duration":463108,"SoundDuration":463108,"Delta":648317132},{"NoteNumber":71,"Velocity":39,"Duration":463108,"SoundDuration":463108,"Delta":648317132},{"NoteNumber":69,"Velocity":39,"Duration":463108,"SoundDuration":463108,"Delta":648317132},{"NoteNumber":81,"Velocity":41,"Duration":461146,"SoundDuration":461146,"Delta":648790094},{"NoteNumber":76,"Velocity":41,"Duration":461146,"SoundDuration":461146,"Delta":648790094},{"NoteNumber":85,"Velocity":49,"Duration":461146,"SoundDuration":461146,"Delta":648790094},{"NoteNumber":73,"Velocity":36,"Duration":461146,"SoundDuration":461146,"Delta":648790094},{"NoteNumber":69,"Velocity":36,"Duration":461146,"SoundDuration":461146,"Delta":648790094},{"NoteNumber":64,"Velocity":36,"Duration":461146,"SoundDuration":461146,"Delta":648790094},{"NoteNumber":86,"Velocity":53,"Duration":451679,"SoundDuration":451679,"Delta":649261052},{"NoteNumber":74,"Velocity":44,"Duration":451679,"SoundDuration":451679,"Delta":649261052},{"NoteNumber":81,"Velocity":44,"Duration":451679,"SoundDuration":451679,"Delta":649261052},{"NoteNumber":66,"Velocity":39,"Duration":451679,"SoundDuration":451679,"Delta":649261052},{"NoteNumber":69,"Velocity":39,"Duration":451679,"SoundDuration":451679,"Delta":649261052},{"NoteNumber":81,"Velocity":39,"Duration":482665,"SoundDuration":482665,"Delta":649722342},{"NoteNumber":76,"Velocity":39,"Duration":482665,"SoundDuration":482665,"Delta":649722342},{"NoteNumber":85,"Velocity":47,"Duration":482665,"SoundDuration":482665,"Delta":649722342},{"NoteNumber":64,"Velocity":36,"Duration":482665,"SoundDuration":482665,"Delta":649722342},{"NoteNumber":69,"Velocity":36,"Duration":482665,"SoundDuration":482665,"Delta":649722342},{"NoteNumber":73,"Velocity":36,"Duration":482665,"SoundDuration":482665,"Delta":649722342},{"NoteNumber":88,"Velocity":50,"Duration":263911,"SoundDuration":263911,"Delta":650215277},{"NoteNumber":76,"Velocity":50,"Duration":263911,"SoundDuration":263911,"Delta":650215277},{"NoteNumber":81,"Velocity":50,"Duration":263911,"SoundDuration":263911,"Delta":650215277},{"NoteNumber":71,"Velocity":36,"Duration":263911,"SoundDuration":263911,"Delta":650215277},{"NoteNumber":74,"Velocity":36,"Duration":263911,"SoundDuration":263911,"Delta":650215277},{"NoteNumber":64,"Velocity":36,"Duration":263911,"SoundDuration":263911,"Delta":650215277},{"NoteNumber":88,"Velocity":47,"Duration":263911,"SoundDuration":263911,"Delta":650516890},{"NoteNumber":81,"Velocity":47,"Duration":263911,"SoundDuration":263911,"Delta":650516890},{"NoteNumber":76,"Velocity":47,"Duration":263911,"SoundDuration":263911,"Delta":650516890},{"NoteNumber":64,"Velocity":33,"Duration":263911,"SoundDuration":263911,"Delta":650516890},{"NoteNumber":71,"Velocity":33,"Duration":263911,"SoundDuration":263911,"Delta":650516890},{"NoteNumber":74,"Velocity":33,"Duration":263911,"SoundDuration":263911,"Delta":650516890},{"NoteNumber":76,"Velocity":47,"Duration":263911,"SoundDuration":263911,"Delta":650818504},{"NoteNumber":81,"Velocity":47,"Duration":263911,"SoundDuration":263911,"Delta":650818504},{"NoteNumber":88,"Velocity":47,"Duration":263911,"SoundDuration":263911,"Delta":650818504},{"NoteNumber":71,"Velocity":33,"Duration":263911,"SoundDuration":263911,"Delta":650818504},{"NoteNumber":74,"Velocity":33,"Duration":263911,"SoundDuration":263911,"Delta":650818504},{"NoteNumber":64,"Velocity":33,"Duration":263911,"SoundDuration":263911,"Delta":650818504},{"NoteNumber":88,"Velocity":27,"Duration":444587,"SoundDuration":444587,"Delta":651120117},{"NoteNumber":76,"Velocity":26,"Duration":444587,"SoundDuration":444587,"Delta":651120117},{"NoteNumber":80,"Velocity":33,"Duration":444587,"SoundDuration":444587,"Delta":651120117},{"NoteNumber":64,"Velocity":17,"Duration":444587,"SoundDuration":444587,"Delta":651120117},{"NoteNumber":74,"Velocity":17,"Duration":444587,"SoundDuration":444587,"Delta":651120117},{"NoteNumber":71,"Velocity":17,"Duration":444587,"SoundDuration":444587,"Delta":651120117},{"NoteNumber":69,"Velocity":106,"Duration":254842,"SoundDuration":254842,"Delta":652090127},{"NoteNumber":57,"Velocity":95,"Duration":254842,"SoundDuration":254842,"Delta":652090127},{"NoteNumber":45,"Velocity":83,"Duration":254842,"SoundDuration":254842,"Delta":652090127},{"NoteNumber":33,"Velocity":74,"Duration":254842,"SoundDuration":254842,"Delta":652090127},{"NoteNumber":57,"Velocity":88,"Duration":264360,"SoundDuration":264360,"Delta":652381375},{"NoteNumber":69,"Velocity":97,"Duration":264360,"SoundDuration":264360,"Delta":652381375},{"NoteNumber":45,"Velocity":73,"Duration":264360,"SoundDuration":264360,"Delta":652381375},{"NoteNumber":33,"Velocity":66,"Duration":264360,"SoundDuration":264360,"Delta":652381375},{"NoteNumber":57,"Velocity":78,"Duration":277052,"SoundDuration":277052,"Delta":652685315},{"NoteNumber":69,"Velocity":86,"Duration":277052,"SoundDuration":277052,"Delta":652685315},{"NoteNumber":45,"Velocity":67,"Duration":277052,"SoundDuration":277052,"Delta":652685315},{"NoteNumber":33,"Velocity":59,"Duration":277052,"SoundDuration":277052,"Delta":652685315},{"NoteNumber":57,"Velocity":69,"Duration":444587,"SoundDuration":444587,"Delta":653001946},{"NoteNumber":69,"Velocity":77,"Duration":444587,"SoundDuration":444587,"Delta":653001946},{"NoteNumber":33,"Velocity":50,"Duration":444587,"SoundDuration":444587,"Delta":653001946},{"NoteNumber":45,"Velocity":57,"Duration":444587,"SoundDuration":444587,"Delta":653001946},{"NoteNumber":64,"Velocity":36,"Duration":465550,"SoundDuration":465550,"Delta":653971956},{"NoteNumber":61,"Velocity":36,"Duration":465550,"SoundDuration":465550,"Delta":653971956},{"NoteNumber":52,"Velocity":22,"Duration":465550,"SoundDuration":465550,"Delta":653971956},{"NoteNumber":45,"Velocity":22,"Duration":465550,"SoundDuration":465550,"Delta":653971956},{"NoteNumber":61,"Velocity":30,"Duration":461218,"SoundDuration":461218,"Delta":654447401},{"NoteNumber":73,"Velocity":30,"Duration":461218,"SoundDuration":461218,"Delta":654447401},{"NoteNumber":52,"Velocity":17,"Duration":461218,"SoundDuration":461218,"Delta":654447401},{"NoteNumber":45,"Velocity":17,"Duration":461218,"SoundDuration":461218,"Delta":654447401},{"NoteNumber":71,"Velocity":37,"Duration":455390,"SoundDuration":455390,"Delta":654918433},{"NoteNumber":61,"Velocity":37,"Duration":455390,"SoundDuration":455390,"Delta":654918433},{"NoteNumber":52,"Velocity":20,"Duration":455390,"SoundDuration":455390,"Delta":654918433},{"NoteNumber":45,"Velocity":20,"Duration":455390,"SoundDuration":455390,"Delta":654918433},{"NoteNumber":61,"Velocity":30,"Duration":495070,"SoundDuration":495070,"Delta":655383513},{"NoteNumber":73,"Velocity":30,"Duration":495070,"SoundDuration":495070,"Delta":655383513},{"NoteNumber":45,"Velocity":16,"Duration":495070,"SoundDuration":495070,"Delta":655383513},{"NoteNumber":52,"Velocity":16,"Duration":495070,"SoundDuration":495070,"Delta":655383513},{"NoteNumber":73,"Velocity":39,"Duration":885705,"SoundDuration":885705,"Delta":655889117},{"NoteNumber":65,"Velocity":24,"Duration":885705,"SoundDuration":885705,"Delta":655889117},{"NoteNumber":76,"Velocity":39,"Duration":885705,"SoundDuration":885705,"Delta":655889117},{"NoteNumber":45,"Velocity":16,"Duration":885705,"SoundDuration":885705,"Delta":655889117},{"NoteNumber":53,"Velocity":16,"Duration":885705,"SoundDuration":885705,"Delta":655889117},{"NoteNumber":65,"Velocity":22,"Duration":237567,"SoundDuration":237567,"Delta":656813331},{"NoteNumber":71,"Velocity":23,"Duration":237567,"SoundDuration":237567,"Delta":656813331},{"NoteNumber":74,"Velocity":23,"Duration":237567,"SoundDuration":237567,"Delta":656813331},{"NoteNumber":45,"Velocity":8,"Duration":237567,"SoundDuration":237567,"Delta":656813331},{"NoteNumber":53,"Velocity":8,"Duration":237567,"SoundDuration":237567,"Delta":656813331},{"NoteNumber":76,"Velocity":39,"Duration":896196,"SoundDuration":896196,"Delta":657763601},{"NoteNumber":64,"Velocity":29,"Duration":896196,"SoundDuration":896196,"Delta":657763601},{"NoteNumber":73,"Velocity":39,"Duration":896196,"SoundDuration":896196,"Delta":657763601},{"NoteNumber":56,"Velocity":23,"Duration":896196,"SoundDuration":896196,"Delta":657763601},{"NoteNumber":45,"Velocity":23,"Duration":896196,"SoundDuration":896196,"Delta":657763601},{"NoteNumber":64,"Velocity":19,"Duration":244439,"SoundDuration":244439,"Delta":658698763},{"NoteNumber":71,"Velocity":23,"Duration":244439,"SoundDuration":244439,"Delta":658698763},{"NoteNumber":74,"Velocity":23,"Duration":244439,"SoundDuration":244439,"Delta":658698763},{"NoteNumber":56,"Velocity":9,"Duration":244439,"SoundDuration":244439,"Delta":658698763},{"NoteNumber":45,"Velocity":9,"Duration":244439,"SoundDuration":244439,"Delta":658698763},{"NoteNumber":81,"Velocity":106,"Duration":258780,"SoundDuration":258780,"Delta":659676519},{"NoteNumber":69,"Velocity":95,"Duration":258780,"SoundDuration":258780,"Delta":659676519},{"NoteNumber":45,"Velocity":82,"Duration":258780,"SoundDuration":258780,"Delta":659676519},{"NoteNumber":33,"Velocity":73,"Duration":258780,"SoundDuration":258780,"Delta":659676519},{"NoteNumber":69,"Velocity":89,"Duration":265144,"SoundDuration":265144,"Delta":659972268},{"NoteNumber":81,"Velocity":100,"Duration":265144,"SoundDuration":265144,"Delta":659972268},{"NoteNumber":45,"Velocity":75,"Duration":265144,"SoundDuration":265144,"Delta":659972268},{"NoteNumber":33,"Velocity":68,"Duration":265144,"SoundDuration":265144,"Delta":659972268},{"NoteNumber":69,"Velocity":84,"Duration":273630,"SoundDuration":273630,"Delta":660276502},{"NoteNumber":81,"Velocity":94,"Duration":273630,"SoundDuration":273630,"Delta":660276502},{"NoteNumber":45,"Velocity":73,"Duration":273630,"SoundDuration":273630,"Delta":660276502},{"NoteNumber":33,"Velocity":66,"Duration":273630,"SoundDuration":273630,"Delta":660276502},{"NoteNumber":69,"Velocity":67,"Duration":446465,"SoundDuration":446465,"Delta":660589222},{"NoteNumber":81,"Velocity":74,"Duration":446465,"SoundDuration":446465,"Delta":660589222},{"NoteNumber":45,"Velocity":58,"Duration":446465,"SoundDuration":446465,"Delta":660589222},{"NoteNumber":33,"Velocity":51,"Duration":446465,"SoundDuration":446465,"Delta":660589222},{"NoteNumber":61,"Velocity":38,"Duration":466974,"SoundDuration":466974,"Delta":661563328},{"NoteNumber":64,"Velocity":38,"Duration":466974,"SoundDuration":466974,"Delta":661563328},{"NoteNumber":52,"Velocity":25,"Duration":466974,"SoundDuration":466974,"Delta":661563328},{"NoteNumber":45,"Velocity":25,"Duration":466974,"SoundDuration":466974,"Delta":661563328},{"NoteNumber":61,"Velocity":31,"Duration":461146,"SoundDuration":461146,"Delta":662040238},{"NoteNumber":73,"Velocity":31,"Duration":461146,"SoundDuration":461146,"Delta":662040238},{"NoteNumber":45,"Velocity":18,"Duration":461146,"SoundDuration":461146,"Delta":662040238},{"NoteNumber":52,"Velocity":18,"Duration":461146,"SoundDuration":461146,"Delta":662040238},{"NoteNumber":71,"Velocity":42,"Duration":455390,"SoundDuration":455390,"Delta":662511196},{"NoteNumber":61,"Velocity":42,"Duration":455390,"SoundDuration":455390,"Delta":662511196},{"NoteNumber":52,"Velocity":27,"Duration":455390,"SoundDuration":455390,"Delta":662511196},{"NoteNumber":45,"Velocity":27,"Duration":455390,"SoundDuration":455390,"Delta":662511196},{"NoteNumber":73,"Velocity":38,"Duration":495070,"SoundDuration":495070,"Delta":662976276},{"NoteNumber":61,"Velocity":38,"Duration":495070,"SoundDuration":495070,"Delta":662976276},{"NoteNumber":45,"Velocity":22,"Duration":495070,"SoundDuration":495070,"Delta":662976276},{"NoteNumber":52,"Velocity":22,"Duration":495070,"SoundDuration":495070,"Delta":662976276},{"NoteNumber":66,"Velocity":37,"Duration":870157,"SoundDuration":870157,"Delta":663481880},{"NoteNumber":74,"Velocity":44,"Duration":870157,"SoundDuration":870157,"Delta":663481880},{"NoteNumber":78,"Velocity":44,"Duration":870157,"SoundDuration":870157,"Delta":663481880},{"NoteNumber":50,"Velocity":28,"Duration":870157,"SoundDuration":870157,"Delta":663481880},{"NoteNumber":45,"Velocity":28,"Duration":870157,"SoundDuration":870157,"Delta":663481880},{"NoteNumber":71,"Velocity":23,"Duration":351095,"SoundDuration":351095,"Delta":664389870},{"NoteNumber":66,"Velocity":19,"Duration":351095,"SoundDuration":351095,"Delta":664389870},{"NoteNumber":74,"Velocity":23,"Duration":351095,"SoundDuration":351095,"Delta":664389870},{"NoteNumber":45,"Velocity":12,"Duration":351095,"SoundDuration":351095,"Delta":664389870},{"NoteNumber":54,"Velocity":16,"Duration":351095,"SoundDuration":351095,"Delta":664389870},{"NoteNumber":73,"Velocity":41,"Duration":870157,"SoundDuration":870157,"Delta":665326126},{"NoteNumber":64,"Velocity":35,"Duration":870157,"SoundDuration":870157,"Delta":665326126},{"NoteNumber":76,"Velocity":41,"Duration":870157,"SoundDuration":870157,"Delta":665326126},{"NoteNumber":45,"Velocity":25,"Duration":870157,"SoundDuration":870157,"Delta":665326126},{"NoteNumber":52,"Velocity":25,"Duration":870157,"SoundDuration":870157,"Delta":665326126},{"NoteNumber":71,"Velocity":25,"Duration":346324,"SoundDuration":346324,"Delta":666234116},{"NoteNumber":64,"Velocity":24,"Duration":346324,"SoundDuration":346324,"Delta":666234116},{"NoteNumber":74,"Velocity":25,"Duration":346324,"SoundDuration":346324,"Delta":666234116},{"NoteNumber":45,"Velocity":14,"Duration":346324,"SoundDuration":346324,"Delta":666234116},{"NoteNumber":56,"Velocity":18,"Duration":346324,"SoundDuration":346324,"Delta":666234116},{"NoteNumber":71,"Velocity":35,"Duration":850906,"SoundDuration":850906,"Delta":667156654},{"NoteNumber":74,"Velocity":41,"Duration":850906,"SoundDuration":850906,"Delta":667156654},{"NoteNumber":64,"Velocity":35,"Duration":850906,"SoundDuration":850906,"Delta":667156654},{"NoteNumber":45,"Velocity":25,"Duration":850906,"SoundDuration":850906,"Delta":667156654},{"NoteNumber":57,"Velocity":25,"Duration":850906,"SoundDuration":850906,"Delta":667156654},{"NoteNumber":64,"Velocity":23,"Duration":330517,"SoundDuration":330517,"Delta":668044556},{"NoteNumber":69,"Velocity":23,"Duration":330517,"SoundDuration":330517,"Delta":668044556},{"NoteNumber":72,"Velocity":25,"Duration":330517,"SoundDuration":330517,"Delta":668044556},{"NoteNumber":45,"Velocity":4,"Duration":330517,"SoundDuration":330517,"Delta":668044556},{"NoteNumber":57,"Velocity":12,"Duration":330517,"SoundDuration":330517,"Delta":668044556},{"NoteNumber":72,"Velocity":42,"Duration":850906,"SoundDuration":850906,"Delta":668925936},{"NoteNumber":62,"Velocity":36,"Duration":850906,"SoundDuration":850906,"Delta":668925936},{"NoteNumber":65,"Velocity":36,"Duration":850906,"SoundDuration":850906,"Delta":668925936},{"NoteNumber":53,"Velocity":25,"Duration":850906,"SoundDuration":850906,"Delta":668925936},{"NoteNumber":50,"Velocity":25,"Duration":850906,"SoundDuration":850906,"Delta":668925936},{"NoteNumber":62,"Velocity":24,"Duration":326915,"SoundDuration":326915,"Delta":669813838},{"NoteNumber":65,"Velocity":23,"Duration":326915,"SoundDuration":326915,"Delta":669813838},{"NoteNumber":70,"Velocity":25,"Duration":326915,"SoundDuration":326915,"Delta":669813838},{"NoteNumber":50,"Velocity":12,"Duration":326915,"SoundDuration":326915,"Delta":669813838},{"NoteNumber":53,"Velocity":12,"Duration":326915,"SoundDuration":326915,"Delta":669813838},{"NoteNumber":70,"Velocity":41,"Duration":897245,"SoundDuration":897245,"Delta":670685614},{"NoteNumber":60,"Velocity":35,"Duration":936255,"SoundDuration":936255,"Delta":670685614},{"NoteNumber":64,"Velocity":35,"Duration":897245,"SoundDuration":897245,"Delta":670685614},{"NoteNumber":40,"Velocity":24,"Duration":897245,"SoundDuration":897245,"Delta":670685614},{"NoteNumber":48,"Velocity":24,"Duration":936255,"SoundDuration":936255,"Delta":670685614},{"NoteNumber":64,"Velocity":39,"Duration":970245,"SoundDuration":970245,"Delta":671621870},{"NoteNumber":69,"Velocity":25,"Duration":363842,"SoundDuration":363842,"Delta":671621870},{"NoteNumber":60,"Velocity":20,"Duration":363842,"SoundDuration":363842,"Delta":671621870},{"NoteNumber":40,"Velocity":14,"Duration":363842,"SoundDuration":363842,"Delta":671621870},{"NoteNumber":52,"Velocity":29,"Duration":970245,"SoundDuration":970245,"Delta":671621870},{"NoteNumber":63,"Velocity":37,"Duration":949893,"SoundDuration":949893,"Delta":672592116},{"NoteNumber":51,"Velocity":34,"Duration":949893,"SoundDuration":949893,"Delta":672592116},{"NoteNumber":64,"Velocity":35,"Duration":358080,"SoundDuration":358080,"Delta":673542010},{"NoteNumber":52,"Velocity":33,"Duration":358080,"SoundDuration":358080,"Delta":673542010},{"NoteNumber":69,"Velocity":29,"Duration":933592,"SoundDuration":933592,"Delta":676406656},{"NoteNumber":64,"Velocity":29,"Duration":933592,"SoundDuration":933592,"Delta":676406656},{"NoteNumber":59,"Velocity":41,"Duration":974184,"SoundDuration":974184,"Delta":676406656},{"NoteNumber":40,"Velocity":19,"Duration":933592,"SoundDuration":933592,"Delta":676406656},{"NoteNumber":47,"Velocity":33,"Duration":974184,"SoundDuration":974184,"Delta":676406656},{"NoteNumber":64,"Velocity":39,"Duration":954881,"SoundDuration":954881,"Delta":677380840},{"NoteNumber":59,"Velocity":25,"Duration":437654,"SoundDuration":437654,"Delta":677380840},{"NoteNumber":68,"Velocity":25,"Duration":437654,"SoundDuration":437654,"Delta":677380840},{"NoteNumber":52,"Velocity":35,"Duration":954881,"SoundDuration":954881,"Delta":677380840},{"NoteNumber":40,"Velocity":16,"Duration":437654,"SoundDuration":437654,"Delta":677380840},{"NoteNumber":63,"Velocity":37,"Duration":949893,"SoundDuration":949893,"Delta":678335722},{"NoteNumber":51,"Velocity":35,"Duration":949893,"SoundDuration":949893,"Delta":678335722},{"NoteNumber":64,"Velocity":35,"Duration":365318,"SoundDuration":365318,"Delta":679285616},{"NoteNumber":52,"Velocity":34,"Duration":365318,"SoundDuration":365318,"Delta":679285616},{"NoteNumber":57,"Velocity":28,"Duration":2307690,"SoundDuration":2307690,"Delta":682105952},{"NoteNumber":63,"Velocity":28,"Duration":2307690,"SoundDuration":2307690,"Delta":682105952},{"NoteNumber":66,"Velocity":28,"Duration":2307690,"SoundDuration":2307690,"Delta":682105952},{"NoteNumber":51,"Velocity":22,"Duration":2307690,"SoundDuration":2307690,"Delta":682105952},{"NoteNumber":54,"Velocity":22,"Duration":2307690,"SoundDuration":2307690,"Delta":682105952},{"NoteNumber":45,"Velocity":22,"Duration":2307690,"SoundDuration":2307690,"Delta":682105952},{"NoteNumber":66,"Velocity":28,"Duration":2307689,"SoundDuration":2307689,"Delta":685798256},{"NoteNumber":63,"Velocity":28,"Duration":2307689,"SoundDuration":2307689,"Delta":685798256},{"NoteNumber":57,"Velocity":28,"Duration":2307689,"SoundDuration":2307689,"Delta":685798256},{"NoteNumber":45,"Velocity":20,"Duration":2307689,"SoundDuration":2307689,"Delta":685798256},{"NoteNumber":54,"Velocity":20,"Duration":2307689,"SoundDuration":2307689,"Delta":685798256},{"NoteNumber":51,"Velocity":20,"Duration":2307689,"SoundDuration":2307689,"Delta":685798256},{"NoteNumber":63,"Velocity":34,"Duration":897868,"SoundDuration":897868,"Delta":689490560},{"NoteNumber":75,"Velocity":34,"Duration":897868,"SoundDuration":897868,"Delta":689490560},{"NoteNumber":39,"Velocity":31,"Duration":897868,"SoundDuration":897868,"Delta":689490560},{"NoteNumber":51,"Velocity":31,"Duration":897868,"SoundDuration":897868,"Delta":689490560},{"NoteNumber":60,"Velocity":25,"Duration":175192,"SoundDuration":175192,"Delta":690388428},{"NoteNumber":72,"Velocity":25,"Duration":175192,"SoundDuration":175192,"Delta":690388428},{"NoteNumber":48,"Velocity":24,"Duration":175192,"SoundDuration":175192,"Delta":690388428},{"NoteNumber":36,"Velocity":24,"Duration":175192,"SoundDuration":175192,"Delta":690388428},{"NoteNumber":75,"Velocity":31,"Duration":894187,"SoundDuration":894187,"Delta":691322790},{"NoteNumber":63,"Velocity":31,"Duration":894187,"SoundDuration":894187,"Delta":691322790},{"NoteNumber":39,"Velocity":30,"Duration":894187,"SoundDuration":894187,"Delta":691322790},{"NoteNumber":51,"Velocity":30,"Duration":894187,"SoundDuration":894187,"Delta":691322790},{"NoteNumber":60,"Velocity":25,"Duration":175192,"SoundDuration":175192,"Delta":692216978},{"NoteNumber":72,"Velocity":25,"Duration":175192,"SoundDuration":175192,"Delta":692216978},{"NoteNumber":36,"Velocity":22,"Duration":175192,"SoundDuration":175192,"Delta":692216978},{"NoteNumber":48,"Velocity":22,"Duration":175192,"SoundDuration":175192,"Delta":692216978},{"NoteNumber":75,"Velocity":36,"Duration":440238,"SoundDuration":440238,"Delta":693151340},{"NoteNumber":63,"Velocity":36,"Duration":440238,"SoundDuration":440238,"Delta":693151340},{"NoteNumber":51,"Velocity":30,"Duration":440238,"SoundDuration":440238,"Delta":693151340},{"NoteNumber":39,"Velocity":30,"Duration":440238,"SoundDuration":440238,"Delta":693151340},{"NoteNumber":60,"Velocity":34,"Duration":167012,"SoundDuration":167012,"Delta":693591578},{"NoteNumber":72,"Velocity":34,"Duration":167012,"SoundDuration":167012,"Delta":693591578},{"NoteNumber":48,"Velocity":23,"Duration":167012,"SoundDuration":167012,"Delta":693591578},{"NoteNumber":36,"Velocity":23,"Duration":167012,"SoundDuration":167012,"Delta":693591578},{"NoteNumber":63,"Velocity":46,"Duration":436871,"SoundDuration":436871,"Delta":694036946},{"NoteNumber":75,"Velocity":46,"Duration":436871,"SoundDuration":436871,"Delta":694036946},{"NoteNumber":51,"Velocity":39,"Duration":436871,"SoundDuration":436871,"Delta":694036946},{"NoteNumber":39,"Velocity":39,"Duration":436871,"SoundDuration":436871,"Delta":694036946},{"NoteNumber":60,"Velocity":40,"Duration":165721,"SoundDuration":165721,"Delta":694473818},{"NoteNumber":72,"Velocity":40,"Duration":165721,"SoundDuration":165721,"Delta":694473818},{"NoteNumber":36,"Velocity":30,"Duration":165721,"SoundDuration":165721,"Delta":694473818},{"NoteNumber":48,"Velocity":30,"Duration":165721,"SoundDuration":165721,"Delta":694473818},{"NoteNumber":63,"Velocity":59,"Duration":433556,"SoundDuration":433556,"Delta":694915742},{"NoteNumber":75,"Velocity":59,"Duration":433556,"SoundDuration":433556,"Delta":694915742},{"NoteNumber":51,"Velocity":52,"Duration":433556,"SoundDuration":433556,"Delta":694915742},{"NoteNumber":39,"Velocity":52,"Duration":433556,"SoundDuration":433556,"Delta":694915742},{"NoteNumber":72,"Velocity":57,"Duration":163826,"SoundDuration":163826,"Delta":695349299},{"NoteNumber":60,"Velocity":57,"Duration":163826,"SoundDuration":163826,"Delta":695349299},{"NoteNumber":36,"Velocity":50,"Duration":163826,"SoundDuration":163826,"Delta":695349299},{"NoteNumber":48,"Velocity":50,"Duration":163826,"SoundDuration":163826,"Delta":695349299},{"NoteNumber":63,"Velocity":71,"Duration":431903,"SoundDuration":431903,"Delta":695786171},{"NoteNumber":75,"Velocity":71,"Duration":431903,"SoundDuration":431903,"Delta":695786171},{"NoteNumber":39,"Velocity":66,"Duration":431903,"SoundDuration":431903,"Delta":695786171},{"NoteNumber":51,"Velocity":66,"Duration":431903,"SoundDuration":431903,"Delta":695786171},{"NoteNumber":72,"Velocity":66,"Duration":168325,"SoundDuration":168325,"Delta":696218074},{"NoteNumber":60,"Velocity":66,"Duration":168325,"SoundDuration":168325,"Delta":696218074},{"NoteNumber":48,"Velocity":58,"Duration":168325,"SoundDuration":168325,"Delta":696218074},{"NoteNumber":36,"Velocity":58,"Duration":168325,"SoundDuration":168325,"Delta":696218074},{"NoteNumber":64,"Velocity":92,"Duration":109616,"SoundDuration":109616,"Delta":696666941},{"NoteNumber":40,"Velocity":72,"Duration":109616,"SoundDuration":109616,"Delta":696666941},{"NoteNumber":76,"Velocity":82,"Duration":108977,"SoundDuration":108977,"Delta":696776558},{"NoteNumber":52,"Velocity":41,"Duration":108977,"SoundDuration":108977,"Delta":696776558},{"NoteNumber":64,"Velocity":78,"Duration":112372,"SoundDuration":112372,"Delta":696885536},{"NoteNumber":40,"Velocity":53,"Duration":112372,"SoundDuration":112372,"Delta":696885536},{"NoteNumber":76,"Velocity":74,"Duration":108809,"SoundDuration":108809,"Delta":696997908},{"NoteNumber":52,"Velocity":38,"Duration":108809,"SoundDuration":108809,"Delta":696997908},{"NoteNumber":64,"Velocity":69,"Duration":108888,"SoundDuration":108888,"Delta":697106718},{"NoteNumber":40,"Velocity":47,"Duration":108888,"SoundDuration":108888,"Delta":697106718},{"NoteNumber":76,"Velocity":66,"Duration":110865,"SoundDuration":110865,"Delta":697215607},{"NoteNumber":52,"Velocity":40,"Duration":110865,"SoundDuration":110865,"Delta":697215607},{"NoteNumber":64,"Velocity":62,"Duration":108967,"SoundDuration":108967,"Delta":697326472},{"NoteNumber":40,"Velocity":47,"Duration":108967,"SoundDuration":108967,"Delta":697326472},{"NoteNumber":76,"Velocity":60,"Duration":107762,"SoundDuration":107762,"Delta":697435439},{"NoteNumber":52,"Velocity":37,"Duration":107762,"SoundDuration":107762,"Delta":697435439},{"NoteNumber":64,"Velocity":70,"Duration":109411,"SoundDuration":109411,"Delta":697543202},{"NoteNumber":40,"Velocity":42,"Duration":109411,"SoundDuration":109411,"Delta":697543202},{"NoteNumber":76,"Velocity":67,"Duration":110326,"SoundDuration":110326,"Delta":697652613},{"NoteNumber":52,"Velocity":33,"Duration":110326,"SoundDuration":110326,"Delta":697652613},{"NoteNumber":64,"Velocity":65,"Duration":107099,"SoundDuration":107099,"Delta":697762939},{"NoteNumber":40,"Velocity":42,"Duration":107099,"SoundDuration":107099,"Delta":697762939},{"NoteNumber":76,"Velocity":62,"Duration":109645,"SoundDuration":109645,"Delta":697870039},{"NoteNumber":52,"Velocity":35,"Duration":109645,"SoundDuration":109645,"Delta":697870039},{"NoteNumber":64,"Velocity":70,"Duration":110338,"SoundDuration":110338,"Delta":697979684},{"NoteNumber":40,"Velocity":41,"Duration":110338,"SoundDuration":110338,"Delta":697979684},{"NoteNumber":76,"Velocity":67,"Duration":106025,"SoundDuration":106025,"Delta":698090023},{"NoteNumber":52,"Velocity":32,"Duration":106025,"SoundDuration":106025,"Delta":698090023},{"NoteNumber":64,"Velocity":64,"Duration":107703,"SoundDuration":107703,"Delta":698196049},{"NoteNumber":40,"Velocity":42,"Duration":107703,"SoundDuration":107703,"Delta":698196049},{"NoteNumber":76,"Velocity":61,"Duration":109489,"SoundDuration":109489,"Delta":698303752},{"NoteNumber":52,"Velocity":31,"Duration":109489,"SoundDuration":109489,"Delta":698303752},{"NoteNumber":61,"Velocity":96,"Duration":106244,"SoundDuration":106244,"Delta":698413241},{"NoteNumber":37,"Velocity":75,"Duration":106244,"SoundDuration":106244,"Delta":698413241},{"NoteNumber":73,"Velocity":84,"Duration":106459,"SoundDuration":106459,"Delta":698519486},{"NoteNumber":49,"Velocity":37,"Duration":106459,"SoundDuration":106459,"Delta":698519486},{"NoteNumber":61,"Velocity":79,"Duration":109108,"SoundDuration":109108,"Delta":698625945},{"NoteNumber":37,"Velocity":50,"Duration":109108,"SoundDuration":109108,"Delta":698625945},{"NoteNumber":73,"Velocity":74,"Duration":107988,"SoundDuration":107988,"Delta":698735054},{"NoteNumber":49,"Velocity":35,"Duration":107988,"SoundDuration":107988,"Delta":698735054},{"NoteNumber":61,"Velocity":69,"Duration":107547,"SoundDuration":107547,"Delta":698843042},{"NoteNumber":37,"Velocity":49,"Duration":107547,"SoundDuration":107547,"Delta":698843042},{"NoteNumber":73,"Velocity":65,"Duration":111109,"SoundDuration":111109,"Delta":698950589},{"NoteNumber":49,"Velocity":32,"Duration":111109,"SoundDuration":111109,"Delta":698950589},{"NoteNumber":61,"Velocity":62,"Duration":109742,"SoundDuration":109742,"Delta":699061698},{"NoteNumber":37,"Velocity":42,"Duration":109742,"SoundDuration":109742,"Delta":699061698},{"NoteNumber":73,"Velocity":55,"Duration":107395,"SoundDuration":107395,"Delta":699171440},{"NoteNumber":49,"Velocity":33,"Duration":107395,"SoundDuration":107395,"Delta":699171440},{"NoteNumber":61,"Velocity":73,"Duration":108735,"SoundDuration":108735,"Delta":699278836},{"NoteNumber":37,"Velocity":43,"Duration":108735,"SoundDuration":108735,"Delta":699278836},{"NoteNumber":73,"Velocity":69,"Duration":110554,"SoundDuration":110554,"Delta":699387572},{"NoteNumber":49,"Velocity":32,"Duration":110554,"SoundDuration":110554,"Delta":699387572},{"NoteNumber":61,"Velocity":66,"Duration":108303,"SoundDuration":108303,"Delta":699498126},{"NoteNumber":37,"Velocity":43,"Duration":108303,"SoundDuration":108303,"Delta":699498126},{"NoteNumber":73,"Velocity":56,"Duration":106903,"SoundDuration":106903,"Delta":699606430},{"NoteNumber":49,"Velocity":33,"Duration":106903,"SoundDuration":106903,"Delta":699606430},{"NoteNumber":61,"Velocity":72,"Duration":107439,"SoundDuration":107439,"Delta":699713334},{"NoteNumber":37,"Velocity":43,"Duration":107439,"SoundDuration":107439,"Delta":699713334},{"NoteNumber":73,"Velocity":69,"Duration":108113,"SoundDuration":108113,"Delta":699820774},{"NoteNumber":49,"Velocity":35,"Duration":108113,"SoundDuration":108113,"Delta":699820774},{"NoteNumber":61,"Velocity":66,"Duration":110120,"SoundDuration":110120,"Delta":699928887},{"NoteNumber":37,"Velocity":42,"Duration":110120,"SoundDuration":110120,"Delta":699928887},{"NoteNumber":73,"Velocity":63,"Duration":129054,"SoundDuration":129054,"Delta":700039008},{"NoteNumber":49,"Velocity":37,"Duration":129054,"SoundDuration":129054,"Delta":700039008},{"NoteNumber":76,"Velocity":102,"Duration":430293,"SoundDuration":430293,"Delta":700168062},{"NoteNumber":88,"Velocity":102,"Duration":430293,"SoundDuration":430293,"Delta":700168062},{"NoteNumber":64,"Velocity":83,"Duration":430293,"SoundDuration":430293,"Delta":700168062},{"NoteNumber":52,"Velocity":83,"Duration":430293,"SoundDuration":430293,"Delta":700168062},{"NoteNumber":73,"Velocity":94,"Duration":165721,"SoundDuration":165721,"Delta":700598355},{"NoteNumber":85,"Velocity":94,"Duration":165721,"SoundDuration":165721,"Delta":700598355},{"NoteNumber":49,"Velocity":72,"Duration":165721,"SoundDuration":165721,"Delta":700598355},{"NoteNumber":61,"Velocity":72,"Duration":165721,"SoundDuration":165721,"Delta":700598355},{"NoteNumber":88,"Velocity":101,"Duration":435193,"SoundDuration":435193,"Delta":701040279},{"NoteNumber":76,"Velocity":101,"Duration":435193,"SoundDuration":435193,"Delta":701040279},{"NoteNumber":52,"Velocity":83,"Duration":435193,"SoundDuration":435193,"Delta":701040279},{"NoteNumber":64,"Velocity":83,"Duration":435193,"SoundDuration":435193,"Delta":701040279},{"NoteNumber":93,"Velocity":94,"Duration":167660,"SoundDuration":167660,"Delta":701475472},{"NoteNumber":81,"Velocity":94,"Duration":167660,"SoundDuration":167660,"Delta":701475472},{"NoteNumber":69,"Velocity":72,"Duration":167660,"SoundDuration":167660,"Delta":701475472},{"NoteNumber":57,"Velocity":72,"Duration":167660,"SoundDuration":167660,"Delta":701475472},{"NoteNumber":76,"Velocity":93,"Duration":455996,"SoundDuration":455996,"Delta":701922566},{"NoteNumber":88,"Velocity":93,"Duration":455996,"SoundDuration":455996,"Delta":701922566},{"NoteNumber":52,"Velocity":73,"Duration":455996,"SoundDuration":455996,"Delta":701922566},{"NoteNumber":64,"Velocity":73,"Duration":455996,"SoundDuration":455996,"Delta":701922566},{"NoteNumber":73,"Velocity":86,"Duration":176221,"SoundDuration":176221,"Delta":702378562},{"NoteNumber":85,"Velocity":86,"Duration":176221,"SoundDuration":176221,"Delta":702378562},{"NoteNumber":49,"Velocity":66,"Duration":176221,"SoundDuration":176221,"Delta":702378562},{"NoteNumber":61,"Velocity":66,"Duration":176221,"SoundDuration":176221,"Delta":702378562},{"NoteNumber":81,"Velocity":78,"Duration":491079,"SoundDuration":491079,"Delta":702848487},{"NoteNumber":69,"Velocity":78,"Duration":491079,"SoundDuration":491079,"Delta":702848487},{"NoteNumber":57,"Velocity":57,"Duration":491079,"SoundDuration":491079,"Delta":702848487},{"NoteNumber":45,"Velocity":57,"Duration":491079,"SoundDuration":491079,"Delta":702848487},{"NoteNumber":76,"Velocity":68,"Duration":207354,"SoundDuration":207354,"Delta":703339566},{"NoteNumber":64,"Velocity":68,"Duration":207354,"SoundDuration":207354,"Delta":703339566},{"NoteNumber":52,"Velocity":44,"Duration":207354,"SoundDuration":207354,"Delta":703339566},{"NoteNumber":40,"Velocity":44,"Duration":207354,"SoundDuration":207354,"Delta":703339566},{"NoteNumber":61,"Velocity":34,"Duration":1924928,"SoundDuration":1924928,"Delta":703892510},{"NoteNumber":69,"Velocity":34,"Duration":1924928,"SoundDuration":1924928,"Delta":703892510},{"NoteNumber":73,"Velocity":34,"Duration":1924928,"SoundDuration":1924928,"Delta":703892510},{"NoteNumber":52,"Velocity":27,"Duration":3849856,"SoundDuration":3849856,"Delta":703892510},{"NoteNumber":40,"Velocity":27,"Duration":3849856,"SoundDuration":3849856,"Delta":703892510},{"NoteNumber":62,"Velocity":38,"Duration":1924928,"SoundDuration":1924928,"Delta":705817438},{"NoteNumber":76,"Velocity":38,"Duration":1924928,"SoundDuration":1924928,"Delta":705817438},{"NoteNumber":68,"Velocity":38,"Duration":1924928,"SoundDuration":1924928,"Delta":705817438},{"NoteNumber":64,"Velocity":97,"Duration":105196,"SoundDuration":105196,"Delta":707742366},{"NoteNumber":40,"Velocity":71,"Duration":105196,"SoundDuration":105196,"Delta":707742366},{"NoteNumber":76,"Velocity":90,"Duration":105196,"SoundDuration":105196,"Delta":707847563},{"NoteNumber":52,"Velocity":38,"Duration":105196,"SoundDuration":105196,"Delta":707847563},{"NoteNumber":64,"Velocity":86,"Duration":105196,"SoundDuration":105196,"Delta":707952760},{"NoteNumber":40,"Velocity":47,"Duration":105196,"SoundDuration":105196,"Delta":707952760},{"NoteNumber":76,"Velocity":83,"Duration":105196,"SoundDuration":105196,"Delta":708057956},{"NoteNumber":52,"Velocity":35,"Duration":105196,"SoundDuration":105196,"Delta":708057956},{"NoteNumber":61,"Velocity":88,"Duration":105196,"SoundDuration":105196,"Delta":708163153},{"NoteNumber":37,"Velocity":66,"Duration":105196,"SoundDuration":105196,"Delta":708163153},{"NoteNumber":73,"Velocity":85,"Duration":105196,"SoundDuration":105196,"Delta":708268350},{"NoteNumber":49,"Velocity":37,"Duration":105196,"SoundDuration":105196,"Delta":708268350},{"NoteNumber":61,"Velocity":82,"Duration":105196,"SoundDuration":105196,"Delta":708373547},{"NoteNumber":37,"Velocity":42,"Duration":105196,"SoundDuration":105196,"Delta":708373547},{"NoteNumber":73,"Velocity":78,"Duration":105196,"SoundDuration":105196,"Delta":708478743},{"NoteNumber":49,"Velocity":35,"Duration":105196,"SoundDuration":105196,"Delta":708478743},{"NoteNumber":64,"Velocity":87,"Duration":103298,"SoundDuration":103298,"Delta":708583940},{"NoteNumber":40,"Velocity":63,"Duration":103298,"SoundDuration":103298,"Delta":708583940},{"NoteNumber":76,"Velocity":85,"Duration":103298,"SoundDuration":103298,"Delta":708687239},{"NoteNumber":52,"Velocity":41,"Duration":103298,"SoundDuration":103298,"Delta":708687239},{"NoteNumber":64,"Velocity":83,"Duration":103298,"SoundDuration":103298,"Delta":708790538},{"NoteNumber":40,"Velocity":51,"Duration":103298,"SoundDuration":103298,"Delta":708790538},{"NoteNumber":76,"Velocity":80,"Duration":103298,"SoundDuration":103298,"Delta":708893836},{"NoteNumber":52,"Velocity":38,"Duration":103298,"SoundDuration":103298,"Delta":708893836},{"NoteNumber":69,"Velocity":89,"Duration":103298,"SoundDuration":103298,"Delta":708997135},{"NoteNumber":45,"Velocity":67,"Duration":103298,"SoundDuration":103298,"Delta":708997135},{"NoteNumber":81,"Velocity":86,"Duration":103298,"SoundDuration":103298,"Delta":709100434},{"NoteNumber":57,"Velocity":40,"Duration":103298,"SoundDuration":103298,"Delta":709100434},{"NoteNumber":69,"Velocity":84,"Duration":103298,"SoundDuration":103298,"Delta":709203733},{"NoteNumber":45,"Velocity":52,"Duration":103298,"SoundDuration":103298,"Delta":709203733},{"NoteNumber":81,"Velocity":81,"Duration":102807,"SoundDuration":102807,"Delta":709307031},{"NoteNumber":57,"Velocity":40,"Duration":102807,"SoundDuration":102807,"Delta":709307031},{"NoteNumber":73,"Velocity":94,"Duration":102930,"SoundDuration":102930,"Delta":709409839},{"NoteNumber":49,"Velocity":72,"Duration":102930,"SoundDuration":102930,"Delta":709409839},{"NoteNumber":85,"Velocity":92,"Duration":102685,"SoundDuration":102685,"Delta":709512769},{"NoteNumber":61,"Velocity":47,"Duration":102685,"SoundDuration":102685,"Delta":709512769},{"NoteNumber":73,"Velocity":90,"Duration":102440,"SoundDuration":102440,"Delta":709615455},{"NoteNumber":49,"Velocity":61,"Duration":102440,"SoundDuration":102440,"Delta":709615455},{"NoteNumber":85,"Velocity":88,"Duration":102193,"SoundDuration":102193,"Delta":709717895},{"NoteNumber":61,"Velocity":48,"Duration":102193,"SoundDuration":102193,"Delta":709717895},{"NoteNumber":76,"Velocity":102,"Duration":101833,"SoundDuration":101833,"Delta":709820089},{"NoteNumber":52,"Velocity":79,"Duration":101833,"SoundDuration":101833,"Delta":709820089},{"NoteNumber":88,"Velocity":98,"Duration":101589,"SoundDuration":101589,"Delta":709921922},{"NoteNumber":64,"Velocity":52,"Duration":101589,"SoundDuration":101589,"Delta":709921922},{"NoteNumber":76,"Velocity":94,"Duration":101349,"SoundDuration":101349,"Delta":710023512},{"NoteNumber":52,"Velocity":63,"Duration":101349,"SoundDuration":101349,"Delta":710023512},{"NoteNumber":88,"Velocity":90,"Duration":101112,"SoundDuration":101112,"Delta":710124861},{"NoteNumber":64,"Velocity":56,"Duration":101112,"SoundDuration":101112,"Delta":710124861},{"NoteNumber":81,"Velocity":109,"Duration":101979,"SoundDuration":101979,"Delta":710225974},{"NoteNumber":57,"Velocity":84,"Duration":101979,"SoundDuration":101979,"Delta":710225974},{"NoteNumber":93,"Velocity":100,"Duration":104561,"SoundDuration":104561,"Delta":710327953},{"NoteNumber":69,"Velocity":57,"Duration":104561,"SoundDuration":104561,"Delta":710327953},{"NoteNumber":81,"Velocity":94,"Duration":104941,"SoundDuration":104941,"Delta":710432515},{"NoteNumber":57,"Velocity":66,"Duration":104941,"SoundDuration":104941,"Delta":710432515},{"NoteNumber":93,"Velocity":88,"Duration":107733,"SoundDuration":107733,"Delta":710537457},{"NoteNumber":69,"Velocity":53,"Duration":107733,"SoundDuration":107733,"Delta":710537457},{"NoteNumber":76,"Velocity":83,"Duration":113538,"SoundDuration":113538,"Delta":710645190},{"NoteNumber":52,"Velocity":73,"Duration":113538,"SoundDuration":113538,"Delta":710645190},{"NoteNumber":88,"Velocity":77,"Duration":117044,"SoundDuration":117044,"Delta":710758729},{"NoteNumber":64,"Velocity":46,"Duration":117044,"SoundDuration":117044,"Delta":710758729},{"NoteNumber":76,"Velocity":70,"Duration":119872,"SoundDuration":119872,"Delta":710875773},{"NoteNumber":52,"Velocity":57,"Duration":119872,"SoundDuration":119872,"Delta":710875773},{"NoteNumber":88,"Velocity":60,"Duration":172552,"SoundDuration":172552,"Delta":710995646},{"NoteNumber":64,"Velocity":45,"Duration":172552,"SoundDuration":172552,"Delta":710995646},{"NoteNumber":69,"Velocity":35,"Duration":1924928,"SoundDuration":1924928,"Delta":711168199},{"NoteNumber":61,"Velocity":35,"Duration":1924928,"SoundDuration":1924928,"Delta":711168199},{"NoteNumber":73,"Velocity":35,"Duration":1924928,"SoundDuration":1924928,"Delta":711168199},{"NoteNumber":52,"Velocity":28,"Duration":3849856,"SoundDuration":3849856,"Delta":711168199},{"NoteNumber":40,"Velocity":28,"Duration":3849856,"SoundDuration":3849856,"Delta":711168199},{"NoteNumber":68,"Velocity":36,"Duration":1924928,"SoundDuration":1924928,"Delta":713093127},{"NoteNumber":76,"Velocity":43,"Duration":1924928,"SoundDuration":1924928,"Delta":713093127},{"NoteNumber":62,"Velocity":36,"Duration":1924928,"SoundDuration":1924928,"Delta":713093127},{"NoteNumber":49,"Velocity":34,"Duration":899070,"SoundDuration":899070,"Delta":715018055},{"NoteNumber":61,"Velocity":34,"Duration":899070,"SoundDuration":899070,"Delta":715018055},{"NoteNumber":40,"Velocity":26,"Duration":899070,"SoundDuration":899070,"Delta":715018055},{"NoteNumber":45,"Velocity":26,"Duration":899070,"SoundDuration":899070,"Delta":715018055},{"NoteNumber":33,"Velocity":26,"Duration":899070,"SoundDuration":899070,"Delta":715018055},{"NoteNumber":57,"Velocity":21,"Duration":365289,"SoundDuration":365289,"Delta":715956211},{"NoteNumber":49,"Velocity":21,"Duration":365289,"SoundDuration":365289,"Delta":715956211},{"NoteNumber":33,"Velocity":13,"Duration":365289,"SoundDuration":365289,"Delta":715956211},{"NoteNumber":40,"Velocity":13,"Duration":365289,"SoundDuration":365289,"Delta":715956211},{"NoteNumber":45,"Velocity":13,"Duration":365289,"SoundDuration":365289,"Delta":715956211},{"NoteNumber":74,"Velocity":42,"Duration":873992,"SoundDuration":873992,"Delta":716930317},{"NoteNumber":80,"Velocity":42,"Duration":873992,"SoundDuration":873992,"Delta":716930317},{"NoteNumber":88,"Velocity":42,"Duration":873992,"SoundDuration":873992,"Delta":716930317},{"NoteNumber":57,"Velocity":26,"Duration":873992,"SoundDuration":873992,"Delta":716930317},{"NoteNumber":71,"Velocity":26,"Duration":873992,"SoundDuration":873992,"Delta":716930317},{"NoteNumber":64,"Velocity":26,"Duration":873992,"SoundDuration":873992,"Delta":716930317},{"NoteNumber":80,"Velocity":28,"Duration":360692,"SoundDuration":360692,"Delta":717842309},{"NoteNumber":74,"Velocity":28,"Duration":360692,"SoundDuration":360692,"Delta":717842309},{"NoteNumber":57,"Velocity":11,"Duration":360692,"SoundDuration":360692,"Delta":717842309},{"NoteNumber":71,"Velocity":11,"Duration":360692,"SoundDuration":360692,"Delta":717842309},{"NoteNumber":64,"Velocity":11,"Duration":360692,"SoundDuration":360692,"Delta":717842309},{"NoteNumber":49,"Velocity":34,"Duration":902811,"SoundDuration":902811,"Delta":718804155},{"NoteNumber":61,"Velocity":34,"Duration":902811,"SoundDuration":902811,"Delta":718804155},{"NoteNumber":40,"Velocity":26,"Duration":902811,"SoundDuration":902811,"Delta":718804155},{"NoteNumber":33,"Velocity":26,"Duration":902811,"SoundDuration":902811,"Delta":718804155},{"NoteNumber":45,"Velocity":26,"Duration":902811,"SoundDuration":902811,"Delta":718804155},{"NoteNumber":49,"Velocity":23,"Duration":362202,"SoundDuration":362202,"Delta":719746211},{"NoteNumber":57,"Velocity":23,"Duration":362202,"SoundDuration":362202,"Delta":719746211},{"NoteNumber":33,"Velocity":12,"Duration":362202,"SoundDuration":362202,"Delta":719746211},{"NoteNumber":45,"Velocity":12,"Duration":362202,"SoundDuration":362202,"Delta":719746211},{"NoteNumber":40,"Velocity":12,"Duration":362202,"SoundDuration":362202,"Delta":719746211},{"NoteNumber":74,"Velocity":42,"Duration":884614,"SoundDuration":884614,"Delta":720712083},{"NoteNumber":88,"Velocity":42,"Duration":884614,"SoundDuration":884614,"Delta":720712083},{"NoteNumber":80,"Velocity":42,"Duration":884614,"SoundDuration":884614,"Delta":720712083},{"NoteNumber":57,"Velocity":26,"Duration":884614,"SoundDuration":884614,"Delta":720712083},{"NoteNumber":71,"Velocity":26,"Duration":884614,"SoundDuration":884614,"Delta":720712083},{"NoteNumber":64,"Velocity":26,"Duration":884614,"SoundDuration":884614,"Delta":720712083},{"NoteNumber":74,"Velocity":28,"Duration":356210,"SoundDuration":356210,"Delta":721635159},{"NoteNumber":80,"Velocity":28,"Duration":356210,"SoundDuration":356210,"Delta":721635159},{"NoteNumber":64,"Velocity":11,"Duration":356210,"SoundDuration":356210,"Delta":721635159},{"NoteNumber":71,"Velocity":11,"Duration":356210,"SoundDuration":356210,"Delta":721635159},{"NoteNumber":57,"Velocity":11,"Duration":356210,"SoundDuration":356210,"Delta":721635159},{"NoteNumber":49,"Velocity":34,"Duration":895430,"SoundDuration":895430,"Delta":722585053},{"NoteNumber":61,"Velocity":34,"Duration":895430,"SoundDuration":895430,"Delta":722585053},{"NoteNumber":33,"Velocity":26,"Duration":895430,"SoundDuration":895430,"Delta":722585053},{"NoteNumber":40,"Velocity":26,"Duration":895430,"SoundDuration":895430,"Delta":722585053},{"NoteNumber":45,"Velocity":26,"Duration":895430,"SoundDuration":895430,"Delta":722585053},{"NoteNumber":49,"Velocity":20,"Duration":360692,"SoundDuration":360692,"Delta":723519415},{"NoteNumber":57,"Velocity":20,"Duration":360692,"SoundDuration":360692,"Delta":723519415},{"NoteNumber":40,"Velocity":12,"Duration":360692,"SoundDuration":360692,"Delta":723519415},{"NoteNumber":45,"Velocity":12,"Duration":360692,"SoundDuration":360692,"Delta":723519415},{"NoteNumber":33,"Velocity":12,"Duration":360692,"SoundDuration":360692,"Delta":723519415},{"NoteNumber":74,"Velocity":42,"Duration":863688,"SoundDuration":863688,"Delta":724481261},{"NoteNumber":80,"Velocity":42,"Duration":863688,"SoundDuration":863688,"Delta":724481261},{"NoteNumber":88,"Velocity":42,"Duration":863688,"SoundDuration":863688,"Delta":724481261},{"NoteNumber":57,"Velocity":26,"Duration":863688,"SoundDuration":863688,"Delta":724481261},{"NoteNumber":71,"Velocity":26,"Duration":863688,"SoundDuration":863688,"Delta":724481261},{"NoteNumber":64,"Velocity":26,"Duration":863688,"SoundDuration":863688,"Delta":724481261},{"NoteNumber":80,"Velocity":26,"Duration":350385,"SoundDuration":350385,"Delta":725382501},{"NoteNumber":74,"Velocity":26,"Duration":350385,"SoundDuration":350385,"Delta":725382501},{"NoteNumber":64,"Velocity":11,"Duration":350385,"SoundDuration":350385,"Delta":725382501},{"NoteNumber":71,"Velocity":11,"Duration":350385,"SoundDuration":350385,"Delta":725382501},{"NoteNumber":57,"Velocity":11,"Duration":350385,"SoundDuration":350385,"Delta":725382501},{"NoteNumber":74,"Velocity":42,"Duration":863688,"SoundDuration":863688,"Delta":726316863},{"NoteNumber":80,"Velocity":42,"Duration":863688,"SoundDuration":863688,"Delta":726316863},{"NoteNumber":88,"Velocity":42,"Duration":863688,"SoundDuration":863688,"Delta":726316863},{"NoteNumber":57,"Velocity":26,"Duration":863688,"SoundDuration":863688,"Delta":726316863},{"NoteNumber":71,"Velocity":26,"Duration":863688,"SoundDuration":863688,"Delta":726316863},{"NoteNumber":64,"Velocity":26,"Duration":863688,"SoundDuration":863688,"Delta":726316863},{"NoteNumber":80,"Velocity":28,"Duration":350385,"SoundDuration":350385,"Delta":727218103},{"NoteNumber":74,"Velocity":28,"Duration":350385,"SoundDuration":350385,"Delta":727218103},{"NoteNumber":64,"Velocity":11,"Duration":350385,"SoundDuration":350385,"Delta":727218103},{"NoteNumber":57,"Velocity":11,"Duration":350385,"SoundDuration":350385,"Delta":727218103},{"NoteNumber":71,"Velocity":11,"Duration":350385,"SoundDuration":350385,"Delta":727218103},{"NoteNumber":88,"Velocity":42,"Duration":863688,"SoundDuration":863688,"Delta":728152465},{"NoteNumber":80,"Velocity":42,"Duration":863688,"SoundDuration":863688,"Delta":728152465},{"NoteNumber":74,"Velocity":42,"Duration":863688,"SoundDuration":863688,"Delta":728152465},{"NoteNumber":57,"Velocity":26,"Duration":863688,"SoundDuration":863688,"Delta":728152465},{"NoteNumber":64,"Velocity":26,"Duration":863688,"SoundDuration":863688,"Delta":728152465},{"NoteNumber":71,"Velocity":26,"Duration":863688,"SoundDuration":863688,"Delta":728152465},{"NoteNumber":74,"Velocity":28,"Duration":350385,"SoundDuration":350385,"Delta":729053705},{"NoteNumber":80,"Velocity":28,"Duration":350385,"SoundDuration":350385,"Delta":729053705},{"NoteNumber":57,"Velocity":11,"Duration":350385,"SoundDuration":350385,"Delta":729053705},{"NoteNumber":64,"Velocity":11,"Duration":350385,"SoundDuration":350385,"Delta":729053705},{"NoteNumber":71,"Velocity":11,"Duration":350385,"SoundDuration":350385,"Delta":729053705},{"NoteNumber":73,"Velocity":98,"Duration":3847384,"SoundDuration":3847384,"Delta":729988067},{"NoteNumber":85,"Velocity":98,"Duration":3847384,"SoundDuration":3847384,"Delta":729988067},{"NoteNumber":61,"Velocity":78,"Duration":3847384,"SoundDuration":3847384,"Delta":729988067},{"NoteNumber":49,"Velocity":78,"Duration":3847384,"SoundDuration":3847384,"Delta":729988067},{"NoteNumber":69,"Velocity":24,"Duration":3847383,"SoundDuration":3847383,"Delta":733835451},{"NoteNumber":81,"Velocity":38,"Duration":3847383,"SoundDuration":3847383,"Delta":733835451},{"NoteNumber":45,"Velocity":22,"Duration":3847383,"SoundDuration":3847383,"Delta":733835451},{"NoteNumber":57,"Velocity":35,"Duration":3847383,"SoundDuration":3847383,"Delta":733835451},{"NoteNumber":49,"Velocity":24,"Duration":1049652,"SoundDuration":1049652,"Delta":737682835},{"NoteNumber":61,"Velocity":30,"Duration":1049652,"SoundDuration":1049652,"Delta":737682835},{"NoteNumber":57,"Velocity":24,"Duration":1049652,"SoundDuration":1049652,"Delta":737682835},{"NoteNumber":52,"Velocity":24,"Duration":1049652,"SoundDuration":1049652,"Delta":737682835},{"NoteNumber":45,"Velocity":17,"Duration":1049652,"SoundDuration":1049652,"Delta":737682835},{"NoteNumber":40,"Velocity":13,"Duration":1049652,"SoundDuration":1049652,"Delta":737682835},{"NoteNumber":33,"Velocity":13,"Duration":1049652,"SoundDuration":1049652,"Delta":737682835},{"NoteNumber":49,"Velocity":24,"Duration":1130777,"SoundDuration":1130777,"Delta":738778125},{"NoteNumber":52,"Velocity":24,"Duration":1130777,"SoundDuration":1130777,"Delta":738778125},{"NoteNumber":57,"Velocity":24,"Duration":1130777,"SoundDuration":1130777,"Delta":738778125},{"NoteNumber":61,"Velocity":30,"Duration":1130777,"SoundDuration":1130777,"Delta":738778125},{"NoteNumber":40,"Velocity":13,"Duration":1130777,"SoundDuration":1130777,"Delta":738778125},{"NoteNumber":45,"Velocity":17,"Duration":1130777,"SoundDuration":1130777,"Delta":738778125},{"NoteNumber":33,"Velocity":13,"Duration":1130777,"SoundDuration":1130777,"Delta":738778125},{"NoteNumber":52,"Velocity":24,"Duration":4578403,"SoundDuration":4578403,"Delta":739958067},{"NoteNumber":61,"Velocity":30,"Duration":4578403,"SoundDuration":4578403,"Delta":739958067},{"NoteNumber":57,"Velocity":24,"Duration":4578403,"SoundDuration":4578403,"Delta":739958067},{"NoteNumber":49,"Velocity":24,"Duration":4578403,"SoundDuration":4578403,"Delta":739958067},{"NoteNumber":45,"Velocity":17,"Duration":4578403,"SoundDuration":4578403,"Delta":739958067},{"NoteNumber":33,"Velocity":13,"Duration":4578403,"SoundDuration":4578403,"Delta":739958067},{"NoteNumber":40,"Velocity":13,"Duration":4578403,"SoundDuration":4578403,"Delta":739958067}]}