{"title":"Moments musicaux, Op. 94 D 780: No. 3 in F minor","artist":"Schubert","durationMs":103199,"midiSha256":"e8c4fa2dfa1700260a269f2c69aae0f8900b2920ff290a4477fa70b78010cbf6","midiObject":[{"NoteNumber":53,"Velocity":34,"Duration":112883,"SoundDuration":112883,"Delta":0},{"NoteNumber":65,"Velocity":27,"Duration":115372,"SoundDuration":115372,"Delta":301023},{"NoteNumber":60,"Velocity":22,"Duration":115372,"SoundDuration":115372,"Delta":301023},{"NoteNumber":53,"Velocity":34,"Duration":112883,"SoundDuration":112883,"Delta":608684},{"NoteNumber":65,"Velocity":27,"Duration":114108,"SoundDuration":114108,"Delta":909708},{"NoteNumber":60,"Velocity":22,"Duration":114108,"SoundDuration":114108,"Delta":909708},{"NoteNumber":53,"Velocity":34,"Duration":111673,"SoundDuration":111673,"Delta":1213998},{"NoteNumber":65,"Velocity":27,"Duration":113498,"SoundDuration":113498,"Delta":1511795},{"NoteNumber":60,"Velocity":22,"Duration":113498,"SoundDuration":113498,"Delta":1511795},{"NoteNumber":53,"Velocity":34,"Duration":109906,"SoundDuration":109906,"Delta":1814458},{"NoteNumber":65,"Velocity":25,"Duration":111673,"SoundDuration":111673,"Delta":2107541},{"NoteNumber":60,"Velocity":20,"Duration":111673,"SoundDuration":111673,"Delta":2107541},{"NoteNumber":70,"Velocity":48,"Duration":74449,"SoundDuration":74449,"Delta":2330888},{"NoteNumber":68,"Velocity":56,"Duration":148898,"SoundDuration":148898,"Delta":2405338},{"NoteNumber":53,"Velocity":34,"Duration":111673,"SoundDuration":111673,"Delta":2405338},{"NoteNumber":68,"Velocity":50,"Duration":142789,"SoundDuration":142789,"Delta":2703134},{"NoteNumber":65,"Velocity":27,"Duration":107091,"SoundDuration":107091,"Delta":2703134},{"NoteNumber":60,"Velocity":23,"Duration":107091,"SoundDuration":107091,"Delta":2703134},{"NoteNumber":70,"Velocity":50,"Duration":142789,"SoundDuration":142789,"Delta":2845923},{"NoteNumber":68,"Velocity":55,"Duration":147318,"SoundDuration":147318,"Delta":2988713},{"NoteNumber":53,"Velocity":34,"Duration":110489,"SoundDuration":110489,"Delta":2988713},{"NoteNumber":67,"Velocity":52,"Duration":148104,"SoundDuration":148104,"Delta":3283350},{"NoteNumber":64,"Velocity":27,"Duration":111078,"SoundDuration":111078,"Delta":3283350},{"NoteNumber":60,"Velocity":22,"Duration":111078,"SoundDuration":111078,"Delta":3283350},{"NoteNumber":68,"Velocity":48,"Duration":74052,"SoundDuration":74052,"Delta":3431454},{"NoteNumber":70,"Velocity":48,"Duration":74052,"SoundDuration":74052,"Delta":3505506},{"NoteNumber":68,"Velocity":51,"Duration":477352,"SoundDuration":477352,"Delta":3579559},{"NoteNumber":72,"Velocity":57,"Duration":477352,"SoundDuration":477352,"Delta":3579559},{"NoteNumber":53,"Velocity":37,"Duration":119338,"SoundDuration":119338,"Delta":3579559},{"NoteNumber":65,"Velocity":27,"Duration":119338,"SoundDuration":119338,"Delta":3897794},{"NoteNumber":60,"Velocity":23,"Duration":119338,"SoundDuration":119338,"Delta":3897794},{"NoteNumber":68,"Velocity":48,"Duration":79558,"SoundDuration":79558,"Delta":4056911},{"NoteNumber":70,"Velocity":48,"Duration":79558,"SoundDuration":79558,"Delta":4136470},{"NoteNumber":68,"Velocity":50,"Duration":541404,"SoundDuration":541404,"Delta":4216029},{"NoteNumber":72,"Velocity":56,"Duration":541404,"SoundDuration":541404,"Delta":4216029},{"NoteNumber":53,"Velocity":37,"Duration":116015,"SoundDuration":116015,"Delta":4216029},{"NoteNumber":65,"Velocity":28,"Duration":116015,"SoundDuration":116015,"Delta":4525403},{"NoteNumber":60,"Velocity":24,"Duration":116015,"SoundDuration":116015,"Delta":4525403},{"NoteNumber":70,"Velocity":48,"Duration":77343,"SoundDuration":77343,"Delta":4757433},{"NoteNumber":68,"Velocity":56,"Duration":147318,"SoundDuration":147318,"Delta":4834777},{"NoteNumber":53,"Velocity":34,"Duration":110489,"SoundDuration":110489,"Delta":4834777},{"NoteNumber":68,"Velocity":51,"Duration":142789,"SoundDuration":142789,"Delta":5129414},{"NoteNumber":65,"Velocity":28,"Duration":107091,"SoundDuration":107091,"Delta":5129414},{"NoteNumber":60,"Velocity":24,"Duration":107091,"SoundDuration":107091,"Delta":5129414},{"NoteNumber":70,"Velocity":51,"Duration":142789,"SoundDuration":142789,"Delta":5272203},{"NoteNumber":68,"Velocity":55,"Duration":147318,"SoundDuration":147318,"Delta":5414993},{"NoteNumber":53,"Velocity":34,"Duration":110489,"SoundDuration":110489,"Delta":5414993},{"NoteNumber":67,"Velocity":45,"Duration":152145,"SoundDuration":152145,"Delta":5709630},{"NoteNumber":72,"Velocity":51,"Duration":152145,"SoundDuration":152145,"Delta":5709630},{"NoteNumber":64,"Velocity":28,"Duration":114108,"SoundDuration":114108,"Delta":5709630},{"NoteNumber":60,"Velocity":24,"Duration":114108,"SoundDuration":114108,"Delta":5709630},{"NoteNumber":72,"Velocity":48,"Duration":76072,"SoundDuration":76072,"Delta":5937848},{"NoteNumber":77,"Velocity":60,"Duration":563365,"SoundDuration":563365,"Delta":6013921},{"NoteNumber":68,"Velocity":54,"Duration":563365,"SoundDuration":563365,"Delta":6013921},{"NoteNumber":53,"Velocity":38,"Duration":120721,"SoundDuration":120721,"Delta":6013921},{"NoteNumber":65,"Velocity":29,"Duration":120721,"SoundDuration":120721,"Delta":6335844},{"NoteNumber":60,"Velocity":25,"Duration":120721,"SoundDuration":120721,"Delta":6335844},{"NoteNumber":72,"Velocity":48,"Duration":80480,"SoundDuration":80480,"Delta":6577286},{"NoteNumber":68,"Velocity":52,"Duration":643845,"SoundDuration":643845,"Delta":6657767},{"NoteNumber":77,"Velocity":58,"Duration":643845,"SoundDuration":643845,"Delta":6657767},{"NoteNumber":53,"Velocity":38,"Duration":120721,"SoundDuration":120721,"Delta":6657767},{"NoteNumber":65,"Velocity":29,"Duration":120721,"SoundDuration":120721,"Delta":6979690},{"NoteNumber":60,"Velocity":25,"Duration":120721,"SoundDuration":120721,"Delta":6979690},{"NoteNumber":78,"Velocity":43,"Duration":80480,"SoundDuration":80480,"Delta":7221132},{"NoteNumber":68,"Velocity":52,"Duration":321922,"SoundDuration":321922,"Delta":7301613},{"NoteNumber":77,"Velocity":52,"Duration":321922,"SoundDuration":321922,"Delta":7301613},{"NoteNumber":49,"Velocity":32,"Duration":160961,"SoundDuration":160961,"Delta":7301613},{"NoteNumber":68,"Velocity":40,"Duration":321922,"SoundDuration":321922,"Delta":7623536},{"NoteNumber":77,"Velocity":45,"Duration":160961,"SoundDuration":160961,"Delta":7623536},{"NoteNumber":65,"Velocity":27,"Duration":160961,"SoundDuration":160961,"Delta":7623536},{"NoteNumber":61,"Velocity":22,"Duration":160961,"SoundDuration":160961,"Delta":7623536},{"NoteNumber":78,"Velocity":45,"Duration":160961,"SoundDuration":160961,"Delta":7784497},{"NoteNumber":69,"Velocity":43,"Duration":321922,"SoundDuration":321922,"Delta":7945459},{"NoteNumber":77,"Velocity":48,"Duration":321922,"SoundDuration":321922,"Delta":7945459},{"NoteNumber":48,"Velocity":32,"Duration":160961,"SoundDuration":160961,"Delta":7945459},{"NoteNumber":69,"Velocity":40,"Duration":321922,"SoundDuration":321922,"Delta":8267382},{"NoteNumber":77,"Velocity":45,"Duration":321922,"SoundDuration":321922,"Delta":8267382},{"NoteNumber":65,"Velocity":27,"Duration":160961,"SoundDuration":160961,"Delta":8267382},{"NoteNumber":63,"Velocity":22,"Duration":160961,"SoundDuration":160961,"Delta":8267382},{"NoteNumber":60,"Velocity":22,"Duration":160961,"SoundDuration":160961,"Delta":8267382},{"NoteNumber":70,"Velocity":43,"Duration":510299,"SoundDuration":510299,"Delta":8589305},{"NoteNumber":77,"Velocity":48,"Duration":329489,"SoundDuration":329489,"Delta":8589305},{"NoteNumber":46,"Velocity":32,"Duration":329489,"SoundDuration":329489,"Delta":8589305},{"NoteNumber":82,"Velocity":43,"Duration":180809,"SoundDuration":180809,"Delta":8918794},{"NoteNumber":65,"Velocity":25,"Duration":180809,"SoundDuration":180809,"Delta":8918794},{"NoteNumber":61,"Velocity":20,"Duration":180809,"SoundDuration":180809,"Delta":8918794},{"NoteNumber":58,"Velocity":20,"Duration":180809,"SoundDuration":180809,"Delta":8918794},{"NoteNumber":68,"Velocity":37,"Duration":683292,"SoundDuration":683292,"Delta":9280414},{"NoteNumber":77,"Velocity":42,"Duration":683292,"SoundDuration":683292,"Delta":9280414},{"NoteNumber":53,"Velocity":30,"Duration":341646,"SoundDuration":341646,"Delta":9280414},{"NoteNumber":65,"Velocity":25,"Duration":341646,"SoundDuration":341646,"Delta":9622060},{"NoteNumber":60,"Velocity":20,"Duration":341646,"SoundDuration":341646,"Delta":9622060},{"NoteNumber":68,"Velocity":37,"Duration":159512,"SoundDuration":159512,"Delta":9963707},{"NoteNumber":72,"Velocity":42,"Duration":159512,"SoundDuration":159512,"Delta":9963707},{"NoteNumber":48,"Velocity":30,"Duration":108758,"SoundDuration":108758,"Delta":9963707},{"NoteNumber":67,"Velocity":35,"Duration":159512,"SoundDuration":159512,"Delta":10108718},{"NoteNumber":70,"Velocity":39,"Duration":159512,"SoundDuration":159512,"Delta":10108718},{"NoteNumber":65,"Velocity":35,"Duration":108758,"SoundDuration":108758,"Delta":10253730},{"NoteNumber":68,"Velocity":39,"Duration":159512,"SoundDuration":159512,"Delta":10253730},{"NoteNumber":65,"Velocity":27,"Duration":159512,"SoundDuration":159512,"Delta":10253730},{"NoteNumber":60,"Velocity":22,"Duration":108758,"SoundDuration":108758,"Delta":10253730},{"NoteNumber":67,"Velocity":35,"Duration":159743,"SoundDuration":159743,"Delta":10398741},{"NoteNumber":70,"Velocity":39,"Duration":159743,"SoundDuration":159743,"Delta":10398741},{"NoteNumber":68,"Velocity":37,"Duration":296347,"SoundDuration":296347,"Delta":10543753},{"NoteNumber":72,"Velocity":42,"Duration":147580,"SoundDuration":147580,"Delta":10543753},{"NoteNumber":48,"Velocity":29,"Duration":110554,"SoundDuration":110554,"Delta":10543753},{"NoteNumber":73,"Velocity":39,"Duration":148767,"SoundDuration":148767,"Delta":10691334},{"NoteNumber":70,"Velocity":39,"Duration":300898,"SoundDuration":300898,"Delta":10840101},{"NoteNumber":67,"Velocity":35,"Duration":300898,"SoundDuration":300898,"Delta":10840101},{"NoteNumber":72,"Velocity":39,"Duration":150106,"SoundDuration":150106,"Delta":10840101},{"NoteNumber":64,"Velocity":25,"Duration":112478,"SoundDuration":112478,"Delta":10840101},{"NoteNumber":60,"Velocity":20,"Duration":112478,"SoundDuration":112478,"Delta":10840101},{"NoteNumber":76,"Velocity":39,"Duration":150792,"SoundDuration":150792,"Delta":10990207},{"NoteNumber":77,"Velocity":43,"Duration":636469,"SoundDuration":636469,"Delta":11141000},{"NoteNumber":72,"Velocity":38,"Duration":636469,"SoundDuration":636469,"Delta":11141000},{"NoteNumber":68,"Velocity":38,"Duration":636469,"SoundDuration":636469,"Delta":11141000},{"NoteNumber":53,"Velocity":32,"Duration":159117,"SoundDuration":159117,"Delta":11141000},{"NoteNumber":65,"Velocity":27,"Duration":159117,"SoundDuration":159117,"Delta":11459235},{"NoteNumber":60,"Velocity":22,"Duration":159117,"SoundDuration":159117,"Delta":11459235},{"NoteNumber":68,"Velocity":38,"Duration":544134,"SoundDuration":544134,"Delta":11777470},{"NoteNumber":72,"Velocity":38,"Duration":544134,"SoundDuration":544134,"Delta":11777470},{"NoteNumber":77,"Velocity":43,"Duration":544134,"SoundDuration":544134,"Delta":11777470},{"NoteNumber":53,"Velocity":29,"Duration":164744,"SoundDuration":164744,"Delta":11777470},{"NoteNumber":65,"Velocity":27,"Duration":164744,"SoundDuration":164744,"Delta":12106959},{"NoteNumber":60,"Velocity":23,"Duration":164744,"SoundDuration":164744,"Delta":12106959},{"NoteNumber":70,"Velocity":48,"Duration":74850,"SoundDuration":74850,"Delta":12346554},{"NoteNumber":68,"Velocity":56,"Duration":148898,"SoundDuration":148898,"Delta":12421404},{"NoteNumber":53,"Velocity":34,"Duration":111673,"SoundDuration":111673,"Delta":12421404},{"NoteNumber":68,"Velocity":50,"Duration":142789,"SoundDuration":142789,"Delta":12719201},{"NoteNumber":65,"Velocity":27,"Duration":107091,"SoundDuration":107091,"Delta":12719201},{"NoteNumber":60,"Velocity":23,"Duration":107091,"SoundDuration":107091,"Delta":12719201},{"NoteNumber":70,"Velocity":50,"Duration":142789,"SoundDuration":142789,"Delta":12861990},{"NoteNumber":68,"Velocity":55,"Duration":147318,"SoundDuration":147318,"Delta":13004779},{"NoteNumber":53,"Velocity":34,"Duration":110489,"SoundDuration":110489,"Delta":13004779},{"NoteNumber":67,"Velocity":52,"Duration":152145,"SoundDuration":152145,"Delta":13299417},{"NoteNumber":64,"Velocity":27,"Duration":114108,"SoundDuration":114108,"Delta":13299417},{"NoteNumber":60,"Velocity":22,"Duration":114108,"SoundDuration":114108,"Delta":13299417},{"NoteNumber":68,"Velocity":48,"Duration":76072,"SoundDuration":76072,"Delta":13451562},{"NoteNumber":70,"Velocity":48,"Duration":76072,"SoundDuration":76072,"Delta":13527635},{"NoteNumber":68,"Velocity":51,"Duration":480102,"SoundDuration":480102,"Delta":13603707},{"NoteNumber":72,"Velocity":57,"Duration":480102,"SoundDuration":480102,"Delta":13603707},{"NoteNumber":53,"Velocity":36,"Duration":120025,"SoundDuration":120025,"Delta":13603707},{"NoteNumber":65,"Velocity":29,"Duration":120025,"SoundDuration":120025,"Delta":13923776},{"NoteNumber":60,"Velocity":25,"Duration":120025,"SoundDuration":120025,"Delta":13923776},{"NoteNumber":68,"Velocity":48,"Duration":80017,"SoundDuration":80017,"Delta":14083810},{"NoteNumber":70,"Velocity":48,"Duration":80017,"SoundDuration":80017,"Delta":14163827},{"NoteNumber":68,"Velocity":51,"Duration":541404,"SoundDuration":541404,"Delta":14243844},{"NoteNumber":72,"Velocity":57,"Duration":541404,"SoundDuration":541404,"Delta":14243844},{"NoteNumber":53,"Velocity":32,"Duration":116015,"SoundDuration":116015,"Delta":14243844},{"NoteNumber":65,"Velocity":28,"Duration":116015,"SoundDuration":116015,"Delta":14553218},{"NoteNumber":60,"Velocity":24,"Duration":116015,"SoundDuration":116015,"Delta":14553218},{"NoteNumber":70,"Velocity":48,"Duration":77343,"SoundDuration":77343,"Delta":14785249},{"NoteNumber":68,"Velocity":56,"Duration":147318,"SoundDuration":147318,"Delta":14862592},{"NoteNumber":53,"Velocity":34,"Duration":110489,"SoundDuration":110489,"Delta":14862592},{"NoteNumber":68,"Velocity":51,"Duration":142789,"SoundDuration":142789,"Delta":15157230},{"NoteNumber":65,"Velocity":28,"Duration":107091,"SoundDuration":107091,"Delta":15157230},{"NoteNumber":60,"Velocity":24,"Duration":107091,"SoundDuration":107091,"Delta":15157230},{"NoteNumber":70,"Velocity":51,"Duration":142789,"SoundDuration":142789,"Delta":15300019},{"NoteNumber":68,"Velocity":55,"Duration":147318,"SoundDuration":147318,"Delta":15442808},{"NoteNumber":53,"Velocity":32,"Duration":110489,"SoundDuration":110489,"Delta":15442808},{"NoteNumber":67,"Velocity":45,"Duration":152145,"SoundDuration":152145,"Delta":15737446},{"NoteNumber":72,"Velocity":51,"Duration":152145,"SoundDuration":152145,"Delta":15737446},{"NoteNumber":64,"Velocity":28,"Duration":114108,"SoundDuration":114108,"Delta":15737446},{"NoteNumber":60,"Velocity":24,"Duration":114108,"SoundDuration":114108,"Delta":15737446},{"NoteNumber":72,"Velocity":48,"Duration":76072,"SoundDuration":76072,"Delta":15965664},{"NoteNumber":77,"Velocity":60,"Duration":563365,"SoundDuration":563365,"Delta":16041736},{"NoteNumber":68,"Velocity":54,"Duration":563365,"SoundDuration":563365,"Delta":16041736},{"NoteNumber":53,"Velocity":38,"Duration":120721,"SoundDuration":120721,"Delta":16041736},{"NoteNumber":65,"Velocity":29,"Duration":120721,"SoundDuration":120721,"Delta":16363659},{"NoteNumber":60,"Velocity":25,"Duration":120721,"SoundDuration":120721,"Delta":16363659},{"NoteNumber":72,"Velocity":48,"Duration":80480,"SoundDuration":80480,"Delta":16605102},{"NoteNumber":68,"Velocity":52,"Duration":643845,"SoundDuration":643845,"Delta":16685582},{"NoteNumber":77,"Velocity":58,"Duration":643845,"SoundDuration":643845,"Delta":16685582},{"NoteNumber":53,"Velocity":38,"Duration":120721,"SoundDuration":120721,"Delta":16685582},{"NoteNumber":65,"Velocity":29,"Duration":120721,"SoundDuration":120721,"Delta":17007506},{"NoteNumber":60,"Velocity":25,"Duration":120721,"SoundDuration":120721,"Delta":17007506},{"NoteNumber":78,"Velocity":43,"Duration":80480,"SoundDuration":80480,"Delta":17248948},{"NoteNumber":68,"Velocity":46,"Duration":321922,"SoundDuration":321922,"Delta":17329428},{"NoteNumber":77,"Velocity":52,"Duration":321922,"SoundDuration":321922,"Delta":17329428},{"NoteNumber":49,"Velocity":32,"Duration":160961,"SoundDuration":160961,"Delta":17329428},{"NoteNumber":68,"Velocity":40,"Duration":321923,"SoundDuration":321923,"Delta":17651351},{"NoteNumber":77,"Velocity":45,"Duration":160961,"SoundDuration":160961,"Delta":17651351},{"NoteNumber":65,"Velocity":27,"Duration":160961,"SoundDuration":160961,"Delta":17651351},{"NoteNumber":61,"Velocity":22,"Duration":160961,"SoundDuration":160961,"Delta":17651351},{"NoteNumber":78,"Velocity":45,"Duration":160961,"SoundDuration":160961,"Delta":17812313},{"NoteNumber":69,"Velocity":43,"Duration":321923,"SoundDuration":321923,"Delta":17973274},{"NoteNumber":77,"Velocity":48,"Duration":321923,"SoundDuration":321923,"Delta":17973274},{"NoteNumber":48,"Velocity":32,"Duration":160961,"SoundDuration":160961,"Delta":17973274},{"NoteNumber":69,"Velocity":40,"Duration":321922,"SoundDuration":321922,"Delta":18295198},{"NoteNumber":77,"Velocity":45,"Duration":321922,"SoundDuration":321922,"Delta":18295198},{"NoteNumber":65,"Velocity":27,"Duration":160961,"SoundDuration":160961,"Delta":18295198},{"NoteNumber":63,"Velocity":22,"Duration":160961,"SoundDuration":160961,"Delta":18295198},{"NoteNumber":60,"Velocity":22,"Duration":160961,"SoundDuration":160961,"Delta":18295198},{"NoteNumber":70,"Velocity":43,"Duration":552818,"SoundDuration":552818,"Delta":18617120},{"NoteNumber":77,"Velocity":48,"Duration":348068,"SoundDuration":348068,"Delta":18617120},{"NoteNumber":46,"Velocity":32,"Duration":348068,"SoundDuration":348068,"Delta":18617120},{"NoteNumber":82,"Velocity":43,"Duration":204750,"SoundDuration":204750,"Delta":18965189},{"NoteNumber":65,"Velocity":25,"Duration":204750,"SoundDuration":204750,"Delta":18965189},{"NoteNumber":61,"Velocity":20,"Duration":204750,"SoundDuration":204750,"Delta":18965189},{"NoteNumber":58,"Velocity":20,"Duration":204750,"SoundDuration":204750,"Delta":18965189},{"NoteNumber":68,"Velocity":37,"Duration":768146,"SoundDuration":768146,"Delta":19374689},{"NoteNumber":77,"Velocity":42,"Duration":768146,"SoundDuration":768146,"Delta":19374689},{"NoteNumber":53,"Velocity":29,"Duration":384073,"SoundDuration":384073,"Delta":19374689},{"NoteNumber":65,"Velocity":25,"Duration":384073,"SoundDuration":384073,"Delta":19758763},{"NoteNumber":60,"Velocity":20,"Duration":384073,"SoundDuration":384073,"Delta":19758763},{"NoteNumber":68,"Velocity":37,"Duration":159512,"SoundDuration":159512,"Delta":20142836},{"NoteNumber":72,"Velocity":42,"Duration":159512,"SoundDuration":159512,"Delta":20142836},{"NoteNumber":48,"Velocity":30,"Duration":108758,"SoundDuration":108758,"Delta":20142836},{"NoteNumber":67,"Velocity":35,"Duration":159512,"SoundDuration":159512,"Delta":20287847},{"NoteNumber":70,"Velocity":39,"Duration":159512,"SoundDuration":159512,"Delta":20287847},{"NoteNumber":65,"Velocity":35,"Duration":108758,"SoundDuration":108758,"Delta":20432859},{"NoteNumber":68,"Velocity":39,"Duration":159512,"SoundDuration":159512,"Delta":20432859},{"NoteNumber":65,"Velocity":27,"Duration":159512,"SoundDuration":159512,"Delta":20432859},{"NoteNumber":60,"Velocity":22,"Duration":108758,"SoundDuration":108758,"Delta":20432859},{"NoteNumber":67,"Velocity":35,"Duration":159743,"SoundDuration":159743,"Delta":20577871},{"NoteNumber":70,"Velocity":39,"Duration":159743,"SoundDuration":159743,"Delta":20577871},{"NoteNumber":68,"Velocity":42,"Duration":296347,"SoundDuration":296347,"Delta":20722882},{"NoteNumber":72,"Velocity":42,"Duration":147580,"SoundDuration":147580,"Delta":20722882},{"NoteNumber":48,"Velocity":29,"Duration":110554,"SoundDuration":110554,"Delta":20722882},{"NoteNumber":73,"Velocity":39,"Duration":148767,"SoundDuration":148767,"Delta":20870463},{"NoteNumber":70,"Velocity":39,"Duration":300898,"SoundDuration":300898,"Delta":21019230},{"NoteNumber":67,"Velocity":35,"Duration":300898,"SoundDuration":300898,"Delta":21019230},{"NoteNumber":72,"Velocity":39,"Duration":150106,"SoundDuration":150106,"Delta":21019230},{"NoteNumber":64,"Velocity":25,"Duration":112478,"SoundDuration":112478,"Delta":21019230},{"NoteNumber":60,"Velocity":20,"Duration":112478,"SoundDuration":112478,"Delta":21019230},{"NoteNumber":76,"Velocity":39,"Duration":150792,"SoundDuration":150792,"Delta":21169336},{"NoteNumber":77,"Velocity":43,"Duration":674991,"SoundDuration":674991,"Delta":21320129},{"NoteNumber":72,"Velocity":38,"Duration":674991,"SoundDuration":674991,"Delta":21320129},{"NoteNumber":68,"Velocity":38,"Duration":674991,"SoundDuration":674991,"Delta":21320129},{"NoteNumber":53,"Velocity":32,"Duration":168748,"SoundDuration":168748,"Delta":21320129},{"NoteNumber":65,"Velocity":27,"Duration":168747,"SoundDuration":168747,"Delta":21657625},{"NoteNumber":60,"Velocity":22,"Duration":168747,"SoundDuration":168747,"Delta":21657625},{"NoteNumber":68,"Velocity":38,"Duration":674991,"SoundDuration":674991,"Delta":21995121},{"NoteNumber":72,"Velocity":38,"Duration":674991,"SoundDuration":674991,"Delta":21995121},{"NoteNumber":77,"Velocity":43,"Duration":674991,"SoundDuration":674991,"Delta":21995121},{"NoteNumber":53,"Velocity":29,"Duration":168748,"SoundDuration":168748,"Delta":21995121},{"NoteNumber":65,"Velocity":27,"Duration":168747,"SoundDuration":168747,"Delta":22332617},{"NoteNumber":60,"Velocity":23,"Duration":168747,"SoundDuration":168747,"Delta":22332617},{"NoteNumber":72,"Velocity":57,"Duration":666889,"SoundDuration":666889,"Delta":22670113},{"NoteNumber":56,"Velocity":30,"Duration":166722,"SoundDuration":166722,"Delta":22670113},{"NoteNumber":60,"Velocity":23,"Duration":166722,"SoundDuration":166722,"Delta":23003557},{"NoteNumber":63,"Velocity":23,"Duration":166722,"SoundDuration":166722,"Delta":23003557},{"NoteNumber":68,"Velocity":27,"Duration":166722,"SoundDuration":166722,"Delta":23003557},{"NoteNumber":72,"Velocity":57,"Duration":666888,"SoundDuration":666888,"Delta":23337002},{"NoteNumber":56,"Velocity":29,"Duration":166722,"SoundDuration":166722,"Delta":23337002},{"NoteNumber":60,"Velocity":23,"Duration":166722,"SoundDuration":166722,"Delta":23670446},{"NoteNumber":63,"Velocity":23,"Duration":166722,"SoundDuration":166722,"Delta":23670446},{"NoteNumber":68,"Velocity":27,"Duration":166722,"SoundDuration":166722,"Delta":23670446},{"NoteNumber":72,"Velocity":50,"Duration":165562,"SoundDuration":165562,"Delta":24003891},{"NoteNumber":56,"Velocity":32,"Duration":150511,"SoundDuration":150511,"Delta":24003891},{"NoteNumber":73,"Velocity":51,"Duration":165562,"SoundDuration":165562,"Delta":24154402},{"NoteNumber":75,"Velocity":55,"Duration":165562,"SoundDuration":165562,"Delta":24304914},{"NoteNumber":67,"Velocity":27,"Duration":150511,"SoundDuration":150511,"Delta":24304914},{"NoteNumber":63,"Velocity":23,"Duration":150511,"SoundDuration":150511,"Delta":24304914},{"NoteNumber":58,"Velocity":23,"Duration":150511,"SoundDuration":150511,"Delta":24304914},{"NoteNumber":73,"Velocity":52,"Duration":150511,"SoundDuration":150511,"Delta":24455426},{"NoteNumber":73,"Velocity":52,"Duration":451535,"SoundDuration":451535,"Delta":24605938},{"NoteNumber":56,"Velocity":28,"Duration":150511,"SoundDuration":150511,"Delta":24605938},{"NoteNumber":67,"Velocity":27,"Duration":150511,"SoundDuration":150511,"Delta":24906961},{"NoteNumber":63,"Velocity":22,"Duration":150511,"SoundDuration":150511,"Delta":24906961},{"NoteNumber":58,"Velocity":22,"Duration":150511,"SoundDuration":150511,"Delta":24906961},{"NoteNumber":72,"Velocity":49,"Duration":75255,"SoundDuration":75255,"Delta":25057473},{"NoteNumber":72,"Velocity":43,"Duration":38245,"SoundDuration":38245,"Delta":25170975},{"NoteNumber":70,"Velocity":52,"Duration":152983,"SoundDuration":152983,"Delta":25209220},{"NoteNumber":56,"Velocity":29,"Duration":152983,"SoundDuration":152983,"Delta":25209220},{"NoteNumber":70,"Velocity":48,"Duration":152983,"SoundDuration":152983,"Delta":25515187},{"NoteNumber":67,"Velocity":27,"Duration":152983,"SoundDuration":152983,"Delta":25515187},{"NoteNumber":63,"Velocity":22,"Duration":152983,"SoundDuration":152983,"Delta":25515187},{"NoteNumber":61,"Velocity":22,"Duration":152983,"SoundDuration":152983,"Delta":25515187},{"NoteNumber":72,"Velocity":51,"Duration":147318,"SoundDuration":147318,"Delta":25821153},{"NoteNumber":56,"Velocity":29,"Duration":147318,"SoundDuration":147318,"Delta":25821153},{"NoteNumber":70,"Velocity":49,"Duration":147318,"SoundDuration":147318,"Delta":25968472},{"NoteNumber":68,"Velocity":46,"Duration":147318,"SoundDuration":147318,"Delta":26115791},{"NoteNumber":67,"Velocity":27,"Duration":147318,"SoundDuration":147318,"Delta":26115791},{"NoteNumber":63,"Velocity":22,"Duration":147318,"SoundDuration":147318,"Delta":26115791},{"NoteNumber":61,"Velocity":22,"Duration":147318,"SoundDuration":147318,"Delta":26115791},{"NoteNumber":70,"Velocity":50,"Duration":156429,"SoundDuration":156429,"Delta":26263110},{"NoteNumber":70,"Velocity":54,"Duration":608581,"SoundDuration":608581,"Delta":26419539},{"NoteNumber":56,"Velocity":32,"Duration":152145,"SoundDuration":152145,"Delta":26419539},{"NoteNumber":68,"Velocity":27,"Duration":152145,"SoundDuration":152145,"Delta":26723829},{"NoteNumber":63,"Velocity":23,"Duration":152145,"SoundDuration":152145,"Delta":26723829},{"NoteNumber":60,"Velocity":23,"Duration":152145,"SoundDuration":152145,"Delta":26723829},{"NoteNumber":72,"Velocity":54,"Duration":521143,"SoundDuration":521143,"Delta":27028120},{"NoteNumber":56,"Velocity":29,"Duration":148898,"SoundDuration":148898,"Delta":27028120},{"NoteNumber":68,"Velocity":27,"Duration":148898,"SoundDuration":148898,"Delta":27325916},{"NoteNumber":63,"Velocity":23,"Duration":148898,"SoundDuration":148898,"Delta":27325916},{"NoteNumber":60,"Velocity":23,"Duration":148898,"SoundDuration":148898,"Delta":27325916},{"NoteNumber":75,"Velocity":46,"Duration":74449,"SoundDuration":74449,"Delta":27549264},{"NoteNumber":80,"Velocity":57,"Duration":583527,"SoundDuration":583527,"Delta":27623713},{"NoteNumber":72,"Velocity":51,"Duration":583527,"SoundDuration":583527,"Delta":27623713},{"NoteNumber":56,"Velocity":34,"Duration":333444,"SoundDuration":333444,"Delta":27623713},{"NoteNumber":68,"Velocity":28,"Duration":333444,"SoundDuration":333444,"Delta":27957157},{"NoteNumber":60,"Velocity":24,"Duration":333444,"SoundDuration":333444,"Delta":27957157},{"NoteNumber":63,"Velocity":24,"Duration":333444,"SoundDuration":333444,"Delta":27957157},{"NoteNumber":75,"Velocity":45,"Duration":83361,"SoundDuration":83361,"Delta":28207241},{"NoteNumber":72,"Velocity":56,"Duration":666888,"SoundDuration":666888,"Delta":28290602},{"NoteNumber":80,"Velocity":56,"Duration":666888,"SoundDuration":666888,"Delta":28290602},{"NoteNumber":56,"Velocity":32,"Duration":333444,"SoundDuration":333444,"Delta":28290602},{"NoteNumber":68,"Velocity":29,"Duration":333444,"SoundDuration":333444,"Delta":28624046},{"NoteNumber":63,"Velocity":25,"Duration":333444,"SoundDuration":333444,"Delta":28624046},{"NoteNumber":60,"Velocity":25,"Duration":333444,"SoundDuration":333444,"Delta":28624046},{"NoteNumber":75,"Velocity":45,"Duration":167359,"SoundDuration":167359,"Delta":28957491},{"NoteNumber":79,"Velocity":50,"Duration":167359,"SoundDuration":167359,"Delta":28957491},{"NoteNumber":49,"Velocity":29,"Duration":114108,"SoundDuration":114108,"Delta":28957491},{"NoteNumber":73,"Velocity":45,"Duration":167359,"SoundDuration":167359,"Delta":29109636},{"NoteNumber":77,"Velocity":50,"Duration":167359,"SoundDuration":167359,"Delta":29109636},{"NoteNumber":72,"Velocity":40,"Duration":167359,"SoundDuration":167359,"Delta":29261781},{"NoteNumber":76,"Velocity":45,"Duration":167359,"SoundDuration":167359,"Delta":29261781},{"NoteNumber":65,"Velocity":27,"Duration":114108,"SoundDuration":114108,"Delta":29261781},{"NoteNumber":61,"Velocity":23,"Duration":114108,"SoundDuration":114108,"Delta":29261781},{"NoteNumber":73,"Velocity":40,"Duration":152145,"SoundDuration":152145,"Delta":29413927},{"NoteNumber":77,"Velocity":45,"Duration":152145,"SoundDuration":152145,"Delta":29413927},{"NoteNumber":73,"Velocity":45,"Duration":608580,"SoundDuration":608580,"Delta":29566072},{"NoteNumber":77,"Velocity":50,"Duration":608580,"SoundDuration":608580,"Delta":29566072},{"NoteNumber":49,"Velocity":30,"Duration":114108,"SoundDuration":114108,"Delta":29566072},{"NoteNumber":65,"Velocity":27,"Duration":114108,"SoundDuration":114108,"Delta":29870362},{"NoteNumber":61,"Velocity":23,"Duration":114108,"SoundDuration":114108,"Delta":29870362},{"NoteNumber":67,"Velocity":49,"Duration":311106,"SoundDuration":311106,"Delta":30174653},{"NoteNumber":73,"Velocity":49,"Duration":311106,"SoundDuration":311106,"Delta":30174653},{"NoteNumber":77,"Velocity":55,"Duration":155553,"SoundDuration":155553,"Delta":30174653},{"NoteNumber":51,"Velocity":29,"Duration":116664,"SoundDuration":116664,"Delta":30174653},{"NoteNumber":75,"Velocity":46,"Duration":155553,"SoundDuration":155553,"Delta":30330206},{"NoteNumber":75,"Velocity":46,"Duration":629341,"SoundDuration":629341,"Delta":30485759},{"NoteNumber":73,"Velocity":46,"Duration":629341,"SoundDuration":629341,"Delta":30485759},{"NoteNumber":67,"Velocity":46,"Duration":155553,"SoundDuration":155553,"Delta":30485759},{"NoteNumber":63,"Velocity":27,"Duration":116664,"SoundDuration":116664,"Delta":30485759},{"NoteNumber":61,"Velocity":22,"Duration":116664,"SoundDuration":116664,"Delta":30485759},{"NoteNumber":58,"Velocity":22,"Duration":116664,"SoundDuration":116664,"Delta":30485759},{"NoteNumber":68,"Velocity":46,"Duration":155553,"SoundDuration":155553,"Delta":30641313},{"NoteNumber":70,"Velocity":52,"Duration":318235,"SoundDuration":318235,"Delta":30796866},{"NoteNumber":51,"Velocity":29,"Duration":119338,"SoundDuration":119338,"Delta":30796866},{"NoteNumber":68,"Velocity":42,"Duration":159117,"SoundDuration":159117,"Delta":31115101},{"NoteNumber":73,"Velocity":42,"Duration":327865,"SoundDuration":327865,"Delta":31115101},{"NoteNumber":75,"Velocity":42,"Duration":327865,"SoundDuration":327865,"Delta":31115101},{"NoteNumber":61,"Velocity":22,"Duration":119338,"SoundDuration":119338,"Delta":31115101},{"NoteNumber":63,"Velocity":27,"Duration":119338,"SoundDuration":119338,"Delta":31115101},{"NoteNumber":58,"Velocity":22,"Duration":119338,"SoundDuration":119338,"Delta":31115101},{"NoteNumber":67,"Velocity":42,"Duration":168748,"SoundDuration":168748,"Delta":31274218},{"NoteNumber":68,"Velocity":35,"Duration":679116,"SoundDuration":679116,"Delta":31442966},{"NoteNumber":72,"Velocity":35,"Duration":679116,"SoundDuration":679116,"Delta":31442966},{"NoteNumber":75,"Velocity":39,"Duration":679116,"SoundDuration":679116,"Delta":31442966},{"NoteNumber":56,"Velocity":29,"Duration":339558,"SoundDuration":339558,"Delta":31442966},{"NoteNumber":63,"Velocity":25,"Duration":339558,"SoundDuration":339558,"Delta":31782525},{"NoteNumber":60,"Velocity":20,"Duration":339558,"SoundDuration":339558,"Delta":31782525},{"NoteNumber":75,"Velocity":39,"Duration":679117,"SoundDuration":679117,"Delta":32122083},{"NoteNumber":72,"Velocity":35,"Duration":679117,"SoundDuration":679117,"Delta":32122083},{"NoteNumber":68,"Velocity":35,"Duration":679117,"SoundDuration":679117,"Delta":32122083},{"NoteNumber":56,"Velocity":28,"Duration":339558,"SoundDuration":339558,"Delta":32122083},{"NoteNumber":63,"Velocity":25,"Duration":339558,"SoundDuration":339558,"Delta":32461642},{"NoteNumber":60,"Velocity":20,"Duration":339558,"SoundDuration":339558,"Delta":32461642},{"NoteNumber":72,"Velocity":57,"Duration":666888,"SoundDuration":666888,"Delta":32801200},{"NoteNumber":56,"Velocity":30,"Duration":166722,"SoundDuration":166722,"Delta":32801200},{"NoteNumber":60,"Velocity":23,"Duration":166722,"SoundDuration":166722,"Delta":33134645},{"NoteNumber":63,"Velocity":23,"Duration":166722,"SoundDuration":166722,"Delta":33134645},{"NoteNumber":68,"Velocity":27,"Duration":166722,"SoundDuration":166722,"Delta":33134645},{"NoteNumber":72,"Velocity":57,"Duration":666889,"SoundDuration":666889,"Delta":33468089},{"NoteNumber":56,"Velocity":29,"Duration":166722,"SoundDuration":166722,"Delta":33468089},{"NoteNumber":60,"Velocity":23,"Duration":166722,"SoundDuration":166722,"Delta":33801534},{"NoteNumber":63,"Velocity":23,"Duration":166722,"SoundDuration":166722,"Delta":33801534},{"NoteNumber":68,"Velocity":27,"Duration":166722,"SoundDuration":166722,"Delta":33801534},{"NoteNumber":72,"Velocity":50,"Duration":165562,"SoundDuration":165562,"Delta":34134978},{"NoteNumber":56,"Velocity":32,"Duration":150511,"SoundDuration":150511,"Delta":34134978},{"NoteNumber":73,"Velocity":51,"Duration":165562,"SoundDuration":165562,"Delta":34285490},{"NoteNumber":75,"Velocity":55,"Duration":165562,"SoundDuration":165562,"Delta":34436002},{"NoteNumber":67,"Velocity":27,"Duration":150511,"SoundDuration":150511,"Delta":34436002},{"NoteNumber":63,"Velocity":23,"Duration":150511,"SoundDuration":150511,"Delta":34436002},{"NoteNumber":58,"Velocity":23,"Duration":150511,"SoundDuration":150511,"Delta":34436002},{"NoteNumber":73,"Velocity":52,"Duration":150511,"SoundDuration":150511,"Delta":34586514},{"NoteNumber":73,"Velocity":52,"Duration":451535,"SoundDuration":451535,"Delta":34737025},{"NoteNumber":56,"Velocity":28,"Duration":150511,"SoundDuration":150511,"Delta":34737025},{"NoteNumber":67,"Velocity":27,"Duration":150511,"SoundDuration":150511,"Delta":35038049},{"NoteNumber":63,"Velocity":22,"Duration":150511,"SoundDuration":150511,"Delta":35038049},{"NoteNumber":58,"Velocity":22,"Duration":150511,"SoundDuration":150511,"Delta":35038049},{"NoteNumber":72,"Velocity":49,"Duration":75255,"SoundDuration":75255,"Delta":35188561},{"NoteNumber":72,"Velocity":43,"Duration":38245,"SoundDuration":38245,"Delta":35302062},{"NoteNumber":70,"Velocity":52,"Duration":305966,"SoundDuration":305966,"Delta":35340308},{"NoteNumber":56,"Velocity":29,"Duration":152983,"SoundDuration":152983,"Delta":35340308},{"NoteNumber":70,"Velocity":48,"Duration":305966,"SoundDuration":305966,"Delta":35646275},{"NoteNumber":67,"Velocity":27,"Duration":152983,"SoundDuration":152983,"Delta":35646275},{"NoteNumber":63,"Velocity":22,"Duration":152983,"SoundDuration":152983,"Delta":35646275},{"NoteNumber":61,"Velocity":22,"Duration":152983,"SoundDuration":152983,"Delta":35646275},{"NoteNumber":72,"Velocity":51,"Duration":147318,"SoundDuration":147318,"Delta":35952241},{"NoteNumber":56,"Velocity":29,"Duration":147318,"SoundDuration":147318,"Delta":35952241},{"NoteNumber":70,"Velocity":49,"Duration":147318,"SoundDuration":147318,"Delta":36099560},{"NoteNumber":68,"Velocity":46,"Duration":147318,"SoundDuration":147318,"Delta":36246879},{"NoteNumber":67,"Velocity":27,"Duration":147318,"SoundDuration":147318,"Delta":36246879},{"NoteNumber":63,"Velocity":22,"Duration":147318,"SoundDuration":147318,"Delta":36246879},{"NoteNumber":61,"Velocity":22,"Duration":147318,"SoundDuration":147318,"Delta":36246879},{"NoteNumber":70,"Velocity":50,"Duration":156429,"SoundDuration":156429,"Delta":36394197},{"NoteNumber":70,"Velocity":54,"Duration":608581,"SoundDuration":608581,"Delta":36550627},{"NoteNumber":56,"Velocity":32,"Duration":152145,"SoundDuration":152145,"Delta":36550627},{"NoteNumber":68,"Velocity":27,"Duration":152145,"SoundDuration":152145,"Delta":36854917},{"NoteNumber":63,"Velocity":23,"Duration":152145,"SoundDuration":152145,"Delta":36854917},{"NoteNumber":60,"Velocity":23,"Duration":152145,"SoundDuration":152145,"Delta":36854917},{"NoteNumber":72,"Velocity":54,"Duration":521143,"SoundDuration":521143,"Delta":37159208},{"NoteNumber":56,"Velocity":29,"Duration":148898,"SoundDuration":148898,"Delta":37159208},{"NoteNumber":68,"Velocity":27,"Duration":148898,"SoundDuration":148898,"Delta":37457004},{"NoteNumber":63,"Velocity":23,"Duration":148898,"SoundDuration":148898,"Delta":37457004},{"NoteNumber":60,"Velocity":23,"Duration":148898,"SoundDuration":148898,"Delta":37457004},{"NoteNumber":75,"Velocity":46,"Duration":74449,"SoundDuration":74449,"Delta":37680352},{"NoteNumber":80,"Velocity":57,"Duration":583527,"SoundDuration":583527,"Delta":37754801},{"NoteNumber":72,"Velocity":51,"Duration":583527,"SoundDuration":583527,"Delta":37754801},{"NoteNumber":56,"Velocity":34,"Duration":333444,"SoundDuration":333444,"Delta":37754801},{"NoteNumber":68,"Velocity":28,"Duration":333444,"SoundDuration":333444,"Delta":38088245},{"NoteNumber":60,"Velocity":24,"Duration":333444,"SoundDuration":333444,"Delta":38088245},{"NoteNumber":63,"Velocity":24,"Duration":333444,"SoundDuration":333444,"Delta":38088245},{"NoteNumber":75,"Velocity":45,"Duration":83361,"SoundDuration":83361,"Delta":38338329},{"NoteNumber":72,"Velocity":56,"Duration":666889,"SoundDuration":666889,"Delta":38421690},{"NoteNumber":80,"Velocity":56,"Duration":666889,"SoundDuration":666889,"Delta":38421690},{"NoteNumber":56,"Velocity":32,"Duration":333444,"SoundDuration":333444,"Delta":38421690},{"NoteNumber":68,"Velocity":29,"Duration":333444,"SoundDuration":333444,"Delta":38755134},{"NoteNumber":63,"Velocity":25,"Duration":333444,"SoundDuration":333444,"Delta":38755134},{"NoteNumber":60,"Velocity":25,"Duration":333444,"SoundDuration":333444,"Delta":38755134},{"NoteNumber":75,"Velocity":45,"Duration":167359,"SoundDuration":167359,"Delta":39088579},{"NoteNumber":79,"Velocity":50,"Duration":167359,"SoundDuration":167359,"Delta":39088579},{"NoteNumber":49,"Velocity":29,"Duration":114108,"SoundDuration":114108,"Delta":39088579},{"NoteNumber":73,"Velocity":45,"Duration":167359,"SoundDuration":167359,"Delta":39240724},{"NoteNumber":77,"Velocity":50,"Duration":167359,"SoundDuration":167359,"Delta":39240724},{"NoteNumber":72,"Velocity":40,"Duration":167359,"SoundDuration":167359,"Delta":39392869},{"NoteNumber":76,"Velocity":45,"Duration":167359,"SoundDuration":167359,"Delta":39392869},{"NoteNumber":65,"Velocity":27,"Duration":114108,"SoundDuration":114108,"Delta":39392869},{"NoteNumber":61,"Velocity":23,"Duration":114108,"SoundDuration":114108,"Delta":39392869},{"NoteNumber":73,"Velocity":40,"Duration":152145,"SoundDuration":152145,"Delta":39545015},{"NoteNumber":77,"Velocity":45,"Duration":152145,"SoundDuration":152145,"Delta":39545015},{"NoteNumber":73,"Velocity":45,"Duration":608581,"SoundDuration":608581,"Delta":39697160},{"NoteNumber":77,"Velocity":50,"Duration":608581,"SoundDuration":608581,"Delta":39697160},{"NoteNumber":49,"Velocity":30,"Duration":114108,"SoundDuration":114108,"Delta":39697160},{"NoteNumber":65,"Velocity":27,"Duration":114108,"SoundDuration":114108,"Delta":40001450},{"NoteNumber":61,"Velocity":23,"Duration":114108,"SoundDuration":114108,"Delta":40001450},{"NoteNumber":67,"Velocity":49,"Duration":311106,"SoundDuration":311106,"Delta":40305741},{"NoteNumber":73,"Velocity":49,"Duration":311106,"SoundDuration":311106,"Delta":40305741},{"NoteNumber":77,"Velocity":55,"Duration":155553,"SoundDuration":155553,"Delta":40305741},{"NoteNumber":51,"Velocity":29,"Duration":116664,"SoundDuration":116664,"Delta":40305741},{"NoteNumber":75,"Velocity":46,"Duration":155553,"SoundDuration":155553,"Delta":40461294},{"NoteNumber":75,"Velocity":46,"Duration":629341,"SoundDuration":629341,"Delta":40616847},{"NoteNumber":73,"Velocity":46,"Duration":629341,"SoundDuration":629341,"Delta":40616847},{"NoteNumber":67,"Velocity":46,"Duration":155553,"SoundDuration":155553,"Delta":40616847},{"NoteNumber":63,"Velocity":27,"Duration":116664,"SoundDuration":116664,"Delta":40616847},{"NoteNumber":61,"Velocity":22,"Duration":116664,"SoundDuration":116664,"Delta":40616847},{"NoteNumber":58,"Velocity":22,"Duration":116664,"SoundDuration":116664,"Delta":40616847},{"NoteNumber":68,"Velocity":46,"Duration":155553,"SoundDuration":155553,"Delta":40772401},{"NoteNumber":70,"Velocity":52,"Duration":318235,"SoundDuration":318235,"Delta":40927954},{"NoteNumber":51,"Velocity":29,"Duration":119338,"SoundDuration":119338,"Delta":40927954},{"NoteNumber":68,"Velocity":42,"Duration":159117,"SoundDuration":159117,"Delta":41246189},{"NoteNumber":73,"Velocity":42,"Duration":327865,"SoundDuration":327865,"Delta":41246189},{"NoteNumber":75,"Velocity":42,"Duration":327865,"SoundDuration":327865,"Delta":41246189},{"NoteNumber":61,"Velocity":22,"Duration":119338,"SoundDuration":119338,"Delta":41246189},{"NoteNumber":63,"Velocity":27,"Duration":119338,"SoundDuration":119338,"Delta":41246189},{"NoteNumber":58,"Velocity":22,"Duration":119338,"SoundDuration":119338,"Delta":41246189},{"NoteNumber":67,"Velocity":42,"Duration":168748,"SoundDuration":168748,"Delta":41405306},{"NoteNumber":68,"Velocity":35,"Duration":679116,"SoundDuration":679116,"Delta":41574054},{"NoteNumber":72,"Velocity":35,"Duration":679116,"SoundDuration":679116,"Delta":41574054},{"NoteNumber":75,"Velocity":39,"Duration":679116,"SoundDuration":679116,"Delta":41574054},{"NoteNumber":56,"Velocity":29,"Duration":339558,"SoundDuration":339558,"Delta":41574054},{"NoteNumber":63,"Velocity":25,"Duration":339558,"SoundDuration":339558,"Delta":41913613},{"NoteNumber":60,"Velocity":20,"Duration":339558,"SoundDuration":339558,"Delta":41913613},{"NoteNumber":75,"Velocity":39,"Duration":679117,"SoundDuration":679117,"Delta":42253171},{"NoteNumber":72,"Velocity":35,"Duration":679117,"SoundDuration":679117,"Delta":42253171},{"NoteNumber":68,"Velocity":35,"Duration":679117,"SoundDuration":679117,"Delta":42253171},{"NoteNumber":56,"Velocity":28,"Duration":339558,"SoundDuration":339558,"Delta":42253171},{"NoteNumber":63,"Velocity":25,"Duration":339558,"SoundDuration":339558,"Delta":42592730},{"NoteNumber":60,"Velocity":20,"Duration":339558,"SoundDuration":339558,"Delta":42592730},{"NoteNumber":76,"Velocity":64,"Duration":679116,"SoundDuration":679116,"Delta":42932288},{"NoteNumber":72,"Velocity":57,"Duration":679116,"SoundDuration":679116,"Delta":42932288},{"NoteNumber":70,"Velocity":57,"Duration":679116,"SoundDuration":679116,"Delta":42932288},{"NoteNumber":67,"Velocity":57,"Duration":679116,"SoundDuration":679116,"Delta":42932288},{"NoteNumber":48,"Velocity":51,"Duration":169779,"SoundDuration":169779,"Delta":42932288},{"NoteNumber":64,"Velocity":45,"Duration":169779,"SoundDuration":169779,"Delta":43271847},{"NoteNumber":60,"Velocity":38,"Duration":169779,"SoundDuration":169779,"Delta":43271847},{"NoteNumber":76,"Velocity":64,"Duration":594227,"SoundDuration":594227,"Delta":43611405},{"NoteNumber":72,"Velocity":57,"Duration":594227,"SoundDuration":594227,"Delta":43611405},{"NoteNumber":70,"Velocity":57,"Duration":594227,"SoundDuration":594227,"Delta":43611405},{"NoteNumber":67,"Velocity":57,"Duration":594227,"SoundDuration":594227,"Delta":43611405},{"NoteNumber":48,"Velocity":51,"Duration":169779,"SoundDuration":169779,"Delta":43611405},{"NoteNumber":64,"Velocity":45,"Duration":169779,"SoundDuration":169779,"Delta":43950964},{"NoteNumber":60,"Velocity":38,"Duration":169779,"SoundDuration":169779,"Delta":43950964},{"NoteNumber":77,"Velocity":56,"Duration":84889,"SoundDuration":84889,"Delta":44205633},{"NoteNumber":68,"Velocity":54,"Duration":309373,"SoundDuration":309373,"Delta":44290522},{"NoteNumber":72,"Velocity":54,"Duration":309373,"SoundDuration":309373,"Delta":44290522},{"NoteNumber":80,"Velocity":69,"Duration":309373,"SoundDuration":309373,"Delta":44290522},{"NoteNumber":48,"Velocity":46,"Duration":154687,"SoundDuration":154687,"Delta":44290522},{"NoteNumber":68,"Velocity":48,"Duration":956704,"SoundDuration":956704,"Delta":44599896},{"NoteNumber":72,"Velocity":48,"Duration":956704,"SoundDuration":956704,"Delta":44599896},{"NoteNumber":80,"Velocity":66,"Duration":156429,"SoundDuration":156429,"Delta":44599896},{"NoteNumber":65,"Velocity":37,"Duration":156429,"SoundDuration":156429,"Delta":44599896},{"NoteNumber":60,"Velocity":31,"Duration":156429,"SoundDuration":156429,"Delta":44599896},{"NoteNumber":79,"Velocity":67,"Duration":156429,"SoundDuration":156429,"Delta":44756326},{"NoteNumber":77,"Velocity":67,"Duration":321922,"SoundDuration":321922,"Delta":44912755},{"NoteNumber":48,"Velocity":46,"Duration":160961,"SoundDuration":160961,"Delta":44912755},{"NoteNumber":75,"Velocity":63,"Duration":160961,"SoundDuration":160961,"Delta":45234678},{"NoteNumber":65,"Velocity":37,"Duration":160961,"SoundDuration":160961,"Delta":45234678},{"NoteNumber":60,"Velocity":31,"Duration":160961,"SoundDuration":160961,"Delta":45234678},{"NoteNumber":73,"Velocity":63,"Duration":160961,"SoundDuration":160961,"Delta":45395639},{"NoteNumber":67,"Velocity":57,"Duration":629260,"SoundDuration":629260,"Delta":45556601},{"NoteNumber":70,"Velocity":57,"Duration":629260,"SoundDuration":629260,"Delta":45556601},{"NoteNumber":72,"Velocity":64,"Duration":629260,"SoundDuration":629260,"Delta":45556601},{"NoteNumber":48,"Velocity":52,"Duration":157315,"SoundDuration":157315,"Delta":45556601},{"NoteNumber":64,"Velocity":48,"Duration":157315,"SoundDuration":157315,"Delta":45871231},{"NoteNumber":60,"Velocity":40,"Duration":157315,"SoundDuration":157315,"Delta":45871231},{"NoteNumber":67,"Velocity":57,"Duration":535441,"SoundDuration":535441,"Delta":46185862},{"NoteNumber":70,"Velocity":57,"Duration":535441,"SoundDuration":535441,"Delta":46185862},{"NoteNumber":72,"Velocity":57,"Duration":535441,"SoundDuration":535441,"Delta":46185862},{"NoteNumber":76,"Velocity":64,"Duration":535441,"SoundDuration":535441,"Delta":46185862},{"NoteNumber":48,"Velocity":52,"Duration":152983,"SoundDuration":152983,"Delta":46185862},{"NoteNumber":64,"Velocity":48,"Duration":152983,"SoundDuration":152983,"Delta":46491828},{"NoteNumber":60,"Velocity":40,"Duration":152983,"SoundDuration":152983,"Delta":46491828},{"NoteNumber":77,"Velocity":57,"Duration":76491,"SoundDuration":76491,"Delta":46721303},{"NoteNumber":68,"Velocity":55,"Duration":305966,"SoundDuration":305966,"Delta":46797795},{"NoteNumber":72,"Velocity":55,"Duration":305966,"SoundDuration":305966,"Delta":46797795},{"NoteNumber":80,"Velocity":73,"Duration":305966,"SoundDuration":305966,"Delta":46797795},{"NoteNumber":48,"Velocity":45,"Duration":152983,"SoundDuration":152983,"Delta":46797795},{"NoteNumber":68,"Velocity":46,"Duration":941374,"SoundDuration":941374,"Delta":47103761},{"NoteNumber":72,"Velocity":46,"Duration":941374,"SoundDuration":941374,"Delta":47103761},{"NoteNumber":80,"Velocity":62,"Duration":152983,"SoundDuration":152983,"Delta":47103761},{"NoteNumber":65,"Velocity":38,"Duration":152983,"SoundDuration":152983,"Delta":47103761},{"NoteNumber":60,"Velocity":32,"Duration":152983,"SoundDuration":152983,"Delta":47103761},{"NoteNumber":79,"Velocity":62,"Duration":152983,"SoundDuration":152983,"Delta":47256745},{"NoteNumber":77,"Velocity":62,"Duration":324301,"SoundDuration":324301,"Delta":47409728},{"NoteNumber":53,"Velocity":45,"Duration":155553,"SoundDuration":155553,"Delta":47409728},{"NoteNumber":75,"Velocity":56,"Duration":155553,"SoundDuration":155553,"Delta":47734029},{"NoteNumber":65,"Velocity":38,"Duration":155553,"SoundDuration":155553,"Delta":47734029},{"NoteNumber":60,"Velocity":32,"Duration":155553,"SoundDuration":155553,"Delta":47734029},{"NoteNumber":73,"Velocity":56,"Duration":155553,"SoundDuration":155553,"Delta":47889582},{"NoteNumber":68,"Velocity":45,"Duration":709471,"SoundDuration":709471,"Delta":48045136},{"NoteNumber":72,"Velocity":51,"Duration":709471,"SoundDuration":709471,"Delta":48045136},{"NoteNumber":44,"Velocity":46,"Duration":177367,"SoundDuration":177367,"Delta":48045136},{"NoteNumber":60,"Velocity":40,"Duration":177367,"SoundDuration":177367,"Delta":48399871},{"NoteNumber":56,"Velocity":34,"Duration":177367,"SoundDuration":177367,"Delta":48399871},{"NoteNumber":66,"Velocity":49,"Duration":732779,"SoundDuration":732779,"Delta":48754607},{"NoteNumber":72,"Velocity":55,"Duration":732779,"SoundDuration":732779,"Delta":48754607},{"NoteNumber":45,"Velocity":45,"Duration":183194,"SoundDuration":183194,"Delta":48754607},{"NoteNumber":54,"Velocity":33,"Duration":183194,"SoundDuration":183194,"Delta":49120997},{"NoteNumber":60,"Velocity":39,"Duration":183194,"SoundDuration":183194,"Delta":49120997},{"NoteNumber":72,"Velocity":57,"Duration":178089,"SoundDuration":178089,"Delta":49487387},{"NoteNumber":65,"Velocity":51,"Duration":647598,"SoundDuration":647598,"Delta":49487387},{"NoteNumber":46,"Velocity":38,"Duration":161899,"SoundDuration":161899,"Delta":49487387},{"NoteNumber":73,"Velocity":60,"Duration":178089,"SoundDuration":178089,"Delta":49649286},{"NoteNumber":75,"Velocity":62,"Duration":178089,"SoundDuration":178089,"Delta":49811186},{"NoteNumber":58,"Velocity":33,"Duration":161899,"SoundDuration":161899,"Delta":49811186},{"NoteNumber":53,"Velocity":27,"Duration":161899,"SoundDuration":161899,"Delta":49811186},{"NoteNumber":73,"Velocity":58,"Duration":161899,"SoundDuration":161899,"Delta":49973085},{"NoteNumber":65,"Velocity":52,"Duration":327582,"SoundDuration":327582,"Delta":50134985},{"NoteNumber":73,"Velocity":58,"Duration":327582,"SoundDuration":327582,"Delta":50134985},{"NoteNumber":37,"Velocity":38,"Duration":163791,"SoundDuration":163791,"Delta":50134985},{"NoteNumber":63,"Velocity":46,"Duration":163791,"SoundDuration":163791,"Delta":50462567},{"NoteNumber":72,"Velocity":52,"Duration":163791,"SoundDuration":163791,"Delta":50462567},{"NoteNumber":49,"Velocity":27,"Duration":163791,"SoundDuration":163791,"Delta":50462567},{"NoteNumber":53,"Velocity":33,"Duration":163791,"SoundDuration":163791,"Delta":50462567},{"NoteNumber":61,"Velocity":45,"Duration":163791,"SoundDuration":163791,"Delta":50626358},{"NoteNumber":70,"Velocity":50,"Duration":163791,"SoundDuration":163791,"Delta":50626358},{"NoteNumber":60,"Velocity":43,"Duration":327582,"SoundDuration":327582,"Delta":50790150},{"NoteNumber":68,"Velocity":48,"Duration":327582,"SoundDuration":327582,"Delta":50790150},{"NoteNumber":39,"Velocity":29,"Duration":163791,"SoundDuration":163791,"Delta":50790150},{"NoteNumber":60,"Velocity":43,"Duration":327582,"SoundDuration":327582,"Delta":51117732},{"NoteNumber":68,"Velocity":48,"Duration":327582,"SoundDuration":327582,"Delta":51117732},{"NoteNumber":56,"Velocity":25,"Duration":163791,"SoundDuration":163791,"Delta":51117732},{"NoteNumber":51,"Velocity":20,"Duration":163791,"SoundDuration":163791,"Delta":51117732},{"NoteNumber":60,"Velocity":38,"Duration":169213,"SoundDuration":169213,"Delta":51445315},{"NoteNumber":68,"Velocity":43,"Duration":169213,"SoundDuration":169213,"Delta":51445315},{"NoteNumber":39,"Velocity":29,"Duration":153830,"SoundDuration":153830,"Delta":51445315},{"NoteNumber":61,"Velocity":39,"Duration":169213,"SoundDuration":169213,"Delta":51599145},{"NoteNumber":70,"Velocity":44,"Duration":169213,"SoundDuration":169213,"Delta":51599145},{"NoteNumber":63,"Velocity":40,"Duration":171343,"SoundDuration":171343,"Delta":51752976},{"NoteNumber":72,"Velocity":45,"Duration":171343,"SoundDuration":171343,"Delta":51752976},{"NoteNumber":55,"Velocity":25,"Duration":153830,"SoundDuration":153830,"Delta":51752976},{"NoteNumber":51,"Velocity":20,"Duration":153830,"SoundDuration":153830,"Delta":51752976},{"NoteNumber":61,"Velocity":39,"Duration":190862,"SoundDuration":190862,"Delta":51906806},{"NoteNumber":70,"Velocity":44,"Duration":190862,"SoundDuration":190862,"Delta":51906806},{"NoteNumber":60,"Velocity":38,"Duration":629260,"SoundDuration":629260,"Delta":52081937},{"NoteNumber":68,"Velocity":43,"Duration":629260,"SoundDuration":629260,"Delta":52081937},{"NoteNumber":44,"Velocity":27,"Duration":314630,"SoundDuration":314630,"Delta":52081937},{"NoteNumber":56,"Velocity":21,"Duration":314630,"SoundDuration":314630,"Delta":52396568},{"NoteNumber":51,"Velocity":18,"Duration":314630,"SoundDuration":314630,"Delta":52396568},{"NoteNumber":60,"Velocity":38,"Duration":629260,"SoundDuration":629260,"Delta":52711198},{"NoteNumber":68,"Velocity":43,"Duration":629260,"SoundDuration":629260,"Delta":52711198},{"NoteNumber":44,"Velocity":27,"Duration":314630,"SoundDuration":314630,"Delta":52711198},{"NoteNumber":56,"Velocity":21,"Duration":314630,"SoundDuration":314630,"Delta":53025829},{"NoteNumber":51,"Velocity":18,"Duration":314630,"SoundDuration":314630,"Delta":53025829},{"NoteNumber":76,"Velocity":64,"Duration":670915,"SoundDuration":670915,"Delta":53340459},{"NoteNumber":72,"Velocity":57,"Duration":670915,"SoundDuration":670915,"Delta":53340459},{"NoteNumber":70,"Velocity":57,"Duration":670915,"SoundDuration":670915,"Delta":53340459},{"NoteNumber":67,"Velocity":57,"Duration":670915,"SoundDuration":670915,"Delta":53340459},{"NoteNumber":48,"Velocity":51,"Duration":167729,"SoundDuration":167729,"Delta":53340459},{"NoteNumber":64,"Velocity":45,"Duration":167728,"SoundDuration":167728,"Delta":53675917},{"NoteNumber":60,"Velocity":38,"Duration":167728,"SoundDuration":167728,"Delta":53675917},{"NoteNumber":76,"Velocity":64,"Duration":587051,"SoundDuration":587051,"Delta":54011375},{"NoteNumber":72,"Velocity":57,"Duration":587051,"SoundDuration":587051,"Delta":54011375},{"NoteNumber":70,"Velocity":57,"Duration":587051,"SoundDuration":587051,"Delta":54011375},{"NoteNumber":67,"Velocity":57,"Duration":587051,"SoundDuration":587051,"Delta":54011375},{"NoteNumber":48,"Velocity":51,"Duration":167729,"SoundDuration":167729,"Delta":54011375},{"NoteNumber":64,"Velocity":45,"Duration":167729,"SoundDuration":167729,"Delta":54346833},{"NoteNumber":60,"Velocity":38,"Duration":167729,"SoundDuration":167729,"Delta":54346833},{"NoteNumber":77,"Velocity":56,"Duration":83864,"SoundDuration":83864,"Delta":54598427},{"NoteNumber":68,"Velocity":54,"Duration":309373,"SoundDuration":309373,"Delta":54682291},{"NoteNumber":72,"Velocity":54,"Duration":309373,"SoundDuration":309373,"Delta":54682291},{"NoteNumber":80,"Velocity":69,"Duration":309373,"SoundDuration":309373,"Delta":54682291},{"NoteNumber":48,"Velocity":46,"Duration":154687,"SoundDuration":154687,"Delta":54682291},{"NoteNumber":68,"Velocity":48,"Duration":956704,"SoundDuration":956704,"Delta":54991665},{"NoteNumber":72,"Velocity":48,"Duration":956704,"SoundDuration":956704,"Delta":54991665},{"NoteNumber":80,"Velocity":66,"Duration":156429,"SoundDuration":156429,"Delta":54991665},{"NoteNumber":65,"Velocity":37,"Duration":156429,"SoundDuration":156429,"Delta":54991665},{"NoteNumber":60,"Velocity":31,"Duration":156429,"SoundDuration":156429,"Delta":54991665},{"NoteNumber":79,"Velocity":67,"Duration":156429,"SoundDuration":156429,"Delta":55148095},{"NoteNumber":77,"Velocity":67,"Duration":321922,"SoundDuration":321922,"Delta":55304524},{"NoteNumber":48,"Velocity":46,"Duration":160961,"SoundDuration":160961,"Delta":55304524},{"NoteNumber":75,"Velocity":63,"Duration":160961,"SoundDuration":160961,"Delta":55626447},{"NoteNumber":65,"Velocity":37,"Duration":160961,"SoundDuration":160961,"Delta":55626447},{"NoteNumber":60,"Velocity":31,"Duration":160961,"SoundDuration":160961,"Delta":55626447},{"NoteNumber":73,"Velocity":63,"Duration":160961,"SoundDuration":160961,"Delta":55787408},{"NoteNumber":67,"Velocity":57,"Duration":629260,"SoundDuration":629260,"Delta":55948370},{"NoteNumber":70,"Velocity":57,"Duration":629260,"SoundDuration":629260,"Delta":55948370},{"NoteNumber":72,"Velocity":64,"Duration":629260,"SoundDuration":629260,"Delta":55948370},{"NoteNumber":48,"Velocity":52,"Duration":157315,"SoundDuration":157315,"Delta":55948370},{"NoteNumber":64,"Velocity":48,"Duration":157315,"SoundDuration":157315,"Delta":56263000},{"NoteNumber":60,"Velocity":40,"Duration":157315,"SoundDuration":157315,"Delta":56263000},{"NoteNumber":67,"Velocity":57,"Duration":535441,"SoundDuration":535441,"Delta":56577631},{"NoteNumber":70,"Velocity":57,"Duration":535441,"SoundDuration":535441,"Delta":56577631},{"NoteNumber":72,"Velocity":57,"Duration":535441,"SoundDuration":535441,"Delta":56577631},{"NoteNumber":76,"Velocity":64,"Duration":535441,"SoundDuration":535441,"Delta":56577631},{"NoteNumber":48,"Velocity":52,"Duration":152983,"SoundDuration":152983,"Delta":56577631},{"NoteNumber":64,"Velocity":48,"Duration":152983,"SoundDuration":152983,"Delta":56883597},{"NoteNumber":60,"Velocity":40,"Duration":152983,"SoundDuration":152983,"Delta":56883597},{"NoteNumber":77,"Velocity":57,"Duration":76491,"SoundDuration":76491,"Delta":57113072},{"NoteNumber":68,"Velocity":55,"Duration":305966,"SoundDuration":305966,"Delta":57189564},{"NoteNumber":72,"Velocity":55,"Duration":305966,"SoundDuration":305966,"Delta":57189564},{"NoteNumber":80,"Velocity":73,"Duration":305966,"SoundDuration":305966,"Delta":57189564},{"NoteNumber":48,"Velocity":45,"Duration":152983,"SoundDuration":152983,"Delta":57189564},{"NoteNumber":68,"Velocity":46,"Duration":941374,"SoundDuration":941374,"Delta":57495530},{"NoteNumber":72,"Velocity":46,"Duration":941374,"SoundDuration":941374,"Delta":57495530},{"NoteNumber":80,"Velocity":62,"Duration":152983,"SoundDuration":152983,"Delta":57495530},{"NoteNumber":65,"Velocity":38,"Duration":152983,"SoundDuration":152983,"Delta":57495530},{"NoteNumber":60,"Velocity":32,"Duration":152983,"SoundDuration":152983,"Delta":57495530},{"NoteNumber":79,"Velocity":62,"Duration":152983,"SoundDuration":152983,"Delta":57648514},{"NoteNumber":77,"Velocity":62,"Duration":324301,"SoundDuration":324301,"Delta":57801497},{"NoteNumber":53,"Velocity":45,"Duration":155553,"SoundDuration":155553,"Delta":57801497},{"NoteNumber":75,"Velocity":56,"Duration":155553,"SoundDuration":155553,"Delta":58125798},{"NoteNumber":65,"Velocity":38,"Duration":155553,"SoundDuration":155553,"Delta":58125798},{"NoteNumber":60,"Velocity":32,"Duration":155553,"SoundDuration":155553,"Delta":58125798},{"NoteNumber":73,"Velocity":56,"Duration":155553,"SoundDuration":155553,"Delta":58281351},{"NoteNumber":68,"Velocity":45,"Duration":709471,"SoundDuration":709471,"Delta":58436904},{"NoteNumber":72,"Velocity":51,"Duration":709471,"SoundDuration":709471,"Delta":58436904},{"NoteNumber":44,"Velocity":46,"Duration":177367,"SoundDuration":177367,"Delta":58436904},{"NoteNumber":60,"Velocity":40,"Duration":177367,"SoundDuration":177367,"Delta":58791640},{"NoteNumber":56,"Velocity":34,"Duration":177367,"SoundDuration":177367,"Delta":58791640},{"NoteNumber":66,"Velocity":49,"Duration":732779,"SoundDuration":732779,"Delta":59146376},{"NoteNumber":72,"Velocity":55,"Duration":732779,"SoundDuration":732779,"Delta":59146376},{"NoteNumber":45,"Velocity":45,"Duration":183194,"SoundDuration":183194,"Delta":59146376},{"NoteNumber":54,"Velocity":33,"Duration":183194,"SoundDuration":183194,"Delta":59512766},{"NoteNumber":60,"Velocity":39,"Duration":183194,"SoundDuration":183194,"Delta":59512766},{"NoteNumber":72,"Velocity":57,"Duration":178089,"SoundDuration":178089,"Delta":59879155},{"NoteNumber":65,"Velocity":51,"Duration":647598,"SoundDuration":647598,"Delta":59879155},{"NoteNumber":46,"Velocity":38,"Duration":161899,"SoundDuration":161899,"Delta":59879155},{"NoteNumber":73,"Velocity":60,"Duration":178089,"SoundDuration":178089,"Delta":60041055},{"NoteNumber":75,"Velocity":62,"Duration":178089,"SoundDuration":178089,"Delta":60202954},{"NoteNumber":58,"Velocity":33,"Duration":161899,"SoundDuration":161899,"Delta":60202954},{"NoteNumber":53,"Velocity":27,"Duration":161899,"SoundDuration":161899,"Delta":60202954},{"NoteNumber":73,"Velocity":58,"Duration":161899,"SoundDuration":161899,"Delta":60364854},{"NoteNumber":65,"Velocity":52,"Duration":327582,"SoundDuration":327582,"Delta":60526754},{"NoteNumber":73,"Velocity":58,"Duration":327582,"SoundDuration":327582,"Delta":60526754},{"NoteNumber":37,"Velocity":38,"Duration":163791,"SoundDuration":163791,"Delta":60526754},{"NoteNumber":63,"Velocity":46,"Duration":180170,"SoundDuration":180170,"Delta":60854336},{"NoteNumber":72,"Velocity":52,"Duration":180170,"SoundDuration":180170,"Delta":60854336},{"NoteNumber":49,"Velocity":27,"Duration":163791,"SoundDuration":163791,"Delta":60854336},{"NoteNumber":53,"Velocity":33,"Duration":163791,"SoundDuration":163791,"Delta":60854336},{"NoteNumber":61,"Velocity":45,"Duration":180170,"SoundDuration":180170,"Delta":61018127},{"NoteNumber":70,"Velocity":50,"Duration":180170,"SoundDuration":180170,"Delta":61018127},{"NoteNumber":60,"Velocity":43,"Duration":327582,"SoundDuration":327582,"Delta":61181918},{"NoteNumber":68,"Velocity":48,"Duration":327582,"SoundDuration":327582,"Delta":61181918},{"NoteNumber":39,"Velocity":29,"Duration":163791,"SoundDuration":163791,"Delta":61181918},{"NoteNumber":60,"Velocity":43,"Duration":327582,"SoundDuration":327582,"Delta":61509501},{"NoteNumber":68,"Velocity":48,"Duration":327582,"SoundDuration":327582,"Delta":61509501},{"NoteNumber":56,"Velocity":25,"Duration":163791,"SoundDuration":163791,"Delta":61509501},{"NoteNumber":51,"Velocity":20,"Duration":163791,"SoundDuration":163791,"Delta":61509501},{"NoteNumber":60,"Velocity":38,"Duration":171108,"SoundDuration":171108,"Delta":61837084},{"NoteNumber":68,"Velocity":43,"Duration":171108,"SoundDuration":171108,"Delta":61837084},{"NoteNumber":39,"Velocity":29,"Duration":155553,"SoundDuration":155553,"Delta":61837084},{"NoteNumber":61,"Velocity":39,"Duration":171108,"SoundDuration":171108,"Delta":61992637},{"NoteNumber":70,"Velocity":44,"Duration":171108,"SoundDuration":171108,"Delta":61992637},{"NoteNumber":63,"Velocity":40,"Duration":173066,"SoundDuration":173066,"Delta":62148190},{"NoteNumber":72,"Velocity":45,"Duration":173066,"SoundDuration":173066,"Delta":62148190},{"NoteNumber":55,"Velocity":25,"Duration":155553,"SoundDuration":155553,"Delta":62148190},{"NoteNumber":51,"Velocity":20,"Duration":155553,"SoundDuration":155553,"Delta":62148190},{"NoteNumber":61,"Velocity":39,"Duration":190862,"SoundDuration":190862,"Delta":62303743},{"NoteNumber":70,"Velocity":44,"Duration":190862,"SoundDuration":190862,"Delta":62303743},{"NoteNumber":60,"Velocity":38,"Duration":629260,"SoundDuration":629260,"Delta":62478874},{"NoteNumber":68,"Velocity":43,"Duration":629260,"SoundDuration":629260,"Delta":62478874},{"NoteNumber":44,"Velocity":27,"Duration":314630,"SoundDuration":314630,"Delta":62478874},{"NoteNumber":56,"Velocity":21,"Duration":314630,"SoundDuration":314630,"Delta":62793505},{"NoteNumber":51,"Velocity":18,"Duration":314630,"SoundDuration":314630,"Delta":62793505},{"NoteNumber":60,"Velocity":38,"Duration":550603,"SoundDuration":550603,"Delta":63108135},{"NoteNumber":68,"Velocity":43,"Duration":550603,"SoundDuration":550603,"Delta":63108135},{"NoteNumber":44,"Velocity":27,"Duration":314630,"SoundDuration":314630,"Delta":63108135},{"NoteNumber":56,"Velocity":21,"Duration":235972,"SoundDuration":235972,"Delta":63422766},{"NoteNumber":51,"Velocity":18,"Duration":235972,"SoundDuration":235972,"Delta":63422766},{"NoteNumber":70,"Velocity":48,"Duration":78657,"SoundDuration":78657,"Delta":63658739},{"NoteNumber":68,"Velocity":46,"Duration":165727,"SoundDuration":165727,"Delta":63737396},{"NoteNumber":53,"Velocity":27,"Duration":124295,"SoundDuration":124295,"Delta":63737396},{"NoteNumber":68,"Velocity":40,"Duration":159117,"SoundDuration":159117,"Delta":64068851},{"NoteNumber":65,"Velocity":22,"Duration":119338,"SoundDuration":119338,"Delta":64068851},{"NoteNumber":60,"Velocity":18,"Duration":119338,"SoundDuration":119338,"Delta":64068851},{"NoteNumber":70,"Velocity":40,"Duration":159117,"SoundDuration":159117,"Delta":64227969},{"NoteNumber":68,"Velocity":45,"Duration":164744,"SoundDuration":164744,"Delta":64387086},{"NoteNumber":53,"Velocity":27,"Duration":123558,"SoundDuration":123558,"Delta":64387086},{"NoteNumber":67,"Velocity":43,"Duration":164744,"SoundDuration":164744,"Delta":64716576},{"NoteNumber":64,"Velocity":21,"Duration":123558,"SoundDuration":123558,"Delta":64716576},{"NoteNumber":60,"Velocity":18,"Duration":123558,"SoundDuration":123558,"Delta":64716576},{"NoteNumber":68,"Velocity":39,"Duration":82372,"SoundDuration":82372,"Delta":64881321},{"NoteNumber":70,"Velocity":39,"Duration":82372,"SoundDuration":82372,"Delta":64963693},{"NoteNumber":68,"Velocity":40,"Duration":500166,"SoundDuration":500166,"Delta":65046065},{"NoteNumber":72,"Velocity":45,"Duration":500166,"SoundDuration":500166,"Delta":65046065},{"NoteNumber":53,"Velocity":29,"Duration":125041,"SoundDuration":125041,"Delta":65046065},{"NoteNumber":65,"Velocity":22,"Duration":125041,"SoundDuration":125041,"Delta":65379510},{"NoteNumber":60,"Velocity":18,"Duration":125041,"SoundDuration":125041,"Delta":65379510},{"NoteNumber":68,"Velocity":39,"Duration":83361,"SoundDuration":83361,"Delta":65546232},{"NoteNumber":70,"Velocity":39,"Duration":83361,"SoundDuration":83361,"Delta":65629593},{"NoteNumber":68,"Velocity":40,"Duration":566648,"SoundDuration":566648,"Delta":65712954},{"NoteNumber":72,"Velocity":45,"Duration":566648,"SoundDuration":566648,"Delta":65712954},{"NoteNumber":53,"Velocity":29,"Duration":121424,"SoundDuration":121424,"Delta":65712954},{"NoteNumber":65,"Velocity":23,"Duration":121424,"SoundDuration":121424,"Delta":66036753},{"NoteNumber":60,"Velocity":19,"Duration":121424,"SoundDuration":121424,"Delta":66036753},{"NoteNumber":70,"Velocity":39,"Duration":80949,"SoundDuration":80949,"Delta":66279603},{"NoteNumber":68,"Velocity":46,"Duration":160034,"SoundDuration":160034,"Delta":66360552},{"NoteNumber":53,"Velocity":27,"Duration":120025,"SoundDuration":120025,"Delta":66360552},{"NoteNumber":68,"Velocity":42,"Duration":155553,"SoundDuration":155553,"Delta":66680621},{"NoteNumber":65,"Velocity":23,"Duration":116664,"SoundDuration":116664,"Delta":66680621},{"NoteNumber":60,"Velocity":19,"Duration":116664,"SoundDuration":116664,"Delta":66680621},{"NoteNumber":70,"Velocity":42,"Duration":155553,"SoundDuration":155553,"Delta":66836174},{"NoteNumber":68,"Velocity":45,"Duration":160961,"SoundDuration":160961,"Delta":66991727},{"NoteNumber":53,"Velocity":27,"Duration":120721,"SoundDuration":120721,"Delta":66991727},{"NoteNumber":67,"Velocity":37,"Duration":160961,"SoundDuration":160961,"Delta":67313651},{"NoteNumber":72,"Velocity":42,"Duration":160961,"SoundDuration":160961,"Delta":67313651},{"NoteNumber":64,"Velocity":23,"Duration":120721,"SoundDuration":120721,"Delta":67313651},{"NoteNumber":60,"Velocity":19,"Duration":120721,"SoundDuration":120721,"Delta":67313651},{"NoteNumber":72,"Velocity":39,"Duration":80480,"SoundDuration":80480,"Delta":67555093},{"NoteNumber":77,"Velocity":49,"Duration":563365,"SoundDuration":563365,"Delta":67635573},{"NoteNumber":68,"Velocity":44,"Duration":563365,"SoundDuration":563365,"Delta":67635573},{"NoteNumber":53,"Velocity":30,"Duration":120721,"SoundDuration":120721,"Delta":67635573},{"NoteNumber":65,"Velocity":24,"Duration":120721,"SoundDuration":120721,"Delta":67957496},{"NoteNumber":60,"Velocity":19,"Duration":120721,"SoundDuration":120721,"Delta":67957496},{"NoteNumber":72,"Velocity":39,"Duration":80480,"SoundDuration":80480,"Delta":68198939},{"NoteNumber":68,"Velocity":43,"Duration":643845,"SoundDuration":643845,"Delta":68279419},{"NoteNumber":77,"Velocity":48,"Duration":643845,"SoundDuration":643845,"Delta":68279419},{"NoteNumber":53,"Velocity":30,"Duration":120721,"SoundDuration":120721,"Delta":68279419},{"NoteNumber":65,"Velocity":24,"Duration":120721,"SoundDuration":120721,"Delta":68601342},{"NoteNumber":60,"Velocity":19,"Duration":120721,"SoundDuration":120721,"Delta":68601342},{"NoteNumber":78,"Velocity":34,"Duration":80480,"SoundDuration":80480,"Delta":68842785},{"NoteNumber":68,"Velocity":38,"Duration":335458,"SoundDuration":335458,"Delta":68923265},{"NoteNumber":77,"Velocity":43,"Duration":335458,"SoundDuration":335458,"Delta":68923265},{"NoteNumber":49,"Velocity":27,"Duration":335458,"SoundDuration":335458,"Delta":68923265},{"NoteNumber":68,"Velocity":33,"Duration":335458,"SoundDuration":335458,"Delta":69258723},{"NoteNumber":77,"Velocity":37,"Duration":167728,"SoundDuration":167728,"Delta":69258723},{"NoteNumber":65,"Velocity":21,"Duration":335458,"SoundDuration":335458,"Delta":69258723},{"NoteNumber":61,"Velocity":18,"Duration":335458,"SoundDuration":335458,"Delta":69258723},{"NoteNumber":78,"Velocity":37,"Duration":167729,"SoundDuration":167729,"Delta":69426452},{"NoteNumber":69,"Velocity":35,"Duration":343760,"SoundDuration":343760,"Delta":69594181},{"NoteNumber":77,"Velocity":39,"Duration":343760,"SoundDuration":343760,"Delta":69594181},{"NoteNumber":48,"Velocity":27,"Duration":343760,"SoundDuration":343760,"Delta":69594181},{"NoteNumber":69,"Velocity":33,"Duration":343760,"SoundDuration":343760,"Delta":69937942},{"NoteNumber":77,"Velocity":37,"Duration":343760,"SoundDuration":343760,"Delta":69937942},{"NoteNumber":65,"Velocity":21,"Duration":343760,"SoundDuration":343760,"Delta":69937942},{"NoteNumber":63,"Velocity":18,"Duration":343760,"SoundDuration":343760,"Delta":69937942},{"NoteNumber":60,"Velocity":18,"Duration":343760,"SoundDuration":343760,"Delta":69937942},{"NoteNumber":70,"Velocity":35,"Duration":589800,"SoundDuration":589800,"Delta":70281703},{"NoteNumber":77,"Velocity":39,"Duration":368821,"SoundDuration":368821,"Delta":70281703},{"NoteNumber":46,"Velocity":27,"Duration":368821,"SoundDuration":368821,"Delta":70281703},{"NoteNumber":82,"Velocity":34,"Duration":220978,"SoundDuration":220978,"Delta":70650524},{"NoteNumber":65,"Velocity":19,"Duration":441956,"SoundDuration":441956,"Delta":70650524},{"NoteNumber":61,"Velocity":16,"Duration":441956,"SoundDuration":441956,"Delta":70650524},{"NoteNumber":58,"Velocity":16,"Duration":441956,"SoundDuration":441956,"Delta":70650524},{"NoteNumber":68,"Velocity":29,"Duration":807102,"SoundDuration":807102,"Delta":71092481},{"NoteNumber":77,"Velocity":33,"Duration":807102,"SoundDuration":807102,"Delta":71092481},{"NoteNumber":53,"Velocity":25,"Duration":403551,"SoundDuration":403551,"Delta":71092481},{"NoteNumber":65,"Velocity":19,"Duration":403551,"SoundDuration":403551,"Delta":71496033},{"NoteNumber":60,"Velocity":16,"Duration":403551,"SoundDuration":403551,"Delta":71496033},{"NoteNumber":68,"Velocity":29,"Duration":186757,"SoundDuration":186757,"Delta":71899584},{"NoteNumber":72,"Velocity":33,"Duration":186757,"SoundDuration":186757,"Delta":71899584},{"NoteNumber":48,"Velocity":25,"Duration":169779,"SoundDuration":169779,"Delta":71899584},{"NoteNumber":67,"Velocity":27,"Duration":186757,"SoundDuration":186757,"Delta":72069363},{"NoteNumber":70,"Velocity":31,"Duration":186757,"SoundDuration":186757,"Delta":72069363},{"NoteNumber":65,"Velocity":27,"Duration":169779,"SoundDuration":169779,"Delta":72239142},{"NoteNumber":68,"Velocity":31,"Duration":186757,"SoundDuration":186757,"Delta":72239142},{"NoteNumber":65,"Velocity":21,"Duration":186757,"SoundDuration":186757,"Delta":72239142},{"NoteNumber":60,"Velocity":18,"Duration":169779,"SoundDuration":169779,"Delta":72239142},{"NoteNumber":67,"Velocity":27,"Duration":169779,"SoundDuration":169779,"Delta":72408922},{"NoteNumber":70,"Velocity":31,"Duration":169779,"SoundDuration":169779,"Delta":72408922},{"NoteNumber":68,"Velocity":29,"Duration":314630,"SoundDuration":314630,"Delta":72578701},{"NoteNumber":72,"Velocity":33,"Duration":157315,"SoundDuration":157315,"Delta":72578701},{"NoteNumber":48,"Velocity":24,"Duration":157315,"SoundDuration":157315,"Delta":72578701},{"NoteNumber":73,"Velocity":31,"Duration":157315,"SoundDuration":157315,"Delta":72736016},{"NoteNumber":70,"Velocity":27,"Duration":316123,"SoundDuration":316123,"Delta":72893332},{"NoteNumber":67,"Velocity":27,"Duration":316123,"SoundDuration":316123,"Delta":72893332},{"NoteNumber":72,"Velocity":31,"Duration":157912,"SoundDuration":157912,"Delta":72893332},{"NoteNumber":64,"Velocity":19,"Duration":157912,"SoundDuration":157912,"Delta":72893332},{"NoteNumber":60,"Velocity":16,"Duration":157912,"SoundDuration":157912,"Delta":72893332},{"NoteNumber":76,"Velocity":31,"Duration":158211,"SoundDuration":158211,"Delta":73051244},{"NoteNumber":77,"Velocity":34,"Duration":651324,"SoundDuration":651324,"Delta":73209455},{"NoteNumber":72,"Velocity":30,"Duration":651324,"SoundDuration":651324,"Delta":73209455},{"NoteNumber":68,"Velocity":30,"Duration":651324,"SoundDuration":651324,"Delta":73209455},{"NoteNumber":53,"Velocity":27,"Duration":162830,"SoundDuration":162830,"Delta":73209455},{"NoteNumber":65,"Velocity":21,"Duration":162831,"SoundDuration":162831,"Delta":73535117},{"NoteNumber":60,"Velocity":18,"Duration":162831,"SoundDuration":162831,"Delta":73535117},{"NoteNumber":68,"Velocity":30,"Duration":562682,"SoundDuration":562682,"Delta":73860779},{"NoteNumber":72,"Velocity":30,"Duration":562682,"SoundDuration":562682,"Delta":73860779},{"NoteNumber":77,"Velocity":34,"Duration":562682,"SoundDuration":562682,"Delta":73860779},{"NoteNumber":53,"Velocity":24,"Duration":169779,"SoundDuration":169779,"Delta":73860779},{"NoteNumber":65,"Velocity":22,"Duration":169779,"SoundDuration":169779,"Delta":74200338},{"NoteNumber":60,"Velocity":18,"Duration":169779,"SoundDuration":169779,"Delta":74200338},{"NoteNumber":80,"Velocity":34,"Duration":80017,"SoundDuration":80017,"Delta":74450134},{"NoteNumber":76,"Velocity":35,"Duration":320068,"SoundDuration":320068,"Delta":74530151},{"NoteNumber":79,"Velocity":39,"Duration":320068,"SoundDuration":320068,"Delta":74530151},{"NoteNumber":46,"Velocity":24,"Duration":160034,"SoundDuration":160034,"Delta":74530151},{"NoteNumber":76,"Velocity":33,"Duration":640136,"SoundDuration":640136,"Delta":74850220},{"NoteNumber":79,"Velocity":37,"Duration":160034,"SoundDuration":160034,"Delta":74850220},{"NoteNumber":61,"Velocity":21,"Duration":160034,"SoundDuration":160034,"Delta":74850220},{"NoteNumber":58,"Velocity":18,"Duration":160034,"SoundDuration":160034,"Delta":74850220},{"NoteNumber":80,"Velocity":37,"Duration":160034,"SoundDuration":160034,"Delta":75010254},{"NoteNumber":79,"Velocity":39,"Duration":320068,"SoundDuration":320068,"Delta":75170288},{"NoteNumber":46,"Velocity":24,"Duration":160034,"SoundDuration":160034,"Delta":75170288},{"NoteNumber":79,"Velocity":40,"Duration":320068,"SoundDuration":320068,"Delta":75490357},{"NoteNumber":76,"Velocity":36,"Duration":320068,"SoundDuration":320068,"Delta":75490357},{"NoteNumber":61,"Velocity":25,"Duration":160034,"SoundDuration":160034,"Delta":75490357},{"NoteNumber":58,"Velocity":20,"Duration":160034,"SoundDuration":160034,"Delta":75490357},{"NoteNumber":77,"Velocity":40,"Duration":1033852,"SoundDuration":1033852,"Delta":75810425},{"NoteNumber":82,"Velocity":45,"Duration":354735,"SoundDuration":354735,"Delta":75810425},{"NoteNumber":47,"Velocity":29,"Duration":354735,"SoundDuration":354735,"Delta":75810425},{"NoteNumber":80,"Velocity":43,"Duration":679117,"SoundDuration":679117,"Delta":76165161},{"NoteNumber":62,"Velocity":27,"Duration":339558,"SoundDuration":339558,"Delta":76165161},{"NoteNumber":59,"Velocity":23,"Duration":339558,"SoundDuration":339558,"Delta":76165161},{"NoteNumber":47,"Velocity":24,"Duration":339558,"SoundDuration":339558,"Delta":76504719},{"NoteNumber":79,"Velocity":39,"Duration":160961,"SoundDuration":160961,"Delta":76844278},{"NoteNumber":62,"Velocity":24,"Duration":160961,"SoundDuration":160961,"Delta":76844278},{"NoteNumber":59,"Velocity":19,"Duration":160961,"SoundDuration":160961,"Delta":76844278},{"NoteNumber":77,"Velocity":39,"Duration":80480,"SoundDuration":80480,"Delta":77005239},{"NoteNumber":73,"Velocity":34,"Duration":80480,"SoundDuration":80480,"Delta":77085720},{"NoteNumber":68,"Velocity":38,"Duration":160961,"SoundDuration":160961,"Delta":77166201},{"NoteNumber":72,"Velocity":43,"Duration":160961,"SoundDuration":160961,"Delta":77166201},{"NoteNumber":48,"Velocity":27,"Duration":160961,"SoundDuration":160961,"Delta":77166201},{"NoteNumber":68,"Velocity":35,"Duration":661481,"SoundDuration":661481,"Delta":77488124},{"NoteNumber":72,"Velocity":39,"Duration":160961,"SoundDuration":160961,"Delta":77488124},{"NoteNumber":65,"Velocity":24,"Duration":160961,"SoundDuration":160961,"Delta":77488124},{"NoteNumber":60,"Velocity":19,"Duration":160961,"SoundDuration":160961,"Delta":77488124},{"NoteNumber":73,"Velocity":39,"Duration":160961,"SoundDuration":160961,"Delta":77649085},{"NoteNumber":72,"Velocity":39,"Duration":339558,"SoundDuration":339558,"Delta":77810047},{"NoteNumber":48,"Velocity":27,"Duration":169779,"SoundDuration":169779,"Delta":77810047},{"NoteNumber":67,"Velocity":32,"Duration":160961,"SoundDuration":160961,"Delta":78149605},{"NoteNumber":70,"Velocity":32,"Duration":160961,"SoundDuration":160961,"Delta":78149605},{"NoteNumber":72,"Velocity":32,"Duration":160961,"SoundDuration":160961,"Delta":78149605},{"NoteNumber":76,"Velocity":36,"Duration":160961,"SoundDuration":160961,"Delta":78149605},{"NoteNumber":64,"Velocity":24,"Duration":160961,"SoundDuration":160961,"Delta":78149605},{"NoteNumber":60,"Velocity":19,"Duration":160961,"SoundDuration":160961,"Delta":78149605},{"NoteNumber":68,"Velocity":37,"Duration":662909,"SoundDuration":662909,"Delta":78471528},{"NoteNumber":72,"Velocity":37,"Duration":662909,"SoundDuration":662909,"Delta":78471528},{"NoteNumber":77,"Velocity":42,"Duration":662909,"SoundDuration":662909,"Delta":78471528},{"NoteNumber":53,"Velocity":27,"Duration":331455,"SoundDuration":331455,"Delta":78471528},{"NoteNumber":65,"Velocity":23,"Duration":331454,"SoundDuration":331454,"Delta":78802983},{"NoteNumber":60,"Velocity":19,"Duration":331454,"SoundDuration":331454,"Delta":78802983},{"NoteNumber":68,"Velocity":37,"Duration":616848,"SoundDuration":616848,"Delta":79134438},{"NoteNumber":72,"Velocity":37,"Duration":616848,"SoundDuration":616848,"Delta":79134438},{"NoteNumber":77,"Velocity":42,"Duration":616848,"SoundDuration":616848,"Delta":79134438},{"NoteNumber":53,"Velocity":27,"Duration":352485,"SoundDuration":352485,"Delta":79134438},{"NoteNumber":65,"Velocity":24,"Duration":352485,"SoundDuration":352485,"Delta":79486923},{"NoteNumber":60,"Velocity":19,"Duration":352485,"SoundDuration":352485,"Delta":79486923},{"NoteNumber":80,"Velocity":30,"Duration":88121,"SoundDuration":88121,"Delta":79751287},{"NoteNumber":76,"Velocity":30,"Duration":373738,"SoundDuration":373738,"Delta":79839408},{"NoteNumber":79,"Velocity":34,"Duration":373738,"SoundDuration":373738,"Delta":79839408},{"NoteNumber":46,"Velocity":21,"Duration":140151,"SoundDuration":140151,"Delta":79839408},{"NoteNumber":76,"Velocity":28,"Duration":747477,"SoundDuration":747477,"Delta":80213147},{"NoteNumber":79,"Velocity":32,"Duration":186869,"SoundDuration":186869,"Delta":80213147},{"NoteNumber":61,"Velocity":18,"Duration":140151,"SoundDuration":140151,"Delta":80213147},{"NoteNumber":58,"Velocity":15,"Duration":140151,"SoundDuration":140151,"Delta":80213147},{"NoteNumber":80,"Velocity":32,"Duration":186869,"SoundDuration":186869,"Delta":80400016},{"NoteNumber":79,"Velocity":34,"Duration":373738,"SoundDuration":373738,"Delta":80586885},{"NoteNumber":46,"Velocity":21,"Duration":140151,"SoundDuration":140151,"Delta":80586885},{"NoteNumber":79,"Velocity":36,"Duration":373738,"SoundDuration":373738,"Delta":80960624},{"NoteNumber":76,"Velocity":32,"Duration":373738,"SoundDuration":373738,"Delta":80960624},{"NoteNumber":61,"Velocity":22,"Duration":140151,"SoundDuration":140151,"Delta":80960624},{"NoteNumber":58,"Velocity":18,"Duration":140151,"SoundDuration":140151,"Delta":80960624},{"NoteNumber":77,"Velocity":34,"Duration":1334304,"SoundDuration":1334304,"Delta":81334362},{"NoteNumber":82,"Velocity":38,"Duration":464108,"SoundDuration":464108,"Delta":81334362},{"NoteNumber":47,"Velocity":27,"Duration":464108,"SoundDuration":464108,"Delta":81334362},{"NoteNumber":80,"Velocity":36,"Duration":870195,"SoundDuration":870195,"Delta":81798471},{"NoteNumber":62,"Velocity":24,"Duration":435097,"SoundDuration":435097,"Delta":81798471},{"NoteNumber":59,"Velocity":19,"Duration":435097,"SoundDuration":435097,"Delta":81798471},{"NoteNumber":47,"Velocity":21,"Duration":435097,"SoundDuration":435097,"Delta":82233569},{"NoteNumber":79,"Velocity":34,"Duration":197472,"SoundDuration":197472,"Delta":82668667},{"NoteNumber":62,"Velocity":21,"Duration":197472,"SoundDuration":197472,"Delta":82668667},{"NoteNumber":59,"Velocity":18,"Duration":197472,"SoundDuration":197472,"Delta":82668667},{"NoteNumber":77,"Velocity":34,"Duration":98736,"SoundDuration":98736,"Delta":82866140},{"NoteNumber":74,"Velocity":31,"Duration":98736,"SoundDuration":98736,"Delta":82964876},{"NoteNumber":69,"Velocity":34,"Duration":209380,"SoundDuration":209380,"Delta":83063612},{"NoteNumber":72,"Velocity":38,"Duration":209380,"SoundDuration":209380,"Delta":83063612},{"NoteNumber":48,"Velocity":24,"Duration":209380,"SoundDuration":209380,"Delta":83063612},{"NoteNumber":69,"Velocity":30,"Duration":752508,"SoundDuration":752508,"Delta":83482372},{"NoteNumber":72,"Velocity":34,"Duration":198886,"SoundDuration":198886,"Delta":83482372},{"NoteNumber":65,"Velocity":21,"Duration":198886,"SoundDuration":198886,"Delta":83482372},{"NoteNumber":60,"Velocity":18,"Duration":198886,"SoundDuration":198886,"Delta":83482372},{"NoteNumber":74,"Velocity":34,"Duration":198886,"SoundDuration":198886,"Delta":83681259},{"NoteNumber":72,"Velocity":34,"Duration":354735,"SoundDuration":354735,"Delta":83880145},{"NoteNumber":48,"Velocity":24,"Duration":177367,"SoundDuration":177367,"Delta":83880145},{"NoteNumber":70,"Velocity":30,"Duration":247117,"SoundDuration":247117,"Delta":84234880},{"NoteNumber":74,"Velocity":34,"Duration":247117,"SoundDuration":247117,"Delta":84234880},{"NoteNumber":64,"Velocity":21,"Duration":164744,"SoundDuration":164744,"Delta":84234880},{"NoteNumber":60,"Velocity":18,"Duration":164744,"SoundDuration":164744,"Delta":84234880},{"NoteNumber":74,"Velocity":31,"Duration":82372,"SoundDuration":82372,"Delta":84481997},{"NoteNumber":69,"Velocity":34,"Duration":167728,"SoundDuration":167728,"Delta":84564370},{"NoteNumber":72,"Velocity":38,"Duration":167728,"SoundDuration":167728,"Delta":84564370},{"NoteNumber":48,"Velocity":24,"Duration":167728,"SoundDuration":167728,"Delta":84564370},{"NoteNumber":69,"Velocity":30,"Duration":655367,"SoundDuration":655367,"Delta":84899828},{"NoteNumber":72,"Velocity":34,"Duration":160961,"SoundDuration":160961,"Delta":84899828},{"NoteNumber":65,"Velocity":21,"Duration":160961,"SoundDuration":160961,"Delta":84899828},{"NoteNumber":60,"Velocity":18,"Duration":160961,"SoundDuration":160961,"Delta":84899828},{"NoteNumber":74,"Velocity":34,"Duration":160961,"SoundDuration":160961,"Delta":85060789},{"NoteNumber":72,"Velocity":34,"Duration":333444,"SoundDuration":333444,"Delta":85221751},{"NoteNumber":48,"Velocity":24,"Duration":166722,"SoundDuration":166722,"Delta":85221751},{"NoteNumber":70,"Velocity":30,"Duration":241442,"SoundDuration":241442,"Delta":85555195},{"NoteNumber":74,"Velocity":34,"Duration":241442,"SoundDuration":241442,"Delta":85555195},{"NoteNumber":64,"Velocity":21,"Duration":160961,"SoundDuration":160961,"Delta":85555195},{"NoteNumber":60,"Velocity":18,"Duration":160961,"SoundDuration":160961,"Delta":85555195},{"NoteNumber":74,"Velocity":31,"Duration":80480,"SoundDuration":80480,"Delta":85796638},{"NoteNumber":69,"Velocity":34,"Duration":160961,"SoundDuration":160961,"Delta":85877118},{"NoteNumber":72,"Velocity":38,"Duration":160961,"SoundDuration":160961,"Delta":85877118},{"NoteNumber":48,"Velocity":24,"Duration":160961,"SoundDuration":160961,"Delta":85877118},{"NoteNumber":69,"Velocity":30,"Duration":615521,"SoundDuration":615521,"Delta":86199041},{"NoteNumber":72,"Velocity":34,"Duration":151331,"SoundDuration":151331,"Delta":86199041},{"NoteNumber":65,"Velocity":21,"Duration":151331,"SoundDuration":151331,"Delta":86199041},{"NoteNumber":60,"Velocity":18,"Duration":151331,"SoundDuration":151331,"Delta":86199041},{"NoteNumber":74,"Velocity":34,"Duration":151331,"SoundDuration":151331,"Delta":86350373},{"NoteNumber":72,"Velocity":34,"Duration":312858,"SoundDuration":312858,"Delta":86501705},{"NoteNumber":48,"Velocity":24,"Duration":156429,"SoundDuration":156429,"Delta":86501705},{"NoteNumber":70,"Velocity":34,"Duration":312858,"SoundDuration":312858,"Delta":86814563},{"NoteNumber":76,"Velocity":38,"Duration":312858,"SoundDuration":312858,"Delta":86814563},{"NoteNumber":67,"Velocity":21,"Duration":156429,"SoundDuration":156429,"Delta":86814563},{"NoteNumber":60,"Velocity":18,"Duration":156429,"SoundDuration":156429,"Delta":86814563},{"NoteNumber":69,"Velocity":37,"Duration":625717,"SoundDuration":625717,"Delta":87127422},{"NoteNumber":77,"Velocity":42,"Duration":625717,"SoundDuration":625717,"Delta":87127422},{"NoteNumber":41,"Velocity":27,"Duration":312858,"SoundDuration":312858,"Delta":87127422},{"NoteNumber":53,"Velocity":21,"Duration":312858,"SoundDuration":312858,"Delta":87440280},{"NoteNumber":48,"Velocity":18,"Duration":312858,"SoundDuration":312858,"Delta":87440280},{"NoteNumber":69,"Velocity":37,"Duration":547502,"SoundDuration":547502,"Delta":87753139},{"NoteNumber":77,"Velocity":42,"Duration":547502,"SoundDuration":547502,"Delta":87753139},{"NoteNumber":41,"Velocity":27,"Duration":312858,"SoundDuration":312858,"Delta":87753139},{"NoteNumber":53,"Velocity":22,"Duration":312858,"SoundDuration":312858,"Delta":88065997},{"NoteNumber":48,"Velocity":18,"Duration":312858,"SoundDuration":312858,"Delta":88065997},{"NoteNumber":74,"Velocity":38,"Duration":78214,"SoundDuration":78214,"Delta":88300641},{"NoteNumber":69,"Velocity":37,"Duration":310681,"SoundDuration":310681,"Delta":88378856},{"NoteNumber":72,"Velocity":42,"Duration":310681,"SoundDuration":310681,"Delta":88378856},{"NoteNumber":41,"Velocity":27,"Duration":154901,"SoundDuration":154901,"Delta":88378856},{"NoteNumber":69,"Velocity":35,"Duration":606770,"SoundDuration":606770,"Delta":88689537},{"NoteNumber":72,"Velocity":39,"Duration":150104,"SoundDuration":150104,"Delta":88689537},{"NoteNumber":53,"Velocity":22,"Duration":150104,"SoundDuration":150104,"Delta":88689537},{"NoteNumber":48,"Velocity":18,"Duration":150104,"SoundDuration":150104,"Delta":88689537},{"NoteNumber":74,"Velocity":39,"Duration":150105,"SoundDuration":150105,"Delta":88839642},{"NoteNumber":72,"Velocity":42,"Duration":306560,"SoundDuration":306560,"Delta":88989747},{"NoteNumber":41,"Velocity":27,"Duration":153280,"SoundDuration":153280,"Delta":88989747},{"NoteNumber":65,"Velocity":32,"Duration":313250,"SoundDuration":313250,"Delta":89296307},{"NoteNumber":69,"Velocity":36,"Duration":313250,"SoundDuration":313250,"Delta":89296307},{"NoteNumber":53,"Velocity":23,"Duration":156625,"SoundDuration":156625,"Delta":89296307},{"NoteNumber":48,"Velocity":19,"Duration":156625,"SoundDuration":156625,"Delta":89296307},{"NoteNumber":64,"Velocity":35,"Duration":647667,"SoundDuration":647667,"Delta":89609558},{"NoteNumber":70,"Velocity":39,"Duration":647667,"SoundDuration":647667,"Delta":89609558},{"NoteNumber":41,"Velocity":27,"Duration":323834,"SoundDuration":323834,"Delta":89609558},{"NoteNumber":55,"Velocity":23,"Duration":323833,"SoundDuration":323833,"Delta":89933392},{"NoteNumber":48,"Velocity":19,"Duration":323833,"SoundDuration":323833,"Delta":89933392},{"NoteNumber":64,"Velocity":35,"Duration":566709,"SoundDuration":566709,"Delta":90257226},{"NoteNumber":70,"Velocity":39,"Duration":566709,"SoundDuration":566709,"Delta":90257226},{"NoteNumber":41,"Velocity":27,"Duration":323834,"SoundDuration":323834,"Delta":90257226},{"NoteNumber":55,"Velocity":23,"Duration":323834,"SoundDuration":323834,"Delta":90581060},{"NoteNumber":48,"Velocity":19,"Duration":323834,"SoundDuration":323834,"Delta":90581060},{"NoteNumber":72,"Velocity":37,"Duration":80958,"SoundDuration":80958,"Delta":90823935},{"NoteNumber":64,"Velocity":37,"Duration":321922,"SoundDuration":321922,"Delta":90904894},{"NoteNumber":70,"Velocity":42,"Duration":321922,"SoundDuration":321922,"Delta":90904894},{"NoteNumber":41,"Velocity":27,"Duration":160961,"SoundDuration":160961,"Delta":90904894},{"NoteNumber":70,"Velocity":38,"Duration":151331,"SoundDuration":151331,"Delta":91226817},{"NoteNumber":64,"Velocity":34,"Duration":615913,"SoundDuration":615913,"Delta":91226817},{"NoteNumber":55,"Velocity":22,"Duration":151331,"SoundDuration":151331,"Delta":91226817},{"NoteNumber":48,"Velocity":18,"Duration":151331,"SoundDuration":151331,"Delta":91226817},{"NoteNumber":72,"Velocity":39,"Duration":151331,"SoundDuration":151331,"Delta":91378149},{"NoteNumber":70,"Velocity":42,"Duration":313250,"SoundDuration":313250,"Delta":91529480},{"NoteNumber":41,"Velocity":27,"Duration":156625,"SoundDuration":156625,"Delta":91529480},{"NoteNumber":58,"Velocity":33,"Duration":349365,"SoundDuration":349365,"Delta":91842731},{"NoteNumber":64,"Velocity":37,"Duration":349365,"SoundDuration":349365,"Delta":91842731},{"NoteNumber":55,"Velocity":22,"Duration":174682,"SoundDuration":174682,"Delta":91842731},{"NoteNumber":48,"Velocity":18,"Duration":174682,"SoundDuration":174682,"Delta":91842731},{"NoteNumber":57,"Velocity":27,"Duration":640183,"SoundDuration":640183,"Delta":92192096},{"NoteNumber":65,"Velocity":31,"Duration":640183,"SoundDuration":640183,"Delta":92192096},{"NoteNumber":41,"Velocity":21,"Duration":320115,"SoundDuration":320115,"Delta":92192096},{"NoteNumber":53,"Velocity":17,"Duration":320068,"SoundDuration":320068,"Delta":92512211},{"NoteNumber":48,"Velocity":14,"Duration":320068,"SoundDuration":320068,"Delta":92512211},{"NoteNumber":57,"Velocity":27,"Duration":560119,"SoundDuration":560119,"Delta":92832280},{"NoteNumber":65,"Velocity":31,"Duration":560119,"SoundDuration":560119,"Delta":92832280},{"NoteNumber":41,"Velocity":21,"Duration":320068,"SoundDuration":320068,"Delta":92832280},{"NoteNumber":53,"Velocity":17,"Duration":320068,"SoundDuration":320068,"Delta":93152348},{"NoteNumber":48,"Velocity":14,"Duration":320068,"SoundDuration":320068,"Delta":93152348},{"NoteNumber":74,"Velocity":30,"Duration":80017,"SoundDuration":80017,"Delta":93392400},{"NoteNumber":69,"Velocity":29,"Duration":345900,"SoundDuration":345900,"Delta":93472417},{"NoteNumber":72,"Velocity":33,"Duration":345900,"SoundDuration":345900,"Delta":93472417},{"NoteNumber":41,"Velocity":21,"Duration":345900,"SoundDuration":345900,"Delta":93472417},{"NoteNumber":69,"Velocity":27,"Duration":683940,"SoundDuration":683940,"Delta":93818318},{"NoteNumber":72,"Velocity":31,"Duration":165727,"SoundDuration":165727,"Delta":93818318},{"NoteNumber":53,"Velocity":17,"Duration":331455,"SoundDuration":331455,"Delta":93818318},{"NoteNumber":48,"Velocity":14,"Duration":331455,"SoundDuration":331455,"Delta":93818318},{"NoteNumber":74,"Velocity":31,"Duration":165727,"SoundDuration":165727,"Delta":93984045},{"NoteNumber":72,"Velocity":33,"Duration":352485,"SoundDuration":352485,"Delta":94149773},{"NoteNumber":41,"Velocity":21,"Duration":176242,"SoundDuration":176242,"Delta":94149773},{"NoteNumber":63,"Velocity":25,"Duration":384073,"SoundDuration":384073,"Delta":94502258},{"NoteNumber":69,"Velocity":28,"Duration":384073,"SoundDuration":384073,"Delta":94502258},{"NoteNumber":54,"Velocity":18,"Duration":192036,"SoundDuration":192036,"Delta":94502258},{"NoteNumber":48,"Velocity":15,"Duration":192036,"SoundDuration":192036,"Delta":94502258},{"NoteNumber":64,"Velocity":27,"Duration":687521,"SoundDuration":687521,"Delta":94886331},{"NoteNumber":70,"Velocity":31,"Duration":687521,"SoundDuration":687521,"Delta":94886331},{"NoteNumber":41,"Velocity":21,"Duration":343760,"SoundDuration":343760,"Delta":94886331},{"NoteNumber":55,"Velocity":18,"Duration":343760,"SoundDuration":343760,"Delta":95230092},{"NoteNumber":48,"Velocity":15,"Duration":343760,"SoundDuration":343760,"Delta":95230092},{"NoteNumber":64,"Velocity":27,"Duration":601580,"SoundDuration":601580,"Delta":95573852},{"NoteNumber":70,"Velocity":31,"Duration":601580,"SoundDuration":601580,"Delta":95573852},{"NoteNumber":41,"Velocity":21,"Duration":343760,"SoundDuration":343760,"Delta":95573852},{"NoteNumber":55,"Velocity":18,"Duration":343760,"SoundDuration":343760,"Delta":95917613},{"NoteNumber":48,"Velocity":15,"Duration":343760,"SoundDuration":343760,"Delta":95917613},{"NoteNumber":72,"Velocity":28,"Duration":85940,"SoundDuration":85940,"Delta":96175433},{"NoteNumber":64,"Velocity":29,"Duration":357015,"SoundDuration":357015,"Delta":96261373},{"NoteNumber":70,"Velocity":33,"Duration":357015,"SoundDuration":357015,"Delta":96261373},{"NoteNumber":41,"Velocity":21,"Duration":357015,"SoundDuration":357015,"Delta":96261373},{"NoteNumber":70,"Velocity":30,"Duration":169779,"SoundDuration":169779,"Delta":96618389},{"NoteNumber":64,"Velocity":27,"Duration":720995,"SoundDuration":720995,"Delta":96618389},{"NoteNumber":55,"Velocity":17,"Duration":339558,"SoundDuration":339558,"Delta":96618389},{"NoteNumber":48,"Velocity":14,"Duration":339558,"SoundDuration":339558,"Delta":96618389},{"NoteNumber":72,"Velocity":31,"Duration":169779,"SoundDuration":169779,"Delta":96788168},{"NoteNumber":70,"Velocity":33,"Duration":381436,"SoundDuration":381436,"Delta":96957947},{"NoteNumber":41,"Velocity":21,"Duration":381436,"SoundDuration":381436,"Delta":96957947},{"NoteNumber":58,"Velocity":23,"Duration":415627,"SoundDuration":415627,"Delta":97339384},{"NoteNumber":64,"Velocity":26,"Duration":415627,"SoundDuration":415627,"Delta":97339384},{"NoteNumber":55,"Velocity":17,"Duration":415627,"SoundDuration":415627,"Delta":97339384},{"NoteNumber":49,"Velocity":14,"Duration":415627,"SoundDuration":415627,"Delta":97339384},{"NoteNumber":57,"Velocity":21,"Duration":762872,"SoundDuration":762872,"Delta":97755011},{"NoteNumber":65,"Velocity":24,"Duration":762872,"SoundDuration":762872,"Delta":97755011},{"NoteNumber":41,"Velocity":18,"Duration":381436,"SoundDuration":381436,"Delta":97755011},{"NoteNumber":53,"Velocity":13,"Duration":381436,"SoundDuration":381436,"Delta":98136448},{"NoteNumber":48,"Velocity":10,"Duration":381436,"SoundDuration":381436,"Delta":98136448},{"NoteNumber":57,"Velocity":18,"Duration":762872,"SoundDuration":762872,"Delta":98517884},{"NoteNumber":65,"Velocity":21,"Duration":762872,"SoundDuration":762872,"Delta":98517884},{"NoteNumber":41,"Velocity":16,"Duration":381436,"SoundDuration":381436,"Delta":98517884},{"NoteNumber":53,"Velocity":13,"Duration":381436,"SoundDuration":381436,"Delta":98899321},{"NoteNumber":48,"Velocity":10,"Duration":381436,"SoundDuration":381436,"Delta":98899321},{"NoteNumber":57,"Velocity":18,"Duration":778917,"SoundDuration":778917,"Delta":99280757},{"NoteNumber":65,"Velocity":21,"Duration":778917,"SoundDuration":778917,"Delta":99280757},{"NoteNumber":41,"Velocity":14,"Duration":389458,"SoundDuration":389458,"Delta":99280757},{"NoteNumber":53,"Velocity":10,"Duration":389458,"SoundDuration":389458,"Delta":99670216},{"NoteNumber":48,"Velocity":9,"Duration":389458,"SoundDuration":389458,"Delta":99670216},{"NoteNumber":57,"Velocity":17,"Duration":914852,"SoundDuration":914852,"Delta":100059674},{"NoteNumber":65,"Velocity":19,"Duration":914852,"SoundDuration":914852,"Delta":100059674},{"NoteNumber":41,"Velocity":13,"Duration":389458,"SoundDuration":389458,"Delta":100059674},{"NoteNumber":53,"Velocity":10,"Duration":525394,"SoundDuration":525394,"Delta":100449133},{"NoteNumber":48,"Velocity":9,"Duration":525394,"SoundDuration":525394,"Delta":100449133},{"NoteNumber":57,"Velocity":16,"Duration":2224565,"SoundDuration":2224565,"Delta":100974527},{"NoteNumber":65,"Velocity":18,"Duration":2224565,"SoundDuration":2224565,"Delta":100974527},{"NoteNumber":53,"Velocity":10,"Duration":2224565,"SoundDuration":2224565,"Delta":100974527},{"NoteNumber":48,"Velocity":9,"Duration":2224565,"SoundDuration":2224565,"Delta":100974527},{"NoteNumber":41,"Velocity":9,"Duration":2224565,"SoundDuration":2224565,"Delta":100974527}],"license":{"name":"Creative Commons Attribution-ShareAlike 3.0 Germany","url":"http://creativecommons.org/licenses/by-sa/3.0/de/deed.en","text":"The MIDI files in this folder were downloaded from http://www.piano-midi.de and are licensed under the Creative Commons Attribution-ShareAlike 3.0 Germany license by Bernd Krueger.\n\nThe MIDI, audio(MP3, OGG) and video files of Bernd Krueger are licensed under the cc-by-sa Germany License . This means, that you can use and adapt the files, as long as you attribute to the copyright holder Name: Bernd Krueger Source: http://www.piano-midi.de The distribution or public playback of the files is only allowed under identical license conditions . The scores are open source.","attribution":"Bernd Krueger","attributionUrl":"http://www.piano-midi.de"}}