{"title":"Moments musicaux, No. 4 in C-sharp minor, Op. 94, D 780","artist":"Schubert","durationMs":305583,"midiSha256":"5a0bc605fea5a54c3fcbbef820319ebae77c4376dd3133b0bf35968e35152017","midiObject":[{"NoteNumber":68,"Velocity":60,"Duration":295799,"SoundDuration":295799,"Delta":0},{"NoteNumber":64,"Velocity":66,"Duration":147899,"SoundDuration":147899,"Delta":295800},{"NoteNumber":49,"Velocity":54,"Duration":147899,"SoundDuration":147899,"Delta":295800},{"NoteNumber":61,"Velocity":60,"Duration":145304,"SoundDuration":145304,"Delta":443700},{"NoteNumber":64,"Velocity":60,"Duration":146028,"SoundDuration":146028,"Delta":589004},{"NoteNumber":56,"Velocity":50,"Duration":146028,"SoundDuration":146028,"Delta":589004},{"NoteNumber":68,"Velocity":60,"Duration":146773,"SoundDuration":146773,"Delta":735033},{"NoteNumber":64,"Velocity":64,"Duration":147534,"SoundDuration":147534,"Delta":881806},{"NoteNumber":49,"Velocity":54,"Duration":147534,"SoundDuration":147534,"Delta":881806},{"NoteNumber":61,"Velocity":60,"Duration":144848,"SoundDuration":144848,"Delta":1029340},{"NoteNumber":64,"Velocity":60,"Duration":145185,"SoundDuration":145185,"Delta":1174189},{"NoteNumber":57,"Velocity":50,"Duration":145185,"SoundDuration":145185,"Delta":1174189},{"NoteNumber":69,"Velocity":60,"Duration":146121,"SoundDuration":146121,"Delta":1319374},{"NoteNumber":63,"Velocity":63,"Duration":146939,"SoundDuration":146939,"Delta":1465495},{"NoteNumber":48,"Velocity":54,"Duration":146939,"SoundDuration":146939,"Delta":1465495},{"NoteNumber":60,"Velocity":60,"Duration":145304,"SoundDuration":145304,"Delta":1612435},{"NoteNumber":63,"Velocity":60,"Duration":146028,"SoundDuration":146028,"Delta":1757739},{"NoteNumber":57,"Velocity":51,"Duration":146028,"SoundDuration":146028,"Delta":1757739},{"NoteNumber":69,"Velocity":60,"Duration":146752,"SoundDuration":146752,"Delta":1903768},{"NoteNumber":63,"Velocity":63,"Duration":147507,"SoundDuration":147507,"Delta":2050520},{"NoteNumber":48,"Velocity":54,"Duration":147507,"SoundDuration":147507,"Delta":2050520},{"NoteNumber":60,"Velocity":60,"Duration":145067,"SoundDuration":145067,"Delta":2198027},{"NoteNumber":63,"Velocity":60,"Duration":145537,"SoundDuration":145537,"Delta":2343095},{"NoteNumber":56,"Velocity":50,"Duration":145537,"SoundDuration":145537,"Delta":2343095},{"NoteNumber":68,"Velocity":60,"Duration":146005,"SoundDuration":146005,"Delta":2488633},{"NoteNumber":68,"Velocity":66,"Duration":146587,"SoundDuration":146587,"Delta":2634638},{"NoteNumber":49,"Velocity":55,"Duration":146587,"SoundDuration":146587,"Delta":2634638},{"NoteNumber":64,"Velocity":63,"Duration":144729,"SoundDuration":144729,"Delta":2781225},{"NoteNumber":68,"Velocity":63,"Duration":145563,"SoundDuration":145563,"Delta":2925955},{"NoteNumber":56,"Velocity":51,"Duration":145563,"SoundDuration":145563,"Delta":2925955},{"NoteNumber":76,"Velocity":63,"Duration":146398,"SoundDuration":146398,"Delta":3071518},{"NoteNumber":68,"Velocity":66,"Duration":147273,"SoundDuration":147273,"Delta":3217917},{"NoteNumber":52,"Velocity":55,"Duration":147273,"SoundDuration":147273,"Delta":3217917},{"NoteNumber":64,"Velocity":63,"Duration":145067,"SoundDuration":145067,"Delta":3365190},{"NoteNumber":68,"Velocity":63,"Duration":145537,"SoundDuration":145537,"Delta":3510258},{"NoteNumber":56,"Velocity":52,"Duration":145537,"SoundDuration":145537,"Delta":3510258},{"NoteNumber":73,"Velocity":63,"Duration":146121,"SoundDuration":146121,"Delta":3655796},{"NoteNumber":69,"Velocity":67,"Duration":146704,"SoundDuration":146704,"Delta":3801917},{"NoteNumber":51,"Velocity":56,"Duration":146704,"SoundDuration":146704,"Delta":3801917},{"NoteNumber":68,"Velocity":60,"Duration":144383,"SoundDuration":144383,"Delta":3948622},{"NoteNumber":66,"Velocity":61,"Duration":145067,"SoundDuration":145067,"Delta":4093005},{"NoteNumber":57,"Velocity":52,"Duration":145067,"SoundDuration":145067,"Delta":4093005},{"NoteNumber":73,"Velocity":62,"Duration":145772,"SoundDuration":145772,"Delta":4238073},{"NoteNumber":72,"Velocity":68,"Duration":146469,"SoundDuration":146469,"Delta":4383846},{"NoteNumber":51,"Velocity":55,"Duration":146469,"SoundDuration":146469,"Delta":4383846},{"NoteNumber":66,"Velocity":65,"Duration":146919,"SoundDuration":146919,"Delta":4530316},{"NoteNumber":68,"Velocity":66,"Duration":145886,"SoundDuration":145886,"Delta":4677235},{"NoteNumber":56,"Velocity":52,"Duration":145886,"SoundDuration":145886,"Delta":4677235},{"NoteNumber":72,"Velocity":67,"Duration":146743,"SoundDuration":146743,"Delta":4823122},{"NoteNumber":73,"Velocity":72,"Duration":147629,"SoundDuration":147629,"Delta":4969865},{"NoteNumber":49,"Velocity":56,"Duration":147629,"SoundDuration":147629,"Delta":4969865},{"NoteNumber":64,"Velocity":63,"Duration":144913,"SoundDuration":144913,"Delta":5117494},{"NoteNumber":68,"Velocity":65,"Duration":145645,"SoundDuration":145645,"Delta":5262408},{"NoteNumber":61,"Velocity":50,"Duration":145645,"SoundDuration":145645,"Delta":5262408},{"NoteNumber":73,"Velocity":67,"Duration":146370,"SoundDuration":146370,"Delta":5408053},{"NoteNumber":76,"Velocity":69,"Duration":147116,"SoundDuration":147116,"Delta":5554423},{"NoteNumber":49,"Velocity":55,"Duration":147116,"SoundDuration":147116,"Delta":5554423},{"NoteNumber":68,"Velocity":64,"Duration":144430,"SoundDuration":144430,"Delta":5701539},{"NoteNumber":76,"Velocity":66,"Duration":145157,"SoundDuration":145157,"Delta":5845970},{"NoteNumber":59,"Velocity":51,"Duration":145157,"SoundDuration":145157,"Delta":5845970},{"NoteNumber":80,"Velocity":68,"Duration":146128,"SoundDuration":146128,"Delta":5991127},{"NoteNumber":76,"Velocity":73,"Duration":148540,"SoundDuration":148540,"Delta":6137256},{"NoteNumber":54,"Velocity":57,"Duration":148540,"SoundDuration":148540,"Delta":6137256},{"NoteNumber":69,"Velocity":64,"Duration":146056,"SoundDuration":146056,"Delta":6285796},{"NoteNumber":76,"Velocity":66,"Duration":146056,"SoundDuration":146056,"Delta":6431853},{"NoteNumber":57,"Velocity":56,"Duration":146056,"SoundDuration":146056,"Delta":6431853},{"NoteNumber":80,"Velocity":68,"Duration":146056,"SoundDuration":146056,"Delta":6577909},{"NoteNumber":74,"Velocity":70,"Duration":146056,"SoundDuration":146056,"Delta":6723966},{"NoteNumber":54,"Velocity":57,"Duration":146056,"SoundDuration":146056,"Delta":6723966},{"NoteNumber":78,"Velocity":67,"Duration":146056,"SoundDuration":146056,"Delta":6870022},{"NoteNumber":73,"Velocity":70,"Duration":146056,"SoundDuration":146056,"Delta":7016079},{"NoteNumber":57,"Velocity":54,"Duration":146056,"SoundDuration":146056,"Delta":7016079},{"NoteNumber":76,"Velocity":67,"Duration":146056,"SoundDuration":146056,"Delta":7162135},{"NoteNumber":72,"Velocity":68,"Duration":144913,"SoundDuration":144913,"Delta":7308192},{"NoteNumber":45,"Velocity":58,"Duration":144913,"SoundDuration":144913,"Delta":7308192},{"NoteNumber":75,"Velocity":65,"Duration":145697,"SoundDuration":145697,"Delta":7453105},{"NoteNumber":73,"Velocity":67,"Duration":146465,"SoundDuration":146465,"Delta":7598803},{"NoteNumber":54,"Velocity":54,"Duration":146465,"SoundDuration":146465,"Delta":7598803},{"NoteNumber":76,"Velocity":65,"Duration":147254,"SoundDuration":147254,"Delta":7745269},{"NoteNumber":75,"Velocity":68,"Duration":148041,"SoundDuration":148041,"Delta":7892523},{"NoteNumber":44,"Velocity":56,"Duration":148041,"SoundDuration":148041,"Delta":7892523},{"NoteNumber":78,"Velocity":64,"Duration":148841,"SoundDuration":148841,"Delta":8040565},{"NoteNumber":72,"Velocity":69,"Duration":149770,"SoundDuration":149770,"Delta":8189407},{"NoteNumber":56,"Velocity":54,"Duration":149770,"SoundDuration":149770,"Delta":8189407},{"NoteNumber":75,"Velocity":64,"Duration":153968,"SoundDuration":153968,"Delta":8339177},{"NoteNumber":76,"Velocity":68,"Duration":146244,"SoundDuration":146244,"Delta":8493146},{"NoteNumber":49,"Velocity":54,"Duration":146244,"SoundDuration":146244,"Delta":8493146},{"NoteNumber":73,"Velocity":67,"Duration":147254,"SoundDuration":147254,"Delta":8639391},{"NoteNumber":71,"Velocity":66,"Duration":148495,"SoundDuration":148495,"Delta":8786645},{"NoteNumber":51,"Velocity":54,"Duration":148495,"SoundDuration":148495,"Delta":8786645},{"NoteNumber":69,"Velocity":64,"Duration":149537,"SoundDuration":149537,"Delta":8935141},{"NoteNumber":68,"Velocity":63,"Duration":150701,"SoundDuration":150701,"Delta":9084679},{"NoteNumber":52,"Velocity":55,"Duration":150701,"SoundDuration":150701,"Delta":9084679},{"NoteNumber":66,"Velocity":62,"Duration":151997,"SoundDuration":151997,"Delta":9235381},{"NoteNumber":64,"Velocity":60,"Duration":153086,"SoundDuration":153086,"Delta":9387378},{"NoteNumber":56,"Velocity":56,"Duration":153086,"SoundDuration":153086,"Delta":9387378},{"NoteNumber":63,"Velocity":59,"Duration":154306,"SoundDuration":154306,"Delta":9540464},{"NoteNumber":64,"Velocity":62,"Duration":157002,"SoundDuration":157002,"Delta":9694770},{"NoteNumber":49,"Velocity":51,"Duration":157002,"SoundDuration":157002,"Delta":9694770},{"NoteNumber":61,"Velocity":57,"Duration":148412,"SoundDuration":148412,"Delta":9851772},{"NoteNumber":64,"Velocity":57,"Duration":148894,"SoundDuration":148894,"Delta":10000184},{"NoteNumber":56,"Velocity":47,"Duration":148894,"SoundDuration":148894,"Delta":10000184},{"NoteNumber":68,"Velocity":57,"Duration":149373,"SoundDuration":149373,"Delta":10149078},{"NoteNumber":64,"Velocity":60,"Duration":149493,"SoundDuration":149493,"Delta":10298452},{"NoteNumber":49,"Velocity":51,"Duration":149493,"SoundDuration":149493,"Delta":10298452},{"NoteNumber":61,"Velocity":57,"Duration":147827,"SoundDuration":147827,"Delta":10447945},{"NoteNumber":64,"Velocity":57,"Duration":148532,"SoundDuration":148532,"Delta":10595773},{"NoteNumber":57,"Velocity":47,"Duration":148532,"SoundDuration":148532,"Delta":10595773},{"NoteNumber":69,"Velocity":57,"Duration":149134,"SoundDuration":149134,"Delta":10744305},{"NoteNumber":63,"Velocity":59,"Duration":149135,"SoundDuration":149135,"Delta":10893440},{"NoteNumber":47,"Velocity":51,"Duration":149135,"SoundDuration":149135,"Delta":10893440},{"NoteNumber":59,"Velocity":57,"Duration":147827,"SoundDuration":147827,"Delta":11042575},{"NoteNumber":63,"Velocity":57,"Duration":148653,"SoundDuration":148653,"Delta":11190403},{"NoteNumber":57,"Velocity":48,"Duration":148653,"SoundDuration":148653,"Delta":11190403},{"NoteNumber":69,"Velocity":57,"Duration":149492,"SoundDuration":149492,"Delta":11339056},{"NoteNumber":63,"Velocity":59,"Duration":150321,"SoundDuration":150321,"Delta":11488548},{"NoteNumber":47,"Velocity":51,"Duration":150321,"SoundDuration":150321,"Delta":11488548},{"NoteNumber":59,"Velocity":57,"Duration":148412,"SoundDuration":148412,"Delta":11638870},{"NoteNumber":63,"Velocity":57,"Duration":148894,"SoundDuration":148894,"Delta":11787282},{"NoteNumber":56,"Velocity":47,"Duration":148894,"SoundDuration":148894,"Delta":11787282},{"NoteNumber":68,"Velocity":57,"Duration":149492,"SoundDuration":149492,"Delta":11936176},{"NoteNumber":68,"Velocity":62,"Duration":150085,"SoundDuration":150085,"Delta":12085668},{"NoteNumber":52,"Velocity":52,"Duration":150085,"SoundDuration":150085,"Delta":12085668},{"NoteNumber":61,"Velocity":59,"Duration":147710,"SoundDuration":147710,"Delta":12235754},{"NoteNumber":68,"Velocity":59,"Duration":148412,"SoundDuration":148412,"Delta":12383465},{"NoteNumber":56,"Velocity":48,"Duration":148412,"SoundDuration":148412,"Delta":12383465},{"NoteNumber":73,"Velocity":59,"Duration":149134,"SoundDuration":149134,"Delta":12531877},{"NoteNumber":66,"Velocity":62,"Duration":149968,"SoundDuration":149968,"Delta":12681012},{"NoteNumber":45,"Velocity":52,"Duration":149968,"SoundDuration":149968,"Delta":12681012},{"NoteNumber":63,"Velocity":59,"Duration":148412,"SoundDuration":148412,"Delta":12830980},{"NoteNumber":66,"Velocity":59,"Duration":148894,"SoundDuration":148894,"Delta":12979392},{"NoteNumber":57,"Velocity":49,"Duration":148894,"SoundDuration":148894,"Delta":12979392},{"NoteNumber":73,"Velocity":59,"Duration":149373,"SoundDuration":149373,"Delta":13128286},{"NoteNumber":68,"Velocity":63,"Duration":149968,"SoundDuration":149968,"Delta":13277659},{"NoteNumber":44,"Velocity":51,"Duration":149968,"SoundDuration":149968,"Delta":13277659},{"NoteNumber":64,"Velocity":59,"Duration":147131,"SoundDuration":147131,"Delta":13427627},{"NoteNumber":68,"Velocity":59,"Duration":147944,"SoundDuration":147944,"Delta":13574759},{"NoteNumber":59,"Velocity":49,"Duration":147944,"SoundDuration":147944,"Delta":13574759},{"NoteNumber":73,"Velocity":59,"Duration":148894,"SoundDuration":148894,"Delta":13722703},{"NoteNumber":68,"Velocity":62,"Duration":147710,"SoundDuration":147710,"Delta":13871597},{"NoteNumber":56,"Velocity":52,"Duration":147710,"SoundDuration":147710,"Delta":13871597},{"NoteNumber":64,"Velocity":60,"Duration":148295,"SoundDuration":148295,"Delta":14019307},{"NoteNumber":68,"Velocity":60,"Duration":148894,"SoundDuration":148894,"Delta":14167603},{"NoteNumber":59,"Velocity":49,"Duration":148894,"SoundDuration":148894,"Delta":14167603},{"NoteNumber":71,"Velocity":60,"Duration":149492,"SoundDuration":149492,"Delta":14316497},{"NoteNumber":67,"Velocity":68,"Duration":150203,"SoundDuration":150203,"Delta":14465989},{"NoteNumber":49,"Velocity":52,"Duration":150203,"SoundDuration":150203,"Delta":14465989},{"NoteNumber":64,"Velocity":59,"Duration":148250,"SoundDuration":148250,"Delta":14616193},{"NoteNumber":67,"Velocity":61,"Duration":149001,"SoundDuration":149001,"Delta":14764444},{"NoteNumber":52,"Velocity":47,"Duration":149001,"SoundDuration":149001,"Delta":14764444},{"NoteNumber":70,"Velocity":63,"Duration":149730,"SoundDuration":149730,"Delta":14913445},{"NoteNumber":76,"Velocity":65,"Duration":150496,"SoundDuration":150496,"Delta":15063176},{"NoteNumber":48,"Velocity":52,"Duration":150496,"SoundDuration":150496,"Delta":15063176},{"NoteNumber":70,"Velocity":60,"Duration":147755,"SoundDuration":147755,"Delta":15213673},{"NoteNumber":76,"Velocity":62,"Duration":148501,"SoundDuration":148501,"Delta":15361428},{"NoteNumber":58,"Velocity":44,"Duration":148501,"SoundDuration":148501,"Delta":15361428},{"NoteNumber":79,"Velocity":64,"Duration":149487,"SoundDuration":149487,"Delta":15509929},{"NoteNumber":75,"Velocity":64,"Duration":147710,"SoundDuration":147710,"Delta":15659416},{"NoteNumber":47,"Velocity":48,"Duration":147710,"SoundDuration":147710,"Delta":15659416},{"NoteNumber":79,"Velocity":62,"Duration":148295,"SoundDuration":148295,"Delta":15807127},{"NoteNumber":75,"Velocity":63,"Duration":148893,"SoundDuration":148893,"Delta":15955422},{"NoteNumber":59,"Velocity":45,"Duration":148893,"SoundDuration":148893,"Delta":15955422},{"NoteNumber":78,"Velocity":61,"Duration":149492,"SoundDuration":149492,"Delta":16104316},{"NoteNumber":69,"Velocity":62,"Duration":150203,"SoundDuration":150203,"Delta":16253808},{"NoteNumber":48,"Velocity":48,"Duration":150203,"SoundDuration":150203,"Delta":16253808},{"NoteNumber":76,"Velocity":61,"Duration":150805,"SoundDuration":150805,"Delta":16404012},{"NoteNumber":69,"Velocity":62,"Duration":151423,"SoundDuration":151423,"Delta":16554817},{"NoteNumber":54,"Velocity":43,"Duration":151423,"SoundDuration":151423,"Delta":16554817},{"NoteNumber":75,"Velocity":60,"Duration":152161,"SoundDuration":152161,"Delta":16706241},{"NoteNumber":69,"Velocity":59,"Duration":152780,"SoundDuration":152780,"Delta":16858402},{"NoteNumber":49,"Velocity":45,"Duration":152780,"SoundDuration":152780,"Delta":16858402},{"NoteNumber":78,"Velocity":56,"Duration":153531,"SoundDuration":153531,"Delta":17011183},{"NoteNumber":68,"Velocity":59,"Duration":154162,"SoundDuration":154162,"Delta":17164714},{"NoteNumber":52,"Velocity":39,"Duration":154162,"SoundDuration":154162,"Delta":17164714},{"NoteNumber":76,"Velocity":56,"Duration":154799,"SoundDuration":154799,"Delta":17318877},{"NoteNumber":64,"Velocity":58,"Duration":155581,"SoundDuration":155581,"Delta":17473676},{"NoteNumber":45,"Velocity":46,"Duration":155581,"SoundDuration":155581,"Delta":17473676},{"NoteNumber":73,"Velocity":55,"Duration":156226,"SoundDuration":156226,"Delta":17629258},{"NoteNumber":61,"Velocity":57,"Duration":156877,"SoundDuration":156877,"Delta":17785484},{"NoteNumber":54,"Velocity":40,"Duration":156877,"SoundDuration":156877,"Delta":17785484},{"NoteNumber":69,"Velocity":55,"Duration":157298,"SoundDuration":157298,"Delta":17942362},{"NoteNumber":59,"Velocity":57,"Duration":157067,"SoundDuration":157067,"Delta":18099660},{"NoteNumber":47,"Velocity":46,"Duration":157067,"SoundDuration":157067,"Delta":18099660},{"NoteNumber":68,"Velocity":55,"Duration":156115,"SoundDuration":156115,"Delta":18256728},{"NoteNumber":64,"Velocity":57,"Duration":155173,"SoundDuration":155173,"Delta":18412844},{"NoteNumber":56,"Velocity":43,"Duration":155173,"SoundDuration":155173,"Delta":18412844},{"NoteNumber":71,"Velocity":56,"Duration":154374,"SoundDuration":154374,"Delta":18568017},{"NoteNumber":59,"Velocity":57,"Duration":153453,"SoundDuration":153453,"Delta":18722392},{"NoteNumber":47,"Velocity":45,"Duration":153453,"SoundDuration":153453,"Delta":18722392},{"NoteNumber":69,"Velocity":56,"Duration":152543,"SoundDuration":152543,"Delta":18875846},{"NoteNumber":63,"Velocity":57,"Duration":151643,"SoundDuration":151643,"Delta":19028389},{"NoteNumber":57,"Velocity":41,"Duration":151643,"SoundDuration":151643,"Delta":19028389},{"NoteNumber":71,"Velocity":56,"Duration":150880,"SoundDuration":150880,"Delta":19180032},{"NoteNumber":69,"Velocity":57,"Duration":448013,"SoundDuration":448013,"Delta":19330913},{"NoteNumber":47,"Velocity":46,"Duration":149875,"SoundDuration":149875,"Delta":19330913},{"NoteNumber":63,"Velocity":54,"Duration":149007,"SoundDuration":149007,"Delta":19480789},{"NoteNumber":59,"Velocity":54,"Duration":149130,"SoundDuration":149130,"Delta":19629796},{"NoteNumber":54,"Velocity":39,"Duration":149130,"SoundDuration":149130,"Delta":19629796},{"NoteNumber":69,"Velocity":57,"Duration":149253,"SoundDuration":149253,"Delta":19778927},{"NoteNumber":68,"Velocity":57,"Duration":149253,"SoundDuration":149253,"Delta":19928180},{"NoteNumber":52,"Velocity":47,"Duration":149253,"SoundDuration":149253,"Delta":19928180},{"NoteNumber":64,"Velocity":53,"Duration":148632,"SoundDuration":148632,"Delta":20077434},{"NoteNumber":68,"Velocity":55,"Duration":146738,"SoundDuration":146738,"Delta":20226066},{"NoteNumber":54,"Velocity":41,"Duration":146738,"SoundDuration":146738,"Delta":20226066},{"NoteNumber":69,"Velocity":57,"Duration":148341,"SoundDuration":148341,"Delta":20372805},{"NoteNumber":71,"Velocity":59,"Duration":152284,"SoundDuration":152284,"Delta":20521146},{"NoteNumber":56,"Velocity":45,"Duration":152284,"SoundDuration":152284,"Delta":20521146},{"NoteNumber":68,"Velocity":50,"Duration":153061,"SoundDuration":153061,"Delta":20673430},{"NoteNumber":71,"Velocity":53,"Duration":153846,"SoundDuration":153846,"Delta":20826491},{"NoteNumber":59,"Velocity":36,"Duration":153846,"SoundDuration":153846,"Delta":20826491},{"NoteNumber":80,"Velocity":46,"Duration":153846,"SoundDuration":153846,"Delta":20980337},{"NoteNumber":71,"Velocity":49,"Duration":150753,"SoundDuration":150753,"Delta":21134184},{"NoteNumber":56,"Velocity":34,"Duration":150753,"SoundDuration":150753,"Delta":21134184},{"NoteNumber":78,"Velocity":44,"Duration":150753,"SoundDuration":150753,"Delta":21284937},{"NoteNumber":72,"Velocity":49,"Duration":150753,"SoundDuration":150753,"Delta":21435691},{"NoteNumber":64,"Velocity":31,"Duration":150753,"SoundDuration":150753,"Delta":21435691},{"NoteNumber":76,"Velocity":46,"Duration":150753,"SoundDuration":150753,"Delta":21586445},{"NoteNumber":73,"Velocity":53,"Duration":161620,"SoundDuration":161620,"Delta":21737199},{"NoteNumber":57,"Velocity":45,"Duration":161620,"SoundDuration":161620,"Delta":21737199},{"NoteNumber":64,"Velocity":56,"Duration":157645,"SoundDuration":157645,"Delta":21898819},{"NoteNumber":73,"Velocity":54,"Duration":158145,"SoundDuration":158145,"Delta":22056465},{"NoteNumber":45,"Velocity":40,"Duration":158145,"SoundDuration":158145,"Delta":22056465},{"NoteNumber":76,"Velocity":55,"Duration":158647,"SoundDuration":158647,"Delta":22214610},{"NoteNumber":71,"Velocity":59,"Duration":159151,"SoundDuration":159151,"Delta":22373257},{"NoteNumber":47,"Velocity":41,"Duration":159151,"SoundDuration":159151,"Delta":22373257},{"NoteNumber":75,"Velocity":54,"Duration":157027,"SoundDuration":157027,"Delta":22532408},{"NoteNumber":69,"Velocity":57,"Duration":157895,"SoundDuration":157895,"Delta":22689436},{"NoteNumber":49,"Velocity":42,"Duration":157895,"SoundDuration":157895,"Delta":22689436},{"NoteNumber":73,"Velocity":54,"Duration":158773,"SoundDuration":158773,"Delta":22847331},{"NoteNumber":68,"Velocity":57,"Duration":159660,"SoundDuration":159660,"Delta":23006105},{"NoteNumber":47,"Velocity":45,"Duration":159660,"SoundDuration":159660,"Delta":23006105},{"NoteNumber":59,"Velocity":54,"Duration":157645,"SoundDuration":157645,"Delta":23165765},{"NoteNumber":68,"Velocity":54,"Duration":158145,"SoundDuration":158145,"Delta":23323411},{"NoteNumber":52,"Velocity":39,"Duration":158145,"SoundDuration":158145,"Delta":23323411},{"NoteNumber":71,"Velocity":54,"Duration":158647,"SoundDuration":158647,"Delta":23481556},{"NoteNumber":64,"Velocity":57,"Duration":159151,"SoundDuration":159151,"Delta":23640203},{"NoteNumber":47,"Velocity":43,"Duration":159151,"SoundDuration":159151,"Delta":23640203},{"NoteNumber":58,"Velocity":51,"Duration":157645,"SoundDuration":157645,"Delta":23799354},{"NoteNumber":64,"Velocity":52,"Duration":158394,"SoundDuration":158394,"Delta":23957000},{"NoteNumber":55,"Velocity":41,"Duration":158394,"SoundDuration":158394,"Delta":23957000},{"NoteNumber":73,"Velocity":52,"Duration":159151,"SoundDuration":159151,"Delta":24115395},{"NoteNumber":66,"Velocity":54,"Duration":164095,"SoundDuration":164095,"Delta":24274546},{"NoteNumber":47,"Velocity":41,"Duration":164095,"SoundDuration":164095,"Delta":24274546},{"NoteNumber":57,"Velocity":49,"Duration":161760,"SoundDuration":161760,"Delta":24438642},{"NoteNumber":66,"Velocity":49,"Duration":161759,"SoundDuration":161759,"Delta":24600402},{"NoteNumber":52,"Velocity":39,"Duration":161759,"SoundDuration":161759,"Delta":24600402},{"NoteNumber":71,"Velocity":49,"Duration":161760,"SoundDuration":161760,"Delta":24762162},{"NoteNumber":66,"Velocity":53,"Duration":161760,"SoundDuration":161760,"Delta":24923922},{"NoteNumber":47,"Velocity":41,"Duration":161760,"SoundDuration":161760,"Delta":24923922},{"NoteNumber":57,"Velocity":48,"Duration":161760,"SoundDuration":161760,"Delta":25085682},{"NoteNumber":66,"Velocity":48,"Duration":161759,"SoundDuration":161759,"Delta":25247442},{"NoteNumber":51,"Velocity":37,"Duration":161759,"SoundDuration":161759,"Delta":25247442},{"NoteNumber":71,"Velocity":48,"Duration":161760,"SoundDuration":161760,"Delta":25409202},{"NoteNumber":64,"Velocity":48,"Duration":154766,"SoundDuration":154766,"Delta":25570962},{"NoteNumber":52,"Velocity":48,"Duration":309533,"SoundDuration":309533,"Delta":25570962},{"NoteNumber":56,"Velocity":44,"Duration":154766,"SoundDuration":154766,"Delta":25725729},{"NoteNumber":64,"Velocity":44,"Duration":154766,"SoundDuration":154766,"Delta":25880495},{"NoteNumber":68,"Velocity":44,"Duration":154766,"SoundDuration":154766,"Delta":26035262},{"NoteNumber":47,"Velocity":48,"Duration":154766,"SoundDuration":154766,"Delta":26190029},{"NoteNumber":40,"Velocity":44,"Duration":154766,"SoundDuration":154766,"Delta":26344796},{"NoteNumber":47,"Velocity":44,"Duration":154766,"SoundDuration":154766,"Delta":26499562},{"NoteNumber":52,"Velocity":45,"Duration":154766,"SoundDuration":154766,"Delta":26654329},{"NoteNumber":63,"Velocity":48,"Duration":154766,"SoundDuration":154766,"Delta":26809096},{"NoteNumber":57,"Velocity":43,"Duration":154766,"SoundDuration":154766,"Delta":26963863},{"NoteNumber":63,"Velocity":43,"Duration":154766,"SoundDuration":154766,"Delta":27118629},{"NoteNumber":71,"Velocity":43,"Duration":154766,"SoundDuration":154766,"Delta":27273396},{"NoteNumber":47,"Velocity":48,"Duration":154766,"SoundDuration":154766,"Delta":27428163},{"NoteNumber":40,"Velocity":44,"Duration":154766,"SoundDuration":154766,"Delta":27582930},{"NoteNumber":47,"Velocity":44,"Duration":154766,"SoundDuration":154766,"Delta":27737696},{"NoteNumber":54,"Velocity":44,"Duration":154766,"SoundDuration":154766,"Delta":27892463},{"NoteNumber":64,"Velocity":48,"Duration":156707,"SoundDuration":156707,"Delta":28047230},{"NoteNumber":56,"Velocity":45,"Duration":156707,"SoundDuration":156707,"Delta":28203937},{"NoteNumber":64,"Velocity":45,"Duration":156706,"SoundDuration":156706,"Delta":28360644},{"NoteNumber":68,"Velocity":45,"Duration":156707,"SoundDuration":156707,"Delta":28517351},{"NoteNumber":68,"Velocity":44,"Duration":156964,"SoundDuration":156964,"Delta":28674058},{"NoteNumber":52,"Velocity":46,"Duration":156964,"SoundDuration":156964,"Delta":28674058},{"NoteNumber":71,"Velocity":49,"Duration":157978,"SoundDuration":157978,"Delta":28831023},{"NoteNumber":56,"Velocity":47,"Duration":157978,"SoundDuration":157978,"Delta":28831023},{"NoteNumber":76,"Velocity":53,"Duration":158999,"SoundDuration":158999,"Delta":28989001},{"NoteNumber":59,"Velocity":52,"Duration":158999,"SoundDuration":158999,"Delta":28989001},{"NoteNumber":80,"Velocity":58,"Duration":174345,"SoundDuration":174345,"Delta":29148000},{"NoteNumber":64,"Velocity":56,"Duration":174345,"SoundDuration":174345,"Delta":29148000},{"NoteNumber":80,"Velocity":62,"Duration":314795,"SoundDuration":314795,"Delta":29322346},{"NoteNumber":64,"Velocity":58,"Duration":314795,"SoundDuration":314795,"Delta":29322346},{"NoteNumber":68,"Velocity":46,"Duration":157397,"SoundDuration":157397,"Delta":29479744},{"NoteNumber":76,"Velocity":56,"Duration":314795,"SoundDuration":314795,"Delta":29637141},{"NoteNumber":61,"Velocity":55,"Duration":314795,"SoundDuration":314795,"Delta":29637141},{"NoteNumber":68,"Velocity":47,"Duration":157397,"SoundDuration":157397,"Delta":29794539},{"NoteNumber":75,"Velocity":53,"Duration":314795,"SoundDuration":314795,"Delta":29951937},{"NoteNumber":60,"Velocity":52,"Duration":314795,"SoundDuration":314795,"Delta":29951937},{"NoteNumber":68,"Velocity":44,"Duration":157397,"SoundDuration":157397,"Delta":30109335},{"NoteNumber":74,"Velocity":50,"Duration":314795,"SoundDuration":314795,"Delta":30266732},{"NoteNumber":59,"Velocity":49,"Duration":314795,"SoundDuration":314795,"Delta":30266732},{"NoteNumber":68,"Velocity":44,"Duration":157397,"SoundDuration":157397,"Delta":30424130},{"NoteNumber":73,"Velocity":48,"Duration":152718,"SoundDuration":152718,"Delta":30581528},{"NoteNumber":57,"Velocity":46,"Duration":305437,"SoundDuration":305437,"Delta":30581528},{"NoteNumber":61,"Velocity":43,"Duration":152718,"SoundDuration":152718,"Delta":30734246},{"NoteNumber":69,"Velocity":43,"Duration":152718,"SoundDuration":152718,"Delta":30886965},{"NoteNumber":73,"Velocity":43,"Duration":152718,"SoundDuration":152718,"Delta":31039683},{"NoteNumber":52,"Velocity":48,"Duration":152718,"SoundDuration":152718,"Delta":31192402},{"NoteNumber":45,"Velocity":44,"Duration":152718,"SoundDuration":152718,"Delta":31345120},{"NoteNumber":52,"Velocity":44,"Duration":152718,"SoundDuration":152718,"Delta":31497839},{"NoteNumber":57,"Velocity":44,"Duration":152718,"SoundDuration":152718,"Delta":31650557},{"NoteNumber":68,"Velocity":48,"Duration":152718,"SoundDuration":152718,"Delta":31803276},{"NoteNumber":62,"Velocity":42,"Duration":152718,"SoundDuration":152718,"Delta":31955994},{"NoteNumber":68,"Velocity":42,"Duration":152718,"SoundDuration":152718,"Delta":32108713},{"NoteNumber":76,"Velocity":42,"Duration":152718,"SoundDuration":152718,"Delta":32261431},{"NoteNumber":52,"Velocity":48,"Duration":152718,"SoundDuration":152718,"Delta":32414150},{"NoteNumber":45,"Velocity":41,"Duration":152718,"SoundDuration":152718,"Delta":32566868},{"NoteNumber":52,"Velocity":41,"Duration":152718,"SoundDuration":152718,"Delta":32719587},{"NoteNumber":59,"Velocity":41,"Duration":152718,"SoundDuration":152718,"Delta":32872305},{"NoteNumber":69,"Velocity":48,"Duration":152718,"SoundDuration":152718,"Delta":33025024},{"NoteNumber":61,"Velocity":42,"Duration":152718,"SoundDuration":152718,"Delta":33177742},{"NoteNumber":69,"Velocity":42,"Duration":152718,"SoundDuration":152718,"Delta":33330461},{"NoteNumber":73,"Velocity":43,"Duration":152718,"SoundDuration":152718,"Delta":33483179},{"NoteNumber":73,"Velocity":43,"Duration":152243,"SoundDuration":152243,"Delta":33635898},{"NoteNumber":57,"Velocity":44,"Duration":152243,"SoundDuration":152243,"Delta":33635898},{"NoteNumber":76,"Velocity":48,"Duration":153464,"SoundDuration":153464,"Delta":33788142},{"NoteNumber":61,"Velocity":49,"Duration":153464,"SoundDuration":153464,"Delta":33788142},{"NoteNumber":81,"Velocity":53,"Duration":154693,"SoundDuration":154693,"Delta":33941606},{"NoteNumber":64,"Velocity":54,"Duration":154693,"SoundDuration":154693,"Delta":33941606},{"NoteNumber":85,"Velocity":59,"Duration":178189,"SoundDuration":178189,"Delta":34096299},{"NoteNumber":69,"Velocity":59,"Duration":178189,"SoundDuration":178189,"Delta":34096299},{"NoteNumber":85,"Velocity":64,"Duration":155263,"SoundDuration":155263,"Delta":34274489},{"NoteNumber":69,"Velocity":62,"Duration":310527,"SoundDuration":310527,"Delta":34274489},{"NoteNumber":73,"Velocity":56,"Duration":155263,"SoundDuration":155263,"Delta":34429752},{"NoteNumber":81,"Velocity":61,"Duration":155263,"SoundDuration":155263,"Delta":34585016},{"NoteNumber":66,"Velocity":51,"Duration":310527,"SoundDuration":310527,"Delta":34585016},{"NoteNumber":73,"Velocity":56,"Duration":155263,"SoundDuration":155263,"Delta":34740279},{"NoteNumber":80,"Velocity":61,"Duration":155263,"SoundDuration":155263,"Delta":34895543},{"NoteNumber":71,"Velocity":51,"Duration":310527,"SoundDuration":310527,"Delta":34895543},{"NoteNumber":76,"Velocity":56,"Duration":155263,"SoundDuration":155263,"Delta":35050806},{"NoteNumber":78,"Velocity":61,"Duration":155263,"SoundDuration":155263,"Delta":35206070},{"NoteNumber":69,"Velocity":51,"Duration":310527,"SoundDuration":310527,"Delta":35206070},{"NoteNumber":59,"Velocity":51,"Duration":310527,"SoundDuration":310527,"Delta":35206070},{"NoteNumber":75,"Velocity":55,"Duration":155263,"SoundDuration":155263,"Delta":35361333},{"NoteNumber":64,"Velocity":66,"Duration":161953,"SoundDuration":161953,"Delta":35516597},{"NoteNumber":68,"Velocity":66,"Duration":161953,"SoundDuration":161953,"Delta":35516597},{"NoteNumber":76,"Velocity":66,"Duration":161953,"SoundDuration":161953,"Delta":35516597},{"NoteNumber":68,"Velocity":61,"Duration":164834,"SoundDuration":164834,"Delta":35678551},{"NoteNumber":66,"Velocity":61,"Duration":166270,"SoundDuration":166270,"Delta":35843385},{"NoteNumber":54,"Velocity":62,"Duration":334310,"SoundDuration":334310,"Delta":35843385},{"NoteNumber":56,"Velocity":62,"Duration":1022034,"SoundDuration":1022034,"Delta":35843385},{"NoteNumber":68,"Velocity":61,"Duration":168040,"SoundDuration":168040,"Delta":36009655},{"NoteNumber":64,"Velocity":58,"Duration":169535,"SoundDuration":169535,"Delta":36177696},{"NoteNumber":52,"Velocity":71,"Duration":340753,"SoundDuration":340753,"Delta":36177696},{"NoteNumber":68,"Velocity":62,"Duration":171218,"SoundDuration":171218,"Delta":36347231},{"NoteNumber":63,"Velocity":66,"Duration":172936,"SoundDuration":172936,"Delta":36518449},{"NoteNumber":51,"Velocity":78,"Duration":346970,"SoundDuration":346970,"Delta":36518449},{"NoteNumber":68,"Velocity":69,"Duration":174033,"SoundDuration":174033,"Delta":36691385},{"NoteNumber":64,"Velocity":80,"Duration":158579,"SoundDuration":158579,"Delta":36865419},{"NoteNumber":49,"Velocity":85,"Duration":158579,"SoundDuration":158579,"Delta":36865419},{"NoteNumber":61,"Velocity":74,"Duration":158579,"SoundDuration":158579,"Delta":37023999},{"NoteNumber":64,"Velocity":74,"Duration":158579,"SoundDuration":158579,"Delta":37182578},{"NoteNumber":48,"Velocity":77,"Duration":158579,"SoundDuration":158579,"Delta":37182578},{"NoteNumber":68,"Velocity":74,"Duration":158579,"SoundDuration":158579,"Delta":37341157},{"NoteNumber":64,"Velocity":78,"Duration":158579,"SoundDuration":158579,"Delta":37499736},{"NoteNumber":49,"Velocity":76,"Duration":158579,"SoundDuration":158579,"Delta":37499736},{"NoteNumber":61,"Velocity":74,"Duration":158579,"SoundDuration":158579,"Delta":37658316},{"NoteNumber":64,"Velocity":74,"Duration":152905,"SoundDuration":152905,"Delta":37816895},{"NoteNumber":52,"Velocity":76,"Duration":152905,"SoundDuration":152905,"Delta":37816895},{"NoteNumber":69,"Velocity":74,"Duration":153427,"SoundDuration":153427,"Delta":37969800},{"NoteNumber":63,"Velocity":76,"Duration":153952,"SoundDuration":153952,"Delta":38123228},{"NoteNumber":48,"Velocity":82,"Duration":153952,"SoundDuration":153952,"Delta":38123228},{"NoteNumber":60,"Velocity":74,"Duration":154613,"SoundDuration":154613,"Delta":38277180},{"NoteNumber":63,"Velocity":74,"Duration":155279,"SoundDuration":155279,"Delta":38431793},{"NoteNumber":51,"Velocity":76,"Duration":155279,"SoundDuration":155279,"Delta":38431793},{"NoteNumber":69,"Velocity":74,"Duration":155952,"SoundDuration":155952,"Delta":38587073},{"NoteNumber":63,"Velocity":76,"Duration":156503,"SoundDuration":156503,"Delta":38743026},{"NoteNumber":56,"Velocity":76,"Duration":156503,"SoundDuration":156503,"Delta":38743026},{"NoteNumber":60,"Velocity":74,"Duration":157195,"SoundDuration":157195,"Delta":38899529},{"NoteNumber":63,"Velocity":74,"Duration":152129,"SoundDuration":152129,"Delta":39056725},{"NoteNumber":48,"Velocity":76,"Duration":152129,"SoundDuration":152129,"Delta":39056725},{"NoteNumber":68,"Velocity":74,"Duration":152776,"SoundDuration":152776,"Delta":39208854},{"NoteNumber":68,"Velocity":80,"Duration":153557,"SoundDuration":153557,"Delta":39361630},{"NoteNumber":49,"Velocity":80,"Duration":153557,"SoundDuration":153557,"Delta":39361630},{"NoteNumber":64,"Velocity":76,"Duration":154216,"SoundDuration":154216,"Delta":39515188},{"NoteNumber":68,"Velocity":76,"Duration":155012,"SoundDuration":155012,"Delta":39669405},{"NoteNumber":51,"Velocity":76,"Duration":155012,"SoundDuration":155012,"Delta":39669405},{"NoteNumber":76,"Velocity":76,"Duration":155683,"SoundDuration":155683,"Delta":39824418},{"NoteNumber":68,"Velocity":80,"Duration":156503,"SoundDuration":156503,"Delta":39980101},{"NoteNumber":52,"Velocity":76,"Duration":156503,"SoundDuration":156503,"Delta":39980101},{"NoteNumber":64,"Velocity":76,"Duration":157057,"SoundDuration":157057,"Delta":40136605},{"NoteNumber":68,"Velocity":76,"Duration":152129,"SoundDuration":152129,"Delta":40293663},{"NoteNumber":49,"Velocity":76,"Duration":152129,"SoundDuration":152129,"Delta":40293663},{"NoteNumber":73,"Velocity":76,"Duration":152905,"SoundDuration":152905,"Delta":40445792},{"NoteNumber":69,"Velocity":82,"Duration":153688,"SoundDuration":153688,"Delta":40598698},{"NoteNumber":51,"Velocity":76,"Duration":153688,"SoundDuration":153688,"Delta":40598698},{"NoteNumber":68,"Velocity":74,"Duration":154613,"SoundDuration":154613,"Delta":40752386},{"NoteNumber":66,"Velocity":75,"Duration":155414,"SoundDuration":155414,"Delta":40906999},{"NoteNumber":57,"Velocity":83,"Duration":155414,"SoundDuration":155414,"Delta":40906999},{"NoteNumber":73,"Velocity":76,"Duration":156226,"SoundDuration":156226,"Delta":41062414},{"NoteNumber":72,"Velocity":83,"Duration":157057,"SoundDuration":157057,"Delta":41218640},{"NoteNumber":56,"Velocity":81,"Duration":157057,"SoundDuration":157057,"Delta":41218640},{"NoteNumber":63,"Velocity":79,"Duration":157884,"SoundDuration":157884,"Delta":41375698},{"NoteNumber":68,"Velocity":80,"Duration":152129,"SoundDuration":152129,"Delta":41533582},{"NoteNumber":54,"Velocity":76,"Duration":152129,"SoundDuration":152129,"Delta":41533582},{"NoteNumber":72,"Velocity":82,"Duration":152905,"SoundDuration":152905,"Delta":41685712},{"NoteNumber":73,"Velocity":88,"Duration":153688,"SoundDuration":153688,"Delta":41838617},{"NoteNumber":52,"Velocity":74,"Duration":153688,"SoundDuration":153688,"Delta":41838617},{"NoteNumber":68,"Velocity":76,"Duration":154613,"SoundDuration":154613,"Delta":41992305},{"NoteNumber":73,"Velocity":79,"Duration":155414,"SoundDuration":155414,"Delta":42146919},{"NoteNumber":51,"Velocity":76,"Duration":155414,"SoundDuration":155414,"Delta":42146919},{"NoteNumber":76,"Velocity":82,"Duration":156226,"SoundDuration":156226,"Delta":42302333},{"NoteNumber":76,"Velocity":84,"Duration":157057,"SoundDuration":157057,"Delta":42458559},{"NoteNumber":49,"Velocity":79,"Duration":157057,"SoundDuration":157057,"Delta":42458559},{"NoteNumber":68,"Velocity":82,"Duration":158163,"SoundDuration":158163,"Delta":42615617},{"NoteNumber":76,"Velocity":86,"Duration":152905,"SoundDuration":152905,"Delta":42773780},{"NoteNumber":47,"Velocity":80,"Duration":152905,"SoundDuration":152905,"Delta":42773780},{"NoteNumber":80,"Velocity":90,"Duration":153688,"SoundDuration":153688,"Delta":42926686},{"NoteNumber":76,"Velocity":93,"Duration":154613,"SoundDuration":154613,"Delta":43080374},{"NoteNumber":45,"Velocity":84,"Duration":154613,"SoundDuration":154613,"Delta":43080374},{"NoteNumber":69,"Velocity":90,"Duration":155414,"SoundDuration":155414,"Delta":43234987},{"NoteNumber":76,"Velocity":88,"Duration":156226,"SoundDuration":156226,"Delta":43390402},{"NoteNumber":42,"Velocity":78,"Duration":78043,"SoundDuration":78043,"Delta":43390402},{"NoteNumber":80,"Velocity":85,"Duration":157195,"SoundDuration":157195,"Delta":43546628},{"NoteNumber":44,"Velocity":78,"Duration":78460,"SoundDuration":78460,"Delta":43546628},{"NoteNumber":74,"Velocity":86,"Duration":158023,"SoundDuration":158023,"Delta":43703823},{"NoteNumber":45,"Velocity":83,"Duration":158023,"SoundDuration":158023,"Delta":43703823},{"NoteNumber":78,"Velocity":82,"Duration":159000,"SoundDuration":159000,"Delta":43861846},{"NoteNumber":73,"Velocity":86,"Duration":152129,"SoundDuration":152129,"Delta":44020847},{"NoteNumber":42,"Velocity":79,"Duration":152129,"SoundDuration":152129,"Delta":44020847},{"NoteNumber":76,"Velocity":82,"Duration":152129,"SoundDuration":152129,"Delta":44172977},{"NoteNumber":72,"Velocity":83,"Duration":152905,"SoundDuration":152905,"Delta":44325106},{"NoteNumber":44,"Velocity":85,"Duration":152905,"SoundDuration":152905,"Delta":44325106},{"NoteNumber":75,"Velocity":79,"Duration":153035,"SoundDuration":153035,"Delta":44478012},{"NoteNumber":73,"Velocity":82,"Duration":153688,"SoundDuration":153688,"Delta":44631047},{"NoteNumber":42,"Velocity":80,"Duration":76844,"SoundDuration":76844,"Delta":44631047},{"NoteNumber":76,"Velocity":76,"Duration":153820,"SoundDuration":153820,"Delta":44784736},{"NoteNumber":40,"Velocity":80,"Duration":76844,"SoundDuration":76844,"Delta":44784736},{"NoteNumber":75,"Velocity":81,"Duration":154479,"SoundDuration":154479,"Delta":44938556},{"NoteNumber":39,"Velocity":85,"Duration":154479,"SoundDuration":154479,"Delta":44938556},{"NoteNumber":78,"Velocity":75,"Duration":154746,"SoundDuration":154746,"Delta":45093036},{"NoteNumber":72,"Velocity":79,"Duration":155279,"SoundDuration":155279,"Delta":45247783},{"NoteNumber":44,"Velocity":80,"Duration":155279,"SoundDuration":155279,"Delta":45247783},{"NoteNumber":75,"Velocity":72,"Duration":155279,"SoundDuration":155279,"Delta":45403062},{"NoteNumber":76,"Velocity":79,"Duration":152905,"SoundDuration":152905,"Delta":45558342},{"NoteNumber":37,"Velocity":88,"Duration":152905,"SoundDuration":152905,"Delta":45558342},{"NoteNumber":73,"Velocity":74,"Duration":153820,"SoundDuration":153820,"Delta":45711247},{"NoteNumber":71,"Velocity":69,"Duration":154746,"SoundDuration":154746,"Delta":45865068},{"NoteNumber":44,"Velocity":70,"Duration":310295,"SoundDuration":310295,"Delta":45865068},{"NoteNumber":69,"Velocity":65,"Duration":155548,"SoundDuration":155548,"Delta":46019814},{"NoteNumber":68,"Velocity":61,"Duration":156503,"SoundDuration":156503,"Delta":46175363},{"NoteNumber":46,"Velocity":58,"Duration":313974,"SoundDuration":313974,"Delta":46175363},{"NoteNumber":66,"Velocity":57,"Duration":157470,"SoundDuration":157470,"Delta":46331867},{"NoteNumber":64,"Velocity":53,"Duration":158301,"SoundDuration":158301,"Delta":46489337},{"NoteNumber":48,"Velocity":48,"Duration":317582,"SoundDuration":317582,"Delta":46489337},{"NoteNumber":63,"Velocity":48,"Duration":159281,"SoundDuration":159281,"Delta":46647638},{"NoteNumber":64,"Velocity":42,"Duration":165398,"SoundDuration":165398,"Delta":46806920},{"NoteNumber":49,"Velocity":40,"Duration":320309,"SoundDuration":320309,"Delta":46806920},{"NoteNumber":61,"Velocity":45,"Duration":154911,"SoundDuration":154911,"Delta":46972318},{"NoteNumber":64,"Velocity":45,"Duration":156346,"SoundDuration":156346,"Delta":47127230},{"NoteNumber":52,"Velocity":37,"Duration":314022,"SoundDuration":314022,"Delta":47127230},{"NoteNumber":68,"Velocity":45,"Duration":157675,"SoundDuration":157675,"Delta":47283576},{"NoteNumber":64,"Velocity":48,"Duration":159299,"SoundDuration":159299,"Delta":47441252},{"NoteNumber":51,"Velocity":38,"Duration":314856,"SoundDuration":314856,"Delta":47441252},{"NoteNumber":61,"Velocity":45,"Duration":155556,"SoundDuration":155556,"Delta":47600552},{"NoteNumber":64,"Velocity":45,"Duration":156479,"SoundDuration":156479,"Delta":47756108},{"NoteNumber":49,"Velocity":37,"Duration":313886,"SoundDuration":313886,"Delta":47756108},{"NoteNumber":69,"Velocity":45,"Duration":157406,"SoundDuration":157406,"Delta":47912587},{"NoteNumber":63,"Velocity":47,"Duration":158345,"SoundDuration":158345,"Delta":48069994},{"NoteNumber":47,"Velocity":40,"Duration":313000,"SoundDuration":313000,"Delta":48069994},{"NoteNumber":59,"Velocity":45,"Duration":154654,"SoundDuration":154654,"Delta":48228340},{"NoteNumber":63,"Velocity":45,"Duration":155556,"SoundDuration":155556,"Delta":48382995},{"NoteNumber":51,"Velocity":38,"Duration":312035,"SoundDuration":312035,"Delta":48382995},{"NoteNumber":69,"Velocity":45,"Duration":156479,"SoundDuration":156479,"Delta":48538551},{"NoteNumber":63,"Velocity":47,"Duration":157406,"SoundDuration":157406,"Delta":48695030},{"NoteNumber":56,"Velocity":40,"Duration":312963,"SoundDuration":312963,"Delta":48695030},{"NoteNumber":59,"Velocity":45,"Duration":155556,"SoundDuration":155556,"Delta":48852437},{"NoteNumber":63,"Velocity":45,"Duration":156479,"SoundDuration":156479,"Delta":49007994},{"NoteNumber":47,"Velocity":37,"Duration":314021,"SoundDuration":314021,"Delta":49007994},{"NoteNumber":68,"Velocity":45,"Duration":157541,"SoundDuration":157541,"Delta":49164473},{"NoteNumber":68,"Velocity":49,"Duration":158616,"SoundDuration":158616,"Delta":49322015},{"NoteNumber":45,"Velocity":41,"Duration":313400,"SoundDuration":313400,"Delta":49322015},{"NoteNumber":61,"Velocity":47,"Duration":154783,"SoundDuration":154783,"Delta":49480632},{"NoteNumber":68,"Velocity":47,"Duration":155688,"SoundDuration":155688,"Delta":49635415},{"NoteNumber":49,"Velocity":38,"Duration":312429,"SoundDuration":312429,"Delta":49635415},{"NoteNumber":73,"Velocity":47,"Duration":156740,"SoundDuration":156740,"Delta":49791104},{"NoteNumber":66,"Velocity":49,"Duration":157810,"SoundDuration":157810,"Delta":49947844},{"NoteNumber":47,"Velocity":38,"Duration":313234,"SoundDuration":313234,"Delta":49947844},{"NoteNumber":63,"Velocity":47,"Duration":155424,"SoundDuration":155424,"Delta":50105655},{"NoteNumber":66,"Velocity":47,"Duration":156348,"SoundDuration":156348,"Delta":50261079},{"NoteNumber":45,"Velocity":39,"Duration":313485,"SoundDuration":313485,"Delta":50261079},{"NoteNumber":73,"Velocity":47,"Duration":157137,"SoundDuration":157137,"Delta":50417427},{"NoteNumber":68,"Velocity":50,"Duration":156546,"SoundDuration":156546,"Delta":50574564},{"NoteNumber":44,"Velocity":40,"Duration":311329,"SoundDuration":311329,"Delta":50574564},{"NoteNumber":64,"Velocity":47,"Duration":154783,"SoundDuration":154783,"Delta":50731110},{"NoteNumber":68,"Velocity":47,"Duration":155820,"SoundDuration":155820,"Delta":50885894},{"NoteNumber":47,"Velocity":39,"Duration":312561,"SoundDuration":312561,"Delta":50885894},{"NoteNumber":73,"Velocity":47,"Duration":156740,"SoundDuration":156740,"Delta":51041715},{"NoteNumber":68,"Velocity":49,"Duration":158078,"SoundDuration":158078,"Delta":51198455},{"NoteNumber":52,"Velocity":41,"Duration":312861,"SoundDuration":312861,"Delta":51198455},{"NoteNumber":64,"Velocity":48,"Duration":154783,"SoundDuration":154783,"Delta":51356534},{"NoteNumber":68,"Velocity":48,"Duration":155688,"SoundDuration":155688,"Delta":51511317},{"NoteNumber":44,"Velocity":39,"Duration":312429,"SoundDuration":312429,"Delta":51511317},{"NoteNumber":71,"Velocity":48,"Duration":156740,"SoundDuration":156740,"Delta":51667006},{"NoteNumber":67,"Velocity":54,"Duration":157810,"SoundDuration":157810,"Delta":51823747},{"NoteNumber":40,"Velocity":41,"Duration":312849,"SoundDuration":312849,"Delta":51823747},{"NoteNumber":64,"Velocity":47,"Duration":155039,"SoundDuration":155039,"Delta":51981557},{"NoteNumber":67,"Velocity":48,"Duration":156609,"SoundDuration":156609,"Delta":52136596},{"NoteNumber":52,"Velocity":37,"Duration":156609,"SoundDuration":156609,"Delta":52136596},{"NoteNumber":70,"Velocity":50,"Duration":158212,"SoundDuration":158212,"Delta":52293206},{"NoteNumber":51,"Velocity":37,"Duration":158212,"SoundDuration":158212,"Delta":52293206},{"NoteNumber":76,"Velocity":52,"Duration":159983,"SoundDuration":159983,"Delta":52451419},{"NoteNumber":49,"Velocity":36,"Duration":314895,"SoundDuration":314895,"Delta":52451419},{"NoteNumber":70,"Velocity":48,"Duration":154911,"SoundDuration":154911,"Delta":52611403},{"NoteNumber":76,"Velocity":49,"Duration":155953,"SoundDuration":155953,"Delta":52766314},{"NoteNumber":48,"Velocity":38,"Duration":313225,"SoundDuration":313225,"Delta":52766314},{"NoteNumber":79,"Velocity":51,"Duration":157272,"SoundDuration":157272,"Delta":52922267},{"NoteNumber":75,"Velocity":51,"Duration":158345,"SoundDuration":158345,"Delta":53079539},{"NoteNumber":47,"Velocity":43,"Duration":312223,"SoundDuration":312223,"Delta":53079539},{"NoteNumber":79,"Velocity":49,"Duration":153877,"SoundDuration":153877,"Delta":53237885},{"NoteNumber":75,"Velocity":50,"Duration":154525,"SoundDuration":154525,"Delta":53391763},{"NoteNumber":54,"Velocity":39,"Duration":309821,"SoundDuration":309821,"Delta":53391763},{"NoteNumber":78,"Velocity":48,"Duration":155296,"SoundDuration":155296,"Delta":53546288},{"NoteNumber":69,"Velocity":49,"Duration":156085,"SoundDuration":156085,"Delta":53701584},{"NoteNumber":59,"Velocity":47,"Duration":312956,"SoundDuration":312956,"Delta":53701584},{"NoteNumber":76,"Velocity":48,"Duration":156871,"SoundDuration":156871,"Delta":53857669},{"NoteNumber":69,"Velocity":49,"Duration":157676,"SoundDuration":157676,"Delta":54014541},{"NoteNumber":47,"Velocity":34,"Duration":316156,"SoundDuration":316156,"Delta":54014541},{"NoteNumber":75,"Velocity":48,"Duration":158479,"SoundDuration":158479,"Delta":54172218},{"NoteNumber":69,"Velocity":47,"Duration":159301,"SoundDuration":159301,"Delta":54330697},{"NoteNumber":48,"Velocity":36,"Duration":319284,"SoundDuration":319284,"Delta":54330697},{"NoteNumber":78,"Velocity":44,"Duration":159983,"SoundDuration":159983,"Delta":54489998},{"NoteNumber":68,"Velocity":47,"Duration":160818,"SoundDuration":160818,"Delta":54649982},{"NoteNumber":49,"Velocity":31,"Duration":322474,"SoundDuration":322474,"Delta":54649982},{"NoteNumber":76,"Velocity":44,"Duration":161656,"SoundDuration":161656,"Delta":54810801},{"NoteNumber":64,"Velocity":46,"Duration":162508,"SoundDuration":162508,"Delta":54972457},{"NoteNumber":44,"Velocity":36,"Duration":325872,"SoundDuration":325872,"Delta":54972457},{"NoteNumber":73,"Velocity":44,"Duration":163364,"SoundDuration":163364,"Delta":55134966},{"NoteNumber":61,"Velocity":45,"Duration":164234,"SoundDuration":164234,"Delta":55298330},{"NoteNumber":45,"Velocity":32,"Duration":329342,"SoundDuration":329342,"Delta":55298330},{"NoteNumber":69,"Velocity":44,"Duration":165108,"SoundDuration":165108,"Delta":55462564},{"NoteNumber":59,"Velocity":45,"Duration":157894,"SoundDuration":157894,"Delta":55627672},{"NoteNumber":47,"Velocity":36,"Duration":315789,"SoundDuration":315789,"Delta":55627672},{"NoteNumber":68,"Velocity":44,"Duration":157894,"SoundDuration":157894,"Delta":55785567},{"NoteNumber":64,"Velocity":45,"Duration":157894,"SoundDuration":157894,"Delta":55943462},{"NoteNumber":56,"Velocity":34,"Duration":315789,"SoundDuration":315789,"Delta":55943462},{"NoteNumber":71,"Velocity":44,"Duration":157894,"SoundDuration":157894,"Delta":56101357},{"NoteNumber":59,"Velocity":45,"Duration":158161,"SoundDuration":158161,"Delta":56259251},{"NoteNumber":47,"Velocity":36,"Duration":315042,"SoundDuration":315042,"Delta":56259251},{"NoteNumber":69,"Velocity":44,"Duration":156881,"SoundDuration":156881,"Delta":56417413},{"NoteNumber":63,"Velocity":45,"Duration":155546,"SoundDuration":155546,"Delta":56574294},{"NoteNumber":57,"Velocity":32,"Duration":309640,"SoundDuration":309640,"Delta":56574294},{"NoteNumber":71,"Velocity":44,"Duration":154094,"SoundDuration":154094,"Delta":56729840},{"NoteNumber":69,"Velocity":45,"Duration":458428,"SoundDuration":458428,"Delta":56883935},{"NoteNumber":47,"Velocity":36,"Duration":305105,"SoundDuration":305105,"Delta":56883935},{"NoteNumber":63,"Velocity":43,"Duration":152424,"SoundDuration":152424,"Delta":57036616},{"NoteNumber":59,"Velocity":43,"Duration":153322,"SoundDuration":153322,"Delta":57189041},{"NoteNumber":54,"Velocity":31,"Duration":307546,"SoundDuration":307546,"Delta":57189041},{"NoteNumber":69,"Velocity":45,"Duration":154223,"SoundDuration":154223,"Delta":57342364},{"NoteNumber":68,"Velocity":45,"Duration":155282,"SoundDuration":155282,"Delta":57496588},{"NoteNumber":52,"Velocity":37,"Duration":311490,"SoundDuration":311490,"Delta":57496588},{"NoteNumber":59,"Velocity":42,"Duration":156207,"SoundDuration":156207,"Delta":57651870},{"NoteNumber":64,"Velocity":44,"Duration":153733,"SoundDuration":153733,"Delta":57808078},{"NoteNumber":49,"Velocity":32,"Duration":153733,"SoundDuration":153733,"Delta":57808078},{"NoteNumber":66,"Velocity":45,"Duration":153451,"SoundDuration":153451,"Delta":57961812},{"NoteNumber":51,"Velocity":32,"Duration":153451,"SoundDuration":153451,"Delta":57961812},{"NoteNumber":68,"Velocity":47,"Duration":154585,"SoundDuration":154585,"Delta":58115264},{"NoteNumber":52,"Velocity":36,"Duration":307598,"SoundDuration":307598,"Delta":58115264},{"NoteNumber":64,"Velocity":43,"Duration":153012,"SoundDuration":153012,"Delta":58269849},{"NoteNumber":68,"Velocity":45,"Duration":153867,"SoundDuration":153867,"Delta":58422862},{"NoteNumber":56,"Velocity":33,"Duration":308220,"SoundDuration":308220,"Delta":58422862},{"NoteNumber":76,"Velocity":44,"Duration":154352,"SoundDuration":154352,"Delta":58576730},{"NoteNumber":68,"Velocity":47,"Duration":157381,"SoundDuration":157381,"Delta":58731082},{"NoteNumber":53,"Velocity":36,"Duration":314762,"SoundDuration":314762,"Delta":58731082},{"NoteNumber":75,"Velocity":44,"Duration":157381,"SoundDuration":157381,"Delta":58888464},{"NoteNumber":68,"Velocity":48,"Duration":157381,"SoundDuration":157381,"Delta":59045845},{"NoteNumber":61,"Velocity":33,"Duration":314762,"SoundDuration":314762,"Delta":59045845},{"NoteNumber":73,"Velocity":44,"Duration":157381,"SoundDuration":157381,"Delta":59203226},{"NoteNumber":69,"Velocity":48,"Duration":158394,"SoundDuration":158394,"Delta":59360607},{"NoteNumber":54,"Velocity":36,"Duration":312272,"SoundDuration":312272,"Delta":59360607},{"NoteNumber":61,"Velocity":44,"Duration":153877,"SoundDuration":153877,"Delta":59519002},{"NoteNumber":69,"Velocity":46,"Duration":154374,"SoundDuration":154374,"Delta":59672880},{"NoteNumber":42,"Velocity":32,"Duration":309238,"SoundDuration":309238,"Delta":59672880},{"NoteNumber":73,"Velocity":46,"Duration":154863,"SoundDuration":154863,"Delta":59827255},{"NoteNumber":68,"Velocity":47,"Duration":155343,"SoundDuration":155343,"Delta":59982118},{"NoteNumber":44,"Velocity":32,"Duration":308606,"SoundDuration":308606,"Delta":59982118},{"NoteNumber":71,"Velocity":43,"Duration":153262,"SoundDuration":153262,"Delta":60137462},{"NoteNumber":66,"Velocity":45,"Duration":154126,"SoundDuration":154126,"Delta":60290724},{"NoteNumber":45,"Velocity":33,"Duration":309109,"SoundDuration":309109,"Delta":60290724},{"NoteNumber":69,"Velocity":43,"Duration":154983,"SoundDuration":154983,"Delta":60444851},{"NoteNumber":64,"Velocity":45,"Duration":178077,"SoundDuration":178077,"Delta":60599834},{"NoteNumber":44,"Velocity":36,"Duration":353886,"SoundDuration":353886,"Delta":60599834},{"NoteNumber":56,"Velocity":43,"Duration":175808,"SoundDuration":175808,"Delta":60777912},{"NoteNumber":64,"Velocity":43,"Duration":176388,"SoundDuration":176388,"Delta":60953720},{"NoteNumber":49,"Velocity":31,"Duration":353345,"SoundDuration":353345,"Delta":60953720},{"NoteNumber":68,"Velocity":43,"Duration":176957,"SoundDuration":176957,"Delta":61130109},{"NoteNumber":61,"Velocity":45,"Duration":177514,"SoundDuration":177514,"Delta":61307066},{"NoteNumber":44,"Velocity":34,"Duration":353323,"SoundDuration":353323,"Delta":61307066},{"NoteNumber":55,"Velocity":40,"Duration":175808,"SoundDuration":175808,"Delta":61484581},{"NoteNumber":61,"Velocity":41,"Duration":176678,"SoundDuration":176678,"Delta":61660390},{"NoteNumber":52,"Velocity":32,"Duration":354193,"SoundDuration":354193,"Delta":61660390},{"NoteNumber":69,"Velocity":41,"Duration":177514,"SoundDuration":177514,"Delta":61837068},{"NoteNumber":63,"Velocity":43,"Duration":190331,"SoundDuration":190331,"Delta":62014583},{"NoteNumber":44,"Velocity":32,"Duration":377924,"SoundDuration":377924,"Delta":62014583},{"NoteNumber":54,"Velocity":39,"Duration":187593,"SoundDuration":187593,"Delta":62204914},{"NoteNumber":63,"Velocity":39,"Duration":187593,"SoundDuration":187593,"Delta":62392508},{"NoteNumber":49,"Velocity":31,"Duration":375187,"SoundDuration":375187,"Delta":62392508},{"NoteNumber":68,"Velocity":39,"Duration":187593,"SoundDuration":187593,"Delta":62580102},{"NoteNumber":63,"Velocity":42,"Duration":187593,"SoundDuration":187593,"Delta":62767695},{"NoteNumber":44,"Velocity":32,"Duration":375187,"SoundDuration":375187,"Delta":62767695},{"NoteNumber":54,"Velocity":38,"Duration":187593,"SoundDuration":187593,"Delta":62955289},{"NoteNumber":63,"Velocity":38,"Duration":187593,"SoundDuration":187593,"Delta":63142883},{"NoteNumber":48,"Velocity":29,"Duration":375187,"SoundDuration":375187,"Delta":63142883},{"NoteNumber":68,"Velocity":38,"Duration":187593,"SoundDuration":187593,"Delta":63330477},{"NoteNumber":61,"Velocity":38,"Duration":175808,"SoundDuration":175808,"Delta":63518070},{"NoteNumber":49,"Velocity":38,"Duration":351617,"SoundDuration":351617,"Delta":63518070},{"NoteNumber":52,"Velocity":35,"Duration":175808,"SoundDuration":175808,"Delta":63693879},{"NoteNumber":61,"Velocity":35,"Duration":175808,"SoundDuration":175808,"Delta":63869688},{"NoteNumber":64,"Velocity":35,"Duration":175808,"SoundDuration":175808,"Delta":64045497},{"NoteNumber":44,"Velocity":38,"Duration":175808,"SoundDuration":175808,"Delta":64221305},{"NoteNumber":37,"Velocity":35,"Duration":175808,"SoundDuration":175808,"Delta":64397114},{"NoteNumber":44,"Velocity":35,"Duration":175808,"SoundDuration":175808,"Delta":64572923},{"NoteNumber":49,"Velocity":36,"Duration":175808,"SoundDuration":175808,"Delta":64748732},{"NoteNumber":61,"Velocity":38,"Duration":175808,"SoundDuration":175808,"Delta":64924540},{"NoteNumber":45,"Velocity":38,"Duration":351617,"SoundDuration":351617,"Delta":64924540},{"NoteNumber":52,"Velocity":34,"Duration":175808,"SoundDuration":175808,"Delta":65100349},{"NoteNumber":61,"Velocity":34,"Duration":175808,"SoundDuration":175808,"Delta":65276158},{"NoteNumber":64,"Velocity":34,"Duration":175808,"SoundDuration":175808,"Delta":65451967},{"NoteNumber":40,"Velocity":38,"Duration":175808,"SoundDuration":175808,"Delta":65627775},{"NoteNumber":33,"Velocity":35,"Duration":175808,"SoundDuration":175808,"Delta":65803584},{"NoteNumber":40,"Velocity":35,"Duration":175808,"SoundDuration":175808,"Delta":65979393},{"NoteNumber":45,"Velocity":35,"Duration":175808,"SoundDuration":175808,"Delta":66155202},{"NoteNumber":62,"Velocity":38,"Duration":151362,"SoundDuration":151362,"Delta":66331010},{"NoteNumber":42,"Velocity":38,"Duration":302724,"SoundDuration":302724,"Delta":66331010},{"NoteNumber":57,"Velocity":36,"Duration":151362,"SoundDuration":151362,"Delta":66482373},{"NoteNumber":62,"Velocity":36,"Duration":151362,"SoundDuration":151362,"Delta":66633735},{"NoteNumber":66,"Velocity":36,"Duration":151362,"SoundDuration":151362,"Delta":66785097},{"NoteNumber":66,"Velocity":35,"Duration":151607,"SoundDuration":151607,"Delta":66936459},{"NoteNumber":50,"Velocity":36,"Duration":151607,"SoundDuration":151607,"Delta":66936459},{"NoteNumber":69,"Velocity":39,"Duration":152584,"SoundDuration":152584,"Delta":67088067},{"NoteNumber":54,"Velocity":37,"Duration":152584,"SoundDuration":152584,"Delta":67088067},{"NoteNumber":74,"Velocity":42,"Duration":153547,"SoundDuration":153547,"Delta":67240652},{"NoteNumber":57,"Velocity":41,"Duration":153547,"SoundDuration":153547,"Delta":67240652},{"NoteNumber":78,"Velocity":46,"Duration":168399,"SoundDuration":168399,"Delta":67394199},{"NoteNumber":62,"Velocity":44,"Duration":168399,"SoundDuration":168399,"Delta":67394199},{"NoteNumber":81,"Velocity":49,"Duration":337078,"SoundDuration":337078,"Delta":67562599},{"NoteNumber":66,"Velocity":46,"Duration":337078,"SoundDuration":337078,"Delta":67562599},{"NoteNumber":74,"Velocity":36,"Duration":168539,"SoundDuration":168539,"Delta":67731138},{"NoteNumber":69,"Velocity":37,"Duration":168539,"SoundDuration":168539,"Delta":67899677},{"NoteNumber":78,"Velocity":44,"Duration":337078,"SoundDuration":337078,"Delta":67899677},{"NoteNumber":54,"Velocity":44,"Duration":337078,"SoundDuration":337078,"Delta":67899677},{"NoteNumber":62,"Velocity":44,"Duration":337078,"SoundDuration":337078,"Delta":67899677},{"NoteNumber":71,"Velocity":37,"Duration":168539,"SoundDuration":168539,"Delta":68068216},{"NoteNumber":73,"Velocity":35,"Duration":168539,"SoundDuration":168539,"Delta":68236756},{"NoteNumber":76,"Velocity":42,"Duration":337078,"SoundDuration":337078,"Delta":68236756},{"NoteNumber":56,"Velocity":41,"Duration":337078,"SoundDuration":337078,"Delta":68236756},{"NoteNumber":64,"Velocity":41,"Duration":337078,"SoundDuration":337078,"Delta":68236756},{"NoteNumber":68,"Velocity":35,"Duration":168539,"SoundDuration":168539,"Delta":68405295},{"NoteNumber":72,"Velocity":35,"Duration":168539,"SoundDuration":168539,"Delta":68573834},{"NoteNumber":75,"Velocity":40,"Duration":337078,"SoundDuration":337078,"Delta":68573834},{"NoteNumber":56,"Velocity":39,"Duration":337078,"SoundDuration":337078,"Delta":68573834},{"NoteNumber":66,"Velocity":39,"Duration":337078,"SoundDuration":337078,"Delta":68573834},{"NoteNumber":68,"Velocity":35,"Duration":168539,"SoundDuration":168539,"Delta":68742373},{"NoteNumber":73,"Velocity":38,"Duration":154958,"SoundDuration":154958,"Delta":68910913},{"NoteNumber":64,"Velocity":36,"Duration":148502,"SoundDuration":148502,"Delta":68910913},{"NoteNumber":61,"Velocity":36,"Duration":309917,"SoundDuration":309917,"Delta":68910913},{"NoteNumber":64,"Velocity":34,"Duration":154958,"SoundDuration":154958,"Delta":69065871},{"NoteNumber":73,"Velocity":34,"Duration":154958,"SoundDuration":154958,"Delta":69220830},{"NoteNumber":76,"Velocity":34,"Duration":154958,"SoundDuration":154958,"Delta":69375789},{"NoteNumber":56,"Velocity":38,"Duration":154958,"SoundDuration":154958,"Delta":69530748},{"NoteNumber":49,"Velocity":35,"Duration":154958,"SoundDuration":154958,"Delta":69685706},{"NoteNumber":56,"Velocity":35,"Duration":154958,"SoundDuration":154958,"Delta":69840665},{"NoteNumber":61,"Velocity":35,"Duration":154958,"SoundDuration":154958,"Delta":69995624},{"NoteNumber":73,"Velocity":38,"Duration":154958,"SoundDuration":154958,"Delta":70150583},{"NoteNumber":57,"Velocity":36,"Duration":309917,"SoundDuration":309917,"Delta":70150583},{"NoteNumber":64,"Velocity":33,"Duration":154958,"SoundDuration":154958,"Delta":70305541},{"NoteNumber":73,"Velocity":33,"Duration":154958,"SoundDuration":154958,"Delta":70460500},{"NoteNumber":76,"Velocity":33,"Duration":154958,"SoundDuration":154958,"Delta":70615459},{"NoteNumber":52,"Velocity":38,"Duration":154958,"SoundDuration":154958,"Delta":70770418},{"NoteNumber":45,"Velocity":32,"Duration":154958,"SoundDuration":154958,"Delta":70925376},{"NoteNumber":52,"Velocity":32,"Duration":154958,"SoundDuration":154958,"Delta":71080335},{"NoteNumber":57,"Velocity":32,"Duration":154958,"SoundDuration":154958,"Delta":71235294},{"NoteNumber":74,"Velocity":38,"Duration":148221,"SoundDuration":148221,"Delta":71390253},{"NoteNumber":54,"Velocity":38,"Duration":296442,"SoundDuration":296442,"Delta":71390253},{"NoteNumber":69,"Velocity":39,"Duration":148221,"SoundDuration":148221,"Delta":71538474},{"NoteNumber":74,"Velocity":44,"Duration":148221,"SoundDuration":148221,"Delta":71686695},{"NoteNumber":57,"Velocity":41,"Duration":148221,"SoundDuration":148221,"Delta":71686695},{"NoteNumber":78,"Velocity":49,"Duration":148221,"SoundDuration":148221,"Delta":71834916},{"NoteNumber":62,"Velocity":47,"Duration":148221,"SoundDuration":148221,"Delta":71834916},{"NoteNumber":81,"Velocity":55,"Duration":147764,"SoundDuration":147764,"Delta":71983138},{"NoteNumber":66,"Velocity":53,"Duration":147764,"SoundDuration":147764,"Delta":71983138},{"NoteNumber":78,"Velocity":53,"Duration":148941,"SoundDuration":148941,"Delta":72130902},{"NoteNumber":62,"Velocity":50,"Duration":148941,"SoundDuration":148941,"Delta":72130902},{"NoteNumber":74,"Velocity":50,"Duration":150125,"SoundDuration":150125,"Delta":72279843},{"NoteNumber":57,"Velocity":48,"Duration":150125,"SoundDuration":150125,"Delta":72279843},{"NoteNumber":69,"Velocity":47,"Duration":172930,"SoundDuration":172930,"Delta":72429969},{"NoteNumber":54,"Velocity":46,"Duration":172930,"SoundDuration":172930,"Delta":72429969},{"NoteNumber":68,"Velocity":44,"Duration":163934,"SoundDuration":163934,"Delta":72602900},{"NoteNumber":56,"Velocity":44,"Duration":327869,"SoundDuration":327869,"Delta":72602900},{"NoteNumber":76,"Velocity":44,"Duration":163934,"SoundDuration":163934,"Delta":72766834},{"NoteNumber":64,"Velocity":48,"Duration":163934,"SoundDuration":163934,"Delta":72930769},{"NoteNumber":56,"Velocity":40,"Duration":327868,"SoundDuration":327868,"Delta":72930769},{"NoteNumber":73,"Velocity":44,"Duration":163934,"SoundDuration":163934,"Delta":73094703},{"NoteNumber":66,"Velocity":48,"Duration":163934,"SoundDuration":163934,"Delta":73258638},{"NoteNumber":56,"Velocity":40,"Duration":327869,"SoundDuration":327869,"Delta":73258638},{"NoteNumber":75,"Velocity":44,"Duration":163934,"SoundDuration":163934,"Delta":73422572},{"NoteNumber":63,"Velocity":48,"Duration":163934,"SoundDuration":163934,"Delta":73586507},{"NoteNumber":56,"Velocity":40,"Duration":327868,"SoundDuration":327868,"Delta":73586507},{"NoteNumber":72,"Velocity":44,"Duration":163934,"SoundDuration":163934,"Delta":73750441},{"NoteNumber":64,"Velocity":51,"Duration":187500,"SoundDuration":187500,"Delta":73914376},{"NoteNumber":56,"Velocity":39,"Duration":375000,"SoundDuration":375000,"Delta":73914376},{"NoteNumber":73,"Velocity":42,"Duration":187500,"SoundDuration":187500,"Delta":74101876},{"NoteNumber":61,"Velocity":43,"Duration":187500,"SoundDuration":187500,"Delta":74289376},{"NoteNumber":64,"Velocity":43,"Duration":187500,"SoundDuration":187500,"Delta":74289376},{"NoteNumber":44,"Velocity":37,"Duration":375000,"SoundDuration":375000,"Delta":74289376},{"NoteNumber":68,"Velocity":35,"Duration":187500,"SoundDuration":187500,"Delta":74476876},{"NoteNumber":63,"Velocity":38,"Duration":201324,"SoundDuration":201324,"Delta":74664376},{"NoteNumber":66,"Velocity":38,"Duration":201324,"SoundDuration":201324,"Delta":74664376},{"NoteNumber":44,"Velocity":32,"Duration":411131,"SoundDuration":411131,"Delta":74664376},{"NoteNumber":68,"Velocity":31,"Duration":209807,"SoundDuration":209807,"Delta":74865700},{"NoteNumber":60,"Velocity":34,"Duration":216624,"SoundDuration":216624,"Delta":75075507},{"NoteNumber":63,"Velocity":34,"Duration":216624,"SoundDuration":216624,"Delta":75075507},{"NoteNumber":44,"Velocity":29,"Duration":440525,"SoundDuration":440525,"Delta":75075507},{"NoteNumber":68,"Velocity":30,"Duration":223901,"SoundDuration":223901,"Delta":75292132},{"NoteNumber":65,"Velocity":36,"Duration":194805,"SoundDuration":194805,"Delta":77467253},{"NoteNumber":49,"Velocity":22,"Duration":409091,"SoundDuration":409091,"Delta":77467253},{"NoteNumber":56,"Velocity":22,"Duration":409091,"SoundDuration":409091,"Delta":77467253},{"NoteNumber":61,"Velocity":22,"Duration":409091,"SoundDuration":409091,"Delta":77467253},{"NoteNumber":68,"Velocity":36,"Duration":214285,"SoundDuration":214285,"Delta":77662058},{"NoteNumber":66,"Velocity":32,"Duration":821917,"SoundDuration":821917,"Delta":77876344},{"NoteNumber":70,"Velocity":32,"Duration":821917,"SoundDuration":821917,"Delta":77876344},{"NoteNumber":49,"Velocity":20,"Duration":821917,"SoundDuration":821917,"Delta":77876344},{"NoteNumber":56,"Velocity":20,"Duration":821917,"SoundDuration":821917,"Delta":77876344},{"NoteNumber":61,"Velocity":20,"Duration":821917,"SoundDuration":821917,"Delta":77876344},{"NoteNumber":65,"Velocity":28,"Duration":292207,"SoundDuration":292207,"Delta":78698262},{"NoteNumber":68,"Velocity":28,"Duration":292207,"SoundDuration":292207,"Delta":78698262},{"NoteNumber":49,"Velocity":18,"Duration":292207,"SoundDuration":292207,"Delta":78698262},{"NoteNumber":56,"Velocity":18,"Duration":292207,"SoundDuration":292207,"Delta":78698262},{"NoteNumber":61,"Velocity":18,"Duration":292207,"SoundDuration":292207,"Delta":78698262},{"NoteNumber":65,"Velocity":36,"Duration":194805,"SoundDuration":194805,"Delta":79087873},{"NoteNumber":49,"Velocity":19,"Duration":404595,"SoundDuration":404595,"Delta":79087873},{"NoteNumber":56,"Velocity":19,"Duration":404595,"SoundDuration":404595,"Delta":79087873},{"NoteNumber":61,"Velocity":19,"Duration":404595,"SoundDuration":404595,"Delta":79087873},{"NoteNumber":68,"Velocity":36,"Duration":209790,"SoundDuration":209790,"Delta":79282678},{"NoteNumber":66,"Velocity":33,"Duration":821917,"SoundDuration":821917,"Delta":79492468},{"NoteNumber":70,"Velocity":33,"Duration":821917,"SoundDuration":821917,"Delta":79492468},{"NoteNumber":73,"Velocity":33,"Duration":821917,"SoundDuration":821917,"Delta":79492468},{"NoteNumber":49,"Velocity":20,"Duration":821917,"SoundDuration":821917,"Delta":79492468},{"NoteNumber":56,"Velocity":20,"Duration":821917,"SoundDuration":821917,"Delta":79492468},{"NoteNumber":61,"Velocity":20,"Duration":821917,"SoundDuration":821917,"Delta":79492468},{"NoteNumber":65,"Velocity":30,"Duration":292207,"SoundDuration":292207,"Delta":80314386},{"NoteNumber":68,"Velocity":30,"Duration":292207,"SoundDuration":292207,"Delta":80314386},{"NoteNumber":49,"Velocity":18,"Duration":292207,"SoundDuration":292207,"Delta":80314386},{"NoteNumber":56,"Velocity":18,"Duration":292207,"SoundDuration":292207,"Delta":80314386},{"NoteNumber":61,"Velocity":18,"Duration":292207,"SoundDuration":292207,"Delta":80314386},{"NoteNumber":65,"Velocity":37,"Duration":194805,"SoundDuration":194805,"Delta":80703997},{"NoteNumber":68,"Velocity":37,"Duration":194805,"SoundDuration":194805,"Delta":80703997},{"NoteNumber":56,"Velocity":19,"Duration":389610,"SoundDuration":389610,"Delta":80703997},{"NoteNumber":60,"Velocity":19,"Duration":389610,"SoundDuration":389610,"Delta":80703997},{"NoteNumber":62,"Velocity":37,"Duration":194805,"SoundDuration":194805,"Delta":80898802},{"NoteNumber":63,"Velocity":39,"Duration":799999,"SoundDuration":799999,"Delta":81093607},{"NoteNumber":66,"Velocity":39,"Duration":799999,"SoundDuration":799999,"Delta":81093607},{"NoteNumber":56,"Velocity":19,"Duration":799999,"SoundDuration":799999,"Delta":81093607},{"NoteNumber":60,"Velocity":19,"Duration":799999,"SoundDuration":799999,"Delta":81093607},{"NoteNumber":66,"Velocity":36,"Duration":384615,"SoundDuration":384615,"Delta":81893607},{"NoteNumber":75,"Velocity":36,"Duration":384615,"SoundDuration":384615,"Delta":81893607},{"NoteNumber":56,"Velocity":25,"Duration":384615,"SoundDuration":384615,"Delta":81893607},{"NoteNumber":60,"Velocity":25,"Duration":384615,"SoundDuration":384615,"Delta":81893607},{"NoteNumber":68,"Velocity":39,"Duration":192307,"SoundDuration":192307,"Delta":82278223},{"NoteNumber":77,"Velocity":39,"Duration":192307,"SoundDuration":192307,"Delta":82278223},{"NoteNumber":49,"Velocity":25,"Duration":384615,"SoundDuration":384615,"Delta":82278223},{"NoteNumber":56,"Velocity":25,"Duration":384615,"SoundDuration":384615,"Delta":82278223},{"NoteNumber":61,"Velocity":25,"Duration":384615,"SoundDuration":384615,"Delta":82278223},{"NoteNumber":66,"Velocity":37,"Duration":192307,"SoundDuration":192307,"Delta":82470530},{"NoteNumber":75,"Velocity":37,"Duration":192307,"SoundDuration":192307,"Delta":82470530},{"NoteNumber":65,"Velocity":38,"Duration":799999,"SoundDuration":799999,"Delta":82662838},{"NoteNumber":73,"Velocity":38,"Duration":799999,"SoundDuration":799999,"Delta":82662838},{"NoteNumber":49,"Velocity":26,"Duration":799999,"SoundDuration":799999,"Delta":82662838},{"NoteNumber":56,"Velocity":26,"Duration":799999,"SoundDuration":799999,"Delta":82662838},{"NoteNumber":61,"Velocity":26,"Duration":799999,"SoundDuration":799999,"Delta":82662838},{"NoteNumber":65,"Velocity":31,"Duration":308219,"SoundDuration":308219,"Delta":83462838},{"NoteNumber":68,"Velocity":31,"Duration":308219,"SoundDuration":308219,"Delta":83462838},{"NoteNumber":49,"Velocity":22,"Duration":308219,"SoundDuration":308219,"Delta":83462838},{"NoteNumber":56,"Velocity":22,"Duration":308219,"SoundDuration":308219,"Delta":83462838},{"NoteNumber":61,"Velocity":22,"Duration":308219,"SoundDuration":308219,"Delta":83462838},{"NoteNumber":65,"Velocity":36,"Duration":187500,"SoundDuration":187500,"Delta":83873797},{"NoteNumber":49,"Velocity":22,"Duration":375000,"SoundDuration":375000,"Delta":83873797},{"NoteNumber":56,"Velocity":22,"Duration":375000,"SoundDuration":375000,"Delta":83873797},{"NoteNumber":61,"Velocity":22,"Duration":375000,"SoundDuration":375000,"Delta":83873797},{"NoteNumber":68,"Velocity":36,"Duration":187500,"SoundDuration":187500,"Delta":84061297},{"NoteNumber":66,"Velocity":32,"Duration":784313,"SoundDuration":784313,"Delta":84248797},{"NoteNumber":70,"Velocity":32,"Duration":784313,"SoundDuration":784313,"Delta":84248797},{"NoteNumber":49,"Velocity":21,"Duration":784313,"SoundDuration":784313,"Delta":84248797},{"NoteNumber":56,"Velocity":21,"Duration":784313,"SoundDuration":784313,"Delta":84248797},{"NoteNumber":61,"Velocity":21,"Duration":784313,"SoundDuration":784313,"Delta":84248797},{"NoteNumber":65,"Velocity":30,"Duration":283018,"SoundDuration":283018,"Delta":85033111},{"NoteNumber":68,"Velocity":30,"Duration":283018,"SoundDuration":283018,"Delta":85033111},{"NoteNumber":49,"Velocity":21,"Duration":283018,"SoundDuration":283018,"Delta":85033111},{"NoteNumber":56,"Velocity":21,"Duration":283018,"SoundDuration":283018,"Delta":85033111},{"NoteNumber":61,"Velocity":21,"Duration":283018,"SoundDuration":283018,"Delta":85033111},{"NoteNumber":65,"Velocity":36,"Duration":188679,"SoundDuration":188679,"Delta":85410470},{"NoteNumber":49,"Velocity":23,"Duration":404506,"SoundDuration":404506,"Delta":85410470},{"NoteNumber":56,"Velocity":23,"Duration":404506,"SoundDuration":404506,"Delta":85410470},{"NoteNumber":61,"Velocity":23,"Duration":404506,"SoundDuration":404506,"Delta":85410470},{"NoteNumber":68,"Velocity":36,"Duration":215827,"SoundDuration":215827,"Delta":85599149},{"NoteNumber":66,"Velocity":32,"Duration":789473,"SoundDuration":789473,"Delta":85814976},{"NoteNumber":70,"Velocity":32,"Duration":789473,"SoundDuration":789473,"Delta":85814976},{"NoteNumber":73,"Velocity":32,"Duration":789473,"SoundDuration":789473,"Delta":85814976},{"NoteNumber":49,"Velocity":21,"Duration":789473,"SoundDuration":789473,"Delta":85814976},{"NoteNumber":56,"Velocity":21,"Duration":789473,"SoundDuration":789473,"Delta":85814976},{"NoteNumber":61,"Velocity":21,"Duration":789473,"SoundDuration":789473,"Delta":85814976},{"NoteNumber":65,"Velocity":28,"Duration":283018,"SoundDuration":283018,"Delta":86604450},{"NoteNumber":68,"Velocity":28,"Duration":283018,"SoundDuration":283018,"Delta":86604450},{"NoteNumber":49,"Velocity":19,"Duration":283018,"SoundDuration":283018,"Delta":86604450},{"NoteNumber":56,"Velocity":19,"Duration":283018,"SoundDuration":283018,"Delta":86604450},{"NoteNumber":61,"Velocity":19,"Duration":283018,"SoundDuration":283018,"Delta":86604450},{"NoteNumber":65,"Velocity":37,"Duration":188679,"SoundDuration":188679,"Delta":86981809},{"NoteNumber":68,"Velocity":37,"Duration":188679,"SoundDuration":188679,"Delta":86981809},{"NoteNumber":56,"Velocity":25,"Duration":377358,"SoundDuration":377358,"Delta":86981809},{"NoteNumber":60,"Velocity":25,"Duration":377358,"SoundDuration":377358,"Delta":86981809},{"NoteNumber":62,"Velocity":37,"Duration":188679,"SoundDuration":188679,"Delta":87170488},{"NoteNumber":63,"Velocity":39,"Duration":566037,"SoundDuration":566037,"Delta":87359167},{"NoteNumber":66,"Velocity":39,"Duration":566037,"SoundDuration":566037,"Delta":87359167},{"NoteNumber":56,"Velocity":28,"Duration":750086,"SoundDuration":750086,"Delta":87359167},{"NoteNumber":60,"Velocity":28,"Duration":750086,"SoundDuration":750086,"Delta":87359167},{"NoteNumber":66,"Velocity":36,"Duration":184049,"SoundDuration":184049,"Delta":87925205},{"NoteNumber":75,"Velocity":36,"Duration":184049,"SoundDuration":184049,"Delta":87925205},{"NoteNumber":68,"Velocity":37,"Duration":184049,"SoundDuration":184049,"Delta":88109254},{"NoteNumber":77,"Velocity":37,"Duration":184049,"SoundDuration":184049,"Delta":88109254},{"NoteNumber":56,"Velocity":24,"Duration":368098,"SoundDuration":368098,"Delta":88109254},{"NoteNumber":60,"Velocity":24,"Duration":368098,"SoundDuration":368098,"Delta":88109254},{"NoteNumber":66,"Velocity":36,"Duration":184049,"SoundDuration":184049,"Delta":88293303},{"NoteNumber":75,"Velocity":36,"Duration":184049,"SoundDuration":184049,"Delta":88293303},{"NoteNumber":65,"Velocity":37,"Duration":184049,"SoundDuration":184049,"Delta":88477352},{"NoteNumber":73,"Velocity":37,"Duration":184049,"SoundDuration":184049,"Delta":88477352},{"NoteNumber":49,"Velocity":25,"Duration":368097,"SoundDuration":368097,"Delta":88477352},{"NoteNumber":56,"Velocity":25,"Duration":368097,"SoundDuration":368097,"Delta":88477352},{"NoteNumber":61,"Velocity":25,"Duration":368097,"SoundDuration":368097,"Delta":88477352},{"NoteNumber":66,"Velocity":37,"Duration":184048,"SoundDuration":184048,"Delta":88661401},{"NoteNumber":75,"Velocity":37,"Duration":184048,"SoundDuration":184048,"Delta":88661401},{"NoteNumber":65,"Velocity":40,"Duration":1249999,"SoundDuration":1249999,"Delta":88845450},{"NoteNumber":73,"Velocity":40,"Duration":1249999,"SoundDuration":1249999,"Delta":88845450},{"NoteNumber":49,"Velocity":25,"Duration":1249999,"SoundDuration":1249999,"Delta":88845450},{"NoteNumber":56,"Velocity":25,"Duration":1246527,"SoundDuration":1246527,"Delta":88845450},{"NoteNumber":61,"Velocity":25,"Duration":1249999,"SoundDuration":1249999,"Delta":88845450},{"NoteNumber":56,"Velocity":43,"Duration":200000,"SoundDuration":200000,"Delta":90095449},{"NoteNumber":32,"Velocity":40,"Duration":400000,"SoundDuration":400000,"Delta":90095449},{"NoteNumber":44,"Velocity":40,"Duration":400000,"SoundDuration":400000,"Delta":90095449},{"NoteNumber":60,"Velocity":43,"Duration":200000,"SoundDuration":200000,"Delta":90295449},{"NoteNumber":52,"Velocity":47,"Duration":816327,"SoundDuration":816327,"Delta":90495449},{"NoteNumber":56,"Velocity":47,"Duration":816327,"SoundDuration":816327,"Delta":90495449},{"NoteNumber":61,"Velocity":47,"Duration":816327,"SoundDuration":816327,"Delta":90495449},{"NoteNumber":37,"Velocity":42,"Duration":816327,"SoundDuration":816327,"Delta":90495449},{"NoteNumber":44,"Velocity":42,"Duration":816327,"SoundDuration":816327,"Delta":90495449},{"NoteNumber":51,"Velocity":38,"Duration":389610,"SoundDuration":389610,"Delta":91311776},{"NoteNumber":56,"Velocity":38,"Duration":389610,"SoundDuration":389610,"Delta":91311776},{"NoteNumber":60,"Velocity":38,"Duration":389610,"SoundDuration":389610,"Delta":91311776},{"NoteNumber":32,"Velocity":36,"Duration":389610,"SoundDuration":389610,"Delta":91311776},{"NoteNumber":44,"Velocity":36,"Duration":389610,"SoundDuration":389610,"Delta":91311776},{"NoteNumber":56,"Velocity":48,"Duration":197368,"SoundDuration":197368,"Delta":91701387},{"NoteNumber":32,"Velocity":37,"Duration":394737,"SoundDuration":394737,"Delta":91701387},{"NoteNumber":44,"Velocity":37,"Duration":394737,"SoundDuration":394737,"Delta":91701387},{"NoteNumber":60,"Velocity":48,"Duration":197368,"SoundDuration":197368,"Delta":91898755},{"NoteNumber":56,"Velocity":53,"Duration":810811,"SoundDuration":810811,"Delta":92096124},{"NoteNumber":64,"Velocity":53,"Duration":810811,"SoundDuration":810811,"Delta":92096124},{"NoteNumber":61,"Velocity":53,"Duration":810811,"SoundDuration":810811,"Delta":92096124},{"NoteNumber":37,"Velocity":45,"Duration":810811,"SoundDuration":810811,"Delta":92096124},{"NoteNumber":44,"Velocity":45,"Duration":810811,"SoundDuration":810811,"Delta":92096124},{"NoteNumber":56,"Velocity":45,"Duration":382165,"SoundDuration":382165,"Delta":92906935},{"NoteNumber":63,"Velocity":45,"Duration":382165,"SoundDuration":382165,"Delta":92906935},{"NoteNumber":60,"Velocity":45,"Duration":382165,"SoundDuration":382165,"Delta":92906935},{"NoteNumber":32,"Velocity":40,"Duration":382165,"SoundDuration":382165,"Delta":92906935},{"NoteNumber":44,"Velocity":40,"Duration":382165,"SoundDuration":382165,"Delta":92906935},{"NoteNumber":60,"Velocity":53,"Duration":201342,"SoundDuration":201342,"Delta":93289100},{"NoteNumber":63,"Velocity":53,"Duration":201342,"SoundDuration":201342,"Delta":93289100},{"NoteNumber":32,"Velocity":46,"Duration":402684,"SoundDuration":402684,"Delta":93289100},{"NoteNumber":44,"Velocity":46,"Duration":402684,"SoundDuration":402684,"Delta":93289100},{"NoteNumber":69,"Velocity":53,"Duration":201342,"SoundDuration":201342,"Delta":93490443},{"NoteNumber":61,"Velocity":56,"Duration":1052632,"SoundDuration":1052632,"Delta":93691785},{"NoteNumber":64,"Velocity":56,"Duration":1052632,"SoundDuration":1052632,"Delta":93691785},{"NoteNumber":68,"Velocity":56,"Duration":1052632,"SoundDuration":1052632,"Delta":93691785},{"NoteNumber":37,"Velocity":49,"Duration":1052632,"SoundDuration":1052632,"Delta":93691785},{"NoteNumber":44,"Velocity":49,"Duration":1052632,"SoundDuration":1052632,"Delta":93691785},{"NoteNumber":60,"Velocity":38,"Duration":618556,"SoundDuration":618556,"Delta":94744417},{"NoteNumber":63,"Velocity":38,"Duration":618556,"SoundDuration":618556,"Delta":94744417},{"NoteNumber":68,"Velocity":38,"Duration":618556,"SoundDuration":618556,"Delta":94744417},{"NoteNumber":32,"Velocity":36,"Duration":618556,"SoundDuration":618556,"Delta":94744417},{"NoteNumber":44,"Velocity":36,"Duration":618556,"SoundDuration":618556,"Delta":94744417},{"NoteNumber":59,"Velocity":25,"Duration":714285,"SoundDuration":714285,"Delta":95362973},{"NoteNumber":63,"Velocity":25,"Duration":714285,"SoundDuration":714285,"Delta":95362973},{"NoteNumber":69,"Velocity":27,"Duration":357142,"SoundDuration":357142,"Delta":95362973},{"NoteNumber":42,"Velocity":21,"Duration":714285,"SoundDuration":714285,"Delta":95362973},{"NoteNumber":47,"Velocity":21,"Duration":714285,"SoundDuration":714285,"Delta":95362973},{"NoteNumber":71,"Velocity":27,"Duration":357142,"SoundDuration":357142,"Delta":95720116},{"NoteNumber":59,"Velocity":24,"Duration":1894737,"SoundDuration":1894737,"Delta":96077259},{"NoteNumber":64,"Velocity":24,"Duration":1894737,"SoundDuration":1894737,"Delta":96077259},{"NoteNumber":68,"Velocity":26,"Duration":1894737,"SoundDuration":1894737,"Delta":96077259},{"NoteNumber":40,"Velocity":21,"Duration":1894737,"SoundDuration":1894737,"Delta":96077259},{"NoteNumber":47,"Velocity":21,"Duration":1894737,"SoundDuration":1894737,"Delta":96077259},{"NoteNumber":65,"Velocity":32,"Duration":199071,"SoundDuration":199071,"Delta":97971996},{"NoteNumber":49,"Velocity":18,"Duration":416462,"SoundDuration":416462,"Delta":97971996},{"NoteNumber":56,"Velocity":18,"Duration":416462,"SoundDuration":416462,"Delta":97971996},{"NoteNumber":61,"Velocity":18,"Duration":416462,"SoundDuration":416462,"Delta":97971996},{"NoteNumber":68,"Velocity":32,"Duration":217391,"SoundDuration":217391,"Delta":98171067},{"NoteNumber":66,"Velocity":23,"Duration":839983,"SoundDuration":839983,"Delta":98388458},{"NoteNumber":70,"Velocity":27,"Duration":839983,"SoundDuration":839983,"Delta":98388458},{"NoteNumber":49,"Velocity":18,"Duration":839983,"SoundDuration":839983,"Delta":98388458},{"NoteNumber":56,"Velocity":18,"Duration":839983,"SoundDuration":839983,"Delta":98388458},{"NoteNumber":61,"Velocity":18,"Duration":839983,"SoundDuration":839983,"Delta":98388458},{"NoteNumber":65,"Velocity":21,"Duration":292207,"SoundDuration":292207,"Delta":99228441},{"NoteNumber":68,"Velocity":25,"Duration":292207,"SoundDuration":292207,"Delta":99228441},{"NoteNumber":49,"Velocity":15,"Duration":292207,"SoundDuration":292207,"Delta":99228441},{"NoteNumber":56,"Velocity":15,"Duration":292207,"SoundDuration":292207,"Delta":99228441},{"NoteNumber":61,"Velocity":15,"Duration":292207,"SoundDuration":292207,"Delta":99228441},{"NoteNumber":65,"Velocity":32,"Duration":194805,"SoundDuration":194805,"Delta":99618052},{"NoteNumber":49,"Velocity":18,"Duration":403138,"SoundDuration":403138,"Delta":99618052},{"NoteNumber":56,"Velocity":18,"Duration":403138,"SoundDuration":403138,"Delta":99618052},{"NoteNumber":61,"Velocity":18,"Duration":403138,"SoundDuration":403138,"Delta":99618052},{"NoteNumber":68,"Velocity":32,"Duration":208333,"SoundDuration":208333,"Delta":99812857},{"NoteNumber":66,"Velocity":25,"Duration":810811,"SoundDuration":810811,"Delta":100021190},{"NoteNumber":70,"Velocity":25,"Duration":810811,"SoundDuration":810811,"Delta":100021190},{"NoteNumber":73,"Velocity":30,"Duration":810811,"SoundDuration":810811,"Delta":100021190},{"NoteNumber":49,"Velocity":18,"Duration":810811,"SoundDuration":810811,"Delta":100021190},{"NoteNumber":56,"Velocity":18,"Duration":810811,"SoundDuration":810811,"Delta":100021190},{"NoteNumber":61,"Velocity":18,"Duration":810811,"SoundDuration":810811,"Delta":100021190},{"NoteNumber":65,"Velocity":20,"Duration":277777,"SoundDuration":277777,"Delta":100832001},{"NoteNumber":68,"Velocity":24,"Duration":277777,"SoundDuration":277777,"Delta":100832001},{"NoteNumber":49,"Velocity":15,"Duration":277777,"SoundDuration":277777,"Delta":100832001},{"NoteNumber":56,"Velocity":15,"Duration":277777,"SoundDuration":277777,"Delta":100832001},{"NoteNumber":61,"Velocity":15,"Duration":277777,"SoundDuration":277777,"Delta":100832001},{"NoteNumber":65,"Velocity":28,"Duration":185185,"SoundDuration":185185,"Delta":101202372},{"NoteNumber":68,"Velocity":33,"Duration":185185,"SoundDuration":185185,"Delta":101202372},{"NoteNumber":56,"Velocity":18,"Duration":370370,"SoundDuration":370370,"Delta":101202372},{"NoteNumber":60,"Velocity":18,"Duration":370370,"SoundDuration":370370,"Delta":101202372},{"NoteNumber":62,"Velocity":33,"Duration":185185,"SoundDuration":185185,"Delta":101387557},{"NoteNumber":63,"Velocity":32,"Duration":769231,"SoundDuration":769231,"Delta":101572742},{"NoteNumber":66,"Velocity":38,"Duration":769231,"SoundDuration":769231,"Delta":101572742},{"NoteNumber":56,"Velocity":18,"Duration":769231,"SoundDuration":769231,"Delta":101572742},{"NoteNumber":60,"Velocity":18,"Duration":769231,"SoundDuration":769231,"Delta":101572742},{"NoteNumber":66,"Velocity":26,"Duration":384615,"SoundDuration":384615,"Delta":102341973},{"NoteNumber":75,"Velocity":31,"Duration":384615,"SoundDuration":384615,"Delta":102341973},{"NoteNumber":56,"Velocity":18,"Duration":384615,"SoundDuration":384615,"Delta":102341973},{"NoteNumber":60,"Velocity":18,"Duration":384615,"SoundDuration":384615,"Delta":102341973},{"NoteNumber":68,"Velocity":31,"Duration":191082,"SoundDuration":191082,"Delta":102726589},{"NoteNumber":77,"Velocity":37,"Duration":191082,"SoundDuration":191082,"Delta":102726589},{"NoteNumber":49,"Velocity":20,"Duration":382165,"SoundDuration":382165,"Delta":102726589},{"NoteNumber":56,"Velocity":20,"Duration":382165,"SoundDuration":382165,"Delta":102726589},{"NoteNumber":61,"Velocity":20,"Duration":382165,"SoundDuration":382165,"Delta":102726589},{"NoteNumber":66,"Velocity":28,"Duration":191082,"SoundDuration":191082,"Delta":102917671},{"NoteNumber":75,"Velocity":33,"Duration":191082,"SoundDuration":191082,"Delta":102917671},{"NoteNumber":65,"Velocity":34,"Duration":789473,"SoundDuration":789473,"Delta":103108754},{"NoteNumber":73,"Velocity":40,"Duration":789473,"SoundDuration":789473,"Delta":103108754},{"NoteNumber":49,"Velocity":21,"Duration":789473,"SoundDuration":789473,"Delta":103108754},{"NoteNumber":56,"Velocity":21,"Duration":789473,"SoundDuration":789473,"Delta":103108754},{"NoteNumber":61,"Velocity":21,"Duration":789473,"SoundDuration":789473,"Delta":103108754},{"NoteNumber":65,"Velocity":25,"Duration":286624,"SoundDuration":286624,"Delta":103898228},{"NoteNumber":68,"Velocity":30,"Duration":286624,"SoundDuration":286624,"Delta":103898228},{"NoteNumber":49,"Velocity":18,"Duration":286624,"SoundDuration":286624,"Delta":103898228},{"NoteNumber":56,"Velocity":18,"Duration":286624,"SoundDuration":286624,"Delta":103898228},{"NoteNumber":61,"Velocity":18,"Duration":286624,"SoundDuration":286624,"Delta":103898228},{"NoteNumber":65,"Velocity":32,"Duration":191082,"SoundDuration":191082,"Delta":104280394},{"NoteNumber":49,"Velocity":18,"Duration":391082,"SoundDuration":391082,"Delta":104280394},{"NoteNumber":56,"Velocity":18,"Duration":391082,"SoundDuration":391082,"Delta":104280394},{"NoteNumber":61,"Velocity":18,"Duration":391082,"SoundDuration":391082,"Delta":104280394},{"NoteNumber":68,"Velocity":32,"Duration":200000,"SoundDuration":200000,"Delta":104471476},{"NoteNumber":66,"Velocity":26,"Duration":779221,"SoundDuration":779221,"Delta":104671476},{"NoteNumber":70,"Velocity":31,"Duration":779221,"SoundDuration":779221,"Delta":104671476},{"NoteNumber":49,"Velocity":18,"Duration":779221,"SoundDuration":779221,"Delta":104671476},{"NoteNumber":56,"Velocity":18,"Duration":779221,"SoundDuration":779221,"Delta":104671476},{"NoteNumber":61,"Velocity":18,"Duration":779221,"SoundDuration":779221,"Delta":104671476},{"NoteNumber":65,"Velocity":25,"Duration":283018,"SoundDuration":283018,"Delta":105450697},{"NoteNumber":68,"Velocity":30,"Duration":283018,"SoundDuration":283018,"Delta":105450697},{"NoteNumber":49,"Velocity":18,"Duration":283018,"SoundDuration":283018,"Delta":105450697},{"NoteNumber":56,"Velocity":18,"Duration":283018,"SoundDuration":283018,"Delta":105450697},{"NoteNumber":61,"Velocity":18,"Duration":283018,"SoundDuration":283018,"Delta":105450697},{"NoteNumber":65,"Velocity":32,"Duration":188679,"SoundDuration":188679,"Delta":105828056},{"NoteNumber":49,"Velocity":18,"Duration":388679,"SoundDuration":388679,"Delta":105828056},{"NoteNumber":56,"Velocity":18,"Duration":388679,"SoundDuration":388679,"Delta":105828056},{"NoteNumber":61,"Velocity":18,"Duration":388679,"SoundDuration":388679,"Delta":105828056},{"NoteNumber":68,"Velocity":32,"Duration":200000,"SoundDuration":200000,"Delta":106016735},{"NoteNumber":66,"Velocity":26,"Duration":774193,"SoundDuration":774193,"Delta":106216735},{"NoteNumber":70,"Velocity":26,"Duration":774193,"SoundDuration":774193,"Delta":106216735},{"NoteNumber":73,"Velocity":31,"Duration":774193,"SoundDuration":774193,"Delta":106216735},{"NoteNumber":49,"Velocity":18,"Duration":774193,"SoundDuration":774193,"Delta":106216735},{"NoteNumber":56,"Velocity":18,"Duration":774193,"SoundDuration":774193,"Delta":106216735},{"NoteNumber":61,"Velocity":18,"Duration":774193,"SoundDuration":774193,"Delta":106216735},{"NoteNumber":65,"Velocity":22,"Duration":277777,"SoundDuration":277777,"Delta":106990929},{"NoteNumber":68,"Velocity":26,"Duration":277777,"SoundDuration":277777,"Delta":106990929},{"NoteNumber":49,"Velocity":17,"Duration":277777,"SoundDuration":277777,"Delta":106990929},{"NoteNumber":56,"Velocity":17,"Duration":277777,"SoundDuration":277777,"Delta":106990929},{"NoteNumber":61,"Velocity":17,"Duration":277777,"SoundDuration":277777,"Delta":106990929},{"NoteNumber":65,"Velocity":28,"Duration":185185,"SoundDuration":185185,"Delta":107361300},{"NoteNumber":68,"Velocity":33,"Duration":185185,"SoundDuration":185185,"Delta":107361300},{"NoteNumber":56,"Velocity":20,"Duration":382553,"SoundDuration":382553,"Delta":107361300},{"NoteNumber":60,"Velocity":20,"Duration":382553,"SoundDuration":382553,"Delta":107361300},{"NoteNumber":62,"Velocity":33,"Duration":197368,"SoundDuration":197368,"Delta":107546485},{"NoteNumber":63,"Velocity":34,"Duration":576923,"SoundDuration":576923,"Delta":107743853},{"NoteNumber":66,"Velocity":40,"Duration":576923,"SoundDuration":576923,"Delta":107743853},{"NoteNumber":56,"Velocity":22,"Duration":757646,"SoundDuration":757646,"Delta":107743853},{"NoteNumber":60,"Velocity":22,"Duration":757646,"SoundDuration":757646,"Delta":107743853},{"NoteNumber":66,"Velocity":27,"Duration":180723,"SoundDuration":180723,"Delta":108320777},{"NoteNumber":75,"Velocity":32,"Duration":180723,"SoundDuration":180723,"Delta":108320777},{"NoteNumber":68,"Velocity":28,"Duration":180723,"SoundDuration":180723,"Delta":108501500},{"NoteNumber":77,"Velocity":33,"Duration":180723,"SoundDuration":180723,"Delta":108501500},{"NoteNumber":56,"Velocity":19,"Duration":361446,"SoundDuration":361446,"Delta":108501500},{"NoteNumber":60,"Velocity":19,"Duration":361446,"SoundDuration":361446,"Delta":108501500},{"NoteNumber":66,"Velocity":27,"Duration":180723,"SoundDuration":180723,"Delta":108682223},{"NoteNumber":75,"Velocity":32,"Duration":180723,"SoundDuration":180723,"Delta":108682223},{"NoteNumber":65,"Velocity":28,"Duration":180723,"SoundDuration":180723,"Delta":108862946},{"NoteNumber":73,"Velocity":33,"Duration":180723,"SoundDuration":180723,"Delta":108862946},{"NoteNumber":49,"Velocity":20,"Duration":361446,"SoundDuration":361446,"Delta":108862946},{"NoteNumber":56,"Velocity":20,"Duration":361446,"SoundDuration":361446,"Delta":108862946},{"NoteNumber":61,"Velocity":20,"Duration":361446,"SoundDuration":361446,"Delta":108862946},{"NoteNumber":66,"Velocity":28,"Duration":180723,"SoundDuration":180723,"Delta":109043669},{"NoteNumber":75,"Velocity":33,"Duration":180723,"SoundDuration":180723,"Delta":109043669},{"NoteNumber":65,"Velocity":30,"Duration":1277320,"SoundDuration":1277320,"Delta":109224392},{"NoteNumber":73,"Velocity":36,"Duration":1277320,"SoundDuration":1277320,"Delta":109224392},{"NoteNumber":49,"Velocity":21,"Duration":1277320,"SoundDuration":1277320,"Delta":109224392},{"NoteNumber":56,"Velocity":21,"Duration":1273772,"SoundDuration":1273772,"Delta":109224392},{"NoteNumber":61,"Velocity":21,"Duration":1277320,"SoundDuration":1277320,"Delta":109224392},{"NoteNumber":56,"Velocity":36,"Duration":195261,"SoundDuration":195261,"Delta":110501712},{"NoteNumber":32,"Velocity":30,"Duration":390523,"SoundDuration":390523,"Delta":110501712},{"NoteNumber":44,"Velocity":30,"Duration":390523,"SoundDuration":390523,"Delta":110501712},{"NoteNumber":60,"Velocity":36,"Duration":195261,"SoundDuration":195261,"Delta":110696974},{"NoteNumber":52,"Velocity":36,"Duration":806776,"SoundDuration":806776,"Delta":110892236},{"NoteNumber":56,"Velocity":36,"Duration":806776,"SoundDuration":806776,"Delta":110892236},{"NoteNumber":61,"Velocity":39,"Duration":806776,"SoundDuration":806776,"Delta":110892236},{"NoteNumber":37,"Velocity":32,"Duration":806776,"SoundDuration":806776,"Delta":110892236},{"NoteNumber":44,"Velocity":32,"Duration":806776,"SoundDuration":806776,"Delta":110892236},{"NoteNumber":51,"Velocity":29,"Duration":390523,"SoundDuration":390523,"Delta":111699013},{"NoteNumber":56,"Velocity":29,"Duration":390523,"SoundDuration":390523,"Delta":111699013},{"NoteNumber":60,"Velocity":31,"Duration":390523,"SoundDuration":390523,"Delta":111699013},{"NoteNumber":32,"Velocity":27,"Duration":390523,"SoundDuration":390523,"Delta":111699013},{"NoteNumber":44,"Velocity":27,"Duration":390523,"SoundDuration":390523,"Delta":111699013},{"NoteNumber":56,"Velocity":39,"Duration":195261,"SoundDuration":195261,"Delta":112089536},{"NoteNumber":32,"Velocity":30,"Duration":390523,"SoundDuration":390523,"Delta":112089536},{"NoteNumber":44,"Velocity":30,"Duration":390523,"SoundDuration":390523,"Delta":112089536},{"NoteNumber":60,"Velocity":39,"Duration":195261,"SoundDuration":195261,"Delta":112284798},{"NoteNumber":56,"Velocity":40,"Duration":794702,"SoundDuration":794702,"Delta":112480060},{"NoteNumber":64,"Velocity":44,"Duration":794702,"SoundDuration":794702,"Delta":112480060},{"NoteNumber":61,"Velocity":40,"Duration":794702,"SoundDuration":794702,"Delta":112480060},{"NoteNumber":37,"Velocity":34,"Duration":794702,"SoundDuration":794702,"Delta":112480060},{"NoteNumber":44,"Velocity":34,"Duration":794702,"SoundDuration":794702,"Delta":112480060},{"NoteNumber":56,"Velocity":34,"Duration":390523,"SoundDuration":390523,"Delta":113274762},{"NoteNumber":63,"Velocity":37,"Duration":390523,"SoundDuration":390523,"Delta":113274762},{"NoteNumber":60,"Velocity":34,"Duration":390523,"SoundDuration":390523,"Delta":113274762},{"NoteNumber":32,"Velocity":30,"Duration":390523,"SoundDuration":390523,"Delta":113274762},{"NoteNumber":44,"Velocity":30,"Duration":390523,"SoundDuration":390523,"Delta":113274762},{"NoteNumber":60,"Velocity":40,"Duration":195261,"SoundDuration":195261,"Delta":113665285},{"NoteNumber":63,"Velocity":44,"Duration":195261,"SoundDuration":195261,"Delta":113665285},{"NoteNumber":32,"Velocity":34,"Duration":390523,"SoundDuration":390523,"Delta":113665285},{"NoteNumber":44,"Velocity":34,"Duration":390523,"SoundDuration":390523,"Delta":113665285},{"NoteNumber":69,"Velocity":44,"Duration":195261,"SoundDuration":195261,"Delta":113860547},{"NoteNumber":61,"Velocity":44,"Duration":1008403,"SoundDuration":1008403,"Delta":114055809},{"NoteNumber":64,"Velocity":44,"Duration":1008403,"SoundDuration":1008403,"Delta":114055809},{"NoteNumber":68,"Velocity":48,"Duration":1008403,"SoundDuration":1008403,"Delta":114055809},{"NoteNumber":37,"Velocity":36,"Duration":1008403,"SoundDuration":1008403,"Delta":114055809},{"NoteNumber":44,"Velocity":36,"Duration":1008403,"SoundDuration":1008403,"Delta":114055809},{"NoteNumber":60,"Velocity":35,"Duration":594059,"SoundDuration":594059,"Delta":115064212},{"NoteNumber":63,"Velocity":35,"Duration":594059,"SoundDuration":594059,"Delta":115064212},{"NoteNumber":68,"Velocity":38,"Duration":594059,"SoundDuration":594059,"Delta":115064212},{"NoteNumber":32,"Velocity":31,"Duration":594059,"SoundDuration":594059,"Delta":115064212},{"NoteNumber":44,"Velocity":31,"Duration":594059,"SoundDuration":594059,"Delta":115064212},{"NoteNumber":59,"Velocity":24,"Duration":799999,"SoundDuration":799999,"Delta":115658271},{"NoteNumber":63,"Velocity":24,"Duration":799999,"SoundDuration":799999,"Delta":115658271},{"NoteNumber":69,"Velocity":26,"Duration":400000,"SoundDuration":400000,"Delta":115658271},{"NoteNumber":42,"Velocity":19,"Duration":799999,"SoundDuration":799999,"Delta":115658271},{"NoteNumber":47,"Velocity":19,"Duration":799999,"SoundDuration":799999,"Delta":115658271},{"NoteNumber":71,"Velocity":26,"Duration":399999,"SoundDuration":399999,"Delta":116058271},{"NoteNumber":59,"Velocity":24,"Duration":1323529,"SoundDuration":1323529,"Delta":116458271},{"NoteNumber":64,"Velocity":24,"Duration":1323529,"SoundDuration":1323529,"Delta":116458271},{"NoteNumber":68,"Velocity":26,"Duration":1323529,"SoundDuration":1323529,"Delta":116458271},{"NoteNumber":40,"Velocity":19,"Duration":1323529,"SoundDuration":1323529,"Delta":116458271},{"NoteNumber":47,"Velocity":19,"Duration":1323529,"SoundDuration":1323529,"Delta":116458271},{"NoteNumber":59,"Velocity":47,"Duration":370370,"SoundDuration":370370,"Delta":117781801},{"NoteNumber":64,"Velocity":47,"Duration":370370,"SoundDuration":370370,"Delta":117781801},{"NoteNumber":68,"Velocity":47,"Duration":185185,"SoundDuration":185185,"Delta":117781801},{"NoteNumber":40,"Velocity":45,"Duration":370370,"SoundDuration":370370,"Delta":117781801},{"NoteNumber":52,"Velocity":45,"Duration":370370,"SoundDuration":370370,"Delta":117781801},{"NoteNumber":69,"Velocity":47,"Duration":185185,"SoundDuration":185185,"Delta":117966986},{"NoteNumber":59,"Velocity":51,"Duration":740740,"SoundDuration":740740,"Delta":118152171},{"NoteNumber":63,"Velocity":51,"Duration":740740,"SoundDuration":740740,"Delta":118152171},{"NoteNumber":66,"Velocity":51,"Duration":740740,"SoundDuration":740740,"Delta":118152171},{"NoteNumber":35,"Velocity":48,"Duration":740740,"SoundDuration":740740,"Delta":118152171},{"NoteNumber":47,"Velocity":48,"Duration":740740,"SoundDuration":740740,"Delta":118152171},{"NoteNumber":59,"Velocity":44,"Duration":350876,"SoundDuration":350876,"Delta":118892912},{"NoteNumber":64,"Velocity":44,"Duration":350876,"SoundDuration":350876,"Delta":118892912},{"NoteNumber":68,"Velocity":44,"Duration":350876,"SoundDuration":350876,"Delta":118892912},{"NoteNumber":40,"Velocity":46,"Duration":350876,"SoundDuration":350876,"Delta":118892912},{"NoteNumber":52,"Velocity":46,"Duration":350876,"SoundDuration":350876,"Delta":118892912},{"NoteNumber":59,"Velocity":49,"Duration":350876,"SoundDuration":350876,"Delta":119243789},{"NoteNumber":64,"Velocity":49,"Duration":350876,"SoundDuration":350876,"Delta":119243789},{"NoteNumber":68,"Velocity":49,"Duration":175438,"SoundDuration":175438,"Delta":119243789},{"NoteNumber":40,"Velocity":50,"Duration":350876,"SoundDuration":350876,"Delta":119243789},{"NoteNumber":52,"Velocity":50,"Duration":350876,"SoundDuration":350876,"Delta":119243789},{"NoteNumber":69,"Velocity":49,"Duration":175438,"SoundDuration":175438,"Delta":119419228},{"NoteNumber":59,"Velocity":53,"Duration":718563,"SoundDuration":718563,"Delta":119594666},{"NoteNumber":63,"Velocity":53,"Duration":718563,"SoundDuration":718563,"Delta":119594666},{"NoteNumber":66,"Velocity":53,"Duration":718563,"SoundDuration":718563,"Delta":119594666},{"NoteNumber":35,"Velocity":53,"Duration":718563,"SoundDuration":718563,"Delta":119594666},{"NoteNumber":47,"Velocity":53,"Duration":718563,"SoundDuration":718563,"Delta":119594666},{"NoteNumber":59,"Velocity":48,"Duration":342856,"SoundDuration":342856,"Delta":120313229},{"NoteNumber":64,"Velocity":48,"Duration":342856,"SoundDuration":342856,"Delta":120313229},{"NoteNumber":68,"Velocity":48,"Duration":342856,"SoundDuration":342856,"Delta":120313229},{"NoteNumber":40,"Velocity":50,"Duration":342856,"SoundDuration":342856,"Delta":120313229},{"NoteNumber":52,"Velocity":50,"Duration":342856,"SoundDuration":342856,"Delta":120313229},{"NoteNumber":59,"Velocity":53,"Duration":342857,"SoundDuration":342857,"Delta":120656086},{"NoteNumber":63,"Velocity":53,"Duration":342857,"SoundDuration":342857,"Delta":120656086},{"NoteNumber":66,"Velocity":53,"Duration":171428,"SoundDuration":171428,"Delta":120656086},{"NoteNumber":35,"Velocity":54,"Duration":342857,"SoundDuration":342857,"Delta":120656086},{"NoteNumber":47,"Velocity":54,"Duration":342857,"SoundDuration":342857,"Delta":120656086},{"NoteNumber":68,"Velocity":53,"Duration":171428,"SoundDuration":171428,"Delta":120827515},{"NoteNumber":56,"Velocity":56,"Duration":714286,"SoundDuration":714286,"Delta":120998943},{"NoteNumber":61,"Velocity":56,"Duration":714286,"SoundDuration":714286,"Delta":120998943},{"NoteNumber":64,"Velocity":56,"Duration":714286,"SoundDuration":714286,"Delta":120998943},{"NoteNumber":37,"Velocity":58,"Duration":714286,"SoundDuration":714286,"Delta":120998943},{"NoteNumber":49,"Velocity":58,"Duration":714286,"SoundDuration":714286,"Delta":120998943},{"NoteNumber":57,"Velocity":60,"Duration":340908,"SoundDuration":340908,"Delta":121713229},{"NoteNumber":61,"Velocity":60,"Duration":340908,"SoundDuration":340908,"Delta":121713229},{"NoteNumber":66,"Velocity":60,"Duration":340908,"SoundDuration":340908,"Delta":121713229},{"NoteNumber":33,"Velocity":60,"Duration":340908,"SoundDuration":340908,"Delta":121713229},{"NoteNumber":45,"Velocity":60,"Duration":340908,"SoundDuration":340908,"Delta":121713229},{"NoteNumber":57,"Velocity":56,"Duration":346821,"SoundDuration":346821,"Delta":122054138},{"NoteNumber":63,"Velocity":56,"Duration":173410,"SoundDuration":173410,"Delta":122054138},{"NoteNumber":35,"Velocity":57,"Duration":346821,"SoundDuration":346821,"Delta":122054138},{"NoteNumber":47,"Velocity":57,"Duration":346821,"SoundDuration":346821,"Delta":122054138},{"NoteNumber":66,"Velocity":56,"Duration":173410,"SoundDuration":173410,"Delta":122227549},{"NoteNumber":56,"Velocity":52,"Duration":662650,"SoundDuration":662650,"Delta":122400959},{"NoteNumber":64,"Velocity":52,"Duration":662650,"SoundDuration":662650,"Delta":122400959},{"NoteNumber":40,"Velocity":54,"Duration":662650,"SoundDuration":662650,"Delta":122400959},{"NoteNumber":47,"Velocity":54,"Duration":662650,"SoundDuration":662650,"Delta":122400959},{"NoteNumber":68,"Velocity":45,"Duration":342856,"SoundDuration":342856,"Delta":123123851},{"NoteNumber":76,"Velocity":45,"Duration":342856,"SoundDuration":342856,"Delta":123123851},{"NoteNumber":59,"Velocity":45,"Duration":342856,"SoundDuration":342856,"Delta":123123851},{"NoteNumber":69,"Velocity":48,"Duration":342857,"SoundDuration":342857,"Delta":123466708},{"NoteNumber":76,"Velocity":48,"Duration":171428,"SoundDuration":171428,"Delta":123466708},{"NoteNumber":63,"Velocity":39,"Duration":342857,"SoundDuration":342857,"Delta":123466708},{"NoteNumber":59,"Velocity":39,"Duration":342857,"SoundDuration":342857,"Delta":123466708},{"NoteNumber":80,"Velocity":48,"Duration":171428,"SoundDuration":171428,"Delta":123638137},{"NoteNumber":69,"Velocity":51,"Duration":705882,"SoundDuration":705882,"Delta":123809565},{"NoteNumber":78,"Velocity":51,"Duration":705882,"SoundDuration":705882,"Delta":123809565},{"NoteNumber":59,"Velocity":48,"Duration":705882,"SoundDuration":705882,"Delta":123809565},{"NoteNumber":63,"Velocity":48,"Duration":705882,"SoundDuration":705882,"Delta":123809565},{"NoteNumber":66,"Velocity":47,"Duration":340908,"SoundDuration":340908,"Delta":124515447},{"NoteNumber":69,"Velocity":47,"Duration":340908,"SoundDuration":340908,"Delta":124515447},{"NoteNumber":59,"Velocity":48,"Duration":340908,"SoundDuration":340908,"Delta":124515447},{"NoteNumber":63,"Velocity":48,"Duration":340908,"SoundDuration":340908,"Delta":124515447},{"NoteNumber":64,"Velocity":53,"Duration":170454,"SoundDuration":170454,"Delta":124856356},{"NoteNumber":68,"Velocity":53,"Duration":170454,"SoundDuration":170454,"Delta":124856356},{"NoteNumber":64,"Velocity":53,"Duration":340909,"SoundDuration":340909,"Delta":124856356},{"NoteNumber":59,"Velocity":53,"Duration":340909,"SoundDuration":340909,"Delta":124856356},{"NoteNumber":66,"Velocity":53,"Duration":170454,"SoundDuration":170454,"Delta":125026811},{"NoteNumber":69,"Velocity":53,"Duration":170454,"SoundDuration":170454,"Delta":125026811},{"NoteNumber":68,"Velocity":54,"Duration":697674,"SoundDuration":697674,"Delta":125197265},{"NoteNumber":71,"Velocity":54,"Duration":697674,"SoundDuration":697674,"Delta":125197265},{"NoteNumber":59,"Velocity":54,"Duration":697674,"SoundDuration":697674,"Delta":125197265},{"NoteNumber":64,"Velocity":54,"Duration":697674,"SoundDuration":697674,"Delta":125197265},{"NoteNumber":68,"Velocity":48,"Duration":337078,"SoundDuration":337078,"Delta":125894939},{"NoteNumber":76,"Velocity":48,"Duration":337078,"SoundDuration":337078,"Delta":125894939},{"NoteNumber":59,"Velocity":47,"Duration":337078,"SoundDuration":337078,"Delta":125894939},{"NoteNumber":64,"Velocity":47,"Duration":337078,"SoundDuration":337078,"Delta":125894939},{"NoteNumber":69,"Velocity":54,"Duration":337078,"SoundDuration":337078,"Delta":126232018},{"NoteNumber":76,"Velocity":54,"Duration":168539,"SoundDuration":168539,"Delta":126232018},{"NoteNumber":63,"Velocity":51,"Duration":337078,"SoundDuration":337078,"Delta":126232018},{"NoteNumber":59,"Velocity":51,"Duration":337078,"SoundDuration":337078,"Delta":126232018},{"NoteNumber":80,"Velocity":54,"Duration":168539,"SoundDuration":168539,"Delta":126400557},{"NoteNumber":69,"Velocity":55,"Duration":685714,"SoundDuration":685714,"Delta":126569096},{"NoteNumber":78,"Velocity":55,"Duration":685714,"SoundDuration":685714,"Delta":126569096},{"NoteNumber":59,"Velocity":54,"Duration":685714,"SoundDuration":685714,"Delta":126569096},{"NoteNumber":63,"Velocity":54,"Duration":685714,"SoundDuration":685714,"Delta":126569096},{"NoteNumber":75,"Velocity":51,"Duration":333333,"SoundDuration":333333,"Delta":127254810},{"NoteNumber":69,"Velocity":51,"Duration":333333,"SoundDuration":333333,"Delta":127254810},{"NoteNumber":59,"Velocity":51,"Duration":333333,"SoundDuration":333333,"Delta":127254810},{"NoteNumber":66,"Velocity":51,"Duration":333333,"SoundDuration":333333,"Delta":127254810},{"NoteNumber":68,"Velocity":51,"Duration":166666,"SoundDuration":166666,"Delta":127588144},{"NoteNumber":76,"Velocity":51,"Duration":166666,"SoundDuration":166666,"Delta":127588144},{"NoteNumber":64,"Velocity":53,"Duration":333333,"SoundDuration":333333,"Delta":127588144},{"NoteNumber":59,"Velocity":53,"Duration":333333,"SoundDuration":333333,"Delta":127588144},{"NoteNumber":52,"Velocity":53,"Duration":333333,"SoundDuration":333333,"Delta":127588144},{"NoteNumber":69,"Velocity":51,"Duration":166666,"SoundDuration":166666,"Delta":127754810},{"NoteNumber":73,"Velocity":51,"Duration":166666,"SoundDuration":166666,"Delta":127754810},{"NoteNumber":68,"Velocity":50,"Duration":689654,"SoundDuration":689654,"Delta":127921477},{"NoteNumber":71,"Velocity":50,"Duration":689654,"SoundDuration":689654,"Delta":127921477},{"NoteNumber":59,"Velocity":53,"Duration":686781,"SoundDuration":686781,"Delta":127921477},{"NoteNumber":64,"Velocity":53,"Duration":686781,"SoundDuration":686781,"Delta":127921477},{"NoteNumber":52,"Velocity":53,"Duration":689654,"SoundDuration":689654,"Delta":127921477},{"NoteNumber":59,"Velocity":47,"Duration":344827,"SoundDuration":344827,"Delta":128611132},{"NoteNumber":68,"Velocity":47,"Duration":344827,"SoundDuration":344827,"Delta":128611132},{"NoteNumber":64,"Velocity":47,"Duration":344827,"SoundDuration":344827,"Delta":128611132},{"NoteNumber":40,"Velocity":47,"Duration":344827,"SoundDuration":344827,"Delta":128611132},{"NoteNumber":52,"Velocity":47,"Duration":344827,"SoundDuration":344827,"Delta":128611132},{"NoteNumber":59,"Velocity":60,"Duration":344827,"SoundDuration":344827,"Delta":128955960},{"NoteNumber":64,"Velocity":60,"Duration":344827,"SoundDuration":344827,"Delta":128955960},{"NoteNumber":68,"Velocity":60,"Duration":172413,"SoundDuration":172413,"Delta":128955960},{"NoteNumber":40,"Velocity":56,"Duration":344827,"SoundDuration":344827,"Delta":128955960},{"NoteNumber":52,"Velocity":56,"Duration":344827,"SoundDuration":344827,"Delta":128955960},{"NoteNumber":69,"Velocity":60,"Duration":172413,"SoundDuration":172413,"Delta":129128373},{"NoteNumber":59,"Velocity":65,"Duration":701753,"SoundDuration":701753,"Delta":129300787},{"NoteNumber":63,"Velocity":65,"Duration":701753,"SoundDuration":701753,"Delta":129300787},{"NoteNumber":66,"Velocity":65,"Duration":701753,"SoundDuration":701753,"Delta":129300787},{"NoteNumber":35,"Velocity":61,"Duration":701753,"SoundDuration":701753,"Delta":129300787},{"NoteNumber":47,"Velocity":61,"Duration":701753,"SoundDuration":701753,"Delta":129300787},{"NoteNumber":59,"Velocity":55,"Duration":340909,"SoundDuration":340909,"Delta":130002541},{"NoteNumber":64,"Velocity":55,"Duration":340909,"SoundDuration":340909,"Delta":130002541},{"NoteNumber":68,"Velocity":55,"Duration":340909,"SoundDuration":340909,"Delta":130002541},{"NoteNumber":40,"Velocity":59,"Duration":340909,"SoundDuration":340909,"Delta":130002541},{"NoteNumber":52,"Velocity":59,"Duration":340909,"SoundDuration":340909,"Delta":130002541},{"NoteNumber":59,"Velocity":62,"Duration":340908,"SoundDuration":340908,"Delta":130343450},{"NoteNumber":64,"Velocity":62,"Duration":340908,"SoundDuration":340908,"Delta":130343450},{"NoteNumber":68,"Velocity":62,"Duration":170454,"SoundDuration":170454,"Delta":130343450},{"NoteNumber":40,"Velocity":64,"Duration":340908,"SoundDuration":340908,"Delta":130343450},{"NoteNumber":52,"Velocity":64,"Duration":340908,"SoundDuration":340908,"Delta":130343450},{"NoteNumber":69,"Velocity":62,"Duration":170454,"SoundDuration":170454,"Delta":130513905},{"NoteNumber":59,"Velocity":67,"Duration":697674,"SoundDuration":697674,"Delta":130684359},{"NoteNumber":63,"Velocity":67,"Duration":697674,"SoundDuration":697674,"Delta":130684359},{"NoteNumber":66,"Velocity":67,"Duration":697674,"SoundDuration":697674,"Delta":130684359},{"NoteNumber":35,"Velocity":67,"Duration":697674,"SoundDuration":697674,"Delta":130684359},{"NoteNumber":47,"Velocity":67,"Duration":697674,"SoundDuration":697674,"Delta":130684359},{"NoteNumber":59,"Velocity":61,"Duration":348837,"SoundDuration":348837,"Delta":131382033},{"NoteNumber":64,"Velocity":61,"Duration":348837,"SoundDuration":348837,"Delta":131382033},{"NoteNumber":68,"Velocity":61,"Duration":348837,"SoundDuration":348837,"Delta":131382033},{"NoteNumber":40,"Velocity":64,"Duration":348837,"SoundDuration":348837,"Delta":131382033},{"NoteNumber":52,"Velocity":64,"Duration":348837,"SoundDuration":348837,"Delta":131382033},{"NoteNumber":59,"Velocity":67,"Duration":389610,"SoundDuration":389610,"Delta":131730870},{"NoteNumber":63,"Velocity":67,"Duration":389610,"SoundDuration":389610,"Delta":131730870},{"NoteNumber":66,"Velocity":67,"Duration":194805,"SoundDuration":194805,"Delta":131730870},{"NoteNumber":35,"Velocity":69,"Duration":389610,"SoundDuration":389610,"Delta":131730870},{"NoteNumber":47,"Velocity":69,"Duration":389610,"SoundDuration":389610,"Delta":131730870},{"NoteNumber":68,"Velocity":67,"Duration":194805,"SoundDuration":194805,"Delta":131925675},{"NoteNumber":56,"Velocity":72,"Duration":799779,"SoundDuration":799779,"Delta":132120481},{"NoteNumber":61,"Velocity":72,"Duration":799779,"SoundDuration":799779,"Delta":132120481},{"NoteNumber":64,"Velocity":72,"Duration":799779,"SoundDuration":799779,"Delta":132120481},{"NoteNumber":37,"Velocity":73,"Duration":799779,"SoundDuration":799779,"Delta":132120481},{"NoteNumber":49,"Velocity":73,"Duration":799779,"SoundDuration":799779,"Delta":132120481},{"NoteNumber":63,"Velocity":72,"Duration":200677,"SoundDuration":200677,"Delta":132920260},{"NoteNumber":57,"Velocity":72,"Duration":405464,"SoundDuration":405464,"Delta":132920260},{"NoteNumber":54,"Velocity":61,"Duration":405464,"SoundDuration":405464,"Delta":132920260},{"NoteNumber":30,"Velocity":61,"Duration":405464,"SoundDuration":405464,"Delta":132920260},{"NoteNumber":42,"Velocity":61,"Duration":405464,"SoundDuration":405464,"Delta":132920260},{"NoteNumber":61,"Velocity":70,"Duration":204786,"SoundDuration":204786,"Delta":133120937},{"NoteNumber":60,"Velocity":72,"Duration":209068,"SoundDuration":209068,"Delta":133325724},{"NoteNumber":54,"Velocity":72,"Duration":424200,"SoundDuration":424200,"Delta":133325724},{"NoteNumber":32,"Velocity":61,"Duration":424200,"SoundDuration":424200,"Delta":133325724},{"NoteNumber":44,"Velocity":61,"Duration":424200,"SoundDuration":424200,"Delta":133325724},{"NoteNumber":63,"Velocity":70,"Duration":215132,"SoundDuration":215132,"Delta":133534792},{"NoteNumber":61,"Velocity":66,"Duration":873015,"SoundDuration":873015,"Delta":133749925},{"NoteNumber":53,"Velocity":69,"Duration":873015,"SoundDuration":873015,"Delta":133749925},{"NoteNumber":37,"Velocity":58,"Duration":873015,"SoundDuration":873015,"Delta":133749925},{"NoteNumber":44,"Velocity":58,"Duration":873015,"SoundDuration":873015,"Delta":133749925},{"NoteNumber":65,"Velocity":40,"Duration":444444,"SoundDuration":444444,"Delta":134702306},{"NoteNumber":73,"Velocity":40,"Duration":444444,"SoundDuration":444444,"Delta":134702306},{"NoteNumber":56,"Velocity":28,"Duration":444444,"SoundDuration":444444,"Delta":134702306},{"NoteNumber":61,"Velocity":28,"Duration":444444,"SoundDuration":444444,"Delta":134702306},{"NoteNumber":66,"Velocity":42,"Duration":444444,"SoundDuration":444444,"Delta":135146750},{"NoteNumber":74,"Velocity":42,"Duration":222222,"SoundDuration":222222,"Delta":135146750},{"NoteNumber":60,"Velocity":29,"Duration":444444,"SoundDuration":444444,"Delta":135146750},{"NoteNumber":56,"Velocity":29,"Duration":444444,"SoundDuration":444444,"Delta":135146750},{"NoteNumber":77,"Velocity":42,"Duration":222222,"SoundDuration":222222,"Delta":135368972},{"NoteNumber":66,"Velocity":40,"Duration":810811,"SoundDuration":810811,"Delta":135591195},{"NoteNumber":75,"Velocity":40,"Duration":810811,"SoundDuration":810811,"Delta":135591195},{"NoteNumber":60,"Velocity":28,"Duration":810811,"SoundDuration":810811,"Delta":135591195},{"NoteNumber":56,"Velocity":28,"Duration":810811,"SoundDuration":810811,"Delta":135591195},{"NoteNumber":63,"Velocity":34,"Duration":389610,"SoundDuration":389610,"Delta":136402006},{"NoteNumber":66,"Velocity":34,"Duration":389610,"SoundDuration":389610,"Delta":136402006},{"NoteNumber":60,"Velocity":24,"Duration":389610,"SoundDuration":389610,"Delta":136402006},{"NoteNumber":56,"Velocity":24,"Duration":389610,"SoundDuration":389610,"Delta":136402006},{"NoteNumber":65,"Velocity":37,"Duration":194805,"SoundDuration":194805,"Delta":136791616},{"NoteNumber":61,"Velocity":26,"Duration":389610,"SoundDuration":389610,"Delta":136791616},{"NoteNumber":56,"Velocity":26,"Duration":389610,"SoundDuration":389610,"Delta":136791616},{"NoteNumber":63,"Velocity":37,"Duration":194805,"SoundDuration":194805,"Delta":136986421},{"NoteNumber":66,"Velocity":37,"Duration":194805,"SoundDuration":194805,"Delta":136986421},{"NoteNumber":65,"Velocity":40,"Duration":800000,"SoundDuration":800000,"Delta":137181227},{"NoteNumber":68,"Velocity":40,"Duration":800000,"SoundDuration":800000,"Delta":137181227},{"NoteNumber":61,"Velocity":28,"Duration":800000,"SoundDuration":800000,"Delta":137181227},{"NoteNumber":56,"Velocity":28,"Duration":800000,"SoundDuration":800000,"Delta":137181227},{"NoteNumber":73,"Velocity":38,"Duration":389610,"SoundDuration":389610,"Delta":137981227},{"NoteNumber":65,"Velocity":38,"Duration":389610,"SoundDuration":389610,"Delta":137981227},{"NoteNumber":61,"Velocity":26,"Duration":389610,"SoundDuration":389610,"Delta":137981227},{"NoteNumber":56,"Velocity":26,"Duration":389610,"SoundDuration":389610,"Delta":137981227},{"NoteNumber":66,"Velocity":40,"Duration":389610,"SoundDuration":389610,"Delta":138370837},{"NoteNumber":74,"Velocity":40,"Duration":194805,"SoundDuration":194805,"Delta":138370837},{"NoteNumber":60,"Velocity":28,"Duration":389610,"SoundDuration":389610,"Delta":138370837},{"NoteNumber":56,"Velocity":28,"Duration":389610,"SoundDuration":389610,"Delta":138370837},{"NoteNumber":77,"Velocity":40,"Duration":194805,"SoundDuration":194805,"Delta":138565642},{"NoteNumber":66,"Velocity":38,"Duration":810811,"SoundDuration":810811,"Delta":138760448},{"NoteNumber":75,"Velocity":38,"Duration":810811,"SoundDuration":810811,"Delta":138760448},{"NoteNumber":60,"Velocity":25,"Duration":810811,"SoundDuration":810811,"Delta":138760448},{"NoteNumber":56,"Velocity":25,"Duration":810811,"SoundDuration":810811,"Delta":138760448},{"NoteNumber":71,"Velocity":32,"Duration":465116,"SoundDuration":465116,"Delta":139571259},{"NoteNumber":77,"Velocity":32,"Duration":465116,"SoundDuration":465116,"Delta":139571259},{"NoteNumber":62,"Velocity":25,"Duration":465116,"SoundDuration":465116,"Delta":139571259},{"NoteNumber":56,"Velocity":25,"Duration":465116,"SoundDuration":465116,"Delta":139571259},{"NoteNumber":72,"Velocity":35,"Duration":566037,"SoundDuration":566037,"Delta":140036375},{"NoteNumber":77,"Velocity":35,"Duration":283018,"SoundDuration":283018,"Delta":140036375},{"NoteNumber":63,"Velocity":26,"Duration":566037,"SoundDuration":566037,"Delta":140036375},{"NoteNumber":56,"Velocity":26,"Duration":566037,"SoundDuration":566037,"Delta":140036375},{"NoteNumber":80,"Velocity":35,"Duration":283018,"SoundDuration":283018,"Delta":140319394},{"NoteNumber":72,"Velocity":32,"Duration":2571428,"SoundDuration":2571428,"Delta":140602413},{"NoteNumber":78,"Velocity":32,"Duration":2571428,"SoundDuration":2571428,"Delta":140602413},{"NoteNumber":63,"Velocity":23,"Duration":2571428,"SoundDuration":2571428,"Delta":140602413},{"NoteNumber":56,"Velocity":23,"Duration":2571428,"SoundDuration":2571428,"Delta":140602413},{"NoteNumber":65,"Velocity":31,"Duration":202702,"SoundDuration":202702,"Delta":143173842},{"NoteNumber":49,"Velocity":16,"Duration":421680,"SoundDuration":421680,"Delta":143173842},{"NoteNumber":56,"Velocity":16,"Duration":421680,"SoundDuration":421680,"Delta":143173842},{"NoteNumber":61,"Velocity":16,"Duration":421680,"SoundDuration":421680,"Delta":143173842},{"NoteNumber":68,"Velocity":31,"Duration":218977,"SoundDuration":218977,"Delta":143376544},{"NoteNumber":66,"Velocity":27,"Duration":839160,"SoundDuration":839160,"Delta":143595522},{"NoteNumber":70,"Velocity":29,"Duration":839160,"SoundDuration":839160,"Delta":143595522},{"NoteNumber":49,"Velocity":18,"Duration":839160,"SoundDuration":839160,"Delta":143595522},{"NoteNumber":56,"Velocity":18,"Duration":839160,"SoundDuration":839160,"Delta":143595522},{"NoteNumber":61,"Velocity":18,"Duration":839160,"SoundDuration":839160,"Delta":143595522},{"NoteNumber":65,"Velocity":25,"Duration":300000,"SoundDuration":300000,"Delta":144434683},{"NoteNumber":68,"Velocity":27,"Duration":300000,"SoundDuration":300000,"Delta":144434683},{"NoteNumber":49,"Velocity":15,"Duration":300000,"SoundDuration":300000,"Delta":144434683},{"NoteNumber":56,"Velocity":15,"Duration":300000,"SoundDuration":300000,"Delta":144434683},{"NoteNumber":61,"Velocity":15,"Duration":300000,"SoundDuration":300000,"Delta":144434683},{"NoteNumber":65,"Velocity":31,"Duration":194805,"SoundDuration":194805,"Delta":144834683},{"NoteNumber":49,"Velocity":18,"Duration":389610,"SoundDuration":389610,"Delta":144834683},{"NoteNumber":56,"Velocity":18,"Duration":389610,"SoundDuration":389610,"Delta":144834683},{"NoteNumber":61,"Velocity":18,"Duration":389610,"SoundDuration":389610,"Delta":144834683},{"NoteNumber":68,"Velocity":31,"Duration":194805,"SoundDuration":194805,"Delta":145029489},{"NoteNumber":66,"Velocity":26,"Duration":839160,"SoundDuration":839160,"Delta":145224294},{"NoteNumber":70,"Velocity":26,"Duration":839160,"SoundDuration":839160,"Delta":145224294},{"NoteNumber":73,"Velocity":28,"Duration":839160,"SoundDuration":839160,"Delta":145224294},{"NoteNumber":49,"Velocity":18,"Duration":839160,"SoundDuration":839160,"Delta":145224294},{"NoteNumber":56,"Velocity":18,"Duration":839160,"SoundDuration":839160,"Delta":145224294},{"NoteNumber":61,"Velocity":18,"Duration":839160,"SoundDuration":839160,"Delta":145224294},{"NoteNumber":65,"Velocity":24,"Duration":292207,"SoundDuration":292207,"Delta":146063455},{"NoteNumber":68,"Velocity":26,"Duration":292207,"SoundDuration":292207,"Delta":146063455},{"NoteNumber":49,"Velocity":16,"Duration":292207,"SoundDuration":292207,"Delta":146063455},{"NoteNumber":56,"Velocity":16,"Duration":292207,"SoundDuration":292207,"Delta":146063455},{"NoteNumber":61,"Velocity":16,"Duration":292207,"SoundDuration":292207,"Delta":146063455},{"NoteNumber":65,"Velocity":30,"Duration":188679,"SoundDuration":188679,"Delta":146453065},{"NoteNumber":68,"Velocity":33,"Duration":188679,"SoundDuration":188679,"Delta":146453065},{"NoteNumber":56,"Velocity":20,"Duration":377358,"SoundDuration":377358,"Delta":146453065},{"NoteNumber":60,"Velocity":20,"Duration":377358,"SoundDuration":377358,"Delta":146453065},{"NoteNumber":62,"Velocity":33,"Duration":188679,"SoundDuration":188679,"Delta":146641745},{"NoteNumber":63,"Velocity":31,"Duration":779221,"SoundDuration":779221,"Delta":146830424},{"NoteNumber":66,"Velocity":34,"Duration":779221,"SoundDuration":779221,"Delta":146830424},{"NoteNumber":56,"Velocity":22,"Duration":779221,"SoundDuration":779221,"Delta":146830424},{"NoteNumber":60,"Velocity":22,"Duration":779221,"SoundDuration":779221,"Delta":146830424},{"NoteNumber":66,"Velocity":29,"Duration":379747,"SoundDuration":379747,"Delta":147609645},{"NoteNumber":75,"Velocity":31,"Duration":379747,"SoundDuration":379747,"Delta":147609645},{"NoteNumber":56,"Velocity":20,"Duration":379747,"SoundDuration":379747,"Delta":147609645},{"NoteNumber":60,"Velocity":20,"Duration":379747,"SoundDuration":379747,"Delta":147609645},{"NoteNumber":68,"Velocity":33,"Duration":189873,"SoundDuration":189873,"Delta":147989392},{"NoteNumber":77,"Velocity":36,"Duration":189873,"SoundDuration":189873,"Delta":147989392},{"NoteNumber":49,"Velocity":20,"Duration":379746,"SoundDuration":379746,"Delta":147989392},{"NoteNumber":56,"Velocity":20,"Duration":379746,"SoundDuration":379746,"Delta":147989392},{"NoteNumber":61,"Velocity":20,"Duration":379746,"SoundDuration":379746,"Delta":147989392},{"NoteNumber":66,"Velocity":30,"Duration":189873,"SoundDuration":189873,"Delta":148179265},{"NoteNumber":75,"Velocity":33,"Duration":189873,"SoundDuration":189873,"Delta":148179265},{"NoteNumber":65,"Velocity":32,"Duration":794702,"SoundDuration":794702,"Delta":148369139},{"NoteNumber":73,"Velocity":35,"Duration":794702,"SoundDuration":794702,"Delta":148369139},{"NoteNumber":49,"Velocity":21,"Duration":794702,"SoundDuration":794702,"Delta":148369139},{"NoteNumber":56,"Velocity":21,"Duration":794702,"SoundDuration":794702,"Delta":148369139},{"NoteNumber":61,"Velocity":21,"Duration":794702,"SoundDuration":794702,"Delta":148369139},{"NoteNumber":65,"Velocity":27,"Duration":292207,"SoundDuration":292207,"Delta":149163841},{"NoteNumber":68,"Velocity":29,"Duration":292207,"SoundDuration":292207,"Delta":149163841},{"NoteNumber":49,"Velocity":18,"Duration":292207,"SoundDuration":292207,"Delta":149163841},{"NoteNumber":56,"Velocity":18,"Duration":292207,"SoundDuration":292207,"Delta":149163841},{"NoteNumber":61,"Velocity":18,"Duration":292207,"SoundDuration":292207,"Delta":149163841},{"NoteNumber":65,"Velocity":31,"Duration":194805,"SoundDuration":194805,"Delta":149553451},{"NoteNumber":49,"Velocity":18,"Duration":389610,"SoundDuration":389610,"Delta":149553451},{"NoteNumber":56,"Velocity":18,"Duration":389610,"SoundDuration":389610,"Delta":149553451},{"NoteNumber":61,"Velocity":18,"Duration":389610,"SoundDuration":389610,"Delta":149553451},{"NoteNumber":68,"Velocity":31,"Duration":194805,"SoundDuration":194805,"Delta":149748257},{"NoteNumber":66,"Velocity":26,"Duration":805369,"SoundDuration":805369,"Delta":149943062},{"NoteNumber":70,"Velocity":28,"Duration":805369,"SoundDuration":805369,"Delta":149943062},{"NoteNumber":49,"Velocity":19,"Duration":805369,"SoundDuration":805369,"Delta":149943062},{"NoteNumber":56,"Velocity":19,"Duration":805369,"SoundDuration":805369,"Delta":149943062},{"NoteNumber":61,"Velocity":19,"Duration":805369,"SoundDuration":805369,"Delta":149943062},{"NoteNumber":65,"Velocity":26,"Duration":292207,"SoundDuration":292207,"Delta":150748431},{"NoteNumber":68,"Velocity":28,"Duration":292207,"SoundDuration":292207,"Delta":150748431},{"NoteNumber":49,"Velocity":17,"Duration":292207,"SoundDuration":292207,"Delta":150748431},{"NoteNumber":56,"Velocity":17,"Duration":292207,"SoundDuration":292207,"Delta":150748431},{"NoteNumber":61,"Velocity":17,"Duration":292207,"SoundDuration":292207,"Delta":150748431},{"NoteNumber":65,"Velocity":31,"Duration":194805,"SoundDuration":194805,"Delta":151138041},{"NoteNumber":49,"Velocity":18,"Duration":389610,"SoundDuration":389610,"Delta":151138041},{"NoteNumber":56,"Velocity":18,"Duration":389610,"SoundDuration":389610,"Delta":151138041},{"NoteNumber":61,"Velocity":18,"Duration":389610,"SoundDuration":389610,"Delta":151138041},{"NoteNumber":68,"Velocity":31,"Duration":194805,"SoundDuration":194805,"Delta":151332847},{"NoteNumber":66,"Velocity":27,"Duration":800000,"SoundDuration":800000,"Delta":151527652},{"NoteNumber":70,"Velocity":27,"Duration":800000,"SoundDuration":800000,"Delta":151527652},{"NoteNumber":73,"Velocity":29,"Duration":800000,"SoundDuration":800000,"Delta":151527652},{"NoteNumber":49,"Velocity":18,"Duration":800000,"SoundDuration":800000,"Delta":151527652},{"NoteNumber":56,"Velocity":18,"Duration":800000,"SoundDuration":800000,"Delta":151527652},{"NoteNumber":61,"Velocity":18,"Duration":800000,"SoundDuration":800000,"Delta":151527652},{"NoteNumber":65,"Velocity":24,"Duration":286624,"SoundDuration":286624,"Delta":152327652},{"NoteNumber":68,"Velocity":26,"Duration":286624,"SoundDuration":286624,"Delta":152327652},{"NoteNumber":49,"Velocity":17,"Duration":286624,"SoundDuration":286624,"Delta":152327652},{"NoteNumber":56,"Velocity":17,"Duration":286624,"SoundDuration":286624,"Delta":152327652},{"NoteNumber":61,"Velocity":17,"Duration":286624,"SoundDuration":286624,"Delta":152327652},{"NoteNumber":65,"Velocity":30,"Duration":191082,"SoundDuration":191082,"Delta":152709817},{"NoteNumber":68,"Velocity":33,"Duration":191082,"SoundDuration":191082,"Delta":152709817},{"NoteNumber":56,"Velocity":20,"Duration":382165,"SoundDuration":382165,"Delta":152709817},{"NoteNumber":60,"Velocity":20,"Duration":382165,"SoundDuration":382165,"Delta":152709817},{"NoteNumber":62,"Velocity":33,"Duration":191082,"SoundDuration":191082,"Delta":152900900},{"NoteNumber":63,"Velocity":36,"Duration":599999,"SoundDuration":599999,"Delta":153091983},{"NoteNumber":66,"Velocity":39,"Duration":599999,"SoundDuration":599999,"Delta":153091983},{"NoteNumber":56,"Velocity":22,"Duration":784048,"SoundDuration":784048,"Delta":153091983},{"NoteNumber":60,"Velocity":22,"Duration":784048,"SoundDuration":784048,"Delta":153091983},{"NoteNumber":66,"Velocity":29,"Duration":184048,"SoundDuration":184048,"Delta":153691983},{"NoteNumber":75,"Velocity":31,"Duration":184048,"SoundDuration":184048,"Delta":153691983},{"NoteNumber":68,"Velocity":30,"Duration":184049,"SoundDuration":184049,"Delta":153876032},{"NoteNumber":77,"Velocity":33,"Duration":184049,"SoundDuration":184049,"Delta":153876032},{"NoteNumber":56,"Velocity":19,"Duration":368098,"SoundDuration":368098,"Delta":153876032},{"NoteNumber":60,"Velocity":19,"Duration":368098,"SoundDuration":368098,"Delta":153876032},{"NoteNumber":66,"Velocity":29,"Duration":184048,"SoundDuration":184048,"Delta":154060081},{"NoteNumber":75,"Velocity":31,"Duration":184048,"SoundDuration":184048,"Delta":154060081},{"NoteNumber":65,"Velocity":30,"Duration":184049,"SoundDuration":184049,"Delta":154244130},{"NoteNumber":73,"Velocity":33,"Duration":184049,"SoundDuration":184049,"Delta":154244130},{"NoteNumber":49,"Velocity":20,"Duration":368098,"SoundDuration":368098,"Delta":154244130},{"NoteNumber":56,"Velocity":20,"Duration":368098,"SoundDuration":368098,"Delta":154244130},{"NoteNumber":61,"Velocity":20,"Duration":368098,"SoundDuration":368098,"Delta":154244130},{"NoteNumber":66,"Velocity":30,"Duration":184048,"SoundDuration":184048,"Delta":154428179},{"NoteNumber":75,"Velocity":33,"Duration":184048,"SoundDuration":184048,"Delta":154428179},{"NoteNumber":65,"Velocity":32,"Duration":1565216,"SoundDuration":1565216,"Delta":154612228},{"NoteNumber":73,"Velocity":35,"Duration":1565216,"SoundDuration":1565216,"Delta":154612228},{"NoteNumber":49,"Velocity":21,"Duration":1565216,"SoundDuration":1565216,"Delta":154612228},{"NoteNumber":56,"Velocity":21,"Duration":1565216,"SoundDuration":1565216,"Delta":154612228},{"NoteNumber":61,"Velocity":21,"Duration":1565216,"SoundDuration":1565216,"Delta":154612228},{"NoteNumber":53,"Velocity":35,"Duration":186335,"SoundDuration":186335,"Delta":156177445},{"NoteNumber":29,"Velocity":32,"Duration":372670,"SoundDuration":372670,"Delta":156177445},{"NoteNumber":41,"Velocity":32,"Duration":372670,"SoundDuration":372670,"Delta":156177445},{"NoteNumber":57,"Velocity":35,"Duration":186335,"SoundDuration":186335,"Delta":156363780},{"NoteNumber":49,"Velocity":38,"Duration":779221,"SoundDuration":779221,"Delta":156550116},{"NoteNumber":53,"Velocity":38,"Duration":779221,"SoundDuration":779221,"Delta":156550116},{"NoteNumber":58,"Velocity":38,"Duration":779221,"SoundDuration":779221,"Delta":156550116},{"NoteNumber":34,"Velocity":34,"Duration":779221,"SoundDuration":779221,"Delta":156550116},{"NoteNumber":41,"Velocity":34,"Duration":779221,"SoundDuration":779221,"Delta":156550116},{"NoteNumber":48,"Velocity":31,"Duration":372670,"SoundDuration":372670,"Delta":157329337},{"NoteNumber":53,"Velocity":31,"Duration":372670,"SoundDuration":372670,"Delta":157329337},{"NoteNumber":57,"Velocity":31,"Duration":372670,"SoundDuration":372670,"Delta":157329337},{"NoteNumber":29,"Velocity":29,"Duration":372670,"SoundDuration":372670,"Delta":157329337},{"NoteNumber":41,"Velocity":29,"Duration":372670,"SoundDuration":372670,"Delta":157329337},{"NoteNumber":53,"Velocity":39,"Duration":186335,"SoundDuration":186335,"Delta":157702008},{"NoteNumber":29,"Velocity":32,"Duration":372670,"SoundDuration":372670,"Delta":157702008},{"NoteNumber":41,"Velocity":32,"Duration":372670,"SoundDuration":372670,"Delta":157702008},{"NoteNumber":57,"Velocity":39,"Duration":186335,"SoundDuration":186335,"Delta":157888343},{"NoteNumber":61,"Velocity":43,"Duration":789474,"SoundDuration":789474,"Delta":158074679},{"NoteNumber":58,"Velocity":43,"Duration":789474,"SoundDuration":789474,"Delta":158074679},{"NoteNumber":53,"Velocity":43,"Duration":789474,"SoundDuration":789474,"Delta":158074679},{"NoteNumber":34,"Velocity":36,"Duration":789474,"SoundDuration":789474,"Delta":158074679},{"NoteNumber":41,"Velocity":36,"Duration":789474,"SoundDuration":789474,"Delta":158074679},{"NoteNumber":60,"Velocity":36,"Duration":378980,"SoundDuration":378980,"Delta":158864153},{"NoteNumber":57,"Velocity":36,"Duration":378980,"SoundDuration":378980,"Delta":158864153},{"NoteNumber":53,"Velocity":36,"Duration":382165,"SoundDuration":382165,"Delta":158864153},{"NoteNumber":29,"Velocity":32,"Duration":382165,"SoundDuration":382165,"Delta":158864153},{"NoteNumber":41,"Velocity":32,"Duration":382165,"SoundDuration":382165,"Delta":158864153},{"NoteNumber":60,"Velocity":42,"Duration":236220,"SoundDuration":236220,"Delta":159246318},{"NoteNumber":57,"Velocity":42,"Duration":236220,"SoundDuration":236220,"Delta":159246318},{"NoteNumber":29,"Velocity":36,"Duration":472441,"SoundDuration":472441,"Delta":159246318},{"NoteNumber":41,"Velocity":36,"Duration":472441,"SoundDuration":472441,"Delta":159246318},{"NoteNumber":66,"Velocity":42,"Duration":236220,"SoundDuration":236220,"Delta":159482539},{"NoteNumber":58,"Velocity":46,"Duration":869564,"SoundDuration":869564,"Delta":159718759},{"NoteNumber":61,"Velocity":46,"Duration":869564,"SoundDuration":869564,"Delta":159718759},{"NoteNumber":65,"Velocity":46,"Duration":869564,"SoundDuration":869564,"Delta":159718759},{"NoteNumber":34,"Velocity":38,"Duration":869564,"SoundDuration":869564,"Delta":159718759},{"NoteNumber":41,"Velocity":38,"Duration":869564,"SoundDuration":869564,"Delta":159718759},{"NoteNumber":57,"Velocity":36,"Duration":500000,"SoundDuration":500000,"Delta":160588324},{"NoteNumber":60,"Velocity":36,"Duration":500000,"SoundDuration":500000,"Delta":160588324},{"NoteNumber":65,"Velocity":36,"Duration":500000,"SoundDuration":500000,"Delta":160588324},{"NoteNumber":29,"Velocity":33,"Duration":500000,"SoundDuration":500000,"Delta":160588324},{"NoteNumber":41,"Velocity":33,"Duration":500000,"SoundDuration":500000,"Delta":160588324},{"NoteNumber":56,"Velocity":25,"Duration":645161,"SoundDuration":645161,"Delta":161088324},{"NoteNumber":60,"Velocity":25,"Duration":645161,"SoundDuration":645161,"Delta":161088324},{"NoteNumber":66,"Velocity":27,"Duration":322580,"SoundDuration":322580,"Delta":161088324},{"NoteNumber":39,"Velocity":21,"Duration":645161,"SoundDuration":645161,"Delta":161088324},{"NoteNumber":44,"Velocity":21,"Duration":645161,"SoundDuration":645161,"Delta":161088324},{"NoteNumber":68,"Velocity":27,"Duration":322580,"SoundDuration":322580,"Delta":161410905},{"NoteNumber":56,"Velocity":25,"Duration":1649604,"SoundDuration":1649604,"Delta":161733486},{"NoteNumber":61,"Velocity":25,"Duration":1649604,"SoundDuration":1649604,"Delta":161733486},{"NoteNumber":65,"Velocity":27,"Duration":1649604,"SoundDuration":1649604,"Delta":161733486},{"NoteNumber":37,"Velocity":21,"Duration":1649604,"SoundDuration":1649604,"Delta":161733486},{"NoteNumber":44,"Velocity":21,"Duration":1649604,"SoundDuration":1649604,"Delta":161733486},{"NoteNumber":68,"Velocity":47,"Duration":359281,"SoundDuration":359281,"Delta":163023809},{"NoteNumber":64,"Velocity":47,"Duration":359281,"SoundDuration":359281,"Delta":163023809},{"NoteNumber":40,"Velocity":45,"Duration":359281,"SoundDuration":359281,"Delta":163023809},{"NoteNumber":52,"Velocity":45,"Duration":359281,"SoundDuration":359281,"Delta":163023809},{"NoteNumber":59,"Velocity":47,"Duration":359281,"SoundDuration":359281,"Delta":163047761},{"NoteNumber":59,"Velocity":47,"Duration":359281,"SoundDuration":359281,"Delta":163383090},{"NoteNumber":64,"Velocity":47,"Duration":359281,"SoundDuration":359281,"Delta":163383090},{"NoteNumber":68,"Velocity":47,"Duration":179640,"SoundDuration":179640,"Delta":163383090},{"NoteNumber":40,"Velocity":45,"Duration":359281,"SoundDuration":359281,"Delta":163383090},{"NoteNumber":52,"Velocity":45,"Duration":359281,"SoundDuration":359281,"Delta":163383090},{"NoteNumber":69,"Velocity":47,"Duration":179640,"SoundDuration":179640,"Delta":163562731},{"NoteNumber":59,"Velocity":51,"Duration":740741,"SoundDuration":740741,"Delta":163742372},{"NoteNumber":63,"Velocity":51,"Duration":740741,"SoundDuration":740741,"Delta":163742372},{"NoteNumber":66,"Velocity":51,"Duration":740741,"SoundDuration":740741,"Delta":163742372},{"NoteNumber":35,"Velocity":48,"Duration":740741,"SoundDuration":740741,"Delta":163742372},{"NoteNumber":47,"Velocity":48,"Duration":740741,"SoundDuration":740741,"Delta":163742372},{"NoteNumber":59,"Velocity":44,"Duration":350876,"SoundDuration":350876,"Delta":164483113},{"NoteNumber":64,"Velocity":44,"Duration":350876,"SoundDuration":350876,"Delta":164483113},{"NoteNumber":68,"Velocity":44,"Duration":350876,"SoundDuration":350876,"Delta":164483113},{"NoteNumber":40,"Velocity":46,"Duration":350876,"SoundDuration":350876,"Delta":164483113},{"NoteNumber":52,"Velocity":46,"Duration":350876,"SoundDuration":350876,"Delta":164483113},{"NoteNumber":59,"Velocity":49,"Duration":350876,"SoundDuration":350876,"Delta":164833990},{"NoteNumber":64,"Velocity":49,"Duration":350876,"SoundDuration":350876,"Delta":164833990},{"NoteNumber":68,"Velocity":49,"Duration":175438,"SoundDuration":175438,"Delta":164833990},{"NoteNumber":40,"Velocity":50,"Duration":350876,"SoundDuration":350876,"Delta":164833990},{"NoteNumber":52,"Velocity":50,"Duration":350876,"SoundDuration":350876,"Delta":164833990},{"NoteNumber":69,"Velocity":49,"Duration":175438,"SoundDuration":175438,"Delta":165009428},{"NoteNumber":59,"Velocity":53,"Duration":718562,"SoundDuration":718562,"Delta":165184867},{"NoteNumber":63,"Velocity":53,"Duration":718562,"SoundDuration":718562,"Delta":165184867},{"NoteNumber":66,"Velocity":53,"Duration":718562,"SoundDuration":718562,"Delta":165184867},{"NoteNumber":35,"Velocity":53,"Duration":718562,"SoundDuration":718562,"Delta":165184867},{"NoteNumber":47,"Velocity":53,"Duration":718562,"SoundDuration":718562,"Delta":165184867},{"NoteNumber":59,"Velocity":48,"Duration":342857,"SoundDuration":342857,"Delta":165903430},{"NoteNumber":64,"Velocity":48,"Duration":342857,"SoundDuration":342857,"Delta":165903430},{"NoteNumber":68,"Velocity":48,"Duration":342857,"SoundDuration":342857,"Delta":165903430},{"NoteNumber":40,"Velocity":50,"Duration":342857,"SoundDuration":342857,"Delta":165903430},{"NoteNumber":52,"Velocity":50,"Duration":342857,"SoundDuration":342857,"Delta":165903430},{"NoteNumber":59,"Velocity":53,"Duration":342856,"SoundDuration":342856,"Delta":166246287},{"NoteNumber":63,"Velocity":53,"Duration":342856,"SoundDuration":342856,"Delta":166246287},{"NoteNumber":66,"Velocity":53,"Duration":171428,"SoundDuration":171428,"Delta":166246287},{"NoteNumber":35,"Velocity":54,"Duration":342856,"SoundDuration":342856,"Delta":166246287},{"NoteNumber":47,"Velocity":54,"Duration":342856,"SoundDuration":342856,"Delta":166246287},{"NoteNumber":68,"Velocity":53,"Duration":171428,"SoundDuration":171428,"Delta":166417715},{"NoteNumber":56,"Velocity":56,"Duration":714285,"SoundDuration":714285,"Delta":166589144},{"NoteNumber":61,"Velocity":56,"Duration":714285,"SoundDuration":714285,"Delta":166589144},{"NoteNumber":64,"Velocity":56,"Duration":714285,"SoundDuration":714285,"Delta":166589144},{"NoteNumber":37,"Velocity":58,"Duration":714285,"SoundDuration":714285,"Delta":166589144},{"NoteNumber":49,"Velocity":58,"Duration":714285,"SoundDuration":714285,"Delta":166589144},{"NoteNumber":57,"Velocity":60,"Duration":340909,"SoundDuration":340909,"Delta":167303430},{"NoteNumber":61,"Velocity":60,"Duration":340909,"SoundDuration":340909,"Delta":167303430},{"NoteNumber":66,"Velocity":60,"Duration":340909,"SoundDuration":340909,"Delta":167303430},{"NoteNumber":33,"Velocity":60,"Duration":340909,"SoundDuration":340909,"Delta":167303430},{"NoteNumber":45,"Velocity":60,"Duration":340909,"SoundDuration":340909,"Delta":167303430},{"NoteNumber":57,"Velocity":56,"Duration":346821,"SoundDuration":346821,"Delta":167644339},{"NoteNumber":63,"Velocity":56,"Duration":173410,"SoundDuration":173410,"Delta":167644339},{"NoteNumber":35,"Velocity":57,"Duration":346821,"SoundDuration":346821,"Delta":167644339},{"NoteNumber":47,"Velocity":57,"Duration":346821,"SoundDuration":346821,"Delta":167644339},{"NoteNumber":66,"Velocity":56,"Duration":173410,"SoundDuration":173410,"Delta":167817749},{"NoteNumber":56,"Velocity":52,"Duration":662651,"SoundDuration":662651,"Delta":167991160},{"NoteNumber":64,"Velocity":52,"Duration":662651,"SoundDuration":662651,"Delta":167991160},{"NoteNumber":40,"Velocity":54,"Duration":662651,"SoundDuration":662651,"Delta":167991160},{"NoteNumber":47,"Velocity":54,"Duration":662651,"SoundDuration":662651,"Delta":167991160},{"NoteNumber":68,"Velocity":45,"Duration":338983,"SoundDuration":338983,"Delta":168714052},{"NoteNumber":76,"Velocity":45,"Duration":338983,"SoundDuration":338983,"Delta":168714052},{"NoteNumber":59,"Velocity":45,"Duration":338983,"SoundDuration":338983,"Delta":168714052},{"NoteNumber":69,"Velocity":48,"Duration":338982,"SoundDuration":338982,"Delta":169053035},{"NoteNumber":76,"Velocity":48,"Duration":169491,"SoundDuration":169491,"Delta":169053035},{"NoteNumber":63,"Velocity":39,"Duration":338982,"SoundDuration":338982,"Delta":169053035},{"NoteNumber":59,"Velocity":39,"Duration":338982,"SoundDuration":338982,"Delta":169053035},{"NoteNumber":80,"Velocity":48,"Duration":169491,"SoundDuration":169491,"Delta":169222526},{"NoteNumber":69,"Velocity":51,"Duration":705882,"SoundDuration":705882,"Delta":169392018},{"NoteNumber":78,"Velocity":51,"Duration":705882,"SoundDuration":705882,"Delta":169392018},{"NoteNumber":59,"Velocity":48,"Duration":705882,"SoundDuration":705882,"Delta":169392018},{"NoteNumber":63,"Velocity":48,"Duration":705882,"SoundDuration":705882,"Delta":169392018},{"NoteNumber":66,"Velocity":47,"Duration":335195,"SoundDuration":335195,"Delta":170097900},{"NoteNumber":69,"Velocity":47,"Duration":335195,"SoundDuration":335195,"Delta":170097900},{"NoteNumber":59,"Velocity":48,"Duration":335195,"SoundDuration":335195,"Delta":170097900},{"NoteNumber":63,"Velocity":48,"Duration":335195,"SoundDuration":335195,"Delta":170097900},{"NoteNumber":68,"Velocity":53,"Duration":167597,"SoundDuration":167597,"Delta":170433095},{"NoteNumber":64,"Velocity":53,"Duration":335195,"SoundDuration":335195,"Delta":170433095},{"NoteNumber":59,"Velocity":53,"Duration":335195,"SoundDuration":335195,"Delta":170433095},{"NoteNumber":66,"Velocity":53,"Duration":167597,"SoundDuration":167597,"Delta":170600693},{"NoteNumber":69,"Velocity":53,"Duration":167597,"SoundDuration":167597,"Delta":170600693},{"NoteNumber":68,"Velocity":54,"Duration":685713,"SoundDuration":685713,"Delta":170768291},{"NoteNumber":71,"Velocity":54,"Duration":685713,"SoundDuration":685713,"Delta":170768291},{"NoteNumber":59,"Velocity":54,"Duration":685713,"SoundDuration":685713,"Delta":170768291},{"NoteNumber":64,"Velocity":54,"Duration":685713,"SoundDuration":685713,"Delta":170768291},{"NoteNumber":68,"Velocity":48,"Duration":327868,"SoundDuration":327868,"Delta":171454005},{"NoteNumber":76,"Velocity":48,"Duration":327868,"SoundDuration":327868,"Delta":171454005},{"NoteNumber":59,"Velocity":47,"Duration":327868,"SoundDuration":327868,"Delta":171454005},{"NoteNumber":64,"Velocity":47,"Duration":327868,"SoundDuration":327868,"Delta":171454005},{"NoteNumber":69,"Velocity":54,"Duration":327869,"SoundDuration":327869,"Delta":171781874},{"NoteNumber":76,"Velocity":54,"Duration":163934,"SoundDuration":163934,"Delta":171781874},{"NoteNumber":63,"Velocity":51,"Duration":327869,"SoundDuration":327869,"Delta":171781874},{"NoteNumber":59,"Velocity":51,"Duration":327869,"SoundDuration":327869,"Delta":171781874},{"NoteNumber":80,"Velocity":54,"Duration":163934,"SoundDuration":163934,"Delta":171945808},{"NoteNumber":69,"Velocity":55,"Duration":662982,"SoundDuration":662982,"Delta":172109743},{"NoteNumber":78,"Velocity":55,"Duration":662982,"SoundDuration":662982,"Delta":172109743},{"NoteNumber":59,"Velocity":54,"Duration":662982,"SoundDuration":662982,"Delta":172109743},{"NoteNumber":63,"Velocity":54,"Duration":662982,"SoundDuration":662982,"Delta":172109743},{"NoteNumber":75,"Velocity":51,"Duration":326087,"SoundDuration":326087,"Delta":172772726},{"NoteNumber":69,"Velocity":51,"Duration":326087,"SoundDuration":326087,"Delta":172772726},{"NoteNumber":59,"Velocity":51,"Duration":326087,"SoundDuration":326087,"Delta":172772726},{"NoteNumber":66,"Velocity":51,"Duration":326087,"SoundDuration":326087,"Delta":172772726},{"NoteNumber":68,"Velocity":51,"Duration":163043,"SoundDuration":163043,"Delta":173098813},{"NoteNumber":76,"Velocity":51,"Duration":163043,"SoundDuration":163043,"Delta":173098813},{"NoteNumber":64,"Velocity":53,"Duration":326087,"SoundDuration":326087,"Delta":173098813},{"NoteNumber":59,"Velocity":53,"Duration":326087,"SoundDuration":326087,"Delta":173098813},{"NoteNumber":52,"Velocity":53,"Duration":326087,"SoundDuration":326087,"Delta":173098813},{"NoteNumber":69,"Velocity":51,"Duration":163043,"SoundDuration":163043,"Delta":173261856},{"NoteNumber":73,"Velocity":51,"Duration":163043,"SoundDuration":163043,"Delta":173261856},{"NoteNumber":68,"Velocity":50,"Duration":689654,"SoundDuration":689654,"Delta":173424900},{"NoteNumber":71,"Velocity":50,"Duration":689654,"SoundDuration":689654,"Delta":173424900},{"NoteNumber":59,"Velocity":53,"Duration":686781,"SoundDuration":686781,"Delta":173424900},{"NoteNumber":64,"Velocity":53,"Duration":686781,"SoundDuration":686781,"Delta":173424900},{"NoteNumber":52,"Velocity":53,"Duration":689654,"SoundDuration":689654,"Delta":173424900},{"NoteNumber":59,"Velocity":47,"Duration":344827,"SoundDuration":344827,"Delta":174114555},{"NoteNumber":68,"Velocity":47,"Duration":344827,"SoundDuration":344827,"Delta":174114555},{"NoteNumber":64,"Velocity":47,"Duration":344827,"SoundDuration":344827,"Delta":174114555},{"NoteNumber":40,"Velocity":47,"Duration":344827,"SoundDuration":344827,"Delta":174114555},{"NoteNumber":52,"Velocity":47,"Duration":344827,"SoundDuration":344827,"Delta":174114555},{"NoteNumber":59,"Velocity":67,"Duration":344827,"SoundDuration":344827,"Delta":174459382},{"NoteNumber":64,"Velocity":67,"Duration":344827,"SoundDuration":344827,"Delta":174459382},{"NoteNumber":68,"Velocity":67,"Duration":172413,"SoundDuration":172413,"Delta":174459382},{"NoteNumber":40,"Velocity":63,"Duration":344827,"SoundDuration":344827,"Delta":174459382},{"NoteNumber":52,"Velocity":63,"Duration":344827,"SoundDuration":344827,"Delta":174459382},{"NoteNumber":69,"Velocity":67,"Duration":172413,"SoundDuration":172413,"Delta":174631796},{"NoteNumber":59,"Velocity":73,"Duration":701753,"SoundDuration":701753,"Delta":174804210},{"NoteNumber":63,"Velocity":73,"Duration":701753,"SoundDuration":701753,"Delta":174804210},{"NoteNumber":66,"Velocity":73,"Duration":701753,"SoundDuration":701753,"Delta":174804210},{"NoteNumber":35,"Velocity":68,"Duration":701753,"SoundDuration":701753,"Delta":174804210},{"NoteNumber":47,"Velocity":68,"Duration":701753,"SoundDuration":701753,"Delta":174804210},{"NoteNumber":59,"Velocity":62,"Duration":340909,"SoundDuration":340909,"Delta":175505964},{"NoteNumber":64,"Velocity":62,"Duration":340909,"SoundDuration":340909,"Delta":175505964},{"NoteNumber":68,"Velocity":62,"Duration":340909,"SoundDuration":340909,"Delta":175505964},{"NoteNumber":40,"Velocity":66,"Duration":340909,"SoundDuration":340909,"Delta":175505964},{"NoteNumber":52,"Velocity":66,"Duration":340909,"SoundDuration":340909,"Delta":175505964},{"NoteNumber":59,"Velocity":69,"Duration":340908,"SoundDuration":340908,"Delta":175846873},{"NoteNumber":64,"Velocity":69,"Duration":340908,"SoundDuration":340908,"Delta":175846873},{"NoteNumber":68,"Velocity":69,"Duration":170454,"SoundDuration":170454,"Delta":175846873},{"NoteNumber":40,"Velocity":72,"Duration":340908,"SoundDuration":340908,"Delta":175846873},{"NoteNumber":52,"Velocity":72,"Duration":340908,"SoundDuration":340908,"Delta":175846873},{"NoteNumber":69,"Velocity":69,"Duration":170454,"SoundDuration":170454,"Delta":176017327},{"NoteNumber":59,"Velocity":75,"Duration":697674,"SoundDuration":697674,"Delta":176187782},{"NoteNumber":63,"Velocity":75,"Duration":697674,"SoundDuration":697674,"Delta":176187782},{"NoteNumber":66,"Velocity":75,"Duration":697674,"SoundDuration":697674,"Delta":176187782},{"NoteNumber":35,"Velocity":75,"Duration":697674,"SoundDuration":697674,"Delta":176187782},{"NoteNumber":47,"Velocity":75,"Duration":697674,"SoundDuration":697674,"Delta":176187782},{"NoteNumber":59,"Velocity":68,"Duration":348837,"SoundDuration":348837,"Delta":176885456},{"NoteNumber":64,"Velocity":68,"Duration":348837,"SoundDuration":348837,"Delta":176885456},{"NoteNumber":68,"Velocity":68,"Duration":348837,"SoundDuration":348837,"Delta":176885456},{"NoteNumber":40,"Velocity":72,"Duration":348837,"SoundDuration":348837,"Delta":176885456},{"NoteNumber":52,"Velocity":72,"Duration":348837,"SoundDuration":348837,"Delta":176885456},{"NoteNumber":59,"Velocity":75,"Duration":389610,"SoundDuration":389610,"Delta":177234293},{"NoteNumber":63,"Velocity":75,"Duration":389610,"SoundDuration":389610,"Delta":177234293},{"NoteNumber":66,"Velocity":75,"Duration":194805,"SoundDuration":194805,"Delta":177234293},{"NoteNumber":35,"Velocity":77,"Duration":389610,"SoundDuration":389610,"Delta":177234293},{"NoteNumber":47,"Velocity":77,"Duration":389610,"SoundDuration":389610,"Delta":177234293},{"NoteNumber":68,"Velocity":75,"Duration":194805,"SoundDuration":194805,"Delta":177429098},{"NoteNumber":56,"Velocity":80,"Duration":801149,"SoundDuration":801149,"Delta":177623903},{"NoteNumber":61,"Velocity":80,"Duration":801149,"SoundDuration":801149,"Delta":177623903},{"NoteNumber":64,"Velocity":80,"Duration":801149,"SoundDuration":801149,"Delta":177623903},{"NoteNumber":37,"Velocity":82,"Duration":801149,"SoundDuration":801149,"Delta":177623903},{"NoteNumber":49,"Velocity":82,"Duration":801149,"SoundDuration":801149,"Delta":177623903},{"NoteNumber":63,"Velocity":81,"Duration":208339,"SoundDuration":208339,"Delta":178425053},{"NoteNumber":57,"Velocity":85,"Duration":421113,"SoundDuration":421113,"Delta":178425053},{"NoteNumber":54,"Velocity":68,"Duration":421113,"SoundDuration":421113,"Delta":178425053},{"NoteNumber":30,"Velocity":68,"Duration":421113,"SoundDuration":421113,"Delta":178425053},{"NoteNumber":42,"Velocity":68,"Duration":421113,"SoundDuration":421113,"Delta":178425053},{"NoteNumber":61,"Velocity":78,"Duration":212773,"SoundDuration":212773,"Delta":178633393},{"NoteNumber":60,"Velocity":80,"Duration":216616,"SoundDuration":216616,"Delta":178846166},{"NoteNumber":54,"Velocity":85,"Duration":438030,"SoundDuration":438030,"Delta":178846166},{"NoteNumber":32,"Velocity":68,"Duration":438030,"SoundDuration":438030,"Delta":178846166},{"NoteNumber":44,"Velocity":68,"Duration":438030,"SoundDuration":438030,"Delta":178846166},{"NoteNumber":63,"Velocity":78,"Duration":221413,"SoundDuration":221413,"Delta":179062783},{"NoteNumber":61,"Velocity":74,"Duration":948276,"SoundDuration":948276,"Delta":179284196},{"NoteNumber":53,"Velocity":85,"Duration":948276,"SoundDuration":948276,"Delta":179284196},{"NoteNumber":37,"Velocity":65,"Duration":948276,"SoundDuration":948276,"Delta":179284196},{"NoteNumber":44,"Velocity":65,"Duration":948276,"SoundDuration":948276,"Delta":179284196},{"NoteNumber":65,"Velocity":40,"Duration":454545,"SoundDuration":454545,"Delta":180318679},{"NoteNumber":73,"Velocity":40,"Duration":454545,"SoundDuration":454545,"Delta":180318679},{"NoteNumber":56,"Velocity":28,"Duration":454545,"SoundDuration":454545,"Delta":180318679},{"NoteNumber":61,"Velocity":28,"Duration":454545,"SoundDuration":454545,"Delta":180318679},{"NoteNumber":66,"Velocity":42,"Duration":454545,"SoundDuration":454545,"Delta":180773224},{"NoteNumber":74,"Velocity":42,"Duration":227272,"SoundDuration":227272,"Delta":180773224},{"NoteNumber":60,"Velocity":29,"Duration":454545,"SoundDuration":454545,"Delta":180773224},{"NoteNumber":56,"Velocity":29,"Duration":454545,"SoundDuration":454545,"Delta":180773224},{"NoteNumber":77,"Velocity":42,"Duration":227272,"SoundDuration":227272,"Delta":181000497},{"NoteNumber":66,"Velocity":40,"Duration":810811,"SoundDuration":810811,"Delta":181227770},{"NoteNumber":75,"Velocity":40,"Duration":810811,"SoundDuration":810811,"Delta":181227770},{"NoteNumber":60,"Velocity":28,"Duration":810811,"SoundDuration":810811,"Delta":181227770},{"NoteNumber":56,"Velocity":28,"Duration":810811,"SoundDuration":810811,"Delta":181227770},{"NoteNumber":63,"Velocity":34,"Duration":389610,"SoundDuration":389610,"Delta":182038581},{"NoteNumber":66,"Velocity":34,"Duration":389610,"SoundDuration":389610,"Delta":182038581},{"NoteNumber":60,"Velocity":24,"Duration":389610,"SoundDuration":389610,"Delta":182038581},{"NoteNumber":56,"Velocity":24,"Duration":389610,"SoundDuration":389610,"Delta":182038581},{"NoteNumber":65,"Velocity":37,"Duration":194805,"SoundDuration":194805,"Delta":182428191},{"NoteNumber":61,"Velocity":26,"Duration":389610,"SoundDuration":389610,"Delta":182428191},{"NoteNumber":56,"Velocity":26,"Duration":389610,"SoundDuration":389610,"Delta":182428191},{"NoteNumber":63,"Velocity":37,"Duration":194805,"SoundDuration":194805,"Delta":182622997},{"NoteNumber":66,"Velocity":37,"Duration":194805,"SoundDuration":194805,"Delta":182622997},{"NoteNumber":65,"Velocity":40,"Duration":800000,"SoundDuration":800000,"Delta":182817802},{"NoteNumber":68,"Velocity":40,"Duration":800000,"SoundDuration":800000,"Delta":182817802},{"NoteNumber":61,"Velocity":28,"Duration":800000,"SoundDuration":800000,"Delta":182817802},{"NoteNumber":56,"Velocity":28,"Duration":800000,"SoundDuration":800000,"Delta":182817802},{"NoteNumber":73,"Velocity":38,"Duration":389610,"SoundDuration":389610,"Delta":183617802},{"NoteNumber":65,"Velocity":38,"Duration":389610,"SoundDuration":389610,"Delta":183617802},{"NoteNumber":61,"Velocity":26,"Duration":389610,"SoundDuration":389610,"Delta":183617802},{"NoteNumber":56,"Velocity":26,"Duration":389610,"SoundDuration":389610,"Delta":183617802},{"NoteNumber":66,"Velocity":40,"Duration":389610,"SoundDuration":389610,"Delta":184007412},{"NoteNumber":74,"Velocity":40,"Duration":194805,"SoundDuration":194805,"Delta":184007412},{"NoteNumber":60,"Velocity":28,"Duration":389610,"SoundDuration":389610,"Delta":184007412},{"NoteNumber":56,"Velocity":28,"Duration":389610,"SoundDuration":389610,"Delta":184007412},{"NoteNumber":77,"Velocity":40,"Duration":194805,"SoundDuration":194805,"Delta":184202218},{"NoteNumber":66,"Velocity":38,"Duration":810811,"SoundDuration":810811,"Delta":184397023},{"NoteNumber":75,"Velocity":38,"Duration":810811,"SoundDuration":810811,"Delta":184397023},{"NoteNumber":60,"Velocity":25,"Duration":810811,"SoundDuration":810811,"Delta":184397023},{"NoteNumber":56,"Velocity":25,"Duration":810811,"SoundDuration":810811,"Delta":184397023},{"NoteNumber":71,"Velocity":32,"Duration":491803,"SoundDuration":491803,"Delta":185207834},{"NoteNumber":77,"Velocity":32,"Duration":491803,"SoundDuration":491803,"Delta":185207834},{"NoteNumber":62,"Velocity":25,"Duration":491803,"SoundDuration":491803,"Delta":185207834},{"NoteNumber":56,"Velocity":25,"Duration":491803,"SoundDuration":491803,"Delta":185207834},{"NoteNumber":72,"Velocity":35,"Duration":566037,"SoundDuration":566037,"Delta":185699637},{"NoteNumber":77,"Velocity":35,"Duration":283018,"SoundDuration":283018,"Delta":185699637},{"NoteNumber":63,"Velocity":26,"Duration":566037,"SoundDuration":566037,"Delta":185699637},{"NoteNumber":56,"Velocity":26,"Duration":566037,"SoundDuration":566037,"Delta":185699637},{"NoteNumber":80,"Velocity":35,"Duration":283018,"SoundDuration":283018,"Delta":185982656},{"NoteNumber":72,"Velocity":32,"Duration":2571428,"SoundDuration":2571428,"Delta":186265675},{"NoteNumber":78,"Velocity":32,"Duration":2571428,"SoundDuration":2571428,"Delta":186265675},{"NoteNumber":63,"Velocity":23,"Duration":2571428,"SoundDuration":2571428,"Delta":186265675},{"NoteNumber":56,"Velocity":23,"Duration":2571428,"SoundDuration":2571428,"Delta":186265675},{"NoteNumber":65,"Velocity":31,"Duration":202702,"SoundDuration":202702,"Delta":188837104},{"NoteNumber":49,"Velocity":16,"Duration":409599,"SoundDuration":409599,"Delta":188837104},{"NoteNumber":56,"Velocity":16,"Duration":409599,"SoundDuration":409599,"Delta":188837104},{"NoteNumber":61,"Velocity":16,"Duration":409599,"SoundDuration":409599,"Delta":188837104},{"NoteNumber":68,"Velocity":31,"Duration":206896,"SoundDuration":206896,"Delta":189039807},{"NoteNumber":66,"Velocity":26,"Duration":839160,"SoundDuration":839160,"Delta":189246703},{"NoteNumber":70,"Velocity":28,"Duration":839160,"SoundDuration":839160,"Delta":189246703},{"NoteNumber":49,"Velocity":18,"Duration":839160,"SoundDuration":839160,"Delta":189246703},{"NoteNumber":56,"Velocity":18,"Duration":839160,"SoundDuration":839160,"Delta":189246703},{"NoteNumber":61,"Velocity":18,"Duration":839160,"SoundDuration":839160,"Delta":189246703},{"NoteNumber":65,"Velocity":25,"Duration":300000,"SoundDuration":300000,"Delta":190085864},{"NoteNumber":68,"Velocity":27,"Duration":300000,"SoundDuration":300000,"Delta":190085864},{"NoteNumber":49,"Velocity":15,"Duration":300000,"SoundDuration":300000,"Delta":190085864},{"NoteNumber":56,"Velocity":15,"Duration":300000,"SoundDuration":300000,"Delta":190085864},{"NoteNumber":61,"Velocity":15,"Duration":300000,"SoundDuration":300000,"Delta":190085864},{"NoteNumber":65,"Velocity":31,"Duration":194805,"SoundDuration":194805,"Delta":190485864},{"NoteNumber":49,"Velocity":18,"Duration":389610,"SoundDuration":389610,"Delta":190485864},{"NoteNumber":56,"Velocity":18,"Duration":389610,"SoundDuration":389610,"Delta":190485864},{"NoteNumber":61,"Velocity":18,"Duration":389610,"SoundDuration":389610,"Delta":190485864},{"NoteNumber":68,"Velocity":31,"Duration":194805,"SoundDuration":194805,"Delta":190680669},{"NoteNumber":66,"Velocity":28,"Duration":839160,"SoundDuration":839160,"Delta":190875475},{"NoteNumber":70,"Velocity":28,"Duration":839160,"SoundDuration":839160,"Delta":190875475},{"NoteNumber":73,"Velocity":30,"Duration":839160,"SoundDuration":839160,"Delta":190875475},{"NoteNumber":49,"Velocity":18,"Duration":839160,"SoundDuration":839160,"Delta":190875475},{"NoteNumber":56,"Velocity":18,"Duration":839160,"SoundDuration":839160,"Delta":190875475},{"NoteNumber":61,"Velocity":18,"Duration":839160,"SoundDuration":839160,"Delta":190875475},{"NoteNumber":65,"Velocity":24,"Duration":284810,"SoundDuration":284810,"Delta":191714636},{"NoteNumber":68,"Velocity":26,"Duration":284810,"SoundDuration":284810,"Delta":191714636},{"NoteNumber":49,"Velocity":16,"Duration":284810,"SoundDuration":284810,"Delta":191714636},{"NoteNumber":56,"Velocity":16,"Duration":284810,"SoundDuration":284810,"Delta":191714636},{"NoteNumber":61,"Velocity":16,"Duration":284810,"SoundDuration":284810,"Delta":191714636},{"NoteNumber":65,"Velocity":30,"Duration":194805,"SoundDuration":194805,"Delta":192094383},{"NoteNumber":68,"Velocity":33,"Duration":194805,"SoundDuration":194805,"Delta":192094383},{"NoteNumber":56,"Velocity":20,"Duration":389610,"SoundDuration":389610,"Delta":192094383},{"NoteNumber":60,"Velocity":20,"Duration":389610,"SoundDuration":389610,"Delta":192094383},{"NoteNumber":62,"Velocity":33,"Duration":194805,"SoundDuration":194805,"Delta":192289188},{"NoteNumber":63,"Velocity":31,"Duration":779221,"SoundDuration":779221,"Delta":192483993},{"NoteNumber":66,"Velocity":34,"Duration":779221,"SoundDuration":779221,"Delta":192483993},{"NoteNumber":56,"Velocity":22,"Duration":779221,"SoundDuration":779221,"Delta":192483993},{"NoteNumber":60,"Velocity":22,"Duration":779221,"SoundDuration":779221,"Delta":192483993},{"NoteNumber":66,"Velocity":29,"Duration":379747,"SoundDuration":379747,"Delta":193263214},{"NoteNumber":75,"Velocity":31,"Duration":379747,"SoundDuration":379747,"Delta":193263214},{"NoteNumber":56,"Velocity":20,"Duration":379747,"SoundDuration":379747,"Delta":193263214},{"NoteNumber":60,"Velocity":20,"Duration":379747,"SoundDuration":379747,"Delta":193263214},{"NoteNumber":68,"Velocity":33,"Duration":185185,"SoundDuration":185185,"Delta":193642961},{"NoteNumber":77,"Velocity":36,"Duration":185185,"SoundDuration":185185,"Delta":193642961},{"NoteNumber":49,"Velocity":20,"Duration":370370,"SoundDuration":370370,"Delta":193642961},{"NoteNumber":56,"Velocity":20,"Duration":370370,"SoundDuration":370370,"Delta":193642961},{"NoteNumber":61,"Velocity":20,"Duration":370370,"SoundDuration":370370,"Delta":193642961},{"NoteNumber":66,"Velocity":30,"Duration":185185,"SoundDuration":185185,"Delta":193828146},{"NoteNumber":75,"Velocity":33,"Duration":185185,"SoundDuration":185185,"Delta":193828146},{"NoteNumber":65,"Velocity":32,"Duration":794702,"SoundDuration":794702,"Delta":194013332},{"NoteNumber":73,"Velocity":35,"Duration":794702,"SoundDuration":794702,"Delta":194013332},{"NoteNumber":49,"Velocity":21,"Duration":794702,"SoundDuration":794702,"Delta":194013332},{"NoteNumber":56,"Velocity":21,"Duration":794702,"SoundDuration":794702,"Delta":194013332},{"NoteNumber":61,"Velocity":21,"Duration":794702,"SoundDuration":794702,"Delta":194013332},{"NoteNumber":65,"Velocity":27,"Duration":292207,"SoundDuration":292207,"Delta":194808034},{"NoteNumber":68,"Velocity":29,"Duration":292207,"SoundDuration":292207,"Delta":194808034},{"NoteNumber":49,"Velocity":18,"Duration":292207,"SoundDuration":292207,"Delta":194808034},{"NoteNumber":56,"Velocity":18,"Duration":292207,"SoundDuration":292207,"Delta":194808034},{"NoteNumber":61,"Velocity":18,"Duration":292207,"SoundDuration":292207,"Delta":194808034},{"NoteNumber":65,"Velocity":31,"Duration":194805,"SoundDuration":194805,"Delta":195197644},{"NoteNumber":49,"Velocity":18,"Duration":389610,"SoundDuration":389610,"Delta":195197644},{"NoteNumber":56,"Velocity":18,"Duration":389610,"SoundDuration":389610,"Delta":195197644},{"NoteNumber":61,"Velocity":18,"Duration":389610,"SoundDuration":389610,"Delta":195197644},{"NoteNumber":68,"Velocity":31,"Duration":194805,"SoundDuration":194805,"Delta":195392449},{"NoteNumber":66,"Velocity":25,"Duration":805369,"SoundDuration":805369,"Delta":195587255},{"NoteNumber":70,"Velocity":27,"Duration":805369,"SoundDuration":805369,"Delta":195587255},{"NoteNumber":49,"Velocity":19,"Duration":805369,"SoundDuration":805369,"Delta":195587255},{"NoteNumber":56,"Velocity":19,"Duration":805369,"SoundDuration":805369,"Delta":195587255},{"NoteNumber":61,"Velocity":19,"Duration":805369,"SoundDuration":805369,"Delta":195587255},{"NoteNumber":65,"Velocity":26,"Duration":292207,"SoundDuration":292207,"Delta":196392624},{"NoteNumber":68,"Velocity":28,"Duration":292207,"SoundDuration":292207,"Delta":196392624},{"NoteNumber":49,"Velocity":17,"Duration":292207,"SoundDuration":292207,"Delta":196392624},{"NoteNumber":56,"Velocity":17,"Duration":292207,"SoundDuration":292207,"Delta":196392624},{"NoteNumber":61,"Velocity":17,"Duration":292207,"SoundDuration":292207,"Delta":196392624},{"NoteNumber":65,"Velocity":31,"Duration":194805,"SoundDuration":194805,"Delta":196782234},{"NoteNumber":49,"Velocity":18,"Duration":389610,"SoundDuration":389610,"Delta":196782234},{"NoteNumber":56,"Velocity":18,"Duration":389610,"SoundDuration":389610,"Delta":196782234},{"NoteNumber":61,"Velocity":18,"Duration":389610,"SoundDuration":389610,"Delta":196782234},{"NoteNumber":68,"Velocity":31,"Duration":194805,"SoundDuration":194805,"Delta":196977039},{"NoteNumber":66,"Velocity":26,"Duration":800000,"SoundDuration":800000,"Delta":197171845},{"NoteNumber":70,"Velocity":26,"Duration":800000,"SoundDuration":800000,"Delta":197171845},{"NoteNumber":73,"Velocity":28,"Duration":800000,"SoundDuration":800000,"Delta":197171845},{"NoteNumber":49,"Velocity":18,"Duration":800000,"SoundDuration":800000,"Delta":197171845},{"NoteNumber":56,"Velocity":18,"Duration":800000,"SoundDuration":800000,"Delta":197171845},{"NoteNumber":61,"Velocity":18,"Duration":800000,"SoundDuration":800000,"Delta":197171845},{"NoteNumber":65,"Velocity":24,"Duration":286624,"SoundDuration":286624,"Delta":197971845},{"NoteNumber":68,"Velocity":26,"Duration":286624,"SoundDuration":286624,"Delta":197971845},{"NoteNumber":49,"Velocity":17,"Duration":286624,"SoundDuration":286624,"Delta":197971845},{"NoteNumber":56,"Velocity":17,"Duration":286624,"SoundDuration":286624,"Delta":197971845},{"NoteNumber":61,"Velocity":17,"Duration":286624,"SoundDuration":286624,"Delta":197971845},{"NoteNumber":65,"Velocity":30,"Duration":191082,"SoundDuration":191082,"Delta":198354010},{"NoteNumber":68,"Velocity":33,"Duration":191082,"SoundDuration":191082,"Delta":198354010},{"NoteNumber":56,"Velocity":20,"Duration":382165,"SoundDuration":382165,"Delta":198354010},{"NoteNumber":60,"Velocity":20,"Duration":382165,"SoundDuration":382165,"Delta":198354010},{"NoteNumber":62,"Velocity":33,"Duration":191082,"SoundDuration":191082,"Delta":198545093},{"NoteNumber":63,"Velocity":36,"Duration":599999,"SoundDuration":599999,"Delta":198736176},{"NoteNumber":66,"Velocity":39,"Duration":599999,"SoundDuration":599999,"Delta":198736176},{"NoteNumber":56,"Velocity":22,"Duration":786335,"SoundDuration":786335,"Delta":198736176},{"NoteNumber":60,"Velocity":22,"Duration":786335,"SoundDuration":786335,"Delta":198736176},{"NoteNumber":66,"Velocity":29,"Duration":186335,"SoundDuration":186335,"Delta":199336176},{"NoteNumber":75,"Velocity":31,"Duration":186335,"SoundDuration":186335,"Delta":199336176},{"NoteNumber":68,"Velocity":30,"Duration":186335,"SoundDuration":186335,"Delta":199522511},{"NoteNumber":77,"Velocity":33,"Duration":186335,"SoundDuration":186335,"Delta":199522511},{"NoteNumber":56,"Velocity":19,"Duration":372670,"SoundDuration":372670,"Delta":199522511},{"NoteNumber":60,"Velocity":19,"Duration":372670,"SoundDuration":372670,"Delta":199522511},{"NoteNumber":66,"Velocity":29,"Duration":186335,"SoundDuration":186335,"Delta":199708847},{"NoteNumber":75,"Velocity":31,"Duration":186335,"SoundDuration":186335,"Delta":199708847},{"NoteNumber":65,"Velocity":30,"Duration":186335,"SoundDuration":186335,"Delta":199895182},{"NoteNumber":73,"Velocity":33,"Duration":186335,"SoundDuration":186335,"Delta":199895182},{"NoteNumber":49,"Velocity":20,"Duration":372670,"SoundDuration":372670,"Delta":199895182},{"NoteNumber":56,"Velocity":20,"Duration":372670,"SoundDuration":372670,"Delta":199895182},{"NoteNumber":61,"Velocity":20,"Duration":372670,"SoundDuration":372670,"Delta":199895182},{"NoteNumber":66,"Velocity":30,"Duration":186335,"SoundDuration":186335,"Delta":200081518},{"NoteNumber":75,"Velocity":33,"Duration":186335,"SoundDuration":186335,"Delta":200081518},{"NoteNumber":65,"Velocity":32,"Duration":1651375,"SoundDuration":1651375,"Delta":200267853},{"NoteNumber":73,"Velocity":35,"Duration":1651375,"SoundDuration":1651375,"Delta":200267853},{"NoteNumber":49,"Velocity":21,"Duration":1651375,"SoundDuration":1651375,"Delta":200267853},{"NoteNumber":56,"Velocity":21,"Duration":1651375,"SoundDuration":1651375,"Delta":200267853},{"NoteNumber":61,"Velocity":21,"Duration":1651375,"SoundDuration":1651375,"Delta":200267853},{"NoteNumber":53,"Velocity":35,"Duration":186335,"SoundDuration":186335,"Delta":201919229},{"NoteNumber":29,"Velocity":32,"Duration":372670,"SoundDuration":372670,"Delta":201919229},{"NoteNumber":41,"Velocity":32,"Duration":372670,"SoundDuration":372670,"Delta":201919229},{"NoteNumber":57,"Velocity":35,"Duration":186335,"SoundDuration":186335,"Delta":202105564},{"NoteNumber":49,"Velocity":38,"Duration":779221,"SoundDuration":779221,"Delta":202291900},{"NoteNumber":53,"Velocity":38,"Duration":779221,"SoundDuration":779221,"Delta":202291900},{"NoteNumber":58,"Velocity":38,"Duration":779221,"SoundDuration":779221,"Delta":202291900},{"NoteNumber":34,"Velocity":34,"Duration":779221,"SoundDuration":779221,"Delta":202291900},{"NoteNumber":41,"Velocity":34,"Duration":779221,"SoundDuration":779221,"Delta":202291900},{"NoteNumber":48,"Velocity":31,"Duration":372670,"SoundDuration":372670,"Delta":203071121},{"NoteNumber":53,"Velocity":31,"Duration":372670,"SoundDuration":372670,"Delta":203071121},{"NoteNumber":57,"Velocity":31,"Duration":372670,"SoundDuration":372670,"Delta":203071121},{"NoteNumber":29,"Velocity":29,"Duration":372670,"SoundDuration":372670,"Delta":203071121},{"NoteNumber":41,"Velocity":29,"Duration":372670,"SoundDuration":372670,"Delta":203071121},{"NoteNumber":53,"Velocity":39,"Duration":186335,"SoundDuration":186335,"Delta":203443792},{"NoteNumber":29,"Velocity":32,"Duration":372670,"SoundDuration":372670,"Delta":203443792},{"NoteNumber":41,"Velocity":32,"Duration":372670,"SoundDuration":372670,"Delta":203443792},{"NoteNumber":57,"Velocity":39,"Duration":186335,"SoundDuration":186335,"Delta":203630127},{"NoteNumber":61,"Velocity":43,"Duration":789474,"SoundDuration":789474,"Delta":203816463},{"NoteNumber":58,"Velocity":43,"Duration":789474,"SoundDuration":789474,"Delta":203816463},{"NoteNumber":53,"Velocity":43,"Duration":789474,"SoundDuration":789474,"Delta":203816463},{"NoteNumber":34,"Velocity":36,"Duration":789474,"SoundDuration":789474,"Delta":203816463},{"NoteNumber":41,"Velocity":36,"Duration":789474,"SoundDuration":789474,"Delta":203816463},{"NoteNumber":60,"Velocity":31,"Duration":378980,"SoundDuration":378980,"Delta":204605937},{"NoteNumber":53,"Velocity":31,"Duration":378980,"SoundDuration":378980,"Delta":204605937},{"NoteNumber":57,"Velocity":31,"Duration":378980,"SoundDuration":378980,"Delta":204605937},{"NoteNumber":29,"Velocity":31,"Duration":382165,"SoundDuration":382165,"Delta":204605937},{"NoteNumber":41,"Velocity":31,"Duration":382165,"SoundDuration":382165,"Delta":204605937},{"NoteNumber":60,"Velocity":29,"Duration":256410,"SoundDuration":256410,"Delta":204988102},{"NoteNumber":57,"Velocity":29,"Duration":256410,"SoundDuration":256410,"Delta":204988102},{"NoteNumber":29,"Velocity":24,"Duration":512820,"SoundDuration":512820,"Delta":204988102},{"NoteNumber":41,"Velocity":24,"Duration":512820,"SoundDuration":512820,"Delta":204988102},{"NoteNumber":66,"Velocity":29,"Duration":256410,"SoundDuration":256410,"Delta":205244512},{"NoteNumber":58,"Velocity":33,"Duration":930232,"SoundDuration":930232,"Delta":205500923},{"NoteNumber":61,"Velocity":33,"Duration":930232,"SoundDuration":930232,"Delta":205500923},{"NoteNumber":65,"Velocity":33,"Duration":930232,"SoundDuration":930232,"Delta":205500923},{"NoteNumber":34,"Velocity":24,"Duration":930232,"SoundDuration":930232,"Delta":205500923},{"NoteNumber":41,"Velocity":24,"Duration":930232,"SoundDuration":930232,"Delta":205500923},{"NoteNumber":57,"Velocity":24,"Duration":599999,"SoundDuration":599999,"Delta":206431156},{"NoteNumber":60,"Velocity":24,"Duration":599999,"SoundDuration":599999,"Delta":206431156},{"NoteNumber":65,"Velocity":28,"Duration":599999,"SoundDuration":599999,"Delta":206431156},{"NoteNumber":29,"Velocity":20,"Duration":599999,"SoundDuration":599999,"Delta":206431156},{"NoteNumber":41,"Velocity":20,"Duration":599999,"SoundDuration":599999,"Delta":206431156},{"NoteNumber":56,"Velocity":18,"Duration":845070,"SoundDuration":845070,"Delta":207031156},{"NoteNumber":60,"Velocity":18,"Duration":845070,"SoundDuration":845070,"Delta":207031156},{"NoteNumber":66,"Velocity":22,"Duration":422535,"SoundDuration":422535,"Delta":207031156},{"NoteNumber":39,"Velocity":17,"Duration":845070,"SoundDuration":845070,"Delta":207031156},{"NoteNumber":44,"Velocity":17,"Duration":845070,"SoundDuration":845070,"Delta":207031156},{"NoteNumber":68,"Velocity":22,"Duration":422535,"SoundDuration":422535,"Delta":207453691},{"NoteNumber":56,"Velocity":18,"Duration":3226829,"SoundDuration":3226829,"Delta":207876226},{"NoteNumber":61,"Velocity":18,"Duration":3226829,"SoundDuration":3226829,"Delta":207876226},{"NoteNumber":65,"Velocity":22,"Duration":3226829,"SoundDuration":3226829,"Delta":207876226},{"NoteNumber":37,"Velocity":17,"Duration":3226829,"SoundDuration":3226829,"Delta":207876226},{"NoteNumber":44,"Velocity":17,"Duration":3226829,"SoundDuration":3226829,"Delta":207876226},{"NoteNumber":68,"Velocity":60,"Duration":300000,"SoundDuration":300000,"Delta":210803055},{"NoteNumber":64,"Velocity":66,"Duration":149999,"SoundDuration":149999,"Delta":211103055},{"NoteNumber":49,"Velocity":54,"Duration":149999,"SoundDuration":149999,"Delta":211103055},{"NoteNumber":61,"Velocity":60,"Duration":145304,"SoundDuration":145304,"Delta":211253055},{"NoteNumber":64,"Velocity":60,"Duration":146028,"SoundDuration":146028,"Delta":211398360},{"NoteNumber":56,"Velocity":50,"Duration":146028,"SoundDuration":146028,"Delta":211398360},{"NoteNumber":68,"Velocity":60,"Duration":146802,"SoundDuration":146802,"Delta":211544388},{"NoteNumber":64,"Velocity":64,"Duration":147534,"SoundDuration":147534,"Delta":211691190},{"NoteNumber":49,"Velocity":54,"Duration":147534,"SoundDuration":147534,"Delta":211691190},{"NoteNumber":61,"Velocity":60,"Duration":144848,"SoundDuration":144848,"Delta":211838724},{"NoteNumber":64,"Velocity":60,"Duration":145185,"SoundDuration":145185,"Delta":211983573},{"NoteNumber":57,"Velocity":50,"Duration":145185,"SoundDuration":145185,"Delta":211983573},{"NoteNumber":69,"Velocity":60,"Duration":146121,"SoundDuration":146121,"Delta":212128758},{"NoteNumber":63,"Velocity":63,"Duration":146939,"SoundDuration":146939,"Delta":212274879},{"NoteNumber":48,"Velocity":54,"Duration":146939,"SoundDuration":146939,"Delta":212274879},{"NoteNumber":60,"Velocity":60,"Duration":145304,"SoundDuration":145304,"Delta":212421819},{"NoteNumber":63,"Velocity":60,"Duration":146028,"SoundDuration":146028,"Delta":212567123},{"NoteNumber":57,"Velocity":51,"Duration":146028,"SoundDuration":146028,"Delta":212567123},{"NoteNumber":69,"Velocity":60,"Duration":146752,"SoundDuration":146752,"Delta":212713152},{"NoteNumber":63,"Velocity":63,"Duration":147507,"SoundDuration":147507,"Delta":212859904},{"NoteNumber":48,"Velocity":54,"Duration":147507,"SoundDuration":147507,"Delta":212859904},{"NoteNumber":60,"Velocity":60,"Duration":145067,"SoundDuration":145067,"Delta":213007411},{"NoteNumber":63,"Velocity":60,"Duration":145537,"SoundDuration":145537,"Delta":213152479},{"NoteNumber":56,"Velocity":50,"Duration":145537,"SoundDuration":145537,"Delta":213152479},{"NoteNumber":68,"Velocity":60,"Duration":146005,"SoundDuration":146005,"Delta":213298017},{"NoteNumber":68,"Velocity":66,"Duration":146587,"SoundDuration":146587,"Delta":213444022},{"NoteNumber":49,"Velocity":55,"Duration":146587,"SoundDuration":146587,"Delta":213444022},{"NoteNumber":64,"Velocity":63,"Duration":144729,"SoundDuration":144729,"Delta":213590609},{"NoteNumber":68,"Velocity":63,"Duration":145563,"SoundDuration":145563,"Delta":213735339},{"NoteNumber":56,"Velocity":51,"Duration":145563,"SoundDuration":145563,"Delta":213735339},{"NoteNumber":76,"Velocity":63,"Duration":146399,"SoundDuration":146399,"Delta":213880902},{"NoteNumber":68,"Velocity":66,"Duration":147273,"SoundDuration":147273,"Delta":214027301},{"NoteNumber":52,"Velocity":55,"Duration":147273,"SoundDuration":147273,"Delta":214027301},{"NoteNumber":64,"Velocity":63,"Duration":145067,"SoundDuration":145067,"Delta":214174574},{"NoteNumber":68,"Velocity":63,"Duration":145537,"SoundDuration":145537,"Delta":214319642},{"NoteNumber":56,"Velocity":52,"Duration":145537,"SoundDuration":145537,"Delta":214319642},{"NoteNumber":73,"Velocity":63,"Duration":146121,"SoundDuration":146121,"Delta":214465180},{"NoteNumber":69,"Velocity":67,"Duration":146704,"SoundDuration":146704,"Delta":214611301},{"NoteNumber":51,"Velocity":56,"Duration":146704,"SoundDuration":146704,"Delta":214611301},{"NoteNumber":68,"Velocity":60,"Duration":144383,"SoundDuration":144383,"Delta":214758006},{"NoteNumber":66,"Velocity":61,"Duration":145067,"SoundDuration":145067,"Delta":214902389},{"NoteNumber":57,"Velocity":52,"Duration":145067,"SoundDuration":145067,"Delta":214902389},{"NoteNumber":73,"Velocity":62,"Duration":145772,"SoundDuration":145772,"Delta":215047457},{"NoteNumber":72,"Velocity":68,"Duration":146469,"SoundDuration":146469,"Delta":215193229},{"NoteNumber":51,"Velocity":55,"Duration":146469,"SoundDuration":146469,"Delta":215193229},{"NoteNumber":66,"Velocity":65,"Duration":146919,"SoundDuration":146919,"Delta":215339699},{"NoteNumber":68,"Velocity":66,"Duration":145886,"SoundDuration":145886,"Delta":215486619},{"NoteNumber":56,"Velocity":52,"Duration":145886,"SoundDuration":145886,"Delta":215486619},{"NoteNumber":72,"Velocity":67,"Duration":146743,"SoundDuration":146743,"Delta":215632506},{"NoteNumber":73,"Velocity":72,"Duration":147628,"SoundDuration":147628,"Delta":215779249},{"NoteNumber":49,"Velocity":56,"Duration":147628,"SoundDuration":147628,"Delta":215779249},{"NoteNumber":64,"Velocity":63,"Duration":144913,"SoundDuration":144913,"Delta":215926878},{"NoteNumber":68,"Velocity":65,"Duration":145645,"SoundDuration":145645,"Delta":216071791},{"NoteNumber":61,"Velocity":50,"Duration":145645,"SoundDuration":145645,"Delta":216071791},{"NoteNumber":73,"Velocity":67,"Duration":146369,"SoundDuration":146369,"Delta":216217437},{"NoteNumber":76,"Velocity":69,"Duration":147116,"SoundDuration":147116,"Delta":216363807},{"NoteNumber":49,"Velocity":55,"Duration":147116,"SoundDuration":147116,"Delta":216363807},{"NoteNumber":68,"Velocity":64,"Duration":144430,"SoundDuration":144430,"Delta":216510923},{"NoteNumber":76,"Velocity":66,"Duration":145157,"SoundDuration":145157,"Delta":216655354},{"NoteNumber":59,"Velocity":51,"Duration":145157,"SoundDuration":145157,"Delta":216655354},{"NoteNumber":80,"Velocity":68,"Duration":146128,"SoundDuration":146128,"Delta":216800511},{"NoteNumber":76,"Velocity":73,"Duration":148540,"SoundDuration":148540,"Delta":216946640},{"NoteNumber":54,"Velocity":57,"Duration":148540,"SoundDuration":148540,"Delta":216946640},{"NoteNumber":69,"Velocity":64,"Duration":146056,"SoundDuration":146056,"Delta":217095180},{"NoteNumber":76,"Velocity":66,"Duration":146056,"SoundDuration":146056,"Delta":217241237},{"NoteNumber":57,"Velocity":56,"Duration":146056,"SoundDuration":146056,"Delta":217241237},{"NoteNumber":80,"Velocity":68,"Duration":146056,"SoundDuration":146056,"Delta":217387293},{"NoteNumber":74,"Velocity":70,"Duration":146056,"SoundDuration":146056,"Delta":217533350},{"NoteNumber":54,"Velocity":57,"Duration":146056,"SoundDuration":146056,"Delta":217533350},{"NoteNumber":78,"Velocity":67,"Duration":146056,"SoundDuration":146056,"Delta":217679406},{"NoteNumber":73,"Velocity":70,"Duration":146056,"SoundDuration":146056,"Delta":217825463},{"NoteNumber":57,"Velocity":54,"Duration":146056,"SoundDuration":146056,"Delta":217825463},{"NoteNumber":76,"Velocity":67,"Duration":146056,"SoundDuration":146056,"Delta":217971519},{"NoteNumber":72,"Velocity":68,"Duration":144913,"SoundDuration":144913,"Delta":218117576},{"NoteNumber":45,"Velocity":58,"Duration":144913,"SoundDuration":144913,"Delta":218117576},{"NoteNumber":75,"Velocity":65,"Duration":145697,"SoundDuration":145697,"Delta":218262489},{"NoteNumber":73,"Velocity":67,"Duration":146465,"SoundDuration":146465,"Delta":218408187},{"NoteNumber":54,"Velocity":54,"Duration":146465,"SoundDuration":146465,"Delta":218408187},{"NoteNumber":76,"Velocity":65,"Duration":147254,"SoundDuration":147254,"Delta":218554652},{"NoteNumber":75,"Velocity":68,"Duration":148041,"SoundDuration":148041,"Delta":218701907},{"NoteNumber":44,"Velocity":56,"Duration":148041,"SoundDuration":148041,"Delta":218701907},{"NoteNumber":78,"Velocity":64,"Duration":148841,"SoundDuration":148841,"Delta":218849949},{"NoteNumber":72,"Velocity":69,"Duration":149770,"SoundDuration":149770,"Delta":218998790},{"NoteNumber":56,"Velocity":54,"Duration":149770,"SoundDuration":149770,"Delta":218998790},{"NoteNumber":75,"Velocity":64,"Duration":153968,"SoundDuration":153968,"Delta":219148561},{"NoteNumber":76,"Velocity":68,"Duration":146244,"SoundDuration":146244,"Delta":219302530},{"NoteNumber":49,"Velocity":54,"Duration":146244,"SoundDuration":146244,"Delta":219302530},{"NoteNumber":73,"Velocity":67,"Duration":147254,"SoundDuration":147254,"Delta":219448775},{"NoteNumber":71,"Velocity":66,"Duration":148495,"SoundDuration":148495,"Delta":219596029},{"NoteNumber":51,"Velocity":54,"Duration":148495,"SoundDuration":148495,"Delta":219596029},{"NoteNumber":69,"Velocity":64,"Duration":149537,"SoundDuration":149537,"Delta":219744525},{"NoteNumber":68,"Velocity":63,"Duration":150701,"SoundDuration":150701,"Delta":219894063},{"NoteNumber":52,"Velocity":55,"Duration":150701,"SoundDuration":150701,"Delta":219894063},{"NoteNumber":66,"Velocity":62,"Duration":151997,"SoundDuration":151997,"Delta":220044765},{"NoteNumber":64,"Velocity":60,"Duration":153086,"SoundDuration":153086,"Delta":220196762},{"NoteNumber":56,"Velocity":56,"Duration":153086,"SoundDuration":153086,"Delta":220196762},{"NoteNumber":63,"Velocity":59,"Duration":154306,"SoundDuration":154306,"Delta":220349848},{"NoteNumber":64,"Velocity":62,"Duration":157002,"SoundDuration":157002,"Delta":220504154},{"NoteNumber":49,"Velocity":51,"Duration":157002,"SoundDuration":157002,"Delta":220504154},{"NoteNumber":61,"Velocity":57,"Duration":148412,"SoundDuration":148412,"Delta":220661156},{"NoteNumber":64,"Velocity":57,"Duration":148893,"SoundDuration":148893,"Delta":220809568},{"NoteNumber":56,"Velocity":47,"Duration":148893,"SoundDuration":148893,"Delta":220809568},{"NoteNumber":68,"Velocity":57,"Duration":149373,"SoundDuration":149373,"Delta":220958462},{"NoteNumber":64,"Velocity":60,"Duration":149493,"SoundDuration":149493,"Delta":221107836},{"NoteNumber":49,"Velocity":51,"Duration":149493,"SoundDuration":149493,"Delta":221107836},{"NoteNumber":61,"Velocity":57,"Duration":147827,"SoundDuration":147827,"Delta":221257329},{"NoteNumber":64,"Velocity":57,"Duration":148532,"SoundDuration":148532,"Delta":221405157},{"NoteNumber":57,"Velocity":47,"Duration":148532,"SoundDuration":148532,"Delta":221405157},{"NoteNumber":69,"Velocity":57,"Duration":149135,"SoundDuration":149135,"Delta":221553689},{"NoteNumber":63,"Velocity":59,"Duration":149135,"SoundDuration":149135,"Delta":221702824},{"NoteNumber":47,"Velocity":51,"Duration":149135,"SoundDuration":149135,"Delta":221702824},{"NoteNumber":59,"Velocity":57,"Duration":147827,"SoundDuration":147827,"Delta":221851959},{"NoteNumber":63,"Velocity":57,"Duration":148653,"SoundDuration":148653,"Delta":221999787},{"NoteNumber":57,"Velocity":48,"Duration":148653,"SoundDuration":148653,"Delta":221999787},{"NoteNumber":69,"Velocity":57,"Duration":149492,"SoundDuration":149492,"Delta":222148440},{"NoteNumber":63,"Velocity":59,"Duration":150321,"SoundDuration":150321,"Delta":222297932},{"NoteNumber":47,"Velocity":51,"Duration":150321,"SoundDuration":150321,"Delta":222297932},{"NoteNumber":59,"Velocity":57,"Duration":148412,"SoundDuration":148412,"Delta":222448254},{"NoteNumber":63,"Velocity":57,"Duration":148893,"SoundDuration":148893,"Delta":222596666},{"NoteNumber":56,"Velocity":47,"Duration":148893,"SoundDuration":148893,"Delta":222596666},{"NoteNumber":68,"Velocity":57,"Duration":149492,"SoundDuration":149492,"Delta":222745560},{"NoteNumber":68,"Velocity":62,"Duration":150085,"SoundDuration":150085,"Delta":222895052},{"NoteNumber":52,"Velocity":52,"Duration":150085,"SoundDuration":150085,"Delta":222895052},{"NoteNumber":61,"Velocity":59,"Duration":147710,"SoundDuration":147710,"Delta":223045138},{"NoteNumber":68,"Velocity":59,"Duration":148412,"SoundDuration":148412,"Delta":223192849},{"NoteNumber":56,"Velocity":48,"Duration":148412,"SoundDuration":148412,"Delta":223192849},{"NoteNumber":73,"Velocity":59,"Duration":149135,"SoundDuration":149135,"Delta":223341261},{"NoteNumber":66,"Velocity":62,"Duration":149968,"SoundDuration":149968,"Delta":223490396},{"NoteNumber":45,"Velocity":52,"Duration":149968,"SoundDuration":149968,"Delta":223490396},{"NoteNumber":63,"Velocity":59,"Duration":148412,"SoundDuration":148412,"Delta":223640364},{"NoteNumber":66,"Velocity":59,"Duration":148893,"SoundDuration":148893,"Delta":223788776},{"NoteNumber":57,"Velocity":49,"Duration":148893,"SoundDuration":148893,"Delta":223788776},{"NoteNumber":73,"Velocity":59,"Duration":149373,"SoundDuration":149373,"Delta":223937670},{"NoteNumber":68,"Velocity":63,"Duration":149968,"SoundDuration":149968,"Delta":224087043},{"NoteNumber":44,"Velocity":51,"Duration":149968,"SoundDuration":149968,"Delta":224087043},{"NoteNumber":64,"Velocity":59,"Duration":147131,"SoundDuration":147131,"Delta":224237011},{"NoteNumber":68,"Velocity":59,"Duration":147944,"SoundDuration":147944,"Delta":224384142},{"NoteNumber":59,"Velocity":49,"Duration":147944,"SoundDuration":147944,"Delta":224384142},{"NoteNumber":73,"Velocity":59,"Duration":148893,"SoundDuration":148893,"Delta":224532087},{"NoteNumber":68,"Velocity":62,"Duration":147710,"SoundDuration":147710,"Delta":224680981},{"NoteNumber":56,"Velocity":52,"Duration":147710,"SoundDuration":147710,"Delta":224680981},{"NoteNumber":64,"Velocity":60,"Duration":148295,"SoundDuration":148295,"Delta":224828691},{"NoteNumber":68,"Velocity":60,"Duration":148893,"SoundDuration":148893,"Delta":224976986},{"NoteNumber":59,"Velocity":49,"Duration":148893,"SoundDuration":148893,"Delta":224976986},{"NoteNumber":71,"Velocity":60,"Duration":149492,"SoundDuration":149492,"Delta":225125880},{"NoteNumber":67,"Velocity":68,"Duration":150203,"SoundDuration":150203,"Delta":225275373},{"NoteNumber":49,"Velocity":52,"Duration":150203,"SoundDuration":150203,"Delta":225275373},{"NoteNumber":64,"Velocity":59,"Duration":148250,"SoundDuration":148250,"Delta":225425577},{"NoteNumber":67,"Velocity":61,"Duration":149001,"SoundDuration":149001,"Delta":225573827},{"NoteNumber":52,"Velocity":47,"Duration":149001,"SoundDuration":149001,"Delta":225573827},{"NoteNumber":70,"Velocity":63,"Duration":149730,"SoundDuration":149730,"Delta":225722829},{"NoteNumber":76,"Velocity":65,"Duration":150496,"SoundDuration":150496,"Delta":225872560},{"NoteNumber":48,"Velocity":52,"Duration":150496,"SoundDuration":150496,"Delta":225872560},{"NoteNumber":70,"Velocity":60,"Duration":147755,"SoundDuration":147755,"Delta":226023056},{"NoteNumber":76,"Velocity":62,"Duration":148501,"SoundDuration":148501,"Delta":226170811},{"NoteNumber":58,"Velocity":44,"Duration":148501,"SoundDuration":148501,"Delta":226170811},{"NoteNumber":79,"Velocity":64,"Duration":149487,"SoundDuration":149487,"Delta":226319313},{"NoteNumber":75,"Velocity":64,"Duration":147710,"SoundDuration":147710,"Delta":226468800},{"NoteNumber":47,"Velocity":48,"Duration":147710,"SoundDuration":147710,"Delta":226468800},{"NoteNumber":79,"Velocity":62,"Duration":148295,"SoundDuration":148295,"Delta":226616511},{"NoteNumber":75,"Velocity":63,"Duration":148893,"SoundDuration":148893,"Delta":226764806},{"NoteNumber":59,"Velocity":45,"Duration":148893,"SoundDuration":148893,"Delta":226764806},{"NoteNumber":78,"Velocity":61,"Duration":149492,"SoundDuration":149492,"Delta":226913700},{"NoteNumber":69,"Velocity":62,"Duration":150203,"SoundDuration":150203,"Delta":227063192},{"NoteNumber":48,"Velocity":48,"Duration":150203,"SoundDuration":150203,"Delta":227063192},{"NoteNumber":76,"Velocity":61,"Duration":150805,"SoundDuration":150805,"Delta":227213396},{"NoteNumber":69,"Velocity":62,"Duration":151423,"SoundDuration":151423,"Delta":227364201},{"NoteNumber":54,"Velocity":43,"Duration":151423,"SoundDuration":151423,"Delta":227364201},{"NoteNumber":75,"Velocity":60,"Duration":152161,"SoundDuration":152161,"Delta":227515625},{"NoteNumber":69,"Velocity":59,"Duration":152780,"SoundDuration":152780,"Delta":227667786},{"NoteNumber":49,"Velocity":45,"Duration":152780,"SoundDuration":152780,"Delta":227667786},{"NoteNumber":78,"Velocity":56,"Duration":153531,"SoundDuration":153531,"Delta":227820567},{"NoteNumber":68,"Velocity":59,"Duration":154162,"SoundDuration":154162,"Delta":227974098},{"NoteNumber":52,"Velocity":39,"Duration":154162,"SoundDuration":154162,"Delta":227974098},{"NoteNumber":76,"Velocity":56,"Duration":154799,"SoundDuration":154799,"Delta":228128261},{"NoteNumber":64,"Velocity":58,"Duration":155581,"SoundDuration":155581,"Delta":228283060},{"NoteNumber":45,"Velocity":46,"Duration":155581,"SoundDuration":155581,"Delta":228283060},{"NoteNumber":73,"Velocity":55,"Duration":156226,"SoundDuration":156226,"Delta":228438641},{"NoteNumber":61,"Velocity":57,"Duration":156877,"SoundDuration":156877,"Delta":228594868},{"NoteNumber":54,"Velocity":40,"Duration":156877,"SoundDuration":156877,"Delta":228594868},{"NoteNumber":69,"Velocity":55,"Duration":157436,"SoundDuration":157436,"Delta":228751745},{"NoteNumber":59,"Velocity":57,"Duration":157756,"SoundDuration":157756,"Delta":228909182},{"NoteNumber":47,"Velocity":46,"Duration":157756,"SoundDuration":157756,"Delta":228909182},{"NoteNumber":68,"Velocity":55,"Duration":156795,"SoundDuration":156795,"Delta":229066939},{"NoteNumber":64,"Velocity":57,"Duration":155845,"SoundDuration":155845,"Delta":229223734},{"NoteNumber":56,"Velocity":43,"Duration":155845,"SoundDuration":155845,"Delta":229223734},{"NoteNumber":71,"Velocity":56,"Duration":155039,"SoundDuration":155039,"Delta":229379580},{"NoteNumber":59,"Velocity":57,"Duration":154110,"SoundDuration":154110,"Delta":229534620},{"NoteNumber":47,"Velocity":45,"Duration":154110,"SoundDuration":154110,"Delta":229534620},{"NoteNumber":69,"Velocity":56,"Duration":153192,"SoundDuration":153192,"Delta":229688730},{"NoteNumber":63,"Velocity":57,"Duration":152284,"SoundDuration":152284,"Delta":229841922},{"NoteNumber":57,"Velocity":41,"Duration":152284,"SoundDuration":152284,"Delta":229841922},{"NoteNumber":71,"Velocity":56,"Duration":151388,"SoundDuration":151388,"Delta":229994206},{"NoteNumber":69,"Velocity":57,"Duration":449383,"SoundDuration":449383,"Delta":230145595},{"NoteNumber":47,"Velocity":46,"Duration":150502,"SoundDuration":150502,"Delta":230145595},{"NoteNumber":63,"Velocity":54,"Duration":149626,"SoundDuration":149626,"Delta":230296097},{"NoteNumber":59,"Velocity":54,"Duration":149253,"SoundDuration":149253,"Delta":230445724},{"NoteNumber":54,"Velocity":39,"Duration":149253,"SoundDuration":149253,"Delta":230445724},{"NoteNumber":69,"Velocity":57,"Duration":149253,"SoundDuration":149253,"Delta":230594978},{"NoteNumber":68,"Velocity":57,"Duration":150000,"SoundDuration":150000,"Delta":230744232},{"NoteNumber":52,"Velocity":47,"Duration":150000,"SoundDuration":150000,"Delta":230744232},{"NoteNumber":64,"Velocity":53,"Duration":149270,"SoundDuration":149270,"Delta":230894232},{"NoteNumber":68,"Velocity":55,"Duration":147541,"SoundDuration":147541,"Delta":231043502},{"NoteNumber":54,"Velocity":41,"Duration":147541,"SoundDuration":147541,"Delta":231043502},{"NoteNumber":69,"Velocity":57,"Duration":149029,"SoundDuration":149029,"Delta":231191044},{"NoteNumber":71,"Velocity":59,"Duration":152284,"SoundDuration":152284,"Delta":231340074},{"NoteNumber":56,"Velocity":45,"Duration":152284,"SoundDuration":152284,"Delta":231340074},{"NoteNumber":68,"Velocity":50,"Duration":153061,"SoundDuration":153061,"Delta":231492358},{"NoteNumber":71,"Velocity":53,"Duration":153846,"SoundDuration":153846,"Delta":231645419},{"NoteNumber":59,"Velocity":36,"Duration":153846,"SoundDuration":153846,"Delta":231645419},{"NoteNumber":80,"Velocity":46,"Duration":153846,"SoundDuration":153846,"Delta":231799266},{"NoteNumber":71,"Velocity":49,"Duration":150753,"SoundDuration":150753,"Delta":231953112},{"NoteNumber":56,"Velocity":34,"Duration":150753,"SoundDuration":150753,"Delta":231953112},{"NoteNumber":78,"Velocity":44,"Duration":150753,"SoundDuration":150753,"Delta":232103866},{"NoteNumber":72,"Velocity":49,"Duration":150753,"SoundDuration":150753,"Delta":232254619},{"NoteNumber":64,"Velocity":31,"Duration":150753,"SoundDuration":150753,"Delta":232254619},{"NoteNumber":76,"Velocity":46,"Duration":150753,"SoundDuration":150753,"Delta":232405373},{"NoteNumber":73,"Velocity":53,"Duration":161620,"SoundDuration":161620,"Delta":232556127},{"NoteNumber":57,"Velocity":45,"Duration":161620,"SoundDuration":161620,"Delta":232556127},{"NoteNumber":64,"Velocity":56,"Duration":157645,"SoundDuration":157645,"Delta":232717747},{"NoteNumber":73,"Velocity":54,"Duration":158145,"SoundDuration":158145,"Delta":232875393},{"NoteNumber":45,"Velocity":40,"Duration":158145,"SoundDuration":158145,"Delta":232875393},{"NoteNumber":76,"Velocity":55,"Duration":158647,"SoundDuration":158647,"Delta":233033538},{"NoteNumber":71,"Velocity":59,"Duration":159151,"SoundDuration":159151,"Delta":233192185},{"NoteNumber":47,"Velocity":41,"Duration":159151,"SoundDuration":159151,"Delta":233192185},{"NoteNumber":75,"Velocity":54,"Duration":157027,"SoundDuration":157027,"Delta":233351337},{"NoteNumber":69,"Velocity":57,"Duration":157895,"SoundDuration":157895,"Delta":233508364},{"NoteNumber":49,"Velocity":42,"Duration":157895,"SoundDuration":157895,"Delta":233508364},{"NoteNumber":73,"Velocity":54,"Duration":158773,"SoundDuration":158773,"Delta":233666260},{"NoteNumber":68,"Velocity":57,"Duration":159660,"SoundDuration":159660,"Delta":233825033},{"NoteNumber":47,"Velocity":45,"Duration":159660,"SoundDuration":159660,"Delta":233825033},{"NoteNumber":59,"Velocity":54,"Duration":157645,"SoundDuration":157645,"Delta":233984693},{"NoteNumber":68,"Velocity":54,"Duration":158145,"SoundDuration":158145,"Delta":234142339},{"NoteNumber":52,"Velocity":39,"Duration":158145,"SoundDuration":158145,"Delta":234142339},{"NoteNumber":71,"Velocity":54,"Duration":158647,"SoundDuration":158647,"Delta":234300484},{"NoteNumber":64,"Velocity":57,"Duration":159151,"SoundDuration":159151,"Delta":234459131},{"NoteNumber":47,"Velocity":43,"Duration":159151,"SoundDuration":159151,"Delta":234459131},{"NoteNumber":58,"Velocity":51,"Duration":157645,"SoundDuration":157645,"Delta":234618282},{"NoteNumber":64,"Velocity":52,"Duration":158395,"SoundDuration":158395,"Delta":234775928},{"NoteNumber":55,"Velocity":41,"Duration":158395,"SoundDuration":158395,"Delta":234775928},{"NoteNumber":73,"Velocity":52,"Duration":159151,"SoundDuration":159151,"Delta":234934323},{"NoteNumber":66,"Velocity":54,"Duration":164095,"SoundDuration":164095,"Delta":235093474},{"NoteNumber":47,"Velocity":41,"Duration":164095,"SoundDuration":164095,"Delta":235093474},{"NoteNumber":57,"Velocity":49,"Duration":161759,"SoundDuration":161759,"Delta":235257570},{"NoteNumber":66,"Velocity":49,"Duration":161760,"SoundDuration":161760,"Delta":235419330},{"NoteNumber":52,"Velocity":39,"Duration":161760,"SoundDuration":161760,"Delta":235419330},{"NoteNumber":71,"Velocity":49,"Duration":161759,"SoundDuration":161759,"Delta":235581090},{"NoteNumber":66,"Velocity":53,"Duration":161760,"SoundDuration":161760,"Delta":235742850},{"NoteNumber":47,"Velocity":41,"Duration":161760,"SoundDuration":161760,"Delta":235742850},{"NoteNumber":57,"Velocity":48,"Duration":161759,"SoundDuration":161759,"Delta":235904610},{"NoteNumber":66,"Velocity":48,"Duration":161760,"SoundDuration":161760,"Delta":236066370},{"NoteNumber":51,"Velocity":37,"Duration":161760,"SoundDuration":161760,"Delta":236066370},{"NoteNumber":71,"Velocity":48,"Duration":161759,"SoundDuration":161759,"Delta":236228130},{"NoteNumber":64,"Velocity":48,"Duration":154766,"SoundDuration":154766,"Delta":236389890},{"NoteNumber":52,"Velocity":48,"Duration":309533,"SoundDuration":309533,"Delta":236389890},{"NoteNumber":56,"Velocity":44,"Duration":154766,"SoundDuration":154766,"Delta":236544657},{"NoteNumber":64,"Velocity":44,"Duration":154766,"SoundDuration":154766,"Delta":236699424},{"NoteNumber":68,"Velocity":44,"Duration":154766,"SoundDuration":154766,"Delta":236854190},{"NoteNumber":47,"Velocity":48,"Duration":154766,"SoundDuration":154766,"Delta":237008957},{"NoteNumber":40,"Velocity":44,"Duration":154766,"SoundDuration":154766,"Delta":237163724},{"NoteNumber":47,"Velocity":44,"Duration":154766,"SoundDuration":154766,"Delta":237318491},{"NoteNumber":52,"Velocity":45,"Duration":154766,"SoundDuration":154766,"Delta":237473257},{"NoteNumber":63,"Velocity":48,"Duration":154766,"SoundDuration":154766,"Delta":237628024},{"NoteNumber":57,"Velocity":43,"Duration":154766,"SoundDuration":154766,"Delta":237782791},{"NoteNumber":63,"Velocity":43,"Duration":154766,"SoundDuration":154766,"Delta":237937558},{"NoteNumber":71,"Velocity":43,"Duration":154766,"SoundDuration":154766,"Delta":238092324},{"NoteNumber":47,"Velocity":48,"Duration":154766,"SoundDuration":154766,"Delta":238247091},{"NoteNumber":40,"Velocity":44,"Duration":154766,"SoundDuration":154766,"Delta":238401858},{"NoteNumber":47,"Velocity":44,"Duration":154766,"SoundDuration":154766,"Delta":238556625},{"NoteNumber":54,"Velocity":44,"Duration":154766,"SoundDuration":154766,"Delta":238711391},{"NoteNumber":64,"Velocity":48,"Duration":156707,"SoundDuration":156707,"Delta":238866158},{"NoteNumber":56,"Velocity":45,"Duration":156706,"SoundDuration":156706,"Delta":239022865},{"NoteNumber":64,"Velocity":45,"Duration":156707,"SoundDuration":156707,"Delta":239179572},{"NoteNumber":68,"Velocity":45,"Duration":156706,"SoundDuration":156706,"Delta":239336279},{"NoteNumber":68,"Velocity":44,"Duration":156964,"SoundDuration":156964,"Delta":239492986},{"NoteNumber":52,"Velocity":46,"Duration":156964,"SoundDuration":156964,"Delta":239492986},{"NoteNumber":71,"Velocity":49,"Duration":157978,"SoundDuration":157978,"Delta":239649951},{"NoteNumber":56,"Velocity":47,"Duration":157978,"SoundDuration":157978,"Delta":239649951},{"NoteNumber":76,"Velocity":53,"Duration":158999,"SoundDuration":158999,"Delta":239807929},{"NoteNumber":59,"Velocity":52,"Duration":158999,"SoundDuration":158999,"Delta":239807929},{"NoteNumber":80,"Velocity":58,"Duration":174345,"SoundDuration":174345,"Delta":239966929},{"NoteNumber":64,"Velocity":56,"Duration":174345,"SoundDuration":174345,"Delta":239966929},{"NoteNumber":80,"Velocity":62,"Duration":314795,"SoundDuration":314795,"Delta":240141274},{"NoteNumber":64,"Velocity":58,"Duration":314795,"SoundDuration":314795,"Delta":240141274},{"NoteNumber":68,"Velocity":46,"Duration":157397,"SoundDuration":157397,"Delta":240298672},{"NoteNumber":76,"Velocity":56,"Duration":314795,"SoundDuration":314795,"Delta":240456070},{"NoteNumber":61,"Velocity":55,"Duration":314795,"SoundDuration":314795,"Delta":240456070},{"NoteNumber":68,"Velocity":47,"Duration":157397,"SoundDuration":157397,"Delta":240613467},{"NoteNumber":75,"Velocity":53,"Duration":314795,"SoundDuration":314795,"Delta":240770865},{"NoteNumber":60,"Velocity":52,"Duration":314795,"SoundDuration":314795,"Delta":240770865},{"NoteNumber":68,"Velocity":44,"Duration":157397,"SoundDuration":157397,"Delta":240928263},{"NoteNumber":74,"Velocity":50,"Duration":314795,"SoundDuration":314795,"Delta":241085661},{"NoteNumber":59,"Velocity":49,"Duration":314795,"SoundDuration":314795,"Delta":241085661},{"NoteNumber":68,"Velocity":44,"Duration":157397,"SoundDuration":157397,"Delta":241243058},{"NoteNumber":73,"Velocity":48,"Duration":152718,"SoundDuration":152718,"Delta":241400456},{"NoteNumber":57,"Velocity":46,"Duration":305437,"SoundDuration":305437,"Delta":241400456},{"NoteNumber":61,"Velocity":43,"Duration":152718,"SoundDuration":152718,"Delta":241553175},{"NoteNumber":69,"Velocity":43,"Duration":152718,"SoundDuration":152718,"Delta":241705893},{"NoteNumber":73,"Velocity":43,"Duration":152718,"SoundDuration":152718,"Delta":241858612},{"NoteNumber":52,"Velocity":48,"Duration":152718,"SoundDuration":152718,"Delta":242011330},{"NoteNumber":45,"Velocity":44,"Duration":152718,"SoundDuration":152718,"Delta":242164049},{"NoteNumber":52,"Velocity":44,"Duration":152718,"SoundDuration":152718,"Delta":242316767},{"NoteNumber":57,"Velocity":44,"Duration":152718,"SoundDuration":152718,"Delta":242469486},{"NoteNumber":68,"Velocity":48,"Duration":152718,"SoundDuration":152718,"Delta":242622204},{"NoteNumber":62,"Velocity":42,"Duration":152718,"SoundDuration":152718,"Delta":242774923},{"NoteNumber":68,"Velocity":42,"Duration":152718,"SoundDuration":152718,"Delta":242927641},{"NoteNumber":76,"Velocity":42,"Duration":152718,"SoundDuration":152718,"Delta":243080360},{"NoteNumber":52,"Velocity":48,"Duration":152718,"SoundDuration":152718,"Delta":243233078},{"NoteNumber":45,"Velocity":41,"Duration":152718,"SoundDuration":152718,"Delta":243385797},{"NoteNumber":52,"Velocity":41,"Duration":152718,"SoundDuration":152718,"Delta":243538515},{"NoteNumber":59,"Velocity":41,"Duration":152718,"SoundDuration":152718,"Delta":243691234},{"NoteNumber":69,"Velocity":48,"Duration":152718,"SoundDuration":152718,"Delta":243843952},{"NoteNumber":61,"Velocity":42,"Duration":152718,"SoundDuration":152718,"Delta":243996671},{"NoteNumber":69,"Velocity":42,"Duration":152718,"SoundDuration":152718,"Delta":244149389},{"NoteNumber":73,"Velocity":43,"Duration":152718,"SoundDuration":152718,"Delta":244302108},{"NoteNumber":73,"Velocity":43,"Duration":152243,"SoundDuration":152243,"Delta":244454826},{"NoteNumber":57,"Velocity":44,"Duration":152243,"SoundDuration":152243,"Delta":244454826},{"NoteNumber":76,"Velocity":48,"Duration":153464,"SoundDuration":153464,"Delta":244607070},{"NoteNumber":61,"Velocity":49,"Duration":153464,"SoundDuration":153464,"Delta":244607070},{"NoteNumber":81,"Velocity":53,"Duration":154693,"SoundDuration":154693,"Delta":244760534},{"NoteNumber":64,"Velocity":54,"Duration":154693,"SoundDuration":154693,"Delta":244760534},{"NoteNumber":85,"Velocity":59,"Duration":178189,"SoundDuration":178189,"Delta":244915227},{"NoteNumber":69,"Velocity":59,"Duration":178189,"SoundDuration":178189,"Delta":244915227},{"NoteNumber":85,"Velocity":64,"Duration":155263,"SoundDuration":155263,"Delta":245093417},{"NoteNumber":69,"Velocity":62,"Duration":310527,"SoundDuration":310527,"Delta":245093417},{"NoteNumber":73,"Velocity":56,"Duration":155263,"SoundDuration":155263,"Delta":245248680},{"NoteNumber":81,"Velocity":61,"Duration":155263,"SoundDuration":155263,"Delta":245403944},{"NoteNumber":66,"Velocity":51,"Duration":310526,"SoundDuration":310526,"Delta":245403944},{"NoteNumber":73,"Velocity":56,"Duration":155263,"SoundDuration":155263,"Delta":245559207},{"NoteNumber":80,"Velocity":61,"Duration":155263,"SoundDuration":155263,"Delta":245714471},{"NoteNumber":71,"Velocity":51,"Duration":310527,"SoundDuration":310527,"Delta":245714471},{"NoteNumber":76,"Velocity":56,"Duration":155263,"SoundDuration":155263,"Delta":245869734},{"NoteNumber":78,"Velocity":61,"Duration":155263,"SoundDuration":155263,"Delta":246024998},{"NoteNumber":59,"Velocity":51,"Duration":310527,"SoundDuration":310527,"Delta":246024998},{"NoteNumber":69,"Velocity":51,"Duration":310527,"SoundDuration":310527,"Delta":246024998},{"NoteNumber":75,"Velocity":55,"Duration":155263,"SoundDuration":155263,"Delta":246180261},{"NoteNumber":64,"Velocity":66,"Duration":161953,"SoundDuration":161953,"Delta":246335525},{"NoteNumber":68,"Velocity":66,"Duration":161953,"SoundDuration":161953,"Delta":246335525},{"NoteNumber":76,"Velocity":66,"Duration":161953,"SoundDuration":161953,"Delta":246335525},{"NoteNumber":68,"Velocity":61,"Duration":164834,"SoundDuration":164834,"Delta":246497479},{"NoteNumber":66,"Velocity":61,"Duration":166270,"SoundDuration":166270,"Delta":246662313},{"NoteNumber":56,"Velocity":62,"Duration":1022034,"SoundDuration":1022034,"Delta":246662313},{"NoteNumber":54,"Velocity":62,"Duration":334310,"SoundDuration":334310,"Delta":246662313},{"NoteNumber":68,"Velocity":61,"Duration":168040,"SoundDuration":168040,"Delta":246828584},{"NoteNumber":64,"Velocity":58,"Duration":169535,"SoundDuration":169535,"Delta":246996624},{"NoteNumber":52,"Velocity":71,"Duration":340753,"SoundDuration":340753,"Delta":246996624},{"NoteNumber":68,"Velocity":62,"Duration":171218,"SoundDuration":171218,"Delta":247166159},{"NoteNumber":63,"Velocity":66,"Duration":172936,"SoundDuration":172936,"Delta":247337377},{"NoteNumber":51,"Velocity":78,"Duration":346970,"SoundDuration":346970,"Delta":247337377},{"NoteNumber":68,"Velocity":69,"Duration":174034,"SoundDuration":174034,"Delta":247510314},{"NoteNumber":64,"Velocity":80,"Duration":158579,"SoundDuration":158579,"Delta":247684348},{"NoteNumber":49,"Velocity":85,"Duration":158579,"SoundDuration":158579,"Delta":247684348},{"NoteNumber":61,"Velocity":74,"Duration":158579,"SoundDuration":158579,"Delta":247842927},{"NoteNumber":64,"Velocity":74,"Duration":158579,"SoundDuration":158579,"Delta":248001506},{"NoteNumber":48,"Velocity":77,"Duration":158579,"SoundDuration":158579,"Delta":248001506},{"NoteNumber":68,"Velocity":74,"Duration":158579,"SoundDuration":158579,"Delta":248160085},{"NoteNumber":64,"Velocity":78,"Duration":158579,"SoundDuration":158579,"Delta":248318665},{"NoteNumber":49,"Velocity":76,"Duration":158579,"SoundDuration":158579,"Delta":248318665},{"NoteNumber":61,"Velocity":74,"Duration":158579,"SoundDuration":158579,"Delta":248477244},{"NoteNumber":64,"Velocity":74,"Duration":152905,"SoundDuration":152905,"Delta":248635823},{"NoteNumber":52,"Velocity":76,"Duration":152905,"SoundDuration":152905,"Delta":248635823},{"NoteNumber":69,"Velocity":74,"Duration":153427,"SoundDuration":153427,"Delta":248788728},{"NoteNumber":63,"Velocity":76,"Duration":153952,"SoundDuration":153952,"Delta":248942156},{"NoteNumber":48,"Velocity":82,"Duration":153952,"SoundDuration":153952,"Delta":248942156},{"NoteNumber":60,"Velocity":74,"Duration":154613,"SoundDuration":154613,"Delta":249096108},{"NoteNumber":63,"Velocity":74,"Duration":155279,"SoundDuration":155279,"Delta":249250721},{"NoteNumber":51,"Velocity":76,"Duration":155279,"SoundDuration":155279,"Delta":249250721},{"NoteNumber":69,"Velocity":74,"Duration":155952,"SoundDuration":155952,"Delta":249406001},{"NoteNumber":63,"Velocity":76,"Duration":156503,"SoundDuration":156503,"Delta":249561954},{"NoteNumber":56,"Velocity":76,"Duration":156503,"SoundDuration":156503,"Delta":249561954},{"NoteNumber":60,"Velocity":74,"Duration":157195,"SoundDuration":157195,"Delta":249718458},{"NoteNumber":63,"Velocity":74,"Duration":152129,"SoundDuration":152129,"Delta":249875653},{"NoteNumber":48,"Velocity":76,"Duration":152129,"SoundDuration":152129,"Delta":249875653},{"NoteNumber":68,"Velocity":74,"Duration":152776,"SoundDuration":152776,"Delta":250027783},{"NoteNumber":68,"Velocity":80,"Duration":153557,"SoundDuration":153557,"Delta":250180559},{"NoteNumber":49,"Velocity":80,"Duration":153557,"SoundDuration":153557,"Delta":250180559},{"NoteNumber":64,"Velocity":76,"Duration":154216,"SoundDuration":154216,"Delta":250334117},{"NoteNumber":68,"Velocity":76,"Duration":155012,"SoundDuration":155012,"Delta":250488333},{"NoteNumber":51,"Velocity":76,"Duration":155012,"SoundDuration":155012,"Delta":250488333},{"NoteNumber":76,"Velocity":76,"Duration":155683,"SoundDuration":155683,"Delta":250643346},{"NoteNumber":68,"Velocity":80,"Duration":156503,"SoundDuration":156503,"Delta":250799029},{"NoteNumber":52,"Velocity":76,"Duration":156503,"SoundDuration":156503,"Delta":250799029},{"NoteNumber":64,"Velocity":76,"Duration":157057,"SoundDuration":157057,"Delta":250955533},{"NoteNumber":68,"Velocity":76,"Duration":152129,"SoundDuration":152129,"Delta":251112591},{"NoteNumber":49,"Velocity":76,"Duration":152129,"SoundDuration":152129,"Delta":251112591},{"NoteNumber":73,"Velocity":76,"Duration":152905,"SoundDuration":152905,"Delta":251264721},{"NoteNumber":69,"Velocity":82,"Duration":153688,"SoundDuration":153688,"Delta":251417626},{"NoteNumber":51,"Velocity":76,"Duration":153688,"SoundDuration":153688,"Delta":251417626},{"NoteNumber":68,"Velocity":74,"Duration":154613,"SoundDuration":154613,"Delta":251571314},{"NoteNumber":66,"Velocity":75,"Duration":155414,"SoundDuration":155414,"Delta":251725928},{"NoteNumber":57,"Velocity":83,"Duration":155414,"SoundDuration":155414,"Delta":251725928},{"NoteNumber":73,"Velocity":76,"Duration":156226,"SoundDuration":156226,"Delta":251881342},{"NoteNumber":72,"Velocity":83,"Duration":157057,"SoundDuration":157057,"Delta":252037568},{"NoteNumber":56,"Velocity":81,"Duration":157057,"SoundDuration":157057,"Delta":252037568},{"NoteNumber":63,"Velocity":79,"Duration":157884,"SoundDuration":157884,"Delta":252194626},{"NoteNumber":68,"Velocity":80,"Duration":152129,"SoundDuration":152129,"Delta":252352510},{"NoteNumber":54,"Velocity":76,"Duration":152129,"SoundDuration":152129,"Delta":252352510},{"NoteNumber":72,"Velocity":82,"Duration":152905,"SoundDuration":152905,"Delta":252504640},{"NoteNumber":73,"Velocity":88,"Duration":153688,"SoundDuration":153688,"Delta":252657545},{"NoteNumber":52,"Velocity":74,"Duration":153688,"SoundDuration":153688,"Delta":252657545},{"NoteNumber":68,"Velocity":76,"Duration":154613,"SoundDuration":154613,"Delta":252811234},{"NoteNumber":73,"Velocity":79,"Duration":155414,"SoundDuration":155414,"Delta":252965847},{"NoteNumber":51,"Velocity":76,"Duration":155414,"SoundDuration":155414,"Delta":252965847},{"NoteNumber":76,"Velocity":82,"Duration":156226,"SoundDuration":156226,"Delta":253121261},{"NoteNumber":76,"Velocity":84,"Duration":157057,"SoundDuration":157057,"Delta":253277487},{"NoteNumber":49,"Velocity":79,"Duration":157057,"SoundDuration":157057,"Delta":253277487},{"NoteNumber":68,"Velocity":82,"Duration":158163,"SoundDuration":158163,"Delta":253434545},{"NoteNumber":76,"Velocity":86,"Duration":152905,"SoundDuration":152905,"Delta":253592709},{"NoteNumber":47,"Velocity":80,"Duration":152905,"SoundDuration":152905,"Delta":253592709},{"NoteNumber":80,"Velocity":90,"Duration":153688,"SoundDuration":153688,"Delta":253745614},{"NoteNumber":76,"Velocity":93,"Duration":154613,"SoundDuration":154613,"Delta":253899302},{"NoteNumber":45,"Velocity":84,"Duration":154613,"SoundDuration":154613,"Delta":253899302},{"NoteNumber":69,"Velocity":90,"Duration":155414,"SoundDuration":155414,"Delta":254053916},{"NoteNumber":76,"Velocity":88,"Duration":156226,"SoundDuration":156226,"Delta":254209330},{"NoteNumber":42,"Velocity":78,"Duration":78043,"SoundDuration":78043,"Delta":254209330},{"NoteNumber":80,"Velocity":85,"Duration":157195,"SoundDuration":157195,"Delta":254365556},{"NoteNumber":44,"Velocity":78,"Duration":78460,"SoundDuration":78460,"Delta":254365556},{"NoteNumber":74,"Velocity":86,"Duration":158023,"SoundDuration":158023,"Delta":254522751},{"NoteNumber":45,"Velocity":83,"Duration":158023,"SoundDuration":158023,"Delta":254522751},{"NoteNumber":78,"Velocity":82,"Duration":159000,"SoundDuration":159000,"Delta":254680775},{"NoteNumber":73,"Velocity":86,"Duration":152129,"SoundDuration":152129,"Delta":254839775},{"NoteNumber":42,"Velocity":79,"Duration":152129,"SoundDuration":152129,"Delta":254839775},{"NoteNumber":76,"Velocity":82,"Duration":152129,"SoundDuration":152129,"Delta":254991905},{"NoteNumber":72,"Velocity":83,"Duration":152905,"SoundDuration":152905,"Delta":255144035},{"NoteNumber":44,"Velocity":85,"Duration":152905,"SoundDuration":152905,"Delta":255144035},{"NoteNumber":75,"Velocity":79,"Duration":153035,"SoundDuration":153035,"Delta":255296940},{"NoteNumber":73,"Velocity":82,"Duration":153688,"SoundDuration":153688,"Delta":255449976},{"NoteNumber":42,"Velocity":80,"Duration":76844,"SoundDuration":76844,"Delta":255449976},{"NoteNumber":76,"Velocity":76,"Duration":153820,"SoundDuration":153820,"Delta":255603664},{"NoteNumber":40,"Velocity":80,"Duration":76844,"SoundDuration":76844,"Delta":255603664},{"NoteNumber":75,"Velocity":81,"Duration":154479,"SoundDuration":154479,"Delta":255757485},{"NoteNumber":39,"Velocity":85,"Duration":154479,"SoundDuration":154479,"Delta":255757485},{"NoteNumber":78,"Velocity":75,"Duration":154746,"SoundDuration":154746,"Delta":255911965},{"NoteNumber":72,"Velocity":79,"Duration":155279,"SoundDuration":155279,"Delta":256066711},{"NoteNumber":44,"Velocity":80,"Duration":155279,"SoundDuration":155279,"Delta":256066711},{"NoteNumber":75,"Velocity":72,"Duration":155279,"SoundDuration":155279,"Delta":256221991},{"NoteNumber":76,"Velocity":79,"Duration":152905,"SoundDuration":152905,"Delta":256377270},{"NoteNumber":37,"Velocity":88,"Duration":152905,"SoundDuration":152905,"Delta":256377270},{"NoteNumber":73,"Velocity":74,"Duration":153820,"SoundDuration":153820,"Delta":256530175},{"NoteNumber":71,"Velocity":69,"Duration":154746,"SoundDuration":154746,"Delta":256683996},{"NoteNumber":44,"Velocity":70,"Duration":310295,"SoundDuration":310295,"Delta":256683996},{"NoteNumber":69,"Velocity":65,"Duration":155548,"SoundDuration":155548,"Delta":256838742},{"NoteNumber":68,"Velocity":61,"Duration":156503,"SoundDuration":156503,"Delta":256994291},{"NoteNumber":46,"Velocity":58,"Duration":313974,"SoundDuration":313974,"Delta":256994291},{"NoteNumber":66,"Velocity":57,"Duration":157470,"SoundDuration":157470,"Delta":257150795},{"NoteNumber":64,"Velocity":53,"Duration":158301,"SoundDuration":158301,"Delta":257308265},{"NoteNumber":48,"Velocity":48,"Duration":317582,"SoundDuration":317582,"Delta":257308265},{"NoteNumber":63,"Velocity":48,"Duration":159281,"SoundDuration":159281,"Delta":257466566},{"NoteNumber":64,"Velocity":42,"Duration":165398,"SoundDuration":165398,"Delta":257625848},{"NoteNumber":49,"Velocity":40,"Duration":320309,"SoundDuration":320309,"Delta":257625848},{"NoteNumber":61,"Velocity":45,"Duration":154911,"SoundDuration":154911,"Delta":257791246},{"NoteNumber":64,"Velocity":45,"Duration":156346,"SoundDuration":156346,"Delta":257946158},{"NoteNumber":52,"Velocity":37,"Duration":314022,"SoundDuration":314022,"Delta":257946158},{"NoteNumber":68,"Velocity":45,"Duration":157675,"SoundDuration":157675,"Delta":258102505},{"NoteNumber":64,"Velocity":48,"Duration":159299,"SoundDuration":159299,"Delta":258260180},{"NoteNumber":51,"Velocity":38,"Duration":314856,"SoundDuration":314856,"Delta":258260180},{"NoteNumber":61,"Velocity":45,"Duration":155556,"SoundDuration":155556,"Delta":258419480},{"NoteNumber":64,"Velocity":45,"Duration":156479,"SoundDuration":156479,"Delta":258575036},{"NoteNumber":49,"Velocity":37,"Duration":313886,"SoundDuration":313886,"Delta":258575036},{"NoteNumber":69,"Velocity":45,"Duration":157406,"SoundDuration":157406,"Delta":258731515},{"NoteNumber":63,"Velocity":47,"Duration":158345,"SoundDuration":158345,"Delta":258888922},{"NoteNumber":47,"Velocity":40,"Duration":313000,"SoundDuration":313000,"Delta":258888922},{"NoteNumber":59,"Velocity":45,"Duration":154654,"SoundDuration":154654,"Delta":259047268},{"NoteNumber":63,"Velocity":45,"Duration":155556,"SoundDuration":155556,"Delta":259201923},{"NoteNumber":51,"Velocity":38,"Duration":312035,"SoundDuration":312035,"Delta":259201923},{"NoteNumber":69,"Velocity":45,"Duration":156479,"SoundDuration":156479,"Delta":259357479},{"NoteNumber":63,"Velocity":47,"Duration":157406,"SoundDuration":157406,"Delta":259513959},{"NoteNumber":56,"Velocity":40,"Duration":312963,"SoundDuration":312963,"Delta":259513959},{"NoteNumber":59,"Velocity":45,"Duration":155556,"SoundDuration":155556,"Delta":259671366},{"NoteNumber":63,"Velocity":45,"Duration":156479,"SoundDuration":156479,"Delta":259826922},{"NoteNumber":47,"Velocity":37,"Duration":314021,"SoundDuration":314021,"Delta":259826922},{"NoteNumber":68,"Velocity":45,"Duration":157541,"SoundDuration":157541,"Delta":259983401},{"NoteNumber":68,"Velocity":49,"Duration":158616,"SoundDuration":158616,"Delta":260140943},{"NoteNumber":45,"Velocity":41,"Duration":313400,"SoundDuration":313400,"Delta":260140943},{"NoteNumber":61,"Velocity":47,"Duration":154783,"SoundDuration":154783,"Delta":260299560},{"NoteNumber":68,"Velocity":47,"Duration":155688,"SoundDuration":155688,"Delta":260454343},{"NoteNumber":49,"Velocity":38,"Duration":312429,"SoundDuration":312429,"Delta":260454343},{"NoteNumber":73,"Velocity":47,"Duration":156740,"SoundDuration":156740,"Delta":260610032},{"NoteNumber":66,"Velocity":49,"Duration":157810,"SoundDuration":157810,"Delta":260766772},{"NoteNumber":47,"Velocity":38,"Duration":313234,"SoundDuration":313234,"Delta":260766772},{"NoteNumber":63,"Velocity":47,"Duration":155424,"SoundDuration":155424,"Delta":260924583},{"NoteNumber":66,"Velocity":47,"Duration":156348,"SoundDuration":156348,"Delta":261080007},{"NoteNumber":45,"Velocity":39,"Duration":313485,"SoundDuration":313485,"Delta":261080007},{"NoteNumber":73,"Velocity":47,"Duration":157137,"SoundDuration":157137,"Delta":261236355},{"NoteNumber":68,"Velocity":50,"Duration":156546,"SoundDuration":156546,"Delta":261393493},{"NoteNumber":44,"Velocity":40,"Duration":311329,"SoundDuration":311329,"Delta":261393493},{"NoteNumber":64,"Velocity":47,"Duration":154783,"SoundDuration":154783,"Delta":261550039},{"NoteNumber":68,"Velocity":47,"Duration":155820,"SoundDuration":155820,"Delta":261704822},{"NoteNumber":47,"Velocity":39,"Duration":312561,"SoundDuration":312561,"Delta":261704822},{"NoteNumber":73,"Velocity":47,"Duration":156740,"SoundDuration":156740,"Delta":261860643},{"NoteNumber":68,"Velocity":49,"Duration":158078,"SoundDuration":158078,"Delta":262017383},{"NoteNumber":52,"Velocity":41,"Duration":312861,"SoundDuration":312861,"Delta":262017383},{"NoteNumber":64,"Velocity":48,"Duration":154783,"SoundDuration":154783,"Delta":262175462},{"NoteNumber":68,"Velocity":48,"Duration":155688,"SoundDuration":155688,"Delta":262330245},{"NoteNumber":44,"Velocity":39,"Duration":312429,"SoundDuration":312429,"Delta":262330245},{"NoteNumber":71,"Velocity":48,"Duration":156740,"SoundDuration":156740,"Delta":262485934},{"NoteNumber":67,"Velocity":54,"Duration":157810,"SoundDuration":157810,"Delta":262642675},{"NoteNumber":40,"Velocity":41,"Duration":312849,"SoundDuration":312849,"Delta":262642675},{"NoteNumber":64,"Velocity":47,"Duration":155039,"SoundDuration":155039,"Delta":262800485},{"NoteNumber":67,"Velocity":48,"Duration":156609,"SoundDuration":156609,"Delta":262955525},{"NoteNumber":52,"Velocity":37,"Duration":156609,"SoundDuration":156609,"Delta":262955525},{"NoteNumber":70,"Velocity":50,"Duration":158212,"SoundDuration":158212,"Delta":263112135},{"NoteNumber":51,"Velocity":37,"Duration":158212,"SoundDuration":158212,"Delta":263112135},{"NoteNumber":76,"Velocity":52,"Duration":159983,"SoundDuration":159983,"Delta":263270347},{"NoteNumber":49,"Velocity":36,"Duration":314895,"SoundDuration":314895,"Delta":263270347},{"NoteNumber":70,"Velocity":48,"Duration":154911,"SoundDuration":154911,"Delta":263430331},{"NoteNumber":76,"Velocity":49,"Duration":155953,"SoundDuration":155953,"Delta":263585242},{"NoteNumber":48,"Velocity":38,"Duration":313225,"SoundDuration":313225,"Delta":263585242},{"NoteNumber":79,"Velocity":51,"Duration":157272,"SoundDuration":157272,"Delta":263741195},{"NoteNumber":75,"Velocity":51,"Duration":158345,"SoundDuration":158345,"Delta":263898467},{"NoteNumber":47,"Velocity":43,"Duration":312223,"SoundDuration":312223,"Delta":263898467},{"NoteNumber":79,"Velocity":49,"Duration":153877,"SoundDuration":153877,"Delta":264056813},{"NoteNumber":75,"Velocity":50,"Duration":154525,"SoundDuration":154525,"Delta":264210691},{"NoteNumber":54,"Velocity":39,"Duration":309821,"SoundDuration":309821,"Delta":264210691},{"NoteNumber":78,"Velocity":48,"Duration":155296,"SoundDuration":155296,"Delta":264365216},{"NoteNumber":69,"Velocity":49,"Duration":156085,"SoundDuration":156085,"Delta":264520512},{"NoteNumber":59,"Velocity":47,"Duration":312956,"SoundDuration":312956,"Delta":264520512},{"NoteNumber":76,"Velocity":48,"Duration":156871,"SoundDuration":156871,"Delta":264676598},{"NoteNumber":69,"Velocity":49,"Duration":157676,"SoundDuration":157676,"Delta":264833469},{"NoteNumber":47,"Velocity":34,"Duration":316156,"SoundDuration":316156,"Delta":264833469},{"NoteNumber":75,"Velocity":48,"Duration":158479,"SoundDuration":158479,"Delta":264991146},{"NoteNumber":69,"Velocity":47,"Duration":159301,"SoundDuration":159301,"Delta":265149625},{"NoteNumber":48,"Velocity":36,"Duration":319284,"SoundDuration":319284,"Delta":265149625},{"NoteNumber":78,"Velocity":44,"Duration":159983,"SoundDuration":159983,"Delta":265308926},{"NoteNumber":68,"Velocity":47,"Duration":160818,"SoundDuration":160818,"Delta":265468910},{"NoteNumber":49,"Velocity":31,"Duration":322474,"SoundDuration":322474,"Delta":265468910},{"NoteNumber":76,"Velocity":44,"Duration":161656,"SoundDuration":161656,"Delta":265629729},{"NoteNumber":64,"Velocity":46,"Duration":162508,"SoundDuration":162508,"Delta":265791385},{"NoteNumber":44,"Velocity":36,"Duration":325872,"SoundDuration":325872,"Delta":265791385},{"NoteNumber":73,"Velocity":44,"Duration":163364,"SoundDuration":163364,"Delta":265953894},{"NoteNumber":61,"Velocity":45,"Duration":164234,"SoundDuration":164234,"Delta":266117258},{"NoteNumber":45,"Velocity":32,"Duration":329342,"SoundDuration":329342,"Delta":266117258},{"NoteNumber":69,"Velocity":44,"Duration":165108,"SoundDuration":165108,"Delta":266281492},{"NoteNumber":59,"Velocity":45,"Duration":157894,"SoundDuration":157894,"Delta":266446601},{"NoteNumber":47,"Velocity":36,"Duration":315789,"SoundDuration":315789,"Delta":266446601},{"NoteNumber":68,"Velocity":44,"Duration":157894,"SoundDuration":157894,"Delta":266604495},{"NoteNumber":64,"Velocity":45,"Duration":157894,"SoundDuration":157894,"Delta":266762390},{"NoteNumber":56,"Velocity":34,"Duration":315789,"SoundDuration":315789,"Delta":266762390},{"NoteNumber":71,"Velocity":44,"Duration":157894,"SoundDuration":157894,"Delta":266920285},{"NoteNumber":59,"Velocity":45,"Duration":158532,"SoundDuration":158532,"Delta":267078180},{"NoteNumber":47,"Velocity":36,"Duration":316566,"SoundDuration":316566,"Delta":267078180},{"NoteNumber":69,"Velocity":44,"Duration":158033,"SoundDuration":158033,"Delta":267236712},{"NoteNumber":63,"Velocity":45,"Duration":156795,"SoundDuration":156795,"Delta":267394746},{"NoteNumber":57,"Velocity":32,"Duration":312640,"SoundDuration":312640,"Delta":267394746},{"NoteNumber":71,"Velocity":44,"Duration":155845,"SoundDuration":155845,"Delta":267551541},{"NoteNumber":69,"Velocity":45,"Duration":462598,"SoundDuration":462598,"Delta":267707387},{"NoteNumber":47,"Velocity":36,"Duration":308752,"SoundDuration":308752,"Delta":267707387},{"NoteNumber":63,"Velocity":43,"Duration":153846,"SoundDuration":153846,"Delta":267862293},{"NoteNumber":59,"Velocity":43,"Duration":153846,"SoundDuration":153846,"Delta":268016139},{"NoteNumber":54,"Velocity":31,"Duration":308485,"SoundDuration":308485,"Delta":268016139},{"NoteNumber":69,"Velocity":45,"Duration":154639,"SoundDuration":154639,"Delta":268169985},{"NoteNumber":68,"Velocity":45,"Duration":155039,"SoundDuration":155039,"Delta":268324625},{"NoteNumber":52,"Velocity":37,"Duration":310615,"SoundDuration":310615,"Delta":268324625},{"NoteNumber":59,"Velocity":42,"Duration":155575,"SoundDuration":155575,"Delta":268479665},{"NoteNumber":64,"Velocity":44,"Duration":153570,"SoundDuration":153570,"Delta":268635240},{"NoteNumber":49,"Velocity":32,"Duration":153570,"SoundDuration":153570,"Delta":268635240},{"NoteNumber":66,"Velocity":45,"Duration":153451,"SoundDuration":153451,"Delta":268788811},{"NoteNumber":51,"Velocity":32,"Duration":153451,"SoundDuration":153451,"Delta":268788811},{"NoteNumber":68,"Velocity":47,"Duration":154585,"SoundDuration":154585,"Delta":268942262},{"NoteNumber":52,"Velocity":36,"Duration":307598,"SoundDuration":307598,"Delta":268942262},{"NoteNumber":64,"Velocity":43,"Duration":153012,"SoundDuration":153012,"Delta":269096848},{"NoteNumber":68,"Velocity":45,"Duration":153867,"SoundDuration":153867,"Delta":269249861},{"NoteNumber":56,"Velocity":33,"Duration":308220,"SoundDuration":308220,"Delta":269249861},{"NoteNumber":76,"Velocity":44,"Duration":154352,"SoundDuration":154352,"Delta":269403728},{"NoteNumber":68,"Velocity":47,"Duration":157381,"SoundDuration":157381,"Delta":269558081},{"NoteNumber":53,"Velocity":36,"Duration":314762,"SoundDuration":314762,"Delta":269558081},{"NoteNumber":75,"Velocity":44,"Duration":157381,"SoundDuration":157381,"Delta":269715462},{"NoteNumber":68,"Velocity":48,"Duration":157381,"SoundDuration":157381,"Delta":269872844},{"NoteNumber":61,"Velocity":33,"Duration":314762,"SoundDuration":314762,"Delta":269872844},{"NoteNumber":73,"Velocity":44,"Duration":157381,"SoundDuration":157381,"Delta":270030225},{"NoteNumber":69,"Velocity":48,"Duration":158394,"SoundDuration":158394,"Delta":270187606},{"NoteNumber":54,"Velocity":36,"Duration":312272,"SoundDuration":312272,"Delta":270187606},{"NoteNumber":61,"Velocity":44,"Duration":153877,"SoundDuration":153877,"Delta":270346001},{"NoteNumber":69,"Velocity":46,"Duration":154374,"SoundDuration":154374,"Delta":270499879},{"NoteNumber":42,"Velocity":32,"Duration":309238,"SoundDuration":309238,"Delta":270499879},{"NoteNumber":73,"Velocity":46,"Duration":154863,"SoundDuration":154863,"Delta":270654254},{"NoteNumber":68,"Velocity":47,"Duration":155343,"SoundDuration":155343,"Delta":270809117},{"NoteNumber":44,"Velocity":32,"Duration":308606,"SoundDuration":308606,"Delta":270809117},{"NoteNumber":71,"Velocity":43,"Duration":153262,"SoundDuration":153262,"Delta":270964461},{"NoteNumber":66,"Velocity":45,"Duration":154126,"SoundDuration":154126,"Delta":271117723},{"NoteNumber":45,"Velocity":33,"Duration":309109,"SoundDuration":309109,"Delta":271117723},{"NoteNumber":69,"Velocity":43,"Duration":154983,"SoundDuration":154983,"Delta":271271849},{"NoteNumber":64,"Velocity":45,"Duration":178077,"SoundDuration":178077,"Delta":271426833},{"NoteNumber":44,"Velocity":36,"Duration":353886,"SoundDuration":353886,"Delta":271426833},{"NoteNumber":56,"Velocity":43,"Duration":175808,"SoundDuration":175808,"Delta":271604911},{"NoteNumber":64,"Velocity":43,"Duration":176388,"SoundDuration":176388,"Delta":271780719},{"NoteNumber":49,"Velocity":31,"Duration":353345,"SoundDuration":353345,"Delta":271780719},{"NoteNumber":68,"Velocity":43,"Duration":176957,"SoundDuration":176957,"Delta":271957108},{"NoteNumber":61,"Velocity":45,"Duration":177514,"SoundDuration":177514,"Delta":272134065},{"NoteNumber":44,"Velocity":34,"Duration":353323,"SoundDuration":353323,"Delta":272134065},{"NoteNumber":55,"Velocity":40,"Duration":175808,"SoundDuration":175808,"Delta":272311580},{"NoteNumber":61,"Velocity":41,"Duration":176678,"SoundDuration":176678,"Delta":272487389},{"NoteNumber":52,"Velocity":32,"Duration":354193,"SoundDuration":354193,"Delta":272487389},{"NoteNumber":69,"Velocity":41,"Duration":177514,"SoundDuration":177514,"Delta":272664067},{"NoteNumber":63,"Velocity":43,"Duration":190331,"SoundDuration":190331,"Delta":272841582},{"NoteNumber":44,"Velocity":32,"Duration":377925,"SoundDuration":377925,"Delta":272841582},{"NoteNumber":54,"Velocity":39,"Duration":187593,"SoundDuration":187593,"Delta":273031913},{"NoteNumber":63,"Velocity":39,"Duration":187593,"SoundDuration":187593,"Delta":273219507},{"NoteNumber":49,"Velocity":31,"Duration":375187,"SoundDuration":375187,"Delta":273219507},{"NoteNumber":68,"Velocity":39,"Duration":187593,"SoundDuration":187593,"Delta":273407101},{"NoteNumber":63,"Velocity":42,"Duration":187593,"SoundDuration":187593,"Delta":273594694},{"NoteNumber":44,"Velocity":32,"Duration":375187,"SoundDuration":375187,"Delta":273594694},{"NoteNumber":54,"Velocity":38,"Duration":187593,"SoundDuration":187593,"Delta":273782288},{"NoteNumber":63,"Velocity":38,"Duration":187593,"SoundDuration":187593,"Delta":273969882},{"NoteNumber":48,"Velocity":29,"Duration":375187,"SoundDuration":375187,"Delta":273969882},{"NoteNumber":68,"Velocity":38,"Duration":187593,"SoundDuration":187593,"Delta":274157476},{"NoteNumber":61,"Velocity":38,"Duration":175808,"SoundDuration":175808,"Delta":274345069},{"NoteNumber":49,"Velocity":38,"Duration":351617,"SoundDuration":351617,"Delta":274345069},{"NoteNumber":52,"Velocity":35,"Duration":175808,"SoundDuration":175808,"Delta":274520878},{"NoteNumber":61,"Velocity":35,"Duration":175808,"SoundDuration":175808,"Delta":274696687},{"NoteNumber":64,"Velocity":35,"Duration":175808,"SoundDuration":175808,"Delta":274872496},{"NoteNumber":44,"Velocity":38,"Duration":175808,"SoundDuration":175808,"Delta":275048304},{"NoteNumber":37,"Velocity":35,"Duration":175808,"SoundDuration":175808,"Delta":275224113},{"NoteNumber":44,"Velocity":35,"Duration":175808,"SoundDuration":175808,"Delta":275399922},{"NoteNumber":49,"Velocity":36,"Duration":175808,"SoundDuration":175808,"Delta":275575731},{"NoteNumber":61,"Velocity":38,"Duration":175808,"SoundDuration":175808,"Delta":275751539},{"NoteNumber":45,"Velocity":38,"Duration":351617,"SoundDuration":351617,"Delta":275751539},{"NoteNumber":52,"Velocity":34,"Duration":175808,"SoundDuration":175808,"Delta":275927348},{"NoteNumber":61,"Velocity":34,"Duration":175808,"SoundDuration":175808,"Delta":276103157},{"NoteNumber":64,"Velocity":34,"Duration":175808,"SoundDuration":175808,"Delta":276278966},{"NoteNumber":40,"Velocity":38,"Duration":175808,"SoundDuration":175808,"Delta":276454774},{"NoteNumber":33,"Velocity":35,"Duration":175808,"SoundDuration":175808,"Delta":276630583},{"NoteNumber":40,"Velocity":35,"Duration":175808,"SoundDuration":175808,"Delta":276806392},{"NoteNumber":45,"Velocity":35,"Duration":175808,"SoundDuration":175808,"Delta":276982201},{"NoteNumber":62,"Velocity":38,"Duration":154639,"SoundDuration":154639,"Delta":277158009},{"NoteNumber":42,"Velocity":38,"Duration":309278,"SoundDuration":309278,"Delta":277158009},{"NoteNumber":57,"Velocity":36,"Duration":154639,"SoundDuration":154639,"Delta":277312649},{"NoteNumber":62,"Velocity":36,"Duration":154639,"SoundDuration":154639,"Delta":277467288},{"NoteNumber":66,"Velocity":36,"Duration":154639,"SoundDuration":154639,"Delta":277621927},{"NoteNumber":66,"Velocity":35,"Duration":154226,"SoundDuration":154226,"Delta":277776566},{"NoteNumber":50,"Velocity":36,"Duration":154226,"SoundDuration":154226,"Delta":277776566},{"NoteNumber":69,"Velocity":39,"Duration":155845,"SoundDuration":155845,"Delta":277930793},{"NoteNumber":54,"Velocity":37,"Duration":155845,"SoundDuration":155845,"Delta":277930793},{"NoteNumber":74,"Velocity":42,"Duration":157069,"SoundDuration":157069,"Delta":278086638},{"NoteNumber":57,"Velocity":41,"Duration":157069,"SoundDuration":157069,"Delta":278086638},{"NoteNumber":78,"Velocity":46,"Duration":168399,"SoundDuration":168399,"Delta":278243708},{"NoteNumber":62,"Velocity":44,"Duration":168399,"SoundDuration":168399,"Delta":278243708},{"NoteNumber":81,"Velocity":49,"Duration":337078,"SoundDuration":337078,"Delta":278412108},{"NoteNumber":66,"Velocity":46,"Duration":337078,"SoundDuration":337078,"Delta":278412108},{"NoteNumber":74,"Velocity":36,"Duration":168539,"SoundDuration":168539,"Delta":278580647},{"NoteNumber":69,"Velocity":37,"Duration":168539,"SoundDuration":168539,"Delta":278749186},{"NoteNumber":78,"Velocity":44,"Duration":337078,"SoundDuration":337078,"Delta":278749186},{"NoteNumber":54,"Velocity":44,"Duration":337078,"SoundDuration":337078,"Delta":278749186},{"NoteNumber":62,"Velocity":44,"Duration":337078,"SoundDuration":337078,"Delta":278749186},{"NoteNumber":71,"Velocity":37,"Duration":168539,"SoundDuration":168539,"Delta":278917725},{"NoteNumber":73,"Velocity":35,"Duration":168539,"SoundDuration":168539,"Delta":279086265},{"NoteNumber":76,"Velocity":42,"Duration":337078,"SoundDuration":337078,"Delta":279086265},{"NoteNumber":56,"Velocity":41,"Duration":337078,"SoundDuration":337078,"Delta":279086265},{"NoteNumber":64,"Velocity":41,"Duration":337078,"SoundDuration":337078,"Delta":279086265},{"NoteNumber":68,"Velocity":35,"Duration":168539,"SoundDuration":168539,"Delta":279254804},{"NoteNumber":72,"Velocity":35,"Duration":168539,"SoundDuration":168539,"Delta":279423343},{"NoteNumber":75,"Velocity":40,"Duration":337078,"SoundDuration":337078,"Delta":279423343},{"NoteNumber":56,"Velocity":39,"Duration":337078,"SoundDuration":337078,"Delta":279423343},{"NoteNumber":66,"Velocity":39,"Duration":337078,"SoundDuration":337078,"Delta":279423343},{"NoteNumber":68,"Velocity":35,"Duration":168539,"SoundDuration":168539,"Delta":279591882},{"NoteNumber":73,"Velocity":38,"Duration":157894,"SoundDuration":157894,"Delta":279760422},{"NoteNumber":64,"Velocity":36,"Duration":151315,"SoundDuration":151315,"Delta":279760422},{"NoteNumber":61,"Velocity":36,"Duration":315789,"SoundDuration":315789,"Delta":279760422},{"NoteNumber":64,"Velocity":34,"Duration":157894,"SoundDuration":157894,"Delta":279918316},{"NoteNumber":73,"Velocity":34,"Duration":157894,"SoundDuration":157894,"Delta":280076211},{"NoteNumber":76,"Velocity":34,"Duration":157894,"SoundDuration":157894,"Delta":280234106},{"NoteNumber":56,"Velocity":38,"Duration":157894,"SoundDuration":157894,"Delta":280392001},{"NoteNumber":49,"Velocity":35,"Duration":157894,"SoundDuration":157894,"Delta":280549895},{"NoteNumber":56,"Velocity":35,"Duration":157894,"SoundDuration":157894,"Delta":280707790},{"NoteNumber":61,"Velocity":35,"Duration":157894,"SoundDuration":157894,"Delta":280865685},{"NoteNumber":73,"Velocity":38,"Duration":157894,"SoundDuration":157894,"Delta":281023580},{"NoteNumber":57,"Velocity":36,"Duration":315789,"SoundDuration":315789,"Delta":281023580},{"NoteNumber":64,"Velocity":33,"Duration":157894,"SoundDuration":157894,"Delta":281181474},{"NoteNumber":73,"Velocity":33,"Duration":157894,"SoundDuration":157894,"Delta":281339369},{"NoteNumber":76,"Velocity":33,"Duration":157894,"SoundDuration":157894,"Delta":281497264},{"NoteNumber":52,"Velocity":38,"Duration":157894,"SoundDuration":157894,"Delta":281655159},{"NoteNumber":45,"Velocity":32,"Duration":157894,"SoundDuration":157894,"Delta":281813053},{"NoteNumber":52,"Velocity":32,"Duration":157894,"SoundDuration":157894,"Delta":281970948},{"NoteNumber":57,"Velocity":32,"Duration":157894,"SoundDuration":157894,"Delta":282128843},{"NoteNumber":74,"Velocity":38,"Duration":151515,"SoundDuration":151515,"Delta":282286738},{"NoteNumber":54,"Velocity":38,"Duration":303030,"SoundDuration":303030,"Delta":282286738},{"NoteNumber":69,"Velocity":39,"Duration":151515,"SoundDuration":151515,"Delta":282438253},{"NoteNumber":74,"Velocity":44,"Duration":151515,"SoundDuration":151515,"Delta":282589768},{"NoteNumber":57,"Velocity":41,"Duration":151515,"SoundDuration":151515,"Delta":282589768},{"NoteNumber":78,"Velocity":49,"Duration":151515,"SoundDuration":151515,"Delta":282741283},{"NoteNumber":62,"Velocity":47,"Duration":151515,"SoundDuration":151515,"Delta":282741283},{"NoteNumber":81,"Velocity":55,"Duration":151899,"SoundDuration":151899,"Delta":282892799},{"NoteNumber":66,"Velocity":53,"Duration":151899,"SoundDuration":151899,"Delta":282892799},{"NoteNumber":78,"Velocity":53,"Duration":153322,"SoundDuration":153322,"Delta":283044698},{"NoteNumber":62,"Velocity":50,"Duration":153322,"SoundDuration":153322,"Delta":283044698},{"NoteNumber":74,"Velocity":50,"Duration":154774,"SoundDuration":154774,"Delta":283198021},{"NoteNumber":57,"Velocity":48,"Duration":154774,"SoundDuration":154774,"Delta":283198021},{"NoteNumber":69,"Velocity":47,"Duration":172930,"SoundDuration":172930,"Delta":283352795},{"NoteNumber":54,"Velocity":46,"Duration":172930,"SoundDuration":172930,"Delta":283352795},{"NoteNumber":68,"Velocity":44,"Duration":167597,"SoundDuration":167597,"Delta":283525726},{"NoteNumber":56,"Velocity":44,"Duration":335195,"SoundDuration":335195,"Delta":283525726},{"NoteNumber":76,"Velocity":43,"Duration":167597,"SoundDuration":167597,"Delta":283693324},{"NoteNumber":64,"Velocity":47,"Duration":167597,"SoundDuration":167597,"Delta":283860921},{"NoteNumber":56,"Velocity":39,"Duration":335195,"SoundDuration":335195,"Delta":283860921},{"NoteNumber":73,"Velocity":42,"Duration":167597,"SoundDuration":167597,"Delta":284028519},{"NoteNumber":66,"Velocity":46,"Duration":172413,"SoundDuration":172413,"Delta":284196117},{"NoteNumber":56,"Velocity":38,"Duration":344827,"SoundDuration":344827,"Delta":284196117},{"NoteNumber":75,"Velocity":41,"Duration":172413,"SoundDuration":172413,"Delta":284368531},{"NoteNumber":63,"Velocity":44,"Duration":172413,"SoundDuration":172413,"Delta":284540944},{"NoteNumber":56,"Velocity":37,"Duration":344827,"SoundDuration":344827,"Delta":284540944},{"NoteNumber":72,"Velocity":40,"Duration":172413,"SoundDuration":172413,"Delta":284713358},{"NoteNumber":64,"Velocity":46,"Duration":191082,"SoundDuration":191082,"Delta":284885772},{"NoteNumber":56,"Velocity":35,"Duration":764331,"SoundDuration":764331,"Delta":284885772},{"NoteNumber":73,"Velocity":37,"Duration":191082,"SoundDuration":191082,"Delta":285076855},{"NoteNumber":61,"Velocity":37,"Duration":191082,"SoundDuration":191082,"Delta":285267937},{"NoteNumber":64,"Velocity":37,"Duration":191082,"SoundDuration":191082,"Delta":285267937},{"NoteNumber":44,"Velocity":32,"Duration":382165,"SoundDuration":382165,"Delta":285267937},{"NoteNumber":68,"Velocity":30,"Duration":191082,"SoundDuration":191082,"Delta":285459020},{"NoteNumber":63,"Velocity":32,"Duration":241935,"SoundDuration":241935,"Delta":285650103},{"NoteNumber":66,"Velocity":32,"Duration":241935,"SoundDuration":241935,"Delta":285650103},{"NoteNumber":44,"Velocity":27,"Duration":483871,"SoundDuration":483871,"Delta":285650103},{"NoteNumber":68,"Velocity":26,"Duration":241935,"SoundDuration":241935,"Delta":285892038},{"NoteNumber":60,"Velocity":28,"Duration":265207,"SoundDuration":265207,"Delta":286133974},{"NoteNumber":63,"Velocity":28,"Duration":265207,"SoundDuration":265207,"Delta":286133974},{"NoteNumber":44,"Velocity":24,"Duration":567340,"SoundDuration":567340,"Delta":286133974},{"NoteNumber":68,"Velocity":24,"Duration":302133,"SoundDuration":302133,"Delta":286399181},{"NoteNumber":65,"Velocity":25,"Duration":238095,"SoundDuration":238095,"Delta":288652535},{"NoteNumber":49,"Velocity":14,"Duration":476190,"SoundDuration":476190,"Delta":288652535},{"NoteNumber":56,"Velocity":14,"Duration":476190,"SoundDuration":476190,"Delta":288652535},{"NoteNumber":61,"Velocity":14,"Duration":476190,"SoundDuration":476190,"Delta":288652535},{"NoteNumber":68,"Velocity":25,"Duration":238095,"SoundDuration":238095,"Delta":288890630},{"NoteNumber":66,"Velocity":18,"Duration":1000000,"SoundDuration":1000000,"Delta":289128725},{"NoteNumber":70,"Velocity":21,"Duration":1000000,"SoundDuration":1000000,"Delta":289128725},{"NoteNumber":49,"Velocity":14,"Duration":1000000,"SoundDuration":1000000,"Delta":289128725},{"NoteNumber":56,"Velocity":14,"Duration":1000000,"SoundDuration":1000000,"Delta":289128725},{"NoteNumber":61,"Velocity":14,"Duration":1000000,"SoundDuration":1000000,"Delta":289128725},{"NoteNumber":65,"Velocity":16,"Duration":540540,"SoundDuration":540540,"Delta":290128725},{"NoteNumber":68,"Velocity":19,"Duration":540540,"SoundDuration":540540,"Delta":290128725},{"NoteNumber":49,"Velocity":12,"Duration":540540,"SoundDuration":540540,"Delta":290128725},{"NoteNumber":56,"Velocity":12,"Duration":540540,"SoundDuration":540540,"Delta":290128725},{"NoteNumber":61,"Velocity":12,"Duration":540540,"SoundDuration":540540,"Delta":290128725},{"NoteNumber":65,"Velocity":25,"Duration":270270,"SoundDuration":270270,"Delta":290669266},{"NoteNumber":49,"Velocity":14,"Duration":627412,"SoundDuration":627412,"Delta":290669266},{"NoteNumber":56,"Velocity":14,"Duration":627412,"SoundDuration":627412,"Delta":290669266},{"NoteNumber":61,"Velocity":14,"Duration":627412,"SoundDuration":627412,"Delta":290669266},{"NoteNumber":68,"Velocity":25,"Duration":357142,"SoundDuration":357142,"Delta":290939536},{"NoteNumber":66,"Velocity":20,"Duration":1331967,"SoundDuration":1331967,"Delta":291296679},{"NoteNumber":70,"Velocity":20,"Duration":1331967,"SoundDuration":1331967,"Delta":291296679},{"NoteNumber":73,"Velocity":24,"Duration":1331967,"SoundDuration":1331967,"Delta":291296679},{"NoteNumber":49,"Velocity":14,"Duration":1331967,"SoundDuration":1331967,"Delta":291296679},{"NoteNumber":56,"Velocity":14,"Duration":1331967,"SoundDuration":1331967,"Delta":291296679},{"NoteNumber":61,"Velocity":14,"Duration":1331967,"SoundDuration":1331967,"Delta":291296679},{"NoteNumber":65,"Velocity":16,"Duration":1500000,"SoundDuration":1500000,"Delta":292628646},{"NoteNumber":68,"Velocity":22,"Duration":1500000,"SoundDuration":1500000,"Delta":292628646},{"NoteNumber":49,"Velocity":14,"Duration":1500000,"SoundDuration":1500000,"Delta":292628646},{"NoteNumber":56,"Velocity":14,"Duration":1500000,"SoundDuration":1500000,"Delta":292628646},{"NoteNumber":61,"Velocity":14,"Duration":1500000,"SoundDuration":1500000,"Delta":292628646},{"NoteNumber":65,"Velocity":17,"Duration":3000000,"SoundDuration":3000000,"Delta":294128646},{"NoteNumber":68,"Velocity":21,"Duration":3000000,"SoundDuration":3000000,"Delta":294128646},{"NoteNumber":49,"Velocity":12,"Duration":3000000,"SoundDuration":3000000,"Delta":294128646},{"NoteNumber":56,"Velocity":12,"Duration":3000000,"SoundDuration":3000000,"Delta":294128646},{"NoteNumber":61,"Velocity":12,"Duration":3000000,"SoundDuration":3000000,"Delta":294128646},{"NoteNumber":54,"Velocity":24,"Duration":262415,"SoundDuration":262415,"Delta":297128646},{"NoteNumber":44,"Velocity":24,"Duration":515958,"SoundDuration":515958,"Delta":297128646},{"NoteNumber":63,"Velocity":20,"Duration":253543,"SoundDuration":253543,"Delta":297391061},{"NoteNumber":51,"Velocity":24,"Duration":245251,"SoundDuration":245251,"Delta":297644605},{"NoteNumber":44,"Velocity":24,"Duration":482736,"SoundDuration":482736,"Delta":297644605},{"NoteNumber":60,"Velocity":19,"Duration":237485,"SoundDuration":237485,"Delta":297889856},{"NoteNumber":52,"Velocity":27,"Duration":255323,"SoundDuration":255323,"Delta":298127341},{"NoteNumber":44,"Velocity":27,"Duration":515068,"SoundDuration":515068,"Delta":298127341},{"NoteNumber":61,"Velocity":22,"Duration":259745,"SoundDuration":259745,"Delta":298382665},{"NoteNumber":56,"Velocity":28,"Duration":264322,"SoundDuration":264322,"Delta":298642410},{"NoteNumber":44,"Velocity":28,"Duration":533795,"SoundDuration":533795,"Delta":298642410},{"NoteNumber":64,"Velocity":25,"Duration":269473,"SoundDuration":269473,"Delta":298906733},{"NoteNumber":54,"Velocity":23,"Duration":326697,"SoundDuration":326697,"Delta":299176206},{"NoteNumber":44,"Velocity":23,"Duration":662541,"SoundDuration":662541,"Delta":299176206},{"NoteNumber":63,"Velocity":19,"Duration":335844,"SoundDuration":335844,"Delta":299502903},{"NoteNumber":51,"Velocity":22,"Duration":344857,"SoundDuration":344857,"Delta":299838747},{"NoteNumber":44,"Velocity":22,"Duration":944857,"SoundDuration":944857,"Delta":299838747},{"NoteNumber":60,"Velocity":17,"Duration":600000,"SoundDuration":600000,"Delta":300183605},{"NoteNumber":37,"Velocity":14,"Duration":4799999,"SoundDuration":4799999,"Delta":300783605},{"NoteNumber":44,"Velocity":14,"Duration":4799999,"SoundDuration":4799999,"Delta":300783605},{"NoteNumber":49,"Velocity":14,"Duration":4799999,"SoundDuration":4799999,"Delta":300783605},{"NoteNumber":52,"Velocity":14,"Duration":4799999,"SoundDuration":4799999,"Delta":300783605},{"NoteNumber":56,"Velocity":14,"Duration":4799999,"SoundDuration":4799999,"Delta":300783605},{"NoteNumber":61,"Velocity":17,"Duration":4799999,"SoundDuration":4799999,"Delta":300783605}],"license":{"name":"Creative Commons Attribution-ShareAlike 3.0 Germany","url":"http://creativecommons.org/licenses/by-sa/3.0/de/deed.en","text":"The MIDI files in this folder were downloaded from http://www.piano-midi.de and are licensed under the Creative Commons Attribution-ShareAlike 3.0 Germany license by Bernd Krueger.\n\nThe MIDI, audio(MP3, OGG) and video files of Bernd Krueger are licensed under the cc-by-sa Germany License . This means, that you can use and adapt the files, as long as you attribute to the copyright holder Name: Bernd Krueger Source: http://www.piano-midi.de The distribution or public playback of the files is only allowed under identical license conditions . The scores are open source.","attribution":"Bernd Krueger","attributionUrl":"http://www.piano-midi.de"}}