{"title":"Nr. 2 in As-Dur","artist":"Schubert","durationMs":317983,"midiSha256":"00e582e6b19abb89ac29dba7c47937a69e3f8e997b69b14164a4eaff1900dac7","midiObject":[{"NoteNumber":68,"Velocity":42,"Duration":631571,"SoundDuration":631571,"Delta":0},{"NoteNumber":72,"Velocity":46,"Duration":631571,"SoundDuration":631571,"Delta":0},{"NoteNumber":60,"Velocity":42,"Duration":631571,"SoundDuration":631571,"Delta":0},{"NoteNumber":44,"Velocity":33,"Duration":631571,"SoundDuration":631571,"Delta":0},{"NoteNumber":51,"Velocity":39,"Duration":614502,"SoundDuration":614502,"Delta":0},{"NoteNumber":67,"Velocity":42,"Duration":224827,"SoundDuration":224827,"Delta":614502},{"NoteNumber":61,"Velocity":42,"Duration":224827,"SoundDuration":224827,"Delta":614502},{"NoteNumber":73,"Velocity":46,"Duration":224827,"SoundDuration":224827,"Delta":614502},{"NoteNumber":46,"Velocity":33,"Duration":224827,"SoundDuration":224827,"Delta":614502},{"NoteNumber":51,"Velocity":39,"Duration":204833,"SoundDuration":204833,"Delta":614502},{"NoteNumber":68,"Velocity":42,"Duration":477507,"SoundDuration":477507,"Delta":819336},{"NoteNumber":72,"Velocity":46,"Duration":477507,"SoundDuration":477507,"Delta":819336},{"NoteNumber":60,"Velocity":42,"Duration":477507,"SoundDuration":477507,"Delta":819336},{"NoteNumber":44,"Velocity":33,"Duration":477507,"SoundDuration":477507,"Delta":819336},{"NoteNumber":51,"Velocity":39,"Duration":477507,"SoundDuration":477507,"Delta":819336},{"NoteNumber":73,"Velocity":37,"Duration":2458008,"SoundDuration":2458008,"Delta":1296843},{"NoteNumber":61,"Velocity":34,"Duration":2458008,"SoundDuration":2458008,"Delta":1296843},{"NoteNumber":67,"Velocity":34,"Duration":2458008,"SoundDuration":2458008,"Delta":1296843},{"NoteNumber":51,"Velocity":33,"Duration":2458008,"SoundDuration":2458008,"Delta":1296843},{"NoteNumber":46,"Velocity":27,"Duration":2458008,"SoundDuration":2458008,"Delta":1296843},{"NoteNumber":72,"Velocity":46,"Duration":631571,"SoundDuration":631571,"Delta":3754851},{"NoteNumber":60,"Velocity":42,"Duration":631571,"SoundDuration":631571,"Delta":3754851},{"NoteNumber":68,"Velocity":42,"Duration":631571,"SoundDuration":631571,"Delta":3754851},{"NoteNumber":44,"Velocity":33,"Duration":631571,"SoundDuration":631571,"Delta":3754851},{"NoteNumber":51,"Velocity":39,"Duration":614501,"SoundDuration":614501,"Delta":3754851},{"NoteNumber":61,"Velocity":42,"Duration":227024,"SoundDuration":227024,"Delta":4369353},{"NoteNumber":67,"Velocity":42,"Duration":227024,"SoundDuration":227024,"Delta":4369353},{"NoteNumber":73,"Velocity":46,"Duration":227024,"SoundDuration":227024,"Delta":4369353},{"NoteNumber":51,"Velocity":39,"Duration":204833,"SoundDuration":204833,"Delta":4369353},{"NoteNumber":46,"Velocity":33,"Duration":227024,"SoundDuration":227024,"Delta":4369353},{"NoteNumber":60,"Velocity":42,"Duration":532575,"SoundDuration":532575,"Delta":4574187},{"NoteNumber":72,"Velocity":46,"Duration":532575,"SoundDuration":532575,"Delta":4574187},{"NoteNumber":68,"Velocity":42,"Duration":532575,"SoundDuration":532575,"Delta":4574187},{"NoteNumber":44,"Velocity":33,"Duration":532575,"SoundDuration":532575,"Delta":4574187},{"NoteNumber":51,"Velocity":39,"Duration":532575,"SoundDuration":532575,"Delta":4574187},{"NoteNumber":67,"Velocity":35,"Duration":2462104,"SoundDuration":2462104,"Delta":5106763},{"NoteNumber":58,"Velocity":35,"Duration":2462104,"SoundDuration":2462104,"Delta":5106763},{"NoteNumber":70,"Velocity":40,"Duration":2462104,"SoundDuration":2462104,"Delta":5106763},{"NoteNumber":51,"Velocity":33,"Duration":2462104,"SoundDuration":2462104,"Delta":5106763},{"NoteNumber":39,"Velocity":27,"Duration":2462104,"SoundDuration":2462104,"Delta":5106763},{"NoteNumber":68,"Velocity":42,"Duration":631571,"SoundDuration":631571,"Delta":7568868},{"NoteNumber":60,"Velocity":42,"Duration":631571,"SoundDuration":631571,"Delta":7568868},{"NoteNumber":72,"Velocity":46,"Duration":631571,"SoundDuration":631571,"Delta":7568868},{"NoteNumber":44,"Velocity":33,"Duration":631571,"SoundDuration":631571,"Delta":7568868},{"NoteNumber":51,"Velocity":39,"Duration":614501,"SoundDuration":614501,"Delta":7568868},{"NoteNumber":67,"Velocity":42,"Duration":221903,"SoundDuration":221903,"Delta":8183370},{"NoteNumber":73,"Velocity":46,"Duration":221903,"SoundDuration":221903,"Delta":8183370},{"NoteNumber":61,"Velocity":42,"Duration":221903,"SoundDuration":221903,"Delta":8183370},{"NoteNumber":46,"Velocity":33,"Duration":221903,"SoundDuration":221903,"Delta":8183370},{"NoteNumber":51,"Velocity":39,"Duration":204833,"SoundDuration":204833,"Delta":8183370},{"NoteNumber":72,"Velocity":46,"Duration":409667,"SoundDuration":409667,"Delta":8388204},{"NoteNumber":60,"Velocity":42,"Duration":409667,"SoundDuration":409667,"Delta":8388204},{"NoteNumber":68,"Velocity":42,"Duration":409667,"SoundDuration":409667,"Delta":8388204},{"NoteNumber":51,"Velocity":39,"Duration":409667,"SoundDuration":409667,"Delta":8388204},{"NoteNumber":44,"Velocity":33,"Duration":409667,"SoundDuration":409667,"Delta":8388204},{"NoteNumber":72,"Velocity":42,"Duration":631571,"SoundDuration":631571,"Delta":8797872},{"NoteNumber":60,"Velocity":36,"Duration":631571,"SoundDuration":631571,"Delta":8797872},{"NoteNumber":68,"Velocity":36,"Duration":631571,"SoundDuration":631571,"Delta":8797872},{"NoteNumber":44,"Velocity":29,"Duration":631571,"SoundDuration":631571,"Delta":8797872},{"NoteNumber":51,"Velocity":35,"Duration":614502,"SoundDuration":614502,"Delta":8797872},{"NoteNumber":61,"Velocity":45,"Duration":221903,"SoundDuration":221903,"Delta":9412374},{"NoteNumber":67,"Velocity":45,"Duration":221903,"SoundDuration":221903,"Delta":9412374},{"NoteNumber":73,"Velocity":51,"Duration":221903,"SoundDuration":221903,"Delta":9412374},{"NoteNumber":51,"Velocity":40,"Duration":204833,"SoundDuration":204833,"Delta":9412374},{"NoteNumber":46,"Velocity":34,"Duration":221903,"SoundDuration":221903,"Delta":9412374},{"NoteNumber":60,"Velocity":47,"Duration":507722,"SoundDuration":507722,"Delta":9617208},{"NoteNumber":72,"Velocity":54,"Duration":507722,"SoundDuration":507722,"Delta":9617208},{"NoteNumber":68,"Velocity":47,"Duration":507722,"SoundDuration":507722,"Delta":9617208},{"NoteNumber":44,"Velocity":36,"Duration":507722,"SoundDuration":507722,"Delta":9617208},{"NoteNumber":51,"Velocity":44,"Duration":507722,"SoundDuration":507722,"Delta":9617208},{"NoteNumber":68,"Velocity":58,"Duration":1028092,"SoundDuration":1028092,"Delta":10124931},{"NoteNumber":63,"Velocity":58,"Duration":1028092,"SoundDuration":1028092,"Delta":10124931},{"NoteNumber":75,"Velocity":64,"Duration":1028092,"SoundDuration":1028092,"Delta":10124931},{"NoteNumber":51,"Velocity":49,"Duration":1232926,"SoundDuration":1232926,"Delta":10124931},{"NoteNumber":48,"Velocity":41,"Duration":1232926,"SoundDuration":1232926,"Delta":10124931},{"NoteNumber":75,"Velocity":43,"Duration":204833,"SoundDuration":204833,"Delta":11153023},{"NoteNumber":63,"Velocity":37,"Duration":204833,"SoundDuration":204833,"Delta":11153023},{"NoteNumber":73,"Velocity":43,"Duration":1024169,"SoundDuration":1024169,"Delta":11357857},{"NoteNumber":67,"Velocity":37,"Duration":1024169,"SoundDuration":1024169,"Delta":11357857},{"NoteNumber":61,"Velocity":37,"Duration":1024169,"SoundDuration":1024169,"Delta":11357857},{"NoteNumber":46,"Velocity":27,"Duration":1024169,"SoundDuration":1024169,"Delta":11357857},{"NoteNumber":51,"Velocity":33,"Duration":1024169,"SoundDuration":1024169,"Delta":11357857},{"NoteNumber":60,"Velocity":35,"Duration":259744,"SoundDuration":259744,"Delta":12382027},{"NoteNumber":68,"Velocity":35,"Duration":259744,"SoundDuration":259744,"Delta":12382027},{"NoteNumber":72,"Velocity":39,"Duration":259744,"SoundDuration":259744,"Delta":12382027},{"NoteNumber":44,"Velocity":25,"Duration":259744,"SoundDuration":259744,"Delta":12382027},{"NoteNumber":51,"Velocity":29,"Duration":259744,"SoundDuration":259744,"Delta":12382027},{"NoteNumber":60,"Velocity":32,"Duration":2458007,"SoundDuration":2458007,"Delta":12641772},{"NoteNumber":72,"Velocity":36,"Duration":2458007,"SoundDuration":2458007,"Delta":12641772},{"NoteNumber":68,"Velocity":32,"Duration":2458007,"SoundDuration":2458007,"Delta":12641772},{"NoteNumber":51,"Velocity":29,"Duration":2458007,"SoundDuration":2458007,"Delta":12641772},{"NoteNumber":44,"Velocity":25,"Duration":2458007,"SoundDuration":2458007,"Delta":12641772},{"NoteNumber":67,"Velocity":35,"Duration":631571,"SoundDuration":631571,"Delta":15099780},{"NoteNumber":58,"Velocity":35,"Duration":631571,"SoundDuration":631571,"Delta":15099780},{"NoteNumber":70,"Velocity":39,"Duration":631571,"SoundDuration":631571,"Delta":15099780},{"NoteNumber":39,"Velocity":27,"Duration":631571,"SoundDuration":631571,"Delta":15099780},{"NoteNumber":51,"Velocity":32,"Duration":614502,"SoundDuration":614502,"Delta":15099780},{"NoteNumber":71,"Velocity":39,"Duration":221903,"SoundDuration":221903,"Delta":15714282},{"NoteNumber":59,"Velocity":35,"Duration":221903,"SoundDuration":221903,"Delta":15714282},{"NoteNumber":68,"Velocity":35,"Duration":221903,"SoundDuration":221903,"Delta":15714282},{"NoteNumber":51,"Velocity":33,"Duration":204833,"SoundDuration":204833,"Delta":15714282},{"NoteNumber":44,"Velocity":27,"Duration":221903,"SoundDuration":221903,"Delta":15714282},{"NoteNumber":67,"Velocity":35,"Duration":409667,"SoundDuration":409667,"Delta":15919116},{"NoteNumber":70,"Velocity":39,"Duration":409667,"SoundDuration":409667,"Delta":15919116},{"NoteNumber":58,"Velocity":35,"Duration":409667,"SoundDuration":409667,"Delta":15919116},{"NoteNumber":39,"Velocity":27,"Duration":409667,"SoundDuration":409667,"Delta":15919116},{"NoteNumber":51,"Velocity":33,"Duration":409667,"SoundDuration":409667,"Delta":15919116},{"NoteNumber":70,"Velocity":39,"Duration":631571,"SoundDuration":631571,"Delta":16328784},{"NoteNumber":58,"Velocity":35,"Duration":631571,"SoundDuration":631571,"Delta":16328784},{"NoteNumber":67,"Velocity":35,"Duration":631571,"SoundDuration":631571,"Delta":16328784},{"NoteNumber":51,"Velocity":33,"Duration":614502,"SoundDuration":614502,"Delta":16328784},{"NoteNumber":39,"Velocity":27,"Duration":631571,"SoundDuration":631571,"Delta":16328784},{"NoteNumber":68,"Velocity":35,"Duration":227024,"SoundDuration":227024,"Delta":16943286},{"NoteNumber":59,"Velocity":35,"Duration":227024,"SoundDuration":227024,"Delta":16943286},{"NoteNumber":71,"Velocity":39,"Duration":227024,"SoundDuration":227024,"Delta":16943286},{"NoteNumber":44,"Velocity":27,"Duration":227024,"SoundDuration":227024,"Delta":16943286},{"NoteNumber":51,"Velocity":32,"Duration":204833,"SoundDuration":204833,"Delta":16943286},{"NoteNumber":58,"Velocity":35,"Duration":532575,"SoundDuration":532575,"Delta":17148120},{"NoteNumber":67,"Velocity":35,"Duration":532575,"SoundDuration":532575,"Delta":17148120},{"NoteNumber":70,"Velocity":39,"Duration":532575,"SoundDuration":532575,"Delta":17148120},{"NoteNumber":39,"Velocity":27,"Duration":532575,"SoundDuration":532575,"Delta":17148120},{"NoteNumber":51,"Velocity":32,"Duration":532575,"SoundDuration":532575,"Delta":17148120},{"NoteNumber":71,"Velocity":61,"Duration":3687011,"SoundDuration":3687011,"Delta":17680696},{"NoteNumber":65,"Velocity":56,"Duration":2458007,"SoundDuration":2458007,"Delta":17680696},{"NoteNumber":68,"Velocity":56,"Duration":3687011,"SoundDuration":3687011,"Delta":17680696},{"NoteNumber":50,"Velocity":51,"Duration":2458007,"SoundDuration":2458007,"Delta":17680696},{"NoteNumber":38,"Velocity":44,"Duration":2458007,"SoundDuration":2458007,"Delta":17680696},{"NoteNumber":63,"Velocity":27,"Duration":1638671,"SoundDuration":1638671,"Delta":20138704},{"NoteNumber":39,"Velocity":21,"Duration":1638671,"SoundDuration":1638671,"Delta":20138704},{"NoteNumber":51,"Velocity":26,"Duration":1638671,"SoundDuration":1638671,"Delta":20138704},{"NoteNumber":67,"Velocity":24,"Duration":409667,"SoundDuration":409667,"Delta":21367708},{"NoteNumber":70,"Velocity":27,"Duration":409667,"SoundDuration":409667,"Delta":21367708},{"NoteNumber":58,"Velocity":41,"Duration":631571,"SoundDuration":631571,"Delta":22596712},{"NoteNumber":66,"Velocity":41,"Duration":631571,"SoundDuration":631571,"Delta":22596712},{"NoteNumber":70,"Velocity":45,"Duration":631571,"SoundDuration":631571,"Delta":22596712},{"NoteNumber":51,"Velocity":39,"Duration":614502,"SoundDuration":614502,"Delta":22596712},{"NoteNumber":39,"Velocity":33,"Duration":631571,"SoundDuration":631571,"Delta":22596712},{"NoteNumber":71,"Velocity":45,"Duration":221903,"SoundDuration":221903,"Delta":23211214},{"NoteNumber":68,"Velocity":41,"Duration":221903,"SoundDuration":221903,"Delta":23211214},{"NoteNumber":59,"Velocity":41,"Duration":221903,"SoundDuration":221903,"Delta":23211214},{"NoteNumber":44,"Velocity":33,"Duration":221903,"SoundDuration":221903,"Delta":23211214},{"NoteNumber":51,"Velocity":39,"Duration":204833,"SoundDuration":204833,"Delta":23211214},{"NoteNumber":70,"Velocity":45,"Duration":409667,"SoundDuration":409667,"Delta":23416048},{"NoteNumber":66,"Velocity":41,"Duration":409667,"SoundDuration":409667,"Delta":23416048},{"NoteNumber":58,"Velocity":41,"Duration":409667,"SoundDuration":409667,"Delta":23416048},{"NoteNumber":51,"Velocity":39,"Duration":409667,"SoundDuration":409667,"Delta":23416048},{"NoteNumber":39,"Velocity":33,"Duration":409667,"SoundDuration":409667,"Delta":23416048},{"NoteNumber":70,"Velocity":45,"Duration":409667,"SoundDuration":409667,"Delta":23825716},{"NoteNumber":58,"Velocity":40,"Duration":409667,"SoundDuration":409667,"Delta":23825716},{"NoteNumber":66,"Velocity":40,"Duration":409667,"SoundDuration":409667,"Delta":23825716},{"NoteNumber":39,"Velocity":33,"Duration":409667,"SoundDuration":409667,"Delta":23825716},{"NoteNumber":51,"Velocity":39,"Duration":409667,"SoundDuration":409667,"Delta":23825716},{"NoteNumber":63,"Velocity":48,"Duration":409667,"SoundDuration":409667,"Delta":24235384},{"NoteNumber":70,"Velocity":48,"Duration":409667,"SoundDuration":409667,"Delta":24235384},{"NoteNumber":75,"Velocity":53,"Duration":409667,"SoundDuration":409667,"Delta":24235384},{"NoteNumber":51,"Velocity":46,"Duration":409667,"SoundDuration":409667,"Delta":24235384},{"NoteNumber":42,"Velocity":38,"Duration":409667,"SoundDuration":409667,"Delta":24235384},{"NoteNumber":65,"Velocity":60,"Duration":493177,"SoundDuration":493177,"Delta":24645052},{"NoteNumber":77,"Velocity":67,"Duration":493177,"SoundDuration":493177,"Delta":24645052},{"NoteNumber":75,"Velocity":60,"Duration":493177,"SoundDuration":493177,"Delta":24645052},{"NoteNumber":47,"Velocity":48,"Duration":493177,"SoundDuration":493177,"Delta":24645052},{"NoteNumber":51,"Velocity":57,"Duration":493177,"SoundDuration":493177,"Delta":24645052},{"NoteNumber":75,"Velocity":64,"Duration":1026953,"SoundDuration":1026953,"Delta":25138229},{"NoteNumber":66,"Velocity":64,"Duration":1026953,"SoundDuration":1026953,"Delta":25138229},{"NoteNumber":78,"Velocity":73,"Duration":1026953,"SoundDuration":1026953,"Delta":25138229},{"NoteNumber":51,"Velocity":63,"Duration":1231787,"SoundDuration":1231787,"Delta":25138229},{"NoteNumber":46,"Velocity":54,"Duration":1231787,"SoundDuration":1231787,"Delta":25138229},{"NoteNumber":78,"Velocity":54,"Duration":204833,"SoundDuration":204833,"Delta":26165183},{"NoteNumber":66,"Velocity":49,"Duration":204833,"SoundDuration":204833,"Delta":26165183},{"NoteNumber":77,"Velocity":45,"Duration":1032014,"SoundDuration":1032014,"Delta":26370017},{"NoteNumber":65,"Velocity":41,"Duration":1032014,"SoundDuration":1032014,"Delta":26370017},{"NoteNumber":74,"Velocity":41,"Duration":1032014,"SoundDuration":1032014,"Delta":26370017},{"NoteNumber":46,"Velocity":31,"Duration":1032014,"SoundDuration":1032014,"Delta":26370017},{"NoteNumber":56,"Velocity":37,"Duration":1032014,"SoundDuration":1032014,"Delta":26370017},{"NoteNumber":63,"Velocity":27,"Duration":259744,"SoundDuration":259744,"Delta":27402031},{"NoteNumber":75,"Velocity":31,"Duration":259744,"SoundDuration":259744,"Delta":27402031},{"NoteNumber":51,"Velocity":21,"Duration":259744,"SoundDuration":259744,"Delta":27402031},{"NoteNumber":55,"Velocity":26,"Duration":259744,"SoundDuration":259744,"Delta":27402031},{"NoteNumber":75,"Velocity":31,"Duration":2458007,"SoundDuration":2458007,"Delta":27661776},{"NoteNumber":63,"Velocity":27,"Duration":2458007,"SoundDuration":2458007,"Delta":27661776},{"NoteNumber":55,"Velocity":26,"Duration":2458007,"SoundDuration":2458007,"Delta":27661776},{"NoteNumber":51,"Velocity":21,"Duration":2458007,"SoundDuration":2458007,"Delta":27661776},{"NoteNumber":72,"Velocity":35,"Duration":631571,"SoundDuration":631571,"Delta":30119784},{"NoteNumber":60,"Velocity":30,"Duration":631571,"SoundDuration":631571,"Delta":30119784},{"NoteNumber":68,"Velocity":30,"Duration":631571,"SoundDuration":631571,"Delta":30119784},{"NoteNumber":44,"Velocity":24,"Duration":631571,"SoundDuration":631571,"Delta":30119784},{"NoteNumber":51,"Velocity":29,"Duration":614502,"SoundDuration":614502,"Delta":30119784},{"NoteNumber":61,"Velocity":30,"Duration":222927,"SoundDuration":222927,"Delta":30734286},{"NoteNumber":67,"Velocity":30,"Duration":222927,"SoundDuration":222927,"Delta":30734286},{"NoteNumber":73,"Velocity":35,"Duration":222927,"SoundDuration":222927,"Delta":30734286},{"NoteNumber":51,"Velocity":29,"Duration":204833,"SoundDuration":204833,"Delta":30734286},{"NoteNumber":46,"Velocity":24,"Duration":222927,"SoundDuration":222927,"Delta":30734286},{"NoteNumber":60,"Velocity":30,"Duration":528479,"SoundDuration":528479,"Delta":30939120},{"NoteNumber":72,"Velocity":35,"Duration":528479,"SoundDuration":528479,"Delta":30939120},{"NoteNumber":68,"Velocity":30,"Duration":528479,"SoundDuration":528479,"Delta":30939120},{"NoteNumber":44,"Velocity":23,"Duration":528479,"SoundDuration":528479,"Delta":30939120},{"NoteNumber":51,"Velocity":28,"Duration":528479,"SoundDuration":528479,"Delta":30939120},{"NoteNumber":67,"Velocity":25,"Duration":2458007,"SoundDuration":2458007,"Delta":31467599},{"NoteNumber":61,"Velocity":25,"Duration":2458007,"SoundDuration":2458007,"Delta":31467599},{"NoteNumber":73,"Velocity":28,"Duration":2458007,"SoundDuration":2458007,"Delta":31467599},{"NoteNumber":51,"Velocity":23,"Duration":2458007,"SoundDuration":2458007,"Delta":31467599},{"NoteNumber":46,"Velocity":19,"Duration":2458007,"SoundDuration":2458007,"Delta":31467599},{"NoteNumber":68,"Velocity":30,"Duration":651688,"SoundDuration":651688,"Delta":33925607},{"NoteNumber":60,"Velocity":30,"Duration":651688,"SoundDuration":651688,"Delta":33925607},{"NoteNumber":72,"Velocity":35,"Duration":651688,"SoundDuration":651688,"Delta":33925607},{"NoteNumber":44,"Velocity":24,"Duration":651688,"SoundDuration":651688,"Delta":33925607},{"NoteNumber":51,"Velocity":29,"Duration":633498,"SoundDuration":633498,"Delta":33925607},{"NoteNumber":75,"Velocity":36,"Duration":246092,"SoundDuration":246092,"Delta":34559105},{"NoteNumber":63,"Velocity":31,"Duration":246092,"SoundDuration":246092,"Delta":34559105},{"NoteNumber":48,"Velocity":24,"Duration":246092,"SoundDuration":246092,"Delta":34559105},{"NoteNumber":51,"Velocity":29,"Duration":223902,"SoundDuration":223902,"Delta":34559105},{"NoteNumber":60,"Velocity":30,"Duration":530534,"SoundDuration":530534,"Delta":34783008},{"NoteNumber":68,"Velocity":30,"Duration":530534,"SoundDuration":530534,"Delta":34783008},{"NoteNumber":72,"Velocity":35,"Duration":530534,"SoundDuration":530534,"Delta":34783008},{"NoteNumber":51,"Velocity":29,"Duration":530534,"SoundDuration":530534,"Delta":34783008},{"NoteNumber":44,"Velocity":24,"Duration":530534,"SoundDuration":530534,"Delta":34783008},{"NoteNumber":58,"Velocity":25,"Duration":2458007,"SoundDuration":2458007,"Delta":35313542},{"NoteNumber":70,"Velocity":28,"Duration":2458007,"SoundDuration":2458007,"Delta":35313542},{"NoteNumber":67,"Velocity":25,"Duration":2458007,"SoundDuration":2458007,"Delta":35313542},{"NoteNumber":39,"Velocity":19,"Duration":2458007,"SoundDuration":2458007,"Delta":35313542},{"NoteNumber":51,"Velocity":23,"Duration":2458007,"SoundDuration":2458007,"Delta":35313542},{"NoteNumber":68,"Velocity":29,"Duration":631571,"SoundDuration":631571,"Delta":37771550},{"NoteNumber":60,"Velocity":29,"Duration":631571,"SoundDuration":631571,"Delta":37771550},{"NoteNumber":72,"Velocity":34,"Duration":631571,"SoundDuration":631571,"Delta":37771550},{"NoteNumber":51,"Velocity":28,"Duration":614502,"SoundDuration":614502,"Delta":37771550},{"NoteNumber":44,"Velocity":23,"Duration":631571,"SoundDuration":631571,"Delta":37771550},{"NoteNumber":67,"Velocity":29,"Duration":221903,"SoundDuration":221903,"Delta":38386052},{"NoteNumber":61,"Velocity":29,"Duration":221903,"SoundDuration":221903,"Delta":38386052},{"NoteNumber":73,"Velocity":34,"Duration":221903,"SoundDuration":221903,"Delta":38386052},{"NoteNumber":46,"Velocity":24,"Duration":221903,"SoundDuration":221903,"Delta":38386052},{"NoteNumber":51,"Velocity":29,"Duration":204833,"SoundDuration":204833,"Delta":38386052},{"NoteNumber":68,"Velocity":29,"Duration":409668,"SoundDuration":409668,"Delta":38590886},{"NoteNumber":72,"Velocity":34,"Duration":409668,"SoundDuration":409668,"Delta":38590886},{"NoteNumber":60,"Velocity":29,"Duration":409668,"SoundDuration":409668,"Delta":38590886},{"NoteNumber":51,"Velocity":29,"Duration":409668,"SoundDuration":409668,"Delta":38590886},{"NoteNumber":44,"Velocity":24,"Duration":409668,"SoundDuration":409668,"Delta":38590886},{"NoteNumber":72,"Velocity":30,"Duration":631571,"SoundDuration":631571,"Delta":39000554},{"NoteNumber":60,"Velocity":27,"Duration":631571,"SoundDuration":631571,"Delta":39000554},{"NoteNumber":68,"Velocity":27,"Duration":631571,"SoundDuration":631571,"Delta":39000554},{"NoteNumber":44,"Velocity":21,"Duration":631571,"SoundDuration":631571,"Delta":39000554},{"NoteNumber":51,"Velocity":25,"Duration":614501,"SoundDuration":614501,"Delta":39000554},{"NoteNumber":77,"Velocity":44,"Duration":225768,"SoundDuration":225768,"Delta":39615056},{"NoteNumber":65,"Velocity":39,"Duration":225768,"SoundDuration":225768,"Delta":39615056},{"NoteNumber":68,"Velocity":39,"Duration":204834,"SoundDuration":204834,"Delta":39615056},{"NoteNumber":49,"Velocity":28,"Duration":225768,"SoundDuration":225768,"Delta":39615056},{"NoteNumber":51,"Velocity":33,"Duration":204834,"SoundDuration":204834,"Delta":39615056},{"NoteNumber":63,"Velocity":41,"Duration":502428,"SoundDuration":502428,"Delta":39819890},{"NoteNumber":75,"Velocity":47,"Duration":502428,"SoundDuration":502428,"Delta":39819890},{"NoteNumber":68,"Velocity":41,"Duration":502428,"SoundDuration":502428,"Delta":39819890},{"NoteNumber":51,"Velocity":37,"Duration":502428,"SoundDuration":502428,"Delta":39819890},{"NoteNumber":48,"Velocity":31,"Duration":502428,"SoundDuration":502428,"Delta":39819890},{"NoteNumber":63,"Velocity":46,"Duration":1027262,"SoundDuration":1027262,"Delta":40322318},{"NoteNumber":75,"Velocity":51,"Duration":1027262,"SoundDuration":1027262,"Delta":40322318},{"NoteNumber":68,"Velocity":46,"Duration":1027262,"SoundDuration":1027262,"Delta":40322318},{"NoteNumber":48,"Velocity":35,"Duration":1232096,"SoundDuration":1232096,"Delta":40322318},{"NoteNumber":51,"Velocity":42,"Duration":1232096,"SoundDuration":1232096,"Delta":40322318},{"NoteNumber":75,"Velocity":52,"Duration":204834,"SoundDuration":204834,"Delta":41349580},{"NoteNumber":63,"Velocity":47,"Duration":204834,"SoundDuration":204834,"Delta":41349580},{"NoteNumber":73,"Velocity":52,"Duration":1024169,"SoundDuration":1024169,"Delta":41554414},{"NoteNumber":61,"Velocity":47,"Duration":1024169,"SoundDuration":1024169,"Delta":41554414},{"NoteNumber":67,"Velocity":47,"Duration":1024169,"SoundDuration":1024169,"Delta":41554414},{"NoteNumber":51,"Velocity":44,"Duration":1024169,"SoundDuration":1024169,"Delta":41554414},{"NoteNumber":46,"Velocity":37,"Duration":1024169,"SoundDuration":1024169,"Delta":41554414},{"NoteNumber":72,"Velocity":27,"Duration":259744,"SoundDuration":259744,"Delta":42578584},{"NoteNumber":60,"Velocity":24,"Duration":259744,"SoundDuration":259744,"Delta":42578584},{"NoteNumber":68,"Velocity":24,"Duration":259744,"SoundDuration":259744,"Delta":42578584},{"NoteNumber":44,"Velocity":19,"Duration":259744,"SoundDuration":259744,"Delta":42578584},{"NoteNumber":51,"Velocity":23,"Duration":259744,"SoundDuration":259744,"Delta":42578584},{"NoteNumber":60,"Velocity":24,"Duration":2458007,"SoundDuration":2458007,"Delta":42838329},{"NoteNumber":68,"Velocity":24,"Duration":2458007,"SoundDuration":2458007,"Delta":42838329},{"NoteNumber":72,"Velocity":27,"Duration":2458007,"SoundDuration":2458007,"Delta":42838329},{"NoteNumber":51,"Velocity":22,"Duration":2458007,"SoundDuration":2458007,"Delta":42838329},{"NoteNumber":44,"Velocity":18,"Duration":2458007,"SoundDuration":2458007,"Delta":42838329},{"NoteNumber":58,"Velocity":39,"Duration":631571,"SoundDuration":631571,"Delta":45296337},{"NoteNumber":70,"Velocity":44,"Duration":631571,"SoundDuration":631571,"Delta":45296337},{"NoteNumber":67,"Velocity":39,"Duration":631571,"SoundDuration":631571,"Delta":45296337},{"NoteNumber":39,"Velocity":30,"Duration":631571,"SoundDuration":631571,"Delta":45296337},{"NoteNumber":51,"Velocity":36,"Duration":614502,"SoundDuration":614502,"Delta":45296337},{"NoteNumber":71,"Velocity":44,"Duration":221903,"SoundDuration":221903,"Delta":45910839},{"NoteNumber":59,"Velocity":39,"Duration":221903,"SoundDuration":221903,"Delta":45910839},{"NoteNumber":68,"Velocity":39,"Duration":221903,"SoundDuration":221903,"Delta":45910839},{"NoteNumber":44,"Velocity":31,"Duration":221903,"SoundDuration":221903,"Delta":45910839},{"NoteNumber":51,"Velocity":37,"Duration":204833,"SoundDuration":204833,"Delta":45910839},{"NoteNumber":67,"Velocity":39,"Duration":409668,"SoundDuration":409668,"Delta":46115673},{"NoteNumber":58,"Velocity":39,"Duration":409668,"SoundDuration":409668,"Delta":46115673},{"NoteNumber":70,"Velocity":44,"Duration":409668,"SoundDuration":409668,"Delta":46115673},{"NoteNumber":51,"Velocity":37,"Duration":409668,"SoundDuration":409668,"Delta":46115673},{"NoteNumber":39,"Velocity":31,"Duration":409668,"SoundDuration":409668,"Delta":46115673},{"NoteNumber":67,"Velocity":39,"Duration":631571,"SoundDuration":631571,"Delta":46525341},{"NoteNumber":70,"Velocity":44,"Duration":631571,"SoundDuration":631571,"Delta":46525341},{"NoteNumber":58,"Velocity":39,"Duration":631571,"SoundDuration":631571,"Delta":46525341},{"NoteNumber":51,"Velocity":37,"Duration":614501,"SoundDuration":614501,"Delta":46525341},{"NoteNumber":39,"Velocity":31,"Duration":631571,"SoundDuration":631571,"Delta":46525341},{"NoteNumber":68,"Velocity":39,"Duration":227251,"SoundDuration":227251,"Delta":47139843},{"NoteNumber":59,"Velocity":39,"Duration":227251,"SoundDuration":227251,"Delta":47139843},{"NoteNumber":71,"Velocity":44,"Duration":227251,"SoundDuration":227251,"Delta":47139843},{"NoteNumber":44,"Velocity":30,"Duration":227251,"SoundDuration":227251,"Delta":47139843},{"NoteNumber":51,"Velocity":36,"Duration":204834,"SoundDuration":204834,"Delta":47139843},{"NoteNumber":70,"Velocity":44,"Duration":533741,"SoundDuration":533741,"Delta":47344677},{"NoteNumber":58,"Velocity":39,"Duration":533741,"SoundDuration":533741,"Delta":47344677},{"NoteNumber":67,"Velocity":39,"Duration":533741,"SoundDuration":533741,"Delta":47344677},{"NoteNumber":39,"Velocity":30,"Duration":533741,"SoundDuration":533741,"Delta":47344677},{"NoteNumber":51,"Velocity":36,"Duration":533741,"SoundDuration":533741,"Delta":47344677},{"NoteNumber":65,"Velocity":61,"Duration":1229004,"SoundDuration":1229004,"Delta":47878419},{"NoteNumber":68,"Velocity":61,"Duration":1229004,"SoundDuration":1229004,"Delta":47878419},{"NoteNumber":71,"Velocity":68,"Duration":1229004,"SoundDuration":1229004,"Delta":47878419},{"NoteNumber":50,"Velocity":56,"Duration":2513627,"SoundDuration":2513627,"Delta":47878419},{"NoteNumber":38,"Velocity":47,"Duration":2513627,"SoundDuration":2513627,"Delta":47878419},{"NoteNumber":77,"Velocity":67,"Duration":1024169,"SoundDuration":1024169,"Delta":49107423},{"NoteNumber":68,"Velocity":60,"Duration":819335,"SoundDuration":819335,"Delta":49107423},{"NoteNumber":71,"Velocity":60,"Duration":819335,"SoundDuration":819335,"Delta":49107423},{"NoteNumber":75,"Velocity":42,"Duration":260453,"SoundDuration":260453,"Delta":50131593},{"NoteNumber":75,"Velocity":42,"Duration":1784184,"SoundDuration":1784184,"Delta":50392046},{"NoteNumber":68,"Velocity":38,"Duration":1324981,"SoundDuration":1324981,"Delta":50392046},{"NoteNumber":71,"Velocity":38,"Duration":1324981,"SoundDuration":1324981,"Delta":50392046},{"NoteNumber":39,"Velocity":30,"Duration":1784184,"SoundDuration":1784184,"Delta":50392046},{"NoteNumber":51,"Velocity":36,"Duration":1784184,"SoundDuration":1784184,"Delta":50392046},{"NoteNumber":67,"Velocity":25,"Duration":459203,"SoundDuration":459203,"Delta":51717027},{"NoteNumber":70,"Velocity":28,"Duration":459203,"SoundDuration":459203,"Delta":51717027},{"NoteNumber":60,"Velocity":30,"Duration":887704,"SoundDuration":887704,"Delta":53060579},{"NoteNumber":66,"Velocity":30,"Duration":887704,"SoundDuration":887704,"Delta":53060579},{"NoteNumber":75,"Velocity":35,"Duration":684272,"SoundDuration":684272,"Delta":53060579},{"NoteNumber":69,"Velocity":30,"Duration":887704,"SoundDuration":887704,"Delta":53060579},{"NoteNumber":77,"Velocity":35,"Duration":240420,"SoundDuration":240420,"Delta":53726357},{"NoteNumber":75,"Velocity":35,"Duration":443852,"SoundDuration":443852,"Delta":53948284},{"NoteNumber":69,"Velocity":30,"Duration":443852,"SoundDuration":443852,"Delta":53948284},{"NoteNumber":60,"Velocity":30,"Duration":443852,"SoundDuration":443852,"Delta":53948284},{"NoteNumber":66,"Velocity":30,"Duration":443852,"SoundDuration":443852,"Delta":53948284},{"NoteNumber":68,"Velocity":30,"Duration":890588,"SoundDuration":890588,"Delta":54392136},{"NoteNumber":66,"Velocity":30,"Duration":1344572,"SoundDuration":1344572,"Delta":54392136},{"NoteNumber":75,"Velocity":35,"Duration":890588,"SoundDuration":890588,"Delta":54392136},{"NoteNumber":61,"Velocity":30,"Duration":1754240,"SoundDuration":1754240,"Delta":54392136},{"NoteNumber":72,"Velocity":35,"Duration":453984,"SoundDuration":453984,"Delta":55282724},{"NoteNumber":73,"Velocity":35,"Duration":409668,"SoundDuration":409668,"Delta":55736709},{"NoteNumber":65,"Velocity":30,"Duration":409668,"SoundDuration":409668,"Delta":55736709},{"NoteNumber":68,"Velocity":30,"Duration":409668,"SoundDuration":409668,"Delta":55736709},{"NoteNumber":68,"Velocity":56,"Duration":823887,"SoundDuration":823887,"Delta":56965713},{"NoteNumber":73,"Velocity":62,"Duration":632637,"SoundDuration":632637,"Delta":56965713},{"NoteNumber":65,"Velocity":56,"Duration":823887,"SoundDuration":823887,"Delta":56965713},{"NoteNumber":47,"Velocity":50,"Duration":823887,"SoundDuration":823887,"Delta":56965713},{"NoteNumber":35,"Velocity":42,"Duration":823887,"SoundDuration":823887,"Delta":56965713},{"NoteNumber":75,"Velocity":62,"Duration":226060,"SoundDuration":226060,"Delta":57581013},{"NoteNumber":65,"Velocity":56,"Duration":422600,"SoundDuration":422600,"Delta":57789600},{"NoteNumber":68,"Velocity":56,"Duration":422600,"SoundDuration":422600,"Delta":57789600},{"NoteNumber":73,"Velocity":62,"Duration":422600,"SoundDuration":422600,"Delta":57789600},{"NoteNumber":35,"Velocity":42,"Duration":422600,"SoundDuration":422600,"Delta":57789600},{"NoteNumber":47,"Velocity":50,"Duration":422600,"SoundDuration":422600,"Delta":57789600},{"NoteNumber":75,"Velocity":62,"Duration":666100,"SoundDuration":666100,"Delta":58212200},{"NoteNumber":66,"Velocity":56,"Duration":867742,"SoundDuration":867742,"Delta":58212200},{"NoteNumber":46,"Velocity":48,"Duration":867742,"SoundDuration":867742,"Delta":58212200},{"NoteNumber":34,"Velocity":40,"Duration":867742,"SoundDuration":867742,"Delta":58212200},{"NoteNumber":73,"Velocity":63,"Duration":219831,"SoundDuration":219831,"Delta":58860111},{"NoteNumber":66,"Velocity":57,"Duration":532575,"SoundDuration":532575,"Delta":59079942},{"NoteNumber":73,"Velocity":63,"Duration":133144,"SoundDuration":133144,"Delta":59079942},{"NoteNumber":33,"Velocity":51,"Duration":532575,"SoundDuration":532575,"Delta":59079942},{"NoteNumber":45,"Velocity":61,"Duration":532575,"SoundDuration":532575,"Delta":59079942},{"NoteNumber":73,"Velocity":71,"Duration":266287,"SoundDuration":266287,"Delta":59346230},{"NoteNumber":78,"Velocity":77,"Duration":823432,"SoundDuration":823432,"Delta":59612518},{"NoteNumber":66,"Velocity":67,"Duration":1290458,"SoundDuration":1290458,"Delta":59612518},{"NoteNumber":73,"Velocity":67,"Duration":1290458,"SoundDuration":1290458,"Delta":59612518},{"NoteNumber":32,"Velocity":60,"Duration":1290458,"SoundDuration":1290458,"Delta":59612518},{"NoteNumber":44,"Velocity":72,"Duration":1290458,"SoundDuration":1290458,"Delta":59612518},{"NoteNumber":77,"Velocity":62,"Duration":204833,"SoundDuration":204833,"Delta":60435951},{"NoteNumber":77,"Velocity":50,"Duration":262191,"SoundDuration":262191,"Delta":60640785},{"NoteNumber":72,"Velocity":45,"Duration":1030242,"SoundDuration":1030242,"Delta":60902976},{"NoteNumber":66,"Velocity":45,"Duration":1030242,"SoundDuration":1030242,"Delta":60902976},{"NoteNumber":75,"Velocity":51,"Duration":1030242,"SoundDuration":1030242,"Delta":60902976},{"NoteNumber":44,"Velocity":35,"Duration":1030242,"SoundDuration":1030242,"Delta":60902976},{"NoteNumber":56,"Velocity":42,"Duration":1030242,"SoundDuration":1030242,"Delta":60902976},{"NoteNumber":65,"Velocity":39,"Duration":295916,"SoundDuration":295916,"Delta":61933219},{"NoteNumber":73,"Velocity":42,"Duration":295916,"SoundDuration":295916,"Delta":61933219},{"NoteNumber":49,"Velocity":30,"Duration":295916,"SoundDuration":295916,"Delta":61933219},{"NoteNumber":56,"Velocity":36,"Duration":295916,"SoundDuration":295916,"Delta":61933219},{"NoteNumber":65,"Velocity":39,"Duration":3676230,"SoundDuration":3676230,"Delta":62229135},{"NoteNumber":73,"Velocity":42,"Duration":3676230,"SoundDuration":3676230,"Delta":62229135},{"NoteNumber":56,"Velocity":36,"Duration":3676230,"SoundDuration":3676230,"Delta":62229135},{"NoteNumber":49,"Velocity":30,"Duration":3676230,"SoundDuration":3676230,"Delta":62229135},{"NoteNumber":73,"Velocity":36,"Duration":974385,"SoundDuration":974385,"Delta":65905366},{"NoteNumber":42,"Velocity":35,"Duration":162521,"SoundDuration":162521,"Delta":65905366},{"NoteNumber":49,"Velocity":26,"Duration":324745,"SoundDuration":324745,"Delta":66230260},{"NoteNumber":57,"Velocity":26,"Duration":324745,"SoundDuration":324745,"Delta":66555006},{"NoteNumber":73,"Velocity":35,"Duration":974236,"SoundDuration":974236,"Delta":66879751},{"NoteNumber":42,"Velocity":35,"Duration":162372,"SoundDuration":162372,"Delta":66879751},{"NoteNumber":49,"Velocity":26,"Duration":324745,"SoundDuration":324745,"Delta":67204497},{"NoteNumber":57,"Velocity":26,"Duration":324745,"SoundDuration":324745,"Delta":67529242},{"NoteNumber":73,"Velocity":34,"Duration":992308,"SoundDuration":992308,"Delta":67853988},{"NoteNumber":42,"Velocity":35,"Duration":162372,"SoundDuration":162372,"Delta":67853988},{"NoteNumber":49,"Velocity":26,"Duration":324745,"SoundDuration":324745,"Delta":68178733},{"NoteNumber":57,"Velocity":26,"Duration":342817,"SoundDuration":342817,"Delta":68503479},{"NoteNumber":74,"Velocity":46,"Duration":2922709,"SoundDuration":2922709,"Delta":68846297},{"NoteNumber":42,"Velocity":36,"Duration":162372,"SoundDuration":162372,"Delta":68846297},{"NoteNumber":50,"Velocity":26,"Duration":324745,"SoundDuration":324745,"Delta":69171042},{"NoteNumber":59,"Velocity":28,"Duration":324745,"SoundDuration":324745,"Delta":69495788},{"NoteNumber":42,"Velocity":35,"Duration":162372,"SoundDuration":162372,"Delta":69820533},{"NoteNumber":50,"Velocity":26,"Duration":324745,"SoundDuration":324745,"Delta":70145279},{"NoteNumber":59,"Velocity":26,"Duration":324745,"SoundDuration":324745,"Delta":70470024},{"NoteNumber":42,"Velocity":35,"Duration":162372,"SoundDuration":162372,"Delta":70794770},{"NoteNumber":50,"Velocity":27,"Duration":324745,"SoundDuration":324745,"Delta":71119515},{"NoteNumber":59,"Velocity":27,"Duration":324745,"SoundDuration":324745,"Delta":71444261},{"NoteNumber":76,"Velocity":41,"Duration":649490,"SoundDuration":649490,"Delta":71769006},{"NoteNumber":42,"Velocity":35,"Duration":162372,"SoundDuration":162372,"Delta":71769006},{"NoteNumber":47,"Velocity":28,"Duration":324745,"SoundDuration":324745,"Delta":72093752},{"NoteNumber":74,"Velocity":40,"Duration":342817,"SoundDuration":342817,"Delta":72418497},{"NoteNumber":56,"Velocity":28,"Duration":342817,"SoundDuration":342817,"Delta":72418497},{"NoteNumber":74,"Velocity":44,"Duration":649490,"SoundDuration":649490,"Delta":72761315},{"NoteNumber":42,"Velocity":35,"Duration":162372,"SoundDuration":162372,"Delta":72761315},{"NoteNumber":49,"Velocity":29,"Duration":324745,"SoundDuration":324745,"Delta":73086061},{"NoteNumber":73,"Velocity":39,"Duration":344668,"SoundDuration":344668,"Delta":73410806},{"NoteNumber":57,"Velocity":29,"Duration":344668,"SoundDuration":344668,"Delta":73410806},{"NoteNumber":73,"Velocity":41,"Duration":649490,"SoundDuration":649490,"Delta":73755475},{"NoteNumber":42,"Velocity":35,"Duration":162372,"SoundDuration":162372,"Delta":73755475},{"NoteNumber":50,"Velocity":27,"Duration":324745,"SoundDuration":324745,"Delta":74080221},{"NoteNumber":71,"Velocity":39,"Duration":354609,"SoundDuration":354609,"Delta":74404966},{"NoteNumber":59,"Velocity":27,"Duration":354609,"SoundDuration":354609,"Delta":74404966},{"NoteNumber":73,"Velocity":42,"Duration":1948473,"SoundDuration":1948473,"Delta":74759576},{"NoteNumber":42,"Velocity":35,"Duration":162372,"SoundDuration":162372,"Delta":74759576},{"NoteNumber":49,"Velocity":30,"Duration":324745,"SoundDuration":324745,"Delta":75084322},{"NoteNumber":57,"Velocity":30,"Duration":324745,"SoundDuration":324745,"Delta":75409067},{"NoteNumber":42,"Velocity":35,"Duration":162372,"SoundDuration":162372,"Delta":75733813},{"NoteNumber":49,"Velocity":27,"Duration":324745,"SoundDuration":324745,"Delta":76058558},{"NoteNumber":57,"Velocity":28,"Duration":324745,"SoundDuration":324745,"Delta":76383304},{"NoteNumber":73,"Velocity":36,"Duration":649490,"SoundDuration":649490,"Delta":76708049},{"NoteNumber":42,"Velocity":35,"Duration":162372,"SoundDuration":162372,"Delta":76708049},{"NoteNumber":49,"Velocity":29,"Duration":324745,"SoundDuration":324745,"Delta":77032795},{"NoteNumber":69,"Velocity":44,"Duration":324745,"SoundDuration":324745,"Delta":77357540},{"NoteNumber":54,"Velocity":29,"Duration":324745,"SoundDuration":324745,"Delta":77357540},{"NoteNumber":68,"Velocity":52,"Duration":1948473,"SoundDuration":1948473,"Delta":77682286},{"NoteNumber":49,"Velocity":35,"Duration":324745,"SoundDuration":324745,"Delta":77682286},{"NoteNumber":53,"Velocity":35,"Duration":324745,"SoundDuration":324745,"Delta":78007031},{"NoteNumber":56,"Velocity":35,"Duration":324745,"SoundDuration":324745,"Delta":78331777},{"NoteNumber":49,"Velocity":35,"Duration":324745,"SoundDuration":324745,"Delta":78656522},{"NoteNumber":53,"Velocity":35,"Duration":324745,"SoundDuration":324745,"Delta":78981268},{"NoteNumber":56,"Velocity":35,"Duration":324745,"SoundDuration":324745,"Delta":79306013},{"NoteNumber":78,"Velocity":61,"Duration":650909,"SoundDuration":650909,"Delta":79630759},{"NoteNumber":45,"Velocity":35,"Duration":324745,"SoundDuration":324745,"Delta":79630759},{"NoteNumber":49,"Velocity":35,"Duration":326163,"SoundDuration":326163,"Delta":79955504},{"NoteNumber":69,"Velocity":52,"Duration":346620,"SoundDuration":346620,"Delta":80281668},{"NoteNumber":54,"Velocity":35,"Duration":346620,"SoundDuration":346620,"Delta":80281668},{"NoteNumber":68,"Velocity":42,"Duration":1298981,"SoundDuration":1298981,"Delta":80628288},{"NoteNumber":49,"Velocity":35,"Duration":324745,"SoundDuration":324745,"Delta":80628288},{"NoteNumber":53,"Velocity":35,"Duration":324745,"SoundDuration":324745,"Delta":80953034},{"NoteNumber":56,"Velocity":35,"Duration":324745,"SoundDuration":324745,"Delta":81277779},{"NoteNumber":50,"Velocity":35,"Duration":1646914,"SoundDuration":1646914,"Delta":81602525},{"NoteNumber":71,"Velocity":35,"Duration":324017,"SoundDuration":324017,"Delta":81927270},{"NoteNumber":56,"Velocity":35,"Duration":324017,"SoundDuration":324017,"Delta":81927270},{"NoteNumber":69,"Velocity":34,"Duration":327751,"SoundDuration":327751,"Delta":82251287},{"NoteNumber":54,"Velocity":35,"Duration":327751,"SoundDuration":327751,"Delta":82251287},{"NoteNumber":68,"Velocity":28,"Duration":332621,"SoundDuration":332621,"Delta":82579039},{"NoteNumber":53,"Velocity":33,"Duration":332621,"SoundDuration":332621,"Delta":82579039},{"NoteNumber":69,"Velocity":26,"Duration":337778,"SoundDuration":337778,"Delta":82911660},{"NoteNumber":54,"Velocity":30,"Duration":337778,"SoundDuration":337778,"Delta":82911660},{"NoteNumber":71,"Velocity":25,"Duration":343102,"SoundDuration":343102,"Delta":83249439},{"NoteNumber":56,"Velocity":27,"Duration":343102,"SoundDuration":343102,"Delta":83249439},{"NoteNumber":49,"Velocity":27,"Duration":343102,"SoundDuration":343102,"Delta":83249439},{"NoteNumber":73,"Velocity":36,"Duration":974236,"SoundDuration":974236,"Delta":83592541},{"NoteNumber":42,"Velocity":35,"Duration":324745,"SoundDuration":324745,"Delta":83592541},{"NoteNumber":49,"Velocity":30,"Duration":324745,"SoundDuration":324745,"Delta":83917287},{"NoteNumber":57,"Velocity":31,"Duration":324745,"SoundDuration":324745,"Delta":84242032},{"NoteNumber":73,"Velocity":47,"Duration":974236,"SoundDuration":974236,"Delta":84566778},{"NoteNumber":42,"Velocity":37,"Duration":324745,"SoundDuration":324745,"Delta":84566778},{"NoteNumber":47,"Velocity":33,"Duration":324745,"SoundDuration":324745,"Delta":84891523},{"NoteNumber":56,"Velocity":33,"Duration":324745,"SoundDuration":324745,"Delta":85216269},{"NoteNumber":73,"Velocity":57,"Duration":1011753,"SoundDuration":1011753,"Delta":85541014},{"NoteNumber":42,"Velocity":42,"Duration":324745,"SoundDuration":324745,"Delta":85541014},{"NoteNumber":45,"Velocity":37,"Duration":324745,"SoundDuration":324745,"Delta":85865760},{"NoteNumber":54,"Velocity":37,"Duration":362262,"SoundDuration":362262,"Delta":86190505},{"NoteNumber":74,"Velocity":66,"Duration":2922709,"SoundDuration":2922709,"Delta":86552767},{"NoteNumber":40,"Velocity":45,"Duration":324745,"SoundDuration":324745,"Delta":86552767},{"NoteNumber":47,"Velocity":40,"Duration":324745,"SoundDuration":324745,"Delta":86877513},{"NoteNumber":56,"Velocity":40,"Duration":324745,"SoundDuration":324745,"Delta":87202258},{"NoteNumber":40,"Velocity":39,"Duration":324745,"SoundDuration":324745,"Delta":87527004},{"NoteNumber":47,"Velocity":36,"Duration":324745,"SoundDuration":324745,"Delta":87851749},{"NoteNumber":56,"Velocity":36,"Duration":324745,"SoundDuration":324745,"Delta":88176495},{"NoteNumber":40,"Velocity":34,"Duration":324745,"SoundDuration":324745,"Delta":88501240},{"NoteNumber":47,"Velocity":34,"Duration":324745,"SoundDuration":324745,"Delta":88825986},{"NoteNumber":56,"Velocity":34,"Duration":324745,"SoundDuration":324745,"Delta":89150731},{"NoteNumber":74,"Velocity":53,"Duration":162372,"SoundDuration":162372,"Delta":89313104},{"NoteNumber":78,"Velocity":50,"Duration":649490,"SoundDuration":649490,"Delta":89475477},{"NoteNumber":40,"Velocity":45,"Duration":324745,"SoundDuration":324745,"Delta":89475477},{"NoteNumber":47,"Velocity":39,"Duration":324745,"SoundDuration":324745,"Delta":89800222},{"NoteNumber":74,"Velocity":48,"Duration":344668,"SoundDuration":344668,"Delta":90124968},{"NoteNumber":56,"Velocity":40,"Duration":344668,"SoundDuration":344668,"Delta":90124968},{"NoteNumber":74,"Velocity":48,"Duration":649490,"SoundDuration":649490,"Delta":90469637},{"NoteNumber":40,"Velocity":40,"Duration":324745,"SoundDuration":324745,"Delta":90469637},{"NoteNumber":49,"Velocity":38,"Duration":324745,"SoundDuration":324745,"Delta":90794382},{"NoteNumber":73,"Velocity":44,"Duration":346620,"SoundDuration":346620,"Delta":91119128},{"NoteNumber":57,"Velocity":36,"Duration":346620,"SoundDuration":346620,"Delta":91119128},{"NoteNumber":73,"Velocity":44,"Duration":651131,"SoundDuration":651131,"Delta":91465748},{"NoteNumber":40,"Velocity":35,"Duration":324745,"SoundDuration":324745,"Delta":91465748},{"NoteNumber":50,"Velocity":33,"Duration":326386,"SoundDuration":326386,"Delta":91790494},{"NoteNumber":71,"Velocity":38,"Duration":354609,"SoundDuration":354609,"Delta":92116880},{"NoteNumber":56,"Velocity":33,"Duration":354609,"SoundDuration":354609,"Delta":92116880},{"NoteNumber":73,"Velocity":44,"Duration":1948473,"SoundDuration":1948473,"Delta":92471490},{"NoteNumber":45,"Velocity":38,"Duration":324745,"SoundDuration":324745,"Delta":92471490},{"NoteNumber":49,"Velocity":35,"Duration":324745,"SoundDuration":324745,"Delta":92796236},{"NoteNumber":57,"Velocity":37,"Duration":324745,"SoundDuration":324745,"Delta":93120981},{"NoteNumber":45,"Velocity":39,"Duration":324745,"SoundDuration":324745,"Delta":93445727},{"NoteNumber":49,"Velocity":42,"Duration":324745,"SoundDuration":324745,"Delta":93770472},{"NoteNumber":56,"Velocity":46,"Duration":324745,"SoundDuration":324745,"Delta":94095218},{"NoteNumber":73,"Velocity":52,"Duration":649490,"SoundDuration":649490,"Delta":94419963},{"NoteNumber":45,"Velocity":47,"Duration":324745,"SoundDuration":324745,"Delta":94419963},{"NoteNumber":49,"Velocity":45,"Duration":324745,"SoundDuration":324745,"Delta":94744709},{"NoteNumber":69,"Velocity":52,"Duration":324745,"SoundDuration":324745,"Delta":95069454},{"NoteNumber":54,"Velocity":42,"Duration":324745,"SoundDuration":324745,"Delta":95069454},{"NoteNumber":68,"Velocity":52,"Duration":1948327,"SoundDuration":1948327,"Delta":95394200},{"NoteNumber":47,"Velocity":44,"Duration":324745,"SoundDuration":324745,"Delta":95394200},{"NoteNumber":50,"Velocity":40,"Duration":324745,"SoundDuration":324745,"Delta":95718945},{"NoteNumber":54,"Velocity":40,"Duration":324745,"SoundDuration":324745,"Delta":96043691},{"NoteNumber":50,"Velocity":44,"Duration":324745,"SoundDuration":324745,"Delta":96368436},{"NoteNumber":54,"Velocity":40,"Duration":324745,"SoundDuration":324745,"Delta":96693182},{"NoteNumber":59,"Velocity":40,"Duration":324599,"SoundDuration":324599,"Delta":97017927},{"NoteNumber":71,"Velocity":47,"Duration":324158,"SoundDuration":324158,"Delta":97342527},{"NoteNumber":49,"Velocity":39,"Duration":324158,"SoundDuration":324158,"Delta":97342527},{"NoteNumber":69,"Velocity":44,"Duration":327592,"SoundDuration":327592,"Delta":97666686},{"NoteNumber":53,"Velocity":38,"Duration":327592,"SoundDuration":327592,"Delta":97666686},{"NoteNumber":68,"Velocity":36,"Duration":331276,"SoundDuration":331276,"Delta":97994278},{"NoteNumber":47,"Velocity":30,"Duration":331276,"SoundDuration":331276,"Delta":97994278},{"NoteNumber":73,"Velocity":45,"Duration":1801032,"SoundDuration":1801032,"Delta":98325555},{"NoteNumber":45,"Velocity":42,"Duration":324745,"SoundDuration":324745,"Delta":98325555},{"NoteNumber":49,"Velocity":39,"Duration":324745,"SoundDuration":324745,"Delta":98650300},{"NoteNumber":54,"Velocity":39,"Duration":324745,"SoundDuration":324745,"Delta":98975046},{"NoteNumber":44,"Velocity":42,"Duration":324745,"SoundDuration":324745,"Delta":99299791},{"NoteNumber":47,"Velocity":39,"Duration":324745,"SoundDuration":324745,"Delta":99624537},{"NoteNumber":54,"Velocity":39,"Duration":354278,"SoundDuration":354278,"Delta":99949282},{"NoteNumber":73,"Velocity":52,"Duration":176973,"SoundDuration":176973,"Delta":100126587},{"NoteNumber":78,"Velocity":70,"Duration":649490,"SoundDuration":649490,"Delta":100303561},{"NoteNumber":45,"Velocity":52,"Duration":324745,"SoundDuration":324745,"Delta":100303561},{"NoteNumber":49,"Velocity":48,"Duration":324745,"SoundDuration":324745,"Delta":100628306},{"NoteNumber":69,"Velocity":60,"Duration":324745,"SoundDuration":324745,"Delta":100953052},{"NoteNumber":54,"Velocity":48,"Duration":324745,"SoundDuration":324745,"Delta":100953052},{"NoteNumber":68,"Velocity":60,"Duration":1298981,"SoundDuration":1298981,"Delta":101277797},{"NoteNumber":47,"Velocity":52,"Duration":324745,"SoundDuration":324745,"Delta":101277797},{"NoteNumber":50,"Velocity":48,"Duration":324745,"SoundDuration":324745,"Delta":101602543},{"NoteNumber":54,"Velocity":49,"Duration":324745,"SoundDuration":324745,"Delta":101927288},{"NoteNumber":50,"Velocity":52,"Duration":324745,"SoundDuration":324745,"Delta":102252034},{"NoteNumber":69,"Velocity":52,"Duration":324304,"SoundDuration":324304,"Delta":102576779},{"NoteNumber":54,"Velocity":49,"Duration":324304,"SoundDuration":324304,"Delta":102576779},{"NoteNumber":68,"Velocity":52,"Duration":329067,"SoundDuration":329067,"Delta":102901083},{"NoteNumber":59,"Velocity":44,"Duration":329067,"SoundDuration":329067,"Delta":102901083},{"NoteNumber":71,"Velocity":52,"Duration":335492,"SoundDuration":335492,"Delta":103230151},{"NoteNumber":49,"Velocity":48,"Duration":335492,"SoundDuration":335492,"Delta":103230151},{"NoteNumber":69,"Velocity":49,"Duration":341992,"SoundDuration":341992,"Delta":103565643},{"NoteNumber":53,"Velocity":42,"Duration":341992,"SoundDuration":341992,"Delta":103565643},{"NoteNumber":68,"Velocity":48,"Duration":349087,"SoundDuration":349087,"Delta":103907636},{"NoteNumber":59,"Velocity":39,"Duration":349087,"SoundDuration":349087,"Delta":103907636},{"NoteNumber":66,"Velocity":51,"Duration":1948473,"SoundDuration":1948473,"Delta":104256723},{"NoteNumber":54,"Velocity":37,"Duration":324745,"SoundDuration":324745,"Delta":104256723},{"NoteNumber":57,"Velocity":37,"Duration":324745,"SoundDuration":324745,"Delta":104256723},{"NoteNumber":42,"Velocity":38,"Duration":324745,"SoundDuration":324745,"Delta":104581468},{"NoteNumber":45,"Velocity":39,"Duration":324745,"SoundDuration":324745,"Delta":104906214},{"NoteNumber":49,"Velocity":41,"Duration":324745,"SoundDuration":324745,"Delta":105230959},{"NoteNumber":54,"Velocity":44,"Duration":324745,"SoundDuration":324745,"Delta":105555705},{"NoteNumber":56,"Velocity":45,"Duration":324745,"SoundDuration":324745,"Delta":105880450},{"NoteNumber":57,"Velocity":47,"Duration":324745,"SoundDuration":324745,"Delta":106205196},{"NoteNumber":61,"Velocity":48,"Duration":324745,"SoundDuration":324745,"Delta":106529941},{"NoteNumber":54,"Velocity":50,"Duration":324745,"SoundDuration":324745,"Delta":106854687},{"NoteNumber":73,"Velocity":52,"Duration":974236,"SoundDuration":974236,"Delta":107179432},{"NoteNumber":53,"Velocity":52,"Duration":324745,"SoundDuration":324745,"Delta":107179432},{"NoteNumber":56,"Velocity":49,"Duration":324745,"SoundDuration":324745,"Delta":107504178},{"NoteNumber":61,"Velocity":49,"Duration":324745,"SoundDuration":324745,"Delta":107828923},{"NoteNumber":73,"Velocity":52,"Duration":974236,"SoundDuration":974236,"Delta":108153669},{"NoteNumber":53,"Velocity":52,"Duration":324745,"SoundDuration":324745,"Delta":108153669},{"NoteNumber":56,"Velocity":46,"Duration":324745,"SoundDuration":324745,"Delta":108478414},{"NoteNumber":61,"Velocity":46,"Duration":324745,"SoundDuration":324745,"Delta":108803160},{"NoteNumber":73,"Velocity":52,"Duration":994159,"SoundDuration":994159,"Delta":109127905},{"NoteNumber":53,"Velocity":52,"Duration":324745,"SoundDuration":324745,"Delta":109127905},{"NoteNumber":56,"Velocity":47,"Duration":324745,"SoundDuration":324745,"Delta":109452651},{"NoteNumber":61,"Velocity":47,"Duration":344668,"SoundDuration":344668,"Delta":109777396},{"NoteNumber":73,"Velocity":46,"Duration":974236,"SoundDuration":974236,"Delta":110122065},{"NoteNumber":52,"Velocity":45,"Duration":324745,"SoundDuration":324745,"Delta":110122065},{"NoteNumber":56,"Velocity":41,"Duration":324745,"SoundDuration":324745,"Delta":110446811},{"NoteNumber":61,"Velocity":41,"Duration":324745,"SoundDuration":324745,"Delta":110771556},{"NoteNumber":73,"Velocity":44,"Duration":974236,"SoundDuration":974236,"Delta":111096302},{"NoteNumber":52,"Velocity":45,"Duration":324745,"SoundDuration":324745,"Delta":111096302},{"NoteNumber":56,"Velocity":41,"Duration":324745,"SoundDuration":324745,"Delta":111421047},{"NoteNumber":61,"Velocity":41,"Duration":324745,"SoundDuration":324745,"Delta":111745793},{"NoteNumber":73,"Velocity":44,"Duration":811863,"SoundDuration":811863,"Delta":112070538},{"NoteNumber":52,"Velocity":45,"Duration":324745,"SoundDuration":324745,"Delta":112070538},{"NoteNumber":56,"Velocity":46,"Duration":324745,"SoundDuration":324745,"Delta":112395284},{"NoteNumber":61,"Velocity":52,"Duration":335682,"SoundDuration":335682,"Delta":112720029},{"NoteNumber":73,"Velocity":35,"Duration":173310,"SoundDuration":173310,"Delta":112882402},{"NoteNumber":76,"Velocity":60,"Duration":649490,"SoundDuration":649490,"Delta":113055712},{"NoteNumber":51,"Velocity":52,"Duration":324745,"SoundDuration":324745,"Delta":113055712},{"NoteNumber":55,"Velocity":52,"Duration":324745,"SoundDuration":324745,"Delta":113380458},{"NoteNumber":75,"Velocity":52,"Duration":324599,"SoundDuration":324599,"Delta":113705203},{"NoteNumber":61,"Velocity":50,"Duration":324599,"SoundDuration":324599,"Delta":113705203},{"NoteNumber":75,"Velocity":51,"Duration":325810,"SoundDuration":325810,"Delta":114029803},{"NoteNumber":51,"Velocity":50,"Duration":325810,"SoundDuration":325810,"Delta":114029803},{"NoteNumber":75,"Velocity":50,"Duration":335061,"SoundDuration":335061,"Delta":114355614},{"NoteNumber":55,"Velocity":49,"Duration":335061,"SoundDuration":335061,"Delta":114355614},{"NoteNumber":75,"Velocity":49,"Duration":344686,"SoundDuration":344686,"Delta":114690675},{"NoteNumber":61,"Velocity":48,"Duration":344686,"SoundDuration":344686,"Delta":114690675},{"NoteNumber":75,"Velocity":48,"Duration":355230,"SoundDuration":355230,"Delta":115035361},{"NoteNumber":51,"Velocity":48,"Duration":355230,"SoundDuration":355230,"Delta":115035361},{"NoteNumber":75,"Velocity":48,"Duration":366067,"SoundDuration":366067,"Delta":115390592},{"NoteNumber":55,"Velocity":48,"Duration":366067,"SoundDuration":366067,"Delta":115390592},{"NoteNumber":75,"Velocity":47,"Duration":377988,"SoundDuration":377988,"Delta":115756660},{"NoteNumber":61,"Velocity":47,"Duration":377988,"SoundDuration":377988,"Delta":115756660},{"NoteNumber":75,"Velocity":46,"Duration":3704274,"SoundDuration":3704274,"Delta":116134648},{"NoteNumber":51,"Velocity":45,"Duration":3704274,"SoundDuration":3704274,"Delta":116134648},{"NoteNumber":55,"Velocity":45,"Duration":3704274,"SoundDuration":3704274,"Delta":116134648},{"NoteNumber":58,"Velocity":40,"Duration":505909,"SoundDuration":505909,"Delta":116555211},{"NoteNumber":60,"Velocity":36,"Duration":634946,"SoundDuration":634946,"Delta":117061120},{"NoteNumber":61,"Velocity":31,"Duration":2142856,"SoundDuration":2142856,"Delta":117696066},{"NoteNumber":72,"Velocity":43,"Duration":626778,"SoundDuration":626778,"Delta":119838923},{"NoteNumber":60,"Velocity":37,"Duration":626778,"SoundDuration":626778,"Delta":119838923},{"NoteNumber":68,"Velocity":37,"Duration":626778,"SoundDuration":626778,"Delta":119838923},{"NoteNumber":44,"Velocity":30,"Duration":626778,"SoundDuration":626778,"Delta":119838923},{"NoteNumber":51,"Velocity":36,"Duration":609838,"SoundDuration":609838,"Delta":119838923},{"NoteNumber":73,"Velocity":43,"Duration":224231,"SoundDuration":224231,"Delta":120448761},{"NoteNumber":61,"Velocity":37,"Duration":224231,"SoundDuration":224231,"Delta":120448761},{"NoteNumber":67,"Velocity":37,"Duration":224231,"SoundDuration":224231,"Delta":120448761},{"NoteNumber":51,"Velocity":36,"Duration":203279,"SoundDuration":203279,"Delta":120448761},{"NoteNumber":46,"Velocity":30,"Duration":224231,"SoundDuration":224231,"Delta":120448761},{"NoteNumber":72,"Velocity":43,"Duration":501635,"SoundDuration":501635,"Delta":120652041},{"NoteNumber":60,"Velocity":37,"Duration":501635,"SoundDuration":501635,"Delta":120652041},{"NoteNumber":68,"Velocity":37,"Duration":501635,"SoundDuration":501635,"Delta":120652041},{"NoteNumber":44,"Velocity":30,"Duration":501635,"SoundDuration":501635,"Delta":120652041},{"NoteNumber":51,"Velocity":36,"Duration":501635,"SoundDuration":501635,"Delta":120652041},{"NoteNumber":61,"Velocity":30,"Duration":2449055,"SoundDuration":2449055,"Delta":121153676},{"NoteNumber":67,"Velocity":30,"Duration":2449055,"SoundDuration":2449055,"Delta":121153676},{"NoteNumber":73,"Velocity":34,"Duration":2449055,"SoundDuration":2449055,"Delta":121153676},{"NoteNumber":51,"Velocity":27,"Duration":2449055,"SoundDuration":2449055,"Delta":121153676},{"NoteNumber":46,"Velocity":23,"Duration":2449055,"SoundDuration":2449055,"Delta":121153676},{"NoteNumber":60,"Velocity":37,"Duration":627714,"SoundDuration":627714,"Delta":123602732},{"NoteNumber":72,"Velocity":43,"Duration":627714,"SoundDuration":627714,"Delta":123602732},{"NoteNumber":68,"Velocity":37,"Duration":627714,"SoundDuration":627714,"Delta":123602732},{"NoteNumber":44,"Velocity":30,"Duration":627714,"SoundDuration":627714,"Delta":123602732},{"NoteNumber":51,"Velocity":36,"Duration":610748,"SoundDuration":610748,"Delta":123602732},{"NoteNumber":67,"Velocity":37,"Duration":225644,"SoundDuration":225644,"Delta":124213481},{"NoteNumber":61,"Velocity":37,"Duration":225644,"SoundDuration":225644,"Delta":124213481},{"NoteNumber":73,"Velocity":43,"Duration":225644,"SoundDuration":225644,"Delta":124213481},{"NoteNumber":51,"Velocity":36,"Duration":203582,"SoundDuration":203582,"Delta":124213481},{"NoteNumber":46,"Velocity":30,"Duration":225644,"SoundDuration":225644,"Delta":124213481},{"NoteNumber":68,"Velocity":37,"Duration":529473,"SoundDuration":529473,"Delta":124417064},{"NoteNumber":60,"Velocity":37,"Duration":529473,"SoundDuration":529473,"Delta":124417064},{"NoteNumber":72,"Velocity":43,"Duration":529473,"SoundDuration":529473,"Delta":124417064},{"NoteNumber":44,"Velocity":30,"Duration":529473,"SoundDuration":529473,"Delta":124417064},{"NoteNumber":51,"Velocity":36,"Duration":529473,"SoundDuration":529473,"Delta":124417064},{"NoteNumber":67,"Velocity":31,"Duration":2447072,"SoundDuration":2447072,"Delta":124946538},{"NoteNumber":70,"Velocity":35,"Duration":2447072,"SoundDuration":2447072,"Delta":124946538},{"NoteNumber":58,"Velocity":31,"Duration":2447072,"SoundDuration":2447072,"Delta":124946538},{"NoteNumber":39,"Velocity":22,"Duration":2447072,"SoundDuration":2447072,"Delta":124946538},{"NoteNumber":51,"Velocity":27,"Duration":2447072,"SoundDuration":2447072,"Delta":124946538},{"NoteNumber":72,"Velocity":46,"Duration":627714,"SoundDuration":627714,"Delta":127393611},{"NoteNumber":60,"Velocity":42,"Duration":627714,"SoundDuration":627714,"Delta":127393611},{"NoteNumber":68,"Velocity":42,"Duration":627714,"SoundDuration":627714,"Delta":127393611},{"NoteNumber":51,"Velocity":39,"Duration":610748,"SoundDuration":610748,"Delta":127393611},{"NoteNumber":44,"Velocity":33,"Duration":627714,"SoundDuration":627714,"Delta":127393611},{"NoteNumber":73,"Velocity":46,"Duration":220548,"SoundDuration":220548,"Delta":128004360},{"NoteNumber":61,"Velocity":42,"Duration":220548,"SoundDuration":220548,"Delta":128004360},{"NoteNumber":67,"Velocity":42,"Duration":220548,"SoundDuration":220548,"Delta":128004360},{"NoteNumber":46,"Velocity":33,"Duration":220548,"SoundDuration":220548,"Delta":128004360},{"NoteNumber":51,"Velocity":39,"Duration":203583,"SoundDuration":203583,"Delta":128004360},{"NoteNumber":60,"Velocity":42,"Duration":407165,"SoundDuration":407165,"Delta":128207943},{"NoteNumber":68,"Velocity":42,"Duration":407165,"SoundDuration":407165,"Delta":128207943},{"NoteNumber":72,"Velocity":46,"Duration":407165,"SoundDuration":407165,"Delta":128207943},{"NoteNumber":51,"Velocity":39,"Duration":407165,"SoundDuration":407165,"Delta":128207943},{"NoteNumber":44,"Velocity":33,"Duration":407165,"SoundDuration":407165,"Delta":128207943},{"NoteNumber":60,"Velocity":36,"Duration":627714,"SoundDuration":627714,"Delta":128615109},{"NoteNumber":72,"Velocity":42,"Duration":627714,"SoundDuration":627714,"Delta":128615109},{"NoteNumber":68,"Velocity":36,"Duration":610748,"SoundDuration":610748,"Delta":128615109},{"NoteNumber":44,"Velocity":29,"Duration":627714,"SoundDuration":627714,"Delta":128615109},{"NoteNumber":51,"Velocity":35,"Duration":610748,"SoundDuration":610748,"Delta":128615109},{"NoteNumber":68,"Velocity":49,"Duration":220548,"SoundDuration":220548,"Delta":129225858},{"NoteNumber":65,"Velocity":49,"Duration":220548,"SoundDuration":220548,"Delta":129225858},{"NoteNumber":77,"Velocity":56,"Duration":220548,"SoundDuration":220548,"Delta":129225858},{"NoteNumber":51,"Velocity":44,"Duration":203583,"SoundDuration":203583,"Delta":129225858},{"NoteNumber":49,"Velocity":37,"Duration":220548,"SoundDuration":220548,"Delta":129225858},{"NoteNumber":75,"Velocity":59,"Duration":504694,"SoundDuration":504694,"Delta":129429441},{"NoteNumber":63,"Velocity":51,"Duration":504694,"SoundDuration":504694,"Delta":129429441},{"NoteNumber":68,"Velocity":51,"Duration":504694,"SoundDuration":504694,"Delta":129429441},{"NoteNumber":48,"Velocity":39,"Duration":504694,"SoundDuration":504694,"Delta":129429441},{"NoteNumber":51,"Velocity":48,"Duration":504694,"SoundDuration":504694,"Delta":129429441},{"NoteNumber":68,"Velocity":58,"Duration":1021816,"SoundDuration":1021816,"Delta":129934135},{"NoteNumber":75,"Velocity":64,"Duration":1021816,"SoundDuration":1021816,"Delta":129934135},{"NoteNumber":63,"Velocity":58,"Duration":1021816,"SoundDuration":1021816,"Delta":129934135},{"NoteNumber":48,"Velocity":41,"Duration":1225399,"SoundDuration":1225399,"Delta":129934135},{"NoteNumber":51,"Velocity":49,"Duration":1225399,"SoundDuration":1225399,"Delta":129934135},{"NoteNumber":63,"Velocity":37,"Duration":203583,"SoundDuration":203583,"Delta":130955952},{"NoteNumber":75,"Velocity":37,"Duration":203583,"SoundDuration":203583,"Delta":130955952},{"NoteNumber":67,"Velocity":37,"Duration":1017914,"SoundDuration":1017914,"Delta":131159535},{"NoteNumber":73,"Velocity":43,"Duration":1017914,"SoundDuration":1017914,"Delta":131159535},{"NoteNumber":61,"Velocity":37,"Duration":1017914,"SoundDuration":1017914,"Delta":131159535},{"NoteNumber":51,"Velocity":33,"Duration":1017914,"SoundDuration":1017914,"Delta":131159535},{"NoteNumber":46,"Velocity":27,"Duration":1017914,"SoundDuration":1017914,"Delta":131159535},{"NoteNumber":68,"Velocity":27,"Duration":258199,"SoundDuration":258199,"Delta":132177450},{"NoteNumber":60,"Velocity":27,"Duration":258199,"SoundDuration":258199,"Delta":132177450},{"NoteNumber":72,"Velocity":31,"Duration":258199,"SoundDuration":258199,"Delta":132177450},{"NoteNumber":44,"Velocity":21,"Duration":258199,"SoundDuration":258199,"Delta":132177450},{"NoteNumber":51,"Velocity":26,"Duration":258199,"SoundDuration":258199,"Delta":132177450},{"NoteNumber":68,"Velocity":27,"Duration":2442995,"SoundDuration":2442995,"Delta":132435649},{"NoteNumber":60,"Velocity":27,"Duration":2442995,"SoundDuration":2442995,"Delta":132435649},{"NoteNumber":72,"Velocity":31,"Duration":2442995,"SoundDuration":2442995,"Delta":132435649},{"NoteNumber":51,"Velocity":26,"Duration":2442995,"SoundDuration":2442995,"Delta":132435649},{"NoteNumber":44,"Velocity":21,"Duration":2442995,"SoundDuration":2442995,"Delta":132435649},{"NoteNumber":67,"Velocity":39,"Duration":627714,"SoundDuration":627714,"Delta":134878645},{"NoteNumber":70,"Velocity":44,"Duration":627714,"SoundDuration":627714,"Delta":134878645},{"NoteNumber":58,"Velocity":39,"Duration":627714,"SoundDuration":627714,"Delta":134878645},{"NoteNumber":39,"Velocity":30,"Duration":627714,"SoundDuration":627714,"Delta":134878645},{"NoteNumber":51,"Velocity":36,"Duration":610748,"SoundDuration":610748,"Delta":134878645},{"NoteNumber":68,"Velocity":39,"Duration":220548,"SoundDuration":220548,"Delta":135489394},{"NoteNumber":59,"Velocity":39,"Duration":220548,"SoundDuration":220548,"Delta":135489394},{"NoteNumber":71,"Velocity":44,"Duration":220548,"SoundDuration":220548,"Delta":135489394},{"NoteNumber":51,"Velocity":37,"Duration":203583,"SoundDuration":203583,"Delta":135489394},{"NoteNumber":44,"Velocity":31,"Duration":220548,"SoundDuration":220548,"Delta":135489394},{"NoteNumber":70,"Velocity":44,"Duration":407165,"SoundDuration":407165,"Delta":135692977},{"NoteNumber":58,"Velocity":39,"Duration":407165,"SoundDuration":407165,"Delta":135692977},{"NoteNumber":67,"Velocity":39,"Duration":407165,"SoundDuration":407165,"Delta":135692977},{"NoteNumber":39,"Velocity":31,"Duration":407165,"SoundDuration":407165,"Delta":135692977},{"NoteNumber":51,"Velocity":37,"Duration":407165,"SoundDuration":407165,"Delta":135692977},{"NoteNumber":58,"Velocity":39,"Duration":627714,"SoundDuration":627714,"Delta":136100143},{"NoteNumber":67,"Velocity":39,"Duration":627714,"SoundDuration":627714,"Delta":136100143},{"NoteNumber":70,"Velocity":44,"Duration":627714,"SoundDuration":627714,"Delta":136100143},{"NoteNumber":51,"Velocity":37,"Duration":610748,"SoundDuration":610748,"Delta":136100143},{"NoteNumber":39,"Velocity":31,"Duration":627714,"SoundDuration":627714,"Delta":136100143},{"NoteNumber":59,"Velocity":39,"Duration":225644,"SoundDuration":225644,"Delta":136710892},{"NoteNumber":68,"Velocity":39,"Duration":225644,"SoundDuration":225644,"Delta":136710892},{"NoteNumber":71,"Velocity":44,"Duration":225644,"SoundDuration":225644,"Delta":136710892},{"NoteNumber":44,"Velocity":30,"Duration":225644,"SoundDuration":225644,"Delta":136710892},{"NoteNumber":51,"Velocity":36,"Duration":203583,"SoundDuration":203583,"Delta":136710892},{"NoteNumber":67,"Velocity":39,"Duration":529473,"SoundDuration":529473,"Delta":136914475},{"NoteNumber":58,"Velocity":39,"Duration":529473,"SoundDuration":529473,"Delta":136914475},{"NoteNumber":70,"Velocity":44,"Duration":529473,"SoundDuration":529473,"Delta":136914475},{"NoteNumber":51,"Velocity":36,"Duration":529473,"SoundDuration":529473,"Delta":136914475},{"NoteNumber":39,"Velocity":30,"Duration":529473,"SoundDuration":529473,"Delta":136914475},{"NoteNumber":68,"Velocity":62,"Duration":3664493,"SoundDuration":3664493,"Delta":137443949},{"NoteNumber":71,"Velocity":69,"Duration":3664493,"SoundDuration":3664493,"Delta":137443949},{"NoteNumber":65,"Velocity":62,"Duration":2442995,"SoundDuration":2442995,"Delta":137443949},{"NoteNumber":38,"Velocity":49,"Duration":2442995,"SoundDuration":2442995,"Delta":137443949},{"NoteNumber":50,"Velocity":58,"Duration":2442995,"SoundDuration":2442995,"Delta":137443949},{"NoteNumber":63,"Velocity":30,"Duration":1628664,"SoundDuration":1628664,"Delta":139886945},{"NoteNumber":39,"Velocity":24,"Duration":1628664,"SoundDuration":1628664,"Delta":139886945},{"NoteNumber":51,"Velocity":29,"Duration":1628664,"SoundDuration":1628664,"Delta":139886945},{"NoteNumber":70,"Velocity":24,"Duration":407166,"SoundDuration":407166,"Delta":141108443},{"NoteNumber":67,"Velocity":24,"Duration":407166,"SoundDuration":407166,"Delta":141108443},{"NoteNumber":66,"Velocity":47,"Duration":814332,"SoundDuration":814332,"Delta":142329941},{"NoteNumber":71,"Velocity":52,"Duration":627714,"SoundDuration":627714,"Delta":142329941},{"NoteNumber":63,"Velocity":47,"Duration":814332,"SoundDuration":814332,"Delta":142329941},{"NoteNumber":73,"Velocity":53,"Duration":203583,"SoundDuration":203583,"Delta":142940690},{"NoteNumber":63,"Velocity":48,"Duration":407166,"SoundDuration":407166,"Delta":143144273},{"NoteNumber":66,"Velocity":48,"Duration":407166,"SoundDuration":407166,"Delta":143144273},{"NoteNumber":71,"Velocity":53,"Duration":407166,"SoundDuration":407166,"Delta":143144273},{"NoteNumber":51,"Velocity":45,"Duration":407166,"SoundDuration":407166,"Delta":143144273},{"NoteNumber":65,"Velocity":48,"Duration":1221497,"SoundDuration":1221497,"Delta":143551439},{"NoteNumber":73,"Velocity":58,"Duration":814331,"SoundDuration":814331,"Delta":143551439},{"NoteNumber":71,"Velocity":48,"Duration":1221497,"SoundDuration":1221497,"Delta":143551439},{"NoteNumber":56,"Velocity":44,"Duration":627714,"SoundDuration":627714,"Delta":143551439},{"NoteNumber":58,"Velocity":44,"Duration":203582,"SoundDuration":203582,"Delta":144162188},{"NoteNumber":74,"Velocity":61,"Duration":407166,"SoundDuration":407166,"Delta":144365771},{"NoteNumber":56,"Velocity":44,"Duration":407166,"SoundDuration":407166,"Delta":144365771},{"NoteNumber":71,"Velocity":49,"Duration":405290,"SoundDuration":405290,"Delta":144772937},{"NoteNumber":75,"Velocity":55,"Duration":405290,"SoundDuration":405290,"Delta":144772937},{"NoteNumber":66,"Velocity":49,"Duration":405290,"SoundDuration":405290,"Delta":144772937},{"NoteNumber":59,"Velocity":44,"Duration":815641,"SoundDuration":815641,"Delta":144772937},{"NoteNumber":57,"Velocity":44,"Duration":405290,"SoundDuration":405290,"Delta":144772937},{"NoteNumber":76,"Velocity":66,"Duration":410350,"SoundDuration":410350,"Delta":145178227},{"NoteNumber":64,"Velocity":59,"Duration":410350,"SoundDuration":410350,"Delta":145178227},{"NoteNumber":71,"Velocity":59,"Duration":410350,"SoundDuration":410350,"Delta":145178227},{"NoteNumber":56,"Velocity":52,"Duration":410350,"SoundDuration":410350,"Delta":145178227},{"NoteNumber":78,"Velocity":70,"Duration":415676,"SoundDuration":415676,"Delta":145588578},{"NoteNumber":66,"Velocity":63,"Duration":415676,"SoundDuration":415676,"Delta":145588578},{"NoteNumber":71,"Velocity":63,"Duration":415676,"SoundDuration":415676,"Delta":145588578},{"NoteNumber":54,"Velocity":60,"Duration":415676,"SoundDuration":415676,"Delta":145588578},{"NoteNumber":63,"Velocity":60,"Duration":415676,"SoundDuration":415676,"Delta":145588578},{"NoteNumber":80,"Velocity":77,"Duration":421514,"SoundDuration":421514,"Delta":146004255},{"NoteNumber":68,"Velocity":61,"Duration":848888,"SoundDuration":848888,"Delta":146004255},{"NoteNumber":71,"Velocity":68,"Duration":848888,"SoundDuration":848888,"Delta":146004255},{"NoteNumber":64,"Velocity":64,"Duration":848888,"SoundDuration":848888,"Delta":146004255},{"NoteNumber":52,"Velocity":64,"Duration":421514,"SoundDuration":421514,"Delta":146004255},{"NoteNumber":76,"Velocity":66,"Duration":427373,"SoundDuration":427373,"Delta":146425770},{"NoteNumber":56,"Velocity":58,"Duration":427373,"SoundDuration":427373,"Delta":146425770},{"NoteNumber":68,"Velocity":51,"Duration":525397,"SoundDuration":525397,"Delta":146853143},{"NoteNumber":75,"Velocity":59,"Duration":525397,"SoundDuration":525397,"Delta":146853143},{"NoteNumber":65,"Velocity":51,"Duration":525397,"SoundDuration":525397,"Delta":146853143},{"NoteNumber":63,"Velocity":48,"Duration":525397,"SoundDuration":525397,"Delta":146853143},{"NoteNumber":59,"Velocity":48,"Duration":525397,"SoundDuration":525397,"Delta":146853143},{"NoteNumber":66,"Velocity":47,"Duration":1765317,"SoundDuration":1765317,"Delta":147378540},{"NoteNumber":71,"Velocity":47,"Duration":1333662,"SoundDuration":1333662,"Delta":147378540},{"NoteNumber":75,"Velocity":52,"Duration":1333662,"SoundDuration":1333662,"Delta":147378540},{"NoteNumber":63,"Velocity":41,"Duration":1333662,"SoundDuration":1333662,"Delta":147378540},{"NoteNumber":59,"Velocity":34,"Duration":1333662,"SoundDuration":1333662,"Delta":147378540},{"NoteNumber":54,"Velocity":34,"Duration":1765317,"SoundDuration":1765317,"Delta":147378540},{"NoteNumber":70,"Velocity":30,"Duration":431654,"SoundDuration":431654,"Delta":148712203},{"NoteNumber":73,"Velocity":35,"Duration":431654,"SoundDuration":431654,"Delta":148712203},{"NoteNumber":58,"Velocity":29,"Duration":431654,"SoundDuration":431654,"Delta":148712203},{"NoteNumber":61,"Velocity":29,"Duration":431654,"SoundDuration":431654,"Delta":148712203},{"NoteNumber":71,"Velocity":29,"Duration":833333,"SoundDuration":833333,"Delta":149992178},{"NoteNumber":80,"Velocity":34,"Duration":416666,"SoundDuration":416666,"Delta":149992178},{"NoteNumber":68,"Velocity":29,"Duration":833333,"SoundDuration":833333,"Delta":149992178},{"NoteNumber":64,"Velocity":29,"Duration":833333,"SoundDuration":833333,"Delta":149992178},{"NoteNumber":52,"Velocity":29,"Duration":416666,"SoundDuration":416666,"Delta":149992178},{"NoteNumber":76,"Velocity":35,"Duration":416666,"SoundDuration":416666,"Delta":150408845},{"NoteNumber":56,"Velocity":29,"Duration":416666,"SoundDuration":416666,"Delta":150408845},{"NoteNumber":68,"Velocity":30,"Duration":534759,"SoundDuration":534759,"Delta":150825511},{"NoteNumber":65,"Velocity":30,"Duration":534759,"SoundDuration":534759,"Delta":150825511},{"NoteNumber":75,"Velocity":35,"Duration":534759,"SoundDuration":534759,"Delta":150825511},{"NoteNumber":59,"Velocity":30,"Duration":534759,"SoundDuration":534759,"Delta":150825511},{"NoteNumber":63,"Velocity":30,"Duration":534759,"SoundDuration":534759,"Delta":150825511},{"NoteNumber":71,"Velocity":31,"Duration":1304765,"SoundDuration":1304765,"Delta":151360271},{"NoteNumber":75,"Velocity":36,"Duration":1304765,"SoundDuration":1304765,"Delta":151360271},{"NoteNumber":66,"Velocity":31,"Duration":1711931,"SoundDuration":1711931,"Delta":151360271},{"NoteNumber":54,"Velocity":25,"Duration":1711931,"SoundDuration":1711931,"Delta":151360271},{"NoteNumber":59,"Velocity":25,"Duration":1304765,"SoundDuration":1304765,"Delta":151360271},{"NoteNumber":63,"Velocity":30,"Duration":1304765,"SoundDuration":1304765,"Delta":151360271},{"NoteNumber":70,"Velocity":26,"Duration":407166,"SoundDuration":407166,"Delta":152665036},{"NoteNumber":73,"Velocity":29,"Duration":407166,"SoundDuration":407166,"Delta":152665036},{"NoteNumber":58,"Velocity":24,"Duration":407166,"SoundDuration":407166,"Delta":152665036},{"NoteNumber":61,"Velocity":24,"Duration":407166,"SoundDuration":407166,"Delta":152665036},{"NoteNumber":73,"Velocity":53,"Duration":627714,"SoundDuration":627714,"Delta":153886534},{"NoteNumber":63,"Velocity":48,"Duration":1221498,"SoundDuration":1221498,"Delta":153886534},{"NoteNumber":51,"Velocity":44,"Duration":1221498,"SoundDuration":1221498,"Delta":153886534},{"NoteNumber":43,"Velocity":44,"Duration":1221498,"SoundDuration":1221498,"Delta":153886534},{"NoteNumber":75,"Velocity":52,"Duration":203582,"SoundDuration":203582,"Delta":154497283},{"NoteNumber":70,"Velocity":52,"Duration":407166,"SoundDuration":407166,"Delta":154700866},{"NoteNumber":73,"Velocity":52,"Duration":1221497,"SoundDuration":1221497,"Delta":155108032},{"NoteNumber":63,"Velocity":47,"Duration":2442995,"SoundDuration":2442995,"Delta":155108032},{"NoteNumber":44,"Velocity":44,"Duration":2035829,"SoundDuration":2035829,"Delta":155108032},{"NoteNumber":51,"Velocity":44,"Duration":2442995,"SoundDuration":2442995,"Delta":155108032},{"NoteNumber":72,"Velocity":55,"Duration":814331,"SoundDuration":814331,"Delta":156329530},{"NoteNumber":73,"Velocity":69,"Duration":407166,"SoundDuration":407166,"Delta":157143862},{"NoteNumber":46,"Velocity":57,"Duration":407166,"SoundDuration":407166,"Delta":157143862},{"NoteNumber":75,"Velocity":75,"Duration":409715,"SoundDuration":409715,"Delta":157551028},{"NoteNumber":63,"Velocity":66,"Duration":409715,"SoundDuration":409715,"Delta":157551028},{"NoteNumber":48,"Velocity":66,"Duration":409715,"SoundDuration":409715,"Delta":157551028},{"NoteNumber":51,"Velocity":66,"Duration":1271978,"SoundDuration":1271978,"Delta":157551028},{"NoteNumber":73,"Velocity":63,"Duration":417422,"SoundDuration":417422,"Delta":157960744},{"NoteNumber":67,"Velocity":57,"Duration":417422,"SoundDuration":417422,"Delta":157960744},{"NoteNumber":46,"Velocity":56,"Duration":417422,"SoundDuration":417422,"Delta":157960744},{"NoteNumber":68,"Velocity":50,"Duration":444839,"SoundDuration":444839,"Delta":158378167},{"NoteNumber":72,"Velocity":57,"Duration":444839,"SoundDuration":444839,"Delta":158378167},{"NoteNumber":44,"Velocity":49,"Duration":444839,"SoundDuration":444839,"Delta":158378167},{"NoteNumber":65,"Velocity":47,"Duration":875523,"SoundDuration":875523,"Delta":158823007},{"NoteNumber":72,"Velocity":52,"Duration":437381,"SoundDuration":437381,"Delta":158823007},{"NoteNumber":49,"Velocity":46,"Duration":1335716,"SoundDuration":1335716,"Delta":158823007},{"NoteNumber":70,"Velocity":52,"Duration":438141,"SoundDuration":438141,"Delta":159260388},{"NoteNumber":73,"Velocity":52,"Duration":460193,"SoundDuration":460193,"Delta":159698530},{"NoteNumber":64,"Velocity":47,"Duration":460193,"SoundDuration":460193,"Delta":159698530},{"NoteNumber":58,"Velocity":37,"Duration":460193,"SoundDuration":460193,"Delta":159698530},{"NoteNumber":68,"Velocity":45,"Duration":1019682,"SoundDuration":1019682,"Delta":160158724},{"NoteNumber":63,"Velocity":39,"Duration":1019682,"SoundDuration":1019682,"Delta":160158724},{"NoteNumber":51,"Velocity":39,"Duration":1019682,"SoundDuration":1019682,"Delta":160158724},{"NoteNumber":60,"Velocity":39,"Duration":1019682,"SoundDuration":1019682,"Delta":160158724},{"NoteNumber":61,"Velocity":35,"Duration":240615,"SoundDuration":240615,"Delta":161178406},{"NoteNumber":67,"Velocity":39,"Duration":240615,"SoundDuration":240615,"Delta":161178406},{"NoteNumber":58,"Velocity":33,"Duration":240615,"SoundDuration":240615,"Delta":161178406},{"NoteNumber":51,"Velocity":33,"Duration":240615,"SoundDuration":240615,"Delta":161178406},{"NoteNumber":67,"Velocity":39,"Duration":1017914,"SoundDuration":1017914,"Delta":161419022},{"NoteNumber":61,"Velocity":35,"Duration":1017914,"SoundDuration":1017914,"Delta":161419022},{"NoteNumber":58,"Velocity":34,"Duration":1017914,"SoundDuration":1017914,"Delta":161419022},{"NoteNumber":51,"Velocity":34,"Duration":1017914,"SoundDuration":1017914,"Delta":161419022},{"NoteNumber":60,"Velocity":33,"Duration":242796,"SoundDuration":242796,"Delta":162436937},{"NoteNumber":68,"Velocity":37,"Duration":242796,"SoundDuration":242796,"Delta":162436937},{"NoteNumber":44,"Velocity":29,"Duration":242796,"SoundDuration":242796,"Delta":162436937},{"NoteNumber":56,"Velocity":29,"Duration":242796,"SoundDuration":242796,"Delta":162436937},{"NoteNumber":68,"Velocity":37,"Duration":1272037,"SoundDuration":1272037,"Delta":162679734},{"NoteNumber":60,"Velocity":33,"Duration":1272037,"SoundDuration":1272037,"Delta":162679734},{"NoteNumber":56,"Velocity":29,"Duration":833345,"SoundDuration":833345,"Delta":162679734},{"NoteNumber":44,"Velocity":29,"Duration":833345,"SoundDuration":833345,"Delta":162679734},{"NoteNumber":51,"Velocity":24,"Duration":228137,"SoundDuration":228137,"Delta":163723635},{"NoteNumber":51,"Velocity":24,"Duration":3631470,"SoundDuration":3631470,"Delta":163951772},{"NoteNumber":72,"Velocity":35,"Duration":226244,"SoundDuration":226244,"Delta":165004551},{"NoteNumber":60,"Velocity":30,"Duration":226244,"SoundDuration":226244,"Delta":165004551},{"NoteNumber":68,"Velocity":30,"Duration":226244,"SoundDuration":226244,"Delta":165004551},{"NoteNumber":44,"Velocity":29,"Duration":226244,"SoundDuration":226244,"Delta":165004551},{"NoteNumber":60,"Velocity":30,"Duration":649213,"SoundDuration":649213,"Delta":165230795},{"NoteNumber":68,"Velocity":30,"Duration":649213,"SoundDuration":649213,"Delta":165230795},{"NoteNumber":72,"Velocity":35,"Duration":649213,"SoundDuration":649213,"Delta":165230795},{"NoteNumber":44,"Velocity":29,"Duration":649213,"SoundDuration":649213,"Delta":165230795},{"NoteNumber":61,"Velocity":30,"Duration":230739,"SoundDuration":230739,"Delta":165862462},{"NoteNumber":73,"Velocity":35,"Duration":230739,"SoundDuration":230739,"Delta":165862462},{"NoteNumber":67,"Velocity":30,"Duration":230739,"SoundDuration":230739,"Delta":165862462},{"NoteNumber":46,"Velocity":29,"Duration":230739,"SoundDuration":230739,"Delta":165862462},{"NoteNumber":68,"Velocity":30,"Duration":456274,"SoundDuration":456274,"Delta":166074190},{"NoteNumber":60,"Velocity":30,"Duration":456274,"SoundDuration":456274,"Delta":166074190},{"NoteNumber":72,"Velocity":35,"Duration":456274,"SoundDuration":456274,"Delta":166074190},{"NoteNumber":44,"Velocity":29,"Duration":456274,"SoundDuration":456274,"Delta":166074190},{"NoteNumber":67,"Velocity":27,"Duration":2335583,"SoundDuration":2335583,"Delta":166530464},{"NoteNumber":61,"Velocity":27,"Duration":2335583,"SoundDuration":2335583,"Delta":166530464},{"NoteNumber":73,"Velocity":30,"Duration":2335583,"SoundDuration":2335583,"Delta":166530464},{"NoteNumber":46,"Velocity":25,"Duration":2335583,"SoundDuration":2335583,"Delta":166530464},{"NoteNumber":51,"Velocity":25,"Duration":230026,"SoundDuration":230026,"Delta":167583243},{"NoteNumber":51,"Velocity":25,"Duration":3420788,"SoundDuration":3420788,"Delta":167813269},{"NoteNumber":67,"Velocity":30,"Duration":226244,"SoundDuration":226244,"Delta":168866048},{"NoteNumber":70,"Velocity":35,"Duration":226244,"SoundDuration":226244,"Delta":168866048},{"NoteNumber":58,"Velocity":30,"Duration":226244,"SoundDuration":226244,"Delta":168866048},{"NoteNumber":39,"Velocity":29,"Duration":226244,"SoundDuration":226244,"Delta":168866048},{"NoteNumber":70,"Velocity":35,"Duration":650259,"SoundDuration":650259,"Delta":169092292},{"NoteNumber":58,"Velocity":30,"Duration":650259,"SoundDuration":650259,"Delta":169092292},{"NoteNumber":67,"Velocity":30,"Duration":650259,"SoundDuration":650259,"Delta":169092292},{"NoteNumber":39,"Velocity":29,"Duration":650259,"SoundDuration":650259,"Delta":169092292},{"NoteNumber":72,"Velocity":35,"Duration":230739,"SoundDuration":230739,"Delta":169725005},{"NoteNumber":60,"Velocity":30,"Duration":230739,"SoundDuration":230739,"Delta":169725005},{"NoteNumber":68,"Velocity":30,"Duration":230739,"SoundDuration":230739,"Delta":169725005},{"NoteNumber":44,"Velocity":29,"Duration":230739,"SoundDuration":230739,"Delta":169725005},{"NoteNumber":58,"Velocity":30,"Duration":455101,"SoundDuration":455101,"Delta":169936733},{"NoteNumber":67,"Velocity":30,"Duration":455101,"SoundDuration":455101,"Delta":169936733},{"NoteNumber":70,"Velocity":35,"Duration":455101,"SoundDuration":455101,"Delta":169936733},{"NoteNumber":39,"Velocity":29,"Duration":455101,"SoundDuration":455101,"Delta":169936733},{"NoteNumber":60,"Velocity":27,"Duration":2349976,"SoundDuration":2349976,"Delta":170391835},{"NoteNumber":72,"Velocity":30,"Duration":2349976,"SoundDuration":2349976,"Delta":170391835},{"NoteNumber":68,"Velocity":27,"Duration":2349976,"SoundDuration":2349976,"Delta":170391835},{"NoteNumber":44,"Velocity":24,"Duration":2349976,"SoundDuration":2349976,"Delta":170391835},{"NoteNumber":51,"Velocity":25,"Duration":244418,"SoundDuration":244418,"Delta":171444614},{"NoteNumber":51,"Velocity":25,"Duration":3888692,"SoundDuration":3888692,"Delta":171689033},{"NoteNumber":63,"Velocity":35,"Duration":226244,"SoundDuration":226244,"Delta":172741811},{"NoteNumber":48,"Velocity":29,"Duration":226244,"SoundDuration":226244,"Delta":172741811},{"NoteNumber":63,"Velocity":35,"Duration":652826,"SoundDuration":652826,"Delta":172968056},{"NoteNumber":48,"Velocity":29,"Duration":652826,"SoundDuration":652826,"Delta":172968056},{"NoteNumber":65,"Velocity":42,"Duration":231961,"SoundDuration":231961,"Delta":173603058},{"NoteNumber":49,"Velocity":28,"Duration":231961,"SoundDuration":231961,"Delta":173603058},{"NoteNumber":63,"Velocity":44,"Duration":432355,"SoundDuration":432355,"Delta":173817057},{"NoteNumber":48,"Velocity":30,"Duration":432355,"SoundDuration":432355,"Delta":173817057},{"NoteNumber":65,"Velocity":45,"Duration":676350,"SoundDuration":676350,"Delta":174249413},{"NoteNumber":49,"Velocity":36,"Duration":676350,"SoundDuration":676350,"Delta":174249413},{"NoteNumber":63,"Velocity":44,"Duration":222198,"SoundDuration":222198,"Delta":174907365},{"NoteNumber":48,"Velocity":37,"Duration":222198,"SoundDuration":222198,"Delta":174907365},{"NoteNumber":63,"Velocity":44,"Duration":448161,"SoundDuration":448161,"Delta":175129563},{"NoteNumber":48,"Velocity":37,"Duration":448161,"SoundDuration":448161,"Delta":175129563},{"NoteNumber":68,"Velocity":44,"Duration":1263334,"SoundDuration":1263334,"Delta":175577725},{"NoteNumber":60,"Velocity":39,"Duration":1263334,"SoundDuration":1263334,"Delta":175577725},{"NoteNumber":51,"Velocity":37,"Duration":1263334,"SoundDuration":1263334,"Delta":175577725},{"NoteNumber":70,"Velocity":44,"Duration":1056811,"SoundDuration":1056811,"Delta":176841059},{"NoteNumber":61,"Velocity":39,"Duration":1056811,"SoundDuration":1056811,"Delta":176841059},{"NoteNumber":67,"Velocity":39,"Duration":1056811,"SoundDuration":1056811,"Delta":176841059},{"NoteNumber":51,"Velocity":37,"Duration":1056811,"SoundDuration":1056811,"Delta":176841059},{"NoteNumber":39,"Velocity":37,"Duration":1056811,"SoundDuration":1056811,"Delta":176841059},{"NoteNumber":68,"Velocity":35,"Duration":267018,"SoundDuration":267018,"Delta":177897871},{"NoteNumber":60,"Velocity":30,"Duration":267018,"SoundDuration":267018,"Delta":177897871},{"NoteNumber":44,"Velocity":29,"Duration":267018,"SoundDuration":267018,"Delta":177897871},{"NoteNumber":51,"Velocity":29,"Duration":267018,"SoundDuration":267018,"Delta":177897871},{"NoteNumber":68,"Velocity":35,"Duration":1283845,"SoundDuration":1283845,"Delta":178164890},{"NoteNumber":60,"Velocity":30,"Duration":1283845,"SoundDuration":1283845,"Delta":178164890},{"NoteNumber":44,"Velocity":29,"Duration":1283845,"SoundDuration":1283845,"Delta":178164890},{"NoteNumber":51,"Velocity":29,"Duration":1283845,"SoundDuration":1283845,"Delta":178164890},{"NoteNumber":75,"Velocity":29,"Duration":228136,"SoundDuration":228136,"Delta":179220599},{"NoteNumber":75,"Velocity":29,"Duration":3634782,"SoundDuration":3634782,"Delta":179448736},{"NoteNumber":63,"Velocity":30,"Duration":226964,"SoundDuration":226964,"Delta":180502687},{"NoteNumber":68,"Velocity":35,"Duration":226964,"SoundDuration":226964,"Delta":180502687},{"NoteNumber":60,"Velocity":29,"Duration":226964,"SoundDuration":226964,"Delta":180502687},{"NoteNumber":51,"Velocity":29,"Duration":226964,"SoundDuration":226964,"Delta":180502687},{"NoteNumber":68,"Velocity":35,"Duration":649213,"SoundDuration":649213,"Delta":180729652},{"NoteNumber":63,"Velocity":30,"Duration":649213,"SoundDuration":649213,"Delta":180729652},{"NoteNumber":51,"Velocity":37,"Duration":631667,"SoundDuration":631667,"Delta":180729652},{"NoteNumber":60,"Velocity":29,"Duration":649213,"SoundDuration":649213,"Delta":180729652},{"NoteNumber":65,"Velocity":30,"Duration":229724,"SoundDuration":229724,"Delta":181361319},{"NoteNumber":70,"Velocity":35,"Duration":229724,"SoundDuration":229724,"Delta":181361319},{"NoteNumber":61,"Velocity":29,"Duration":229724,"SoundDuration":229724,"Delta":181361319},{"NoteNumber":51,"Velocity":29,"Duration":210555,"SoundDuration":210555,"Delta":181361319},{"NoteNumber":63,"Velocity":30,"Duration":458865,"SoundDuration":458865,"Delta":181571875},{"NoteNumber":68,"Velocity":35,"Duration":458865,"SoundDuration":458865,"Delta":181571875},{"NoteNumber":51,"Velocity":29,"Duration":458865,"SoundDuration":458865,"Delta":181571875},{"NoteNumber":60,"Velocity":29,"Duration":458865,"SoundDuration":458865,"Delta":181571875},{"NoteNumber":70,"Velocity":30,"Duration":2333694,"SoundDuration":2333694,"Delta":182030740},{"NoteNumber":65,"Velocity":27,"Duration":2333694,"SoundDuration":2333694,"Delta":182030740},{"NoteNumber":61,"Velocity":25,"Duration":2333694,"SoundDuration":2333694,"Delta":182030740},{"NoteNumber":51,"Velocity":25,"Duration":2333694,"SoundDuration":2333694,"Delta":182030740},{"NoteNumber":75,"Velocity":27,"Duration":228137,"SoundDuration":228137,"Delta":183083518},{"NoteNumber":75,"Velocity":27,"Duration":3639460,"SoundDuration":3639460,"Delta":183311655},{"NoteNumber":67,"Velocity":35,"Duration":226244,"SoundDuration":226244,"Delta":184364434},{"NoteNumber":61,"Velocity":30,"Duration":226244,"SoundDuration":226244,"Delta":184364434},{"NoteNumber":51,"Velocity":29,"Duration":226244,"SoundDuration":226244,"Delta":184364434},{"NoteNumber":58,"Velocity":29,"Duration":226244,"SoundDuration":226244,"Delta":184364434},{"NoteNumber":61,"Velocity":30,"Duration":649213,"SoundDuration":649213,"Delta":184590678},{"NoteNumber":67,"Velocity":35,"Duration":649213,"SoundDuration":649213,"Delta":184590678},{"NoteNumber":58,"Velocity":29,"Duration":649213,"SoundDuration":649213,"Delta":184590678},{"NoteNumber":51,"Velocity":29,"Duration":631667,"SoundDuration":631667,"Delta":184590678},{"NoteNumber":68,"Velocity":35,"Duration":229409,"SoundDuration":229409,"Delta":185222346},{"NoteNumber":63,"Velocity":30,"Duration":229409,"SoundDuration":229409,"Delta":185222346},{"NoteNumber":60,"Velocity":29,"Duration":229409,"SoundDuration":229409,"Delta":185222346},{"NoteNumber":51,"Velocity":29,"Duration":210555,"SoundDuration":210555,"Delta":185222346},{"NoteNumber":70,"Velocity":35,"Duration":452488,"SoundDuration":452488,"Delta":185432901},{"NoteNumber":65,"Velocity":30,"Duration":452488,"SoundDuration":452488,"Delta":185432901},{"NoteNumber":61,"Velocity":29,"Duration":452488,"SoundDuration":452488,"Delta":185432901},{"NoteNumber":51,"Velocity":29,"Duration":452488,"SoundDuration":452488,"Delta":185432901},{"NoteNumber":68,"Velocity":30,"Duration":2406744,"SoundDuration":2406744,"Delta":185885390},{"NoteNumber":63,"Velocity":27,"Duration":2406744,"SoundDuration":2406744,"Delta":185885390},{"NoteNumber":51,"Velocity":24,"Duration":2406744,"SoundDuration":2406744,"Delta":185885390},{"NoteNumber":60,"Velocity":24,"Duration":2406744,"SoundDuration":2406744,"Delta":185885390},{"NoteNumber":75,"Velocity":39,"Duration":288239,"SoundDuration":288239,"Delta":186951116},{"NoteNumber":75,"Velocity":39,"Duration":3960125,"SoundDuration":3960125,"Delta":187239356},{"NoteNumber":63,"Velocity":35,"Duration":226244,"SoundDuration":226244,"Delta":188292135},{"NoteNumber":51,"Velocity":29,"Duration":226244,"SoundDuration":226244,"Delta":188292135},{"NoteNumber":60,"Velocity":29,"Duration":226244,"SoundDuration":226244,"Delta":188292135},{"NoteNumber":63,"Velocity":35,"Duration":655334,"SoundDuration":655334,"Delta":188518379},{"NoteNumber":51,"Velocity":29,"Duration":637348,"SoundDuration":637348,"Delta":188518379},{"NoteNumber":60,"Velocity":29,"Duration":655334,"SoundDuration":655334,"Delta":188518379},{"NoteNumber":65,"Velocity":42,"Duration":235118,"SoundDuration":235118,"Delta":189155728},{"NoteNumber":51,"Velocity":29,"Duration":216869,"SoundDuration":216869,"Delta":189155728},{"NoteNumber":61,"Velocity":28,"Duration":235118,"SoundDuration":235118,"Delta":189155728},{"NoteNumber":63,"Velocity":44,"Duration":441468,"SoundDuration":441468,"Delta":189372597},{"NoteNumber":60,"Velocity":30,"Duration":441468,"SoundDuration":441468,"Delta":189372597},{"NoteNumber":51,"Velocity":30,"Duration":441468,"SoundDuration":441468,"Delta":189372597},{"NoteNumber":65,"Velocity":39,"Duration":701118,"SoundDuration":701118,"Delta":189814066},{"NoteNumber":68,"Velocity":45,"Duration":701118,"SoundDuration":701118,"Delta":189814066},{"NoteNumber":51,"Velocity":36,"Duration":681887,"SoundDuration":681887,"Delta":189814066},{"NoteNumber":61,"Velocity":36,"Duration":701118,"SoundDuration":701118,"Delta":189814066},{"NoteNumber":63,"Velocity":44,"Duration":232562,"SoundDuration":232562,"Delta":190495954},{"NoteNumber":60,"Velocity":37,"Duration":232562,"SoundDuration":232562,"Delta":190495954},{"NoteNumber":51,"Velocity":37,"Duration":232562,"SoundDuration":232562,"Delta":190495954},{"NoteNumber":63,"Velocity":44,"Duration":470964,"SoundDuration":470964,"Delta":190728517},{"NoteNumber":51,"Velocity":37,"Duration":470964,"SoundDuration":470964,"Delta":190728517},{"NoteNumber":60,"Velocity":37,"Duration":470964,"SoundDuration":470964,"Delta":190728517},{"NoteNumber":72,"Velocity":44,"Duration":1313868,"SoundDuration":1313868,"Delta":191199481},{"NoteNumber":75,"Velocity":51,"Duration":1313868,"SoundDuration":1313868,"Delta":191199481},{"NoteNumber":63,"Velocity":41,"Duration":1313868,"SoundDuration":1313868,"Delta":191199481},{"NoteNumber":51,"Velocity":41,"Duration":1313868,"SoundDuration":1313868,"Delta":191199481},{"NoteNumber":70,"Velocity":45,"Duration":1094889,"SoundDuration":1094889,"Delta":192513349},{"NoteNumber":79,"Velocity":51,"Duration":1094889,"SoundDuration":1094889,"Delta":192513349},{"NoteNumber":75,"Velocity":45,"Duration":1094889,"SoundDuration":1094889,"Delta":192513349},{"NoteNumber":63,"Velocity":42,"Duration":1094889,"SoundDuration":1094889,"Delta":192513349},{"NoteNumber":51,"Velocity":42,"Duration":1094889,"SoundDuration":1094889,"Delta":192513349},{"NoteNumber":61,"Velocity":42,"Duration":1094889,"SoundDuration":1094889,"Delta":192513349},{"NoteNumber":80,"Velocity":49,"Duration":242161,"SoundDuration":242161,"Delta":193608239},{"NoteNumber":68,"Velocity":45,"Duration":242161,"SoundDuration":242161,"Delta":193608239},{"NoteNumber":75,"Velocity":45,"Duration":242161,"SoundDuration":242161,"Delta":193608239},{"NoteNumber":56,"Velocity":34,"Duration":242161,"SoundDuration":242161,"Delta":193608239},{"NoteNumber":63,"Velocity":41,"Duration":242161,"SoundDuration":242161,"Delta":193608239},{"NoteNumber":60,"Velocity":34,"Duration":242161,"SoundDuration":242161,"Delta":193608239},{"NoteNumber":75,"Velocity":45,"Duration":2792222,"SoundDuration":2792222,"Delta":193850401},{"NoteNumber":68,"Velocity":45,"Duration":2792222,"SoundDuration":2792222,"Delta":193850401},{"NoteNumber":80,"Velocity":50,"Duration":2792222,"SoundDuration":2792222,"Delta":193850401},{"NoteNumber":56,"Velocity":34,"Duration":2792222,"SoundDuration":2792222,"Delta":193850401},{"NoteNumber":63,"Velocity":41,"Duration":2792222,"SoundDuration":2792222,"Delta":193850401},{"NoteNumber":60,"Velocity":34,"Duration":2792222,"SoundDuration":2792222,"Delta":193850401},{"NoteNumber":78,"Velocity":70,"Duration":150000,"SoundDuration":150000,"Delta":196642624},{"NoteNumber":81,"Velocity":88,"Duration":150000,"SoundDuration":150000,"Delta":196642624},{"NoteNumber":69,"Velocity":70,"Duration":150000,"SoundDuration":150000,"Delta":196642624},{"NoteNumber":42,"Velocity":73,"Duration":150000,"SoundDuration":150000,"Delta":196642624},{"NoteNumber":81,"Velocity":97,"Duration":900000,"SoundDuration":900000,"Delta":196792624},{"NoteNumber":69,"Velocity":77,"Duration":900000,"SoundDuration":900000,"Delta":196792624},{"NoteNumber":78,"Velocity":77,"Duration":900000,"SoundDuration":900000,"Delta":196792624},{"NoteNumber":42,"Velocity":79,"Duration":150000,"SoundDuration":150000,"Delta":196792624},{"NoteNumber":49,"Velocity":70,"Duration":299999,"SoundDuration":299999,"Delta":197092624},{"NoteNumber":57,"Velocity":67,"Duration":300000,"SoundDuration":300000,"Delta":197392624},{"NoteNumber":78,"Velocity":76,"Duration":900000,"SoundDuration":900000,"Delta":197692624},{"NoteNumber":81,"Velocity":96,"Duration":900000,"SoundDuration":900000,"Delta":197692624},{"NoteNumber":69,"Velocity":76,"Duration":900000,"SoundDuration":900000,"Delta":197692624},{"NoteNumber":42,"Velocity":79,"Duration":150000,"SoundDuration":150000,"Delta":197692624},{"NoteNumber":49,"Velocity":69,"Duration":300000,"SoundDuration":300000,"Delta":197992624},{"NoteNumber":57,"Velocity":66,"Duration":300000,"SoundDuration":300000,"Delta":198292624},{"NoteNumber":82,"Velocity":96,"Duration":935195,"SoundDuration":935195,"Delta":198592624},{"NoteNumber":70,"Velocity":76,"Duration":935195,"SoundDuration":935195,"Delta":198592624},{"NoteNumber":76,"Velocity":76,"Duration":935195,"SoundDuration":935195,"Delta":198592624},{"NoteNumber":42,"Velocity":79,"Duration":149999,"SoundDuration":149999,"Delta":198592624},{"NoteNumber":49,"Velocity":70,"Duration":300000,"SoundDuration":300000,"Delta":198892624},{"NoteNumber":54,"Velocity":66,"Duration":335195,"SoundDuration":335195,"Delta":199192624},{"NoteNumber":83,"Velocity":88,"Duration":2550000,"SoundDuration":2550000,"Delta":199527819},{"NoteNumber":71,"Velocity":70,"Duration":2550000,"SoundDuration":2550000,"Delta":199527819},{"NoteNumber":74,"Velocity":70,"Duration":2550000,"SoundDuration":2550000,"Delta":199527819},{"NoteNumber":42,"Velocity":79,"Duration":150000,"SoundDuration":150000,"Delta":199527819},{"NoteNumber":50,"Velocity":71,"Duration":299999,"SoundDuration":299999,"Delta":199827819},{"NoteNumber":59,"Velocity":68,"Duration":300000,"SoundDuration":300000,"Delta":200127819},{"NoteNumber":42,"Velocity":79,"Duration":150000,"SoundDuration":150000,"Delta":200427819},{"NoteNumber":50,"Velocity":71,"Duration":300000,"SoundDuration":300000,"Delta":200727819},{"NoteNumber":59,"Velocity":68,"Duration":300000,"SoundDuration":300000,"Delta":201027819},{"NoteNumber":42,"Velocity":79,"Duration":149999,"SoundDuration":149999,"Delta":201327819},{"NoteNumber":50,"Velocity":73,"Duration":300000,"SoundDuration":300000,"Delta":201627819},{"NoteNumber":59,"Velocity":68,"Duration":316666,"SoundDuration":316666,"Delta":201927819},{"NoteNumber":74,"Velocity":70,"Duration":166666,"SoundDuration":166666,"Delta":202077819},{"NoteNumber":83,"Velocity":88,"Duration":166666,"SoundDuration":166666,"Delta":202077819},{"NoteNumber":71,"Velocity":70,"Duration":166666,"SoundDuration":166666,"Delta":202077819},{"NoteNumber":73,"Velocity":76,"Duration":750000,"SoundDuration":750000,"Delta":202244486},{"NoteNumber":85,"Velocity":96,"Duration":750000,"SoundDuration":750000,"Delta":202244486},{"NoteNumber":76,"Velocity":76,"Duration":750000,"SoundDuration":750000,"Delta":202244486},{"NoteNumber":42,"Velocity":79,"Duration":150000,"SoundDuration":150000,"Delta":202244486},{"NoteNumber":47,"Velocity":70,"Duration":299999,"SoundDuration":299999,"Delta":202544486},{"NoteNumber":56,"Velocity":72,"Duration":316666,"SoundDuration":316666,"Delta":202844486},{"NoteNumber":74,"Velocity":70,"Duration":166666,"SoundDuration":166666,"Delta":202994486},{"NoteNumber":71,"Velocity":70,"Duration":166666,"SoundDuration":166666,"Delta":202994486},{"NoteNumber":83,"Velocity":88,"Duration":166666,"SoundDuration":166666,"Delta":202994486},{"NoteNumber":74,"Velocity":76,"Duration":750000,"SoundDuration":750000,"Delta":203161153},{"NoteNumber":71,"Velocity":76,"Duration":750000,"SoundDuration":750000,"Delta":203161153},{"NoteNumber":83,"Velocity":96,"Duration":750000,"SoundDuration":750000,"Delta":203161153},{"NoteNumber":42,"Velocity":79,"Duration":150000,"SoundDuration":150000,"Delta":203161153},{"NoteNumber":49,"Velocity":71,"Duration":299999,"SoundDuration":299999,"Delta":203461153},{"NoteNumber":57,"Velocity":73,"Duration":317597,"SoundDuration":317597,"Delta":203761153},{"NoteNumber":73,"Velocity":70,"Duration":167597,"SoundDuration":167597,"Delta":203911153},{"NoteNumber":81,"Velocity":88,"Duration":167597,"SoundDuration":167597,"Delta":203911153},{"NoteNumber":69,"Velocity":70,"Duration":167597,"SoundDuration":167597,"Delta":203911153},{"NoteNumber":81,"Velocity":96,"Duration":762500,"SoundDuration":762500,"Delta":204078750},{"NoteNumber":69,"Velocity":76,"Duration":762500,"SoundDuration":762500,"Delta":204078750},{"NoteNumber":73,"Velocity":76,"Duration":762500,"SoundDuration":762500,"Delta":204078750},{"NoteNumber":42,"Velocity":79,"Duration":150000,"SoundDuration":150000,"Delta":204078750},{"NoteNumber":50,"Velocity":70,"Duration":299999,"SoundDuration":299999,"Delta":204378750},{"NoteNumber":59,"Velocity":72,"Duration":349999,"SoundDuration":349999,"Delta":204678750},{"NoteNumber":80,"Velocity":79,"Duration":187499,"SoundDuration":187499,"Delta":204841250},{"NoteNumber":68,"Velocity":63,"Duration":187499,"SoundDuration":187499,"Delta":204841250},{"NoteNumber":71,"Velocity":63,"Duration":187499,"SoundDuration":187499,"Delta":204841250},{"NoteNumber":69,"Velocity":66,"Duration":1840871,"SoundDuration":1840871,"Delta":205028750},{"NoteNumber":73,"Velocity":66,"Duration":1840871,"SoundDuration":1840871,"Delta":205028750},{"NoteNumber":81,"Velocity":83,"Duration":1840871,"SoundDuration":1840871,"Delta":205028750},{"NoteNumber":42,"Velocity":70,"Duration":150753,"SoundDuration":150753,"Delta":205028750},{"NoteNumber":49,"Velocity":64,"Duration":301507,"SoundDuration":301507,"Delta":205330258},{"NoteNumber":57,"Velocity":65,"Duration":301507,"SoundDuration":301507,"Delta":205631765},{"NoteNumber":42,"Velocity":70,"Duration":150753,"SoundDuration":150753,"Delta":205933273},{"NoteNumber":49,"Velocity":65,"Duration":301507,"SoundDuration":301507,"Delta":206234780},{"NoteNumber":57,"Velocity":65,"Duration":333333,"SoundDuration":333333,"Delta":206536288},{"NoteNumber":73,"Velocity":77,"Duration":755440,"SoundDuration":755440,"Delta":206869621},{"NoteNumber":85,"Velocity":97,"Duration":755440,"SoundDuration":755440,"Delta":206869621},{"NoteNumber":45,"Velocity":79,"Duration":150000,"SoundDuration":150000,"Delta":206869621},{"NoteNumber":49,"Velocity":71,"Duration":299999,"SoundDuration":299999,"Delta":207169621},{"NoteNumber":54,"Velocity":71,"Duration":310880,"SoundDuration":310880,"Delta":207469621},{"NoteNumber":81,"Velocity":78,"Duration":155440,"SoundDuration":155440,"Delta":207625062},{"NoteNumber":78,"Velocity":62,"Duration":155440,"SoundDuration":155440,"Delta":207625062},{"NoteNumber":69,"Velocity":62,"Duration":155440,"SoundDuration":155440,"Delta":207625062},{"NoteNumber":80,"Velocity":78,"Duration":1819149,"SoundDuration":1819149,"Delta":207780502},{"NoteNumber":68,"Velocity":62,"Duration":1819149,"SoundDuration":1819149,"Delta":207780502},{"NoteNumber":77,"Velocity":62,"Duration":1819149,"SoundDuration":1819149,"Delta":207780502},{"NoteNumber":49,"Velocity":63,"Duration":300000,"SoundDuration":300000,"Delta":207780502},{"NoteNumber":53,"Velocity":54,"Duration":299999,"SoundDuration":299999,"Delta":208080502},{"NoteNumber":56,"Velocity":56,"Duration":300000,"SoundDuration":300000,"Delta":208380502},{"NoteNumber":49,"Velocity":63,"Duration":299999,"SoundDuration":299999,"Delta":208680502},{"NoteNumber":53,"Velocity":54,"Duration":300000,"SoundDuration":300000,"Delta":208980502},{"NoteNumber":56,"Velocity":57,"Duration":319149,"SoundDuration":319149,"Delta":209280502},{"NoteNumber":90,"Velocity":99,"Duration":750000,"SoundDuration":750000,"Delta":209599651},{"NoteNumber":78,"Velocity":79,"Duration":750000,"SoundDuration":750000,"Delta":209599651},{"NoteNumber":81,"Velocity":79,"Duration":750000,"SoundDuration":750000,"Delta":209599651},{"NoteNumber":45,"Velocity":79,"Duration":300000,"SoundDuration":300000,"Delta":209599651},{"NoteNumber":49,"Velocity":63,"Duration":299999,"SoundDuration":299999,"Delta":209899651},{"NoteNumber":54,"Velocity":63,"Duration":326470,"SoundDuration":326470,"Delta":210199651},{"NoteNumber":69,"Velocity":56,"Duration":176470,"SoundDuration":176470,"Delta":210349651},{"NoteNumber":81,"Velocity":70,"Duration":176470,"SoundDuration":176470,"Delta":210349651},{"NoteNumber":78,"Velocity":56,"Duration":176470,"SoundDuration":176470,"Delta":210349651},{"NoteNumber":68,"Velocity":56,"Duration":1199999,"SoundDuration":1199999,"Delta":210526122},{"NoteNumber":80,"Velocity":70,"Duration":1199999,"SoundDuration":1199999,"Delta":210526122},{"NoteNumber":77,"Velocity":56,"Duration":1199999,"SoundDuration":1199999,"Delta":210526122},{"NoteNumber":49,"Velocity":70,"Duration":300000,"SoundDuration":300000,"Delta":210526122},{"NoteNumber":53,"Velocity":62,"Duration":299999,"SoundDuration":299999,"Delta":210826122},{"NoteNumber":56,"Velocity":58,"Duration":300000,"SoundDuration":300000,"Delta":211126122},{"NoteNumber":50,"Velocity":62,"Duration":1426498,"SoundDuration":1426498,"Delta":211426122},{"NoteNumber":71,"Velocity":70,"Duration":306286,"SoundDuration":306286,"Delta":211726122},{"NoteNumber":56,"Velocity":59,"Duration":306286,"SoundDuration":306286,"Delta":211726122},{"NoteNumber":69,"Velocity":63,"Duration":318343,"SoundDuration":318343,"Delta":212032409},{"NoteNumber":54,"Velocity":59,"Duration":318343,"SoundDuration":318343,"Delta":212032409},{"NoteNumber":68,"Velocity":58,"Duration":331083,"SoundDuration":331083,"Delta":212350752},{"NoteNumber":53,"Velocity":60,"Duration":331083,"SoundDuration":331083,"Delta":212350752},{"NoteNumber":69,"Velocity":55,"Duration":345213,"SoundDuration":345213,"Delta":212681835},{"NoteNumber":54,"Velocity":55,"Duration":345213,"SoundDuration":345213,"Delta":212681835},{"NoteNumber":71,"Velocity":53,"Duration":338153,"SoundDuration":338153,"Delta":213027049},{"NoteNumber":56,"Velocity":50,"Duration":338153,"SoundDuration":338153,"Delta":213027049},{"NoteNumber":49,"Velocity":50,"Duration":338153,"SoundDuration":338153,"Delta":213027049},{"NoteNumber":73,"Velocity":51,"Duration":940408,"SoundDuration":940408,"Delta":213365202},{"NoteNumber":42,"Velocity":44,"Duration":321444,"SoundDuration":321444,"Delta":213365202},{"NoteNumber":49,"Velocity":40,"Duration":308617,"SoundDuration":308617,"Delta":213686646},{"NoteNumber":57,"Velocity":40,"Duration":310346,"SoundDuration":310346,"Delta":213995263},{"NoteNumber":73,"Velocity":51,"Duration":941610,"SoundDuration":941610,"Delta":214305610},{"NoteNumber":42,"Velocity":42,"Duration":312095,"SoundDuration":312095,"Delta":214305610},{"NoteNumber":47,"Velocity":39,"Duration":313863,"SoundDuration":313863,"Delta":214617705},{"NoteNumber":56,"Velocity":39,"Duration":315651,"SoundDuration":315651,"Delta":214931569},{"NoteNumber":73,"Velocity":52,"Duration":964308,"SoundDuration":964308,"Delta":215247220},{"NoteNumber":42,"Velocity":41,"Duration":315789,"SoundDuration":315789,"Delta":215247220},{"NoteNumber":45,"Velocity":38,"Duration":317027,"SoundDuration":317027,"Delta":215563010},{"NoteNumber":54,"Velocity":38,"Duration":331491,"SoundDuration":331491,"Delta":215880038},{"NoteNumber":74,"Velocity":60,"Duration":2842105,"SoundDuration":2842105,"Delta":216211529},{"NoteNumber":40,"Velocity":41,"Duration":315789,"SoundDuration":315789,"Delta":216211529},{"NoteNumber":47,"Velocity":40,"Duration":315789,"SoundDuration":315789,"Delta":216527319},{"NoteNumber":56,"Velocity":40,"Duration":315789,"SoundDuration":315789,"Delta":216843108},{"NoteNumber":40,"Velocity":44,"Duration":315789,"SoundDuration":315789,"Delta":217158898},{"NoteNumber":47,"Velocity":40,"Duration":315789,"SoundDuration":315789,"Delta":217474687},{"NoteNumber":56,"Velocity":44,"Duration":315789,"SoundDuration":315789,"Delta":217790477},{"NoteNumber":40,"Velocity":44,"Duration":315789,"SoundDuration":315789,"Delta":218106266},{"NoteNumber":47,"Velocity":41,"Duration":315789,"SoundDuration":315789,"Delta":218422056},{"NoteNumber":56,"Velocity":39,"Duration":315789,"SoundDuration":315789,"Delta":218737845},{"NoteNumber":74,"Velocity":41,"Duration":157894,"SoundDuration":157894,"Delta":218895740},{"NoteNumber":78,"Velocity":41,"Duration":631578,"SoundDuration":631578,"Delta":219053635},{"NoteNumber":40,"Velocity":35,"Duration":315789,"SoundDuration":315789,"Delta":219053635},{"NoteNumber":47,"Velocity":34,"Duration":315789,"SoundDuration":315789,"Delta":219369424},{"NoteNumber":74,"Velocity":41,"Duration":333333,"SoundDuration":333333,"Delta":219685214},{"NoteNumber":56,"Velocity":34,"Duration":333333,"SoundDuration":333333,"Delta":219685214},{"NoteNumber":74,"Velocity":41,"Duration":631578,"SoundDuration":631578,"Delta":220018547},{"NoteNumber":40,"Velocity":34,"Duration":315789,"SoundDuration":315789,"Delta":220018547},{"NoteNumber":49,"Velocity":33,"Duration":315789,"SoundDuration":315789,"Delta":220334337},{"NoteNumber":73,"Velocity":41,"Duration":335133,"SoundDuration":335133,"Delta":220650126},{"NoteNumber":57,"Velocity":34,"Duration":335133,"SoundDuration":335133,"Delta":220650126},{"NoteNumber":73,"Velocity":41,"Duration":631578,"SoundDuration":631578,"Delta":220985260},{"NoteNumber":40,"Velocity":34,"Duration":315789,"SoundDuration":315789,"Delta":220985260},{"NoteNumber":50,"Velocity":33,"Duration":315789,"SoundDuration":315789,"Delta":221301049},{"NoteNumber":71,"Velocity":44,"Duration":333333,"SoundDuration":333333,"Delta":221616839},{"NoteNumber":56,"Velocity":33,"Duration":333333,"SoundDuration":333333,"Delta":221616839},{"NoteNumber":73,"Velocity":44,"Duration":1894736,"SoundDuration":1894736,"Delta":221950172},{"NoteNumber":45,"Velocity":34,"Duration":315789,"SoundDuration":315789,"Delta":221950172},{"NoteNumber":49,"Velocity":34,"Duration":315789,"SoundDuration":315789,"Delta":222265962},{"NoteNumber":57,"Velocity":34,"Duration":315789,"SoundDuration":315789,"Delta":222581751},{"NoteNumber":45,"Velocity":35,"Duration":315789,"SoundDuration":315789,"Delta":222897541},{"NoteNumber":49,"Velocity":34,"Duration":315789,"SoundDuration":315789,"Delta":223213330},{"NoteNumber":56,"Velocity":33,"Duration":315789,"SoundDuration":315789,"Delta":223529120},{"NoteNumber":73,"Velocity":52,"Duration":631579,"SoundDuration":631579,"Delta":223844909},{"NoteNumber":45,"Velocity":42,"Duration":315789,"SoundDuration":315789,"Delta":223844909},{"NoteNumber":49,"Velocity":38,"Duration":315789,"SoundDuration":315789,"Delta":224160699},{"NoteNumber":69,"Velocity":52,"Duration":315789,"SoundDuration":315789,"Delta":224476488},{"NoteNumber":54,"Velocity":37,"Duration":315789,"SoundDuration":315789,"Delta":224476488},{"NoteNumber":68,"Velocity":52,"Duration":1894737,"SoundDuration":1894737,"Delta":224792278},{"NoteNumber":47,"Velocity":42,"Duration":315789,"SoundDuration":315789,"Delta":224792278},{"NoteNumber":50,"Velocity":39,"Duration":315789,"SoundDuration":315789,"Delta":225108067},{"NoteNumber":54,"Velocity":39,"Duration":315789,"SoundDuration":315789,"Delta":225423857},{"NoteNumber":50,"Velocity":44,"Duration":315789,"SoundDuration":315789,"Delta":225739646},{"NoteNumber":54,"Velocity":40,"Duration":315789,"SoundDuration":315789,"Delta":226055436},{"NoteNumber":59,"Velocity":40,"Duration":315789,"SoundDuration":315789,"Delta":226371225},{"NoteNumber":71,"Velocity":47,"Duration":317624,"SoundDuration":317624,"Delta":226687015},{"NoteNumber":49,"Velocity":39,"Duration":317624,"SoundDuration":317624,"Delta":226687015},{"NoteNumber":69,"Velocity":44,"Duration":327899,"SoundDuration":327899,"Delta":227004640},{"NoteNumber":53,"Velocity":38,"Duration":327899,"SoundDuration":327899,"Delta":227004640},{"NoteNumber":68,"Velocity":36,"Duration":338259,"SoundDuration":338259,"Delta":227332539},{"NoteNumber":59,"Velocity":30,"Duration":338259,"SoundDuration":338259,"Delta":227332539},{"NoteNumber":73,"Velocity":45,"Duration":1754386,"SoundDuration":1754386,"Delta":227670799},{"NoteNumber":45,"Velocity":42,"Duration":315789,"SoundDuration":315789,"Delta":227670799},{"NoteNumber":49,"Velocity":36,"Duration":315789,"SoundDuration":315789,"Delta":227986588},{"NoteNumber":54,"Velocity":37,"Duration":315789,"SoundDuration":315789,"Delta":228302378},{"NoteNumber":44,"Velocity":37,"Duration":315789,"SoundDuration":315789,"Delta":228618167},{"NoteNumber":47,"Velocity":37,"Duration":315789,"SoundDuration":315789,"Delta":228933957},{"NoteNumber":54,"Velocity":37,"Duration":350876,"SoundDuration":350876,"Delta":229249746},{"NoteNumber":73,"Velocity":52,"Duration":175438,"SoundDuration":175438,"Delta":229425185},{"NoteNumber":78,"Velocity":70,"Duration":631578,"SoundDuration":631578,"Delta":229600623},{"NoteNumber":46,"Velocity":44,"Duration":315789,"SoundDuration":315789,"Delta":229600623},{"NoteNumber":49,"Velocity":40,"Duration":315789,"SoundDuration":315789,"Delta":229916413},{"NoteNumber":70,"Velocity":62,"Duration":315789,"SoundDuration":315789,"Delta":230232202},{"NoteNumber":54,"Velocity":40,"Duration":315789,"SoundDuration":315789,"Delta":230232202},{"NoteNumber":68,"Velocity":62,"Duration":1263157,"SoundDuration":1263157,"Delta":230547992},{"NoteNumber":47,"Velocity":44,"Duration":315789,"SoundDuration":315789,"Delta":230547992},{"NoteNumber":51,"Velocity":41,"Duration":315789,"SoundDuration":315789,"Delta":230863781},{"NoteNumber":54,"Velocity":40,"Duration":315789,"SoundDuration":315789,"Delta":231179571},{"NoteNumber":48,"Velocity":44,"Duration":315789,"SoundDuration":315789,"Delta":231495360},{"NoteNumber":70,"Velocity":61,"Duration":315789,"SoundDuration":315789,"Delta":231811150},{"NoteNumber":54,"Velocity":41,"Duration":315789,"SoundDuration":315789,"Delta":231811150},{"NoteNumber":68,"Velocity":61,"Duration":315789,"SoundDuration":315789,"Delta":232126939},{"NoteNumber":56,"Velocity":40,"Duration":315789,"SoundDuration":315789,"Delta":232126939},{"NoteNumber":71,"Velocity":60,"Duration":315789,"SoundDuration":315789,"Delta":232442729},{"NoteNumber":49,"Velocity":39,"Duration":315789,"SoundDuration":315789,"Delta":232442729},{"NoteNumber":70,"Velocity":57,"Duration":315789,"SoundDuration":315789,"Delta":232758518},{"NoteNumber":53,"Velocity":39,"Duration":315789,"SoundDuration":315789,"Delta":232758518},{"NoteNumber":68,"Velocity":57,"Duration":316921,"SoundDuration":316921,"Delta":233074308},{"NoteNumber":59,"Velocity":37,"Duration":316921,"SoundDuration":316921,"Delta":233074308},{"NoteNumber":66,"Velocity":62,"Duration":1925132,"SoundDuration":1925132,"Delta":233391229},{"NoteNumber":58,"Velocity":34,"Duration":320855,"SoundDuration":320855,"Delta":233391229},{"NoteNumber":54,"Velocity":34,"Duration":320855,"SoundDuration":320855,"Delta":233391229},{"NoteNumber":42,"Velocity":31,"Duration":320855,"SoundDuration":320855,"Delta":233712085},{"NoteNumber":46,"Velocity":34,"Duration":320855,"SoundDuration":320855,"Delta":234032940},{"NoteNumber":49,"Velocity":35,"Duration":320855,"SoundDuration":320855,"Delta":234353796},{"NoteNumber":54,"Velocity":37,"Duration":320855,"SoundDuration":320855,"Delta":234674651},{"NoteNumber":56,"Velocity":39,"Duration":320855,"SoundDuration":320855,"Delta":234995507},{"NoteNumber":58,"Velocity":41,"Duration":320855,"SoundDuration":320855,"Delta":235316362},{"NoteNumber":61,"Velocity":45,"Duration":320855,"SoundDuration":320855,"Delta":235637218},{"NoteNumber":54,"Velocity":45,"Duration":320855,"SoundDuration":320855,"Delta":235958073},{"NoteNumber":73,"Velocity":45,"Duration":962566,"SoundDuration":962566,"Delta":236278929},{"NoteNumber":53,"Velocity":44,"Duration":320855,"SoundDuration":320855,"Delta":236278929},{"NoteNumber":56,"Velocity":35,"Duration":320855,"SoundDuration":320855,"Delta":236599784},{"NoteNumber":61,"Velocity":35,"Duration":320855,"SoundDuration":320855,"Delta":236920640},{"NoteNumber":73,"Velocity":45,"Duration":962566,"SoundDuration":962566,"Delta":237241495},{"NoteNumber":53,"Velocity":36,"Duration":320855,"SoundDuration":320855,"Delta":237241495},{"NoteNumber":56,"Velocity":36,"Duration":320855,"SoundDuration":320855,"Delta":237562351},{"NoteNumber":61,"Velocity":36,"Duration":320855,"SoundDuration":320855,"Delta":237883206},{"NoteNumber":73,"Velocity":44,"Duration":987427,"SoundDuration":987427,"Delta":238204062},{"NoteNumber":53,"Velocity":36,"Duration":320855,"SoundDuration":320855,"Delta":238204062},{"NoteNumber":56,"Velocity":36,"Duration":322065,"SoundDuration":322065,"Delta":238524917},{"NoteNumber":61,"Velocity":36,"Duration":344506,"SoundDuration":344506,"Delta":238846982},{"NoteNumber":73,"Velocity":46,"Duration":957447,"SoundDuration":957447,"Delta":239191489},{"NoteNumber":52,"Velocity":36,"Duration":319149,"SoundDuration":319149,"Delta":239191489},{"NoteNumber":56,"Velocity":34,"Duration":319148,"SoundDuration":319148,"Delta":239510638},{"NoteNumber":61,"Velocity":35,"Duration":319149,"SoundDuration":319149,"Delta":239829787},{"NoteNumber":73,"Velocity":44,"Duration":957447,"SoundDuration":957447,"Delta":240148936},{"NoteNumber":52,"Velocity":35,"Duration":319149,"SoundDuration":319149,"Delta":240148936},{"NoteNumber":56,"Velocity":34,"Duration":319148,"SoundDuration":319148,"Delta":240468085},{"NoteNumber":61,"Velocity":34,"Duration":319149,"SoundDuration":319149,"Delta":240787234},{"NoteNumber":73,"Velocity":44,"Duration":808915,"SoundDuration":808915,"Delta":241106383},{"NoteNumber":52,"Velocity":35,"Duration":319149,"SoundDuration":319149,"Delta":241106383},{"NoteNumber":56,"Velocity":36,"Duration":320275,"SoundDuration":320275,"Delta":241425532},{"NoteNumber":61,"Velocity":38,"Duration":338983,"SoundDuration":338983,"Delta":241745807},{"NoteNumber":73,"Velocity":35,"Duration":169491,"SoundDuration":169491,"Delta":241915299},{"NoteNumber":76,"Velocity":52,"Duration":634920,"SoundDuration":634920,"Delta":242084790},{"NoteNumber":51,"Velocity":42,"Duration":317460,"SoundDuration":317460,"Delta":242084790},{"NoteNumber":55,"Velocity":41,"Duration":317460,"SoundDuration":317460,"Delta":242402251},{"NoteNumber":75,"Velocity":47,"Duration":317321,"SoundDuration":317321,"Delta":242719711},{"NoteNumber":61,"Velocity":42,"Duration":317321,"SoundDuration":317321,"Delta":242719711},{"NoteNumber":75,"Velocity":46,"Duration":318759,"SoundDuration":318759,"Delta":243037032},{"NoteNumber":51,"Velocity":41,"Duration":318759,"SoundDuration":318759,"Delta":243037032},{"NoteNumber":75,"Velocity":45,"Duration":331382,"SoundDuration":331382,"Delta":243355792},{"NoteNumber":55,"Velocity":40,"Duration":331382,"SoundDuration":331382,"Delta":243355792},{"NoteNumber":75,"Velocity":44,"Duration":345041,"SoundDuration":345041,"Delta":243687174},{"NoteNumber":61,"Velocity":39,"Duration":345041,"SoundDuration":345041,"Delta":243687174},{"NoteNumber":75,"Velocity":42,"Duration":360057,"SoundDuration":360057,"Delta":244032215},{"NoteNumber":51,"Velocity":38,"Duration":360057,"SoundDuration":360057,"Delta":244032215},{"NoteNumber":75,"Velocity":41,"Duration":376243,"SoundDuration":376243,"Delta":244392272},{"NoteNumber":55,"Velocity":36,"Duration":376243,"SoundDuration":376243,"Delta":244392272},{"NoteNumber":75,"Velocity":40,"Duration":393947,"SoundDuration":393947,"Delta":244768516},{"NoteNumber":61,"Velocity":35,"Duration":393947,"SoundDuration":393947,"Delta":244768516},{"NoteNumber":75,"Velocity":39,"Duration":4304273,"SoundDuration":4304273,"Delta":245162463},{"NoteNumber":55,"Velocity":33,"Duration":4304273,"SoundDuration":4304273,"Delta":245162463},{"NoteNumber":51,"Velocity":33,"Duration":4304273,"SoundDuration":4304273,"Delta":245162463},{"NoteNumber":58,"Velocity":29,"Duration":514633,"SoundDuration":514633,"Delta":245596551},{"NoteNumber":60,"Velocity":26,"Duration":632660,"SoundDuration":632660,"Delta":246111185},{"NoteNumber":61,"Velocity":22,"Duration":2722891,"SoundDuration":2722891,"Delta":246743845},{"NoteNumber":72,"Velocity":30,"Duration":651035,"SoundDuration":651035,"Delta":249466737},{"NoteNumber":68,"Velocity":27,"Duration":651035,"SoundDuration":651035,"Delta":249466737},{"NoteNumber":60,"Velocity":27,"Duration":651035,"SoundDuration":651035,"Delta":249466737},{"NoteNumber":51,"Velocity":24,"Duration":633638,"SoundDuration":633638,"Delta":249466737},{"NoteNumber":44,"Velocity":20,"Duration":651035,"SoundDuration":651035,"Delta":249466737},{"NoteNumber":67,"Velocity":27,"Duration":229139,"SoundDuration":229139,"Delta":250100375},{"NoteNumber":73,"Velocity":30,"Duration":229139,"SoundDuration":229139,"Delta":250100375},{"NoteNumber":61,"Velocity":27,"Duration":229139,"SoundDuration":229139,"Delta":250100375},{"NoteNumber":46,"Velocity":20,"Duration":229139,"SoundDuration":229139,"Delta":250100375},{"NoteNumber":51,"Velocity":24,"Duration":208768,"SoundDuration":208768,"Delta":250100375},{"NoteNumber":72,"Velocity":30,"Duration":486538,"SoundDuration":486538,"Delta":250309143},{"NoteNumber":60,"Velocity":27,"Duration":486538,"SoundDuration":486538,"Delta":250309143},{"NoteNumber":68,"Velocity":27,"Duration":486538,"SoundDuration":486538,"Delta":250309143},{"NoteNumber":51,"Velocity":24,"Duration":486538,"SoundDuration":486538,"Delta":250309143},{"NoteNumber":44,"Velocity":20,"Duration":486538,"SoundDuration":486538,"Delta":250309143},{"NoteNumber":73,"Velocity":22,"Duration":2505219,"SoundDuration":2505219,"Delta":250795682},{"NoteNumber":61,"Velocity":19,"Duration":2505219,"SoundDuration":2505219,"Delta":250795682},{"NoteNumber":67,"Velocity":19,"Duration":2505219,"SoundDuration":2505219,"Delta":250795682},{"NoteNumber":46,"Velocity":15,"Duration":2505219,"SoundDuration":2505219,"Delta":250795682},{"NoteNumber":51,"Velocity":18,"Duration":2505219,"SoundDuration":2505219,"Delta":250795682},{"NoteNumber":60,"Velocity":30,"Duration":682757,"SoundDuration":682757,"Delta":253300901},{"NoteNumber":68,"Velocity":30,"Duration":682757,"SoundDuration":682757,"Delta":253300901},{"NoteNumber":72,"Velocity":35,"Duration":682757,"SoundDuration":682757,"Delta":253300901},{"NoteNumber":51,"Velocity":29,"Duration":663262,"SoundDuration":663262,"Delta":253300901},{"NoteNumber":44,"Velocity":24,"Duration":682757,"SoundDuration":682757,"Delta":253300901},{"NoteNumber":63,"Velocity":35,"Duration":263967,"SoundDuration":263967,"Delta":253964163},{"NoteNumber":75,"Velocity":39,"Duration":263967,"SoundDuration":263967,"Delta":253964163},{"NoteNumber":48,"Velocity":24,"Duration":263967,"SoundDuration":263967,"Delta":253964163},{"NoteNumber":51,"Velocity":29,"Duration":238831,"SoundDuration":238831,"Delta":253964163},{"NoteNumber":68,"Velocity":30,"Duration":599161,"SoundDuration":599161,"Delta":254202995},{"NoteNumber":72,"Velocity":35,"Duration":599161,"SoundDuration":599161,"Delta":254202995},{"NoteNumber":60,"Velocity":30,"Duration":599161,"SoundDuration":599161,"Delta":254202995},{"NoteNumber":44,"Velocity":24,"Duration":599161,"SoundDuration":599161,"Delta":254202995},{"NoteNumber":51,"Velocity":29,"Duration":599161,"SoundDuration":599161,"Delta":254202995},{"NoteNumber":70,"Velocity":28,"Duration":2505219,"SoundDuration":2505219,"Delta":254802157},{"NoteNumber":58,"Velocity":25,"Duration":2505219,"SoundDuration":2505219,"Delta":254802157},{"NoteNumber":67,"Velocity":25,"Duration":2505219,"SoundDuration":2505219,"Delta":254802157},{"NoteNumber":51,"Velocity":23,"Duration":2505219,"SoundDuration":2505219,"Delta":254802157},{"NoteNumber":39,"Velocity":19,"Duration":2505219,"SoundDuration":2505219,"Delta":254802157},{"NoteNumber":72,"Velocity":34,"Duration":643702,"SoundDuration":643702,"Delta":257307376},{"NoteNumber":60,"Velocity":29,"Duration":643702,"SoundDuration":643702,"Delta":257307376},{"NoteNumber":68,"Velocity":29,"Duration":643702,"SoundDuration":643702,"Delta":257307376},{"NoteNumber":44,"Velocity":23,"Duration":643702,"SoundDuration":643702,"Delta":257307376},{"NoteNumber":51,"Velocity":28,"Duration":626304,"SoundDuration":626304,"Delta":257307376},{"NoteNumber":61,"Velocity":29,"Duration":226165,"SoundDuration":226165,"Delta":257933681},{"NoteNumber":67,"Velocity":29,"Duration":226165,"SoundDuration":226165,"Delta":257933681},{"NoteNumber":73,"Velocity":34,"Duration":226165,"SoundDuration":226165,"Delta":257933681},{"NoteNumber":51,"Velocity":29,"Duration":208768,"SoundDuration":208768,"Delta":257933681},{"NoteNumber":46,"Velocity":24,"Duration":226165,"SoundDuration":226165,"Delta":257933681},{"NoteNumber":60,"Velocity":29,"Duration":417536,"SoundDuration":417536,"Delta":258142449},{"NoteNumber":72,"Velocity":34,"Duration":417536,"SoundDuration":417536,"Delta":258142449},{"NoteNumber":68,"Velocity":29,"Duration":417536,"SoundDuration":417536,"Delta":258142449},{"NoteNumber":44,"Velocity":24,"Duration":417536,"SoundDuration":417536,"Delta":258142449},{"NoteNumber":51,"Velocity":29,"Duration":417536,"SoundDuration":417536,"Delta":258142449},{"NoteNumber":68,"Velocity":27,"Duration":643702,"SoundDuration":643702,"Delta":258559985},{"NoteNumber":60,"Velocity":27,"Duration":643702,"SoundDuration":643702,"Delta":258559985},{"NoteNumber":72,"Velocity":30,"Duration":643702,"SoundDuration":643702,"Delta":258559985},{"NoteNumber":51,"Velocity":25,"Duration":626304,"SoundDuration":626304,"Delta":258559985},{"NoteNumber":44,"Velocity":21,"Duration":643702,"SoundDuration":643702,"Delta":258559985},{"NoteNumber":68,"Velocity":42,"Duration":230106,"SoundDuration":230106,"Delta":259186290},{"NoteNumber":65,"Velocity":42,"Duration":230106,"SoundDuration":230106,"Delta":259186290},{"NoteNumber":77,"Velocity":48,"Duration":230106,"SoundDuration":230106,"Delta":259186290},{"NoteNumber":49,"Velocity":30,"Duration":230106,"SoundDuration":230106,"Delta":259186290},{"NoteNumber":51,"Velocity":36,"Duration":208768,"SoundDuration":208768,"Delta":259186290},{"NoteNumber":75,"Velocity":51,"Duration":512119,"SoundDuration":512119,"Delta":259395058},{"NoteNumber":68,"Velocity":45,"Duration":512119,"SoundDuration":512119,"Delta":259395058},{"NoteNumber":63,"Velocity":45,"Duration":512119,"SoundDuration":512119,"Delta":259395058},{"NoteNumber":48,"Velocity":34,"Duration":512119,"SoundDuration":512119,"Delta":259395058},{"NoteNumber":51,"Velocity":40,"Duration":512119,"SoundDuration":512119,"Delta":259395058},{"NoteNumber":75,"Velocity":56,"Duration":1046994,"SoundDuration":1046994,"Delta":259907178},{"NoteNumber":63,"Velocity":50,"Duration":1046994,"SoundDuration":1046994,"Delta":259907178},{"NoteNumber":68,"Velocity":50,"Duration":1046994,"SoundDuration":1046994,"Delta":259907178},{"NoteNumber":51,"Velocity":46,"Duration":1255762,"SoundDuration":1255762,"Delta":259907178},{"NoteNumber":48,"Velocity":38,"Duration":1255762,"SoundDuration":1255762,"Delta":259907178},{"NoteNumber":75,"Velocity":52,"Duration":208768,"SoundDuration":208768,"Delta":260954172},{"NoteNumber":63,"Velocity":47,"Duration":208768,"SoundDuration":208768,"Delta":260954172},{"NoteNumber":67,"Velocity":47,"Duration":1043841,"SoundDuration":1043841,"Delta":261162941},{"NoteNumber":61,"Velocity":47,"Duration":1043841,"SoundDuration":1043841,"Delta":261162941},{"NoteNumber":73,"Velocity":52,"Duration":1043841,"SoundDuration":1043841,"Delta":261162941},{"NoteNumber":46,"Velocity":37,"Duration":1043841,"SoundDuration":1043841,"Delta":261162941},{"NoteNumber":51,"Velocity":44,"Duration":1043841,"SoundDuration":1043841,"Delta":261162941},{"NoteNumber":68,"Velocity":24,"Duration":264768,"SoundDuration":264768,"Delta":262206782},{"NoteNumber":60,"Velocity":24,"Duration":264768,"SoundDuration":264768,"Delta":262206782},{"NoteNumber":72,"Velocity":27,"Duration":264768,"SoundDuration":264768,"Delta":262206782},{"NoteNumber":51,"Velocity":23,"Duration":264768,"SoundDuration":264768,"Delta":262206782},{"NoteNumber":44,"Velocity":19,"Duration":264768,"SoundDuration":264768,"Delta":262206782},{"NoteNumber":68,"Velocity":24,"Duration":2505219,"SoundDuration":2505219,"Delta":262471551},{"NoteNumber":72,"Velocity":27,"Duration":2505219,"SoundDuration":2505219,"Delta":262471551},{"NoteNumber":60,"Velocity":24,"Duration":2505219,"SoundDuration":2505219,"Delta":262471551},{"NoteNumber":44,"Velocity":18,"Duration":2505219,"SoundDuration":2505219,"Delta":262471551},{"NoteNumber":51,"Velocity":22,"Duration":2505219,"SoundDuration":2505219,"Delta":262471551},{"NoteNumber":70,"Velocity":44,"Duration":643702,"SoundDuration":643702,"Delta":264976770},{"NoteNumber":58,"Velocity":39,"Duration":643702,"SoundDuration":643702,"Delta":264976770},{"NoteNumber":67,"Velocity":39,"Duration":643702,"SoundDuration":643702,"Delta":264976770},{"NoteNumber":51,"Velocity":36,"Duration":626304,"SoundDuration":626304,"Delta":264976770},{"NoteNumber":39,"Velocity":30,"Duration":643702,"SoundDuration":643702,"Delta":264976770},{"NoteNumber":68,"Velocity":39,"Duration":226165,"SoundDuration":226165,"Delta":265603074},{"NoteNumber":59,"Velocity":39,"Duration":226165,"SoundDuration":226165,"Delta":265603074},{"NoteNumber":71,"Velocity":44,"Duration":226165,"SoundDuration":226165,"Delta":265603074},{"NoteNumber":44,"Velocity":31,"Duration":226165,"SoundDuration":226165,"Delta":265603074},{"NoteNumber":51,"Velocity":37,"Duration":208768,"SoundDuration":208768,"Delta":265603074},{"NoteNumber":58,"Velocity":39,"Duration":417536,"SoundDuration":417536,"Delta":265811843},{"NoteNumber":67,"Velocity":39,"Duration":417536,"SoundDuration":417536,"Delta":265811843},{"NoteNumber":70,"Velocity":44,"Duration":417536,"SoundDuration":417536,"Delta":265811843},{"NoteNumber":51,"Velocity":37,"Duration":417536,"SoundDuration":417536,"Delta":265811843},{"NoteNumber":39,"Velocity":31,"Duration":417536,"SoundDuration":417536,"Delta":265811843},{"NoteNumber":58,"Velocity":39,"Duration":643702,"SoundDuration":643702,"Delta":266229379},{"NoteNumber":70,"Velocity":44,"Duration":643702,"SoundDuration":643702,"Delta":266229379},{"NoteNumber":67,"Velocity":39,"Duration":643702,"SoundDuration":643702,"Delta":266229379},{"NoteNumber":39,"Velocity":31,"Duration":643702,"SoundDuration":643702,"Delta":266229379},{"NoteNumber":51,"Velocity":37,"Duration":626304,"SoundDuration":626304,"Delta":266229379},{"NoteNumber":71,"Velocity":44,"Duration":231611,"SoundDuration":231611,"Delta":266855684},{"NoteNumber":59,"Velocity":39,"Duration":231611,"SoundDuration":231611,"Delta":266855684},{"NoteNumber":68,"Velocity":39,"Duration":231611,"SoundDuration":231611,"Delta":266855684},{"NoteNumber":51,"Velocity":36,"Duration":208768,"SoundDuration":208768,"Delta":266855684},{"NoteNumber":44,"Velocity":30,"Duration":231611,"SoundDuration":231611,"Delta":266855684},{"NoteNumber":67,"Velocity":39,"Duration":543888,"SoundDuration":543888,"Delta":267064452},{"NoteNumber":58,"Velocity":39,"Duration":543888,"SoundDuration":543888,"Delta":267064452},{"NoteNumber":70,"Velocity":44,"Duration":543888,"SoundDuration":543888,"Delta":267064452},{"NoteNumber":39,"Velocity":30,"Duration":543888,"SoundDuration":543888,"Delta":267064452},{"NoteNumber":51,"Velocity":36,"Duration":543888,"SoundDuration":543888,"Delta":267064452},{"NoteNumber":68,"Velocity":61,"Duration":1252609,"SoundDuration":1252609,"Delta":267608341},{"NoteNumber":71,"Velocity":68,"Duration":1252609,"SoundDuration":1252609,"Delta":267608341},{"NoteNumber":65,"Velocity":61,"Duration":1252609,"SoundDuration":1252609,"Delta":267608341},{"NoteNumber":38,"Velocity":47,"Duration":2566216,"SoundDuration":2566216,"Delta":267608341},{"NoteNumber":50,"Velocity":56,"Duration":2566216,"SoundDuration":2566216,"Delta":267608341},{"NoteNumber":68,"Velocity":62,"Duration":835073,"SoundDuration":835073,"Delta":268860950},{"NoteNumber":77,"Velocity":69,"Duration":1043841,"SoundDuration":1043841,"Delta":268860950},{"NoteNumber":71,"Velocity":62,"Duration":835073,"SoundDuration":835073,"Delta":268860950},{"NoteNumber":75,"Velocity":42,"Duration":269765,"SoundDuration":269765,"Delta":269904792},{"NoteNumber":68,"Velocity":38,"Duration":1305555,"SoundDuration":1305555,"Delta":270174557},{"NoteNumber":71,"Velocity":38,"Duration":1305555,"SoundDuration":1305555,"Delta":270174557},{"NoteNumber":75,"Velocity":42,"Duration":1722221,"SoundDuration":1722221,"Delta":270174557},{"NoteNumber":51,"Velocity":36,"Duration":1722221,"SoundDuration":1722221,"Delta":270174557},{"NoteNumber":39,"Velocity":30,"Duration":1722221,"SoundDuration":1722221,"Delta":270174557},{"NoteNumber":67,"Velocity":25,"Duration":416666,"SoundDuration":416666,"Delta":271480113},{"NoteNumber":70,"Velocity":28,"Duration":416666,"SoundDuration":416666,"Delta":271480113},{"NoteNumber":75,"Velocity":35,"Duration":697376,"SoundDuration":697376,"Delta":272730112},{"NoteNumber":69,"Velocity":30,"Duration":904703,"SoundDuration":904703,"Delta":272730112},{"NoteNumber":60,"Velocity":30,"Duration":904703,"SoundDuration":904703,"Delta":272730112},{"NoteNumber":66,"Velocity":30,"Duration":904703,"SoundDuration":904703,"Delta":272730112},{"NoteNumber":77,"Velocity":35,"Duration":245023,"SoundDuration":245023,"Delta":273408640},{"NoteNumber":66,"Velocity":30,"Duration":452352,"SoundDuration":452352,"Delta":273634816},{"NoteNumber":75,"Velocity":35,"Duration":452352,"SoundDuration":452352,"Delta":273634816},{"NoteNumber":60,"Velocity":30,"Duration":452352,"SoundDuration":452352,"Delta":273634816},{"NoteNumber":69,"Velocity":30,"Duration":452352,"SoundDuration":452352,"Delta":273634816},{"NoteNumber":75,"Velocity":35,"Duration":904703,"SoundDuration":904703,"Delta":274087168},{"NoteNumber":61,"Velocity":30,"Duration":1774592,"SoundDuration":1774592,"Delta":274087168},{"NoteNumber":68,"Velocity":30,"Duration":904703,"SoundDuration":904703,"Delta":274087168},{"NoteNumber":66,"Velocity":30,"Duration":1357056,"SoundDuration":1357056,"Delta":274087168},{"NoteNumber":72,"Velocity":35,"Duration":452352,"SoundDuration":452352,"Delta":274991872},{"NoteNumber":68,"Velocity":30,"Duration":417536,"SoundDuration":417536,"Delta":275444224},{"NoteNumber":65,"Velocity":30,"Duration":417536,"SoundDuration":417536,"Delta":275444224},{"NoteNumber":73,"Velocity":35,"Duration":417536,"SoundDuration":417536,"Delta":275444224},{"NoteNumber":75,"Velocity":68,"Duration":839689,"SoundDuration":839689,"Delta":276696834},{"NoteNumber":72,"Velocity":68,"Duration":839689,"SoundDuration":839689,"Delta":276696834},{"NoteNumber":80,"Velocity":77,"Duration":644779,"SoundDuration":644779,"Delta":276696834},{"NoteNumber":42,"Velocity":43,"Duration":839689,"SoundDuration":839689,"Delta":276696834},{"NoteNumber":54,"Velocity":60,"Duration":839689,"SoundDuration":839689,"Delta":276696834},{"NoteNumber":82,"Velocity":77,"Duration":230386,"SoundDuration":230386,"Delta":277323945},{"NoteNumber":72,"Velocity":68,"Duration":430715,"SoundDuration":430715,"Delta":277536523},{"NoteNumber":80,"Velocity":77,"Duration":430715,"SoundDuration":430715,"Delta":277536523},{"NoteNumber":75,"Velocity":68,"Duration":430715,"SoundDuration":430715,"Delta":277536523},{"NoteNumber":54,"Velocity":59,"Duration":430715,"SoundDuration":430715,"Delta":277536523},{"NoteNumber":42,"Velocity":42,"Duration":430715,"SoundDuration":430715,"Delta":277536523},{"NoteNumber":82,"Velocity":77,"Duration":678837,"SoundDuration":678837,"Delta":277967239},{"NoteNumber":73,"Velocity":68,"Duration":884339,"SoundDuration":884339,"Delta":277967239},{"NoteNumber":41,"Velocity":42,"Duration":884339,"SoundDuration":884339,"Delta":277967239},{"NoteNumber":53,"Velocity":59,"Duration":884339,"SoundDuration":884339,"Delta":277967239},{"NoteNumber":80,"Velocity":77,"Duration":224042,"SoundDuration":224042,"Delta":278627536},{"NoteNumber":80,"Velocity":77,"Duration":135721,"SoundDuration":135721,"Delta":278851579},{"NoteNumber":73,"Velocity":68,"Duration":542888,"SoundDuration":542888,"Delta":278851579},{"NoteNumber":52,"Velocity":67,"Duration":542888,"SoundDuration":542888,"Delta":278851579},{"NoteNumber":40,"Velocity":47,"Duration":542888,"SoundDuration":542888,"Delta":278851579},{"NoteNumber":80,"Velocity":77,"Duration":271444,"SoundDuration":271444,"Delta":279123023},{"NoteNumber":80,"Velocity":81,"Duration":1315285,"SoundDuration":1315285,"Delta":279394467},{"NoteNumber":85,"Velocity":91,"Duration":839251,"SoundDuration":839251,"Delta":279394467},{"NoteNumber":73,"Velocity":81,"Duration":1315285,"SoundDuration":1315285,"Delta":279394467},{"NoteNumber":39,"Velocity":52,"Duration":1315285,"SoundDuration":1315285,"Delta":279394467},{"NoteNumber":51,"Velocity":74,"Duration":1315285,"SoundDuration":1315285,"Delta":279394467},{"NoteNumber":84,"Velocity":77,"Duration":208768,"SoundDuration":208768,"Delta":280233718},{"NoteNumber":84,"Velocity":57,"Duration":267265,"SoundDuration":267265,"Delta":280442486},{"NoteNumber":82,"Velocity":57,"Duration":1050031,"SoundDuration":1050031,"Delta":280709752},{"NoteNumber":79,"Velocity":51,"Duration":1050031,"SoundDuration":1050031,"Delta":280709752},{"NoteNumber":73,"Velocity":51,"Duration":1050031,"SoundDuration":1050031,"Delta":280709752},{"NoteNumber":51,"Velocity":44,"Duration":1050031,"SoundDuration":1050031,"Delta":280709752},{"NoteNumber":39,"Velocity":31,"Duration":1050031,"SoundDuration":1050031,"Delta":280709752},{"NoteNumber":80,"Velocity":50,"Duration":301628,"SoundDuration":301628,"Delta":281759784},{"NoteNumber":72,"Velocity":45,"Duration":301628,"SoundDuration":301628,"Delta":281759784},{"NoteNumber":44,"Velocity":42,"Duration":301628,"SoundDuration":301628,"Delta":281759784},{"NoteNumber":51,"Velocity":42,"Duration":301628,"SoundDuration":301628,"Delta":281759784},{"NoteNumber":80,"Velocity":50,"Duration":1270017,"SoundDuration":1270017,"Delta":282061413},{"NoteNumber":72,"Velocity":37,"Duration":1270017,"SoundDuration":1270017,"Delta":282061413},{"NoteNumber":51,"Velocity":42,"Duration":1043841,"SoundDuration":1043841,"Delta":282061413},{"NoteNumber":44,"Velocity":42,"Duration":1270017,"SoundDuration":1270017,"Delta":282061413},{"NoteNumber":51,"Velocity":24,"Duration":226176,"SoundDuration":226176,"Delta":283105254},{"NoteNumber":51,"Velocity":24,"Duration":3600550,"SoundDuration":3600550,"Delta":283331430},{"NoteNumber":60,"Velocity":30,"Duration":224282,"SoundDuration":224282,"Delta":284375271},{"NoteNumber":72,"Velocity":35,"Duration":224282,"SoundDuration":224282,"Delta":284375271},{"NoteNumber":68,"Velocity":30,"Duration":224282,"SoundDuration":224282,"Delta":284375271},{"NoteNumber":44,"Velocity":29,"Duration":224282,"SoundDuration":224282,"Delta":284375271},{"NoteNumber":68,"Velocity":30,"Duration":643702,"SoundDuration":643702,"Delta":284599553},{"NoteNumber":60,"Velocity":30,"Duration":643702,"SoundDuration":643702,"Delta":284599553},{"NoteNumber":72,"Velocity":35,"Duration":643702,"SoundDuration":643702,"Delta":284599553},{"NoteNumber":44,"Velocity":29,"Duration":643702,"SoundDuration":643702,"Delta":284599553},{"NoteNumber":67,"Velocity":30,"Duration":228776,"SoundDuration":228776,"Delta":285225858},{"NoteNumber":61,"Velocity":30,"Duration":228776,"SoundDuration":228776,"Delta":285225858},{"NoteNumber":73,"Velocity":35,"Duration":228776,"SoundDuration":228776,"Delta":285225858},{"NoteNumber":46,"Velocity":29,"Duration":228776,"SoundDuration":228776,"Delta":285225858},{"NoteNumber":68,"Velocity":30,"Duration":452352,"SoundDuration":452352,"Delta":285435787},{"NoteNumber":72,"Velocity":35,"Duration":452352,"SoundDuration":452352,"Delta":285435787},{"NoteNumber":60,"Velocity":30,"Duration":452352,"SoundDuration":452352,"Delta":285435787},{"NoteNumber":44,"Velocity":29,"Duration":452352,"SoundDuration":452352,"Delta":285435787},{"NoteNumber":73,"Velocity":30,"Duration":2315750,"SoundDuration":2315750,"Delta":285888139},{"NoteNumber":61,"Velocity":27,"Duration":2315750,"SoundDuration":2315750,"Delta":285888139},{"NoteNumber":67,"Velocity":27,"Duration":2315750,"SoundDuration":2315750,"Delta":285888139},{"NoteNumber":46,"Velocity":25,"Duration":2315750,"SoundDuration":2315750,"Delta":285888139},{"NoteNumber":51,"Velocity":25,"Duration":228067,"SoundDuration":228067,"Delta":286931980},{"NoteNumber":51,"Velocity":25,"Duration":3391655,"SoundDuration":3391655,"Delta":287160048},{"NoteNumber":70,"Velocity":35,"Duration":224282,"SoundDuration":224282,"Delta":288203889},{"NoteNumber":58,"Velocity":30,"Duration":224282,"SoundDuration":224282,"Delta":288203889},{"NoteNumber":67,"Velocity":30,"Duration":224282,"SoundDuration":224282,"Delta":288203889},{"NoteNumber":39,"Velocity":29,"Duration":224282,"SoundDuration":224282,"Delta":288203889},{"NoteNumber":58,"Velocity":30,"Duration":644736,"SoundDuration":644736,"Delta":288428171},{"NoteNumber":67,"Velocity":30,"Duration":644736,"SoundDuration":644736,"Delta":288428171},{"NoteNumber":70,"Velocity":35,"Duration":644736,"SoundDuration":644736,"Delta":288428171},{"NoteNumber":39,"Velocity":29,"Duration":644736,"SoundDuration":644736,"Delta":288428171},{"NoteNumber":60,"Velocity":30,"Duration":228776,"SoundDuration":228776,"Delta":289055510},{"NoteNumber":72,"Velocity":35,"Duration":228776,"SoundDuration":228776,"Delta":289055510},{"NoteNumber":68,"Velocity":30,"Duration":228776,"SoundDuration":228776,"Delta":289055510},{"NoteNumber":44,"Velocity":29,"Duration":228776,"SoundDuration":228776,"Delta":289055510},{"NoteNumber":67,"Velocity":30,"Duration":451191,"SoundDuration":451191,"Delta":289265439},{"NoteNumber":58,"Velocity":30,"Duration":451191,"SoundDuration":451191,"Delta":289265439},{"NoteNumber":70,"Velocity":35,"Duration":451191,"SoundDuration":451191,"Delta":289265439},{"NoteNumber":39,"Velocity":29,"Duration":451191,"SoundDuration":451191,"Delta":289265439},{"NoteNumber":68,"Velocity":27,"Duration":2330048,"SoundDuration":2330048,"Delta":289716630},{"NoteNumber":60,"Velocity":27,"Duration":2330048,"SoundDuration":2330048,"Delta":289716630},{"NoteNumber":72,"Velocity":30,"Duration":2330048,"SoundDuration":2330048,"Delta":289716630},{"NoteNumber":44,"Velocity":24,"Duration":2330048,"SoundDuration":2330048,"Delta":289716630},{"NoteNumber":51,"Velocity":25,"Duration":242365,"SoundDuration":242365,"Delta":290760472},{"NoteNumber":51,"Velocity":25,"Duration":3855387,"SoundDuration":3855387,"Delta":291002837},{"NoteNumber":63,"Velocity":35,"Duration":224282,"SoundDuration":224282,"Delta":292046678},{"NoteNumber":48,"Velocity":29,"Duration":224282,"SoundDuration":224282,"Delta":292046678},{"NoteNumber":63,"Velocity":35,"Duration":647241,"SoundDuration":647241,"Delta":292270961},{"NoteNumber":48,"Velocity":29,"Duration":647241,"SoundDuration":647241,"Delta":292270961},{"NoteNumber":65,"Velocity":42,"Duration":229935,"SoundDuration":229935,"Delta":292900534},{"NoteNumber":49,"Velocity":28,"Duration":229935,"SoundDuration":229935,"Delta":292900534},{"NoteNumber":63,"Velocity":44,"Duration":428671,"SoundDuration":428671,"Delta":293112661},{"NoteNumber":48,"Velocity":30,"Duration":428671,"SoundDuration":428671,"Delta":293112661},{"NoteNumber":65,"Velocity":45,"Duration":670525,"SoundDuration":670525,"Delta":293541333},{"NoteNumber":49,"Velocity":36,"Duration":670525,"SoundDuration":670525,"Delta":293541333},{"NoteNumber":63,"Velocity":44,"Duration":220266,"SoundDuration":220266,"Delta":294193621},{"NoteNumber":48,"Velocity":37,"Duration":220266,"SoundDuration":220266,"Delta":294193621},{"NoteNumber":63,"Velocity":44,"Duration":444336,"SoundDuration":444336,"Delta":294413888},{"NoteNumber":48,"Velocity":37,"Duration":444336,"SoundDuration":444336,"Delta":294413888},{"NoteNumber":68,"Velocity":44,"Duration":1252609,"SoundDuration":1252609,"Delta":294858224},{"NoteNumber":60,"Velocity":39,"Duration":1252609,"SoundDuration":1252609,"Delta":294858224},{"NoteNumber":51,"Velocity":37,"Duration":1252609,"SoundDuration":1252609,"Delta":294858224},{"NoteNumber":61,"Velocity":39,"Duration":1047841,"SoundDuration":1047841,"Delta":296110834},{"NoteNumber":67,"Velocity":39,"Duration":1047841,"SoundDuration":1047841,"Delta":296110834},{"NoteNumber":70,"Velocity":44,"Duration":1047841,"SoundDuration":1047841,"Delta":296110834},{"NoteNumber":39,"Velocity":44,"Duration":1047841,"SoundDuration":1047841,"Delta":296110834},{"NoteNumber":51,"Velocity":37,"Duration":1047841,"SoundDuration":1047841,"Delta":296110834},{"NoteNumber":60,"Velocity":30,"Duration":264768,"SoundDuration":264768,"Delta":297158675},{"NoteNumber":68,"Velocity":35,"Duration":264768,"SoundDuration":264768,"Delta":297158675},{"NoteNumber":51,"Velocity":29,"Duration":264768,"SoundDuration":264768,"Delta":297158675},{"NoteNumber":44,"Velocity":29,"Duration":264768,"SoundDuration":264768,"Delta":297158675},{"NoteNumber":68,"Velocity":35,"Duration":1271908,"SoundDuration":1271908,"Delta":297423444},{"NoteNumber":60,"Velocity":30,"Duration":1271908,"SoundDuration":1271908,"Delta":297423444},{"NoteNumber":44,"Velocity":29,"Duration":1271908,"SoundDuration":1271908,"Delta":297423444},{"NoteNumber":51,"Velocity":29,"Duration":1271908,"SoundDuration":1271908,"Delta":297423444},{"NoteNumber":75,"Velocity":29,"Duration":228067,"SoundDuration":228067,"Delta":298467285},{"NoteNumber":75,"Velocity":29,"Duration":3609837,"SoundDuration":3609837,"Delta":298695353},{"NoteNumber":63,"Velocity":30,"Duration":225015,"SoundDuration":225015,"Delta":299740355},{"NoteNumber":68,"Velocity":35,"Duration":225015,"SoundDuration":225015,"Delta":299740355},{"NoteNumber":60,"Velocity":29,"Duration":225015,"SoundDuration":225015,"Delta":299740355},{"NoteNumber":51,"Velocity":29,"Duration":225015,"SoundDuration":225015,"Delta":299740355},{"NoteNumber":68,"Velocity":35,"Duration":643702,"SoundDuration":643702,"Delta":299965370},{"NoteNumber":63,"Velocity":30,"Duration":643702,"SoundDuration":643702,"Delta":299965370},{"NoteNumber":51,"Velocity":37,"Duration":626304,"SoundDuration":626304,"Delta":299965370},{"NoteNumber":60,"Velocity":29,"Duration":643702,"SoundDuration":643702,"Delta":299965370},{"NoteNumber":70,"Velocity":35,"Duration":227773,"SoundDuration":227773,"Delta":300591675},{"NoteNumber":65,"Velocity":30,"Duration":227773,"SoundDuration":227773,"Delta":300591675},{"NoteNumber":61,"Velocity":29,"Duration":227773,"SoundDuration":227773,"Delta":300591675},{"NoteNumber":51,"Velocity":29,"Duration":208768,"SoundDuration":208768,"Delta":300591675},{"NoteNumber":63,"Velocity":30,"Duration":454957,"SoundDuration":454957,"Delta":300800443},{"NoteNumber":68,"Velocity":35,"Duration":454957,"SoundDuration":454957,"Delta":300800443},{"NoteNumber":51,"Velocity":29,"Duration":454957,"SoundDuration":454957,"Delta":300800443},{"NoteNumber":60,"Velocity":29,"Duration":454957,"SoundDuration":454957,"Delta":300800443},{"NoteNumber":65,"Velocity":27,"Duration":2338089,"SoundDuration":2338089,"Delta":301255401},{"NoteNumber":70,"Velocity":30,"Duration":2338089,"SoundDuration":2338089,"Delta":301255401},{"NoteNumber":51,"Velocity":25,"Duration":2338089,"SoundDuration":2338089,"Delta":301255401},{"NoteNumber":61,"Velocity":25,"Duration":2338089,"SoundDuration":2338089,"Delta":301255401},{"NoteNumber":75,"Velocity":27,"Duration":244459,"SoundDuration":244459,"Delta":302305191},{"NoteNumber":75,"Velocity":27,"Duration":3595602,"SoundDuration":3595602,"Delta":302549650},{"NoteNumber":61,"Velocity":30,"Duration":224282,"SoundDuration":224282,"Delta":303593491},{"NoteNumber":67,"Velocity":35,"Duration":224282,"SoundDuration":224282,"Delta":303593491},{"NoteNumber":58,"Velocity":29,"Duration":224282,"SoundDuration":224282,"Delta":303593491},{"NoteNumber":51,"Velocity":29,"Duration":224282,"SoundDuration":224282,"Delta":303593491},{"NoteNumber":67,"Velocity":35,"Duration":643702,"SoundDuration":643702,"Delta":303817773},{"NoteNumber":61,"Velocity":30,"Duration":643702,"SoundDuration":643702,"Delta":303817773},{"NoteNumber":58,"Velocity":29,"Duration":643702,"SoundDuration":643702,"Delta":303817773},{"NoteNumber":51,"Velocity":29,"Duration":626304,"SoundDuration":626304,"Delta":303817773},{"NoteNumber":63,"Velocity":30,"Duration":227458,"SoundDuration":227458,"Delta":304444078},{"NoteNumber":68,"Velocity":35,"Duration":227458,"SoundDuration":227458,"Delta":304444078},{"NoteNumber":60,"Velocity":29,"Duration":227458,"SoundDuration":227458,"Delta":304444078},{"NoteNumber":51,"Velocity":29,"Duration":208768,"SoundDuration":208768,"Delta":304444078},{"NoteNumber":70,"Velocity":35,"Duration":448564,"SoundDuration":448564,"Delta":304652846},{"NoteNumber":65,"Velocity":30,"Duration":448564,"SoundDuration":448564,"Delta":304652846},{"NoteNumber":51,"Velocity":29,"Duration":448564,"SoundDuration":448564,"Delta":304652846},{"NoteNumber":61,"Velocity":29,"Duration":448564,"SoundDuration":448564,"Delta":304652846},{"NoteNumber":68,"Velocity":30,"Duration":2332141,"SoundDuration":2332141,"Delta":305101411},{"NoteNumber":63,"Velocity":27,"Duration":2332141,"SoundDuration":2332141,"Delta":305101411},{"NoteNumber":60,"Velocity":24,"Duration":2332141,"SoundDuration":2332141,"Delta":305101411},{"NoteNumber":51,"Velocity":24,"Duration":2332141,"SoundDuration":2332141,"Delta":305101411},{"NoteNumber":75,"Velocity":27,"Duration":244459,"SoundDuration":244459,"Delta":306145252},{"NoteNumber":75,"Velocity":27,"Duration":3909382,"SoundDuration":3909382,"Delta":306389711},{"NoteNumber":63,"Velocity":35,"Duration":224282,"SoundDuration":224282,"Delta":307433552},{"NoteNumber":51,"Velocity":29,"Duration":224282,"SoundDuration":224282,"Delta":307433552},{"NoteNumber":60,"Velocity":29,"Duration":224282,"SoundDuration":224282,"Delta":307433552},{"NoteNumber":63,"Velocity":35,"Duration":649228,"SoundDuration":649228,"Delta":307657834},{"NoteNumber":60,"Velocity":29,"Duration":649228,"SoundDuration":649228,"Delta":307657834},{"NoteNumber":51,"Velocity":29,"Duration":631371,"SoundDuration":631371,"Delta":307657834},{"NoteNumber":65,"Velocity":42,"Duration":232785,"SoundDuration":232785,"Delta":308289206},{"NoteNumber":61,"Velocity":34,"Duration":232785,"SoundDuration":232785,"Delta":308289206},{"NoteNumber":51,"Velocity":29,"Duration":214799,"SoundDuration":214799,"Delta":308289206},{"NoteNumber":63,"Velocity":44,"Duration":435591,"SoundDuration":435591,"Delta":308504005},{"NoteNumber":51,"Velocity":30,"Duration":435591,"SoundDuration":435591,"Delta":308504005},{"NoteNumber":60,"Velocity":30,"Duration":435591,"SoundDuration":435591,"Delta":308504005},{"NoteNumber":68,"Velocity":45,"Duration":688968,"SoundDuration":688968,"Delta":308939597},{"NoteNumber":65,"Velocity":39,"Duration":688968,"SoundDuration":688968,"Delta":308939597},{"NoteNumber":61,"Velocity":42,"Duration":688968,"SoundDuration":688968,"Delta":308939597},{"NoteNumber":51,"Velocity":36,"Duration":670028,"SoundDuration":670028,"Delta":308939597},{"NoteNumber":63,"Velocity":44,"Duration":228140,"SoundDuration":228140,"Delta":309609625},{"NoteNumber":51,"Velocity":37,"Duration":228140,"SoundDuration":228140,"Delta":309609625},{"NoteNumber":60,"Velocity":37,"Duration":228140,"SoundDuration":228140,"Delta":309609625},{"NoteNumber":63,"Velocity":44,"Duration":461327,"SoundDuration":461327,"Delta":309837766},{"NoteNumber":60,"Velocity":37,"Duration":461327,"SoundDuration":461327,"Delta":309837766},{"NoteNumber":51,"Velocity":37,"Duration":461327,"SoundDuration":461327,"Delta":309837766},{"NoteNumber":72,"Velocity":59,"Duration":1285714,"SoundDuration":1285714,"Delta":310299093},{"NoteNumber":75,"Velocity":67,"Duration":1285714,"SoundDuration":1285714,"Delta":310299093},{"NoteNumber":63,"Velocity":41,"Duration":1285714,"SoundDuration":1285714,"Delta":310299093},{"NoteNumber":51,"Velocity":41,"Duration":1285714,"SoundDuration":1285714,"Delta":310299093},{"NoteNumber":75,"Velocity":63,"Duration":1190476,"SoundDuration":1190476,"Delta":311584808},{"NoteNumber":70,"Velocity":63,"Duration":1190476,"SoundDuration":1190476,"Delta":311584808},{"NoteNumber":79,"Velocity":71,"Duration":1190476,"SoundDuration":1190476,"Delta":311584808},{"NoteNumber":61,"Velocity":47,"Duration":1190476,"SoundDuration":1190476,"Delta":311584808},{"NoteNumber":63,"Velocity":56,"Duration":1190476,"SoundDuration":1190476,"Delta":311584808},{"NoteNumber":51,"Velocity":47,"Duration":1190476,"SoundDuration":1190476,"Delta":311584808},{"NoteNumber":80,"Velocity":77,"Duration":274122,"SoundDuration":274122,"Delta":312775284},{"NoteNumber":75,"Velocity":68,"Duration":274122,"SoundDuration":274122,"Delta":312775284},{"NoteNumber":68,"Velocity":68,"Duration":274122,"SoundDuration":274122,"Delta":312775284},{"NoteNumber":60,"Velocity":53,"Duration":274122,"SoundDuration":274122,"Delta":312775284},{"NoteNumber":63,"Velocity":63,"Duration":274122,"SoundDuration":274122,"Delta":312775284},{"NoteNumber":56,"Velocity":53,"Duration":274122,"SoundDuration":274122,"Delta":312775284},{"NoteNumber":80,"Velocity":77,"Duration":4934209,"SoundDuration":4934209,"Delta":313049407},{"NoteNumber":68,"Velocity":68,"Duration":4934209,"SoundDuration":4934209,"Delta":313049407},{"NoteNumber":75,"Velocity":68,"Duration":4934209,"SoundDuration":4934209,"Delta":313049407},{"NoteNumber":60,"Velocity":54,"Duration":4934209,"SoundDuration":4934209,"Delta":313049407},{"NoteNumber":63,"Velocity":64,"Duration":4934209,"SoundDuration":4934209,"Delta":313049407},{"NoteNumber":56,"Velocity":54,"Duration":4934209,"SoundDuration":4934209,"Delta":313049407}]}