{"title":"Piano Sonata in B-flat major, D 960: II. Andante sostenuto","artist":"Schubert","durationMs":507931,"midiSha256":"fe950ae8f6f6b8f9f5ca0d85bfd1409bff0f23db079d82a8b9512332b68acd11","midiObject":[{"NoteNumber":64,"Velocity":33,"Duration":2494210,"SoundDuration":2494210,"Delta":0},{"NoteNumber":68,"Velocity":39,"Duration":2494210,"SoundDuration":2494210,"Delta":0},{"NoteNumber":37,"Velocity":26,"Duration":616396,"SoundDuration":616396,"Delta":0},{"NoteNumber":49,"Velocity":22,"Duration":154099,"SoundDuration":154099,"Delta":1078693},{"NoteNumber":61,"Velocity":27,"Duration":616396,"SoundDuration":616396,"Delta":1232792},{"NoteNumber":73,"Velocity":26,"Duration":645022,"SoundDuration":645022,"Delta":1849187},{"NoteNumber":64,"Velocity":29,"Duration":967533,"SoundDuration":967533,"Delta":2494210},{"NoteNumber":68,"Velocity":34,"Duration":967533,"SoundDuration":967533,"Delta":2494210},{"NoteNumber":66,"Velocity":34,"Duration":322511,"SoundDuration":322511,"Delta":3461744},{"NoteNumber":63,"Velocity":28,"Duration":322511,"SoundDuration":322511,"Delta":3461744},{"NoteNumber":63,"Velocity":34,"Duration":2488438,"SoundDuration":2488438,"Delta":3784255},{"NoteNumber":66,"Velocity":41,"Duration":2488438,"SoundDuration":2488438,"Delta":3784255},{"NoteNumber":37,"Velocity":26,"Duration":616396,"SoundDuration":616396,"Delta":3784255},{"NoteNumber":49,"Velocity":22,"Duration":154099,"SoundDuration":154099,"Delta":4862948},{"NoteNumber":61,"Velocity":27,"Duration":616396,"SoundDuration":616396,"Delta":5017047},{"NoteNumber":73,"Velocity":26,"Duration":639249,"SoundDuration":639249,"Delta":5633443},{"NoteNumber":66,"Velocity":37,"Duration":1278500,"SoundDuration":1278500,"Delta":6272693},{"NoteNumber":63,"Velocity":31,"Duration":1278500,"SoundDuration":1278500,"Delta":6272693},{"NoteNumber":69,"Velocity":41,"Duration":2488438,"SoundDuration":2488438,"Delta":7551193},{"NoteNumber":66,"Velocity":34,"Duration":2488438,"SoundDuration":2488438,"Delta":7551193},{"NoteNumber":37,"Velocity":26,"Duration":616396,"SoundDuration":616396,"Delta":7551193},{"NoteNumber":49,"Velocity":22,"Duration":154099,"SoundDuration":154099,"Delta":8629886},{"NoteNumber":61,"Velocity":27,"Duration":616396,"SoundDuration":616396,"Delta":8783985},{"NoteNumber":73,"Velocity":28,"Duration":639250,"SoundDuration":639250,"Delta":9400381},{"NoteNumber":66,"Velocity":28,"Duration":639249,"SoundDuration":639249,"Delta":10039631},{"NoteNumber":69,"Velocity":33,"Duration":639249,"SoundDuration":639249,"Delta":10039631},{"NoteNumber":68,"Velocity":30,"Duration":319625,"SoundDuration":319625,"Delta":10678881},{"NoteNumber":64,"Velocity":25,"Duration":319625,"SoundDuration":319625,"Delta":10678881},{"NoteNumber":63,"Velocity":23,"Duration":319625,"SoundDuration":319625,"Delta":10998506},{"NoteNumber":66,"Velocity":28,"Duration":319625,"SoundDuration":319625,"Delta":10998506},{"NoteNumber":68,"Velocity":39,"Duration":2488438,"SoundDuration":2488438,"Delta":11318131},{"NoteNumber":64,"Velocity":33,"Duration":2488438,"SoundDuration":2488438,"Delta":11318131},{"NoteNumber":37,"Velocity":26,"Duration":616396,"SoundDuration":616396,"Delta":11318131},{"NoteNumber":49,"Velocity":22,"Duration":154099,"SoundDuration":154099,"Delta":12396824},{"NoteNumber":61,"Velocity":27,"Duration":616396,"SoundDuration":616396,"Delta":12550923},{"NoteNumber":73,"Velocity":28,"Duration":639250,"SoundDuration":639250,"Delta":13167319},{"NoteNumber":64,"Velocity":29,"Duration":1278499,"SoundDuration":1278499,"Delta":13806569},{"NoteNumber":68,"Velocity":34,"Duration":1278499,"SoundDuration":1278499,"Delta":13806569},{"NoteNumber":65,"Velocity":34,"Duration":2488438,"SoundDuration":2488438,"Delta":15085069},{"NoteNumber":71,"Velocity":41,"Duration":2488438,"SoundDuration":2488438,"Delta":15085069},{"NoteNumber":37,"Velocity":26,"Duration":616396,"SoundDuration":616396,"Delta":15085069},{"NoteNumber":49,"Velocity":22,"Duration":154098,"SoundDuration":154098,"Delta":16163762},{"NoteNumber":61,"Velocity":27,"Duration":616396,"SoundDuration":616396,"Delta":16317861},{"NoteNumber":73,"Velocity":34,"Duration":639250,"SoundDuration":639250,"Delta":16934257},{"NoteNumber":65,"Velocity":28,"Duration":305997,"SoundDuration":305997,"Delta":17573507},{"NoteNumber":71,"Velocity":33,"Duration":611995,"SoundDuration":611995,"Delta":17573507},{"NoteNumber":68,"Velocity":28,"Duration":305997,"SoundDuration":305997,"Delta":17879505},{"NoteNumber":69,"Velocity":30,"Duration":305997,"SoundDuration":305997,"Delta":18185502},{"NoteNumber":66,"Velocity":25,"Duration":305997,"SoundDuration":305997,"Delta":18185502},{"NoteNumber":68,"Velocity":28,"Duration":328299,"SoundDuration":328299,"Delta":18491500},{"NoteNumber":65,"Velocity":23,"Duration":328299,"SoundDuration":328299,"Delta":18491500},{"NoteNumber":66,"Velocity":34,"Duration":1849187,"SoundDuration":1849187,"Delta":18819799},{"NoteNumber":69,"Velocity":41,"Duration":1849187,"SoundDuration":1849187,"Delta":18819799},{"NoteNumber":37,"Velocity":26,"Duration":616396,"SoundDuration":616396,"Delta":18819799},{"NoteNumber":49,"Velocity":22,"Duration":154098,"SoundDuration":154098,"Delta":19898492},{"NoteNumber":61,"Velocity":27,"Duration":616395,"SoundDuration":616395,"Delta":20052591},{"NoteNumber":73,"Velocity":34,"Duration":607287,"SoundDuration":607287,"Delta":20668987},{"NoteNumber":66,"Velocity":23,"Duration":607287,"SoundDuration":607287,"Delta":20668987},{"NoteNumber":69,"Velocity":28,"Duration":607287,"SoundDuration":607287,"Delta":20668987},{"NoteNumber":66,"Velocity":34,"Duration":607287,"SoundDuration":607287,"Delta":21308237},{"NoteNumber":69,"Velocity":40,"Duration":607287,"SoundDuration":607287,"Delta":21308237},{"NoteNumber":69,"Velocity":41,"Duration":642905,"SoundDuration":642905,"Delta":21947487},{"NoteNumber":66,"Velocity":34,"Duration":642905,"SoundDuration":642905,"Delta":21947487},{"NoteNumber":73,"Velocity":49,"Duration":2479792,"SoundDuration":2479792,"Delta":22624230},{"NoteNumber":69,"Velocity":41,"Duration":2479792,"SoundDuration":2479792,"Delta":22624230},{"NoteNumber":37,"Velocity":31,"Duration":616395,"SoundDuration":616395,"Delta":22624230},{"NoteNumber":49,"Velocity":25,"Duration":154098,"SoundDuration":154098,"Delta":23702923},{"NoteNumber":61,"Velocity":30,"Duration":616396,"SoundDuration":616396,"Delta":23857022},{"NoteNumber":73,"Velocity":38,"Duration":630604,"SoundDuration":630604,"Delta":24473418},{"NoteNumber":69,"Velocity":33,"Duration":950169,"SoundDuration":950169,"Delta":25104022},{"NoteNumber":73,"Velocity":39,"Duration":950169,"SoundDuration":950169,"Delta":25104022},{"NoteNumber":69,"Velocity":28,"Duration":348675,"SoundDuration":348675,"Delta":26054191},{"NoteNumber":66,"Velocity":23,"Duration":348675,"SoundDuration":348675,"Delta":26054191},{"NoteNumber":64,"Velocity":30,"Duration":3127687,"SoundDuration":3127687,"Delta":26402866},{"NoteNumber":68,"Velocity":37,"Duration":3127687,"SoundDuration":3127687,"Delta":26402866},{"NoteNumber":37,"Velocity":26,"Duration":616396,"SoundDuration":616396,"Delta":26402866},{"NoteNumber":49,"Velocity":22,"Duration":154098,"SoundDuration":154098,"Delta":27481559},{"NoteNumber":61,"Velocity":27,"Duration":616395,"SoundDuration":616395,"Delta":27635658},{"NoteNumber":73,"Velocity":28,"Duration":639250,"SoundDuration":639250,"Delta":28252054},{"NoteNumber":64,"Velocity":34,"Duration":639249,"SoundDuration":639249,"Delta":29530554},{"NoteNumber":68,"Velocity":41,"Duration":639249,"SoundDuration":639249,"Delta":29530554},{"NoteNumber":64,"Velocity":42,"Duration":924593,"SoundDuration":924593,"Delta":30169804},{"NoteNumber":69,"Velocity":42,"Duration":924593,"SoundDuration":924593,"Delta":30169804},{"NoteNumber":73,"Velocity":50,"Duration":924593,"SoundDuration":924593,"Delta":30169804},{"NoteNumber":32,"Velocity":28,"Duration":616396,"SoundDuration":616396,"Delta":30169804},{"NoteNumber":44,"Velocity":34,"Duration":616396,"SoundDuration":616396,"Delta":30169804},{"NoteNumber":72,"Velocity":44,"Duration":308198,"SoundDuration":308198,"Delta":31094398},{"NoteNumber":63,"Velocity":37,"Duration":308198,"SoundDuration":308198,"Delta":31094398},{"NoteNumber":68,"Velocity":37,"Duration":308198,"SoundDuration":308198,"Delta":31094398},{"NoteNumber":44,"Velocity":36,"Duration":154098,"SoundDuration":154098,"Delta":31248497},{"NoteNumber":63,"Velocity":42,"Duration":1867251,"SoundDuration":1867251,"Delta":31402596},{"NoteNumber":68,"Velocity":42,"Duration":1867251,"SoundDuration":1867251,"Delta":31402596},{"NoteNumber":72,"Velocity":49,"Duration":1867251,"SoundDuration":1867251,"Delta":31402596},{"NoteNumber":56,"Velocity":41,"Duration":600359,"SoundDuration":600359,"Delta":31402596},{"NoteNumber":80,"Velocity":43,"Duration":633445,"SoundDuration":633445,"Delta":32002956},{"NoteNumber":72,"Velocity":55,"Duration":633445,"SoundDuration":633445,"Delta":33269848},{"NoteNumber":68,"Velocity":45,"Duration":633445,"SoundDuration":633445,"Delta":33269848},{"NoteNumber":67,"Velocity":51,"Duration":924593,"SoundDuration":924593,"Delta":33903294},{"NoteNumber":73,"Velocity":51,"Duration":924593,"SoundDuration":924593,"Delta":33903294},{"NoteNumber":76,"Velocity":60,"Duration":924593,"SoundDuration":924593,"Delta":33903294},{"NoteNumber":32,"Velocity":35,"Duration":616396,"SoundDuration":616396,"Delta":33903294},{"NoteNumber":44,"Velocity":41,"Duration":616396,"SoundDuration":616396,"Delta":33903294},{"NoteNumber":72,"Velocity":45,"Duration":308197,"SoundDuration":308197,"Delta":34827888},{"NoteNumber":68,"Velocity":45,"Duration":308197,"SoundDuration":308197,"Delta":34827888},{"NoteNumber":75,"Velocity":53,"Duration":308197,"SoundDuration":308197,"Delta":34827888},{"NoteNumber":44,"Velocity":43,"Duration":154098,"SoundDuration":154098,"Delta":34981987},{"NoteNumber":68,"Velocity":50,"Duration":1873148,"SoundDuration":1873148,"Delta":35136086},{"NoteNumber":75,"Velocity":60,"Duration":1873148,"SoundDuration":1873148,"Delta":35136086},{"NoteNumber":72,"Velocity":50,"Duration":1873148,"SoundDuration":1873148,"Delta":35136086},{"NoteNumber":56,"Velocity":50,"Duration":594647,"SoundDuration":594647,"Delta":35136086},{"NoteNumber":80,"Velocity":53,"Duration":639249,"SoundDuration":639249,"Delta":35730734},{"NoteNumber":68,"Velocity":52,"Duration":657462,"SoundDuration":657462,"Delta":37009234},{"NoteNumber":72,"Velocity":52,"Duration":657462,"SoundDuration":657462,"Delta":37009234},{"NoteNumber":75,"Velocity":63,"Duration":657462,"SoundDuration":657462,"Delta":37009234},{"NoteNumber":80,"Velocity":69,"Duration":924593,"SoundDuration":924593,"Delta":37666696},{"NoteNumber":68,"Velocity":58,"Duration":924593,"SoundDuration":924593,"Delta":37666696},{"NoteNumber":76,"Velocity":58,"Duration":924593,"SoundDuration":924593,"Delta":37666696},{"NoteNumber":44,"Velocity":47,"Duration":616396,"SoundDuration":616396,"Delta":37666696},{"NoteNumber":32,"Velocity":39,"Duration":616396,"SoundDuration":616396,"Delta":37666696},{"NoteNumber":69,"Velocity":52,"Duration":308197,"SoundDuration":308197,"Delta":38591290},{"NoteNumber":75,"Velocity":52,"Duration":308197,"SoundDuration":308197,"Delta":38591290},{"NoteNumber":78,"Velocity":61,"Duration":308197,"SoundDuration":308197,"Delta":38591290},{"NoteNumber":44,"Velocity":49,"Duration":154098,"SoundDuration":154098,"Delta":38745389},{"NoteNumber":78,"Velocity":69,"Duration":1894896,"SoundDuration":1894896,"Delta":38899488},{"NoteNumber":75,"Velocity":58,"Duration":1894896,"SoundDuration":1894896,"Delta":38899488},{"NoteNumber":69,"Velocity":58,"Duration":1894896,"SoundDuration":1894896,"Delta":38899488},{"NoteNumber":56,"Velocity":57,"Duration":616396,"SoundDuration":616396,"Delta":38899488},{"NoteNumber":80,"Velocity":61,"Duration":639249,"SoundDuration":639249,"Delta":39515884},{"NoteNumber":69,"Velocity":60,"Duration":697350,"SoundDuration":697350,"Delta":40794384},{"NoteNumber":78,"Velocity":73,"Duration":697350,"SoundDuration":697350,"Delta":40794384},{"NoteNumber":75,"Velocity":60,"Duration":697350,"SoundDuration":697350,"Delta":40794384},{"NoteNumber":73,"Velocity":68,"Duration":924593,"SoundDuration":924593,"Delta":41491734},{"NoteNumber":76,"Velocity":68,"Duration":924593,"SoundDuration":924593,"Delta":41491734},{"NoteNumber":81,"Velocity":80,"Duration":924593,"SoundDuration":924593,"Delta":41491734},{"NoteNumber":44,"Velocity":55,"Duration":616396,"SoundDuration":616396,"Delta":41491734},{"NoteNumber":32,"Velocity":46,"Duration":616396,"SoundDuration":616396,"Delta":41491734},{"NoteNumber":80,"Velocity":68,"Duration":308198,"SoundDuration":308198,"Delta":42416328},{"NoteNumber":75,"Velocity":58,"Duration":308198,"SoundDuration":308198,"Delta":42416328},{"NoteNumber":72,"Velocity":58,"Duration":308198,"SoundDuration":308198,"Delta":42416328},{"NoteNumber":44,"Velocity":50,"Duration":154099,"SoundDuration":154099,"Delta":42570427},{"NoteNumber":72,"Velocity":65,"Duration":6338311,"SoundDuration":6338311,"Delta":42724526},{"NoteNumber":75,"Velocity":65,"Duration":6338311,"SoundDuration":6338311,"Delta":42724526},{"NoteNumber":80,"Velocity":77,"Duration":6338311,"SoundDuration":6338311,"Delta":42724526},{"NoteNumber":56,"Velocity":58,"Duration":616395,"SoundDuration":616395,"Delta":42724526},{"NoteNumber":68,"Velocity":56,"Duration":633445,"SoundDuration":633445,"Delta":43340922},{"NoteNumber":32,"Velocity":33,"Duration":623923,"SoundDuration":623923,"Delta":45241260},{"NoteNumber":44,"Velocity":40,"Duration":623923,"SoundDuration":623923,"Delta":45241260},{"NoteNumber":44,"Velocity":34,"Duration":155504,"SoundDuration":155504,"Delta":46331698},{"NoteNumber":56,"Velocity":39,"Duration":622019,"SoundDuration":622019,"Delta":46487203},{"NoteNumber":68,"Velocity":35,"Duration":645022,"SoundDuration":645022,"Delta":47109223},{"NoteNumber":76,"Velocity":34,"Duration":3127687,"SoundDuration":3127687,"Delta":49062838},{"NoteNumber":80,"Velocity":41,"Duration":3127687,"SoundDuration":3127687,"Delta":49062838},{"NoteNumber":71,"Velocity":34,"Duration":3127687,"SoundDuration":3127687,"Delta":49062838},{"NoteNumber":68,"Velocity":34,"Duration":3127687,"SoundDuration":3127687,"Delta":49062838},{"NoteNumber":32,"Velocity":22,"Duration":616396,"SoundDuration":616396,"Delta":49062838},{"NoteNumber":44,"Velocity":26,"Duration":616396,"SoundDuration":616396,"Delta":49062838},{"NoteNumber":47,"Velocity":22,"Duration":154098,"SoundDuration":154098,"Delta":50141531},{"NoteNumber":59,"Velocity":27,"Duration":616396,"SoundDuration":616396,"Delta":50295630},{"NoteNumber":88,"Velocity":35,"Duration":639249,"SoundDuration":639249,"Delta":50912026},{"NoteNumber":76,"Velocity":37,"Duration":639249,"SoundDuration":639249,"Delta":52190526},{"NoteNumber":71,"Velocity":30,"Duration":639249,"SoundDuration":639249,"Delta":52190526},{"NoteNumber":64,"Velocity":30,"Duration":639249,"SoundDuration":639249,"Delta":52190526},{"NoteNumber":64,"Velocity":34,"Duration":1232791,"SoundDuration":1232791,"Delta":52829776},{"NoteNumber":69,"Velocity":34,"Duration":1232791,"SoundDuration":1232791,"Delta":52829776},{"NoteNumber":75,"Velocity":41,"Duration":924593,"SoundDuration":924593,"Delta":52829776},{"NoteNumber":45,"Velocity":26,"Duration":616396,"SoundDuration":616396,"Delta":52829776},{"NoteNumber":33,"Velocity":22,"Duration":616396,"SoundDuration":616396,"Delta":52829776},{"NoteNumber":73,"Velocity":41,"Duration":308197,"SoundDuration":308197,"Delta":53754370},{"NoteNumber":49,"Velocity":22,"Duration":154098,"SoundDuration":154098,"Delta":53908469},{"NoteNumber":69,"Velocity":34,"Duration":1894896,"SoundDuration":1894896,"Delta":54062568},{"NoteNumber":64,"Velocity":34,"Duration":1894896,"SoundDuration":1894896,"Delta":54062568},{"NoteNumber":73,"Velocity":41,"Duration":1894896,"SoundDuration":1894896,"Delta":54062568},{"NoteNumber":61,"Velocity":27,"Duration":616396,"SoundDuration":616396,"Delta":54062568},{"NoteNumber":85,"Velocity":34,"Duration":639249,"SoundDuration":639249,"Delta":54678964},{"NoteNumber":73,"Velocity":37,"Duration":639249,"SoundDuration":639249,"Delta":55957464},{"NoteNumber":69,"Velocity":30,"Duration":639249,"SoundDuration":639249,"Delta":55957464},{"NoteNumber":64,"Velocity":30,"Duration":639249,"SoundDuration":639249,"Delta":55957464},{"NoteNumber":64,"Velocity":34,"Duration":924593,"SoundDuration":924593,"Delta":56596714},{"NoteNumber":66,"Velocity":34,"Duration":1232791,"SoundDuration":1232791,"Delta":56596714},{"NoteNumber":73,"Velocity":41,"Duration":924593,"SoundDuration":924593,"Delta":56596714},{"NoteNumber":47,"Velocity":26,"Duration":616396,"SoundDuration":616396,"Delta":56596714},{"NoteNumber":35,"Velocity":22,"Duration":616396,"SoundDuration":616396,"Delta":56596714},{"NoteNumber":71,"Velocity":41,"Duration":308197,"SoundDuration":308197,"Delta":57521308},{"NoteNumber":63,"Velocity":38,"Duration":308197,"SoundDuration":308197,"Delta":57521308},{"NoteNumber":47,"Velocity":22,"Duration":154098,"SoundDuration":154098,"Delta":57675407},{"NoteNumber":63,"Velocity":34,"Duration":1894896,"SoundDuration":1894896,"Delta":57829506},{"NoteNumber":66,"Velocity":34,"Duration":1894896,"SoundDuration":1894896,"Delta":57829506},{"NoteNumber":71,"Velocity":41,"Duration":1894896,"SoundDuration":1894896,"Delta":57829506},{"NoteNumber":59,"Velocity":27,"Duration":616396,"SoundDuration":616396,"Delta":57829506},{"NoteNumber":83,"Velocity":30,"Duration":639249,"SoundDuration":639249,"Delta":58445902},{"NoteNumber":69,"Velocity":34,"Duration":639249,"SoundDuration":639249,"Delta":59724402},{"NoteNumber":64,"Velocity":28,"Duration":639249,"SoundDuration":639249,"Delta":59724402},{"NoteNumber":61,"Velocity":28,"Duration":639249,"SoundDuration":639249,"Delta":59724402},{"NoteNumber":59,"Velocity":28,"Duration":1255645,"SoundDuration":1255645,"Delta":60363652},{"NoteNumber":64,"Velocity":28,"Duration":1255645,"SoundDuration":1255645,"Delta":60363652},{"NoteNumber":68,"Velocity":34,"Duration":1255645,"SoundDuration":1255645,"Delta":60363652},{"NoteNumber":40,"Velocity":26,"Duration":616396,"SoundDuration":616396,"Delta":60363652},{"NoteNumber":47,"Velocity":22,"Duration":159812,"SoundDuration":159812,"Delta":61459485},{"NoteNumber":59,"Velocity":25,"Duration":2557000,"SoundDuration":2557000,"Delta":61619298},{"NoteNumber":56,"Velocity":25,"Duration":2557000,"SoundDuration":2557000,"Delta":61619298},{"NoteNumber":64,"Velocity":30,"Duration":2557000,"SoundDuration":2557000,"Delta":61619298},{"NoteNumber":52,"Velocity":27,"Duration":639250,"SoundDuration":639250,"Delta":61619298},{"NoteNumber":76,"Velocity":27,"Duration":639249,"SoundDuration":639249,"Delta":62258548},{"NoteNumber":68,"Velocity":39,"Duration":2494210,"SoundDuration":2494210,"Delta":64176298},{"NoteNumber":64,"Velocity":33,"Duration":2494210,"SoundDuration":2494210,"Delta":64176298},{"NoteNumber":40,"Velocity":26,"Duration":616395,"SoundDuration":616395,"Delta":64176298},{"NoteNumber":47,"Velocity":22,"Duration":154099,"SoundDuration":154099,"Delta":65254991},{"NoteNumber":59,"Velocity":27,"Duration":616395,"SoundDuration":616395,"Delta":65409090},{"NoteNumber":71,"Velocity":27,"Duration":645022,"SoundDuration":645022,"Delta":66025486},{"NoteNumber":64,"Velocity":29,"Duration":967533,"SoundDuration":967533,"Delta":66670508},{"NoteNumber":68,"Velocity":34,"Duration":967533,"SoundDuration":967533,"Delta":66670508},{"NoteNumber":63,"Velocity":28,"Duration":322511,"SoundDuration":322511,"Delta":67638042},{"NoteNumber":66,"Velocity":34,"Duration":322511,"SoundDuration":322511,"Delta":67638042},{"NoteNumber":66,"Velocity":41,"Duration":2488438,"SoundDuration":2488438,"Delta":67960553},{"NoteNumber":63,"Velocity":34,"Duration":2488438,"SoundDuration":2488438,"Delta":67960553},{"NoteNumber":40,"Velocity":26,"Duration":616395,"SoundDuration":616395,"Delta":67960553},{"NoteNumber":47,"Velocity":22,"Duration":154099,"SoundDuration":154099,"Delta":69039246},{"NoteNumber":59,"Velocity":27,"Duration":616395,"SoundDuration":616395,"Delta":69193345},{"NoteNumber":71,"Velocity":27,"Duration":639250,"SoundDuration":639250,"Delta":69809741},{"NoteNumber":63,"Velocity":31,"Duration":1278499,"SoundDuration":1278499,"Delta":70448991},{"NoteNumber":66,"Velocity":37,"Duration":1278499,"SoundDuration":1278499,"Delta":70448991},{"NoteNumber":61,"Velocity":34,"Duration":2488438,"SoundDuration":2488438,"Delta":71727491},{"NoteNumber":69,"Velocity":41,"Duration":2488438,"SoundDuration":2488438,"Delta":71727491},{"NoteNumber":40,"Velocity":26,"Duration":616395,"SoundDuration":616395,"Delta":71727491},{"NoteNumber":47,"Velocity":22,"Duration":154099,"SoundDuration":154099,"Delta":72806184},{"NoteNumber":59,"Velocity":27,"Duration":616395,"SoundDuration":616395,"Delta":72960283},{"NoteNumber":71,"Velocity":27,"Duration":639250,"SoundDuration":639250,"Delta":73576679},{"NoteNumber":63,"Velocity":28,"Duration":309023,"SoundDuration":309023,"Delta":74215929},{"NoteNumber":69,"Velocity":33,"Duration":618047,"SoundDuration":618047,"Delta":74215929},{"NoteNumber":66,"Velocity":24,"Duration":309023,"SoundDuration":309023,"Delta":74524953},{"NoteNumber":68,"Velocity":30,"Duration":318403,"SoundDuration":318403,"Delta":74833976},{"NoteNumber":64,"Velocity":25,"Duration":318403,"SoundDuration":318403,"Delta":74833976},{"NoteNumber":63,"Velocity":23,"Duration":346340,"SoundDuration":346340,"Delta":75152380},{"NoteNumber":66,"Velocity":28,"Duration":346340,"SoundDuration":346340,"Delta":75152380},{"NoteNumber":68,"Velocity":39,"Duration":2488438,"SoundDuration":2488438,"Delta":75498720},{"NoteNumber":64,"Velocity":33,"Duration":2488438,"SoundDuration":2488438,"Delta":75498720},{"NoteNumber":40,"Velocity":26,"Duration":616395,"SoundDuration":616395,"Delta":75498720},{"NoteNumber":47,"Velocity":22,"Duration":154099,"SoundDuration":154099,"Delta":76577413},{"NoteNumber":59,"Velocity":27,"Duration":616395,"SoundDuration":616395,"Delta":76731512},{"NoteNumber":71,"Velocity":26,"Duration":639250,"SoundDuration":639250,"Delta":77347908},{"NoteNumber":64,"Velocity":32,"Duration":1278499,"SoundDuration":1278499,"Delta":77987158},{"NoteNumber":68,"Velocity":38,"Duration":1278499,"SoundDuration":1278499,"Delta":77987158},{"NoteNumber":62,"Velocity":42,"Duration":2488438,"SoundDuration":2488438,"Delta":79265658},{"NoteNumber":71,"Velocity":50,"Duration":2488438,"SoundDuration":2488438,"Delta":79265658},{"NoteNumber":68,"Velocity":42,"Duration":2488438,"SoundDuration":2488438,"Delta":79265658},{"NoteNumber":40,"Velocity":31,"Duration":616395,"SoundDuration":616395,"Delta":79265658},{"NoteNumber":52,"Velocity":30,"Duration":154099,"SoundDuration":154099,"Delta":80344351},{"NoteNumber":64,"Velocity":36,"Duration":616395,"SoundDuration":616395,"Delta":80498450},{"NoteNumber":76,"Velocity":42,"Duration":639250,"SoundDuration":639250,"Delta":81114846},{"NoteNumber":62,"Velocity":33,"Duration":976774,"SoundDuration":976774,"Delta":81754096},{"NoteNumber":68,"Velocity":33,"Duration":976774,"SoundDuration":976774,"Delta":81754096},{"NoteNumber":71,"Velocity":39,"Duration":976774,"SoundDuration":976774,"Delta":81754096},{"NoteNumber":61,"Velocity":28,"Duration":325591,"SoundDuration":325591,"Delta":82730871},{"NoteNumber":69,"Velocity":35,"Duration":325591,"SoundDuration":325591,"Delta":82730871},{"NoteNumber":69,"Velocity":50,"Duration":1849187,"SoundDuration":1849187,"Delta":83056462},{"NoteNumber":61,"Velocity":42,"Duration":1849187,"SoundDuration":1849187,"Delta":83056462},{"NoteNumber":40,"Velocity":31,"Duration":616395,"SoundDuration":616395,"Delta":83056462},{"NoteNumber":52,"Velocity":30,"Duration":154099,"SoundDuration":154099,"Delta":84135155},{"NoteNumber":64,"Velocity":36,"Duration":616395,"SoundDuration":616395,"Delta":84289254},{"NoteNumber":61,"Velocity":28,"Duration":639250,"SoundDuration":639250,"Delta":84905650},{"NoteNumber":69,"Velocity":35,"Duration":639250,"SoundDuration":639250,"Delta":84905650},{"NoteNumber":76,"Velocity":42,"Duration":639250,"SoundDuration":639250,"Delta":84905650},{"NoteNumber":69,"Velocity":49,"Duration":639249,"SoundDuration":639249,"Delta":85544900},{"NoteNumber":61,"Velocity":41,"Duration":639249,"SoundDuration":639249,"Delta":85544900},{"NoteNumber":61,"Velocity":41,"Duration":676742,"SoundDuration":676742,"Delta":86184150},{"NoteNumber":69,"Velocity":50,"Duration":676742,"SoundDuration":676742,"Delta":86184150},{"NoteNumber":73,"Velocity":59,"Duration":2479792,"SoundDuration":2479792,"Delta":86860893},{"NoteNumber":69,"Velocity":50,"Duration":2479792,"SoundDuration":2479792,"Delta":86860893},{"NoteNumber":63,"Velocity":50,"Duration":2479792,"SoundDuration":2479792,"Delta":86860893},{"NoteNumber":40,"Velocity":37,"Duration":616395,"SoundDuration":616395,"Delta":86860893},{"NoteNumber":52,"Velocity":33,"Duration":154099,"SoundDuration":154099,"Delta":87939586},{"NoteNumber":64,"Velocity":40,"Duration":616395,"SoundDuration":616395,"Delta":88093685},{"NoteNumber":76,"Velocity":43,"Duration":630604,"SoundDuration":630604,"Delta":88710081},{"NoteNumber":63,"Velocity":36,"Duration":950169,"SoundDuration":950169,"Delta":89340685},{"NoteNumber":69,"Velocity":36,"Duration":950169,"SoundDuration":950169,"Delta":89340685},{"NoteNumber":73,"Velocity":44,"Duration":950169,"SoundDuration":950169,"Delta":89340685},{"NoteNumber":68,"Velocity":28,"Duration":331241,"SoundDuration":331241,"Delta":90290854},{"NoteNumber":64,"Velocity":28,"Duration":331241,"SoundDuration":331241,"Delta":90290854},{"NoteNumber":71,"Velocity":34,"Duration":331241,"SoundDuration":331241,"Delta":90290854},{"NoteNumber":68,"Velocity":41,"Duration":3127687,"SoundDuration":3127687,"Delta":90639529},{"NoteNumber":71,"Velocity":49,"Duration":3127687,"SoundDuration":3127687,"Delta":90639529},{"NoteNumber":64,"Velocity":41,"Duration":3127687,"SoundDuration":3127687,"Delta":90639529},{"NoteNumber":40,"Velocity":31,"Duration":616395,"SoundDuration":616395,"Delta":90639529},{"NoteNumber":52,"Velocity":30,"Duration":154099,"SoundDuration":154099,"Delta":91718222},{"NoteNumber":64,"Velocity":36,"Duration":616395,"SoundDuration":616395,"Delta":91872321},{"NoteNumber":76,"Velocity":34,"Duration":639250,"SoundDuration":639250,"Delta":92488717},{"NoteNumber":68,"Velocity":42,"Duration":639250,"SoundDuration":639250,"Delta":93767217},{"NoteNumber":64,"Velocity":42,"Duration":639250,"SoundDuration":639250,"Delta":93767217},{"NoteNumber":71,"Velocity":51,"Duration":639250,"SoundDuration":639250,"Delta":93767217},{"NoteNumber":76,"Velocity":61,"Duration":924593,"SoundDuration":924593,"Delta":94406467},{"NoteNumber":68,"Velocity":52,"Duration":924593,"SoundDuration":924593,"Delta":94406467},{"NoteNumber":71,"Velocity":52,"Duration":924593,"SoundDuration":924593,"Delta":94406467},{"NoteNumber":35,"Velocity":35,"Duration":616395,"SoundDuration":616395,"Delta":94406467},{"NoteNumber":47,"Velocity":42,"Duration":616395,"SoundDuration":616395,"Delta":94406467},{"NoteNumber":66,"Velocity":46,"Duration":308198,"SoundDuration":308198,"Delta":95331061},{"NoteNumber":71,"Velocity":46,"Duration":308198,"SoundDuration":308198,"Delta":95331061},{"NoteNumber":75,"Velocity":54,"Duration":308198,"SoundDuration":308198,"Delta":95331061},{"NoteNumber":47,"Velocity":44,"Duration":154099,"SoundDuration":154099,"Delta":95485160},{"NoteNumber":75,"Velocity":61,"Duration":1883287,"SoundDuration":1883287,"Delta":95639259},{"NoteNumber":71,"Velocity":51,"Duration":1883287,"SoundDuration":1883287,"Delta":95639259},{"NoteNumber":66,"Velocity":51,"Duration":1883287,"SoundDuration":1883287,"Delta":95639259},{"NoteNumber":59,"Velocity":50,"Duration":616395,"SoundDuration":616395,"Delta":95639259},{"NoteNumber":83,"Velocity":53,"Duration":633446,"SoundDuration":633446,"Delta":96255655},{"NoteNumber":66,"Velocity":54,"Duration":633446,"SoundDuration":633446,"Delta":97522547},{"NoteNumber":75,"Velocity":66,"Duration":633446,"SoundDuration":633446,"Delta":97522547},{"NoteNumber":71,"Velocity":54,"Duration":633446,"SoundDuration":633446,"Delta":97522547},{"NoteNumber":71,"Velocity":60,"Duration":1232792,"SoundDuration":1232792,"Delta":98155993},{"NoteNumber":76,"Velocity":60,"Duration":924593,"SoundDuration":924593,"Delta":98155993},{"NoteNumber":80,"Velocity":71,"Duration":924593,"SoundDuration":924593,"Delta":98155993},{"NoteNumber":35,"Velocity":41,"Duration":616395,"SoundDuration":616395,"Delta":98155993},{"NoteNumber":47,"Velocity":49,"Duration":616395,"SoundDuration":616395,"Delta":98155993},{"NoteNumber":78,"Velocity":63,"Duration":292788,"SoundDuration":292788,"Delta":99080587},{"NoteNumber":75,"Velocity":54,"Duration":292788,"SoundDuration":292788,"Delta":99080587},{"NoteNumber":47,"Velocity":51,"Duration":154099,"SoundDuration":154099,"Delta":99234686},{"NoteNumber":75,"Velocity":60,"Duration":1894895,"SoundDuration":1894895,"Delta":99388785},{"NoteNumber":71,"Velocity":60,"Duration":1894895,"SoundDuration":1894895,"Delta":99388785},{"NoteNumber":78,"Velocity":71,"Duration":1894895,"SoundDuration":1894895,"Delta":99388785},{"NoteNumber":59,"Velocity":59,"Duration":616395,"SoundDuration":616395,"Delta":99388785},{"NoteNumber":83,"Velocity":62,"Duration":639250,"SoundDuration":639250,"Delta":100005181},{"NoteNumber":80,"Velocity":74,"Duration":657461,"SoundDuration":657461,"Delta":101283681},{"NoteNumber":71,"Velocity":61,"Duration":657461,"SoundDuration":657461,"Delta":101283681},{"NoteNumber":76,"Velocity":61,"Duration":657461,"SoundDuration":657461,"Delta":101283681},{"NoteNumber":76,"Velocity":68,"Duration":924593,"SoundDuration":924593,"Delta":101941143},{"NoteNumber":80,"Velocity":68,"Duration":924593,"SoundDuration":924593,"Delta":101941143},{"NoteNumber":85,"Velocity":80,"Duration":924593,"SoundDuration":924593,"Delta":101941143},{"NoteNumber":35,"Velocity":46,"Duration":616395,"SoundDuration":616395,"Delta":101941143},{"NoteNumber":47,"Velocity":55,"Duration":616395,"SoundDuration":616395,"Delta":101941143},{"NoteNumber":83,"Velocity":70,"Duration":292788,"SoundDuration":292788,"Delta":102865737},{"NoteNumber":78,"Velocity":60,"Duration":292788,"SoundDuration":292788,"Delta":102865737},{"NoteNumber":75,"Velocity":60,"Duration":292788,"SoundDuration":292788,"Delta":102865737},{"NoteNumber":47,"Velocity":52,"Duration":154099,"SoundDuration":154099,"Delta":103019836},{"NoteNumber":75,"Velocity":67,"Duration":6319764,"SoundDuration":6319764,"Delta":103173935},{"NoteNumber":78,"Velocity":67,"Duration":6319764,"SoundDuration":6319764,"Delta":103173935},{"NoteNumber":83,"Velocity":79,"Duration":5674741,"SoundDuration":5674741,"Delta":103173935},{"NoteNumber":59,"Velocity":60,"Duration":616395,"SoundDuration":616395,"Delta":103173935},{"NoteNumber":71,"Velocity":59,"Duration":633446,"SoundDuration":633446,"Delta":103790331},{"NoteNumber":35,"Velocity":36,"Duration":623923,"SoundDuration":623923,"Delta":105690669},{"NoteNumber":47,"Velocity":39,"Duration":155504,"SoundDuration":155504,"Delta":106781108},{"NoteNumber":59,"Velocity":44,"Duration":622019,"SoundDuration":622019,"Delta":106936612},{"NoteNumber":71,"Velocity":37,"Duration":645022,"SoundDuration":645022,"Delta":107558632},{"NoteNumber":81,"Velocity":41,"Duration":645022,"SoundDuration":645022,"Delta":108848677},{"NoteNumber":68,"Velocity":34,"Duration":3127687,"SoundDuration":3127687,"Delta":109493699},{"NoteNumber":80,"Velocity":41,"Duration":3127687,"SoundDuration":3127687,"Delta":109493699},{"NoteNumber":76,"Velocity":34,"Duration":3127687,"SoundDuration":3127687,"Delta":109493699},{"NoteNumber":37,"Velocity":26,"Duration":616395,"SoundDuration":616395,"Delta":109493699},{"NoteNumber":49,"Velocity":25,"Duration":154099,"SoundDuration":154099,"Delta":110572392},{"NoteNumber":61,"Velocity":30,"Duration":616395,"SoundDuration":616395,"Delta":110726491},{"NoteNumber":73,"Velocity":32,"Duration":639250,"SoundDuration":639250,"Delta":111342887},{"NoteNumber":64,"Velocity":30,"Duration":639250,"SoundDuration":639250,"Delta":112621387},{"NoteNumber":68,"Velocity":30,"Duration":639250,"SoundDuration":639250,"Delta":112621387},{"NoteNumber":76,"Velocity":37,"Duration":639250,"SoundDuration":639250,"Delta":112621387},{"NoteNumber":75,"Velocity":41,"Duration":891971,"SoundDuration":891971,"Delta":113260637},{"NoteNumber":66,"Velocity":34,"Duration":1197969,"SoundDuration":1197969,"Delta":113260637},{"NoteNumber":69,"Velocity":34,"Duration":1197969,"SoundDuration":1197969,"Delta":113260637},{"NoteNumber":42,"Velocity":22,"Duration":594648,"SoundDuration":594648,"Delta":113260637},{"NoteNumber":30,"Velocity":19,"Duration":594648,"SoundDuration":594648,"Delta":113260637},{"NoteNumber":73,"Velocity":41,"Duration":305997,"SoundDuration":305997,"Delta":114152609},{"NoteNumber":42,"Velocity":25,"Duration":152998,"SoundDuration":152998,"Delta":114305608},{"NoteNumber":66,"Velocity":34,"Duration":1890494,"SoundDuration":1890494,"Delta":114458607},{"NoteNumber":73,"Velocity":41,"Duration":1890494,"SoundDuration":1890494,"Delta":114458607},{"NoteNumber":69,"Velocity":34,"Duration":1890494,"SoundDuration":1890494,"Delta":114458607},{"NoteNumber":54,"Velocity":30,"Duration":611994,"SoundDuration":611994,"Delta":114458607},{"NoteNumber":81,"Velocity":30,"Duration":639250,"SoundDuration":639250,"Delta":115070602},{"NoteNumber":63,"Velocity":30,"Duration":639250,"SoundDuration":639250,"Delta":116349102},{"NoteNumber":69,"Velocity":30,"Duration":639250,"SoundDuration":639250,"Delta":116349102},{"NoteNumber":73,"Velocity":37,"Duration":639250,"SoundDuration":639250,"Delta":116349102},{"NoteNumber":73,"Velocity":41,"Duration":1232792,"SoundDuration":1232792,"Delta":116988352},{"NoteNumber":64,"Velocity":34,"Duration":2422253,"SoundDuration":2422253,"Delta":116988352},{"NoteNumber":68,"Velocity":34,"Duration":3040300,"SoundDuration":3040300,"Delta":116988352},{"NoteNumber":32,"Velocity":22,"Duration":616395,"SoundDuration":616395,"Delta":116988352},{"NoteNumber":44,"Velocity":26,"Duration":616395,"SoundDuration":616395,"Delta":116988352},{"NoteNumber":44,"Velocity":22,"Duration":154099,"SoundDuration":154099,"Delta":118067045},{"NoteNumber":71,"Velocity":41,"Duration":1807508,"SoundDuration":1807508,"Delta":118221144},{"NoteNumber":56,"Velocity":27,"Duration":616395,"SoundDuration":616395,"Delta":118221144},{"NoteNumber":80,"Velocity":32,"Duration":573065,"SoundDuration":573065,"Delta":118837540},{"NoteNumber":60,"Velocity":27,"Duration":1254854,"SoundDuration":1254854,"Delta":119410606},{"NoteNumber":66,"Velocity":28,"Duration":636807,"SoundDuration":636807,"Delta":120028653},{"NoteNumber":69,"Velocity":34,"Duration":636807,"SoundDuration":636807,"Delta":120028653},{"NoteNumber":61,"Velocity":28,"Duration":1255645,"SoundDuration":1255645,"Delta":120665460},{"NoteNumber":64,"Velocity":28,"Duration":1255645,"SoundDuration":1255645,"Delta":120665460},{"NoteNumber":68,"Velocity":34,"Duration":1255645,"SoundDuration":1255645,"Delta":120665460},{"NoteNumber":37,"Velocity":26,"Duration":616395,"SoundDuration":616395,"Delta":120665460},{"NoteNumber":37,"Velocity":22,"Duration":159812,"SoundDuration":159812,"Delta":121761294},{"NoteNumber":64,"Velocity":30,"Duration":1878859,"SoundDuration":1878859,"Delta":121921106},{"NoteNumber":56,"Velocity":25,"Duration":1878859,"SoundDuration":1878859,"Delta":121921106},{"NoteNumber":61,"Velocity":25,"Duration":1878859,"SoundDuration":1878859,"Delta":121921106},{"NoteNumber":49,"Velocity":27,"Duration":639249,"SoundDuration":639249,"Delta":121921106},{"NoteNumber":73,"Velocity":27,"Duration":639250,"SoundDuration":639250,"Delta":122560356},{"NoteNumber":56,"Velocity":25,"Duration":636807,"SoundDuration":636807,"Delta":123799966},{"NoteNumber":64,"Velocity":30,"Duration":636807,"SoundDuration":636807,"Delta":123799966},{"NoteNumber":61,"Velocity":25,"Duration":636807,"SoundDuration":636807,"Delta":123799966},{"NoteNumber":61,"Velocity":28,"Duration":1255645,"SoundDuration":1255645,"Delta":124436774},{"NoteNumber":55,"Velocity":28,"Duration":1255645,"SoundDuration":1255645,"Delta":124436774},{"NoteNumber":64,"Velocity":34,"Duration":936020,"SoundDuration":936020,"Delta":124436774},{"NoteNumber":33,"Velocity":26,"Duration":616395,"SoundDuration":616395,"Delta":124436774},{"NoteNumber":45,"Velocity":26,"Duration":616395,"SoundDuration":616395,"Delta":124436774},{"NoteNumber":63,"Velocity":34,"Duration":319625,"SoundDuration":319625,"Delta":125372795},{"NoteNumber":61,"Velocity":25,"Duration":1878859,"SoundDuration":1878859,"Delta":125692420},{"NoteNumber":63,"Velocity":30,"Duration":1878859,"SoundDuration":1878859,"Delta":125692420},{"NoteNumber":55,"Velocity":25,"Duration":1878859,"SoundDuration":1878859,"Delta":125692420},{"NoteNumber":69,"Velocity":29,"Duration":639249,"SoundDuration":639249,"Delta":125692420},{"NoteNumber":81,"Velocity":27,"Duration":639250,"SoundDuration":639250,"Delta":126331670},{"NoteNumber":63,"Velocity":33,"Duration":630384,"SoundDuration":630384,"Delta":127571280},{"NoteNumber":61,"Velocity":28,"Duration":630384,"SoundDuration":630384,"Delta":127571280},{"NoteNumber":55,"Velocity":28,"Duration":630384,"SoundDuration":630384,"Delta":127571280},{"NoteNumber":54,"Velocity":31,"Duration":1255646,"SoundDuration":1255646,"Delta":128201664},{"NoteNumber":61,"Velocity":31,"Duration":1255646,"SoundDuration":1255646,"Delta":128201664},{"NoteNumber":64,"Velocity":37,"Duration":936021,"SoundDuration":936021,"Delta":128201664},{"NoteNumber":33,"Velocity":26,"Duration":616396,"SoundDuration":616396,"Delta":128201664},{"NoteNumber":45,"Velocity":26,"Duration":616396,"SoundDuration":616396,"Delta":128201664},{"NoteNumber":63,"Velocity":34,"Duration":319625,"SoundDuration":319625,"Delta":129137685},{"NoteNumber":54,"Velocity":25,"Duration":1917749,"SoundDuration":1917749,"Delta":129457310},{"NoteNumber":63,"Velocity":30,"Duration":1917749,"SoundDuration":1917749,"Delta":129457310},{"NoteNumber":61,"Velocity":25,"Duration":1917749,"SoundDuration":1917749,"Delta":129457310},{"NoteNumber":69,"Velocity":29,"Duration":639250,"SoundDuration":639250,"Delta":129457310},{"NoteNumber":81,"Velocity":27,"Duration":639250,"SoundDuration":639250,"Delta":130096560},{"NoteNumber":63,"Velocity":30,"Duration":639250,"SoundDuration":639250,"Delta":131375060},{"NoteNumber":61,"Velocity":25,"Duration":639250,"SoundDuration":639250,"Delta":131375060},{"NoteNumber":54,"Velocity":25,"Duration":639250,"SoundDuration":639250,"Delta":131375060},{"NoteNumber":54,"Velocity":28,"Duration":1856006,"SoundDuration":1856006,"Delta":132014310},{"NoteNumber":60,"Velocity":28,"Duration":1856006,"SoundDuration":1856006,"Delta":132014310},{"NoteNumber":63,"Velocity":34,"Duration":1856006,"SoundDuration":1856006,"Delta":132014310},{"NoteNumber":44,"Velocity":26,"Duration":616396,"SoundDuration":616396,"Delta":132014310},{"NoteNumber":32,"Velocity":26,"Duration":616396,"SoundDuration":616396,"Delta":132014310},{"NoteNumber":68,"Velocity":29,"Duration":600359,"SoundDuration":600359,"Delta":133269956},{"NoteNumber":64,"Velocity":29,"Duration":309023,"SoundDuration":309023,"Delta":133870316},{"NoteNumber":80,"Velocity":29,"Duration":618046,"SoundDuration":618046,"Delta":133870316},{"NoteNumber":66,"Velocity":29,"Duration":309023,"SoundDuration":309023,"Delta":134179340},{"NoteNumber":68,"Velocity":29,"Duration":636807,"SoundDuration":636807,"Delta":134488363},{"NoteNumber":63,"Velocity":30,"Duration":636807,"SoundDuration":636807,"Delta":135125171},{"NoteNumber":60,"Velocity":25,"Duration":636807,"SoundDuration":636807,"Delta":135125171},{"NoteNumber":57,"Velocity":25,"Duration":636807,"SoundDuration":636807,"Delta":135125171},{"NoteNumber":56,"Velocity":28,"Duration":3173395,"SoundDuration":3173395,"Delta":135761978},{"NoteNumber":61,"Velocity":28,"Duration":3173395,"SoundDuration":3173395,"Delta":135761978},{"NoteNumber":64,"Velocity":34,"Duration":3173395,"SoundDuration":3173395,"Delta":135761978},{"NoteNumber":37,"Velocity":26,"Duration":616396,"SoundDuration":616396,"Delta":135761978},{"NoteNumber":49,"Velocity":27,"Duration":639250,"SoundDuration":639250,"Delta":137017624},{"NoteNumber":73,"Velocity":28,"Duration":639250,"SoundDuration":639250,"Delta":137656874},{"NoteNumber":56,"Velocity":25,"Duration":639250,"SoundDuration":639250,"Delta":138935374},{"NoteNumber":61,"Velocity":25,"Duration":639250,"SoundDuration":639250,"Delta":138935374},{"NoteNumber":64,"Velocity":30,"Duration":639250,"SoundDuration":639250,"Delta":138935374},{"NoteNumber":64,"Velocity":30,"Duration":936021,"SoundDuration":936021,"Delta":139574624},{"NoteNumber":61,"Velocity":25,"Duration":1255646,"SoundDuration":1255646,"Delta":139574624},{"NoteNumber":55,"Velocity":25,"Duration":1255646,"SoundDuration":1255646,"Delta":139574624},{"NoteNumber":33,"Velocity":23,"Duration":616396,"SoundDuration":616396,"Delta":139574624},{"NoteNumber":63,"Velocity":30,"Duration":319625,"SoundDuration":319625,"Delta":140510645},{"NoteNumber":55,"Velocity":22,"Duration":1917749,"SoundDuration":1917749,"Delta":140830270},{"NoteNumber":61,"Velocity":22,"Duration":1917749,"SoundDuration":1917749,"Delta":140830270},{"NoteNumber":63,"Velocity":27,"Duration":1917749,"SoundDuration":1917749,"Delta":140830270},{"NoteNumber":45,"Velocity":26,"Duration":639250,"SoundDuration":639250,"Delta":140830270},{"NoteNumber":69,"Velocity":26,"Duration":639250,"SoundDuration":639250,"Delta":141469520},{"NoteNumber":55,"Velocity":25,"Duration":639250,"SoundDuration":639250,"Delta":142748020},{"NoteNumber":61,"Velocity":25,"Duration":639250,"SoundDuration":639250,"Delta":142748020},{"NoteNumber":63,"Velocity":29,"Duration":639250,"SoundDuration":639250,"Delta":142748020},{"NoteNumber":64,"Velocity":33,"Duration":936021,"SoundDuration":936021,"Delta":143387270},{"NoteNumber":61,"Velocity":27,"Duration":1255646,"SoundDuration":1255646,"Delta":143387270},{"NoteNumber":54,"Velocity":27,"Duration":1255646,"SoundDuration":1255646,"Delta":143387270},{"NoteNumber":33,"Velocity":23,"Duration":616396,"SoundDuration":616396,"Delta":143387270},{"NoteNumber":63,"Velocity":30,"Duration":319625,"SoundDuration":319625,"Delta":144323291},{"NoteNumber":54,"Velocity":22,"Duration":1917749,"SoundDuration":1917749,"Delta":144642916},{"NoteNumber":61,"Velocity":22,"Duration":1917749,"SoundDuration":1917749,"Delta":144642916},{"NoteNumber":63,"Velocity":27,"Duration":1917749,"SoundDuration":1917749,"Delta":144642916},{"NoteNumber":45,"Velocity":26,"Duration":639250,"SoundDuration":639250,"Delta":144642916},{"NoteNumber":69,"Velocity":26,"Duration":639250,"SoundDuration":639250,"Delta":145282166},{"NoteNumber":54,"Velocity":22,"Duration":639250,"SoundDuration":639250,"Delta":146560666},{"NoteNumber":61,"Velocity":22,"Duration":639250,"SoundDuration":639250,"Delta":146560666},{"NoteNumber":63,"Velocity":27,"Duration":639250,"SoundDuration":639250,"Delta":146560666},{"NoteNumber":63,"Velocity":25,"Duration":1873693,"SoundDuration":1873693,"Delta":147199916},{"NoteNumber":60,"Velocity":20,"Duration":1873693,"SoundDuration":1873693,"Delta":147199916},{"NoteNumber":54,"Velocity":20,"Duration":1873693,"SoundDuration":1873693,"Delta":147199916},{"NoteNumber":32,"Velocity":19,"Duration":616396,"SoundDuration":616396,"Delta":147199916},{"NoteNumber":44,"Velocity":21,"Duration":618046,"SoundDuration":618046,"Delta":148455562},{"NoteNumber":64,"Velocity":21,"Duration":309023,"SoundDuration":309023,"Delta":149073609},{"NoteNumber":56,"Velocity":21,"Duration":618047,"SoundDuration":618047,"Delta":149073609},{"NoteNumber":66,"Velocity":21,"Duration":309023,"SoundDuration":309023,"Delta":149382633},{"NoteNumber":68,"Velocity":21,"Duration":636807,"SoundDuration":636807,"Delta":149691656},{"NoteNumber":60,"Velocity":22,"Duration":636807,"SoundDuration":636807,"Delta":150328464},{"NoteNumber":54,"Velocity":18,"Duration":636807,"SoundDuration":636807,"Delta":150328464},{"NoteNumber":57,"Velocity":18,"Duration":636807,"SoundDuration":636807,"Delta":150328464},{"NoteNumber":61,"Velocity":27,"Duration":7786964,"SoundDuration":7786964,"Delta":150965271},{"NoteNumber":52,"Velocity":22,"Duration":7786964,"SoundDuration":7786964,"Delta":150965271},{"NoteNumber":56,"Velocity":22,"Duration":7786964,"SoundDuration":7786964,"Delta":150965271},{"NoteNumber":37,"Velocity":23,"Duration":616396,"SoundDuration":616396,"Delta":150965271},{"NoteNumber":49,"Velocity":24,"Duration":639250,"SoundDuration":639250,"Delta":152220917},{"NoteNumber":73,"Velocity":26,"Duration":639250,"SoundDuration":639250,"Delta":152860168},{"NoteNumber":37,"Velocity":23,"Duration":639250,"SoundDuration":639250,"Delta":154777917},{"NoteNumber":49,"Velocity":24,"Duration":639250,"SoundDuration":639250,"Delta":156056417},{"NoteNumber":73,"Velocity":26,"Duration":639250,"SoundDuration":639250,"Delta":156695667},{"NoteNumber":32,"Velocity":37,"Duration":686453,"SoundDuration":686453,"Delta":158099961},{"NoteNumber":49,"Velocity":38,"Duration":1171875,"SoundDuration":1171875,"Delta":158752235},{"NoteNumber":52,"Velocity":38,"Duration":1171875,"SoundDuration":1171875,"Delta":158752235},{"NoteNumber":57,"Velocity":45,"Duration":1171875,"SoundDuration":1171875,"Delta":158752235},{"NoteNumber":33,"Velocity":34,"Duration":292968,"SoundDuration":292968,"Delta":158752235},{"NoteNumber":45,"Velocity":28,"Duration":146484,"SoundDuration":146484,"Delta":159045204},{"NoteNumber":45,"Velocity":28,"Duration":146484,"SoundDuration":146484,"Delta":159338173},{"NoteNumber":45,"Velocity":28,"Duration":146484,"SoundDuration":146484,"Delta":159631142},{"NoteNumber":49,"Velocity":38,"Duration":1107419,"SoundDuration":1107419,"Delta":159924110},{"NoteNumber":57,"Velocity":46,"Duration":1107419,"SoundDuration":1107419,"Delta":159924110},{"NoteNumber":33,"Velocity":33,"Duration":276855,"SoundDuration":276855,"Delta":159924110},{"NoteNumber":45,"Velocity":28,"Duration":138427,"SoundDuration":138427,"Delta":160200966},{"NoteNumber":45,"Velocity":28,"Duration":138427,"SoundDuration":138427,"Delta":160477820},{"NoteNumber":45,"Velocity":28,"Duration":138427,"SoundDuration":138427,"Delta":160754676},{"NoteNumber":50,"Velocity":38,"Duration":1138519,"SoundDuration":1138519,"Delta":161031530},{"NoteNumber":57,"Velocity":38,"Duration":1138519,"SoundDuration":1138519,"Delta":161031530},{"NoteNumber":59,"Velocity":45,"Duration":1138519,"SoundDuration":1138519,"Delta":161031530},{"NoteNumber":33,"Velocity":32,"Duration":284629,"SoundDuration":284629,"Delta":161031530},{"NoteNumber":45,"Velocity":28,"Duration":142314,"SoundDuration":142314,"Delta":161316160},{"NoteNumber":45,"Velocity":28,"Duration":142314,"SoundDuration":142314,"Delta":161600791},{"NoteNumber":45,"Velocity":28,"Duration":142314,"SoundDuration":142314,"Delta":161885420},{"NoteNumber":52,"Velocity":38,"Duration":877609,"SoundDuration":877609,"Delta":162170050},{"NoteNumber":61,"Velocity":46,"Duration":877609,"SoundDuration":877609,"Delta":162170050},{"NoteNumber":57,"Velocity":38,"Duration":853890,"SoundDuration":853890,"Delta":162170050},{"NoteNumber":33,"Velocity":34,"Duration":284629,"SoundDuration":284629,"Delta":162170050},{"NoteNumber":45,"Velocity":29,"Duration":142314,"SoundDuration":142314,"Delta":162454680},{"NoteNumber":45,"Velocity":29,"Duration":142314,"SoundDuration":142314,"Delta":162739311},{"NoteNumber":50,"Velocity":36,"Duration":307701,"SoundDuration":307701,"Delta":163023940},{"NoteNumber":57,"Velocity":36,"Duration":284629,"SoundDuration":284629,"Delta":163023940},{"NoteNumber":59,"Velocity":42,"Duration":307701,"SoundDuration":307701,"Delta":163023940},{"NoteNumber":45,"Velocity":29,"Duration":142314,"SoundDuration":142314,"Delta":163023940},{"NoteNumber":49,"Velocity":36,"Duration":1661129,"SoundDuration":1661129,"Delta":163308570},{"NoteNumber":57,"Velocity":42,"Duration":1661129,"SoundDuration":1661129,"Delta":163308570},{"NoteNumber":45,"Velocity":29,"Duration":138427,"SoundDuration":138427,"Delta":163308570},{"NoteNumber":45,"Velocity":29,"Duration":138427,"SoundDuration":138427,"Delta":163585425},{"NoteNumber":45,"Velocity":29,"Duration":138427,"SoundDuration":138427,"Delta":163862280},{"NoteNumber":45,"Velocity":29,"Duration":138427,"SoundDuration":138427,"Delta":164139135},{"NoteNumber":33,"Velocity":34,"Duration":276855,"SoundDuration":276855,"Delta":164415990},{"NoteNumber":45,"Velocity":26,"Duration":138427,"SoundDuration":138427,"Delta":164692845},{"NoteNumber":52,"Velocity":38,"Duration":625000,"SoundDuration":625000,"Delta":164969700},{"NoteNumber":57,"Velocity":38,"Duration":625000,"SoundDuration":625000,"Delta":164969700},{"NoteNumber":61,"Velocity":46,"Duration":625000,"SoundDuration":625000,"Delta":164969700},{"NoteNumber":45,"Velocity":29,"Duration":156250,"SoundDuration":156250,"Delta":164969700},{"NoteNumber":45,"Velocity":31,"Duration":156250,"SoundDuration":156250,"Delta":165282200},{"NoteNumber":54,"Velocity":40,"Duration":853636,"SoundDuration":853636,"Delta":165594700},{"NoteNumber":57,"Velocity":40,"Duration":830565,"SoundDuration":830565,"Delta":165594700},{"NoteNumber":62,"Velocity":48,"Duration":853636,"SoundDuration":853636,"Delta":165594700},{"NoteNumber":33,"Velocity":34,"Duration":276855,"SoundDuration":276855,"Delta":165594700},{"NoteNumber":45,"Velocity":31,"Duration":138427,"SoundDuration":138427,"Delta":165871555},{"NoteNumber":45,"Velocity":31,"Duration":138427,"SoundDuration":138427,"Delta":166148410},{"NoteNumber":52,"Velocity":38,"Duration":299308,"SoundDuration":299308,"Delta":166425265},{"NoteNumber":57,"Velocity":38,"Duration":276854,"SoundDuration":276854,"Delta":166425265},{"NoteNumber":61,"Velocity":45,"Duration":299308,"SoundDuration":299308,"Delta":166425265},{"NoteNumber":45,"Velocity":31,"Duration":138427,"SoundDuration":138427,"Delta":166425265},{"NoteNumber":50,"Velocity":39,"Duration":538890,"SoundDuration":538890,"Delta":166702120},{"NoteNumber":57,"Velocity":39,"Duration":538890,"SoundDuration":538890,"Delta":166702120},{"NoteNumber":59,"Velocity":47,"Duration":538890,"SoundDuration":538890,"Delta":166702120},{"NoteNumber":45,"Velocity":31,"Duration":134722,"SoundDuration":134722,"Delta":166702120},{"NoteNumber":45,"Velocity":30,"Duration":134722,"SoundDuration":134722,"Delta":166971565},{"NoteNumber":54,"Velocity":38,"Duration":538889,"SoundDuration":538889,"Delta":167241010},{"NoteNumber":57,"Velocity":38,"Duration":538889,"SoundDuration":538889,"Delta":167241010},{"NoteNumber":62,"Velocity":45,"Duration":538889,"SoundDuration":538889,"Delta":167241010},{"NoteNumber":33,"Velocity":31,"Duration":269444,"SoundDuration":269444,"Delta":167241010},{"NoteNumber":45,"Velocity":31,"Duration":269444,"SoundDuration":269444,"Delta":167510455},{"NoteNumber":52,"Velocity":38,"Duration":564016,"SoundDuration":564016,"Delta":167779900},{"NoteNumber":57,"Velocity":38,"Duration":564016,"SoundDuration":564016,"Delta":167779900},{"NoteNumber":61,"Velocity":45,"Duration":564016,"SoundDuration":564016,"Delta":167779900},{"NoteNumber":33,"Velocity":31,"Duration":282007,"SoundDuration":282007,"Delta":167779900},{"NoteNumber":45,"Velocity":31,"Duration":282008,"SoundDuration":282008,"Delta":168061908},{"NoteNumber":49,"Velocity":38,"Duration":564015,"SoundDuration":564015,"Delta":168343916},{"NoteNumber":52,"Velocity":38,"Duration":564015,"SoundDuration":564015,"Delta":168343916},{"NoteNumber":57,"Velocity":45,"Duration":564015,"SoundDuration":564015,"Delta":168343916},{"NoteNumber":37,"Velocity":31,"Duration":282007,"SoundDuration":282007,"Delta":168343916},{"NoteNumber":49,"Velocity":31,"Duration":282007,"SoundDuration":282007,"Delta":168625924},{"NoteNumber":47,"Velocity":39,"Duration":1676678,"SoundDuration":1676678,"Delta":168907932},{"NoteNumber":52,"Velocity":39,"Duration":1676678,"SoundDuration":1676678,"Delta":168907932},{"NoteNumber":56,"Velocity":47,"Duration":1676678,"SoundDuration":1676678,"Delta":168907932},{"NoteNumber":40,"Velocity":34,"Duration":282008,"SoundDuration":282008,"Delta":168907932},{"NoteNumber":40,"Velocity":33,"Duration":282007,"SoundDuration":282007,"Delta":169189940},{"NoteNumber":40,"Velocity":36,"Duration":282007,"SoundDuration":282007,"Delta":169471948},{"NoteNumber":40,"Velocity":39,"Duration":282008,"SoundDuration":282008,"Delta":169753956},{"NoteNumber":40,"Velocity":37,"Duration":137161,"SoundDuration":137161,"Delta":170035964},{"NoteNumber":40,"Velocity":35,"Duration":137161,"SoundDuration":137161,"Delta":170310288},{"NoteNumber":47,"Velocity":38,"Duration":548646,"SoundDuration":548646,"Delta":170584611},{"NoteNumber":54,"Velocity":38,"Duration":548646,"SoundDuration":548646,"Delta":170584611},{"NoteNumber":56,"Velocity":46,"Duration":548646,"SoundDuration":548646,"Delta":170584611},{"NoteNumber":38,"Velocity":33,"Duration":137161,"SoundDuration":137161,"Delta":170584611},{"NoteNumber":38,"Velocity":31,"Duration":137161,"SoundDuration":137161,"Delta":170858934},{"NoteNumber":49,"Velocity":41,"Duration":556236,"SoundDuration":556236,"Delta":171133257},{"NoteNumber":52,"Velocity":41,"Duration":556236,"SoundDuration":556236,"Delta":171133257},{"NoteNumber":56,"Velocity":49,"Duration":556236,"SoundDuration":556236,"Delta":171133257},{"NoteNumber":37,"Velocity":30,"Duration":138427,"SoundDuration":138427,"Delta":171133257},{"NoteNumber":37,"Velocity":30,"Duration":139690,"SoundDuration":139690,"Delta":171410112},{"NoteNumber":50,"Velocity":41,"Duration":566637,"SoundDuration":566637,"Delta":171689494},{"NoteNumber":52,"Velocity":41,"Duration":566637,"SoundDuration":566637,"Delta":171689494},{"NoteNumber":56,"Velocity":49,"Duration":566637,"SoundDuration":566637,"Delta":171689494},{"NoteNumber":35,"Velocity":29,"Duration":141004,"SoundDuration":141004,"Delta":171689494},{"NoteNumber":35,"Velocity":29,"Duration":142314,"SoundDuration":142314,"Delta":171971502},{"NoteNumber":49,"Velocity":38,"Duration":1171875,"SoundDuration":1171875,"Delta":172256132},{"NoteNumber":52,"Velocity":38,"Duration":1171875,"SoundDuration":1171875,"Delta":172256132},{"NoteNumber":57,"Velocity":45,"Duration":1171875,"SoundDuration":1171875,"Delta":172256132},{"NoteNumber":33,"Velocity":34,"Duration":292968,"SoundDuration":292968,"Delta":172256132},{"NoteNumber":45,"Velocity":28,"Duration":146484,"SoundDuration":146484,"Delta":172549101},{"NoteNumber":45,"Velocity":28,"Duration":146484,"SoundDuration":146484,"Delta":172842070},{"NoteNumber":45,"Velocity":28,"Duration":146484,"SoundDuration":146484,"Delta":173135038},{"NoteNumber":49,"Velocity":38,"Duration":1107419,"SoundDuration":1107419,"Delta":173428007},{"NoteNumber":57,"Velocity":46,"Duration":1107419,"SoundDuration":1107419,"Delta":173428007},{"NoteNumber":33,"Velocity":33,"Duration":276855,"SoundDuration":276855,"Delta":173428007},{"NoteNumber":45,"Velocity":28,"Duration":138427,"SoundDuration":138427,"Delta":173704862},{"NoteNumber":45,"Velocity":28,"Duration":138427,"SoundDuration":138427,"Delta":173981717},{"NoteNumber":45,"Velocity":28,"Duration":138427,"SoundDuration":138427,"Delta":174258572},{"NoteNumber":50,"Velocity":38,"Duration":1138519,"SoundDuration":1138519,"Delta":174535427},{"NoteNumber":57,"Velocity":38,"Duration":1138519,"SoundDuration":1138519,"Delta":174535427},{"NoteNumber":59,"Velocity":45,"Duration":1138519,"SoundDuration":1138519,"Delta":174535427},{"NoteNumber":33,"Velocity":32,"Duration":284629,"SoundDuration":284629,"Delta":174535427},{"NoteNumber":45,"Velocity":28,"Duration":142314,"SoundDuration":142314,"Delta":174820057},{"NoteNumber":45,"Velocity":28,"Duration":142314,"SoundDuration":142314,"Delta":175104687},{"NoteNumber":45,"Velocity":28,"Duration":142314,"SoundDuration":142314,"Delta":175389317},{"NoteNumber":52,"Velocity":38,"Duration":877609,"SoundDuration":877609,"Delta":175673947},{"NoteNumber":61,"Velocity":46,"Duration":877609,"SoundDuration":877609,"Delta":175673947},{"NoteNumber":57,"Velocity":38,"Duration":853890,"SoundDuration":853890,"Delta":175673947},{"NoteNumber":33,"Velocity":34,"Duration":284629,"SoundDuration":284629,"Delta":175673947},{"NoteNumber":45,"Velocity":29,"Duration":142314,"SoundDuration":142314,"Delta":175958577},{"NoteNumber":45,"Velocity":29,"Duration":142314,"SoundDuration":142314,"Delta":176243207},{"NoteNumber":50,"Velocity":36,"Duration":307701,"SoundDuration":307701,"Delta":176527837},{"NoteNumber":57,"Velocity":36,"Duration":284629,"SoundDuration":284629,"Delta":176527837},{"NoteNumber":59,"Velocity":42,"Duration":307701,"SoundDuration":307701,"Delta":176527837},{"NoteNumber":45,"Velocity":29,"Duration":142314,"SoundDuration":142314,"Delta":176527837},{"NoteNumber":49,"Velocity":32,"Duration":1661129,"SoundDuration":1661129,"Delta":176812467},{"NoteNumber":57,"Velocity":37,"Duration":1661129,"SoundDuration":1661129,"Delta":176812467},{"NoteNumber":45,"Velocity":29,"Duration":138427,"SoundDuration":138427,"Delta":176812467},{"NoteNumber":45,"Velocity":29,"Duration":138427,"SoundDuration":138427,"Delta":177089322},{"NoteNumber":33,"Velocity":29,"Duration":138427,"SoundDuration":138427,"Delta":177366177},{"NoteNumber":45,"Velocity":30,"Duration":138427,"SoundDuration":138427,"Delta":177643032},{"NoteNumber":31,"Velocity":42,"Duration":276855,"SoundDuration":276855,"Delta":177919887},{"NoteNumber":43,"Velocity":36,"Duration":276854,"SoundDuration":276854,"Delta":178196742},{"NoteNumber":54,"Velocity":41,"Duration":618556,"SoundDuration":618556,"Delta":178473597},{"NoteNumber":52,"Velocity":41,"Duration":618556,"SoundDuration":618556,"Delta":178473597},{"NoteNumber":58,"Velocity":41,"Duration":618556,"SoundDuration":618556,"Delta":178473597},{"NoteNumber":61,"Velocity":50,"Duration":618556,"SoundDuration":618556,"Delta":178473597},{"NoteNumber":28,"Velocity":39,"Duration":231958,"SoundDuration":231958,"Delta":178473597},{"NoteNumber":42,"Velocity":43,"Duration":231958,"SoundDuration":231958,"Delta":178782875},{"NoteNumber":50,"Velocity":45,"Duration":853636,"SoundDuration":853636,"Delta":179092154},{"NoteNumber":54,"Velocity":45,"Duration":830565,"SoundDuration":830565,"Delta":179092154},{"NoteNumber":59,"Velocity":45,"Duration":853636,"SoundDuration":853636,"Delta":179092154},{"NoteNumber":62,"Velocity":53,"Duration":853636,"SoundDuration":853636,"Delta":179092154},{"NoteNumber":35,"Velocity":47,"Duration":276855,"SoundDuration":276855,"Delta":179092154},{"NoteNumber":47,"Velocity":36,"Duration":276854,"SoundDuration":276854,"Delta":179369009},{"NoteNumber":47,"Velocity":34,"Duration":276855,"SoundDuration":276855,"Delta":179645864},{"NoteNumber":54,"Velocity":38,"Duration":299308,"SoundDuration":299308,"Delta":179922719},{"NoteNumber":52,"Velocity":38,"Duration":299308,"SoundDuration":299308,"Delta":179922719},{"NoteNumber":58,"Velocity":38,"Duration":276854,"SoundDuration":276854,"Delta":179922719},{"NoteNumber":61,"Velocity":44,"Duration":299308,"SoundDuration":299308,"Delta":179922719},{"NoteNumber":49,"Velocity":32,"Duration":276854,"SoundDuration":276854,"Delta":179922719},{"NoteNumber":50,"Velocity":39,"Duration":538890,"SoundDuration":538890,"Delta":180199574},{"NoteNumber":57,"Velocity":39,"Duration":538890,"SoundDuration":538890,"Delta":180199574},{"NoteNumber":59,"Velocity":47,"Duration":538890,"SoundDuration":538890,"Delta":180199574},{"NoteNumber":50,"Velocity":31,"Duration":269444,"SoundDuration":269444,"Delta":180199574},{"NoteNumber":47,"Velocity":30,"Duration":269445,"SoundDuration":269445,"Delta":180469019},{"NoteNumber":50,"Velocity":41,"Duration":538889,"SoundDuration":538889,"Delta":180738464},{"NoteNumber":54,"Velocity":41,"Duration":269444,"SoundDuration":269444,"Delta":180738464},{"NoteNumber":62,"Velocity":49,"Duration":538889,"SoundDuration":538889,"Delta":180738464},{"NoteNumber":35,"Velocity":34,"Duration":269444,"SoundDuration":269444,"Delta":180738464},{"NoteNumber":56,"Velocity":40,"Duration":269444,"SoundDuration":269444,"Delta":181007909},{"NoteNumber":47,"Velocity":33,"Duration":269444,"SoundDuration":269444,"Delta":181007909},{"NoteNumber":52,"Velocity":39,"Duration":585937,"SoundDuration":585937,"Delta":181277354},{"NoteNumber":57,"Velocity":39,"Duration":585937,"SoundDuration":585937,"Delta":181277354},{"NoteNumber":61,"Velocity":46,"Duration":585937,"SoundDuration":585937,"Delta":181277354},{"NoteNumber":37,"Velocity":32,"Duration":292968,"SoundDuration":292968,"Delta":181277354},{"NoteNumber":49,"Velocity":31,"Duration":292968,"SoundDuration":292968,"Delta":181570322},{"NoteNumber":50,"Velocity":38,"Duration":616220,"SoundDuration":616220,"Delta":181863291},{"NoteNumber":52,"Velocity":38,"Duration":616220,"SoundDuration":616220,"Delta":181863291},{"NoteNumber":56,"Velocity":38,"Duration":616220,"SoundDuration":616220,"Delta":181863291},{"NoteNumber":59,"Velocity":45,"Duration":616220,"SoundDuration":616220,"Delta":181863291},{"NoteNumber":40,"Velocity":31,"Duration":305082,"SoundDuration":305082,"Delta":181863291},{"NoteNumber":52,"Velocity":31,"Duration":311138,"SoundDuration":311138,"Delta":182168373},{"NoteNumber":50,"Velocity":39,"Duration":1128031,"SoundDuration":1128031,"Delta":182479512},{"NoteNumber":52,"Velocity":39,"Duration":1676678,"SoundDuration":1676678,"Delta":182479512},{"NoteNumber":56,"Velocity":39,"Duration":1128031,"SoundDuration":1128031,"Delta":182479512},{"NoteNumber":59,"Velocity":47,"Duration":1128031,"SoundDuration":1128031,"Delta":182479512},{"NoteNumber":40,"Velocity":29,"Duration":282008,"SoundDuration":282008,"Delta":182761520},{"NoteNumber":44,"Velocity":31,"Duration":282007,"SoundDuration":282007,"Delta":183043528},{"NoteNumber":40,"Velocity":33,"Duration":282007,"SoundDuration":282007,"Delta":183325536},{"NoteNumber":49,"Velocity":39,"Duration":1097293,"SoundDuration":1097293,"Delta":183607544},{"NoteNumber":57,"Velocity":47,"Duration":1097293,"SoundDuration":1097293,"Delta":183607544},{"NoteNumber":45,"Velocity":35,"Duration":205742,"SoundDuration":205742,"Delta":183607544},{"NoteNumber":37,"Velocity":32,"Duration":137161,"SoundDuration":137161,"Delta":183881867},{"NoteNumber":38,"Velocity":32,"Duration":137161,"SoundDuration":137161,"Delta":184156191},{"NoteNumber":40,"Velocity":32,"Duration":137161,"SoundDuration":137161,"Delta":184430514},{"NoteNumber":42,"Velocity":32,"Duration":138427,"SoundDuration":138427,"Delta":184704837},{"NoteNumber":40,"Velocity":32,"Duration":139690,"SoundDuration":139690,"Delta":184981692},{"NoteNumber":42,"Velocity":31,"Duration":141004,"SoundDuration":141004,"Delta":185261074},{"NoteNumber":44,"Velocity":31,"Duration":142314,"SoundDuration":142314,"Delta":185543082},{"NoteNumber":69,"Velocity":62,"Duration":1091661,"SoundDuration":1091661,"Delta":185827712},{"NoteNumber":45,"Velocity":36,"Duration":276855,"SoundDuration":276855,"Delta":185827712},{"NoteNumber":64,"Velocity":31,"Duration":183726,"SoundDuration":183726,"Delta":186012282},{"NoteNumber":61,"Velocity":31,"Duration":182882,"SoundDuration":182882,"Delta":186196008},{"NoteNumber":64,"Velocity":31,"Duration":181225,"SoundDuration":181225,"Delta":186378890},{"NoteNumber":49,"Velocity":23,"Duration":271837,"SoundDuration":271837,"Delta":186378890},{"NoteNumber":52,"Velocity":27,"Duration":271837,"SoundDuration":271837,"Delta":186378890},{"NoteNumber":61,"Velocity":31,"Duration":180427,"SoundDuration":180427,"Delta":186560115},{"NoteNumber":57,"Velocity":31,"Duration":178830,"SoundDuration":178830,"Delta":186740543},{"NoteNumber":69,"Velocity":63,"Duration":1087594,"SoundDuration":1087594,"Delta":186919373},{"NoteNumber":45,"Velocity":36,"Duration":267845,"SoundDuration":267845,"Delta":186919373},{"NoteNumber":64,"Velocity":31,"Duration":179630,"SoundDuration":179630,"Delta":187097404},{"NoteNumber":61,"Velocity":31,"Duration":180427,"SoundDuration":180427,"Delta":187277034},{"NoteNumber":64,"Velocity":31,"Duration":182053,"SoundDuration":182053,"Delta":187457462},{"NoteNumber":49,"Velocity":24,"Duration":273494,"SoundDuration":273494,"Delta":187457462},{"NoteNumber":52,"Velocity":28,"Duration":273494,"SoundDuration":273494,"Delta":187457462},{"NoteNumber":61,"Velocity":31,"Duration":182882,"SoundDuration":182882,"Delta":187639515},{"NoteNumber":57,"Velocity":31,"Duration":184569,"SoundDuration":184569,"Delta":187822397},{"NoteNumber":71,"Velocity":62,"Duration":1117526,"SoundDuration":1117526,"Delta":188006967},{"NoteNumber":45,"Velocity":36,"Duration":279381,"SoundDuration":279381,"Delta":188006967},{"NoteNumber":68,"Velocity":31,"Duration":186254,"SoundDuration":186254,"Delta":188193222},{"NoteNumber":64,"Velocity":32,"Duration":186254,"SoundDuration":186254,"Delta":188379476},{"NoteNumber":68,"Velocity":32,"Duration":186254,"SoundDuration":186254,"Delta":188565731},{"NoteNumber":50,"Velocity":25,"Duration":279381,"SoundDuration":279381,"Delta":188565731},{"NoteNumber":52,"Velocity":29,"Duration":279381,"SoundDuration":279381,"Delta":188565731},{"NoteNumber":64,"Velocity":32,"Duration":186254,"SoundDuration":186254,"Delta":188751985},{"NoteNumber":59,"Velocity":32,"Duration":186254,"SoundDuration":186254,"Delta":188938240},{"NoteNumber":73,"Velocity":63,"Duration":971095,"SoundDuration":971095,"Delta":189124494},{"NoteNumber":45,"Velocity":36,"Duration":279381,"SoundDuration":279381,"Delta":189124494},{"NoteNumber":69,"Velocity":32,"Duration":186254,"SoundDuration":186254,"Delta":189310749},{"NoteNumber":64,"Velocity":32,"Duration":184570,"SoundDuration":184570,"Delta":189497003},{"NoteNumber":69,"Velocity":32,"Duration":184569,"SoundDuration":184569,"Delta":189681573},{"NoteNumber":52,"Velocity":30,"Duration":276854,"SoundDuration":276854,"Delta":189681573},{"NoteNumber":64,"Velocity":32,"Duration":183726,"SoundDuration":183726,"Delta":189866143},{"NoteNumber":62,"Velocity":32,"Duration":182882,"SoundDuration":182882,"Delta":190049869},{"NoteNumber":71,"Velocity":59,"Duration":137161,"SoundDuration":137161,"Delta":190095590},{"NoteNumber":69,"Velocity":59,"Duration":1620711,"SoundDuration":1620711,"Delta":190232752},{"NoteNumber":45,"Velocity":36,"Duration":273494,"SoundDuration":273494,"Delta":190232752},{"NoteNumber":64,"Velocity":31,"Duration":181225,"SoundDuration":181225,"Delta":190415634},{"NoteNumber":61,"Velocity":31,"Duration":181224,"SoundDuration":181224,"Delta":190596859},{"NoteNumber":64,"Velocity":31,"Duration":180427,"SoundDuration":180427,"Delta":190778084},{"NoteNumber":52,"Velocity":29,"Duration":270242,"SoundDuration":270242,"Delta":190778084},{"NoteNumber":49,"Velocity":25,"Duration":270242,"SoundDuration":270242,"Delta":190778084},{"NoteNumber":61,"Velocity":31,"Duration":179630,"SoundDuration":179630,"Delta":190958511},{"NoteNumber":57,"Velocity":31,"Duration":179630,"SoundDuration":179630,"Delta":191138141},{"NoteNumber":45,"Velocity":36,"Duration":267046,"SoundDuration":267046,"Delta":191317771},{"NoteNumber":61,"Velocity":32,"Duration":178031,"SoundDuration":178031,"Delta":191495802},{"NoteNumber":64,"Velocity":32,"Duration":179630,"SoundDuration":179630,"Delta":191673833},{"NoteNumber":61,"Velocity":32,"Duration":179629,"SoundDuration":179629,"Delta":191853463},{"NoteNumber":73,"Velocity":63,"Duration":542079,"SoundDuration":542079,"Delta":191853463},{"NoteNumber":52,"Velocity":29,"Duration":270242,"SoundDuration":270242,"Delta":191853463},{"NoteNumber":57,"Velocity":29,"Duration":270242,"SoundDuration":270242,"Delta":191853463},{"NoteNumber":64,"Velocity":32,"Duration":181225,"SoundDuration":181225,"Delta":192033093},{"NoteNumber":69,"Velocity":32,"Duration":181225,"SoundDuration":181225,"Delta":192214318},{"NoteNumber":74,"Velocity":67,"Duration":960591,"SoundDuration":960591,"Delta":192395543},{"NoteNumber":45,"Velocity":36,"Duration":275167,"SoundDuration":275167,"Delta":192395543},{"NoteNumber":69,"Velocity":34,"Duration":184570,"SoundDuration":184570,"Delta":192578425},{"NoteNumber":66,"Velocity":34,"Duration":183726,"SoundDuration":183726,"Delta":192762995},{"NoteNumber":69,"Velocity":34,"Duration":182882,"SoundDuration":182882,"Delta":192946721},{"NoteNumber":57,"Velocity":28,"Duration":273494,"SoundDuration":273494,"Delta":192946721},{"NoteNumber":54,"Velocity":24,"Duration":273494,"SoundDuration":273494,"Delta":192946721},{"NoteNumber":66,"Velocity":34,"Duration":181225,"SoundDuration":181225,"Delta":193129604},{"NoteNumber":64,"Velocity":32,"Duration":180427,"SoundDuration":180427,"Delta":193310829},{"NoteNumber":73,"Velocity":62,"Duration":135121,"SoundDuration":135121,"Delta":193356135},{"NoteNumber":71,"Velocity":66,"Duration":536491,"SoundDuration":536491,"Delta":193491256},{"NoteNumber":45,"Velocity":36,"Duration":267846,"SoundDuration":267846,"Delta":193491256},{"NoteNumber":62,"Velocity":32,"Duration":178031,"SoundDuration":178031,"Delta":193670087},{"NoteNumber":69,"Velocity":32,"Duration":179630,"SoundDuration":179630,"Delta":193848118},{"NoteNumber":74,"Velocity":62,"Duration":544534,"SoundDuration":544534,"Delta":194027748},{"NoteNumber":54,"Velocity":27,"Duration":544534,"SoundDuration":544534,"Delta":194027748},{"NoteNumber":57,"Velocity":32,"Duration":544534,"SoundDuration":544534,"Delta":194027748},{"NoteNumber":66,"Velocity":30,"Duration":181225,"SoundDuration":181225,"Delta":194208175},{"NoteNumber":69,"Velocity":30,"Duration":182882,"SoundDuration":182882,"Delta":194389400},{"NoteNumber":73,"Velocity":62,"Duration":553709,"SoundDuration":553709,"Delta":194572282},{"NoteNumber":52,"Velocity":27,"Duration":553709,"SoundDuration":553709,"Delta":194572282},{"NoteNumber":57,"Velocity":32,"Duration":553709,"SoundDuration":553709,"Delta":194572282},{"NoteNumber":69,"Velocity":32,"Duration":184569,"SoundDuration":184569,"Delta":194756852},{"NoteNumber":64,"Velocity":32,"Duration":184570,"SoundDuration":184570,"Delta":194941422},{"NoteNumber":69,"Velocity":62,"Duration":553709,"SoundDuration":553709,"Delta":195125992},{"NoteNumber":49,"Velocity":28,"Duration":553709,"SoundDuration":553709,"Delta":195125992},{"NoteNumber":57,"Velocity":33,"Duration":553709,"SoundDuration":553709,"Delta":195125992},{"NoteNumber":64,"Velocity":32,"Duration":184570,"SoundDuration":184570,"Delta":195310562},{"NoteNumber":61,"Velocity":32,"Duration":184569,"SoundDuration":184569,"Delta":195495132},{"NoteNumber":68,"Velocity":66,"Duration":1656066,"SoundDuration":1656066,"Delta":195679702},{"NoteNumber":40,"Velocity":36,"Duration":276855,"SoundDuration":276855,"Delta":195679702},{"NoteNumber":64,"Velocity":31,"Duration":184570,"SoundDuration":184570,"Delta":195864272},{"NoteNumber":59,"Velocity":31,"Duration":184569,"SoundDuration":184569,"Delta":196048842},{"NoteNumber":64,"Velocity":31,"Duration":184570,"SoundDuration":184570,"Delta":196233412},{"NoteNumber":52,"Velocity":33,"Duration":276855,"SoundDuration":276855,"Delta":196233412},{"NoteNumber":59,"Velocity":31,"Duration":184570,"SoundDuration":184570,"Delta":196417982},{"NoteNumber":56,"Velocity":31,"Duration":184570,"SoundDuration":184570,"Delta":196602552},{"NoteNumber":64,"Velocity":31,"Duration":182882,"SoundDuration":182882,"Delta":196787122},{"NoteNumber":40,"Velocity":33,"Duration":274323,"SoundDuration":274323,"Delta":196787122},{"NoteNumber":59,"Velocity":31,"Duration":182882,"SoundDuration":182882,"Delta":196970004},{"NoteNumber":56,"Velocity":31,"Duration":182882,"SoundDuration":182882,"Delta":197152887},{"NoteNumber":68,"Velocity":63,"Duration":548646,"SoundDuration":548646,"Delta":197335769},{"NoteNumber":50,"Velocity":27,"Duration":411484,"SoundDuration":411484,"Delta":197335769},{"NoteNumber":52,"Velocity":32,"Duration":411484,"SoundDuration":411484,"Delta":197335769},{"NoteNumber":66,"Velocity":32,"Duration":182882,"SoundDuration":182882,"Delta":197518651},{"NoteNumber":59,"Velocity":32,"Duration":182882,"SoundDuration":182882,"Delta":197701533},{"NoteNumber":68,"Velocity":68,"Duration":556236,"SoundDuration":556236,"Delta":197884415},{"NoteNumber":49,"Velocity":30,"Duration":416545,"SoundDuration":416545,"Delta":197884415},{"NoteNumber":52,"Velocity":36,"Duration":416545,"SoundDuration":416545,"Delta":197884415},{"NoteNumber":64,"Velocity":34,"Duration":185412,"SoundDuration":185412,"Delta":198068985},{"NoteNumber":61,"Velocity":34,"Duration":186254,"SoundDuration":186254,"Delta":198254398},{"NoteNumber":68,"Velocity":68,"Duration":566637,"SoundDuration":566637,"Delta":198440652},{"NoteNumber":47,"Velocity":28,"Duration":424322,"SoundDuration":424322,"Delta":198440652},{"NoteNumber":52,"Velocity":33,"Duration":424322,"SoundDuration":424322,"Delta":198440652},{"NoteNumber":64,"Velocity":32,"Duration":188879,"SoundDuration":188879,"Delta":198628657},{"NoteNumber":62,"Velocity":32,"Duration":189753,"SoundDuration":189753,"Delta":198817537},{"NoteNumber":69,"Velocity":62,"Duration":1091661,"SoundDuration":1091661,"Delta":199007290},{"NoteNumber":45,"Velocity":36,"Duration":276855,"SoundDuration":276855,"Delta":199007290},{"NoteNumber":64,"Velocity":31,"Duration":183726,"SoundDuration":183726,"Delta":199191860},{"NoteNumber":61,"Velocity":31,"Duration":182882,"SoundDuration":182882,"Delta":199375586},{"NoteNumber":64,"Velocity":31,"Duration":181225,"SoundDuration":181225,"Delta":199558468},{"NoteNumber":49,"Velocity":23,"Duration":271837,"SoundDuration":271837,"Delta":199558468},{"NoteNumber":52,"Velocity":27,"Duration":271837,"SoundDuration":271837,"Delta":199558468},{"NoteNumber":61,"Velocity":31,"Duration":180427,"SoundDuration":180427,"Delta":199739693},{"NoteNumber":57,"Velocity":31,"Duration":178830,"SoundDuration":178830,"Delta":199920121},{"NoteNumber":69,"Velocity":63,"Duration":1087594,"SoundDuration":1087594,"Delta":200098951},{"NoteNumber":45,"Velocity":36,"Duration":267845,"SoundDuration":267845,"Delta":200098951},{"NoteNumber":64,"Velocity":31,"Duration":179630,"SoundDuration":179630,"Delta":200276982},{"NoteNumber":61,"Velocity":31,"Duration":180427,"SoundDuration":180427,"Delta":200456612},{"NoteNumber":64,"Velocity":31,"Duration":182053,"SoundDuration":182053,"Delta":200637040},{"NoteNumber":49,"Velocity":24,"Duration":273494,"SoundDuration":273494,"Delta":200637040},{"NoteNumber":52,"Velocity":28,"Duration":273494,"SoundDuration":273494,"Delta":200637040},{"NoteNumber":61,"Velocity":31,"Duration":182882,"SoundDuration":182882,"Delta":200819093},{"NoteNumber":57,"Velocity":31,"Duration":184569,"SoundDuration":184569,"Delta":201001976},{"NoteNumber":71,"Velocity":62,"Duration":1117526,"SoundDuration":1117526,"Delta":201186546},{"NoteNumber":45,"Velocity":36,"Duration":279381,"SoundDuration":279381,"Delta":201186546},{"NoteNumber":68,"Velocity":31,"Duration":186254,"SoundDuration":186254,"Delta":201372800},{"NoteNumber":64,"Velocity":32,"Duration":186254,"SoundDuration":186254,"Delta":201559055},{"NoteNumber":68,"Velocity":32,"Duration":186254,"SoundDuration":186254,"Delta":201745309},{"NoteNumber":50,"Velocity":25,"Duration":279381,"SoundDuration":279381,"Delta":201745309},{"NoteNumber":52,"Velocity":29,"Duration":279381,"SoundDuration":279381,"Delta":201745309},{"NoteNumber":64,"Velocity":32,"Duration":186254,"SoundDuration":186254,"Delta":201931564},{"NoteNumber":59,"Velocity":32,"Duration":186254,"SoundDuration":186254,"Delta":202117818},{"NoteNumber":73,"Velocity":63,"Duration":971095,"SoundDuration":971095,"Delta":202304073},{"NoteNumber":45,"Velocity":36,"Duration":279381,"SoundDuration":279381,"Delta":202304073},{"NoteNumber":69,"Velocity":32,"Duration":186254,"SoundDuration":186254,"Delta":202490327},{"NoteNumber":64,"Velocity":32,"Duration":184570,"SoundDuration":184570,"Delta":202676582},{"NoteNumber":69,"Velocity":32,"Duration":184569,"SoundDuration":184569,"Delta":202861152},{"NoteNumber":52,"Velocity":30,"Duration":276854,"SoundDuration":276854,"Delta":202861152},{"NoteNumber":64,"Velocity":32,"Duration":183726,"SoundDuration":183726,"Delta":203045722},{"NoteNumber":62,"Velocity":32,"Duration":182882,"SoundDuration":182882,"Delta":203229448},{"NoteNumber":71,"Velocity":59,"Duration":137161,"SoundDuration":137161,"Delta":203275168},{"NoteNumber":69,"Velocity":59,"Duration":1620711,"SoundDuration":1620711,"Delta":203412330},{"NoteNumber":45,"Velocity":36,"Duration":273494,"SoundDuration":273494,"Delta":203412330},{"NoteNumber":64,"Velocity":31,"Duration":181225,"SoundDuration":181225,"Delta":203595212},{"NoteNumber":61,"Velocity":31,"Duration":181224,"SoundDuration":181224,"Delta":203776437},{"NoteNumber":64,"Velocity":31,"Duration":180427,"SoundDuration":180427,"Delta":203957662},{"NoteNumber":45,"Velocity":26,"Duration":270242,"SoundDuration":270242,"Delta":203957662},{"NoteNumber":52,"Velocity":30,"Duration":270242,"SoundDuration":270242,"Delta":203957662},{"NoteNumber":49,"Velocity":26,"Duration":270242,"SoundDuration":270242,"Delta":203957662},{"NoteNumber":61,"Velocity":31,"Duration":179630,"SoundDuration":179630,"Delta":204138089},{"NoteNumber":57,"Velocity":31,"Duration":179630,"SoundDuration":179630,"Delta":204317719},{"NoteNumber":43,"Velocity":27,"Duration":267046,"SoundDuration":267046,"Delta":204497349},{"NoteNumber":49,"Velocity":27,"Duration":267046,"SoundDuration":267046,"Delta":204497349},{"NoteNumber":52,"Velocity":31,"Duration":267046,"SoundDuration":267046,"Delta":204497349},{"NoteNumber":61,"Velocity":32,"Duration":178031,"SoundDuration":178031,"Delta":204675380},{"NoteNumber":64,"Velocity":32,"Duration":179630,"SoundDuration":179630,"Delta":204853411},{"NoteNumber":70,"Velocity":32,"Duration":179629,"SoundDuration":179629,"Delta":205033041},{"NoteNumber":73,"Velocity":63,"Duration":542079,"SoundDuration":542079,"Delta":205033041},{"NoteNumber":42,"Velocity":32,"Duration":270242,"SoundDuration":270242,"Delta":205033041},{"NoteNumber":49,"Velocity":32,"Duration":270242,"SoundDuration":270242,"Delta":205033041},{"NoteNumber":54,"Velocity":32,"Duration":270242,"SoundDuration":270242,"Delta":205033041},{"NoteNumber":66,"Velocity":32,"Duration":181225,"SoundDuration":181225,"Delta":205212671},{"NoteNumber":64,"Velocity":32,"Duration":181225,"SoundDuration":181225,"Delta":205393896},{"NoteNumber":74,"Velocity":67,"Duration":960591,"SoundDuration":960591,"Delta":205575121},{"NoteNumber":47,"Velocity":40,"Duration":275167,"SoundDuration":275167,"Delta":205575121},{"NoteNumber":71,"Velocity":34,"Duration":184570,"SoundDuration":184570,"Delta":205758004},{"NoteNumber":66,"Velocity":34,"Duration":183726,"SoundDuration":183726,"Delta":205942574},{"NoteNumber":71,"Velocity":34,"Duration":182882,"SoundDuration":182882,"Delta":206126300},{"NoteNumber":54,"Velocity":28,"Duration":409413,"SoundDuration":409413,"Delta":206126300},{"NoteNumber":66,"Velocity":34,"Duration":181225,"SoundDuration":181225,"Delta":206309182},{"NoteNumber":64,"Velocity":32,"Duration":180427,"SoundDuration":180427,"Delta":206490407},{"NoteNumber":73,"Velocity":62,"Duration":135121,"SoundDuration":135121,"Delta":206535713},{"NoteNumber":58,"Velocity":28,"Duration":135121,"SoundDuration":135121,"Delta":206535713},{"NoteNumber":71,"Velocity":66,"Duration":534892,"SoundDuration":534892,"Delta":206670834},{"NoteNumber":59,"Velocity":36,"Duration":534892,"SoundDuration":534892,"Delta":206670834},{"NoteNumber":62,"Velocity":32,"Duration":178031,"SoundDuration":178031,"Delta":206849665},{"NoteNumber":66,"Velocity":32,"Duration":178031,"SoundDuration":178031,"Delta":207027696},{"NoteNumber":74,"Velocity":62,"Duration":534092,"SoundDuration":534092,"Delta":207205727},{"NoteNumber":47,"Velocity":27,"Duration":534092,"SoundDuration":534092,"Delta":207205727},{"NoteNumber":54,"Velocity":32,"Duration":400569,"SoundDuration":400569,"Delta":207205727},{"NoteNumber":66,"Velocity":30,"Duration":178031,"SoundDuration":178031,"Delta":207383758},{"NoteNumber":68,"Velocity":30,"Duration":178030,"SoundDuration":178030,"Delta":207561789},{"NoteNumber":56,"Velocity":32,"Duration":133523,"SoundDuration":133523,"Delta":207606297},{"NoteNumber":73,"Velocity":62,"Duration":538890,"SoundDuration":538890,"Delta":207739820},{"NoteNumber":49,"Velocity":27,"Duration":538890,"SoundDuration":538890,"Delta":207739820},{"NoteNumber":57,"Velocity":32,"Duration":538890,"SoundDuration":538890,"Delta":207739820},{"NoteNumber":69,"Velocity":32,"Duration":179630,"SoundDuration":179630,"Delta":207919450},{"NoteNumber":64,"Velocity":32,"Duration":179630,"SoundDuration":179630,"Delta":208099080},{"NoteNumber":71,"Velocity":62,"Duration":553709,"SoundDuration":553709,"Delta":208278710},{"NoteNumber":52,"Velocity":28,"Duration":553709,"SoundDuration":553709,"Delta":208278710},{"NoteNumber":56,"Velocity":33,"Duration":553709,"SoundDuration":553709,"Delta":208278710},{"NoteNumber":64,"Velocity":32,"Duration":184569,"SoundDuration":184569,"Delta":208463280},{"NoteNumber":62,"Velocity":32,"Duration":184570,"SoundDuration":184570,"Delta":208693992},{"NoteNumber":71,"Velocity":66,"Duration":1107419,"SoundDuration":1107419,"Delta":208832420},{"NoteNumber":45,"Velocity":36,"Duration":276855,"SoundDuration":276855,"Delta":208832420},{"NoteNumber":68,"Velocity":31,"Duration":184570,"SoundDuration":184570,"Delta":209016990},{"NoteNumber":64,"Velocity":31,"Duration":184569,"SoundDuration":184569,"Delta":209201560},{"NoteNumber":68,"Velocity":31,"Duration":184570,"SoundDuration":184570,"Delta":209386130},{"NoteNumber":52,"Velocity":33,"Duration":276855,"SoundDuration":276855,"Delta":209386130},{"NoteNumber":56,"Velocity":33,"Duration":276855,"SoundDuration":276855,"Delta":209386130},{"NoteNumber":64,"Velocity":31,"Duration":184570,"SoundDuration":184570,"Delta":209570700},{"NoteNumber":62,"Velocity":31,"Duration":184569,"SoundDuration":184569,"Delta":209755270},{"NoteNumber":69,"Velocity":66,"Duration":548646,"SoundDuration":548646,"Delta":209939840},{"NoteNumber":61,"Velocity":31,"Duration":548646,"SoundDuration":548646,"Delta":209939840},{"NoteNumber":52,"Velocity":28,"Duration":274323,"SoundDuration":274323,"Delta":209939840},{"NoteNumber":57,"Velocity":33,"Duration":274323,"SoundDuration":274323,"Delta":209939840},{"NoteNumber":45,"Velocity":31,"Duration":205742,"SoundDuration":205742,"Delta":209939840},{"NoteNumber":45,"Velocity":38,"Duration":137161,"SoundDuration":137161,"Delta":210214163},{"NoteNumber":47,"Velocity":37,"Duration":137161,"SoundDuration":137161,"Delta":210488486},{"NoteNumber":49,"Velocity":35,"Duration":137161,"SoundDuration":137161,"Delta":210762810},{"NoteNumber":47,"Velocity":34,"Duration":138427,"SoundDuration":138427,"Delta":211037133},{"NoteNumber":45,"Velocity":32,"Duration":139690,"SoundDuration":139690,"Delta":211313988},{"NoteNumber":44,"Velocity":31,"Duration":141004,"SoundDuration":141004,"Delta":211593370},{"NoteNumber":42,"Velocity":31,"Duration":142314,"SoundDuration":142314,"Delta":211875378},{"NoteNumber":56,"Velocity":38,"Duration":1128031,"SoundDuration":1128031,"Delta":212160008},{"NoteNumber":59,"Velocity":45,"Duration":1128031,"SoundDuration":1128031,"Delta":212160008},{"NoteNumber":40,"Velocity":34,"Duration":282007,"SoundDuration":282007,"Delta":212160008},{"NoteNumber":52,"Velocity":28,"Duration":141004,"SoundDuration":141004,"Delta":212442016},{"NoteNumber":52,"Velocity":28,"Duration":141003,"SoundDuration":141003,"Delta":212724024},{"NoteNumber":52,"Velocity":28,"Duration":141004,"SoundDuration":141004,"Delta":213006032},{"NoteNumber":56,"Velocity":38,"Duration":1097293,"SoundDuration":1097293,"Delta":213288040},{"NoteNumber":59,"Velocity":46,"Duration":1097293,"SoundDuration":1097293,"Delta":213288040},{"NoteNumber":40,"Velocity":33,"Duration":274323,"SoundDuration":274323,"Delta":213288040},{"NoteNumber":52,"Velocity":28,"Duration":137161,"SoundDuration":137161,"Delta":213562363},{"NoteNumber":52,"Velocity":28,"Duration":137161,"SoundDuration":137161,"Delta":213836686},{"NoteNumber":52,"Velocity":28,"Duration":137161,"SoundDuration":137161,"Delta":214111009},{"NoteNumber":52,"Velocity":38,"Duration":1138519,"SoundDuration":1138519,"Delta":214385333},{"NoteNumber":58,"Velocity":38,"Duration":1138519,"SoundDuration":1138519,"Delta":214385333},{"NoteNumber":61,"Velocity":45,"Duration":1138519,"SoundDuration":1138519,"Delta":214385333},{"NoteNumber":37,"Velocity":32,"Duration":284629,"SoundDuration":284629,"Delta":214385333},{"NoteNumber":49,"Velocity":28,"Duration":142314,"SoundDuration":142314,"Delta":214669963},{"NoteNumber":49,"Velocity":28,"Duration":142314,"SoundDuration":142314,"Delta":214954593},{"NoteNumber":49,"Velocity":28,"Duration":142314,"SoundDuration":142314,"Delta":215239223},{"NoteNumber":54,"Velocity":38,"Duration":2245939,"SoundDuration":2245939,"Delta":215523853},{"NoteNumber":62,"Velocity":46,"Duration":877609,"SoundDuration":877609,"Delta":215523853},{"NoteNumber":59,"Velocity":38,"Duration":877609,"SoundDuration":877609,"Delta":215523853},{"NoteNumber":35,"Velocity":34,"Duration":284629,"SoundDuration":284629,"Delta":215523853},{"NoteNumber":47,"Velocity":29,"Duration":142314,"SoundDuration":142314,"Delta":215808483},{"NoteNumber":47,"Velocity":29,"Duration":142314,"SoundDuration":142314,"Delta":216093113},{"NoteNumber":61,"Velocity":36,"Duration":307701,"SoundDuration":307701,"Delta":216377743},{"NoteNumber":64,"Velocity":42,"Duration":307701,"SoundDuration":307701,"Delta":216377743},{"NoteNumber":47,"Velocity":29,"Duration":142314,"SoundDuration":142314,"Delta":216377743},{"NoteNumber":62,"Velocity":36,"Duration":1636800,"SoundDuration":1636800,"Delta":216662373},{"NoteNumber":66,"Velocity":42,"Duration":1636800,"SoundDuration":1636800,"Delta":216662373},{"NoteNumber":35,"Velocity":29,"Duration":207641,"SoundDuration":207641,"Delta":216662373},{"NoteNumber":47,"Velocity":29,"Duration":138427,"SoundDuration":138427,"Delta":216939228},{"NoteNumber":47,"Velocity":29,"Duration":138427,"SoundDuration":138427,"Delta":217216083},{"NoteNumber":47,"Velocity":29,"Duration":138427,"SoundDuration":138427,"Delta":217492938},{"NoteNumber":54,"Velocity":38,"Duration":529380,"SoundDuration":529380,"Delta":217769793},{"NoteNumber":35,"Velocity":34,"Duration":264690,"SoundDuration":264690,"Delta":217769793},{"NoteNumber":47,"Velocity":32,"Duration":264690,"SoundDuration":264690,"Delta":218034483},{"NoteNumber":56,"Velocity":45,"Duration":576922,"SoundDuration":576922,"Delta":218299173},{"NoteNumber":62,"Velocity":45,"Duration":576922,"SoundDuration":576922,"Delta":218299173},{"NoteNumber":66,"Velocity":54,"Duration":576922,"SoundDuration":576922,"Delta":218299173},{"NoteNumber":35,"Velocity":35,"Duration":216346,"SoundDuration":216346,"Delta":218299173},{"NoteNumber":47,"Velocity":39,"Duration":216346,"SoundDuration":216346,"Delta":218587635},{"NoteNumber":57,"Velocity":49,"Duration":830565,"SoundDuration":830565,"Delta":218876096},{"NoteNumber":62,"Velocity":49,"Duration":830565,"SoundDuration":830565,"Delta":218876096},{"NoteNumber":66,"Velocity":58,"Duration":830565,"SoundDuration":830565,"Delta":218876096},{"NoteNumber":33,"Velocity":42,"Duration":276855,"SoundDuration":276855,"Delta":218876096},{"NoteNumber":45,"Velocity":38,"Duration":276854,"SoundDuration":276854,"Delta":219152951},{"NoteNumber":45,"Velocity":40,"Duration":276855,"SoundDuration":276855,"Delta":219429806},{"NoteNumber":59,"Velocity":48,"Duration":276854,"SoundDuration":276854,"Delta":219706661},{"NoteNumber":62,"Velocity":48,"Duration":276854,"SoundDuration":276854,"Delta":219706661},{"NoteNumber":67,"Velocity":58,"Duration":276854,"SoundDuration":276854,"Delta":219706661},{"NoteNumber":43,"Velocity":41,"Duration":276854,"SoundDuration":276854,"Delta":219706661},{"NoteNumber":57,"Velocity":50,"Duration":538890,"SoundDuration":538890,"Delta":219983516},{"NoteNumber":62,"Velocity":50,"Duration":538890,"SoundDuration":538890,"Delta":219983516},{"NoteNumber":69,"Velocity":60,"Duration":538890,"SoundDuration":538890,"Delta":219983516},{"NoteNumber":30,"Velocity":43,"Duration":269444,"SoundDuration":269444,"Delta":219983516},{"NoteNumber":42,"Velocity":37,"Duration":269445,"SoundDuration":269445,"Delta":220252961},{"NoteNumber":59,"Velocity":48,"Duration":538889,"SoundDuration":538889,"Delta":220522406},{"NoteNumber":62,"Velocity":48,"Duration":538889,"SoundDuration":538889,"Delta":220522406},{"NoteNumber":67,"Velocity":57,"Duration":538889,"SoundDuration":538889,"Delta":220522406},{"NoteNumber":31,"Velocity":39,"Duration":269444,"SoundDuration":269444,"Delta":220522406},{"NoteNumber":43,"Velocity":37,"Duration":269444,"SoundDuration":269444,"Delta":220791851},{"NoteNumber":57,"Velocity":46,"Duration":585937,"SoundDuration":585937,"Delta":221061296},{"NoteNumber":62,"Velocity":46,"Duration":585937,"SoundDuration":585937,"Delta":221061296},{"NoteNumber":66,"Velocity":55,"Duration":585937,"SoundDuration":585937,"Delta":221061296},{"NoteNumber":33,"Velocity":37,"Duration":292968,"SoundDuration":292968,"Delta":221061296},{"NoteNumber":45,"Velocity":36,"Duration":292968,"SoundDuration":292968,"Delta":221354265},{"NoteNumber":55,"Velocity":44,"Duration":616220,"SoundDuration":616220,"Delta":221647234},{"NoteNumber":57,"Velocity":44,"Duration":616220,"SoundDuration":616220,"Delta":221647234},{"NoteNumber":61,"Velocity":44,"Duration":616220,"SoundDuration":616220,"Delta":221647234},{"NoteNumber":64,"Velocity":51,"Duration":616220,"SoundDuration":616220,"Delta":221647234},{"NoteNumber":33,"Velocity":35,"Duration":305082,"SoundDuration":305082,"Delta":221647234},{"NoteNumber":45,"Velocity":34,"Duration":311138,"SoundDuration":311138,"Delta":221952316},{"NoteNumber":55,"Velocity":39,"Duration":1128031,"SoundDuration":1128031,"Delta":222263454},{"NoteNumber":57,"Velocity":39,"Duration":1128031,"SoundDuration":1128031,"Delta":222263454},{"NoteNumber":61,"Velocity":39,"Duration":1128031,"SoundDuration":1128031,"Delta":222263454},{"NoteNumber":64,"Velocity":47,"Duration":1128031,"SoundDuration":1128031,"Delta":222263454},{"NoteNumber":33,"Velocity":31,"Duration":282007,"SoundDuration":282007,"Delta":222263454},{"NoteNumber":45,"Velocity":29,"Duration":282008,"SoundDuration":282008,"Delta":222545462},{"NoteNumber":49,"Velocity":31,"Duration":282007,"SoundDuration":282007,"Delta":222827470},{"NoteNumber":45,"Velocity":33,"Duration":282007,"SoundDuration":282007,"Delta":223109478},{"NoteNumber":54,"Velocity":39,"Duration":2324618,"SoundDuration":2324618,"Delta":223391486},{"NoteNumber":57,"Velocity":39,"Duration":2324618,"SoundDuration":2324618,"Delta":223391486},{"NoteNumber":62,"Velocity":47,"Duration":2324618,"SoundDuration":2324618,"Delta":223391486},{"NoteNumber":38,"Velocity":35,"Duration":203878,"SoundDuration":203878,"Delta":223391486},{"NoteNumber":50,"Velocity":29,"Duration":137161,"SoundDuration":137161,"Delta":223663324},{"NoteNumber":50,"Velocity":28,"Duration":138427,"SoundDuration":138427,"Delta":223937647},{"NoteNumber":50,"Velocity":28,"Duration":139690,"SoundDuration":139690,"Delta":224214502},{"NoteNumber":50,"Velocity":27,"Duration":138004,"SoundDuration":138004,"Delta":224494759},{"NoteNumber":50,"Velocity":26,"Duration":146040,"SoundDuration":146040,"Delta":224774204},{"NoteNumber":50,"Velocity":25,"Duration":155016,"SoundDuration":155016,"Delta":225070138},{"NoteNumber":50,"Velocity":24,"Duration":248673,"SoundDuration":248673,"Delta":225384540},{"NoteNumber":53,"Velocity":28,"Duration":1128031,"SoundDuration":1128031,"Delta":225716105},{"NoteNumber":58,"Velocity":34,"Duration":1128031,"SoundDuration":1128031,"Delta":225716105},{"NoteNumber":38,"Velocity":25,"Duration":282007,"SoundDuration":282007,"Delta":225716105},{"NoteNumber":50,"Velocity":21,"Duration":141004,"SoundDuration":141004,"Delta":225998113},{"NoteNumber":50,"Velocity":21,"Duration":141003,"SoundDuration":141003,"Delta":226280121},{"NoteNumber":50,"Velocity":21,"Duration":141004,"SoundDuration":141004,"Delta":226562129},{"NoteNumber":53,"Velocity":28,"Duration":1097293,"SoundDuration":1097293,"Delta":226844137},{"NoteNumber":58,"Velocity":34,"Duration":1097293,"SoundDuration":1097293,"Delta":226844137},{"NoteNumber":38,"Velocity":24,"Duration":274323,"SoundDuration":274323,"Delta":226844137},{"NoteNumber":50,"Velocity":21,"Duration":137161,"SoundDuration":137161,"Delta":227118461},{"NoteNumber":50,"Velocity":21,"Duration":137161,"SoundDuration":137161,"Delta":227392784},{"NoteNumber":50,"Velocity":21,"Duration":137161,"SoundDuration":137161,"Delta":227667107},{"NoteNumber":53,"Velocity":28,"Duration":1138519,"SoundDuration":1138519,"Delta":227941430},{"NoteNumber":58,"Velocity":34,"Duration":1138519,"SoundDuration":1138519,"Delta":227941430},{"NoteNumber":38,"Velocity":23,"Duration":284629,"SoundDuration":284629,"Delta":227941430},{"NoteNumber":50,"Velocity":21,"Duration":142314,"SoundDuration":142314,"Delta":228226060},{"NoteNumber":50,"Velocity":21,"Duration":142314,"SoundDuration":142314,"Delta":228510690},{"NoteNumber":50,"Velocity":21,"Duration":142314,"SoundDuration":142314,"Delta":228795320},{"NoteNumber":58,"Velocity":34,"Duration":853890,"SoundDuration":853890,"Delta":229079950},{"NoteNumber":55,"Velocity":28,"Duration":853890,"SoundDuration":853890,"Delta":229079950},{"NoteNumber":39,"Velocity":25,"Duration":284629,"SoundDuration":284629,"Delta":229079950},{"NoteNumber":51,"Velocity":22,"Duration":142314,"SoundDuration":142314,"Delta":229364580},{"NoteNumber":51,"Velocity":22,"Duration":142314,"SoundDuration":142314,"Delta":229649210},{"NoteNumber":57,"Velocity":27,"Duration":97087,"SoundDuration":97087,"Delta":229933840},{"NoteNumber":51,"Velocity":22,"Duration":145631,"SoundDuration":145631,"Delta":229933840},{"NoteNumber":58,"Velocity":27,"Duration":97087,"SoundDuration":97087,"Delta":230006656},{"NoteNumber":60,"Velocity":27,"Duration":97087,"SoundDuration":97087,"Delta":230079472},{"NoteNumber":58,"Velocity":27,"Duration":96766,"SoundDuration":96766,"Delta":230152287},{"NoteNumber":55,"Velocity":31,"Duration":574823,"SoundDuration":574823,"Delta":230225103},{"NoteNumber":39,"Velocity":22,"Duration":215558,"SoundDuration":215558,"Delta":230225103},{"NoteNumber":51,"Velocity":22,"Duration":215558,"SoundDuration":215558,"Delta":230512514},{"NoteNumber":55,"Velocity":28,"Duration":553709,"SoundDuration":553709,"Delta":230799926},{"NoteNumber":63,"Velocity":28,"Duration":553709,"SoundDuration":553709,"Delta":230799926},{"NoteNumber":67,"Velocity":34,"Duration":553709,"SoundDuration":553709,"Delta":230799926},{"NoteNumber":36,"Velocity":22,"Duration":207641,"SoundDuration":207641,"Delta":230799926},{"NoteNumber":48,"Velocity":22,"Duration":207641,"SoundDuration":207641,"Delta":231076781},{"NoteNumber":55,"Velocity":28,"Duration":543675,"SoundDuration":543675,"Delta":231353636},{"NoteNumber":59,"Velocity":28,"Duration":543675,"SoundDuration":543675,"Delta":231353636},{"NoteNumber":65,"Velocity":34,"Duration":543675,"SoundDuration":543675,"Delta":231353636},{"NoteNumber":38,"Velocity":25,"Duration":271837,"SoundDuration":271837,"Delta":231353636},{"NoteNumber":50,"Velocity":19,"Duration":271837,"SoundDuration":271837,"Delta":231625473},{"NoteNumber":55,"Velocity":23,"Duration":553709,"SoundDuration":553709,"Delta":231897311},{"NoteNumber":60,"Velocity":23,"Duration":553709,"SoundDuration":553709,"Delta":231897311},{"NoteNumber":63,"Velocity":34,"Duration":553709,"SoundDuration":553709,"Delta":231897311},{"NoteNumber":39,"Velocity":22,"Duration":207641,"SoundDuration":207641,"Delta":231897311},{"NoteNumber":51,"Velocity":22,"Duration":207641,"SoundDuration":207641,"Delta":232174166},{"NoteNumber":53,"Velocity":30,"Duration":2194956,"SoundDuration":2194956,"Delta":232451021},{"NoteNumber":58,"Velocity":30,"Duration":2194956,"SoundDuration":2194956,"Delta":232451021},{"NoteNumber":62,"Velocity":37,"Duration":2194956,"SoundDuration":2194956,"Delta":232451021},{"NoteNumber":29,"Velocity":26,"Duration":276855,"SoundDuration":276855,"Delta":232451021},{"NoteNumber":41,"Velocity":22,"Duration":138427,"SoundDuration":138427,"Delta":232727876},{"NoteNumber":41,"Velocity":22,"Duration":138427,"SoundDuration":138427,"Delta":233004731},{"NoteNumber":41,"Velocity":22,"Duration":138427,"SoundDuration":138427,"Delta":233281586},{"NoteNumber":29,"Velocity":22,"Duration":269444,"SoundDuration":269444,"Delta":233558441},{"NoteNumber":41,"Velocity":22,"Duration":134722,"SoundDuration":134722,"Delta":233827886},{"NoteNumber":41,"Velocity":22,"Duration":137161,"SoundDuration":137161,"Delta":234097331},{"NoteNumber":41,"Velocity":22,"Duration":137161,"SoundDuration":137161,"Delta":234371654},{"NoteNumber":51,"Velocity":30,"Duration":1149953,"SoundDuration":1149953,"Delta":234645977},{"NoteNumber":57,"Velocity":30,"Duration":1149953,"SoundDuration":1149953,"Delta":234645977},{"NoteNumber":63,"Velocity":36,"Duration":881398,"SoundDuration":881398,"Delta":234645977},{"NoteNumber":29,"Velocity":22,"Duration":282007,"SoundDuration":282007,"Delta":234645977},{"NoteNumber":41,"Velocity":22,"Duration":141004,"SoundDuration":141004,"Delta":234927985},{"NoteNumber":41,"Velocity":22,"Duration":146484,"SoundDuration":146484,"Delta":235209993},{"NoteNumber":60,"Velocity":34,"Duration":316469,"SoundDuration":316469,"Delta":235502962},{"NoteNumber":41,"Velocity":22,"Duration":146484,"SoundDuration":146484,"Delta":235502962},{"NoteNumber":50,"Velocity":29,"Duration":3348199,"SoundDuration":3348199,"Delta":235795931},{"NoteNumber":56,"Velocity":29,"Duration":3348199,"SoundDuration":3348199,"Delta":235795931},{"NoteNumber":59,"Velocity":35,"Duration":3348199,"SoundDuration":3348199,"Delta":235795931},{"NoteNumber":29,"Velocity":26,"Duration":282007,"SoundDuration":282007,"Delta":235795931},{"NoteNumber":41,"Velocity":23,"Duration":141004,"SoundDuration":141004,"Delta":236077939},{"NoteNumber":41,"Velocity":23,"Duration":141003,"SoundDuration":141003,"Delta":236359947},{"NoteNumber":41,"Velocity":24,"Duration":141004,"SoundDuration":141004,"Delta":236641955},{"NoteNumber":29,"Velocity":24,"Duration":274323,"SoundDuration":274323,"Delta":236923963},{"NoteNumber":41,"Velocity":23,"Duration":137161,"SoundDuration":137161,"Delta":237198286},{"NoteNumber":41,"Velocity":23,"Duration":137161,"SoundDuration":137161,"Delta":237472609},{"NoteNumber":41,"Velocity":23,"Duration":137161,"SoundDuration":137161,"Delta":237746932},{"NoteNumber":29,"Velocity":24,"Duration":276855,"SoundDuration":276855,"Delta":238021256},{"NoteNumber":41,"Velocity":23,"Duration":139690,"SoundDuration":139690,"Delta":238298111},{"NoteNumber":41,"Velocity":23,"Duration":141004,"SoundDuration":141004,"Delta":238577492},{"NoteNumber":41,"Velocity":22,"Duration":142314,"SoundDuration":142314,"Delta":238859500},{"NoteNumber":50,"Velocity":36,"Duration":2205073,"SoundDuration":2205073,"Delta":239144130},{"NoteNumber":56,"Velocity":36,"Duration":2205073,"SoundDuration":2205073,"Delta":239144130},{"NoteNumber":59,"Velocity":44,"Duration":1646309,"SoundDuration":1646309,"Delta":239144130},{"NoteNumber":40,"Velocity":31,"Duration":276855,"SoundDuration":276855,"Delta":239144130},{"NoteNumber":52,"Velocity":28,"Duration":138427,"SoundDuration":138427,"Delta":239420985},{"NoteNumber":52,"Velocity":28,"Duration":138427,"SoundDuration":138427,"Delta":239697840},{"NoteNumber":52,"Velocity":29,"Duration":138427,"SoundDuration":138427,"Delta":239974695},{"NoteNumber":40,"Velocity":29,"Duration":269444,"SoundDuration":269444,"Delta":240251550},{"NoteNumber":52,"Velocity":29,"Duration":134722,"SoundDuration":134722,"Delta":240520995},{"NoteNumber":61,"Velocity":46,"Duration":302663,"SoundDuration":302663,"Delta":240790440},{"NoteNumber":52,"Velocity":31,"Duration":139690,"SoundDuration":139690,"Delta":240790440},{"NoteNumber":62,"Velocity":46,"Duration":304527,"SoundDuration":304527,"Delta":241069822},{"NoteNumber":52,"Velocity":30,"Duration":139690,"SoundDuration":139690,"Delta":241069822},{"NoteNumber":64,"Velocity":45,"Duration":603500,"SoundDuration":603500,"Delta":241349204},{"NoteNumber":40,"Velocity":30,"Duration":301750,"SoundDuration":301750,"Delta":241349204},{"NoteNumber":52,"Velocity":29,"Duration":301750,"SoundDuration":301750,"Delta":241650954},{"NoteNumber":50,"Velocity":44,"Duration":641986,"SoundDuration":641986,"Delta":241952704},{"NoteNumber":52,"Velocity":44,"Duration":641986,"SoundDuration":641986,"Delta":241952704},{"NoteNumber":56,"Velocity":44,"Duration":641986,"SoundDuration":641986,"Delta":241952704},{"NoteNumber":40,"Velocity":30,"Duration":320992,"SoundDuration":320992,"Delta":241952704},{"NoteNumber":40,"Velocity":29,"Duration":320993,"SoundDuration":320993,"Delta":242273697},{"NoteNumber":49,"Velocity":38,"Duration":1171875,"SoundDuration":1171875,"Delta":242594690},{"NoteNumber":52,"Velocity":38,"Duration":1171875,"SoundDuration":1171875,"Delta":242594690},{"NoteNumber":57,"Velocity":45,"Duration":1171875,"SoundDuration":1171875,"Delta":242594690},{"NoteNumber":33,"Velocity":34,"Duration":292968,"SoundDuration":292968,"Delta":242594690},{"NoteNumber":45,"Velocity":28,"Duration":146484,"SoundDuration":146484,"Delta":242887659},{"NoteNumber":45,"Velocity":28,"Duration":146484,"SoundDuration":146484,"Delta":243180628},{"NoteNumber":45,"Velocity":28,"Duration":146484,"SoundDuration":146484,"Delta":243473597},{"NoteNumber":49,"Velocity":38,"Duration":1107419,"SoundDuration":1107419,"Delta":243766565},{"NoteNumber":57,"Velocity":46,"Duration":1107419,"SoundDuration":1107419,"Delta":243766565},{"NoteNumber":33,"Velocity":33,"Duration":276855,"SoundDuration":276855,"Delta":243766565},{"NoteNumber":45,"Velocity":28,"Duration":138427,"SoundDuration":138427,"Delta":244043420},{"NoteNumber":45,"Velocity":28,"Duration":138427,"SoundDuration":138427,"Delta":244320275},{"NoteNumber":45,"Velocity":28,"Duration":138427,"SoundDuration":138427,"Delta":244597130},{"NoteNumber":50,"Velocity":38,"Duration":1138519,"SoundDuration":1138519,"Delta":244873985},{"NoteNumber":57,"Velocity":38,"Duration":1138519,"SoundDuration":1138519,"Delta":244873985},{"NoteNumber":59,"Velocity":45,"Duration":1138519,"SoundDuration":1138519,"Delta":244873985},{"NoteNumber":33,"Velocity":32,"Duration":284629,"SoundDuration":284629,"Delta":244873985},{"NoteNumber":45,"Velocity":28,"Duration":142314,"SoundDuration":142314,"Delta":245158615},{"NoteNumber":45,"Velocity":28,"Duration":142314,"SoundDuration":142314,"Delta":245443245},{"NoteNumber":45,"Velocity":28,"Duration":142314,"SoundDuration":142314,"Delta":245727875},{"NoteNumber":52,"Velocity":38,"Duration":877609,"SoundDuration":877609,"Delta":246012505},{"NoteNumber":61,"Velocity":46,"Duration":877609,"SoundDuration":877609,"Delta":246012505},{"NoteNumber":57,"Velocity":38,"Duration":853890,"SoundDuration":853890,"Delta":246012505},{"NoteNumber":33,"Velocity":34,"Duration":284629,"SoundDuration":284629,"Delta":246012505},{"NoteNumber":45,"Velocity":29,"Duration":142314,"SoundDuration":142314,"Delta":246297135},{"NoteNumber":45,"Velocity":29,"Duration":142314,"SoundDuration":142314,"Delta":246581765},{"NoteNumber":50,"Velocity":36,"Duration":307701,"SoundDuration":307701,"Delta":246866395},{"NoteNumber":57,"Velocity":36,"Duration":284629,"SoundDuration":284629,"Delta":246866395},{"NoteNumber":59,"Velocity":42,"Duration":307701,"SoundDuration":307701,"Delta":246866395},{"NoteNumber":45,"Velocity":29,"Duration":142314,"SoundDuration":142314,"Delta":246866395},{"NoteNumber":49,"Velocity":36,"Duration":1661129,"SoundDuration":1661129,"Delta":247151025},{"NoteNumber":57,"Velocity":42,"Duration":1661129,"SoundDuration":1661129,"Delta":247151025},{"NoteNumber":45,"Velocity":29,"Duration":138427,"SoundDuration":138427,"Delta":247151025},{"NoteNumber":45,"Velocity":29,"Duration":138427,"SoundDuration":138427,"Delta":247427880},{"NoteNumber":45,"Velocity":29,"Duration":138427,"SoundDuration":138427,"Delta":247704735},{"NoteNumber":45,"Velocity":29,"Duration":138427,"SoundDuration":138427,"Delta":247981590},{"NoteNumber":45,"Velocity":37,"Duration":138427,"SoundDuration":138427,"Delta":248258445},{"NoteNumber":45,"Velocity":28,"Duration":138427,"SoundDuration":138427,"Delta":248535300},{"NoteNumber":52,"Velocity":41,"Duration":574823,"SoundDuration":574823,"Delta":248812155},{"NoteNumber":57,"Velocity":41,"Duration":574823,"SoundDuration":574823,"Delta":248812155},{"NoteNumber":61,"Velocity":50,"Duration":574823,"SoundDuration":574823,"Delta":248812155},{"NoteNumber":45,"Velocity":31,"Duration":143705,"SoundDuration":143705,"Delta":248812155},{"NoteNumber":45,"Velocity":34,"Duration":143705,"SoundDuration":143705,"Delta":249099567},{"NoteNumber":53,"Velocity":44,"Duration":853636,"SoundDuration":853636,"Delta":249386978},{"NoteNumber":57,"Velocity":44,"Duration":830565,"SoundDuration":830565,"Delta":249386978},{"NoteNumber":62,"Velocity":52,"Duration":853636,"SoundDuration":853636,"Delta":249386978},{"NoteNumber":33,"Velocity":37,"Duration":276855,"SoundDuration":276855,"Delta":249386978},{"NoteNumber":45,"Velocity":34,"Duration":138427,"SoundDuration":138427,"Delta":249663833},{"NoteNumber":45,"Velocity":34,"Duration":138427,"SoundDuration":138427,"Delta":249940688},{"NoteNumber":52,"Velocity":41,"Duration":299308,"SoundDuration":299308,"Delta":250217543},{"NoteNumber":57,"Velocity":41,"Duration":276854,"SoundDuration":276854,"Delta":250217543},{"NoteNumber":61,"Velocity":49,"Duration":299308,"SoundDuration":299308,"Delta":250217543},{"NoteNumber":45,"Velocity":34,"Duration":138427,"SoundDuration":138427,"Delta":250217543},{"NoteNumber":50,"Velocity":42,"Duration":538890,"SoundDuration":538890,"Delta":250494398},{"NoteNumber":57,"Velocity":42,"Duration":538890,"SoundDuration":538890,"Delta":250494398},{"NoteNumber":59,"Velocity":51,"Duration":538890,"SoundDuration":538890,"Delta":250494398},{"NoteNumber":33,"Velocity":34,"Duration":134722,"SoundDuration":134722,"Delta":250494398},{"NoteNumber":45,"Velocity":33,"Duration":134722,"SoundDuration":134722,"Delta":250763843},{"NoteNumber":53,"Velocity":41,"Duration":538889,"SoundDuration":538889,"Delta":251033288},{"NoteNumber":57,"Velocity":41,"Duration":538889,"SoundDuration":538889,"Delta":251033288},{"NoteNumber":62,"Velocity":49,"Duration":538889,"SoundDuration":538889,"Delta":251033288},{"NoteNumber":45,"Velocity":34,"Duration":134722,"SoundDuration":134722,"Delta":251033288},{"NoteNumber":45,"Velocity":34,"Duration":134722,"SoundDuration":134722,"Delta":251302733},{"NoteNumber":52,"Velocity":41,"Duration":564016,"SoundDuration":564016,"Delta":251572178},{"NoteNumber":57,"Velocity":41,"Duration":564016,"SoundDuration":564016,"Delta":251572178},{"NoteNumber":61,"Velocity":49,"Duration":564016,"SoundDuration":564016,"Delta":251572178},{"NoteNumber":33,"Velocity":34,"Duration":282007,"SoundDuration":282007,"Delta":251572178},{"NoteNumber":45,"Velocity":34,"Duration":282008,"SoundDuration":282008,"Delta":251854186},{"NoteNumber":49,"Velocity":41,"Duration":564015,"SoundDuration":564015,"Delta":252136194},{"NoteNumber":52,"Velocity":41,"Duration":564015,"SoundDuration":564015,"Delta":252136194},{"NoteNumber":57,"Velocity":49,"Duration":564015,"SoundDuration":564015,"Delta":252136194},{"NoteNumber":37,"Velocity":34,"Duration":282007,"SoundDuration":282007,"Delta":252136194},{"NoteNumber":49,"Velocity":34,"Duration":282007,"SoundDuration":282007,"Delta":252418202},{"NoteNumber":47,"Velocity":42,"Duration":1635996,"SoundDuration":1635996,"Delta":252700210},{"NoteNumber":52,"Velocity":42,"Duration":1635996,"SoundDuration":1635996,"Delta":252700210},{"NoteNumber":56,"Velocity":51,"Duration":1635996,"SoundDuration":1635996,"Delta":252700210},{"NoteNumber":28,"Velocity":37,"Duration":271837,"SoundDuration":271837,"Delta":252700210},{"NoteNumber":40,"Velocity":31,"Duration":271837,"SoundDuration":271837,"Delta":252972048},{"NoteNumber":40,"Velocity":34,"Duration":271837,"SoundDuration":271837,"Delta":253243885},{"NoteNumber":40,"Velocity":36,"Duration":271837,"SoundDuration":271837,"Delta":253515723},{"NoteNumber":40,"Velocity":40,"Duration":137161,"SoundDuration":137161,"Delta":253787560},{"NoteNumber":40,"Velocity":41,"Duration":137161,"SoundDuration":137161,"Delta":254061884},{"NoteNumber":47,"Velocity":49,"Duration":548646,"SoundDuration":548646,"Delta":254336207},{"NoteNumber":53,"Velocity":49,"Duration":548646,"SoundDuration":548646,"Delta":254336207},{"NoteNumber":56,"Velocity":60,"Duration":548646,"SoundDuration":548646,"Delta":254336207},{"NoteNumber":38,"Velocity":46,"Duration":137161,"SoundDuration":137161,"Delta":254336207},{"NoteNumber":38,"Velocity":47,"Duration":137161,"SoundDuration":137161,"Delta":254610530},{"NoteNumber":48,"Velocity":56,"Duration":556236,"SoundDuration":556236,"Delta":254884853},{"NoteNumber":52,"Velocity":56,"Duration":556236,"SoundDuration":556236,"Delta":254884853},{"NoteNumber":56,"Velocity":66,"Duration":556236,"SoundDuration":556236,"Delta":254884853},{"NoteNumber":36,"Velocity":48,"Duration":138427,"SoundDuration":138427,"Delta":254884853},{"NoteNumber":36,"Velocity":49,"Duration":139690,"SoundDuration":139690,"Delta":255161708},{"NoteNumber":50,"Velocity":59,"Duration":566638,"SoundDuration":566638,"Delta":255441090},{"NoteNumber":52,"Velocity":59,"Duration":566638,"SoundDuration":566638,"Delta":255441090},{"NoteNumber":56,"Velocity":69,"Duration":566638,"SoundDuration":566638,"Delta":255441090},{"NoteNumber":35,"Velocity":51,"Duration":141004,"SoundDuration":141004,"Delta":255441090},{"NoteNumber":35,"Velocity":53,"Duration":142314,"SoundDuration":142314,"Delta":255723098},{"NoteNumber":48,"Velocity":63,"Duration":1171875,"SoundDuration":1171875,"Delta":256007728},{"NoteNumber":52,"Velocity":63,"Duration":1171875,"SoundDuration":1171875,"Delta":256007728},{"NoteNumber":57,"Velocity":76,"Duration":1171875,"SoundDuration":1171875,"Delta":256007728},{"NoteNumber":33,"Velocity":57,"Duration":292968,"SoundDuration":292968,"Delta":256007728},{"NoteNumber":45,"Velocity":46,"Duration":146484,"SoundDuration":146484,"Delta":256300697},{"NoteNumber":45,"Velocity":46,"Duration":146484,"SoundDuration":146484,"Delta":256593666},{"NoteNumber":45,"Velocity":46,"Duration":146484,"SoundDuration":146484,"Delta":256886634},{"NoteNumber":52,"Velocity":63,"Duration":1107419,"SoundDuration":1107419,"Delta":257179603},{"NoteNumber":48,"Velocity":63,"Duration":1107419,"SoundDuration":1107419,"Delta":257179603},{"NoteNumber":57,"Velocity":77,"Duration":1107419,"SoundDuration":1107419,"Delta":257179603},{"NoteNumber":33,"Velocity":57,"Duration":276855,"SoundDuration":276855,"Delta":257179603},{"NoteNumber":45,"Velocity":46,"Duration":138427,"SoundDuration":138427,"Delta":257456458},{"NoteNumber":45,"Velocity":47,"Duration":138427,"SoundDuration":138427,"Delta":257733313},{"NoteNumber":45,"Velocity":47,"Duration":138427,"SoundDuration":138427,"Delta":258010168},{"NoteNumber":50,"Velocity":66,"Duration":1138520,"SoundDuration":1138520,"Delta":258287023},{"NoteNumber":53,"Velocity":66,"Duration":1138520,"SoundDuration":1138520,"Delta":258287023},{"NoteNumber":59,"Velocity":79,"Duration":1138520,"SoundDuration":1138520,"Delta":258287023},{"NoteNumber":31,"Velocity":55,"Duration":284629,"SoundDuration":284629,"Delta":258287023},{"NoteNumber":43,"Velocity":47,"Duration":142314,"SoundDuration":142314,"Delta":258571653},{"NoteNumber":43,"Velocity":48,"Duration":142314,"SoundDuration":142314,"Delta":258856283},{"NoteNumber":43,"Velocity":48,"Duration":142314,"SoundDuration":142314,"Delta":259140913},{"NoteNumber":52,"Velocity":69,"Duration":877609,"SoundDuration":877609,"Delta":259425543},{"NoteNumber":60,"Velocity":84,"Duration":1138519,"SoundDuration":1138519,"Delta":259425543},{"NoteNumber":55,"Velocity":69,"Duration":877609,"SoundDuration":877609,"Delta":259425543},{"NoteNumber":36,"Velocity":60,"Duration":284629,"SoundDuration":284629,"Delta":259425543},{"NoteNumber":48,"Velocity":49,"Duration":142314,"SoundDuration":142314,"Delta":259710173},{"NoteNumber":48,"Velocity":50,"Duration":142314,"SoundDuration":142314,"Delta":259994803},{"NoteNumber":53,"Velocity":66,"Duration":307701,"SoundDuration":307701,"Delta":260279433},{"NoteNumber":57,"Velocity":66,"Duration":307701,"SoundDuration":307701,"Delta":260279433},{"NoteNumber":48,"Velocity":50,"Duration":142314,"SoundDuration":142314,"Delta":260279433},{"NoteNumber":55,"Velocity":66,"Duration":1661130,"SoundDuration":1661130,"Delta":260564063},{"NoteNumber":52,"Velocity":66,"Duration":1661130,"SoundDuration":1661130,"Delta":260564063},{"NoteNumber":60,"Velocity":77,"Duration":1661130,"SoundDuration":1661130,"Delta":260564063},{"NoteNumber":36,"Velocity":50,"Duration":207641,"SoundDuration":207641,"Delta":260564063},{"NoteNumber":48,"Velocity":50,"Duration":138427,"SoundDuration":138427,"Delta":260840918},{"NoteNumber":48,"Velocity":51,"Duration":138427,"SoundDuration":138427,"Delta":261117773},{"NoteNumber":48,"Velocity":51,"Duration":138427,"SoundDuration":138427,"Delta":261394628},{"NoteNumber":36,"Velocity":57,"Duration":276855,"SoundDuration":276855,"Delta":261671483},{"NoteNumber":48,"Velocity":51,"Duration":276855,"SoundDuration":276855,"Delta":261948338},{"NoteNumber":57,"Velocity":66,"Duration":624199,"SoundDuration":624199,"Delta":262225193},{"NoteNumber":62,"Velocity":80,"Duration":624199,"SoundDuration":624199,"Delta":262225193},{"NoteNumber":41,"Velocity":54,"Duration":225263,"SoundDuration":225263,"Delta":262225193},{"NoteNumber":53,"Velocity":57,"Duration":239361,"SoundDuration":239361,"Delta":262530244},{"NoteNumber":56,"Velocity":71,"Duration":1107419,"SoundDuration":1107419,"Delta":262849393},{"NoteNumber":59,"Velocity":71,"Duration":1107419,"SoundDuration":1107419,"Delta":262849393},{"NoteNumber":64,"Velocity":85,"Duration":853636,"SoundDuration":853636,"Delta":262849393},{"NoteNumber":40,"Velocity":60,"Duration":276855,"SoundDuration":276855,"Delta":262849393},{"NoteNumber":52,"Velocity":50,"Duration":138427,"SoundDuration":138427,"Delta":263126248},{"NoteNumber":52,"Velocity":50,"Duration":138427,"SoundDuration":138427,"Delta":263403103},{"NoteNumber":62,"Velocity":59,"Duration":298347,"SoundDuration":298347,"Delta":263679958},{"NoteNumber":52,"Velocity":48,"Duration":138427,"SoundDuration":138427,"Delta":263679958},{"NoteNumber":57,"Velocity":52,"Duration":515818,"SoundDuration":515818,"Delta":263956813},{"NoteNumber":61,"Velocity":63,"Duration":515818,"SoundDuration":515818,"Delta":263956813},{"NoteNumber":42,"Velocity":41,"Duration":257909,"SoundDuration":257909,"Delta":263956813},{"NoteNumber":54,"Velocity":39,"Duration":257909,"SoundDuration":257909,"Delta":264214722},{"NoteNumber":54,"Velocity":35,"Duration":269445,"SoundDuration":269445,"Delta":264472632},{"NoteNumber":57,"Velocity":35,"Duration":269445,"SoundDuration":269445,"Delta":264472632},{"NoteNumber":64,"Velocity":41,"Duration":269445,"SoundDuration":269445,"Delta":264472632},{"NoteNumber":38,"Velocity":34,"Duration":269445,"SoundDuration":269445,"Delta":264472632},{"NoteNumber":62,"Velocity":41,"Duration":282008,"SoundDuration":282008,"Delta":264742077},{"NoteNumber":50,"Velocity":34,"Duration":282008,"SoundDuration":282008,"Delta":264742077},{"NoteNumber":52,"Velocity":41,"Duration":585937,"SoundDuration":585937,"Delta":265024085},{"NoteNumber":57,"Velocity":41,"Duration":585937,"SoundDuration":585937,"Delta":265024085},{"NoteNumber":61,"Velocity":49,"Duration":585937,"SoundDuration":585937,"Delta":265024085},{"NoteNumber":40,"Velocity":34,"Duration":292968,"SoundDuration":292968,"Delta":265024085},{"NoteNumber":52,"Velocity":34,"Duration":292968,"SoundDuration":292968,"Delta":265317053},{"NoteNumber":50,"Velocity":38,"Duration":616220,"SoundDuration":616220,"Delta":265610022},{"NoteNumber":52,"Velocity":38,"Duration":616220,"SoundDuration":616220,"Delta":265610022},{"NoteNumber":56,"Velocity":38,"Duration":616220,"SoundDuration":616220,"Delta":265610022},{"NoteNumber":59,"Velocity":45,"Duration":616220,"SoundDuration":616220,"Delta":265610022},{"NoteNumber":40,"Velocity":31,"Duration":305082,"SoundDuration":305082,"Delta":265610022},{"NoteNumber":52,"Velocity":31,"Duration":311138,"SoundDuration":311138,"Delta":265915104},{"NoteNumber":50,"Velocity":39,"Duration":1128032,"SoundDuration":1128032,"Delta":266226243},{"NoteNumber":52,"Velocity":39,"Duration":1676678,"SoundDuration":1676678,"Delta":266226243},{"NoteNumber":56,"Velocity":39,"Duration":1128032,"SoundDuration":1128032,"Delta":266226243},{"NoteNumber":59,"Velocity":47,"Duration":1128032,"SoundDuration":1128032,"Delta":266226243},{"NoteNumber":40,"Velocity":29,"Duration":282007,"SoundDuration":282007,"Delta":266508251},{"NoteNumber":44,"Velocity":31,"Duration":282008,"SoundDuration":282008,"Delta":266790259},{"NoteNumber":40,"Velocity":33,"Duration":282008,"SoundDuration":282008,"Delta":267072267},{"NoteNumber":49,"Velocity":39,"Duration":1097292,"SoundDuration":1097292,"Delta":267354275},{"NoteNumber":57,"Velocity":47,"Duration":1097292,"SoundDuration":1097292,"Delta":267354275},{"NoteNumber":45,"Velocity":35,"Duration":205742,"SoundDuration":205742,"Delta":267354275},{"NoteNumber":45,"Velocity":32,"Duration":137161,"SoundDuration":137161,"Delta":267628598},{"NoteNumber":47,"Velocity":32,"Duration":137161,"SoundDuration":137161,"Delta":267902921},{"NoteNumber":49,"Velocity":32,"Duration":137161,"SoundDuration":137161,"Delta":268177245},{"NoteNumber":47,"Velocity":32,"Duration":138427,"SoundDuration":138427,"Delta":268451568},{"NoteNumber":45,"Velocity":32,"Duration":139690,"SoundDuration":139690,"Delta":268728423},{"NoteNumber":44,"Velocity":31,"Duration":141004,"SoundDuration":141004,"Delta":269007805},{"NoteNumber":42,"Velocity":31,"Duration":142314,"SoundDuration":142314,"Delta":269289813},{"NoteNumber":71,"Velocity":62,"Duration":1091661,"SoundDuration":1091661,"Delta":269574443},{"NoteNumber":40,"Velocity":36,"Duration":276855,"SoundDuration":276855,"Delta":269574443},{"NoteNumber":68,"Velocity":31,"Duration":183726,"SoundDuration":183726,"Delta":269759013},{"NoteNumber":64,"Velocity":31,"Duration":182882,"SoundDuration":182882,"Delta":269942739},{"NoteNumber":68,"Velocity":31,"Duration":181224,"SoundDuration":181224,"Delta":270125621},{"NoteNumber":52,"Velocity":23,"Duration":271837,"SoundDuration":271837,"Delta":270125621},{"NoteNumber":56,"Velocity":27,"Duration":271837,"SoundDuration":271837,"Delta":270125621},{"NoteNumber":64,"Velocity":31,"Duration":180427,"SoundDuration":180427,"Delta":270306846},{"NoteNumber":59,"Velocity":31,"Duration":178830,"SoundDuration":178830,"Delta":270487273},{"NoteNumber":71,"Velocity":63,"Duration":1087594,"SoundDuration":1087594,"Delta":270666104},{"NoteNumber":40,"Velocity":36,"Duration":267845,"SoundDuration":267845,"Delta":270666104},{"NoteNumber":68,"Velocity":31,"Duration":179629,"SoundDuration":179629,"Delta":270844135},{"NoteNumber":64,"Velocity":31,"Duration":180427,"SoundDuration":180427,"Delta":271023765},{"NoteNumber":68,"Velocity":31,"Duration":182053,"SoundDuration":182053,"Delta":271204193},{"NoteNumber":52,"Velocity":24,"Duration":273494,"SoundDuration":273494,"Delta":271204193},{"NoteNumber":56,"Velocity":28,"Duration":273494,"SoundDuration":273494,"Delta":271204193},{"NoteNumber":64,"Velocity":31,"Duration":182882,"SoundDuration":182882,"Delta":271386246},{"NoteNumber":59,"Velocity":31,"Duration":184570,"SoundDuration":184570,"Delta":271569128},{"NoteNumber":73,"Velocity":62,"Duration":1117526,"SoundDuration":1117526,"Delta":271753698},{"NoteNumber":49,"Velocity":36,"Duration":279381,"SoundDuration":279381,"Delta":271753698},{"NoteNumber":70,"Velocity":31,"Duration":186254,"SoundDuration":186254,"Delta":271939953},{"NoteNumber":66,"Velocity":32,"Duration":186254,"SoundDuration":186254,"Delta":272126207},{"NoteNumber":70,"Velocity":32,"Duration":186254,"SoundDuration":186254,"Delta":272312462},{"NoteNumber":54,"Velocity":25,"Duration":279381,"SoundDuration":279381,"Delta":272312462},{"NoteNumber":58,"Velocity":29,"Duration":279381,"SoundDuration":279381,"Delta":272312462},{"NoteNumber":66,"Velocity":32,"Duration":186254,"SoundDuration":186254,"Delta":272498716},{"NoteNumber":64,"Velocity":32,"Duration":186254,"SoundDuration":186254,"Delta":272684971},{"NoteNumber":74,"Velocity":63,"Duration":971095,"SoundDuration":971095,"Delta":272871225},{"NoteNumber":47,"Velocity":36,"Duration":279381,"SoundDuration":279381,"Delta":272871225},{"NoteNumber":71,"Velocity":32,"Duration":186254,"SoundDuration":186254,"Delta":273057480},{"NoteNumber":66,"Velocity":32,"Duration":184570,"SoundDuration":184570,"Delta":273243734},{"NoteNumber":71,"Velocity":32,"Duration":184570,"SoundDuration":184570,"Delta":273428304},{"NoteNumber":54,"Velocity":25,"Duration":276854,"SoundDuration":276854,"Delta":273428304},{"NoteNumber":59,"Velocity":30,"Duration":276854,"SoundDuration":276854,"Delta":273428304},{"NoteNumber":66,"Velocity":32,"Duration":183726,"SoundDuration":183726,"Delta":273612874},{"NoteNumber":73,"Velocity":25,"Duration":182882,"SoundDuration":182882,"Delta":273796600},{"NoteNumber":76,"Velocity":56,"Duration":137161,"SoundDuration":137161,"Delta":273842321},{"NoteNumber":78,"Velocity":59,"Duration":1620711,"SoundDuration":1620711,"Delta":273979483},{"NoteNumber":47,"Velocity":36,"Duration":273494,"SoundDuration":273494,"Delta":273979483},{"NoteNumber":74,"Velocity":31,"Duration":181224,"SoundDuration":181224,"Delta":274162365},{"NoteNumber":71,"Velocity":31,"Duration":181225,"SoundDuration":181225,"Delta":274343590},{"NoteNumber":74,"Velocity":31,"Duration":180427,"SoundDuration":180427,"Delta":274524815},{"NoteNumber":59,"Velocity":29,"Duration":270242,"SoundDuration":270242,"Delta":274524815},{"NoteNumber":54,"Velocity":25,"Duration":270242,"SoundDuration":270242,"Delta":274524815},{"NoteNumber":71,"Velocity":31,"Duration":179630,"SoundDuration":179630,"Delta":274705242},{"NoteNumber":66,"Velocity":31,"Duration":179629,"SoundDuration":179629,"Delta":274884872},{"NoteNumber":47,"Velocity":36,"Duration":267046,"SoundDuration":267046,"Delta":275064502},{"NoteNumber":74,"Velocity":32,"Duration":178031,"SoundDuration":178031,"Delta":275242533},{"NoteNumber":71,"Velocity":32,"Duration":179629,"SoundDuration":179629,"Delta":275420564},{"NoteNumber":74,"Velocity":32,"Duration":179630,"SoundDuration":179630,"Delta":275600194},{"NoteNumber":78,"Velocity":63,"Duration":542080,"SoundDuration":542080,"Delta":275600194},{"NoteNumber":62,"Velocity":29,"Duration":270242,"SoundDuration":270242,"Delta":275600194},{"NoteNumber":56,"Velocity":25,"Duration":270242,"SoundDuration":270242,"Delta":275600194},{"NoteNumber":59,"Velocity":25,"Duration":270242,"SoundDuration":270242,"Delta":275600194},{"NoteNumber":71,"Velocity":32,"Duration":181224,"SoundDuration":181224,"Delta":275779824},{"NoteNumber":68,"Velocity":32,"Duration":181225,"SoundDuration":181225,"Delta":275961049},{"NoteNumber":78,"Velocity":67,"Duration":960591,"SoundDuration":960591,"Delta":276142274},{"NoteNumber":45,"Velocity":36,"Duration":275167,"SoundDuration":275167,"Delta":276142274},{"NoteNumber":74,"Velocity":34,"Duration":184570,"SoundDuration":184570,"Delta":276325156},{"NoteNumber":69,"Velocity":34,"Duration":183726,"SoundDuration":183726,"Delta":276509726},{"NoteNumber":74,"Velocity":34,"Duration":182882,"SoundDuration":182882,"Delta":276693452},{"NoteNumber":62,"Velocity":28,"Duration":544534,"SoundDuration":544534,"Delta":276693452},{"NoteNumber":57,"Velocity":24,"Duration":409413,"SoundDuration":409413,"Delta":276693452},{"NoteNumber":69,"Velocity":34,"Duration":181224,"SoundDuration":181224,"Delta":276876335},{"NoteNumber":71,"Velocity":32,"Duration":180427,"SoundDuration":180427,"Delta":277057560},{"NoteNumber":79,"Velocity":62,"Duration":135121,"SoundDuration":135121,"Delta":277102866},{"NoteNumber":55,"Velocity":24,"Duration":135121,"SoundDuration":135121,"Delta":277102866},{"NoteNumber":81,"Velocity":66,"Duration":536491,"SoundDuration":536491,"Delta":277237987},{"NoteNumber":54,"Velocity":27,"Duration":536491,"SoundDuration":536491,"Delta":277237987},{"NoteNumber":62,"Velocity":36,"Duration":536491,"SoundDuration":536491,"Delta":277237987},{"NoteNumber":69,"Velocity":32,"Duration":178030,"SoundDuration":178030,"Delta":277416818},{"NoteNumber":74,"Velocity":32,"Duration":179629,"SoundDuration":179629,"Delta":277594849},{"NoteNumber":79,"Velocity":62,"Duration":544534,"SoundDuration":544534,"Delta":277774479},{"NoteNumber":55,"Velocity":27,"Duration":544534,"SoundDuration":544534,"Delta":277774479},{"NoteNumber":62,"Velocity":32,"Duration":544534,"SoundDuration":544534,"Delta":277774479},{"NoteNumber":71,"Velocity":30,"Duration":181224,"SoundDuration":181224,"Delta":277954906},{"NoteNumber":74,"Velocity":30,"Duration":182882,"SoundDuration":182882,"Delta":278136131},{"NoteNumber":78,"Velocity":62,"Duration":553710,"SoundDuration":553710,"Delta":278319013},{"NoteNumber":57,"Velocity":27,"Duration":553710,"SoundDuration":553710,"Delta":278319013},{"NoteNumber":62,"Velocity":32,"Duration":553710,"SoundDuration":553710,"Delta":278319013},{"NoteNumber":69,"Velocity":32,"Duration":184570,"SoundDuration":184570,"Delta":278503583},{"NoteNumber":74,"Velocity":32,"Duration":184570,"SoundDuration":184570,"Delta":278688153},{"NoteNumber":76,"Velocity":62,"Duration":553709,"SoundDuration":553709,"Delta":278872723},{"NoteNumber":57,"Velocity":28,"Duration":553709,"SoundDuration":553709,"Delta":278872723},{"NoteNumber":61,"Velocity":33,"Duration":553709,"SoundDuration":553709,"Delta":278872723},{"NoteNumber":67,"Velocity":32,"Duration":184570,"SoundDuration":184570,"Delta":279057293},{"NoteNumber":69,"Velocity":32,"Duration":184570,"SoundDuration":184570,"Delta":279241863},{"NoteNumber":76,"Velocity":66,"Duration":1107419,"SoundDuration":1107419,"Delta":279426433},{"NoteNumber":50,"Velocity":36,"Duration":276855,"SoundDuration":276855,"Delta":279426433},{"NoteNumber":73,"Velocity":31,"Duration":184570,"SoundDuration":184570,"Delta":279611003},{"NoteNumber":69,"Velocity":31,"Duration":184570,"SoundDuration":184570,"Delta":279795573},{"NoteNumber":73,"Velocity":31,"Duration":184570,"SoundDuration":184570,"Delta":279980143},{"NoteNumber":57,"Velocity":27,"Duration":276855,"SoundDuration":276855,"Delta":279980143},{"NoteNumber":61,"Velocity":33,"Duration":276855,"SoundDuration":276855,"Delta":279980143},{"NoteNumber":69,"Velocity":31,"Duration":184569,"SoundDuration":184569,"Delta":280164713},{"NoteNumber":67,"Velocity":31,"Duration":184570,"SoundDuration":184570,"Delta":280349283},{"NoteNumber":74,"Velocity":66,"Duration":2314501,"SoundDuration":2314501,"Delta":280533853},{"NoteNumber":50,"Velocity":33,"Duration":284629,"SoundDuration":284629,"Delta":280533853},{"NoteNumber":69,"Velocity":31,"Duration":189753,"SoundDuration":189753,"Delta":280723607},{"NoteNumber":66,"Velocity":31,"Duration":189753,"SoundDuration":189753,"Delta":280913360},{"NoteNumber":69,"Velocity":34,"Duration":189753,"SoundDuration":189753,"Delta":281103113},{"NoteNumber":57,"Velocity":27,"Duration":418356,"SoundDuration":418356,"Delta":281103113},{"NoteNumber":62,"Velocity":32,"Duration":418356,"SoundDuration":418356,"Delta":281103113},{"NoteNumber":66,"Velocity":32,"Duration":182882,"SoundDuration":182882,"Delta":281292867},{"NoteNumber":62,"Velocity":32,"Duration":182882,"SoundDuration":182882,"Delta":281475749},{"NoteNumber":50,"Velocity":36,"Duration":424457,"SoundDuration":424457,"Delta":281658631},{"NoteNumber":66,"Velocity":33,"Duration":190680,"SoundDuration":190680,"Delta":281844043},{"NoteNumber":62,"Velocity":32,"Duration":195349,"SoundDuration":195349,"Delta":282034724},{"NoteNumber":69,"Velocity":32,"Duration":200165,"SoundDuration":200165,"Delta":282230074},{"NoteNumber":54,"Velocity":26,"Duration":458894,"SoundDuration":458894,"Delta":282230074},{"NoteNumber":57,"Velocity":30,"Duration":458894,"SoundDuration":458894,"Delta":282230074},{"NoteNumber":66,"Velocity":28,"Duration":206340,"SoundDuration":206340,"Delta":282430239},{"NoteNumber":62,"Velocity":27,"Duration":211775,"SoundDuration":211775,"Delta":282636579},{"NoteNumber":70,"Velocity":44,"Duration":1091661,"SoundDuration":1091661,"Delta":282848354},{"NoteNumber":38,"Velocity":25,"Duration":276855,"SoundDuration":276855,"Delta":282848354},{"NoteNumber":65,"Velocity":24,"Duration":183726,"SoundDuration":183726,"Delta":283032924},{"NoteNumber":62,"Velocity":24,"Duration":182882,"SoundDuration":182882,"Delta":283216650},{"NoteNumber":65,"Velocity":24,"Duration":181224,"SoundDuration":181224,"Delta":283399533},{"NoteNumber":50,"Velocity":16,"Duration":271837,"SoundDuration":271837,"Delta":283399533},{"NoteNumber":53,"Velocity":18,"Duration":271837,"SoundDuration":271837,"Delta":283399533},{"NoteNumber":62,"Velocity":24,"Duration":180427,"SoundDuration":180427,"Delta":283580758},{"NoteNumber":58,"Velocity":24,"Duration":178830,"SoundDuration":178830,"Delta":283761185},{"NoteNumber":70,"Velocity":45,"Duration":1087594,"SoundDuration":1087594,"Delta":283940016},{"NoteNumber":38,"Velocity":25,"Duration":267845,"SoundDuration":267845,"Delta":283940016},{"NoteNumber":65,"Velocity":24,"Duration":179629,"SoundDuration":179629,"Delta":284118047},{"NoteNumber":62,"Velocity":24,"Duration":180427,"SoundDuration":180427,"Delta":284297677},{"NoteNumber":65,"Velocity":24,"Duration":182053,"SoundDuration":182053,"Delta":284478104},{"NoteNumber":50,"Velocity":17,"Duration":273494,"SoundDuration":273494,"Delta":284478104},{"NoteNumber":53,"Velocity":19,"Duration":273494,"SoundDuration":273494,"Delta":284478104},{"NoteNumber":62,"Velocity":24,"Duration":182882,"SoundDuration":182882,"Delta":284660158},{"NoteNumber":58,"Velocity":24,"Duration":184570,"SoundDuration":184570,"Delta":284843040},{"NoteNumber":70,"Velocity":44,"Duration":1117526,"SoundDuration":1117526,"Delta":285027610},{"NoteNumber":38,"Velocity":25,"Duration":279381,"SoundDuration":279381,"Delta":285027610},{"NoteNumber":65,"Velocity":24,"Duration":186254,"SoundDuration":186254,"Delta":285213864},{"NoteNumber":62,"Velocity":25,"Duration":186254,"SoundDuration":186254,"Delta":285400119},{"NoteNumber":65,"Velocity":25,"Duration":186254,"SoundDuration":186254,"Delta":285586373},{"NoteNumber":50,"Velocity":17,"Duration":279381,"SoundDuration":279381,"Delta":285586373},{"NoteNumber":53,"Velocity":20,"Duration":279381,"SoundDuration":279381,"Delta":285586373},{"NoteNumber":62,"Velocity":25,"Duration":186254,"SoundDuration":186254,"Delta":285772628},{"NoteNumber":58,"Velocity":25,"Duration":186254,"SoundDuration":186254,"Delta":285958882},{"NoteNumber":70,"Velocity":45,"Duration":1108257,"SoundDuration":1108257,"Delta":286145137},{"NoteNumber":39,"Velocity":25,"Duration":279381,"SoundDuration":279381,"Delta":286145137},{"NoteNumber":67,"Velocity":25,"Duration":186254,"SoundDuration":186254,"Delta":286331391},{"NoteNumber":63,"Velocity":25,"Duration":184570,"SoundDuration":184570,"Delta":286517646},{"NoteNumber":67,"Velocity":25,"Duration":184570,"SoundDuration":184570,"Delta":286702216},{"NoteNumber":51,"Velocity":17,"Duration":276854,"SoundDuration":276854,"Delta":286702216},{"NoteNumber":55,"Velocity":21,"Duration":276854,"SoundDuration":276854,"Delta":286702216},{"NoteNumber":63,"Velocity":25,"Duration":183726,"SoundDuration":183726,"Delta":286886786},{"NoteNumber":58,"Velocity":25,"Duration":182882,"SoundDuration":182882,"Delta":287070512},{"NoteNumber":67,"Velocity":39,"Duration":545332,"SoundDuration":545332,"Delta":287253394},{"NoteNumber":39,"Velocity":25,"Duration":545332,"SoundDuration":545332,"Delta":287253394},{"NoteNumber":63,"Velocity":24,"Duration":181224,"SoundDuration":181224,"Delta":287436276},{"NoteNumber":58,"Velocity":24,"Duration":181225,"SoundDuration":181225,"Delta":287617501},{"NoteNumber":79,"Velocity":42,"Duration":539687,"SoundDuration":539687,"Delta":287798726},{"NoteNumber":51,"Velocity":17,"Duration":539687,"SoundDuration":539687,"Delta":287798726},{"NoteNumber":55,"Velocity":17,"Duration":539687,"SoundDuration":539687,"Delta":287798726},{"NoteNumber":58,"Velocity":20,"Duration":539687,"SoundDuration":539687,"Delta":287798726},{"NoteNumber":75,"Velocity":24,"Duration":179630,"SoundDuration":179630,"Delta":287979154},{"NoteNumber":67,"Velocity":24,"Duration":179629,"SoundDuration":179629,"Delta":288158784},{"NoteNumber":77,"Velocity":42,"Duration":535691,"SoundDuration":535691,"Delta":288338414},{"NoteNumber":50,"Velocity":17,"Duration":535691,"SoundDuration":535691,"Delta":288338414},{"NoteNumber":55,"Velocity":17,"Duration":535691,"SoundDuration":535691,"Delta":288338414},{"NoteNumber":59,"Velocity":20,"Duration":535691,"SoundDuration":535691,"Delta":288338414},{"NoteNumber":71,"Velocity":25,"Duration":178031,"SoundDuration":178031,"Delta":288516445},{"NoteNumber":67,"Velocity":25,"Duration":179629,"SoundDuration":179629,"Delta":288694476},{"NoteNumber":75,"Velocity":45,"Duration":542080,"SoundDuration":542080,"Delta":288874106},{"NoteNumber":48,"Velocity":17,"Duration":542080,"SoundDuration":542080,"Delta":288874106},{"NoteNumber":55,"Velocity":17,"Duration":542080,"SoundDuration":542080,"Delta":288874106},{"NoteNumber":60,"Velocity":20,"Duration":542080,"SoundDuration":542080,"Delta":288874106},{"NoteNumber":72,"Velocity":25,"Duration":181224,"SoundDuration":181224,"Delta":289053736},{"NoteNumber":67,"Velocity":25,"Duration":181225,"SoundDuration":181225,"Delta":289234961},{"NoteNumber":74,"Velocity":45,"Duration":2176739,"SoundDuration":2176739,"Delta":289416186},{"NoteNumber":41,"Velocity":25,"Duration":275167,"SoundDuration":275167,"Delta":289416186},{"NoteNumber":70,"Velocity":27,"Duration":184570,"SoundDuration":184570,"Delta":289599068},{"NoteNumber":65,"Velocity":27,"Duration":183726,"SoundDuration":183726,"Delta":289783638},{"NoteNumber":70,"Velocity":27,"Duration":182882,"SoundDuration":182882,"Delta":289967364},{"NoteNumber":58,"Velocity":19,"Duration":273494,"SoundDuration":273494,"Delta":289967364},{"NoteNumber":53,"Velocity":17,"Duration":273494,"SoundDuration":273494,"Delta":289967364},{"NoteNumber":65,"Velocity":27,"Duration":181224,"SoundDuration":181224,"Delta":290150246},{"NoteNumber":62,"Velocity":25,"Duration":180427,"SoundDuration":180427,"Delta":290331471},{"NoteNumber":41,"Velocity":25,"Duration":267846,"SoundDuration":267846,"Delta":290511899},{"NoteNumber":70,"Velocity":27,"Duration":178030,"SoundDuration":178030,"Delta":290690729},{"NoteNumber":65,"Velocity":27,"Duration":179629,"SoundDuration":179629,"Delta":290868760},{"NoteNumber":70,"Velocity":27,"Duration":180427,"SoundDuration":180427,"Delta":291048390},{"NoteNumber":53,"Velocity":17,"Duration":271040,"SoundDuration":271040,"Delta":291048390},{"NoteNumber":58,"Velocity":19,"Duration":271040,"SoundDuration":271040,"Delta":291048390},{"NoteNumber":65,"Velocity":25,"Duration":181224,"SoundDuration":181224,"Delta":291228818},{"NoteNumber":62,"Velocity":25,"Duration":182882,"SoundDuration":182882,"Delta":291410043},{"NoteNumber":75,"Velocity":44,"Duration":968992,"SoundDuration":968992,"Delta":291592925},{"NoteNumber":41,"Velocity":25,"Duration":276855,"SoundDuration":276855,"Delta":291592925},{"NoteNumber":72,"Velocity":25,"Duration":184570,"SoundDuration":184570,"Delta":291777495},{"NoteNumber":69,"Velocity":25,"Duration":184570,"SoundDuration":184570,"Delta":291962065},{"NoteNumber":72,"Velocity":27,"Duration":553709,"SoundDuration":553709,"Delta":292146635},{"NoteNumber":53,"Velocity":17,"Duration":276854,"SoundDuration":276854,"Delta":292146635},{"NoteNumber":57,"Velocity":19,"Duration":276854,"SoundDuration":276854,"Delta":292146635},{"NoteNumber":69,"Velocity":25,"Duration":184570,"SoundDuration":184570,"Delta":292331205},{"NoteNumber":63,"Velocity":25,"Duration":184570,"SoundDuration":184570,"Delta":292515775},{"NoteNumber":72,"Velocity":39,"Duration":138427,"SoundDuration":138427,"Delta":292561917},{"NoteNumber":71,"Velocity":43,"Duration":3327587,"SoundDuration":3327587,"Delta":292700345},{"NoteNumber":41,"Velocity":25,"Duration":276855,"SoundDuration":276855,"Delta":292700345},{"NoteNumber":68,"Velocity":24,"Duration":184570,"SoundDuration":184570,"Delta":292884915},{"NoteNumber":62,"Velocity":24,"Duration":184570,"SoundDuration":184570,"Delta":293069485},{"NoteNumber":68,"Velocity":24,"Duration":184570,"SoundDuration":184570,"Delta":293254055},{"NoteNumber":53,"Velocity":23,"Duration":276855,"SoundDuration":276855,"Delta":293254055},{"NoteNumber":62,"Velocity":24,"Duration":184569,"SoundDuration":184569,"Delta":293438625},{"NoteNumber":59,"Velocity":24,"Duration":184570,"SoundDuration":184570,"Delta":293623195},{"NoteNumber":41,"Velocity":23,"Duration":274323,"SoundDuration":274323,"Delta":293807765},{"NoteNumber":68,"Velocity":24,"Duration":182882,"SoundDuration":182882,"Delta":293990647},{"NoteNumber":62,"Velocity":24,"Duration":182882,"SoundDuration":182882,"Delta":294173529},{"NoteNumber":68,"Velocity":27,"Duration":182882,"SoundDuration":182882,"Delta":294356411},{"NoteNumber":53,"Velocity":22,"Duration":411484,"SoundDuration":411484,"Delta":294356411},{"NoteNumber":62,"Velocity":25,"Duration":182882,"SoundDuration":182882,"Delta":294539294},{"NoteNumber":59,"Velocity":25,"Duration":182882,"SoundDuration":182882,"Delta":294722176},{"NoteNumber":41,"Velocity":25,"Duration":416545,"SoundDuration":416545,"Delta":294905058},{"NoteNumber":68,"Velocity":27,"Duration":185412,"SoundDuration":185412,"Delta":295089628},{"NoteNumber":62,"Velocity":27,"Duration":186254,"SoundDuration":186254,"Delta":295275040},{"NoteNumber":68,"Velocity":28,"Duration":188005,"SoundDuration":188005,"Delta":295461295},{"NoteNumber":53,"Velocity":23,"Duration":424323,"SoundDuration":424323,"Delta":295461295},{"NoteNumber":62,"Velocity":25,"Duration":188879,"SoundDuration":188879,"Delta":295649300},{"NoteNumber":59,"Velocity":25,"Duration":189753,"SoundDuration":189753,"Delta":295838179},{"NoteNumber":71,"Velocity":42,"Duration":2204712,"SoundDuration":2204712,"Delta":296027933},{"NoteNumber":41,"Velocity":25,"Duration":276855,"SoundDuration":276855,"Delta":296027933},{"NoteNumber":68,"Velocity":24,"Duration":184570,"SoundDuration":184570,"Delta":296212503},{"NoteNumber":61,"Velocity":24,"Duration":184570,"SoundDuration":184570,"Delta":296397073},{"NoteNumber":68,"Velocity":24,"Duration":184569,"SoundDuration":184569,"Delta":296581643},{"NoteNumber":53,"Velocity":23,"Duration":276854,"SoundDuration":276854,"Delta":296581643},{"NoteNumber":61,"Velocity":24,"Duration":184570,"SoundDuration":184570,"Delta":296766213},{"NoteNumber":59,"Velocity":24,"Duration":184570,"SoundDuration":184570,"Delta":296950783},{"NoteNumber":41,"Velocity":23,"Duration":274323,"SoundDuration":274323,"Delta":297135353},{"NoteNumber":68,"Velocity":24,"Duration":182882,"SoundDuration":182882,"Delta":297318235},{"NoteNumber":61,"Velocity":24,"Duration":182882,"SoundDuration":182882,"Delta":297501117},{"NoteNumber":68,"Velocity":27,"Duration":182882,"SoundDuration":182882,"Delta":297683999},{"NoteNumber":53,"Velocity":22,"Duration":411484,"SoundDuration":411484,"Delta":297683999},{"NoteNumber":61,"Velocity":25,"Duration":182882,"SoundDuration":182882,"Delta":297866881},{"NoteNumber":59,"Velocity":25,"Duration":182882,"SoundDuration":182882,"Delta":298049763},{"NoteNumber":71,"Velocity":43,"Duration":1122874,"SoundDuration":1122874,"Delta":298232646},{"NoteNumber":41,"Velocity":25,"Duration":416545,"SoundDuration":416545,"Delta":298232646},{"NoteNumber":68,"Velocity":27,"Duration":185412,"SoundDuration":185412,"Delta":298417216},{"NoteNumber":62,"Velocity":27,"Duration":186254,"SoundDuration":186254,"Delta":298602628},{"NoteNumber":68,"Velocity":28,"Duration":188005,"SoundDuration":188005,"Delta":298788882},{"NoteNumber":53,"Velocity":24,"Duration":424323,"SoundDuration":424323,"Delta":298788882},{"NoteNumber":62,"Velocity":26,"Duration":188879,"SoundDuration":188879,"Delta":298976888},{"NoteNumber":59,"Velocity":27,"Duration":189753,"SoundDuration":189753,"Delta":299165767},{"NoteNumber":71,"Velocity":44,"Duration":968992,"SoundDuration":968992,"Delta":299355520},{"NoteNumber":42,"Velocity":28,"Duration":276855,"SoundDuration":276855,"Delta":299355520},{"NoteNumber":66,"Velocity":26,"Duration":184570,"SoundDuration":184570,"Delta":299540090},{"NoteNumber":62,"Velocity":26,"Duration":184570,"SoundDuration":184570,"Delta":299724660},{"NoteNumber":66,"Velocity":25,"Duration":184569,"SoundDuration":184569,"Delta":299909230},{"NoteNumber":54,"Velocity":24,"Duration":276854,"SoundDuration":276854,"Delta":299909230},{"NoteNumber":62,"Velocity":25,"Duration":184570,"SoundDuration":184570,"Delta":300093800},{"NoteNumber":61,"Velocity":24,"Duration":184570,"SoundDuration":184570,"Delta":300278370},{"NoteNumber":69,"Velocity":41,"Duration":115356,"SoundDuration":115356,"Delta":300324513},{"NoteNumber":69,"Velocity":42,"Duration":2220167,"SoundDuration":2220167,"Delta":300462940},{"NoteNumber":42,"Velocity":23,"Duration":274323,"SoundDuration":274323,"Delta":300462940},{"NoteNumber":66,"Velocity":24,"Duration":182882,"SoundDuration":182882,"Delta":300645823},{"NoteNumber":61,"Velocity":24,"Duration":182882,"SoundDuration":182882,"Delta":300828705},{"NoteNumber":66,"Velocity":27,"Duration":182882,"SoundDuration":182882,"Delta":301011587},{"NoteNumber":54,"Velocity":22,"Duration":411484,"SoundDuration":411484,"Delta":301011587},{"NoteNumber":61,"Velocity":25,"Duration":182882,"SoundDuration":182882,"Delta":301194469},{"NoteNumber":57,"Velocity":25,"Duration":182882,"SoundDuration":182882,"Delta":301377351},{"NoteNumber":42,"Velocity":25,"Duration":416545,"SoundDuration":416545,"Delta":301560233},{"NoteNumber":66,"Velocity":27,"Duration":185412,"SoundDuration":185412,"Delta":301744803},{"NoteNumber":61,"Velocity":27,"Duration":186254,"SoundDuration":186254,"Delta":301930216},{"NoteNumber":66,"Velocity":28,"Duration":188005,"SoundDuration":188005,"Delta":302116470},{"NoteNumber":54,"Velocity":23,"Duration":424323,"SoundDuration":424323,"Delta":302116470},{"NoteNumber":61,"Velocity":25,"Duration":188879,"SoundDuration":188879,"Delta":302304475},{"NoteNumber":57,"Velocity":25,"Duration":189753,"SoundDuration":189753,"Delta":302493355},{"NoteNumber":69,"Velocity":43,"Duration":2204712,"SoundDuration":2204712,"Delta":302683108},{"NoteNumber":30,"Velocity":25,"Duration":276855,"SoundDuration":276855,"Delta":302683108},{"NoteNumber":66,"Velocity":24,"Duration":184570,"SoundDuration":184570,"Delta":302867678},{"NoteNumber":61,"Velocity":24,"Duration":184570,"SoundDuration":184570,"Delta":303052248},{"NoteNumber":66,"Velocity":24,"Duration":184569,"SoundDuration":184569,"Delta":303236818},{"NoteNumber":42,"Velocity":23,"Duration":276854,"SoundDuration":276854,"Delta":303236818},{"NoteNumber":61,"Velocity":24,"Duration":184570,"SoundDuration":184570,"Delta":303421388},{"NoteNumber":57,"Velocity":24,"Duration":184570,"SoundDuration":184570,"Delta":303605958},{"NoteNumber":30,"Velocity":23,"Duration":274323,"SoundDuration":274323,"Delta":303790528},{"NoteNumber":66,"Velocity":24,"Duration":182882,"SoundDuration":182882,"Delta":303973410},{"NoteNumber":61,"Velocity":24,"Duration":182882,"SoundDuration":182882,"Delta":304156292},{"NoteNumber":66,"Velocity":27,"Duration":182882,"SoundDuration":182882,"Delta":304339175},{"NoteNumber":42,"Velocity":22,"Duration":411484,"SoundDuration":411484,"Delta":304339175},{"NoteNumber":61,"Velocity":25,"Duration":182882,"SoundDuration":182882,"Delta":304522057},{"NoteNumber":57,"Velocity":25,"Duration":182882,"SoundDuration":182882,"Delta":304704939},{"NoteNumber":69,"Velocity":41,"Duration":1122874,"SoundDuration":1122874,"Delta":304887821},{"NoteNumber":30,"Velocity":25,"Duration":416545,"SoundDuration":416545,"Delta":304887821},{"NoteNumber":66,"Velocity":27,"Duration":185412,"SoundDuration":185412,"Delta":305072391},{"NoteNumber":62,"Velocity":27,"Duration":186254,"SoundDuration":186254,"Delta":305257803},{"NoteNumber":66,"Velocity":28,"Duration":188005,"SoundDuration":188005,"Delta":305444058},{"NoteNumber":42,"Velocity":24,"Duration":424323,"SoundDuration":424323,"Delta":305444058},{"NoteNumber":62,"Velocity":26,"Duration":188879,"SoundDuration":188879,"Delta":305632063},{"NoteNumber":57,"Velocity":27,"Duration":189753,"SoundDuration":189753,"Delta":305820943},{"NoteNumber":69,"Velocity":45,"Duration":968992,"SoundDuration":968992,"Delta":306010696},{"NoteNumber":32,"Velocity":28,"Duration":276855,"SoundDuration":276855,"Delta":306010696},{"NoteNumber":66,"Velocity":26,"Duration":184570,"SoundDuration":184570,"Delta":306195266},{"NoteNumber":61,"Velocity":26,"Duration":184570,"SoundDuration":184570,"Delta":306379836},{"NoteNumber":66,"Velocity":25,"Duration":184569,"SoundDuration":184569,"Delta":306564406},{"NoteNumber":44,"Velocity":24,"Duration":276854,"SoundDuration":276854,"Delta":306564406},{"NoteNumber":61,"Velocity":25,"Duration":184570,"SoundDuration":184570,"Delta":306748976},{"NoteNumber":64,"Velocity":24,"Duration":184570,"SoundDuration":184570,"Delta":306933546},{"NoteNumber":68,"Velocity":43,"Duration":122277,"SoundDuration":122277,"Delta":306979688},{"NoteNumber":68,"Velocity":41,"Duration":2220167,"SoundDuration":2220167,"Delta":307118116},{"NoteNumber":32,"Velocity":23,"Duration":274323,"SoundDuration":274323,"Delta":307118116},{"NoteNumber":64,"Velocity":24,"Duration":182882,"SoundDuration":182882,"Delta":307300998},{"NoteNumber":61,"Velocity":24,"Duration":182882,"SoundDuration":182882,"Delta":307483880},{"NoteNumber":64,"Velocity":27,"Duration":182882,"SoundDuration":182882,"Delta":307666762},{"NoteNumber":44,"Velocity":22,"Duration":411484,"SoundDuration":411484,"Delta":307666762},{"NoteNumber":61,"Velocity":25,"Duration":182882,"SoundDuration":182882,"Delta":307849645},{"NoteNumber":56,"Velocity":25,"Duration":182882,"SoundDuration":182882,"Delta":308032527},{"NoteNumber":32,"Velocity":25,"Duration":416545,"SoundDuration":416545,"Delta":308215409},{"NoteNumber":64,"Velocity":27,"Duration":185412,"SoundDuration":185412,"Delta":308399979},{"NoteNumber":61,"Velocity":27,"Duration":186254,"SoundDuration":186254,"Delta":308585391},{"NoteNumber":64,"Velocity":28,"Duration":188005,"SoundDuration":188005,"Delta":308771646},{"NoteNumber":44,"Velocity":23,"Duration":424323,"SoundDuration":424323,"Delta":308771646},{"NoteNumber":61,"Velocity":25,"Duration":188879,"SoundDuration":188879,"Delta":308959651},{"NoteNumber":56,"Velocity":25,"Duration":189753,"SoundDuration":189753,"Delta":309148530},{"NoteNumber":68,"Velocity":40,"Duration":2364824,"SoundDuration":2364824,"Delta":309338284},{"NoteNumber":32,"Velocity":25,"Duration":292968,"SoundDuration":292968,"Delta":309338284},{"NoteNumber":63,"Velocity":23,"Duration":195312,"SoundDuration":195312,"Delta":309533596},{"NoteNumber":61,"Velocity":23,"Duration":195312,"SoundDuration":195312,"Delta":309728909},{"NoteNumber":63,"Velocity":23,"Duration":195312,"SoundDuration":195312,"Delta":309924221},{"NoteNumber":44,"Velocity":22,"Duration":292968,"SoundDuration":292968,"Delta":309924221},{"NoteNumber":61,"Velocity":22,"Duration":195312,"SoundDuration":195312,"Delta":310119534},{"NoteNumber":56,"Velocity":22,"Duration":195312,"SoundDuration":195312,"Delta":310314846},{"NoteNumber":32,"Velocity":22,"Duration":288338,"SoundDuration":288338,"Delta":310510159},{"NoteNumber":63,"Velocity":22,"Duration":194386,"SoundDuration":194386,"Delta":310701766},{"NoteNumber":61,"Velocity":22,"Duration":197238,"SoundDuration":197238,"Delta":310896153},{"NoteNumber":63,"Velocity":23,"Duration":200165,"SoundDuration":200165,"Delta":311093392},{"NoteNumber":44,"Velocity":20,"Duration":454689,"SoundDuration":454689,"Delta":311093392},{"NoteNumber":61,"Velocity":22,"Duration":203210,"SoundDuration":203210,"Delta":311293557},{"NoteNumber":56,"Velocity":22,"Duration":206340,"SoundDuration":206340,"Delta":311496768},{"NoteNumber":68,"Velocity":37,"Duration":1370830,"SoundDuration":1370830,"Delta":311703108},{"NoteNumber":32,"Velocity":22,"Duration":478904,"SoundDuration":478904,"Delta":311703108},{"NoteNumber":63,"Velocity":22,"Duration":215152,"SoundDuration":215152,"Delta":311911598},{"NoteNumber":60,"Velocity":22,"Duration":223516,"SoundDuration":223516,"Delta":312126751},{"NoteNumber":63,"Velocity":23,"Duration":231270,"SoundDuration":231270,"Delta":312350267},{"NoteNumber":44,"Velocity":20,"Duration":534266,"SoundDuration":534266,"Delta":312350267},{"NoteNumber":60,"Velocity":21,"Duration":240914,"SoundDuration":240914,"Delta":312581538},{"NoteNumber":56,"Velocity":22,"Duration":251485,"SoundDuration":251485,"Delta":312822453},{"NoteNumber":64,"Velocity":33,"Duration":2500612,"SoundDuration":2500612,"Delta":316967515},{"NoteNumber":68,"Velocity":39,"Duration":2500612,"SoundDuration":2500612,"Delta":316967515},{"NoteNumber":37,"Velocity":26,"Duration":321612,"SoundDuration":321612,"Delta":316967515},{"NoteNumber":49,"Velocity":22,"Duration":606182,"SoundDuration":606182,"Delta":317610740},{"NoteNumber":61,"Velocity":27,"Duration":606182,"SoundDuration":606182,"Delta":318216923},{"NoteNumber":73,"Velocity":26,"Duration":645022,"SoundDuration":645022,"Delta":318823106},{"NoteNumber":64,"Velocity":29,"Duration":1160570,"SoundDuration":1160570,"Delta":319468128},{"NoteNumber":68,"Velocity":34,"Duration":1160570,"SoundDuration":1160570,"Delta":319468128},{"NoteNumber":37,"Velocity":25,"Duration":163035,"SoundDuration":163035,"Delta":319787601},{"NoteNumber":37,"Velocity":25,"Duration":168241,"SoundDuration":168241,"Delta":320115948},{"NoteNumber":36,"Velocity":25,"Duration":173817,"SoundDuration":173817,"Delta":320454882},{"NoteNumber":63,"Velocity":25,"Duration":166355,"SoundDuration":166355,"Delta":320628699},{"NoteNumber":66,"Velocity":30,"Duration":166355,"SoundDuration":166355,"Delta":320628699},{"NoteNumber":63,"Velocity":30,"Duration":2506464,"SoundDuration":2506464,"Delta":320803809},{"NoteNumber":66,"Velocity":37,"Duration":2506464,"SoundDuration":2506464,"Delta":320803809},{"NoteNumber":37,"Velocity":26,"Duration":321612,"SoundDuration":321612,"Delta":320803809},{"NoteNumber":49,"Velocity":22,"Duration":611994,"SoundDuration":611994,"Delta":321447034},{"NoteNumber":61,"Velocity":27,"Duration":611995,"SoundDuration":611995,"Delta":322059029},{"NoteNumber":73,"Velocity":28,"Duration":639250,"SoundDuration":639250,"Delta":322671024},{"NoteNumber":63,"Velocity":31,"Duration":1315147,"SoundDuration":1315147,"Delta":323310274},{"NoteNumber":66,"Velocity":37,"Duration":1315147,"SoundDuration":1315147,"Delta":323310274},{"NoteNumber":37,"Velocity":26,"Duration":161363,"SoundDuration":161363,"Delta":323629747},{"NoteNumber":37,"Velocity":26,"Duration":164730,"SoundDuration":164730,"Delta":323954703},{"NoteNumber":36,"Velocity":27,"Duration":168241,"SoundDuration":168241,"Delta":324286488},{"NoteNumber":66,"Velocity":34,"Duration":2519839,"SoundDuration":2519839,"Delta":324625421},{"NoteNumber":69,"Velocity":41,"Duration":2519839,"SoundDuration":2519839,"Delta":324625421},{"NoteNumber":37,"Velocity":26,"Duration":328299,"SoundDuration":328299,"Delta":324625421},{"NoteNumber":49,"Velocity":22,"Duration":611994,"SoundDuration":611994,"Delta":325282020},{"NoteNumber":61,"Velocity":27,"Duration":611995,"SoundDuration":611995,"Delta":325894015},{"NoteNumber":73,"Velocity":28,"Duration":639250,"SoundDuration":639250,"Delta":326506010},{"NoteNumber":66,"Velocity":28,"Duration":641218,"SoundDuration":641218,"Delta":327145260},{"NoteNumber":69,"Velocity":33,"Duration":641218,"SoundDuration":641218,"Delta":327145260},{"NoteNumber":37,"Velocity":27,"Duration":161363,"SoundDuration":161363,"Delta":327461523},{"NoteNumber":64,"Velocity":25,"Duration":331784,"SoundDuration":331784,"Delta":327786479},{"NoteNumber":68,"Velocity":30,"Duration":331784,"SoundDuration":331784,"Delta":327786479},{"NoteNumber":37,"Velocity":26,"Duration":164730,"SoundDuration":164730,"Delta":327786479},{"NoteNumber":63,"Velocity":23,"Duration":336609,"SoundDuration":336609,"Delta":328118264},{"NoteNumber":66,"Velocity":28,"Duration":336609,"SoundDuration":336609,"Delta":328118264},{"NoteNumber":36,"Velocity":26,"Duration":170072,"SoundDuration":170072,"Delta":328118264},{"NoteNumber":64,"Velocity":33,"Duration":2513153,"SoundDuration":2513153,"Delta":328454874},{"NoteNumber":68,"Velocity":39,"Duration":2513153,"SoundDuration":2513153,"Delta":328454874},{"NoteNumber":37,"Velocity":26,"Duration":324956,"SoundDuration":324956,"Delta":328454874},{"NoteNumber":49,"Velocity":22,"Duration":611994,"SoundDuration":611994,"Delta":329104787},{"NoteNumber":61,"Velocity":27,"Duration":611995,"SoundDuration":611995,"Delta":329716782},{"NoteNumber":73,"Velocity":27,"Duration":639250,"SoundDuration":639250,"Delta":330328777},{"NoteNumber":64,"Velocity":29,"Duration":1329017,"SoundDuration":1329017,"Delta":330968027},{"NoteNumber":68,"Velocity":34,"Duration":1329017,"SoundDuration":1329017,"Delta":330968027},{"NoteNumber":37,"Velocity":28,"Duration":163035,"SoundDuration":163035,"Delta":331290754},{"NoteNumber":37,"Velocity":27,"Duration":166473,"SoundDuration":166473,"Delta":331619101},{"NoteNumber":36,"Velocity":26,"Duration":170072,"SoundDuration":170072,"Delta":331954422},{"NoteNumber":65,"Velocity":34,"Duration":2527273,"SoundDuration":2527273,"Delta":332297045},{"NoteNumber":71,"Velocity":41,"Duration":2527273,"SoundDuration":2527273,"Delta":332297045},{"NoteNumber":37,"Velocity":26,"Duration":328299,"SoundDuration":328299,"Delta":332297045},{"NoteNumber":49,"Velocity":22,"Duration":619428,"SoundDuration":619428,"Delta":332953644},{"NoteNumber":61,"Velocity":27,"Duration":611995,"SoundDuration":611995,"Delta":333573073},{"NoteNumber":73,"Velocity":31,"Duration":639250,"SoundDuration":639250,"Delta":334185068},{"NoteNumber":65,"Velocity":28,"Duration":326071,"SoundDuration":326071,"Delta":334824318},{"NoteNumber":71,"Velocity":33,"Duration":657856,"SoundDuration":657856,"Delta":334824318},{"NoteNumber":68,"Velocity":28,"Duration":331784,"SoundDuration":331784,"Delta":335150389},{"NoteNumber":37,"Velocity":25,"Duration":164730,"SoundDuration":164730,"Delta":335150389},{"NoteNumber":66,"Velocity":25,"Duration":338933,"SoundDuration":338933,"Delta":335482174},{"NoteNumber":69,"Velocity":30,"Duration":338933,"SoundDuration":338933,"Delta":335482174},{"NoteNumber":37,"Velocity":25,"Duration":168241,"SoundDuration":168241,"Delta":335482174},{"NoteNumber":65,"Velocity":23,"Duration":346394,"SoundDuration":346394,"Delta":335821107},{"NoteNumber":68,"Velocity":28,"Duration":346394,"SoundDuration":346394,"Delta":335821107},{"NoteNumber":36,"Velocity":26,"Duration":171930,"SoundDuration":171930,"Delta":335821107},{"NoteNumber":66,"Velocity":34,"Duration":1888023,"SoundDuration":1888023,"Delta":336167502},{"NoteNumber":69,"Velocity":41,"Duration":1888023,"SoundDuration":1888023,"Delta":336167502},{"NoteNumber":37,"Velocity":26,"Duration":328299,"SoundDuration":328299,"Delta":336167502},{"NoteNumber":49,"Velocity":22,"Duration":619428,"SoundDuration":619428,"Delta":336824101},{"NoteNumber":61,"Velocity":27,"Duration":611995,"SoundDuration":611995,"Delta":337443530},{"NoteNumber":66,"Velocity":23,"Duration":607287,"SoundDuration":607287,"Delta":338055525},{"NoteNumber":69,"Velocity":28,"Duration":607287,"SoundDuration":607287,"Delta":338055525},{"NoteNumber":73,"Velocity":34,"Duration":607287,"SoundDuration":607287,"Delta":338055525},{"NoteNumber":66,"Velocity":34,"Duration":623769,"SoundDuration":623769,"Delta":338694775},{"NoteNumber":69,"Velocity":40,"Duration":623769,"SoundDuration":623769,"Delta":338694775},{"NoteNumber":37,"Velocity":26,"Duration":164149,"SoundDuration":164149,"Delta":339023074},{"NoteNumber":66,"Velocity":34,"Duration":672804,"SoundDuration":672804,"Delta":339351374},{"NoteNumber":69,"Velocity":41,"Duration":672804,"SoundDuration":672804,"Delta":339351374},{"NoteNumber":37,"Velocity":26,"Duration":177053,"SoundDuration":177053,"Delta":339351374},{"NoteNumber":36,"Velocity":27,"Duration":177053,"SoundDuration":177053,"Delta":339705482},{"NoteNumber":69,"Velocity":41,"Duration":2564541,"SoundDuration":2564541,"Delta":340059589},{"NoteNumber":73,"Velocity":49,"Duration":2564541,"SoundDuration":2564541,"Delta":340059589},{"NoteNumber":37,"Velocity":31,"Duration":331785,"SoundDuration":331785,"Delta":340059589},{"NoteNumber":49,"Velocity":25,"Duration":611994,"SoundDuration":611994,"Delta":340723159},{"NoteNumber":61,"Velocity":30,"Duration":606182,"SoundDuration":606182,"Delta":341335154},{"NoteNumber":73,"Velocity":38,"Duration":682793,"SoundDuration":682793,"Delta":341941337},{"NoteNumber":69,"Velocity":33,"Duration":985682,"SoundDuration":985682,"Delta":342624131},{"NoteNumber":73,"Velocity":39,"Duration":985682,"SoundDuration":985682,"Delta":342624131},{"NoteNumber":37,"Velocity":26,"Duration":163035,"SoundDuration":163035,"Delta":342942534},{"NoteNumber":37,"Velocity":26,"Duration":168241,"SoundDuration":168241,"Delta":343270881},{"NoteNumber":66,"Velocity":23,"Duration":351576,"SoundDuration":351576,"Delta":343609814},{"NoteNumber":69,"Velocity":28,"Duration":351576,"SoundDuration":351576,"Delta":343609814},{"NoteNumber":36,"Velocity":26,"Duration":173817,"SoundDuration":173817,"Delta":343609814},{"NoteNumber":64,"Velocity":30,"Duration":3178998,"SoundDuration":3178998,"Delta":343961390},{"NoteNumber":68,"Velocity":37,"Duration":3178998,"SoundDuration":3178998,"Delta":343961390},{"NoteNumber":37,"Velocity":26,"Duration":331785,"SoundDuration":331785,"Delta":343961390},{"NoteNumber":49,"Velocity":22,"Duration":611994,"SoundDuration":611994,"Delta":344624960},{"NoteNumber":61,"Velocity":27,"Duration":611995,"SoundDuration":611995,"Delta":345236955},{"NoteNumber":73,"Velocity":28,"Duration":639250,"SoundDuration":639250,"Delta":345848950},{"NoteNumber":37,"Velocity":27,"Duration":164149,"SoundDuration":164149,"Delta":346810927},{"NoteNumber":64,"Velocity":34,"Duration":684089,"SoundDuration":684089,"Delta":347140389},{"NoteNumber":68,"Velocity":41,"Duration":684089,"SoundDuration":684089,"Delta":347140389},{"NoteNumber":37,"Velocity":27,"Duration":168241,"SoundDuration":168241,"Delta":347140389},{"NoteNumber":40,"Velocity":27,"Duration":171930,"SoundDuration":171930,"Delta":347478083},{"NoteNumber":64,"Velocity":42,"Duration":906357,"SoundDuration":906357,"Delta":347824478},{"NoteNumber":69,"Velocity":42,"Duration":906357,"SoundDuration":906357,"Delta":347824478},{"NoteNumber":73,"Velocity":50,"Duration":906357,"SoundDuration":906357,"Delta":347824478},{"NoteNumber":32,"Velocity":28,"Duration":300180,"SoundDuration":300180,"Delta":347824478},{"NoteNumber":44,"Velocity":35,"Duration":611994,"SoundDuration":611994,"Delta":348424838},{"NoteNumber":63,"Velocity":37,"Duration":290697,"SoundDuration":290697,"Delta":348730836},{"NoteNumber":68,"Velocity":37,"Duration":290697,"SoundDuration":290697,"Delta":348730836},{"NoteNumber":72,"Velocity":44,"Duration":290697,"SoundDuration":290697,"Delta":348730836},{"NoteNumber":63,"Velocity":42,"Duration":1885457,"SoundDuration":1885457,"Delta":349036833},{"NoteNumber":68,"Velocity":42,"Duration":1885457,"SoundDuration":1885457,"Delta":349036833},{"NoteNumber":72,"Velocity":49,"Duration":1885457,"SoundDuration":1885457,"Delta":349036833},{"NoteNumber":56,"Velocity":41,"Duration":611995,"SoundDuration":611995,"Delta":349036833},{"NoteNumber":80,"Velocity":43,"Duration":633445,"SoundDuration":633445,"Delta":349648828},{"NoteNumber":32,"Velocity":31,"Duration":160806,"SoundDuration":160806,"Delta":350600678},{"NoteNumber":68,"Velocity":45,"Duration":654418,"SoundDuration":654418,"Delta":350922290},{"NoteNumber":72,"Velocity":55,"Duration":654418,"SoundDuration":654418,"Delta":350922290},{"NoteNumber":32,"Velocity":32,"Duration":162478,"SoundDuration":162478,"Delta":350922290},{"NoteNumber":31,"Velocity":32,"Duration":164149,"SoundDuration":164149,"Delta":351247247},{"NoteNumber":67,"Velocity":51,"Duration":900645,"SoundDuration":900645,"Delta":351576708},{"NoteNumber":73,"Velocity":51,"Duration":900645,"SoundDuration":900645,"Delta":351576708},{"NoteNumber":76,"Velocity":60,"Duration":900645,"SoundDuration":900645,"Delta":351576708},{"NoteNumber":32,"Velocity":35,"Duration":297324,"SoundDuration":297324,"Delta":351576708},{"NoteNumber":44,"Velocity":43,"Duration":611994,"SoundDuration":611994,"Delta":352171356},{"NoteNumber":68,"Velocity":45,"Duration":290697,"SoundDuration":290697,"Delta":352477354},{"NoteNumber":72,"Velocity":45,"Duration":290697,"SoundDuration":290697,"Delta":352477354},{"NoteNumber":75,"Velocity":53,"Duration":290697,"SoundDuration":290697,"Delta":352477354},{"NoteNumber":68,"Velocity":50,"Duration":1890495,"SoundDuration":1890495,"Delta":352783351},{"NoteNumber":72,"Velocity":50,"Duration":1890495,"SoundDuration":1890495,"Delta":352783351},{"NoteNumber":75,"Velocity":60,"Duration":1890495,"SoundDuration":1890495,"Delta":352783351},{"NoteNumber":56,"Velocity":50,"Duration":611995,"SoundDuration":611995,"Delta":352783351},{"NoteNumber":80,"Velocity":53,"Duration":639250,"SoundDuration":639250,"Delta":353395346},{"NoteNumber":32,"Velocity":35,"Duration":159812,"SoundDuration":159812,"Delta":354354221},{"NoteNumber":68,"Velocity":52,"Duration":657462,"SoundDuration":657462,"Delta":354673846},{"NoteNumber":72,"Velocity":52,"Duration":657462,"SoundDuration":657462,"Delta":354673846},{"NoteNumber":75,"Velocity":63,"Duration":657462,"SoundDuration":657462,"Delta":354673846},{"NoteNumber":32,"Velocity":35,"Duration":164365,"SoundDuration":164365,"Delta":354673846},{"NoteNumber":31,"Velocity":35,"Duration":164365,"SoundDuration":164365,"Delta":355002577},{"NoteNumber":68,"Velocity":58,"Duration":924594,"SoundDuration":924594,"Delta":355331308},{"NoteNumber":76,"Velocity":58,"Duration":924594,"SoundDuration":924594,"Delta":355331308},{"NoteNumber":80,"Velocity":69,"Duration":924594,"SoundDuration":924594,"Delta":355331308},{"NoteNumber":32,"Velocity":39,"Duration":308198,"SoundDuration":308198,"Delta":355331308},{"NoteNumber":44,"Velocity":49,"Duration":616396,"SoundDuration":616396,"Delta":355947704},{"NoteNumber":69,"Velocity":52,"Duration":292788,"SoundDuration":292788,"Delta":356255902},{"NoteNumber":75,"Velocity":52,"Duration":292788,"SoundDuration":292788,"Delta":356255902},{"NoteNumber":78,"Velocity":61,"Duration":292788,"SoundDuration":292788,"Delta":356255902},{"NoteNumber":69,"Velocity":58,"Duration":1894896,"SoundDuration":1894896,"Delta":356564100},{"NoteNumber":75,"Velocity":58,"Duration":1894896,"SoundDuration":1894896,"Delta":356564100},{"NoteNumber":78,"Velocity":69,"Duration":1894896,"SoundDuration":1894896,"Delta":356564100},{"NoteNumber":56,"Velocity":57,"Duration":616396,"SoundDuration":616396,"Delta":356564100},{"NoteNumber":80,"Velocity":61,"Duration":639250,"SoundDuration":639250,"Delta":357180496},{"NoteNumber":32,"Velocity":42,"Duration":159812,"SoundDuration":159812,"Delta":358139371},{"NoteNumber":69,"Velocity":60,"Duration":757683,"SoundDuration":757683,"Delta":358458996},{"NoteNumber":75,"Velocity":60,"Duration":757683,"SoundDuration":757683,"Delta":358458996},{"NoteNumber":78,"Velocity":73,"Duration":757683,"SoundDuration":757683,"Delta":358458996},{"NoteNumber":32,"Velocity":42,"Duration":173160,"SoundDuration":173160,"Delta":358458996},{"NoteNumber":31,"Velocity":42,"Duration":199999,"SoundDuration":199999,"Delta":358816680},{"NoteNumber":73,"Velocity":68,"Duration":924594,"SoundDuration":924594,"Delta":359216680},{"NoteNumber":76,"Velocity":68,"Duration":924594,"SoundDuration":924594,"Delta":359216680},{"NoteNumber":81,"Velocity":80,"Duration":924594,"SoundDuration":924594,"Delta":359216680},{"NoteNumber":32,"Velocity":46,"Duration":308198,"SoundDuration":308198,"Delta":359216680},{"NoteNumber":44,"Velocity":52,"Duration":616396,"SoundDuration":616396,"Delta":359833076},{"NoteNumber":72,"Velocity":60,"Duration":292788,"SoundDuration":292788,"Delta":360141274},{"NoteNumber":75,"Velocity":60,"Duration":292788,"SoundDuration":292788,"Delta":360141274},{"NoteNumber":80,"Velocity":70,"Duration":292788,"SoundDuration":292788,"Delta":360141274},{"NoteNumber":72,"Velocity":67,"Duration":6406480,"SoundDuration":6406480,"Delta":360449472},{"NoteNumber":75,"Velocity":67,"Duration":6406480,"SoundDuration":6406480,"Delta":360449472},{"NoteNumber":80,"Velocity":79,"Duration":6406480,"SoundDuration":6406480,"Delta":360449472},{"NoteNumber":56,"Velocity":60,"Duration":616396,"SoundDuration":616396,"Delta":360449472},{"NoteNumber":68,"Velocity":59,"Duration":316723,"SoundDuration":316723,"Delta":361065868},{"NoteNumber":32,"Velocity":36,"Duration":162478,"SoundDuration":162478,"Delta":362024271},{"NoteNumber":32,"Velocity":36,"Duration":162478,"SoundDuration":162478,"Delta":362349228},{"NoteNumber":31,"Velocity":36,"Duration":162478,"SoundDuration":162478,"Delta":362674184},{"NoteNumber":32,"Velocity":36,"Duration":315658,"SoundDuration":315658,"Delta":362999141},{"NoteNumber":44,"Velocity":38,"Duration":622019,"SoundDuration":622019,"Delta":363625810},{"NoteNumber":56,"Velocity":41,"Duration":622019,"SoundDuration":622019,"Delta":364247829},{"NoteNumber":68,"Velocity":38,"Duration":322511,"SoundDuration":322511,"Delta":364869849},{"NoteNumber":72,"Velocity":34,"Duration":3156705,"SoundDuration":3156705,"Delta":366855953},{"NoteNumber":76,"Velocity":34,"Duration":3156705,"SoundDuration":3156705,"Delta":366855953},{"NoteNumber":79,"Velocity":41,"Duration":3156705,"SoundDuration":3156705,"Delta":366855953},{"NoteNumber":36,"Velocity":26,"Duration":616396,"SoundDuration":616396,"Delta":366855953},{"NoteNumber":48,"Velocity":22,"Duration":616396,"SoundDuration":616396,"Delta":367472349},{"NoteNumber":60,"Velocity":24,"Duration":616396,"SoundDuration":616396,"Delta":368088745},{"NoteNumber":64,"Velocity":25,"Duration":319624,"SoundDuration":319624,"Delta":368705141},{"NoteNumber":36,"Velocity":25,"Duration":167635,"SoundDuration":167635,"Delta":369676176},{"NoteNumber":72,"Velocity":30,"Duration":689017,"SoundDuration":689017,"Delta":370012659},{"NoteNumber":79,"Velocity":30,"Duration":689017,"SoundDuration":689017,"Delta":370012659},{"NoteNumber":84,"Velocity":37,"Duration":689017,"SoundDuration":689017,"Delta":370012659},{"NoteNumber":38,"Velocity":25,"Duration":170072,"SoundDuration":170072,"Delta":370012659},{"NoteNumber":40,"Velocity":25,"Duration":173170,"SoundDuration":173170,"Delta":370354042},{"NoteNumber":72,"Velocity":34,"Duration":1232792,"SoundDuration":1232792,"Delta":370701676},{"NoteNumber":77,"Velocity":34,"Duration":1232792,"SoundDuration":1232792,"Delta":370701676},{"NoteNumber":83,"Velocity":41,"Duration":924594,"SoundDuration":924594,"Delta":370701676},{"NoteNumber":29,"Velocity":26,"Duration":616396,"SoundDuration":616396,"Delta":370701676},{"NoteNumber":41,"Velocity":22,"Duration":616396,"SoundDuration":616396,"Delta":371318072},{"NoteNumber":81,"Velocity":41,"Duration":292788,"SoundDuration":292788,"Delta":371626270},{"NoteNumber":72,"Velocity":34,"Duration":1894635,"SoundDuration":1894635,"Delta":371934468},{"NoteNumber":77,"Velocity":34,"Duration":1894635,"SoundDuration":1894635,"Delta":371934468},{"NoteNumber":81,"Velocity":41,"Duration":1894635,"SoundDuration":1894635,"Delta":371934468},{"NoteNumber":53,"Velocity":26,"Duration":616396,"SoundDuration":616396,"Delta":371934468},{"NoteNumber":65,"Velocity":25,"Duration":319624,"SoundDuration":319624,"Delta":372550864},{"NoteNumber":38,"Velocity":25,"Duration":160806,"SoundDuration":160806,"Delta":373506377},{"NoteNumber":81,"Velocity":36,"Duration":670927,"SoundDuration":670927,"Delta":373829104},{"NoteNumber":72,"Velocity":30,"Duration":670927,"SoundDuration":670927,"Delta":373829104},{"NoteNumber":76,"Velocity":30,"Duration":670927,"SoundDuration":670927,"Delta":373829104},{"NoteNumber":40,"Velocity":25,"Duration":164149,"SoundDuration":164149,"Delta":373829104},{"NoteNumber":41,"Velocity":25,"Duration":168241,"SoundDuration":168241,"Delta":374158565},{"NoteNumber":72,"Velocity":34,"Duration":924594,"SoundDuration":924594,"Delta":374500032},{"NoteNumber":74,"Velocity":34,"Duration":1232792,"SoundDuration":1232792,"Delta":374500032},{"NoteNumber":81,"Velocity":41,"Duration":924594,"SoundDuration":924594,"Delta":374500032},{"NoteNumber":31,"Velocity":26,"Duration":616396,"SoundDuration":616396,"Delta":374500032},{"NoteNumber":43,"Velocity":22,"Duration":616396,"SoundDuration":616396,"Delta":375116428},{"NoteNumber":71,"Velocity":38,"Duration":292788,"SoundDuration":292788,"Delta":375424626},{"NoteNumber":79,"Velocity":41,"Duration":292788,"SoundDuration":292788,"Delta":375424626},{"NoteNumber":71,"Velocity":34,"Duration":1900075,"SoundDuration":1900075,"Delta":375732824},{"NoteNumber":74,"Velocity":34,"Duration":1900075,"SoundDuration":1900075,"Delta":375732824},{"NoteNumber":79,"Velocity":41,"Duration":1900075,"SoundDuration":1900075,"Delta":375732824},{"NoteNumber":55,"Velocity":27,"Duration":616396,"SoundDuration":616396,"Delta":375732824},{"NoteNumber":67,"Velocity":28,"Duration":319624,"SoundDuration":319624,"Delta":376349220},{"NoteNumber":31,"Velocity":25,"Duration":161363,"SoundDuration":161363,"Delta":377307943},{"NoteNumber":69,"Velocity":28,"Duration":670718,"SoundDuration":670718,"Delta":377632899},{"NoteNumber":72,"Velocity":28,"Duration":670718,"SoundDuration":670718,"Delta":377632899},{"NoteNumber":77,"Velocity":34,"Duration":670718,"SoundDuration":670718,"Delta":377632899},{"NoteNumber":33,"Velocity":25,"Duration":164730,"SoundDuration":164730,"Delta":377632899},{"NoteNumber":35,"Velocity":25,"Duration":168241,"SoundDuration":168241,"Delta":377964684},{"NoteNumber":67,"Velocity":28,"Duration":1255646,"SoundDuration":1255646,"Delta":378303617},{"NoteNumber":72,"Velocity":28,"Duration":1255646,"SoundDuration":1255646,"Delta":378303617},{"NoteNumber":76,"Velocity":34,"Duration":1255646,"SoundDuration":1255646,"Delta":378303617},{"NoteNumber":36,"Velocity":26,"Duration":616396,"SoundDuration":616396,"Delta":378303617},{"NoteNumber":48,"Velocity":22,"Duration":639250,"SoundDuration":639250,"Delta":378920013},{"NoteNumber":64,"Velocity":25,"Duration":2579486,"SoundDuration":2579486,"Delta":379559263},{"NoteNumber":67,"Velocity":25,"Duration":2579486,"SoundDuration":2579486,"Delta":379559263},{"NoteNumber":72,"Velocity":30,"Duration":2579486,"SoundDuration":2579486,"Delta":379559263},{"NoteNumber":60,"Velocity":27,"Duration":639250,"SoundDuration":639250,"Delta":379559263},{"NoteNumber":84,"Velocity":29,"Duration":319624,"SoundDuration":319624,"Delta":380198513},{"NoteNumber":36,"Velocity":25,"Duration":161363,"SoundDuration":161363,"Delta":381159375},{"NoteNumber":36,"Velocity":25,"Duration":162478,"SoundDuration":162478,"Delta":381483217},{"NoteNumber":38,"Velocity":25,"Duration":164149,"SoundDuration":164149,"Delta":381809288},{"NoteNumber":60,"Velocity":33,"Duration":2505787,"SoundDuration":2505787,"Delta":382138750},{"NoteNumber":64,"Velocity":39,"Duration":2505787,"SoundDuration":2505787,"Delta":382138750},{"NoteNumber":36,"Velocity":26,"Duration":616396,"SoundDuration":616396,"Delta":382138750},{"NoteNumber":55,"Velocity":22,"Duration":616396,"SoundDuration":616396,"Delta":382755146},{"NoteNumber":67,"Velocity":27,"Duration":616396,"SoundDuration":616396,"Delta":383371542},{"NoteNumber":79,"Velocity":28,"Duration":328299,"SoundDuration":328299,"Delta":383987938},{"NoteNumber":60,"Velocity":29,"Duration":985041,"SoundDuration":985041,"Delta":384644537},{"NoteNumber":64,"Velocity":34,"Duration":985041,"SoundDuration":985041,"Delta":384644537},{"NoteNumber":36,"Velocity":25,"Duration":164149,"SoundDuration":164149,"Delta":384969493},{"NoteNumber":36,"Velocity":25,"Duration":165892,"SoundDuration":165892,"Delta":385297793},{"NoteNumber":59,"Velocity":28,"Duration":319537,"SoundDuration":319537,"Delta":385629578},{"NoteNumber":62,"Velocity":34,"Duration":319537,"SoundDuration":319537,"Delta":385629578},{"NoteNumber":38,"Velocity":25,"Duration":167635,"SoundDuration":167635,"Delta":385629578},{"NoteNumber":59,"Velocity":34,"Duration":2499101,"SoundDuration":2499101,"Delta":385966060},{"NoteNumber":62,"Velocity":41,"Duration":2499101,"SoundDuration":2499101,"Delta":385966060},{"NoteNumber":36,"Velocity":26,"Duration":616396,"SoundDuration":616396,"Delta":385966060},{"NoteNumber":55,"Velocity":22,"Duration":616396,"SoundDuration":616396,"Delta":386582456},{"NoteNumber":67,"Velocity":27,"Duration":616396,"SoundDuration":616396,"Delta":387198852},{"NoteNumber":79,"Velocity":28,"Duration":324956,"SoundDuration":324956,"Delta":387815248},{"NoteNumber":59,"Velocity":31,"Duration":1321792,"SoundDuration":1321792,"Delta":388465162},{"NoteNumber":62,"Velocity":37,"Duration":1321792,"SoundDuration":1321792,"Delta":388465162},{"NoteNumber":36,"Velocity":25,"Duration":163035,"SoundDuration":163035,"Delta":388787889},{"NoteNumber":36,"Velocity":25,"Duration":165892,"SoundDuration":165892,"Delta":389115074},{"NoteNumber":38,"Velocity":25,"Duration":168241,"SoundDuration":168241,"Delta":389448021},{"NoteNumber":57,"Velocity":34,"Duration":2488438,"SoundDuration":2488438,"Delta":389786954},{"NoteNumber":65,"Velocity":41,"Duration":2488438,"SoundDuration":2488438,"Delta":389786954},{"NoteNumber":36,"Velocity":26,"Duration":616396,"SoundDuration":616396,"Delta":389786954},{"NoteNumber":55,"Velocity":22,"Duration":616396,"SoundDuration":616396,"Delta":390403350},{"NoteNumber":67,"Velocity":27,"Duration":616396,"SoundDuration":616396,"Delta":391019746},{"NoteNumber":79,"Velocity":28,"Duration":319624,"SoundDuration":319624,"Delta":391636142},{"NoteNumber":59,"Velocity":28,"Duration":321612,"SoundDuration":321612,"Delta":392275392},{"NoteNumber":65,"Velocity":33,"Duration":647683,"SoundDuration":647683,"Delta":392275392},{"NoteNumber":62,"Velocity":24,"Duration":326071,"SoundDuration":326071,"Delta":392597004},{"NoteNumber":36,"Velocity":25,"Duration":162478,"SoundDuration":162478,"Delta":392597004},{"NoteNumber":60,"Velocity":25,"Duration":330623,"SoundDuration":330623,"Delta":392923075},{"NoteNumber":64,"Velocity":30,"Duration":330623,"SoundDuration":330623,"Delta":392923075},{"NoteNumber":36,"Velocity":25,"Duration":164730,"SoundDuration":164730,"Delta":392923075},{"NoteNumber":59,"Velocity":23,"Duration":336482,"SoundDuration":336482,"Delta":393253699},{"NoteNumber":62,"Velocity":28,"Duration":336482,"SoundDuration":336482,"Delta":393253699},{"NoteNumber":38,"Velocity":25,"Duration":167635,"SoundDuration":167635,"Delta":393253699},{"NoteNumber":60,"Velocity":33,"Duration":1849188,"SoundDuration":1849188,"Delta":393590181},{"NoteNumber":64,"Velocity":39,"Duration":1849188,"SoundDuration":1849188,"Delta":393590181},{"NoteNumber":36,"Velocity":26,"Duration":616396,"SoundDuration":616396,"Delta":393590181},{"NoteNumber":55,"Velocity":22,"Duration":616396,"SoundDuration":616396,"Delta":394206577},{"NoteNumber":67,"Velocity":27,"Duration":616396,"SoundDuration":616396,"Delta":394822973},{"NoteNumber":60,"Velocity":29,"Duration":319624,"SoundDuration":319624,"Delta":395439369},{"NoteNumber":64,"Velocity":35,"Duration":319624,"SoundDuration":319624,"Delta":395439369},{"NoteNumber":79,"Velocity":29,"Duration":319624,"SoundDuration":319624,"Delta":395439369},{"NoteNumber":59,"Velocity":29,"Duration":321612,"SoundDuration":321612,"Delta":396078619},{"NoteNumber":64,"Velocity":35,"Duration":321612,"SoundDuration":321612,"Delta":396078619},{"NoteNumber":36,"Velocity":25,"Duration":162478,"SoundDuration":162478,"Delta":396400231},{"NoteNumber":58,"Velocity":29,"Duration":328299,"SoundDuration":328299,"Delta":396725188},{"NoteNumber":66,"Velocity":35,"Duration":328299,"SoundDuration":328299,"Delta":396725188},{"NoteNumber":36,"Velocity":25,"Duration":164149,"SoundDuration":164149,"Delta":396725188},{"NoteNumber":38,"Velocity":25,"Duration":165892,"SoundDuration":165892,"Delta":397053488},{"NoteNumber":59,"Velocity":33,"Duration":649913,"SoundDuration":649913,"Delta":397386434},{"NoteNumber":68,"Velocity":39,"Duration":2514590,"SoundDuration":2514590,"Delta":397386434},{"NoteNumber":35,"Velocity":26,"Duration":649913,"SoundDuration":649913,"Delta":397386434},{"NoteNumber":64,"Velocity":33,"Duration":1864676,"SoundDuration":1864676,"Delta":398036348},{"NoteNumber":47,"Velocity":22,"Duration":613471,"SoundDuration":613471,"Delta":398036348},{"NoteNumber":59,"Velocity":27,"Duration":606182,"SoundDuration":606182,"Delta":398649819},{"NoteNumber":71,"Velocity":27,"Duration":322511,"SoundDuration":322511,"Delta":399256002},{"NoteNumber":64,"Velocity":29,"Duration":985041,"SoundDuration":985041,"Delta":399901025},{"NoteNumber":68,"Velocity":34,"Duration":985041,"SoundDuration":985041,"Delta":399901025},{"NoteNumber":35,"Velocity":25,"Duration":164149,"SoundDuration":164149,"Delta":400225982},{"NoteNumber":35,"Velocity":25,"Duration":165892,"SoundDuration":165892,"Delta":400554281},{"NoteNumber":63,"Velocity":28,"Duration":319537,"SoundDuration":319537,"Delta":400886066},{"NoteNumber":66,"Velocity":34,"Duration":319537,"SoundDuration":319537,"Delta":400886066},{"NoteNumber":37,"Velocity":25,"Duration":167635,"SoundDuration":167635,"Delta":400886066},{"NoteNumber":63,"Velocity":34,"Duration":2488438,"SoundDuration":2488438,"Delta":401222549},{"NoteNumber":66,"Velocity":41,"Duration":2488438,"SoundDuration":2488438,"Delta":401222549},{"NoteNumber":35,"Velocity":26,"Duration":308198,"SoundDuration":308198,"Delta":401222549},{"NoteNumber":47,"Velocity":22,"Duration":616396,"SoundDuration":616396,"Delta":401838945},{"NoteNumber":59,"Velocity":27,"Duration":616396,"SoundDuration":616396,"Delta":402455341},{"NoteNumber":71,"Velocity":27,"Duration":319624,"SoundDuration":319624,"Delta":403071737},{"NoteNumber":63,"Velocity":31,"Duration":1321792,"SoundDuration":1321792,"Delta":403710987},{"NoteNumber":66,"Velocity":37,"Duration":1321792,"SoundDuration":1321792,"Delta":403710987},{"NoteNumber":35,"Velocity":25,"Duration":163035,"SoundDuration":163035,"Delta":404033714},{"NoteNumber":35,"Velocity":25,"Duration":165892,"SoundDuration":165892,"Delta":404360899},{"NoteNumber":37,"Velocity":25,"Duration":168241,"SoundDuration":168241,"Delta":404693846},{"NoteNumber":61,"Velocity":34,"Duration":2488438,"SoundDuration":2488438,"Delta":405032779},{"NoteNumber":69,"Velocity":41,"Duration":2488438,"SoundDuration":2488438,"Delta":405032779},{"NoteNumber":35,"Velocity":26,"Duration":308198,"SoundDuration":308198,"Delta":405032779},{"NoteNumber":47,"Velocity":22,"Duration":616396,"SoundDuration":616396,"Delta":405649175},{"NoteNumber":59,"Velocity":27,"Duration":616396,"SoundDuration":616396,"Delta":406265571},{"NoteNumber":71,"Velocity":28,"Duration":319624,"SoundDuration":319624,"Delta":406881967},{"NoteNumber":63,"Velocity":28,"Duration":318810,"SoundDuration":318810,"Delta":407521217},{"NoteNumber":69,"Velocity":33,"Duration":639353,"SoundDuration":639353,"Delta":407521217},{"NoteNumber":66,"Velocity":24,"Duration":320542,"SoundDuration":320542,"Delta":407840028},{"NoteNumber":35,"Velocity":25,"Duration":159736,"SoundDuration":159736,"Delta":407840028},{"NoteNumber":64,"Velocity":25,"Duration":324956,"SoundDuration":324956,"Delta":408160570},{"NoteNumber":68,"Velocity":30,"Duration":324956,"SoundDuration":324956,"Delta":408160570},{"NoteNumber":35,"Velocity":25,"Duration":162478,"SoundDuration":162478,"Delta":408160570},{"NoteNumber":63,"Velocity":23,"Duration":329461,"SoundDuration":329461,"Delta":408485527},{"NoteNumber":66,"Velocity":28,"Duration":329461,"SoundDuration":329461,"Delta":408485527},{"NoteNumber":37,"Velocity":25,"Duration":164149,"SoundDuration":164149,"Delta":408485527},{"NoteNumber":64,"Velocity":33,"Duration":3127688,"SoundDuration":3127688,"Delta":408814989},{"NoteNumber":68,"Velocity":39,"Duration":3127688,"SoundDuration":3127688,"Delta":408814989},{"NoteNumber":35,"Velocity":26,"Duration":308198,"SoundDuration":308198,"Delta":408814989},{"NoteNumber":47,"Velocity":22,"Duration":616396,"SoundDuration":616396,"Delta":409431385},{"NoteNumber":59,"Velocity":27,"Duration":616396,"SoundDuration":616396,"Delta":410047781},{"NoteNumber":71,"Velocity":28,"Duration":319624,"SoundDuration":319624,"Delta":410664177},{"NoteNumber":35,"Velocity":26,"Duration":159812,"SoundDuration":159812,"Delta":411623052},{"NoteNumber":68,"Velocity":30,"Duration":639250,"SoundDuration":639250,"Delta":411942677},{"NoteNumber":71,"Velocity":37,"Duration":639250,"SoundDuration":639250,"Delta":411942677},{"NoteNumber":35,"Velocity":26,"Duration":159812,"SoundDuration":159812,"Delta":411942677},{"NoteNumber":37,"Velocity":26,"Duration":159812,"SoundDuration":159812,"Delta":412262302},{"NoteNumber":68,"Velocity":44,"Duration":924594,"SoundDuration":924594,"Delta":412581927},{"NoteNumber":71,"Velocity":44,"Duration":924594,"SoundDuration":924594,"Delta":412581927},{"NoteNumber":76,"Velocity":51,"Duration":924594,"SoundDuration":924594,"Delta":412581927},{"NoteNumber":35,"Velocity":29,"Duration":308198,"SoundDuration":308198,"Delta":412581927},{"NoteNumber":47,"Velocity":37,"Duration":616396,"SoundDuration":616396,"Delta":413198323},{"NoteNumber":66,"Velocity":39,"Duration":292788,"SoundDuration":292788,"Delta":413506521},{"NoteNumber":71,"Velocity":39,"Duration":292788,"SoundDuration":292788,"Delta":413506521},{"NoteNumber":75,"Velocity":47,"Duration":292788,"SoundDuration":292788,"Delta":413506521},{"NoteNumber":66,"Velocity":44,"Duration":1886647,"SoundDuration":1886647,"Delta":413814719},{"NoteNumber":71,"Velocity":44,"Duration":1886647,"SoundDuration":1886647,"Delta":413814719},{"NoteNumber":75,"Velocity":53,"Duration":1886647,"SoundDuration":1886647,"Delta":413814719},{"NoteNumber":59,"Velocity":43,"Duration":616396,"SoundDuration":616396,"Delta":413814719},{"NoteNumber":83,"Velocity":46,"Duration":633445,"SoundDuration":633445,"Delta":414431115},{"NoteNumber":35,"Velocity":32,"Duration":159736,"SoundDuration":159736,"Delta":415380823},{"NoteNumber":66,"Velocity":49,"Duration":657855,"SoundDuration":657855,"Delta":415701366},{"NoteNumber":71,"Velocity":49,"Duration":657855,"SoundDuration":657855,"Delta":415701366},{"NoteNumber":75,"Velocity":60,"Duration":657855,"SoundDuration":657855,"Delta":415701366},{"NoteNumber":35,"Velocity":33,"Duration":162478,"SoundDuration":162478,"Delta":415701366},{"NoteNumber":37,"Velocity":33,"Duration":164730,"SoundDuration":164730,"Delta":416027437},{"NoteNumber":71,"Velocity":55,"Duration":1232792,"SoundDuration":1232792,"Delta":416359222},{"NoteNumber":76,"Velocity":55,"Duration":924594,"SoundDuration":924594,"Delta":416359222},{"NoteNumber":80,"Velocity":65,"Duration":924594,"SoundDuration":924594,"Delta":416359222},{"NoteNumber":35,"Velocity":37,"Duration":308198,"SoundDuration":308198,"Delta":416359222},{"NoteNumber":47,"Velocity":47,"Duration":616396,"SoundDuration":616396,"Delta":416975618},{"NoteNumber":75,"Velocity":50,"Duration":292788,"SoundDuration":292788,"Delta":417283816},{"NoteNumber":78,"Velocity":59,"Duration":292788,"SoundDuration":292788,"Delta":417283816},{"NoteNumber":71,"Velocity":57,"Duration":1894896,"SoundDuration":1894896,"Delta":417592014},{"NoteNumber":75,"Velocity":57,"Duration":1894896,"SoundDuration":1894896,"Delta":417592014},{"NoteNumber":78,"Velocity":67,"Duration":1894896,"SoundDuration":1894896,"Delta":417592014},{"NoteNumber":59,"Velocity":56,"Duration":616396,"SoundDuration":616396,"Delta":417592014},{"NoteNumber":83,"Velocity":60,"Duration":639250,"SoundDuration":639250,"Delta":418208410},{"NoteNumber":35,"Velocity":40,"Duration":159812,"SoundDuration":159812,"Delta":419167285},{"NoteNumber":71,"Velocity":59,"Duration":674157,"SoundDuration":674157,"Delta":419486910},{"NoteNumber":76,"Velocity":59,"Duration":674157,"SoundDuration":674157,"Delta":419486910},{"NoteNumber":80,"Velocity":72,"Duration":674157,"SoundDuration":674157,"Delta":419486910},{"NoteNumber":35,"Velocity":41,"Duration":168539,"SoundDuration":168539,"Delta":419486910},{"NoteNumber":37,"Velocity":43,"Duration":168539,"SoundDuration":168539,"Delta":419823989},{"NoteNumber":76,"Velocity":68,"Duration":924594,"SoundDuration":924594,"Delta":420161068},{"NoteNumber":80,"Velocity":68,"Duration":924594,"SoundDuration":924594,"Delta":420161068},{"NoteNumber":85,"Velocity":80,"Duration":924594,"SoundDuration":924594,"Delta":420161068},{"NoteNumber":35,"Velocity":46,"Duration":308198,"SoundDuration":308198,"Delta":420161068},{"NoteNumber":47,"Velocity":52,"Duration":616396,"SoundDuration":616396,"Delta":420777464},{"NoteNumber":75,"Velocity":60,"Duration":292788,"SoundDuration":292788,"Delta":421085662},{"NoteNumber":78,"Velocity":60,"Duration":292788,"SoundDuration":292788,"Delta":421085662},{"NoteNumber":83,"Velocity":70,"Duration":292788,"SoundDuration":292788,"Delta":421085662},{"NoteNumber":75,"Velocity":67,"Duration":6358879,"SoundDuration":6358879,"Delta":421393860},{"NoteNumber":78,"Velocity":67,"Duration":6358879,"SoundDuration":6358879,"Delta":421393860},{"NoteNumber":83,"Velocity":79,"Duration":5713857,"SoundDuration":5713857,"Delta":421393860},{"NoteNumber":59,"Velocity":60,"Duration":616396,"SoundDuration":616396,"Delta":421393860},{"NoteNumber":71,"Velocity":59,"Duration":633445,"SoundDuration":633445,"Delta":422010256},{"NoteNumber":35,"Velocity":33,"Duration":161363,"SoundDuration":161363,"Delta":422965314},{"NoteNumber":35,"Velocity":32,"Duration":162478,"SoundDuration":162478,"Delta":423289156},{"NoteNumber":37,"Velocity":33,"Duration":164149,"SoundDuration":164149,"Delta":423615227},{"NoteNumber":35,"Velocity":34,"Duration":317934,"SoundDuration":317934,"Delta":423944688},{"NoteNumber":47,"Velocity":30,"Duration":622019,"SoundDuration":622019,"Delta":424573633},{"NoteNumber":59,"Velocity":31,"Duration":622019,"SoundDuration":622019,"Delta":425195652},{"NoteNumber":71,"Velocity":33,"Duration":645022,"SoundDuration":645022,"Delta":425817672},{"NoteNumber":81,"Velocity":42,"Duration":645022,"SoundDuration":645022,"Delta":427107717},{"NoteNumber":68,"Velocity":34,"Duration":3140580,"SoundDuration":3140580,"Delta":427752739},{"NoteNumber":76,"Velocity":34,"Duration":3140580,"SoundDuration":3140580,"Delta":427752739},{"NoteNumber":80,"Velocity":41,"Duration":3140580,"SoundDuration":3140580,"Delta":427752739},{"NoteNumber":37,"Velocity":26,"Duration":308198,"SoundDuration":308198,"Delta":427752739},{"NoteNumber":49,"Velocity":22,"Duration":616396,"SoundDuration":616396,"Delta":428369135},{"NoteNumber":61,"Velocity":26,"Duration":616396,"SoundDuration":616396,"Delta":428985531},{"NoteNumber":73,"Velocity":31,"Duration":639250,"SoundDuration":639250,"Delta":429601927},{"NoteNumber":37,"Velocity":25,"Duration":163035,"SoundDuration":163035,"Delta":430566134},{"NoteNumber":68,"Velocity":30,"Duration":662408,"SoundDuration":662408,"Delta":430893319},{"NoteNumber":73,"Velocity":30,"Duration":662408,"SoundDuration":662408,"Delta":430893319},{"NoteNumber":76,"Velocity":37,"Duration":662408,"SoundDuration":662408,"Delta":430893319},{"NoteNumber":39,"Velocity":25,"Duration":164149,"SoundDuration":164149,"Delta":430893319},{"NoteNumber":40,"Velocity":25,"Duration":165892,"SoundDuration":165892,"Delta":431222780},{"NoteNumber":66,"Velocity":34,"Duration":1232792,"SoundDuration":1232792,"Delta":431555727},{"NoteNumber":69,"Velocity":34,"Duration":1232792,"SoundDuration":1232792,"Delta":431555727},{"NoteNumber":75,"Velocity":41,"Duration":924594,"SoundDuration":924594,"Delta":431555727},{"NoteNumber":30,"Velocity":24,"Duration":308198,"SoundDuration":308198,"Delta":431555727},{"NoteNumber":42,"Velocity":24,"Duration":616396,"SoundDuration":616396,"Delta":432172123},{"NoteNumber":73,"Velocity":41,"Duration":308198,"SoundDuration":308198,"Delta":432480321},{"NoteNumber":66,"Velocity":34,"Duration":606122,"SoundDuration":606122,"Delta":432788519},{"NoteNumber":69,"Velocity":34,"Duration":1907787,"SoundDuration":1907787,"Delta":432788519},{"NoteNumber":73,"Velocity":41,"Duration":1907787,"SoundDuration":1907787,"Delta":432788519},{"NoteNumber":54,"Velocity":27,"Duration":616396,"SoundDuration":616396,"Delta":432788519},{"NoteNumber":66,"Velocity":30,"Duration":638964,"SoundDuration":638964,"Delta":433397210},{"NoteNumber":30,"Velocity":25,"Duration":163035,"SoundDuration":163035,"Delta":434369122},{"NoteNumber":63,"Velocity":30,"Duration":662408,"SoundDuration":662408,"Delta":434696307},{"NoteNumber":69,"Velocity":30,"Duration":662408,"SoundDuration":662408,"Delta":434696307},{"NoteNumber":73,"Velocity":37,"Duration":662408,"SoundDuration":662408,"Delta":434696307},{"NoteNumber":29,"Velocity":25,"Duration":164149,"SoundDuration":164149,"Delta":434696307},{"NoteNumber":30,"Velocity":25,"Duration":165892,"SoundDuration":165892,"Delta":435025769},{"NoteNumber":64,"Velocity":34,"Duration":2422254,"SoundDuration":2422254,"Delta":435358715},{"NoteNumber":68,"Velocity":34,"Duration":3072167,"SoundDuration":3072167,"Delta":435358715},{"NoteNumber":73,"Velocity":41,"Duration":1232792,"SoundDuration":1232792,"Delta":435358715},{"NoteNumber":32,"Velocity":24,"Duration":308198,"SoundDuration":308198,"Delta":435358715},{"NoteNumber":44,"Velocity":22,"Duration":616396,"SoundDuration":616396,"Delta":435975111},{"NoteNumber":71,"Velocity":41,"Duration":1839375,"SoundDuration":1839375,"Delta":436591507},{"NoteNumber":56,"Velocity":27,"Duration":616396,"SoundDuration":616396,"Delta":436591507},{"NoteNumber":80,"Velocity":29,"Duration":573065,"SoundDuration":573065,"Delta":437207903},{"NoteNumber":60,"Velocity":25,"Duration":1327726,"SoundDuration":1327726,"Delta":437780969},{"NoteNumber":32,"Velocity":25,"Duration":162478,"SoundDuration":162478,"Delta":438105926},{"NoteNumber":66,"Velocity":28,"Duration":677813,"SoundDuration":677813,"Delta":438430883},{"NoteNumber":69,"Velocity":34,"Duration":677813,"SoundDuration":677813,"Delta":438430883},{"NoteNumber":31,"Velocity":25,"Duration":169453,"SoundDuration":169453,"Delta":438430883},{"NoteNumber":32,"Velocity":25,"Duration":169453,"SoundDuration":169453,"Delta":438769789},{"NoteNumber":61,"Velocity":28,"Duration":1255646,"SoundDuration":1255646,"Delta":439108696},{"NoteNumber":64,"Velocity":28,"Duration":1255646,"SoundDuration":1255646,"Delta":439108696},{"NoteNumber":68,"Velocity":34,"Duration":1255646,"SoundDuration":1255646,"Delta":439108696},{"NoteNumber":37,"Velocity":26,"Duration":308198,"SoundDuration":308198,"Delta":439108696},{"NoteNumber":44,"Velocity":22,"Duration":639250,"SoundDuration":639250,"Delta":439725092},{"NoteNumber":56,"Velocity":25,"Duration":1939891,"SoundDuration":1939891,"Delta":440364342},{"NoteNumber":61,"Velocity":25,"Duration":1939891,"SoundDuration":1939891,"Delta":440364342},{"NoteNumber":64,"Velocity":30,"Duration":1939891,"SoundDuration":1939891,"Delta":440364342},{"NoteNumber":49,"Velocity":27,"Duration":639250,"SoundDuration":639250,"Delta":440364342},{"NoteNumber":73,"Velocity":29,"Duration":639250,"SoundDuration":639250,"Delta":441003592},{"NoteNumber":37,"Velocity":25,"Duration":166473,"SoundDuration":166473,"Delta":441968913},{"NoteNumber":37,"Velocity":25,"Duration":170072,"SoundDuration":170072,"Delta":442304234},{"NoteNumber":36,"Velocity":25,"Duration":175758,"SoundDuration":175758,"Delta":442646857},{"NoteNumber":61,"Velocity":27,"Duration":3168315,"SoundDuration":3168315,"Delta":443001022},{"NoteNumber":65,"Velocity":27,"Duration":3168315,"SoundDuration":3168315,"Delta":443001022},{"NoteNumber":68,"Velocity":33,"Duration":3168315,"SoundDuration":3168315,"Delta":443001022},{"NoteNumber":37,"Velocity":20,"Duration":636807,"SoundDuration":636807,"Delta":443001022},{"NoteNumber":49,"Velocity":20,"Duration":611994,"SoundDuration":611994,"Delta":443637829},{"NoteNumber":61,"Velocity":23,"Duration":611995,"SoundDuration":611995,"Delta":444249824},{"NoteNumber":73,"Velocity":28,"Duration":639250,"SoundDuration":639250,"Delta":444861819},{"NoteNumber":37,"Velocity":20,"Duration":167635,"SoundDuration":167635,"Delta":445832854},{"NoteNumber":61,"Velocity":23,"Duration":689017,"SoundDuration":689017,"Delta":446169337},{"NoteNumber":68,"Velocity":23,"Duration":689017,"SoundDuration":689017,"Delta":446169337},{"NoteNumber":73,"Velocity":29,"Duration":689017,"SoundDuration":689017,"Delta":446169337},{"NoteNumber":39,"Velocity":20,"Duration":170072,"SoundDuration":170072,"Delta":446169337},{"NoteNumber":41,"Velocity":20,"Duration":173170,"SoundDuration":173170,"Delta":446510721},{"NoteNumber":61,"Velocity":27,"Duration":2488438,"SoundDuration":2488438,"Delta":446858355},{"NoteNumber":66,"Velocity":27,"Duration":2488438,"SoundDuration":2488438,"Delta":446858355},{"NoteNumber":72,"Velocity":33,"Duration":1232792,"SoundDuration":1232792,"Delta":446858355},{"NoteNumber":30,"Velocity":19,"Duration":616396,"SoundDuration":616396,"Delta":446858355},{"NoteNumber":42,"Velocity":20,"Duration":616396,"SoundDuration":616396,"Delta":447474751},{"NoteNumber":70,"Velocity":33,"Duration":1923913,"SoundDuration":1923913,"Delta":448091147},{"NoteNumber":54,"Velocity":23,"Duration":616396,"SoundDuration":616396,"Delta":448091147},{"NoteNumber":82,"Velocity":27,"Duration":639250,"SoundDuration":639250,"Delta":448707543},{"NoteNumber":39,"Velocity":20,"Duration":167635,"SoundDuration":167635,"Delta":449678578},{"NoteNumber":61,"Velocity":23,"Duration":689017,"SoundDuration":689017,"Delta":450015060},{"NoteNumber":65,"Velocity":23,"Duration":689017,"SoundDuration":689017,"Delta":450015060},{"NoteNumber":70,"Velocity":29,"Duration":689017,"SoundDuration":689017,"Delta":450015060},{"NoteNumber":41,"Velocity":20,"Duration":170072,"SoundDuration":170072,"Delta":450015060},{"NoteNumber":42,"Velocity":20,"Duration":173170,"SoundDuration":173170,"Delta":450356444},{"NoteNumber":61,"Velocity":27,"Duration":1232792,"SoundDuration":1232792,"Delta":450704078},{"NoteNumber":63,"Velocity":27,"Duration":1232792,"SoundDuration":1232792,"Delta":450704078},{"NoteNumber":70,"Velocity":33,"Duration":1232792,"SoundDuration":1232792,"Delta":450704078},{"NoteNumber":32,"Velocity":19,"Duration":616396,"SoundDuration":616396,"Delta":450704078},{"NoteNumber":44,"Velocity":17,"Duration":616396,"SoundDuration":616396,"Delta":451320474},{"NoteNumber":60,"Velocity":22,"Duration":1860003,"SoundDuration":1860003,"Delta":451936870},{"NoteNumber":63,"Velocity":24,"Duration":1860003,"SoundDuration":1860003,"Delta":451936870},{"NoteNumber":68,"Velocity":30,"Duration":1860003,"SoundDuration":1860003,"Delta":451936870},{"NoteNumber":56,"Velocity":21,"Duration":616396,"SoundDuration":616396,"Delta":451936870},{"NoteNumber":80,"Velocity":24,"Duration":573065,"SoundDuration":573065,"Delta":452553266},{"NoteNumber":32,"Velocity":20,"Duration":167635,"SoundDuration":167635,"Delta":453461602},{"NoteNumber":58,"Velocity":24,"Duration":692680,"SoundDuration":692680,"Delta":453796873},{"NoteNumber":61,"Velocity":24,"Duration":692680,"SoundDuration":692680,"Delta":453796873},{"NoteNumber":66,"Velocity":29,"Duration":692680,"SoundDuration":692680,"Delta":453796873},{"NoteNumber":34,"Velocity":22,"Duration":173170,"SoundDuration":173170,"Delta":453796873},{"NoteNumber":36,"Velocity":22,"Duration":173170,"SoundDuration":173170,"Delta":454143213},{"NoteNumber":56,"Velocity":24,"Duration":1255646,"SoundDuration":1255646,"Delta":454489553},{"NoteNumber":61,"Velocity":24,"Duration":1255646,"SoundDuration":1255646,"Delta":454489553},{"NoteNumber":65,"Velocity":29,"Duration":1255646,"SoundDuration":1255646,"Delta":454489553},{"NoteNumber":37,"Velocity":22,"Duration":616396,"SoundDuration":616396,"Delta":454489553},{"NoteNumber":44,"Velocity":19,"Duration":639250,"SoundDuration":639250,"Delta":455105949},{"NoteNumber":53,"Velocity":22,"Duration":1942070,"SoundDuration":1942070,"Delta":455745199},{"NoteNumber":56,"Velocity":22,"Duration":1942070,"SoundDuration":1942070,"Delta":455745199},{"NoteNumber":61,"Velocity":25,"Duration":1942070,"SoundDuration":1942070,"Delta":455745199},{"NoteNumber":49,"Velocity":22,"Duration":639250,"SoundDuration":639250,"Delta":455745199},{"NoteNumber":73,"Velocity":25,"Duration":639250,"SoundDuration":639250,"Delta":456384449},{"NoteNumber":49,"Velocity":25,"Duration":166473,"SoundDuration":166473,"Delta":457353161},{"NoteNumber":56,"Velocity":24,"Duration":686539,"SoundDuration":686539,"Delta":457687269},{"NoteNumber":61,"Velocity":24,"Duration":686539,"SoundDuration":686539,"Delta":457687269},{"NoteNumber":65,"Velocity":29,"Duration":686539,"SoundDuration":686539,"Delta":457687269},{"NoteNumber":48,"Velocity":25,"Duration":169453,"SoundDuration":169453,"Delta":457687269},{"NoteNumber":49,"Velocity":25,"Duration":171930,"SoundDuration":171930,"Delta":458027414},{"NoteNumber":55,"Velocity":28,"Duration":1255646,"SoundDuration":1255646,"Delta":458373809},{"NoteNumber":61,"Velocity":28,"Duration":1255646,"SoundDuration":1255646,"Delta":458373809},{"NoteNumber":65,"Velocity":34,"Duration":936020,"SoundDuration":936020,"Delta":458373809},{"NoteNumber":46,"Velocity":26,"Duration":616396,"SoundDuration":616396,"Delta":458373809},{"NoteNumber":70,"Velocity":29,"Duration":319624,"SoundDuration":319624,"Delta":458990205},{"NoteNumber":63,"Velocity":34,"Duration":319625,"SoundDuration":319625,"Delta":459309830},{"NoteNumber":82,"Velocity":29,"Duration":639250,"SoundDuration":639250,"Delta":459629455},{"NoteNumber":55,"Velocity":25,"Duration":1932465,"SoundDuration":1932465,"Delta":459629455},{"NoteNumber":61,"Velocity":25,"Duration":1932465,"SoundDuration":1932465,"Delta":459629455},{"NoteNumber":63,"Velocity":30,"Duration":1932465,"SoundDuration":1932465,"Delta":459629455},{"NoteNumber":46,"Velocity":25,"Duration":164149,"SoundDuration":164149,"Delta":461232460},{"NoteNumber":55,"Velocity":28,"Duration":674253,"SoundDuration":674253,"Delta":461561921},{"NoteNumber":61,"Velocity":28,"Duration":674253,"SoundDuration":674253,"Delta":461561921},{"NoteNumber":63,"Velocity":33,"Duration":674253,"SoundDuration":674253,"Delta":461561921},{"NoteNumber":46,"Velocity":25,"Duration":166473,"SoundDuration":166473,"Delta":461561921},{"NoteNumber":49,"Velocity":25,"Duration":169453,"SoundDuration":169453,"Delta":461896030},{"NoteNumber":54,"Velocity":31,"Duration":1255646,"SoundDuration":1255646,"Delta":462236175},{"NoteNumber":61,"Velocity":31,"Duration":1255646,"SoundDuration":1255646,"Delta":462236175},{"NoteNumber":64,"Velocity":37,"Duration":936020,"SoundDuration":936020,"Delta":462236175},{"NoteNumber":45,"Velocity":26,"Duration":616396,"SoundDuration":616396,"Delta":462236175},{"NoteNumber":69,"Velocity":29,"Duration":319624,"SoundDuration":319624,"Delta":462852571},{"NoteNumber":63,"Velocity":34,"Duration":319625,"SoundDuration":319625,"Delta":463172196},{"NoteNumber":81,"Velocity":29,"Duration":639250,"SoundDuration":639250,"Delta":463491821},{"NoteNumber":54,"Velocity":25,"Duration":1922929,"SoundDuration":1922929,"Delta":463491821},{"NoteNumber":61,"Velocity":25,"Duration":1922929,"SoundDuration":1922929,"Delta":463491821},{"NoteNumber":63,"Velocity":30,"Duration":1922929,"SoundDuration":1922929,"Delta":463491821},{"NoteNumber":45,"Velocity":25,"Duration":161363,"SoundDuration":161363,"Delta":465089794},{"NoteNumber":54,"Velocity":25,"Duration":670718,"SoundDuration":670718,"Delta":465414750},{"NoteNumber":61,"Velocity":25,"Duration":670718,"SoundDuration":670718,"Delta":465414750},{"NoteNumber":63,"Velocity":30,"Duration":670718,"SoundDuration":670718,"Delta":465414750},{"NoteNumber":45,"Velocity":25,"Duration":164730,"SoundDuration":164730,"Delta":465414750},{"NoteNumber":49,"Velocity":25,"Duration":168241,"SoundDuration":168241,"Delta":465746535},{"NoteNumber":54,"Velocity":28,"Duration":1894896,"SoundDuration":1894896,"Delta":466085468},{"NoteNumber":60,"Velocity":28,"Duration":1894896,"SoundDuration":1894896,"Delta":466085468},{"NoteNumber":63,"Velocity":34,"Duration":1894896,"SoundDuration":1894896,"Delta":466085468},{"NoteNumber":44,"Velocity":26,"Duration":616396,"SoundDuration":616396,"Delta":466085468},{"NoteNumber":68,"Velocity":27,"Duration":319624,"SoundDuration":319624,"Delta":466701864},{"NoteNumber":80,"Velocity":28,"Duration":639250,"SoundDuration":639250,"Delta":467341114},{"NoteNumber":65,"Velocity":29,"Duration":319624,"SoundDuration":319624,"Delta":467980364},{"NoteNumber":66,"Velocity":29,"Duration":319625,"SoundDuration":319625,"Delta":468299989},{"NoteNumber":68,"Velocity":29,"Duration":653256,"SoundDuration":653256,"Delta":468619614},{"NoteNumber":44,"Velocity":25,"Duration":164149,"SoundDuration":164149,"Delta":468944571},{"NoteNumber":56,"Velocity":25,"Duration":668267,"SoundDuration":668267,"Delta":469272870},{"NoteNumber":60,"Velocity":25,"Duration":668267,"SoundDuration":668267,"Delta":469272870},{"NoteNumber":64,"Velocity":30,"Duration":668267,"SoundDuration":668267,"Delta":469272870},{"NoteNumber":43,"Velocity":25,"Duration":165892,"SoundDuration":165892,"Delta":469272870},{"NoteNumber":44,"Velocity":25,"Duration":167635,"SoundDuration":167635,"Delta":469604655},{"NoteNumber":56,"Velocity":28,"Duration":3181829,"SoundDuration":3181829,"Delta":469941138},{"NoteNumber":61,"Velocity":28,"Duration":3181829,"SoundDuration":3181829,"Delta":469941138},{"NoteNumber":65,"Velocity":34,"Duration":3181829,"SoundDuration":3181829,"Delta":469941138},{"NoteNumber":37,"Velocity":26,"Duration":616396,"SoundDuration":616396,"Delta":469941138},{"NoteNumber":49,"Velocity":27,"Duration":319624,"SoundDuration":319624,"Delta":470557534},{"NoteNumber":73,"Velocity":29,"Duration":1278500,"SoundDuration":1278500,"Delta":471196784},{"NoteNumber":37,"Velocity":22,"Duration":162478,"SoundDuration":162478,"Delta":472796896},{"NoteNumber":56,"Velocity":25,"Duration":667105,"SoundDuration":667105,"Delta":473122967},{"NoteNumber":61,"Velocity":25,"Duration":667105,"SoundDuration":667105,"Delta":473122967},{"NoteNumber":65,"Velocity":30,"Duration":667105,"SoundDuration":667105,"Delta":473122967},{"NoteNumber":36,"Velocity":22,"Duration":164730,"SoundDuration":164730,"Delta":473122967},{"NoteNumber":37,"Velocity":22,"Duration":167635,"SoundDuration":167635,"Delta":473453590},{"NoteNumber":55,"Velocity":23,"Duration":1255646,"SoundDuration":1255646,"Delta":473790073},{"NoteNumber":61,"Velocity":23,"Duration":1255646,"SoundDuration":1255646,"Delta":473790073},{"NoteNumber":65,"Velocity":28,"Duration":936020,"SoundDuration":936020,"Delta":473790073},{"NoteNumber":34,"Velocity":22,"Duration":308198,"SoundDuration":308198,"Delta":473790073},{"NoteNumber":46,"Velocity":24,"Duration":319624,"SoundDuration":319624,"Delta":474406469},{"NoteNumber":63,"Velocity":28,"Duration":319625,"SoundDuration":319625,"Delta":474726094},{"NoteNumber":70,"Velocity":24,"Duration":1278500,"SoundDuration":1278500,"Delta":475045719},{"NoteNumber":55,"Velocity":21,"Duration":1939746,"SoundDuration":1939746,"Delta":475045719},{"NoteNumber":61,"Velocity":21,"Duration":1939746,"SoundDuration":1939746,"Delta":475045719},{"NoteNumber":63,"Velocity":25,"Duration":1939746,"SoundDuration":1939746,"Delta":475045719},{"NoteNumber":34,"Velocity":21,"Duration":165892,"SoundDuration":165892,"Delta":476652518},{"NoteNumber":55,"Velocity":23,"Duration":681556,"SoundDuration":681556,"Delta":476985465},{"NoteNumber":61,"Velocity":23,"Duration":681556,"SoundDuration":681556,"Delta":476985465},{"NoteNumber":63,"Velocity":28,"Duration":681556,"SoundDuration":681556,"Delta":476985465},{"NoteNumber":34,"Velocity":21,"Duration":168241,"SoundDuration":168241,"Delta":476985465},{"NoteNumber":37,"Velocity":21,"Duration":171311,"SoundDuration":171311,"Delta":477323160},{"NoteNumber":54,"Velocity":26,"Duration":1255646,"SoundDuration":1255646,"Delta":477667021},{"NoteNumber":61,"Velocity":26,"Duration":1255646,"SoundDuration":1255646,"Delta":477667021},{"NoteNumber":64,"Velocity":31,"Duration":936020,"SoundDuration":936020,"Delta":477667021},{"NoteNumber":33,"Velocity":22,"Duration":308198,"SoundDuration":308198,"Delta":477667021},{"NoteNumber":45,"Velocity":24,"Duration":319624,"SoundDuration":319624,"Delta":478283417},{"NoteNumber":63,"Velocity":28,"Duration":319625,"SoundDuration":319625,"Delta":478603042},{"NoteNumber":69,"Velocity":24,"Duration":639250,"SoundDuration":639250,"Delta":478922667},{"NoteNumber":54,"Velocity":21,"Duration":1931756,"SoundDuration":1931756,"Delta":478922667},{"NoteNumber":61,"Velocity":21,"Duration":1931756,"SoundDuration":1931756,"Delta":478922667},{"NoteNumber":63,"Velocity":25,"Duration":1931756,"SoundDuration":1931756,"Delta":478922667},{"NoteNumber":33,"Velocity":21,"Duration":164149,"SoundDuration":164149,"Delta":480526124},{"NoteNumber":54,"Velocity":21,"Duration":668267,"SoundDuration":668267,"Delta":480854423},{"NoteNumber":61,"Velocity":21,"Duration":668267,"SoundDuration":668267,"Delta":480854423},{"NoteNumber":63,"Velocity":25,"Duration":668267,"SoundDuration":668267,"Delta":480854423},{"NoteNumber":33,"Velocity":21,"Duration":165892,"SoundDuration":165892,"Delta":480854423},{"NoteNumber":35,"Velocity":21,"Duration":167635,"SoundDuration":167635,"Delta":481186208},{"NoteNumber":54,"Velocity":23,"Duration":1894896,"SoundDuration":1894896,"Delta":481522691},{"NoteNumber":60,"Velocity":23,"Duration":1894896,"SoundDuration":1894896,"Delta":481522691},{"NoteNumber":63,"Velocity":28,"Duration":1894896,"SoundDuration":1894896,"Delta":481522691},{"NoteNumber":32,"Velocity":22,"Duration":308198,"SoundDuration":308198,"Delta":481522691},{"NoteNumber":44,"Velocity":24,"Duration":319624,"SoundDuration":319624,"Delta":482139087},{"NoteNumber":56,"Velocity":24,"Duration":1278500,"SoundDuration":1278500,"Delta":482778337},{"NoteNumber":65,"Velocity":24,"Duration":319624,"SoundDuration":319624,"Delta":483417587},{"NoteNumber":66,"Velocity":24,"Duration":319625,"SoundDuration":319625,"Delta":483737212},{"NoteNumber":68,"Velocity":24,"Duration":660084,"SoundDuration":660084,"Delta":484056837},{"NoteNumber":32,"Velocity":21,"Duration":165892,"SoundDuration":165892,"Delta":484385136},{"NoteNumber":54,"Velocity":21,"Duration":675415,"SoundDuration":675415,"Delta":484716921},{"NoteNumber":57,"Velocity":21,"Duration":675415,"SoundDuration":675415,"Delta":484716921},{"NoteNumber":60,"Velocity":25,"Duration":675415,"SoundDuration":675415,"Delta":484716921},{"NoteNumber":31,"Velocity":21,"Duration":167635,"SoundDuration":167635,"Delta":484716921},{"NoteNumber":32,"Velocity":21,"Duration":169453,"SoundDuration":169453,"Delta":485052192},{"NoteNumber":61,"Velocity":25,"Duration":3261891,"SoundDuration":3261891,"Delta":485392337},{"NoteNumber":56,"Velocity":21,"Duration":3261891,"SoundDuration":3261891,"Delta":485392337},{"NoteNumber":53,"Velocity":21,"Duration":3261891,"SoundDuration":3261891,"Delta":485392337},{"NoteNumber":37,"Velocity":22,"Duration":308198,"SoundDuration":308198,"Delta":485392337},{"NoteNumber":49,"Velocity":22,"Duration":319624,"SoundDuration":319624,"Delta":486008733},{"NoteNumber":73,"Velocity":24,"Duration":1327139,"SoundDuration":1327139,"Delta":486647983},{"NoteNumber":37,"Velocity":21,"Duration":170072,"SoundDuration":170072,"Delta":488311606},{"NoteNumber":37,"Velocity":21,"Duration":173817,"SoundDuration":173817,"Delta":488654229},{"NoteNumber":36,"Velocity":21,"Duration":177730,"SoundDuration":177730,"Delta":489003156},{"NoteNumber":61,"Velocity":25,"Duration":3280197,"SoundDuration":3280197,"Delta":489352338},{"NoteNumber":58,"Velocity":21,"Duration":3280197,"SoundDuration":3280197,"Delta":489352338},{"NoteNumber":54,"Velocity":21,"Duration":3280197,"SoundDuration":3280197,"Delta":489352338},{"NoteNumber":37,"Velocity":22,"Duration":308198,"SoundDuration":308198,"Delta":489352338},{"NoteNumber":49,"Velocity":22,"Duration":331785,"SoundDuration":331785,"Delta":489968734},{"NoteNumber":73,"Velocity":24,"Duration":1327139,"SoundDuration":1327139,"Delta":490632304},{"NoteNumber":37,"Velocity":21,"Duration":169453,"SoundDuration":169453,"Delta":492292391},{"NoteNumber":37,"Velocity":21,"Duration":173817,"SoundDuration":173817,"Delta":492632536},{"NoteNumber":36,"Velocity":21,"Duration":177730,"SoundDuration":177730,"Delta":492981464},{"NoteNumber":61,"Velocity":25,"Duration":3417176,"SoundDuration":3417176,"Delta":493339661},{"NoteNumber":54,"Velocity":21,"Duration":3417176,"SoundDuration":3417176,"Delta":493339661},{"NoteNumber":51,"Velocity":21,"Duration":3417176,"SoundDuration":3417176,"Delta":493339661},{"NoteNumber":37,"Velocity":22,"Duration":321612,"SoundDuration":321612,"Delta":493339661},{"NoteNumber":49,"Velocity":22,"Duration":342622,"SoundDuration":342622,"Delta":493982886},{"NoteNumber":73,"Velocity":24,"Duration":1370489,"SoundDuration":1370489,"Delta":494668130},{"NoteNumber":37,"Velocity":21,"Duration":181852,"SoundDuration":181852,"Delta":496388843},{"NoteNumber":37,"Velocity":21,"Duration":191433,"SoundDuration":191433,"Delta":496756838},{"NoteNumber":36,"Velocity":21,"Duration":202929,"SoundDuration":202929,"Delta":497144459},{"NoteNumber":37,"Velocity":22,"Duration":788022,"SoundDuration":788022,"Delta":497555715},{"NoteNumber":53,"Velocity":21,"Duration":1576044,"SoundDuration":1576044,"Delta":497555715},{"NoteNumber":56,"Velocity":21,"Duration":1576044,"SoundDuration":1576044,"Delta":497555715},{"NoteNumber":61,"Velocity":25,"Duration":1576044,"SoundDuration":1576044,"Delta":497555715},{"NoteNumber":68,"Velocity":22,"Duration":197005,"SoundDuration":197005,"Delta":498343737},{"NoteNumber":73,"Velocity":23,"Duration":197005,"SoundDuration":197005,"Delta":499131759},{"NoteNumber":53,"Velocity":18,"Duration":1576043,"SoundDuration":1576043,"Delta":499131759},{"NoteNumber":56,"Velocity":18,"Duration":1576043,"SoundDuration":1576043,"Delta":499131759},{"NoteNumber":61,"Velocity":22,"Duration":1576043,"SoundDuration":1576043,"Delta":499131759},{"NoteNumber":80,"Velocity":23,"Duration":197005,"SoundDuration":197005,"Delta":499919781},{"NoteNumber":85,"Velocity":23,"Duration":207354,"SoundDuration":207354,"Delta":500707803},{"NoteNumber":53,"Velocity":18,"Duration":1742936,"SoundDuration":1742936,"Delta":500707803},{"NoteNumber":56,"Velocity":18,"Duration":1742936,"SoundDuration":1742936,"Delta":500707803},{"NoteNumber":61,"Velocity":22,"Duration":1742936,"SoundDuration":1742936,"Delta":500707803},{"NoteNumber":32,"Velocity":18,"Duration":228380,"SoundDuration":228380,"Delta":501537220},{"NoteNumber":37,"Velocity":19,"Duration":5481119,"SoundDuration":5481119,"Delta":502450740},{"NoteNumber":53,"Velocity":18,"Duration":5481119,"SoundDuration":5481119,"Delta":502450740},{"NoteNumber":56,"Velocity":18,"Duration":5481119,"SoundDuration":5481119,"Delta":502450740},{"NoteNumber":61,"Velocity":22,"Duration":5481119,"SoundDuration":5481119,"Delta":502450740}],"license":{"name":"Creative Commons Attribution-ShareAlike 3.0 Germany","url":"http://creativecommons.org/licenses/by-sa/3.0/de/deed.en","text":"The MIDI files in this folder were downloaded from http://www.piano-midi.de and are licensed under the Creative Commons Attribution-ShareAlike 3.0 Germany license by Bernd Krueger.\n\nThe MIDI, audio(MP3, OGG) and video files of Bernd Krueger are licensed under the cc-by-sa Germany License . This means, that you can use and adapt the files, as long as you attribute to the copyright holder Name: Bernd Krueger Source: http://www.piano-midi.de The distribution or public playback of the files is only allowed under identical license conditions . The scores are open source.","attribution":"Bernd Krueger","attributionUrl":"http://www.piano-midi.de"}}