{"title":"Piano Sonata in B-flat major, D 960: III. Scherzo","artist":"Schubert","durationMs":231667,"midiSha256":"1716ff55e472eecebb7533def25c03e6a2e7c620df561b49489b5d70c9838cb6","midiObject":[{"NoteNumber":82,"Velocity":54,"Duration":230893,"SoundDuration":230893,"Delta":0},{"NoteNumber":58,"Velocity":31,"Duration":115446,"SoundDuration":115446,"Delta":0},{"NoteNumber":62,"Velocity":38,"Duration":115446,"SoundDuration":115446,"Delta":0},{"NoteNumber":65,"Velocity":25,"Duration":115446,"SoundDuration":115446,"Delta":115446},{"NoteNumber":81,"Velocity":47,"Duration":230893,"SoundDuration":230893,"Delta":230893},{"NoteNumber":58,"Velocity":24,"Duration":115446,"SoundDuration":115446,"Delta":230893},{"NoteNumber":62,"Velocity":29,"Duration":115446,"SoundDuration":115446,"Delta":230893},{"NoteNumber":65,"Velocity":24,"Duration":115446,"SoundDuration":115446,"Delta":346340},{"NoteNumber":82,"Velocity":47,"Duration":230893,"SoundDuration":230893,"Delta":461787},{"NoteNumber":62,"Velocity":29,"Duration":115446,"SoundDuration":115446,"Delta":461787},{"NoteNumber":58,"Velocity":24,"Duration":115446,"SoundDuration":115446,"Delta":461787},{"NoteNumber":65,"Velocity":25,"Duration":115446,"SoundDuration":115446,"Delta":577233},{"NoteNumber":79,"Velocity":51,"Duration":228137,"SoundDuration":228137,"Delta":692680},{"NoteNumber":63,"Velocity":34,"Duration":114068,"SoundDuration":114068,"Delta":692680},{"NoteNumber":58,"Velocity":28,"Duration":114068,"SoundDuration":114068,"Delta":692680},{"NoteNumber":67,"Velocity":25,"Duration":114068,"SoundDuration":114068,"Delta":806749},{"NoteNumber":81,"Velocity":46,"Duration":113156,"SoundDuration":113156,"Delta":920817},{"NoteNumber":63,"Velocity":29,"Duration":113156,"SoundDuration":113156,"Delta":920817},{"NoteNumber":58,"Velocity":24,"Duration":113156,"SoundDuration":113156,"Delta":920817},{"NoteNumber":82,"Velocity":47,"Duration":113156,"SoundDuration":113156,"Delta":1033973},{"NoteNumber":67,"Velocity":24,"Duration":113156,"SoundDuration":113156,"Delta":1033973},{"NoteNumber":84,"Velocity":49,"Duration":113156,"SoundDuration":113156,"Delta":1147130},{"NoteNumber":58,"Velocity":24,"Duration":113156,"SoundDuration":113156,"Delta":1147130},{"NoteNumber":63,"Velocity":29,"Duration":113156,"SoundDuration":113156,"Delta":1147130},{"NoteNumber":86,"Velocity":50,"Duration":113156,"SoundDuration":113156,"Delta":1260286},{"NoteNumber":67,"Velocity":24,"Duration":113156,"SoundDuration":113156,"Delta":1260286},{"NoteNumber":82,"Velocity":53,"Duration":229077,"SoundDuration":229077,"Delta":1373442},{"NoteNumber":58,"Velocity":34,"Duration":114538,"SoundDuration":114538,"Delta":1373442},{"NoteNumber":62,"Velocity":40,"Duration":114538,"SoundDuration":114538,"Delta":1373442},{"NoteNumber":65,"Velocity":25,"Duration":114538,"SoundDuration":114538,"Delta":1487981},{"NoteNumber":84,"Velocity":54,"Duration":113156,"SoundDuration":113156,"Delta":1602520},{"NoteNumber":62,"Velocity":29,"Duration":113156,"SoundDuration":113156,"Delta":1602520},{"NoteNumber":58,"Velocity":24,"Duration":113156,"SoundDuration":113156,"Delta":1602520},{"NoteNumber":82,"Velocity":47,"Duration":113156,"SoundDuration":113156,"Delta":1715676},{"NoteNumber":65,"Velocity":24,"Duration":113156,"SoundDuration":113156,"Delta":1715676},{"NoteNumber":81,"Velocity":51,"Duration":113156,"SoundDuration":113156,"Delta":1828832},{"NoteNumber":58,"Velocity":24,"Duration":113156,"SoundDuration":113156,"Delta":1828832},{"NoteNumber":62,"Velocity":29,"Duration":113156,"SoundDuration":113156,"Delta":1828832},{"NoteNumber":79,"Velocity":47,"Duration":113156,"SoundDuration":113156,"Delta":1941988},{"NoteNumber":65,"Velocity":24,"Duration":113156,"SoundDuration":113156,"Delta":1941988},{"NoteNumber":77,"Velocity":56,"Duration":57968,"SoundDuration":57968,"Delta":2055145},{"NoteNumber":63,"Velocity":34,"Duration":115937,"SoundDuration":115937,"Delta":2055145},{"NoteNumber":57,"Velocity":29,"Duration":115937,"SoundDuration":115937,"Delta":2055145},{"NoteNumber":65,"Velocity":25,"Duration":115937,"SoundDuration":115937,"Delta":2171082},{"NoteNumber":77,"Velocity":51,"Duration":57968,"SoundDuration":57968,"Delta":2287020},{"NoteNumber":57,"Velocity":24,"Duration":115937,"SoundDuration":115937,"Delta":2287020},{"NoteNumber":63,"Velocity":29,"Duration":115937,"SoundDuration":115937,"Delta":2287020},{"NoteNumber":65,"Velocity":26,"Duration":115937,"SoundDuration":115937,"Delta":2402957},{"NoteNumber":77,"Velocity":50,"Duration":59325,"SoundDuration":59325,"Delta":2518895},{"NoteNumber":57,"Velocity":24,"Duration":118651,"SoundDuration":118651,"Delta":2518895},{"NoteNumber":63,"Velocity":29,"Duration":118651,"SoundDuration":118651,"Delta":2518895},{"NoteNumber":65,"Velocity":25,"Duration":118651,"SoundDuration":118651,"Delta":2637547},{"NoteNumber":78,"Velocity":61,"Duration":231839,"SoundDuration":231839,"Delta":2756199},{"NoteNumber":63,"Velocity":37,"Duration":115919,"SoundDuration":115919,"Delta":2756199},{"NoteNumber":57,"Velocity":31,"Duration":115919,"SoundDuration":115919,"Delta":2756199},{"NoteNumber":66,"Velocity":25,"Duration":115919,"SoundDuration":115919,"Delta":2872118},{"NoteNumber":90,"Velocity":57,"Duration":231839,"SoundDuration":231839,"Delta":2988038},{"NoteNumber":57,"Velocity":24,"Duration":115919,"SoundDuration":115919,"Delta":2988038},{"NoteNumber":63,"Velocity":29,"Duration":115919,"SoundDuration":115919,"Delta":2988038},{"NoteNumber":66,"Velocity":25,"Duration":115919,"SoundDuration":115919,"Delta":3103958},{"NoteNumber":90,"Velocity":57,"Duration":59096,"SoundDuration":59096,"Delta":3219878},{"NoteNumber":57,"Velocity":24,"Duration":118193,"SoundDuration":118193,"Delta":3219878},{"NoteNumber":63,"Velocity":29,"Duration":118193,"SoundDuration":118193,"Delta":3219878},{"NoteNumber":66,"Velocity":25,"Duration":118193,"SoundDuration":118193,"Delta":3338072},{"NoteNumber":91,"Velocity":65,"Duration":231839,"SoundDuration":231839,"Delta":3456266},{"NoteNumber":58,"Velocity":29,"Duration":115919,"SoundDuration":115919,"Delta":3456266},{"NoteNumber":63,"Velocity":34,"Duration":115919,"SoundDuration":115919,"Delta":3456266},{"NoteNumber":67,"Velocity":25,"Duration":115919,"SoundDuration":115919,"Delta":3572185},{"NoteNumber":79,"Velocity":51,"Duration":231839,"SoundDuration":231839,"Delta":3688105},{"NoteNumber":63,"Velocity":29,"Duration":115919,"SoundDuration":115919,"Delta":3688105},{"NoteNumber":58,"Velocity":24,"Duration":115919,"SoundDuration":115919,"Delta":3688105},{"NoteNumber":67,"Velocity":25,"Duration":115919,"SoundDuration":115919,"Delta":3804025},{"NoteNumber":79,"Velocity":51,"Duration":57959,"SoundDuration":57959,"Delta":3919945},{"NoteNumber":58,"Velocity":24,"Duration":115919,"SoundDuration":115919,"Delta":3919945},{"NoteNumber":63,"Velocity":29,"Duration":115919,"SoundDuration":115919,"Delta":3919945},{"NoteNumber":67,"Velocity":25,"Duration":115919,"SoundDuration":115919,"Delta":4035864},{"NoteNumber":81,"Velocity":53,"Duration":57959,"SoundDuration":57959,"Delta":4151784},{"NoteNumber":60,"Velocity":29,"Duration":115919,"SoundDuration":115919,"Delta":4151784},{"NoteNumber":63,"Velocity":34,"Duration":115919,"SoundDuration":115919,"Delta":4151784},{"NoteNumber":65,"Velocity":25,"Duration":115919,"SoundDuration":115919,"Delta":4267704},{"NoteNumber":94,"Velocity":46,"Duration":28979,"SoundDuration":28979,"Delta":4354644},{"NoteNumber":93,"Velocity":52,"Duration":113156,"SoundDuration":113156,"Delta":4383624},{"NoteNumber":60,"Velocity":24,"Duration":113156,"SoundDuration":113156,"Delta":4383624},{"NoteNumber":63,"Velocity":29,"Duration":113156,"SoundDuration":113156,"Delta":4383624},{"NoteNumber":91,"Velocity":51,"Duration":113156,"SoundDuration":113156,"Delta":4496780},{"NoteNumber":65,"Velocity":25,"Duration":113156,"SoundDuration":113156,"Delta":4496780},{"NoteNumber":93,"Velocity":52,"Duration":229077,"SoundDuration":229077,"Delta":4609936},{"NoteNumber":60,"Velocity":24,"Duration":114538,"SoundDuration":114538,"Delta":4609936},{"NoteNumber":63,"Velocity":29,"Duration":114538,"SoundDuration":114538,"Delta":4609936},{"NoteNumber":65,"Velocity":25,"Duration":114538,"SoundDuration":114538,"Delta":4724475},{"NoteNumber":94,"Velocity":54,"Duration":57269,"SoundDuration":57269,"Delta":4839014},{"NoteNumber":58,"Velocity":29,"Duration":114538,"SoundDuration":114538,"Delta":4839014},{"NoteNumber":62,"Velocity":34,"Duration":114538,"SoundDuration":114538,"Delta":4839014},{"NoteNumber":65,"Velocity":25,"Duration":114538,"SoundDuration":114538,"Delta":4953552},{"NoteNumber":84,"Velocity":45,"Duration":28634,"SoundDuration":28634,"Delta":5039456},{"NoteNumber":82,"Velocity":51,"Duration":113156,"SoundDuration":113156,"Delta":5068091},{"NoteNumber":58,"Velocity":24,"Duration":113156,"SoundDuration":113156,"Delta":5068091},{"NoteNumber":62,"Velocity":29,"Duration":113156,"SoundDuration":113156,"Delta":5068091},{"NoteNumber":81,"Velocity":47,"Duration":113156,"SoundDuration":113156,"Delta":5181247},{"NoteNumber":65,"Velocity":25,"Duration":113156,"SoundDuration":113156,"Delta":5181247},{"NoteNumber":82,"Velocity":51,"Duration":121045,"SoundDuration":121045,"Delta":5294403},{"NoteNumber":58,"Velocity":24,"Duration":121045,"SoundDuration":121045,"Delta":5294403},{"NoteNumber":62,"Velocity":29,"Duration":121045,"SoundDuration":121045,"Delta":5294403},{"NoteNumber":65,"Velocity":25,"Duration":121045,"SoundDuration":121045,"Delta":5415449},{"NoteNumber":70,"Velocity":34,"Duration":116369,"SoundDuration":116369,"Delta":5536495},{"NoteNumber":74,"Velocity":40,"Duration":116369,"SoundDuration":116369,"Delta":5536495},{"NoteNumber":58,"Velocity":48,"Duration":232738,"SoundDuration":232738,"Delta":5536495},{"NoteNumber":77,"Velocity":35,"Duration":116369,"SoundDuration":116369,"Delta":5652864},{"NoteNumber":70,"Velocity":34,"Duration":116369,"SoundDuration":116369,"Delta":5769233},{"NoteNumber":74,"Velocity":41,"Duration":116369,"SoundDuration":116369,"Delta":5769233},{"NoteNumber":57,"Velocity":40,"Duration":232738,"SoundDuration":232738,"Delta":5769233},{"NoteNumber":77,"Velocity":34,"Duration":116369,"SoundDuration":116369,"Delta":5885603},{"NoteNumber":74,"Velocity":41,"Duration":116369,"SoundDuration":116369,"Delta":6001972},{"NoteNumber":70,"Velocity":34,"Duration":116369,"SoundDuration":116369,"Delta":6001972},{"NoteNumber":58,"Velocity":40,"Duration":232738,"SoundDuration":232738,"Delta":6001972},{"NoteNumber":77,"Velocity":35,"Duration":116369,"SoundDuration":116369,"Delta":6118341},{"NoteNumber":70,"Velocity":35,"Duration":114068,"SoundDuration":114068,"Delta":6234710},{"NoteNumber":74,"Velocity":42,"Duration":114068,"SoundDuration":114068,"Delta":6234710},{"NoteNumber":55,"Velocity":48,"Duration":228137,"SoundDuration":228137,"Delta":6234710},{"NoteNumber":79,"Velocity":35,"Duration":114068,"SoundDuration":114068,"Delta":6348779},{"NoteNumber":70,"Velocity":34,"Duration":113156,"SoundDuration":113156,"Delta":6462847},{"NoteNumber":74,"Velocity":41,"Duration":113156,"SoundDuration":113156,"Delta":6462847},{"NoteNumber":57,"Velocity":39,"Duration":113156,"SoundDuration":113156,"Delta":6462847},{"NoteNumber":79,"Velocity":34,"Duration":113156,"SoundDuration":113156,"Delta":6576004},{"NoteNumber":58,"Velocity":39,"Duration":113156,"SoundDuration":113156,"Delta":6576004},{"NoteNumber":70,"Velocity":34,"Duration":113156,"SoundDuration":113156,"Delta":6689160},{"NoteNumber":74,"Velocity":41,"Duration":113156,"SoundDuration":113156,"Delta":6689160},{"NoteNumber":60,"Velocity":40,"Duration":113156,"SoundDuration":113156,"Delta":6689160},{"NoteNumber":79,"Velocity":34,"Duration":113156,"SoundDuration":113156,"Delta":6802316},{"NoteNumber":62,"Velocity":40,"Duration":113156,"SoundDuration":113156,"Delta":6802316},{"NoteNumber":70,"Velocity":37,"Duration":114538,"SoundDuration":114538,"Delta":6915473},{"NoteNumber":74,"Velocity":44,"Duration":114538,"SoundDuration":114538,"Delta":6915473},{"NoteNumber":58,"Velocity":46,"Duration":229077,"SoundDuration":229077,"Delta":6915473},{"NoteNumber":77,"Velocity":35,"Duration":114538,"SoundDuration":114538,"Delta":7030011},{"NoteNumber":70,"Velocity":34,"Duration":113156,"SoundDuration":113156,"Delta":7144550},{"NoteNumber":74,"Velocity":41,"Duration":113156,"SoundDuration":113156,"Delta":7144550},{"NoteNumber":60,"Velocity":44,"Duration":113156,"SoundDuration":113156,"Delta":7144550},{"NoteNumber":77,"Velocity":34,"Duration":113156,"SoundDuration":113156,"Delta":7257706},{"NoteNumber":58,"Velocity":40,"Duration":113156,"SoundDuration":113156,"Delta":7257706},{"NoteNumber":74,"Velocity":41,"Duration":113156,"SoundDuration":113156,"Delta":7370862},{"NoteNumber":70,"Velocity":34,"Duration":113156,"SoundDuration":113156,"Delta":7370862},{"NoteNumber":57,"Velocity":44,"Duration":113156,"SoundDuration":113156,"Delta":7370862},{"NoteNumber":77,"Velocity":34,"Duration":113156,"SoundDuration":113156,"Delta":7484019},{"NoteNumber":55,"Velocity":40,"Duration":113156,"SoundDuration":113156,"Delta":7484019},{"NoteNumber":75,"Velocity":47,"Duration":115937,"SoundDuration":115937,"Delta":7597175},{"NoteNumber":69,"Velocity":39,"Duration":115937,"SoundDuration":115937,"Delta":7597175},{"NoteNumber":53,"Velocity":47,"Duration":57968,"SoundDuration":57968,"Delta":7597175},{"NoteNumber":77,"Velocity":35,"Duration":115937,"SoundDuration":115937,"Delta":7713113},{"NoteNumber":75,"Velocity":41,"Duration":115937,"SoundDuration":115937,"Delta":7829050},{"NoteNumber":69,"Velocity":34,"Duration":115937,"SoundDuration":115937,"Delta":7829050},{"NoteNumber":53,"Velocity":40,"Duration":57968,"SoundDuration":57968,"Delta":7829050},{"NoteNumber":77,"Velocity":37,"Duration":115937,"SoundDuration":115937,"Delta":7944987},{"NoteNumber":75,"Velocity":41,"Duration":118194,"SoundDuration":118194,"Delta":8060925},{"NoteNumber":69,"Velocity":34,"Duration":118194,"SoundDuration":118194,"Delta":8060925},{"NoteNumber":53,"Velocity":40,"Duration":59096,"SoundDuration":59096,"Delta":8060925},{"NoteNumber":77,"Velocity":35,"Duration":118193,"SoundDuration":118193,"Delta":8179119},{"NoteNumber":69,"Velocity":38,"Duration":115919,"SoundDuration":115919,"Delta":8297313},{"NoteNumber":75,"Velocity":45,"Duration":115919,"SoundDuration":115919,"Delta":8297313},{"NoteNumber":54,"Velocity":51,"Duration":231839,"SoundDuration":231839,"Delta":8297313},{"NoteNumber":81,"Velocity":35,"Duration":115919,"SoundDuration":115919,"Delta":8413233},{"NoteNumber":69,"Velocity":34,"Duration":115919,"SoundDuration":115919,"Delta":8529153},{"NoteNumber":75,"Velocity":41,"Duration":115919,"SoundDuration":115919,"Delta":8529153},{"NoteNumber":66,"Velocity":39,"Duration":231839,"SoundDuration":231839,"Delta":8529153},{"NoteNumber":81,"Velocity":35,"Duration":115919,"SoundDuration":115919,"Delta":8645072},{"NoteNumber":69,"Velocity":34,"Duration":118652,"SoundDuration":118652,"Delta":8760992},{"NoteNumber":75,"Velocity":41,"Duration":118652,"SoundDuration":118652,"Delta":8760992},{"NoteNumber":66,"Velocity":41,"Duration":59326,"SoundDuration":59326,"Delta":8760992},{"NoteNumber":81,"Velocity":35,"Duration":118651,"SoundDuration":118651,"Delta":8879644},{"NoteNumber":75,"Velocity":44,"Duration":115919,"SoundDuration":115919,"Delta":8998296},{"NoteNumber":70,"Velocity":37,"Duration":115919,"SoundDuration":115919,"Delta":8998296},{"NoteNumber":67,"Velocity":51,"Duration":231839,"SoundDuration":231839,"Delta":8998296},{"NoteNumber":82,"Velocity":35,"Duration":115919,"SoundDuration":115919,"Delta":9114216},{"NoteNumber":70,"Velocity":34,"Duration":115919,"SoundDuration":115919,"Delta":9230136},{"NoteNumber":75,"Velocity":41,"Duration":115919,"SoundDuration":115919,"Delta":9230136},{"NoteNumber":55,"Velocity":45,"Duration":231839,"SoundDuration":231839,"Delta":9230136},{"NoteNumber":81,"Velocity":35,"Duration":115919,"SoundDuration":115919,"Delta":9346055},{"NoteNumber":70,"Velocity":34,"Duration":115919,"SoundDuration":115919,"Delta":9461975},{"NoteNumber":75,"Velocity":41,"Duration":115919,"SoundDuration":115919,"Delta":9461975},{"NoteNumber":55,"Velocity":46,"Duration":57959,"SoundDuration":57959,"Delta":9461975},{"NoteNumber":79,"Velocity":35,"Duration":115919,"SoundDuration":115919,"Delta":9577895},{"NoteNumber":68,"Velocity":34,"Duration":115919,"SoundDuration":115919,"Delta":9693815},{"NoteNumber":74,"Velocity":41,"Duration":115919,"SoundDuration":115919,"Delta":9693815},{"NoteNumber":58,"Velocity":51,"Duration":57959,"SoundDuration":57959,"Delta":9693815},{"NoteNumber":77,"Velocity":35,"Duration":115919,"SoundDuration":115919,"Delta":9809734},{"NoteNumber":48,"Velocity":39,"Duration":76819,"SoundDuration":76819,"Delta":9867694},{"NoteNumber":68,"Velocity":34,"Duration":113156,"SoundDuration":113156,"Delta":9925654},{"NoteNumber":74,"Velocity":41,"Duration":113156,"SoundDuration":113156,"Delta":9925654},{"NoteNumber":46,"Velocity":46,"Duration":132015,"SoundDuration":132015,"Delta":9925654},{"NoteNumber":77,"Velocity":35,"Duration":113156,"SoundDuration":113156,"Delta":10038810},{"NoteNumber":45,"Velocity":42,"Duration":133651,"SoundDuration":133651,"Delta":10038810},{"NoteNumber":74,"Velocity":41,"Duration":122970,"SoundDuration":122970,"Delta":10151967},{"NoteNumber":68,"Velocity":34,"Duration":122970,"SoundDuration":122970,"Delta":10151967},{"NoteNumber":46,"Velocity":45,"Duration":245941,"SoundDuration":245941,"Delta":10151967},{"NoteNumber":77,"Velocity":35,"Duration":122970,"SoundDuration":122970,"Delta":10274938},{"NoteNumber":75,"Velocity":41,"Duration":115446,"SoundDuration":115446,"Delta":10397909},{"NoteNumber":67,"Velocity":34,"Duration":115446,"SoundDuration":115446,"Delta":10397909},{"NoteNumber":51,"Velocity":42,"Duration":57723,"SoundDuration":57723,"Delta":10397909},{"NoteNumber":79,"Velocity":35,"Duration":115446,"SoundDuration":115446,"Delta":10513355},{"NoteNumber":41,"Velocity":37,"Duration":76582,"SoundDuration":76582,"Delta":10571079},{"NoteNumber":75,"Velocity":41,"Duration":113156,"SoundDuration":113156,"Delta":10628802},{"NoteNumber":67,"Velocity":34,"Duration":113156,"SoundDuration":113156,"Delta":10628802},{"NoteNumber":39,"Velocity":42,"Duration":132015,"SoundDuration":132015,"Delta":10628802},{"NoteNumber":79,"Velocity":35,"Duration":113156,"SoundDuration":113156,"Delta":10741958},{"NoteNumber":38,"Velocity":39,"Duration":133455,"SoundDuration":133455,"Delta":10741958},{"NoteNumber":75,"Velocity":41,"Duration":121792,"SoundDuration":121792,"Delta":10855115},{"NoteNumber":67,"Velocity":34,"Duration":121792,"SoundDuration":121792,"Delta":10855115},{"NoteNumber":39,"Velocity":42,"Duration":121792,"SoundDuration":121792,"Delta":10855115},{"NoteNumber":82,"Velocity":56,"Duration":61505,"SoundDuration":61505,"Delta":11098700},{"NoteNumber":63,"Velocity":29,"Duration":123011,"SoundDuration":123011,"Delta":11098700},{"NoteNumber":67,"Velocity":34,"Duration":123011,"SoundDuration":123011,"Delta":11098700},{"NoteNumber":70,"Velocity":28,"Duration":123011,"SoundDuration":123011,"Delta":11221711},{"NoteNumber":80,"Velocity":50,"Duration":61505,"SoundDuration":61505,"Delta":11283217},{"NoteNumber":79,"Velocity":56,"Duration":113238,"SoundDuration":113238,"Delta":11344723},{"NoteNumber":63,"Velocity":26,"Duration":113238,"SoundDuration":113238,"Delta":11344723},{"NoteNumber":67,"Velocity":32,"Duration":113238,"SoundDuration":113238,"Delta":11344723},{"NoteNumber":77,"Velocity":52,"Duration":113156,"SoundDuration":113156,"Delta":11457961},{"NoteNumber":70,"Velocity":28,"Duration":113156,"SoundDuration":113156,"Delta":11457961},{"NoteNumber":79,"Velocity":56,"Duration":229065,"SoundDuration":229065,"Delta":11571117},{"NoteNumber":63,"Velocity":26,"Duration":114527,"SoundDuration":114527,"Delta":11571117},{"NoteNumber":67,"Velocity":32,"Duration":114527,"SoundDuration":114527,"Delta":11571117},{"NoteNumber":70,"Velocity":28,"Duration":114538,"SoundDuration":114538,"Delta":11685644},{"NoteNumber":82,"Velocity":56,"Duration":60274,"SoundDuration":60274,"Delta":11800183},{"NoteNumber":62,"Velocity":26,"Duration":120549,"SoundDuration":120549,"Delta":11800183},{"NoteNumber":65,"Velocity":32,"Duration":120549,"SoundDuration":120549,"Delta":11800183},{"NoteNumber":70,"Velocity":28,"Duration":120549,"SoundDuration":120549,"Delta":11920733},{"NoteNumber":79,"Velocity":49,"Duration":60274,"SoundDuration":60274,"Delta":11981008},{"NoteNumber":77,"Velocity":56,"Duration":113217,"SoundDuration":113217,"Delta":12041283},{"NoteNumber":62,"Velocity":26,"Duration":113217,"SoundDuration":113217,"Delta":12041283},{"NoteNumber":65,"Velocity":32,"Duration":113217,"SoundDuration":113217,"Delta":12041283},{"NoteNumber":76,"Velocity":52,"Duration":113156,"SoundDuration":113156,"Delta":12154500},{"NoteNumber":70,"Velocity":28,"Duration":113156,"SoundDuration":113156,"Delta":12154500},{"NoteNumber":77,"Velocity":56,"Duration":233553,"SoundDuration":233553,"Delta":12267657},{"NoteNumber":61,"Velocity":26,"Duration":116777,"SoundDuration":116777,"Delta":12267657},{"NoteNumber":65,"Velocity":32,"Duration":116777,"SoundDuration":116777,"Delta":12267657},{"NoteNumber":70,"Velocity":28,"Duration":116776,"SoundDuration":116776,"Delta":12384434},{"NoteNumber":84,"Velocity":58,"Duration":241099,"SoundDuration":241099,"Delta":12501211},{"NoteNumber":60,"Velocity":26,"Duration":120549,"SoundDuration":120549,"Delta":12501211},{"NoteNumber":65,"Velocity":32,"Duration":120549,"SoundDuration":120549,"Delta":12501211},{"NoteNumber":68,"Velocity":28,"Duration":120549,"SoundDuration":120549,"Delta":12621760},{"NoteNumber":82,"Velocity":59,"Duration":113217,"SoundDuration":113217,"Delta":12742310},{"NoteNumber":60,"Velocity":26,"Duration":113217,"SoundDuration":113217,"Delta":12742310},{"NoteNumber":65,"Velocity":32,"Duration":113217,"SoundDuration":113217,"Delta":12742310},{"NoteNumber":80,"Velocity":54,"Duration":113156,"SoundDuration":113156,"Delta":12855528},{"NoteNumber":68,"Velocity":28,"Duration":113156,"SoundDuration":113156,"Delta":12855528},{"NoteNumber":79,"Velocity":58,"Duration":119741,"SoundDuration":119741,"Delta":12968684},{"NoteNumber":60,"Velocity":26,"Duration":119741,"SoundDuration":119741,"Delta":12968684},{"NoteNumber":65,"Velocity":32,"Duration":119741,"SoundDuration":119741,"Delta":12968684},{"NoteNumber":77,"Velocity":58,"Duration":119741,"SoundDuration":119741,"Delta":13088426},{"NoteNumber":68,"Velocity":28,"Duration":119741,"SoundDuration":119741,"Delta":13088426},{"NoteNumber":84,"Velocity":58,"Duration":245699,"SoundDuration":245699,"Delta":13208167},{"NoteNumber":60,"Velocity":26,"Duration":122849,"SoundDuration":122849,"Delta":13208167},{"NoteNumber":65,"Velocity":32,"Duration":122849,"SoundDuration":122849,"Delta":13208167},{"NoteNumber":67,"Velocity":28,"Duration":122849,"SoundDuration":122849,"Delta":13331017},{"NoteNumber":72,"Velocity":56,"Duration":236480,"SoundDuration":236480,"Delta":13453867},{"NoteNumber":60,"Velocity":26,"Duration":118240,"SoundDuration":118240,"Delta":13453867},{"NoteNumber":64,"Velocity":32,"Duration":118240,"SoundDuration":118240,"Delta":13453867},{"NoteNumber":67,"Velocity":28,"Duration":118240,"SoundDuration":118240,"Delta":13572107},{"NoteNumber":72,"Velocity":56,"Duration":236481,"SoundDuration":236481,"Delta":13690348},{"NoteNumber":60,"Velocity":26,"Duration":118240,"SoundDuration":118240,"Delta":13690348},{"NoteNumber":64,"Velocity":32,"Duration":118240,"SoundDuration":118240,"Delta":13690348},{"NoteNumber":67,"Velocity":30,"Duration":118240,"SoundDuration":118240,"Delta":13808588},{"NoteNumber":68,"Velocity":37,"Duration":120240,"SoundDuration":120240,"Delta":13926829},{"NoteNumber":72,"Velocity":44,"Duration":120240,"SoundDuration":120240,"Delta":13926829},{"NoteNumber":56,"Velocity":37,"Duration":721660,"SoundDuration":721660,"Delta":13926829},{"NoteNumber":60,"Velocity":44,"Duration":240481,"SoundDuration":240481,"Delta":13926829},{"NoteNumber":75,"Velocity":39,"Duration":120240,"SoundDuration":120240,"Delta":14047069},{"NoteNumber":68,"Velocity":38,"Duration":119741,"SoundDuration":119741,"Delta":14167310},{"NoteNumber":72,"Velocity":45,"Duration":119741,"SoundDuration":119741,"Delta":14167310},{"NoteNumber":61,"Velocity":40,"Duration":239482,"SoundDuration":239482,"Delta":14167310},{"NoteNumber":75,"Velocity":38,"Duration":119741,"SoundDuration":119741,"Delta":14287051},{"NoteNumber":68,"Velocity":38,"Duration":121271,"SoundDuration":121271,"Delta":14406792},{"NoteNumber":72,"Velocity":45,"Duration":121271,"SoundDuration":121271,"Delta":14406792},{"NoteNumber":60,"Velocity":40,"Duration":241697,"SoundDuration":241697,"Delta":14406792},{"NoteNumber":75,"Velocity":39,"Duration":120426,"SoundDuration":120426,"Delta":14528063},{"NoteNumber":68,"Velocity":37,"Duration":120240,"SoundDuration":120240,"Delta":14648490},{"NoteNumber":77,"Velocity":44,"Duration":120240,"SoundDuration":120240,"Delta":14648490},{"NoteNumber":49,"Velocity":37,"Duration":717444,"SoundDuration":717444,"Delta":14648490},{"NoteNumber":58,"Velocity":44,"Duration":240481,"SoundDuration":240481,"Delta":14648490},{"NoteNumber":80,"Velocity":39,"Duration":120240,"SoundDuration":120240,"Delta":14768730},{"NoteNumber":68,"Velocity":39,"Duration":118736,"SoundDuration":118736,"Delta":14888971},{"NoteNumber":77,"Velocity":47,"Duration":118736,"SoundDuration":118736,"Delta":14888971},{"NoteNumber":53,"Velocity":42,"Duration":237473,"SoundDuration":237473,"Delta":14888971},{"NoteNumber":80,"Velocity":39,"Duration":118736,"SoundDuration":118736,"Delta":15007707},{"NoteNumber":68,"Velocity":41,"Duration":118736,"SoundDuration":118736,"Delta":15126444},{"NoteNumber":77,"Velocity":49,"Duration":118736,"SoundDuration":118736,"Delta":15126444},{"NoteNumber":55,"Velocity":44,"Duration":239490,"SoundDuration":239490,"Delta":15126444},{"NoteNumber":80,"Velocity":43,"Duration":120753,"SoundDuration":120753,"Delta":15245181},{"NoteNumber":58,"Velocity":44,"Duration":60376,"SoundDuration":60376,"Delta":15305558},{"NoteNumber":68,"Velocity":37,"Duration":118652,"SoundDuration":118652,"Delta":15365934},{"NoteNumber":72,"Velocity":44,"Duration":118652,"SoundDuration":118652,"Delta":15365934},{"NoteNumber":51,"Velocity":37,"Duration":1442963,"SoundDuration":1442963,"Delta":15365934},{"NoteNumber":56,"Velocity":44,"Duration":237303,"SoundDuration":237303,"Delta":15365934},{"NoteNumber":75,"Velocity":38,"Duration":118651,"SoundDuration":118651,"Delta":15484586},{"NoteNumber":68,"Velocity":35,"Duration":118652,"SoundDuration":118652,"Delta":15603238},{"NoteNumber":72,"Velocity":42,"Duration":118652,"SoundDuration":118652,"Delta":15603238},{"NoteNumber":55,"Velocity":38,"Duration":237303,"SoundDuration":237303,"Delta":15603238},{"NoteNumber":75,"Velocity":34,"Duration":118651,"SoundDuration":118651,"Delta":15721890},{"NoteNumber":68,"Velocity":34,"Duration":121792,"SoundDuration":121792,"Delta":15840542},{"NoteNumber":72,"Velocity":40,"Duration":121792,"SoundDuration":121792,"Delta":15840542},{"NoteNumber":56,"Velocity":35,"Duration":243585,"SoundDuration":243585,"Delta":15840542},{"NoteNumber":75,"Velocity":33,"Duration":121792,"SoundDuration":121792,"Delta":15962335},{"NoteNumber":67,"Velocity":31,"Duration":119236,"SoundDuration":119236,"Delta":16084128},{"NoteNumber":73,"Velocity":37,"Duration":119236,"SoundDuration":119236,"Delta":16084128},{"NoteNumber":58,"Velocity":37,"Duration":480654,"SoundDuration":480654,"Delta":16084128},{"NoteNumber":75,"Velocity":32,"Duration":119907,"SoundDuration":119907,"Delta":16203365},{"NoteNumber":67,"Velocity":31,"Duration":120411,"SoundDuration":120411,"Delta":16323272},{"NoteNumber":73,"Velocity":38,"Duration":120411,"SoundDuration":120411,"Delta":16323272},{"NoteNumber":75,"Velocity":31,"Duration":121098,"SoundDuration":121098,"Delta":16443684},{"NoteNumber":67,"Velocity":31,"Duration":121618,"SoundDuration":121618,"Delta":16564782},{"NoteNumber":73,"Velocity":38,"Duration":121618,"SoundDuration":121618,"Delta":16564782},{"NoteNumber":59,"Velocity":34,"Duration":244115,"SoundDuration":244115,"Delta":16564782},{"NoteNumber":75,"Velocity":32,"Duration":122496,"SoundDuration":122496,"Delta":16686401},{"NoteNumber":68,"Velocity":47,"Duration":61505,"SoundDuration":61505,"Delta":16808897},{"NoteNumber":72,"Velocity":47,"Duration":61505,"SoundDuration":61505,"Delta":16808897},{"NoteNumber":75,"Velocity":56,"Duration":61505,"SoundDuration":61505,"Delta":16808897},{"NoteNumber":56,"Velocity":29,"Duration":123011,"SoundDuration":123011,"Delta":16808897},{"NoteNumber":60,"Velocity":34,"Duration":123011,"SoundDuration":123011,"Delta":16808897},{"NoteNumber":63,"Velocity":28,"Duration":123011,"SoundDuration":123011,"Delta":16931909},{"NoteNumber":73,"Velocity":48,"Duration":61505,"SoundDuration":61505,"Delta":16993414},{"NoteNumber":72,"Velocity":56,"Duration":113238,"SoundDuration":113238,"Delta":17054920},{"NoteNumber":56,"Velocity":26,"Duration":113238,"SoundDuration":113238,"Delta":17054920},{"NoteNumber":60,"Velocity":32,"Duration":113238,"SoundDuration":113238,"Delta":17054920},{"NoteNumber":70,"Velocity":52,"Duration":113156,"SoundDuration":113156,"Delta":17168158},{"NoteNumber":63,"Velocity":28,"Duration":113156,"SoundDuration":113156,"Delta":17168158},{"NoteNumber":72,"Velocity":56,"Duration":229065,"SoundDuration":229065,"Delta":17281315},{"NoteNumber":56,"Velocity":26,"Duration":114527,"SoundDuration":114527,"Delta":17281315},{"NoteNumber":60,"Velocity":32,"Duration":114527,"SoundDuration":114527,"Delta":17281315},{"NoteNumber":63,"Velocity":28,"Duration":114538,"SoundDuration":114538,"Delta":17395842},{"NoteNumber":75,"Velocity":56,"Duration":60274,"SoundDuration":60274,"Delta":17510381},{"NoteNumber":55,"Velocity":26,"Duration":120549,"SoundDuration":120549,"Delta":17510381},{"NoteNumber":58,"Velocity":32,"Duration":120549,"SoundDuration":120549,"Delta":17510381},{"NoteNumber":63,"Velocity":28,"Duration":120549,"SoundDuration":120549,"Delta":17630930},{"NoteNumber":72,"Velocity":48,"Duration":60274,"SoundDuration":60274,"Delta":17691205},{"NoteNumber":70,"Velocity":56,"Duration":113217,"SoundDuration":113217,"Delta":17751480},{"NoteNumber":55,"Velocity":26,"Duration":113217,"SoundDuration":113217,"Delta":17751480},{"NoteNumber":58,"Velocity":32,"Duration":113217,"SoundDuration":113217,"Delta":17751480},{"NoteNumber":69,"Velocity":52,"Duration":113156,"SoundDuration":113156,"Delta":17864698},{"NoteNumber":63,"Velocity":28,"Duration":113156,"SoundDuration":113156,"Delta":17864698},{"NoteNumber":70,"Velocity":56,"Duration":233554,"SoundDuration":233554,"Delta":17977854},{"NoteNumber":54,"Velocity":26,"Duration":116776,"SoundDuration":116776,"Delta":17977854},{"NoteNumber":58,"Velocity":32,"Duration":116776,"SoundDuration":116776,"Delta":17977854},{"NoteNumber":63,"Velocity":28,"Duration":116777,"SoundDuration":116777,"Delta":18094631},{"NoteNumber":77,"Velocity":58,"Duration":241099,"SoundDuration":241099,"Delta":18211408},{"NoteNumber":53,"Velocity":26,"Duration":120549,"SoundDuration":120549,"Delta":18211408},{"NoteNumber":58,"Velocity":32,"Duration":120549,"SoundDuration":120549,"Delta":18211408},{"NoteNumber":61,"Velocity":28,"Duration":120549,"SoundDuration":120549,"Delta":18331958},{"NoteNumber":75,"Velocity":59,"Duration":113217,"SoundDuration":113217,"Delta":18452508},{"NoteNumber":53,"Velocity":26,"Duration":113217,"SoundDuration":113217,"Delta":18452508},{"NoteNumber":58,"Velocity":32,"Duration":113217,"SoundDuration":113217,"Delta":18452508},{"NoteNumber":73,"Velocity":54,"Duration":113156,"SoundDuration":113156,"Delta":18565726},{"NoteNumber":61,"Velocity":28,"Duration":113156,"SoundDuration":113156,"Delta":18565726},{"NoteNumber":72,"Velocity":58,"Duration":119236,"SoundDuration":119236,"Delta":18678882},{"NoteNumber":53,"Velocity":26,"Duration":119236,"SoundDuration":119236,"Delta":18678882},{"NoteNumber":58,"Velocity":32,"Duration":119236,"SoundDuration":119236,"Delta":18678882},{"NoteNumber":70,"Velocity":58,"Duration":119237,"SoundDuration":119237,"Delta":18798119},{"NoteNumber":61,"Velocity":28,"Duration":119237,"SoundDuration":119237,"Delta":18798119},{"NoteNumber":77,"Velocity":58,"Duration":243585,"SoundDuration":243585,"Delta":18917356},{"NoteNumber":53,"Velocity":26,"Duration":121792,"SoundDuration":121792,"Delta":18917356},{"NoteNumber":58,"Velocity":32,"Duration":121792,"SoundDuration":121792,"Delta":18917356},{"NoteNumber":60,"Velocity":28,"Duration":121792,"SoundDuration":121792,"Delta":19039149},{"NoteNumber":65,"Velocity":56,"Duration":237473,"SoundDuration":237473,"Delta":19160941},{"NoteNumber":53,"Velocity":26,"Duration":118736,"SoundDuration":118736,"Delta":19160941},{"NoteNumber":57,"Velocity":32,"Duration":118736,"SoundDuration":118736,"Delta":19160941},{"NoteNumber":60,"Velocity":28,"Duration":118736,"SoundDuration":118736,"Delta":19279678},{"NoteNumber":65,"Velocity":56,"Duration":237473,"SoundDuration":237473,"Delta":19398415},{"NoteNumber":53,"Velocity":26,"Duration":118736,"SoundDuration":118736,"Delta":19398415},{"NoteNumber":57,"Velocity":32,"Duration":118736,"SoundDuration":118736,"Delta":19398415},{"NoteNumber":60,"Velocity":30,"Duration":118736,"SoundDuration":118736,"Delta":19517152},{"NoteNumber":73,"Velocity":37,"Duration":120240,"SoundDuration":120240,"Delta":19635888},{"NoteNumber":77,"Velocity":44,"Duration":120240,"SoundDuration":120240,"Delta":19635888},{"NoteNumber":61,"Velocity":37,"Duration":718270,"SoundDuration":718270,"Delta":19635888},{"NoteNumber":65,"Velocity":44,"Duration":240480,"SoundDuration":240480,"Delta":19635888},{"NoteNumber":80,"Velocity":39,"Duration":120240,"SoundDuration":120240,"Delta":19756129},{"NoteNumber":73,"Velocity":38,"Duration":119741,"SoundDuration":119741,"Delta":19876369},{"NoteNumber":77,"Velocity":45,"Duration":119741,"SoundDuration":119741,"Delta":19876369},{"NoteNumber":66,"Velocity":40,"Duration":239482,"SoundDuration":239482,"Delta":19876369},{"NoteNumber":80,"Velocity":38,"Duration":119741,"SoundDuration":119741,"Delta":19996111},{"NoteNumber":73,"Velocity":38,"Duration":119236,"SoundDuration":119236,"Delta":20115852},{"NoteNumber":77,"Velocity":45,"Duration":119236,"SoundDuration":119236,"Delta":20115852},{"NoteNumber":65,"Velocity":40,"Duration":238307,"SoundDuration":238307,"Delta":20115852},{"NoteNumber":80,"Velocity":39,"Duration":119070,"SoundDuration":119070,"Delta":20235089},{"NoteNumber":73,"Velocity":37,"Duration":121271,"SoundDuration":121271,"Delta":20354159},{"NoteNumber":82,"Velocity":44,"Duration":121271,"SoundDuration":121271,"Delta":20354159},{"NoteNumber":54,"Velocity":37,"Duration":718016,"SoundDuration":718016,"Delta":20354159},{"NoteNumber":63,"Velocity":44,"Duration":242542,"SoundDuration":242542,"Delta":20354159},{"NoteNumber":85,"Velocity":39,"Duration":121271,"SoundDuration":121271,"Delta":20475430},{"NoteNumber":73,"Velocity":39,"Duration":118240,"SoundDuration":118240,"Delta":20596701},{"NoteNumber":82,"Velocity":47,"Duration":118240,"SoundDuration":118240,"Delta":20596701},{"NoteNumber":58,"Velocity":42,"Duration":236481,"SoundDuration":236481,"Delta":20596701},{"NoteNumber":85,"Velocity":39,"Duration":118240,"SoundDuration":118240,"Delta":20714942},{"NoteNumber":73,"Velocity":41,"Duration":118240,"SoundDuration":118240,"Delta":20833182},{"NoteNumber":82,"Velocity":49,"Duration":118240,"SoundDuration":118240,"Delta":20833182},{"NoteNumber":60,"Velocity":44,"Duration":238993,"SoundDuration":238993,"Delta":20833182},{"NoteNumber":85,"Velocity":43,"Duration":120753,"SoundDuration":120753,"Delta":20951423},{"NoteNumber":63,"Velocity":41,"Duration":60376,"SoundDuration":60376,"Delta":21011799},{"NoteNumber":73,"Velocity":37,"Duration":118652,"SoundDuration":118652,"Delta":21072176},{"NoteNumber":77,"Velocity":44,"Duration":118652,"SoundDuration":118652,"Delta":21072176},{"NoteNumber":56,"Velocity":37,"Duration":1429442,"SoundDuration":1429442,"Delta":21072176},{"NoteNumber":61,"Velocity":44,"Duration":237304,"SoundDuration":237304,"Delta":21072176},{"NoteNumber":80,"Velocity":38,"Duration":118652,"SoundDuration":118652,"Delta":21190828},{"NoteNumber":73,"Velocity":35,"Duration":118651,"SoundDuration":118651,"Delta":21309480},{"NoteNumber":77,"Velocity":42,"Duration":118651,"SoundDuration":118651,"Delta":21309480},{"NoteNumber":60,"Velocity":38,"Duration":237303,"SoundDuration":237303,"Delta":21309480},{"NoteNumber":80,"Velocity":34,"Duration":118652,"SoundDuration":118652,"Delta":21428132},{"NoteNumber":73,"Velocity":34,"Duration":118652,"SoundDuration":118652,"Delta":21546784},{"NoteNumber":77,"Velocity":40,"Duration":118652,"SoundDuration":118652,"Delta":21546784},{"NoteNumber":61,"Velocity":35,"Duration":237304,"SoundDuration":237304,"Delta":21546784},{"NoteNumber":80,"Velocity":33,"Duration":118652,"SoundDuration":118652,"Delta":21665436},{"NoteNumber":72,"Velocity":31,"Duration":118232,"SoundDuration":118232,"Delta":21784088},{"NoteNumber":78,"Velocity":37,"Duration":118232,"SoundDuration":118232,"Delta":21784088},{"NoteNumber":63,"Velocity":37,"Duration":476169,"SoundDuration":476169,"Delta":21784088},{"NoteNumber":80,"Velocity":32,"Duration":118772,"SoundDuration":118772,"Delta":21902320},{"NoteNumber":72,"Velocity":31,"Duration":119322,"SoundDuration":119322,"Delta":22021092},{"NoteNumber":78,"Velocity":38,"Duration":119322,"SoundDuration":119322,"Delta":22021092},{"NoteNumber":80,"Velocity":31,"Duration":119842,"SoundDuration":119842,"Delta":22140415},{"NoteNumber":72,"Velocity":31,"Duration":120398,"SoundDuration":120398,"Delta":22260257},{"NoteNumber":78,"Velocity":38,"Duration":120398,"SoundDuration":120398,"Delta":22260257},{"NoteNumber":64,"Velocity":34,"Duration":241361,"SoundDuration":241361,"Delta":22260257},{"NoteNumber":80,"Velocity":32,"Duration":120963,"SoundDuration":120963,"Delta":22380656},{"NoteNumber":73,"Velocity":31,"Duration":242091,"SoundDuration":242091,"Delta":22501619},{"NoteNumber":77,"Velocity":31,"Duration":242091,"SoundDuration":242091,"Delta":22501619},{"NoteNumber":80,"Velocity":37,"Duration":242091,"SoundDuration":242091,"Delta":22501619},{"NoteNumber":61,"Velocity":29,"Duration":60522,"SoundDuration":60522,"Delta":22501619},{"NoteNumber":65,"Velocity":34,"Duration":60522,"SoundDuration":60522,"Delta":22501619},{"NoteNumber":49,"Velocity":28,"Duration":61159,"SoundDuration":61159,"Delta":22743710},{"NoteNumber":49,"Velocity":28,"Duration":63062,"SoundDuration":63062,"Delta":22988349},{"NoteNumber":61,"Velocity":26,"Duration":60376,"SoundDuration":60376,"Delta":23240598},{"NoteNumber":65,"Velocity":32,"Duration":60376,"SoundDuration":60376,"Delta":23243617},{"NoteNumber":49,"Velocity":28,"Duration":61424,"SoundDuration":61424,"Delta":23482105},{"NoteNumber":49,"Velocity":28,"Duration":62782,"SoundDuration":62782,"Delta":23727805},{"NoteNumber":73,"Velocity":40,"Duration":179559,"SoundDuration":179559,"Delta":23916152},{"NoteNumber":77,"Velocity":40,"Duration":148168,"SoundDuration":148168,"Delta":23947544},{"NoteNumber":80,"Velocity":51,"Duration":116776,"SoundDuration":116776,"Delta":23978935},{"NoteNumber":61,"Velocity":28,"Duration":58388,"SoundDuration":58388,"Delta":23978935},{"NoteNumber":65,"Velocity":33,"Duration":58388,"SoundDuration":58388,"Delta":23978935},{"NoteNumber":78,"Velocity":40,"Duration":115358,"SoundDuration":115358,"Delta":24212489},{"NoteNumber":49,"Velocity":28,"Duration":57679,"SoundDuration":57679,"Delta":24212489},{"NoteNumber":77,"Velocity":40,"Duration":115358,"SoundDuration":115358,"Delta":24327847},{"NoteNumber":75,"Velocity":40,"Duration":120753,"SoundDuration":120753,"Delta":24443205},{"NoteNumber":49,"Velocity":28,"Duration":60376,"SoundDuration":60376,"Delta":24443205},{"NoteNumber":73,"Velocity":40,"Duration":120753,"SoundDuration":120753,"Delta":24563958},{"NoteNumber":68,"Velocity":40,"Duration":176682,"SoundDuration":176682,"Delta":24624335},{"NoteNumber":72,"Velocity":40,"Duration":146494,"SoundDuration":146494,"Delta":24654524},{"NoteNumber":75,"Velocity":49,"Duration":116306,"SoundDuration":116306,"Delta":24684712},{"NoteNumber":61,"Velocity":28,"Duration":58153,"SoundDuration":58153,"Delta":24684712},{"NoteNumber":66,"Velocity":34,"Duration":58153,"SoundDuration":58153,"Delta":24684712},{"NoteNumber":73,"Velocity":40,"Duration":115358,"SoundDuration":115358,"Delta":24917324},{"NoteNumber":49,"Velocity":28,"Duration":57679,"SoundDuration":57679,"Delta":24917324},{"NoteNumber":72,"Velocity":40,"Duration":115358,"SoundDuration":115358,"Delta":25032682},{"NoteNumber":70,"Velocity":40,"Duration":119741,"SoundDuration":119741,"Delta":25148040},{"NoteNumber":49,"Velocity":28,"Duration":59870,"SoundDuration":59870,"Delta":25148040},{"NoteNumber":68,"Velocity":40,"Duration":119741,"SoundDuration":119741,"Delta":25267781},{"NoteNumber":73,"Velocity":40,"Duration":181663,"SoundDuration":181663,"Delta":25327652},{"NoteNumber":77,"Velocity":40,"Duration":151728,"SoundDuration":151728,"Delta":25357587},{"NoteNumber":80,"Velocity":53,"Duration":121792,"SoundDuration":121792,"Delta":25387522},{"NoteNumber":61,"Velocity":28,"Duration":60896,"SoundDuration":60896,"Delta":25387522},{"NoteNumber":65,"Velocity":33,"Duration":60896,"SoundDuration":60896,"Delta":25387522},{"NoteNumber":78,"Velocity":42,"Duration":115358,"SoundDuration":115358,"Delta":25631108},{"NoteNumber":49,"Velocity":28,"Duration":57679,"SoundDuration":57679,"Delta":25631108},{"NoteNumber":77,"Velocity":45,"Duration":115358,"SoundDuration":115358,"Delta":25746466},{"NoteNumber":75,"Velocity":47,"Duration":115358,"SoundDuration":115358,"Delta":25861824},{"NoteNumber":49,"Velocity":33,"Duration":57679,"SoundDuration":57679,"Delta":25861824},{"NoteNumber":73,"Velocity":51,"Duration":115357,"SoundDuration":115357,"Delta":25977182},{"NoteNumber":85,"Velocity":57,"Duration":59870,"SoundDuration":59870,"Delta":26092540},{"NoteNumber":82,"Velocity":57,"Duration":59870,"SoundDuration":59870,"Delta":26092540},{"NoteNumber":78,"Velocity":57,"Duration":59870,"SoundDuration":59870,"Delta":26092540},{"NoteNumber":61,"Velocity":31,"Duration":59870,"SoundDuration":59870,"Delta":26092540},{"NoteNumber":66,"Velocity":38,"Duration":59870,"SoundDuration":59870,"Delta":26092540},{"NoteNumber":78,"Velocity":51,"Duration":60635,"SoundDuration":60635,"Delta":26333030},{"NoteNumber":82,"Velocity":51,"Duration":60635,"SoundDuration":60635,"Delta":26333030},{"NoteNumber":85,"Velocity":51,"Duration":60635,"SoundDuration":60635,"Delta":26333030},{"NoteNumber":49,"Velocity":28,"Duration":60635,"SoundDuration":60635,"Delta":26333030},{"NoteNumber":78,"Velocity":51,"Duration":61424,"SoundDuration":61424,"Delta":26576619},{"NoteNumber":82,"Velocity":51,"Duration":61424,"SoundDuration":61424,"Delta":26576619},{"NoteNumber":85,"Velocity":51,"Duration":61424,"SoundDuration":61424,"Delta":26576619},{"NoteNumber":49,"Velocity":28,"Duration":61424,"SoundDuration":61424,"Delta":26576619},{"NoteNumber":58,"Velocity":28,"Duration":58388,"SoundDuration":58388,"Delta":26822319},{"NoteNumber":61,"Velocity":28,"Duration":58388,"SoundDuration":58388,"Delta":26822319},{"NoteNumber":66,"Velocity":33,"Duration":58388,"SoundDuration":58388,"Delta":26822319},{"NoteNumber":49,"Velocity":25,"Duration":59870,"SoundDuration":59870,"Delta":27055873},{"NoteNumber":49,"Velocity":25,"Duration":61159,"SoundDuration":61159,"Delta":27295355},{"NoteNumber":58,"Velocity":25,"Duration":58153,"SoundDuration":58153,"Delta":27539994},{"NoteNumber":61,"Velocity":25,"Duration":58153,"SoundDuration":58153,"Delta":27539994},{"NoteNumber":66,"Velocity":30,"Duration":58153,"SoundDuration":58153,"Delta":27539994},{"NoteNumber":49,"Velocity":25,"Duration":59870,"SoundDuration":59870,"Delta":27772606},{"NoteNumber":49,"Velocity":25,"Duration":60388,"SoundDuration":60388,"Delta":28012088},{"NoteNumber":65,"Velocity":49,"Duration":233767,"SoundDuration":233767,"Delta":28256752},{"NoteNumber":56,"Velocity":24,"Duration":59870,"SoundDuration":59870,"Delta":28256752},{"NoteNumber":61,"Velocity":29,"Duration":59870,"SoundDuration":59870,"Delta":28256752},{"NoteNumber":68,"Velocity":32,"Duration":54155,"SoundDuration":54155,"Delta":28436364},{"NoteNumber":66,"Velocity":41,"Duration":236481,"SoundDuration":236481,"Delta":28490519},{"NoteNumber":49,"Velocity":24,"Duration":59120,"SoundDuration":59120,"Delta":28490519},{"NoteNumber":65,"Velocity":41,"Duration":236480,"SoundDuration":236480,"Delta":28727000},{"NoteNumber":49,"Velocity":24,"Duration":59120,"SoundDuration":59120,"Delta":28727000},{"NoteNumber":63,"Velocity":48,"Duration":233554,"SoundDuration":233554,"Delta":28963481},{"NoteNumber":54,"Velocity":25,"Duration":58388,"SoundDuration":58388,"Delta":28963481},{"NoteNumber":58,"Velocity":30,"Duration":58388,"SoundDuration":58388,"Delta":28963481},{"NoteNumber":65,"Velocity":41,"Duration":114425,"SoundDuration":114425,"Delta":29197035},{"NoteNumber":42,"Velocity":24,"Duration":57212,"SoundDuration":57212,"Delta":29197035},{"NoteNumber":66,"Velocity":41,"Duration":114118,"SoundDuration":114118,"Delta":29311461},{"NoteNumber":68,"Velocity":43,"Duration":113812,"SoundDuration":113812,"Delta":29425579},{"NoteNumber":42,"Velocity":24,"Duration":56982,"SoundDuration":56982,"Delta":29425579},{"NoteNumber":70,"Velocity":44,"Duration":113356,"SoundDuration":113356,"Delta":29539391},{"NoteNumber":72,"Velocity":52,"Duration":232611,"SoundDuration":232611,"Delta":29652747},{"NoteNumber":63,"Velocity":24,"Duration":58153,"SoundDuration":58153,"Delta":29652747},{"NoteNumber":66,"Velocity":29,"Duration":58153,"SoundDuration":58153,"Delta":29652747},{"NoteNumber":70,"Velocity":50,"Duration":114425,"SoundDuration":114425,"Delta":29885359},{"NoteNumber":56,"Velocity":24,"Duration":57212,"SoundDuration":57212,"Delta":29885359},{"NoteNumber":72,"Velocity":46,"Duration":114425,"SoundDuration":114425,"Delta":29999784},{"NoteNumber":73,"Velocity":48,"Duration":114425,"SoundDuration":114425,"Delta":30114210},{"NoteNumber":56,"Velocity":24,"Duration":57212,"SoundDuration":57212,"Delta":30114210},{"NoteNumber":75,"Velocity":50,"Duration":114425,"SoundDuration":114425,"Delta":30228635},{"NoteNumber":77,"Velocity":53,"Duration":60376,"SoundDuration":60376,"Delta":30343060},{"NoteNumber":65,"Velocity":29,"Duration":60376,"SoundDuration":60376,"Delta":30343060},{"NoteNumber":61,"Velocity":24,"Duration":60376,"SoundDuration":60376,"Delta":30343060},{"NoteNumber":77,"Velocity":45,"Duration":60376,"SoundDuration":60376,"Delta":30584567},{"NoteNumber":49,"Velocity":24,"Duration":60376,"SoundDuration":60376,"Delta":30584567},{"NoteNumber":77,"Velocity":44,"Duration":59325,"SoundDuration":59325,"Delta":30826074},{"NoteNumber":49,"Velocity":24,"Duration":59325,"SoundDuration":59325,"Delta":30826074},{"NoteNumber":61,"Velocity":25,"Duration":60635,"SoundDuration":60635,"Delta":31063378},{"NoteNumber":65,"Velocity":30,"Duration":60635,"SoundDuration":60635,"Delta":31063378},{"NoteNumber":49,"Velocity":25,"Duration":61424,"SoundDuration":61424,"Delta":31305920},{"NoteNumber":49,"Velocity":25,"Duration":63062,"SoundDuration":63062,"Delta":31551620},{"NoteNumber":61,"Velocity":25,"Duration":60376,"SoundDuration":60376,"Delta":31803869},{"NoteNumber":65,"Velocity":31,"Duration":60376,"SoundDuration":60376,"Delta":31806888},{"NoteNumber":49,"Velocity":28,"Duration":61424,"SoundDuration":61424,"Delta":32045376},{"NoteNumber":49,"Velocity":28,"Duration":62782,"SoundDuration":62782,"Delta":32291076},{"NoteNumber":73,"Velocity":40,"Duration":180531,"SoundDuration":180531,"Delta":32479424},{"NoteNumber":77,"Velocity":40,"Duration":149140,"SoundDuration":149140,"Delta":32510815},{"NoteNumber":80,"Velocity":51,"Duration":117748,"SoundDuration":117748,"Delta":32542206},{"NoteNumber":61,"Velocity":28,"Duration":58874,"SoundDuration":58874,"Delta":32542206},{"NoteNumber":65,"Velocity":33,"Duration":58874,"SoundDuration":58874,"Delta":32542206},{"NoteNumber":78,"Velocity":40,"Duration":115358,"SoundDuration":115358,"Delta":32777704},{"NoteNumber":49,"Velocity":28,"Duration":57679,"SoundDuration":57679,"Delta":32777704},{"NoteNumber":77,"Velocity":40,"Duration":115358,"SoundDuration":115358,"Delta":32893062},{"NoteNumber":75,"Velocity":40,"Duration":119236,"SoundDuration":119236,"Delta":33008420},{"NoteNumber":49,"Velocity":28,"Duration":59618,"SoundDuration":59618,"Delta":33008420},{"NoteNumber":73,"Velocity":40,"Duration":119236,"SoundDuration":119236,"Delta":33127657},{"NoteNumber":68,"Velocity":40,"Duration":175924,"SoundDuration":175924,"Delta":33187275},{"NoteNumber":72,"Velocity":40,"Duration":146115,"SoundDuration":146115,"Delta":33217084},{"NoteNumber":75,"Velocity":49,"Duration":116306,"SoundDuration":116306,"Delta":33246894},{"NoteNumber":61,"Velocity":28,"Duration":58152,"SoundDuration":58152,"Delta":33246894},{"NoteNumber":66,"Velocity":34,"Duration":58152,"SoundDuration":58152,"Delta":33246894},{"NoteNumber":73,"Velocity":40,"Duration":115358,"SoundDuration":115358,"Delta":33479506},{"NoteNumber":49,"Velocity":28,"Duration":57679,"SoundDuration":57679,"Delta":33479506},{"NoteNumber":72,"Velocity":40,"Duration":115358,"SoundDuration":115358,"Delta":33594864},{"NoteNumber":70,"Velocity":40,"Duration":120240,"SoundDuration":120240,"Delta":33710222},{"NoteNumber":49,"Velocity":28,"Duration":60120,"SoundDuration":60120,"Delta":33710222},{"NoteNumber":68,"Velocity":40,"Duration":120240,"SoundDuration":120240,"Delta":33830462},{"NoteNumber":73,"Velocity":40,"Duration":181913,"SoundDuration":181913,"Delta":33890582},{"NoteNumber":77,"Velocity":40,"Duration":151852,"SoundDuration":151852,"Delta":33920643},{"NoteNumber":80,"Velocity":53,"Duration":121792,"SoundDuration":121792,"Delta":33950703},{"NoteNumber":61,"Velocity":28,"Duration":60896,"SoundDuration":60896,"Delta":33950703},{"NoteNumber":65,"Velocity":33,"Duration":60896,"SoundDuration":60896,"Delta":33950703},{"NoteNumber":78,"Velocity":42,"Duration":115358,"SoundDuration":115358,"Delta":34194288},{"NoteNumber":49,"Velocity":28,"Duration":57679,"SoundDuration":57679,"Delta":34194288},{"NoteNumber":77,"Velocity":45,"Duration":115358,"SoundDuration":115358,"Delta":34309646},{"NoteNumber":75,"Velocity":47,"Duration":115358,"SoundDuration":115358,"Delta":34425004},{"NoteNumber":49,"Velocity":33,"Duration":57679,"SoundDuration":57679,"Delta":34425004},{"NoteNumber":73,"Velocity":51,"Duration":115358,"SoundDuration":115358,"Delta":34540362},{"NoteNumber":85,"Velocity":57,"Duration":60635,"SoundDuration":60635,"Delta":34655720},{"NoteNumber":81,"Velocity":57,"Duration":60635,"SoundDuration":60635,"Delta":34655720},{"NoteNumber":78,"Velocity":57,"Duration":60635,"SoundDuration":60635,"Delta":34655720},{"NoteNumber":61,"Velocity":31,"Duration":60635,"SoundDuration":60635,"Delta":34655720},{"NoteNumber":66,"Velocity":38,"Duration":60635,"SoundDuration":60635,"Delta":34655720},{"NoteNumber":78,"Velocity":51,"Duration":60635,"SoundDuration":60635,"Delta":34898262},{"NoteNumber":81,"Velocity":51,"Duration":60635,"SoundDuration":60635,"Delta":34898262},{"NoteNumber":85,"Velocity":51,"Duration":60635,"SoundDuration":60635,"Delta":34898262},{"NoteNumber":49,"Velocity":28,"Duration":60635,"SoundDuration":60635,"Delta":34898262},{"NoteNumber":78,"Velocity":51,"Duration":61692,"SoundDuration":61692,"Delta":35140804},{"NoteNumber":81,"Velocity":51,"Duration":61692,"SoundDuration":61692,"Delta":35140804},{"NoteNumber":85,"Velocity":51,"Duration":61692,"SoundDuration":61692,"Delta":35140804},{"NoteNumber":49,"Velocity":28,"Duration":61692,"SoundDuration":61692,"Delta":35140804},{"NoteNumber":57,"Velocity":28,"Duration":58388,"SoundDuration":58388,"Delta":35387576},{"NoteNumber":61,"Velocity":28,"Duration":58388,"SoundDuration":58388,"Delta":35387576},{"NoteNumber":66,"Velocity":33,"Duration":58388,"SoundDuration":58388,"Delta":35387576},{"NoteNumber":54,"Velocity":25,"Duration":60635,"SoundDuration":60635,"Delta":35621130},{"NoteNumber":54,"Velocity":25,"Duration":61692,"SoundDuration":61692,"Delta":35863672},{"NoteNumber":57,"Velocity":25,"Duration":58152,"SoundDuration":58152,"Delta":36110443},{"NoteNumber":61,"Velocity":25,"Duration":58152,"SoundDuration":58152,"Delta":36110443},{"NoteNumber":66,"Velocity":30,"Duration":58152,"SoundDuration":58152,"Delta":36110443},{"NoteNumber":54,"Velocity":25,"Duration":60635,"SoundDuration":60635,"Delta":36343055},{"NoteNumber":54,"Velocity":25,"Duration":62230,"SoundDuration":62230,"Delta":36585597},{"NoteNumber":73,"Velocity":53,"Duration":234724,"SoundDuration":234724,"Delta":36834519},{"NoteNumber":66,"Velocity":29,"Duration":60120,"SoundDuration":60120,"Delta":36834519},{"NoteNumber":57,"Velocity":24,"Duration":60120,"SoundDuration":60120,"Delta":36834519},{"NoteNumber":61,"Velocity":24,"Duration":60120,"SoundDuration":60120,"Delta":36834519},{"NoteNumber":76,"Velocity":38,"Duration":54363,"SoundDuration":54363,"Delta":37014879},{"NoteNumber":74,"Velocity":45,"Duration":236480,"SoundDuration":236480,"Delta":37069243},{"NoteNumber":54,"Velocity":24,"Duration":59120,"SoundDuration":59120,"Delta":37069243},{"NoteNumber":73,"Velocity":45,"Duration":236481,"SoundDuration":236481,"Delta":37305724},{"NoteNumber":54,"Velocity":24,"Duration":59120,"SoundDuration":59120,"Delta":37305724},{"NoteNumber":71,"Velocity":52,"Duration":230716,"SoundDuration":230716,"Delta":37542205},{"NoteNumber":62,"Velocity":25,"Duration":57679,"SoundDuration":57679,"Delta":37542205},{"NoteNumber":66,"Velocity":30,"Duration":57679,"SoundDuration":57679,"Delta":37542205},{"NoteNumber":73,"Velocity":45,"Duration":114425,"SoundDuration":114425,"Delta":37772921},{"NoteNumber":50,"Velocity":24,"Duration":57212,"SoundDuration":57212,"Delta":37772921},{"NoteNumber":74,"Velocity":45,"Duration":114425,"SoundDuration":114425,"Delta":37887346},{"NoteNumber":76,"Velocity":47,"Duration":114425,"SoundDuration":114425,"Delta":38001772},{"NoteNumber":50,"Velocity":24,"Duration":57212,"SoundDuration":57212,"Delta":38001772},{"NoteNumber":78,"Velocity":48,"Duration":114425,"SoundDuration":114425,"Delta":38116197},{"NoteNumber":80,"Velocity":52,"Duration":231659,"SoundDuration":231659,"Delta":38230622},{"NoteNumber":62,"Velocity":24,"Duration":57915,"SoundDuration":57915,"Delta":38230622},{"NoteNumber":64,"Velocity":29,"Duration":57915,"SoundDuration":57915,"Delta":38230622},{"NoteNumber":78,"Velocity":53,"Duration":114425,"SoundDuration":114425,"Delta":38462282},{"NoteNumber":52,"Velocity":24,"Duration":57212,"SoundDuration":57212,"Delta":38462282},{"NoteNumber":80,"Velocity":43,"Duration":114425,"SoundDuration":114425,"Delta":38576707},{"NoteNumber":81,"Velocity":46,"Duration":117260,"SoundDuration":117260,"Delta":38691133},{"NoteNumber":52,"Velocity":24,"Duration":58630,"SoundDuration":58630,"Delta":38691133},{"NoteNumber":83,"Velocity":49,"Duration":117260,"SoundDuration":117260,"Delta":38808393},{"NoteNumber":85,"Velocity":52,"Duration":60120,"SoundDuration":60120,"Delta":38925654},{"NoteNumber":64,"Velocity":29,"Duration":60120,"SoundDuration":60120,"Delta":38925654},{"NoteNumber":61,"Velocity":24,"Duration":60120,"SoundDuration":60120,"Delta":38925654},{"NoteNumber":85,"Velocity":49,"Duration":60120,"SoundDuration":60120,"Delta":39166135},{"NoteNumber":57,"Velocity":24,"Duration":60120,"SoundDuration":60120,"Delta":39166135},{"NoteNumber":85,"Velocity":48,"Duration":59325,"SoundDuration":59325,"Delta":39406616},{"NoteNumber":57,"Velocity":24,"Duration":59325,"SoundDuration":59325,"Delta":39406616},{"NoteNumber":61,"Velocity":25,"Duration":60635,"SoundDuration":60635,"Delta":39643920},{"NoteNumber":64,"Velocity":30,"Duration":60635,"SoundDuration":60635,"Delta":39643920},{"NoteNumber":57,"Velocity":25,"Duration":60635,"SoundDuration":60635,"Delta":39886462},{"NoteNumber":57,"Velocity":26,"Duration":63062,"SoundDuration":63062,"Delta":40129004},{"NoteNumber":73,"Velocity":53,"Duration":14780,"SoundDuration":14780,"Delta":40381253},{"NoteNumber":64,"Velocity":29,"Duration":14780,"SoundDuration":14780,"Delta":40381253},{"NoteNumber":61,"Velocity":24,"Duration":14780,"SoundDuration":14780,"Delta":40381253},{"NoteNumber":73,"Velocity":45,"Duration":14780,"SoundDuration":14780,"Delta":40617734},{"NoteNumber":57,"Velocity":24,"Duration":14780,"SoundDuration":14780,"Delta":40617734},{"NoteNumber":73,"Velocity":45,"Duration":14780,"SoundDuration":14780,"Delta":40854215},{"NoteNumber":57,"Velocity":24,"Duration":14780,"SoundDuration":14780,"Delta":40854215},{"NoteNumber":73,"Velocity":52,"Duration":230716,"SoundDuration":230716,"Delta":41090696},{"NoteNumber":61,"Velocity":25,"Duration":57679,"SoundDuration":57679,"Delta":41090696},{"NoteNumber":64,"Velocity":30,"Duration":57679,"SoundDuration":57679,"Delta":41090696},{"NoteNumber":76,"Velocity":45,"Duration":115358,"SoundDuration":115358,"Delta":41321412},{"NoteNumber":58,"Velocity":24,"Duration":57679,"SoundDuration":57679,"Delta":41321412},{"NoteNumber":74,"Velocity":45,"Duration":115358,"SoundDuration":115358,"Delta":41436770},{"NoteNumber":73,"Velocity":47,"Duration":115358,"SoundDuration":115358,"Delta":41552128},{"NoteNumber":58,"Velocity":24,"Duration":57679,"SoundDuration":57679,"Delta":41552128},{"NoteNumber":76,"Velocity":48,"Duration":115358,"SoundDuration":115358,"Delta":41667486},{"NoteNumber":74,"Velocity":52,"Duration":58388,"SoundDuration":58388,"Delta":41782844},{"NoteNumber":62,"Velocity":24,"Duration":58388,"SoundDuration":58388,"Delta":41782844},{"NoteNumber":64,"Velocity":29,"Duration":58388,"SoundDuration":58388,"Delta":41782844},{"NoteNumber":74,"Velocity":52,"Duration":57444,"SoundDuration":57444,"Delta":42016398},{"NoteNumber":59,"Velocity":24,"Duration":57444,"SoundDuration":57444,"Delta":42016398},{"NoteNumber":74,"Velocity":51,"Duration":60120,"SoundDuration":60120,"Delta":42246178},{"NoteNumber":59,"Velocity":24,"Duration":60120,"SoundDuration":60120,"Delta":42246178},{"NoteNumber":86,"Velocity":52,"Duration":60376,"SoundDuration":60376,"Delta":42486659},{"NoteNumber":64,"Velocity":29,"Duration":60376,"SoundDuration":60376,"Delta":42486659},{"NoteNumber":62,"Velocity":24,"Duration":60376,"SoundDuration":60376,"Delta":42486659},{"NoteNumber":86,"Velocity":49,"Duration":60376,"SoundDuration":60376,"Delta":42728166},{"NoteNumber":59,"Velocity":24,"Duration":60376,"SoundDuration":60376,"Delta":42728166},{"NoteNumber":86,"Velocity":48,"Duration":59325,"SoundDuration":59325,"Delta":42969673},{"NoteNumber":59,"Velocity":24,"Duration":59325,"SoundDuration":59325,"Delta":42969673},{"NoteNumber":62,"Velocity":22,"Duration":60635,"SoundDuration":60635,"Delta":43206977},{"NoteNumber":64,"Velocity":25,"Duration":60635,"SoundDuration":60635,"Delta":43206977},{"NoteNumber":59,"Velocity":22,"Duration":60635,"SoundDuration":60635,"Delta":43449519},{"NoteNumber":59,"Velocity":22,"Duration":63062,"SoundDuration":63062,"Delta":43692061},{"NoteNumber":74,"Velocity":53,"Duration":59120,"SoundDuration":59120,"Delta":43944310},{"NoteNumber":64,"Velocity":29,"Duration":59120,"SoundDuration":59120,"Delta":43944310},{"NoteNumber":62,"Velocity":24,"Duration":59120,"SoundDuration":59120,"Delta":43944310},{"NoteNumber":74,"Velocity":45,"Duration":59120,"SoundDuration":59120,"Delta":44180791},{"NoteNumber":59,"Velocity":24,"Duration":59120,"SoundDuration":59120,"Delta":44180791},{"NoteNumber":74,"Velocity":45,"Duration":59120,"SoundDuration":59120,"Delta":44417272},{"NoteNumber":59,"Velocity":24,"Duration":59120,"SoundDuration":59120,"Delta":44417272},{"NoteNumber":74,"Velocity":52,"Duration":230716,"SoundDuration":230716,"Delta":44653753},{"NoteNumber":62,"Velocity":25,"Duration":57679,"SoundDuration":57679,"Delta":44653753},{"NoteNumber":65,"Velocity":30,"Duration":57679,"SoundDuration":57679,"Delta":44653753},{"NoteNumber":77,"Velocity":45,"Duration":114425,"SoundDuration":114425,"Delta":44884469},{"NoteNumber":59,"Velocity":24,"Duration":57212,"SoundDuration":57212,"Delta":44884469},{"NoteNumber":76,"Velocity":45,"Duration":114425,"SoundDuration":114425,"Delta":44998894},{"NoteNumber":74,"Velocity":47,"Duration":114425,"SoundDuration":114425,"Delta":45113319},{"NoteNumber":59,"Velocity":24,"Duration":57212,"SoundDuration":57212,"Delta":45113319},{"NoteNumber":77,"Velocity":48,"Duration":114425,"SoundDuration":114425,"Delta":45227744},{"NoteNumber":74,"Velocity":52,"Duration":58630,"SoundDuration":58630,"Delta":45342170},{"NoteNumber":62,"Velocity":24,"Duration":58630,"SoundDuration":58630,"Delta":45342170},{"NoteNumber":65,"Velocity":29,"Duration":58630,"SoundDuration":58630,"Delta":45342170},{"NoteNumber":74,"Velocity":52,"Duration":56982,"SoundDuration":56982,"Delta":45576691},{"NoteNumber":59,"Velocity":24,"Duration":56982,"SoundDuration":56982,"Delta":45576691},{"NoteNumber":74,"Velocity":52,"Duration":62782,"SoundDuration":62782,"Delta":45804620},{"NoteNumber":59,"Velocity":24,"Duration":62782,"SoundDuration":62782,"Delta":45804620},{"NoteNumber":86,"Velocity":52,"Duration":60376,"SoundDuration":60376,"Delta":46055750},{"NoteNumber":65,"Velocity":29,"Duration":60376,"SoundDuration":60376,"Delta":46055750},{"NoteNumber":62,"Velocity":24,"Duration":60376,"SoundDuration":60376,"Delta":46055750},{"NoteNumber":86,"Velocity":49,"Duration":61424,"SoundDuration":61424,"Delta":46297257},{"NoteNumber":59,"Velocity":24,"Duration":61424,"SoundDuration":61424,"Delta":46297257},{"NoteNumber":86,"Velocity":48,"Duration":62782,"SoundDuration":62782,"Delta":46542957},{"NoteNumber":59,"Velocity":24,"Duration":62782,"SoundDuration":62782,"Delta":46542957},{"NoteNumber":74,"Velocity":56,"Duration":233553,"SoundDuration":233553,"Delta":46794087},{"NoteNumber":59,"Velocity":26,"Duration":116776,"SoundDuration":116776,"Delta":46794087},{"NoteNumber":62,"Velocity":32,"Duration":116776,"SoundDuration":116776,"Delta":46794087},{"NoteNumber":65,"Velocity":26,"Duration":116776,"SoundDuration":116776,"Delta":46910864},{"NoteNumber":73,"Velocity":52,"Duration":233554,"SoundDuration":233554,"Delta":47027641},{"NoteNumber":62,"Velocity":28,"Duration":116776,"SoundDuration":116776,"Delta":47027641},{"NoteNumber":59,"Velocity":22,"Duration":116776,"SoundDuration":116776,"Delta":47027641},{"NoteNumber":65,"Velocity":26,"Duration":116777,"SoundDuration":116777,"Delta":47144418},{"NoteNumber":74,"Velocity":52,"Duration":239482,"SoundDuration":239482,"Delta":47261195},{"NoteNumber":62,"Velocity":28,"Duration":119741,"SoundDuration":119741,"Delta":47261195},{"NoteNumber":59,"Velocity":22,"Duration":119741,"SoundDuration":119741,"Delta":47261195},{"NoteNumber":65,"Velocity":26,"Duration":119741,"SoundDuration":119741,"Delta":47380936},{"NoteNumber":86,"Velocity":56,"Duration":232612,"SoundDuration":232612,"Delta":47500678},{"NoteNumber":58,"Velocity":26,"Duration":116306,"SoundDuration":116306,"Delta":47500678},{"NoteNumber":62,"Velocity":32,"Duration":116306,"SoundDuration":116306,"Delta":47500678},{"NoteNumber":65,"Velocity":26,"Duration":116306,"SoundDuration":116306,"Delta":47616984},{"NoteNumber":85,"Velocity":52,"Duration":232611,"SoundDuration":232611,"Delta":47733290},{"NoteNumber":62,"Velocity":28,"Duration":116305,"SoundDuration":116305,"Delta":47733290},{"NoteNumber":58,"Velocity":22,"Duration":116305,"SoundDuration":116305,"Delta":47733290},{"NoteNumber":65,"Velocity":26,"Duration":116306,"SoundDuration":116306,"Delta":47849596},{"NoteNumber":86,"Velocity":52,"Duration":239482,"SoundDuration":239482,"Delta":47965902},{"NoteNumber":62,"Velocity":28,"Duration":119741,"SoundDuration":119741,"Delta":47965902},{"NoteNumber":58,"Velocity":22,"Duration":119741,"SoundDuration":119741,"Delta":47965902},{"NoteNumber":65,"Velocity":26,"Duration":119741,"SoundDuration":119741,"Delta":48085643},{"NoteNumber":82,"Velocity":54,"Duration":230893,"SoundDuration":230893,"Delta":48205384},{"NoteNumber":58,"Velocity":31,"Duration":115446,"SoundDuration":115446,"Delta":48205384},{"NoteNumber":62,"Velocity":38,"Duration":115446,"SoundDuration":115446,"Delta":48205384},{"NoteNumber":65,"Velocity":25,"Duration":115446,"SoundDuration":115446,"Delta":48320831},{"NoteNumber":81,"Velocity":47,"Duration":230893,"SoundDuration":230893,"Delta":48436278},{"NoteNumber":58,"Velocity":24,"Duration":115446,"SoundDuration":115446,"Delta":48436278},{"NoteNumber":62,"Velocity":29,"Duration":115446,"SoundDuration":115446,"Delta":48436278},{"NoteNumber":65,"Velocity":24,"Duration":115446,"SoundDuration":115446,"Delta":48551724},{"NoteNumber":82,"Velocity":48,"Duration":230893,"SoundDuration":230893,"Delta":48667171},{"NoteNumber":58,"Velocity":24,"Duration":115446,"SoundDuration":115446,"Delta":48667171},{"NoteNumber":62,"Velocity":29,"Duration":115446,"SoundDuration":115446,"Delta":48667171},{"NoteNumber":65,"Velocity":25,"Duration":115446,"SoundDuration":115446,"Delta":48782618},{"NoteNumber":79,"Velocity":51,"Duration":228136,"SoundDuration":228136,"Delta":48898065},{"NoteNumber":58,"Velocity":29,"Duration":114068,"SoundDuration":114068,"Delta":48898065},{"NoteNumber":63,"Velocity":34,"Duration":114068,"SoundDuration":114068,"Delta":48898065},{"NoteNumber":67,"Velocity":26,"Duration":114068,"SoundDuration":114068,"Delta":49012133},{"NoteNumber":81,"Velocity":48,"Duration":113156,"SoundDuration":113156,"Delta":49126202},{"NoteNumber":58,"Velocity":25,"Duration":113156,"SoundDuration":113156,"Delta":49126202},{"NoteNumber":63,"Velocity":30,"Duration":113156,"SoundDuration":113156,"Delta":49126202},{"NoteNumber":82,"Velocity":49,"Duration":113156,"SoundDuration":113156,"Delta":49239358},{"NoteNumber":67,"Velocity":25,"Duration":113156,"SoundDuration":113156,"Delta":49239358},{"NoteNumber":84,"Velocity":51,"Duration":113156,"SoundDuration":113156,"Delta":49352514},{"NoteNumber":58,"Velocity":25,"Duration":113156,"SoundDuration":113156,"Delta":49352514},{"NoteNumber":63,"Velocity":30,"Duration":113156,"SoundDuration":113156,"Delta":49352514},{"NoteNumber":86,"Velocity":52,"Duration":113156,"SoundDuration":113156,"Delta":49465670},{"NoteNumber":67,"Velocity":25,"Duration":113156,"SoundDuration":113156,"Delta":49465670},{"NoteNumber":82,"Velocity":57,"Duration":229077,"SoundDuration":229077,"Delta":49578827},{"NoteNumber":58,"Velocity":35,"Duration":114538,"SoundDuration":114538,"Delta":49578827},{"NoteNumber":62,"Velocity":43,"Duration":114538,"SoundDuration":114538,"Delta":49578827},{"NoteNumber":65,"Velocity":28,"Duration":114538,"SoundDuration":114538,"Delta":49693365},{"NoteNumber":84,"Velocity":58,"Duration":113156,"SoundDuration":113156,"Delta":49807904},{"NoteNumber":62,"Velocity":31,"Duration":113156,"SoundDuration":113156,"Delta":49807904},{"NoteNumber":58,"Velocity":25,"Duration":113156,"SoundDuration":113156,"Delta":49807904},{"NoteNumber":82,"Velocity":51,"Duration":113156,"SoundDuration":113156,"Delta":49921060},{"NoteNumber":65,"Velocity":26,"Duration":113156,"SoundDuration":113156,"Delta":49921060},{"NoteNumber":81,"Velocity":56,"Duration":113156,"SoundDuration":113156,"Delta":50034217},{"NoteNumber":58,"Velocity":26,"Duration":113156,"SoundDuration":113156,"Delta":50034217},{"NoteNumber":62,"Velocity":32,"Duration":113156,"SoundDuration":113156,"Delta":50034217},{"NoteNumber":79,"Velocity":51,"Duration":113156,"SoundDuration":113156,"Delta":50147373},{"NoteNumber":65,"Velocity":26,"Duration":113156,"SoundDuration":113156,"Delta":50147373},{"NoteNumber":77,"Velocity":61,"Duration":57968,"SoundDuration":57968,"Delta":50260529},{"NoteNumber":57,"Velocity":32,"Duration":115937,"SoundDuration":115937,"Delta":50260529},{"NoteNumber":63,"Velocity":39,"Duration":115937,"SoundDuration":115937,"Delta":50260529},{"NoteNumber":65,"Velocity":28,"Duration":115937,"SoundDuration":115937,"Delta":50376467},{"NoteNumber":77,"Velocity":56,"Duration":57968,"SoundDuration":57968,"Delta":50492404},{"NoteNumber":57,"Velocity":26,"Duration":115937,"SoundDuration":115937,"Delta":50492404},{"NoteNumber":63,"Velocity":32,"Duration":115937,"SoundDuration":115937,"Delta":50492404},{"NoteNumber":65,"Velocity":29,"Duration":115937,"SoundDuration":115937,"Delta":50608342},{"NoteNumber":77,"Velocity":56,"Duration":59325,"SoundDuration":59325,"Delta":50724279},{"NoteNumber":57,"Velocity":28,"Duration":118651,"SoundDuration":118651,"Delta":50724279},{"NoteNumber":63,"Velocity":33,"Duration":118651,"SoundDuration":118651,"Delta":50724279},{"NoteNumber":65,"Velocity":28,"Duration":118652,"SoundDuration":118652,"Delta":50842931},{"NoteNumber":78,"Velocity":69,"Duration":231839,"SoundDuration":231839,"Delta":50961583},{"NoteNumber":57,"Velocity":35,"Duration":115919,"SoundDuration":115919,"Delta":50961583},{"NoteNumber":63,"Velocity":42,"Duration":115919,"SoundDuration":115919,"Delta":50961583},{"NoteNumber":66,"Velocity":29,"Duration":115919,"SoundDuration":115919,"Delta":51077503},{"NoteNumber":90,"Velocity":66,"Duration":231839,"SoundDuration":231839,"Delta":51193423},{"NoteNumber":57,"Velocity":28,"Duration":115919,"SoundDuration":115919,"Delta":51193423},{"NoteNumber":63,"Velocity":34,"Duration":115919,"SoundDuration":115919,"Delta":51193423},{"NoteNumber":66,"Velocity":29,"Duration":115919,"SoundDuration":115919,"Delta":51309342},{"NoteNumber":90,"Velocity":67,"Duration":59097,"SoundDuration":59097,"Delta":51425262},{"NoteNumber":57,"Velocity":28,"Duration":118194,"SoundDuration":118194,"Delta":51425262},{"NoteNumber":63,"Velocity":34,"Duration":118194,"SoundDuration":118194,"Delta":51425262},{"NoteNumber":66,"Velocity":30,"Duration":118193,"SoundDuration":118193,"Delta":51543456},{"NoteNumber":91,"Velocity":76,"Duration":231839,"SoundDuration":231839,"Delta":51661650},{"NoteNumber":58,"Velocity":34,"Duration":115919,"SoundDuration":115919,"Delta":51661650},{"NoteNumber":63,"Velocity":40,"Duration":115919,"SoundDuration":115919,"Delta":51661650},{"NoteNumber":67,"Velocity":30,"Duration":115919,"SoundDuration":115919,"Delta":51777570},{"NoteNumber":79,"Velocity":61,"Duration":231839,"SoundDuration":231839,"Delta":51893490},{"NoteNumber":58,"Velocity":29,"Duration":115919,"SoundDuration":115919,"Delta":51893490},{"NoteNumber":63,"Velocity":34,"Duration":115919,"SoundDuration":115919,"Delta":51893490},{"NoteNumber":67,"Velocity":30,"Duration":115919,"SoundDuration":115919,"Delta":52009409},{"NoteNumber":79,"Velocity":61,"Duration":57959,"SoundDuration":57959,"Delta":52125329},{"NoteNumber":58,"Velocity":29,"Duration":115919,"SoundDuration":115919,"Delta":52125329},{"NoteNumber":63,"Velocity":34,"Duration":115919,"SoundDuration":115919,"Delta":52125329},{"NoteNumber":67,"Velocity":30,"Duration":115919,"SoundDuration":115919,"Delta":52241249},{"NoteNumber":81,"Velocity":65,"Duration":57959,"SoundDuration":57959,"Delta":52357169},{"NoteNumber":60,"Velocity":35,"Duration":115919,"SoundDuration":115919,"Delta":52357169},{"NoteNumber":63,"Velocity":42,"Duration":115919,"SoundDuration":115919,"Delta":52357169},{"NoteNumber":67,"Velocity":31,"Duration":115919,"SoundDuration":115919,"Delta":52473088},{"NoteNumber":94,"Velocity":62,"Duration":28979,"SoundDuration":28979,"Delta":52560028},{"NoteNumber":93,"Velocity":65,"Duration":113156,"SoundDuration":113156,"Delta":52589008},{"NoteNumber":60,"Velocity":30,"Duration":113156,"SoundDuration":113156,"Delta":52589008},{"NoteNumber":63,"Velocity":35,"Duration":113156,"SoundDuration":113156,"Delta":52589008},{"NoteNumber":91,"Velocity":62,"Duration":113156,"SoundDuration":113156,"Delta":52702164},{"NoteNumber":67,"Velocity":31,"Duration":113156,"SoundDuration":113156,"Delta":52702164},{"NoteNumber":93,"Velocity":66,"Duration":229077,"SoundDuration":229077,"Delta":52815321},{"NoteNumber":60,"Velocity":31,"Duration":114538,"SoundDuration":114538,"Delta":52815321},{"NoteNumber":63,"Velocity":37,"Duration":114538,"SoundDuration":114538,"Delta":52815321},{"NoteNumber":67,"Velocity":32,"Duration":114538,"SoundDuration":114538,"Delta":52929859},{"NoteNumber":94,"Velocity":68,"Duration":57269,"SoundDuration":57269,"Delta":53044398},{"NoteNumber":55,"Velocity":35,"Duration":114538,"SoundDuration":114538,"Delta":53044398},{"NoteNumber":62,"Velocity":43,"Duration":114538,"SoundDuration":114538,"Delta":53044398},{"NoteNumber":67,"Velocity":32,"Duration":114538,"SoundDuration":114538,"Delta":53158937},{"NoteNumber":84,"Velocity":61,"Duration":28634,"SoundDuration":28634,"Delta":53244841},{"NoteNumber":82,"Velocity":63,"Duration":113156,"SoundDuration":113156,"Delta":53273476},{"NoteNumber":55,"Velocity":31,"Duration":113156,"SoundDuration":113156,"Delta":53273476},{"NoteNumber":62,"Velocity":37,"Duration":113156,"SoundDuration":113156,"Delta":53273476},{"NoteNumber":81,"Velocity":60,"Duration":113156,"SoundDuration":113156,"Delta":53386632},{"NoteNumber":67,"Velocity":32,"Duration":113156,"SoundDuration":113156,"Delta":53386632},{"NoteNumber":82,"Velocity":65,"Duration":121045,"SoundDuration":121045,"Delta":53499788},{"NoteNumber":55,"Velocity":31,"Duration":121045,"SoundDuration":121045,"Delta":53499788},{"NoteNumber":62,"Velocity":37,"Duration":121045,"SoundDuration":121045,"Delta":53499788},{"NoteNumber":67,"Velocity":33,"Duration":121045,"SoundDuration":121045,"Delta":53620834},{"NoteNumber":75,"Velocity":44,"Duration":116369,"SoundDuration":116369,"Delta":53741880},{"NoteNumber":79,"Velocity":52,"Duration":116369,"SoundDuration":116369,"Delta":53741880},{"NoteNumber":63,"Velocity":62,"Duration":232738,"SoundDuration":232738,"Delta":53741880},{"NoteNumber":82,"Velocity":46,"Duration":116369,"SoundDuration":116369,"Delta":53858249},{"NoteNumber":75,"Velocity":45,"Duration":116369,"SoundDuration":116369,"Delta":53974618},{"NoteNumber":79,"Velocity":53,"Duration":116369,"SoundDuration":116369,"Delta":53974618},{"NoteNumber":62,"Velocity":52,"Duration":232738,"SoundDuration":232738,"Delta":53974618},{"NoteNumber":82,"Velocity":45,"Duration":116369,"SoundDuration":116369,"Delta":54090987},{"NoteNumber":75,"Velocity":45,"Duration":116369,"SoundDuration":116369,"Delta":54207357},{"NoteNumber":79,"Velocity":53,"Duration":116369,"SoundDuration":116369,"Delta":54207357},{"NoteNumber":63,"Velocity":52,"Duration":232738,"SoundDuration":232738,"Delta":54207357},{"NoteNumber":82,"Velocity":46,"Duration":116369,"SoundDuration":116369,"Delta":54323726},{"NoteNumber":75,"Velocity":46,"Duration":114068,"SoundDuration":114068,"Delta":54440095},{"NoteNumber":79,"Velocity":54,"Duration":114068,"SoundDuration":114068,"Delta":54440095},{"NoteNumber":60,"Velocity":62,"Duration":228136,"SoundDuration":228136,"Delta":54440095},{"NoteNumber":84,"Velocity":46,"Duration":114068,"SoundDuration":114068,"Delta":54554164},{"NoteNumber":75,"Velocity":45,"Duration":113156,"SoundDuration":113156,"Delta":54668232},{"NoteNumber":79,"Velocity":53,"Duration":113156,"SoundDuration":113156,"Delta":54668232},{"NoteNumber":62,"Velocity":50,"Duration":113156,"SoundDuration":113156,"Delta":54668232},{"NoteNumber":84,"Velocity":45,"Duration":113156,"SoundDuration":113156,"Delta":54781388},{"NoteNumber":63,"Velocity":50,"Duration":113156,"SoundDuration":113156,"Delta":54781388},{"NoteNumber":75,"Velocity":45,"Duration":113156,"SoundDuration":113156,"Delta":54894545},{"NoteNumber":79,"Velocity":53,"Duration":113156,"SoundDuration":113156,"Delta":54894545},{"NoteNumber":65,"Velocity":52,"Duration":113156,"SoundDuration":113156,"Delta":54894545},{"NoteNumber":84,"Velocity":45,"Duration":113156,"SoundDuration":113156,"Delta":55007701},{"NoteNumber":67,"Velocity":52,"Duration":113156,"SoundDuration":113156,"Delta":55007701},{"NoteNumber":75,"Velocity":48,"Duration":114538,"SoundDuration":114538,"Delta":55120857},{"NoteNumber":79,"Velocity":57,"Duration":114538,"SoundDuration":114538,"Delta":55120857},{"NoteNumber":63,"Velocity":60,"Duration":229077,"SoundDuration":229077,"Delta":55120857},{"NoteNumber":82,"Velocity":46,"Duration":114538,"SoundDuration":114538,"Delta":55235396},{"NoteNumber":79,"Velocity":53,"Duration":113156,"SoundDuration":113156,"Delta":55349935},{"NoteNumber":75,"Velocity":45,"Duration":113156,"SoundDuration":113156,"Delta":55349935},{"NoteNumber":65,"Velocity":57,"Duration":113156,"SoundDuration":113156,"Delta":55349935},{"NoteNumber":82,"Velocity":45,"Duration":113156,"SoundDuration":113156,"Delta":55463091},{"NoteNumber":63,"Velocity":52,"Duration":113156,"SoundDuration":113156,"Delta":55463091},{"NoteNumber":75,"Velocity":45,"Duration":113156,"SoundDuration":113156,"Delta":55576247},{"NoteNumber":79,"Velocity":53,"Duration":113156,"SoundDuration":113156,"Delta":55576247},{"NoteNumber":62,"Velocity":57,"Duration":113156,"SoundDuration":113156,"Delta":55576247},{"NoteNumber":82,"Velocity":45,"Duration":113156,"SoundDuration":113156,"Delta":55689403},{"NoteNumber":60,"Velocity":52,"Duration":113156,"SoundDuration":113156,"Delta":55689403},{"NoteNumber":74,"Velocity":51,"Duration":115937,"SoundDuration":115937,"Delta":55802560},{"NoteNumber":80,"Velocity":61,"Duration":115937,"SoundDuration":115937,"Delta":55802560},{"NoteNumber":58,"Velocity":61,"Duration":57968,"SoundDuration":57968,"Delta":55802560},{"NoteNumber":82,"Velocity":46,"Duration":115937,"SoundDuration":115937,"Delta":55918497},{"NoteNumber":74,"Velocity":45,"Duration":115937,"SoundDuration":115937,"Delta":56034435},{"NoteNumber":80,"Velocity":53,"Duration":115937,"SoundDuration":115937,"Delta":56034435},{"NoteNumber":58,"Velocity":52,"Duration":57968,"SoundDuration":57968,"Delta":56034435},{"NoteNumber":82,"Velocity":48,"Duration":115937,"SoundDuration":115937,"Delta":56150372},{"NoteNumber":74,"Velocity":45,"Duration":118194,"SoundDuration":118194,"Delta":56266310},{"NoteNumber":80,"Velocity":53,"Duration":118194,"SoundDuration":118194,"Delta":56266310},{"NoteNumber":58,"Velocity":52,"Duration":59097,"SoundDuration":59097,"Delta":56266310},{"NoteNumber":82,"Velocity":46,"Duration":118193,"SoundDuration":118193,"Delta":56384504},{"NoteNumber":74,"Velocity":49,"Duration":115919,"SoundDuration":115919,"Delta":56502698},{"NoteNumber":80,"Velocity":58,"Duration":115919,"SoundDuration":115919,"Delta":56502698},{"NoteNumber":59,"Velocity":60,"Duration":231839,"SoundDuration":231839,"Delta":56502698},{"NoteNumber":86,"Velocity":46,"Duration":115919,"SoundDuration":115919,"Delta":56618617},{"NoteNumber":74,"Velocity":45,"Duration":115919,"SoundDuration":115919,"Delta":56734537},{"NoteNumber":80,"Velocity":53,"Duration":115919,"SoundDuration":115919,"Delta":56734537},{"NoteNumber":71,"Velocity":50,"Duration":231839,"SoundDuration":231839,"Delta":56734537},{"NoteNumber":86,"Velocity":46,"Duration":115919,"SoundDuration":115919,"Delta":56850457},{"NoteNumber":74,"Velocity":45,"Duration":118651,"SoundDuration":118651,"Delta":56966377},{"NoteNumber":80,"Velocity":53,"Duration":118651,"SoundDuration":118651,"Delta":56966377},{"NoteNumber":71,"Velocity":53,"Duration":59325,"SoundDuration":59325,"Delta":56966377},{"NoteNumber":86,"Velocity":46,"Duration":118652,"SoundDuration":118652,"Delta":57085029},{"NoteNumber":75,"Velocity":48,"Duration":115919,"SoundDuration":115919,"Delta":57203681},{"NoteNumber":79,"Velocity":57,"Duration":115919,"SoundDuration":115919,"Delta":57203681},{"NoteNumber":72,"Velocity":62,"Duration":231839,"SoundDuration":231839,"Delta":57203681},{"NoteNumber":87,"Velocity":46,"Duration":115919,"SoundDuration":115919,"Delta":57319600},{"NoteNumber":75,"Velocity":45,"Duration":115919,"SoundDuration":115919,"Delta":57435520},{"NoteNumber":79,"Velocity":53,"Duration":115919,"SoundDuration":115919,"Delta":57435520},{"NoteNumber":60,"Velocity":58,"Duration":231839,"SoundDuration":231839,"Delta":57435520},{"NoteNumber":87,"Velocity":46,"Duration":115919,"SoundDuration":115919,"Delta":57551440},{"NoteNumber":75,"Velocity":45,"Duration":115919,"SoundDuration":115919,"Delta":57667360},{"NoteNumber":79,"Velocity":53,"Duration":115919,"SoundDuration":115919,"Delta":57667360},{"NoteNumber":60,"Velocity":60,"Duration":57959,"SoundDuration":57959,"Delta":57667360},{"NoteNumber":86,"Velocity":46,"Duration":115919,"SoundDuration":115919,"Delta":57783279},{"NoteNumber":75,"Velocity":45,"Duration":115919,"SoundDuration":115919,"Delta":57899199},{"NoteNumber":81,"Velocity":53,"Duration":115919,"SoundDuration":115919,"Delta":57899199},{"NoteNumber":65,"Velocity":66,"Duration":57959,"SoundDuration":57959,"Delta":57899199},{"NoteNumber":84,"Velocity":46,"Duration":115919,"SoundDuration":115919,"Delta":58015119},{"NoteNumber":55,"Velocity":58,"Duration":76819,"SoundDuration":76819,"Delta":58073079},{"NoteNumber":75,"Velocity":45,"Duration":113156,"SoundDuration":113156,"Delta":58131039},{"NoteNumber":81,"Velocity":53,"Duration":113156,"SoundDuration":113156,"Delta":58131039},{"NoteNumber":53,"Velocity":67,"Duration":132015,"SoundDuration":132015,"Delta":58131039},{"NoteNumber":84,"Velocity":46,"Duration":113156,"SoundDuration":113156,"Delta":58244195},{"NoteNumber":52,"Velocity":62,"Duration":133651,"SoundDuration":133651,"Delta":58244195},{"NoteNumber":75,"Velocity":45,"Duration":122970,"SoundDuration":122970,"Delta":58357351},{"NoteNumber":81,"Velocity":53,"Duration":122970,"SoundDuration":122970,"Delta":58357351},{"NoteNumber":53,"Velocity":66,"Duration":245941,"SoundDuration":245941,"Delta":58357351},{"NoteNumber":84,"Velocity":46,"Duration":122970,"SoundDuration":122970,"Delta":58480322},{"NoteNumber":74,"Velocity":45,"Duration":115446,"SoundDuration":115446,"Delta":58603293},{"NoteNumber":82,"Velocity":53,"Duration":115446,"SoundDuration":115446,"Delta":58603293},{"NoteNumber":58,"Velocity":62,"Duration":57723,"SoundDuration":57723,"Delta":58603293},{"NoteNumber":86,"Velocity":46,"Duration":115446,"SoundDuration":115446,"Delta":58718740},{"NoteNumber":48,"Velocity":54,"Duration":76582,"SoundDuration":76582,"Delta":58776463},{"NoteNumber":74,"Velocity":45,"Duration":113156,"SoundDuration":113156,"Delta":58834187},{"NoteNumber":82,"Velocity":53,"Duration":113156,"SoundDuration":113156,"Delta":58834187},{"NoteNumber":46,"Velocity":62,"Duration":132015,"SoundDuration":132015,"Delta":58834187},{"NoteNumber":86,"Velocity":46,"Duration":113156,"SoundDuration":113156,"Delta":58947343},{"NoteNumber":45,"Velocity":57,"Duration":134176,"SoundDuration":134176,"Delta":58947343},{"NoteNumber":74,"Velocity":45,"Duration":126124,"SoundDuration":126124,"Delta":59060499},{"NoteNumber":82,"Velocity":53,"Duration":126124,"SoundDuration":126124,"Delta":59060499},{"NoteNumber":46,"Velocity":62,"Duration":252248,"SoundDuration":252248,"Delta":59060499},{"NoteNumber":86,"Velocity":46,"Duration":126124,"SoundDuration":126124,"Delta":59186624},{"NoteNumber":75,"Velocity":46,"Duration":114068,"SoundDuration":114068,"Delta":59312748},{"NoteNumber":81,"Velocity":54,"Duration":114068,"SoundDuration":114068,"Delta":59312748},{"NoteNumber":41,"Velocity":56,"Duration":228136,"SoundDuration":228136,"Delta":59312748},{"NoteNumber":84,"Velocity":46,"Duration":114068,"SoundDuration":114068,"Delta":59426817},{"NoteNumber":75,"Velocity":45,"Duration":113156,"SoundDuration":113156,"Delta":59540885},{"NoteNumber":81,"Velocity":53,"Duration":113156,"SoundDuration":113156,"Delta":59540885},{"NoteNumber":43,"Velocity":44,"Duration":113156,"SoundDuration":113156,"Delta":59540885},{"NoteNumber":84,"Velocity":45,"Duration":113156,"SoundDuration":113156,"Delta":59654041},{"NoteNumber":45,"Velocity":44,"Duration":113156,"SoundDuration":113156,"Delta":59654041},{"NoteNumber":75,"Velocity":45,"Duration":117260,"SoundDuration":117260,"Delta":59767198},{"NoteNumber":81,"Velocity":53,"Duration":117260,"SoundDuration":117260,"Delta":59767198},{"NoteNumber":46,"Velocity":47,"Duration":117260,"SoundDuration":117260,"Delta":59767198},{"NoteNumber":84,"Velocity":45,"Duration":117260,"SoundDuration":117260,"Delta":59884458},{"NoteNumber":48,"Velocity":47,"Duration":117260,"SoundDuration":117260,"Delta":59884458},{"NoteNumber":74,"Velocity":48,"Duration":119077,"SoundDuration":119077,"Delta":60001719},{"NoteNumber":82,"Velocity":57,"Duration":119077,"SoundDuration":119077,"Delta":60001719},{"NoteNumber":46,"Velocity":53,"Duration":59206,"SoundDuration":59206,"Delta":60001719},{"NoteNumber":86,"Velocity":46,"Duration":120411,"SoundDuration":120411,"Delta":60120796},{"NoteNumber":82,"Velocity":53,"Duration":121098,"SoundDuration":121098,"Delta":60241208},{"NoteNumber":74,"Velocity":45,"Duration":121098,"SoundDuration":121098,"Delta":60241208},{"NoteNumber":46,"Velocity":53,"Duration":60463,"SoundDuration":60463,"Delta":60241208},{"NoteNumber":86,"Velocity":45,"Duration":121968,"SoundDuration":121968,"Delta":60362306},{"NoteNumber":74,"Velocity":45,"Duration":122849,"SoundDuration":122849,"Delta":60484274},{"NoteNumber":82,"Velocity":53,"Duration":122849,"SoundDuration":122849,"Delta":60484274},{"NoteNumber":46,"Velocity":53,"Duration":61424,"SoundDuration":61424,"Delta":60484274},{"NoteNumber":86,"Velocity":45,"Duration":122849,"SoundDuration":122849,"Delta":60607124},{"NoteNumber":75,"Velocity":41,"Duration":117260,"SoundDuration":117260,"Delta":60729974},{"NoteNumber":81,"Velocity":49,"Duration":117260,"SoundDuration":117260,"Delta":60729974},{"NoteNumber":53,"Velocity":50,"Duration":234521,"SoundDuration":234521,"Delta":60729974},{"NoteNumber":84,"Velocity":41,"Duration":117260,"SoundDuration":117260,"Delta":60847235},{"NoteNumber":75,"Velocity":40,"Duration":114425,"SoundDuration":114425,"Delta":60964496},{"NoteNumber":81,"Velocity":48,"Duration":114425,"SoundDuration":114425,"Delta":60964496},{"NoteNumber":55,"Velocity":39,"Duration":114425,"SoundDuration":114425,"Delta":60964496},{"NoteNumber":84,"Velocity":40,"Duration":114425,"SoundDuration":114425,"Delta":61078921},{"NoteNumber":57,"Velocity":39,"Duration":114425,"SoundDuration":114425,"Delta":61078921},{"NoteNumber":75,"Velocity":40,"Duration":116776,"SoundDuration":116776,"Delta":61193346},{"NoteNumber":81,"Velocity":48,"Duration":116776,"SoundDuration":116776,"Delta":61193346},{"NoteNumber":58,"Velocity":41,"Duration":116776,"SoundDuration":116776,"Delta":61193346},{"NoteNumber":84,"Velocity":40,"Duration":116776,"SoundDuration":116776,"Delta":61310123},{"NoteNumber":60,"Velocity":41,"Duration":116776,"SoundDuration":116776,"Delta":61310123},{"NoteNumber":74,"Velocity":42,"Duration":121444,"SoundDuration":121444,"Delta":61426900},{"NoteNumber":82,"Velocity":51,"Duration":121444,"SoundDuration":121444,"Delta":61426900},{"NoteNumber":58,"Velocity":48,"Duration":60635,"SoundDuration":60635,"Delta":61426900},{"NoteNumber":86,"Velocity":41,"Duration":122143,"SoundDuration":122143,"Delta":61548345},{"NoteNumber":82,"Velocity":48,"Duration":123028,"SoundDuration":123028,"Delta":61670489},{"NoteNumber":74,"Velocity":40,"Duration":123028,"SoundDuration":123028,"Delta":61670489},{"NoteNumber":58,"Velocity":48,"Duration":61424,"SoundDuration":61424,"Delta":61670489},{"NoteNumber":86,"Velocity":40,"Duration":123031,"SoundDuration":123031,"Delta":61793518},{"NoteNumber":74,"Velocity":40,"Duration":124460,"SoundDuration":124460,"Delta":61916549},{"NoteNumber":82,"Velocity":48,"Duration":124460,"SoundDuration":124460,"Delta":61916549},{"NoteNumber":58,"Velocity":48,"Duration":62230,"SoundDuration":62230,"Delta":61916549},{"NoteNumber":86,"Velocity":40,"Duration":124460,"SoundDuration":124460,"Delta":62041010},{"NoteNumber":75,"Velocity":35,"Duration":121271,"SoundDuration":121271,"Delta":62165471},{"NoteNumber":81,"Velocity":43,"Duration":121271,"SoundDuration":121271,"Delta":62165471},{"NoteNumber":65,"Velocity":44,"Duration":242542,"SoundDuration":242542,"Delta":62165471},{"NoteNumber":84,"Velocity":37,"Duration":121271,"SoundDuration":121271,"Delta":62286742},{"NoteNumber":75,"Velocity":35,"Duration":114425,"SoundDuration":114425,"Delta":62408013},{"NoteNumber":81,"Velocity":42,"Duration":114425,"SoundDuration":114425,"Delta":62408013},{"NoteNumber":67,"Velocity":34,"Duration":114425,"SoundDuration":114425,"Delta":62408013},{"NoteNumber":84,"Velocity":35,"Duration":114425,"SoundDuration":114425,"Delta":62522438},{"NoteNumber":69,"Velocity":34,"Duration":114425,"SoundDuration":114425,"Delta":62522438},{"NoteNumber":75,"Velocity":35,"Duration":120753,"SoundDuration":120753,"Delta":62636863},{"NoteNumber":81,"Velocity":42,"Duration":120753,"SoundDuration":120753,"Delta":62636863},{"NoteNumber":70,"Velocity":37,"Duration":120753,"SoundDuration":120753,"Delta":62636863},{"NoteNumber":84,"Velocity":35,"Duration":120753,"SoundDuration":120753,"Delta":62757617},{"NoteNumber":72,"Velocity":37,"Duration":120753,"SoundDuration":120753,"Delta":62757617},{"NoteNumber":74,"Velocity":38,"Duration":125010,"SoundDuration":125010,"Delta":62878370},{"NoteNumber":82,"Velocity":45,"Duration":125010,"SoundDuration":125010,"Delta":62878370},{"NoteNumber":70,"Velocity":42,"Duration":62505,"SoundDuration":62505,"Delta":62878370},{"NoteNumber":86,"Velocity":37,"Duration":125010,"SoundDuration":125010,"Delta":63003381},{"NoteNumber":82,"Velocity":42,"Duration":125010,"SoundDuration":125010,"Delta":63128391},{"NoteNumber":74,"Velocity":35,"Duration":125010,"SoundDuration":125010,"Delta":63128391},{"NoteNumber":70,"Velocity":42,"Duration":62505,"SoundDuration":62505,"Delta":63128391},{"NoteNumber":86,"Velocity":35,"Duration":125010,"SoundDuration":125010,"Delta":63253402},{"NoteNumber":74,"Velocity":35,"Duration":322476,"SoundDuration":322476,"Delta":63378412},{"NoteNumber":82,"Velocity":42,"Duration":322476,"SoundDuration":322476,"Delta":63378412},{"NoteNumber":70,"Velocity":42,"Duration":80619,"SoundDuration":80619,"Delta":63378412},{"NoteNumber":82,"Velocity":56,"Duration":61505,"SoundDuration":61505,"Delta":63700889},{"NoteNumber":63,"Velocity":29,"Duration":123011,"SoundDuration":123011,"Delta":63700889},{"NoteNumber":67,"Velocity":34,"Duration":123011,"SoundDuration":123011,"Delta":63700889},{"NoteNumber":70,"Velocity":28,"Duration":123011,"SoundDuration":123011,"Delta":63823900},{"NoteNumber":80,"Velocity":48,"Duration":61505,"SoundDuration":61505,"Delta":63885405},{"NoteNumber":79,"Velocity":56,"Duration":113238,"SoundDuration":113238,"Delta":63946911},{"NoteNumber":63,"Velocity":26,"Duration":113238,"SoundDuration":113238,"Delta":63946911},{"NoteNumber":67,"Velocity":32,"Duration":113238,"SoundDuration":113238,"Delta":63946911},{"NoteNumber":77,"Velocity":52,"Duration":113156,"SoundDuration":113156,"Delta":64060149},{"NoteNumber":70,"Velocity":28,"Duration":113156,"SoundDuration":113156,"Delta":64060149},{"NoteNumber":79,"Velocity":56,"Duration":229065,"SoundDuration":229065,"Delta":64173306},{"NoteNumber":63,"Velocity":26,"Duration":114527,"SoundDuration":114527,"Delta":64173306},{"NoteNumber":67,"Velocity":32,"Duration":114527,"SoundDuration":114527,"Delta":64173306},{"NoteNumber":70,"Velocity":28,"Duration":114538,"SoundDuration":114538,"Delta":64287833},{"NoteNumber":82,"Velocity":56,"Duration":60274,"SoundDuration":60274,"Delta":64402372},{"NoteNumber":62,"Velocity":26,"Duration":120549,"SoundDuration":120549,"Delta":64402372},{"NoteNumber":65,"Velocity":32,"Duration":120549,"SoundDuration":120549,"Delta":64402372},{"NoteNumber":70,"Velocity":28,"Duration":120549,"SoundDuration":120549,"Delta":64522921},{"NoteNumber":79,"Velocity":48,"Duration":60274,"SoundDuration":60274,"Delta":64583196},{"NoteNumber":77,"Velocity":56,"Duration":113217,"SoundDuration":113217,"Delta":64643471},{"NoteNumber":62,"Velocity":26,"Duration":113217,"SoundDuration":113217,"Delta":64643471},{"NoteNumber":65,"Velocity":32,"Duration":113217,"SoundDuration":113217,"Delta":64643471},{"NoteNumber":76,"Velocity":52,"Duration":113156,"SoundDuration":113156,"Delta":64756689},{"NoteNumber":70,"Velocity":28,"Duration":113156,"SoundDuration":113156,"Delta":64756689},{"NoteNumber":77,"Velocity":56,"Duration":233553,"SoundDuration":233553,"Delta":64869845},{"NoteNumber":61,"Velocity":26,"Duration":116776,"SoundDuration":116776,"Delta":64869845},{"NoteNumber":65,"Velocity":32,"Duration":116776,"SoundDuration":116776,"Delta":64869845},{"NoteNumber":70,"Velocity":28,"Duration":116776,"SoundDuration":116776,"Delta":64986622},{"NoteNumber":84,"Velocity":58,"Duration":241099,"SoundDuration":241099,"Delta":65103399},{"NoteNumber":60,"Velocity":26,"Duration":120549,"SoundDuration":120549,"Delta":65103399},{"NoteNumber":65,"Velocity":32,"Duration":120549,"SoundDuration":120549,"Delta":65103399},{"NoteNumber":68,"Velocity":28,"Duration":120549,"SoundDuration":120549,"Delta":65223949},{"NoteNumber":82,"Velocity":59,"Duration":113217,"SoundDuration":113217,"Delta":65344499},{"NoteNumber":60,"Velocity":26,"Duration":113217,"SoundDuration":113217,"Delta":65344499},{"NoteNumber":65,"Velocity":32,"Duration":113217,"SoundDuration":113217,"Delta":65344499},{"NoteNumber":80,"Velocity":54,"Duration":113156,"SoundDuration":113156,"Delta":65457717},{"NoteNumber":68,"Velocity":28,"Duration":113156,"SoundDuration":113156,"Delta":65457717},{"NoteNumber":79,"Velocity":58,"Duration":119741,"SoundDuration":119741,"Delta":65570873},{"NoteNumber":60,"Velocity":26,"Duration":119741,"SoundDuration":119741,"Delta":65570873},{"NoteNumber":65,"Velocity":32,"Duration":119741,"SoundDuration":119741,"Delta":65570873},{"NoteNumber":77,"Velocity":58,"Duration":119741,"SoundDuration":119741,"Delta":65690614},{"NoteNumber":68,"Velocity":28,"Duration":119741,"SoundDuration":119741,"Delta":65690614},{"NoteNumber":84,"Velocity":58,"Duration":245699,"SoundDuration":245699,"Delta":65810355},{"NoteNumber":60,"Velocity":26,"Duration":122849,"SoundDuration":122849,"Delta":65810355},{"NoteNumber":65,"Velocity":32,"Duration":122849,"SoundDuration":122849,"Delta":65810355},{"NoteNumber":67,"Velocity":28,"Duration":122849,"SoundDuration":122849,"Delta":65933205},{"NoteNumber":72,"Velocity":56,"Duration":236480,"SoundDuration":236480,"Delta":66056055},{"NoteNumber":60,"Velocity":26,"Duration":118240,"SoundDuration":118240,"Delta":66056055},{"NoteNumber":64,"Velocity":32,"Duration":118240,"SoundDuration":118240,"Delta":66056055},{"NoteNumber":67,"Velocity":28,"Duration":118240,"SoundDuration":118240,"Delta":66174296},{"NoteNumber":72,"Velocity":56,"Duration":236480,"SoundDuration":236480,"Delta":66292536},{"NoteNumber":60,"Velocity":26,"Duration":118240,"SoundDuration":118240,"Delta":66292536},{"NoteNumber":64,"Velocity":32,"Duration":118240,"SoundDuration":118240,"Delta":66292536},{"NoteNumber":67,"Velocity":30,"Duration":118240,"SoundDuration":118240,"Delta":66410777},{"NoteNumber":68,"Velocity":37,"Duration":120240,"SoundDuration":120240,"Delta":66529017},{"NoteNumber":72,"Velocity":44,"Duration":120240,"SoundDuration":120240,"Delta":66529017},{"NoteNumber":56,"Velocity":37,"Duration":721660,"SoundDuration":721660,"Delta":66529017},{"NoteNumber":60,"Velocity":44,"Duration":240481,"SoundDuration":240481,"Delta":66529017},{"NoteNumber":75,"Velocity":39,"Duration":120240,"SoundDuration":120240,"Delta":66649258},{"NoteNumber":68,"Velocity":38,"Duration":119741,"SoundDuration":119741,"Delta":66769498},{"NoteNumber":72,"Velocity":45,"Duration":119741,"SoundDuration":119741,"Delta":66769498},{"NoteNumber":61,"Velocity":40,"Duration":239482,"SoundDuration":239482,"Delta":66769498},{"NoteNumber":75,"Velocity":38,"Duration":119741,"SoundDuration":119741,"Delta":66889240},{"NoteNumber":68,"Velocity":38,"Duration":121270,"SoundDuration":121270,"Delta":67008981},{"NoteNumber":72,"Velocity":45,"Duration":121270,"SoundDuration":121270,"Delta":67008981},{"NoteNumber":60,"Velocity":40,"Duration":241697,"SoundDuration":241697,"Delta":67008981},{"NoteNumber":75,"Velocity":39,"Duration":120426,"SoundDuration":120426,"Delta":67130252},{"NoteNumber":68,"Velocity":37,"Duration":120240,"SoundDuration":120240,"Delta":67250678},{"NoteNumber":77,"Velocity":44,"Duration":120240,"SoundDuration":120240,"Delta":67250678},{"NoteNumber":49,"Velocity":37,"Duration":717444,"SoundDuration":717444,"Delta":67250678},{"NoteNumber":58,"Velocity":44,"Duration":240481,"SoundDuration":240481,"Delta":67250678},{"NoteNumber":80,"Velocity":39,"Duration":120240,"SoundDuration":120240,"Delta":67370919},{"NoteNumber":68,"Velocity":39,"Duration":118736,"SoundDuration":118736,"Delta":67491159},{"NoteNumber":77,"Velocity":47,"Duration":118736,"SoundDuration":118736,"Delta":67491159},{"NoteNumber":53,"Velocity":42,"Duration":237473,"SoundDuration":237473,"Delta":67491159},{"NoteNumber":80,"Velocity":39,"Duration":118736,"SoundDuration":118736,"Delta":67609896},{"NoteNumber":68,"Velocity":41,"Duration":118736,"SoundDuration":118736,"Delta":67728633},{"NoteNumber":77,"Velocity":49,"Duration":118736,"SoundDuration":118736,"Delta":67728633},{"NoteNumber":55,"Velocity":44,"Duration":239490,"SoundDuration":239490,"Delta":67728633},{"NoteNumber":80,"Velocity":43,"Duration":120753,"SoundDuration":120753,"Delta":67847369},{"NoteNumber":58,"Velocity":39,"Duration":60376,"SoundDuration":60376,"Delta":67907746},{"NoteNumber":68,"Velocity":37,"Duration":118651,"SoundDuration":118651,"Delta":67968123},{"NoteNumber":72,"Velocity":44,"Duration":118651,"SoundDuration":118651,"Delta":67968123},{"NoteNumber":51,"Velocity":37,"Duration":1442963,"SoundDuration":1442963,"Delta":67968123},{"NoteNumber":56,"Velocity":44,"Duration":237303,"SoundDuration":237303,"Delta":67968123},{"NoteNumber":75,"Velocity":38,"Duration":118651,"SoundDuration":118651,"Delta":68086775},{"NoteNumber":68,"Velocity":35,"Duration":118652,"SoundDuration":118652,"Delta":68205427},{"NoteNumber":72,"Velocity":42,"Duration":118652,"SoundDuration":118652,"Delta":68205427},{"NoteNumber":55,"Velocity":38,"Duration":237304,"SoundDuration":237304,"Delta":68205427},{"NoteNumber":75,"Velocity":34,"Duration":118651,"SoundDuration":118651,"Delta":68324079},{"NoteNumber":68,"Velocity":34,"Duration":121792,"SoundDuration":121792,"Delta":68442731},{"NoteNumber":72,"Velocity":40,"Duration":121792,"SoundDuration":121792,"Delta":68442731},{"NoteNumber":56,"Velocity":35,"Duration":243585,"SoundDuration":243585,"Delta":68442731},{"NoteNumber":75,"Velocity":33,"Duration":121792,"SoundDuration":121792,"Delta":68564524},{"NoteNumber":67,"Velocity":31,"Duration":119236,"SoundDuration":119236,"Delta":68686316},{"NoteNumber":73,"Velocity":37,"Duration":119236,"SoundDuration":119236,"Delta":68686316},{"NoteNumber":58,"Velocity":37,"Duration":480654,"SoundDuration":480654,"Delta":68686316},{"NoteNumber":75,"Velocity":32,"Duration":119907,"SoundDuration":119907,"Delta":68805553},{"NoteNumber":67,"Velocity":31,"Duration":120411,"SoundDuration":120411,"Delta":68925461},{"NoteNumber":73,"Velocity":38,"Duration":120411,"SoundDuration":120411,"Delta":68925461},{"NoteNumber":75,"Velocity":31,"Duration":121098,"SoundDuration":121098,"Delta":69045873},{"NoteNumber":67,"Velocity":31,"Duration":121618,"SoundDuration":121618,"Delta":69166971},{"NoteNumber":73,"Velocity":38,"Duration":121618,"SoundDuration":121618,"Delta":69166971},{"NoteNumber":59,"Velocity":34,"Duration":244114,"SoundDuration":244114,"Delta":69166971},{"NoteNumber":75,"Velocity":32,"Duration":122496,"SoundDuration":122496,"Delta":69288590},{"NoteNumber":68,"Velocity":47,"Duration":61505,"SoundDuration":61505,"Delta":69411086},{"NoteNumber":72,"Velocity":47,"Duration":61505,"SoundDuration":61505,"Delta":69411086},{"NoteNumber":75,"Velocity":56,"Duration":61505,"SoundDuration":61505,"Delta":69411086},{"NoteNumber":56,"Velocity":29,"Duration":123011,"SoundDuration":123011,"Delta":69411086},{"NoteNumber":60,"Velocity":34,"Duration":123011,"SoundDuration":123011,"Delta":69411086},{"NoteNumber":63,"Velocity":28,"Duration":123011,"SoundDuration":123011,"Delta":69534097},{"NoteNumber":73,"Velocity":49,"Duration":61505,"SoundDuration":61505,"Delta":69595603},{"NoteNumber":72,"Velocity":56,"Duration":113238,"SoundDuration":113238,"Delta":69657109},{"NoteNumber":56,"Velocity":26,"Duration":113238,"SoundDuration":113238,"Delta":69657109},{"NoteNumber":60,"Velocity":32,"Duration":113238,"SoundDuration":113238,"Delta":69657109},{"NoteNumber":70,"Velocity":52,"Duration":113156,"SoundDuration":113156,"Delta":69770347},{"NoteNumber":63,"Velocity":28,"Duration":113156,"SoundDuration":113156,"Delta":69770347},{"NoteNumber":72,"Velocity":56,"Duration":229065,"SoundDuration":229065,"Delta":69883503},{"NoteNumber":56,"Velocity":26,"Duration":114527,"SoundDuration":114527,"Delta":69883503},{"NoteNumber":60,"Velocity":32,"Duration":114527,"SoundDuration":114527,"Delta":69883503},{"NoteNumber":63,"Velocity":28,"Duration":114538,"SoundDuration":114538,"Delta":69998030},{"NoteNumber":75,"Velocity":56,"Duration":60274,"SoundDuration":60274,"Delta":70112569},{"NoteNumber":55,"Velocity":26,"Duration":120549,"SoundDuration":120549,"Delta":70112569},{"NoteNumber":58,"Velocity":32,"Duration":120549,"SoundDuration":120549,"Delta":70112569},{"NoteNumber":63,"Velocity":28,"Duration":120549,"SoundDuration":120549,"Delta":70233119},{"NoteNumber":72,"Velocity":49,"Duration":60274,"SoundDuration":60274,"Delta":70293394},{"NoteNumber":70,"Velocity":56,"Duration":113217,"SoundDuration":113217,"Delta":70353669},{"NoteNumber":55,"Velocity":26,"Duration":113217,"SoundDuration":113217,"Delta":70353669},{"NoteNumber":58,"Velocity":32,"Duration":113217,"SoundDuration":113217,"Delta":70353669},{"NoteNumber":69,"Velocity":52,"Duration":113156,"SoundDuration":113156,"Delta":70466887},{"NoteNumber":63,"Velocity":28,"Duration":113156,"SoundDuration":113156,"Delta":70466887},{"NoteNumber":70,"Velocity":56,"Duration":233553,"SoundDuration":233553,"Delta":70580043},{"NoteNumber":54,"Velocity":26,"Duration":116776,"SoundDuration":116776,"Delta":70580043},{"NoteNumber":58,"Velocity":32,"Duration":116776,"SoundDuration":116776,"Delta":70580043},{"NoteNumber":63,"Velocity":28,"Duration":116776,"SoundDuration":116776,"Delta":70696820},{"NoteNumber":77,"Velocity":58,"Duration":241099,"SoundDuration":241099,"Delta":70813597},{"NoteNumber":53,"Velocity":26,"Duration":120549,"SoundDuration":120549,"Delta":70813597},{"NoteNumber":58,"Velocity":32,"Duration":120549,"SoundDuration":120549,"Delta":70813597},{"NoteNumber":61,"Velocity":28,"Duration":120549,"SoundDuration":120549,"Delta":70934147},{"NoteNumber":75,"Velocity":59,"Duration":113217,"SoundDuration":113217,"Delta":71054696},{"NoteNumber":53,"Velocity":26,"Duration":113217,"SoundDuration":113217,"Delta":71054696},{"NoteNumber":58,"Velocity":32,"Duration":113217,"SoundDuration":113217,"Delta":71054696},{"NoteNumber":73,"Velocity":54,"Duration":113156,"SoundDuration":113156,"Delta":71167914},{"NoteNumber":61,"Velocity":28,"Duration":113156,"SoundDuration":113156,"Delta":71167914},{"NoteNumber":72,"Velocity":58,"Duration":119236,"SoundDuration":119236,"Delta":71281070},{"NoteNumber":53,"Velocity":26,"Duration":119236,"SoundDuration":119236,"Delta":71281070},{"NoteNumber":58,"Velocity":32,"Duration":119236,"SoundDuration":119236,"Delta":71281070},{"NoteNumber":70,"Velocity":58,"Duration":119236,"SoundDuration":119236,"Delta":71400307},{"NoteNumber":61,"Velocity":28,"Duration":119236,"SoundDuration":119236,"Delta":71400307},{"NoteNumber":77,"Velocity":58,"Duration":243585,"SoundDuration":243585,"Delta":71519544},{"NoteNumber":53,"Velocity":26,"Duration":121792,"SoundDuration":121792,"Delta":71519544},{"NoteNumber":58,"Velocity":32,"Duration":121792,"SoundDuration":121792,"Delta":71519544},{"NoteNumber":60,"Velocity":28,"Duration":121792,"SoundDuration":121792,"Delta":71641337},{"NoteNumber":65,"Velocity":56,"Duration":237473,"SoundDuration":237473,"Delta":71763130},{"NoteNumber":53,"Velocity":26,"Duration":118736,"SoundDuration":118736,"Delta":71763130},{"NoteNumber":57,"Velocity":32,"Duration":118736,"SoundDuration":118736,"Delta":71763130},{"NoteNumber":60,"Velocity":28,"Duration":118736,"SoundDuration":118736,"Delta":71881867},{"NoteNumber":65,"Velocity":56,"Duration":237473,"SoundDuration":237473,"Delta":72000603},{"NoteNumber":53,"Velocity":26,"Duration":118736,"SoundDuration":118736,"Delta":72000603},{"NoteNumber":57,"Velocity":32,"Duration":118736,"SoundDuration":118736,"Delta":72000603},{"NoteNumber":60,"Velocity":30,"Duration":118736,"SoundDuration":118736,"Delta":72119340},{"NoteNumber":73,"Velocity":37,"Duration":120240,"SoundDuration":120240,"Delta":72238077},{"NoteNumber":77,"Velocity":44,"Duration":120240,"SoundDuration":120240,"Delta":72238077},{"NoteNumber":61,"Velocity":37,"Duration":718270,"SoundDuration":718270,"Delta":72238077},{"NoteNumber":65,"Velocity":44,"Duration":240481,"SoundDuration":240481,"Delta":72238077},{"NoteNumber":80,"Velocity":39,"Duration":120240,"SoundDuration":120240,"Delta":72358317},{"NoteNumber":73,"Velocity":38,"Duration":119741,"SoundDuration":119741,"Delta":72478558},{"NoteNumber":77,"Velocity":45,"Duration":119741,"SoundDuration":119741,"Delta":72478558},{"NoteNumber":66,"Velocity":40,"Duration":239482,"SoundDuration":239482,"Delta":72478558},{"NoteNumber":80,"Velocity":38,"Duration":119741,"SoundDuration":119741,"Delta":72598299},{"NoteNumber":73,"Velocity":38,"Duration":119236,"SoundDuration":119236,"Delta":72718040},{"NoteNumber":77,"Velocity":45,"Duration":119236,"SoundDuration":119236,"Delta":72718040},{"NoteNumber":65,"Velocity":40,"Duration":238307,"SoundDuration":238307,"Delta":72718040},{"NoteNumber":80,"Velocity":39,"Duration":119070,"SoundDuration":119070,"Delta":72837277},{"NoteNumber":73,"Velocity":37,"Duration":121270,"SoundDuration":121270,"Delta":72956348},{"NoteNumber":82,"Velocity":44,"Duration":121270,"SoundDuration":121270,"Delta":72956348},{"NoteNumber":54,"Velocity":37,"Duration":718017,"SoundDuration":718017,"Delta":72956348},{"NoteNumber":63,"Velocity":44,"Duration":242542,"SoundDuration":242542,"Delta":72956348},{"NoteNumber":85,"Velocity":39,"Duration":121271,"SoundDuration":121271,"Delta":73077619},{"NoteNumber":73,"Velocity":39,"Duration":118240,"SoundDuration":118240,"Delta":73198890},{"NoteNumber":82,"Velocity":47,"Duration":118240,"SoundDuration":118240,"Delta":73198890},{"NoteNumber":58,"Velocity":42,"Duration":236480,"SoundDuration":236480,"Delta":73198890},{"NoteNumber":85,"Velocity":39,"Duration":118240,"SoundDuration":118240,"Delta":73317130},{"NoteNumber":73,"Velocity":41,"Duration":118240,"SoundDuration":118240,"Delta":73435371},{"NoteNumber":82,"Velocity":49,"Duration":118240,"SoundDuration":118240,"Delta":73435371},{"NoteNumber":60,"Velocity":44,"Duration":238994,"SoundDuration":238994,"Delta":73435371},{"NoteNumber":85,"Velocity":43,"Duration":120753,"SoundDuration":120753,"Delta":73553611},{"NoteNumber":63,"Velocity":40,"Duration":60376,"SoundDuration":60376,"Delta":73613988},{"NoteNumber":73,"Velocity":37,"Duration":118651,"SoundDuration":118651,"Delta":73674365},{"NoteNumber":77,"Velocity":44,"Duration":118651,"SoundDuration":118651,"Delta":73674365},{"NoteNumber":56,"Velocity":37,"Duration":1429442,"SoundDuration":1429442,"Delta":73674365},{"NoteNumber":61,"Velocity":44,"Duration":237303,"SoundDuration":237303,"Delta":73674365},{"NoteNumber":80,"Velocity":38,"Duration":118651,"SoundDuration":118651,"Delta":73793017},{"NoteNumber":73,"Velocity":35,"Duration":118652,"SoundDuration":118652,"Delta":73911669},{"NoteNumber":77,"Velocity":42,"Duration":118652,"SoundDuration":118652,"Delta":73911669},{"NoteNumber":60,"Velocity":38,"Duration":237304,"SoundDuration":237304,"Delta":73911669},{"NoteNumber":80,"Velocity":34,"Duration":118651,"SoundDuration":118651,"Delta":74030321},{"NoteNumber":73,"Velocity":34,"Duration":118651,"SoundDuration":118651,"Delta":74148973},{"NoteNumber":77,"Velocity":40,"Duration":118651,"SoundDuration":118651,"Delta":74148973},{"NoteNumber":61,"Velocity":35,"Duration":237303,"SoundDuration":237303,"Delta":74148973},{"NoteNumber":80,"Velocity":33,"Duration":118651,"SoundDuration":118651,"Delta":74267625},{"NoteNumber":72,"Velocity":31,"Duration":118232,"SoundDuration":118232,"Delta":74386277},{"NoteNumber":78,"Velocity":37,"Duration":118232,"SoundDuration":118232,"Delta":74386277},{"NoteNumber":63,"Velocity":37,"Duration":476169,"SoundDuration":476169,"Delta":74386277},{"NoteNumber":80,"Velocity":32,"Duration":118772,"SoundDuration":118772,"Delta":74504509},{"NoteNumber":72,"Velocity":31,"Duration":119322,"SoundDuration":119322,"Delta":74623281},{"NoteNumber":78,"Velocity":38,"Duration":119322,"SoundDuration":119322,"Delta":74623281},{"NoteNumber":80,"Velocity":31,"Duration":119842,"SoundDuration":119842,"Delta":74742604},{"NoteNumber":72,"Velocity":31,"Duration":120398,"SoundDuration":120398,"Delta":74862446},{"NoteNumber":78,"Velocity":38,"Duration":120398,"SoundDuration":120398,"Delta":74862446},{"NoteNumber":64,"Velocity":34,"Duration":241361,"SoundDuration":241361,"Delta":74862446},{"NoteNumber":80,"Velocity":32,"Duration":120963,"SoundDuration":120963,"Delta":74982844},{"NoteNumber":73,"Velocity":31,"Duration":246022,"SoundDuration":246022,"Delta":75103807},{"NoteNumber":77,"Velocity":31,"Duration":246022,"SoundDuration":246022,"Delta":75103807},{"NoteNumber":80,"Velocity":37,"Duration":246022,"SoundDuration":246022,"Delta":75103807},{"NoteNumber":61,"Velocity":29,"Duration":61505,"SoundDuration":61505,"Delta":75103807},{"NoteNumber":65,"Velocity":34,"Duration":61505,"SoundDuration":61505,"Delta":75103807},{"NoteNumber":49,"Velocity":28,"Duration":61159,"SoundDuration":61159,"Delta":75349830},{"NoteNumber":49,"Velocity":28,"Duration":63062,"SoundDuration":63062,"Delta":75594468},{"NoteNumber":61,"Velocity":26,"Duration":60376,"SoundDuration":60376,"Delta":75846717},{"NoteNumber":65,"Velocity":32,"Duration":60376,"SoundDuration":60376,"Delta":75849736},{"NoteNumber":49,"Velocity":28,"Duration":61424,"SoundDuration":61424,"Delta":76088224},{"NoteNumber":49,"Velocity":28,"Duration":62782,"SoundDuration":62782,"Delta":76333924},{"NoteNumber":73,"Velocity":40,"Duration":179559,"SoundDuration":179559,"Delta":76522272},{"NoteNumber":77,"Velocity":40,"Duration":148168,"SoundDuration":148168,"Delta":76553663},{"NoteNumber":80,"Velocity":51,"Duration":116776,"SoundDuration":116776,"Delta":76585054},{"NoteNumber":61,"Velocity":28,"Duration":58388,"SoundDuration":58388,"Delta":76585054},{"NoteNumber":65,"Velocity":33,"Duration":58388,"SoundDuration":58388,"Delta":76585054},{"NoteNumber":78,"Velocity":40,"Duration":115358,"SoundDuration":115358,"Delta":76818608},{"NoteNumber":49,"Velocity":28,"Duration":57678,"SoundDuration":57678,"Delta":76818608},{"NoteNumber":77,"Velocity":40,"Duration":115358,"SoundDuration":115358,"Delta":76933966},{"NoteNumber":75,"Velocity":40,"Duration":120753,"SoundDuration":120753,"Delta":77049324},{"NoteNumber":49,"Velocity":28,"Duration":60376,"SoundDuration":60376,"Delta":77049324},{"NoteNumber":73,"Velocity":40,"Duration":120753,"SoundDuration":120753,"Delta":77170078},{"NoteNumber":68,"Velocity":40,"Duration":176682,"SoundDuration":176682,"Delta":77230455},{"NoteNumber":72,"Velocity":40,"Duration":146494,"SoundDuration":146494,"Delta":77260643},{"NoteNumber":75,"Velocity":49,"Duration":116305,"SoundDuration":116305,"Delta":77290831},{"NoteNumber":61,"Velocity":28,"Duration":58153,"SoundDuration":58153,"Delta":77290831},{"NoteNumber":66,"Velocity":34,"Duration":58153,"SoundDuration":58153,"Delta":77290831},{"NoteNumber":73,"Velocity":40,"Duration":115358,"SoundDuration":115358,"Delta":77523443},{"NoteNumber":49,"Velocity":28,"Duration":57678,"SoundDuration":57678,"Delta":77523443},{"NoteNumber":72,"Velocity":40,"Duration":115358,"SoundDuration":115358,"Delta":77638801},{"NoteNumber":70,"Velocity":40,"Duration":119741,"SoundDuration":119741,"Delta":77754159},{"NoteNumber":49,"Velocity":28,"Duration":59870,"SoundDuration":59870,"Delta":77754159},{"NoteNumber":68,"Velocity":40,"Duration":119741,"SoundDuration":119741,"Delta":77873901},{"NoteNumber":73,"Velocity":40,"Duration":181663,"SoundDuration":181663,"Delta":77933771},{"NoteNumber":77,"Velocity":40,"Duration":151728,"SoundDuration":151728,"Delta":77963707},{"NoteNumber":80,"Velocity":53,"Duration":121792,"SoundDuration":121792,"Delta":77993642},{"NoteNumber":61,"Velocity":28,"Duration":60896,"SoundDuration":60896,"Delta":77993642},{"NoteNumber":65,"Velocity":33,"Duration":60896,"SoundDuration":60896,"Delta":77993642},{"NoteNumber":78,"Velocity":42,"Duration":115358,"SoundDuration":115358,"Delta":78237227},{"NoteNumber":49,"Velocity":28,"Duration":57678,"SoundDuration":57678,"Delta":78237227},{"NoteNumber":77,"Velocity":45,"Duration":115358,"SoundDuration":115358,"Delta":78352585},{"NoteNumber":75,"Velocity":47,"Duration":115358,"SoundDuration":115358,"Delta":78467943},{"NoteNumber":49,"Velocity":33,"Duration":57678,"SoundDuration":57678,"Delta":78467943},{"NoteNumber":73,"Velocity":51,"Duration":115358,"SoundDuration":115358,"Delta":78583301},{"NoteNumber":85,"Velocity":57,"Duration":60635,"SoundDuration":60635,"Delta":78698659},{"NoteNumber":82,"Velocity":57,"Duration":60635,"SoundDuration":60635,"Delta":78698659},{"NoteNumber":78,"Velocity":57,"Duration":60635,"SoundDuration":60635,"Delta":78698659},{"NoteNumber":61,"Velocity":31,"Duration":60635,"SoundDuration":60635,"Delta":78698659},{"NoteNumber":66,"Velocity":38,"Duration":60635,"SoundDuration":60635,"Delta":78698659},{"NoteNumber":78,"Velocity":51,"Duration":60635,"SoundDuration":60635,"Delta":78941201},{"NoteNumber":82,"Velocity":51,"Duration":60635,"SoundDuration":60635,"Delta":78941201},{"NoteNumber":85,"Velocity":51,"Duration":60635,"SoundDuration":60635,"Delta":78941201},{"NoteNumber":49,"Velocity":28,"Duration":60635,"SoundDuration":60635,"Delta":78941201},{"NoteNumber":78,"Velocity":51,"Duration":60635,"SoundDuration":60635,"Delta":79183743},{"NoteNumber":82,"Velocity":51,"Duration":60635,"SoundDuration":60635,"Delta":79183743},{"NoteNumber":85,"Velocity":51,"Duration":60635,"SoundDuration":60635,"Delta":79183743},{"NoteNumber":49,"Velocity":28,"Duration":60635,"SoundDuration":60635,"Delta":79183743},{"NoteNumber":58,"Velocity":28,"Duration":58388,"SoundDuration":58388,"Delta":79426285},{"NoteNumber":61,"Velocity":28,"Duration":58388,"SoundDuration":58388,"Delta":79426285},{"NoteNumber":66,"Velocity":33,"Duration":58388,"SoundDuration":58388,"Delta":79426285},{"NoteNumber":49,"Velocity":25,"Duration":59870,"SoundDuration":59870,"Delta":79659839},{"NoteNumber":49,"Velocity":25,"Duration":61159,"SoundDuration":61159,"Delta":79899322},{"NoteNumber":58,"Velocity":25,"Duration":58153,"SoundDuration":58153,"Delta":80143960},{"NoteNumber":61,"Velocity":25,"Duration":58153,"SoundDuration":58153,"Delta":80143960},{"NoteNumber":66,"Velocity":30,"Duration":58153,"SoundDuration":58153,"Delta":80143960},{"NoteNumber":49,"Velocity":25,"Duration":59870,"SoundDuration":59870,"Delta":80376572},{"NoteNumber":49,"Velocity":25,"Duration":60388,"SoundDuration":60388,"Delta":80616055},{"NoteNumber":65,"Velocity":49,"Duration":233767,"SoundDuration":233767,"Delta":80860719},{"NoteNumber":56,"Velocity":24,"Duration":59870,"SoundDuration":59870,"Delta":80860719},{"NoteNumber":61,"Velocity":29,"Duration":59870,"SoundDuration":59870,"Delta":80860719},{"NoteNumber":68,"Velocity":32,"Duration":54155,"SoundDuration":54155,"Delta":81040331},{"NoteNumber":66,"Velocity":41,"Duration":236480,"SoundDuration":236480,"Delta":81094486},{"NoteNumber":49,"Velocity":24,"Duration":59120,"SoundDuration":59120,"Delta":81094486},{"NoteNumber":65,"Velocity":41,"Duration":236480,"SoundDuration":236480,"Delta":81330967},{"NoteNumber":49,"Velocity":24,"Duration":59120,"SoundDuration":59120,"Delta":81330967},{"NoteNumber":63,"Velocity":48,"Duration":233553,"SoundDuration":233553,"Delta":81567448},{"NoteNumber":54,"Velocity":25,"Duration":58388,"SoundDuration":58388,"Delta":81567448},{"NoteNumber":58,"Velocity":30,"Duration":58388,"SoundDuration":58388,"Delta":81567448},{"NoteNumber":65,"Velocity":41,"Duration":114425,"SoundDuration":114425,"Delta":81801002},{"NoteNumber":42,"Velocity":24,"Duration":57212,"SoundDuration":57212,"Delta":81801002},{"NoteNumber":66,"Velocity":41,"Duration":114118,"SoundDuration":114118,"Delta":81915427},{"NoteNumber":68,"Velocity":43,"Duration":113812,"SoundDuration":113812,"Delta":82029545},{"NoteNumber":42,"Velocity":24,"Duration":56982,"SoundDuration":56982,"Delta":82029545},{"NoteNumber":70,"Velocity":44,"Duration":113356,"SoundDuration":113356,"Delta":82143358},{"NoteNumber":72,"Velocity":52,"Duration":232612,"SoundDuration":232612,"Delta":82256714},{"NoteNumber":63,"Velocity":24,"Duration":58153,"SoundDuration":58153,"Delta":82256714},{"NoteNumber":66,"Velocity":29,"Duration":58153,"SoundDuration":58153,"Delta":82256714},{"NoteNumber":70,"Velocity":50,"Duration":114425,"SoundDuration":114425,"Delta":82489326},{"NoteNumber":56,"Velocity":24,"Duration":57212,"SoundDuration":57212,"Delta":82489326},{"NoteNumber":72,"Velocity":46,"Duration":114425,"SoundDuration":114425,"Delta":82603751},{"NoteNumber":73,"Velocity":48,"Duration":114425,"SoundDuration":114425,"Delta":82718176},{"NoteNumber":56,"Velocity":24,"Duration":57212,"SoundDuration":57212,"Delta":82718176},{"NoteNumber":75,"Velocity":50,"Duration":114425,"SoundDuration":114425,"Delta":82832602},{"NoteNumber":77,"Velocity":53,"Duration":59120,"SoundDuration":59120,"Delta":82947027},{"NoteNumber":65,"Velocity":29,"Duration":59120,"SoundDuration":59120,"Delta":82947027},{"NoteNumber":61,"Velocity":24,"Duration":59120,"SoundDuration":59120,"Delta":82947027},{"NoteNumber":77,"Velocity":45,"Duration":59618,"SoundDuration":59618,"Delta":83184171},{"NoteNumber":49,"Velocity":24,"Duration":59618,"SoundDuration":59618,"Delta":83184171},{"NoteNumber":77,"Velocity":44,"Duration":60376,"SoundDuration":60376,"Delta":83423650},{"NoteNumber":49,"Velocity":24,"Duration":60376,"SoundDuration":60376,"Delta":83423650},{"NoteNumber":61,"Velocity":25,"Duration":60635,"SoundDuration":60635,"Delta":83665157},{"NoteNumber":65,"Velocity":30,"Duration":60635,"SoundDuration":60635,"Delta":83665157},{"NoteNumber":49,"Velocity":25,"Duration":61424,"SoundDuration":61424,"Delta":83907699},{"NoteNumber":49,"Velocity":25,"Duration":63062,"SoundDuration":63062,"Delta":84153399},{"NoteNumber":61,"Velocity":25,"Duration":60376,"SoundDuration":60376,"Delta":84405648},{"NoteNumber":65,"Velocity":31,"Duration":60376,"SoundDuration":60376,"Delta":84408667},{"NoteNumber":49,"Velocity":28,"Duration":61424,"SoundDuration":61424,"Delta":84647155},{"NoteNumber":49,"Velocity":28,"Duration":62782,"SoundDuration":62782,"Delta":84892855},{"NoteNumber":73,"Velocity":40,"Duration":180531,"SoundDuration":180531,"Delta":85081203},{"NoteNumber":77,"Velocity":40,"Duration":149140,"SoundDuration":149140,"Delta":85112594},{"NoteNumber":80,"Velocity":51,"Duration":117748,"SoundDuration":117748,"Delta":85143985},{"NoteNumber":61,"Velocity":28,"Duration":58874,"SoundDuration":58874,"Delta":85143985},{"NoteNumber":65,"Velocity":33,"Duration":58874,"SoundDuration":58874,"Delta":85143985},{"NoteNumber":78,"Velocity":40,"Duration":115358,"SoundDuration":115358,"Delta":85379483},{"NoteNumber":49,"Velocity":28,"Duration":57678,"SoundDuration":57678,"Delta":85379483},{"NoteNumber":77,"Velocity":40,"Duration":115358,"SoundDuration":115358,"Delta":85494841},{"NoteNumber":75,"Velocity":40,"Duration":119236,"SoundDuration":119236,"Delta":85610199},{"NoteNumber":49,"Velocity":28,"Duration":59618,"SoundDuration":59618,"Delta":85610199},{"NoteNumber":73,"Velocity":40,"Duration":119236,"SoundDuration":119236,"Delta":85729436},{"NoteNumber":68,"Velocity":40,"Duration":175924,"SoundDuration":175924,"Delta":85789054},{"NoteNumber":72,"Velocity":40,"Duration":146115,"SoundDuration":146115,"Delta":85818863},{"NoteNumber":75,"Velocity":49,"Duration":116305,"SoundDuration":116305,"Delta":85848673},{"NoteNumber":61,"Velocity":28,"Duration":58153,"SoundDuration":58153,"Delta":85848673},{"NoteNumber":66,"Velocity":34,"Duration":58153,"SoundDuration":58153,"Delta":85848673},{"NoteNumber":73,"Velocity":40,"Duration":115358,"SoundDuration":115358,"Delta":86081285},{"NoteNumber":49,"Velocity":28,"Duration":57678,"SoundDuration":57678,"Delta":86081285},{"NoteNumber":72,"Velocity":40,"Duration":115358,"SoundDuration":115358,"Delta":86196643},{"NoteNumber":70,"Velocity":40,"Duration":120240,"SoundDuration":120240,"Delta":86312001},{"NoteNumber":49,"Velocity":28,"Duration":60120,"SoundDuration":60120,"Delta":86312001},{"NoteNumber":68,"Velocity":40,"Duration":120240,"SoundDuration":120240,"Delta":86432241},{"NoteNumber":73,"Velocity":40,"Duration":181912,"SoundDuration":181912,"Delta":86492361},{"NoteNumber":77,"Velocity":40,"Duration":151852,"SoundDuration":151852,"Delta":86522421},{"NoteNumber":80,"Velocity":53,"Duration":121792,"SoundDuration":121792,"Delta":86552482},{"NoteNumber":61,"Velocity":28,"Duration":60896,"SoundDuration":60896,"Delta":86552482},{"NoteNumber":65,"Velocity":33,"Duration":60896,"SoundDuration":60896,"Delta":86552482},{"NoteNumber":78,"Velocity":42,"Duration":115358,"SoundDuration":115358,"Delta":86796067},{"NoteNumber":49,"Velocity":28,"Duration":57678,"SoundDuration":57678,"Delta":86796067},{"NoteNumber":77,"Velocity":45,"Duration":115358,"SoundDuration":115358,"Delta":86911425},{"NoteNumber":75,"Velocity":47,"Duration":115358,"SoundDuration":115358,"Delta":87026783},{"NoteNumber":49,"Velocity":33,"Duration":57678,"SoundDuration":57678,"Delta":87026783},{"NoteNumber":73,"Velocity":51,"Duration":116819,"SoundDuration":116819,"Delta":87142141},{"NoteNumber":85,"Velocity":57,"Duration":59953,"SoundDuration":59953,"Delta":87258960},{"NoteNumber":81,"Velocity":57,"Duration":59953,"SoundDuration":59953,"Delta":87258960},{"NoteNumber":78,"Velocity":57,"Duration":59953,"SoundDuration":59953,"Delta":87258960},{"NoteNumber":61,"Velocity":31,"Duration":59953,"SoundDuration":59953,"Delta":87258960},{"NoteNumber":66,"Velocity":38,"Duration":59953,"SoundDuration":59953,"Delta":87258960},{"NoteNumber":78,"Velocity":51,"Duration":60896,"SoundDuration":60896,"Delta":87500133},{"NoteNumber":81,"Velocity":51,"Duration":60896,"SoundDuration":60896,"Delta":87500133},{"NoteNumber":85,"Velocity":51,"Duration":60896,"SoundDuration":60896,"Delta":87500133},{"NoteNumber":49,"Velocity":28,"Duration":60896,"SoundDuration":60896,"Delta":87500133},{"NoteNumber":78,"Velocity":51,"Duration":61957,"SoundDuration":61957,"Delta":87745130},{"NoteNumber":81,"Velocity":51,"Duration":61957,"SoundDuration":61957,"Delta":87745130},{"NoteNumber":85,"Velocity":51,"Duration":61957,"SoundDuration":61957,"Delta":87745130},{"NoteNumber":49,"Velocity":28,"Duration":61957,"SoundDuration":61957,"Delta":87745130},{"NoteNumber":57,"Velocity":28,"Duration":58388,"SoundDuration":58388,"Delta":87992961},{"NoteNumber":61,"Velocity":28,"Duration":58388,"SoundDuration":58388,"Delta":87992961},{"NoteNumber":66,"Velocity":33,"Duration":58388,"SoundDuration":58388,"Delta":87992961},{"NoteNumber":54,"Velocity":25,"Duration":60635,"SoundDuration":60635,"Delta":88226515},{"NoteNumber":54,"Velocity":25,"Duration":61692,"SoundDuration":61692,"Delta":88469057},{"NoteNumber":57,"Velocity":25,"Duration":58153,"SoundDuration":58153,"Delta":88715829},{"NoteNumber":61,"Velocity":25,"Duration":58153,"SoundDuration":58153,"Delta":88715829},{"NoteNumber":66,"Velocity":30,"Duration":58153,"SoundDuration":58153,"Delta":88715829},{"NoteNumber":54,"Velocity":25,"Duration":60635,"SoundDuration":60635,"Delta":88948441},{"NoteNumber":54,"Velocity":25,"Duration":62230,"SoundDuration":62230,"Delta":89190983},{"NoteNumber":73,"Velocity":53,"Duration":234724,"SoundDuration":234724,"Delta":89439904},{"NoteNumber":66,"Velocity":29,"Duration":60120,"SoundDuration":60120,"Delta":89439904},{"NoteNumber":57,"Velocity":24,"Duration":60120,"SoundDuration":60120,"Delta":89439904},{"NoteNumber":61,"Velocity":24,"Duration":60120,"SoundDuration":60120,"Delta":89439904},{"NoteNumber":76,"Velocity":38,"Duration":54363,"SoundDuration":54363,"Delta":89620265},{"NoteNumber":74,"Velocity":45,"Duration":236480,"SoundDuration":236480,"Delta":89674628},{"NoteNumber":54,"Velocity":24,"Duration":59120,"SoundDuration":59120,"Delta":89674628},{"NoteNumber":73,"Velocity":45,"Duration":236480,"SoundDuration":236480,"Delta":89911109},{"NoteNumber":54,"Velocity":24,"Duration":59120,"SoundDuration":59120,"Delta":89911109},{"NoteNumber":71,"Velocity":52,"Duration":230716,"SoundDuration":230716,"Delta":90147590},{"NoteNumber":62,"Velocity":25,"Duration":57678,"SoundDuration":57678,"Delta":90147590},{"NoteNumber":66,"Velocity":30,"Duration":57678,"SoundDuration":57678,"Delta":90147590},{"NoteNumber":73,"Velocity":45,"Duration":114425,"SoundDuration":114425,"Delta":90378306},{"NoteNumber":50,"Velocity":24,"Duration":57212,"SoundDuration":57212,"Delta":90378306},{"NoteNumber":74,"Velocity":45,"Duration":114425,"SoundDuration":114425,"Delta":90492732},{"NoteNumber":76,"Velocity":47,"Duration":114425,"SoundDuration":114425,"Delta":90607157},{"NoteNumber":50,"Velocity":24,"Duration":57212,"SoundDuration":57212,"Delta":90607157},{"NoteNumber":78,"Velocity":48,"Duration":114425,"SoundDuration":114425,"Delta":90721582},{"NoteNumber":80,"Velocity":52,"Duration":231660,"SoundDuration":231660,"Delta":90836007},{"NoteNumber":62,"Velocity":24,"Duration":57914,"SoundDuration":57914,"Delta":90836007},{"NoteNumber":64,"Velocity":29,"Duration":57914,"SoundDuration":57914,"Delta":90836007},{"NoteNumber":78,"Velocity":53,"Duration":114425,"SoundDuration":114425,"Delta":91067667},{"NoteNumber":52,"Velocity":24,"Duration":57212,"SoundDuration":57212,"Delta":91067667},{"NoteNumber":80,"Velocity":43,"Duration":114425,"SoundDuration":114425,"Delta":91182093},{"NoteNumber":81,"Velocity":46,"Duration":117260,"SoundDuration":117260,"Delta":91296518},{"NoteNumber":52,"Velocity":24,"Duration":58630,"SoundDuration":58630,"Delta":91296518},{"NoteNumber":83,"Velocity":49,"Duration":117260,"SoundDuration":117260,"Delta":91413779},{"NoteNumber":85,"Velocity":52,"Duration":57968,"SoundDuration":57968,"Delta":91531039},{"NoteNumber":64,"Velocity":29,"Duration":57968,"SoundDuration":57968,"Delta":91531039},{"NoteNumber":61,"Velocity":24,"Duration":57968,"SoundDuration":57968,"Delta":91531039},{"NoteNumber":85,"Velocity":49,"Duration":57968,"SoundDuration":57968,"Delta":91762914},{"NoteNumber":57,"Velocity":24,"Duration":57968,"SoundDuration":57968,"Delta":91762914},{"NoteNumber":85,"Velocity":48,"Duration":59325,"SoundDuration":59325,"Delta":91994789},{"NoteNumber":57,"Velocity":24,"Duration":59325,"SoundDuration":59325,"Delta":91994789},{"NoteNumber":61,"Velocity":25,"Duration":60635,"SoundDuration":60635,"Delta":92232093},{"NoteNumber":64,"Velocity":30,"Duration":60635,"SoundDuration":60635,"Delta":92232093},{"NoteNumber":57,"Velocity":25,"Duration":60635,"SoundDuration":60635,"Delta":92474635},{"NoteNumber":57,"Velocity":26,"Duration":63062,"SoundDuration":63062,"Delta":92717177},{"NoteNumber":73,"Velocity":53,"Duration":59120,"SoundDuration":59120,"Delta":92969426},{"NoteNumber":64,"Velocity":29,"Duration":59120,"SoundDuration":59120,"Delta":92969426},{"NoteNumber":61,"Velocity":24,"Duration":59120,"SoundDuration":59120,"Delta":92969426},{"NoteNumber":73,"Velocity":45,"Duration":59120,"SoundDuration":59120,"Delta":93205907},{"NoteNumber":57,"Velocity":24,"Duration":59120,"SoundDuration":59120,"Delta":93205907},{"NoteNumber":73,"Velocity":45,"Duration":59120,"SoundDuration":59120,"Delta":93442388},{"NoteNumber":57,"Velocity":24,"Duration":59120,"SoundDuration":59120,"Delta":93442388},{"NoteNumber":73,"Velocity":52,"Duration":230716,"SoundDuration":230716,"Delta":93678869},{"NoteNumber":61,"Velocity":25,"Duration":57678,"SoundDuration":57678,"Delta":93678869},{"NoteNumber":64,"Velocity":30,"Duration":57678,"SoundDuration":57678,"Delta":93678869},{"NoteNumber":76,"Velocity":45,"Duration":115358,"SoundDuration":115358,"Delta":93909585},{"NoteNumber":58,"Velocity":24,"Duration":57678,"SoundDuration":57678,"Delta":93909585},{"NoteNumber":74,"Velocity":45,"Duration":115358,"SoundDuration":115358,"Delta":94024943},{"NoteNumber":73,"Velocity":47,"Duration":115358,"SoundDuration":115358,"Delta":94140301},{"NoteNumber":58,"Velocity":24,"Duration":57678,"SoundDuration":57678,"Delta":94140301},{"NoteNumber":76,"Velocity":48,"Duration":115358,"SoundDuration":115358,"Delta":94255659},{"NoteNumber":74,"Velocity":52,"Duration":58388,"SoundDuration":58388,"Delta":94371017},{"NoteNumber":62,"Velocity":24,"Duration":58388,"SoundDuration":58388,"Delta":94371017},{"NoteNumber":64,"Velocity":29,"Duration":58388,"SoundDuration":58388,"Delta":94371017},{"NoteNumber":74,"Velocity":52,"Duration":57444,"SoundDuration":57444,"Delta":94604571},{"NoteNumber":59,"Velocity":24,"Duration":57444,"SoundDuration":57444,"Delta":94604571},{"NoteNumber":74,"Velocity":51,"Duration":60120,"SoundDuration":60120,"Delta":94834351},{"NoteNumber":59,"Velocity":24,"Duration":60120,"SoundDuration":60120,"Delta":94834351},{"NoteNumber":86,"Velocity":52,"Duration":59368,"SoundDuration":59368,"Delta":95074832},{"NoteNumber":64,"Velocity":29,"Duration":59368,"SoundDuration":59368,"Delta":95074832},{"NoteNumber":62,"Velocity":24,"Duration":59368,"SoundDuration":59368,"Delta":95074832},{"NoteNumber":86,"Velocity":49,"Duration":59368,"SoundDuration":59368,"Delta":95312305},{"NoteNumber":59,"Velocity":24,"Duration":59368,"SoundDuration":59368,"Delta":95312305},{"NoteNumber":86,"Velocity":48,"Duration":59325,"SoundDuration":59325,"Delta":95549779},{"NoteNumber":59,"Velocity":24,"Duration":59325,"SoundDuration":59325,"Delta":95549779},{"NoteNumber":62,"Velocity":22,"Duration":60635,"SoundDuration":60635,"Delta":95787083},{"NoteNumber":64,"Velocity":25,"Duration":60635,"SoundDuration":60635,"Delta":95787083},{"NoteNumber":59,"Velocity":22,"Duration":60635,"SoundDuration":60635,"Delta":96029625},{"NoteNumber":59,"Velocity":22,"Duration":63062,"SoundDuration":63062,"Delta":96272167},{"NoteNumber":74,"Velocity":53,"Duration":59120,"SoundDuration":59120,"Delta":96524416},{"NoteNumber":64,"Velocity":29,"Duration":59120,"SoundDuration":59120,"Delta":96524416},{"NoteNumber":62,"Velocity":24,"Duration":59120,"SoundDuration":59120,"Delta":96524416},{"NoteNumber":74,"Velocity":45,"Duration":59120,"SoundDuration":59120,"Delta":96760897},{"NoteNumber":59,"Velocity":24,"Duration":59120,"SoundDuration":59120,"Delta":96760897},{"NoteNumber":74,"Velocity":45,"Duration":59120,"SoundDuration":59120,"Delta":96997378},{"NoteNumber":59,"Velocity":24,"Duration":59120,"SoundDuration":59120,"Delta":96997378},{"NoteNumber":74,"Velocity":52,"Duration":230716,"SoundDuration":230716,"Delta":97233859},{"NoteNumber":62,"Velocity":25,"Duration":57678,"SoundDuration":57678,"Delta":97233859},{"NoteNumber":65,"Velocity":30,"Duration":57678,"SoundDuration":57678,"Delta":97233859},{"NoteNumber":77,"Velocity":45,"Duration":114425,"SoundDuration":114425,"Delta":97464575},{"NoteNumber":59,"Velocity":24,"Duration":57212,"SoundDuration":57212,"Delta":97464575},{"NoteNumber":76,"Velocity":45,"Duration":114425,"SoundDuration":114425,"Delta":97579000},{"NoteNumber":74,"Velocity":47,"Duration":114425,"SoundDuration":114425,"Delta":97693425},{"NoteNumber":59,"Velocity":24,"Duration":57212,"SoundDuration":57212,"Delta":97693425},{"NoteNumber":77,"Velocity":48,"Duration":114425,"SoundDuration":114425,"Delta":97807851},{"NoteNumber":74,"Velocity":52,"Duration":58630,"SoundDuration":58630,"Delta":97922276},{"NoteNumber":62,"Velocity":24,"Duration":58630,"SoundDuration":58630,"Delta":97922276},{"NoteNumber":65,"Velocity":29,"Duration":58630,"SoundDuration":58630,"Delta":97922276},{"NoteNumber":74,"Velocity":52,"Duration":56982,"SoundDuration":56982,"Delta":98156797},{"NoteNumber":59,"Velocity":24,"Duration":56982,"SoundDuration":56982,"Delta":98156797},{"NoteNumber":74,"Velocity":52,"Duration":62782,"SoundDuration":62782,"Delta":98384726},{"NoteNumber":59,"Velocity":24,"Duration":62782,"SoundDuration":62782,"Delta":98384726},{"NoteNumber":86,"Velocity":52,"Duration":60376,"SoundDuration":60376,"Delta":98635856},{"NoteNumber":65,"Velocity":29,"Duration":60376,"SoundDuration":60376,"Delta":98635856},{"NoteNumber":62,"Velocity":24,"Duration":60376,"SoundDuration":60376,"Delta":98635856},{"NoteNumber":86,"Velocity":49,"Duration":61424,"SoundDuration":61424,"Delta":98877363},{"NoteNumber":59,"Velocity":24,"Duration":61424,"SoundDuration":61424,"Delta":98877363},{"NoteNumber":86,"Velocity":48,"Duration":62782,"SoundDuration":62782,"Delta":99123063},{"NoteNumber":59,"Velocity":24,"Duration":62782,"SoundDuration":62782,"Delta":99123063},{"NoteNumber":74,"Velocity":56,"Duration":233553,"SoundDuration":233553,"Delta":99374193},{"NoteNumber":59,"Velocity":26,"Duration":116776,"SoundDuration":116776,"Delta":99374193},{"NoteNumber":62,"Velocity":32,"Duration":116776,"SoundDuration":116776,"Delta":99374193},{"NoteNumber":65,"Velocity":26,"Duration":116776,"SoundDuration":116776,"Delta":99490970},{"NoteNumber":73,"Velocity":52,"Duration":233553,"SoundDuration":233553,"Delta":99607747},{"NoteNumber":62,"Velocity":28,"Duration":116776,"SoundDuration":116776,"Delta":99607747},{"NoteNumber":59,"Velocity":22,"Duration":116776,"SoundDuration":116776,"Delta":99607747},{"NoteNumber":65,"Velocity":26,"Duration":116776,"SoundDuration":116776,"Delta":99724524},{"NoteNumber":74,"Velocity":52,"Duration":239482,"SoundDuration":239482,"Delta":99841301},{"NoteNumber":62,"Velocity":28,"Duration":119741,"SoundDuration":119741,"Delta":99841301},{"NoteNumber":59,"Velocity":22,"Duration":119741,"SoundDuration":119741,"Delta":99841301},{"NoteNumber":65,"Velocity":26,"Duration":119741,"SoundDuration":119741,"Delta":99961043},{"NoteNumber":86,"Velocity":56,"Duration":232612,"SoundDuration":232612,"Delta":100080784},{"NoteNumber":58,"Velocity":26,"Duration":116305,"SoundDuration":116305,"Delta":100080784},{"NoteNumber":62,"Velocity":32,"Duration":116305,"SoundDuration":116305,"Delta":100080784},{"NoteNumber":65,"Velocity":26,"Duration":116306,"SoundDuration":116306,"Delta":100197090},{"NoteNumber":85,"Velocity":52,"Duration":232612,"SoundDuration":232612,"Delta":100313396},{"NoteNumber":62,"Velocity":28,"Duration":116305,"SoundDuration":116305,"Delta":100313396},{"NoteNumber":58,"Velocity":22,"Duration":116305,"SoundDuration":116305,"Delta":100313396},{"NoteNumber":65,"Velocity":26,"Duration":116306,"SoundDuration":116306,"Delta":100429702},{"NoteNumber":86,"Velocity":52,"Duration":239482,"SoundDuration":239482,"Delta":100546008},{"NoteNumber":62,"Velocity":28,"Duration":119741,"SoundDuration":119741,"Delta":100546008},{"NoteNumber":58,"Velocity":22,"Duration":119741,"SoundDuration":119741,"Delta":100546008},{"NoteNumber":65,"Velocity":26,"Duration":119741,"SoundDuration":119741,"Delta":100665749},{"NoteNumber":82,"Velocity":54,"Duration":230893,"SoundDuration":230893,"Delta":100785490},{"NoteNumber":58,"Velocity":31,"Duration":115446,"SoundDuration":115446,"Delta":100785490},{"NoteNumber":62,"Velocity":38,"Duration":115446,"SoundDuration":115446,"Delta":100785490},{"NoteNumber":65,"Velocity":25,"Duration":115446,"SoundDuration":115446,"Delta":100900937},{"NoteNumber":81,"Velocity":47,"Duration":230893,"SoundDuration":230893,"Delta":101016384},{"NoteNumber":58,"Velocity":24,"Duration":115446,"SoundDuration":115446,"Delta":101016384},{"NoteNumber":62,"Velocity":29,"Duration":115446,"SoundDuration":115446,"Delta":101016384},{"NoteNumber":65,"Velocity":24,"Duration":115446,"SoundDuration":115446,"Delta":101131831},{"NoteNumber":82,"Velocity":48,"Duration":230893,"SoundDuration":230893,"Delta":101247277},{"NoteNumber":58,"Velocity":24,"Duration":115446,"SoundDuration":115446,"Delta":101247277},{"NoteNumber":62,"Velocity":29,"Duration":115446,"SoundDuration":115446,"Delta":101247277},{"NoteNumber":65,"Velocity":25,"Duration":115446,"SoundDuration":115446,"Delta":101362724},{"NoteNumber":79,"Velocity":51,"Duration":228137,"SoundDuration":228137,"Delta":101478171},{"NoteNumber":58,"Velocity":29,"Duration":114068,"SoundDuration":114068,"Delta":101478171},{"NoteNumber":63,"Velocity":34,"Duration":114068,"SoundDuration":114068,"Delta":101478171},{"NoteNumber":67,"Velocity":26,"Duration":114068,"SoundDuration":114068,"Delta":101592239},{"NoteNumber":81,"Velocity":48,"Duration":113156,"SoundDuration":113156,"Delta":101706308},{"NoteNumber":58,"Velocity":25,"Duration":113156,"SoundDuration":113156,"Delta":101706308},{"NoteNumber":63,"Velocity":30,"Duration":113156,"SoundDuration":113156,"Delta":101706308},{"NoteNumber":82,"Velocity":49,"Duration":113156,"SoundDuration":113156,"Delta":101819464},{"NoteNumber":67,"Velocity":25,"Duration":113156,"SoundDuration":113156,"Delta":101819464},{"NoteNumber":84,"Velocity":51,"Duration":113156,"SoundDuration":113156,"Delta":101932620},{"NoteNumber":58,"Velocity":25,"Duration":113156,"SoundDuration":113156,"Delta":101932620},{"NoteNumber":63,"Velocity":30,"Duration":113156,"SoundDuration":113156,"Delta":101932620},{"NoteNumber":86,"Velocity":52,"Duration":113156,"SoundDuration":113156,"Delta":102045777},{"NoteNumber":67,"Velocity":25,"Duration":113156,"SoundDuration":113156,"Delta":102045777},{"NoteNumber":82,"Velocity":57,"Duration":231499,"SoundDuration":231499,"Delta":102158933},{"NoteNumber":58,"Velocity":35,"Duration":115749,"SoundDuration":115749,"Delta":102158933},{"NoteNumber":62,"Velocity":43,"Duration":115749,"SoundDuration":115749,"Delta":102158933},{"NoteNumber":65,"Velocity":28,"Duration":115749,"SoundDuration":115749,"Delta":102274683},{"NoteNumber":84,"Velocity":58,"Duration":114364,"SoundDuration":114364,"Delta":102390432},{"NoteNumber":62,"Velocity":31,"Duration":114364,"SoundDuration":114364,"Delta":102390432},{"NoteNumber":58,"Velocity":25,"Duration":114364,"SoundDuration":114364,"Delta":102390432},{"NoteNumber":82,"Velocity":51,"Duration":114364,"SoundDuration":114364,"Delta":102504797},{"NoteNumber":65,"Velocity":26,"Duration":114364,"SoundDuration":114364,"Delta":102504797},{"NoteNumber":81,"Velocity":56,"Duration":114364,"SoundDuration":114364,"Delta":102619161},{"NoteNumber":58,"Velocity":26,"Duration":114364,"SoundDuration":114364,"Delta":102619161},{"NoteNumber":62,"Velocity":32,"Duration":114364,"SoundDuration":114364,"Delta":102619161},{"NoteNumber":79,"Velocity":51,"Duration":114364,"SoundDuration":114364,"Delta":102733525},{"NoteNumber":65,"Velocity":26,"Duration":114364,"SoundDuration":114364,"Delta":102733525},{"NoteNumber":77,"Velocity":61,"Duration":58589,"SoundDuration":58589,"Delta":102847889},{"NoteNumber":57,"Velocity":32,"Duration":117178,"SoundDuration":117178,"Delta":102847889},{"NoteNumber":63,"Velocity":39,"Duration":117178,"SoundDuration":117178,"Delta":102847889},{"NoteNumber":65,"Velocity":28,"Duration":117178,"SoundDuration":117178,"Delta":102965068},{"NoteNumber":77,"Velocity":56,"Duration":58589,"SoundDuration":58589,"Delta":103082246},{"NoteNumber":57,"Velocity":26,"Duration":117178,"SoundDuration":117178,"Delta":103082246},{"NoteNumber":63,"Velocity":32,"Duration":117178,"SoundDuration":117178,"Delta":103082246},{"NoteNumber":65,"Velocity":29,"Duration":117178,"SoundDuration":117178,"Delta":103199424},{"NoteNumber":77,"Velocity":56,"Duration":59961,"SoundDuration":59961,"Delta":103316602},{"NoteNumber":57,"Velocity":28,"Duration":119923,"SoundDuration":119923,"Delta":103316602},{"NoteNumber":63,"Velocity":33,"Duration":119923,"SoundDuration":119923,"Delta":103316602},{"NoteNumber":65,"Velocity":28,"Duration":119923,"SoundDuration":119923,"Delta":103436526},{"NoteNumber":78,"Velocity":69,"Duration":234319,"SoundDuration":234319,"Delta":103556449},{"NoteNumber":57,"Velocity":35,"Duration":117159,"SoundDuration":117159,"Delta":103556449},{"NoteNumber":63,"Velocity":42,"Duration":117159,"SoundDuration":117159,"Delta":103556449},{"NoteNumber":66,"Velocity":29,"Duration":117159,"SoundDuration":117159,"Delta":103673609},{"NoteNumber":90,"Velocity":66,"Duration":234319,"SoundDuration":234319,"Delta":103790769},{"NoteNumber":57,"Velocity":28,"Duration":117159,"SoundDuration":117159,"Delta":103790769},{"NoteNumber":63,"Velocity":34,"Duration":117159,"SoundDuration":117159,"Delta":103790769},{"NoteNumber":66,"Velocity":29,"Duration":117159,"SoundDuration":117159,"Delta":103907929},{"NoteNumber":90,"Velocity":67,"Duration":59722,"SoundDuration":59722,"Delta":104025089},{"NoteNumber":57,"Velocity":28,"Duration":119445,"SoundDuration":119445,"Delta":104025089},{"NoteNumber":63,"Velocity":34,"Duration":119445,"SoundDuration":119445,"Delta":104025089},{"NoteNumber":66,"Velocity":30,"Duration":119445,"SoundDuration":119445,"Delta":104144535},{"NoteNumber":91,"Velocity":76,"Duration":234319,"SoundDuration":234319,"Delta":104263980},{"NoteNumber":58,"Velocity":34,"Duration":117159,"SoundDuration":117159,"Delta":104263980},{"NoteNumber":63,"Velocity":40,"Duration":117159,"SoundDuration":117159,"Delta":104263980},{"NoteNumber":67,"Velocity":30,"Duration":117159,"SoundDuration":117159,"Delta":104381140},{"NoteNumber":79,"Velocity":61,"Duration":234319,"SoundDuration":234319,"Delta":104498300},{"NoteNumber":58,"Velocity":29,"Duration":117159,"SoundDuration":117159,"Delta":104498300},{"NoteNumber":63,"Velocity":34,"Duration":117159,"SoundDuration":117159,"Delta":104498300},{"NoteNumber":67,"Velocity":30,"Duration":117159,"SoundDuration":117159,"Delta":104615460},{"NoteNumber":79,"Velocity":61,"Duration":58580,"SoundDuration":58580,"Delta":104732620},{"NoteNumber":58,"Velocity":29,"Duration":117160,"SoundDuration":117160,"Delta":104732620},{"NoteNumber":63,"Velocity":34,"Duration":117160,"SoundDuration":117160,"Delta":104732620},{"NoteNumber":67,"Velocity":30,"Duration":117159,"SoundDuration":117159,"Delta":104849780},{"NoteNumber":81,"Velocity":65,"Duration":58579,"SoundDuration":58579,"Delta":104966940},{"NoteNumber":60,"Velocity":35,"Duration":117159,"SoundDuration":117159,"Delta":104966940},{"NoteNumber":63,"Velocity":42,"Duration":117159,"SoundDuration":117159,"Delta":104966940},{"NoteNumber":67,"Velocity":31,"Duration":117159,"SoundDuration":117159,"Delta":105084100},{"NoteNumber":94,"Velocity":62,"Duration":29290,"SoundDuration":29290,"Delta":105171970},{"NoteNumber":93,"Velocity":65,"Duration":114364,"SoundDuration":114364,"Delta":105201260},{"NoteNumber":60,"Velocity":30,"Duration":114364,"SoundDuration":114364,"Delta":105201260},{"NoteNumber":63,"Velocity":35,"Duration":114364,"SoundDuration":114364,"Delta":105201260},{"NoteNumber":91,"Velocity":62,"Duration":114364,"SoundDuration":114364,"Delta":105315625},{"NoteNumber":67,"Velocity":31,"Duration":114364,"SoundDuration":114364,"Delta":105315625},{"NoteNumber":93,"Velocity":66,"Duration":231499,"SoundDuration":231499,"Delta":105429989},{"NoteNumber":60,"Velocity":31,"Duration":115749,"SoundDuration":115749,"Delta":105429989},{"NoteNumber":63,"Velocity":37,"Duration":115749,"SoundDuration":115749,"Delta":105429989},{"NoteNumber":67,"Velocity":32,"Duration":115749,"SoundDuration":115749,"Delta":105545739},{"NoteNumber":94,"Velocity":68,"Duration":57874,"SoundDuration":57874,"Delta":105661488},{"NoteNumber":55,"Velocity":35,"Duration":115749,"SoundDuration":115749,"Delta":105661488},{"NoteNumber":62,"Velocity":43,"Duration":115749,"SoundDuration":115749,"Delta":105661488},{"NoteNumber":67,"Velocity":32,"Duration":115749,"SoundDuration":115749,"Delta":105777238},{"NoteNumber":84,"Velocity":61,"Duration":28937,"SoundDuration":28937,"Delta":105864051},{"NoteNumber":82,"Velocity":63,"Duration":114364,"SoundDuration":114364,"Delta":105892988},{"NoteNumber":55,"Velocity":31,"Duration":114364,"SoundDuration":114364,"Delta":105892988},{"NoteNumber":62,"Velocity":37,"Duration":114364,"SoundDuration":114364,"Delta":105892988},{"NoteNumber":81,"Velocity":60,"Duration":114364,"SoundDuration":114364,"Delta":106007352},{"NoteNumber":67,"Velocity":32,"Duration":114364,"SoundDuration":114364,"Delta":106007352},{"NoteNumber":82,"Velocity":65,"Duration":122329,"SoundDuration":122329,"Delta":106121716},{"NoteNumber":55,"Velocity":31,"Duration":122329,"SoundDuration":122329,"Delta":106121716},{"NoteNumber":62,"Velocity":37,"Duration":122329,"SoundDuration":122329,"Delta":106121716},{"NoteNumber":67,"Velocity":33,"Duration":122329,"SoundDuration":122329,"Delta":106244046},{"NoteNumber":75,"Velocity":44,"Duration":117600,"SoundDuration":117600,"Delta":106366375},{"NoteNumber":79,"Velocity":52,"Duration":117600,"SoundDuration":117600,"Delta":106366375},{"NoteNumber":63,"Velocity":62,"Duration":235202,"SoundDuration":235202,"Delta":106366375},{"NoteNumber":82,"Velocity":46,"Duration":117601,"SoundDuration":117601,"Delta":106483976},{"NoteNumber":75,"Velocity":45,"Duration":117600,"SoundDuration":117600,"Delta":106601577},{"NoteNumber":79,"Velocity":53,"Duration":117600,"SoundDuration":117600,"Delta":106601577},{"NoteNumber":62,"Velocity":52,"Duration":235202,"SoundDuration":235202,"Delta":106601577},{"NoteNumber":82,"Velocity":45,"Duration":117601,"SoundDuration":117601,"Delta":106719178},{"NoteNumber":75,"Velocity":45,"Duration":117600,"SoundDuration":117600,"Delta":106836779},{"NoteNumber":79,"Velocity":53,"Duration":117600,"SoundDuration":117600,"Delta":106836779},{"NoteNumber":63,"Velocity":52,"Duration":235202,"SoundDuration":235202,"Delta":106836779},{"NoteNumber":82,"Velocity":46,"Duration":117601,"SoundDuration":117601,"Delta":106954380},{"NoteNumber":75,"Velocity":46,"Duration":115278,"SoundDuration":115278,"Delta":107071981},{"NoteNumber":79,"Velocity":54,"Duration":115278,"SoundDuration":115278,"Delta":107071981},{"NoteNumber":60,"Velocity":62,"Duration":230556,"SoundDuration":230556,"Delta":107071981},{"NoteNumber":84,"Velocity":46,"Duration":115278,"SoundDuration":115278,"Delta":107187259},{"NoteNumber":75,"Velocity":45,"Duration":114364,"SoundDuration":114364,"Delta":107302537},{"NoteNumber":79,"Velocity":53,"Duration":114364,"SoundDuration":114364,"Delta":107302537},{"NoteNumber":62,"Velocity":50,"Duration":114364,"SoundDuration":114364,"Delta":107302537},{"NoteNumber":84,"Velocity":45,"Duration":114364,"SoundDuration":114364,"Delta":107416902},{"NoteNumber":63,"Velocity":50,"Duration":114364,"SoundDuration":114364,"Delta":107416902},{"NoteNumber":75,"Velocity":45,"Duration":114364,"SoundDuration":114364,"Delta":107531266},{"NoteNumber":79,"Velocity":53,"Duration":114364,"SoundDuration":114364,"Delta":107531266},{"NoteNumber":65,"Velocity":52,"Duration":114364,"SoundDuration":114364,"Delta":107531266},{"NoteNumber":84,"Velocity":45,"Duration":114364,"SoundDuration":114364,"Delta":107645630},{"NoteNumber":67,"Velocity":52,"Duration":114364,"SoundDuration":114364,"Delta":107645630},{"NoteNumber":75,"Velocity":48,"Duration":115749,"SoundDuration":115749,"Delta":107759994},{"NoteNumber":79,"Velocity":57,"Duration":115749,"SoundDuration":115749,"Delta":107759994},{"NoteNumber":63,"Velocity":60,"Duration":231499,"SoundDuration":231499,"Delta":107759994},{"NoteNumber":82,"Velocity":46,"Duration":115749,"SoundDuration":115749,"Delta":107875744},{"NoteNumber":79,"Velocity":53,"Duration":114364,"SoundDuration":114364,"Delta":107991494},{"NoteNumber":75,"Velocity":45,"Duration":114364,"SoundDuration":114364,"Delta":107991494},{"NoteNumber":65,"Velocity":57,"Duration":114364,"SoundDuration":114364,"Delta":107991494},{"NoteNumber":82,"Velocity":45,"Duration":114364,"SoundDuration":114364,"Delta":108105858},{"NoteNumber":63,"Velocity":52,"Duration":114364,"SoundDuration":114364,"Delta":108105858},{"NoteNumber":75,"Velocity":45,"Duration":114364,"SoundDuration":114364,"Delta":108220222},{"NoteNumber":79,"Velocity":53,"Duration":114364,"SoundDuration":114364,"Delta":108220222},{"NoteNumber":62,"Velocity":57,"Duration":114364,"SoundDuration":114364,"Delta":108220222},{"NoteNumber":82,"Velocity":45,"Duration":114364,"SoundDuration":114364,"Delta":108334587},{"NoteNumber":60,"Velocity":52,"Duration":114364,"SoundDuration":114364,"Delta":108334587},{"NoteNumber":74,"Velocity":51,"Duration":117178,"SoundDuration":117178,"Delta":108448951},{"NoteNumber":80,"Velocity":61,"Duration":117178,"SoundDuration":117178,"Delta":108448951},{"NoteNumber":58,"Velocity":61,"Duration":58589,"SoundDuration":58589,"Delta":108448951},{"NoteNumber":82,"Velocity":46,"Duration":117178,"SoundDuration":117178,"Delta":108566129},{"NoteNumber":74,"Velocity":45,"Duration":117178,"SoundDuration":117178,"Delta":108683307},{"NoteNumber":80,"Velocity":53,"Duration":117178,"SoundDuration":117178,"Delta":108683307},{"NoteNumber":58,"Velocity":52,"Duration":58589,"SoundDuration":58589,"Delta":108683307},{"NoteNumber":82,"Velocity":48,"Duration":117178,"SoundDuration":117178,"Delta":108800486},{"NoteNumber":74,"Velocity":45,"Duration":119445,"SoundDuration":119445,"Delta":108917664},{"NoteNumber":80,"Velocity":53,"Duration":119445,"SoundDuration":119445,"Delta":108917664},{"NoteNumber":58,"Velocity":52,"Duration":59722,"SoundDuration":59722,"Delta":108917664},{"NoteNumber":82,"Velocity":46,"Duration":119445,"SoundDuration":119445,"Delta":109037110},{"NoteNumber":74,"Velocity":49,"Duration":117159,"SoundDuration":117159,"Delta":109156555},{"NoteNumber":80,"Velocity":58,"Duration":117159,"SoundDuration":117159,"Delta":109156555},{"NoteNumber":59,"Velocity":60,"Duration":234319,"SoundDuration":234319,"Delta":109156555},{"NoteNumber":86,"Velocity":46,"Duration":117159,"SoundDuration":117159,"Delta":109273715},{"NoteNumber":74,"Velocity":45,"Duration":117159,"SoundDuration":117159,"Delta":109390875},{"NoteNumber":80,"Velocity":53,"Duration":117159,"SoundDuration":117159,"Delta":109390875},{"NoteNumber":71,"Velocity":50,"Duration":234319,"SoundDuration":234319,"Delta":109390875},{"NoteNumber":86,"Velocity":46,"Duration":117159,"SoundDuration":117159,"Delta":109508035},{"NoteNumber":74,"Velocity":45,"Duration":119923,"SoundDuration":119923,"Delta":109625195},{"NoteNumber":80,"Velocity":53,"Duration":119923,"SoundDuration":119923,"Delta":109625195},{"NoteNumber":71,"Velocity":53,"Duration":59961,"SoundDuration":59961,"Delta":109625195},{"NoteNumber":86,"Velocity":46,"Duration":119923,"SoundDuration":119923,"Delta":109745119},{"NoteNumber":75,"Velocity":48,"Duration":117159,"SoundDuration":117159,"Delta":109865042},{"NoteNumber":79,"Velocity":57,"Duration":117159,"SoundDuration":117159,"Delta":109865042},{"NoteNumber":72,"Velocity":62,"Duration":234319,"SoundDuration":234319,"Delta":109865042},{"NoteNumber":87,"Velocity":46,"Duration":117159,"SoundDuration":117159,"Delta":109982202},{"NoteNumber":75,"Velocity":45,"Duration":117159,"SoundDuration":117159,"Delta":110099362},{"NoteNumber":79,"Velocity":53,"Duration":117159,"SoundDuration":117159,"Delta":110099362},{"NoteNumber":60,"Velocity":58,"Duration":234319,"SoundDuration":234319,"Delta":110099362},{"NoteNumber":87,"Velocity":46,"Duration":117159,"SoundDuration":117159,"Delta":110216522},{"NoteNumber":75,"Velocity":45,"Duration":117160,"SoundDuration":117160,"Delta":110333682},{"NoteNumber":79,"Velocity":53,"Duration":117160,"SoundDuration":117160,"Delta":110333682},{"NoteNumber":60,"Velocity":60,"Duration":58580,"SoundDuration":58580,"Delta":110333682},{"NoteNumber":86,"Velocity":46,"Duration":117159,"SoundDuration":117159,"Delta":110450842},{"NoteNumber":75,"Velocity":45,"Duration":117159,"SoundDuration":117159,"Delta":110568002},{"NoteNumber":81,"Velocity":53,"Duration":117159,"SoundDuration":117159,"Delta":110568002},{"NoteNumber":65,"Velocity":66,"Duration":58579,"SoundDuration":58579,"Delta":110568002},{"NoteNumber":84,"Velocity":46,"Duration":117159,"SoundDuration":117159,"Delta":110685162},{"NoteNumber":55,"Velocity":58,"Duration":77640,"SoundDuration":77640,"Delta":110743742},{"NoteNumber":75,"Velocity":45,"Duration":114364,"SoundDuration":114364,"Delta":110802322},{"NoteNumber":81,"Velocity":53,"Duration":114364,"SoundDuration":114364,"Delta":110802322},{"NoteNumber":53,"Velocity":67,"Duration":133424,"SoundDuration":133424,"Delta":110802322},{"NoteNumber":84,"Velocity":46,"Duration":114364,"SoundDuration":114364,"Delta":110916686},{"NoteNumber":52,"Velocity":62,"Duration":135076,"SoundDuration":135076,"Delta":110916686},{"NoteNumber":75,"Velocity":45,"Duration":124274,"SoundDuration":124274,"Delta":111031050},{"NoteNumber":81,"Velocity":53,"Duration":124274,"SoundDuration":124274,"Delta":111031050},{"NoteNumber":53,"Velocity":66,"Duration":248549,"SoundDuration":248549,"Delta":111031050},{"NoteNumber":84,"Velocity":46,"Duration":124274,"SoundDuration":124274,"Delta":111155325},{"NoteNumber":74,"Velocity":45,"Duration":116676,"SoundDuration":116676,"Delta":111279600},{"NoteNumber":82,"Velocity":53,"Duration":116676,"SoundDuration":116676,"Delta":111279600},{"NoteNumber":58,"Velocity":62,"Duration":58338,"SoundDuration":58338,"Delta":111279600},{"NoteNumber":86,"Velocity":46,"Duration":116677,"SoundDuration":116677,"Delta":111396277},{"NoteNumber":48,"Velocity":56,"Duration":77399,"SoundDuration":77399,"Delta":111454616},{"NoteNumber":74,"Velocity":45,"Duration":114364,"SoundDuration":114364,"Delta":111512954},{"NoteNumber":82,"Velocity":53,"Duration":114364,"SoundDuration":114364,"Delta":111512954},{"NoteNumber":46,"Velocity":62,"Duration":133424,"SoundDuration":133424,"Delta":111512954},{"NoteNumber":86,"Velocity":46,"Duration":114364,"SoundDuration":114364,"Delta":111627319},{"NoteNumber":45,"Velocity":57,"Duration":135608,"SoundDuration":135608,"Delta":111627319},{"NoteNumber":74,"Velocity":45,"Duration":127464,"SoundDuration":127464,"Delta":111741683},{"NoteNumber":82,"Velocity":53,"Duration":127464,"SoundDuration":127464,"Delta":111741683},{"NoteNumber":46,"Velocity":62,"Duration":254928,"SoundDuration":254928,"Delta":111741683},{"NoteNumber":86,"Velocity":46,"Duration":127464,"SoundDuration":127464,"Delta":111869147},{"NoteNumber":75,"Velocity":46,"Duration":115278,"SoundDuration":115278,"Delta":111996611},{"NoteNumber":81,"Velocity":54,"Duration":115278,"SoundDuration":115278,"Delta":111996611},{"NoteNumber":41,"Velocity":56,"Duration":230556,"SoundDuration":230556,"Delta":111996611},{"NoteNumber":84,"Velocity":46,"Duration":115278,"SoundDuration":115278,"Delta":112111890},{"NoteNumber":75,"Velocity":45,"Duration":114364,"SoundDuration":114364,"Delta":112227168},{"NoteNumber":81,"Velocity":53,"Duration":114364,"SoundDuration":114364,"Delta":112227168},{"NoteNumber":43,"Velocity":44,"Duration":114364,"SoundDuration":114364,"Delta":112227168},{"NoteNumber":84,"Velocity":45,"Duration":114364,"SoundDuration":114364,"Delta":112341532},{"NoteNumber":45,"Velocity":44,"Duration":114364,"SoundDuration":114364,"Delta":112341532},{"NoteNumber":75,"Velocity":45,"Duration":114364,"SoundDuration":114364,"Delta":112455896},{"NoteNumber":81,"Velocity":53,"Duration":114364,"SoundDuration":114364,"Delta":112455896},{"NoteNumber":46,"Velocity":47,"Duration":114364,"SoundDuration":114364,"Delta":112455896},{"NoteNumber":84,"Velocity":45,"Duration":114364,"SoundDuration":114364,"Delta":112570261},{"NoteNumber":48,"Velocity":47,"Duration":114364,"SoundDuration":114364,"Delta":112570261},{"NoteNumber":74,"Velocity":48,"Duration":117912,"SoundDuration":117912,"Delta":112684625},{"NoteNumber":82,"Velocity":57,"Duration":117912,"SoundDuration":117912,"Delta":112684625},{"NoteNumber":46,"Velocity":53,"Duration":58874,"SoundDuration":58874,"Delta":112684625},{"NoteNumber":86,"Velocity":46,"Duration":118571,"SoundDuration":118571,"Delta":112802538},{"NoteNumber":82,"Velocity":53,"Duration":119405,"SoundDuration":119405,"Delta":112921109},{"NoteNumber":74,"Velocity":45,"Duration":119405,"SoundDuration":119405,"Delta":112921109},{"NoteNumber":46,"Velocity":53,"Duration":59618,"SoundDuration":59618,"Delta":112921109},{"NoteNumber":86,"Velocity":45,"Duration":120074,"SoundDuration":120074,"Delta":113040514},{"NoteNumber":74,"Velocity":45,"Duration":122040,"SoundDuration":122040,"Delta":113160588},{"NoteNumber":82,"Velocity":53,"Duration":122040,"SoundDuration":122040,"Delta":113160588},{"NoteNumber":46,"Velocity":53,"Duration":61020,"SoundDuration":61020,"Delta":113160588},{"NoteNumber":86,"Velocity":45,"Duration":122040,"SoundDuration":122040,"Delta":113282629},{"NoteNumber":75,"Velocity":41,"Duration":118511,"SoundDuration":118511,"Delta":113404669},{"NoteNumber":81,"Velocity":49,"Duration":118511,"SoundDuration":118511,"Delta":113404669},{"NoteNumber":53,"Velocity":50,"Duration":237022,"SoundDuration":237022,"Delta":113404669},{"NoteNumber":84,"Velocity":41,"Duration":118511,"SoundDuration":118511,"Delta":113523181},{"NoteNumber":75,"Velocity":40,"Duration":115642,"SoundDuration":115642,"Delta":113641692},{"NoteNumber":81,"Velocity":48,"Duration":115642,"SoundDuration":115642,"Delta":113641692},{"NoteNumber":55,"Velocity":39,"Duration":115642,"SoundDuration":115642,"Delta":113641692},{"NoteNumber":84,"Velocity":40,"Duration":115642,"SoundDuration":115642,"Delta":113757335},{"NoteNumber":57,"Velocity":39,"Duration":115642,"SoundDuration":115642,"Delta":113757335},{"NoteNumber":75,"Velocity":40,"Duration":118026,"SoundDuration":118026,"Delta":113872977},{"NoteNumber":81,"Velocity":48,"Duration":118026,"SoundDuration":118026,"Delta":113872977},{"NoteNumber":58,"Velocity":41,"Duration":118026,"SoundDuration":118026,"Delta":113872977},{"NoteNumber":84,"Velocity":40,"Duration":118026,"SoundDuration":118026,"Delta":113991004},{"NoteNumber":60,"Velocity":41,"Duration":118026,"SoundDuration":118026,"Delta":113991004},{"NoteNumber":74,"Velocity":42,"Duration":119405,"SoundDuration":119405,"Delta":114109030},{"NoteNumber":82,"Velocity":51,"Duration":119405,"SoundDuration":119405,"Delta":114109030},{"NoteNumber":58,"Velocity":48,"Duration":59618,"SoundDuration":59618,"Delta":114109030},{"NoteNumber":86,"Velocity":41,"Duration":120074,"SoundDuration":120074,"Delta":114228435},{"NoteNumber":82,"Velocity":48,"Duration":121098,"SoundDuration":121098,"Delta":114348509},{"NoteNumber":74,"Velocity":40,"Duration":121098,"SoundDuration":121098,"Delta":114348509},{"NoteNumber":58,"Velocity":48,"Duration":60463,"SoundDuration":60463,"Delta":114348509},{"NoteNumber":86,"Velocity":40,"Duration":121270,"SoundDuration":121270,"Delta":114469608},{"NoteNumber":74,"Velocity":40,"Duration":125786,"SoundDuration":125786,"Delta":114590879},{"NoteNumber":82,"Velocity":48,"Duration":125786,"SoundDuration":125786,"Delta":114590879},{"NoteNumber":58,"Velocity":48,"Duration":62893,"SoundDuration":62893,"Delta":114590879},{"NoteNumber":86,"Velocity":40,"Duration":125786,"SoundDuration":125786,"Delta":114716665},{"NoteNumber":75,"Velocity":35,"Duration":122558,"SoundDuration":122558,"Delta":114842451},{"NoteNumber":81,"Velocity":43,"Duration":122558,"SoundDuration":122558,"Delta":114842451},{"NoteNumber":65,"Velocity":44,"Duration":245118,"SoundDuration":245118,"Delta":114842451},{"NoteNumber":84,"Velocity":37,"Duration":122559,"SoundDuration":122559,"Delta":114965010},{"NoteNumber":75,"Velocity":35,"Duration":115642,"SoundDuration":115642,"Delta":115087569},{"NoteNumber":81,"Velocity":42,"Duration":115642,"SoundDuration":115642,"Delta":115087569},{"NoteNumber":67,"Velocity":34,"Duration":115642,"SoundDuration":115642,"Delta":115087569},{"NoteNumber":84,"Velocity":35,"Duration":115642,"SoundDuration":115642,"Delta":115203212},{"NoteNumber":69,"Velocity":34,"Duration":115642,"SoundDuration":115642,"Delta":115203212},{"NoteNumber":75,"Velocity":35,"Duration":122040,"SoundDuration":122040,"Delta":115318854},{"NoteNumber":81,"Velocity":42,"Duration":122040,"SoundDuration":122040,"Delta":115318854},{"NoteNumber":70,"Velocity":37,"Duration":122040,"SoundDuration":122040,"Delta":115318854},{"NoteNumber":84,"Velocity":35,"Duration":122040,"SoundDuration":122040,"Delta":115440895},{"NoteNumber":72,"Velocity":37,"Duration":122040,"SoundDuration":122040,"Delta":115440895},{"NoteNumber":86,"Velocity":45,"Duration":252673,"SoundDuration":252673,"Delta":115562935},{"NoteNumber":74,"Velocity":38,"Duration":252673,"SoundDuration":252673,"Delta":115562935},{"NoteNumber":82,"Velocity":45,"Duration":252673,"SoundDuration":252673,"Delta":115562935},{"NoteNumber":70,"Velocity":42,"Duration":252673,"SoundDuration":252673,"Delta":115562935},{"NoteNumber":61,"Velocity":45,"Duration":591601,"SoundDuration":591601,"Delta":116512925},{"NoteNumber":65,"Velocity":45,"Duration":591601,"SoundDuration":591601,"Delta":116512925},{"NoteNumber":46,"Velocity":45,"Duration":145801,"SoundDuration":145801,"Delta":116812925},{"NoteNumber":61,"Velocity":45,"Duration":419843,"SoundDuration":419843,"Delta":117104527},{"NoteNumber":65,"Velocity":45,"Duration":419843,"SoundDuration":419843,"Delta":117104527},{"NoteNumber":49,"Velocity":63,"Duration":145067,"SoundDuration":145067,"Delta":117379303},{"NoteNumber":60,"Velocity":34,"Duration":105061,"SoundDuration":105061,"Delta":117669438},{"NoteNumber":63,"Velocity":41,"Duration":105061,"SoundDuration":105061,"Delta":117669438},{"NoteNumber":65,"Velocity":41,"Duration":105061,"SoundDuration":105061,"Delta":117669438},{"NoteNumber":58,"Velocity":35,"Duration":108800,"SoundDuration":108800,"Delta":117949603},{"NoteNumber":61,"Velocity":42,"Duration":108800,"SoundDuration":108800,"Delta":117949603},{"NoteNumber":65,"Velocity":42,"Duration":108800,"SoundDuration":108800,"Delta":117949603},{"NoteNumber":57,"Velocity":38,"Duration":567579,"SoundDuration":567579,"Delta":118239738},{"NoteNumber":60,"Velocity":45,"Duration":567579,"SoundDuration":567579,"Delta":118239738},{"NoteNumber":65,"Velocity":45,"Duration":567579,"SoundDuration":567579,"Delta":118239738},{"NoteNumber":42,"Velocity":45,"Duration":290135,"SoundDuration":290135,"Delta":118517182},{"NoteNumber":57,"Velocity":38,"Duration":425232,"SoundDuration":425232,"Delta":118807318},{"NoteNumber":60,"Velocity":45,"Duration":425232,"SoundDuration":425232,"Delta":118807318},{"NoteNumber":65,"Velocity":45,"Duration":425232,"SoundDuration":425232,"Delta":118807318},{"NoteNumber":41,"Velocity":63,"Duration":145067,"SoundDuration":145067,"Delta":119087482},{"NoteNumber":58,"Velocity":34,"Duration":105061,"SoundDuration":105061,"Delta":119377618},{"NoteNumber":61,"Velocity":41,"Duration":105061,"SoundDuration":105061,"Delta":119377618},{"NoteNumber":65,"Velocity":41,"Duration":105061,"SoundDuration":105061,"Delta":119377618},{"NoteNumber":60,"Velocity":35,"Duration":108800,"SoundDuration":108800,"Delta":119657782},{"NoteNumber":63,"Velocity":42,"Duration":108800,"SoundDuration":108800,"Delta":119657782},{"NoteNumber":65,"Velocity":42,"Duration":108800,"SoundDuration":108800,"Delta":119657782},{"NoteNumber":61,"Velocity":45,"Duration":573212,"SoundDuration":573212,"Delta":119947918},{"NoteNumber":65,"Velocity":45,"Duration":573212,"SoundDuration":573212,"Delta":119947918},{"NoteNumber":46,"Velocity":45,"Duration":291601,"SoundDuration":291601,"Delta":120229529},{"NoteNumber":61,"Velocity":45,"Duration":564911,"SoundDuration":564911,"Delta":120521131},{"NoteNumber":65,"Velocity":45,"Duration":564911,"SoundDuration":564911,"Delta":120521131},{"NoteNumber":49,"Velocity":63,"Duration":290135,"SoundDuration":290135,"Delta":120795906},{"NoteNumber":60,"Velocity":34,"Duration":105061,"SoundDuration":105061,"Delta":121086042},{"NoteNumber":63,"Velocity":41,"Duration":105061,"SoundDuration":105061,"Delta":121086042},{"NoteNumber":65,"Velocity":41,"Duration":105061,"SoundDuration":105061,"Delta":121086042},{"NoteNumber":58,"Velocity":35,"Duration":108800,"SoundDuration":108800,"Delta":121366206},{"NoteNumber":61,"Velocity":42,"Duration":108800,"SoundDuration":108800,"Delta":121366206},{"NoteNumber":65,"Velocity":42,"Duration":108800,"SoundDuration":108800,"Delta":121366206},{"NoteNumber":56,"Velocity":32,"Duration":567579,"SoundDuration":567579,"Delta":121656342},{"NoteNumber":61,"Velocity":38,"Duration":567579,"SoundDuration":567579,"Delta":121656342},{"NoteNumber":65,"Velocity":38,"Duration":567579,"SoundDuration":567579,"Delta":121656342},{"NoteNumber":41,"Velocity":38,"Duration":290135,"SoundDuration":290135,"Delta":121933786},{"NoteNumber":56,"Velocity":32,"Duration":429018,"SoundDuration":429018,"Delta":122223921},{"NoteNumber":61,"Velocity":38,"Duration":429018,"SoundDuration":429018,"Delta":122223921},{"NoteNumber":65,"Velocity":38,"Duration":429018,"SoundDuration":429018,"Delta":122223921},{"NoteNumber":32,"Velocity":43,"Duration":148853,"SoundDuration":148853,"Delta":122504086},{"NoteNumber":56,"Velocity":28,"Duration":105061,"SoundDuration":105061,"Delta":122801793},{"NoteNumber":65,"Velocity":34,"Duration":105061,"SoundDuration":105061,"Delta":122801793},{"NoteNumber":68,"Velocity":34,"Duration":105061,"SoundDuration":105061,"Delta":122801793},{"NoteNumber":56,"Velocity":29,"Duration":111056,"SoundDuration":111056,"Delta":123081958},{"NoteNumber":65,"Velocity":35,"Duration":111056,"SoundDuration":111056,"Delta":123081958},{"NoteNumber":68,"Velocity":35,"Duration":111056,"SoundDuration":111056,"Delta":123081958},{"NoteNumber":56,"Velocity":32,"Duration":580376,"SoundDuration":580376,"Delta":123378108},{"NoteNumber":61,"Velocity":38,"Duration":580376,"SoundDuration":580376,"Delta":123378108},{"NoteNumber":65,"Velocity":38,"Duration":580376,"SoundDuration":580376,"Delta":123378108},{"NoteNumber":37,"Velocity":38,"Duration":294608,"SoundDuration":294608,"Delta":123663876},{"NoteNumber":56,"Velocity":32,"Duration":586285,"SoundDuration":586285,"Delta":123958485},{"NoteNumber":61,"Velocity":38,"Duration":586285,"SoundDuration":586285,"Delta":123958485},{"NoteNumber":65,"Velocity":38,"Duration":586285,"SoundDuration":586285,"Delta":123958485},{"NoteNumber":37,"Velocity":39,"Duration":148075,"SoundDuration":148075,"Delta":124248620},{"NoteNumber":49,"Velocity":32,"Duration":148075,"SoundDuration":148075,"Delta":124544770},{"NoteNumber":48,"Velocity":29,"Duration":155472,"SoundDuration":155472,"Delta":124840920},{"NoteNumber":61,"Velocity":45,"Duration":581400,"SoundDuration":581400,"Delta":125151866},{"NoteNumber":65,"Velocity":45,"Duration":581400,"SoundDuration":581400,"Delta":125151866},{"NoteNumber":46,"Velocity":45,"Duration":145801,"SoundDuration":145801,"Delta":125441665},{"NoteNumber":61,"Velocity":45,"Duration":419843,"SoundDuration":419843,"Delta":125733267},{"NoteNumber":65,"Velocity":45,"Duration":419843,"SoundDuration":419843,"Delta":125733267},{"NoteNumber":49,"Velocity":63,"Duration":145067,"SoundDuration":145067,"Delta":126008042},{"NoteNumber":60,"Velocity":34,"Duration":105061,"SoundDuration":105061,"Delta":126298178},{"NoteNumber":63,"Velocity":41,"Duration":105061,"SoundDuration":105061,"Delta":126298178},{"NoteNumber":65,"Velocity":41,"Duration":105061,"SoundDuration":105061,"Delta":126298178},{"NoteNumber":58,"Velocity":35,"Duration":108800,"SoundDuration":108800,"Delta":126578342},{"NoteNumber":61,"Velocity":42,"Duration":108800,"SoundDuration":108800,"Delta":126578342},{"NoteNumber":65,"Velocity":42,"Duration":108800,"SoundDuration":108800,"Delta":126578342},{"NoteNumber":57,"Velocity":38,"Duration":567579,"SoundDuration":567579,"Delta":126868478},{"NoteNumber":60,"Velocity":45,"Duration":567579,"SoundDuration":567579,"Delta":126868478},{"NoteNumber":65,"Velocity":45,"Duration":567579,"SoundDuration":567579,"Delta":126868478},{"NoteNumber":42,"Velocity":45,"Duration":290135,"SoundDuration":290135,"Delta":127145922},{"NoteNumber":57,"Velocity":38,"Duration":425232,"SoundDuration":425232,"Delta":127436057},{"NoteNumber":60,"Velocity":45,"Duration":425232,"SoundDuration":425232,"Delta":127436057},{"NoteNumber":65,"Velocity":45,"Duration":425232,"SoundDuration":425232,"Delta":127436057},{"NoteNumber":41,"Velocity":63,"Duration":145067,"SoundDuration":145067,"Delta":127716222},{"NoteNumber":58,"Velocity":34,"Duration":105061,"SoundDuration":105061,"Delta":128006357},{"NoteNumber":61,"Velocity":41,"Duration":105061,"SoundDuration":105061,"Delta":128006357},{"NoteNumber":65,"Velocity":41,"Duration":105061,"SoundDuration":105061,"Delta":128006357},{"NoteNumber":60,"Velocity":35,"Duration":108800,"SoundDuration":108800,"Delta":128286522},{"NoteNumber":63,"Velocity":42,"Duration":108800,"SoundDuration":108800,"Delta":128286522},{"NoteNumber":65,"Velocity":42,"Duration":108800,"SoundDuration":108800,"Delta":128286522},{"NoteNumber":61,"Velocity":45,"Duration":573213,"SoundDuration":573213,"Delta":128576657},{"NoteNumber":65,"Velocity":45,"Duration":573213,"SoundDuration":573213,"Delta":128576657},{"NoteNumber":46,"Velocity":45,"Duration":291602,"SoundDuration":291602,"Delta":128858268},{"NoteNumber":61,"Velocity":45,"Duration":564910,"SoundDuration":564910,"Delta":129149870},{"NoteNumber":65,"Velocity":45,"Duration":564910,"SoundDuration":564910,"Delta":129149870},{"NoteNumber":49,"Velocity":63,"Duration":290135,"SoundDuration":290135,"Delta":129424646},{"NoteNumber":60,"Velocity":34,"Duration":105061,"SoundDuration":105061,"Delta":129714781},{"NoteNumber":63,"Velocity":41,"Duration":105061,"SoundDuration":105061,"Delta":129714781},{"NoteNumber":65,"Velocity":41,"Duration":105061,"SoundDuration":105061,"Delta":129714781},{"NoteNumber":58,"Velocity":35,"Duration":108800,"SoundDuration":108800,"Delta":129994946},{"NoteNumber":61,"Velocity":42,"Duration":108800,"SoundDuration":108800,"Delta":129994946},{"NoteNumber":65,"Velocity":42,"Duration":108800,"SoundDuration":108800,"Delta":129994946},{"NoteNumber":56,"Velocity":32,"Duration":567579,"SoundDuration":567579,"Delta":130285081},{"NoteNumber":61,"Velocity":38,"Duration":567579,"SoundDuration":567579,"Delta":130285081},{"NoteNumber":65,"Velocity":38,"Duration":567579,"SoundDuration":567579,"Delta":130285081},{"NoteNumber":41,"Velocity":38,"Duration":290135,"SoundDuration":290135,"Delta":130562525},{"NoteNumber":56,"Velocity":32,"Duration":429018,"SoundDuration":429018,"Delta":130852661},{"NoteNumber":61,"Velocity":38,"Duration":429018,"SoundDuration":429018,"Delta":130852661},{"NoteNumber":65,"Velocity":38,"Duration":429018,"SoundDuration":429018,"Delta":130852661},{"NoteNumber":32,"Velocity":43,"Duration":148853,"SoundDuration":148853,"Delta":131132825},{"NoteNumber":56,"Velocity":28,"Duration":105061,"SoundDuration":105061,"Delta":131430533},{"NoteNumber":65,"Velocity":34,"Duration":105061,"SoundDuration":105061,"Delta":131430533},{"NoteNumber":68,"Velocity":34,"Duration":105061,"SoundDuration":105061,"Delta":131430533},{"NoteNumber":56,"Velocity":29,"Duration":111056,"SoundDuration":111056,"Delta":131710697},{"NoteNumber":65,"Velocity":35,"Duration":111056,"SoundDuration":111056,"Delta":131710697},{"NoteNumber":68,"Velocity":35,"Duration":111056,"SoundDuration":111056,"Delta":131710697},{"NoteNumber":56,"Velocity":32,"Duration":580376,"SoundDuration":580376,"Delta":132006847},{"NoteNumber":61,"Velocity":38,"Duration":580376,"SoundDuration":580376,"Delta":132006847},{"NoteNumber":65,"Velocity":38,"Duration":580376,"SoundDuration":580376,"Delta":132006847},{"NoteNumber":37,"Velocity":38,"Duration":294608,"SoundDuration":294608,"Delta":132292616},{"NoteNumber":56,"Velocity":32,"Duration":605460,"SoundDuration":605460,"Delta":132587224},{"NoteNumber":61,"Velocity":38,"Duration":605460,"SoundDuration":605460,"Delta":132587224},{"NoteNumber":65,"Velocity":38,"Duration":605460,"SoundDuration":605460,"Delta":132587224},{"NoteNumber":37,"Velocity":39,"Duration":148075,"SoundDuration":148075,"Delta":132896534},{"NoteNumber":49,"Velocity":32,"Duration":148074,"SoundDuration":148074,"Delta":133192684},{"NoteNumber":48,"Velocity":29,"Duration":153877,"SoundDuration":153877,"Delta":133488834},{"NoteNumber":58,"Velocity":38,"Duration":584224,"SoundDuration":584224,"Delta":133796590},{"NoteNumber":61,"Velocity":45,"Duration":584224,"SoundDuration":584224,"Delta":133796590},{"NoteNumber":66,"Velocity":45,"Duration":584224,"SoundDuration":584224,"Delta":133796590},{"NoteNumber":46,"Velocity":45,"Duration":290135,"SoundDuration":290135,"Delta":134090679},{"NoteNumber":58,"Velocity":39,"Duration":570300,"SoundDuration":570300,"Delta":134380814},{"NoteNumber":61,"Velocity":47,"Duration":570300,"SoundDuration":570300,"Delta":134380814},{"NoteNumber":66,"Velocity":47,"Duration":570300,"SoundDuration":570300,"Delta":134380814},{"NoteNumber":49,"Velocity":67,"Duration":290135,"SoundDuration":290135,"Delta":134660979},{"NoteNumber":58,"Velocity":38,"Duration":105061,"SoundDuration":105061,"Delta":134951114},{"NoteNumber":61,"Velocity":45,"Duration":105061,"SoundDuration":105061,"Delta":134951114},{"NoteNumber":68,"Velocity":45,"Duration":105061,"SoundDuration":105061,"Delta":134951114},{"NoteNumber":58,"Velocity":39,"Duration":108800,"SoundDuration":108800,"Delta":135231279},{"NoteNumber":61,"Velocity":47,"Duration":108800,"SoundDuration":108800,"Delta":135231279},{"NoteNumber":70,"Velocity":47,"Duration":108800,"SoundDuration":108800,"Delta":135231279},{"NoteNumber":56,"Velocity":43,"Duration":567579,"SoundDuration":567579,"Delta":135521414},{"NoteNumber":60,"Velocity":51,"Duration":567579,"SoundDuration":567579,"Delta":135521414},{"NoteNumber":65,"Velocity":51,"Duration":567579,"SoundDuration":567579,"Delta":135521414},{"NoteNumber":48,"Velocity":51,"Duration":290135,"SoundDuration":290135,"Delta":135798858},{"NoteNumber":56,"Velocity":42,"Duration":570300,"SoundDuration":570300,"Delta":136088994},{"NoteNumber":60,"Velocity":50,"Duration":570300,"SoundDuration":570300,"Delta":136088994},{"NoteNumber":65,"Velocity":50,"Duration":570300,"SoundDuration":570300,"Delta":136088994},{"NoteNumber":36,"Velocity":73,"Duration":290135,"SoundDuration":290135,"Delta":136369158},{"NoteNumber":55,"Velocity":39,"Duration":105061,"SoundDuration":105061,"Delta":136659294},{"NoteNumber":60,"Velocity":47,"Duration":105061,"SoundDuration":105061,"Delta":136659294},{"NoteNumber":64,"Velocity":47,"Duration":105061,"SoundDuration":105061,"Delta":136659294},{"NoteNumber":55,"Velocity":40,"Duration":108800,"SoundDuration":108800,"Delta":136939458},{"NoteNumber":60,"Velocity":48,"Duration":108800,"SoundDuration":108800,"Delta":136939458},{"NoteNumber":64,"Velocity":48,"Duration":108800,"SoundDuration":108800,"Delta":136939458},{"NoteNumber":63,"Velocity":45,"Duration":587164,"SoundDuration":587164,"Delta":137229594},{"NoteNumber":56,"Velocity":38,"Duration":587164,"SoundDuration":587164,"Delta":137229594},{"NoteNumber":60,"Velocity":45,"Duration":587164,"SoundDuration":587164,"Delta":137229594},{"NoteNumber":48,"Velocity":43,"Duration":290135,"SoundDuration":290135,"Delta":137526623},{"NoteNumber":56,"Velocity":38,"Duration":280164,"SoundDuration":280164,"Delta":137816759},{"NoteNumber":60,"Velocity":45,"Duration":280164,"SoundDuration":280164,"Delta":137816759},{"NoteNumber":63,"Velocity":45,"Duration":578672,"SoundDuration":578672,"Delta":137816759},{"NoteNumber":58,"Velocity":31,"Duration":298507,"SoundDuration":298507,"Delta":138096923},{"NoteNumber":61,"Velocity":37,"Duration":298507,"SoundDuration":298507,"Delta":138096923},{"NoteNumber":51,"Velocity":35,"Duration":298507,"SoundDuration":298507,"Delta":138096923},{"NoteNumber":55,"Velocity":34,"Duration":107122,"SoundDuration":107122,"Delta":138395431},{"NoteNumber":58,"Velocity":41,"Duration":107122,"SoundDuration":107122,"Delta":138395431},{"NoteNumber":63,"Velocity":41,"Duration":107122,"SoundDuration":107122,"Delta":138395431},{"NoteNumber":55,"Velocity":35,"Duration":111386,"SoundDuration":111386,"Delta":138681091},{"NoteNumber":58,"Velocity":42,"Duration":111386,"SoundDuration":111386,"Delta":138681091},{"NoteNumber":63,"Velocity":42,"Duration":111386,"SoundDuration":111386,"Delta":138681091},{"NoteNumber":68,"Velocity":45,"Duration":592556,"SoundDuration":592556,"Delta":138978120},{"NoteNumber":60,"Velocity":38,"Duration":592556,"SoundDuration":592556,"Delta":138978120},{"NoteNumber":63,"Velocity":45,"Duration":592556,"SoundDuration":592556,"Delta":138978120},{"NoteNumber":44,"Velocity":45,"Duration":155472,"SoundDuration":155472,"Delta":139259731},{"NoteNumber":60,"Velocity":42,"Duration":601568,"SoundDuration":601568,"Delta":139570677},{"NoteNumber":63,"Velocity":50,"Duration":601568,"SoundDuration":601568,"Delta":139570677},{"NoteNumber":68,"Velocity":50,"Duration":298507,"SoundDuration":298507,"Delta":139570677},{"NoteNumber":42,"Velocity":48,"Duration":149253,"SoundDuration":149253,"Delta":139570677},{"NoteNumber":69,"Velocity":47,"Duration":303061,"SoundDuration":303061,"Delta":139869184},{"NoteNumber":41,"Velocity":42,"Duration":151530,"SoundDuration":151530,"Delta":139869184},{"NoteNumber":60,"Velocity":34,"Duration":110837,"SoundDuration":110837,"Delta":140172245},{"NoteNumber":63,"Velocity":41,"Duration":110837,"SoundDuration":110837,"Delta":140172245},{"NoteNumber":65,"Velocity":41,"Duration":110837,"SoundDuration":110837,"Delta":140172245},{"NoteNumber":60,"Velocity":35,"Duration":114807,"SoundDuration":114807,"Delta":140467812},{"NoteNumber":63,"Velocity":42,"Duration":114807,"SoundDuration":114807,"Delta":140467812},{"NoteNumber":65,"Velocity":42,"Duration":114807,"SoundDuration":114807,"Delta":140467812},{"NoteNumber":65,"Velocity":45,"Duration":585691,"SoundDuration":585691,"Delta":140773965},{"NoteNumber":73,"Velocity":45,"Duration":585691,"SoundDuration":585691,"Delta":140773965},{"NoteNumber":58,"Velocity":45,"Duration":291602,"SoundDuration":291602,"Delta":141068054},{"NoteNumber":65,"Velocity":45,"Duration":570404,"SoundDuration":570404,"Delta":141359656},{"NoteNumber":73,"Velocity":45,"Duration":570404,"SoundDuration":570404,"Delta":141359656},{"NoteNumber":61,"Velocity":63,"Duration":290135,"SoundDuration":290135,"Delta":141639925},{"NoteNumber":63,"Velocity":41,"Duration":105061,"SoundDuration":105061,"Delta":141930061},{"NoteNumber":65,"Velocity":41,"Duration":105061,"SoundDuration":105061,"Delta":141930061},{"NoteNumber":72,"Velocity":41,"Duration":105061,"SoundDuration":105061,"Delta":141930061},{"NoteNumber":61,"Velocity":35,"Duration":108800,"SoundDuration":108800,"Delta":142210225},{"NoteNumber":65,"Velocity":42,"Duration":108800,"SoundDuration":108800,"Delta":142210225},{"NoteNumber":70,"Velocity":42,"Duration":108800,"SoundDuration":108800,"Delta":142210225},{"NoteNumber":65,"Velocity":45,"Duration":573213,"SoundDuration":573213,"Delta":142500361},{"NoteNumber":60,"Velocity":38,"Duration":573213,"SoundDuration":573213,"Delta":142500361},{"NoteNumber":69,"Velocity":45,"Duration":573213,"SoundDuration":573213,"Delta":142500361},{"NoteNumber":54,"Velocity":45,"Duration":291602,"SoundDuration":291602,"Delta":142781972},{"NoteNumber":65,"Velocity":45,"Duration":564910,"SoundDuration":564910,"Delta":143073574},{"NoteNumber":60,"Velocity":38,"Duration":564910,"SoundDuration":564910,"Delta":143073574},{"NoteNumber":69,"Velocity":45,"Duration":564910,"SoundDuration":564910,"Delta":143073574},{"NoteNumber":53,"Velocity":63,"Duration":290135,"SoundDuration":290135,"Delta":143348349},{"NoteNumber":61,"Velocity":34,"Duration":105061,"SoundDuration":105061,"Delta":143638485},{"NoteNumber":65,"Velocity":41,"Duration":105061,"SoundDuration":105061,"Delta":143638485},{"NoteNumber":70,"Velocity":41,"Duration":105061,"SoundDuration":105061,"Delta":143638485},{"NoteNumber":63,"Velocity":35,"Duration":108800,"SoundDuration":108800,"Delta":143918649},{"NoteNumber":65,"Velocity":42,"Duration":108800,"SoundDuration":108800,"Delta":143918649},{"NoteNumber":72,"Velocity":42,"Duration":108800,"SoundDuration":108800,"Delta":143918649},{"NoteNumber":61,"Velocity":45,"Duration":573213,"SoundDuration":573213,"Delta":144208785},{"NoteNumber":65,"Velocity":45,"Duration":573213,"SoundDuration":573213,"Delta":144208785},{"NoteNumber":46,"Velocity":45,"Duration":291602,"SoundDuration":291602,"Delta":144490396},{"NoteNumber":61,"Velocity":45,"Duration":564910,"SoundDuration":564910,"Delta":144781998},{"NoteNumber":65,"Velocity":45,"Duration":564910,"SoundDuration":564910,"Delta":144781998},{"NoteNumber":49,"Velocity":63,"Duration":290135,"SoundDuration":290135,"Delta":145056773},{"NoteNumber":60,"Velocity":34,"Duration":105061,"SoundDuration":105061,"Delta":145346909},{"NoteNumber":63,"Velocity":41,"Duration":105061,"SoundDuration":105061,"Delta":145346909},{"NoteNumber":65,"Velocity":41,"Duration":105061,"SoundDuration":105061,"Delta":145346909},{"NoteNumber":58,"Velocity":35,"Duration":108800,"SoundDuration":108800,"Delta":145627073},{"NoteNumber":61,"Velocity":42,"Duration":108800,"SoundDuration":108800,"Delta":145627073},{"NoteNumber":65,"Velocity":42,"Duration":108800,"SoundDuration":108800,"Delta":145627073},{"NoteNumber":56,"Velocity":32,"Duration":596729,"SoundDuration":596729,"Delta":145917209},{"NoteNumber":61,"Velocity":38,"Duration":596729,"SoundDuration":596729,"Delta":145917209},{"NoteNumber":65,"Velocity":38,"Duration":596729,"SoundDuration":596729,"Delta":145917209},{"NoteNumber":41,"Velocity":45,"Duration":319285,"SoundDuration":319285,"Delta":146194653},{"NoteNumber":56,"Velocity":32,"Duration":603799,"SoundDuration":603799,"Delta":146513938},{"NoteNumber":61,"Velocity":38,"Duration":603799,"SoundDuration":603799,"Delta":146513938},{"NoteNumber":65,"Velocity":38,"Duration":603799,"SoundDuration":603799,"Delta":146513938},{"NoteNumber":29,"Velocity":64,"Duration":312565,"SoundDuration":312565,"Delta":146805172},{"NoteNumber":54,"Velocity":28,"Duration":107624,"SoundDuration":107624,"Delta":147117737},{"NoteNumber":57,"Velocity":34,"Duration":107624,"SoundDuration":107624,"Delta":147117737},{"NoteNumber":60,"Velocity":34,"Duration":107624,"SoundDuration":107624,"Delta":147117737},{"NoteNumber":63,"Velocity":34,"Duration":107624,"SoundDuration":107624,"Delta":147117737},{"NoteNumber":54,"Velocity":29,"Duration":111056,"SoundDuration":111056,"Delta":147404736},{"NoteNumber":57,"Velocity":29,"Duration":111056,"SoundDuration":111056,"Delta":147404736},{"NoteNumber":60,"Velocity":35,"Duration":111056,"SoundDuration":111056,"Delta":147404736},{"NoteNumber":63,"Velocity":35,"Duration":111056,"SoundDuration":111056,"Delta":147404736},{"NoteNumber":53,"Velocity":32,"Duration":580376,"SoundDuration":580376,"Delta":147700886},{"NoteNumber":58,"Velocity":38,"Duration":580376,"SoundDuration":580376,"Delta":147700886},{"NoteNumber":61,"Velocity":38,"Duration":580376,"SoundDuration":580376,"Delta":147700886},{"NoteNumber":34,"Velocity":38,"Duration":294608,"SoundDuration":294608,"Delta":147986654},{"NoteNumber":53,"Velocity":32,"Duration":586285,"SoundDuration":586285,"Delta":148281263},{"NoteNumber":58,"Velocity":38,"Duration":586285,"SoundDuration":586285,"Delta":148281263},{"NoteNumber":61,"Velocity":38,"Duration":586285,"SoundDuration":586285,"Delta":148281263},{"NoteNumber":46,"Velocity":39,"Duration":148075,"SoundDuration":148075,"Delta":148571398},{"NoteNumber":49,"Velocity":32,"Duration":148074,"SoundDuration":148074,"Delta":148867548},{"NoteNumber":48,"Velocity":29,"Duration":155472,"SoundDuration":155472,"Delta":149163698},{"NoteNumber":58,"Velocity":38,"Duration":600166,"SoundDuration":600166,"Delta":149474644},{"NoteNumber":61,"Velocity":45,"Duration":600166,"SoundDuration":600166,"Delta":149474644},{"NoteNumber":66,"Velocity":45,"Duration":600166,"SoundDuration":600166,"Delta":149474644},{"NoteNumber":46,"Velocity":45,"Duration":295566,"SoundDuration":295566,"Delta":149779243},{"NoteNumber":58,"Velocity":39,"Duration":575795,"SoundDuration":575795,"Delta":150074810},{"NoteNumber":61,"Velocity":47,"Duration":575795,"SoundDuration":575795,"Delta":150074810},{"NoteNumber":66,"Velocity":47,"Duration":575795,"SoundDuration":575795,"Delta":150074810},{"NoteNumber":49,"Velocity":67,"Duration":290135,"SoundDuration":290135,"Delta":150360470},{"NoteNumber":58,"Velocity":38,"Duration":106614,"SoundDuration":106614,"Delta":150650605},{"NoteNumber":61,"Velocity":45,"Duration":106614,"SoundDuration":106614,"Delta":150650605},{"NoteNumber":68,"Velocity":45,"Duration":106614,"SoundDuration":106614,"Delta":150650605},{"NoteNumber":58,"Velocity":39,"Duration":108800,"SoundDuration":108800,"Delta":150934912},{"NoteNumber":61,"Velocity":47,"Duration":108800,"SoundDuration":108800,"Delta":150934912},{"NoteNumber":70,"Velocity":47,"Duration":108800,"SoundDuration":108800,"Delta":150934912},{"NoteNumber":56,"Velocity":43,"Duration":571746,"SoundDuration":571746,"Delta":151225047},{"NoteNumber":60,"Velocity":51,"Duration":571746,"SoundDuration":571746,"Delta":151225047},{"NoteNumber":65,"Velocity":51,"Duration":571746,"SoundDuration":571746,"Delta":151225047},{"NoteNumber":48,"Velocity":51,"Duration":290135,"SoundDuration":290135,"Delta":151506658},{"NoteNumber":56,"Velocity":42,"Duration":571746,"SoundDuration":571746,"Delta":151796794},{"NoteNumber":60,"Velocity":50,"Duration":571746,"SoundDuration":571746,"Delta":151796794},{"NoteNumber":65,"Velocity":50,"Duration":571746,"SoundDuration":571746,"Delta":151796794},{"NoteNumber":36,"Velocity":73,"Duration":290135,"SoundDuration":290135,"Delta":152078405},{"NoteNumber":55,"Velocity":39,"Duration":106102,"SoundDuration":106102,"Delta":152368540},{"NoteNumber":60,"Velocity":47,"Duration":106102,"SoundDuration":106102,"Delta":152368540},{"NoteNumber":64,"Velocity":47,"Duration":106102,"SoundDuration":106102,"Delta":152368540},{"NoteNumber":55,"Velocity":40,"Duration":108800,"SoundDuration":108800,"Delta":152651479},{"NoteNumber":60,"Velocity":48,"Duration":108800,"SoundDuration":108800,"Delta":152651479},{"NoteNumber":64,"Velocity":48,"Duration":108800,"SoundDuration":108800,"Delta":152651479},{"NoteNumber":63,"Velocity":45,"Duration":587164,"SoundDuration":587164,"Delta":152941615},{"NoteNumber":56,"Velocity":38,"Duration":587164,"SoundDuration":587164,"Delta":152941615},{"NoteNumber":60,"Velocity":45,"Duration":587164,"SoundDuration":587164,"Delta":152941615},{"NoteNumber":48,"Velocity":43,"Duration":290135,"SoundDuration":290135,"Delta":153238644},{"NoteNumber":56,"Velocity":38,"Duration":280164,"SoundDuration":280164,"Delta":153528780},{"NoteNumber":60,"Velocity":45,"Duration":280164,"SoundDuration":280164,"Delta":153528780},{"NoteNumber":63,"Velocity":45,"Duration":578672,"SoundDuration":578672,"Delta":153528780},{"NoteNumber":58,"Velocity":31,"Duration":298507,"SoundDuration":298507,"Delta":153808944},{"NoteNumber":61,"Velocity":37,"Duration":298507,"SoundDuration":298507,"Delta":153808944},{"NoteNumber":51,"Velocity":35,"Duration":298507,"SoundDuration":298507,"Delta":153808944},{"NoteNumber":55,"Velocity":34,"Duration":107122,"SoundDuration":107122,"Delta":154107452},{"NoteNumber":58,"Velocity":41,"Duration":107122,"SoundDuration":107122,"Delta":154107452},{"NoteNumber":63,"Velocity":41,"Duration":107122,"SoundDuration":107122,"Delta":154107452},{"NoteNumber":55,"Velocity":35,"Duration":111386,"SoundDuration":111386,"Delta":154393112},{"NoteNumber":58,"Velocity":42,"Duration":111386,"SoundDuration":111386,"Delta":154393112},{"NoteNumber":63,"Velocity":42,"Duration":111386,"SoundDuration":111386,"Delta":154393112},{"NoteNumber":68,"Velocity":45,"Duration":592556,"SoundDuration":592556,"Delta":154690141},{"NoteNumber":60,"Velocity":38,"Duration":592556,"SoundDuration":592556,"Delta":154690141},{"NoteNumber":63,"Velocity":45,"Duration":592556,"SoundDuration":592556,"Delta":154690141},{"NoteNumber":44,"Velocity":45,"Duration":155472,"SoundDuration":155472,"Delta":154971752},{"NoteNumber":60,"Velocity":42,"Duration":627525,"SoundDuration":627525,"Delta":155282698},{"NoteNumber":63,"Velocity":42,"Duration":627525,"SoundDuration":627525,"Delta":155282698},{"NoteNumber":68,"Velocity":50,"Duration":324464,"SoundDuration":324464,"Delta":155282698},{"NoteNumber":42,"Velocity":48,"Duration":162232,"SoundDuration":162232,"Delta":155282698},{"NoteNumber":69,"Velocity":47,"Duration":303061,"SoundDuration":303061,"Delta":155607162},{"NoteNumber":41,"Velocity":42,"Duration":151530,"SoundDuration":151530,"Delta":155607162},{"NoteNumber":60,"Velocity":34,"Duration":110837,"SoundDuration":110837,"Delta":155910223},{"NoteNumber":63,"Velocity":34,"Duration":110837,"SoundDuration":110837,"Delta":155910223},{"NoteNumber":65,"Velocity":41,"Duration":110837,"SoundDuration":110837,"Delta":155910223},{"NoteNumber":60,"Velocity":35,"Duration":114807,"SoundDuration":114807,"Delta":156205790},{"NoteNumber":63,"Velocity":35,"Duration":114807,"SoundDuration":114807,"Delta":156205790},{"NoteNumber":65,"Velocity":42,"Duration":114807,"SoundDuration":114807,"Delta":156205790},{"NoteNumber":65,"Velocity":45,"Duration":585691,"SoundDuration":585691,"Delta":156511943},{"NoteNumber":73,"Velocity":45,"Duration":585691,"SoundDuration":585691,"Delta":156511943},{"NoteNumber":58,"Velocity":45,"Duration":291602,"SoundDuration":291602,"Delta":156806032},{"NoteNumber":65,"Velocity":45,"Duration":570404,"SoundDuration":570404,"Delta":157097634},{"NoteNumber":73,"Velocity":45,"Duration":570404,"SoundDuration":570404,"Delta":157097634},{"NoteNumber":61,"Velocity":63,"Duration":290135,"SoundDuration":290135,"Delta":157377903},{"NoteNumber":63,"Velocity":34,"Duration":105061,"SoundDuration":105061,"Delta":157668039},{"NoteNumber":65,"Velocity":41,"Duration":105061,"SoundDuration":105061,"Delta":157668039},{"NoteNumber":72,"Velocity":41,"Duration":105061,"SoundDuration":105061,"Delta":157668039},{"NoteNumber":61,"Velocity":35,"Duration":108800,"SoundDuration":108800,"Delta":157948203},{"NoteNumber":65,"Velocity":42,"Duration":108800,"SoundDuration":108800,"Delta":157948203},{"NoteNumber":70,"Velocity":42,"Duration":108800,"SoundDuration":108800,"Delta":157948203},{"NoteNumber":65,"Velocity":45,"Duration":573213,"SoundDuration":573213,"Delta":158238339},{"NoteNumber":60,"Velocity":38,"Duration":573213,"SoundDuration":573213,"Delta":158238339},{"NoteNumber":69,"Velocity":45,"Duration":573213,"SoundDuration":573213,"Delta":158238339},{"NoteNumber":54,"Velocity":45,"Duration":291602,"SoundDuration":291602,"Delta":158519950},{"NoteNumber":65,"Velocity":45,"Duration":564910,"SoundDuration":564910,"Delta":158811552},{"NoteNumber":60,"Velocity":38,"Duration":564910,"SoundDuration":564910,"Delta":158811552},{"NoteNumber":69,"Velocity":45,"Duration":564910,"SoundDuration":564910,"Delta":158811552},{"NoteNumber":53,"Velocity":63,"Duration":290135,"SoundDuration":290135,"Delta":159086327},{"NoteNumber":61,"Velocity":34,"Duration":105061,"SoundDuration":105061,"Delta":159376463},{"NoteNumber":65,"Velocity":41,"Duration":105061,"SoundDuration":105061,"Delta":159376463},{"NoteNumber":70,"Velocity":41,"Duration":105061,"SoundDuration":105061,"Delta":159376463},{"NoteNumber":63,"Velocity":35,"Duration":108800,"SoundDuration":108800,"Delta":159656627},{"NoteNumber":65,"Velocity":42,"Duration":108800,"SoundDuration":108800,"Delta":159656627},{"NoteNumber":72,"Velocity":42,"Duration":108800,"SoundDuration":108800,"Delta":159656627},{"NoteNumber":61,"Velocity":45,"Duration":573213,"SoundDuration":573213,"Delta":159946763},{"NoteNumber":65,"Velocity":45,"Duration":573213,"SoundDuration":573213,"Delta":159946763},{"NoteNumber":46,"Velocity":45,"Duration":291602,"SoundDuration":291602,"Delta":160228374},{"NoteNumber":61,"Velocity":45,"Duration":564910,"SoundDuration":564910,"Delta":160519976},{"NoteNumber":65,"Velocity":45,"Duration":564910,"SoundDuration":564910,"Delta":160519976},{"NoteNumber":49,"Velocity":63,"Duration":290135,"SoundDuration":290135,"Delta":160794751},{"NoteNumber":60,"Velocity":34,"Duration":105061,"SoundDuration":105061,"Delta":161084887},{"NoteNumber":63,"Velocity":41,"Duration":105061,"SoundDuration":105061,"Delta":161084887},{"NoteNumber":65,"Velocity":41,"Duration":105061,"SoundDuration":105061,"Delta":161084887},{"NoteNumber":58,"Velocity":35,"Duration":108800,"SoundDuration":108800,"Delta":161365051},{"NoteNumber":61,"Velocity":42,"Duration":108800,"SoundDuration":108800,"Delta":161365051},{"NoteNumber":65,"Velocity":42,"Duration":108800,"SoundDuration":108800,"Delta":161365051},{"NoteNumber":56,"Velocity":32,"Duration":596729,"SoundDuration":596729,"Delta":161655187},{"NoteNumber":61,"Velocity":38,"Duration":596729,"SoundDuration":596729,"Delta":161655187},{"NoteNumber":65,"Velocity":38,"Duration":596729,"SoundDuration":596729,"Delta":161655187},{"NoteNumber":41,"Velocity":45,"Duration":319285,"SoundDuration":319285,"Delta":161932631},{"NoteNumber":56,"Velocity":32,"Duration":612565,"SoundDuration":612565,"Delta":162251916},{"NoteNumber":61,"Velocity":38,"Duration":612565,"SoundDuration":612565,"Delta":162251916},{"NoteNumber":65,"Velocity":38,"Duration":612565,"SoundDuration":612565,"Delta":162251916},{"NoteNumber":29,"Velocity":64,"Duration":312565,"SoundDuration":312565,"Delta":162551916},{"NoteNumber":54,"Velocity":28,"Duration":110837,"SoundDuration":110837,"Delta":162864481},{"NoteNumber":57,"Velocity":28,"Duration":110837,"SoundDuration":110837,"Delta":162864481},{"NoteNumber":60,"Velocity":34,"Duration":110837,"SoundDuration":110837,"Delta":162864481},{"NoteNumber":63,"Velocity":34,"Duration":110837,"SoundDuration":110837,"Delta":162864481},{"NoteNumber":54,"Velocity":29,"Duration":114807,"SoundDuration":114807,"Delta":163160047},{"NoteNumber":57,"Velocity":29,"Duration":114807,"SoundDuration":114807,"Delta":163160047},{"NoteNumber":60,"Velocity":35,"Duration":114807,"SoundDuration":114807,"Delta":163160047},{"NoteNumber":63,"Velocity":35,"Duration":114807,"SoundDuration":114807,"Delta":163160047},{"NoteNumber":53,"Velocity":32,"Duration":647720,"SoundDuration":647720,"Delta":163466201},{"NoteNumber":58,"Velocity":38,"Duration":647720,"SoundDuration":647720,"Delta":163466201},{"NoteNumber":61,"Velocity":38,"Duration":647720,"SoundDuration":647720,"Delta":163466201},{"NoteNumber":34,"Velocity":38,"Duration":333518,"SoundDuration":333518,"Delta":163780403},{"NoteNumber":53,"Velocity":32,"Duration":667036,"SoundDuration":667036,"Delta":164113921},{"NoteNumber":58,"Velocity":38,"Duration":667036,"SoundDuration":667036,"Delta":164113921},{"NoteNumber":61,"Velocity":38,"Duration":667036,"SoundDuration":667036,"Delta":164113921},{"NoteNumber":46,"Velocity":39,"Duration":333518,"SoundDuration":333518,"Delta":164447440},{"NoteNumber":82,"Velocity":54,"Duration":230893,"SoundDuration":230893,"Delta":165425422},{"NoteNumber":58,"Velocity":31,"Duration":115446,"SoundDuration":115446,"Delta":165425422},{"NoteNumber":62,"Velocity":38,"Duration":115446,"SoundDuration":115446,"Delta":165425422},{"NoteNumber":65,"Velocity":25,"Duration":115446,"SoundDuration":115446,"Delta":165540869},{"NoteNumber":81,"Velocity":47,"Duration":230893,"SoundDuration":230893,"Delta":165656316},{"NoteNumber":58,"Velocity":24,"Duration":115446,"SoundDuration":115446,"Delta":165656316},{"NoteNumber":62,"Velocity":29,"Duration":115446,"SoundDuration":115446,"Delta":165656316},{"NoteNumber":65,"Velocity":24,"Duration":115446,"SoundDuration":115446,"Delta":165771763},{"NoteNumber":82,"Velocity":47,"Duration":230893,"SoundDuration":230893,"Delta":165887209},{"NoteNumber":58,"Velocity":24,"Duration":115446,"SoundDuration":115446,"Delta":165887209},{"NoteNumber":62,"Velocity":29,"Duration":115446,"SoundDuration":115446,"Delta":165887209},{"NoteNumber":65,"Velocity":25,"Duration":115446,"SoundDuration":115446,"Delta":166002656},{"NoteNumber":79,"Velocity":51,"Duration":228137,"SoundDuration":228137,"Delta":166118103},{"NoteNumber":58,"Velocity":28,"Duration":114068,"SoundDuration":114068,"Delta":166118103},{"NoteNumber":63,"Velocity":34,"Duration":114068,"SoundDuration":114068,"Delta":166118103},{"NoteNumber":67,"Velocity":25,"Duration":114068,"SoundDuration":114068,"Delta":166232171},{"NoteNumber":81,"Velocity":46,"Duration":113156,"SoundDuration":113156,"Delta":166346240},{"NoteNumber":58,"Velocity":24,"Duration":113156,"SoundDuration":113156,"Delta":166346240},{"NoteNumber":63,"Velocity":29,"Duration":113156,"SoundDuration":113156,"Delta":166346240},{"NoteNumber":82,"Velocity":47,"Duration":113156,"SoundDuration":113156,"Delta":166459396},{"NoteNumber":67,"Velocity":24,"Duration":113156,"SoundDuration":113156,"Delta":166459396},{"NoteNumber":84,"Velocity":49,"Duration":113156,"SoundDuration":113156,"Delta":166572552},{"NoteNumber":58,"Velocity":24,"Duration":113156,"SoundDuration":113156,"Delta":166572552},{"NoteNumber":63,"Velocity":29,"Duration":113156,"SoundDuration":113156,"Delta":166572552},{"NoteNumber":86,"Velocity":50,"Duration":113156,"SoundDuration":113156,"Delta":166685709},{"NoteNumber":67,"Velocity":24,"Duration":113156,"SoundDuration":113156,"Delta":166685709},{"NoteNumber":82,"Velocity":53,"Duration":229077,"SoundDuration":229077,"Delta":166798865},{"NoteNumber":58,"Velocity":34,"Duration":114538,"SoundDuration":114538,"Delta":166798865},{"NoteNumber":62,"Velocity":40,"Duration":114538,"SoundDuration":114538,"Delta":166798865},{"NoteNumber":65,"Velocity":25,"Duration":114538,"SoundDuration":114538,"Delta":166913404},{"NoteNumber":84,"Velocity":54,"Duration":113156,"SoundDuration":113156,"Delta":167027942},{"NoteNumber":62,"Velocity":29,"Duration":113156,"SoundDuration":113156,"Delta":167027942},{"NoteNumber":58,"Velocity":24,"Duration":113156,"SoundDuration":113156,"Delta":167027942},{"NoteNumber":82,"Velocity":47,"Duration":113156,"SoundDuration":113156,"Delta":167141099},{"NoteNumber":65,"Velocity":24,"Duration":113156,"SoundDuration":113156,"Delta":167141099},{"NoteNumber":81,"Velocity":51,"Duration":113156,"SoundDuration":113156,"Delta":167254255},{"NoteNumber":58,"Velocity":24,"Duration":113156,"SoundDuration":113156,"Delta":167254255},{"NoteNumber":62,"Velocity":29,"Duration":113156,"SoundDuration":113156,"Delta":167254255},{"NoteNumber":79,"Velocity":47,"Duration":113156,"SoundDuration":113156,"Delta":167367411},{"NoteNumber":65,"Velocity":24,"Duration":113156,"SoundDuration":113156,"Delta":167367411},{"NoteNumber":77,"Velocity":56,"Duration":57968,"SoundDuration":57968,"Delta":167480567},{"NoteNumber":57,"Velocity":29,"Duration":115937,"SoundDuration":115937,"Delta":167480567},{"NoteNumber":63,"Velocity":34,"Duration":115937,"SoundDuration":115937,"Delta":167480567},{"NoteNumber":65,"Velocity":25,"Duration":115937,"SoundDuration":115937,"Delta":167596505},{"NoteNumber":77,"Velocity":51,"Duration":57968,"SoundDuration":57968,"Delta":167712442},{"NoteNumber":57,"Velocity":24,"Duration":115937,"SoundDuration":115937,"Delta":167712442},{"NoteNumber":63,"Velocity":29,"Duration":115937,"SoundDuration":115937,"Delta":167712442},{"NoteNumber":65,"Velocity":26,"Duration":115937,"SoundDuration":115937,"Delta":167828380},{"NoteNumber":77,"Velocity":50,"Duration":59325,"SoundDuration":59325,"Delta":167944317},{"NoteNumber":57,"Velocity":24,"Duration":118651,"SoundDuration":118651,"Delta":167944317},{"NoteNumber":63,"Velocity":29,"Duration":118651,"SoundDuration":118651,"Delta":167944317},{"NoteNumber":65,"Velocity":25,"Duration":118651,"SoundDuration":118651,"Delta":168062969},{"NoteNumber":78,"Velocity":61,"Duration":231839,"SoundDuration":231839,"Delta":168181621},{"NoteNumber":57,"Velocity":31,"Duration":115919,"SoundDuration":115919,"Delta":168181621},{"NoteNumber":63,"Velocity":37,"Duration":115919,"SoundDuration":115919,"Delta":168181621},{"NoteNumber":66,"Velocity":25,"Duration":115919,"SoundDuration":115919,"Delta":168297541},{"NoteNumber":90,"Velocity":57,"Duration":231839,"SoundDuration":231839,"Delta":168413461},{"NoteNumber":57,"Velocity":24,"Duration":115919,"SoundDuration":115919,"Delta":168413461},{"NoteNumber":63,"Velocity":29,"Duration":115919,"SoundDuration":115919,"Delta":168413461},{"NoteNumber":66,"Velocity":25,"Duration":115919,"SoundDuration":115919,"Delta":168529381},{"NoteNumber":90,"Velocity":57,"Duration":59097,"SoundDuration":59097,"Delta":168645300},{"NoteNumber":57,"Velocity":24,"Duration":118193,"SoundDuration":118193,"Delta":168645300},{"NoteNumber":63,"Velocity":29,"Duration":118193,"SoundDuration":118193,"Delta":168645300},{"NoteNumber":66,"Velocity":25,"Duration":118194,"SoundDuration":118194,"Delta":168763494},{"NoteNumber":91,"Velocity":65,"Duration":231839,"SoundDuration":231839,"Delta":168881688},{"NoteNumber":58,"Velocity":29,"Duration":115919,"SoundDuration":115919,"Delta":168881688},{"NoteNumber":63,"Velocity":34,"Duration":115919,"SoundDuration":115919,"Delta":168881688},{"NoteNumber":67,"Velocity":25,"Duration":115919,"SoundDuration":115919,"Delta":168997608},{"NoteNumber":79,"Velocity":51,"Duration":231839,"SoundDuration":231839,"Delta":169113528},{"NoteNumber":58,"Velocity":24,"Duration":115919,"SoundDuration":115919,"Delta":169113528},{"NoteNumber":63,"Velocity":29,"Duration":115919,"SoundDuration":115919,"Delta":169113528},{"NoteNumber":67,"Velocity":25,"Duration":115919,"SoundDuration":115919,"Delta":169229448},{"NoteNumber":79,"Velocity":51,"Duration":57959,"SoundDuration":57959,"Delta":169345367},{"NoteNumber":58,"Velocity":24,"Duration":115919,"SoundDuration":115919,"Delta":169345367},{"NoteNumber":63,"Velocity":29,"Duration":115919,"SoundDuration":115919,"Delta":169345367},{"NoteNumber":67,"Velocity":25,"Duration":115919,"SoundDuration":115919,"Delta":169461287},{"NoteNumber":81,"Velocity":53,"Duration":57959,"SoundDuration":57959,"Delta":169577207},{"NoteNumber":60,"Velocity":29,"Duration":115919,"SoundDuration":115919,"Delta":169577207},{"NoteNumber":63,"Velocity":34,"Duration":115919,"SoundDuration":115919,"Delta":169577207},{"NoteNumber":65,"Velocity":25,"Duration":115919,"SoundDuration":115919,"Delta":169693127},{"NoteNumber":94,"Velocity":45,"Duration":28979,"SoundDuration":28979,"Delta":169780066},{"NoteNumber":93,"Velocity":52,"Duration":113156,"SoundDuration":113156,"Delta":169809046},{"NoteNumber":60,"Velocity":24,"Duration":113156,"SoundDuration":113156,"Delta":169809046},{"NoteNumber":63,"Velocity":29,"Duration":113156,"SoundDuration":113156,"Delta":169809046},{"NoteNumber":91,"Velocity":51,"Duration":113156,"SoundDuration":113156,"Delta":169922203},{"NoteNumber":65,"Velocity":25,"Duration":113156,"SoundDuration":113156,"Delta":169922203},{"NoteNumber":93,"Velocity":52,"Duration":229077,"SoundDuration":229077,"Delta":170035359},{"NoteNumber":60,"Velocity":24,"Duration":114538,"SoundDuration":114538,"Delta":170035359},{"NoteNumber":63,"Velocity":29,"Duration":114538,"SoundDuration":114538,"Delta":170035359},{"NoteNumber":65,"Velocity":25,"Duration":114538,"SoundDuration":114538,"Delta":170149898},{"NoteNumber":94,"Velocity":54,"Duration":57269,"SoundDuration":57269,"Delta":170264436},{"NoteNumber":58,"Velocity":29,"Duration":114538,"SoundDuration":114538,"Delta":170264436},{"NoteNumber":62,"Velocity":34,"Duration":114538,"SoundDuration":114538,"Delta":170264436},{"NoteNumber":65,"Velocity":25,"Duration":114538,"SoundDuration":114538,"Delta":170378975},{"NoteNumber":84,"Velocity":45,"Duration":28634,"SoundDuration":28634,"Delta":170464879},{"NoteNumber":82,"Velocity":51,"Duration":113156,"SoundDuration":113156,"Delta":170493514},{"NoteNumber":58,"Velocity":24,"Duration":113156,"SoundDuration":113156,"Delta":170493514},{"NoteNumber":62,"Velocity":29,"Duration":113156,"SoundDuration":113156,"Delta":170493514},{"NoteNumber":81,"Velocity":47,"Duration":113156,"SoundDuration":113156,"Delta":170606670},{"NoteNumber":65,"Velocity":25,"Duration":113156,"SoundDuration":113156,"Delta":170606670},{"NoteNumber":82,"Velocity":51,"Duration":121045,"SoundDuration":121045,"Delta":170719826},{"NoteNumber":58,"Velocity":24,"Duration":121045,"SoundDuration":121045,"Delta":170719826},{"NoteNumber":62,"Velocity":29,"Duration":121045,"SoundDuration":121045,"Delta":170719826},{"NoteNumber":65,"Velocity":25,"Duration":121045,"SoundDuration":121045,"Delta":170840872},{"NoteNumber":70,"Velocity":34,"Duration":116369,"SoundDuration":116369,"Delta":170961918},{"NoteNumber":74,"Velocity":40,"Duration":116369,"SoundDuration":116369,"Delta":170961918},{"NoteNumber":58,"Velocity":48,"Duration":232738,"SoundDuration":232738,"Delta":170961918},{"NoteNumber":77,"Velocity":35,"Duration":116369,"SoundDuration":116369,"Delta":171078287},{"NoteNumber":70,"Velocity":34,"Duration":116369,"SoundDuration":116369,"Delta":171194656},{"NoteNumber":74,"Velocity":41,"Duration":116369,"SoundDuration":116369,"Delta":171194656},{"NoteNumber":57,"Velocity":40,"Duration":232738,"SoundDuration":232738,"Delta":171194656},{"NoteNumber":77,"Velocity":34,"Duration":116369,"SoundDuration":116369,"Delta":171311026},{"NoteNumber":70,"Velocity":34,"Duration":116369,"SoundDuration":116369,"Delta":171427395},{"NoteNumber":74,"Velocity":41,"Duration":116369,"SoundDuration":116369,"Delta":171427395},{"NoteNumber":58,"Velocity":40,"Duration":232738,"SoundDuration":232738,"Delta":171427395},{"NoteNumber":77,"Velocity":35,"Duration":116369,"SoundDuration":116369,"Delta":171543764},{"NoteNumber":70,"Velocity":35,"Duration":114068,"SoundDuration":114068,"Delta":171660133},{"NoteNumber":74,"Velocity":42,"Duration":114068,"SoundDuration":114068,"Delta":171660133},{"NoteNumber":55,"Velocity":48,"Duration":228137,"SoundDuration":228137,"Delta":171660133},{"NoteNumber":79,"Velocity":35,"Duration":114068,"SoundDuration":114068,"Delta":171774202},{"NoteNumber":70,"Velocity":34,"Duration":113156,"SoundDuration":113156,"Delta":171888270},{"NoteNumber":74,"Velocity":41,"Duration":113156,"SoundDuration":113156,"Delta":171888270},{"NoteNumber":57,"Velocity":39,"Duration":113156,"SoundDuration":113156,"Delta":171888270},{"NoteNumber":79,"Velocity":34,"Duration":113156,"SoundDuration":113156,"Delta":172001427},{"NoteNumber":58,"Velocity":39,"Duration":113156,"SoundDuration":113156,"Delta":172001427},{"NoteNumber":70,"Velocity":34,"Duration":113156,"SoundDuration":113156,"Delta":172114583},{"NoteNumber":74,"Velocity":41,"Duration":113156,"SoundDuration":113156,"Delta":172114583},{"NoteNumber":60,"Velocity":40,"Duration":113156,"SoundDuration":113156,"Delta":172114583},{"NoteNumber":79,"Velocity":34,"Duration":113156,"SoundDuration":113156,"Delta":172227739},{"NoteNumber":62,"Velocity":40,"Duration":113156,"SoundDuration":113156,"Delta":172227739},{"NoteNumber":70,"Velocity":37,"Duration":114538,"SoundDuration":114538,"Delta":172340895},{"NoteNumber":74,"Velocity":44,"Duration":114538,"SoundDuration":114538,"Delta":172340895},{"NoteNumber":58,"Velocity":46,"Duration":229077,"SoundDuration":229077,"Delta":172340895},{"NoteNumber":77,"Velocity":35,"Duration":114538,"SoundDuration":114538,"Delta":172455434},{"NoteNumber":74,"Velocity":41,"Duration":113156,"SoundDuration":113156,"Delta":172569973},{"NoteNumber":70,"Velocity":34,"Duration":113156,"SoundDuration":113156,"Delta":172569973},{"NoteNumber":60,"Velocity":44,"Duration":113156,"SoundDuration":113156,"Delta":172569973},{"NoteNumber":77,"Velocity":34,"Duration":113156,"SoundDuration":113156,"Delta":172683129},{"NoteNumber":58,"Velocity":40,"Duration":113156,"SoundDuration":113156,"Delta":172683129},{"NoteNumber":70,"Velocity":34,"Duration":113156,"SoundDuration":113156,"Delta":172796285},{"NoteNumber":74,"Velocity":41,"Duration":113156,"SoundDuration":113156,"Delta":172796285},{"NoteNumber":57,"Velocity":44,"Duration":113156,"SoundDuration":113156,"Delta":172796285},{"NoteNumber":77,"Velocity":34,"Duration":113156,"SoundDuration":113156,"Delta":172909442},{"NoteNumber":55,"Velocity":40,"Duration":113156,"SoundDuration":113156,"Delta":172909442},{"NoteNumber":69,"Velocity":39,"Duration":115937,"SoundDuration":115937,"Delta":173022598},{"NoteNumber":75,"Velocity":47,"Duration":115937,"SoundDuration":115937,"Delta":173022598},{"NoteNumber":53,"Velocity":47,"Duration":115937,"SoundDuration":115937,"Delta":173022598},{"NoteNumber":77,"Velocity":35,"Duration":115937,"SoundDuration":115937,"Delta":173138535},{"NoteNumber":69,"Velocity":34,"Duration":115937,"SoundDuration":115937,"Delta":173254473},{"NoteNumber":75,"Velocity":41,"Duration":115937,"SoundDuration":115937,"Delta":173254473},{"NoteNumber":53,"Velocity":40,"Duration":115937,"SoundDuration":115937,"Delta":173254473},{"NoteNumber":77,"Velocity":37,"Duration":115937,"SoundDuration":115937,"Delta":173370410},{"NoteNumber":69,"Velocity":34,"Duration":118193,"SoundDuration":118193,"Delta":173486348},{"NoteNumber":75,"Velocity":41,"Duration":118193,"SoundDuration":118193,"Delta":173486348},{"NoteNumber":53,"Velocity":40,"Duration":118193,"SoundDuration":118193,"Delta":173486348},{"NoteNumber":77,"Velocity":35,"Duration":118194,"SoundDuration":118194,"Delta":173604542},{"NoteNumber":69,"Velocity":38,"Duration":115919,"SoundDuration":115919,"Delta":173722736},{"NoteNumber":75,"Velocity":45,"Duration":115919,"SoundDuration":115919,"Delta":173722736},{"NoteNumber":54,"Velocity":51,"Duration":231839,"SoundDuration":231839,"Delta":173722736},{"NoteNumber":81,"Velocity":35,"Duration":115919,"SoundDuration":115919,"Delta":173838656},{"NoteNumber":69,"Velocity":34,"Duration":115919,"SoundDuration":115919,"Delta":173954575},{"NoteNumber":75,"Velocity":41,"Duration":115919,"SoundDuration":115919,"Delta":173954575},{"NoteNumber":66,"Velocity":39,"Duration":231839,"SoundDuration":231839,"Delta":173954575},{"NoteNumber":81,"Velocity":35,"Duration":115919,"SoundDuration":115919,"Delta":174070495},{"NoteNumber":69,"Velocity":34,"Duration":118651,"SoundDuration":118651,"Delta":174186415},{"NoteNumber":75,"Velocity":41,"Duration":118651,"SoundDuration":118651,"Delta":174186415},{"NoteNumber":66,"Velocity":41,"Duration":118651,"SoundDuration":118651,"Delta":174186415},{"NoteNumber":81,"Velocity":35,"Duration":118651,"SoundDuration":118651,"Delta":174305067},{"NoteNumber":70,"Velocity":37,"Duration":115919,"SoundDuration":115919,"Delta":174423719},{"NoteNumber":75,"Velocity":44,"Duration":115919,"SoundDuration":115919,"Delta":174423719},{"NoteNumber":67,"Velocity":51,"Duration":231839,"SoundDuration":231839,"Delta":174423719},{"NoteNumber":82,"Velocity":35,"Duration":115919,"SoundDuration":115919,"Delta":174539639},{"NoteNumber":70,"Velocity":34,"Duration":115919,"SoundDuration":115919,"Delta":174655558},{"NoteNumber":75,"Velocity":41,"Duration":115919,"SoundDuration":115919,"Delta":174655558},{"NoteNumber":55,"Velocity":45,"Duration":231839,"SoundDuration":231839,"Delta":174655558},{"NoteNumber":81,"Velocity":35,"Duration":115919,"SoundDuration":115919,"Delta":174771478},{"NoteNumber":70,"Velocity":34,"Duration":115919,"SoundDuration":115919,"Delta":174887398},{"NoteNumber":75,"Velocity":41,"Duration":115919,"SoundDuration":115919,"Delta":174887398},{"NoteNumber":55,"Velocity":46,"Duration":115919,"SoundDuration":115919,"Delta":174887398},{"NoteNumber":79,"Velocity":35,"Duration":115919,"SoundDuration":115919,"Delta":175003318},{"NoteNumber":68,"Velocity":34,"Duration":115919,"SoundDuration":115919,"Delta":175119237},{"NoteNumber":74,"Velocity":41,"Duration":115919,"SoundDuration":115919,"Delta":175119237},{"NoteNumber":58,"Velocity":51,"Duration":57959,"SoundDuration":57959,"Delta":175119237},{"NoteNumber":77,"Velocity":35,"Duration":115919,"SoundDuration":115919,"Delta":175235157},{"NoteNumber":48,"Velocity":39,"Duration":76819,"SoundDuration":76819,"Delta":175293117},{"NoteNumber":68,"Velocity":34,"Duration":113156,"SoundDuration":113156,"Delta":175351077},{"NoteNumber":74,"Velocity":41,"Duration":113156,"SoundDuration":113156,"Delta":175351077},{"NoteNumber":46,"Velocity":46,"Duration":132015,"SoundDuration":132015,"Delta":175351077},{"NoteNumber":77,"Velocity":35,"Duration":113156,"SoundDuration":113156,"Delta":175464233},{"NoteNumber":45,"Velocity":42,"Duration":133651,"SoundDuration":133651,"Delta":175464233},{"NoteNumber":68,"Velocity":34,"Duration":122971,"SoundDuration":122971,"Delta":175577389},{"NoteNumber":74,"Velocity":41,"Duration":122971,"SoundDuration":122971,"Delta":175577389},{"NoteNumber":46,"Velocity":45,"Duration":245942,"SoundDuration":245942,"Delta":175577389},{"NoteNumber":77,"Velocity":35,"Duration":122971,"SoundDuration":122971,"Delta":175700360},{"NoteNumber":67,"Velocity":34,"Duration":115446,"SoundDuration":115446,"Delta":175823331},{"NoteNumber":75,"Velocity":41,"Duration":115446,"SoundDuration":115446,"Delta":175823331},{"NoteNumber":51,"Velocity":42,"Duration":57723,"SoundDuration":57723,"Delta":175823331},{"NoteNumber":79,"Velocity":35,"Duration":115446,"SoundDuration":115446,"Delta":175938778},{"NoteNumber":41,"Velocity":39,"Duration":76582,"SoundDuration":76582,"Delta":175996501},{"NoteNumber":67,"Velocity":34,"Duration":113156,"SoundDuration":113156,"Delta":176054225},{"NoteNumber":75,"Velocity":41,"Duration":113156,"SoundDuration":113156,"Delta":176054225},{"NoteNumber":39,"Velocity":42,"Duration":132015,"SoundDuration":132015,"Delta":176054225},{"NoteNumber":79,"Velocity":35,"Duration":113156,"SoundDuration":113156,"Delta":176167381},{"NoteNumber":38,"Velocity":39,"Duration":133455,"SoundDuration":133455,"Delta":176167381},{"NoteNumber":67,"Velocity":34,"Duration":121792,"SoundDuration":121792,"Delta":176280537},{"NoteNumber":75,"Velocity":41,"Duration":121792,"SoundDuration":121792,"Delta":176280537},{"NoteNumber":39,"Velocity":42,"Duration":121792,"SoundDuration":121792,"Delta":176280537},{"NoteNumber":82,"Velocity":56,"Duration":61505,"SoundDuration":61505,"Delta":176524123},{"NoteNumber":63,"Velocity":29,"Duration":123011,"SoundDuration":123011,"Delta":176524123},{"NoteNumber":67,"Velocity":34,"Duration":123011,"SoundDuration":123011,"Delta":176524123},{"NoteNumber":70,"Velocity":28,"Duration":123011,"SoundDuration":123011,"Delta":176647134},{"NoteNumber":80,"Velocity":47,"Duration":61505,"SoundDuration":61505,"Delta":176708640},{"NoteNumber":79,"Velocity":56,"Duration":113238,"SoundDuration":113238,"Delta":176770145},{"NoteNumber":63,"Velocity":26,"Duration":113238,"SoundDuration":113238,"Delta":176770145},{"NoteNumber":67,"Velocity":32,"Duration":113238,"SoundDuration":113238,"Delta":176770145},{"NoteNumber":77,"Velocity":52,"Duration":113156,"SoundDuration":113156,"Delta":176883384},{"NoteNumber":70,"Velocity":28,"Duration":113156,"SoundDuration":113156,"Delta":176883384},{"NoteNumber":79,"Velocity":56,"Duration":229065,"SoundDuration":229065,"Delta":176996540},{"NoteNumber":63,"Velocity":26,"Duration":114527,"SoundDuration":114527,"Delta":176996540},{"NoteNumber":67,"Velocity":32,"Duration":114527,"SoundDuration":114527,"Delta":176996540},{"NoteNumber":70,"Velocity":28,"Duration":114538,"SoundDuration":114538,"Delta":177111067},{"NoteNumber":82,"Velocity":56,"Duration":60274,"SoundDuration":60274,"Delta":177225606},{"NoteNumber":62,"Velocity":26,"Duration":120549,"SoundDuration":120549,"Delta":177225606},{"NoteNumber":65,"Velocity":32,"Duration":120549,"SoundDuration":120549,"Delta":177225606},{"NoteNumber":70,"Velocity":28,"Duration":120549,"SoundDuration":120549,"Delta":177346156},{"NoteNumber":79,"Velocity":48,"Duration":60274,"SoundDuration":60274,"Delta":177406431},{"NoteNumber":77,"Velocity":56,"Duration":113217,"SoundDuration":113217,"Delta":177466705},{"NoteNumber":62,"Velocity":26,"Duration":113217,"SoundDuration":113217,"Delta":177466705},{"NoteNumber":65,"Velocity":32,"Duration":113217,"SoundDuration":113217,"Delta":177466705},{"NoteNumber":76,"Velocity":52,"Duration":113156,"SoundDuration":113156,"Delta":177579923},{"NoteNumber":70,"Velocity":28,"Duration":113156,"SoundDuration":113156,"Delta":177579923},{"NoteNumber":77,"Velocity":56,"Duration":233553,"SoundDuration":233553,"Delta":177693080},{"NoteNumber":61,"Velocity":26,"Duration":116777,"SoundDuration":116777,"Delta":177693080},{"NoteNumber":65,"Velocity":32,"Duration":116777,"SoundDuration":116777,"Delta":177693080},{"NoteNumber":70,"Velocity":28,"Duration":116776,"SoundDuration":116776,"Delta":177809857},{"NoteNumber":84,"Velocity":58,"Duration":241099,"SoundDuration":241099,"Delta":177926634},{"NoteNumber":60,"Velocity":26,"Duration":120549,"SoundDuration":120549,"Delta":177926634},{"NoteNumber":65,"Velocity":32,"Duration":120549,"SoundDuration":120549,"Delta":177926634},{"NoteNumber":68,"Velocity":28,"Duration":120549,"SoundDuration":120549,"Delta":178047183},{"NoteNumber":82,"Velocity":59,"Duration":113217,"SoundDuration":113217,"Delta":178167733},{"NoteNumber":60,"Velocity":26,"Duration":113217,"SoundDuration":113217,"Delta":178167733},{"NoteNumber":65,"Velocity":32,"Duration":113217,"SoundDuration":113217,"Delta":178167733},{"NoteNumber":80,"Velocity":54,"Duration":113156,"SoundDuration":113156,"Delta":178280951},{"NoteNumber":68,"Velocity":28,"Duration":113156,"SoundDuration":113156,"Delta":178280951},{"NoteNumber":79,"Velocity":58,"Duration":119741,"SoundDuration":119741,"Delta":178394107},{"NoteNumber":60,"Velocity":26,"Duration":119741,"SoundDuration":119741,"Delta":178394107},{"NoteNumber":65,"Velocity":32,"Duration":119741,"SoundDuration":119741,"Delta":178394107},{"NoteNumber":77,"Velocity":58,"Duration":119741,"SoundDuration":119741,"Delta":178513848},{"NoteNumber":68,"Velocity":28,"Duration":119741,"SoundDuration":119741,"Delta":178513848},{"NoteNumber":84,"Velocity":58,"Duration":245699,"SoundDuration":245699,"Delta":178633590},{"NoteNumber":60,"Velocity":26,"Duration":122849,"SoundDuration":122849,"Delta":178633590},{"NoteNumber":65,"Velocity":32,"Duration":122849,"SoundDuration":122849,"Delta":178633590},{"NoteNumber":67,"Velocity":28,"Duration":122849,"SoundDuration":122849,"Delta":178756440},{"NoteNumber":72,"Velocity":56,"Duration":236480,"SoundDuration":236480,"Delta":178879290},{"NoteNumber":60,"Velocity":26,"Duration":118240,"SoundDuration":118240,"Delta":178879290},{"NoteNumber":64,"Velocity":32,"Duration":118240,"SoundDuration":118240,"Delta":178879290},{"NoteNumber":67,"Velocity":28,"Duration":118240,"SoundDuration":118240,"Delta":178997530},{"NoteNumber":72,"Velocity":56,"Duration":236480,"SoundDuration":236480,"Delta":179115771},{"NoteNumber":60,"Velocity":26,"Duration":118240,"SoundDuration":118240,"Delta":179115771},{"NoteNumber":64,"Velocity":32,"Duration":118240,"SoundDuration":118240,"Delta":179115771},{"NoteNumber":67,"Velocity":30,"Duration":118240,"SoundDuration":118240,"Delta":179234011},{"NoteNumber":68,"Velocity":37,"Duration":120240,"SoundDuration":120240,"Delta":179352252},{"NoteNumber":72,"Velocity":44,"Duration":120240,"SoundDuration":120240,"Delta":179352252},{"NoteNumber":56,"Velocity":37,"Duration":721660,"SoundDuration":721660,"Delta":179352252},{"NoteNumber":60,"Velocity":44,"Duration":240480,"SoundDuration":240480,"Delta":179352252},{"NoteNumber":75,"Velocity":39,"Duration":120240,"SoundDuration":120240,"Delta":179472492},{"NoteNumber":68,"Velocity":38,"Duration":119741,"SoundDuration":119741,"Delta":179592733},{"NoteNumber":72,"Velocity":45,"Duration":119741,"SoundDuration":119741,"Delta":179592733},{"NoteNumber":61,"Velocity":40,"Duration":239482,"SoundDuration":239482,"Delta":179592733},{"NoteNumber":75,"Velocity":38,"Duration":119741,"SoundDuration":119741,"Delta":179712474},{"NoteNumber":68,"Velocity":38,"Duration":121271,"SoundDuration":121271,"Delta":179832215},{"NoteNumber":72,"Velocity":45,"Duration":121271,"SoundDuration":121271,"Delta":179832215},{"NoteNumber":60,"Velocity":40,"Duration":241697,"SoundDuration":241697,"Delta":179832215},{"NoteNumber":75,"Velocity":39,"Duration":120426,"SoundDuration":120426,"Delta":179953486},{"NoteNumber":68,"Velocity":37,"Duration":120240,"SoundDuration":120240,"Delta":180073912},{"NoteNumber":77,"Velocity":44,"Duration":120240,"SoundDuration":120240,"Delta":180073912},{"NoteNumber":49,"Velocity":37,"Duration":717444,"SoundDuration":717444,"Delta":180073912},{"NoteNumber":58,"Velocity":44,"Duration":240480,"SoundDuration":240480,"Delta":180073912},{"NoteNumber":80,"Velocity":39,"Duration":120240,"SoundDuration":120240,"Delta":180194153},{"NoteNumber":68,"Velocity":39,"Duration":118736,"SoundDuration":118736,"Delta":180314393},{"NoteNumber":77,"Velocity":47,"Duration":118736,"SoundDuration":118736,"Delta":180314393},{"NoteNumber":53,"Velocity":42,"Duration":237473,"SoundDuration":237473,"Delta":180314393},{"NoteNumber":80,"Velocity":39,"Duration":118736,"SoundDuration":118736,"Delta":180433130},{"NoteNumber":68,"Velocity":41,"Duration":118736,"SoundDuration":118736,"Delta":180551867},{"NoteNumber":77,"Velocity":49,"Duration":118736,"SoundDuration":118736,"Delta":180551867},{"NoteNumber":55,"Velocity":44,"Duration":239490,"SoundDuration":239490,"Delta":180551867},{"NoteNumber":80,"Velocity":43,"Duration":120753,"SoundDuration":120753,"Delta":180670604},{"NoteNumber":58,"Velocity":41,"Duration":60376,"SoundDuration":60376,"Delta":180730980},{"NoteNumber":68,"Velocity":37,"Duration":118651,"SoundDuration":118651,"Delta":180791357},{"NoteNumber":72,"Velocity":44,"Duration":118651,"SoundDuration":118651,"Delta":180791357},{"NoteNumber":51,"Velocity":37,"Duration":1442963,"SoundDuration":1442963,"Delta":180791357},{"NoteNumber":56,"Velocity":44,"Duration":237303,"SoundDuration":237303,"Delta":180791357},{"NoteNumber":75,"Velocity":38,"Duration":118651,"SoundDuration":118651,"Delta":180910009},{"NoteNumber":68,"Velocity":35,"Duration":118651,"SoundDuration":118651,"Delta":181028661},{"NoteNumber":72,"Velocity":42,"Duration":118651,"SoundDuration":118651,"Delta":181028661},{"NoteNumber":55,"Velocity":38,"Duration":237303,"SoundDuration":237303,"Delta":181028661},{"NoteNumber":75,"Velocity":34,"Duration":118651,"SoundDuration":118651,"Delta":181147313},{"NoteNumber":68,"Velocity":34,"Duration":121792,"SoundDuration":121792,"Delta":181265965},{"NoteNumber":72,"Velocity":40,"Duration":121792,"SoundDuration":121792,"Delta":181265965},{"NoteNumber":56,"Velocity":35,"Duration":243585,"SoundDuration":243585,"Delta":181265965},{"NoteNumber":75,"Velocity":33,"Duration":121792,"SoundDuration":121792,"Delta":181387758},{"NoteNumber":67,"Velocity":31,"Duration":119236,"SoundDuration":119236,"Delta":181509551},{"NoteNumber":73,"Velocity":37,"Duration":119236,"SoundDuration":119236,"Delta":181509551},{"NoteNumber":58,"Velocity":37,"Duration":480654,"SoundDuration":480654,"Delta":181509551},{"NoteNumber":75,"Velocity":32,"Duration":119907,"SoundDuration":119907,"Delta":181628788},{"NoteNumber":67,"Velocity":31,"Duration":120411,"SoundDuration":120411,"Delta":181748695},{"NoteNumber":73,"Velocity":38,"Duration":120411,"SoundDuration":120411,"Delta":181748695},{"NoteNumber":75,"Velocity":31,"Duration":121098,"SoundDuration":121098,"Delta":181869107},{"NoteNumber":67,"Velocity":31,"Duration":121618,"SoundDuration":121618,"Delta":181990205},{"NoteNumber":73,"Velocity":38,"Duration":121618,"SoundDuration":121618,"Delta":181990205},{"NoteNumber":59,"Velocity":34,"Duration":244114,"SoundDuration":244114,"Delta":181990205},{"NoteNumber":75,"Velocity":32,"Duration":122496,"SoundDuration":122496,"Delta":182111824},{"NoteNumber":68,"Velocity":47,"Duration":61505,"SoundDuration":61505,"Delta":182234320},{"NoteNumber":72,"Velocity":47,"Duration":61505,"SoundDuration":61505,"Delta":182234320},{"NoteNumber":75,"Velocity":56,"Duration":61505,"SoundDuration":61505,"Delta":182234320},{"NoteNumber":56,"Velocity":29,"Duration":123011,"SoundDuration":123011,"Delta":182234320},{"NoteNumber":60,"Velocity":34,"Duration":123011,"SoundDuration":123011,"Delta":182234320},{"NoteNumber":63,"Velocity":28,"Duration":123011,"SoundDuration":123011,"Delta":182357332},{"NoteNumber":73,"Velocity":49,"Duration":61505,"SoundDuration":61505,"Delta":182418837},{"NoteNumber":72,"Velocity":56,"Duration":113238,"SoundDuration":113238,"Delta":182480343},{"NoteNumber":56,"Velocity":26,"Duration":113238,"SoundDuration":113238,"Delta":182480343},{"NoteNumber":60,"Velocity":32,"Duration":113238,"SoundDuration":113238,"Delta":182480343},{"NoteNumber":70,"Velocity":52,"Duration":113156,"SoundDuration":113156,"Delta":182593581},{"NoteNumber":63,"Velocity":28,"Duration":113156,"SoundDuration":113156,"Delta":182593581},{"NoteNumber":72,"Velocity":56,"Duration":229065,"SoundDuration":229065,"Delta":182706737},{"NoteNumber":56,"Velocity":26,"Duration":114527,"SoundDuration":114527,"Delta":182706737},{"NoteNumber":60,"Velocity":32,"Duration":114527,"SoundDuration":114527,"Delta":182706737},{"NoteNumber":63,"Velocity":28,"Duration":114538,"SoundDuration":114538,"Delta":182821265},{"NoteNumber":75,"Velocity":56,"Duration":60274,"SoundDuration":60274,"Delta":182935803},{"NoteNumber":55,"Velocity":26,"Duration":120549,"SoundDuration":120549,"Delta":182935803},{"NoteNumber":58,"Velocity":32,"Duration":120549,"SoundDuration":120549,"Delta":182935803},{"NoteNumber":63,"Velocity":28,"Duration":120549,"SoundDuration":120549,"Delta":183056353},{"NoteNumber":72,"Velocity":49,"Duration":60274,"SoundDuration":60274,"Delta":183116628},{"NoteNumber":70,"Velocity":56,"Duration":113217,"SoundDuration":113217,"Delta":183176903},{"NoteNumber":55,"Velocity":26,"Duration":113217,"SoundDuration":113217,"Delta":183176903},{"NoteNumber":58,"Velocity":32,"Duration":113217,"SoundDuration":113217,"Delta":183176903},{"NoteNumber":69,"Velocity":52,"Duration":113156,"SoundDuration":113156,"Delta":183290121},{"NoteNumber":63,"Velocity":28,"Duration":113156,"SoundDuration":113156,"Delta":183290121},{"NoteNumber":70,"Velocity":56,"Duration":233553,"SoundDuration":233553,"Delta":183403277},{"NoteNumber":54,"Velocity":26,"Duration":116777,"SoundDuration":116777,"Delta":183403277},{"NoteNumber":58,"Velocity":32,"Duration":116777,"SoundDuration":116777,"Delta":183403277},{"NoteNumber":63,"Velocity":28,"Duration":116776,"SoundDuration":116776,"Delta":183520054},{"NoteNumber":77,"Velocity":58,"Duration":241099,"SoundDuration":241099,"Delta":183636831},{"NoteNumber":53,"Velocity":26,"Duration":120549,"SoundDuration":120549,"Delta":183636831},{"NoteNumber":58,"Velocity":32,"Duration":120549,"SoundDuration":120549,"Delta":183636831},{"NoteNumber":61,"Velocity":28,"Duration":120549,"SoundDuration":120549,"Delta":183757381},{"NoteNumber":75,"Velocity":59,"Duration":113217,"SoundDuration":113217,"Delta":183877931},{"NoteNumber":53,"Velocity":26,"Duration":113217,"SoundDuration":113217,"Delta":183877931},{"NoteNumber":58,"Velocity":32,"Duration":113217,"SoundDuration":113217,"Delta":183877931},{"NoteNumber":73,"Velocity":54,"Duration":113156,"SoundDuration":113156,"Delta":183991148},{"NoteNumber":61,"Velocity":28,"Duration":113156,"SoundDuration":113156,"Delta":183991148},{"NoteNumber":72,"Velocity":58,"Duration":119236,"SoundDuration":119236,"Delta":184104305},{"NoteNumber":53,"Velocity":26,"Duration":119236,"SoundDuration":119236,"Delta":184104305},{"NoteNumber":58,"Velocity":32,"Duration":119236,"SoundDuration":119236,"Delta":184104305},{"NoteNumber":70,"Velocity":58,"Duration":119236,"SoundDuration":119236,"Delta":184223542},{"NoteNumber":61,"Velocity":28,"Duration":119236,"SoundDuration":119236,"Delta":184223542},{"NoteNumber":77,"Velocity":58,"Duration":243585,"SoundDuration":243585,"Delta":184342779},{"NoteNumber":53,"Velocity":26,"Duration":121792,"SoundDuration":121792,"Delta":184342779},{"NoteNumber":58,"Velocity":32,"Duration":121792,"SoundDuration":121792,"Delta":184342779},{"NoteNumber":60,"Velocity":28,"Duration":121792,"SoundDuration":121792,"Delta":184464571},{"NoteNumber":65,"Velocity":56,"Duration":237473,"SoundDuration":237473,"Delta":184586364},{"NoteNumber":53,"Velocity":26,"Duration":118736,"SoundDuration":118736,"Delta":184586364},{"NoteNumber":57,"Velocity":32,"Duration":118736,"SoundDuration":118736,"Delta":184586364},{"NoteNumber":60,"Velocity":28,"Duration":118736,"SoundDuration":118736,"Delta":184705101},{"NoteNumber":65,"Velocity":56,"Duration":237473,"SoundDuration":237473,"Delta":184823838},{"NoteNumber":53,"Velocity":26,"Duration":118736,"SoundDuration":118736,"Delta":184823838},{"NoteNumber":57,"Velocity":32,"Duration":118736,"SoundDuration":118736,"Delta":184823838},{"NoteNumber":60,"Velocity":30,"Duration":118736,"SoundDuration":118736,"Delta":184942574},{"NoteNumber":73,"Velocity":37,"Duration":120240,"SoundDuration":120240,"Delta":185061311},{"NoteNumber":77,"Velocity":44,"Duration":120240,"SoundDuration":120240,"Delta":185061311},{"NoteNumber":61,"Velocity":37,"Duration":718270,"SoundDuration":718270,"Delta":185061311},{"NoteNumber":65,"Velocity":44,"Duration":240480,"SoundDuration":240480,"Delta":185061311},{"NoteNumber":80,"Velocity":39,"Duration":120240,"SoundDuration":120240,"Delta":185181552},{"NoteNumber":73,"Velocity":38,"Duration":119741,"SoundDuration":119741,"Delta":185301792},{"NoteNumber":77,"Velocity":45,"Duration":119741,"SoundDuration":119741,"Delta":185301792},{"NoteNumber":66,"Velocity":40,"Duration":239482,"SoundDuration":239482,"Delta":185301792},{"NoteNumber":80,"Velocity":38,"Duration":119741,"SoundDuration":119741,"Delta":185421533},{"NoteNumber":73,"Velocity":38,"Duration":119236,"SoundDuration":119236,"Delta":185541275},{"NoteNumber":77,"Velocity":45,"Duration":119236,"SoundDuration":119236,"Delta":185541275},{"NoteNumber":65,"Velocity":40,"Duration":238307,"SoundDuration":238307,"Delta":185541275},{"NoteNumber":80,"Velocity":39,"Duration":119070,"SoundDuration":119070,"Delta":185660512},{"NoteNumber":73,"Velocity":37,"Duration":121271,"SoundDuration":121271,"Delta":185779582},{"NoteNumber":82,"Velocity":44,"Duration":121271,"SoundDuration":121271,"Delta":185779582},{"NoteNumber":54,"Velocity":37,"Duration":718017,"SoundDuration":718017,"Delta":185779582},{"NoteNumber":63,"Velocity":44,"Duration":242541,"SoundDuration":242541,"Delta":185779582},{"NoteNumber":85,"Velocity":39,"Duration":121270,"SoundDuration":121270,"Delta":185900853},{"NoteNumber":73,"Velocity":39,"Duration":118240,"SoundDuration":118240,"Delta":186022124},{"NoteNumber":82,"Velocity":47,"Duration":118240,"SoundDuration":118240,"Delta":186022124},{"NoteNumber":58,"Velocity":42,"Duration":236480,"SoundDuration":236480,"Delta":186022124},{"NoteNumber":85,"Velocity":39,"Duration":118240,"SoundDuration":118240,"Delta":186140364},{"NoteNumber":73,"Velocity":41,"Duration":118240,"SoundDuration":118240,"Delta":186258605},{"NoteNumber":82,"Velocity":49,"Duration":118240,"SoundDuration":118240,"Delta":186258605},{"NoteNumber":60,"Velocity":44,"Duration":238994,"SoundDuration":238994,"Delta":186258605},{"NoteNumber":85,"Velocity":43,"Duration":120753,"SoundDuration":120753,"Delta":186376845},{"NoteNumber":63,"Velocity":41,"Duration":60376,"SoundDuration":60376,"Delta":186437222},{"NoteNumber":73,"Velocity":37,"Duration":118651,"SoundDuration":118651,"Delta":186497599},{"NoteNumber":77,"Velocity":44,"Duration":118651,"SoundDuration":118651,"Delta":186497599},{"NoteNumber":56,"Velocity":37,"Duration":1429442,"SoundDuration":1429442,"Delta":186497599},{"NoteNumber":61,"Velocity":44,"Duration":237303,"SoundDuration":237303,"Delta":186497599},{"NoteNumber":80,"Velocity":38,"Duration":118651,"SoundDuration":118651,"Delta":186616251},{"NoteNumber":73,"Velocity":35,"Duration":118651,"SoundDuration":118651,"Delta":186734903},{"NoteNumber":77,"Velocity":42,"Duration":118651,"SoundDuration":118651,"Delta":186734903},{"NoteNumber":60,"Velocity":38,"Duration":237303,"SoundDuration":237303,"Delta":186734903},{"NoteNumber":80,"Velocity":34,"Duration":118651,"SoundDuration":118651,"Delta":186853555},{"NoteNumber":73,"Velocity":34,"Duration":118651,"SoundDuration":118651,"Delta":186972207},{"NoteNumber":77,"Velocity":40,"Duration":118651,"SoundDuration":118651,"Delta":186972207},{"NoteNumber":61,"Velocity":35,"Duration":237304,"SoundDuration":237304,"Delta":186972207},{"NoteNumber":80,"Velocity":33,"Duration":118652,"SoundDuration":118652,"Delta":187090859},{"NoteNumber":72,"Velocity":31,"Duration":118232,"SoundDuration":118232,"Delta":187209511},{"NoteNumber":78,"Velocity":37,"Duration":118232,"SoundDuration":118232,"Delta":187209511},{"NoteNumber":63,"Velocity":37,"Duration":476169,"SoundDuration":476169,"Delta":187209511},{"NoteNumber":80,"Velocity":32,"Duration":118772,"SoundDuration":118772,"Delta":187327743},{"NoteNumber":72,"Velocity":31,"Duration":119322,"SoundDuration":119322,"Delta":187446515},{"NoteNumber":78,"Velocity":38,"Duration":119322,"SoundDuration":119322,"Delta":187446515},{"NoteNumber":80,"Velocity":31,"Duration":119842,"SoundDuration":119842,"Delta":187565838},{"NoteNumber":72,"Velocity":31,"Duration":120398,"SoundDuration":120398,"Delta":187685680},{"NoteNumber":78,"Velocity":38,"Duration":120398,"SoundDuration":120398,"Delta":187685680},{"NoteNumber":64,"Velocity":34,"Duration":241361,"SoundDuration":241361,"Delta":187685680},{"NoteNumber":80,"Velocity":32,"Duration":120963,"SoundDuration":120963,"Delta":187806079},{"NoteNumber":73,"Velocity":31,"Duration":246022,"SoundDuration":246022,"Delta":187927042},{"NoteNumber":77,"Velocity":31,"Duration":246022,"SoundDuration":246022,"Delta":187927042},{"NoteNumber":80,"Velocity":37,"Duration":246022,"SoundDuration":246022,"Delta":187927042},{"NoteNumber":61,"Velocity":29,"Duration":61505,"SoundDuration":61505,"Delta":187927042},{"NoteNumber":65,"Velocity":34,"Duration":61505,"SoundDuration":61505,"Delta":187927042},{"NoteNumber":49,"Velocity":28,"Duration":61159,"SoundDuration":61159,"Delta":188173064},{"NoteNumber":49,"Velocity":28,"Duration":63062,"SoundDuration":63062,"Delta":188417703},{"NoteNumber":61,"Velocity":26,"Duration":60376,"SoundDuration":60376,"Delta":188669952},{"NoteNumber":65,"Velocity":32,"Duration":60376,"SoundDuration":60376,"Delta":188672971},{"NoteNumber":49,"Velocity":28,"Duration":61425,"SoundDuration":61425,"Delta":188911459},{"NoteNumber":49,"Velocity":28,"Duration":62782,"SoundDuration":62782,"Delta":189157159},{"NoteNumber":73,"Velocity":40,"Duration":179559,"SoundDuration":179559,"Delta":189345506},{"NoteNumber":77,"Velocity":40,"Duration":148168,"SoundDuration":148168,"Delta":189376897},{"NoteNumber":80,"Velocity":51,"Duration":116777,"SoundDuration":116777,"Delta":189408289},{"NoteNumber":61,"Velocity":28,"Duration":58388,"SoundDuration":58388,"Delta":189408289},{"NoteNumber":65,"Velocity":33,"Duration":58388,"SoundDuration":58388,"Delta":189408289},{"NoteNumber":78,"Velocity":40,"Duration":115357,"SoundDuration":115357,"Delta":189641843},{"NoteNumber":49,"Velocity":28,"Duration":57679,"SoundDuration":57679,"Delta":189641843},{"NoteNumber":77,"Velocity":40,"Duration":115358,"SoundDuration":115358,"Delta":189757201},{"NoteNumber":75,"Velocity":40,"Duration":120753,"SoundDuration":120753,"Delta":189872559},{"NoteNumber":49,"Velocity":28,"Duration":60376,"SoundDuration":60376,"Delta":189872559},{"NoteNumber":73,"Velocity":40,"Duration":120753,"SoundDuration":120753,"Delta":189993312},{"NoteNumber":68,"Velocity":40,"Duration":176682,"SoundDuration":176682,"Delta":190053689},{"NoteNumber":72,"Velocity":40,"Duration":146494,"SoundDuration":146494,"Delta":190083877},{"NoteNumber":75,"Velocity":49,"Duration":116306,"SoundDuration":116306,"Delta":190114066},{"NoteNumber":61,"Velocity":28,"Duration":58153,"SoundDuration":58153,"Delta":190114066},{"NoteNumber":66,"Velocity":34,"Duration":58153,"SoundDuration":58153,"Delta":190114066},{"NoteNumber":73,"Velocity":40,"Duration":115357,"SoundDuration":115357,"Delta":190346678},{"NoteNumber":49,"Velocity":28,"Duration":57679,"SoundDuration":57679,"Delta":190346678},{"NoteNumber":72,"Velocity":40,"Duration":115358,"SoundDuration":115358,"Delta":190462036},{"NoteNumber":70,"Velocity":40,"Duration":119741,"SoundDuration":119741,"Delta":190577394},{"NoteNumber":49,"Velocity":28,"Duration":59870,"SoundDuration":59870,"Delta":190577394},{"NoteNumber":68,"Velocity":40,"Duration":119741,"SoundDuration":119741,"Delta":190697135},{"NoteNumber":73,"Velocity":40,"Duration":181663,"SoundDuration":181663,"Delta":190757006},{"NoteNumber":77,"Velocity":40,"Duration":151728,"SoundDuration":151728,"Delta":190786941},{"NoteNumber":80,"Velocity":53,"Duration":121792,"SoundDuration":121792,"Delta":190816876},{"NoteNumber":61,"Velocity":28,"Duration":60896,"SoundDuration":60896,"Delta":190816876},{"NoteNumber":65,"Velocity":33,"Duration":60896,"SoundDuration":60896,"Delta":190816876},{"NoteNumber":78,"Velocity":42,"Duration":115357,"SoundDuration":115357,"Delta":191060462},{"NoteNumber":49,"Velocity":28,"Duration":57679,"SoundDuration":57679,"Delta":191060462},{"NoteNumber":77,"Velocity":45,"Duration":115358,"SoundDuration":115358,"Delta":191175820},{"NoteNumber":75,"Velocity":47,"Duration":115357,"SoundDuration":115357,"Delta":191291178},{"NoteNumber":49,"Velocity":33,"Duration":57679,"SoundDuration":57679,"Delta":191291178},{"NoteNumber":73,"Velocity":51,"Duration":116484,"SoundDuration":116484,"Delta":191406536},{"NoteNumber":85,"Velocity":57,"Duration":59368,"SoundDuration":59368,"Delta":191523020},{"NoteNumber":82,"Velocity":57,"Duration":59368,"SoundDuration":59368,"Delta":191523020},{"NoteNumber":78,"Velocity":57,"Duration":59368,"SoundDuration":59368,"Delta":191523020},{"NoteNumber":61,"Velocity":31,"Duration":59368,"SoundDuration":59368,"Delta":191523020},{"NoteNumber":66,"Velocity":38,"Duration":59368,"SoundDuration":59368,"Delta":191523020},{"NoteNumber":78,"Velocity":51,"Duration":59870,"SoundDuration":59870,"Delta":191761329},{"NoteNumber":82,"Velocity":51,"Duration":59870,"SoundDuration":59870,"Delta":191761329},{"NoteNumber":85,"Velocity":51,"Duration":59870,"SoundDuration":59870,"Delta":191761329},{"NoteNumber":49,"Velocity":28,"Duration":59870,"SoundDuration":59870,"Delta":191761329},{"NoteNumber":78,"Velocity":51,"Duration":60376,"SoundDuration":60376,"Delta":192001648},{"NoteNumber":82,"Velocity":51,"Duration":60376,"SoundDuration":60376,"Delta":192001648},{"NoteNumber":85,"Velocity":51,"Duration":60376,"SoundDuration":60376,"Delta":192001648},{"NoteNumber":49,"Velocity":28,"Duration":60376,"SoundDuration":60376,"Delta":192001648},{"NoteNumber":58,"Velocity":28,"Duration":58388,"SoundDuration":58388,"Delta":192244193},{"NoteNumber":61,"Velocity":28,"Duration":58388,"SoundDuration":58388,"Delta":192244193},{"NoteNumber":66,"Velocity":33,"Duration":58388,"SoundDuration":58388,"Delta":192244193},{"NoteNumber":49,"Velocity":25,"Duration":59870,"SoundDuration":59870,"Delta":192477747},{"NoteNumber":49,"Velocity":25,"Duration":61159,"SoundDuration":61159,"Delta":192717229},{"NoteNumber":58,"Velocity":25,"Duration":58153,"SoundDuration":58153,"Delta":192961868},{"NoteNumber":61,"Velocity":25,"Duration":58153,"SoundDuration":58153,"Delta":192961868},{"NoteNumber":66,"Velocity":30,"Duration":58153,"SoundDuration":58153,"Delta":192961868},{"NoteNumber":49,"Velocity":25,"Duration":59870,"SoundDuration":59870,"Delta":193194480},{"NoteNumber":49,"Velocity":25,"Duration":60388,"SoundDuration":60388,"Delta":193433962},{"NoteNumber":65,"Velocity":49,"Duration":233767,"SoundDuration":233767,"Delta":193678626},{"NoteNumber":56,"Velocity":24,"Duration":59870,"SoundDuration":59870,"Delta":193678626},{"NoteNumber":61,"Velocity":29,"Duration":59870,"SoundDuration":59870,"Delta":193678626},{"NoteNumber":68,"Velocity":34,"Duration":54155,"SoundDuration":54155,"Delta":193858238},{"NoteNumber":66,"Velocity":41,"Duration":236480,"SoundDuration":236480,"Delta":193912393},{"NoteNumber":49,"Velocity":24,"Duration":59120,"SoundDuration":59120,"Delta":193912393},{"NoteNumber":65,"Velocity":41,"Duration":236480,"SoundDuration":236480,"Delta":194148874},{"NoteNumber":49,"Velocity":24,"Duration":59120,"SoundDuration":59120,"Delta":194148874},{"NoteNumber":63,"Velocity":48,"Duration":233553,"SoundDuration":233553,"Delta":194385355},{"NoteNumber":54,"Velocity":25,"Duration":58388,"SoundDuration":58388,"Delta":194385355},{"NoteNumber":58,"Velocity":30,"Duration":58388,"SoundDuration":58388,"Delta":194385355},{"NoteNumber":65,"Velocity":41,"Duration":114425,"SoundDuration":114425,"Delta":194618909},{"NoteNumber":42,"Velocity":24,"Duration":57212,"SoundDuration":57212,"Delta":194618909},{"NoteNumber":66,"Velocity":41,"Duration":114118,"SoundDuration":114118,"Delta":194733334},{"NoteNumber":68,"Velocity":43,"Duration":113812,"SoundDuration":113812,"Delta":194847453},{"NoteNumber":42,"Velocity":24,"Duration":56982,"SoundDuration":56982,"Delta":194847453},{"NoteNumber":70,"Velocity":44,"Duration":113356,"SoundDuration":113356,"Delta":194961265},{"NoteNumber":72,"Velocity":52,"Duration":232611,"SoundDuration":232611,"Delta":195074621},{"NoteNumber":63,"Velocity":24,"Duration":58153,"SoundDuration":58153,"Delta":195074621},{"NoteNumber":66,"Velocity":29,"Duration":58153,"SoundDuration":58153,"Delta":195074621},{"NoteNumber":70,"Velocity":50,"Duration":114425,"SoundDuration":114425,"Delta":195307233},{"NoteNumber":56,"Velocity":24,"Duration":57212,"SoundDuration":57212,"Delta":195307233},{"NoteNumber":72,"Velocity":46,"Duration":114425,"SoundDuration":114425,"Delta":195421658},{"NoteNumber":73,"Velocity":48,"Duration":114425,"SoundDuration":114425,"Delta":195536084},{"NoteNumber":56,"Velocity":24,"Duration":57212,"SoundDuration":57212,"Delta":195536084},{"NoteNumber":75,"Velocity":50,"Duration":114425,"SoundDuration":114425,"Delta":195650509},{"NoteNumber":77,"Velocity":53,"Duration":57968,"SoundDuration":57968,"Delta":195764934},{"NoteNumber":65,"Velocity":29,"Duration":57968,"SoundDuration":57968,"Delta":195764934},{"NoteNumber":61,"Velocity":24,"Duration":57968,"SoundDuration":57968,"Delta":195764934},{"NoteNumber":77,"Velocity":45,"Duration":57968,"SoundDuration":57968,"Delta":195996809},{"NoteNumber":49,"Velocity":24,"Duration":57968,"SoundDuration":57968,"Delta":195996809},{"NoteNumber":77,"Velocity":44,"Duration":59325,"SoundDuration":59325,"Delta":196228684},{"NoteNumber":49,"Velocity":24,"Duration":59325,"SoundDuration":59325,"Delta":196228684},{"NoteNumber":61,"Velocity":25,"Duration":60635,"SoundDuration":60635,"Delta":196465988},{"NoteNumber":65,"Velocity":30,"Duration":60635,"SoundDuration":60635,"Delta":196465988},{"NoteNumber":49,"Velocity":25,"Duration":61425,"SoundDuration":61425,"Delta":196708530},{"NoteNumber":49,"Velocity":25,"Duration":63062,"SoundDuration":63062,"Delta":196954230},{"NoteNumber":61,"Velocity":25,"Duration":60376,"SoundDuration":60376,"Delta":197206479},{"NoteNumber":65,"Velocity":31,"Duration":60376,"SoundDuration":60376,"Delta":197209498},{"NoteNumber":49,"Velocity":28,"Duration":61425,"SoundDuration":61425,"Delta":197447986},{"NoteNumber":49,"Velocity":28,"Duration":62782,"SoundDuration":62782,"Delta":197693686},{"NoteNumber":73,"Velocity":40,"Duration":180531,"SoundDuration":180531,"Delta":197882034},{"NoteNumber":77,"Velocity":40,"Duration":149139,"SoundDuration":149139,"Delta":197913425},{"NoteNumber":80,"Velocity":51,"Duration":117748,"SoundDuration":117748,"Delta":197944816},{"NoteNumber":61,"Velocity":28,"Duration":58874,"SoundDuration":58874,"Delta":197944816},{"NoteNumber":65,"Velocity":33,"Duration":58874,"SoundDuration":58874,"Delta":197944816},{"NoteNumber":78,"Velocity":40,"Duration":115357,"SoundDuration":115357,"Delta":198180314},{"NoteNumber":49,"Velocity":28,"Duration":57679,"SoundDuration":57679,"Delta":198180314},{"NoteNumber":77,"Velocity":40,"Duration":115358,"SoundDuration":115358,"Delta":198295672},{"NoteNumber":75,"Velocity":40,"Duration":119236,"SoundDuration":119236,"Delta":198411030},{"NoteNumber":49,"Velocity":28,"Duration":59618,"SoundDuration":59618,"Delta":198411030},{"NoteNumber":73,"Velocity":40,"Duration":119236,"SoundDuration":119236,"Delta":198530267},{"NoteNumber":68,"Velocity":40,"Duration":175924,"SoundDuration":175924,"Delta":198589885},{"NoteNumber":72,"Velocity":40,"Duration":146115,"SoundDuration":146115,"Delta":198619694},{"NoteNumber":75,"Velocity":49,"Duration":116306,"SoundDuration":116306,"Delta":198649504},{"NoteNumber":61,"Velocity":28,"Duration":58153,"SoundDuration":58153,"Delta":198649504},{"NoteNumber":66,"Velocity":34,"Duration":58153,"SoundDuration":58153,"Delta":198649504},{"NoteNumber":73,"Velocity":40,"Duration":115357,"SoundDuration":115357,"Delta":198882116},{"NoteNumber":49,"Velocity":28,"Duration":57679,"SoundDuration":57679,"Delta":198882116},{"NoteNumber":72,"Velocity":40,"Duration":115358,"SoundDuration":115358,"Delta":198997474},{"NoteNumber":70,"Velocity":40,"Duration":120240,"SoundDuration":120240,"Delta":199112832},{"NoteNumber":49,"Velocity":28,"Duration":60120,"SoundDuration":60120,"Delta":199112832},{"NoteNumber":68,"Velocity":40,"Duration":120240,"SoundDuration":120240,"Delta":199233072},{"NoteNumber":73,"Velocity":40,"Duration":181912,"SoundDuration":181912,"Delta":199293192},{"NoteNumber":77,"Velocity":40,"Duration":151852,"SoundDuration":151852,"Delta":199323252},{"NoteNumber":80,"Velocity":53,"Duration":121792,"SoundDuration":121792,"Delta":199353313},{"NoteNumber":61,"Velocity":28,"Duration":60896,"SoundDuration":60896,"Delta":199353313},{"NoteNumber":65,"Velocity":33,"Duration":60896,"SoundDuration":60896,"Delta":199353313},{"NoteNumber":78,"Velocity":42,"Duration":115357,"SoundDuration":115357,"Delta":199596898},{"NoteNumber":49,"Velocity":28,"Duration":57679,"SoundDuration":57679,"Delta":199596898},{"NoteNumber":77,"Velocity":45,"Duration":115358,"SoundDuration":115358,"Delta":199712256},{"NoteNumber":75,"Velocity":47,"Duration":115357,"SoundDuration":115357,"Delta":199827614},{"NoteNumber":49,"Velocity":33,"Duration":57679,"SoundDuration":57679,"Delta":199827614},{"NoteNumber":73,"Velocity":51,"Duration":115358,"SoundDuration":115358,"Delta":199942972},{"NoteNumber":85,"Velocity":57,"Duration":59952,"SoundDuration":59952,"Delta":200058330},{"NoteNumber":81,"Velocity":57,"Duration":59952,"SoundDuration":59952,"Delta":200058330},{"NoteNumber":78,"Velocity":57,"Duration":59952,"SoundDuration":59952,"Delta":200058330},{"NoteNumber":61,"Velocity":31,"Duration":59952,"SoundDuration":59952,"Delta":200058330},{"NoteNumber":66,"Velocity":38,"Duration":59952,"SoundDuration":59952,"Delta":200058330},{"NoteNumber":78,"Velocity":51,"Duration":60120,"SoundDuration":60120,"Delta":200297475},{"NoteNumber":81,"Velocity":51,"Duration":60120,"SoundDuration":60120,"Delta":200297475},{"NoteNumber":85,"Velocity":51,"Duration":60120,"SoundDuration":60120,"Delta":200297475},{"NoteNumber":49,"Velocity":28,"Duration":60120,"SoundDuration":60120,"Delta":200297475},{"NoteNumber":78,"Velocity":51,"Duration":60635,"SoundDuration":60635,"Delta":200538985},{"NoteNumber":81,"Velocity":51,"Duration":60635,"SoundDuration":60635,"Delta":200538985},{"NoteNumber":85,"Velocity":51,"Duration":60635,"SoundDuration":60635,"Delta":200538985},{"NoteNumber":49,"Velocity":28,"Duration":60635,"SoundDuration":60635,"Delta":200538985},{"NoteNumber":57,"Velocity":28,"Duration":58388,"SoundDuration":58388,"Delta":200781527},{"NoteNumber":61,"Velocity":28,"Duration":58388,"SoundDuration":58388,"Delta":200781527},{"NoteNumber":66,"Velocity":33,"Duration":58388,"SoundDuration":58388,"Delta":200781527},{"NoteNumber":54,"Velocity":25,"Duration":60635,"SoundDuration":60635,"Delta":201015081},{"NoteNumber":54,"Velocity":25,"Duration":61692,"SoundDuration":61692,"Delta":201257623},{"NoteNumber":57,"Velocity":25,"Duration":58153,"SoundDuration":58153,"Delta":201504394},{"NoteNumber":61,"Velocity":25,"Duration":58153,"SoundDuration":58153,"Delta":201504394},{"NoteNumber":66,"Velocity":30,"Duration":58153,"SoundDuration":58153,"Delta":201504394},{"NoteNumber":54,"Velocity":25,"Duration":60635,"SoundDuration":60635,"Delta":201737006},{"NoteNumber":54,"Velocity":25,"Duration":62230,"SoundDuration":62230,"Delta":201979548},{"NoteNumber":73,"Velocity":53,"Duration":234724,"SoundDuration":234724,"Delta":202228470},{"NoteNumber":66,"Velocity":29,"Duration":60120,"SoundDuration":60120,"Delta":202228470},{"NoteNumber":57,"Velocity":24,"Duration":60120,"SoundDuration":60120,"Delta":202228470},{"NoteNumber":61,"Velocity":24,"Duration":60120,"SoundDuration":60120,"Delta":202228470},{"NoteNumber":76,"Velocity":38,"Duration":54363,"SoundDuration":54363,"Delta":202408830},{"NoteNumber":74,"Velocity":45,"Duration":236480,"SoundDuration":236480,"Delta":202463194},{"NoteNumber":54,"Velocity":24,"Duration":59120,"SoundDuration":59120,"Delta":202463194},{"NoteNumber":73,"Velocity":45,"Duration":236480,"SoundDuration":236480,"Delta":202699675},{"NoteNumber":54,"Velocity":24,"Duration":59120,"SoundDuration":59120,"Delta":202699675},{"NoteNumber":71,"Velocity":52,"Duration":230716,"SoundDuration":230716,"Delta":202936156},{"NoteNumber":62,"Velocity":25,"Duration":57679,"SoundDuration":57679,"Delta":202936156},{"NoteNumber":66,"Velocity":30,"Duration":57679,"SoundDuration":57679,"Delta":202936156},{"NoteNumber":73,"Velocity":45,"Duration":114425,"SoundDuration":114425,"Delta":203166872},{"NoteNumber":50,"Velocity":24,"Duration":57212,"SoundDuration":57212,"Delta":203166872},{"NoteNumber":74,"Velocity":45,"Duration":114425,"SoundDuration":114425,"Delta":203281297},{"NoteNumber":76,"Velocity":47,"Duration":114425,"SoundDuration":114425,"Delta":203395723},{"NoteNumber":50,"Velocity":24,"Duration":57212,"SoundDuration":57212,"Delta":203395723},{"NoteNumber":78,"Velocity":48,"Duration":114425,"SoundDuration":114425,"Delta":203510148},{"NoteNumber":80,"Velocity":52,"Duration":231660,"SoundDuration":231660,"Delta":203624573},{"NoteNumber":62,"Velocity":24,"Duration":57915,"SoundDuration":57915,"Delta":203624573},{"NoteNumber":64,"Velocity":29,"Duration":57915,"SoundDuration":57915,"Delta":203624573},{"NoteNumber":78,"Velocity":53,"Duration":114425,"SoundDuration":114425,"Delta":203856233},{"NoteNumber":52,"Velocity":24,"Duration":57212,"SoundDuration":57212,"Delta":203856233},{"NoteNumber":80,"Velocity":43,"Duration":114425,"SoundDuration":114425,"Delta":203970658},{"NoteNumber":81,"Velocity":46,"Duration":117260,"SoundDuration":117260,"Delta":204085084},{"NoteNumber":52,"Velocity":24,"Duration":58630,"SoundDuration":58630,"Delta":204085084},{"NoteNumber":83,"Velocity":49,"Duration":117260,"SoundDuration":117260,"Delta":204202344},{"NoteNumber":85,"Velocity":52,"Duration":57968,"SoundDuration":57968,"Delta":204319605},{"NoteNumber":64,"Velocity":29,"Duration":57968,"SoundDuration":57968,"Delta":204319605},{"NoteNumber":61,"Velocity":24,"Duration":57968,"SoundDuration":57968,"Delta":204319605},{"NoteNumber":85,"Velocity":49,"Duration":57968,"SoundDuration":57968,"Delta":204551480},{"NoteNumber":57,"Velocity":24,"Duration":57968,"SoundDuration":57968,"Delta":204551480},{"NoteNumber":85,"Velocity":48,"Duration":59325,"SoundDuration":59325,"Delta":204783355},{"NoteNumber":57,"Velocity":24,"Duration":59325,"SoundDuration":59325,"Delta":204783355},{"NoteNumber":61,"Velocity":25,"Duration":60635,"SoundDuration":60635,"Delta":205020659},{"NoteNumber":64,"Velocity":30,"Duration":60635,"SoundDuration":60635,"Delta":205020659},{"NoteNumber":57,"Velocity":25,"Duration":60635,"SoundDuration":60635,"Delta":205263201},{"NoteNumber":57,"Velocity":26,"Duration":63062,"SoundDuration":63062,"Delta":205505743},{"NoteNumber":73,"Velocity":53,"Duration":59120,"SoundDuration":59120,"Delta":205757992},{"NoteNumber":64,"Velocity":29,"Duration":59120,"SoundDuration":59120,"Delta":205757992},{"NoteNumber":61,"Velocity":24,"Duration":59120,"SoundDuration":59120,"Delta":205757992},{"NoteNumber":73,"Velocity":45,"Duration":59120,"SoundDuration":59120,"Delta":205994473},{"NoteNumber":57,"Velocity":24,"Duration":59120,"SoundDuration":59120,"Delta":205994473},{"NoteNumber":73,"Velocity":45,"Duration":59120,"SoundDuration":59120,"Delta":206230954},{"NoteNumber":57,"Velocity":24,"Duration":59120,"SoundDuration":59120,"Delta":206230954},{"NoteNumber":73,"Velocity":52,"Duration":230716,"SoundDuration":230716,"Delta":206467435},{"NoteNumber":61,"Velocity":25,"Duration":57679,"SoundDuration":57679,"Delta":206467435},{"NoteNumber":64,"Velocity":30,"Duration":57679,"SoundDuration":57679,"Delta":206467435},{"NoteNumber":76,"Velocity":45,"Duration":115357,"SoundDuration":115357,"Delta":206698151},{"NoteNumber":58,"Velocity":24,"Duration":57679,"SoundDuration":57679,"Delta":206698151},{"NoteNumber":74,"Velocity":45,"Duration":115358,"SoundDuration":115358,"Delta":206813509},{"NoteNumber":73,"Velocity":47,"Duration":115357,"SoundDuration":115357,"Delta":206928867},{"NoteNumber":58,"Velocity":24,"Duration":57679,"SoundDuration":57679,"Delta":206928867},{"NoteNumber":76,"Velocity":48,"Duration":115358,"SoundDuration":115358,"Delta":207044225},{"NoteNumber":74,"Velocity":52,"Duration":58388,"SoundDuration":58388,"Delta":207159583},{"NoteNumber":62,"Velocity":24,"Duration":58388,"SoundDuration":58388,"Delta":207159583},{"NoteNumber":64,"Velocity":29,"Duration":58388,"SoundDuration":58388,"Delta":207159583},{"NoteNumber":74,"Velocity":52,"Duration":57444,"SoundDuration":57444,"Delta":207393137},{"NoteNumber":59,"Velocity":24,"Duration":57444,"SoundDuration":57444,"Delta":207393137},{"NoteNumber":74,"Velocity":51,"Duration":60120,"SoundDuration":60120,"Delta":207622917},{"NoteNumber":59,"Velocity":24,"Duration":60120,"SoundDuration":60120,"Delta":207622917},{"NoteNumber":86,"Velocity":52,"Duration":59368,"SoundDuration":59368,"Delta":207863398},{"NoteNumber":64,"Velocity":29,"Duration":59368,"SoundDuration":59368,"Delta":207863398},{"NoteNumber":62,"Velocity":24,"Duration":59368,"SoundDuration":59368,"Delta":207863398},{"NoteNumber":86,"Velocity":49,"Duration":59368,"SoundDuration":59368,"Delta":208100871},{"NoteNumber":59,"Velocity":24,"Duration":59368,"SoundDuration":59368,"Delta":208100871},{"NoteNumber":86,"Velocity":48,"Duration":59325,"SoundDuration":59325,"Delta":208338345},{"NoteNumber":59,"Velocity":24,"Duration":59325,"SoundDuration":59325,"Delta":208338345},{"NoteNumber":62,"Velocity":22,"Duration":60635,"SoundDuration":60635,"Delta":208575649},{"NoteNumber":64,"Velocity":25,"Duration":60635,"SoundDuration":60635,"Delta":208575649},{"NoteNumber":59,"Velocity":22,"Duration":60635,"SoundDuration":60635,"Delta":208818191},{"NoteNumber":59,"Velocity":22,"Duration":63062,"SoundDuration":63062,"Delta":209060733},{"NoteNumber":74,"Velocity":53,"Duration":59120,"SoundDuration":59120,"Delta":209312982},{"NoteNumber":64,"Velocity":29,"Duration":59120,"SoundDuration":59120,"Delta":209312982},{"NoteNumber":62,"Velocity":24,"Duration":59120,"SoundDuration":59120,"Delta":209312982},{"NoteNumber":74,"Velocity":45,"Duration":59120,"SoundDuration":59120,"Delta":209549463},{"NoteNumber":59,"Velocity":24,"Duration":59120,"SoundDuration":59120,"Delta":209549463},{"NoteNumber":74,"Velocity":45,"Duration":59120,"SoundDuration":59120,"Delta":209785944},{"NoteNumber":59,"Velocity":24,"Duration":59120,"SoundDuration":59120,"Delta":209785944},{"NoteNumber":74,"Velocity":52,"Duration":230716,"SoundDuration":230716,"Delta":210022425},{"NoteNumber":62,"Velocity":25,"Duration":57679,"SoundDuration":57679,"Delta":210022425},{"NoteNumber":65,"Velocity":30,"Duration":57679,"SoundDuration":57679,"Delta":210022425},{"NoteNumber":77,"Velocity":45,"Duration":114425,"SoundDuration":114425,"Delta":210253141},{"NoteNumber":59,"Velocity":24,"Duration":57212,"SoundDuration":57212,"Delta":210253141},{"NoteNumber":76,"Velocity":45,"Duration":114425,"SoundDuration":114425,"Delta":210367566},{"NoteNumber":74,"Velocity":47,"Duration":114425,"SoundDuration":114425,"Delta":210481991},{"NoteNumber":59,"Velocity":24,"Duration":57212,"SoundDuration":57212,"Delta":210481991},{"NoteNumber":77,"Velocity":48,"Duration":114425,"SoundDuration":114425,"Delta":210596416},{"NoteNumber":74,"Velocity":52,"Duration":58630,"SoundDuration":58630,"Delta":210710842},{"NoteNumber":62,"Velocity":24,"Duration":58630,"SoundDuration":58630,"Delta":210710842},{"NoteNumber":65,"Velocity":29,"Duration":58630,"SoundDuration":58630,"Delta":210710842},{"NoteNumber":74,"Velocity":52,"Duration":56982,"SoundDuration":56982,"Delta":210945363},{"NoteNumber":59,"Velocity":24,"Duration":56982,"SoundDuration":56982,"Delta":210945363},{"NoteNumber":74,"Velocity":52,"Duration":62782,"SoundDuration":62782,"Delta":211173292},{"NoteNumber":59,"Velocity":24,"Duration":62782,"SoundDuration":62782,"Delta":211173292},{"NoteNumber":86,"Velocity":52,"Duration":60376,"SoundDuration":60376,"Delta":211424422},{"NoteNumber":65,"Velocity":29,"Duration":60376,"SoundDuration":60376,"Delta":211424422},{"NoteNumber":62,"Velocity":24,"Duration":60376,"SoundDuration":60376,"Delta":211424422},{"NoteNumber":86,"Velocity":49,"Duration":61425,"SoundDuration":61425,"Delta":211665929},{"NoteNumber":59,"Velocity":24,"Duration":61425,"SoundDuration":61425,"Delta":211665929},{"NoteNumber":86,"Velocity":48,"Duration":62782,"SoundDuration":62782,"Delta":211911629},{"NoteNumber":59,"Velocity":24,"Duration":62782,"SoundDuration":62782,"Delta":211911629},{"NoteNumber":74,"Velocity":56,"Duration":233553,"SoundDuration":233553,"Delta":212162759},{"NoteNumber":59,"Velocity":26,"Duration":116777,"SoundDuration":116777,"Delta":212162759},{"NoteNumber":62,"Velocity":32,"Duration":116777,"SoundDuration":116777,"Delta":212162759},{"NoteNumber":65,"Velocity":26,"Duration":116776,"SoundDuration":116776,"Delta":212279536},{"NoteNumber":73,"Velocity":52,"Duration":233553,"SoundDuration":233553,"Delta":212396313},{"NoteNumber":62,"Velocity":28,"Duration":116777,"SoundDuration":116777,"Delta":212396313},{"NoteNumber":59,"Velocity":22,"Duration":116777,"SoundDuration":116777,"Delta":212396313},{"NoteNumber":65,"Velocity":26,"Duration":116776,"SoundDuration":116776,"Delta":212513090},{"NoteNumber":74,"Velocity":52,"Duration":239482,"SoundDuration":239482,"Delta":212629867},{"NoteNumber":62,"Velocity":28,"Duration":119741,"SoundDuration":119741,"Delta":212629867},{"NoteNumber":59,"Velocity":22,"Duration":119741,"SoundDuration":119741,"Delta":212629867},{"NoteNumber":65,"Velocity":26,"Duration":119741,"SoundDuration":119741,"Delta":212749608},{"NoteNumber":86,"Velocity":56,"Duration":232611,"SoundDuration":232611,"Delta":212869350},{"NoteNumber":58,"Velocity":26,"Duration":116306,"SoundDuration":116306,"Delta":212869350},{"NoteNumber":62,"Velocity":32,"Duration":116306,"SoundDuration":116306,"Delta":212869350},{"NoteNumber":65,"Velocity":26,"Duration":116305,"SoundDuration":116305,"Delta":212985656},{"NoteNumber":85,"Velocity":52,"Duration":232612,"SoundDuration":232612,"Delta":213101962},{"NoteNumber":62,"Velocity":28,"Duration":116306,"SoundDuration":116306,"Delta":213101962},{"NoteNumber":58,"Velocity":22,"Duration":116306,"SoundDuration":116306,"Delta":213101962},{"NoteNumber":65,"Velocity":26,"Duration":116306,"SoundDuration":116306,"Delta":213218268},{"NoteNumber":86,"Velocity":52,"Duration":239482,"SoundDuration":239482,"Delta":213334574},{"NoteNumber":62,"Velocity":28,"Duration":119741,"SoundDuration":119741,"Delta":213334574},{"NoteNumber":58,"Velocity":22,"Duration":119741,"SoundDuration":119741,"Delta":213334574},{"NoteNumber":65,"Velocity":26,"Duration":119741,"SoundDuration":119741,"Delta":213454315},{"NoteNumber":82,"Velocity":54,"Duration":230893,"SoundDuration":230893,"Delta":213574056},{"NoteNumber":58,"Velocity":31,"Duration":115446,"SoundDuration":115446,"Delta":213574056},{"NoteNumber":62,"Velocity":38,"Duration":115446,"SoundDuration":115446,"Delta":213574056},{"NoteNumber":65,"Velocity":25,"Duration":115446,"SoundDuration":115446,"Delta":213689503},{"NoteNumber":81,"Velocity":47,"Duration":230893,"SoundDuration":230893,"Delta":213804950},{"NoteNumber":58,"Velocity":24,"Duration":115446,"SoundDuration":115446,"Delta":213804950},{"NoteNumber":62,"Velocity":29,"Duration":115446,"SoundDuration":115446,"Delta":213804950},{"NoteNumber":65,"Velocity":24,"Duration":115446,"SoundDuration":115446,"Delta":213920396},{"NoteNumber":82,"Velocity":48,"Duration":230893,"SoundDuration":230893,"Delta":214035843},{"NoteNumber":58,"Velocity":24,"Duration":115446,"SoundDuration":115446,"Delta":214035843},{"NoteNumber":62,"Velocity":29,"Duration":115446,"SoundDuration":115446,"Delta":214035843},{"NoteNumber":65,"Velocity":25,"Duration":115446,"SoundDuration":115446,"Delta":214151290},{"NoteNumber":79,"Velocity":51,"Duration":228137,"SoundDuration":228137,"Delta":214266737},{"NoteNumber":58,"Velocity":29,"Duration":114068,"SoundDuration":114068,"Delta":214266737},{"NoteNumber":63,"Velocity":34,"Duration":114068,"SoundDuration":114068,"Delta":214266737},{"NoteNumber":67,"Velocity":26,"Duration":114068,"SoundDuration":114068,"Delta":214380805},{"NoteNumber":81,"Velocity":48,"Duration":113156,"SoundDuration":113156,"Delta":214494874},{"NoteNumber":58,"Velocity":25,"Duration":113156,"SoundDuration":113156,"Delta":214494874},{"NoteNumber":63,"Velocity":30,"Duration":113156,"SoundDuration":113156,"Delta":214494874},{"NoteNumber":82,"Velocity":49,"Duration":113156,"SoundDuration":113156,"Delta":214608030},{"NoteNumber":67,"Velocity":25,"Duration":113156,"SoundDuration":113156,"Delta":214608030},{"NoteNumber":84,"Velocity":51,"Duration":113156,"SoundDuration":113156,"Delta":214721186},{"NoteNumber":58,"Velocity":25,"Duration":113156,"SoundDuration":113156,"Delta":214721186},{"NoteNumber":63,"Velocity":30,"Duration":113156,"SoundDuration":113156,"Delta":214721186},{"NoteNumber":86,"Velocity":52,"Duration":113156,"SoundDuration":113156,"Delta":214834342},{"NoteNumber":67,"Velocity":25,"Duration":113156,"SoundDuration":113156,"Delta":214834342},{"NoteNumber":82,"Velocity":57,"Duration":231499,"SoundDuration":231499,"Delta":214947499},{"NoteNumber":58,"Velocity":35,"Duration":115749,"SoundDuration":115749,"Delta":214947499},{"NoteNumber":62,"Velocity":43,"Duration":115749,"SoundDuration":115749,"Delta":214947499},{"NoteNumber":65,"Velocity":28,"Duration":115749,"SoundDuration":115749,"Delta":215063248},{"NoteNumber":84,"Velocity":58,"Duration":114364,"SoundDuration":114364,"Delta":215178998},{"NoteNumber":62,"Velocity":31,"Duration":114364,"SoundDuration":114364,"Delta":215178998},{"NoteNumber":58,"Velocity":25,"Duration":114364,"SoundDuration":114364,"Delta":215178998},{"NoteNumber":82,"Velocity":51,"Duration":114364,"SoundDuration":114364,"Delta":215293362},{"NoteNumber":65,"Velocity":26,"Duration":114364,"SoundDuration":114364,"Delta":215293362},{"NoteNumber":81,"Velocity":56,"Duration":114364,"SoundDuration":114364,"Delta":215407727},{"NoteNumber":58,"Velocity":26,"Duration":114364,"SoundDuration":114364,"Delta":215407727},{"NoteNumber":62,"Velocity":32,"Duration":114364,"SoundDuration":114364,"Delta":215407727},{"NoteNumber":79,"Velocity":51,"Duration":114364,"SoundDuration":114364,"Delta":215522091},{"NoteNumber":65,"Velocity":26,"Duration":114364,"SoundDuration":114364,"Delta":215522091},{"NoteNumber":77,"Velocity":61,"Duration":58589,"SoundDuration":58589,"Delta":215636455},{"NoteNumber":57,"Velocity":32,"Duration":117178,"SoundDuration":117178,"Delta":215636455},{"NoteNumber":63,"Velocity":39,"Duration":117178,"SoundDuration":117178,"Delta":215636455},{"NoteNumber":65,"Velocity":28,"Duration":117178,"SoundDuration":117178,"Delta":215753633},{"NoteNumber":77,"Velocity":56,"Duration":58589,"SoundDuration":58589,"Delta":215870812},{"NoteNumber":57,"Velocity":26,"Duration":117178,"SoundDuration":117178,"Delta":215870812},{"NoteNumber":63,"Velocity":32,"Duration":117178,"SoundDuration":117178,"Delta":215870812},{"NoteNumber":65,"Velocity":29,"Duration":117178,"SoundDuration":117178,"Delta":215987990},{"NoteNumber":77,"Velocity":56,"Duration":59961,"SoundDuration":59961,"Delta":216105168},{"NoteNumber":57,"Velocity":28,"Duration":119923,"SoundDuration":119923,"Delta":216105168},{"NoteNumber":63,"Velocity":33,"Duration":119923,"SoundDuration":119923,"Delta":216105168},{"NoteNumber":65,"Velocity":28,"Duration":119923,"SoundDuration":119923,"Delta":216225091},{"NoteNumber":78,"Velocity":69,"Duration":234319,"SoundDuration":234319,"Delta":216345015},{"NoteNumber":57,"Velocity":35,"Duration":117160,"SoundDuration":117160,"Delta":216345015},{"NoteNumber":63,"Velocity":42,"Duration":117160,"SoundDuration":117160,"Delta":216345015},{"NoteNumber":66,"Velocity":29,"Duration":117159,"SoundDuration":117159,"Delta":216462175},{"NoteNumber":90,"Velocity":66,"Duration":234319,"SoundDuration":234319,"Delta":216579335},{"NoteNumber":57,"Velocity":28,"Duration":117160,"SoundDuration":117160,"Delta":216579335},{"NoteNumber":63,"Velocity":34,"Duration":117160,"SoundDuration":117160,"Delta":216579335},{"NoteNumber":66,"Velocity":29,"Duration":117159,"SoundDuration":117159,"Delta":216696495},{"NoteNumber":90,"Velocity":67,"Duration":59722,"SoundDuration":59722,"Delta":216813655},{"NoteNumber":57,"Velocity":28,"Duration":119445,"SoundDuration":119445,"Delta":216813655},{"NoteNumber":63,"Velocity":34,"Duration":119445,"SoundDuration":119445,"Delta":216813655},{"NoteNumber":66,"Velocity":30,"Duration":119445,"SoundDuration":119445,"Delta":216933100},{"NoteNumber":91,"Velocity":76,"Duration":234319,"SoundDuration":234319,"Delta":217052546},{"NoteNumber":58,"Velocity":34,"Duration":117160,"SoundDuration":117160,"Delta":217052546},{"NoteNumber":63,"Velocity":40,"Duration":117160,"SoundDuration":117160,"Delta":217052546},{"NoteNumber":67,"Velocity":30,"Duration":117159,"SoundDuration":117159,"Delta":217169706},{"NoteNumber":79,"Velocity":61,"Duration":234319,"SoundDuration":234319,"Delta":217286866},{"NoteNumber":58,"Velocity":29,"Duration":117160,"SoundDuration":117160,"Delta":217286866},{"NoteNumber":63,"Velocity":34,"Duration":117160,"SoundDuration":117160,"Delta":217286866},{"NoteNumber":67,"Velocity":30,"Duration":117159,"SoundDuration":117159,"Delta":217404026},{"NoteNumber":79,"Velocity":61,"Duration":58580,"SoundDuration":58580,"Delta":217521186},{"NoteNumber":58,"Velocity":29,"Duration":117160,"SoundDuration":117160,"Delta":217521186},{"NoteNumber":63,"Velocity":34,"Duration":117160,"SoundDuration":117160,"Delta":217521186},{"NoteNumber":67,"Velocity":30,"Duration":117159,"SoundDuration":117159,"Delta":217638346},{"NoteNumber":81,"Velocity":65,"Duration":58580,"SoundDuration":58580,"Delta":217755506},{"NoteNumber":60,"Velocity":35,"Duration":117160,"SoundDuration":117160,"Delta":217755506},{"NoteNumber":63,"Velocity":42,"Duration":117160,"SoundDuration":117160,"Delta":217755506},{"NoteNumber":67,"Velocity":31,"Duration":117159,"SoundDuration":117159,"Delta":217872666},{"NoteNumber":94,"Velocity":62,"Duration":29289,"SoundDuration":29289,"Delta":217960536},{"NoteNumber":93,"Velocity":65,"Duration":114364,"SoundDuration":114364,"Delta":217989826},{"NoteNumber":60,"Velocity":30,"Duration":114364,"SoundDuration":114364,"Delta":217989826},{"NoteNumber":63,"Velocity":35,"Duration":114364,"SoundDuration":114364,"Delta":217989826},{"NoteNumber":91,"Velocity":62,"Duration":114364,"SoundDuration":114364,"Delta":218104190},{"NoteNumber":67,"Velocity":31,"Duration":114364,"SoundDuration":114364,"Delta":218104190},{"NoteNumber":93,"Velocity":66,"Duration":231499,"SoundDuration":231499,"Delta":218218555},{"NoteNumber":60,"Velocity":31,"Duration":115749,"SoundDuration":115749,"Delta":218218555},{"NoteNumber":63,"Velocity":37,"Duration":115749,"SoundDuration":115749,"Delta":218218555},{"NoteNumber":67,"Velocity":32,"Duration":115749,"SoundDuration":115749,"Delta":218334304},{"NoteNumber":94,"Velocity":68,"Duration":57874,"SoundDuration":57874,"Delta":218450054},{"NoteNumber":55,"Velocity":35,"Duration":115749,"SoundDuration":115749,"Delta":218450054},{"NoteNumber":62,"Velocity":43,"Duration":115749,"SoundDuration":115749,"Delta":218450054},{"NoteNumber":67,"Velocity":32,"Duration":115749,"SoundDuration":115749,"Delta":218565804},{"NoteNumber":84,"Velocity":61,"Duration":28937,"SoundDuration":28937,"Delta":218652616},{"NoteNumber":82,"Velocity":63,"Duration":114364,"SoundDuration":114364,"Delta":218681554},{"NoteNumber":55,"Velocity":31,"Duration":114364,"SoundDuration":114364,"Delta":218681554},{"NoteNumber":62,"Velocity":37,"Duration":114364,"SoundDuration":114364,"Delta":218681554},{"NoteNumber":81,"Velocity":60,"Duration":114364,"SoundDuration":114364,"Delta":218795918},{"NoteNumber":67,"Velocity":32,"Duration":114364,"SoundDuration":114364,"Delta":218795918},{"NoteNumber":82,"Velocity":65,"Duration":122329,"SoundDuration":122329,"Delta":218910282},{"NoteNumber":55,"Velocity":31,"Duration":122329,"SoundDuration":122329,"Delta":218910282},{"NoteNumber":62,"Velocity":37,"Duration":122329,"SoundDuration":122329,"Delta":218910282},{"NoteNumber":67,"Velocity":33,"Duration":122329,"SoundDuration":122329,"Delta":219032611},{"NoteNumber":75,"Velocity":44,"Duration":117601,"SoundDuration":117601,"Delta":219154941},{"NoteNumber":79,"Velocity":52,"Duration":117601,"SoundDuration":117601,"Delta":219154941},{"NoteNumber":63,"Velocity":62,"Duration":235201,"SoundDuration":235201,"Delta":219154941},{"NoteNumber":82,"Velocity":46,"Duration":117600,"SoundDuration":117600,"Delta":219272542},{"NoteNumber":75,"Velocity":45,"Duration":117601,"SoundDuration":117601,"Delta":219390143},{"NoteNumber":79,"Velocity":53,"Duration":117601,"SoundDuration":117601,"Delta":219390143},{"NoteNumber":62,"Velocity":52,"Duration":235202,"SoundDuration":235202,"Delta":219390143},{"NoteNumber":82,"Velocity":45,"Duration":117601,"SoundDuration":117601,"Delta":219507744},{"NoteNumber":75,"Velocity":45,"Duration":117601,"SoundDuration":117601,"Delta":219625345},{"NoteNumber":79,"Velocity":53,"Duration":117601,"SoundDuration":117601,"Delta":219625345},{"NoteNumber":63,"Velocity":52,"Duration":235201,"SoundDuration":235201,"Delta":219625345},{"NoteNumber":82,"Velocity":46,"Duration":117600,"SoundDuration":117600,"Delta":219742946},{"NoteNumber":75,"Velocity":46,"Duration":115278,"SoundDuration":115278,"Delta":219860547},{"NoteNumber":79,"Velocity":54,"Duration":115278,"SoundDuration":115278,"Delta":219860547},{"NoteNumber":60,"Velocity":62,"Duration":230556,"SoundDuration":230556,"Delta":219860547},{"NoteNumber":84,"Velocity":46,"Duration":115278,"SoundDuration":115278,"Delta":219975825},{"NoteNumber":75,"Velocity":45,"Duration":114364,"SoundDuration":114364,"Delta":220091103},{"NoteNumber":79,"Velocity":53,"Duration":114364,"SoundDuration":114364,"Delta":220091103},{"NoteNumber":62,"Velocity":50,"Duration":114364,"SoundDuration":114364,"Delta":220091103},{"NoteNumber":84,"Velocity":45,"Duration":114364,"SoundDuration":114364,"Delta":220205467},{"NoteNumber":63,"Velocity":50,"Duration":114364,"SoundDuration":114364,"Delta":220205467},{"NoteNumber":75,"Velocity":45,"Duration":114364,"SoundDuration":114364,"Delta":220319832},{"NoteNumber":79,"Velocity":53,"Duration":114364,"SoundDuration":114364,"Delta":220319832},{"NoteNumber":65,"Velocity":52,"Duration":114364,"SoundDuration":114364,"Delta":220319832},{"NoteNumber":84,"Velocity":45,"Duration":114364,"SoundDuration":114364,"Delta":220434196},{"NoteNumber":67,"Velocity":52,"Duration":114364,"SoundDuration":114364,"Delta":220434196},{"NoteNumber":75,"Velocity":48,"Duration":115749,"SoundDuration":115749,"Delta":220548560},{"NoteNumber":79,"Velocity":57,"Duration":115749,"SoundDuration":115749,"Delta":220548560},{"NoteNumber":63,"Velocity":60,"Duration":231499,"SoundDuration":231499,"Delta":220548560},{"NoteNumber":82,"Velocity":46,"Duration":115749,"SoundDuration":115749,"Delta":220664310},{"NoteNumber":79,"Velocity":53,"Duration":114364,"SoundDuration":114364,"Delta":220780060},{"NoteNumber":75,"Velocity":45,"Duration":114364,"SoundDuration":114364,"Delta":220780060},{"NoteNumber":65,"Velocity":57,"Duration":114364,"SoundDuration":114364,"Delta":220780060},{"NoteNumber":82,"Velocity":45,"Duration":114364,"SoundDuration":114364,"Delta":220894424},{"NoteNumber":63,"Velocity":52,"Duration":114364,"SoundDuration":114364,"Delta":220894424},{"NoteNumber":75,"Velocity":45,"Duration":114364,"SoundDuration":114364,"Delta":221008788},{"NoteNumber":79,"Velocity":53,"Duration":114364,"SoundDuration":114364,"Delta":221008788},{"NoteNumber":62,"Velocity":57,"Duration":114364,"SoundDuration":114364,"Delta":221008788},{"NoteNumber":82,"Velocity":45,"Duration":115329,"SoundDuration":115329,"Delta":221123152},{"NoteNumber":60,"Velocity":52,"Duration":115329,"SoundDuration":115329,"Delta":221123152},{"NoteNumber":74,"Velocity":51,"Duration":117423,"SoundDuration":117423,"Delta":221238482},{"NoteNumber":80,"Velocity":61,"Duration":117423,"SoundDuration":117423,"Delta":221238482},{"NoteNumber":58,"Velocity":61,"Duration":58630,"SoundDuration":58630,"Delta":221238482},{"NoteNumber":82,"Velocity":46,"Duration":118076,"SoundDuration":118076,"Delta":221355905},{"NoteNumber":74,"Velocity":45,"Duration":118903,"SoundDuration":118903,"Delta":221473982},{"NoteNumber":80,"Velocity":53,"Duration":118903,"SoundDuration":118903,"Delta":221473982},{"NoteNumber":58,"Velocity":52,"Duration":59368,"SoundDuration":59368,"Delta":221473982},{"NoteNumber":82,"Velocity":48,"Duration":119573,"SoundDuration":119573,"Delta":221592886},{"NoteNumber":74,"Velocity":45,"Duration":120240,"SoundDuration":120240,"Delta":221712459},{"NoteNumber":80,"Velocity":53,"Duration":120240,"SoundDuration":120240,"Delta":221712459},{"NoteNumber":58,"Velocity":52,"Duration":60120,"SoundDuration":60120,"Delta":221712459},{"NoteNumber":82,"Velocity":46,"Duration":120240,"SoundDuration":120240,"Delta":221832699},{"NoteNumber":74,"Velocity":49,"Duration":117160,"SoundDuration":117160,"Delta":221952940},{"NoteNumber":80,"Velocity":58,"Duration":117160,"SoundDuration":117160,"Delta":221952940},{"NoteNumber":59,"Velocity":60,"Duration":234319,"SoundDuration":234319,"Delta":221952940},{"NoteNumber":86,"Velocity":46,"Duration":117159,"SoundDuration":117159,"Delta":222070100},{"NoteNumber":74,"Velocity":45,"Duration":117160,"SoundDuration":117160,"Delta":222187260},{"NoteNumber":80,"Velocity":53,"Duration":117160,"SoundDuration":117160,"Delta":222187260},{"NoteNumber":71,"Velocity":50,"Duration":234319,"SoundDuration":234319,"Delta":222187260},{"NoteNumber":86,"Velocity":46,"Duration":117159,"SoundDuration":117159,"Delta":222304420},{"NoteNumber":74,"Velocity":45,"Duration":119923,"SoundDuration":119923,"Delta":222421580},{"NoteNumber":80,"Velocity":53,"Duration":119923,"SoundDuration":119923,"Delta":222421580},{"NoteNumber":71,"Velocity":53,"Duration":119923,"SoundDuration":119923,"Delta":222421580},{"NoteNumber":86,"Velocity":46,"Duration":119923,"SoundDuration":119923,"Delta":222541503},{"NoteNumber":75,"Velocity":48,"Duration":117160,"SoundDuration":117160,"Delta":222661426},{"NoteNumber":80,"Velocity":57,"Duration":117160,"SoundDuration":117160,"Delta":222661426},{"NoteNumber":72,"Velocity":62,"Duration":234319,"SoundDuration":234319,"Delta":222661426},{"NoteNumber":87,"Velocity":46,"Duration":117159,"SoundDuration":117159,"Delta":222778586},{"NoteNumber":75,"Velocity":45,"Duration":117160,"SoundDuration":117160,"Delta":222895746},{"NoteNumber":80,"Velocity":53,"Duration":117160,"SoundDuration":117160,"Delta":222895746},{"NoteNumber":60,"Velocity":58,"Duration":234319,"SoundDuration":234319,"Delta":222895746},{"NoteNumber":87,"Velocity":46,"Duration":117159,"SoundDuration":117159,"Delta":223012906},{"NoteNumber":75,"Velocity":45,"Duration":117160,"SoundDuration":117160,"Delta":223130066},{"NoteNumber":80,"Velocity":53,"Duration":117160,"SoundDuration":117160,"Delta":223130066},{"NoteNumber":60,"Velocity":60,"Duration":117160,"SoundDuration":117160,"Delta":223130066},{"NoteNumber":86,"Velocity":46,"Duration":117159,"SoundDuration":117159,"Delta":223247226},{"NoteNumber":75,"Velocity":45,"Duration":117160,"SoundDuration":117160,"Delta":223364386},{"NoteNumber":81,"Velocity":53,"Duration":117160,"SoundDuration":117160,"Delta":223364386},{"NoteNumber":65,"Velocity":66,"Duration":58580,"SoundDuration":58580,"Delta":223364386},{"NoteNumber":84,"Velocity":46,"Duration":117159,"SoundDuration":117159,"Delta":223481546},{"NoteNumber":55,"Velocity":58,"Duration":77640,"SoundDuration":77640,"Delta":223540126},{"NoteNumber":75,"Velocity":45,"Duration":114364,"SoundDuration":114364,"Delta":223598706},{"NoteNumber":81,"Velocity":53,"Duration":114364,"SoundDuration":114364,"Delta":223598706},{"NoteNumber":53,"Velocity":67,"Duration":133424,"SoundDuration":133424,"Delta":223598706},{"NoteNumber":84,"Velocity":46,"Duration":114364,"SoundDuration":114364,"Delta":223713070},{"NoteNumber":52,"Velocity":62,"Duration":135076,"SoundDuration":135076,"Delta":223713070},{"NoteNumber":75,"Velocity":45,"Duration":124275,"SoundDuration":124275,"Delta":223827435},{"NoteNumber":81,"Velocity":53,"Duration":124275,"SoundDuration":124275,"Delta":223827435},{"NoteNumber":53,"Velocity":66,"Duration":248549,"SoundDuration":248549,"Delta":223827435},{"NoteNumber":84,"Velocity":46,"Duration":124274,"SoundDuration":124274,"Delta":223951710},{"NoteNumber":74,"Velocity":45,"Duration":116677,"SoundDuration":116677,"Delta":224075985},{"NoteNumber":82,"Velocity":53,"Duration":116677,"SoundDuration":116677,"Delta":224075985},{"NoteNumber":58,"Velocity":62,"Duration":58338,"SoundDuration":58338,"Delta":224075985},{"NoteNumber":86,"Velocity":46,"Duration":116676,"SoundDuration":116676,"Delta":224192662},{"NoteNumber":48,"Velocity":55,"Duration":77399,"SoundDuration":77399,"Delta":224251000},{"NoteNumber":74,"Velocity":45,"Duration":114364,"SoundDuration":114364,"Delta":224309339},{"NoteNumber":82,"Velocity":53,"Duration":114364,"SoundDuration":114364,"Delta":224309339},{"NoteNumber":46,"Velocity":62,"Duration":133424,"SoundDuration":133424,"Delta":224309339},{"NoteNumber":86,"Velocity":46,"Duration":114364,"SoundDuration":114364,"Delta":224423703},{"NoteNumber":45,"Velocity":57,"Duration":135608,"SoundDuration":135608,"Delta":224423703},{"NoteNumber":74,"Velocity":45,"Duration":127464,"SoundDuration":127464,"Delta":224538067},{"NoteNumber":82,"Velocity":53,"Duration":127464,"SoundDuration":127464,"Delta":224538067},{"NoteNumber":46,"Velocity":62,"Duration":254928,"SoundDuration":254928,"Delta":224538067},{"NoteNumber":86,"Velocity":46,"Duration":127464,"SoundDuration":127464,"Delta":224665531},{"NoteNumber":75,"Velocity":46,"Duration":115278,"SoundDuration":115278,"Delta":224792996},{"NoteNumber":81,"Velocity":54,"Duration":115278,"SoundDuration":115278,"Delta":224792996},{"NoteNumber":41,"Velocity":56,"Duration":230556,"SoundDuration":230556,"Delta":224792996},{"NoteNumber":84,"Velocity":46,"Duration":115278,"SoundDuration":115278,"Delta":224908274},{"NoteNumber":75,"Velocity":45,"Duration":114364,"SoundDuration":114364,"Delta":225023552},{"NoteNumber":81,"Velocity":53,"Duration":114364,"SoundDuration":114364,"Delta":225023552},{"NoteNumber":43,"Velocity":44,"Duration":114364,"SoundDuration":114364,"Delta":225023552},{"NoteNumber":84,"Velocity":45,"Duration":114364,"SoundDuration":114364,"Delta":225137916},{"NoteNumber":45,"Velocity":44,"Duration":114364,"SoundDuration":114364,"Delta":225137916},{"NoteNumber":75,"Velocity":45,"Duration":114364,"SoundDuration":114364,"Delta":225252281},{"NoteNumber":81,"Velocity":53,"Duration":114364,"SoundDuration":114364,"Delta":225252281},{"NoteNumber":46,"Velocity":47,"Duration":114364,"SoundDuration":114364,"Delta":225252281},{"NoteNumber":84,"Velocity":45,"Duration":114364,"SoundDuration":114364,"Delta":225366645},{"NoteNumber":48,"Velocity":47,"Duration":114364,"SoundDuration":114364,"Delta":225366645},{"NoteNumber":74,"Velocity":48,"Duration":117423,"SoundDuration":117423,"Delta":225481009},{"NoteNumber":82,"Velocity":57,"Duration":117423,"SoundDuration":117423,"Delta":225481009},{"NoteNumber":46,"Velocity":53,"Duration":58630,"SoundDuration":58630,"Delta":225481009},{"NoteNumber":86,"Velocity":46,"Duration":118242,"SoundDuration":118242,"Delta":225598433},{"NoteNumber":82,"Velocity":53,"Duration":119070,"SoundDuration":119070,"Delta":225716675},{"NoteNumber":74,"Velocity":45,"Duration":119070,"SoundDuration":119070,"Delta":225716675},{"NoteNumber":46,"Velocity":53,"Duration":59451,"SoundDuration":59451,"Delta":225716675},{"NoteNumber":86,"Velocity":45,"Duration":119243,"SoundDuration":119243,"Delta":225835745},{"NoteNumber":74,"Velocity":45,"Duration":122040,"SoundDuration":122040,"Delta":225954988},{"NoteNumber":82,"Velocity":53,"Duration":122040,"SoundDuration":122040,"Delta":225954988},{"NoteNumber":46,"Velocity":53,"Duration":61020,"SoundDuration":61020,"Delta":225954988},{"NoteNumber":86,"Velocity":45,"Duration":122040,"SoundDuration":122040,"Delta":226077029},{"NoteNumber":75,"Velocity":41,"Duration":118511,"SoundDuration":118511,"Delta":226199069},{"NoteNumber":81,"Velocity":49,"Duration":118511,"SoundDuration":118511,"Delta":226199069},{"NoteNumber":53,"Velocity":50,"Duration":237022,"SoundDuration":237022,"Delta":226199069},{"NoteNumber":84,"Velocity":41,"Duration":118511,"SoundDuration":118511,"Delta":226317581},{"NoteNumber":75,"Velocity":40,"Duration":115642,"SoundDuration":115642,"Delta":226436092},{"NoteNumber":81,"Velocity":48,"Duration":115642,"SoundDuration":115642,"Delta":226436092},{"NoteNumber":55,"Velocity":39,"Duration":115642,"SoundDuration":115642,"Delta":226436092},{"NoteNumber":84,"Velocity":40,"Duration":115642,"SoundDuration":115642,"Delta":226551735},{"NoteNumber":57,"Velocity":39,"Duration":115642,"SoundDuration":115642,"Delta":226551735},{"NoteNumber":75,"Velocity":40,"Duration":118026,"SoundDuration":118026,"Delta":226667377},{"NoteNumber":81,"Velocity":48,"Duration":118026,"SoundDuration":118026,"Delta":226667377},{"NoteNumber":58,"Velocity":41,"Duration":118026,"SoundDuration":118026,"Delta":226667377},{"NoteNumber":84,"Velocity":40,"Duration":118026,"SoundDuration":118026,"Delta":226785404},{"NoteNumber":60,"Velocity":41,"Duration":118026,"SoundDuration":118026,"Delta":226785404},{"NoteNumber":74,"Velocity":42,"Duration":118511,"SoundDuration":118511,"Delta":226903430},{"NoteNumber":82,"Velocity":51,"Duration":118511,"SoundDuration":118511,"Delta":226903430},{"NoteNumber":58,"Velocity":48,"Duration":58892,"SoundDuration":58892,"Delta":226903430},{"NoteNumber":86,"Velocity":41,"Duration":119573,"SoundDuration":119573,"Delta":227021942},{"NoteNumber":82,"Velocity":48,"Duration":120240,"SoundDuration":120240,"Delta":227141515},{"NoteNumber":74,"Velocity":40,"Duration":120240,"SoundDuration":120240,"Delta":227141515},{"NoteNumber":58,"Velocity":48,"Duration":60120,"SoundDuration":60120,"Delta":227141515},{"NoteNumber":86,"Velocity":40,"Duration":120240,"SoundDuration":120240,"Delta":227261755},{"NoteNumber":74,"Velocity":40,"Duration":125786,"SoundDuration":125786,"Delta":227381996},{"NoteNumber":82,"Velocity":48,"Duration":125786,"SoundDuration":125786,"Delta":227381996},{"NoteNumber":58,"Velocity":48,"Duration":62893,"SoundDuration":62893,"Delta":227381996},{"NoteNumber":86,"Velocity":40,"Duration":125786,"SoundDuration":125786,"Delta":227507782},{"NoteNumber":75,"Velocity":35,"Duration":122558,"SoundDuration":122558,"Delta":227633568},{"NoteNumber":81,"Velocity":43,"Duration":122558,"SoundDuration":122558,"Delta":227633568},{"NoteNumber":65,"Velocity":44,"Duration":245117,"SoundDuration":245117,"Delta":227633568},{"NoteNumber":84,"Velocity":37,"Duration":122558,"SoundDuration":122558,"Delta":227756127},{"NoteNumber":75,"Velocity":35,"Duration":115642,"SoundDuration":115642,"Delta":227878686},{"NoteNumber":81,"Velocity":42,"Duration":115642,"SoundDuration":115642,"Delta":227878686},{"NoteNumber":67,"Velocity":34,"Duration":115642,"SoundDuration":115642,"Delta":227878686},{"NoteNumber":84,"Velocity":35,"Duration":115642,"SoundDuration":115642,"Delta":227994329},{"NoteNumber":69,"Velocity":34,"Duration":115642,"SoundDuration":115642,"Delta":227994329},{"NoteNumber":75,"Velocity":35,"Duration":122040,"SoundDuration":122040,"Delta":228109971},{"NoteNumber":81,"Velocity":42,"Duration":122040,"SoundDuration":122040,"Delta":228109971},{"NoteNumber":70,"Velocity":37,"Duration":122040,"SoundDuration":122040,"Delta":228109971},{"NoteNumber":84,"Velocity":35,"Duration":122040,"SoundDuration":122040,"Delta":228232012},{"NoteNumber":72,"Velocity":37,"Duration":122040,"SoundDuration":122040,"Delta":228232012},{"NoteNumber":86,"Velocity":45,"Duration":252674,"SoundDuration":252674,"Delta":228354052},{"NoteNumber":74,"Velocity":38,"Duration":252674,"SoundDuration":252674,"Delta":228354052},{"NoteNumber":82,"Velocity":45,"Duration":252674,"SoundDuration":252674,"Delta":228354052},{"NoteNumber":70,"Velocity":42,"Duration":252674,"SoundDuration":252674,"Delta":228354052},{"NoteNumber":74,"Velocity":33,"Duration":252673,"SoundDuration":252673,"Delta":229112074},{"NoteNumber":82,"Velocity":39,"Duration":252673,"SoundDuration":252673,"Delta":229112074},{"NoteNumber":86,"Velocity":39,"Duration":252673,"SoundDuration":252673,"Delta":229112074},{"NoteNumber":65,"Velocity":28,"Duration":252673,"SoundDuration":252673,"Delta":229112074},{"NoteNumber":70,"Velocity":33,"Duration":252673,"SoundDuration":252673,"Delta":229112074},{"NoteNumber":74,"Velocity":32,"Duration":256805,"SoundDuration":256805,"Delta":229870096},{"NoteNumber":82,"Velocity":38,"Duration":256805,"SoundDuration":256805,"Delta":229870096},{"NoteNumber":86,"Velocity":38,"Duration":256805,"SoundDuration":256805,"Delta":229870096},{"NoteNumber":62,"Velocity":26,"Duration":256805,"SoundDuration":256805,"Delta":229870096},{"NoteNumber":65,"Velocity":26,"Duration":256805,"SoundDuration":256805,"Delta":229870096},{"NoteNumber":70,"Velocity":31,"Duration":256805,"SoundDuration":256805,"Delta":229870096},{"NoteNumber":74,"Velocity":28,"Duration":1027221,"SoundDuration":1027221,"Delta":230640513},{"NoteNumber":82,"Velocity":34,"Duration":1027221,"SoundDuration":1027221,"Delta":230640513},{"NoteNumber":86,"Velocity":34,"Duration":1027221,"SoundDuration":1027221,"Delta":230640513},{"NoteNumber":58,"Velocity":26,"Duration":1027221,"SoundDuration":1027221,"Delta":230640513},{"NoteNumber":65,"Velocity":26,"Duration":1027221,"SoundDuration":1027221,"Delta":230640513},{"NoteNumber":70,"Velocity":31,"Duration":1027221,"SoundDuration":1027221,"Delta":230640513}],"license":{"name":"Creative Commons Attribution-ShareAlike 3.0 Germany","url":"http://creativecommons.org/licenses/by-sa/3.0/de/deed.en","text":"The MIDI files in this folder were downloaded from http://www.piano-midi.de and are licensed under the Creative Commons Attribution-ShareAlike 3.0 Germany license by Bernd Krueger.\n\nThe MIDI, audio(MP3, OGG) and video files of Bernd Krueger are licensed under the cc-by-sa Germany License . This means, that you can use and adapt the files, as long as you attribute to the copyright holder Name: Bernd Krueger Source: http://www.piano-midi.de The distribution or public playback of the files is only allowed under identical license conditions . The scores are open source.","attribution":"Bernd Krueger","attributionUrl":"http://www.piano-midi.de"}}